  0
SECTION
  2
HEADER
  9
$ACADVER
  1
AC1027
  9
$ACADMAINTVER
 70
105
  9
$DWGCODEPAGE
  3
ANSI_1252
  9
$LASTSAVEDBY
  1
ezdxf
  9
$REQUIREDVERSIONS
160
0
  9
$INSBASE
 10
0.0
 20
0.0
 30
0.0
  9
$EXTMIN
 10
1e+20
 20
1e+20
 30
1e+20
  9
$EXTMAX
 10
-1e+20
 20
-1e+20
 30
-1e+20
  9
$LIMMIN
 10
0.0
 20
0.0
  9
$LIMMAX
 10
420.0
 20
297.0
  9
$ORTHOMODE
 70
0
  9
$REGENMODE
 70
1
  9
$FILLMODE
 70
1
  9
$QTEXTMODE
 70
0
  9
$MIRRTEXT
 70
1
  9
$LTSCALE
 40
1.0
  9
$ATTMODE
 70
1
  9
$TEXTSIZE
 40
2.5
  9
$TRACEWID
 40
1.0
  9
$TEXTSTYLE
  7
Standard
  9
$CLAYER
  8
0
  9
$CELTYPE
  6
ByLayer
  9
$CECOLOR
 62
256
  9
$CELTSCALE
 40
1.0
  9
$DISPSILH
 70
0
  9
$DIMSCALE
 40
1.0
  9
$DIMASZ
 40
2.5
  9
$DIMEXO
 40
0.625
  9
$DIMDLI
 40
3.75
  9
$DIMRND
 40
0.0
  9
$DIMDLE
 40
0.0
  9
$DIMEXE
 40
1.25
  9
$DIMTP
 40
0.0
  9
$DIMTM
 40
0.0
  9
$DIMTXT
 40
2.5
  9
$DIMCEN
 40
2.5
  9
$DIMTSZ
 40
0.0
  9
$DIMTOL
 70
0
  9
$DIMLIM
 70
0
  9
$DIMTIH
 70
0
  9
$DIMTOH
 70
0
  9
$DIMSE1
 70
0
  9
$DIMSE2
 70
0
  9
$DIMTAD
 70
1
  9
$DIMZIN
 70
8
  9
$DIMBLK
  1

  9
$DIMASO
 70
1
  9
$DIMSHO
 70
1
  9
$DIMPOST
  1

  9
$DIMAPOST
  1

  9
$DIMALT
 70
0
  9
$DIMALTD
 70
3
  9
$DIMALTF
 40
0.03937007874
  9
$DIMLFAC
 40
1.0
  9
$DIMTOFL
 70
1
  9
$DIMTVP
 40
0.0
  9
$DIMTIX
 70
0
  9
$DIMSOXD
 70
0
  9
$DIMSAH
 70
0
  9
$DIMBLK1
  1

  9
$DIMBLK2
  1

  9
$DIMSTYLE
  2
ISO-25
  9
$DIMCLRD
 70
0
  9
$DIMCLRE
 70
0
  9
$DIMCLRT
 70
0
  9
$DIMTFAC
 40
1.0
  9
$DIMGAP
 40
0.625
  9
$DIMJUST
 70
0
  9
$DIMSD1
 70
0
  9
$DIMSD2
 70
0
  9
$DIMTOLJ
 70
0
  9
$DIMTZIN
 70
8
  9
$DIMALTZ
 70
0
  9
$DIMALTTZ
 70
0
  9
$DIMUPT
 70
0
  9
$DIMDEC
 70
2
  9
$DIMTDEC
 70
2
  9
$DIMALTU
 70
2
  9
$DIMALTTD
 70
3
  9
$DIMTXSTY
  7
Standard
  9
$DIMAUNIT
 70
0
  9
$DIMADEC
 70
0
  9
$DIMALTRND
 40
0.0
  9
$DIMAZIN
 70
0
  9
$DIMDSEP
 70
44
  9
$DIMATFIT
 70
3
  9
$DIMFRAC
 70
0
  9
$DIMLDRBLK
  1

  9
$DIMLUNIT
 70
2
  9
$DIMLWD
 70
-2
  9
$DIMLWE
 70
-2
  9
$DIMTMOVE
 70
0
  9
$DIMFXL
 40
1.0
  9
$DIMFXLON
 70
0
  9
$DIMJOGANG
 40
0.785398163397
  9
$DIMTFILL
 70
0
  9
$DIMTFILLCLR
 70
0
  9
$DIMARCSYM
 70
0
  9
$DIMLTYPE
  6

  9
$DIMLTEX1
  6

  9
$DIMLTEX2
  6

  9
$DIMTXTDIRECTION
 70
0
  9
$LUNITS
 70
2
  9
$LUPREC
 70
4
  9
$SKETCHINC
 40
1.0
  9
$FILLETRAD
 40
10.0
  9
$AUNITS
 70
0
  9
$AUPREC
 70
2
  9
$MENU
  1
.
  9
$ELEVATION
 40
0.0
  9
$PELEVATION
 40
0.0
  9
$THICKNESS
 40
0.0
  9
$LIMCHECK
 70
0
  9
$CHAMFERA
 40
0.0
  9
$CHAMFERB
 40
0.0
  9
$CHAMFERC
 40
0.0
  9
$CHAMFERD
 40
0.0
  9
$SKPOLY
 70
0
  9
$TDCREATE
 40
2461232.7051157407
  9
$TDUCREATE
 40
2458532.153996898
  9
$TDUPDATE
 40
2461232.7051157407
  9
$TDUUPDATE
 40
2458532.1544311
  9
$TDINDWG
 40
0.0
  9
$TDUSRTIMER
 40
0.0
  9
$USRTIMER
 70
1
  9
$ANGBASE
 50
0.0
  9
$ANGDIR
 70
0
  9
$PDMODE
 70
0
  9
$PDSIZE
 40
0.0
  9
$PLINEWID
 40
0.0
  9
$SPLFRAME
 70
0
  9
$SPLINETYPE
 70
6
  9
$SPLINESEGS
 70
8
  9
$HANDSEED
  5
59
  9
$SURFTAB1
 70
6
  9
$SURFTAB2
 70
6
  9
$SURFTYPE
 70
6
  9
$SURFU
 70
6
  9
$SURFV
 70
6
  9
$UCSBASE
  2

  9
$UCSNAME
  2

  9
$UCSORG
 10
0.0
 20
0.0
 30
0.0
  9
$UCSXDIR
 10
1.0
 20
0.0
 30
0.0
  9
$UCSYDIR
 10
0.0
 20
1.0
 30
0.0
  9
$UCSORTHOREF
  2

  9
$UCSORTHOVIEW
 70
0
  9
$UCSORGTOP
 10
0.0
 20
0.0
 30
0.0
  9
$UCSORGBOTTOM
 10
0.0
 20
0.0
 30
0.0
  9
$UCSORGLEFT
 10
0.0
 20
0.0
 30
0.0
  9
$UCSORGRIGHT
 10
0.0
 20
0.0
 30
0.0
  9
$UCSORGFRONT
 10
0.0
 20
0.0
 30
0.0
  9
$UCSORGBACK
 10
0.0
 20
0.0
 30
0.0
  9
$PUCSBASE
  2

  9
$PUCSNAME
  2

  9
$PUCSORG
 10
0.0
 20
0.0
 30
0.0
  9
$PUCSXDIR
 10
1.0
 20
0.0
 30
0.0
  9
$PUCSYDIR
 10
0.0
 20
1.0
 30
0.0
  9
$PUCSORTHOREF
  2

  9
$PUCSORTHOVIEW
 70
0
  9
$PUCSORGTOP
 10
0.0
 20
0.0
 30
0.0
  9
$PUCSORGBOTTOM
 10
0.0
 20
0.0
 30
0.0
  9
$PUCSORGLEFT
 10
0.0
 20
0.0
 30
0.0
  9
$PUCSORGRIGHT
 10
0.0
 20
0.0
 30
0.0
  9
$PUCSORGFRONT
 10
0.0
 20
0.0
 30
0.0
  9
$PUCSORGBACK
 10
0.0
 20
0.0
 30
0.0
  9
$USERI1
 70
0
  9
$USERI2
 70
0
  9
$USERI3
 70
0
  9
$USERI4
 70
0
  9
$USERI5
 70
0
  9
$USERR1
 40
0.0
  9
$USERR2
 40
0.0
  9
$USERR3
 40
0.0
  9
$USERR4
 40
0.0
  9
$USERR5
 40
0.0
  9
$WORLDVIEW
 70
1
  9
$SHADEDGE
 70
3
  9
$SHADEDIF
 70
70
  9
$TILEMODE
 70
1
  9
$MAXACTVP
 70
64
  9
$PINSBASE
 10
0.0
 20
0.0
 30
0.0
  9
$PLIMCHECK
 70
0
  9
$PEXTMIN
 10
1e+20
 20
1e+20
 30
1e+20
  9
$PEXTMAX
 10
-1e+20
 20
-1e+20
 30
-1e+20
  9
$PLIMMIN
 10
0.0
 20
0.0
  9
$PLIMMAX
 10
420.0
 20
297.0
  9
$UNITMODE
 70
0
  9
$VISRETAIN
 70
1
  9
$PLINEGEN
 70
0
  9
$PSLTSCALE
 70
1
  9
$TREEDEPTH
 70
3020
  9
$CMLSTYLE
  2
Standard
  9
$CMLJUST
 70
0
  9
$CMLSCALE
 40
20.0
  9
$PROXYGRAPHICS
 70
1
  9
$MEASUREMENT
 70
1
  9
$CELWEIGHT
370
-1
  9
$ENDCAPS
280
0
  9
$JOINSTYLE
280
0
  9
$LWDISPLAY
290
0
  9
$INSUNITS
 70
4
  9
$HYPERLINKBASE
  1

  9
$STYLESHEET
  1

  9
$XEDIT
290
1
  9
$CEPSNTYPE
380
0
  9
$PSTYLEMODE
290
1
  9
$FINGERPRINTGUID
  2
{F62BD136-E25D-4310-BAE1-CCBDADAAEC23}
  9
$VERSIONGUID
  2
{25882429-1317-4AC2-BE25-3BF40CB88F50}
  9
$EXTNAMES
290
1
  9
$PSVPSCALE
 40
0.0
  9
$OLESTARTUP
290
0
  9
$SORTENTS
280
127
  9
$INDEXCTL
280
0
  9
$HIDETEXT
280
1
  9
$XCLIPFRAME
280
1
  9
$HALOGAP
280
0
  9
$OBSCOLOR
 70
257
  9
$OBSLTYPE
280
0
  9
$INTERSECTIONDISPLAY
280
0
  9
$INTERSECTIONCOLOR
 70
257
  9
$DIMASSOC
280
2
  9
$PROJECTNAME
  1

  9
$CAMERADISPLAY
290
0
  9
$LENSLENGTH
 40
50.0
  9
$CAMERAHEIGHT
 40
0.0
  9
$STEPSPERSEC
 40
24.0
  9
$STEPSIZE
 40
100.0
  9
$3DDWFPREC
 40
2.0
  9
$PSOLWIDTH
 40
0.005
  9
$PSOLHEIGHT
 40
0.08
  9
$LOFTANG1
 40
1.570796326795
  9
$LOFTANG2
 40
1.570796326795
  9
$LOFTMAG1
 40
0.0
  9
$LOFTMAG2
 40
0.0
  9
$LOFTPARAM
 70
7
  9
$LOFTNORMALS
280
1
  9
$LATITUDE
 40
37.795
  9
$LONGITUDE
 40
-122.394
  9
$NORTHDIRECTION
 40
0.0
  9
$TIMEZONE
 70
-8000
  9
$LIGHTGLYPHDISPLAY
280
1
  9
$TILEMODELIGHTSYNCH
280
1
  9
$CMATERIAL
347
20
  9
$SOLIDHIST
280
0
  9
$SHOWHIST
280
1
  9
$DWFFRAME
280
2
  9
$DGNFRAME
280
2
  9
$REALWORLDSCALE
290
1
  9
$INTERFERECOLOR
 62
256
  9
$CSHADOW
280
0
  9
$SHADOWPLANELOCATION
 40
0.0
  0
ENDSEC
  0
SECTION
  2
CLASSES
  0
CLASS
  1
ACDBDICTIONARYWDFLT
  2
AcDbDictionaryWithDefault
  3
ObjectDBX Classes
 90
0
 91
0
280
0
281
0
  0
CLASS
  1
SUN
  2
AcDbSun
  3
SCENEOE
 90
1153
 91
0
280
0
281
0
  0
CLASS
  1
VISUALSTYLE
  2
AcDbVisualStyle
  3
ObjectDBX Classes
 90
4095
 91
0
280
0
281
0
  0
CLASS
  1
MATERIAL
  2
AcDbMaterial
  3
ObjectDBX Classes
 90
1153
 91
0
280
0
281
0
  0
CLASS
  1
SCALE
  2
AcDbScale
  3
ObjectDBX Classes
 90
1153
 91
0
280
0
281
0
  0
CLASS
  1
TABLESTYLE
  2
AcDbTableStyle
  3
ObjectDBX Classes
 90
4095
 91
0
280
0
281
0
  0
CLASS
  1
MLEADERSTYLE
  2
AcDbMLeaderStyle
  3
ACDB_MLEADERSTYLE_CLASS
 90
4095
 91
0
280
0
281
0
  0
CLASS
  1
DICTIONARYVAR
  2
AcDbDictionaryVar
  3
ObjectDBX Classes
 90
0
 91
0
280
0
281
0
  0
CLASS
  1
CELLSTYLEMAP
  2
AcDbCellStyleMap
  3
ObjectDBX Classes
 90
1152
 91
0
280
0
281
0
  0
CLASS
  1
MENTALRAYRENDERSETTINGS
  2
AcDbMentalRayRenderSettings
  3
SCENEOE
 90
1024
 91
0
280
0
281
0
  0
CLASS
  1
ACDBDETAILVIEWSTYLE
  2
AcDbDetailViewStyle
  3
ObjectDBX Classes
 90
1025
 91
0
280
0
281
0
  0
CLASS
  1
ACDBSECTIONVIEWSTYLE
  2
AcDbSectionViewStyle
  3
ObjectDBX Classes
 90
1025
 91
0
280
0
281
0
  0
CLASS
  1
RASTERVARIABLES
  2
AcDbRasterVariables
  3
ISM
 90
0
 91
0
280
0
281
0
  0
CLASS
  1
ACDBPLACEHOLDER
  2
AcDbPlaceHolder
  3
ObjectDBX Classes
 90
0
 91
0
280
0
281
0
  0
CLASS
  1
LAYOUT
  2
AcDbLayout
  3
ObjectDBX Classes
 90
0
 91
0
280
0
281
0
  0
ENDSEC
  0
SECTION
  2
TABLES
  0
TABLE
  2
VPORT
  5
8
330
0
100
AcDbSymbolTable
 70
1
  0
VPORT
  5
23
330
8
100
AcDbSymbolTableRecord
100
AcDbViewportTableRecord
  2
*Active
 70
0
 10
0.0
 20
0.0
 11
1.0
 21
1.0
 12
0.0
 22
0.0
 13
0.0
 23
0.0
 14
0.5
 24
0.5
 15
0.5
 25
0.5
 16
0.0
 26
0.0
 36
1.0
 17
0.0
 27
0.0
 37
0.0
 40
1000.0
 41
1.34
 42
50.0
 43
0.0
 44
0.0
 50
0.0
 51
0.0
 71
0
 72
1000
 73
1
 74
3
 75
0
 76
0
 77
0
 78
0
281
0
 65
0
146
0.0
  0
ENDTAB
  0
TABLE
  2
LTYPE
  5
2
330
0
100
AcDbSymbolTable
 70
3
  0
LTYPE
  5
24
330
2
100
AcDbSymbolTableRecord
100
AcDbLinetypeTableRecord
  2
ByBlock
 70
0
  3

 72
65
 73
0
 40
0.0
  0
LTYPE
  5
25
330
2
100
AcDbSymbolTableRecord
100
AcDbLinetypeTableRecord
  2
ByLayer
 70
0
  3

 72
65
 73
0
 40
0.0
  0
LTYPE
  5
26
330
2
100
AcDbSymbolTableRecord
100
AcDbLinetypeTableRecord
  2
Continuous
 70
0
  3

 72
65
 73
0
 40
0.0
  0
ENDTAB
  0
TABLE
  2
LAYER
  5
1
330
0
100
AcDbSymbolTable
 70
3
  0
LAYER
  5
27
330
1
100
AcDbSymbolTableRecord
100
AcDbLayerTableRecord
  2
0
 70
0
 62
7
  6
Continuous
370
-3
390
13
347
21
  0
LAYER
  5
28
330
1
100
AcDbSymbolTableRecord
100
AcDbLayerTableRecord
  2
Defpoints
 70
0
 62
7
  6
Continuous
290
0
370
-3
390
13
347
21
  0
LAYER
  5
2F
330
1
100
AcDbSymbolTableRecord
100
AcDbLayerTableRecord
  2
K
 70
0
 62
7
  6
Continuous
370
-3
390
13
347
21
  0
ENDTAB
  0
TABLE
  2
STYLE
  5
5
330
0
100
AcDbSymbolTable
 70
1
  0
STYLE
  5
29
330
5
100
AcDbSymbolTableRecord
100
AcDbTextStyleTableRecord
  2
Standard
 70
0
 40
0.0
 41
1.0
 50
0.0
 71
0
 42
2.5
  3
txt
  4

  0
ENDTAB
  0
TABLE
  2
VIEW
  5
7
330
0
100
AcDbSymbolTable
 70
0
  0
ENDTAB
  0
TABLE
  2
UCS
  5
6
330
0
100
AcDbSymbolTable
 70
0
  0
ENDTAB
  0
TABLE
  2
APPID
  5
3
330
0
100
AcDbSymbolTable
 70
3
  0
APPID
  5
2A
330
3
100
AcDbSymbolTableRecord
100
AcDbRegAppTableRecord
  2
ACAD
 70
0
  0
APPID
  5
56
330
3
100
AcDbSymbolTableRecord
100
AcDbRegAppTableRecord
  2
HATCHBACKGROUNDCOLOR
 70
0
  0
APPID
  5
57
330
3
100
AcDbSymbolTableRecord
100
AcDbRegAppTableRecord
  2
EZDXF
 70
0
  0
ENDTAB
  0
TABLE
  2
DIMSTYLE
  5
4
330
0
100
AcDbSymbolTable
 70
1
100
AcDbDimStyleTable
  0
DIMSTYLE
105
2B
330
4
100
AcDbSymbolTableRecord
100
AcDbDimStyleTableRecord
  2
Standard
 70
0
 40
1.0
 41
2.5
 42
0.625
 43
3.75
 44
1.25
 45
0.0
 46
0.0
 47
0.0
 48
0.0
 49
2.5
140
2.5
141
2.5
142
0.0
143
0.03937007874
144
1.0
145
0.0
146
1.0
147
0.625
148
0.0
 69
0
 70
0
 71
0
 72
0
 73
0
 74
0
 75
0
 76
0
 77
1
 78
8
 79
3
170
0
171
3
172
1
173
0
174
0
175
0
176
0
177
0
178
0
179
2
271
2
272
2
273
2
274
3
275
0
276
0
277
2
278
44
279
0
280
0
281
0
282
0
283
0
284
8
285
0
286
0
288
0
289
3
290
0
371
-2
372
-2
  0
ENDTAB
  0
TABLE
  2
BLOCK_RECORD
  5
9
330
0
100
AcDbSymbolTable
 70
2
  0
BLOCK_RECORD
  5
17
330
9
100
AcDbSymbolTableRecord
100
AcDbBlockTableRecord
  2
*Model_Space
340
1A
 70
0
280
1
281
0
  0
BLOCK_RECORD
  5
1B
330
9
100
AcDbSymbolTableRecord
100
AcDbBlockTableRecord
  2
*Paper_Space
340
1E
 70
0
280
1
281
0
  0
ENDTAB
  0
ENDSEC
  0
SECTION
  2
BLOCKS
  0
BLOCK
  5
18
330
17
100
AcDbEntity
  8
0
100
AcDbBlockBegin
  2
*Model_Space
 70
0
 10
0.0
 20
0.0
 30
0.0
  3
*Model_Space
  1

  0
ENDBLK
  5
19
330
17
100
AcDbEntity
  8
0
100
AcDbBlockEnd
  0
BLOCK
  5
1C
330
1B
100
AcDbEntity
  8
0
100
AcDbBlockBegin
  2
*Paper_Space
 70
0
 10
0.0
 20
0.0
 30
0.0
  3
*Paper_Space
  1

  0
ENDBLK
  5
1D
330
1B
100
AcDbEntity
  8
0
100
AcDbBlockEnd
  0
ENDSEC
  0
SECTION
  2
ENTITIES
  0
LWPOLYLINE
  5
30
330
17
100
AcDbEntity
  8
K
100
AcDbPolyline
 90
14
 70
1
 10
252.8571428571429
 20
914.1032731343907
 10
252.8571428571429
 20
929.6364067549954
 10
235.71428571428578
 20
965.8864067549955
 10
235.71428571428578
 20
976.2973466710847
 10
280.7620136012495
 20
1041.098145714832
 10
293.72848059405396
 20
1041.098145714832
 10
304.4857142857144
 20
1022.9004920531066
 10
304.4857142857144
 20
1012.4799901058166
 10
300.20000000000005
 20
1007.3014186772451
 10
300.20000000000005
 20
976.250471640765
 10
278.7632802118766
 20
908.9034436397438
 10
267.9994959672731
 20
890.6947086259563
 10
261.45223530137383
 20
893.3317997274994
 10
252.8571428571429
 20
914.1032731343907
  0
LWPOLYLINE
  5
31
330
17
100
AcDbEntity
  8
K
100
AcDbPolyline
 90
12
 70
1
 10
160.73813668699967
 20
787.3481457148322
 10
182.19581210682458
 20
787.3481457148322
 10
186.4815263925389
 20
792.5267171434035
 10
250.83864247325738
 20
792.5267171434035
 10
265.98568569571114
 20
784.68271261749
 10
246.56818734467757
 20
766.4338600005465
 10
229.4135773876842
 20
766.4338600005465
 10
212.27072024482706
 20
756.0767171434035
 10
190.84214881625562
 20
756.0767171434035
 10
173.6261919220138
 20
745.6754098531325
 10
158.56549692922562
 20
779.4723265929015
 10
160.73813668699967
 20
787.3481457148322
  0
LWPOLYLINE
  5
32
330
17
100
AcDbEntity
  8
K
100
AcDbPolyline
 90
12
 70
1
 10
117.93278609817138
 20
103.5767171434036
 10
100.77901779247433
 20
103.5767171434036
 10
87.92187493533143
 20
113.93386000054643
 10
70.78184958563693
 20
113.93386000054643
 10
60.00000000000006
 20
121.7507009501332
 10
60.00000000000006
 20
132.1823210273077
 10
66.4688114383225
 20
145.20978850726252
 10
139.42129027137483
 20
140.0244407470701
 10
150.19416482199733
 20
132.21410669786877
 10
154.49823339705026
 20
95.80886000054643
 10
132.9327860981714
 20
95.80886000054643
 10
117.93278609817138
 20
103.5767171434036
  0
LWPOLYLINE
  5
33
330
17
100
AcDbEntity
  8
K
100
AcDbPolyline
 90
23
 70
1
 10
12.861833354575914
 20
831.2330956902642
 10
0.0
 20
857.1353989737852
 10
0.0
 20
867.5592530010667
 10
19.33092317429075
 20
885.7267409843123
 10
32.16652101565964
 20
890.896634559308
 10
36.46172760218192
 20
901.2767171434035
 10
45.05295496396744
 20
901.2767171434035
 10
57.926704660705816
 20
916.8324980269624
 10
64.45836175622021
 20
914.2016916968246
 10
70.80600473665255
 20
901.4182440278981
 10
75.05209755928244
 20
911.6796350159202
 10
83.7649954925036
 20
906.4155925145989
 10
85.91129656728069
 20
888.2614625904425
 10
103.05714285714285
 20
857.1846161900673
 10
103.05714285714285
 20
841.6591584667048
 10
107.3726607995794
 20
836.4445742862607
 10
100.86133075031833
 20
828.5767171434036
 10
79.41357738768417
 20
828.5767171434036
 10
62.27072024482705
 20
818.2195742862607
 10
40.84214881625559
 20
818.2195742862607
 10
23.680393503670683
 20
807.8510137849073
 10
17.155788379221605
 20
810.4789797378105
 10
12.861833354575914
 20
831.2330956902642
  0
LWPOLYLINE
  5
34
330
17
100
AcDbEntity
  8
K
100
AcDbPolyline
 90
39
 70
1
 10
1289.3069587963
 20
631.8197893766658
 10
1285.0236638728022
 20
642.1710854417848
 10
1278.5714285714284
 20
644.7699024381716
 10
1278.5714285714284
 20
665.5282561166423
 10
1265.7142857142856
 20
691.4211132594995
 10
1265.7142857142856
 20
706.9442758201023
 10
1257.1562145261107
 20
717.2852785058138
 10
1240.0133573832534
 20
758.7138499343852
 10
1222.857142857143
 20
779.4442758201023
 10
1222.857142857143
 20
789.8734441809906
 10
1237.8993409643044
 20
808.0494335604774
 10
1255.0421981071613
 20
813.2280049890489
 10
1263.624383535396
 20
823.5981457148322
 10
1280.861330750318
 20
823.5981457148322
 10
1295.9014328801768
 20
805.4246889745862
 10
1319.3877742236361
 20
746.0860917166798
 10
1323.6045847450391
 20
756.2767171434035
 10
1349.3386692496817
 20
756.2767171434035
 10
1353.6198251728454
 20
761.4497805505595
 10
1396.5584539988756
 20
766.6381982003714
 10
1409.4209822075254
 20
756.2767171434035
 10
1418.0041878931754
 20
756.2767171434035
 10
1426.5843997537506
 20
745.9089611452087
 10
1447.9973039262068
 20
740.7341759701984
 10
1475.9775975264158
 20
722.5290490444215
 10
1458.7601035437144
 20
706.9256951225983
 10
1456.6143776409208
 20
699.1474387249721
 10
1439.413577387684
 20
688.755288571975
 10
1430.8613307503183
 20
688.755288571975
 10
1422.2955501132897
 20
678.404970302232
 10
1388.0098358275754
 20
673.2263988736605
 10
1383.7184736074612
 20
668.0410028576893
 10
1332.3340836277314
 20
668.0410028576893
 10
1330.2033600641282
 20
644.8693841035024
 10
1334.501130929111
 20
639.6762443083144
 10
1330.2252545780573
 20
629.342876459934
 10
1338.8224244570263
 20
624.1487529913903
 10
1327.981973111072
 20
611.0498742816956
 10
1289.3069587963
 20
631.8197893766658
  0
LWPOLYLINE
  5
35
330
17
100
AcDbEntity
  8
K
100
AcDbPolyline
 90
11
 70
1
 10
1239.9947945724596
 20
64.77199906870858
 10
1242.148600866246
 20
93.39967439027917
 10
1263.6156002462494
 20
98.5875325737801
 10
1272.1983231894178
 20
108.9583227967754
 10
1313.0644507490695
 20
106.35938047390279
 10
1310.9070448200396
 20
77.68386000054643
 10
1280.8421488162555
 20
77.68386000054643
 10
1263.6992916733982
 20
67.32671714340358
 10
1250.8613307503183
 20
67.32671714340358
 10
1246.5590096250082
 20
62.12807911698763
 10
1239.9947945724596
 20
64.77199906870858
  0
LWPOLYLINE
  5
36
330
17
100
AcDbEntity
  8
K
100
AcDbPolyline
 90
11
 70
1
 10
2690.0
 20
650.0481571521726
 10
2717.905804604548
 20
688.955288571975
 10
2730.90953598463
 20
688.955288571975
 10
2733.058910461213
 20
644.8035545321637
 10
2728.7714285714287
 20
639.6228472486737
 10
2728.7714285714287
 20
624.0946340685446
 10
2715.9068516286925
 20
603.3683712163585
 10
2711.6047204558577
 20
587.7731457148321
 10
2707.173088825844
 20
587.7731457148321
 10
2690.0
 20
634.4624809600958
 10
2690.0
 20
650.0481571521726
  0
LWPOLYLINE
  5
37
330
17
100
AcDbEntity
  8
K
100
AcDbPolyline
 90
16
 70
1
 10
2567.9100978211104
 20
36.25528857197501
 10
2561.418319088754
 20
44.099521206905735
 10
2565.739170427581
 20
59.76260731015455
 10
2619.415790243776
 20
57.1682373523718
 10
2627.9350672004443
 20
52.0211741910513
 10
2632.1958121068246
 20
57.1695742862607
 10
2653.624383535396
 20
57.1695742862607
 10
2657.9083744172253
 20
62.34606326847129
 10
2716.166284670677
 20
64.95328456067821
 10
2696.5963574815437
 20
51.816064919824726
 10
2683.718473607461
 20
36.25528857197501
 10
2675.1352679218116
 20
36.25528857197501
 10
2662.2764073981984
 20
25.89676203906492
 10
2595.7881050016213
 20
28.48837597656591
 10
2580.7899289553143
 20
36.25528857197501
 10
2567.9100978211104
 20
36.25528857197501
  0
LWPOLYLINE
  5
38
330
17
100
AcDbEntity
  8
K
100
AcDbPolyline
 90
11
 70
1
 10
2582.871719363834
 20
624.1782448531116
 10
2619.3424047040885
 20
663.0624314291179
 10
2623.725152292948
 20
663.0624314291179
 10
2640.8804972173216
 20
637.1507125329285
 10
2647.3924038815617
 20
634.5278612376098
 10
2632.314401883454
 20
611.1031081334077
 10
2623.6992916733984
 20
605.8981457148321
 10
2598.004187893175
 20
605.8981457148321
 10
2593.7131008057213
 20
600.713082150825
 10
2574.2436339157775
 20
603.3270383536413
 10
2582.871719363834
 20
624.1782448531116
  0
LWPOLYLINE
  5
39
330
17
100
AcDbEntity
  8
K
100
AcDbPolyline
 90
10
 70
1
 10
2488.5714285714284
 20
618.908561534388
 10
2488.5714285714284
 20
629.3449672867811
 10
2507.910541069455
 20
647.520151717797
 10
2537.986704094936
 20
652.7118703352908
 10
2553.0470050656477
 20
639.7133962831886
 10
2561.6393249085695
 20
603.375043614165
 10
2525.121365737617
 20
569.63173330179
 10
2518.5987811009227
 20
572.2588854471253
 10
2505.7298671661483
 20
598.1754482324351
 10
2488.5714285714284
 20
618.908561534388
  0
LWPOLYLINE
  5
3A
330
17
100
AcDbEntity
  8
K
100
AcDbPolyline
 90
23
 70
1
 10
3917.216605687307
 20
479.02314571483214
 10
3885.0737485444506
 20
497.1481457148321
 10
3876.461727602182
 20
497.1481457148321
 10
3872.1831729260894
 20
507.4879861820565
 10
3850.8701140394646
 20
502.3373302844556
 10
3846.5756164646036
 20
497.1481457148321
 10
3825.0238509727133
 20
497.1481457148321
 10
3822.8505810589936
 20
505.0262491520672
 10
3835.7321305456917
 20
530.9682585350004
 10
3859.3446272661777
 20
554.3124314291179
 10
3867.929279755173
 20
554.3124314291179
 10
3893.6435654694587
 20
569.8481457148321
 10
3906.481526392539
 20
569.8481457148321
 10
3910.767240678252
 20
575.0267171434036
 10
3940.861330750318
 20
575.0267171434036
 10
3943.077590506707
 20
572.348736604433
 10
3934.4687379066486
 20
556.7451912668272
 10
3917.3582737862544
 20
536.0700471213498
 10
3925.9142857142856
 20
515.3930182952735
 10
3925.9142857142856
 20
505.0417590472103
 10
3934.4857142857136
 20
489.5060447614959
 10
3934.4857142857136
 20
479.02314571483214
 10
3917.216605687307
 20
479.02314571483214
  0
LWPOLYLINE
  5
3B
330
17
100
AcDbEntity
  8
K
100
AcDbPolyline
 90
12
 70
1
 10
3867.8659163722677
 20
26.098145714832143
 10
3876.4815263925384
 20
26.098145714832143
 10
3880.767240678253
 20
31.276717143403562
 10
3915.052954963967
 20
31.276717143403562
 10
3919.3440420514216
 20
36.461780707410725
 10
3938.8634029192353
 20
33.84112577608382
 10
3928.0233698272377
 20
20.742752456586537
 10
3902.270720244827
 20
5.183860000546423
 10
3893.7184736074605
 20
5.183860000546423
 10
3889.428382572526
 20
0.0
 10
3865.705709838162
 20
2.6058996564263386
 10
3867.8659163722677
 20
26.098145714832143
  0
LWPOLYLINE
  5
3C
330
17
100
AcDbEntity
  8
K
100
AcDbPolyline
 90
9
 70
1
 10
3869.969744873776
 20
417.00936979873353
 10
3880.7838654381753
 20
424.84960720792304
 10
3938.8764792151837
 20
422.24978344321124
 10
3932.30599926423
 20
414.31045350247626
 10
3910.837185122307
 20
403.93386000054636
 10
3893.7184736074605
 20
403.93386000054636
 10
3889.4229331691668
 20
398.7434153042743
 10
3878.605140517112
 20
401.35771519518755
 10
3869.969744873776
 20
417.00936979873353
  0
LWPOLYLINE
  5
3D
330
17
100
AcDbEntity
  8
K
100
AcDbPolyline
 90
15
 70
1
 10
3784.2857142857138
 20
422.1130735974686
 10
3784.2857142857138
 20
432.57683046501376
 10
3799.3613575267427
 20
440.38386000054635
 10
3812.1958121068246
 20
440.38386000054635
 10
3816.481526392538
 20
445.56243142911785
 10
3833.6243835353957
 20
445.56243142911785
 10
3837.9350672004443
 20
450.77117419105144
 10
3846.628571428571
 20
445.51884871989125
 10
3846.628571428571
 20
435.01781724577296
 10
3827.342857142857
 20
432.42853153148724
 10
3827.342857142857
 20
406.6591584667048
 10
3831.6583750852933
 20
401.4445742862607
 10
3825.1372188834525
 20
393.5648438757028
 10
3814.338698065297
 20
396.1744864067572
 10
3784.2857142857138
 20
422.1130735974686
  0
LWPOLYLINE
  5
3E
330
17
100
AcDbEntity
  8
K
100
AcDbPolyline
 90
7
 70
1
 10
3758.571428571428
 20
18.276074975052833
 10
3773.6259579372354
 20
31.269567582446104
 10
3799.400459729696
 20
36.46026586009442
 10
3814.519006975039
 20
28.631018179470296
 10
3808.026499216248
 20
15.555828943014882
 10
3758.571428571428
 20
2.5649136468213625
 10
3758.571428571428
 20
18.276074975052833
  0
LWPOLYLINE
  5
3F
330
17
100
AcDbEntity
  8
K
100
AcDbPolyline
 90
6
 70
1
 10
5035.142050897514
 20
523.0349682736463
 10
4972.849573511732
 20
530.821527946869
 10
4977.148547584011
 20
582.7674646535703
 10
5043.77553576265
 20
606.1406419581735
 10
5041.627549177257
 20
530.8716120283347
 10
5035.142050897514
 20
523.0349682736463
  0
LWPOLYLINE
  5
40
330
17
100
AcDbEntity
  8
K
100
AcDbPolyline
 90
15
 70
1
 10
4934.254040279268
 20
738.1136146584146
 10
4957.915107240034
 20
745.9110117250303
 10
4983.643565469459
 20
761.455288571975
 10
4992.289902178889
 20
761.455288571975
 10
4996.575616464604
 20
756.2767171434035
 10
5026.613380246914
 20
756.2767171434035
 10
5028.774114528103
 20
743.2222808612153
 10
5020.2
 20
717.3213098909017
 10
5020.2
 20
701.7657043915309
 10
5015.914285714285
 20
696.5871329629593
 10
5015.914285714285
 20
681.0514186772451
 10
5005.127060909161
 20
668.0168553710517
 10
4962.219957734836
 20
688.755288571975
 10
4953.6032207414655
 20
688.755288571975
 10
4934.254040279268
 20
738.1136146584146
  0
LWPOLYLINE
  5
41
330
17
100
AcDbEntity
  8
K
100
AcDbPolyline
 90
10
 70
1
 10
4900.2
 20
530.8728472486737
 10
4895.914285714285
 20
525.6942758201023
 10
4895.914285714285
 20
510.16881809673976
 10
4878.771428571428
 20
479.09738952531114
 10
4878.771428571428
 20
468.6660028576893
 10
4827.142857142858
 20
468.6660028576893
 10
4827.142857142858
 20
489.51630132384764
 10
4885.099999999999
 20
559.5478489428954
 10
4900.2
 20
541.3020156095621
 10
4900.2
 20
530.8728472486737
  0
LWPOLYLINE
  5
42
330
17
100
AcDbEntity
  8
K
100
AcDbPolyline
 90
11
 70
1
 10
4790.767240678253
 20
735.5624314291179
 10
4799.418150414363
 20
735.5624314291179
 10
4810.194164821997
 20
727.7498209835829
 10
4814.4900491376375
 20
691.4137994804616
 10
4808.01060079952
 20
683.584466071903
 10
4777.9996926854565
 20
678.4040116950707
 10
4765.124380275367
 20
668.0322322536093
 10
4754.282842327711
 20
670.6522705909597
 10
4756.432104915162
 20
730.3838600005464
 10
4786.481526392538
 20
730.3838600005464
 10
4790.767240678253
 20
735.5624314291179
  0
LWPOLYLINE
  5
43
330
17
100
AcDbEntity
  8
K
100
AcDbPolyline
 90
6
 70
1
 10
4735.140093456782
 20
657.6754601756194
 10
4719.968579909112
 20
660.2943523951577
 10
4728.5824030341355
 20
686.3152764186664
 10
4739.469487707601
 20
699.4705037324376
 10
4741.630888229991
 20
665.5185038599121
 10
4735.140093456782
 20
657.6754601756194
  0
LWPOLYLINE
  5
44
330
17
100
AcDbEntity
  8
K
100
AcDbPolyline
 90
20
 70
1
 10
4660.0
 20
738.0877298952763
 10
4664.2754619458965
 20
743.2539130799015
 10
4662.181566991178
 20
750.8442822907532
 10
4653.693010567337
 20
745.7157794513487
 10
4634.252880743948
 20
748.3257968813409
 10
4642.857142857142
 20
774.3178386816196
 10
4642.857142857142
 20
800.2305870381334
 10
4649.3386692496815
 20
808.0624314291179
 10
4687.90463309884
 20
808.0624314291179
 10
4709.333204527412
 20
839.1338600005464
 10
4713.764187677182
 20
839.1338600005464
 10
4715.917028417677
 20
810.5190184914629
 10
4711.628571428571
 20
805.3371329629593
 10
4711.628571428571
 20
769.1032731343907
 10
4707.329499759603
 20
758.7138499343852
 10
4696.591713549945
 20
745.7390249310477
 10
4675.163142121373
 20
735.3818820739048
 10
4666.559009625009
 20
724.9852219741304
 10
4660.0
 20
727.6270452953144
 10
4660.0
 20
738.0877298952763
  0
LWPOLYLINE
  5
45
330
17
100
AcDbEntity
  8
K
100
AcDbPolyline
 90
17
 70
1
 10
4557.157819356729
 20
753.6415235227529
 10
4567.91009782111
 20
766.6338600005464
 10
4580.849553636097
 20
766.6338600005464
 10
4593.713978399743
 20
756.2708511631649
 10
4623.724886513805
 20
751.0903967863328
 10
4630.2360599504245
 20
743.2227288837516
 10
4608.7586272235585
 20
722.4612105811141
 10
4600.2
 20
696.607024176616
 10
4600.2
 20
681.1108924558791
 10
4613.057142857143
 20
655.218035313022
 10
4613.057142857143
 20
644.7966584056879
 10
4585.148878393717
 20
616.262246983146
 10
4570.080232609127
 20
613.6611116989014
 10
4561.450553424656
 20
618.8748762061861
 10
4540.0
 20
665.5298299048129
 10
4540.0
 20
717.3598846746688
 10
4557.157819356729
 20
753.6415235227529
  0
LWPOLYLINE
  5
46
330
17
100
AcDbEntity
  8
K
100
AcDbPolyline
 90
11
 70
1
 10
6330.754822487952
 20
616.2702938852553
 10
6294.28335060284
 20
629.2319689424642
 10
6296.431826996487
 20
694.1338600005464
 10
6330.861330750318
 20
694.1338600005464
 10
6337.325880763792
 20
686.3225287342656
 10
6354.4857142857145
 20
655.2203304757817
 10
6354.4857142857145
 20
644.8631876186388
 10
6363.053668442227
 20
629.3337707099597
 10
6367.362733861269
 20
598.0930464219095
 10
6339.328660139971
 20
605.9102400557327
 10
6330.754822487952
 20
616.2702938852553
  0
LWPOLYLINE
  5
47
330
17
100
AcDbEntity
  8
K
100
AcDbPolyline
 90
10
 70
1
 10
6238.580727548516
 20
634.433039556122
 10
6234.295013262802
 20
649.9687538418362
 10
6225.714285714286
 20
660.3371329629595
 10
6225.714285714286
 20
670.7017769256875
 10
6212.834257356318
 20
691.4529337246361
 10
6215.054486002126
 20
694.1357100049877
 10
6281.628571428571
 20
691.5407523741181
 10
6281.628571428571
 20
624.0157855827731
 10
6245.050236489475
 20
626.6157162524638
 10
6238.580727548516
 20
634.433039556122
  0
LWPOLYLINE
  5
48
330
17
100
AcDbEntity
  8
K
100
AcDbPolyline
 90
30
 70
1
 10
6088.571428571429
 20
448.08022878969115
 10
6088.571428571429
 20
458.4382617325417
 10
6103.616871134742
 20
481.81243142911785
 10
6150.759728277599
 20
481.81243142911785
 10
6165.714285714285
 20
505.0454045896846
 10
6165.714285714285
 20
525.7836014065107
 10
6185.035441100933
 20
538.7538214577321
 10
6215.091550060906
 20
569.8833628805614
 10
6228.005713643733
 20
559.4802866610621
 10
6251.690833255776
 20
551.6749631525477
 10
6217.342857142858
 20
504.98318312404797
 10
6217.342857142858
 20
499.8734441809905
 10
6232.303733535731
 20
481.79571853960095
 10
6238.7845525925395
 20
479.1853886417197
 10
6230.193640871575
 20
432.47230615896854
 10
6223.729230464267
 20
424.66114358347255
 10
6206.493890292869
 20
419.45463457336245
 10
6202.195812106825
 20
424.6481457148322
 10
6193.624383535396
 20
424.6481457148322
 10
6185.042198107162
 20
435.0182864406154
 10
6167.899340964304
 20
440.1968578691868
 10
6155.1072575790595
 20
455.6539586263582
 10
6133.7366796512515
 20
424.6666206310366
 10
6127.326102008261
 20
422.08458241372085
 10
6125.188324659268
 20
414.3351395236223
 10
6110.188324659267
 20
401.3887109521937
 10
6108.023738749465
 20
393.54208702916065
 10
6101.467695035697
 20
396.18271574720615
 10
6075.691400213461
 20
427.32907199074236
 10
6088.571428571429
 20
448.08022878969115
  0
LWPOLYLINE
  5
49
330
17
100
AcDbEntity
  8
K
100
AcDbPolyline
 90
11
 70
1
 10
6092.849487820171
 20
593.0784800589353
 10
6099.332256343338
 20
600.9118253577615
 10
6129.3431644574
 20
606.0922797345936
 10
6142.197579488604
 20
616.4472251763966
 10
6163.766046306582
 20
621.6596046574083
 10
6165.915865972699
 20
572.303328156161
 10
6161.622821192491
 20
567.1158990467437
 10
6157.320572276803
 20
541.1231451811286
 10
6103.609625349129
 20
564.4874070946671
 10
6097.149967852386
 20
572.2928265698982
 10
6092.849487820171
 20
593.0784800589353
  0
LWPOLYLINE
  5
4A
330
17
100
AcDbEntity
  8
K
100
AcDbPolyline
 90
8
 70
1
 10
6000.767240678253
 20
621.6338600005464
 10
6013.703864700077
 20
621.6338600005464
 10
6045.9495788476315
 20
598.25571724357
 10
6015.914285714285
 20
551.5937439828369
 10
6015.914285714285
 20
541.1389574868231
 10
5994.285714285715
 20
546.3658622487277
 10
5994.285714285715
 20
613.8020156095621
 10
6000.767240678253
 20
621.6338600005464
  0
LWPOLYLINE
  5
4B
330
17
100
AcDbEntity
  8
K
100
AcDbPolyline
 90
6
 70
1
 10
5964.285714285715
 20
556.7657043915308
 10
5964.285714285715
 20
593.0975035464813
 10
5979.477465372451
 20
606.2094315677722
 10
5981.6325899380845
 20
551.5231457148321
 10
5968.624383535395
 20
551.5231457148321
 10
5964.285714285715
 20
556.7657043915308
  0
LWPOLYLINE
  5
4C
330
17
100
AcDbEntity
  8
K
100
AcDbPolyline
 90
46
 70
1
 10
7245.052954963967
 20
362.50528857197503
 10
7236.432832329053
 20
362.50528857197503
 10
7234.2841340273
 20
411.83582041636043
 10
7236.5144515756765
 20
414.53078745398057
 10
7249.430991939967
 20
404.125796604968
 10
7270.714285714285
 20
398.98233394284125
 10
7270.714285714285
 20
430.0267171434035
 10
7279.432759321747
 20
430.0267171434035
 10
7283.7184736074605
 20
424.8481457148321
 10
7309.4563499228225
 20
424.8481457148321
 10
7315.896586588249
 20
406.69025622758534
 10
7324.462336443261
 20
401.5151156901823
 10
7330.876280155159
 20
388.5981457148321
 10
7365.052954963967
 20
388.5981457148321
 10
7371.428571428571
 20
396.302015609562
 10
7371.428571428571
 20
422.1760688107276
 10
7377.886507220033
 20
440.38386000054635
 10
7390.846721842934
 20
440.38386000054635
 10
7412.275293271505
 20
424.8481457148321
 10
7429.296840494575
 20
424.8481457148321
 10
7431.432726178247
 20
442.91417878923085
 10
7435.714285714285
 20
448.0877298952763
 10
7435.714285714285
 20
479.21061704103414
 10
7455.121581995908
 20
481.8162262640298
 10
7463.76256469159
 20
476.59563255205546
 10
7465.908535478205
 20
463.63039238292043
 10
7474.485714285713
 20
453.26630132384764
 10
7474.485714285713
 20
442.8371329629594
 10
7463.732304964303
 20
429.8434300329204
 10
7450.87516210716
 20
424.66485860434904
 10
7435.914285714285
 20
406.5871329629594
 10
7435.914285714285
 20
391.03101413834446
 10
7427.319479300404
 20
385.8383185966249
 10
7420.878198127715
 20
372.86629401273666
 10
7380.2
 20
370.2793033423338
 10
7380.2
 20
359.97999010581657
 10
7367.333558165769
 20
344.4330395561221
 10
7363.063704655291
 20
328.95482058063857
 10
7369.4643352772155
 20
316.0646616892638
 10
7380.190073891252
 20
308.2885011940874
 10
7384.508521822921
 20
287.41600285768925
 10
7367.211967041291
 20
287.41600285768925
 10
7317.885947220542
 20
321.10424465555616
 10
7292.19118841143
 20
357.3267171434035
 10
7249.3386692496815
 20
357.3267171434035
 10
7245.052954963967
 20
362.50528857197503
  0
LWPOLYLINE
  5
4D
330
17
100
AcDbEntity
  8
K
100
AcDbPolyline
 90
13
 70
1
 10
7463.585751325399
 20
284.83196389400797
 10
7422.835888968265
 20
287.42351215794844
 10
7427.149967852385
 20
308.2748934311946
 10
7435.714285714285
 20
318.6234441809905
 10
7435.714285714285
 20
328.9805870381333
 10
7442.219133717781
 20
336.8406117090252
 10
7474.485714285713
 20
318.64584544433046
 10
7474.485714285713
 20
245.9874314291179
 10
7465.714285714284
 20
245.9874314291179
 10
7465.714285714284
 20
256.408561534388
 10
7461.413154785173
 20
261.6057614070641
 10
7465.71096443059
 20
271.992134716818
 10
7463.585751325399
 20
284.83196389400797
  0
LWPOLYLINE
  5
4E
330
17
100
AcDbEntity
  8
K
100
AcDbPolyline
 90
13
 70
1
 10
7362.857142857142
 20
530.8728472486737
 10
7358.5714285714275
 20
536.0514186772451
 10
7358.5714285714275
 20
546.5407523741181
 10
7425.188457176569
 20
549.1373838654475
 10
7427.33870239318
 20
530.9498930749451
 10
7431.628571428571
 20
525.7663013238478
 10
7431.628571428571
 20
494.69487275241914
 10
7435.98395027469
 20
489.43212331335843
 10
7382.301796970809
 20
471.26966144554575
 10
7377.98758105358
 20
466.05665054555897
 10
7371.448207166484
 20
468.6905650278614
 10
7362.857142857142
 20
494.6427384623304
 10
7362.857142857142
 20
530.8728472486737
  0
LWPOLYLINE
  5
4F
330
17
100
AcDbEntity
  8
K
100
AcDbPolyline
 90
16
 70
1
 10
7253.671428571428
 20
481.5555853439118
 10
7249.332256343337
 20
486.7987517861885
 10
7234.285714285714
 20
489.3960715461354
 10
7234.285714285714
 20
520.6027333366739
 10
7245.067563871351
 20
528.4195742862607
 10
7287.901514938757
 20
528.4195742862607
 10
7300.7586577959
 20
549.1338600005464
 10
7305.195739099518
 20
549.1338600005464
 10
7307.34443740127
 20
499.80332815616094
 10
7292.30373353573
 20
481.62914431863476
 10
7279.446590678588
 20
476.45057289006326
 10
7270.655134122004
 20
465.8275628841912
 10
7272.854891805274
 20
479.1177655539443
 10
7270.7381366869995
 20
486.79100285768925
 10
7258.004187893174
 20
486.79100285768925
 10
7253.671428571428
 20
481.5555853439118
  0
LWPOLYLINE
  5
50
330
17
100
AcDbEntity
  8
K
100
AcDbPolyline
 90
4
 70
1
 10
7204.216058218504
 20
385.89452658371175
 10
7219.467498602219
 20
399.05797215298895
 10
7221.646275799893
 20
375.36377012828996
 10
7204.216058218504
 20
385.89452658371175
  0
LWPOLYLINE
  5
51
330
17
100
AcDbEntity
  8
K
100
AcDbPolyline
 90
5
 70
1
 10
7219.397662638005
 20
512.9262684933998
 10
7221.634672490092
 20
510.22321492212916
 10
7219.467929314714
 20
497.1324749042246
 10
7204.160193733655
 20
499.7748816414312
 10
7219.397662638005
 20
512.9262684933998
  0
LWPOLYLINE
  5
52
330
17
100
AcDbEntity
  8
K
100
AcDbPolyline
 90
22
 70
1
 10
8770.0
 20
354.91614346665074
 10
8770.0
 20
380.76630132384753
 10
8774.28986903539
 20
385.94989307494507
 10
8776.439697637432
 20
404.13386000054635
 10
8797.992410778952
 20
404.13386000054635
 10
8810.849553636097
 20
393.7767171434035
 10
8819.411368954396
 20
393.7767171434035
 10
8843.057142857144
 20
380.7894549619701
 10
8843.057142857144
 20
349.6389874201051
 10
8838.786845214825
 20
339.31910145117155
 10
8843.057142857144
 20
334.1591584667047
 10
8843.057142857144
 20
323.74879404750817
 10
8836.59920706568
 20
305.5410028576893
 10
8819.338669249682
 20
305.5410028576893
 10
8815.045539829958
 20
310.7285342398542
 10
8789.424614407173
 20
315.8883039430544
 10
8780.861330750318
 20
305.5410028576893
 10
8763.699291673398
 20
305.5410028576893
 10
8746.497091742707
 20
295.14800706623095
 10
8731.404886874067
 20
318.5948253442982
 10
8759.329885960535
 20
352.33753257378015
 10
8770.0
 20
354.91614346665074
  0
LWPOLYLINE
  5
53
330
17
100
AcDbEntity
  8
K
100
AcDbPolyline
 90
9
 70
1
 10
8692.857142857143
 20
401.408561534388
 10
8692.857142857143
 20
432.47999010581657
 10
8688.57142857143
 20
437.658561534388
 10
8688.57142857143
 20
448.145559515902
 10
8729.449219860393
 20
450.7452436110336
 10
8748.796569360298
 20
406.58670979875126
 10
8729.41247292029
 20
393.5742376515228
 10
8697.192738980295
 20
396.16971621891133
 10
8692.857142857143
 20
401.408561534388
  0
LWPOLYLINE
  5
54
330
17
100
AcDbEntity
  8
K
100
AcDbPolyline
 90
12
 70
1
 10
8592.158515866453
 20
341.96130595463774
 10
8613.639293419097
 20
352.34368177174986
 10
8639.331254115672
 20
357.51775718980986
 10
8643.671428571428
 20
362.7621346571809
 10
8645.914285714285
 20
360.05201560956186
 10
8645.914285714285
 20
349.6228472486737
 10
8641.628571428571
 20
344.44427582010223
 10
8641.628571428571
 20
318.5514186772452
 10
8635.14385339224
 20
310.7157177166792
 10
8602.898798799086
 20
313.31323600334997
 10
8589.991968873595
 20
334.107573105529
 10
8592.158515866453
 20
341.96130595463774
  0
LWPOLYLINE
  5
55
330
17
100
AcDbEntity
  8
K
100
AcDbPolyline
 90
13
 70
1
 10
8581.42857142857
 20
432.552015609562
 10
8585.714285714286
 20
437.7305870381334
 10
8585.714285714286
 20
448.145559515902
 10
8626.588570837097
 20
450.7450206311686
 10
8633.057142857142
 20
437.71803531302197
 10
8633.057142857142
 20
406.6591584667048
 10
8637.342857142856
 20
401.4805870381334
 10
8637.342857142856
 20
390.99996010291585
 10
8618.00923315001
 20
388.40424206683895
 10
8613.698489480588
 20
383.19542679962296
 10
8592.179715021484
 20
393.5961677881904
 10
8581.42857142857
 20
406.5871329629594
 10
8581.42857142857
 20
432.552015609562
  0
ENDSEC
  0
SECTION
  2
OBJECTS
  0
DICTIONARY
  5
A
330
0
100
AcDbDictionary
281
1
  3
ACAD_COLOR
350
B
  3
ACAD_GROUP
350
C
  3
ACAD_LAYOUT
350
D
  3
ACAD_MATERIAL
350
E
  3
ACAD_MLEADERSTYLE
350
F
  3
ACAD_MLINESTYLE
350
10
  3
ACAD_PLOTSETTINGS
350
11
  3
ACAD_PLOTSTYLENAME
350
12
  3
ACAD_SCALELIST
350
14
  3
ACAD_TABLESTYLE
350
15
  3
ACAD_VISUALSTYLE
350
16
  3
EZDXF_META
350
2D
  0
DICTIONARY
  5
B
330
A
100
AcDbDictionary
281
1
  0
DICTIONARY
  5
C
330
A
100
AcDbDictionary
281
1
  0
DICTIONARY
  5
D
330
A
100
AcDbDictionary
281
1
  3
Model
350
1A
  3
Layout1
350
1E
  0
DICTIONARY
  5
E
330
A
100
AcDbDictionary
281
1
  3
ByBlock
350
1F
  3
ByLayer
350
20
  3
Global
350
21
  0
DICTIONARY
  5
F
330
A
100
AcDbDictionary
281
1
  3
Standard
350
2C
  0
DICTIONARY
  5
10
330
A
100
AcDbDictionary
281
1
  3
Standard
350
22
  0
DICTIONARY
  5
11
330
A
100
AcDbDictionary
281
1
  0
ACDBDICTIONARYWDFLT
  5
12
330
A
100
AcDbDictionary
281
1
  3
Normal
350
13
100
AcDbDictionaryWithDefault
340
13
  0
ACDBPLACEHOLDER
  5
13
330
12
  0
DICTIONARY
  5
14
330
A
100
AcDbDictionary
281
1
  0
DICTIONARY
  5
15
330
A
100
AcDbDictionary
281
1
  0
DICTIONARY
  5
16
330
A
100
AcDbDictionary
281
1
  0
LAYOUT
  5
1A
330
D
100
AcDbPlotSettings
  1

  4
A3
  6

 40
7.5
 41
20.0
 42
7.5
 43
20.0
 44
420.0
 45
297.0
 46
0.0
 47
0.0
 48
0.0
 49
0.0
140
0.0
141
0.0
142
1.0
143
1.0
 70
1024
 72
1
 73
0
 74
5
  7

 75
16
 76
0
 77
2
 78
300
147
1.0
148
0.0
149
0.0
100
AcDbLayout
  1
Model
 70
1
 71
0
 10
0.0
 20
0.0
 11
420.0
 21
297.0
 12
0.0
 22
0.0
 32
0.0
 14
1e+20
 24
1e+20
 34
1e+20
 15
-1e+20
 25
-1e+20
 35
-1e+20
146
0.0
 13
0.0
 23
0.0
 33
0.0
 16
1.0
 26
0.0
 36
0.0
 17
0.0
 27
1.0
 37
0.0
 76
1
330
17
  0
LAYOUT
  5
1E
330
D
100
AcDbPlotSettings
  1

  4
A3
  6

 40
7.5
 41
20.0
 42
7.5
 43
20.0
 44
420.0
 45
297.0
 46
0.0
 47
0.0
 48
0.0
 49
0.0
140
0.0
141
0.0
142
1.0
143
1.0
 70
0
 72
1
 73
0
 74
5
  7

 75
16
 76
0
 77
2
 78
300
147
1.0
148
0.0
149
0.0
100
AcDbLayout
  1
Layout1
 70
1
 71
1
 10
0.0
 20
0.0
 11
420.0
 21
297.0
 12
0.0
 22
0.0
 32
0.0
 14
1e+20
 24
1e+20
 34
1e+20
 15
-1e+20
 25
-1e+20
 35
-1e+20
146
0.0
 13
0.0
 23
0.0
 33
0.0
 16
1.0
 26
0.0
 36
0.0
 17
0.0
 27
1.0
 37
0.0
 76
1
330
1B
  0
MATERIAL
  5
1F
102
{ACAD_REACTORS
330
E
102
}
330
E
100
AcDbMaterial
  1
ByBlock
  2

 70
0
 40
1.0
 71
1
 41
1.0
 91
-1023410177
 42
1.0
 72
1
  3

 73
1
 74
1
 75
1
 44
0.5
 73
0
 45
1.0
 46
1.0
 77
1
  4

 78
1
 79
1
170
1
 48
1.0
171
1
  6

172
1
173
1
174
1
140
1.0
141
1.0
175
1
  7

176
1
177
1
178
1
143
1.0
179
1
  8

270
1
271
1
272
1
145
1.0
146
1.0
273
1
  9

274
1
275
1
276
1
 42
1.0
 72
1
  3

 73
1
 74
1
 75
1
 94
63
  0
MATERIAL
  5
20
102
{ACAD_REACTORS
330
E
102
}
330
E
100
AcDbMaterial
  1
ByLayer
  2

 70
0
 40
1.0
 71
1
 41
1.0
 91
-1023410177
 42
1.0
 72
1
  3

 73
1
 74
1
 75
1
 44
0.5
 73
0
 45
1.0
 46
1.0
 77
1
  4

 78
1
 79
1
170
1
 48
1.0
171
1
  6

172
1
173
1
174
1
140
1.0
141
1.0
175
1
  7

176
1
177
1
178
1
143
1.0
179
1
  8

270
1
271
1
272
1
145
1.0
146
1.0
273
1
  9

274
1
275
1
276
1
 42
1.0
 72
1
  3

 73
1
 74
1
 75
1
 94
63
  0
MATERIAL
  5
21
102
{ACAD_REACTORS
330
E
102
}
330
E
100
AcDbMaterial
  1
Global
  2

 70
0
 40
1.0
 71
1
 41
1.0
 91
-1023410177
 42
1.0
 72
1
  3

 73
1
 74
1
 75
1
 44
0.5
 73
0
 45
1.0
 46
1.0
 77
1
  4

 78
1
 79
1
170
1
 48
1.0
171
1
  6

172
1
173
1
174
1
140
1.0
141
1.0
175
1
  7

176
1
177
1
178
1
143
1.0
179
1
  8

270
1
271
1
272
1
145
1.0
146
1.0
273
1
  9

274
1
275
1
276
1
 42
1.0
 72
1
  3

 73
1
 74
1
 75
1
 94
63
  0
MLINESTYLE
  5
22
102
{ACAD_REACTORS
330
10
102
}
330
10
100
AcDbMlineStyle
  2
Standard
 70
0
  3

 62
256
 51
90.0
 52
90.0
 71
2
 49
0.5
 62
256
  6
BYLAYER
 49
-0.5
 62
256
  6
BYLAYER
  0
MLEADERSTYLE
  5
2C
102
{ACAD_REACTORS
330
F
102
}
330
F
100
AcDbMLeaderStyle
179
2
170
2
171
1
172
0
 90
2
 40
0.0
 41
0.0
173
1
 91
-1056964608
 92
-2
290
1
 42
2.0
291
1
 43
8.0
  3
Standard
 44
4.0
300

342
29
174
1
175
1
176
0
178
1
 93
-1056964608
 45
4.0
292
0
297
0
 46
4.0
 94
-1056964608
 47
1.0
 49
1.0
140
1.0
294
1
141
0.0
177
0
142
1.0
295
0
296
0
143
3.75
271
0
272
9
273
9
  0
DICTIONARY
  5
2D
330
A
100
AcDbDictionary
280
1
281
1
  3
CREATED_BY_EZDXF
350
2E
  3
WRITTEN_BY_EZDXF
350
58
  0
DICTIONARYVAR
  5
2E
330
2D
100
DictionaryVariables
280
0
  1
1.4.4 @ 2026-07-10T13:55:22.209102+00:00
  0
DICTIONARYVAR
  5
58
330
2D
100
DictionaryVariables
280
0
  1
1.4.4 @ 2026-07-10T13:55:22.214279+00:00
  0
ENDSEC
  0
EOF
