  0
SECTION
  2
HEADER
  9
$ACADVER
  1
AC1027
  9
$ACADMAINTVER
 70
105
  9
$DWGCODEPAGE
  3
ANSI_1252
  9
$LASTSAVEDBY
  1
ezdxf
  9
$REQUIREDVERSIONS
160
0
  9
$INSBASE
 10
0.0
 20
0.0
 30
0.0
  9
$EXTMIN
 10
1e+20
 20
1e+20
 30
1e+20
  9
$EXTMAX
 10
-1e+20
 20
-1e+20
 30
-1e+20
  9
$LIMMIN
 10
0.0
 20
0.0
  9
$LIMMAX
 10
420.0
 20
297.0
  9
$ORTHOMODE
 70
0
  9
$REGENMODE
 70
1
  9
$FILLMODE
 70
1
  9
$QTEXTMODE
 70
0
  9
$MIRRTEXT
 70
1
  9
$LTSCALE
 40
1.0
  9
$ATTMODE
 70
1
  9
$TEXTSIZE
 40
2.5
  9
$TRACEWID
 40
1.0
  9
$TEXTSTYLE
  7
Standard
  9
$CLAYER
  8
0
  9
$CELTYPE
  6
ByLayer
  9
$CECOLOR
 62
256
  9
$CELTSCALE
 40
1.0
  9
$DISPSILH
 70
0
  9
$DIMSCALE
 40
1.0
  9
$DIMASZ
 40
2.5
  9
$DIMEXO
 40
0.625
  9
$DIMDLI
 40
3.75
  9
$DIMRND
 40
0.0
  9
$DIMDLE
 40
0.0
  9
$DIMEXE
 40
1.25
  9
$DIMTP
 40
0.0
  9
$DIMTM
 40
0.0
  9
$DIMTXT
 40
2.5
  9
$DIMCEN
 40
2.5
  9
$DIMTSZ
 40
0.0
  9
$DIMTOL
 70
0
  9
$DIMLIM
 70
0
  9
$DIMTIH
 70
0
  9
$DIMTOH
 70
0
  9
$DIMSE1
 70
0
  9
$DIMSE2
 70
0
  9
$DIMTAD
 70
1
  9
$DIMZIN
 70
8
  9
$DIMBLK
  1

  9
$DIMASO
 70
1
  9
$DIMSHO
 70
1
  9
$DIMPOST
  1

  9
$DIMAPOST
  1

  9
$DIMALT
 70
0
  9
$DIMALTD
 70
3
  9
$DIMALTF
 40
0.03937007874
  9
$DIMLFAC
 40
1.0
  9
$DIMTOFL
 70
1
  9
$DIMTVP
 40
0.0
  9
$DIMTIX
 70
0
  9
$DIMSOXD
 70
0
  9
$DIMSAH
 70
0
  9
$DIMBLK1
  1

  9
$DIMBLK2
  1

  9
$DIMSTYLE
  2
ISO-25
  9
$DIMCLRD
 70
0
  9
$DIMCLRE
 70
0
  9
$DIMCLRT
 70
0
  9
$DIMTFAC
 40
1.0
  9
$DIMGAP
 40
0.625
  9
$DIMJUST
 70
0
  9
$DIMSD1
 70
0
  9
$DIMSD2
 70
0
  9
$DIMTOLJ
 70
0
  9
$DIMTZIN
 70
8
  9
$DIMALTZ
 70
0
  9
$DIMALTTZ
 70
0
  9
$DIMUPT
 70
0
  9
$DIMDEC
 70
2
  9
$DIMTDEC
 70
2
  9
$DIMALTU
 70
2
  9
$DIMALTTD
 70
3
  9
$DIMTXSTY
  7
Standard
  9
$DIMAUNIT
 70
0
  9
$DIMADEC
 70
0
  9
$DIMALTRND
 40
0.0
  9
$DIMAZIN
 70
0
  9
$DIMDSEP
 70
44
  9
$DIMATFIT
 70
3
  9
$DIMFRAC
 70
0
  9
$DIMLDRBLK
  1

  9
$DIMLUNIT
 70
2
  9
$DIMLWD
 70
-2
  9
$DIMLWE
 70
-2
  9
$DIMTMOVE
 70
0
  9
$DIMFXL
 40
1.0
  9
$DIMFXLON
 70
0
  9
$DIMJOGANG
 40
0.785398163397
  9
$DIMTFILL
 70
0
  9
$DIMTFILLCLR
 70
0
  9
$DIMARCSYM
 70
0
  9
$DIMLTYPE
  6

  9
$DIMLTEX1
  6

  9
$DIMLTEX2
  6

  9
$DIMTXTDIRECTION
 70
0
  9
$LUNITS
 70
2
  9
$LUPREC
 70
4
  9
$SKETCHINC
 40
1.0
  9
$FILLETRAD
 40
10.0
  9
$AUNITS
 70
0
  9
$AUPREC
 70
2
  9
$MENU
  1
.
  9
$ELEVATION
 40
0.0
  9
$PELEVATION
 40
0.0
  9
$THICKNESS
 40
0.0
  9
$LIMCHECK
 70
0
  9
$CHAMFERA
 40
0.0
  9
$CHAMFERB
 40
0.0
  9
$CHAMFERC
 40
0.0
  9
$CHAMFERD
 40
0.0
  9
$SKPOLY
 70
0
  9
$TDCREATE
 40
2461243.8295486113
  9
$TDUCREATE
 40
2458532.153996898
  9
$TDUPDATE
 40
2461243.8295486113
  9
$TDUUPDATE
 40
2458532.1544311
  9
$TDINDWG
 40
0.0
  9
$TDUSRTIMER
 40
0.0
  9
$USRTIMER
 70
1
  9
$ANGBASE
 50
0.0
  9
$ANGDIR
 70
0
  9
$PDMODE
 70
0
  9
$PDSIZE
 40
0.0
  9
$PLINEWID
 40
0.0
  9
$SPLFRAME
 70
0
  9
$SPLINETYPE
 70
6
  9
$SPLINESEGS
 70
8
  9
$HANDSEED
  5
3B
  9
$SURFTAB1
 70
6
  9
$SURFTAB2
 70
6
  9
$SURFTYPE
 70
6
  9
$SURFU
 70
6
  9
$SURFV
 70
6
  9
$UCSBASE
  2

  9
$UCSNAME
  2

  9
$UCSORG
 10
0.0
 20
0.0
 30
0.0
  9
$UCSXDIR
 10
1.0
 20
0.0
 30
0.0
  9
$UCSYDIR
 10
0.0
 20
1.0
 30
0.0
  9
$UCSORTHOREF
  2

  9
$UCSORTHOVIEW
 70
0
  9
$UCSORGTOP
 10
0.0
 20
0.0
 30
0.0
  9
$UCSORGBOTTOM
 10
0.0
 20
0.0
 30
0.0
  9
$UCSORGLEFT
 10
0.0
 20
0.0
 30
0.0
  9
$UCSORGRIGHT
 10
0.0
 20
0.0
 30
0.0
  9
$UCSORGFRONT
 10
0.0
 20
0.0
 30
0.0
  9
$UCSORGBACK
 10
0.0
 20
0.0
 30
0.0
  9
$PUCSBASE
  2

  9
$PUCSNAME
  2

  9
$PUCSORG
 10
0.0
 20
0.0
 30
0.0
  9
$PUCSXDIR
 10
1.0
 20
0.0
 30
0.0
  9
$PUCSYDIR
 10
0.0
 20
1.0
 30
0.0
  9
$PUCSORTHOREF
  2

  9
$PUCSORTHOVIEW
 70
0
  9
$PUCSORGTOP
 10
0.0
 20
0.0
 30
0.0
  9
$PUCSORGBOTTOM
 10
0.0
 20
0.0
 30
0.0
  9
$PUCSORGLEFT
 10
0.0
 20
0.0
 30
0.0
  9
$PUCSORGRIGHT
 10
0.0
 20
0.0
 30
0.0
  9
$PUCSORGFRONT
 10
0.0
 20
0.0
 30
0.0
  9
$PUCSORGBACK
 10
0.0
 20
0.0
 30
0.0
  9
$USERI1
 70
0
  9
$USERI2
 70
0
  9
$USERI3
 70
0
  9
$USERI4
 70
0
  9
$USERI5
 70
0
  9
$USERR1
 40
0.0
  9
$USERR2
 40
0.0
  9
$USERR3
 40
0.0
  9
$USERR4
 40
0.0
  9
$USERR5
 40
0.0
  9
$WORLDVIEW
 70
1
  9
$SHADEDGE
 70
3
  9
$SHADEDIF
 70
70
  9
$TILEMODE
 70
1
  9
$MAXACTVP
 70
64
  9
$PINSBASE
 10
0.0
 20
0.0
 30
0.0
  9
$PLIMCHECK
 70
0
  9
$PEXTMIN
 10
1e+20
 20
1e+20
 30
1e+20
  9
$PEXTMAX
 10
-1e+20
 20
-1e+20
 30
-1e+20
  9
$PLIMMIN
 10
0.0
 20
0.0
  9
$PLIMMAX
 10
420.0
 20
297.0
  9
$UNITMODE
 70
0
  9
$VISRETAIN
 70
1
  9
$PLINEGEN
 70
0
  9
$PSLTSCALE
 70
1
  9
$TREEDEPTH
 70
3020
  9
$CMLSTYLE
  2
Standard
  9
$CMLJUST
 70
0
  9
$CMLSCALE
 40
20.0
  9
$PROXYGRAPHICS
 70
1
  9
$MEASUREMENT
 70
1
  9
$CELWEIGHT
370
-1
  9
$ENDCAPS
280
0
  9
$JOINSTYLE
280
0
  9
$LWDISPLAY
290
0
  9
$INSUNITS
 70
4
  9
$HYPERLINKBASE
  1

  9
$STYLESHEET
  1

  9
$XEDIT
290
1
  9
$CEPSNTYPE
380
0
  9
$PSTYLEMODE
290
1
  9
$FINGERPRINTGUID
  2
{86BC3538-92AD-4161-8A21-5BACB3FECC11}
  9
$VERSIONGUID
  2
{B805F0A5-29AC-483D-8D7B-D80CBD2DF916}
  9
$EXTNAMES
290
1
  9
$PSVPSCALE
 40
0.0
  9
$OLESTARTUP
290
0
  9
$SORTENTS
280
127
  9
$INDEXCTL
280
0
  9
$HIDETEXT
280
1
  9
$XCLIPFRAME
280
1
  9
$HALOGAP
280
0
  9
$OBSCOLOR
 70
257
  9
$OBSLTYPE
280
0
  9
$INTERSECTIONDISPLAY
280
0
  9
$INTERSECTIONCOLOR
 70
257
  9
$DIMASSOC
280
2
  9
$PROJECTNAME
  1

  9
$CAMERADISPLAY
290
0
  9
$LENSLENGTH
 40
50.0
  9
$CAMERAHEIGHT
 40
0.0
  9
$STEPSPERSEC
 40
24.0
  9
$STEPSIZE
 40
100.0
  9
$3DDWFPREC
 40
2.0
  9
$PSOLWIDTH
 40
0.005
  9
$PSOLHEIGHT
 40
0.08
  9
$LOFTANG1
 40
1.570796326795
  9
$LOFTANG2
 40
1.570796326795
  9
$LOFTMAG1
 40
0.0
  9
$LOFTMAG2
 40
0.0
  9
$LOFTPARAM
 70
7
  9
$LOFTNORMALS
280
1
  9
$LATITUDE
 40
37.795
  9
$LONGITUDE
 40
-122.394
  9
$NORTHDIRECTION
 40
0.0
  9
$TIMEZONE
 70
-8000
  9
$LIGHTGLYPHDISPLAY
280
1
  9
$TILEMODELIGHTSYNCH
280
1
  9
$CMATERIAL
347
20
  9
$SOLIDHIST
280
0
  9
$SHOWHIST
280
1
  9
$DWFFRAME
280
2
  9
$DGNFRAME
280
2
  9
$REALWORLDSCALE
290
1
  9
$INTERFERECOLOR
 62
256
  9
$CSHADOW
280
0
  9
$SHADOWPLANELOCATION
 40
0.0
  0
ENDSEC
  0
SECTION
  2
CLASSES
  0
CLASS
  1
ACDBDICTIONARYWDFLT
  2
AcDbDictionaryWithDefault
  3
ObjectDBX Classes
 90
0
 91
0
280
0
281
0
  0
CLASS
  1
SUN
  2
AcDbSun
  3
SCENEOE
 90
1153
 91
0
280
0
281
0
  0
CLASS
  1
VISUALSTYLE
  2
AcDbVisualStyle
  3
ObjectDBX Classes
 90
4095
 91
0
280
0
281
0
  0
CLASS
  1
MATERIAL
  2
AcDbMaterial
  3
ObjectDBX Classes
 90
1153
 91
0
280
0
281
0
  0
CLASS
  1
SCALE
  2
AcDbScale
  3
ObjectDBX Classes
 90
1153
 91
0
280
0
281
0
  0
CLASS
  1
TABLESTYLE
  2
AcDbTableStyle
  3
ObjectDBX Classes
 90
4095
 91
0
280
0
281
0
  0
CLASS
  1
MLEADERSTYLE
  2
AcDbMLeaderStyle
  3
ACDB_MLEADERSTYLE_CLASS
 90
4095
 91
0
280
0
281
0
  0
CLASS
  1
DICTIONARYVAR
  2
AcDbDictionaryVar
  3
ObjectDBX Classes
 90
0
 91
0
280
0
281
0
  0
CLASS
  1
CELLSTYLEMAP
  2
AcDbCellStyleMap
  3
ObjectDBX Classes
 90
1152
 91
0
280
0
281
0
  0
CLASS
  1
MENTALRAYRENDERSETTINGS
  2
AcDbMentalRayRenderSettings
  3
SCENEOE
 90
1024
 91
0
280
0
281
0
  0
CLASS
  1
ACDBDETAILVIEWSTYLE
  2
AcDbDetailViewStyle
  3
ObjectDBX Classes
 90
1025
 91
0
280
0
281
0
  0
CLASS
  1
ACDBSECTIONVIEWSTYLE
  2
AcDbSectionViewStyle
  3
ObjectDBX Classes
 90
1025
 91
0
280
0
281
0
  0
CLASS
  1
RASTERVARIABLES
  2
AcDbRasterVariables
  3
ISM
 90
0
 91
0
280
0
281
0
  0
CLASS
  1
ACDBPLACEHOLDER
  2
AcDbPlaceHolder
  3
ObjectDBX Classes
 90
0
 91
0
280
0
281
0
  0
CLASS
  1
LAYOUT
  2
AcDbLayout
  3
ObjectDBX Classes
 90
0
 91
0
280
0
281
0
  0
ENDSEC
  0
SECTION
  2
TABLES
  0
TABLE
  2
VPORT
  5
8
330
0
100
AcDbSymbolTable
 70
1
  0
VPORT
  5
23
330
8
100
AcDbSymbolTableRecord
100
AcDbViewportTableRecord
  2
*Active
 70
0
 10
0.0
 20
0.0
 11
1.0
 21
1.0
 12
0.0
 22
0.0
 13
0.0
 23
0.0
 14
0.5
 24
0.5
 15
0.5
 25
0.5
 16
0.0
 26
0.0
 36
1.0
 17
0.0
 27
0.0
 37
0.0
 40
1000.0
 41
1.34
 42
50.0
 43
0.0
 44
0.0
 50
0.0
 51
0.0
 71
0
 72
1000
 73
1
 74
3
 75
0
 76
0
 77
0
 78
0
281
0
 65
0
146
0.0
  0
ENDTAB
  0
TABLE
  2
LTYPE
  5
2
330
0
100
AcDbSymbolTable
 70
3
  0
LTYPE
  5
24
330
2
100
AcDbSymbolTableRecord
100
AcDbLinetypeTableRecord
  2
ByBlock
 70
0
  3

 72
65
 73
0
 40
0.0
  0
LTYPE
  5
25
330
2
100
AcDbSymbolTableRecord
100
AcDbLinetypeTableRecord
  2
ByLayer
 70
0
  3

 72
65
 73
0
 40
0.0
  0
LTYPE
  5
26
330
2
100
AcDbSymbolTableRecord
100
AcDbLinetypeTableRecord
  2
Continuous
 70
0
  3

 72
65
 73
0
 40
0.0
  0
ENDTAB
  0
TABLE
  2
LAYER
  5
1
330
0
100
AcDbSymbolTable
 70
3
  0
LAYER
  5
27
330
1
100
AcDbSymbolTableRecord
100
AcDbLayerTableRecord
  2
0
 70
0
 62
7
  6
Continuous
370
-3
390
13
347
21
  0
LAYER
  5
28
330
1
100
AcDbSymbolTableRecord
100
AcDbLayerTableRecord
  2
Defpoints
 70
0
 62
7
  6
Continuous
290
0
370
-3
390
13
347
21
  0
LAYER
  5
2F
330
1
100
AcDbSymbolTableRecord
100
AcDbLayerTableRecord
  2
C
 70
0
 62
7
  6
Continuous
370
-3
390
13
347
21
  0
ENDTAB
  0
TABLE
  2
STYLE
  5
5
330
0
100
AcDbSymbolTable
 70
1
  0
STYLE
  5
29
330
5
100
AcDbSymbolTableRecord
100
AcDbTextStyleTableRecord
  2
Standard
 70
0
 40
0.0
 41
1.0
 50
0.0
 71
0
 42
2.5
  3
txt
  4

  0
ENDTAB
  0
TABLE
  2
VIEW
  5
7
330
0
100
AcDbSymbolTable
 70
0
  0
ENDTAB
  0
TABLE
  2
UCS
  5
6
330
0
100
AcDbSymbolTable
 70
0
  0
ENDTAB
  0
TABLE
  2
APPID
  5
3
330
0
100
AcDbSymbolTable
 70
3
  0
APPID
  5
2A
330
3
100
AcDbSymbolTableRecord
100
AcDbRegAppTableRecord
  2
ACAD
 70
0
  0
APPID
  5
38
330
3
100
AcDbSymbolTableRecord
100
AcDbRegAppTableRecord
  2
HATCHBACKGROUNDCOLOR
 70
0
  0
APPID
  5
39
330
3
100
AcDbSymbolTableRecord
100
AcDbRegAppTableRecord
  2
EZDXF
 70
0
  0
ENDTAB
  0
TABLE
  2
DIMSTYLE
  5
4
330
0
100
AcDbSymbolTable
 70
1
100
AcDbDimStyleTable
  0
DIMSTYLE
105
2B
330
4
100
AcDbSymbolTableRecord
100
AcDbDimStyleTableRecord
  2
Standard
 70
0
 40
1.0
 41
2.5
 42
0.625
 43
3.75
 44
1.25
 45
0.0
 46
0.0
 47
0.0
 48
0.0
 49
2.5
140
2.5
141
2.5
142
0.0
143
0.03937007874
144
1.0
145
0.0
146
1.0
147
0.625
148
0.0
 69
0
 70
0
 71
0
 72
0
 73
0
 74
0
 75
0
 76
0
 77
1
 78
8
 79
3
170
0
171
3
172
1
173
0
174
0
175
0
176
0
177
0
178
0
179
2
271
2
272
2
273
2
274
3
275
0
276
0
277
2
278
44
279
0
280
0
281
0
282
0
283
0
284
8
285
0
286
0
288
0
289
3
290
0
371
-2
372
-2
  0
ENDTAB
  0
TABLE
  2
BLOCK_RECORD
  5
9
330
0
100
AcDbSymbolTable
 70
2
  0
BLOCK_RECORD
  5
17
330
9
100
AcDbSymbolTableRecord
100
AcDbBlockTableRecord
  2
*Model_Space
340
1A
 70
0
280
1
281
0
  0
BLOCK_RECORD
  5
1B
330
9
100
AcDbSymbolTableRecord
100
AcDbBlockTableRecord
  2
*Paper_Space
340
1E
 70
0
280
1
281
0
  0
ENDTAB
  0
ENDSEC
  0
SECTION
  2
BLOCKS
  0
BLOCK
  5
18
330
17
100
AcDbEntity
  8
0
100
AcDbBlockBegin
  2
*Model_Space
 70
0
 10
0.0
 20
0.0
 30
0.0
  3
*Model_Space
  1

  0
ENDBLK
  5
19
330
17
100
AcDbEntity
  8
0
100
AcDbBlockEnd
  0
BLOCK
  5
1C
330
1B
100
AcDbEntity
  8
0
100
AcDbBlockBegin
  2
*Paper_Space
 70
0
 10
0.0
 20
0.0
 30
0.0
  3
*Paper_Space
  1

  0
ENDBLK
  5
1D
330
1B
100
AcDbEntity
  8
0
100
AcDbBlockEnd
  0
ENDSEC
  0
SECTION
  2
ENTITIES
  0
LWPOLYLINE
  5
30
330
17
100
AcDbEntity
  8
C
100
AcDbPolyline
 90
37
 70
1
 10
13.390921728818173
 20
50.73900312450086
 10
0.0
 20
67.23853168322303
 10
5.003729945682878
 20
78.19908299281386
 10
3.336598526723966
 20
80.93794175253188
 10
9.230762870463538
 20
93.38786031532919
 10
17.572553411332457
 20
90.64698628047229
 10
22.560518938785634
 20
98.84150107557355
 10
26.006250741994474
 20
98.84150107557355
 10
27.616718173723463
 20
96.19573315201902
 10
30.89385227211916
 20
101.57959631366886
 10
34.31919067458122
 20
101.57959631366886
 10
44.252516437778496
 20
93.42007872247116
 10
55.89936531020023
 20
115.28763170742629
 10
66.00438105276663
 20
112.52078215886641
 10
80.99415943316446
 20
96.10340583747833
 10
84.23927691428234
 20
96.10340583747833
 10
89.23927691428224
 20
101.57959631366886
 10
95.8938522721191
 20
101.57959631366886
 10
99.22718560545229
 20
107.05578678985927
 10
105.89385227211889
 20
107.05578678985927
 10
109.28338484039001
 20
112.62430458059048
 10
111.88338484038995
 20
108.35287600916199
 10
111.88338484038995
 20
83.64426737536579
 10
100.99528435780303
 20
71.26054869462128
 10
85.89385227211888
 20
71.26054869462128
 10
80.93397513653721
 20
79.40891827450558
 10
75.99415943316457
 20
73.99864393271649
 10
72.6729174086611
 20
73.99864393271649
 10
69.32439706010496
 20
68.4975033600883
 10
62.64341416329899
 20
71.24147847841944
 10
57.671885568189694
 20
65.79647096949026
 10
39.34158001769128
 20
60.321184895964606
 10
32.6309741585269
 20
52.05275981949464
 10
29.247579006198787
 20
54.831977266049826
 10
22.660826099831112
 20
54.831977266049826
 10
17.646953286034382
 20
49.34059275570113
 10
13.390921728818173
 20
50.73900312450086
  0
LWPOLYLINE
  5
31
330
17
100
AcDbEntity
  8
C
100
AcDbPolyline
 90
162
 70
1
 10
198.34134268798954
 20
45.33490967807208
 10
195.01784919326036
 20
50.79493470512719
 10
193.35118252659367
 20
91.86636327655573
 10
191.67294622968444
 20
94.62346576433522
 10
194.23784868066085
 20
101.6464129515322
 10
197.65252400791468
 20
98.84150107557355
 10
207.646634622344
 20
98.84150107557355
 10
215.9799679556773
 20
93.36531059938314
 10
225.985857341248
 20
93.36531059938314
 10
232.6525240079147
 20
87.88912012319261
 10
242.6525240079147
 20
87.88912012319261
 10
249.25785396182874
 20
82.46331337533475
 10
251.66631604023505
 20
86.42007250414507
 10
250.0167181737234
 20
89.13012614198546
 10
250.0167181737234
 20
116.56716172344738
 10
251.67467602132288
 20
119.29094961593223
 10
250.01218934520008
 20
124.7534058374784
 10
251.67467602132288
 20
130.21586205902446
 10
247.61671817372343
 20
136.88250709436645
 10
245.96175227096384
 20
134.16363453983294
 10
239.23575430958988
 20
142.4510248850974
 10
235.893852272119
 20
142.4510248850974
 10
234.24763245720348
 20
145.15552886674453
 10
229.35488960676344
 20
142.4761696867417
 10
226.00625074199442
 20
136.9748344089069
 10
212.5605189387857
 20
136.9748344089069
 10
209.99583320352477
 20
141.18824668826423
 10
218.33948657732495
 20
152.1541911224018
 10
215.00800935465625
 20
163.10047342545607
 10
219.2271856054524
 20
170.0319772660498
 10
224.2271856054524
 20
170.0319772660498
 10
227.61671817372343
 20
175.60049505678077
 10
229.2833848403901
 20
172.86239981868545
 10
230.9598132599815
 20
175.61653222230012
 10
237.62647992664822
 20
161.92605603182386
 10
240.90588674466608
 20
167.31365294713896
 10
249.3496319839762
 20
164.53927951136572
 10
252.67291740866116
 20
159.07959631366884
 10
259.3310153711903
 20
159.07959631366884
 10
265.99768203785703
 20
150.86531059938312
 10
270.9941594331646
 20
150.86531059938312
 10
275.9941594331646
 20
145.3891201231926
 10
292.56051893878566
 20
145.3891201231926
 10
296.67905010558246
 20
152.15527846864452
 10
295.0123834389158
 20
163.10765942102546
 10
298.33298270690165
 20
168.56292964700214
 10
296.6746760213229
 20
171.28729063045313
 10
298.3413426879895
 20
176.76348110664352
 10
295.0200625045203
 20
182.2198699794859
 10
293.35398936161715
 20
195.90547079619014
 10
284.21619252011743
 20
208.18809382340086
 10
279.21188007401673
 20
210.92855063912265
 10
274.2578539618287
 20
219.06730782343152
 10
264.2735256686961
 20
210.86589529692978
 10
259.2994612109095
 20
216.31368017926755
 10
255.9421031399055
 20
210.79802049118933
 10
247.58390480573823
 20
227.2756114928335
 10
244.3191906745813
 20
224.5938820279546
 10
234.2271856054524
 20
224.5938820279546
 10
232.56051893878572
 20
227.33197726604982
 10
227.56421705532702
 20
227.33197726604982
 10
213.34620096212586
 20
247.94212664484994
 10
215.01325812753635
 20
261.6358105035786
 10
213.3329827069017
 20
264.39626298033545
 10
215.89385227211898
 20
268.6034058374783
 10
225.893852272119
 20
268.6034058374783
 10
229.9996493735683
 20
275.3486439327165
 10
226.67294622968447
 20
280.81394195481136
 10
229.22265462086855
 20
287.7952863592438
 10
237.57255341133276
 20
285.05174818523415
 10
241.66631604023502
 20
291.77721536128786
 10
239.99964937356833
 20
294.51531059938316
 10
242.61671817372343
 20
298.81478077106647
 10
244.28338484039003
 20
296.07668553297117
 10
247.60064180320396
 20
301.5264648290226
 10
252.60064180320396
 20
296.05027435283205
 10
255.00800935465617
 20
300.00523533021794
 10
253.34134268798957
 20
305.4814258064085
 10
255.89385227211903
 20
309.674834408907
 10
259.3310153711903
 20
309.674834408907
 10
265.93835074314967
 20
301.5336533256
 10
269.2392200779994
 20
306.956510089996
 10
277.68296531730954
 20
304.1821366542228
 10
280.22542699279063
 20
300.00523533021794
 10
278.55876032612395
 20
294.5290448540275
 10
282.6327945442428
 20
287.8359886385463
 10
287.5726102476156
 20
293.24626298033553
 10
291.0062507419945
 20
293.24626298033553
 10
299.28338484039006
 20
279.64811410439984
 10
300.8938522721191
 20
282.29388202795457
 10
304.3395840753278
 20
282.29388202795457
 10
309.3395840753278
 20
274.07959631366884
 10
312.6729174086611
 20
274.07959631366884
 10
314.3191372235767
 20
271.3750923320217
 10
319.2118800740168
 20
274.05445151202457
 10
324.2030029877928
 20
282.2541534417995
 10
329.23927691428224
 20
287.770072504145
 10
332.56051893878566
 20
287.770072504145
 10
335.8997030749151
 20
293.2558750135004
 10
352.6671699228235
 20
290.5012197456297
 10
357.6265773454174
 20
285.0694878065984
 10
360.9755823856181
 20
287.82045623247757
 10
364.3395840753278
 20
282.29388202795457
 10
371.00625074199445
 20
282.29388202795457
 10
372.6327945442429
 20
279.6217029242607
 10
377.6327945442429
 20
285.0978934004511
 10
379.3089157189514
 20
282.34426575628714
 10
382.64224905228485
 20
285.0823609943823
 10
386.89382345109567
 20
278.0976316249073
 10
384.3060218509793
 20
271.0119843864937
 10
382.6167181737234
 20
273.7872689991284
 10
380.23378697387847
 20
269.872453456526
 10
386.90045364054515
 20
258.9200725041451
 10
385.22542699279063
 20
256.1682430114055
 10
386.8920936594573
 20
250.69205253521497
 10
383.5467071762598
 20
245.19606045567633
 10
381.88004050959324
 20
231.50558426520018
 10
379.2994612109095
 20
227.26606113164848
 10
374.2994612109096
 20
232.74225160783902
 10
371.00913318517735
 20
227.33671270842183
 10
339.3424665185107
 20
224.59861747032662
 10
337.67291740866114
 20
221.8557867898594
 10
327.67291740866114
 20
221.8557867898594
 10
325.21671817372345
 20
217.82060233246182
 10
325.21671817372345
 20
187.7015547134141
 10
323.5500515070567
 20
184.9634594753189
 10
323.5500515070567
 20
176.74917376103315
 10
320.23084246991584
 20
171.2961874857303
 10
327.6786309587685
 20
156.34150107557366
 10
331.0062507419944
 20
156.34150107557366
 10
335.9755823856182
 20
148.17759908962046
 10
339.3089157189515
 20
150.91569432771567
 10
345.21671817372334
 20
141.21001886630447
 10
345.21671817372334
 20
130.25763791392353
 10
348.55005150705676
 20
124.78144743773312
 10
348.55005150705676
 20
113.77298328484264
 10
339.3089157189515
 20
98.59111734724102
 10
335.91424567286555
 20
101.37959631366888
 10
327.56051893878566
 20
101.37959631366888
 10
325.8938522721191
 20
104.1176915517641
 10
319.2271856054524
 20
104.1176915517641
 10
315.8938522721191
 20
109.59388202795462
 10
310.8938522721191
 20
109.59388202795462
 10
309.22718560545235
 20
112.33197726604982
 10
306.0062507419945
 20
112.33197726604982
 10
304.28338484039006
 20
109.50155471341417
 10
302.56051893878566
 20
112.33197726604982
 10
299.33610588732273
 20
112.33197726604982
 10
284.3578540179902
 20
90.45897453623097
 10
270.98585734124805
 20
79.4748344089069
 10
267.66835382642864
 20
79.4748344089069
 10
256.0163539547864
 20
63.06691622230887
 10
244.34384716408664
 20
57.58798446340896
 10
239.327492766498
 20
52.09388202795462
 10
226.00625074199442
 20
52.09388202795462
 10
224.33958407532785
 20
49.3557867898593
 10
217.66434870452366
 20
49.3557867898593
 10
204.29764082519375
 20
32.88609315282787
 10
200.9755823856182
 20
35.61492687105061
 10
199.26074782980086
 20
32.79769867220794
 10
196.67797798072473
 20
39.869568497059134
 10
198.34134268798954
 20
45.33490967807208
  0
LWPOLYLINE
  5
32
330
17
100
AcDbEntity
  8
C
100
AcDbPolyline
 90
5
 70
1
 10
249.32395730837632
 20
312.4933373455908
 10
251.89382345109567
 20
305.4567990976685
 10
249.28338484039014
 20
301.1682213800808
 10
244.99013148552774
 20
308.2214233202116
 10
249.32395730837632
 20
312.4933373455908
  0
LWPOLYLINE
  5
33
330
17
100
AcDbEntity
  8
C
100
AcDbPolyline
 90
5
 70
1
 10
214.30313415238834
 20
11.282335472783679
 10
218.5671203072118
 20
4.277215361287889
 10
215.96359791338438
 20
0.0
 10
209.9802818659128
 20
7.021238218971937
 10
214.30313415238834
 20
11.282335472783679
  0
LWPOLYLINE
  5
34
330
17
100
AcDbEntity
  8
C
100
AcDbPolyline
 90
38
 70
1
 10
1712.5605189387857
 20
35.66531059938316
 10
1707.5726102476153
 20
35.66531059938316
 10
1702.6327945442429
 20
41.07558494117225
 10
1701.0062507419943
 20
38.40340583747837
 10
1697.5605189387854
 20
38.40340583747837
 10
1695.8938522721185
 20
41.14150107557357
 10
1692.5636273625234
 20
41.14150107557357
 10
1675.9383218606683
 20
65.72320278188771
 10
1670.8701775936397
 20
60.17237810847487
 10
1670.013294299622
 20
70.02653598967612
 10
1674.9923119840569
 20
75.47974583453309
 10
1673.3329827069015
 20
78.20578678985935
 10
1675.893852272119
 20
82.4129296470022
 10
1677.6729174086609
 20
82.4129296470022
 10
1684.3395840753276
 20
71.46054869462127
 10
1692.672917408661
 20
71.46054869462127
 10
1695.9500515070563
 20
66.0766855329713
 10
1699.2673084698704
 20
71.5264648290227
 10
1704.2932440120837
 20
66.02186875897931
 10
1707.616718173723
 20
68.75186539175448
 10
1710.9401923353626
 20
66.02186875897931
 10
1715.978199281715
 20
71.53968589069859
 10
1720.9816552127365
 20
60.57973480369861
 10
1725.0305016792527
 20
64.57074060640733
 10
1727.5467794158178
 20
71.46054869462127
 10
1731.006250741994
 20
71.46054869462127
 10
1732.6167181737233
 20
68.81478077106651
 10
1734.2271856054522
 20
71.46054869462127
 10
1737.6628857274495
 20
71.46054869462127
 10
1743.5500515070564
 20
64.55213987161301
 10
1743.5500515070564
 20
59.01107852293785
 10
1741.9004536405448
 20
56.301024885097476
 10
1743.5500515070564
 20
53.59097124725698
 10
1743.5500515070564
 20
31.686209342495108
 10
1745.2337869738783
 20
28.92007250414508
 10
1742.662357018455
 20
24.695580434520913
 10
1714.2181864907732
 20
32.94199962111766
 10
1712.5605189387857
 20
35.66531059938316
  0
LWPOLYLINE
  5
35
330
17
100
AcDbEntity
  8
C
100
AcDbPolyline
 90
5
 70
1
 10
1735.0062795630174
 20
61.766322907192304
 10
1732.6393551843125
 20
65.65484152935075
 10
1730.2271567844286
 20
59.05001257728837
 10
1732.5940811631338
 20
55.161493955129814
 10
1735.0062795630174
 20
61.766322907192304
  0
LWPOLYLINE
  5
36
330
17
100
AcDbEntity
  8
C
100
AcDbPolyline
 90
35
 70
1
 10
2830.0080093546567
 20
212.38618771117035
 10
2831.6833848403903
 20
215.1385902948759
 10
2831.6833848403903
 20
223.35287600916166
 10
2835.016718173724
 20
228.82906648535217
 10
2835.016718173724
 20
234.3052569615426
 10
2836.6857893872793
 20
237.04730252667005
 10
2838.3528851960186
 20
256.21890432717197
 10
2847.6250186359875
 20
268.6820966782991
 10
2850.9500515070567
 20
263.2195426758284
 10
2852.5605189387857
 20
265.8653105993831
 10
2857.672917408661
 20
265.8653105993831
 10
2859.28338484039
 20
263.21954267582845
 10
2862.560518938786
 20
268.6034058374783
 10
2874.247579006199
 20
268.6034058374783
 10
2877.6343216393084
 20
271.3853730003897
 10
2886.9038600582967
 20
258.92566876187925
 10
2883.5604901177626
 20
253.43298957385875
 10
2886.019990264962
 20
246.69864393271646
 10
2889.3395840753283
 20
246.69864393271646
 10
2892.6729174086613
 20
241.22245345652604
 10
2899.339584075328
 20
241.22245345652604
 10
2901.9064187009103
 20
237.00551085735532
 10
2896.0030561004432
 20
230.0780955608892
 10
2881.001170579272
 20
227.3396561403579
 10
2875.994159433165
 20
221.8557867898594
 10
2871.006250741995
 20
221.8557867898594
 10
2869.339584075328
 20
219.1176915517641
 10
2860.994159433165
 20
219.1176915517641
 10
2855.994159433165
 20
213.64150107557367
 10
2851.006250741995
 20
213.64150107557367
 10
2849.3395840753283
 20
210.90340583747835
 10
2840.994159433165
 20
210.90340583747835
 10
2835.9802866193686
 20
205.41202132712965
 10
2831.702836744968
 20
206.81746914300402
 10
2830.0080093546567
 20
212.38618771117035
  0
LWPOLYLINE
  5
37
330
17
100
AcDbEntity
  8
C
100
AcDbPolyline
 90
5
 70
1
 10
2878.3329827069015
 20
253.44388202795454
 10
2875.9500515070567
 20
257.3586975705567
 10
2873.567120307212
 20
253.44388202795454
 10
2875.9500515070567
 20
249.52906648535233
 10
2878.3329827069015
 20
253.44388202795454
  0
ENDSEC
  0
SECTION
  2
OBJECTS
  0
DICTIONARY
  5
A
330
0
100
AcDbDictionary
281
1
  3
ACAD_COLOR
350
B
  3
ACAD_GROUP
350
C
  3
ACAD_LAYOUT
350
D
  3
ACAD_MATERIAL
350
E
  3
ACAD_MLEADERSTYLE
350
F
  3
ACAD_MLINESTYLE
350
10
  3
ACAD_PLOTSETTINGS
350
11
  3
ACAD_PLOTSTYLENAME
350
12
  3
ACAD_SCALELIST
350
14
  3
ACAD_TABLESTYLE
350
15
  3
ACAD_VISUALSTYLE
350
16
  3
EZDXF_META
350
2D
  0
DICTIONARY
  5
B
330
A
100
AcDbDictionary
281
1
  0
DICTIONARY
  5
C
330
A
100
AcDbDictionary
281
1
  0
DICTIONARY
  5
D
330
A
100
AcDbDictionary
281
1
  3
Model
350
1A
  3
Layout1
350
1E
  0
DICTIONARY
  5
E
330
A
100
AcDbDictionary
281
1
  3
ByBlock
350
1F
  3
ByLayer
350
20
  3
Global
350
21
  0
DICTIONARY
  5
F
330
A
100
AcDbDictionary
281
1
  3
Standard
350
2C
  0
DICTIONARY
  5
10
330
A
100
AcDbDictionary
281
1
  3
Standard
350
22
  0
DICTIONARY
  5
11
330
A
100
AcDbDictionary
281
1
  0
ACDBDICTIONARYWDFLT
  5
12
330
A
100
AcDbDictionary
281
1
  3
Normal
350
13
100
AcDbDictionaryWithDefault
340
13
  0
ACDBPLACEHOLDER
  5
13
330
12
  0
DICTIONARY
  5
14
330
A
100
AcDbDictionary
281
1
  0
DICTIONARY
  5
15
330
A
100
AcDbDictionary
281
1
  0
DICTIONARY
  5
16
330
A
100
AcDbDictionary
281
1
  0
LAYOUT
  5
1A
330
D
100
AcDbPlotSettings
  1

  4
A3
  6

 40
7.5
 41
20.0
 42
7.5
 43
20.0
 44
420.0
 45
297.0
 46
0.0
 47
0.0
 48
0.0
 49
0.0
140
0.0
141
0.0
142
1.0
143
1.0
 70
1024
 72
1
 73
0
 74
5
  7

 75
16
 76
0
 77
2
 78
300
147
1.0
148
0.0
149
0.0
100
AcDbLayout
  1
Model
 70
1
 71
0
 10
0.0
 20
0.0
 11
420.0
 21
297.0
 12
0.0
 22
0.0
 32
0.0
 14
1e+20
 24
1e+20
 34
1e+20
 15
-1e+20
 25
-1e+20
 35
-1e+20
146
0.0
 13
0.0
 23
0.0
 33
0.0
 16
1.0
 26
0.0
 36
0.0
 17
0.0
 27
1.0
 37
0.0
 76
1
330
17
  0
LAYOUT
  5
1E
330
D
100
AcDbPlotSettings
  1

  4
A3
  6

 40
7.5
 41
20.0
 42
7.5
 43
20.0
 44
420.0
 45
297.0
 46
0.0
 47
0.0
 48
0.0
 49
0.0
140
0.0
141
0.0
142
1.0
143
1.0
 70
0
 72
1
 73
0
 74
5
  7

 75
16
 76
0
 77
2
 78
300
147
1.0
148
0.0
149
0.0
100
AcDbLayout
  1
Layout1
 70
1
 71
1
 10
0.0
 20
0.0
 11
420.0
 21
297.0
 12
0.0
 22
0.0
 32
0.0
 14
1e+20
 24
1e+20
 34
1e+20
 15
-1e+20
 25
-1e+20
 35
-1e+20
146
0.0
 13
0.0
 23
0.0
 33
0.0
 16
1.0
 26
0.0
 36
0.0
 17
0.0
 27
1.0
 37
0.0
 76
1
330
1B
  0
MATERIAL
  5
1F
102
{ACAD_REACTORS
330
E
102
}
330
E
100
AcDbMaterial
  1
ByBlock
  2

 70
0
 40
1.0
 71
1
 41
1.0
 91
-1023410177
 42
1.0
 72
1
  3

 73
1
 74
1
 75
1
 44
0.5
 73
0
 45
1.0
 46
1.0
 77
1
  4

 78
1
 79
1
170
1
 48
1.0
171
1
  6

172
1
173
1
174
1
140
1.0
141
1.0
175
1
  7

176
1
177
1
178
1
143
1.0
179
1
  8

270
1
271
1
272
1
145
1.0
146
1.0
273
1
  9

274
1
275
1
276
1
 42
1.0
 72
1
  3

 73
1
 74
1
 75
1
 94
63
  0
MATERIAL
  5
20
102
{ACAD_REACTORS
330
E
102
}
330
E
100
AcDbMaterial
  1
ByLayer
  2

 70
0
 40
1.0
 71
1
 41
1.0
 91
-1023410177
 42
1.0
 72
1
  3

 73
1
 74
1
 75
1
 44
0.5
 73
0
 45
1.0
 46
1.0
 77
1
  4

 78
1
 79
1
170
1
 48
1.0
171
1
  6

172
1
173
1
174
1
140
1.0
141
1.0
175
1
  7

176
1
177
1
178
1
143
1.0
179
1
  8

270
1
271
1
272
1
145
1.0
146
1.0
273
1
  9

274
1
275
1
276
1
 42
1.0
 72
1
  3

 73
1
 74
1
 75
1
 94
63
  0
MATERIAL
  5
21
102
{ACAD_REACTORS
330
E
102
}
330
E
100
AcDbMaterial
  1
Global
  2

 70
0
 40
1.0
 71
1
 41
1.0
 91
-1023410177
 42
1.0
 72
1
  3

 73
1
 74
1
 75
1
 44
0.5
 73
0
 45
1.0
 46
1.0
 77
1
  4

 78
1
 79
1
170
1
 48
1.0
171
1
  6

172
1
173
1
174
1
140
1.0
141
1.0
175
1
  7

176
1
177
1
178
1
143
1.0
179
1
  8

270
1
271
1
272
1
145
1.0
146
1.0
273
1
  9

274
1
275
1
276
1
 42
1.0
 72
1
  3

 73
1
 74
1
 75
1
 94
63
  0
MLINESTYLE
  5
22
102
{ACAD_REACTORS
330
10
102
}
330
10
100
AcDbMlineStyle
  2
Standard
 70
0
  3

 62
256
 51
90.0
 52
90.0
 71
2
 49
0.5
 62
256
  6
BYLAYER
 49
-0.5
 62
256
  6
BYLAYER
  0
MLEADERSTYLE
  5
2C
102
{ACAD_REACTORS
330
F
102
}
330
F
100
AcDbMLeaderStyle
179
2
170
2
171
1
172
0
 90
2
 40
0.0
 41
0.0
173
1
 91
-1056964608
 92
-2
290
1
 42
2.0
291
1
 43
8.0
  3
Standard
 44
4.0
300

342
29
174
1
175
1
176
0
178
1
 93
-1056964608
 45
4.0
292
0
297
0
 46
4.0
 94
-1056964608
 47
1.0
 49
1.0
140
1.0
294
1
141
0.0
177
0
142
1.0
295
0
296
0
143
3.75
271
0
272
9
273
9
  0
DICTIONARY
  5
2D
330
A
100
AcDbDictionary
280
1
281
1
  3
CREATED_BY_EZDXF
350
2E
  3
WRITTEN_BY_EZDXF
350
3A
  0
DICTIONARYVAR
  5
2E
330
2D
100
DictionaryVariables
280
0
  1
1.4.4 @ 2026-07-21T16:54:33.460973+00:00
  0
DICTIONARYVAR
  5
3A
330
2D
100
DictionaryVariables
280
0
  1
1.4.4 @ 2026-07-21T16:54:33.463321+00:00
  0
ENDSEC
  0
EOF
