  0
SECTION
  2
HEADER
  9
$ACADVER
  1
AC1027
  9
$ACADMAINTVER
 70
105
  9
$DWGCODEPAGE
  3
ANSI_1252
  9
$LASTSAVEDBY
  1
ezdxf
  9
$REQUIREDVERSIONS
160
0
  9
$INSBASE
 10
0.0
 20
0.0
 30
0.0
  9
$EXTMIN
 10
1e+20
 20
1e+20
 30
1e+20
  9
$EXTMAX
 10
-1e+20
 20
-1e+20
 30
-1e+20
  9
$LIMMIN
 10
0.0
 20
0.0
  9
$LIMMAX
 10
420.0
 20
297.0
  9
$ORTHOMODE
 70
0
  9
$REGENMODE
 70
1
  9
$FILLMODE
 70
1
  9
$QTEXTMODE
 70
0
  9
$MIRRTEXT
 70
1
  9
$LTSCALE
 40
1.0
  9
$ATTMODE
 70
1
  9
$TEXTSIZE
 40
2.5
  9
$TRACEWID
 40
1.0
  9
$TEXTSTYLE
  7
Standard
  9
$CLAYER
  8
0
  9
$CELTYPE
  6
ByLayer
  9
$CECOLOR
 62
256
  9
$CELTSCALE
 40
1.0
  9
$DISPSILH
 70
0
  9
$DIMSCALE
 40
1.0
  9
$DIMASZ
 40
2.5
  9
$DIMEXO
 40
0.625
  9
$DIMDLI
 40
3.75
  9
$DIMRND
 40
0.0
  9
$DIMDLE
 40
0.0
  9
$DIMEXE
 40
1.25
  9
$DIMTP
 40
0.0
  9
$DIMTM
 40
0.0
  9
$DIMTXT
 40
2.5
  9
$DIMCEN
 40
2.5
  9
$DIMTSZ
 40
0.0
  9
$DIMTOL
 70
0
  9
$DIMLIM
 70
0
  9
$DIMTIH
 70
0
  9
$DIMTOH
 70
0
  9
$DIMSE1
 70
0
  9
$DIMSE2
 70
0
  9
$DIMTAD
 70
1
  9
$DIMZIN
 70
8
  9
$DIMBLK
  1

  9
$DIMASO
 70
1
  9
$DIMSHO
 70
1
  9
$DIMPOST
  1

  9
$DIMAPOST
  1

  9
$DIMALT
 70
0
  9
$DIMALTD
 70
3
  9
$DIMALTF
 40
0.03937007874
  9
$DIMLFAC
 40
1.0
  9
$DIMTOFL
 70
1
  9
$DIMTVP
 40
0.0
  9
$DIMTIX
 70
0
  9
$DIMSOXD
 70
0
  9
$DIMSAH
 70
0
  9
$DIMBLK1
  1

  9
$DIMBLK2
  1

  9
$DIMSTYLE
  2
ISO-25
  9
$DIMCLRD
 70
0
  9
$DIMCLRE
 70
0
  9
$DIMCLRT
 70
0
  9
$DIMTFAC
 40
1.0
  9
$DIMGAP
 40
0.625
  9
$DIMJUST
 70
0
  9
$DIMSD1
 70
0
  9
$DIMSD2
 70
0
  9
$DIMTOLJ
 70
0
  9
$DIMTZIN
 70
8
  9
$DIMALTZ
 70
0
  9
$DIMALTTZ
 70
0
  9
$DIMUPT
 70
0
  9
$DIMDEC
 70
2
  9
$DIMTDEC
 70
2
  9
$DIMALTU
 70
2
  9
$DIMALTTD
 70
3
  9
$DIMTXSTY
  7
Standard
  9
$DIMAUNIT
 70
0
  9
$DIMADEC
 70
0
  9
$DIMALTRND
 40
0.0
  9
$DIMAZIN
 70
0
  9
$DIMDSEP
 70
44
  9
$DIMATFIT
 70
3
  9
$DIMFRAC
 70
0
  9
$DIMLDRBLK
  1

  9
$DIMLUNIT
 70
2
  9
$DIMLWD
 70
-2
  9
$DIMLWE
 70
-2
  9
$DIMTMOVE
 70
0
  9
$DIMFXL
 40
1.0
  9
$DIMFXLON
 70
0
  9
$DIMJOGANG
 40
0.785398163397
  9
$DIMTFILL
 70
0
  9
$DIMTFILLCLR
 70
0
  9
$DIMARCSYM
 70
0
  9
$DIMLTYPE
  6

  9
$DIMLTEX1
  6

  9
$DIMLTEX2
  6

  9
$DIMTXTDIRECTION
 70
0
  9
$LUNITS
 70
2
  9
$LUPREC
 70
4
  9
$SKETCHINC
 40
1.0
  9
$FILLETRAD
 40
10.0
  9
$AUNITS
 70
0
  9
$AUPREC
 70
2
  9
$MENU
  1
.
  9
$ELEVATION
 40
0.0
  9
$PELEVATION
 40
0.0
  9
$THICKNESS
 40
0.0
  9
$LIMCHECK
 70
0
  9
$CHAMFERA
 40
0.0
  9
$CHAMFERB
 40
0.0
  9
$CHAMFERC
 40
0.0
  9
$CHAMFERD
 40
0.0
  9
$SKPOLY
 70
0
  9
$TDCREATE
 40
2461257.9240393518
  9
$TDUCREATE
 40
2458532.153996898
  9
$TDUPDATE
 40
2461257.9240393518
  9
$TDUUPDATE
 40
2458532.1544311
  9
$TDINDWG
 40
0.0
  9
$TDUSRTIMER
 40
0.0
  9
$USRTIMER
 70
1
  9
$ANGBASE
 50
0.0
  9
$ANGDIR
 70
0
  9
$PDMODE
 70
0
  9
$PDSIZE
 40
0.0
  9
$PLINEWID
 40
0.0
  9
$SPLFRAME
 70
0
  9
$SPLINETYPE
 70
6
  9
$SPLINESEGS
 70
8
  9
$HANDSEED
  5
5E
  9
$SURFTAB1
 70
6
  9
$SURFTAB2
 70
6
  9
$SURFTYPE
 70
6
  9
$SURFU
 70
6
  9
$SURFV
 70
6
  9
$UCSBASE
  2

  9
$UCSNAME
  2

  9
$UCSORG
 10
0.0
 20
0.0
 30
0.0
  9
$UCSXDIR
 10
1.0
 20
0.0
 30
0.0
  9
$UCSYDIR
 10
0.0
 20
1.0
 30
0.0
  9
$UCSORTHOREF
  2

  9
$UCSORTHOVIEW
 70
0
  9
$UCSORGTOP
 10
0.0
 20
0.0
 30
0.0
  9
$UCSORGBOTTOM
 10
0.0
 20
0.0
 30
0.0
  9
$UCSORGLEFT
 10
0.0
 20
0.0
 30
0.0
  9
$UCSORGRIGHT
 10
0.0
 20
0.0
 30
0.0
  9
$UCSORGFRONT
 10
0.0
 20
0.0
 30
0.0
  9
$UCSORGBACK
 10
0.0
 20
0.0
 30
0.0
  9
$PUCSBASE
  2

  9
$PUCSNAME
  2

  9
$PUCSORG
 10
0.0
 20
0.0
 30
0.0
  9
$PUCSXDIR
 10
1.0
 20
0.0
 30
0.0
  9
$PUCSYDIR
 10
0.0
 20
1.0
 30
0.0
  9
$PUCSORTHOREF
  2

  9
$PUCSORTHOVIEW
 70
0
  9
$PUCSORGTOP
 10
0.0
 20
0.0
 30
0.0
  9
$PUCSORGBOTTOM
 10
0.0
 20
0.0
 30
0.0
  9
$PUCSORGLEFT
 10
0.0
 20
0.0
 30
0.0
  9
$PUCSORGRIGHT
 10
0.0
 20
0.0
 30
0.0
  9
$PUCSORGFRONT
 10
0.0
 20
0.0
 30
0.0
  9
$PUCSORGBACK
 10
0.0
 20
0.0
 30
0.0
  9
$USERI1
 70
0
  9
$USERI2
 70
0
  9
$USERI3
 70
0
  9
$USERI4
 70
0
  9
$USERI5
 70
0
  9
$USERR1
 40
0.0
  9
$USERR2
 40
0.0
  9
$USERR3
 40
0.0
  9
$USERR4
 40
0.0
  9
$USERR5
 40
0.0
  9
$WORLDVIEW
 70
1
  9
$SHADEDGE
 70
3
  9
$SHADEDIF
 70
70
  9
$TILEMODE
 70
1
  9
$MAXACTVP
 70
64
  9
$PINSBASE
 10
0.0
 20
0.0
 30
0.0
  9
$PLIMCHECK
 70
0
  9
$PEXTMIN
 10
1e+20
 20
1e+20
 30
1e+20
  9
$PEXTMAX
 10
-1e+20
 20
-1e+20
 30
-1e+20
  9
$PLIMMIN
 10
0.0
 20
0.0
  9
$PLIMMAX
 10
420.0
 20
297.0
  9
$UNITMODE
 70
0
  9
$VISRETAIN
 70
1
  9
$PLINEGEN
 70
0
  9
$PSLTSCALE
 70
1
  9
$TREEDEPTH
 70
3020
  9
$CMLSTYLE
  2
Standard
  9
$CMLJUST
 70
0
  9
$CMLSCALE
 40
20.0
  9
$PROXYGRAPHICS
 70
1
  9
$MEASUREMENT
 70
1
  9
$CELWEIGHT
370
-1
  9
$ENDCAPS
280
0
  9
$JOINSTYLE
280
0
  9
$LWDISPLAY
290
0
  9
$INSUNITS
 70
4
  9
$HYPERLINKBASE
  1

  9
$STYLESHEET
  1

  9
$XEDIT
290
1
  9
$CEPSNTYPE
380
0
  9
$PSTYLEMODE
290
1
  9
$FINGERPRINTGUID
  2
{8A8506DE-74DA-4011-BC2D-29E4652962AE}
  9
$VERSIONGUID
  2
{5FE9A3AB-8AEC-461B-8903-BADD27FE8E3F}
  9
$EXTNAMES
290
1
  9
$PSVPSCALE
 40
0.0
  9
$OLESTARTUP
290
0
  9
$SORTENTS
280
127
  9
$INDEXCTL
280
0
  9
$HIDETEXT
280
1
  9
$XCLIPFRAME
280
1
  9
$HALOGAP
280
0
  9
$OBSCOLOR
 70
257
  9
$OBSLTYPE
280
0
  9
$INTERSECTIONDISPLAY
280
0
  9
$INTERSECTIONCOLOR
 70
257
  9
$DIMASSOC
280
2
  9
$PROJECTNAME
  1

  9
$CAMERADISPLAY
290
0
  9
$LENSLENGTH
 40
50.0
  9
$CAMERAHEIGHT
 40
0.0
  9
$STEPSPERSEC
 40
24.0
  9
$STEPSIZE
 40
100.0
  9
$3DDWFPREC
 40
2.0
  9
$PSOLWIDTH
 40
0.005
  9
$PSOLHEIGHT
 40
0.08
  9
$LOFTANG1
 40
1.570796326795
  9
$LOFTANG2
 40
1.570796326795
  9
$LOFTMAG1
 40
0.0
  9
$LOFTMAG2
 40
0.0
  9
$LOFTPARAM
 70
7
  9
$LOFTNORMALS
280
1
  9
$LATITUDE
 40
37.795
  9
$LONGITUDE
 40
-122.394
  9
$NORTHDIRECTION
 40
0.0
  9
$TIMEZONE
 70
-8000
  9
$LIGHTGLYPHDISPLAY
280
1
  9
$TILEMODELIGHTSYNCH
280
1
  9
$CMATERIAL
347
20
  9
$SOLIDHIST
280
0
  9
$SHOWHIST
280
1
  9
$DWFFRAME
280
2
  9
$DGNFRAME
280
2
  9
$REALWORLDSCALE
290
1
  9
$INTERFERECOLOR
 62
256
  9
$CSHADOW
280
0
  9
$SHADOWPLANELOCATION
 40
0.0
  0
ENDSEC
  0
SECTION
  2
CLASSES
  0
CLASS
  1
ACDBDICTIONARYWDFLT
  2
AcDbDictionaryWithDefault
  3
ObjectDBX Classes
 90
0
 91
0
280
0
281
0
  0
CLASS
  1
SUN
  2
AcDbSun
  3
SCENEOE
 90
1153
 91
0
280
0
281
0
  0
CLASS
  1
VISUALSTYLE
  2
AcDbVisualStyle
  3
ObjectDBX Classes
 90
4095
 91
0
280
0
281
0
  0
CLASS
  1
MATERIAL
  2
AcDbMaterial
  3
ObjectDBX Classes
 90
1153
 91
0
280
0
281
0
  0
CLASS
  1
SCALE
  2
AcDbScale
  3
ObjectDBX Classes
 90
1153
 91
0
280
0
281
0
  0
CLASS
  1
TABLESTYLE
  2
AcDbTableStyle
  3
ObjectDBX Classes
 90
4095
 91
0
280
0
281
0
  0
CLASS
  1
MLEADERSTYLE
  2
AcDbMLeaderStyle
  3
ACDB_MLEADERSTYLE_CLASS
 90
4095
 91
0
280
0
281
0
  0
CLASS
  1
DICTIONARYVAR
  2
AcDbDictionaryVar
  3
ObjectDBX Classes
 90
0
 91
0
280
0
281
0
  0
CLASS
  1
CELLSTYLEMAP
  2
AcDbCellStyleMap
  3
ObjectDBX Classes
 90
1152
 91
0
280
0
281
0
  0
CLASS
  1
MENTALRAYRENDERSETTINGS
  2
AcDbMentalRayRenderSettings
  3
SCENEOE
 90
1024
 91
0
280
0
281
0
  0
CLASS
  1
ACDBDETAILVIEWSTYLE
  2
AcDbDetailViewStyle
  3
ObjectDBX Classes
 90
1025
 91
0
280
0
281
0
  0
CLASS
  1
ACDBSECTIONVIEWSTYLE
  2
AcDbSectionViewStyle
  3
ObjectDBX Classes
 90
1025
 91
0
280
0
281
0
  0
CLASS
  1
RASTERVARIABLES
  2
AcDbRasterVariables
  3
ISM
 90
0
 91
0
280
0
281
0
  0
CLASS
  1
ACDBPLACEHOLDER
  2
AcDbPlaceHolder
  3
ObjectDBX Classes
 90
0
 91
0
280
0
281
0
  0
CLASS
  1
LAYOUT
  2
AcDbLayout
  3
ObjectDBX Classes
 90
0
 91
0
280
0
281
0
  0
ENDSEC
  0
SECTION
  2
TABLES
  0
TABLE
  2
VPORT
  5
8
330
0
100
AcDbSymbolTable
 70
1
  0
VPORT
  5
23
330
8
100
AcDbSymbolTableRecord
100
AcDbViewportTableRecord
  2
*Active
 70
0
 10
0.0
 20
0.0
 11
1.0
 21
1.0
 12
0.0
 22
0.0
 13
0.0
 23
0.0
 14
0.5
 24
0.5
 15
0.5
 25
0.5
 16
0.0
 26
0.0
 36
1.0
 17
0.0
 27
0.0
 37
0.0
 40
1000.0
 41
1.34
 42
50.0
 43
0.0
 44
0.0
 50
0.0
 51
0.0
 71
0
 72
1000
 73
1
 74
3
 75
0
 76
0
 77
0
 78
0
281
0
 65
0
146
0.0
  0
ENDTAB
  0
TABLE
  2
LTYPE
  5
2
330
0
100
AcDbSymbolTable
 70
3
  0
LTYPE
  5
24
330
2
100
AcDbSymbolTableRecord
100
AcDbLinetypeTableRecord
  2
ByBlock
 70
0
  3

 72
65
 73
0
 40
0.0
  0
LTYPE
  5
25
330
2
100
AcDbSymbolTableRecord
100
AcDbLinetypeTableRecord
  2
ByLayer
 70
0
  3

 72
65
 73
0
 40
0.0
  0
LTYPE
  5
26
330
2
100
AcDbSymbolTableRecord
100
AcDbLinetypeTableRecord
  2
Continuous
 70
0
  3

 72
65
 73
0
 40
0.0
  0
ENDTAB
  0
TABLE
  2
LAYER
  5
1
330
0
100
AcDbSymbolTable
 70
7
  0
LAYER
  5
27
330
1
100
AcDbSymbolTableRecord
100
AcDbLayerTableRecord
  2
0
 70
0
 62
7
  6
Continuous
370
-3
390
13
347
21
  0
LAYER
  5
28
330
1
100
AcDbSymbolTableRecord
100
AcDbLayerTableRecord
  2
Defpoints
 70
0
 62
7
  6
Continuous
290
0
370
-3
390
13
347
21
  0
LAYER
  5
2F
330
1
100
AcDbSymbolTableRecord
100
AcDbLayerTableRecord
  2
ENG_L
 70
0
 62
4
  6
Continuous
370
-3
390
13
347
21
  0
LAYER
  5
30
330
1
100
AcDbSymbolTableRecord
100
AcDbLayerTableRecord
  2
ENG_D
 70
0
 62
3
  6
Continuous
370
-3
390
13
347
21
  0
LAYER
  5
31
330
1
100
AcDbSymbolTableRecord
100
AcDbLayerTableRecord
  2
ENG_K
 70
0
 62
2
  6
Continuous
370
-3
390
13
347
21
  0
LAYER
  5
32
330
1
100
AcDbSymbolTableRecord
100
AcDbLayerTableRecord
  2
CUT_OUTLINE
 70
0
 62
5
  6
Continuous
370
-3
390
13
347
21
  0
LAYER
  5
33
330
1
100
AcDbSymbolTableRecord
100
AcDbLayerTableRecord
  2
CUT_SLOT
 70
0
 62
1
  6
Continuous
370
-3
390
13
347
21
  0
ENDTAB
  0
TABLE
  2
STYLE
  5
5
330
0
100
AcDbSymbolTable
 70
1
  0
STYLE
  5
29
330
5
100
AcDbSymbolTableRecord
100
AcDbTextStyleTableRecord
  2
Standard
 70
0
 40
0.0
 41
1.0
 50
0.0
 71
0
 42
2.5
  3
txt
  4

  0
ENDTAB
  0
TABLE
  2
VIEW
  5
7
330
0
100
AcDbSymbolTable
 70
0
  0
ENDTAB
  0
TABLE
  2
UCS
  5
6
330
0
100
AcDbSymbolTable
 70
0
  0
ENDTAB
  0
TABLE
  2
APPID
  5
3
330
0
100
AcDbSymbolTable
 70
3
  0
APPID
  5
2A
330
3
100
AcDbSymbolTableRecord
100
AcDbRegAppTableRecord
  2
ACAD
 70
0
  0
APPID
  5
5B
330
3
100
AcDbSymbolTableRecord
100
AcDbRegAppTableRecord
  2
HATCHBACKGROUNDCOLOR
 70
0
  0
APPID
  5
5C
330
3
100
AcDbSymbolTableRecord
100
AcDbRegAppTableRecord
  2
EZDXF
 70
0
  0
ENDTAB
  0
TABLE
  2
DIMSTYLE
  5
4
330
0
100
AcDbSymbolTable
 70
1
100
AcDbDimStyleTable
  0
DIMSTYLE
105
2B
330
4
100
AcDbSymbolTableRecord
100
AcDbDimStyleTableRecord
  2
Standard
 70
0
 40
1.0
 41
2.5
 42
0.625
 43
3.75
 44
1.25
 45
0.0
 46
0.0
 47
0.0
 48
0.0
 49
2.5
140
2.5
141
2.5
142
0.0
143
0.03937007874
144
1.0
145
0.0
146
1.0
147
0.625
148
0.0
 69
0
 70
0
 71
0
 72
0
 73
0
 74
0
 75
0
 76
0
 77
1
 78
8
 79
3
170
0
171
3
172
1
173
0
174
0
175
0
176
0
177
0
178
0
179
2
271
2
272
2
273
2
274
3
275
0
276
0
277
2
278
44
279
0
280
0
281
0
282
0
283
0
284
8
285
0
286
0
288
0
289
3
290
0
371
-2
372
-2
  0
ENDTAB
  0
TABLE
  2
BLOCK_RECORD
  5
9
330
0
100
AcDbSymbolTable
 70
2
  0
BLOCK_RECORD
  5
17
330
9
100
AcDbSymbolTableRecord
100
AcDbBlockTableRecord
  2
*Model_Space
340
1A
 70
0
280
1
281
0
  0
BLOCK_RECORD
  5
1B
330
9
100
AcDbSymbolTableRecord
100
AcDbBlockTableRecord
  2
*Paper_Space
340
1E
 70
0
280
1
281
0
  0
ENDTAB
  0
ENDSEC
  0
SECTION
  2
BLOCKS
  0
BLOCK
  5
18
330
17
100
AcDbEntity
  8
0
100
AcDbBlockBegin
  2
*Model_Space
 70
0
 10
0.0
 20
0.0
 30
0.0
  3
*Model_Space
  1

  0
ENDBLK
  5
19
330
17
100
AcDbEntity
  8
0
100
AcDbBlockEnd
  0
BLOCK
  5
1C
330
1B
100
AcDbEntity
  8
0
100
AcDbBlockBegin
  2
*Paper_Space
 70
0
 10
0.0
 20
0.0
 30
0.0
  3
*Paper_Space
  1

  0
ENDBLK
  5
1D
330
1B
100
AcDbEntity
  8
0
100
AcDbBlockEnd
  0
ENDSEC
  0
SECTION
  2
ENTITIES
  0
LWPOLYLINE
  5
34
330
17
100
AcDbEntity
  8
ENG_L
100
AcDbPolyline
 90
22
 70
1
 10
181.86480118221417
 20
137.05758635514442
 10
179.94742673594664
 20
137.87931826068765
 10
179.94742673594664
 20
139.10251010405761
 10
181.91945333031316
 20
142.06054999560746
 10
181.91945333031316
 20
144.84184966584723
 10
180.8952284461227
 20
145.86607455003775
 10
179.91025919803923
 20
145.27509300118768
 10
178.42277402187594
 20
140.21764340223254
 10
177.18170777597933
 20
146.4229746317155
 10
178.85930841866997
 20
146.4229746317155
 10
179.35231506726163
 20
146.91598128030714
 10
185.76140149895286
 20
146.91598128030714
 10
186.2638487026798
 20
147.41842848403408
 10
189.2799099629233
 20
147.1442410967392
 10
189.82506060191352
 20
143.87333726279806
 10
189.24702311071573
 20
143.29529977160038
 10
188.6691989778414
 20
144.45094803734904
 10
186.54479138152755
 20
144.45094803734904
 10
185.87960112975566
 20
142.01191711418548
 10
187.29861298594128
 20
139.17389340181418
 10
189.68456713441103
 20
136.78793925334455
 10
181.86480118221417
 20
137.05758635514442
  0
LWPOLYLINE
  5
35
330
17
100
AcDbEntity
  8
ENG_L
100
AcDbPolyline
 90
9
 70
1
 10
105.99642944720145
 20
85.57433721155705
 10
105.99642944720145
 20
94.819819874564
 10
108.18322746749062
 20
95.75701902611644
 10
108.4523703523033
 20
92.79644729317693
 10
108.95446933875127
 20
92.294348306729
 10
108.95446933875127
 20
88.84330176658762
 10
109.44747598734288
 20
88.35029511799597
 10
109.44747598734288
 20
84.99916278820008
 10
105.99642944720145
 20
85.57433721155705
  0
LWPOLYLINE
  5
36
330
17
100
AcDbEntity
  8
ENG_L
100
AcDbPolyline
 90
8
 70
1
 10
99.5873430155102
 20
87.05335715733197
 10
99.5873430155102
 20
89.82931506377089
 10
100.08034966410183
 20
90.32232171236254
 10
100.08034966410183
 20
93.81083104301081
 10
101.49109214174025
 20
94.65727652959389
 10
102.7840627314206
 20
94.65727652959389
 10
103.0479558987151
 20
86.47658834346439
 10
99.5873430155102
 20
87.05335715733197
  0
LWPOLYLINE
  5
37
330
17
100
AcDbEntity
  8
ENG_D
100
AcDbPolyline
 90
36
 70
1
 10
220.86697856905232
 20
90.11811167217576
 10
220.38395086642578
 20
90.60113937480219
 10
219.89094421783412
 20
95.53120586071873
 10
219.30898456833802
 20
96.11316551021487
 10
220.86261872225415
 20
98.18467771543627
 10
220.37928428582896
 20
107.36803200751477
 10
219.39630878856363
 20
108.3510075047801
 10
218.89974580861266
 20
114.30976326419207
 10
217.95285215638242
 20
116.20355056865262
 10
216.3706400004935
 20
117.78576272454156
 10
220.22892853890568
 20
124.73068209368354
 10
223.9271234806955
 20
124.73068209368354
 10
224.42605895323734
 20
124.23174662114178
 10
228.75508494651848
 20
123.9770980333017
 10
228.75508494651848
 20
117.72648399330743
 10
228.3641833180202
 20
117.33558236480913
 10
229.2480915951101
 20
116.45167408771917
 10
229.2480915951101
 20
113.28942415598264
 10
228.74269090677925
 20
112.78402346765182
 10
228.2841001789899
 20
109.11529764533701
 10
231.33787702241446
 20
107.9407680901736
 10
233.2186159245536
 20
106.59738316007427
 10
232.67971404004592
 20
103.90287373753604
 10
232.19373744692066
 20
103.41689714441083
 10
231.70073079832906
 20
99.47284395567767
 10
231.22011818947666
 20
98.99223134682522
 10
231.22011818947666
 20
97.71742144123708
 10
233.25431472463777
 20
95.68322490607595
 10
229.69144996245973
 20
89.57545674234213
 10
228.2310267792254
 20
88.11503355910789
 10
227.73802013063377
 20
86.63601361333295
 10
226.3617947170912
 20
85.2597881997904
 10
222.74004273282915
 20
86.29457448100808
 10
221.41811112434874
 20
87.08773344609632
 10
220.86697856905232
 20
88.18999855668919
 10
220.86697856905232
 20
90.11811167217576
  0
LWPOLYLINE
  5
38
330
17
100
AcDbEntity
  8
ENG_D
100
AcDbPolyline
 90
17
 70
1
 10
208.54181235426145
 20
71.58806906588045
 10
208.54181235426145
 20
73.5600956602469
 10
209.04587555278133
 20
74.06415885876683
 10
209.30719462755204
 20
76.41603053170331
 10
212.38376052290116
 20
76.41603053170331
 10
212.8767671714928
 20
76.90903718029496
 10
215.87872054192238
 20
76.90903718029496
 10
216.95994805621308
 20
77.44965093744038
 10
220.81900592521026
 20
74.10513411764275
 10
221.35998521764398
 20
73.02317553277537
 10
221.35998521764398
 20
67.6440158771473
 10
221.95509688632893
 20
67.04890420846232
 10
219.50948773857647
 20
64.60329506070983
 10
218.12632362320846
 20
64.32666223763617
 10
208.04880570566982
 20
68.86154530052868
 10
208.04880570566982
 20
71.09506241728891
 10
208.54181235426145
 20
71.58806906588045
  0
LWPOLYLINE
  5
39
330
17
100
AcDbEntity
  8
ENG_D
100
AcDbPolyline
 90
41
 70
1
 10
141.84989424045176
 20
261.2596082197207
 10
142.97192809157406
 20
262.38164207084316
 10
142.97192809157406
 20
263.3676553680262
 10
144.8418496658471
 20
265.2375769422994
 10
145.8387804685996
 20
265.2375769422994
 10
149.257254397574
 20
268.16769745284887
 10
150.72687793024508
 20
268.6575719637392
 10
152.18809272333507
 20
270.1187867568293
 10
155.72463843840293
 20
272.1396700225822
 10
156.8782192722333
 20
272.1396700225822
 10
157.73107603062158
 20
271.2868132641941
 10
158.23258834957065
 20
269.78227630734676
 10
160.89057803671633
 20
265.67447406357616
 10
161.76437227927
 20
265.2375769422994
 10
164.22940552222772
 20
265.2375769422994
 10
166.09456774238967
 20
264.30499583221854
 10
167.67300184909138
 20
265.88342993892036
 10
169.96529485885708
 20
269.7039182885297
 10
180.0689558512458
 20
267.68318609005195
 10
180.98687222023224
 20
266.76526972106564
 10
180.44043338453827
 20
265.67239204967774
 10
180.44043338453827
 20
262.670438679248
 10
179.92800264074097
 20
262.15800793545066
 10
179.16349782605417
 20
258.33548386201664
 10
173.43623528416197
 20
258.33548386201664
 10
172.94322863557034
 20
258.82849051060816
 10
170.97120204120372
 20
258.82849051060816
 10
167.02714885247065
 20
262.7725436993413
 10
166.75949888612055
 20
262.7725436993413
 10
160.8297961887605
 20
254.86627343619483
 10
157.18767702928534
 20
255.38657617326254
 10
153.75261184403638
 20
257.3494705648334
 10
152.2369493947216
 20
257.3494705648334
 10
150.7579294489467
 20
258.82849051060816
 10
149.95618894662215
 20
258.82849051060816
 10
146.03804667229448
 20
255.88988380486265
 10
144.0839661002305
 20
255.4013636618464
 10
142.63596610082956
 20
253.95336366244558
 10
140.9215345471264
 20
252.8104092933101
 10
136.93783812259556
 20
259.449903334195
 10
141.84989424045176
 20
261.2596082197207
  0
LWPOLYLINE
  5
3A
330
17
100
AcDbEntity
  8
ENG_D
100
AcDbPolyline
 90
218
 70
1
 10
110.92649593311779
 20
99.68944803560353
 10
110.92649593311779
 20
105.11252117011149
 10
111.41950258170944
 20
105.60552781870314
 10
111.41950258170944
 20
106.38733107569975
 10
109.83837761584115
 20
107.96845604156802
 10
108.82761431681965
 20
107.96845604156802
 10
107.41454458904485
 20
109.94675366045281
 10
109.27652214594933
 20
112.34072480504432
 10
113.88453582466761
 20
115.49357626943046
 10
113.88453582466761
 20
117.72648399330731
 10
113.39152917607596
 20
118.21949064189884
 10
113.39152917607596
 20
124.37724325569222
 10
117.26730489667257
 20
126.70270868805011
 10
119.2055039390822
 20
126.70270868805011
 10
119.78834661974606
 20
127.2855513687139
 10
118.82628959778205
 20
135.4630360554081
 10
118.3215956619923
 20
135.96772999119787
 10
118.3215956619923
 20
138.47099282688714
 10
117.19053898325409
 20
140.5068948486159
 10
116.43173684239113
 20
140.5068948486159
 10
114.45971024802459
 20
139.02787490284106
 10
113.45980664421245
 20
139.02787490284106
 10
110.99477340125426
 20
137.54885495706614
 10
109.3225632997212
 20
137.54885495706614
 10
106.50853511688427
 20
141.38616611548017
 10
106.02034913858114
 20
143.3389100286927
 10
104.89921879206851
 20
144.46004037520532
 10
102.05237625846837
 20
144.7188442418962
 10
102.05237625846837
 20
146.35469716357906
 10
101.80587293417257
 20
146.7655360374055
 10
101.80587293417257
 20
143.93825137047045
 10
97.97039726081836
 20
144.23328796072855
 10
98.60132971832692
 20
145.49515287574576
 10
98.60132971832692
 20
151.25093609753847
 10
96.64444023621392
 20
153.2078255796515
 10
95.65203219089146
 20
159.65847787424758
 10
94.65727652959386
 20
161.64798919684276
 10
94.65727652959386
 20
162.59008901514616
 10
93.7151767112905
 20
163.53218883344957
 10
91.69923663804404
 20
167.56406897994236
 10
91.69923663804404
 20
168.85477714263487
 10
100.06336893128505
 20
168.85477714263487
 10
99.58232223556035
 20
176.07047757850557
 10
101.48867352135272
 20
178.9300045071941
 10
101.08046072265478
 20
179.33821730589204
 10
100.58745407406315
 20
182.78926384603355
 10
100.08034966410183
 20
183.29636825599482
 10
100.08034966410183
 20
184.79291602086155
 10
98.45257335392819
 20
186.88577127679906
 10
97.61531642114366
 20
187.16485692106045
 10
97.61531642114366
 20
188.22643474191113
 10
97.13228871851712
 20
188.70946244453768
 10
96.6149764902804
 20
193.88258472690455
 10
98.02611646312067
 20
194.7292687106088
 10
101.93787719863585
 20
195.21823880254817
 10
102.70978474137877
 20
195.9901463452912
 10
103.2472091990391
 20
192.76559959932916
 10
105.76815969297192
 20
192.76559959932916
 10
106.00414928942305
 20
195.83346435319393
 10
106.98244274438471
 20
196.81175780815562
 10
106.98244274438471
 20
197.75385762645902
 10
108.00442039189574
 20
199.797812921481
 10
109.40536819254929
 20
201.66574332235243
 10
108.95446933875125
 20
202.56754102994844
 10
108.95446933875125
 20
204.68894668005254
 10
111.91250923030107
 20
208.13999322019404
 10
111.91250923030107
 20
208.9766274616397
 10
108.50537616903952
 20
215.7908935841628
 10
105.9155832686722
 20
218.38068648453012
 10
110.94630898666209
 20
224.92062991791695
 10
111.38849808825132
 20
226.6893863242738
 10
108.95446933875125
 20
228.63660932387387
 10
108.95446933875125
 20
229.14598657501674
 10
106.5204876144946
 20
231.57996829927342
 10
105.95150640749556
 20
233.2869119202705
 10
107.85981254621713
 20
234.64998773364297
 10
111.314783986659
 20
235.63712243091217
 10
112.82388732626767
 20
236.64319132398458
 10
113.81275388723535
 20
236.64319132398458
 10
116.3584184506112
 20
238.26315968249668
 10
116.84928266994153
 20
245.62612297245167
 10
117.19516460740716
 20
245.97200490991722
 10
115.85656241903413
 20
246.86440636883256
 10
115.85656241903413
 20
248.10499701551825
 10
126.12700105597432
 20
255.87045061905832
 10
128.36332893251299
 20
255.87045061905832
 10
130.6251248035627
 20
248.58244170123123
 10
131.6308691627275
 20
247.0738251624842
 10
131.8725473244104
 20
237.64837685685092
 10
134.596066409085
 20
237.8578783249028
 10
134.84212664770567
 20
248.43846858559093
 10
137.9234158293147
 20
248.9520167825261
 10
138.4327632341559
 20
249.46136418736708
 10
140.60899986870936
 20
249.46136418736708
 10
143.02536027867637
 20
247.04500377740013
 10
142.4789214429824
 20
245.95212610601226
 10
142.4789214429824
 20
241.9641594383992
 10
141.9859147943908
 20
241.4711527898077
 10
141.9859147943908
 20
239.48785572818565
 10
138.59491671424615
 20
236.58128594520457
 10
139.96997472114435
 20
233.8311699314084
 10
140.96006673513213
 20
232.84107791742036
 10
143.05214059222922
 20
228.13391173895204
 10
137.6895912128279
 20
225.83567629063728
 10
136.66494667997625
 20
224.81103175778537
 10
137.05584830847445
 20
224.4201301292872
 10
137.05584830847445
 20
221.46209023773733
 10
137.54885495706606
 20
220.9690835891458
 10
137.54885495706606
 20
218.5040503461876
 10
138.02776384428802
 20
218.02514145896566
 10
138.25632494739813
 20
216.42521373719492
 10
149.3810145232653
 20
216.1779984132869
 10
149.3810145232653
 20
209.44882995045887
 10
146.99143991409014
 20
206.10342549761373
 10
147.40898792889877
 20
205.68587748280498
 10
147.40898792889877
 20
204.1629440581503
 10
148.39500122608203
 20
202.1909174637837
 10
148.39500122608203
 20
200.71189751800878
 10
149.87402117185695
 20
197.75385762645902
 10
149.87402117185695
 20
196.60754776796895
 10
148.37108153470234
 20
195.1046081308143
 10
147.3912722267938
 20
191.18537089918019
 10
146.40376357860305
 20
189.70410792689407
 10
145.62523954842186
 20
186.84951981622964
 10
141.8838097742974
 20
186.84951981622964
 10
141.3797465757776
 20
187.35358301474946
 10
139.0538968540771
 20
187.61201076160506
 10
138.54726229398855
 20
191.66508724231323
 10
138.04186160565772
 20
192.1704879306443
 10
138.04186160565772
 20
194.14251452501074
 10
137.54885495706606
 20
194.6355211736024
 10
137.54885495706606
 20
196.64137531992577
 10
136.91628049787417
 20
197.6956660852456
 10
134.199913437018
 20
197.6956660852456
 10
133.70690678842638
 20
197.20265943665393
 10
128.31365320940145
 20
197.20265943665393
 10
127.32763991221816
 20
195.723639490879
 10
126.31180705955191
 20
195.723639490879
 10
125.82715057624647
 20
195.2389830075737
 10
119.91107079314676
 20
194.74597635898195
 10
118.77818043230856
 20
193.61308599814376
 10
117.79739181775945
 20
191.16111446177098
 10
115.89710258825241
 20
188.7857529248872
 10
118.32159566199232
 20
183.45186816265934
 10
118.32159566199232
 20
182.5145649989982
 10
119.28368926779589
 20
181.55247139319465
 10
119.78289990566225
 20
179.55562884172915
 10
120.78662890495049
 20
178.05003534279672
 10
120.78662890495049
 20
176.35681238520507
 10
118.32159566199232
 20
174.87779243943012
 10
118.32159566199232
 20
174.13345197294038
 10
118.81460231058395
 20
173.64044532434875
 10
118.81460231058395
 20
166.24534559547433
 10
119.31208651158829
 20
165.74786139447008
 10
118.81907986299665
 20
154.40870847686227
 10
119.80061560776721
 20
153.42717273209172
 10
120.19151723626547
 20
153.81807436059003
 10
122.65655047922364
 20
153.81807436059003
 10
123.14515945589338
 20
154.30668333725973
 10
128.67473528241663
 20
154.54709967754332
 10
128.67473528241663
 20
155.19498928627164
 10
128.181728633825
 20
155.68799593486327
 10
128.181728633825
 20
161.60407571796287
 10
127.68075256141002
 20
162.10505179037781
 10
127.9534588795955
 20
165.65023392678924
 10
136.72156842157656
 20
165.65023392678924
 10
138.0290566386483
 20
162.77375984923137
 10
139.00395521146126
 20
158.8741655579795
 10
139.5208815514326
 20
158.35723921800826
 10
139.5208815514326
 20
157.21092935951808
 10
138.4533669326242
 20
155.0759001219012
 10
134.21716803911897
 20
154.32833561128257
 10
133.7146266306481
 20
153.82579420281172
 10
130.6467618767832
 20
153.5898046063605
 10
130.6467618767832
 20
144.79160725318596
 10
129.66074857959993
 20
144.29860060459444
 10
129.66074857959993
 20
138.92576988274763
 10
126.70270868805011
 20
135.96772999119787
 10
126.70270868805011
 20
130.05165020809827
 10
126.20970203945848
 20
129.55864355950663
 10
126.20970203945848
 20
127.29782035673509
 10
126.70270868805011
 20
126.80481370814346
 10
127.09968525304747
 20
127.20179027314083
 10
131.625832641262
 20
126.93554630912817
 10
131.87134368219304
 20
118.83368195840393
 10
134.59725060947014
 20
119.04336710665598
 10
134.8442607488581
 20
127.6887219852334
 10
137.1579533285678
 20
127.6887219852334
 10
138.1439666257511
 20
126.70270868805011
 10
139.12997992293435
 20
126.70270868805011
 10
140.01388820002424
 20
125.81880041096016
 10
140.01388820002424
 20
121.38174057363548
 10
140.5068948486159
 20
120.88873392504385
 10
140.5068948486159
 20
117.23347734471578
 10
139.62298657152598
 20
116.34956906762584
 10
137.65095997715946
 20
116.34956906762584
 10
137.1579533285678
 20
115.85656241903419
 10
128.2838336539184
 20
115.85656241903419
 10
126.8048137081435
 20
114.37754247325938
 10
121.38174057363551
 20
114.37754247325938
 10
120.23868261860555
 20
113.23448451822938
 10
117.26683511557734
 20
108.7767132636871
 10
115.8012626432619
 20
107.7996649488101
 10
115.43961705960159
 20
107.07637378148948
 10
120.44466777554229
 20
104.07334335192509
 10
119.80061560776723
 20
103.42929118415
 10
119.80061560776723
 20
101.51189740719657
 10
118.81460231058395
 20
99.04686416423836
 10
118.81460231058395
 20
97.5132114010504
 10
118.32159566199232
 20
97.02020475245877
 10
118.32159566199232
 20
95.54118480668383
 10
117.82858901340069
 20
95.04817815809218
 10
117.82858901340069
 20
93.07615156372562
 10
116.86087019527734
 20
92.10843274560231
 10
114.23650008874128
 20
94.20792883083129
 10
110.43348928452616
 20
96.48973531336024
 10
110.43348928452616
 20
99.19644138701189
 10
110.92649593311779
 20
99.68944803560353
  0
LWPOLYLINE
  5
3B
330
17
100
AcDbEntity
  8
ENG_D
100
AcDbPolyline
 90
12
 70
1
 10
142.08801981448417
 20
99.09433636691855
 10
144.1089030802368
 20
97.07345310116588
 10
147.55994962037823
 20
95.10142650679931
 10
149.3810145232653
 20
93.28036160391228
 10
149.3810145232653
 20
91.6146594370425
 10
147.52954871285462
 20
89.23420339508593
 10
145.99824545126035
 20
89.23420339508593
 10
141.00464391943112
 20
86.23804247598844
 10
138.54238059426626
 20
87.60596654552444
 10
138.03643223247983
 20
97.2189854194675
 10
139.91178317993086
 20
99.09433636691855
 10
142.08801981448417
 20
99.09433636691855
  0
LWPOLYLINE
  5
3C
330
17
100
AcDbEntity
  8
ENG_K
100
AcDbPolyline
 90
95
 70
1
 10
219.4132580985223
 20
45.4725120788555
 10
220.86697856905232
 20
47.41080603956216
 10
220.86697856905232
 20
49.19855983907018
 10
220.3739719204607
 20
49.69156648766182
 10
220.3739719204607
 20
53.61447303434031
 10
216.4299187317276
 20
56.57251292589016
 10
216.4299187317276
 20
57.783882905314556
 10
216.92292538031924
 20
58.276889553906194
 10
216.92292538031924
 20
59.755909499681124
 10
217.41593202891087
 20
60.24891614827277
 10
217.41593202891087
 20
61.68402261516781
 10
218.40194532609414
 20
63.65604920953438
 10
218.40194532609414
 20
64.70068374577087
 10
221.29968882760411
 20
67.0715647924609
 10
225.40524716075134
 20
66.04517520917408
 10
226.8792192227742
 20
65.06252716782545
 10
229.36962071040918
 20
64.5644468702985
 10
229.84320326379515
 20
64.09086431691247
 10
230.94090274054935
 20
64.09086431691247
 10
231.20602042810697
 20
62.235040504008964
 10
231.7131248380683
 20
61.7279360940477
 10
231.7131248380683
 20
58.276889553906194
 10
232.20613148665993
 20
57.783882905314556
 10
232.20613148665993
 20
56.79786960813138
 10
233.30834756530624
 20
55.69565352948502
 10
236.75939410544768
 20
55.20264688089338
 10
237.23830299266965
 20
54.723737993671364
 10
239.80331560282528
 20
54.723737993671364
 10
240.0810772154664
 20
53.334929930465734
 10
241.57325780990098
 20
50.84796227307476
 10
241.57325780990098
 20
49.89577652784849
 10
242.2182074782194
 20
49.25082685952997
 10
249.5225090266438
 20
44.96899491735018
 10
248.47014787756655
 20
42.338092044656996
 10
247.971287691664
 20
37.848350371534224
 10
247.5532310260868
 20
37.43029370595708
 10
248.1293189465619
 20
36.47014717183183
 10
253.5166147340499
 20
35.98039300933298
 10
254.00052904478525
 20
35.49647869859762
 10
255.97255563915178
 20
35.49647869859762
 10
256.4655622877434
 20
35.00347205000598
 10
258.93059553070157
 20
35.00347205000598
 10
259.4236021792932
 20
34.510465401414336
 10
262.9686402047688
 20
34.510465401414336
 10
263.73634762325656
 20
31.183733254634305
 10
264.2515636451162
 20
30.66851723277464
 10
264.2515636451162
 20
29.478293895404796
 10
263.2655503479329
 20
28.49228059822151
 10
263.2655503479329
 20
27.52037966176013
 10
260.9173298852415
 20
24.650332429581812
 10
258.38125402132926
 20
24.650332429581812
 10
251.97216758963802
 20
22.185299186623595
 10
251.31491515908905
 20
22.185299186623595
 10
249.29655180671494
 20
24.70825337709126
 10
248.0580593786101
 20
25.451348833954167
 10
246.89184495334004
 20
27.084049029332146
 10
238.77302541136822
 20
25.173738548868172
 10
237.29146930653954
 20
22.70447837415379
 10
234.79269384491715
 20
22.20472328182921
 10
234.28026310111986
 20
21.692292538031953
 10
233.09003976374981
 20
21.692292538031953
 10
230.58109304191186
 20
24.201239259869944
 10
228.69689340530485
 20
25.143339078173454
 10
223.22990679191713
 20
25.143339078173454
 10
222.73690014332547
 20
25.636345726765096
 10
221.46209023773736
 20
25.636345726765096
 10
220.49550103575973
 20
24.669756524787424
 10
219.4028091075593
 20
24.4512181391473
 10
219.87378738490128
 20
17.85752225635995
 10
220.38892485445677
 20
17.342384786804388
 10
220.09448024845824
 20
15.281272544814595
 10
192.2725929507375
 20
15.531920178127434
 10
192.2725929507375
 20
35.22410307389878
 10
194.62446462367413
 20
35.48542214866946
 10
195.12852782219392
 20
35.989485347189266
 10
197.07073486107743
 20
35.989485347189266
 10
198.05674815826072
 20
37.468505292964196
 10
201.24881764548033
 20
37.468505292964196
 10
201.741824294072
 20
36.97549864437255
 10
204.20685753703015
 20
36.97549864437255
 10
204.69986418562178
 20
36.482491995780904
 10
207.65790407717157
 20
36.482491995780904
 10
208.15091072576323
 20
35.989485347189266
 10
208.8141879789604
 20
35.989485347189266
 10
209.02324323877698
 20
37.870982685538564
 10
208.54181235426145
 20
38.352413570054146
 10
208.54181235426145
 20
40.324440164420714
 10
208.06290346703952
 20
40.80334905164273
 10
207.5408461230821
 20
44.457750459344304
 10
209.9614636293069
 20
46.87836796556921
 10
214.998370988633
 20
44.86360502183872
 10
216.01154728435282
 20
44.86360502183872
 10
217.4743048207585
 20
43.88843333090164
 10
218.9557782006266
 20
44.100072385168446
 10
219.4132580985223
 20
45.4725120788555
  0
LWPOLYLINE
  5
3D
330
17
100
AcDbEntity
  8
ENG_K
100
AcDbPolyline
 90
35
 70
1
 10
229.17981412697364
 20
107.96845604156802
 10
227.7397901404297
 20
108.83247043349442
 10
229.0460072078193
 20
115.36355577044245
 10
233.29424980393668
 20
115.36355577044245
 10
233.79318527647843
 20
114.86462029790079
 10
242.23282417005095
 20
114.36817095121987
 10
243.04605717380232
 20
112.47062727580015
 10
243.53978074764916
 20
108.52083868502527
 10
245.02430435004243
 20
104.56210907864316
 10
245.02430435004243
 20
100.63154785390694
 10
246.00218302935806
 20
98.67579049527563
 10
246.4951896779497
 20
95.22474395513424
 10
247.48933759300058
 20
93.2364481250324
 10
247.48933759300058
 20
91.74500679735664
 10
249.946252570984
 20
85.35702785459986
 10
250.95951216560042
 20
79.78410008420977
 10
247.58696506068128
 20
76.4115529792907
 10
241.72863080136608
 20
76.66626316447844
 10
239.1082245669428
 20
78.76258815201697
 10
239.1082245669428
 20
85.18804518625944
 10
238.62627446827938
 20
85.6699952849228
 10
238.41112796720586
 20
87.60631379458461
 10
229.80497367106403
 20
82.82511696339468
 10
229.14598657501674
 20
82.82511696339468
 10
226.21330900412835
 20
85.75779453428301
 10
230.2724189245177
 20
91.3390706748185
 10
232.63985940401741
 20
95.60046353791796
 10
230.727111540885
 20
97.5132114010504
 10
230.727111540885
 20
99.19644138701189
 10
231.2325122292159
 20
99.70184207534271
 10
231.7255188778075
 20
103.64589526407586
 10
232.22555558186556
 20
104.14593196813394
 10
232.67079971765176
 20
106.3721526470649
 10
230.1623229548611
 20
107.96845604156802
 10
229.17981412697364
 20
107.96845604156802
  0
LWPOLYLINE
  5
3E
330
17
100
AcDbEntity
  8
ENG_K
100
AcDbPolyline
 90
136
 70
1
 10
197.20265943665385
 20
127.58661696514007
 10
197.20265943665385
 20
130.5446568566898
 10
196.70965278806221
 20
131.03766350528133
 10
196.70965278806221
 20
132.57131626846953
 10
195.68090314151507
 20
135.14319038483734
 10
196.60754776796884
 20
136.0698350112911
 10
198.08656771374376
 20
136.0698350112911
 10
198.58564929883448
 20
136.56891659638183
 10
206.95307006364396
 20
136.0767153749225
 10
209.35875161110116
 20
138.96353323187117
 10
211.00684559721964
 20
140.1407432219557
 10
211.00684559721964
 20
141.5719038467851
 10
212.3282965579497
 20
143.42193519180714
 10
218.75763766660447
 20
145.89475869513592
 10
219.88096527186903
 20
147.01808630040048
 10
219.88096527186903
 20
147.79988955739708
 10
219.38795862327743
 20
148.29289620598874
 10
219.38795862327743
 20
150.2649228003553
 10
218.89495197468577
 20
150.75792944894695
 10
218.89495197468577
 20
152.72995604331342
 10
217.3138270088175
 20
154.31108100918166
 10
212.87676717149276
 20
154.31108100918166
 10
212.38376052290113
 20
154.80408765777344
 10
210.12293732012978
 20
154.80408765777344
 10
208.52238825905584
 20
153.20353859669945
 10
208.03401386790085
 20
150.7616666409246
 10
205.7129286057292
 20
147.40898792889888
 10
202.54356479639648
 20
147.40898792889888
 10
200.56432258185345
 20
148.89341958980606
 10
193.1497942741033
 20
149.3877214769894
 10
192.2725929507375
 20
150.2649228003553
 10
192.2725929507375
 20
153.92017938068335
 10
198.13999990084608
 20
159.78758633079192
 10
200.20673524950269
 20
158.75421865646365
 10
207.08061818326962
 20
159.46530999443954
 10
207.56059289100506
 20
165.22500648726478
 10
208.0143141576653
 20
166.13244902058523
 10
206.5697857598949
 20
168.53999635020256
 10
206.5697857598949
 20
170.14548530532747
 10
207.5557990570782
 20
172.11751189969405
 10
207.5557990570782
 20
174.62645862153204
 10
208.04880570566982
 20
175.11946527012367
 10
208.04880570566982
 20
176.10547856730696
 10
209.54021969118398
 20
177.59689255282106
 10
210.02633595665472
 20
181.4858226765872
 10
211.49985224581124
 20
185.41519944767126
 10
211.49985224581124
 20
186.25440814754458
 10
209.91872727994297
 20
187.83553311341294
 10
208.09627790835012
 20
187.83553311341294
 10
205.63124466539193
 20
186.84951981622964
 10
203.18701668788998
 20
186.84951981622964
 10
202.1327259225702
 20
186.2169453570377
 10
202.1327259225702
 20
179.76975719218592
 10
201.2798691641817
 20
179.48547160605654
 10
198.2696921440365
 20
176.47529458591126
 10
193.13707713262173
 20
177.50181758819417
 10
192.2725929507375
 20
178.3663017700785
 10
192.2725929507375
 20
187.55631766448545
 10
199.19728232219745
 20
188.54555900326554
 10
200.44774982475033
 20
199.7997665262413
 10
202.68392411237545
 20
198.68167938242877
 10
203.68002333648158
 20
198.68167938242877
 10
206.14505657943977
 20
197.20265943665382
 10
207.16489742857993
 20
197.20265943665382
 10
208.18733260403863
 20
196.1802242611951
 10
210.56131115130827
 20
195.23063284228726
 10
211.90361238181956
 20
195.23063284228726
 10
214.8616522733694
 20
197.69566608524548
 10
216.03901710322936
 20
197.69566608524548
 10
216.92292538031927
 20
196.81175780815562
 10
216.92292538031927
 20
195.79827469209565
 10
217.85804482246948
 20
194.3955955288703
 10
221.8529918662356
 20
189.90128010463349
 10
221.8529918662356
 20
189.4166580792811
 10
222.95216673344044
 20
188.3174832120763
 10
225.286343075559
 20
188.05813028517414
 10
225.78869488968246
 20
182.0299085156928
 10
226.29005170356032
 20
181.52855170181493
 10
226.29005170356032
 20
178.57051181026517
 10
226.78305835215195
 20
178.07750516167343
 10
226.78305835215195
 20
176.5984852158986
 10
227.27606500074356
 20
176.10547856730696
 10
227.27606500074356
 20
174.58254514265215
 10
228.26207829792685
 20
172.61051854828557
 10
228.26207829792685
 20
171.66841872998228
 10
228.74098718514878
 20
171.18950984276037
 10
229.23399383374044
 20
167.73846330261875
 10
229.74109824370177
 20
167.2313588926575
 10
229.74109824370177
 20
165.20782398406664
 10
231.21302999219228
 20
161.7733165709222
 10
231.69902707669863
 20
158.37133697937787
 10
232.20613148665993
 20
157.8642325694164
 10
232.20613148665993
 20
155.83480053217323
 10
233.68515143243482
 20
151.8907473434402
 10
233.68515143243482
 20
149.9214933745372
 10
235.65717802680138
 20
144.99142688862077
 10
235.65717802680138
 20
142.03338699707103
 10
236.64319132398464
 20
139.56835375411282
 10
236.64319132398464
 20
138.14396662575112
 10
237.13619797257627
 20
137.65095997715937
 10
237.13619797257627
 20
136.12802655250468
 10
238.11507046987708
 20
134.170281557903
 10
238.60282387861193
 20
130.26825428802414
 10
239.1082245669428
 20
129.7628535996933
 10
239.1082245669428
 20
127.29782035673509
 10
239.91315805987801
 20
126.4928868637999
 10
235.7659900006188
 20
126.21640899318265
 10
235.26627639830312
 20
125.71669539086695
 10
231.30658688670852
 20
125.71669539086695
 10
228.8351349770296
 20
123.73953386312375
 10
220.47000200405495
 20
124.23160050859295
 10
219.83705179298917
 20
123.59865029752714
 10
216.97635756742153
 20
117.8772618463918
 10
218.35803184721428
 20
116.49558756659906
 10
219.38316478935056
 20
114.44532168232647
 10
219.87261510658286
 20
108.57191787553921
 10
220.86166620368405
 20
107.58286677843797
 10
221.36541459082184
 20
98.01164742281986
 10
219.4900636433708
 20
96.13629647536881
 10
211.60195726590467
 20
96.13629647536881
 10
208.13728224246395
 20
92.6716214519282
 10
202.1327259225702
 20
93.45482445017505
 10
202.1327259225702
 20
98.49922469823358
 10
201.63971927397856
 20
98.99223134682522
 10
201.63971927397856
 20
101.45726458978343
 10
201.14671262538695
 20
101.95027123837508
 10
201.14671262538695
 20
103.92229783274153
 10
200.6537059767953
 20
104.41530448133307
 10
200.6537059767953
 20
106.43124455457964
 10
199.67442209116675
 20
108.38981232583677
 10
198.69336666962684
 20
116.72878340892612
 10
198.18867273383714
 20
117.23347734471578
 10
198.18867273383714
 20
123.64256377640703
 10
197.6956660852455
 20
124.13557042499868
 10
197.6956660852455
 20
127.09361031654842
 10
197.20265943665385
 20
127.58661696514007
  0
LWPOLYLINE
  5
3F
330
17
100
AcDbEntity
  8
ENG_K
100
AcDbPolyline
 90
16
 70
1
 10
198.24302043766082
 20
261.39072250186547
 10
205.05552896765943
 20
252.0550626644602
 10
208.03302735115273
 20
246.10006589747346
 10
209.019040648336
 20
242.64901935733207
 10
211.12515283744887
 20
238.4367949791062
 10
209.49323416179826
 20
238.11041124397624
 10
207.4833259161002
 20
239.11536536682522
 10
203.49724680851241
 20
239.61362525527363
 10
203.03771980955398
 20
240.0731522542321
 10
200.77523509209445
 20
239.62065531074006
 10
200.15588736736734
 20
239.00130758601313
 10
199.65623375004398
 20
228.50858162222275
 10
192.2725929507375
 20
228.50858162222275
 10
192.2725929507375
 20
255.19977442670628
 10
190.50655435440385
 20
255.78845395881754
 10
198.24302043766082
 20
261.39072250186547
  0
LWPOLYLINE
  5
40
330
17
100
AcDbEntity
  8
ENG_K
100
AcDbPolyline
 90
14
 70
1
 10
197.18960924087472
 20
84.88619838207534
 10
198.20809682904277
 20
85.90468597024336
 10
198.4980806684691
 20
87.35460516737537
 10
203.65921807102538
 20
85.29015020635278
 10
204.67239436674524
 20
85.29015020635278
 10
206.15141431252013
 20
84.30413690916949
 10
207.16489742857993
 20
84.30413690916949
 10
208.04880570566982
 20
83.42022863207966
 10
208.04880570566982
 20
78.28595210597655
 10
207.16196337919706
 20
77.39910977950382
 10
198.18867273383714
 20
77.65548951222834
 10
198.18867273383714
 20
80.25797870034313
 10
197.70806012498474
 20
80.73859130919558
 10
197.18960924087472
 20
84.88619838207534
  0
LWPOLYLINE
  5
41
330
17
100
AcDbEntity
  8
ENG_K
100
AcDbPolyline
 90
106
 70
1
 10
148.88800787467366
 20
209.6068213524307
 10
148.88800787467366
 20
215.69582575298517
 10
137.8273982639173
 20
215.94161707766867
 10
137.56295271843575
 20
217.79273589603955
 10
137.05584830847442
 20
218.2998403060007
 10
137.05584830847442
 20
220.76487354895912
 10
136.5628416598828
 20
221.25788019755066
 10
136.5628416598828
 20
224.2159200891005
 10
135.96772999119773
 20
224.81103175778537
 10
137.40811870130423
 20
226.25142046789205
 10
142.39870894232723
 20
228.39024485690197
 10
140.54672961069122
 20
232.55719835308298
 10
139.5647950303125
 20
233.5391329334615
 10
137.9818131456609
 20
236.70509670276462
 10
141.49290814579916
 20
239.71460670288326
 10
141.49290814579916
 20
241.67536282999436
 10
141.98591479439077
 20
242.16836947858587
 10
141.98591479439077
 20
246.06850918843915
 10
142.42548925588008
 20
246.94765811141784
 10
140.40478982852235
 20
248.96835753877556
 10
138.6369732743428
 20
248.96835753877556
 10
138.16030738200072
 20
248.49169164643348
 10
134.8754768502229
 20
247.94421989113724
 10
134.37945058447258
 20
251.41640375138928
 10
131.6197145515782
 20
251.20411636424356
 10
131.31698680726402
 20
246.05774471090203
 10
127.62081486361885
 20
256.00897686686983
 10
137.15649264293322
 20
259.87479218280794
 10
141.0607001377604
 20
253.53045500371385
 10
143.84345177619002
 20
255.84941470240508
 10
145.82188929395323
 20
256.344024081846
 10
149.79185339709173
 20
259.32149715919974
 10
150.9621394891337
 20
259.32149715919974
 10
152.4411594349086
 20
257.8424772134249
 10
153.88353687714363
 20
257.8424772134249
 10
157.35056477217753
 20
255.86131841626258
 10
160.61053869298527
 20
255.39560785614722
 10
166.5129955618245
 20
263.26555034793284
 10
167.23135889265765
 20
263.26555034793284
 10
171.17541208139073
 20
259.32149715919974
 10
173.1474386757572
 20
259.32149715919974
 10
173.64044532434886
 20
258.82849051060816
 10
178.75932905147258
 20
258.82849051060816
 10
179.4738441825607
 20
262.40106616604896
 10
179.94742673594664
 20
262.8746487194347
 10
179.94742673594664
 20
265.8326886109845
 10
180.44043338453827
 20
266.32569525957604
 10
180.44043338453827
 20
267.31170855675936
 10
183.32532174304455
 20
270.1965969152658
 10
188.94956159342223
 20
268.66271331970813
 10
190.7935730049626
 20
266.8187019081678
 10
190.7935730049626
 20
265.16929947416304
 10
189.31455305918772
 20
262.7042662312049
 10
189.31455305918772
 20
260.2551988888839
 10
187.4010475413702
 20
255.9498114737946
 10
189.31455305918772
 20
254.5146823354314
 10
189.31455305918772
 20
247.26870656910816
 10
186.75899056021203
 20
246.98475518033302
 10
186.25440814754435
 20
247.48933759300073
 10
183.78937490458625
 20
247.48933759300073
 10
183.28801809070848
 20
247.9906944068784
 10
177.57585557292512
 20
248.46670795002711
 10
175.51036689862192
 20
246.4012192757239
 10
175.51036689862192
 20
246.06850918843915
 10
177.48239349298848
 20
242.12445599970602
 10
177.48239349298848
 20
241.15488636252636
 10
178.53910287869584
 20
239.56982228396507
 10
178.0874841076387
 20
239.11820351290802
 10
173.1045317571017
 20
238.6199082778544
 10
170.62777261538585
 20
237.6292046211681
 10
168.8761700228863
 20
237.6292046211681
 10
168.61736615619537
 20
240.476047154768
 10
168.11526716974743
 20
240.97814614121594
 10
168.11526716974743
 20
245.90821262713237
 10
167.62226052115577
 20
246.40121927572412
 10
167.62226052115577
 20
247.3872325729074
 10
167.01942901024918
 20
247.99006408381373
 10
163.6871685717947
 20
248.24639180984875
 10
163.4421225609033
 20
254.37254208213324
 10
160.7201674408729
 20
254.163160919054
 10
160.7201674408729
 20
240.97814614121594
 10
160.22716079228127
 20
240.48513949262417
 10
160.22716079228127
 20
236.0919931341796
 10
157.76212754932308
 20
231.16192664826318
 10
157.76212754932308
 20
229.3163690632465
 10
158.403695950653
 20
228.24708839436326
 10
160.7201674408729
 20
227.9897026732278
 10
160.7201674408729
 20
218.69286758739514
 10
159.36267661039705
 20
218.42136942129986
 10
158.74814084650637
 20
217.80683365740927
 10
158.74814084650637
 20
216.99756058153596
 10
159.71980369741937
 20
215.54006630516642
 10
160.2077366970756
 20
213.10040130688523
 10
160.7201674408729
 20
212.58797056308808
 10
160.7201674408729
 20
205.46529684006708
 10
158.24081074225836
 20
203.4818114811755
 10
157.75430034199348
 20
199.58972827905652
 10
156.42815098510317
 20
197.20265943665393
 10
152.93416608350014
 20
197.20265943665393
 10
152.4317188797732
 20
196.700212232927
 10
149.43083799952092
 20
196.97301958567726
 10
148.90572357677866
 20
199.07347727664626
 10
147.91634502376067
 20
200.5575451061733
 10
146.93540537551274
 20
205.4622433474127
 10
146.3475159979325
 20
206.05013272499306
 10
148.88800787467366
 20
209.6068213524307
  0
LWPOLYLINE
  5
42
330
17
100
AcDbEntity
  8
ENG_K
100
AcDbPolyline
 90
92
 70
1
 10
124.23767544509192
 20
57.579672865127776
 10
124.23767544509192
 20
59.262902851089486
 10
124.73068209368355
 20
59.755909499681124
 10
124.73068209368355
 20
61.27786780691768
 10
127.16108102513634
 20
62.62808943550247
 10
129.26895068538258
 20
62.10112202044093
 10
133.7960053168566
 20
59.08308559945829
 10
134.28841514873523
 20
58.098265935701
 10
140.01388820002424
 20
54.36426177181686
 10
140.01388820002424
 20
52.693519858091456
 10
139.02787490284098
 20
50.72149326372488
 10
139.02787490284098
 20
48.70555319047853
 10
138.52077049287968
 20
48.19844878051727
 10
138.21616577785232
 20
46.06621577532577
 10
137.44674993697262
 20
46.8356316162053
 10
132.02367680246468
 20
46.8356316162053
 10
131.53067015387307
 20
47.32863826479694
 10
128.79655047629868
 20
47.32863826479694
 10
125.71669539086683
 20
43.30113546077086
 10
125.71669539086683
 20
36.047676888402826
 10
126.26313422656074
 20
34.95479921701505
 10
125.77012757796909
 20
34.46179256842341
 10
126.69457407018247
 20
32.6128995839966
 10
127.18758071877411
 20
29.161853043855213
 10
128.181728633825
 20
27.173557213753362
 10
128.181728633825
 20
25.715341427750893
 10
129.19919693542948
 20
24.290885805504647
 10
129.55864355950652
 20
24.650332429581702
 10
131.31743806913553
 20
24.650332429581702
 10
131.8104447177272
 20
23.171312483806773
 10
134.37018404162356
 20
23.171312483806773
 10
134.61341135669332
 20
25.360358319434397
 10
136.44663887841978
 20
25.62224796539536
 10
136.95374328838102
 20
26.12935237535663
 10
138.1439666257511
 20
26.12935237535663
 10
138.63697327434275
 20
25.636345726764986
 10
144.55305305744236
 20
25.636345726764986
 10
145.046059706034
 20
25.143339078173344
 10
151.25093609753844
 20
25.143339078173344
 10
151.84604776622345
 20
25.73845074685832
 10
151.84604776622345
 20
26.578931306292407
 10
149.87402117185695
 20
32.00200444080037
 10
149.87402117185695
 20
33.6265571243245
 10
150.7579294489468
 20
34.510465401414336
 10
152.78276039854757
 20
34.510465401414336
 10
158.69884018164717
 20
36.97549864437255
 10
159.836259163783
 20
36.97549864437255
 10
160.7201674408729
 20
36.09159036728271
 10
160.7201674408729
 20
24.878602183811218
 10
163.4373027441164
 20
24.66959177586936
 10
163.68142723250185
 20
36.1434427299836
 10
164.6926514726024
 20
36.64905485003389
 10
165.17665137340325
 20
39.069054354038066
 10
165.65023392678924
 20
39.5426369074241
 10
165.65023392678924
 20
41.021656853199026
 10
166.1282876413848
 20
41.49971056779456
 10
165.9207599148679
 20
42.9524046534131
 10
163.67335911648505
 20
43.70153825287393
 10
163.93227308526025
 20
53.281355097557935
 10
167.7782974311314
 20
52.73192304814778
 10
169.05349347601683
 20
50.43657016735392
 10
170.54924889400414
 20
48.94081474936662
 10
171.2572849482538
 20
46.81670658661763
 10
175.59105910481944
 20
46.335176124777
 10
176.98938684439685
 20
45.49617948103057
 10
176.98938684439685
 20
40.03564355601574
 10
177.48239349298848
 20
39.5426369074241
 10
177.48239349298848
 20
36.58459701587435
 10
178.0775051616735
 20
35.989485347189266
 10
179.99489893862693
 20
35.989485347189266
 10
182.4599321815851
 20
35.00347205000598
 10
184.48659159336475
 20
35.00347205000598
 10
184.98552706590658
 20
34.504536577464215
 10
189.3176715802124
 20
34.24970454721099
 10
189.06477523894137
 20
15.28247895188417
 10
105.99642944720145
 20
15.530444163202816
 10
105.99642944720145
 20
44.079676111946185
 10
107.510040882623
 20
44.38239839903058
 10
110.38481645153512
 20
42.94501061457445
 10
110.8243909130244
 20
43.3845850760638
 10
114.31935093204562
 20
43.3845850760638
 10
116.17112113209336
 20
44.31047017608769
 10
117.3468386449378
 20
46.426761699207674
 10
118.3393462907051
 20
51.88555375092774
 10
119.16908206080679
 20
52.71528952102944
 10
121.65082234498543
 20
53.707985634701025
 10
123.70009171633677
 20
55.244937663214365
 10
124.31102024790252
 20
55.04129481935915
 10
124.23767544509192
 20
55.11463962216978
 10
124.23767544509192
 20
56.79786960813138
 10
124.62857707359017
 20
57.18877123662958
 10
124.23767544509192
 20
57.579672865127776
  0
LWPOLYLINE
  5
43
330
17
100
AcDbEntity
  8
ENG_K
100
AcDbPolyline
 90
9
 70
1
 10
124.7151563343328
 20
54.637158732928846
 10
124.27320219578787
 20
53.31129631729392
 10
124.83278711377694
 20
52.7517113993049
 10
125.61459037077344
 20
52.7517113993049
 10
126.20970203945848
 20
53.34682306798988
 10
126.20970203945848
 20
55.14846717412658
 10
125.70572923687659
 20
55.98842184509634
 10
124.76899483099206
 20
54.58332023626955
 10
124.7151563343328
 20
54.637158732928846
  0
LWPOLYLINE
  5
44
330
17
100
AcDbEntity
  8
ENG_K
100
AcDbPolyline
 90
31
 70
1
 10
166.23376983139812
 20
218.39036956201807
 10
163.6782073324227
 20
218.6743209507932
 10
163.6782073324227
 20
227.4966960246363
 10
166.23376983139835
 20
227.7806474134112
 10
166.73835224406605
 20
227.2760650007435
 10
171.50812216867547
 20
227.2760650007435
 10
173.48014876304202
 20
228.26207829792676
 10
175.4223742392505
 20
228.26207829792676
 10
177.9754001415801
 20
230.35091767256
 10
177.9754001415801
 20
231.28558070603034
 10
179.95457292848266
 20
234.74913308310997
 10
180.21024709695862
 20
237.05020059939352
 10
181.36825514050776
 20
237.62920462116787
 10
184.32629503205797
 20
237.62920462116787
 10
186.28205239068964
 20
238.60708330048362
 10
187.8355331134128
 20
238.82900911801562
 10
187.8355331134128
 20
241.18235618140284
 10
188.33763209986077
 20
241.68445516785076
 10
188.68666352786732
 20
245.52380087592306
 10
189.05640378464838
 20
245.5087929514581
 10
189.31576414262648
 20
218.27595536376177
 10
187.44275046758509
 20
216.938088453018
 10
184.95820669770518
 20
216.44117969904198
 10
181.93836746196507
 20
214.93126008117193
 10
180.44814459386814
 20
215.42800103720427
 10
173.0757030545136
 20
212.4790244214625
 10
171.12086694188872
 20
212.7582867232659
 10
170.60002463274571
 20
214.84165595983796
 10
167.50044532727375
 20
218.89495197468588
 10
166.7383522440659
 20
218.89495197468588
 10
166.23376983139812
 20
218.39036956201807
  0
LWPOLYLINE
  5
45
330
17
100
AcDbEntity
  8
ENG_K
100
AcDbPolyline
 90
43
 70
1
 10
168.63219350971872
 20
201.02068791391392
 10
168.13152353639694
 20
203.0233678072012
 10
166.63624722397253
 20
205.5154949945751
 10
166.63624722397253
 20
206.6816411362097
 10
170.63534619145702
 20
210.18085273275867
 10
171.51737321079875
 20
211.6508977649948
 10
176.00337354721358
 20
207.1648974285799
 10
176.00337354721358
 20
206.66298978589538
 10
179.46565420414242
 20
202.73907170804262
 10
179.94742673594664
 20
203.22084423984688
 10
179.94742673594664
 20
204.1629440581503
 10
180.9773535120098
 20
206.22279761027661
 10
182.31035495881142
 20
207.55579905707822
 10
184.97959824195638
 20
207.55579905707822
 10
185.472604890548
 20
207.0627924084866
 10
187.39312317069047
 20
207.0627924084866
 10
189.31898480361588
 20
206.23742313723292
 10
189.05247654671365
 20
196.37661763185133
 10
188.22643474191105
 20
197.20265943665393
 10
186.7913282750159
 20
197.20265943665393
 10
184.8193016806494
 20
198.18867273383722
 10
183.3537736988712
 20
198.18867273383722
 10
179.4792448457402
 20
199.64162105376138
 10
178.46840679017177
 20
199.0351182204202
 10
178.46840679017177
 20
195.62153447078566
 10
177.9754001415801
 20
195.12852782219403
 10
177.9754001415801
 20
190.69146798486935
 10
177.48239349298848
 20
190.19846133627772
 10
177.48239349298848
 20
188.60091538670343
 10
175.13052182005197
 20
188.33959631193264
 10
174.62645862153212
 20
187.83553311341294
 10
172.6544320271655
 20
187.83553311341294
 10
172.16142537857388
 20
187.3425264648213
 10
170.18939878420736
 20
187.3425264648213
 10
169.66086538491973
 20
186.8139930655337
 10
168.58777501500742
 20
187.17168985550435
 10
169.1123370168589
 20
191.89274787216738
 10
169.59428711552232
 20
192.37469797083097
 10
169.59428711552232
 20
195.3327378623807
 10
170.08729376411395
 20
195.82574451097236
 10
170.08729376411395
 20
198.24686427505057
 10
170.52686822560332
 20
199.12601319802937
 10
168.63219350971872
 20
201.02068791391392
  0
LWPOLYLINE
  5
46
330
17
100
AcDbEntity
  8
ENG_K
100
AcDbPolyline
 90
44
 70
1
 10
189.31455305918772
 20
163.73639887363623
 10
189.31455305918772
 20
147.1838774848544
 10
186.46771052558762
 20
146.92507361816354
 10
185.96561153913964
 20
146.42297463171562
 10
179.5565251074484
 20
146.42297463171562
 10
179.07761622022642
 20
145.9440657444936
 10
177.5812499154972
 20
145.73029912953228
 10
178.46840679017177
 20
143.51240694284596
 10
178.46840679017177
 20
140.45458328111658
 10
176.43921684423069
 20
135.88890590274926
 10
175.42615130903462
 20
135.38237313515123
 10
174.01559446134854
 20
133.50163067156973
 10
173.51891620904973
 20
131.01823941007572
 10
173.04533365566377
 20
130.5446568566898
 10
173.04533365566377
 20
119.37588642731211
 10
173.71278365887852
 20
118.26346975528756
 10
175.56855843983556
 20
117.33558236480901
 10
177.55417543042074
 20
117.33558236480901
 10
180.37337410114733
 20
115.54154684707396
 10
182.90546662749645
 20
111.4901988049154
 10
182.90546662749645
 20
110.49168082573968
 10
183.94491211178197
 20
108.41278985716862
 10
183.00757164758986
 20
107.47544939297637
 10
181.46987439937763
 20
107.47544939297637
 10
176.04680126486963
 20
105.50342279860992
 10
174.62645862153207
 20
105.50342279860992
 10
174.1334519729404
 20
105.01041615001827
 10
171.93606869633254
 20
105.01041615001827
 10
170.48358396253107
 20
106.94706246175356
 10
165.2852424610235
 20
105.52933296134238
 10
164.7307988990034
 20
104.97488939932231
 10
163.6782073324227
 20
105.32575325484905
 10
163.6782073324227
 20
165.35931166548835
 10
165.19181876784424
 20
165.66203395257273
 10
167.18744541377777
 20
164.66422062960595
 10
168.4850221561911
 20
164.66422062960595
 10
169.92500602940544
 20
166.5841991272251
 10
171.00165669697427
 20
167.1225244610095
 10
179.34062778006353
 20
168.1035798825494
 10
179.98573947325514
 20
168.7486915757409
 10
182.0513779058896
 20
165.65023392678924
 10
187.41080393295763
 20
165.65023392678924
 10
188.76342050389127
 20
164.83866398422907
 10
189.31455305918772
 20
163.73639887363623
  0
LWPOLYLINE
  5
47
330
17
100
AcDbEntity
  8
ENG_K
100
AcDbPolyline
 90
14
 70
1
 10
161.64798919684236
 20
264.7445702937079
 10
160.54975684502946
 20
265.2936864696143
 10
157.78865718300094
 20
269.5608404927492
 10
156.7063238334286
 20
272.26667386668015
 10
159.66632720225022
 20
273.6121299434173
 10
163.56370827259008
 20
274.0993025772096
 10
164.08068472499687
 20
274.6162790296165
 10
168.67919076542336
 20
274.1053339140136
 10
169.83199628249298
 20
273.5289311554789
 10
170.09117143629763
 20
269.1229535408004
 10
168.06641049836102
 20
265.57962189941134
 10
166.19191340837207
 20
263.7051248094222
 10
164.11302243980094
 20
264.7445702937079
 10
161.64798919684236
 20
264.7445702937079
  0
LWPOLYLINE
  5
48
330
17
100
AcDbEntity
  8
ENG_K
100
AcDbPolyline
 90
58
 70
1
 10
138.92576988274757
 20
126.20970203945858
 10
137.9397565855643
 20
126.20970203945858
 10
136.94268673845286
 20
127.20677188657004
 10
134.5930335765323
 20
127.46784446011672
 10
134.34698590993523
 20
151.82656345322243
 10
131.63052544597986
 20
151.6176049559951
 10
131.38384330471305
 20
126.70270868805022
 10
127.29782035673512
 20
126.70270868805022
 10
126.70270868805011
 20
126.10759701936524
 10
125.71669539086683
 20
127.09361031654842
 10
125.71669539086683
 20
129.7628535996933
 10
126.20970203945848
 20
130.25586024828496
 10
126.20970203945848
 20
136.17194003138457
 10
129.16774193100827
 20
139.1299799229343
 10
129.16774193100827
 20
144.60329547010363
 10
130.1578378833927
 20
145.0983434462958
 10
130.40683079049774
 20
154.31108100918166
 10
133.5573295656527
 20
154.31108100918166
 10
136.0223628086109
 20
155.29709430636495
 10
137.88951417290303
 20
155.29709430636495
 10
139.36181193814346
 20
158.24168983684572
 10
144.8327573279909
 20
158.73904850865006
 10
145.3348563144388
 20
159.24114749509798
 10
148.29289620598865
 20
159.24114749509798
 10
148.8393350416826
 20
159.78758633079192
 10
152.01483885898134
 20
158.19983442214257
 10
153.0008521561646
 20
156.72081447636765
 10
153.85266585023666
 20
156.29490762933162
 10
156.16157848824912
 20
156.75669015693416
 10
156.7761142521398
 20
157.37122592082486
 10
156.7761142521398
 20
159.83625916378296
 10
157.26912090073145
 20
160.32926581237462
 10
157.26912090073145
 20
167.3313382598549
 10
158.77487221528563
 20
167.6324885227658
 10
160.7201674408729
 20
166.79879056894265
 10
160.7201674408729
 20
103.88483504223478
 10
159.2029359080908
 20
102.97449612256548
 10
156.18100258345478
 20
105.99642944720156
 10
152.93416608350014
 20
105.99642944720156
 10
152.3390544148151
 20
105.40131777851647
 10
152.3390544148151
 20
102.49961274774743
 10
149.87402117185695
 20
96.09052631605618
 10
149.87402117185695
 20
94.58899906145734
 10
148.93694837376378
 20
93.02721106463552
 10
147.25802623741927
 20
94.70613320097998
 10
143.80697969727782
 20
96.67815979534655
 10
141.8643856790917
 20
98.62075381353263
 10
140.50689484861587
 20
98.89225197962782
 10
140.50689484861587
 20
103.14049457574504
 10
140.9999014972075
 20
103.63350122433668
 10
140.9999014972075
 20
104.41530448133318
 10
138.52943888107146
 20
106.88576709746933
 10
139.03318726820925
 20
116.45698645308744
 10
140.01388820002424
 20
117.43768738490246
 10
140.01388820002424
 20
120.68452388485717
 10
139.5208815514326
 20
121.17753053344882
 10
139.5208815514326
 20
125.6145903707735
 10
138.92576988274757
 20
126.20970203945858
  0
LWPOLYLINE
  5
49
330
17
100
AcDbEntity
  8
ENG_K
100
AcDbPolyline
 90
9
 70
1
 10
157.74248884454232
 20
47.34755239644883
 10
158.74814084650635
 20
49.35885640037696
 10
158.74814084650635
 20
50.83787634615178
 10
159.74228876155726
 20
52.82617217625363
 10
160.1550957198804
 20
55.71582088451543
 10
160.43883641438174
 20
55.69972500389886
 10
160.730134532728
 20
45.5042908617791
 10
158.06025620902025
 20
46.39425030301503
 10
157.74248884454232
 20
47.34755239644883
  0
LWPOLYLINE
  5
4A
330
17
100
AcDbEntity
  8
ENG_K
100
AcDbPolyline
 90
11
 70
1
 10
157.37122592082483
 20
93.17825658381895
 10
158.2357101027091
 20
92.31377240193461
 10
158.73687987919217
 20
89.80792351951949
 10
160.27252830280761
 20
86.73662667228842
 10
157.87474368393072
 20
83.80600102699454
 10
151.84604776622345
 20
84.06811824080785
 10
151.84604776622345
 20
85.20368150912094
 10
147.85748373489184
 20
90.18938654828557
 10
148.95441356797338
 20
92.38324621444849
 10
150.80943776317088
 20
93.17825658381895
 10
157.37122592082483
 20
93.17825658381895
  0
LWPOLYLINE
  5
4B
330
17
100
AcDbEntity
  8
ENG_K
100
AcDbPolyline
 90
42
 70
1
 10
118.83852200196365
 20
181.30042197024855
 10
117.82858901340069
 20
182.31035495881153
 10
117.82858901340069
 20
183.34507838951697
 10
115.32301560122426
 20
188.85733989630504
 10
117.36677956045027
 20
191.4120448453377
 10
118.3580175402677
 20
193.89013979488112
 10
119.69851058767385
 20
195.23063284228726
 10
122.65655047922361
 20
195.23063284228726
 10
123.14955712781526
 20
195.723639490879
 10
125.61459037077339
 20
195.723639490879
 10
126.10759701936503
 20
196.21664613947053
 10
127.29782035673512
 20
196.21664613947053
 10
128.15780894244534
 20
195.3566575537604
 10
129.1538191333787
 20
191.37261679002694
 10
130.6467618767832
 20
188.3867313032179
 10
130.6467618767832
 20
187.7334280933195
 10
127.17629124143612
 20
184.2629574579724
 10
126.68328459284447
 20
181.7979242150143
 10
126.20970203945848
 20
181.32434166162824
 10
126.20970203945848
 20
179.35231506726169
 10
125.73164832486292
 20
178.87426135266617
 10
126.1956042780888
 20
175.62656968008494
 10
126.70270868805011
 20
175.11946527012367
 10
126.70270868805011
 20
172.65443202716557
 10
127.19571533664175
 20
172.16142537857405
 10
127.19571533664175
 20
169.69639213561572
 10
127.68872198523337
 20
169.20338548702406
 10
127.68872198523337
 20
166.24534559547433
 10
128.2838336539184
 20
165.65023392678947
 10
127.29782035673512
 20
164.66422062960606
 10
125.76139496808372
 20
164.66422062960606
 10
121.80643812691218
 20
163.1811118141667
 10
118.81460231058395
 20
163.45309688837838
 10
118.81460231058395
 20
165.5481289066959
 10
118.3215956619923
 20
166.04113555528744
 10
118.3215956619923
 20
173.43623528416208
 10
117.82858901340069
 20
173.9292419327537
 10
117.82858901340069
 20
175.15692806063055
 10
120.29362225635886
 20
176.63594800640547
 10
120.29362225635886
 20
177.90076494036344
 10
119.32532466128056
 20
179.3532113329809
 10
118.83852200196365
 20
181.30042197024855
  0
LWPOLYLINE
  5
4C
330
17
100
AcDbEntity
  8
ENG_K
100
AcDbPolyline
 90
4
 70
1
 10
126.31180705955191
 20
54.23073134507983
 10
125.470192066571
 20
53.38911635209909
 10
125.470192066571
 20
55.072346338060576
 10
126.31180705955191
 20
54.23073134507983
  0
LWPOLYLINE
  5
4D
330
17
100
AcDbEntity
  8
ENG_K
100
AcDbPolyline
 90
4
 70
1
 10
124.97718541797938
 20
52.89610970350744
 10
124.97718541797938
 20
54.579339689469265
 10
125.8188004109602
 20
53.73772469648807
 10
124.97718541797938
 20
52.89610970350744
  0
LWPOLYLINE
  5
4E
330
17
100
AcDbEntity
  8
ENG_K
100
AcDbPolyline
 90
17
 70
1
 10
109.76281309217383
 20
243.05227775567585
 10
110.338189404709
 20
243.05227775567585
 10
115.90274191710363
 20
248.11096185785274
 10
117.00076388976143
 20
246.46392889886593
 10
118.03841993629125
 20
246.11804355002275
 10
117.33558236480906
 20
245.41520597854083
 10
117.33558236480906
 20
241.9641594383992
 10
116.84257571621742
 20
241.4711527898077
 10
116.84257571621742
 20
237.98689428255892
 10
113.95631776209987
 20
236.15018467539306
 10
112.97315772870101
 20
236.15018467539306
 10
111.52422117675988
 20
235.18422697409892
 10
108.07317463661843
 20
234.19821367691563
 10
106.26392030401746
 20
232.99204412184827
 10
105.99152168249871
 20
238.71241517374187
 10
109.4785275060444
 20
242.19942099728752
 10
109.76281309217383
 20
243.05227775567585
  0
LWPOLYLINE
  5
4F
330
17
100
AcDbEntity
  8
ENG_K
100
AcDbPolyline
 90
11
 70
1
 10
109.97628479271766
 20
201.62630650162572
 10
107.47544939297636
 20
197.6249698620397
 10
107.47544939297636
 20
196.60754776796895
 10
106.24293277149727
 20
195.3750311464898
 10
106.24293277149727
 20
218.75055367048336
 10
108.91055585987137
 20
216.08293058210927
 10
112.4055158788927
 20
209.0930105440666
 10
112.4055158788927
 20
207.95761819114566
 10
109.44747598734288
 20
204.50657165100415
 10
109.44747598734288
 20
202.68392411237534
 10
109.97628479271766
 20
201.62630650162572
  0
LWPOLYLINE
  5
50
330
17
100
AcDbEntity
  8
ENG_K
100
AcDbPolyline
 90
55
 70
1
 10
88.74119674649424
 20
190.69146798486935
 10
88.2481900979026
 20
191.184474633461
 10
88.2481900979026
 20
194.83973121378907
 10
88.74119674649424
 20
195.3327378623807
 10
88.74119674649424
 20
198.23337231105376
 10
90.22021669226913
 20
202.1774254997869
 10
90.22021669226913
 20
204.6998641856217
 10
90.72561738059999
 20
205.20526487395264
 10
91.21265865477075
 20
209.1015950673186
 10
93.17825658381894
 20
213.5241904076771
 10
93.17825658381894
 20
215.0530038060461
 10
93.67126323241058
 20
215.54601045463772
 10
93.67126323241058
 20
216.98111692153276
 10
94.65727652959386
 20
218.95314351589934
 10
94.65727652959386
 20
219.94642778842265
 10
96.62930312396038
 20
223.39747432856427
 10
96.62930312396038
 20
224.3762166504073
 10
97.65301929583465
 20
226.42364899415603
 10
99.5873430155102
 20
228.84155364375025
 10
99.5873430155102
 20
229.84320326379515
 10
100.60440783139501
 20
230.86026807968008
 10
101.09741447998661
 20
232.3392880254549
 10
102.74322539575955
 20
233.98509894122776
 10
103.26187099026907
 20
228.27999740162318
 10
106.0094900695897
 20
228.4913527154171
 10
106.28354215040929
 20
233.1502380893502
 10
109.38045101444811
 20
228.92718054747886
 10
111.91250923030108
 20
226.90153397479662
 10
111.91250923030108
 20
225.71716591590297
 10
106.62124760954704
 20
218.41018558248072
 10
103.03838955565165
 20
218.17132837888764
 10
103.03838955565165
 20
195.62153447078566
 10
102.15448127856176
 20
194.73762619369572
 10
100.12611982341453
 20
194.73762619369572
 10
97.12230977255203
 20
193.58231463567165
 10
97.12230977255203
 20
191.38868467364767
 10
97.60121865977399
 20
190.90977578642566
 10
98.09140575609169
 20
187.47846611220186
 10
100.02830156735423
 20
186.02579425375498
 10
100.57335631269348
 20
184.93568476307652
 10
100.57335631269348
 20
183.4566648173016
 10
101.55936960987674
 20
181.48463822293505
 10
101.55936960987674
 20
179.55652510744835
 10
102.12307234699237
 20
178.99282237033265
 10
100.08537044405169
 20
175.93626951592168
 10
100.59087797283604
 20
168.35365658415634
 10
92.08706417347165
 20
168.61134791140987
 10
91.20622998945241
 20
169.49218209542906
 10
91.20622998945241
 20
171.01511552008387
 10
90.22021669226913
 20
172.9871421144503
 10
90.22021669226913
 20
175.40826187852866
 10
89.7272100436775
 20
175.9012685271203
 10
89.7272100436775
 20
185.81603431636617
 10
88.74119674649424
 20
188.28106755932427
 10
88.74119674649424
 20
190.69146798486935
  0
LWPOLYLINE
  5
51
330
17
100
AcDbEntity
  8
ENG_K
100
AcDbPolyline
 90
74
 70
1
 10
98.16362284550756
 20
98.77012081108482
 10
99.5873430155102
 20
99.71926759108662
 10
99.5873430155102
 20
100.18245468419518
 10
102.40806859897869
 20
103.00318026766364
 10
105.57220314885522
 20
104.22015509453931
 10
105.99642944720145
 20
105.06860769123172
 10
105.99642944720145
 20
107.55444509396229
 10
107.41359121722168
 20
109.53847157199048
 10
109.0291045399681
 20
108.46146269015955
 10
110.0425876560279
 20
108.46146269015955
 10
111.91250923030108
 20
106.59154111588643
 10
111.91250923030108
 20
105.40131777851647
 10
111.41950258170944
 20
104.90831112992483
 10
111.41950258170944
 20
99.48523799541687
 10
110.9264959331178
 20
98.99223134682522
 10
110.9264959331178
 20
97.02020475245877
 10
109.58063252613766
 20
95.67434134547858
 10
106.3024821066261
 20
94.58162453897468
 10
105.79434505991061
 20
97.1223097725521
 10
103.26349999969604
 20
97.1223097725521
 10
103.02370000526301
 20
94.48450983378886
 10
100.56086234743826
 20
93.49937477065895
 10
100.09733669444627
 20
87.47354128176299
 10
101.64350927059482
 20
87.25265948517035
 10
103.03838955565165
 20
86.41573131413627
 10
103.03838955565165
 20
77.6929660901875
 10
101.52477812023008
 20
77.39024380310322
 10
99.52915147429658
 20
78.38805712607
 10
98.21042808982868
 20
78.38805712607
 10
96.74246469398197
 20
76.92009373022324
 10
92.28327587083797
 20
76.42462830542951
 10
90.71322334086078
 20
75.30316221258859
 10
90.71322334086078
 20
66.46942886263885
 10
88.74119674649424
 20
64.00439561968064
 10
88.74119674649424
 20
58.93568738695176
 10
85.89435421289413
 20
58.6768835202609
 10
85.40060539173234
 20
58.18313469909919
 10
79.48452560863274
 20
57.69012805050755
 10
76.54918707049814
 20
54.754789512372895
 10
75.99473110303062
 20
54.569970856550356
 10
77.89505047747828
 20
49.34409257681938
 10
77.89505047747828
 20
47.923749933481915
 10
78.49016214616326
 20
47.32863826479694
 10
77.51824661034968
 20
46.35672272898339
 10
70.57441152555263
 20
45.36474628829812
 10
68.58611569545083
 20
44.37059837324719
 10
65.96078589118565
 20
44.37059837324719
 10
65.46777924259402
 20
44.863605021838836
 10
62.220942742639345
 20
44.863605021838836
 10
61.716360329971586
 20
44.35902260917102
 10
59.18537565775198
 20
44.6402431283065
 10
58.18647182101097
 20
53.130925740605186
 10
57.68177788522125
 20
53.63561967639485
 10
57.68177788522125
 20
56.59365956794471
 10
57.161290548664354
 20
57.11414690450156
 10
48.847969577855665
 20
51.24592033687192
 10
47.82164491338856
 20
51.58802855836087
 10
47.82164491338856
 20
62.21498018699467
 10
53.571674475041924
 20
68.46501231922653
 10
55.579631048985824
 20
69.97097974968447
 10
58.60959964119091
 20
71.485964045787
 10
59.57916927837096
 20
71.485964045787
 10
63.97295982407012
 20
74.41515774291985
 10
67.42140759991842
 20
75.893063932569
 10
72.35619276452148
 20
79.34741354779118
 10
76.29033652654755
 20
80.82271745855097
 10
79.24261254485955
 20
83.28294747381094
 10
83.66919047840922
 20
85.25031544427752
 10
84.65112505878798
 20
86.23225002465628
 10
89.58119154470432
 20
88.6972832676144
 10
92.53923143625414
 20
91.65532315916425
 10
94.51125803062071
 20
92.64133645634753
 10
95.68720330565702
 20
93.81728173138382
 10
98.16362284550756
 20
98.77012081108482
  0
LWPOLYLINE
  5
52
330
17
100
AcDbEntity
  8
ENG_K
100
AcDbPolyline
 90
13
 70
1
 10
111.5216076018029
 20
84.30413690916949
 10
112.0821441988665
 20
83.74360031210604
 10
110.8815577530921
 20
83.1433070892188
 10
110.4069368762168
 20
81.71944445859292
 10
108.42375981546849
 20
79.24047313265747
 10
106.88828685284355
 20
76.16952720740767
 10
105.99642944720145
 20
76.16952720740767
 10
105.99642944720145
 20
85.49223459364353
 10
107.55646880317572
 20
85.80424246483842
 10
108.07056106166138
 20
85.29015020635278
 10
109.54958100743627
 20
85.29015020635278
 10
110.53559430461955
 20
84.30413690916949
 10
111.5216076018029
 20
84.30413690916949
  0
LWPOLYLINE
  5
53
330
17
100
AcDbEntity
  8
ENG_K
100
AcDbPolyline
 90
21
 70
1
 10
106.96472704227975
 20
141.5941169001733
 10
109.99023943674565
 20
137.0558483084745
 10
108.93525828563882
 20
135.47337658181425
 10
108.0736596218476
 20
132.3141814812464
 10
106.57451449927422
 20
134.3130416446776
 10
105.9694346915684
 20
132.49780222156016
 10
103.66628805557451
 20
129.68284522201202
 10
101.18789207658415
 20
129.18716602621393
 10
100.64509932622434
 20
128.6443732758542
 10
96.98039194355779
 20
129.6914325280446
 10
94.68898819135215
 20
132.49203711407375
 10
93.67126323241058
 20
135.03634951142774
 10
93.67126323241058
 20
138.10005314687123
 10
95.18952208715497
 20
141.13657085636
 10
97.99399508645334
 20
144.45094803734892
 10
101.66147462997013
 20
144.45094803734892
 10
102.43765700426283
 20
143.67476566305626
 10
102.86072001189095
 20
144.94395468594058
 10
105.11252117011156
 20
144.94395468594058
 10
106.4655164044134
 20
143.5909594516388
 10
106.96472704227975
 20
141.5941169001733
  0
LWPOLYLINE
  5
54
330
17
100
AcDbEntity
  8
ENG_K
100
AcDbPolyline
 90
7
 70
1
 10
97.5436296196153
 20
139.31931640716243
 10
97.13410979833547
 20
138.50027676460286
 10
97.29542681818992
 20
137.69369166533062
 10
98.16644897644004
 20
138.2163049602808
 10
98.54789753122465
 20
138.97920206984992
 10
98.04174480033792
 20
139.48535480073664
 10
97.5436296196153
 20
139.31931640716243
  0
LWPOLYLINE
  5
55
330
17
100
AcDbEntity
  8
ENG_K
100
AcDbPolyline
 90
51
 70
1
 10
50.70549972382635
 20
34.99774446458947
 10
56.091560581496665
 20
35.48738636074133
 10
56.664355656468686
 20
36.060181435713325
 10
58.24941973502972
 20
35.00347205000598
 10
69.12303582292225
 20
35.00347205000598
 10
69.61604247151388
 20
34.510465401414336
 10
70.9454851945151
 20
34.510465401414336
 10
73.41051843747329
 20
35.49647869859762
 10
74.83490556583509
 20
35.49647869859762
 10
75.3279122144267
 20
35.989485347189266
 10
76.80693216020161
 20
35.989485347189266
 10
77.29993880879326
 20
36.482491995780904
 10
78.4901621461633
 20
36.482491995780904
 10
78.98316879475493
 20
35.989485347189266
 10
87.10982936796469
 20
35.989485347189266
 10
87.56880832217463
 20
36.90744325560924
 10
89.787338240837
 20
38.139959877088295
 10
90.22021669226913
 20
39.00571677995257
 10
90.22021669226913
 20
41.021656853199026
 10
90.71322334086076
 20
41.51466350179067
 10
90.71322334086076
 20
43.48669009615725
 10
91.58607506802251
 20
44.359541823318914
 10
96.02313490534718
 20
44.85254847191056
 10
98.02117098363802
 20
46.85058455020141
 10
101.64350927059482
 20
46.33310765206466
 10
103.03838955565165
 20
45.49617948103057
 10
103.03838955565165
 20
15.529709430636585
 10
87.27000030065456
 20
15.529709430636585
 10
87.02349697635873
 20
23.171312483806883
 10
86.17405848344268
 20
23.171312483806883
 10
85.68105183485105
 20
23.664319132398525
 10
80.92136783716457
 20
23.664319132398525
 10
78.4563345942064
 20
22.185299186623595
 10
77.35627366957392
 20
22.185299186623595
 10
70.94718723788267
 20
24.650332429581812
 10
68.13702252573897
 20
24.650332429581812
 10
66.65800257996408
 20
23.171312483806883
 10
63.49575264822747
 20
23.171312483806883
 10
63.00274599963585
 20
23.664319132398525
 10
58.62031897972425
 20
23.664319132398525
 10
56.155285736766075
 20
24.650332429581812
 10
52.64960637921153
 20
24.650332429581812
 10
52.15659973061989
 20
25.143339078173454
 10
50.700689103952534
 20
25.143339078173454
 10
48.8691646420567
 20
26.45157083667049
 10
47.264744831710786
 20
29.125603853913717
 10
47.82164491338856
 20
29.682503935591463
 10
47.82164491338856
 20
32.14753717854957
 10
48.3146515619802
 20
32.64054382714121
 10
48.3146515619802
 20
33.66949548578613
 10
50.70549972382635
 20
34.99774446458947
  0
LWPOLYLINE
  5
56
330
17
100
AcDbEntity
  8
CUT_SLOT
100
AcDbPolyline
 90
5
 70
1
 10
160.55370049966217
 20
0.0
 10
164.11780211479993
 20
0.0
 10
164.11780211479993
 20
147.90199457749043
 10
160.55370049966217
 20
147.90199457749043
 10
160.55370049966217
 20
0.0
  0
LWPOLYLINE
  5
57
330
17
100
AcDbEntity
  8
CUT_SLOT
100
AcDbPolyline
 90
5
 70
1
 10
102.81867358069958
 20
0.0
 10
106.38277519583734
 20
0.0
 10
106.38277519583734
 20
147.90199457749043
 10
102.81867358069958
 20
147.90199457749043
 10
102.81867358069958
 20
0.0
  0
LWPOLYLINE
  5
58
330
17
100
AcDbEntity
  8
CUT_SLOT
100
AcDbPolyline
 90
5
 70
1
 10
189.42121395914347
 20
0.0
 10
192.98531557428123
 20
0.0
 10
192.98531557428123
 20
147.90199457749043
 10
189.42121395914347
 20
147.90199457749043
 10
189.42121395914347
 20
0.0
  0
LWPOLYLINE
  5
59
330
17
100
AcDbEntity
  8
CUT_SLOT
100
AcDbPolyline
 90
5
 70
1
 10
131.68618704018087
 20
0.0
 10
135.25028865531863
 20
0.0
 10
135.25028865531863
 20
147.90199457749043
 10
131.68618704018087
 20
147.90199457749043
 10
131.68618704018087
 20
0.0
  0
LWPOLYLINE
  5
5A
330
17
100
AcDbEntity
  8
CUT_OUTLINE
100
AcDbPolyline
 90
5
 70
1
 10
0.0
 20
0.0
 10
295.8039891549808
 20
0.0
 10
295.8039891549808
 20
295.80398915498085
 10
0.0
 20
295.80398915498085
 10
0.0
 20
0.0
  0
ENDSEC
  0
SECTION
  2
OBJECTS
  0
DICTIONARY
  5
A
330
0
100
AcDbDictionary
281
1
  3
ACAD_COLOR
350
B
  3
ACAD_GROUP
350
C
  3
ACAD_LAYOUT
350
D
  3
ACAD_MATERIAL
350
E
  3
ACAD_MLEADERSTYLE
350
F
  3
ACAD_MLINESTYLE
350
10
  3
ACAD_PLOTSETTINGS
350
11
  3
ACAD_PLOTSTYLENAME
350
12
  3
ACAD_SCALELIST
350
14
  3
ACAD_TABLESTYLE
350
15
  3
ACAD_VISUALSTYLE
350
16
  3
EZDXF_META
350
2D
  0
DICTIONARY
  5
B
330
A
100
AcDbDictionary
281
1
  0
DICTIONARY
  5
C
330
A
100
AcDbDictionary
281
1
  0
DICTIONARY
  5
D
330
A
100
AcDbDictionary
281
1
  3
Model
350
1A
  3
Layout1
350
1E
  0
DICTIONARY
  5
E
330
A
100
AcDbDictionary
281
1
  3
ByBlock
350
1F
  3
ByLayer
350
20
  3
Global
350
21
  0
DICTIONARY
  5
F
330
A
100
AcDbDictionary
281
1
  3
Standard
350
2C
  0
DICTIONARY
  5
10
330
A
100
AcDbDictionary
281
1
  3
Standard
350
22
  0
DICTIONARY
  5
11
330
A
100
AcDbDictionary
281
1
  0
ACDBDICTIONARYWDFLT
  5
12
330
A
100
AcDbDictionary
281
1
  3
Normal
350
13
100
AcDbDictionaryWithDefault
340
13
  0
ACDBPLACEHOLDER
  5
13
330
12
  0
DICTIONARY
  5
14
330
A
100
AcDbDictionary
281
1
  0
DICTIONARY
  5
15
330
A
100
AcDbDictionary
281
1
  0
DICTIONARY
  5
16
330
A
100
AcDbDictionary
281
1
  0
LAYOUT
  5
1A
330
D
100
AcDbPlotSettings
  1

  4
A3
  6

 40
7.5
 41
20.0
 42
7.5
 43
20.0
 44
420.0
 45
297.0
 46
0.0
 47
0.0
 48
0.0
 49
0.0
140
0.0
141
0.0
142
1.0
143
1.0
 70
1024
 72
1
 73
0
 74
5
  7

 75
16
 76
0
 77
2
 78
300
147
1.0
148
0.0
149
0.0
100
AcDbLayout
  1
Model
 70
1
 71
0
 10
0.0
 20
0.0
 11
420.0
 21
297.0
 12
0.0
 22
0.0
 32
0.0
 14
1e+20
 24
1e+20
 34
1e+20
 15
-1e+20
 25
-1e+20
 35
-1e+20
146
0.0
 13
0.0
 23
0.0
 33
0.0
 16
1.0
 26
0.0
 36
0.0
 17
0.0
 27
1.0
 37
0.0
 76
1
330
17
  0
LAYOUT
  5
1E
330
D
100
AcDbPlotSettings
  1

  4
A3
  6

 40
7.5
 41
20.0
 42
7.5
 43
20.0
 44
420.0
 45
297.0
 46
0.0
 47
0.0
 48
0.0
 49
0.0
140
0.0
141
0.0
142
1.0
143
1.0
 70
0
 72
1
 73
0
 74
5
  7

 75
16
 76
0
 77
2
 78
300
147
1.0
148
0.0
149
0.0
100
AcDbLayout
  1
Layout1
 70
1
 71
1
 10
0.0
 20
0.0
 11
420.0
 21
297.0
 12
0.0
 22
0.0
 32
0.0
 14
1e+20
 24
1e+20
 34
1e+20
 15
-1e+20
 25
-1e+20
 35
-1e+20
146
0.0
 13
0.0
 23
0.0
 33
0.0
 16
1.0
 26
0.0
 36
0.0
 17
0.0
 27
1.0
 37
0.0
 76
1
330
1B
  0
MATERIAL
  5
1F
102
{ACAD_REACTORS
330
E
102
}
330
E
100
AcDbMaterial
  1
ByBlock
  2

 70
0
 40
1.0
 71
1
 41
1.0
 91
-1023410177
 42
1.0
 72
1
  3

 73
1
 74
1
 75
1
 44
0.5
 73
0
 45
1.0
 46
1.0
 77
1
  4

 78
1
 79
1
170
1
 48
1.0
171
1
  6

172
1
173
1
174
1
140
1.0
141
1.0
175
1
  7

176
1
177
1
178
1
143
1.0
179
1
  8

270
1
271
1
272
1
145
1.0
146
1.0
273
1
  9

274
1
275
1
276
1
 42
1.0
 72
1
  3

 73
1
 74
1
 75
1
 94
63
  0
MATERIAL
  5
20
102
{ACAD_REACTORS
330
E
102
}
330
E
100
AcDbMaterial
  1
ByLayer
  2

 70
0
 40
1.0
 71
1
 41
1.0
 91
-1023410177
 42
1.0
 72
1
  3

 73
1
 74
1
 75
1
 44
0.5
 73
0
 45
1.0
 46
1.0
 77
1
  4

 78
1
 79
1
170
1
 48
1.0
171
1
  6

172
1
173
1
174
1
140
1.0
141
1.0
175
1
  7

176
1
177
1
178
1
143
1.0
179
1
  8

270
1
271
1
272
1
145
1.0
146
1.0
273
1
  9

274
1
275
1
276
1
 42
1.0
 72
1
  3

 73
1
 74
1
 75
1
 94
63
  0
MATERIAL
  5
21
102
{ACAD_REACTORS
330
E
102
}
330
E
100
AcDbMaterial
  1
Global
  2

 70
0
 40
1.0
 71
1
 41
1.0
 91
-1023410177
 42
1.0
 72
1
  3

 73
1
 74
1
 75
1
 44
0.5
 73
0
 45
1.0
 46
1.0
 77
1
  4

 78
1
 79
1
170
1
 48
1.0
171
1
  6

172
1
173
1
174
1
140
1.0
141
1.0
175
1
  7

176
1
177
1
178
1
143
1.0
179
1
  8

270
1
271
1
272
1
145
1.0
146
1.0
273
1
  9

274
1
275
1
276
1
 42
1.0
 72
1
  3

 73
1
 74
1
 75
1
 94
63
  0
MLINESTYLE
  5
22
102
{ACAD_REACTORS
330
10
102
}
330
10
100
AcDbMlineStyle
  2
Standard
 70
0
  3

 62
256
 51
90.0
 52
90.0
 71
2
 49
0.5
 62
256
  6
BYLAYER
 49
-0.5
 62
256
  6
BYLAYER
  0
MLEADERSTYLE
  5
2C
102
{ACAD_REACTORS
330
F
102
}
330
F
100
AcDbMLeaderStyle
179
2
170
2
171
1
172
0
 90
2
 40
0.0
 41
0.0
173
1
 91
-1056964608
 92
-2
290
1
 42
2.0
291
1
 43
8.0
  3
Standard
 44
4.0
300

342
29
174
1
175
1
176
0
178
1
 93
-1056964608
 45
4.0
292
0
297
0
 46
4.0
 94
-1056964608
 47
1.0
 49
1.0
140
1.0
294
1
141
0.0
177
0
142
1.0
295
0
296
0
143
3.75
271
0
272
9
273
9
  0
DICTIONARY
  5
2D
330
A
100
AcDbDictionary
280
1
281
1
  3
CREATED_BY_EZDXF
350
2E
  3
WRITTEN_BY_EZDXF
350
5D
  0
DICTIONARYVAR
  5
2E
330
2D
100
DictionaryVariables
280
0
  1
1.4.4 @ 2026-08-04T19:10:37.353575+00:00
  0
DICTIONARYVAR
  5
5D
330
2D
100
DictionaryVariables
280
0
  1
1.4.4 @ 2026-08-04T19:10:37.363000+00:00
  0
ENDSEC
  0
EOF
