  0
SECTION
  2
HEADER
  9
$ACADVER
  1
AC1027
  9
$ACADMAINTVER
 70
105
  9
$DWGCODEPAGE
  3
ANSI_1252
  9
$LASTSAVEDBY
  1
ezdxf
  9
$REQUIREDVERSIONS
160
0
  9
$INSBASE
 10
0.0
 20
0.0
 30
0.0
  9
$EXTMIN
 10
1e+20
 20
1e+20
 30
1e+20
  9
$EXTMAX
 10
-1e+20
 20
-1e+20
 30
-1e+20
  9
$LIMMIN
 10
0.0
 20
0.0
  9
$LIMMAX
 10
420.0
 20
297.0
  9
$ORTHOMODE
 70
0
  9
$REGENMODE
 70
1
  9
$FILLMODE
 70
1
  9
$QTEXTMODE
 70
0
  9
$MIRRTEXT
 70
1
  9
$LTSCALE
 40
1.0
  9
$ATTMODE
 70
1
  9
$TEXTSIZE
 40
2.5
  9
$TRACEWID
 40
1.0
  9
$TEXTSTYLE
  7
Standard
  9
$CLAYER
  8
0
  9
$CELTYPE
  6
ByLayer
  9
$CECOLOR
 62
256
  9
$CELTSCALE
 40
1.0
  9
$DISPSILH
 70
0
  9
$DIMSCALE
 40
1.0
  9
$DIMASZ
 40
2.5
  9
$DIMEXO
 40
0.625
  9
$DIMDLI
 40
3.75
  9
$DIMRND
 40
0.0
  9
$DIMDLE
 40
0.0
  9
$DIMEXE
 40
1.25
  9
$DIMTP
 40
0.0
  9
$DIMTM
 40
0.0
  9
$DIMTXT
 40
2.5
  9
$DIMCEN
 40
2.5
  9
$DIMTSZ
 40
0.0
  9
$DIMTOL
 70
0
  9
$DIMLIM
 70
0
  9
$DIMTIH
 70
0
  9
$DIMTOH
 70
0
  9
$DIMSE1
 70
0
  9
$DIMSE2
 70
0
  9
$DIMTAD
 70
1
  9
$DIMZIN
 70
8
  9
$DIMBLK
  1

  9
$DIMASO
 70
1
  9
$DIMSHO
 70
1
  9
$DIMPOST
  1

  9
$DIMAPOST
  1

  9
$DIMALT
 70
0
  9
$DIMALTD
 70
3
  9
$DIMALTF
 40
0.03937007874
  9
$DIMLFAC
 40
1.0
  9
$DIMTOFL
 70
1
  9
$DIMTVP
 40
0.0
  9
$DIMTIX
 70
0
  9
$DIMSOXD
 70
0
  9
$DIMSAH
 70
0
  9
$DIMBLK1
  1

  9
$DIMBLK2
  1

  9
$DIMSTYLE
  2
ISO-25
  9
$DIMCLRD
 70
0
  9
$DIMCLRE
 70
0
  9
$DIMCLRT
 70
0
  9
$DIMTFAC
 40
1.0
  9
$DIMGAP
 40
0.625
  9
$DIMJUST
 70
0
  9
$DIMSD1
 70
0
  9
$DIMSD2
 70
0
  9
$DIMTOLJ
 70
0
  9
$DIMTZIN
 70
8
  9
$DIMALTZ
 70
0
  9
$DIMALTTZ
 70
0
  9
$DIMUPT
 70
0
  9
$DIMDEC
 70
2
  9
$DIMTDEC
 70
2
  9
$DIMALTU
 70
2
  9
$DIMALTTD
 70
3
  9
$DIMTXSTY
  7
Standard
  9
$DIMAUNIT
 70
0
  9
$DIMADEC
 70
0
  9
$DIMALTRND
 40
0.0
  9
$DIMAZIN
 70
0
  9
$DIMDSEP
 70
44
  9
$DIMATFIT
 70
3
  9
$DIMFRAC
 70
0
  9
$DIMLDRBLK
  1

  9
$DIMLUNIT
 70
2
  9
$DIMLWD
 70
-2
  9
$DIMLWE
 70
-2
  9
$DIMTMOVE
 70
0
  9
$DIMFXL
 40
1.0
  9
$DIMFXLON
 70
0
  9
$DIMJOGANG
 40
0.785398163397
  9
$DIMTFILL
 70
0
  9
$DIMTFILLCLR
 70
0
  9
$DIMARCSYM
 70
0
  9
$DIMLTYPE
  6

  9
$DIMLTEX1
  6

  9
$DIMLTEX2
  6

  9
$DIMTXTDIRECTION
 70
0
  9
$LUNITS
 70
2
  9
$LUPREC
 70
4
  9
$SKETCHINC
 40
1.0
  9
$FILLETRAD
 40
10.0
  9
$AUNITS
 70
0
  9
$AUPREC
 70
2
  9
$MENU
  1
.
  9
$ELEVATION
 40
0.0
  9
$PELEVATION
 40
0.0
  9
$THICKNESS
 40
0.0
  9
$LIMCHECK
 70
0
  9
$CHAMFERA
 40
0.0
  9
$CHAMFERB
 40
0.0
  9
$CHAMFERC
 40
0.0
  9
$CHAMFERD
 40
0.0
  9
$SKPOLY
 70
0
  9
$TDCREATE
 40
2461242.7713310183
  9
$TDUCREATE
 40
2458532.153996898
  9
$TDUPDATE
 40
2461242.7713310183
  9
$TDUUPDATE
 40
2458532.1544311
  9
$TDINDWG
 40
0.0
  9
$TDUSRTIMER
 40
0.0
  9
$USRTIMER
 70
1
  9
$ANGBASE
 50
0.0
  9
$ANGDIR
 70
0
  9
$PDMODE
 70
0
  9
$PDSIZE
 40
0.0
  9
$PLINEWID
 40
0.0
  9
$SPLFRAME
 70
0
  9
$SPLINETYPE
 70
6
  9
$SPLINESEGS
 70
8
  9
$HANDSEED
  5
40
  9
$SURFTAB1
 70
6
  9
$SURFTAB2
 70
6
  9
$SURFTYPE
 70
6
  9
$SURFU
 70
6
  9
$SURFV
 70
6
  9
$UCSBASE
  2

  9
$UCSNAME
  2

  9
$UCSORG
 10
0.0
 20
0.0
 30
0.0
  9
$UCSXDIR
 10
1.0
 20
0.0
 30
0.0
  9
$UCSYDIR
 10
0.0
 20
1.0
 30
0.0
  9
$UCSORTHOREF
  2

  9
$UCSORTHOVIEW
 70
0
  9
$UCSORGTOP
 10
0.0
 20
0.0
 30
0.0
  9
$UCSORGBOTTOM
 10
0.0
 20
0.0
 30
0.0
  9
$UCSORGLEFT
 10
0.0
 20
0.0
 30
0.0
  9
$UCSORGRIGHT
 10
0.0
 20
0.0
 30
0.0
  9
$UCSORGFRONT
 10
0.0
 20
0.0
 30
0.0
  9
$UCSORGBACK
 10
0.0
 20
0.0
 30
0.0
  9
$PUCSBASE
  2

  9
$PUCSNAME
  2

  9
$PUCSORG
 10
0.0
 20
0.0
 30
0.0
  9
$PUCSXDIR
 10
1.0
 20
0.0
 30
0.0
  9
$PUCSYDIR
 10
0.0
 20
1.0
 30
0.0
  9
$PUCSORTHOREF
  2

  9
$PUCSORTHOVIEW
 70
0
  9
$PUCSORGTOP
 10
0.0
 20
0.0
 30
0.0
  9
$PUCSORGBOTTOM
 10
0.0
 20
0.0
 30
0.0
  9
$PUCSORGLEFT
 10
0.0
 20
0.0
 30
0.0
  9
$PUCSORGRIGHT
 10
0.0
 20
0.0
 30
0.0
  9
$PUCSORGFRONT
 10
0.0
 20
0.0
 30
0.0
  9
$PUCSORGBACK
 10
0.0
 20
0.0
 30
0.0
  9
$USERI1
 70
0
  9
$USERI2
 70
0
  9
$USERI3
 70
0
  9
$USERI4
 70
0
  9
$USERI5
 70
0
  9
$USERR1
 40
0.0
  9
$USERR2
 40
0.0
  9
$USERR3
 40
0.0
  9
$USERR4
 40
0.0
  9
$USERR5
 40
0.0
  9
$WORLDVIEW
 70
1
  9
$SHADEDGE
 70
3
  9
$SHADEDIF
 70
70
  9
$TILEMODE
 70
1
  9
$MAXACTVP
 70
64
  9
$PINSBASE
 10
0.0
 20
0.0
 30
0.0
  9
$PLIMCHECK
 70
0
  9
$PEXTMIN
 10
1e+20
 20
1e+20
 30
1e+20
  9
$PEXTMAX
 10
-1e+20
 20
-1e+20
 30
-1e+20
  9
$PLIMMIN
 10
0.0
 20
0.0
  9
$PLIMMAX
 10
420.0
 20
297.0
  9
$UNITMODE
 70
0
  9
$VISRETAIN
 70
1
  9
$PLINEGEN
 70
0
  9
$PSLTSCALE
 70
1
  9
$TREEDEPTH
 70
3020
  9
$CMLSTYLE
  2
Standard
  9
$CMLJUST
 70
0
  9
$CMLSCALE
 40
20.0
  9
$PROXYGRAPHICS
 70
1
  9
$MEASUREMENT
 70
1
  9
$CELWEIGHT
370
-1
  9
$ENDCAPS
280
0
  9
$JOINSTYLE
280
0
  9
$LWDISPLAY
290
0
  9
$INSUNITS
 70
4
  9
$HYPERLINKBASE
  1

  9
$STYLESHEET
  1

  9
$XEDIT
290
1
  9
$CEPSNTYPE
380
0
  9
$PSTYLEMODE
290
1
  9
$FINGERPRINTGUID
  2
{24155427-3E84-4AFC-AE81-571A7A3FD216}
  9
$VERSIONGUID
  2
{E2202F89-C68A-4F7B-BD46-897E9AC0D418}
  9
$EXTNAMES
290
1
  9
$PSVPSCALE
 40
0.0
  9
$OLESTARTUP
290
0
  9
$SORTENTS
280
127
  9
$INDEXCTL
280
0
  9
$HIDETEXT
280
1
  9
$XCLIPFRAME
280
1
  9
$HALOGAP
280
0
  9
$OBSCOLOR
 70
257
  9
$OBSLTYPE
280
0
  9
$INTERSECTIONDISPLAY
280
0
  9
$INTERSECTIONCOLOR
 70
257
  9
$DIMASSOC
280
2
  9
$PROJECTNAME
  1

  9
$CAMERADISPLAY
290
0
  9
$LENSLENGTH
 40
50.0
  9
$CAMERAHEIGHT
 40
0.0
  9
$STEPSPERSEC
 40
24.0
  9
$STEPSIZE
 40
100.0
  9
$3DDWFPREC
 40
2.0
  9
$PSOLWIDTH
 40
0.005
  9
$PSOLHEIGHT
 40
0.08
  9
$LOFTANG1
 40
1.570796326795
  9
$LOFTANG2
 40
1.570796326795
  9
$LOFTMAG1
 40
0.0
  9
$LOFTMAG2
 40
0.0
  9
$LOFTPARAM
 70
7
  9
$LOFTNORMALS
280
1
  9
$LATITUDE
 40
37.795
  9
$LONGITUDE
 40
-122.394
  9
$NORTHDIRECTION
 40
0.0
  9
$TIMEZONE
 70
-8000
  9
$LIGHTGLYPHDISPLAY
280
1
  9
$TILEMODELIGHTSYNCH
280
1
  9
$CMATERIAL
347
20
  9
$SOLIDHIST
280
0
  9
$SHOWHIST
280
1
  9
$DWFFRAME
280
2
  9
$DGNFRAME
280
2
  9
$REALWORLDSCALE
290
1
  9
$INTERFERECOLOR
 62
256
  9
$CSHADOW
280
0
  9
$SHADOWPLANELOCATION
 40
0.0
  0
ENDSEC
  0
SECTION
  2
CLASSES
  0
CLASS
  1
ACDBDICTIONARYWDFLT
  2
AcDbDictionaryWithDefault
  3
ObjectDBX Classes
 90
0
 91
0
280
0
281
0
  0
CLASS
  1
SUN
  2
AcDbSun
  3
SCENEOE
 90
1153
 91
0
280
0
281
0
  0
CLASS
  1
VISUALSTYLE
  2
AcDbVisualStyle
  3
ObjectDBX Classes
 90
4095
 91
0
280
0
281
0
  0
CLASS
  1
MATERIAL
  2
AcDbMaterial
  3
ObjectDBX Classes
 90
1153
 91
0
280
0
281
0
  0
CLASS
  1
SCALE
  2
AcDbScale
  3
ObjectDBX Classes
 90
1153
 91
0
280
0
281
0
  0
CLASS
  1
TABLESTYLE
  2
AcDbTableStyle
  3
ObjectDBX Classes
 90
4095
 91
0
280
0
281
0
  0
CLASS
  1
MLEADERSTYLE
  2
AcDbMLeaderStyle
  3
ACDB_MLEADERSTYLE_CLASS
 90
4095
 91
0
280
0
281
0
  0
CLASS
  1
DICTIONARYVAR
  2
AcDbDictionaryVar
  3
ObjectDBX Classes
 90
0
 91
0
280
0
281
0
  0
CLASS
  1
CELLSTYLEMAP
  2
AcDbCellStyleMap
  3
ObjectDBX Classes
 90
1152
 91
0
280
0
281
0
  0
CLASS
  1
MENTALRAYRENDERSETTINGS
  2
AcDbMentalRayRenderSettings
  3
SCENEOE
 90
1024
 91
0
280
0
281
0
  0
CLASS
  1
ACDBDETAILVIEWSTYLE
  2
AcDbDetailViewStyle
  3
ObjectDBX Classes
 90
1025
 91
0
280
0
281
0
  0
CLASS
  1
ACDBSECTIONVIEWSTYLE
  2
AcDbSectionViewStyle
  3
ObjectDBX Classes
 90
1025
 91
0
280
0
281
0
  0
CLASS
  1
RASTERVARIABLES
  2
AcDbRasterVariables
  3
ISM
 90
0
 91
0
280
0
281
0
  0
CLASS
  1
LAYOUT
  2
AcDbLayout
  3
ObjectDBX Classes
 90
0
 91
0
280
0
281
0
  0
CLASS
  1
ACDBPLACEHOLDER
  2
AcDbPlaceHolder
  3
ObjectDBX Classes
 90
0
 91
0
280
0
281
0
  0
ENDSEC
  0
SECTION
  2
TABLES
  0
TABLE
  2
VPORT
  5
8
330
0
100
AcDbSymbolTable
 70
1
  0
VPORT
  5
23
330
8
100
AcDbSymbolTableRecord
100
AcDbViewportTableRecord
  2
*Active
 70
0
 10
0.0
 20
0.0
 11
1.0
 21
1.0
 12
0.0
 22
0.0
 13
0.0
 23
0.0
 14
0.5
 24
0.5
 15
0.5
 25
0.5
 16
0.0
 26
0.0
 36
1.0
 17
0.0
 27
0.0
 37
0.0
 40
1000.0
 41
1.34
 42
50.0
 43
0.0
 44
0.0
 50
0.0
 51
0.0
 71
0
 72
1000
 73
1
 74
3
 75
0
 76
0
 77
0
 78
0
281
0
 65
0
146
0.0
  0
ENDTAB
  0
TABLE
  2
LTYPE
  5
2
330
0
100
AcDbSymbolTable
 70
3
  0
LTYPE
  5
24
330
2
100
AcDbSymbolTableRecord
100
AcDbLinetypeTableRecord
  2
ByBlock
 70
0
  3

 72
65
 73
0
 40
0.0
  0
LTYPE
  5
25
330
2
100
AcDbSymbolTableRecord
100
AcDbLinetypeTableRecord
  2
ByLayer
 70
0
  3

 72
65
 73
0
 40
0.0
  0
LTYPE
  5
26
330
2
100
AcDbSymbolTableRecord
100
AcDbLinetypeTableRecord
  2
Continuous
 70
0
  3

 72
65
 73
0
 40
0.0
  0
ENDTAB
  0
TABLE
  2
LAYER
  5
1
330
0
100
AcDbSymbolTable
 70
3
  0
LAYER
  5
27
330
1
100
AcDbSymbolTableRecord
100
AcDbLayerTableRecord
  2
0
 70
0
 62
7
  6
Continuous
370
-3
390
13
347
21
  0
LAYER
  5
28
330
1
100
AcDbSymbolTableRecord
100
AcDbLayerTableRecord
  2
Defpoints
 70
0
 62
7
  6
Continuous
290
0
370
-3
390
13
347
21
  0
LAYER
  5
2F
330
1
100
AcDbSymbolTableRecord
100
AcDbLayerTableRecord
  2
K
 70
0
 62
7
  6
Continuous
370
-3
390
13
347
21
  0
ENDTAB
  0
TABLE
  2
STYLE
  5
5
330
0
100
AcDbSymbolTable
 70
1
  0
STYLE
  5
29
330
5
100
AcDbSymbolTableRecord
100
AcDbTextStyleTableRecord
  2
Standard
 70
0
 40
0.0
 41
1.0
 50
0.0
 71
0
 42
2.5
  3
txt
  4

  0
ENDTAB
  0
TABLE
  2
VIEW
  5
7
330
0
100
AcDbSymbolTable
 70
0
  0
ENDTAB
  0
TABLE
  2
UCS
  5
6
330
0
100
AcDbSymbolTable
 70
0
  0
ENDTAB
  0
TABLE
  2
APPID
  5
3
330
0
100
AcDbSymbolTable
 70
3
  0
APPID
  5
2A
330
3
100
AcDbSymbolTableRecord
100
AcDbRegAppTableRecord
  2
ACAD
 70
0
  0
APPID
  5
3D
330
3
100
AcDbSymbolTableRecord
100
AcDbRegAppTableRecord
  2
HATCHBACKGROUNDCOLOR
 70
0
  0
APPID
  5
3E
330
3
100
AcDbSymbolTableRecord
100
AcDbRegAppTableRecord
  2
EZDXF
 70
0
  0
ENDTAB
  0
TABLE
  2
DIMSTYLE
  5
4
330
0
100
AcDbSymbolTable
 70
1
100
AcDbDimStyleTable
  0
DIMSTYLE
105
2B
330
4
100
AcDbSymbolTableRecord
100
AcDbDimStyleTableRecord
  2
Standard
 70
0
 40
1.0
 41
2.5
 42
0.625
 43
3.75
 44
1.25
 45
0.0
 46
0.0
 47
0.0
 48
0.0
 49
2.5
140
2.5
141
2.5
142
0.0
143
0.03937007874
144
1.0
145
0.0
146
1.0
147
0.625
148
0.0
 69
0
 70
0
 71
0
 72
0
 73
0
 74
0
 75
0
 76
0
 77
1
 78
8
 79
3
170
0
171
3
172
1
173
0
174
0
175
0
176
0
177
0
178
0
179
2
271
2
272
2
273
2
274
3
275
0
276
0
277
2
278
44
279
0
280
0
281
0
282
0
283
0
284
8
285
0
286
0
288
0
289
3
290
0
371
-2
372
-2
  0
ENDTAB
  0
TABLE
  2
BLOCK_RECORD
  5
9
330
0
100
AcDbSymbolTable
 70
2
  0
BLOCK_RECORD
  5
17
330
9
100
AcDbSymbolTableRecord
100
AcDbBlockTableRecord
  2
*Model_Space
340
1A
 70
0
280
1
281
0
  0
BLOCK_RECORD
  5
1B
330
9
100
AcDbSymbolTableRecord
100
AcDbBlockTableRecord
  2
*Paper_Space
340
1E
 70
0
280
1
281
0
  0
ENDTAB
  0
ENDSEC
  0
SECTION
  2
BLOCKS
  0
BLOCK
  5
18
330
17
100
AcDbEntity
  8
0
100
AcDbBlockBegin
  2
*Model_Space
 70
0
 10
0.0
 20
0.0
 30
0.0
  3
*Model_Space
  1

  0
ENDBLK
  5
19
330
17
100
AcDbEntity
  8
0
100
AcDbBlockEnd
  0
BLOCK
  5
1C
330
1B
100
AcDbEntity
  8
0
100
AcDbBlockBegin
  2
*Paper_Space
 70
0
 10
0.0
 20
0.0
 30
0.0
  3
*Paper_Space
  1

  0
ENDBLK
  5
1D
330
1B
100
AcDbEntity
  8
0
100
AcDbBlockEnd
  0
ENDSEC
  0
SECTION
  2
ENTITIES
  0
LWPOLYLINE
  5
30
330
17
100
AcDbEntity
  8
K
100
AcDbPolyline
 90
25
 70
1
 10
112.16209589835266
 20
491.4538955599994
 10
107.65305447942444
 20
494.31238733528016
 10
99.76325464794536
 20
504.31581193556065
 10
94.12961263694716
 20
508.60152622127487
 10
83.36898542353514
 20
522.2448537175715
 10
86.26467741718827
 20
525.916282289
 10
113.40313758968543
 20
525.916282289
 10
114.52986599188506
 20
524.4877108604285
 10
119.02489164968163
 20
524.4877108604285
 10
122.40507685628052
 20
521.6305680032856
 10
133.684248829279
 20
521.6305680032856
 10
134.76248797162575
 20
520.2634757839746
 10
135.88921637382543
 20
521.692047212546
 10
137.07343599741876
 20
520.190583047698
 10
142.70707800841694
 20
518.7620116191267
 10
145.59376804052923
 20
515.1019965747143
 10
144.43967939032274
 20
513.6387352701222
 10
144.43967939032274
 20
510.7880542543635
 10
136.54721559694391
 20
497.9221656860351
 10
135.42036088722628
 20
492.20723939390984
 10
130.918938563927
 20
485.07308520639134
 10
130.918938563927
 20
482.2101638415508
 10
126.91371663715736
 20
477.1319696658287
 10
124.00371257947965
 20
477.8698846142242
 10
112.16209589835266
 20
491.4538955599994
  0
LWPOLYLINE
  5
31
330
17
100
AcDbEntity
  8
K
100
AcDbPolyline
 90
18
 70
1
 10
6.7587942193712
 20
473.68273166756916
 10
10.167582398585479
 20
478.0047114715491
 10
11.292559748286774
 20
482.28376531390137
 10
14.68325126987599
 20
488.0158122104863
 10
20.94026873632515
 20
495.9490429368893
 10
23.24540283415691
 20
494.4877108604284
 10
27.674800502806768
 20
494.4877108604284
 10
28.7993569967758
 20
495.91352854103565
 10
53.68429886237119
 20
497.34768544414834
 10
56.58222426675741
 20
493.6734251461428
 10
53.16230840756167
 20
489.3373366309093
 10
47.52866639656347
 20
475.051622345195
 10
41.24403058905538
 20
467.08337450831095
 10
40.068812927002845
 20
468.57342514614265
 10
31.151964229111456
 20
468.57342514614265
 10
30.02249862543835
 20
467.14138323807373
 10
9.63492505419808
 20
468.5774537155587
 10
6.7587942193712
 20
473.68273166756916
  0
LWPOLYLINE
  5
32
330
17
100
AcDbEntity
  8
K
100
AcDbPolyline
 90
12
 70
1
 10
0.0
 20
559.3885936045317
 10
5.13423897648127
 20
567.3448537175714
 10
28.89850742471217
 20
567.3448537175714
 10
31.766839170358384
 20
563.7081150221635
 10
31.766839170358384
 20
557.9244495558364
 10
30.640110768158756
 20
556.4958781272651
 10
30.640110768158756
 20
542.2101638415509
 10
28.38665396375947
 20
539.3530209844077
 10
28.38665396375947
 20
529.353020984408
 10
24.381432036989864
 20
524.2748268086858
 10
21.46274655489083
 20
525.0149431811093
 10
0.0
 20
559.3885936045317
  0
LWPOLYLINE
  5
33
330
17
100
AcDbEntity
  8
K
100
AcDbPolyline
 90
124
 70
1
 10
1405.0654439853542
 20
440.00585267639525
 10
1403.6782188446557
 20
441.4305680032855
 10
1396.7233199831292
 20
441.4305680032855
 10
1395.332340210824
 20
442.85913943185705
 10
1386.9864615769923
 20
442.85913943185705
 10
1385.6176083199373
 20
444.26498636929665
 10
1382.8356487753267
 20
442.83641494072515
 10
1381.4225424877711
 20
444.2877108604286
 10
1371.685684081634
 20
444.2877108604286
 10
1370.299493481794
 20
445.7113636876757
 10
1357.799345289385
 20
444.2849227384713
 10
1355.0361312973762
 20
445.70386808857876
 10
1352.2541717527656
 20
444.2752966600074
 10
1343.908293118934
 20
448.56101094572165
 10
1341.106255606168
 20
447.12212922643937
 10
1339.6931493186123
 20
448.5734251461428
 10
1332.738250457086
 20
448.5734251461428
 10
1331.3894751681862
 20
449.95865150216076
 10
1330.0353001948567
 20
448.56787953358037
 10
1318.9074620164145
 20
449.9964509621517
 10
1317.4796774451333
 20
448.53008007358943
 10
1316.0464931894226
 20
450.00199657471416
 10
1313.3309131905626
 20
450.00199657471416
 10
1310.524778583607
 20
448.56101094572165
 10
1307.7628970071514
 20
449.97927208358226
 10
1306.3940437500964
 20
448.5734251461428
 10
1302.1366954663695
 20
448.5734251461428
 10
1300.7457156940643
 20
450.00199657471416
 10
1293.7908168325378
 20
450.00199657471416
 10
1292.3998370602326
 20
451.4305680032857
 10
1285.444938198706
 20
451.4305680032857
 10
1282.6629786540955
 20
454.28771086042843
 10
1277.1103100244648
 20
454.28771086042843
 10
1272.9328120544758
 20
457.14797495228777
 10
1259.0964291153705
 20
458.5690064967525
 10
1257.6876252041611
 20
457.12212922643937
 10
1252.1036281467848
 20
459.989582374293
 10
1249.3015906340188
 20
458.5507006550109
 10
1247.8884843464632
 20
460.0019965747142
 10
1245.1909337686639
 20
460.0019965747142
 10
1243.7999539963585
 20
458.5734251461429
 10
1232.5877068511052
 20
458.5734251461429
 10
1231.1967270787998
 20
460.0019965747142
 10
1227.0901673076346
 20
460.0019965747142
 10
1224.2639547325236
 20
458.5507006550109
 10
1222.850848444968
 20
460.0019965747142
 10
1215.8959495834415
 20
460.0019965747142
 10
1214.5136979168913
 20
461.42160401778744
 10
1207.558799055365
 20
459.9930325892161
 10
1206.1590911773046
 20
461.43056800328554
 10
1199.204192315778
 20
461.43056800328554
 10
1193.6252969716131
 20
467.1602347104122
 10
1186.6763453108301
 20
470.0149343972859
 10
1174.1541726533408
 20
480.0176141285155
 10
1160.2387292701696
 20
487.16337038928236
 10
1154.6829824196236
 20
492.8692630076288
 10
1149.1190633304025
 20
494.2978344362001
 10
1144.9559811958718
 20
498.5734251461429
 10
1142.1740216512612
 20
498.5734251461429
 10
1136.5904991759387
 20
504.30784403407006
 10
1130.2311063746165
 20
507.9363203386118
 10
1132.437163245124
 20
510.2019965747142
 10
1135.303531756546
 20
510.2019965747142
 10
1136.694511528851
 20
508.77342514614264
 10
1143.6494103903776
 20
508.77342514614264
 10
1145.0403901626828
 20
507.3448537175713
 10
1151.9952890242093
 20
507.3448537175713
 10
1153.3913847689353
 20
505.911028055851
 10
1164.508524518602
 20
504.48383007191745
 10
1168.6757958322823
 20
501.63056800328553
 10
1178.4100369589687
 20
501.63056800328553
 10
1185.3695788380878
 20
497.3419926196285
 10
1199.2927215967009
 20
495.91205062213174
 10
1200.6795810548945
 20
494.4877108604284
 10
1207.634479916421
 20
494.4877108604284
 10
1208.9832552053208
 20
493.1024845044103
 10
1210.3320304942204
 20
494.4877108604284
 10
1214.5893787779473
 20
494.4877108604284
 10
1215.9803585502527
 20
493.0591394318571
 10
1229.8901562733056
 20
493.0591394318571
 10
1231.2811360456108
 20
491.63056800328576
 10
1236.845055134832
 20
491.63056800328576
 10
1238.2360349071373
 20
490.2019965747142
 10
1245.1909337686639
 20
490.2019965747142
 10
1246.570946057038
 20
488.784689029701
 10
1252.1348651462592
 20
490.21326045827254
 10
1253.5368124024956
 20
488.77342514614264
 10
1259.1007314917167
 20
488.77342514614264
 10
1260.4954658956287
 20
487.3409976158902
 10
1275.7853902771283
 20
485.9134394984643
 10
1279.959845619941
 20
483.05525864334606
 10
1291.098382227159
 20
481.62531377013653
 10
1293.875225799349
 20
478.77342514614287
 10
1298.0301356952045
 20
478.77342514614287
 10
1303.5940547844257
 20
475.91628228899975
 10
1309.1579738736468
 20
475.91628228899975
 10
1314.7579518049888
 20
473.04062276014605
 10
1318.9128617008441
 20
468.77342514614264
 10
1321.6948212454547
 20
468.77342514614264
 10
1325.2696392602795
 20
465.10199657471406
 10
1322.4876797156687
 20
462.2448537175714
 10
1324.454654274815
 20
460.2247210658461
 10
1327.2366138194257
 20
461.6532924944174
 10
1328.649720106981
 20
460.20199657471414
 10
1335.6046189685078
 20
460.20199657471414
 10
1336.9955987408132
 20
458.7734251461428
 10
1343.9504976023395
 20
458.7734251461428
 10
1345.341477374645
 20
457.34485371757125
 10
1352.2963762361712
 20
457.34485371757125
 10
1353.6873560084766
 20
455.9162822889999
 10
1366.194923499634
 20
455.9162822889999
 10
1370.3716746107507
 20
453.0565295591158
 10
1387.074319000076
 20
451.6270263514215
 10
1388.467668257351
 20
450.1960214018199
 10
1398.2045266634882
 20
448.7674499732486
 10
1399.567561979301
 20
447.3675782087032
 10
1402.3495215239116
 20
448.79614963727477
 10
1405.1536075837723
 20
445.9162822889999
 10
1412.0972559857084
 20
445.9162822889999
 10
1416.2701953026242
 20
443.05913943185703
 10
1420.4543850791304
 20
443.05913943185703
 10
1422.6382233216498
 20
440.81628228900007
 10
1420.4504798582352
 20
438.5694143854515
 10
1405.0654439853542
 20
440.00585267639525
  0
LWPOLYLINE
  5
34
330
17
100
AcDbEntity
  8
K
100
AcDbPolyline
 90
98
 70
1
 10
1342.4863593228133
 20
384.28771086042855
 10
1327.2587403346758
 20
384.28771086042855
 10
1325.8677605623704
 20
382.859139431857
 10
1323.0013920509489
 20
382.859139431857
 10
1321.6104122786437
 20
384.28771086042855
 10
1318.9128617008441
 20
384.28771086042855
 10
1317.5218819285387
 20
382.859139431857
 10
1313.264533644812
 20
382.859139431857
 10
1311.8735538725066
 20
384.28771086042855
 10
1307.785023522402
 20
384.28771086042855
 10
1306.3940437500967
 20
382.859139431857
 10
1302.1366954663695
 20
382.859139431857
 10
1300.7457156940643
 20
384.28771086042855
 10
1293.8752257993492
 20
384.28771086042855
 10
1292.4420415436382
 20
382.8157943593036
 10
1291.0088572879272
 20
384.28771086042855
 10
1282.7473876209065
 20
384.28771086042855
 10
1281.314203365196
 20
382.8157943593036
 10
1279.881019109485
 20
384.28771086042855
 10
1271.6195494424642
 20
384.28771086042855
 10
1270.1863651867536
 20
382.8157943593036
 10
1268.7531809310426
 20
384.28771086042855
 10
1261.8646616152669
 20
384.28771086042855
 10
1259.038449040156
 20
382.8364149407251
 10
1257.6253427526003
 20
384.28771086042855
 10
1246.497504574158
 20
384.28771086042855
 10
1245.1487292852582
 20
385.6729372164467
 10
1243.7999539963585
 20
384.28771086042855
 10
1238.2360349071373
 20
384.28771086042855
 10
1236.8028506514265
 20
382.8157943593036
 10
1235.3758540606352
 20
384.2813559719609
 10
1225.638995654498
 20
382.85278454338936
 10
1224.2418282172735
 20
384.28771086042855
 10
1214.5893787779473
 20
384.28771086042855
 10
1213.1561945222368
 20
382.8157943593036
 10
1211.7230102665258
 20
384.28771086042855
 10
1200.5951720880835
 20
384.28771086042855
 10
1199.204192315778
 20
385.7162822889999
 10
1188.0763541373358
 20
385.7162822889999
 10
1186.6853743650306
 20
387.1448537175712
 10
1175.557536186588
 20
387.1448537175712
 10
1172.0222912392305
 20
390.7756397472104
 10
1172.0222912392305
 20
397.9997819736465
 10
1174.166556414283
 20
400.2019965747141
 10
1179.814884470315
 20
400.2019965747141
 10
1181.2058642426205
 20
398.77342514614276
 10
1190.9427226487574
 20
398.77342514614276
 10
1192.3337024210628
 20
397.3448537175714
 10
1203.461540599505
 20
397.3448537175714
 10
1204.8463327068907
 20
395.92263717746755
 10
1214.5831911130279
 20
397.3512086060391
 10
1215.9803585502527
 20
395.91628228899987
 10
1221.4598686726627
 20
395.91628228899987
 10
1222.850848444968
 20
397.3448537175714
 10
1225.7172169563896
 20
397.3448537175714
 10
1227.108196728695
 20
395.91628228899987
 10
1231.2079775383902
 20
395.91628228899987
 10
1235.4248119596384
 20
398.80347940149676
 10
1236.845055134832
 20
397.3448537175714
 10
1243.7155450295475
 20
397.3448537175714
 10
1245.1487292852582
 20
398.816770218696
 10
1246.581913540969
 20
397.3448537175714
 10
1257.7097517194113
 20
397.3448537175714
 10
1259.0934884575247
 20
395.92372106841924
 10
1267.4393670913564
 20
397.3522924969908
 10
1268.8375898978536
 20
395.91628228899987
 10
1272.9261202479586
 20
395.91628228899987
 10
1274.3171000202638
 20
397.3448537175714
 10
1277.1834685316853
 20
397.3448537175714
 10
1278.5322438205853
 20
395.9596273615533
 10
1279.881019109485
 20
397.3448537175714
 10
1295.1817966048432
 20
397.3448537175714
 10
1296.614980860554
 20
398.8167702186962
 10
1298.0481651162647
 20
397.3448537175714
 10
1303.5276752386749
 20
397.3448537175714
 10
1304.91865501098
 20
398.77342514614276
 10
1316.1309021562336
 20
398.77342514614276
 10
1317.4796774451333
 20
397.3881987901249
 10
1318.8284527340331
 20
398.77342514614276
 10
1329.9562909124754
 20
398.77342514614276
 10
1331.3693972000308
 20
400.22472106584604
 10
1334.195609775142
 20
398.77342514614276
 10
1346.6480481801389
 20
398.77342514614276
 10
1348.039027952444
 20
400.2019965747141
 10
1350.905396463866
 20
400.2019965747141
 10
1352.2963762361712
 20
398.77342514614276
 10
1357.8602953253924
 20
398.77342514614276
 10
1360.0045605004448
 20
396.57121054507496
 10
1360.0045605004448
 20
392.2854962593607
 10
1362.7865200450553
 20
389.4283534022178
 10
1362.7865200450553
 20
386.5712105450749
 10
1364.2293600593766
 20
385.0893773354929
 10
1359.241816882991
 20
381.43056800328566
 10
1354.9939268139706
 20
381.43056800328566
 10
1353.6029470416652
 20
382.859139431857
 10
1348.1234369192555
 20
382.859139431857
 10
1346.7031937440618
 20
381.4005137479317
 10
1342.4863593228133
 20
384.28771086042855
  0
LWPOLYLINE
  5
35
330
17
100
AcDbEntity
  8
K
100
AcDbPolyline
 90
16
 70
1
 10
2731.0885497704617
 20
0.7182397809253338
 10
2729.6816268625817
 20
2.2050398465370824
 10
2729.6816268625817
 20
13.633611275108425
 10
2725.007200585258
 20
18.573425146142796
 10
2722.3035554686253
 20
18.573425146142796
 10
2716.1399020598014
 20
25.087016076619673
 10
2720.2404208697185
 20
32.30922136055292
 10
2727.7683402309503
 20
38.818113176069204
 10
2733.9228309653226
 20
30.868892224869104
 10
2737.9761436744348
 20
22.30201827875755
 10
2742.036477510843
 20
18.011161558346146
 10
2743.385996912854
 20
13.732749022273282
 10
2748.8071426790093
 20
9.436053107557685
 10
2748.8071426790093
 20
2.2050398465370824
 10
2746.7205668544348
 20
0.0
 10
2731.0885497704617
 20
0.7182397809253338
  0
LWPOLYLINE
  5
36
330
17
100
AcDbEntity
  8
K
100
AcDbPolyline
 90
32
 70
1
 10
2432.3502566960774
 20
392.1457262509718
 10
2428.972076395676
 20
394.28771086042855
 10
2420.8471249640993
 20
394.28771086042855
 10
2419.495302405783
 20
395.71628228899993
 10
2416.8777519355835
 20
395.71628228899993
 10
2415.4828820540506
 20
394.2422195526787
 10
2414.0880121725177
 20
395.71628228899993
 10
2403.273431705988
 20
395.71628228899993
 10
2401.18874519173
 20
397.91932556082264
 10
2401.18874519173
 20
407.9989533028916
 10
2403.316479029204
 20
410.247487882464
 10
2404.711348910737
 20
408.7734251461428
 10
2410.118639144002
 20
408.7734251461428
 10
2411.447847559789
 20
407.36875176373144
 10
2414.1062643913624
 20
408.7734251461428
 10
2419.563144833371
 20
408.7734251461428
 10
2424.970435066636
 20
405.9162822889999
 10
2427.6062377556805
 20
405.9162822889999
 10
2428.9580603139966
 20
407.34485371757125
 10
2456.080606126755
 20
407.34485371757125
 10
2458.7842512433876
 20
404.48771086042854
 10
2462.7536242719034
 20
404.48771086042854
 10
2464.1054468302195
 20
405.9162822889999
 10
2473.6384374492677
 20
405.9162822889999
 10
2479.794453574073
 20
402.30210448650496
 10
2479.794453574073
 20
393.63361127510865
 10
2477.709767059815
 20
391.43056800328566
 10
2469.5127370634846
 20
391.43056800328566
 10
2468.160914505168
 20
392.85913943185705
 10
2457.4324286850715
 20
392.85913943185705
 10
2456.079368441839
 20
391.42926004959213
 10
2432.3502566960774
 20
392.1457262509718
  0
LWPOLYLINE
  5
37
330
17
100
AcDbEntity
  8
K
100
AcDbPolyline
 90
38
 70
1
 10
2391.781944276935
 20
463.5744773588
 10
2389.7552061228253
 20
465.716282289
 10
2387.0629197693715
 20
465.716282289
 10
2383.0171769061244
 20
468.56657385832136
 10
2376.331223944232
 20
467.1534651162943
 10
2374.971252627779
 20
465.716282289
 10
2361.3669323981835
 20
465.716282289
 10
2360.0151098398674
 20
467.1448537175713
 10
2354.6078196066023
 20
467.1448537175713
 10
2353.255997048286
 20
468.57342514614265
 10
2345.1450616983884
 20
468.57342514614265
 10
2343.022700281832
 20
470.81628228899984
 10
2345.7804388388076
 20
473.7305897073287
 10
2353.8913741887054
 20
490.87344685018587
 10
2359.2822458839255
 20
496.5703818743201
 10
2359.2822458839255
 20
499.41017404131105
 10
2362.0023095386027
 20
505.1591611359001
 10
2366.054188541153
 20
509.4410830046114
 10
2370.1096562161015
 20
520.8696544331827
 10
2376.2369805396625
 20
527.3448537175714
 10
2380.3785428610445
 20
527.3448537175714
 10
2387.1376556526257
 20
520.2019965747143
 10
2388.4961513199805
 20
520.2019965747143
 10
2393.9034415532456
 20
513.0591394318571
 10
2395.2485910025234
 20
513.0591394318571
 10
2401.368824680818
 20
506.5914333596322
 10
2406.0872495922385
 20
498.7558025743295
 10
2410.129956590191
 20
497.3317261978771
 10
2431.111690077841
 20
476.5892814972654
 10
2432.4806640330034
 20
473.6958883270255
 10
2432.4806640330034
 20
465.0621827036796
 10
2430.3733633762167
 20
462.83524138569686
 10
2427.624489974525
 20
464.28771086042843
 10
2424.988687285481
 20
464.28771086042843
 10
2423.593817403948
 20
462.8136481241072
 10
2422.241994845632
 20
464.24221955267853
 10
2420.932213339052
 20
462.8580760299503
 10
2391.781944276935
 20
463.5744773588
  0
LWPOLYLINE
  5
38
330
17
100
AcDbEntity
  8
K
100
AcDbPolyline
 90
102
 70
1
 10
4942.404344473232
 20
386.47542007874637
 10
4938.812831782315
 20
393.64979288810355
 10
4938.812831782315
 20
396.5668065279249
 10
4941.8431052697815
 20
400.1987544425256
 10
4962.199120507627
 20
401.6339187718192
 10
4963.347026778554
 20
400.25809054902226
 10
4964.492137374738
 20
401.63056800328565
 10
4971.643609080955
 20
401.63056800328565
 10
4974.027432983026
 20
404.48771086042854
 10
4976.4112568851
 20
404.48771086042854
 10
4977.649970190987
 20
405.9723762633081
 10
4978.888683496873
 20
404.48771086042854
 10
4983.656331301018
 20
404.48771086042854
 10
4984.823419540724
 20
403.08889200269584
 10
4987.207243442796
 20
404.5174634312674
 10
4988.423979105162
 20
403.05913943185703
 10
4990.714200297532
 20
403.05913943185703
 10
4991.906112248568
 20
404.48771086042854
 10
4996.673760052713
 20
404.48771086042854
 10
4997.865672003749
 20
405.9162822889999
 10
5006.209055661
 20
405.9162822889999
 10
5008.58936278936
 20
408.7692101011957
 10
5024.10267200974
 20
410.1994829107809
 10
5028.924161729059
 20
413.08889200269584
 10
5030.116073680096
 20
411.6603205741245
 10
5034.84818397076
 20
414.4961666079761
 10
5039.607902468226
 20
413.0699711059487
 10
5043.164399254206
 20
415.9117412494795
 10
5053.888481072151
 20
417.3398964145636
 10
5058.661643633748
 20
421.6305680032857
 10
5067.008321420166
 20
421.6305680032857
 10
5070.584057273273
 20
424.4877108604286
 10
5074.148036870057
 20
424.4877108604286
 10
5075.346861397992
 20
425.9245673891256
 10
5083.690245055243
 20
424.4959959605543
 10
5084.875244429381
 20
425.9162822889999
 10
5102.753923694922
 20
425.9162822889999
 10
5105.65026973594
 20
429.38771086042846
 10
5102.753923694922
 20
432.85913943185705
 10
5099.178187841814
 20
432.85913943185705
 10
5096.114974127651
 20
436.5305680032856
 10
5099.185100418713
 20
440.2102816748399
 10
5115.941159862151
 20
437.34127447588
 10
5125.468492007338
 20
433.05913943185703
 10
5129.055011118191
 20
433.05913943185703
 10
5134.965180560574
 20
428.80894333504017
 10
5136.160196905283
 20
430.2412355486076
 10
5143.360776483526
 20
424.4877108604286
 10
5146.929137017246
 20
424.4877108604286
 10
5156.453150361606
 20
418.7801863502243
 10
5162.433354039852
 20
420.21370635215914
 10
5163.635035907464
 20
418.7734251461428
 10
5168.38810550238
 20
418.7734251461428
 10
5174.347665257561
 20
414.48771086042836
 10
5176.746067368861
 20
414.48771086042836
 10
5179.812182361552
 20
410.81280494857396
 10
5167.859926381239
 20
397.9199178128725
 10
5167.859926381239
 20
393.64748523046325
 10
5165.45891743003
 20
389.3308751178701
 10
5162.443123956428
 20
385.7162822889999
 10
5160.059300054356
 20
385.7162822889999
 10
5158.86738810332
 20
384.28771086042855
 10
5152.83335721415
 20
384.28771086042855
 10
5148.065709410006
 20
387.1448537175712
 10
5144.489973556897
 20
387.1448537175712
 10
5139.7117579964
 20
390.0083295906631
 10
5133.806823291921
 20
391.4238067992042
 10
5129.050457751705
 20
388.57342514614277
 10
5111.182447934717
 20
388.57342514614277
 10
5106.36614836912
 20
384.2439770198327
 10
5105.1845489518455
 20
385.6601883146917
 10
5103.99263700081
 20
384.2316168861204
 10
5102.753923694922
 20
385.7162822889999
 10
5081.3931112859755
 20
385.7162822889999
 10
5080.20119933494
 20
384.28771086042855
 10
5057.554872265255
 20
384.28771086042855
 10
5056.362960314218
 20
382.859139431857
 10
5050.309797849335
 20
382.859139431857
 10
5046.089799768026
 20
387.9170371082279
 10
5044.89788781699
 20
396.4884656796563
 10
5041.966414192083
 20
400.00199657471416
 10
5039.657061424
 20
400.00199657471416
 10
5034.897081827375
 20
397.1494490998737
 10
5026.571545220736
 20
395.7239334802682
 10
5025.373249587281
 20
394.28771086042855
 10
5018.221777881064
 20
394.28771086042855
 10
5015.837953978992
 20
391.43056800328566
 10
5013.454130076921
 20
391.43056800328566
 10
5012.262218125884
 20
390.0019965747143
 10
5005.098990163343
 20
390.0019965747143
 10
5001.523254310234
 20
387.1448537175712
 10
4997.959274713451
 20
387.1448537175712
 10
4996.767362762415
 20
385.7162822889999
 10
4990.733331873245
 20
385.7162822889999
 10
4988.399155393833
 20
387.1151011467324
 10
4987.2320671541265
 20
385.7162822889999
 10
4984.848243252054
 20
385.7162822889999
 10
4982.464419349983
 20
382.859139431857
 10
4978.888683496873
 20
382.859139431857
 10
4977.695020838414
 20
381.42846968503073
 10
4945.419831431168
 20
382.8611946256062
 10
4942.404344473232
 20
386.47542007874637
  0
LWPOLYLINE
  5
39
330
17
100
AcDbEntity
  8
K
100
AcDbPolyline
 90
5
 70
1
 10
5089.701594978207
 20
441.67239751329566
 10
5092.7997086573905
 20
437.95913943185695
 10
5089.701594978207
 20
434.2458813504182
 10
5085.36423582735
 20
437.95913943185695
 10
5089.701594978207
 20
441.67239751329566
  0
LWPOLYLINE
  5
3A
330
17
100
AcDbEntity
  8
K
100
AcDbPolyline
 90
50
 70
1
 10
7050.989794446897
 20
412.862493581043
 10
7049.621969863191
 20
414.2877108604284
 10
7037.349694009033
 20
414.2877108604284
 10
7034.587832360815
 20
412.8488374145203
 10
7027.75263561113
 20
415.69763561033943
 10
7026.407568038839
 20
414.29613020620627
 10
7019.467832428289
 20
412.8499460647106
 10
7018.087965609652
 20
414.2877108604284
 10
7012.615096953206
 20
414.2877108604284
 10
7008.501965963615
 20
417.1448537175715
 10
7003.006485314481
 20
417.1448537175715
 10
7001.635441651284
 20
418.5734251461428
 10
6989.296048682509
 20
418.5734251461428
 10
6987.925005019311
 20
420.00199657471416
 10
6982.440830366521
 20
420.00199657471416
 10
6981.069786703324
 20
421.4305680032857
 10
6971.472481060942
 20
421.4305680032857
 10
6968.730393734548
 20
424.2877108604286
 10
6960.504131755364
 20
424.2877108604286
 10
6957.019152670635
 20
427.9189165493873
 10
6957.019152670635
 20
432.28507660004124
 10
6958.390196333832
 20
433.71364802861257
 10
6958.390196333832
 20
445.1422194571841
 10
6961.875175418561
 20
448.7734251461428
 10
6967.444610217879
 20
448.7734251461428
 10
6968.773023807812
 20
447.38927251056657
 10
6970.101437397745
 20
448.7734251461428
 10
6972.928784870668
 20
448.7734251461428
 10
6975.648499825524
 20
445.93959338523126
 10
6978.377734476426
 20
447.3614688326739
 10
6986.6279155062975
 20
441.6305680032855
 10
6996.2365271450235
 20
441.6305680032855
 10
6997.611361255422
 20
440.1980470837392
 10
7012.692841550594
 20
438.76947565516787
 10
7016.791093930845
 20
434.4992642719288
 10
7022.275268583635
 20
435.9278357005003
 10
7023.65740040897
 20
434.48771086042836
 10
7033.254706051351
 20
434.48771086042836
 10
7035.974421006207
 20
431.65387909951704
 10
7038.671763589523
 20
433.05913943185703
 10
7049.621969863191
 20
433.05913943185703
 10
7051.015385897927
 20
434.5110219566597
 10
7053.802217967401
 20
433.05913943185703
 10
7066.159753968088
 20
433.05913943185703
 10
7068.27368938962
 20
430.8565051714697
 10
7068.27368938962
 20
425.1205317499085
 10
7071.015776716014
 20
417.97767460705114
 10
7071.015776716014
 20
413.63320226367284
 10
7068.898510495008
 20
411.42709744644577
 10
7050.989794446897
 20
412.862493581043
  0
LWPOLYLINE
  5
3B
330
17
100
AcDbEntity
  8
K
100
AcDbPolyline
 90
24
 70
1
 10
6904.296915433224
 20
535.7202640505532
 10
6900.189516571025
 20
538.5734251461429
 10
6896.150339731617
 20
538.5734251461429
 10
6894.77929606842
 20
537.1448537175713
 10
6881.050716404536
 20
537.1448537175713
 10
6878.263884335062
 20
535.6929711927685
 10
6876.127576541991
 20
537.9189165493872
 10
6876.127576541991
 20
540.8565051714697
 10
6877.49862020519
 20
542.2850766000413
 10
6877.49862020519
 20
549.4279337428984
 10
6878.869663868387
 20
550.8565051714697
 10
6878.869663868387
 20
557.9993623143268
 10
6883.707543584402
 20
563.04023513456
 10
6889.272749044092
 20
565.9395933852313
 10
6890.636583418754
 20
564.518533740491
 10
6898.8184729078275
 20
570.201996574714
 10
6904.382593522131
 20
570.201996574714
 10
6910.5916247070545
 20
562.2947607572244
 10
6913.333712033449
 20
555.1519036143673
 10
6925.705514425259
 20
539.3963443192271
 10
6923.5863936200385
 20
535.7162822889998
 10
6916.715994679578
 20
535.7162822889998
 10
6915.339493801772
 20
534.2820246659774
 10
6904.296915433224
 20
535.7202640505532
  0
LWPOLYLINE
  5
3C
330
17
100
AcDbEntity
  8
K
100
AcDbPolyline
 90
12
 70
1
 10
7761.817876618597
 20
135.72648321968018
 10
7760.443464424632
 20
137.14485371757146
 10
7753.521979543581
 20
137.14485371757146
 10
7750.003583443166
 20
140.77577990597666
 10
7750.003583443166
 20
152.21536267784708
 10
7747.217716048749
 20
156.52781582032262
 10
7749.353902118259
 20
160.20199657471423
 10
7768.833938962112
 20
160.20199657471423
 10
7770.968038086319
 20
157.99964181488048
 10
7770.968038086319
 20
137.91863704883377
 10
7767.438634319207
 20
134.27635113169478
 10
7761.817876618597
 20
135.72648321968018
  0
ENDSEC
  0
SECTION
  2
OBJECTS
  0
DICTIONARY
  5
A
330
0
100
AcDbDictionary
281
1
  3
ACAD_COLOR
350
B
  3
ACAD_GROUP
350
C
  3
ACAD_LAYOUT
350
D
  3
ACAD_MATERIAL
350
E
  3
ACAD_MLEADERSTYLE
350
F
  3
ACAD_MLINESTYLE
350
10
  3
ACAD_PLOTSETTINGS
350
11
  3
ACAD_PLOTSTYLENAME
350
12
  3
ACAD_SCALELIST
350
14
  3
ACAD_TABLESTYLE
350
15
  3
ACAD_VISUALSTYLE
350
16
  3
EZDXF_META
350
2D
  0
DICTIONARY
  5
B
330
A
100
AcDbDictionary
281
1
  0
DICTIONARY
  5
C
330
A
100
AcDbDictionary
281
1
  0
DICTIONARY
  5
D
330
A
100
AcDbDictionary
281
1
  3
Model
350
1A
  3
Layout1
350
1E
  0
DICTIONARY
  5
E
330
A
100
AcDbDictionary
281
1
  3
ByBlock
350
1F
  3
ByLayer
350
20
  3
Global
350
21
  0
DICTIONARY
  5
F
330
A
100
AcDbDictionary
281
1
  3
Standard
350
2C
  0
DICTIONARY
  5
10
330
A
100
AcDbDictionary
281
1
  3
Standard
350
22
  0
DICTIONARY
  5
11
330
A
100
AcDbDictionary
281
1
  0
ACDBDICTIONARYWDFLT
  5
12
330
A
100
AcDbDictionary
281
1
  3
Normal
350
13
100
AcDbDictionaryWithDefault
340
13
  0
ACDBPLACEHOLDER
  5
13
330
12
  0
DICTIONARY
  5
14
330
A
100
AcDbDictionary
281
1
  0
DICTIONARY
  5
15
330
A
100
AcDbDictionary
281
1
  0
DICTIONARY
  5
16
330
A
100
AcDbDictionary
281
1
  0
LAYOUT
  5
1A
330
D
100
AcDbPlotSettings
  1

  4
A3
  6

 40
7.5
 41
20.0
 42
7.5
 43
20.0
 44
420.0
 45
297.0
 46
0.0
 47
0.0
 48
0.0
 49
0.0
140
0.0
141
0.0
142
1.0
143
1.0
 70
1024
 72
1
 73
0
 74
5
  7

 75
16
 76
0
 77
2
 78
300
147
1.0
148
0.0
149
0.0
100
AcDbLayout
  1
Model
 70
1
 71
0
 10
0.0
 20
0.0
 11
420.0
 21
297.0
 12
0.0
 22
0.0
 32
0.0
 14
1e+20
 24
1e+20
 34
1e+20
 15
-1e+20
 25
-1e+20
 35
-1e+20
146
0.0
 13
0.0
 23
0.0
 33
0.0
 16
1.0
 26
0.0
 36
0.0
 17
0.0
 27
1.0
 37
0.0
 76
1
330
17
  0
LAYOUT
  5
1E
330
D
100
AcDbPlotSettings
  1

  4
A3
  6

 40
7.5
 41
20.0
 42
7.5
 43
20.0
 44
420.0
 45
297.0
 46
0.0
 47
0.0
 48
0.0
 49
0.0
140
0.0
141
0.0
142
1.0
143
1.0
 70
0
 72
1
 73
0
 74
5
  7

 75
16
 76
0
 77
2
 78
300
147
1.0
148
0.0
149
0.0
100
AcDbLayout
  1
Layout1
 70
1
 71
1
 10
0.0
 20
0.0
 11
420.0
 21
297.0
 12
0.0
 22
0.0
 32
0.0
 14
1e+20
 24
1e+20
 34
1e+20
 15
-1e+20
 25
-1e+20
 35
-1e+20
146
0.0
 13
0.0
 23
0.0
 33
0.0
 16
1.0
 26
0.0
 36
0.0
 17
0.0
 27
1.0
 37
0.0
 76
1
330
1B
  0
MATERIAL
  5
1F
102
{ACAD_REACTORS
330
E
102
}
330
E
100
AcDbMaterial
  1
ByBlock
  2

 70
0
 40
1.0
 71
1
 41
1.0
 91
-1023410177
 42
1.0
 72
1
  3

 73
1
 74
1
 75
1
 44
0.5
 73
0
 45
1.0
 46
1.0
 77
1
  4

 78
1
 79
1
170
1
 48
1.0
171
1
  6

172
1
173
1
174
1
140
1.0
141
1.0
175
1
  7

176
1
177
1
178
1
143
1.0
179
1
  8

270
1
271
1
272
1
145
1.0
146
1.0
273
1
  9

274
1
275
1
276
1
 42
1.0
 72
1
  3

 73
1
 74
1
 75
1
 94
63
  0
MATERIAL
  5
20
102
{ACAD_REACTORS
330
E
102
}
330
E
100
AcDbMaterial
  1
ByLayer
  2

 70
0
 40
1.0
 71
1
 41
1.0
 91
-1023410177
 42
1.0
 72
1
  3

 73
1
 74
1
 75
1
 44
0.5
 73
0
 45
1.0
 46
1.0
 77
1
  4

 78
1
 79
1
170
1
 48
1.0
171
1
  6

172
1
173
1
174
1
140
1.0
141
1.0
175
1
  7

176
1
177
1
178
1
143
1.0
179
1
  8

270
1
271
1
272
1
145
1.0
146
1.0
273
1
  9

274
1
275
1
276
1
 42
1.0
 72
1
  3

 73
1
 74
1
 75
1
 94
63
  0
MATERIAL
  5
21
102
{ACAD_REACTORS
330
E
102
}
330
E
100
AcDbMaterial
  1
Global
  2

 70
0
 40
1.0
 71
1
 41
1.0
 91
-1023410177
 42
1.0
 72
1
  3

 73
1
 74
1
 75
1
 44
0.5
 73
0
 45
1.0
 46
1.0
 77
1
  4

 78
1
 79
1
170
1
 48
1.0
171
1
  6

172
1
173
1
174
1
140
1.0
141
1.0
175
1
  7

176
1
177
1
178
1
143
1.0
179
1
  8

270
1
271
1
272
1
145
1.0
146
1.0
273
1
  9

274
1
275
1
276
1
 42
1.0
 72
1
  3

 73
1
 74
1
 75
1
 94
63
  0
MLINESTYLE
  5
22
102
{ACAD_REACTORS
330
10
102
}
330
10
100
AcDbMlineStyle
  2
Standard
 70
0
  3

 62
256
 51
90.0
 52
90.0
 71
2
 49
0.5
 62
256
  6
BYLAYER
 49
-0.5
 62
256
  6
BYLAYER
  0
MLEADERSTYLE
  5
2C
102
{ACAD_REACTORS
330
F
102
}
330
F
100
AcDbMLeaderStyle
179
2
170
2
171
1
172
0
 90
2
 40
0.0
 41
0.0
173
1
 91
-1056964608
 92
-2
290
1
 42
2.0
291
1
 43
8.0
  3
Standard
 44
4.0
300

342
29
174
1
175
1
176
0
178
1
 93
-1056964608
 45
4.0
292
0
297
0
 46
4.0
 94
-1056964608
 47
1.0
 49
1.0
140
1.0
294
1
141
0.0
177
0
142
1.0
295
0
296
0
143
3.75
271
0
272
9
273
9
  0
DICTIONARY
  5
2D
330
A
100
AcDbDictionary
280
1
281
1
  3
CREATED_BY_EZDXF
350
2E
  3
WRITTEN_BY_EZDXF
350
3F
  0
DICTIONARYVAR
  5
2E
330
2D
100
DictionaryVariables
280
0
  1
1.4.4 @ 2026-07-20T15:30:43.096015+00:00
  0
DICTIONARYVAR
  5
3F
330
2D
100
DictionaryVariables
280
0
  1
1.4.4 @ 2026-07-20T15:30:43.101265+00:00
  0
ENDSEC
  0
EOF
