  0
SECTION
  2
HEADER
  9
$ACADVER
  1
AC1027
  9
$ACADMAINTVER
 70
105
  9
$DWGCODEPAGE
  3
ANSI_1252
  9
$LASTSAVEDBY
  1
ezdxf
  9
$REQUIREDVERSIONS
160
0
  9
$INSBASE
 10
0.0
 20
0.0
 30
0.0
  9
$EXTMIN
 10
1e+20
 20
1e+20
 30
1e+20
  9
$EXTMAX
 10
-1e+20
 20
-1e+20
 30
-1e+20
  9
$LIMMIN
 10
0.0
 20
0.0
  9
$LIMMAX
 10
420.0
 20
297.0
  9
$ORTHOMODE
 70
0
  9
$REGENMODE
 70
1
  9
$FILLMODE
 70
1
  9
$QTEXTMODE
 70
0
  9
$MIRRTEXT
 70
1
  9
$LTSCALE
 40
1.0
  9
$ATTMODE
 70
1
  9
$TEXTSIZE
 40
2.5
  9
$TRACEWID
 40
1.0
  9
$TEXTSTYLE
  7
Standard
  9
$CLAYER
  8
0
  9
$CELTYPE
  6
ByLayer
  9
$CECOLOR
 62
256
  9
$CELTSCALE
 40
1.0
  9
$DISPSILH
 70
0
  9
$DIMSCALE
 40
1.0
  9
$DIMASZ
 40
2.5
  9
$DIMEXO
 40
0.625
  9
$DIMDLI
 40
3.75
  9
$DIMRND
 40
0.0
  9
$DIMDLE
 40
0.0
  9
$DIMEXE
 40
1.25
  9
$DIMTP
 40
0.0
  9
$DIMTM
 40
0.0
  9
$DIMTXT
 40
2.5
  9
$DIMCEN
 40
2.5
  9
$DIMTSZ
 40
0.0
  9
$DIMTOL
 70
0
  9
$DIMLIM
 70
0
  9
$DIMTIH
 70
0
  9
$DIMTOH
 70
0
  9
$DIMSE1
 70
0
  9
$DIMSE2
 70
0
  9
$DIMTAD
 70
1
  9
$DIMZIN
 70
8
  9
$DIMBLK
  1

  9
$DIMASO
 70
1
  9
$DIMSHO
 70
1
  9
$DIMPOST
  1

  9
$DIMAPOST
  1

  9
$DIMALT
 70
0
  9
$DIMALTD
 70
3
  9
$DIMALTF
 40
0.03937007874
  9
$DIMLFAC
 40
1.0
  9
$DIMTOFL
 70
1
  9
$DIMTVP
 40
0.0
  9
$DIMTIX
 70
0
  9
$DIMSOXD
 70
0
  9
$DIMSAH
 70
0
  9
$DIMBLK1
  1

  9
$DIMBLK2
  1

  9
$DIMSTYLE
  2
ISO-25
  9
$DIMCLRD
 70
0
  9
$DIMCLRE
 70
0
  9
$DIMCLRT
 70
0
  9
$DIMTFAC
 40
1.0
  9
$DIMGAP
 40
0.625
  9
$DIMJUST
 70
0
  9
$DIMSD1
 70
0
  9
$DIMSD2
 70
0
  9
$DIMTOLJ
 70
0
  9
$DIMTZIN
 70
8
  9
$DIMALTZ
 70
0
  9
$DIMALTTZ
 70
0
  9
$DIMUPT
 70
0
  9
$DIMDEC
 70
2
  9
$DIMTDEC
 70
2
  9
$DIMALTU
 70
2
  9
$DIMALTTD
 70
3
  9
$DIMTXSTY
  7
Standard
  9
$DIMAUNIT
 70
0
  9
$DIMADEC
 70
0
  9
$DIMALTRND
 40
0.0
  9
$DIMAZIN
 70
0
  9
$DIMDSEP
 70
44
  9
$DIMATFIT
 70
3
  9
$DIMFRAC
 70
0
  9
$DIMLDRBLK
  1

  9
$DIMLUNIT
 70
2
  9
$DIMLWD
 70
-2
  9
$DIMLWE
 70
-2
  9
$DIMTMOVE
 70
0
  9
$DIMFXL
 40
1.0
  9
$DIMFXLON
 70
0
  9
$DIMJOGANG
 40
0.785398163397
  9
$DIMTFILL
 70
0
  9
$DIMTFILLCLR
 70
0
  9
$DIMARCSYM
 70
0
  9
$DIMLTYPE
  6

  9
$DIMLTEX1
  6

  9
$DIMLTEX2
  6

  9
$DIMTXTDIRECTION
 70
0
  9
$LUNITS
 70
2
  9
$LUPREC
 70
4
  9
$SKETCHINC
 40
1.0
  9
$FILLETRAD
 40
10.0
  9
$AUNITS
 70
0
  9
$AUPREC
 70
2
  9
$MENU
  1
.
  9
$ELEVATION
 40
0.0
  9
$PELEVATION
 40
0.0
  9
$THICKNESS
 40
0.0
  9
$LIMCHECK
 70
0
  9
$CHAMFERA
 40
0.0
  9
$CHAMFERB
 40
0.0
  9
$CHAMFERC
 40
0.0
  9
$CHAMFERD
 40
0.0
  9
$SKPOLY
 70
0
  9
$TDCREATE
 40
2461246.7782291668
  9
$TDUCREATE
 40
2458532.153996898
  9
$TDUPDATE
 40
2461246.7782291668
  9
$TDUUPDATE
 40
2458532.1544311
  9
$TDINDWG
 40
0.0
  9
$TDUSRTIMER
 40
0.0
  9
$USRTIMER
 70
1
  9
$ANGBASE
 50
0.0
  9
$ANGDIR
 70
0
  9
$PDMODE
 70
0
  9
$PDSIZE
 40
0.0
  9
$PLINEWID
 40
0.0
  9
$SPLFRAME
 70
0
  9
$SPLINETYPE
 70
6
  9
$SPLINESEGS
 70
8
  9
$HANDSEED
  5
84
  9
$SURFTAB1
 70
6
  9
$SURFTAB2
 70
6
  9
$SURFTYPE
 70
6
  9
$SURFU
 70
6
  9
$SURFV
 70
6
  9
$UCSBASE
  2

  9
$UCSNAME
  2

  9
$UCSORG
 10
0.0
 20
0.0
 30
0.0
  9
$UCSXDIR
 10
1.0
 20
0.0
 30
0.0
  9
$UCSYDIR
 10
0.0
 20
1.0
 30
0.0
  9
$UCSORTHOREF
  2

  9
$UCSORTHOVIEW
 70
0
  9
$UCSORGTOP
 10
0.0
 20
0.0
 30
0.0
  9
$UCSORGBOTTOM
 10
0.0
 20
0.0
 30
0.0
  9
$UCSORGLEFT
 10
0.0
 20
0.0
 30
0.0
  9
$UCSORGRIGHT
 10
0.0
 20
0.0
 30
0.0
  9
$UCSORGFRONT
 10
0.0
 20
0.0
 30
0.0
  9
$UCSORGBACK
 10
0.0
 20
0.0
 30
0.0
  9
$PUCSBASE
  2

  9
$PUCSNAME
  2

  9
$PUCSORG
 10
0.0
 20
0.0
 30
0.0
  9
$PUCSXDIR
 10
1.0
 20
0.0
 30
0.0
  9
$PUCSYDIR
 10
0.0
 20
1.0
 30
0.0
  9
$PUCSORTHOREF
  2

  9
$PUCSORTHOVIEW
 70
0
  9
$PUCSORGTOP
 10
0.0
 20
0.0
 30
0.0
  9
$PUCSORGBOTTOM
 10
0.0
 20
0.0
 30
0.0
  9
$PUCSORGLEFT
 10
0.0
 20
0.0
 30
0.0
  9
$PUCSORGRIGHT
 10
0.0
 20
0.0
 30
0.0
  9
$PUCSORGFRONT
 10
0.0
 20
0.0
 30
0.0
  9
$PUCSORGBACK
 10
0.0
 20
0.0
 30
0.0
  9
$USERI1
 70
0
  9
$USERI2
 70
0
  9
$USERI3
 70
0
  9
$USERI4
 70
0
  9
$USERI5
 70
0
  9
$USERR1
 40
0.0
  9
$USERR2
 40
0.0
  9
$USERR3
 40
0.0
  9
$USERR4
 40
0.0
  9
$USERR5
 40
0.0
  9
$WORLDVIEW
 70
1
  9
$SHADEDGE
 70
3
  9
$SHADEDIF
 70
70
  9
$TILEMODE
 70
1
  9
$MAXACTVP
 70
64
  9
$PINSBASE
 10
0.0
 20
0.0
 30
0.0
  9
$PLIMCHECK
 70
0
  9
$PEXTMIN
 10
1e+20
 20
1e+20
 30
1e+20
  9
$PEXTMAX
 10
-1e+20
 20
-1e+20
 30
-1e+20
  9
$PLIMMIN
 10
0.0
 20
0.0
  9
$PLIMMAX
 10
420.0
 20
297.0
  9
$UNITMODE
 70
0
  9
$VISRETAIN
 70
1
  9
$PLINEGEN
 70
0
  9
$PSLTSCALE
 70
1
  9
$TREEDEPTH
 70
3020
  9
$CMLSTYLE
  2
Standard
  9
$CMLJUST
 70
0
  9
$CMLSCALE
 40
20.0
  9
$PROXYGRAPHICS
 70
1
  9
$MEASUREMENT
 70
1
  9
$CELWEIGHT
370
-1
  9
$ENDCAPS
280
0
  9
$JOINSTYLE
280
0
  9
$LWDISPLAY
290
0
  9
$INSUNITS
 70
4
  9
$HYPERLINKBASE
  1

  9
$STYLESHEET
  1

  9
$XEDIT
290
1
  9
$CEPSNTYPE
380
0
  9
$PSTYLEMODE
290
1
  9
$FINGERPRINTGUID
  2
{2CC1E335-D454-477B-A131-81C476923F74}
  9
$VERSIONGUID
  2
{C59D1E0B-77B2-43F0-86B2-81C4AE09253F}
  9
$EXTNAMES
290
1
  9
$PSVPSCALE
 40
0.0
  9
$OLESTARTUP
290
0
  9
$SORTENTS
280
127
  9
$INDEXCTL
280
0
  9
$HIDETEXT
280
1
  9
$XCLIPFRAME
280
1
  9
$HALOGAP
280
0
  9
$OBSCOLOR
 70
257
  9
$OBSLTYPE
280
0
  9
$INTERSECTIONDISPLAY
280
0
  9
$INTERSECTIONCOLOR
 70
257
  9
$DIMASSOC
280
2
  9
$PROJECTNAME
  1

  9
$CAMERADISPLAY
290
0
  9
$LENSLENGTH
 40
50.0
  9
$CAMERAHEIGHT
 40
0.0
  9
$STEPSPERSEC
 40
24.0
  9
$STEPSIZE
 40
100.0
  9
$3DDWFPREC
 40
2.0
  9
$PSOLWIDTH
 40
0.005
  9
$PSOLHEIGHT
 40
0.08
  9
$LOFTANG1
 40
1.570796326795
  9
$LOFTANG2
 40
1.570796326795
  9
$LOFTMAG1
 40
0.0
  9
$LOFTMAG2
 40
0.0
  9
$LOFTPARAM
 70
7
  9
$LOFTNORMALS
280
1
  9
$LATITUDE
 40
37.795
  9
$LONGITUDE
 40
-122.394
  9
$NORTHDIRECTION
 40
0.0
  9
$TIMEZONE
 70
-8000
  9
$LIGHTGLYPHDISPLAY
280
1
  9
$TILEMODELIGHTSYNCH
280
1
  9
$CMATERIAL
347
20
  9
$SOLIDHIST
280
0
  9
$SHOWHIST
280
1
  9
$DWFFRAME
280
2
  9
$DGNFRAME
280
2
  9
$REALWORLDSCALE
290
1
  9
$INTERFERECOLOR
 62
256
  9
$CSHADOW
280
0
  9
$SHADOWPLANELOCATION
 40
0.0
  0
ENDSEC
  0
SECTION
  2
CLASSES
  0
CLASS
  1
ACDBDICTIONARYWDFLT
  2
AcDbDictionaryWithDefault
  3
ObjectDBX Classes
 90
0
 91
0
280
0
281
0
  0
CLASS
  1
SUN
  2
AcDbSun
  3
SCENEOE
 90
1153
 91
0
280
0
281
0
  0
CLASS
  1
VISUALSTYLE
  2
AcDbVisualStyle
  3
ObjectDBX Classes
 90
4095
 91
0
280
0
281
0
  0
CLASS
  1
MATERIAL
  2
AcDbMaterial
  3
ObjectDBX Classes
 90
1153
 91
0
280
0
281
0
  0
CLASS
  1
SCALE
  2
AcDbScale
  3
ObjectDBX Classes
 90
1153
 91
0
280
0
281
0
  0
CLASS
  1
TABLESTYLE
  2
AcDbTableStyle
  3
ObjectDBX Classes
 90
4095
 91
0
280
0
281
0
  0
CLASS
  1
MLEADERSTYLE
  2
AcDbMLeaderStyle
  3
ACDB_MLEADERSTYLE_CLASS
 90
4095
 91
0
280
0
281
0
  0
CLASS
  1
DICTIONARYVAR
  2
AcDbDictionaryVar
  3
ObjectDBX Classes
 90
0
 91
0
280
0
281
0
  0
CLASS
  1
CELLSTYLEMAP
  2
AcDbCellStyleMap
  3
ObjectDBX Classes
 90
1152
 91
0
280
0
281
0
  0
CLASS
  1
MENTALRAYRENDERSETTINGS
  2
AcDbMentalRayRenderSettings
  3
SCENEOE
 90
1024
 91
0
280
0
281
0
  0
CLASS
  1
ACDBDETAILVIEWSTYLE
  2
AcDbDetailViewStyle
  3
ObjectDBX Classes
 90
1025
 91
0
280
0
281
0
  0
CLASS
  1
ACDBSECTIONVIEWSTYLE
  2
AcDbSectionViewStyle
  3
ObjectDBX Classes
 90
1025
 91
0
280
0
281
0
  0
CLASS
  1
RASTERVARIABLES
  2
AcDbRasterVariables
  3
ISM
 90
0
 91
0
280
0
281
0
  0
CLASS
  1
ACDBPLACEHOLDER
  2
AcDbPlaceHolder
  3
ObjectDBX Classes
 90
0
 91
0
280
0
281
0
  0
CLASS
  1
LAYOUT
  2
AcDbLayout
  3
ObjectDBX Classes
 90
0
 91
0
280
0
281
0
  0
ENDSEC
  0
SECTION
  2
TABLES
  0
TABLE
  2
VPORT
  5
8
330
0
100
AcDbSymbolTable
 70
1
  0
VPORT
  5
23
330
8
100
AcDbSymbolTableRecord
100
AcDbViewportTableRecord
  2
*Active
 70
0
 10
0.0
 20
0.0
 11
1.0
 21
1.0
 12
0.0
 22
0.0
 13
0.0
 23
0.0
 14
0.5
 24
0.5
 15
0.5
 25
0.5
 16
0.0
 26
0.0
 36
1.0
 17
0.0
 27
0.0
 37
0.0
 40
1000.0
 41
1.34
 42
50.0
 43
0.0
 44
0.0
 50
0.0
 51
0.0
 71
0
 72
1000
 73
1
 74
3
 75
0
 76
0
 77
0
 78
0
281
0
 65
0
146
0.0
  0
ENDTAB
  0
TABLE
  2
LTYPE
  5
2
330
0
100
AcDbSymbolTable
 70
3
  0
LTYPE
  5
24
330
2
100
AcDbSymbolTableRecord
100
AcDbLinetypeTableRecord
  2
ByBlock
 70
0
  3

 72
65
 73
0
 40
0.0
  0
LTYPE
  5
25
330
2
100
AcDbSymbolTableRecord
100
AcDbLinetypeTableRecord
  2
ByLayer
 70
0
  3

 72
65
 73
0
 40
0.0
  0
LTYPE
  5
26
330
2
100
AcDbSymbolTableRecord
100
AcDbLinetypeTableRecord
  2
Continuous
 70
0
  3

 72
65
 73
0
 40
0.0
  0
ENDTAB
  0
TABLE
  2
LAYER
  5
1
330
0
100
AcDbSymbolTable
 70
3
  0
LAYER
  5
27
330
1
100
AcDbSymbolTableRecord
100
AcDbLayerTableRecord
  2
0
 70
0
 62
7
  6
Continuous
370
-3
390
13
347
21
  0
LAYER
  5
28
330
1
100
AcDbSymbolTableRecord
100
AcDbLayerTableRecord
  2
Defpoints
 70
0
 62
7
  6
Continuous
290
0
370
-3
390
13
347
21
  0
LAYER
  5
2F
330
1
100
AcDbSymbolTableRecord
100
AcDbLayerTableRecord
  2
M
 70
0
 62
7
  6
Continuous
370
-3
390
13
347
21
  0
ENDTAB
  0
TABLE
  2
STYLE
  5
5
330
0
100
AcDbSymbolTable
 70
1
  0
STYLE
  5
29
330
5
100
AcDbSymbolTableRecord
100
AcDbTextStyleTableRecord
  2
Standard
 70
0
 40
0.0
 41
1.0
 50
0.0
 71
0
 42
2.5
  3
txt
  4

  0
ENDTAB
  0
TABLE
  2
VIEW
  5
7
330
0
100
AcDbSymbolTable
 70
0
  0
ENDTAB
  0
TABLE
  2
UCS
  5
6
330
0
100
AcDbSymbolTable
 70
0
  0
ENDTAB
  0
TABLE
  2
APPID
  5
3
330
0
100
AcDbSymbolTable
 70
3
  0
APPID
  5
2A
330
3
100
AcDbSymbolTableRecord
100
AcDbRegAppTableRecord
  2
ACAD
 70
0
  0
APPID
  5
81
330
3
100
AcDbSymbolTableRecord
100
AcDbRegAppTableRecord
  2
HATCHBACKGROUNDCOLOR
 70
0
  0
APPID
  5
82
330
3
100
AcDbSymbolTableRecord
100
AcDbRegAppTableRecord
  2
EZDXF
 70
0
  0
ENDTAB
  0
TABLE
  2
DIMSTYLE
  5
4
330
0
100
AcDbSymbolTable
 70
1
100
AcDbDimStyleTable
  0
DIMSTYLE
105
2B
330
4
100
AcDbSymbolTableRecord
100
AcDbDimStyleTableRecord
  2
Standard
 70
0
 40
1.0
 41
2.5
 42
0.625
 43
3.75
 44
1.25
 45
0.0
 46
0.0
 47
0.0
 48
0.0
 49
2.5
140
2.5
141
2.5
142
0.0
143
0.03937007874
144
1.0
145
0.0
146
1.0
147
0.625
148
0.0
 69
0
 70
0
 71
0
 72
0
 73
0
 74
0
 75
0
 76
0
 77
1
 78
8
 79
3
170
0
171
3
172
1
173
0
174
0
175
0
176
0
177
0
178
0
179
2
271
2
272
2
273
2
274
3
275
0
276
0
277
2
278
44
279
0
280
0
281
0
282
0
283
0
284
8
285
0
286
0
288
0
289
3
290
0
371
-2
372
-2
  0
ENDTAB
  0
TABLE
  2
BLOCK_RECORD
  5
9
330
0
100
AcDbSymbolTable
 70
2
  0
BLOCK_RECORD
  5
17
330
9
100
AcDbSymbolTableRecord
100
AcDbBlockTableRecord
  2
*Model_Space
340
1A
 70
0
280
1
281
0
  0
BLOCK_RECORD
  5
1B
330
9
100
AcDbSymbolTableRecord
100
AcDbBlockTableRecord
  2
*Paper_Space
340
1E
 70
0
280
1
281
0
  0
ENDTAB
  0
ENDSEC
  0
SECTION
  2
BLOCKS
  0
BLOCK
  5
18
330
17
100
AcDbEntity
  8
0
100
AcDbBlockBegin
  2
*Model_Space
 70
0
 10
0.0
 20
0.0
 30
0.0
  3
*Model_Space
  1

  0
ENDBLK
  5
19
330
17
100
AcDbEntity
  8
0
100
AcDbBlockEnd
  0
BLOCK
  5
1C
330
1B
100
AcDbEntity
  8
0
100
AcDbBlockBegin
  2
*Paper_Space
 70
0
 10
0.0
 20
0.0
 30
0.0
  3
*Paper_Space
  1

  0
ENDBLK
  5
1D
330
1B
100
AcDbEntity
  8
0
100
AcDbBlockEnd
  0
ENDSEC
  0
SECTION
  2
ENTITIES
  0
LWPOLYLINE
  5
30
330
17
100
AcDbEntity
  8
M
100
AcDbPolyline
 90
35
 70
1
 10
219.25626632980882
 20
46.53592210996105
 10
224.60481750769844
 20
51.63065400354894
 10
253.75903904919224
 20
51.63065400354894
 10
254.9255056594527
 20
53.059225432120385
 10
259.59137210049477
 20
53.059225432120385
 10
260.7830500118603
 20
54.5186731362054
 10
265.47115383426564
 20
51.64791322076767
 10
267.7759018339397
 20
53.059225432120385
 10
277.183268619339
 20
53.059225432120385
 10
278.3497352295995
 20
51.63065400354894
 10
281.8373247579289
 20
51.63065400354894
 10
288.78627218200126
 20
45.95707097290802
 10
291.0859705775285
 20
48.773511146406044
 10
295.83492408105496
 20
48.773511146406044
 10
299.3467274199084
 20
45.906241239996206
 10
304.0228282606325
 20
44.47453629460452
 10
307.00981984370026
 20
40.81636828926327
 10
305.8142518882531
 20
39.3521564489554
 10
305.8142518882531
 20
30.780727877526836
 10
304.6477852779926
 20
29.35215644895539
 10
304.6477852779926
 20
19.352156448955384
 10
300.5091465395935
 20
14.283566398584746
 10
284.083856832073
 20
15.720427047155594
 10
282.94591560681
 20
17.114063442321136
 10
280.66340498849905
 20
15.716368289263261
 10
272.4225048133603
 20
15.716368289263261
 10
271.2503469691988
 20
17.151909770875996
 10
261.9400888652441
 20
18.577193679877425
 10
253.78183866223532
 20
22.85922543212038
 10
251.4379161311234
 20
22.85922543212038
 10
247.93851630034186
 20
25.71636828926327
 10
244.4357983972879
 20
25.71636828926327
 10
239.7564145344895
 20
30.01449866280581
 10
231.58649219185605
 20
32.873270745379266
 10
219.25626632980882
 20
46.53592210996105
  0
LWPOLYLINE
  5
31
330
17
100
AcDbEntity
  8
M
100
AcDbPolyline
 90
73
 70
1
 10
173.32029162368545
 20
171.3725436114455
 10
172.15382501342498
 20
169.94397218287415
 10
169.1085571425871
 20
173.67351114640604
 10
172.6079569733686
 20
177.9592254321203
 10
169.79865441154075
 20
181.39977772803516
 10
162.79985474997773
 20
177.11406344232094
 10
161.65562552108037
 20
178.51540075430262
 10
159.34996189743822
 20
175.69165496710372
 10
153.42673018987273
 20
178.59332725083797
 10
148.112158157898
 20
185.10208257497763
 10
151.15742602873584
 20
188.83162153850952
 10
154.65682585951734
 20
184.54590725279508
 10
157.45167038405845
 20
187.9687527932834
 10
154.64308831272933
 20
192.78429066916303
 10
152.3238926389963
 20
189.94397218287418
 10
147.61499404503544
 20
195.71095936639105
 10
134.80903532896065
 20
194.28519071863116
 10
128.93093137440212
 20
197.16475582226667
 10
121.31252746709283
 20
206.49501359181244
 10
121.31252746709283
 20
213.70915155814262
 10
126.63094707346428
 20
220.22261900589024
 10
130.22238732364835
 20
218.75647361612803
 10
132.49396026456768
 20
215.97447868136666
 10
140.64186755954694
 20
225.95321914583332
 10
146.48031531718263
 20
221.6630116523317
 10
153.9735925543871
 20
229.4281783272225
 10
153.9735925543871
 20
230.85200870099976
 10
158.15622569029887
 20
235.97447868136666
 10
160.4891589108199
 20
233.11733582422357
 10
161.65562552108037
 20
234.5459072527951
 10
162.8695408138092
 20
233.0592254321202
 10
165.20247403433018
 20
233.0592254321202
 10
168.65442518264345
 20
228.83162153850932
 10
170.9399097206961
 20
231.63065400354887
 10
173.36774030615376
 20
231.63065400354887
 10
179.2000733574563
 20
224.48779686069176
 10
180.27164260278022
 20
224.48779686069176
 10
184.27262307597368
 20
229.38779686069165
 10
183.1061564657132
 20
230.8163682892632
 10
185.43908968623424
 20
233.6735111464061
 10
184.27262307597368
 20
235.10208257497743
 10
187.31789094681156
 20
238.83162153850935
 10
192.03120607032193
 20
233.0592254321202
 10
194.26924192590627
 20
233.0592254321202
 10
200.10157497720883
 20
240.20208257497754
 10
201.36293895240598
 20
240.20208257497754
 10
222.38295854199976
 20
214.45886871050246
 10
225.79707522793373
 20
211.67135668719374
 10
230.42970684398207
 20
217.34493971783465
 10
232.86354481175948
 20
217.34493971783465
 10
238.18342863233428
 20
209.38184334266285
 10
233.508364442366
 20
203.65629314707311
 10
234.67483105262653
 20
200.79915028993022
 10
230.02302356650668
 20
195.1020825749774
 10
231.19496984250637
 20
193.66680020085104
 10
218.32207888780914
 20
180.76781445323965
 10
215.9891456672881
 20
167.91067159609673
 10
209.5302644075735
 20
161.43869746007942
 10
202.53687496171568
 20
160.01123034652665
 10
201.33772765130087
 20
158.54263487089227
 10
199.00479443077984
 20
159.97120629946383
 10
195.53060590110343
 20
155.71636828926327
 10
193.17840921896118
 20
155.71636828926327
 10
186.12918695518786
 20
151.39977772803513
 10
181.9396898554527
 20
156.53065400354893
 10
184.2866820308959
 20
159.40501486002478
 10
183.1202154206354
 20
162.26215771716767
 10
187.77202290675527
 20
167.95922543212026
 10
184.93750904382222
 20
171.43065400354885
 10
182.69947318823782
 20
171.43065400354885
 10
180.36653996771685
 20
168.57351114640616
 10
175.60577616173816
 20
168.57351114640616
 10
173.32029162368545
 20
171.3725436114455
  0
LWPOLYLINE
  5
32
330
17
100
AcDbEntity
  8
M
100
AcDbPolyline
 90
161
 70
1
 10
27.057833381178202
 20
107.95922543212022
 10
31.05881385437176
 20
103.05922543212031
 10
33.29684970995616
 20
103.05922543212031
 10
39.129182761258704
 20
110.20208257497744
 10
41.46211598177968
 20
110.20208257497744
 10
47.79602967549429
 20
117.95922543212045
 10
44.961515812561245
 20
121.43065400354902
 10
41.465267408277775
 20
121.43065400354902
 10
29.82136295892346
 20
134.2649127472979
 10
24.03574362743517
 20
131.4306540035488
 10
20.56061436202719
 20
131.4306540035488
 10
19.346699069298367
 20
129.94397218287412
 10
15.825061857153655
 20
134.25692058517825
 10
11.168110947184868
 20
131.40523715261264
 10
5.7962817485969484
 20
136.52214239193984
 10
8.817819437152957
 20
140.22261900589018
 10
12.31721926793447
 20
138.79404757731885
 10
18.634364418981587
 20
146.53065400354893
 10
12.802031367679046
 20
153.67351114640604
 10
17.013765848777368
 20
158.83162153850927
 10
24.073925789942095
 20
150.18504504469954
 10
27.50290440389433
 20
148.78522189960307
 10
29.778186417553364
 20
150.17849061731204
 10
38.464296793410206
 20
160.81636828926315
 10
33.79843035236818
 20
166.53065400354893
 10
39.16744373309775
 20
173.1060836368199
 10
44.54409683658206
 20
167.98458341441957
 10
43.37430696990319
 20
165.11930057431056
 10
44.55483253508582
 20
163.67351114640604
 10
43.38836592482534
 20
162.2449397178347
 10
49.22069897612788
 20
155.10208257497737
 10
46.17543110529007
 20
151.37254361144548
 10
42.66860080572904
 20
155.66735799081545
 10
36.395045929001476
 20
149.38108591513677
 10
41.50956466424802
 20
143.1173358242237
 10
46.161217247815465
 20
148.814213830051
 10
49.66061707859698
 20
145.9570709729079
 10
57.14182151250052
 20
155.11930057431033
 10
54.8088882919795
 20
160.8335862885961
 10
57.12776255757834
 20
163.67351114640604
 10
54.794829337057344
 20
166.53065400354893
 10
57.77873692829347
 20
170.18504504469956
 10
61.34855797590427
 20
171.64236475674576
 10
66.03354870056577
 20
168.77351114640615
 10
68.38574538270802
 20
168.77351114640615
 10
74.18484360901687
 20
161.67135668719368
 10
77.67688537894286
 20
164.52249193387968
 10
84.18559593875658
 20
158.00058748818645
 10
84.18559593875658
 20
155.13772298671392
 10
90.04703033524567
 20
147.95922543212026
 10
84.20555005654002
 20
140.80516568165845
 10
86.53848327706102
 20
136.51945139594423
 10
84.21469728394315
 20
133.673511146406
 10
89.33469568492886
 20
127.40305010993791
 10
92.12176086539358
 20
130.81636828926335
 10
90.9552942551331
 20
132.24493971783468
 10
93.92763675296325
 20
135.88516699136167
 10
98.65432878397864
 20
140.22675109314963
 10
100.97712440617073
 20
138.8043874219198
 10
106.82127692840682
 20
145.9617198685086
 10
111.50141428167082
 20
141.66289739524717
 10
115.01117496813465
 20
144.52849954433634
 10
116.16342772092055
 20
143.1173358242237
 10
117.33603299582201
 20
144.5534252741756
 10
124.38076466919301
 20
134.4877968606919
 10
125.54260928547292
 20
134.4877968606919
 10
130.208475726515
 20
128.77351114640612
 10
131.28004497183883
 20
128.77351114640612
 10
135.2810254450324
 20
133.673511146406
 10
134.123706062175
 20
135.0908799673729
 10
136.45663928269602
 20
139.37659425308712
 10
132.9480922245114
 20
143.67351114640604
 10
136.44054209777386
 20
147.95071382051117
 10
131.27781841225786
 20
152.86843679698993
 10
125.43886690457062
 20
154.29862935000838
 10
121.31252746709283
 20
159.35215644895527
 10
121.31252746709283
 20
162.28058012957126
 10
122.46395168708898
 20
163.690729145739
 10
121.29748507682847
 20
166.5478720028819
 10
124.32869399274409
 20
170.26019296708083
 10
126.66162721326512
 20
167.40305010993794
 10
127.82809382352563
 20
168.8316215385095
 10
129.0420091162545
 20
167.3449397178346
 10
131.37494233677546
 20
167.3449397178346
 10
137.177185682454
 20
160.2389334315477
 10
143.00951873375652
 20
164.52464771726193
 10
146.49155958769379
 20
160.26019296708083
 10
151.10997734626753
 20
165.91636828926326
 10
154.70427454198565
 20
165.91636828926326
 10
160.4891589108199
 20
158.83162153850927
 10
162.82209213134092
 20
161.68876439565238
 10
168.67666256400665
 20
154.51867313620536
 10
171.00959578452762
 20
155.94724456477692
 10
175.19131354018634
 20
150.82589565042625
 10
172.23197056668548
 20
145.75186618834013
 10
168.18676418970392
 20
142.213178005707
 10
170.493388532443
 20
135.15087205648558
 10
174.00352492881572
 20
130.85200870099987
 10
174.00352492881572
 20
126.49501359181237
 10
166.36894064459074
 20
117.14493971783457
 10
164.0360074240697
 20
117.14493971783457
 10
161.65562552108037
 20
114.22968646858855
 10
160.4891589108199
 20
115.65825789715988
 10
153.53780793172513
 20
107.14493971783479
 10
151.20487471120413
 20
107.14493971783479
 10
148.8719414906831
 20
104.28779686069167
 10
146.53051603998233
 20
104.28779686069167
 10
141.8646495989403
 20
100.00208257497745
 10
139.54020860859904
 20
100.00208257497745
 10
138.37374199833852
 20
98.5735111464061
 10
132.54140894703602
 20
98.5735111464061
 10
131.38378735274114
 20
97.15577220715122
 10
125.45763147071528
 20
95.70421981810662
 10
122.47899407735335
 20
99.35215644895523
 10
122.47899407735335
 20
102.28058012957119
 10
124.81192729787438
 20
105.1377229867141
 10
124.81192729787438
 20
109.42343727242832
 10
125.94929256294834
 20
110.81636828926334
 10
124.81192729787438
 20
112.20929930609813
 10
124.81192729787438
 20
119.35215644895524
 10
121.9483120897548
 20
122.85922543212035
 10
116.11597903845225
 20
122.85922543212035
 10
113.83049450039954
 20
125.6582578971599
 10
110.37854335208633
 20
121.43065400354902
 10
105.61777954610768
 20
121.43065400354902
 10
103.33229500805497
 20
124.22968646858834
 10
101.04681047000224
 20
121.43065400354902
 10
97.54741063922073
 20
121.43065400354902
 10
96.38094402896024
 20
120.00208257497746
 10
91.63944368460281
 20
120.00208257497746
 10
89.35693306629206
 20
121.39977772803535
 10
88.2156777571367
 20
120.00208257497746
 10
82.38334470583413
 20
120.00208257497746
 10
81.21687809557362
 20
118.57351114640613
 10
74.12318106907395
 20
118.57351114640613
 10
73.00416314128175
 20
119.94397218287412
 10
67.85506339510944
 20
113.63787073466946
 10
67.85506339510944
 20
112.27901961755649
 10
87.71264675076496
 20
86.52887774309215
 10
84.66882924388683
 20
82.80111504001697
 10
83.454913951158
 20
84.28779686069188
 10
70.71867860322905
 20
84.28779686069188
 10
69.55221199296857
 20
82.85922543212033
 10
64.88634555192648
 20
82.85922543212033
 10
63.707396031859766
 20
81.41536618636013
 10
59.04152959081771
 20
82.84393761493148
 10
56.72107928010295
 20
80.00208257497744
 10
49.72227961853989
 20
80.00208257497744
 10
48.553279596479925
 20
78.57040847747277
 10
26.317849529209347
 20
80.00365725841263
 10
18.1555833896124
 20
84.28779686069188
 10
15.792785270674099
 20
84.28779686069188
 10
6.9800823405540005
 20
97.95882322187622
 10
11.10567682000721
 20
104.45504218487667
 10
14.672547220038801
 20
107.36727250396227
 10
16.99152846741417
 20
105.9472445647769
 10
18.132783776569543
 20
107.34493971783476
 10
20.46571699709057
 20
107.34493971783476
 10
25.17903212060091
 20
113.11733582422367
 10
28.224299991438716
 20
109.38779686069178
 10
27.057833381178202
 20
107.95922543212022
  0
LWPOLYLINE
  5
33
330
17
100
AcDbEntity
  8
M
100
AcDbPolyline
 90
9
 70
1
 10
143.46035067177814
 20
143.690729145739
 10
145.77922493737697
 20
146.53065400354893
 10
140.65922653639123
 20
152.80111504001704
 10
137.8721613559265
 20
149.38779686069182
 10
141.37156118670802
 20
145.1020825749776
 10
137.8721613559265
 20
140.81636828926315
 10
140.67125219219224
 20
137.38832229163944
 10
144.62230270777988
 20
140.84464428501286
 10
143.46035067177814
 20
143.690729145739
  0
LWPOLYLINE
  5
34
330
17
100
AcDbEntity
  8
M
100
AcDbPolyline
 90
9
 70
1
 10
140.68146391775443
 20
175.94724456477695
 10
143.01439713827543
 20
177.37581599334828
 10
146.03742762775005
 20
173.67351114640604
 10
142.99215975691223
 20
169.94397218287415
 10
138.30405593450703
 20
175.6854920137496
 10
135.97112271398603
 20
174.25692058517805
 10
132.9480922245114
 20
177.9592254321203
 10
135.9933600953492
 20
181.68876439565219
 10
140.68146391775443
 20
175.94724456477695
  0
LWPOLYLINE
  5
35
330
17
100
AcDbEntity
  8
M
100
AcDbPolyline
 90
5
 70
1
 10
125.4951606030046
 20
172.80111504001704
 10
122.4498927321668
 20
176.53065400354896
 10
125.4951606030046
 20
180.26019296708085
 10
128.5404284738424
 20
176.53065400354896
 10
125.4951606030046
 20
172.80111504001704
  0
LWPOLYLINE
  5
36
330
17
100
AcDbEntity
  8
M
100
AcDbPolyline
 90
9
 70
1
 10
105.19703731371008
 20
162.22772171850175
 10
100.99936178753394
 20
157.08682932573126
 10
96.78762730643564
 20
162.2449397178347
 10
97.98319526188266
 20
163.7091515581426
 10
97.98319526188266
 20
168.004609578307
 10
102.17785405359547
 20
171.6740365773537
 10
105.19703731371008
 20
167.97644343145325
 10
104.02354122598848
 20
165.1020825749776
 10
105.19703731371008
 20
162.22772171850175
  0
LWPOLYLINE
  5
37
330
17
100
AcDbEntity
  8
M
100
AcDbPolyline
 90
5
 70
1
 10
95.1790543920324
 20
190.2454651487824
 10
98.2122966070692
 20
186.53065400354896
 10
95.1790543920324
 20
182.81584285831553
 10
90.9325152909809
 20
186.53065400354896
 10
95.1790543920324
 20
190.2454651487824
  0
LWPOLYLINE
  5
38
330
17
100
AcDbEntity
  8
M
100
AcDbPolyline
 90
5
 70
1
 10
90.50116229518937
 20
171.68876439565219
 10
93.54643016602718
 20
167.95922543212026
 10
90.50116229518937
 20
164.22968646858837
 10
87.45589442435156
 20
167.95922543212026
 10
90.50116229518937
 20
171.68876439565219
  0
LWPOLYLINE
  5
39
330
17
100
AcDbEntity
  8
M
100
AcDbPolyline
 90
38
 70
1
 10
48.55581300827938
 20
53.059225432120385
 10
52.02197801406716
 20
48.81421383005091
 10
55.52137784484867
 20
51.67135668719381
 10
57.86233458925838
 20
48.804387421919614
 10
60.14484520756924
 20
50.20208257497749
 10
64.88634555192648
 20
50.20208257497749
 10
67.17183008997921
 20
47.40305010993795
 10
72.99374523085208
 20
54.533148439937285
 10
77.65961167189411
 20
50.247434154222944
 10
80.46624199019159
 20
53.68471375401074
 10
78.13330876967056
 20
57.97042803972508
 10
81.12198073063698
 20
61.63065400354895
 10
84.71627792635513
 20
61.63065400354895
 10
90.04703033524567
 20
55.10208257497751
 10
88.87141649758206
 20
53.66230853880138
 10
91.20434971810309
 20
49.376594253087156
 10
83.54981131609462
 20
40.00208257497751
 10
78.88394487505262
 20
40.00208257497751
 10
77.69226696368703
 20
38.54263487089249
 10
75.359333743166
 20
39.97120629946394
 10
72.55418963995369
 20
36.53574686699912
 10
80.71161628369438
 20
27.972547887833876
 10
77.18232569398553
 20
22.20945256476159
 10
76.01471015297811
 20
15.059559945603706
 10
73.05117536508054
 20
11.430119472702117
 10
9.38385006154821
 20
12.145471406640794
 10
3.4993998307815133
 20
19.352156448955384
 10
3.4993998307815133
 20
30.848639866285723
 10
12.275980120789647
 20
43.03047284540917
 10
18.147441926508883
 20
47.34493971783471
 10
21.64399390980326
 20
47.34493971783471
 10
25.143393740584788
 20
50.20208257497749
 10
27.545844400585413
 20
50.20208257497749
 10
36.82752944148066
 20
43.09753392041904
 10
40.29564937151919
 20
47.34493971783471
 10
42.62858259204022
 20
47.34493971783471
 10
47.294449033082216
 20
53.059225432120385
 10
48.55581300827938
 20
53.059225432120385
  0
LWPOLYLINE
  5
3A
330
17
100
AcDbEntity
  8
M
100
AcDbPolyline
 90
5
 70
1
 10
44.29662984471275
 20
57.9592254321204
 10
47.34189771555056
 20
61.688764395652186
 10
50.38716558638836
 20
57.9592254321204
 10
47.34189771555056
 20
54.22968646858861
 10
44.29662984471275
 20
57.9592254321204
  0
LWPOLYLINE
  5
3B
330
17
100
AcDbEntity
  8
M
100
AcDbPolyline
 90
5
 70
1
 10
26.345498730861422
 20
155.65825789715993
 10
23.300230860023614
 20
159.38779686069182
 10
26.345498730861422
 20
163.11733582422372
 10
29.39076660169923
 20
159.38779686069182
 10
26.345498730861422
 20
155.65825789715993
  0
LWPOLYLINE
  5
3C
330
17
100
AcDbEntity
  8
M
100
AcDbPolyline
 90
13
 70
1
 10
0.0
 20
187.99486584385681
 10
2.988896928772383
 20
191.65536732570843
 10
8.871677694048563
 20
188.77351114640618
 10
12.395348090203623
 20
188.77351114640618
 10
13.561814700464137
 20
187.34493971783462
 10
17.061214531245678
 20
187.34493971783462
 10
20.05903371961515
 20
183.67351114640607
 10
17.070059547211358
 20
180.0129150642942
 10
11.227172503809557
 20
178.5817585413121
 10
7.711612624003688
 20
175.7114215449247
 10
2.3804000376095313
 20
176.43688099024345
 10
0.0
 20
179.3521564489553
 10
0.0
 20
187.99486584385681
  0
LWPOLYLINE
  5
3D
330
17
100
AcDbEntity
  8
M
100
AcDbPolyline
 90
5
 70
1
 10
8.8484995769538
 20
155.9744786813666
 10
11.893767447791609
 20
152.2449397178347
 10
7.682032966693287
 20
147.08682932573126
 10
4.636765095855477
 20
150.81636828926315
 10
8.8484995769538
 20
155.9744786813666
  0
LWPOLYLINE
  5
3E
330
17
100
AcDbEntity
  8
M
100
AcDbPolyline
 90
5
 70
1
 10
5.3490997461722865
 20
114.22968646858855
 10
2.30383187533445
 20
117.95922543212045
 10
5.3490997461722865
 20
121.68876439565236
 10
8.394367617010069
 20
117.95922543212045
 10
5.3490997461722865
 20
114.22968646858855
  0
LWPOLYLINE
  5
3F
330
17
100
AcDbEntity
  8
M
100
AcDbPolyline
 90
17
 70
1
 10
873.8954790270901
 20
79.28624307861476
 10
863.0111913547853
 20
90.81254636214453
 10
884.1429851549675
 20
115.91636828926322
 10
888.5441350661245
 20
115.91636828926322
 10
895.0299640304768
 20
110.19270236986878
 10
900.4364953662986
 20
108.76134274017168
 10
902.5857027631429
 20
105.9163682892632
 10
904.7441026603555
 20
105.9163682892632
 10
905.8233026089619
 20
104.48779686069165
 10
907.9620151899522
 20
104.48779686069165
 10
912.3181896168212
 20
101.60459327449112
 10
918.2843188608837
 20
93.70703750807397
 10
918.2843188608837
 20
87.92569907045245
 10
913.3777022492054
 20
81.43065400354898
 10
895.0313031228992
 20
81.43065400354898
 10
893.9534363660197
 20
80.00384736343213
 10
873.8954790270901
 20
79.28624307861476
  0
LWPOLYLINE
  5
40
330
17
100
AcDbEntity
  8
M
100
AcDbPolyline
 90
37
 70
1
 10
619.1917711577894
 20
43.57930748009642
 10
617.5647482106832
 20
45.733049702626815
 10
610.0202666289073
 20
48.58644145958202
 10
603.5597190502505
 20
54.28779686069185
 10
601.4889171020005
 20
54.28779686069185
 10
600.4097171533944
 20
52.859225432120404
 10
592.8319245360324
 20
52.859225432120404
 10
585.2775248957887
 20
48.57351114640607
 10
582.03992504997
 20
48.57351114640607
 10
574.4855254097262
 20
44.28779686069184
 10
572.2509521755322
 20
44.28779686069184
 10
569.5027354610664
 20
47.925699070452524
 10
569.5027354610664
 20
79.42132322235973
 10
572.2397300716526
 20
83.04437037491664
 10
576.5565298660777
 20
84.47294180348818
 10
578.722685246983
 20
87.34035084201165
 10
593.8504086728449
 20
88.77071159168581
 10
598.2246909235558
 20
91.66590013016918
 10
610.1422040070725
 20
75.89030756020531
 10
612.2551149789055
 20
74.49184370307948
 10
622.9685505111074
 20
75.91001537023989
 10
624.0493083318567
 20
77.34064900390658
 10
640.2373075609503
 20
78.76922043247814
 10
641.3197488863319
 20
80.20208257497741
 10
657.6073144295252
 20
80.20208257497741
 10
661.4347310925973
 20
75.1356089366455
 10
661.4347310925973
 20
53.63998478473819
 10
658.6932495417178
 20
50.010998126056364
 10
651.138849901474
 20
48.58242669748491
 10
650.0529147892815
 20
47.14493971783473
 10
638.1817153546128
 20
47.14493971783473
 10
637.1025154060065
 20
45.71636828926317
 10
632.7857156115816
 20
45.71636828926317
 10
631.7065156629753
 20
44.28779686069184
 10
626.3105159199441
 20
44.28779686069184
 10
625.2266677635916
 20
42.85307245111913
 10
619.1917711577894
 20
43.57930748009642
  0
LWPOLYLINE
  5
41
330
17
100
AcDbEntity
  8
M
100
AcDbPolyline
 90
35
 70
1
 10
1471.577310766639
 20
29.387796860691818
 10
1475.9356651425476
 20
34.516623651016154
 10
1478.4125894624513
 20
33.059225432120364
 10
1484.408929724871
 20
33.059225432120364
 10
1485.6228955676559
 20
34.48779686069181
 10
1492.9066906243627
 20
34.48779686069181
 10
1494.1206564671475
 20
35.916368289263254
 10
1507.4742807377768
 20
35.916368289263254
 10
1510.4242177357432
 20
39.38779686069183
 10
1509.2102518929585
 20
40.81636828926327
 10
1512.330144108915
 20
44.487796860691816
 10
1514.758075794484
 20
44.487796860691816
 10
1515.9720416372684
 20
45.916368289263154
 10
1562.126636594106
 20
45.916368289263154
 10
1568.1918691010144
 20
48.77134742018752
 10
1582.7364029524454
 20
50.19765783531327
 10
1583.9885860742404
 20
51.671202615645065
 10
1588.3492612210457
 20
48.00580416675504
 10
1588.3492612210457
 20
39.35104653614951
 10
1585.2361022350156
 20
35.687541498938934
 10
1582.7591779151114
 20
37.144939717834724
 10
1564.6231792248466
 20
37.144939717834724
 10
1563.4092133820623
 20
35.71636828926328
 10
1548.8416232686482
 20
35.71636828926328
 10
1547.6276574258638
 20
34.287796860691834
 10
1540.31869423478
 20
34.287796860691834
 10
1530.606967492504
 20
30.002082574977496
 10
1523.3483405701734
 20
30.002082574977496
 10
1522.134374727389
 20
28.573511146406048
 10
1517.2785113562509
 20
28.573511146406048
 10
1516.0645455134666
 20
27.144939717834717
 10
1502.7109212428368
 20
27.144939717834717
 10
1501.4959215033432
 20
25.71515161969451
 10
1474.0891985923943
 20
26.431856048206193
 10
1471.577310766639
 20
29.387796860691818
  0
LWPOLYLINE
  5
42
330
17
100
AcDbEntity
  8
M
100
AcDbPolyline
 90
24
 70
1
 10
1509.2865688191162
 20
97.86941715549324
 10
1506.78954682078
 20
100.80786415096577
 10
1510.4314443491335
 20
106.52214986525178
 10
1507.9914759183598
 20
109.39345733039785
 10
1516.002452508081
 20
117.37028644222458
 10
1518.424469640005
 20
115.94519507958756
 10
1522.0663671683585
 20
120.23090936530178
 10
1524.4942988539276
 20
118.80233793673045
 10
1525.7300203176433
 20
120.25651095751977
 10
1526.943986160428
 20
118.82793952894843
 10
1535.4278138828224
 20
128.81154323672294
 10
1539.0697114111763
 20
125.95440037958005
 10
1542.7255421166267
 20
130.25651095751977
 10
1543.9565108211552
 20
128.8079308914434
 10
1549.941325726357
 20
133.03361926464285
 10
1553.6512347016874
 20
137.3993681003769
 10
1556.8173788557424
 20
133.673511146406
 10
1551.2945714558316
 20
127.1743786511137
 10
1528.1952694764493
 20
107.14493971783479
 10
1525.7762722557425
 20
107.14493971783479
 10
1522.1449905256804
 20
102.87171789739125
 10
1517.2817840322152
 20
101.440986157882
 10
1512.4038082591062
 20
97.13575578825528
 10
1509.2865688191162
 20
97.86941715549324
  0
LWPOLYLINE
  5
43
330
17
100
AcDbEntity
  8
M
100
AcDbPolyline
 90
34
 70
1
 10
1460.17586480728
 20
42.80479704957807
 10
1458.983654585427
 20
41.40182721322461
 10
1456.4730980694333
 20
42.87901428973073
 10
1449.7200989174157
 20
49.38094013787841
 10
1452.845817812474
 20
53.059225432120385
 10
1455.347238449546
 20
53.059225432120385
 10
1460.2135203584537
 20
50.195952408517705
 10
1466.2046495168242
 20
48.78590351934997
 10
1474.6931960168683
 20
60.2020825749775
 10
1482.0617949418074
 20
60.2020825749775
 10
1485.6858736299148
 20
57.35891896127454
 10
1489.3410060985993
 20
58.79268193009912
 10
1490.5712628149915
 20
57.344939717834606
 10
1492.9066906243627
 20
57.344939717834606
 10
1500.19048568107
 20
65.91636828926318
 10
1503.9248870856215
 20
65.91636828926318
 10
1505.1388529284059
 20
64.48779686069184
 10
1522.134374727389
 20
64.48779686069184
 10
1525.254266943345
 20
60.81636828926329
 10
1520.9204088846047
 20
55.71636828926319
 10
1518.476720769633
 20
55.71636828926319
 10
1509.9789598701414
 20
50.002082574977514
 10
1506.3411117974974
 20
50.002082574977514
 10
1502.699214269144
 20
47.14493971783473
 10
1500.19048568107
 20
47.14493971783473
 10
1497.8031353807185
 20
49.95432718894399
 10
1489.3639481937773
 20
41.44198010959632
 10
1484.433986564281
 20
39.991609333163034
 10
1480.8272173117136
 20
42.82119334180345
 10
1475.9791763844103
 20
37.11611292751038
 10
1473.5512446988412
 20
38.54468435608172
 10
1469.924199963514
 20
34.276448548759554
 10
1466.7977643216582
 20
35.012274298350185
 10
1460.17586480728
 20
42.80479704957807
  0
LWPOLYLINE
  5
44
330
17
100
AcDbEntity
  8
M
100
AcDbPolyline
 90
25
 70
1
 10
1379.3159067150166
 20
25.10208257497748
 10
1380.5636679666159
 20
26.570423784335272
 10
1381.7769149277162
 20
43.70312933512888
 10
1384.1815484709912
 20
47.947718418740905
 10
1378.101940872232
 20
55.10208257497751
 10
1382.9810025048387
 20
60.84366755284953
 10
1381.7647782921592
 20
66.56858369047525
 10
1386.1277124194346
 20
70.23588094247168
 10
1392.2334429390771
 20
64.48779686069184
 10
1394.6613746246462
 20
64.48779686069184
 10
1400.7312038385687
 20
58.77351114640605
 10
1404.3606730525964
 20
58.77351114640605
 10
1409.254566273125
 20
55.89399189515165
 10
1412.3242140172922
 20
52.28169004237693
 10
1412.3242140172922
 20
42.281690042376916
 10
1414.7521457028608
 20
39.42454718523414
 10
1414.7521457028608
 20
29.42454718523413
 10
1415.9973410927394
 20
27.95922543212037
 10
1412.8774488767833
 20
24.287796860691824
 10
1409.23555134843
 20
24.287796860691824
 10
1408.0215855056456
 20
22.85922543212038
 10
1398.309858763369
 20
22.85922543212038
 10
1397.0940235283922
 20
21.428454139120422
 10
1381.8269868562804
 20
22.14709222991551
 10
1379.3159067150166
 20
25.10208257497748
  0
LWPOLYLINE
  5
45
330
17
100
AcDbEntity
  8
M
100
AcDbPolyline
 90
47
 70
1
 10
2184.818467202869
 20
105.13755546460945
 10
2187.1372704906908
 20
107.99469832175213
 10
2187.1372704906908
 20
113.7089840360379
 10
2191.238672485032
 20
118.7625784801849
 10
2197.0356807045855
 20
120.19114990875623
 10
2198.203955094328
 20
121.630654003549
 10
2201.682160026061
 20
121.630654003549
 10
2204.0485943273957
 20
124.54648601761753
 10
2205.2079959713064
 20
123.1179145890462
 10
2207.471674440613
 20
125.90713470246185
 10
2214.450516531524
 20
127.34031282325509
 10
2226.053920721699
 20
133.05922543212034
 10
2228.348397836007
 20
133.05922543212034
 10
2231.1657438307097
 20
136.5306540035489
 10
2228.8757296714757
 20
139.3523239710599
 10
2228.8757296714757
 20
142.2142987123216
 10
2223.084691950675
 20
150.77689933290839
 10
2221.9261994288713
 20
156.4867043018896
 10
2218.4411148762797
 20
160.78089539963125
 10
2218.4411148762797
 20
163.63803825677414
 10
2214.9629099445474
 20
167.92375254248836
 10
2214.9629099445474
 20
169.42326975032373
 10
2229.5177613205337
 20
187.35721432599584
 10
2235.3983876702746
 20
185.9080366696646
 10
2242.344654855607
 20
180.2020825749775
 10
2244.675282877784
 20
180.2020825749775
 10
2247.0029589114374
 20
177.33400705161338
 10
2252.7894123289348
 20
175.90803666966482
 10
2259.7458221923994
 20
170.19375095537902
 10
2265.553385214009
 20
168.76257848018494
 10
2267.8721885018304
 20
165.90543562304205
 10
2270.814188852261
 20
165.1804310199272
 10
2270.814188852261
 20
137.8808769871709
 10
2256.278172062723
 20
134.29872952691312
 10
2255.1156084064633
 20
132.86626198475315
 10
2245.8403952551776
 20
131.4376905561816
 10
2242.9885493984043
 20
127.92375254248833
 10
2242.9885493984043
 20
109.42326975032368
 10
2245.3073526862254
 20
106.5661268931808
 10
2245.3073526862254
 20
87.99469832175232
 10
2246.4667543301366
 20
86.56612689318078
 10
2246.4667543301366
 20
82.20946682820274
 10
2243.535180743298
 20
78.59729128152581
 10
2241.1770004261994
 20
77.14446040013078
 10
2198.7830060950814
 20
77.86002611755016
 10
2184.818467202869
 20
95.06660968534564
 10
2184.818467202869
 20
105.13755546460945
  0
LWPOLYLINE
  5
46
330
17
100
AcDbEntity
  8
M
100
AcDbPolyline
 90
169
 70
1
 10
2054.449975983757
 20
111.43065400354901
 10
2050.971771052025
 20
114.2877968606919
 10
2047.4817413859373
 20
114.2877968606919
 10
2045.162938098116
 20
117.14493971783457
 10
2041.6847331663841
 20
117.14493971783457
 10
2039.3659298785626
 20
120.00208257497746
 10
2037.0471265907413
 20
120.00208257497746
 10
2033.5689216590094
 20
124.28779686069169
 10
2030.0907167272771
 20
124.28779686069169
 10
2027.7719134394556
 20
127.14493971783457
 10
2024.2873877269174
 20
127.14493971783457
 10
2014.3864255479964
 20
142.21502892278127
 10
2014.3864255479964
 20
145.07043616804438
 10
2006.9274283861498
 20
155.67508756849313
 10
2001.186257924706
 20
151.43065400354882
 10
1998.8628348592906
 20
151.43065400354882
 10
1994.255127383926
 20
148.5919314240649
 10
1983.798088263521
 20
140.0020825749775
 10
1980.3232079495929
 20
140.0020825749775
 10
1975.695416234597
 20
135.72543841795982
 10
1969.8954112147242
 20
134.29612848029038
 10
1959.44568699427
 20
125.7122883956534
 10
1946.609593592378
 20
127.15012068257847
 10
1944.2949950778852
 20
130.00208257497746
 10
1939.6573885022424
 20
130.00208257497746
 10
1938.4979868583318
 20
131.4306540035488
 10
1929.29370956056
 20
131.4306540035488
 10
1923.537244963529
 20
128.59349368172525
 10
1921.2110969725309
 20
125.72730095548445
 10
1915.4035339509217
 20
124.29612848029015
 10
1911.9151863410577
 20
121.43065400354902
 10
1908.4244799701678
 20
121.43065400354902
 10
1896.8304635310606
 20
115.71636828926324
 10
1892.141220611329
 20
115.71636828926324
 10
1885.1462117290146
 20
120.02586271009719
 10
1880.5086051533717
 20
125.74014842438297
 10
1873.5907943087575
 20
130.00208257497746
 10
1870.1125893770256
 20
130.00208257497746
 10
1865.4749828013828
 20
132.85922543212035
 10
1863.1368800041362
 20
132.85922543212035
 10
1860.8018592673056
 20
135.73635082458236
 10
1855.034229860459
 20
138.57901389116844
 10
1843.418179311822
 20
141.44158666977026
 10
1838.15737567357
 20
147.92375254248836
 10
1838.15737567357
 20
159.42326975032373
 10
1840.4761789613913
 20
162.28041260746662
 10
1840.4761789613913
 20
167.92786427457784
 10
1833.4912197618994
 20
177.96890460513336
 10
1841.654929026789
 20
186.59091988707098
 10
1844.56888742849
 20
191.61757896937482
 10
1850.3851439773423
 20
193.05089381252193
 10
1853.9009792085976
 20
195.9389477699609
 10
1856.2057909798727
 20
194.51899625360247
 10
1859.706306085918
 20
198.83220030333183
 10
1862.0251093737395
 20
195.97505744618914
 10
1866.6627159493823
 20
201.68934316047472
 10
1867.8221175932927
 20
200.2607717319034
 10
1872.4032204095895
 20
205.90543562304185
 10
1878.2176065684641
 20
207.33828954124633
 10
1889.8224173235074
 20
214.48779686069176
 10
1892.141220611329
 20
214.48779686069176
 10
1896.7402281681216
 20
217.32115958271493
 10
1900.2171538652735
 20
221.60529764333003
 10
1913.0364278720212
 20
230.22098723894712
 10
1917.65407810714
 20
227.37613911074538
 10
1919.9728813949614
 20
230.23328196788827
 10
1922.3139948570958
 20
228.79096565730904
 10
1929.2351813414862
 20
233.0549794765684
 10
1938.4922761248488
 20
234.480760308059
 10
1941.9608049372878
 20
238.75455204076124
 10
1951.2403009164689
 20
243.04224525422603
 10
1958.251771986564
 20
250.2416393666982
 10
1962.9051983305121
 20
245.94130568498375
 10
1969.7825317344955
 20
250.17830243985804
 10
1974.4181604591754
 20
255.890151120014
 10
1982.6216735333344
 20
261.66618688969965
 10
1987.2509342536903
 20
255.96218462677234
 10
1996.526147404976
 20
264.533613198201
 10
1999.5454992489613
 20
260.8132805595713
 10
1986.7920811659437
 20
246.52756627385708
 10
1990.7133803829242
 20
241.69588774926655
 10
1998.758993588262
 20
253.02560691786758
 10
2003.4825572684404
 20
257.3907560553439
 10
2004.6315115747552
 20
255.97505744618897
 10
2018.477400778745
 20
273.03544529700054
 10
2020.885444763818
 20
274.51899625360255
 10
2023.8616386992821
 20
270.85184117889514
 10
2023.8616386992821
 20
267.93280317063073
 10
2015.7729542634218
 20
253.6948388348401
 10
2019.6916725711706
 20
250.24591138871654
 10
2023.1819378773266
 20
254.54648601761764
 10
2026.1804419871034
 20
250.85184117889514
 10
2026.1804419871034
 20
236.5661268931807
 10
2027.3642330815148
 20
235.10750369408885
 10
2021.5672248619612
 20
226.53607512266038
 10
2024.3413395212376
 20
223.11791458904628
 10
2031.7625740358278
 20
232.26208274505456
 10
2030.6031723919168
 20
235.11922560219745
 10
2034.1002701763177
 20
239.4282189557557
 10
2035.2596718202287
 20
249.4282189557555
 10
2037.5744584262106
 20
252.28041260746647
 10
2037.5744584262106
 20
258.00442809551606
 10
2041.7444245543215
 20
261.67448281728787
 10
2046.3699707555406
 20
255.97505744618897
 10
2049.13968573673
 20
259.3877968606917
 10
2046.8496715774957
 20
262.20946682820266
 10
2046.8496715774957
 20
266.5661268931809
 10
2049.168474865317
 20
269.4232697503236
 10
2049.168474865317
 20
273.70898403603803
 10
2052.1193479615804
 20
277.3449397178347
 10
2053.3740116325184
 20
277.3449397178347
 10
2057.484286372692
 20
272.2804126074665
 10
2057.484286372692
 20
267.9845439805808
 10
2059.8183740528416
 20
263.67058040830904
 10
2056.3469762359905
 20
257.96747799118003
 10
2061.4421921263797
 20
251.68934316047475
 10
2066.049009475582
 20
257.3656915392113
 10
2069.5272144073137
 20
255.93712011063974
 10
2074.1956102093973
 20
261.6893431604748
 10
2080.0402494424643
 20
254.4877968606918
 10
2082.3630578502894
 20
254.4877968606918
 10
2090.442905062569
 20
243.10986984580651
 10
2095.05774542667
 20
247.37454537447155
 10
2100.9314986306035
 20
243.03209370570423
 10
2105.499454594986
 20
237.40362887476053
 10
2108.2691695761755
 20
240.81636828926324
 10
2103.6603521291204
 20
246.4951811139171
 10
2103.6603521291204
 20
249.42326975032358
 10
2106.658856238897
 20
253.11791458904608
 10
2107.8182578828073
 20
251.68934316047475
 10
2112.4335542841377
 20
257.37613911074544
 10
2117.1604015570324
 20
254.4640167255723
 10
2122.9574097765853
 20
247.32115958271515
 10
2127.5950163522284
 20
244.46401672557226
 10
2131.016738098617
 20
240.24789891248676
 10
2135.6047664397024
 20
244.4877968606918
 10
2138.0203183030167
 20
244.4877968606918
 10
2140.982293064931
 20
239.37830822494433
 10
2138.0350628710294
 20
235.74684119145806
 10
2129.900379724747
 20
228.58737481357315
 10
2126.4256464014006
 20
227.1602292470911
 10
2113.158670403749
 20
213.65612578906035
 10
2115.4523379632788
 20
209.41686846258435
 10
2116.6109367439203
 20
195.14104675838183
 10
2118.929431338312
 20
192.28428426176046
 10
2120.0888329822233
 20
179.42714140461757
 10
2122.4107784316916
 20
176.56612689318086
 10
2122.4107784316916
 20
170.85184117889506
 10
2124.7583708481
 20
167.95922543212026
 10
2121.7787086232497
 20
164.2877968606917
 10
2119.459905335428
 20
164.2877968606917
 10
2118.3056058721013
 20
162.86551214858602
 10
2107.8709910769053
 20
161.4369407200147
 10
2106.7064872524106
 20
160.0020825749775
 10
2099.7500773889465
 20
160.0020825749775
 10
2098.5963864785185
 20
158.58054769903873
 10
2089.321173327233
 20
157.1519762704674
 10
2088.1560609498397
 20
155.71636828926327
 10
2083.5184543741966
 20
155.71636828926327
 10
2080.672319250906
 20
152.2094668282028
 10
2080.672319250906
 20
127.92375254248833
 10
2078.353515963085
 20
125.06660968534567
 10
2078.353515963085
 20
122.2142987123216
 10
2072.550537244779
 20
113.63404219005125
 10
2071.3902264787607
 20
107.91527573046089
 10
2068.4362711627414
 20
104.27552225253045
 10
2065.456740972635
 20
105.00977542915967
 10
2056.771634269054
 20
111.43065400354901
 10
2054.449975983757
 20
111.43065400354901
  0
LWPOLYLINE
  5
47
330
17
100
AcDbEntity
  8
M
100
AcDbPolyline
 90
5
 70
1
 10
2076.973025988506
 20
249.3783082249441
 10
2074.2093742662432
 20
252.78357671812103
 10
2071.418194430289
 20
247.96871406786792
 10
2074.1818461525518
 20
244.563445574691
 10
2076.973025988506
 20
249.3783082249441
  0
LWPOLYLINE
  5
48
330
17
100
AcDbEntity
  8
M
100
AcDbPolyline
 90
5
 70
1
 10
1944.333412867243
 20
215.6690313232399
 10
1939.2731168710218
 20
210.8195030027973
 10
1943.1711640730643
 20
207.38876853157362
 10
1947.1123410725886
 20
212.24493971783477
 10
1944.333412867243
 20
215.6690313232399
  0
LWPOLYLINE
  5
49
330
17
100
AcDbEntity
  8
M
100
AcDbPolyline
 90
18
 70
1
 10
2880.4704512217963
 20
70.85708915531619
 10
2880.4704512217963
 20
77.99994629817331
 10
2882.6105717641567
 20
80.19200198821208
 10
2888.2726194459287
 20
81.64186469365742
 10
2889.6782896133027
 20
80.20208257497741
 10
2899.4365439008416
 20
80.20208257497741
 10
2908.564952939136
 20
72.29060187705794
 10
2908.564952939136
 20
59.34707599463884
 10
2906.4149906437065
 20
57.14493971783463
 10
2903.6255404719723
 20
57.14493971783463
 10
2900.8360903002385
 20
54.28779686069185
 10
2896.6339069976725
 20
54.28779686069185
 10
2888.2655564824704
 20
50.002082574977514
 10
2884.099389269835
 20
50.002082574977514
 10
2882.6782652118645
 20
48.54647154005476
 10
2879.075726135929
 20
50.76044952597192
 10
2879.075726135929
 20
69.42851772674463
 10
2880.4704512217963
 20
70.85708915531619
  0
LWPOLYLINE
  5
4A
330
17
100
AcDbEntity
  8
M
100
AcDbPolyline
 90
19
 70
1
 10
2824.6814477871158
 20
57.92954810307749
 10
2819.102547443648
 20
66.50097667450594
 10
2819.102547443648
 20
72.2189320035651
 10
2813.5236471001795
 20
82.21893200356511
 10
2813.5236471001795
 20
85.14280344103042
 10
2815.6698614335237
 20
87.34110080247804
 10
2831.011837378061
 20
88.76967223104937
 10
2832.4103104260134
 20
90.20208257497741
 10
2849.2362355090086
 20
90.20208257497741
 10
2856.960124762057
 20
80.85233140373505
 10
2856.960124762057
 20
77.91850456606753
 10
2852.7759495044556
 20
73.63279028035308
 10
2852.7759495044556
 20
70.78194384904334
 10
2847.1970491609877
 20
63.63908670618612
 10
2847.1970491609877
 20
60.7756474232104
 10
2838.070615462015
 20
51.427738964964334
 10
2827.526007262664
 20
52.14777218879774
 10
2824.6814477871158
 20
55.061361708924615
 10
2824.6814477871158
 20
57.92954810307749
  0
LWPOLYLINE
  5
4B
330
17
100
AcDbEntity
  8
M
100
AcDbPolyline
 90
90
 70
1
 10
2714.4981660036224
 20
60.7756474232104
 10
2714.4981660036224
 20
65.06136170892462
 10
2711.718053744313
 20
67.908940046846
 10
2710.3210958864865
 20
73.63237358319297
 10
2704.084618429191
 20
82.85922543212033
 10
2681.780001152377
 20
82.85922543212033
 10
2680.38527606651
 20
84.28779686069188
 10
2673.4959013039165
 20
84.28779686069188
 10
2672.1011762180497
 20
82.85922543212033
 10
2656.7592002735128
 20
82.85922543212033
 10
2655.3644751876454
 20
81.43065400354898
 10
2648.39084975831
 20
81.43065400354898
 10
2646.9961246724433
 20
80.00208257497744
 10
2641.4172243289754
 20
80.00208257497744
 10
2640.000418369183
 20
78.55089442722063
 10
2637.210968197449
 20
79.97946585579197
 10
2635.8383239855075
 20
78.57351114640609
 10
2623.2857982127043
 20
78.57351114640609
 10
2621.891073126837
 20
77.14493971783453
 10
2616.312172783369
 20
77.14493971783453
 10
2614.917447697502
 20
75.7163682892632
 10
2609.2542966872925
 20
75.7163682892632
 10
2603.662634013739
 20
81.44372604212235
 10
2599.4784587561385
 20
82.8722974706937
 10
2596.701770914489
 20
85.71636828926322
 10
2574.470420207359
 20
85.71636828926322
 10
2573.075695121492
 20
84.28779686069188
 10
2566.084061647192
 20
84.28779686069188
 10
2560.5118972398136
 20
81.43410370340033
 10
2541.002826127416
 20
78.57946007182903
 10
2539.6022930606837
 20
77.14493971783453
 10
2527.0317592429155
 20
77.14493971783453
 10
2524.1981473233304
 20
75.69375157007774
 10
2517.8618278579734
 20
82.18383699424803
 10
2513.632911312137
 20
89.40307254158841
 10
2515.797874181134
 20
91.62057341678364
 10
2521.3868850281183
 20
93.05173381012644
 10
2525.5820314765047
 20
95.9163682892632
 10
2531.14969187874
 20
95.9163682892632
 10
2533.929300297405
 20
98.76343055964077
 10
2539.5207016221652
 20
100.19520307509389
 10
2546.505521231077
 20
104.48779686069165
 10
2552.0705681667455
 20
104.48779686069165
 10
2554.8600183384788
 20
107.34493971783476
 10
2560.4569267269126
 20
107.34493971783476
 10
2577.193627757317
 20
115.91636828926322
 10
2579.9732191425833
 20
115.91636828926322
 10
2585.5414314856966
 20
120.19387204727727
 10
2591.113028817952
 20
121.62057341678367
 10
2593.9123207427556
 20
124.48779686069167
 10
2598.1121614496906
 20
124.48779686069167
 10
2610.6646872224937
 20
131.63065400354878
 10
2614.8331970307604
 20
131.63065400354878
 10
2617.622647202494
 20
134.4877968606919
 10
2620.4120973742283
 20
134.4877968606919
 10
2623.183539500997
 20
137.32649466455317
 10
2637.190923738003
 20
144.5001481367605
 10
2639.960329450292
 20
143.0818421513058
 10
2641.3750989956047
 20
144.53094446611047
 10
2646.356636796139
 20
139.4285177267447
 10
2646.356636796139
 20
125.06136170892468
 10
2645.0016677996537
 20
123.67351114640601
 10
2646.9961246724433
 20
121.630654003549
 10
2649.7774255856793
 20
121.630654003549
 10
2655.3563259291473
 20
117.34493971783455
 10
2658.135917314414
 20
117.34493971783455
 10
2666.53679079918
 20
113.04256932348599
 10
2676.2808946680034
 20
104.48779686069165
 10
2679.0044043884427
 20
104.48779686069165
 10
2685.978029817778
 20
108.7735111464061
 10
2688.7536265817116
 20
108.7735111464061
 10
2691.528120567134
 20
111.61533486957653
 10
2698.544650184214
 20
114.49005587094274
 10
2711.1580352806045
 20
113.05455819562127
 10
2712.5372586266863
 20
111.64186469365744
 10
2718.03301163185
 20
113.049144845355
 10
2722.207446830852
 20
117.32488270663421
 10
2734.764855376016
 20
124.47051832978029
 10
2741.8172115625775
 20
130.2493171220702
 10
2750.9610182361644
 20
116.56098192485432
 10
2750.9610182361644
 20
112.20421885178177
 10
2745.3591303078965
 20
106.46638770392647
 10
2734.2349737308173
 20
90.79948526612381
 10
2735.6069075229575
 20
86.58380411748001
 10
2742.6201598369985
 20
79.40035844870641
 10
2737.006874638054
 20
70.77610094782783
 10
2735.6109550936876
 20
65.05692145396624
 10
2729.2885398385342
 20
57.142001260047984
 10
2717.34304612253
 20
57.86172947854562
 10
2714.4981660036224
 20
60.7756474232104
  0
LWPOLYLINE
  5
4C
330
17
100
AcDbEntity
  8
M
100
AcDbPolyline
 90
20
 70
1
 10
2488.552702093167
 20
47.99994629817328
 10
2490.702664388597
 20
50.20208257497749
 10
2494.9048476911626
 20
50.20208257497749
 10
2506.049601113076
 20
55.90968634519344
 10
2515.867161490179
 20
58.78277405363419
 10
2524.2827969986115
 20
53.03620002149834
 10
2529.833042111921
 20
47.351264925122095
 10
2539.529314502817
 20
48.77006144655471
 10
2545.1149507823748
 20
51.63065400354894
 10
2553.483301297577
 20
51.63065400354894
 10
2559.0622016410452
 20
54.48779686069183
 10
2561.917894434556
 20
54.48779686069183
 10
2564.0678567299856
 20
52.285660583887505
 10
2564.0678567299856
 20
27.918504566067483
 10
2561.917894434556
 20
25.71636828926327
 10
2528.4444923737474
 20
25.71636828926327
 10
2527.0489692965257
 20
24.286979504166695
 10
2490.0045103238635
 20
25.002893304948316
 10
2488.552702093167
 20
26.489933137496035
 10
2488.552702093167
 20
47.99994629817328
  0
LWPOLYLINE
  5
4D
330
17
100
AcDbEntity
  8
M
100
AcDbPolyline
 90
74
 70
1
 10
3184.9739611791865
 20
57.162529265359694
 10
3176.591754979423
 20
65.08112989682336
 10
3178.814906558242
 20
69.37697890035533
 10
3175.028927189629
 20
74.25413793080638
 10
3172.811020444579
 20
72.82556650223482
 10
3169.9348819485203
 20
76.53065400354886
 10
3172.8231993768272
 20
80.25143059970796
 10
3177.259012866928
 20
75.96571631399374
 10
3180.5965324713634
 20
80.26516232075909
 10
3185.100861218786
 20
74.46261415878475
 10
3191.752093974427
 20
70.17850207846821
 10
3201.6482674901335
 20
58.84658330253434
 10
3204.319582300404
 20
63.66430580819271
 10
3197.6587162616524
 20
72.24493971783463
 10
3200.5087264290423
 20
75.91636828926318
 10
3202.799849225061
 20
75.91636828926318
 10
3208.3781570224305
 20
73.04194224519867
 10
3216.1345948345183
 20
65.90482299617983
 10
3220.5789077107797
 20
64.47351430639226
 10
3225.00363412015
 20
58.77351114640605
 10
3227.2215408652005
 20
58.77351114640605
 10
3228.28152748995
 20
57.40801946361618
 10
3230.9273174374102
 20
60.81636828926329
 10
3226.4915039473094
 20
66.53065400354885
 10
3230.9273174374102
 20
72.24493971783463
 10
3228.232560742174
 20
75.7163682892632
 10
3219.360933761972
 20
75.7163682892632
 10
3215.401970222056
 20
80.81636828926331
 10
3219.360933761972
 20
85.91636828926319
 10
3229.3610626242457
 20
85.91636828926319
 10
3231.5398723502035
 20
87.31975701592765
 10
3234.254177554986
 20
90.81636828926332
 10
3232.0362708099356
 20
93.67351114640599
 10
3234.8926105963405
 20
97.35309363404299
 10
3243.8616938708533
 20
95.90882911130794
 10
3244.9647948256047
 20
94.48779686069186
 10
3252.6295349377297
 20
94.48779686069186
 10
3253.787455058031
 20
95.97944803504488
 10
3258.2461069672395
 20
90.23574150486292
 10
3260.431749338432
 20
91.64353119283275
 10
3263.7364509675435
 20
90.22447473705886
 10
3264.8280220355077
 20
91.63065400354897
 10
3267.1438622761098
 20
91.63065400354897
 10
3268.2038489008596
 20
90.26516232075909
 10
3269.2638355256086
 20
91.63065400354897
 10
3271.579675766211
 20
91.63065400354897
 10
3274.4030924497483
 20
87.99348358233594
 10
3274.4030924497483
 20
80.78211013904779
 10
3272.1851857046977
 20
77.9249672819049
 10
3272.1851857046977
 20
73.63925299619045
 10
3269.357202159961
 20
69.99619947151281
 10
3257.158715062183
 20
71.42477090008437
 10
3254.945375178332
 20
68.57351114640609
 10
3251.545299009789
 20
68.57351114640609
 10
3246.000532147162
 20
71.43065400354898
 10
3241.5595497220233
 20
71.43065400354898
 10
3237.1759928892593
 20
74.25413793080638
 10
3234.507364522691
 20
70.8163682892633
 10
3238.9431780127925
 20
65.10208257497752
 10
3237.8076311564146
 20
63.63925299619066
 10
3237.8076311564146
 20
60.78937874143053
 10
3234.501147291232
 20
55.11009171174375
 10
3237.834224640267
 20
50.81636828926328
 10
3235.000692769266
 20
47.16616732216528
 10
3229.414730165667
 20
44.28779686069184
 10
3225.00363412015
 20
44.28779686069184
 10
3223.889072025869
 20
42.852000187264096
 10
3213.822101314821
 20
44.29293710894711
 10
3207.225974651883
 20
49.957760850786514
 10
3206.15142678722
 20
48.57351114640607
 10
3203.8551350561643
 20
48.57351114640607
 10
3197.192012796825
 20
52.8652813509074
 10
3190.5431241542283
 20
54.29281542370879
 10
3184.9739611791865
 20
57.162529265359694
  0
LWPOLYLINE
  5
4E
330
17
100
AcDbEntity
  8
M
100
AcDbPolyline
 90
30
 70
1
 10
3111.1869466885337
 20
65.1419726328093
 10
3117.343220820511
 20
71.63065400354895
 10
3119.653063730249
 20
71.63065400354895
 10
3121.8709704752996
 20
68.77351114640607
 10
3123.9810146063764
 20
68.77351114640607
 10
3129.525781469003
 20
78.77351114640607
 10
3131.8515508280275
 20
78.77351114640607
 10
3134.083659711732
 20
75.89807286764416
 10
3137.406164086326
 20
74.47137181827546
 10
3144.0172348851033
 20
67.37429941244977
 10
3146.2418163421876
 20
68.80717007629156
 10
3151.7637447857064
 20
61.69373374933051
 10
3153.9816515307566
 20
64.55087660647341
 10
3157.3085116483326
 20
60.26516232075907
 10
3158.417465020858
 20
61.69373374933051
 10
3159.526418393383
 20
60.26516232075907
 10
3163.958992591213
 20
65.97527512705592
 10
3177.952777960125
 20
49.39041894211049
 10
3175.1007323565127
 20
45.71636828926317
 10
3172.8709058855666
 20
45.71636828926317
 10
3169.544045767991
 20
42.8592254321204
 10
3132.960504200553
 20
42.8592254321204
 10
3131.8489331828905
 20
41.42728191131806
 10
3121.2160280383287
 20
42.14820180933154
 10
3115.622760178635
 20
49.35353871047632
 10
3115.622760178635
 20
52.2106815676191
 10
3113.4048534335843
 20
55.067824424761994
 10
3113.4048534335843
 20
59.353538710476215
 10
3111.1869466885337
 20
62.210681567619105
 10
3111.1869466885337
 20
65.1419726328093
  0
LWPOLYLINE
  5
4F
330
17
100
AcDbEntity
  8
M
100
AcDbPolyline
 90
5
 70
1
 10
3172.833858863686
 20
94.55087660647354
 10
3175.732835778852
 20
90.81636828926332
 10
3172.833858863686
 20
87.08185997205308
 10
3169.9348819485203
 20
90.81636828926332
 10
3172.833858863686
 20
94.55087660647354
  0
LWPOLYLINE
  5
50
330
17
100
AcDbEntity
  8
M
100
AcDbPolyline
 90
8
 70
1
 10
3150.5871429513704
 20
104.30358218734148
 10
3147.762960301615
 20
109.39700219890524
 10
3152.858136918318
 20
115.96069001345421
 10
3156.236605297687
 20
113.05922543212033
 10
3159.571097588839
 20
113.05922543212033
 10
3167.9737162887463
 20
103.67808961736968
 10
3165.108242729497
 20
99.98674085781877
 10
3150.5871429513704
 20
104.30358218734148
  0
LWPOLYLINE
  5
51
330
17
100
AcDbEntity
  8
M
100
AcDbPolyline
 90
5
 70
1
 10
3162.1722083408436
 20
76.53065400354886
 10
3165.0711852560094
 20
80.26516232075909
 10
3167.970162171175
 20
76.53065400354886
 10
3165.0711852560094
 20
72.79614568633863
 10
3162.1722083408436
 20
76.53065400354886
  0
LWPOLYLINE
  5
52
330
17
100
AcDbEntity
  8
M
100
AcDbPolyline
 90
5
 70
1
 10
3161.3164419360237
 20
86.53065400354888
 10
3158.417465020858
 20
82.79614568633863
 10
3154.4095347331668
 20
87.95922543212042
 10
3157.3085116483326
 20
91.69373374933065
 10
3161.3164419360237
 20
86.53065400354888
  0
LWPOLYLINE
  5
53
330
17
100
AcDbEntity
  8
M
100
AcDbPolyline
 90
5
 70
1
 10
3108.5145632572207
 20
75.97944803504487
 10
3111.4135401723865
 20
72.24493971783463
 10
3108.5145632572207
 20
68.51043140062441
 10
3105.6155863420545
 20
72.24493971783463
 10
3108.5145632572207
 20
75.97944803504487
  0
LWPOLYLINE
  5
54
330
17
100
AcDbEntity
  8
M
100
AcDbPolyline
 90
5
 70
1
 10
3100.7518896495435
 20
75.65328854348152
 10
3097.8529127343777
 20
79.38779686069175
 10
3100.7518896495435
 20
83.12230517790198
 10
3103.6508665647098
 20
79.38779686069175
 10
3100.7518896495435
 20
75.65328854348152
  0
LWPOLYLINE
  5
55
330
17
100
AcDbEntity
  8
M
100
AcDbPolyline
 90
5
 70
1
 10
3099.656889387394
 20
71.71170836874752
 10
3102.5347673885844
 20
66.52144866533538
 10
3099.6289831666427
 20
62.77817106692196
 10
3096.751105165453
 20
67.96843077033388
 10
3099.656889387394
 20
71.71170836874752
  0
LWPOLYLINE
  5
56
330
17
100
AcDbEntity
  8
M
100
AcDbPolyline
 90
8
 70
1
 10
3091.425785983079
 20
92.27919786805016
 10
3091.425785983079
 20
87.92496728190491
 10
3088.602369299542
 20
84.28779686069188
 10
3086.3844625544916
 20
84.28779686069188
 10
3084.103635951289
 20
81.34959963835043
 10
3081.225757950099
 20
86.53985934176234
 10
3088.553402551766
 20
95.97944803504488
 10
3091.425785983079
 20
92.27919786805016
  0
LWPOLYLINE
  5
57
330
17
100
AcDbEntity
  8
M
100
AcDbPolyline
 90
6
 70
1
 10
3991.688400697092
 20
41.458213586379465
 10
3986.7544352344926
 20
45.07472769107468
 10
3988.9588936058003
 20
48.84500023516192
 10
3999.550955123328
 20
36.526431517187376
 10
3997.31885957822
 20
34.23590737056803
 10
3991.688400697092
 20
41.458213586379465
  0
LWPOLYLINE
  5
58
330
17
100
AcDbEntity
  8
M
100
AcDbPolyline
 90
32
 70
1
 10
3940.8459707123466
 20
29.428463478969768
 10
3944.9827321611347
 20
33.673511146406156
 10
3943.630231185032
 20
35.061415956699534
 10
3943.630231185032
 20
37.99989205039833
 10
3948.6026870122314
 20
43.10250970722929
 10
3952.7790777212604
 20
38.816795421514946
 10
3955.5504032726585
 20
41.6606647655201
 10
3959.7267939816866
 20
38.80352190837721
 10
3963.873939468306
 20
43.05922543212037
 10
3970.9189509374123
 20
43.05922543212037
 10
3973.661031266402
 20
40.2453668500864
 10
3975.0456344970794
 20
41.666214241814714
 10
3982.0496021013314
 20
35.916368289263254
 10
3986.2323835371826
 20
35.916368289263254
 10
3988.378398748001
 20
33.71417776468411
 10
3988.378398748001
 20
29.347130242413865
 10
3985.6079031876293
 20
26.504112615752696
 10
3987.000033423972
 20
22.218398330038358
 10
3985.6337675355553
 20
20.816368289263252
 10
3987.0258977718986
 20
19.387796860691807
 10
3984.8402533008402
 20
17.144939717834706
 10
3975.0953416464404
 20
17.144939717834706
 10
3973.703211410098
 20
15.716368289263261
 10
3955.5211580502496
 20
15.716368289263261
 10
3954.1712079576027
 20
17.101655442725793
 10
3952.819013932861
 20
15.714065618726458
 10
3939.509466907558
 20
16.432904844631334
 10
3938.0220809794205
 20
17.959225432120363
 10
3939.4142112157633
 20
19.387796860691807
 10
3938.0410079170956
 20
20.796945909311802
 10
3940.8459707123466
 20
26.553720100250366
 10
3940.8459707123466
 20
29.428463478969768
  0
LWPOLYLINE
  5
59
330
17
100
AcDbEntity
  8
M
100
AcDbPolyline
 90
5
 70
1
 10
3984.2416372992125
 20
50.81636828926328
 10
3982.0138126844586
 20
48.530226871297046
 10
3979.7859880697038
 20
50.81636828926328
 10
3982.0138126844586
 20
53.102509707229295
 10
3984.2416372992125
 20
50.81636828926328
  0
LWPOLYLINE
  5
5A
330
17
100
AcDbEntity
  8
M
100
AcDbPolyline
 90
5
 70
1
 10
3980.621682448116
 20
60.24536685008641
 10
3982.8495070628696
 20
57.9592254321204
 10
3980.621682448116
 20
55.67308401415416
 10
3978.3938578333614
 20
57.9592254321204
 10
3980.621682448116
 20
60.24536685008641
  0
LWPOLYLINE
  5
5B
330
17
100
AcDbEntity
  8
M
100
AcDbPolyline
 90
9
 70
1
 10
3980.0652465901844
 20
45.1020825749775
 10
3977.8374219754296
 20
42.81594115701148
 10
3976.445291739087
 20
44.24451258558293
 10
3975.0436680071834
 20
42.80619915431505
 10
3970.049036577273
 20
49.39596539238411
 10
3972.279837952252
 20
51.68516149194169
 10
3976.45622866128
 20
45.970875777655905
 10
3977.8374219754296
 20
47.388223992943736
 10
3980.0652465901844
 20
45.1020825749775
  0
LWPOLYLINE
  5
5C
330
17
100
AcDbEntity
  8
M
100
AcDbPolyline
 90
16
 70
1
 10
3957.5119042882197
 20
56.53065400354895
 10
3956.119774051877
 20
57.9592254321204
 10
3958.347598666631
 20
60.24536685008641
 10
3960.5754232813856
 20
57.9592254321204
 10
3959.183293045043
 20
56.53065400354895
 10
3962.5841923751846
 20
53.04073079977434
 10
3965.288182181837
 20
51.65334530950627
 10
3966.700380084688
 20
53.102509707229295
 10
3968.928204699442
 20
50.81636828926328
 10
3966.700380084688
 20
48.53022687129715
 10
3965.308249848345
 20
49.958798299868604
 10
3963.925639864444
 20
48.53999633127726
 10
3958.357118919073
 20
52.82571061699159
 10
3956.955468430288
 20
51.38736972844005
 10
3954.7276438155345
 20
53.673511146406064
 10
3957.5119042882197
 20
56.53065400354895
  0
LWPOLYLINE
  5
5D
330
17
100
AcDbEntity
  8
M
100
AcDbPolyline
 90
60
 70
1
 10
4751.281283456313
 20
115.00851131127288
 10
4745.900183984183
 20
120.00208257497746
 10
4743.504691754851
 20
120.00208257497746
 10
4737.517994962381
 20
125.71636828926324
 10
4731.524697327958
 20
125.71636828926324
 10
4730.327357969465
 20
127.14493971783457
 10
4725.538000535488
 20
127.14493971783457
 10
4724.340661176995
 20
128.57351114640613
 10
4717.156625026031
 20
128.57351114640613
 10
4712.922097901796
 20
133.62581684426766
 10
4711.723531948571
 20
137.91592155991862
 10
4705.736835156102
 20
146.48735013134706
 10
4704.541810784568
 20
150.76477823435087
 10
4696.169046979766
 20
159.32739982520138
 10
4693.758232296509
 20
163.6419923652983
 10
4692.562079845047
 20
173.63207949452786
 10
4691.36049397174
 20
175.0657175315693
 10
4691.36049397174
 20
180.78000324585508
 10
4688.969138341869
 20
183.63318125604144
 10
4687.770326994291
 20
196.50613047067432
 10
4686.552627553865
 20
199.41185743411327
 10
4706.3865185840305
 20
218.77351114640598
 10
4708.794352574393
 20
218.77351114640598
 10
4713.623173131668
 20
221.65419615558247
 10
4718.438839314509
 20
217.34493971783465
 10
4720.841973408168
 20
217.34493971783465
 10
4723.236652125156
 20
214.48779686069176
 10
4725.612227784324
 20
214.48779686069176
 10
4732.830491414893
 20
210.18166380268545
 10
4739.983729311431
 20
203.06942837817576
 10
4745.9704261039
 20
204.4979998067471
 10
4753.176148369792
 20
197.3335808541128
 10
4757.970183147679
 20
195.9036142655508
 10
4760.354172238467
 20
193.0592254321204
 10
4762.737106625754
 20
193.0592254321204
 10
4766.329124701236
 20
190.2020825749775
 10
4768.735547747926
 20
190.2020825749775
 10
4774.741347598215
 20
183.03643316157013
 10
4781.837692800981
 20
178.80303185723756
 10
4783.010289743197
 20
180.2020825749775
 10
4786.695638125334
 20
180.2020825749775
 10
4789.742321368241
 20
176.56701904695703
 10
4789.742321368241
 20
175.0657175315693
 10
4778.95677166463
 20
162.19724541569636
 10
4777.779419498929
 20
157.98307258318965
 10
4781.34974355647
 20
153.72324189846444
 10
4783.744422273457
 20
146.5803847556073
 10
4786.139100990445
 20
143.7232418984644
 10
4788.535999683566
 20
136.57376300202094
 10
4792.165761817256
 20
130.79943295385777
 10
4786.688223771036
 20
125.71636828926324
 10
4784.289215078645
 20
125.71636828926324
 10
4780.707120481685
 20
122.86711870970967
 10
4774.730969318624
 20
121.44106372474539
 10
4773.524905181901
 20
120.00208257497746
 10
4769.913784048599
 20
120.00208257497746
 10
4765.124426614624
 20
117.14493971783457
 10
4760.335069180648
 20
117.14493971783457
 10
4755.537706551435
 20
114.28302127509204
 10
4751.281283456313
 20
115.00851131127288
  0
LWPOLYLINE
  5
5E
330
17
100
AcDbEntity
  8
M
100
AcDbPolyline
 90
94
 70
1
 10
4303.421854071237
 20
0.7207200606635933
 10
4304.021886019784
 20
84.48231492141866
 10
4354.4343831231745
 20
87.34651674300831
 10
4361.659268917811
 20
83.03643316157006
 10
4364.034844576979
 20
80.20208257497741
 10
4367.617028606417
 20
80.20208257497741
 10
4375.995507292055
 20
73.06169419141706
 10
4397.46446603997
 20
74.48475408068455
 10
4398.664355666648
 20
75.91636828926318
 10
4409.440409893093
 20
75.91636828926318
 10
4410.637749251587
 20
77.34493971783452
 10
4421.413803478032
 20
77.34493971783452
 10
4422.6233951221375
 20
78.78812961278747
 10
4427.4127525561125
 20
77.35955818421591
 10
4428.597839628996
 20
78.77351114640607
 10
4439.373893855441
 20
78.77351114640607
 10
4440.568934003487
 20
80.199339337373
 10
4464.515721173366
 20
81.62791076594456
 10
4465.715359742308
 20
83.0592254321203
 10
4478.886092685741
 20
83.0592254321203
 10
4480.085682209244
 20
84.4904815811256
 10
4530.470858722135
 20
81.62783198744705
 10
4539.498395443011
 20
69.42075658303959
 10
4539.498395443011
 20
66.55669705854517
 10
4546.682431593975
 20
53.699554201402265
 10
4546.682431593975
 20
50.8527333326716
 10
4549.622445143536
 20
47.34493971783471
 10
4569.880545586234
 20
47.34493971783471
 10
4580.020494834772
 20
60.8664487368028
 10
4583.613578717992
 20
69.4404205846597
 10
4590.238653025675
 20
77.34493971783452
 10
4593.830671101156
 20
77.34493971783452
 10
4595.028010459651
 20
78.77351114640607
 10
4615.382779554047
 20
78.77351114640607
 10
4616.580118912542
 20
80.20208257497741
 10
4634.54020928995
 20
80.20208257497741
 10
4635.737548648444
 20
81.63065400354897
 10
4641.743348498734
 20
81.63065400354897
 10
4644.0998211000815
 20
83.03643316157006
 10
4648.908281591877
 20
88.77351114640608
 10
4683.724453294856
 20
88.77351114640608
 10
4684.92179265335
 20
87.34493971783475
 10
4695.697846879795
 20
87.34493971783475
 10
4699.934605381865
 20
82.28997171492259
 10
4701.133952418928
 20
76.56610438212175
 10
4705.928566273667
 20
67.98526848711673
 10
4705.928566273667
 20
65.13090223049534
 10
4709.5205843491485
 20
59.41661651620955
 10
4709.5205843491485
 20
56.556697058545154
 10
4714.309941783124
 20
47.98526848711659
 10
4714.309941783124
 20
43.63714610299774
 10
4711.271245936641
 20
40.01161251002772
 10
4698.079790087012
 20
37.14997420804755
 10
4689.639044503027
 20
32.83390175782242
 10
4686.072466858516
 20
37.08926251631206
 10
4680.1411599976045
 20
30.012492296173974
 10
4674.071384721567
 20
28.564096321267552
 10
4659.68098444403
 20
41.4412191705823
 10
4654.892839828245
 20
42.86942883926426
 10
4646.572143072957
 20
49.96057374561047
 10
4645.409593823051
 20
48.57351114640607
 10
4643.014915106063
 20
48.57351114640607
 10
4640.632796762223
 20
45.73135434153252
 10
4628.659403177284
 20
41.4456400558183
 10
4626.260888865378
 20
38.58392086760254
 10
4620.274192072908
 20
37.155349439031205
 10
4617.879513355921
 20
34.298206581888316
 10
4611.882270934041
 20
32.86711870970971
 10
4608.290252858559
 20
30.009975852566818
 10
4602.314101695499
 20
28.58392086760253
 10
4599.910698200282
 20
25.71636828926327
 10
4597.516019483293
 20
25.71636828926327
 10
4594.576005933732
 20
22.208574674426274
 10
4594.576005933732
 20
12.208574674426377
 10
4590.33198333233
 20
7.144939717834697
 10
4578.358589747391
 20
7.144939717834697
 10
4577.161250388897
 20
5.716368289263252
 10
4548.3317754783875
 20
5.716368289263252
 10
4542.897677617824
 20
12.199907720746527
 10
4541.698874744399
 20
17.921178040028018
 10
4538.101056084517
 20
23.644691490888327
 10
4538.101056084517
 20
26.49428896014061
 10
4533.321194127708
 20
32.19724541569613
 10
4532.123854769214
 20
36.482959701410465
 10
4529.174345742485
 20
40.00208257497751
 10
4510.110246313237
 20
40.00208257497751
 10
4508.912906954743
 20
38.57351114640606
 10
4495.73978215776
 20
38.57351114640606
 10
4464.608958836918
 20
4.287796860691806
 10
4450.2432783885415
 20
4.287796860691806
 10
4449.046374007757
 20
2.859744413412857
 10
4320.931062648906
 20
1.4311729848414112
 10
4319.731542828412
 20
0.0
 10
4303.421854071237
 20
0.7207200606635933
  0
LWPOLYLINE
  5
5F
330
17
100
AcDbEntity
  8
M
100
AcDbPolyline
 90
94
 70
1
 10
5357.699800583379
 20
67.15372245212237
 10
5355.611768452871
 20
69.38779686069174
 10
5356.946953633876
 20
70.8163682892633
 10
5355.611768452871
 20
72.24493971783463
 10
5357.708009187048
 20
74.48779686069184
 10
5360.378379549059
 20
74.48779686069184
 10
5363.045207655301
 20
77.34114970769012
 10
5379.076667629702
 20
78.7705447960727
 10
5383.639070493964
 20
82.25733688531211
 10
5382.31547207297
 20
83.6735111464062
 10
5385.790312070276
 20
87.39139029128307
 10
5387.168911333402
 20
85.91636828926319
 10
5389.752453531168
 20
85.91636828926319
 10
5392.996953521011
 20
89.38779686069176
 10
5391.131052794296
 20
91.38420343010067
 10
5389.839281695413
 20
90.00208257497744
 10
5387.168911333402
 20
90.00208257497744
 10
5384.455126889271
 20
87.09848914438645
 10
5383.119941708266
 20
88.52706057295778
 10
5381.828170609382
 20
87.14493971783477
 10
5376.400601721119
 20
87.14493971783477
 10
5373.77364544123
 20
89.95563200152912
 10
5371.9077447145155
 20
87.95922543212042
 10
5373.242929895521
 20
86.53065400354888
 10
5371.154897765012
 20
84.29657959497949
 10
5364.478971859986
 20
82.86800816640793
 10
5363.112750811163
 20
81.40623014248338
 10
5360.442380449153
 20
82.83480157105471
 10
5359.1300225322975
 20
81.43065400354898
 10
5355.106120617489
 20
81.43065400354898
 10
5349.76537989347
 20
78.57351114640609
 10
5345.676184004991
 20
78.57351114640609
 10
5343.60899346886
 20
82.25980297985602
 10
5347.026527739009
 20
85.91636828926319
 10
5349.696898101019
 20
85.91636828926319
 10
5352.390095727179
 20
88.79793500747168
 10
5355.060466089189
 20
87.36936357890035
 10
5356.416238088165
 20
88.8199617198544
 10
5359.086608450175
 20
85.96281886271152
 10
5361.7287429375465
 20
88.78975095632558
 10
5365.734298480561
 20
87.36117952775425
 10
5368.96362026292
 20
90.81636828926332
 10
5367.077132718234
 20
92.83480157105473
 10
5364.427349174195
 20
91.41724349867464
 10
5361.69521835827
 20
92.87885499582016
 10
5359.617323995885
 20
95.10208257497754
 10
5361.713564730064
 20
97.34493971783454
 10
5365.719120273078
 20
97.34493971783454
 10
5368.423166163105
 20
100.23811345507605
 10
5373.763906887125
 20
95.95239916936183
 10
5376.992395782908
 20
99.40669679008951
 10
5375.657210601903
 20
102.2638396472324
 10
5377.735786902123
 20
104.48779686069165
 10
5383.163355790388
 20
104.48779686069165
 10
5384.455126889271
 20
103.10567600556864
 10
5391.110465976323
 20
110.22650643604304
 10
5393.793874847008
 20
108.79095977990482
 10
5397.774968375303
 20
111.63065400354898
 10
5400.440395626812
 20
111.63065400354898
 10
5407.160970152193
 20
117.38315688457534
 10
5408.4884601473605
 20
115.96281886271154
 10
5411.68954605508
 20
119.3877968606918
 10
5409.823645328365
 20
121.3842034301007
 10
5407.153274966356
 20
118.52706057295781
 10
5405.0038048406195
 20
120.82687010640592
 10
5410.359429136882
 20
125.12452781747618
 10
5407.683820083333
 20
129.41864975161633
 10
5411.174963343588
 20
131.65984337132008
 10
5413.280820891712
 20
129.40669679008954
 10
5411.945635710707
 20
126.54955393294665
 10
5413.829200871381
 20
124.53424743413998
 10
5415.695101598096
 20
126.5306540035489
 10
5414.3483296570785
 20
127.97162259959771
 10
5419.181167676187
 20
131.66509331556676
 10
5423.943089728918
 20
126.57011032264998
 10
5423.943089728918
 20
103.63405482730492
 10
5421.883726039533
 20
101.43065400354901
 10
5419.201951919418
 20
101.43065400354901
 10
5415.196396376404
 20
98.5735111464061
 10
5409.848713038694
 20
98.5735111464061
 10
5407.215035420271
 20
97.16456928153438
 10
5405.278942405638
 20
95.09306099705861
 10
5409.284497948653
 20
89.37877528277282
 10
5407.2067793265805
 20
87.15573573565317
 10
5401.858705843303
 20
85.72520289930874
 10
5396.506955668231
 20
81.43065400354898
 10
5393.844837238427
 20
81.43065400354898
 10
5388.504096514407
 20
75.7163682892632
 10
5384.492080323788
 20
75.7163682892632
 10
5377.8301934807
 20
70.01409936668557
 10
5373.824637937684
 20
68.58552793811424
 10
5367.090024350368
 20
62.82100826537962
 10
5364.375726488404
 20
65.72515102355081
 10
5357.699800583379
 20
67.15372245212237
  0
LWPOLYLINE
  5
60
330
17
100
AcDbEntity
  8
M
100
AcDbPolyline
 90
38
 70
1
 10
5362.287694357896
 20
49.387796860691836
 10
5364.383935092073
 20
51.63065400354894
 10
5377.735786902123
 20
51.63065400354894
 10
5380.406157264133
 20
54.48779686069183
 10
5383.076527626144
 20
54.48779686069183
 10
5384.406461867121
 20
55.91075008513435
 10
5395.08794331516
 20
57.3393215137058
 10
5397.002509064026
 20
59.387796860691736
 10
5395.0862807209005
 20
61.43805108800904
 10
5387.075169634871
 20
62.866622516580485
 10
5384.98584243498
 20
65.10208257497752
 10
5388.417268350163
 20
68.77351114640607
 10
5399.098749798203
 20
68.77351114640607
 10
5401.769120160213
 20
71.63065400354895
 10
5412.450601608252
 20
71.63065400354895
 10
5414.35991641709
 20
73.67351114640597
 10
5413.024731236085
 20
75.10208257497753
 10
5415.10262559847
 20
77.32531015413468
 10
5420.509733769321
 20
80.21795768871121
 10
5423.943089728918
 20
78.01386152387701
 10
5423.943089728918
 20
73.6340548273049
 10
5421.3095964117
 20
70.8163682892633
 10
5423.96853462058
 20
67.97145717911879
 10
5421.290542823148
 20
63.67351114640607
 10
5423.943089728918
 20
59.41640197184728
 10
5423.943089728918
 20
55.062626255876545
 10
5421.883726039533
 20
52.859225432120404
 10
5419.2133556775225
 20
52.859225432120404
 10
5417.878170496518
 20
51.43065400354896
 10
5409.844144927681
 20
51.43065400354896
 10
5403.168219022656
 20
48.57351114640607
 10
5399.098749798203
 20
48.57351114640607
 10
5397.806978699321
 20
49.955632001529196
 10
5395.180022419432
 20
47.14493971783473
 10
5392.5096520574225
 20
47.14493971783473
 10
5391.173347237785
 20
45.71517034025629
 10
5365.050421297868
 20
46.431837771617964
 10
5362.287694357896
 20
49.387796860691836
  0
LWPOLYLINE
  5
61
330
17
100
AcDbEntity
  8
M
100
AcDbPolyline
 90
20
 70
1
 10
5761.632512090816
 20
83.57810072326211
 10
5746.683745511278
 20
97.9165782539666
 10
5746.683745511278
 20
99.34793690779165
 10
5738.522099096869
 20
107.95922543212022
 10
5743.355800417628
 20
113.05922543212033
 10
5766.37342575458
 20
113.05922543212033
 10
5767.727403715578
 20
114.48779686069189
 10
5775.937271863874
 20
114.48779686069189
 10
5777.2613908265785
 20
113.09072942485577
 10
5781.27853621213
 20
115.91636828926322
 10
5793.538985356837
 20
115.91636828926322
 10
5795.664730755602
 20
113.673511146406
 10
5794.270314598688
 20
112.20227369743019
 10
5792.916336637691
 20
92.20227369743017
 10
5790.831029434843
 20
90.00208257497744
 10
5786.755087558135
 20
90.00208257497744
 10
5779.985197753149
 20
85.71636828926322
 10
5773.211075946676
 20
85.71636828926322
 10
5767.789600136118
 20
82.85629018357876
 10
5761.632512090816
 20
83.57810072326211
  0
LWPOLYLINE
  5
62
330
17
100
AcDbEntity
  8
M
100
AcDbPolyline
 90
36
 70
1
 10
6430.900854321563
 20
80.00208257497744
 10
6428.917447990616
 20
82.20657527739928
 10
6428.917447990616
 20
86.4922895631135
 10
6427.6321465638875
 20
87.92086099168506
 10
6427.6321465638875
 20
107.92086099168485
 10
6425.061543710427
 20
110.77800384882796
 10
6425.061543710427
 20
130.85473272969872
 10
6428.324875420041
 20
134.4818215552097
 10
6438.60728683388
 20
135.91039298378104
 10
6439.897964308672
 20
137.34493971783456
 10
6445.0391700155915
 20
137.34493971783456
 10
6446.324471442321
 20
138.77351114640612
 10
6451.4889952844505
 20
138.77351114640612
 10
6457.9155024181
 20
141.630654003549
 10
6463.033389989808
 20
141.630654003549
 10
6464.318691416538
 20
143.05922543212034
 10
6469.483215258667
 20
143.05922543212034
 10
6475.909722392316
 20
145.91636828926323
 10
6479.742308537295
 20
145.91636828926323
 10
6481.027609964025
 20
147.34493971783456
 10
6484.883514244214
 20
147.34493971783456
 10
6486.168815670944
 20
148.77351114640612
 10
6491.310021377863
 20
148.77351114640612
 10
6492.595322804593
 20
150.20208257497748
 10
6496.521692772405
 20
150.20208257497748
 10
6501.70015034067
 20
147.32423759159684
 10
6503.688702980394
 20
145.114024931561
 10
6501.076468291702
 20
140.7589019657951
 10
6489.5124919949385
 20
126.4778021788957
 10
6485.657081975294
 20
117.90747231704346
 10
6470.230706354681
 20
97.90389533528354
 10
6463.802327381659
 20
86.47199512335702
 10
6455.407657695786
 20
77.1415882505928
 10
6436.039142457964
 20
78.57675393272667
 10
6434.756758601753
 20
80.00208257497744
 10
6430.900854321563
 20
80.00208257497744
  0
LWPOLYLINE
  5
63
330
17
100
AcDbEntity
  8
M
100
AcDbPolyline
 90
27
 70
1
 10
6383.366646722441
 20
21.43065400354893
 10
6374.369536735333
 20
25.71636828926327
 10
6370.491687265264
 20
25.71636828926327
 10
6367.921084411804
 20
28.573511146406048
 10
6364.083806062288
 20
28.573511146406048
 10
6358.942600355369
 20
31.43065400354894
 10
6356.3533715712365
 20
31.43065400354894
 10
6353.08466381356
 20
35.063718134542235
 10
6353.08466381356
 20
47.99386476468992
 10
6362.0914469910385
 20
59.43472355523005
 10
6363.377733235858
 20
63.72372162237383
 10
6368.508280934317
 20
69.42616130112711
 10
6368.508280934317
 20
70.86210690470574
 10
6374.354905366091
 20
75.91636828926318
 10
6384.630002959292
 20
75.91636828926318
 10
6385.9153043860215
 20
77.34493971783452
 10
6416.851630245832
 20
77.34493971783452
 10
6418.835036576778
 20
75.14044701541289
 10
6418.835036576778
 20
62.20657527739937
 10
6417.549735150049
 20
60.778003848828035
 10
6417.549735150049
 20
30.78412200867653
 10
6412.40852944313
 20
23.641264865819412
 10
6412.40852944313
 20
20.778003848827996
 10
6406.555876029891
 20
14.272966762892247
 10
6388.474287635947
 20
20.01499739268098
 10
6387.200605812751
 20
21.43065400354893
 10
6383.366646722441
 20
21.43065400354893
  0
LWPOLYLINE
  5
64
330
17
100
AcDbEntity
  8
M
100
AcDbPolyline
 90
9
 70
1
 10
6353.08466381356
 20
120.85473272969848
 10
6355.122419431332
 20
123.11963292619677
 10
6359.711170947209
 20
116.56216793353823
 10
6359.711170947209
 20
110.77800384882796
 10
6357.14056809375
 20
107.92086099168485
 10
6357.14056809375
 20
96.4922895631135
 10
6355.112615953654
 20
94.23828561851333
 10
6353.08466381356
 20
96.4922895631135
 10
6353.08466381356
 20
120.85473272969848
  0
LWPOLYLINE
  5
65
330
17
100
AcDbEntity
  8
M
100
AcDbPolyline
 90
49
 70
1
 10
6219.413315433663
 20
97.92086099168506
 10
6216.842712580204
 20
100.77800384882774
 10
6216.842712580204
 20
105.14044701541292
 10
6219.413315433663
 20
107.9975898725556
 10
6219.413315433663
 20
110.8547327296987
 10
6224.554521140582
 20
116.56901844398426
 10
6224.554521140582
 20
119.41715911548289
 10
6230.981028274231
 20
129.41715911548292
 10
6230.981028274231
 20
156.5690184439843
 10
6234.249736031908
 20
160.20208257497748
 10
6240.676243165557
 20
160.20208257497748
 10
6241.961544592286
 20
161.63065400354904
 10
6247.102750299206
 20
161.63065400354904
 10
6248.388051725935
 20
163.05922543212037
 10
6253.529257432854
 20
163.05922543212037
 10
6254.814558859584
 20
164.4877968606917
 10
6263.811668846693
 20
164.4877968606917
 10
6265.096970273422
 20
165.91636828926326
 10
6270.238175980341
 20
165.91636828926326
 10
6271.523477407071
 20
167.3449397178346
 10
6276.664683113991
 20
167.3449397178346
 10
6277.949984540721
 20
168.77351114640615
 10
6288.321487572854
 20
168.77351114640615
 10
6289.606788999584
 20
167.3449397178346
 10
6292.177391853044
 20
167.3449397178346
 10
6295.44609961072
 20
163.71187558684142
 10
6295.44609961072
 20
160.85044877758037
 10
6303.14838360851
 20
150.86279939872816
 10
6304.43401644358
 20
146.5759800636999
 10
6310.194684348096
 20
138.75033789879154
 10
6312.723588750047
 20
137.34493971783456
 10
6321.739324667828
 20
137.34493971783456
 10
6323.0282556020575
 20
135.91233420775794
 10
6338.444383477414
 20
134.4844564505816
 10
6349.428759533371
 20
125.1483285206092
 10
6349.428759533371
 20
96.4922895631135
 10
6347.4453532024245
 20
94.28779686069188
 10
6341.018846068775
 20
94.28779686069188
 10
6339.733544642045
 20
92.85922543212033
 10
6323.024626094558
 20
92.85922543212033
 10
6320.430534678558
 20
89.97597578893757
 10
6317.812954700016
 20
91.430654003549
 10
6305.0304061203415
 20
91.430654003549
 10
6302.459803266882
 20
88.5735111464061
 10
6287.036186146125
 20
88.5735111464061
 10
6285.749989481357
 20
87.14394468938846
 10
6221.395835346683
 20
88.57449637158155
 10
6219.413315433663
 20
90.77800384882795
 10
6219.413315433663
 20
97.92086099168506
  0
LWPOLYLINE
  5
66
330
17
100
AcDbEntity
  8
M
100
AcDbPolyline
 90
5
 70
1
 10
6349.4632764423895
 20
37.95922543212038
 10
6347.400807393276
 20
35.66685704708472
 10
6345.338338344162
 20
37.95922543212038
 10
6347.400807393276
 20
40.25159381715604
 10
6349.4632764423895
 20
37.95922543212038
  0
LWPOLYLINE
  5
67
330
17
100
AcDbEntity
  8
M
100
AcDbPolyline
 90
51
 70
1
 10
7028.491677925047
 20
90.21698590401273
 10
7031.309948074318
 20
87.34493971783475
 10
7034.040861833906
 20
87.34493971783475
 10
7038.269801180073
 20
90.21802816747115
 10
7043.864397284098
 20
87.36735425178499
 10
7045.244225373345
 20
88.77351114640608
 10
7048.131823290478
 20
88.77351114640608
 10
7049.511651379725
 20
87.36735425178499
 10
7052.315297249085
 20
88.79592568035632
 10
7055.140937963878
 20
85.91636828926319
 10
7060.675497592825
 20
85.91636828926319
 10
7064.880966396866
 20
88.77351114640608
 10
7069.151030738099
 20
88.77351114640608
 10
7074.724483025512
 20
84.51366072272081
 10
7085.905227051645
 20
93.05922543212031
 10
7092.924172663939
 20
93.05922543212031
 10
7095.771808224165
 20
94.51021139464211
 10
7097.1536499803915
 20
93.10200240981547
 10
7099.9153198258655
 20
95.9163682892632
 10
7112.545552425697
 20
95.9163682892632
 10
7122.927923561692
 20
102.26465596473643
 10
7121.555939413624
 20
103.66281924620057
 10
7125.162134933814
 20
108.80782783605203
 10
7128.775482310729
 20
106.59845116095457
 10
7131.598311880052
 20
99.40671964712044
 10
7131.598311880052
 20
96.48978514800177
 10
7129.437553501918
 20
94.28779686069188
 10
7125.220864759878
 20
94.28779686069188
 10
7116.809927151798
 20
88.5735111464061
 10
7111.2026354130785
 20
88.5735111464061
 10
7106.997166609039
 20
85.71636828926322
 10
7104.193520739677
 20
85.71636828926322
 10
7099.996910063576
 20
82.86524353334657
 10
7092.998129426036
 20
81.43877834915259
 10
7091.588334265558
 20
80.00208257497744
 10
7084.579219592159
 20
80.00208257497744
 10
7083.177396657478
 20
78.57351114640609
 10
7077.570104918758
 20
78.57351114640609
 10
7076.168281984078
 20
77.14493971783453
 10
7070.560990245358
 20
77.14493971783453
 10
7069.162597990722
 20
75.71986443087297
 10
7052.340722774562
 20
74.29129300230164
 10
7050.934532025246
 20
72.8582704158558
 10
7019.309572812298
 20
73.5744571283885
 10
7017.850654170971
 20
75.06121371943041
 10
7017.850654170971
 20
79.42866571623885
 10
7019.2524771056505
 20
80.85723714481041
 10
7019.2524771056505
 20
89.42866571623887
 10
7021.455211507671
 20
91.67343098124414
 10
7024.286209121006
 20
88.78841447544139
 10
7028.491677925047
 20
90.21698590401273
  0
LWPOLYLINE
  5
68
330
17
100
AcDbEntity
  8
M
100
AcDbPolyline
 90
5
 70
1
 10
7085.939066502952
 20
24.24501988299688
 10
7083.696228471618
 20
26.530654003548925
 10
7085.939066502952
 20
28.816288124100975
 10
7088.181904534286
 20
26.530654003548925
 10
7085.939066502952
 20
24.24501988299688
  0
LWPOLYLINE
  5
69
330
17
100
AcDbEntity
  8
M
100
AcDbPolyline
 90
47
 70
1
 10
7040.239717496537
 20
55.10208257497751
 10
7042.450244518303
 20
57.35478915243108
 10
7055.1497363836
 20
54.47883055637482
 10
7057.957311297302
 20
51.61768368392428
 10
7062.162780101342
 20
50.18911225535283
 10
7067.142196623168
 20
45.11468238403615
 10
7064.338550753808
 20
40.82896809832193
 10
7067.715368352112
 20
37.38771669552965
 10
7069.677999124818
 20
39.38779686069183
 10
7068.256829109172
 20
40.83608453616516
 10
7071.936515982516
 20
43.086024412293476
 10
7078.9719278534385
 20
35.916368289263254
 10
7081.775573722799
 20
35.916368289263254
 10
7085.378258664926
 20
32.2449397178346
 10
7083.1841054693305
 20
30.00891939915451
 10
7074.773167861251
 20
28.580347970583063
 10
7073.364636114718
 20
27.144939717834717
 10
7063.551875571959
 20
27.144939717834717
 10
7062.150052637278
 20
25.71636828926327
 10
7056.542760898557
 20
25.71636828926327
 10
7055.140937963878
 20
24.287796860691824
 10
7048.131823290478
 20
24.287796860691824
 10
7046.730000355798
 20
22.85922543212038
 10
7041.1227086170775
 20
22.85922543212038
 10
7039.720885682397
 20
21.43065400354893
 10
7032.711771008998
 20
21.43065400354893
 10
7031.295323794407
 20
19.987179245942286
 10
7029.1004281518435
 20
20.73277155675679
 10
7026.261591779052
 20
25.072278814303516
 10
7026.261591779052
 20
37.918356576573274
 10
7024.8597688443715
 20
39.34692800514472
 10
7024.8597688443715
 20
49.34692800514473
 10
7023.417842280377
 20
50.81636828926328
 10
7025.645001485348
 20
53.08602441229348
 10
7032.697944821286
 20
48.773511146406044
 10
7039.709665744397
 20
48.773511146406044
 10
7043.923992676376
 20
45.910350188036794
 10
7050.943441385636
 20
44.47967251508822
 10
7052.315297249085
 20
43.081639966070504
 10
7055.118943118445
 20
44.51021139464195
 10
7057.902607809352
 20
41.673430981243875
 10
7059.865238582058
 20
43.67351114640605
 10
7057.902607809352
 20
45.67359131156823
 10
7056.510268552047
 20
44.254684520520286
 10
7050.859653684644
 20
48.57351114640607
 10
7046.6460483080255
 20
48.57351114640607
 10
7040.239717496537
 20
55.10208257497751
  0
LWPOLYLINE
  5
6A
330
17
100
AcDbEntity
  8
M
100
AcDbPolyline
 90
5
 70
1
 10
7052.295316070632
 20
95.95914526695837
 10
7054.538154101966
 20
93.67351114640599
 10
7052.295316070632
 20
91.38787702585383
 10
7050.052478039297
 20
93.67351114640599
 10
7052.295316070632
 20
95.95914526695837
  0
LWPOLYLINE
  5
6B
330
17
100
AcDbEntity
  8
M
100
AcDbPolyline
 90
6
 70
1
 10
7036.8826640749085
 20
107.3666767948438
 10
7043.332707855924
 20
102.25425129876942
 10
7041.108084337167
 20
99.98717924594214
 10
7036.8205603012
 20
101.44362432317355
 10
7033.211255742172
 20
105.12179882187934
 10
7036.8826640749085
 20
107.3666767948438
  0
LWPOLYLINE
  5
6C
330
17
100
AcDbEntity
  8
M
100
AcDbPolyline
 90
5
 70
1
 10
7029.866149115751
 20
108.81628812410126
 10
7032.108987147086
 20
106.53065400354889
 10
7029.866149115751
 20
104.2450198829965
 10
7027.623311084417
 20
106.53065400354889
 10
7029.866149115751
 20
108.81628812410126
  0
LWPOLYLINE
  5
6D
330
17
100
AcDbEntity
  8
M
100
AcDbPolyline
 90
35
 70
1
 10
6878.444306036161
 20
124.28998478318553
 10
6871.403263286612
 20
127.16014256146457
 10
6868.614535603664
 20
130.00208257497746
 10
6860.2875500433565
 20
130.00208257497746
 10
6856.018636445344
 20
125.65171289112564
 10
6848.23007907469
 20
139.3613745836817
 10
6848.23007907469
 20
142.28580857338181
 10
6850.390837452824
 20
144.48779686069167
 10
6856.014180099436
 20
144.48779686069167
 10
6871.426535394314
 20
153.05494696602472
 10
6879.836456756186
 20
154.48334578835832
 10
6889.656860827665
 20
160.20208257497748
 10
6893.931300475677
 20
160.20208257497748
 10
6896.09205885381
 20
158.0000942876676
 10
6896.09205885381
 20
150.85723714481026
 10
6897.49388178849
 20
149.42866571623892
 10
6897.49388178849
 20
143.63264229085894
 10
6894.730339548444
 20
140.81636828926315
 10
6897.49388178849
 20
138.00009428766757
 10
6897.49388178849
 20
130.8724355976345
 10
6900.882760298827
 20
128.80031012657932
 10
6903.70208499455
 20
131.67343098124397
 10
6909.351352757157
 20
125.91636828926323
 10
6910.7622038443615
 20
125.91636828926323
 10
6922.751331071767
 20
109.38627583952099
 10
6917.742393923114
 20
102.82332954096951
 10
6913.484089451425
 20
105.71636828926323
 10
6910.753175691837
 20
105.71636828926323
 10
6908.748568895244
 20
103.673511146406
 10
6910.150391829924
 20
102.24493971783465
 10
6907.90755379859
 20
99.95930559728228
 10
6904.275256723494
 20
103.66091133734723
 10
6907.076814086067
 20
107.94343308599075
 10
6891.041683825865
 20
122.8635679892558
 10
6878.444306036161
 20
124.28998478318553
  0
LWPOLYLINE
  5
6E
330
17
100
AcDbEntity
  8
M
100
AcDbPolyline
 90
48
 70
1
 10
6846.788152510696
 20
47.95922543212039
 10
6849.610942222131
 20
50.83587741922946
 10
6848.20911928745
 20
53.69302027637224
 10
6850.432813476709
 20
55.95914526695811
 10
6852.675651508043
 20
53.673511146406064
 10
6851.278916361568
 20
52.25012458725231
 10
6861.631656201119
 20
43.10654619408394
 10
6865.812262913552
 20
48.78704992079164
 10
6871.448331240567
 20
47.351147072032916
 10
6874.283784544724
 20
48.79592568035618
 10
6876.506641397604
 20
46.530654003548946
 10
6875.1048184629235
 20
45.1020825749775
 10
6878.533688070197
 20
41.60778594730441
 10
6882.661857794372
 20
38.803159117313136
 10
6884.07656390903
 20
40.24485955267243
 10
6886.279298311049
 20
38.00009428766749
 10
6886.279298311049
 20
35.061213719430384
 10
6883.515756071004
 20
32.2449397178346
 10
6885.470026164986
 20
30.253379763358403
 10
6891.064661107426
 20
37.38011402694929
 10
6895.278264206492
 20
34.51744483159891
 10
6896.701330999874
 20
35.96766547764418
 10
6907.915914477314
 20
21.681951191929837
 10
6909.267400709384
 20
23.059225432120357
 10
6912.147847268163
 20
23.059225432120357
 10
6918.570466669403
 20
17.96853701305512
 10
6916.359187438839
 20
15.71506387374033
 10
6893.145173450271
 20
16.431941623161748
 10
6891.043702558543
 20
18.57351114640604
 10
6884.118539932916
 20
18.57351114640604
 10
6882.67474097435
 20
17.10216274013976
 10
6881.27291803967
 20
18.530734168711092
 10
6879.913071128876
 20
17.144939717834706
 10
6877.025473211744
 20
17.144939717834706
 10
6870.60400485437
 20
23.688937535157216
 10
6874.80947365841
 20
26.5460803923
 10
6872.841999253136
 20
28.55109661245592
 10
6870.0237776347085
 20
27.11509824780245
 10
6867.1855748378275
 20
31.45363700738024
 10
6864.4270343110975
 20
32.85922543212039
 10
6860.2875500433565
 20
32.85922543212039
 10
6858.843751084789
 20
31.387877025853996
 10
6855.985401727479
 20
34.30076718031649
 10
6851.779932923439
 20
35.72933860888794
 10
6849.63190200937
 20
37.918356576573274
 10
6849.63190200937
 20
42.285808573381715
 10
6850.993621314736
 20
43.67351114640605
 10
6846.788152510696
 20
47.95922543212039
  0
LWPOLYLINE
  5
6F
330
17
100
AcDbEntity
  8
M
100
AcDbPolyline
 90
5
 70
1
 10
6911.272007505976
 20
99.38779686069176
 10
6913.514845537311
 20
101.67343098124415
 10
6915.757683568644
 20
99.38779686069176
 10
6913.514845537311
 20
97.10216274013939
 10
6911.272007505976
 20
99.38779686069176
  0
LWPOLYLINE
  5
70
330
17
100
AcDbEntity
  8
M
100
AcDbPolyline
 90
10
 70
1
 10
6882.07382950701
 20
63.714380001953174
 10
6882.07382950701
 20
60.775499433716185
 10
6880.7121102016445
 20
59.387796860691736
 10
6883.515756071004
 20
56.53065400354895
 10
6879.87109510499
 20
52.816448454425455
 10
6877.647400915731
 20
55.08257344501133
 10
6879.055320366485
 20
57.95214199224763
 10
6876.238798029894
 20
62.25753952689328
 10
6879.87109510499
 20
65.95914526695834
 10
6882.07382950701
 20
63.714380001953174
  0
LWPOLYLINE
  5
71
330
17
100
AcDbEntity
  8
M
100
AcDbPolyline
 90
5
 70
1
 10
6873.687958905593
 20
55.086759035199776
 10
6870.038345277551
 20
51.36750632120801
 10
6867.830533153547
 20
55.11740611475524
 10
6871.480146781588
 20
58.836658828747005
 10
6873.687958905593
 20
55.086759035199776
  0
LWPOLYLINE
  5
72
330
17
100
AcDbEntity
  8
M
100
AcDbPolyline
 90
16
 70
1
 10
6855.261589276106
 20
26.595944093464
 10
6857.403492830039
 20
30.233900243518242
 10
6865.85286575819
 20
25.92860160134103
 10
6868.676492806003
 20
27.367354251784825
 10
6870.899349658884
 20
25.10208257497748
 10
6868.65651162755
 20
22.81644845442543
 10
6867.254688692869
 20
24.24501988299688
 10
6863.890234985484
 20
20.816368289263252
 10
6866.693880854844
 20
17.959225432120363
 10
6864.500991073194
 20
15.72449263486686
 10
6860.913186653687
 20
14.993239812814863
 10
6858.843751084789
 20
17.102162740139647
 10
6857.483904173996
 20
15.716368289263261
 10
6850.390837452824
 20
15.716368289263261
 10
6846.781615253946
 20
19.394458856284768
 10
6855.261589276106
 20
26.595944093464
  0
LWPOLYLINE
  5
73
330
17
100
AcDbEntity
  8
M
100
AcDbPolyline
 90
5
 70
1
 10
6865.85286575819
 20
57.10216274013968
 10
6863.610027726856
 20
59.387796860691736
 10
6865.85286575819
 20
61.673430981244
 10
6868.095703789524
 20
59.387796860691736
 10
6865.85286575819
 20
57.10216274013968
  0
LWPOLYLINE
  5
74
330
17
100
AcDbEntity
  8
M
100
AcDbPolyline
 90
5
 70
1
 10
6858.823761800112
 20
49.93893489263657
 10
6856.622199277571
 20
53.678219933693704
 10
6860.232715120231
 20
58.829392386844816
 10
6863.890234985484
 20
55.10208257497751
 10
6858.823761800112
 20
49.93893489263657
  0
LWPOLYLINE
  5
75
330
17
100
AcDbEntity
  8
M
100
AcDbPolyline
 90
9
 70
1
 10
6859.6847661814445
 20
77.95922543212042
 10
6856.055784041793
 20
74.26099788051866
 10
6852.3760971684505
 20
76.51093775664708
 10
6855.206296509976
 20
79.39514075863863
 10
6849.599004771256
 20
86.53799790149574
 10
6851.827848758878
 20
88.80937095488805
 10
6859.669047065957
 20
82.2714289969102
 10
6858.263799404688
 20
79.40730599065793
 10
6859.6847661814445
 20
77.95922543212042
  0
LWPOLYLINE
  5
76
330
17
100
AcDbEntity
  8
M
100
AcDbPolyline
 90
5
 70
1
 10
6846.788152510696
 20
59.387796860691736
 10
6849.03099054203
 20
61.673430981244
 10
6851.273828573364
 20
59.387796860691736
 10
6849.03099054203
 20
57.10216274013968
 10
6846.788152510696
 20
59.387796860691736
  0
LWPOLYLINE
  5
77
330
17
100
AcDbEntity
  8
M
100
AcDbPolyline
 90
9
 70
1
 10
6843.984506641335
 20
50.81636828926328
 10
6839.779037837295
 20
55.10208257497751
 10
6842.010948857482
 20
57.376581183661735
 10
6847.055047266232
 20
53.704905492482084
 10
6845.647392992568
 20
50.83587741922946
 10
6847.068359769324
 20
49.387796860691836
 10
6844.82552173799
 20
47.10216274013979
 10
6842.582683706656
 20
49.387796860691836
 10
6843.984506641335
 20
50.81636828926328
  0
LWPOLYLINE
  5
78
330
17
100
AcDbEntity
  8
M
100
AcDbPolyline
 90
20
 70
1
 10
6822.969526512054
 20
17.946625623061706
 10
6825.786048848644
 20
22.252023157707246
 10
6824.378129397891
 20
25.121591704943658
 10
6826.60182358715
 20
27.38771669552975
 10
6827.992740931512
 20
25.970258949258973
 10
6832.158548524901
 20
31.63065400354892
 10
6835.046600646536
 20
31.63065400354892
 10
6840.686438675575
 20
27.320064232865814
 10
6844.2246102706495
 20
23.714380001953252
 10
6844.2246102706495
 20
20.85723714481036
 10
6845.656045128997
 20
19.398488760897227
 10
6842.049849608808
 20
14.253480171045773
 10
6838.44382708069
 20
16.458378076627532
 10
6836.3574156600935
 20
20.002082574977486
 10
6833.652914284436
 20
20.002082574977486
 10
6831.648307487843
 20
17.959225432120363
 10
6833.050130422524
 20
16.530654003548918
 10
6830.843116288886
 20
14.28152734442023
 10
6825.853146922879
 20
15.00798221251376
 10
6822.969526512054
 20
17.946625623061706
  0
LWPOLYLINE
  5
79
330
17
100
AcDbEntity
  8
M
100
AcDbPolyline
 90
17
 70
1
 10
6825.760808490496
 20
40.81636828926327
 10
6828.00364652183
 20
43.10200240981532
 10
6829.405469456509
 20
41.673430981243875
 10
6831.368100229215
 20
43.67351114640605
 10
6829.966277294536
 20
45.1020825749775
 10
6833.595259434186
 20
48.80031012657915
 10
6837.274946307528
 20
46.55037025045083
 10
6835.853776291883
 20
45.1020825749775
 10
6837.829290244567
 20
43.08887340302747
 10
6842.034759048607
 20
45.94601626017025
 10
6844.264713899963
 20
43.67351114640605
 10
6840.647404677925
 20
39.98717924594231
 10
6836.449498141969
 20
41.41318181938147
 10
6830.838173924606
 20
34.26518789744804
 10
6825.7650898725005
 20
36.48085276565682
 10
6827.1817752672505
 20
39.36828773072565
 10
6825.760808490496
 20
40.81636828926327
  0
LWPOLYLINE
  5
7A
330
17
100
AcDbEntity
  8
M
100
AcDbPolyline
 90
5
 70
1
 10
6838.377214902615
 20
75.10208257497753
 10
6842.021875868629
 20
78.81628812410125
 10
6844.264713899964
 20
76.53065400354886
 10
6840.620052933949
 20
72.81644845442514
 10
6838.377214902615
 20
75.10208257497753
  0
LWPOLYLINE
  5
7B
330
17
100
AcDbEntity
  8
M
100
AcDbPolyline
 90
5
 70
1
 10
6841.461068030603
 20
67.9592254321204
 10
6837.816407064589
 20
64.24501988299691
 10
6835.573569033255
 20
66.53065400354885
 10
6839.218229999269
 20
70.24485955267257
 10
6841.461068030603
 20
67.9592254321204
  0
LWPOLYLINE
  5
7C
330
17
100
AcDbEntity
  8
M
100
AcDbPolyline
 90
10
 70
1
 10
6818.73234673613
 20
69.36808061378996
 10
6823.778196539336
 20
74.51021139464208
 10
6826.581842408696
 20
73.08163996607053
 10
6829.405469456509
 20
75.95914526695834
 10
6831.608203858529
 20
73.71438000195307
 10
6831.608203858529
 20
70.77549943371619
 10
6829.405469456509
 20
68.53073416871092
 10
6826.60182358715
 20
71.38787702585381
 10
6822.412033609472
 20
67.11814073766153
 10
6818.73234673613
 20
69.36808061378996
  0
LWPOLYLINE
  5
7D
330
17
100
AcDbEntity
  8
M
100
AcDbPolyline
 90
5
 70
1
 10
6820.153516751775
 20
52.24493971783461
 10
6822.396354783109
 20
54.53057383838677
 10
6826.041015749123
 20
50.81636828926328
 10
6823.798177717789
 20
48.53073416871112
 10
6820.153516751775
 20
52.24493971783461
  0
LWPOLYLINE
  5
7E
330
17
100
AcDbEntity
  8
M
100
AcDbPolyline
 90
60
 70
1
 10
7588.1697673412145
 20
22.85922543212038
 10
7586.169981429667
 20
25.10208257497748
 10
7587.482428083092
 20
26.574055316786136
 10
7588.757063349092
 20
36.581013341973836
 10
7594.545840564414
 20
41.630654003548926
 10
7597.086010258941
 20
41.630654003548926
 10
7598.359759247188
 20
43.05922543212037
 10
7604.740067688119
 20
43.05922543212037
 10
7608.551811680773
 20
45.90926292573527
 10
7614.910061819088
 20
47.33548026794654
 10
7616.192245082641
 20
48.773511146406044
 10
7621.2872410356285
 20
48.773511146406044
 10
7622.584636683258
 20
50.22860345333635
 10
7627.726925955013
 20
47.34493971783471
 10
7630.222173880023
 20
47.34493971783471
 10
7635.317169833009
 20
50.20208257497749
 10
7641.74133414225
 20
50.20208257497749
 10
7650.610416599729
 20
44.51802128893556
 10
7651.888443315597
 20
45.95139039704643
 10
7659.5777770881505
 20
40.20208257497748
 10
7663.396286287323
 20
40.20208257497748
 10
7669.777002330417
 20
35.908312585552046
 10
7674.776697896075
 20
34.50646216161435
 10
7677.934097311305
 20
40.8805807223751
 10
7682.427543304704
 20
44.48030799608782
 10
7688.787503137395
 20
45.906908839374985
 10
7690.069686400949
 20
47.34493971783471
 10
7695.1789836192
 20
47.34493971783471
 10
7701.540680626465
 20
51.62591124315041
 10
7710.443527770568
 20
53.052336384363244
 10
7713.544880254336
 20
56.53065400354895
 10
7712.305108647675
 20
57.92111814646206
 10
7712.305108647675
 20
70.77826100360474
 10
7704.662614718195
 20
79.34968957503318
 10
7704.662614718195
 20
80.84578049495138
 10
7721.221351565402
 20
106.56006620923696
 10
7721.221351565402
 20
110.84384523046675
 10
7723.7851618895065
 20
115.15700215277391
 10
7734.666832335568
 20
130.2329300029099
 10
7744.949212727042
 20
124.46683519910428
 10
7748.170080318583
 20
120.85447557492168
 10
7748.170080318583
 20
83.71161843206477
 10
7750.025518753362
 20
81.63065400354897
 10
7752.558715464591
 20
81.63065400354897
 10
7758.927460405825
 20
77.34493971783452
 10
7762.748707370565
 20
77.34493971783452
 10
7769.117452311798
 20
73.05922543212029
 10
7774.1454690975515
 20
73.05922543212029
 10
7784.335461003525
 20
81.63065400354897
 10
7808.52834230789
 20
81.63065400354897
 10
7809.802091296137
 20
83.0592254321203
 10
7822.629211083423
 20
83.0592254321203
 10
7824.595019613384
 20
80.85447557492186
 10
7824.595019613384
 20
27.92111814646203
 10
7822.629211083423
 20
25.71636828926327
 10
7757.668012682842
 20
25.71636828926327
 10
7756.394263694595
 20
24.287796860691824
 10
7651.946846658367
 20
24.287796860691824
 10
7650.67309767012
 20
22.85922543212038
 10
7588.1697673412145
 20
22.85922543212038
  0
LWPOLYLINE
  5
7F
330
17
100
AcDbEntity
  8
M
100
AcDbPolyline
 90
28
 70
1
 10
8459.715120453999
 20
80.01366318720149
 10
8454.34647370999
 20
85.05883027910221
 10
8454.34647370999
 20
113.70952591450734
 10
8457.355310678999
 20
117.34493971783455
 10
8462.164195476065
 20
117.34493971783455
 10
8468.075955126676
 20
113.05922543212033
 10
8472.805362847166
 20
113.05922543212033
 10
8478.717122497781
 20
108.7735111464061
 10
8483.449361923902
 20
108.7735111464061
 10
8486.99641771427
 20
105.9163682892632
 10
8490.555250435022
 20
105.9163682892632
 10
8491.737602365143
 20
104.48779686069165
 10
8496.455233155251
 20
104.48779686069165
 10
8500.002288945618
 20
101.63065400354898
 10
8507.088995969341
 20
101.63065400354898
 10
8511.818403689831
 20
98.7735111464061
 10
8516.547811410323
 20
98.7735111464061
 10
8523.641922991057
 20
94.48779686069186
 10
8531.91342304277
 20
94.48779686069186
 10
8537.865424270947
 20
91.61120532114397
 10
8540.880015444107
 20
87.9688390264024
 10
8537.859334696419
 20
82.85922543212033
 10
8496.467010085635
 20
82.85922543212033
 10
8494.102306225388
 20
80.00208257497744
 10
8491.737602365143
 20
80.00208257497744
 10
8489.392079992293
 20
77.16811566414195
 10
8482.244647976448
 20
72.85018928987097
 10
8459.715120453999
 20
80.01366318720149
  0
LWPOLYLINE
  5
80
330
17
100
AcDbEntity
  8
M
100
AcDbPolyline
 90
31
 70
1
 10
8170.632948622233
 20
20.71880773946255
 10
8168.21730662034
 20
23.637496378304924
 10
8168.21730662034
 20
30.852383057364484
 10
8171.209127837545
 20
34.46723765471704
 10
8179.5252947692825
 20
38.77351114640604
 10
8181.879087890837
 20
38.77351114640604
 10
8185.426143681205
 20
41.630654003548926
 10
8191.337903331817
 20
41.630654003548926
 10
8194.874949884525
 20
44.479734449618505
 10
8200.7934897759
 20
45.909944317301886
 10
8207.890517156759
 20
50.19742010424111
 10
8216.149104288697
 20
51.62290595355079
 10
8218.520220794251
 20
54.48779686069183
 10
8220.884924654496
 20
54.48779686069183
 10
8222.06727658462
 20
55.91636828926316
 10
8223.343714227332
 20
55.91636828926316
 10
8227.534903126467
 20
50.852383057364506
 10
8227.534903126467
 20
47.99524020022161
 10
8230.390782951772
 20
44.544636181295225
 10
8233.890795885844
 20
48.773511146406044
 10
8236.330403971286
 20
48.773511146406044
 10
8243.462878526809
 20
44.4646209143843
 10
8247.634885938549
 20
39.42381162879305
 10
8247.634885938549
 20
26.494639235447703
 10
8244.626048969538
 20
22.85922543212038
 10
8233.890795885844
 20
22.85922543212038
 10
8230.390782951772
 20
27.088100397231308
 10
8225.708418087577
 20
21.43065400354893
 10
8185.508452463411
 20
21.43065400354893
 10
8184.324031047149
 20
19.999582127609884
 10
8170.632948622233
 20
20.71880773946255
  0
ENDSEC
  0
SECTION
  2
OBJECTS
  0
DICTIONARY
  5
A
330
0
100
AcDbDictionary
281
1
  3
ACAD_COLOR
350
B
  3
ACAD_GROUP
350
C
  3
ACAD_LAYOUT
350
D
  3
ACAD_MATERIAL
350
E
  3
ACAD_MLEADERSTYLE
350
F
  3
ACAD_MLINESTYLE
350
10
  3
ACAD_PLOTSETTINGS
350
11
  3
ACAD_PLOTSTYLENAME
350
12
  3
ACAD_SCALELIST
350
14
  3
ACAD_TABLESTYLE
350
15
  3
ACAD_VISUALSTYLE
350
16
  3
EZDXF_META
350
2D
  0
DICTIONARY
  5
B
330
A
100
AcDbDictionary
281
1
  0
DICTIONARY
  5
C
330
A
100
AcDbDictionary
281
1
  0
DICTIONARY
  5
D
330
A
100
AcDbDictionary
281
1
  3
Model
350
1A
  3
Layout1
350
1E
  0
DICTIONARY
  5
E
330
A
100
AcDbDictionary
281
1
  3
ByBlock
350
1F
  3
ByLayer
350
20
  3
Global
350
21
  0
DICTIONARY
  5
F
330
A
100
AcDbDictionary
281
1
  3
Standard
350
2C
  0
DICTIONARY
  5
10
330
A
100
AcDbDictionary
281
1
  3
Standard
350
22
  0
DICTIONARY
  5
11
330
A
100
AcDbDictionary
281
1
  0
ACDBDICTIONARYWDFLT
  5
12
330
A
100
AcDbDictionary
281
1
  3
Normal
350
13
100
AcDbDictionaryWithDefault
340
13
  0
ACDBPLACEHOLDER
  5
13
330
12
  0
DICTIONARY
  5
14
330
A
100
AcDbDictionary
281
1
  0
DICTIONARY
  5
15
330
A
100
AcDbDictionary
281
1
  0
DICTIONARY
  5
16
330
A
100
AcDbDictionary
281
1
  0
LAYOUT
  5
1A
330
D
100
AcDbPlotSettings
  1

  4
A3
  6

 40
7.5
 41
20.0
 42
7.5
 43
20.0
 44
420.0
 45
297.0
 46
0.0
 47
0.0
 48
0.0
 49
0.0
140
0.0
141
0.0
142
1.0
143
1.0
 70
1024
 72
1
 73
0
 74
5
  7

 75
16
 76
0
 77
2
 78
300
147
1.0
148
0.0
149
0.0
100
AcDbLayout
  1
Model
 70
1
 71
0
 10
0.0
 20
0.0
 11
420.0
 21
297.0
 12
0.0
 22
0.0
 32
0.0
 14
1e+20
 24
1e+20
 34
1e+20
 15
-1e+20
 25
-1e+20
 35
-1e+20
146
0.0
 13
0.0
 23
0.0
 33
0.0
 16
1.0
 26
0.0
 36
0.0
 17
0.0
 27
1.0
 37
0.0
 76
1
330
17
  0
LAYOUT
  5
1E
330
D
100
AcDbPlotSettings
  1

  4
A3
  6

 40
7.5
 41
20.0
 42
7.5
 43
20.0
 44
420.0
 45
297.0
 46
0.0
 47
0.0
 48
0.0
 49
0.0
140
0.0
141
0.0
142
1.0
143
1.0
 70
0
 72
1
 73
0
 74
5
  7

 75
16
 76
0
 77
2
 78
300
147
1.0
148
0.0
149
0.0
100
AcDbLayout
  1
Layout1
 70
1
 71
1
 10
0.0
 20
0.0
 11
420.0
 21
297.0
 12
0.0
 22
0.0
 32
0.0
 14
1e+20
 24
1e+20
 34
1e+20
 15
-1e+20
 25
-1e+20
 35
-1e+20
146
0.0
 13
0.0
 23
0.0
 33
0.0
 16
1.0
 26
0.0
 36
0.0
 17
0.0
 27
1.0
 37
0.0
 76
1
330
1B
  0
MATERIAL
  5
1F
102
{ACAD_REACTORS
330
E
102
}
330
E
100
AcDbMaterial
  1
ByBlock
  2

 70
0
 40
1.0
 71
1
 41
1.0
 91
-1023410177
 42
1.0
 72
1
  3

 73
1
 74
1
 75
1
 44
0.5
 73
0
 45
1.0
 46
1.0
 77
1
  4

 78
1
 79
1
170
1
 48
1.0
171
1
  6

172
1
173
1
174
1
140
1.0
141
1.0
175
1
  7

176
1
177
1
178
1
143
1.0
179
1
  8

270
1
271
1
272
1
145
1.0
146
1.0
273
1
  9

274
1
275
1
276
1
 42
1.0
 72
1
  3

 73
1
 74
1
 75
1
 94
63
  0
MATERIAL
  5
20
102
{ACAD_REACTORS
330
E
102
}
330
E
100
AcDbMaterial
  1
ByLayer
  2

 70
0
 40
1.0
 71
1
 41
1.0
 91
-1023410177
 42
1.0
 72
1
  3

 73
1
 74
1
 75
1
 44
0.5
 73
0
 45
1.0
 46
1.0
 77
1
  4

 78
1
 79
1
170
1
 48
1.0
171
1
  6

172
1
173
1
174
1
140
1.0
141
1.0
175
1
  7

176
1
177
1
178
1
143
1.0
179
1
  8

270
1
271
1
272
1
145
1.0
146
1.0
273
1
  9

274
1
275
1
276
1
 42
1.0
 72
1
  3

 73
1
 74
1
 75
1
 94
63
  0
MATERIAL
  5
21
102
{ACAD_REACTORS
330
E
102
}
330
E
100
AcDbMaterial
  1
Global
  2

 70
0
 40
1.0
 71
1
 41
1.0
 91
-1023410177
 42
1.0
 72
1
  3

 73
1
 74
1
 75
1
 44
0.5
 73
0
 45
1.0
 46
1.0
 77
1
  4

 78
1
 79
1
170
1
 48
1.0
171
1
  6

172
1
173
1
174
1
140
1.0
141
1.0
175
1
  7

176
1
177
1
178
1
143
1.0
179
1
  8

270
1
271
1
272
1
145
1.0
146
1.0
273
1
  9

274
1
275
1
276
1
 42
1.0
 72
1
  3

 73
1
 74
1
 75
1
 94
63
  0
MLINESTYLE
  5
22
102
{ACAD_REACTORS
330
10
102
}
330
10
100
AcDbMlineStyle
  2
Standard
 70
0
  3

 62
256
 51
90.0
 52
90.0
 71
2
 49
0.5
 62
256
  6
BYLAYER
 49
-0.5
 62
256
  6
BYLAYER
  0
MLEADERSTYLE
  5
2C
102
{ACAD_REACTORS
330
F
102
}
330
F
100
AcDbMLeaderStyle
179
2
170
2
171
1
172
0
 90
2
 40
0.0
 41
0.0
173
1
 91
-1056964608
 92
-2
290
1
 42
2.0
291
1
 43
8.0
  3
Standard
 44
4.0
300

342
29
174
1
175
1
176
0
178
1
 93
-1056964608
 45
4.0
292
0
297
0
 46
4.0
 94
-1056964608
 47
1.0
 49
1.0
140
1.0
294
1
141
0.0
177
0
142
1.0
295
0
296
0
143
3.75
271
0
272
9
273
9
  0
DICTIONARY
  5
2D
330
A
100
AcDbDictionary
280
1
281
1
  3
CREATED_BY_EZDXF
350
2E
  3
WRITTEN_BY_EZDXF
350
83
  0
DICTIONARYVAR
  5
2E
330
2D
100
DictionaryVariables
280
0
  1
1.4.4 @ 2026-07-24T15:40:39.882415+00:00
  0
DICTIONARYVAR
  5
83
330
2D
100
DictionaryVariables
280
0
  1
1.4.4 @ 2026-07-24T15:40:39.894991+00:00
  0
ENDSEC
  0
EOF
