  0
SECTION
  2
HEADER
  9
$ACADVER
  1
AC1027
  9
$ACADMAINTVER
 70
105
  9
$DWGCODEPAGE
  3
ANSI_1252
  9
$LASTSAVEDBY
  1
ezdxf
  9
$REQUIREDVERSIONS
160
0
  9
$INSBASE
 10
0.0
 20
0.0
 30
0.0
  9
$EXTMIN
 10
1e+20
 20
1e+20
 30
1e+20
  9
$EXTMAX
 10
-1e+20
 20
-1e+20
 30
-1e+20
  9
$LIMMIN
 10
0.0
 20
0.0
  9
$LIMMAX
 10
420.0
 20
297.0
  9
$ORTHOMODE
 70
0
  9
$REGENMODE
 70
1
  9
$FILLMODE
 70
1
  9
$QTEXTMODE
 70
0
  9
$MIRRTEXT
 70
1
  9
$LTSCALE
 40
1.0
  9
$ATTMODE
 70
1
  9
$TEXTSIZE
 40
2.5
  9
$TRACEWID
 40
1.0
  9
$TEXTSTYLE
  7
Standard
  9
$CLAYER
  8
0
  9
$CELTYPE
  6
ByLayer
  9
$CECOLOR
 62
256
  9
$CELTSCALE
 40
1.0
  9
$DISPSILH
 70
0
  9
$DIMSCALE
 40
1.0
  9
$DIMASZ
 40
2.5
  9
$DIMEXO
 40
0.625
  9
$DIMDLI
 40
3.75
  9
$DIMRND
 40
0.0
  9
$DIMDLE
 40
0.0
  9
$DIMEXE
 40
1.25
  9
$DIMTP
 40
0.0
  9
$DIMTM
 40
0.0
  9
$DIMTXT
 40
2.5
  9
$DIMCEN
 40
2.5
  9
$DIMTSZ
 40
0.0
  9
$DIMTOL
 70
0
  9
$DIMLIM
 70
0
  9
$DIMTIH
 70
0
  9
$DIMTOH
 70
0
  9
$DIMSE1
 70
0
  9
$DIMSE2
 70
0
  9
$DIMTAD
 70
1
  9
$DIMZIN
 70
8
  9
$DIMBLK
  1

  9
$DIMASO
 70
1
  9
$DIMSHO
 70
1
  9
$DIMPOST
  1

  9
$DIMAPOST
  1

  9
$DIMALT
 70
0
  9
$DIMALTD
 70
3
  9
$DIMALTF
 40
0.03937007874
  9
$DIMLFAC
 40
1.0
  9
$DIMTOFL
 70
1
  9
$DIMTVP
 40
0.0
  9
$DIMTIX
 70
0
  9
$DIMSOXD
 70
0
  9
$DIMSAH
 70
0
  9
$DIMBLK1
  1

  9
$DIMBLK2
  1

  9
$DIMSTYLE
  2
ISO-25
  9
$DIMCLRD
 70
0
  9
$DIMCLRE
 70
0
  9
$DIMCLRT
 70
0
  9
$DIMTFAC
 40
1.0
  9
$DIMGAP
 40
0.625
  9
$DIMJUST
 70
0
  9
$DIMSD1
 70
0
  9
$DIMSD2
 70
0
  9
$DIMTOLJ
 70
0
  9
$DIMTZIN
 70
8
  9
$DIMALTZ
 70
0
  9
$DIMALTTZ
 70
0
  9
$DIMUPT
 70
0
  9
$DIMDEC
 70
2
  9
$DIMTDEC
 70
2
  9
$DIMALTU
 70
2
  9
$DIMALTTD
 70
3
  9
$DIMTXSTY
  7
Standard
  9
$DIMAUNIT
 70
0
  9
$DIMADEC
 70
0
  9
$DIMALTRND
 40
0.0
  9
$DIMAZIN
 70
0
  9
$DIMDSEP
 70
44
  9
$DIMATFIT
 70
3
  9
$DIMFRAC
 70
0
  9
$DIMLDRBLK
  1

  9
$DIMLUNIT
 70
2
  9
$DIMLWD
 70
-2
  9
$DIMLWE
 70
-2
  9
$DIMTMOVE
 70
0
  9
$DIMFXL
 40
1.0
  9
$DIMFXLON
 70
0
  9
$DIMJOGANG
 40
0.785398163397
  9
$DIMTFILL
 70
0
  9
$DIMTFILLCLR
 70
0
  9
$DIMARCSYM
 70
0
  9
$DIMLTYPE
  6

  9
$DIMLTEX1
  6

  9
$DIMLTEX2
  6

  9
$DIMTXTDIRECTION
 70
0
  9
$LUNITS
 70
2
  9
$LUPREC
 70
4
  9
$SKETCHINC
 40
1.0
  9
$FILLETRAD
 40
10.0
  9
$AUNITS
 70
0
  9
$AUPREC
 70
2
  9
$MENU
  1
.
  9
$ELEVATION
 40
0.0
  9
$PELEVATION
 40
0.0
  9
$THICKNESS
 40
0.0
  9
$LIMCHECK
 70
0
  9
$CHAMFERA
 40
0.0
  9
$CHAMFERB
 40
0.0
  9
$CHAMFERC
 40
0.0
  9
$CHAMFERD
 40
0.0
  9
$SKPOLY
 70
0
  9
$TDCREATE
 40
2461242.7855324075
  9
$TDUCREATE
 40
2458532.153996898
  9
$TDUPDATE
 40
2461242.7855324075
  9
$TDUUPDATE
 40
2458532.1544311
  9
$TDINDWG
 40
0.0
  9
$TDUSRTIMER
 40
0.0
  9
$USRTIMER
 70
1
  9
$ANGBASE
 50
0.0
  9
$ANGDIR
 70
0
  9
$PDMODE
 70
0
  9
$PDSIZE
 40
0.0
  9
$PLINEWID
 40
0.0
  9
$SPLFRAME
 70
0
  9
$SPLINETYPE
 70
6
  9
$SPLINESEGS
 70
8
  9
$HANDSEED
  5
51
  9
$SURFTAB1
 70
6
  9
$SURFTAB2
 70
6
  9
$SURFTYPE
 70
6
  9
$SURFU
 70
6
  9
$SURFV
 70
6
  9
$UCSBASE
  2

  9
$UCSNAME
  2

  9
$UCSORG
 10
0.0
 20
0.0
 30
0.0
  9
$UCSXDIR
 10
1.0
 20
0.0
 30
0.0
  9
$UCSYDIR
 10
0.0
 20
1.0
 30
0.0
  9
$UCSORTHOREF
  2

  9
$UCSORTHOVIEW
 70
0
  9
$UCSORGTOP
 10
0.0
 20
0.0
 30
0.0
  9
$UCSORGBOTTOM
 10
0.0
 20
0.0
 30
0.0
  9
$UCSORGLEFT
 10
0.0
 20
0.0
 30
0.0
  9
$UCSORGRIGHT
 10
0.0
 20
0.0
 30
0.0
  9
$UCSORGFRONT
 10
0.0
 20
0.0
 30
0.0
  9
$UCSORGBACK
 10
0.0
 20
0.0
 30
0.0
  9
$PUCSBASE
  2

  9
$PUCSNAME
  2

  9
$PUCSORG
 10
0.0
 20
0.0
 30
0.0
  9
$PUCSXDIR
 10
1.0
 20
0.0
 30
0.0
  9
$PUCSYDIR
 10
0.0
 20
1.0
 30
0.0
  9
$PUCSORTHOREF
  2

  9
$PUCSORTHOVIEW
 70
0
  9
$PUCSORGTOP
 10
0.0
 20
0.0
 30
0.0
  9
$PUCSORGBOTTOM
 10
0.0
 20
0.0
 30
0.0
  9
$PUCSORGLEFT
 10
0.0
 20
0.0
 30
0.0
  9
$PUCSORGRIGHT
 10
0.0
 20
0.0
 30
0.0
  9
$PUCSORGFRONT
 10
0.0
 20
0.0
 30
0.0
  9
$PUCSORGBACK
 10
0.0
 20
0.0
 30
0.0
  9
$USERI1
 70
0
  9
$USERI2
 70
0
  9
$USERI3
 70
0
  9
$USERI4
 70
0
  9
$USERI5
 70
0
  9
$USERR1
 40
0.0
  9
$USERR2
 40
0.0
  9
$USERR3
 40
0.0
  9
$USERR4
 40
0.0
  9
$USERR5
 40
0.0
  9
$WORLDVIEW
 70
1
  9
$SHADEDGE
 70
3
  9
$SHADEDIF
 70
70
  9
$TILEMODE
 70
1
  9
$MAXACTVP
 70
64
  9
$PINSBASE
 10
0.0
 20
0.0
 30
0.0
  9
$PLIMCHECK
 70
0
  9
$PEXTMIN
 10
1e+20
 20
1e+20
 30
1e+20
  9
$PEXTMAX
 10
-1e+20
 20
-1e+20
 30
-1e+20
  9
$PLIMMIN
 10
0.0
 20
0.0
  9
$PLIMMAX
 10
420.0
 20
297.0
  9
$UNITMODE
 70
0
  9
$VISRETAIN
 70
1
  9
$PLINEGEN
 70
0
  9
$PSLTSCALE
 70
1
  9
$TREEDEPTH
 70
3020
  9
$CMLSTYLE
  2
Standard
  9
$CMLJUST
 70
0
  9
$CMLSCALE
 40
20.0
  9
$PROXYGRAPHICS
 70
1
  9
$MEASUREMENT
 70
1
  9
$CELWEIGHT
370
-1
  9
$ENDCAPS
280
0
  9
$JOINSTYLE
280
0
  9
$LWDISPLAY
290
0
  9
$INSUNITS
 70
4
  9
$HYPERLINKBASE
  1

  9
$STYLESHEET
  1

  9
$XEDIT
290
1
  9
$CEPSNTYPE
380
0
  9
$PSTYLEMODE
290
1
  9
$FINGERPRINTGUID
  2
{0A21AC91-8050-4958-B948-5F507A121ECE}
  9
$VERSIONGUID
  2
{53BBA4E1-39ED-4584-BB00-2F501793CD87}
  9
$EXTNAMES
290
1
  9
$PSVPSCALE
 40
0.0
  9
$OLESTARTUP
290
0
  9
$SORTENTS
280
127
  9
$INDEXCTL
280
0
  9
$HIDETEXT
280
1
  9
$XCLIPFRAME
280
1
  9
$HALOGAP
280
0
  9
$OBSCOLOR
 70
257
  9
$OBSLTYPE
280
0
  9
$INTERSECTIONDISPLAY
280
0
  9
$INTERSECTIONCOLOR
 70
257
  9
$DIMASSOC
280
2
  9
$PROJECTNAME
  1

  9
$CAMERADISPLAY
290
0
  9
$LENSLENGTH
 40
50.0
  9
$CAMERAHEIGHT
 40
0.0
  9
$STEPSPERSEC
 40
24.0
  9
$STEPSIZE
 40
100.0
  9
$3DDWFPREC
 40
2.0
  9
$PSOLWIDTH
 40
0.005
  9
$PSOLHEIGHT
 40
0.08
  9
$LOFTANG1
 40
1.570796326795
  9
$LOFTANG2
 40
1.570796326795
  9
$LOFTMAG1
 40
0.0
  9
$LOFTMAG2
 40
0.0
  9
$LOFTPARAM
 70
7
  9
$LOFTNORMALS
280
1
  9
$LATITUDE
 40
37.795
  9
$LONGITUDE
 40
-122.394
  9
$NORTHDIRECTION
 40
0.0
  9
$TIMEZONE
 70
-8000
  9
$LIGHTGLYPHDISPLAY
280
1
  9
$TILEMODELIGHTSYNCH
280
1
  9
$CMATERIAL
347
20
  9
$SOLIDHIST
280
0
  9
$SHOWHIST
280
1
  9
$DWFFRAME
280
2
  9
$DGNFRAME
280
2
  9
$REALWORLDSCALE
290
1
  9
$INTERFERECOLOR
 62
256
  9
$CSHADOW
280
0
  9
$SHADOWPLANELOCATION
 40
0.0
  0
ENDSEC
  0
SECTION
  2
CLASSES
  0
CLASS
  1
ACDBDICTIONARYWDFLT
  2
AcDbDictionaryWithDefault
  3
ObjectDBX Classes
 90
0
 91
0
280
0
281
0
  0
CLASS
  1
SUN
  2
AcDbSun
  3
SCENEOE
 90
1153
 91
0
280
0
281
0
  0
CLASS
  1
VISUALSTYLE
  2
AcDbVisualStyle
  3
ObjectDBX Classes
 90
4095
 91
0
280
0
281
0
  0
CLASS
  1
MATERIAL
  2
AcDbMaterial
  3
ObjectDBX Classes
 90
1153
 91
0
280
0
281
0
  0
CLASS
  1
SCALE
  2
AcDbScale
  3
ObjectDBX Classes
 90
1153
 91
0
280
0
281
0
  0
CLASS
  1
TABLESTYLE
  2
AcDbTableStyle
  3
ObjectDBX Classes
 90
4095
 91
0
280
0
281
0
  0
CLASS
  1
MLEADERSTYLE
  2
AcDbMLeaderStyle
  3
ACDB_MLEADERSTYLE_CLASS
 90
4095
 91
0
280
0
281
0
  0
CLASS
  1
DICTIONARYVAR
  2
AcDbDictionaryVar
  3
ObjectDBX Classes
 90
0
 91
0
280
0
281
0
  0
CLASS
  1
CELLSTYLEMAP
  2
AcDbCellStyleMap
  3
ObjectDBX Classes
 90
1152
 91
0
280
0
281
0
  0
CLASS
  1
MENTALRAYRENDERSETTINGS
  2
AcDbMentalRayRenderSettings
  3
SCENEOE
 90
1024
 91
0
280
0
281
0
  0
CLASS
  1
ACDBDETAILVIEWSTYLE
  2
AcDbDetailViewStyle
  3
ObjectDBX Classes
 90
1025
 91
0
280
0
281
0
  0
CLASS
  1
ACDBSECTIONVIEWSTYLE
  2
AcDbSectionViewStyle
  3
ObjectDBX Classes
 90
1025
 91
0
280
0
281
0
  0
CLASS
  1
RASTERVARIABLES
  2
AcDbRasterVariables
  3
ISM
 90
0
 91
0
280
0
281
0
  0
CLASS
  1
ACDBPLACEHOLDER
  2
AcDbPlaceHolder
  3
ObjectDBX Classes
 90
0
 91
0
280
0
281
0
  0
CLASS
  1
LAYOUT
  2
AcDbLayout
  3
ObjectDBX Classes
 90
0
 91
0
280
0
281
0
  0
ENDSEC
  0
SECTION
  2
TABLES
  0
TABLE
  2
VPORT
  5
8
330
0
100
AcDbSymbolTable
 70
1
  0
VPORT
  5
23
330
8
100
AcDbSymbolTableRecord
100
AcDbViewportTableRecord
  2
*Active
 70
0
 10
0.0
 20
0.0
 11
1.0
 21
1.0
 12
0.0
 22
0.0
 13
0.0
 23
0.0
 14
0.5
 24
0.5
 15
0.5
 25
0.5
 16
0.0
 26
0.0
 36
1.0
 17
0.0
 27
0.0
 37
0.0
 40
1000.0
 41
1.34
 42
50.0
 43
0.0
 44
0.0
 50
0.0
 51
0.0
 71
0
 72
1000
 73
1
 74
3
 75
0
 76
0
 77
0
 78
0
281
0
 65
0
146
0.0
  0
ENDTAB
  0
TABLE
  2
LTYPE
  5
2
330
0
100
AcDbSymbolTable
 70
3
  0
LTYPE
  5
24
330
2
100
AcDbSymbolTableRecord
100
AcDbLinetypeTableRecord
  2
ByBlock
 70
0
  3

 72
65
 73
0
 40
0.0
  0
LTYPE
  5
25
330
2
100
AcDbSymbolTableRecord
100
AcDbLinetypeTableRecord
  2
ByLayer
 70
0
  3

 72
65
 73
0
 40
0.0
  0
LTYPE
  5
26
330
2
100
AcDbSymbolTableRecord
100
AcDbLinetypeTableRecord
  2
Continuous
 70
0
  3

 72
65
 73
0
 40
0.0
  0
ENDTAB
  0
TABLE
  2
LAYER
  5
1
330
0
100
AcDbSymbolTable
 70
3
  0
LAYER
  5
27
330
1
100
AcDbSymbolTableRecord
100
AcDbLayerTableRecord
  2
0
 70
0
 62
7
  6
Continuous
370
-3
390
13
347
21
  0
LAYER
  5
28
330
1
100
AcDbSymbolTableRecord
100
AcDbLayerTableRecord
  2
Defpoints
 70
0
 62
7
  6
Continuous
290
0
370
-3
390
13
347
21
  0
LAYER
  5
2F
330
1
100
AcDbSymbolTableRecord
100
AcDbLayerTableRecord
  2
K
 70
0
 62
7
  6
Continuous
370
-3
390
13
347
21
  0
ENDTAB
  0
TABLE
  2
STYLE
  5
5
330
0
100
AcDbSymbolTable
 70
1
  0
STYLE
  5
29
330
5
100
AcDbSymbolTableRecord
100
AcDbTextStyleTableRecord
  2
Standard
 70
0
 40
0.0
 41
1.0
 50
0.0
 71
0
 42
2.5
  3
txt
  4

  0
ENDTAB
  0
TABLE
  2
VIEW
  5
7
330
0
100
AcDbSymbolTable
 70
0
  0
ENDTAB
  0
TABLE
  2
UCS
  5
6
330
0
100
AcDbSymbolTable
 70
0
  0
ENDTAB
  0
TABLE
  2
APPID
  5
3
330
0
100
AcDbSymbolTable
 70
3
  0
APPID
  5
2A
330
3
100
AcDbSymbolTableRecord
100
AcDbRegAppTableRecord
  2
ACAD
 70
0
  0
APPID
  5
4E
330
3
100
AcDbSymbolTableRecord
100
AcDbRegAppTableRecord
  2
HATCHBACKGROUNDCOLOR
 70
0
  0
APPID
  5
4F
330
3
100
AcDbSymbolTableRecord
100
AcDbRegAppTableRecord
  2
EZDXF
 70
0
  0
ENDTAB
  0
TABLE
  2
DIMSTYLE
  5
4
330
0
100
AcDbSymbolTable
 70
1
100
AcDbDimStyleTable
  0
DIMSTYLE
105
2B
330
4
100
AcDbSymbolTableRecord
100
AcDbDimStyleTableRecord
  2
Standard
 70
0
 40
1.0
 41
2.5
 42
0.625
 43
3.75
 44
1.25
 45
0.0
 46
0.0
 47
0.0
 48
0.0
 49
2.5
140
2.5
141
2.5
142
0.0
143
0.03937007874
144
1.0
145
0.0
146
1.0
147
0.625
148
0.0
 69
0
 70
0
 71
0
 72
0
 73
0
 74
0
 75
0
 76
0
 77
1
 78
8
 79
3
170
0
171
3
172
1
173
0
174
0
175
0
176
0
177
0
178
0
179
2
271
2
272
2
273
2
274
3
275
0
276
0
277
2
278
44
279
0
280
0
281
0
282
0
283
0
284
8
285
0
286
0
288
0
289
3
290
0
371
-2
372
-2
  0
ENDTAB
  0
TABLE
  2
BLOCK_RECORD
  5
9
330
0
100
AcDbSymbolTable
 70
2
  0
BLOCK_RECORD
  5
17
330
9
100
AcDbSymbolTableRecord
100
AcDbBlockTableRecord
  2
*Model_Space
340
1A
 70
0
280
1
281
0
  0
BLOCK_RECORD
  5
1B
330
9
100
AcDbSymbolTableRecord
100
AcDbBlockTableRecord
  2
*Paper_Space
340
1E
 70
0
280
1
281
0
  0
ENDTAB
  0
ENDSEC
  0
SECTION
  2
BLOCKS
  0
BLOCK
  5
18
330
17
100
AcDbEntity
  8
0
100
AcDbBlockBegin
  2
*Model_Space
 70
0
 10
0.0
 20
0.0
 30
0.0
  3
*Model_Space
  1

  0
ENDBLK
  5
19
330
17
100
AcDbEntity
  8
0
100
AcDbBlockEnd
  0
BLOCK
  5
1C
330
1B
100
AcDbEntity
  8
0
100
AcDbBlockBegin
  2
*Paper_Space
 70
0
 10
0.0
 20
0.0
 30
0.0
  3
*Paper_Space
  1

  0
ENDBLK
  5
1D
330
1B
100
AcDbEntity
  8
0
100
AcDbBlockEnd
  0
ENDSEC
  0
SECTION
  2
ENTITIES
  0
LWPOLYLINE
  5
30
330
17
100
AcDbEntity
  8
K
100
AcDbPolyline
 90
79
 70
1
 10
153.2397086857781
 20
30.88231873443337
 10
153.2397086857781
 20
45.17803494857397
 10
154.36643708797774
 20
46.60660637714553
 10
154.36643708797774
 20
52.32089209143109
 10
158.84599044876944
 20
58.000487929696256
 10
156.10804043142437
 20
61.471916501124824
 10
147.09421321382717
 20
61.471916501124824
 10
145.9674848116275
 20
62.90048792969638
 10
141.460571202829
 20
62.90048792969638
 10
140.33384280062936
 20
64.32905935826771
 10
131.3200155830322
 20
64.32905935826771
 10
130.18935799599535
 20
65.762612574096
 10
116.66295180999134
 20
67.19178259197345
 10
111.52798823991688
 20
75.14916556959528
 10
114.41908955003751
 20
78.81477364398192
 10
136.95365759403035
 20
78.81477364398192
 10
138.08038599622998
 20
80.24334507255327
 10
149.34767001822644
 20
80.24334507255327
 10
150.49508346140954
 20
81.69814292666811
 10
156.1843759937757
 20
78.81277649953056
 10
173.01226071747496
 20
77.39037897689549
 10
175.7469164817641
 20
80.85763078683917
 10
170.14063471877276
 20
87.96579805367566
 10
170.14063471877276
 20
92.25151233938989
 10
167.8924723737322
 20
95.10194238681314
 10
166.76574397153252
 20
102.24479952967025
 10
165.61960441283293
 20
103.69798223414217
 10
166.74633281503256
 20
106.55512509128529
 10
163.36153155508313
 20
110.8466920402642
 10
165.61498835948242
 20
115.13240632597865
 10
160.0053735583347
 20
122.24479952967027
 10
158.878645156135
 20
129.38765667252738
 10
157.74662229457667
 20
130.82294091081837
 10
157.74662229457667
 20
135.11598283073556
 10
154.34546232290216
 20
140.86572689807198
 10
157.234768833624
 20
144.52905935826777
 10
161.83866096212833
 20
144.52905935826777
 10
166.29708531107397
 20
138.87625285324233
 10
170.75550966001964
 20
144.52905935826777
 10
171.97921658192507
 20
144.52905935826777
 10
173.10594498412476
 20
143.10048792969621
 10
179.84173452105892
 20
143.10048792969621
 10
185.47537653205717
 20
140.24334507255332
 10
188.86068003536275
 20
140.24334507255332
 10
193.3675936441613
 20
137.38620221541063
 10
195.55542245941385
 20
137.38620221541063
 10
198.98666200723505
 20
140.28649937843696
 10
204.65434024571474
 20
133.1004879296962
 10
206.90779705011406
 20
133.1004879296962
 10
209.7761287957602
 20
129.4637492342883
 10
209.7761287957602
 20
117.97579998210183
 10
207.54140474185272
 20
113.72571239055685
 10
210.9028571979599
 20
109.46374923428826
 10
210.9028571979599
 20
100.8923206628598
 10
213.15631400235915
 20
98.03517780571691
 10
213.15631400235915
 20
86.60660637714557
 10
214.3104026525657
 20
85.14334507255339
 10
210.92383196303547
 20
80.8495346756064
 10
214.30253638235433
 20
75.13775226841268
 10
201.27665665985674
 20
57.186202215410596
 10
193.2900777040126
 20
57.186202215410596
 10
192.16334930181293
 20
58.614773643981934
 10
177.61285859292335
 20
58.614773643981934
 10
176.45209396324222
 20
57.143047909526956
 10
173.07190875664327
 20
60.000190766669625
 10
170.3679949667796
 20
56.5719165011247
 10
173.08010633740847
 20
53.133248577585725
 10
175.33356314180773
 20
54.56182000615728
 10
177.61285859292335
 20
51.67191650112479
 10
187.75341421272003
 20
51.67191650112479
 10
188.88014261491972
 20
50.24334507255346
 10
191.1435508809428
 20
50.24334507255346
 10
194.02105445665356
 20
45.135630435923616
 10
173.0984854067335
 20
17.174121084423845
 10
160.60670689540672
 20
20.05380157247716
 10
159.48822563802327
 20
21.471916501124788
 10
156.11551654495406
 20
21.471916501124788
 10
150.96321892666413
 20
26.552799454157004
 10
153.2397086857781
 20
30.88231873443337
  0
LWPOLYLINE
  5
31
330
17
100
AcDbEntity
  8
K
100
AcDbPolyline
 90
112
 70
1
 10
93.05973916809718
 20
91.41043729186448
 10
91.88452150604468
 20
92.90048792969618
 10
85.1241510928468
 20
92.90048792969618
 10
83.99742269064717
 20
94.32905935826751
 10
77.23705227744928
 20
94.32905935826751
 10
76.10563775658044
 20
95.76357228545463
 10
64.83835373458402
 20
97.19214371402617
 10
61.97470810760699
 20
100.82294091081856
 10
61.97470810760699
 20
115.1086551965328
 10
59.209397842255015
 20
118.61477364398199
 10
54.72841072561096
 20
118.61477364398199
 10
45.707659804059695
 20
122.90377987397582
 10
26.528797899191463
 20
125.76457412481679
 10
25.403616591428506
 20
127.19118400266738
 10
11.882875765032802
 20
128.61975543123893
 10
9.633348145470706
 20
131.4719165011249
 10
5.1264345366721225
 20
131.4719165011249
 10
2.2349395598302566
 20
135.13802370292248
 10
7.875792769118151
 20
143.72042391062712
 10
5.61955524713309
 20
148.0114266762711
 10
7.859690573819411
 20
150.8516793206438
 10
1.136453907275764
 20
157.95530177200945
 10
0.0
 20
166.6007157616791
 10
2.9070139597543316
 20
170.286499378437
 10
6.287199166353258
 20
167.4293565212941
 10
9.633348145470706
 20
171.6719165011249
 10
11.886804949870017
 20
171.6719165011249
 10
13.039371998785882
 20
173.13324857758582
 10
15.344506096617666
 20
171.6719165011249
 10
22.027360569666783
 20
171.6719165011249
 10
23.154088971866464
 20
173.10048792969624
 10
40.15199352456686
 20
173.10048792969624
 10
42.40545032896612
 20
170.24334507255335
 10
73.85686707085034
 20
170.24334507255335
 10
75.0320847329029
 20
171.73339571038525
 10
76.2073023949554
 20
170.24334507255335
 10
96.39143511484325
 20
170.24334507255335
 10
97.51816351704286
 20
171.6719165011249
 10
100.99532724334756
 20
171.6719165011249
 10
102.12205564554722
 20
170.24334507255335
 10
108.88242605874507
 20
170.24334507255335
 10
109.96066520109183
 20
168.87625285324214
 10
111.0389043434386
 20
170.24334507255335
 10
132.44674398523182
 20
170.24334507255335
 10
133.59066066350465
 20
171.69370940175344
 10
136.99283638348166
 20
170.25584409808593
 10
141.48003378238596
 20
173.10048792969624
 10
144.93773492913368
 20
173.10048792969624
 10
146.0644633313333
 20
171.6719165011249
 10
152.8248337445312
 20
171.6719165011249
 10
155.07829054893043
 20
168.8147736439818
 10
157.3317473533297
 20
168.8147736439818
 10
160.20007909897595
 20
165.17803494857387
 10
160.20007909897595
 20
162.25151233938993
 10
156.20501895113006
 20
157.18620221541067
 10
153.95156214673082
 20
157.18620221541067
 10
152.8248337445312
 20
155.75763078683912
 10
148.2209416160268
 20
155.75763078683912
 10
147.09421321382717
 20
157.18620221541067
 10
131.41699410273793
 20
157.18620221541067
 10
130.2417764406854
 20
155.69615157757877
 10
129.06655877863287
 20
157.18620221541067
 10
126.91008049393935
 20
157.18620221541067
 10
125.78335209173972
 20
155.75763078683912
 10
114.41908955003751
 20
155.75763078683912
 10
113.2923611478379
 20
157.18620221541067
 10
97.61514203674862
 20
157.18620221541067
 10
96.48841363454899
 20
155.75763078683912
 10
85.22112961255255
 20
155.75763078683912
 10
84.09440121035291
 20
154.32905935826759
 10
79.4905090818486
 20
154.32905935826759
 10
78.36378067964891
 20
155.75763078683912
 10
75.08057399275577
 20
155.75763078683912
 10
73.96284755209695
 20
154.34047288528373
 10
62.69556353010053
 20
151.48333002814107
 10
58.8218831490149
 20
146.57191650112478
 10
61.51134390650717
 20
143.16196713895658
 10
62.58958304885395
 20
144.52905935826777
 10
64.94001837295902
 20
144.52905935826777
 10
67.15943894987677
 20
141.7150708070083
 10
70.48856981525346
 20
144.52905935826777
 10
72.82711718835647
 20
144.52905935826777
 10
75.72280918200954
 20
140.85763078683922
 10
74.59608077980992
 20
139.42905935826766
 10
77.30819215043883
 20
135.99039143472868
 10
81.76342846580489
 20
138.814773643982
 10
84.08251325935088
 20
138.814773643982
 10
87.41164412472757
 20
136.00078509272274
 10
89.63106470164539
 20
138.814773643982
 10
93.01124990824431
 20
138.814773643982
 10
94.13797831044396
 20
140.24334507255332
 10
105.42833727104123
 20
140.24334507255332
 10
113.31543608643874
 20
144.52905935826777
 10
117.87679069678519
 20
144.52905935826777
 10
120.07857020775198
 20
143.1332485775858
 10
121.1794599632354
 20
144.52905935826777
 10
129.06655877863287
 20
144.52905935826777
 10
130.19328718083253
 20
145.9576307868391
 10
146.0644633313333
 20
145.9576307868391
 10
148.96267358576367
 20
142.28300932936187
 10
137.0476355060932
 20
128.614773643982
 10
135.92390771153654
 20
128.614773643982
 10
121.91867367219494
 20
110.85763078683897
 10
123.0403364618952
 20
109.43548201457997
 10
118.50392354677841
 20
102.2458724044839
 10
117.37686115245066
 20
97.95888771959271
 10
111.1356817758486
 20
88.60698350754271
 10
100.89316372187723
 20
90.04991910171923
 10
99.77162032144216
 20
91.47191650112485
 10
95.26470671264359
 20
91.47191650112485
 10
94.18646757029683
 20
92.83900872043583
 10
93.05973916809718
 20
91.41043729186448
  0
LWPOLYLINE
  5
32
330
17
100
AcDbEntity
  8
K
100
AcDbPolyline
 90
6
 70
1
 10
116.76952487414258
 20
121.47191650112465
 10
114.03157485679743
 20
118.00048792969608
 10
117.85998613066693
 20
113.146470801883
 10
121.6549485823577
 20
116.58333336559457
 10
117.79927475663646
 20
121.47191650112465
 10
116.76952487414258
 20
121.47191650112465
  0
LWPOLYLINE
  5
33
330
17
100
AcDbEntity
  8
K
100
AcDbPolyline
 90
7
 70
1
 10
52.44902742905713
 20
143.10048792969621
 10
55.1869774464023
 20
146.57191650112478
 10
52.44902742905713
 20
150.04334507255334
 10
50.292549144363626
 20
150.04334507255334
 10
47.554599127018456
 20
146.57191650112478
 10
50.292549144363626
 20
143.10048792969621
 10
52.44902742905713
 20
143.10048792969621
  0
LWPOLYLINE
  5
34
330
17
100
AcDbEntity
  8
K
100
AcDbPolyline
 90
14
 70
1
 10
31.113585430706024
 20
140.24334507255332
 10
35.548101396062485
 20
140.24334507255332
 10
39.41277981560729
 20
145.14334507255322
 10
36.67482979826212
 20
148.61477364398178
 10
26.6312526981711
 20
148.61477364398178
 10
25.47369824999146
 20
147.1471180772481
 10
19.788679495693213
 20
151.4719165011249
 10
17.61742548057396
 20
151.4719165011249
 10
13.752747061029163
 20
146.57191650112478
 10
16.490697078374332
 20
143.10048792969621
 10
18.744153882773645
 20
143.10048792969621
 10
22.075849829519655
 20
138.87625285324233
 10
25.42823081724918
 20
143.1267143552395
 10
31.113585430706024
 20
140.24334507255332
  0
LWPOLYLINE
  5
35
330
17
100
AcDbEntity
  8
K
100
AcDbPolyline
 90
192
 70
1
 10
1447.1150927003416
 20
38.592049152849974
 10
1445.701986412786
 20
40.04334507255347
 10
1443.0044358349867
 20
40.04334507255347
 10
1441.6134560626815
 20
38.61477364398191
 10
1438.7651169723201
 20
38.61477364398191
 10
1436.02741045821
 20
40.020620581421525
 10
1434.658557201155
 20
38.61477364398191
 10
1430.4192383384884
 20
38.61477364398191
 10
1427.6815318243782
 20
40.020620581421525
 10
1426.3126785673232
 20
38.61477364398191
 10
1423.4643394769619
 20
38.61477364398191
 10
1420.726632962852
 20
40.020620581421525
 10
1419.3577797057967
 20
38.61477364398191
 10
1415.1004314220697
 20
38.61477364398191
 10
1413.7094516497643
 20
40.04334507255347
 10
1411.011901071965
 20
40.04334507255347
 10
1408.1877370439488
 20
37.142857142857146
 10
1402.6037399865722
 20
42.87776343856442
 10
1399.8660334724623
 20
41.47191650112481
 10
1395.6267146097955
 20
41.47191650112481
 10
1394.277939320896
 20
42.857142857142925
 10
1392.9291640319962
 20
41.47191650112481
 10
1387.2808359759638
 20
41.47191650112481
 10
1385.9320606870642
 20
42.857142857142925
 10
1384.5410809147588
 20
41.428571428571374
 10
1381.7390434019928
 20
44.30633486713575
 10
1379.0013368878829
 20
42.90048792969636
 10
1372.064467447417
 20
42.90048792969636
 10
1370.631283191706
 20
41.428571428571374
 10
1369.2403034194008
 20
42.857142857142925
 10
1367.891528130501
 20
41.47191650112481
 10
1352.5063416683315
 20
41.47191650112481
 10
1351.1153618960263
 20
42.90048792969636
 10
1347.0088021248612
 20
42.90048792969636
 10
1344.1825895497502
 20
41.44919200999286
 10
1342.7694832621946
 20
42.90048792969636
 10
1331.7260540505633
 20
42.90048792969636
 10
1326.1199304779368
 20
37.142857142857146
 10
1323.8938877520118
 20
39.42905935826779
 10
1325.2848675243172
 20
40.857630786839124
 10
1323.3304405713802
 20
42.864876729437285
 10
1316.4188843616782
 20
37.18620221541058
 10
1310.776948499173
 20
37.18620221541058
 10
1309.3859687268675
 20
38.61477364398191
 10
1303.8220496376464
 20
38.61477364398191
 10
1301.0400900930358
 20
41.47191650112481
 10
1298.2581305484252
 20
41.47191650112481
 10
1296.9093552595257
 20
42.857142857142925
 10
1294.1519017456362
 20
40.02516831374048
 10
1287.1610617103188
 20
42.89707616891136
 10
1278.80817764437
 20
41.4673056143271
 10
1272.467209244183
 20
45.085269515399816
 10
1272.467209244183
 20
49.47972272678247
 10
1277.4028921785523
 20
53.10048792969613
 10
1281.6507822475728
 20
53.10048792969613
 10
1283.0345189856862
 20
51.67935528054413
 10
1291.380397619518
 20
53.10792670911546
 10
1292.7786204260153
 20
51.67191650112479
 10
1309.4703776936788
 20
51.67191650112479
 10
1310.861357465984
 20
50.24334507255346
 10
1313.5589080437835
 20
50.24334507255346
 10
1314.949887816089
 20
51.67191650112479
 10
1319.2072360998156
 20
51.67191650112479
 10
1320.589487766366
 20
50.25230905805156
 10
1327.5443866278924
 20
51.6808804866229
 10
1328.9440945059528
 20
50.24334507255346
 10
1333.050654277118
 20
50.24334507255346
 10
1335.8768668522289
 20
51.69464099225674
 10
1337.2899731397845
 20
50.24334507255346
 10
1342.7694832621946
 20
50.24334507255346
 10
1344.2026675179054
 20
51.715261573678006
 10
1345.6358517736162
 20
50.24334507255346
 10
1351.1153618960263
 20
50.24334507255346
 10
1352.5485461517374
 20
51.715261573678006
 10
1353.981730407448
 20
50.24334507255346
 10
1359.461240529858
 20
50.24334507255346
 10
1360.894424785569
 20
51.715261573678006
 10
1362.2854045578742
 20
50.286690145106675
 10
1363.634179846774
 20
51.67191650112479
 10
1369.2825079028062
 20
51.67191650112479
 10
1370.6442242722233
 20
50.27339932790742
 10
1374.7891341477969
 20
53.111350887971696
 10
1378.9496692042724
 20
51.68702595586527
 10
1380.3259371144375
 20
53.10048792969613
 10
1387.2808359759638
 20
53.10048792969613
 10
1388.6718157482692
 20
54.52905935826769
 10
1391.5381842596908
 20
54.52905935826769
 10
1394.2908804014132
 20
51.70197075647876
 10
1398.463819718329
 20
54.55911361362165
 10
1399.8840628935225
 20
53.10048792969613
 10
1408.2299415273544
 20
53.10048792969613
 10
1409.6209212996598
 20
51.67191650112479
 10
1417.9667999334915
 20
51.67191650112479
 10
1420.7377919941707
 20
48.82603752754022
 10
1426.301711083392
 20
50.25460895611178
 10
1429.0946381119338
 20
47.38620221541056
 10
1437.4405167457655
 20
47.38620221541056
 10
1438.824253483879
 20
45.96506956625834
 10
1447.086224639598
 20
47.37927847757617
 10
1448.5261504408022
 20
48.85811871653534
 10
1449.9171302131076
 20
47.429547287964
 10
1451.9035998715656
 20
49.46970190005695
 10
1451.9035998715656
 20
52.2455596736211
 10
1449.1337241013894
 20
55.09029218860806
 10
1447.742744329084
 20
59.37600647432251
 10
1442.1858203170386
 20
65.08310806731976
 10
1436.6219012278175
 20
75.08310806731977
 10
1432.4051590090453
 20
79.41380904178841
 10
1434.5589592282724
 20
83.10048792969616
 10
1438.7470875512595
 20
83.10048792969616
 10
1440.7361886256563
 20
85.14334507255339
 10
1437.3561077789543
 20
88.61477364398196
 10
1430.416891626309
 20
88.61477364398196
 10
1424.0039983652537
 20
92.27377568525496
 10
1429.6223426225718
 20
96.60141198972538
 10
1428.2362719050182
 20
99.44847139993551
 10
1430.4304723203163
 20
101.7019707564788
 10
1434.5842013749273
 20
98.85798084970476
 10
1436.578098325961
 20
102.27095189893132
 10
1434.596274749594
 20
104.3063348671358
 10
1431.8236340583708
 20
102.88254878769764
 10
1426.2364255177406
 20
107.18620221541042
 10
1420.6643505112909
 20
107.18620221541042
 10
1419.2653606559154
 20
108.62300020201144
 10
1412.3050484312803
 20
110.05268356276532
 10
1406.001267385491
 20
117.96552460123677
 10
1406.001267385491
 20
120.81698824504983
 10
1404.5707145457186
 20
122.28620221541053
 10
1407.3526740903292
 20
125.14334507255343
 10
1404.5707145457186
 20
128.0004879296963
 10
1406.754552788238
 20
130.24334507255352
 10
1412.4129348507447
 20
130.24334507255352
 10
1415.9673355988616
 20
125.13270174202407
 10
1413.75165613317
 20
122.85714285714278
 10
1412.3606763608648
 20
124.28571428571433
 10
1410.4137797698736
 20
122.28620221541053
 10
1412.3807543290202
 20
120.26606956368524
 10
1415.1627138736308
 20
121.69464099225658
 10
1417.9667999334915
 20
118.81477364398197
 10
1420.6643505112909
 20
118.81477364398197
 10
1422.0975347670017
 20
120.28669014510673
 10
1426.3126785673232
 20
115.95763078683908
 10
1429.0102291451226
 20
115.95763078683908
 10
1430.4233354326782
 20
117.40892670654257
 10
1433.214613830676
 20
115.97556992883761
 10
1438.7988166396783
 20
120.27690813471304
 10
1444.3532111238865
 20
114.57240443082095
 10
1447.135170668497
 20
117.42954728796407
 10
1448.5683549242078
 20
115.95763078683908
 10
1452.7310168039705
 20
115.95763078683908
 10
1461.8404582777025
 20
109.48065829546904
 10
1461.8404582777025
 20
97.95984538790692
 10
1456.3265266605733
 20
92.2968980725245
 10
1461.8404582777025
 20
88.04968758598774
 10
1461.8404582777025
 20
79.38841681647824
 10
1459.0980718005587
 20
76.57191650112472
 10
1461.8404582777025
 20
73.75541618577142
 10
1461.8404582777025
 20
48.041130471485616
 10
1463.8269279361605
 20
46.00097585939245
 10
1466.608887480771
 20
48.85811871653534
 10
1472.2002991912575
 20
43.115597384436825
 10
1476.2907606443775
 20
44.51593319519542
 10
1479.085500948113
 20
47.38620221541056
 10
1481.951869459535
 20
47.38620221541056
 10
1483.34284923184
 20
45.95763078683901
 10
1490.2977480933666
 20
45.95763078683901
 10
1491.6945458069142
 20
44.52308418537343
 10
1501.431404213051
 20
43.0945127568021
 10
1502.816566044114
 20
41.671916501124784
 10
1508.3710269186288
 20
41.671916501124784
 10
1513.3585700950143
 20
38.01310716891759
 10
1511.1477328158055
 20
35.74252133209876
 10
1506.9747934988898
 20
37.1710927606701
 10
1504.1653413330139
 20
34.28571428571425
 10
1501.3411773049977
 20
37.18620221541058
 10
1498.6436267271984
 20
37.18620221541058
 10
1497.2416794709618
 20
35.74636690328092
 10
1491.6584291117463
 20
37.179901757730335
 10
1488.8645638376556
 20
35.74521658641805
 10
1486.1026822612005
 20
37.163477724278636
 10
1484.7338290041455
 20
35.75763078683924
 10
1480.4764807204183
 20
35.75763078683924
 10
1479.1277054315185
 20
37.142857142857146
 10
1477.778930142619
 20
35.75763078683924
 10
1473.5215818588918
 20
35.75763078683924
 10
1472.1728065699922
 20
37.142857142857146
 10
1470.8240312810924
 20
35.75763078683924
 10
1463.7928793699834
 20
35.75763078683924
 10
1458.2725334519523
 20
40.009782010393735
 10
1456.9055054522846
 20
38.605809658483814
 10
1449.9314940716042
 20
40.03830689522814
 10
1447.1150927003416
 20
38.592049152849974
  0
LWPOLYLINE
  5
36
330
17
100
AcDbEntity
  8
K
100
AcDbPolyline
 90
18
 70
1
 10
1445.7585547546882
 20
40.248383249878785
 10
1448.5060724726468
 20
38.83749813511383
 10
1449.874925729702
 20
40.24334507255345
 10
1452.7412942411238
 20
40.24334507255345
 10
1454.132274013429
 20
38.814773643981894
 10
1456.8298245912283
 20
38.814773643981894
 10
1458.2630088469393
 20
40.28669014510689
 10
1461.8923185197186
 20
36.559297261903325
 10
1456.904775343333
 20
32.90048792969613
 10
1437.3561077789543
 20
32.90048792969613
 10
1434.5828763400987
 20
35.748666801341145
 10
1427.6112986853818
 20
34.31666946422807
 10
1425.4502601475187
 20
38.01573824617543
 10
1427.6369478255017
 20
40.261521831366444
 10
1434.5918466870282
 20
37.40437897422355
 10
1437.39831226236
 20
40.28669014510689
 10
1438.8227684123158
 20
38.82373762947999
 10
1445.7585547546882
 20
40.248383249878785
  0
LWPOLYLINE
  5
37
330
17
100
AcDbEntity
  8
K
100
AcDbPolyline
 90
165
 70
1
 10
1398.4196416383372
 20
54.317795474709385
 10
1392.855722549116
 20
52.88922404613783
 10
1389.2699370503606
 20
56.5719165011247
 10
1390.6609168226657
 20
58.000487929696256
 10
1388.7140202316748
 20
59.99999999999983
 10
1386.7671236406838
 20
58.000487929696256
 10
1389.5490831852944
 20
55.14334507255336
 10
1387.365244942775
 20
52.90048792969615
 10
1380.392316660188
 20
52.90048792969615
 10
1377.5861820532325
 20
51.45950230070362
 10
1374.8115497812255
 20
52.88431108207514
 10
1370.618342111189
 20
50.01329081719952
 10
1369.2020041568903
 20
51.46790574043347
 10
1353.9012266615323
 20
50.039334311862135
 10
1352.5485461517374
 20
51.4285714285716
 10
1351.1997708628373
 20
50.04334507255348
 10
1345.5514428068052
 20
50.04334507255348
 10
1344.2026675179054
 20
51.4285714285716
 10
1342.8538922290056
 20
50.04334507255348
 10
1337.2235935940337
 20
50.04334507255348
 10
1334.4858870799237
 20
51.44919200999287
 10
1333.1170338228685
 20
50.04334507255348
 10
1328.8596855391418
 20
50.04334507255348
 10
1327.4687057668364
 20
51.47191650112482
 10
1323.3621459956712
 20
51.47191650112482
 10
1320.5359334205602
 20
50.02062058142154
 10
1319.1228271330046
 20
51.47191650112482
 10
1315.0342967829
 20
51.47191650112482
 10
1313.6433170105945
 20
50.04334507255348
 10
1310.776948499173
 20
50.04334507255348
 10
1309.3859687268675
 20
51.47191650112482
 10
1292.694211459204
 20
51.47191650112482
 10
1291.310474721091
 20
52.893049150276816
 10
1282.964596087259
 20
51.46447772170548
 10
1281.5663732807618
 20
52.90048792969615
 10
1277.4028921785523
 20
52.90048792969615
 10
1272.467209244183
 20
56.52125313260981
 10
1272.467209244183
 20
72.32684475719986
 10
1274.6407378221236
 20
74.55911361362166
 10
1278.8136771390396
 20
71.70197075647877
 10
1282.1522074083039
 20
75.13072583333202
 10
1277.4263303736884
 20
78.59757963000335
 10
1274.6336009344857
 20
77.16347772427868
 10
1272.4398474890295
 20
79.41651803148231
 10
1275.22180703364
 20
83.70223231719653
 10
1271.8559678350384
 20
87.15903435560347
 10
1268.4942699272672
 20
85.08750505885266
 10
1268.4942699272672
 20
80.8169882450498
 10
1266.3598619345998
 20
78.62489721975363
 10
1260.7126441801136
 20
77.17493833185229
 10
1257.930684635503
 20
80.03208118899497
 10
1252.3667655462818
 20
78.60350976042363
 10
1251.0070227734511
 20
80.00000000000007
 10
1249.0691614434418
 20
78.00976737138554
 10
1255.2149990034275
 20
73.10048792969614
 10
1257.9309676111623
 20
73.10048792969614
 10
1262.13003229096
 20
75.97551839273953
 10
1268.4942699272672
 20
72.34427777256403
 10
1268.4942699272672
 20
57.95984538790688
 10
1266.3278782369644
 20
55.7349062957071
 10
1260.7197061172428
 20
58.614773643981934
 10
1252.3670485219411
 20
58.614773643981934
 10
1248.1890558485109
 20
61.47537645114398
 10
1235.6767879811473
 20
62.90320042400421
 10
1230.1181511265265
 20
65.75763078683904
 10
1223.15647330353
 20
65.75763078683904
 10
1218.9835339866142
 20
68.61477364398195
 10
1212.0286351250877
 20
68.61477364398195
 10
1207.8515438308334
 20
71.47475929166048
 10
1192.5399132216166
 20
72.90434403137725
 10
1189.7617083086127
 20
75.75763078683906
 10
1182.8068094470864
 20
75.75763078683906
 10
1180.662544272034
 20
77.9598453879069
 10
1180.662544272034
 20
80.89827332862853
 10
1183.4049307491775
 20
83.71477364398183
 10
1176.489604955118
 20
90.8169882450498
 10
1176.489604955118
 20
102.24555967362114
 10
1173.7076454105074
 20
105.10270253076403
 10
1173.7076454105074
 20
115.18398761434278
 10
1175.0486377107209
 20
116.56122064401076
 10
1169.5347060935917
 20
120.80843113054773
 10
1169.5347060935917
 20
133.75541618577148
 10
1171.6789712686439
 20
135.9576307868391
 10
1174.5453397800657
 20
135.9576307868391
 10
1177.3331172659186
 20
133.09451275680195
 10
1187.0699756720558
 20
131.66594132823062
 10
1189.8461172754237
 20
128.81477364398197
 10
1198.1807454496652
 20
128.81477364398197
 10
1202.353684766581
 20
125.95763078683908
 10
1206.5297186258588
 20
125.95763078683908
 10
1212.09363771508
 20
121.67191650112463
 10
1214.883753176919
 20
121.67191650112463
 10
1216.2747329492242
 20
120.2433450725533
 10
1223.2296318107508
 20
120.2433450725533
 10
1224.620611583056
 20
118.81477364398197
 10
1230.184530672277
 20
118.81477364398197
 10
1231.5755104445825
 20
117.38620221541063
 10
1238.5304093061088
 20
117.38620221541063
 10
1239.910421594483
 20
115.96889467039739
 10
1245.4743406837044
 20
117.39746609896895
 10
1246.8762879399405
 20
115.95763078683908
 10
1253.831186801467
 20
115.95763078683908
 10
1255.226286887884
 20
114.5248276913995
 10
1269.136084610937
 20
113.09625626282815
 10
1270.4807395857251
 20
111.71526157367806
 10
1271.829514874625
 20
113.10048792969619
 10
1277.477842930657
 20
113.10048792969619
 10
1278.8688227029622
 20
111.67191650112484
 10
1284.4327417921834
 20
111.67191650112484
 10
1285.8274761960954
 20
110.23948897087243
 10
1301.1282536914537
 20
108.81091754230087
 10
1302.5045113482213
 20
107.39746609896872
 10
1308.0684304374424
 20
108.82603752754028
 10
1309.4703776936788
 20
107.38620221541039
 10
1315.0342967829
 20
107.38620221541039
 10
1316.425276555205
 20
105.95763078683906
 10
1323.3801754167316
 20
105.95763078683906
 10
1324.7711551890368
 20
104.52905935826773
 10
1333.1170338228685
 20
104.52905935826773
 10
1334.508013595174
 20
103.10048792969617
 10
1337.2055641729735
 20
103.10048792969617
 10
1338.6387484286843
 20
104.57240443082117
 10
1341.467032770812
 20
101.66768483425682
 10
1355.3768304938649
 20
100.23911340568526
 10
1356.7415634368083
 20
98.83749813511389
 10
1359.5107722858672
 20
100.2595219201743
 10
1363.6763843301796
 20
97.40739592596492
 10
1367.8622647276127
 20
100.27339932790724
 10
1372.0644674474167
 20
95.95763078683905
 10
1376.2261563047425
 20
95.95763078683905
 10
1380.383229958668
 20
93.11135088797174
 10
1384.5685735360241
 20
94.54416881300799
 10
1385.9521386552194
 20
93.12321242082811
 10
1388.7213475042784
 20
94.5452362058885
 10
1392.894286821194
 20
91.68809334874584
 10
1395.6086851887353
 20
93.08197125798512
 10
1397.5966739403175
 20
95.12368601716159
 10
1390.6648744354843
 20
99.39516612852705
 10
1392.8669152989446
 20
103.16441895390871
 10
1394.3201438043013
 20
101.67191650112484
 10
1399.872812433932
 20
101.67191650112484
 10
1404.0457517508482
 20
98.81477364398195
 10
1413.7814361564863
 20
98.81477364398195
 10
1421.5584236769616
 20
93.7320335526144
 10
1417.3686786314001
 20
89.42905935826761
 10
1419.365789788867
 20
87.37797565738093
 10
1426.3206886503933
 20
85.94940422880958
 10
1436.8028223762074
 20
75.18398761434275
 10
1436.8028223762074
 20
72.31581271113141
 10
1442.3452579713287
 20
63.77748027790852
 10
1449.3216403269548
 20
56.61255904291407
 10
1449.3216403269548
 20
53.755416185771395
 10
1452.1283239218117
 20
50.872881103318335
 10
1449.9371744627535
 20
47.12227119119805
 10
1448.5261504408022
 20
48.571428571428484
 10
1447.1773751519027
 20
47.18620221541059
 10
1444.3110066404806
 20
47.18620221541059
 10
1442.962231351581
 20
48.571428571428484
 10
1440.2170766059464
 20
45.75208517427654
 10
1429.0128538844083
 20
47.19046271020688
 10
1423.45446597313
 20
51.47191650112482
 10
1409.5365123328486
 20
51.47191650112482
 10
1408.1455325605432
 20
52.90048792969615
 10
1399.7996539267115
 20
52.90048792969615
 10
1398.4196416383372
 20
54.317795474709385
  0
LWPOLYLINE
  5
38
330
17
100
AcDbEntity
  8
K
100
AcDbPolyline
 90
12
 70
1
 10
1408.1455325605432
 20
87.38620221541038
 10
1411.5256134072451
 20
90.85763078683917
 10
1409.5787168162542
 20
92.85714285714275
 10
1408.1877370439488
 20
91.42857142857142
 10
1406.754552788238
 20
92.90048792969618
 10
1401.1906336990166
 20
92.90048792969618
 10
1399.841858410117
 20
94.28571428571408
 10
1397.8949618191261
 20
92.28620221541051
 10
1401.275042665828
 20
88.81477364398194
 10
1404.0570022104387
 20
88.81477364398194
 10
1405.4479819827438
 20
87.38620221541038
 10
1408.1455325605432
 20
87.38620221541038
  0
LWPOLYLINE
  5
39
330
17
100
AcDbEntity
  8
K
100
AcDbPolyline
 90
13
 70
1
 10
1355.3104277281925
 20
62.877763438564436
 10
1353.9395259240425
 20
64.2857142857145
 10
1352.5485461517374
 20
62.85714285714317
 10
1349.7665866071268
 20
65.71428571428584
 10
1347.8196900161356
 20
63.714773643982035
 10
1349.7665866071268
 20
61.715261573678234
 10
1351.157566379432
 20
63.14383300224979
 10
1353.9596038921977
 20
60.266069563685186
 10
1356.7415634368083
 20
61.694640992256744
 10
1358.1124652409585
 20
60.28669014510668
 10
1360.0593618319494
 20
62.28620221541048
 10
1358.092387272803
 20
64.30633486713577
 10
1355.3104277281925
 20
62.877763438564436
  0
LWPOLYLINE
  5
3A
330
17
100
AcDbEntity
  8
K
100
AcDbPolyline
 90
5
 70
1
 10
1303.864254121052
 20
80.00000000000007
 10
1301.917357530061
 20
78.00048792969628
 10
1303.864254121052
 20
76.00097585939247
 10
1305.8111507120432
 20
78.00048792969628
 10
1303.864254121052
 20
80.00000000000007
  0
LWPOLYLINE
  5
3B
330
17
100
AcDbEntity
  8
K
100
AcDbPolyline
 90
9
 70
1
 10
1297.4652720782115
 20
79.42905935826761
 10
1295.5183754872203
 20
81.4285714285714
 10
1293.5714788962293
 20
79.42905935826761
 10
1294.9624586685347
 20
78.00048792969628
 10
1292.1804991239242
 20
75.14334507255339
 10
1294.127395714915
 20
73.14383300224958
 10
1296.074292305906
 20
75.14334507255339
 10
1294.6833125336009
 20
76.57191650112472
 10
1297.4652720782115
 20
79.42905935826761
  0
LWPOLYLINE
  5
3C
330
17
100
AcDbEntity
  8
K
100
AcDbPolyline
 90
5
 70
1
 10
1288.563476625694
 20
73.14383300224958
 10
1290.510373216685
 20
75.14334507255339
 10
1287.1724968533886
 20
78.57142857142851
 10
1285.2256002623976
 20
76.57191650112472
 10
1288.563476625694
 20
73.14383300224958
  0
LWPOLYLINE
  5
3D
330
17
100
AcDbEntity
  8
K
100
AcDbPolyline
 90
94
 70
1
 10
1286.377006967236
 20
35.10270253076398
 10
1283.5950474226254
 20
37.95984538790687
 10
1283.5950474226254
 20
40.91347080053986
 10
1287.168029112074
 20
43.1151963718166
 10
1292.760591004955
 20
40.24334507255345
 10
1298.3425395152365
 20
40.24334507255345
 10
1299.7335192875416
 20
38.814773643981894
 10
1309.4703776936788
 20
38.814773643981894
 10
1310.861357465984
 20
37.386202215410556
 10
1328.9440945059528
 20
37.386202215410556
 10
1330.2928697948525
 20
36.00097585939244
 10
1332.2397663858437
 20
38.000487929696234
 10
1329.4578068412332
 20
40.857630786839124
 10
1331.6416450837523
 20
43.10048792969634
 10
1342.8358628079452
 20
43.10048792969634
 10
1345.5735693220554
 20
41.69464099225672
 10
1346.9424225791104
 20
43.10048792969634
 10
1351.1997708628373
 20
43.10048792969634
 10
1353.3836091053568
 20
40.857630786839124
 10
1349.7795276876438
 20
37.156147960056614
 10
1345.5785589293857
 20
40.0324821142779
 10
1341.4756932158255
 20
38.62789980705416
 10
1339.473811382304
 20
36.571916501124676
 10
1341.4629124567005
 20
34.529059358267666
 10
1348.351431772476
 20
34.529059358267666
 10
1351.157566379432
 20
35.97004498726042
 10
1353.919447955887
 20
34.55178384939961
 10
1355.8864225150335
 20
36.571916501124676
 10
1353.104462970423
 20
39.42905935826779
 10
1355.330505696348
 20
41.715261573678
 10
1356.721485468653
 20
40.28669014510666
 10
1358.0702607575527
 20
41.671916501124784
 10
1367.8071191636898
 20
41.671916501124784
 10
1369.2403034194008
 20
43.14383300224978
 10
1370.631283191706
 20
41.71526157367822
 10
1371.9800584806057
 20
43.10048792969634
 10
1377.628386536638
 20
43.10048792969634
 10
1379.8122247791573
 20
40.857630786839124
 10
1377.0302652345467
 20
38.000487929696234
 10
1378.9771618255377
 20
36.00097585939266
 10
1380.9240584165289
 20
38.000487929696234
 10
1379.5330786442235
 20
39.42905935826779
 10
1380.307907693377
 20
40.224828400842405
 10
1385.9521386552194
 20
43.12321242082828
 10
1391.5234723975504
 20
37.40131167015104
 10
1395.6139338506705
 20
38.80164748090964
 10
1398.450878637812
 20
41.71526157367822
 10
1401.2603308036878
 20
38.82988309872238
 10
1405.4332701206035
 20
40.25845452729393
 10
1407.631820225263
 20
38.000487929696234
 10
1406.2012673854908
 20
36.53127395933531
 10
1406.2012673854908
 20
30.89827332862849
 10
1408.9832269301014
 20
28.041130471485598
 10
1408.9832269301014
 20
22.33259515345143
 10
1432.6763562413498
 20
2.2932888077216163
 10
1430.4856178842392
 20
0.04334507255343567
 10
1424.8372898282066
 20
0.04334507255343567
 10
1423.4684365711516
 20
1.449192009992828
 10
1420.7307300570415
 20
0.04334507255343567
 10
1415.1004314220697
 20
0.04334507255343567
 10
1413.7094516497643
 20
1.4719165011247703
 10
1406.8389617550492
 20
1.4719165011247703
 10
1405.4057774993382
 20
0.0
 10
1403.9725932436274
 20
1.4719165011247703
 10
1401.275042665828
 20
1.4719165011247703
 10
1399.8840628935225
 20
0.04334507255343567
 10
1395.6267146097955
 20
0.04334507255343567
 10
1394.2357348374903
 20
1.4719165011247703
 10
1391.5381842596908
 20
1.4719165011247703
 10
1390.1472044873856
 20
0.04334507255343567
 10
1384.4988764313532
 20
0.04334507255343567
 10
1383.1501011424537
 20
1.4285714285713347
 10
1381.8013258535539
 20
0.04334507255343567
 10
1377.543977569827
 20
0.04334507255343567
 10
1373.4132427363165
 20
4.285714285714226
 10
1369.2825079028062
 20
0.04334507255343567
 10
1366.4161393913846
 20
0.04334507255343567
 10
1362.2432000744686
 20
4.329059358267662
 10
1359.461240529858
 20
4.329059358267662
 10
1358.0764484224724
 20
5.751275898371322
 10
1348.3395900163353
 20
4.322704469799987
 10
1346.984627062516
 20
5.714285714285783
 10
1345.6358517736162
 20
4.329059358267662
 10
1341.4629124567005
 20
4.329059358267662
 10
1337.2873019257636
 20
0.04060166815178512
 10
1314.9472879275252
 20
1.4745866524767948
 10
1313.5589080437835
 20
2.900487929696327
 10
1305.2130294099518
 20
2.900487929696327
 10
1303.8513130405347
 20
4.2990051029137
 10
1299.7032585311495
 20
1.458900463843893
 10
1292.71667584162
 20
4.329059358267662
 10
1288.5212721422884
 20
4.329059358267662
 10
1286.377006967236
 20
6.531273959335504
 10
1286.377006967236
 20
35.10270253076398
  0
LWPOLYLINE
  5
3E
330
17
100
AcDbEntity
  8
K
100
AcDbPolyline
 90
5
 70
1
 10
1424.3235774929267
 20
38.000487929696234
 10
1422.0975347670017
 20
35.71428571428581
 10
1419.8714920410769
 20
38.000487929696234
 10
1422.0975347670017
 20
40.28669014510689
 10
1424.3235774929267
 20
38.000487929696234
  0
LWPOLYLINE
  5
3F
330
17
100
AcDbEntity
  8
K
100
AcDbPolyline
 90
5
 70
1
 10
1413.7674076561618
 20
35.730462927032306
 10
1410.115491891065
 20
37.98082887430443
 10
1412.3449248378727
 20
40.27051293236039
 10
1415.9968406029698
 20
38.02014698508805
 10
1413.7674076561618
 20
35.730462927032306
  0
LWPOLYLINE
  5
40
330
17
100
AcDbEntity
  8
K
100
AcDbPolyline
 90
13
 70
1
 10
2310.9815878054956
 20
166.5719165011248
 10
2313.1592772591516
 20
168.8147736439818
 10
2317.405042337932
 20
168.8147736439818
 10
2318.79210568421
 20
167.38620221541046
 10
2332.6627391469874
 20
167.38620221541046
 10
2335.394578319569
 20
164.57261233872944
 10
2336.754097879402
 20
165.97281572884336
 10
2338.976986122288
 20
165.20967955792565
 10
2338.2414555174946
 20
161.42197220603083
 10
2335.414691414171
 20
162.8776499312612
 10
2334.0482241327127
 20
161.47029090789155
 10
2315.2383191653194
 20
162.1878018058105
 10
2310.9815878054956
 20
166.5719165011248
  0
LWPOLYLINE
  5
41
330
17
100
AcDbEntity
  8
K
100
AcDbPolyline
 90
32
 70
1
 10
2286.0538295267093
 20
169.38849889306516
 10
2286.0538295267093
 20
170.81707032163652
 10
2280.5148316225627
 20
176.5218235832784
 10
2279.1277682762848
 20
182.23610929756418
 10
2274.943647019473
 20
186.5454410214542
 10
2275.6781122430907
 20
188.8147736439818
 10
2309.082662260266
 20
188.8147736439818
 10
2310.4697256065438
 20
187.38620221541046
 10
2313.1592772591516
 20
187.38620221541046
 10
2314.5463406054296
 20
188.8147736439818
 10
2317.405042337932
 20
188.8147736439818
 10
2318.7498181642363
 20
187.42975519587213
 10
2320.0945939905405
 20
188.8147736439818
 10
2324.3403590693206
 20
188.8147736439818
 10
2325.7274224155985
 20
187.38620221541046
 10
2332.6627391469874
 20
187.38620221541046
 10
2334.80104664643
 20
185.18390553775578
 10
2334.80104664643
 20
176.51392212289707
 10
2328.4858483707253
 20
172.90048792969625
 10
2320.1126457543714
 20
172.90048792969625
 10
2311.834614527449
 20
177.16336421697542
 10
2310.42743808657
 20
175.71407780637747
 10
2308.998087220318
 20
177.18620221541047
 10
2303.534408875155
 20
177.18620221541047
 10
2300.7179946626256
 20
174.28550637780594
 10
2297.94386797007
 20
177.14264923494883
 10
2294.6259638262377
 20
173.7254563033228
 10
2300.124462989487
 20
169.4781743610161
 10
2300.124462989487
 20
167.95992746449406
 10
2296.584348410238
 20
164.31387441626356
 10
2288.1793369732354
 20
167.19938531186384
 10
2286.0538295267093
 20
169.38849889306516
  0
LWPOLYLINE
  5
42
330
17
100
AcDbEntity
  8
K
100
AcDbPolyline
 90
6
 70
1
 10
1880.3955132204962
 20
101.67191650112484
 10
1883.254214952999
 20
101.67191650112484
 10
1885.4319044066551
 20
99.42905935826762
 10
1883.235202195094
 20
97.16662049782387
 10
1878.1853457472232
 20
99.39560942895787
 10
1880.3955132204962
 20
101.67191650112484
  0
LWPOLYLINE
  5
43
330
17
100
AcDbEntity
  8
K
100
AcDbPolyline
 90
58
 70
1
 10
2788.7104094102874
 20
103.6749597729476
 10
2788.7104094102874
 20
129.3892454872334
 10
2787.3585868519713
 20
130.81781691580474
 10
2787.3585868519713
 20
137.96067405866185
 10
2785.39331942448
 20
140.03751830064058
 10
2774.57873895795
 20
138.60894687206925
 10
2773.2644499896505
 20
139.99785376480344
 10
2771.9625363801806
 20
138.62202483406438
 10
2763.7660428322606
 20
137.17838412039816
 10
2762.406822199904
 20
138.614773643982
 10
2752.94406429169
 20
138.614773643982
 10
2750.2404191750575
 20
141.47191650112467
 10
2747.536774058425
 20
141.47191650112467
 10
2746.184951500109
 20
142.90048792969623
 10
2742.2155784715933
 20
142.90048792969623
 10
2740.8207085900603
 20
141.42642519337477
 10
2739.4258387085274
 20
142.90048792969623
 10
2736.8082882383283
 20
142.90048792969623
 10
2735.4134183567953
 20
141.42642519337477
 10
2733.285684519321
 20
143.67495977294763
 10
2733.285684519321
 20
150.9126320079517
 10
2736.7681674638766
 20
153.12075123386992
 10
2740.8553340191233
 20
150.24127600061598
 10
2762.4844949521835
 20
148.81270457204442
 10
2766.5370257581067
 20
145.9576307868391
 10
2775.9250477830665
 20
145.9576307868391
 10
2777.2994844839122
 20
147.41010026157065
 10
2780.0031296005445
 20
145.98152883299932
 10
2781.3323380163315
 20
147.38620221541044
 10
2784.1107190162184
 20
147.38620221541044
 10
2788.121345161215
 20
144.5606509445596
 10
2790.0544735511535
 20
146.60353147546766
 10
2788.7026509928373
 20
153.7463886183248
 10
2790.0245570663055
 20
155.14334507255344
 10
2788.672734507989
 20
156.57191650112478
 10
2790.7950959245454
 20
158.814773643982
 10
2797.622051143715
 20
158.814773643982
 10
2800.2804679752885
 20
157.41010026157088
 10
2801.6637914907656
 20
158.8719610942102
 10
2805.7320646033886
 20
153.13963210219805
 10
2809.7768120341048
 20
155.98922237313096
 10
2813.2432154599805
 20
152.32601608644504
 10
2813.2432154599805
 20
149.46887322930215
 10
2814.5950380182967
 20
148.0403018007308
 10
2814.5950380182967
 20
136.61173037215923
 10
2817.298683134929
 20
133.75458751501657
 10
2817.298683134929
 20
130.8178169158045
 10
2814.5950380182967
 20
127.96067405866185
 10
2814.5950380182967
 20
123.75458751501634
 10
2815.9665043321306
 20
122.3052570691392
 10
2813.262859215498
 20
116.59097135485341
 10
2814.6327129205956
 20
115.14334507255342
 10
2811.9290678039624
 20
112.28620221541053
 10
2817.298683134929
 20
106.61173037215943
 10
2817.298683134929
 20
105.10353120151893
 10
2812.5076252599597
 20
100.04046404769218
 10
2790.792446024739
 20
101.47471684731579
 10
2788.7104094102874
 20
103.6749597729476
  0
LWPOLYLINE
  5
44
330
17
100
AcDbEntity
  8
K
100
AcDbPolyline
 90
5
 70
1
 10
2796.7836698578867
 20
149.42905935826766
 10
2793.5417883643945
 20
152.85499662194636
 10
2791.651729429219
 20
150.857630786839
 10
2794.8936109227106
 20
147.43169352316033
 10
2796.7836698578867
 20
149.42905935826766
  0
LWPOLYLINE
  5
45
330
17
100
AcDbEntity
  8
K
100
AcDbPolyline
 90
41
 70
1
 10
2506.9984533245633
 20
7.186202215410553
 10
2502.8568910031813
 20
7.186202215410553
 10
2500.175860029078
 20
10.019447026393236
 10
2497.472214912446
 20
8.590875597821901
 10
2496.0977782116
 20
10.043345072553445
 10
2486.7028627309746
 20
10.043345072553445
 10
2483.9623196927296
 20
8.59527725510123
 10
2477.7674723632285
 20
13.687042928858473
 10
2484.569214141218
 20
28.062855654840348
 10
2491.32278414327
 20
33.77245538680884
 10
2492.671706979186
 20
38.04897661561113
 10
2501.5078734388503
 20
48.82340071387259
 10
2509.7089600668255
 20
47.378951025328185
 10
2511.0520316891957
 20
45.95962736155323
 10
2542.1439505304697
 20
47.38819879012479
 10
2543.4976623991024
 20
45.95763078683901
 10
2551.522503102567
 20
45.95763078683901
 10
2552.874325660883
 20
47.38620221541056
 10
2562.34530753358
 20
47.38620221541056
 10
2567.797095299388
 20
51.70718438996946
 10
2569.915154963053
 20
49.46887322930182
 10
2569.915154963053
 20
46.61173037215916
 10
2571.2669775213694
 20
45.1831589435876
 10
2571.2669775213694
 20
15.103531201519083
 10
2567.834666017882
 20
11.47635238453959
 10
2554.230540630532
 20
10.038703284847461
 10
2552.9173729841
 20
11.42642519337489
 10
2550.2567751906836
 20
8.61477364398211
 10
2547.5531300740513
 20
8.61477364398211
 10
2546.1969151044027
 20
7.18156042770457
 10
2532.6786895212404
 20
8.610131856276126
 10
2531.331259374256
 20
7.186202215410553
 10
2527.1896970528746
 20
7.186202215410553
 10
2525.8809218177744
 20
8.56928233623222
 10
2524.572146582675
 20
7.186202215410553
 10
2521.8006590384543
 20
7.186202215410553
 10
2519.1422422068804
 20
8.590875597821901
 10
2516.4563214133755
 20
5.752463351035075
 10
2510.2872655173687
 20
6.476830033307568
 10
2508.307228559663
 20
8.56928233623222
 10
2506.9984533245633
 20
7.186202215410553
  0
LWPOLYLINE
  5
46
330
17
100
AcDbEntity
  8
K
100
AcDbPolyline
 90
5
 70
1
 10
2488.0138723234854
 20
18.586209601611834
 10
2484.806409555568
 20
16.552470939567243
 10
2486.6940854880368
 20
14.55762340063771
 10
2489.901548255954
 20
16.591362062682524
 10
2488.0138723234854
 20
18.586209601611834
  0
LWPOLYLINE
  5
47
330
17
100
AcDbEntity
  8
K
100
AcDbPolyline
 90
23
 70
1
 10
2442.036234642129
 20
28.614773643981906
 10
2437.98076696718
 20
31.471916501124795
 10
2433.9252992922316
 20
31.471916501124795
 10
2429.8586106129646
 20
34.33696473809245
 10
2419.0338722418924
 20
37.19679124852138
 10
2417.6920698292574
 20
38.61477364398191
 10
2413.636602154308
 20
38.61477364398191
 10
2411.5491910233527
 20
40.820696220891236
 10
2412.905930568123
 20
60.89344225436166
 10
2417.725507338139
 20
67.44184892862259
 10
2419.1299870340063
 20
65.95763078683903
 10
2428.524902514632
 20
65.95763078683903
 10
2431.2737759163233
 20
67.41010026157079
 10
2435.3406508919234
 20
63.11233103292979
 10
2440.7479411251884
 20
64.54090246150113
 10
2446.123390877115
 20
58.8602649517318
 10
2447.432166112215
 20
60.24334507255325
 10
2450.206043939682
 20
60.24334507255325
 10
2456.3651136312596
 20
56.62737453056188
 10
2455.008641433999
 20
30.8246436697317
 10
2451.563289151443
 20
25.727299700494257
 10
2446.0985957727435
 20
28.614773643981906
 10
2442.036234642129
 20
28.614773643981906
  0
LWPOLYLINE
  5
48
330
17
100
AcDbEntity
  8
K
100
AcDbPolyline
 90
79
 70
1
 10
5104.009150879436
 20
20.82358609006496
 10
5104.009150879436
 20
27.98046566738277
 10
5102.8015920840535
 20
30.875115715827572
 10
5105.850217451139
 20
34.529059358267666
 10
5111.809777206319
 20
34.529059358267666
 10
5113.001689157355
 20
35.957630786839225
 10
5127.304632569787
 20
35.957630786839225
 10
5132.0658966915125
 20
41.664265309856454
 10
5140.409280348766
 20
43.092836738428005
 10
5141.607575982221
 20
44.52905935826767
 10
5146.375223786365
 20
44.52905935826767
 10
5147.5671357374
 20
45.95763078683901
 10
5149.950959639474
 20
45.95763078683901
 10
5152.381584896396
 20
48.87086761829007
 10
5154.765408798468
 20
46.01372476114718
 10
5155.957320749504
 20
47.44229618971873
 10
5157.149232700541
 20
46.01372476114718
 10
5159.998777386707
 20
49.42905935826758
 10
5157.149232700541
 20
52.84439395538798
 10
5155.957320749504
 20
51.41582252681665
 10
5154.743431154947
 20
52.87073535885733
 10
5152.359607252875
 20
51.442163930286
 10
5149.950959639474
 20
54.329059358267706
 10
5138.106311263102
 20
54.329059358267706
 10
5135.67283993837
 20
52.87073535885733
 10
5131.423125753266
 20
57.964249405056954
 10
5131.423125753266
 20
78.03672645433556
 10
5134.9686264149495
 20
82.2862022154105
 10
5131.423125753266
 20
86.53567797648564
 10
5131.423125753266
 20
93.75101216862136
 10
5134.456104276004
 20
97.3862022154106
 10
5136.933530887779
 20
97.3862022154106
 10
5138.125442838815
 20
95.95763078683905
 10
5147.6607384471035
 20
95.95763078683905
 10
5148.852650398139
 20
94.5290593582675
 10
5153.626311204767
 20
94.5290593582675
 10
5159.062299586228
 20
86.56588030226531
 10
5157.872949397304
 20
85.14037928519436
 10
5169.751689318003
 20
69.47933042354992
 10
5173.32651418972
 20
60.91008557380428
 10
5181.034273076113
 20
51.67191650112479
 10
5184.590877353508
 20
51.67191650112479
 10
5191.7806122111515
 20
47.363271979310674
 10
5194.792465116626
 20
43.7534021360888
 10
5195.984739207406
 20
22.31832004423473
 10
5200.06814084418
 20
16.02580368110962
 10
5204.759777811419
 20
21.648986265024874
 10
5209.565688766989
 20
24.52905935826766
 10
5219.081852799564
 20
24.52905935826766
 10
5220.273764750601
 20
25.95763078683899
 10
5225.140025435098
 20
25.95763078683899
 10
5231.743729640295
 20
16.60365880418069
 10
5231.743729640295
 20
15.107106547914029
 10
5223.918279602082
 20
5.727878216000182
 10
5219.100984375278
 20
8.61477364398211
 10
5203.595459563256
 20
8.61477364398211
 10
5198.876463520564
 20
12.856754089100475
 10
5194.14530453751
 20
7.186202215410553
 10
5188.092142072626
 20
7.186202215410553
 10
5186.947031476443
 20
8.558679669673941
 10
5185.801920880258
 20
7.186202215410553
 10
5176.266625271969
 20
7.186202215410553
 10
5175.049889609603
 20
5.727878216000182
 10
5172.666065707532
 20
7.1564496445717385
 10
5171.498977467824
 20
5.757630786838996
 10
5160.678167198797
 20
5.757630786838996
 10
5159.533056602613
 20
7.130108241102384
 10
5158.387946006428
 20
5.757630786838996
 10
5151.236474300212
 20
5.757630786838996
 10
5150.044562349175
 20
4.329059358267662
 10
5142.893090642959
 20
4.329059358267662
 10
5141.676354980594
 20
2.8707353588575124
 10
5139.242883655862
 20
4.329059358267662
 10
5130.973971132598
 20
4.329059358267662
 10
5129.7820591815625
 20
2.900487929696327
 10
5122.630587475347
 20
2.900487929696327
 10
5121.428905607733
 20
1.4602067236797467
 10
5118.354425615068
 20
2.197193087717597
 10
5104.009150879436
 20
20.82358609006496
  0
LWPOLYLINE
  5
49
330
17
100
AcDbEntity
  8
K
100
AcDbPolyline
 90
5
 70
1
 10
5222.716291397354
 20
97.42803172542081
 10
5225.814405076539
 20
93.71477364398206
 10
5222.716291397354
 20
90.00151556254332
 10
5218.378932246497
 20
93.71477364398206
 10
5222.716291397354
 20
97.42803172542081
  0
LWPOLYLINE
  5
4A
330
17
100
AcDbEntity
  8
K
100
AcDbPolyline
 90
6
 70
1
 10
6899.355455007519
 20
115.18356795502326
 10
6901.535371999588
 20
117.45495231361214
 10
6905.061983393073
 20
110.84069957976061
 10
6902.883064165511
 20
108.57035485098665
 10
6899.355455007519
 20
112.24597933294066
 10
6899.355455007519
 20
115.18356795502326
  0
LWPOLYLINE
  5
4B
330
17
100
AcDbEntity
  8
K
100
AcDbPolyline
 90
115
 70
1
 10
7064.666216422798
 20
18.602016396132683
 10
7056.4117426891735
 20
22.90242842905421
 10
7038.591286321759
 20
24.330750488426034
 10
7028.997767747747
 20
28.614773643981906
 10
7018.008101800824
 20
28.614773643981906
 10
7015.308644547694
 20
31.427497708129472
 10
7013.957858586221
 20
30.020033976322136
 10
7011.195513558102
 20
31.45915925327558
 10
7008.433168529982
 20
30.020033976322136
 10
7007.062124866785
 20
31.44860540489347
 10
7004.320037540389
 20
30.020033976322136
 10
7002.145126617631
 20
32.286202215410455
 10
7003.516170280828
 20
33.714773643982014
 10
7001.555577842456
 20
35.75763078683924
 10
6998.89875066259
 20
35.75763078683924
 10
6994.742989599733
 20
31.427497708129472
 10
6991.969360362212
 20
34.3175059467673
 10
6986.485185709423
 20
32.88893451819575
 10
6985.103053884088
 20
34.329059358267685
 10
6978.247835568101
 20
34.329059358267685
 10
6976.133900146569
 20
36.53169361865483
 10
6976.133900146569
 20
42.24597933294061
 10
6974.765573206766
 20
43.671720046834835
 10
6973.395422001233
 20
63.65870138538776
 10
6965.92093139029
 20
68.61477364398195
 10
6961.806617606077
 20
68.61477364398195
 10
6957.693486616485
 20
71.47191650112484
 10
6953.576246488832
 20
71.47191650112484
 10
6947.294532083183
 20
76.5626972401321
 10
6950.849334675693
 20
80.26665616878459
 10
6953.591422002088
 20
78.83808474021325
 10
6955.544147442732
 20
80.87274479315565
 10
6953.553869006076
 20
84.32905935826773
 10
6942.60070032497
 20
84.32905935826773
 10
6941.2237852812
 20
85.76374852528623
 10
6931.62647963882
 20
87.19231995385756
 10
6930.3039374294585
 20
88.57035485098663
 10
6928.3859750643505
 20
86.57191650112495
 10
6931.146826796099
 20
83.695221900969
 10
6927.5663667842255
 20
81.45680615474448
 10
6913.818992157358
 20
88.61890723765708
 10
6905.575719103307
 20
90.05043280695291
 10
6902.862806463786
 20
92.87717683346486
 10
6900.1207191373915
 20
91.44860540489353
 10
6896.613367681124
 20
95.10312219008354
 10
6896.613367681124
 20
106.61213938359482
 10
6900.1207191373915
 20
110.26665616878483
 10
6902.862806463786
 20
108.83808474021328
 10
6904.801026530619
 20
110.85763078683897
 10
6903.4685859971105
 20
112.24597933294066
 10
6903.4685859971105
 20
115.09457887326357
 10
6897.98712491356
 20
119.37817258784533
 10
6896.611072678817
 20
143.75260522790234
 10
6898.7699331759195
 20
146.00204957983442
 10
6900.183606912381
 20
144.52905935826777
 10
6905.667781565171
 20
144.52905935826777
 10
6908.409868891566
 20
141.67191650112466
 10
6915.265087207552
 20
141.67191650112466
 10
6916.640738455706
 20
140.23854415745473
 10
6928.980131424482
 20
138.8099727288834
 10
6931.721401613122
 20
135.95368129586416
 10
6946.793732185775
 20
134.52597656153696
 10
6956.3631715908305
 20
127.40385904704543
 10
6961.858199384722
 20
130.26665616878486
 10
6965.365550840991
 20
126.61213938359461
 10
6965.365550840991
 20
110.81740790436912
 10
6963.251615419459
 20
108.61477364398198
 10
6953.56904963055
 20
108.61477364398198
 10
6952.198005967352
 20
110.04334507255354
 10
6941.229656661772
 20
110.04334507255354
 10
6939.914215736757
 20
111.41398072179953
 10
6936.602109186837
 20
106.58246931362747
 10
6939.901243071839
 20
103.1449067226915
 10
6941.272286735038
 20
104.57347815126306
 10
6943.473783059299
 20
102.27960901101119
 10
6935.247521080116
 20
95.13675186815406
 10
6937.206393403666
 20
93.09568701459759
 10
6949.545786372442
 20
91.66711558602626
 10
6950.912222450683
 20
90.2433450725535
 10
6960.432458879085
 20
90.2433450725535
 10
6965.960673082719
 20
94.56347491651363
 10
6967.364746409051
 20
93.10048792969616
 10
6971.477877398643
 20
93.10048792969616
 10
6974.219964725037
 20
90.2433450725535
 10
6986.536732803297
 20
90.2433450725535
 10
6993.379329611525
 20
87.39146265338316
 10
6998.887662500451
 20
88.82632705548232
 10
7000.269794325787
 20
87.38620221541038
 10
7015.351274620958
 20
87.38620221541038
 10
7021.578341032082
 20
80.89785366930901
 10
7021.578341032082
 20
76.53169361865486
 10
7020.245900498573
 20
75.14334507255339
 10
7022.969530783838
 20
72.30543369747089
 10
7021.576677639
 20
69.40284166437571
 10
7020.204375259084
 20
50.81436318545718
 10
7018.874856835375
 20
49.42905935826758
 10
7022.206492936944
 20
45.95763078683901
 10
7026.308317930193
 20
45.95763078683901
 10
7030.421448919785
 20
43.10048792969634
 10
7034.534579909377
 20
43.10048792969634
 10
7042.7698484103685
 20
37.37994593047422
 10
7049.635446504365
 20
35.94921144106134
 10
7050.998409864088
 20
34.529059358267666
 10
7055.1002348573365
 20
34.529059358267666
 10
7059.213365846928
 20
31.671916501124777
 10
7063.32649683652
 20
31.671916501124777
 10
7067.439627826112
 20
28.814773643981884
 10
7071.5558738795
 20
28.814773643981884
 10
7077.040048532289
 20
24.52905935826766
 10
7079.777838000268
 20
24.52905935826766
 10
7087.421947089604
 20
19.460519042776127
 10
7085.283643050829
 20
15.747143437765398
 10
7068.729915023791
 20
18.62186137838129
 10
7067.3880460474675
 20
20.020033976322125
 10
7064.666216422798
 20
18.602016396132683
  0
LWPOLYLINE
  5
4C
330
17
100
AcDbEntity
  8
K
100
AcDbPolyline
 90
5
 70
1
 10
6930.850856131369
 20
99.42905935826762
 10
6928.932893766261
 20
101.42749770812954
 10
6927.014931401153
 20
99.42905935826762
 10
6928.932893766261
 20
97.43062100840594
 10
6930.850856131369
 20
99.42905935826762
  0
LWPOLYLINE
  5
4D
330
17
100
AcDbEntity
  8
K
100
AcDbPolyline
 90
32
 70
1
 10
7055.023943168153
 20
95.76006640688317
 10
7030.3451572306
 20
97.18863783545473
 10
7028.976451106403
 20
98.61477364398196
 10
7023.492276453613
 20
98.61477364398196
 10
7021.368349918712
 20
100.82781823591702
 10
7022.758468259454
 20
106.6216040859953
 10
7026.876391921898
 20
110.91231214082575
 10
7029.618479248293
 20
118.05516928368287
 10
7035.088777664055
 20
123.75499652645172
 10
7035.088777664055
 20
126.59466781988304
 10
7037.847632984149
 20
132.34389666159174
 10
7044.04505219365
 20
138.801354036018
 10
7048.1526049079075
 20
140.22798801966397
 10
7053.648570467125
 20
147.38620221541044
 10
7055.026280707152
 20
147.38620221541044
 10
7061.908242719334
 20
154.55692519602704
 10
7065.43310870059
 20
152.35326547364193
 10
7068.193825580791
 20
145.16188024774746
 10
7068.193825580791
 20
140.89785366930906
 10
7070.928544003767
 20
138.0483889081794
 10
7073.670631330161
 20
123.76267462246516
 10
7075.049043896778
 20
122.32642509788039
 10
7075.049043896778
 20
118.04071081216594
 10
7076.458690689663
 20
116.57191650112475
 10
7075.0757152855995
 20
115.13091268651677
 10
7080.52930458398
 20
106.60728714785984
 10
7081.898919779756
 20
96.61770598031194
 10
7083.2994036318405
 20
95.15845907886988
 10
7081.174876355911
 20
91.46900817967251
 10
7066.710026330302
 20
92.18671209349804
 10
7056.389244066875
 20
94.33747870404541
 10
7055.023943168153
 20
95.76006640688317
  0
ENDSEC
  0
SECTION
  2
OBJECTS
  0
DICTIONARY
  5
A
330
0
100
AcDbDictionary
281
1
  3
ACAD_COLOR
350
B
  3
ACAD_GROUP
350
C
  3
ACAD_LAYOUT
350
D
  3
ACAD_MATERIAL
350
E
  3
ACAD_MLEADERSTYLE
350
F
  3
ACAD_MLINESTYLE
350
10
  3
ACAD_PLOTSETTINGS
350
11
  3
ACAD_PLOTSTYLENAME
350
12
  3
ACAD_SCALELIST
350
14
  3
ACAD_TABLESTYLE
350
15
  3
ACAD_VISUALSTYLE
350
16
  3
EZDXF_META
350
2D
  0
DICTIONARY
  5
B
330
A
100
AcDbDictionary
281
1
  0
DICTIONARY
  5
C
330
A
100
AcDbDictionary
281
1
  0
DICTIONARY
  5
D
330
A
100
AcDbDictionary
281
1
  3
Model
350
1A
  3
Layout1
350
1E
  0
DICTIONARY
  5
E
330
A
100
AcDbDictionary
281
1
  3
ByBlock
350
1F
  3
ByLayer
350
20
  3
Global
350
21
  0
DICTIONARY
  5
F
330
A
100
AcDbDictionary
281
1
  3
Standard
350
2C
  0
DICTIONARY
  5
10
330
A
100
AcDbDictionary
281
1
  3
Standard
350
22
  0
DICTIONARY
  5
11
330
A
100
AcDbDictionary
281
1
  0
ACDBDICTIONARYWDFLT
  5
12
330
A
100
AcDbDictionary
281
1
  3
Normal
350
13
100
AcDbDictionaryWithDefault
340
13
  0
ACDBPLACEHOLDER
  5
13
330
12
  0
DICTIONARY
  5
14
330
A
100
AcDbDictionary
281
1
  0
DICTIONARY
  5
15
330
A
100
AcDbDictionary
281
1
  0
DICTIONARY
  5
16
330
A
100
AcDbDictionary
281
1
  0
LAYOUT
  5
1A
330
D
100
AcDbPlotSettings
  1

  4
A3
  6

 40
7.5
 41
20.0
 42
7.5
 43
20.0
 44
420.0
 45
297.0
 46
0.0
 47
0.0
 48
0.0
 49
0.0
140
0.0
141
0.0
142
1.0
143
1.0
 70
1024
 72
1
 73
0
 74
5
  7

 75
16
 76
0
 77
2
 78
300
147
1.0
148
0.0
149
0.0
100
AcDbLayout
  1
Model
 70
1
 71
0
 10
0.0
 20
0.0
 11
420.0
 21
297.0
 12
0.0
 22
0.0
 32
0.0
 14
1e+20
 24
1e+20
 34
1e+20
 15
-1e+20
 25
-1e+20
 35
-1e+20
146
0.0
 13
0.0
 23
0.0
 33
0.0
 16
1.0
 26
0.0
 36
0.0
 17
0.0
 27
1.0
 37
0.0
 76
1
330
17
  0
LAYOUT
  5
1E
330
D
100
AcDbPlotSettings
  1

  4
A3
  6

 40
7.5
 41
20.0
 42
7.5
 43
20.0
 44
420.0
 45
297.0
 46
0.0
 47
0.0
 48
0.0
 49
0.0
140
0.0
141
0.0
142
1.0
143
1.0
 70
0
 72
1
 73
0
 74
5
  7

 75
16
 76
0
 77
2
 78
300
147
1.0
148
0.0
149
0.0
100
AcDbLayout
  1
Layout1
 70
1
 71
1
 10
0.0
 20
0.0
 11
420.0
 21
297.0
 12
0.0
 22
0.0
 32
0.0
 14
1e+20
 24
1e+20
 34
1e+20
 15
-1e+20
 25
-1e+20
 35
-1e+20
146
0.0
 13
0.0
 23
0.0
 33
0.0
 16
1.0
 26
0.0
 36
0.0
 17
0.0
 27
1.0
 37
0.0
 76
1
330
1B
  0
MATERIAL
  5
1F
102
{ACAD_REACTORS
330
E
102
}
330
E
100
AcDbMaterial
  1
ByBlock
  2

 70
0
 40
1.0
 71
1
 41
1.0
 91
-1023410177
 42
1.0
 72
1
  3

 73
1
 74
1
 75
1
 44
0.5
 73
0
 45
1.0
 46
1.0
 77
1
  4

 78
1
 79
1
170
1
 48
1.0
171
1
  6

172
1
173
1
174
1
140
1.0
141
1.0
175
1
  7

176
1
177
1
178
1
143
1.0
179
1
  8

270
1
271
1
272
1
145
1.0
146
1.0
273
1
  9

274
1
275
1
276
1
 42
1.0
 72
1
  3

 73
1
 74
1
 75
1
 94
63
  0
MATERIAL
  5
20
102
{ACAD_REACTORS
330
E
102
}
330
E
100
AcDbMaterial
  1
ByLayer
  2

 70
0
 40
1.0
 71
1
 41
1.0
 91
-1023410177
 42
1.0
 72
1
  3

 73
1
 74
1
 75
1
 44
0.5
 73
0
 45
1.0
 46
1.0
 77
1
  4

 78
1
 79
1
170
1
 48
1.0
171
1
  6

172
1
173
1
174
1
140
1.0
141
1.0
175
1
  7

176
1
177
1
178
1
143
1.0
179
1
  8

270
1
271
1
272
1
145
1.0
146
1.0
273
1
  9

274
1
275
1
276
1
 42
1.0
 72
1
  3

 73
1
 74
1
 75
1
 94
63
  0
MATERIAL
  5
21
102
{ACAD_REACTORS
330
E
102
}
330
E
100
AcDbMaterial
  1
Global
  2

 70
0
 40
1.0
 71
1
 41
1.0
 91
-1023410177
 42
1.0
 72
1
  3

 73
1
 74
1
 75
1
 44
0.5
 73
0
 45
1.0
 46
1.0
 77
1
  4

 78
1
 79
1
170
1
 48
1.0
171
1
  6

172
1
173
1
174
1
140
1.0
141
1.0
175
1
  7

176
1
177
1
178
1
143
1.0
179
1
  8

270
1
271
1
272
1
145
1.0
146
1.0
273
1
  9

274
1
275
1
276
1
 42
1.0
 72
1
  3

 73
1
 74
1
 75
1
 94
63
  0
MLINESTYLE
  5
22
102
{ACAD_REACTORS
330
10
102
}
330
10
100
AcDbMlineStyle
  2
Standard
 70
0
  3

 62
256
 51
90.0
 52
90.0
 71
2
 49
0.5
 62
256
  6
BYLAYER
 49
-0.5
 62
256
  6
BYLAYER
  0
MLEADERSTYLE
  5
2C
102
{ACAD_REACTORS
330
F
102
}
330
F
100
AcDbMLeaderStyle
179
2
170
2
171
1
172
0
 90
2
 40
0.0
 41
0.0
173
1
 91
-1056964608
 92
-2
290
1
 42
2.0
291
1
 43
8.0
  3
Standard
 44
4.0
300

342
29
174
1
175
1
176
0
178
1
 93
-1056964608
 45
4.0
292
0
297
0
 46
4.0
 94
-1056964608
 47
1.0
 49
1.0
140
1.0
294
1
141
0.0
177
0
142
1.0
295
0
296
0
143
3.75
271
0
272
9
273
9
  0
DICTIONARY
  5
2D
330
A
100
AcDbDictionary
280
1
281
1
  3
CREATED_BY_EZDXF
350
2E
  3
WRITTEN_BY_EZDXF
350
50
  0
DICTIONARYVAR
  5
2E
330
2D
100
DictionaryVariables
280
0
  1
1.4.4 @ 2026-07-20T15:51:10.282211+00:00
  0
DICTIONARYVAR
  5
50
330
2D
100
DictionaryVariables
280
0
  1
1.4.4 @ 2026-07-20T15:51:10.294614+00:00
  0
ENDSEC
  0
EOF
