  0
SECTION
  2
HEADER
  9
$ACADVER
  1
AC1027
  9
$ACADMAINTVER
 70
105
  9
$DWGCODEPAGE
  3
ANSI_1252
  9
$LASTSAVEDBY
  1
ezdxf
  9
$REQUIREDVERSIONS
160
0
  9
$INSBASE
 10
0.0
 20
0.0
 30
0.0
  9
$EXTMIN
 10
1e+20
 20
1e+20
 30
1e+20
  9
$EXTMAX
 10
-1e+20
 20
-1e+20
 30
-1e+20
  9
$LIMMIN
 10
0.0
 20
0.0
  9
$LIMMAX
 10
420.0
 20
297.0
  9
$ORTHOMODE
 70
0
  9
$REGENMODE
 70
1
  9
$FILLMODE
 70
1
  9
$QTEXTMODE
 70
0
  9
$MIRRTEXT
 70
1
  9
$LTSCALE
 40
1.0
  9
$ATTMODE
 70
1
  9
$TEXTSIZE
 40
2.5
  9
$TRACEWID
 40
1.0
  9
$TEXTSTYLE
  7
Standard
  9
$CLAYER
  8
0
  9
$CELTYPE
  6
ByLayer
  9
$CECOLOR
 62
256
  9
$CELTSCALE
 40
1.0
  9
$DISPSILH
 70
0
  9
$DIMSCALE
 40
1.0
  9
$DIMASZ
 40
2.5
  9
$DIMEXO
 40
0.625
  9
$DIMDLI
 40
3.75
  9
$DIMRND
 40
0.0
  9
$DIMDLE
 40
0.0
  9
$DIMEXE
 40
1.25
  9
$DIMTP
 40
0.0
  9
$DIMTM
 40
0.0
  9
$DIMTXT
 40
2.5
  9
$DIMCEN
 40
2.5
  9
$DIMTSZ
 40
0.0
  9
$DIMTOL
 70
0
  9
$DIMLIM
 70
0
  9
$DIMTIH
 70
0
  9
$DIMTOH
 70
0
  9
$DIMSE1
 70
0
  9
$DIMSE2
 70
0
  9
$DIMTAD
 70
1
  9
$DIMZIN
 70
8
  9
$DIMBLK
  1

  9
$DIMASO
 70
1
  9
$DIMSHO
 70
1
  9
$DIMPOST
  1

  9
$DIMAPOST
  1

  9
$DIMALT
 70
0
  9
$DIMALTD
 70
3
  9
$DIMALTF
 40
0.03937007874
  9
$DIMLFAC
 40
1.0
  9
$DIMTOFL
 70
1
  9
$DIMTVP
 40
0.0
  9
$DIMTIX
 70
0
  9
$DIMSOXD
 70
0
  9
$DIMSAH
 70
0
  9
$DIMBLK1
  1

  9
$DIMBLK2
  1

  9
$DIMSTYLE
  2
ISO-25
  9
$DIMCLRD
 70
0
  9
$DIMCLRE
 70
0
  9
$DIMCLRT
 70
0
  9
$DIMTFAC
 40
1.0
  9
$DIMGAP
 40
0.625
  9
$DIMJUST
 70
0
  9
$DIMSD1
 70
0
  9
$DIMSD2
 70
0
  9
$DIMTOLJ
 70
0
  9
$DIMTZIN
 70
8
  9
$DIMALTZ
 70
0
  9
$DIMALTTZ
 70
0
  9
$DIMUPT
 70
0
  9
$DIMDEC
 70
2
  9
$DIMTDEC
 70
2
  9
$DIMALTU
 70
2
  9
$DIMALTTD
 70
3
  9
$DIMTXSTY
  7
Standard
  9
$DIMAUNIT
 70
0
  9
$DIMADEC
 70
0
  9
$DIMALTRND
 40
0.0
  9
$DIMAZIN
 70
0
  9
$DIMDSEP
 70
44
  9
$DIMATFIT
 70
3
  9
$DIMFRAC
 70
0
  9
$DIMLDRBLK
  1

  9
$DIMLUNIT
 70
2
  9
$DIMLWD
 70
-2
  9
$DIMLWE
 70
-2
  9
$DIMTMOVE
 70
0
  9
$DIMFXL
 40
1.0
  9
$DIMFXLON
 70
0
  9
$DIMJOGANG
 40
0.785398163397
  9
$DIMTFILL
 70
0
  9
$DIMTFILLCLR
 70
0
  9
$DIMARCSYM
 70
0
  9
$DIMLTYPE
  6

  9
$DIMLTEX1
  6

  9
$DIMLTEX2
  6

  9
$DIMTXTDIRECTION
 70
0
  9
$LUNITS
 70
2
  9
$LUPREC
 70
4
  9
$SKETCHINC
 40
1.0
  9
$FILLETRAD
 40
10.0
  9
$AUNITS
 70
0
  9
$AUPREC
 70
2
  9
$MENU
  1
.
  9
$ELEVATION
 40
0.0
  9
$PELEVATION
 40
0.0
  9
$THICKNESS
 40
0.0
  9
$LIMCHECK
 70
0
  9
$CHAMFERA
 40
0.0
  9
$CHAMFERB
 40
0.0
  9
$CHAMFERC
 40
0.0
  9
$CHAMFERD
 40
0.0
  9
$SKPOLY
 70
0
  9
$TDCREATE
 40
2461243.4827199075
  9
$TDUCREATE
 40
2458532.153996898
  9
$TDUPDATE
 40
2461243.4827199075
  9
$TDUUPDATE
 40
2458532.1544311
  9
$TDINDWG
 40
0.0
  9
$TDUSRTIMER
 40
0.0
  9
$USRTIMER
 70
1
  9
$ANGBASE
 50
0.0
  9
$ANGDIR
 70
0
  9
$PDMODE
 70
0
  9
$PDSIZE
 40
0.0
  9
$PLINEWID
 40
0.0
  9
$SPLFRAME
 70
0
  9
$SPLINETYPE
 70
6
  9
$SPLINESEGS
 70
8
  9
$HANDSEED
  5
40
  9
$SURFTAB1
 70
6
  9
$SURFTAB2
 70
6
  9
$SURFTYPE
 70
6
  9
$SURFU
 70
6
  9
$SURFV
 70
6
  9
$UCSBASE
  2

  9
$UCSNAME
  2

  9
$UCSORG
 10
0.0
 20
0.0
 30
0.0
  9
$UCSXDIR
 10
1.0
 20
0.0
 30
0.0
  9
$UCSYDIR
 10
0.0
 20
1.0
 30
0.0
  9
$UCSORTHOREF
  2

  9
$UCSORTHOVIEW
 70
0
  9
$UCSORGTOP
 10
0.0
 20
0.0
 30
0.0
  9
$UCSORGBOTTOM
 10
0.0
 20
0.0
 30
0.0
  9
$UCSORGLEFT
 10
0.0
 20
0.0
 30
0.0
  9
$UCSORGRIGHT
 10
0.0
 20
0.0
 30
0.0
  9
$UCSORGFRONT
 10
0.0
 20
0.0
 30
0.0
  9
$UCSORGBACK
 10
0.0
 20
0.0
 30
0.0
  9
$PUCSBASE
  2

  9
$PUCSNAME
  2

  9
$PUCSORG
 10
0.0
 20
0.0
 30
0.0
  9
$PUCSXDIR
 10
1.0
 20
0.0
 30
0.0
  9
$PUCSYDIR
 10
0.0
 20
1.0
 30
0.0
  9
$PUCSORTHOREF
  2

  9
$PUCSORTHOVIEW
 70
0
  9
$PUCSORGTOP
 10
0.0
 20
0.0
 30
0.0
  9
$PUCSORGBOTTOM
 10
0.0
 20
0.0
 30
0.0
  9
$PUCSORGLEFT
 10
0.0
 20
0.0
 30
0.0
  9
$PUCSORGRIGHT
 10
0.0
 20
0.0
 30
0.0
  9
$PUCSORGFRONT
 10
0.0
 20
0.0
 30
0.0
  9
$PUCSORGBACK
 10
0.0
 20
0.0
 30
0.0
  9
$USERI1
 70
0
  9
$USERI2
 70
0
  9
$USERI3
 70
0
  9
$USERI4
 70
0
  9
$USERI5
 70
0
  9
$USERR1
 40
0.0
  9
$USERR2
 40
0.0
  9
$USERR3
 40
0.0
  9
$USERR4
 40
0.0
  9
$USERR5
 40
0.0
  9
$WORLDVIEW
 70
1
  9
$SHADEDGE
 70
3
  9
$SHADEDIF
 70
70
  9
$TILEMODE
 70
1
  9
$MAXACTVP
 70
64
  9
$PINSBASE
 10
0.0
 20
0.0
 30
0.0
  9
$PLIMCHECK
 70
0
  9
$PEXTMIN
 10
1e+20
 20
1e+20
 30
1e+20
  9
$PEXTMAX
 10
-1e+20
 20
-1e+20
 30
-1e+20
  9
$PLIMMIN
 10
0.0
 20
0.0
  9
$PLIMMAX
 10
420.0
 20
297.0
  9
$UNITMODE
 70
0
  9
$VISRETAIN
 70
1
  9
$PLINEGEN
 70
0
  9
$PSLTSCALE
 70
1
  9
$TREEDEPTH
 70
3020
  9
$CMLSTYLE
  2
Standard
  9
$CMLJUST
 70
0
  9
$CMLSCALE
 40
20.0
  9
$PROXYGRAPHICS
 70
1
  9
$MEASUREMENT
 70
1
  9
$CELWEIGHT
370
-1
  9
$ENDCAPS
280
0
  9
$JOINSTYLE
280
0
  9
$LWDISPLAY
290
0
  9
$INSUNITS
 70
4
  9
$HYPERLINKBASE
  1

  9
$STYLESHEET
  1

  9
$XEDIT
290
1
  9
$CEPSNTYPE
380
0
  9
$PSTYLEMODE
290
1
  9
$FINGERPRINTGUID
  2
{CF4EB44C-55DF-4A15-8EFD-9DDD782DAC68}
  9
$VERSIONGUID
  2
{327881CA-4F38-46E8-B9F3-BA645472A01D}
  9
$EXTNAMES
290
1
  9
$PSVPSCALE
 40
0.0
  9
$OLESTARTUP
290
0
  9
$SORTENTS
280
127
  9
$INDEXCTL
280
0
  9
$HIDETEXT
280
1
  9
$XCLIPFRAME
280
1
  9
$HALOGAP
280
0
  9
$OBSCOLOR
 70
257
  9
$OBSLTYPE
280
0
  9
$INTERSECTIONDISPLAY
280
0
  9
$INTERSECTIONCOLOR
 70
257
  9
$DIMASSOC
280
2
  9
$PROJECTNAME
  1

  9
$CAMERADISPLAY
290
0
  9
$LENSLENGTH
 40
50.0
  9
$CAMERAHEIGHT
 40
0.0
  9
$STEPSPERSEC
 40
24.0
  9
$STEPSIZE
 40
100.0
  9
$3DDWFPREC
 40
2.0
  9
$PSOLWIDTH
 40
0.005
  9
$PSOLHEIGHT
 40
0.08
  9
$LOFTANG1
 40
1.570796326795
  9
$LOFTANG2
 40
1.570796326795
  9
$LOFTMAG1
 40
0.0
  9
$LOFTMAG2
 40
0.0
  9
$LOFTPARAM
 70
7
  9
$LOFTNORMALS
280
1
  9
$LATITUDE
 40
37.795
  9
$LONGITUDE
 40
-122.394
  9
$NORTHDIRECTION
 40
0.0
  9
$TIMEZONE
 70
-8000
  9
$LIGHTGLYPHDISPLAY
280
1
  9
$TILEMODELIGHTSYNCH
280
1
  9
$CMATERIAL
347
20
  9
$SOLIDHIST
280
0
  9
$SHOWHIST
280
1
  9
$DWFFRAME
280
2
  9
$DGNFRAME
280
2
  9
$REALWORLDSCALE
290
1
  9
$INTERFERECOLOR
 62
256
  9
$CSHADOW
280
0
  9
$SHADOWPLANELOCATION
 40
0.0
  0
ENDSEC
  0
SECTION
  2
CLASSES
  0
CLASS
  1
ACDBDICTIONARYWDFLT
  2
AcDbDictionaryWithDefault
  3
ObjectDBX Classes
 90
0
 91
0
280
0
281
0
  0
CLASS
  1
SUN
  2
AcDbSun
  3
SCENEOE
 90
1153
 91
0
280
0
281
0
  0
CLASS
  1
VISUALSTYLE
  2
AcDbVisualStyle
  3
ObjectDBX Classes
 90
4095
 91
0
280
0
281
0
  0
CLASS
  1
MATERIAL
  2
AcDbMaterial
  3
ObjectDBX Classes
 90
1153
 91
0
280
0
281
0
  0
CLASS
  1
SCALE
  2
AcDbScale
  3
ObjectDBX Classes
 90
1153
 91
0
280
0
281
0
  0
CLASS
  1
TABLESTYLE
  2
AcDbTableStyle
  3
ObjectDBX Classes
 90
4095
 91
0
280
0
281
0
  0
CLASS
  1
MLEADERSTYLE
  2
AcDbMLeaderStyle
  3
ACDB_MLEADERSTYLE_CLASS
 90
4095
 91
0
280
0
281
0
  0
CLASS
  1
DICTIONARYVAR
  2
AcDbDictionaryVar
  3
ObjectDBX Classes
 90
0
 91
0
280
0
281
0
  0
CLASS
  1
CELLSTYLEMAP
  2
AcDbCellStyleMap
  3
ObjectDBX Classes
 90
1152
 91
0
280
0
281
0
  0
CLASS
  1
MENTALRAYRENDERSETTINGS
  2
AcDbMentalRayRenderSettings
  3
SCENEOE
 90
1024
 91
0
280
0
281
0
  0
CLASS
  1
ACDBDETAILVIEWSTYLE
  2
AcDbDetailViewStyle
  3
ObjectDBX Classes
 90
1025
 91
0
280
0
281
0
  0
CLASS
  1
ACDBSECTIONVIEWSTYLE
  2
AcDbSectionViewStyle
  3
ObjectDBX Classes
 90
1025
 91
0
280
0
281
0
  0
CLASS
  1
RASTERVARIABLES
  2
AcDbRasterVariables
  3
ISM
 90
0
 91
0
280
0
281
0
  0
CLASS
  1
ACDBPLACEHOLDER
  2
AcDbPlaceHolder
  3
ObjectDBX Classes
 90
0
 91
0
280
0
281
0
  0
CLASS
  1
LAYOUT
  2
AcDbLayout
  3
ObjectDBX Classes
 90
0
 91
0
280
0
281
0
  0
ENDSEC
  0
SECTION
  2
TABLES
  0
TABLE
  2
VPORT
  5
8
330
0
100
AcDbSymbolTable
 70
1
  0
VPORT
  5
23
330
8
100
AcDbSymbolTableRecord
100
AcDbViewportTableRecord
  2
*Active
 70
0
 10
0.0
 20
0.0
 11
1.0
 21
1.0
 12
0.0
 22
0.0
 13
0.0
 23
0.0
 14
0.5
 24
0.5
 15
0.5
 25
0.5
 16
0.0
 26
0.0
 36
1.0
 17
0.0
 27
0.0
 37
0.0
 40
1000.0
 41
1.34
 42
50.0
 43
0.0
 44
0.0
 50
0.0
 51
0.0
 71
0
 72
1000
 73
1
 74
3
 75
0
 76
0
 77
0
 78
0
281
0
 65
0
146
0.0
  0
ENDTAB
  0
TABLE
  2
LTYPE
  5
2
330
0
100
AcDbSymbolTable
 70
3
  0
LTYPE
  5
24
330
2
100
AcDbSymbolTableRecord
100
AcDbLinetypeTableRecord
  2
ByBlock
 70
0
  3

 72
65
 73
0
 40
0.0
  0
LTYPE
  5
25
330
2
100
AcDbSymbolTableRecord
100
AcDbLinetypeTableRecord
  2
ByLayer
 70
0
  3

 72
65
 73
0
 40
0.0
  0
LTYPE
  5
26
330
2
100
AcDbSymbolTableRecord
100
AcDbLinetypeTableRecord
  2
Continuous
 70
0
  3

 72
65
 73
0
 40
0.0
  0
ENDTAB
  0
TABLE
  2
LAYER
  5
1
330
0
100
AcDbSymbolTable
 70
3
  0
LAYER
  5
27
330
1
100
AcDbSymbolTableRecord
100
AcDbLayerTableRecord
  2
0
 70
0
 62
7
  6
Continuous
370
-3
390
13
347
21
  0
LAYER
  5
28
330
1
100
AcDbSymbolTableRecord
100
AcDbLayerTableRecord
  2
Defpoints
 70
0
 62
7
  6
Continuous
290
0
370
-3
390
13
347
21
  0
LAYER
  5
2F
330
1
100
AcDbSymbolTableRecord
100
AcDbLayerTableRecord
  2
K
 70
0
 62
7
  6
Continuous
370
-3
390
13
347
21
  0
ENDTAB
  0
TABLE
  2
STYLE
  5
5
330
0
100
AcDbSymbolTable
 70
1
  0
STYLE
  5
29
330
5
100
AcDbSymbolTableRecord
100
AcDbTextStyleTableRecord
  2
Standard
 70
0
 40
0.0
 41
1.0
 50
0.0
 71
0
 42
2.5
  3
txt
  4

  0
ENDTAB
  0
TABLE
  2
VIEW
  5
7
330
0
100
AcDbSymbolTable
 70
0
  0
ENDTAB
  0
TABLE
  2
UCS
  5
6
330
0
100
AcDbSymbolTable
 70
0
  0
ENDTAB
  0
TABLE
  2
APPID
  5
3
330
0
100
AcDbSymbolTable
 70
3
  0
APPID
  5
2A
330
3
100
AcDbSymbolTableRecord
100
AcDbRegAppTableRecord
  2
ACAD
 70
0
  0
APPID
  5
3D
330
3
100
AcDbSymbolTableRecord
100
AcDbRegAppTableRecord
  2
HATCHBACKGROUNDCOLOR
 70
0
  0
APPID
  5
3E
330
3
100
AcDbSymbolTableRecord
100
AcDbRegAppTableRecord
  2
EZDXF
 70
0
  0
ENDTAB
  0
TABLE
  2
DIMSTYLE
  5
4
330
0
100
AcDbSymbolTable
 70
1
100
AcDbDimStyleTable
  0
DIMSTYLE
105
2B
330
4
100
AcDbSymbolTableRecord
100
AcDbDimStyleTableRecord
  2
Standard
 70
0
 40
1.0
 41
2.5
 42
0.625
 43
3.75
 44
1.25
 45
0.0
 46
0.0
 47
0.0
 48
0.0
 49
2.5
140
2.5
141
2.5
142
0.0
143
0.03937007874
144
1.0
145
0.0
146
1.0
147
0.625
148
0.0
 69
0
 70
0
 71
0
 72
0
 73
0
 74
0
 75
0
 76
0
 77
1
 78
8
 79
3
170
0
171
3
172
1
173
0
174
0
175
0
176
0
177
0
178
0
179
2
271
2
272
2
273
2
274
3
275
0
276
0
277
2
278
44
279
0
280
0
281
0
282
0
283
0
284
8
285
0
286
0
288
0
289
3
290
0
371
-2
372
-2
  0
ENDTAB
  0
TABLE
  2
BLOCK_RECORD
  5
9
330
0
100
AcDbSymbolTable
 70
2
  0
BLOCK_RECORD
  5
17
330
9
100
AcDbSymbolTableRecord
100
AcDbBlockTableRecord
  2
*Model_Space
340
1A
 70
0
280
1
281
0
  0
BLOCK_RECORD
  5
1B
330
9
100
AcDbSymbolTableRecord
100
AcDbBlockTableRecord
  2
*Paper_Space
340
1E
 70
0
280
1
281
0
  0
ENDTAB
  0
ENDSEC
  0
SECTION
  2
BLOCKS
  0
BLOCK
  5
18
330
17
100
AcDbEntity
  8
0
100
AcDbBlockBegin
  2
*Model_Space
 70
0
 10
0.0
 20
0.0
 30
0.0
  3
*Model_Space
  1

  0
ENDBLK
  5
19
330
17
100
AcDbEntity
  8
0
100
AcDbBlockEnd
  0
BLOCK
  5
1C
330
1B
100
AcDbEntity
  8
0
100
AcDbBlockBegin
  2
*Paper_Space
 70
0
 10
0.0
 20
0.0
 30
0.0
  3
*Paper_Space
  1

  0
ENDBLK
  5
1D
330
1B
100
AcDbEntity
  8
0
100
AcDbBlockEnd
  0
ENDSEC
  0
SECTION
  2
ENTITIES
  0
LWPOLYLINE
  5
30
330
17
100
AcDbEntity
  8
K
100
AcDbPolyline
 90
30
 70
1
 10
199.22095945952412
 20
131.44285186913785
 10
195.9007280416013
 20
136.89751777001092
 10
180.92895712925704
 20
134.16457546061477
 10
172.5871523515342
 20
139.64633288597528
 10
167.58126296596376
 20
139.64633288597528
 10
160.87684469056697
 20
145.1535336121942
 10
149.99719608493677
 20
160.27744073980065
 10
152.59153792159353
 20
164.5395737571651
 10
162.58620039754345
 20
156.32967243763474
 10
174.23502308286209
 20
178.20093135700844
 10
182.56326490016394
 20
175.46450904560928
 10
187.56605814346383
 20
186.42300853093298
 10
194.2427232471068
 20
183.68080679193676
 10
196.66666666666643
 20
187.662999552642
 10
191.66666666666654
 20
195.87728526692771
 10
194.25820458826027
 20
200.134811852403
 10
197.65287463434632
 20
197.34633288597524
 10
204.33993470175926
 20
197.34633288597524
 10
205.97593301204998
 20
194.65862137621258
 10
209.30926634538315
 20
197.3967166143078
 10
211.0066013684261
 20
194.60823764788003
 10
222.6732680350928
 20
194.60823764788003
 10
224.3399347017593
 20
191.87014240978485
 10
227.6732680350927
 20
191.87014240978485
 10
230.21706880015492
 20
187.69104115289693
 10
230.21706880015492
 20
146.55709229380764
 10
222.6795217505645
 20
136.92578217488628
 10
216.018755833013
 20
134.1901104587493
 10
212.66589458360852
 20
128.6818384061562
 10
199.22095945952412
 20
131.44285186913785
  0
LWPOLYLINE
  5
31
330
17
100
AcDbEntity
  8
K
100
AcDbPolyline
 90
28
 70
1
 10
46.739570704431024
 20
308.019419109648
 10
38.35588008648705
 20
321.7926251248417
 10
36.68921341982012
 20
330.0069108391275
 10
33.35040213348839
 20
335.49210080952986
 10
33.35040213348839
 20
341.01402234214464
 10
38.36165980788409
 20
354.7353231172755
 10
46.68373546682181
 20
365.67290826902223
 10
46.68373546682181
 20
368.4053268671826
 10
57.56086956521733
 20
386.2749043145467
 10
99.33245791783463
 20
386.2749043145467
 10
106.88373546682183
 20
376.62604966861915
 10
106.88373546682183
 20
373.8789409846588
 10
121.03325315239421
 20
347.89852405778856
 10
126.88946755295294
 20
341.0264357306021
 10
125.21060904374781
 20
329.9939369558267
 10
117.65584284547603
 20
323.09871383835633
 10
111.00660136842599
 20
323.09871383835633
 10
109.33993470175952
 20
320.360618600261
 10
94.33993470175939
 20
320.360618600261
 10
92.67326803509268
 20
317.6225233621658
 10
86.00660136842609
 20
317.6225233621658
 10
84.33993470175938
 20
314.8844281240706
 10
76.00660136842608
 20
314.8844281240706
 10
74.33993470175938
 20
312.14633288597526
 10
55.894202898550624
 20
312.14633288597526
 10
54.28373546682164
 20
314.7921008095299
 10
51.016649277074386
 20
309.4247449263738
 10
46.739570704431024
 20
308.019419109648
  0
LWPOLYLINE
  5
32
330
17
100
AcDbEntity
  8
K
100
AcDbPolyline
 90
24
 70
1
 10
1.7216428519630789
 20
105.4298243910835
 10
0.0
 20
108.25823764788001
 10
5.884154989902246
 20
117.92506370271971
 10
14.227584543958006
 20
120.66647627048077
 10
19.239627540713954
 20
126.15585669549911
 10
27.58126296596386
 20
126.15585669549911
 10
37.581262965963866
 20
134.37014240978485
 10
45.89420289855062
 20
134.37014240978485
 10
47.61706880015504
 20
137.2005649624207
 10
49.33993470175946
 20
134.37014240978485
 10
62.673268035092654
 20
134.37014240978485
 10
65.23413760031016
 20
130.162999552642
 10
60.95040213348846
 20
123.12543414286314
 10
59.22753623188404
 20
125.95585669549914
 10
55.986207967679505
 20
125.95585669549914
 10
45.98620796767949
 20
117.7415709812134
 10
39.33136599762188
 20
117.7415709812134
 10
32.66469933095528
 20
109.52728526692768
 10
27.560869565217306
 20
109.52728526692768
 10
25.9188073795672
 20
112.22495885763828
 10
17.646985248775838
 20
106.78919002883246
 10
11.006601368426129
 20
106.78919002883246
 10
9.333409558708649
 20
104.04037491286799
 10
1.7216428519630789
 20
105.4298243910835
  0
LWPOLYLINE
  5
33
330
17
100
AcDbEntity
  8
K
100
AcDbPolyline
 90
8
 70
1
 10
1788.3479383436165
 20
261.6155649266786
 10
1790.8942028985507
 20
265.7987138383563
 10
1796.006601368426
 20
265.7987138383563
 10
1798.5674709336433
 20
261.59157098121347
 10
1794.2837354668218
 20
254.55400557143483
 10
1792.6170688001548
 20
257.29210080953015
 10
1789.2105388769885
 20
251.69565879289945
 10
1788.3479383436165
 20
261.6155649266786
  0
LWPOLYLINE
  5
34
330
17
100
AcDbEntity
  8
K
100
AcDbPolyline
 90
98
 70
1
 10
2933.3416933144213
 20
39.792122440854726
 10
2938.350402133489
 20
56.24930856064692
 10
2938.350402133489
 20
61.73866020051588
 10
2943.350402133489
 20
69.9529459148015
 10
2943.350402133489
 20
75.42913639099203
 10
2945.8942028985507
 20
79.60823764788006
 10
2949.33993470176
 20
79.60823764788006
 10
2951.006601368427
 20
76.87014240978485
 10
2959.3399347017594
 20
76.87014240978485
 10
2961.0066013684263
 20
74.13204717168954
 10
2982.673268035093
 20
74.13204717168954
 10
2984.3444243176377
 20
71.38657613608079
 10
3004.3444243176377
 20
68.64848089798559
 10
3006.0066013684263
 20
65.9177614574038
 10
3022.5608695652177
 20
65.9177614574038
 10
3025.0127340653476
 20
69.94582456476073
 10
3023.35363920526
 20
80.84844793105216
 10
3018.3532881157257
 20
91.80159793669817
 10
3015.0201256071446
 20
116.44319219656896
 10
3008.3504021334884
 20
130.13994575854048
 10
3008.3504021334884
 20
141.103381856833
 10
3005.0170688001554
 20
154.79385804730916
 10
3005.0170688001554
 20
162.99210080952986
 10
3003.3504021334884
 20
165.73019604762507
 10
3003.3504021334884
 20
173.93067995344924
 10
2999.30348477882
 20
177.91978420305088
 10
2997.673268035093
 20
175.2415709812134
 10
2987.673268035093
 20
175.2415709812134
 10
2986.0066013684263
 20
172.5034757431182
 10
2974.33993470176
 20
172.5034757431182
 10
2972.6732680350933
 20
169.76538050502288
 10
2947.673268035093
 20
169.76538050502288
 10
2946.0066013684263
 20
167.02728526692766
 10
2940.9945100595965
 20
167.02728526692766
 10
2935.934325762969
 20
161.48517865633582
 10
2934.227536231884
 20
164.28919002883248
 10
2910.894202898551
 20
164.28919002883248
 10
2909.227536231884
 20
167.02728526692766
 10
2897.5608695652177
 20
167.02728526692766
 10
2895.894202898551
 20
169.76538050502288
 10
2880.8942028985507
 20
169.76538050502288
 10
2878.333333333334
 20
173.97252336216573
 10
2883.333333333334
 20
182.18680907645145
 10
2880.8942028985507
 20
186.19395193359435
 10
2864.227536231884
 20
186.19395193359435
 10
2862.560869565217
 20
188.93204717168953
 10
2847.5608695652177
 20
188.93204717168953
 10
2845.8942028985507
 20
191.67014240978486
 10
2815.880463375583
 20
191.67014240978486
 10
2813.346065088678
 20
198.60956629059712
 10
2820.0170688001554
 20
226.0083315341651
 10
2820.0170688001554
 20
231.50056496242044
 10
2823.3545567755796
 20
236.98358092204575
 10
2825.012272474534
 20
247.87714122945815
 10
2810.017068800155
 20
269.7748989761689
 10
2810.017068800155
 20
278.0481840100395
 10
2813.350402133489
 20
283.52437448623004
 10
2813.350402133489
 20
291.73866020051577
 10
2815.894202898551
 20
295.9177614574039
 10
2875.894202898551
 20
295.9177614574039
 10
2877.5608695652177
 20
298.6558566954991
 10
2882.6732680350933
 20
298.6558566954991
 10
2885.217068800155
 20
294.47675543861095
 10
2885.217068800155
 20
258.8815173433728
 10
2887.6732680350933
 20
254.84633288597524
 10
2904.227536231884
 20
254.84633288597524
 10
2905.8914608460777
 20
257.57992332357907
 10
2939.3244800326465
 20
260.3262070424758
 10
2944.32784339293
 20
254.84633288597524
 10
2947.5871523515343
 20
254.84633288597524
 10
2955.9204856848683
 20
260.3225233621658
 10
2962.5853962234237
 20
260.3225233621658
 10
2974.25206289009
 20
268.5368090764515
 10
2982.572960874047
 20
268.5368090764515
 10
2987.5729608740476
 20
274.01299955264193
 10
2994.227536231884
 20
274.01299955264193
 10
2995.900053701347
 20
276.76070682390207
 10
3012.6675205492556
 20
274.0060515560313
 10
3017.6611767262634
 20
268.5368090764515
 10
3054.33993470176
 20
268.5368090764515
 10
3056.8837354668217
 20
264.3577078195636
 10
3056.8837354668217
 20
245.13495795238705
 10
3055.21585755604
 20
242.3948728132449
 10
3053.549190889373
 20
204.06153947991146
 10
3050.227507410861
 20
198.60448805092713
 10
3052.6870075580605
 20
191.87014240978485
 10
3104.2275362318846
 20
191.87014240978485
 10
3105.894202898551
 20
194.60823764788003
 10
3126.0084735264168
 20
194.60823764788003
 10
3151.0141734330864
 20
150.78872543047817
 10
3166.0124947483473
 20
148.0509366189624
 10
3167.673268035093
 20
145.32252336216578
 10
3187.673268035093
 20
145.32252336216578
 10
3190.2170688001556
 20
141.14342210527798
 10
3190.2170688001556
 20
39.77781509524414
 10
3187.673082277424
 20
35.59840866504238
 10
2935.0606843727064
 20
36.968065702243756
 10
2933.3416933144213
 20
39.792122440854726
  0
LWPOLYLINE
  5
35
330
17
100
AcDbEntity
  8
K
100
AcDbPolyline
 90
21
 70
1
 10
3120.017068800156
 20
234.1888719930274
 10
3120.017068800156
 20
245.19104115289693
 10
3122.5608695652177
 20
249.37014240978485
 10
3132.5608695652177
 20
249.37014240978485
 10
3134.227536231884
 20
252.10823764788003
 10
3179.227536231884
 20
252.10823764788003
 10
3180.8942028985507
 20
254.84633288597524
 10
3187.673268035093
 20
254.84633288597524
 10
3190.2170688001556
 20
250.66723162908733
 10
3190.2170688001556
 20
242.39686271429184
 10
3187.673268035093
 20
238.21776145740392
 10
3177.6732680350933
 20
238.21776145740392
 10
3176.0066013684263
 20
235.4796662193086
 10
3169.3399347017594
 20
235.4796662193086
 10
3167.673268035093
 20
232.74157098121339
 10
3161.006601368427
 20
232.74157098121339
 10
3159.33993470176
 20
230.0034757431182
 10
3144.3399347017594
 20
230.0034757431182
 10
3142.6807050065263
 20
227.27759838666316
 10
3125.060133791054
 20
223.1421582034401
 10
3120.017068800156
 20
234.1888719930274
  0
LWPOLYLINE
  5
36
330
17
100
AcDbEntity
  8
K
100
AcDbPolyline
 90
15
 70
1
 10
3516.6680621081905
 20
466.96396383912855
 10
3530.9021886404635
 20
484.84633288597524
 10
3534.227536231884
 20
484.84633288597524
 10
3537.5420082816036
 20
490.29153696765627
 10
3552.5455107331504
 20
501.24647526561125
 10
3562.5662762993297
 20
514.9653805050228
 10
3565.98620796768
 20
514.9653805050228
 10
3572.6936614358397
 20
509.45568658474906
 10
3580.230057028196
 20
497.0744652544493
 10
3570.2055735955087
 20
475.1160729733239
 10
3560.207616842513
 20
458.6908583076881
 10
3555.2076168425124
 20
445.0003821172119
 10
3549.335087571358
 20
435.3526554574586
 10
3529.2144523736497
 20
438.10726622857345
 10
3516.6680621081905
 20
466.96396383912855
  0
LWPOLYLINE
  5
37
330
17
100
AcDbEntity
  8
K
100
AcDbPolyline
 90
21
 70
1
 10
3490.017068800156
 20
212.33389829575378
 10
3494.2275362318846
 20
219.25109479073723
 10
3497.560869565218
 20
219.25109479073723
 10
3499.2275362318846
 20
221.98919002883244
 10
3510.9145962992975
 20
221.98919002883244
 10
3517.5812629659645
 20
227.46538050502295
 10
3529.227536231884
 20
227.46538050502295
 10
3530.885651665024
 20
230.1894272880376
 10
3540.99242613827
 20
232.95675839380726
 10
3555.2267887910625
 20
212.32291337190202
 10
3551.883735466822
 20
201.33859530654175
 10
3551.883735466822
 20
193.11114842857768
 10
3546.8809376433783
 20
184.89226629006274
 10
3545.2142709767118
 20
168.46369486149126
 10
3541.0066013684263
 20
161.55109479073715
 10
3519.2275362318846
 20
161.55109479073715
 10
3515.9504021334888
 20
166.9349579523872
 10
3512.670980288569
 20
161.54733635001872
 10
3491.7253313543742
 20
162.92376470855152
 10
3490.017068800156
 20
165.73019604762518
 10
3490.017068800156
 20
212.33389829575378
  0
LWPOLYLINE
  5
38
330
17
100
AcDbEntity
  8
K
100
AcDbPolyline
 90
47
 70
1
 10
3439.239627540714
 20
468.2177614574039
 10
3434.2396275407145
 20
473.6939519335943
 10
3427.581262965964
 20
473.6939519335943
 10
3420.914596299298
 20
479.17014240978483
 10
3415.9062942073806
 20
479.17014240978483
 10
3410.912478320339
 20
484.63955980987885
 10
3392.678145323733
 20
481.9162503363599
 10
3391.006601368427
 20
479.17014240978483
 10
3372.6732680350933
 20
479.17014240978483
 10
3371.0066013684263
 20
476.43204717168953
 10
3364.33993470176
 20
476.43204717168953
 10
3362.6732680350933
 20
473.6939519335943
 10
3342.6732680350933
 20
473.6939519335943
 10
3341.006601368427
 20
470.9558566954991
 10
3331.0066013684263
 20
470.9558566954991
 10
3329.3034847788203
 20
468.1578794411463
 10
3325.017068800156
 20
472.3830609058302
 10
3325.017068800156
 20
475.1910411528967
 10
3330.870496594621
 20
484.8073868152325
 10
3354.203829927954
 20
509.4502439580897
 10
3360.894202898551
 20
520.4415709812133
 10
3364.227536231884
 20
520.4415709812133
 10
3365.894202898551
 20
523.1796662193086
 10
3389.3324579178357
 20
523.1796662193086
 10
3396.873975073129
 20
513.5432831875451
 10
3401.8720124354572
 20
497.12116042560905
 10
3405.9306528214906
 20
493.1205006165186
 10
3407.5608695652177
 20
495.79871383835615
 10
3432.5608695652177
 20
495.79871383835615
 10
3434.2236630050456
 20
498.53044591807395
 10
3457.549485910642
 20
501.2676598304653
 10
3467.552793175114
 20
523.1796662193086
 10
3482.6732680350933
 20
523.1796662193086
 10
3485.217068800155
 20
519.0005649624204
 10
3485.217068800155
 20
513.52437448623
 10
3488.5504021334887
 20
508.0481840100395
 10
3488.5504021334887
 20
502.5634689220393
 10
3491.8813959156673
 20
494.35494853024255
 10
3493.547057802692
 20
480.6727258868249
 10
3495.2341376003105
 20
477.90109479073715
 10
3492.6732680350933
 20
473.6939519335943
 10
3482.652874634347
 20
473.6939519335943
 10
3475.98620796768
 20
468.2177614574039
 10
3464.3195413010135
 20
468.2177614574039
 10
3457.6317444900387
 20
462.72421407696027
 10
3445.928100070833
 20
468.2177614574039
 10
3439.239627540714
 20
468.2177614574039
  0
LWPOLYLINE
  5
39
330
17
100
AcDbEntity
  8
K
100
AcDbPolyline
 90
26
 70
1
 10
3278.350402133489
 20
34.35770781956349
 10
3280.017068800156
 20
37.09580305765869
 10
3280.017068800156
 20
56.262469724325356
 10
3281.6837354668223
 20
59.00056496242057
 10
3281.6837354668223
 20
78.16723162908723
 10
3283.350402133489
 20
80.90532686718255
 10
3283.350402133489
 20
100.07199353384921
 10
3289.2275362318846
 20
109.72728526692765
 10
3297.6732680350933
 20
109.72728526692765
 10
3299.33993470176
 20
106.98919002883245
 10
3306.006601368427
 20
106.98919002883245
 10
3307.6732680350933
 20
104.25109479073713
 10
3319.3136519154427
 20
104.25109479073713
 10
3327.646985248776
 20
98.77490431454672
 10
3339.3195413010135
 20
98.77490431454672
 10
3352.6528746343465
 20
87.82252336216578
 10
3359.33993470176
 20
87.82252336216578
 10
3361.006601368427
 20
85.08442812407047
 10
3409.33993470176
 20
85.08442812407047
 10
3411.8824317551253
 20
80.90746867925635
 10
3413.5490984217918
 20
45.31223058401823
 10
3415.2307166913474
 20
42.54957199831999
 10
3402.67962210602
 20
16.43134183742456
 10
3280.0604884661943
 20
17.801720881990168
 10
3278.350402133489
 20
20.611148428577586
 10
3278.350402133489
 20
34.35770781956349
  0
LWPOLYLINE
  5
3A
330
17
100
AcDbEntity
  8
K
100
AcDbPolyline
 90
21
 70
1
 10
3307.572960874048
 20
238.21776145740392
 10
3302.5729608740476
 20
243.69395193359432
 10
3295.9008339072575
 20
243.69395193359432
 10
3287.567500573924
 20
254.64633288597526
 10
3282.5608695652177
 20
254.64633288597526
 10
3276.6837354668223
 20
264.30162461905394
 10
3276.6837354668223
 20
275.3100887719443
 10
3282.5608695652177
 20
284.96538050502295
 10
3289.32784339293
 20
284.96538050502295
 10
3294.3278433929304
 20
279.4891900288324
 10
3300.9945100595965
 20
279.4891900288324
 10
3306.006553056353
 20
273.9998096038141
 10
3322.6732197230194
 20
268.5236191276237
 10
3327.6611767262634
 20
263.06061860026097
 10
3334.3195413010135
 20
263.06061860026097
 10
3341.0324994786056
 20
257.5464029543818
 10
3345.2258443718297
 20
247.9017096999663
 10
3337.6773488465037
 20
229.98901000097848
 10
3324.239381630707
 20
232.74859255422243
 10
3317.581262965964
 20
238.21776145740392
 10
3307.572960874048
 20
238.21776145740392
  0
LWPOLYLINE
  5
3B
330
17
100
AcDbEntity
  8
K
100
AcDbPolyline
 90
16
 70
1
 10
4755.094429250485
 20
1.3737159567257518
 10
4748.350402133488
 20
4.143584236920628
 10
4748.350402133488
 20
48.092544907040846
 10
4760.8841549899025
 20
52.21077798843399
 10
4762.560869565218
 20
54.965380505022864
 10
4779.24792963263
 20
54.965380505022864
 10
4782.662604959884
 20
57.77029238098152
 10
4785.227507410861
 20
50.74734519378443
 10
4783.550402133488
 20
47.99210080952998
 10
4783.550402133488
 20
31.56352938095852
 10
4781.883735466822
 20
28.825434142863315
 10
4781.883735466822
 20
12.396862714291856
 10
4780.217068800155
 20
9.658767476196651
 10
4780.217068800155
 20
4.182577000006238
 10
4777.671152365369
 20
0.0
 10
4755.094429250485
 20
1.3737159567257518
  0
LWPOLYLINE
  5
3C
330
17
100
AcDbEntity
  8
K
100
AcDbPolyline
 90
12
 70
1
 10
4748.348834027334
 20
173.89364362844896
 10
4749.186622058364
 20
216.56099120874194
 10
4756.0187558330135
 20
213.7549362655824
 10
4759.349982610407
 20
208.28220655986252
 10
4767.672045050795
 20
205.54781461516401
 10
4776.883735466821
 20
195.9174109984082
 10
4776.883735466821
 20
190.37305319048247
 10
4774.360328102506
 20
186.2274553776777
 10
4767.664056017791
 20
180.72694616523378
 10
4757.68181926862
 20
177.99371467438928
 10
4754.331462621601
 20
172.48955732571324
 10
4748.348834027334
 20
173.89364362844896
  0
ENDSEC
  0
SECTION
  2
OBJECTS
  0
DICTIONARY
  5
A
330
0
100
AcDbDictionary
281
1
  3
ACAD_COLOR
350
B
  3
ACAD_GROUP
350
C
  3
ACAD_LAYOUT
350
D
  3
ACAD_MATERIAL
350
E
  3
ACAD_MLEADERSTYLE
350
F
  3
ACAD_MLINESTYLE
350
10
  3
ACAD_PLOTSETTINGS
350
11
  3
ACAD_PLOTSTYLENAME
350
12
  3
ACAD_SCALELIST
350
14
  3
ACAD_TABLESTYLE
350
15
  3
ACAD_VISUALSTYLE
350
16
  3
EZDXF_META
350
2D
  0
DICTIONARY
  5
B
330
A
100
AcDbDictionary
281
1
  0
DICTIONARY
  5
C
330
A
100
AcDbDictionary
281
1
  0
DICTIONARY
  5
D
330
A
100
AcDbDictionary
281
1
  3
Model
350
1A
  3
Layout1
350
1E
  0
DICTIONARY
  5
E
330
A
100
AcDbDictionary
281
1
  3
ByBlock
350
1F
  3
ByLayer
350
20
  3
Global
350
21
  0
DICTIONARY
  5
F
330
A
100
AcDbDictionary
281
1
  3
Standard
350
2C
  0
DICTIONARY
  5
10
330
A
100
AcDbDictionary
281
1
  3
Standard
350
22
  0
DICTIONARY
  5
11
330
A
100
AcDbDictionary
281
1
  0
ACDBDICTIONARYWDFLT
  5
12
330
A
100
AcDbDictionary
281
1
  3
Normal
350
13
100
AcDbDictionaryWithDefault
340
13
  0
ACDBPLACEHOLDER
  5
13
330
12
  0
DICTIONARY
  5
14
330
A
100
AcDbDictionary
281
1
  0
DICTIONARY
  5
15
330
A
100
AcDbDictionary
281
1
  0
DICTIONARY
  5
16
330
A
100
AcDbDictionary
281
1
  0
LAYOUT
  5
1A
330
D
100
AcDbPlotSettings
  1

  4
A3
  6

 40
7.5
 41
20.0
 42
7.5
 43
20.0
 44
420.0
 45
297.0
 46
0.0
 47
0.0
 48
0.0
 49
0.0
140
0.0
141
0.0
142
1.0
143
1.0
 70
1024
 72
1
 73
0
 74
5
  7

 75
16
 76
0
 77
2
 78
300
147
1.0
148
0.0
149
0.0
100
AcDbLayout
  1
Model
 70
1
 71
0
 10
0.0
 20
0.0
 11
420.0
 21
297.0
 12
0.0
 22
0.0
 32
0.0
 14
1e+20
 24
1e+20
 34
1e+20
 15
-1e+20
 25
-1e+20
 35
-1e+20
146
0.0
 13
0.0
 23
0.0
 33
0.0
 16
1.0
 26
0.0
 36
0.0
 17
0.0
 27
1.0
 37
0.0
 76
1
330
17
  0
LAYOUT
  5
1E
330
D
100
AcDbPlotSettings
  1

  4
A3
  6

 40
7.5
 41
20.0
 42
7.5
 43
20.0
 44
420.0
 45
297.0
 46
0.0
 47
0.0
 48
0.0
 49
0.0
140
0.0
141
0.0
142
1.0
143
1.0
 70
0
 72
1
 73
0
 74
5
  7

 75
16
 76
0
 77
2
 78
300
147
1.0
148
0.0
149
0.0
100
AcDbLayout
  1
Layout1
 70
1
 71
1
 10
0.0
 20
0.0
 11
420.0
 21
297.0
 12
0.0
 22
0.0
 32
0.0
 14
1e+20
 24
1e+20
 34
1e+20
 15
-1e+20
 25
-1e+20
 35
-1e+20
146
0.0
 13
0.0
 23
0.0
 33
0.0
 16
1.0
 26
0.0
 36
0.0
 17
0.0
 27
1.0
 37
0.0
 76
1
330
1B
  0
MATERIAL
  5
1F
102
{ACAD_REACTORS
330
E
102
}
330
E
100
AcDbMaterial
  1
ByBlock
  2

 70
0
 40
1.0
 71
1
 41
1.0
 91
-1023410177
 42
1.0
 72
1
  3

 73
1
 74
1
 75
1
 44
0.5
 73
0
 45
1.0
 46
1.0
 77
1
  4

 78
1
 79
1
170
1
 48
1.0
171
1
  6

172
1
173
1
174
1
140
1.0
141
1.0
175
1
  7

176
1
177
1
178
1
143
1.0
179
1
  8

270
1
271
1
272
1
145
1.0
146
1.0
273
1
  9

274
1
275
1
276
1
 42
1.0
 72
1
  3

 73
1
 74
1
 75
1
 94
63
  0
MATERIAL
  5
20
102
{ACAD_REACTORS
330
E
102
}
330
E
100
AcDbMaterial
  1
ByLayer
  2

 70
0
 40
1.0
 71
1
 41
1.0
 91
-1023410177
 42
1.0
 72
1
  3

 73
1
 74
1
 75
1
 44
0.5
 73
0
 45
1.0
 46
1.0
 77
1
  4

 78
1
 79
1
170
1
 48
1.0
171
1
  6

172
1
173
1
174
1
140
1.0
141
1.0
175
1
  7

176
1
177
1
178
1
143
1.0
179
1
  8

270
1
271
1
272
1
145
1.0
146
1.0
273
1
  9

274
1
275
1
276
1
 42
1.0
 72
1
  3

 73
1
 74
1
 75
1
 94
63
  0
MATERIAL
  5
21
102
{ACAD_REACTORS
330
E
102
}
330
E
100
AcDbMaterial
  1
Global
  2

 70
0
 40
1.0
 71
1
 41
1.0
 91
-1023410177
 42
1.0
 72
1
  3

 73
1
 74
1
 75
1
 44
0.5
 73
0
 45
1.0
 46
1.0
 77
1
  4

 78
1
 79
1
170
1
 48
1.0
171
1
  6

172
1
173
1
174
1
140
1.0
141
1.0
175
1
  7

176
1
177
1
178
1
143
1.0
179
1
  8

270
1
271
1
272
1
145
1.0
146
1.0
273
1
  9

274
1
275
1
276
1
 42
1.0
 72
1
  3

 73
1
 74
1
 75
1
 94
63
  0
MLINESTYLE
  5
22
102
{ACAD_REACTORS
330
10
102
}
330
10
100
AcDbMlineStyle
  2
Standard
 70
0
  3

 62
256
 51
90.0
 52
90.0
 71
2
 49
0.5
 62
256
  6
BYLAYER
 49
-0.5
 62
256
  6
BYLAYER
  0
MLEADERSTYLE
  5
2C
102
{ACAD_REACTORS
330
F
102
}
330
F
100
AcDbMLeaderStyle
179
2
170
2
171
1
172
0
 90
2
 40
0.0
 41
0.0
173
1
 91
-1056964608
 92
-2
290
1
 42
2.0
291
1
 43
8.0
  3
Standard
 44
4.0
300

342
29
174
1
175
1
176
0
178
1
 93
-1056964608
 45
4.0
292
0
297
0
 46
4.0
 94
-1056964608
 47
1.0
 49
1.0
140
1.0
294
1
141
0.0
177
0
142
1.0
295
0
296
0
143
3.75
271
0
272
9
273
9
  0
DICTIONARY
  5
2D
330
A
100
AcDbDictionary
280
1
281
1
  3
CREATED_BY_EZDXF
350
2E
  3
WRITTEN_BY_EZDXF
350
3F
  0
DICTIONARYVAR
  5
2E
330
2D
100
DictionaryVariables
280
0
  1
1.4.4 @ 2026-07-21T08:35:07.700074+00:00
  0
DICTIONARYVAR
  5
3F
330
2D
100
DictionaryVariables
280
0
  1
1.4.4 @ 2026-07-21T08:35:07.707326+00:00
  0
ENDSEC
  0
EOF
