  0
SECTION
  2
HEADER
  9
$ACADVER
  1
AC1027
  9
$ACADMAINTVER
 70
105
  9
$DWGCODEPAGE
  3
ANSI_1252
  9
$LASTSAVEDBY
  1
ezdxf
  9
$REQUIREDVERSIONS
160
0
  9
$INSBASE
 10
0.0
 20
0.0
 30
0.0
  9
$EXTMIN
 10
1e+20
 20
1e+20
 30
1e+20
  9
$EXTMAX
 10
-1e+20
 20
-1e+20
 30
-1e+20
  9
$LIMMIN
 10
0.0
 20
0.0
  9
$LIMMAX
 10
420.0
 20
297.0
  9
$ORTHOMODE
 70
0
  9
$REGENMODE
 70
1
  9
$FILLMODE
 70
1
  9
$QTEXTMODE
 70
0
  9
$MIRRTEXT
 70
1
  9
$LTSCALE
 40
1.0
  9
$ATTMODE
 70
1
  9
$TEXTSIZE
 40
2.5
  9
$TRACEWID
 40
1.0
  9
$TEXTSTYLE
  7
Standard
  9
$CLAYER
  8
0
  9
$CELTYPE
  6
ByLayer
  9
$CECOLOR
 62
256
  9
$CELTSCALE
 40
1.0
  9
$DISPSILH
 70
0
  9
$DIMSCALE
 40
1.0
  9
$DIMASZ
 40
2.5
  9
$DIMEXO
 40
0.625
  9
$DIMDLI
 40
3.75
  9
$DIMRND
 40
0.0
  9
$DIMDLE
 40
0.0
  9
$DIMEXE
 40
1.25
  9
$DIMTP
 40
0.0
  9
$DIMTM
 40
0.0
  9
$DIMTXT
 40
2.5
  9
$DIMCEN
 40
2.5
  9
$DIMTSZ
 40
0.0
  9
$DIMTOL
 70
0
  9
$DIMLIM
 70
0
  9
$DIMTIH
 70
0
  9
$DIMTOH
 70
0
  9
$DIMSE1
 70
0
  9
$DIMSE2
 70
0
  9
$DIMTAD
 70
1
  9
$DIMZIN
 70
8
  9
$DIMBLK
  1

  9
$DIMASO
 70
1
  9
$DIMSHO
 70
1
  9
$DIMPOST
  1

  9
$DIMAPOST
  1

  9
$DIMALT
 70
0
  9
$DIMALTD
 70
3
  9
$DIMALTF
 40
0.03937007874
  9
$DIMLFAC
 40
1.0
  9
$DIMTOFL
 70
1
  9
$DIMTVP
 40
0.0
  9
$DIMTIX
 70
0
  9
$DIMSOXD
 70
0
  9
$DIMSAH
 70
0
  9
$DIMBLK1
  1

  9
$DIMBLK2
  1

  9
$DIMSTYLE
  2
ISO-25
  9
$DIMCLRD
 70
0
  9
$DIMCLRE
 70
0
  9
$DIMCLRT
 70
0
  9
$DIMTFAC
 40
1.0
  9
$DIMGAP
 40
0.625
  9
$DIMJUST
 70
0
  9
$DIMSD1
 70
0
  9
$DIMSD2
 70
0
  9
$DIMTOLJ
 70
0
  9
$DIMTZIN
 70
8
  9
$DIMALTZ
 70
0
  9
$DIMALTTZ
 70
0
  9
$DIMUPT
 70
0
  9
$DIMDEC
 70
2
  9
$DIMTDEC
 70
2
  9
$DIMALTU
 70
2
  9
$DIMALTTD
 70
3
  9
$DIMTXSTY
  7
Standard
  9
$DIMAUNIT
 70
0
  9
$DIMADEC
 70
0
  9
$DIMALTRND
 40
0.0
  9
$DIMAZIN
 70
0
  9
$DIMDSEP
 70
44
  9
$DIMATFIT
 70
3
  9
$DIMFRAC
 70
0
  9
$DIMLDRBLK
  1

  9
$DIMLUNIT
 70
2
  9
$DIMLWD
 70
-2
  9
$DIMLWE
 70
-2
  9
$DIMTMOVE
 70
0
  9
$DIMFXL
 40
1.0
  9
$DIMFXLON
 70
0
  9
$DIMJOGANG
 40
0.785398163397
  9
$DIMTFILL
 70
0
  9
$DIMTFILLCLR
 70
0
  9
$DIMARCSYM
 70
0
  9
$DIMLTYPE
  6

  9
$DIMLTEX1
  6

  9
$DIMLTEX2
  6

  9
$DIMTXTDIRECTION
 70
0
  9
$LUNITS
 70
2
  9
$LUPREC
 70
4
  9
$SKETCHINC
 40
1.0
  9
$FILLETRAD
 40
10.0
  9
$AUNITS
 70
0
  9
$AUPREC
 70
2
  9
$MENU
  1
.
  9
$ELEVATION
 40
0.0
  9
$PELEVATION
 40
0.0
  9
$THICKNESS
 40
0.0
  9
$LIMCHECK
 70
0
  9
$CHAMFERA
 40
0.0
  9
$CHAMFERB
 40
0.0
  9
$CHAMFERC
 40
0.0
  9
$CHAMFERD
 40
0.0
  9
$SKPOLY
 70
0
  9
$TDCREATE
 40
2461243.9821527777
  9
$TDUCREATE
 40
2458532.153996898
  9
$TDUPDATE
 40
2461243.9821527777
  9
$TDUUPDATE
 40
2458532.1544311
  9
$TDINDWG
 40
0.0
  9
$TDUSRTIMER
 40
0.0
  9
$USRTIMER
 70
1
  9
$ANGBASE
 50
0.0
  9
$ANGDIR
 70
0
  9
$PDMODE
 70
0
  9
$PDSIZE
 40
0.0
  9
$PLINEWID
 40
0.0
  9
$SPLFRAME
 70
0
  9
$SPLINETYPE
 70
6
  9
$SPLINESEGS
 70
8
  9
$HANDSEED
  5
93
  9
$SURFTAB1
 70
6
  9
$SURFTAB2
 70
6
  9
$SURFTYPE
 70
6
  9
$SURFU
 70
6
  9
$SURFV
 70
6
  9
$UCSBASE
  2

  9
$UCSNAME
  2

  9
$UCSORG
 10
0.0
 20
0.0
 30
0.0
  9
$UCSXDIR
 10
1.0
 20
0.0
 30
0.0
  9
$UCSYDIR
 10
0.0
 20
1.0
 30
0.0
  9
$UCSORTHOREF
  2

  9
$UCSORTHOVIEW
 70
0
  9
$UCSORGTOP
 10
0.0
 20
0.0
 30
0.0
  9
$UCSORGBOTTOM
 10
0.0
 20
0.0
 30
0.0
  9
$UCSORGLEFT
 10
0.0
 20
0.0
 30
0.0
  9
$UCSORGRIGHT
 10
0.0
 20
0.0
 30
0.0
  9
$UCSORGFRONT
 10
0.0
 20
0.0
 30
0.0
  9
$UCSORGBACK
 10
0.0
 20
0.0
 30
0.0
  9
$PUCSBASE
  2

  9
$PUCSNAME
  2

  9
$PUCSORG
 10
0.0
 20
0.0
 30
0.0
  9
$PUCSXDIR
 10
1.0
 20
0.0
 30
0.0
  9
$PUCSYDIR
 10
0.0
 20
1.0
 30
0.0
  9
$PUCSORTHOREF
  2

  9
$PUCSORTHOVIEW
 70
0
  9
$PUCSORGTOP
 10
0.0
 20
0.0
 30
0.0
  9
$PUCSORGBOTTOM
 10
0.0
 20
0.0
 30
0.0
  9
$PUCSORGLEFT
 10
0.0
 20
0.0
 30
0.0
  9
$PUCSORGRIGHT
 10
0.0
 20
0.0
 30
0.0
  9
$PUCSORGFRONT
 10
0.0
 20
0.0
 30
0.0
  9
$PUCSORGBACK
 10
0.0
 20
0.0
 30
0.0
  9
$USERI1
 70
0
  9
$USERI2
 70
0
  9
$USERI3
 70
0
  9
$USERI4
 70
0
  9
$USERI5
 70
0
  9
$USERR1
 40
0.0
  9
$USERR2
 40
0.0
  9
$USERR3
 40
0.0
  9
$USERR4
 40
0.0
  9
$USERR5
 40
0.0
  9
$WORLDVIEW
 70
1
  9
$SHADEDGE
 70
3
  9
$SHADEDIF
 70
70
  9
$TILEMODE
 70
1
  9
$MAXACTVP
 70
64
  9
$PINSBASE
 10
0.0
 20
0.0
 30
0.0
  9
$PLIMCHECK
 70
0
  9
$PEXTMIN
 10
1e+20
 20
1e+20
 30
1e+20
  9
$PEXTMAX
 10
-1e+20
 20
-1e+20
 30
-1e+20
  9
$PLIMMIN
 10
0.0
 20
0.0
  9
$PLIMMAX
 10
420.0
 20
297.0
  9
$UNITMODE
 70
0
  9
$VISRETAIN
 70
1
  9
$PLINEGEN
 70
0
  9
$PSLTSCALE
 70
1
  9
$TREEDEPTH
 70
3020
  9
$CMLSTYLE
  2
Standard
  9
$CMLJUST
 70
0
  9
$CMLSCALE
 40
20.0
  9
$PROXYGRAPHICS
 70
1
  9
$MEASUREMENT
 70
1
  9
$CELWEIGHT
370
-1
  9
$ENDCAPS
280
0
  9
$JOINSTYLE
280
0
  9
$LWDISPLAY
290
0
  9
$INSUNITS
 70
4
  9
$HYPERLINKBASE
  1

  9
$STYLESHEET
  1

  9
$XEDIT
290
1
  9
$CEPSNTYPE
380
0
  9
$PSTYLEMODE
290
1
  9
$FINGERPRINTGUID
  2
{F4396137-28BA-4C72-B04F-EA7C4AFCE996}
  9
$VERSIONGUID
  2
{CA316FF2-3EB9-4902-9442-9D625A2C50B1}
  9
$EXTNAMES
290
1
  9
$PSVPSCALE
 40
0.0
  9
$OLESTARTUP
290
0
  9
$SORTENTS
280
127
  9
$INDEXCTL
280
0
  9
$HIDETEXT
280
1
  9
$XCLIPFRAME
280
1
  9
$HALOGAP
280
0
  9
$OBSCOLOR
 70
257
  9
$OBSLTYPE
280
0
  9
$INTERSECTIONDISPLAY
280
0
  9
$INTERSECTIONCOLOR
 70
257
  9
$DIMASSOC
280
2
  9
$PROJECTNAME
  1

  9
$CAMERADISPLAY
290
0
  9
$LENSLENGTH
 40
50.0
  9
$CAMERAHEIGHT
 40
0.0
  9
$STEPSPERSEC
 40
24.0
  9
$STEPSIZE
 40
100.0
  9
$3DDWFPREC
 40
2.0
  9
$PSOLWIDTH
 40
0.005
  9
$PSOLHEIGHT
 40
0.08
  9
$LOFTANG1
 40
1.570796326795
  9
$LOFTANG2
 40
1.570796326795
  9
$LOFTMAG1
 40
0.0
  9
$LOFTMAG2
 40
0.0
  9
$LOFTPARAM
 70
7
  9
$LOFTNORMALS
280
1
  9
$LATITUDE
 40
37.795
  9
$LONGITUDE
 40
-122.394
  9
$NORTHDIRECTION
 40
0.0
  9
$TIMEZONE
 70
-8000
  9
$LIGHTGLYPHDISPLAY
280
1
  9
$TILEMODELIGHTSYNCH
280
1
  9
$CMATERIAL
347
20
  9
$SOLIDHIST
280
0
  9
$SHOWHIST
280
1
  9
$DWFFRAME
280
2
  9
$DGNFRAME
280
2
  9
$REALWORLDSCALE
290
1
  9
$INTERFERECOLOR
 62
256
  9
$CSHADOW
280
0
  9
$SHADOWPLANELOCATION
 40
0.0
  0
ENDSEC
  0
SECTION
  2
CLASSES
  0
CLASS
  1
ACDBDICTIONARYWDFLT
  2
AcDbDictionaryWithDefault
  3
ObjectDBX Classes
 90
0
 91
0
280
0
281
0
  0
CLASS
  1
SUN
  2
AcDbSun
  3
SCENEOE
 90
1153
 91
0
280
0
281
0
  0
CLASS
  1
VISUALSTYLE
  2
AcDbVisualStyle
  3
ObjectDBX Classes
 90
4095
 91
0
280
0
281
0
  0
CLASS
  1
MATERIAL
  2
AcDbMaterial
  3
ObjectDBX Classes
 90
1153
 91
0
280
0
281
0
  0
CLASS
  1
SCALE
  2
AcDbScale
  3
ObjectDBX Classes
 90
1153
 91
0
280
0
281
0
  0
CLASS
  1
TABLESTYLE
  2
AcDbTableStyle
  3
ObjectDBX Classes
 90
4095
 91
0
280
0
281
0
  0
CLASS
  1
MLEADERSTYLE
  2
AcDbMLeaderStyle
  3
ACDB_MLEADERSTYLE_CLASS
 90
4095
 91
0
280
0
281
0
  0
CLASS
  1
DICTIONARYVAR
  2
AcDbDictionaryVar
  3
ObjectDBX Classes
 90
0
 91
0
280
0
281
0
  0
CLASS
  1
CELLSTYLEMAP
  2
AcDbCellStyleMap
  3
ObjectDBX Classes
 90
1152
 91
0
280
0
281
0
  0
CLASS
  1
MENTALRAYRENDERSETTINGS
  2
AcDbMentalRayRenderSettings
  3
SCENEOE
 90
1024
 91
0
280
0
281
0
  0
CLASS
  1
ACDBDETAILVIEWSTYLE
  2
AcDbDetailViewStyle
  3
ObjectDBX Classes
 90
1025
 91
0
280
0
281
0
  0
CLASS
  1
ACDBSECTIONVIEWSTYLE
  2
AcDbSectionViewStyle
  3
ObjectDBX Classes
 90
1025
 91
0
280
0
281
0
  0
CLASS
  1
RASTERVARIABLES
  2
AcDbRasterVariables
  3
ISM
 90
0
 91
0
280
0
281
0
  0
CLASS
  1
LAYOUT
  2
AcDbLayout
  3
ObjectDBX Classes
 90
0
 91
0
280
0
281
0
  0
CLASS
  1
ACDBPLACEHOLDER
  2
AcDbPlaceHolder
  3
ObjectDBX Classes
 90
0
 91
0
280
0
281
0
  0
ENDSEC
  0
SECTION
  2
TABLES
  0
TABLE
  2
VPORT
  5
8
330
0
100
AcDbSymbolTable
 70
1
  0
VPORT
  5
23
330
8
100
AcDbSymbolTableRecord
100
AcDbViewportTableRecord
  2
*Active
 70
0
 10
0.0
 20
0.0
 11
1.0
 21
1.0
 12
0.0
 22
0.0
 13
0.0
 23
0.0
 14
0.5
 24
0.5
 15
0.5
 25
0.5
 16
0.0
 26
0.0
 36
1.0
 17
0.0
 27
0.0
 37
0.0
 40
1000.0
 41
1.34
 42
50.0
 43
0.0
 44
0.0
 50
0.0
 51
0.0
 71
0
 72
1000
 73
1
 74
3
 75
0
 76
0
 77
0
 78
0
281
0
 65
0
146
0.0
  0
ENDTAB
  0
TABLE
  2
LTYPE
  5
2
330
0
100
AcDbSymbolTable
 70
3
  0
LTYPE
  5
24
330
2
100
AcDbSymbolTableRecord
100
AcDbLinetypeTableRecord
  2
ByBlock
 70
0
  3

 72
65
 73
0
 40
0.0
  0
LTYPE
  5
25
330
2
100
AcDbSymbolTableRecord
100
AcDbLinetypeTableRecord
  2
ByLayer
 70
0
  3

 72
65
 73
0
 40
0.0
  0
LTYPE
  5
26
330
2
100
AcDbSymbolTableRecord
100
AcDbLinetypeTableRecord
  2
Continuous
 70
0
  3

 72
65
 73
0
 40
0.0
  0
ENDTAB
  0
TABLE
  2
LAYER
  5
1
330
0
100
AcDbSymbolTable
 70
3
  0
LAYER
  5
27
330
1
100
AcDbSymbolTableRecord
100
AcDbLayerTableRecord
  2
0
 70
0
 62
7
  6
Continuous
370
-3
390
13
347
21
  0
LAYER
  5
28
330
1
100
AcDbSymbolTableRecord
100
AcDbLayerTableRecord
  2
Defpoints
 70
0
 62
7
  6
Continuous
290
0
370
-3
390
13
347
21
  0
LAYER
  5
2F
330
1
100
AcDbSymbolTableRecord
100
AcDbLayerTableRecord
  2
GRAY_L
 70
0
 62
7
  6
Continuous
370
-3
390
13
347
21
  0
ENDTAB
  0
TABLE
  2
STYLE
  5
5
330
0
100
AcDbSymbolTable
 70
1
  0
STYLE
  5
29
330
5
100
AcDbSymbolTableRecord
100
AcDbTextStyleTableRecord
  2
Standard
 70
0
 40
0.0
 41
1.0
 50
0.0
 71
0
 42
2.5
  3
txt
  4

  0
ENDTAB
  0
TABLE
  2
VIEW
  5
7
330
0
100
AcDbSymbolTable
 70
0
  0
ENDTAB
  0
TABLE
  2
UCS
  5
6
330
0
100
AcDbSymbolTable
 70
0
  0
ENDTAB
  0
TABLE
  2
APPID
  5
3
330
0
100
AcDbSymbolTable
 70
3
  0
APPID
  5
2A
330
3
100
AcDbSymbolTableRecord
100
AcDbRegAppTableRecord
  2
ACAD
 70
0
  0
APPID
  5
90
330
3
100
AcDbSymbolTableRecord
100
AcDbRegAppTableRecord
  2
HATCHBACKGROUNDCOLOR
 70
0
  0
APPID
  5
91
330
3
100
AcDbSymbolTableRecord
100
AcDbRegAppTableRecord
  2
EZDXF
 70
0
  0
ENDTAB
  0
TABLE
  2
DIMSTYLE
  5
4
330
0
100
AcDbSymbolTable
 70
1
100
AcDbDimStyleTable
  0
DIMSTYLE
105
2B
330
4
100
AcDbSymbolTableRecord
100
AcDbDimStyleTableRecord
  2
Standard
 70
0
 40
1.0
 41
2.5
 42
0.625
 43
3.75
 44
1.25
 45
0.0
 46
0.0
 47
0.0
 48
0.0
 49
2.5
140
2.5
141
2.5
142
0.0
143
0.03937007874
144
1.0
145
0.0
146
1.0
147
0.625
148
0.0
 69
0
 70
0
 71
0
 72
0
 73
0
 74
0
 75
0
 76
0
 77
1
 78
8
 79
3
170
0
171
3
172
1
173
0
174
0
175
0
176
0
177
0
178
0
179
2
271
2
272
2
273
2
274
3
275
0
276
0
277
2
278
44
279
0
280
0
281
0
282
0
283
0
284
8
285
0
286
0
288
0
289
3
290
0
371
-2
372
-2
  0
ENDTAB
  0
TABLE
  2
BLOCK_RECORD
  5
9
330
0
100
AcDbSymbolTable
 70
2
  0
BLOCK_RECORD
  5
17
330
9
100
AcDbSymbolTableRecord
100
AcDbBlockTableRecord
  2
*Model_Space
340
1A
 70
0
280
1
281
0
  0
BLOCK_RECORD
  5
1B
330
9
100
AcDbSymbolTableRecord
100
AcDbBlockTableRecord
  2
*Paper_Space
340
1E
 70
0
280
1
281
0
  0
ENDTAB
  0
ENDSEC
  0
SECTION
  2
BLOCKS
  0
BLOCK
  5
18
330
17
100
AcDbEntity
  8
0
100
AcDbBlockBegin
  2
*Model_Space
 70
0
 10
0.0
 20
0.0
 30
0.0
  3
*Model_Space
  1

  0
ENDBLK
  5
19
330
17
100
AcDbEntity
  8
0
100
AcDbBlockEnd
  0
BLOCK
  5
1C
330
1B
100
AcDbEntity
  8
0
100
AcDbBlockBegin
  2
*Paper_Space
 70
0
 10
0.0
 20
0.0
 30
0.0
  3
*Paper_Space
  1

  0
ENDBLK
  5
1D
330
1B
100
AcDbEntity
  8
0
100
AcDbBlockEnd
  0
ENDSEC
  0
SECTION
  2
ENTITIES
  0
LWPOLYLINE
  5
30
330
17
100
AcDbEntity
  8
GRAY_L
100
AcDbPolyline
 90
58
 70
1
 10
226.74063158775058
 20
225.71956538927074
 10
218.3144612966373
 20
227.14922223774758
 10
214.11201017790887
 20
230.00131889124887
 10
209.89090790172605
 20
230.00131889124887
 10
206.3187349899787
 20
233.63783319664532
 10
207.73346266398323
 20
243.71929981738737
 10
209.13120531167834
 20
245.14221837681393
 10
209.13120531167834
 20
250.8565040910995
 10
210.53450081145587
 20
252.28507551967107
 10
210.53450081145587
 20
257.9993612339566
 10
213.34502101032422
 20
260.86050406250763
 10
214.74831651010174
 20
275.14621834822185
 10
216.90738540061372
 20
277.344176034106
 10
219.71397640016878
 20
277.344176034106
 10
222.56251255956494
 20
280.24401956044164
 10
225.41104871896107
 20
277.344176034106
 10
233.83082171762626
 20
277.344176034106
 10
235.2121401437377
 20
275.9379775266535
 10
238.01873114329274
 20
277.36654895522486
 10
239.4440037167364
 20
275.91560460553467
 10
250.58647739527456
 20
275.91560460553467
 10
252.03171805489316
 20
277.38687670329875
 10
253.47695871451177
 20
275.91560460553467
 10
302.5263699857272
 20
275.91560460553467
 10
305.37691513261444
 20
277.36654895522486
 10
306.80218770605813
 20
275.91560460553467
 10
323.6417337033886
 20
275.91560460553467
 10
327.1906726039668
 20
272.30274279851295
 10
330.0146182925464
 20
266.5531225265432
 10
330.0146182925464
 20
262.274005988024
 10
332.82120929210146
 20
257.98829170230954
 10
332.82120929210146
 20
255.06041940568403
 10
327.2290262932001
 20
249.36751092216093
 10
328.6323217929777
 20
246.510368065018
 10
325.03041674344405
 20
242.84358609143752
 10
320.82053024411147
 20
244.27215752000907
 10
318.8092532945349
 20
242.2246537793038
 10
320.21254879431245
 20
239.3675109221609
 10
317.98660654443734
 20
237.10147536491343
 10
315.1800155448823
 20
239.95861822205612
 10
313.19607129542476
 20
237.93893949358957
 10
314.5993667952023
 20
235.08179663644668
 10
312.3734245453272
 20
232.81576107919898
 10
310.97012904554964
 20
234.24433250777054
 10
306.17959379653706
 20
229.3675109221609
 10
307.5828892963146
 20
226.510368065018
 10
305.3988922062806
 20
224.2870331769633
 10
301.10511538726587
 20
224.2870331769633
 10
299.7437650473294
 20
225.67290393634187
 10
294.17662467699887
 20
220.00548914511532
 10
280.1436696792235
 20
218.57691771654396
 10
278.73627771050735
 20
217.14417603410618
 10
270.3219325331903
 20
217.14417603410618
 10
263.30179373558275
 20
208.56827476815786
 10
255.48951702887774
 20
209.2912738732231
 10
247.76663881387705
 20
218.58270647587918
 10
235.15793323603822
 20
221.43510903552465
 10
226.74063158775058
 20
225.71956538927074
  0
LWPOLYLINE
  5
31
330
17
100
AcDbEntity
  8
GRAY_L
100
AcDbPolyline
 90
6
 70
1
 10
248.3912147235087
 20
245.12878511797197
 10
246.36139804242268
 20
248.57274746267754
 10
243.6444590468994
 20
248.57274746267754
 10
238.87044775665623
 20
245.10131889124898
 10
243.61194505622797
 20
241.65353291078338
 10
248.3912147235087
 20
245.12878511797197
  0
LWPOLYLINE
  5
32
330
17
100
AcDbEntity
  8
GRAY_L
100
AcDbPolyline
 90
5
 70
1
 10
238.85302877884212
 20
236.5172240872555
 10
240.81627457046707
 20
234.51861663385532
 10
245.56427033405876
 20
237.97112798095665
 10
243.60102454243383
 20
239.96973543435683
 10
238.85302877884212
 20
236.5172240872555
  0
LWPOLYLINE
  5
33
330
17
100
AcDbEntity
  8
GRAY_L
100
AcDbPolyline
 90
25
 70
1
 10
157.9689744099572
 20
192.85846174839173
 10
155.17181457957173
 20
192.85846174839173
 10
150.10827719145627
 20
196.54041960163872
 10
156.58130479924952
 20
200.2013188912488
 10
163.58215640906738
 20
200.2013188912488
 10
164.98545190884488
 20
201.62989031982036
 10
167.8759332280821
 20
201.62989031982036
 10
169.27922872785962
 20
200.2013188912488
 10
174.8811949501195
 20
200.2013188912488
 10
179.06763197338864
 20
197.36009059689752
 10
181.84295700485904
 20
198.77274746267747
 10
191.73195672430018
 20
198.77274746267747
 10
193.09330706423665
 20
197.3868767032989
 10
194.45465740417313
 20
198.77274746267747
 10
205.76491172207554
 20
198.77274746267747
 10
208.57150272163062
 20
195.91560460553458
 10
212.7634301222795
 20
195.91560460553458
 10
218.3766121213896
 20
193.0584617483917
 10
229.62093521829368
 20
193.0584617483917
 10
231.83174297075405
 20
190.80783328864848
 10
216.9776597658209
 20
178.56651172507853
 10
174.82168331334103
 20
185.7190588915032
 10
165.00653220869088
 20
190.00131889124904
 10
160.7755654095123
 20
190.00131889124904
 10
157.9689744099572
 20
192.85846174839173
  0
LWPOLYLINE
  5
34
330
17
100
AcDbEntity
  8
GRAY_L
100
AcDbPolyline
 90
18
 70
1
 10
90.60098386911939
 20
247.15415921962247
 10
87.78928911280254
 20
250.01649776155844
 10
80.77281161391487
 20
252.87364061870133
 10
74.39683437173683
 20
259.36446091908795
 10
78.63832314919314
 20
269.4395277365156
 10
86.39593409913282
 20
278.77274746267756
 10
103.25166569548355
 20
278.77274746267756
 10
107.50515692051526
 20
281.6594837377397
 10
110.34081773720308
 20
278.77274746267756
 10
113.14740873675817
 20
278.77274746267756
 10
115.31040682658342
 20
276.5707898053853
 10
115.31040682658342
 20
265.06041940568406
 10
113.90428564150473
 20
263.62897139603047
 10
112.50162676065715
 20
243.63804459451254
 10
108.93779653872404
 20
238.55881470672637
 10
103.23635209266114
 20
240.00984918922197
 10
96.21987459377345
 20
245.72413490350775
 10
90.60098386911939
 20
247.15415921962247
  0
LWPOLYLINE
  5
35
330
17
100
AcDbEntity
  8
GRAY_L
100
AcDbPolyline
 90
81
 70
1
 10
11.252577701316602
 20
120.78891874550979
 10
9.241628507204503
 20
122.83608882727304
 10
6.435037507649454
 20
121.40751739870149
 10
5.009764934205796
 20
122.85846174839187
 10
2.203173934650721
 20
122.85846174839187
 10
0.0
 20
125.10131889124887
 10
2.217786394372756
 20
127.35905169106032
 10
6.436676182053514
 20
125.92742511112087
 10
12.077665728595615
 20
130.23437070615307
 10
17.110773401333823
 20
125.11060752203562
 10
12.906849481930132
 20
119.40441511033994
 10
19.9111367200345
 20
113.70005725986587
 10
18.504016342142243
 20
110.83512686033691
 10
20.529905751440786
 20
108.77274746267761
 10
26.06634657287493
 20
108.77274746267761
 10
32.256266732578645
 20
113.67384567572513
 10
25.251238425082036
 20
119.37880706012938
 10
26.6626144957732
 20
120.81560460553465
 10
24.65590193109132
 20
122.85846174839187
 10
20.529905751440786
 20
122.85846174839187
 10
19.084665091822217
 20
121.38718965062756
 10
16.82899901230217
 20
123.68348441827348
 10
22.46171081450596
 20
127.98410988201981
 10
20.424405133039837
 20
131.44077871177328
 10
13.485736922520585
 20
132.8535079850386
 10
10.644924006982054
 20
131.4075173987015
 10
9.26159659337944
 20
132.81576107919912
 10
7.900246253442961
 20
131.42989031982034
 10
3.606469434428272
 20
131.42989031982034
 10
1.4032954997775515
 20
133.67274746267753
 10
3.599765050695675
 20
135.90877946354007
 10
12.0195380493609
 20
137.3373508921114
 10
13.434296213457376
 20
138.77759144863467
 10
26.147626189778254
 20
137.3395558492545
 10
31.76000251958189
 20
131.62609031585882
 10
47.1309895680295
 20
130.20355879307522
 10
49.98502615067499
 20
131.65628030422914
 10
55.61894659974681
 20
124.4870331769632
 10
61.14158492530725
 20
124.4870331769632
 10
63.148297489989126
 20
126.52989031982042
 10
61.7450019902116
 20
127.95846174839176
 10
63.99012108470337
 20
130.24401956044173
 10
66.23524017919513
 20
127.95846174839176
 10
64.83194467941757
 20
126.52989031982042
 10
66.82998692603203
 20
124.49585966338006
 10
73.76327732048568
 20
125.90749400056356
 10
80.80969899585885
 20
133.0808346695107
 10
83.61628999541392
 20
131.65226324093913
 10
84.99760842152534
 20
133.05846174839186
 10
87.87013064207876
 20
133.05846174839186
 10
90.65273558047654
 20
131.6420993669023
 10
96.26591757958668
 20
134.4992422240452
 10
99.05254049296683
 20
133.0808346695107
 10
100.43385891907825
 20
134.4870331769632
 10
103.32434023831541
 20
134.4870331769632
 10
106.8906338279182
 20
130.85650409109962
 10
106.8906338279182
 20
125.06041940568392
 10
100.5401807924608
 20
118.59558304985063
 10
92.12040779379558
 20
112.88129733556507
 10
85.09421898160441
 20
105.72855396081926
 10
80.88433248227182
 20
104.2999825322477
 10
75.22596321858471
 20
98.53969564777331
 10
69.55564661320918
 20
102.86903271256742
 10
65.33875118424284
 20
104.2999825322477
 10
59.73828942552969
 20
110.00131889124899
 10
56.931698425974645
 20
110.00131889124899
 10
51.296084873164034
 20
115.73844019270796
 10
42.953563930748615
 20
121.40029690190079
 10
40.92001120818459
 20
119.33011616063195
 10
35.30682920907444
 20
106.47297330348904
 10
32.498617650684295
 20
103.61418069827066
 10
29.70938134015372
 20
97.93522954166866
 10
29.70938134015372
 20
95.06041940568389
 10
27.481265470634007
 20
92.79217107791071
 10
23.915095171556626
 20
99.32689751227986
 10
21.84931093153622
 20
101.4298903198203
 10
19.036741353927273
 20
101.4298903198203
 10
12.652020595102176
 20
109.37399413560533
 10
14.052131842392013
 20
112.2246537793039
 10
9.849282201539078
 20
116.50320445979557
 10
11.252577701316602
 20
120.78891874550979
  0
LWPOLYLINE
  5
36
330
17
100
AcDbEntity
  8
GRAY_L
100
AcDbPolyline
 90
5
 70
1
 10
83.63625808158886
 20
141.6725909890131
 10
87.28467267585816
 20
137.95846174839176
 10
85.03955358136639
 20
135.672903936342
 10
81.3911389870971
 20
139.3870331769633
 10
83.63625808158886
 20
141.6725909890131
  0
LWPOLYLINE
  5
37
330
17
100
AcDbEntity
  8
GRAY_L
100
AcDbPolyline
 90
5
 70
1
 10
64.55159298976668
 20
139.3870331769633
 10
66.79671208425842
 20
141.6725909890131
 10
69.04183117875019
 20
139.3870331769633
 10
66.79671208425842
 20
137.10147536491334
 10
64.55159298976668
 20
139.3870331769633
  0
LWPOLYLINE
  5
38
330
17
100
AcDbEntity
  8
GRAY_L
100
AcDbPolyline
 90
7
 70
1
 10
47.09590968713487
 20
137.15712538939061
 10
44.90545599288118
 20
139.3870331769633
 10
47.10862992753187
 20
141.6298903198203
 10
49.99911124676906
 20
141.6298903198203
 10
53.60558068119731
 20
137.95846174839176
 10
51.38779428682455
 20
135.70072894858055
 10
47.09590968713487
 20
137.15712538939061
  0
LWPOLYLINE
  5
39
330
17
100
AcDbEntity
  8
GRAY_L
100
AcDbPolyline
 90
135
 70
1
 10
991.0855609242544
 20
166.4432457608438
 10
985.9435290409848
 20
177.9371126802547
 10
985.9435290409848
 20
182.2166165202017
 10
983.387118779844
 20
186.50233080591616
 10
983.387118779844
 20
189.42523984802628
 10
985.3597156607569
 20
191.62989031982036
 10
989.1943310524682
 20
191.62989031982036
 10
990.4725361830386
 20
193.0584617483917
 10
1005.8109977498834
 20
193.0584617483917
 10
1007.6388310865991
 20
195.10131889124892
 10
1005.7976534873907
 20
197.15909009733167
 10
1001.970048455179
 20
198.58504984304503
 10
996.873859111595
 20
202.85682339295175
 10
964.999625062075
 20
201.43186838434767
 10
963.7196500709452
 20
200.00131889124884
 10
953.4045873964973
 20
200.00131889124884
 10
952.1263822659268
 20
201.4298903198204
 10
948.2783421940735
 20
201.4298903198204
 10
943.7684430501818
 20
209.35057780738254
 10
942.490592943226
 20
215.06327636924573
 10
934.2201895278289
 20
228.57274746267754
 10
930.3968950462302
 20
228.57274746267754
 10
929.1634007306022
 20
229.95134835737497
 10
927.9299064149743
 20
228.57274746267754
 10
921.5388807621223
 20
228.57274746267754
 10
920.2606756315519
 20
227.14417603410598
 10
911.2424833678696
 20
227.14417603410598
 10
906.1296628455881
 20
230.00131889124887
 10
898.4417667819703
 20
230.00131889124887
 10
896.4349847269748
 20
232.2441760341061
 10
897.7521233670604
 20
233.71626105683973
 10
899.0303284976309
 20
243.71626105683953
 10
900.3037852927683
 20
245.13952556231212
 10
900.3037852927683
 20
249.42523984802634
 10
901.5819904233388
 20
250.85381127659767
 10
901.5819904233388
 20
255.06311222018584
 10
898.4314324989377
 20
258.5842974565886
 10
893.3186119766561
 20
260.01286888515995
 10
889.483996584945
 20
264.2985831708744
 10
884.3751553247553
 20
265.72604275518927
 10
875.4843203975585
 20
274.2432489415616
 10
873.6614775507901
 20
272.205969363043
 10
873.6614775507901
 20
255.06311222018584
 10
871.6888806698769
 20
252.85846174839176
 10
858.906829364173
 20
252.85846174839176
 10
857.6286242336026
 20
251.42989031982043
 10
855.068272526139
 20
251.42989031982043
 10
844.854845106114
 20
241.44183443607182
 10
835.9007695359375
 20
238.58257136857785
 10
832.052969328956
 20
235.71560460553465
 10
824.3058692088874
 20
235.71560460553465
 10
823.027664078317
 20
237.1441760341062
 10
812.8020230337538
 20
237.1441760341062
 10
811.5201757174947
 20
238.57681811009402
 10
796.2590250847549
 20
239.99818906480442
 10
792.4286102812738
 20
237.1441760341062
 10
779.5686896389237
 20
237.1441760341062
 10
778.2904845083533
 20
238.57274746267754
 10
773.2670856159566
 20
238.57274746267754
 10
771.9888804853862
 20
237.1441760341062
 10
765.5978548325343
 20
237.1441760341062
 10
764.3196497019638
 20
235.71560460553465
 10
756.5609972886565
 20
235.71560460553465
 10
755.2773979683126
 20
237.15020478896443
 10
745.0517569237496
 20
238.57877621753576
 10
743.8025314328492
 20
239.97495888138332
 10
736.1333006494267
 20
235.6892445956691
 10
729.7102718836132
 20
242.8678696537916
 10
723.3192462307612
 20
244.29644108236315
 10
720.7712536326854
 20
247.14417603410598
 10
718.2148433715447
 20
247.14417603410598
 10
716.9366382409743
 20
248.57274746267754
 10
710.6350342180073
 20
248.57274746267754
 10
705.5222136957257
 20
242.85846174839176
 10
704.1545869352703
 20
242.85846174839176
 10
702.1819900543572
 20
245.06311222018584
 10
702.1819900543572
 20
247.9860212622962
 10
704.7148627664859
 20
252.2322758370299
 10
702.8763818046999
 20
254.28703317696312
 10
700.3199715435592
 20
254.28703317696312
 10
699.0417664129887
 20
255.71560460553465
 10
692.6507407601367
 20
255.71560460553465
 10
691.3725356295663
 20
257.14417603410624
 10
683.7033048461441
 20
257.14417603410624
 10
682.4308399712926
 20
258.56633193115084
 10
672.2765797034394
 20
257.1477327417488
 10
667.1573944984184
 20
254.28703317696312
 10
655.5827919735954
 20
254.28703317696312
 10
654.3045868430249
 20
255.71560460553465
 10
650.5593930811987
 20
255.71560460553465
 10
649.2811879506284
 20
254.28703317696312
 10
644.1540819701837
 20
254.28703317696312
 10
637.7692336516084
 20
250.0054613076925
 10
627.5394001334757
 20
248.57630417032018
 10
619.8224185007227
 20
244.2639057877376
 10
603.1671433686547
 20
260.0147032756637
 10
599.3333444544018
 20
261.4429705286532
 10
592.2563488253033
 20
267.91439899904356
 10
592.2563488253033
 20
270.8538112765977
 10
593.5345539558738
 20
272.28238270516925
 10
593.5345539558738
 20
280.8538112765977
 10
594.8127590864441
 20
282.28238270516925
 10
594.8127590864441
 20
290.8390879746858
 10
598.0463067823631
 20
297.344176034106
 10
612.2132391640869
 20
297.344176034106
 10
613.4914442946573
 20
295.91560460553467
 10
655.6722136034803
 20
295.91560460553467
 10
656.9504187340507
 20
294.4870331769631
 10
697.8529829123033
 20
294.4870331769631
 10
699.1311880428736
 20
293.0584617483918
 10
741.3119573516967
 20
293.0584617483918
 10
742.5901624822671
 20
291.62989031982045
 10
783.4927266605197
 20
291.62989031982045
 10
784.7709317910901
 20
290.2013188912489
 10
826.9517010999131
 20
290.2013188912489
 10
828.2299062304835
 20
288.77274746267756
 10
869.1324704087363
 20
288.77274746267756
 10
870.4106755393066
 20
287.344176034106
 10
912.5914448481296
 20
287.344176034106
 10
913.8696499787
 20
285.91560460553467
 10
954.7722141569526
 20
285.91560460553467
 10
956.050419287523
 20
284.48703317696334
 10
990.5619578129237
 20
284.48703317696334
 10
991.8401629434941
 20
283.0584617483918
 10
994.3071515747499
 20
283.0584617483918
 10
995.5853567053204
 20
284.48703317696334
 10
998.231188596346
 20
284.48703317696334
 10
999.5093937269164
 20
283.0584617483918
 10
1014.8478552937612
 20
283.0584617483918
 10
1016.8204521746742
 20
280.8538112765977
 10
1016.8204521746742
 20
177.92025507732868
 10
1014.8478552937612
 20
175.7156046055346
 10
1012.2727797524249
 20
175.7156046055346
 10
994.367312010888
 20
165.70968340439208
 10
991.0855609242544
 20
166.4432457608438
  0
LWPOLYLINE
  5
3A
330
17
100
AcDbEntity
  8
GRAY_L
100
AcDbPolyline
 90
18
 70
1
 10
1382.5089747193022
 20
202.14932782401652
 10
1380.638130721702
 20
206.5093416677284
 10
1380.638130721702
 20
209.41166451224169
 10
1384.0490890587116
 20
215.9156046055346
 10
1418.502774268671
 20
215.9156046055346
 10
1419.1218073532757
 20
214.47294406192242
 10
1425.2516830327772
 20
213.04437263335086
 10
1426.8210155657548
 20
209.38703317696317
 10
1425.2456375161228
 20
205.71560460553462
 10
1420.3417369725216
 20
205.71560460553462
 10
1419.7308883626106
 20
204.29201803228736
 10
1401.3412613241053
 20
202.8634466037158
 10
1400.7261347981157
 20
201.4298903198204
 10
1394.4644428825484
 20
201.4298903198204
 10
1393.851455314598
 20
202.85846174839173
 10
1392.1443088468134
 20
202.85846174839173
 10
1391.5289906199973
 20
201.42445870449956
 10
1382.5089747193022
 20
202.14932782401652
  0
LWPOLYLINE
  5
3B
330
17
100
AcDbEntity
  8
GRAY_L
100
AcDbPolyline
 90
17
 70
1
 10
1336.2277369611395
 20
148.57947555564576
 10
1335.6176363593313
 20
150.001318891249
 10
1329.5077115905167
 20
150.001318891249
 10
1328.241834633242
 20
151.4763860441577
 10
1326.6952247420866
 20
155.08077023915678
 10
1326.6952247420866
 20
173.69329611476968
 10
1328.2602088357025
 20
177.34050150554847
 10
1353.5038715275296
 20
178.7753921536188
 10
1354.7720181125396
 20
177.2976803097688
 10
1356.3274452514845
 20
173.6727474626776
 10
1355.0926528677946
 20
170.79505595344258
 10
1355.0926528677946
 20
162.2236273820139
 10
1353.8666777318945
 20
159.36648452487123
 10
1353.8666777318945
 20
153.65219881058545
 10
1352.320067840739
 20
150.04781461558636
 10
1349.823945827864
 20
147.13920049658748
 10
1336.2277369611395
 20
148.57947555564576
  0
LWPOLYLINE
  5
3C
330
17
100
AcDbEntity
  8
GRAY_L
100
AcDbPolyline
 90
33
 70
1
 10
2360.7502197262543
 20
150.85529108967012
 10
2364.929611338266
 20
156.5709157866637
 10
2366.32386055388
 20
163.72118368775813
 10
2367.702313127368
 20
165.13503496757443
 10
2366.312503214412
 20
173.68803662433118
 10
2367.7262672054367
 20
176.58817561570794
 10
2369.853546158755
 20
178.7700831608223
 10
2392.138412922183
 20
180.19865458939367
 10
2393.533814690415
 20
181.62989031982036
 10
2404.7691741896624
 20
181.62989031982036
 10
2408.9419691981375
 20
175.92328696219695
 10
2418.598476713
 20
177.3382136675925
 10
2420.0392598686635
 20
178.8159961809348
 10
2422.228466127735
 20
176.57057103486818
 10
2422.228466127735
 20
173.63206674762966
 10
2420.835661955021
 20
172.2034953190581
 10
2420.835661955021
 20
160.77492389048675
 10
2419.453132317913
 20
159.35689084792614
 10
2420.845936490627
 20
153.64260513364036
 10
2416.6430336150365
 20
149.3317715773126
 10
2413.857425269608
 20
142.18891443445548
 10
2409.6790127514655
 20
137.90320014874123
 10
2406.893404406037
 20
130.76034300588412
 10
2400.5821673473415
 20
124.2870331769632
 10
2394.9266188631295
 20
124.2870331769632
 10
2393.5759805870925
 20
125.6723558872772
 10
2389.4085349790776
 20
121.39789014229385
 10
2379.615227188907
 20
128.57274746267765
 10
2376.824037173476
 20
128.57274746267765
 10
2365.681603791762
 20
138.57274746267746
 10
2362.8921228907025
 20
138.57274746267746
 10
2359.3454880910826
 20
142.21045995778047
 10
2360.7502197262543
 20
150.85529108967012
  0
LWPOLYLINE
  5
3D
330
17
100
AcDbEntity
  8
GRAY_L
100
AcDbPolyline
 90
22
 70
1
 10
2297.488188148659
 20
177.40352329161203
 10
2300.2887779258695
 20
173.0947597727499
 10
2303.581272970568
 20
175.1209876266211
 10
2300.2581010152394
 20
178.52949874442015
 10
2298.865296842525
 20
177.10092731584882
 10
2296.6241182733515
 20
179.3996594226086
 10
2301.66187209808
 20
183.0904619259184
 10
2304.436513533382
 20
180.24456760950613
 10
2305.8163863910977
 20
181.6598756464951
 10
2309.9947989092407
 20
178.8027327893522
 10
2311.3910166931114
 20
180.23480549072391
 10
2317.012052740899
 20
175.91076716529776
 10
2326.7693592797586
 20
174.4810708104496
 10
2328.907979625938
 20
172.28753062514213
 10
2330.3060674384906
 20
150.77766933837822
 10
2328.1643540630935
 20
148.58095669476336
 10
2310.672859505475
 20
144.9928213549141
 10
2289.712069719882
 20
165.05861399226674
 10
2289.712069719882
 20
173.71342817772552
 10
2291.8591100822764
 20
175.91560460553458
 10
2296.037522600419
 20
175.91560460553458
 10
2297.488188148659
 20
177.40352329161203
  0
LWPOLYLINE
  5
3E
330
17
100
AcDbEntity
  8
GRAY_L
100
AcDbPolyline
 90
7
 70
1
 10
2056.572388999926
 20
1.4258947383984921
 10
2046.006801001771
 20
2.148355580868344
 10
2044.5578151341833
 20
5.12074732321155
 10
2046.7255756845707
 20
7.344176034106087
 10
2056.559536686925
 20
7.344176034106087
 10
2058.731358689589
 20
5.116581572708667
 10
2056.572388999926
 20
1.4258947383984921
  0
LWPOLYLINE
  5
3F
330
17
100
AcDbEntity
  8
GRAY_L
100
AcDbPolyline
 90
148
 70
1
 10
1901.896045983558
 20
229.97864699184169
 10
1900.4811375495754
 20
231.42989031982043
 10
1897.7798609975016
 20
231.42989031982043
 10
1896.34489092811
 20
229.9580701729915
 10
1894.130903028768
 20
232.22891335264652
 10
1896.2875353921913
 20
235.9156046055346
 10
1900.4905917752092
 20
235.9156046055346
 10
1905.246145740651
 20
239.39965942260844
 10
1903.2667458950039
 20
241.42989031982043
 10
1899.088333376861
 20
241.42989031982043
 10
1895.5277686537604
 20
245.0818904592864
 10
1896.9205728264747
 20
247.9390333164293
 10
1894.1556846690387
 20
250.7749238904866
 10
1894.1556846690387
 20
253.71342817772535
 10
1896.9016308256998
 20
256.5298903198203
 10
1892.7628804963244
 20
260.77492389048683
 10
1892.7628804963244
 20
263.71342817772535
 10
1894.9520867553956
 20
265.95885332379197
 10
1897.7376951008243
 20
263.1017104666491
 10
1900.5103721312544
 20
265.94558993220943
 10
1904.688784649397
 20
263.0884470750665
 10
1908.0837263961812
 20
266.57057103486824
 10
1908.0837263961812
 20
280.77492389048666
 10
1905.2981180507527
 20
283.63206674762955
 10
1905.2981180507527
 20
305.0606381762009
 10
1903.9053138780384
 20
306.48920960477244
 10
1903.9053138780384
 20
317.9177810333438
 10
1900.4811375495754
 20
321.4298903198203
 10
1899.1726651702159
 20
321.4298903198203
 10
1894.3556846690385
 20
316.48920960477244
 10
1894.3556846690385
 20
313.7134281777254
 10
1897.1809552032346
 20
310.8156046055346
 10
1894.395346857806
 20
307.9584617483917
 10
1897.1291844033976
 20
305.1544191668869
 10
1898.5478739760304
 20
300.7890544677154
 10
1894.3831098989006
 20
296.5173391154174
 10
1897.168718244329
 20
292.2316248297032
 10
1892.1664784099673
 20
287.1009273158487
 10
1888.5844679781817
 20
290.77492389048666
 10
1888.5844679781817
 20
293.7134281777254
 10
1891.3199800974326
 20
296.51918833599433
 10
1885.7988596327532
 20
300.7663655975532
 10
1885.7988596327532
 20
303.702390524242
 10
1888.5652007209235
 20
307.9584617483917
 10
1885.7714344028914
 20
312.25672723850886
 10
1888.5448057894143
 20
315.10131889124904
 10
1883.7674874770046
 20
320.00131889124896
 10
1881.0662109249308
 20
320.00131889124896
 10
1879.034838769182
 20
317.9177810333438
 10
1879.034838769182
 20
285.0606381762009
 10
1877.6816967852353
 20
283.6727474626775
 10
1879.034838769182
 20
282.2848567491541
 10
1879.034838769182
 20
249.42771389201113
 10
1881.0240450282533
 20
247.3874247523633
 10
1882.3746833042903
 20
248.77274746267753
 10
1887.9458999951473
 20
248.77274746267753
 10
1889.3808700645388
 20
250.2445676095062
 10
1894.395346857806
 20
245.10131889124898
 10
1890.1979923388885
 20
240.79617617357218
 10
1891.5965774302588
 20
237.9271745707643
 10
1886.5842948089835
 20
234.25503299943685
 10
1884.39227867119
 20
236.50334018200115
 10
1885.7850828439043
 20
240.7890544677156
 10
1881.0240450282533
 20
245.67235588727732
 10
1879.034838769182
 20
243.6320667476295
 10
1879.034838769182
 20
236.48920960477238
 10
1876.887798406788
 20
234.28703317696332
 10
1860.1741483342173
 20
234.28703317696332
 10
1858.7765595878748
 20
232.85355430675912
 10
1852.3715594876116
 20
233.5834966076933
 10
1852.3715594876116
 20
366.62463760693663
 10
1865.7247894363334
 20
367.3454871502195
 10
1871.2985627063815
 20
364.48703317696317
 10
1874.0178582680046
 20
364.48703317696317
 10
1875.410662440719
 20
365.9156046055347
 10
1892.2086443066448
 20
365.9156046055347
 10
1893.601448479359
 20
364.48703317696317
 10
1918.6719235882153
 20
364.48703317696317
 10
1920.0647277609296
 20
363.0584617483916
 10
1945.1352028697856
 20
363.0584617483916
 10
1946.5280070425
 20
361.6298903198203
 10
1972.9912863240704
 20
361.6298903198203
 10
1974.3852545433576
 20
360.20012495192265
 10
2024.5262047610702
 20
358.7715535233511
 10
2026.6720810768913
 20
356.57057103486835
 10
2026.6720810768913
 20
353.6320667476296
 10
2023.8841684351723
 20
350.77256041979376
 10
2022.4918143158695
 20
326.4946935176296
 10
2014.136843522463
 20
315.0686579022528
 10
2014.136843522463
 20
309.4277138920112
 10
2015.5296476951773
 20
307.9991424634396
 10
2015.5296476951773
 20
305.13682190584035
 10
2022.4854886896271
 20
296.57546124852007
 10
2023.8771554982957
 20
290.8658418205965
 10
2028.0648852496056
 20
286.5705710348683
 10
2028.0648852496056
 20
282.2848567491541
 10
2032.2829599565155
 20
277.9584617483917
 10
2030.054091508677
 20
275.6723558872773
 10
2028.6612873359627
 20
277.10092731584865
 10
2025.8756789905342
 20
274.24378445870576
 10
2021.655100575714
 20
278.57274746267757
 10
2010.5306862035493
 20
278.57274746267757
 10
2004.9594695126923
 20
281.42989031982023
 10
1997.9774296395717
 20
281.42989031982023
 10
1996.5846254668575
 20
282.8584617483918
 10
1982.7409155330702
 20
282.8584617483918
 10
1981.348111360356
 20
281.42989031982023
 10
1978.5543503381884
 20
281.42989031982023
 10
1972.9831336473314
 20
277.144176034106
 10
1970.197525301903
 20
277.144176034106
 10
1964.6336021637462
 20
272.86407238691777
 10
1956.284372273738
 20
271.4367993233258
 10
1954.8848320787854
 20
270.0013188912489
 10
1946.5280070425
 20
270.0013188912489
 10
1945.1352028697856
 20
268.57274746267757
 10
1940.9343406350138
 20
268.57274746267757
 10
1934.0077359658248
 20
265.7309554229168
 10
1929.1757889868945
 20
260.77492389048683
 10
1929.1757889868945
 20
259.4277138920111
 10
1933.9879849144434
 20
254.4919406185957
 10
1946.5232224688716
 20
255.92051204716725
 10
1949.3136153879284
 20
253.05846174839175
 10
1956.2776362514996
 20
253.05846174839175
 10
1957.6704404242141
 20
251.62989031982042
 10
1964.6164422782356
 20
251.62989031982042
 10
1967.3837440614827
 20
250.21070722889172
 10
1978.501768693621
 20
254.48703317696308
 10
1984.0493879124297
 20
254.48703317696308
 10
1986.8349962578582
 20
257.3441760341062
 10
1989.7049363966414
 20
257.3441760341062
 10
1991.8916389478027
 20
255.10131889124898
 10
1984.143569368821
 20
247.1542786368057
 10
1978.572352677964
 20
245.72570720823438
 10
1975.776894669499
 20
242.85846174839176
 10
1972.980040984913
 20
242.85846174839176
 10
1968.8016284667704
 20
240.00131889124887
 10
1966.0272654604996
 20
240.00131889124887
 10
1963.2515067781078
 20
237.15427863680594
 10
1957.6861501167239
 20
235.72720983703888
 10
1952.1058816895431
 20
228.57274746267754
 10
1950.703642280328
 20
228.57274746267754
 10
1935.4014251606472
 20
214.3044033295529
 10
1932.5721468783129
 20
212.85343620983775
 10
1929.0256193933244
 20
213.5809566947635
 10
1922.7660043130034
 20
220.00131889124884
 10
1918.5939816615357
 20
220.00131889124884
 10
1904.6889872102126
 20
231.4109790153389
 10
1901.896045983558
 20
229.97864699184169
  0
LWPOLYLINE
  5
40
330
17
100
AcDbEntity
  8
GRAY_L
100
AcDbPolyline
 90
7
 70
1
 10
1904.1053138780385
 20
256.4892096047724
 10
1904.1053138780385
 20
253.71342817772535
 10
1906.0945201371098
 20
251.67313903807775
 10
1908.0837263961812
 20
253.71342817772535
 10
1908.0837263961812
 20
256.4892096047724
 10
1906.0945201371098
 20
258.5294987444202
 10
1904.1053138780385
 20
256.4892096047724
  0
LWPOLYLINE
  5
41
330
17
100
AcDbEntity
  8
GRAY_L
100
AcDbPolyline
 90
12
 70
1
 10
1997.9868838652058
 20
14.487033176963205
 10
2010.5758418702546
 20
14.487033176963205
 10
2020.3254710792544
 20
10.201318891248977
 10
2023.1219635964158
 20
10.201318891248977
 10
2032.296483986518
 20
3.686618790204599
 10
2028.7021673625754
 20
0.0
 10
2005.6502904009071
 20
0.7164803000572206
 10
2002.1697029186046
 20
2.858461748391772
 10
1995.1918212941432
 20
2.858461748391772
 10
1993.0447809317495
 20
5.06063817620106
 10
1993.0447809317495
 20
10.866307251675034
 10
1997.9868838652058
 20
14.487033176963205
  0
LWPOLYLINE
  5
42
330
17
100
AcDbEntity
  8
GRAY_L
100
AcDbPolyline
 90
7
 70
1
 10
2011.8874523571649
 20
271.6114085815273
 10
2014.753307244229
 20
273.08113364779894
 10
2016.9517292049459
 20
270.826256140573
 10
2013.3977667221811
 20
265.72293644583266
 10
2008.4296425943942
 20
264.99497848656995
 10
2006.9331604701244
 20
266.5298903198203
 10
2011.8874523571649
 20
271.6114085815273
  0
LWPOLYLINE
  5
43
330
17
100
AcDbEntity
  8
GRAY_L
100
AcDbPolyline
 90
5
 70
1
 10
1998.0195955362492
 20
257.1009273158489
 10
1995.7907270884104
 20
259.3870331769632
 10
1998.0195955362492
 20
261.67313903807775
 10
2000.2484639840884
 20
259.3870331769632
 10
1998.0195955362492
 20
257.1009273158489
  0
LWPOLYLINE
  5
44
330
17
100
AcDbEntity
  8
GRAY_L
100
AcDbPolyline
 90
11
 70
1
 10
1888.5844679781817
 20
276.57057103486824
 10
1891.3493561356177
 20
279.4064616089258
 10
1889.9476653244446
 20
282.2818341613076
 10
1893.5750218421845
 20
284.5141384510286
 10
1897.1809552032346
 20
280.8156046055346
 10
1895.7881510305203
 20
279.3870331769632
 10
1897.141293014467
 20
277.9991424634396
 10
1897.141293014467
 20
272.20349531905816
 10
1893.5824960764826
 20
268.55330836148704
 10
1888.5844679781817
 20
270.7503273416052
 10
1888.5844679781817
 20
276.57057103486824
  0
LWPOLYLINE
  5
45
330
17
100
AcDbEntity
  8
GRAY_L
100
AcDbPolyline
 90
26
 70
1
 10
2889.1969672547475
 20
194.28703317696326
 10
2886.9810513047414
 20
194.28703317696326
 10
2880.297539112954
 20
200.03206128278705
 10
2874.1766068562924
 20
207.92422789503084
 10
2874.1766068562924
 20
209.42126703032415
 10
2876.9975080824584
 20
213.05846174839172
 10
2892.5089197325
 20
213.05846174839172
 10
2894.724835682506
 20
215.9156046055346
 10
2897.038739055197
 20
215.9156046055346
 10
2898.1466970301994
 20
214.48703317696328
 10
2913.6581086802416
 20
214.48703317696328
 10
2914.766066655245
 20
213.05846174839172
 10
2917.9919531575697
 20
213.05846174839172
 10
2919.0999111325723
 20
214.48703317696328
 10
2932.4933942552934
 20
214.48703317696328
 10
2935.327982837567
 20
210.8321903474053
 10
2934.2063375064554
 20
207.93975126728137
 10
2934.2063375064554
 20
196.4994055328595
 10
2926.980056822475
 20
185.74859011780953
 10
2923.6178090080125
 20
182.85846174839193
 10
2916.9819826052512
 20
182.85846174839193
 10
2915.847879908788
 20
181.39618001407888
 10
2913.5820461815697
 20
182.85693276717342
 10
2899.7126300602263
 20
182.14161857479638
 10
2892.4850768379874
 20
191.4606327113586
 10
2889.1969672547475
 20
194.28703317696326
  0
LWPOLYLINE
  5
46
330
17
100
AcDbEntity
  8
GRAY_L
100
AcDbPolyline
 90
33
 70
1
 10
2889.8676571156107
 20
237.89585865311037
 10
2887.0320804031885
 20
232.77729499564992
 10
2884.121677861727
 20
236.5298903198203
 10
2887.445551786736
 20
240.81560460553476
 10
2885.2345614931487
 20
243.66639645281518
 10
2889.666393393161
 20
250.8092535956723
 10
2888.569116343775
 20
252.22405332395215
 10
2890.795976481337
 20
259.40218832482674
 10
2890.795976481337
 20
263.7069813160384
 10
2893.0170352875616
 20
266.57075523466546
 10
2894.124993262564
 20
273.71361237752257
 10
2896.3409092125703
 20
276.57075523466546
 10
2897.448867187574
 20
283.71361237752257
 10
2900.2646255575214
 20
287.344176034106
 10
2912.544696503594
 20
287.344176034106
 10
2919.2135929385995
 20
280.1785952072662
 10
2923.649283713573
 20
277.318964584955
 10
2928.6665476314406
 20
270.84983845889553
 10
2928.6665476314406
 20
263.7069813160384
 10
2930.8795616777097
 20
260.85358009608785
 10
2931.987519652713
 20
247.99643723894494
 10
2934.2020257157133
 20
245.1411122524605
 10
2935.3188015650976
 20
236.5014664903835
 10
2932.488356618589
 20
232.85196635413863
 10
2921.4087768685586
 20
234.28053778271018
 10
2920.2637959752424
 20
232.8042299918416
 10
2913.6014029142175
 20
239.9628230880484
 10
2910.322313307977
 20
237.1441760341062
 10
2908.1116575903766
 20
237.1441760341062
 10
2902.553364203648
 20
231.41080397267854
 10
2900.804397411018
 20
232.16249433333647
 10
2893.653555543241
 20
241.38259889778158
 10
2889.8676571156107
 20
237.89585865311037
  0
LWPOLYLINE
  5
47
330
17
100
AcDbEntity
  8
GRAY_L
100
AcDbPolyline
 90
12
 70
1
 10
2902.4805415075275
 20
75.9156046055347
 10
2908.118318805227
 20
75.9156046055347
 10
2909.185687354526
 20
74.53936809865813
 10
2914.725477229541
 20
80.25365381294381
 10
2918.7143416654353
 20
75.11051851889272
 10
2915.900330793673
 20
70.03088384817457
 10
2913.60054815501
 20
68.54824468511889
 10
2910.2998083650614
 20
71.38550185157777
 10
2907.0057912881352
 20
67.13828418855205
 10
2900.81428925326
 20
67.86402577036455
 10
2898.525131536767
 20
70.81560460553472
 10
2902.4805415075275
 20
75.9156046055347
  0
LWPOLYLINE
  5
48
330
17
100
AcDbEntity
  8
GRAY_L
100
AcDbPolyline
 90
17
 70
1
 10
2752.9062148821195
 20
268.57274746267757
 10
2737.3948032320773
 20
268.57274746267757
 10
2733.479135371474
 20
273.62150504702385
 10
2727.910958274918
 20
286.544531010007
 10
2730.747055382059
 20
290.2013188912489
 10
2737.3948032320773
 20
290.2013188912489
 10
2739.6107191820834
 20
293.0584617483918
 10
2741.924622554774
 20
293.0584617483918
 10
2744.14053850478
 20
290.2013188912489
 10
2760.759908129826
 20
290.2013188912489
 10
2761.8678661048284
 20
288.77274746267756
 10
2802.8623111799398
 20
288.77274746267756
 10
2805.683212406105
 20
285.13555274460975
 10
2805.683212406105
 20
282.21754622683414
 10
2796.2223724649107
 20
265.7136196865251
 10
2754.0128945421075
 20
267.1458242593534
 10
2752.9062148821195
 20
268.57274746267757
  0
LWPOLYLINE
  5
49
330
17
100
AcDbEntity
  8
GRAY_L
100
AcDbPolyline
 90
35
 70
1
 10
2502.605699954122
 20
235.71560460553465
 10
2499.203391864732
 20
235.71560460553465
 10
2497.0397653576465
 20
237.1104657283647
 10
2493.7420361540976
 20
232.85846174839176
 10
2490.3201748064043
 20
232.85846174839176
 10
2486.3913156052354
 20
237.92422789503087
 10
2486.3913156052354
 20
242.27840988746706
 10
2487.499273580239
 20
243.7069813160384
 10
2487.499273580239
 20
253.70698131603842
 10
2489.716942892776
 20
256.56638491201034
 10
2490.8249008677785
 20
277.99495634058167
 10
2493.039063455254
 20
280.84983845889553
 10
2493.039063455254
 20
290.84983845889553
 10
2495.8599646814196
 20
294.4870331769631
 10
2512.4793343064644
 20
294.4870331769631
 10
2514.6952502564704
 20
297.344176034106
 10
2529.196691354194
 20
297.344176034106
 10
2535.3414665053683
 20
289.4212670303242
 10
2535.3414665053683
 20
279.4212670303242
 10
2537.555362511579
 20
276.5667286347757
 10
2538.663320486582
 20
257.99530006334703
 10
2540.881256380384
 20
255.13555274460998
 10
2540.881256380384
 20
245.13555274460995
 10
2543.0971723303896
 20
242.27840988746706
 10
2543.0971723303896
 20
239.3527993236022
 10
2539.1421684077613
 20
234.2533228712218
 10
2534.699977116074
 20
237.11714428987074
 10
2530.2820581082974
 20
232.8448841879689
 10
2525.8598748998484
 20
234.27034542522418
 10
2523.6307567577196
 20
231.3961800140789
 10
2516.9726495160257
 20
235.68857286129918
 10
2512.562632948938
 20
231.42395465640897
 10
2507.4882900553125
 20
232.15092379344136
 10
2503.6646642177825
 20
237.08100485091842
 10
2502.605699954122
 20
235.71560460553465
  0
LWPOLYLINE
  5
4A
330
17
100
AcDbEntity
  8
GRAY_L
100
AcDbPolyline
 90
5
 70
1
 10
3648.136775754144
 20
73.5727474626775
 10
3646.6862517729346
 20
73.5727474626775
 10
3645.3615283947497
 20
76.54818487847004
 10
3647.4586889896736
 20
78.9033822743258
 10
3648.136775754144
 20
73.5727474626775
  0
LWPOLYLINE
  5
4B
330
17
100
AcDbEntity
  8
GRAY_L
100
AcDbPolyline
 90
5
 70
1
 10
3637.980697456687
 20
76.52989031982038
 10
3635.9387144358266
 20
74.23665960360648
 10
3633.896731414966
 20
76.52989031982038
 10
3635.9387144358266
 20
78.82312103603428
 10
3637.980697456687
 20
76.52989031982038
  0
LWPOLYLINE
  5
4C
330
17
100
AcDbEntity
  8
GRAY_L
100
AcDbPolyline
 90
38
 70
1
 10
3608.4718954251966
 20
156.5115957611707
 10
3609.743951734492
 20
159.36873861831359
 10
3607.8899217405933
 20
161.45089037342396
 10
3600.294982435779
 20
165.7156046055346
 10
3593.9160016138267
 20
165.7156046055346
 10
3590.646816898938
 20
169.38703317696314
 10
3593.1909295175287
 20
172.24417603410603
 10
3590.0998326859417
 20
175.7156046055346
 10
3582.4674948301727
 20
175.7156046055346
 10
3581.1954385208774
 20
177.14417603410615
 10
3578.7410351328217
 20
177.14417603410615
 10
3577.430116638339
 20
175.67196077702874
 10
3569.0226968779307
 20
183.66124161368535
 10
3575.416039744318
 20
192.27722524765832
 10
3575.416039744318
 20
203.70185457825895
 10
3578.641270388009
 20
208.7727474626775
 10
3583.739551139467
 20
208.7727474626775
 10
3585.0564620640293
 20
210.25169246460607
 10
3586.373372988592
 20
208.7727474626775
 10
3591.461598225772
 20
208.7727474626775
 10
3592.7336545350663
 20
207.34417603410594
 10
3597.732170541711
 20
207.34417603410594
 10
3599.0042268510065
 20
208.7727474626775
 10
3611.7363576833627
 20
208.7727474626775
 10
3615.5525266112472
 20
211.6298903198204
 10
3628.3512311953245
 20
211.6298903198204
 10
3629.5784328893515
 20
210.25169246460607
 10
3630.8504891986468
 20
211.6802638931774
 10
3634.1306299718844
 20
207.9965312186889
 10
3634.1306299718844
 20
205.06619303069184
 10
3622.6777697808548
 20
190.7750464615272
 10
3620.133300929896
 20
170.77224601656638
 10
3618.883562621134
 20
169.36873861831336
 10
3620.1380105696403
 20
166.55114558446505
 10
3620.1380105696403
 20
159.3489637066663
 10
3618.184412827331
 20
157.1549932847658
 10
3609.82750589426
 20
154.9891895829023
 10
3608.4718954251966
 20
156.5115957611707
  0
LWPOLYLINE
  5
4D
330
17
100
AcDbEntity
  8
GRAY_L
100
AcDbPolyline
 90
5
 70
1
 10
3629.5784328893515
 20
74.23665960360648
 10
3627.5364498684917
 20
76.52989031982038
 10
3629.5784328893515
 20
78.82312103603428
 10
3631.6204159102117
 20
76.52989031982038
 10
3629.5784328893515
 20
74.23665960360648
  0
LWPOLYLINE
  5
4E
330
17
100
AcDbEntity
  8
GRAY_L
100
AcDbPolyline
 90
35
 70
1
 10
3577.960152362907
 20
217.90298579712731
 10
3577.960152362907
 20
222.2822455044031
 10
3579.1983101152846
 20
223.6727474626774
 10
3576.6914229394374
 20
226.48808462023752
 10
3575.4193666301426
 20
240.7737989059522
 10
3572.8719271257273
 20
243.63467799238038
 10
3572.8719271257273
 20
247.92039227809482
 10
3571.6040077158705
 20
249.34431779885836
 10
3570.3234990829415
 20
260.8488276773941
 10
3572.291044355813
 20
263.0584617483918
 10
3586.373372988592
 20
263.0584617483918
 10
3587.6454292978865
 20
261.62989031982045
 10
3600.3659923908363
 20
261.62989031982045
 10
3601.6380487001306
 20
260.2013188912489
 10
3614.3586117930804
 20
260.2013188912489
 10
3616.9027244116696
 20
257.3441760341062
 10
3620.7188933395546
 20
257.3441760341062
 10
3622.6821231882295
 20
255.13938836154603
 10
3622.6821231882295
 20
250.85367407583158
 10
3625.22623580682
 20
247.99653121868892
 10
3625.22623580682
 20
239.33905210242236
 10
3616.3665382733006
 20
232.2320493532477
 10
3617.6277965079676
 20
230.81560460553453
 10
3615.630668102375
 20
228.57274746267754
 10
3609.1806773253657
 20
228.57274746267754
 10
3607.908621016071
 20
230.00131889124887
 10
3605.454217628015
 20
230.00131889124887
 10
3604.1584913337015
 20
228.5461650983074
 10
3601.6143787151113
 20
229.97473652687873
 10
3599.785109620921
 20
227.9203922780948
 10
3599.785109620921
 20
222.20610656380902
 10
3597.798209787227
 20
219.9747365268787
 10
3592.704622530708
 20
222.83489026788405
 10
3583.7976015122467
 20
214.26093307004513
 10
3577.960152362907
 20
217.90298579712731
  0
LWPOLYLINE
  5
4F
330
17
100
AcDbEntity
  8
GRAY_L
100
AcDbPolyline
 90
20
 70
1
 10
3585.046554017053
 20
71.40963998829963
 10
3580.4508662554
 20
75.09617278841485
 10
3587.561608020857
 20
81.62989031982038
 10
3597.7984545356694
 20
81.62989031982038
 10
3604.1587360821445
 20
78.77274746267749
 10
3607.988628049052
 20
78.77274746267749
 10
3612.5283861537787
 20
75.13107987653034
 10
3611.251224765364
 20
72.26247059275582
 10
3612.50567271387
 20
70.85367407583153
 10
3612.50567271387
 20
66.49182084952355
 10
3610.535839693629
 20
64.27961754436184
 10
3605.9943892424612
 20
65.0082225722326
 10
3604.655726497312
 20
66.51159576117071
 10
3605.9277828066074
 20
69.36873861831361
 10
3602.8321210551003
 20
72.8452937821138
 10
3597.7438958179205
 20
71.41672235354235
 10
3596.460114232417
 20
72.85846174839183
 10
3591.371888995237
 20
72.85846174839183
 10
3590.123502670961
 20
74.26045081259313
 10
3585.046554017053
 20
71.40963998829963
  0
LWPOLYLINE
  5
50
330
17
100
AcDbEntity
  8
GRAY_L
100
AcDbPolyline
 90
5
 70
1
 10
3575.365245421673
 20
73.65377282452246
 10
3577.4075453347577
 20
75.94735942370734
 10
3580.755059304142
 20
73.69172210083252
 10
3578.7127593910573
 20
71.39813550164776
 10
3575.365245421673
 20
73.65377282452246
  0
LWPOLYLINE
  5
51
330
17
100
AcDbEntity
  8
GRAY_L
100
AcDbPolyline
 90
5
 70
1
 10
3576.152067898965
 20
175.9659781788916
 10
3578.1940509198257
 20
173.6727474626776
 10
3576.152067898965
 20
171.37951674646334
 10
3574.1100848781048
 20
173.6727474626776
 10
3576.152067898965
 20
175.9659781788916
  0
LWPOLYLINE
  5
52
330
17
100
AcDbEntity
  8
GRAY_L
100
AcDbPolyline
 90
7
 70
1
 10
3569.055758197843
 20
72.29737713733219
 10
3572.352477844582
 20
74.5187879951359
 10
3574.372286200517
 20
72.25046033747395
 10
3568.5275241074637
 20
64.2279065496385
 10
3566.4777470223353
 20
66.52989031982037
 10
3569.055758197843
 20
69.42510264726009
 10
3569.055758197843
 20
72.29737713733219
  0
LWPOLYLINE
  5
53
330
17
100
AcDbEntity
  8
GRAY_L
100
AcDbPolyline
 90
7
 70
1
 10
3557.0263686442736
 20
71.62989031982036
 10
3562.2043031119883
 20
71.62989031982036
 10
3564.2014315175816
 20
69.38703317696326
 10
3562.199196148726
 20
67.13844070482145
 10
3556.3855105398866
 20
67.86388598012527
 10
3555.029240238681
 20
69.38703317696326
 10
3557.0263686442736
 20
71.62989031982036
  0
LWPOLYLINE
  5
54
330
17
100
AcDbEntity
  8
GRAY_L
100
AcDbPolyline
 90
10
 70
1
 10
3468.072136224164
 20
111.62989031982029
 10
3470.0692646297566
 20
109.3870331769633
 10
3468.780918124333
 20
107.94016718974197
 10
3470.0529744336272
 20
105.08302433259931
 10
3468.0563965983647
 20
102.8407855028135
 10
3466.055494622574
 20
103.58981717515393
 10
3460.903251415896
 20
110.82254282606385
 10
3462.9390563717166
 20
113.10883532174887
 10
3464.2559672962793
 20
111.62989031982029
 10
3468.072136224164
 20
111.62989031982029
  0
LWPOLYLINE
  5
55
330
17
100
AcDbEntity
  8
GRAY_L
100
AcDbPolyline
 90
23
 70
1
 10
3424.7645207882692
 20
98.78022075897519
 10
3427.3164731354386
 20
100.21319435597876
 10
3433.703190636625
 20
97.34417603410606
 10
3437.542784801085
 20
97.34417603410606
 10
3438.8148411103803
 20
95.91560460553472
 10
3443.813357117025
 20
95.91560460553472
 10
3446.369195011824
 20
98.78591542895543
 10
3451.451279629899
 20
97.35906804218608
 10
3457.800510817219
 20
105.91560460553472
 10
3459.1677420590995
 20
105.91560460553472
 10
3462.4369267739867
 20
102.24417603410618
 10
3458.6298989729316
 20
97.96872760888742
 10
3463.675084526364
 20
93.71926482126769
 10
3463.675084526364
 20
92.20610656380912
 10
3462.4030282170697
 20
90.77753513523757
 10
3462.4030282170697
 20
85.06324942095212
 10
3460.4323821516623
 20
82.8501330327106
 10
3428.5418353751566
 20
88.58043583563457
 10
3426.0045687868965
 20
91.42989031982029
 10
3418.3722309311274
 20
91.42989031982029
 10
3416.3894586062956
 20
93.65662499494309
 10
3419.636296249239
 20
100.22002240183991
 10
3424.7645207882692
 20
98.78022075897519
  0
LWPOLYLINE
  5
56
330
17
100
AcDbEntity
  8
GRAY_L
100
AcDbPolyline
 90
6
 70
1
 10
3456.623629440509
 20
114.48703317696318
 10
3458.620757846102
 20
112.24417603410619
 10
3455.3067185159475
 20
108.52237388932062
 10
3451.992679185792
 20
112.24417603410619
 10
3453.9898075913848
 20
114.48703317696318
 10
3456.623629440509
 20
114.48703317696318
  0
LWPOLYLINE
  5
57
330
17
100
AcDbEntity
  8
GRAY_L
100
AcDbPolyline
 90
5
 70
1
 10
3450.2184932787677
 20
104.23665960360617
 10
3448.176510257907
 20
106.52989031982041
 10
3450.2184932787677
 20
108.82312103603465
 10
3452.260476299628
 20
106.52989031982041
 10
3450.2184932787677
 20
104.23665960360617
  0
LWPOLYLINE
  5
58
330
17
100
AcDbEntity
  8
GRAY_L
100
AcDbPolyline
 90
14
 70
1
 10
3442.532688791944
 20
111.62989031982029
 10
3443.9105959876642
 20
111.62989031982029
 10
3448.437412301596
 20
105.09357544456455
 10
3447.172251062448
 20
103.67274746267752
 10
3448.4443073717425
 20
102.24417603410618
 10
3446.402324350883
 20
99.95094531789195
 10
3445.130268041588
 20
101.37951674646328
 10
3443.896463175993
 20
99.99390325864744
 10
3434.9118697344034
 20
101.43534141267074
 10
3430.35692385315
 20
105.0891922103907
 10
3432.409704948639
 20
107.39454960746309
 10
3433.7266158732004
 20
105.91560460553472
 10
3438.7165198640587
 20
105.91560460553472
 10
3442.532688791944
 20
111.62989031982029
  0
LWPOLYLINE
  5
59
330
17
100
AcDbEntity
  8
GRAY_L
100
AcDbPolyline
 90
32
 70
1
 10
3200.2019512597712
 20
233.5736697153421
 10
3197.615315883725
 20
237.9310162030932
 10
3197.615315883725
 20
249.34896370666615
 10
3195.07377431329
 20
252.20321917123957
 10
3193.8017180039947
 20
270.77464774266804
 10
3192.5270906465453
 20
272.20610656380904
 10
3192.5270906465453
 20
283.7108169329745
 10
3194.4903204952207
 20
285.91560460553467
 10
3203.394714660285
 20
285.91560460553467
 10
3205.9836818941417
 20
288.8231210360346
 10
3208.5277945127323
 20
285.9659781788917
 10
3211.027052516054
 20
288.77274746267756
 10
3214.9329306744735
 20
288.77274746267756
 10
3218.749099602358
 20
284.48703317696334
 10
3223.766314884481
 20
284.48703317696334
 10
3226.357767473109
 20
285.9421869699048
 10
3227.653493767423
 20
284.48703317696334
 10
3233.924066083363
 20
284.48703317696334
 10
3236.468178701953
 20
287.344176034106
 10
3240.3740568603725
 20
287.344176034106
 10
3242.9181694789618
 20
284.48703317696334
 10
3255.638732571911
 20
284.48703317696334
 10
3257.6057916937657
 20
282.2779450735056
 10
3256.3262180635356
 20
269.3448218777139
 10
3253.7857934927015
 20
266.49182084952326
 10
3253.7857934927015
 20
259.34896370666615
 10
3252.5104102975815
 20
257.9166560488089
 10
3251.2383539882867
 20
243.63094176309463
 10
3249.969624564817
 20
242.20610656380904
 10
3249.969624564817
 20
239.34896370666615
 10
3244.189573383125
 20
232.85772907066016
 10
3200.2019512597712
 20
233.5736697153421
  0
LWPOLYLINE
  5
5A
330
17
100
AcDbEntity
  8
GRAY_L
100
AcDbPolyline
 90
18
 70
1
 10
4226.20982405966
 20
177.1079671562905
 10
4224.187492129654
 20
180.83016800209094
 10
4226.20527219189
 20
183.05846174839192
 10
4228.881199886023
 20
183.05846174839192
 10
4231.424065867838
 20
180.25030020937828
 10
4233.252412017636
 20
182.26939652612705
 10
4231.958802074676
 20
186.5551108118415
 10
4233.966931849653
 20
188.77274746267747
 10
4236.638328440232
 20
188.77274746267747
 10
4245.648272123061
 20
180.24422295537823
 10
4246.947385183361
 20
181.6788716379498
 10
4249.022706697915
 20
179.38703317696337
 10
4246.947385183361
 20
177.09519471597667
 10
4245.653775240401
 20
178.523766144548
 10
4243.108546379401
 20
175.7129952086971
 10
4230.730604202002
 20
176.43243335868198
 10
4228.815868110438
 20
178.54693262374056
 10
4226.20982405966
 20
177.1079671562905
  0
LWPOLYLINE
  5
5B
330
17
100
AcDbEntity
  8
GRAY_L
100
AcDbPolyline
 90
40
 70
1
 10
4217.1733786237955
 20
208.5469326237406
 10
4214.586158737874
 20
207.11836119516903
 10
4212.548571325723
 20
209.36852877934453
 10
4213.842181268683
 20
212.22567163648742
 10
4211.998938851953
 20
214.26121833802637
 10
4209.406554939579
 20
212.8297955164642
 10
4200.933939631323
 20
223.62582370503392
 10
4198.345696597034
 20
232.20064195478662
 10
4194.446672330073
 20
237.94171787173048
 10
4195.7578184171425
 20
242.28552919336744
 10
4206.830178687535
 20
260.2671945313926
 10
4208.885891866032
 20
257.9970101314355
 10
4208.885891866032
 20
246.56843870286417
 10
4210.726306780472
 20
244.53601449509276
 10
4212.566721694912
 20
246.56843870286417
 10
4212.566721694912
 20
255.13986727429284
 10
4214.562782705248
 20
257.3441760341062
 10
4218.443612534128
 20
257.3441760341062
 10
4221.075186324155
 20
260.25030020937834
 10
4223.706760114182
 20
257.3441760341062
 10
4235.260541792612
 20
257.3441760341062
 10
4236.5985056396785
 20
258.821728780807
 10
4239.230079429705
 20
255.91560460553464
 10
4243.110909258587
 20
255.91560460553464
 10
4245.106970268921
 20
253.71129584572128
 10
4245.106970268921
 20
246.49134193677645
 10
4243.81336032596
 20
245.06277050820512
 10
4243.81336032596
 20
236.49134193677645
 10
4242.516887212947
 20
235.05960862547838
 10
4241.223277269986
 20
217.91675148262124
 10
4238.638920554119
 20
215.0627705082051
 10
4238.638920554119
 20
210.77705622249087
 10
4236.642859543786
 20
208.5727474626775
 10
4232.762029714903
 20
208.5727474626775
 10
4231.468419771943
 20
207.14417603410595
 10
4228.7924920778105
 20
207.14417603410595
 10
4227.529760031811
 20
208.53864809477153
 10
4223.688068149714
 20
205.71031935987327
 10
4219.084331786161
 20
206.43661095842768
 10
4217.1733786237955
 20
208.5469326237406
  0
LWPOLYLINE
  5
5C
330
17
100
AcDbEntity
  8
GRAY_L
100
AcDbPolyline
 90
53
 70
1
 10
4161.50965404261
 20
181.42989031982037
 10
4159.506994981638
 20
185.11588228780516
 10
4162.818384986834
 20
188.77274746267747
 10
4173.239849422228
 20
188.77274746267747
 10
4179.187883792452
 20
185.12353138770843
 10
4177.874159835097
 20
183.6727474626776
 10
4179.7240220535305
 20
181.62989031982036
 10
4182.222534131239
 20
181.62989031982036
 10
4184.072396349672
 20
183.6727474626776
 10
4182.813693006826
 20
185.06277050820506
 10
4182.813693006826
 20
188.01443028901966
 10
4188.706706762541
 20
191.62989031982036
 10
4193.953731426094
 20
191.62989031982036
 10
4195.255701894127
 20
190.19208611802264
 10
4201.648293105019
 20
188.7801808975791
 10
4205.519026170336
 20
191.62989031982036
 10
4209.3883429334055
 20
191.62989031982036
 10
4213.269172762287
 20
195.91560460553458
 10
4215.8563926482075
 20
195.91560460553458
 10
4217.150002591167
 20
197.34417603410614
 10
4222.413150171222
 20
197.34417603410614
 10
4224.935477051219
 20
194.558696428069
 10
4226.781202300364
 20
197.95584403848298
 10
4224.185163118485
 20
202.25616743526942
 10
4226.20527219189
 20
204.48703317696325
 10
4227.587589943063
 20
204.48703317696325
 10
4232.205777439431
 20
199.38703317696314
 10
4229.61855755351
 20
196.52989031982025
 10
4233.499387382391
 20
192.24417603410603
 10
4231.424065867838
 20
189.95233757311956
 10
4228.836845981917
 20
192.80948043026225
 10
4224.956016153036
 20
188.52376614454803
 10
4223.618052305969
 20
190.00131889124904
 10
4221.119540228261
 20
190.00131889124904
 10
4219.258819472786
 20
187.94647034722846
 10
4221.846039358706
 20
183.6607560615142
 10
4219.269678009828
 20
180.8156046055347
 10
4221.856897895748
 20
177.9584617483918
 10
4219.802554252674
 20
175.68978976659767
 10
4212.031227985401
 20
179.9808416126145
 10
4206.881511850723
 20
175.7156046055346
 10
4201.626683275644
 20
175.7156046055346
 10
4199.039463389723
 20
178.57274746267748
 10
4196.540951312015
 20
178.57274746267748
 10
4195.247341369055
 20
177.14417603410615
 10
4186.10336396012
 20
177.14417603410615
 10
4184.854107921266
 20
178.523766144548
 10
4183.604851882412
 20
177.14417603410615
 10
4177.13680216761
 20
177.14417603410615
 10
4175.829913158242
 20
175.70094014274872
 10
4166.687634011963
 20
178.58553648416665
 10
4164.1119949297945
 20
181.42989031982037
 10
4161.50965404261
 20
181.42989031982037
  0
LWPOLYLINE
  5
5D
330
17
100
AcDbEntity
  8
GRAY_L
100
AcDbPolyline
 90
32
 70
1
 10
4005.0751666880756
 20
204.2870331769633
 10
4002.422265125565
 20
204.2870331769633
 10
3998.5986406323404
 20
207.10206034664515
 10
3994.7464134712886
 20
201.4298903198204
 10
3993.3519576869767
 20
201.4298903198204
 10
3983.033113311464
 20
214.24971836947492
 10
3979.156650983428
 20
211.39579095191442
 10
3977.1297120761337
 20
213.63419907963376
 10
3977.1297120761337
 20
223.71129584572125
 10
3979.1257730864677
 20
225.9156046055346
 10
3984.3889206665217
 20
225.9156046055346
 10
3985.6886163289296
 20
224.4803125383561
 10
3994.743885929652
 20
223.05174110978453
 10
3996.0314101531644
 20
221.6298903198204
 10
3999.912239982045
 20
221.6298903198204
 10
4001.2058499250056
 20
220.20131889124883
 10
4005.0866797538865
 20
220.20131889124883
 10
4006.380289696847
 20
218.7727474626775
 10
4011.530262805785
 20
218.7727474626775
 10
4021.8791423494677
 20
214.48703317696328
 10
4025.784438841252
 20
214.48703317696328
 10
4028.3716587271724
 20
211.6298903198204
 10
4032.2475848915938
 20
211.6298903198204
 10
4040.756804426426
 20
203.67859880157368
 10
4037.4269283278945
 20
200.00131889124884
 10
4034.8397084419744
 20
200.00131889124884
 10
4032.208134651947
 20
197.0951947159767
 10
4028.3510860007264
 20
201.35464674920334
 10
4025.176514087475
 20
195.0442554568259
 10
4023.1563187854354
 20
192.8132944903205
 10
4008.9130865413968
 20
207.11258487046936
 10
4005.0751666880756
 20
204.2870331769633
  0
LWPOLYLINE
  5
5E
330
17
100
AcDbEntity
  8
GRAY_L
100
AcDbPolyline
 90
42
 70
1
 10
4904.460170149916
 20
119.35308737341255
 10
4904.460170149916
 20
147.99240755194253
 10
4914.325941204357
 20
160.84955040908545
 10
4914.325941204357
 20
166.4926981053234
 10
4904.467183782003
 20
177.91314489823827
 10
4900.223629917285
 20
199.419593007063
 10
4902.404258642277
 20
201.62989031982036
 10
4910.860633831798
 20
201.62989031982036
 10
4912.276157220648
 20
203.06467264047234
 10
4922.14192827509
 20
201.636101211901
 10
4923.587014326338
 20
203.10084841034447
 10
4925.793399370121
 20
200.86444435068464
 10
4927.202795235041
 20
193.7215872078275
 10
4928.619899853558
 20
192.2852021440573
 10
4928.619899853558
 20
187.9994878583431
 10
4931.427957026918
 20
185.15322560690373
 10
4934.246748756758
 20
175.15322560690373
 10
4936.287205436512
 20
173.08500745295174
 10
4943.290535787168
 20
177.3441760341061
 10
4946.0955304548015
 20
177.3441760341061
 10
4947.546744029981
 20
178.81513412463025
 10
4948.971768220793
 20
177.3707217386662
 10
4955.975098571449
 20
181.62989031982036
 10
4958.793890301289
 20
181.62989031982036
 10
4965.884518599835
 20
185.94215031009463
 10
4968.082984071323
 20
183.71377357262887
 10
4968.082984071323
 20
177.9994878583431
 10
4969.504405369667
 20
176.55872738407297
 10
4966.685613639827
 20
166.55872738407317
 10
4968.082984071323
 20
165.14234500120017
 10
4968.082984071323
 20
156.57091642977173
 10
4969.492379936243
 20
155.14234500120017
 10
4969.492379936243
 20
152.20314992415496
 10
4965.92863222016
 20
148.59091556718673
 10
4957.4722570306385
 20
144.3052012814725
 10
4951.816749335
 20
138.57274746267746
 10
4950.409040789054
 20
138.57274746267746
 10
4926.469559891571
 20
112.88019336195343
 10
4922.955636189245
 20
110.74315388499679
 10
4920.806564181146
 20
107.11263513446112
 10
4909.427564779972
 20
112.87954343710793
 10
4904.460170149916
 20
119.35308737341255
  0
LWPOLYLINE
  5
5F
330
17
100
AcDbEntity
  8
GRAY_L
100
AcDbPolyline
 90
24
 70
1
 10
4792.482629017217
 20
150.00470250779907
 10
4782.599840919216
 20
151.43573801769693
 10
4778.983462751216
 20
155.1013188912489
 10
4780.433334036939
 20
156.57091642977173
 10
4780.433334036939
 20
166.57091642977173
 10
4781.84272990186
 20
167.99948785834306
 10
4781.84272990186
 20
175.14234500120017
 10
4785.424401853902
 20
178.77274746267747
 10
4796.769407131574
 20
178.77274746267747
 10
4803.772737482231
 20
174.5135788815233
 10
4805.761984184699
 20
176.52989031982025
 10
4802.983667875663
 20
179.3460070670121
 10
4802.983667875663
 20
183.71377357262887
 10
4805.1559439627845
 20
185.91560460553458
 10
4807.992659928583
 20
185.91560460553458
 10
4816.449035118104
 20
190.20131889124903
 10
4822.156042663889
 20
190.20131889124903
 10
4832.780981038986
 20
177.9958898795049
 10
4832.780981038986
 20
153.61429400877392
 10
4826.400014455104
 20
150.021081257405
 10
4822.1702539983025
 20
145.73377271004384
 10
4816.48563264132
 20
142.85279091672388
 10
4798.116299929956
 20
147.1495425402447
 10
4792.482629017217
 20
150.00470250779907
  0
LWPOLYLINE
  5
60
330
17
100
AcDbEntity
  8
GRAY_L
100
AcDbPolyline
 90
5
 70
1
 10
4828.312318023422
 20
170.8156046055347
 10
4826.338699646846
 20
172.81607508643893
 10
4824.365081270269
 20
170.8156046055347
 10
4826.338699646846
 20
168.81513412463022
 10
4828.312318023422
 20
170.8156046055347
  0
LWPOLYLINE
  5
61
330
17
100
AcDbEntity
  8
GRAY_L
100
AcDbPolyline
 90
14
 70
1
 10
4785.431737145675
 20
217.14954254024477
 10
4779.7574303044175
 20
220.02529690852703
 10
4777.589234818886
 20
223.68812176287722
 10
4782.59073243111
 20
228.75766735097724
 10
4789.6680733827325
 20
231.62712009321828
 10
4799.59586839969
 20
233.06467264047237
 10
4801.011391788541
 20
231.6298903198204
 10
4806.571708300368
 20
231.6298903198204
 10
4813.612547025752
 20
237.33919671789528
 10
4823.555598103333
 20
238.77895835475837
 10
4825.734001714386
 20
236.57091642977156
 10
4825.734001714386
 20
213.64105222239215
 10
4822.153405355109
 20
208.5600150937923
 10
4785.431737145675
 20
217.14954254024477
  0
LWPOLYLINE
  5
62
330
17
100
AcDbEntity
  8
GRAY_L
100
AcDbPolyline
 90
26
 70
1
 10
4634.616105659595
 20
232.86144037807176
 10
4632.466210298524
 20
235.0405861835103
 10
4626.809184760641
 20
245.07507272963824
 10
4626.809184760641
 20
247.9254877055277
 10
4618.332962021053
 20
259.38088258250656
 10
4620.5020314166195
 20
263.045183770247
 10
4631.790470992484
 20
265.9056899368639
 10
4633.209648442523
 20
267.344176034106
 10
4641.738460553723
 20
267.344176034106
 10
4645.966648148483
 20
264.48703317696334
 10
4654.434221836843
 20
264.48703317696334
 10
4656.6469733447675
 20
262.2441760341061
 10
4655.1971020590445
 20
260.7745784955835
 10
4655.1971020590445
 20
257.99948785834295
 10
4658.668178636448
 20
254.4811854790865
 10
4668.533949690889
 20
253.05261405051516
 10
4672.756368080805
 20
248.77274746267753
 10
4675.568019886646
 20
248.77274746267753
 10
4681.975623492527
 20
243.72125005212197
 10
4681.975623492527
 20
240.76862210790995
 10
4674.117178275107
 20
234.2515065569901
 10
4672.701707428959
 20
235.68623562006817
 10
4668.516981987205
 20
232.85846174839176
 10
4655.843617701764
 20
232.85846174839176
 10
4654.431192970277
 20
231.42682024394935
 10
4634.616105659595
 20
232.86144037807176
  0
LWPOLYLINE
  5
63
330
17
100
AcDbEntity
  8
GRAY_L
100
AcDbPolyline
 90
29
 70
1
 10
5375.478211027774
 20
142.86355033789698
 10
5373.5646032455315
 20
145.06391777437466
 10
5373.5646032455315
 20
150.77820348866044
 10
5372.308716365419
 20
152.22228864578824
 10
5374.806998200976
 20
159.40393011003584
 10
5374.806998200976
 20
163.7101485795518
 10
5376.04939315642
 20
165.13872000812313
 10
5376.04939315642
 20
169.42443429383735
 10
5387.906586008765
 20
183.05846174839192
 10
5402.815325474093
 20
183.05846174839192
 10
5404.057720429536
 20
184.48703317696325
 10
5409.099556897141
 20
184.48703317696325
 10
5411.536175710809
 20
183.08615658603932
 10
5412.800044342016
 20
184.53941958271946
 10
5415.284834252904
 20
181.68227672557657
 10
5417.769624163791
 20
184.53941958271946
 10
5419.755582514384
 20
182.25585963621648
 10
5417.270792603496
 20
177.97014535050226
 10
5419.733216596957
 20
175.13872000812313
 10
5419.733216596957
 20
149.34963206008888
 10
5417.791097839554
 20
147.1164811964587
 10
5415.269007635217
 20
148.56649755011796
 10
5409.036785187331
 20
147.133269753025
 10
5407.784905295869
 20
148.57274746267746
 10
5400.421654011949
 20
148.57274746267746
 10
5397.936864101061
 20
145.71560460553457
 10
5391.72488932384
 20
145.71560460553457
 10
5387.993041765711
 20
141.42452891018698
 10
5375.478211027774
 20
142.86355033789698
  0
LWPOLYLINE
  5
64
330
17
100
AcDbEntity
  8
GRAY_L
100
AcDbPolyline
 90
5
 70
1
 10
5392.921725054914
 20
121.3775039140641
 10
5390.9256057504945
 20
123.67274746267753
 10
5392.921725054914
 20
125.96799101129075
 10
5394.917844359331
 20
123.67274746267753
 10
5392.921725054914
 20
121.3775039140641
  0
LWPOLYLINE
  5
65
330
17
100
AcDbEntity
  8
GRAY_L
100
AcDbPolyline
 90
5
 70
1
 10
5385.467355322249
 20
135.967991011291
 10
5387.463474626668
 20
133.67274746267753
 10
5385.467355322249
 20
131.3775039140641
 10
5383.47123601783
 20
133.67274746267753
 10
5385.467355322249
 20
135.967991011291
  0
LWPOLYLINE
  5
66
330
17
100
AcDbEntity
  8
GRAY_L
100
AcDbPolyline
 90
5
 70
1
 10
5384.224960366805
 20
101.6822767255765
 10
5386.221079671224
 20
99.38703317696329
 10
5384.224960366805
 20
97.09178962834986
 10
5382.228841062386
 20
99.38703317696329
 10
5384.224960366805
 20
101.6822767255765
  0
LWPOLYLINE
  5
67
330
17
100
AcDbEntity
  8
GRAY_L
100
AcDbPolyline
 90
35
 70
1
 10
5358.134666302482
 20
107.09178962834986
 10
5355.604317167223
 20
110.00131889124899
 10
5351.9682507496345
 20
110.00131889124899
 10
5350.7258557941905
 20
108.57274746267764
 10
5336.9683928355635
 20
108.57274746267764
 10
5335.010662967508
 20
110.82384880698926
 10
5346.914492332129
 20
121.6298903198203
 10
5349.483460838747
 20
121.6298903198203
 10
5353.210645705079
 20
117.34417603410607
 10
5359.331502033555
 20
117.34417603410607
 10
5361.1081268198395
 20
119.38703317696331
 10
5358.623336908952
 20
122.24417603410598
 10
5360.6194562133705
 20
124.53941958271942
 10
5365.589036035146
 20
118.82513386843362
 10
5366.809957314828
 20
120.22901372889638
 10
5369.294747225716
 20
118.80044230032483
 10
5370.51305663255
 20
120.20131889124896
 10
5373.088964992181
 20
120.20131889124896
 10
5375.528195678698
 20
117.3965624398623
 10
5376.770590634142
 20
118.82513386843362
 10
5378.058544813958
 20
117.34417603410607
 10
5383.028124635734
 20
117.34417603410607
 10
5384.946157844527
 20
115.13872000812309
 10
5384.946157844527
 20
112.19690311762909
 10
5380.533577795141
 20
108.57274746267764
 10
5376.72503140977
 20
108.57274746267764
 10
5375.528195678698
 20
109.94893248549276
 10
5373.7971301167845
 20
107.95846174839174
 10
5376.281920027673
 20
105.10131889124908
 10
5374.293778590024
 20
102.81524871578851
 10
5368.05174082134
 20
108.55718884414034
 10
5364.317098603572
 20
107.12575912987133
 10
5363.058686899887
 20
108.57274746267764
 10
5359.422620482298
 20
108.57274746267764
 10
5358.134666302482
 20
107.09178962834986
  0
LWPOLYLINE
  5
68
330
17
100
AcDbEntity
  8
GRAY_L
100
AcDbPolyline
 90
14
 70
1
 10
5371.755451587994
 20
131.42989031982034
 10
5369.270661677107
 20
131.42989031982034
 10
5367.320101597059
 20
133.67274746267753
 10
5370.51305663255
 20
137.34417603410608
 10
5376.7998049571315
 20
137.34417603410608
 10
5382.487089367779
 20
133.7110980290399
 10
5381.235845362996
 20
130.8336049620047
 10
5383.736289760336
 20
127.95846174839176
 10
5381.740170455918
 20
125.66321819977833
 10
5378.012985589586
 20
129.94893248549278
 10
5374.2858007232535
 20
125.66321819977833
 10
5372.289681418835
 20
127.95846174839176
 10
5373.532076374279
 20
129.3870331769631
 10
5371.755451587994
 20
131.42989031982034
  0
LWPOLYLINE
  5
69
330
17
100
AcDbEntity
  8
GRAY_L
100
AcDbPolyline
 90
8
 70
1
 10
5380.539765216321
 20
95.71150019584663
 10
5372.373220288266
 20
96.43383290947693
 10
5371.047286463391
 20
97.95846174839173
 10
5374.2858007232535
 20
101.6822767255765
 10
5375.573754903069
 20
100.20131889124895
 10
5380.543334724845
 20
100.20131889124895
 10
5382.493894804893
 20
97.95846174839173
 10
5380.539765216321
 20
95.71150019584663
  0
LWPOLYLINE
  5
6A
330
17
100
AcDbEntity
  8
GRAY_L
100
AcDbPolyline
 90
19
 70
1
 10
5355.601519129776
 20
220.004536222691
 10
5354.361922211779
 20
221.4298903198204
 10
5344.422762568228
 20
221.4298903198204
 10
5343.180367612784
 20
222.85846174839173
 10
5334.487316327783
 20
222.85846174839173
 10
5323.832583336299
 20
233.6684989629705
 10
5325.818629446735
 20
235.95215982038377
 10
5329.593501128316
 20
233.05846174839172
 10
5339.472044549367
 20
233.05846174839172
 10
5342.005005557473
 20
234.5147280146107
 10
5343.271486061527
 20
233.05846174839172
 10
5358.089107078111
 20
233.05846174839172
 10
5359.331502033554
 20
234.48703317696328
 10
5366.876990214962
 20
234.48703317696328
 10
5369.36178012585
 20
231.6298903198204
 10
5379.300939769401
 20
231.6298903198204
 10
5381.239167711821
 20
229.40121332103902
 10
5375.5864899322605
 20
218.56830019705353
 10
5355.601519129776
 20
220.004536222691
  0
LWPOLYLINE
  5
6B
330
17
100
AcDbEntity
  8
GRAY_L
100
AcDbPolyline
 90
5
 70
1
 10
5371.312340205897
 20
99.38703317696329
 10
5369.316220901478
 20
97.09178962834986
 10
5366.077706641615
 20
100.81560460553463
 10
5368.073825946034
 20
103.11084815414806
 10
5371.312340205897
 20
99.38703317696329
  0
LWPOLYLINE
  5
6C
330
17
100
AcDbEntity
  8
GRAY_L
100
AcDbPolyline
 90
9
 70
1
 10
5352.427016618185
 20
132.26217639057626
 10
5354.361922211779
 20
134.4870331769632
 10
5363.14980534863
 20
134.4870331769632
 10
5365.10640116136
 20
132.2372358294446
 10
5358.167206065059
 20
125.70891930689432
 10
5353.734491290966
 20
126.43705786236615
 10
5352.411362131732
 20
127.95846174839176
 10
5353.669411573628
 20
129.40503353343314
 10
5352.427016618185
 20
132.26217639057626
  0
LWPOLYLINE
  5
6D
330
17
100
AcDbEntity
  8
GRAY_L
100
AcDbPolyline
 90
12
 70
1
 10
5358.144772722809
 20
105.95637011468372
 10
5362.615575517789
 20
100.81560460553463
 10
5359.422620482298
 20
97.14417603410608
 10
5355.695435615966
 20
97.14417603410608
 10
5354.428955111913
 20
95.68790976788732
 10
5349.424799299598
 20
98.56493127633259
 10
5344.4174507681355
 20
97.1255027327762
 10
5342.484534625807
 20
100.82978474961047
 10
5344.422762568228
 20
103.05846174839184
 10
5350.706993991275
 20
103.05846174839184
 10
5353.153467058248
 20
101.65191968665366
 10
5358.144772722809
 20
105.95637011468372
  0
LWPOLYLINE
  5
6E
330
17
100
AcDbEntity
  8
GRAY_L
100
AcDbPolyline
 90
7
 70
1
 10
5335.282886498023
 20
106.52989031982041
 10
5332.083216738757
 20
102.85074080386214
 10
5327.626012979641
 20
103.58290203507269
 10
5326.336722553861
 20
106.54789067629045
 10
5328.271628147457
 20
108.77274746267761
 10
5333.332326417975
 20
108.77274746267761
 10
5335.282886498023
 20
106.52989031982041
  0
LWPOLYLINE
  5
6F
330
17
100
AcDbEntity
  8
GRAY_L
100
AcDbPolyline
 90
33
 70
1
 10
6082.957414239239
 20
220.77168143554314
 10
6081.5635500366525
 20
237.97523929874376
 10
6087.136514168324
 20
250.8721391631863
 10
6089.262193154768
 20
253.05846174839175
 10
6093.51352664059
 20
253.05846174839175
 10
6094.902472758102
 20
251.62989031982042
 10
6108.7806777731885
 20
251.62989031982042
 10
6112.916524719114
 20
248.79399783731125
 10
6117.043451945713
 20
251.62377419286642
 10
6124.053913787673
 20
253.065866922346
 10
6130.411490678718
 20
247.98001497004884
 10
6127.6004589529875
 20
243.6431732910722
 10
6127.6004589529875
 20
239.346433232289
 10
6126.23213082335
 20
237.93906800316634
 10
6127.621076940862
 20
235.08192514602345
 10
6126.211512835476
 20
233.63214751800342
 10
6126.211512835476
 20
230.7860304339293
 10
6123.466082473595
 20
226.55039811745502
 10
6130.441168863211
 20
220.81113494380622
 10
6125.406055743097
 20
217.11202058224012
 10
6122.596899975054
 20
220.00131889124884
 10
6117.059156529154
 20
220.00131889124884
 10
6114.325567033556
 20
221.40710699260868
 10
6112.361525455226
 20
219.38703317696317
 10
6113.750471572738
 20
217.95846174839184
 10
6110.13863248409
 20
214.2435803274456
 10
6105.929546564911
 20
218.5727474626775
 10
6099.051270086489
 20
218.5727474626775
 10
6093.495485616441
 20
215.71560460553462
 10
6090.6511392722805
 20
215.71560460553462
 10
6089.262193154768
 20
217.14417603410618
 10
6086.484300919745
 20
217.14417603410618
 10
6082.957414239239
 20
220.77168143554314
  0
LWPOLYLINE
  5
70
330
17
100
AcDbEntity
  8
GRAY_L
100
AcDbPolyline
 90
5
 70
1
 10
6121.8200145738
 20
227.94322523659983
 10
6119.881309869661
 20
229.93723934114362
 10
6117.9024960395445
 20
226.54512683161232
 10
6119.841200743684
 20
224.55111272706853
 10
6121.8200145738
 20
227.94322523659983
  0
LWPOLYLINE
  5
71
330
17
100
AcDbEntity
  8
GRAY_L
100
AcDbPolyline
 90
36
 70
1
 10
5952.393248146491
 20
220.77500466086053
 10
5952.393248146491
 20
226.57049026449448
 10
5953.782194264003
 20
227.99906169306604
 10
5953.782194264003
 20
236.5704902644945
 10
5955.174127308085
 20
238.00213383380986
 10
5956.563073425597
 20
256.5735624052383
 10
5958.693240899037
 20
258.7645015297011
 10
5965.7217461136925
 20
260.2103058857703
 10
5968.486224694808
 20
257.3669593613179
 10
5971.264116929831
 20
258.79553078988926
 10
5972.675214417056
 20
257.3441760341062
 10
5976.757557636306
 20
257.3441760341062
 10
5978.188751320461
 20
258.81620031219524
 10
5979.619945004615
 20
257.3441760341062
 10
5994.813857163961
 20
257.3441760341062
 10
5996.236632769454
 20
258.80754207376077
 10
6002.6132833677175
 20
253.70643178440332
 10
5997.039523906872
 20
237.94130461961836
 10
5997.039523906872
 20
233.63214751800342
 10
5994.261631671847
 20
230.7750046608603
 10
5994.261631671847
 20
225.07830023757668
 10
5991.483739436823
 20
219.3640145232909
 10
5991.483739436823
 20
216.48929037514608
 10
5990.094793319312
 20
215.06071894657475
 10
5990.094793319312
 20
209.42763312163737
 10
5991.523213231692
 20
207.95846174839184
 10
5989.337162324229
 20
205.7100448887097
 10
5978.14138295288
 20
207.14944292662184
 10
5969.842122638048
 20
215.68547324094743
 10
5965.719227669465
 20
212.85846174839173
 10
5961.563645476961
 20
212.85846174839173
 10
5957.362977636443
 20
208.53795285159427
 10
5951.004302028979
 20
213.62468374081067
 10
5951.004302028979
 20
216.57049026449448
 10
5953.742720469134
 20
219.38703317696317
 10
5952.393248146491
 20
220.77500466086053
  0
LWPOLYLINE
  5
72
330
17
100
AcDbEntity
  8
GRAY_L
100
AcDbPolyline
 90
53
 70
1
 10
5863.500696625731
 20
223.7133474073516
 10
5863.500696625731
 20
226.57049026449448
 10
5865.641868235356
 20
228.7727474626775
 10
5868.4197604703795
 20
228.7727474626775
 10
5871.203058208372
 20
231.63545003664532
 10
5882.3146271484675
 20
230.20687860807377
 10
5883.740415329653
 20
231.67334316933807
 10
5885.963308300789
 20
229.38703317696317
 10
5884.574362183278
 20
227.95846174839184
 10
5886.5830674513845
 20
225.89245003040003
 10
5890.67219393987
 20
223.0885931129789
 10
5892.074092034723
 20
224.53048602648096
 10
5900.407768739796
 20
215.9590574550523
 10
5901.776618660377
 20
217.3669593613179
 10
5904.567271949623
 20
215.93182537526846
 10
5908.734110302158
 20
218.78896823241135
 10
5911.519337679891
 20
217.35662460016502
 10
5914.3173261118445
 20
218.79553078988923
 10
5917.909069003563
 20
215.10131889124895
 10
5915.124073619128
 20
212.23687023860128
 10
5920.6798580891755
 20
205.09401309574415
 10
5918.46406826745
 20
202.81500889887405
 10
5917.032874583296
 20
204.2870331769633
 10
5914.339477481557
 20
204.2870331769633
 10
5910.150487759309
 20
199.97853556403712
 10
5907.328292784861
 20
201.4298903198204
 10
5901.849017000274
 20
201.4298903198204
 10
5898.453484156547
 20
196.5405244892593
 10
5900.407768739796
 20
194.53048602648093
 10
5903.185660974819
 20
197.38762888362382
 10
5905.983649406774
 20
194.50981650417498
 10
5908.7615416417975
 20
195.9383879327463
 10
5910.1303915623785
 20
194.53048602648093
 10
5911.519337679891
 20
195.95905745505226
 10
5913.742230651027
 20
193.6727474626776
 10
5911.519337679891
 20
191.3864374703027
 10
5910.1303915623785
 20
192.81500889887405
 10
5908.7615416417975
 20
191.40710699260865
 10
5905.963553209843
 20
192.84601318233285
 10
5903.185660974819
 20
191.41744175376152
 10
5900.427864936726
 20
192.83567842117998
 10
5897.664873130763
 20
189.99386108816086
 10
5889.331196425692
 20
191.4224325167322
 10
5887.951491256571
 20
190.0033656720157
 10
5873.283103471603
 20
189.284943627704
 10
5870.44542721329
 20
192.20357608943183
 10
5870.44542721329
 20
195.07174471964373
 10
5864.896485636022
 20
203.6326161200739
 10
5863.510959083557
 20
209.33283334642172
 10
5853.733180189786
 20
217.95288730763463
 10
5855.941396782485
 20
220.22410221846056
 10
5858.719289017508
 20
218.79553078988923
 10
5863.500696625731
 20
223.7133474073516
  0
LWPOLYLINE
  5
73
330
17
100
AcDbEntity
  8
GRAY_L
100
AcDbPolyline
 90
8
 70
1
 10
5883.782662896296
 20
214.48703317696328
 10
5886.4760599980345
 20
214.48703317696328
 10
5888.462252946076
 20
216.52989031982028
 10
5880.962523094629
 20
224.2435803274456
 10
5879.018577713229
 20
222.24417603410606
 10
5880.407523830741
 20
220.81560460553473
 10
5879.018577713229
 20
219.38703317696317
 10
5883.782662896296
 20
214.48703317696328
  0
LWPOLYLINE
  5
74
330
17
100
AcDbEntity
  8
GRAY_L
100
AcDbPolyline
 90
5
 70
1
 10
5865.684115801998
 20
214.53048602648096
 10
5867.628061183398
 20
216.52989031982028
 10
5865.684115801998
 20
218.52929461315983
 10
5863.7401704205995
 20
216.52989031982028
 10
5865.684115801998
 20
214.53048602648096
  0
LWPOLYLINE
  5
75
330
17
100
AcDbEntity
  8
GRAY_L
100
AcDbPolyline
 90
5
 70
1
 10
5915.11636288281
 20
223.68798397446943
 10
5912.9283383603915
 20
219.93723934114362
 10
5909.311258594483
 20
223.65751095088538
 10
5911.499283116902
 20
227.4082555842112
 10
5915.11636288281
 20
223.68798397446943
  0
LWPOLYLINE
  5
76
330
17
100
AcDbEntity
  8
GRAY_L
100
AcDbPolyline
 90
11
 70
1
 10
5894.809736703105
 20
241.62989031982042
 10
5906.005800776486
 20
241.62989031982042
 10
5909.535918503622
 20
237.99906169306607
 10
5909.535918503622
 20
235.13089306285417
 10
5912.331191732674
 20
230.8183634912686
 10
5910.157571632457
 20
227.09231113571104
 10
5903.172907930841
 20
232.8394547442385
 10
5900.394309326287
 20
231.41052005487728
 10
5892.66856509348
 20
237.91191744378293
 10
5892.66856509348
 20
239.4276331216374
 10
5894.809736703105
 20
241.62989031982042
  0
LWPOLYLINE
  5
77
330
17
100
AcDbEntity
  8
GRAY_L
100
AcDbPolyline
 90
12
 70
1
 10
5879.61582454376
 20
243.05846174839175
 10
5882.351469212141
 20
240.24477174076654
 10
5885.129361447165
 20
243.10191459790943
 10
5887.3522544183015
 20
240.81560460553476
 10
5883.740415329653
 20
237.10072318458853
 10
5882.351469212141
 20
238.52929461315986
 10
5880.962523094629
 20
237.10072318458853
 10
5879.573576977117
 20
238.52929461315986
 10
5878.1956148932295
 20
237.11202058224012
 10
5873.171584054591
 20
240.80299319493358
 10
5875.364491057939
 20
243.05846174839175
 10
5879.61582454376
 20
243.05846174839175
  0
LWPOLYLINE
  5
78
330
17
100
AcDbEntity
  8
GRAY_L
100
AcDbPolyline
 90
14
 70
1
 10
5853.73860000828
 20
243.67274746267742
 10
5855.933973808701
 20
245.93075318858325
 10
5860.100812161236
 20
244.50218176001192
 10
5861.47502988282
 20
245.91560460553464
 10
5864.337417251129
 20
245.91560460553464
 10
5867.907008773135
 20
242.2441760341061
 10
5865.726363368642
 20
240.00131889124887
 10
5862.863976000332
 20
240.00131889124887
 10
5861.517277449462
 20
241.38643747030275
 10
5857.377958267642
 20
237.12902745105757
 10
5855.195260759756
 20
237.87735004799293
 10
5853.757455815274
 20
240.8349983507603
 10
5855.127546125791
 20
242.2441760341061
 10
5853.73860000828
 20
243.67274746267742
  0
LWPOLYLINE
  5
79
330
17
100
AcDbEntity
  8
GRAY_L
100
AcDbPolyline
 90
9
 70
1
 10
5848.182815538231
 20
242.2441760341061
 10
5846.79386942072
 20
243.67274746267742
 10
5849.016762391856
 20
245.95905745505232
 10
5851.239655362992
 20
243.67274746267742
 10
5849.85070924548
 20
242.2441760341061
 10
5851.239655362992
 20
240.81560460553476
 10
5849.016762391856
 20
238.52929461315986
 10
5846.79386942072
 20
240.81560460553476
 10
5848.182815538231
 20
242.2441760341061
  0
LWPOLYLINE
  5
7A
330
17
100
AcDbEntity
  8
GRAY_L
100
AcDbPolyline
 90
49
 70
1
 10
5743.499105027596
 20
185.91560460553458
 10
5744.888051145107
 20
184.48703317696325
 10
5747.58908154992
 20
184.48703317696325
 10
5759.32973781234
 20
193.72132012852816
 10
5759.32973781234
 20
196.57049026449448
 10
5761.446430854657
 20
198.74757054513714
 10
5767.034853414449
 20
203.0584617483917
 10
5769.797926550331
 20
203.0584617483917
 10
5775.337243953143
 20
210.18014782000625
 10
5778.151961281944
 20
211.6276570879081
 10
5793.485630334226
 20
213.0613956369405
 10
5797.612804066575
 20
210.23145025583622
 10
5800.40364827894
 20
213.1019145979094
 10
5802.626541250077
 20
210.81560460553473
 10
5799.014702161428
 20
207.10072318458828
 10
5797.625756043916
 20
208.52929461315983
 10
5793.486436862096
 20
204.27188459391465
 10
5789.31959850956
 20
205.70045602248598
 10
5787.3292781504515
 20
203.65335371745186
 10
5788.718224267964
 20
200.7962108603092
 10
5786.514187103821
 20
198.52929461315983
 10
5783.736294868797
 20
201.38643747030272
 10
5779.569456516261
 20
197.1007231845885
 10
5778.18051039875
 20
198.52929461315983
 10
5776.833811847881
 20
197.14417603410618
 10
5774.055919612857
 20
197.14417603410618
 10
5772.050870857821
 20
195.0819251460234
 10
5773.439816975332
 20
192.2247822888805
 10
5771.278027377833
 20
190.00131889124904
 10
5767.026693892012
 20
190.00131889124904
 10
5765.674686406185
 20
191.3918978641236
 10
5755.9951586539
 20
182.85846174839193
 10
5753.221727850179
 20
182.85846174839193
 10
5751.790534166024
 20
181.3864374703027
 10
5750.401588048512
 20
182.81500889887425
 10
5746.247701673318
 20
178.5426160980903
 10
5742.0756073041775
 20
181.40336293240455
 10
5732.3399795858995
 20
172.8204692926949
 10
5730.956342403346
 20
174.24358032744558
 10
5725.436611128316
 20
168.5663763715246
 10
5720.491175595316
 20
169.29302267193202
 10
5714.84398825709
 20
175.10131889124892
 10
5717.00212134152
 20
177.32102145897156
 10
5721.202728174153
 20
180.2013188912488
 10
5723.9757590302615
 20
180.2013188912488
 10
5730.963878702359
 20
185.95130615260035
 10
5732.345288520858
 20
184.53048602648093
 10
5733.6919870717265
 20
185.91560460553458
 10
5743.499105027596
 20
185.91560460553458
  0
LWPOLYLINE
  5
7B
330
17
100
AcDbEntity
  8
GRAY_L
100
AcDbPolyline
 90
25
 70
1
 10
5645.436156176365
 20
215.05216316212827
 10
5645.436156176365
 20
219.42763312163737
 10
5650.355220021014
 20
224.48703317696328
 10
5654.606553506836
 20
224.48703317696328
 10
5655.995499624347
 20
223.05846174839172
 10
5699.052829267216
 20
223.05846174839172
 10
5701.194000876841
 20
220.85620455020893
 10
5701.194000876841
 20
212.28477597878026
 10
5702.622420789221
 20
210.81560460553473
 10
5700.441775384727
 20
208.5727474626775
 10
5697.663883149704
 20
208.5727474626775
 10
5694.2887440841505
 20
205.10131889124895
 10
5695.677690201662
 20
203.6727474626774
 10
5693.470562438875
 20
201.4026524450452
 10
5686.512938514907
 20
205.69632343337685
 10
5678.170920876068
 20
199.97631845731044
 10
5671.19580656481
 20
205.71560460553462
 10
5668.407548760003
 20
205.71560460553462
 10
5658.710604603426
 20
217.11399174392065
 10
5655.358778998949
 20
215.0455217442253
 10
5655.358778998949
 20
209.33123602993953
 10
5651.7706484968185
 20
207.11693815933074
 10
5649.563520734033
 20
209.38703317696317
 10
5650.942074328556
 20
210.8049155937548
 10
5645.436156176365
 20
215.05216316212827
  0
LWPOLYLINE
  5
7C
330
17
100
AcDbEntity
  8
GRAY_L
100
AcDbPolyline
 90
17
 70
1
 10
6645.238094444005
 20
153.10378885908827
 10
6647.132362899611
 20
155.1013188912489
 10
6644.430544377067
 20
157.95042067735386
 10
6649.2517591693495
 20
164.48703317696322
 10
6652.062205372212
 20
164.48703317696322
 10
6656.853231075902
 20
157.9913511030533
 10
6656.853231075902
 20
155.06144304466707
 10
6654.74155471322
 20
152.83465362620908
 10
6652.032110799832
 20
154.26322505478063
 10
6650.117435771867
 20
152.24417603410623
 10
6651.472157728562
 20
150.81560460553467
 10
6649.315397444848
 20
148.54127362243784
 10
6645.251231574766
 20
151.39841647958073
 10
6643.883372487311
 20
149.95599178055264
 10
6641.7134750728355
 20
152.24417603410623
 10
6643.883372487311
 20
154.5323602876596
 10
6645.238094444005
 20
153.10378885908827
  0
LWPOLYLINE
  5
7D
330
17
100
AcDbEntity
  8
GRAY_L
100
AcDbPolyline
 90
5
 70
1
 10
6639.81920661723
 20
155.67027749483842
 10
6636.2761315616945
 20
159.40649492942737
 10
6639.854297289057
 20
161.67042752439832
 10
6641.974878721603
 20
157.94346097906643
 10
6639.81920661723
 20
155.67027749483842
  0
LWPOLYLINE
  5
7E
330
17
100
AcDbEntity
  8
GRAY_L
100
AcDbPolyline
 90
32
 70
1
 10
6597.758162308819
 20
158.761309533477
 10
6604.618361870912
 20
160.2081429652793
 10
6608.647464482507
 20
157.37564987434573
 10
6611.9474065050035
 20
160.8554804521165
 10
6611.9474065050035
 20
163.71262330925938
 10
6614.036505497579
 20
165.91560460553455
 10
6623.527778224386
 20
165.91560460553455
 10
6628.946666051161
 20
170.201318891249
 10
6631.733858819532
 20
170.201318891249
 10
6633.849068481979
 20
167.97080356352433
 10
6631.113513898718
 20
163.6437882306363
 10
6631.113513898718
 20
160.8554804521165
 10
6636.570216204928
 20
155.1013188912489
 10
6633.86077229154
 20
152.24417603410623
 10
6637.924938161622
 20
147.95846174839178
 10
6635.798024689613
 20
145.71560460553457
 10
6631.6478909346
 20
145.71560460553457
 10
6630.336152920371
 20
147.09884892340952
 10
6628.994568094439
 20
145.68413076529495
 10
6624.930402224358
 20
148.54127362243784
 10
6620.89608316598
 20
144.28703317696323
 10
6618.186639252593
 20
144.28703317696323
 10
6616.831917295898
 20
142.8584617483919
 10
6614.036505497579
 20
142.8584617483919
 10
6611.3569083958955
 20
145.68413076529495
 10
6607.292742525813
 20
142.8269879081523
 10
6602.444633567698
 20
147.9393800901383
 10
6603.799355524391
 20
150.79652294728118
 10
6601.866585257442
 20
152.83465362620908
 10
6599.157141344053
 20
151.40608219763774
 10
6595.667153855344
 20
155.08631812192354
 10
6597.758162308819
 20
158.761309533477
  0
LWPOLYLINE
  5
7F
330
17
100
AcDbEntity
  8
GRAY_L
100
AcDbPolyline
 90
10
 70
1
 10
6618.143655310127
 20
157.09884892340975
 10
6616.788933353432
 20
158.52742035198108
 10
6614.894664897826
 20
156.52989031982045
 10
6616.788933353432
 20
154.5323602876596
 10
6618.143655310127
 20
155.96093171623139
 10
6620.869097159008
 20
153.08691883387814
 10
6624.105797752853
 20
155.13480384896573
 10
6622.149665519117
 20
158.57274746267746
 10
6619.541361209286
 20
158.57274746267746
 10
6618.143655310127
 20
157.09884892340975
  0
LWPOLYLINE
  5
80
330
17
100
AcDbEntity
  8
GRAY_L
100
AcDbPolyline
 90
150
 70
1
 10
6465.026626401494
 20
144.48703317696322
 10
6469.635390498166
 20
147.95846174839178
 10
6465.022787964779
 20
151.4327815198475
 10
6448.842750873911
 20
152.8546193237248
 10
6447.448688766695
 20
151.38456320912397
 10
6446.080829679239
 20
152.8269879081521
 10
6442.016663809158
 20
149.9698450510094
 10
6436.567929170678
 20
155.7156046055348
 10
6433.858485257291
 20
155.7156046055348
 10
6432.503763300597
 20
157.14417603410612
 10
6423.088441714063
 20
157.14417603410612
 10
6417.669553887287
 20
154.28703317696323
 10
6410.828211993495
 20
154.28703317696323
 10
6409.4734900368
 20
155.7156046055348
 10
6401.345158296637
 20
155.7156046055348
 10
6399.990436339944
 20
157.14417603410612
 10
6389.238628571324
 20
157.14417603410612
 10
6387.840922672164
 20
155.67027749483842
 10
6385.7088397371235
 20
157.91858590180996
 10
6385.7088397371235
 20
183.7126233092594
 10
6387.820516099806
 20
185.93941272771718
 10
6390.517793150461
 20
184.5172563544226
 10
6393.8371714772875
 20
189.417713323357
 10
6393.8371714772875
 20
193.63287161609577
 10
6391.089913084464
 20
196.52989031982025
 10
6393.817452236836
 20
199.40611483521664
 10
6392.462730280142
 20
202.26325769235953
 10
6394.62301522186
 20
204.54130547187833
 10
6400.041903048636
 20
197.3984483290212
 10
6401.388142239103
 20
198.81807457337385
 10
6403.520225174144
 20
196.5697661664021
 10
6403.520225174144
 20
195.0614430446671
 10
6398.139151826802
 20
189.38703317696314
 10
6401.431126181569
 20
185.91560460553458
 10
6402.699880253331
 20
185.91560460553458
 10
6407.364671803775
 20
190.8346862637882
 10
6406.009949847082
 20
193.6918291209311
 10
6407.384391044226
 20
195.14119473783074
 10
6407.384391044226
 20
197.91858590181
 10
6406.029669087531
 20
199.34715733038132
 10
6406.029669087531
 20
205.07881217284574
 10
6404.691418368357
 20
207.90121677363115
 10
6401.352544684695
 20
211.4221012802413
 10
6393.216105312083
 20
209.99210491818565
 10
6388.418283650511
 20
216.49700096515878
 10
6388.418283650511
 20
245.1411947378308
 10
6390.503190870196
 20
247.3397557566046
 10
6404.136184465055
 20
248.77737216484852
 10
6406.850014008344
 20
245.91560460553464
 10
6460.952924391168
 20
245.91560460553464
 10
6462.307646347862
 20
247.34417603410597
 10
6470.521945972958
 20
247.34417603410597
 10
6475.3204888789205
 20
242.2840518806879
 10
6475.3204888789205
 20
240.788196261003
 10
6468.575587124986
 20
229.40806160050607
 10
6475.935026679016
 20
223.05846174839172
 10
6479.995463529572
 20
223.05846174839172
 10
6489.489549114219
 20
215.90729513044192
 10
6494.908436940994
 20
214.4787237018706
 10
6499.712443589998
 20
210.86023388792597
 10
6498.345525437139
 20
200.77020658672384
 10
6494.877094381744
 20
197.11270219386657
 10
6490.768158294107
 20
200.00131889124884
 10
6485.337919611659
 20
200.00131889124884
 10
6484.026181597431
 20
201.3845632091238
 10
6482.09409866239
 20
199.34715733038132
 10
6482.09409866239
 20
196.49001447323843
 10
6477.268569749454
 20
191.4014332343339
 10
6473.765766922226
 20
193.61768315078587
 10
6473.765766922226
 20
196.49001447323843
 10
6470.469299025875
 20
199.96618154107136
 10
6465.094839116233
 20
195.71560460553462
 10
6462.307646347862
 20
195.71560460553462
 10
6459.598202434475
 20
198.5727474626775
 10
6455.534036564393
 20
198.5727474626775
 10
6451.469870694312
 20
202.85846174839173
 10
6447.491672709161
 20
202.85846174839173
 10
6444.782228795773
 20
200.00131889124884
 10
6440.63209504076
 20
200.00131889124884
 10
6437.922651127373
 20
202.85846174839173
 10
6435.309236592593
 20
202.85846174839173
 10
6431.9693862647155
 20
197.92778160199796
 10
6431.9693862647155
 20
189.42690902354497
 10
6433.914606330519
 20
187.37564987434575
 10
6437.934001983044
 20
190.20131889124903
 10
6440.708526785449
 20
190.20131889124903
 10
6450.191580482306
 20
183.05846174839192
 10
6455.620004449325
 20
183.05846174839192
 10
6456.974726406019
 20
181.62989031982036
 10
6474.586111843039
 20
181.62989031982036
 10
6475.940833799733
 20
180.2013188912488
 10
6478.564309828189
 20
180.2013188912488
 10
6481.273753741578
 20
183.05846174839192
 10
6496.261663150141
 20
183.05846174839192
 10
6497.616385106835
 20
181.62989031982036
 10
6501.612818866593
 20
181.62989031982036
 10
6504.347010947839
 20
183.0715103763174
 10
6507.056454861227
 20
181.64293894774585
 10
6509.7658987746145
 20
183.0715103763174
 10
6512.454936115644
 20
181.65369844200296
 10
6513.778942317241
 20
183.04987971854138
 10
6520.637755979803
 20
184.49642086062835
 10
6522.001380327326
 20
183.05846174839192
 10
6526.0655461974075
 20
183.05846174839192
 10
6530.142672295551
 20
178.75908073835367
 10
6538.271004035715
 20
175.90193788121078
 10
6540.974928605746
 20
173.05061524140862
 10
6555.8768701293775
 20
170.19347238426596
 10
6559.313250193943
 20
166.5697661664023
 10
6559.313250193943
 20
152.28405188068805
 10
6561.245333128983
 20
150.24664600194538
 10
6563.177416064023
 20
152.28405188068805
 10
6563.177416064023
 20
166.5697661664023
 10
6565.273901444656
 20
168.78053650225655
 10
6573.487667315399
 20
167.33694984523817
 10
6574.835536638388
 20
165.91560460553455
 10
6580.2544244651635
 20
165.91560460553455
 10
6582.3727084899065
 20
163.6818473239061
 10
6578.279357587657
 20
157.92652696248277
 10
6578.279357587657
 20
155.06144304466707
 10
6574.835536638388
 20
151.42989031982034
 10
6572.1260927250005
 20
151.42989031982034
 10
6569.416648811612
 20
148.57274746267746
 10
6566.71581099975
 20
148.57274746267746
 10
6562.658908595813
 20
142.86867430421603
 10
6555.8700591274555
 20
141.43688878757212
 10
6550.4423223879485
 20
137.14417603410612
 10
6547.7410975045095
 20
137.14417603410612
 10
6546.359389540844
 20
135.68714752004828
 10
6542.800316549816
 20
137.93899999592773
 10
6544.173494190874
 20
139.3870331769633
 10
6542.228103407812
 20
141.4384723496709
 10
6535.520313099552
 20
142.85316228451396
 10
6530.106933147509
 20
139.99892348913679
 10
6515.204991623877
 20
141.42749491770812
 10
6509.790646942472
 20
138.57274746267746
 10
6503.012516345036
 20
138.57274746267746
 10
6496.276834209191
 20
135.7316026790827
 10
6493.552219236754
 20
132.85846174839187
 10
6490.756807438434
 20
132.85846174839187
 10
6489.406967719371
 20
134.28188479566484
 10
6483.310718914248
 20
133.56759908137917
 10
6479.919031784883
 20
137.14417603410612
 10
6471.802050900392
 20
137.14417603410612
 10
6467.762048425161
 20
139.98433182103363
 10
6465.084822371574
 20
138.57274746267746
 10
6459.598202434475
 20
138.57274746267746
 10
6457.471288962465
 20
140.81560460553467
 10
6460.952924391168
 20
144.48703317696322
 10
6465.026626401494
 20
144.48703317696322
  0
LWPOLYLINE
  5
81
330
17
100
AcDbEntity
  8
GRAY_L
100
AcDbPolyline
 90
40
 70
1
 10
6416.290083762736
 20
188.81807457337385
 10
6417.64480571943
 20
187.38950314480252
 10
6420.905499941292
 20
190.82794642066725
 10
6418.196056027904
 20
195.11366070638147
 10
6420.354249632817
 20
197.38950314480275
 10
6421.708971589512
 20
195.9609317162312
 10
6423.063693546205
 20
197.38950314480275
 10
6424.418415502899
 20
195.9609317162312
 10
6426.35049843794
 20
197.99833759497366
 10
6426.35049843794
 20
216.49001447323846
 10
6424.995776481246
 20
217.91858590181002
 10
6424.995776481246
 20
225.06144304466713
 10
6423.063693546205
 20
227.0988489234096
 10
6419.814703133906
 20
223.6727474626774
 10
6421.169425090599
 20
222.24417603410606
 10
6419.802999324343
 20
220.80326279040196
 10
6422.5124432377315
 20
216.5175485046875
 10
6419.814703133906
 20
213.67274746267762
 10
6421.131610611164
 20
212.28405188068788
 10
6421.131610611164
 20
207.91858590181
 10
6419.814703133906
 20
206.5298903198205
 10
6422.508213553813
 20
203.68954953296893
 10
6419.022969748197
 20
197.07412896207364
 10
6415.51272278439
 20
200.77572875895288
 10
6415.51272278439
 20
203.71262330925921
 10
6418.184352218343
 20
206.5298903198205
 10
6416.867444741083
 20
207.91858590181
 10
6416.867444741083
 20
213.6328716160958
 10
6414.14488939245
 20
216.50384064744776
 10
6415.499611349144
 20
220.7895549331622
 10
6414.120186348261
 20
222.24417603410606
 10
6415.474908304955
 20
223.6727474626774
 10
6412.225917892654
 20
227.0988489234096
 10
6408.952224436164
 20
223.64669779030487
 10
6410.282243348669
 20
219.43913252170822
 10
6413.041093350435
 20
216.52989031982028
 10
6411.648556914307
 20
215.06144304466713
 10
6411.648556914307
 20
187.99833759497363
 10
6413.580639849348
 20
185.96093171623096
 10
6416.290083762736
 20
188.81807457337385
  0
LWPOLYLINE
  5
82
330
17
100
AcDbEntity
  8
GRAY_L
100
AcDbPolyline
 90
9
 70
1
 10
6422.248518088424
 20
179.38703317696337
 10
6426.312683958506
 20
183.6727474626776
 10
6424.418415502899
 20
185.67027749483822
 10
6423.063693546205
 20
184.2417060662669
 10
6420.367282827874
 20
187.08510525446886
 10
6417.083865500085
 20
182.23773814483567
 10
6420.3922640072315
 20
175.95799165891424
 10
6423.5847843607535
 20
177.97792350085584
 10
6422.248518088424
 20
179.38703317696337
  0
LWPOLYLINE
  5
83
330
17
100
AcDbEntity
  8
GRAY_L
100
AcDbPolyline
 90
5
 70
1
 10
6451.52885257227
 20
137.11571894861962
 10
6447.969779581243
 20
139.3675714244993
 10
6450.14213474459
 20
141.6583474053068
 10
6453.701207735618
 20
139.40649492942737
 10
6451.52885257227
 20
137.11571894861962
  0
LWPOLYLINE
  5
84
330
17
100
AcDbEntity
  8
GRAY_L
100
AcDbPolyline
 90
5
 70
1
 10
6447.448688766695
 20
150.2466460019456
 10
6449.61858618117
 20
147.95846174839178
 10
6447.448688766695
 20
145.67027749483796
 10
6445.278791352221
 20
147.95846174839178
 10
6447.448688766695
 20
150.2466460019456
  0
LWPOLYLINE
  5
85
330
17
100
AcDbEntity
  8
GRAY_L
100
AcDbPolyline
 90
5
 70
1
 10
6442.569347438832
 20
136.52989031982042
 10
6444.739244853307
 20
138.8180745733738
 10
6446.909142267783
 20
136.52989031982042
 10
6444.739244853307
 20
134.24170606626683
 10
6442.569347438832
 20
136.52989031982042
  0
LWPOLYLINE
  5
86
330
17
100
AcDbEntity
  8
GRAY_L
100
AcDbPolyline
 90
8
 70
1
 10
6439.357031729002
 20
141.42323714648853
 10
6434.540612606957
 20
142.14880498209604
 10
6430.382803207899
 20
145.0717800292838
 10
6432.526518933305
 20
148.8394055817226
 10
6435.276597728809
 20
145.93941272771715
 10
6437.986041642196
 20
147.3679841562887
 10
6441.490254441008
 20
143.67274746267756
 10
6439.357031729002
 20
141.42323714648853
  0
LWPOLYLINE
  5
87
330
17
100
AcDbEntity
  8
GRAY_L
100
AcDbPolyline
 90
19
 70
1
 10
7295.721925341085
 20
200.780971299124
 10
7295.721925341085
 20
220.85423601937947
 10
7304.210581089259
 20
230.20131889124883
 10
7308.7038559206385
 20
230.20131889124883
 10
7309.8282456798515
 20
231.6298903198204
 10
7317.698973994341
 20
231.6298903198204
 10
7318.823363753554
 20
233.05846174839172
 10
7321.149772570542
 20
233.05846174839172
 10
7323.441455242561
 20
231.6026354382652
 10
7334.143809175575
 20
215.1423022147736
 10
7335.26701390839
 20
210.8611047654352
 10
7339.8086076927875
 20
205.09087156346274
 10
7331.279569305122
 20
197.14417603410618
 10
7323.320922790405
 20
197.14417603410618
 10
7322.196533031192
 20
198.5727474626775
 10
7315.547297778704
 20
198.5727474626775
 10
7314.421216647125
 20
197.1420270940103
 10
7298.020497417695
 20
197.86056548054432
 10
7295.721925341085
 20
200.780971299124
  0
LWPOLYLINE
  5
88
330
17
100
AcDbEntity
  8
GRAY_L
100
AcDbPolyline
 90
21
 70
1
 10
7264.872129315564
 20
240.00131889124887
 10
7261.4869638494665
 20
240.00131889124887
 10
7256.340868924417
 20
245.08664024285844
 10
7260.848728104359
 20
252.24585569253244
 10
7257.492673527848
 20
257.93114840821386
 10
7257.492673527848
 20
273.70738076908816
 10
7260.40364792588
 20
277.40586238567874
 10
7261.584205336127
 20
275.90592824607364
 10
7268.330543891404
 20
274.4773568175021
 10
7270.5881066983475
 20
271.60905452483263
 10
7276.210055494411
 20
268.75191166768974
 10
7279.566825483893
 20
264.48703317696334
 10
7281.796130998092
 20
264.48703317696334
 10
7286.332638043396
 20
261.6051480044355
 10
7289.179545525807
 20
257.98806535508436
 10
7288.048181743793
 20
247.9260403967214
 10
7284.678027748956
 20
242.21686269392828
 10
7284.678027748956
 20
237.92382844198113
 10
7281.810047469036
 20
234.2799721616915
 10
7271.612166737775
 20
235.7196074962551
 10
7264.872129315564
 20
240.00131889124887
  0
LWPOLYLINE
  5
89
330
17
100
AcDbEntity
  8
GRAY_L
100
AcDbPolyline
 90
34
 70
1
 10
7118.681986613667
 20
211.4298903198204
 10
7116.433207095241
 20
211.4298903198204
 10
7115.357368987422
 20
212.79677539681896
 10
7114.281530879604
 20
211.4298903198204
 10
7106.313699262326
 20
211.4298903198204
 10
7103.451276515688
 20
215.0666855848382
 10
7103.451276515688
 20
216.56452362623102
 10
7109.735420191359
 20
224.54871952853605
 10
7115.357368987422
 20
217.40586238567894
 10
7120.289863969341
 20
223.6727474626774
 10
7114.23297922821
 20
231.36820396824766
 10
7109.735420191359
 20
225.65391825396185
 10
7106.797186858787
 20
229.38703317696317
 10
7109.059162386675
 20
232.26094196596736
 10
7107.934772627462
 20
235.11808482311025
 10
7110.859809950571
 20
238.8344338142503
 10
7113.108589468997
 20
235.9772909571074
 10
7115.79230493249
 20
239.3870331769632
 10
7114.667915173278
 20
240.81560460553476
 10
7117.583473287308
 20
244.51990997288365
 10
7119.884005671442
 20
243.05846174839175
 10
7125.525428471732
 20
243.05846174839175
 10
7126.649818230946
 20
241.62989031982042
 10
7131.147377267797
 20
241.62989031982042
 10
7137.3728613344565
 20
233.72022323704456
 10
7139.621640852882
 20
226.57736609418723
 10
7143.004918088138
 20
222.2788093405168
 10
7143.004918088138
 20
219.41167575408693
 10
7145.27235938156
 20
215.09039593825196
 10
7142.391274859925
 20
211.4298903198204
 10
7140.142495341499
 20
211.4298903198204
 10
7137.893715823074
 20
208.5727474626775
 10
7120.930766132093
 20
208.5727474626775
 10
7118.681986613667
 20
211.4298903198204
  0
LWPOLYLINE
  5
8A
330
17
100
AcDbEntity
  8
GRAY_L
100
AcDbPolyline
 90
17
 70
1
 10
6942.673422088584
 20
250.7650421370331
 10
6941.546462092575
 20
255.060553115098
 10
6931.419643356121
 20
270.78619171619533
 10
6931.419643356121
 20
273.70738076908816
 10
6935.406455861973
 20
278.77274746267756
 10
6937.743802749062
 20
278.77274746267756
 10
6946.738920822763
 20
270.2013188912489
 10
6948.996236275315
 20
270.2013188912489
 10
6951.262333969667
 20
267.3221727642234
 10
6959.129319282723
 20
263.0384965916393
 10
6966.513373642696
 20
255.1001638894448
 10
6960.234143262731
 20
248.57274746267754
 10
6956.855072348314
 20
248.57274746267754
 10
6953.481903070675
 20
245.71560460553465
 10
6950.120626034527
 20
245.71560460553465
 10
6948.95523556118
 20
244.23494052111727
 10
6942.673422088584
 20
250.7650421370331
  0
LWPOLYLINE
  5
8B
330
17
100
AcDbEntity
  8
GRAY_L
100
AcDbPolyline
 90
46
 70
1
 10
7863.005118414042
 20
154.29401731502978
 10
7862.152759898603
 20
155.7156046055348
 10
7839.882561800388
 20
155.7156046055348
 10
7837.697835923661
 20
159.3593513193141
 10
7837.697835923661
 20
163.7004293203268
 10
7839.4109280850635
 20
166.5575721774697
 10
7839.4109280850635
 20
176.55757217746947
 10
7841.124020246464
 20
179.41471503461258
 10
7841.124020246464
 20
182.21010567389717
 10
7837.32038748042
 20
187.14417603410615
 10
7825.434557078528
 20
187.14417603410615
 10
7824.578010997828
 20
185.7156046055346
 10
7811.729819787319
 20
185.7156046055346
 10
7810.873273706618
 20
184.28703317696326
 10
7805.626375146469
 20
184.28703317696326
 10
7795.7270779693345
 20
197.92599628543027
 10
7795.7270779693345
 20
202.27185789175527
 10
7797.440170130735
 20
205.12900074889816
 10
7797.440170130735
 20
213.70042932032683
 10
7799.624896007463
 20
217.34417603410617
 10
7801.337988168864
 20
217.34417603410617
 10
7802.194534249565
 20
218.7727474626775
 10
7821.895094105677
 20
218.7727474626775
 10
7822.751640186378
 20
220.20131889124883
 10
7827.147649239929
 20
220.20131889124883
 10
7828.004195320629
 20
218.7727474626775
 10
7840.7595228386235
 20
218.7727474626775
 10
7845.898799322827
 20
223.05846174839172
 10
7848.448022607395
 20
223.05846174839172
 10
7850.161114768795
 20
225.9156046055346
 10
7855.413669903047
 20
225.9156046055346
 10
7856.270215983747
 20
224.48703317696328
 10
7865.692222871454
 20
224.48703317696328
 10
7868.733494828882
 20
219.4147150346124
 10
7868.733494828882
 20
213.70042932032683
 10
7870.44453644327
 20
210.84670642264803
 10
7871.301082523971
 20
199.41813499407647
 10
7873.016225232384
 20
196.5575721774695
 10
7873.016225232384
 20
192.27185789175527
 10
7874.729317393785
 20
189.41471503461239
 10
7874.729317393785
 20
185.13403755514824
 10
7884.151324281492
 20
172.27689469800532
 10
7884.151324281492
 20
169.36778738684666
 10
7882.427174725763
 20
165.05441035542566
 10
7874.249678756288
 20
152.85140260985864
 10
7863.005118414042
 20
154.29401731502978
  0
LWPOLYLINE
  5
8C
330
17
100
AcDbEntity
  8
GRAY_L
100
AcDbPolyline
 90
27
 70
1
 10
8503.053775396826
 20
205.7183757316903
 10
8485.593798708594
 20
207.14645472610437
 10
8480.939914064355
 20
210.00131889124907
 10
8477.427440573108
 20
210.00131889124907
 10
8474.463942929233
 20
213.63715599239418
 10
8474.463942929233
 20
226.5553047941724
 10
8476.809332696448
 20
230.87155006768057
 10
8482.08503984932
 20
237.34417603410617
 10
8489.14215572058
 20
237.34417603410617
 10
8494.964154815843
 20
234.48703317696328
 10
8499.646040942624
 20
234.48703317696328
 10
8500.816137691227
 20
233.0514723357757
 10
8510.12030106046
 20
231.62459325410634
 10
8513.607024220142
 20
228.7727474626775
 10
8518.252151196899
 20
228.7727474626775
 10
8524.074150292161
 20
225.9156046055346
 10
8531.084836057047
 20
225.9156046055346
 10
8535.212733519977
 20
220.85119607581817
 10
8535.212733519977
 20
212.20858456382263
 10
8532.88393388187
 20
209.35144170667974
 10
8532.88393388187
 20
206.49429884953707
 10
8529.92928935804
 20
202.8693234078862
 10
8524.0997309185
 20
201.4388971072898
 10
8519.43234330737
 20
197.14417603410618
 10
8517.112038228415
 20
197.14417603410618
 10
8515.915782329364
 20
195.676521221144
 10
8503.053775396826
 20
205.7183757316903
  0
LWPOLYLINE
  5
8D
330
17
100
AcDbEntity
  8
GRAY_L
100
AcDbPolyline
 90
25
 70
1
 10
8408.727851248997
 20
144.28703317696323
 10
8405.24314635099
 20
144.28703317696323
 10
8400.585547074777
 20
148.57274746267746
 10
8398.248252877522
 20
148.57274746267746
 10
8395.286446297825
 20
152.20650984177996
 10
8394.118635261522
 20
176.56337137966594
 10
8397.117128761029
 20
180.24214397311877
 10
8400.660241772026
 20
177.3441760341061
 10
8404.0820665239
 20
177.3441760341061
 10
8407.602658219192
 20
180.2237234342714
 10
8409.917494325859
 20
178.80371774992733
 10
8412.26855260991
 20
181.688169152743
 10
8416.973653789879
 20
175.91560460553458
 10
8420.371849439523
 20
175.91560460553458
 10
8425.041947349273
 20
181.64522456367393
 10
8429.792888679402
 20
180.18802340905626
 10
8435.07434908144
 20
173.708338932961
 10
8435.07434908144
 20
167.93031736527908
 10
8431.576693280249
 20
162.2087418230418
 10
8430.411663747793
 20
155.06202178634078
 10
8421.610676157452
 20
142.82462895077774
 10
8419.277210170176
 20
144.25606288971338
 10
8416.969232009395
 20
141.42446535396226
 10
8410.470256733406
 20
142.14932184166096
 10
8408.727851248997
 20
144.28703317696323
  0
LWPOLYLINE
  5
8E
330
17
100
AcDbEntity
  8
GRAY_L
100
AcDbPolyline
 90
51
 70
1
 10
8279.46259740772
 20
160.023493380947
 10
8277.169945730124
 20
161.42989031982034
 10
8271.328672600772
 20
161.42989031982034
 10
8265.554175409266
 20
168.51446862975484
 10
8260.944078036811
 20
162.8584617483919
 10
8256.198487186382
 20
162.8584617483919
 10
8245.041673142108
 20
173.66477825271852
 10
8248.077751611874
 20
177.38966285492964
 10
8252.735350888084
 20
173.1039485692152
 10
8257.35587477214
 20
178.77274746267747
 10
8262.108477855865
 20
178.77274746267747
 10
8263.22537577116
 20
177.40245486702878
 10
8264.342273686456
 20
178.77274746267747
 10
8270.259276589235
 20
178.77274746267747
 10
8273.251784124199
 20
175.10131889124892
 10
8270.922984486093
 20
172.24417603410603
 10
8273.704974142636
 20
168.83102629560008
 10
8276.486963799176
 20
172.24417603410603
 10
8275.322563980124
 20
173.6727474626776
 10
8278.340314772897
 20
177.37514632135597
 10
8280.669114411003
 20
175.9465748927844
 10
8291.624161446862
 20
189.38703317696314
 10
8290.45976162781
 20
190.8156046055347
 10
8296.97559586316
 20
198.80970978282699
 10
8302.797594958422
 20
194.52399549711274
 10
8307.425066991409
 20
200.2013188912488
 10
8315.663423977223
 20
200.2013188912488
 10
8320.999107773438
 20
195.10982243587227
 10
8319.827776886308
 20
193.6727474626776
 10
8322.60976654285
 20
190.25959772417167
 10
8324.891064277199
 20
193.0584617483917
 10
8327.314867722818
 20
193.0584617483917
 10
8331.442765185746
 20
187.99405321867525
 10
8331.442765185746
 20
185.1316046494713
 10
8336.612343113951
 20
177.37975942540052
 10
8341.262422293643
 20
180.23228917849866
 10
8347.773372543576
 20
172.24417603410603
 10
8343.106653263323
 20
166.5187012273912
 10
8345.435452901429
 20
162.23298694167676
 10
8341.294133019202
 20
157.1521107997189
 10
8324.992535552463
 20
154.29496794257602
 10
8323.82166826566
 20
152.85846174839168
 10
8319.16406898945
 20
152.85846174839168
 10
8317.999669170396
 20
151.42989031982034
 10
8310.937540482653
 20
151.42989031982034
 10
8308.659227360165
 20
152.82749146114182
 10
8305.191271160815
 20
148.57274746267746
 10
8300.533671884605
 20
148.57274746267746
 10
8299.366048023952
 20
147.14022054249543
 10
8290.54136821446
 20
147.86200500380332
 10
8279.46259740772
 20
160.023493380947
  0
LWPOLYLINE
  5
8F
330
17
100
AcDbEntity
  8
GRAY_L
100
AcDbPolyline
 90
5
 70
1
 10
8310.254558551707
 20
189.38703317696314
 10
8307.472568895164
 20
192.80018291546907
 10
8302.361779600516
 20
186.52989031982048
 10
8305.14376925706
 20
183.11674058131456
 10
8310.254558551707
 20
189.38703317696314
  0
ENDSEC
  0
SECTION
  2
OBJECTS
  0
DICTIONARY
  5
A
330
0
100
AcDbDictionary
281
1
  3
ACAD_COLOR
350
B
  3
ACAD_GROUP
350
C
  3
ACAD_LAYOUT
350
D
  3
ACAD_MATERIAL
350
E
  3
ACAD_MLEADERSTYLE
350
F
  3
ACAD_MLINESTYLE
350
10
  3
ACAD_PLOTSETTINGS
350
11
  3
ACAD_PLOTSTYLENAME
350
12
  3
ACAD_SCALELIST
350
14
  3
ACAD_TABLESTYLE
350
15
  3
ACAD_VISUALSTYLE
350
16
  3
EZDXF_META
350
2D
  0
DICTIONARY
  5
B
330
A
100
AcDbDictionary
281
1
  0
DICTIONARY
  5
C
330
A
100
AcDbDictionary
281
1
  0
DICTIONARY
  5
D
330
A
100
AcDbDictionary
281
1
  3
Model
350
1A
  3
Layout1
350
1E
  0
DICTIONARY
  5
E
330
A
100
AcDbDictionary
281
1
  3
ByBlock
350
1F
  3
ByLayer
350
20
  3
Global
350
21
  0
DICTIONARY
  5
F
330
A
100
AcDbDictionary
281
1
  3
Standard
350
2C
  0
DICTIONARY
  5
10
330
A
100
AcDbDictionary
281
1
  3
Standard
350
22
  0
DICTIONARY
  5
11
330
A
100
AcDbDictionary
281
1
  0
ACDBDICTIONARYWDFLT
  5
12
330
A
100
AcDbDictionary
281
1
  3
Normal
350
13
100
AcDbDictionaryWithDefault
340
13
  0
ACDBPLACEHOLDER
  5
13
330
12
  0
DICTIONARY
  5
14
330
A
100
AcDbDictionary
281
1
  0
DICTIONARY
  5
15
330
A
100
AcDbDictionary
281
1
  0
DICTIONARY
  5
16
330
A
100
AcDbDictionary
281
1
  0
LAYOUT
  5
1A
330
D
100
AcDbPlotSettings
  1

  4
A3
  6

 40
7.5
 41
20.0
 42
7.5
 43
20.0
 44
420.0
 45
297.0
 46
0.0
 47
0.0
 48
0.0
 49
0.0
140
0.0
141
0.0
142
1.0
143
1.0
 70
1024
 72
1
 73
0
 74
5
  7

 75
16
 76
0
 77
2
 78
300
147
1.0
148
0.0
149
0.0
100
AcDbLayout
  1
Model
 70
1
 71
0
 10
0.0
 20
0.0
 11
420.0
 21
297.0
 12
0.0
 22
0.0
 32
0.0
 14
1e+20
 24
1e+20
 34
1e+20
 15
-1e+20
 25
-1e+20
 35
-1e+20
146
0.0
 13
0.0
 23
0.0
 33
0.0
 16
1.0
 26
0.0
 36
0.0
 17
0.0
 27
1.0
 37
0.0
 76
1
330
17
  0
LAYOUT
  5
1E
330
D
100
AcDbPlotSettings
  1

  4
A3
  6

 40
7.5
 41
20.0
 42
7.5
 43
20.0
 44
420.0
 45
297.0
 46
0.0
 47
0.0
 48
0.0
 49
0.0
140
0.0
141
0.0
142
1.0
143
1.0
 70
0
 72
1
 73
0
 74
5
  7

 75
16
 76
0
 77
2
 78
300
147
1.0
148
0.0
149
0.0
100
AcDbLayout
  1
Layout1
 70
1
 71
1
 10
0.0
 20
0.0
 11
420.0
 21
297.0
 12
0.0
 22
0.0
 32
0.0
 14
1e+20
 24
1e+20
 34
1e+20
 15
-1e+20
 25
-1e+20
 35
-1e+20
146
0.0
 13
0.0
 23
0.0
 33
0.0
 16
1.0
 26
0.0
 36
0.0
 17
0.0
 27
1.0
 37
0.0
 76
1
330
1B
  0
MATERIAL
  5
1F
102
{ACAD_REACTORS
330
E
102
}
330
E
100
AcDbMaterial
  1
ByBlock
  2

 70
0
 40
1.0
 71
1
 41
1.0
 91
-1023410177
 42
1.0
 72
1
  3

 73
1
 74
1
 75
1
 44
0.5
 73
0
 45
1.0
 46
1.0
 77
1
  4

 78
1
 79
1
170
1
 48
1.0
171
1
  6

172
1
173
1
174
1
140
1.0
141
1.0
175
1
  7

176
1
177
1
178
1
143
1.0
179
1
  8

270
1
271
1
272
1
145
1.0
146
1.0
273
1
  9

274
1
275
1
276
1
 42
1.0
 72
1
  3

 73
1
 74
1
 75
1
 94
63
  0
MATERIAL
  5
20
102
{ACAD_REACTORS
330
E
102
}
330
E
100
AcDbMaterial
  1
ByLayer
  2

 70
0
 40
1.0
 71
1
 41
1.0
 91
-1023410177
 42
1.0
 72
1
  3

 73
1
 74
1
 75
1
 44
0.5
 73
0
 45
1.0
 46
1.0
 77
1
  4

 78
1
 79
1
170
1
 48
1.0
171
1
  6

172
1
173
1
174
1
140
1.0
141
1.0
175
1
  7

176
1
177
1
178
1
143
1.0
179
1
  8

270
1
271
1
272
1
145
1.0
146
1.0
273
1
  9

274
1
275
1
276
1
 42
1.0
 72
1
  3

 73
1
 74
1
 75
1
 94
63
  0
MATERIAL
  5
21
102
{ACAD_REACTORS
330
E
102
}
330
E
100
AcDbMaterial
  1
Global
  2

 70
0
 40
1.0
 71
1
 41
1.0
 91
-1023410177
 42
1.0
 72
1
  3

 73
1
 74
1
 75
1
 44
0.5
 73
0
 45
1.0
 46
1.0
 77
1
  4

 78
1
 79
1
170
1
 48
1.0
171
1
  6

172
1
173
1
174
1
140
1.0
141
1.0
175
1
  7

176
1
177
1
178
1
143
1.0
179
1
  8

270
1
271
1
272
1
145
1.0
146
1.0
273
1
  9

274
1
275
1
276
1
 42
1.0
 72
1
  3

 73
1
 74
1
 75
1
 94
63
  0
MLINESTYLE
  5
22
102
{ACAD_REACTORS
330
10
102
}
330
10
100
AcDbMlineStyle
  2
Standard
 70
0
  3

 62
256
 51
90.0
 52
90.0
 71
2
 49
0.5
 62
256
  6
BYLAYER
 49
-0.5
 62
256
  6
BYLAYER
  0
MLEADERSTYLE
  5
2C
102
{ACAD_REACTORS
330
F
102
}
330
F
100
AcDbMLeaderStyle
179
2
170
2
171
1
172
0
 90
2
 40
0.0
 41
0.0
173
1
 91
-1056964608
 92
-2
290
1
 42
2.0
291
1
 43
8.0
  3
Standard
 44
4.0
300

342
29
174
1
175
1
176
0
178
1
 93
-1056964608
 45
4.0
292
0
297
0
 46
4.0
 94
-1056964608
 47
1.0
 49
1.0
140
1.0
294
1
141
0.0
177
0
142
1.0
295
0
296
0
143
3.75
271
0
272
9
273
9
  0
DICTIONARY
  5
2D
330
A
100
AcDbDictionary
280
1
281
1
  3
CREATED_BY_EZDXF
350
2E
  3
WRITTEN_BY_EZDXF
350
92
  0
DICTIONARYVAR
  5
2E
330
2D
100
DictionaryVariables
280
0
  1
1.4.4 @ 2026-07-21T20:34:18.809963+00:00
  0
DICTIONARYVAR
  5
92
330
2D
100
DictionaryVariables
280
0
  1
1.4.4 @ 2026-07-21T20:34:18.826245+00:00
  0
ENDSEC
  0
EOF
