  0
SECTION
  2
HEADER
  9
$ACADVER
  1
AC1027
  9
$ACADMAINTVER
 70
105
  9
$DWGCODEPAGE
  3
ANSI_1252
  9
$LASTSAVEDBY
  1
ezdxf
  9
$REQUIREDVERSIONS
160
0
  9
$INSBASE
 10
0.0
 20
0.0
 30
0.0
  9
$EXTMIN
 10
1e+20
 20
1e+20
 30
1e+20
  9
$EXTMAX
 10
-1e+20
 20
-1e+20
 30
-1e+20
  9
$LIMMIN
 10
0.0
 20
0.0
  9
$LIMMAX
 10
420.0
 20
297.0
  9
$ORTHOMODE
 70
0
  9
$REGENMODE
 70
1
  9
$FILLMODE
 70
1
  9
$QTEXTMODE
 70
0
  9
$MIRRTEXT
 70
1
  9
$LTSCALE
 40
1.0
  9
$ATTMODE
 70
1
  9
$TEXTSIZE
 40
2.5
  9
$TRACEWID
 40
1.0
  9
$TEXTSTYLE
  7
Standard
  9
$CLAYER
  8
0
  9
$CELTYPE
  6
ByLayer
  9
$CECOLOR
 62
256
  9
$CELTSCALE
 40
1.0
  9
$DISPSILH
 70
0
  9
$DIMSCALE
 40
1.0
  9
$DIMASZ
 40
2.5
  9
$DIMEXO
 40
0.625
  9
$DIMDLI
 40
3.75
  9
$DIMRND
 40
0.0
  9
$DIMDLE
 40
0.0
  9
$DIMEXE
 40
1.25
  9
$DIMTP
 40
0.0
  9
$DIMTM
 40
0.0
  9
$DIMTXT
 40
2.5
  9
$DIMCEN
 40
2.5
  9
$DIMTSZ
 40
0.0
  9
$DIMTOL
 70
0
  9
$DIMLIM
 70
0
  9
$DIMTIH
 70
0
  9
$DIMTOH
 70
0
  9
$DIMSE1
 70
0
  9
$DIMSE2
 70
0
  9
$DIMTAD
 70
1
  9
$DIMZIN
 70
8
  9
$DIMBLK
  1

  9
$DIMASO
 70
1
  9
$DIMSHO
 70
1
  9
$DIMPOST
  1

  9
$DIMAPOST
  1

  9
$DIMALT
 70
0
  9
$DIMALTD
 70
3
  9
$DIMALTF
 40
0.03937007874
  9
$DIMLFAC
 40
1.0
  9
$DIMTOFL
 70
1
  9
$DIMTVP
 40
0.0
  9
$DIMTIX
 70
0
  9
$DIMSOXD
 70
0
  9
$DIMSAH
 70
0
  9
$DIMBLK1
  1

  9
$DIMBLK2
  1

  9
$DIMSTYLE
  2
ISO-25
  9
$DIMCLRD
 70
0
  9
$DIMCLRE
 70
0
  9
$DIMCLRT
 70
0
  9
$DIMTFAC
 40
1.0
  9
$DIMGAP
 40
0.625
  9
$DIMJUST
 70
0
  9
$DIMSD1
 70
0
  9
$DIMSD2
 70
0
  9
$DIMTOLJ
 70
0
  9
$DIMTZIN
 70
8
  9
$DIMALTZ
 70
0
  9
$DIMALTTZ
 70
0
  9
$DIMUPT
 70
0
  9
$DIMDEC
 70
2
  9
$DIMTDEC
 70
2
  9
$DIMALTU
 70
2
  9
$DIMALTTD
 70
3
  9
$DIMTXSTY
  7
Standard
  9
$DIMAUNIT
 70
0
  9
$DIMADEC
 70
0
  9
$DIMALTRND
 40
0.0
  9
$DIMAZIN
 70
0
  9
$DIMDSEP
 70
44
  9
$DIMATFIT
 70
3
  9
$DIMFRAC
 70
0
  9
$DIMLDRBLK
  1

  9
$DIMLUNIT
 70
2
  9
$DIMLWD
 70
-2
  9
$DIMLWE
 70
-2
  9
$DIMTMOVE
 70
0
  9
$DIMFXL
 40
1.0
  9
$DIMFXLON
 70
0
  9
$DIMJOGANG
 40
0.785398163397
  9
$DIMTFILL
 70
0
  9
$DIMTFILLCLR
 70
0
  9
$DIMARCSYM
 70
0
  9
$DIMLTYPE
  6

  9
$DIMLTEX1
  6

  9
$DIMLTEX2
  6

  9
$DIMTXTDIRECTION
 70
0
  9
$LUNITS
 70
2
  9
$LUPREC
 70
4
  9
$SKETCHINC
 40
1.0
  9
$FILLETRAD
 40
10.0
  9
$AUNITS
 70
0
  9
$AUPREC
 70
2
  9
$MENU
  1
.
  9
$ELEVATION
 40
0.0
  9
$PELEVATION
 40
0.0
  9
$THICKNESS
 40
0.0
  9
$LIMCHECK
 70
0
  9
$CHAMFERA
 40
0.0
  9
$CHAMFERB
 40
0.0
  9
$CHAMFERC
 40
0.0
  9
$CHAMFERD
 40
0.0
  9
$SKPOLY
 70
0
  9
$TDCREATE
 40
2461244.770590278
  9
$TDUCREATE
 40
2458532.153996898
  9
$TDUPDATE
 40
2461244.770590278
  9
$TDUUPDATE
 40
2458532.1544311
  9
$TDINDWG
 40
0.0
  9
$TDUSRTIMER
 40
0.0
  9
$USRTIMER
 70
1
  9
$ANGBASE
 50
0.0
  9
$ANGDIR
 70
0
  9
$PDMODE
 70
0
  9
$PDSIZE
 40
0.0
  9
$PLINEWID
 40
0.0
  9
$SPLFRAME
 70
0
  9
$SPLINETYPE
 70
6
  9
$SPLINESEGS
 70
8
  9
$HANDSEED
  5
56
  9
$SURFTAB1
 70
6
  9
$SURFTAB2
 70
6
  9
$SURFTYPE
 70
6
  9
$SURFU
 70
6
  9
$SURFV
 70
6
  9
$UCSBASE
  2

  9
$UCSNAME
  2

  9
$UCSORG
 10
0.0
 20
0.0
 30
0.0
  9
$UCSXDIR
 10
1.0
 20
0.0
 30
0.0
  9
$UCSYDIR
 10
0.0
 20
1.0
 30
0.0
  9
$UCSORTHOREF
  2

  9
$UCSORTHOVIEW
 70
0
  9
$UCSORGTOP
 10
0.0
 20
0.0
 30
0.0
  9
$UCSORGBOTTOM
 10
0.0
 20
0.0
 30
0.0
  9
$UCSORGLEFT
 10
0.0
 20
0.0
 30
0.0
  9
$UCSORGRIGHT
 10
0.0
 20
0.0
 30
0.0
  9
$UCSORGFRONT
 10
0.0
 20
0.0
 30
0.0
  9
$UCSORGBACK
 10
0.0
 20
0.0
 30
0.0
  9
$PUCSBASE
  2

  9
$PUCSNAME
  2

  9
$PUCSORG
 10
0.0
 20
0.0
 30
0.0
  9
$PUCSXDIR
 10
1.0
 20
0.0
 30
0.0
  9
$PUCSYDIR
 10
0.0
 20
1.0
 30
0.0
  9
$PUCSORTHOREF
  2

  9
$PUCSORTHOVIEW
 70
0
  9
$PUCSORGTOP
 10
0.0
 20
0.0
 30
0.0
  9
$PUCSORGBOTTOM
 10
0.0
 20
0.0
 30
0.0
  9
$PUCSORGLEFT
 10
0.0
 20
0.0
 30
0.0
  9
$PUCSORGRIGHT
 10
0.0
 20
0.0
 30
0.0
  9
$PUCSORGFRONT
 10
0.0
 20
0.0
 30
0.0
  9
$PUCSORGBACK
 10
0.0
 20
0.0
 30
0.0
  9
$USERI1
 70
0
  9
$USERI2
 70
0
  9
$USERI3
 70
0
  9
$USERI4
 70
0
  9
$USERI5
 70
0
  9
$USERR1
 40
0.0
  9
$USERR2
 40
0.0
  9
$USERR3
 40
0.0
  9
$USERR4
 40
0.0
  9
$USERR5
 40
0.0
  9
$WORLDVIEW
 70
1
  9
$SHADEDGE
 70
3
  9
$SHADEDIF
 70
70
  9
$TILEMODE
 70
1
  9
$MAXACTVP
 70
64
  9
$PINSBASE
 10
0.0
 20
0.0
 30
0.0
  9
$PLIMCHECK
 70
0
  9
$PEXTMIN
 10
1e+20
 20
1e+20
 30
1e+20
  9
$PEXTMAX
 10
-1e+20
 20
-1e+20
 30
-1e+20
  9
$PLIMMIN
 10
0.0
 20
0.0
  9
$PLIMMAX
 10
420.0
 20
297.0
  9
$UNITMODE
 70
0
  9
$VISRETAIN
 70
1
  9
$PLINEGEN
 70
0
  9
$PSLTSCALE
 70
1
  9
$TREEDEPTH
 70
3020
  9
$CMLSTYLE
  2
Standard
  9
$CMLJUST
 70
0
  9
$CMLSCALE
 40
20.0
  9
$PROXYGRAPHICS
 70
1
  9
$MEASUREMENT
 70
1
  9
$CELWEIGHT
370
-1
  9
$ENDCAPS
280
0
  9
$JOINSTYLE
280
0
  9
$LWDISPLAY
290
0
  9
$INSUNITS
 70
4
  9
$HYPERLINKBASE
  1

  9
$STYLESHEET
  1

  9
$XEDIT
290
1
  9
$CEPSNTYPE
380
0
  9
$PSTYLEMODE
290
1
  9
$FINGERPRINTGUID
  2
{B03F714A-DB81-4B11-97E0-7B78DCE557E7}
  9
$VERSIONGUID
  2
{3D022333-8DCB-4885-A03F-4025EB5B43C4}
  9
$EXTNAMES
290
1
  9
$PSVPSCALE
 40
0.0
  9
$OLESTARTUP
290
0
  9
$SORTENTS
280
127
  9
$INDEXCTL
280
0
  9
$HIDETEXT
280
1
  9
$XCLIPFRAME
280
1
  9
$HALOGAP
280
0
  9
$OBSCOLOR
 70
257
  9
$OBSLTYPE
280
0
  9
$INTERSECTIONDISPLAY
280
0
  9
$INTERSECTIONCOLOR
 70
257
  9
$DIMASSOC
280
2
  9
$PROJECTNAME
  1

  9
$CAMERADISPLAY
290
0
  9
$LENSLENGTH
 40
50.0
  9
$CAMERAHEIGHT
 40
0.0
  9
$STEPSPERSEC
 40
24.0
  9
$STEPSIZE
 40
100.0
  9
$3DDWFPREC
 40
2.0
  9
$PSOLWIDTH
 40
0.005
  9
$PSOLHEIGHT
 40
0.08
  9
$LOFTANG1
 40
1.570796326795
  9
$LOFTANG2
 40
1.570796326795
  9
$LOFTMAG1
 40
0.0
  9
$LOFTMAG2
 40
0.0
  9
$LOFTPARAM
 70
7
  9
$LOFTNORMALS
280
1
  9
$LATITUDE
 40
37.795
  9
$LONGITUDE
 40
-122.394
  9
$NORTHDIRECTION
 40
0.0
  9
$TIMEZONE
 70
-8000
  9
$LIGHTGLYPHDISPLAY
280
1
  9
$TILEMODELIGHTSYNCH
280
1
  9
$CMATERIAL
347
20
  9
$SOLIDHIST
280
0
  9
$SHOWHIST
280
1
  9
$DWFFRAME
280
2
  9
$DGNFRAME
280
2
  9
$REALWORLDSCALE
290
1
  9
$INTERFERECOLOR
 62
256
  9
$CSHADOW
280
0
  9
$SHADOWPLANELOCATION
 40
0.0
  0
ENDSEC
  0
SECTION
  2
CLASSES
  0
CLASS
  1
ACDBDICTIONARYWDFLT
  2
AcDbDictionaryWithDefault
  3
ObjectDBX Classes
 90
0
 91
0
280
0
281
0
  0
CLASS
  1
SUN
  2
AcDbSun
  3
SCENEOE
 90
1153
 91
0
280
0
281
0
  0
CLASS
  1
VISUALSTYLE
  2
AcDbVisualStyle
  3
ObjectDBX Classes
 90
4095
 91
0
280
0
281
0
  0
CLASS
  1
MATERIAL
  2
AcDbMaterial
  3
ObjectDBX Classes
 90
1153
 91
0
280
0
281
0
  0
CLASS
  1
SCALE
  2
AcDbScale
  3
ObjectDBX Classes
 90
1153
 91
0
280
0
281
0
  0
CLASS
  1
TABLESTYLE
  2
AcDbTableStyle
  3
ObjectDBX Classes
 90
4095
 91
0
280
0
281
0
  0
CLASS
  1
MLEADERSTYLE
  2
AcDbMLeaderStyle
  3
ACDB_MLEADERSTYLE_CLASS
 90
4095
 91
0
280
0
281
0
  0
CLASS
  1
DICTIONARYVAR
  2
AcDbDictionaryVar
  3
ObjectDBX Classes
 90
0
 91
0
280
0
281
0
  0
CLASS
  1
CELLSTYLEMAP
  2
AcDbCellStyleMap
  3
ObjectDBX Classes
 90
1152
 91
0
280
0
281
0
  0
CLASS
  1
MENTALRAYRENDERSETTINGS
  2
AcDbMentalRayRenderSettings
  3
SCENEOE
 90
1024
 91
0
280
0
281
0
  0
CLASS
  1
ACDBDETAILVIEWSTYLE
  2
AcDbDetailViewStyle
  3
ObjectDBX Classes
 90
1025
 91
0
280
0
281
0
  0
CLASS
  1
ACDBSECTIONVIEWSTYLE
  2
AcDbSectionViewStyle
  3
ObjectDBX Classes
 90
1025
 91
0
280
0
281
0
  0
CLASS
  1
RASTERVARIABLES
  2
AcDbRasterVariables
  3
ISM
 90
0
 91
0
280
0
281
0
  0
CLASS
  1
LAYOUT
  2
AcDbLayout
  3
ObjectDBX Classes
 90
0
 91
0
280
0
281
0
  0
CLASS
  1
ACDBPLACEHOLDER
  2
AcDbPlaceHolder
  3
ObjectDBX Classes
 90
0
 91
0
280
0
281
0
  0
ENDSEC
  0
SECTION
  2
TABLES
  0
TABLE
  2
VPORT
  5
8
330
0
100
AcDbSymbolTable
 70
1
  0
VPORT
  5
23
330
8
100
AcDbSymbolTableRecord
100
AcDbViewportTableRecord
  2
*Active
 70
0
 10
0.0
 20
0.0
 11
1.0
 21
1.0
 12
0.0
 22
0.0
 13
0.0
 23
0.0
 14
0.5
 24
0.5
 15
0.5
 25
0.5
 16
0.0
 26
0.0
 36
1.0
 17
0.0
 27
0.0
 37
0.0
 40
1000.0
 41
1.34
 42
50.0
 43
0.0
 44
0.0
 50
0.0
 51
0.0
 71
0
 72
1000
 73
1
 74
3
 75
0
 76
0
 77
0
 78
0
281
0
 65
0
146
0.0
  0
ENDTAB
  0
TABLE
  2
LTYPE
  5
2
330
0
100
AcDbSymbolTable
 70
3
  0
LTYPE
  5
24
330
2
100
AcDbSymbolTableRecord
100
AcDbLinetypeTableRecord
  2
ByBlock
 70
0
  3

 72
65
 73
0
 40
0.0
  0
LTYPE
  5
25
330
2
100
AcDbSymbolTableRecord
100
AcDbLinetypeTableRecord
  2
ByLayer
 70
0
  3

 72
65
 73
0
 40
0.0
  0
LTYPE
  5
26
330
2
100
AcDbSymbolTableRecord
100
AcDbLinetypeTableRecord
  2
Continuous
 70
0
  3

 72
65
 73
0
 40
0.0
  0
ENDTAB
  0
TABLE
  2
LAYER
  5
1
330
0
100
AcDbSymbolTable
 70
3
  0
LAYER
  5
27
330
1
100
AcDbSymbolTableRecord
100
AcDbLayerTableRecord
  2
0
 70
0
 62
7
  6
Continuous
370
-3
390
13
347
21
  0
LAYER
  5
28
330
1
100
AcDbSymbolTableRecord
100
AcDbLayerTableRecord
  2
Defpoints
 70
0
 62
7
  6
Continuous
290
0
370
-3
390
13
347
21
  0
LAYER
  5
2F
330
1
100
AcDbSymbolTableRecord
100
AcDbLayerTableRecord
  2
GRY1
 70
0
 62
7
  6
Continuous
370
-3
390
13
347
21
  0
ENDTAB
  0
TABLE
  2
STYLE
  5
5
330
0
100
AcDbSymbolTable
 70
1
  0
STYLE
  5
29
330
5
100
AcDbSymbolTableRecord
100
AcDbTextStyleTableRecord
  2
Standard
 70
0
 40
0.0
 41
1.0
 50
0.0
 71
0
 42
2.5
  3
txt
  4

  0
ENDTAB
  0
TABLE
  2
VIEW
  5
7
330
0
100
AcDbSymbolTable
 70
0
  0
ENDTAB
  0
TABLE
  2
UCS
  5
6
330
0
100
AcDbSymbolTable
 70
0
  0
ENDTAB
  0
TABLE
  2
APPID
  5
3
330
0
100
AcDbSymbolTable
 70
3
  0
APPID
  5
2A
330
3
100
AcDbSymbolTableRecord
100
AcDbRegAppTableRecord
  2
ACAD
 70
0
  0
APPID
  5
53
330
3
100
AcDbSymbolTableRecord
100
AcDbRegAppTableRecord
  2
HATCHBACKGROUNDCOLOR
 70
0
  0
APPID
  5
54
330
3
100
AcDbSymbolTableRecord
100
AcDbRegAppTableRecord
  2
EZDXF
 70
0
  0
ENDTAB
  0
TABLE
  2
DIMSTYLE
  5
4
330
0
100
AcDbSymbolTable
 70
1
100
AcDbDimStyleTable
  0
DIMSTYLE
105
2B
330
4
100
AcDbSymbolTableRecord
100
AcDbDimStyleTableRecord
  2
Standard
 70
0
 40
1.0
 41
2.5
 42
0.625
 43
3.75
 44
1.25
 45
0.0
 46
0.0
 47
0.0
 48
0.0
 49
2.5
140
2.5
141
2.5
142
0.0
143
0.03937007874
144
1.0
145
0.0
146
1.0
147
0.625
148
0.0
 69
0
 70
0
 71
0
 72
0
 73
0
 74
0
 75
0
 76
0
 77
1
 78
8
 79
3
170
0
171
3
172
1
173
0
174
0
175
0
176
0
177
0
178
0
179
2
271
2
272
2
273
2
274
3
275
0
276
0
277
2
278
44
279
0
280
0
281
0
282
0
283
0
284
8
285
0
286
0
288
0
289
3
290
0
371
-2
372
-2
  0
ENDTAB
  0
TABLE
  2
BLOCK_RECORD
  5
9
330
0
100
AcDbSymbolTable
 70
2
  0
BLOCK_RECORD
  5
17
330
9
100
AcDbSymbolTableRecord
100
AcDbBlockTableRecord
  2
*Model_Space
340
1A
 70
0
280
1
281
0
  0
BLOCK_RECORD
  5
1B
330
9
100
AcDbSymbolTableRecord
100
AcDbBlockTableRecord
  2
*Paper_Space
340
1E
 70
0
280
1
281
0
  0
ENDTAB
  0
ENDSEC
  0
SECTION
  2
BLOCKS
  0
BLOCK
  5
18
330
17
100
AcDbEntity
  8
0
100
AcDbBlockBegin
  2
*Model_Space
 70
0
 10
0.0
 20
0.0
 30
0.0
  3
*Model_Space
  1

  0
ENDBLK
  5
19
330
17
100
AcDbEntity
  8
0
100
AcDbBlockEnd
  0
BLOCK
  5
1C
330
1B
100
AcDbEntity
  8
0
100
AcDbBlockBegin
  2
*Paper_Space
 70
0
 10
0.0
 20
0.0
 30
0.0
  3
*Paper_Space
  1

  0
ENDBLK
  5
1D
330
1B
100
AcDbEntity
  8
0
100
AcDbBlockEnd
  0
ENDSEC
  0
SECTION
  2
ENTITIES
  0
LWPOLYLINE
  5
30
330
17
100
AcDbEntity
  8
GRY1
100
AcDbPolyline
 90
29
 70
1
 10
436.2993094304153
 20
147.9542263872
 10
430.7320275335942
 20
152.23332509041444
 10
433.57770963681384
 20
155.1496386100877
 10
434.97168189666627
 20
162.29249575294503
 10
438.50689962975054
 20
165.91545956127663
 10
442.7550865122445
 20
165.91545956127663
 10
448.33097555165403
 20
163.05831670413374
 10
451.1369324137342
 20
163.05831670413374
 10
453.9072077573218
 20
160.2192815819108
 10
460.7954955681197
 20
163.04298516388172
 10
467.78031708665014
 20
170.20117384699086
 10
469.25857179181475
 20
170.20117384699086
 10
471.41418925372204
 20
167.99205275778317
 10
470.00800751462356
 20
159.34554903438402
 10
464.45479246742116
 20
152.23173785819654
 10
465.8314999195277
 20
149.4099816608545
 10
465.8314999195277
 20
139.33616036736197
 10
460.86189073832486
 20
135.69833347310612
 10
458.0847036786837
 20
137.1213926685675
 10
455.2896330381824
 20
134.25694681633638
 10
451.063892025962
 20
137.14403098984795
 10
446.9550156341771
 20
137.14403098984795
 10
442.7683172212822
 20
132.85341638799042
 10
436.4246589343908
 20
133.57576210160937
 10
432.9448668805962
 20
135.71545956127662
 10
430.14306607063645
 20
135.71545956127662
 10
427.99424890351423
 20
137.91761156859116
 10
427.99424890351423
 20
140.86156242071146
 10
436.2993094304153
 20
147.9542263872
  0
LWPOLYLINE
  5
31
330
17
100
AcDbEntity
  8
GRY1
100
AcDbPolyline
 90
18
 70
1
 10
435.1641102027759
 20
50.774754425734095
 10
435.1641102027759
 20
46.493797129180116
 10
427.46123411405625
 20
37.164446675979846
 10
424.6236552323044
 20
35.71044209011465
 10
410.6194548210966
 20
38.5808005848467
 10
407.05719910963035
 20
42.231473469259264
 10
409.84514362933487
 20
46.51718775497349
 10
407.06391384000165
 20
49.3674492183932
 10
408.4639287867995
 20
52.23697741514521
 10
405.66322684977797
 20
56.54230279615091
 10
410.64954446701597
 20
61.65238359684289
 10
413.4575401750644
 20
60.213537733262214
 10
416.2655358831129
 20
61.65238359684289
 10
419.0534804028176
 20
58.79524073969999
 10
421.79724485389755
 20
60.201173846990756
 10
428.8333762560965
 20
60.201173846990756
 10
436.59780174347395
 20
52.24403098984798
 10
435.1641102027759
 20
50.774754425734095
  0
LWPOLYLINE
  5
32
330
17
100
AcDbEntity
  8
GRY1
100
AcDbPolyline
 90
18
 70
1
 10
345.19504066495523
 20
97.3440309898479
 10
350.7614780359818
 20
97.3440309898479
 10
355.75973548657623
 20
93.68523314172683
 10
352.95946615233277
 20
90.81545956127657
 10
357.12648218797915
 20
86.54501586424513
 10
354.96981813601013
 20
82.86135977054786
 10
341.62806937802156
 20
82.14173353891385
 10
339.53486918023356
 20
84.28688813270513
 10
336.7469246605288
 20
84.28688813270513
 10
330.37647143300364
 20
90.81545956127657
 10
332.5650078809718
 20
93.05831670413367
 10
338.1408969203812
 20
93.05831670413367
 10
339.5770104028897
 20
94.53007532400403
 10
340.9709826627421
 20
93.10150389543259
 10
342.92222177167474
 20
95.10117384699079
 10
341.5282495118225
 20
96.52974527556223
 10
343.7589271824468
 20
98.81578960971838
 10
345.19504066495523
 20
97.3440309898479
  0
LWPOLYLINE
  5
33
330
17
100
AcDbEntity
  8
GRY1
100
AcDbPolyline
 90
40
 70
1
 10
281.8668808998629
 20
136.52974527556228
 10
280.47290864001053
 20
135.10117384699095
 10
281.88607930556464
 20
133.65292749758373
 10
278.2339228841373
 20
131.40724450951157
 10
271.236616821638
 20
137.14403098984795
 10
265.67235175043425
 20
137.14403098984795
 10
262.9285872993541
 20
138.54996409713905
 10
261.556705073814
 20
137.14403098984795
 10
253.10108587265623
 20
137.14403098984795
 10
248.1306602139527
 20
143.69319521184389
 10
253.1274103100677
 20
147.35088965435204
 10
260.0761893740946
 20
145.92663932739435
 10
267.0382585314365
 20
155.9154595612764
 10
269.9147741569571
 20
155.9154595612764
 10
277.69212791193775
 20
149.3942297336397
 10
276.29099186045346
 20
147.9583167041336
 10
277.665996005187
 20
146.54918418987407
 10
276.27202374533476
 20
143.69204133273118
 10
278.23543714443235
 20
141.67989491833822
 10
285.1856080348748
 20
150.22710852687317
 10
287.9927210712637
 20
148.78871495332356
 10
292.1903122671791
 20
151.65656678654105
 10
303.37200109981535
 20
141.62974527556216
 10
306.1574290149196
 20
141.62974527556216
 10
313.1272903141814
 20
135.9154595612766
 10
315.92162320805585
 20
135.9154595612766
 10
318.12935806172584
 20
133.65292749758373
 10
314.4697783110377
 20
131.4026799612522
 10
311.6975652058427
 20
134.24370094140613
 10
308.9584943980609
 20
131.43664486896634
 10
300.52276355019524
 20
129.99579313713738
 10
292.19487863545703
 20
135.68551824490794
 10
286.62179594300994
 20
129.97410853268087
 10
282.96221619232176
 20
132.2243560690124
 10
285.788327232847
 20
135.1206127613027
 10
284.39435497299456
 20
137.97775561844537
 10
285.7693591177283
 20
139.38688813270517
 10
283.8181200087956
 20
141.38655808426327
 10
280.47290864001053
 20
137.9583167041336
 10
281.8668808998629
 20
136.52974527556228
  0
LWPOLYLINE
  5
34
330
17
100
AcDbEntity
  8
GRY1
100
AcDbPolyline
 90
31
 70
1
 10
154.13655861987053
 20
127.14403098984795
 10
151.33856096369124
 20
127.14403098984795
 10
147.77650407243337
 20
132.25468777097382
 10
149.9967830629696
 20
134.53007532400397
 10
151.4328965454781
 20
133.05831670413372
 10
154.22084106518287
 20
133.05831670413372
 10
159.80657495678452
 20
127.33394178293511
 10
165.38246399619393
 20
125.90537035436378
 10
169.51239470090263
 20
121.67293246686106
 10
170.9063669607549
 20
123.10150389543261
 10
173.13704463137935
 20
120.81545956127648
 10
170.3491001116746
 20
117.9583167041336
 10
172.30033922060727
 20
115.9586467525755
 10
174.25157832953997
 20
117.9583167041336
 10
172.8576060696877
 20
119.38688813270515
 10
175.0426989817784
 20
121.62621626920411
 10
191.85452257729952
 20
123.06197480510761
 10
194.00690924831875
 20
120.85616469681892
 10
194.00690924831875
 20
116.48904014001982
 10
190.47396467353616
 20
112.86840591104641
 10
184.89807563412674
 20
111.43983448247496
 10
180.6953644246304
 20
107.13280963747596
 10
175.04098679694567
 20
108.58149024574703
 10
166.6875603210176
 20
115.7154595612766
 10
163.97864688414933
 20
115.7154595612766
 10
161.19070236444466
 20
112.85831670413371
 10
156.92450313957528
 20
112.85831670413371
 10
154.77568597245283
 20
115.06046871144837
 10
154.77568597245283
 20
120.85616469681892
 10
157.52391121131183
 20
123.67260241841937
 10
154.13655861987053
 20
127.14403098984795
  0
LWPOLYLINE
  5
35
330
17
100
AcDbEntity
  8
GRY1
100
AcDbPolyline
 90
41
 70
1
 10
85.92195490667453
 20
33.047628973643214
 10
90.11088314466176
 20
31.61666238282601
 10
93.65470392118735
 20
27.98488199871818
 10
92.23480976272702
 20
23.619471829250504
 10
88.10473678038578
 20
19.38688813270506
 10
90.0689009568657
 20
17.373972306216512
 10
98.38891028331653
 20
23.05831670413372
 10
101.24989519079341
 20
23.05831670413372
 10
103.39871235791587
 20
20.856164696818947
 10
103.39871235791587
 20
17.917611568591283
 10
102.05799945330796
 20
16.543621422156928
 10
110.95369635589414
 20
10.232203150102759
 10
115.10533534400469
 20
14.486888132705156
 10
120.6992367257893
 20
14.486888132705156
 10
123.53136131411868
 20
15.938097882557066
 10
125.74198779639923
 20
13.672602418419388
 10
124.34801553654695
 20
12.244030989847943
 10
126.31930583382345
 20
10.223812168271396
 10
131.88443741316945
 20
13.075442792304216
 10
136.88595090850586
 20
9.414261471620389
 10
134.6952107686139
 20
5.672402252215103
 10
130.50469510553143
 20
8.535419984430636
 10
126.36595348259128
 20
2.880129987581137
 10
123.5354390060559
 20
1.4297452755622775
 10
98.46195067108876
 20
1.4297452755622775
 10
97.06683299413666
 20
0.0
 10
71.19407703100222
 20
0.7166197889695303
 10
69.74337812145936
 20
2.2033258543054934
 10
69.74337812145936
 20
5.060468711448385
 10
66.96026079143303
 20
7.9126645653735395
 10
65.55638931590858
 20
19.42239535174073
 10
67.75241973168077
 20
21.672932466861194
 10
76.12721502306385
 20
13.090270086857036
 10
80.83047755635498
 20
16.533127323814067
 10
74.73068254677074
 20
21.395168130398766
 10
73.3283087710902
 20
19.95798665569193
 10
69.70365884061358
 20
23.672602418419398
 10
72.53132264116414
 20
26.57045041110473
 10
72.53132264116414
 20
29.42759326824751
 10
80.28865678186725
 20
37.37746876753767
 10
85.92195490667453
 20
33.047628973643214
  0
LWPOLYLINE
  5
36
330
17
100
AcDbEntity
  8
GRY1
100
AcDbPolyline
 90
5
 70
1
 10
84.4884883657372
 20
17.10945384468443
 10
82.52884774097635
 20
15.101173846990834
 10
88.64197455316547
 20
8.83631581886024
 10
90.62290653591786
 20
12.21981551729645
 10
84.4884883657372
 20
17.10945384468443
  0
LWPOLYLINE
  5
37
330
17
100
AcDbEntity
  8
GRY1
100
AcDbPolyline
 90
25
 70
1
 10
110.36857365717756
 20
127.99902183967605
 10
113.15651817688233
 20
125.14187898253314
 10
113.15651817688233
 20
122.28473612539048
 10
114.5504904367347
 20
120.85616469681892
 10
114.5504904367347
 20
116.5704504111047
 10
117.93542108636557
 20
113.10150389543261
 10
122.11733786592261
 20
117.38721818114684
 10
125.70226851555344
 20
113.71330755396181
 10
125.70226851555344
 20
105.0452708923284
 10
122.0974115667608
 20
102.82867198740708
 10
110.98139558434428
 20
115.64458389652854
 10
108.99644521962904
 20
112.25422066401936
 10
117.37311801477435
 20
102.23886976548646
 10
115.18238636089151
 20
99.99376293047979
 10
106.73476929562375
 20
101.43664486896643
 10
96.20582726182924
 20
112.22692111460486
 10
99.75424321268811
 20
118.77260241841947
 10
102.55958500533346
 20
118.77260241841947
 10
105.94045384715567
 20
122.2373863099484
 10
97.64206794022434
 20
129.32435003663767
 10
96.2080998929269
 20
132.26346990415982
 10
98.37766822577643
 20
134.48688813270505
 10
105.42236030196773
 20
134.48688813270505
 10
110.36857365717756
 20
130.8661873266197
 10
110.36857365717756
 20
127.99902183967605
  0
LWPOLYLINE
  5
38
330
17
100
AcDbEntity
  8
GRY1
100
AcDbPolyline
 90
67
 70
1
 10
16.764253236624338
 20
137.97982377486773
 10
20.923658679440237
 20
143.66334938159264
 10
16.73271296622414
 20
147.9583167041336
 10
18.166404506922305
 20
149.42759326824762
 10
18.166404506922305
 20
155.0604687114483
 10
16.772432247069922
 20
156.48904014001985
 10
16.772432247069922
 20
162.20332585430563
 10
11.165852860473668
 20
167.9490636673069
 10
15.388312755907908
 20
173.71874860641756
 10
16.75863486483187
 20
177.93175140954932
 10
14.781473857291338
 20
179.95798665569197
 10
13.429642820095179
 20
178.57260241841934
 10
9.163443595225917
 20
178.57260241841934
 10
7.014626428103465
 20
180.7747544257341
 10
7.014626428103465
 20
183.64293851657766
 10
4.199216012300222
 20
187.97087422472237
 10
7.7694713353735345
 20
191.62974527556221
 10
10.641698300390523
 20
191.62974527556221
 10
12.035670560242796
 20
190.20117384699086
 10
24.58142089891402
 20
190.20117384699086
 10
27.369365418618674
 20
187.34403098984797
 10
32.9452544580282
 20
187.34403098984797
 10
38.49473368929102
 20
181.65681058987215
 10
45.409379879983504
 20
185.9085735285766
 10
51.05594425836158
 20
187.35525234221996
 10
53.255430284076866
 20
185.10117384699078
 10
51.849204639477286
 20
183.66004489783072
 10
54.588135620192716
 20
179.44967573564895
 10
60.22529158333867
 20
173.67260241841942
 10
58.7916000426405
 20
172.20332585430543
 10
58.7916000426405
 20
169.4342146913963
 10
65.75271185816544
 20
163.72710229775177
 10
67.16000027627177
 20
156.51601179126274
 10
65.7822125076294
 20
153.69204133273118
 10
70.58250547404165
 20
148.77260241841927
 10
73.35803525359252
 20
148.77260241841927
 10
81.15173153955068
 20
143.68987685361455
 10
75.55898644171455
 20
137.9583167041336
 10
77.55236677330346
 20
135.9154595612766
 10
83.04397336740055
 20
135.9154595612766
 10
84.46003566156523
 20
137.3666693111284
 10
90.11994722978677
 20
134.46647244657294
 10
97.85710517785829
 20
125.09560146566368
 10
95.67400615138399
 20
122.85831670413371
 10
88.7041448521223
 20
122.85831670413371
 10
87.31017259226992
 20
121.42974527556217
 10
84.44918768479293
 20
121.42974527556217
 10
80.26727090523589
 20
124.28688813270506
 10
73.29255592260387
 20
124.28688813270506
 10
66.33809521327383
 20
129.9885475740623
 10
62.14907706459971
 20
128.55755026913806
 10
59.94585302164701
 20
130.8154595612765
 10
62.71459913564992
 20
133.65292749758373
 10
59.39601424641261
 20
135.6934999074919
 10
53.264493678354505
 20
130.80617120849936
 10
56.02440668866293
 20
127.97775561844537
 10
54.63043442881066
 20
125.12061276130248
 10
58.831319323486284
 20
120.81545956127648
 10
56.63800124218032
 20
118.56770210227619
 10
50.26468434418785
 20
119.29342501082462
 10
46.769678255484834
 20
125.74058237015362
 10
41.238063373864044
 20
128.5750386937612
 10
27.36506978756681
 20
129.9967715959811
 10
25.9753931587664
 20
128.57260241841928
 10
21.70919393389703
 20
128.57260241841928
 10
18.175734313941927
 20
132.19376447627386
 10
16.764253236624338
 20
137.97982377486773
  0
LWPOLYLINE
  5
39
330
17
100
AcDbEntity
  8
GRY1
100
AcDbPolyline
 90
5
 70
1
 10
70.56521296793127
 20
134.5195596061486
 10
73.87660549149277
 20
136.55570948553563
 10
67.76513535480821
 20
144.2106831036667
 10
65.78154636958034
 20
140.82264515396625
 10
70.56521296793127
 20
134.5195596061486
  0
LWPOLYLINE
  5
3A
330
17
100
AcDbEntity
  8
GRY1
100
AcDbPolyline
 90
5
 70
1
 10
57.4295320969217
 20
143.64522907950405
 10
59.408615248867314
 20
140.2648872474317
 10
64.12776980120415
 20
145.10117384699072
 10
62.165568960002474
 20
147.11207760712463
 10
57.4295320969217
 20
143.64522907950405
  0
LWPOLYLINE
  5
3B
330
17
100
AcDbEntity
  8
GRY1
100
AcDbPolyline
 90
6
 70
1
 10
48.77179154049571
 20
160.79262307247367
 10
42.67855544653321
 20
164.26177507868877
 10
40.70967994540575
 20
162.24403098984808
 10
44.097032536847045
 20
158.7726024184195
 10
46.800694611239365
 20
158.7726024184195
 10
48.77179154049571
 20
160.79262307247367
  0
LWPOLYLINE
  5
3C
330
17
100
AcDbEntity
  8
GRY1
100
AcDbPolyline
 90
9
 70
1
 10
30.062974356536486
 20
173.05831670413374
 10
33.47077876454041
 20
177.94765992300788
 10
31.489089787175793
 20
179.9785355257104
 10
28.721196455814948
 20
178.56023853214788
 10
25.953303124454095
 20
179.9785355257104
 10
23.942293546331705
 20
177.9176115685912
 10
23.942293546331705
 20
175.1418789825332
 10
25.9753931587664
 20
173.05831670413374
 10
30.062974356536486
 20
173.05831670413374
  0
LWPOLYLINE
  5
3D
330
17
100
AcDbEntity
  8
GRY1
100
AcDbPolyline
 90
11
 70
1
 10
94.27131989171755
 20
104.27795784655703
 10
87.21789053535079
 20
105.72365772770387
 10
85.07707297983525
 20
107.91761156859125
 10
85.07707297983525
 20
110.85616469681892
 10
87.8650174995399
 20
113.71330755396181
 10
87.8650174995399
 20
116.5704504111047
 10
90.05597588931846
 20
118.8157896097184
 10
95.07459807964747
 20
113.67260241841936
 10
92.2866535599428
 20
110.81545956127647
 10
96.46857033949985
 20
106.52974527556225
 10
94.27131989171755
 20
104.27795784655703
  0
LWPOLYLINE
  5
3E
330
17
100
AcDbEntity
  8
GRY1
100
AcDbPolyline
 90
17
 70
1
 10
54.64940254392925
 20
63.67260241841943
 10
56.04337480378163
 20
62.244030989847985
 10
53.848660535858684
 20
59.994842690100135
 10
48.880776368822595
 20
60.72215552181137
 10
41.86770105779325
 20
69.34672802240105
 10
40.46546131093809
 20
82.28012509530302
 10
42.61877783168222
 20
84.4868881327051
 10
45.49100479669932
 20
84.4868881327051
 10
48.23680809374786
 20
81.67293246686114
 10
50.98261139079641
 20
84.4868881327051
 10
77.55236677330346
 20
84.4868881327051
 10
79.7011839404258
 20
82.28473612539045
 10
79.7011839404258
 20
77.91466648735667
 10
65.027020447746
 20
64.30850916188658
 10
60.76963336487174
 20
61.399803959193754
 10
56.60064165286194
 20
65.67227236997763
 10
54.64940254392925
 20
63.67260241841943
  0
LWPOLYLINE
  5
3F
330
17
100
AcDbEntity
  8
GRY1
100
AcDbPolyline
 90
5
 70
1
 10
53.812697133157286
 20
65.95864675257546
 10
55.763936242089976
 20
67.95831670413367
 10
53.812697133157286
 20
69.95798665569185
 10
51.861458024224596
 20
67.95831670413367
 10
53.812697133157286
 20
65.95864675257546
  0
LWPOLYLINE
  5
40
330
17
100
AcDbEntity
  8
GRY1
100
AcDbPolyline
 90
13
 70
1
 10
13.423254445925403
 20
105.71545956127659
 10
6.446872815532023
 20
99.99582811148223
 10
1.490786185092241
 20
100.72141374918874
 10
0.0
 20
102.24920207860455
 10
10.561559883731642
 20
111.62974527556224
 10
14.739332634635227
 20
111.62974527556224
 10
18.963390636848487
 20
115.9586467525755
 10
21.15434902662694
 20
113.71330755396181
 10
21.15434902662694
 20
109.42759326824758
 10
23.982012827177492
 20
106.52974527556225
 10
21.751335156553143
 20
104.24370094140623
 10
20.315221674044647
 20
105.71545956127659
 10
13.423254445925403
 20
105.71545956127659
  0
LWPOLYLINE
  5
41
330
17
100
AcDbEntity
  8
GRY1
100
AcDbPolyline
 90
10
 70
1
 10
1045.7398975733731
 20
193.5800367152911
 10
1042.0343914947925
 20
197.9406043076346
 10
1044.4623231803616
 20
203.65489002192038
 10
1042.0193399237519
 20
206.5297452755621
 10
1045.1910880765247
 20
210.26219690639425
 10
1053.2037220626398
 20
199.3824522108132
 10
1051.993525760216
 20
197.95831670413367
 10
1053.2074916030003
 20
196.52974527556233
 10
1050.0807745183147
 20
192.850285331152
 10
1045.7398975733731
 20
193.5800367152911
  0
LWPOLYLINE
  5
42
330
17
100
AcDbEntity
  8
GRY1
100
AcDbPolyline
 90
28
 70
1
 10
1023.889862144153
 20
150.72130550926798
 10
1019.6922013793323
 20
155.66103117873408
 10
1017.3105216318626
 20
152.85831670413376
 10
1011.1672034664372
 20
152.85831670413376
 10
1008.7882644152033
 20
154.25806134238073
 10
1006.384829046802
 20
151.4297452755622
 10
1003.8643934850348
 20
151.4297452755622
 10
999.5403138111308
 20
156.51823826218282
 10
1001.9896966589572
 20
160.84181751464132
 10
1001.9896966589572
 20
163.70935274296184
 10
1007.5062910133882
 20
170.20117384699086
 10
1011.1481885417419
 20
170.20117384699086
 10
1014.0981255397083
 20
173.67260241841942
 10
1012.8841596969238
 20
175.10117384699075
 10
1024.5018128123716
 20
188.7726024184193
 10
1025.7965755576613
 20
188.7726024184193
 10
1029.4384730860147
 20
185.91545956127663
 10
1031.8781117452766
 20
185.91545956127663
 10
1034.9731743033492
 20
182.2732500490536
 10
1033.746793631623
 20
175.0573452581825
 10
1032.5550207046233
 20
173.65489002192035
 10
1033.7689865474076
 20
170.79774716477746
 10
1031.3561064328794
 20
167.95831670413364
 10
1036.1969182329767
 20
162.26174338634712
 10
1034.9754266046718
 20
159.38688813270497
 10
1036.1997063116853
 20
156.50547096530377
 10
1029.438645541871
 20
149.99578322648378
 10
1023.889862144153
 20
150.72130550926798
  0
LWPOLYLINE
  5
43
330
17
100
AcDbEntity
  8
GRY1
100
AcDbPolyline
 90
71
 70
1
 10
619.5904561818375
 20
105.0644235224485
 10
619.5904561818375
 20
116.56649560010467
 10
620.804422024622
 20
117.99506702867602
 10
620.804422024622
 20
122.28078131439047
 10
623.9393366315833
 20
125.96988794381892
 10
625.1995544124669
 20
124.48688813270503
 10
627.5349822218377
 20
124.48688813270503
 10
632.4370975310749
 20
130.25560222953314
 10
633.6510633738594
 20
128.82703080096158
 10
636.019072930446
 20
131.61365846040573
 10
639.7508536522731
 20
133.07748748782666
 10
642.8719851707965
 20
129.40460052920423
 10
641.658019328012
 20
126.54745767206133
 10
644.57675595892
 20
123.11274508667603
 10
651.84661783853
 20
131.66777736587898
 10
659.1304128952371
 20
125.95349165159342
 10
662.7263214717052
 20
130.1850870318344
 10
666.3641682831525
 20
131.61206952540905
 10
672.9780907233076
 20
140.81032055336905
 10
668.1261726760046
 20
146.5199634871841
 10
671.2421831656911
 20
151.65356837105693
 10
674.985824157515
 20
150.18508703183443
 10
679.8183738136283
 20
144.49823644463723
 10
685.7992149704306
 20
145.90586398971462
 10
699.1528392410602
 20
160.19157827542884
 10
705.2201354772087
 20
161.6195535521894
 10
712.5125912167531
 20
170.20117384699086
 10
719.8154011981554
 20
170.20117384699086
 10
722.2923255180598
 20
171.65857206588652
 10
725.3970599995356
 20
168.0049808220312
 10
727.8249916851047
 20
158.00498082203117
 10
730.2925774223216
 20
155.10117384699075
 10
726.650679893968
 20
150.8154595612765
 10
727.8646457367525
 20
149.38688813270517
 10
725.4367140511835
 20
146.52974527556228
 10
729.0886884736602
 20
142.23217269653722
 10
724.6867068856382
 20
138.5320538063235
 10
719.7963862734603
 20
144.28688813270506
 10
718.674924306874
 20
144.28688813270506
 10
715.7249873089075
 20
140.8154595612765
 10
720.5808506800455
 20
135.10117384699095
 10
717.4147065259904
 20
131.37531689301986
 10
711.2986253739688
 20
138.5726024184195
 10
707.7492317218132
 20
138.5726024184195
 10
706.4890139409297
 20
137.08960260730564
 10
705.2750480981454
 20
138.5181740358772
 10
696.3015338243555
 20
127.95831670413361
 10
698.6982359628304
 20
125.13792417153313
 10
698.6982359628304
 20
122.20728066530562
 10
695.6095732939682
 20
118.57260241841949
 10
691.9592417512991
 20
118.57260241841949
 10
687.0553384590854
 20
114.24448879806526
 10
682.1957639081427
 20
119.96314175667399
 10
678.5538663797892
 20
117.1059988995311
 10
673.711936185748
 20
122.80388832159139
 10
670.8082511258808
 20
119.38688813270515
 10
672.0222169686654
 20
117.9583167041336
 10
668.870005991707
 20
114.24885604238821
 10
665.1796303218503
 20
117.14403098984793
 10
659.0980941342348
 20
117.14403098984793
 10
656.716414386765
 20
119.9467454644485
 10
650.6928371109415
 20
112.85831670413371
 10
643.3900271295391
 20
112.85831670413371
 10
641.0001252933608
 20
111.45212166967377
 10
632.483349469174
 20
101.42974527556225
 10
629.9629139074068
 20
101.42974527556225
 10
628.7489480646223
 20
102.8583167041337
 10
626.4135202552515
 20
102.8583167041337
 10
625.1899108883255
 20
101.41839696362997
 10
622.06347524647
 20
102.15422271322072
 10
619.5904561818375
 20
105.0644235224485
  0
LWPOLYLINE
  5
44
330
17
100
AcDbEntity
  8
GRY1
100
AcDbPolyline
 90
37
 70
1
 10
633.5928551160073
 20
230.01524381188432
 10
631.1865232743326
 20
232.84696839220143
 10
625.11669406041
 20
231.4183969636301
 10
622.7253707887987
 20
234.23245975016283
 10
621.5114049460142
 20
232.80388832159127
 10
618.3764903390529
 20
236.49299495101994
 10
618.3764903390529
 20
239.3501378081626
 10
617.1312949491745
 20
240.81545956127658
 10
622.6718112569747
 20
247.3354315554659
 10
629.9556063136818
 20
248.76400298403723
 10
631.2231316882903
 20
250.25560222953303
 10
632.4370975310749
 20
248.8270308009617
 10
636.0650618823314
 20
253.09634879445042
 10
643.377308724015
 20
247.3597420748137
 10
653.0455950288512
 20
251.6262864118406
 10
661.519708332077
 20
253.05088240726192
 10
663.9862762663751
 20
255.9534916515933
 10
667.6281737947285
 20
253.09634879445042
 10
673.6550684493574
 20
260.1886813817198
 10
678.5109318204953
 20
261.61725281029135
 10
680.949479304356
 20
264.48688813270513
 10
684.6838807089077
 20
264.48688813270513
 10
687.7725433777699
 20
260.8522098858188
 10
687.7725433777699
 20
257.91714793625056
 10
679.2930834937614
 20
249.36417903306318
 10
680.5049262971161
 20
246.5120328790631
 10
676.1764762852749
 20
241.4183969636301
 10
670.1066470713523
 20
242.84696839220143
 10
665.2141752862566
 20
237.0896026073055
 10
660.3639159138362
 20
242.79729364473002
 10
652.5949939437528
 20
232.24846691173974
 10
653.8127293268976
 20
230.81545956127658
 10
650.6928371109415
 20
227.14403098984803
 10
648.1724015491743
 20
227.14403098984803
 10
645.7767886246075
 20
229.96314175667388
 10
642.1680974068203
 20
227.1320499271363
 10
633.5928551160073
 20
230.01524381188432
  0
LWPOLYLINE
  5
45
330
17
100
AcDbEntity
  8
GRY1
100
AcDbPolyline
 90
18
 70
1
 10
658.4061336038478
 20
93.67260241841934
 10
660.8340652894169
 20
96.52974527556223
 10
659.6200994466324
 20
97.95831670413368
 10
663.9862762663751
 20
103.09634879445062
 10
667.6281737947285
 20
100.23920593730773
 10
671.2840045001791
 20
104.54131651524744
 10
676.139867871317
 20
98.82703080096178
 10
679.7355134615715
 20
103.05831670413367
 10
684.6838807089077
 20
103.05831670413367
 10
687.8037729248638
 20
99.38688813270514
 10
683.4699148661232
 20
94.28688813270514
 10
678.5332545924798
 20
94.28688813270514
 10
674.9398352056295
 20
97.10599889953097
 10
670.0839718344915
 20
91.39171318524531
 10
666.4420743061379
 20
94.2488560423882
 10
664.0551220644087
 20
91.43993699893494
 10
660.928686422553
 20
90.7041112493443
 10
658.4061336038478
 20
93.67260241841934
  0
LWPOLYLINE
  5
46
330
17
100
AcDbEntity
  8
GRY1
100
AcDbPolyline
 90
35
 70
1
 10
3373.5421815420113
 20
260.8561261795541
 10
3375.710309230017
 20
263.08100801009095
 10
3381.278830175389
 20
260.22386515294806
 10
3383.2474639361712
 20
262.24403098984794
 10
3379.9067676055543
 20
265.6721752861677
 10
3378.507839587833
 20
264.23662813362904
 10
3371.506373468557
 20
272.85831670413364
 10
3367.3354153347736
 20
272.85831670413364
 10
3360.9733801546868
 20
279.38688813270505
 10
3363.1811371029326
 20
281.6524365815196
 10
3365.9653975756178
 20
280.22386515294806
 10
3374.9136094557894
 20
289.40631051265655
 10
3373.5214792194456
 20
292.26345336979944
 10
3375.7303768965253
 20
294.530172407814
 10
3381.314641630042
 20
288.79973078703694
 10
3384.7055117108403
 20
290.8875096408967
 10
3386.815154005742
 20
294.4956187918049
 10
3406.4193065241293
 20
291.6217156552399
 10
3408.5587672896827
 20
287.9626081445228
 10
3404.394321888499
 20
279.4156955631173
 10
3416.1505545920018
 20
270.190306332811
 10
3420.339797516572
 20
268.75733869009275
 10
3425.27103686744
 20
262.25121005133303
 10
3423.1201744838036
 20
258.5726024184194
 10
3417.5252168991356
 20
258.5726024184194
 10
3413.35773061411
 20
255.7215512354536
 10
3406.4074282949405
 20
254.2951037589325
 10
3404.978046781011
 20
252.82830594216256
 10
3396.5992210308495
 20
258.5604090453437
 10
3385.493865365012
 20
254.28688813270517
 10
3382.6488479345435
 20
254.28688813270517
 10
3381.298897841897
 20
255.67217528616771
 10
3375.7303768965253
 20
249.9578895718819
 10
3373.5421815420113
 20
252.20336437157022
 10
3373.5421815420113
 20
260.8561261795541
  0
LWPOLYLINE
  5
47
330
17
100
AcDbEntity
  8
GRY1
100
AcDbPolyline
 90
81
 70
1
 10
3293.5344899527763
 20
70.01966847933683
 10
3288.622237125102
 20
75.06050722871294
 10
3288.622237125102
 20
86.57041189384019
 10
3290.8104324796163
 20
88.81588669352836
 10
3292.2025627159587
 20
87.38731526495691
 10
3294.151128810233
 20
89.38688813270512
 10
3292.2025627159587
 20
91.38646100045334
 10
3290.8104324796163
 20
89.95788957188189
 10
3288.622237125102
 20
92.20336437157006
 10
3288.622237125102
 20
120.85612617955421
 10
3292.155820375744
 20
124.48220651353736
 10
3304.7691287152156
 20
125.92037112096422
 10
3306.1660452230826
 20
124.48688813270503
 10
3308.942151821303
 20
124.48688813270503
 10
3314.5106727666744
 20
120.2011738469908
 10
3324.2637382955386
 20
120.2011738469908
 10
3325.613688388186
 20
118.81588669352827
 10
3327.56225448246
 20
120.81545956127648
 10
3326.1701242461168
 20
122.24403098984804
 10
3328.3499538381593
 20
124.48092104011144
 10
3338.0948654925587
 20
125.909492468683
 10
3339.4928106079174
 20
127.34403098984792
 10
3342.361431367995
 20
127.34403098984792
 10
3346.475603517449
 20
123.12216393208297
 10
3350.6044781907926
 20
130.1837546708744
 10
3354.8759009711907
 20
131.64483266107197
 10
3356.2405535877265
 20
130.24445812209962
 10
3358.9826339167166
 20
133.05831670413372
 10
3371.5961663311937
 20
133.05831670413372
 10
3376.5471443372626
 20
127.97773908408504
 10
3375.148984032149
 20
125.10822039638647
 10
3380.7302345001517
 20
116.51719771818291
 10
3377.164687276565
 20
112.85831670413371
 10
3370.119675807459
 20
112.85831670413371
 10
3367.3415992114346
 20
115.70911381194449
 10
3357.685319665951
 20
114.29353555385435
 10
3350.094030513426
 20
105.08716831106557
 10
3351.488800083093
 20
102.22460860989658
 10
3348.7234665480814
 20
99.38688813270514
 10
3355.6964193742538
 20
92.23140733055357
 10
3350.681335196633
 20
88.5554345654258
 10
3347.8636148818036
 20
90.0011738469908
 10
3329.765921809347
 20
90.0011738469908
 10
3327.025886291037
 20
91.40705396960492
 10
3324.2215581518426
 20
88.52931814331055
 10
3321.9857461805045
 20
90.82365599944553
 10
3328.9463973622187
 20
96.5379417137312
 10
3327.6018837427
 20
97.91765008585574
 10
3327.6018837427
 20
102.28469760812598
 10
3330.3465149551453
 20
105.1011738469908
 10
3324.2014904853345
 20
111.40705396960493
 10
3321.461454967024
 20
110.00117384699082
 10
3311.734566168454
 20
110.00117384699082
 10
3310.342435932111
 20
108.57260241841938
 10
3306.1660452230826
 20
108.57260241841938
 10
3301.3595820994233
 20
103.64032258447186
 10
3302.735984129264
 20
96.57816502648353
 10
3304.7739149867402
 20
94.48688813270512
 10
3308.865945408376
 20
94.48688813270512
 10
3310.311192710608
 20
95.96996704966931
 10
3314.5001853410745
 20
90.23843894005623
 10
3318.6851774826805
 20
93.10146618957582
 10
3320.865992922044
 20
89.37163001676818
 10
3317.295848545481
 20
85.70803151205386
 10
3308.9241210592945
 20
87.13984327582148
 10
3303.3195369401924
 20
84.26419682674779
 10
3300.5131639903198
 20
87.14403098984802
 10
3297.813263805026
 20
87.14403098984802
 10
3295.7828883068155
 20
85.06050722871295
 10
3295.7828883068155
 20
82.28469760812595
 10
3297.813263805026
 20
80.20117384699077
 10
3301.9896545140546
 20
80.20117384699077
 10
3304.7739149867402
 20
77.344030989848
 10
3307.485062403403
 20
77.344030989848
 10
3311.6614531124314
 20
80.20117384699077
 10
3314.5188266411396
 20
80.20117384699077
 10
3316.675107568061
 20
77.98844888508971
 10
3315.2634016356265
 20
72.1938106882547
 10
3308.9441218191064
 20
65.70911381194445
 10
3299.1323100424997
 20
67.14749257449104
 10
3293.5344899527763
 20
70.01966847933683
  0
LWPOLYLINE
  5
48
330
17
100
AcDbEntity
  8
GRY1
100
AcDbPolyline
 90
34
 70
1
 10
3333.966469806242
 20
228.52931814331058
 10
3332.6165197135956
 20
227.14403098984803
 10
3328.355768717175
 20
227.14403098984803
 10
3327.0058186245283
 20
228.52931814331058
 10
3325.655868531882
 20
227.14403098984803
 10
3322.805270627633
 20
227.14403098984803
 10
3320.0451674428145
 20
228.56020759703787
 10
3314.5008037853104
 20
225.71545956127648
 10
3311.6502058810615
 20
225.71545956127648
 10
3309.516290105855
 20
227.90523392854146
 10
3308.0982955215864
 20
232.27057237764416
 10
3310.856691646346
 20
235.1011738469908
 10
3308.081441288645
 20
237.94907073525917
 10
3312.272163207085
 20
243.68296491793683
 10
3310.8963209065864
 20
246.50667917886082
 10
3310.8963209065864
 20
252.28469760812567
 10
3314.443189031528
 20
255.92441056882785
 10
3321.428714860575
 20
254.49073398420907
 10
3332.57233064567
 20
258.7789780110534
 10
3336.723252659121
 20
257.35911837535764
 10
3339.5075131318063
 20
260.21626123250053
 10
3343.6943606882037
 20
258.78411294667967
 10
3348.4319063831435
 20
262.25665464914226
 10
3345.659947554916
 20
265.10117384699083
 10
3347.893981668786
 20
267.39368730745093
 10
3355.6377869508296
 20
258.0023554992792
 10
3357.0457486109626
 20
250.77826917573788
 10
3347.3367744489674
 20
242.23845050084813
 10
3355.6841177297956
 20
233.67260241841925
 10
3353.4837707348483
 20
231.41465789005244
 10
3349.3135493269533
 20
232.8411190545352
 10
3342.3743553024306
 20
224.29611308142472
 10
3338.8054681675267
 20
223.5636514108681
 10
3333.966469806242
 20
228.52931814331058
  0
LWPOLYLINE
  5
49
330
17
100
AcDbEntity
  8
GRY1
100
AcDbPolyline
 90
9
 70
1
 10
3288.622237125102
 20
42.277645712337275
 10
3293.5787933210554
 20
48.81717663379603
 10
3309.7506136414686
 20
35.1081453940153
 10
3307.5581754594255
 20
32.85831670413364
 10
3299.1210337539765
 20
32.85831670413364
 10
3296.3789534249872
 20
35.672175286167615
 10
3293.6179136259993
 20
32.838860940273776
 10
3288.622237125102
 20
35.035909298022474
 10
3288.622237125102
 20
42.277645712337275
  0
LWPOLYLINE
  5
4A
330
17
100
AcDbEntity
  8
GRY1
100
AcDbPolyline
 90
54
 70
1
 10
3909.371822511605
 20
324.29419146431513
 10
3908.500818616777
 20
325.7154595612766
 10
3899.7366360731594
 20
325.7154595612766
 10
3897.5025681260886
 20
330.8191029845287
 10
3902.349213055505
 20
340.1655765435858
 10
3904.189245751862
 20
341.66682113286305
 10
3906.8014137469163
 20
338.8252027372596
 10
3910.3194536011997
 20
343.1306465806445
 10
3912.084199362721
 20
340.25100750555646
 10
3913.8351586377303
 20
341.679578934128
 10
3917.367617035084
 20
335.9154595612766
 10
3918.1310946293283
 20
335.9154595612766
 10
3920.2640664923656
 20
339.39595474465636
 10
3918.5131072173567
 20
343.6816690303706
 10
3921.142453324917
 20
347.97212715660675
 10
3920.2669736874122
 20
350.82927001374964
 10
3922.5528191506996
 20
354.55921800921584
 10
3926.1005064471615
 20
350.2174910642497
 10
3930.3777855018398
 20
351.61338844159064
 10
3931.2632891918975
 20
353.0583167041337
 10
3934.856827283923
 20
353.0583167041337
 10
3936.5554891602965
 20
351.6724136405811
 10
3940.958738014804
 20
357.4204449934231
 10
3942.700525501088
 20
354.5782682814198
 10
3947.077923688611
 20
361.7211254242769
 10
3948.009404347746
 20
360.2011738469908
 10
3951.411415459142
 20
360.2011738469908
 10
3954.0378543716556
 20
363.0583167041337
 10
3956.664293284169
 20
363.0583167041337
 10
3959.290732196684
 20
365.91545956127635
 10
3961.9171711091976
 20
365.91545956127635
 10
3967.2299933973986
 20
371.6949552044762
 10
3968.1148961630174
 20
370.2510075055565
 10
3969.8403942637315
 20
371.6588056890533
 10
3971.5658923644464
 20
370.2510075055565
 10
3973.3423128137506
 20
373.1496968528485
 10
3978.2684583506425
 20
365.1114165028366
 10
3973.87013661099
 20
353.6282175764209
 10
3969.896395285362
 20
347.1440309898479
 10
3968.145436010353
 20
347.1440309898479
 10
3960.2761433253645
 20
334.3032449666765
 10
3955.811822495222
 20
332.84630618416065
 10
3954.0817607886484
 20
334.2578277192139
 10
3952.305340339344
 20
332.808483045568
 10
3951.3993208545044
 20
334.28688813270503
 10
3949.7603636227554
 20
334.28688813270503
 10
3948.884883985251
 20
332.8583167041337
 10
3946.146443029477
 20
332.8583167041337
 10
3945.270963391972
 20
334.28688813270503
 10
3941.769044841953
 20
334.28688813270503
 10
3940.018085566944
 20
337.1440309898479
 10
3937.483266196437
 20
337.1440309898479
 10
3919.967618250265
 20
322.85337639499187
 10
3909.371822511605
 20
324.29419146431513
  0
LWPOLYLINE
  5
4B
330
17
100
AcDbEntity
  8
GRY1
100
AcDbPolyline
 90
19
 70
1
 10
4459.184853137765
 20
270.7214799925699
 10
4449.134660023199
 20
277.17335750260344
 10
4447.090747110084
 20
280.81813980409476
 10
4449.783655356632
 20
285.14002545207063
 10
4451.121157082582
 20
290.8642254463176
 10
4457.177375318844
 20
297.34403098984785
 10
4459.847745680853
 20
297.34403098984785
 10
4465.188486404873
 20
303.05831670413363
 10
4466.594562463361
 20
303.05831670413363
 10
4472.70434931862
 20
299.4265828774716
 10
4471.364086660724
 20
296.5585748032511
 10
4476.716652776173
 20
292.26337115049984
 10
4472.669736767194
 20
286.4900810066755
 10
4471.336200313673
 20
279.3560440822078
 10
4468.653747182427
 20
273.61590263022606
 10
4465.231900486995
 20
269.9547232735424
 10
4463.89671530599
 20
271.383294702114
 10
4462.595945248846
 20
269.99154547869966
 10
4459.184853137765
 20
270.7214799925699
  0
LWPOLYLINE
  5
4C
330
17
100
AcDbEntity
  8
GRY1
100
AcDbPolyline
 90
18
 70
1
 10
4400.429961713582
 20
252.14621732386712
 10
4397.713749842383
 20
255.05240796195005
 10
4396.378564661377
 20
260.7666936762356
 10
4392.32743107743
 20
265.10117384699083
 10
4393.680280692393
 20
266.54864520495994
 10
4392.3396369717975
 20
269.4174687095696
 10
4397.127874065239
 20
273.07685340564626
 10
4399.787239799779
 20
271.6541691366279
 10
4402.434782897639
 20
274.4868881327052
 10
4409.197536966908
 20
274.4868881327052
 10
4411.845080064767
 20
271.6541691366279
 10
4414.5154504267775
 20
273.08274056519923
 10
4416.634518425106
 20
270.8154595612766
 10
4413.964148063095
 20
267.9583167041337
 10
4416.597641380313
 20
265.1406301660919
 10
4416.597641380313
 20
253.6331460993182
 10
4414.53618860396
 20
251.42751007253895
 10
4400.429961713582
 20
252.14621732386712
  0
LWPOLYLINE
  5
4D
330
17
100
AcDbEntity
  8
GRY1
100
AcDbPolyline
 90
13
 70
1
 10
5359.820848046107
 20
285.0820990613943
 10
5357.119493430784
 20
287.93227693212356
 10
5358.4734713917815
 20
292.217991217838
 10
5355.7408353756
 20
295.10117384699083
 10
5359.263558926519
 20
298.81797157972056
 10
5361.432304516443
 20
296.5297452755622
 10
5360.0783265554455
 20
295.10117384699083
 10
5361.991928243968
 20
293.08214785348355
 10
5364.712053081425
 20
294.51713894524323
 10
5368.184589661322
 20
289.38775474560765
 10
5362.001151022727
 20
279.96405884849287
 10
5358.458302749852
 20
282.2068775490274
 10
5359.820848046107
 20
285.0820990613943
  0
LWPOLYLINE
  5
4E
330
17
100
AcDbEntity
  8
GRY1
100
AcDbPolyline
 90
32
 70
1
 10
5305.661729606222
 20
292.26310577544456
 10
5308.3516067407
 20
295.10117384699083
 10
5305.087190716462
 20
298.54543335307835
 10
5295.629873850371
 20
292.843524689431
 10
5287.47469794206
 20
297.1457554617134
 10
5267.147236847772
 20
298.5755783476196
 10
5265.79607942656
 20
300.00117384699075
 10
5263.078061918067
 20
300.00117384699075
 10
5259.618327295558
 20
305.11164790516784
 10
5263.117982502859
 20
308.80410641115486
 10
5267.17991638585
 20
305.946963554012
 10
5268.504035348556
 20
307.34403098984785
 10
5273.926385398958
 20
307.34403098984785
 10
5280.700494273086
 20
313.0618779092975
 10
5295.6063799619815
 20
311.6321431824336
 10
5298.354964077103
 20
313.08214785348355
 10
5301.052172472882
 20
310.2363446261727
 10
5306.423638554313
 20
314.4868881327052
 10
5310.563352521781
 20
314.4868881327052
 10
5313.262402410177
 20
311.6391419611111
 10
5320.032292215163
 20
313.06771338968264
 10
5323.520921608523
 20
309.3868881327051
 10
5321.405187307965
 20
307.1545936203184
 10
5316.002412909281
 20
305.7294874953833
 10
5314.028863309596
 20
302.2590265620031
 10
5320.775187038102
 20
295.141033799891
 10
5320.775187038102
 20
293.6327424655192
 10
5318.687220287764
 20
291.4297452755623
 10
5315.979264365769
 20
291.4297452755623
 10
5313.2664242626415
 20
288.5674491575685
 10
5307.068757976768
 20
289.29401678396374
 10
5305.661729606222
 20
292.26310577544456
  0
LWPOLYLINE
  5
4F
330
17
100
AcDbEntity
  8
GRY1
100
AcDbPolyline
 90
10
 70
1
 10
5158.097831718446
 20
229.42674808560514
 10
5162.871048617615
 20
234.4629314511777
 10
5167.011829657793
 20
237.37553498258325
 10
5169.129655406424
 20
235.14103379989092
 10
5169.129655406424
 20
229.4093836817157
 10
5171.8376113284185
 20
223.69509796743014
 10
5171.8376113284185
 20
219.34702817980488
 10
5169.711046166281
 20
217.10330611110473
 10
5158.097831718446
 20
227.9147860821189
 10
5158.097831718446
 20
229.42674808560514
  0
LWPOLYLINE
  5
50
330
17
100
AcDbEntity
  8
GRY1
100
AcDbPolyline
 90
18
 70
1
 10
5098.503101573662
 20
203.65352763282286
 10
5097.168823473577
 20
205.06131389409066
 10
5097.168823473577
 20
217.9981766570338
 10
5099.256790223914
 20
220.20117384699088
 10
5106.112680411215
 20
220.20117384699088
 10
5108.787302011291
 20
217.37920176902992
 10
5114.2032138552795
 20
221.66491605474414
 10
5119.032470849531
 20
216.56960522846248
 10
5119.032470849531
 20
212.20417103694777
 10
5115.008315614967
 20
207.95831670413367
 10
5117.71627153696
 20
205.10117384699078
 10
5115.590526138195
 20
202.85831670413356
 10
5112.796569833886
 20
202.85831670413356
 10
5110.131614103049
 20
205.6700903999753
 10
5104.776942445423
 20
200.02041872154373
 10
5102.011128751303
 20
198.56132465428811
 10
5097.134860489204
 20
200.76628695836573
 10
5098.503101573662
 20
203.65352763282286
  0
LWPOLYLINE
  5
51
330
17
100
AcDbEntity
  8
GRY1
100
AcDbPolyline
 90
15
 70
1
 10
6073.496561677934
 20
192.14625077985926
 10
6064.590903173961
 20
195.7307570060789
 10
6058.361719028015
 20
202.2495594391811
 10
6067.961035921374
 20
210.8600954746862
 10
6067.961035921374
 20
212.28412791527052
 10
6072.838895206014
 20
217.38877729278738
 10
6075.5894122213385
 20
214.51037835775867
 10
6078.319617526848
 20
215.93894978633
 10
6080.430299836645
 20
213.73013388777196
 10
6085.890710447662
 20
202.3015624592004
 10
6092.771199164435
 20
195.10117384699078
 10
6090.627987999611
 20
192.85831670413378
 10
6081.07226943033
 20
192.85831670413378
 10
6079.702311513328
 20
191.4246642717501
 10
6073.496561677934
 20
192.14625077985926
  0
LWPOLYLINE
  5
52
330
17
100
AcDbEntity
  8
GRY1
100
AcDbPolyline
 90
27
 70
1
 10
6269.667014246613
 20
315.0070734845269
 10
6268.212956508863
 20
316.4888764200151
 10
6268.212956508863
 20
319.4277569882522
 10
6269.614779443543
 20
320.85632841682354
 10
6269.614779443543
 20
325.13097760766476
 10
6272.418425312902
 20
329.416691893379
 10
6272.418425312902
 20
332.2848998453951
 10
6274.585335817224
 20
334.4931576489765
 10
6284.4816854546125
 20
333.0524170665972
 10
6285.87771921625
 20
331.62974527556213
 10
6291.485010954969
 20
331.62974527556213
 10
6292.886833889649
 20
330.20117384699074
 10
6304.091982949888
 20
330.20117384699074
 10
6309.135741868867
 20
326.5297452755622
 10
6304.091982949888
 20
322.8583167041337
 10
6301.29777149773
 20
322.8583167041337
 10
6297.891341766457
 20
319.3868881327051
 10
6299.293164701136
 20
317.9583167041338
 10
6297.092302693689
 20
315.71545956127653
 10
6289.9992359725165
 20
315.71545956127653
 10
6288.597413037836
 20
317.1440309898479
 10
6285.87771921625
 20
317.1440309898479
 10
6283.074073346889
 20
314.2868881327052
 10
6280.186475429757
 20
314.2868881327052
 10
6277.424805584283
 20
317.1012540121527
 10
6274.65698361262
 20
314.28061861643374
 10
6269.667014246613
 20
315.0070734845269
  0
ENDSEC
  0
SECTION
  2
OBJECTS
  0
DICTIONARY
  5
A
330
0
100
AcDbDictionary
281
1
  3
ACAD_COLOR
350
B
  3
ACAD_GROUP
350
C
  3
ACAD_LAYOUT
350
D
  3
ACAD_MATERIAL
350
E
  3
ACAD_MLEADERSTYLE
350
F
  3
ACAD_MLINESTYLE
350
10
  3
ACAD_PLOTSETTINGS
350
11
  3
ACAD_PLOTSTYLENAME
350
12
  3
ACAD_SCALELIST
350
14
  3
ACAD_TABLESTYLE
350
15
  3
ACAD_VISUALSTYLE
350
16
  3
EZDXF_META
350
2D
  0
DICTIONARY
  5
B
330
A
100
AcDbDictionary
281
1
  0
DICTIONARY
  5
C
330
A
100
AcDbDictionary
281
1
  0
DICTIONARY
  5
D
330
A
100
AcDbDictionary
281
1
  3
Model
350
1A
  3
Layout1
350
1E
  0
DICTIONARY
  5
E
330
A
100
AcDbDictionary
281
1
  3
ByBlock
350
1F
  3
ByLayer
350
20
  3
Global
350
21
  0
DICTIONARY
  5
F
330
A
100
AcDbDictionary
281
1
  3
Standard
350
2C
  0
DICTIONARY
  5
10
330
A
100
AcDbDictionary
281
1
  3
Standard
350
22
  0
DICTIONARY
  5
11
330
A
100
AcDbDictionary
281
1
  0
ACDBDICTIONARYWDFLT
  5
12
330
A
100
AcDbDictionary
281
1
  3
Normal
350
13
100
AcDbDictionaryWithDefault
340
13
  0
ACDBPLACEHOLDER
  5
13
330
12
  0
DICTIONARY
  5
14
330
A
100
AcDbDictionary
281
1
  0
DICTIONARY
  5
15
330
A
100
AcDbDictionary
281
1
  0
DICTIONARY
  5
16
330
A
100
AcDbDictionary
281
1
  0
LAYOUT
  5
1A
330
D
100
AcDbPlotSettings
  1

  4
A3
  6

 40
7.5
 41
20.0
 42
7.5
 43
20.0
 44
420.0
 45
297.0
 46
0.0
 47
0.0
 48
0.0
 49
0.0
140
0.0
141
0.0
142
1.0
143
1.0
 70
1024
 72
1
 73
0
 74
5
  7

 75
16
 76
0
 77
2
 78
300
147
1.0
148
0.0
149
0.0
100
AcDbLayout
  1
Model
 70
1
 71
0
 10
0.0
 20
0.0
 11
420.0
 21
297.0
 12
0.0
 22
0.0
 32
0.0
 14
1e+20
 24
1e+20
 34
1e+20
 15
-1e+20
 25
-1e+20
 35
-1e+20
146
0.0
 13
0.0
 23
0.0
 33
0.0
 16
1.0
 26
0.0
 36
0.0
 17
0.0
 27
1.0
 37
0.0
 76
1
330
17
  0
LAYOUT
  5
1E
330
D
100
AcDbPlotSettings
  1

  4
A3
  6

 40
7.5
 41
20.0
 42
7.5
 43
20.0
 44
420.0
 45
297.0
 46
0.0
 47
0.0
 48
0.0
 49
0.0
140
0.0
141
0.0
142
1.0
143
1.0
 70
0
 72
1
 73
0
 74
5
  7

 75
16
 76
0
 77
2
 78
300
147
1.0
148
0.0
149
0.0
100
AcDbLayout
  1
Layout1
 70
1
 71
1
 10
0.0
 20
0.0
 11
420.0
 21
297.0
 12
0.0
 22
0.0
 32
0.0
 14
1e+20
 24
1e+20
 34
1e+20
 15
-1e+20
 25
-1e+20
 35
-1e+20
146
0.0
 13
0.0
 23
0.0
 33
0.0
 16
1.0
 26
0.0
 36
0.0
 17
0.0
 27
1.0
 37
0.0
 76
1
330
1B
  0
MATERIAL
  5
1F
102
{ACAD_REACTORS
330
E
102
}
330
E
100
AcDbMaterial
  1
ByBlock
  2

 70
0
 40
1.0
 71
1
 41
1.0
 91
-1023410177
 42
1.0
 72
1
  3

 73
1
 74
1
 75
1
 44
0.5
 73
0
 45
1.0
 46
1.0
 77
1
  4

 78
1
 79
1
170
1
 48
1.0
171
1
  6

172
1
173
1
174
1
140
1.0
141
1.0
175
1
  7

176
1
177
1
178
1
143
1.0
179
1
  8

270
1
271
1
272
1
145
1.0
146
1.0
273
1
  9

274
1
275
1
276
1
 42
1.0
 72
1
  3

 73
1
 74
1
 75
1
 94
63
  0
MATERIAL
  5
20
102
{ACAD_REACTORS
330
E
102
}
330
E
100
AcDbMaterial
  1
ByLayer
  2

 70
0
 40
1.0
 71
1
 41
1.0
 91
-1023410177
 42
1.0
 72
1
  3

 73
1
 74
1
 75
1
 44
0.5
 73
0
 45
1.0
 46
1.0
 77
1
  4

 78
1
 79
1
170
1
 48
1.0
171
1
  6

172
1
173
1
174
1
140
1.0
141
1.0
175
1
  7

176
1
177
1
178
1
143
1.0
179
1
  8

270
1
271
1
272
1
145
1.0
146
1.0
273
1
  9

274
1
275
1
276
1
 42
1.0
 72
1
  3

 73
1
 74
1
 75
1
 94
63
  0
MATERIAL
  5
21
102
{ACAD_REACTORS
330
E
102
}
330
E
100
AcDbMaterial
  1
Global
  2

 70
0
 40
1.0
 71
1
 41
1.0
 91
-1023410177
 42
1.0
 72
1
  3

 73
1
 74
1
 75
1
 44
0.5
 73
0
 45
1.0
 46
1.0
 77
1
  4

 78
1
 79
1
170
1
 48
1.0
171
1
  6

172
1
173
1
174
1
140
1.0
141
1.0
175
1
  7

176
1
177
1
178
1
143
1.0
179
1
  8

270
1
271
1
272
1
145
1.0
146
1.0
273
1
  9

274
1
275
1
276
1
 42
1.0
 72
1
  3

 73
1
 74
1
 75
1
 94
63
  0
MLINESTYLE
  5
22
102
{ACAD_REACTORS
330
10
102
}
330
10
100
AcDbMlineStyle
  2
Standard
 70
0
  3

 62
256
 51
90.0
 52
90.0
 71
2
 49
0.5
 62
256
  6
BYLAYER
 49
-0.5
 62
256
  6
BYLAYER
  0
MLEADERSTYLE
  5
2C
102
{ACAD_REACTORS
330
F
102
}
330
F
100
AcDbMLeaderStyle
179
2
170
2
171
1
172
0
 90
2
 40
0.0
 41
0.0
173
1
 91
-1056964608
 92
-2
290
1
 42
2.0
291
1
 43
8.0
  3
Standard
 44
4.0
300

342
29
174
1
175
1
176
0
178
1
 93
-1056964608
 45
4.0
292
0
297
0
 46
4.0
 94
-1056964608
 47
1.0
 49
1.0
140
1.0
294
1
141
0.0
177
0
142
1.0
295
0
296
0
143
3.75
271
0
272
9
273
9
  0
DICTIONARY
  5
2D
330
A
100
AcDbDictionary
280
1
281
1
  3
CREATED_BY_EZDXF
350
2E
  3
WRITTEN_BY_EZDXF
350
55
  0
DICTIONARYVAR
  5
2E
330
2D
100
DictionaryVariables
280
0
  1
1.4.4 @ 2026-07-22T15:29:39.384247+00:00
  0
DICTIONARYVAR
  5
55
330
2D
100
DictionaryVariables
280
0
  1
1.4.4 @ 2026-07-22T15:29:39.388996+00:00
  0
ENDSEC
  0
EOF
