  0
SECTION
  2
HEADER
  9
$ACADVER
  1
AC1027
  9
$ACADMAINTVER
 70
105
  9
$DWGCODEPAGE
  3
ANSI_1252
  9
$LASTSAVEDBY
  1
ezdxf
  9
$REQUIREDVERSIONS
160
0
  9
$INSBASE
 10
0.0
 20
0.0
 30
0.0
  9
$EXTMIN
 10
1e+20
 20
1e+20
 30
1e+20
  9
$EXTMAX
 10
-1e+20
 20
-1e+20
 30
-1e+20
  9
$LIMMIN
 10
0.0
 20
0.0
  9
$LIMMAX
 10
420.0
 20
297.0
  9
$ORTHOMODE
 70
0
  9
$REGENMODE
 70
1
  9
$FILLMODE
 70
1
  9
$QTEXTMODE
 70
0
  9
$MIRRTEXT
 70
1
  9
$LTSCALE
 40
1.0
  9
$ATTMODE
 70
1
  9
$TEXTSIZE
 40
2.5
  9
$TRACEWID
 40
1.0
  9
$TEXTSTYLE
  7
Standard
  9
$CLAYER
  8
0
  9
$CELTYPE
  6
ByLayer
  9
$CECOLOR
 62
256
  9
$CELTSCALE
 40
1.0
  9
$DISPSILH
 70
0
  9
$DIMSCALE
 40
1.0
  9
$DIMASZ
 40
2.5
  9
$DIMEXO
 40
0.625
  9
$DIMDLI
 40
3.75
  9
$DIMRND
 40
0.0
  9
$DIMDLE
 40
0.0
  9
$DIMEXE
 40
1.25
  9
$DIMTP
 40
0.0
  9
$DIMTM
 40
0.0
  9
$DIMTXT
 40
2.5
  9
$DIMCEN
 40
2.5
  9
$DIMTSZ
 40
0.0
  9
$DIMTOL
 70
0
  9
$DIMLIM
 70
0
  9
$DIMTIH
 70
0
  9
$DIMTOH
 70
0
  9
$DIMSE1
 70
0
  9
$DIMSE2
 70
0
  9
$DIMTAD
 70
1
  9
$DIMZIN
 70
8
  9
$DIMBLK
  1

  9
$DIMASO
 70
1
  9
$DIMSHO
 70
1
  9
$DIMPOST
  1

  9
$DIMAPOST
  1

  9
$DIMALT
 70
0
  9
$DIMALTD
 70
3
  9
$DIMALTF
 40
0.03937007874
  9
$DIMLFAC
 40
1.0
  9
$DIMTOFL
 70
1
  9
$DIMTVP
 40
0.0
  9
$DIMTIX
 70
0
  9
$DIMSOXD
 70
0
  9
$DIMSAH
 70
0
  9
$DIMBLK1
  1

  9
$DIMBLK2
  1

  9
$DIMSTYLE
  2
ISO-25
  9
$DIMCLRD
 70
0
  9
$DIMCLRE
 70
0
  9
$DIMCLRT
 70
0
  9
$DIMTFAC
 40
1.0
  9
$DIMGAP
 40
0.625
  9
$DIMJUST
 70
0
  9
$DIMSD1
 70
0
  9
$DIMSD2
 70
0
  9
$DIMTOLJ
 70
0
  9
$DIMTZIN
 70
8
  9
$DIMALTZ
 70
0
  9
$DIMALTTZ
 70
0
  9
$DIMUPT
 70
0
  9
$DIMDEC
 70
2
  9
$DIMTDEC
 70
2
  9
$DIMALTU
 70
2
  9
$DIMALTTD
 70
3
  9
$DIMTXSTY
  7
Standard
  9
$DIMAUNIT
 70
0
  9
$DIMADEC
 70
0
  9
$DIMALTRND
 40
0.0
  9
$DIMAZIN
 70
0
  9
$DIMDSEP
 70
44
  9
$DIMATFIT
 70
3
  9
$DIMFRAC
 70
0
  9
$DIMLDRBLK
  1

  9
$DIMLUNIT
 70
2
  9
$DIMLWD
 70
-2
  9
$DIMLWE
 70
-2
  9
$DIMTMOVE
 70
0
  9
$DIMFXL
 40
1.0
  9
$DIMFXLON
 70
0
  9
$DIMJOGANG
 40
0.785398163397
  9
$DIMTFILL
 70
0
  9
$DIMTFILLCLR
 70
0
  9
$DIMARCSYM
 70
0
  9
$DIMLTYPE
  6

  9
$DIMLTEX1
  6

  9
$DIMLTEX2
  6

  9
$DIMTXTDIRECTION
 70
0
  9
$LUNITS
 70
2
  9
$LUPREC
 70
4
  9
$SKETCHINC
 40
1.0
  9
$FILLETRAD
 40
10.0
  9
$AUNITS
 70
0
  9
$AUPREC
 70
2
  9
$MENU
  1
.
  9
$ELEVATION
 40
0.0
  9
$PELEVATION
 40
0.0
  9
$THICKNESS
 40
0.0
  9
$LIMCHECK
 70
0
  9
$CHAMFERA
 40
0.0
  9
$CHAMFERB
 40
0.0
  9
$CHAMFERC
 40
0.0
  9
$CHAMFERD
 40
0.0
  9
$SKPOLY
 70
0
  9
$TDCREATE
 40
2461246.77837963
  9
$TDUCREATE
 40
2458532.153996898
  9
$TDUPDATE
 40
2461246.77837963
  9
$TDUUPDATE
 40
2458532.1544311
  9
$TDINDWG
 40
0.0
  9
$TDUSRTIMER
 40
0.0
  9
$USRTIMER
 70
1
  9
$ANGBASE
 50
0.0
  9
$ANGDIR
 70
0
  9
$PDMODE
 70
0
  9
$PDSIZE
 40
0.0
  9
$PLINEWID
 40
0.0
  9
$SPLFRAME
 70
0
  9
$SPLINETYPE
 70
6
  9
$SPLINESEGS
 70
8
  9
$HANDSEED
  5
5B
  9
$SURFTAB1
 70
6
  9
$SURFTAB2
 70
6
  9
$SURFTYPE
 70
6
  9
$SURFU
 70
6
  9
$SURFV
 70
6
  9
$UCSBASE
  2

  9
$UCSNAME
  2

  9
$UCSORG
 10
0.0
 20
0.0
 30
0.0
  9
$UCSXDIR
 10
1.0
 20
0.0
 30
0.0
  9
$UCSYDIR
 10
0.0
 20
1.0
 30
0.0
  9
$UCSORTHOREF
  2

  9
$UCSORTHOVIEW
 70
0
  9
$UCSORGTOP
 10
0.0
 20
0.0
 30
0.0
  9
$UCSORGBOTTOM
 10
0.0
 20
0.0
 30
0.0
  9
$UCSORGLEFT
 10
0.0
 20
0.0
 30
0.0
  9
$UCSORGRIGHT
 10
0.0
 20
0.0
 30
0.0
  9
$UCSORGFRONT
 10
0.0
 20
0.0
 30
0.0
  9
$UCSORGBACK
 10
0.0
 20
0.0
 30
0.0
  9
$PUCSBASE
  2

  9
$PUCSNAME
  2

  9
$PUCSORG
 10
0.0
 20
0.0
 30
0.0
  9
$PUCSXDIR
 10
1.0
 20
0.0
 30
0.0
  9
$PUCSYDIR
 10
0.0
 20
1.0
 30
0.0
  9
$PUCSORTHOREF
  2

  9
$PUCSORTHOVIEW
 70
0
  9
$PUCSORGTOP
 10
0.0
 20
0.0
 30
0.0
  9
$PUCSORGBOTTOM
 10
0.0
 20
0.0
 30
0.0
  9
$PUCSORGLEFT
 10
0.0
 20
0.0
 30
0.0
  9
$PUCSORGRIGHT
 10
0.0
 20
0.0
 30
0.0
  9
$PUCSORGFRONT
 10
0.0
 20
0.0
 30
0.0
  9
$PUCSORGBACK
 10
0.0
 20
0.0
 30
0.0
  9
$USERI1
 70
0
  9
$USERI2
 70
0
  9
$USERI3
 70
0
  9
$USERI4
 70
0
  9
$USERI5
 70
0
  9
$USERR1
 40
0.0
  9
$USERR2
 40
0.0
  9
$USERR3
 40
0.0
  9
$USERR4
 40
0.0
  9
$USERR5
 40
0.0
  9
$WORLDVIEW
 70
1
  9
$SHADEDGE
 70
3
  9
$SHADEDIF
 70
70
  9
$TILEMODE
 70
1
  9
$MAXACTVP
 70
64
  9
$PINSBASE
 10
0.0
 20
0.0
 30
0.0
  9
$PLIMCHECK
 70
0
  9
$PEXTMIN
 10
1e+20
 20
1e+20
 30
1e+20
  9
$PEXTMAX
 10
-1e+20
 20
-1e+20
 30
-1e+20
  9
$PLIMMIN
 10
0.0
 20
0.0
  9
$PLIMMAX
 10
420.0
 20
297.0
  9
$UNITMODE
 70
0
  9
$VISRETAIN
 70
1
  9
$PLINEGEN
 70
0
  9
$PSLTSCALE
 70
1
  9
$TREEDEPTH
 70
3020
  9
$CMLSTYLE
  2
Standard
  9
$CMLJUST
 70
0
  9
$CMLSCALE
 40
20.0
  9
$PROXYGRAPHICS
 70
1
  9
$MEASUREMENT
 70
1
  9
$CELWEIGHT
370
-1
  9
$ENDCAPS
280
0
  9
$JOINSTYLE
280
0
  9
$LWDISPLAY
290
0
  9
$INSUNITS
 70
4
  9
$HYPERLINKBASE
  1

  9
$STYLESHEET
  1

  9
$XEDIT
290
1
  9
$CEPSNTYPE
380
0
  9
$PSTYLEMODE
290
1
  9
$FINGERPRINTGUID
  2
{2E776BB8-2048-45C3-945A-B506A9C41820}
  9
$VERSIONGUID
  2
{99416AB2-8C41-4610-99CA-3025304AA852}
  9
$EXTNAMES
290
1
  9
$PSVPSCALE
 40
0.0
  9
$OLESTARTUP
290
0
  9
$SORTENTS
280
127
  9
$INDEXCTL
280
0
  9
$HIDETEXT
280
1
  9
$XCLIPFRAME
280
1
  9
$HALOGAP
280
0
  9
$OBSCOLOR
 70
257
  9
$OBSLTYPE
280
0
  9
$INTERSECTIONDISPLAY
280
0
  9
$INTERSECTIONCOLOR
 70
257
  9
$DIMASSOC
280
2
  9
$PROJECTNAME
  1

  9
$CAMERADISPLAY
290
0
  9
$LENSLENGTH
 40
50.0
  9
$CAMERAHEIGHT
 40
0.0
  9
$STEPSPERSEC
 40
24.0
  9
$STEPSIZE
 40
100.0
  9
$3DDWFPREC
 40
2.0
  9
$PSOLWIDTH
 40
0.005
  9
$PSOLHEIGHT
 40
0.08
  9
$LOFTANG1
 40
1.570796326795
  9
$LOFTANG2
 40
1.570796326795
  9
$LOFTMAG1
 40
0.0
  9
$LOFTMAG2
 40
0.0
  9
$LOFTPARAM
 70
7
  9
$LOFTNORMALS
280
1
  9
$LATITUDE
 40
37.795
  9
$LONGITUDE
 40
-122.394
  9
$NORTHDIRECTION
 40
0.0
  9
$TIMEZONE
 70
-8000
  9
$LIGHTGLYPHDISPLAY
280
1
  9
$TILEMODELIGHTSYNCH
280
1
  9
$CMATERIAL
347
20
  9
$SOLIDHIST
280
0
  9
$SHOWHIST
280
1
  9
$DWFFRAME
280
2
  9
$DGNFRAME
280
2
  9
$REALWORLDSCALE
290
1
  9
$INTERFERECOLOR
 62
256
  9
$CSHADOW
280
0
  9
$SHADOWPLANELOCATION
 40
0.0
  0
ENDSEC
  0
SECTION
  2
CLASSES
  0
CLASS
  1
ACDBDICTIONARYWDFLT
  2
AcDbDictionaryWithDefault
  3
ObjectDBX Classes
 90
0
 91
0
280
0
281
0
  0
CLASS
  1
SUN
  2
AcDbSun
  3
SCENEOE
 90
1153
 91
0
280
0
281
0
  0
CLASS
  1
VISUALSTYLE
  2
AcDbVisualStyle
  3
ObjectDBX Classes
 90
4095
 91
0
280
0
281
0
  0
CLASS
  1
MATERIAL
  2
AcDbMaterial
  3
ObjectDBX Classes
 90
1153
 91
0
280
0
281
0
  0
CLASS
  1
SCALE
  2
AcDbScale
  3
ObjectDBX Classes
 90
1153
 91
0
280
0
281
0
  0
CLASS
  1
TABLESTYLE
  2
AcDbTableStyle
  3
ObjectDBX Classes
 90
4095
 91
0
280
0
281
0
  0
CLASS
  1
MLEADERSTYLE
  2
AcDbMLeaderStyle
  3
ACDB_MLEADERSTYLE_CLASS
 90
4095
 91
0
280
0
281
0
  0
CLASS
  1
DICTIONARYVAR
  2
AcDbDictionaryVar
  3
ObjectDBX Classes
 90
0
 91
0
280
0
281
0
  0
CLASS
  1
CELLSTYLEMAP
  2
AcDbCellStyleMap
  3
ObjectDBX Classes
 90
1152
 91
0
280
0
281
0
  0
CLASS
  1
MENTALRAYRENDERSETTINGS
  2
AcDbMentalRayRenderSettings
  3
SCENEOE
 90
1024
 91
0
280
0
281
0
  0
CLASS
  1
ACDBDETAILVIEWSTYLE
  2
AcDbDetailViewStyle
  3
ObjectDBX Classes
 90
1025
 91
0
280
0
281
0
  0
CLASS
  1
ACDBSECTIONVIEWSTYLE
  2
AcDbSectionViewStyle
  3
ObjectDBX Classes
 90
1025
 91
0
280
0
281
0
  0
CLASS
  1
RASTERVARIABLES
  2
AcDbRasterVariables
  3
ISM
 90
0
 91
0
280
0
281
0
  0
CLASS
  1
ACDBPLACEHOLDER
  2
AcDbPlaceHolder
  3
ObjectDBX Classes
 90
0
 91
0
280
0
281
0
  0
CLASS
  1
LAYOUT
  2
AcDbLayout
  3
ObjectDBX Classes
 90
0
 91
0
280
0
281
0
  0
ENDSEC
  0
SECTION
  2
TABLES
  0
TABLE
  2
VPORT
  5
8
330
0
100
AcDbSymbolTable
 70
1
  0
VPORT
  5
23
330
8
100
AcDbSymbolTableRecord
100
AcDbViewportTableRecord
  2
*Active
 70
0
 10
0.0
 20
0.0
 11
1.0
 21
1.0
 12
0.0
 22
0.0
 13
0.0
 23
0.0
 14
0.5
 24
0.5
 15
0.5
 25
0.5
 16
0.0
 26
0.0
 36
1.0
 17
0.0
 27
0.0
 37
0.0
 40
1000.0
 41
1.34
 42
50.0
 43
0.0
 44
0.0
 50
0.0
 51
0.0
 71
0
 72
1000
 73
1
 74
3
 75
0
 76
0
 77
0
 78
0
281
0
 65
0
146
0.0
  0
ENDTAB
  0
TABLE
  2
LTYPE
  5
2
330
0
100
AcDbSymbolTable
 70
3
  0
LTYPE
  5
24
330
2
100
AcDbSymbolTableRecord
100
AcDbLinetypeTableRecord
  2
ByBlock
 70
0
  3

 72
65
 73
0
 40
0.0
  0
LTYPE
  5
25
330
2
100
AcDbSymbolTableRecord
100
AcDbLinetypeTableRecord
  2
ByLayer
 70
0
  3

 72
65
 73
0
 40
0.0
  0
LTYPE
  5
26
330
2
100
AcDbSymbolTableRecord
100
AcDbLinetypeTableRecord
  2
Continuous
 70
0
  3

 72
65
 73
0
 40
0.0
  0
ENDTAB
  0
TABLE
  2
LAYER
  5
1
330
0
100
AcDbSymbolTable
 70
3
  0
LAYER
  5
27
330
1
100
AcDbSymbolTableRecord
100
AcDbLayerTableRecord
  2
0
 70
0
 62
7
  6
Continuous
370
-3
390
13
347
21
  0
LAYER
  5
28
330
1
100
AcDbSymbolTableRecord
100
AcDbLayerTableRecord
  2
Defpoints
 70
0
 62
7
  6
Continuous
290
0
370
-3
390
13
347
21
  0
LAYER
  5
2F
330
1
100
AcDbSymbolTableRecord
100
AcDbLayerTableRecord
  2
GRY2
 70
0
 62
7
  6
Continuous
370
-3
390
13
347
21
  0
ENDTAB
  0
TABLE
  2
STYLE
  5
5
330
0
100
AcDbSymbolTable
 70
1
  0
STYLE
  5
29
330
5
100
AcDbSymbolTableRecord
100
AcDbTextStyleTableRecord
  2
Standard
 70
0
 40
0.0
 41
1.0
 50
0.0
 71
0
 42
2.5
  3
txt
  4

  0
ENDTAB
  0
TABLE
  2
VIEW
  5
7
330
0
100
AcDbSymbolTable
 70
0
  0
ENDTAB
  0
TABLE
  2
UCS
  5
6
330
0
100
AcDbSymbolTable
 70
0
  0
ENDTAB
  0
TABLE
  2
APPID
  5
3
330
0
100
AcDbSymbolTable
 70
3
  0
APPID
  5
2A
330
3
100
AcDbSymbolTableRecord
100
AcDbRegAppTableRecord
  2
ACAD
 70
0
  0
APPID
  5
58
330
3
100
AcDbSymbolTableRecord
100
AcDbRegAppTableRecord
  2
HATCHBACKGROUNDCOLOR
 70
0
  0
APPID
  5
59
330
3
100
AcDbSymbolTableRecord
100
AcDbRegAppTableRecord
  2
EZDXF
 70
0
  0
ENDTAB
  0
TABLE
  2
DIMSTYLE
  5
4
330
0
100
AcDbSymbolTable
 70
1
100
AcDbDimStyleTable
  0
DIMSTYLE
105
2B
330
4
100
AcDbSymbolTableRecord
100
AcDbDimStyleTableRecord
  2
Standard
 70
0
 40
1.0
 41
2.5
 42
0.625
 43
3.75
 44
1.25
 45
0.0
 46
0.0
 47
0.0
 48
0.0
 49
2.5
140
2.5
141
2.5
142
0.0
143
0.03937007874
144
1.0
145
0.0
146
1.0
147
0.625
148
0.0
 69
0
 70
0
 71
0
 72
0
 73
0
 74
0
 75
0
 76
0
 77
1
 78
8
 79
3
170
0
171
3
172
1
173
0
174
0
175
0
176
0
177
0
178
0
179
2
271
2
272
2
273
2
274
3
275
0
276
0
277
2
278
44
279
0
280
0
281
0
282
0
283
0
284
8
285
0
286
0
288
0
289
3
290
0
371
-2
372
-2
  0
ENDTAB
  0
TABLE
  2
BLOCK_RECORD
  5
9
330
0
100
AcDbSymbolTable
 70
2
  0
BLOCK_RECORD
  5
17
330
9
100
AcDbSymbolTableRecord
100
AcDbBlockTableRecord
  2
*Model_Space
340
1A
 70
0
280
1
281
0
  0
BLOCK_RECORD
  5
1B
330
9
100
AcDbSymbolTableRecord
100
AcDbBlockTableRecord
  2
*Paper_Space
340
1E
 70
0
280
1
281
0
  0
ENDTAB
  0
ENDSEC
  0
SECTION
  2
BLOCKS
  0
BLOCK
  5
18
330
17
100
AcDbEntity
  8
0
100
AcDbBlockBegin
  2
*Model_Space
 70
0
 10
0.0
 20
0.0
 30
0.0
  3
*Model_Space
  1

  0
ENDBLK
  5
19
330
17
100
AcDbEntity
  8
0
100
AcDbBlockEnd
  0
BLOCK
  5
1C
330
1B
100
AcDbEntity
  8
0
100
AcDbBlockBegin
  2
*Paper_Space
 70
0
 10
0.0
 20
0.0
 30
0.0
  3
*Paper_Space
  1

  0
ENDBLK
  5
1D
330
1B
100
AcDbEntity
  8
0
100
AcDbBlockEnd
  0
ENDSEC
  0
SECTION
  2
ENTITIES
  0
LWPOLYLINE
  5
30
330
17
100
AcDbEntity
  8
GRY2
100
AcDbPolyline
 90
8
 70
1
 10
1.4921298095934565
 20
236.44583247206486
 10
0.0
 20
237.96849116907515
 10
7.797604334870312
 20
245.92563402621792
 10
10.597462264805818
 20
245.92563402621792
 10
12.039407006894958
 20
247.39708087221922
 10
14.273837760768709
 20
245.1169337976289
 10
6.480828999207711
 20
235.71857994646606
 10
1.4921298095934565
 20
236.44583247206486
  0
LWPOLYLINE
  5
31
330
17
100
AcDbEntity
  8
GRY2
100
AcDbPolyline
 90
9
 70
1
 10
965.3920914390601
 20
30.254535503231207
 10
967.6227691096846
 20
27.968491169075183
 10
966.2287968498322
 20
26.539919740503738
 10
967.6227691096846
 20
25.11134831193229
 10
965.3920914390601
 20
22.82530397777627
 10
963.1614137684359
 20
25.11134831193229
 10
964.5553860282882
 20
26.539919740503738
 10
963.1614137684359
 20
27.968491169075183
 10
965.3920914390601
 20
30.254535503231207
  0
LWPOLYLINE
  5
32
330
17
100
AcDbEntity
  8
GRY2
100
AcDbPolyline
 90
7
 70
1
 10
959.858343622307
 20
25.92563402621795
 10
962.046880070275
 20
23.682776883360845
 10
958.4610801670757
 20
20.00797542724897
 10
949.3160854189349
 20
20.728896859304015
 10
947.82771891006
 20
22.2542054547894
 10
951.4102276178807
 20
25.92563402621795
 10
959.858343622307
 20
25.92563402621795
  0
LWPOLYLINE
  5
33
330
17
100
AcDbEntity
  8
GRY2
100
AcDbPolyline
 90
7
 70
1
 10
701.9313343269655
 20
50.25453550323111
 10
708.3439287771469
 20
43.68277688336075
 10
704.7302405789391
 20
39.97939492920888
 10
699.7138373217635
 20
43.651475774199696
 10
701.113597031312
 20
46.52048082619187
 10
699.700656656341
 20
47.9684911690752
 10
701.9313343269655
 20
50.25453550323111
  0
LWPOLYLINE
  5
34
330
17
100
AcDbEntity
  8
GRY2
100
AcDbPolyline
 90
8
 70
1
 10
688.5488785775223
 20
50.82563402621809
 10
690.7374150254906
 20
53.06849116907508
 10
693.5253595451951
 20
53.06849116907508
 10
696.355445287556
 20
55.9688212175169
 10
699.9800952180326
 20
52.25420545478943
 10
694.9949002505458
 20
47.1452751686412
 10
691.4264015438097
 20
47.87668933550249
 10
688.5488785775223
 20
50.82563402621809
  0
LWPOLYLINE
  5
35
330
17
100
AcDbEntity
  8
GRY2
100
AcDbPolyline
 90
13
 70
1
 10
678.8697621578899
 20
57.878921199397084
 10
673.2274371038937
 20
66.55247726109236
 10
675.4037201671146
 20
68.78277688336087
 10
678.2759471321316
 20
68.78277688336087
 10
680.4644835800997
 20
66.53991974050366
 10
679.0705113202473
 20
65.11134831193233
 10
681.0638916518363
 20
63.06849116907509
 10
685.2458084313932
 20
63.06849116907509
 10
688.828317139214
 20
59.397062597646546
 10
686.5976394685896
 20
57.111018263490635
 10
685.1836160203933
 20
58.560138562080425
 10
682.4300596674535
 20
57.14918798362789
 10
678.8697621578899
 20
57.878921199397084
  0
LWPOLYLINE
  5
36
330
17
100
AcDbEntity
  8
GRY2
100
AcDbPolyline
 90
7
 70
1
 10
657.8701801880287
 20
77.95690180877047
 10
660.1026532429099
 20
80.24478608962183
 10
665.7220461945479
 20
75.92563402621799
 10
669.9121135730175
 20
75.92563402621799
 10
672.1006500209857
 20
73.68277688336077
 10
668.4861866917436
 20
69.9786005589902
 10
657.8701801880287
 20
77.95690180877047
  0
LWPOLYLINE
  5
37
330
17
100
AcDbEntity
  8
GRY2
100
AcDbPolyline
 90
10
 70
1
 10
625.8201268841664
 20
37.96849116907519
 10
630.7966078518392
 20
43.068491169075074
 10
633.6508224744808
 20
43.068491169075074
 10
642.0506807183459
 20
38.76431746460462
 10
647.0091493436433
 20
33.68277688336085
 10
644.7931431865011
 20
31.41176821783187
 10
633.5974135730038
 20
38.58277688336087
 10
630.8808902971515
 20
38.58277688336087
 10
628.0508045547908
 20
35.682446834919055
 10
625.8201268841664
 20
37.96849116907519
  0
LWPOLYLINE
  5
38
330
17
100
AcDbEntity
  8
GRY2
100
AcDbPolyline
 90
5
 70
1
 10
627.4935377057103
 20
46.53991974050364
 10
623.848858698933
 20
42.804777768634224
 10
621.6421885757737
 20
46.573845945262924
 10
625.2785914495955
 20
48.80984219767082
 10
627.4935377057103
 20
46.53991974050364
  0
LWPOLYLINE
  5
39
330
17
100
AcDbEntity
  8
GRY2
100
AcDbPolyline
 90
9
 70
1
 10
1676.2861027827234
 20
92.25420545478946
 10
1675.0721369399391
 20
93.6827768833608
 10
1679.4522469367787
 20
98.83720526590322
 10
1683.8011273865245
 20
93.71952720790321
 10
1683.8011273865245
 20
89.36031227310414
 10
1680.7056398489328
 20
85.71760265323624
 10
1676.3647629039913
 20
86.44735403737536
 10
1673.8581710971546
 20
89.39706259764657
 10
1676.2861027827234
 20
92.25420545478946
  0
LWPOLYLINE
  5
3A
330
17
100
AcDbEntity
  8
GRY2
100
AcDbPolyline
 90
6
 70
1
 10
1327.4049593286704
 20
8.81577065015582
 10
1333.0036143110426
 20
3.6914685166440364
 10
1329.8666926287985
 20
0.0
 10
1326.7402569869428
 20
0.7358257495907461
 10
1323.0119656383088
 20
5.123206605243125
 10
1327.4049593286704
 20
8.81577065015582
  0
LWPOLYLINE
  5
3B
330
17
100
AcDbEntity
  8
GRY2
100
AcDbPolyline
 90
5
 70
1
 10
1243.1627560028423
 20
123.68277688336082
 10
1239.9966118487873
 20
119.95691992938995
 10
1236.830467694732
 20
123.68277688336082
 10
1239.9966118487873
 20
127.40863383733169
 10
1243.1627560028423
 20
123.68277688336082
  0
LWPOLYLINE
  5
3C
330
17
100
AcDbEntity
  8
GRY2
100
AcDbPolyline
 90
5
 70
1
 10
1237.5686801632182
 20
135.98006240876038
 10
1240.7348243172735
 20
132.25420545478948
 10
1237.5686801632182
 20
128.5283485008184
 10
1234.402536009163
 20
132.25420545478948
 10
1237.5686801632182
 20
135.98006240876038
  0
LWPOLYLINE
  5
3D
330
17
100
AcDbEntity
  8
GRY2
100
AcDbPolyline
 90
4
 70
1
 10
1238.6826460060026
 20
126.98209901424717
 10
1238.6826460060026
 20
128.95488332390292
 10
1239.520858474489
 20
127.96849116907526
 10
1238.6826460060026
 20
126.98209901424717
  0
LWPOLYLINE
  5
3E
330
17
100
AcDbEntity
  8
GRY2
100
AcDbPolyline
 90
16
 70
1
 10
2178.5865476261674
 20
228.5515774904501
 10
2176.267744338346
 20
227.12300606187875
 10
2173.291550402882
 20
230.79016113658614
 10
2173.291550402882
 20
235.14682120156417
 10
2176.2757984162135
 20
238.82390021038535
 10
2179.754003347946
 20
235.96675735324246
 10
2184.3582350065194
 20
241.6399197405037
 10
2185.6128986774575
 20
241.6399197405037
 10
2190.882575061542
 20
235.14682120156417
 10
2190.882575061542
 20
233.6473039937288
 10
2187.4331592583976
 20
229.39706259764648
 10
2188.5925609023084
 20
227.96849116907515
 10
2185.5652676639443
 20
224.23837344072072
 10
2184.368196847136
 20
225.7133594180567
 10
2181.4696927373593
 20
224.99907370377105
 10
2178.5865476261674
 20
228.5515774904501
  0
LWPOLYLINE
  5
3F
330
17
100
AcDbEntity
  8
GRY2
100
AcDbPolyline
 90
5
 70
1
 10
2132.2190279872066
 20
234.5727113116458
 10
2136.419486926327
 20
229.39706259764648
 10
2133.4042540623864
 20
225.68180521247893
 10
2129.206614997644
 20
229.37621533394204
 10
2132.2190279872066
 20
234.5727113116458
  0
LWPOLYLINE
  5
40
330
17
100
AcDbEntity
  8
GRY2
100
AcDbPolyline
 90
16
 70
1
 10
2108.3362692152955
 20
237.96849116907515
 10
2109.5244599877933
 20
239.4325354872784
 10
2109.5244599877933
 20
242.28967834442128
 10
2112.4753330840563
 20
245.92563402621792
 10
2116.048800042816
 20
245.92563402621792
 10
2118.3422824914364
 20
243.09969056198577
 10
2120.661085779258
 20
244.52826199055733
 10
2125.3240131941016
 20
238.7827768833608
 10
2126.3881528109846
 20
238.7827768833608
 10
2131.0733904001413
 20
244.55575175457244
 10
2135.2600852824157
 20
239.39706259764648
 10
2131.0876464965863
 20
234.25593927062204
 10
2127.609441564854
 20
237.11308212776493
 10
2122.995248065664
 20
231.4276451323425
 10
2111.3070586943136
 20
234.3079952638678
 10
2108.3362692152955
 20
237.96849116907515
  0
LWPOLYLINE
  5
41
330
17
100
AcDbEntity
  8
GRY2
100
AcDbPolyline
 90
9
 70
1
 10
2074.7740564422375
 20
247.8884596357378
 10
2071.2421142315306
 20
253.6910294424204
 10
2078.852685410646
 20
263.06849116907506
 10
2080.117335746602
 20
263.06849116907506
 10
2083.079310508516
 20
257.9590025333276
 10
2080.7394188900257
 20
255.07587542230036
 10
2080.7394188900257
 20
252.21873256515747
 10
2076.6123023627797
 20
247.13345363341287
 10
2074.7740564422375
 20
247.8884596357378
  0
LWPOLYLINE
  5
42
330
17
100
AcDbEntity
  8
GRY2
100
AcDbPolyline
 90
5
 70
1
 10
4194.2029722413645
 20
179.39706259764642
 10
4196.430796856119
 20
181.68320401561243
 10
4198.658621470873
 20
179.39706259764642
 10
4196.430796856119
 20
177.11092117968064
 10
4194.2029722413645
 20
179.39706259764642
  0
LWPOLYLINE
  5
43
330
17
100
AcDbEntity
  8
GRY2
100
AcDbPolyline
 90
8
 70
1
 10
3980.6506102229873
 20
135.96891830132685
 10
3982.062808125839
 20
134.51975390360383
 10
3984.766797932491
 20
135.90713939387223
 10
3987.6112614047015
 20
138.82606115846974
 10
3989.8390860194554
 20
136.53991974050373
 10
3982.029845790799
 20
128.52626040154846
 10
3978.4331624830747
 20
133.6934253891755
 10
3980.6506102229873
 20
135.96891830132685
  0
LWPOLYLINE
  5
44
330
17
100
AcDbEntity
  8
GRY2
100
AcDbPolyline
 90
5
 70
1
 10
3979.258479986645
 20
144.5403468727553
 10
3981.4863046013993
 20
142.2542054547895
 10
3979.258479986645
 20
139.96806403682348
 10
3977.030655371891
 20
142.2542054547895
 10
3979.258479986645
 20
144.5403468727553
  0
LWPOLYLINE
  5
45
330
17
100
AcDbEntity
  8
GRY2
100
AcDbPolyline
 90
6
 70
1
 10
3941.6287834616937
 20
84.49706259764666
 10
3944.4974042217714
 20
84.49706259764666
 10
3946.6830486928293
 20
82.25420545478946
 10
3944.478444751773
 20
79.99189254807249
 10
3939.4105079602373
 20
82.22072025599503
 10
3941.6287834616937
 20
84.49706259764666
  0
LWPOLYLINE
  5
46
330
17
100
AcDbEntity
  8
GRY2
100
AcDbPolyline
 90
5
 70
1
 10
3934.7103124236755
 20
83.1117754441839
 10
3936.93813703843
 20
80.82563402621813
 10
3934.7103124236755
 20
78.5394926082521
 10
3932.4824878089216
 20
80.82563402621813
 10
3934.7103124236755
 20
83.1117754441839
  0
LWPOLYLINE
  5
47
330
17
100
AcDbEntity
  8
GRY2
100
AcDbPolyline
 90
12
 70
1
 10
3921.3850751784194
 20
136.58058635878146
 10
3921.3850751784194
 20
140.86630064449568
 10
3923.5732705329337
 20
143.11177544418396
 10
3926.3575310056194
 20
140.25463258704107
 10
3929.1417914783046
 20
143.11177544418396
 10
3931.329986832819
 20
140.86630064449568
 10
3931.329986832819
 20
137.92782455079734
 10
3926.3775986721275
 20
132.84579986311783
 10
3923.5933381994423
 20
134.27437129168916
 10
3920.789010060248
 20
131.39663546539504
 10
3918.561185445494
 20
133.68277688336084
 10
3921.3850751784194
 20
136.58058635878146
  0
LWPOLYLINE
  5
48
330
17
100
AcDbEntity
  8
GRY2
100
AcDbPolyline
 90
5
 70
1
 10
3904.067703435989
 20
138.80990525197845
 10
3907.722565602146
 20
136.55958490278962
 10
3905.491321248623
 20
134.269934229029
 10
3901.836459082466
 20
136.52025457821782
 10
3904.067703435989
 20
138.80990525197845
  0
LWPOLYLINE
  5
49
330
17
100
AcDbEntity
  8
GRY2
100
AcDbPolyline
 90
5
 70
1
 10
4694.4571445315105
 20
261.7312998892185
 10
4696.763128221527
 20
257.96849116907515
 10
4694.4571445315105
 20
254.20568244893184
 10
4692.151160841493
 20
257.96849116907515
 10
4694.4571445315105
 20
261.7312998892185
  0
LWPOLYLINE
  5
4A
330
17
100
AcDbEntity
  8
GRY2
100
AcDbPolyline
 90
7
 70
1
 10
4692.71446819378
 20
248.8606412779293
 10
4694.9948843502625
 20
245.13955260053865
 10
4694.9948843502625
 20
240.79742973761165
 10
4692.772210330685
 20
237.17056228876098
 10
4690.463826414953
 20
236.41721722694143
 10
4687.775329948878
 20
242.26652020360874
 10
4692.71446819378
 20
248.8606412779293
  0
LWPOLYLINE
  5
4B
330
17
100
AcDbEntity
  8
GRY2
100
AcDbPolyline
 90
5
 70
1
 10
4688.879072819882
 20
255.10361595602248
 10
4686.563019025364
 20
251.32437525624619
 10
4684.276582768056
 20
256.5476520964134
 10
4686.592636562574
 20
260.3268927961899
 10
4688.879072819882
 20
255.10361595602248
  0
LWPOLYLINE
  5
4C
330
17
100
AcDbEntity
  8
GRY2
100
AcDbPolyline
 90
20
 70
1
 10
4409.3712379274975
 20
232.25420545478937
 10
4412.884571052851
 20
237.98711700055696
 10
4412.020505990682
 20
242.21695379182572
 10
4408.495758289992
 20
247.96849116907515
 10
4410.766100306888
 20
251.6731412825455
 10
4413.392539219402
 20
250.24456985397393
 10
4414.247659508398
 20
251.6399197405037
 10
4416.9861004641725
 20
251.6399197405037
 10
4419.230526788659
 20
247.97755778102638
 10
4417.479567513648
 20
243.69184349531216
 10
4420.094278173809
 20
239.42526688625287
 10
4420.094278173809
 20
230.79742973761165
 10
4418.3550471511535
 20
227.95942455712392
 10
4420.106006426163
 20
223.6737102714097
 10
4417.805579080046
 20
219.91996816321756
 10
4414.624115752525
 20
225.11134831193226
 10
4416.375075027534
 20
227.96849116907515
 10
4414.287622483847
 20
231.3747098115897
 10
4411.661183571333
 20
228.5175669544468
 10
4409.3712379274975
 20
232.25420545478937
  0
LWPOLYLINE
  5
4D
330
17
100
AcDbEntity
  8
GRY2
100
AcDbPolyline
 90
4
 70
1
 10
4408.950782705
 20
234.75161860646975
 10
4409.605807120008
 20
233.6827768833607
 10
4408.950782705
 20
232.6139351602523
 10
4408.950782705
 20
234.75161860646975
  0
LWPOLYLINE
  5
4E
330
17
100
AcDbEntity
  8
GRY2
100
AcDbPolyline
 90
10
 70
1
 10
4405.5571470922605
 20
240.28921270650082
 10
4408.735407737044
 20
235.10305856289105
 10
4405.22240887016
 20
230.8037839754149
 10
4406.9709046685475
 20
225.09753785945907
 10
4403.841921596096
 20
219.9917928183419
 10
4401.543180712028
 20
220.74199086018953
 10
4397.990002639937
 20
226.5399197405036
 10
4401.491921189955
 20
232.25420545478937
 10
4400.612996030103
 20
233.6883991440859
 10
4405.5571470922605
 20
240.28921270650082
  0
LWPOLYLINE
  5
4F
330
17
100
AcDbEntity
  8
GRY2
100
AcDbPolyline
 90
27
 70
1
 10
5248.725490438909
 20
157.97646391374576
 10
5250.053224056539
 20
159.39706259764662
 10
5248.718038875533
 20
160.82563402621795
 10
5250.857693691833
 20
163.1149417425235
 10
5253.54130837351
 20
160.2436282243105
 10
5257.5260712875615
 20
163.0859398025739
 10
5260.183403140897
 20
161.66434360156921
 10
5262.069890685583
 20
163.68277688336087
 10
5260.203989958868
 20
165.67918345276976
 10
5258.8484771616995
 20
164.22886264285742
 10
5256.743041606598
 20
167.98335443109647
 10
5258.848217959891
 20
170.2357721729979
 10
5261.518588321902
 20
168.80720074442635
 10
5262.874360320879
 20
170.25779888538062
 10
5265.014015137179
 20
167.9684911690751
 10
5263.678829956174
 20
166.53991974050376
 10
5266.325097978939
 20
163.7085650015162
 10
5264.984134605408
 20
159.40430371377934
 10
5266.331535884226
 20
156.521019811106
 10
5261.539175139873
 20
151.39346916705531
 10
5259.436397368366
 20
153.64332056425977
 10
5259.436397368366
 20
156.48528364874716
 10
5256.214567250072
 20
158.55358751558967
 10
5254.31486925518
 20
156.521019811106
 10
5255.650054436186
 20
153.6638769539631
 10
5253.51840598662
 20
151.3831355900448
 10
5248.725490438909
 20
157.97646391374576
  0
LWPOLYLINE
  5
50
330
17
100
AcDbEntity
  8
GRY2
100
AcDbPolyline
 90
13
 70
1
 10
6255.146118711877
 20
259.30385295768343
 10
6253.8114724559055
 20
260.78726958578244
 10
6253.8114724559055
 20
266.57828418093897
 10
6256.382075309365
 20
269.43542703808185
 10
6256.382075309365
 20
278.02200001042564
 10
6259.721846814241
 20
280.24922953834806
 10
6268.149788149933
 20
267.9995692917152
 10
6268.149788149933
 20
265.14971275236763
 10
6269.469606485682
 20
263.68277688336093
 10
6266.166381818986
 20
260.0113483119324
 10
6261.025176112067
 20
260.0113483119324
 10
6259.733320254259
 20
258.57549184284403
 10
6255.146118711877
 20
259.30385295768343
  0
LWPOLYLINE
  5
51
330
17
100
AcDbEntity
  8
GRY2
100
AcDbPolyline
 90
12
 70
1
 10
7000.000642658714
 20
215.94804856016813
 10
7002.804288528075
 20
214.5194771315968
 10
7004.226092641207
 20
215.96841100391308
 10
7007.084441998519
 20
213.0555208494507
 10
7011.298329517866
 20
211.62408963598622
 10
7014.858582056508
 20
206.54462852779122
 10
7012.650423993072
 20
202.79414116695028
 10
7005.568632861742
 20
211.45444559460324
 10
7001.449798515823
 20
212.85358784003995
 10
7000.0206238371675
 20
211.39714276280853
 10
6997.777785805833
 20
213.6827768833609
 10
7000.000642658714
 20
215.94804856016813
  0
LWPOLYLINE
  5
52
330
17
100
AcDbEntity
  8
GRY2
100
AcDbPolyline
 90
6
 70
1
 10
7010.634295847268
 20
217.92762231352802
 10
7008.431561445247
 20
215.68285704852275
 10
7004.786900479234
 20
219.39706259764645
 10
7008.431561445247
 20
223.1112681467702
 10
7010.634295847268
 20
220.86650288176511
 10
7010.634295847268
 20
217.92762231352802
  0
LWPOLYLINE
  5
53
330
17
100
AcDbEntity
  8
GRY2
100
AcDbPolyline
 90
5
 70
1
 10
7002.824269706528
 20
227.39698243248463
 10
7005.067107737862
 20
225.11134831193226
 10
7002.824269706528
 20
222.82571419137986
 10
7000.581431675194
 20
225.11134831193226
 10
7002.824269706528
 20
227.39698243248463
  0
LWPOLYLINE
  5
54
330
17
100
AcDbEntity
  8
GRY2
100
AcDbPolyline
 90
5
 70
1
 10
7003.665284803182
 20
219.39706259764645
 10
7001.422446771848
 20
217.1114284770943
 10
6999.179608740514
 20
219.39706259764645
 10
7001.422446771848
 20
221.68269671819886
 10
7003.665284803182
 20
219.39706259764645
  0
LWPOLYLINE
  5
55
330
17
100
AcDbEntity
  8
GRY2
100
AcDbPolyline
 90
8
 70
1
 10
7002.223358239187
 20
205.15221716747934
 10
7002.223358239187
 20
202.21333659924224
 10
7000.0206238371675
 20
199.96857133423717
 10
6996.375962871154
 20
203.6827768833609
 10
6997.777785805833
 20
205.11134831193223
 10
6996.375962871154
 20
206.53991974050356
 10
6998.618800902488
 20
208.82555386105594
 10
7002.223358239187
 20
205.15221716747934
  0
LWPOLYLINE
  5
56
330
17
100
AcDbEntity
  8
GRY2
100
AcDbPolyline
 90
9
 70
1
 10
6975.659913470695
 20
202.26674312227067
 10
6967.771908687016
 20
195.68977421773593
 10
6966.376873404847
 20
197.11142847709428
 10
6964.9834261924325
 20
195.69139258980007
 10
6958.517606403395
 20
200.81632244528325
 10
6960.75669848615
 20
203.09813913998198
 10
6964.977903750867
 20
200.2303051284604
 10
6971.984165143567
 20
204.5142747793065
 10
6975.659913470695
 20
202.26674312227067
  0
LWPOLYLINE
  5
57
330
17
100
AcDbEntity
  8
GRY2
100
AcDbPolyline
 90
7
 70
1
 10
6952.3586440580475
 20
213.11126814677039
 10
6954.6014820893815
 20
210.825634026218
 10
6949.554998188687
 20
205.68285704852295
 10
6945.910337222674
 20
209.39706259764668
 10
6949.554998188687
 20
213.11126814677039
 10
6950.956821123367
 20
211.68269671819883
 10
6952.3586440580475
 20
213.11126814677039
  0
ENDSEC
  0
SECTION
  2
OBJECTS
  0
DICTIONARY
  5
A
330
0
100
AcDbDictionary
281
1
  3
ACAD_COLOR
350
B
  3
ACAD_GROUP
350
C
  3
ACAD_LAYOUT
350
D
  3
ACAD_MATERIAL
350
E
  3
ACAD_MLEADERSTYLE
350
F
  3
ACAD_MLINESTYLE
350
10
  3
ACAD_PLOTSETTINGS
350
11
  3
ACAD_PLOTSTYLENAME
350
12
  3
ACAD_SCALELIST
350
14
  3
ACAD_TABLESTYLE
350
15
  3
ACAD_VISUALSTYLE
350
16
  3
EZDXF_META
350
2D
  0
DICTIONARY
  5
B
330
A
100
AcDbDictionary
281
1
  0
DICTIONARY
  5
C
330
A
100
AcDbDictionary
281
1
  0
DICTIONARY
  5
D
330
A
100
AcDbDictionary
281
1
  3
Model
350
1A
  3
Layout1
350
1E
  0
DICTIONARY
  5
E
330
A
100
AcDbDictionary
281
1
  3
ByBlock
350
1F
  3
ByLayer
350
20
  3
Global
350
21
  0
DICTIONARY
  5
F
330
A
100
AcDbDictionary
281
1
  3
Standard
350
2C
  0
DICTIONARY
  5
10
330
A
100
AcDbDictionary
281
1
  3
Standard
350
22
  0
DICTIONARY
  5
11
330
A
100
AcDbDictionary
281
1
  0
ACDBDICTIONARYWDFLT
  5
12
330
A
100
AcDbDictionary
281
1
  3
Normal
350
13
100
AcDbDictionaryWithDefault
340
13
  0
ACDBPLACEHOLDER
  5
13
330
12
  0
DICTIONARY
  5
14
330
A
100
AcDbDictionary
281
1
  0
DICTIONARY
  5
15
330
A
100
AcDbDictionary
281
1
  0
DICTIONARY
  5
16
330
A
100
AcDbDictionary
281
1
  0
LAYOUT
  5
1A
330
D
100
AcDbPlotSettings
  1

  4
A3
  6

 40
7.5
 41
20.0
 42
7.5
 43
20.0
 44
420.0
 45
297.0
 46
0.0
 47
0.0
 48
0.0
 49
0.0
140
0.0
141
0.0
142
1.0
143
1.0
 70
1024
 72
1
 73
0
 74
5
  7

 75
16
 76
0
 77
2
 78
300
147
1.0
148
0.0
149
0.0
100
AcDbLayout
  1
Model
 70
1
 71
0
 10
0.0
 20
0.0
 11
420.0
 21
297.0
 12
0.0
 22
0.0
 32
0.0
 14
1e+20
 24
1e+20
 34
1e+20
 15
-1e+20
 25
-1e+20
 35
-1e+20
146
0.0
 13
0.0
 23
0.0
 33
0.0
 16
1.0
 26
0.0
 36
0.0
 17
0.0
 27
1.0
 37
0.0
 76
1
330
17
  0
LAYOUT
  5
1E
330
D
100
AcDbPlotSettings
  1

  4
A3
  6

 40
7.5
 41
20.0
 42
7.5
 43
20.0
 44
420.0
 45
297.0
 46
0.0
 47
0.0
 48
0.0
 49
0.0
140
0.0
141
0.0
142
1.0
143
1.0
 70
0
 72
1
 73
0
 74
5
  7

 75
16
 76
0
 77
2
 78
300
147
1.0
148
0.0
149
0.0
100
AcDbLayout
  1
Layout1
 70
1
 71
1
 10
0.0
 20
0.0
 11
420.0
 21
297.0
 12
0.0
 22
0.0
 32
0.0
 14
1e+20
 24
1e+20
 34
1e+20
 15
-1e+20
 25
-1e+20
 35
-1e+20
146
0.0
 13
0.0
 23
0.0
 33
0.0
 16
1.0
 26
0.0
 36
0.0
 17
0.0
 27
1.0
 37
0.0
 76
1
330
1B
  0
MATERIAL
  5
1F
102
{ACAD_REACTORS
330
E
102
}
330
E
100
AcDbMaterial
  1
ByBlock
  2

 70
0
 40
1.0
 71
1
 41
1.0
 91
-1023410177
 42
1.0
 72
1
  3

 73
1
 74
1
 75
1
 44
0.5
 73
0
 45
1.0
 46
1.0
 77
1
  4

 78
1
 79
1
170
1
 48
1.0
171
1
  6

172
1
173
1
174
1
140
1.0
141
1.0
175
1
  7

176
1
177
1
178
1
143
1.0
179
1
  8

270
1
271
1
272
1
145
1.0
146
1.0
273
1
  9

274
1
275
1
276
1
 42
1.0
 72
1
  3

 73
1
 74
1
 75
1
 94
63
  0
MATERIAL
  5
20
102
{ACAD_REACTORS
330
E
102
}
330
E
100
AcDbMaterial
  1
ByLayer
  2

 70
0
 40
1.0
 71
1
 41
1.0
 91
-1023410177
 42
1.0
 72
1
  3

 73
1
 74
1
 75
1
 44
0.5
 73
0
 45
1.0
 46
1.0
 77
1
  4

 78
1
 79
1
170
1
 48
1.0
171
1
  6

172
1
173
1
174
1
140
1.0
141
1.0
175
1
  7

176
1
177
1
178
1
143
1.0
179
1
  8

270
1
271
1
272
1
145
1.0
146
1.0
273
1
  9

274
1
275
1
276
1
 42
1.0
 72
1
  3

 73
1
 74
1
 75
1
 94
63
  0
MATERIAL
  5
21
102
{ACAD_REACTORS
330
E
102
}
330
E
100
AcDbMaterial
  1
Global
  2

 70
0
 40
1.0
 71
1
 41
1.0
 91
-1023410177
 42
1.0
 72
1
  3

 73
1
 74
1
 75
1
 44
0.5
 73
0
 45
1.0
 46
1.0
 77
1
  4

 78
1
 79
1
170
1
 48
1.0
171
1
  6

172
1
173
1
174
1
140
1.0
141
1.0
175
1
  7

176
1
177
1
178
1
143
1.0
179
1
  8

270
1
271
1
272
1
145
1.0
146
1.0
273
1
  9

274
1
275
1
276
1
 42
1.0
 72
1
  3

 73
1
 74
1
 75
1
 94
63
  0
MLINESTYLE
  5
22
102
{ACAD_REACTORS
330
10
102
}
330
10
100
AcDbMlineStyle
  2
Standard
 70
0
  3

 62
256
 51
90.0
 52
90.0
 71
2
 49
0.5
 62
256
  6
BYLAYER
 49
-0.5
 62
256
  6
BYLAYER
  0
MLEADERSTYLE
  5
2C
102
{ACAD_REACTORS
330
F
102
}
330
F
100
AcDbMLeaderStyle
179
2
170
2
171
1
172
0
 90
2
 40
0.0
 41
0.0
173
1
 91
-1056964608
 92
-2
290
1
 42
2.0
291
1
 43
8.0
  3
Standard
 44
4.0
300

342
29
174
1
175
1
176
0
178
1
 93
-1056964608
 45
4.0
292
0
297
0
 46
4.0
 94
-1056964608
 47
1.0
 49
1.0
140
1.0
294
1
141
0.0
177
0
142
1.0
295
0
296
0
143
3.75
271
0
272
9
273
9
  0
DICTIONARY
  5
2D
330
A
100
AcDbDictionary
280
1
281
1
  3
CREATED_BY_EZDXF
350
2E
  3
WRITTEN_BY_EZDXF
350
5A
  0
DICTIONARYVAR
  5
2E
330
2D
100
DictionaryVariables
280
0
  1
1.4.4 @ 2026-07-24T15:40:52.265516+00:00
  0
DICTIONARYVAR
  5
5A
330
2D
100
DictionaryVariables
280
0
  1
1.4.4 @ 2026-07-24T15:40:52.269674+00:00
  0
ENDSEC
  0
EOF
