  0
SECTION
  2
HEADER
  9
$ACADVER
  1
AC1027
  9
$ACADMAINTVER
 70
105
  9
$DWGCODEPAGE
  3
ANSI_1252
  9
$LASTSAVEDBY
  1
ezdxf
  9
$REQUIREDVERSIONS
160
0
  9
$INSBASE
 10
0.0
 20
0.0
 30
0.0
  9
$EXTMIN
 10
1e+20
 20
1e+20
 30
1e+20
  9
$EXTMAX
 10
-1e+20
 20
-1e+20
 30
-1e+20
  9
$LIMMIN
 10
0.0
 20
0.0
  9
$LIMMAX
 10
420.0
 20
297.0
  9
$ORTHOMODE
 70
0
  9
$REGENMODE
 70
1
  9
$FILLMODE
 70
1
  9
$QTEXTMODE
 70
0
  9
$MIRRTEXT
 70
1
  9
$LTSCALE
 40
1.0
  9
$ATTMODE
 70
1
  9
$TEXTSIZE
 40
2.5
  9
$TRACEWID
 40
1.0
  9
$TEXTSTYLE
  7
Standard
  9
$CLAYER
  8
0
  9
$CELTYPE
  6
ByLayer
  9
$CECOLOR
 62
256
  9
$CELTSCALE
 40
1.0
  9
$DISPSILH
 70
0
  9
$DIMSCALE
 40
1.0
  9
$DIMASZ
 40
2.5
  9
$DIMEXO
 40
0.625
  9
$DIMDLI
 40
3.75
  9
$DIMRND
 40
0.0
  9
$DIMDLE
 40
0.0
  9
$DIMEXE
 40
1.25
  9
$DIMTP
 40
0.0
  9
$DIMTM
 40
0.0
  9
$DIMTXT
 40
2.5
  9
$DIMCEN
 40
2.5
  9
$DIMTSZ
 40
0.0
  9
$DIMTOL
 70
0
  9
$DIMLIM
 70
0
  9
$DIMTIH
 70
0
  9
$DIMTOH
 70
0
  9
$DIMSE1
 70
0
  9
$DIMSE2
 70
0
  9
$DIMTAD
 70
1
  9
$DIMZIN
 70
8
  9
$DIMBLK
  1

  9
$DIMASO
 70
1
  9
$DIMSHO
 70
1
  9
$DIMPOST
  1

  9
$DIMAPOST
  1

  9
$DIMALT
 70
0
  9
$DIMALTD
 70
3
  9
$DIMALTF
 40
0.03937007874
  9
$DIMLFAC
 40
1.0
  9
$DIMTOFL
 70
1
  9
$DIMTVP
 40
0.0
  9
$DIMTIX
 70
0
  9
$DIMSOXD
 70
0
  9
$DIMSAH
 70
0
  9
$DIMBLK1
  1

  9
$DIMBLK2
  1

  9
$DIMSTYLE
  2
ISO-25
  9
$DIMCLRD
 70
0
  9
$DIMCLRE
 70
0
  9
$DIMCLRT
 70
0
  9
$DIMTFAC
 40
1.0
  9
$DIMGAP
 40
0.625
  9
$DIMJUST
 70
0
  9
$DIMSD1
 70
0
  9
$DIMSD2
 70
0
  9
$DIMTOLJ
 70
0
  9
$DIMTZIN
 70
8
  9
$DIMALTZ
 70
0
  9
$DIMALTTZ
 70
0
  9
$DIMUPT
 70
0
  9
$DIMDEC
 70
2
  9
$DIMTDEC
 70
2
  9
$DIMALTU
 70
2
  9
$DIMALTTD
 70
3
  9
$DIMTXSTY
  7
Standard
  9
$DIMAUNIT
 70
0
  9
$DIMADEC
 70
0
  9
$DIMALTRND
 40
0.0
  9
$DIMAZIN
 70
0
  9
$DIMDSEP
 70
44
  9
$DIMATFIT
 70
3
  9
$DIMFRAC
 70
0
  9
$DIMLDRBLK
  1

  9
$DIMLUNIT
 70
2
  9
$DIMLWD
 70
-2
  9
$DIMLWE
 70
-2
  9
$DIMTMOVE
 70
0
  9
$DIMFXL
 40
1.0
  9
$DIMFXLON
 70
0
  9
$DIMJOGANG
 40
0.785398163397
  9
$DIMTFILL
 70
0
  9
$DIMTFILLCLR
 70
0
  9
$DIMARCSYM
 70
0
  9
$DIMLTYPE
  6

  9
$DIMLTEX1
  6

  9
$DIMLTEX2
  6

  9
$DIMTXTDIRECTION
 70
0
  9
$LUNITS
 70
2
  9
$LUPREC
 70
4
  9
$SKETCHINC
 40
1.0
  9
$FILLETRAD
 40
10.0
  9
$AUNITS
 70
0
  9
$AUPREC
 70
2
  9
$MENU
  1
.
  9
$ELEVATION
 40
0.0
  9
$PELEVATION
 40
0.0
  9
$THICKNESS
 40
0.0
  9
$LIMCHECK
 70
0
  9
$CHAMFERA
 40
0.0
  9
$CHAMFERB
 40
0.0
  9
$CHAMFERC
 40
0.0
  9
$CHAMFERD
 40
0.0
  9
$SKPOLY
 70
0
  9
$TDCREATE
 40
2461236.492962963
  9
$TDUCREATE
 40
2458532.153996898
  9
$TDUPDATE
 40
2461236.492962963
  9
$TDUUPDATE
 40
2458532.1544311
  9
$TDINDWG
 40
0.0
  9
$TDUSRTIMER
 40
0.0
  9
$USRTIMER
 70
1
  9
$ANGBASE
 50
0.0
  9
$ANGDIR
 70
0
  9
$PDMODE
 70
0
  9
$PDSIZE
 40
0.0
  9
$PLINEWID
 40
0.0
  9
$SPLFRAME
 70
0
  9
$SPLINETYPE
 70
6
  9
$SPLINESEGS
 70
8
  9
$HANDSEED
  5
41
  9
$SURFTAB1
 70
6
  9
$SURFTAB2
 70
6
  9
$SURFTYPE
 70
6
  9
$SURFU
 70
6
  9
$SURFV
 70
6
  9
$UCSBASE
  2

  9
$UCSNAME
  2

  9
$UCSORG
 10
0.0
 20
0.0
 30
0.0
  9
$UCSXDIR
 10
1.0
 20
0.0
 30
0.0
  9
$UCSYDIR
 10
0.0
 20
1.0
 30
0.0
  9
$UCSORTHOREF
  2

  9
$UCSORTHOVIEW
 70
0
  9
$UCSORGTOP
 10
0.0
 20
0.0
 30
0.0
  9
$UCSORGBOTTOM
 10
0.0
 20
0.0
 30
0.0
  9
$UCSORGLEFT
 10
0.0
 20
0.0
 30
0.0
  9
$UCSORGRIGHT
 10
0.0
 20
0.0
 30
0.0
  9
$UCSORGFRONT
 10
0.0
 20
0.0
 30
0.0
  9
$UCSORGBACK
 10
0.0
 20
0.0
 30
0.0
  9
$PUCSBASE
  2

  9
$PUCSNAME
  2

  9
$PUCSORG
 10
0.0
 20
0.0
 30
0.0
  9
$PUCSXDIR
 10
1.0
 20
0.0
 30
0.0
  9
$PUCSYDIR
 10
0.0
 20
1.0
 30
0.0
  9
$PUCSORTHOREF
  2

  9
$PUCSORTHOVIEW
 70
0
  9
$PUCSORGTOP
 10
0.0
 20
0.0
 30
0.0
  9
$PUCSORGBOTTOM
 10
0.0
 20
0.0
 30
0.0
  9
$PUCSORGLEFT
 10
0.0
 20
0.0
 30
0.0
  9
$PUCSORGRIGHT
 10
0.0
 20
0.0
 30
0.0
  9
$PUCSORGFRONT
 10
0.0
 20
0.0
 30
0.0
  9
$PUCSORGBACK
 10
0.0
 20
0.0
 30
0.0
  9
$USERI1
 70
0
  9
$USERI2
 70
0
  9
$USERI3
 70
0
  9
$USERI4
 70
0
  9
$USERI5
 70
0
  9
$USERR1
 40
0.0
  9
$USERR2
 40
0.0
  9
$USERR3
 40
0.0
  9
$USERR4
 40
0.0
  9
$USERR5
 40
0.0
  9
$WORLDVIEW
 70
1
  9
$SHADEDGE
 70
3
  9
$SHADEDIF
 70
70
  9
$TILEMODE
 70
1
  9
$MAXACTVP
 70
64
  9
$PINSBASE
 10
0.0
 20
0.0
 30
0.0
  9
$PLIMCHECK
 70
0
  9
$PEXTMIN
 10
1e+20
 20
1e+20
 30
1e+20
  9
$PEXTMAX
 10
-1e+20
 20
-1e+20
 30
-1e+20
  9
$PLIMMIN
 10
0.0
 20
0.0
  9
$PLIMMAX
 10
420.0
 20
297.0
  9
$UNITMODE
 70
0
  9
$VISRETAIN
 70
1
  9
$PLINEGEN
 70
0
  9
$PSLTSCALE
 70
1
  9
$TREEDEPTH
 70
3020
  9
$CMLSTYLE
  2
Standard
  9
$CMLJUST
 70
0
  9
$CMLSCALE
 40
20.0
  9
$PROXYGRAPHICS
 70
1
  9
$MEASUREMENT
 70
1
  9
$CELWEIGHT
370
-1
  9
$ENDCAPS
280
0
  9
$JOINSTYLE
280
0
  9
$LWDISPLAY
290
0
  9
$INSUNITS
 70
4
  9
$HYPERLINKBASE
  1

  9
$STYLESHEET
  1

  9
$XEDIT
290
1
  9
$CEPSNTYPE
380
0
  9
$PSTYLEMODE
290
1
  9
$FINGERPRINTGUID
  2
{FE3D8701-A4FB-41CC-ACD3-954984F791FC}
  9
$VERSIONGUID
  2
{031C958B-8499-4878-A870-350720A8A9C8}
  9
$EXTNAMES
290
1
  9
$PSVPSCALE
 40
0.0
  9
$OLESTARTUP
290
0
  9
$SORTENTS
280
127
  9
$INDEXCTL
280
0
  9
$HIDETEXT
280
1
  9
$XCLIPFRAME
280
1
  9
$HALOGAP
280
0
  9
$OBSCOLOR
 70
257
  9
$OBSLTYPE
280
0
  9
$INTERSECTIONDISPLAY
280
0
  9
$INTERSECTIONCOLOR
 70
257
  9
$DIMASSOC
280
2
  9
$PROJECTNAME
  1

  9
$CAMERADISPLAY
290
0
  9
$LENSLENGTH
 40
50.0
  9
$CAMERAHEIGHT
 40
0.0
  9
$STEPSPERSEC
 40
24.0
  9
$STEPSIZE
 40
100.0
  9
$3DDWFPREC
 40
2.0
  9
$PSOLWIDTH
 40
0.005
  9
$PSOLHEIGHT
 40
0.08
  9
$LOFTANG1
 40
1.570796326795
  9
$LOFTANG2
 40
1.570796326795
  9
$LOFTMAG1
 40
0.0
  9
$LOFTMAG2
 40
0.0
  9
$LOFTPARAM
 70
7
  9
$LOFTNORMALS
280
1
  9
$LATITUDE
 40
37.795
  9
$LONGITUDE
 40
-122.394
  9
$NORTHDIRECTION
 40
0.0
  9
$TIMEZONE
 70
-8000
  9
$LIGHTGLYPHDISPLAY
280
1
  9
$TILEMODELIGHTSYNCH
280
1
  9
$CMATERIAL
347
20
  9
$SOLIDHIST
280
0
  9
$SHOWHIST
280
1
  9
$DWFFRAME
280
2
  9
$DGNFRAME
280
2
  9
$REALWORLDSCALE
290
1
  9
$INTERFERECOLOR
 62
256
  9
$CSHADOW
280
0
  9
$SHADOWPLANELOCATION
 40
0.0
  0
ENDSEC
  0
SECTION
  2
CLASSES
  0
CLASS
  1
ACDBDICTIONARYWDFLT
  2
AcDbDictionaryWithDefault
  3
ObjectDBX Classes
 90
0
 91
0
280
0
281
0
  0
CLASS
  1
SUN
  2
AcDbSun
  3
SCENEOE
 90
1153
 91
0
280
0
281
0
  0
CLASS
  1
VISUALSTYLE
  2
AcDbVisualStyle
  3
ObjectDBX Classes
 90
4095
 91
0
280
0
281
0
  0
CLASS
  1
MATERIAL
  2
AcDbMaterial
  3
ObjectDBX Classes
 90
1153
 91
0
280
0
281
0
  0
CLASS
  1
SCALE
  2
AcDbScale
  3
ObjectDBX Classes
 90
1153
 91
0
280
0
281
0
  0
CLASS
  1
TABLESTYLE
  2
AcDbTableStyle
  3
ObjectDBX Classes
 90
4095
 91
0
280
0
281
0
  0
CLASS
  1
MLEADERSTYLE
  2
AcDbMLeaderStyle
  3
ACDB_MLEADERSTYLE_CLASS
 90
4095
 91
0
280
0
281
0
  0
CLASS
  1
DICTIONARYVAR
  2
AcDbDictionaryVar
  3
ObjectDBX Classes
 90
0
 91
0
280
0
281
0
  0
CLASS
  1
CELLSTYLEMAP
  2
AcDbCellStyleMap
  3
ObjectDBX Classes
 90
1152
 91
0
280
0
281
0
  0
CLASS
  1
MENTALRAYRENDERSETTINGS
  2
AcDbMentalRayRenderSettings
  3
SCENEOE
 90
1024
 91
0
280
0
281
0
  0
CLASS
  1
ACDBDETAILVIEWSTYLE
  2
AcDbDetailViewStyle
  3
ObjectDBX Classes
 90
1025
 91
0
280
0
281
0
  0
CLASS
  1
ACDBSECTIONVIEWSTYLE
  2
AcDbSectionViewStyle
  3
ObjectDBX Classes
 90
1025
 91
0
280
0
281
0
  0
CLASS
  1
RASTERVARIABLES
  2
AcDbRasterVariables
  3
ISM
 90
0
 91
0
280
0
281
0
  0
CLASS
  1
LAYOUT
  2
AcDbLayout
  3
ObjectDBX Classes
 90
0
 91
0
280
0
281
0
  0
CLASS
  1
ACDBPLACEHOLDER
  2
AcDbPlaceHolder
  3
ObjectDBX Classes
 90
0
 91
0
280
0
281
0
  0
ENDSEC
  0
SECTION
  2
TABLES
  0
TABLE
  2
VPORT
  5
8
330
0
100
AcDbSymbolTable
 70
1
  0
VPORT
  5
23
330
8
100
AcDbSymbolTableRecord
100
AcDbViewportTableRecord
  2
*Active
 70
0
 10
0.0
 20
0.0
 11
1.0
 21
1.0
 12
0.0
 22
0.0
 13
0.0
 23
0.0
 14
0.5
 24
0.5
 15
0.5
 25
0.5
 16
0.0
 26
0.0
 36
1.0
 17
0.0
 27
0.0
 37
0.0
 40
1000.0
 41
1.34
 42
50.0
 43
0.0
 44
0.0
 50
0.0
 51
0.0
 71
0
 72
1000
 73
1
 74
3
 75
0
 76
0
 77
0
 78
0
281
0
 65
0
146
0.0
  0
ENDTAB
  0
TABLE
  2
LTYPE
  5
2
330
0
100
AcDbSymbolTable
 70
3
  0
LTYPE
  5
24
330
2
100
AcDbSymbolTableRecord
100
AcDbLinetypeTableRecord
  2
ByBlock
 70
0
  3

 72
65
 73
0
 40
0.0
  0
LTYPE
  5
25
330
2
100
AcDbSymbolTableRecord
100
AcDbLinetypeTableRecord
  2
ByLayer
 70
0
  3

 72
65
 73
0
 40
0.0
  0
LTYPE
  5
26
330
2
100
AcDbSymbolTableRecord
100
AcDbLinetypeTableRecord
  2
Continuous
 70
0
  3

 72
65
 73
0
 40
0.0
  0
ENDTAB
  0
TABLE
  2
LAYER
  5
1
330
0
100
AcDbSymbolTable
 70
3
  0
LAYER
  5
27
330
1
100
AcDbSymbolTableRecord
100
AcDbLayerTableRecord
  2
0
 70
0
 62
7
  6
Continuous
370
-3
390
13
347
21
  0
LAYER
  5
28
330
1
100
AcDbSymbolTableRecord
100
AcDbLayerTableRecord
  2
Defpoints
 70
0
 62
7
  6
Continuous
290
0
370
-3
390
13
347
21
  0
LAYER
  5
2F
330
1
100
AcDbSymbolTableRecord
100
AcDbLayerTableRecord
  2
C
 70
0
 62
7
  6
Continuous
370
-3
390
13
347
21
  0
ENDTAB
  0
TABLE
  2
STYLE
  5
5
330
0
100
AcDbSymbolTable
 70
1
  0
STYLE
  5
29
330
5
100
AcDbSymbolTableRecord
100
AcDbTextStyleTableRecord
  2
Standard
 70
0
 40
0.0
 41
1.0
 50
0.0
 71
0
 42
2.5
  3
txt
  4

  0
ENDTAB
  0
TABLE
  2
VIEW
  5
7
330
0
100
AcDbSymbolTable
 70
0
  0
ENDTAB
  0
TABLE
  2
UCS
  5
6
330
0
100
AcDbSymbolTable
 70
0
  0
ENDTAB
  0
TABLE
  2
APPID
  5
3
330
0
100
AcDbSymbolTable
 70
3
  0
APPID
  5
2A
330
3
100
AcDbSymbolTableRecord
100
AcDbRegAppTableRecord
  2
ACAD
 70
0
  0
APPID
  5
3E
330
3
100
AcDbSymbolTableRecord
100
AcDbRegAppTableRecord
  2
HATCHBACKGROUNDCOLOR
 70
0
  0
APPID
  5
3F
330
3
100
AcDbSymbolTableRecord
100
AcDbRegAppTableRecord
  2
EZDXF
 70
0
  0
ENDTAB
  0
TABLE
  2
DIMSTYLE
  5
4
330
0
100
AcDbSymbolTable
 70
1
100
AcDbDimStyleTable
  0
DIMSTYLE
105
2B
330
4
100
AcDbSymbolTableRecord
100
AcDbDimStyleTableRecord
  2
Standard
 70
0
 40
1.0
 41
2.5
 42
0.625
 43
3.75
 44
1.25
 45
0.0
 46
0.0
 47
0.0
 48
0.0
 49
2.5
140
2.5
141
2.5
142
0.0
143
0.03937007874
144
1.0
145
0.0
146
1.0
147
0.625
148
0.0
 69
0
 70
0
 71
0
 72
0
 73
0
 74
0
 75
0
 76
0
 77
1
 78
8
 79
3
170
0
171
3
172
1
173
0
174
0
175
0
176
0
177
0
178
0
179
2
271
2
272
2
273
2
274
3
275
0
276
0
277
2
278
44
279
0
280
0
281
0
282
0
283
0
284
8
285
0
286
0
288
0
289
3
290
0
371
-2
372
-2
  0
ENDTAB
  0
TABLE
  2
BLOCK_RECORD
  5
9
330
0
100
AcDbSymbolTable
 70
2
  0
BLOCK_RECORD
  5
17
330
9
100
AcDbSymbolTableRecord
100
AcDbBlockTableRecord
  2
*Model_Space
340
1A
 70
0
280
1
281
0
  0
BLOCK_RECORD
  5
1B
330
9
100
AcDbSymbolTableRecord
100
AcDbBlockTableRecord
  2
*Paper_Space
340
1E
 70
0
280
1
281
0
  0
ENDTAB
  0
ENDSEC
  0
SECTION
  2
BLOCKS
  0
BLOCK
  5
18
330
17
100
AcDbEntity
  8
0
100
AcDbBlockBegin
  2
*Model_Space
 70
0
 10
0.0
 20
0.0
 30
0.0
  3
*Model_Space
  1

  0
ENDBLK
  5
19
330
17
100
AcDbEntity
  8
0
100
AcDbBlockEnd
  0
BLOCK
  5
1C
330
1B
100
AcDbEntity
  8
0
100
AcDbBlockBegin
  2
*Paper_Space
 70
0
 10
0.0
 20
0.0
 30
0.0
  3
*Paper_Space
  1

  0
ENDBLK
  5
1D
330
1B
100
AcDbEntity
  8
0
100
AcDbBlockEnd
  0
ENDSEC
  0
SECTION
  2
ENTITIES
  0
LWPOLYLINE
  5
30
330
17
100
AcDbEntity
  8
C
100
AcDbPolyline
 90
33
 70
1
 10
168.45812460154886
 20
69.82572280100707
 10
166.660441925036
 20
72.63181823960663
 10
166.660441925036
 20
80.84610395389235
 10
163.15220317559215
 20
86.32229443008276
 10
163.15220317559215
 20
91.79848490627329
 10
161.39808380087024
 20
94.5365801443685
 10
161.39808380087024
 20
105.48896109674943
 10
157.8898450514264
 20
110.96515157293996
 10
157.8898450514264
 20
119.17943728722568
 10
156.13572567670448
 20
121.9175325253209
 10
156.13572567670448
 20
127.45888910385794
 10
164.0851612548414
 20
137.11008718649475
 10
199.25738039928387
 20
134.36498080603798
 10
204.52832066187
 20
128.87985946205515
 10
213.3091653452261
 20
126.1385649571971
 10
216.81740409466994
 20
120.66237448100658
 10
225.577753158533
 20
117.92747850967422
 10
230.82839162518476
 20
112.46348391132943
 10
237.84179274760754
 20
112.46348391132943
 10
246.61238962121712
 20
104.2491981970437
 10
250.1358095474278
 20
104.2491981970437
 10
252.81229128641007
 20
100.07134005924279
 10
252.81229128641007
 20
86.32229443008276
 10
250.1358095474278
 20
82.14443629228174
 10
246.6275707979839
 20
82.14443629228174
 10
244.873451423262
 20
79.40634105418654
 10
236.10285454965242
 20
79.40634105418654
 10
232.59461580020857
 20
73.93015057799613
 10
227.33225767604281
 20
73.93015057799613
 10
225.5781383013209
 20
71.1920553399008
 10
197.5122283057702
 20
71.1920553399008
 10
195.7563210125186
 20
68.45116924772654
 10
168.45812460154886
 20
69.82572280100707
  0
LWPOLYLINE
  5
31
330
17
100
AcDbEntity
  8
C
100
AcDbPolyline
 90
37
 70
1
 10
171.9542624721894
 20
625.6622135537821
 10
168.4171385294087
 20
633.9441318461011
 10
166.66330681344564
 20
647.632362929747
 10
161.39808380087024
 20
658.5907064845409
 10
161.39808380087024
 20
664.0678812278037
 10
152.62748692726063
 20
683.2345478944703
 10
152.62748692726063
 20
688.703246811035
 10
149.10048736450892
 20
694.2087220065674
 10
150.87600678657108
 20
696.9802216802796
 10
152.63012616129302
 20
716.1468883469461
 10
156.13836491073684
 20
721.6230788231364
 10
157.89248428545878
 20
740.7897454898033
 10
161.39808380087024
 20
746.2618162497189
 10
161.39808380087024
 20
757.2141972021
 10
164.06880433696685
 20
761.3830623817165
 10
179.96470405623944
 20
764.1400321849628
 10
181.72515393327288
 20
761.3920553399008
 10
190.49575080688246
 20
761.3920553399008
 10
193.16192391213832
 20
757.2302884791956
 10
198.43225037990698
 20
743.5190819591221
 10
200.18618381786507
 20
729.830056959981
 10
213.32677878133444
 20
698.3785824740594
 10
234.34402636144003
 20
681.9751305920918
 10
241.38801162011387
 20
679.2263007843934
 10
244.0531878643497
 20
672.2926161026962
 10
237.80227660127372
 20
662.5352469009007
 10
236.0323758418109
 20
665.2979761148998
 10
220.30367537685325
 20
648.9301505779961
 10
216.8075414277113
 20
648.9301505779961
 10
213.24460535516687
 20
643.3685802342341
 10
211.49048598044496
 20
646.1066754723292
 10
208.04890341428433
 20
640.734532064239
 10
201.03242591539666
 20
637.9964368261438
 10
195.75810893104827
 20
629.7634839113294
 10
192.2377653813026
 20
629.7634839113294
 10
186.9715823446756
 20
624.2833130999549
 10
171.9542624721894
 20
625.6622135537821
  0
LWPOLYLINE
  5
32
330
17
100
AcDbEntity
  8
C
100
AcDbPolyline
 90
20
 70
1
 10
159.68824354446
 20
182.08651020805266
 10
157.8898450514264
 20
184.8937230015114
 10
157.8898450514264
 20
195.90467339257611
 10
161.39808380087024
 20
201.3808638687665
 10
161.39808380087024
 20
220.5436063960806
 10
171.06426882537235
 20
238.37540602769846
 10
176.3526353975712
 20
243.87866178756167
 10
192.23686132439977
 20
249.38855201102794
 10
194.00398955632636
 20
246.6301505779961
 10
197.5122283057702
 20
246.6301505779961
 10
201.02046705521403
 20
241.15396010180555
 10
204.50841310763875
 20
241.15396010180555
 10
211.56547600056476
 20
235.64609371012324
 10
214.23441245885994
 20
231.48001338939517
 10
210.71342629308398
 20
223.2358805274809
 10
210.71342629308398
 20
198.58419919198755
 10
208.95930691836207
 20
195.84610395389234
 10
208.95930691836207
 20
184.8937230015114
 10
206.2817850016087
 20
180.7142411966768
 10
159.68824354446
 20
182.08651020805266
  0
LWPOLYLINE
  5
33
330
17
100
AcDbEntity
  8
C
100
AcDbPolyline
 90
23
 70
1
 10
195.66543171558808
 20
821.4352448632382
 10
179.85587870946418
 20
824.1772387742756
 10
178.10752053762795
 20
826.9063410541864
 10
169.36296547228514
 20
826.9063410541864
 10
160.59236859867553
 20
832.3825315303769
 10
151.79572991679913
 20
832.3825315303769
 10
149.1192481778168
 20
836.5603896681778
 10
149.1192481778168
 20
842.0365801443685
 10
145.61100942837297
 20
847.5127706205589
 10
145.61100942837297
 20
853.0475305354331
 10
153.52563969091742
 20
865.4018843755719
 10
164.14504424769393
 20
876.4528012315683
 10
165.89082693420016
 20
873.7277191593008
 10
176.35258606827963
 20
887.3363011824327
 10
192.24353967929287
 20
890.0924131373439
 10
194.0039895563263
 20
887.3444362922817
 10
197.40283365956907
 20
887.3444362922817
 10
199.15695303429098
 20
890.082531530377
 10
208.03694455410167
 20
890.082531530377
 10
210.71342629308398
 20
885.9046733925761
 10
210.71342629308398
 20
817.3937230015113
 10
208.01142589331266
 20
813.1760314723257
 10
195.66543171558808
 20
821.4352448632382
  0
LWPOLYLINE
  5
34
330
17
100
AcDbEntity
  8
C
100
AcDbPolyline
 90
43
 70
1
 10
19.353955922408296
 20
639.355810202847
 10
17.560295073672794
 20
642.1556277634161
 10
17.560295073672794
 20
647.6349868235906
 10
5.281459450619364
 20
669.5397487283524
 10
5.281459450619364
 20
675.0192779131122
 10
0.0
 20
686.0114138572819
 10
6.213879708849013
 20
692.9396743875197
 10
11.474780107400356
 20
692.9396743875197
 10
18.491257606288002
 20
701.1539601018055
 10
21.990896187376986
 20
701.1539601018055
 10
28.085011322004362
 20
710.6665781544808
 10
28.085011322004362
 20
727.0365801443683
 10
24.57677257256052
 20
732.5127706205589
 10
24.57677257256052
 20
759.8937230015111
 10
22.811159746289334
 20
762.649758959839
 10
25.48513731955171
 20
769.6063410541866
 10
29.11676833246585
 20
769.6063410541866
 10
30.870887707187766
 20
766.8682458160913
 10
39.64148458079736
 20
766.8682458160913
 10
41.39560395551928
 20
764.1301505779959
 10
51.92032020385079
 20
764.1301505779959
 10
53.67443957857271
 20
761.3920553399008
 10
64.19915582690422
 20
761.3920553399008
 10
65.95327520162614
 20
758.6539601018055
 10
74.71381418126643
 20
758.6539601018055
 10
80.89532913746051
 20
751.761785149161
 10
83.52558915697101
 20
744.9189380220325
 10
98.44778100767331
 20
729.8471149412708
 10
100.20555631008943
 20
694.1776894112395
 10
87.92273449500127
 20
677.7437846234978
 10
86.16889023513468
 20
653.1047924491116
 10
81.74034957412346
 20
646.1920553399008
 10
69.46151395107003
 20
646.1920553399008
 10
67.70739457634811
 20
643.4539601018056
 10
57.1826783280166
 20
643.4539601018056
 10
55.42855895329468
 20
640.7158648637103
 10
41.395603955519334
 20
640.7158648637103
 10
39.64148458079742
 20
637.9777696256151
 10
36.02385118515239
 20
637.9777696256151
 10
34.26973181043047
 20
640.7158648637103
 10
29.116768332465902
 20
640.7158648637103
 10
27.356318455432515
 20
637.9678880186483
 10
19.353955922408296
 20
639.355810202847
  0
LWPOLYLINE
  5
35
330
17
100
AcDbEntity
  8
C
100
AcDbPolyline
 90
38
 70
1
 10
853.336418825769
 20
12.300128702603441
 10
846.3617078846638
 20
31.57213557600569
 10
846.3617078846638
 20
37.04197686875299
 10
839.4251205026296
 20
50.73245305922924
 10
839.4251205026296
 20
56.213035005745816
 10
833.8758505970025
 20
69.90351119622207
 10
833.8758505970025
 20
75.42308619200111
 10
840.1914996856376
 20
87.88804031328922
 10
842.9826559139154
 20
85.13364137166346
 10
855.4296692773153
 20
101.51110295894838
 10
876.3504697698455
 20
101.51110295894838
 10
877.7377872462525
 20
98.77300772085317
 10
887.326137296229
 20
98.77300772085317
 10
888.7134547726359
 20
101.51110295894838
 10
905.4841367743885
 20
101.51110295894838
 10
906.8714542507955
 20
98.77300772085317
 10
923.3963916828062
 20
98.77300772085317
 10
924.7837091592129
 20
101.51110295894838
 10
931.7202965412469
 20
101.51110295894838
 10
933.1018737834228
 20
104.23786891713449
 10
946.999195023946
 20
106.98072985257889
 10
954.0127764268603
 20
112.51770438592123
 10
956.1597885208016
 20
108.28022904914403
 10
956.1597885208016
 20
20.613405440181644
 10
954.0365139153116
 20
16.42277987297669
 10
930.3405726729518
 20
19.173825134204627
 10
926.1828605740624
 20
24.644436292281746
 10
912.2978518715515
 20
24.644436292281746
 10
910.9105343951449
 20
27.382531530377065
 10
898.5475493923545
 20
27.382531530377065
 10
897.1602319159479
 20
24.644436292281746
 10
894.2627246782632
 20
24.644436292281746
 10
892.8754072018564
 20
27.382531530377065
 10
888.8096068488193
 20
27.382531530377065
 10
881.8730194667853
 20
21.90634105418654
 10
877.7377872462525
 20
21.90634105418654
 10
876.3588276752168
 20
19.184741493026515
 10
853.336418825769
 20
12.300128702603441
  0
LWPOLYLINE
  5
36
330
17
100
AcDbEntity
  8
C
100
AcDbPolyline
 90
76
 70
1
 10
933.1036936247286
 20
547.6283642974678
 10
931.7202965412469
 20
550.3587220065674
 10
922.0090742063992
 20
550.3587220065674
 10
919.2344392535857
 20
555.834912482758
 10
909.5232169187381
 20
555.834912482758
 10
908.1317131323715
 20
558.5812700800901
 10
888.7092684626762
 20
561.3193653181855
 10
885.2065972240542
 20
568.2324530592291
 10
885.2065972240542
 20
573.7086435354195
 10
882.4319622712408
 20
579.1848340116101
 10
882.4319622712408
 20
584.6665527257674
 10
869.9461049835794
 20
617.5236955829102
 10
869.9461049835794
 20
622.9983396452438
 10
863.7320893720191
 20
637.9881179038057
 10
847.0890879870939
 20
640.7254223068868
 10
845.7066130040248
 20
643.4539601018056
 10
836.0051573153561
 20
643.4539601018056
 10
831.101215644189
 20
650.3673325253453
 10
831.101215644189
 20
661.3754671443821
 10
833.8758505970025
 20
666.8516576205725
 10
833.8758505970025
 20
694.2326100015249
 10
840.1914996856376
 20
706.697564122813
 10
842.986734853484
 20
703.939139957978
 10
849.8835614359789
 20
712.1063410541865
 10
852.7660726709299
 20
712.1063410541865
 10
854.1192335600967
 20
709.4356593609083
 10
862.3919841182036
 20
717.5994644359262
 10
876.25895913269
 20
712.1257212012783
 10
883.2064611911109
 20
720.3529320421978
 10
887.3749311711462
 20
717.6105489908336
 10
895.7387578523012
 20
725.8642307894795
 10
897.132759894181
 20
723.1129424811589
 10
904.0006672217983
 20
728.5349124827579
 10
908.1477333807738
 20
728.5349124827579
 10
912.329575913971
 20
734.0372738486499
 10
917.8826378731352
 20
731.2973075529367
 10
924.8661278382823
 20
739.5671351637213
 10
926.2324627780553
 20
736.8704523525705
 10
927.5583441120266
 20
739.4872934351388
 10
931.7321304796899
 20
739.4872934351388
 10
935.9607059167671
 20
745.0511447597715
 10
937.348023393174
 20
742.3130495216762
 10
941.4433528145375
 20
747.7015791494247
 10
945.593471305315
 20
747.7015791494247
 10
947.6237802729609
 20
751.7087220065673
 10
944.2061538289082
 20
758.4539601018056
 10
938.656883923281
 20
758.4539601018056
 10
935.8822489704676
 20
763.930150577996
 10
933.1249085634347
 20
763.930150577996
 10
920.6390512757732
 20
777.6206267684723
 10
917.8471217771789
 20
777.6206267684723
 10
915.0597841693054
 20
783.1218879872449
 10
909.5054783284738
 20
785.8624680333305
 10
900.4670894645294
 20
809.1900263662543
 10
900.4670894645294
 20
814.6684794792999
 10
897.7000089896239
 20
822.8604002190874
 10
890.7558671296816
 20
836.5657863925622
 10
890.7558671296816
 20
842.0463683390792
 10
885.2065972240542
 20
855.7368445295554
 10
885.2065972240542
 20
861.26223042065
 10
891.5141815576993
 20
870.9448147726537
 10
897.0690836734962
 20
868.2039405153167
 10
901.2111459987397
 20
873.6539601018055
 10
905.3730984279604
 20
873.6539601018055
 10
909.5350508571805
 20
879.1301505779959
 10
915.084320762808
 20
879.1301505779959
 10
919.2462731920284
 20
884.6063410541866
 10
929.0685338733043
 20
884.6063410541866
 10
930.4558513497111
 20
881.8682458160912
 10
937.3924387317453
 20
881.8682458160912
 10
938.7854964423831
 20
879.1188212980866
 10
952.658671206451
 20
876.3807260599915
 10
956.1597885208016
 20
869.4707052396201
 10
956.1597885208016
 20
549.0657863925625
 10
954.035999274632
 20
544.8741450988072
 10
933.1036936247286
 20
547.6283642974678
  0
LWPOLYLINE
  5
37
330
17
100
AcDbEntity
  8
C
100
AcDbPolyline
 90
53
 70
1
 10
1742.2159911645606
 20
432.6269050425661
 10
1737.2431056627001
 20
438.11143927212714
 10
1729.7815797791388
 20
440.8545143002195
 10
1719.1879196191376
 20
461.4726627192087
 10
1732.344761048641
 20
484.9658831803021
 10
1733.641149673975
 20
482.1063410541865
 10
1738.5798177390934
 20
482.1063410541865
 10
1744.7864679040456
 20
476.63015057799606
 10
1749.7517880360074
 20
476.63015057799606
 10
1755.9584382009596
 20
471.1539601018055
 10
1759.7090803667745
 20
471.1539601018055
 10
1760.9504103997651
 20
468.41586486371034
 10
1764.6744004987368
 20
468.41586486371034
 10
1765.9157305317271
 20
465.67776962561516
 10
1769.6397206306983
 20
465.67776962561516
 10
1770.8165895176508
 20
463.0818611970854
 10
1772.5785845671362
 20
466.96842651519154
 10
1772.5785845671362
 20
510.7347317836577
 10
1770.7521283716128
 20
514.7634839113294
 10
1748.4197206353942
 20
514.7634839113294
 10
1737.2477503384798
 20
531.1920553399008
 10
1734.7535574148894
 20
531.1920553399008
 10
1731.0295673159183
 20
539.4063410541866
 10
1728.5549659310702
 20
539.4063410541866
 10
1723.5707688680625
 20
547.6518554709321
 10
1719.8461091812355
 20
550.3904430291653
 10
1714.236073016585
 20
560.0150383599912
 10
1714.236073016585
 20
562.8017598485249
 10
1716.1980680660704
 20
567.1294802447045
 10
1717.4746391807466
 20
564.3136510958967
 10
1723.6326829582408
 20
569.7469556627791
 10
1733.5557267608826
 20
564.2749542084263
 10
1738.4976936434655
 20
569.7253886732341
 10
1740.9717404374514
 20
569.7253886732341
 10
1744.6820803216121
 20
575.1815062774897
 10
1750.880002004057
 20
577.9157509012027
 10
1753.3735079097462
 20
583.4158648637103
 10
1755.8561679757272
 20
583.4158648637103
 10
1763.3112474450447
 20
599.8600956903699
 10
1799.437779506786
 20
591.6166113426663
 10
1801.3291753259168
 20
587.4446169913821
 10
1801.3291753259168
 20
445.020446069372
 10
1799.3671802764313
 20
440.6927256731924
 10
1798.061389097403
 20
443.5730077208532
 10
1790.6134088994602
 20
443.5730077208532
 10
1789.3720788664696
 20
446.3111029589485
 10
1780.7915447980079
 20
446.3111029589485
 10
1775.826224666046
 20
440.83491248275794
 10
1773.3521778720603
 20
440.83491248275794
 10
1769.6281877730887
 20
435.3587220065676
 10
1765.8955844021223
 20
435.3587220065676
 10
1760.924190355258
 20
429.8758326843697
 10
1742.2159911645606
 20
432.6269050425661
  0
LWPOLYLINE
  5
38
330
17
100
AcDbEntity
  8
C
100
AcDbPolyline
 90
36
 70
1
 10
3705.116808158774
 20
375.13733545177575
 10
3703.712851351804
 20
377.8587220065676
 10
3699.4751210217773
 20
377.8587220065676
 10
3697.317189442214
 20
382.04158999626003
 10
3697.317189442214
 20
543.6377587787796
 10
3699.5089347790345
 20
547.8861703121966
 10
3705.2363912839505
 20
542.3352078295002
 10
3716.5446022706947
 20
539.5952719225247
 10
3720.7737667929437
 20
534.1301505779961
 10
3726.424073899646
 20
534.1301505779961
 10
3730.6703700374496
 20
528.6428909701439
 10
3741.9709842508532
 20
525.9047957320486
 10
3746.2001487731027
 20
520.4396743875199
 10
3750.4497521529943
 20
520.4396743875199
 10
3754.030936402453
 20
513.4980173377261
 10
3746.2165480271683
 20
495.59681724466276
 10
3739.14913793959
 20
495.59681724466276
 10
3735.656762412452
 20
488.82730428197453
 10
3735.656762412452
 20
466.97109211211284
 10
3740.5617147162657
 20
457.4634839113294
 10
3744.7910987579876
 20
457.4634839113294
 10
3750.44140586469
 20
449.24919819704365
 10
3754.6874824830206
 20
449.24919819704365
 10
3758.266449689417
 20
442.3118385951133
 10
3755.432837285909
 20
434.0729583196138
 10
3755.432837285909
 20
414.8987328534031
 10
3753.274905706345
 20
410.71586486371035
 10
3747.6245985996434
 20
410.71586486371035
 10
3745.5447998491804
 20
406.6844471391173
 10
3745.5447998491804
 20
376.5653995200697
 10
3743.3868682696166
 20
372.38253153037704
 10
3739.137264889725
 20
372.38253153037704
 10
3734.8335380870785
 20
366.8210573700729
 10
3733.4378972474387
 20
369.52632451038517
 10
3732.075904874512
 20
366.88628051970807
 10
3705.116808158774
 20
375.13733545177575
  0
LWPOLYLINE
  5
39
330
17
100
AcDbEntity
  8
C
100
AcDbPolyline
 90
66
 70
1
 10
8617.96637276985
 20
599.6525636160762
 10
8616.21543065172
 20
602.382531530377
 10
8609.190811423465
 20
602.382531530377
 10
8607.434656616402
 20
605.1206267684722
 10
8593.392083365998
 20
605.1206267684722
 10
8584.594478169944
 20
616.0940014605272
 10
8579.321065287812
 20
618.8346684835402
 10
8572.285758473901
 20
629.8037129027559
 10
8565.278239382691
 20
637.9980024568399
 10
8560.007390044233
 20
640.7373371700634
 10
8549.476965707714
 20
654.4193621520319
 10
8502.056160112868
 20
668.1111739511852
 10
8497.624862202461
 20
675.0201979496742
 10
8499.38901008257
 20
686.0224282550986
 10
8509.934055907845
 20
710.6842686949675
 10
8516.947347154779
 20
721.6189877125424
 10
8516.947347154779
 20
727.0951781887328
 10
8526.70619859363
 20
742.3106162278614
 10
8528.517016502865
 20
739.4872934351388
 10
8535.54163573112
 20
739.4872934351388
 10
8537.297790538185
 20
736.7491981970436
 10
8544.32240976644
 20
736.7491981970436
 10
8546.078564573505
 20
734.0111029589483
 10
8553.10318380176
 20
734.0111029589483
 10
8554.859338608825
 20
731.273007720853
 10
8561.88395783708
 20
731.273007720853
 10
8563.640112644143
 20
728.5349124827579
 10
8570.644441950555
 20
728.5349124827579
 10
8574.09739404302
 20
725.8430906559709
 10
8581.936402997466
 20
738.0652210759199
 10
8585.437384630273
 20
746.2530138879966
 10
8585.437384630273
 20
751.73803533159
 10
8592.462003858529
 20
762.6904162839711
 10
8592.462003858529
 20
770.9000332807498
 10
8600.456047976611
 20
786.1336305374674
 10
8602.255744056249
 20
783.3276482596804
 10
8607.524208477442
 20
786.0657434977757
 10
8609.300137627808
 20
783.2968172446627
 10
8616.29872108965
 20
783.2968172446627
 10
8625.020001955021
 20
777.8577300955102
 10
8626.752359494105
 20
780.5587220065675
 10
8632.104114353226
 20
780.5587220065675
 10
8640.884888388546
 20
775.082531530377
 10
8653.204007804405
 20
775.082531530377
 10
8657.639731719895
 20
768.1666067601615
 10
8657.639731719895
 20
759.9523210458757
 10
8661.151002592329
 20
754.4777501157937
 10
8662.909570075242
 20
705.1243251407195
 10
8656.648352867809
 20
698.1513761601236
 10
8654.850836407128
 20
700.9539601018056
 10
8647.935543383213
 20
700.9539601018056
 10
8644.423233769086
 20
695.4777696256151
 10
8640.801597950616
 20
695.4777696256151
 10
8639.100106245722
 20
698.1306373090831
 10
8635.642459733766
 20
692.7396743875198
 10
8632.130150119638
 20
692.7396743875198
 10
8629.560055736778
 20
688.732531530377
 10
8636.561310206214
 20
677.816579561707
 10
8638.31746501328
 20
666.8641986093261
 10
8647.10280287751
 20
653.1666067601617
 10
8647.10280287751
 20
644.9523210458759
 10
8652.388114179086
 20
636.7117686478284
 10
8638.32202884219
 20
612.0393614857392
 10
8638.32202884219
 20
601.0841705863066
 10
8635.636785915227
 20
596.8974947637224
 10
8617.96637276985
 20
599.6525636160762
  0
LWPOLYLINE
  5
3A
330
17
100
AcDbEntity
  8
C
100
AcDbPolyline
 90
20
 70
1
 10
9564.420429138985
 20
2.7409534146051184
 10
9558.520230290456
 20
9.671097237828441
 10
9567.736943247059
 20
27.58253153037704
 10
9571.07195753285
 20
27.58253153037704
 10
9572.737075147297
 20
30.32062676847225
 10
9581.083058056827
 20
30.32062676847225
 10
9587.743528514611
 20
35.79681724466277
 10
9592.738881357951
 20
35.79681724466277
 10
9599.399351815735
 20
41.27300772085319
 10
9606.039427436224
 20
41.27300772085319
 10
9607.70454505067
 20
44.01110295894839
 10
9621.137938773192
 20
44.01110295894839
 10
9622.80721696612
 20
41.26616612598089
 10
9644.434560011689
 20
38.53049774057426
 10
9651.089660995929
 20
33.05872200656745
 10
9662.765879134351
 20
33.05872200656745
 10
9665.307329152545
 20
28.879598482617673
 10
9665.307329152545
 20
4.180702673374448
 10
9662.764918806351
 20
0.0
 10
9564.420429138985
 20
2.7409534146051184
  0
LWPOLYLINE
  5
3B
330
17
100
AcDbEntity
  8
C
100
AcDbPolyline
 90
19
 70
1
 10
9646.019618747512
 20
553.1018639875077
 10
9634.36209315005
 20
561.317349372389
 10
9621.01890663552
 20
564.060017152992
 10
9617.695250737348
 20
569.5253886732341
 10
9611.034780279564
 20
569.5253886732341
 10
9606.814413811544
 20
576.4652980399023
 10
9613.491435995826
 20
590.1897960039084
 10
9615.158742759204
 20
603.8982712180396
 10
9619.436350864704
 20
608.1186932287684
 10
9621.137938773192
 20
605.3206267684722
 10
9629.463526845424
 20
605.3206267684722
 10
9631.128644459868
 20
602.582531530377
 10
9642.784467760994
 20
602.582531530377
 10
9644.44958537544
 20
599.8444362922818
 10
9662.765879134351
 20
599.8444362922818
 10
9665.307329152545
 20
595.665312768332
 10
9665.307329152545
 20
554.5378455305172
 10
9662.760025180753
 20
550.3490958502326
 10
9646.019618747512
 20
553.1018639875077
  0
LWPOLYLINE
  5
3C
330
17
100
AcDbEntity
  8
C
100
AcDbPolyline
 90
19
 70
1
 10
9588.552066663928
 20
195.78135092002103
 10
9586.058016062869
 20
199.88253153037704
 10
9562.746369460618
 20
199.88253153037704
 10
9558.539801827976
 20
206.79975029242203
 10
9558.539801827976
 20
217.75213124480297
 10
9555.209566599084
 20
223.2283217209935
 10
9555.209566599084
 20
231.44260743527923
 10
9551.879331370192
 20
236.91879791146962
 10
9551.879331370192
 20
247.92721753023673
 10
9554.420781388386
 20
252.1063410541865
 10
9561.19370465312
 20
252.1063410541865
 10
9562.858822267568
 20
249.3682458160913
 10
9606.151880243173
 20
249.3682458160913
 10
9607.81699785762
 20
246.6301505779961
 10
9622.803056387636
 20
246.6301505779961
 10
9625.361545800442
 20
242.42300772085324
 10
9615.34246630949
 20
225.94777882034413
 10
9601.161695284929
 20
194.39901156726214
 10
9588.552066663928
 20
195.78135092002103
  0
LWPOLYLINE
  5
3D
330
17
100
AcDbEntity
  8
C
100
AcDbPolyline
 90
28
 70
1
 10
9416.212612642867
 20
714.6500382967321
 10
9414.55090177489
 20
717.3825315303769
 10
9397.904473737655
 20
717.3825315303769
 10
9375.376864238875
 20
748.9385946523498
 10
9375.376864238875
 20
765.4272175302367
 10
9378.707099467767
 20
770.9034080064271
 10
9378.707099467767
 20
776.376713509129
 10
9391.231755647905
 20
799.7181247310729
 10
9412.993770834168
 20
802.4708279559841
 10
9414.607128178364
 20
799.8178465550521
 10
9416.216019389336
 20
802.4634839113293
 10
9432.867195533801
 20
802.4634839113293
 10
9434.532313148246
 20
805.2015791494246
 10
9437.97500118409
 20
805.2015791494246
 10
9439.63565266531
 20
802.4708279559841
 10
9461.282181653112
 20
805.2089231940795
 10
9462.951765400785
 20
802.4634839113293
 10
9467.947118244125
 20
802.4634839113293
 10
9470.497261791139
 20
798.2700648747617
 10
9467.158333033427
 20
787.2890928971456
 10
9467.158333033427
 20
781.8082694473272
 10
9457.165291918633
 20
757.159651788328
 10
9455.499756841184
 20
743.4657432473216
 10
9448.842039274516
 20
729.7809255745965
 10
9448.842039274516
 20
724.3082694473272
 10
9445.501442539788
 20
716.0684262683258
 10
9442.9667451092
 20
711.9004066014286
 10
9416.212612642867
 20
714.6500382967321
  0
ENDSEC
  0
SECTION
  2
OBJECTS
  0
DICTIONARY
  5
A
330
0
100
AcDbDictionary
281
1
  3
ACAD_COLOR
350
B
  3
ACAD_GROUP
350
C
  3
ACAD_LAYOUT
350
D
  3
ACAD_MATERIAL
350
E
  3
ACAD_MLEADERSTYLE
350
F
  3
ACAD_MLINESTYLE
350
10
  3
ACAD_PLOTSETTINGS
350
11
  3
ACAD_PLOTSTYLENAME
350
12
  3
ACAD_SCALELIST
350
14
  3
ACAD_TABLESTYLE
350
15
  3
ACAD_VISUALSTYLE
350
16
  3
EZDXF_META
350
2D
  0
DICTIONARY
  5
B
330
A
100
AcDbDictionary
281
1
  0
DICTIONARY
  5
C
330
A
100
AcDbDictionary
281
1
  0
DICTIONARY
  5
D
330
A
100
AcDbDictionary
281
1
  3
Model
350
1A
  3
Layout1
350
1E
  0
DICTIONARY
  5
E
330
A
100
AcDbDictionary
281
1
  3
ByBlock
350
1F
  3
ByLayer
350
20
  3
Global
350
21
  0
DICTIONARY
  5
F
330
A
100
AcDbDictionary
281
1
  3
Standard
350
2C
  0
DICTIONARY
  5
10
330
A
100
AcDbDictionary
281
1
  3
Standard
350
22
  0
DICTIONARY
  5
11
330
A
100
AcDbDictionary
281
1
  0
ACDBDICTIONARYWDFLT
  5
12
330
A
100
AcDbDictionary
281
1
  3
Normal
350
13
100
AcDbDictionaryWithDefault
340
13
  0
ACDBPLACEHOLDER
  5
13
330
12
  0
DICTIONARY
  5
14
330
A
100
AcDbDictionary
281
1
  0
DICTIONARY
  5
15
330
A
100
AcDbDictionary
281
1
  0
DICTIONARY
  5
16
330
A
100
AcDbDictionary
281
1
  0
LAYOUT
  5
1A
330
D
100
AcDbPlotSettings
  1

  4
A3
  6

 40
7.5
 41
20.0
 42
7.5
 43
20.0
 44
420.0
 45
297.0
 46
0.0
 47
0.0
 48
0.0
 49
0.0
140
0.0
141
0.0
142
1.0
143
1.0
 70
1024
 72
1
 73
0
 74
5
  7

 75
16
 76
0
 77
2
 78
300
147
1.0
148
0.0
149
0.0
100
AcDbLayout
  1
Model
 70
1
 71
0
 10
0.0
 20
0.0
 11
420.0
 21
297.0
 12
0.0
 22
0.0
 32
0.0
 14
1e+20
 24
1e+20
 34
1e+20
 15
-1e+20
 25
-1e+20
 35
-1e+20
146
0.0
 13
0.0
 23
0.0
 33
0.0
 16
1.0
 26
0.0
 36
0.0
 17
0.0
 27
1.0
 37
0.0
 76
1
330
17
  0
LAYOUT
  5
1E
330
D
100
AcDbPlotSettings
  1

  4
A3
  6

 40
7.5
 41
20.0
 42
7.5
 43
20.0
 44
420.0
 45
297.0
 46
0.0
 47
0.0
 48
0.0
 49
0.0
140
0.0
141
0.0
142
1.0
143
1.0
 70
0
 72
1
 73
0
 74
5
  7

 75
16
 76
0
 77
2
 78
300
147
1.0
148
0.0
149
0.0
100
AcDbLayout
  1
Layout1
 70
1
 71
1
 10
0.0
 20
0.0
 11
420.0
 21
297.0
 12
0.0
 22
0.0
 32
0.0
 14
1e+20
 24
1e+20
 34
1e+20
 15
-1e+20
 25
-1e+20
 35
-1e+20
146
0.0
 13
0.0
 23
0.0
 33
0.0
 16
1.0
 26
0.0
 36
0.0
 17
0.0
 27
1.0
 37
0.0
 76
1
330
1B
  0
MATERIAL
  5
1F
102
{ACAD_REACTORS
330
E
102
}
330
E
100
AcDbMaterial
  1
ByBlock
  2

 70
0
 40
1.0
 71
1
 41
1.0
 91
-1023410177
 42
1.0
 72
1
  3

 73
1
 74
1
 75
1
 44
0.5
 73
0
 45
1.0
 46
1.0
 77
1
  4

 78
1
 79
1
170
1
 48
1.0
171
1
  6

172
1
173
1
174
1
140
1.0
141
1.0
175
1
  7

176
1
177
1
178
1
143
1.0
179
1
  8

270
1
271
1
272
1
145
1.0
146
1.0
273
1
  9

274
1
275
1
276
1
 42
1.0
 72
1
  3

 73
1
 74
1
 75
1
 94
63
  0
MATERIAL
  5
20
102
{ACAD_REACTORS
330
E
102
}
330
E
100
AcDbMaterial
  1
ByLayer
  2

 70
0
 40
1.0
 71
1
 41
1.0
 91
-1023410177
 42
1.0
 72
1
  3

 73
1
 74
1
 75
1
 44
0.5
 73
0
 45
1.0
 46
1.0
 77
1
  4

 78
1
 79
1
170
1
 48
1.0
171
1
  6

172
1
173
1
174
1
140
1.0
141
1.0
175
1
  7

176
1
177
1
178
1
143
1.0
179
1
  8

270
1
271
1
272
1
145
1.0
146
1.0
273
1
  9

274
1
275
1
276
1
 42
1.0
 72
1
  3

 73
1
 74
1
 75
1
 94
63
  0
MATERIAL
  5
21
102
{ACAD_REACTORS
330
E
102
}
330
E
100
AcDbMaterial
  1
Global
  2

 70
0
 40
1.0
 71
1
 41
1.0
 91
-1023410177
 42
1.0
 72
1
  3

 73
1
 74
1
 75
1
 44
0.5
 73
0
 45
1.0
 46
1.0
 77
1
  4

 78
1
 79
1
170
1
 48
1.0
171
1
  6

172
1
173
1
174
1
140
1.0
141
1.0
175
1
  7

176
1
177
1
178
1
143
1.0
179
1
  8

270
1
271
1
272
1
145
1.0
146
1.0
273
1
  9

274
1
275
1
276
1
 42
1.0
 72
1
  3

 73
1
 74
1
 75
1
 94
63
  0
MLINESTYLE
  5
22
102
{ACAD_REACTORS
330
10
102
}
330
10
100
AcDbMlineStyle
  2
Standard
 70
0
  3

 62
256
 51
90.0
 52
90.0
 71
2
 49
0.5
 62
256
  6
BYLAYER
 49
-0.5
 62
256
  6
BYLAYER
  0
MLEADERSTYLE
  5
2C
102
{ACAD_REACTORS
330
F
102
}
330
F
100
AcDbMLeaderStyle
179
2
170
2
171
1
172
0
 90
2
 40
0.0
 41
0.0
173
1
 91
-1056964608
 92
-2
290
1
 42
2.0
291
1
 43
8.0
  3
Standard
 44
4.0
300

342
29
174
1
175
1
176
0
178
1
 93
-1056964608
 45
4.0
292
0
297
0
 46
4.0
 94
-1056964608
 47
1.0
 49
1.0
140
1.0
294
1
141
0.0
177
0
142
1.0
295
0
296
0
143
3.75
271
0
272
9
273
9
  0
DICTIONARY
  5
2D
330
A
100
AcDbDictionary
280
1
281
1
  3
CREATED_BY_EZDXF
350
2E
  3
WRITTEN_BY_EZDXF
350
40
  0
DICTIONARYVAR
  5
2E
330
2D
100
DictionaryVariables
280
0
  1
1.4.4 @ 2026-07-14T08:49:52.884921+00:00
  0
DICTIONARYVAR
  5
40
330
2D
100
DictionaryVariables
280
0
  1
1.4.4 @ 2026-07-14T08:49:52.888912+00:00
  0
ENDSEC
  0
EOF
