  0
SECTION
  2
HEADER
  9
$ACADVER
  1
AC1027
  9
$ACADMAINTVER
 70
105
  9
$DWGCODEPAGE
  3
ANSI_1252
  9
$LASTSAVEDBY
  1
ezdxf
  9
$REQUIREDVERSIONS
160
0
  9
$INSBASE
 10
0.0
 20
0.0
 30
0.0
  9
$EXTMIN
 10
1e+20
 20
1e+20
 30
1e+20
  9
$EXTMAX
 10
-1e+20
 20
-1e+20
 30
-1e+20
  9
$LIMMIN
 10
0.0
 20
0.0
  9
$LIMMAX
 10
420.0
 20
297.0
  9
$ORTHOMODE
 70
0
  9
$REGENMODE
 70
1
  9
$FILLMODE
 70
1
  9
$QTEXTMODE
 70
0
  9
$MIRRTEXT
 70
1
  9
$LTSCALE
 40
1.0
  9
$ATTMODE
 70
1
  9
$TEXTSIZE
 40
2.5
  9
$TRACEWID
 40
1.0
  9
$TEXTSTYLE
  7
Standard
  9
$CLAYER
  8
0
  9
$CELTYPE
  6
ByLayer
  9
$CECOLOR
 62
256
  9
$CELTSCALE
 40
1.0
  9
$DISPSILH
 70
0
  9
$DIMSCALE
 40
1.0
  9
$DIMASZ
 40
2.5
  9
$DIMEXO
 40
0.625
  9
$DIMDLI
 40
3.75
  9
$DIMRND
 40
0.0
  9
$DIMDLE
 40
0.0
  9
$DIMEXE
 40
1.25
  9
$DIMTP
 40
0.0
  9
$DIMTM
 40
0.0
  9
$DIMTXT
 40
2.5
  9
$DIMCEN
 40
2.5
  9
$DIMTSZ
 40
0.0
  9
$DIMTOL
 70
0
  9
$DIMLIM
 70
0
  9
$DIMTIH
 70
0
  9
$DIMTOH
 70
0
  9
$DIMSE1
 70
0
  9
$DIMSE2
 70
0
  9
$DIMTAD
 70
1
  9
$DIMZIN
 70
8
  9
$DIMBLK
  1

  9
$DIMASO
 70
1
  9
$DIMSHO
 70
1
  9
$DIMPOST
  1

  9
$DIMAPOST
  1

  9
$DIMALT
 70
0
  9
$DIMALTD
 70
3
  9
$DIMALTF
 40
0.03937007874
  9
$DIMLFAC
 40
1.0
  9
$DIMTOFL
 70
1
  9
$DIMTVP
 40
0.0
  9
$DIMTIX
 70
0
  9
$DIMSOXD
 70
0
  9
$DIMSAH
 70
0
  9
$DIMBLK1
  1

  9
$DIMBLK2
  1

  9
$DIMSTYLE
  2
ISO-25
  9
$DIMCLRD
 70
0
  9
$DIMCLRE
 70
0
  9
$DIMCLRT
 70
0
  9
$DIMTFAC
 40
1.0
  9
$DIMGAP
 40
0.625
  9
$DIMJUST
 70
0
  9
$DIMSD1
 70
0
  9
$DIMSD2
 70
0
  9
$DIMTOLJ
 70
0
  9
$DIMTZIN
 70
8
  9
$DIMALTZ
 70
0
  9
$DIMALTTZ
 70
0
  9
$DIMUPT
 70
0
  9
$DIMDEC
 70
2
  9
$DIMTDEC
 70
2
  9
$DIMALTU
 70
2
  9
$DIMALTTD
 70
3
  9
$DIMTXSTY
  7
Standard
  9
$DIMAUNIT
 70
0
  9
$DIMADEC
 70
0
  9
$DIMALTRND
 40
0.0
  9
$DIMAZIN
 70
0
  9
$DIMDSEP
 70
44
  9
$DIMATFIT
 70
3
  9
$DIMFRAC
 70
0
  9
$DIMLDRBLK
  1

  9
$DIMLUNIT
 70
2
  9
$DIMLWD
 70
-2
  9
$DIMLWE
 70
-2
  9
$DIMTMOVE
 70
0
  9
$DIMFXL
 40
1.0
  9
$DIMFXLON
 70
0
  9
$DIMJOGANG
 40
0.785398163397
  9
$DIMTFILL
 70
0
  9
$DIMTFILLCLR
 70
0
  9
$DIMARCSYM
 70
0
  9
$DIMLTYPE
  6

  9
$DIMLTEX1
  6

  9
$DIMLTEX2
  6

  9
$DIMTXTDIRECTION
 70
0
  9
$LUNITS
 70
2
  9
$LUPREC
 70
4
  9
$SKETCHINC
 40
1.0
  9
$FILLETRAD
 40
10.0
  9
$AUNITS
 70
0
  9
$AUPREC
 70
2
  9
$MENU
  1
.
  9
$ELEVATION
 40
0.0
  9
$PELEVATION
 40
0.0
  9
$THICKNESS
 40
0.0
  9
$LIMCHECK
 70
0
  9
$CHAMFERA
 40
0.0
  9
$CHAMFERB
 40
0.0
  9
$CHAMFERC
 40
0.0
  9
$CHAMFERD
 40
0.0
  9
$SKPOLY
 70
0
  9
$TDCREATE
 40
2461236.492962963
  9
$TDUCREATE
 40
2458532.153996898
  9
$TDUPDATE
 40
2461236.492962963
  9
$TDUUPDATE
 40
2458532.1544311
  9
$TDINDWG
 40
0.0
  9
$TDUSRTIMER
 40
0.0
  9
$USRTIMER
 70
1
  9
$ANGBASE
 50
0.0
  9
$ANGDIR
 70
0
  9
$PDMODE
 70
0
  9
$PDSIZE
 40
0.0
  9
$PLINEWID
 40
0.0
  9
$SPLFRAME
 70
0
  9
$SPLINETYPE
 70
6
  9
$SPLINESEGS
 70
8
  9
$HANDSEED
  5
3D
  9
$SURFTAB1
 70
6
  9
$SURFTAB2
 70
6
  9
$SURFTYPE
 70
6
  9
$SURFU
 70
6
  9
$SURFV
 70
6
  9
$UCSBASE
  2

  9
$UCSNAME
  2

  9
$UCSORG
 10
0.0
 20
0.0
 30
0.0
  9
$UCSXDIR
 10
1.0
 20
0.0
 30
0.0
  9
$UCSYDIR
 10
0.0
 20
1.0
 30
0.0
  9
$UCSORTHOREF
  2

  9
$UCSORTHOVIEW
 70
0
  9
$UCSORGTOP
 10
0.0
 20
0.0
 30
0.0
  9
$UCSORGBOTTOM
 10
0.0
 20
0.0
 30
0.0
  9
$UCSORGLEFT
 10
0.0
 20
0.0
 30
0.0
  9
$UCSORGRIGHT
 10
0.0
 20
0.0
 30
0.0
  9
$UCSORGFRONT
 10
0.0
 20
0.0
 30
0.0
  9
$UCSORGBACK
 10
0.0
 20
0.0
 30
0.0
  9
$PUCSBASE
  2

  9
$PUCSNAME
  2

  9
$PUCSORG
 10
0.0
 20
0.0
 30
0.0
  9
$PUCSXDIR
 10
1.0
 20
0.0
 30
0.0
  9
$PUCSYDIR
 10
0.0
 20
1.0
 30
0.0
  9
$PUCSORTHOREF
  2

  9
$PUCSORTHOVIEW
 70
0
  9
$PUCSORGTOP
 10
0.0
 20
0.0
 30
0.0
  9
$PUCSORGBOTTOM
 10
0.0
 20
0.0
 30
0.0
  9
$PUCSORGLEFT
 10
0.0
 20
0.0
 30
0.0
  9
$PUCSORGRIGHT
 10
0.0
 20
0.0
 30
0.0
  9
$PUCSORGFRONT
 10
0.0
 20
0.0
 30
0.0
  9
$PUCSORGBACK
 10
0.0
 20
0.0
 30
0.0
  9
$USERI1
 70
0
  9
$USERI2
 70
0
  9
$USERI3
 70
0
  9
$USERI4
 70
0
  9
$USERI5
 70
0
  9
$USERR1
 40
0.0
  9
$USERR2
 40
0.0
  9
$USERR3
 40
0.0
  9
$USERR4
 40
0.0
  9
$USERR5
 40
0.0
  9
$WORLDVIEW
 70
1
  9
$SHADEDGE
 70
3
  9
$SHADEDIF
 70
70
  9
$TILEMODE
 70
1
  9
$MAXACTVP
 70
64
  9
$PINSBASE
 10
0.0
 20
0.0
 30
0.0
  9
$PLIMCHECK
 70
0
  9
$PEXTMIN
 10
1e+20
 20
1e+20
 30
1e+20
  9
$PEXTMAX
 10
-1e+20
 20
-1e+20
 30
-1e+20
  9
$PLIMMIN
 10
0.0
 20
0.0
  9
$PLIMMAX
 10
420.0
 20
297.0
  9
$UNITMODE
 70
0
  9
$VISRETAIN
 70
1
  9
$PLINEGEN
 70
0
  9
$PSLTSCALE
 70
1
  9
$TREEDEPTH
 70
3020
  9
$CMLSTYLE
  2
Standard
  9
$CMLJUST
 70
0
  9
$CMLSCALE
 40
20.0
  9
$PROXYGRAPHICS
 70
1
  9
$MEASUREMENT
 70
1
  9
$CELWEIGHT
370
-1
  9
$ENDCAPS
280
0
  9
$JOINSTYLE
280
0
  9
$LWDISPLAY
290
0
  9
$INSUNITS
 70
4
  9
$HYPERLINKBASE
  1

  9
$STYLESHEET
  1

  9
$XEDIT
290
1
  9
$CEPSNTYPE
380
0
  9
$PSTYLEMODE
290
1
  9
$FINGERPRINTGUID
  2
{455FE248-FBFF-433A-80AC-CAEC1E94BAEF}
  9
$VERSIONGUID
  2
{34DE6607-52DB-4096-84B8-65DB2A568F26}
  9
$EXTNAMES
290
1
  9
$PSVPSCALE
 40
0.0
  9
$OLESTARTUP
290
0
  9
$SORTENTS
280
127
  9
$INDEXCTL
280
0
  9
$HIDETEXT
280
1
  9
$XCLIPFRAME
280
1
  9
$HALOGAP
280
0
  9
$OBSCOLOR
 70
257
  9
$OBSLTYPE
280
0
  9
$INTERSECTIONDISPLAY
280
0
  9
$INTERSECTIONCOLOR
 70
257
  9
$DIMASSOC
280
2
  9
$PROJECTNAME
  1

  9
$CAMERADISPLAY
290
0
  9
$LENSLENGTH
 40
50.0
  9
$CAMERAHEIGHT
 40
0.0
  9
$STEPSPERSEC
 40
24.0
  9
$STEPSIZE
 40
100.0
  9
$3DDWFPREC
 40
2.0
  9
$PSOLWIDTH
 40
0.005
  9
$PSOLHEIGHT
 40
0.08
  9
$LOFTANG1
 40
1.570796326795
  9
$LOFTANG2
 40
1.570796326795
  9
$LOFTMAG1
 40
0.0
  9
$LOFTMAG2
 40
0.0
  9
$LOFTPARAM
 70
7
  9
$LOFTNORMALS
280
1
  9
$LATITUDE
 40
37.795
  9
$LONGITUDE
 40
-122.394
  9
$NORTHDIRECTION
 40
0.0
  9
$TIMEZONE
 70
-8000
  9
$LIGHTGLYPHDISPLAY
280
1
  9
$TILEMODELIGHTSYNCH
280
1
  9
$CMATERIAL
347
20
  9
$SOLIDHIST
280
0
  9
$SHOWHIST
280
1
  9
$DWFFRAME
280
2
  9
$DGNFRAME
280
2
  9
$REALWORLDSCALE
290
1
  9
$INTERFERECOLOR
 62
256
  9
$CSHADOW
280
0
  9
$SHADOWPLANELOCATION
 40
0.0
  0
ENDSEC
  0
SECTION
  2
CLASSES
  0
CLASS
  1
ACDBDICTIONARYWDFLT
  2
AcDbDictionaryWithDefault
  3
ObjectDBX Classes
 90
0
 91
0
280
0
281
0
  0
CLASS
  1
SUN
  2
AcDbSun
  3
SCENEOE
 90
1153
 91
0
280
0
281
0
  0
CLASS
  1
VISUALSTYLE
  2
AcDbVisualStyle
  3
ObjectDBX Classes
 90
4095
 91
0
280
0
281
0
  0
CLASS
  1
MATERIAL
  2
AcDbMaterial
  3
ObjectDBX Classes
 90
1153
 91
0
280
0
281
0
  0
CLASS
  1
SCALE
  2
AcDbScale
  3
ObjectDBX Classes
 90
1153
 91
0
280
0
281
0
  0
CLASS
  1
TABLESTYLE
  2
AcDbTableStyle
  3
ObjectDBX Classes
 90
4095
 91
0
280
0
281
0
  0
CLASS
  1
MLEADERSTYLE
  2
AcDbMLeaderStyle
  3
ACDB_MLEADERSTYLE_CLASS
 90
4095
 91
0
280
0
281
0
  0
CLASS
  1
DICTIONARYVAR
  2
AcDbDictionaryVar
  3
ObjectDBX Classes
 90
0
 91
0
280
0
281
0
  0
CLASS
  1
CELLSTYLEMAP
  2
AcDbCellStyleMap
  3
ObjectDBX Classes
 90
1152
 91
0
280
0
281
0
  0
CLASS
  1
MENTALRAYRENDERSETTINGS
  2
AcDbMentalRayRenderSettings
  3
SCENEOE
 90
1024
 91
0
280
0
281
0
  0
CLASS
  1
ACDBDETAILVIEWSTYLE
  2
AcDbDetailViewStyle
  3
ObjectDBX Classes
 90
1025
 91
0
280
0
281
0
  0
CLASS
  1
ACDBSECTIONVIEWSTYLE
  2
AcDbSectionViewStyle
  3
ObjectDBX Classes
 90
1025
 91
0
280
0
281
0
  0
CLASS
  1
RASTERVARIABLES
  2
AcDbRasterVariables
  3
ISM
 90
0
 91
0
280
0
281
0
  0
CLASS
  1
LAYOUT
  2
AcDbLayout
  3
ObjectDBX Classes
 90
0
 91
0
280
0
281
0
  0
CLASS
  1
ACDBPLACEHOLDER
  2
AcDbPlaceHolder
  3
ObjectDBX Classes
 90
0
 91
0
280
0
281
0
  0
ENDSEC
  0
SECTION
  2
TABLES
  0
TABLE
  2
VPORT
  5
8
330
0
100
AcDbSymbolTable
 70
1
  0
VPORT
  5
23
330
8
100
AcDbSymbolTableRecord
100
AcDbViewportTableRecord
  2
*Active
 70
0
 10
0.0
 20
0.0
 11
1.0
 21
1.0
 12
0.0
 22
0.0
 13
0.0
 23
0.0
 14
0.5
 24
0.5
 15
0.5
 25
0.5
 16
0.0
 26
0.0
 36
1.0
 17
0.0
 27
0.0
 37
0.0
 40
1000.0
 41
1.34
 42
50.0
 43
0.0
 44
0.0
 50
0.0
 51
0.0
 71
0
 72
1000
 73
1
 74
3
 75
0
 76
0
 77
0
 78
0
281
0
 65
0
146
0.0
  0
ENDTAB
  0
TABLE
  2
LTYPE
  5
2
330
0
100
AcDbSymbolTable
 70
3
  0
LTYPE
  5
24
330
2
100
AcDbSymbolTableRecord
100
AcDbLinetypeTableRecord
  2
ByBlock
 70
0
  3

 72
65
 73
0
 40
0.0
  0
LTYPE
  5
25
330
2
100
AcDbSymbolTableRecord
100
AcDbLinetypeTableRecord
  2
ByLayer
 70
0
  3

 72
65
 73
0
 40
0.0
  0
LTYPE
  5
26
330
2
100
AcDbSymbolTableRecord
100
AcDbLinetypeTableRecord
  2
Continuous
 70
0
  3

 72
65
 73
0
 40
0.0
  0
ENDTAB
  0
TABLE
  2
LAYER
  5
1
330
0
100
AcDbSymbolTable
 70
3
  0
LAYER
  5
27
330
1
100
AcDbSymbolTableRecord
100
AcDbLayerTableRecord
  2
0
 70
0
 62
7
  6
Continuous
370
-3
390
13
347
21
  0
LAYER
  5
28
330
1
100
AcDbSymbolTableRecord
100
AcDbLayerTableRecord
  2
Defpoints
 70
0
 62
7
  6
Continuous
290
0
370
-3
390
13
347
21
  0
LAYER
  5
2F
330
1
100
AcDbSymbolTableRecord
100
AcDbLayerTableRecord
  2
K
 70
0
 62
7
  6
Continuous
370
-3
390
13
347
21
  0
ENDTAB
  0
TABLE
  2
STYLE
  5
5
330
0
100
AcDbSymbolTable
 70
1
  0
STYLE
  5
29
330
5
100
AcDbSymbolTableRecord
100
AcDbTextStyleTableRecord
  2
Standard
 70
0
 40
0.0
 41
1.0
 50
0.0
 71
0
 42
2.5
  3
txt
  4

  0
ENDTAB
  0
TABLE
  2
VIEW
  5
7
330
0
100
AcDbSymbolTable
 70
0
  0
ENDTAB
  0
TABLE
  2
UCS
  5
6
330
0
100
AcDbSymbolTable
 70
0
  0
ENDTAB
  0
TABLE
  2
APPID
  5
3
330
0
100
AcDbSymbolTable
 70
3
  0
APPID
  5
2A
330
3
100
AcDbSymbolTableRecord
100
AcDbRegAppTableRecord
  2
ACAD
 70
0
  0
APPID
  5
3A
330
3
100
AcDbSymbolTableRecord
100
AcDbRegAppTableRecord
  2
HATCHBACKGROUNDCOLOR
 70
0
  0
APPID
  5
3B
330
3
100
AcDbSymbolTableRecord
100
AcDbRegAppTableRecord
  2
EZDXF
 70
0
  0
ENDTAB
  0
TABLE
  2
DIMSTYLE
  5
4
330
0
100
AcDbSymbolTable
 70
1
100
AcDbDimStyleTable
  0
DIMSTYLE
105
2B
330
4
100
AcDbSymbolTableRecord
100
AcDbDimStyleTableRecord
  2
Standard
 70
0
 40
1.0
 41
2.5
 42
0.625
 43
3.75
 44
1.25
 45
0.0
 46
0.0
 47
0.0
 48
0.0
 49
2.5
140
2.5
141
2.5
142
0.0
143
0.03937007874
144
1.0
145
0.0
146
1.0
147
0.625
148
0.0
 69
0
 70
0
 71
0
 72
0
 73
0
 74
0
 75
0
 76
0
 77
1
 78
8
 79
3
170
0
171
3
172
1
173
0
174
0
175
0
176
0
177
0
178
0
179
2
271
2
272
2
273
2
274
3
275
0
276
0
277
2
278
44
279
0
280
0
281
0
282
0
283
0
284
8
285
0
286
0
288
0
289
3
290
0
371
-2
372
-2
  0
ENDTAB
  0
TABLE
  2
BLOCK_RECORD
  5
9
330
0
100
AcDbSymbolTable
 70
2
  0
BLOCK_RECORD
  5
17
330
9
100
AcDbSymbolTableRecord
100
AcDbBlockTableRecord
  2
*Model_Space
340
1A
 70
0
280
1
281
0
  0
BLOCK_RECORD
  5
1B
330
9
100
AcDbSymbolTableRecord
100
AcDbBlockTableRecord
  2
*Paper_Space
340
1E
 70
0
280
1
281
0
  0
ENDTAB
  0
ENDSEC
  0
SECTION
  2
BLOCKS
  0
BLOCK
  5
18
330
17
100
AcDbEntity
  8
0
100
AcDbBlockBegin
  2
*Model_Space
 70
0
 10
0.0
 20
0.0
 30
0.0
  3
*Model_Space
  1

  0
ENDBLK
  5
19
330
17
100
AcDbEntity
  8
0
100
AcDbBlockEnd
  0
BLOCK
  5
1C
330
1B
100
AcDbEntity
  8
0
100
AcDbBlockBegin
  2
*Paper_Space
 70
0
 10
0.0
 20
0.0
 30
0.0
  3
*Paper_Space
  1

  0
ENDBLK
  5
1D
330
1B
100
AcDbEntity
  8
0
100
AcDbBlockEnd
  0
ENDSEC
  0
SECTION
  2
ENTITIES
  0
LWPOLYLINE
  5
30
330
17
100
AcDbEntity
  8
K
100
AcDbPolyline
 90
55
 70
1
 10
36.00069026299063
 20
410.7268556394319
 10
34.25063048397686
 20
413.45861404558894
 10
20.217675486201458
 20
413.45861404558894
 10
18.46355611147954
 20
416.19670928368424
 10
13.201197987313783
 20
416.19670928368424
 10
10.505955435023695
 20
420.4038521408271
 10
14.032954997775349
 20
425.90932733635947
 10
14.032954997775349
 20
439.5998035268357
 10
15.787074372497267
 20
442.3378987649309
 10
15.787074372497267
 20
450.55218447921663
 10
19.295313121941106
 20
456.02837495540706
 10
19.295313121941106
 20
469.7188511458833
 10
21.047857908118417
 20
472.4544885276558
 10
19.296863301535293
 20
505.25310004730215
 10
15.787074372497267
 20
510.731710278628
 10
15.787074372497267
 20
519.0045654315976
 10
20.217675486201458
 20
525.9205188074936
 10
23.725914235645295
 20
525.9205188074936
 10
27.22429031813045
 20
531.3813141390756
 10
36.002131663606384
 20
534.1216710309905
 10
43.029827525941315
 20
542.3490902360652
 10
46.536130715629895
 20
542.3490902360652
 10
55.30672758923949
 20
553.301471188446
 10
58.80830173008372
 20
553.301471188446
 10
60.617118427906235
 20
556.1249462941126
 10
62.37123780262815
 20
553.3868510560175
 10
65.8247792289714
 20
558.7776616646366
 10
69.34819915518209
 20
558.7776616646366
 10
78.16504206284003
 20
567.035260068161
 10
103.72696281643334
 20
538.1414917956297
 10
97.50969524936781
 20
531.2094539208881
 10
88.74127196292669
 20
528.4720372556154
 10
72.88583120576064
 20
509.22236878156923
 10
70.14601417556898
 20
513.4990902360651
 10
73.65425292501283
 20
518.9752807122557
 10
69.33301797841523
 20
525.7205188074937
 10
58.91769637628491
 20
525.7205188074937
 10
56.3433134426507
 20
521.7020319512415
 10
58.93169399355408
 20
514.9681378551128
 10
62.42593512572875
 20
514.9681378551128
 10
66.87900798552143
 20
508.01710717385
 10
57.17073736503592
 20
495.61826583383674
 10
50.15905836285795
 20
492.88204315087944
 10
45.82586455607773
 20
486.1181378551128
 10
50.15905836285795
 20
479.3542325593461
 10
57.175535861745615
 20
476.61613732125085
 10
60.67181575100683
 20
471.1586140455889
 10
64.16794970014882
 20
471.1586140455889
 10
69.4420274818287
 20
465.67022769155267
 10
78.21655571459519
 20
462.9309051212768
 10
86.17533243114633
 20
453.26836621119793
 10
75.61682447931611
 20
436.78704757296083
 10
70.35304120646435
 20
423.0928637358948
 10
58.90807420977945
 20
407.9762929527204
 10
36.00069026299063
 20
410.7268556394319
  0
LWPOLYLINE
  5
31
330
17
100
AcDbEntity
  8
K
100
AcDbPolyline
 90
26
 70
1
 10
47.45590446040621
 20
653.0355270879625
 10
37.75812019336239
 20
657.1640100134049
 10
29.003453536577904
 20
665.3633759503508
 10
21.97179486092343
 20
665.3633759503508
 10
20.209295016467454
 20
668.1145526950997
 10
9.70473943384742
 20
670.847402963024
 10
0.0
 20
677.733142692367
 10
0.0
 20
683.2902797173117
 10
3.508238749443837
 20
688.7664701935021
 10
3.508238749443837
 20
696.9742486152346
 10
8.774157248875202
 20
707.9340396650133
 10
10.529270625921294
 20
718.8926269749995
 10
16.709436736757677
 20
728.5395664265412
 10
58.905591575983074
 20
728.5395664265412
 10
64.16794970014882
 20
723.0633759503509
 10
67.68829324989444
 20
723.0633759503509
 10
71.19653199933829
 20
717.5871854741605
 10
74.70477074878212
 20
717.5871854741605
 10
80.88949123720829
 20
707.9331368601687
 10
80.88949123720829
 20
702.4569463839782
 10
84.3917315629506
 20
696.9901191561563
 10
86.16010089475967
 20
688.709102966957
 10
72.88361613485999
 20
673.5115406854894
 10
71.12918969789544
 20
676.2501152328475
 10
51.90305143774781
 20
654.4238832212159
 10
47.45590446040621
 20
653.0355270879625
  0
LWPOLYLINE
  5
32
330
17
100
AcDbEntity
  8
K
100
AcDbPolyline
 90
54
 70
1
 10
3264.725163661454
 20
87.63612027305057
 10
3264.097121690678
 20
90.36337595035093
 10
3245.811515551601
 20
90.36337595035093
 10
3245.1809774088742
 20
93.10147118844614
 10
3226.8953712697976
 20
93.10147118844614
 10
3226.3017958922155
 20
95.67905659474563
 10
3221.356058124121
 20
87.62528071225562
 10
3219.9594516998027
 20
87.62528071225562
 10
3219.328913557076
 20
90.36337595035093
 10
3209.8708414161742
 20
90.36337595035093
 10
3209.240303273447
 20
93.10147118844614
 10
3205.480722126714
 20
93.10147118844614
 10
3200.4364169848996
 20
101.31575690273186
 10
3197.275627774828
 20
101.31575690273186
 10
3194.744174694935
 20
106.812140986288
 10
3187.1810694134742
 20
109.54902307069625
 10
3182.767302414387
 20
117.76330878498187
 10
3175.185602497281
 20
120.50691976225514
 10
3174.560705423474
 20
123.22051880749373
 10
3173.292085036054
 20
123.22051880749373
 10
3172.331835598031
 20
130.17028186296986
 10
3173.2939880691006
 20
134.34840356701804
 10
3180.860445781822
 20
137.08649880511325
 10
3181.4966249934687
 20
139.84909023606517
 10
3184.6493157071027
 20
139.84909023606517
 10
3185.276529375228
 20
142.57274903097294
 10
3199.3069854521427
 20
145.34215289911313
 10
3199.9414089810375
 20
142.58718547416038
 10
3203.0940996946715
 20
142.58718547416038
 10
3203.728261929915
 20
139.83335270998998
 10
3216.339024784451
 20
137.09525747189466
 10
3216.971216225564
 20
134.3499828292044
 10
3225.1682120810124
 20
131.6118875911092
 10
3225.793472832836
 20
128.89670928368423
 10
3231.468316117377
 20
128.89670928368423
 10
3232.0988542601035
 20
126.15861404558892
 10
3235.2515449737375
 20
126.15861404558892
 10
3235.8820831164644
 20
123.42051880749372
 10
3239.0347738300984
 20
123.42051880749372
 10
3239.658995861693
 20
120.70985111524169
 10
3248.486529859868
 20
123.44794635333689
 10
3249.123384113727
 20
120.68242356939851
 10
3255.428765540995
 20
120.68242356939851
 10
3256.0593036837217
 20
117.9443283313032
 10
3262.3646851109897
 20
117.9443283313032
 10
3262.9952232537166
 20
115.20623309320798
 10
3269.300604680984
 20
115.20623309320798
 10
3269.935125004861
 20
112.4508453385995
 10
3281.284811573944
 20
109.7127501005043
 10
3284.1386621108177
 20
97.31997948799564
 10
3284.1386621108177
 20
91.84378901180511
 10
3284.771817527351
 20
89.09432833130326
 10
3283.8001823229934
 20
84.87502810830216
 10
3264.725163661454
 20
87.63612027305057
  0
LWPOLYLINE
  5
33
330
17
100
AcDbEntity
  8
K
100
AcDbPolyline
 90
5
 70
1
 10
5773.461749851371
 20
677.7848045217794
 10
5774.853085458262
 20
682.2264815843178
 10
5776.244421065155
 20
677.7848045217794
 10
5774.853085458262
 20
673.3431274592409
 10
5773.461749851371
 20
677.7848045217794
  0
LWPOLYLINE
  5
34
330
17
100
AcDbEntity
  8
K
100
AcDbPolyline
 90
80
 70
1
 10
5754.190414653374
 20
673.5920144764202
 10
5753.354325836492
 20
676.2611307570605
 10
5749.065844992226
 20
673.5230355189652
 10
5748.191037425927
 20
676.3157569027318
 10
5743.044860412806
 20
676.3157569027318
 10
5742.187164243952
 20
679.0538521408272
 10
5737.040987230832
 20
679.0538521408272
 10
5736.256757859858
 20
681.5574131735267
 10
5735.4725284888855
 20
679.0538521408272
 10
5731.894810217711
 20
679.0538521408272
 10
5731.037114048858
 20
681.7919473789223
 10
5725.890937035738
 20
681.7919473789223
 10
5725.033240866885
 20
684.5300426170176
 10
5721.74938978723
 20
684.5300426170176
 10
5720.818226820497
 20
681.5574131735267
 10
5719.887063853764
 20
684.5300426170176
 10
5714.740886840644
 20
684.5300426170176
 10
5713.88319067179
 20
687.2681378551129
 10
5708.737013658669
 20
687.2681378551129
 10
5707.89642888726
 20
689.9516069475367
 10
5703.6079480429935
 20
687.2135117094416
 10
5702.733140476696
 20
690.0062330932079
 10
5697.586963463575
 20
690.0062330932079
 10
5696.729267294721
 20
692.7443283313033
 10
5685.5792170996265
 20
692.7443283313033
 10
5684.721520930774
 20
695.4824235693984
 10
5679.575343917653
 20
695.4824235693984
 10
5678.734759146245
 20
698.1658926618223
 10
5674.446278301977
 20
695.427797423727
 10
5673.571470735679
 20
698.2205188074937
 10
5668.425293722558
 20
698.2205188074937
 10
5667.567597553705
 20
700.958614045589
 10
5662.421420540585
 20
700.958614045589
 10
5661.580835769177
 20
703.6420831380128
 10
5657.292354924909
 20
700.9039878999178
 10
5655.962166072063
 20
705.1504610637331
 10
5655.962166072063
 20
710.6219033455086
 10
5652.53138139665
 20
718.8361890597943
 10
5652.53138139665
 20
729.8239098845876
 10
5653.887399367794
 20
734.1528395037138
 10
5655.6027917055
 20
731.4147442656187
 10
5657.3044233784985
 20
736.8470054205872
 10
5659.877511885059
 20
734.1089101824919
 10
5660.706028202878
 20
736.753852140827
 10
5667.567597553705
 20
736.753852140827
 10
5668.498760520438
 20
739.7264815843179
 10
5669.429923487171
 20
736.753852140827
 10
5671.856078397972
 20
736.753852140827
 10
5672.70407070255
 20
739.4609689211309
 10
5677.9928259936505
 20
742.2749249201365
 10
5678.864581344559
 20
739.4919473789223
 10
5683.143097301261
 20
739.4919473789223
 10
5685.7233897625565
 20
734.0004250444572
 10
5696.023994955328
 20
731.2601347322587
 10
5696.8762008904805
 20
728.5395664265412
 10
5702.022377903601
 20
728.5395664265412
 10
5702.8800740724555
 20
725.8014711884459
 10
5708.0262510855755
 20
725.8014711884459
 10
5708.883947254429
 20
723.0633759503509
 10
5714.03012426755
 20
723.0633759503509
 10
5714.887820436403
 20
720.3252807122556
 10
5720.033997449523
 20
720.3252807122556
 10
5720.90031702288
 20
717.5596562584976
 10
5726.904190204854
 20
714.8215610204023
 10
5727.753262969203
 20
712.1109949979698
 10
5732.041743813471
 20
712.1109949979698
 10
5732.905872434678
 20
709.3523649040616
 10
5750.059795811747
 20
703.876174427871
 10
5750.911059528246
 20
701.158614045589
 10
5756.057236541367
 20
701.158614045589
 10
5756.9149327102205
 20
698.4205188074936
 10
5762.0542484570415
 20
698.4205188074936
 10
5765.496935433907
 20
690.1777355586703
 10
5770.647775276151
 20
687.4371593973215
 10
5772.811736095036
 20
680.5289662296457
 10
5771.505256931494
 20
673.5776616646365
 10
5769.633441647262
 20
673.5776616646365
 10
5768.849212276288
 20
676.0812226973363
 10
5767.202037346938
 20
670.8228083611776
 10
5754.190414653374
 20
673.5920144764202
  0
LWPOLYLINE
  5
35
330
17
100
AcDbEntity
  8
K
100
AcDbPolyline
 90
14
 70
1
 10
8226.511721044046
 20
371.03460652460075
 10
8215.915441227464
 20
390.25907028012097
 10
8215.915441227464
 20
404.00465838208646
 10
8219.436915492997
 20
409.48084885827694
 10
8219.436915492997
 20
423.1713250487531
 10
8223.88417214303
 20
430.0871854741604
 10
8236.318504436158
 20
430.0871854741604
 10
8238.079241568923
 20
427.34909023606514
 10
8245.122190099988
 20
427.34909023606514
 10
8246.868259032455
 20
424.6338052906817
 10
8253.891134235051
 20
427.3640965976748
 10
8261.924027118297
 20
420.42419204720807
 10
8231.02656469219
 20
369.63041373924034
 10
8226.511721044046
 20
371.03460652460075
  0
LWPOLYLINE
  5
36
330
17
100
AcDbEntity
  8
K
100
AcDbPolyline
 90
80
 70
1
 10
8200.988166985517
 20
473.7066967082265
 10
8199.233852284306
 20
476.4348045217794
 10
8185.147955222177
 20
476.4348045217794
 10
8183.387218089411
 20
479.17289975987467
 10
8176.344269558345
 20
479.17289975987467
 10
8174.622359470062
 20
481.85061565818944
 10
8169.340148071763
 20
476.3744251819989
 10
8167.540583894515
 20
479.17289975987467
 10
8164.128281992749
 20
479.17289975987467
 10
8162.367544859982
 20
476.4348045217794
 10
8155.203308125181
 20
476.4348045217794
 10
8145.499367850049
 20
499.7564064278526
 10
8137.647407682568
 20
509.25343282217284
 10
8134.175467128848
 20
506.553852140827
 10
8120.109853673599
 20
506.553852140827
 10
8118.349116540832
 20
503.81575690273183
 10
8114.718469911535
 20
503.81575690273183
 10
8112.99655982325
 20
506.4934728010465
 10
8107.714348424953
 20
501.01728232485607
 10
8105.914784247705
 20
503.81575690273183
 10
8102.502482345939
 20
503.81575690273183
 10
8100.741745213172
 20
501.07766166463665
 10
8091.828887185576
 20
501.07766166463665
 10
8090.106977097293
 20
503.7553775629513
 10
8084.86071984855
 20
498.31646158346933
 10
8079.578508450252
 20
501.05455682156463
 10
8074.260342902397
 20
495.5410918486656
 10
8072.46077872515
 20
498.3395664265413
 10
8063.766265425085
 20
498.3395664265413
 10
8062.0055282923195
 20
495.6014711884461
 10
8058.374881663022
 20
495.6014711884461
 10
8056.643774115885
 20
498.2934899135808
 10
8053.135188554206
 20
495.56541618806335
 10
8046.884676481925
 20
502.5083270463624
 10
8046.884676481925
 20
513.4697125662343
 10
8043.363202216394
 20
518.9459030424248
 10
8043.363202216394
 20
532.6363792329009
 10
8039.841727950861
 20
538.1125697090915
 10
8039.841727950861
 20
551.8030458995677
 10
8036.320253685329
 20
557.279236375758
 10
8036.320253685329
 20
562.8141821916104
 10
8039.0067732025955
 20
566.9919473789222
 10
8042.637419831893
 20
566.9919473789222
 10
8044.404579396211
 20
564.2438647162847
 10
8058.490476458341
 20
561.5057694781896
 10
8060.244791159553
 20
558.7776616646366
 10
8067.287739690617
 20
558.7776616646366
 10
8069.054899254937
 20
556.029579001999
 10
8083.140796317064
 20
553.2914837639038
 10
8084.900862313376
 20
550.5544321997885
 10
8100.723410908604
 20
547.8204986445429
 10
8118.32309444287
 20
536.8728997598746
 10
8125.366042973933
 20
536.8728997598746
 10
8134.169728637763
 20
531.3967092836842
 10
8141.238699266792
 20
531.3967092836842
 10
8142.9994363995565
 20
528.6586140455889
 10
8150.016362832659
 20
528.6586140455889
 10
8158.820048496489
 20
523.1824235693985
 10
8165.889019125515
 20
523.1824235693985
 10
8167.630015257267
 20
520.475027258399
 10
8172.912226655566
 20
523.2131224964942
 10
8174.692704789345
 20
520.4443283313033
 10
8181.735653320409
 20
520.4443283313033
 10
8183.496390453175
 20
517.706233093208
 10
8190.539338984239
 20
517.706233093208
 10
8192.300076117006
 20
514.9681378551128
 10
8206.359951081173
 20
514.9681378551128
 10
8215.163636745003
 20
509.49194737892225
 10
8222.232607374028
 20
509.49194737892225
 10
8223.963714921165
 20
506.79992865378756
 10
8227.485189186698
 20
509.53802389188274
 10
8230.201338289593
 20
505.31418219161026
 10
8230.201338289593
 20
497.041141137663
 10
8226.679864024061
 20
491.56495066147244
 10
8226.679864024061
 20
475.136379232901
 10
8223.993344506795
 20
470.95861404558894
 10
8218.60196074473
 20
470.95861404558894
 10
8216.895809793847
 20
473.6118231516792
 10
8215.182523804864
 20
470.9475184575651
 10
8200.988166985517
 20
473.7066967082265
  0
LWPOLYLINE
  5
37
330
17
100
AcDbEntity
  8
K
100
AcDbPolyline
 90
102
 70
1
 10
7908.73324155487
 20
2.74744218360945
 10
7899.934561812041
 20
8.220518807493749
 10
7882.313273138979
 20
8.220518807493749
 10
7877.03106174068
 20
13.696709283684271
 10
7871.736745589821
 20
13.696709283684271
 10
7863.749123310134
 20
26.118137855112742
 10
7866.434250584645
 20
30.293737987126978
 10
7873.517766329464
 20
35.80147118844612
 10
7877.03106174068
 20
35.80147118844612
 10
7882.304680197897
 20
41.26875316428213
 10
7894.63728048413
 20
44.008501314455884
 10
7908.766811559791
 20
54.99480955855107
 10
7912.288285825322
 20
52.25671432045586
 10
7929.8956571529825
 20
65.947190510932
 10
7933.3722765970515
 20
63.243971794371575
 10
7935.939607319385
 20
69.89799933641616
 10
7928.093839137372
 20
76.67624013952923
 10
7898.144676210572
 20
79.41585676903063
 10
7894.62632831578
 20
84.8871854741604
 10
7878.797065886925
 20
84.8871854741604
 10
7870.779903134144
 20
91.8135002001923
 10
7873.497482722587
 20
96.03956642654133
 10
7877.0189569881195
 20
96.03956642654133
 10
7878.779694120885
 20
98.77766166463653
 10
7889.364400524359
 20
98.77766166463653
 10
7899.988082492214
 20
107.03802389188277
 10
7901.778449210608
 20
104.25385214082705
 10
7906.971771852019
 20
104.25385214082705
 10
7914.014720383084
 20
109.73004261701757
 10
7924.570964325364
 20
109.73004261701757
 10
7929.8531757236615
 20
115.20623309320798
 10
7936.884019502164
 20
115.20623309320798
 10
7938.67438622056
 20
117.99040484426371
 10
7942.2288351920615
 20
115.22667037708867
 10
7956.33904195566
 20
123.45513245746776
 10
7958.067451277239
 20
120.76730970140359
 10
7959.773602228122
 20
123.42051880749372
 10
7966.828655511749
 20
123.42051880749372
 10
7972.169107476769
 20
128.95708862346478
 10
7975.729408786782
 20
123.42051880749372
 10
7989.815305848911
 20
123.42051880749372
 10
7991.579358846018
 20
120.67726711975335
 10
8019.7396254443265
 20
117.94029227405368
 10
8025.017943751671
 20
112.46813785511279
 10
8039.11594556636
 20
112.46813785511279
 10
8040.847053113497
 20
109.77611912997808
 10
8047.830742473304
 20
115.20623309320798
 10
8053.201842628489
 20
115.20623309320798
 10
8056.729739325574
 20
109.7200551924753
 10
8070.8018717972345
 20
106.98463559224992
 10
8079.597721031492
 20
98.77766166463653
 10
8084.87993242979
 20
98.77766166463653
 10
8093.69692165749
 20
90.55096304979871
 10
8109.556229347593
 20
85.0703929386073
 10
8113.073327574087
 20
79.60100757342758
 10
8127.159224636216
 20
76.86291233533238
 10
8128.913539337429
 20
74.13480452177946
 10
8134.093244893796
 20
74.13480452177946
 10
8142.9538782475865
 20
85.15803225568308
 10
8144.724925866594
 20
82.4039033389924
 10
8153.469865420876
 20
90.56337595035092
 10
8157.085333461685
 20
90.56337595035092
 10
8160.6125590223155
 20
85.07824172359801
 10
8176.459193217211
 20
82.34014648550281
 10
8181.6810671385265
 20
74.21969065378453
 10
8183.441804271293
 20
76.95778589187974
 10
8186.201801334565
 20
72.6657569027318
 10
8183.441804271293
 20
68.37372791358388
 10
8181.661728622374
 20
71.14189618075717
 10
8172.916789068092
 20
62.982423569398534
 10
8167.634577669793
 20
62.982423569398534
 10
8158.830892005963
 20
54.76813785511281
 10
8153.563859196152
 20
54.76813785511281
 10
8151.803122063387
 20
52.0300426170176
 10
8142.905442624279
 20
52.0300426170176
 10
8134.101756960449
 20
60.24432833130322
 10
8125.3920650718965
 20
60.24432833130322
 10
8119.274898925333
 20
50.73161732813914
 10
8119.274898925333
 20
42.5173316138534
 10
8116.588379408066
 20
38.33956642654135
 10
8109.436258513238
 20
38.33956642654135
 10
8107.675521380472
 20
41.07766166463656
 10
8090.068150052812
 20
41.07766166463656
 10
8086.544131354204
 20
46.55780894957262
 10
8049.568651566117
 20
49.29590418766783
 10
8047.865045048308
 20
51.945156485012525
 10
8046.158894097425
 20
49.29194737892229
 10
8037.355208433593
 20
49.29194737892229
 10
8035.579803100531
 20
46.531041848115294
 10
8028.507301093523
 20
49.28062662520061
 10
8019.721815007971
 20
43.81575690273187
 10
7993.227607750678
 20
43.81575690273187
 10
7991.466870617912
 20
46.553852140827075
 10
7981.011620185081
 20
46.553852140827075
 10
7979.250883052315
 20
43.81575690273187
 10
7975.729408786782
 20
43.81575690273187
 10
7972.2079345212505
 20
38.33956642654135
 10
7968.678948311096
 20
38.33956642654135
 10
7952.855303108261
 20
19.200705181668276
 10
7938.774212605574
 20
8.252061532622479
 10
7933.46770939845
 20
0.0
 10
7908.73324155487
 20
2.74744218360945
  0
LWPOLYLINE
  5
38
330
17
100
AcDbEntity
  8
K
100
AcDbPolyline
 90
38
 70
1
 10
8800.309424204705
 20
629.781198004484
 10
8798.561645893746
 20
632.5062330932078
 10
8791.53702666549
 20
632.5062330932078
 10
8789.780871858426
 20
635.2443283313032
 10
8782.75625263017
 20
635.2443283313032
 10
8781.000097823107
 20
637.9824235693985
 10
8773.975478594852
 20
637.9824235693985
 10
8772.219323787787
 20
640.7205188074936
 10
8765.214994481374
 20
640.7205188074936
 10
8758.152705069922
 20
646.2260758716455
 10
8745.865282627396
 20
662.6470816197949
 10
8740.589235940244
 20
665.3891174684097
 10
8732.661711539531
 20
680.49595353028
 10
8730.902893056415
 20
716.1451812754763
 10
8733.58391803238
 20
720.3252807122556
 10
8737.096227646507
 20
720.3252807122556
 10
8746.70974218753
 20
735.3141178468021
 10
8746.70974218753
 20
738.0495544264755
 10
8761.701956560913
 20
764.1745494427838
 10
8770.546459418652
 20
758.6586140455888
 10
8777.571078646908
 20
758.6586140455888
 10
8786.351852682228
 20
753.1824235693985
 10
8791.646352869831
 20
753.1824235693985
 10
8793.408937573931
 20
750.4343032068755
 10
8807.458176030443
 20
747.6962079687803
 10
8815.399779663023
 20
735.3141178468021
 10
8815.399779663023
 20
729.8290964032086
 10
8818.90076129583
 20
721.641303591132
 10
8829.443007404032
 20
705.2044417885237
 10
8831.199162211096
 20
696.990156074238
 10
8836.486412495451
 20
688.7465805261262
 10
8829.449018119534
 20
672.2881316879692
 10
8829.449018119534
 20
666.8067480087909
 10
8818.912089277152
 20
647.6400813421242
 10
8818.912089277152
 20
642.1690840689216
 10
8815.388451681702
 20
633.9283054524269
 10
8810.954420929846
 20
627.0150205652462
 10
8800.309424204705
 20
629.781198004484
  0
LWPOLYLINE
  5
39
330
17
100
AcDbEntity
  8
K
100
AcDbPolyline
 90
28
 70
1
 10
9421.549069383138
 20
618.8200583835644
 10
9418.221450013403
 20
624.2919473789221
 10
9413.238187991055
 20
624.2919473789221
 10
9408.242835147717
 20
629.7681378551127
 10
9404.900509097832
 20
629.7681378551127
 10
9401.57027386894
 20
635.2443283313032
 10
9396.5749210256
 20
635.2443283313032
 10
9393.244685796708
 20
640.7205188074936
 10
9389.923018530026
 20
640.7205188074936
 10
9383.26254807224
 20
648.9348045217796
 10
9378.264583302544
 20
648.9348045217796
 10
9369.02896966576
 20
661.3604573570966
 10
9374.938423042198
 20
668.301471188446
 10
9379.944139718435
 20
668.301471188446
 10
9393.22429095941
 20
679.22031516638
 10
9396.554526188302
 20
684.6965056425704
 10
9423.23719769404
 20
706.6348045217794
 10
9428.224246521075
 20
706.6348045217794
 10
9438.275169399325
 20
717.6531989913924
 10
9440.856764211905
 20
713.4080619502108
 10
9440.856764211905
 20
696.923451855253
 10
9437.525119941398
 20
691.4449443714846
 10
9435.862692451774
 20
658.6408847408974
 10
9448.309621681152
 20
635.4443283313032
 10
9449.971137494835
 20
635.4443283313032
 10
9459.190097365425
 20
620.2848045217795
 10
9456.628874515174
 20
616.0731668397739
 10
9421.549069383138
 20
618.8200583835644
  0
ENDSEC
  0
SECTION
  2
OBJECTS
  0
DICTIONARY
  5
A
330
0
100
AcDbDictionary
281
1
  3
ACAD_COLOR
350
B
  3
ACAD_GROUP
350
C
  3
ACAD_LAYOUT
350
D
  3
ACAD_MATERIAL
350
E
  3
ACAD_MLEADERSTYLE
350
F
  3
ACAD_MLINESTYLE
350
10
  3
ACAD_PLOTSETTINGS
350
11
  3
ACAD_PLOTSTYLENAME
350
12
  3
ACAD_SCALELIST
350
14
  3
ACAD_TABLESTYLE
350
15
  3
ACAD_VISUALSTYLE
350
16
  3
EZDXF_META
350
2D
  0
DICTIONARY
  5
B
330
A
100
AcDbDictionary
281
1
  0
DICTIONARY
  5
C
330
A
100
AcDbDictionary
281
1
  0
DICTIONARY
  5
D
330
A
100
AcDbDictionary
281
1
  3
Model
350
1A
  3
Layout1
350
1E
  0
DICTIONARY
  5
E
330
A
100
AcDbDictionary
281
1
  3
ByBlock
350
1F
  3
ByLayer
350
20
  3
Global
350
21
  0
DICTIONARY
  5
F
330
A
100
AcDbDictionary
281
1
  3
Standard
350
2C
  0
DICTIONARY
  5
10
330
A
100
AcDbDictionary
281
1
  3
Standard
350
22
  0
DICTIONARY
  5
11
330
A
100
AcDbDictionary
281
1
  0
ACDBDICTIONARYWDFLT
  5
12
330
A
100
AcDbDictionary
281
1
  3
Normal
350
13
100
AcDbDictionaryWithDefault
340
13
  0
ACDBPLACEHOLDER
  5
13
330
12
  0
DICTIONARY
  5
14
330
A
100
AcDbDictionary
281
1
  0
DICTIONARY
  5
15
330
A
100
AcDbDictionary
281
1
  0
DICTIONARY
  5
16
330
A
100
AcDbDictionary
281
1
  0
LAYOUT
  5
1A
330
D
100
AcDbPlotSettings
  1

  4
A3
  6

 40
7.5
 41
20.0
 42
7.5
 43
20.0
 44
420.0
 45
297.0
 46
0.0
 47
0.0
 48
0.0
 49
0.0
140
0.0
141
0.0
142
1.0
143
1.0
 70
1024
 72
1
 73
0
 74
5
  7

 75
16
 76
0
 77
2
 78
300
147
1.0
148
0.0
149
0.0
100
AcDbLayout
  1
Model
 70
1
 71
0
 10
0.0
 20
0.0
 11
420.0
 21
297.0
 12
0.0
 22
0.0
 32
0.0
 14
1e+20
 24
1e+20
 34
1e+20
 15
-1e+20
 25
-1e+20
 35
-1e+20
146
0.0
 13
0.0
 23
0.0
 33
0.0
 16
1.0
 26
0.0
 36
0.0
 17
0.0
 27
1.0
 37
0.0
 76
1
330
17
  0
LAYOUT
  5
1E
330
D
100
AcDbPlotSettings
  1

  4
A3
  6

 40
7.5
 41
20.0
 42
7.5
 43
20.0
 44
420.0
 45
297.0
 46
0.0
 47
0.0
 48
0.0
 49
0.0
140
0.0
141
0.0
142
1.0
143
1.0
 70
0
 72
1
 73
0
 74
5
  7

 75
16
 76
0
 77
2
 78
300
147
1.0
148
0.0
149
0.0
100
AcDbLayout
  1
Layout1
 70
1
 71
1
 10
0.0
 20
0.0
 11
420.0
 21
297.0
 12
0.0
 22
0.0
 32
0.0
 14
1e+20
 24
1e+20
 34
1e+20
 15
-1e+20
 25
-1e+20
 35
-1e+20
146
0.0
 13
0.0
 23
0.0
 33
0.0
 16
1.0
 26
0.0
 36
0.0
 17
0.0
 27
1.0
 37
0.0
 76
1
330
1B
  0
MATERIAL
  5
1F
102
{ACAD_REACTORS
330
E
102
}
330
E
100
AcDbMaterial
  1
ByBlock
  2

 70
0
 40
1.0
 71
1
 41
1.0
 91
-1023410177
 42
1.0
 72
1
  3

 73
1
 74
1
 75
1
 44
0.5
 73
0
 45
1.0
 46
1.0
 77
1
  4

 78
1
 79
1
170
1
 48
1.0
171
1
  6

172
1
173
1
174
1
140
1.0
141
1.0
175
1
  7

176
1
177
1
178
1
143
1.0
179
1
  8

270
1
271
1
272
1
145
1.0
146
1.0
273
1
  9

274
1
275
1
276
1
 42
1.0
 72
1
  3

 73
1
 74
1
 75
1
 94
63
  0
MATERIAL
  5
20
102
{ACAD_REACTORS
330
E
102
}
330
E
100
AcDbMaterial
  1
ByLayer
  2

 70
0
 40
1.0
 71
1
 41
1.0
 91
-1023410177
 42
1.0
 72
1
  3

 73
1
 74
1
 75
1
 44
0.5
 73
0
 45
1.0
 46
1.0
 77
1
  4

 78
1
 79
1
170
1
 48
1.0
171
1
  6

172
1
173
1
174
1
140
1.0
141
1.0
175
1
  7

176
1
177
1
178
1
143
1.0
179
1
  8

270
1
271
1
272
1
145
1.0
146
1.0
273
1
  9

274
1
275
1
276
1
 42
1.0
 72
1
  3

 73
1
 74
1
 75
1
 94
63
  0
MATERIAL
  5
21
102
{ACAD_REACTORS
330
E
102
}
330
E
100
AcDbMaterial
  1
Global
  2

 70
0
 40
1.0
 71
1
 41
1.0
 91
-1023410177
 42
1.0
 72
1
  3

 73
1
 74
1
 75
1
 44
0.5
 73
0
 45
1.0
 46
1.0
 77
1
  4

 78
1
 79
1
170
1
 48
1.0
171
1
  6

172
1
173
1
174
1
140
1.0
141
1.0
175
1
  7

176
1
177
1
178
1
143
1.0
179
1
  8

270
1
271
1
272
1
145
1.0
146
1.0
273
1
  9

274
1
275
1
276
1
 42
1.0
 72
1
  3

 73
1
 74
1
 75
1
 94
63
  0
MLINESTYLE
  5
22
102
{ACAD_REACTORS
330
10
102
}
330
10
100
AcDbMlineStyle
  2
Standard
 70
0
  3

 62
256
 51
90.0
 52
90.0
 71
2
 49
0.5
 62
256
  6
BYLAYER
 49
-0.5
 62
256
  6
BYLAYER
  0
MLEADERSTYLE
  5
2C
102
{ACAD_REACTORS
330
F
102
}
330
F
100
AcDbMLeaderStyle
179
2
170
2
171
1
172
0
 90
2
 40
0.0
 41
0.0
173
1
 91
-1056964608
 92
-2
290
1
 42
2.0
291
1
 43
8.0
  3
Standard
 44
4.0
300

342
29
174
1
175
1
176
0
178
1
 93
-1056964608
 45
4.0
292
0
297
0
 46
4.0
 94
-1056964608
 47
1.0
 49
1.0
140
1.0
294
1
141
0.0
177
0
142
1.0
295
0
296
0
143
3.75
271
0
272
9
273
9
  0
DICTIONARY
  5
2D
330
A
100
AcDbDictionary
280
1
281
1
  3
CREATED_BY_EZDXF
350
2E
  3
WRITTEN_BY_EZDXF
350
3C
  0
DICTIONARYVAR
  5
2E
330
2D
100
DictionaryVariables
280
0
  1
1.4.4 @ 2026-07-14T08:49:52.902126+00:00
  0
DICTIONARYVAR
  5
3C
330
2D
100
DictionaryVariables
280
0
  1
1.4.4 @ 2026-07-14T08:49:52.905623+00:00
  0
ENDSEC
  0
EOF
