  0
SECTION
  2
HEADER
  9
$ACADVER
  1
AC1027
  9
$ACADMAINTVER
 70
105
  9
$DWGCODEPAGE
  3
ANSI_1252
  9
$LASTSAVEDBY
  1
ezdxf
  9
$REQUIREDVERSIONS
160
0
  9
$INSBASE
 10
0.0
 20
0.0
 30
0.0
  9
$EXTMIN
 10
1e+20
 20
1e+20
 30
1e+20
  9
$EXTMAX
 10
-1e+20
 20
-1e+20
 30
-1e+20
  9
$LIMMIN
 10
0.0
 20
0.0
  9
$LIMMAX
 10
420.0
 20
297.0
  9
$ORTHOMODE
 70
0
  9
$REGENMODE
 70
1
  9
$FILLMODE
 70
1
  9
$QTEXTMODE
 70
0
  9
$MIRRTEXT
 70
1
  9
$LTSCALE
 40
1.0
  9
$ATTMODE
 70
1
  9
$TEXTSIZE
 40
2.5
  9
$TRACEWID
 40
1.0
  9
$TEXTSTYLE
  7
Standard
  9
$CLAYER
  8
0
  9
$CELTYPE
  6
ByLayer
  9
$CECOLOR
 62
256
  9
$CELTSCALE
 40
1.0
  9
$DISPSILH
 70
0
  9
$DIMSCALE
 40
1.0
  9
$DIMASZ
 40
2.5
  9
$DIMEXO
 40
0.625
  9
$DIMDLI
 40
3.75
  9
$DIMRND
 40
0.0
  9
$DIMDLE
 40
0.0
  9
$DIMEXE
 40
1.25
  9
$DIMTP
 40
0.0
  9
$DIMTM
 40
0.0
  9
$DIMTXT
 40
2.5
  9
$DIMCEN
 40
2.5
  9
$DIMTSZ
 40
0.0
  9
$DIMTOL
 70
0
  9
$DIMLIM
 70
0
  9
$DIMTIH
 70
0
  9
$DIMTOH
 70
0
  9
$DIMSE1
 70
0
  9
$DIMSE2
 70
0
  9
$DIMTAD
 70
1
  9
$DIMZIN
 70
8
  9
$DIMBLK
  1

  9
$DIMASO
 70
1
  9
$DIMSHO
 70
1
  9
$DIMPOST
  1

  9
$DIMAPOST
  1

  9
$DIMALT
 70
0
  9
$DIMALTD
 70
3
  9
$DIMALTF
 40
0.03937007874
  9
$DIMLFAC
 40
1.0
  9
$DIMTOFL
 70
1
  9
$DIMTVP
 40
0.0
  9
$DIMTIX
 70
0
  9
$DIMSOXD
 70
0
  9
$DIMSAH
 70
0
  9
$DIMBLK1
  1

  9
$DIMBLK2
  1

  9
$DIMSTYLE
  2
ISO-25
  9
$DIMCLRD
 70
0
  9
$DIMCLRE
 70
0
  9
$DIMCLRT
 70
0
  9
$DIMTFAC
 40
1.0
  9
$DIMGAP
 40
0.625
  9
$DIMJUST
 70
0
  9
$DIMSD1
 70
0
  9
$DIMSD2
 70
0
  9
$DIMTOLJ
 70
0
  9
$DIMTZIN
 70
8
  9
$DIMALTZ
 70
0
  9
$DIMALTTZ
 70
0
  9
$DIMUPT
 70
0
  9
$DIMDEC
 70
2
  9
$DIMTDEC
 70
2
  9
$DIMALTU
 70
2
  9
$DIMALTTD
 70
3
  9
$DIMTXSTY
  7
Standard
  9
$DIMAUNIT
 70
0
  9
$DIMADEC
 70
0
  9
$DIMALTRND
 40
0.0
  9
$DIMAZIN
 70
0
  9
$DIMDSEP
 70
44
  9
$DIMATFIT
 70
3
  9
$DIMFRAC
 70
0
  9
$DIMLDRBLK
  1

  9
$DIMLUNIT
 70
2
  9
$DIMLWD
 70
-2
  9
$DIMLWE
 70
-2
  9
$DIMTMOVE
 70
0
  9
$DIMFXL
 40
1.0
  9
$DIMFXLON
 70
0
  9
$DIMJOGANG
 40
0.785398163397
  9
$DIMTFILL
 70
0
  9
$DIMTFILLCLR
 70
0
  9
$DIMARCSYM
 70
0
  9
$DIMLTYPE
  6

  9
$DIMLTEX1
  6

  9
$DIMLTEX2
  6

  9
$DIMTXTDIRECTION
 70
0
  9
$LUNITS
 70
2
  9
$LUPREC
 70
4
  9
$SKETCHINC
 40
1.0
  9
$FILLETRAD
 40
10.0
  9
$AUNITS
 70
0
  9
$AUPREC
 70
2
  9
$MENU
  1
.
  9
$ELEVATION
 40
0.0
  9
$PELEVATION
 40
0.0
  9
$THICKNESS
 40
0.0
  9
$LIMCHECK
 70
0
  9
$CHAMFERA
 40
0.0
  9
$CHAMFERB
 40
0.0
  9
$CHAMFERC
 40
0.0
  9
$CHAMFERD
 40
0.0
  9
$SKPOLY
 70
0
  9
$TDCREATE
 40
2461236.492962963
  9
$TDUCREATE
 40
2458532.153996898
  9
$TDUPDATE
 40
2461236.492962963
  9
$TDUUPDATE
 40
2458532.1544311
  9
$TDINDWG
 40
0.0
  9
$TDUSRTIMER
 40
0.0
  9
$USRTIMER
 70
1
  9
$ANGBASE
 50
0.0
  9
$ANGDIR
 70
0
  9
$PDMODE
 70
0
  9
$PDSIZE
 40
0.0
  9
$PLINEWID
 40
0.0
  9
$SPLFRAME
 70
0
  9
$SPLINETYPE
 70
6
  9
$SPLINESEGS
 70
8
  9
$HANDSEED
  5
61
  9
$SURFTAB1
 70
6
  9
$SURFTAB2
 70
6
  9
$SURFTYPE
 70
6
  9
$SURFU
 70
6
  9
$SURFV
 70
6
  9
$UCSBASE
  2

  9
$UCSNAME
  2

  9
$UCSORG
 10
0.0
 20
0.0
 30
0.0
  9
$UCSXDIR
 10
1.0
 20
0.0
 30
0.0
  9
$UCSYDIR
 10
0.0
 20
1.0
 30
0.0
  9
$UCSORTHOREF
  2

  9
$UCSORTHOVIEW
 70
0
  9
$UCSORGTOP
 10
0.0
 20
0.0
 30
0.0
  9
$UCSORGBOTTOM
 10
0.0
 20
0.0
 30
0.0
  9
$UCSORGLEFT
 10
0.0
 20
0.0
 30
0.0
  9
$UCSORGRIGHT
 10
0.0
 20
0.0
 30
0.0
  9
$UCSORGFRONT
 10
0.0
 20
0.0
 30
0.0
  9
$UCSORGBACK
 10
0.0
 20
0.0
 30
0.0
  9
$PUCSBASE
  2

  9
$PUCSNAME
  2

  9
$PUCSORG
 10
0.0
 20
0.0
 30
0.0
  9
$PUCSXDIR
 10
1.0
 20
0.0
 30
0.0
  9
$PUCSYDIR
 10
0.0
 20
1.0
 30
0.0
  9
$PUCSORTHOREF
  2

  9
$PUCSORTHOVIEW
 70
0
  9
$PUCSORGTOP
 10
0.0
 20
0.0
 30
0.0
  9
$PUCSORGBOTTOM
 10
0.0
 20
0.0
 30
0.0
  9
$PUCSORGLEFT
 10
0.0
 20
0.0
 30
0.0
  9
$PUCSORGRIGHT
 10
0.0
 20
0.0
 30
0.0
  9
$PUCSORGFRONT
 10
0.0
 20
0.0
 30
0.0
  9
$PUCSORGBACK
 10
0.0
 20
0.0
 30
0.0
  9
$USERI1
 70
0
  9
$USERI2
 70
0
  9
$USERI3
 70
0
  9
$USERI4
 70
0
  9
$USERI5
 70
0
  9
$USERR1
 40
0.0
  9
$USERR2
 40
0.0
  9
$USERR3
 40
0.0
  9
$USERR4
 40
0.0
  9
$USERR5
 40
0.0
  9
$WORLDVIEW
 70
1
  9
$SHADEDGE
 70
3
  9
$SHADEDIF
 70
70
  9
$TILEMODE
 70
1
  9
$MAXACTVP
 70
64
  9
$PINSBASE
 10
0.0
 20
0.0
 30
0.0
  9
$PLIMCHECK
 70
0
  9
$PEXTMIN
 10
1e+20
 20
1e+20
 30
1e+20
  9
$PEXTMAX
 10
-1e+20
 20
-1e+20
 30
-1e+20
  9
$PLIMMIN
 10
0.0
 20
0.0
  9
$PLIMMAX
 10
420.0
 20
297.0
  9
$UNITMODE
 70
0
  9
$VISRETAIN
 70
1
  9
$PLINEGEN
 70
0
  9
$PSLTSCALE
 70
1
  9
$TREEDEPTH
 70
3020
  9
$CMLSTYLE
  2
Standard
  9
$CMLJUST
 70
0
  9
$CMLSCALE
 40
20.0
  9
$PROXYGRAPHICS
 70
1
  9
$MEASUREMENT
 70
1
  9
$CELWEIGHT
370
-1
  9
$ENDCAPS
280
0
  9
$JOINSTYLE
280
0
  9
$LWDISPLAY
290
0
  9
$INSUNITS
 70
4
  9
$HYPERLINKBASE
  1

  9
$STYLESHEET
  1

  9
$XEDIT
290
1
  9
$CEPSNTYPE
380
0
  9
$PSTYLEMODE
290
1
  9
$FINGERPRINTGUID
  2
{2A00CCBD-60CA-440C-A6DA-F74779950C22}
  9
$VERSIONGUID
  2
{6FBDA6EB-3ED5-4578-809E-84E145B21697}
  9
$EXTNAMES
290
1
  9
$PSVPSCALE
 40
0.0
  9
$OLESTARTUP
290
0
  9
$SORTENTS
280
127
  9
$INDEXCTL
280
0
  9
$HIDETEXT
280
1
  9
$XCLIPFRAME
280
1
  9
$HALOGAP
280
0
  9
$OBSCOLOR
 70
257
  9
$OBSLTYPE
280
0
  9
$INTERSECTIONDISPLAY
280
0
  9
$INTERSECTIONCOLOR
 70
257
  9
$DIMASSOC
280
2
  9
$PROJECTNAME
  1

  9
$CAMERADISPLAY
290
0
  9
$LENSLENGTH
 40
50.0
  9
$CAMERAHEIGHT
 40
0.0
  9
$STEPSPERSEC
 40
24.0
  9
$STEPSIZE
 40
100.0
  9
$3DDWFPREC
 40
2.0
  9
$PSOLWIDTH
 40
0.005
  9
$PSOLHEIGHT
 40
0.08
  9
$LOFTANG1
 40
1.570796326795
  9
$LOFTANG2
 40
1.570796326795
  9
$LOFTMAG1
 40
0.0
  9
$LOFTMAG2
 40
0.0
  9
$LOFTPARAM
 70
7
  9
$LOFTNORMALS
280
1
  9
$LATITUDE
 40
37.795
  9
$LONGITUDE
 40
-122.394
  9
$NORTHDIRECTION
 40
0.0
  9
$TIMEZONE
 70
-8000
  9
$LIGHTGLYPHDISPLAY
280
1
  9
$TILEMODELIGHTSYNCH
280
1
  9
$CMATERIAL
347
20
  9
$SOLIDHIST
280
0
  9
$SHOWHIST
280
1
  9
$DWFFRAME
280
2
  9
$DGNFRAME
280
2
  9
$REALWORLDSCALE
290
1
  9
$INTERFERECOLOR
 62
256
  9
$CSHADOW
280
0
  9
$SHADOWPLANELOCATION
 40
0.0
  0
ENDSEC
  0
SECTION
  2
CLASSES
  0
CLASS
  1
ACDBDICTIONARYWDFLT
  2
AcDbDictionaryWithDefault
  3
ObjectDBX Classes
 90
0
 91
0
280
0
281
0
  0
CLASS
  1
SUN
  2
AcDbSun
  3
SCENEOE
 90
1153
 91
0
280
0
281
0
  0
CLASS
  1
VISUALSTYLE
  2
AcDbVisualStyle
  3
ObjectDBX Classes
 90
4095
 91
0
280
0
281
0
  0
CLASS
  1
MATERIAL
  2
AcDbMaterial
  3
ObjectDBX Classes
 90
1153
 91
0
280
0
281
0
  0
CLASS
  1
SCALE
  2
AcDbScale
  3
ObjectDBX Classes
 90
1153
 91
0
280
0
281
0
  0
CLASS
  1
TABLESTYLE
  2
AcDbTableStyle
  3
ObjectDBX Classes
 90
4095
 91
0
280
0
281
0
  0
CLASS
  1
MLEADERSTYLE
  2
AcDbMLeaderStyle
  3
ACDB_MLEADERSTYLE_CLASS
 90
4095
 91
0
280
0
281
0
  0
CLASS
  1
DICTIONARYVAR
  2
AcDbDictionaryVar
  3
ObjectDBX Classes
 90
0
 91
0
280
0
281
0
  0
CLASS
  1
CELLSTYLEMAP
  2
AcDbCellStyleMap
  3
ObjectDBX Classes
 90
1152
 91
0
280
0
281
0
  0
CLASS
  1
MENTALRAYRENDERSETTINGS
  2
AcDbMentalRayRenderSettings
  3
SCENEOE
 90
1024
 91
0
280
0
281
0
  0
CLASS
  1
ACDBDETAILVIEWSTYLE
  2
AcDbDetailViewStyle
  3
ObjectDBX Classes
 90
1025
 91
0
280
0
281
0
  0
CLASS
  1
ACDBSECTIONVIEWSTYLE
  2
AcDbSectionViewStyle
  3
ObjectDBX Classes
 90
1025
 91
0
280
0
281
0
  0
CLASS
  1
RASTERVARIABLES
  2
AcDbRasterVariables
  3
ISM
 90
0
 91
0
280
0
281
0
  0
CLASS
  1
LAYOUT
  2
AcDbLayout
  3
ObjectDBX Classes
 90
0
 91
0
280
0
281
0
  0
CLASS
  1
ACDBPLACEHOLDER
  2
AcDbPlaceHolder
  3
ObjectDBX Classes
 90
0
 91
0
280
0
281
0
  0
ENDSEC
  0
SECTION
  2
TABLES
  0
TABLE
  2
VPORT
  5
8
330
0
100
AcDbSymbolTable
 70
1
  0
VPORT
  5
23
330
8
100
AcDbSymbolTableRecord
100
AcDbViewportTableRecord
  2
*Active
 70
0
 10
0.0
 20
0.0
 11
1.0
 21
1.0
 12
0.0
 22
0.0
 13
0.0
 23
0.0
 14
0.5
 24
0.5
 15
0.5
 25
0.5
 16
0.0
 26
0.0
 36
1.0
 17
0.0
 27
0.0
 37
0.0
 40
1000.0
 41
1.34
 42
50.0
 43
0.0
 44
0.0
 50
0.0
 51
0.0
 71
0
 72
1000
 73
1
 74
3
 75
0
 76
0
 77
0
 78
0
281
0
 65
0
146
0.0
  0
ENDTAB
  0
TABLE
  2
LTYPE
  5
2
330
0
100
AcDbSymbolTable
 70
3
  0
LTYPE
  5
24
330
2
100
AcDbSymbolTableRecord
100
AcDbLinetypeTableRecord
  2
ByBlock
 70
0
  3

 72
65
 73
0
 40
0.0
  0
LTYPE
  5
25
330
2
100
AcDbSymbolTableRecord
100
AcDbLinetypeTableRecord
  2
ByLayer
 70
0
  3

 72
65
 73
0
 40
0.0
  0
LTYPE
  5
26
330
2
100
AcDbSymbolTableRecord
100
AcDbLinetypeTableRecord
  2
Continuous
 70
0
  3

 72
65
 73
0
 40
0.0
  0
ENDTAB
  0
TABLE
  2
LAYER
  5
1
330
0
100
AcDbSymbolTable
 70
3
  0
LAYER
  5
27
330
1
100
AcDbSymbolTableRecord
100
AcDbLayerTableRecord
  2
0
 70
0
 62
7
  6
Continuous
370
-3
390
13
347
21
  0
LAYER
  5
28
330
1
100
AcDbSymbolTableRecord
100
AcDbLayerTableRecord
  2
Defpoints
 70
0
 62
7
  6
Continuous
290
0
370
-3
390
13
347
21
  0
LAYER
  5
2F
330
1
100
AcDbSymbolTableRecord
100
AcDbLayerTableRecord
  2
M
 70
0
 62
7
  6
Continuous
370
-3
390
13
347
21
  0
ENDTAB
  0
TABLE
  2
STYLE
  5
5
330
0
100
AcDbSymbolTable
 70
1
  0
STYLE
  5
29
330
5
100
AcDbSymbolTableRecord
100
AcDbTextStyleTableRecord
  2
Standard
 70
0
 40
0.0
 41
1.0
 50
0.0
 71
0
 42
2.5
  3
txt
  4

  0
ENDTAB
  0
TABLE
  2
VIEW
  5
7
330
0
100
AcDbSymbolTable
 70
0
  0
ENDTAB
  0
TABLE
  2
UCS
  5
6
330
0
100
AcDbSymbolTable
 70
0
  0
ENDTAB
  0
TABLE
  2
APPID
  5
3
330
0
100
AcDbSymbolTable
 70
3
  0
APPID
  5
2A
330
3
100
AcDbSymbolTableRecord
100
AcDbRegAppTableRecord
  2
ACAD
 70
0
  0
APPID
  5
5E
330
3
100
AcDbSymbolTableRecord
100
AcDbRegAppTableRecord
  2
HATCHBACKGROUNDCOLOR
 70
0
  0
APPID
  5
5F
330
3
100
AcDbSymbolTableRecord
100
AcDbRegAppTableRecord
  2
EZDXF
 70
0
  0
ENDTAB
  0
TABLE
  2
DIMSTYLE
  5
4
330
0
100
AcDbSymbolTable
 70
1
100
AcDbDimStyleTable
  0
DIMSTYLE
105
2B
330
4
100
AcDbSymbolTableRecord
100
AcDbDimStyleTableRecord
  2
Standard
 70
0
 40
1.0
 41
2.5
 42
0.625
 43
3.75
 44
1.25
 45
0.0
 46
0.0
 47
0.0
 48
0.0
 49
2.5
140
2.5
141
2.5
142
0.0
143
0.03937007874
144
1.0
145
0.0
146
1.0
147
0.625
148
0.0
 69
0
 70
0
 71
0
 72
0
 73
0
 74
0
 75
0
 76
0
 77
1
 78
8
 79
3
170
0
171
3
172
1
173
0
174
0
175
0
176
0
177
0
178
0
179
2
271
2
272
2
273
2
274
3
275
0
276
0
277
2
278
44
279
0
280
0
281
0
282
0
283
0
284
8
285
0
286
0
288
0
289
3
290
0
371
-2
372
-2
  0
ENDTAB
  0
TABLE
  2
BLOCK_RECORD
  5
9
330
0
100
AcDbSymbolTable
 70
2
  0
BLOCK_RECORD
  5
17
330
9
100
AcDbSymbolTableRecord
100
AcDbBlockTableRecord
  2
*Model_Space
340
1A
 70
0
280
1
281
0
  0
BLOCK_RECORD
  5
1B
330
9
100
AcDbSymbolTableRecord
100
AcDbBlockTableRecord
  2
*Paper_Space
340
1E
 70
0
280
1
281
0
  0
ENDTAB
  0
ENDSEC
  0
SECTION
  2
BLOCKS
  0
BLOCK
  5
18
330
17
100
AcDbEntity
  8
0
100
AcDbBlockBegin
  2
*Model_Space
 70
0
 10
0.0
 20
0.0
 30
0.0
  3
*Model_Space
  1

  0
ENDBLK
  5
19
330
17
100
AcDbEntity
  8
0
100
AcDbBlockEnd
  0
BLOCK
  5
1C
330
1B
100
AcDbEntity
  8
0
100
AcDbBlockBegin
  2
*Paper_Space
 70
0
 10
0.0
 20
0.0
 30
0.0
  3
*Paper_Space
  1

  0
ENDBLK
  5
1D
330
1B
100
AcDbEntity
  8
0
100
AcDbBlockEnd
  0
ENDSEC
  0
SECTION
  2
ENTITIES
  0
LWPOLYLINE
  5
30
330
17
100
AcDbEntity
  8
M
100
AcDbPolyline
 90
34
 70
1
 10
385.06456412358307
 20
361.4671319697869
 10
365.769251001642
 20
380.6337986364536
 10
356.08110653526205
 20
395.7565221019412
 10
365.79282658643984
 20
410.91604591146495
 10
420.2799218490206
 20
410.91604591146495
 10
422.0404744387952
 20
408.1679087367975
 10
436.0734294365705
 20
405.4298134987023
 10
437.82111559623974
 20
402.7017601971792
 10
441.2199596994824
 20
402.7017601971792
 10
442.9740790742043
 20
405.4398554352746
 10
464.02351157086736
 20
405.4398554352746
 10
465.7776309455893
 20
408.17795067336976
 10
486.93645808845355
 20
408.17795067336976
 10
489.6129398274358
 20
404.00009253556885
 10
489.6129398274358
 20
384.7748564302183
 10
486.9463207554123
 20
380.61239343702596
 10
478.17572388180264
 20
377.8742981989308
 10
476.411741840122
 20
375.1208078162269
 10
467.61510315824535
 20
375.1208078162269
 10
458.84450628463577
 20
369.64461734003646
 10
453.608189968737
 20
369.64461734003646
 10
451.8540705940151
 20
366.9065221019412
 10
444.72819844892626
 20
366.9065221019412
 10
440.29759733522206
 20
373.8224754778374
 10
440.29759733522206
 20
379.2986659540278
 10
434.20348220059475
 20
388.8112840067031
 10
432.56240415207367
 20
388.8112840067031
 10
419.44275980580034
 20
365.6016052785989
 10
417.6893486346318
 20
357.3906359784726
 10
412.4191809434882
 20
346.4220012192247
 10
406.1922695281446
 20
336.70209461532204
 10
397.35501647125176
 20
350.49661787389834
 10
390.33853897236406
 20
353.2347131119936
 10
385.06456412358307
 20
361.4671319697869
  0
LWPOLYLINE
  5
31
330
17
100
AcDbEntity
  8
M
100
AcDbPolyline
 90
35
 70
1
 10
427.18700470170705
 20
460.00176019717924
 10
416.66228845337554
 20
460.00176019717924
 10
414.90816907865366
 20
462.7398554352746
 10
404.3834528303221
 20
462.7398554352746
 10
402.6249497609603
 20
465.48479340801566
 10
381.5755172642973
 20
468.2228886461109
 10
377.1492998452329
 20
475.1319992873611
 10
377.1492998452329
 20
486.1429496784259
 10
380.6575385946768
 20
491.61914015461645
 10
380.6575385946768
 20
521.752255637701
 10
385.1305895496147
 20
525.941584948797
 10
393.91343390509115
 20
520.4577473826166
 10
411.42597213747683
 20
531.3922363876555
 10
414.92846177567276
 20
531.3922363876555
 10
425.44580747369935
 20
539.6007695662292
 10
441.32302384337214
 20
542.3544989470033
 10
443.0834737204055
 20
539.6065221019411
 10
450.07390941102614
 20
539.6065221019411
 10
458.84450628463577
 20
534.1303316257506
 10
464.1329062170685
 20
534.1303316257506
 10
465.88702559179046
 20
531.3922363876555
 10
471.1493837159562
 20
531.3922363876555
 10
472.90350309067816
 20
528.6541411495602
 10
481.6567231638856
 20
528.6541411495602
 10
489.6129398274358
 20
521.7545477082091
 10
489.6129398274358
 20
477.8700945254564
 10
486.9463207554123
 20
473.7076315322641
 10
478.17572388180264
 20
470.9695362941688
 10
474.65762246540004
 20
465.4779506733698
 10
471.13727891565435
 20
465.4779506733698
 10
465.8749207914886
 20
460.00176019717924
 10
458.8584432926009
 20
460.00176019717924
 10
453.5914254783818
 20
454.52072068759156
 10
428.9373440983253
 20
457.269565321508
 10
427.18700470170705
 20
460.00176019717924
  0
LWPOLYLINE
  5
32
330
17
100
AcDbEntity
  8
M
100
AcDbPolyline
 90
26
 70
1
 10
445.5599554593878
 20
280.78580682128313
 10
447.3140748341097
 20
283.5239020593783
 10
447.3140748341097
 20
305.4286639641402
 10
450.8223135835536
 20
310.9048544403307
 10
450.8223135835536
 20
316.314864991829
 10
443.7816091306234
 20
324.55751353098276
 10
446.48231782364815
 20
328.7731887686078
 10
451.7446759478139
 20
328.7731887686078
 10
453.49879532253584
 20
331.5112840067031
 10
465.7776309455893
 20
331.5112840067031
 10
467.5317503203112
 20
334.2493792447983
 10
474.54822781919887
 20
334.2493792447983
 10
476.29396672418665
 20
336.9743929762397
 10
486.9268163316635
 20
339.74062003554235
 10
489.6129398274358
 20
335.5477115831879
 10
489.6129398274358
 20
288.9325329341971
 10
483.4181614450404
 20
282.02556972098876
 10
479.9199805895658
 20
282.02556972098876
 10
476.411741840122
 20
276.54937924479833
 10
472.90350309067816
 20
276.54937924479833
 10
469.3952643412343
 20
271.0731887686078
 10
465.88702559179046
 20
271.0731887686078
 10
462.37549358008783
 20
265.591857669813
 10
447.3562452656627
 20
266.9709351944814
 10
445.5599554593878
 20
269.77485643021845
 10
445.5599554593878
 20
280.78580682128313
  0
LWPOLYLINE
  5
33
330
17
100
AcDbEntity
  8
M
100
AcDbPolyline
 90
134
 70
1
 10
8.800862257039965
 20
716.0555273156392
 10
0.0
 20
735.2883338954849
 10
3.5218730294639955
 20
740.7858068212831
 10
3.5218730294639955
 20
770.9048544403307
 10
6.210012098174012
 20
775.1009091042498
 10
14.980608971783605
 20
772.3628138661545
 10
16.72307101677778
 20
775.0827125781317
 10
23.765590323932496
 20
775.0827125781317
 10
32.53618719754214
 20
780.5589030543221
 10
41.280742262884694
 20
780.5589030543221
 10
43.02499897064793
 20
783.2816031478087
 10
51.79559584425753
 20
786.019698385904
 10
54.39133489639969
 20
790.0715211069974
 10
54.39133489639969
 20
798.2272373825991
 10
52.637215521677774
 20
800.9653326206947
 10
52.637215521677774
 20
820.1319992873613
 10
49.12897677223393
 20
825.6081897635519
 10
49.12897677223393
 20
833.8810449165211
 10
55.289487660056594
 20
843.4973035185646
 10
71.1712503409987
 20
860.0244108507516
 10
72.9219262470795
 20
857.2916907001357
 10
85.95932742182943
 20
872.2155745387402
 10
84.21492464193791
 20
883.107286958707
 10
78.94900614250655
 20
894.0670780084861
 10
78.94900614250655
 20
899.5953306308066
 10
88.61919361522641
 20
914.6900241004232
 10
97.42774343075294
 20
922.9398554352746
 10
100.93007341490178
 20
922.9398554352746
 10
127.23054718959465
 20
953.0459486859714
 10
135.9933258309098
 20
955.7816031478088
 10
137.75730787259033
 20
958.5350935305125
 10
146.5279047461999
 20
958.5350935305125
 10
148.28202412092185
 20
961.273188768608
 10
151.89965751656675
 20
961.273188768608
 10
153.59907956818813
 20
958.6204733980838
 10
155.2932861156707
 20
961.2650476196916
 10
172.8344798628899
 20
964.0031428577867
 10
174.59381474175063
 20
966.7493792447983
 10
179.8647730342712
 20
966.7493792447983
 10
186.8812505331589
 20
974.9636649590841
 10
225.55237855786817
 20
974.9636649590841
 10
229.10120270135045
 20
972.1938938054968
 10
231.77615255662135
 20
968.0184268638459
 10
229.08091000433123
 20
963.811284006703
 10
227.32679062960932
 20
963.811284006703
 10
218.57648645301893
 20
950.1524837317188
 10
211.5650103876101
 20
944.6801967530296
 10
206.30468649608105
 20
933.7320495852479
 10
201.96644611761297
 20
929.6689799356539
 10
204.52323875822435
 20
925.6779506733697
 10
246.51270910534936
 20
925.6779506733697
 10
249.09858549053277
 20
929.7143782498545
 10
249.09858549053277
 20
948.8361353304699
 10
247.3348758997235
 20
954.3422655306946
 10
250.02094785479318
 20
958.5350935305125
 10
253.529186604237
 20
958.5350935305125
 10
257.06712600340813
 20
964.0576452799199
 10
260.63476605230653
 20
961.273188768608
 10
278.196252496545
 20
961.273188768608
 10
279.9503718712669
 20
958.5350935305125
 10
299.24568499320804
 20
958.5350935305125
 10
300.9998043679299
 20
955.7969982924172
 10
309.77040124153956
 20
955.7969982924172
 10
311.52452061626144
 20
953.0589030543222
 10
315.0327593657053
 20
953.0589030543222
 10
317.7235351737824
 20
948.8587325681797
 10
312.44332260525624
 20
937.8691917206119
 10
310.6874209918153
 20
926.9056828155502
 10
301.0030014815712
 20
914.5373027330799
 10
290.46560024840477
 20
911.7959073873376
 10
283.4383179236915
 20
906.3112840067031
 10
272.92845550464403
 20
906.3112840067031
 10
262.4116518216752
 20
892.6311004250866
 10
250.13762298993674
 20
889.8940770681382
 10
248.32152580317182
 20
887.059237472465
 10
246.51270910534936
 20
889.8827125781316
 10
243.09357230508738
 20
889.8827125781316
 10
236.08645090085392
 20
884.4138243068509
 10
223.81820648011654
 20
881.6780908334631
 10
209.71414716772088
 20
865.1662766159136
 10
196.47500424887517
 20
888.5873576812054
 10
196.47500424887517
 20
894.0605707159326
 10
190.37833981967802
 20
903.5771680937454
 10
153.65863538665693
 20
906.3065812872777
 10
147.5596617566614
 20
894.066321665278
 10
147.5596617566614
 20
888.5843802397421
 10
142.29274925490583
 20
880.3629853630068
 10
140.53862988018392
 20
869.4106044106258
 10
137.03494550832988
 20
863.941523096885
 10
137.03494550832988
 20
858.4577221346863
 10
130.02045586779812
 20
850.2457636332359
 10
131.77103720456992
 20
817.4548932430852
 10
137.89050548293886
 20
807.9027001631054
 10
152.82201988082716
 20
792.821461053971
 10
152.82201988082716
 20
787.2855839482822
 10
147.54935312293495
 20
773.5682889626463
 10
144.88318001767917
 20
769.406522101941
 10
141.28583931905325
 20
769.406522101941
 10
134.25855699433993
 20
774.8911454825758
 10
123.72652515899394
 20
777.6311439334033
 10
118.46237989343689
 20
783.109194170263
 10
109.68153521008084
 20
785.8504886751211
 10
107.92889803258355
 20
788.5862702752615
 10
97.40418178425203
 20
791.3243655133568
 10
95.6680846360543
 20
794.0343289302449
 10
85.2515017468679
 20
791.3243655133568
 10
82.67365854551467
 20
787.3004773470793
 10
94.0178785845831
 20
766.8684268638459
 10
95.76783752546535
 20
766.8684268638459
 10
108.06944491366905
 20
747.6662145766136
 10
116.84459838526323
 20
739.4476612853007
 10
122.10695650942898
 20
728.4952803329198
 10
126.49754115781752
 20
724.3831865638925
 10
128.27393885080767
 20
718.8374453398545
 10
125.57965293166981
 20
714.6317957406485
 10
113.19235613754081
 20
717.3940770681384
 10
111.44551725176144
 20
720.1208078162269
 10
104.43763992122862
 20
720.1208078162269
 10
83.36482236723702
 20
744.7910421640096
 10
76.4317235228385
 20
750.2021576230416
 10
69.44744673628172
 20
742.0255697209888
 10
65.94780815519275
 20
742.0255697209888
 10
62.384872082648315
 20
736.4639993772269
 10
60.63075270792639
 20
739.2020946153222
 10
58.93133065630507
 20
736.5493792447984
 10
55.41642729826163
 20
736.5493792447984
 10
46.64583042465203
 20
725.5969982924173
 10
43.135656115452946
 20
725.5969982924173
 10
36.13039698001253
 20
717.3958460689205
 10
27.367044578269162
 20
714.660012484645
 10
23.848943161866643
 20
709.1684268638459
 10
20.340704412422806
 20
709.1684268638459
 10
18.549281694133278
 20
706.3721029163144
 10
8.800862257039965
 20
716.0555273156392
  0
LWPOLYLINE
  5
34
330
17
100
AcDbEntity
  8
M
100
AcDbPolyline
 90
17
 70
1
 10
196.47500424887517
 20
206.85723539271166
 10
199.15148598785748
 20
211.0350935305126
 10
206.24977667346974
 20
211.0350935305126
 10
220.29418838260014
 20
202.81410155226237
 10
230.84340984878727
 20
200.06963107147797
 10
232.59642924271762
 20
197.33325285002985
 10
244.8752648657711
 20
194.59515761193452
 10
249.3220685603051
 20
187.65391279347503
 10
241.36567224406892
 20
177.99426386404087
 10
234.3483061662386
 20
175.25582186879112
 10
213.30862052080755
 20
150.6243754973427
 10
206.2469723213657
 20
145.112930385159
 10
200.0212651862759
 20
146.50121992528125
 10
198.2291236235971
 20
149.2986659540279
 10
198.2291236235971
 20
184.89390404926604
 10
196.47500424887517
 20
187.63199928736125
 10
196.47500424887517
 20
206.85723539271166
  0
LWPOLYLINE
  5
35
330
17
100
AcDbEntity
  8
M
100
AcDbPolyline
 90
26
 70
1
 10
123.72435287481495
 20
246.43033162575074
 10
118.46199475064917
 20
246.43033162575074
 10
114.03594801453477
 20
253.33917583919725
 10
112.28182863981284
 20
264.29155679157816
 10
108.77503393648075
 20
269.76549318185
 10
107.00704091777114
 20
278.04474715157806
 10
114.96126612648855
 20
287.7017601971792
 10
118.46865935924869
 20
287.7017601971792
 10
127.23925623285828
 20
298.6541411495602
 10
134.3324219610806
 20
298.6541411495602
 10
143.1030188346902
 20
293.17795067336976
 10
150.11949633357787
 20
293.17795067336976
 10
158.89009320718748
 20
287.7017601971792
 10
164.1784931396202
 20
287.7017601971792
 10
165.93261251434214
 20
284.96366495908404
 10
172.92304820496284
 20
284.96366495908404
 10
181.69364507857244
 20
279.4874744828935
 10
186.9783204228442
 20
279.4874744828935
 10
201.9583812537862
 20
258.855284930893
 10
198.42912362359706
 20
253.34628500164698
 10
198.42912362359706
 20
245.13199928736123
 10
193.9961022266679
 20
238.21226796677746
 10
153.54205007014204
 20
240.95778156149845
 10
151.79026287036564
 20
243.6922363876554
 10
125.47847224953685
 20
243.6922363876554
 10
123.72435287481495
 20
246.43033162575074
  0
LWPOLYLINE
  5
36
330
17
100
AcDbEntity
  8
M
100
AcDbPolyline
 90
24
 70
1
 10
18.50323219976674
 20
536.668426863846
 10
9.701751055823104
 20
536.668426863846
 10
0.013634280020158318
 20
554.5406853314756
 10
0.013634280020158318
 20
565.547711583188
 10
3.5218730294639955
 20
571.0239020593783
 10
3.5218730294639955
 20
584.7143782498545
 10
5.275992404185914
 20
587.4524734879499
 10
5.275992404185914
 20
592.9286639641402
 10
9.712690475206454
 20
599.8541343945969
 10
58.92902925221316
 20
591.622957576691
 10
65.9528461929344
 20
583.4000794779483
 10
72.9664439219262
 20
580.663108035125
 10
78.2508533788498
 20
575.1639701852312
 10
86.1654836413942
 20
562.8096163450926
 10
86.1654836413942
 20
557.2748564302184
 10
83.50236535793742
 20
553.1178579981284
 10
71.223529734884
 20
547.641667521938
 10
67.71388639009729
 20
542.1632845405651
 10
60.690488068768644
 20
539.4224885354577
 10
53.66037236378446
 20
531.1922363876556
 10
50.16073378269547
 20
531.1922363876556
 10
48.40190871526867
 20
528.4467957915573
 10
27.267992538436648
 20
531.1958806068018
 10
18.50323219976674
 20
536.668426863846
  0
LWPOLYLINE
  5
37
330
17
100
AcDbEntity
  8
M
100
AcDbPolyline
 90
24
 70
1
 10
20.23130976622167
 20
199.88271257813167
 10
18.506891041227046
 20
202.57444654300988
 10
14.9887149444905
 20
199.82859544642133
 10
8.78423115362975
 20
212.28060737956372
 10
8.78423115362975
 20
223.22723738259936
 10
5.275992404185914
 20
228.70342785878978
 10
5.275992404185914
 20
253.40485444033072
 10
16.723071016777837
 20
271.2731887686078
 10
43.14425628380775
 20
271.2731887686078
 10
44.898375658529666
 20
268.5350935305126
 10
58.931330656305015
 20
268.5350935305126
 10
63.358861690653804
 20
261.623932399537
 10
65.11298106537572
 20
245.19536097096557
 10
68.62165066014269
 20
239.71849796612938
 10
70.37577003486462
 20
220.55183129946272
 10
73.88400878430845
 20
215.07564082327218
 10
75.63812815903037
 20
195.90897415660552
 10
77.41364758109242
 20
193.1374744828936
 10
72.95860791690289
 20
186.18337371539224
 10
55.33277315926644
 20
188.93468100455485
 10
46.56914219531749
 20
194.40652210194114
 10
37.7985453217079
 20
194.40652210194114
 10
29.02794844809825
 20
199.88271257813167
 10
20.23130976622167
 20
199.88271257813167
  0
LWPOLYLINE
  5
38
330
17
100
AcDbEntity
  8
M
100
AcDbPolyline
 90
13
 70
1
 10
5.27930736698673
 20
182.21374874689585
 10
13.253471592730326
 20
200.1931582010222
 10
21.25275814295674
 20
187.70666000314068
 10
31.787783025014672
 20
160.29888882702875
 10
31.787783025014672
 20
154.8334258689022
 10
37.05014114918048
 20
146.61914015461647
 10
37.05014114918048
 20
141.0843802397422
 10
34.37036614793937
 20
136.90138147933678
 10
4.455619315189397
 20
139.64817373881172
 10
0.013634280020158318
 20
143.80840761380048
 10
0.013634280020158318
 20
165.78580682128313
 10
3.5264274070538337
 20
171.26910645992328
 10
5.27930736698673
 20
182.21374874689585
  0
LWPOLYLINE
  5
39
330
17
100
AcDbEntity
  8
M
100
AcDbPolyline
 90
9
 70
1
 10
0.01264950800883291
 20
620.2243215744787
 10
0.892410424664869
 20
671.0350935305125
 10
18.586585037700885
 20
671.0350935305125
 10
21.26517057719035
 20
666.8539514621914
 10
19.50688694926822
 20
642.1525925444853
 10
15.998069418485084
 20
636.6754986187053
 10
14.243950043763165
 20
617.5088319520386
 10
11.547215815417788
 20
613.2993606609463
 10
0.01264950800883291
 20
620.2243215744787
  0
LWPOLYLINE
  5
3A
330
17
100
AcDbEntity
  8
M
100
AcDbPolyline
 90
28
 70
1
 10
1147.7111829361706
 20
460.00176019717924
 10
1138.1228328861941
 20
460.00176019717924
 10
1136.735515409787
 20
457.26366495908405
 10
1132.4506906956958
 20
457.26366495908405
 10
1131.063373219289
 20
460.00176019717924
 10
1122.7267860437319
 20
460.00176019717924
 10
1120.612565262817
 20
466.9563541659401
 10
1129.6511207542915
 20
484.79540411041637
 10
1135.2150935358193
 20
493.031453700946
 10
1139.371532386577
 20
495.76592162633386
 10
1147.7111829361706
 20
512.2255697209888
 10
1150.6086901738552
 20
512.2255697209888
 10
1151.9515923116908
 20
509.5751353313358
 10
1156.0469217330542
 20
514.9636649590841
 10
1160.1970402238317
 20
514.9636649590841
 10
1161.5843577002388
 20
517.7017601971792
 10
1164.4818649379233
 20
517.7017601971792
 10
1165.824767075759
 20
515.0513258075263
 10
1169.9200964971221
 20
520.4398554352745
 10
1174.0820489263426
 20
520.4398554352745
 10
1178.26389145954
 20
525.9422168011665
 10
1183.8304821895135
 20
523.1955752015735
 10
1190.813424967886
 20
528.708361624152
 10
1192.9604370618274
 20
524.4708862873748
 10
1192.9604370618274
 20
461.44691982126943
 10
1189.451418344045
 20
454.52130430431345
 10
1149.0964276551188
 20
457.2677558808981
 10
1147.7111829361706
 20
460.00176019717924
  0
LWPOLYLINE
  5
3B
330
17
100
AcDbEntity
  8
M
100
AcDbPolyline
 90
25
 70
1
 10
1045.7047845627058
 20
483.3516817260313
 10
1045.7047845627058
 20
508.04231485880337
 10
1048.4794195155193
 20
513.5185053349937
 10
1048.4794195155193
 20
535.4232672397559
 10
1052.0204336513407
 20
542.4120308848535
 10
1054.82234815935
 20
539.6470153414031
 10
1060.3988976201729
 20
545.1501261229486
 10
1061.8274121054067
 20
542.330721930262
 10
1072.9259519166612
 20
539.5926266921667
 10
1074.3119692057116
 20
536.8570975839366
 10
1088.1609974933247
 20
534.1237680431907
 10
1095.089270908895
 20
528.6541411495602
 10
1102.0525784996169
 20
528.6541411495602
 10
1104.1721185717915
 20
524.4708862873748
 10
1104.1721185717915
 20
516.256600573089
 10
1106.9467535246054
 20
510.78041009689866
 10
1106.9467535246054
 20
502.56612438261294
 10
1109.721388477419
 20
497.08993390642246
 10
1109.721388477419
 20
491.613743430232
 10
1113.8833409066392
 20
483.3994577159462
 10
1113.8833409066392
 20
477.92326723975583
 10
1116.670079248853
 20
472.4231887686078
 10
1114.5330815674201
 20
468.20547849330245
 10
1047.8194821415427
 20
479.17798430702237
 10
1045.7047845627058
 20
483.3516817260313
  0
LWPOLYLINE
  5
3C
330
17
100
AcDbEntity
  8
M
100
AcDbPolyline
 90
23
 70
1
 10
827.8838373774366
 20
97.30414114956027
 10
829.2832582432435
 20
100.06612438261293
 10
829.2832582432435
 20
116.49469581118439
 10
833.4452106724639
 20
124.70898152547011
 10
833.4452106724639
 20
135.66136247785104
 10
837.6071631016844
 20
143.87564819213677
 10
837.6071631016844
 20
152.08247891492294
 10
840.3917499012094
 20
160.32622699584925
 10
845.2857397256653
 20
167.22556972098874
 10
853.599877937927
 20
167.22556972098874
 10
854.987195414334
 20
169.96366495908404
 10
857.8643001288671
 20
169.96366495908404
 10
863.4543750807973
 20
164.44720680629027
 10
868.9973161040136
 20
153.50731692613056
 10
878.7085384388613
 20
148.03112644994005
 10
885.6451258208953
 20
134.3406502594639
 10
895.3527125629155
 20
128.8665099061241
 10
903.68083681222
 20
115.16909400752546
 10
917.5571676099696
 20
104.21422147814302
 10
923.8329500283064
 20
91.82795067336974
 10
921.6994117470427
 20
87.61706808335695
 10
830.0136543260288
 20
93.10060321096353
 10
827.8838373774366
 20
97.30414114956027
  0
LWPOLYLINE
  5
3D
330
17
100
AcDbEntity
  8
M
100
AcDbPolyline
 90
31
 70
1
 10
1641.3592809537804
 20
2.7423616961079755
 10
1639.4628832770059
 20
6.925389021888634
 10
1639.4628832770059
 20
12.401579498079101
 10
1636.982635123578
 20
17.872449836916772
 10
1635.735465422833
 20
28.876354770980385
 10
1643.9235182089615
 20
41.38012769221905
 10
1645.1587817119819
 20
38.65541385663704
 10
1651.2889622478594
 20
49.47285494827933
 10
1661.2144223435284
 20
52.209521900417805
 10
1662.477284230165
 20
54.9951115713945
 10
1668.6839343951171
 20
52.25701633329924
 10
1669.911007939234
 20
54.963664959084085
 10
1674.876328071196
 20
54.963664959084085
 10
1676.1176581041864
 20
57.70176019717929
 10
1691.013618500072
 20
57.70176019717929
 10
1692.2912072538861
 20
60.51983402935382
 10
1694.8463847615144
 20
57.70176019717929
 10
1707.2798312210239
 20
57.70176019717929
 10
1708.5211612540143
 20
54.963664959084085
 10
1720.9344615839188
 20
54.963664959084085
 10
1722.1757916169095
 20
52.22556972098882
 10
1734.5796026388782
 20
52.22556972098882
 10
1738.9826846375536
 20
45.28827692495246
 10
1736.4866258502616
 20
39.782531879031524
 10
1736.4866258502616
 20
34.30942829501485
 10
1729.6280551732493
 20
16.43033162575075
 10
1727.141111748871
 20
16.43033162575075
 10
1724.6692975225988
 20
10.978064635877388
 10
1718.4471468744864
 20
8.233131280923539
 10
1710.9820792008923
 20
0.0
 10
1641.3592809537804
 20
2.7423616961079755
  0
LWPOLYLINE
  5
3E
330
17
100
AcDbEntity
  8
M
100
AcDbPolyline
 90
11
 70
1
 10
1683.5601849314262
 20
386.0852176794993
 10
1682.3243082691386
 20
388.8112840067031
 10
1677.3684774451124
 20
388.8112840067031
 10
1672.9653954464372
 20
395.7485768027395
 10
1674.871296547156
 20
399.95256654718065
 10
1689.8955511031854
 20
402.71424412704033
 10
1691.151873197179
 20
399.9430797697339
 10
1698.5998533951215
 20
397.20498453163873
 10
1700.4951191068046
 20
393.0244540665994
 10
1697.3524196579363
 20
383.31952932150665
 10
1683.5601849314262
 20
386.0852176794993
  0
LWPOLYLINE
  5
3F
330
17
100
AcDbEntity
  8
M
100
AcDbPolyline
 90
11
 70
1
 10
1673.645083509789
 20
561.3112840067032
 10
1671.1523379722244
 20
561.3112840067032
 10
1666.7623473251183
 20
570.9946173400364
 10
1668.6696779062436
 20
575.2017601971793
 10
1671.2812602643005
 20
575.2017601971793
 10
1672.5225902972911
 20
572.463664959084
 10
1684.9358906271957
 20
572.463664959084
 10
1688.0747545636336
 20
565.5400361343748
 10
1688.0747545636336
 20
546.3301509266505
 10
1686.128287851748
 20
542.036682555402
 10
1673.645083509789
 20
561.3112840067032
  0
LWPOLYLINE
  5
40
330
17
100
AcDbEntity
  8
M
100
AcDbPolyline
 90
224
 70
1
 10
2615.0733501484838
 20
345.00176019717924
 10
2612.8893433142175
 20
349.1843666554544
 10
2612.8893433142175
 20
365.66201088176126
 10
2614.3190782827182
 20
368.40010611985645
 10
2614.3190782827182
 20
373.876296596047
 10
2617.178548219719
 20
379.3524870722374
 10
2617.178548219719
 20
387.56677278652313
 10
2620.03801815672
 20
393.04296326271367
 10
2620.03801815672
 20
401.2572489769994
 10
2622.897488093721
 20
406.7334394531898
 10
2622.897488093721
 20
412.15703242429686
 10
2612.887703287179
 20
428.5882959903157
 10
2614.320490601069
 20
453.2837632413636
 10
2617.9123814609134
 20
460.16261804716913
 10
2626.490791271917
 20
468.37690376145486
 10
2632.905632873225
 20
480.66201088176126
 10
2632.905632873225
 20
488.8312937134087
 10
2620.028273937757
 20
518.9731494908779
 10
2635.76677954177
 20
551.8541530832204
 10
2637.196320051499
 20
571.0182128846044
 10
2642.9137776527286
 20
584.705140686647
 10
2642.9137776527286
 20
590.1858204055708
 10
2644.335712527295
 20
592.9089776303088
 10
2642.214380663733
 20
599.6799396174457
 10
2637.939054187677
 20
602.4091752970882
 10
2632.2385381552454
 20
610.5969982924173
 10
2625.182247540385
 20
610.5969982924173
 10
2622.2556091951187
 20
607.7945857147897
 10
2620.8528856409707
 20
610.4809512081135
 10
2619.483746290954
 20
607.8589030543222
 10
2613.643615179983
 20
607.8589030543222
 10
2612.213880211483
 20
610.5969982924173
 10
2605.06520536898
 20
610.5969982924173
 10
2603.63547040048
 20
613.3350935305126
 10
2597.9165305264773
 20
613.3350935305126
 10
2596.479825138187
 20
616.0865378673254
 10
2585.052299119219
 20
618.82215454324
 10
2580.7625754641463
 20
624.2990073266703
 10
2559.306297171581
 20
629.77781607696
 10
2557.8839514084625
 20
632.5017601971792
 10
2552.2916284343337
 20
632.5017601971792
 10
2545.891799794693
 20
617.5217699038849
 10
2545.891799794693
 20
612.0415095125973
 10
2542.278057991926
 20
605.1208078162269
 10
2530.718987006953
 20
605.1208078162269
 10
2529.289252038452
 20
607.8589030543222
 10
2523.57031216445
 20
607.8589030543222
 10
2522.1405771959494
 20
610.5969982924173
 10
2504.9837575739434
 20
610.5969982924173
 10
2503.5540226054427
 20
613.3350935305126
 10
2494.9756127944397
 20
613.3350935305126
 10
2493.5683260885016
 20
616.0301979471054
 10
2489.390829399498
 20
613.3634137660449
 10
2478.6942562751683
 20
595.6096773252752
 10
2478.6942562751683
 20
587.4477251674757
 10
2481.553726212169
 20
581.971534691285
 10
2481.553726212169
 20
576.4953442150946
 10
2483.6793629079757
 20
572.4245228090739
 10
2486.497955595834
 20
569.7255697209889
 10
2493.667069062908
 20
569.7255697209889
 10
2495.0968040314087
 20
566.9874744828935
 10
2500.8157439054107
 20
566.9874744828935
 10
2502.245478873911
 20
564.2493792447982
 10
2509.3737150918428
 20
564.2493792447982
 10
2515.0926549658448
 20
558.7731887686078
 10
2522.2413298083475
 20
558.7731887686078
 10
2530.8197396193505
 20
550.5589030543221
 10
2537.968414461853
 20
550.5589030543221
 10
2543.6933235601387
 20
545.0769967269615
 10
2562.2987866641106
 20
542.336115963963
 10
2564.487125863957
 20
538.1452125626708
 10
2546.577427301742
 20
487.38271257813165
 10
2543.6994245756714
 20
487.38271257813165
 10
2537.980484701669
 20
479.1684268638459
 10
2533.687750566186
 20
479.1684268638459
 10
2529.405464842029
 20
473.7010703687347
 10
2515.1130231961374
 20
470.96391507257425
 10
2507.957968864292
 20
460.00176019717924
 10
2505.099702980249
 20
460.00176019717924
 10
2487.9656725491045
 20
432.6571775959141
 10
2482.2024195897634
 20
427.13855497298863
 10
2463.5170043742505
 20
429.891213954205
 10
2462.0917085189276
 20
432.6208078162269
 10
2452.0835637394234
 20
432.6208078162269
 10
2450.6538287709236
 20
435.3589030543222
 10
2442.07541895992
 20
435.3589030543222
 10
2439.2495332270514
 20
440.7707761909801
 10
2433.636900413415
 20
435.39638040477575
 10
2420.0847064274717
 20
412.1744702416227
 10
2422.9345925036478
 20
403.9877157036729
 10
2422.9345925036478
 20
382.0905823103328
 10
2425.7940624406483
 20
376.6143918341423
 10
2425.7940624406483
 20
371.0891285602162
 10
2419.33864755908
 20
358.72631927277905
 10
2412.1899727165774
 20
353.2501287965885
 10
2409.3127059213766
 20
347.7398554352746
 10
2399.2038085294757
 20
347.7398554352746
 10
2396.4115070007397
 20
350.4136333338373
 10
2395.0153562363716
 20
347.7398554352746
 10
2367.8503918348615
 20
347.7398554352746
 10
2366.4206568663612
 20
345.00176019717924
 10
2356.298606179595
 20
345.00176019717924
 10
2349.8181091101205
 20
354.6546391418382
 10
2349.8181091101205
 20
406.7334394531898
 10
2355.537048984123
 20
417.6858204055707
 10
2355.537048984123
 20
494.3524870722374
 10
2358.396518921124
 20
499.8286775484279
 10
2358.396518921124
 20
535.4200273657799
 10
2371.995204881323
 20
566.945687572711
 10
2374.8983140649666
 20
569.7255697209889
 10
2390.604960093901
 20
569.7255697209889
 10
2392.0277246426117
 20
572.4503158603665
 10
2403.4711833875626
 20
575.1897466453732
 10
2417.7585541625344
 20
597.0792200069321
 10
2422.0398947944
 20
599.8122949369125
 10
2428.45353237765
 20
614.8246076333307
 10
2428.45353237765
 20
620.3048680246184
 10
2438.467785159959
 20
639.4832321693251
 10
2441.3272550969605
 20
650.4356131217062
 10
2445.597539973626
 20
658.613664959084
 10
2442.07541895992
 20
665.3589030543221
 10
2436.477670322887
 20
665.3589030543221
 10
2435.0479353543865
 20
662.6208078162268
 10
2420.7505856693815
 20
662.6208078162268
 10
2419.320850700881
 20
659.8827125781316
 10
2414.91045455841
 20
659.8827125781316
 10
2412.713635698114
 20
664.0898554352746
 10
2414.1561826926445
 20
666.8524870722374
 10
2414.1561826926445
 20
694.2334394531899
 10
2417.0156526296455
 20
699.7096299293803
 10
2417.0156526296455
 20
727.0905823103328
 10
2419.8751225666465
 20
732.5667727865233
 10
2419.8751225666465
 20
740.781058500809
 10
2422.0591294009128
 20
744.9636649590841
 10
2425.0397905748828
 20
744.9636649590841
 10
2426.4695255433835
 20
742.2255697209887
 10
2432.1884654173855
 20
742.2255697209887
 10
2433.618200385886
 20
739.4874744828934
 10
2440.7464366038175
 20
739.4874744828934
 10
2449.3248464148205
 20
731.2731887686077
 10
2456.4939598818946
 20
731.2731887686077
 10
2457.923694850395
 20
728.5350935305127
 10
2463.6426347243973
 20
728.5350935305127
 10
2465.072369692897
 20
725.7969982924172
 10
2472.200605910829
 20
725.7969982924172
 10
2477.8553142146307
 20
720.3823129764053
 10
2498.510545834175
 20
757.2112213429991
 10
2498.510545834175
 20
768.1129380840257
 10
2495.6510758971745
 20
773.5891285602161
 10
2495.6510758971745
 20
784.5415095125971
 10
2494.2213409286737
 20
787.2796047506924
 10
2494.2213409286737
 20
801.0191537389042
 10
2496.4389319670727
 20
805.2660775367118
 10
2499.365570312339
 20
802.463664959084
 10
2523.691503401419
 20
802.463664959084
 10
2525.1232179222966
 20
799.7217786666635
 10
2568.0152669773124
 20
796.9836834285679
 10
2570.2070108422104
 20
792.7862597298976
 10
2565.9080893537002
 20
781.8090677178893
 10
2565.9080893537002
 20
776.3322284804401
 10
2555.9100117934404
 20
751.7141596526118
 10
2565.162822167226
 20
733.9940390836708
 10
2582.319641789232
 20
728.5178486074801
 10
2585.1701070469417
 20
723.0589030543222
 10
2590.8890469209437
 20
723.0589030543222
 10
2592.3187818894444
 20
720.3208078162269
 10
2599.467456731947
 20
720.3208078162269
 10
2600.8971917004474
 20
717.5827125781316
 10
2603.748293252693
 20
717.5827125781316
 10
2615.1738458269238
 20
701.1718470408022
 10
2623.659906198115
 20
703.8804657713675
 10
2632.209731145919
 20
712.067379951931
 10
2638.0097052629767
 20
723.174950138626
 10
2639.4664516458292
 20
720.3851251557594
 10
2642.2178759254225
 20
723.0197609043121
 10
2647.9402098122773
 20
733.9786417539711
 10
2659.3780895602818
 20
742.1929274682568
 10
2662.930067211736
 20
748.9953442150945
 10
2662.930067211736
 20
787.3286775484279
 10
2665.1140740460023
 20
791.5112840067031
 10
2667.9735439830033
 20
791.5112840067031
 10
2670.8330139200043
 20
796.9874744828935
 10
2673.8136750939743
 20
796.9874744828935
 10
2675.1950574115262
 20
794.3419797380569
 10
2680.849527084263
 20
802.463664959084
 10
2685.142261219746
 20
802.463664959084
 10
2689.469546838531
 20
807.988474525293
 10
2692.326305705367
 20
805.2529752817261
 10
2697.2437064557485
 20
811.9796523407954
 10
2697.2437064557485
 20
814.6454751411532
 10
2690.8276184631436
 20
821.4718607482768
 10
2685.1146645116505
 20
832.412778019431
 10
2680.8254596061493
 20
835.1508732575261
 10
2675.106519732147
 20
846.1032542099074
 10
2670.8198609420165
 20
848.8397240870024
 10
2659.3989530662816
 20
867.9779506733698
 10
2636.519374675992
 20
867.9779506733698
 10
2635.0839612287114
 20
870.726920805099
 10
2620.786611543706
 20
873.465016043194
 10
2618.6082831882195
 20
877.6367476078353
 10
2618.6082831882195
 20
921.4953442150946
 10
2620.7922900224858
 20
925.6779506733697
 10
2630.921626038959
 20
925.6779506733697
 10
2632.3513610074588
 20
922.9398554352746
 10
2653.797385534967
 20
922.9398554352746
 10
2655.2271205034676
 20
920.2017601971793
 10
2662.268438741711
 20
920.2017601971793
 10
2673.706318489715
 20
933.8922363876554
 10
2690.9704947159807
 20
933.8922363876554
 10
2692.4002296844815
 20
931.1541411495602
 10
2700.978639495484
 20
931.1541411495602
 10
2703.1626463297507
 20
926.9715346912852
 10
2703.1626463297507
 20
365.61293808402587
 10
2699.548904526984
 20
358.6922363876555
 10
2696.6689959654113
 20
358.6922363876555
 10
2690.990933340552
 20
353.2551880614751
 10
2688.1110247789793
 20
347.7398554352746
 10
2680.953981551722
 20
347.7398554352746
 10
2675.23504167772
 20
339.52556972098887
 10
2666.6650002514716
 20
339.52556972098887
 10
2665.2365941167122
 20
336.7900193414994
 10
2632.975831570083
 20
335.41706806416676
 10
2619.3914235391585
 20
345.00176019717924
 10
2615.0733501484838
 20
345.00176019717924
  0
LWPOLYLINE
  5
41
330
17
100
AcDbEntity
  8
M
100
AcDbPolyline
 90
25
 70
1
 10
2600.021728597713
 20
888.5891285602163
 10
2600.021728597713
 20
894.0729475478287
 10
2597.1716655205673
 20
902.2602105494335
 10
2589.343906714904
 20
914.5255697209889
 10
2582.209884497543
 20
914.5255697209889
 10
2576.490944623541
 20
920.0017601971792
 10
2569.3218311564674
 20
920.0017601971792
 10
2566.462361219466
 20
925.4779506733697
 10
2562.1731563139647
 20
925.4779506733697
 10
2560.743421345464
 20
928.216045911465
 10
2553.6037862346443
 20
928.216045911465
 10
2542.8176756834837
 20
943.3641856936437
 10
2551.416631375981
 20
962.5767578452022
 10
2555.009963543111
 20
974.9636649590841
 10
2606.650901613915
 20
974.9636649590841
 10
2607.3692461021114
 20
959.8308939745639
 10
2610.229873377217
 20
954.3524870722375
 10
2610.229873377217
 20
940.6620108817614
 10
2613.0893433142173
 20
935.185820405571
 10
2613.0893433142173
 20
926.9715346912852
 10
2614.519078282718
 20
924.2334394531899
 10
2614.519078282718
 20
877.6367476078353
 10
2612.318411370223
 20
873.4222353195506
 10
2606.4823100555386
 20
876.2164247271755
 10
2600.021728597713
 20
888.5891285602163
  0
LWPOLYLINE
  5
42
330
17
100
AcDbEntity
  8
M
100
AcDbPolyline
 90
40
 70
1
 10
2414.1561826926445
 20
231.49534421509483
 10
2417.0156526296455
 20
236.97153469128523
 10
2417.0156526296455
 20
250.6620108817615
 10
2419.8751225666465
 20
256.1382013579519
 10
2419.8751225666465
 20
261.62030982394907
 10
2426.355619636121
 20
271.2731887686078
 10
2429.224316147742
 20
271.2731887686078
 10
2439.232460927246
 20
282.22556972098874
 10
2443.5170515431573
 20
282.22556972098874
 10
2447.806256448659
 20
287.7017601971792
 10
2453.6140513203222
 20
287.7017601971792
 10
2476.4898108163306
 20
265.79699829241736
 10
2480.791085961648
 20
265.79699829241736
 10
2486.502765065863
 20
257.59314144062256
 10
2500.7131109485003
 20
260.31457452089086
 10
2507.869922798243
 20
265.79699829241736
 10
2516.4483326092463
 20
265.79699829241736
 10
2523.586963064826
 20
271.26549433890995
 10
2535.0012214926646
 20
273.99793490798544
 10
2536.4985224994393
 20
276.8654263291022
 10
2538.741016115336
 20
272.5708114344375
 10
2540.1714019541
 20
256.1347610892461
 10
2545.891799794693
 20
239.70200141795854
 10
2545.891799794693
 20
234.2289502104567
 10
2551.618244812195
 20
220.52050758028057
 10
2547.976994784825
 20
210.75777154007818
 10
2545.036775316529
 20
213.57318876860782
 10
2499.285256324513
 20
213.57318876860782
 10
2493.6064734444235
 20
219.0109267776515
 10
2490.787160501336
 20
216.31128400670312
 10
2483.6589242834043
 20
216.31128400670312
 10
2482.229189314904
 20
213.57318876860782
 10
2457.923694850395
 20
213.57318876860782
 10
2456.4939598818946
 20
210.8350935305126
 10
2433.4970091489167
 20
210.8350935305126
 10
2432.1008583845487
 20
213.50887142907533
 10
2429.2993425483824
 20
210.8262703388533
 10
2422.7723460864627
 20
212.21514763469935
 10
2414.1561826926445
 20
225.9658756128637
 10
2414.1561826926445
 20
231.49534421509483
  0
LWPOLYLINE
  5
43
330
17
100
AcDbEntity
  8
M
100
AcDbPolyline
 90
46
 70
1
 10
2482.107998077935
 20
884.4065221019413
 10
2480.6782631094343
 20
887.1446173400363
 10
2470.690556954502
 20
887.1446173400363
 10
2462.1121471434985
 20
895.3589030543221
 10
2452.0835637394234
 20
895.3589030543221
 10
2450.6538287709236
 20
898.0969982924174
 10
2444.946786511658
 20
898.0969982924174
 10
2440.6465396789163
 20
903.5872864156364
 10
2432.058269501125
 20
906.3285289297356
 10
2429.88326734615
 20
910.4938904649782
 10
2429.88326734615
 20
929.6605571316447
 10
2428.45353237765
 20
932.39865236974
 10
2428.45353237765
 20
937.8748428459305
 10
2424.8999901078196
 20
944.6802560041441
 10
2414.8918453283163
 20
952.8945417184298
 10
2409.866977787143
 20
962.5176999887876
 10
2409.866977787143
 20
968.051080912224
 10
2414.9202820680844
 20
974.9636649590841
 10
2480.8289592782876
 20
974.9636649590841
 10
2481.551202995509
 20
968.0477954922344
 10
2483.6589242834043
 20
964.011284006703
 10
2487.936231574169
 20
964.011284006703
 10
2496.5275851384336
 20
953.0423772739279
 10
2510.834413611334
 20
947.5625562194032
 10
2513.0144008689317
 20
943.387647679958
 10
2511.571412125335
 20
937.860692412701
 10
2498.7017526996806
 20
915.9524497643765
 10
2495.8597321841526
 20
907.7882903100929
 10
2497.9562739684097
 20
903.7731887686078
 10
2503.6485185551132
 20
903.7731887686078
 10
2510.8023668986075
 20
898.293035169533
 10
2533.7032903270997
 20
895.551927955214
 10
2536.559118117924
 20
890.0827125781317
 10
2540.8611904950903
 20
890.0827125781317
 10
2543.040129951625
 20
883.1278760973833
 10
2540.172859920691
 20
877.6367476078353
 10
2540.172859920691
 20
863.9462714173592
 10
2537.9888530864246
 20
859.763664959084
 10
2527.9807083069204
 20
859.763664959084
 10
2526.4903777199356
 20
856.909522636685
 10
2525.000047132951
 20
859.763664959084
 10
2512.253623653415
 20
859.763664959084
 10
2510.818119046063
 20
857.0145202460777
 10
2502.8411526877026
 20
858.4033150597057
 10
2484.9754414192744
 20
884.4065221019413
 10
2482.107998077935
 20
884.4065221019413
  0
LWPOLYLINE
  5
44
330
17
100
AcDbEntity
  8
M
100
AcDbPolyline
 90
180
 70
1
 10
3233.844925119812
 20
517.5017601971792
 10
3233.2143869770853
 20
520.2398554352745
 10
3227.5395436925446
 20
520.2398554352745
 10
3226.9090055498177
 20
522.9779506733698
 10
3221.864700408003
 20
522.9779506733698
 10
3221.234162265276
 20
525.7160459114649
 10
3217.443389306949
 20
525.7160459114649
 10
3216.483139868926
 20
532.6658089669412
 10
3217.4509334089157
 20
536.8684268638459
 10
3218.704465592403
 20
536.8684268638459
 10
3219.63532066952
 20
543.6054495256524
 10
3217.1152532617984
 20
551.8129441653746
 10
3217.1152532617984
 20
570.9832518976297
 10
3216.189857123462
 20
575.0017601971794
 10
3213.052715623018
 20
575.0017601971794
 10
3211.887391761099
 20
577.5319542496434
 10
3211.30472983014
 20
575.0017601971794
 10
3205.476394419276
 20
575.0017601971794
 10
3202.9392131005316
 20
583.264992366999
 10
3200.4144891493443
 20
586.0058791428393
 10
3199.1653272698386
 20
591.4303316257508
 10
3197.908564779658
 20
591.4303316257508
 10
3194.741587964855
 20
602.4323421918602
 10
3192.219435393948
 20
605.1704374299555
 10
3189.0810307814827
 20
616.0731887686077
 10
3187.8156407007564
 20
616.0731887686077
 10
3186.542650009355
 20
621.6011172380773
 10
3184.0224395385
 20
624.3371040966222
 10
3180.8840349260345
 20
635.2398554352745
 10
3179.618644845308
 20
635.2398554352745
 10
3178.357568559855
 20
640.7160459114649
 10
3177.0964922744015
 20
640.7160459114649
 10
3175.497118568024
 20
647.6612840067031
 10
3176.4659541316746
 20
651.8684268638459
 10
3187.974818549249
 20
651.8684268638459
 10
3188.6053566919754
 20
649.1303316257506
 10
3192.875495055761
 20
649.1303316257506
 10
3194.2323237647493
 20
652.0763280494771
 10
3194.910738119243
 20
649.1303316257506
 10
3213.037166409828
 20
649.1303316257506
 10
3213.7472934768007
 20
652.214039666175
 10
3214.457420543774
 20
649.1303316257506
 10
3217.4509334089157
 20
649.1303316257506
 10
3218.373712273445
 20
653.1374744828935
 10
3214.913231624819
 20
668.1645203401822
 10
3212.391478848331
 20
673.6398427680173
 10
3204.501648957803
 20
705.1603105298487
 10
3205.5502976213525
 20
709.7140396661749
 10
3206.2604246883257
 20
706.6303316257507
 10
3215.0879586865003
 20
706.6303316257507
 10
3215.721250623373
 20
703.8802781092796
 10
3232.7457804769965
 20
701.1421828711843
 10
3233.7113904753496
 20
696.9490469461874
 10
3230.8684211082937
 20
681.8600787663758
 10
3229.2954779736074
 20
677.7618003451014
 10
3229.2954779736074
 20
672.2927757071535
 10
3227.403863545427
 20
664.0784899928677
 10
3227.403863545427
 20
658.6022995166774
 10
3226.1454045337796
 20
653.1374744828935
 10
3227.0681833983094
 20
649.1303316257506
 10
3228.95979782649
 20
649.1303316257506
 10
3229.590335969217
 20
646.3922363876555
 10
3233.3735648255774
 20
646.3922363876555
 10
3234.0041029683043
 20
643.6541411495602
 10
3237.156793681938
 20
643.6541411495602
 10
3237.787331824665
 20
640.916045911465
 10
3241.570560681026
 20
640.916045911465
 10
3242.2010988237525
 20
638.1779506733698
 10
3258.4514618993467
 20
638.1779506733698
 10
3259.808290608335
 20
641.123947097096
 10
3260.486704962829
 20
638.1779506733698
 10
3262.2191415425177
 20
638.1779506733698
 10
3262.849679685244
 20
640.916045911465
 10
3266.1615482473703
 20
640.916045911465
 10
3266.792086390097
 20
638.1779506733698
 10
3267.8939848270584
 20
638.1779506733698
 10
3268.5245229697853
 20
640.916045911465
 10
3277.349135971857
 20
640.916045911465
 10
3283.952296390838
 20
675.0518194720252
 10
3283.952296390838
 20
680.5297923062526
 10
3284.9185146806817
 20
684.7255697209889
 10
3290.1219976709885
 20
684.7255697209889
 10
3290.752535813715
 20
681.9874744828935
 10
3299.58006981189
 20
681.9874744828935
 10
3300.210607954617
 20
679.2493792447982
 10
3309.038141952792
 20
679.2493792447982
 10
3309.668680095519
 20
676.5112840067031
 10
3318.496214093694
 20
676.5112840067031
 10
3319.1267522364205
 20
673.7731887686078
 10
3327.9542862345957
 20
673.7731887686078
 10
3328.5848243773225
 20
671.0350935305125
 10
3333.6291295191368
 20
671.0350935305125
 10
3334.595347808981
 20
666.8393161157765
 10
3334.595347808981
 20
650.3880138023917
 10
3332.7037333808007
 20
642.1737280881059
 10
3332.7037333808007
 20
631.2526169786076
 10
3335.5079545727176
 20
624.4874744828934
 10
3337.8837186697324
 20
624.4874744828934
 10
3338.533748758296
 20
627.3102129811842
 10
3341.68643947193
 20
624.5721177430889
 10
3342.2974856688197
 20
627.2255697209888
 10
3346.870430516399
 20
627.2255697209888
 10
3347.4213797348802
 20
624.8330872852226
 10
3347.972328953361
 20
627.2255697209888
 10
3359.95255366517
 20
627.2255697209888
 10
3360.6626807321427
 20
630.3092777614132
 10
3361.3611433917276
 20
627.2762221021213
 10
3366.405448533542
 20
630.0143173402166
 10
3367.0476510836565
 20
627.2255697209888
 10
3368.7800876633446
 20
627.2255697209888
 10
3369.4106258060715
 20
629.9636649590841
 10
3372.0919562254708
 20
629.9636649590841
 10
3372.67461815643
 20
627.4334709066198
 10
3373.9356944418837
 20
630.1715661447151
 10
3374.951364193641
 20
625.7610470621793
 10
3374.001465427995
 20
618.8861965425878
 10
3370.820022846647
 20
610.5969982924173
 10
3365.7865747982028
 20
610.5969982924173
 10
3365.07644773123
 20
607.5132902519931
 10
3364.3663206642573
 20
610.5969982924173
 10
3362.6338840845688
 20
610.5969982924173
 10
3362.0033459418423
 20
607.8589030543222
 10
3359.322015522443
 20
607.8589030543222
 10
3358.7710663039625
 20
610.2513854900882
 10
3358.2201170854814
 20
607.8589030543222
 10
3353.175811943667
 20
607.8589030543222
 10
3352.5205868748108
 20
605.0136054912628
 10
3349.9984343039037
 20
607.751700729358
 10
3349.1003423655034
 20
603.8517601971794
 10
3350.9893395198774
 20
595.6488399253002
 10
3350.9893395198774
 20
587.4118233262011
 10
3350.0386704432226
 20
583.2835679592299
 10
3348.74649573139
 20
580.4779506733697
 10
3346.2398923736723
 20
580.4779506733697
 10
3345.6093542309454
 20
577.7398554352744
 10
3342.441114304122
 20
577.7398554352744
 10
3339.918961733215
 20
572.2636649590839
 10
3338.514256812459
 20
572.2636649590839
 10
3337.8837186697324
 20
575.0017601971794
 10
3334.1004898133715
 20
575.0017601971794
 10
3333.4699516706446
 20
577.7398554352744
 10
3329.686722814284
 20
577.7398554352744
 10
3329.0561846715573
 20
580.4779506733697
 10
3325.2729558151964
 20
580.4779506733697
 10
3324.64241767247
 20
583.216045911465
 10
3320.228650673382
 20
583.216045911465
 10
3319.593923858645
 20
585.9723303471789
 10
3308.8747754322903
 20
588.7104255852742
 10
3308.248425961573
 20
591.4303316257508
 10
3303.204120819759
 20
591.4303316257508
 10
3302.573582677032
 20
594.1684268638459
 10
3299.58006981189
 20
594.1684268638459
 10
3298.9566223188654
 20
591.4611225848818
 10
3293.2817790343242
 20
588.7230273467867
 10
3292.3519095200927
 20
584.6850935305125
 10
3293.6103685317394
 20
579.2202684967287
 10
3293.6103685317394
 20
573.7440780205383
 10
3295.50198295992
 20
565.5297923062526
 10
3295.50198295992
 20
557.3155065919668
 10
3296.1351383764536
 20
554.5660459114649
 10
3295.1468108669656
 20
550.2742597941266
 10
3291.9941201533316
 20
553.0123550322219
 10
3291.383073956442
 20
550.3589030543221
 10
3286.3387688146277
 20
550.3589030543221
 10
3285.7082306719008
 20
547.6208078162268
 10
3283.672987608418
 20
547.6208078162268
 10
3282.4759510340205
 20
550.2198576770401
 10
3281.310012886003
 20
547.6883298639918
 10
3280.369067534477
 20
543.6022995166774
 10
3280.369067534477
 20
521.6975376119155
 10
3279.402849244633
 20
517.5017601971792
 10
3260.9580652570644
 20
517.5017601971792
 10
3260.327527114337
 20
520.2398554352745
 10
3259.225628677376
 20
520.2398554352745
 10
3258.595090534649
 20
517.5017601971792
 10
3253.3916075443426
 20
517.5017601971792
 10
3252.7610694016157
 20
520.2398554352745
 10
3251.6591709646545
 20
520.2398554352745
 10
3251.0286328219277
 20
517.5017601971792
 10
3233.844925119812
 20
517.5017601971792
  0
LWPOLYLINE
  5
45
330
17
100
AcDbEntity
  8
M
100
AcDbPolyline
 90
74
 70
1
 10
3209.895114149383
 20
177.98861309619755
 10
3207.3706279702433
 20
183.46987038845813
 10
3197.282017686615
 20
186.20796562655335
 10
3194.767109483941
 20
191.66842686384595
 10
3189.7290268621823
 20
191.66842686384595
 10
3186.5763361485488
 20
197.14461734003646
 10
3183.401873701669
 20
197.14461734003646
 10
3182.771335558942
 20
199.88271257813167
 10
3177.7488021503736
 20
199.88271257813167
 10
3174.5961114367396
 20
205.35890305432207
 10
3165.1162675625924
 20
205.35890305432207
 10
3164.1500492727478
 20
209.5546804690583
 10
3164.1500492727478
 20
261.60122087768116
 10
3165.1162675625924
 20
265.79699829241736
 10
3168.428136124718
 20
265.79699829241736
 10
3169.058674267445
 20
263.05890305432206
 10
3181.038898979254
 20
263.05890305432206
 10
3181.6694371219805
 20
260.3208078162269
 10
3182.771335558942
 20
260.3208078162269
 10
3183.449749913437
 20
263.26680423995316
 10
3184.7425389113687
 20
260.4598531935089
 10
3187.224759366807
 20
265.849341591108
 10
3191.007988223168
 20
263.1112463530127
 10
3193.5700729095433
 20
268.6741389077946
 10
3194.8311491949976
 20
265.9360436696994
 10
3197.289262054848
 20
271.2731887686078
 10
3202.9485561261995
 20
271.2731887686078
 10
3203.6269704806937
 20
274.2191851923342
 10
3204.929640566546
 20
271.39077996417785
 10
3208.0146330012594
 20
276.7493792447983
 10
3209.4131154019597
 20
276.7493792447983
 10
3210.043653544686
 20
274.0112840067031
 10
3219.501725685588
 20
274.0112840067031
 10
3220.1322638283145
 20
271.2731887686078
 10
3221.2539621329242
 20
271.2731887686078
 10
3225.7344061607487
 20
279.61156444159303
 10
3227.05263418512
 20
276.7493792447983
 10
3245.353789537386
 20
276.7493792447983
 10
3245.9843276801134
 20
274.0112840067031
 10
3264.26993381919
 20
274.0112840067031
 10
3264.900471961917
 20
271.2731887686078
 10
3283.1860781009937
 20
271.2731887686078
 10
3284.785451807371
 20
264.32795067336974
 10
3283.8166162437205
 20
260.1208078162269
 10
3281.765823967048
 20
260.1208078162269
 10
3281.1352858243213
 20
262.85890305432207
 10
3276.8806966737257
 20
262.85890305432207
 10
3276.250158530999
 20
260.1208078162269
 10
3270.416137397966
 20
260.1208078162269
 10
3269.785599255239
 20
262.85890305432207
 10
3268.6837008182774
 20
262.85890305432207
 10
3268.053162675551
 20
260.1208078162269
 10
3245.353789537386
 20
260.1208078162269
 10
3244.7232513946597
 20
257.38271257813165
 10
3241.4113828325335
 20
257.38271257813165
 10
3240.780844689807
 20
260.1208078162269
 10
3237.787331824665
 20
260.1208078162269
 10
3237.156793681938
 20
257.38271257813165
 10
3232.7430266828505
 20
257.38271257813165
 10
3231.8202478183207
 20
253.37556972098878
 10
3233.7092449726947
 20
245.17264944910983
 10
3233.7092449726947
 20
236.9583637348241
 10
3234.634641111031
 20
232.93985543527447
 10
3239.0328588969287
 20
232.93985543527447
 10
3241.566776034814
 20
227.43812129832924
 10
3247.243598546721
 20
224.69907108883606
 10
3250.107865852058
 20
217.78906822519713
 10
3249.4726985408647
 20
215.0308709452488
 10
3249.4726985408647
 20
209.5574737368771
 10
3247.578846517767
 20
198.592137188691
 10
3243.165518329604
 20
182.1651990671382
 10
3242.2185400607855
 20
175.3114855148346
 10
3240.918976466837
 20
172.48982521621699
 10
3209.895114149383
 20
177.98861309619755
  0
LWPOLYLINE
  5
46
330
17
100
AcDbEntity
  8
M
100
AcDbPolyline
 90
62
 70
1
 10
3235.7315829186464
 20
306.6899508959237
 10
3235.106001405266
 20
309.40652210194116
 10
3231.953310691632
 20
309.40652210194116
 10
3231.322772548905
 20
312.14461734003646
 10
3225.647929264364
 20
312.14461734003646
 10
3225.017391121637
 20
314.88271257813165
 10
3221.864700408003
 20
314.88271257813165
 10
3221.234162265276
 20
317.6208078162269
 10
3216.820395266189
 20
317.6208078162269
 10
3216.186233030945
 20
320.3746405803973
 10
3203.5754701764095
 20
323.1127358184926
 10
3202.9485561261995
 20
325.8350935305126
 10
3199.7958654125655
 20
325.8350935305126
 10
3199.169212656007
 20
328.55631658175025
 10
3185.455990452943
 20
325.84952997370004
 10
3184.8221278356145
 20
323.09699829241737
 10
3181.6694371219805
 20
323.09699829241737
 10
3181.038898979254
 20
320.35890305432207
 10
3177.255670122893
 20
320.35890305432207
 10
3176.6251319801663
 20
317.6208078162269
 10
3173.4724412665323
 20
317.6208078162269
 10
3172.8475441927258
 20
314.9072087709883
 10
3165.1237388003133
 20
312.11217368747987
 10
3164.1500492727478
 20
316.34039475477266
 10
3164.1500492727478
 20
453.26788754434784
 10
3165.1162675625924
 20
457.46366495908404
 10
3169.058674267445
 20
457.46366495908404
 10
3169.694489801075
 20
454.70265279031855
 10
3177.8914856565234
 20
451.96455755222325
 10
3179.147284551074
 20
446.5112840067031
 10
3181.0332132570848
 20
446.5112840067031
 10
3183.568653264828
 20
438.25372303467054
 10
3186.718569710474
 20
435.518037233674
 10
3189.855575884059
 20
427.34461734003645
 10
3191.121823540713
 20
427.34461734003645
 10
3193.6572635484563
 20
419.08705636800386
 10
3196.812909090791
 20
416.3463948767843
 10
3198.0739853762448
 20
410.8702044005938
 10
3201.223721261178
 20
408.13467541562295
 10
3203.7325863952487
 20
399.96366495908404
 10
3204.999348402872
 20
399.96366495908404
 10
3205.631516525784
 20
397.2184915750679
 10
3235.2668092339427
 20
394.48039633697255
 10
3235.8957173964845
 20
391.7493792447983
 10
3240.9400225382988
 20
391.7493792447983
 10
3241.570560681026
 20
389.0112840067031
 10
3246.6148658228403
 20
389.0112840067031
 10
3247.247103400437
 20
386.2658090175514
 10
3275.621319823142
 20
383.5277137794561
 10
3282.2606819626576
 20
354.6964589729193
 10
3282.2606819626576
 20
349.22026849672875
 10
3282.893837379191
 20
346.4708078162269
 10
3281.927755609686
 20
342.2756232374599
 10
3264.9032257560625
 20
339.5375279993647
 10
3264.273557911707
 20
336.8032120089687
 10
3251.6627950571715
 20
334.06511677087354
 10
3249.4726985408647
 20
324.55468046905827
 10
3249.4726985408647
 20
310.8642042785821
 10
3248.50648025102
 20
306.6684268638459
 10
3245.353789537386
 20
306.6684268638459
 10
3244.716935283527
 20
303.90290407990756
 10
3235.7315829186464
 20
306.6899508959237
  0
LWPOLYLINE
  5
47
330
17
100
AcDbEntity
  8
M
100
AcDbPolyline
 90
94
 70
1
 10
5056.43645400144
 20
506.5665012356968
 10
5055.439512472813
 20
509.28747448289346
 10
5052.429867830029
 20
509.28747448289346
 10
5051.4266529491015
 20
512.0255697209888
 10
5048.417008306317
 20
512.0255697209888
 10
5047.4137934253895
 20
514.763664959084
 10
5044.423314133927
 20
514.763664959084
 10
5040.410454610215
 20
520.2398554352745
 10
5038.384859497038
 20
520.2398554352745
 10
5033.84186298186
 20
532.639150303573
 10
5032.838648100932
 20
543.5915312559538
 10
5030.359140449615
 20
550.3589030543221
 10
5021.330206521263
 20
550.3589030543221
 10
5020.326991640335
 20
553.0969982924174
 10
5016.314132116623
 20
553.0969982924174
 10
5015.310917235694
 20
555.8350935305125
 10
5008.2884130692
 20
555.8350935305125
 10
5007.285198188271
 20
558.5731887686078
 10
5001.265908902704
 20
558.5731887686078
 10
5000.262694021775
 20
561.3112840067032
 10
4991.233760093424
 20
561.3112840067032
 10
4990.270731216072
 20
563.9396987495
 10
4988.34467346137
 20
561.3112840067032
 10
4978.1919666413605
 20
561.3112840067032
 10
4977.188751760433
 20
564.0493792447983
 10
4973.175892236722
 20
564.0493792447983
 10
4972.172677355793
 20
566.7874744828936
 10
4963.264301438171
 20
566.7874744828936
 10
4961.177499669162
 20
563.9396987495
 10
4960.134098784658
 20
566.7874744828936
 10
4958.267392384852
 20
566.7874744828936
 10
4957.264177503925
 20
564.0493792447983
 10
4946.089090451666
 20
564.0493792447983
 10
4945.085875570739
 20
566.7874744828936
 10
4937.086005717544
 20
566.7874744828936
 10
4932.069931312905
 20
572.2636649590839
 10
4928.057071789193
 20
572.2636649590839
 10
4922.99791539417
 20
577.786889264201
 10
4920.476972669029
 20
584.6673506712681
 10
4920.476972669029
 20
590.1790268659474
 10
4922.483402430886
 20
595.6552173421381
 10
4922.483402430886
 20
601.1314078183285
 10
4923.480116478615
 20
603.8517601971794
 10
4921.997741174735
 20
607.8976379426009
 10
4907.952732841744
 20
618.8500188949819
 10
4906.954072904563
 20
621.5756822303797
 10
4900.934783618995
 20
624.3137774684749
 10
4899.402959336344
 20
628.4946173400363
 10
4901.947635690836
 20
635.4398554352745
 10
4905.097003695671
 20
635.4398554352745
 10
4906.1002185766
 20
632.7017601971792
 10
4915.129152504951
 20
632.7017601971792
 10
4916.13236738588
 20
629.9636649590841
 10
4925.1613013142305
 20
629.9636649590841
 10
4926.164516195158
 20
627.2255697209888
 10
4935.19345012351
 20
627.2255697209888
 10
4936.196665004438
 20
624.4874744828934
 10
4945.22559893279
 20
624.4874744828934
 10
4946.221973613234
 20
621.768048346232
 10
4957.227914751997
 20
624.4988432587318
 10
4962.254402714335
 20
619.011284006703
 10
4966.267262238047
 20
619.011284006703
 10
4971.283336642686
 20
613.5350935305127
 10
4974.3188304797
 20
613.5350935305127
 10
4975.322045360627
 20
610.7969982924172
 10
4978.3316900034115
 20
610.7969982924172
 10
4979.334904884339
 20
608.0589030543222
 10
4982.3445495271235
 20
608.0589030543222
 10
4983.347764408052
 20
605.3208078162269
 10
4986.357409050835
 20
605.3208078162269
 10
4987.360623931763
 20
602.5827125781316
 10
4990.370268574547
 20
602.5827125781316
 10
4991.381093862753
 20
599.8238460971826
 10
4999.406812910176
 20
597.0857508590872
 10
5000.39394827147
 20
594.3915417883305
 10
5009.284748920317
 20
597.0877470228178
 10
5010.7598111193465
 20
601.1136649590841
 10
5005.256665200496
 20
616.1335155627822
 10
4997.730686879976
 20
631.1967756030788
 10
4994.709969573334
 20
642.1894510244506
 10
4996.2579426468
 20
646.4143661266222
 10
5071.637312893164
 20
624.4693546218721
 10
5075.171255438285
 20
614.8240917390606
 10
5076.174729773547
 20
592.9136647614229
 10
5080.1910786920425
 20
576.4708078162269
 10
5078.181708974717
 20
568.2444859795362
 10
5078.181708974717
 20
554.5569617124402
 10
5077.182212261691
 20
549.1010673822115
 10
5085.212359473078
 20
529.923825570548
 10
5074.637849439592
 20
503.81128400670303
 10
5069.484520805804
 20
503.81128400670303
 10
5068.521491928453
 20
506.4396987495001
 10
5066.584751200412
 20
503.7967053760524
 10
5056.43645400144
 20
506.5665012356968
  0
LWPOLYLINE
  5
48
330
17
100
AcDbEntity
  8
M
100
AcDbPolyline
 90
64
 70
1
 10
5755.923937225628
 20
884.4065221019413
 10
5750.777760212507
 20
884.4065221019413
 10
5749.920064043655
 20
887.1446173400363
 10
5744.773887030534
 20
887.1446173400363
 10
5743.91619086168
 20
889.8827125781316
 10
5738.77001384856
 20
889.8827125781316
 10
5737.912317679707
 20
892.6208078162269
 10
5732.766140666586
 20
892.6208078162269
 10
5731.908444497732
 20
895.3589030543221
 10
5727.638075701994
 20
895.3589030543221
 10
5724.207291026581
 20
900.8350935305127
 10
5720.7583943026375
 20
900.8350935305127
 10
5719.894265681431
 20
903.5937236244209
 10
5702.7403423043625
 20
909.0699141006113
 10
5701.889078587862
 20
911.7874744828936
 10
5696.742901574741
 20
911.7874744828936
 10
5695.885205405888
 20
914.5255697209889
 10
5690.739028392768
 20
914.5255697209889
 10
5689.881332223915
 20
917.2636649590839
 10
5685.602816267211
 20
917.2636649590839
 10
5683.029727760651
 20
922.7398554352746
 10
5678.739409768695
 20
922.7398554352746
 10
5675.702812235712
 20
929.6641299769437
 10
5675.702812235712
 20
943.3555256875752
 10
5672.2720275603
 20
951.5698114018606
 10
5672.2720275603
 20
954.3524834005482
 10
5674.539459598566
 20
958.6955911994213
 10
5675.447430949166
 20
955.7969982924172
 10
5685.739784975407
 20
955.7969982924172
 10
5686.554540628517
 20
953.1959856553043
 10
5688.184051934736
 20
955.7969982924172
 10
5690.028265819674
 20
955.7969982924172
 10
5690.8124951906475
 20
953.2934372597177
 10
5691.596724561621
 20
955.7969982924172
 10
5695.174442832795
 20
955.7969982924172
 10
5696.032139001648
 20
953.0589030543222
 10
5698.476405960978
 20
953.0589030543222
 10
5700.277679330172
 20
955.9340808933994
 10
5701.178316014769
 20
953.0589030543222
 10
5705.466796859036
 20
953.0589030543222
 10
5706.251026230009
 20
950.5553420216224
 10
5707.035255600982
 20
953.0589030543222
 10
5715.741038836748
 20
953.0589030543222
 10
5717.370550142968
 20
950.457890417209
 10
5718.185305796077
 20
953.0589030543222
 10
5720.878627147791
 20
953.0589030543222
 10
5727.740196498619
 20
944.8446173400364
 10
5732.0553780934915
 20
944.8446173400364
 10
5733.770770431199
 20
939.368426863846
 10
5738.916947444319
 20
939.368426863846
 10
5740.642683801497
 20
933.8592143088771
 10
5750.065134756079
 20
928.3901091267057
 10
5753.479670266298
 20
922.9398554352746
 10
5757.77629827153
 20
922.9398554352746
 10
5760.34938677809
 20
917.463664959084
 10
5764.637867622358
 20
917.463664959084
 10
5767.240850791611
 20
911.9238509943455
 10
5768.533998471883
 20
907.7956274647494
 10
5768.533998471883
 20
896.8079066399562
 10
5765.1032137964685
 20
888.5936209256704
 10
5765.1032137964685
 20
883.1221786438947
 10
5763.779838288914
 20
878.8974562922833
 10
5756.773883233571
 20
881.6931683509297
 10
5755.923937225628
 20
884.4065221019413
  0
LWPOLYLINE
  5
49
330
17
100
AcDbEntity
  8
M
100
AcDbPolyline
 90
241
 70
1
 10
5531.207540986032
 20
276.54937924479833
 10
5515.76900994667
 20
276.54937924479833
 10
5514.909341160268
 20
279.2937718349297
 10
5484.032279081545
 20
282.0318670730249
 10
5482.318859361387
 20
287.5017601971793
 10
5466.880328322025
 20
287.5017601971793
 10
5466.019606701341
 20
290.24951383827465
 10
5456.132399368074
 20
291.6218511936215
 10
5456.562531014585
 20
485.235330269896
 10
5456.610249433234
 20
485.24257496592156
 10
5457.592604060397
 20
482.1065221019412
 10
5467.884958086638
 20
482.1065221019412
 10
5468.73534722933
 20
479.3917536947984
 10
5478.1700050867175
 20
482.1298489328937
 10
5479.035008281732
 20
479.3684268638459
 10
5489.327362307973
 20
479.3684268638459
 10
5490.185058476827
 20
476.63033162575067
 10
5491.7535172187745
 20
476.63033162575067
 10
5492.611213387628
 20
479.3684268638459
 10
5499.619716334215
 20
479.3684268638459
 10
5500.477412503068
 20
476.63033162575067
 10
5508.907440595843
 20
476.63033162575067
 10
5509.838603562576
 20
479.60296106924153
 10
5510.769766529309
 20
476.63033162575067
 10
5521.06212055555
 20
476.63033162575067
 10
5521.911722040351
 20
473.91807772478927
 10
5530.488683728885
 20
476.6561729628845
 10
5531.281007783911
 20
474.12677059305116
 10
5532.46276068358
 20
477.89937924479835
 10
5531.609855868339
 20
480.6221786438947
 10
5531.609855868339
 20
488.827227470001
 10
5527.321375024071
 20
497.04151318428677
 10
5527.321375024071
 20
505.25579889857244
 10
5523.032894179803
 20
513.4700846128582
 10
5523.032894179803
 20
518.955511977228
 10
5521.772883128644
 20
522.9779506733698
 10
5520.057490790938
 20
522.9779506733698
 10
5519.1997946220845
 20
525.7160459114649
 10
5509.765136764696
 20
525.7160459114649
 10
5508.907440595843
 20
528.4541411495602
 10
5505.476655920429
 20
528.4541411495602
 10
5504.614174374408
 20
531.2075131475486
 10
5492.62783663869
 20
533.9407266317136
 10
5488.347496268013
 20
539.406522101941
 10
5478.888074685972
 20
539.406522101941
 10
5478.030378517119
 20
542.1446173400363
 10
5473.741897672852
 20
542.1446173400363
 10
5472.884201503999
 20
544.8827125781316
 10
5468.595720659731
 20
544.8827125781316
 10
5467.738024490878
 20
547.6208078162268
 10
5460.036871019726
 20
547.6208078162268
 10
5456.561441093663
 20
553.1682606768402
 10
5456.561441093663
 20
599.8861928729606
 10
5464.316307511137
 20
597.1354696654727
 10
5465.164935984319
 20
599.8446173400365
 10
5469.600350424345
 20
599.8446173400365
 10
5470.458046593199
 20
597.1065221019411
 10
5472.884201503999
 20
597.1065221019411
 10
5473.741897672852
 20
599.8446173400365
 10
5479.035008281732
 20
599.8446173400365
 10
5479.892704450586
 20
597.1065221019411
 10
5482.318859361387
 20
597.1065221019411
 10
5483.17655553024
 20
599.8446173400365
 10
5513.342855035869
 20
599.8446173400365
 10
5514.127084406842
 20
597.3410563073367
 10
5514.911313777817
 20
599.8446173400365
 10
5521.919816724403
 20
599.8446173400365
 10
5522.704046095378
 20
597.3410563073367
 10
5523.48827546635
 20
599.8446173400365
 10
5530.496778412938
 20
599.8446173400365
 10
5532.219202830525
 20
594.3459777669116
 10
5539.938468350206
 20
591.6078825288165
 10
5541.246923579377
 20
587.4307914301779
 10
5540.386817556872
 20
581.9392145991295
 10
5540.386817556872
 20
543.5891322319058
 10
5536.0983367126055
 20
535.37484651762
 10
5536.0983367126055
 20
529.9441523221768
 10
5539.05567558102
 20
523.2006092562181
 10
5547.642607105954
 20
525.9418872485988
 10
5548.50839795886
 20
523.1779506733698
 10
5557.0853596473935
 20
523.1779506733698
 10
5557.943055816248
 20
520.4398554352745
 10
5567.377713673635
 20
520.4398554352745
 10
5568.2354098424885
 20
517.7017601971792
 10
5569.803868584436
 20
517.7017601971792
 10
5570.661564753289
 20
520.4398554352745
 10
5575.954675362169
 20
520.4398554352745
 10
5576.815526253731
 20
517.6916891119414
 10
5595.684841968506
 20
514.9535938738461
 10
5596.531288730599
 20
512.2514110581227
 10
5605.108250419133
 20
514.9895062962178
 10
5605.974041272039
 20
512.2255697209888
 10
5614.551002960573
 20
512.2255697209888
 10
5615.408699129427
 20
509.48747448289345
 10
5628.1272080664685
 20
509.48747448289345
 10
5628.984904235322
 20
512.2255697209888
 10
5635.846473586149
 20
512.2255697209888
 10
5636.704169755002
 20
514.9636649590841
 10
5643.565739105829
 20
514.9636649590841
 10
5644.423435274683
 20
517.7017601971792
 10
5647.854219950097
 20
517.7017601971792
 10
5648.71191611895
 20
520.4398554352745
 10
5652.142700794364
 20
520.4398554352745
 10
5653.043337478961
 20
523.3150332743519
 10
5654.74673159587
 20
520.5960894982921
 10
5657.283115382824
 20
531.3922363876555
 10
5659.004270145191
 20
531.3922363876555
 10
5660.2642811963515
 20
535.4146750837972
 10
5660.2642811963515
 20
540.8908655599876
 10
5661.620299167495
 20
545.2197951791138
 10
5663.4215725366885
 20
542.3446173400364
 10
5667.581231833726
 20
542.3446173400364
 10
5668.438928002579
 20
545.0827125781317
 10
5670.291289048481
 20
545.0827125781317
 10
5672.864377555041
 20
539.6065221019411
 10
5679.723045348996
 20
539.6065221019411
 10
5684.011526193263
 20
531.3922363876555
 10
5690.867849939998
 20
531.3922363876555
 10
5694.307776222809
 20
525.9014541524076
 10
5703.742434080197
 20
523.1633589143123
 10
5707.164077148213
 20
517.7017601971792
 10
5713.1679503301875
 20
517.7017601971792
 10
5718.3141273433075
 20
509.48747448289345
 10
5724.311348849159
 20
509.48747448289345
 10
5728.599829693426
 20
504.011284006703
 10
5732.0553780934915
 20
504.011284006703
 10
5732.913074262346
 20
501.27318876860795
 10
5738.916947444319
 20
501.27318876860795
 10
5740.632339782026
 20
495.79699829241736
 10
5746.609512213394
 20
495.79699829241736
 10
5753.480707798536
 20
487.57118859069163
 10
5763.795626574769
 20
484.82709040765855
 10
5765.1090343230135
 20
480.6341889680355
 10
5760.354677704232
 20
468.21604591146496
 10
5758.643959327948
 20
468.21604591146496
 10
5757.75708330806
 20
465.38479739360986
 10
5755.1839948014995
 20
468.1228926317051
 10
5754.355478483681
 20
465.4779506733698
 10
5750.924693808267
 20
465.4779506733698
 10
5750.0378177883795
 20
462.6467021555147
 10
5747.464729281819
 20
465.38479739360986
 10
5745.783302172314
 20
460.0170369570724
 10
5733.775555808365
 20
457.27894171897714
 10
5732.5107593800385
 20
453.24122626294235
 10
5732.5107593800385
 20
425.86027388198994
 10
5731.197681924638
 20
421.6684268638459
 10
5727.619963653466
 20
421.6684268638459
 10
5726.770362168664
 20
424.38068076480744
 10
5718.19340048013
 20
421.64258552671214
 10
5717.327609627224
 20
424.4065221019412
 10
5710.594861823627
 20
424.4065221019412
 10
5708.793588454434
 20
421.5313442628637
 10
5707.892951769836
 20
424.4065221019412
 10
5678.73128202882
 20
424.4065221019412
 10
5677.873585859967
 20
427.14461734003646
 10
5676.305127118019
 20
427.14461734003646
 10
5675.447430949166
 20
424.4065221019412
 10
5668.438928002579
 20
424.4065221019412
 10
5667.581231833726
 20
427.14461734003646
 10
5660.7196624828985
 20
427.14461734003646
 10
5659.861966314045
 20
429.88271257813165
 10
5656.455945363283
 20
429.88271257813165
 10
5652.167464519017
 20
435.3589030543222
 10
5644.423435274683
 20
435.3589030543222
 10
5643.56294294549
 20
438.1059247090074
 10
5622.120538724155
 20
440.8440199471026
 10
5621.26563871564
 20
443.5731887686079
 10
5610.973284689399
 20
443.5731887686079
 10
5610.115588520546
 20
446.3112840067031
 10
5600.6809306631585
 20
446.3112840067031
 10
5599.896701292186
 20
448.81484503940266
 10
5599.112471921211
 20
446.3112840067031
 10
5590.388576636918
 20
446.3112840067031
 10
5589.530880468064
 20
449.04937924479833
 10
5579.238526441823
 20
449.04937924479833
 10
5578.380830272969
 20
451.7874744828935
 10
5568.0884762467285
 20
451.7874744828935
 10
5567.230780077875
 20
454.52556972098887
 10
5556.938426051634
 20
454.52556972098887
 10
5556.08072988278
 20
457.26366495908405
 10
5553.65457497198
 20
457.26366495908405
 10
5551.939182634273
 20
451.7874744828935
 10
5550.223790296567
 20
451.7874744828935
 10
5547.650701790007
 20
443.5731887686079
 10
5545.94107187696
 20
443.5731887686079
 10
5543.331278650793
 20
432.46457375320927
 10
5541.615886313086
 20
435.2026689913046
 10
5539.079502526133
 20
424.4065221019412
 10
5537.358347763766
 20
424.4065221019412
 10
5534.785259257205
 20
416.1922363876555
 10
5533.069866919498
 20
416.1922363876555
 10
5531.81464722195
 20
412.18509353051263
 10
5533.077617080408
 20
408.153209186286
 10
5539.931691284025
 20
405.41810487138036
 10
5545.067648395881
 20
394.4874744828935
 10
5547.656464214667
 20
394.4874744828935
 10
5550.229552721227
 20
383.5350935305126
 10
5551.944945058934
 20
383.5350935305126
 10
5554.518033565494
 20
372.58271257813163
 10
5556.22766347854
 20
372.58271257813163
 10
5557.5407409339405
 20
368.3908655599876
 10
5557.5407409339405
 20
360.1765798457019
 10
5558.403228456406
 20
357.4231887686079
 10
5557.011892849515
 20
352.98151170606934
 10
5556.08072988278
 20
355.9541411495602
 10
5553.65457497198
 20
355.9541411495602
 10
5552.796878803127
 20
353.216045911465
 10
5549.366094127713
 20
353.216045911465
 10
5548.50839795886
 20
350.4779506733698
 10
5540.7891324391785
 20
350.4779506733698
 10
5539.931436270326
 20
347.7398554352746
 10
5536.500651594912
 20
347.7398554352746
 10
5535.621259493634
 20
344.9324984569346
 10
5532.190474818221
 20
347.6705936950299
 10
5531.354474581791
 20
345.00176019717924
 10
5527.923689906378
 20
345.00176019717924
 10
5525.810774039976
 20
338.2565221019412
 10
5527.923689906378
 20
331.5112840067031
 10
5530.496778412938
 20
331.5112840067031
 10
5532.212170750645
 20
326.0350935305126
 10
5535.6429554260585
 20
326.0350935305126
 10
5536.500651594912
 20
323.29699829241736
 10
5539.073740101472
 20
323.29699829241736
 10
5540.7891324391785
 20
317.8208078162269
 10
5543.354093205864
 20
317.8208078162269
 10
5549.357966387838
 20
304.1303316257507
 10
5551.939182634273
 20
304.1303316257507
 10
5553.65457497198
 20
298.6541411495602
 10
5556.22766347854
 20
298.6541411495602
 10
5557.943055816248
 20
293.17795067336976
 10
5560.516144322808
 20
293.17795067336976
 10
5562.231536660514
 20
287.7017601971792
 10
5564.804625167075
 20
287.7017601971792
 10
5566.978289850236
 20
280.7625885717122
 10
5565.676506828823
 20
273.83627048573186
 10
5557.950087896128
 20
271.0956378655421
 10
5557.081269180484
 20
268.3220351907723
 10
5540.63858082911
 20
271.08473885838475
 10
5539.784502674566
 20
273.81128400670315
 10
5532.065237154885
 20
273.81128400670315
 10
5531.207540986032
 20
276.54937924479833
  0
LWPOLYLINE
  5
4A
330
17
100
AcDbEntity
  8
M
100
AcDbPolyline
 90
163
 70
1
 10
5642.708042936976
 20
736.5493792447984
 10
5636.714134642567
 20
736.5493792447984
 10
5634.1410461360065
 20
742.0255697209888
 10
5628.151971791121
 20
742.0255697209888
 10
5623.863490946853
 20
747.5017601971791
 10
5620.407942546787
 20
747.5017601971791
 10
5619.550246377934
 20
750.2398554352745
 10
5613.54637319596
 20
750.2398554352745
 10
5611.830980858253
 20
755.7160459114649
 10
5604.969411507426
 20
755.7160459114649
 10
5604.111715338572
 20
758.4541411495602
 10
5599.841346542834
 20
758.4541411495602
 10
5596.41056186742
 20
763.9303316257507
 10
5590.406688685446
 20
763.9303316257507
 10
5586.968039268366
 20
769.4190757383503
 10
5575.802627755767
 20
772.1609432240652
 10
5574.092349428703
 20
777.6208078162268
 10
5567.230780077875
 20
777.6208078162268
 10
5566.373083909021
 20
780.3589030543221
 10
5562.9422992336085
 20
780.3589030543221
 10
5561.629221778208
 20
784.5507500724663
 10
5561.629221778208
 20
828.36027388199
 10
5560.369210727048
 20
832.3827125781318
 10
5557.796122220488
 20
832.3827125781318
 10
5556.08072988278
 20
837.8589030543222
 10
5553.50764137622
 20
837.8589030543222
 10
5552.642913127487
 20
840.6194473893515
 10
5544.937893281783
 20
843.3524895544598
 10
5539.802614723095
 20
851.5493792447984
 10
5534.656437709974
 20
851.5493792447984
 10
5531.22565303456
 20
857.0255697209888
 10
5527.776756310618
 20
857.0255697209888
 10
5526.910436737261
 20
859.7911941747469
 10
5520.906563555288
 20
862.5292894128422
 10
5518.7444133355375
 20
869.4317024534187
 10
5518.7444133355375
 20
907.7956274647494
 10
5520.057490790938
 20
911.9874744828935
 10
5522.630579297497
 20
911.9874744828935
 10
5523.48827546635
 20
914.7255697209888
 10
5525.350601399818
 20
914.7255697209888
 10
5526.208297568671
 20
911.9874744828935
 10
5537.358347763766
 20
911.9874744828935
 10
5538.216043932619
 20
909.2493792447982
 10
5539.784502674566
 20
909.2493792447982
 10
5540.6421988434195
 20
911.9874744828935
 10
5543.362220945739
 20
911.9874744828935
 10
5544.146450316713
 20
909.4839134501938
 10
5544.930679687686
 20
911.9874744828935
 10
5549.366094127713
 20
911.9874744828935
 10
5550.223790296567
 20
909.2493792447982
 10
5552.649945207368
 20
909.2493792447982
 10
5553.907546404876
 20
913.264124763511
 10
5553.052260089674
 20
918.7249288848441
 10
5553.052260089674
 20
932.4043087813183
 10
5548.763779245407
 20
943.3566897336993
 10
5548.763779245407
 20
954.3090706860802
 10
5544.469350942389
 20
965.2766408945891
 10
5545.86184265442
 20
969.7220086882892
 10
5546.775894223708
 20
966.8040053904696
 10
5551.0392154637075
 20
969.5260368066341
 10
5552.6928857231105
 20
966.8864618457804
 10
5553.50764137622
 20
969.4874744828936
 10
5561.226906895901
 20
969.4874744828936
 10
5562.158069862635
 20
972.4601039263842
 10
5563.089232829368
 20
969.4874744828936
 10
5565.533499788698
 20
969.4874744828936
 10
5567.292658182101
 20
972.2954287416093
 10
5574.212582273856
 20
964.011284006703
 10
5579.3606963129305
 20
964.011284006703
 10
5583.649177157197
 20
958.5350935305125
 10
5586.24702938841
 20
958.5350935305125
 10
5587.104725557263
 20
955.7969982924172
 10
5592.2242018197785
 20
955.7969982924172
 10
5599.085771170605
 20
947.5827125781316
 10
5604.23388520968
 20
947.5827125781316
 10
5608.522366053947
 20
942.1065221019411
 10
5611.120218285159
 20
942.1065221019411
 10
5611.9779144540125
 20
939.368426863846
 10
5617.097390716527
 20
939.368426863846
 10
5623.958960067354
 20
931.1541411495602
 10
5629.113725782552
 20
931.1541411495602
 10
5632.553652065362
 20
925.6633589143122
 10
5641.995097222779
 20
922.9232938884231
 10
5644.560403982879
 20
917.463664959084
 10
5648.85884971471
 20
917.463664959084
 10
5649.716545883563
 20
914.7255697209888
 10
5651.43193822127
 20
914.7255697209888
 10
5652.74501567667
 20
910.5337227028447
 10
5652.74501567667
 20
902.324185182974
 10
5656.1758003520845
 20
894.1098994686882
 10
5656.1758003520845
 20
885.8940581617298
 10
5660.861922117235
 20
873.6541411495602
 10
5665.136964874396
 20
873.6541411495602
 10
5668.567749549809
 20
868.1779506733698
 10
5672.016646273752
 20
868.1779506733698
 10
5672.874342442606
 20
865.4398554352745
 10
5678.010554568162
 20
865.4398554352745
 10
5680.583643074722
 20
859.9636649590841
 10
5684.863976758024
 20
859.9636649590841
 10
5688.294761433438
 20
854.4874744828936
 10
5690.028265819674
 20
854.4874744828936
 10
5691.743658157381
 20
849.011284006703
 10
5693.459050495088
 20
849.011284006703
 10
5696.041842865924
 20
840.7660198346258
 10
5701.182481364916
 20
838.0308714402016
 10
5707.174061456867
 20
824.3684268638458
 10
5708.897581534449
 20
824.3684268638458
 10
5710.6129738721565
 20
818.8922363876554
 10
5713.171011981761
 20
818.8922363876554
 10
5724.799859945266
 20
798.2679340157348
 10
5723.464357222903
 20
794.0044969416791
 10
5718.318180209782
 20
796.7425921797744
 10
5717.474543222983
 20
794.0493792447983
 10
5715.630329338046
 20
794.0493792447983
 10
5714.000818031826
 20
796.6503918819112
 10
5713.186062378717
 20
794.0493792447983
 10
5704.480279142952
 20
794.0493792447983
 10
5702.835883162512
 20
796.6741506773216
 10
5699.924930518228
 20
790.036380914323
 10
5701.182811969295
 20
786.0207407187289
 10
5714.026630750661
 20
783.2872475680228
 10
5718.307475667185
 20
777.8208078162268
 10
5721.763024067251
 20
777.8208078162268
 10
5722.620720236104
 20
775.0827125781317
 10
5727.766897249225
 20
775.0827125781317
 10
5729.084766058237
 20
770.8755697209888
 10
5727.775520653728
 20
766.6959560795086
 10
5721.771647471754
 20
763.9578608414134
 10
5720.047631729543
 20
758.4541411495602
 10
5718.332239391837
 20
758.4541411495602
 10
5717.474543222983
 20
755.7160459114649
 10
5714.033793660006
 20
755.7160459114649
 10
5708.836678078456
 20
744.6552546566061
 10
5707.139248680999
 20
747.3646775961971
 10
5705.466796859036
 20
742.0255697209888
 10
5703.604470925569
 20
742.0255697209888
 10
5702.820241554596
 20
744.5291307536883
 10
5702.036012183622
 20
742.0255697209888
 10
5697.600597743595
 20
742.0255697209888
 10
5696.742901574741
 20
744.763664959084
 10
5695.174442832795
 20
744.763664959084
 10
5694.316746663941
 20
742.0255697209888
 10
5691.596724561621
 20
742.0255697209888
 10
5690.739028392768
 20
744.763664959084
 10
5688.3128734819675
 20
744.763664959084
 10
5687.455177313113
 20
742.0255697209888
 10
5685.610963428176
 20
742.0255697209888
 10
5683.981452121957
 20
744.6265823581017
 10
5683.166696468847
 20
742.0255697209888
 10
5678.73128202882
 20
742.0255697209888
 10
5677.873585859967
 20
744.763664959084
 10
5676.280363393367
 20
744.763664959084
 10
5671.9918825490995
 20
739.2874744828935
 10
5664.297380754071
 20
739.2874744828935
 10
5663.439684585218
 20
736.5493792447984
 10
5661.577358651752
 20
736.5493792447984
 10
5660.793129280778
 20
739.0529402774979
 10
5659.151203740951
 20
733.8112840067031
 10
5653.147330558977
 20
733.8112840067031
 10
5651.388997705527
 20
728.1980109295303
 10
5647.872331998626
 20
733.8112840067031
 10
5643.565739105829
 20
733.8112840067031
 10
5642.708042936976
 20
736.5493792447984
  0
LWPOLYLINE
  5
4B
330
17
100
AcDbEntity
  8
M
100
AcDbPolyline
 90
56
 70
1
 10
5504.618959751576
 20
725.5969982924173
 10
5500.35524263196
 20
725.5969982924173
 10
5496.066761787693
 20
731.0731887686077
 10
5492.611213387628
 20
731.0731887686077
 10
5490.89582104992
 20
736.5493792447984
 10
5484.034251699094
 20
736.5493792447984
 10
5482.318859361387
 20
742.0255697209888
 10
5476.333098227941
 20
742.0255697209888
 10
5472.9023135525285
 20
747.5017601971791
 10
5469.463381716149
 20
747.5017601971791
 10
5466.890293209589
 20
752.9779506733698
 10
5460.876455140051
 20
752.9779506733698
 10
5459.1610628023445
 20
758.4541411495602
 10
5456.56233207604
 20
758.4541411495602
 10
5456.13191858041
 20
806.5457165765961
 10
5461.0160817096485
 20
807.9631822662268
 10
5461.885324101873
 20
805.1882270532626
 10
5475.608462803527
 20
802.4501318151673
 10
5476.46615897238
 20
799.7120365770722
 10
5490.1892976740355
 20
796.9739413389769
 10
5491.04275464568
 20
794.2493792447982
 10
5496.041998063041
 20
794.2493792447982
 10
5496.973161029775
 20
797.2220086882891
 10
5497.904323996508
 20
794.2493792447982
 10
5503.908197178482
 20
794.2493792447982
 10
5504.765893347336
 20
791.5112840067031
 10
5511.627462698162
 20
791.5112840067031
 10
5512.485158867016
 20
788.7731887686078
 10
5518.48903204899
 20
788.7731887686078
 10
5519.350967415052
 20
786.0215603865959
 10
5533.067057282743
 20
783.2848715599004
 10
5536.0983367126055
 20
776.3727237507483
 10
5536.0983367126055
 20
770.8908655599876
 10
5537.358347763766
 20
766.8684268638459
 10
5539.073740101472
 20
766.8684268638459
 10
5540.386817556872
 20
762.6765798457018
 10
5540.386817556872
 20
751.7334357815005
 10
5544.675298401139
 20
743.5191500672147
 10
5544.675298401139
 20
732.5500200809431
 10
5545.535404423644
 20
727.0584432498949
 10
5544.146450316713
 20
722.6243688489265
 10
5543.215287349979
 20
725.5969982924173
 10
5540.7891324391785
 20
725.5969982924173
 10
5539.931436270326
 20
722.8589030543222
 10
5537.211414168006
 20
722.8589030543222
 10
5536.427184797031
 20
725.3624640870217
 10
5534.785259257205
 20
720.1208078162269
 10
5532.212170750645
 20
720.1208078162269
 10
5531.281007783911
 20
717.1481783727361
 10
5530.349844817179
 20
720.1208078162269
 10
5527.923689906378
 20
720.1208078162269
 10
5527.065993737525
 20
717.3827125781315
 10
5509.765136764696
 20
717.3827125781315
 10
5508.0497444269895
 20
722.8589030543222
 10
5505.476655920429
 20
722.8589030543222
 10
5504.618959751576
 20
725.5969982924173
  0
LWPOLYLINE
  5
4C
330
17
100
AcDbEntity
  8
M
100
AcDbPolyline
 90
26
 70
1
 10
5460.0358703686425
 20
723.1135291999935
 10
5464.32435121291
 20
720.3754339618981
 10
5466.022632153171
 20
725.7969982924172
 10
5470.43993454467
 20
725.7969982924172
 10
5473.870719220084
 20
720.3208078162269
 10
5478.177312112879
 20
720.3208078162269
 10
5479.035008281732
 20
717.5827125781316
 10
5485.8965776325595
 20
717.5827125781316
 10
5487.611969970267
 20
712.1065221019411
 10
5494.46357443353
 20
712.1065221019411
 10
5497.03666294009
 20
706.6303316257507
 10
5503.040536122064
 20
706.6303316257507
 10
5505.619894030497
 20
701.1407982588131
 10
5517.636121257303
 20
698.4007691515719
 10
5518.944413335536
 20
694.2241988933209
 10
5518.944413335536
 20
669.5507500724663
 10
5517.631335880137
 20
665.3589030543221
 10
5515.058247373577
 20
665.3589030543221
 10
5514.200551204723
 20
662.6208078162268
 10
5510.622832933549
 20
662.6208078162268
 10
5509.838603562576
 20
665.1243688489266
 10
5509.046422130385
 20
662.5954217858998
 10
5456.562230921064
 20
679.0757176514593
 10
5456.13189603636
 20
718.9157452743502
 10
5459.152439397842
 20
720.293278600564
 10
5460.0358703686425
 20
723.1135291999935
  0
LWPOLYLINE
  5
4D
330
17
100
AcDbEntity
  8
M
100
AcDbPolyline
 90
58
 70
1
 10
6688.536363919353
 20
613.3528774597863
 10
6686.892134536471
 20
616.0841640327903
 10
6673.692031683341
 20
618.8250577350598
 10
6669.5487921588765
 20
631.2135202449156
 10
6667.901146478566
 20
658.583135278864
 10
6663.812060639524
 20
665.3756578820424
 10
6630.850402626618
 20
676.3264090231995
 10
6621.7463004134315
 20
688.699887695009
 10
6621.7463004134315
 20
691.4430303771821
 10
6615.144459134384
 20
702.4095783724247
 10
6616.801315854026
 20
707.9141029343383
 10
6616.801315854026
 20
721.6176328743192
 10
6620.097972226963
 20
727.0938233505098
 10
6620.097972226963
 20
737.9906494248012
 10
6616.80297269804
 20
743.4640876598164
 10
6615.154644511572
 20
770.8450400407687
 10
6611.85633129462
 20
776.3239827581345
 10
6611.85633129462
 20
787.2763637105156
 10
6610.19128114206
 20
790.0422363876554
 10
6612.73608970195
 20
794.2695063311644
 10
6629.30657288001
 20
788.7643452285093
 10
6642.479001586384
 20
780.5589030543221
 10
6647.451909457758
 20
780.5589030543221
 10
6649.967879583397
 20
776.3795376362239
 10
6649.967879583397
 20
757.1573160914679
 10
6648.319551396929
 20
754.4192208533726
 10
6648.319551396929
 20
735.2525541867059
 10
6646.67122321046
 20
732.5144589486108
 10
6646.67122321046
 20
727.1025656288066
 10
6652.397704551155
 20
720.3079533584063
 10
6670.537781944532
 20
714.8292055374075
 10
6672.176832254787
 20
712.1065221019411
 10
6681.940075796737
 20
712.1065221019411
 10
6684.372548693194
 20
718.8409642165466
 10
6682.734443312769
 20
721.5620779962297
 10
6682.734443312769
 20
727.0382684724203
 10
6677.763386137297
 20
735.295864315407
 10
6682.030109061082
 20
739.5484253584541
 10
6683.72521593486
 20
736.732624417078
 10
6700.208497799546
 20
731.2564339408874
 10
6701.854209512142
 20
728.5226850184787
 10
6713.392506817421
 20
725.7845897803836
 10
6715.0333651029705
 20
723.0589030543222
 10
6724.902924645976
 20
723.0589030543222
 10
6731.506001323735
 20
717.5746029748323
 10
6743.062414173856
 20
714.8322088280025
 10
6745.570914398576
 20
710.6652519219383
 10
6745.570914398576
 20
609.300173234325
 10
6743.054944272937
 20
605.1208078162269
 10
6739.645243591873
 20
605.1208078162269
 10
6737.996915405403
 20
607.8589030543222
 10
6731.4036026595295
 20
607.8589030543222
 10
6729.745188098268
 20
610.6137531201376
 10
6721.604615346052
 20
613.3182707849072
 10
6714.965100003548
 20
605.0464235163488
 10
6713.328514762438
 20
607.765012139783
 10
6711.72368707636
 20
605.0991770947431
 10
6688.536363919353
 20
613.3528774597863
  0
LWPOLYLINE
  5
4E
330
17
100
AcDbEntity
  8
M
100
AcDbPolyline
 90
320
 70
1
 10
7905.197962960844
 20
599.6546047645787
 10
7903.44364825963
 20
602.3827125781315
 10
7896.5098720923315
 20
602.3827125781315
 10
7894.694548777682
 20
599.5597312080314
 10
7892.879225463033
 20
602.3827125781315
 10
7884.075539799203
 20
602.3827125781315
 10
7882.3148026664385
 20
605.1208078162269
 10
7873.5111170026075
 20
605.1208078162269
 10
7871.750379869842
 20
607.8589030543222
 10
7864.816603702542
 20
607.8589030543222
 10
7863.0012803878935
 20
605.0359216842219
 10
7861.185957073246
 20
607.8589030543222
 10
7852.382271409416
 20
607.8589030543222
 10
7850.621534276649
 20
610.5969982924173
 10
7841.817848612819
 20
610.5969982924173
 10
7840.068741167097
 20
613.317008383035
 10
7831.265055503267
 20
610.5789131449397
 10
7828.566906298956
 20
614.7747634797294
 10
7828.566906298956
 20
625.785899771772
 10
7832.088380564488
 20
631.2620902479626
 10
7832.088380564488
 20
672.3246726328822
 10
7835.597017161264
 20
680.5090128552762
 10
7831.23832163637
 20
687.2871532368976
 10
7825.961704051235
 20
690.022348857384
 10
7818.00248350236
 20
699.6491077836369
 10
7818.00248350236
 20
705.1319063368721
 10
7814.481009236828
 20
710.6080968130626
 10
7814.481009236828
 20
718.8223825273483
 10
7809.19879783853
 20
727.0366682416341
 10
7809.19879783853
 20
735.2509539559197
 10
7805.677323572998
 20
740.7271444321102
 10
7805.677323572998
 20
748.9414301463959
 10
7800.3951121746995
 20
757.1557158606817
 10
7800.3951121746995
 20
762.6996662440249
 10
7806.621230763714
 20
769.6154814375404
 10
7820.804597814945
 20
766.8584394393037
 10
7822.558912516158
 20
764.1303316257506
 10
7827.731951550691
 20
764.1303316257506
 10
7829.547274865339
 20
766.953312995851
 10
7831.362598179988
 20
764.1303316257506
 10
7838.405546711052
 20
764.1303316257506
 10
7840.166283843818
 20
761.3922363876555
 10
7847.209232374882
 20
761.3922363876555
 10
7848.969969507649
 20
758.6541411495602
 10
7856.012918038712
 20
758.6541411495602
 10
7857.773655171479
 20
755.9160459114648
 10
7864.816603702542
 20
755.9160459114648
 10
7866.577340835309
 20
753.1779506733698
 10
7873.59426726841
 20
753.1779506733698
 10
7882.405640725634
 20
747.6969781294666
 10
7898.276360520196
 20
744.9547212085217
 10
7900.016678157565
 20
742.2483800137005
 10
7907.05962668863
 20
744.9864752517958
 10
7908.835032021693
 20
742.2255697209887
 10
7915.877980552757
 20
742.2255697209887
 10
7917.638717685523
 20
739.4874744828934
 10
7924.574970489176
 20
739.4874744828934
 10
7946.545703708113
 20
770.9205158914945
 10
7950.044960133607
 20
781.8037956011292
 10
7943.950661275548
 20
788.5731887686078
 10
7940.419128047717
 20
788.5731887686078
 10
7936.891231350633
 20
794.0593666693405
 10
7922.805334288504
 20
796.7974619074358
 10
7919.283013753992
 20
802.274968403502
 10
7906.95785382463
 20
805.0130636415973
 10
7903.437225828077
 20
810.487938097912
 10
7889.351328765949
 20
813.2260333360073
 10
7885.82547846138
 20
818.7090289232084
 10
7869.988902542386
 20
824.1817435171379
 10
7864.719536091339
 20
829.6446173400365
 10
7859.445503547357
 20
829.6446173400365
 10
7848.881080750761
 20
837.8589030543222
 10
7843.571376897921
 20
837.8589030543222
 10
7837.370591962786
 20
850.2567184340714
 10
7837.370591962786
 20
861.2033349083008
 10
7832.088380564488
 20
869.4176206225866
 10
7832.088380564488
 20
885.846192051158
 10
7828.566906298956
 20
891.3223825273484
 10
7828.566906298956
 20
899.5954235812958
 10
7831.253425816223
 20
903.7731887686078
 10
7834.884072445519
 20
903.7731887686078
 10
7836.605982533805
 20
901.0954728702932
 10
7841.862860795806
 20
906.5453998993669
 10
7845.36895246398
 20
903.8192652815684
 10
7847.100060011117
 20
906.5112840067031
 10
7850.704684542451
 20
906.5112840067031
 10
7859.508370206281
 20
901.0350935305127
 10
7864.804498949981
 20
901.0350935305127
 10
7870.098405843539
 20
895.5467780644402
 10
7878.912349325047
 20
892.8054924714406
 10
7882.432342581543
 20
887.3316050896256
 10
7892.99676537814
 20
884.5935098515305
 10
7896.518239643671
 20
879.1173193753399
 10
7907.082662440268
 20
876.3792241372448
 10
7910.59576915446
 20
870.9160459114651
 10
7917.638717685523
 20
870.9160459114651
 10
7921.168559502396
 20
865.4268431848637
 10
7931.732982298991
 20
862.6887479467687
 10
7935.254456564525
 20
857.212557470578
 10
7945.81887936112
 20
854.4744622324829
 10
7949.27739989343
 20
849.0961701387081
 10
7952.74428797708
 20
854.4874744828936
 10
7958.026499375378
 20
854.4874744828936
 10
7963.338340359304
 20
862.74783671014
 10
7966.878868249695
 20
859.9949264725415
 10
7975.666155883586
 20
868.1939119923147
 10
7982.6914874344
 20
865.4626657279863
 10
7984.492142548751
 20
868.2628368053748
 10
7986.252879681517
 20
865.5247415672795
 10
7987.959030632401
 20
868.1779506733698
 10
7991.56939365482
 20
868.1779506733698
 10
7995.031608749094
 20
865.4859319482351
 10
7996.762716296231
 20
868.1779506733698
 10
8000.3730793186505
 20
868.1779506733698
 10
8003.860251009178
 20
865.4665271387128
 10
8007.387628246103
 20
868.2092121868272
 10
8016.224818531933
 20
859.9636649590841
 10
8019.761471385953
 20
859.9636649590841
 10
8025.06396639113
 20
851.7178365196701
 10
8032.066347708438
 20
846.273188768608
 10
8035.608105580849
 20
846.273188768608
 10
8040.8903169791465
 20
838.0589030543222
 10
8044.411791244679
 20
838.0589030543222
 10
8047.93326551021
 20
832.5827125781318
 10
8051.454739775742
 20
832.5827125781318
 10
8056.73695117404
 20
824.3684268638458
 10
8060.246320687011
 20
824.3684268638458
 10
8070.8107434836065
 20
813.416045911465
 10
8074.344322501702
 20
813.416045911465
 10
8079.636382460375
 20
805.1864448523929
 10
8106.047439451865
 20
796.9721591381074
 10
8107.798328024255
 20
794.2493792447982
 10
8114.841276555319
 20
794.2493792447982
 10
8116.58227268707
 20
791.5419829337989
 10
8121.864484085369
 20
794.2800781718939
 10
8123.644962219149
 20
791.5112840067031
 10
8127.057264120917
 20
791.5112840067031
 10
8128.872587435566
 20
794.3342653768033
 10
8130.643434316839
 20
791.5804486242741
 10
8138.45664166578
 20
801.0306030869123
 10
8138.45664166578
 20
847.5716140574863
 10
8141.978115931311
 20
853.0478045336766
 10
8141.978115931311
 20
866.738280724153
 10
8145.499590196843
 20
872.2144712003435
 10
8145.499590196843
 20
885.9049473908196
 10
8149.021064462375
 20
891.38113786701
 10
8149.021064462375
 20
910.5478045336768
 10
8150.755713558531
 20
913.2453306672288
 10
8139.3577005667175
 20
925.5163977824517
 10
8131.412991098097
 20
937.8710933013145
 10
8132.296415016694
 20
974.9636649590841
 10
8171.156895454286
 20
974.9636649590841
 10
8204.551560312606
 20
955.8309960966695
 10
8206.310176096404
 20
958.5657924576083
 10
8211.616402259438
 20
955.8152488890681
 10
8215.148706941101
 20
958.5617652339508
 10
8222.225958047171
 20
953.0589030543222
 10
8227.50816944547
 20
953.0589030543222
 10
8234.561895051444
 20
947.5743329464003
 10
8245.130899317754
 20
944.835050279456
 10
8253.936439281855
 20
936.6190344088685
 10
8271.539338187702
 20
931.1442349315546
 10
8285.61249482675
 20
920.2017601971793
 10
8290.907477887302
 20
920.2017601971793
 10
8298.883720747488
 20
910.5544126107219
 10
8298.883720747488
 20
902.3335188193911
 10
8302.424086377143
 20
896.8279506733699
 10
8299.718675495755
 20
892.6208078162269
 10
8292.586838207802
 20
892.6208078162269
 10
8285.53455823821
 20
898.1042538806934
 10
8273.191177439965
 20
900.8463969749307
 10
8271.46733859336
 20
903.5271122556472
 10
8267.978839033798
 20
900.8146562466321
 10
8253.91725167314
 20
909.0147655948242
 10
8252.178772911071
 20
906.3112840067031
 10
8248.548126281774
 20
906.3112840067031
 10
8246.817018734637
 20
909.0033027318376
 10
8243.320501065358
 20
906.2846123032648
 10
8239.823983396078
 20
909.0033027318376
 10
8238.063246263315
 20
906.2652074937425
 10
8234.541771997781
 20
909.0033027318376
 10
8232.756078268761
 20
906.226397874698
 10
8230.940754954114
 20
909.0493792447983
 10
8227.528453052346
 20
909.0493792447983
 10
8225.713129737698
 20
906.226397874698
 10
8223.927436008678
 20
909.0033027318376
 10
8220.405961743147
 20
906.2652074937425
 10
8218.670181206633
 20
908.9644931127931
 10
8216.129075507486
 20
905.0128587178248
 10
8216.129075507486
 20
899.5954235812958
 10
8224.022082966669
 20
887.3211290622227
 10
8229.304294364965
 20
884.5830338241276
 10
8239.018658233443
 20
869.4763759622481
 10
8239.018658233443
 20
864.0001854860577
 10
8242.540132498976
 20
858.5239950098673
 10
8242.540132498976
 20
842.0954235812959
 10
8245.16003388513
 20
838.0212552252046
 10
8250.417626521003
 20
832.5705875882499
 10
8259.23157000251
 20
829.82930199525
 10
8262.743195707668
 20
824.3684268638458
 10
8268.025407105964
 20
824.3684268638458
 10
8271.555248922838
 20
818.8792241372447
 10
8282.109110416912
 20
816.1438661856723
 10
8292.67221515321
 20
805.1928516968247
 10
8305.004247614954
 20
802.4532296916695
 10
8330.591613986411
 20
768.151057316548
 10
8323.521226801999
 20
751.6584817461809
 10
8311.208880676852
 20
735.2469902175061
 10
8311.208880676852
 20
732.5716140574863
 10
8321.7714339269
 20
716.1459499319998
 10
8323.532730328263
 20
688.7563004510869
 10
8327.0683525405
 20
680.5090128552762
 10
8317.343394888723
 20
665.3858807639006
 10
8308.539709224891
 20
659.90969028771
 10
8303.240149761286
 20
651.668426863846
 10
8296.088028866458
 20
651.668426863846
 10
8292.566554600924
 20
657.1446173400363
 10
8287.296447955188
 20
657.1446173400363
 10
8282.01423655689
 20
662.6208078162268
 10
8276.71992040603
 20
662.6208078162268
 10
8273.198446140497
 20
668.0969982924174
 10
8267.9162347422
 20
668.0969982924174
 10
8264.394760476667
 20
673.5731887686078
 10
8259.11254907837
 20
673.5731887686078
 10
8255.591074812837
 20
679.0493792447983
 10
8248.548126281774
 20
679.0493792447983
 10
8245.02665201624
 20
684.5255697209889
 10
8239.764724224822
 20
684.5255697209889
 10
8229.223773587099
 20
692.7216048386235
 10
8223.917547424064
 20
689.9710612700835
 10
8222.13064685873
 20
692.7498428598167
 10
8208.044749796603
 20
695.487938097912
 10
8206.290435095389
 20
698.216045911465
 10
8192.20453803326
 20
698.216045911465
 10
8190.443800900494
 20
700.9541411495601
 10
8183.400852369431
 20
700.9541411495601
 10
8181.640115236664
 20
703.6922363876554
 10
8174.597166705601
 20
703.6922363876554
 10
8172.856170573849
 20
706.3996326986551
 10
8167.573959175551
 20
703.6615374605597
 10
8165.787058610217
 20
706.440319050293
 10
8151.701161548088
 20
709.1784142883881
 10
8149.946846846875
 20
711.9065221019412
 10
8142.903898315812
 20
711.9065221019412
 10
8141.136738751493
 20
714.6546047645787
 10
8127.0508416893645
 20
717.3927000026739
 10
8125.2965269881515
 20
720.1208078162269
 10
8118.273862063964
 20
720.1208078162269
 10
8107.709439267369
 20
728.3350935305126
 10
8102.416218048765
 20
728.3350935305126
 10
8089.15600194833
 20
743.4569828322757
 10
8089.15600194833
 20
748.9442443903196
 10
8075.070104886201
 20
773.5871015331768
 10
8075.070104886201
 20
776.3223825273484
 10
8060.203839257691
 20
799.4406835889838
 10
8058.497688306807
 20
796.7874744828936
 10
8049.584830279212
 20
796.7874744828936
 10
8047.862920190926
 20
799.4651903812085
 10
8042.638949359351
 20
794.0493792447983
 10
8037.368842713613
 20
794.0493792447983
 10
8035.608105580849
 20
791.3112840067031
 10
8028.565157049783
 20
791.3112840067031
 10
8026.749833735134
 20
788.4883026366027
 10
8024.934510420487
 20
791.3112840067031
 10
8021.501924911842
 20
791.3112840067031
 10
8017.921191475052
 20
788.5271122556472
 10
8016.169651801139
 20
791.2509046669225
 10
8010.88744040284
 20
785.7747141907321
 10
8009.126703270073
 20
788.5128094288272
 10
8003.869825008072
 20
783.0628823997537
 10
8000.363733339899
 20
785.789017017552
 10
7997.823088704701
 20
781.8380996160446
 10
8003.904778228762
 20
775.0827125781317
 10
8007.436311456592
 20
775.0827125781317
 10
8012.71852285489
 20
766.8684268638459
 10
8017.988629500626
 20
766.8684268638459
 10
8028.553052297223
 20
755.9160459114648
 10
8032.0866313153165
 20
755.9160459114648
 10
8036.53388796535
 20
749.0001854860577
 10
8036.53388796535
 20
738.0478045336769
 10
8040.055362230881
 20
732.5716140574863
 10
8040.055362230881
 20
718.8811378670101
 10
8043.576836496413
 20
713.4049473908195
 10
8043.576836496413
 20
699.7144712003434
 10
8047.109885742083
 20
694.220280650542
 10
8044.419524785903
 20
687.2473824007221
 10
8031.988411119901
 20
690.0090157854553
 10
8021.433319761833
 20
698.216045911465
 10
8014.390371230767
 20
698.216045911465
 10
8003.817723962841
 20
706.4367265001954
 10
7989.713345333614
 20
709.1784142883881
 10
7986.275286138563
 20
714.52488727125
 10
7983.723348962506
 20
707.9107568410182
 10
7987.2332482479
 20
702.4525664384387
 10
7987.2332482479
 20
696.9721033942335
 10
7996.036933911731
 20
680.543531965662
 10
7996.036933911731
 20
672.3246726328822
 10
7999.571245846017
 20
664.0804414267047
 10
7996.871888659996
 20
659.8827125781316
 10
7981.025254465101
 20
659.8827125781316
 10
7979.209931150453
 20
657.0597312080313
 10
7977.406237522848
 20
659.8646274306541
 10
7968.602551859018
 20
657.1265321925588
 10
7966.830185039208
 20
659.8827125781316
 10
7963.397599530564
 20
659.8827125781316
 10
7959.841822690027
 20
657.117945636598
 10
7956.320348424494
 20
659.8560408746935
 10
7952.873743947723
 20
657.176160065165
 10
7950.280841945591
 20
653.1439780359674
 10
7959.061454123643
 20
642.2203020619102
 10
7959.061454123643
 20
628.4652396702055
 10
7955.539979858111
 20
622.9890491940151
 10
7955.539979858111
 20
617.5128587178244
 10
7952.87217357915
 20
613.3641941996242
 10
7936.92404787938
 20
602.3416675234791
 10
7935.166546235048
 20
605.0747313032663
 10
7928.182856875243
 20
599.6446173400365
 10
7921.160191951056
 20
599.6446173400365
 10
7919.3923197801905
 20
596.8954265139173
 10
7905.197962960844
 20
599.6546047645787
  0
LWPOLYLINE
  5
4F
330
17
100
AcDbEntity
  8
M
100
AcDbPolyline
 90
80
 70
1
 10
7975.661429040918
 20
153.3350935305126
 10
7961.5755319787895
 20
161.54937924479833
 10
7951.00383445119
 20
161.54937924479833
 10
7940.39884444084
 20
169.7952076842128
 10
7932.426407142433
 20
182.1930223247708
 10
7947.52741631695
 20
200.15087602012767
 10
7949.288884384841
 20
197.41164411606
 10
7970.360261057404
 20
221.98747448289353
 10
7973.881735322936
 20
221.98747448289353
 10
7980.924683854001
 20
230.20176019717925
 10
7991.589677261698
 20
230.20176019717925
 10
7993.350414394463
 20
227.46366495908404
 10
8019.678321120152
 20
227.46366495908404
 10
8028.500206362261
 20
232.95117618899624
 10
8035.513601417381
 20
230.22457048989102
 10
8037.259670349849
 20
232.93985543527447
 10
8046.063356013679
 20
232.93985543527447
 10
8047.878679328328
 20
235.76283680537486
 10
8049.694002642977
 20
232.93985543527447
 10
8067.301373970637
 20
232.93985543527447
 10
8069.0621111034025
 20
230.20176019717925
 10
8086.6694824310625
 20
230.20176019717925
 10
8090.190956696595
 20
224.72556972098872
 10
8107.798328024255
 20
224.72556972098872
 10
8109.559065157022
 20
221.98747448289353
 10
8116.4798439648075
 20
221.98747448289353
 10
8125.283529628638
 20
243.8922363876554
 10
8134.194206427258
 20
243.8922363876554
 10
8142.997892091088
 20
235.67795067336976
 10
8151.707583979642
 20
235.67795067336976
 10
8153.468321112408
 20
238.41604591146498
 10
8158.765711099194
 20
238.41604591146498
 10
8167.569396763024
 20
246.6303316257507
 10
8172.851608161322
 20
246.6303316257507
 10
8181.7140399347
 20
254.89943044296365
 10
8183.471197688714
 20
252.16690144172176
 10
8188.69516852029
 20
257.58271257813163
 10
8194.059268941304
 20
257.58271257813163
 10
8202.862954605134
 20
249.3684268638459
 10
8208.16034459192
 20
249.3684268638459
 10
8209.921081724686
 20
246.6303316257507
 10
8218.724767388516
 20
246.6303316257507
 10
8222.246241654047
 20
241.1541411495602
 10
8225.767715919581
 20
241.1541411495602
 10
8230.233863933736
 20
234.20890305432212
 10
8226.693498304081
 20
228.7033349083008
 10
8226.693498304081
 20
217.75095395591987
 10
8223.17202403855
 20
212.27476347972944
 10
8223.17202403855
 20
206.79857300353893
 10
8220.482218386176
 20
202.61569759805815
 10
8190.440674529754
 20
205.36376482538282
 10
8188.688728781992
 20
208.08818871585362
 10
8171.081357454332
 20
205.3500934777583
 10
8169.314955307302
 20
208.0969982924174
 10
8151.707583979642
 20
208.0969982924174
 10
8149.946846846875
 20
210.8350935305126
 10
8132.339475519215
 20
210.8350935305126
 10
8130.578738386449
 20
213.57318876860782
 10
8125.405699351915
 20
213.57318876860782
 10
8122.810007470884
 20
209.53666824163415
 10
8122.810007470884
 20
165.7271444321104
 10
8118.362750820852
 20
158.81128400670315
 10
8111.210629926022
 20
158.81128400670315
 10
8109.454588079677
 20
161.54207767709056
 10
8088.325742486486
 20
158.80398243899535
 10
8086.560310067299
 20
161.54937924479833
 10
8076.105059634467
 20
161.54937924479833
 10
8074.344322501702
 20
158.81128400670315
 10
8065.431464474105
 20
158.81128400670315
 10
8063.670727341339
 20
161.54937924479833
 10
8053.195193301632
 20
161.54937924479833
 10
8046.152244770567
 20
156.07318876860782
 10
8040.883650457312
 20
156.07318876860782
 10
8032.079964793482
 20
145.1208078162269
 10
8028.468089438581
 20
145.1208078162269
 10
8023.2441186070055
 20
150.53661895263687
 10
8017.995069238923
 20
142.37390300156787
 10
8000.304731129104
 20
145.1249002763682
 10
7986.225851837515
 20
153.3350935305126
 10
7975.661429040918
 20
153.3350935305126
  0
LWPOLYLINE
  5
50
330
17
100
AcDbEntity
  8
M
100
AcDbPolyline
 90
122
 70
1
 10
7987.967225652471
 20
366.8937781522535
 10
7975.642065723109
 20
364.15568291415815
 10
7973.873133570271
 20
366.9065221019412
 10
7963.397599530564
 20
366.9065221019412
 10
7959.816866093773
 20
364.1223503508854
 10
7958.026499375378
 20
366.9065221019412
 10
7949.217016929764
 20
366.9065221019412
 10
7941.238433720104
 20
382.0710879440516
 10
7943.014819928749
 20
384.83351881939114
 10
7943.014819928749
 20
390.3045455741638
 10
7950.057768459813
 20
403.99502176464
 10
7950.057768459813
 20
409.47637596224826
 10
7958.861454123643
 20
423.16685215272446
 10
7958.861454123643
 20
428.6378789074971
 10
7965.8890861268055
 20
442.2985819767267
 10
7958.041167575676
 20
454.50275942827705
 10
7950.998219044611
 20
451.76466419018175
 10
7949.222813711548
 20
454.52556972098887
 10
7938.658390914951
 20
454.52556972098887
 10
7936.8976537821845
 20
457.26366495908405
 10
7926.333230985589
 20
457.26366495908405
 10
7924.580688872895
 20
459.9890162474915
 10
7912.255528943531
 20
457.2509210093963
 10
7910.486596790694
 20
460.00176019717924
 10
7899.922173994099
 20
460.00176019717924
 10
7898.161436861332
 20
462.7398554352746
 10
7887.597014064737
 20
462.7398554352746
 10
7885.844471952041
 20
465.465206723682
 10
7873.519312022679
 20
462.7271114855868
 10
7871.750379869842
 20
465.4779506733698
 10
7861.185957073246
 20
465.4779506733698
 10
7859.425219940479
 20
468.21604591146496
 10
7848.860797143883
 20
468.21604591146496
 10
7847.154646192999
 20
470.86925501755513
 10
7845.448495242116
 20
468.21604591146496
 10
7838.30935711474
 20
468.21604591146496
 10
7823.257124227555
 20
483.36207266106595
 10
7828.578283411668
 20
491.6369254781234
 10
7832.088380564488
 20
499.82467263288214
 10
7832.088380564488
 20
505.30543672756687
 10
7840.892066228319
 20
521.7340081561383
 10
7840.892066228319
 20
527.2210792773884
 10
7848.925493074274
 20
536.9375914814169
 10
7850.730706640415
 20
534.1303316257506
 10
7859.534392304245
 20
534.1303316257506
 10
7861.299505222492
 20
531.3854316709456
 10
7882.428350815684
 20
528.6473364328504
 10
7884.184712162969
 20
525.916045911465
 10
7907.074294888927
 20
525.916045911465
 10
7908.835032021693
 20
523.1779506733698
 10
7917.638717685523
 20
523.1779506733698
 10
7919.403830603771
 20
520.4330507185646
 10
7940.532676196964
 20
517.6949554804693
 10
7942.2890375442485
 20
514.9636649590841
 10
7949.319881322751
 20
514.9636649590841
 10
7954.613788216308
 20
509.4753494930118
 10
7963.427731697816
 20
506.7340639000122
 10
7965.178620270207
 20
504.011284006703
 10
7973.873133570271
 20
504.011284006703
 10
7975.688456884921
 20
506.83426537680344
 10
7977.5037801995695
 20
504.011284006703
 10
8009.197048589357
 20
504.011284006703
 10
8010.903199540241
 20
501.358074900613
 10
8012.609350491125
 20
504.011284006703
 10
8021.52220851872
 20
504.011284006703
 10
8023.228359469604
 20
501.358074900613
 10
8024.934510420487
 20
504.011284006703
 10
8032.0866313153165
 20
504.011284006703
 10
8033.7927822662
 20
501.358074900613
 10
8036.333887965348
 20
505.3097092955816
 10
8036.333887965348
 20
538.1668521527246
 10
8039.020407482615
 20
542.3446173400364
 10
8042.553986500709
 20
542.3446173400364
 10
8047.869105329432
 20
547.8549237088905
 10
8051.375196997606
 20
545.1287890910921
 10
8056.627778810275
 20
553.2969982924174
 10
8061.922094961135
 20
553.2969982924174
 10
8067.246787788754
 20
558.8172302469052
 10
8072.571480616373
 20
553.2969982924174
 10
8079.626533899999
 20
553.2969982924174
 10
8083.148008165532
 20
547.8208078162268
 10
8088.430219563829
 20
547.8208078162268
 10
8091.951693829362
 20
542.3446173400364
 10
8100.755379493192
 20
542.3446173400364
 10
8104.286702319099
 20
536.8531115190598
 10
8113.090387982929
 20
534.1150162809645
 10
8116.602013688085
 20
528.6541411495602
 10
8123.6328574665895
 20
528.6541411495602
 10
8128.915068864886
 20
523.1779506733698
 10
8134.209385015746
 20
523.1779506733698
 10
8137.730859281279
 20
517.7017601971792
 10
8144.773807812342
 20
517.7017601971792
 10
8149.221064462376
 20
510.78589977177205
 10
8149.221064462376
 20
480.6080968130627
 10
8145.699590196843
 20
475.13190633687213
 10
8145.699590196843
 20
398.46523967020545
 10
8141.252333546811
 20
391.54937924479833
 10
8134.100212651982
 20
391.54937924479833
 10
8130.578738386449
 20
397.02556972098887
 10
8120.026420342414
 20
397.02556972098887
 10
8114.744208944117
 20
402.50176019717924
 10
8105.940523280287
 20
402.50176019717924
 10
8100.652179095935
 20
407.9843086742226
 10
8083.044807768275
 20
410.7224039123178
 10
8077.7687291560305
 20
416.1922363876555
 10
8068.952938739639
 20
416.1922363876555
 10
8065.431464474105
 20
421.6684268638459
 10
8056.73695117404
 20
421.6684268638459
 10
8054.976214041275
 20
418.93033162575074
 10
8047.923206547912
 20
418.93033162575074
 10
8041.828907689853
 20
412.16093845827214
 10
8043.576836496413
 20
406.72458404430915
 10
8043.576836496413
 20
382.09542358129585
 10
8047.098310761944
 20
376.6192331051053
 10
8047.098310761944
 20
368.34619205115797
 10
8042.651054111912
 20
361.43033162575074
 10
8033.738196084317
 20
361.43033162575074
 10
8031.977458951552
 20
364.1684268638459
 10
8025.043682784252
 20
364.1684268638459
 10
8023.280012067526
 20
361.425769654447
 10
7989.71696217158
 20
364.17278979928676
 10
7987.967225652471
 20
366.8937781522535
  0
LWPOLYLINE
  5
51
330
17
100
AcDbEntity
  8
M
100
AcDbPolyline
 90
7
 70
1
 10
8025.769465168752
 20
387.5716140574864
 10
8025.769465168752
 20
412.1557158606817
 10
8023.228359469604
 20
416.10735025565043
 10
8020.687253770454
 20
412.1557158606817
 10
8020.687253770454
 20
387.5716140574864
 10
8023.228359469604
 20
383.61997966251766
 10
8025.769465168752
 20
387.5716140574864
  0
LWPOLYLINE
  5
52
330
17
100
AcDbEntity
  8
M
100
AcDbPolyline
 90
20
 70
1
 10
7844.4087350264645
 20
253.3974744823873
 10
7847.100060011117
 20
257.58271257813163
 10
7850.644345914975
 20
257.58271257813163
 10
7870.012454375401
 20
271.2731887686078
 10
7877.141763631906
 20
271.2731887686078
 10
7878.902500764671
 20
268.5350935305126
 10
7894.749134959566
 20
268.5350935305126
 10
7898.273735595838
 20
263.0540412832613
 10
7928.189635183083
 20
260.3174674365723
 10
7936.190501195964
 20
253.40523204920922
 10
7933.475620519999
 20
246.36878340077777
 10
7929.909291433003
 20
249.14175516040777
 10
7912.301920105343
 20
235.45127896993162
 10
7908.777608559359
 20
238.1915803136258
 10
7889.444111922941
 20
224.52556972098876
 10
7882.403691423326
 20
224.52556972098876
 10
7868.307732904821
 20
213.56536556056633
 10
7862.056357670565
 20
214.95413948792813
 10
7846.178476688211
 20
242.38908231183427
 10
7844.4087350264645
 20
253.3974744823873
  0
LWPOLYLINE
  5
53
330
17
100
AcDbEntity
  8
M
100
AcDbPolyline
 90
107
 70
1
 10
8716.056294163604
 20
139.64461734003646
 10
8707.255230206441
 20
139.64461734003646
 10
8705.49331724535
 20
142.3916903596231
 10
8689.698994850412
 20
145.12786770221314
 10
8684.431716220844
 20
150.60282563315292
 10
8665.11401334314
 20
153.34092087124813
 10
8659.851155216593
 20
158.81128400670315
 10
8654.664731800212
 20
158.81128400670315
 10
8645.883957764892
 20
150.5969982924174
 10
8633.496728309754
 20
150.5969982924174
 10
8629.984418695627
 20
156.07318876860782
 10
8608.90335708372
 20
156.07318876860782
 10
8602.718682288307
 20
168.47105913250533
 10
8602.718682288307
 20
173.94149449120428
 10
8595.702831466413
 20
184.88020425035774
 10
8592.190521852286
 20
195.83258520273867
 10
8583.409747816966
 20
209.52306139321482
 10
8579.89743820284
 20
220.47544234559584
 10
8574.620205375284
 20
228.70339925310896
 10
8574.620205375284
 20
234.3174451946672
 10
8591.461148421242
 20
232.93547537318145
 10
8594.975409892053
 20
227.456241674682
 10
8614.293112769756
 20
224.71814643658666
 10
8617.805042510898
 20
219.24254823643324
 10
8638.86756971488
 20
216.5059251509906
 10
8644.130878555603
 20
211.0350935305126
 10
8652.834721109302
 20
211.0350935305126
 10
8656.306450879743
 20
213.74155389327794
 10
8658.911819813276
 20
217.8036947943514
 10
8657.162064182347
 20
231.44428485398845
 10
8650.134862079034
 20
247.8788968871784
 10
8650.134862079034
 20
256.08435163406136
 10
8646.622552464907
 20
261.56054211025184
 10
8646.622552464907
 20
269.7748278245376
 10
8643.110242850778
 20
275.251018300728
 10
8643.110242850778
 20
283.4653040150137
 10
8639.597933236651
 20
288.94149449120425
 10
8639.597933236651
 20
297.15578020549
 10
8637.82297749968
 20
299.9231887686079
 10
8640.52134753801
 20
304.1303316257507
 10
8656.326740801587
 20
304.1303316257507
 10
8658.08289560865
 20
306.8684268638459
 10
8665.216841041249
 20
306.8684268638459
 10
8666.972995848311
 20
304.1303316257507
 10
8670.375979258099
 20
304.1303316257507
 10
8672.132134065161
 20
306.8684268638459
 10
8684.53454391895
 20
306.8684268638459
 10
8686.290698726016
 20
304.1303316257507
 10
8696.827627568398
 20
304.1303316257507
 10
8703.00817830963
 20
294.4939735522458
 10
8706.531815905078
 20
286.2531949357515
 10
8706.531815905078
 20
280.7811667094569
 10
8714.394968736286
 20
265.79699829241736
 10
8724.926104481421
 20
265.79699829241736
 10
8726.682259288486
 20
263.05890305432206
 10
8745.999962166188
 20
263.05890305432206
 10
8747.756116973253
 20
260.3208078162269
 10
8760.02316485629
 20
260.3208078162269
 10
8768.807155336324
 20
254.84261138203706
 10
8807.467814891294
 20
252.10272640453118
 10
8810.977690027554
 20
246.6303316257507
 10
8814.380673437341
 20
246.6303316257507
 10
8818.72572355717
 20
253.40488304601155
 10
8818.72572355717
 20
258.8810735222021
 10
8823.161447472661
 20
265.79699829241736
 10
8837.210685929173
 20
265.79699829241736
 10
8838.996519497068
 20
268.5813669418207
 10
8842.56818663286
 20
265.79699829241736
 10
8860.150024625344
 20
265.79699829241736
 10
8861.906179432408
 20
263.05890305432206
 10
8874.089936877514
 20
263.05890305432206
 10
8875.84609168458
 20
265.79699829241736
 10
8879.467727503048
 20
265.79699829241736
 10
8881.22388231011
 20
263.05890305432206
 10
8898.78543038075
 20
263.05890305432206
 10
8900.54996168392
 20
260.3077476668557
 10
8911.086890526305
 20
257.56965242876043
 10
8913.775212795737
 20
253.37817547308921
 10
8897.032200561483
 20
224.52556972098876
 10
8895.273120766622
 20
224.52556972098876
 10
8875.925739128088
 20
194.360248690633
 10
8868.841762378166
 20
199.88271257813167
 10
8861.822888994478
 20
199.88271257813167
 10
8853.042114959158
 20
205.35890305432207
 10
8847.747614771555
 20
205.35890305432207
 10
8844.22887526039
 20
210.84511865494034
 10
8830.17963680388
 20
213.58321389303552
 10
8828.429911893852
 20
216.31128400670312
 10
8821.405292665597
 20
216.31128400670312
 10
8817.94764615364
 20
221.7022469282664
 10
8815.413413943043
 20
217.75101830072802
 10
8815.413413943043
 20
195.90488304601155
 10
8818.925723557171
 20
190.42869256982104
 10
8818.925723557171
 20
152.0953592364877
 10
8822.438033171298
 20
146.6191687602973
 10
8822.438033171298
 20
138.34625639596615
 10
8819.758464062874
 20
134.16842686384595
 10
8807.356054209085
 20
134.16842686384595
 10
8803.843744594957
 20
139.64461734003646
 10
8788.038351331383
 20
139.64461734003646
 10
8786.276983835383
 20
142.39083990192597
 10
8768.715435764743
 20
145.12893514002118
 10
8766.964493646616
 20
147.8589030543221
 10
8745.890635961849
 20
147.8589030543221
 10
8744.164159915616
 20
150.55072488110926
 10
8723.115286572187
 20
134.1416305241973
 10
8716.056294163604
 20
139.64461734003646
  0
LWPOLYLINE
  5
54
330
17
100
AcDbEntity
  8
M
100
AcDbPolyline
 90
31
 70
1
 10
8870.572414574452
 20
862.5098875209738
 10
8868.821472456324
 20
865.2398554352745
 10
8863.66233423947
 20
865.2398554352745
 10
8861.882382164427
 20
862.4646568701415
 10
8853.042114959158
 20
867.9779506733698
 10
8845.99145996449
 20
867.9779506733698
 10
8844.26498391826
 20
870.6697725001569
 10
8840.752674304133
 20
867.9316772620615
 10
8832.756161083775
 20
880.3993792447984
 10
8835.509194224278
 20
884.6917496565685
 10
8837.265349031342
 20
881.9536544184732
 10
8842.533813452535
 20
890.1679401327589
 10
8844.289968259598
 20
887.4298448946636
 10
8847.747614771555
 20
892.820807816227
 10
8863.66233423947
 20
892.820807816227
 10
8865.363825944365
 20
890.1679401327589
 10
8867.065317649258
 20
892.820807816227
 10
8870.686953467726
 20
892.820807816227
 10
8872.38844517262
 20
890.1679401327589
 10
8874.089936877514
 20
892.820807816227
 10
8877.69128277414
 20
892.820807816227
 10
8881.144234866604
 20
890.1289859894399
 10
8882.925374015003
 20
892.9060353708542
 10
8884.736191924238
 20
890.0827125781317
 10
8889.895330141091
 20
890.0827125781317
 10
8891.684324567057
 20
892.8720094550455
 10
8899.732097483171
 20
885.9011077092276
 10
8894.440380260921
 20
874.9003875226731
 10
8894.440380260921
 20
869.4176849673947
 10
8888.242827719829
 20
859.7548186686199
 10
8870.572414574452
 20
862.5098875209738
  0
LWPOLYLINE
  5
55
330
17
100
AcDbEntity
  8
M
100
AcDbPolyline
 90
21
 70
1
 10
8865.297208614451
 20
930.9727794916547
 10
8863.553008035131
 20
933.6922363876554
 10
8858.28454361394
 20
933.6922363876554
 10
8856.528388806875
 20
936.4303316257507
 10
8851.259924385684
 20
936.4303316257507
 10
8849.50376957862
 20
939.1684268638461
 10
8842.505186116774
 20
939.1684268638461
 10
8833.724412081456
 20
944.6446173400365
 10
8828.429911893852
 20
944.6446173400365
 10
8825.731541855519
 20
948.8517601971794
 10
8831.921931586136
 20
958.5034586551826
 10
8839.046488179745
 20
964.0575574180112
 10
8840.77765864547
 20
961.3584163232351
 10
8844.215015235584
 20
966.7177443694684
 10
8854.792523921655
 20
974.9636649590841
 10
8863.652276003808
 20
974.9636649590841
 10
8875.984199519564
 20
961.2299338555133
 10
8882.147296611472
 20
948.8753184047102
 10
8882.147296611472
 20
929.6557802054899
 10
8879.453034798828
 20
925.4550426567756
 10
8865.297208614451
 20
930.9727794916547
  0
LWPOLYLINE
  5
56
330
17
100
AcDbEntity
  8
M
100
AcDbPolyline
 90
47
 70
1
 10
8748.531194269655
 20
494.21808738763747
 10
8742.363211932152
 20
503.83484953129476
 10
8737.09474751096
 20
506.57294476939006
 10
8732.677814024377
 20
513.4595725871354
 10
8730.9141669029
 20
527.2084566991133
 10
8733.587693983249
 20
531.376865849708
 10
8742.453190354247
 20
534.1413799231984
 10
8745.951672014973
 20
531.4140645586116
 10
8754.75693893353
 20
536.9055301908836
 10
8756.513093740592
 20
534.1674349527885
 10
8765.269374892678
 20
539.6283502728971
 10
8768.765723889537
 20
536.9026974715288
 10
8774.001217675748
 20
542.3446173400364
 10
8777.61074869334
 20
542.3446173400364
 10
8779.343106232423
 20
539.6436254289789
 10
8788.123880267744
 20
545.1198159051694
 10
8789.874153581954
 20
542.3908907513446
 10
8796.86293826909
 20
547.839145653175
 10
8802.122025446215
 20
545.1059239010285
 10
8807.393231942848
 20
550.5849645677532
 10
8821.531163490541
 20
542.3188219222818
 10
8825.026928484065
 20
536.8684268638459
 10
8828.539238098192
 20
536.8684268638459
 10
8831.218807206618
 20
532.6905973317257
 10
8831.218807206618
 20
524.47631161744
 10
8834.731116820747
 20
519.0001211412496
 10
8834.731116820747
 20
513.5187752285075
 10
8841.765133564651
 20
499.8099839578743
 10
8839.081181315674
 20
492.8355448379688
 10
8830.283744090633
 20
495.57883613283997
 10
8828.539238098192
 20
492.8589030543222
 10
8821.405292665597
 20
492.8589030543222
 10
8819.649137858532
 20
495.59699829241737
 10
8816.246154448747
 20
495.59699829241737
 10
8814.48999964168
 20
492.8589030543222
 10
8810.868363823212
 20
492.8589030543222
 10
8809.11220901615
 20
495.59699829241737
 10
8784.526041717254
 20
495.59699829241737
 10
8782.779521727876
 20
498.3200714787414
 10
8772.242592885494
 20
495.5819762406462
 10
8770.476803260743
 20
498.3350935305126
 10
8765.31766504389
 20
498.3350935305126
 10
8763.561510236828
 20
495.59699829241737
 10
8759.93987441836
 20
495.59699829241737
 10
8758.238382713465
 20
498.2498659758853
 10
8756.542649162599
 20
495.60597607390883
 10
8748.531194269655
 20
494.21808738763747
  0
LWPOLYLINE
  5
57
330
17
100
AcDbEntity
  8
M
100
AcDbPolyline
 90
23
 70
1
 10
9879.462612330966
 20
251.9230500903122
 10
9877.807545880623
 20
254.64461734003646
 10
9872.812193037285
 20
254.64461734003646
 10
9869.481957808392
 20
260.1208078162269
 10
9864.498695786046
 20
260.1208078162269
 10
9854.497763281457
 20
271.084399989234
 10
9844.505260166
 20
273.82298783829555
 10
9838.613936807087
 20
280.7427068570117
 10
9866.1469435226
 20
334.2493792447983
 10
9869.481957808392
 20
334.2493792447983
 10
9872.812193037285
 20
339.7255697209888
 10
9877.819636701617
 20
339.7255697209888
 10
9882.814989544955
 20
345.2017601971792
 10
9886.145224773849
 20
345.2017601971792
 10
9891.140577617189
 20
350.67795067336976
 10
9894.47081284608
 20
350.67795067336976
 10
9899.526382880995
 20
356.2201546667921
 10
9902.107977693571
 20
351.9750176256104
 10
9902.107977693571
 20
242.39516943541477
 10
9899.551331830087
 20
238.19105808402102
 10
9892.781446550473
 20
240.97413335836566
 10
9887.788200403198
 20
249.18495485221698
 10
9879.462612330966
 20
251.9230500903122
  0
LWPOLYLINE
  5
58
330
17
100
AcDbEntity
  8
M
100
AcDbPolyline
 90
79
 70
1
 10
9533.107804852925
 20
366.9400590763881
 10
9530.58674967203
 20
371.0856456258909
 10
9530.58674967203
 20
379.29993134017667
 10
9528.211714013016
 20
383.20540550718215
 10
9523.263681469358
 20
369.64461734003646
 10
9519.807258774652
 20
369.64461734003646
 10
9516.47702354576
 20
375.1208078162269
 10
9508.151435473526
 20
375.1208078162269
 10
9506.48631785908
 20
377.8589030543222
 10
9499.825847401295
 20
377.8589030543222
 10
9498.160729786849
 20
380.59699829241737
 10
9491.500259329063
 20
380.59699829241737
 10
9488.17002410017
 20
386.0731887686079
 10
9479.844436027939
 20
386.0731887686079
 10
9478.179318413491
 20
388.8112840067031
 10
9471.612712633983
 20
388.8112840067031
 10
9446.635948417288
 20
366.9065221019412
 10
9420.01265471482
 20
366.9065221019412
 10
9418.347537100371
 20
364.1684268638459
 10
9413.239731450083
 20
364.1684268638459
 10
9409.033163817443
 20
371.0856456258909
 10
9409.033163817443
 20
376.56682090806555
 10
9402.372693359657
 20
390.2572970985417
 10
9402.372693359657
 20
398.4665980068433
 10
9399.042458130765
 20
403.94278848303384
 10
9399.042458130765
 20
409.4252700740227
 10
9394.047105287425
 20
420.3776510264037
 10
9394.047105287425
 20
428.5856456258909
 10
9390.716870058533
 20
434.06183610208143
 10
9390.716870058533
 20
439.53802657827197
 10
9387.38663482964
 20
445.0142170544624
 10
9387.38663482964
 20
450.4904075306529
 10
9385.704477820582
 20
453.2565221019412
 10
9390.716870058533
 20
461.49882714942
 10
9390.716870058533
 20
480.60945514970047
 10
9387.38663482964
 20
486.0856456258909
 10
9387.38663482964
 20
502.52736918299524
 10
9385.711458920516
 20
508.03663908675014
 10
9396.571193410424
 20
523.1469073619088
 10
9406.661027809363
 20
531.442695984052
 10
9409.250203212054
 20
527.1850935305126
 10
9399.242458130764
 20
510.72850276874806
 10
9399.242458130764
 20
505.25231229255763
 10
9395.912222901872
 20
499.77612181636715
 10
9395.912222901872
 20
491.62665864609164
 10
9401.62658390002
 20
484.9147927256977
 10
9403.249025763405
 20
487.58271257813163
 10
9408.264773444042
 20
487.58271257813163
 10
9421.544924685017
 20
498.5015565560657
 10
9426.540277528356
 20
506.7158422703515
 10
9433.241537660739
 20
512.2255697209888
 10
9436.569694981192
 20
512.2255697209888
 10
9458.206718952855
 20
531.3838202819556
 10
9469.846290589257
 20
534.1180978055373
 10
9473.17391440605
 20
539.5899941135702
 10
9498.150678622746
 20
547.8042798278559
 10
9501.48172115678
 20
553.2817978249059
 10
9519.81553788165
 20
558.7632273030778
 10
9533.140945645675
 20
569.719280865842
 10
9548.10836247977
 20
572.4539700890246
 10
9551.450347402731
 20
577.9494815916094
 10
9568.213462324698
 20
575.1929793034066
 10
9570.749572418741
 20
571.0226366732294
 10
9570.749572418741
 20
551.7999313401767
 10
9567.41933718985
 20
546.3237408639862
 10
9567.41933718985
 20
524.4750176256103
 10
9575.74492526208
 20
510.7845414351342
 10
9575.74492526208
 20
502.51421705446234
 10
9572.413797453857
 20
497.03655883377337
 10
9570.750473036805
 20
445.06877475757796
 10
9580.7546276596
 20
428.61808809364925
 10
9572.41114244106
 20
412.1542008959201
 10
9570.745819991138
 20
401.2004726296042
 10
9557.421381898443
 20
376.55114594102815
 10
9554.09039807152
 20
365.59630302116744
 10
9549.851683847253
 20
358.6262228704236
 10
9544.796113812341
 20
364.1684268638459
 10
9536.478829756414
 20
364.1684268638459
 10
9533.107804852925
 20
366.9400590763881
  0
LWPOLYLINE
  5
59
330
17
100
AcDbEntity
  8
M
100
AcDbPolyline
 90
7
 70
1
 10
9530.58674967203
 20
513.4665980068434
 10
9528.189073250358
 20
517.4093023153612
 10
9525.791396828688
 20
513.4665980068434
 10
9525.791396828688
 20
461.49882714942
 10
9528.189073250358
 20
457.55612284090216
 10
9530.58674967203
 20
461.49882714942
 10
9530.58674967203
 20
513.4665980068434
  0
LWPOLYLINE
  5
5A
330
17
100
AcDbEntity
  8
M
100
AcDbPolyline
 90
18
 70
1
 10
9530.58674967203
 20
182.21311286370573
 10
9533.128199690223
 20
186.3922363876554
 10
9544.884384977306
 20
186.3922363876554
 10
9549.879737820644
 20
180.91604591146498
 10
9559.862139491017
 20
180.91604591146498
 10
9569.893634852291
 20
172.6682232227324
 10
9572.414690033189
 20
168.52263667322947
 10
9572.414690033189
 20
160.2523122925576
 10
9570.749572418741
 20
157.5142170544624
 10
9570.749572418741
 20
146.56183610208146
 10
9567.41933718985
 20
141.08564562589092
 10
9567.41933718985
 20
127.39516943541479
 10
9564.089101960955
 20
121.91897895922426
 10
9564.089101960955
 20
105.49040753065292
 10
9558.215576814648
 20
95.83206802693728
 10
9532.29385501527
 20
97.20707780453446
 10
9530.58674967203
 20
100.01421705446239
 10
9530.58674967203
 20
182.21311286370573
  0
LWPOLYLINE
  5
5B
330
17
100
AcDbEntity
  8
M
100
AcDbPolyline
 90
13
 70
1
 10
9530.58674967203
 20
724.3697667706255
 10
9534.846895029346
 20
728.5729594875603
 10
9542.442572973152
 20
721.633946949213
 10
9542.442572973152
 20
713.4035890541819
 10
9545.772808202046
 20
707.9273985779914
 10
9545.772808202046
 20
688.7607319113247
 10
9549.103043430938
 20
683.2845414351343
 10
9549.103043430938
 20
669.531592467055
 10
9541.558764538877
 20
659.8827125781316
 10
9536.570887726066
 20
659.8827125781316
 10
9534.869299817577
 20
657.0846461178354
 10
9530.58674967203
 20
661.3099440999235
 10
9530.58674967203
 20
724.3697667706255
  0
LWPOLYLINE
  5
5C
330
17
100
AcDbEntity
  8
M
100
AcDbPolyline
 90
34
 70
1
 10
9354.923370321749
 20
101.31128400670313
 10
9354.080949386494
 20
113.77866683990729
 10
9373.257095134059
 20
128.85965524184743
 10
9377.406290648796
 20
135.68253212589738
 10
9384.056399600746
 20
152.08554608975282
 10
9384.056399600746
 20
157.57025572084865
 10
9387.38663482964
 20
163.0464461970392
 10
9387.38663482964
 20
168.51765186724538
 10
9394.047105287425
 20
182.20812805772164
 10
9394.047105287425
 20
187.70138277843756
 10
9403.262495740451
 20
197.34461734003645
 10
9411.687066642588
 20
197.34461734003645
 10
9413.352184257032
 20
194.60652210194112
 10
9420.01265471482
 20
194.60652210194112
 10
9423.342889943711
 20
189.13033162575073
 10
9431.668478015943
 20
189.13033162575073
 10
9433.33359563039
 20
186.3922363876554
 10
9439.994066088175
 20
186.3922363876554
 10
9441.664523626774
 20
183.64536025578755
 10
9458.315699771238
 20
180.90726501769234
 10
9461.640595075978
 20
175.43985543527447
 10
9466.523495112368
 20
175.43985543527447
 10
9473.183965570153
 20
186.3922363876554
 10
9478.194517102998
 20
186.3922363876554
 10
9486.52010517523
 20
194.60652210194112
 10
9504.933653051583
 20
194.60652210194112
 10
9508.263888280477
 20
189.13033162575073
 10
9523.249946810494
 20
189.13033162575073
 10
9525.791396828688
 20
184.95120810180094
 10
9525.791396828688
 20
100.01421705446239
 10
9523.248952525202
 20
95.83345854221065
 10
9428.224811689743
 20
98.5747974550743
 10
9426.560672365655
 20
101.31128400670313
 10
9354.923370321749
 20
101.31128400670313
  0
LWPOLYLINE
  5
5D
330
17
100
AcDbEntity
  8
M
100
AcDbPolyline
 90
70
 70
1
 10
9387.38663482964
 20
625.7320236127198
 10
9387.38663482964
 20
631.2046932449387
 10
9380.726164371854
 20
642.1570741973195
 10
9380.726164371854
 20
644.8951694354148
 10
9370.735458685174
 20
661.3237408639862
 10
9370.735458685174
 20
666.7999313401767
 10
9369.047345762763
 20
669.5758397289444
 10
9374.952057322216
 20
676.5112840067031
 10
9379.952577850661
 20
676.5112840067031
 10
9388.278165922893
 20
684.7255697209889
 10
9393.26688803894
 20
684.7255697209889
 10
9399.927358496723
 20
692.9398554352744
 10
9404.929342067357
 20
692.9398554352744
 10
9413.254930139588
 20
701.1541411495601
 10
9416.569966678975
 20
701.1541411495601
 10
9419.02386950412
 20
705.1893033398961
 10
9419.02386950412
 20
710.6094551497005
 10
9411.550432193651
 20
722.8986669954354
 10
9401.595998969951
 20
733.8112840067031
 10
9396.58855530562
 20
733.8112840067031
 10
9389.051752444086
 20
746.2046932449387
 10
9389.051752444086
 20
748.9974429354247
 10
9416.544907721203
 20
796.9467487782138
 10
9421.580613330163
 20
802.467176255814
 10
9456.535522863134
 20
799.7300645458516
 10
9458.969652856222
 20
803.7327125781317
 10
9435.675045648584
 20
842.0380265782719
 10
9435.675045648584
 20
853.046446197039
 10
9437.34016326303
 20
855.7845414351344
 10
9437.34016326303
 20
872.2131128637059
 10
9440.670398491922
 20
877.6893033398962
 10
9440.670398491922
 20
891.3797795303724
 10
9444.882820078163
 20
898.3066244487524
 10
9461.64593500013
 20
895.5501221605496
 10
9464.970830304872
 20
890.0827125781317
 10
9469.96618314821
 20
890.0827125781317
 10
9472.507633166404
 20
885.903589054182
 10
9472.507633166404
 20
842.0940652446583
 10
9475.837868395298
 20
836.6178747684676
 10
9475.837868395298
 20
814.6570741973194
 10
9472.507633166404
 20
809.1808837211289
 10
9472.507633166404
 20
803.7046932449385
 10
9467.526840624236
 20
795.5143502785718
 10
9476.631432662893
 20
777.8208078162268
 10
9478.291771220443
 20
777.8208078162268
 10
9486.634883760173
 20
764.1015146457411
 10
9494.960471832404
 20
758.6253241695506
 10
9508.269784020946
 20
736.7396843747389
 10
9523.255842550965
 20
734.0015891366436
 10
9525.791396828688
 20
729.8321604827534
 10
9525.791396828688
 20
658.576861748267
 10
9519.9096805772
 20
651.668426863846
 10
9514.912267917269
 20
651.668426863846
 10
9509.92714189184
 20
646.2034476082816
 10
9499.93643620516
 20
643.4653523701863
 10
9494.941921498037
 20
637.9900807066809
 10
9476.641140977506
 20
632.5185283657697
 10
9469.97251273982
 20
618.8112840067031
 10
9464.970830304872
 20
618.8112840067031
 10
9463.309873268909
 20
616.0800303634801
 10
9441.663344281105
 20
613.341935125385
 10
9439.984111583572
 20
610.5806292495229
 10
9429.993405896892
 20
613.3187244876179
 10
9428.338242787051
 20
610.5969982924173
 10
9420.01265471482
 20
610.5969982924173
 10
9418.347537100371
 20
607.8589030543222
 10
9406.691713799248
 20
607.8589030543222
 10
9405.020067496482
 20
605.1100721359109
 10
9397.411266097712
 20
606.5002724234554
 10
9387.38663482964
 20
625.7320236127198
  0
ENDSEC
  0
SECTION
  2
OBJECTS
  0
DICTIONARY
  5
A
330
0
100
AcDbDictionary
281
1
  3
ACAD_COLOR
350
B
  3
ACAD_GROUP
350
C
  3
ACAD_LAYOUT
350
D
  3
ACAD_MATERIAL
350
E
  3
ACAD_MLEADERSTYLE
350
F
  3
ACAD_MLINESTYLE
350
10
  3
ACAD_PLOTSETTINGS
350
11
  3
ACAD_PLOTSTYLENAME
350
12
  3
ACAD_SCALELIST
350
14
  3
ACAD_TABLESTYLE
350
15
  3
ACAD_VISUALSTYLE
350
16
  3
EZDXF_META
350
2D
  0
DICTIONARY
  5
B
330
A
100
AcDbDictionary
281
1
  0
DICTIONARY
  5
C
330
A
100
AcDbDictionary
281
1
  0
DICTIONARY
  5
D
330
A
100
AcDbDictionary
281
1
  3
Model
350
1A
  3
Layout1
350
1E
  0
DICTIONARY
  5
E
330
A
100
AcDbDictionary
281
1
  3
ByBlock
350
1F
  3
ByLayer
350
20
  3
Global
350
21
  0
DICTIONARY
  5
F
330
A
100
AcDbDictionary
281
1
  3
Standard
350
2C
  0
DICTIONARY
  5
10
330
A
100
AcDbDictionary
281
1
  3
Standard
350
22
  0
DICTIONARY
  5
11
330
A
100
AcDbDictionary
281
1
  0
ACDBDICTIONARYWDFLT
  5
12
330
A
100
AcDbDictionary
281
1
  3
Normal
350
13
100
AcDbDictionaryWithDefault
340
13
  0
ACDBPLACEHOLDER
  5
13
330
12
  0
DICTIONARY
  5
14
330
A
100
AcDbDictionary
281
1
  0
DICTIONARY
  5
15
330
A
100
AcDbDictionary
281
1
  0
DICTIONARY
  5
16
330
A
100
AcDbDictionary
281
1
  0
LAYOUT
  5
1A
330
D
100
AcDbPlotSettings
  1

  4
A3
  6

 40
7.5
 41
20.0
 42
7.5
 43
20.0
 44
420.0
 45
297.0
 46
0.0
 47
0.0
 48
0.0
 49
0.0
140
0.0
141
0.0
142
1.0
143
1.0
 70
1024
 72
1
 73
0
 74
5
  7

 75
16
 76
0
 77
2
 78
300
147
1.0
148
0.0
149
0.0
100
AcDbLayout
  1
Model
 70
1
 71
0
 10
0.0
 20
0.0
 11
420.0
 21
297.0
 12
0.0
 22
0.0
 32
0.0
 14
1e+20
 24
1e+20
 34
1e+20
 15
-1e+20
 25
-1e+20
 35
-1e+20
146
0.0
 13
0.0
 23
0.0
 33
0.0
 16
1.0
 26
0.0
 36
0.0
 17
0.0
 27
1.0
 37
0.0
 76
1
330
17
  0
LAYOUT
  5
1E
330
D
100
AcDbPlotSettings
  1

  4
A3
  6

 40
7.5
 41
20.0
 42
7.5
 43
20.0
 44
420.0
 45
297.0
 46
0.0
 47
0.0
 48
0.0
 49
0.0
140
0.0
141
0.0
142
1.0
143
1.0
 70
0
 72
1
 73
0
 74
5
  7

 75
16
 76
0
 77
2
 78
300
147
1.0
148
0.0
149
0.0
100
AcDbLayout
  1
Layout1
 70
1
 71
1
 10
0.0
 20
0.0
 11
420.0
 21
297.0
 12
0.0
 22
0.0
 32
0.0
 14
1e+20
 24
1e+20
 34
1e+20
 15
-1e+20
 25
-1e+20
 35
-1e+20
146
0.0
 13
0.0
 23
0.0
 33
0.0
 16
1.0
 26
0.0
 36
0.0
 17
0.0
 27
1.0
 37
0.0
 76
1
330
1B
  0
MATERIAL
  5
1F
102
{ACAD_REACTORS
330
E
102
}
330
E
100
AcDbMaterial
  1
ByBlock
  2

 70
0
 40
1.0
 71
1
 41
1.0
 91
-1023410177
 42
1.0
 72
1
  3

 73
1
 74
1
 75
1
 44
0.5
 73
0
 45
1.0
 46
1.0
 77
1
  4

 78
1
 79
1
170
1
 48
1.0
171
1
  6

172
1
173
1
174
1
140
1.0
141
1.0
175
1
  7

176
1
177
1
178
1
143
1.0
179
1
  8

270
1
271
1
272
1
145
1.0
146
1.0
273
1
  9

274
1
275
1
276
1
 42
1.0
 72
1
  3

 73
1
 74
1
 75
1
 94
63
  0
MATERIAL
  5
20
102
{ACAD_REACTORS
330
E
102
}
330
E
100
AcDbMaterial
  1
ByLayer
  2

 70
0
 40
1.0
 71
1
 41
1.0
 91
-1023410177
 42
1.0
 72
1
  3

 73
1
 74
1
 75
1
 44
0.5
 73
0
 45
1.0
 46
1.0
 77
1
  4

 78
1
 79
1
170
1
 48
1.0
171
1
  6

172
1
173
1
174
1
140
1.0
141
1.0
175
1
  7

176
1
177
1
178
1
143
1.0
179
1
  8

270
1
271
1
272
1
145
1.0
146
1.0
273
1
  9

274
1
275
1
276
1
 42
1.0
 72
1
  3

 73
1
 74
1
 75
1
 94
63
  0
MATERIAL
  5
21
102
{ACAD_REACTORS
330
E
102
}
330
E
100
AcDbMaterial
  1
Global
  2

 70
0
 40
1.0
 71
1
 41
1.0
 91
-1023410177
 42
1.0
 72
1
  3

 73
1
 74
1
 75
1
 44
0.5
 73
0
 45
1.0
 46
1.0
 77
1
  4

 78
1
 79
1
170
1
 48
1.0
171
1
  6

172
1
173
1
174
1
140
1.0
141
1.0
175
1
  7

176
1
177
1
178
1
143
1.0
179
1
  8

270
1
271
1
272
1
145
1.0
146
1.0
273
1
  9

274
1
275
1
276
1
 42
1.0
 72
1
  3

 73
1
 74
1
 75
1
 94
63
  0
MLINESTYLE
  5
22
102
{ACAD_REACTORS
330
10
102
}
330
10
100
AcDbMlineStyle
  2
Standard
 70
0
  3

 62
256
 51
90.0
 52
90.0
 71
2
 49
0.5
 62
256
  6
BYLAYER
 49
-0.5
 62
256
  6
BYLAYER
  0
MLEADERSTYLE
  5
2C
102
{ACAD_REACTORS
330
F
102
}
330
F
100
AcDbMLeaderStyle
179
2
170
2
171
1
172
0
 90
2
 40
0.0
 41
0.0
173
1
 91
-1056964608
 92
-2
290
1
 42
2.0
291
1
 43
8.0
  3
Standard
 44
4.0
300

342
29
174
1
175
1
176
0
178
1
 93
-1056964608
 45
4.0
292
0
297
0
 46
4.0
 94
-1056964608
 47
1.0
 49
1.0
140
1.0
294
1
141
0.0
177
0
142
1.0
295
0
296
0
143
3.75
271
0
272
9
273
9
  0
DICTIONARY
  5
2D
330
A
100
AcDbDictionary
280
1
281
1
  3
CREATED_BY_EZDXF
350
2E
  3
WRITTEN_BY_EZDXF
350
60
  0
DICTIONARYVAR
  5
2E
330
2D
100
DictionaryVariables
280
0
  1
1.4.4 @ 2026-07-14T08:49:52.931495+00:00
  0
DICTIONARYVAR
  5
60
330
2D
100
DictionaryVariables
280
0
  1
1.4.4 @ 2026-07-14T08:49:52.955593+00:00
  0
ENDSEC
  0
EOF
