  0
SECTION
  2
HEADER
  9
$ACADVER
  1
AC1027
  9
$ACADMAINTVER
 70
105
  9
$DWGCODEPAGE
  3
ANSI_1252
  9
$LASTSAVEDBY
  1
ezdxf
  9
$REQUIREDVERSIONS
160
0
  9
$INSBASE
 10
0.0
 20
0.0
 30
0.0
  9
$EXTMIN
 10
1e+20
 20
1e+20
 30
1e+20
  9
$EXTMAX
 10
-1e+20
 20
-1e+20
 30
-1e+20
  9
$LIMMIN
 10
0.0
 20
0.0
  9
$LIMMAX
 10
420.0
 20
297.0
  9
$ORTHOMODE
 70
0
  9
$REGENMODE
 70
1
  9
$FILLMODE
 70
1
  9
$QTEXTMODE
 70
0
  9
$MIRRTEXT
 70
1
  9
$LTSCALE
 40
1.0
  9
$ATTMODE
 70
1
  9
$TEXTSIZE
 40
2.5
  9
$TRACEWID
 40
1.0
  9
$TEXTSTYLE
  7
Standard
  9
$CLAYER
  8
0
  9
$CELTYPE
  6
ByLayer
  9
$CECOLOR
 62
256
  9
$CELTSCALE
 40
1.0
  9
$DISPSILH
 70
0
  9
$DIMSCALE
 40
1.0
  9
$DIMASZ
 40
2.5
  9
$DIMEXO
 40
0.625
  9
$DIMDLI
 40
3.75
  9
$DIMRND
 40
0.0
  9
$DIMDLE
 40
0.0
  9
$DIMEXE
 40
1.25
  9
$DIMTP
 40
0.0
  9
$DIMTM
 40
0.0
  9
$DIMTXT
 40
2.5
  9
$DIMCEN
 40
2.5
  9
$DIMTSZ
 40
0.0
  9
$DIMTOL
 70
0
  9
$DIMLIM
 70
0
  9
$DIMTIH
 70
0
  9
$DIMTOH
 70
0
  9
$DIMSE1
 70
0
  9
$DIMSE2
 70
0
  9
$DIMTAD
 70
1
  9
$DIMZIN
 70
8
  9
$DIMBLK
  1

  9
$DIMASO
 70
1
  9
$DIMSHO
 70
1
  9
$DIMPOST
  1

  9
$DIMAPOST
  1

  9
$DIMALT
 70
0
  9
$DIMALTD
 70
3
  9
$DIMALTF
 40
0.03937007874
  9
$DIMLFAC
 40
1.0
  9
$DIMTOFL
 70
1
  9
$DIMTVP
 40
0.0
  9
$DIMTIX
 70
0
  9
$DIMSOXD
 70
0
  9
$DIMSAH
 70
0
  9
$DIMBLK1
  1

  9
$DIMBLK2
  1

  9
$DIMSTYLE
  2
ISO-25
  9
$DIMCLRD
 70
0
  9
$DIMCLRE
 70
0
  9
$DIMCLRT
 70
0
  9
$DIMTFAC
 40
1.0
  9
$DIMGAP
 40
0.625
  9
$DIMJUST
 70
0
  9
$DIMSD1
 70
0
  9
$DIMSD2
 70
0
  9
$DIMTOLJ
 70
0
  9
$DIMTZIN
 70
8
  9
$DIMALTZ
 70
0
  9
$DIMALTTZ
 70
0
  9
$DIMUPT
 70
0
  9
$DIMDEC
 70
2
  9
$DIMTDEC
 70
2
  9
$DIMALTU
 70
2
  9
$DIMALTTD
 70
3
  9
$DIMTXSTY
  7
Standard
  9
$DIMAUNIT
 70
0
  9
$DIMADEC
 70
0
  9
$DIMALTRND
 40
0.0
  9
$DIMAZIN
 70
0
  9
$DIMDSEP
 70
44
  9
$DIMATFIT
 70
3
  9
$DIMFRAC
 70
0
  9
$DIMLDRBLK
  1

  9
$DIMLUNIT
 70
2
  9
$DIMLWD
 70
-2
  9
$DIMLWE
 70
-2
  9
$DIMTMOVE
 70
0
  9
$DIMFXL
 40
1.0
  9
$DIMFXLON
 70
0
  9
$DIMJOGANG
 40
0.785398163397
  9
$DIMTFILL
 70
0
  9
$DIMTFILLCLR
 70
0
  9
$DIMARCSYM
 70
0
  9
$DIMLTYPE
  6

  9
$DIMLTEX1
  6

  9
$DIMLTEX2
  6

  9
$DIMTXTDIRECTION
 70
0
  9
$LUNITS
 70
2
  9
$LUPREC
 70
4
  9
$SKETCHINC
 40
1.0
  9
$FILLETRAD
 40
10.0
  9
$AUNITS
 70
0
  9
$AUPREC
 70
2
  9
$MENU
  1
.
  9
$ELEVATION
 40
0.0
  9
$PELEVATION
 40
0.0
  9
$THICKNESS
 40
0.0
  9
$LIMCHECK
 70
0
  9
$CHAMFERA
 40
0.0
  9
$CHAMFERB
 40
0.0
  9
$CHAMFERC
 40
0.0
  9
$CHAMFERD
 40
0.0
  9
$SKPOLY
 70
0
  9
$TDCREATE
 40
2461236.492962963
  9
$TDUCREATE
 40
2458532.153996898
  9
$TDUPDATE
 40
2461236.492962963
  9
$TDUUPDATE
 40
2458532.1544311
  9
$TDINDWG
 40
0.0
  9
$TDUSRTIMER
 40
0.0
  9
$USRTIMER
 70
1
  9
$ANGBASE
 50
0.0
  9
$ANGDIR
 70
0
  9
$PDMODE
 70
0
  9
$PDSIZE
 40
0.0
  9
$PLINEWID
 40
0.0
  9
$SPLFRAME
 70
0
  9
$SPLINETYPE
 70
6
  9
$SPLINESEGS
 70
8
  9
$HANDSEED
  5
3F
  9
$SURFTAB1
 70
6
  9
$SURFTAB2
 70
6
  9
$SURFTYPE
 70
6
  9
$SURFU
 70
6
  9
$SURFV
 70
6
  9
$UCSBASE
  2

  9
$UCSNAME
  2

  9
$UCSORG
 10
0.0
 20
0.0
 30
0.0
  9
$UCSXDIR
 10
1.0
 20
0.0
 30
0.0
  9
$UCSYDIR
 10
0.0
 20
1.0
 30
0.0
  9
$UCSORTHOREF
  2

  9
$UCSORTHOVIEW
 70
0
  9
$UCSORGTOP
 10
0.0
 20
0.0
 30
0.0
  9
$UCSORGBOTTOM
 10
0.0
 20
0.0
 30
0.0
  9
$UCSORGLEFT
 10
0.0
 20
0.0
 30
0.0
  9
$UCSORGRIGHT
 10
0.0
 20
0.0
 30
0.0
  9
$UCSORGFRONT
 10
0.0
 20
0.0
 30
0.0
  9
$UCSORGBACK
 10
0.0
 20
0.0
 30
0.0
  9
$PUCSBASE
  2

  9
$PUCSNAME
  2

  9
$PUCSORG
 10
0.0
 20
0.0
 30
0.0
  9
$PUCSXDIR
 10
1.0
 20
0.0
 30
0.0
  9
$PUCSYDIR
 10
0.0
 20
1.0
 30
0.0
  9
$PUCSORTHOREF
  2

  9
$PUCSORTHOVIEW
 70
0
  9
$PUCSORGTOP
 10
0.0
 20
0.0
 30
0.0
  9
$PUCSORGBOTTOM
 10
0.0
 20
0.0
 30
0.0
  9
$PUCSORGLEFT
 10
0.0
 20
0.0
 30
0.0
  9
$PUCSORGRIGHT
 10
0.0
 20
0.0
 30
0.0
  9
$PUCSORGFRONT
 10
0.0
 20
0.0
 30
0.0
  9
$PUCSORGBACK
 10
0.0
 20
0.0
 30
0.0
  9
$USERI1
 70
0
  9
$USERI2
 70
0
  9
$USERI3
 70
0
  9
$USERI4
 70
0
  9
$USERI5
 70
0
  9
$USERR1
 40
0.0
  9
$USERR2
 40
0.0
  9
$USERR3
 40
0.0
  9
$USERR4
 40
0.0
  9
$USERR5
 40
0.0
  9
$WORLDVIEW
 70
1
  9
$SHADEDGE
 70
3
  9
$SHADEDIF
 70
70
  9
$TILEMODE
 70
1
  9
$MAXACTVP
 70
64
  9
$PINSBASE
 10
0.0
 20
0.0
 30
0.0
  9
$PLIMCHECK
 70
0
  9
$PEXTMIN
 10
1e+20
 20
1e+20
 30
1e+20
  9
$PEXTMAX
 10
-1e+20
 20
-1e+20
 30
-1e+20
  9
$PLIMMIN
 10
0.0
 20
0.0
  9
$PLIMMAX
 10
420.0
 20
297.0
  9
$UNITMODE
 70
0
  9
$VISRETAIN
 70
1
  9
$PLINEGEN
 70
0
  9
$PSLTSCALE
 70
1
  9
$TREEDEPTH
 70
3020
  9
$CMLSTYLE
  2
Standard
  9
$CMLJUST
 70
0
  9
$CMLSCALE
 40
20.0
  9
$PROXYGRAPHICS
 70
1
  9
$MEASUREMENT
 70
1
  9
$CELWEIGHT
370
-1
  9
$ENDCAPS
280
0
  9
$JOINSTYLE
280
0
  9
$LWDISPLAY
290
0
  9
$INSUNITS
 70
4
  9
$HYPERLINKBASE
  1

  9
$STYLESHEET
  1

  9
$XEDIT
290
1
  9
$CEPSNTYPE
380
0
  9
$PSTYLEMODE
290
1
  9
$FINGERPRINTGUID
  2
{E16E589F-251E-4DAE-9330-C060C3BE4AA5}
  9
$VERSIONGUID
  2
{5C132F17-E813-4C0F-BD76-94558195F801}
  9
$EXTNAMES
290
1
  9
$PSVPSCALE
 40
0.0
  9
$OLESTARTUP
290
0
  9
$SORTENTS
280
127
  9
$INDEXCTL
280
0
  9
$HIDETEXT
280
1
  9
$XCLIPFRAME
280
1
  9
$HALOGAP
280
0
  9
$OBSCOLOR
 70
257
  9
$OBSLTYPE
280
0
  9
$INTERSECTIONDISPLAY
280
0
  9
$INTERSECTIONCOLOR
 70
257
  9
$DIMASSOC
280
2
  9
$PROJECTNAME
  1

  9
$CAMERADISPLAY
290
0
  9
$LENSLENGTH
 40
50.0
  9
$CAMERAHEIGHT
 40
0.0
  9
$STEPSPERSEC
 40
24.0
  9
$STEPSIZE
 40
100.0
  9
$3DDWFPREC
 40
2.0
  9
$PSOLWIDTH
 40
0.005
  9
$PSOLHEIGHT
 40
0.08
  9
$LOFTANG1
 40
1.570796326795
  9
$LOFTANG2
 40
1.570796326795
  9
$LOFTMAG1
 40
0.0
  9
$LOFTMAG2
 40
0.0
  9
$LOFTPARAM
 70
7
  9
$LOFTNORMALS
280
1
  9
$LATITUDE
 40
37.795
  9
$LONGITUDE
 40
-122.394
  9
$NORTHDIRECTION
 40
0.0
  9
$TIMEZONE
 70
-8000
  9
$LIGHTGLYPHDISPLAY
280
1
  9
$TILEMODELIGHTSYNCH
280
1
  9
$CMATERIAL
347
20
  9
$SOLIDHIST
280
0
  9
$SHOWHIST
280
1
  9
$DWFFRAME
280
2
  9
$DGNFRAME
280
2
  9
$REALWORLDSCALE
290
1
  9
$INTERFERECOLOR
 62
256
  9
$CSHADOW
280
0
  9
$SHADOWPLANELOCATION
 40
0.0
  0
ENDSEC
  0
SECTION
  2
CLASSES
  0
CLASS
  1
ACDBDICTIONARYWDFLT
  2
AcDbDictionaryWithDefault
  3
ObjectDBX Classes
 90
0
 91
0
280
0
281
0
  0
CLASS
  1
SUN
  2
AcDbSun
  3
SCENEOE
 90
1153
 91
0
280
0
281
0
  0
CLASS
  1
VISUALSTYLE
  2
AcDbVisualStyle
  3
ObjectDBX Classes
 90
4095
 91
0
280
0
281
0
  0
CLASS
  1
MATERIAL
  2
AcDbMaterial
  3
ObjectDBX Classes
 90
1153
 91
0
280
0
281
0
  0
CLASS
  1
SCALE
  2
AcDbScale
  3
ObjectDBX Classes
 90
1153
 91
0
280
0
281
0
  0
CLASS
  1
TABLESTYLE
  2
AcDbTableStyle
  3
ObjectDBX Classes
 90
4095
 91
0
280
0
281
0
  0
CLASS
  1
MLEADERSTYLE
  2
AcDbMLeaderStyle
  3
ACDB_MLEADERSTYLE_CLASS
 90
4095
 91
0
280
0
281
0
  0
CLASS
  1
DICTIONARYVAR
  2
AcDbDictionaryVar
  3
ObjectDBX Classes
 90
0
 91
0
280
0
281
0
  0
CLASS
  1
CELLSTYLEMAP
  2
AcDbCellStyleMap
  3
ObjectDBX Classes
 90
1152
 91
0
280
0
281
0
  0
CLASS
  1
MENTALRAYRENDERSETTINGS
  2
AcDbMentalRayRenderSettings
  3
SCENEOE
 90
1024
 91
0
280
0
281
0
  0
CLASS
  1
ACDBDETAILVIEWSTYLE
  2
AcDbDetailViewStyle
  3
ObjectDBX Classes
 90
1025
 91
0
280
0
281
0
  0
CLASS
  1
ACDBSECTIONVIEWSTYLE
  2
AcDbSectionViewStyle
  3
ObjectDBX Classes
 90
1025
 91
0
280
0
281
0
  0
CLASS
  1
RASTERVARIABLES
  2
AcDbRasterVariables
  3
ISM
 90
0
 91
0
280
0
281
0
  0
CLASS
  1
LAYOUT
  2
AcDbLayout
  3
ObjectDBX Classes
 90
0
 91
0
280
0
281
0
  0
CLASS
  1
ACDBPLACEHOLDER
  2
AcDbPlaceHolder
  3
ObjectDBX Classes
 90
0
 91
0
280
0
281
0
  0
ENDSEC
  0
SECTION
  2
TABLES
  0
TABLE
  2
VPORT
  5
8
330
0
100
AcDbSymbolTable
 70
1
  0
VPORT
  5
23
330
8
100
AcDbSymbolTableRecord
100
AcDbViewportTableRecord
  2
*Active
 70
0
 10
0.0
 20
0.0
 11
1.0
 21
1.0
 12
0.0
 22
0.0
 13
0.0
 23
0.0
 14
0.5
 24
0.5
 15
0.5
 25
0.5
 16
0.0
 26
0.0
 36
1.0
 17
0.0
 27
0.0
 37
0.0
 40
1000.0
 41
1.34
 42
50.0
 43
0.0
 44
0.0
 50
0.0
 51
0.0
 71
0
 72
1000
 73
1
 74
3
 75
0
 76
0
 77
0
 78
0
281
0
 65
0
146
0.0
  0
ENDTAB
  0
TABLE
  2
LTYPE
  5
2
330
0
100
AcDbSymbolTable
 70
3
  0
LTYPE
  5
24
330
2
100
AcDbSymbolTableRecord
100
AcDbLinetypeTableRecord
  2
ByBlock
 70
0
  3

 72
65
 73
0
 40
0.0
  0
LTYPE
  5
25
330
2
100
AcDbSymbolTableRecord
100
AcDbLinetypeTableRecord
  2
ByLayer
 70
0
  3

 72
65
 73
0
 40
0.0
  0
LTYPE
  5
26
330
2
100
AcDbSymbolTableRecord
100
AcDbLinetypeTableRecord
  2
Continuous
 70
0
  3

 72
65
 73
0
 40
0.0
  0
ENDTAB
  0
TABLE
  2
LAYER
  5
1
330
0
100
AcDbSymbolTable
 70
3
  0
LAYER
  5
27
330
1
100
AcDbSymbolTableRecord
100
AcDbLayerTableRecord
  2
0
 70
0
 62
7
  6
Continuous
370
-3
390
13
347
21
  0
LAYER
  5
28
330
1
100
AcDbSymbolTableRecord
100
AcDbLayerTableRecord
  2
Defpoints
 70
0
 62
7
  6
Continuous
290
0
370
-3
390
13
347
21
  0
LAYER
  5
2F
330
1
100
AcDbSymbolTableRecord
100
AcDbLayerTableRecord
  2
Y
 70
0
 62
7
  6
Continuous
370
-3
390
13
347
21
  0
ENDTAB
  0
TABLE
  2
STYLE
  5
5
330
0
100
AcDbSymbolTable
 70
1
  0
STYLE
  5
29
330
5
100
AcDbSymbolTableRecord
100
AcDbTextStyleTableRecord
  2
Standard
 70
0
 40
0.0
 41
1.0
 50
0.0
 71
0
 42
2.5
  3
txt
  4

  0
ENDTAB
  0
TABLE
  2
VIEW
  5
7
330
0
100
AcDbSymbolTable
 70
0
  0
ENDTAB
  0
TABLE
  2
UCS
  5
6
330
0
100
AcDbSymbolTable
 70
0
  0
ENDTAB
  0
TABLE
  2
APPID
  5
3
330
0
100
AcDbSymbolTable
 70
3
  0
APPID
  5
2A
330
3
100
AcDbSymbolTableRecord
100
AcDbRegAppTableRecord
  2
ACAD
 70
0
  0
APPID
  5
3C
330
3
100
AcDbSymbolTableRecord
100
AcDbRegAppTableRecord
  2
HATCHBACKGROUNDCOLOR
 70
0
  0
APPID
  5
3D
330
3
100
AcDbSymbolTableRecord
100
AcDbRegAppTableRecord
  2
EZDXF
 70
0
  0
ENDTAB
  0
TABLE
  2
DIMSTYLE
  5
4
330
0
100
AcDbSymbolTable
 70
1
100
AcDbDimStyleTable
  0
DIMSTYLE
105
2B
330
4
100
AcDbSymbolTableRecord
100
AcDbDimStyleTableRecord
  2
Standard
 70
0
 40
1.0
 41
2.5
 42
0.625
 43
3.75
 44
1.25
 45
0.0
 46
0.0
 47
0.0
 48
0.0
 49
2.5
140
2.5
141
2.5
142
0.0
143
0.03937007874
144
1.0
145
0.0
146
1.0
147
0.625
148
0.0
 69
0
 70
0
 71
0
 72
0
 73
0
 74
0
 75
0
 76
0
 77
1
 78
8
 79
3
170
0
171
3
172
1
173
0
174
0
175
0
176
0
177
0
178
0
179
2
271
2
272
2
273
2
274
3
275
0
276
0
277
2
278
44
279
0
280
0
281
0
282
0
283
0
284
8
285
0
286
0
288
0
289
3
290
0
371
-2
372
-2
  0
ENDTAB
  0
TABLE
  2
BLOCK_RECORD
  5
9
330
0
100
AcDbSymbolTable
 70
2
  0
BLOCK_RECORD
  5
17
330
9
100
AcDbSymbolTableRecord
100
AcDbBlockTableRecord
  2
*Model_Space
340
1A
 70
0
280
1
281
0
  0
BLOCK_RECORD
  5
1B
330
9
100
AcDbSymbolTableRecord
100
AcDbBlockTableRecord
  2
*Paper_Space
340
1E
 70
0
280
1
281
0
  0
ENDTAB
  0
ENDSEC
  0
SECTION
  2
BLOCKS
  0
BLOCK
  5
18
330
17
100
AcDbEntity
  8
0
100
AcDbBlockBegin
  2
*Model_Space
 70
0
 10
0.0
 20
0.0
 30
0.0
  3
*Model_Space
  1

  0
ENDBLK
  5
19
330
17
100
AcDbEntity
  8
0
100
AcDbBlockEnd
  0
BLOCK
  5
1C
330
1B
100
AcDbEntity
  8
0
100
AcDbBlockBegin
  2
*Paper_Space
 70
0
 10
0.0
 20
0.0
 30
0.0
  3
*Paper_Space
  1

  0
ENDBLK
  5
1D
330
1B
100
AcDbEntity
  8
0
100
AcDbBlockEnd
  0
ENDSEC
  0
SECTION
  2
ENTITIES
  0
LWPOLYLINE
  5
30
330
17
100
AcDbEntity
  8
Y
100
AcDbPolyline
 90
13
 70
1
 10
77.25021490018011
 20
272.4457068461541
 10
71.94701965184882
 20
277.9643938353438
 10
68.41081255261217
 20
286.2441654052291
 10
71.9405496967416
 20
291.7539138324712
 10
77.20290782090736
 20
308.18248526104264
 10
83.37887733097999
 20
317.8228740224015
 10
143.1283307177265
 20
317.8228740224015
 10
145.80481245670876
 20
313.6450158846006
 10
145.80481245670876
 20
277.9912083506787
 10
143.1283307177265
 20
273.81335021287765
 10
120.32477884634149
 20
273.81335021287765
 10
118.56948535803372
 20
271.07342224044015
 10
77.25021490018011
 20
272.4457068461541
  0
LWPOLYLINE
  5
31
330
17
100
AcDbEntity
  8
Y
100
AcDbPolyline
 90
22
 70
1
 10
48.324071296018204
 20
599.6466835462111
 10
39.52589296293196
 20
599.6466835462111
 10
37.771773588210046
 20
602.3847787843063
 10
34.263534838766205
 20
602.3847787843063
 10
28.98088401758131
 20
610.6307404140838
 10
18.4561677692498
 20
618.8450261283696
 10
9.705863592659348
 20
632.5038264033539
 10
7.945952769145475
 20
632.5038264033539
 10
0.0
 20
647.6633502128777
 10
7.945952769145475
 20
662.8228740224015
 10
48.29648983654158
 20
662.8228740224015
 10
50.050609211263506
 20
665.5609692604967
 10
62.438839480518176
 20
665.5609692604967
 10
66.86344217052073
 20
658.654379132969
 10
68.61886313973898
 20
650.4339982411083
 10
73.88591809311002
 20
639.4718419253805
 10
73.88591809311002
 20
633.9956514491902
 10
84.42843486395776
 20
612.053841875085
 10
76.4777210949777
 20
602.4010919749772
 10
69.46035501714745
 20
599.6626499797277
 10
62.405834972706714
 20
591.4038273395385
 10
48.324071296018204
 20
599.6466835462111
  0
LWPOLYLINE
  5
32
330
17
100
AcDbEntity
  8
Y
100
AcDbPolyline
 90
203
 70
1
 10
2411.894721350468
 20
73.93239783192546
 10
2293.226718964924
 20
73.93239783192546
 10
2291.7969839964235
 20
76.67049307002067
 10
2227.4589104139004
 20
76.67049307002067
 10
2225.2749035796337
 20
80.85309952829573
 10
2225.2749035796337
 20
86.3292900044862
 10
2223.8451686111334
 20
89.06738524258145
 10
2223.8451686111334
 20
105.54502946888836
 10
2226.0087368208283
 20
109.68849377715331
 10
2237.4730530972365
 20
120.66618911791008
 10
2244.6052051094866
 20
123.39795575891146
 10
2247.455712290209
 20
128.85698159911755
 10
2266.042266880715
 20
145.285553027689
 10
2268.9007858758437
 20
150.75992234858185
 10
2286.0840420262543
 20
167.21380816552914
 10
2293.2161940385045
 20
169.9455748065304
 10
2295.3319170361597
 20
173.9974104212695
 10
2295.3319170361597
 20
198.6402675641266
 10
2298.1913869731607
 20
204.1164580403171
 10
2298.1913869731607
 20
217.80693423079325
 10
2300.375393807427
 20
221.9895406890682
 10
2304.664598712928
 20
221.9895406890682
 10
2306.127917885561
 20
224.79195326669603
 10
2309.054556230828
 20
221.9895406890682
 10
2331.8295631144388
 20
221.9895406890682
 10
2333.259298082939
 20
224.72763592716342
 10
2357.564792547448
 20
224.72763592716342
 10
2358.9945275159484
 20
227.46573116525872
 10
2366.1636409830226
 20
227.46573116525872
 10
2369.0632679139367
 20
230.24227887050077
 10
2374.822364781852
 20
224.72763592716342
 10
2420.573883773869
 20
224.72763592716342
 10
2423.366185302605
 20
222.0538580286008
 10
2426.867534138208
 20
228.75931518317407
 10
2426.867534138208
 20
234.19092210436236
 10
2421.1485942642057
 20
247.88139829483848
 10
2421.1485942642057
 20
253.35309952829564
 10
2418.2891243272047
 20
258.82929000448604
 10
2418.2891243272047
 20
264.3054804806766
 10
2415.4296543902037
 20
269.7816709568671
 10
2415.4296543902037
 20
275.25786143305754
 10
2413.999919421703
 20
277.9959566711527
 10
2413.999919421703
 20
283.47214714734326
 10
2411.9217201932306
 20
287.452120734519
 10
2404.8505868445586
 20
282.0353303568613
 10
2393.43632841672
 20
279.30288978778583
 10
2391.9996230284296
 20
276.551445450973
 10
2383.3945179301277
 20
276.551445450973
 10
2376.245843087625
 20
271.07525497478247
 10
2370.553598500922
 20
271.07525497478247
 10
2369.123863532421
 20
268.3371597366873
 10
2361.862365837705
 20
268.3371597366873
 10
2356.1434259637026
 20
276.551445450973
 10
2351.866291298017
 20
276.551445450973
 10
2328.9905318020087
 20
298.4562073557349
 10
2323.3604469256675
 20
298.4562073557349
 10
2319.0712420201658
 20
292.98001687954434
 10
2314.7774228250746
 20
292.98001687954434
 10
2304.769278045571
 20
282.0276359271634
 10
2301.9058813883253
 20
282.0276359271634
 10
2293.2945572106114
 20
273.78183294823054
 10
2286.1047394097204
 20
279.2895406890682
 10
2280.3857995357184
 20
279.2895406890682
 10
2273.2371246932157
 20
284.7657311652587
 10
2268.9212245004155
 20
284.7657311652587
 10
2267.491489531915
 20
287.5038264033539
 10
2261.772549657913
 20
287.5038264033539
 10
2258.90407504162
 20
292.9972618025767
 10
2250.325665230617
 20
295.735357040672
 10
2248.9049349414076
 20
298.4562073557349
 10
2243.2033430801002
 20
298.4562073557349
 10
2236.712783327638
 20
305.3618270616135
 10
2236.712783327638
 20
332.75786143305766
 10
2233.8533133906367
 20
338.23405190924814
 10
2233.8533133906367
 20
351.9736008974597
 10
2236.037320224903
 20
356.1562073557348
 10
2241.7562600989054
 20
356.1562073557348
 10
2243.1859950674057
 20
358.89430259383016
 10
2270.350959468916
 20
358.89430259383016
 10
2271.8142786415488
 20
361.69671517145787
 10
2274.740916986815
 20
358.89430259383016
 10
2284.6483091539208
 20
358.89430259383016
 10
2287.489169860828
 20
364.33485440591284
 10
2297.4973146403318
 20
372.54914012019856
 10
2301.0508569101617
 20
379.35455327841214
 10
2301.0508569101617
 20
390.25786143305754
 10
2298.1913869731607
 20
395.734051909248
 10
2298.1913869731607
 20
417.6505112920499
 10
2296.7545289708173
 20
423.15398451011265
 10
2311.7943953407193
 20
449.2137974767715
 10
2314.7603505252687
 20
452.05385802860064
 10
2317.657542178088
 20
446.50542643588795
 10
2337.6738317370955
 20
443.76733119779266
 10
2339.09942919391
 20
441.0371597366872
 10
2347.677839004913
 20
441.0371597366872
 10
2349.1075739734138
 20
438.29906449859203
 10
2357.585231172019
 20
438.29906449859203
 10
2366.1227637338798
 20
446.47420806286755
 10
2371.8390845112704
 20
457.42157316537526
 10
2383.276964259275
 20
471.11204935585135
 10
2387.5687882613875
 20
479.3313509200103
 10
2390.4691354475312
 20
482.10858830811577
 10
2397.5973716654626
 20
482.10858830811577
 10
2399.0271066339633
 20
484.84668354621107
 10
2404.757944122702
 20
484.84668354621107
 10
2409.047149028204
 20
490.3228740224015
 10
2413.3328247037234
 20
490.3228740224015
 10
2419.051764577726
 20
498.5371597366872
 10
2421.9028661299717
 20
498.5371597366872
 10
2426.867534138208
 20
508.0450294688883
 10
2426.867534138208
 20
513.5212199450787
 10
2431.163974746063
 20
521.7493628025378
 10
2439.727348760779
 20
549.0823232559388
 10
2437.6255116703
 20
553.1075658746654
 10
2419.057865593259
 20
555.8428755878573
 10
2413.3448949435397
 20
561.3133502128777
 10
2406.175781476466
 20
561.3133502128777
 10
2404.7460465079653
 20
564.051445450973
 10
2401.898474185701
 20
564.051445450973
 10
2397.6092692801994
 20
569.5276359271634
 10
2390.4691354475312
 20
569.5276359271634
 10
2384.7501955735293
 20
575.0038264033539
 10
2377.581082106455
 20
575.0038264033539
 10
2376.145668659175
 20
577.7527965350831
 10
2361.8667691564083
 20
580.4873583661314
 10
2358.974088891377
 20
583.2572542676498
 10
2356.810520681682
 20
587.4007185759147
 10
2356.810520681682
 20
595.6226328016222
 10
2353.944220377214
 20
603.8565398412385
 10
2358.97446076462
 20
616.2424013562447
 10
2363.268033328091
 20
618.9832847715784
 10
2367.606521531084
 20
627.2919532666958
 10
2370.5331598763505
 20
624.4895406890681
 10
2379.132008311925
 20
624.4895406890681
 10
2380.561743280425
 20
621.7514454509729
 10
2397.7185629024316
 20
621.7514454509729
 10
2399.1482978709323
 20
619.0133502128778
 10
2404.8672377449343
 20
619.0133502128778
 10
2406.296972713435
 20
616.2752549747825
 10
2417.607655645192
 20
616.2752549747825
 10
2429.045535393196
 20
643.6562073557349
 10
2433.4619371149447
 20
643.6562073557349
 10
2434.8916720834454
 20
640.9181121176396
 10
2440.6106119574474
 20
640.9181121176396
 10
2442.046025404728
 20
638.1691419859103
 10
2456.3327181775608
 20
635.4330876603699
 10
2460.615003901718
 20
629.9657311652587
 10
2464.916106421956
 20
629.9657311652587
 10
2466.352100630648
 20
627.2156488133702
 10
2479.2197153471525
 20
624.477553575275
 10
2480.6431910754623
 20
621.7514454509729
 10
2487.791865917965
 20
621.7514454509729
 10
2489.2216008864652
 20
619.0133502128778
 10
2494.8193495234987
 20
619.0133502128778
 10
2496.2826686961316
 20
621.8157627905055
 10
2499.1421386331326
 20
619.0776675524103
 10
2500.5382893975006
 20
621.7514454509729
 10
2507.7953615049314
 20
621.7514454509729
 10
2520.0192821436585
 20
606.6037244964833
 10
2518.5705721222416
 20
603.8292900044862
 10
2518.5705721222416
 20
598.357588771029
 10
2512.850149975467
 20
584.6635641921193
 10
2511.4206456697193
 20
565.4999897321823
 10
2505.6949907365097
 20
549.0521282197378
 10
2497.760210324631
 20
533.8561758650981
 10
2494.0650776577327
 20
538.1021202039884
 10
2494.0650776577327
 20
587.4007185759148
 10
2492.0204752049817
 20
591.3163507476214
 10
2489.975872752231
 20
587.4007185759148
 10
2489.975872752231
 20
480.6640770879359
 10
2492.0204752049817
 20
476.74844491622923
 10
2494.0650776577327
 20
480.6640770879359
 10
2494.0650776577327
 20
521.7355056593644
 10
2496.3192091133296
 20
526.0524082606088
 10
2508.562427342738
 20
497.08837919224504
 10
2508.562427342738
 20
491.56118706079013
 10
2489.9741068158687
 20
464.1776331745826
 10
2488.547777810769
 20
439.59348108640785
 10
2498.554282563234
 20
423.167601795284
 10
2498.554282563234
 20
420.3806311931635
 10
2491.4163715769655
 20
403.97679648641605
 10
2492.835342689232
 20
401.25931518317395
 10
2492.835342689232
 20
392.99595667115295
 10
2489.975872752231
 20
387.5197661949624
 10
2489.975872752231
 20
379.3054804806767
 10
2488.5461377837305
 20
376.5673852425815
 10
2488.5461377837305
 20
360.1878866117454
 10
2490.661860781386
 20
356.1360509970065
 10
2504.9497316784955
 20
350.66349109914995
 10
2509.1879121174525
 20
345.2524454933724
 10
2511.996607770076
 20
347.9419216414491
 10
2540.5708685155155
 20
347.9419216414491
 10
2542.0006034840158
 20
350.68001687954444
 10
2550.5873816797744
 20
350.68001687954444
 10
2556.3063215537763
 20
358.89430259383016
 10
2563.4466280115234
 20
358.89430259383016
 10
2566.2874887184307
 20
364.33485440591284
 10
2576.4065202859447
 20
372.6401515692456
 10
2578.619440799264
 20
368.4021723260311
 10
2578.619440799264
 20
72.63881381400999
 10
2576.4348997430984
 20
68.4551842637145
 10
2413.3239275072997
 20
71.19531532468199
 10
2411.894721350468
 20
73.93239783192546
  0
LWPOLYLINE
  5
33
330
17
100
AcDbEntity
  8
Y
100
AcDbPolyline
 90
7
 70
1
 10
2494.0650776577327
 20
152.0926485165074
 10
2494.0650776577327
 20
269.7816709568671
 10
2492.0204752049817
 20
273.69730312857376
 10
2489.975872752231
 20
269.7816709568671
 10
2489.975872752231
 20
152.0926485165074
 10
2492.0204752049817
 20
148.17701634480065
 10
2494.0650776577327
 20
152.0926485165074
  0
LWPOLYLINE
  5
34
330
17
100
AcDbEntity
  8
Y
100
AcDbPolyline
 90
39
 70
1
 10
3040.572213348619
 20
5.483702265178941
 10
3039.606843742261
 20
9.675794294280642
 10
3039.606843742261
 20
212.31757279814158
 10
3040.5730620321056
 20
216.51335021287767
 10
3050.1685402882536
 20
216.51335021287767
 10
3053.3305058819433
 20
211.02104936797585
 10
3062.1580398801184
 20
208.28295412988066
 10
3065.301455713696
 20
202.82287402240155
 10
3070.3519833755668
 20
202.82287402240155
 10
3072.8813803147073
 20
197.3309543073131
 10
3082.9699905983357
 20
194.5928590692179
 10
3085.48489880101
 20
189.1323978319254
 10
3092.436367584194
 20
189.1323978319254
 10
3093.066905726921
 20
186.39430259383008
 10
3110.721973723271
 20
186.39430259383008
 10
3111.3525118659977
 20
183.65620735573486
 10
3115.759299054768
 20
183.65620735573486
 10
3128.7127218667383
 20
143.86969514020544
 10
3128.7127218667383
 20
102.76667641030782
 10
3126.4859698902856
 20
95.85981093190246
 10
3118.9301766206904
 20
93.12557486570108
 10
3117.9951486905284
 20
86.3583513635921
 10
3120.8105840068993
 20
74.13239783192543
 10
3126.4698780782505
 20
74.13239783192543
 10
3128.992030649158
 20
68.6562073557349
 10
3132.7908087187084
 20
68.6562073557349
 10
3133.4213468614353
 20
65.91811211763971
 10
3135.9434994323424
 20
65.91811211763971
 10
3136.5740375750693
 20
63.18001687954444
 10
3139.7267282887033
 20
63.18001687954444
 10
3140.35726643143
 20
60.441921641449184
 10
3146.0165605027814
 20
60.441921641449184
 10
3148.5387130736885
 20
54.96573116525874
 10
3153.576795695447
 20
54.96573116525874
 10
3156.765772631157
 20
49.426511904516104
 10
3157.7174764321703
 20
45.2937632743321
 10
3157.7174764321703
 20
4.199603818090147
 10
3156.7503769847867
 20
0.0
 10
3040.572213348619
 20
5.483702265178941
  0
LWPOLYLINE
  5
35
330
17
100
AcDbEntity
  8
Y
100
AcDbPolyline
 90
32
 70
1
 10
3044.352966413865
 20
273.827786656065
 10
3043.725752745739
 20
276.551445450973
 10
3040.5730620321056
 20
276.551445450973
 10
3039.606843742261
 20
280.7472228657092
 10
3039.606843742261
 20
319.10328708385583
 10
3040.5805332698264
 20
323.3315081511486
 10
3048.2924488891153
 20
320.540775653131
 10
3050.8146014600225
 20
315.06458517694057
 10
3058.3777067414826
 20
312.3277030925323
 10
3062.781275008387
 20
304.13239783192535
 10
3066.5843037323957
 20
304.13239783192535
 10
3067.2148418751226
 20
301.39430259383005
 10
3070.3519833755668
 20
301.39430259383005
 10
3072.874135946474
 20
295.9181121176396
 10
3076.0423758732977
 20
295.9181121176396
 10
3076.6729140160246
 20
293.1800168795443
 10
3078.564528444205
 20
293.1800168795443
 10
3079.7460158054123
 20
288.04943920568303
 10
3080.376553948139
 20
290.78753444377827
 10
3081.424978436036
 20
286.23477878430623
 10
3080.4082666606173
 20
281.81973474153233
 10
3079.147190375164
 20
284.5578299796276
 10
3078.564528444205
 20
282.0276359271634
 10
3072.874135946474
 20
282.0276359271634
 10
3070.2879436645107
 20
276.41240007369095
 10
3069.0268673790565
 20
279.15049531178613
 10
3066.544646923618
 20
273.761006914187
 10
3062.761418067257
 20
276.4991021522824
 10
3060.199333380882
 20
270.9362095975004
 10
3058.9699698079066
 20
273.6054490272466
 10
3058.383422490779
 20
271.0583827879249
 10
3044.352966413865
 20
273.827786656065
  0
LWPOLYLINE
  5
36
330
17
100
AcDbEntity
  8
Y
100
AcDbPolyline
 90
56
 70
1
 10
5507.45262735428
 20
332.68981894783064
 10
5505.312261318125
 20
336.7895406890682
 10
5500.153217860568
 20
336.7895406890682
 10
5499.2955216917135
 20
339.5276359271634
 10
5491.601019896685
 20
339.5276359271634
 10
5487.312539052419
 20
345.0038264033539
 10
5479.568509808085
 20
345.0038264033539
 10
5478.703063478321
 20
347.76666312853285
 10
5471.841494127494
 20
350.5047583666282
 10
5470.991548119551
 20
353.21811211763963
 10
5460.709158980874
 20
353.21811211763963
 10
5458.136070474314
 20
358.6943025938302
 10
5450.406840067069
 20
358.6943025938302
 10
5449.549143898215
 20
361.43239783192536
 10
5445.2854267786015
 20
361.43239783192536
 10
5440.983542569916
 20
366.9257037807607
 10
5434.095955361293
 20
369.67418139188044
 10
5431.528035001528
 20
383.3371597366872
 10
5429.816369589927
 20
383.3371597366872
 10
5427.243281083366
 20
394.2895406890682
 10
5425.53365117032
 20
394.2895406890682
 10
5424.22057371492
 20
398.4813877072122
 10
5424.22057371492
 20
403.9881698614004
 10
5425.53365117032
 20
408.18001687954444
 10
5440.2614196365885
 20
408.18001687954444
 10
5441.119115805442
 20
405.4419216414491
 10
5453.126862169389
 20
405.4419216414491
 10
5453.984558338242
 20
402.7038264033539
 10
5462.432698479546
 20
402.7038264033539
 10
5464.23397184874
 20
405.5790042424313
 10
5465.134608533336
 20
402.7038264033539
 10
5476.284658728431
 20
402.7038264033539
 10
5477.142354897284
 20
399.96573116525866
 10
5488.292405092379
 20
399.96573116525866
 10
5489.1501012612325
 20
397.2276359271635
 10
5511.450201651422
 20
397.2276359271635
 10
5512.307897820275
 20
394.4895406890682
 10
5523.45794801537
 20
394.4895406890682
 10
5524.315644184223
 20
391.75144545097294
 10
5531.030279939291
 20
391.75144545097294
 10
5531.887976108143
 20
394.4895406890682
 10
5533.740337154046
 20
394.4895406890682
 10
5536.313425660606
 20
389.01335021287775
 10
5538.038782885878
 20
389.01335021287775
 10
5539.351860341279
 20
384.82150319473374
 10
5539.351860341279
 20
376.57662580245034
 10
5538.059366684774
 20
372.45049016764784
 10
5534.601136944165
 20
364.1704930700206
 10
5532.028973994779
 20
364.1704930700206
 10
5528.198263222233
 20
354.65897202095084
 10
5526.898222041549
 20
347.74192164144915
 10
5525.173340353076
 20
347.74192164144915
 10
5522.600251846516
 20
339.5276359271634
 10
5520.884859508809
 20
339.5276359271634
 10
5518.308700781187
 20
331.30354888931504
 10
5507.45262735428
 20
332.68981894783064
  0
LWPOLYLINE
  5
37
330
17
100
AcDbEntity
  8
Y
100
AcDbPolyline
 90
86
 70
1
 10
5395.081427252098
 20
146.5047228570824
 10
5393.798892922743
 20
150.5990644985921
 10
5390.3681082473295
 20
150.5990644985921
 10
5389.510412078476
 20
153.33715973668728
 10
5380.933450389942
 20
153.33715973668728
 10
5380.075754221089
 20
156.0752549747825
 10
5376.644969545675
 20
156.0752549747825
 10
5375.787273376822
 20
158.8133502128777
 10
5372.356488701408
 20
158.8133502128777
 10
5371.498792532554
 20
161.55144545097303
 10
5365.513031399109
 20
161.55144545097303
 10
5362.082246723696
 20
167.02763592716343
 10
5358.633349999753
 20
167.02763592716343
 10
5357.7756538308995
 20
169.76573116525876
 10
5349.198692142365
 20
169.76573116525876
 10
5348.340995973512
 20
172.50382640335397
 10
5344.910211298099
 20
172.50382640335397
 10
5344.052515129245
 20
175.24192164144915
 10
5340.631695341396
 20
175.24192164144915
 10
5338.058606834836
 20
180.7181121176397
 10
5332.018594967355
 20
180.7181121176397
 10
5331.58907345844
 20
300.01229012694296
 10
5341.623011316132
 20
301.40499357486294
 10
5342.484056387299
 20
298.65620735573486
 10
5357.922587426659
 20
298.65620735573486
 10
5359.639952381915
 20
293.1737195275081
 10
5390.517014460637
 20
290.43562428941294
 10
5391.372738011943
 20
287.7038264033539
 10
5406.811269051304
 20
287.7038264033539
 10
5407.672769203849
 20
284.9535873898621
 10
5423.111300243211
 20
282.2154921517668
 10
5423.965192428373
 20
279.4895406890682
 10
5431.684457948053
 20
279.4895406890682
 10
5434.2575464546135
 20
271.27525497478246
 10
5435.978701216982
 20
271.27525497478246
 10
5438.551789723542
 20
260.3228740224015
 10
5440.267182061249
 20
260.3228740224015
 10
5442.840270567808
 20
249.3704930700206
 10
5444.555662905515
 20
249.3704930700206
 10
5447.128751412076
 20
238.41811211763965
 10
5448.838381325122
 20
238.41811211763965
 10
5450.156250134134
 20
234.2109692604968
 10
5448.838381325122
 20
230.00382640335397
 10
5446.976055391655
 20
230.00382640335397
 10
5446.191826020682
 20
232.50738743605362
 10
5445.4075966497085
 20
230.00382640335397
 10
5441.976811974295
 20
230.00382640335397
 10
5441.119115805442
 20
227.26573116525876
 10
5437.688331130028
 20
227.26573116525876
 10
5435.972938792321
 20
221.78954068906822
 10
5434.1106128588535
 20
221.78954068906822
 10
5433.326383487881
 20
224.2931017217679
 10
5432.542154116906
 20
221.78954068906822
 10
5429.1113694414935
 20
221.78954068906822
 10
5426.998453575092
 20
215.04430259383014
 10
5429.969065610347
 20
205.56096926049673
 10
5431.684457948053
 20
205.56096926049673
 10
5434.2575464546135
 20
197.346683546211
 10
5435.972938792321
 20
197.346683546211
 10
5437.688331130028
 20
191.87049307002061
 10
5440.2545583702895
 20
191.87049307002061
 10
5447.116127721116
 20
175.44192164144914
 10
5448.847870675888
 20
175.44192164144914
 10
5450.154349839429
 20
168.49061707644012
 10
5448.764914527242
 20
164.05500648367268
 10
5447.833751560509
 20
167.02763592716343
 10
5446.265292818562
 20
167.02763592716343
 10
5445.4075966497085
 20
164.28954068906822
 10
5441.976811974295
 20
164.28954068906822
 10
5441.119115805442
 20
161.55144545097303
 10
5437.688331130028
 20
161.55144545097303
 10
5436.830634961174
 20
158.8133502128777
 10
5424.822888597226
 20
158.8133502128777
 10
5423.965192428373
 20
156.0752549747825
 10
5420.534407752959
 20
156.0752549747825
 10
5419.676711584106
 20
153.33715973668728
 10
5416.245926908692
 20
153.33715973668728
 10
5415.314763941959
 20
150.36453029319654
 10
5414.383600975225
 20
153.33715973668728
 10
5411.957446064424
 20
153.33715973668728
 10
5411.099749895571
 20
150.5990644985921
 10
5407.6689652201585
 20
150.5990644985921
 10
5406.811269051304
 20
147.86096926049677
 10
5403.380484375891
 20
147.86096926049677
 10
5402.518189606318
 20
145.10819352458716
 10
5395.081427252098
 20
146.5047228570824
  0
LWPOLYLINE
  5
38
330
17
100
AcDbEntity
  8
Y
100
AcDbPolyline
 90
93
 70
1
 10
7944.408313185533
 20
73.93460608881675
 10
7942.648996076385
 20
76.67049307002067
 10
7909.1949905538295
 20
76.67049307002067
 10
7907.434253421065
 20
79.40858830811587
 10
7873.980247898509
 20
79.40858830811587
 10
7872.2195107657435
 20
82.14668354621114
 10
7840.526242375954
 20
82.14668354621114
 10
7838.765505243189
 20
84.88477878430639
 10
7805.311499720634
 20
84.88477878430639
 10
7803.550762587868
 20
87.6228740224016
 10
7770.096757065313
 20
87.6228740224016
 10
7768.336019932547
 20
90.36096926049677
 10
7734.882014409992
 20
90.36096926049677
 10
7733.121277277227
 20
93.0990644985921
 10
7699.667271754672
 20
93.0990644985921
 10
7697.906534621906
 20
95.8371597366873
 10
7692.6243232236075
 20
95.8371597366873
 10
7689.937803706341
 20
100.01492492399925
 10
7689.937803706341
 20
179.47844216842293
 10
7692.615955672268
 20
183.64319510532437
 10
7703.19825255217
 20
186.38592296209902
 10
7717.29492668921
 20
197.346683546211
 10
7724.4267639771615
 20
197.346683546211
 10
7726.160513383227
 20
194.6505565068826
 10
7745.469248844915
 20
208.29906449859206
 10
7752.586453348857
 20
208.29906449859206
 10
7757.868664747154
 20
202.82287402240155
 10
7775.462118729413
 20
202.82287402240155
 10
7784.265804393244
 20
197.346683546211
 10
7798.351701455373
 20
197.346683546211
 10
7807.198757282474
 20
191.84351536044213
 10
7814.2243577482295
 20
180.91811211763968
 10
7817.745832013761
 20
180.91811211763968
 10
7821.267306279293
 20
175.44192164144914
 10
7824.788780544825
 20
175.44192164144914
 10
7826.549517677591
 20
172.70382640335393
 10
7837.086382136307
 20
172.70382640335393
 10
7851.172279198436
 20
164.4895406890682
 10
7861.736701995032
 20
164.4895406890682
 10
7875.829616827698
 20
156.27116251464128
 10
7893.462735079019
 20
153.529063412042
 10
7896.144048239968
 20
149.35939454937534
 10
7896.144048239968
 20
105.54987073985147
 10
7898.685153939117
 20
101.59823634488288
 10
7901.226259638265
 20
105.54987073985147
 10
7901.226259638265
 20
152.09748978747052
 10
7903.912779155532
 20
156.27525497478248
 10
7907.446358173625
 20
156.27525497478248
 10
7917.999085474961
 20
167.21551093728164
 10
7926.792513321116
 20
169.95041582047247
 10
7928.567794300677
 20
172.71112797106184
 10
7949.696639893869
 20
169.97303273296663
 10
7951.452681740215
 20
172.70382640335393
 10
7962.126276900576
 20
172.70382640335393
 10
7963.887014033342
 20
169.96573116525875
 10
7972.581527333408
 20
169.96573116525875
 10
7974.342264466174
 20
172.70382640335393
 10
7985.015859626535
 20
172.70382640335393
 10
7986.776596759301
 20
169.96573116525875
 10
7993.710372926601
 20
169.96573116525875
 10
7998.066801940397
 20
176.74034693032772
 10
7998.066801940397
 20
220.54987073985146
 10
8000.753321457663
 20
224.72763592716342
 10
8006.144705219727
 20
224.72763592716342
 10
8007.905442352493
 20
221.9895406890682
 10
8025.512813680153
 20
221.9895406890682
 10
8027.273550812918
 20
219.251445450973
 10
8044.88092214058
 20
219.251445450973
 10
8046.635994259081
 20
216.5221597894416
 10
8064.243365586743
 20
219.2602550275369
 10
8066.012725059231
 20
216.50875132153527
 10
8097.701236346955
 20
213.77106706656582
 10
8109.193241304657
 20
198.64941768119718
 10
8109.193241304657
 20
184.89587730495174
 10
8105.6717670391245
 20
179.41968682876123
 10
8105.6717670391245
 20
157.51492492399936
 10
8102.9852475218595
 20
153.33715973668728
 10
8099.448594667838
 20
153.33715973668728
 10
8090.58616289446
 20
145.06806091947448
 10
8088.823849917902
 20
147.80860672801634
 10
8076.557615676931
 20
136.90858830811584
 10
8071.275404278632
 20
136.90858830811584
 10
8058.89131866088
 20
125.90384482325447
 10
8057.129695633936
 20
128.6433177017631
 10
8041.342076109006
 20
115.00382640335397
 10
8036.060661623312
 20
115.00382640335397
 10
8023.7477890567525
 20
104.0623642446519
 10
8014.958239443931
 20
101.32866555766398
 10
8010.591961869759
 20
94.53873444780884
 10
8010.591961869759
 20
80.90701359699437
 10
8014.132327499415
 20
75.40144545097299
 10
8011.425464528541
 20
71.19204447180365
 10
7944.408313185533
 20
73.93460608881675
  0
LWPOLYLINE
  5
39
330
17
100
AcDbEntity
  8
Y
100
AcDbPolyline
 90
45
 70
1
 10
7990.179849587203
 20
273.8274222884862
 10
7986.657575835161
 20
279.3048560338545
 10
7969.063123829857
 20
284.77702838214094
 10
7960.271545992535
 20
292.98001687954434
 10
7954.9893345942355
 20
292.98001687954434
 10
7946.17676342581
 20
301.202593220762
 10
7933.8380417120225
 20
303.9437012763435
 10
7929.376548813415
 20
310.88170027298
 10
7942.65325992138
 20
328.77525497478246
 10
7944.409733209151
 20
328.77525497478246
 10
7957.550956522657
 20
349.21096926049677
 10
7953.193135266104
 20
355.98775008086346
 10
7946.190753948794
 20
361.43239783192536
 10
7940.888258943619
 20
361.43239783192536
 10
7937.366784678088
 20
366.9085883081158
 10
7932.098043993941
 20
366.9085883081158
 10
7922.355105231458
 20
376.5501937336451
 10
7922.355105231458
 20
387.51492492399933
 10
7918.833630965927
 20
392.9911154001898
 10
7918.833630965927
 20
417.6339725430469
 10
7917.0613188530215
 20
420.39006785475306
 10
7919.730697721019
 20
427.30858456679897
 10
7923.301171222836
 20
430.0847787843063
 10
7930.323836147022
 20
430.0847787843063
 10
7932.084573279789
 20
432.8228740224015
 10
7939.236694174619
 20
432.8228740224015
 10
7942.758168440149
 20
427.34668354621107
 10
7953.3104864841835
 20
427.34668354621107
 10
7958.598830668536
 20
421.86413506916773
 10
7976.206201996196
 20
419.12603983107255
 10
7981.48228060844
 20
413.6562073557348
 10
7990.285966272272
 20
413.6562073557348
 10
7995.56817767057
 20
408.18001687954444
 10
8006.1371932751035
 20
408.18001687954444
 10
8014.1134361352915
 20
398.5326692930868
 10
8014.1134361352915
 20
349.24506658998547
 10
8024.677858931888
 20
335.5545903995092
 10
8024.677858931888
 20
316.38320407318463
 10
8028.199333197419
 20
310.90701359699426
 10
8028.199333197419
 20
286.19879303743033
 10
8020.165906351465
 20
276.4822808334019
 10
8018.390322370953
 20
279.2434641761077
 10
8014.968674490435
 20
276.5829881761016
 10
8009.655648480432
 20
268.3207831330301
 10
7990.179849587203
 20
273.8274222884862
  0
LWPOLYLINE
  5
3A
330
17
100
AcDbEntity
  8
Y
100
AcDbPolyline
 90
37
 70
1
 10
7953.206150172449
 20
747.515129847772
 10
7951.452681740215
 20
750.241921641449
 10
7944.409733209151
 20
750.241921641449
 10
7942.648996076385
 20
752.9800168795445
 10
7935.632069643284
 20
752.9800168795445
 10
7926.828383979454
 20
758.4562073557348
 10
7919.759413350426
 20
758.4562073557348
 10
7917.998676217661
 20
761.19430259383
 10
7910.96239420843
 20
761.19430259383
 10
7902.1587085446
 20
772.1466835462111
 10
7896.869830624469
 20
772.1466835462111
 10
7893.348356358936
 20
777.6228740224014
 10
7888.066144960639
 20
777.6228740224014
 10
7882.783933562339
 20
785.8371597366872
 10
7879.272518259106
 20
785.8371597366872
 10
7873.0290478538045
 20
792.7722488892505
 10
7875.770614616905
 20
797.0356172020287
 10
7879.307471479796
 20
794.2855613436366
 10
7884.615016014389
 20
799.7880152669438
 10
7886.375753147156
 20
797.0499200288486
 10
7891.632631409157
 20
802.4998470579224
 10
7895.138723077332
 20
799.7737124401239
 10
7896.869830624469
 20
802.4657311652586
 10
7900.500477253766
 20
802.4657311652586
 10
7902.206628204648
 20
799.8125220591684
 10
7903.906356723978
 20
802.4557437407163
 10
7918.003199677534
 20
805.1959667022405
 10
7923.351232935242
 20
810.7403962193248
 10
7925.150797112489
 20
807.9419216414491
 10
7933.845310412555
 20
807.9419216414491
 10
7935.670269042551
 20
810.7798867422721
 10
7942.784537774232
 20
796.950774367794
 10
7947.192663626548
 20
792.8377691336104
 10
7950.719324115357
 20
781.8692581491042
 10
7968.35019579501
 20
748.968261248774
 10
7965.639556146038
 20
744.7529872155709
 10
7953.206150172449
 20
747.515129847772
  0
LWPOLYLINE
  5
3B
330
17
100
AcDbEntity
  8
Y
100
AcDbPolyline
 90
25
 70
1
 10
9358.646022892204
 20
824.1731136343769
 10
9351.09466286481
 20
831.07163965132
 10
9351.09466286481
 20
850.2543784987321
 10
9347.764427635917
 20
855.7305689749224
 10
9347.764427635917
 20
899.5961314508328
 10
9350.317919012534
 20
903.7950556098078
 10
9358.753969697396
 20
901.0206317483162
 10
9360.41142961178
 20
898.2951287210614
 10
9398.709134744047
 20
895.5570334829662
 10
9402.054500976397
 20
890.0559618042965
 10
9410.380089048629
 20
884.5797713281062
 10
9415.375441891969
 20
876.3654856138204
 10
9423.69677653769
 20
870.8920928467581
 10
9441.231647508646
 20
847.5502126289275
 10
9435.354637475797
 20
837.8861426283643
 10
9430.359284632457
 20
835.148047390269
 10
9422.018387882255
 20
821.4323978319252
 10
9408.584994159735
 20
821.4323978319252
 10
9406.043544141541
 20
825.6115213558749
 10
9406.043544141541
 20
869.4210451653988
 10
9403.64586771987
 20
873.363749473917
 10
9401.2481912982
 20
869.4210451653988
 10
9401.2481912982
 20
825.6115213558749
 10
9398.70435535219
 20
821.4284744468524
 10
9358.646022892204
 20
824.1731136343769
  0
ENDSEC
  0
SECTION
  2
OBJECTS
  0
DICTIONARY
  5
A
330
0
100
AcDbDictionary
281
1
  3
ACAD_COLOR
350
B
  3
ACAD_GROUP
350
C
  3
ACAD_LAYOUT
350
D
  3
ACAD_MATERIAL
350
E
  3
ACAD_MLEADERSTYLE
350
F
  3
ACAD_MLINESTYLE
350
10
  3
ACAD_PLOTSETTINGS
350
11
  3
ACAD_PLOTSTYLENAME
350
12
  3
ACAD_SCALELIST
350
14
  3
ACAD_TABLESTYLE
350
15
  3
ACAD_VISUALSTYLE
350
16
  3
EZDXF_META
350
2D
  0
DICTIONARY
  5
B
330
A
100
AcDbDictionary
281
1
  0
DICTIONARY
  5
C
330
A
100
AcDbDictionary
281
1
  0
DICTIONARY
  5
D
330
A
100
AcDbDictionary
281
1
  3
Model
350
1A
  3
Layout1
350
1E
  0
DICTIONARY
  5
E
330
A
100
AcDbDictionary
281
1
  3
ByBlock
350
1F
  3
ByLayer
350
20
  3
Global
350
21
  0
DICTIONARY
  5
F
330
A
100
AcDbDictionary
281
1
  3
Standard
350
2C
  0
DICTIONARY
  5
10
330
A
100
AcDbDictionary
281
1
  3
Standard
350
22
  0
DICTIONARY
  5
11
330
A
100
AcDbDictionary
281
1
  0
ACDBDICTIONARYWDFLT
  5
12
330
A
100
AcDbDictionary
281
1
  3
Normal
350
13
100
AcDbDictionaryWithDefault
340
13
  0
ACDBPLACEHOLDER
  5
13
330
12
  0
DICTIONARY
  5
14
330
A
100
AcDbDictionary
281
1
  0
DICTIONARY
  5
15
330
A
100
AcDbDictionary
281
1
  0
DICTIONARY
  5
16
330
A
100
AcDbDictionary
281
1
  0
LAYOUT
  5
1A
330
D
100
AcDbPlotSettings
  1

  4
A3
  6

 40
7.5
 41
20.0
 42
7.5
 43
20.0
 44
420.0
 45
297.0
 46
0.0
 47
0.0
 48
0.0
 49
0.0
140
0.0
141
0.0
142
1.0
143
1.0
 70
1024
 72
1
 73
0
 74
5
  7

 75
16
 76
0
 77
2
 78
300
147
1.0
148
0.0
149
0.0
100
AcDbLayout
  1
Model
 70
1
 71
0
 10
0.0
 20
0.0
 11
420.0
 21
297.0
 12
0.0
 22
0.0
 32
0.0
 14
1e+20
 24
1e+20
 34
1e+20
 15
-1e+20
 25
-1e+20
 35
-1e+20
146
0.0
 13
0.0
 23
0.0
 33
0.0
 16
1.0
 26
0.0
 36
0.0
 17
0.0
 27
1.0
 37
0.0
 76
1
330
17
  0
LAYOUT
  5
1E
330
D
100
AcDbPlotSettings
  1

  4
A3
  6

 40
7.5
 41
20.0
 42
7.5
 43
20.0
 44
420.0
 45
297.0
 46
0.0
 47
0.0
 48
0.0
 49
0.0
140
0.0
141
0.0
142
1.0
143
1.0
 70
0
 72
1
 73
0
 74
5
  7

 75
16
 76
0
 77
2
 78
300
147
1.0
148
0.0
149
0.0
100
AcDbLayout
  1
Layout1
 70
1
 71
1
 10
0.0
 20
0.0
 11
420.0
 21
297.0
 12
0.0
 22
0.0
 32
0.0
 14
1e+20
 24
1e+20
 34
1e+20
 15
-1e+20
 25
-1e+20
 35
-1e+20
146
0.0
 13
0.0
 23
0.0
 33
0.0
 16
1.0
 26
0.0
 36
0.0
 17
0.0
 27
1.0
 37
0.0
 76
1
330
1B
  0
MATERIAL
  5
1F
102
{ACAD_REACTORS
330
E
102
}
330
E
100
AcDbMaterial
  1
ByBlock
  2

 70
0
 40
1.0
 71
1
 41
1.0
 91
-1023410177
 42
1.0
 72
1
  3

 73
1
 74
1
 75
1
 44
0.5
 73
0
 45
1.0
 46
1.0
 77
1
  4

 78
1
 79
1
170
1
 48
1.0
171
1
  6

172
1
173
1
174
1
140
1.0
141
1.0
175
1
  7

176
1
177
1
178
1
143
1.0
179
1
  8

270
1
271
1
272
1
145
1.0
146
1.0
273
1
  9

274
1
275
1
276
1
 42
1.0
 72
1
  3

 73
1
 74
1
 75
1
 94
63
  0
MATERIAL
  5
20
102
{ACAD_REACTORS
330
E
102
}
330
E
100
AcDbMaterial
  1
ByLayer
  2

 70
0
 40
1.0
 71
1
 41
1.0
 91
-1023410177
 42
1.0
 72
1
  3

 73
1
 74
1
 75
1
 44
0.5
 73
0
 45
1.0
 46
1.0
 77
1
  4

 78
1
 79
1
170
1
 48
1.0
171
1
  6

172
1
173
1
174
1
140
1.0
141
1.0
175
1
  7

176
1
177
1
178
1
143
1.0
179
1
  8

270
1
271
1
272
1
145
1.0
146
1.0
273
1
  9

274
1
275
1
276
1
 42
1.0
 72
1
  3

 73
1
 74
1
 75
1
 94
63
  0
MATERIAL
  5
21
102
{ACAD_REACTORS
330
E
102
}
330
E
100
AcDbMaterial
  1
Global
  2

 70
0
 40
1.0
 71
1
 41
1.0
 91
-1023410177
 42
1.0
 72
1
  3

 73
1
 74
1
 75
1
 44
0.5
 73
0
 45
1.0
 46
1.0
 77
1
  4

 78
1
 79
1
170
1
 48
1.0
171
1
  6

172
1
173
1
174
1
140
1.0
141
1.0
175
1
  7

176
1
177
1
178
1
143
1.0
179
1
  8

270
1
271
1
272
1
145
1.0
146
1.0
273
1
  9

274
1
275
1
276
1
 42
1.0
 72
1
  3

 73
1
 74
1
 75
1
 94
63
  0
MLINESTYLE
  5
22
102
{ACAD_REACTORS
330
10
102
}
330
10
100
AcDbMlineStyle
  2
Standard
 70
0
  3

 62
256
 51
90.0
 52
90.0
 71
2
 49
0.5
 62
256
  6
BYLAYER
 49
-0.5
 62
256
  6
BYLAYER
  0
MLEADERSTYLE
  5
2C
102
{ACAD_REACTORS
330
F
102
}
330
F
100
AcDbMLeaderStyle
179
2
170
2
171
1
172
0
 90
2
 40
0.0
 41
0.0
173
1
 91
-1056964608
 92
-2
290
1
 42
2.0
291
1
 43
8.0
  3
Standard
 44
4.0
300

342
29
174
1
175
1
176
0
178
1
 93
-1056964608
 45
4.0
292
0
297
0
 46
4.0
 94
-1056964608
 47
1.0
 49
1.0
140
1.0
294
1
141
0.0
177
0
142
1.0
295
0
296
0
143
3.75
271
0
272
9
273
9
  0
DICTIONARY
  5
2D
330
A
100
AcDbDictionary
280
1
281
1
  3
CREATED_BY_EZDXF
350
2E
  3
WRITTEN_BY_EZDXF
350
3E
  0
DICTIONARYVAR
  5
2E
330
2D
100
DictionaryVariables
280
0
  1
1.4.4 @ 2026-07-14T08:49:52.981088+00:00
  0
DICTIONARYVAR
  5
3E
330
2D
100
DictionaryVariables
280
0
  1
1.4.4 @ 2026-07-14T08:49:52.985101+00:00
  0
ENDSEC
  0
EOF
