  0
SECTION
  2
HEADER
  9
$ACADVER
  1
AC1027
  9
$ACADMAINTVER
 70
105
  9
$DWGCODEPAGE
  3
ANSI_1252
  9
$LASTSAVEDBY
  1
ezdxf
  9
$REQUIREDVERSIONS
160
0
  9
$INSBASE
 10
0.0
 20
0.0
 30
0.0
  9
$EXTMIN
 10
1e+20
 20
1e+20
 30
1e+20
  9
$EXTMAX
 10
-1e+20
 20
-1e+20
 30
-1e+20
  9
$LIMMIN
 10
0.0
 20
0.0
  9
$LIMMAX
 10
420.0
 20
297.0
  9
$ORTHOMODE
 70
0
  9
$REGENMODE
 70
1
  9
$FILLMODE
 70
1
  9
$QTEXTMODE
 70
0
  9
$MIRRTEXT
 70
1
  9
$LTSCALE
 40
1.0
  9
$ATTMODE
 70
1
  9
$TEXTSIZE
 40
2.5
  9
$TRACEWID
 40
1.0
  9
$TEXTSTYLE
  7
Standard
  9
$CLAYER
  8
0
  9
$CELTYPE
  6
ByLayer
  9
$CECOLOR
 62
256
  9
$CELTSCALE
 40
1.0
  9
$DISPSILH
 70
0
  9
$DIMSCALE
 40
1.0
  9
$DIMASZ
 40
2.5
  9
$DIMEXO
 40
0.625
  9
$DIMDLI
 40
3.75
  9
$DIMRND
 40
0.0
  9
$DIMDLE
 40
0.0
  9
$DIMEXE
 40
1.25
  9
$DIMTP
 40
0.0
  9
$DIMTM
 40
0.0
  9
$DIMTXT
 40
2.5
  9
$DIMCEN
 40
2.5
  9
$DIMTSZ
 40
0.0
  9
$DIMTOL
 70
0
  9
$DIMLIM
 70
0
  9
$DIMTIH
 70
0
  9
$DIMTOH
 70
0
  9
$DIMSE1
 70
0
  9
$DIMSE2
 70
0
  9
$DIMTAD
 70
1
  9
$DIMZIN
 70
8
  9
$DIMBLK
  1

  9
$DIMASO
 70
1
  9
$DIMSHO
 70
1
  9
$DIMPOST
  1

  9
$DIMAPOST
  1

  9
$DIMALT
 70
0
  9
$DIMALTD
 70
3
  9
$DIMALTF
 40
0.03937007874
  9
$DIMLFAC
 40
1.0
  9
$DIMTOFL
 70
1
  9
$DIMTVP
 40
0.0
  9
$DIMTIX
 70
0
  9
$DIMSOXD
 70
0
  9
$DIMSAH
 70
0
  9
$DIMBLK1
  1

  9
$DIMBLK2
  1

  9
$DIMSTYLE
  2
ISO-25
  9
$DIMCLRD
 70
0
  9
$DIMCLRE
 70
0
  9
$DIMCLRT
 70
0
  9
$DIMTFAC
 40
1.0
  9
$DIMGAP
 40
0.625
  9
$DIMJUST
 70
0
  9
$DIMSD1
 70
0
  9
$DIMSD2
 70
0
  9
$DIMTOLJ
 70
0
  9
$DIMTZIN
 70
8
  9
$DIMALTZ
 70
0
  9
$DIMALTTZ
 70
0
  9
$DIMUPT
 70
0
  9
$DIMDEC
 70
2
  9
$DIMTDEC
 70
2
  9
$DIMALTU
 70
2
  9
$DIMALTTD
 70
3
  9
$DIMTXSTY
  7
Standard
  9
$DIMAUNIT
 70
0
  9
$DIMADEC
 70
0
  9
$DIMALTRND
 40
0.0
  9
$DIMAZIN
 70
0
  9
$DIMDSEP
 70
44
  9
$DIMATFIT
 70
3
  9
$DIMFRAC
 70
0
  9
$DIMLDRBLK
  1

  9
$DIMLUNIT
 70
2
  9
$DIMLWD
 70
-2
  9
$DIMLWE
 70
-2
  9
$DIMTMOVE
 70
0
  9
$DIMFXL
 40
1.0
  9
$DIMFXLON
 70
0
  9
$DIMJOGANG
 40
0.785398163397
  9
$DIMTFILL
 70
0
  9
$DIMTFILLCLR
 70
0
  9
$DIMARCSYM
 70
0
  9
$DIMLTYPE
  6

  9
$DIMLTEX1
  6

  9
$DIMLTEX2
  6

  9
$DIMTXTDIRECTION
 70
0
  9
$LUNITS
 70
2
  9
$LUPREC
 70
4
  9
$SKETCHINC
 40
1.0
  9
$FILLETRAD
 40
10.0
  9
$AUNITS
 70
0
  9
$AUPREC
 70
2
  9
$MENU
  1
.
  9
$ELEVATION
 40
0.0
  9
$PELEVATION
 40
0.0
  9
$THICKNESS
 40
0.0
  9
$LIMCHECK
 70
0
  9
$CHAMFERA
 40
0.0
  9
$CHAMFERB
 40
0.0
  9
$CHAMFERC
 40
0.0
  9
$CHAMFERD
 40
0.0
  9
$SKPOLY
 70
0
  9
$TDCREATE
 40
2461243.464953704
  9
$TDUCREATE
 40
2458532.153996898
  9
$TDUPDATE
 40
2461243.464953704
  9
$TDUUPDATE
 40
2458532.1544311
  9
$TDINDWG
 40
0.0
  9
$TDUSRTIMER
 40
0.0
  9
$USRTIMER
 70
1
  9
$ANGBASE
 50
0.0
  9
$ANGDIR
 70
0
  9
$PDMODE
 70
0
  9
$PDSIZE
 40
0.0
  9
$PLINEWID
 40
0.0
  9
$SPLFRAME
 70
0
  9
$SPLINETYPE
 70
6
  9
$SPLINESEGS
 70
8
  9
$HANDSEED
  5
49
  9
$SURFTAB1
 70
6
  9
$SURFTAB2
 70
6
  9
$SURFTYPE
 70
6
  9
$SURFU
 70
6
  9
$SURFV
 70
6
  9
$UCSBASE
  2

  9
$UCSNAME
  2

  9
$UCSORG
 10
0.0
 20
0.0
 30
0.0
  9
$UCSXDIR
 10
1.0
 20
0.0
 30
0.0
  9
$UCSYDIR
 10
0.0
 20
1.0
 30
0.0
  9
$UCSORTHOREF
  2

  9
$UCSORTHOVIEW
 70
0
  9
$UCSORGTOP
 10
0.0
 20
0.0
 30
0.0
  9
$UCSORGBOTTOM
 10
0.0
 20
0.0
 30
0.0
  9
$UCSORGLEFT
 10
0.0
 20
0.0
 30
0.0
  9
$UCSORGRIGHT
 10
0.0
 20
0.0
 30
0.0
  9
$UCSORGFRONT
 10
0.0
 20
0.0
 30
0.0
  9
$UCSORGBACK
 10
0.0
 20
0.0
 30
0.0
  9
$PUCSBASE
  2

  9
$PUCSNAME
  2

  9
$PUCSORG
 10
0.0
 20
0.0
 30
0.0
  9
$PUCSXDIR
 10
1.0
 20
0.0
 30
0.0
  9
$PUCSYDIR
 10
0.0
 20
1.0
 30
0.0
  9
$PUCSORTHOREF
  2

  9
$PUCSORTHOVIEW
 70
0
  9
$PUCSORGTOP
 10
0.0
 20
0.0
 30
0.0
  9
$PUCSORGBOTTOM
 10
0.0
 20
0.0
 30
0.0
  9
$PUCSORGLEFT
 10
0.0
 20
0.0
 30
0.0
  9
$PUCSORGRIGHT
 10
0.0
 20
0.0
 30
0.0
  9
$PUCSORGFRONT
 10
0.0
 20
0.0
 30
0.0
  9
$PUCSORGBACK
 10
0.0
 20
0.0
 30
0.0
  9
$USERI1
 70
0
  9
$USERI2
 70
0
  9
$USERI3
 70
0
  9
$USERI4
 70
0
  9
$USERI5
 70
0
  9
$USERR1
 40
0.0
  9
$USERR2
 40
0.0
  9
$USERR3
 40
0.0
  9
$USERR4
 40
0.0
  9
$USERR5
 40
0.0
  9
$WORLDVIEW
 70
1
  9
$SHADEDGE
 70
3
  9
$SHADEDIF
 70
70
  9
$TILEMODE
 70
1
  9
$MAXACTVP
 70
64
  9
$PINSBASE
 10
0.0
 20
0.0
 30
0.0
  9
$PLIMCHECK
 70
0
  9
$PEXTMIN
 10
1e+20
 20
1e+20
 30
1e+20
  9
$PEXTMAX
 10
-1e+20
 20
-1e+20
 30
-1e+20
  9
$PLIMMIN
 10
0.0
 20
0.0
  9
$PLIMMAX
 10
420.0
 20
297.0
  9
$UNITMODE
 70
0
  9
$VISRETAIN
 70
1
  9
$PLINEGEN
 70
0
  9
$PSLTSCALE
 70
1
  9
$TREEDEPTH
 70
3020
  9
$CMLSTYLE
  2
Standard
  9
$CMLJUST
 70
0
  9
$CMLSCALE
 40
20.0
  9
$PROXYGRAPHICS
 70
1
  9
$MEASUREMENT
 70
1
  9
$CELWEIGHT
370
-1
  9
$ENDCAPS
280
0
  9
$JOINSTYLE
280
0
  9
$LWDISPLAY
290
0
  9
$INSUNITS
 70
4
  9
$HYPERLINKBASE
  1

  9
$STYLESHEET
  1

  9
$XEDIT
290
1
  9
$CEPSNTYPE
380
0
  9
$PSTYLEMODE
290
1
  9
$FINGERPRINTGUID
  2
{DE302836-B949-4183-8F1C-348B74BE7207}
  9
$VERSIONGUID
  2
{46C9A284-6FEC-48FB-8802-0410F385562E}
  9
$EXTNAMES
290
1
  9
$PSVPSCALE
 40
0.0
  9
$OLESTARTUP
290
0
  9
$SORTENTS
280
127
  9
$INDEXCTL
280
0
  9
$HIDETEXT
280
1
  9
$XCLIPFRAME
280
1
  9
$HALOGAP
280
0
  9
$OBSCOLOR
 70
257
  9
$OBSLTYPE
280
0
  9
$INTERSECTIONDISPLAY
280
0
  9
$INTERSECTIONCOLOR
 70
257
  9
$DIMASSOC
280
2
  9
$PROJECTNAME
  1

  9
$CAMERADISPLAY
290
0
  9
$LENSLENGTH
 40
50.0
  9
$CAMERAHEIGHT
 40
0.0
  9
$STEPSPERSEC
 40
24.0
  9
$STEPSIZE
 40
100.0
  9
$3DDWFPREC
 40
2.0
  9
$PSOLWIDTH
 40
0.005
  9
$PSOLHEIGHT
 40
0.08
  9
$LOFTANG1
 40
1.570796326795
  9
$LOFTANG2
 40
1.570796326795
  9
$LOFTMAG1
 40
0.0
  9
$LOFTMAG2
 40
0.0
  9
$LOFTPARAM
 70
7
  9
$LOFTNORMALS
280
1
  9
$LATITUDE
 40
37.795
  9
$LONGITUDE
 40
-122.394
  9
$NORTHDIRECTION
 40
0.0
  9
$TIMEZONE
 70
-8000
  9
$LIGHTGLYPHDISPLAY
280
1
  9
$TILEMODELIGHTSYNCH
280
1
  9
$CMATERIAL
347
20
  9
$SOLIDHIST
280
0
  9
$SHOWHIST
280
1
  9
$DWFFRAME
280
2
  9
$DGNFRAME
280
2
  9
$REALWORLDSCALE
290
1
  9
$INTERFERECOLOR
 62
256
  9
$CSHADOW
280
0
  9
$SHADOWPLANELOCATION
 40
0.0
  0
ENDSEC
  0
SECTION
  2
CLASSES
  0
CLASS
  1
ACDBDICTIONARYWDFLT
  2
AcDbDictionaryWithDefault
  3
ObjectDBX Classes
 90
0
 91
0
280
0
281
0
  0
CLASS
  1
SUN
  2
AcDbSun
  3
SCENEOE
 90
1153
 91
0
280
0
281
0
  0
CLASS
  1
VISUALSTYLE
  2
AcDbVisualStyle
  3
ObjectDBX Classes
 90
4095
 91
0
280
0
281
0
  0
CLASS
  1
MATERIAL
  2
AcDbMaterial
  3
ObjectDBX Classes
 90
1153
 91
0
280
0
281
0
  0
CLASS
  1
SCALE
  2
AcDbScale
  3
ObjectDBX Classes
 90
1153
 91
0
280
0
281
0
  0
CLASS
  1
TABLESTYLE
  2
AcDbTableStyle
  3
ObjectDBX Classes
 90
4095
 91
0
280
0
281
0
  0
CLASS
  1
MLEADERSTYLE
  2
AcDbMLeaderStyle
  3
ACDB_MLEADERSTYLE_CLASS
 90
4095
 91
0
280
0
281
0
  0
CLASS
  1
DICTIONARYVAR
  2
AcDbDictionaryVar
  3
ObjectDBX Classes
 90
0
 91
0
280
0
281
0
  0
CLASS
  1
CELLSTYLEMAP
  2
AcDbCellStyleMap
  3
ObjectDBX Classes
 90
1152
 91
0
280
0
281
0
  0
CLASS
  1
MENTALRAYRENDERSETTINGS
  2
AcDbMentalRayRenderSettings
  3
SCENEOE
 90
1024
 91
0
280
0
281
0
  0
CLASS
  1
ACDBDETAILVIEWSTYLE
  2
AcDbDetailViewStyle
  3
ObjectDBX Classes
 90
1025
 91
0
280
0
281
0
  0
CLASS
  1
ACDBSECTIONVIEWSTYLE
  2
AcDbSectionViewStyle
  3
ObjectDBX Classes
 90
1025
 91
0
280
0
281
0
  0
CLASS
  1
RASTERVARIABLES
  2
AcDbRasterVariables
  3
ISM
 90
0
 91
0
280
0
281
0
  0
CLASS
  1
LAYOUT
  2
AcDbLayout
  3
ObjectDBX Classes
 90
0
 91
0
280
0
281
0
  0
CLASS
  1
ACDBPLACEHOLDER
  2
AcDbPlaceHolder
  3
ObjectDBX Classes
 90
0
 91
0
280
0
281
0
  0
ENDSEC
  0
SECTION
  2
TABLES
  0
TABLE
  2
VPORT
  5
8
330
0
100
AcDbSymbolTable
 70
1
  0
VPORT
  5
23
330
8
100
AcDbSymbolTableRecord
100
AcDbViewportTableRecord
  2
*Active
 70
0
 10
0.0
 20
0.0
 11
1.0
 21
1.0
 12
0.0
 22
0.0
 13
0.0
 23
0.0
 14
0.5
 24
0.5
 15
0.5
 25
0.5
 16
0.0
 26
0.0
 36
1.0
 17
0.0
 27
0.0
 37
0.0
 40
1000.0
 41
1.34
 42
50.0
 43
0.0
 44
0.0
 50
0.0
 51
0.0
 71
0
 72
1000
 73
1
 74
3
 75
0
 76
0
 77
0
 78
0
281
0
 65
0
146
0.0
  0
ENDTAB
  0
TABLE
  2
LTYPE
  5
2
330
0
100
AcDbSymbolTable
 70
3
  0
LTYPE
  5
24
330
2
100
AcDbSymbolTableRecord
100
AcDbLinetypeTableRecord
  2
ByBlock
 70
0
  3

 72
65
 73
0
 40
0.0
  0
LTYPE
  5
25
330
2
100
AcDbSymbolTableRecord
100
AcDbLinetypeTableRecord
  2
ByLayer
 70
0
  3

 72
65
 73
0
 40
0.0
  0
LTYPE
  5
26
330
2
100
AcDbSymbolTableRecord
100
AcDbLinetypeTableRecord
  2
Continuous
 70
0
  3

 72
65
 73
0
 40
0.0
  0
ENDTAB
  0
TABLE
  2
LAYER
  5
1
330
0
100
AcDbSymbolTable
 70
3
  0
LAYER
  5
27
330
1
100
AcDbSymbolTableRecord
100
AcDbLayerTableRecord
  2
0
 70
0
 62
7
  6
Continuous
370
-3
390
13
347
21
  0
LAYER
  5
28
330
1
100
AcDbSymbolTableRecord
100
AcDbLayerTableRecord
  2
Defpoints
 70
0
 62
7
  6
Continuous
290
0
370
-3
390
13
347
21
  0
LAYER
  5
2F
330
1
100
AcDbSymbolTableRecord
100
AcDbLayerTableRecord
  2
C
 70
0
 62
7
  6
Continuous
370
-3
390
13
347
21
  0
ENDTAB
  0
TABLE
  2
STYLE
  5
5
330
0
100
AcDbSymbolTable
 70
1
  0
STYLE
  5
29
330
5
100
AcDbSymbolTableRecord
100
AcDbTextStyleTableRecord
  2
Standard
 70
0
 40
0.0
 41
1.0
 50
0.0
 71
0
 42
2.5
  3
txt
  4

  0
ENDTAB
  0
TABLE
  2
VIEW
  5
7
330
0
100
AcDbSymbolTable
 70
0
  0
ENDTAB
  0
TABLE
  2
UCS
  5
6
330
0
100
AcDbSymbolTable
 70
0
  0
ENDTAB
  0
TABLE
  2
APPID
  5
3
330
0
100
AcDbSymbolTable
 70
3
  0
APPID
  5
2A
330
3
100
AcDbSymbolTableRecord
100
AcDbRegAppTableRecord
  2
ACAD
 70
0
  0
APPID
  5
46
330
3
100
AcDbSymbolTableRecord
100
AcDbRegAppTableRecord
  2
HATCHBACKGROUNDCOLOR
 70
0
  0
APPID
  5
47
330
3
100
AcDbSymbolTableRecord
100
AcDbRegAppTableRecord
  2
EZDXF
 70
0
  0
ENDTAB
  0
TABLE
  2
DIMSTYLE
  5
4
330
0
100
AcDbSymbolTable
 70
1
100
AcDbDimStyleTable
  0
DIMSTYLE
105
2B
330
4
100
AcDbSymbolTableRecord
100
AcDbDimStyleTableRecord
  2
Standard
 70
0
 40
1.0
 41
2.5
 42
0.625
 43
3.75
 44
1.25
 45
0.0
 46
0.0
 47
0.0
 48
0.0
 49
2.5
140
2.5
141
2.5
142
0.0
143
0.03937007874
144
1.0
145
0.0
146
1.0
147
0.625
148
0.0
 69
0
 70
0
 71
0
 72
0
 73
0
 74
0
 75
0
 76
0
 77
1
 78
8
 79
3
170
0
171
3
172
1
173
0
174
0
175
0
176
0
177
0
178
0
179
2
271
2
272
2
273
2
274
3
275
0
276
0
277
2
278
44
279
0
280
0
281
0
282
0
283
0
284
8
285
0
286
0
288
0
289
3
290
0
371
-2
372
-2
  0
ENDTAB
  0
TABLE
  2
BLOCK_RECORD
  5
9
330
0
100
AcDbSymbolTable
 70
2
  0
BLOCK_RECORD
  5
17
330
9
100
AcDbSymbolTableRecord
100
AcDbBlockTableRecord
  2
*Model_Space
340
1A
 70
0
280
1
281
0
  0
BLOCK_RECORD
  5
1B
330
9
100
AcDbSymbolTableRecord
100
AcDbBlockTableRecord
  2
*Paper_Space
340
1E
 70
0
280
1
281
0
  0
ENDTAB
  0
ENDSEC
  0
SECTION
  2
BLOCKS
  0
BLOCK
  5
18
330
17
100
AcDbEntity
  8
0
100
AcDbBlockBegin
  2
*Model_Space
 70
0
 10
0.0
 20
0.0
 30
0.0
  3
*Model_Space
  1

  0
ENDBLK
  5
19
330
17
100
AcDbEntity
  8
0
100
AcDbBlockEnd
  0
BLOCK
  5
1C
330
1B
100
AcDbEntity
  8
0
100
AcDbBlockBegin
  2
*Paper_Space
 70
0
 10
0.0
 20
0.0
 30
0.0
  3
*Paper_Space
  1

  0
ENDBLK
  5
1D
330
1B
100
AcDbEntity
  8
0
100
AcDbBlockEnd
  0
ENDSEC
  0
SECTION
  2
ENTITIES
  0
LWPOLYLINE
  5
30
330
17
100
AcDbEntity
  8
C
100
AcDbPolyline
 90
64
 70
1
 10
4.215381767296966
 20
33.09411514200378
 10
10.882048433963565
 20
35.832210380098985
 10
14.227536231883997
 20
41.32836890525371
 10
17.560869565217185
 20
41.32836890525371
 10
19.239570704430832
 20
44.0862350625334
 10
27.572904037764133
 20
41.34813982443808
 10
32.56086956521731
 20
49.54265461953944
 10
35.894202898550716
 20
49.54265461953944
 10
39.22095945952408
 20
55.00804039828178
 10
52.665894583608704
 20
57.76905386126341
 10
54.33993470175924
 20
55.018845095729965
 10
57.56086956521722
 20
55.018845095729965
 10
59.227536231883924
 20
57.75694033382517
 10
62.65287463434599
 20
57.75694033382517
 10
65.92487125492674
 20
55.06922882406262
 10
74.25820458826004
 20
68.75970501453877
 10
80.98620796767952
 20
63.233130810015695
 10
87.56086956521725
 20
63.233130810015695
 10
90.90415179887023
 20
68.7256659081601
 10
100.89591076799364
 20
65.98982714280498
 10
106.67028248648913
 20
78.18671434411684
 10
105.0036158198222
 20
80.92480958221205
 10
110.89778016356178
 20
93.37472814500936
 10
119.23957070443069
 20
90.63385411015246
 10
124.22753623188387
 20
98.82836890525371
 10
127.67326803509272
 20
98.82836890525371
 10
129.2837354668217
 20
96.18260098169917
 10
132.5608695652174
 20
101.56646414334902
 10
135.98620796767946
 20
101.56646414334902
 10
145.9248712549268
 20
93.40256215739595
 10
150.9504021334882
 20
101.65879145788969
 10
153.55040213348815
 20
97.38736288646122
 10
153.55040213348815
 20
80.95498927858313
 10
162.67804830124533
 20
63.233130810015695
 10
164.33993470175935
 20
63.233130810015695
 10
171.8924442858889
 20
50.82543649323179
 10
170.22577761922219
 20
45.34924601704127
 10
172.6044252579617
 20
41.44146775339752
 10
177.60442525796182
 20
52.39384870577857
 10
179.28373546682153
 20
49.634981934080116
 10
180.95040213348847
 20
52.37307717217543
 10
182.65021430297358
 20
49.58052860802109
 10
195.87748202728727
 20
57.72947033103581
 10
199.22753623188382
 20
63.233130810015695
 10
207.58126296596367
 20
63.233130810015695
 10
210.97593301204975
 20
66.02160977644355
 10
213.5504021334882
 20
61.79212479122309
 10
213.5504021334882
 20
26.140803495474984
 10
211.00660136842598
 20
21.961702238587065
 10
152.5608695652172
 20
21.961702238587065
 10
149.22753623188402
 20
27.43789271477759
 10
142.6732680350926
 20
27.43789271477759
 10
139.3399347017592
 20
21.961702238587065
 10
57.56086956521722
 20
21.961702238587065
 10
52.60536803624771
 20
30.102883321894037
 10
45.93870136958089
 20
21.888597607608308
 10
42.56086956521732
 20
27.43789271477759
 10
27.673268035092626
 20
27.43789271477759
 10
26.00660136842592
 20
24.699797476682384
 10
12.673268035092722
 20
24.699797476682384
 10
11.001299236469642
 20
21.952991593230166
 10
1.722658943243971
 20
23.338762546114555
 10
0.0
 20
26.16884509572992
 10
4.215381767296966
 20
33.09411514200378
  0
LWPOLYLINE
  5
31
330
17
100
AcDbEntity
  8
C
100
AcDbPolyline
 90
26
 70
1
 10
170.8942028985505
 20
104.10455938144425
 10
169.28373546682172
 20
106.75032730499878
 10
167.6170688001548
 20
104.01223206690358
 10
164.9999999999996
 20
108.3117022385871
 10
168.35040213348827
 20
113.81593431503268
 10
168.35040213348827
 20
119.29212479122297
 10
170.90938991377325
 20
123.49617614454856
 10
177.57605658044008
 20
120.75808090645334
 10
179.99999999999972
 20
124.74027366715856
 10
174.99999999999983
 20
132.95455938144428
 10
177.56086956521733
 20
137.16170223858703
 10
182.56086956521722
 20
137.16170223858703
 10
184.9999999999996
 20
141.16884509572992
 10
181.6666666666662
 20
146.64503557192043
 10
185.89420289855065
 20
153.5902736671585
 10
189.22120492360705
 20
153.5902736671585
 10
195.94064038056348
 20
167.38911433769454
 10
197.61706880015507
 20
164.6349819340802
 10
199.22753623188382
 20
167.28074985763476
 10
204.33397794893614
 20
167.28074985763476
 10
213.5504021334882
 20
154.89243942774976
 10
213.5504021334882
 20
102.80747016214164
 10
211.0035756437969
 20
98.62339807193443
 10
179.22465378870078
 20
101.37119958572104
 10
177.56086956521733
 20
104.10455938144425
 10
170.8942028985505
 20
104.10455938144425
  0
LWPOLYLINE
  5
32
330
17
100
AcDbEntity
  8
C
100
AcDbPolyline
 90
5
 70
1
 10
206.67134842804114
 20
174.01829648775725
 10
210.95848063418666
 20
183.87870056189192
 10
213.5608407441938
 20
176.75319073687223
 10
209.28373546682178
 20
169.7265177811893
 10
206.67134842804114
 20
174.01829648775725
  0
LWPOLYLINE
  5
33
330
17
100
AcDbEntity
  8
C
100
AcDbPolyline
 90
6
 70
1
 10
157.5608695652173
 20
115.25694033382517
 10
161.00660136842615
 20
115.25694033382517
 10
163.56747093364365
 20
111.04979747668231
 10
160.98023982492538
 20
106.79934636950239
 10
154.98301017137473
 20
111.02188561536974
 10
157.5608695652173
 20
115.25694033382517
  0
LWPOLYLINE
  5
34
330
17
100
AcDbEntity
  8
C
100
AcDbPolyline
 90
103
 70
1
 10
498.35040213348833
 20
247.982600981699
 10
501.6666666666666
 20
253.4307498576347
 10
500.01706880015496
 20
256.1408034954753
 10
500.01706880015496
 20
267.09318444785623
 10
498.3333333333333
 20
269.8593212862062
 10
499.9999999999999
 20
272.59741652430137
 10
495.9504021334883
 20
279.2503273049991
 10
493.5674709336434
 20
275.33551176239666
 10
495.23413760030996
 20
272.59741652430137
 10
492.6732680350927
 20
268.3902736671585
 10
487.5608695652173
 20
268.3902736671585
 10
484.24272324710694
 20
273.84151404691136
 10
477.5760565804402
 20
271.1034188088162
 10
475.0083599810877
 20
275.32177750775236
 10
476.6750266477544
 20
280.7979679839427
 10
469.28373546682167
 20
292.9408034954752
 10
462.68331594374104
 20
282.0972571361284
 10
454.239570704431
 20
279.3228837003552
 10
452.5608695652172
 20
282.08074985763477
 10
447.6646993309552
 20
282.08074985763477
 10
440.9980326642886
 20
273.86646414334905
 10
437.5651029518014
 20
273.86646414334905
 10
425.029406064291
 20
291.71490875937565
 10
420.9115139173804
 20
301.18606069726997
 10
417.5981540291182
 20
298.464372217626
 10
406.6837354668217
 20
313.63661340587333
 10
406.6837354668217
 20
316.43498193407993
 10
409.2275362318839
 20
320.6140831909681
 10
414.3278433929295
 20
320.6140831909681
 10
419.2555876921633
 20
315.2170299108549
 10
424.24675478520726
 20
326.1500625908559
 10
427.59153792159367
 20
323.40256215739583
 10
430.89420289855065
 20
328.8283689052538
 10
434.3195413010129
 20
328.8283689052538
 10
437.59153792159367
 20
326.140657395491
 10
440.9093899137736
 20
331.5914142397867
 10
447.5760565804402
 20
328.85331900169143
 10
450.89420289855053
 20
334.3045593814442
 10
454.3399347017594
 20
334.3045593814442
 10
456.90080426697665
 20
330.09741652430137
 10
455.2341376003101
 20
327.3593212862061
 10
456.90080426697665
 20
324.62122604811094
 10
453.56747093364334
 20
319.1450355719204
 10
455.99141435320314
 20
315.1628428112152
 10
462.6580810198697
 20
317.9009380493105
 10
469.3399347017594
 20
306.9236070004918
 10
470.89420289855053
 20
306.9236070004918
 10
474.9969240095763
 20
313.66379168289114
 10
464.9969240095764
 20
327.3542678733673
 10
469.22753623188396
 20
334.3045593814442
 10
474.32784339292954
 20
334.3045593814442
 10
479.2676590963022
 20
328.89428503965513
 10
482.5608695652173
 20
334.3045593814442
 10
486.006601368426
 20
334.3045593814442
 10
488.5674709336434
 20
330.09741652430137
 10
486.9008042669767
 20
327.3593212862061
 10
489.32474768653645
 20
323.37712852550095
 10
495.991414353203
 20
326.11522376359613
 10
498.5674709336434
 20
321.88313081001564
 10
493.5674709336434
 20
313.66884509573003
 10
495.9504021334883
 20
309.75402955312757
 10
499.2837354668216
 20
315.230220029318
 10
505.23413760031
 20
305.45455938144426
 10
503.5674709336434
 20
302.71646414334896
 10
507.6732680350927
 20
295.9712260481109
 10
510.8942028985506
 20
295.9712260481109
 10
512.617068800155
 20
298.80164860074666
 10
519.2837354668216
 20
287.8492676483656
 10
522.5608695652173
 20
293.23313081001567
 10
532.5871523515344
 20
293.23313081001567
 10
540.9204856848677
 20
298.7093212862062
 10
545.9914026930559
 20
298.7093212862062
 10
554.3247360263892
 20
290.4950355719205
 10
557.6732680350926
 20
290.4950355719205
 10
561.9008042669766
 20
283.5497974766823
 10
560.2170688001548
 20
280.7836606383324
 10
560.2170688001548
 20
264.36825037343925
 10
558.5423909903798
 20
258.8657375698922
 10
554.3399347017595
 20
251.96170223858715
 10
551.006601368426
 20
251.96170223858715
 10
548.5674709336434
 20
247.95455938144428
 10
555.2275074108605
 20
237.01307088315892
 10
552.6397058107444
 20
229.92742364474518
 10
550.8942028985506
 20
232.7950355719205
 10
546.006601368426
 20
232.7950355719205
 10
544.3399347017594
 20
230.05694033382517
 10
541.006601368426
 20
230.05694033382517
 10
532.6580810198698
 20
216.34151404691139
 10
525.991414353203
 20
219.07960928500657
 10
522.617068800155
 20
213.53604159071338
 10
520.9248712549269
 20
216.3160804150165
 10
517.5915379215936
 20
213.5779851769213
 10
515.9504021334883
 20
216.2741368288086
 10
514.2837354668217
 20
213.53604159071338
 10
512.617068800155
 20
216.2741368288086
 10
509.2920359290858
 20
210.8115828263377
 10
499.9965935822486
 20
223.30610598085278
 10
501.6666666666666
 20
226.0497974766823
 10
500.01706880015496
 20
228.75985111452292
 10
500.01706880015496
 20
234.29212479122273
 10
501.6666666666666
 20
237.00217842906335
 10
498.35040213348833
 20
242.45032730499904
 10
498.35040213348833
 20
247.982600981699
  0
LWPOLYLINE
  5
35
330
17
100
AcDbEntity
  8
C
100
AcDbPolyline
 90
13
 70
1
 10
549.2316726666156
 20
276.59776381009937
 10
525.8983393332824
 20
273.8596685720042
 10
522.5608695652173
 20
279.34265461953953
 10
504.33993470175943
 20
279.34265461953953
 10
501.9008042669767
 20
275.33551176239666
 10
509.2954362307287
 20
263.18718782194685
 10
515.9138758932519
 20
271.3420509775557
 10
526.0266181903498
 20
268.5730858247788
 10
530.9730391440776
 20
255.02931416576234
 10
535.8942028985506
 20
263.1140831909681
 10
544.2350130158085
 20
263.1140831909681
 10
551.6623290639812
 20
272.60454258585565
 10
549.2316726666156
 20
276.59776381009937
  0
LWPOLYLINE
  5
36
330
17
100
AcDbEntity
  8
C
100
AcDbPolyline
 90
5
 70
1
 10
544.9999999999999
 20
245.21646414334896
 10
542.617068800155
 20
249.1312796859514
 10
540.2341376003101
 20
245.21646414334896
 10
542.617068800155
 20
241.30164860074666
 10
544.9999999999999
 20
245.21646414334896
  0
LWPOLYLINE
  5
37
330
17
100
AcDbEntity
  8
C
100
AcDbPolyline
 90
5
 70
1
 10
527.617068800155
 20
246.39318444785619
 10
525.23413760031
 20
242.47836890525377
 10
527.617068800155
 20
238.56355336265133
 10
529.9999999999999
 20
242.47836890525377
 10
527.617068800155
 20
246.39318444785619
  0
LWPOLYLINE
  5
38
330
17
100
AcDbEntity
  8
C
100
AcDbPolyline
 90
6
 70
1
 10
487.6732680350927
 20
303.98551176239664
 10
485.23754401806127
 20
299.9839651629881
 10
494.2754350045575
 20
287.8356311746459
 10
496.6666666666666
 20
291.76408319096805
 10
489.22753623188396
 20
303.98551176239664
 10
487.6732680350927
 20
303.98551176239664
  0
LWPOLYLINE
  5
39
330
17
100
AcDbEntity
  8
C
100
AcDbPolyline
 90
5
 70
1
 10
442.6170688001549
 20
301.15508920976094
 10
440.2341376003101
 20
297.24027366715853
 10
442.6170688001549
 20
293.3254581245561
 10
444.99999999999994
 20
297.24027366715853
 10
442.6170688001549
 20
301.15508920976094
  0
LWPOLYLINE
  5
3A
330
17
100
AcDbEntity
  8
C
100
AcDbPolyline
 90
9
 70
1
 10
438.33333333333326
 20
308.1926546195395
 10
432.6170688001549
 20
317.58366063833245
 10
430.95040213348835
 20
314.8455654002371
 10
429.2837354668216
 20
317.58366063833245
 10
426.90080426697676
 20
313.66884509573003
 10
429.2837354668216
 20
309.75402955312757
 10
430.95040213348835
 20
312.4921247912228
 10
435.95040213348835
 20
304.2778390769371
 10
438.33333333333326
 20
308.1926546195395
  0
LWPOLYLINE
  5
3B
330
17
100
AcDbEntity
  8
C
100
AcDbPolyline
 90
23
 70
1
 10
520.9504021334883
 20
41.42069621979427
 10
522.5608695652173
 20
44.06646414334902
 10
536.006601368426
 20
44.06646414334902
 10
538.5504021334882
 20
39.887362886461
 10
538.5504021334882
 20
37.093184447856146
 10
529.3279002292123
 20
21.9419313194027
 10
520.994566895879
 20
24.680026557498014
 10
518.5786389559853
 20
20.711002084815355
 10
526.0283828554469
 20
13.911632652766958
 10
531.9008042669767
 20
4.264083190968049
 10
529.3399347017594
 20
0.05694033382519503
 10
517.5608695652173
 20
0.05694033382519503
 10
515.9504021334883
 20
2.702708257379949
 10
514.3314626215999
 20
0.04302191642024944
 10
508.3867659271175
 20
1.43820583451304
 10
501.67074723878113
 20
12.471665108208407
 10
506.6748706534278
 20
23.433078302196208
 10
503.3419400648925
 20
31.64637153822969
 10
507.578180584047
 20
41.389724732285195
 10
510.9248712549269
 20
38.640657395491054
 10
514.227536231884
 20
44.06646414334902
 10
519.3399347017594
 20
44.06646414334902
 10
520.9504021334883
 20
41.42069621979427
  0
LWPOLYLINE
  5
3C
330
17
100
AcDbEntity
  8
C
100
AcDbPolyline
 90
29
 70
1
 10
434.9926626104884
 20
20.68060033677055
 10
436.6666666666665
 20
23.430749857634716
 10
433.33333333333326
 20
28.906940333825236
 10
435.89420289855065
 20
33.11408319096809
 10
439.34801109186316
 20
33.11408319096809
 10
444.34801109186316
 20
22.161702238587043
 10
447.6732680350927
 20
22.161702238587043
 10
450.96647850400774
 20
16.751427896798067
 10
455.9062942073805
 20
22.161702238587043
 10
464.22753623188396
 20
22.161702238587043
 10
465.9387013695813
 20
24.97290210766112
 10
472.62152829241023
 20
16.73870464917526
 10
477.5729608740471
 20
22.161702238587043
 10
481.0113816345787
 20
22.161702238587043
 10
490.2316544473747
 20
4.260003725431338
 10
487.6732680350927
 20
0.05694033382519503
 10
482.5608695652173
 20
0.05694033382519503
 10
479.2676590963022
 20
5.467214675614396
 10
474.32658676671235
 20
0.05556402892070711
 10
430.0422838537377
 20
1.4282580545250667
 10
428.3416933144211
 20
7.015912683707715
 10
431.66666666666663
 20
12.478368905253777
 10
428.33333333333326
 20
17.9545593814443
 10
430.9306528214901
 20
22.22158425484477
 10
435.24365548835067
 20
17.970195911796605
 10
433.56747093364334
 20
15.216464143348984
 10
435.9701514454866
 20
11.269203302463836
 10
439.97832294469663
 20
15.220115208828044
 10
434.9926626104884
 20
20.68060033677055
  0
LWPOLYLINE
  5
3D
330
17
100
AcDbEntity
  8
C
100
AcDbPolyline
 90
52
 70
1
 10
372.617068800155
 20
8.563553362651465
 10
375.9248712549269
 20
13.997800252633974
 10
379.2582045882603
 20
11.259705014538657
 10
381.6666666666666
 20
15.216464143348984
 10
379.9999999999999
 20
17.9545593814443
 10
383.3333333333333
 20
23.430749857634716
 10
379.9904821119593
 20
28.92257686417754
 10
388.3238154452927
 20
37.13686257846327
 10
386.66666666666663
 20
39.859321286206175
 10
389.2582045882603
 20
44.11684787168157
 10
392.5915379215936
 20
41.37875263358626
 10
395.8942028985506
 20
46.804559381444236
 10
402.56086956521733
 20
46.804559381444236
 10
404.99999999999994
 20
50.81170223858711
 10
403.3283099829326
 20
53.55805012376924
 10
409.99497664959915
 20
61.77233583805497
 10
408.3333333333332
 20
64.50217842906325
 10
410.93685572716066
 20
68.77939379035114
 10
416.8914168123701
 20
61.79189863934009
 10
415.2228642237332
 20
53.56831802391571
 10
416.9008042669767
 20
50.81170223858711
 10
413.5718085363287
 20
45.342637823950874
 10
420.9991245845015
 20
35.8521784290633
 10
424.3399347017594
 20
35.8521784290633
 10
428.56084074419385
 20
28.91783278792093
 10
426.02034089139374
 20
21.961702238587065
 10
421.00660136842606
 20
21.961702238587065
 10
417.67326803509275
 20
16.485511762396655
 10
414.3399347017593
 20
16.485511762396655
 10
411.9008042669767
 20
12.478368905253777
 10
416.9008042669767
 20
4.264083190968049
 10
414.3399347017593
 20
0.05694033382519503
 10
410.8942028985506
 20
0.05694033382519503
 10
408.3333333333332
 20
4.264083190968049
 10
409.99999999999994
 20
7.002178429063255
 10
407.61706880015504
 20
10.91699397166568
 10
404.3399347017593
 20
5.533130810015718
 10
399.3278433929295
 20
5.533130810015718
 10
394.3278433929295
 20
0.05694033382519503
 10
369.2396275407138
 20
0.05694033382519503
 10
364.28373546682167
 20
5.484822129040445
 10
359.2758543924804
 20
0.0
 10
349.9848946676576
 20
12.488497811937172
 10
358.32381544529267
 20
20.70829114989181
 10
356.6666666666666
 20
23.430749857634716
 10
360.92487125492687
 20
30.42637168120532
 10
364.269479482018
 20
27.679014923237656
 10
370.96210289739537
 20
35.925283060042055
 10
375.21706880015506
 20
28.934981934080064
 10
375.21706880015506
 20
20.664613019284683
 10
370.23413760030996
 20
12.478368905253777
 10
372.617068800155
 20
8.563553362651465
  0
LWPOLYLINE
  5
3E
330
17
100
AcDbEntity
  8
C
100
AcDbPolyline
 90
6
 70
1
 10
407.61706880015504
 20
38.29794635261807
 10
403.56747093364345
 20
31.645035571920445
 10
407.61706880015504
 20
24.992124791222924
 10
410.01706880015496
 20
28.934981934080064
 10
410.01706880015496
 20
34.35508920976083
 10
407.61706880015504
 20
38.29794635261807
  0
LWPOLYLINE
  5
3F
330
17
100
AcDbEntity
  8
C
100
AcDbPolyline
 90
5
 70
1
 10
390.23413760031
 20
34.38313081001565
 10
394.2837354668216
 20
27.730220029318133
 10
396.66666666666663
 20
31.645035571920445
 10
392.61706880015504
 20
38.29794635261807
 10
390.23413760031
 20
34.38313081001565
  0
LWPOLYLINE
  5
40
330
17
100
AcDbEntity
  8
C
100
AcDbPolyline
 90
8
 70
1
 10
335.95040213348835
 20
11.301648600746672
 10
337.6732680350927
 20
8.471226048110903
 10
344.3399347017594
 20
8.471226048110903
 10
346.90080426697665
 20
4.264083190968049
 10
344.33547092405104
 20
0.04960698473288616
 10
333.390044100054
 20
1.4328202646886057
 10
331.6666666666666
 20
4.264083190968049
 10
335.95040213348835
 20
11.301648600746672
  0
LWPOLYLINE
  5
41
330
17
100
AcDbEntity
  8
C
100
AcDbPolyline
 90
17
 70
1
 10
1038.3333333333333
 20
100.09741652430138
 10
1045.0
 20
111.04979747668231
 10
1039.9999999999998
 20
119.26408319096804
 10
1042.5915379215935
 20
123.52160977644344
 10
1045.9862079676795
 20
120.7331308100157
 10
1052.5608695652172
 20
120.7331308100157
 10
1056.6666666666667
 20
127.47836890525377
 10
1055.0
 20
130.216464143349
 10
1057.631898505473
 20
134.54029740234031
 10
1061.8961225056023
 20
124.73258220204319
 10
1060.217068800155
 20
121.97413682880853
 10
1060.217068800155
 20
116.49794635261811
 10
1056.006601368426
 20
109.58074985763477
 10
1052.6732680350926
 20
109.58074985763477
 10
1047.6936614358392
 20
101.39996758743253
 10
1040.924871254927
 20
95.83988993882598
 10
1038.3333333333333
 20
100.09741652430138
  0
LWPOLYLINE
  5
42
330
17
100
AcDbEntity
  8
C
100
AcDbPolyline
 90
8
 70
1
 10
1799.9999999999995
 20
116.52598795287284
 10
1798.333333333333
 20
119.26408319096804
 10
1800.8942028985507
 20
123.47122604811089
 10
1804.339934701759
 20
123.47122604811089
 10
1808.5627891722684
 20
116.5336794179882
 10
1804.3115527590696
 20
106.75583566763058
 10
1798.327368272968
 20
113.77809297274976
 10
1799.9999999999995
 20
116.52598795287284
  0
LWPOLYLINE
  5
43
330
17
100
AcDbEntity
  8
C
100
AcDbPolyline
 90
5
 70
1
 10
1801.9008042669766
 20
91.88313081001564
 10
1799.3135731582581
 20
87.63267970283583
 10
1793.316343504708
 20
91.85521894870297
 10
1797.6170688001546
 20
98.92069621979427
 10
1801.9008042669766
 20
91.88313081001564
  0
LWPOLYLINE
  5
44
330
17
100
AcDbEntity
  8
C
100
AcDbPolyline
 90
25
 70
1
 10
1773.350402133488
 20
100.1254581245562
 10
1773.350402133488
 20
105.54556540023708
 10
1771.6837354668214
 20
108.28366063833228
 10
1771.6837354668214
 20
116.55402955312755
 10
1773.3333333333333
 20
119.26408319096804
 10
1771.6837354668214
 20
121.97413682880853
 10
1771.6837354668214
 20
138.4675791298645
 10
1777.6203651850692
 20
145.43403237066553
 10
1785.23149818543
 20
135.70869575909384
 10
1778.561981615954
 20
119.27310135574298
 10
1780.9504021334878
 20
115.34926764836572
 10
1782.5915379215933
 20
118.04541930025292
 10
1785.9248712549268
 20
115.30732406215772
 10
1787.6035223938275
 20
118.0651080760653
 10
1793.5734359940082
 20
111.05959721871028
 10
1791.9008042669764
 20
108.3117022385871
 10
1793.5674709336433
 20
105.5736070004919
 10
1790.2341376003099
 20
100.09741652430138
 10
1791.9008042669764
 20
97.35932128620617
 10
1789.2837354668216
 20
93.05985111452286
 10
1787.6170688001546
 20
95.79794635261807
 10
1784.3299858014395
 20
90.39773856901412
 10
1774.2189849983563
 20
93.166226884144
 10
1771.6666666666663
 20
97.35932128620617
 10
1773.350402133488
 20
100.1254581245562
  0
LWPOLYLINE
  5
45
330
17
100
AcDbEntity
  8
C
100
AcDbPolyline
 90
21
 70
1
 10
3159.2200992604508
 20
142.45011059641777
 10
3157.560869565217
 20
145.1759879528728
 10
3140.8942028985507
 20
145.1759879528728
 10
3139.2275362318837
 20
147.9140831909681
 10
3134.2275362318837
 20
147.9140831909681
 10
3131.6884615560843
 20
152.0854201583528
 10
3128.3540868203845
 20
171.2580748886291
 10
3123.337413905448
 20
182.24697746420415
 10
3126.6837354668223
 20
187.7445057436039
 10
3126.6837354668223
 20
193.21134559666686
 10
3132.548563994786
 20
208.3521784290633
 10
3135.8942028985507
 20
208.3521784290633
 10
3137.5608695652177
 20
211.0902736671585
 10
3145.9094015739215
 20
211.0902736671585
 10
3154.242734907254
 20
219.30455938144422
 10
3162.581262965964
 20
219.30455938144422
 10
3169.289824029226
 20
224.81516311198124
 10
3173.5504021334887
 20
220.61545040920848
 10
3173.5504021334887
 20
143.87889873357028
 10
3170.998129288267
 20
139.68587905927743
 10
3159.2200992604508
 20
142.45011059641777
  0
ENDSEC
  0
SECTION
  2
OBJECTS
  0
DICTIONARY
  5
A
330
0
100
AcDbDictionary
281
1
  3
ACAD_COLOR
350
B
  3
ACAD_GROUP
350
C
  3
ACAD_LAYOUT
350
D
  3
ACAD_MATERIAL
350
E
  3
ACAD_MLEADERSTYLE
350
F
  3
ACAD_MLINESTYLE
350
10
  3
ACAD_PLOTSETTINGS
350
11
  3
ACAD_PLOTSTYLENAME
350
12
  3
ACAD_SCALELIST
350
14
  3
ACAD_TABLESTYLE
350
15
  3
ACAD_VISUALSTYLE
350
16
  3
EZDXF_META
350
2D
  0
DICTIONARY
  5
B
330
A
100
AcDbDictionary
281
1
  0
DICTIONARY
  5
C
330
A
100
AcDbDictionary
281
1
  0
DICTIONARY
  5
D
330
A
100
AcDbDictionary
281
1
  3
Model
350
1A
  3
Layout1
350
1E
  0
DICTIONARY
  5
E
330
A
100
AcDbDictionary
281
1
  3
ByBlock
350
1F
  3
ByLayer
350
20
  3
Global
350
21
  0
DICTIONARY
  5
F
330
A
100
AcDbDictionary
281
1
  3
Standard
350
2C
  0
DICTIONARY
  5
10
330
A
100
AcDbDictionary
281
1
  3
Standard
350
22
  0
DICTIONARY
  5
11
330
A
100
AcDbDictionary
281
1
  0
ACDBDICTIONARYWDFLT
  5
12
330
A
100
AcDbDictionary
281
1
  3
Normal
350
13
100
AcDbDictionaryWithDefault
340
13
  0
ACDBPLACEHOLDER
  5
13
330
12
  0
DICTIONARY
  5
14
330
A
100
AcDbDictionary
281
1
  0
DICTIONARY
  5
15
330
A
100
AcDbDictionary
281
1
  0
DICTIONARY
  5
16
330
A
100
AcDbDictionary
281
1
  0
LAYOUT
  5
1A
330
D
100
AcDbPlotSettings
  1

  4
A3
  6

 40
7.5
 41
20.0
 42
7.5
 43
20.0
 44
420.0
 45
297.0
 46
0.0
 47
0.0
 48
0.0
 49
0.0
140
0.0
141
0.0
142
1.0
143
1.0
 70
1024
 72
1
 73
0
 74
5
  7

 75
16
 76
0
 77
2
 78
300
147
1.0
148
0.0
149
0.0
100
AcDbLayout
  1
Model
 70
1
 71
0
 10
0.0
 20
0.0
 11
420.0
 21
297.0
 12
0.0
 22
0.0
 32
0.0
 14
1e+20
 24
1e+20
 34
1e+20
 15
-1e+20
 25
-1e+20
 35
-1e+20
146
0.0
 13
0.0
 23
0.0
 33
0.0
 16
1.0
 26
0.0
 36
0.0
 17
0.0
 27
1.0
 37
0.0
 76
1
330
17
  0
LAYOUT
  5
1E
330
D
100
AcDbPlotSettings
  1

  4
A3
  6

 40
7.5
 41
20.0
 42
7.5
 43
20.0
 44
420.0
 45
297.0
 46
0.0
 47
0.0
 48
0.0
 49
0.0
140
0.0
141
0.0
142
1.0
143
1.0
 70
0
 72
1
 73
0
 74
5
  7

 75
16
 76
0
 77
2
 78
300
147
1.0
148
0.0
149
0.0
100
AcDbLayout
  1
Layout1
 70
1
 71
1
 10
0.0
 20
0.0
 11
420.0
 21
297.0
 12
0.0
 22
0.0
 32
0.0
 14
1e+20
 24
1e+20
 34
1e+20
 15
-1e+20
 25
-1e+20
 35
-1e+20
146
0.0
 13
0.0
 23
0.0
 33
0.0
 16
1.0
 26
0.0
 36
0.0
 17
0.0
 27
1.0
 37
0.0
 76
1
330
1B
  0
MATERIAL
  5
1F
102
{ACAD_REACTORS
330
E
102
}
330
E
100
AcDbMaterial
  1
ByBlock
  2

 70
0
 40
1.0
 71
1
 41
1.0
 91
-1023410177
 42
1.0
 72
1
  3

 73
1
 74
1
 75
1
 44
0.5
 73
0
 45
1.0
 46
1.0
 77
1
  4

 78
1
 79
1
170
1
 48
1.0
171
1
  6

172
1
173
1
174
1
140
1.0
141
1.0
175
1
  7

176
1
177
1
178
1
143
1.0
179
1
  8

270
1
271
1
272
1
145
1.0
146
1.0
273
1
  9

274
1
275
1
276
1
 42
1.0
 72
1
  3

 73
1
 74
1
 75
1
 94
63
  0
MATERIAL
  5
20
102
{ACAD_REACTORS
330
E
102
}
330
E
100
AcDbMaterial
  1
ByLayer
  2

 70
0
 40
1.0
 71
1
 41
1.0
 91
-1023410177
 42
1.0
 72
1
  3

 73
1
 74
1
 75
1
 44
0.5
 73
0
 45
1.0
 46
1.0
 77
1
  4

 78
1
 79
1
170
1
 48
1.0
171
1
  6

172
1
173
1
174
1
140
1.0
141
1.0
175
1
  7

176
1
177
1
178
1
143
1.0
179
1
  8

270
1
271
1
272
1
145
1.0
146
1.0
273
1
  9

274
1
275
1
276
1
 42
1.0
 72
1
  3

 73
1
 74
1
 75
1
 94
63
  0
MATERIAL
  5
21
102
{ACAD_REACTORS
330
E
102
}
330
E
100
AcDbMaterial
  1
Global
  2

 70
0
 40
1.0
 71
1
 41
1.0
 91
-1023410177
 42
1.0
 72
1
  3

 73
1
 74
1
 75
1
 44
0.5
 73
0
 45
1.0
 46
1.0
 77
1
  4

 78
1
 79
1
170
1
 48
1.0
171
1
  6

172
1
173
1
174
1
140
1.0
141
1.0
175
1
  7

176
1
177
1
178
1
143
1.0
179
1
  8

270
1
271
1
272
1
145
1.0
146
1.0
273
1
  9

274
1
275
1
276
1
 42
1.0
 72
1
  3

 73
1
 74
1
 75
1
 94
63
  0
MLINESTYLE
  5
22
102
{ACAD_REACTORS
330
10
102
}
330
10
100
AcDbMlineStyle
  2
Standard
 70
0
  3

 62
256
 51
90.0
 52
90.0
 71
2
 49
0.5
 62
256
  6
BYLAYER
 49
-0.5
 62
256
  6
BYLAYER
  0
MLEADERSTYLE
  5
2C
102
{ACAD_REACTORS
330
F
102
}
330
F
100
AcDbMLeaderStyle
179
2
170
2
171
1
172
0
 90
2
 40
0.0
 41
0.0
173
1
 91
-1056964608
 92
-2
290
1
 42
2.0
291
1
 43
8.0
  3
Standard
 44
4.0
300

342
29
174
1
175
1
176
0
178
1
 93
-1056964608
 45
4.0
292
0
297
0
 46
4.0
 94
-1056964608
 47
1.0
 49
1.0
140
1.0
294
1
141
0.0
177
0
142
1.0
295
0
296
0
143
3.75
271
0
272
9
273
9
  0
DICTIONARY
  5
2D
330
A
100
AcDbDictionary
280
1
281
1
  3
CREATED_BY_EZDXF
350
2E
  3
WRITTEN_BY_EZDXF
350
48
  0
DICTIONARYVAR
  5
2E
330
2D
100
DictionaryVariables
280
0
  1
1.4.4 @ 2026-07-21T08:09:32.709704+00:00
  0
DICTIONARYVAR
  5
48
330
2D
100
DictionaryVariables
280
0
  1
1.4.4 @ 2026-07-21T08:09:32.712733+00:00
  0
ENDSEC
  0
EOF
