  0
SECTION
  2
HEADER
  9
$ACADVER
  1
AC1027
  9
$ACADMAINTVER
 70
105
  9
$DWGCODEPAGE
  3
ANSI_1252
  9
$LASTSAVEDBY
  1
ezdxf
  9
$REQUIREDVERSIONS
160
0
  9
$INSBASE
 10
0.0
 20
0.0
 30
0.0
  9
$EXTMIN
 10
1e+20
 20
1e+20
 30
1e+20
  9
$EXTMAX
 10
-1e+20
 20
-1e+20
 30
-1e+20
  9
$LIMMIN
 10
0.0
 20
0.0
  9
$LIMMAX
 10
420.0
 20
297.0
  9
$ORTHOMODE
 70
0
  9
$REGENMODE
 70
1
  9
$FILLMODE
 70
1
  9
$QTEXTMODE
 70
0
  9
$MIRRTEXT
 70
1
  9
$LTSCALE
 40
1.0
  9
$ATTMODE
 70
1
  9
$TEXTSIZE
 40
2.5
  9
$TRACEWID
 40
1.0
  9
$TEXTSTYLE
  7
Standard
  9
$CLAYER
  8
0
  9
$CELTYPE
  6
ByLayer
  9
$CECOLOR
 62
256
  9
$CELTSCALE
 40
1.0
  9
$DISPSILH
 70
0
  9
$DIMSCALE
 40
1.0
  9
$DIMASZ
 40
2.5
  9
$DIMEXO
 40
0.625
  9
$DIMDLI
 40
3.75
  9
$DIMRND
 40
0.0
  9
$DIMDLE
 40
0.0
  9
$DIMEXE
 40
1.25
  9
$DIMTP
 40
0.0
  9
$DIMTM
 40
0.0
  9
$DIMTXT
 40
2.5
  9
$DIMCEN
 40
2.5
  9
$DIMTSZ
 40
0.0
  9
$DIMTOL
 70
0
  9
$DIMLIM
 70
0
  9
$DIMTIH
 70
0
  9
$DIMTOH
 70
0
  9
$DIMSE1
 70
0
  9
$DIMSE2
 70
0
  9
$DIMTAD
 70
1
  9
$DIMZIN
 70
8
  9
$DIMBLK
  1

  9
$DIMASO
 70
1
  9
$DIMSHO
 70
1
  9
$DIMPOST
  1

  9
$DIMAPOST
  1

  9
$DIMALT
 70
0
  9
$DIMALTD
 70
3
  9
$DIMALTF
 40
0.03937007874
  9
$DIMLFAC
 40
1.0
  9
$DIMTOFL
 70
1
  9
$DIMTVP
 40
0.0
  9
$DIMTIX
 70
0
  9
$DIMSOXD
 70
0
  9
$DIMSAH
 70
0
  9
$DIMBLK1
  1

  9
$DIMBLK2
  1

  9
$DIMSTYLE
  2
ISO-25
  9
$DIMCLRD
 70
0
  9
$DIMCLRE
 70
0
  9
$DIMCLRT
 70
0
  9
$DIMTFAC
 40
1.0
  9
$DIMGAP
 40
0.625
  9
$DIMJUST
 70
0
  9
$DIMSD1
 70
0
  9
$DIMSD2
 70
0
  9
$DIMTOLJ
 70
0
  9
$DIMTZIN
 70
8
  9
$DIMALTZ
 70
0
  9
$DIMALTTZ
 70
0
  9
$DIMUPT
 70
0
  9
$DIMDEC
 70
2
  9
$DIMTDEC
 70
2
  9
$DIMALTU
 70
2
  9
$DIMALTTD
 70
3
  9
$DIMTXSTY
  7
Standard
  9
$DIMAUNIT
 70
0
  9
$DIMADEC
 70
0
  9
$DIMALTRND
 40
0.0
  9
$DIMAZIN
 70
0
  9
$DIMDSEP
 70
44
  9
$DIMATFIT
 70
3
  9
$DIMFRAC
 70
0
  9
$DIMLDRBLK
  1

  9
$DIMLUNIT
 70
2
  9
$DIMLWD
 70
-2
  9
$DIMLWE
 70
-2
  9
$DIMTMOVE
 70
0
  9
$DIMFXL
 40
1.0
  9
$DIMFXLON
 70
0
  9
$DIMJOGANG
 40
0.785398163397
  9
$DIMTFILL
 70
0
  9
$DIMTFILLCLR
 70
0
  9
$DIMARCSYM
 70
0
  9
$DIMLTYPE
  6

  9
$DIMLTEX1
  6

  9
$DIMLTEX2
  6

  9
$DIMTXTDIRECTION
 70
0
  9
$LUNITS
 70
2
  9
$LUPREC
 70
4
  9
$SKETCHINC
 40
1.0
  9
$FILLETRAD
 40
10.0
  9
$AUNITS
 70
0
  9
$AUPREC
 70
2
  9
$MENU
  1
.
  9
$ELEVATION
 40
0.0
  9
$PELEVATION
 40
0.0
  9
$THICKNESS
 40
0.0
  9
$LIMCHECK
 70
0
  9
$CHAMFERA
 40
0.0
  9
$CHAMFERB
 40
0.0
  9
$CHAMFERC
 40
0.0
  9
$CHAMFERD
 40
0.0
  9
$SKPOLY
 70
0
  9
$TDCREATE
 40
2461243.464953704
  9
$TDUCREATE
 40
2458532.153996898
  9
$TDUPDATE
 40
2461243.464953704
  9
$TDUUPDATE
 40
2458532.1544311
  9
$TDINDWG
 40
0.0
  9
$TDUSRTIMER
 40
0.0
  9
$USRTIMER
 70
1
  9
$ANGBASE
 50
0.0
  9
$ANGDIR
 70
0
  9
$PDMODE
 70
0
  9
$PDSIZE
 40
0.0
  9
$PLINEWID
 40
0.0
  9
$SPLFRAME
 70
0
  9
$SPLINETYPE
 70
6
  9
$SPLINESEGS
 70
8
  9
$HANDSEED
  5
3D
  9
$SURFTAB1
 70
6
  9
$SURFTAB2
 70
6
  9
$SURFTYPE
 70
6
  9
$SURFU
 70
6
  9
$SURFV
 70
6
  9
$UCSBASE
  2

  9
$UCSNAME
  2

  9
$UCSORG
 10
0.0
 20
0.0
 30
0.0
  9
$UCSXDIR
 10
1.0
 20
0.0
 30
0.0
  9
$UCSYDIR
 10
0.0
 20
1.0
 30
0.0
  9
$UCSORTHOREF
  2

  9
$UCSORTHOVIEW
 70
0
  9
$UCSORGTOP
 10
0.0
 20
0.0
 30
0.0
  9
$UCSORGBOTTOM
 10
0.0
 20
0.0
 30
0.0
  9
$UCSORGLEFT
 10
0.0
 20
0.0
 30
0.0
  9
$UCSORGRIGHT
 10
0.0
 20
0.0
 30
0.0
  9
$UCSORGFRONT
 10
0.0
 20
0.0
 30
0.0
  9
$UCSORGBACK
 10
0.0
 20
0.0
 30
0.0
  9
$PUCSBASE
  2

  9
$PUCSNAME
  2

  9
$PUCSORG
 10
0.0
 20
0.0
 30
0.0
  9
$PUCSXDIR
 10
1.0
 20
0.0
 30
0.0
  9
$PUCSYDIR
 10
0.0
 20
1.0
 30
0.0
  9
$PUCSORTHOREF
  2

  9
$PUCSORTHOVIEW
 70
0
  9
$PUCSORGTOP
 10
0.0
 20
0.0
 30
0.0
  9
$PUCSORGBOTTOM
 10
0.0
 20
0.0
 30
0.0
  9
$PUCSORGLEFT
 10
0.0
 20
0.0
 30
0.0
  9
$PUCSORGRIGHT
 10
0.0
 20
0.0
 30
0.0
  9
$PUCSORGFRONT
 10
0.0
 20
0.0
 30
0.0
  9
$PUCSORGBACK
 10
0.0
 20
0.0
 30
0.0
  9
$USERI1
 70
0
  9
$USERI2
 70
0
  9
$USERI3
 70
0
  9
$USERI4
 70
0
  9
$USERI5
 70
0
  9
$USERR1
 40
0.0
  9
$USERR2
 40
0.0
  9
$USERR3
 40
0.0
  9
$USERR4
 40
0.0
  9
$USERR5
 40
0.0
  9
$WORLDVIEW
 70
1
  9
$SHADEDGE
 70
3
  9
$SHADEDIF
 70
70
  9
$TILEMODE
 70
1
  9
$MAXACTVP
 70
64
  9
$PINSBASE
 10
0.0
 20
0.0
 30
0.0
  9
$PLIMCHECK
 70
0
  9
$PEXTMIN
 10
1e+20
 20
1e+20
 30
1e+20
  9
$PEXTMAX
 10
-1e+20
 20
-1e+20
 30
-1e+20
  9
$PLIMMIN
 10
0.0
 20
0.0
  9
$PLIMMAX
 10
420.0
 20
297.0
  9
$UNITMODE
 70
0
  9
$VISRETAIN
 70
1
  9
$PLINEGEN
 70
0
  9
$PSLTSCALE
 70
1
  9
$TREEDEPTH
 70
3020
  9
$CMLSTYLE
  2
Standard
  9
$CMLJUST
 70
0
  9
$CMLSCALE
 40
20.0
  9
$PROXYGRAPHICS
 70
1
  9
$MEASUREMENT
 70
1
  9
$CELWEIGHT
370
-1
  9
$ENDCAPS
280
0
  9
$JOINSTYLE
280
0
  9
$LWDISPLAY
290
0
  9
$INSUNITS
 70
4
  9
$HYPERLINKBASE
  1

  9
$STYLESHEET
  1

  9
$XEDIT
290
1
  9
$CEPSNTYPE
380
0
  9
$PSTYLEMODE
290
1
  9
$FINGERPRINTGUID
  2
{E7113060-13D7-4D89-BDE1-E588D4E3FD90}
  9
$VERSIONGUID
  2
{D43D6374-9512-45EF-83A9-F944ADA13AE5}
  9
$EXTNAMES
290
1
  9
$PSVPSCALE
 40
0.0
  9
$OLESTARTUP
290
0
  9
$SORTENTS
280
127
  9
$INDEXCTL
280
0
  9
$HIDETEXT
280
1
  9
$XCLIPFRAME
280
1
  9
$HALOGAP
280
0
  9
$OBSCOLOR
 70
257
  9
$OBSLTYPE
280
0
  9
$INTERSECTIONDISPLAY
280
0
  9
$INTERSECTIONCOLOR
 70
257
  9
$DIMASSOC
280
2
  9
$PROJECTNAME
  1

  9
$CAMERADISPLAY
290
0
  9
$LENSLENGTH
 40
50.0
  9
$CAMERAHEIGHT
 40
0.0
  9
$STEPSPERSEC
 40
24.0
  9
$STEPSIZE
 40
100.0
  9
$3DDWFPREC
 40
2.0
  9
$PSOLWIDTH
 40
0.005
  9
$PSOLHEIGHT
 40
0.08
  9
$LOFTANG1
 40
1.570796326795
  9
$LOFTANG2
 40
1.570796326795
  9
$LOFTMAG1
 40
0.0
  9
$LOFTMAG2
 40
0.0
  9
$LOFTPARAM
 70
7
  9
$LOFTNORMALS
280
1
  9
$LATITUDE
 40
37.795
  9
$LONGITUDE
 40
-122.394
  9
$NORTHDIRECTION
 40
0.0
  9
$TIMEZONE
 70
-8000
  9
$LIGHTGLYPHDISPLAY
280
1
  9
$TILEMODELIGHTSYNCH
280
1
  9
$CMATERIAL
347
20
  9
$SOLIDHIST
280
0
  9
$SHOWHIST
280
1
  9
$DWFFRAME
280
2
  9
$DGNFRAME
280
2
  9
$REALWORLDSCALE
290
1
  9
$INTERFERECOLOR
 62
256
  9
$CSHADOW
280
0
  9
$SHADOWPLANELOCATION
 40
0.0
  0
ENDSEC
  0
SECTION
  2
CLASSES
  0
CLASS
  1
ACDBDICTIONARYWDFLT
  2
AcDbDictionaryWithDefault
  3
ObjectDBX Classes
 90
0
 91
0
280
0
281
0
  0
CLASS
  1
SUN
  2
AcDbSun
  3
SCENEOE
 90
1153
 91
0
280
0
281
0
  0
CLASS
  1
VISUALSTYLE
  2
AcDbVisualStyle
  3
ObjectDBX Classes
 90
4095
 91
0
280
0
281
0
  0
CLASS
  1
MATERIAL
  2
AcDbMaterial
  3
ObjectDBX Classes
 90
1153
 91
0
280
0
281
0
  0
CLASS
  1
SCALE
  2
AcDbScale
  3
ObjectDBX Classes
 90
1153
 91
0
280
0
281
0
  0
CLASS
  1
TABLESTYLE
  2
AcDbTableStyle
  3
ObjectDBX Classes
 90
4095
 91
0
280
0
281
0
  0
CLASS
  1
MLEADERSTYLE
  2
AcDbMLeaderStyle
  3
ACDB_MLEADERSTYLE_CLASS
 90
4095
 91
0
280
0
281
0
  0
CLASS
  1
DICTIONARYVAR
  2
AcDbDictionaryVar
  3
ObjectDBX Classes
 90
0
 91
0
280
0
281
0
  0
CLASS
  1
CELLSTYLEMAP
  2
AcDbCellStyleMap
  3
ObjectDBX Classes
 90
1152
 91
0
280
0
281
0
  0
CLASS
  1
MENTALRAYRENDERSETTINGS
  2
AcDbMentalRayRenderSettings
  3
SCENEOE
 90
1024
 91
0
280
0
281
0
  0
CLASS
  1
ACDBDETAILVIEWSTYLE
  2
AcDbDetailViewStyle
  3
ObjectDBX Classes
 90
1025
 91
0
280
0
281
0
  0
CLASS
  1
ACDBSECTIONVIEWSTYLE
  2
AcDbSectionViewStyle
  3
ObjectDBX Classes
 90
1025
 91
0
280
0
281
0
  0
CLASS
  1
RASTERVARIABLES
  2
AcDbRasterVariables
  3
ISM
 90
0
 91
0
280
0
281
0
  0
CLASS
  1
LAYOUT
  2
AcDbLayout
  3
ObjectDBX Classes
 90
0
 91
0
280
0
281
0
  0
CLASS
  1
ACDBPLACEHOLDER
  2
AcDbPlaceHolder
  3
ObjectDBX Classes
 90
0
 91
0
280
0
281
0
  0
ENDSEC
  0
SECTION
  2
TABLES
  0
TABLE
  2
VPORT
  5
8
330
0
100
AcDbSymbolTable
 70
1
  0
VPORT
  5
23
330
8
100
AcDbSymbolTableRecord
100
AcDbViewportTableRecord
  2
*Active
 70
0
 10
0.0
 20
0.0
 11
1.0
 21
1.0
 12
0.0
 22
0.0
 13
0.0
 23
0.0
 14
0.5
 24
0.5
 15
0.5
 25
0.5
 16
0.0
 26
0.0
 36
1.0
 17
0.0
 27
0.0
 37
0.0
 40
1000.0
 41
1.34
 42
50.0
 43
0.0
 44
0.0
 50
0.0
 51
0.0
 71
0
 72
1000
 73
1
 74
3
 75
0
 76
0
 77
0
 78
0
281
0
 65
0
146
0.0
  0
ENDTAB
  0
TABLE
  2
LTYPE
  5
2
330
0
100
AcDbSymbolTable
 70
3
  0
LTYPE
  5
24
330
2
100
AcDbSymbolTableRecord
100
AcDbLinetypeTableRecord
  2
ByBlock
 70
0
  3

 72
65
 73
0
 40
0.0
  0
LTYPE
  5
25
330
2
100
AcDbSymbolTableRecord
100
AcDbLinetypeTableRecord
  2
ByLayer
 70
0
  3

 72
65
 73
0
 40
0.0
  0
LTYPE
  5
26
330
2
100
AcDbSymbolTableRecord
100
AcDbLinetypeTableRecord
  2
Continuous
 70
0
  3

 72
65
 73
0
 40
0.0
  0
ENDTAB
  0
TABLE
  2
LAYER
  5
1
330
0
100
AcDbSymbolTable
 70
3
  0
LAYER
  5
27
330
1
100
AcDbSymbolTableRecord
100
AcDbLayerTableRecord
  2
0
 70
0
 62
7
  6
Continuous
370
-3
390
13
347
21
  0
LAYER
  5
28
330
1
100
AcDbSymbolTableRecord
100
AcDbLayerTableRecord
  2
Defpoints
 70
0
 62
7
  6
Continuous
290
0
370
-3
390
13
347
21
  0
LAYER
  5
2F
330
1
100
AcDbSymbolTableRecord
100
AcDbLayerTableRecord
  2
K
 70
0
 62
7
  6
Continuous
370
-3
390
13
347
21
  0
ENDTAB
  0
TABLE
  2
STYLE
  5
5
330
0
100
AcDbSymbolTable
 70
1
  0
STYLE
  5
29
330
5
100
AcDbSymbolTableRecord
100
AcDbTextStyleTableRecord
  2
Standard
 70
0
 40
0.0
 41
1.0
 50
0.0
 71
0
 42
2.5
  3
txt
  4

  0
ENDTAB
  0
TABLE
  2
VIEW
  5
7
330
0
100
AcDbSymbolTable
 70
0
  0
ENDTAB
  0
TABLE
  2
UCS
  5
6
330
0
100
AcDbSymbolTable
 70
0
  0
ENDTAB
  0
TABLE
  2
APPID
  5
3
330
0
100
AcDbSymbolTable
 70
3
  0
APPID
  5
2A
330
3
100
AcDbSymbolTableRecord
100
AcDbRegAppTableRecord
  2
ACAD
 70
0
  0
APPID
  5
3A
330
3
100
AcDbSymbolTableRecord
100
AcDbRegAppTableRecord
  2
HATCHBACKGROUNDCOLOR
 70
0
  0
APPID
  5
3B
330
3
100
AcDbSymbolTableRecord
100
AcDbRegAppTableRecord
  2
EZDXF
 70
0
  0
ENDTAB
  0
TABLE
  2
DIMSTYLE
  5
4
330
0
100
AcDbSymbolTable
 70
1
100
AcDbDimStyleTable
  0
DIMSTYLE
105
2B
330
4
100
AcDbSymbolTableRecord
100
AcDbDimStyleTableRecord
  2
Standard
 70
0
 40
1.0
 41
2.5
 42
0.625
 43
3.75
 44
1.25
 45
0.0
 46
0.0
 47
0.0
 48
0.0
 49
2.5
140
2.5
141
2.5
142
0.0
143
0.03937007874
144
1.0
145
0.0
146
1.0
147
0.625
148
0.0
 69
0
 70
0
 71
0
 72
0
 73
0
 74
0
 75
0
 76
0
 77
1
 78
8
 79
3
170
0
171
3
172
1
173
0
174
0
175
0
176
0
177
0
178
0
179
2
271
2
272
2
273
2
274
3
275
0
276
0
277
2
278
44
279
0
280
0
281
0
282
0
283
0
284
8
285
0
286
0
288
0
289
3
290
0
371
-2
372
-2
  0
ENDTAB
  0
TABLE
  2
BLOCK_RECORD
  5
9
330
0
100
AcDbSymbolTable
 70
2
  0
BLOCK_RECORD
  5
17
330
9
100
AcDbSymbolTableRecord
100
AcDbBlockTableRecord
  2
*Model_Space
340
1A
 70
0
280
1
281
0
  0
BLOCK_RECORD
  5
1B
330
9
100
AcDbSymbolTableRecord
100
AcDbBlockTableRecord
  2
*Paper_Space
340
1E
 70
0
280
1
281
0
  0
ENDTAB
  0
ENDSEC
  0
SECTION
  2
BLOCKS
  0
BLOCK
  5
18
330
17
100
AcDbEntity
  8
0
100
AcDbBlockBegin
  2
*Model_Space
 70
0
 10
0.0
 20
0.0
 30
0.0
  3
*Model_Space
  1

  0
ENDBLK
  5
19
330
17
100
AcDbEntity
  8
0
100
AcDbBlockEnd
  0
BLOCK
  5
1C
330
1B
100
AcDbEntity
  8
0
100
AcDbBlockBegin
  2
*Paper_Space
 70
0
 10
0.0
 20
0.0
 30
0.0
  3
*Paper_Space
  1

  0
ENDBLK
  5
1D
330
1B
100
AcDbEntity
  8
0
100
AcDbBlockEnd
  0
ENDSEC
  0
SECTION
  2
ENTITIES
  0
LWPOLYLINE
  5
30
330
17
100
AcDbEntity
  8
K
100
AcDbPolyline
 90
24
 70
1
 10
16.698231338466705
 20
113.64091470539262
 10
11.65367843862608
 20
124.69088772409043
 10
13.316264533178357
 20
127.42227916514015
 10
10.907802454771964
 20
131.3790382939505
 10
7.566457136668925
 20
128.6343617826514
 10
0.0
 20
143.82732730310533
 10
0.0
 20
154.8312731463476
 10
3.316264533178126
 20
160.27942202228297
 10
1.6495978665116429
 20
163.01751726037816
 10
4.215314562130645
 20
167.23262326032352
 10
24.32735551748255
 20
164.47918908191227
 10
25.98953256827108
 20
161.74846964133062
 10
49.32286590160451
 20
161.74846964133062
 10
50.989532568271215
 20
159.0103744032353
 10
57.65619923493781
 20
159.0103744032353
 10
60.20000000000003
 20
154.8312731463476
 10
60.20000000000003
 20
143.82280899345656
 10
57.676592635684585
 20
139.67721118065236
 10
37.67659263568457
 20
123.248639752081
 10
32.67659263568468
 20
115.03435403779527
 10
29.241135788105275
 20
112.21237162728382
 10
27.600000000000293
 20
114.9085232791709
 10
25.984230436314704
 20
112.25404471025946
 10
16.698231338466705
 20
113.64091470539262
  0
LWPOLYLINE
  5
31
330
17
100
AcDbEntity
  8
K
100
AcDbPolyline
 90
20
 70
1
 10
30.04210357551429
 20
264.24080454069144
 10
24.220499112940665
 20
271.0722791651401
 10
20.885119840308164
 20
271.0722791651401
 10
6.667986673500659
 20
288.9332994041125
 10
5.000564302192423
 20
332.7626874499325
 10
3.325309472988147
 20
338.26709617446073
 10
20.87450380051137
 20
369.8437077365687
 10
25.87713409839565
 20
369.8437077365687
 10
29.210467431729057
 20
375.31989821275914
 10
34.22255874055891
 20
375.31989821275914
 10
39.22255874055902
 20
380.7960886889497
 10
57.65619923493781
 20
380.7960886889497
 10
60.20000000000003
 20
376.6169874320617
 10
60.20000000000003
 20
288.94185661250424
 10
54.33502036619142
 20
279.30653292839014
 10
47.66835369952482
 20
276.56843769029496
 10
44.322865901604615
 20
271.0722791651401
 10
40.980963864133635
 20
271.0722791651401
 10
34.30089969617334
 20
262.8414858153321
 10
30.04210357551429
 20
264.24080454069144
  0
LWPOLYLINE
  5
32
330
17
100
AcDbEntity
  8
K
100
AcDbPolyline
 90
49
 70
1
 10
2975.036458466498
 20
507.9331355527017
 10
2959.2137503652825
 20
531.1913267841877
 10
2927.5438007650628
 20
531.1913267841877
 10
2925.877134098396
 20
533.929422022283
 10
2914.215874165841
 20
533.929422022283
 10
2904.215874165841
 20
547.6198982127592
 10
2854.2104674317293
 20
547.6198982127592
 10
2852.5438007650623
 20
550.3579934508543
 10
2834.316234892898
 20
550.3579934508543
 10
2825.9911604334548
 20
539.4164670184427
 10
2814.3303028730384
 20
536.6797351420184
 10
2812.656199234938
 20
533.929422022283
 10
2805.989532568271
 20
533.929422022283
 10
2804.3228659016045
 20
531.1913267841877
 10
2794.2308608324756
 20
531.1913267841877
 10
2784.230860832476
 20
539.4056124984734
 10
2779.222558740559
 20
539.4056124984734
 10
2774.212337120957
 20
544.8929980818474
 10
2764.201916198202
 20
547.6339466678397
 10
2762.5476544588637
 20
550.351662382467
 10
2737.6598234755847
 20
547.6258523223937
 10
2735.9895325682714
 20
544.881802974664
 10
2729.322865901605
 20
544.881802974664
 10
2727.656199234938
 20
542.1437077365687
 10
2720.989532568271
 20
542.1437077365687
 10
2719.3228659016045
 20
539.4056124984734
 10
2705.9895325682714
 20
539.4056124984734
 10
2704.3228659016045
 20
536.6675172603782
 10
2695.8771340983963
 20
536.6675172603782
 10
2694.2104674317293
 20
539.4056124984734
 10
2690.877134098396
 20
539.4056124984734
 10
2688.333333333334
 20
543.5847137553616
 10
2688.333333333334
 20
549.1169874320615
 10
2690.0000000000005
 20
551.8550826701567
 10
2690.0000000000005
 20
565.536500674903
 10
2699.198576012353
 20
588.8913267841876
 10
3017.656199234938
 20
588.8913267841876
 10
3020.2000000000003
 20
584.7122255272999
 10
3020.2000000000003
 20
529.8854498929103
 10
3014.312834220393
 20
522.977041069902
 10
3007.644107926108
 20
522.977041069902
 10
3002.6441079261076
 20
517.5008505937116
 10
2995.9895325682714
 20
517.5008505937116
 10
2992.656199234938
 20
512.024660117521
 10
2989.3228659016045
 20
512.024660117521
 10
2987.6561992349384
 20
509.2865648794258
 10
2980.9895325682714
 20
509.2865648794258
 10
2979.3108314290575
 20
506.52869872214626
 10
2975.036458466498
 20
507.9331355527017
  0
LWPOLYLINE
  5
33
330
17
100
AcDbEntity
  8
K
100
AcDbPolyline
 90
23
 70
1
 10
2937.54091832188
 20
246.43415746465502
 10
2935.877134098396
 20
249.16751726037822
 10
2904.2104674317293
 20
249.16751726037822
 10
2902.5438007650623
 20
251.90561249847343
 10
2892.5438007650628
 20
251.90561249847343
 10
2889.982931199845
 20
256.1127553556163
 10
2893.33667766413
 20
261.6224816897993
 10
2895.003344330797
 20
275.3129578802754
 10
2896.666666666667
 20
278.0455588606332
 10
2896.666666666667
 20
286.25049395179127
 10
2902.5529617765096
 20
301.4467456129157
 10
2914.3099398403087
 20
293.1688733026896
 10
2924.331417135132
 20
290.42489737672605
 10
2925.989532568271
 20
287.70085059371155
 10
2934.302472500858
 20
287.70085059371155
 10
2944.302472500858
 20
279.4865648794258
 10
2959.2308608324756
 20
279.4865648794258
 10
2965.9522481043705
 20
285.00770442419656
 10
2976.866666666667
 20
269.8354632359494
 10
2976.866666666667
 20
261.5740653952308
 10
2973.525322190225
 20
250.59536211549204
 10
2969.3198401769755
 20
243.68635595086852
 10
2937.54091832188
 20
246.43415746465502
  0
LWPOLYLINE
  5
34
330
17
100
AcDbEntity
  8
K
100
AcDbPolyline
 90
38
 70
1
 10
2758.374251655213
 20
176.61272889322643
 10
2754.2104674317293
 20
183.4532315460925
 10
2750.877134098396
 20
183.4532315460925
 10
2747.5438007650628
 20
188.92942202228303
 10
2725.9895325682714
 20
188.92942202228303
 10
2724.322865901605
 20
186.1913267841877
 10
2717.6358058341916
 20
186.1913267841877
 10
2714.266666666667
 20
183.42381961086397
 10
2704.230860832476
 20
191.66751726037822
 10
2669.2104674317293
 20
191.66751726037822
 10
2666.649597866512
 20
195.87466011752107
 10
2668.3333333333335
 20
198.640796955871
 10
2668.3333333333335
 20
242.45032076539485
 10
2670.0000000000005
 20
245.18841600349006
 10
2670.0000000000005
 20
253.41877928586965
 10
2677.5612259546792
 20
260.31989821275914
 10
2684.206358604217
 20
260.31989821275914
 10
2695.0071068857255
 20
280.7938441310046
 10
2698.341344476442
 20
291.74919621478745
 10
2707.608762376053
 20
306.9742399070054
 10
2715.194835618434
 20
291.74188649174926
 10
2720.19387403738
 20
269.84133722779524
 10
2725.1958453579095
 20
261.6238129154963
 10
2726.862512024576
 20
250.67143196311537
 10
2729.322865901605
 20
246.629422022283
 10
2737.656199234938
 20
246.629422022283
 10
2739.3228659016045
 20
243.89132678418778
 10
2745.9895325682714
 20
243.89132678418778
 10
2747.656199234938
 20
241.15323154609248
 10
2755.877134098396
 20
241.15323154609248
 10
2757.6000000000004
 20
243.98365409872824
 10
2763.526823149887
 20
234.24673035248577
 10
2770.2000000000003
 20
206.8390397180918
 10
2770.2000000000003
 20
201.37036758215643
 10
2776.8666666666672
 20
184.94179615358507
 10
2776.8666666666672
 20
179.41804708869492
 10
2774.319840176976
 20
175.23397499848747
 10
2758.374251655213
 20
176.61272889322643
  0
LWPOLYLINE
  5
35
330
17
100
AcDbEntity
  8
K
100
AcDbPolyline
 90
60
 70
1
 10
3113.333333333334
 20
472.38043575642354
 10
3113.333333333334
 20
483.34661851726634
 10
3111.6666666666674
 20
486.0847137553616
 10
3111.6666666666674
 20
510.72757089821874
 10
3110.000000000001
 20
513.465666136314
 10
3110.000000000001
 20
527.2122255272997
 10
3112.5438007650628
 20
531.3913267841876
 10
3324.322865901605
 20
531.3913267841876
 10
3327.644164762391
 20
525.9349072271816
 10
3335.9774980957245
 20
528.6730024652768
 10
3337.6000000000004
 20
526.0074636225377
 10
3340.9172569628145
 20
531.457242918589
 10
3345.917256962814
 20
525.9810524423985
 10
3349.2104674317297
 20
531.3913267841876
 10
3352.6561992349384
 20
531.3913267841876
 10
3357.6561992349384
 20
523.1770410699021
 10
3379.2104674317293
 20
523.1770410699021
 10
3380.933333333334
 20
526.0074636225377
 10
3382.6000000000004
 20
523.2693683844425
 10
3384.2104674317297
 20
525.9151363079973
 10
3387.5438007650628
 20
525.9151363079973
 10
3390.8771340983963
 20
531.3913267841876
 10
3399.302472500858
 20
531.3913267841876
 10
3402.600000000001
 20
528.682643481321
 10
3405.9588642118956
 20
531.4417105125202
 10
3410.9895325682714
 20
523.1770410699021
 10
3417.6561992349384
 20
523.1770410699021
 10
3420.2000000000007
 20
518.9979398130139
 10
3420.2000000000007
 20
513.465666136314
 10
3418.5333333333338
 20
510.72757089821874
 10
3418.5333333333338
 20
497.0370947077425
 10
3414.321285366625
 20
490.1173016195784
 10
3354.20892689814
 20
492.8605243274656
 10
3352.5438007650628
 20
495.5960886889497
 10
3347.656199234938
 20
495.5960886889497
 10
3345.9895325682714
 20
492.85799345085434
 10
3324.322865901605
 20
492.85799345085434
 10
3322.656199234938
 20
490.11989821275915
 10
3310.989532568272
 20
490.11989821275915
 10
3309.322865901605
 20
487.3818029746639
 10
3294.310774592775
 20
487.3818029746639
 10
3279.310774592775
 20
470.95323154609247
 10
3259.322865901605
 20
470.95323154609247
 10
3257.6561992349384
 20
468.2151363079973
 10
3254.2144151386137
 20
468.2151363079973
 10
3240.8810818052807
 20
487.3818029746639
 10
3237.5438007650628
 20
487.3818029746639
 10
3235.8771340983963
 20
490.11989821275915
 10
3220.9895325682714
 20
490.11989821275915
 10
3219.322865901605
 20
487.3818029746639
 10
3180.889225407226
 20
487.3818029746639
 10
3165.9494097038532
 20
503.7444582688341
 10
3162.6561992349384
 20
498.3341839270449
 10
3157.6395839791276
 20
498.3341839270449
 10
3145.9729173124606
 20
487.3818029746639
 10
3140.977441259442
 20
487.3818029746639
 10
3130.9774412594415
 20
476.429422022283
 10
3125.9743338929015
 20
476.429422022283
 10
3117.600000000001
 20
468.17472147070924
 10
3113.333333333334
 20
472.38043575642354
  0
LWPOLYLINE
  5
36
330
17
100
AcDbEntity
  8
K
100
AcDbPolyline
 90
61
 70
1
 10
3262.539927538224
 20
150.60245184732725
 10
3260.873509857749
 20
153.34013803667946
 10
3235.873509857749
 20
156.07823327477465
 10
3231.6436328061477
 20
163.02731700240614
 10
3237.553832446274
 20
169.96275535561634
 10
3249.2367502180464
 20
169.96275535561634
 10
3257.57008355138
 20
175.43894583180673
 10
3262.5438007650628
 20
175.43894583180673
 10
3264.2104674317297
 20
178.17704106990195
 10
3275.8975274991426
 20
178.17704106990195
 10
3282.600000000001
 20
183.682643481321
 10
3289.3024725008586
 20
178.17704106990195
 10
3292.641000559568
 20
178.17704106990195
 10
3300.8997382373536
 20
170.03628535894188
 10
3305.0017890310896
 20
179.47100218453383
 10
3306.6679498943126
 20
198.63185211159862
 10
3310.0000000000005
 20
209.5800167445736
 10
3310.0000000000005
 20
217.75138042202823
 10
3305.8771340983963
 20
224.52466011752114
 10
3245.8771340983963
 20
224.52466011752114
 10
3243.332107238213
 20
228.70577567353578
 10
3245.001587810093
 20
267.10382882676384
 10
3250.8871657796076
 20
274.0103744032354
 10
3255.8771340983963
 20
274.0103744032354
 10
3257.5438007650628
 20
276.7484696413306
 10
3270.8975274991426
 20
276.7484696413306
 10
3277.564194165809
 20
282.2246601175211
 10
3289.310774592775
 20
282.2246601175211
 10
3299.310774592775
 20
271.27227916514005
 10
3304.322865901605
 20
271.27227916514005
 10
3305.958864211895
 20
268.58456765537744
 10
3309.2765258383615
 20
271.3097897056886
 10
3314.310774592775
 20
265.7960886889497
 10
3320.9691391675256
 20
265.7960886889497
 10
3324.3432593023513
 20
263.0244900067711
 10
3326.8666666666672
 20
258.8788921939663
 10
3326.8666666666672
 20
253.38954055409747
 10
3330.191988856892
 20
242.4634819290732
 10
3335.2000000000007
 20
234.23603505110913
 10
3335.2000000000007
 20
228.75260169874366
 10
3339.3322313293106
 20
219.2484696413306
 10
3369.322865901605
 20
219.2484696413306
 10
3371.866666666667
 20
215.06936838444247
 10
3371.866666666667
 20
201.36573103028786
 10
3373.5460334081176
 20
195.84781173695086
 10
3364.3216429173062
 20
186.20413076928466
 10
3355.99958047692
 20
183.46973882458616
 10
3352.6561992349384
 20
177.977041069902
 10
3347.6441079261085
 20
177.977041069902
 10
3342.680381852598
 20
172.54057917986677
 10
3340.2000000000007
 20
168.46566613631387
 10
3340.2000000000007
 20
160.25138042202812
 10
3337.6561992349384
 20
156.07227916514012
 10
3334.2104674317293
 20
156.07227916514012
 10
3332.5438007650628
 20
158.8103744032353
 10
3320.9034168847134
 20
158.8103744032353
 10
3312.57008355138
 20
164.28656487942584
 10
3304.230860832476
 20
164.28656487942584
 10
3300.948979498832
 20
166.98239597491883
 10
3285.9774658064644
 20
147.85212847911532
 10
3262.539927538224
 20
150.60245184732725
  0
LWPOLYLINE
  5
37
330
17
100
AcDbEntity
  8
K
100
AcDbPolyline
 90
20
 70
1
 10
3275.0432873791965
 20
1.3707416323963661
 10
3273.307976403172
 20
4.221609664437853
 10
3282.557271039454
 20
13.891326784187697
 10
3287.543800765063
 20
13.891326784187697
 10
3290.877134098396
 20
19.36751726037822
 10
3294.2225587405596
 20
19.36751726037822
 10
3299.2225587405596
 20
24.843707736568632
 10
3304.222558740559
 20
24.843707736568632
 10
3309.2079354896005
 20
30.30388227123304
 10
3322.531646300476
 20
35.776120639985365
 10
3325.8630363564894
 20
41.24911858915037
 10
3342.529703023156
 20
49.4634043034361
 10
3345.8771340983963
 20
54.962755355616345
 10
3355.989532568272
 20
54.962755355616345
 10
3359.335020366192
 20
49.466596830461505
 10
3366.0016870328586
 20
46.7285015923663
 10
3368.533333333334
 20
42.56936838444258
 10
3368.533333333334
 20
4.179951850599606
 10
3365.989014815578
 20
0.0
 10
3275.0432873791965
 20
1.3707416323963661
  0
LWPOLYLINE
  5
38
330
17
100
AcDbEntity
  8
K
100
AcDbPolyline
 90
26
 70
1
 10
3108.3722568097564
 20
239.59219661552478
 10
3106.6666666666674
 20
242.39423756488543
 10
3106.6666666666674
 20
269.83127314634726
 10
3108.333333333334
 20
272.56936838444244
 10
3108.333333333334
 20
286.2598445749186
 10
3110.8771340983963
 20
290.43894583180673
 10
3127.5438007650628
 20
290.43894583180673
 10
3129.2104674317293
 20
293.17704106990203
 10
3170.989532568272
 20
293.17704106990203
 10
3174.3228659016054
 20
287.70085059371155
 10
3177.656199234938
 20
287.70085059371155
 10
3185.203460046188
 20
275.30177926094456
 10
3183.529989002537
 20
261.55540997381433
 10
3181.8666666666677
 20
258.8228089934569
 10
3181.8666666666677
 20
250.60852327917115
 10
3179.322865901605
 20
246.429422022283
 10
3174.3228659016054
 20
246.429422022283
 10
3172.6561992349384
 20
243.69132678418782
 10
3155.9895325682714
 20
243.69132678418782
 10
3154.322865901605
 20
240.9532315460925
 10
3142.543800765063
 20
240.9532315460925
 10
3139.2666666666673
 20
246.33709470774255
 10
3135.9895325682714
 20
240.9532315460925
 10
3119.322865901605
 20
240.9532315460925
 10
3117.650897102982
 20
238.20642566264038
 10
3108.3722568097564
 20
239.59219661552478
  0
LWPOLYLINE
  5
39
330
17
100
AcDbEntity
  8
K
100
AcDbPolyline
 90
12
 70
1
 10
4581.728832942371
 20
365.5382306462971
 10
4578.333333333333
 20
368.3273910394353
 10
4578.333333333333
 20
415.01769538940937
 10
4607.654572988205
 20
416.39399847525016
 10
4610.200000000001
 20
412.2122255272996
 10
4610.200000000001
 20
401.2598445749186
 10
4611.866666666668
 20
398.5217493368234
 10
4611.866666666668
 20
379.3550826701567
 10
4613.533333333333
 20
376.61698743206153
 10
4613.533333333333
 20
368.34661851726634
 10
4610.987906321537
 20
364.16484556931573
 10
4581.728832942371
 20
365.5382306462971
  0
ENDSEC
  0
SECTION
  2
OBJECTS
  0
DICTIONARY
  5
A
330
0
100
AcDbDictionary
281
1
  3
ACAD_COLOR
350
B
  3
ACAD_GROUP
350
C
  3
ACAD_LAYOUT
350
D
  3
ACAD_MATERIAL
350
E
  3
ACAD_MLEADERSTYLE
350
F
  3
ACAD_MLINESTYLE
350
10
  3
ACAD_PLOTSETTINGS
350
11
  3
ACAD_PLOTSTYLENAME
350
12
  3
ACAD_SCALELIST
350
14
  3
ACAD_TABLESTYLE
350
15
  3
ACAD_VISUALSTYLE
350
16
  3
EZDXF_META
350
2D
  0
DICTIONARY
  5
B
330
A
100
AcDbDictionary
281
1
  0
DICTIONARY
  5
C
330
A
100
AcDbDictionary
281
1
  0
DICTIONARY
  5
D
330
A
100
AcDbDictionary
281
1
  3
Model
350
1A
  3
Layout1
350
1E
  0
DICTIONARY
  5
E
330
A
100
AcDbDictionary
281
1
  3
ByBlock
350
1F
  3
ByLayer
350
20
  3
Global
350
21
  0
DICTIONARY
  5
F
330
A
100
AcDbDictionary
281
1
  3
Standard
350
2C
  0
DICTIONARY
  5
10
330
A
100
AcDbDictionary
281
1
  3
Standard
350
22
  0
DICTIONARY
  5
11
330
A
100
AcDbDictionary
281
1
  0
ACDBDICTIONARYWDFLT
  5
12
330
A
100
AcDbDictionary
281
1
  3
Normal
350
13
100
AcDbDictionaryWithDefault
340
13
  0
ACDBPLACEHOLDER
  5
13
330
12
  0
DICTIONARY
  5
14
330
A
100
AcDbDictionary
281
1
  0
DICTIONARY
  5
15
330
A
100
AcDbDictionary
281
1
  0
DICTIONARY
  5
16
330
A
100
AcDbDictionary
281
1
  0
LAYOUT
  5
1A
330
D
100
AcDbPlotSettings
  1

  4
A3
  6

 40
7.5
 41
20.0
 42
7.5
 43
20.0
 44
420.0
 45
297.0
 46
0.0
 47
0.0
 48
0.0
 49
0.0
140
0.0
141
0.0
142
1.0
143
1.0
 70
1024
 72
1
 73
0
 74
5
  7

 75
16
 76
0
 77
2
 78
300
147
1.0
148
0.0
149
0.0
100
AcDbLayout
  1
Model
 70
1
 71
0
 10
0.0
 20
0.0
 11
420.0
 21
297.0
 12
0.0
 22
0.0
 32
0.0
 14
1e+20
 24
1e+20
 34
1e+20
 15
-1e+20
 25
-1e+20
 35
-1e+20
146
0.0
 13
0.0
 23
0.0
 33
0.0
 16
1.0
 26
0.0
 36
0.0
 17
0.0
 27
1.0
 37
0.0
 76
1
330
17
  0
LAYOUT
  5
1E
330
D
100
AcDbPlotSettings
  1

  4
A3
  6

 40
7.5
 41
20.0
 42
7.5
 43
20.0
 44
420.0
 45
297.0
 46
0.0
 47
0.0
 48
0.0
 49
0.0
140
0.0
141
0.0
142
1.0
143
1.0
 70
0
 72
1
 73
0
 74
5
  7

 75
16
 76
0
 77
2
 78
300
147
1.0
148
0.0
149
0.0
100
AcDbLayout
  1
Layout1
 70
1
 71
1
 10
0.0
 20
0.0
 11
420.0
 21
297.0
 12
0.0
 22
0.0
 32
0.0
 14
1e+20
 24
1e+20
 34
1e+20
 15
-1e+20
 25
-1e+20
 35
-1e+20
146
0.0
 13
0.0
 23
0.0
 33
0.0
 16
1.0
 26
0.0
 36
0.0
 17
0.0
 27
1.0
 37
0.0
 76
1
330
1B
  0
MATERIAL
  5
1F
102
{ACAD_REACTORS
330
E
102
}
330
E
100
AcDbMaterial
  1
ByBlock
  2

 70
0
 40
1.0
 71
1
 41
1.0
 91
-1023410177
 42
1.0
 72
1
  3

 73
1
 74
1
 75
1
 44
0.5
 73
0
 45
1.0
 46
1.0
 77
1
  4

 78
1
 79
1
170
1
 48
1.0
171
1
  6

172
1
173
1
174
1
140
1.0
141
1.0
175
1
  7

176
1
177
1
178
1
143
1.0
179
1
  8

270
1
271
1
272
1
145
1.0
146
1.0
273
1
  9

274
1
275
1
276
1
 42
1.0
 72
1
  3

 73
1
 74
1
 75
1
 94
63
  0
MATERIAL
  5
20
102
{ACAD_REACTORS
330
E
102
}
330
E
100
AcDbMaterial
  1
ByLayer
  2

 70
0
 40
1.0
 71
1
 41
1.0
 91
-1023410177
 42
1.0
 72
1
  3

 73
1
 74
1
 75
1
 44
0.5
 73
0
 45
1.0
 46
1.0
 77
1
  4

 78
1
 79
1
170
1
 48
1.0
171
1
  6

172
1
173
1
174
1
140
1.0
141
1.0
175
1
  7

176
1
177
1
178
1
143
1.0
179
1
  8

270
1
271
1
272
1
145
1.0
146
1.0
273
1
  9

274
1
275
1
276
1
 42
1.0
 72
1
  3

 73
1
 74
1
 75
1
 94
63
  0
MATERIAL
  5
21
102
{ACAD_REACTORS
330
E
102
}
330
E
100
AcDbMaterial
  1
Global
  2

 70
0
 40
1.0
 71
1
 41
1.0
 91
-1023410177
 42
1.0
 72
1
  3

 73
1
 74
1
 75
1
 44
0.5
 73
0
 45
1.0
 46
1.0
 77
1
  4

 78
1
 79
1
170
1
 48
1.0
171
1
  6

172
1
173
1
174
1
140
1.0
141
1.0
175
1
  7

176
1
177
1
178
1
143
1.0
179
1
  8

270
1
271
1
272
1
145
1.0
146
1.0
273
1
  9

274
1
275
1
276
1
 42
1.0
 72
1
  3

 73
1
 74
1
 75
1
 94
63
  0
MLINESTYLE
  5
22
102
{ACAD_REACTORS
330
10
102
}
330
10
100
AcDbMlineStyle
  2
Standard
 70
0
  3

 62
256
 51
90.0
 52
90.0
 71
2
 49
0.5
 62
256
  6
BYLAYER
 49
-0.5
 62
256
  6
BYLAYER
  0
MLEADERSTYLE
  5
2C
102
{ACAD_REACTORS
330
F
102
}
330
F
100
AcDbMLeaderStyle
179
2
170
2
171
1
172
0
 90
2
 40
0.0
 41
0.0
173
1
 91
-1056964608
 92
-2
290
1
 42
2.0
291
1
 43
8.0
  3
Standard
 44
4.0
300

342
29
174
1
175
1
176
0
178
1
 93
-1056964608
 45
4.0
292
0
297
0
 46
4.0
 94
-1056964608
 47
1.0
 49
1.0
140
1.0
294
1
141
0.0
177
0
142
1.0
295
0
296
0
143
3.75
271
0
272
9
273
9
  0
DICTIONARY
  5
2D
330
A
100
AcDbDictionary
280
1
281
1
  3
CREATED_BY_EZDXF
350
2E
  3
WRITTEN_BY_EZDXF
350
3C
  0
DICTIONARYVAR
  5
2E
330
2D
100
DictionaryVariables
280
0
  1
1.4.4 @ 2026-07-21T08:09:32.724059+00:00
  0
DICTIONARYVAR
  5
3C
330
2D
100
DictionaryVariables
280
0
  1
1.4.4 @ 2026-07-21T08:09:32.727207+00:00
  0
ENDSEC
  0
EOF
