  0
SECTION
  2
HEADER
  9
$ACADVER
  1
AC1027
  9
$ACADMAINTVER
 70
105
  9
$DWGCODEPAGE
  3
ANSI_1252
  9
$LASTSAVEDBY
  1
ezdxf
  9
$REQUIREDVERSIONS
160
0
  9
$INSBASE
 10
0.0
 20
0.0
 30
0.0
  9
$EXTMIN
 10
1e+20
 20
1e+20
 30
1e+20
  9
$EXTMAX
 10
-1e+20
 20
-1e+20
 30
-1e+20
  9
$LIMMIN
 10
0.0
 20
0.0
  9
$LIMMAX
 10
420.0
 20
297.0
  9
$ORTHOMODE
 70
0
  9
$REGENMODE
 70
1
  9
$FILLMODE
 70
1
  9
$QTEXTMODE
 70
0
  9
$MIRRTEXT
 70
1
  9
$LTSCALE
 40
1.0
  9
$ATTMODE
 70
1
  9
$TEXTSIZE
 40
2.5
  9
$TRACEWID
 40
1.0
  9
$TEXTSTYLE
  7
Standard
  9
$CLAYER
  8
0
  9
$CELTYPE
  6
ByLayer
  9
$CECOLOR
 62
256
  9
$CELTSCALE
 40
1.0
  9
$DISPSILH
 70
0
  9
$DIMSCALE
 40
1.0
  9
$DIMASZ
 40
2.5
  9
$DIMEXO
 40
0.625
  9
$DIMDLI
 40
3.75
  9
$DIMRND
 40
0.0
  9
$DIMDLE
 40
0.0
  9
$DIMEXE
 40
1.25
  9
$DIMTP
 40
0.0
  9
$DIMTM
 40
0.0
  9
$DIMTXT
 40
2.5
  9
$DIMCEN
 40
2.5
  9
$DIMTSZ
 40
0.0
  9
$DIMTOL
 70
0
  9
$DIMLIM
 70
0
  9
$DIMTIH
 70
0
  9
$DIMTOH
 70
0
  9
$DIMSE1
 70
0
  9
$DIMSE2
 70
0
  9
$DIMTAD
 70
1
  9
$DIMZIN
 70
8
  9
$DIMBLK
  1

  9
$DIMASO
 70
1
  9
$DIMSHO
 70
1
  9
$DIMPOST
  1

  9
$DIMAPOST
  1

  9
$DIMALT
 70
0
  9
$DIMALTD
 70
3
  9
$DIMALTF
 40
0.03937007874
  9
$DIMLFAC
 40
1.0
  9
$DIMTOFL
 70
1
  9
$DIMTVP
 40
0.0
  9
$DIMTIX
 70
0
  9
$DIMSOXD
 70
0
  9
$DIMSAH
 70
0
  9
$DIMBLK1
  1

  9
$DIMBLK2
  1

  9
$DIMSTYLE
  2
ISO-25
  9
$DIMCLRD
 70
0
  9
$DIMCLRE
 70
0
  9
$DIMCLRT
 70
0
  9
$DIMTFAC
 40
1.0
  9
$DIMGAP
 40
0.625
  9
$DIMJUST
 70
0
  9
$DIMSD1
 70
0
  9
$DIMSD2
 70
0
  9
$DIMTOLJ
 70
0
  9
$DIMTZIN
 70
8
  9
$DIMALTZ
 70
0
  9
$DIMALTTZ
 70
0
  9
$DIMUPT
 70
0
  9
$DIMDEC
 70
2
  9
$DIMTDEC
 70
2
  9
$DIMALTU
 70
2
  9
$DIMALTTD
 70
3
  9
$DIMTXSTY
  7
Standard
  9
$DIMAUNIT
 70
0
  9
$DIMADEC
 70
0
  9
$DIMALTRND
 40
0.0
  9
$DIMAZIN
 70
0
  9
$DIMDSEP
 70
44
  9
$DIMATFIT
 70
3
  9
$DIMFRAC
 70
0
  9
$DIMLDRBLK
  1

  9
$DIMLUNIT
 70
2
  9
$DIMLWD
 70
-2
  9
$DIMLWE
 70
-2
  9
$DIMTMOVE
 70
0
  9
$DIMFXL
 40
1.0
  9
$DIMFXLON
 70
0
  9
$DIMJOGANG
 40
0.785398163397
  9
$DIMTFILL
 70
0
  9
$DIMTFILLCLR
 70
0
  9
$DIMARCSYM
 70
0
  9
$DIMLTYPE
  6

  9
$DIMLTEX1
  6

  9
$DIMLTEX2
  6

  9
$DIMTXTDIRECTION
 70
0
  9
$LUNITS
 70
2
  9
$LUPREC
 70
4
  9
$SKETCHINC
 40
1.0
  9
$FILLETRAD
 40
10.0
  9
$AUNITS
 70
0
  9
$AUPREC
 70
2
  9
$MENU
  1
.
  9
$ELEVATION
 40
0.0
  9
$PELEVATION
 40
0.0
  9
$THICKNESS
 40
0.0
  9
$LIMCHECK
 70
0
  9
$CHAMFERA
 40
0.0
  9
$CHAMFERB
 40
0.0
  9
$CHAMFERC
 40
0.0
  9
$CHAMFERD
 40
0.0
  9
$SKPOLY
 70
0
  9
$TDCREATE
 40
2461243.464953704
  9
$TDUCREATE
 40
2458532.153996898
  9
$TDUPDATE
 40
2461243.464953704
  9
$TDUUPDATE
 40
2458532.1544311
  9
$TDINDWG
 40
0.0
  9
$TDUSRTIMER
 40
0.0
  9
$USRTIMER
 70
1
  9
$ANGBASE
 50
0.0
  9
$ANGDIR
 70
0
  9
$PDMODE
 70
0
  9
$PDSIZE
 40
0.0
  9
$PLINEWID
 40
0.0
  9
$SPLFRAME
 70
0
  9
$SPLINETYPE
 70
6
  9
$SPLINESEGS
 70
8
  9
$HANDSEED
  5
3C
  9
$SURFTAB1
 70
6
  9
$SURFTAB2
 70
6
  9
$SURFTYPE
 70
6
  9
$SURFU
 70
6
  9
$SURFV
 70
6
  9
$UCSBASE
  2

  9
$UCSNAME
  2

  9
$UCSORG
 10
0.0
 20
0.0
 30
0.0
  9
$UCSXDIR
 10
1.0
 20
0.0
 30
0.0
  9
$UCSYDIR
 10
0.0
 20
1.0
 30
0.0
  9
$UCSORTHOREF
  2

  9
$UCSORTHOVIEW
 70
0
  9
$UCSORGTOP
 10
0.0
 20
0.0
 30
0.0
  9
$UCSORGBOTTOM
 10
0.0
 20
0.0
 30
0.0
  9
$UCSORGLEFT
 10
0.0
 20
0.0
 30
0.0
  9
$UCSORGRIGHT
 10
0.0
 20
0.0
 30
0.0
  9
$UCSORGFRONT
 10
0.0
 20
0.0
 30
0.0
  9
$UCSORGBACK
 10
0.0
 20
0.0
 30
0.0
  9
$PUCSBASE
  2

  9
$PUCSNAME
  2

  9
$PUCSORG
 10
0.0
 20
0.0
 30
0.0
  9
$PUCSXDIR
 10
1.0
 20
0.0
 30
0.0
  9
$PUCSYDIR
 10
0.0
 20
1.0
 30
0.0
  9
$PUCSORTHOREF
  2

  9
$PUCSORTHOVIEW
 70
0
  9
$PUCSORGTOP
 10
0.0
 20
0.0
 30
0.0
  9
$PUCSORGBOTTOM
 10
0.0
 20
0.0
 30
0.0
  9
$PUCSORGLEFT
 10
0.0
 20
0.0
 30
0.0
  9
$PUCSORGRIGHT
 10
0.0
 20
0.0
 30
0.0
  9
$PUCSORGFRONT
 10
0.0
 20
0.0
 30
0.0
  9
$PUCSORGBACK
 10
0.0
 20
0.0
 30
0.0
  9
$USERI1
 70
0
  9
$USERI2
 70
0
  9
$USERI3
 70
0
  9
$USERI4
 70
0
  9
$USERI5
 70
0
  9
$USERR1
 40
0.0
  9
$USERR2
 40
0.0
  9
$USERR3
 40
0.0
  9
$USERR4
 40
0.0
  9
$USERR5
 40
0.0
  9
$WORLDVIEW
 70
1
  9
$SHADEDGE
 70
3
  9
$SHADEDIF
 70
70
  9
$TILEMODE
 70
1
  9
$MAXACTVP
 70
64
  9
$PINSBASE
 10
0.0
 20
0.0
 30
0.0
  9
$PLIMCHECK
 70
0
  9
$PEXTMIN
 10
1e+20
 20
1e+20
 30
1e+20
  9
$PEXTMAX
 10
-1e+20
 20
-1e+20
 30
-1e+20
  9
$PLIMMIN
 10
0.0
 20
0.0
  9
$PLIMMAX
 10
420.0
 20
297.0
  9
$UNITMODE
 70
0
  9
$VISRETAIN
 70
1
  9
$PLINEGEN
 70
0
  9
$PSLTSCALE
 70
1
  9
$TREEDEPTH
 70
3020
  9
$CMLSTYLE
  2
Standard
  9
$CMLJUST
 70
0
  9
$CMLSCALE
 40
20.0
  9
$PROXYGRAPHICS
 70
1
  9
$MEASUREMENT
 70
1
  9
$CELWEIGHT
370
-1
  9
$ENDCAPS
280
0
  9
$JOINSTYLE
280
0
  9
$LWDISPLAY
290
0
  9
$INSUNITS
 70
4
  9
$HYPERLINKBASE
  1

  9
$STYLESHEET
  1

  9
$XEDIT
290
1
  9
$CEPSNTYPE
380
0
  9
$PSTYLEMODE
290
1
  9
$FINGERPRINTGUID
  2
{F9DCEC1C-9C93-4EB1-8369-9A2C09D80BCF}
  9
$VERSIONGUID
  2
{962AC24A-CC16-4766-86B3-C552DB5A5E87}
  9
$EXTNAMES
290
1
  9
$PSVPSCALE
 40
0.0
  9
$OLESTARTUP
290
0
  9
$SORTENTS
280
127
  9
$INDEXCTL
280
0
  9
$HIDETEXT
280
1
  9
$XCLIPFRAME
280
1
  9
$HALOGAP
280
0
  9
$OBSCOLOR
 70
257
  9
$OBSLTYPE
280
0
  9
$INTERSECTIONDISPLAY
280
0
  9
$INTERSECTIONCOLOR
 70
257
  9
$DIMASSOC
280
2
  9
$PROJECTNAME
  1

  9
$CAMERADISPLAY
290
0
  9
$LENSLENGTH
 40
50.0
  9
$CAMERAHEIGHT
 40
0.0
  9
$STEPSPERSEC
 40
24.0
  9
$STEPSIZE
 40
100.0
  9
$3DDWFPREC
 40
2.0
  9
$PSOLWIDTH
 40
0.005
  9
$PSOLHEIGHT
 40
0.08
  9
$LOFTANG1
 40
1.570796326795
  9
$LOFTANG2
 40
1.570796326795
  9
$LOFTMAG1
 40
0.0
  9
$LOFTMAG2
 40
0.0
  9
$LOFTPARAM
 70
7
  9
$LOFTNORMALS
280
1
  9
$LATITUDE
 40
37.795
  9
$LONGITUDE
 40
-122.394
  9
$NORTHDIRECTION
 40
0.0
  9
$TIMEZONE
 70
-8000
  9
$LIGHTGLYPHDISPLAY
280
1
  9
$TILEMODELIGHTSYNCH
280
1
  9
$CMATERIAL
347
20
  9
$SOLIDHIST
280
0
  9
$SHOWHIST
280
1
  9
$DWFFRAME
280
2
  9
$DGNFRAME
280
2
  9
$REALWORLDSCALE
290
1
  9
$INTERFERECOLOR
 62
256
  9
$CSHADOW
280
0
  9
$SHADOWPLANELOCATION
 40
0.0
  0
ENDSEC
  0
SECTION
  2
CLASSES
  0
CLASS
  1
ACDBDICTIONARYWDFLT
  2
AcDbDictionaryWithDefault
  3
ObjectDBX Classes
 90
0
 91
0
280
0
281
0
  0
CLASS
  1
SUN
  2
AcDbSun
  3
SCENEOE
 90
1153
 91
0
280
0
281
0
  0
CLASS
  1
VISUALSTYLE
  2
AcDbVisualStyle
  3
ObjectDBX Classes
 90
4095
 91
0
280
0
281
0
  0
CLASS
  1
MATERIAL
  2
AcDbMaterial
  3
ObjectDBX Classes
 90
1153
 91
0
280
0
281
0
  0
CLASS
  1
SCALE
  2
AcDbScale
  3
ObjectDBX Classes
 90
1153
 91
0
280
0
281
0
  0
CLASS
  1
TABLESTYLE
  2
AcDbTableStyle
  3
ObjectDBX Classes
 90
4095
 91
0
280
0
281
0
  0
CLASS
  1
MLEADERSTYLE
  2
AcDbMLeaderStyle
  3
ACDB_MLEADERSTYLE_CLASS
 90
4095
 91
0
280
0
281
0
  0
CLASS
  1
DICTIONARYVAR
  2
AcDbDictionaryVar
  3
ObjectDBX Classes
 90
0
 91
0
280
0
281
0
  0
CLASS
  1
CELLSTYLEMAP
  2
AcDbCellStyleMap
  3
ObjectDBX Classes
 90
1152
 91
0
280
0
281
0
  0
CLASS
  1
MENTALRAYRENDERSETTINGS
  2
AcDbMentalRayRenderSettings
  3
SCENEOE
 90
1024
 91
0
280
0
281
0
  0
CLASS
  1
ACDBDETAILVIEWSTYLE
  2
AcDbDetailViewStyle
  3
ObjectDBX Classes
 90
1025
 91
0
280
0
281
0
  0
CLASS
  1
ACDBSECTIONVIEWSTYLE
  2
AcDbSectionViewStyle
  3
ObjectDBX Classes
 90
1025
 91
0
280
0
281
0
  0
CLASS
  1
RASTERVARIABLES
  2
AcDbRasterVariables
  3
ISM
 90
0
 91
0
280
0
281
0
  0
CLASS
  1
LAYOUT
  2
AcDbLayout
  3
ObjectDBX Classes
 90
0
 91
0
280
0
281
0
  0
CLASS
  1
ACDBPLACEHOLDER
  2
AcDbPlaceHolder
  3
ObjectDBX Classes
 90
0
 91
0
280
0
281
0
  0
ENDSEC
  0
SECTION
  2
TABLES
  0
TABLE
  2
VPORT
  5
8
330
0
100
AcDbSymbolTable
 70
1
  0
VPORT
  5
23
330
8
100
AcDbSymbolTableRecord
100
AcDbViewportTableRecord
  2
*Active
 70
0
 10
0.0
 20
0.0
 11
1.0
 21
1.0
 12
0.0
 22
0.0
 13
0.0
 23
0.0
 14
0.5
 24
0.5
 15
0.5
 25
0.5
 16
0.0
 26
0.0
 36
1.0
 17
0.0
 27
0.0
 37
0.0
 40
1000.0
 41
1.34
 42
50.0
 43
0.0
 44
0.0
 50
0.0
 51
0.0
 71
0
 72
1000
 73
1
 74
3
 75
0
 76
0
 77
0
 78
0
281
0
 65
0
146
0.0
  0
ENDTAB
  0
TABLE
  2
LTYPE
  5
2
330
0
100
AcDbSymbolTable
 70
3
  0
LTYPE
  5
24
330
2
100
AcDbSymbolTableRecord
100
AcDbLinetypeTableRecord
  2
ByBlock
 70
0
  3

 72
65
 73
0
 40
0.0
  0
LTYPE
  5
25
330
2
100
AcDbSymbolTableRecord
100
AcDbLinetypeTableRecord
  2
ByLayer
 70
0
  3

 72
65
 73
0
 40
0.0
  0
LTYPE
  5
26
330
2
100
AcDbSymbolTableRecord
100
AcDbLinetypeTableRecord
  2
Continuous
 70
0
  3

 72
65
 73
0
 40
0.0
  0
ENDTAB
  0
TABLE
  2
LAYER
  5
1
330
0
100
AcDbSymbolTable
 70
3
  0
LAYER
  5
27
330
1
100
AcDbSymbolTableRecord
100
AcDbLayerTableRecord
  2
0
 70
0
 62
7
  6
Continuous
370
-3
390
13
347
21
  0
LAYER
  5
28
330
1
100
AcDbSymbolTableRecord
100
AcDbLayerTableRecord
  2
Defpoints
 70
0
 62
7
  6
Continuous
290
0
370
-3
390
13
347
21
  0
LAYER
  5
2F
330
1
100
AcDbSymbolTableRecord
100
AcDbLayerTableRecord
  2
M
 70
0
 62
7
  6
Continuous
370
-3
390
13
347
21
  0
ENDTAB
  0
TABLE
  2
STYLE
  5
5
330
0
100
AcDbSymbolTable
 70
1
  0
STYLE
  5
29
330
5
100
AcDbSymbolTableRecord
100
AcDbTextStyleTableRecord
  2
Standard
 70
0
 40
0.0
 41
1.0
 50
0.0
 71
0
 42
2.5
  3
txt
  4

  0
ENDTAB
  0
TABLE
  2
VIEW
  5
7
330
0
100
AcDbSymbolTable
 70
0
  0
ENDTAB
  0
TABLE
  2
UCS
  5
6
330
0
100
AcDbSymbolTable
 70
0
  0
ENDTAB
  0
TABLE
  2
APPID
  5
3
330
0
100
AcDbSymbolTable
 70
3
  0
APPID
  5
2A
330
3
100
AcDbSymbolTableRecord
100
AcDbRegAppTableRecord
  2
ACAD
 70
0
  0
APPID
  5
39
330
3
100
AcDbSymbolTableRecord
100
AcDbRegAppTableRecord
  2
HATCHBACKGROUNDCOLOR
 70
0
  0
APPID
  5
3A
330
3
100
AcDbSymbolTableRecord
100
AcDbRegAppTableRecord
  2
EZDXF
 70
0
  0
ENDTAB
  0
TABLE
  2
DIMSTYLE
  5
4
330
0
100
AcDbSymbolTable
 70
1
100
AcDbDimStyleTable
  0
DIMSTYLE
105
2B
330
4
100
AcDbSymbolTableRecord
100
AcDbDimStyleTableRecord
  2
Standard
 70
0
 40
1.0
 41
2.5
 42
0.625
 43
3.75
 44
1.25
 45
0.0
 46
0.0
 47
0.0
 48
0.0
 49
2.5
140
2.5
141
2.5
142
0.0
143
0.03937007874
144
1.0
145
0.0
146
1.0
147
0.625
148
0.0
 69
0
 70
0
 71
0
 72
0
 73
0
 74
0
 75
0
 76
0
 77
1
 78
8
 79
3
170
0
171
3
172
1
173
0
174
0
175
0
176
0
177
0
178
0
179
2
271
2
272
2
273
2
274
3
275
0
276
0
277
2
278
44
279
0
280
0
281
0
282
0
283
0
284
8
285
0
286
0
288
0
289
3
290
0
371
-2
372
-2
  0
ENDTAB
  0
TABLE
  2
BLOCK_RECORD
  5
9
330
0
100
AcDbSymbolTable
 70
2
  0
BLOCK_RECORD
  5
17
330
9
100
AcDbSymbolTableRecord
100
AcDbBlockTableRecord
  2
*Model_Space
340
1A
 70
0
280
1
281
0
  0
BLOCK_RECORD
  5
1B
330
9
100
AcDbSymbolTableRecord
100
AcDbBlockTableRecord
  2
*Paper_Space
340
1E
 70
0
280
1
281
0
  0
ENDTAB
  0
ENDSEC
  0
SECTION
  2
BLOCKS
  0
BLOCK
  5
18
330
17
100
AcDbEntity
  8
0
100
AcDbBlockBegin
  2
*Model_Space
 70
0
 10
0.0
 20
0.0
 30
0.0
  3
*Model_Space
  1

  0
ENDBLK
  5
19
330
17
100
AcDbEntity
  8
0
100
AcDbBlockEnd
  0
BLOCK
  5
1C
330
1B
100
AcDbEntity
  8
0
100
AcDbBlockBegin
  2
*Paper_Space
 70
0
 10
0.0
 20
0.0
 30
0.0
  3
*Paper_Space
  1

  0
ENDBLK
  5
1D
330
1B
100
AcDbEntity
  8
0
100
AcDbBlockEnd
  0
ENDSEC
  0
SECTION
  2
ENTITIES
  0
LWPOLYLINE
  5
30
330
17
100
AcDbEntity
  8
M
100
AcDbPolyline
 90
139
 70
1
 10
0.0
 20
201.37015320842343
 10
2.5495961886405905
 20
205.5587755183329
 10
12.54959618864049
 20
205.5587755183329
 10
14.226211755626995
 20
208.3132153783821
 10
24.226211755627002
 20
205.57512014028688
 10
29.216262855307207
 20
213.77306123261852
 10
40.90332292272025
 20
213.77306123261852
 10
44.272462090244936
 20
216.54056840594237
 10
47.580264545016846
 20
213.82344496095106
 10
50.88292952197382
 20
219.24925170880906
 10
62.549596188640535
 20
219.24925170880906
 10
66.67940705934372
 20
226.03394099639274
 10
71.67246209024492
 20
245.17398528151412
 10
71.67246209024492
 20
250.65909355413797
 10
76.6594738622045
 20
261.5830241022398
 10
72.58026454501687
 20
268.2845822661908
 10
69.26901535627184
 20
265.56462757543596
 10
61.651236801949835
 20
272.51736197025355
 10
66.65947386220449
 20
283.48778600700166
 10
64.27246209024496
 20
287.40930534664955
 10
62.60579542357825
 20
284.67121010855436
 10
55.939128756911536
 20
295.62359106093527
 10
54.27941390852842
 20
292.89691666716277
 10
43.319256041693734
 20
308.13274051501537
 10
48.32205995675653
 20
316.35163266119
 10
44.246931211683545
 20
323.04648702809556
 10
40.974934591102794
 20
320.3587755183329
 10
30.882929521973914
 20
320.3587755183329
 10
29.216262855307207
 20
323.09687075642813
 10
24.21996097184853
 20
323.09687075642813
 10
10.001944878647361
 20
343.7070201352282
 10
11.669002044057851
 20
357.40070399395694
 10
9.988726623423204
 20
360.16115647071376
 10
12.54959618864049
 20
364.3682993278566
 10
22.549596188640496
 20
364.3682993278566
 10
26.655393290089812
 20
371.11353742309484
 10
23.32869014620598
 20
376.57883544518967
 10
25.878398537390048
 20
383.5601798496221
 10
34.228297327854264
 20
380.81664167561246
 10
38.322059956756526
 20
387.54210885166617
 10
36.65539329008982
 20
390.28020408976147
 10
39.27246209024493
 20
394.5796742614448
 10
40.93912875691152
 20
391.8415790233495
 10
44.25638571972546
 20
397.2913583194009
 10
49.25638571972546
 20
391.81516784321036
 10
51.66375327117767
 20
395.77012882059626
 10
49.997086604511075
 20
401.2463192967868
 10
52.54959618864052
 20
405.4397278992853
 10
55.9867592877118
 20
405.4397278992853
 10
62.59409465967114
 20
397.29854681597834
 10
65.89496399452088
 20
402.72140358037433
 10
74.33870923383101
 20
399.9470301446011
 10
76.88117090931212
 20
395.77012882059626
 10
75.21450424264542
 20
390.29393834440583
 10
79.27246209024486
 20
383.62729330906376
 10
81.6637532711777
 20
387.55584310631053
 10
79.997086604511
 20
393.03203358250107
 10
82.54959618864055
 20
397.22544218499957
 10
85.99532799184928
 20
397.22544218499957
 10
87.60579542357827
 20
394.5796742614448
 10
89.99421594111223
 20
398.5035079688221
 10
86.66088260777893
 20
406.7177936831078
 10
89.20621494665882
 20
410.899411096982
 10
97.64996018596894
 20
413.6737845327554
 10
100.22286422373328
 20
409.44687075642815
 10
98.55619755706668
 20
406.70877551833286
 10
102.68617727617557
 20
399.92380883693966
 10
107.58971905305881
 20
394.55326308130566
 10
109.27246209024489
 20
397.31776949954
 10
110.99532799184931
 20
394.4873469469043
 10
116.003404381953
 20
394.4873469469043
 10
121.02048625646312
 20
383.4975485551202
 10
127.68238805926224
 20
378.02527207424953
 10
132.66199465851602
 20
369.84448980404716
 10
150.99532799184934
 20
369.84448980404716
 10
155.93912875691151
 20
361.7225314043019
 10
160.88292952197392
 20
369.84448980404716
 10
164.32866132518265
 20
369.84448980404716
 10
167.66199465851594
 20
364.3682993278566
 10
177.66199465851597
 20
364.3682993278566
 10
180.95520512743101
 20
358.9580249860675
 10
185.9450064184842
 20
364.42304544769723
 10
193.5499448432103
 20
354.7056241272141
 10
191.87609790847415
 20
349.20584134165256
 10
195.2057954235782
 20
335.5302979760465
 10
195.2057954235782
 20
327.2759720133163
 10
192.67414912310286
 20
323.11683880539243
 10
185.89811653719678
 20
320.33382542189526
 10
183.32205995675653
 20
324.56591837547575
 10
186.6724620902449
 20
330.0701504519209
 10
186.6724620902449
 20
338.2145511572353
 10
182.63939051955836
 20
342.19000741976924
 10
178.54759082550743
 20
332.77886812345224
 10
181.87961390110897
 20
324.5678112585769
 10
179.34240084815033
 20
317.6206802802377
 10
162.66199465851594
 20
317.6206802802377
 10
160.99532799184934
 20
314.8825850421424
 10
155.8829295219738
 20
314.8825850421424
 10
154.27246209024491
 20
317.52835296569725
 10
152.66199465851594
 20
314.8825850421424
 10
147.5495961886405
 20
314.8825850421424
 10
145.93912875691151
 20
317.52835296569725
 10
144.32866132518262
 20
314.8825850421424
 10
127.66199465851591
 20
314.8825850421424
 10
125.20579542357824
 20
310.84740058474483
 10
125.20579542357824
 20
275.30824569001624
 10
130.20579542357825
 20
267.0939599757305
 10
130.20579542357825
 20
261.61776949954
 10
131.86966426680092
 20
258.884270685674
 10
133.54200711163878
 20
242.39974835798716
 10
131.8895308903999
 20
239.68496599452337
 10
135.20164078148755
 20
234.24364260202236
 10
138.53497411482084
 20
212.3388806972605
 10
140.20579542357825
 20
209.5939599757306
 10
140.20579542357825
 20
201.37967426144488
 10
141.88290070095044
 20
198.62442987719044
 10
139.31799824997415
 20
191.60148268999345
 10
132.56307802979384
 20
197.15016715657018
 10
115.87759178429391
 20
199.89135418261662
 10
112.54959618864058
 20
205.35877551833292
 10
107.54959618864058
 20
205.35877551833292
 10
105.88292952197386
 20
208.09687075642813
 10
102.661994658516
 20
208.09687075642813
 10
100.93912875691157
 20
205.26644820379246
 10
99.21626285530716
 20
208.09687075642813
 10
95.99184980384423
 20
208.09687075642813
 10
81.01359793451168
 20
186.2238680266093
 10
67.64160125776952
 20
175.2397278992852
 10
64.32409774295012
 20
175.2397278992852
 10
52.67209787130789
 20
158.83180971268717
 10
40.999591080608134
 20
153.35287795378727
 10
35.983236683019506
 20
147.85877551833292
 10
22.661994658515926
 20
147.85877551833292
 10
20.986855911689805
 20
145.10676186283266
 10
15.035196012292417
 20
146.5035800024871
 10
10.009317847273769
 20
157.51264645919483
 10
5.0103144448927495
 20
187.6256907640138
 10
1.6779400432435088
 20
193.10030585243766
 10
0.0
 20
201.37015320842343
  0
LWPOLYLINE
  5
31
330
17
100
AcDbEntity
  8
M
100
AcDbPolyline
 90
5
 70
1
 10
90.22286422373327
 20
264.32782313738045
 10
92.60579542357827
 20
260.41300759477815
 10
94.98872662342318
 20
264.32782313738045
 10
92.60579542357827
 20
268.24263867998286
 10
90.22286422373327
 20
264.32782313738045
  0
LWPOLYLINE
  5
32
330
17
100
AcDbEntity
  8
M
100
AcDbPolyline
 90
5
 70
1
 10
90.91649174632232
 20
244.02162554074624
 10
93.32869014620604
 20
250.62645449280873
 10
90.96176576750081
 20
254.51497311496718
 10
88.54956736761721
 20
247.9101441629047
 10
90.91649174632232
 20
244.02162554074624
  0
LWPOLYLINE
  5
33
330
17
100
AcDbEntity
  8
M
100
AcDbPolyline
 90
7
 70
1
 10
77.60579542357826
 20
295.62359106093527
 10
74.32866132518268
 20
290.2397278992853
 10
70.99532799184927
 20
290.2397278992853
 10
68.55619755706665
 20
286.23258504214243
 10
72.60579542357826
 20
279.57967426144484
 10
79.98872662342316
 20
291.70877551833286
 10
77.60579542357826
 20
295.62359106093527
  0
LWPOLYLINE
  5
34
330
17
100
AcDbEntity
  8
M
100
AcDbPolyline
 90
5
 70
1
 10
45.93912875691164
 20
405.53205521382574
 10
48.55619755706664
 20
401.23258504214243
 10
45.93912875691164
 20
396.9331148704591
 10
43.32205995675653
 20
401.23258504214243
 10
45.93912875691164
 20
405.53205521382574
  0
LWPOLYLINE
  5
35
330
17
100
AcDbEntity
  8
M
100
AcDbPolyline
 90
23
 70
1
 10
1466.6724620902446
 20
108.19714390029655
 10
1466.6724620902446
 20
132.92729330906394
 10
1468.3220599567567
 20
135.63734694690433
 10
1466.6724620902446
 20
138.34740058474472
 10
1466.6724620902446
 20
146.63157130800187
 10
1470.9588780689096
 20
150.85675277268584
 10
1472.6057954235782
 20
148.15110283287348
 10
1477.5647832038637
 20
156.29801132905618
 10
1484.3408157897695
 20
153.514997945559
 10
1489.272462090245
 20
145.41300759477815
 10
1490.9391287569113
 20
148.15110283287348
 10
1494.2724620902447
 20
142.67491235668294
 10
1495.9391287569117
 20
145.41300759477815
 10
1500.2228642237335
 20
138.37544218499954
 10
1498.5529516655297
 20
135.63201441080807
 10
1505.2057954235781
 20
121.96992455052991
 10
1505.2057954235781
 20
116.44263867998284
 10
1502.6619946585158
 20
112.2635374230948
 10
1492.6619946585156
 20
112.2635374230948
 10
1490.995327991849
 20
109.5254421849996
 10
1470.995327991849
 20
109.5254421849996
 10
1469.3082144734312
 20
106.7537556904562
 10
1466.6724620902446
 20
108.19714390029655
  0
LWPOLYLINE
  5
36
330
17
100
AcDbEntity
  8
M
100
AcDbPolyline
 90
37
 70
1
 10
2652.5702544998053
 20
93.10056684009993
 10
2644.2425456416245
 20
98.57306123261856
 10
2629.236656256054
 20
98.57306123261856
 10
2622.5614415874634
 20
104.05627328181811
 10
2609.209686082948
 20
106.79815164435247
 10
2606.65539329009
 20
110.99448980404713
 10
2608.3391287569116
 20
113.76062664239728
 10
2608.3391287569116
 20
124.71300759477822
 10
2611.672462090245
 20
130.18919807096862
 10
2611.672462090245
 20
143.88846193342
 10
2617.559627869852
 20
150.79687075642812
 10
2632.549596188641
 20
150.79687075642812
 10
2634.2096860829474
 20
153.52416129707512
 10
2647.5430194162814
 20
156.26225653517034
 10
2649.2162628553074
 20
159.01115647071384
 10
2664.2162628553074
 20
159.01115647071384
 10
2665.877591784294
 20
161.74048256833484
 10
2682.5442584509606
 20
164.47857780643005
 10
2684.272462090245
 20
167.31776949954025
 10
2687.6619946585165
 20
161.74925170880906
 10
2697.6619946585165
 20
161.74925170880906
 10
2699.328661325183
 20
159.01115647071384
 10
2724.328661325183
 20
159.01115647071384
 10
2725.99532799185
 20
156.27306123261852
 10
2732.661994658516
 20
156.27306123261852
 10
2736.8691177594483
 20
149.36135899537305
 10
2738.536789205757
 20
135.66262925783747
 10
2745.203455872424
 20
119.23405782926599
 10
2746.8691177594487
 20
105.55183518584931
 10
2748.539128756912
 20
102.80824569001645
 10
2748.539128756912
 20
97.27597201331606
 10
2745.9953279918495
 20
93.09687075642815
 10
2697.5495961886413
 20
93.09687075642815
 10
2695.8829295219743
 20
95.83496599452334
 10
2679.316570016353
 20
95.83496599452334
 10
2674.311356059896
 20
90.35306499459406
 10
2652.5702544998053
 20
93.10056684009993
  0
LWPOLYLINE
  5
37
330
17
100
AcDbEntity
  8
M
100
AcDbPolyline
 90
17
 70
1
 10
2508.36455740788
 20
56.13415332381344
 10
2501.6724620902455
 20
78.12246651032795
 10
2501.6724620902455
 20
83.5917908158611
 10
2496.6724620902455
 20
94.54417176824215
 10
2496.6724620902455
 20
100.07893812389612
 10
2502.559627869852
 20
106.98734694690427
 10
2514.2162628553074
 20
106.98734694690427
 10
2515.8829295219743
 20
109.72544218499958
 10
2522.549596188641
 20
109.72544218499958
 10
2524.209686082948
 20
112.4527327256466
 10
2537.6413344410767
 20
115.2110176563338
 10
2557.649903349686
 20
93.29687075642812
 10
2560.9873422499372
 20
93.29687075642812
 10
2575.2057954235784
 20
75.4341921895425
 10
2575.2057954235784
 20
58.94263867998284
 10
2572.661260480261
 20
54.762331273103925
 10
2508.36455740788
 20
56.13415332381344
  0
LWPOLYLINE
  5
38
330
17
100
AcDbEntity
  8
M
100
AcDbPolyline
 90
9
 70
1
 10
4426.670247732788
 20
1.3735847811634505
 10
4427.508024442912
 20
38.53496599452333
 10
4432.649903349687
 20
38.53496599452333
 10
4437.656247172678
 20
33.05182752172231
 10
4454.31517948403
 20
30.31500292771461
 10
4467.682388059262
 20
19.334795883773182
 10
4476.8895308904
 20
4.2087755183328746
 10
4474.327667531415
 20
0.0
 10
4426.670247732788
 20
1.3735847811634505
  0
ENDSEC
  0
SECTION
  2
OBJECTS
  0
DICTIONARY
  5
A
330
0
100
AcDbDictionary
281
1
  3
ACAD_COLOR
350
B
  3
ACAD_GROUP
350
C
  3
ACAD_LAYOUT
350
D
  3
ACAD_MATERIAL
350
E
  3
ACAD_MLEADERSTYLE
350
F
  3
ACAD_MLINESTYLE
350
10
  3
ACAD_PLOTSETTINGS
350
11
  3
ACAD_PLOTSTYLENAME
350
12
  3
ACAD_SCALELIST
350
14
  3
ACAD_TABLESTYLE
350
15
  3
ACAD_VISUALSTYLE
350
16
  3
EZDXF_META
350
2D
  0
DICTIONARY
  5
B
330
A
100
AcDbDictionary
281
1
  0
DICTIONARY
  5
C
330
A
100
AcDbDictionary
281
1
  0
DICTIONARY
  5
D
330
A
100
AcDbDictionary
281
1
  3
Model
350
1A
  3
Layout1
350
1E
  0
DICTIONARY
  5
E
330
A
100
AcDbDictionary
281
1
  3
ByBlock
350
1F
  3
ByLayer
350
20
  3
Global
350
21
  0
DICTIONARY
  5
F
330
A
100
AcDbDictionary
281
1
  3
Standard
350
2C
  0
DICTIONARY
  5
10
330
A
100
AcDbDictionary
281
1
  3
Standard
350
22
  0
DICTIONARY
  5
11
330
A
100
AcDbDictionary
281
1
  0
ACDBDICTIONARYWDFLT
  5
12
330
A
100
AcDbDictionary
281
1
  3
Normal
350
13
100
AcDbDictionaryWithDefault
340
13
  0
ACDBPLACEHOLDER
  5
13
330
12
  0
DICTIONARY
  5
14
330
A
100
AcDbDictionary
281
1
  0
DICTIONARY
  5
15
330
A
100
AcDbDictionary
281
1
  0
DICTIONARY
  5
16
330
A
100
AcDbDictionary
281
1
  0
LAYOUT
  5
1A
330
D
100
AcDbPlotSettings
  1

  4
A3
  6

 40
7.5
 41
20.0
 42
7.5
 43
20.0
 44
420.0
 45
297.0
 46
0.0
 47
0.0
 48
0.0
 49
0.0
140
0.0
141
0.0
142
1.0
143
1.0
 70
1024
 72
1
 73
0
 74
5
  7

 75
16
 76
0
 77
2
 78
300
147
1.0
148
0.0
149
0.0
100
AcDbLayout
  1
Model
 70
1
 71
0
 10
0.0
 20
0.0
 11
420.0
 21
297.0
 12
0.0
 22
0.0
 32
0.0
 14
1e+20
 24
1e+20
 34
1e+20
 15
-1e+20
 25
-1e+20
 35
-1e+20
146
0.0
 13
0.0
 23
0.0
 33
0.0
 16
1.0
 26
0.0
 36
0.0
 17
0.0
 27
1.0
 37
0.0
 76
1
330
17
  0
LAYOUT
  5
1E
330
D
100
AcDbPlotSettings
  1

  4
A3
  6

 40
7.5
 41
20.0
 42
7.5
 43
20.0
 44
420.0
 45
297.0
 46
0.0
 47
0.0
 48
0.0
 49
0.0
140
0.0
141
0.0
142
1.0
143
1.0
 70
0
 72
1
 73
0
 74
5
  7

 75
16
 76
0
 77
2
 78
300
147
1.0
148
0.0
149
0.0
100
AcDbLayout
  1
Layout1
 70
1
 71
1
 10
0.0
 20
0.0
 11
420.0
 21
297.0
 12
0.0
 22
0.0
 32
0.0
 14
1e+20
 24
1e+20
 34
1e+20
 15
-1e+20
 25
-1e+20
 35
-1e+20
146
0.0
 13
0.0
 23
0.0
 33
0.0
 16
1.0
 26
0.0
 36
0.0
 17
0.0
 27
1.0
 37
0.0
 76
1
330
1B
  0
MATERIAL
  5
1F
102
{ACAD_REACTORS
330
E
102
}
330
E
100
AcDbMaterial
  1
ByBlock
  2

 70
0
 40
1.0
 71
1
 41
1.0
 91
-1023410177
 42
1.0
 72
1
  3

 73
1
 74
1
 75
1
 44
0.5
 73
0
 45
1.0
 46
1.0
 77
1
  4

 78
1
 79
1
170
1
 48
1.0
171
1
  6

172
1
173
1
174
1
140
1.0
141
1.0
175
1
  7

176
1
177
1
178
1
143
1.0
179
1
  8

270
1
271
1
272
1
145
1.0
146
1.0
273
1
  9

274
1
275
1
276
1
 42
1.0
 72
1
  3

 73
1
 74
1
 75
1
 94
63
  0
MATERIAL
  5
20
102
{ACAD_REACTORS
330
E
102
}
330
E
100
AcDbMaterial
  1
ByLayer
  2

 70
0
 40
1.0
 71
1
 41
1.0
 91
-1023410177
 42
1.0
 72
1
  3

 73
1
 74
1
 75
1
 44
0.5
 73
0
 45
1.0
 46
1.0
 77
1
  4

 78
1
 79
1
170
1
 48
1.0
171
1
  6

172
1
173
1
174
1
140
1.0
141
1.0
175
1
  7

176
1
177
1
178
1
143
1.0
179
1
  8

270
1
271
1
272
1
145
1.0
146
1.0
273
1
  9

274
1
275
1
276
1
 42
1.0
 72
1
  3

 73
1
 74
1
 75
1
 94
63
  0
MATERIAL
  5
21
102
{ACAD_REACTORS
330
E
102
}
330
E
100
AcDbMaterial
  1
Global
  2

 70
0
 40
1.0
 71
1
 41
1.0
 91
-1023410177
 42
1.0
 72
1
  3

 73
1
 74
1
 75
1
 44
0.5
 73
0
 45
1.0
 46
1.0
 77
1
  4

 78
1
 79
1
170
1
 48
1.0
171
1
  6

172
1
173
1
174
1
140
1.0
141
1.0
175
1
  7

176
1
177
1
178
1
143
1.0
179
1
  8

270
1
271
1
272
1
145
1.0
146
1.0
273
1
  9

274
1
275
1
276
1
 42
1.0
 72
1
  3

 73
1
 74
1
 75
1
 94
63
  0
MLINESTYLE
  5
22
102
{ACAD_REACTORS
330
10
102
}
330
10
100
AcDbMlineStyle
  2
Standard
 70
0
  3

 62
256
 51
90.0
 52
90.0
 71
2
 49
0.5
 62
256
  6
BYLAYER
 49
-0.5
 62
256
  6
BYLAYER
  0
MLEADERSTYLE
  5
2C
102
{ACAD_REACTORS
330
F
102
}
330
F
100
AcDbMLeaderStyle
179
2
170
2
171
1
172
0
 90
2
 40
0.0
 41
0.0
173
1
 91
-1056964608
 92
-2
290
1
 42
2.0
291
1
 43
8.0
  3
Standard
 44
4.0
300

342
29
174
1
175
1
176
0
178
1
 93
-1056964608
 45
4.0
292
0
297
0
 46
4.0
 94
-1056964608
 47
1.0
 49
1.0
140
1.0
294
1
141
0.0
177
0
142
1.0
295
0
296
0
143
3.75
271
0
272
9
273
9
  0
DICTIONARY
  5
2D
330
A
100
AcDbDictionary
280
1
281
1
  3
CREATED_BY_EZDXF
350
2E
  3
WRITTEN_BY_EZDXF
350
3B
  0
DICTIONARYVAR
  5
2E
330
2D
100
DictionaryVariables
280
0
  1
1.4.4 @ 2026-07-21T08:09:32.736492+00:00
  0
DICTIONARYVAR
  5
3B
330
2D
100
DictionaryVariables
280
0
  1
1.4.4 @ 2026-07-21T08:09:32.739677+00:00
  0
ENDSEC
  0
EOF
