  0
SECTION
  2
HEADER
  9
$ACADVER
  1
AC1027
  9
$ACADMAINTVER
 70
105
  9
$DWGCODEPAGE
  3
ANSI_1252
  9
$LASTSAVEDBY
  1
ezdxf
  9
$REQUIREDVERSIONS
160
0
  9
$INSBASE
 10
0.0
 20
0.0
 30
0.0
  9
$EXTMIN
 10
1e+20
 20
1e+20
 30
1e+20
  9
$EXTMAX
 10
-1e+20
 20
-1e+20
 30
-1e+20
  9
$LIMMIN
 10
0.0
 20
0.0
  9
$LIMMAX
 10
420.0
 20
297.0
  9
$ORTHOMODE
 70
0
  9
$REGENMODE
 70
1
  9
$FILLMODE
 70
1
  9
$QTEXTMODE
 70
0
  9
$MIRRTEXT
 70
1
  9
$LTSCALE
 40
1.0
  9
$ATTMODE
 70
1
  9
$TEXTSIZE
 40
2.5
  9
$TRACEWID
 40
1.0
  9
$TEXTSTYLE
  7
Standard
  9
$CLAYER
  8
0
  9
$CELTYPE
  6
ByLayer
  9
$CECOLOR
 62
256
  9
$CELTSCALE
 40
1.0
  9
$DISPSILH
 70
0
  9
$DIMSCALE
 40
1.0
  9
$DIMASZ
 40
2.5
  9
$DIMEXO
 40
0.625
  9
$DIMDLI
 40
3.75
  9
$DIMRND
 40
0.0
  9
$DIMDLE
 40
0.0
  9
$DIMEXE
 40
1.25
  9
$DIMTP
 40
0.0
  9
$DIMTM
 40
0.0
  9
$DIMTXT
 40
2.5
  9
$DIMCEN
 40
2.5
  9
$DIMTSZ
 40
0.0
  9
$DIMTOL
 70
0
  9
$DIMLIM
 70
0
  9
$DIMTIH
 70
0
  9
$DIMTOH
 70
0
  9
$DIMSE1
 70
0
  9
$DIMSE2
 70
0
  9
$DIMTAD
 70
1
  9
$DIMZIN
 70
8
  9
$DIMBLK
  1

  9
$DIMASO
 70
1
  9
$DIMSHO
 70
1
  9
$DIMPOST
  1

  9
$DIMAPOST
  1

  9
$DIMALT
 70
0
  9
$DIMALTD
 70
3
  9
$DIMALTF
 40
0.03937007874
  9
$DIMLFAC
 40
1.0
  9
$DIMTOFL
 70
1
  9
$DIMTVP
 40
0.0
  9
$DIMTIX
 70
0
  9
$DIMSOXD
 70
0
  9
$DIMSAH
 70
0
  9
$DIMBLK1
  1

  9
$DIMBLK2
  1

  9
$DIMSTYLE
  2
ISO-25
  9
$DIMCLRD
 70
0
  9
$DIMCLRE
 70
0
  9
$DIMCLRT
 70
0
  9
$DIMTFAC
 40
1.0
  9
$DIMGAP
 40
0.625
  9
$DIMJUST
 70
0
  9
$DIMSD1
 70
0
  9
$DIMSD2
 70
0
  9
$DIMTOLJ
 70
0
  9
$DIMTZIN
 70
8
  9
$DIMALTZ
 70
0
  9
$DIMALTTZ
 70
0
  9
$DIMUPT
 70
0
  9
$DIMDEC
 70
2
  9
$DIMTDEC
 70
2
  9
$DIMALTU
 70
2
  9
$DIMALTTD
 70
3
  9
$DIMTXSTY
  7
Standard
  9
$DIMAUNIT
 70
0
  9
$DIMADEC
 70
0
  9
$DIMALTRND
 40
0.0
  9
$DIMAZIN
 70
0
  9
$DIMDSEP
 70
44
  9
$DIMATFIT
 70
3
  9
$DIMFRAC
 70
0
  9
$DIMLDRBLK
  1

  9
$DIMLUNIT
 70
2
  9
$DIMLWD
 70
-2
  9
$DIMLWE
 70
-2
  9
$DIMTMOVE
 70
0
  9
$DIMFXL
 40
1.0
  9
$DIMFXLON
 70
0
  9
$DIMJOGANG
 40
0.785398163397
  9
$DIMTFILL
 70
0
  9
$DIMTFILLCLR
 70
0
  9
$DIMARCSYM
 70
0
  9
$DIMLTYPE
  6

  9
$DIMLTEX1
  6

  9
$DIMLTEX2
  6

  9
$DIMTXTDIRECTION
 70
0
  9
$LUNITS
 70
2
  9
$LUPREC
 70
4
  9
$SKETCHINC
 40
1.0
  9
$FILLETRAD
 40
10.0
  9
$AUNITS
 70
0
  9
$AUPREC
 70
2
  9
$MENU
  1
.
  9
$ELEVATION
 40
0.0
  9
$PELEVATION
 40
0.0
  9
$THICKNESS
 40
0.0
  9
$LIMCHECK
 70
0
  9
$CHAMFERA
 40
0.0
  9
$CHAMFERB
 40
0.0
  9
$CHAMFERC
 40
0.0
  9
$CHAMFERD
 40
0.0
  9
$SKPOLY
 70
0
  9
$TDCREATE
 40
2461243.537337963
  9
$TDUCREATE
 40
2458532.153996898
  9
$TDUPDATE
 40
2461243.537337963
  9
$TDUUPDATE
 40
2458532.1544311
  9
$TDINDWG
 40
0.0
  9
$TDUSRTIMER
 40
0.0
  9
$USRTIMER
 70
1
  9
$ANGBASE
 50
0.0
  9
$ANGDIR
 70
0
  9
$PDMODE
 70
0
  9
$PDSIZE
 40
0.0
  9
$PLINEWID
 40
0.0
  9
$SPLFRAME
 70
0
  9
$SPLINETYPE
 70
6
  9
$SPLINESEGS
 70
8
  9
$HANDSEED
  5
76
  9
$SURFTAB1
 70
6
  9
$SURFTAB2
 70
6
  9
$SURFTYPE
 70
6
  9
$SURFU
 70
6
  9
$SURFV
 70
6
  9
$UCSBASE
  2

  9
$UCSNAME
  2

  9
$UCSORG
 10
0.0
 20
0.0
 30
0.0
  9
$UCSXDIR
 10
1.0
 20
0.0
 30
0.0
  9
$UCSYDIR
 10
0.0
 20
1.0
 30
0.0
  9
$UCSORTHOREF
  2

  9
$UCSORTHOVIEW
 70
0
  9
$UCSORGTOP
 10
0.0
 20
0.0
 30
0.0
  9
$UCSORGBOTTOM
 10
0.0
 20
0.0
 30
0.0
  9
$UCSORGLEFT
 10
0.0
 20
0.0
 30
0.0
  9
$UCSORGRIGHT
 10
0.0
 20
0.0
 30
0.0
  9
$UCSORGFRONT
 10
0.0
 20
0.0
 30
0.0
  9
$UCSORGBACK
 10
0.0
 20
0.0
 30
0.0
  9
$PUCSBASE
  2

  9
$PUCSNAME
  2

  9
$PUCSORG
 10
0.0
 20
0.0
 30
0.0
  9
$PUCSXDIR
 10
1.0
 20
0.0
 30
0.0
  9
$PUCSYDIR
 10
0.0
 20
1.0
 30
0.0
  9
$PUCSORTHOREF
  2

  9
$PUCSORTHOVIEW
 70
0
  9
$PUCSORGTOP
 10
0.0
 20
0.0
 30
0.0
  9
$PUCSORGBOTTOM
 10
0.0
 20
0.0
 30
0.0
  9
$PUCSORGLEFT
 10
0.0
 20
0.0
 30
0.0
  9
$PUCSORGRIGHT
 10
0.0
 20
0.0
 30
0.0
  9
$PUCSORGFRONT
 10
0.0
 20
0.0
 30
0.0
  9
$PUCSORGBACK
 10
0.0
 20
0.0
 30
0.0
  9
$USERI1
 70
0
  9
$USERI2
 70
0
  9
$USERI3
 70
0
  9
$USERI4
 70
0
  9
$USERI5
 70
0
  9
$USERR1
 40
0.0
  9
$USERR2
 40
0.0
  9
$USERR3
 40
0.0
  9
$USERR4
 40
0.0
  9
$USERR5
 40
0.0
  9
$WORLDVIEW
 70
1
  9
$SHADEDGE
 70
3
  9
$SHADEDIF
 70
70
  9
$TILEMODE
 70
1
  9
$MAXACTVP
 70
64
  9
$PINSBASE
 10
0.0
 20
0.0
 30
0.0
  9
$PLIMCHECK
 70
0
  9
$PEXTMIN
 10
1e+20
 20
1e+20
 30
1e+20
  9
$PEXTMAX
 10
-1e+20
 20
-1e+20
 30
-1e+20
  9
$PLIMMIN
 10
0.0
 20
0.0
  9
$PLIMMAX
 10
420.0
 20
297.0
  9
$UNITMODE
 70
0
  9
$VISRETAIN
 70
1
  9
$PLINEGEN
 70
0
  9
$PSLTSCALE
 70
1
  9
$TREEDEPTH
 70
3020
  9
$CMLSTYLE
  2
Standard
  9
$CMLJUST
 70
0
  9
$CMLSCALE
 40
20.0
  9
$PROXYGRAPHICS
 70
1
  9
$MEASUREMENT
 70
1
  9
$CELWEIGHT
370
-1
  9
$ENDCAPS
280
0
  9
$JOINSTYLE
280
0
  9
$LWDISPLAY
290
0
  9
$INSUNITS
 70
4
  9
$HYPERLINKBASE
  1

  9
$STYLESHEET
  1

  9
$XEDIT
290
1
  9
$CEPSNTYPE
380
0
  9
$PSTYLEMODE
290
1
  9
$FINGERPRINTGUID
  2
{B9857FC3-BE66-4455-BA0D-EE15A4DE741F}
  9
$VERSIONGUID
  2
{15FF1078-523D-4DFC-B1CB-C2BC30B37338}
  9
$EXTNAMES
290
1
  9
$PSVPSCALE
 40
0.0
  9
$OLESTARTUP
290
0
  9
$SORTENTS
280
127
  9
$INDEXCTL
280
0
  9
$HIDETEXT
280
1
  9
$XCLIPFRAME
280
1
  9
$HALOGAP
280
0
  9
$OBSCOLOR
 70
257
  9
$OBSLTYPE
280
0
  9
$INTERSECTIONDISPLAY
280
0
  9
$INTERSECTIONCOLOR
 70
257
  9
$DIMASSOC
280
2
  9
$PROJECTNAME
  1

  9
$CAMERADISPLAY
290
0
  9
$LENSLENGTH
 40
50.0
  9
$CAMERAHEIGHT
 40
0.0
  9
$STEPSPERSEC
 40
24.0
  9
$STEPSIZE
 40
100.0
  9
$3DDWFPREC
 40
2.0
  9
$PSOLWIDTH
 40
0.005
  9
$PSOLHEIGHT
 40
0.08
  9
$LOFTANG1
 40
1.570796326795
  9
$LOFTANG2
 40
1.570796326795
  9
$LOFTMAG1
 40
0.0
  9
$LOFTMAG2
 40
0.0
  9
$LOFTPARAM
 70
7
  9
$LOFTNORMALS
280
1
  9
$LATITUDE
 40
37.795
  9
$LONGITUDE
 40
-122.394
  9
$NORTHDIRECTION
 40
0.0
  9
$TIMEZONE
 70
-8000
  9
$LIGHTGLYPHDISPLAY
280
1
  9
$TILEMODELIGHTSYNCH
280
1
  9
$CMATERIAL
347
20
  9
$SOLIDHIST
280
0
  9
$SHOWHIST
280
1
  9
$DWFFRAME
280
2
  9
$DGNFRAME
280
2
  9
$REALWORLDSCALE
290
1
  9
$INTERFERECOLOR
 62
256
  9
$CSHADOW
280
0
  9
$SHADOWPLANELOCATION
 40
0.0
  0
ENDSEC
  0
SECTION
  2
CLASSES
  0
CLASS
  1
ACDBDICTIONARYWDFLT
  2
AcDbDictionaryWithDefault
  3
ObjectDBX Classes
 90
0
 91
0
280
0
281
0
  0
CLASS
  1
SUN
  2
AcDbSun
  3
SCENEOE
 90
1153
 91
0
280
0
281
0
  0
CLASS
  1
VISUALSTYLE
  2
AcDbVisualStyle
  3
ObjectDBX Classes
 90
4095
 91
0
280
0
281
0
  0
CLASS
  1
MATERIAL
  2
AcDbMaterial
  3
ObjectDBX Classes
 90
1153
 91
0
280
0
281
0
  0
CLASS
  1
SCALE
  2
AcDbScale
  3
ObjectDBX Classes
 90
1153
 91
0
280
0
281
0
  0
CLASS
  1
TABLESTYLE
  2
AcDbTableStyle
  3
ObjectDBX Classes
 90
4095
 91
0
280
0
281
0
  0
CLASS
  1
MLEADERSTYLE
  2
AcDbMLeaderStyle
  3
ACDB_MLEADERSTYLE_CLASS
 90
4095
 91
0
280
0
281
0
  0
CLASS
  1
DICTIONARYVAR
  2
AcDbDictionaryVar
  3
ObjectDBX Classes
 90
0
 91
0
280
0
281
0
  0
CLASS
  1
CELLSTYLEMAP
  2
AcDbCellStyleMap
  3
ObjectDBX Classes
 90
1152
 91
0
280
0
281
0
  0
CLASS
  1
MENTALRAYRENDERSETTINGS
  2
AcDbMentalRayRenderSettings
  3
SCENEOE
 90
1024
 91
0
280
0
281
0
  0
CLASS
  1
ACDBDETAILVIEWSTYLE
  2
AcDbDetailViewStyle
  3
ObjectDBX Classes
 90
1025
 91
0
280
0
281
0
  0
CLASS
  1
ACDBSECTIONVIEWSTYLE
  2
AcDbSectionViewStyle
  3
ObjectDBX Classes
 90
1025
 91
0
280
0
281
0
  0
CLASS
  1
RASTERVARIABLES
  2
AcDbRasterVariables
  3
ISM
 90
0
 91
0
280
0
281
0
  0
CLASS
  1
ACDBPLACEHOLDER
  2
AcDbPlaceHolder
  3
ObjectDBX Classes
 90
0
 91
0
280
0
281
0
  0
CLASS
  1
LAYOUT
  2
AcDbLayout
  3
ObjectDBX Classes
 90
0
 91
0
280
0
281
0
  0
ENDSEC
  0
SECTION
  2
TABLES
  0
TABLE
  2
VPORT
  5
8
330
0
100
AcDbSymbolTable
 70
1
  0
VPORT
  5
23
330
8
100
AcDbSymbolTableRecord
100
AcDbViewportTableRecord
  2
*Active
 70
0
 10
0.0
 20
0.0
 11
1.0
 21
1.0
 12
0.0
 22
0.0
 13
0.0
 23
0.0
 14
0.5
 24
0.5
 15
0.5
 25
0.5
 16
0.0
 26
0.0
 36
1.0
 17
0.0
 27
0.0
 37
0.0
 40
1000.0
 41
1.34
 42
50.0
 43
0.0
 44
0.0
 50
0.0
 51
0.0
 71
0
 72
1000
 73
1
 74
3
 75
0
 76
0
 77
0
 78
0
281
0
 65
0
146
0.0
  0
ENDTAB
  0
TABLE
  2
LTYPE
  5
2
330
0
100
AcDbSymbolTable
 70
3
  0
LTYPE
  5
24
330
2
100
AcDbSymbolTableRecord
100
AcDbLinetypeTableRecord
  2
ByBlock
 70
0
  3

 72
65
 73
0
 40
0.0
  0
LTYPE
  5
25
330
2
100
AcDbSymbolTableRecord
100
AcDbLinetypeTableRecord
  2
ByLayer
 70
0
  3

 72
65
 73
0
 40
0.0
  0
LTYPE
  5
26
330
2
100
AcDbSymbolTableRecord
100
AcDbLinetypeTableRecord
  2
Continuous
 70
0
  3

 72
65
 73
0
 40
0.0
  0
ENDTAB
  0
TABLE
  2
LAYER
  5
1
330
0
100
AcDbSymbolTable
 70
3
  0
LAYER
  5
27
330
1
100
AcDbSymbolTableRecord
100
AcDbLayerTableRecord
  2
0
 70
0
 62
7
  6
Continuous
370
-3
390
13
347
21
  0
LAYER
  5
28
330
1
100
AcDbSymbolTableRecord
100
AcDbLayerTableRecord
  2
Defpoints
 70
0
 62
7
  6
Continuous
290
0
370
-3
390
13
347
21
  0
LAYER
  5
2F
330
1
100
AcDbSymbolTableRecord
100
AcDbLayerTableRecord
  2
K
 70
0
 62
7
  6
Continuous
370
-3
390
13
347
21
  0
ENDTAB
  0
TABLE
  2
STYLE
  5
5
330
0
100
AcDbSymbolTable
 70
1
  0
STYLE
  5
29
330
5
100
AcDbSymbolTableRecord
100
AcDbTextStyleTableRecord
  2
Standard
 70
0
 40
0.0
 41
1.0
 50
0.0
 71
0
 42
2.5
  3
txt
  4

  0
ENDTAB
  0
TABLE
  2
VIEW
  5
7
330
0
100
AcDbSymbolTable
 70
0
  0
ENDTAB
  0
TABLE
  2
UCS
  5
6
330
0
100
AcDbSymbolTable
 70
0
  0
ENDTAB
  0
TABLE
  2
APPID
  5
3
330
0
100
AcDbSymbolTable
 70
3
  0
APPID
  5
2A
330
3
100
AcDbSymbolTableRecord
100
AcDbRegAppTableRecord
  2
ACAD
 70
0
  0
APPID
  5
73
330
3
100
AcDbSymbolTableRecord
100
AcDbRegAppTableRecord
  2
HATCHBACKGROUNDCOLOR
 70
0
  0
APPID
  5
74
330
3
100
AcDbSymbolTableRecord
100
AcDbRegAppTableRecord
  2
EZDXF
 70
0
  0
ENDTAB
  0
TABLE
  2
DIMSTYLE
  5
4
330
0
100
AcDbSymbolTable
 70
1
100
AcDbDimStyleTable
  0
DIMSTYLE
105
2B
330
4
100
AcDbSymbolTableRecord
100
AcDbDimStyleTableRecord
  2
Standard
 70
0
 40
1.0
 41
2.5
 42
0.625
 43
3.75
 44
1.25
 45
0.0
 46
0.0
 47
0.0
 48
0.0
 49
2.5
140
2.5
141
2.5
142
0.0
143
0.03937007874
144
1.0
145
0.0
146
1.0
147
0.625
148
0.0
 69
0
 70
0
 71
0
 72
0
 73
0
 74
0
 75
0
 76
0
 77
1
 78
8
 79
3
170
0
171
3
172
1
173
0
174
0
175
0
176
0
177
0
178
0
179
2
271
2
272
2
273
2
274
3
275
0
276
0
277
2
278
44
279
0
280
0
281
0
282
0
283
0
284
8
285
0
286
0
288
0
289
3
290
0
371
-2
372
-2
  0
ENDTAB
  0
TABLE
  2
BLOCK_RECORD
  5
9
330
0
100
AcDbSymbolTable
 70
2
  0
BLOCK_RECORD
  5
17
330
9
100
AcDbSymbolTableRecord
100
AcDbBlockTableRecord
  2
*Model_Space
340
1A
 70
0
280
1
281
0
  0
BLOCK_RECORD
  5
1B
330
9
100
AcDbSymbolTableRecord
100
AcDbBlockTableRecord
  2
*Paper_Space
340
1E
 70
0
280
1
281
0
  0
ENDTAB
  0
ENDSEC
  0
SECTION
  2
BLOCKS
  0
BLOCK
  5
18
330
17
100
AcDbEntity
  8
0
100
AcDbBlockBegin
  2
*Model_Space
 70
0
 10
0.0
 20
0.0
 30
0.0
  3
*Model_Space
  1

  0
ENDBLK
  5
19
330
17
100
AcDbEntity
  8
0
100
AcDbBlockEnd
  0
BLOCK
  5
1C
330
1B
100
AcDbEntity
  8
0
100
AcDbBlockBegin
  2
*Paper_Space
 70
0
 10
0.0
 20
0.0
 30
0.0
  3
*Paper_Space
  1

  0
ENDBLK
  5
1D
330
1B
100
AcDbEntity
  8
0
100
AcDbBlockEnd
  0
ENDSEC
  0
SECTION
  2
ENTITIES
  0
LWPOLYLINE
  5
30
330
17
100
AcDbEntity
  8
K
100
AcDbPolyline
 90
161
 70
1
 10
57.59153792159366
 20
145.0704902885398
 10
54.29033139754091
 20
142.3587849294965
 10
45.92048568486773
 20
147.85896925496755
 10
32.56086956521731
 20
147.85896925496755
 10
30.887626126191
 20
150.60786919051094
 10
17.554292792857584
 20
153.34596442860615
 10
14.996593582248586
 20
157.54789884603514
 10
24.233492984707116
 20
169.9637311597294
 10
29.23176961846796
 20
169.9637311597294
 10
41.67386420257624
 20
187.67890392472165
 10
40.013432981925725
 20
193.13460650685877
 10
43.35691231693506
 20
206.86675377564646
 10
46.683735466821695
 20
212.33224895046033
 10
46.683735466821695
 20
217.75235622614142
 10
44.22753623188391
 20
221.7875406835389
 10
37.56086956521732
 20
221.7875406835389
 10
35.88676592711748
 20
224.5378538032744
 10
24.22009926045088
 20
227.2759490413696
 10
20.95040213348842
 20
232.6475943213795
 10
19.283735466821717
 20
229.90949908328417
 10
15.950402133488307
 20
235.38568955947468
 10
12.617068800155007
 20
229.90949908328417
 10
9.258204588260321
 20
235.4276331456826
 10
5.924871254926911
 20
232.6895379075874
 10
1.6837354668216564
 20
239.65711813090329
 10
1.6837354668216564
 20
250.60949908328422
 10
0.0
 20
253.37563592163414
 10
4.227536231883988
 20
260.3208740168723
 10
7.567500573923525
 20
260.3208740168723
 10
24.234167240590242
 20
282.2256359216342
 10
27.560869565217306
 20
282.2256359216342
 10
30.017068800154977
 20
286.26082037903177
 10
30.017068800154977
 20
291.67760768339093
 10
16.66445095886493
 20
310.8719958302455
 10
19.999999999999908
 20
316.35182639782465
 10
17.61706880015501
 20
320.26664194042706
 10
15.950402133488307
 20
317.5285467023319
 10
13.341693314421143
 20
321.81428261937083
 10
15.004819110279177
 20
327.27883880576115
 10
5.017068800155067
 20
338.21780343113505
 10
5.017068800155067
 20
343.70473717852235
 10
1.6837354668216564
 20
349.1809276547128
 10
1.6837354668216564
 20
354.71320133141273
 10
4.227536231883988
 20
358.8923025883008
 10
7.673268035092717
 20
358.8923025883008
 10
14.29543623072882
 20
348.0130262668987
 10
20.945942641233174
 20
356.20740023698426
 10
25.934325762968836
 20
350.74393300841643
 10
29.22753623188401
 20
356.15420735020564
 10
41.00660136842615
 20
356.15420735020564
 10
42.67326803509275
 20
353.41611211211034
 10
49.31954130101302
 20
353.41611211211034
 10
55.924871254926956
 20
347.99030536425244
 10
61.675026647754486
 20
357.43698922389757
 10
60.01144519100543
 20
362.9030425817872
 10
68.33953438885487
 20
384.79401990184857
 10
66.66666666666666
 20
387.5423025883008
 10
69.25820458826037
 20
391.79982917377623
 10
72.59153792159356
 20
389.061733935681
 10
75.95040213348835
 20
394.5798679980794
 10
78.55911095255553
 20
390.29413208104046
 10
76.89244428588893
 20
384.8179416048499
 10
79.29543623072888
 20
380.87016912404147
 10
85.95040213348837
 20
389.07003782565585
 10
92.63132478495861
 20
380.83818670152283
 10
95.97593301204977
 20
383.58554345949057
 10
99.3034847788199
 20
378.11885127122525
 10
107.62530773523626
 20
386.32179104254993
 10
120.95486162574353
 20
369.8978764274604
 10
125.96647850400788
 20
375.38679015127366
 10
130.22577761922227
 20
368.3893701762785
 10
128.55911095255556
 20
362.91317970008805
 10
131.006601368426
 20
358.8923025883008
 10
134.33993470175943
 20
358.8923025883008
 10
140.9759330120497
 20
347.99030536425244
 10
144.24792963263044
 20
350.6780168740151
 10
169.2275362318839
 20
350.6780168740151
 10
170.89420289855062
 20
353.41611211211034
 10
195.89420289855076
 20
353.41611211211034
 10
197.56086956521725
 20
356.15420735020564
 10
211.0066013684261
 20
356.15420735020564
 10
214.33993470175926
 20
350.6780168740151
 10
217.6732680350927
 20
350.6780168740151
 10
219.33993470175938
 20
347.9399216359199
 10
247.56943826935483
 20
347.9399216359199
 10
260.9027716026883
 20
364.36849306449136
 10
265.9008339072569
 20
364.36849306449136
 10
274.2145154629797
 20
375.29504596629835
 10
282.594767560422
 20
380.80206877318903
 10
299.3452724394393
 20
378.0502001144933
 10
301.0066013684262
 20
375.3208740168723
 10
305.9945100595961
 20
375.3208740168723
 10
311.0008538825883
 20
369.83773554407117
 10
327.6542375330432
 20
367.10182251578215
 10
336.02412322597075
 20
361.60161191757265
 10
339.33993470175926
 20
356.15420735020564
 10
345.89420289855065
 20
356.15420735020564
 10
347.56086956521716
 20
358.8923025883008
 10
360.89420289855076
 20
358.8923025883008
 10
362.5608695652173
 20
361.63039782639606
 10
375.8942028985505
 20
361.63039782639606
 10
377.5608695652174
 20
364.36849306449136
 10
391.006601368426
 20
364.36849306449136
 10
393.55040213348826
 20
360.18939180760344
 10
393.55040213348826
 20
313.58568955947453
 10
387.68542249967965
 20
303.9503658753604
 10
381.018755833013
 20
301.2122706372652
 10
377.6732680350928
 20
295.71611211211035
 10
374.3278433929295
 20
295.71611211211035
 10
364.3641173194195
 20
284.80345974588516
 10
347.64259967871635
 20
257.33239505044446
 10
344.30926634538315
 20
260.0704902885398
 10
336.0323074808392
 20
246.47262929678882
 10
309.3516106629698
 20
213.59819928905688
 10
301.0241232259708
 20
208.12585040188614
 10
296.00660136842606
 20
199.88277877877704
 10
292.67326803509286
 20
199.88277877877704
 10
287.67326803509275
 20
191.6684930644913
 10
282.66323635388113
 20
191.6684930644913
 10
271.010802147818
 20
177.9947182308459
 10
264.35208916634656
 20
175.25988968488437
 10
261.0066013684261
 20
169.76373115972942
 10
257.6732680350927
 20
169.76373115972942
 10
254.34848593528682
 20
164.3015891386196
 10
244.33806501253187
 20
161.5606405526272
 10
239.32784339292945
 20
156.07325496925327
 10
234.32784339292934
 20
156.07325496925327
 10
224.2676590963023
 20
145.05495788247092
 10
222.56086956521736
 20
147.85896925496755
 10
219.31954130101283
 20
147.85896925496755
 10
209.31954130101283
 20
139.64468354068183
 10
202.66663702638644
 20
139.64468354068183
 10
194.29072362380816
 20
128.63634021157878
 10
189.26738668123699
 20
134.1380901962993
 10
180.98031858210916
 20
128.6923025883009
 10
174.33993470175946
 20
128.6923025883009
 10
172.67326803509275
 20
125.95420735020556
 10
160.99656968721465
 20
125.95420735020556
 10
155.2401026606749
 20
119.19916951293963
 10
160.23413760031013
 20
110.99468354068176
 10
157.67326803509275
 20
106.78754068353891
 10
154.22753623188402
 20
106.78754068353891
 10
150.00000000000003
 20
113.73277877877707
 10
151.66666666666663
 20
116.47087401687229
 10
149.27616883904926
 20
120.39812044795784
 10
139.33452796764777
 20
106.78754068353891
 10
135.8942028985507
 20
106.78754068353891
 10
129.2360083120435
 20
117.726003218515
 10
117.68070500652594
 20
115.01404427946483
 10
112.61706880015498
 20
106.69521336899845
 10
107.6170688001551
 20
114.90949908328419
 10
102.66123356254565
 20
106.76776976435454
 10
98.38415498990227
 20
108.17309558108035
 10
95.89420289855066
 20
112.26373115972943
 10
92.56086956521725
 20
112.26373115972943
 10
79.20714283113762
 20
134.20199650857478
 10
72.58126296596367
 20
139.64468354068183
 10
64.22753623188393
 20
139.64468354068183
 10
62.61706880015505
 20
142.29045146423658
 10
60.950402133488346
 20
139.55235622614137
 10
57.59153792159366
 20
145.0704902885398
  0
LWPOLYLINE
  5
31
330
17
100
AcDbEntity
  8
K
100
AcDbPolyline
 90
5
 70
1
 10
140.0
 20
143.85182639782468
 10
137.617068800155
 20
147.7666419404271
 10
135.23413760031
 20
143.85182639782468
 10
137.617068800155
 20
139.93701085522235
 10
140.0
 20
143.85182639782468
  0
LWPOLYLINE
  5
32
330
17
100
AcDbEntity
  8
K
100
AcDbPolyline
 90
5
 70
1
 10
129.29181396752008
 20
153.16578045547203
 10
126.89417407752724
 20
146.60081409001558
 10
130.9504021334883
 20
139.93701085522235
 10
133.33801509470788
 20
143.85951786294015
 10
129.29181396752008
 20
153.16578045547203
  0
LWPOLYLINE
  5
33
330
17
100
AcDbEntity
  8
K
100
AcDbPolyline
 90
30
 70
1
 10
108.56747093364338
 20
152.0661121121104
 10
112.6732680350927
 20
145.3208740168722
 10
117.67326803509282
 20
145.3208740168722
 10
119.25768381293966
 20
142.71790523898088
 10
123.34072990806699
 20
154.79205583457167
 10
117.59153792159371
 20
164.23715695520647
 10
114.2582045882603
 20
161.49906171711126
 10
107.5915379215937
 20
172.4514426694922
 10
104.2582045882603
 20
169.71334743139698
 10
97.61706880015508
 20
180.6237847975699
 10
94.28373546682167
 20
175.1475943213795
 10
92.56086956521725
 20
177.97801687401517
 10
89.3299030205481
 20
177.97801687401517
 10
77.66323635388139
 20
164.2875406835389
 10
72.66663702638643
 20
164.2875406835389
 10
64.27454399240362
 20
153.2579326960185
 10
62.61706880015505
 20
155.98092765471284
 10
60.22750741086058
 20
152.05521965801483
 10
62.66260495988429
 20
145.38769065473556
 10
69.28373546682177
 20
150.82647642829127
 10
72.59153792159356
 20
148.10935298330008
 10
75.92487125492697
 20
153.58554345949048
 10
82.65287463434623
 20
148.05896925496754
 10
87.56086956521736
 20
148.05896925496754
 10
89.28373546682178
 20
150.8893918076033
 10
94.33993470175939
 20
142.582778778777
 10
97.56086956521737
 20
142.582778778777
 10
107.6170688001551
 20
159.10367752188904
 10
110.23413760031009
 20
154.80420735020562
 10
108.56747093364338
 20
152.0661121121104
  0
LWPOLYLINE
  5
34
330
17
100
AcDbEntity
  8
K
100
AcDbPolyline
 90
5
 70
1
 10
35.950402133488325
 20
260.0285467023319
 10
33.56747093364343
 20
256.11373115972947
 10
35.950402133488325
 20
252.19891561712703
 10
38.33333333333333
 20
256.11373115972947
 10
35.950402133488325
 20
260.0285467023319
  0
LWPOLYLINE
  5
35
330
17
100
AcDbEntity
  8
K
100
AcDbPolyline
 90
72
 70
1
 10
190.89420289855065
 20
120.67801687401514
 10
195.95040213348847
 20
128.98462990284165
 10
197.61706880015495
 20
126.24653466474633
 10
199.22753623188393
 20
128.89230258830088
 10
202.67326803509278
 20
128.89230258830088
 10
204.3399347017595
 20
126.15420735020555
 10
207.56086956521725
 20
126.15420735020555
 10
212.56086956521736
 20
134.36849306449128
 10
215.89420289855076
 20
134.36849306449128
 10
219.22753623188396
 20
139.8446835406818
 10
222.56086956521736
 20
139.8446835406818
 10
224.28373546682178
 20
142.6751060933178
 10
225.95040213348827
 20
139.93701085522258
 10
227.57081846553706
 20
142.599123400731
 10
237.57081846553706
 20
139.8610281626358
 10
239.227536231884
 20
142.582778778777
 10
242.65287463434603
 20
142.582778778777
 10
245.92487125492679
 20
139.89506726901448
 10
254.2582045882601
 20
153.5855434594906
 10
260.98620796767955
 20
148.05896925496754
 10
267.5608695652173
 20
148.05896925496754
 10
270.90415179887026
 20
153.55150435311194
 10
280.8959107679937
 20
150.81566558775683
 10
286.67028248648916
 20
163.01255278906868
 10
285.00361581982224
 20
165.7506480271639
 10
290.89778016356183
 20
178.2005665899612
 10
299.2395707044307
 20
175.45969255510428
 10
304.2275362318839
 20
183.65420735020555
 10
307.67326803509275
 20
183.65420735020555
 10
309.2837354668217
 20
181.00843942665102
 10
312.56086956521744
 20
186.39230258830085
 10
315.9862079676795
 20
186.39230258830085
 10
326.0324994786049
 20
178.1399917043265
 10
330.217068800155
 20
168.51548226476132
 10
330.217068800155
 20
152.09415371236545
 10
332.6732680350927
 20
148.05896925496754
 10
337.6732680350928
 20
148.05896925496754
 10
341.0066013684262
 20
142.582778778777
 10
347.5729608740471
 20
142.582778778777
 10
352.56594972793977
 20
148.05129038065934
 10
367.56594972793965
 20
150.78938561875455
 10
372.6331451706745
 20
156.3391711036547
 10
375.239160950711
 20
152.0578594650237
 10
368.5852631440626
 20
143.85930681040372
 10
372.6088298650739
 20
139.89321961397837
 10
379.23610493602143
 20
148.05896925496754
 10
382.5760682405875
 20
148.05896925496754
 10
390.9701514454865
 20
156.3331369855111
 10
393.55040213348826
 20
152.09415371236545
 10
393.55040213348826
 20
110.96664194042683
 10
391.006601368426
 20
106.78754068353891
 10
332.5608695652172
 20
106.78754068353891
 10
329.2275362318841
 20
112.26373115972943
 10
322.6732680350927
 20
112.26373115972943
 10
319.33993470175926
 20
106.78754068353891
 10
237.56086956521727
 20
106.78754068353891
 10
232.60536803624777
 20
114.92872176684588
 10
225.93870136958094
 20
106.71443605256015
 10
222.56086956521736
 20
112.26373115972943
 10
207.67326803509266
 20
112.26373115972943
 10
206.00660136842598
 20
109.52563592163422
 10
192.67326803509278
 20
109.52563592163422
 10
191.00487528395448
 20
106.78470497333525
 10
163.3925244111183
 20
108.15934581765407
 10
161.66666666666663
 20
110.99468354068176
 10
164.25820458826036
 20
115.25221012615717
 10
167.59153792159364
 20
112.51411488806195
 10
170.89420289855062
 20
117.93992163591993
 10
181.00660136842606
 20
117.93992163591993
 10
182.63314517067454
 20
115.26774253222605
 10
187.57296087404717
 20
120.67801687401514
 10
190.89420289855065
 20
120.67801687401514
  0
LWPOLYLINE
  5
36
330
17
100
AcDbEntity
  8
K
100
AcDbPolyline
 90
5
 70
1
 10
350.2341376003103
 20
130.16135020734842
 10
352.617068800155
 20
126.24653466474622
 10
354.9999999999999
 20
130.16135020734842
 10
352.617068800155
 20
134.07616574995063
 10
350.2341376003103
 20
130.16135020734842
  0
LWPOLYLINE
  5
37
330
17
100
AcDbEntity
  8
K
100
AcDbPolyline
 90
19
 70
1
 10
357.54247457156265
 20
213.60347531597156
 10
354.9999999999999
 20
217.78039782639613
 10
357.5608695652174
 20
221.98754068353887
 10
362.5608695652173
 20
221.98754068353887
 10
364.99999999999966
 20
225.99468354068176
 10
361.66666666666623
 20
231.47087401687227
 10
365.8942028985507
 20
238.41611211211034
 10
369.2212049236071
 20
238.41611211211034
 10
375.94064038056354
 20
252.21495278264638
 10
377.6170688001551
 20
249.46082037903204
 10
379.2275362318839
 20
252.1065883025866
 10
384.3339779489362
 20
252.1065883025866
 10
393.55040213348826
 20
239.7182778727016
 10
393.55040213348826
 20
204.06188003566496
 10
391.00213759071767
 20
199.8754454296847
 10
380.05671076672064
 20
201.25865870964054
 10
375.90938991377345
 20
208.0721143966251
 10
369.2710028335301
 20
205.345633988668
 10
357.54247457156265
 20
213.60347531597156
  0
LWPOLYLINE
  5
38
330
17
100
AcDbEntity
  8
K
100
AcDbPolyline
 90
8
 70
1
 10
384.2837354668217
 20
274.10367752188915
 10
387.6425996787164
 20
268.5855434594906
 10
390.9759330120498
 20
271.3236386975858
 10
393.55040213348826
 20
267.0941537123653
 10
393.55040213348826
 20
261.56188003566496
 10
389.2749730907691
 20
254.53796089405455
 10
381.66961117062914
 20
269.809044749573
 10
384.2837354668217
 20
274.10367752188915
  0
LWPOLYLINE
  5
39
330
17
100
AcDbEntity
  8
K
100
AcDbPolyline
 90
226
 70
1
 10
660.2286482826211
 20
143.84280823304974
 10
663.5380532189273
 20
135.68748892572347
 10
680.2379537703537
 20
113.73904820099168
 10
677.648663554076
 20
109.48521427424973
 10
669.2100143743394
 20
115.03061230664812
 10
662.5455640337817
 20
125.97935215184985
 10
657.542438238725
 20
128.71915913485722
 10
647.542438238725
 20
147.88582580152388
 10
642.5360423957899
 20
150.62742352503588
 10
640.0066301894494
 20
157.5531950423965
 10
643.3333333333333
 20
163.01849306449134
 10
638.3504021334884
 20
171.20473717852224
 10
638.3504021334884
 20
187.6333086070936
 10
636.6837354668216
 20
190.37140384518892
 10
636.6837354668216
 20
234.1881705308877
 10
632.5515041375116
 20
243.6923025883009
 10
625.9145962992972
 20
243.6923025883009
 10
622.540476164471
 20
246.46390127047945
 10
613.3416933144211
 20
261.57618738127553
 10
615.017068800155
 20
267.08099254868677
 10
615.017068800155
 20
294.46786321714256
 10
619.2181708041783
 20
304.13039782639606
 10
627.6528746343463
 20
304.13039782639606
 10
630.9248712549269
 20
301.4426863166334
 10
634.227536231884
 20
306.86849306449136
 10
639.3278433929296
 20
306.86849306449136
 10
644.2676590963023
 20
301.45821872270216
 10
647.617068800155
 20
306.9608203790318
 10
650.9664785040078
 20
301.45821872270216
 10
655.9062942073806
 20
306.86849306449136
 10
664.2479296326304
 20
306.86849306449136
 10
667.6425996787165
 20
309.6569720309191
 10
669.2837354668218
 20
306.9608203790318
 10
670.9504021334883
 20
309.69891561712706
 10
672.617068800155
 20
306.9608203790318
 10
674.9999999999999
 20
310.8756359216341
 10
671.6837354668216
 20
316.32378479756994
 10
671.6837354668216
 20
330.07602082849075
 10
680.017068800155
 20
341.0284017808718
 10
680.017068800155
 20
351.9190228928081
 10
678.3333333333334
 20
354.685159731158
 10
679.9999999999999
 20
357.4232549692532
 10
675.9504021334883
 20
364.0761657499509
 10
673.5674709336434
 20
360.1613502073485
 10
675.2341376003101
 20
357.4232549692532
 10
673.5674709336434
 20
354.685159731158
 10
675.2341376003101
 20
351.9470644930628
 10
673.5674709336434
 20
349.2089692549675
 10
675.2341376003101
 20
346.47087401687224
 10
672.6331451706745
 20
342.1978150253281
 10
667.6331451706745
 20
347.6740055015186
 10
664.3399347017595
 20
342.2637311597294
 10
654.227536231884
 20
342.2637311597294
 10
649.2837354668217
 20
350.3856895594747
 10
644.2998118373412
 20
342.1978150253281
 10
639.2837354668217
 20
347.6916129549447
 10
634.3278433929296
 20
342.2637311597294
 10
620.8942028985507
 20
342.2637311597294
 10
618.3446067099101
 20
346.452353469639
 10
620.0225467531536
 20
354.72220082562467
 10
623.3416933144211
 20
360.17508446199287
 10
621.6783286071565
 20
365.6404256430058
 10
626.6765836559575
 20
379.326123990914
 10
623.3388226510224
 20
387.55132075307574
 10
627.5508216565689
 20
394.4710334050453
 10
635.9013974767324
 20
397.21479403167035
 10
642.6425996787164
 20
402.75221012615725
 10
649.3399347017595
 20
391.74944544544365
 10
650.8942028985506
 20
391.74944544544365
 10
655.0040805721146
 20
398.50138733772735
 10
650.0040805721146
 20
409.45376829010826
 10
652.5608695652173
 20
413.65420735020564
 10
659.227536231884
 20
413.65420735020564
 10
660.8942028985506
 20
416.3923025883008
 10
664.3399347017595
 20
416.3923025883008
 10
669.3247476865365
 20
408.2029669704528
 10
675.9914143532031
 20
410.941062208548
 10
678.5674709336434
 20
406.7089692549675
 10
673.5674709336434
 20
398.4946835406819
 10
675.9504021334883
 20
394.5798679980794
 10
679.227536231884
 20
399.9637311597294
 10
686.0066013684261
 20
399.9637311597294
 10
689.2739737138969
 20
394.5959051635988
 10
695.9406403805635
 20
408.28638135407493
 10
698.5674709336434
 20
403.97087401687224
 10
696.9008042669767
 20
401.23277877877706
 10
698.5674709336434
 20
398.4946835406819
 10
692.6425996787165
 20
388.7609664790159
 10
689.309266345383
 20
391.49906171711115
 10
685.9504021334883
 20
385.9809276547128
 10
684.2837354668218
 20
388.719022892808
 10
678.5674709336434
 20
379.3280168740152
 10
685.228648282621
 20
368.38465408640906
 10
681.8953149492877
 20
360.17036837212345
 10
689.2954362307288
 20
348.0130262668987
 10
695.9027716026881
 20
356.15420735020564
 10
699.3399347017594
 20
356.15420735020564
 10
701.0066013684261
 20
353.41611211211034
 10
706.0203408913937
 20
353.41611211211034
 10
710.9730391440776
 20
339.8551526107142
 10
715.8942028985507
 20
347.9399216359199
 10
724.2396275407139
 20
347.9399216359199
 10
734.2396275407139
 20
358.8923025883008
 10
739.227536231884
 20
358.8923025883008
 10
744.2275362318838
 20
367.1065883025866
 10
749.3399347017594
 20
367.1065883025866
 10
751.9008042669767
 20
362.89944544544375
 10
748.5674709336433
 20
357.4232549692532
 10
750.9504021334884
 20
353.5084394266508
 10
755.0
 20
360.1613502073485
 10
753.3333333333333
 20
362.89944544544375
 10
755.8942028985506
 20
367.1065883025866
 10
759.3399347017594
 20
367.1065883025866
 10
761.8924442858888
 20
362.91317970008805
 10
760.2257776192222
 20
357.43698922389757
 10
765.2275074108607
 20
349.219861709063
 10
762.6544227911994
 20
342.17451096475304
 10
757.6331451706745
 20
347.6740055015186
 10
752.6612335625457
 20
339.5058650024498
 10
744.3279002292123
 20
342.24396024054505
 10
742.6425996787166
 20
339.4752521933017
 10
739.3092663453832
 20
342.21334743139687
 10
736.9067693273417
 20
338.2663880446144
 10
742.6632363538813
 20
331.51135020734847
 10
747.6732680350927
 20
331.51135020734847
 10
751.0066013684261
 20
326.03515973115805
 10
757.6732680350927
 20
326.03515973115805
 10
761.9008042669767
 20
319.0899216359199
 10
759.3279002292124
 20
314.86300785959264
 10
750.8841549899024
 20
317.637381295366
 10
747.5608695652173
 20
323.09706449306276
 10
744.2275362318838
 20
323.09706449306276
 10
742.6095021723828
 20
325.75526330510064
 10
732.6353869253498
 20
312.1002245740434
 10
725.9759330120497
 20
317.57049028853976
 10
724.3399347017594
 20
314.88277877877704
 10
721.0066013684261
 20
314.88277877877704
 10
715.2341376003101
 20
305.39944544544375
 10
717.6170688001549
 20
301.48462990284133
 10
720.8942028985507
 20
306.86849306449136
 10
726.0066013684261
 20
306.86849306449136
 10
728.5504021334884
 20
302.6893918076032
 10
728.5504021334884
 20
297.21320133141273
 10
732.6732680350929
 20
290.4399216359199
 10
737.6732680350927
 20
290.4399216359199
 10
743.5674709336434
 20
280.7565883025865
 10
741.9008042669767
 20
278.01849306449134
 10
747.6854224996795
 20
268.51519168219374
 10
754.3520891663463
 20
265.7770964440984
 10
760.217068800155
 20
256.1417727599842
 10
760.217068800155
 20
253.34759432137943
 10
754.3399347017595
 20
243.6923025883009
 10
751.0066013684261
 20
243.6923025883009
 10
742.6974506527523
 20
230.04155498397972
 10
737.6611767262627
 20
224.5256359216342
 10
734.3399347017595
 20
224.5256359216342
 10
731.9008042669767
 20
220.51849306449134
 10
733.5504021334883
 20
217.80843942665084
 10
733.5504021334883
 20
209.6022070315865
 10
745.9638061915186
 20
194.64701071405443
 10
749.309266345383
 20
197.39506726901433
 10
751.0066013684261
 20
194.6065883025866
 10
764.3399347017593
 20
194.6065883025866
 10
766.006601368426
 20
191.86849306449128
 10
772.6732680350926
 20
191.86849306449128
 10
775.2205288463422
 20
187.68370744601015
 10
773.5480625823333
 20
173.94559170593837
 10
766.8837354668218
 20
157.522785599856
 10
766.8837354668218
 20
152.03163342470472
 10
759.332457917835
 20
142.38277877877704
 10
756.006601368426
 20
142.38277877877704
 10
752.6732680350926
 20
136.9065883025866
 10
749.3399347017594
 20
136.9065883025866
 10
745.2341376003101
 20
130.16135020734842
 10
747.6732680350927
 20
126.15420735020555
 10
760.9862079676795
 20
126.15420735020555
 10
767.6528746343464
 20
120.67801687401514
 10
780.980318582109
 20
120.67801687401514
 10
789.3136519154424
 20
115.20182639782462
 10
794.3399347017594
 20
115.20182639782462
 10
796.006601368426
 20
112.4637311597294
 10
802.6695699185515
 20
112.4637311597294
 10
816.9028751226742
 20
91.8314189940893
 10
814.2837354668217
 20
87.5285467023318
 10
812.5608695652172
 20
90.35896925496756
 10
796.006601368426
 20
90.35896925496756
 10
792.6732680350926
 20
84.88277877877704
 10
789.2275362318841
 20
84.88277877877704
 10
784.227536231884
 20
93.09706449306276
 10
780.9980326642885
 20
93.09706449306276
 10
774.2979914516252
 20
84.84165657031694
 10
770.97593301205
 20
87.57049028853969
 10
769.3399347017594
 20
84.88277877877704
 10
750.8942028985507
 20
84.88277877877704
 10
746.6750266477545
 20
91.81428261937074
 10
748.341693314421
 20
97.29047309556127
 10
745.8942028985506
 20
101.3113502073485
 10
735.9145962992969
 20
101.3113502073485
 10
722.5680641433992
 20
112.27457304969323
 10
714.3279002292123
 20
114.98205547864026
 10
709.3279002292123
 20
106.76776976435454
 10
700.9945668958791
 20
109.50586500244985
 10
698.5786389559854
 20
105.53684052976719
 10
706.028382855447
 20
98.7374710977188
 10
711.9008042669768
 20
89.0899216359199
 10
709.3399347017594
 20
84.88277877877704
 10
697.5608695652173
 20
84.88277877877704
 10
695.9504021334884
 20
87.5285467023318
 10
694.3314626215999
 20
84.86886036137209
 10
688.3867659271176
 20
86.26404427946488
 10
681.6707472387811
 20
97.29750355316025
 10
686.6707472387811
 20
108.24988450554119
 10
683.3416933144211
 20
113.71904452413273
 10
685.0083599810878
 20
119.19523500032314
 10
683.3333333333334
 20
121.94706449306281
 10
685.9146497503017
 20
126.18779860665374
 10
690.9146497503017
 20
123.44970336855854
 10
695.0
 20
130.16135020734842
 10
692.5608695652173
 20
134.16849306449132
 10
685.8942028985506
 20
134.16849306449132
 10
684.2200992604509
 20
136.9188061842268
 10
672.5534325937842
 20
139.65690142232202
 10
670.8942028985506
 20
142.38277877877704
 10
665.8942028985506
 20
142.38277877877704
 10
662.617068800155
 20
147.7666419404271
 10
660.2286482826211
 20
143.84280823304974
  0
LWPOLYLINE
  5
3A
330
17
100
AcDbEntity
  8
K
100
AcDbPolyline
 90
5
 70
1
 10
734.9904821119594
 20
332.7960343567484
 10
732.5973194881569
 20
336.7276586672813
 10
728.576988821684
 20
332.76476129604384
 10
730.9701514454866
 20
328.833136985511
 10
734.9904821119594
 20
332.7960343567484
  0
LWPOLYLINE
  5
3B
330
17
100
AcDbEntity
  8
K
100
AcDbPolyline
 90
5
 70
1
 10
722.617068800155
 20
333.9571181309032
 10
720.2341376003101
 20
330.0423025883008
 10
722.617068800155
 20
326.1274870456985
 10
725.0
 20
330.0423025883008
 10
722.617068800155
 20
333.9571181309032
  0
LWPOLYLINE
  5
3C
330
17
100
AcDbEntity
  8
K
100
AcDbPolyline
 90
5
 70
1
 10
705.2341376003101
 20
327.3042073502056
 10
707.617068800155
 20
323.3893918076032
 10
710.0
 20
327.3042073502056
 10
707.617068800155
 20
331.219022892808
 10
705.2341376003101
 20
327.3042073502056
  0
LWPOLYLINE
  5
3D
330
17
100
AcDbEntity
  8
K
100
AcDbPolyline
 90
6
 70
1
 10
676.6666666666666
 20
376.5899216359199
 10
669.2275362318841
 20
388.8113502073485
 10
667.6732680350927
 20
388.8113502073485
 10
665.2375440180614
 20
384.8098036079399
 10
674.2754350045576
 20
372.66146961959777
 10
676.6666666666666
 20
376.5899216359199
  0
LWPOLYLINE
  5
3E
330
17
100
AcDbEntity
  8
K
100
AcDbPolyline
 90
5
 70
1
 10
661.9008042669767
 20
354.685159731158
 10
664.2837354668218
 20
350.77034418855555
 10
666.6666666666666
 20
354.685159731158
 10
664.2837354668218
 20
358.59997527376044
 10
661.9008042669767
 20
354.685159731158
  0
LWPOLYLINE
  5
3F
330
17
100
AcDbEntity
  8
K
100
AcDbPolyline
 90
6
 70
1
 10
653.3333333333334
 20
371.11373115972947
 10
649.2837354668217
 20
377.76664194042706
 10
645.2341376003101
 20
371.11373115972947
 10
647.6732680350927
 20
367.1065883025866
 10
650.8942028985506
 20
367.1065883025866
 10
653.3333333333334
 20
371.11373115972947
  0
LWPOLYLINE
  5
40
330
17
100
AcDbEntity
  8
K
100
AcDbPolyline
 90
23
 70
1
 10
770.9504021334884
 20
344.9094990832843
 10
769.2837354668217
 20
342.17140384518893
 10
766.6666666666667
 20
346.47087401687224
 10
769.2582045882605
 20
350.7284006023477
 10
772.5915379215936
 20
347.99030536425244
 10
774.2837354668216
 20
350.77034418855555
 10
777.617068800155
 20
345.2941537123652
 10
782.5973194881569
 20
353.47599412836803
 10
786.8699519612921
 20
349.2643992619917
 10
791.8837354668217
 20
335.536182520661
 10
791.8837354668217
 20
330.00682925570766
 10
785.2391609507109
 20
321.81976422692827
 10
788.5674709336433
 20
316.35182639782465
 10
785.9406403805634
 20
312.036319060622
 10
779.2582965651104
 20
325.75898939592764
 10
769.290169769553
 20
314.8415171912692
 10
761.6554986443248
 20
321.80966940873924
 10
765.0
 20
327.3042073502056
 10
763.3333333333333
 20
330.0423025883008
 10
765.8942028985506
 20
334.24944544544365
 10
769.227536231884
 20
334.24944544544365
 10
773.3333333333334
 20
340.9946835406819
 10
770.9504021334884
 20
344.9094990832843
  0
LWPOLYLINE
  5
41
330
17
100
AcDbEntity
  8
K
100
AcDbPolyline
 90
5
 70
1
 10
779.2837354668218
 20
328.8655822837937
 10
781.6666666666666
 20
332.7803978263961
 10
779.2837354668218
 20
336.69521336899857
 10
776.9008042669766
 20
332.7803978263961
 10
779.2837354668218
 20
328.8655822837937
  0
LWPOLYLINE
  5
42
330
17
100
AcDbEntity
  8
K
100
AcDbPolyline
 90
10
 70
1
 10
729.3399347017594
 20
96.03515973115795
 10
733.5674709336433
 20
89.0899216359199
 10
731.003211371832
 20
84.87720949865829
 10
716.7243250736851
 20
86.25710187200863
 10
715.017068800155
 20
89.06188003566507
 10
715.017068800155
 20
94.59415371236524
 10
719.227536231884
 20
101.51135020734847
 10
722.6732680350927
 20
101.51135020734847
 10
726.0066013684261
 20
96.03515973115795
 10
729.3399347017594
 20
96.03515973115795
  0
LWPOLYLINE
  5
43
330
17
100
AcDbEntity
  8
K
100
AcDbPolyline
 90
29
 70
1
 10
635.9062942073806
 20
106.98754068353888
 10
644.227536231884
 20
106.98754068353888
 10
645.9387013695813
 20
109.79874055261295
 10
652.6215282924103
 20
101.5645430941271
 10
657.5729608740471
 20
106.98754068353888
 10
661.0113816345787
 20
106.98754068353888
 10
670.2316544473748
 20
89.08584217038317
 10
667.6732680350927
 20
84.88277877877704
 10
662.5608695652173
 20
84.88277877877704
 10
659.2676590963023
 20
90.29305312056624
 10
654.3265867667124
 20
84.88140247387254
 10
610.0422838537377
 20
86.2540964994769
 10
608.3416933144211
 20
91.84175112865955
 10
611.6666666666667
 20
97.30420735020562
 10
608.3333333333333
 20
102.78039782639614
 10
610.9306528214902
 20
107.04742269979661
 10
615.2436554883507
 20
102.79603435674845
 10
613.5674709336433
 20
100.04230258830083
 10
615.9701514454866
 20
96.09504174741568
 10
619.9783229446966
 20
100.04595365377989
 10
614.9926626104884
 20
105.5064387817224
 10
616.6666666666666
 20
108.25658830258655
 10
613.3333333333333
 20
113.73277877877707
 10
615.8942028985507
 20
117.93992163591993
 10
619.3480110918632
 20
117.93992163591993
 10
624.3480110918632
 20
106.98754068353888
 10
627.6732680350927
 20
106.98754068353888
 10
630.9664785040078
 20
101.5772663417499
 10
635.9062942073806
 20
106.98754068353888
  0
LWPOLYLINE
  5
44
330
17
100
AcDbEntity
  8
K
100
AcDbPolyline
 90
52
 70
1
 10
566.6666666666666
 20
124.68515973115801
 10
569.2582045882604
 20
128.94268631663343
 10
572.5915379215937
 20
126.2045910785381
 10
575.8942028985506
 20
131.63039782639606
 10
582.5608695652173
 20
131.63039782639606
 10
585.0
 20
135.63754068353896
 10
583.3283099829326
 20
138.3838885687211
 10
589.9949766495993
 20
146.5981742830068
 10
588.3333333333333
 20
149.32801687401508
 10
590.9368557271607
 20
153.605232235303
 10
596.8914168123702
 20
146.61773708429195
 10
595.2228642237333
 20
138.39415646886755
 10
596.9008042669768
 20
135.63754068353896
 10
593.5718085363287
 20
130.1684762689027
 10
600.9991245845016
 20
120.67801687401514
 10
604.3399347017594
 20
120.67801687401514
 10
608.5608407441939
 20
113.74367123287277
 10
606.0203408913937
 20
106.78754068353891
 10
601.0066013684261
 20
106.78754068353891
 10
597.6732680350927
 20
101.3113502073485
 10
594.3399347017594
 20
101.3113502073485
 10
591.9008042669768
 20
97.30420735020562
 10
596.9008042669768
 20
89.0899216359199
 10
594.3399347017594
 20
84.88277877877704
 10
590.8942028985507
 20
84.88277877877704
 10
588.3333333333333
 20
89.0899216359199
 10
590.0
 20
91.82801687401509
 10
587.617068800155
 20
95.74283241661752
 10
584.3399347017594
 20
90.35896925496756
 10
579.3278433929295
 20
90.35896925496756
 10
574.3278433929295
 20
84.88277877877704
 10
549.2396275407139
 20
84.88277877877704
 10
544.2837354668218
 20
90.31066057399228
 10
539.2758543924805
 20
84.82583844495184
 10
529.9848946676576
 20
97.314336256889
 10
538.3238154452928
 20
105.53412959484365
 10
536.6666666666666
 20
108.25658830258655
 10
540.924871254927
 20
115.25221012615717
 10
544.2694794820181
 20
112.5048533681895
 10
550.9621028973954
 20
120.7511215049939
 10
555.2170688001551
 20
113.7608203790319
 10
555.2170688001551
 20
105.49045146423653
 10
550.2341376003101
 20
97.30420735020562
 10
552.617068800155
 20
93.3893918076033
 10
555.924871254927
 20
98.8236386975858
 10
559.2582045882604
 20
96.0855434594905
 10
561.6666666666666
 20
100.04230258830083
 10
559.9999999999999
 20
102.78039782639614
 10
563.3333333333334
 20
108.25658830258655
 10
559.9904821119593
 20
113.74841530912938
 10
568.3238154452928
 20
121.96270102341511
 10
566.6666666666666
 20
124.68515973115801
  0
LWPOLYLINE
  5
45
330
17
100
AcDbEntity
  8
K
100
AcDbPolyline
 90
6
 70
1
 10
583.5674709336434
 20
116.47087401687229
 10
587.617068800155
 20
109.81796323617476
 10
590.017068800155
 20
113.7608203790319
 10
590.017068800155
 20
119.18092765471266
 10
587.617068800155
 20
123.12378479756991
 10
583.5674709336434
 20
116.47087401687229
  0
LWPOLYLINE
  5
46
330
17
100
AcDbEntity
  8
K
100
AcDbPolyline
 90
5
 70
1
 10
576.6666666666666
 20
116.47087401687229
 10
572.617068800155
 20
123.12378479756991
 10
570.2341376003101
 20
119.20896925496749
 10
574.2837354668217
 20
112.55605847426997
 10
576.6666666666666
 20
116.47087401687229
  0
LWPOLYLINE
  5
47
330
17
100
AcDbEntity
  8
K
100
AcDbPolyline
 90
8
 70
1
 10
1261.7226589432441
 20
61.616981943447335
 10
1259.9999999999998
 20
64.44706449306281
 10
1264.2837354668216
 20
71.48462990284143
 10
1266.0066013684261
 20
68.65420735020555
 10
1271.0066013684261
 20
68.65420735020555
 10
1273.5674709336436
 20
64.44706449306281
 10
1271.0012992364698
 20
60.231210990563056
 10
1261.7226589432441
 20
61.616981943447335
  0
LWPOLYLINE
  5
48
330
17
100
AcDbEntity
  8
K
100
AcDbPolyline
 90
12
 70
1
 10
1228.4064770680768
 20
61.61185198215679
 10
1224.277646904417
 20
65.68169885776398
 10
1220.9148534368444
 20
62.91940422368647
 10
1215.003615819822
 20
75.40538572086619
 10
1219.2275362318837
 20
82.34468354068181
 10
1222.5608695652172
 20
82.34468354068181
 10
1224.2582045882605
 20
85.13316250710956
 10
1234.3327401235777
 20
76.85765117452748
 10
1242.6771156225534
 20
74.1159277962925
 10
1250.2384752029952
 20
64.4541905546171
 10
1247.670777780105
 20
60.235830502726294
 10
1228.4064770680768
 20
61.61185198215679
  0
LWPOLYLINE
  5
49
330
17
100
AcDbEntity
  8
K
100
AcDbPolyline
 90
62
 70
1
 10
1977.6170688001544
 20
131.33807051185565
 10
1974.2837354668216
 20
136.81426098804616
 10
1972.6732680350922
 20
134.16849306449132
 10
1969.2275362318837
 20
134.16849306449132
 10
1967.560869565217
 20
136.9065883025866
 10
1962.560869565217
 20
136.9065883025866
 10
1959.2216428519625
 20
142.39246076007572
 10
1951.6837354668212
 20
143.76842798117295
 10
1951.6837354668212
 20
154.84299222165708
 10
1956.6714857769455
 20
160.3057663708407
 10
1955.0125399716314
 20
165.75658830258655
 10
1956.6714857769455
 20
171.2074102343326
 10
1951.6789178798351
 20
176.67546078831074
 10
1953.346942087301
 20
190.37708820678202
 10
1951.6837354668212
 20
193.1094990832841
 10
1951.6837354668212
 20
201.3798679980794
 10
1953.333333333333
 20
204.0899216359199
 10
1951.6837354668212
 20
206.79997527376037
 10
1951.6837354668212
 20
223.29341757481635
 10
1957.6203651850692
 20
230.25987081561738
 10
1965.23149818543
 20
220.53453420404568
 10
1958.5619816159538
 20
204.09893980069484
 10
1960.9504021334878
 20
200.17510609331757
 10
1962.5915379215933
 20
202.87125774520476
 10
1965.9248712549268
 20
200.13316250710955
 10
1967.6035223938272
 20
202.89094652101713
 10
1973.573435994008
 20
195.88543566366212
 10
1971.9008042669764
 20
193.13754068353893
 10
1973.5674709336433
 20
190.39944544544375
 10
1970.2341376003099
 20
184.9232549692532
 10
1974.2920359290856
 20
178.25670771483593
 10
1983.3299269155816
 20
190.40504170317806
 10
1978.333333333333
 20
198.61373115972947
 10
1979.9999999999995
 20
201.35182639782468
 10
1978.333333333333
 20
204.0899216359199
 10
1980.8942028985505
 20
208.29706449306272
 10
1984.339934701759
 20
208.29706449306272
 10
1988.559110952555
 20
201.36556065246901
 10
1986.8924442858886
 20
195.88937017627862
 10
1989.283735466821
 20
191.96082037903184
 10
1990.950402133488
 20
194.69891561712714
 10
1992.6732680350922
 20
191.86849306449128
 10
1997.6732680350926
 20
191.86849306449128
 10
2000.2170688001545
 20
187.68939180760324
 10
2000.2170688001545
 20
179.419022892808
 10
1997.6331451706742
 20
175.17400550151862
 10
1992.6331451706742
 20
180.65019597770905
 10
1990.2341376003099
 20
176.70896925496749
 10
1991.8924442858886
 20
173.98460827151675
 10
1990.2075133925248
 20
168.44840676474936
 10
1981.9046204370202
 20
157.53603316608633
 10
1985.940640380563
 20
150.90542897312253
 10
1992.5881159118965
 20
164.5564947963959
 10
1996.8837354668212
 20
160.32224123511273
 10
1996.8837354668212
 20
154.7761657499508
 10
1993.559110952555
 20
149.31428261937074
 10
1995.2257776192218
 20
143.83809214318032
 10
1993.5504021334882
 20
141.08568955947464
 10
1993.5504021334882
 20
135.5934215151905
 10
1985.9538488674611
 20
128.66005940730884
 10
1979.3092663453829
 20
134.11810933615885
 10
1977.6170688001544
 20
131.33807051185565
  0
LWPOLYLINE
  5
4A
330
17
100
AcDbEntity
  8
K
100
AcDbPolyline
 90
7
 70
1
 10
1971.6713484280408
 20
165.76427976770202
 10
1967.6022390948367
 20
175.12323123407148
 10
1965.2341376003096
 20
171.23277877877706
 10
1966.9008042669764
 20
168.49468354068176
 10
1963.5608407441937
 20
163.00760061039577
 10
1965.9730391440773
 20
156.40277165833328
 10
1971.6713484280408
 20
165.76427976770202
  0
LWPOLYLINE
  5
4B
330
17
100
AcDbEntity
  8
K
100
AcDbPolyline
 90
5
 70
1
 10
1961.0012992364693
 20
98.78196561461017
 10
1963.5653242651524
 20
94.56963878177393
 10
1952.5305508478166
 20
73.65207378737371
 10
1951.6806026219947
 20
97.38991352283787
 10
1961.0012992364693
 20
98.78196561461017
  0
LWPOLYLINE
  5
4C
330
17
100
AcDbEntity
  8
K
100
AcDbPolyline
 90
65
 70
1
 10
2981.6917466099303
 20
171.27398154271035
 10
2983.3504021334884
 20
176.72384969154388
 10
2983.3504021334884
 20
187.68939180760324
 10
2986.683735466822
 20
193.16558228379378
 10
2986.683735466822
 20
198.6417727599843
 10
2989.227536231884
 20
202.8208740168722
 10
2995.920485684868
 20
202.8208740168722
 10
3004.2538190182013
 20
208.29706449306272
 10
3017.5608695652177
 20
208.29706449306272
 10
3019.23283836384
 20
211.04387037651472
 10
3037.6866708457223
 20
208.28777851233758
 10
3041.8806373056545
 20
198.6416556544942
 10
3043.5462474913975
 20
187.69621729103804
 10
3048.5434571643896
 20
179.48651568540853
 10
3053.54345716439
 20
160.31984901874185
 10
3057.6732680350933
 20
153.53515973115793
 10
3125.9803185821092
 20
153.53515973115793
 10
3134.3136519154423
 20
148.05896925496754
 10
3151.006601368426
 20
148.05896925496754
 10
3152.6798448074524
 20
145.31006931942403
 10
3165.91486311599
 20
142.59216377392082
 10
3170.9062942073806
 20
148.05896925496754
 10
3177.5812629659636
 20
148.05896925496754
 10
3187.5700815825185
 20
156.26407026142343
 10
3197.5627392544448
 20
159.00015510016507
 10
3202.572960874047
 20
164.48754068353887
 10
3212.673268035093
 20
164.48754068353887
 10
3214.3399347017594
 20
161.74944544544368
 10
3217.673268035093
 20
161.74944544544368
 10
3221.0066013684263
 20
156.27325496925326
 10
3227.664699330955
 20
156.27325496925326
 10
3234.3313659976216
 20
148.05896925496754
 10
3239.33993470176
 20
148.05896925496754
 10
3242.673268035093
 20
142.582778778777
 10
3246.006601368426
 20
142.582778778777
 10
3247.6732680350924
 20
139.8446835406818
 10
3250.8942028985507
 20
139.8446835406818
 10
3252.5608695652177
 20
142.582778778777
 10
3260.8942028985507
 20
142.582778778777
 10
3262.560869565217
 20
145.3208740168722
 10
3269.227536231884
 20
145.3208740168722
 10
3270.8942028985507
 20
148.05896925496754
 10
3305.8942028985507
 20
148.05896925496754
 10
3307.560869565217
 20
150.79706449306275
 10
3327.560869565217
 20
150.79706449306275
 10
3329.227536231884
 20
153.53515973115793
 10
3349.227536231884
 20
153.53515973115793
 10
3350.9504021334883
 20
156.36558228379405
 10
3353.5504021334887
 20
152.09415371236545
 10
3353.5504021334887
 20
64.41902289280787
 10
3351.0064363388306
 20
60.2396505158701
 10
3066.732308394559
 20
61.60921585787216
 10
3055.874887813763
 20
76.7022235883188
 10
3044.205382557469
 20
87.65726933912521
 10
3035.8956605117637
 20
101.30895555707042
 10
2970.8956605117637
 20
98.57086031897522
 10
2966.683735466822
 20
105.49045146423653
 10
2966.683735466822
 20
110.96664194042694
 10
2963.3504021334884
 20
116.44283241661746
 10
2963.3504021334884
 20
121.91902289280799
 10
2961.6837354668214
 20
124.65711813090319
 10
2961.6837354668214
 20
135.67301401613207
 10
2968.360429978505
 20
143.89965546802796
 10
2971.6917466099303
 20
154.84541011413887
 10
2981.6917466099303
 20
171.27398154271035
  0
LWPOLYLINE
  5
4D
330
17
100
AcDbEntity
  8
K
100
AcDbPolyline
 90
10
 70
1
 10
3310.021343302824
 20
584.6540499276022
 10
3305.0040805721146
 20
595.6442444805843
 10
3307.560869565217
 20
599.8446835406818
 10
3351.006601368426
 20
599.8446835406818
 10
3353.5504021334887
 20
595.6655822837938
 10
3353.5504021334887
 20
560.0142609880459
 10
3351.003211371832
 20
555.829590451039
 10
3322.5576584070186
 20
558.5785304434371
 10
3311.6892134198206
 20
576.4338329224054
 10
3310.021343302824
 20
584.6540499276022
  0
LWPOLYLINE
  5
4E
330
17
100
AcDbEntity
  8
K
100
AcDbPolyline
 90
16
 70
1
 10
3221.6934958605157
 20
590.1143999057786
 10
3220.008359981088
 20
595.6512749381835
 10
3222.560869565217
 20
599.8446835406818
 10
3301.0066013684263
 20
599.8446835406818
 10
3303.5734359940084
 20
595.6277409415111
 10
3297.6694236958665
 20
588.6995632447118
 10
3281.000853882588
 20
585.9611553468162
 10
3275.994510059596
 20
580.4780168740151
 10
3271.006601368426
 20
580.4780168740151
 10
3269.3399347017594
 20
577.7399216359199
 10
3259.3195413010126
 20
577.7399216359199
 10
3252.6528746343465
 20
572.2637311597294
 10
3242.673268035093
 20
572.2637311597294
 10
3240.9945668958794
 20
569.5058650024498
 10
3236.723688644423
 20
570.9091535707854
 10
3221.6934958605157
 20
590.1143999057786
  0
LWPOLYLINE
  5
4F
330
17
100
AcDbEntity
  8
K
100
AcDbPolyline
 90
17
 70
1
 10
3301.8837354668217
 20
286.260820379032
 10
3301.8837354668217
 20
212.262363941489
 10
3289.3206448421643
 20
199.87874604004074
 10
3260.890991740352
 20
202.62614949105605
 10
3259.2275362318837
 20
205.35896925496755
 10
3252.5608695652177
 20
205.35896925496755
 10
3250.0
 20
209.5661121121104
 10
3258.3569123169354
 20
223.29532520421824
 10
3261.6919005744403
 20
236.9925984046858
 10
3268.3604299785056
 20
245.2091792775517
 10
3271.6917466099308
 20
256.1549339236633
 10
3278.3603625798632
 20
267.1105173028385
 10
3284.1972540135753
 20
282.17922682048214
 10
3289.239627540714
 20
287.70182639782473
 10
3295.9145962992975
 20
287.70182639782473
 10
3299.309266345383
 20
290.4903053642525
 10
3301.8837354668217
 20
286.260820379032
  0
LWPOLYLINE
  5
50
330
17
100
AcDbEntity
  8
K
100
AcDbPolyline
 90
140
 70
1
 10
2974.215230661452
 20
287.50182639782474
 10
2968.346576193654
 20
302.65253640142555
 10
2970.0236193692663
 20
310.91796348122733
 10
2978.3599575411185
 20
321.87429364994745
 10
2981.6932908744516
 20
332.8266746023284
 10
2990.017068800155
 20
343.766497018967
 10
2990.017068800155
 20
346.49891561712695
 10
2995.8942028985507
 20
356.15420735020564
 10
2999.227536231884
 20
356.15420735020564
 10
3005.0
 20
365.63754068353893
 10
3000.934325762969
 20
372.3168626443757
 10
2990.960261305182
 20
361.3928872858475
 10
2984.207142831138
 20
366.94009174666996
 10
2980.0
 20
373.85182639782465
 10
2983.339963522783
 20
379.3389093281108
 10
2980.889671913967
 20
386.04804111415444
 10
2972.572904037764
 20
383.31538881197366
 10
2970.0
 20
387.5423025883008
 10
2972.560869565217
 20
391.74944544544365
 10
2977.5608695652177
 20
391.74944544544365
 10
2979.227536231884
 20
394.48754068353895
 10
3009.2275362318837
 20
394.48754068353895
 10
3010.8942028985507
 20
397.2256359216342
 10
3019.227536231884
 20
397.2256359216342
 10
3020.8942028985507
 20
399.9637311597294
 10
3042.5560892990643
 20
399.9637311597294
 10
3051.669149819602
 20
417.65727074181183
 10
3046.666666666667
 20
425.8756359216341
 10
3049.2275362318837
 20
430.08277877877697
 10
3060.8942028985507
 20
430.08277877877697
 10
3062.5608695652177
 20
432.8208740168723
 10
3065.991402693056
 20
432.8208740168723
 10
3074.3247360263895
 20
424.6065883025866
 10
3077.560869565217
 20
424.6065883025866
 10
3079.283735466822
 20
427.43701085522224
 10
3087.673268035093
 20
413.65420735020564
 10
3092.673268035093
 20
413.65420735020564
 10
3097.673268035093
 20
405.4399216359199
 10
3100.8942028985507
 20
405.4399216359199
 10
3102.5608695652177
 20
408.1780168740151
 10
3110.8942028985502
 20
408.1780168740151
 10
3116.683735466822
 20
417.6893918076032
 10
3116.683735466822
 20
425.9036775218888
 10
3119.283735466822
 20
430.1751060933174
 10
3120.9504021334883
 20
427.43701085522224
 10
3123.3333333333335
 20
431.35182639782465
 10
3120.9504021334883
 20
435.26664194042706
 10
3119.283735466822
 20
432.5285467023319
 10
3116.683735466822
 20
436.7999752737605
 10
3116.683735466822
 20
442.3322489504603
 10
3121.6666666666665
 20
450.51849306449134
 10
3119.9961838299564
 20
453.262857724801
 10
3128.3175492426594
 20
464.19950941006795
 10
3124.30348477882
 20
468.1562300958526
 10
3119.283735466822
 20
459.9094990832842
 10
3116.683735466822
 20
464.1809276547128
 10
3116.683735466822
 20
480.66558228379364
 10
3119.227536231884
 20
484.8446835406818
 10
3132.6528746343465
 20
484.8446835406818
 10
3135.924871254927
 20
482.1569720309191
 10
3137.617068800155
 20
484.93701085522224
 10
3139.2837354668213
 20
482.198915617127
 10
3140.9504021334883
 20
484.93701085522235
 10
3142.6287695640626
 20
482.1796929335653
 10
3149.252946529016
 20
490.3416252653831
 10
3155.9093899137733
 20
487.60772887521466
 10
3157.560869565217
 20
490.3208740168723
 10
3167.67959934337
 20
490.3208740168723
 10
3174.2934972197463
 20
476.73876230645584
 10
3175.9504021334888
 20
479.46082037903193
 10
3178.5400243451977
 20
475.20644103122413
 10
3181.8837354668217
 20
466.9665814815074
 10
3181.8837354668217
 20
461.4989156171272
 10
3188.5423909903798
 20
450.55969582842516
 10
3191.875724323713
 20
439.6073148760442
 10
3196.016649277075
 20
432.8043667383785
 10
3204.349982610408
 20
430.0662715002832
 10
3208.5674709336436
 20
423.13754068353893
 10
3206.900804266977
 20
420.39944544544375
 10
3209.283735466822
 20
416.4846299028415
 10
3211.6666666666665
 20
420.39944544544375
 10
3208.333333333333
 20
425.8756359216341
 10
3210.894202898551
 20
430.08277877877697
 10
3216.0066013684263
 20
430.08277877877697
 10
3217.6170688001553
 20
427.43701085522247
 10
3219.25820458826
 20
430.13316250710955
 10
3222.5915379215935
 20
427.3950672690143
 10
3224.227536231884
 20
430.08277877877697
 10
3229.319541301013
 20
430.08277877877697
 10
3239.360328102506
 20
421.8349896204078
 10
3242.673268035093
 20
416.3923025883008
 10
3247.6732680350924
 20
416.3923025883008
 10
3252.673268035093
 20
408.1780168740151
 10
3266.0066013684263
 20
408.1780168740151
 10
3269.3399347017594
 20
402.7018263978247
 10
3289.239627540714
 20
402.7018263978247
 10
3294.299811837341
 20
408.24393300841643
 10
3300.2170688001547
 20
398.52272514093676
 10
3300.2170688001547
 20
357.39521336899827
 10
3291.0039958114526
 20
342.2594506018446
 10
3254.225037629051
 20
345.0059312453357
 10
3252.5608695652177
 20
347.7399216359199
 10
3242.572960874047
 20
347.7399216359199
 10
3237.633145170674
 20
353.150195977709
 10
3234.3325612502754
 20
347.7278081084818
 10
3220.887626126191
 20
350.48882157146346
 10
3219.2676590963024
 20
353.150195977709
 10
3214.3641173194196
 20
347.7796502220757
 10
3211.883735466822
 20
343.7047371785221
 10
3211.883735466822
 20
335.5465346647463
 10
3213.550402133488
 20
332.80843942665103
 10
3213.550402133488
 20
319.11796323617483
 10
3216.8837354668217
 20
313.6417727599844
 10
3216.8837354668217
 20
297.21320133141296
 10
3218.567470933644
 20
294.4470644930628
 10
3216.0066013684263
 20
290.2399216359199
 10
3199.227536231884
 20
290.2399216359199
 10
3197.560869565217
 20
292.97801687401517
 10
3159.333303693053
 20
292.97801687401517
 10
3142.6594881944593
 20
271.0638593615776
 10
3127.579127638823
 20
273.8166235899875
 10
3119.2538190182013
 20
279.287540683539
 10
3114.227536231884
 20
279.287540683539
 10
3112.560869565217
 20
282.0256359216342
 10
3102.5608695652177
 20
282.0256359216342
 10
3100.9326749745724
 20
284.70052703483674
 10
3082.653528347066
 20
265.59051010608005
 10
3073.405494843145
 20
266.97170991510734
 10
3065.9033213155185
 20
273.8189317855598
 10
3052.565127159196
 20
276.55802522837604
 10
3047.572960874047
 20
282.0256359216342
 10
3040.8942028985507
 20
282.0256359216342
 10
3039.239570704431
 20
284.74396024054505
 10
3031.0038991726674
 20
282.03795388010855
 10
3022.6580693597225
 20
273.8113502073485
 10
3007.5853962234237
 20
273.8113502073485
 10
2995.9187295567567
 20
282.0256359216342
 10
2984.239627540714
 20
282.0256359216342
 10
2979.2396275407136
 20
287.50182639782474
 10
2974.215230661452
 20
287.50182639782474
  0
LWPOLYLINE
  5
51
330
17
100
AcDbEntity
  8
K
100
AcDbPolyline
 90
5
 70
1
 10
3218.5627891722693
 20
371.10603969461386
 10
3222.6089902994568
 20
361.79977710208175
 10
3225.0066301894494
 20
368.36474346753835
 10
3220.9504021334883
 20
375.02854670233165
 10
3218.5627891722693
 20
371.10603969461386
  0
LWPOLYLINE
  5
52
330
17
100
AcDbEntity
  8
K
100
AcDbPolyline
 90
5
 70
1
 10
3192.6170688001553
 20
413.36188003566497
 10
3190.2341376003105
 20
409.4470644930628
 10
3194.283735466822
 20
402.79415371236536
 10
3196.6666666666665
 20
406.7089692549675
 10
3192.6170688001553
 20
413.36188003566497
  0
LWPOLYLINE
  5
53
330
17
100
AcDbEntity
  8
K
100
AcDbPolyline
 90
6
 70
1
 10
3187.599341641239
 20
424.66979242747925
 10
3190.0
 20
428.61373115972947
 10
3180.9504021334883
 20
443.48092765471256
 10
3178.5504021334887
 20
439.53807051185544
 10
3178.5504021334887
 20
434.13004736740027
 10
3187.599341641239
 20
424.66979242747925
  0
LWPOLYLINE
  5
54
330
17
100
AcDbEntity
  8
K
100
AcDbPolyline
 90
7
 70
1
 10
3175.9504021334888
 20
372.67510609331765
 10
3177.6170688001553
 20
375.413201331413
 10
3180.9504021334883
 20
369.93701085522247
 10
3183.333333333333
 20
373.85182639782465
 10
3177.6170688001553
 20
383.2428324166174
 10
3173.5674709336436
 20
376.5899216359199
 10
3175.9504021334888
 20
372.67510609331765
  0
LWPOLYLINE
  5
55
330
17
100
AcDbEntity
  8
K
100
AcDbPolyline
 90
10
 70
1
 10
3151.683735466822
 20
461.4428324166173
 10
3149.2754350045575
 20
465.3993260331943
 10
3140.2308894480975
 20
453.2420472657448
 10
3143.5563842943616
 20
445.0470778231651
 10
3141.8924442858893
 20
439.57984636675496
 10
3144.283735466822
 20
435.6512965695082
 10
3146.6666666666665
 20
439.5661121121104
 10
3145.003245891537
 20
442.2988748141091
 10
3151.683735466822
 20
456.0177373347835
 10
3151.683735466822
 20
461.4428324166173
  0
LWPOLYLINE
  5
56
330
17
100
AcDbEntity
  8
K
100
AcDbPolyline
 90
5
 70
1
 10
3133.5674709336436
 20
447.7803978263961
 10
3135.9504021334888
 20
443.8655822837937
 10
3138.3333333333335
 20
447.7803978263961
 10
3135.9504021334888
 20
451.69521336899857
 10
3133.5674709336436
 20
447.7803978263961
  0
LWPOLYLINE
  5
57
330
17
100
AcDbEntity
  8
K
100
AcDbPolyline
 90
10
 70
1
 10
3054.3399347017594
 20
402.50182639782474
 10
3051.900804266977
 20
398.4946835406819
 10
3055.9587025957526
 20
391.82813628626445
 10
3065.026462133148
 20
404.01661826185466
 10
3066.6750266477543
 20
409.4333302384184
 10
3060.9504021334883
 20
418.8380705118556
 10
3058.567470933643
 20
414.9232549692532
 10
3061.900804266977
 20
409.4470644930628
 10
3057.6732680350933
 20
402.50182639782474
 10
3054.3399347017594
 20
402.50182639782474
  0
LWPOLYLINE
  5
58
330
17
100
AcDbEntity
  8
K
100
AcDbPolyline
 90
7
 70
1
 10
3028.3333333333335
 20
382.0661121121104
 10
3025.8942028985507
 20
386.07325496925324
 10
3014.3399347017594
 20
386.07325496925324
 10
3011.9008042669766
 20
382.0661121121104
 10
3014.3399347017594
 20
378.0589692549675
 10
3025.8942028985507
 20
378.0589692549675
 10
3028.3333333333335
 20
382.0661121121104
  0
LWPOLYLINE
  5
59
330
17
100
AcDbEntity
  8
K
100
AcDbPolyline
 90
10
 70
1
 10
3000.936855727161
 20
375.3909465210172
 10
3002.5608695652177
 20
378.0589692549675
 10
3007.560869565217
 20
378.0589692549675
 10
3010.0
 20
382.0661121121104
 10
3007.560869565217
 20
386.07325496925324
 10
3001.0066013684263
 20
386.07325496925324
 10
2999.283735466822
 20
383.2428324166176
 10
2997.617068800155
 20
385.9809276547128
 10
2995.240102660675
 20
382.07591185413827
 10
3000.936855727161
 20
375.3909465210172
  0
LWPOLYLINE
  5
5A
330
17
100
AcDbEntity
  8
K
100
AcDbPolyline
 90
31
 70
1
 10
2991.6750266477547
 20
543.599996905085
 10
2988.3504021334884
 20
549.0618800356651
 10
2988.3504021334884
 20
554.5380705118556
 10
2986.683735466822
 20
557.2761657499509
 10
2986.683735466822
 20
595.6655822837936
 10
2989.227536231884
 20
599.8446835406818
 10
3211.0066013684263
 20
599.8446835406818
 10
3213.5674709336436
 20
595.6375406835389
 10
3207.6732680350924
 20
585.9542073502056
 10
3204.3399347017594
 20
585.9542073502056
 10
3199.355240233195
 20
577.7650664375642
 10
3194.3552402331948
 20
575.026971199469
 10
3187.6740888026743
 20
564.0507938493276
 10
3074.3322944520983
 20
561.3124941959
 10
3067.671408606647
 20
553.1053312791834
 10
3052.679161415014
 20
550.3686512362661
 10
3051.0066013684263
 20
547.6208740168723
 10
3037.6732680350924
 20
547.6208740168723
 10
3035.97593301205
 20
544.8323950504445
 10
3032.617068800155
 20
547.5914620816437
 10
3025.9862079676795
 20
542.1446835406817
 10
3020.8942028985507
 20
542.1446835406817
 10
3017.6009924296354
 20
547.554957882471
 10
3012.600992429636
 20
542.0787674062805
 10
3010.8942028985507
 20
544.882778778777
 10
3004.227536231884
 20
544.882778778777
 10
3002.6170688001553
 20
547.5285467023318
 10
2996.0166492770745
 20
536.685000342985
 10
2991.739570704431
 20
535.2796745262593
 10
2990.0083599810882
 20
538.1238064288946
 10
2991.6750266477547
 20
543.599996905085
  0
LWPOLYLINE
  5
5B
330
17
100
AcDbEntity
  8
K
100
AcDbPolyline
 90
104
 70
1
 10
3485.0170688001554
 20
135.65623166066644
 10
3485.0170688001554
 20
141.13142061589912
 10
3490.0170688001554
 20
154.82189680637526
 10
3490.0170688001554
 20
160.29527826297252
 10
3493.3584132765977
 20
171.27398154271035
 10
3496.683735466822
 20
176.7370108552223
 10
3496.683735466822
 20
182.15711813090317
 10
3494.225692673628
 20
186.19533129114996
 10
3444.225692673628
 20
188.93342652924517
 10
3441.669286679192
 20
193.13323637724756
 10
3467.555813983067
 20
243.89230258830085
 10
3474.244961421501
 20
243.89230258830085
 10
3481.655498644325
 20
250.6558881488149
 10
3479.2275362318846
 20
254.64468354068183
 10
3476.0066013684263
 20
254.64468354068183
 10
3474.3092663453835
 20
251.85620457425406
 10
3470.97593301205
 20
254.59429981234928
 10
3469.283735466822
 20
251.81426098804616
 10
3466.666666666667
 20
256.11373115972947
 10
3469.2582045882605
 20
260.37125774520484
 10
3472.591537921594
 20
257.63316250710955
 10
3475.894202898551
 20
263.0589692549675
 10
3487.673268035093
 20
263.0589692549675
 10
3490.2286482826216
 20
258.8608445625996
 10
3486.895314949288
 20
250.64655884831387
 10
3490.2341376003105
 20
245.16135020734853
 10
3486.900804266977
 20
239.685159731158
 10
3492.6425996787166
 20
230.25221012615717
 10
3495.9504021334888
 20
232.96933357114847
 10
3499.258204588261
 20
230.25221012615717
 10
3500.894202898551
 20
232.93992163591992
 10
3504.2227559657317
 20
232.93992163591992
 10
3513.335816486269
 20
250.63346121800222
 10
3508.333333333334
 20
258.85182639782465
 10
3512.5608695652177
 20
265.79706449306275
 10
3520.894202898551
 20
265.79706449306275
 10
3522.5608695652177
 20
268.53515973115805
 10
3526.0066013684263
 20
268.53515973115805
 10
3528.567470933644
 20
264.3280168740152
 10
3526.900804266977
 20
261.5899216359199
 10
3529.2837354668222
 20
257.6751060933174
 10
3530.9504021334888
 20
260.4132013314128
 10
3533.5674709336436
 20
256.11373115972947
 10
3530.2341376003105
 20
250.63754068353893
 10
3532.6732680350933
 20
246.63039782639606
 10
3535.894202898551
 20
246.63039782639606
 10
3537.6170688001553
 20
249.46082037903184
 10
3541.0066013684263
 20
243.89230258830085
 10
3549.33993470176
 20
243.89230258830085
 10
3551.8837354668217
 20
239.7132013314127
 10
3551.8837354668217
 20
226.00956397725813
 10
3553.559110952556
 20
220.50475880984698
 10
3551.8906989882908
 20
217.7637962971255
 10
3555.217068800155
 20
204.10192028410967
 10
3555.217068800155
 20
184.95129656950803
 10
3559.3340838989634
 20
178.18762890718
 10
3575.888865160871
 20
180.90734297163624
 10
3577.5608695652177
 20
183.65420735020555
 10
3594.227536231884
 20
183.65420735020555
 10
3595.8942028985507
 20
186.39230258830085
 10
3604.2275362318846
 20
186.39230258830085
 10
3605.894202898551
 20
189.13039782639606
 10
3622.5608695652177
 20
189.13039782639606
 10
3624.227536231884
 20
191.86849306449128
 10
3630.8942028985507
 20
191.86849306449128
 10
3632.5608695652177
 20
194.6065883025866
 10
3639.3313659976225
 20
194.6065883025866
 10
3645.9980326642885
 20
186.39230258830085
 10
3650.894202898551
 20
186.39230258830085
 10
3652.560869565217
 20
189.13039782639606
 10
3689.32784339293
 20
189.13039782639606
 10
3694.32784339293
 20
183.65420735020555
 10
3699.32784339293
 20
183.65420735020555
 10
3704.3398863896855
 20
178.16482692518733
 10
3712.6833159437415
 20
175.42341435742625
 10
3716.8924442858897
 20
168.5084177953262
 10
3715.217068800155
 20
163.00361262791498
 10
3715.217068800155
 20
149.29997527376025
 10
3706.874283509179
 20
135.5939708671564
 10
3701.8724777924263
 20
121.89855045223862
 10
3693.550402133488
 20
110.96096530049182
 10
3693.550402133488
 20
100.07034418855565
 10
3695.217068800155
 20
97.33224895046044
 10
3695.217068800155
 20
91.85605847426991
 10
3698.5504021334887
 20
86.3798679980795
 10
3698.5504021334887
 20
80.90367752188898
 10
3701.0050640468735
 20
76.87101866418556
 10
3762.6717307135395
 20
79.60911390228087
 10
3774.33993470176
 20
60.43992163591994
 10
3777.6690346485093
 20
60.43992163591994
 10
3790.236519925483
 20
42.54621640822786
 10
3787.6731248669485
 20
38.33492452634923
 10
3460.0513851359665
 20
39.704481053759785
 10
3455.865331346722
 20
49.33240476902223
 10
3450.906294207381
 20
54.76373115972943
 10
3447.566826318041
 20
54.76373115972943
 10
3438.3504021334884
 20
67.15204158961441
 10
3438.3504021334884
 20
108.29106698999225
 10
3445.8920580323725
 20
117.92762730523243
 10
3455.8856516650235
 20
120.66396841893456
 10
3457.591537921594
 20
123.46649584044289
 10
3460.98620796768
 20
120.67801687401514
 10
3479.2152306614526
 20
120.67801687401514
 10
3485.0170688001554
 20
135.65623166066644
  0
LWPOLYLINE
  5
5C
330
17
100
AcDbEntity
  8
K
100
AcDbPolyline
 90
42
 70
1
 10
3600.128342695022
 20
475.05979484697747
 10
3585.890991740352
 20
476.4356733005799
 10
3583.3469420873016
 20
480.6151834448773
 10
3585.0204131309524
 20
494.3615527320077
 10
3586.683735466822
 20
497.0941537123651
 10
3586.683735466822
 20
505.2523562261414
 10
3580.9248712549274
 20
514.7133474313969
 10
3577.652874634347
 20
512.0256359216341
 10
3565.98620796768
 20
512.0256359216341
 10
3559.319541301013
 20
506.54944544544367
 10
3547.6732680350933
 20
506.54944544544367
 10
3546.0066013684263
 20
503.8113502073485
 10
3539.3399347017594
 20
503.8113502073485
 10
3537.6170688001553
 20
500.9809276547128
 10
3534.283735466822
 20
506.4571181309032
 10
3531.0066013684263
 20
501.07325496925324
 10
3527.673268035093
 20
501.07325496925324
 10
3526.0140383398593
 20
498.34737761279814
 10
3514.23916859414
 20
495.5838877745171
 10
3495.8970125883898
 20
522.9780168740151
 10
3494.227536231884
 20
522.9780168740151
 10
3485.0170688001554
 20
538.1094990832842
 10
3485.0170688001554
 20
540.9036775218889
 10
3487.560869565217
 20
545.082778778777
 10
3714.33993470176
 20
545.082778778777
 10
3716.8837354668217
 20
540.9036775218889
 10
3716.8837354668217
 20
502.5703441885555
 10
3718.5504021334887
 20
499.8322489504603
 10
3718.5504021334887
 20
486.08568955947476
 10
3716.013178140786
 20
481.9173930000348
 10
3702.590456498486
 20
479.16094123420527
 10
3695.8738094978044
 20
484.67818698476515
 10
3685.894202898551
 20
501.07325496925324
 10
3672.6528746343465
 20
501.07325496925324
 10
3665.9862079676795
 20
495.59706449306276
 10
3654.3136519154427
 20
495.59706449306276
 10
3645.9803185821092
 20
490.12087401687234
 10
3640.9914026930564
 20
490.12087401687234
 10
3632.658069359723
 20
481.9065883025866
 10
3614.33993470176
 20
481.9065883025866
 10
3612.6833159437415
 20
479.18500034298495
 10
3600.128342695022
 20
475.05979484697747
  0
LWPOLYLINE
  5
5D
330
17
100
AcDbEntity
  8
K
100
AcDbPolyline
 90
7
 70
1
 10
3689.33993470176
 20
350.6780168740151
 10
3691.900804266977
 20
346.47087401687224
 10
3689.3372026638967
 20
342.259242811812
 10
3671.7249215500397
 20
343.6370743275219
 10
3670.0000000000005
 20
346.47087401687224
 10
3672.5608695652177
 20
350.6780168740151
 10
3689.33993470176
 20
350.6780168740151
  0
LWPOLYLINE
  5
5E
330
17
100
AcDbEntity
  8
K
100
AcDbPolyline
 90
11
 70
1
 10
3652.673268035093
 20
347.9399216359199
 10
3655.2341376003105
 20
343.73277877877706
 10
3652.673268035093
 20
339.5256359216342
 10
3647.5608695652177
 20
339.5256359216342
 10
3645.9248712549274
 20
342.21334743139687
 10
3642.621730752382
 20
339.5000534471634
 10
3636.649676838042
 20
343.70486691746424
 10
3639.242723247107
 20
347.96487173235755
 10
3645.909389913774
 20
345.22677649426237
 10
3647.5608695652177
 20
347.9399216359199
 10
3652.673268035093
 20
347.9399216359199
  0
LWPOLYLINE
  5
5F
330
17
100
AcDbEntity
  8
K
100
AcDbPolyline
 90
10
 70
1
 10
3609.33993470176
 20
347.9399216359199
 10
3614.33993470176
 20
347.9399216359199
 10
3616.9008042669766
 20
343.73277877877706
 10
3614.3365447051656
 20
339.52006664151537
 10
3600.0576584070186
 20
340.8999590148657
 10
3598.3333333333335
 20
343.73277877877706
 10
3600.8942028985507
 20
347.9399216359199
 10
3605.894202898551
 20
347.9399216359199
 10
3607.6170688001553
 20
350.77034418855555
 10
3609.33993470176
 20
347.9399216359199
  0
LWPOLYLINE
  5
60
330
17
100
AcDbEntity
  8
K
100
AcDbPolyline
 90
40
 70
1
 10
3552.5608695652177
 20
356.15420735020564
 10
3554.227536231884
 20
358.8923025883008
 10
3576.006601368427
 20
358.8923025883008
 10
3581.0066013684263
 20
350.6780168740151
 10
3584.3399347017594
 20
350.6780168740151
 10
3585.9504021334888
 20
348.03224895046037
 10
3588.333333333334
 20
351.9470644930628
 10
3585.0000000000005
 20
357.4232549692532
 10
3587.5608695652177
 20
361.63039782639606
 10
3594.2479296326305
 20
361.63039782639606
 10
3597.642599678717
 20
364.41887679282394
 10
3600.227507410861
 20
360.1722426614441
 10
3597.703285294626
 20
353.2606821050861
 10
3593.576988821684
 20
349.1933327246152
 10
3596.900804266977
 20
343.73277877877706
 10
3594.33993470176
 20
339.5256359216342
 10
3587.581262965964
 20
339.5256359216342
 10
3584.309266345383
 20
342.21334743139687
 10
3582.6170688001553
 20
339.43330860709375
 10
3580.894202898551
 20
342.2637311597294
 10
3575.894202898551
 20
342.2637311597294
 10
3572.560869565217
 20
347.7399216359199
 10
3564.32784339293
 20
347.7399216359199
 10
3559.313970579133
 20
342.24853712557115
 10
3550.9945668958794
 20
344.98205547864035
 10
3549.33993470176
 20
342.2637311597294
 10
3545.894202898551
 20
342.2637311597294
 10
3544.283735466822
 20
344.9094990832843
 10
3542.673268035093
 20
342.2637311597294
 10
3535.894202898551
 20
342.2637311597294
 10
3534.227536231884
 20
345.00182639782474
 10
3531.0066013684263
 20
345.00182639782474
 10
3529.344811990399
 20
342.27174384820927
 10
3520.0540009487167
 20
340.88415518613976
 10
3516.672155984356
 20
349.2179874197424
 10
3520.894202898551
 20
356.15420735020564
 10
3542.673268035093
 20
356.15420735020564
 10
3544.283735466822
 20
353.5084394266508
 10
3545.894202898551
 20
356.15420735020564
 10
3552.5608695652177
 20
356.15420735020564
  0
LWPOLYLINE
  5
61
330
17
100
AcDbEntity
  8
K
100
AcDbPolyline
 90
15
 70
1
 10
3540.8997901897496
 20
424.65950696042296
 10
3549.252140712901
 20
419.17081947378057
 10
3550.8942028985507
 20
421.86849306449136
 10
3559.227536231884
 20
421.86849306449136
 10
3564.2275362318846
 20
430.08277877877697
 10
3567.673268035093
 20
430.08277877877697
 10
3570.229455838936
 20
425.8833273867495
 10
3566.015966796132
 20
416.1923025883009
 10
3562.6611767262634
 20
416.1923025883009
 10
3557.6269279718495
 20
410.6786015715618
 10
3554.3092663453835
 20
413.40382362187313
 10
3552.6647959549337
 20
410.7021936947054
 10
3540.8867659271177
 20
413.46642523184585
 10
3538.339963522783
 20
417.6504577532529
 10
3540.8997901897496
 20
424.65950696042296
  0
LWPOLYLINE
  5
62
330
17
100
AcDbEntity
  8
K
100
AcDbPolyline
 90
7
 70
1
 10
3550.0000000000005
 20
439.5661121121104
 10
3552.5608695652177
 20
443.77325496925323
 10
3564.33993470176
 20
443.77325496925323
 10
3566.900804266977
 20
439.5661121121104
 10
3564.3360810079585
 20
435.35263818658024
 10
3551.723911991237
 20
436.7339709836497
 10
3550.0000000000005
 20
439.5661121121104
  0
LWPOLYLINE
  5
63
330
17
100
AcDbEntity
  8
K
100
AcDbPolyline
 90
13
 70
1
 10
3528.333333333334
 20
436.8280168740152
 10
3532.6170688001553
 20
443.8655822837937
 10
3534.283735466822
 20
441.1274870456984
 10
3535.9504021334888
 20
443.8655822837937
 10
3537.673268035093
 20
441.03515973115793
 10
3544.227536231884
 20
441.03515973115793
 10
3545.9504021334888
 20
443.8655822837937
 10
3548.5724942840443
 20
439.55785946502345
 10
3541.8719264105407
 20
431.30180262088504
 10
3539.3063724774115
 20
424.27707161350656
 10
3534.227536231884
 20
432.62087401687234
 10
3530.8942028985507
 20
432.62087401687234
 10
3528.333333333334
 20
436.8280168740152
  0
LWPOLYLINE
  5
64
330
17
100
AcDbEntity
  8
K
100
AcDbPolyline
 90
5
 70
1
 10
3540.2341376003105
 20
256.11373115972947
 10
3537.6170688001553
 20
251.81426098804616
 10
3535.0
 20
256.11373115972947
 10
3537.6170688001553
 20
260.4132013314128
 10
3540.2341376003105
 20
256.11373115972947
  0
LWPOLYLINE
  5
65
330
17
100
AcDbEntity
  8
K
100
AcDbPolyline
 90
64
 70
1
 10
3456.6750266477547
 20
302.6476159527042
 10
3454.203353614225
 20
306.70822165064646
 10
3449.239627540714
 20
312.1446835406818
 10
3442.673268035093
 20
312.1446835406818
 10
3440.9504021334888
 20
309.31426098804616
 10
3435.017068800155
 20
319.0618800356652
 10
3435.017068800155
 20
321.8560584742699
 10
3437.5608695652177
 20
326.03515973115805
 10
3454.227536231884
 20
326.03515973115805
 10
3455.894202898551
 20
328.77325496925323
 10
3464.33993470176
 20
328.77325496925323
 10
3466.9008042669775
 20
324.5661121121104
 10
3463.576988821684
 20
319.10555816627215
 10
3467.619716184296
 20
315.1205840516981
 10
3474.9888319776587
 20
321.84636433929114
 10
3473.3333333333335
 20
324.5661121121104
 10
3475.894202898551
 20
328.77325496925323
 10
3480.9999703597205
 20
328.77325496925323
 10
3489.274543992404
 20
317.89810105201167
 10
3490.9504021334888
 20
320.65129656950796
 10
3492.6425996787166
 20
317.87125774520484
 10
3495.97593301205
 20
320.6093529833001
 10
3497.6170688001553
 20
317.9132013314128
 10
3500.0000000000005
 20
321.8280168740152
 10
3498.3238154452933
 20
324.5817486424627
 10
3502.6486725058353
 20
328.8448220307115
 10
3507.6813444251966
 20
317.8208740168723
 10
3511.0066013684263
 20
317.8208740168723
 10
3515.227507410861
 20
310.8865283757297
 10
3512.693284857017
 20
303.9475856687758
 10
3502.6818192686205
 20
301.20635104338146
 10
3500.2341376003105
 20
297.185159731158
 10
3503.5674709336436
 20
291.7089692549675
 10
3499.3399347017594
 20
284.7637311597294
 10
3494.227536231884
 20
284.7637311597294
 10
3492.6170688001553
 20
287.4094990832843
 10
3490.9504021334888
 20
284.671403845189
 10
3489.2582045882605
 20
287.45144266949217
 10
3485.924871254927
 20
284.71334743139687
 10
3481.666666666667
 20
291.7089692549675
 10
3484.227536231884
 20
295.91611211211034
 10
3492.5608695652177
 20
295.91611211211034
 10
3495.0
 20
299.9232549692532
 10
3489.227536231884
 20
309.4065883025866
 10
3484.2194598417805
 20
309.4065883025866
 10
3479.219459841781
 20
320.3589692549675
 10
3477.673268035093
 20
320.3589692549675
 10
3475.23413760031
 20
316.35182639782465
 10
3476.900804266977
 20
313.61373115972947
 10
3474.33993470176
 20
309.4065883025866
 10
3469.227536231884
 20
309.4065883025866
 10
3467.6170688001557
 20
312.05235622614134
 10
3465.2341376003105
 20
308.13754068353893
 10
3468.567470933644
 20
302.6613502073485
 10
3466.905827617378
 20
299.9315076163401
 10
3473.5724942840448
 20
291.7172219020544
 10
3469.313573158259
 20
284.72042290969233
 10
3463.3163435047086
 20
288.9429621555595
 10
3465.0000000000005
 20
291.7089692549675
 10
3462.5608695652177
 20
295.71611211211035
 10
3459.3399347017594
 20
295.71611211211035
 10
3457.6170688001553
 20
292.8856895594747
 10
3455.008359981088
 20
297.17142547651366
 10
3456.6750266477547
 20
302.6476159527042
  0
LWPOLYLINE
  5
66
330
17
100
AcDbEntity
  8
K
100
AcDbPolyline
 90
5
 70
1
 10
3515.23413760031
 20
343.73277877877706
 10
3512.6170688001553
 20
339.43330860709375
 10
3510.0000000000005
 20
343.73277877877706
 10
3512.6170688001553
 20
348.03224895046037
 10
3515.23413760031
 20
343.73277877877706
  0
LWPOLYLINE
  5
67
330
17
100
AcDbEntity
  8
K
100
AcDbPolyline
 90
5
 70
1
 10
3500.9306528214906
 20
263.11885127122525
 10
3505.2436554883507
 20
258.86746292817696
 10
3502.6368181121534
 20
254.58480152442408
 10
3498.3238154452933
 20
258.83618986747234
 10
3500.9306528214906
 20
263.11885127122525
  0
LWPOLYLINE
  5
68
330
17
100
AcDbEntity
  8
K
100
AcDbPolyline
 90
5
 70
1
 10
3495.970151445487
 20
240.89432533394793
 10
3491.6571487786264
 20
245.14571367699622
 10
3494.2639861548237
 20
249.4283750807491
 10
3498.5769888216846
 20
245.17698673770084
 10
3495.970151445487
 20
240.89432533394793
  0
LWPOLYLINE
  5
69
330
17
100
AcDbEntity
  8
K
100
AcDbPolyline
 90
6
 70
1
 10
3471.0066013684263
 20
276.74944544544365
 10
3473.5674709336436
 20
272.5423025883008
 10
3470.980239824926
 20
268.291851481121
 10
3464.983010171375
 20
272.51439072698804
 10
3467.5608695652177
 20
276.74944544544365
 10
3471.0066013684263
 20
276.74944544544365
  0
LWPOLYLINE
  5
6A
330
17
100
AcDbEntity
  8
K
100
AcDbPolyline
 90
7
 70
1
 10
3450.894202898551
 20
276.74944544544365
 10
3456.0066013684263
 20
276.74944544544365
 10
3458.5674709336436
 20
272.5423025883008
 10
3455.9981292882667
 20
268.32124131375315
 10
3450.0534325937842
 20
269.7164252318458
 10
3448.3333333333335
 20
272.5423025883008
 10
3450.894202898551
 20
276.74944544544365
  0
LWPOLYLINE
  5
6B
330
17
100
AcDbEntity
  8
K
100
AcDbPolyline
 90
16
 70
1
 10
4205.885929820569
 20
95.84305350265
 10
4195.021921202677
 20
116.43691599261108
 10
4193.355880086487
 20
124.64811863669134
 10
4186.693187424465
 20
135.5939708671564
 10
4181.6732968561155
 20
149.3389093281108
 10
4187.56270853855
 20
159.01437137782403
 10
4239.341719745866
 20
156.2703223967912
 10
4241.883735466821
 20
152.09415371236523
 10
4241.883735466821
 20
146.57223217975024
 10
4236.883735466821
 20
132.8817559892741
 10
4236.883735466821
 20
127.40556551308357
 10
4231.883735466821
 20
113.71508932260743
 10
4231.883735466821
 20
108.24170786601017
 10
4228.542390990379
 20
97.26300458627234
 10
4226.001754238024
 20
93.08910135026038
 10
4205.885929820569
 20
95.84305350265
  0
LWPOLYLINE
  5
6C
330
17
100
AcDbEntity
  8
K
100
AcDbPolyline
 90
14
 70
1
 10
4932.545564033781
 20
391.57459024708794
 10
4929.227536231884
 20
397.0256359216342
 10
4924.2498132218525
 20
397.0256359216342
 10
4911.682142587189
 20
406.66085007487607
 10
4912.520221157413
 20
432.8208740168723
 10
4976.006601368426
 20
432.8208740168723
 10
4978.567470933644
 20
428.61373115972947
 10
4974.339934701759
 20
421.6684930644914
 10
4970.98620796768
 20
421.6684930644914
 10
4964.3570079676
 20
416.2230787787119
 10
4954.3513308534875
 20
402.5248303486769
 10
4944.348999884609
 20
397.0473633895289
 10
4937.642170499304
 20
388.78359146834964
 10
4932.545564033781
 20
391.57459024708794
  0
LWPOLYLINE
  5
6D
330
17
100
AcDbEntity
  8
K
100
AcDbPolyline
 90
24
 70
1
 10
4922.59946533457
 20
167.26950784645024
 10
4925.924871254927
 20
164.53792441187142
 10
4929.227536231884
 20
169.9637311597294
 10
4932.673268035092
 20
169.9637311597294
 10
4937.60730704723
 20
161.85780992550346
 10
4944.273973713897
 20
175.54828611597972
 10
4947.633145170675
 20
170.02964729413083
 10
4952.643691395707
 20
175.5173883977381
 10
4958.562936639309
 20
163.0144928321704
 10
4937.699444037265
 20
125.99669595825847
 10
4931.900625708027
 20
119.1919601637449
 10
4945.205873924498
 20
89.13635481761095
 10
4953.560840744194
 20
75.41033789953944
 10
4951.027695140152
 20
68.47434398371055
 10
4942.683315943741
 20
65.73261939060416
 10
4938.550402133488
 20
58.94283241661746
 10
4938.550402133488
 20
23.415761653114544
 10
4956.909092396983
 20
4.222585468550921
 10
4954.3388229813445
 20
0.0
 10
4911.683735466821
 20
1.374043435341754
 10
4911.683735466821
 20
146.61796323617472
 10
4913.3504021334875
 20
149.3560584742699
 10
4913.3504021334875
 20
154.83732549174934
 10
4922.59946533457
 20
167.26950784645024
  0
LWPOLYLINE
  5
6E
330
17
100
AcDbEntity
  8
K
100
AcDbPolyline
 90
5
 70
1
 10
4946.910322155018
 20
198.62936769008178
 10
4944.303484778819
 20
194.346706286329
 10
4939.990482111959
 20
198.59809462937716
 10
4942.597319488157
 20
202.88075603312984
 10
4946.910322155018
 20
198.62936769008178
  0
LWPOLYLINE
  5
6F
330
17
100
AcDbEntity
  8
K
100
AcDbPolyline
 90
18
 70
1
 10
4911.683735466821
 20
220.5572779359428
 10
4916.659329277155
 20
226.00673782345072
 10
4911.666666666666
 20
234.20896925496749
 10
4914.227536231884
 20
238.41611211211034
 10
4920.98620796768
 20
238.41611211211034
 10
4924.25820458826
 20
235.72840060234768
 10
4925.894202898551
 20
238.41611211211034
 10
4936.006601368426
 20
238.41611211211034
 10
4938.567470933644
 20
234.20896925496749
 10
4936.006601368426
 20
230.00182639782463
 10
4929.339934701759
 20
230.00182639782463
 10
4926.905827617378
 20
226.00293618776868
 10
4933.572494284043
 20
217.78865047348305
 10
4929.339934701759
 20
210.83515973115797
 10
4924.339934701759
 20
210.83515973115797
 10
4917.617068800155
 20
199.79045146423658
 10
4911.683735466821
 20
209.5380705118557
 10
4911.683735466821
 20
220.5572779359428
  0
LWPOLYLINE
  5
70
330
17
100
AcDbEntity
  8
K
100
AcDbPolyline
 90
5
 70
1
 10
4935.950402133489
 20
191.57616574995083
 10
4933.333333333333
 20
195.87563592163414
 10
4935.950402133489
 20
200.17510609331757
 10
4938.567470933644
 20
195.87563592163414
 10
4935.950402133489
 20
191.57616574995083
  0
LWPOLYLINE
  5
71
330
17
100
AcDbEntity
  8
K
100
AcDbPolyline
 90
6
 70
1
 10
4929.313573158258
 20
191.62518481445434
 10
4923.316343504708
 20
195.84772406032147
 10
4925.894202898551
 20
200.082778778777
 10
4929.339934701759
 20
200.082778778777
 10
4931.900804266977
 20
195.87563592163414
 10
4929.313573158258
 20
191.62518481445434
  0
LWPOLYLINE
  5
72
330
17
100
AcDbEntity
  8
K
100
AcDbPolyline
 90
5
 70
1
 10
4916.666666666667
 20
195.87563592163414
 10
4919.283735466822
 20
200.17510609331757
 10
4921.900804266977
 20
195.87563592163414
 10
4919.283735466822
 20
191.57616574995083
 10
4916.666666666667
 20
195.87563592163414
  0
ENDSEC
  0
SECTION
  2
OBJECTS
  0
DICTIONARY
  5
A
330
0
100
AcDbDictionary
281
1
  3
ACAD_COLOR
350
B
  3
ACAD_GROUP
350
C
  3
ACAD_LAYOUT
350
D
  3
ACAD_MATERIAL
350
E
  3
ACAD_MLEADERSTYLE
350
F
  3
ACAD_MLINESTYLE
350
10
  3
ACAD_PLOTSETTINGS
350
11
  3
ACAD_PLOTSTYLENAME
350
12
  3
ACAD_SCALELIST
350
14
  3
ACAD_TABLESTYLE
350
15
  3
ACAD_VISUALSTYLE
350
16
  3
EZDXF_META
350
2D
  0
DICTIONARY
  5
B
330
A
100
AcDbDictionary
281
1
  0
DICTIONARY
  5
C
330
A
100
AcDbDictionary
281
1
  0
DICTIONARY
  5
D
330
A
100
AcDbDictionary
281
1
  3
Model
350
1A
  3
Layout1
350
1E
  0
DICTIONARY
  5
E
330
A
100
AcDbDictionary
281
1
  3
ByBlock
350
1F
  3
ByLayer
350
20
  3
Global
350
21
  0
DICTIONARY
  5
F
330
A
100
AcDbDictionary
281
1
  3
Standard
350
2C
  0
DICTIONARY
  5
10
330
A
100
AcDbDictionary
281
1
  3
Standard
350
22
  0
DICTIONARY
  5
11
330
A
100
AcDbDictionary
281
1
  0
ACDBDICTIONARYWDFLT
  5
12
330
A
100
AcDbDictionary
281
1
  3
Normal
350
13
100
AcDbDictionaryWithDefault
340
13
  0
ACDBPLACEHOLDER
  5
13
330
12
  0
DICTIONARY
  5
14
330
A
100
AcDbDictionary
281
1
  0
DICTIONARY
  5
15
330
A
100
AcDbDictionary
281
1
  0
DICTIONARY
  5
16
330
A
100
AcDbDictionary
281
1
  0
LAYOUT
  5
1A
330
D
100
AcDbPlotSettings
  1

  4
A3
  6

 40
7.5
 41
20.0
 42
7.5
 43
20.0
 44
420.0
 45
297.0
 46
0.0
 47
0.0
 48
0.0
 49
0.0
140
0.0
141
0.0
142
1.0
143
1.0
 70
1024
 72
1
 73
0
 74
5
  7

 75
16
 76
0
 77
2
 78
300
147
1.0
148
0.0
149
0.0
100
AcDbLayout
  1
Model
 70
1
 71
0
 10
0.0
 20
0.0
 11
420.0
 21
297.0
 12
0.0
 22
0.0
 32
0.0
 14
1e+20
 24
1e+20
 34
1e+20
 15
-1e+20
 25
-1e+20
 35
-1e+20
146
0.0
 13
0.0
 23
0.0
 33
0.0
 16
1.0
 26
0.0
 36
0.0
 17
0.0
 27
1.0
 37
0.0
 76
1
330
17
  0
LAYOUT
  5
1E
330
D
100
AcDbPlotSettings
  1

  4
A3
  6

 40
7.5
 41
20.0
 42
7.5
 43
20.0
 44
420.0
 45
297.0
 46
0.0
 47
0.0
 48
0.0
 49
0.0
140
0.0
141
0.0
142
1.0
143
1.0
 70
0
 72
1
 73
0
 74
5
  7

 75
16
 76
0
 77
2
 78
300
147
1.0
148
0.0
149
0.0
100
AcDbLayout
  1
Layout1
 70
1
 71
1
 10
0.0
 20
0.0
 11
420.0
 21
297.0
 12
0.0
 22
0.0
 32
0.0
 14
1e+20
 24
1e+20
 34
1e+20
 15
-1e+20
 25
-1e+20
 35
-1e+20
146
0.0
 13
0.0
 23
0.0
 33
0.0
 16
1.0
 26
0.0
 36
0.0
 17
0.0
 27
1.0
 37
0.0
 76
1
330
1B
  0
MATERIAL
  5
1F
102
{ACAD_REACTORS
330
E
102
}
330
E
100
AcDbMaterial
  1
ByBlock
  2

 70
0
 40
1.0
 71
1
 41
1.0
 91
-1023410177
 42
1.0
 72
1
  3

 73
1
 74
1
 75
1
 44
0.5
 73
0
 45
1.0
 46
1.0
 77
1
  4

 78
1
 79
1
170
1
 48
1.0
171
1
  6

172
1
173
1
174
1
140
1.0
141
1.0
175
1
  7

176
1
177
1
178
1
143
1.0
179
1
  8

270
1
271
1
272
1
145
1.0
146
1.0
273
1
  9

274
1
275
1
276
1
 42
1.0
 72
1
  3

 73
1
 74
1
 75
1
 94
63
  0
MATERIAL
  5
20
102
{ACAD_REACTORS
330
E
102
}
330
E
100
AcDbMaterial
  1
ByLayer
  2

 70
0
 40
1.0
 71
1
 41
1.0
 91
-1023410177
 42
1.0
 72
1
  3

 73
1
 74
1
 75
1
 44
0.5
 73
0
 45
1.0
 46
1.0
 77
1
  4

 78
1
 79
1
170
1
 48
1.0
171
1
  6

172
1
173
1
174
1
140
1.0
141
1.0
175
1
  7

176
1
177
1
178
1
143
1.0
179
1
  8

270
1
271
1
272
1
145
1.0
146
1.0
273
1
  9

274
1
275
1
276
1
 42
1.0
 72
1
  3

 73
1
 74
1
 75
1
 94
63
  0
MATERIAL
  5
21
102
{ACAD_REACTORS
330
E
102
}
330
E
100
AcDbMaterial
  1
Global
  2

 70
0
 40
1.0
 71
1
 41
1.0
 91
-1023410177
 42
1.0
 72
1
  3

 73
1
 74
1
 75
1
 44
0.5
 73
0
 45
1.0
 46
1.0
 77
1
  4

 78
1
 79
1
170
1
 48
1.0
171
1
  6

172
1
173
1
174
1
140
1.0
141
1.0
175
1
  7

176
1
177
1
178
1
143
1.0
179
1
  8

270
1
271
1
272
1
145
1.0
146
1.0
273
1
  9

274
1
275
1
276
1
 42
1.0
 72
1
  3

 73
1
 74
1
 75
1
 94
63
  0
MLINESTYLE
  5
22
102
{ACAD_REACTORS
330
10
102
}
330
10
100
AcDbMlineStyle
  2
Standard
 70
0
  3

 62
256
 51
90.0
 52
90.0
 71
2
 49
0.5
 62
256
  6
BYLAYER
 49
-0.5
 62
256
  6
BYLAYER
  0
MLEADERSTYLE
  5
2C
102
{ACAD_REACTORS
330
F
102
}
330
F
100
AcDbMLeaderStyle
179
2
170
2
171
1
172
0
 90
2
 40
0.0
 41
0.0
173
1
 91
-1056964608
 92
-2
290
1
 42
2.0
291
1
 43
8.0
  3
Standard
 44
4.0
300

342
29
174
1
175
1
176
0
178
1
 93
-1056964608
 45
4.0
292
0
297
0
 46
4.0
 94
-1056964608
 47
1.0
 49
1.0
140
1.0
294
1
141
0.0
177
0
142
1.0
295
0
296
0
143
3.75
271
0
272
9
273
9
  0
DICTIONARY
  5
2D
330
A
100
AcDbDictionary
280
1
281
1
  3
CREATED_BY_EZDXF
350
2E
  3
WRITTEN_BY_EZDXF
350
75
  0
DICTIONARYVAR
  5
2E
330
2D
100
DictionaryVariables
280
0
  1
1.4.4 @ 2026-07-21T09:53:46.221701+00:00
  0
DICTIONARYVAR
  5
75
330
2D
100
DictionaryVariables
280
0
  1
1.4.4 @ 2026-07-21T09:53:46.230468+00:00
  0
ENDSEC
  0
EOF
