  0
SECTION
  2
HEADER
  9
$ACADVER
  1
AC1027
  9
$ACADMAINTVER
 70
105
  9
$DWGCODEPAGE
  3
ANSI_1252
  9
$LASTSAVEDBY
  1
ezdxf
  9
$REQUIREDVERSIONS
160
0
  9
$INSBASE
 10
0.0
 20
0.0
 30
0.0
  9
$EXTMIN
 10
1e+20
 20
1e+20
 30
1e+20
  9
$EXTMAX
 10
-1e+20
 20
-1e+20
 30
-1e+20
  9
$LIMMIN
 10
0.0
 20
0.0
  9
$LIMMAX
 10
420.0
 20
297.0
  9
$ORTHOMODE
 70
0
  9
$REGENMODE
 70
1
  9
$FILLMODE
 70
1
  9
$QTEXTMODE
 70
0
  9
$MIRRTEXT
 70
1
  9
$LTSCALE
 40
1.0
  9
$ATTMODE
 70
1
  9
$TEXTSIZE
 40
2.5
  9
$TRACEWID
 40
1.0
  9
$TEXTSTYLE
  7
Standard
  9
$CLAYER
  8
0
  9
$CELTYPE
  6
ByLayer
  9
$CECOLOR
 62
256
  9
$CELTSCALE
 40
1.0
  9
$DISPSILH
 70
0
  9
$DIMSCALE
 40
1.0
  9
$DIMASZ
 40
2.5
  9
$DIMEXO
 40
0.625
  9
$DIMDLI
 40
3.75
  9
$DIMRND
 40
0.0
  9
$DIMDLE
 40
0.0
  9
$DIMEXE
 40
1.25
  9
$DIMTP
 40
0.0
  9
$DIMTM
 40
0.0
  9
$DIMTXT
 40
2.5
  9
$DIMCEN
 40
2.5
  9
$DIMTSZ
 40
0.0
  9
$DIMTOL
 70
0
  9
$DIMLIM
 70
0
  9
$DIMTIH
 70
0
  9
$DIMTOH
 70
0
  9
$DIMSE1
 70
0
  9
$DIMSE2
 70
0
  9
$DIMTAD
 70
1
  9
$DIMZIN
 70
8
  9
$DIMBLK
  1

  9
$DIMASO
 70
1
  9
$DIMSHO
 70
1
  9
$DIMPOST
  1

  9
$DIMAPOST
  1

  9
$DIMALT
 70
0
  9
$DIMALTD
 70
3
  9
$DIMALTF
 40
0.03937007874
  9
$DIMLFAC
 40
1.0
  9
$DIMTOFL
 70
1
  9
$DIMTVP
 40
0.0
  9
$DIMTIX
 70
0
  9
$DIMSOXD
 70
0
  9
$DIMSAH
 70
0
  9
$DIMBLK1
  1

  9
$DIMBLK2
  1

  9
$DIMSTYLE
  2
ISO-25
  9
$DIMCLRD
 70
0
  9
$DIMCLRE
 70
0
  9
$DIMCLRT
 70
0
  9
$DIMTFAC
 40
1.0
  9
$DIMGAP
 40
0.625
  9
$DIMJUST
 70
0
  9
$DIMSD1
 70
0
  9
$DIMSD2
 70
0
  9
$DIMTOLJ
 70
0
  9
$DIMTZIN
 70
8
  9
$DIMALTZ
 70
0
  9
$DIMALTTZ
 70
0
  9
$DIMUPT
 70
0
  9
$DIMDEC
 70
2
  9
$DIMTDEC
 70
2
  9
$DIMALTU
 70
2
  9
$DIMALTTD
 70
3
  9
$DIMTXSTY
  7
Standard
  9
$DIMAUNIT
 70
0
  9
$DIMADEC
 70
0
  9
$DIMALTRND
 40
0.0
  9
$DIMAZIN
 70
0
  9
$DIMDSEP
 70
44
  9
$DIMATFIT
 70
3
  9
$DIMFRAC
 70
0
  9
$DIMLDRBLK
  1

  9
$DIMLUNIT
 70
2
  9
$DIMLWD
 70
-2
  9
$DIMLWE
 70
-2
  9
$DIMTMOVE
 70
0
  9
$DIMFXL
 40
1.0
  9
$DIMFXLON
 70
0
  9
$DIMJOGANG
 40
0.785398163397
  9
$DIMTFILL
 70
0
  9
$DIMTFILLCLR
 70
0
  9
$DIMARCSYM
 70
0
  9
$DIMLTYPE
  6

  9
$DIMLTEX1
  6

  9
$DIMLTEX2
  6

  9
$DIMTXTDIRECTION
 70
0
  9
$LUNITS
 70
2
  9
$LUPREC
 70
4
  9
$SKETCHINC
 40
1.0
  9
$FILLETRAD
 40
10.0
  9
$AUNITS
 70
0
  9
$AUPREC
 70
2
  9
$MENU
  1
.
  9
$ELEVATION
 40
0.0
  9
$PELEVATION
 40
0.0
  9
$THICKNESS
 40
0.0
  9
$LIMCHECK
 70
0
  9
$CHAMFERA
 40
0.0
  9
$CHAMFERB
 40
0.0
  9
$CHAMFERC
 40
0.0
  9
$CHAMFERD
 40
0.0
  9
$SKPOLY
 70
0
  9
$TDCREATE
 40
2461243.537337963
  9
$TDUCREATE
 40
2458532.153996898
  9
$TDUPDATE
 40
2461243.537337963
  9
$TDUUPDATE
 40
2458532.1544311
  9
$TDINDWG
 40
0.0
  9
$TDUSRTIMER
 40
0.0
  9
$USRTIMER
 70
1
  9
$ANGBASE
 50
0.0
  9
$ANGDIR
 70
0
  9
$PDMODE
 70
0
  9
$PDSIZE
 40
0.0
  9
$PLINEWID
 40
0.0
  9
$SPLFRAME
 70
0
  9
$SPLINETYPE
 70
6
  9
$SPLINESEGS
 70
8
  9
$HANDSEED
  5
3A
  9
$SURFTAB1
 70
6
  9
$SURFTAB2
 70
6
  9
$SURFTYPE
 70
6
  9
$SURFU
 70
6
  9
$SURFV
 70
6
  9
$UCSBASE
  2

  9
$UCSNAME
  2

  9
$UCSORG
 10
0.0
 20
0.0
 30
0.0
  9
$UCSXDIR
 10
1.0
 20
0.0
 30
0.0
  9
$UCSYDIR
 10
0.0
 20
1.0
 30
0.0
  9
$UCSORTHOREF
  2

  9
$UCSORTHOVIEW
 70
0
  9
$UCSORGTOP
 10
0.0
 20
0.0
 30
0.0
  9
$UCSORGBOTTOM
 10
0.0
 20
0.0
 30
0.0
  9
$UCSORGLEFT
 10
0.0
 20
0.0
 30
0.0
  9
$UCSORGRIGHT
 10
0.0
 20
0.0
 30
0.0
  9
$UCSORGFRONT
 10
0.0
 20
0.0
 30
0.0
  9
$UCSORGBACK
 10
0.0
 20
0.0
 30
0.0
  9
$PUCSBASE
  2

  9
$PUCSNAME
  2

  9
$PUCSORG
 10
0.0
 20
0.0
 30
0.0
  9
$PUCSXDIR
 10
1.0
 20
0.0
 30
0.0
  9
$PUCSYDIR
 10
0.0
 20
1.0
 30
0.0
  9
$PUCSORTHOREF
  2

  9
$PUCSORTHOVIEW
 70
0
  9
$PUCSORGTOP
 10
0.0
 20
0.0
 30
0.0
  9
$PUCSORGBOTTOM
 10
0.0
 20
0.0
 30
0.0
  9
$PUCSORGLEFT
 10
0.0
 20
0.0
 30
0.0
  9
$PUCSORGRIGHT
 10
0.0
 20
0.0
 30
0.0
  9
$PUCSORGFRONT
 10
0.0
 20
0.0
 30
0.0
  9
$PUCSORGBACK
 10
0.0
 20
0.0
 30
0.0
  9
$USERI1
 70
0
  9
$USERI2
 70
0
  9
$USERI3
 70
0
  9
$USERI4
 70
0
  9
$USERI5
 70
0
  9
$USERR1
 40
0.0
  9
$USERR2
 40
0.0
  9
$USERR3
 40
0.0
  9
$USERR4
 40
0.0
  9
$USERR5
 40
0.0
  9
$WORLDVIEW
 70
1
  9
$SHADEDGE
 70
3
  9
$SHADEDIF
 70
70
  9
$TILEMODE
 70
1
  9
$MAXACTVP
 70
64
  9
$PINSBASE
 10
0.0
 20
0.0
 30
0.0
  9
$PLIMCHECK
 70
0
  9
$PEXTMIN
 10
1e+20
 20
1e+20
 30
1e+20
  9
$PEXTMAX
 10
-1e+20
 20
-1e+20
 30
-1e+20
  9
$PLIMMIN
 10
0.0
 20
0.0
  9
$PLIMMAX
 10
420.0
 20
297.0
  9
$UNITMODE
 70
0
  9
$VISRETAIN
 70
1
  9
$PLINEGEN
 70
0
  9
$PSLTSCALE
 70
1
  9
$TREEDEPTH
 70
3020
  9
$CMLSTYLE
  2
Standard
  9
$CMLJUST
 70
0
  9
$CMLSCALE
 40
20.0
  9
$PROXYGRAPHICS
 70
1
  9
$MEASUREMENT
 70
1
  9
$CELWEIGHT
370
-1
  9
$ENDCAPS
280
0
  9
$JOINSTYLE
280
0
  9
$LWDISPLAY
290
0
  9
$INSUNITS
 70
4
  9
$HYPERLINKBASE
  1

  9
$STYLESHEET
  1

  9
$XEDIT
290
1
  9
$CEPSNTYPE
380
0
  9
$PSTYLEMODE
290
1
  9
$FINGERPRINTGUID
  2
{D00F4215-DFA1-4194-97F3-A14496141935}
  9
$VERSIONGUID
  2
{6AF4AD72-99BE-4195-BA58-014D6B16D7DF}
  9
$EXTNAMES
290
1
  9
$PSVPSCALE
 40
0.0
  9
$OLESTARTUP
290
0
  9
$SORTENTS
280
127
  9
$INDEXCTL
280
0
  9
$HIDETEXT
280
1
  9
$XCLIPFRAME
280
1
  9
$HALOGAP
280
0
  9
$OBSCOLOR
 70
257
  9
$OBSLTYPE
280
0
  9
$INTERSECTIONDISPLAY
280
0
  9
$INTERSECTIONCOLOR
 70
257
  9
$DIMASSOC
280
2
  9
$PROJECTNAME
  1

  9
$CAMERADISPLAY
290
0
  9
$LENSLENGTH
 40
50.0
  9
$CAMERAHEIGHT
 40
0.0
  9
$STEPSPERSEC
 40
24.0
  9
$STEPSIZE
 40
100.0
  9
$3DDWFPREC
 40
2.0
  9
$PSOLWIDTH
 40
0.005
  9
$PSOLHEIGHT
 40
0.08
  9
$LOFTANG1
 40
1.570796326795
  9
$LOFTANG2
 40
1.570796326795
  9
$LOFTMAG1
 40
0.0
  9
$LOFTMAG2
 40
0.0
  9
$LOFTPARAM
 70
7
  9
$LOFTNORMALS
280
1
  9
$LATITUDE
 40
37.795
  9
$LONGITUDE
 40
-122.394
  9
$NORTHDIRECTION
 40
0.0
  9
$TIMEZONE
 70
-8000
  9
$LIGHTGLYPHDISPLAY
280
1
  9
$TILEMODELIGHTSYNCH
280
1
  9
$CMATERIAL
347
20
  9
$SOLIDHIST
280
0
  9
$SHOWHIST
280
1
  9
$DWFFRAME
280
2
  9
$DGNFRAME
280
2
  9
$REALWORLDSCALE
290
1
  9
$INTERFERECOLOR
 62
256
  9
$CSHADOW
280
0
  9
$SHADOWPLANELOCATION
 40
0.0
  0
ENDSEC
  0
SECTION
  2
CLASSES
  0
CLASS
  1
ACDBDICTIONARYWDFLT
  2
AcDbDictionaryWithDefault
  3
ObjectDBX Classes
 90
0
 91
0
280
0
281
0
  0
CLASS
  1
SUN
  2
AcDbSun
  3
SCENEOE
 90
1153
 91
0
280
0
281
0
  0
CLASS
  1
VISUALSTYLE
  2
AcDbVisualStyle
  3
ObjectDBX Classes
 90
4095
 91
0
280
0
281
0
  0
CLASS
  1
MATERIAL
  2
AcDbMaterial
  3
ObjectDBX Classes
 90
1153
 91
0
280
0
281
0
  0
CLASS
  1
SCALE
  2
AcDbScale
  3
ObjectDBX Classes
 90
1153
 91
0
280
0
281
0
  0
CLASS
  1
TABLESTYLE
  2
AcDbTableStyle
  3
ObjectDBX Classes
 90
4095
 91
0
280
0
281
0
  0
CLASS
  1
MLEADERSTYLE
  2
AcDbMLeaderStyle
  3
ACDB_MLEADERSTYLE_CLASS
 90
4095
 91
0
280
0
281
0
  0
CLASS
  1
DICTIONARYVAR
  2
AcDbDictionaryVar
  3
ObjectDBX Classes
 90
0
 91
0
280
0
281
0
  0
CLASS
  1
CELLSTYLEMAP
  2
AcDbCellStyleMap
  3
ObjectDBX Classes
 90
1152
 91
0
280
0
281
0
  0
CLASS
  1
MENTALRAYRENDERSETTINGS
  2
AcDbMentalRayRenderSettings
  3
SCENEOE
 90
1024
 91
0
280
0
281
0
  0
CLASS
  1
ACDBDETAILVIEWSTYLE
  2
AcDbDetailViewStyle
  3
ObjectDBX Classes
 90
1025
 91
0
280
0
281
0
  0
CLASS
  1
ACDBSECTIONVIEWSTYLE
  2
AcDbSectionViewStyle
  3
ObjectDBX Classes
 90
1025
 91
0
280
0
281
0
  0
CLASS
  1
RASTERVARIABLES
  2
AcDbRasterVariables
  3
ISM
 90
0
 91
0
280
0
281
0
  0
CLASS
  1
ACDBPLACEHOLDER
  2
AcDbPlaceHolder
  3
ObjectDBX Classes
 90
0
 91
0
280
0
281
0
  0
CLASS
  1
LAYOUT
  2
AcDbLayout
  3
ObjectDBX Classes
 90
0
 91
0
280
0
281
0
  0
ENDSEC
  0
SECTION
  2
TABLES
  0
TABLE
  2
VPORT
  5
8
330
0
100
AcDbSymbolTable
 70
1
  0
VPORT
  5
23
330
8
100
AcDbSymbolTableRecord
100
AcDbViewportTableRecord
  2
*Active
 70
0
 10
0.0
 20
0.0
 11
1.0
 21
1.0
 12
0.0
 22
0.0
 13
0.0
 23
0.0
 14
0.5
 24
0.5
 15
0.5
 25
0.5
 16
0.0
 26
0.0
 36
1.0
 17
0.0
 27
0.0
 37
0.0
 40
1000.0
 41
1.34
 42
50.0
 43
0.0
 44
0.0
 50
0.0
 51
0.0
 71
0
 72
1000
 73
1
 74
3
 75
0
 76
0
 77
0
 78
0
281
0
 65
0
146
0.0
  0
ENDTAB
  0
TABLE
  2
LTYPE
  5
2
330
0
100
AcDbSymbolTable
 70
3
  0
LTYPE
  5
24
330
2
100
AcDbSymbolTableRecord
100
AcDbLinetypeTableRecord
  2
ByBlock
 70
0
  3

 72
65
 73
0
 40
0.0
  0
LTYPE
  5
25
330
2
100
AcDbSymbolTableRecord
100
AcDbLinetypeTableRecord
  2
ByLayer
 70
0
  3

 72
65
 73
0
 40
0.0
  0
LTYPE
  5
26
330
2
100
AcDbSymbolTableRecord
100
AcDbLinetypeTableRecord
  2
Continuous
 70
0
  3

 72
65
 73
0
 40
0.0
  0
ENDTAB
  0
TABLE
  2
LAYER
  5
1
330
0
100
AcDbSymbolTable
 70
3
  0
LAYER
  5
27
330
1
100
AcDbSymbolTableRecord
100
AcDbLayerTableRecord
  2
0
 70
0
 62
7
  6
Continuous
370
-3
390
13
347
21
  0
LAYER
  5
28
330
1
100
AcDbSymbolTableRecord
100
AcDbLayerTableRecord
  2
Defpoints
 70
0
 62
7
  6
Continuous
290
0
370
-3
390
13
347
21
  0
LAYER
  5
2F
330
1
100
AcDbSymbolTableRecord
100
AcDbLayerTableRecord
  2
Y
 70
0
 62
7
  6
Continuous
370
-3
390
13
347
21
  0
ENDTAB
  0
TABLE
  2
STYLE
  5
5
330
0
100
AcDbSymbolTable
 70
1
  0
STYLE
  5
29
330
5
100
AcDbSymbolTableRecord
100
AcDbTextStyleTableRecord
  2
Standard
 70
0
 40
0.0
 41
1.0
 50
0.0
 71
0
 42
2.5
  3
txt
  4

  0
ENDTAB
  0
TABLE
  2
VIEW
  5
7
330
0
100
AcDbSymbolTable
 70
0
  0
ENDTAB
  0
TABLE
  2
UCS
  5
6
330
0
100
AcDbSymbolTable
 70
0
  0
ENDTAB
  0
TABLE
  2
APPID
  5
3
330
0
100
AcDbSymbolTable
 70
3
  0
APPID
  5
2A
330
3
100
AcDbSymbolTableRecord
100
AcDbRegAppTableRecord
  2
ACAD
 70
0
  0
APPID
  5
37
330
3
100
AcDbSymbolTableRecord
100
AcDbRegAppTableRecord
  2
HATCHBACKGROUNDCOLOR
 70
0
  0
APPID
  5
38
330
3
100
AcDbSymbolTableRecord
100
AcDbRegAppTableRecord
  2
EZDXF
 70
0
  0
ENDTAB
  0
TABLE
  2
DIMSTYLE
  5
4
330
0
100
AcDbSymbolTable
 70
1
100
AcDbDimStyleTable
  0
DIMSTYLE
105
2B
330
4
100
AcDbSymbolTableRecord
100
AcDbDimStyleTableRecord
  2
Standard
 70
0
 40
1.0
 41
2.5
 42
0.625
 43
3.75
 44
1.25
 45
0.0
 46
0.0
 47
0.0
 48
0.0
 49
2.5
140
2.5
141
2.5
142
0.0
143
0.03937007874
144
1.0
145
0.0
146
1.0
147
0.625
148
0.0
 69
0
 70
0
 71
0
 72
0
 73
0
 74
0
 75
0
 76
0
 77
1
 78
8
 79
3
170
0
171
3
172
1
173
0
174
0
175
0
176
0
177
0
178
0
179
2
271
2
272
2
273
2
274
3
275
0
276
0
277
2
278
44
279
0
280
0
281
0
282
0
283
0
284
8
285
0
286
0
288
0
289
3
290
0
371
-2
372
-2
  0
ENDTAB
  0
TABLE
  2
BLOCK_RECORD
  5
9
330
0
100
AcDbSymbolTable
 70
2
  0
BLOCK_RECORD
  5
17
330
9
100
AcDbSymbolTableRecord
100
AcDbBlockTableRecord
  2
*Model_Space
340
1A
 70
0
280
1
281
0
  0
BLOCK_RECORD
  5
1B
330
9
100
AcDbSymbolTableRecord
100
AcDbBlockTableRecord
  2
*Paper_Space
340
1E
 70
0
280
1
281
0
  0
ENDTAB
  0
ENDSEC
  0
SECTION
  2
BLOCKS
  0
BLOCK
  5
18
330
17
100
AcDbEntity
  8
0
100
AcDbBlockBegin
  2
*Model_Space
 70
0
 10
0.0
 20
0.0
 30
0.0
  3
*Model_Space
  1

  0
ENDBLK
  5
19
330
17
100
AcDbEntity
  8
0
100
AcDbBlockEnd
  0
BLOCK
  5
1C
330
1B
100
AcDbEntity
  8
0
100
AcDbBlockBegin
  2
*Paper_Space
 70
0
 10
0.0
 20
0.0
 30
0.0
  3
*Paper_Space
  1

  0
ENDBLK
  5
1D
330
1B
100
AcDbEntity
  8
0
100
AcDbBlockEnd
  0
ENDSEC
  0
SECTION
  2
ENTITIES
  0
LWPOLYLINE
  5
30
330
17
100
AcDbEntity
  8
Y
100
AcDbPolyline
 90
108
 70
1
 10
197.5438007650623
 20
297.0914620025681
 10
184.3228659016043
 20
297.0914620025681
 10
182.65619923493782
 20
294.35336676447275
 10
175.87713409839557
 20
294.35336676447275
 10
174.26666666666657
 20
296.9991346880274
 10
172.6561992349376
 20
294.35336676447275
 10
157.65619923493767
 20
294.35336676447275
 10
155.98953256827096
 20
291.61527152637757
 10
139.23086083247537
 20
291.61527152637757
 10
135.95886421189462
 20
294.30298303614023
 10
134.32286590160436
 20
291.61527152637757
 10
129.21046743172892
 20
291.61527152637757
 10
127.59999999999994
 20
294.2610394499323
 10
125.9245709572805
 20
291.5085488797503
 10
118.319209037141
 20
306.77963273526854
 10
126.64959786651164
 20
320.4652715263776
 10
125.0
 20
323.1753251642181
 10
125.0
 20
336.9218845552037
 10
132.54380076506234
 20
349.31527152637756
 10
137.55383244627362
 20
349.31527152637756
 10
149.2132837314295
 20
362.9972806875298
 10
177.53758423530752
 20
368.4717253227331
 10
179.20191619820147
 20
371.20598497605874
 10
189.20191619820147
 20
373.94408021415404
 10
192.54380076506217
 20
379.43431914542515
 10
204.2104674317289
 20
379.43431914542515
 10
208.31626453317799
 20
386.1795572406632
 10
205.87713409839557
 20
390.18670009780607
 10
199.210467431729
 20
390.18670009780607
 10
197.5438007650623
 20
392.9247953359014
 10
165.87713409839554
 20
392.9247953359014
 10
162.54380076506226
 20
398.40098581209185
 10
159.21046743172894
 20
398.40098581209185
 10
157.54380076506226
 20
401.13908105018703
 10
145.8945592880122
 20
401.13908105018703
 10
138.32406107205253
 20
408.04866275522977
 10
139.99420457642177
 20
416.28008431247764
 10
135.85433608534038
 20
423.0812968335397
 10
127.59391143759547
 20
431.22371541488826
 10
121.00992596901739
 20
425.8154416371276
 10
114.29219754522812
 20
414.7791735123307
 10
110.95886421189472
 20
417.51726875042596
 10
100.98953256827103
 20
401.13908105018703
 10
90.98953256827103
 20
401.13908105018703
 10
89.32286590160432
 20
398.40098581209185
 10
70.96913916752456
 20
398.40098581209185
 10
67.57446912143861
 20
395.6125068456641
 10
64.21046743172897
 20
401.13908105018703
 10
60.98290155956476
 20
401.13908105018703
 10
52.633067257800924
 20
390.1650131107259
 10
45.97434555304814
 20
392.89984523946373
 10
44.32286590160439
 20
390.18670009780607
 10
40.897527499141994
 20
390.18670009780607
 10
37.599999999999966
 20
392.89538340067287
 10
34.25680749497273
 20
390.1491895572575
 10
24.282743037186137
 20
401.0731649157857
 10
20.217068800155058
 20
394.3938429549489
 10
22.656199234937667
 20
390.38670009780606
 10
25.98953256827108
 20
390.38670009780606
 10
29.307678886381417
 20
384.9354597180533
 10
35.974345553048124
 20
387.6735549561485
 10
39.32286590160439
 20
382.17241438352033
 10
42.65619923493769
 20
382.17241438352033
 10
46.86666666666661
 20
375.255217888537
 10
46.86666666666661
 20
366.98484897374186
 10
42.66363620637081
 20
360.0798703603987
 10
30.9969695397041
 20
357.3417751223035
 10
27.656199234937784
 20
351.85336676447275
 10
24.322865901604374
 20
351.85336676447275
 10
22.656199234937667
 20
349.11527152637757
 10
2.5438007650622207
 20
349.11527152637757
 10
0.0
 20
353.2943727832657
 10
0.0
 20
424.5409321742513
 10
2.5438007650622207
 20
428.7200334311394
 10
15.98953256827107
 20
428.7200334311394
 10
17.656199234937773
 20
425.9819381930442
 10
37.65619923493768
 20
425.9819381930442
 10
39.32286590160439
 20
423.243842954949
 10
42.54380076506226
 20
423.243842954949
 10
45.003139962337514
 20
427.2841859219012
 10
50.00313996233763
 20
471.09370973142495
 10
53.33333333333334
 20
476.56474169806086
 10
53.33333333333334
 20
487.51712265044176
 10
57.54380076506227
 20
494.43431914542515
 10
377.6561992349377
 20
494.43431914542515
 10
380.1999999999999
 20
490.25521788853723
 10
380.1999999999999
 20
309.48484897374163
 10
377.6561992349377
 20
305.30574771685383
 10
364.3228659016045
 20
305.30574771685383
 10
362.6561992349375
 20
302.5676524787585
 10
349.3228659016043
 20
302.5676524787585
 10
347.65619923493784
 20
299.8295572406633
 10
334.3228659016042
 20
299.8295572406633
 10
332.65619923493773
 20
297.0914620025681
 10
325.87713409839546
 20
297.0914620025681
 10
322.5262789075176
 20
302.5964383875819
 10
314.22949793377853
 20
308.0486087417534
 10
297.5495482508999
 20
310.7888861896548
 10
292.5558920738922
 20
316.25812866923474
 10
287.5438007650624
 20
316.25812866923474
 10
285.87179636071534
 20
319.0049930478042
 10
269.2889679063994
 20
321.7293148652989
 10
261.00255333717513
 20
316.2839567198087
 10
252.6495682262313
 20
305.30574771685383
 10
247.6476305308002
 20
305.30574771685383
 10
234.31106402441992
 20
288.8731925572068
 10
200.87439204592238
 20
291.6197763268691
 10
197.5438007650623
 20
297.0914620025681
  0
LWPOLYLINE
  5
31
330
17
100
AcDbEntity
  8
Y
100
AcDbPolyline
 90
5
 70
1
 10
138.31626453317824
 20
306.77479533590133
 10
135.93333333333325
 20
310.6896108785038
 10
133.55040213348835
 20
306.77479533590133
 10
135.93333333333325
 20
302.8599797932989
 10
138.31626453317824
 20
306.77479533590133
  0
LWPOLYLINE
  5
32
330
17
100
AcDbEntity
  8
Y
100
AcDbPolyline
 90
80
 70
1
 10
689.210467431729
 20
305.30574771685383
 10
675.8820836592071
 20
305.30574771685383
 10
664.9801272847822
 20
320.46066509448866
 10
667.5438007650622
 20
324.67241438352045
 10
670.9895325682711
 20
324.67241438352045
 10
674.2827430371862
 20
319.26214004173124
 10
679.2711261589219
 20
324.72560727029907
 10
685.9072553660773
 20
316.5489480686255
 10
689.9876129612195
 20
325.93377053745263
 10
684.982931199845
 20
334.15574771685374
 10
689.9829311998449
 20
342.37003343113946
 10
685.8771340983956
 20
349.11527152637757
 10
674.2204991129404
 20
349.11527152637757
 10
662.5438728199703
 20
362.8174350334342
 10
652.5530127823636
 20
365.55302766277896
 10
645.8975274991421
 20
371.02003343113944
 10
637.6561992349376
 20
371.02003343113944
 10
630.9895325682711
 20
360.0676524787585
 10
627.6609795010903
 20
360.0676524787585
 10
618.547918980553
 20
342.3741128966762
 10
620.2170688001551
 20
339.6319381930443
 10
617.6561992349376
 20
335.4247953359014
 10
605.8771340983956
 20
335.4247953359014
 10
603.324624514266
 20
339.6182039383999
 10
604.9912911809328
 20
345.09439441459034
 10
602.6
 20
349.0229442118371
 10
600.9588642118947
 20
346.3267925599498
 10
597.5179026548833
 20
349.15329669606643
 10
593.3209462945529
 20
358.8062963248263
 10
597.5438007650623
 20
365.743842954949
 10
600.989532568271
 20
365.743842954949
 10
602.6
 20
363.0980750313942
 10
609.2411357881052
 20
374.00851239756724
 10
612.6358058341913
 20
371.2200334311394
 10
620.9895325682711
 20
371.2200334311394
 10
622.6
 20
368.57426550758464
 10
624.982931199845
 20
372.48908105018705
 10
620.8771340983956
 20
379.23431914542516
 10
617.5438007650622
 20
379.23431914542516
 10
615.8771340983956
 20
381.97241438352034
 10
582.6299164486206
 20
381.97241438352034
 10
574.340387759149
 20
376.52500981615333
 10
567.6
 20
365.45151564040856
 10
564.2666666666667
 20
370.927706116599
 10
560.9333333333333
 20
365.45151564040856
 10
558.3162645331782
 20
369.75098581209187
 10
559.982931199845
 20
372.48908105018705
 10
557.6126435421932
 20
376.3831250591862
 10
552.6642756250413
 20
365.543842954949
 10
547.5558920738921
 20
365.543842954949
 10
542.6160763705194
 20
370.9541172967381
 10
537.5889822198029
 20
362.6953197634182
 10
531.6666666666667
 20
375.2047005746346
 10
531.6666666666667
 20
430.01712265044176
 10
533.3333333333334
 20
432.755217888537
 10
533.3333333333334
 20
438.23140836472754
 10
535.8771340983957
 20
442.41050962161563
 10
779.3228659016042
 20
442.41050962161563
 10
781.8837354668218
 20
438.2033667644728
 10
780.2
 20
435.4372299261229
 10
780.2
 20
424.50089192580674
 10
776.8666666666666
 20
410.8104157353306
 10
776.8666666666666
 20
402.58008706898
 10
775.1999999999999
 20
399.84199183088475
 10
775.1999999999999
 20
391.62770611659903
 10
773.5333333333334
 20
388.88961087850385
 10
773.5333333333334
 20
380.67532516421807
 10
770.989532568271
 20
376.49622390733
 10
747.5438007650623
 20
376.49622390733
 10
745.8771340983956
 20
379.23431914542516
 10
734.3228659016044
 20
379.23431914542516
 10
731.8666666666667
 20
375.1991346880276
 10
731.8666666666667
 20
309.48484897374186
 10
725.989532568271
 20
299.8295572406633
 10
719.2104674317291
 20
299.8295572406633
 10
717.5438007650623
 20
302.5676524787585
 10
707.6561992349377
 20
302.5676524787585
 10
705.986142571677
 20
299.82398796054446
 10
691.7072562735301
 20
301.2038803338948
 10
689.210467431729
 20
305.30574771685383
  0
LWPOLYLINE
  5
33
330
17
100
AcDbEntity
  8
Y
100
AcDbPolyline
 90
5
 70
1
 10
635.9135840213352
 20
360.3275344950162
 10
640.2364363078107
 20
356.0664372412045
 10
634.253120260339
 20
349.0451990222326
 10
631.6495978665116
 20
353.3224143835204
 10
635.9135840213352
 20
360.3275344950162
  0
LWPOLYLINE
  5
34
330
17
100
AcDbEntity
  8
Y
100
AcDbPolyline
 90
24
 70
1
 10
1222.5266205038438
 20
324.50414078726254
 10
1209.2014022488793
 20
340.92271327998657
 10
1204.1951619002934
 20
343.6642258518314
 10
1201.6579578475994
 20
347.8324896526855
 10
1205.006701949876
 20
358.8355059887377
 10
1219.204460813834
 20
387.6486048597109
 10
1275.989532568271
 20
387.6486048597109
 10
1278.5333333333333
 20
383.4695036028227
 10
1278.5333333333333
 20
377.9372299261229
 10
1276.8666666666666
 20
375.1991346880276
 10
1276.8666666666666
 20
325.9134204023133
 10
1275.217068800155
 20
323.20336676447283
 10
1279.3228659016042
 20
316.4581286692347
 10
1282.6561992349377
 20
316.4581286692347
 10
1288.5504021334884
 20
306.77479533590133
 10
1285.989532568271
 20
302.5676524787585
 10
1282.5438007650623
 20
302.5676524787585
 10
1279.2104674317288
 20
308.043842954949
 10
1267.543800765062
 20
308.043842954949
 10
1262.5882992360928
 20
316.185024038256
 10
1255.9216325694263
 20
307.97073832397024
 10
1254.2469173546683
 20
310.7220561767866
 10
1245.9350243618305
 20
302.52890451241774
 10
1222.5266205038438
 20
324.50414078726254
  0
LWPOLYLINE
  5
35
330
17
100
AcDbEntity
  8
Y
100
AcDbPolyline
 90
29
 70
1
 10
1938.3325885784766
 20
246.56351817222532
 10
1939.9829311998449
 20
249.27479533590136
 10
1938.333333333333
 20
251.98484897374186
 10
1938.333333333333
 20
334.25058850480184
 10
1964.321026928271
 20
335.627816506377
 10
1966.8753754857335
 20
331.43138673340286
 10
1965.1933665504137
 20
325.9047859459238
 10
1951.886657102559
 20
298.5785076155072
 10
1970.9982638722227
 20
278.10178607658196
 10
1979.3370426809008
 20
272.62201714516465
 10
1990.2198727152177
 20
257.49368748207604
 10
1985.9690857165199
 20
250.51025169850095
 10
1980.9690857165197
 20
253.24834693659614
 10
1977.6
 20
247.71342040231337
 10
1974.2666666666664
 20
253.18961087850377
 10
1972.6
 20
250.45151564040856
 10
1970.8771340983953
 20
253.28193819304423
 10
1962.5438007650619
 20
253.28193819304423
 10
1960.8771340983956
 20
256.02003343113944
 10
1944.3366054245716
 20
256.02003343113944
 10
1941.877105277372
 20
249.28568778999693
 10
1944.3432593023506
 20
245.2341490346751
 10
1947.5999999999995
 20
242.5589691758918
 10
1954.2790804724266
 20
248.04535670681395
 10
1960.2255806626943
 20
241.06732076925508
 10
1944.2619942127699
 20
217.60204895752423
 10
1942.5999999999997
 20
220.33246802136097
 10
1939.1756776451566
 20
214.70679558126093
 10
1938.3325885784766
 20
246.56351817222532
  0
LWPOLYLINE
  5
36
330
17
100
AcDbEntity
  8
Y
100
AcDbPolyline
 90
13
 70
1
 10
1938.333333333333
 20
0.0
 10
1938.333333333333
 20
13.82432018174562
 10
1954.237134662546
 20
42.702275226895516
 10
1961.0071307319577
 20
37.14120702702151
 10
1972.6516356527052
 20
20.74384295494902
 10
1975.9895325682705
 20
20.74384295494902
 10
1978.5504021334882
 20
16.53670009780617
 10
1972.6255308785614
 20
6.802983036140242
 10
1969.2765258383602
 20
9.553951462019427
 10
1964.2765258383604
 20
4.077760985829015
 10
1960.943192505027
 20
6.8158562239242215
 10
1955.980533746215
 20
1.3805632976064963
 10
1938.333333333333
 20
0.0
  0
ENDSEC
  0
SECTION
  2
OBJECTS
  0
DICTIONARY
  5
A
330
0
100
AcDbDictionary
281
1
  3
ACAD_COLOR
350
B
  3
ACAD_GROUP
350
C
  3
ACAD_LAYOUT
350
D
  3
ACAD_MATERIAL
350
E
  3
ACAD_MLEADERSTYLE
350
F
  3
ACAD_MLINESTYLE
350
10
  3
ACAD_PLOTSETTINGS
350
11
  3
ACAD_PLOTSTYLENAME
350
12
  3
ACAD_SCALELIST
350
14
  3
ACAD_TABLESTYLE
350
15
  3
ACAD_VISUALSTYLE
350
16
  3
EZDXF_META
350
2D
  0
DICTIONARY
  5
B
330
A
100
AcDbDictionary
281
1
  0
DICTIONARY
  5
C
330
A
100
AcDbDictionary
281
1
  0
DICTIONARY
  5
D
330
A
100
AcDbDictionary
281
1
  3
Model
350
1A
  3
Layout1
350
1E
  0
DICTIONARY
  5
E
330
A
100
AcDbDictionary
281
1
  3
ByBlock
350
1F
  3
ByLayer
350
20
  3
Global
350
21
  0
DICTIONARY
  5
F
330
A
100
AcDbDictionary
281
1
  3
Standard
350
2C
  0
DICTIONARY
  5
10
330
A
100
AcDbDictionary
281
1
  3
Standard
350
22
  0
DICTIONARY
  5
11
330
A
100
AcDbDictionary
281
1
  0
ACDBDICTIONARYWDFLT
  5
12
330
A
100
AcDbDictionary
281
1
  3
Normal
350
13
100
AcDbDictionaryWithDefault
340
13
  0
ACDBPLACEHOLDER
  5
13
330
12
  0
DICTIONARY
  5
14
330
A
100
AcDbDictionary
281
1
  0
DICTIONARY
  5
15
330
A
100
AcDbDictionary
281
1
  0
DICTIONARY
  5
16
330
A
100
AcDbDictionary
281
1
  0
LAYOUT
  5
1A
330
D
100
AcDbPlotSettings
  1

  4
A3
  6

 40
7.5
 41
20.0
 42
7.5
 43
20.0
 44
420.0
 45
297.0
 46
0.0
 47
0.0
 48
0.0
 49
0.0
140
0.0
141
0.0
142
1.0
143
1.0
 70
1024
 72
1
 73
0
 74
5
  7

 75
16
 76
0
 77
2
 78
300
147
1.0
148
0.0
149
0.0
100
AcDbLayout
  1
Model
 70
1
 71
0
 10
0.0
 20
0.0
 11
420.0
 21
297.0
 12
0.0
 22
0.0
 32
0.0
 14
1e+20
 24
1e+20
 34
1e+20
 15
-1e+20
 25
-1e+20
 35
-1e+20
146
0.0
 13
0.0
 23
0.0
 33
0.0
 16
1.0
 26
0.0
 36
0.0
 17
0.0
 27
1.0
 37
0.0
 76
1
330
17
  0
LAYOUT
  5
1E
330
D
100
AcDbPlotSettings
  1

  4
A3
  6

 40
7.5
 41
20.0
 42
7.5
 43
20.0
 44
420.0
 45
297.0
 46
0.0
 47
0.0
 48
0.0
 49
0.0
140
0.0
141
0.0
142
1.0
143
1.0
 70
0
 72
1
 73
0
 74
5
  7

 75
16
 76
0
 77
2
 78
300
147
1.0
148
0.0
149
0.0
100
AcDbLayout
  1
Layout1
 70
1
 71
1
 10
0.0
 20
0.0
 11
420.0
 21
297.0
 12
0.0
 22
0.0
 32
0.0
 14
1e+20
 24
1e+20
 34
1e+20
 15
-1e+20
 25
-1e+20
 35
-1e+20
146
0.0
 13
0.0
 23
0.0
 33
0.0
 16
1.0
 26
0.0
 36
0.0
 17
0.0
 27
1.0
 37
0.0
 76
1
330
1B
  0
MATERIAL
  5
1F
102
{ACAD_REACTORS
330
E
102
}
330
E
100
AcDbMaterial
  1
ByBlock
  2

 70
0
 40
1.0
 71
1
 41
1.0
 91
-1023410177
 42
1.0
 72
1
  3

 73
1
 74
1
 75
1
 44
0.5
 73
0
 45
1.0
 46
1.0
 77
1
  4

 78
1
 79
1
170
1
 48
1.0
171
1
  6

172
1
173
1
174
1
140
1.0
141
1.0
175
1
  7

176
1
177
1
178
1
143
1.0
179
1
  8

270
1
271
1
272
1
145
1.0
146
1.0
273
1
  9

274
1
275
1
276
1
 42
1.0
 72
1
  3

 73
1
 74
1
 75
1
 94
63
  0
MATERIAL
  5
20
102
{ACAD_REACTORS
330
E
102
}
330
E
100
AcDbMaterial
  1
ByLayer
  2

 70
0
 40
1.0
 71
1
 41
1.0
 91
-1023410177
 42
1.0
 72
1
  3

 73
1
 74
1
 75
1
 44
0.5
 73
0
 45
1.0
 46
1.0
 77
1
  4

 78
1
 79
1
170
1
 48
1.0
171
1
  6

172
1
173
1
174
1
140
1.0
141
1.0
175
1
  7

176
1
177
1
178
1
143
1.0
179
1
  8

270
1
271
1
272
1
145
1.0
146
1.0
273
1
  9

274
1
275
1
276
1
 42
1.0
 72
1
  3

 73
1
 74
1
 75
1
 94
63
  0
MATERIAL
  5
21
102
{ACAD_REACTORS
330
E
102
}
330
E
100
AcDbMaterial
  1
Global
  2

 70
0
 40
1.0
 71
1
 41
1.0
 91
-1023410177
 42
1.0
 72
1
  3

 73
1
 74
1
 75
1
 44
0.5
 73
0
 45
1.0
 46
1.0
 77
1
  4

 78
1
 79
1
170
1
 48
1.0
171
1
  6

172
1
173
1
174
1
140
1.0
141
1.0
175
1
  7

176
1
177
1
178
1
143
1.0
179
1
  8

270
1
271
1
272
1
145
1.0
146
1.0
273
1
  9

274
1
275
1
276
1
 42
1.0
 72
1
  3

 73
1
 74
1
 75
1
 94
63
  0
MLINESTYLE
  5
22
102
{ACAD_REACTORS
330
10
102
}
330
10
100
AcDbMlineStyle
  2
Standard
 70
0
  3

 62
256
 51
90.0
 52
90.0
 71
2
 49
0.5
 62
256
  6
BYLAYER
 49
-0.5
 62
256
  6
BYLAYER
  0
MLEADERSTYLE
  5
2C
102
{ACAD_REACTORS
330
F
102
}
330
F
100
AcDbMLeaderStyle
179
2
170
2
171
1
172
0
 90
2
 40
0.0
 41
0.0
173
1
 91
-1056964608
 92
-2
290
1
 42
2.0
291
1
 43
8.0
  3
Standard
 44
4.0
300

342
29
174
1
175
1
176
0
178
1
 93
-1056964608
 45
4.0
292
0
297
0
 46
4.0
 94
-1056964608
 47
1.0
 49
1.0
140
1.0
294
1
141
0.0
177
0
142
1.0
295
0
296
0
143
3.75
271
0
272
9
273
9
  0
DICTIONARY
  5
2D
330
A
100
AcDbDictionary
280
1
281
1
  3
CREATED_BY_EZDXF
350
2E
  3
WRITTEN_BY_EZDXF
350
39
  0
DICTIONARYVAR
  5
2E
330
2D
100
DictionaryVariables
280
0
  1
1.4.4 @ 2026-07-21T09:53:46.244633+00:00
  0
DICTIONARYVAR
  5
39
330
2D
100
DictionaryVariables
280
0
  1
1.4.4 @ 2026-07-21T09:53:46.246572+00:00
  0
ENDSEC
  0
EOF
