  0
SECTION
  2
HEADER
  9
$ACADVER
  1
AC1027
  9
$ACADMAINTVER
 70
105
  9
$DWGCODEPAGE
  3
ANSI_1252
  9
$LASTSAVEDBY
  1
ezdxf
  9
$REQUIREDVERSIONS
160
0
  9
$INSBASE
 10
0.0
 20
0.0
 30
0.0
  9
$EXTMIN
 10
1e+20
 20
1e+20
 30
1e+20
  9
$EXTMAX
 10
-1e+20
 20
-1e+20
 30
-1e+20
  9
$LIMMIN
 10
0.0
 20
0.0
  9
$LIMMAX
 10
420.0
 20
297.0
  9
$ORTHOMODE
 70
0
  9
$REGENMODE
 70
1
  9
$FILLMODE
 70
1
  9
$QTEXTMODE
 70
0
  9
$MIRRTEXT
 70
1
  9
$LTSCALE
 40
1.0
  9
$ATTMODE
 70
1
  9
$TEXTSIZE
 40
2.5
  9
$TRACEWID
 40
1.0
  9
$TEXTSTYLE
  7
Standard
  9
$CLAYER
  8
0
  9
$CELTYPE
  6
ByLayer
  9
$CECOLOR
 62
256
  9
$CELTSCALE
 40
1.0
  9
$DISPSILH
 70
0
  9
$DIMSCALE
 40
1.0
  9
$DIMASZ
 40
2.5
  9
$DIMEXO
 40
0.625
  9
$DIMDLI
 40
3.75
  9
$DIMRND
 40
0.0
  9
$DIMDLE
 40
0.0
  9
$DIMEXE
 40
1.25
  9
$DIMTP
 40
0.0
  9
$DIMTM
 40
0.0
  9
$DIMTXT
 40
2.5
  9
$DIMCEN
 40
2.5
  9
$DIMTSZ
 40
0.0
  9
$DIMTOL
 70
0
  9
$DIMLIM
 70
0
  9
$DIMTIH
 70
0
  9
$DIMTOH
 70
0
  9
$DIMSE1
 70
0
  9
$DIMSE2
 70
0
  9
$DIMTAD
 70
1
  9
$DIMZIN
 70
8
  9
$DIMBLK
  1

  9
$DIMASO
 70
1
  9
$DIMSHO
 70
1
  9
$DIMPOST
  1

  9
$DIMAPOST
  1

  9
$DIMALT
 70
0
  9
$DIMALTD
 70
3
  9
$DIMALTF
 40
0.03937007874
  9
$DIMLFAC
 40
1.0
  9
$DIMTOFL
 70
1
  9
$DIMTVP
 40
0.0
  9
$DIMTIX
 70
0
  9
$DIMSOXD
 70
0
  9
$DIMSAH
 70
0
  9
$DIMBLK1
  1

  9
$DIMBLK2
  1

  9
$DIMSTYLE
  2
ISO-25
  9
$DIMCLRD
 70
0
  9
$DIMCLRE
 70
0
  9
$DIMCLRT
 70
0
  9
$DIMTFAC
 40
1.0
  9
$DIMGAP
 40
0.625
  9
$DIMJUST
 70
0
  9
$DIMSD1
 70
0
  9
$DIMSD2
 70
0
  9
$DIMTOLJ
 70
0
  9
$DIMTZIN
 70
8
  9
$DIMALTZ
 70
0
  9
$DIMALTTZ
 70
0
  9
$DIMUPT
 70
0
  9
$DIMDEC
 70
2
  9
$DIMTDEC
 70
2
  9
$DIMALTU
 70
2
  9
$DIMALTTD
 70
3
  9
$DIMTXSTY
  7
Standard
  9
$DIMAUNIT
 70
0
  9
$DIMADEC
 70
0
  9
$DIMALTRND
 40
0.0
  9
$DIMAZIN
 70
0
  9
$DIMDSEP
 70
44
  9
$DIMATFIT
 70
3
  9
$DIMFRAC
 70
0
  9
$DIMLDRBLK
  1

  9
$DIMLUNIT
 70
2
  9
$DIMLWD
 70
-2
  9
$DIMLWE
 70
-2
  9
$DIMTMOVE
 70
0
  9
$DIMFXL
 40
1.0
  9
$DIMFXLON
 70
0
  9
$DIMJOGANG
 40
0.785398163397
  9
$DIMTFILL
 70
0
  9
$DIMTFILLCLR
 70
0
  9
$DIMARCSYM
 70
0
  9
$DIMLTYPE
  6

  9
$DIMLTEX1
  6

  9
$DIMLTEX2
  6

  9
$DIMTXTDIRECTION
 70
0
  9
$LUNITS
 70
2
  9
$LUPREC
 70
4
  9
$SKETCHINC
 40
1.0
  9
$FILLETRAD
 40
10.0
  9
$AUNITS
 70
0
  9
$AUPREC
 70
2
  9
$MENU
  1
.
  9
$ELEVATION
 40
0.0
  9
$PELEVATION
 40
0.0
  9
$THICKNESS
 40
0.0
  9
$LIMCHECK
 70
0
  9
$CHAMFERA
 40
0.0
  9
$CHAMFERB
 40
0.0
  9
$CHAMFERC
 40
0.0
  9
$CHAMFERD
 40
0.0
  9
$SKPOLY
 70
0
  9
$TDCREATE
 40
2461230.628125
  9
$TDUCREATE
 40
2458532.153996898
  9
$TDUPDATE
 40
2461230.628125
  9
$TDUUPDATE
 40
2458532.1544311
  9
$TDINDWG
 40
0.0
  9
$TDUSRTIMER
 40
0.0
  9
$USRTIMER
 70
1
  9
$ANGBASE
 50
0.0
  9
$ANGDIR
 70
0
  9
$PDMODE
 70
0
  9
$PDSIZE
 40
0.0
  9
$PLINEWID
 40
0.0
  9
$SPLFRAME
 70
0
  9
$SPLINETYPE
 70
6
  9
$SPLINESEGS
 70
8
  9
$HANDSEED
  5
4E
  9
$SURFTAB1
 70
6
  9
$SURFTAB2
 70
6
  9
$SURFTYPE
 70
6
  9
$SURFU
 70
6
  9
$SURFV
 70
6
  9
$UCSBASE
  2

  9
$UCSNAME
  2

  9
$UCSORG
 10
0.0
 20
0.0
 30
0.0
  9
$UCSXDIR
 10
1.0
 20
0.0
 30
0.0
  9
$UCSYDIR
 10
0.0
 20
1.0
 30
0.0
  9
$UCSORTHOREF
  2

  9
$UCSORTHOVIEW
 70
0
  9
$UCSORGTOP
 10
0.0
 20
0.0
 30
0.0
  9
$UCSORGBOTTOM
 10
0.0
 20
0.0
 30
0.0
  9
$UCSORGLEFT
 10
0.0
 20
0.0
 30
0.0
  9
$UCSORGRIGHT
 10
0.0
 20
0.0
 30
0.0
  9
$UCSORGFRONT
 10
0.0
 20
0.0
 30
0.0
  9
$UCSORGBACK
 10
0.0
 20
0.0
 30
0.0
  9
$PUCSBASE
  2

  9
$PUCSNAME
  2

  9
$PUCSORG
 10
0.0
 20
0.0
 30
0.0
  9
$PUCSXDIR
 10
1.0
 20
0.0
 30
0.0
  9
$PUCSYDIR
 10
0.0
 20
1.0
 30
0.0
  9
$PUCSORTHOREF
  2

  9
$PUCSORTHOVIEW
 70
0
  9
$PUCSORGTOP
 10
0.0
 20
0.0
 30
0.0
  9
$PUCSORGBOTTOM
 10
0.0
 20
0.0
 30
0.0
  9
$PUCSORGLEFT
 10
0.0
 20
0.0
 30
0.0
  9
$PUCSORGRIGHT
 10
0.0
 20
0.0
 30
0.0
  9
$PUCSORGFRONT
 10
0.0
 20
0.0
 30
0.0
  9
$PUCSORGBACK
 10
0.0
 20
0.0
 30
0.0
  9
$USERI1
 70
0
  9
$USERI2
 70
0
  9
$USERI3
 70
0
  9
$USERI4
 70
0
  9
$USERI5
 70
0
  9
$USERR1
 40
0.0
  9
$USERR2
 40
0.0
  9
$USERR3
 40
0.0
  9
$USERR4
 40
0.0
  9
$USERR5
 40
0.0
  9
$WORLDVIEW
 70
1
  9
$SHADEDGE
 70
3
  9
$SHADEDIF
 70
70
  9
$TILEMODE
 70
1
  9
$MAXACTVP
 70
64
  9
$PINSBASE
 10
0.0
 20
0.0
 30
0.0
  9
$PLIMCHECK
 70
0
  9
$PEXTMIN
 10
1e+20
 20
1e+20
 30
1e+20
  9
$PEXTMAX
 10
-1e+20
 20
-1e+20
 30
-1e+20
  9
$PLIMMIN
 10
0.0
 20
0.0
  9
$PLIMMAX
 10
420.0
 20
297.0
  9
$UNITMODE
 70
0
  9
$VISRETAIN
 70
1
  9
$PLINEGEN
 70
0
  9
$PSLTSCALE
 70
1
  9
$TREEDEPTH
 70
3020
  9
$CMLSTYLE
  2
Standard
  9
$CMLJUST
 70
0
  9
$CMLSCALE
 40
20.0
  9
$PROXYGRAPHICS
 70
1
  9
$MEASUREMENT
 70
1
  9
$CELWEIGHT
370
-1
  9
$ENDCAPS
280
0
  9
$JOINSTYLE
280
0
  9
$LWDISPLAY
290
0
  9
$INSUNITS
 70
4
  9
$HYPERLINKBASE
  1

  9
$STYLESHEET
  1

  9
$XEDIT
290
1
  9
$CEPSNTYPE
380
0
  9
$PSTYLEMODE
290
1
  9
$FINGERPRINTGUID
  2
{2668F4F1-ABEA-4241-A38F-85383BF28E51}
  9
$VERSIONGUID
  2
{A714DA6D-8D70-4596-8C17-6A3005529205}
  9
$EXTNAMES
290
1
  9
$PSVPSCALE
 40
0.0
  9
$OLESTARTUP
290
0
  9
$SORTENTS
280
127
  9
$INDEXCTL
280
0
  9
$HIDETEXT
280
1
  9
$XCLIPFRAME
280
1
  9
$HALOGAP
280
0
  9
$OBSCOLOR
 70
257
  9
$OBSLTYPE
280
0
  9
$INTERSECTIONDISPLAY
280
0
  9
$INTERSECTIONCOLOR
 70
257
  9
$DIMASSOC
280
2
  9
$PROJECTNAME
  1

  9
$CAMERADISPLAY
290
0
  9
$LENSLENGTH
 40
50.0
  9
$CAMERAHEIGHT
 40
0.0
  9
$STEPSPERSEC
 40
24.0
  9
$STEPSIZE
 40
100.0
  9
$3DDWFPREC
 40
2.0
  9
$PSOLWIDTH
 40
0.005
  9
$PSOLHEIGHT
 40
0.08
  9
$LOFTANG1
 40
1.570796326795
  9
$LOFTANG2
 40
1.570796326795
  9
$LOFTMAG1
 40
0.0
  9
$LOFTMAG2
 40
0.0
  9
$LOFTPARAM
 70
7
  9
$LOFTNORMALS
280
1
  9
$LATITUDE
 40
37.795
  9
$LONGITUDE
 40
-122.394
  9
$NORTHDIRECTION
 40
0.0
  9
$TIMEZONE
 70
-8000
  9
$LIGHTGLYPHDISPLAY
280
1
  9
$TILEMODELIGHTSYNCH
280
1
  9
$CMATERIAL
347
20
  9
$SOLIDHIST
280
0
  9
$SHOWHIST
280
1
  9
$DWFFRAME
280
2
  9
$DGNFRAME
280
2
  9
$REALWORLDSCALE
290
1
  9
$INTERFERECOLOR
 62
256
  9
$CSHADOW
280
0
  9
$SHADOWPLANELOCATION
 40
0.0
  0
ENDSEC
  0
SECTION
  2
CLASSES
  0
CLASS
  1
ACDBDICTIONARYWDFLT
  2
AcDbDictionaryWithDefault
  3
ObjectDBX Classes
 90
0
 91
0
280
0
281
0
  0
CLASS
  1
SUN
  2
AcDbSun
  3
SCENEOE
 90
1153
 91
0
280
0
281
0
  0
CLASS
  1
VISUALSTYLE
  2
AcDbVisualStyle
  3
ObjectDBX Classes
 90
4095
 91
0
280
0
281
0
  0
CLASS
  1
MATERIAL
  2
AcDbMaterial
  3
ObjectDBX Classes
 90
1153
 91
0
280
0
281
0
  0
CLASS
  1
SCALE
  2
AcDbScale
  3
ObjectDBX Classes
 90
1153
 91
0
280
0
281
0
  0
CLASS
  1
TABLESTYLE
  2
AcDbTableStyle
  3
ObjectDBX Classes
 90
4095
 91
0
280
0
281
0
  0
CLASS
  1
MLEADERSTYLE
  2
AcDbMLeaderStyle
  3
ACDB_MLEADERSTYLE_CLASS
 90
4095
 91
0
280
0
281
0
  0
CLASS
  1
DICTIONARYVAR
  2
AcDbDictionaryVar
  3
ObjectDBX Classes
 90
0
 91
0
280
0
281
0
  0
CLASS
  1
CELLSTYLEMAP
  2
AcDbCellStyleMap
  3
ObjectDBX Classes
 90
1152
 91
0
280
0
281
0
  0
CLASS
  1
MENTALRAYRENDERSETTINGS
  2
AcDbMentalRayRenderSettings
  3
SCENEOE
 90
1024
 91
0
280
0
281
0
  0
CLASS
  1
ACDBDETAILVIEWSTYLE
  2
AcDbDetailViewStyle
  3
ObjectDBX Classes
 90
1025
 91
0
280
0
281
0
  0
CLASS
  1
ACDBSECTIONVIEWSTYLE
  2
AcDbSectionViewStyle
  3
ObjectDBX Classes
 90
1025
 91
0
280
0
281
0
  0
CLASS
  1
RASTERVARIABLES
  2
AcDbRasterVariables
  3
ISM
 90
0
 91
0
280
0
281
0
  0
CLASS
  1
ACDBPLACEHOLDER
  2
AcDbPlaceHolder
  3
ObjectDBX Classes
 90
0
 91
0
280
0
281
0
  0
CLASS
  1
LAYOUT
  2
AcDbLayout
  3
ObjectDBX Classes
 90
0
 91
0
280
0
281
0
  0
ENDSEC
  0
SECTION
  2
TABLES
  0
TABLE
  2
VPORT
  5
8
330
0
100
AcDbSymbolTable
 70
1
  0
VPORT
  5
23
330
8
100
AcDbSymbolTableRecord
100
AcDbViewportTableRecord
  2
*Active
 70
0
 10
0.0
 20
0.0
 11
1.0
 21
1.0
 12
0.0
 22
0.0
 13
0.0
 23
0.0
 14
0.5
 24
0.5
 15
0.5
 25
0.5
 16
0.0
 26
0.0
 36
1.0
 17
0.0
 27
0.0
 37
0.0
 40
1000.0
 41
1.34
 42
50.0
 43
0.0
 44
0.0
 50
0.0
 51
0.0
 71
0
 72
1000
 73
1
 74
3
 75
0
 76
0
 77
0
 78
0
281
0
 65
0
146
0.0
  0
ENDTAB
  0
TABLE
  2
LTYPE
  5
2
330
0
100
AcDbSymbolTable
 70
3
  0
LTYPE
  5
24
330
2
100
AcDbSymbolTableRecord
100
AcDbLinetypeTableRecord
  2
ByBlock
 70
0
  3

 72
65
 73
0
 40
0.0
  0
LTYPE
  5
25
330
2
100
AcDbSymbolTableRecord
100
AcDbLinetypeTableRecord
  2
ByLayer
 70
0
  3

 72
65
 73
0
 40
0.0
  0
LTYPE
  5
26
330
2
100
AcDbSymbolTableRecord
100
AcDbLinetypeTableRecord
  2
Continuous
 70
0
  3

 72
65
 73
0
 40
0.0
  0
ENDTAB
  0
TABLE
  2
LAYER
  5
1
330
0
100
AcDbSymbolTable
 70
3
  0
LAYER
  5
27
330
1
100
AcDbSymbolTableRecord
100
AcDbLayerTableRecord
  2
0
 70
0
 62
7
  6
Continuous
370
-3
390
13
347
21
  0
LAYER
  5
28
330
1
100
AcDbSymbolTableRecord
100
AcDbLayerTableRecord
  2
Defpoints
 70
0
 62
7
  6
Continuous
290
0
370
-3
390
13
347
21
  0
LAYER
  5
2F
330
1
100
AcDbSymbolTableRecord
100
AcDbLayerTableRecord
  2
K
 70
0
 62
7
  6
Continuous
370
-3
390
13
347
21
  0
ENDTAB
  0
TABLE
  2
STYLE
  5
5
330
0
100
AcDbSymbolTable
 70
1
  0
STYLE
  5
29
330
5
100
AcDbSymbolTableRecord
100
AcDbTextStyleTableRecord
  2
Standard
 70
0
 40
0.0
 41
1.0
 50
0.0
 71
0
 42
2.5
  3
txt
  4

  0
ENDTAB
  0
TABLE
  2
VIEW
  5
7
330
0
100
AcDbSymbolTable
 70
0
  0
ENDTAB
  0
TABLE
  2
UCS
  5
6
330
0
100
AcDbSymbolTable
 70
0
  0
ENDTAB
  0
TABLE
  2
APPID
  5
3
330
0
100
AcDbSymbolTable
 70
3
  0
APPID
  5
2A
330
3
100
AcDbSymbolTableRecord
100
AcDbRegAppTableRecord
  2
ACAD
 70
0
  0
APPID
  5
4B
330
3
100
AcDbSymbolTableRecord
100
AcDbRegAppTableRecord
  2
HATCHBACKGROUNDCOLOR
 70
0
  0
APPID
  5
4C
330
3
100
AcDbSymbolTableRecord
100
AcDbRegAppTableRecord
  2
EZDXF
 70
0
  0
ENDTAB
  0
TABLE
  2
DIMSTYLE
  5
4
330
0
100
AcDbSymbolTable
 70
1
100
AcDbDimStyleTable
  0
DIMSTYLE
105
2B
330
4
100
AcDbSymbolTableRecord
100
AcDbDimStyleTableRecord
  2
Standard
 70
0
 40
1.0
 41
2.5
 42
0.625
 43
3.75
 44
1.25
 45
0.0
 46
0.0
 47
0.0
 48
0.0
 49
2.5
140
2.5
141
2.5
142
0.0
143
0.03937007874
144
1.0
145
0.0
146
1.0
147
0.625
148
0.0
 69
0
 70
0
 71
0
 72
0
 73
0
 74
0
 75
0
 76
0
 77
1
 78
8
 79
3
170
0
171
3
172
1
173
0
174
0
175
0
176
0
177
0
178
0
179
2
271
2
272
2
273
2
274
3
275
0
276
0
277
2
278
44
279
0
280
0
281
0
282
0
283
0
284
8
285
0
286
0
288
0
289
3
290
0
371
-2
372
-2
  0
ENDTAB
  0
TABLE
  2
BLOCK_RECORD
  5
9
330
0
100
AcDbSymbolTable
 70
2
  0
BLOCK_RECORD
  5
17
330
9
100
AcDbSymbolTableRecord
100
AcDbBlockTableRecord
  2
*Model_Space
340
1A
 70
0
280
1
281
0
  0
BLOCK_RECORD
  5
1B
330
9
100
AcDbSymbolTableRecord
100
AcDbBlockTableRecord
  2
*Paper_Space
340
1E
 70
0
280
1
281
0
  0
ENDTAB
  0
ENDSEC
  0
SECTION
  2
BLOCKS
  0
BLOCK
  5
18
330
17
100
AcDbEntity
  8
0
100
AcDbBlockBegin
  2
*Model_Space
 70
0
 10
0.0
 20
0.0
 30
0.0
  3
*Model_Space
  1

  0
ENDBLK
  5
19
330
17
100
AcDbEntity
  8
0
100
AcDbBlockEnd
  0
BLOCK
  5
1C
330
1B
100
AcDbEntity
  8
0
100
AcDbBlockBegin
  2
*Paper_Space
 70
0
 10
0.0
 20
0.0
 30
0.0
  3
*Paper_Space
  1

  0
ENDBLK
  5
1D
330
1B
100
AcDbEntity
  8
0
100
AcDbBlockEnd
  0
ENDSEC
  0
SECTION
  2
ENTITIES
  0
LWPOLYLINE
  5
30
330
17
100
AcDbEntity
  8
K
100
AcDbPolyline
 90
12
 70
1
 10
2.1543197561795235
 20
792.3653882621999
 10
0.0
 20
810.5873428665521
 10
8.575763423351535
 20
820.9497236697686
 10
8.575763423351535
 20
831.3495658125714
 10
40.76279224102952
 20
839.1280977768437
 10
45.0572898158903
 20
844.3172823464674
 10
70.88061500708332
 20
844.3172823464674
 10
90.20433485192292
 20
805.4014576589428
 10
90.20433485192292
 20
789.8657433732287
 10
103.08554716054086
 20
763.924413029484
 10
87.97709523243347
 20
750.8843801153437
 10
2.1543197561795235
 20
792.3653882621999
  0
LWPOLYLINE
  5
31
330
17
100
AcDbEntity
  8
K
100
AcDbPolyline
 90
21
 70
1
 10
1205.7560589498719
 20
546.3587455996383
 10
1195.0355110479613
 20
564.494339133704
 10
1188.5994272961539
 20
567.0866506448485
 10
1175.7186205662088
 20
598.2152669088831
 10
1175.7186205662088
 20
608.5562695945945
 10
1167.1410909332594
 20
618.9207845677416
 10
1169.3031360763014
 20
631.9831406402876
 10
1233.7038193666797
 20
642.3588062815153
 10
1246.5681742023055
 20
631.9958537750387
 10
1255.1513798879557
 20
631.9958537750387
 10
1263.7315917485305
 20
621.6280977768438
 10
1285.144495920987
 20
616.4533126018335
 10
1313.124789521196
 20
598.2481856760567
 10
1295.9072955384945
 20
582.6448317542335
 10
1293.7615696357009
 20
574.8665753566072
 10
1276.560769382464
 20
564.4744252036102
 10
1268.0085227450984
 20
564.4744252036102
 10
1259.4427421080695
 20
554.1241069338672
 10
1225.1570278223553
 20
548.9455355052957
 10
1220.858714022991
 20
543.7517396643974
 10
1205.7560589498719
 20
546.3587455996383
  0
LWPOLYLINE
  5
32
330
17
100
AcDbEntity
  8
K
100
AcDbPolyline
 90
11
 70
1
 10
2475.761678072208
 20
515.2828583197828
 10
2458.5514447881014
 20
541.2774815093181
 10
2460.7523935961135
 20
543.9369613189986
 10
2477.9268300715175
 20
554.3131833562217
 10
2512.1944990243474
 20
559.4890291876388
 10
2516.4886720489158
 20
564.6778215923255
 10
2553.1354412496157
 20
562.0730267226679
 10
2525.159392070357
 20
517.8672823464673
 10
2508.008522745098
 20
517.8672823464673
 10
2503.719116853868
 20
512.6842502278978
 10
2475.761678072208
 20
515.2828583197828
  0
LWPOLYLINE
  5
33
330
17
100
AcDbEntity
  8
K
100
AcDbPolyline
 90
26
 70
1
 10
5189.307253161375
 20
305.569948965078
 10
5185.030586559398
 20
321.07286539724146
 10
5138.01267965324
 20
315.90801956285287
 10
5133.7228084593835
 20
310.7244252036102
 10
5095.01952603358
 20
310.7244252036102
 10
5092.857151835283
 20
323.78876931832735
 10
5101.4329062804945
 20
339.3323242502739
 10
5101.4329062804945
 20
360.04072635548
 10
5105.750712876846
 20
370.47542562999666
 10
5172.292705992654
 20
373.06913235090843
 10
5176.5799513165275
 20
367.8887109178959
 10
5185.05728981589
 20
367.8887109178959
 10
5193.628718387319
 20
378.2458537750387
 10
5202.294237030812
 20
378.2458537750387
 10
5206.579951316527
 20
373.06728234646727
 10
5236.555805688515
 20
373.06728234646727
 10
5257.984377117086
 20
362.7101394893244
 10
5292.275055096749
 20
362.7101394893244
 10
5300.90975668637
 20
357.4933406122622
 10
5303.057853314015
 20
344.5152568202434
 10
5320.204334851923
 20
308.2575927348753
 10
5320.204334851923
 20
245.99228234646728
 10
5251.4329062804945
 20
245.99228234646728
 10
5251.4329062804945
 20
266.7893592505717
 10
5245.025702139366
 20
284.8541153706966
 10
5189.307253161375
 20
305.569948965078
  0
LWPOLYLINE
  5
34
330
17
100
AcDbEntity
  8
K
100
AcDbPolyline
 90
14
 70
1
 10
4814.2987308258735
 20
649.9686558520639
 10
4810.010006470823
 20
670.6974902348089
 10
4797.14719199478
 20
691.4209135573225
 10
4797.14719199478
 20
701.7705553088804
 10
4788.4674277353715
 20
712.2586037889987
 10
4893.751389600413
 20
714.854891964242
 10
4895.923083778064
 20
706.9825005702575
 10
4887.347191994781
 20
681.0761608082511
 10
4887.347191994781
 20
665.5205553088804
 10
4883.061477709066
 20
660.3419838803088
 10
4883.061477709066
 20
639.6126947246256
 10
4872.276756127905
 20
631.7937715782845
 10
4831.491663799417
 20
634.3875603447891
 10
4814.2987308258735
 20
649.9686558520639
  0
LWPOLYLINE
  5
35
330
17
100
AcDbEntity
  8
K
100
AcDbPolyline
 90
15
 70
1
 10
4814.290049137637
 20
515.4223267751921
 10
4814.290049137637
 20
520.5925808126257
 10
4833.617961530514
 20
543.9471416206841
 10
4850.843151897277
 20
549.1505845439772
 10
4883.061477709066
 20
520.6015680607529
 10
4883.061477709066
 20
499.87829509834
 10
4887.365649374356
 20
494.67742100278076
 10
4880.892960806931
 20
481.6421454156065
 10
4859.412948545658
 20
471.26013948932444
 10
4842.282459916591
 20
471.26013948932444
 10
4829.417581379487
 20
460.89676511221313
 10
4814.33659119526
 20
463.50003127496666
 10
4792.846061065669
 20
489.46775518155647
 10
4797.163384587929
 20
499.9012870270195
 10
4814.290049137637
 20
515.4223267751921
  0
LWPOLYLINE
  5
36
330
17
100
AcDbEntity
  8
K
100
AcDbPolyline
 90
22
 70
1
 10
4696.483769485218
 20
543.7713116373935
 10
4683.64049550154
 20
554.1172823464673
 10
4675.069066930111
 20
554.1172823464673
 10
4662.211924072968
 20
564.4744252036102
 10
4653.59305420401
 20
564.4744252036102
 10
4647.14013532705
 20
598.2626254343567
 10
4653.628718387319
 20
606.1029966321815
 10
4670.783352644397
 20
606.1029966321815
 10
4683.63477851345
 20
616.4555341378084
 10
4722.195101701914
 20
621.6326145658891
 10
4726.5058453713345
 20
626.8414298331048
 10
4747.984377117086
 20
616.4601394893244
 10
4769.447101160263
 20
616.4601394893244
 10
4780.204334851923
 20
598.2624858275991
 10
4780.204334851923
 20
587.8978692126229
 10
4788.79307036865
 20
567.141758380533
 10
4756.5756851447595
 20
533.4029966321816
 10
4748.028321535455
 20
533.4029966321816
 10
4743.748710799401
 20
523.0606040200512
 10
4732.907401802511
 20
520.4406210124695
 10
4726.461556318857
 20
533.4218376114941
 10
4696.483769485218
 20
543.7713116373935
  0
LWPOLYLINE
  5
37
330
17
100
AcDbEntity
  8
K
100
AcDbPolyline
 90
29
 70
1
 10
4647.14719199478
 20
380.69912673745176
 10
4627.914432673033
 20
403.9387109178959
 10
4593.608919596962
 20
403.9387109178959
 10
4589.323205311247
 20
414.2958537750387
 10
4580.885464392598
 20
414.2958537750387
 10
4576.599750106884
 20
403.9387109178959
 10
4559.3430041016045
 20
403.9387109178959
 10
4544.260245480915
 20
422.16371091789586
 10
4561.449257226578
 20
442.93376677723893
 10
4576.574344200603
 20
471.65342597196457
 10
4580.895604026103
 20
450.7673368153795
 10
4591.438650003883
 20
453.315239593343
 10
4593.583004317597
 20
481.81728234646727
 10
4645.171178678313
 20
481.81728234646727
 10
4649.456892964026
 20
471.46013948932443
 10
4658.008522745098
 20
471.46013948932443
 10
4662.299668769234
 20
466.27500471016026
 10
4715.918620566208
 20
458.50025669959905
 10
4715.918620566208
 20
442.9140093840542
 10
4737.34719199478
 20
417.02115224119717
 10
4737.34719199478
 20
406.5919838803088
 10
4733.061477709065
 20
401.41341245173743
 10
4733.061477709065
 20
385.8879547283749
 10
4715.918620566208
 20
354.81652615694634
 10
4715.918620566208
 20
344.3851394893245
 10
4664.290049137638
 20
344.3851394893245
 10
4664.290049137638
 20
359.97652363202826
 10
4647.14719199478
 20
375.5122379177425
 10
4647.14719199478
 20
380.69912673745176
  0
LWPOLYLINE
  5
38
330
17
100
AcDbEntity
  8
K
100
AcDbPolyline
 90
11
 70
1
 10
4430.790757464239
 20
631.7958537750386
 10
4413.589957211002
 20
642.1880039280359
 10
4411.419399140294
 20
650.0562769343487
 10
4439.343824818744
 20
673.4161330307439
 10
4460.762792241029
 20
678.5923834911296
 10
4465.05728981589
 20
683.781568060753
 10
4482.361109283866
 20
683.781568060753
 10
4475.915613749361
 20
634.4556230675238
 10
4469.435612510983
 20
621.4056205735682
 10
4447.938578301044
 20
631.7958537750386
 10
4430.790757464239
 20
631.7958537750386
  0
LWPOLYLINE
  5
39
330
17
100
AcDbEntity
  8
K
100
AcDbPolyline
 90
10
 70
1
 10
6365.057289815891
 20
228.06728234646732
 10
6369.343004101605
 20
233.24585377503868
 10
6386.5799513165275
 20
233.24585377503868
 10
6393.0819253586305
 20
225.3893018074968
 10
6375.901644187144
 20
194.25004218417703
 10
6369.416136091303
 20
186.4133865683689
 10
6302.616492619316
 20
220.26213063952335
 10
6326.48170433632
 20
222.88368798722465
 10
6330.771575530176
 20
228.06728234646732
 10
6365.057289815891
 20
228.06728234646732
  0
LWPOLYLINE
  5
3A
330
17
100
AcDbEntity
  8
K
100
AcDbPolyline
 90
26
 70
1
 10
6135.688816909486
 20
380.73513948932447
 10
6131.4329062804945
 20
385.87769816602315
 10
6131.4329062804945
 20
401.4082063958828
 10
6105.7154751379785
 20
427.3042308102216
 10
6110.006082056012
 20
484.3335477624159
 10
6116.559718354866
 20
497.5318430864967
 10
6120.894769593495
 20
481.81728234646727
 10
6129.308620910775
 20
481.81728234646727
 10
6133.5999941784
 20
502.55891980665325
 10
6168.019279601905
 20
492.1614273349697
 10
6176.588734605673
 20
481.80666920541523
 10
6198.0041759623155
 20
476.6312708775601
 10
6208.775763423351
 20
468.821869968309
 10
6208.775763423351
 20
422.12769816602315
 10
6204.490049137637
 20
416.94912673745176
 10
6204.490049137637
 20
406.68441392295495
 10
6213.09198826006
 20
401.48740903649093
 10
6200.204334851923
 20
375.53310703399177
 10
6200.204334851923
 20
365.16341245173743
 10
6191.624845299828
 20
354.79652924295624
 10
6183.0534167283995
 20
318.54652924295624
 10
6176.572246874171
 20
310.71511566909606
 10
6135.718620566209
 20
318.5095575304834
 10
6135.718620566209
 20
344.4690179511083
 10
6127.134864674957
 20
370.39911387260037
 10
6135.688816909486
 20
380.73513948932447
  0
LWPOLYLINE
  5
3B
330
17
100
AcDbEntity
  8
K
100
AcDbPolyline
 90
8
 70
1
 10
6022.182633095713
 20
414.47295808936724
 10
6052.238742055686
 20
445.6024995121966
 10
6065.152905638513
 20
435.19942329269725
 10
6088.838457860205
 20
427.39395721963945
 10
6052.293373640393
 20
378.0401792659227
 10
6005.014363720829
 20
383.2337068707232
 10
6002.854992927792
 20
401.498384828495
 10
6022.182633095713
 20
414.47295808936724
  0
LWPOLYLINE
  5
3C
330
17
100
AcDbEntity
  8
K
100
AcDbPolyline
 90
11
 70
1
 10
5990.009025349356
 20
272.01804665674945
 10
6009.328054696763
 20
310.9244252036102
 10
6022.294237030812
 20
310.9244252036102
 10
6030.865665602241
 20
300.5672823464673
 10
6039.422485266286
 20
300.5672823464673
 10
6050.204334851923
 20
292.75044139688043
 10
6050.204334851923
 20
199.27617366342085
 10
6037.149795899909
 20
209.79233004143202
 10
6035.009432538719
 20
248.58641596299543
 10
5985.697105314332
 20
251.1770998207984
 10
5990.009025349356
 20
272.01804665674945
  0
LWPOLYLINE
  5
3D
330
17
100
AcDbEntity
  8
K
100
AcDbPolyline
 90
7
 70
1
 10
5915.149477568996
 20
300.5695809818767
 10
5943.065812560989
 20
266.83734286655215
 10
5940.901714366007
 20
248.53267896732987
 10
5885.026838219869
 20
274.50016948396416
 10
5880.737779969085
 20
284.8653935900273
 10
5861.226416396668
 20
297.9632996918808
 10
5915.149477568996
 20
300.5695809818767
  0
LWPOLYLINE
  5
3E
330
17
100
AcDbEntity
  8
K
100
AcDbPolyline
 90
10
 70
1
 10
5807.914432673033
 20
424.6529966321816
 10
5801.4329062804945
 20
432.484841023166
 10
5801.4329062804945
 20
468.81960486115105
 10
5837.927024909273
 20
497.3529966321816
 10
5850.851056694857
 20
497.3529966321816
 10
5883.096770842411
 20
473.9748538752051
 10
5853.061477709066
 20
427.312880614472
 10
5853.061477709066
 20
416.84689485855273
 10
5829.37399646495
 20
424.6529966321816
 10
5807.914432673033
 20
424.6529966321816
  0
LWPOLYLINE
  5
3F
330
17
100
AcDbEntity
  8
K
100
AcDbPolyline
 90
10
 70
1
 10
7581.432906280493
 20
116.65534297045632
 10
7592.198760459913
 20
134.86757962397385
 10
7613.712215997858
 20
129.66849453563697
 10
7637.347191994781
 20
116.68716302217675
 10
7637.347191994781
 20
85.53310703399175
 10
7624.452043578511
 20
59.56371091789586
 10
7620.052280607827
 20
59.56371091789586
 10
7596.458138198808
 20
93.25686125198673
 10
7581.432906280493
 20
106.2250673719608
 10
7581.432906280493
 20
116.65534297045632
  0
LWPOLYLINE
  5
40
330
17
100
AcDbEntity
  8
K
100
AcDbPolyline
 90
59
 70
1
 10
7356.593782673367
 20
176.0982809502699
 10
7348.008522745098
 20
165.72442520361017
 10
7339.437094173669
 20
165.72442520361017
 10
7330.86566560224
 20
155.36728234646733
 10
7322.294237030811
 20
155.36728234646733
 10
7317.9919159055025
 20
150.16864432005124
 10
7311.432906280494
 20
152.81046764123528
 10
7311.432906280494
 20
194.34258081262564
 10
7324.299348114723
 20
209.8895313623201
 10
7335.023597456934
 20
248.76493522783025
 10
7378.042566500569
 20
259.16118608004234
 10
7384.484298901557
 20
220.24238615741262
 10
7390.86566560224
 20
212.531568060753
 10
7407.989340811034
 20
212.531568060753
 10
7416.458340363998
 20
207.414880830838
 10
7418.58151365943
 20
220.24238615741262
 10
7427.14719199478
 20
230.59258081262564
 10
7427.14719199478
 20
240.93616416344685
 10
7444.290049137636
 20
277.186164163447
 10
7444.290049137636
 20
287.5568665269115
 10
7455.05728981589
 20
300.5672823464673
 10
7463.628718387318
 20
300.5672823464673
 10
7467.921384252283
 20
305.75425359996575
 10
7483.048528916242
 20
303.1430202948774
 10
7487.3436573496665
 20
277.1932860096078
 10
7498.037331418255
 20
253.9345449104261
 10
7519.351420402041
 20
243.63273523492933
 10
7553.637134687755
 20
300.59702094921505
 10
7596.603619348961
 20
279.82988669629935
 10
7607.357068751827
 20
261.63863478978544
 10
7600.889256203316
 20
243.40299663218164
 10
7592.294237030813
 20
243.40299663218164
 10
7588.008522745098
 20
238.22442520361017
 10
7566.579951316526
 20
238.22442520361017
 10
7562.294237030812
 20
233.0458537750387
 10
7540.851056694858
 20
233.0458537750387
 10
7530.204334851923
 20
225.32698043891116
 10
7530.204334851923
 20
194.3629853515264
 10
7538.775763423351
 20
189.1844139229549
 10
7538.775763423351
 20
178.74509758551778
 10
7530.198753954024
 20
163.1992679223626
 10
7523.755708396366
 20
134.65299663218164
 10
7489.365692378665
 20
134.65299663218164
 10
7474.233948515757
 20
142.4890782754734
 10
7478.575763423351
 20
147.7354379554828
 10
7478.575763423351
 20
173.62829509833986
 10
7482.861477709066
 20
178.80686652691134
 10
7482.861477709066
 20
189.08014191738906
 10
7470.016505508787
 20
199.42748063428047
 10
7467.8896088435395
 20
207.13748104580128
 10
7427.338667548727
 20
199.4007882987647
 10
7420.908406893349
 20
139.831568060753
 10
7399.343004101604
 20
139.831568060753
 10
7395.090214999027
 20
144.9703548930332
 10
7382.264243168538
 20
134.6383220295829
 10
7375.718620566208
 20
137.27475335552094
 10
7375.718620566208
 20
163.21793067914334
 10
7369.330665745461
 20
181.22841440986278
 10
7356.593782673367
 20
176.0982809502699
  0
LWPOLYLINE
  5
41
330
17
100
AcDbEntity
  8
K
100
AcDbPolyline
 90
10
 70
1
 10
7380.004334851923
 20
375.5107816576751
 10
7380.004334851923
 20
401.4713124422008
 10
7390.754534479499
 20
424.85299663218154
 10
7408.014533906543
 20
424.85299663218154
 10
7427.338305416446
 20
396.31464889302026
 10
7440.204334851923
 20
354.85744293426046
 10
7440.204334851923
 20
344.3236905845295
 10
7403.652260205832
 20
362.51013948932444
 10
7395.067147846978
 20
362.51013948932444
 10
7380.004334851923
 20
375.5107816576751
  0
LWPOLYLINE
  5
42
330
17
100
AcDbEntity
  8
K
100
AcDbPolyline
 90
41
 70
1
 10
7086.485861244461
 20
233.0458537750387
 10
7082.200146958747
 20
238.22442520361017
 10
7073.641310623559
 20
238.22442520361017
 10
7037.169503333208
 20
266.7403725703301
 10
7028.5757634233505
 20
282.31652615694634
 10
7028.5757634233505
 20
292.66341245173743
 10
7020.004334851922
 20
303.02055530888026
 10
7020.004334851922
 20
334.15145765894283
 10
7039.332347035652
 20
373.0759266400654
 10
7058.775763423351
 20
370.46546795838367
 10
7058.775763423351
 20
328.96663401379135
 10
7071.621234868409
 20
292.7495409117514
 10
7078.0246198304385
 20
285.0121174159661
 10
7099.4013447831685
 20
274.68003368881335
 10
7110.004334851922
 20
277.2424229554289
 10
7110.004334851922
 20
287.4848410231661
 10
7105.7125195046865
 20
292.67078456774163
 10
7107.876668890723
 20
305.7458537750387
 10
7116.579951316527
 20
305.7458537750387
 10
7120.86566560224
 20
300.5672823464673
 10
7146.579951316526
 20
300.5672823464673
 10
7150.818620566209
 20
295.44555700310195
 10
7155.050876909545
 20
300.55953341796805
 10
7185.050876909545
 20
305.7381048465394
 10
7189.343004101604
 20
310.9244252036102
 10
7202.200146958747
 20
310.9244252036102
 10
7206.485861244461
 20
316.10299663218154
 10
7227.993913837714
 20
316.10299663218154
 10
7249.422485266285
 20
300.5672823464673
 10
7262.294237030812
 20
300.5672823464673
 10
7273.061477709065
 20
287.5568665269115
 10
7273.061477709065
 20
266.75015076997965
 10
7264.466671295185
 20
261.55745522826015
 10
7258.023472149939
 20
248.58156806075303
 10
7223.637192231063
 20
248.58156806075303
 10
7206.494335088206
 20
264.1172823464674
 10
7168.021363324908
 20
264.1172823464674
 10
7144.449934753479
 20
220.0994252036101
 10
7135.756626125333
 20
220.0994252036101
 10
7129.328054696762
 20
233.0458537750387
 10
7086.485861244461
 20
233.0458537750387
  0
LWPOLYLINE
  5
43
330
17
100
AcDbEntity
  8
K
100
AcDbPolyline
 90
4
 70
1
 10
7088.90128397541
 20
360.0834035627255
 10
7073.575763423351
 20
346.85601975291337
 10
7073.575763423351
 20
362.72888032468774
 10
7088.90128397541
 20
360.0834035627255
  0
LWPOLYLINE
  5
44
330
17
100
AcDbEntity
  8
K
100
AcDbPolyline
 90
7
 70
1
 10
8866.55558725004
 20
0.0
 10
8838.575763423352
 20
7.802066259365331
 10
8838.575763423352
 20
18.257026727914962
 10
8849.327873923161
 20
41.64286706499909
 10
8890.245492797807
 20
39.040650075164166
 10
8879.474036398695
 20
10.406528480860072
 10
8866.55558725004
 20
0.0
  0
LWPOLYLINE
  5
45
330
17
100
AcDbEntity
  8
K
100
AcDbPolyline
 90
16
 70
1
 10
8810.865665602241
 20
119.11728234646732
 10
8763.611677336643
 20
119.11728234646732
 10
8752.853649801636
 20
142.51599223510678
 10
8759.315840322686
 20
160.73577939862312
 10
8793.62307045292
 20
165.91760061621028
 10
8797.914432673035
 20
171.10299663218163
 10
8815.037491025534
 20
171.10299663218163
 10
8819.323205311248
 20
181.46013948932446
 10
8832.291246000414
 20
181.46013948932446
 10
8877.339544994002
 20
132.21090785149323
 10
8881.658212738846
 20
111.33734708474286
 10
8853.625184421082
 20
113.94298112709905
 10
8849.343004101605
 20
119.11728234646732
 10
8819.343004101604
 20
119.11728234646732
 10
8815.104334851923
 20
124.23900768983285
 10
8810.865665602241
 20
119.11728234646732
  0
LWPOLYLINE
  5
46
330
17
100
AcDbEntity
  8
K
100
AcDbPolyline
 90
11
 70
1
 10
8718.575763423352
 20
204.63795472837495
 10
8709.997107925314
 20
220.18676781856692
 10
8712.171042967495
 20
228.06728234646732
 10
8750.865665602241
 20
228.06728234646732
 10
8755.1577927943
 20
222.8809619893964
 10
8770.204334851924
 20
220.2836422294496
 10
8770.204334851924
 20
209.810750338801
 10
8746.572190477693
 20
176.06333204681343
 10
8722.886614226829
 20
183.86880603857566
 10
8718.575763423352
 20
194.28669548031172
 10
8718.575763423352
 20
204.63795472837495
  0
LWPOLYLINE
  5
47
330
17
100
AcDbEntity
  8
K
100
AcDbPolyline
 90
9
 70
1
 10
8710.204334851924
 20
127.00501206976575
 10
8710.204334851924
 20
90.69912673745179
 10
8703.715104017028
 20
82.85797281195312
 10
8662.85737026265
 20
90.65319833088026
 10
8665.00908458158
 20
134.85299663218163
 10
8673.628718387321
 20
134.85299663218163
 10
8677.91812427855
 20
140.03602875075103
 10
8705.887952648007
 20
137.43626906256432
 10
8710.204334851924
 20
127.00501206976575
  0
LWPOLYLINE
  5
48
330
17
100
AcDbEntity
  8
K
100
AcDbPolyline
 90
11
 70
1
 10
8620.200679979213
 20
116.69699772463632
 10
8622.349865515862
 20
77.7430098728636
 10
8609.43532679189
 20
67.33963145633132
 10
8588.017306034246
 20
62.163609773233595
 10
8583.715856880135
 20
56.96602537868317
 10
8568.622305480974
 20
59.57145984639523
 10
8564.290049137639
 20
64.80626959459468
 10
8564.290049137639
 20
85.59258081262567
 10
8570.752393596114
 20
93.40124703328428
 10
8613.66679849111
 20
119.32869999067772
 10
8620.200679979213
 20
116.69699772463632
  0
LWPOLYLINE
  5
49
330
17
100
AcDbEntity
  8
K
100
AcDbPolyline
 90
23
 70
1
 10
8444.282358875156
 20
256.46376218118905
 10
8442.163947129377
 20
264.1430047596418
 10
8429.329172744763
 20
269.3125666645556
 10
8418.575763423352
 20
282.3062695945946
 10
8418.575763423352
 20
308.2523482995056
 10
8425.033699214815
 20
326.4601394893245
 10
8566.596992367202
 20
326.4601394893245
 10
8588.028681355992
 20
279.84621593870804
 10
8611.645289022397
 20
277.2519673692926
 10
8605.19211783974
 20
227.86728234646733
 10
8583.645311200871
 20
227.86728234646733
 10
8564.307726798377
 20
240.84853113517866
 10
8553.602327360446
 20
269.30705130767683
 10
8523.715856880133
 20
274.4660253786831
 10
8519.443507080014
 20
269.30360270353805
 10
8489.443507080015
 20
264.12503127496666
 10
8483.061477709067
 20
256.41341245173743
 10
8483.061477709067
 20
240.8776981660232
 10
8476.587366450536
 20
233.05481372863233
 10
8450.855430536169
 20
227.87268774587784
 10
8433.692262244916
 20
217.50327356991326
 10
8422.806619928477
 20
220.13397046305315
 10
8444.282358875156
 20
256.46376218118905
  0
LWPOLYLINE
  5
4A
330
17
100
AcDbEntity
  8
K
100
AcDbPolyline
 90
10
 70
1
 10
8532.200146958749
 20
191.8172823464673
 10
8566.579951316528
 20
191.8172823464673
 10
8581.632906280494
 20
173.62829509833986
 10
8581.632906280494
 20
152.85812405174025
 10
8577.333834611527
 20
142.46870085173478
 10
8570.853301701913
 20
134.6380569192834
 10
8536.475104387657
 20
145.02313735796477
 10
8521.446263663747
 20
163.18298656602045
 10
8517.131775351383
 20
173.60966665423524
 10
8532.200146958749
 20
191.8172823464673
  0
ENDSEC
  0
SECTION
  2
OBJECTS
  0
DICTIONARY
  5
A
330
0
100
AcDbDictionary
281
1
  3
ACAD_COLOR
350
B
  3
ACAD_GROUP
350
C
  3
ACAD_LAYOUT
350
D
  3
ACAD_MATERIAL
350
E
  3
ACAD_MLEADERSTYLE
350
F
  3
ACAD_MLINESTYLE
350
10
  3
ACAD_PLOTSETTINGS
350
11
  3
ACAD_PLOTSTYLENAME
350
12
  3
ACAD_SCALELIST
350
14
  3
ACAD_TABLESTYLE
350
15
  3
ACAD_VISUALSTYLE
350
16
  3
EZDXF_META
350
2D
  0
DICTIONARY
  5
B
330
A
100
AcDbDictionary
281
1
  0
DICTIONARY
  5
C
330
A
100
AcDbDictionary
281
1
  0
DICTIONARY
  5
D
330
A
100
AcDbDictionary
281
1
  3
Model
350
1A
  3
Layout1
350
1E
  0
DICTIONARY
  5
E
330
A
100
AcDbDictionary
281
1
  3
ByBlock
350
1F
  3
ByLayer
350
20
  3
Global
350
21
  0
DICTIONARY
  5
F
330
A
100
AcDbDictionary
281
1
  3
Standard
350
2C
  0
DICTIONARY
  5
10
330
A
100
AcDbDictionary
281
1
  3
Standard
350
22
  0
DICTIONARY
  5
11
330
A
100
AcDbDictionary
281
1
  0
ACDBDICTIONARYWDFLT
  5
12
330
A
100
AcDbDictionary
281
1
  3
Normal
350
13
100
AcDbDictionaryWithDefault
340
13
  0
ACDBPLACEHOLDER
  5
13
330
12
  0
DICTIONARY
  5
14
330
A
100
AcDbDictionary
281
1
  0
DICTIONARY
  5
15
330
A
100
AcDbDictionary
281
1
  0
DICTIONARY
  5
16
330
A
100
AcDbDictionary
281
1
  0
LAYOUT
  5
1A
330
D
100
AcDbPlotSettings
  1

  4
A3
  6

 40
7.5
 41
20.0
 42
7.5
 43
20.0
 44
420.0
 45
297.0
 46
0.0
 47
0.0
 48
0.0
 49
0.0
140
0.0
141
0.0
142
1.0
143
1.0
 70
1024
 72
1
 73
0
 74
5
  7

 75
16
 76
0
 77
2
 78
300
147
1.0
148
0.0
149
0.0
100
AcDbLayout
  1
Model
 70
1
 71
0
 10
0.0
 20
0.0
 11
420.0
 21
297.0
 12
0.0
 22
0.0
 32
0.0
 14
1e+20
 24
1e+20
 34
1e+20
 15
-1e+20
 25
-1e+20
 35
-1e+20
146
0.0
 13
0.0
 23
0.0
 33
0.0
 16
1.0
 26
0.0
 36
0.0
 17
0.0
 27
1.0
 37
0.0
 76
1
330
17
  0
LAYOUT
  5
1E
330
D
100
AcDbPlotSettings
  1

  4
A3
  6

 40
7.5
 41
20.0
 42
7.5
 43
20.0
 44
420.0
 45
297.0
 46
0.0
 47
0.0
 48
0.0
 49
0.0
140
0.0
141
0.0
142
1.0
143
1.0
 70
0
 72
1
 73
0
 74
5
  7

 75
16
 76
0
 77
2
 78
300
147
1.0
148
0.0
149
0.0
100
AcDbLayout
  1
Layout1
 70
1
 71
1
 10
0.0
 20
0.0
 11
420.0
 21
297.0
 12
0.0
 22
0.0
 32
0.0
 14
1e+20
 24
1e+20
 34
1e+20
 15
-1e+20
 25
-1e+20
 35
-1e+20
146
0.0
 13
0.0
 23
0.0
 33
0.0
 16
1.0
 26
0.0
 36
0.0
 17
0.0
 27
1.0
 37
0.0
 76
1
330
1B
  0
MATERIAL
  5
1F
102
{ACAD_REACTORS
330
E
102
}
330
E
100
AcDbMaterial
  1
ByBlock
  2

 70
0
 40
1.0
 71
1
 41
1.0
 91
-1023410177
 42
1.0
 72
1
  3

 73
1
 74
1
 75
1
 44
0.5
 73
0
 45
1.0
 46
1.0
 77
1
  4

 78
1
 79
1
170
1
 48
1.0
171
1
  6

172
1
173
1
174
1
140
1.0
141
1.0
175
1
  7

176
1
177
1
178
1
143
1.0
179
1
  8

270
1
271
1
272
1
145
1.0
146
1.0
273
1
  9

274
1
275
1
276
1
 42
1.0
 72
1
  3

 73
1
 74
1
 75
1
 94
63
  0
MATERIAL
  5
20
102
{ACAD_REACTORS
330
E
102
}
330
E
100
AcDbMaterial
  1
ByLayer
  2

 70
0
 40
1.0
 71
1
 41
1.0
 91
-1023410177
 42
1.0
 72
1
  3

 73
1
 74
1
 75
1
 44
0.5
 73
0
 45
1.0
 46
1.0
 77
1
  4

 78
1
 79
1
170
1
 48
1.0
171
1
  6

172
1
173
1
174
1
140
1.0
141
1.0
175
1
  7

176
1
177
1
178
1
143
1.0
179
1
  8

270
1
271
1
272
1
145
1.0
146
1.0
273
1
  9

274
1
275
1
276
1
 42
1.0
 72
1
  3

 73
1
 74
1
 75
1
 94
63
  0
MATERIAL
  5
21
102
{ACAD_REACTORS
330
E
102
}
330
E
100
AcDbMaterial
  1
Global
  2

 70
0
 40
1.0
 71
1
 41
1.0
 91
-1023410177
 42
1.0
 72
1
  3

 73
1
 74
1
 75
1
 44
0.5
 73
0
 45
1.0
 46
1.0
 77
1
  4

 78
1
 79
1
170
1
 48
1.0
171
1
  6

172
1
173
1
174
1
140
1.0
141
1.0
175
1
  7

176
1
177
1
178
1
143
1.0
179
1
  8

270
1
271
1
272
1
145
1.0
146
1.0
273
1
  9

274
1
275
1
276
1
 42
1.0
 72
1
  3

 73
1
 74
1
 75
1
 94
63
  0
MLINESTYLE
  5
22
102
{ACAD_REACTORS
330
10
102
}
330
10
100
AcDbMlineStyle
  2
Standard
 70
0
  3

 62
256
 51
90.0
 52
90.0
 71
2
 49
0.5
 62
256
  6
BYLAYER
 49
-0.5
 62
256
  6
BYLAYER
  0
MLEADERSTYLE
  5
2C
102
{ACAD_REACTORS
330
F
102
}
330
F
100
AcDbMLeaderStyle
179
2
170
2
171
1
172
0
 90
2
 40
0.0
 41
0.0
173
1
 91
-1056964608
 92
-2
290
1
 42
2.0
291
1
 43
8.0
  3
Standard
 44
4.0
300

342
29
174
1
175
1
176
0
178
1
 93
-1056964608
 45
4.0
292
0
297
0
 46
4.0
 94
-1056964608
 47
1.0
 49
1.0
140
1.0
294
1
141
0.0
177
0
142
1.0
295
0
296
0
143
3.75
271
0
272
9
273
9
  0
DICTIONARY
  5
2D
330
A
100
AcDbDictionary
280
1
281
1
  3
CREATED_BY_EZDXF
350
2E
  3
WRITTEN_BY_EZDXF
350
4D
  0
DICTIONARYVAR
  5
2E
330
2D
100
DictionaryVariables
280
0
  1
1.4.4 @ 2026-07-08T12:04:30.380571+00:00
  0
DICTIONARYVAR
  5
4D
330
2D
100
DictionaryVariables
280
0
  1
1.4.4 @ 2026-07-08T12:04:30.384929+00:00
  0
ENDSEC
  0
EOF
