  0
SECTION
  2
HEADER
  9
$ACADVER
  1
AC1027
  9
$ACADMAINTVER
 70
105
  9
$DWGCODEPAGE
  3
ANSI_1252
  9
$LASTSAVEDBY
  1
ezdxf
  9
$REQUIREDVERSIONS
160
0
  9
$INSBASE
 10
0.0
 20
0.0
 30
0.0
  9
$EXTMIN
 10
1e+20
 20
1e+20
 30
1e+20
  9
$EXTMAX
 10
-1e+20
 20
-1e+20
 30
-1e+20
  9
$LIMMIN
 10
0.0
 20
0.0
  9
$LIMMAX
 10
420.0
 20
297.0
  9
$ORTHOMODE
 70
0
  9
$REGENMODE
 70
1
  9
$FILLMODE
 70
1
  9
$QTEXTMODE
 70
0
  9
$MIRRTEXT
 70
1
  9
$LTSCALE
 40
1.0
  9
$ATTMODE
 70
1
  9
$TEXTSIZE
 40
2.5
  9
$TRACEWID
 40
1.0
  9
$TEXTSTYLE
  7
Standard
  9
$CLAYER
  8
0
  9
$CELTYPE
  6
ByLayer
  9
$CECOLOR
 62
256
  9
$CELTSCALE
 40
1.0
  9
$DISPSILH
 70
0
  9
$DIMSCALE
 40
1.0
  9
$DIMASZ
 40
2.5
  9
$DIMEXO
 40
0.625
  9
$DIMDLI
 40
3.75
  9
$DIMRND
 40
0.0
  9
$DIMDLE
 40
0.0
  9
$DIMEXE
 40
1.25
  9
$DIMTP
 40
0.0
  9
$DIMTM
 40
0.0
  9
$DIMTXT
 40
2.5
  9
$DIMCEN
 40
2.5
  9
$DIMTSZ
 40
0.0
  9
$DIMTOL
 70
0
  9
$DIMLIM
 70
0
  9
$DIMTIH
 70
0
  9
$DIMTOH
 70
0
  9
$DIMSE1
 70
0
  9
$DIMSE2
 70
0
  9
$DIMTAD
 70
1
  9
$DIMZIN
 70
8
  9
$DIMBLK
  1

  9
$DIMASO
 70
1
  9
$DIMSHO
 70
1
  9
$DIMPOST
  1

  9
$DIMAPOST
  1

  9
$DIMALT
 70
0
  9
$DIMALTD
 70
3
  9
$DIMALTF
 40
0.03937007874
  9
$DIMLFAC
 40
1.0
  9
$DIMTOFL
 70
1
  9
$DIMTVP
 40
0.0
  9
$DIMTIX
 70
0
  9
$DIMSOXD
 70
0
  9
$DIMSAH
 70
0
  9
$DIMBLK1
  1

  9
$DIMBLK2
  1

  9
$DIMSTYLE
  2
ISO-25
  9
$DIMCLRD
 70
0
  9
$DIMCLRE
 70
0
  9
$DIMCLRT
 70
0
  9
$DIMTFAC
 40
1.0
  9
$DIMGAP
 40
0.625
  9
$DIMJUST
 70
0
  9
$DIMSD1
 70
0
  9
$DIMSD2
 70
0
  9
$DIMTOLJ
 70
0
  9
$DIMTZIN
 70
8
  9
$DIMALTZ
 70
0
  9
$DIMALTTZ
 70
0
  9
$DIMUPT
 70
0
  9
$DIMDEC
 70
2
  9
$DIMTDEC
 70
2
  9
$DIMALTU
 70
2
  9
$DIMALTTD
 70
3
  9
$DIMTXSTY
  7
Standard
  9
$DIMAUNIT
 70
0
  9
$DIMADEC
 70
0
  9
$DIMALTRND
 40
0.0
  9
$DIMAZIN
 70
0
  9
$DIMDSEP
 70
44
  9
$DIMATFIT
 70
3
  9
$DIMFRAC
 70
0
  9
$DIMLDRBLK
  1

  9
$DIMLUNIT
 70
2
  9
$DIMLWD
 70
-2
  9
$DIMLWE
 70
-2
  9
$DIMTMOVE
 70
0
  9
$DIMFXL
 40
1.0
  9
$DIMFXLON
 70
0
  9
$DIMJOGANG
 40
0.785398163397
  9
$DIMTFILL
 70
0
  9
$DIMTFILLCLR
 70
0
  9
$DIMARCSYM
 70
0
  9
$DIMLTYPE
  6

  9
$DIMLTEX1
  6

  9
$DIMLTEX2
  6

  9
$DIMTXTDIRECTION
 70
0
  9
$LUNITS
 70
2
  9
$LUPREC
 70
4
  9
$SKETCHINC
 40
1.0
  9
$FILLETRAD
 40
10.0
  9
$AUNITS
 70
0
  9
$AUPREC
 70
2
  9
$MENU
  1
.
  9
$ELEVATION
 40
0.0
  9
$PELEVATION
 40
0.0
  9
$THICKNESS
 40
0.0
  9
$LIMCHECK
 70
0
  9
$CHAMFERA
 40
0.0
  9
$CHAMFERB
 40
0.0
  9
$CHAMFERC
 40
0.0
  9
$CHAMFERD
 40
0.0
  9
$SKPOLY
 70
0
  9
$TDCREATE
 40
2461243.8295486113
  9
$TDUCREATE
 40
2458532.153996898
  9
$TDUPDATE
 40
2461243.8295486113
  9
$TDUUPDATE
 40
2458532.1544311
  9
$TDINDWG
 40
0.0
  9
$TDUSRTIMER
 40
0.0
  9
$USRTIMER
 70
1
  9
$ANGBASE
 50
0.0
  9
$ANGDIR
 70
0
  9
$PDMODE
 70
0
  9
$PDSIZE
 40
0.0
  9
$PLINEWID
 40
0.0
  9
$SPLFRAME
 70
0
  9
$SPLINETYPE
 70
6
  9
$SPLINESEGS
 70
8
  9
$HANDSEED
  5
4D
  9
$SURFTAB1
 70
6
  9
$SURFTAB2
 70
6
  9
$SURFTYPE
 70
6
  9
$SURFU
 70
6
  9
$SURFV
 70
6
  9
$UCSBASE
  2

  9
$UCSNAME
  2

  9
$UCSORG
 10
0.0
 20
0.0
 30
0.0
  9
$UCSXDIR
 10
1.0
 20
0.0
 30
0.0
  9
$UCSYDIR
 10
0.0
 20
1.0
 30
0.0
  9
$UCSORTHOREF
  2

  9
$UCSORTHOVIEW
 70
0
  9
$UCSORGTOP
 10
0.0
 20
0.0
 30
0.0
  9
$UCSORGBOTTOM
 10
0.0
 20
0.0
 30
0.0
  9
$UCSORGLEFT
 10
0.0
 20
0.0
 30
0.0
  9
$UCSORGRIGHT
 10
0.0
 20
0.0
 30
0.0
  9
$UCSORGFRONT
 10
0.0
 20
0.0
 30
0.0
  9
$UCSORGBACK
 10
0.0
 20
0.0
 30
0.0
  9
$PUCSBASE
  2

  9
$PUCSNAME
  2

  9
$PUCSORG
 10
0.0
 20
0.0
 30
0.0
  9
$PUCSXDIR
 10
1.0
 20
0.0
 30
0.0
  9
$PUCSYDIR
 10
0.0
 20
1.0
 30
0.0
  9
$PUCSORTHOREF
  2

  9
$PUCSORTHOVIEW
 70
0
  9
$PUCSORGTOP
 10
0.0
 20
0.0
 30
0.0
  9
$PUCSORGBOTTOM
 10
0.0
 20
0.0
 30
0.0
  9
$PUCSORGLEFT
 10
0.0
 20
0.0
 30
0.0
  9
$PUCSORGRIGHT
 10
0.0
 20
0.0
 30
0.0
  9
$PUCSORGFRONT
 10
0.0
 20
0.0
 30
0.0
  9
$PUCSORGBACK
 10
0.0
 20
0.0
 30
0.0
  9
$USERI1
 70
0
  9
$USERI2
 70
0
  9
$USERI3
 70
0
  9
$USERI4
 70
0
  9
$USERI5
 70
0
  9
$USERR1
 40
0.0
  9
$USERR2
 40
0.0
  9
$USERR3
 40
0.0
  9
$USERR4
 40
0.0
  9
$USERR5
 40
0.0
  9
$WORLDVIEW
 70
1
  9
$SHADEDGE
 70
3
  9
$SHADEDIF
 70
70
  9
$TILEMODE
 70
1
  9
$MAXACTVP
 70
64
  9
$PINSBASE
 10
0.0
 20
0.0
 30
0.0
  9
$PLIMCHECK
 70
0
  9
$PEXTMIN
 10
1e+20
 20
1e+20
 30
1e+20
  9
$PEXTMAX
 10
-1e+20
 20
-1e+20
 30
-1e+20
  9
$PLIMMIN
 10
0.0
 20
0.0
  9
$PLIMMAX
 10
420.0
 20
297.0
  9
$UNITMODE
 70
0
  9
$VISRETAIN
 70
1
  9
$PLINEGEN
 70
0
  9
$PSLTSCALE
 70
1
  9
$TREEDEPTH
 70
3020
  9
$CMLSTYLE
  2
Standard
  9
$CMLJUST
 70
0
  9
$CMLSCALE
 40
20.0
  9
$PROXYGRAPHICS
 70
1
  9
$MEASUREMENT
 70
1
  9
$CELWEIGHT
370
-1
  9
$ENDCAPS
280
0
  9
$JOINSTYLE
280
0
  9
$LWDISPLAY
290
0
  9
$INSUNITS
 70
4
  9
$HYPERLINKBASE
  1

  9
$STYLESHEET
  1

  9
$XEDIT
290
1
  9
$CEPSNTYPE
380
0
  9
$PSTYLEMODE
290
1
  9
$FINGERPRINTGUID
  2
{A1CBA930-BC72-4938-8D62-9B24BC38221C}
  9
$VERSIONGUID
  2
{70E86FF5-DEC7-455C-9E70-3D404EC6A8DA}
  9
$EXTNAMES
290
1
  9
$PSVPSCALE
 40
0.0
  9
$OLESTARTUP
290
0
  9
$SORTENTS
280
127
  9
$INDEXCTL
280
0
  9
$HIDETEXT
280
1
  9
$XCLIPFRAME
280
1
  9
$HALOGAP
280
0
  9
$OBSCOLOR
 70
257
  9
$OBSLTYPE
280
0
  9
$INTERSECTIONDISPLAY
280
0
  9
$INTERSECTIONCOLOR
 70
257
  9
$DIMASSOC
280
2
  9
$PROJECTNAME
  1

  9
$CAMERADISPLAY
290
0
  9
$LENSLENGTH
 40
50.0
  9
$CAMERAHEIGHT
 40
0.0
  9
$STEPSPERSEC
 40
24.0
  9
$STEPSIZE
 40
100.0
  9
$3DDWFPREC
 40
2.0
  9
$PSOLWIDTH
 40
0.005
  9
$PSOLHEIGHT
 40
0.08
  9
$LOFTANG1
 40
1.570796326795
  9
$LOFTANG2
 40
1.570796326795
  9
$LOFTMAG1
 40
0.0
  9
$LOFTMAG2
 40
0.0
  9
$LOFTPARAM
 70
7
  9
$LOFTNORMALS
280
1
  9
$LATITUDE
 40
37.795
  9
$LONGITUDE
 40
-122.394
  9
$NORTHDIRECTION
 40
0.0
  9
$TIMEZONE
 70
-8000
  9
$LIGHTGLYPHDISPLAY
280
1
  9
$TILEMODELIGHTSYNCH
280
1
  9
$CMATERIAL
347
20
  9
$SOLIDHIST
280
0
  9
$SHOWHIST
280
1
  9
$DWFFRAME
280
2
  9
$DGNFRAME
280
2
  9
$REALWORLDSCALE
290
1
  9
$INTERFERECOLOR
 62
256
  9
$CSHADOW
280
0
  9
$SHADOWPLANELOCATION
 40
0.0
  0
ENDSEC
  0
SECTION
  2
CLASSES
  0
CLASS
  1
ACDBDICTIONARYWDFLT
  2
AcDbDictionaryWithDefault
  3
ObjectDBX Classes
 90
0
 91
0
280
0
281
0
  0
CLASS
  1
SUN
  2
AcDbSun
  3
SCENEOE
 90
1153
 91
0
280
0
281
0
  0
CLASS
  1
VISUALSTYLE
  2
AcDbVisualStyle
  3
ObjectDBX Classes
 90
4095
 91
0
280
0
281
0
  0
CLASS
  1
MATERIAL
  2
AcDbMaterial
  3
ObjectDBX Classes
 90
1153
 91
0
280
0
281
0
  0
CLASS
  1
SCALE
  2
AcDbScale
  3
ObjectDBX Classes
 90
1153
 91
0
280
0
281
0
  0
CLASS
  1
TABLESTYLE
  2
AcDbTableStyle
  3
ObjectDBX Classes
 90
4095
 91
0
280
0
281
0
  0
CLASS
  1
MLEADERSTYLE
  2
AcDbMLeaderStyle
  3
ACDB_MLEADERSTYLE_CLASS
 90
4095
 91
0
280
0
281
0
  0
CLASS
  1
DICTIONARYVAR
  2
AcDbDictionaryVar
  3
ObjectDBX Classes
 90
0
 91
0
280
0
281
0
  0
CLASS
  1
CELLSTYLEMAP
  2
AcDbCellStyleMap
  3
ObjectDBX Classes
 90
1152
 91
0
280
0
281
0
  0
CLASS
  1
MENTALRAYRENDERSETTINGS
  2
AcDbMentalRayRenderSettings
  3
SCENEOE
 90
1024
 91
0
280
0
281
0
  0
CLASS
  1
ACDBDETAILVIEWSTYLE
  2
AcDbDetailViewStyle
  3
ObjectDBX Classes
 90
1025
 91
0
280
0
281
0
  0
CLASS
  1
ACDBSECTIONVIEWSTYLE
  2
AcDbSectionViewStyle
  3
ObjectDBX Classes
 90
1025
 91
0
280
0
281
0
  0
CLASS
  1
RASTERVARIABLES
  2
AcDbRasterVariables
  3
ISM
 90
0
 91
0
280
0
281
0
  0
CLASS
  1
ACDBPLACEHOLDER
  2
AcDbPlaceHolder
  3
ObjectDBX Classes
 90
0
 91
0
280
0
281
0
  0
CLASS
  1
LAYOUT
  2
AcDbLayout
  3
ObjectDBX Classes
 90
0
 91
0
280
0
281
0
  0
ENDSEC
  0
SECTION
  2
TABLES
  0
TABLE
  2
VPORT
  5
8
330
0
100
AcDbSymbolTable
 70
1
  0
VPORT
  5
23
330
8
100
AcDbSymbolTableRecord
100
AcDbViewportTableRecord
  2
*Active
 70
0
 10
0.0
 20
0.0
 11
1.0
 21
1.0
 12
0.0
 22
0.0
 13
0.0
 23
0.0
 14
0.5
 24
0.5
 15
0.5
 25
0.5
 16
0.0
 26
0.0
 36
1.0
 17
0.0
 27
0.0
 37
0.0
 40
1000.0
 41
1.34
 42
50.0
 43
0.0
 44
0.0
 50
0.0
 51
0.0
 71
0
 72
1000
 73
1
 74
3
 75
0
 76
0
 77
0
 78
0
281
0
 65
0
146
0.0
  0
ENDTAB
  0
TABLE
  2
LTYPE
  5
2
330
0
100
AcDbSymbolTable
 70
3
  0
LTYPE
  5
24
330
2
100
AcDbSymbolTableRecord
100
AcDbLinetypeTableRecord
  2
ByBlock
 70
0
  3

 72
65
 73
0
 40
0.0
  0
LTYPE
  5
25
330
2
100
AcDbSymbolTableRecord
100
AcDbLinetypeTableRecord
  2
ByLayer
 70
0
  3

 72
65
 73
0
 40
0.0
  0
LTYPE
  5
26
330
2
100
AcDbSymbolTableRecord
100
AcDbLinetypeTableRecord
  2
Continuous
 70
0
  3

 72
65
 73
0
 40
0.0
  0
ENDTAB
  0
TABLE
  2
LAYER
  5
1
330
0
100
AcDbSymbolTable
 70
3
  0
LAYER
  5
27
330
1
100
AcDbSymbolTableRecord
100
AcDbLayerTableRecord
  2
0
 70
0
 62
7
  6
Continuous
370
-3
390
13
347
21
  0
LAYER
  5
28
330
1
100
AcDbSymbolTableRecord
100
AcDbLayerTableRecord
  2
Defpoints
 70
0
 62
7
  6
Continuous
290
0
370
-3
390
13
347
21
  0
LAYER
  5
2F
330
1
100
AcDbSymbolTableRecord
100
AcDbLayerTableRecord
  2
C
 70
0
 62
7
  6
Continuous
370
-3
390
13
347
21
  0
ENDTAB
  0
TABLE
  2
STYLE
  5
5
330
0
100
AcDbSymbolTable
 70
1
  0
STYLE
  5
29
330
5
100
AcDbSymbolTableRecord
100
AcDbTextStyleTableRecord
  2
Standard
 70
0
 40
0.0
 41
1.0
 50
0.0
 71
0
 42
2.5
  3
txt
  4

  0
ENDTAB
  0
TABLE
  2
VIEW
  5
7
330
0
100
AcDbSymbolTable
 70
0
  0
ENDTAB
  0
TABLE
  2
UCS
  5
6
330
0
100
AcDbSymbolTable
 70
0
  0
ENDTAB
  0
TABLE
  2
APPID
  5
3
330
0
100
AcDbSymbolTable
 70
3
  0
APPID
  5
2A
330
3
100
AcDbSymbolTableRecord
100
AcDbRegAppTableRecord
  2
ACAD
 70
0
  0
APPID
  5
4A
330
3
100
AcDbSymbolTableRecord
100
AcDbRegAppTableRecord
  2
HATCHBACKGROUNDCOLOR
 70
0
  0
APPID
  5
4B
330
3
100
AcDbSymbolTableRecord
100
AcDbRegAppTableRecord
  2
EZDXF
 70
0
  0
ENDTAB
  0
TABLE
  2
DIMSTYLE
  5
4
330
0
100
AcDbSymbolTable
 70
1
100
AcDbDimStyleTable
  0
DIMSTYLE
105
2B
330
4
100
AcDbSymbolTableRecord
100
AcDbDimStyleTableRecord
  2
Standard
 70
0
 40
1.0
 41
2.5
 42
0.625
 43
3.75
 44
1.25
 45
0.0
 46
0.0
 47
0.0
 48
0.0
 49
2.5
140
2.5
141
2.5
142
0.0
143
0.03937007874
144
1.0
145
0.0
146
1.0
147
0.625
148
0.0
 69
0
 70
0
 71
0
 72
0
 73
0
 74
0
 75
0
 76
0
 77
1
 78
8
 79
3
170
0
171
3
172
1
173
0
174
0
175
0
176
0
177
0
178
0
179
2
271
2
272
2
273
2
274
3
275
0
276
0
277
2
278
44
279
0
280
0
281
0
282
0
283
0
284
8
285
0
286
0
288
0
289
3
290
0
371
-2
372
-2
  0
ENDTAB
  0
TABLE
  2
BLOCK_RECORD
  5
9
330
0
100
AcDbSymbolTable
 70
2
  0
BLOCK_RECORD
  5
17
330
9
100
AcDbSymbolTableRecord
100
AcDbBlockTableRecord
  2
*Model_Space
340
1A
 70
0
280
1
281
0
  0
BLOCK_RECORD
  5
1B
330
9
100
AcDbSymbolTableRecord
100
AcDbBlockTableRecord
  2
*Paper_Space
340
1E
 70
0
280
1
281
0
  0
ENDTAB
  0
ENDSEC
  0
SECTION
  2
BLOCKS
  0
BLOCK
  5
18
330
17
100
AcDbEntity
  8
0
100
AcDbBlockBegin
  2
*Model_Space
 70
0
 10
0.0
 20
0.0
 30
0.0
  3
*Model_Space
  1

  0
ENDBLK
  5
19
330
17
100
AcDbEntity
  8
0
100
AcDbBlockEnd
  0
BLOCK
  5
1C
330
1B
100
AcDbEntity
  8
0
100
AcDbBlockBegin
  2
*Paper_Space
 70
0
 10
0.0
 20
0.0
 30
0.0
  3
*Paper_Space
  1

  0
ENDBLK
  5
1D
330
1B
100
AcDbEntity
  8
0
100
AcDbBlockEnd
  0
ENDSEC
  0
SECTION
  2
ENTITIES
  0
LWPOLYLINE
  5
30
330
17
100
AcDbEntity
  8
C
100
AcDbPolyline
 90
50
 70
1
 10
7.552211511147489
 20
27.43789271477759
 10
0.0
 20
42.6022539236689
 10
4.224591727921334
 20
49.54265461953944
 10
7.557925061254744
 20
49.54265461953944
 10
10.891258394587933
 20
55.018845095729965
 10
17.55792506125453
 20
55.018845095729965
 10
19.234540628241035
 20
57.77328495577916
 10
29.234540628241046
 20
55.03518971768395
 10
30.89125839458795
 20
57.75694033382517
 10
34.31659679705001
 20
57.75694033382517
 10
37.58859341763077
 20
55.06922882406262
 10
45.92192675096407
 20
68.75970501453877
 10
52.64993013038355
 20
63.233130810015695
 10
59.22459172792127
 20
63.233130810015695
 10
62.55792506125446
 20
68.7093212862061
 10
67.65823222230006
 20
68.7093212862061
 10
72.65823222230017
 20
63.233130810015695
 10
77.67032353113001
 20
63.233130810015695
 10
83.56452642968092
 20
53.549797476682315
 10
81.89785976301422
 20
50.81170223858711
 10
84.32704129747704
 20
46.820904003398226
 10
94.30428457167706
 20
49.55276823323873
 10
97.58859341763082
 20
46.85494310977689
 10
99.21604049439381
 20
49.52860616445876
 10
109.22646141714898
 20
52.26955475045136
 10
114.23668303675116
 20
57.75694033382517
 10
117.57312373662488
 20
57.75694033382517
 10
125.90645706995818
 20
65.97122604811089
 10
129.33699019779675
 20
65.97122604811089
 10
130.963534000045
 20
63.29904694441713
 10
135.9033497034179
 20
68.7093212862061
 10
147.55792506125465
 20
68.7093212862061
 10
149.22459172792136
 20
71.44741652430142
 10
164.3369901977967
 20
71.44741652430142
 10
166.90288311341496
 20
67.23202102007187
 10
160.23621644674813
 20
59.01773530578613
 10
162.63965517475376
 20
55.06922882406262
 10
182.63965517475378
 20
71.49780025263408
 10
185.2141242961922
 20
67.26831526741361
 10
185.2141242961922
 20
26.140803495474984
 10
182.67032353113
 20
21.961702238587065
 10
124.22459172792122
 20
21.961702238587065
 10
120.89125839458804
 20
27.43789271477759
 10
114.33699019779664
 20
27.43789271477759
 10
111.00365686446322
 20
21.961702238587065
 10
29.224591727921243
 20
21.961702238587065
 10
24.269090198951737
 20
30.102883321894037
 10
17.602423532284917
 20
21.888597607608308
 10
14.224591727921343
 20
27.43789271477759
 10
7.552211511147489
 20
27.43789271477759
  0
LWPOLYLINE
  5
31
330
17
100
AcDbEntity
  8
C
100
AcDbPolyline
 90
5
 70
1
 10
146.66372216270383
 20
45.335511762396585
 10
144.28079096285896
 20
49.250327304998784
 10
141.89785976301428
 20
45.335511762396585
 10
144.28079096285896
 20
41.42069621979439
 10
146.66372216270383
 20
45.335511762396585
  0
LWPOLYLINE
  5
32
330
17
100
AcDbEntity
  8
C
100
AcDbPolyline
 90
25
 70
1
 10
145.8728634009332
 20
104.13477972816266
 10
140.0141242961923
 20
113.75985111452269
 10
140.0141242961923
 20
119.29212479122297
 10
142.57311207647726
 20
123.49617614454856
 10
149.2397787431441
 20
120.75808090645334
 10
151.66372216270375
 20
124.74027366715856
 10
146.66372216270383
 20
132.95455938144428
 10
149.22459172792136
 20
137.16170223858703
 10
154.22459172792125
 20
137.16170223858703
 10
156.66372216270364
 20
141.16884509572992
 10
153.33038882937024
 20
146.64503557192043
 10
157.55792506125465
 20
153.5902736671585
 10
160.88492708631108
 20
153.5902736671585
 10
167.60436254326748
 20
167.38911433769454
 10
169.28079096285907
 20
164.6349819340802
 10
170.89125839458785
 20
167.28074985763476
 10
175.99770011164017
 20
167.28074985763476
 10
185.2141242961922
 20
154.89243942774976
 10
185.2141242961922
 20
116.4979463526179
 10
179.33699019779658
 20
106.84265461953946
 10
172.67032353112998
 20
106.84265461953946
 10
169.3369901977968
 20
101.36646414334905
 10
162.65823222230003
 20
101.36646414334905
 10
157.62857898205863
 20
95.85779630879887
 10
145.8728634009332
 20
104.13477972816266
  0
LWPOLYLINE
  5
33
330
17
100
AcDbEntity
  8
C
100
AcDbPolyline
 90
8
 70
1
 10
173.33333333333312
 20
184.98320630462118
 10
175.94745762952567
 20
189.27783907693728
 10
179.30632184142036
 20
183.75970501453875
 10
182.63965517475378
 20
186.49780025263397
 10
185.2141242961922
 20
182.2683152674135
 10
185.2141242961922
 20
176.7360415907131
 10
180.93869525347307
 20
169.7121224491027
 10
173.33333333333312
 20
184.98320630462118
  0
LWPOLYLINE
  5
34
330
17
100
AcDbEntity
  8
C
100
AcDbPolyline
 90
39
 70
1
 10
463.32698241161927
 20
231.53158421060715
 10
472.62242475845653
 20
244.02610736512221
 10
475.94745762952573
 20
238.56355336265133
 10
478.33038882937063
 20
242.47836890525377
 10
474.9989459297981
 20
247.9514536688373
 10
487.56371277948574
 20
271.345852898494
 10
497.69034035305384
 20
268.5730858247788
 10
502.6367613067816
 20
255.02931416576234
 10
507.55792506125465
 20
263.1140831909681
 10
514.3248988889669
 20
263.1140831909681
 10
519.2647145923395
 20
257.70380884917887
 10
520.9700946401149
 20
260.5055046419529
 10
523.5578962402312
 20
253.4198574035391
 10
520.2311930963475
 20
247.95455938144428
 10
522.6302006667119
 20
244.01333265870272
 10
527.5700163700843
 20
249.4236070004918
 10
532.6703235311301
 20
249.4236070004918
 10
534.3369901977968
 20
246.6855117623966
 10
539.3369901977967
 20
246.6855117623966
 10
541.9044407086116
 20
242.46755735177194
 10
530.992690480272
 20
230.05694033382517
 10
527.67032353113
 20
230.05694033382517
 10
526.0036568644634
 20
227.31884509572998
 10
522.5579250612547
 20
227.31884509572998
 10
519.2366262004683
 20
232.77526465273613
 10
510.903292867135
 20
230.0371694146408
 10
509.28079096285893
 20
232.70270825738004
 10
506.0036568644634
 20
227.31884509572998
 10
502.67032353113007
 20
227.31884509572998
 10
501.0036568644634
 20
224.58074985763477
 10
494.2449851286678
 20
224.58074985763477
 10
490.97298850808704
 20
227.26846136739744
 10
487.66379838807916
 20
221.8319347416703
 10
480.0520316813338
 20
223.2213842198857
 10
477.5783719130057
 20
227.2852538392819
 10
472.57837191300564
 20
224.54715860118668
 10
470.8912583945879
 20
227.31884509572998
 10
465.891258394588
 20
227.31884509572998
 10
463.32698241161927
 20
231.53158421060715
  0
LWPOLYLINE
  5
35
330
17
100
AcDbEntity
  8
C
100
AcDbPolyline
 90
5
 70
1
 10
514.2807909628591
 20
241.30164860074666
 10
516.663722162704
 20
245.21646414334896
 10
514.2807909628591
 20
249.1312796859514
 10
511.897859763014
 20
245.21646414334896
 10
514.2807909628591
 20
241.30164860074666
  0
LWPOLYLINE
  5
36
330
17
100
AcDbEntity
  8
C
100
AcDbPolyline
 90
5
 70
1
 10
501.66372216270395
 20
242.47836890525377
 10
499.28079096285904
 20
246.39318444785619
 10
496.897859763014
 20
242.47836890525377
 10
499.28079096285904
 20
238.56355336265133
 10
501.66372216270395
 20
242.47836890525377
  0
LWPOLYLINE
  5
37
330
17
100
AcDbEntity
  8
C
100
AcDbPolyline
 90
66
 70
1
 10
364.23122273662756
 20
293.0331308100157
 10
360.891258394588
 20
293.0331308100157
 10
358.33038882937063
 20
297.24027366715853
 10
360.92192675096436
 20
301.49780025263397
 10
364.2552600842977
 20
298.7597050145387
 10
366.669211480393
 20
302.7254823081239
 10
363.3286135501932
 20
310.95767006468765
 10
370.9268418248419
 20
317.89256095027986
 10
377.57311207647757
 20
315.1628428112152
 10
380.8912583945879
 20
320.6140831909681
 10
385.99156555563354
 20
320.6140831909681
 10
390.9193098548673
 20
315.2170299108549
 10
395.8641387690964
 20
326.0485599134519
 10
399.98753760799667
 20
330.1130530546537
 10
398.3303888293707
 20
332.83551176239666
 10
402.55792506125465
 20
339.78074985763476
 10
406.0036568644634
 20
339.78074985763476
 10
407.61412429619236
 20
337.13498193408
 10
414.25526008429756
 20
348.045419300253
 10
417.64993013038367
 20
345.2569403338251
 10
426.0036568644634
 20
345.2569403338251
 10
427.6141242961924
 20
342.6111724102704
 10
429.2245917279213
 20
345.2569403338251
 10
436.01739638743106
 20
345.2569403338251
 10
438.55789624023123
 20
338.3008097844915
 10
436.0036568644634
 20
334.10455938144423
 10
432.6760370812374
 20
334.10455938144423
 10
425.2282485923847
 20
319.1498729712876
 10
427.65513651590715
 20
315.1628428112152
 10
434.3218031825737
 20
317.9009380493105
 10
440.96100403585336
 20
306.99367950463676
 10
446.6534708456441
 20
313.6736150467383
 10
436.6606461722804
 20
327.3542678733673
 10
440.89125839458796
 20
334.3045593814442
 10
445.9915655556336
 20
334.3045593814442
 10
450.93138125900623
 20
328.89428503965513
 10
454.2245917279213
 20
334.3045593814442
 10
457.67032353113
 20
334.3045593814442
 10
460.2311930963474
 20
330.09741652430137
 10
458.5645264296807
 20
327.3593212862061
 10
460.9832100127124
 20
323.3857696855114
 10
465.9832100127124
 20
326.12386492360656
 10
468.5645264296807
 20
321.88313081001564
 10
465.2141242961924
 20
316.3788987335705
 10
465.2141242961924
 20
310.9587914578894
 10
470.2061131530838
 20
302.757666907282
 10
475.2228331152596
 20
286.27415846013326
 10
472.6551365159071
 20
282.0557997611971
 10
465.98846984924046
 20
284.7938949992923
 10
464.33699019779675
 20
282.08074985763477
 10
457.5579250612546
 20
282.08074985763477
 10
455.891258394588
 20
284.81884509572996
 10
445.89125839458796
 20
284.81884509572996
 10
440.9474576295257
 20
292.9408034954752
 10
437.6703235311301
 20
287.5569403338252
 10
427.5700163700845
 20
287.5569403338252
 10
422.63020066671174
 20
292.9672146756144
 10
420.9474576295257
 20
290.20270825738004
 10
414.280790962859
 20
301.15508920976094
 10
406.0036568644634
 20
287.5569403338252
 10
402.66175482699265
 20
287.5569403338252
 10
389.311579900665
 20
271.10761765674306
 10
382.5457705966677
 20
273.88643219231335
 10
375.92192675096425
 20
284.76846136739744
 10
372.59739224704646
 20
282.0375937391794
 10
364.23122273662756
 20
293.0331308100157
  0
LWPOLYLINE
  5
38
330
17
100
AcDbEntity
  8
C
100
AcDbPolyline
 90
6
 70
1
 10
460.891258394588
 20
303.98551176239664
 10
459.33699019779675
 20
303.98551176239664
 10
456.90126618076533
 20
299.9839651629881
 10
465.93915716726156
 20
287.8356311746459
 10
468.33038882937063
 20
291.76408319096805
 10
460.891258394588
 20
303.98551176239664
  0
LWPOLYLINE
  5
39
330
17
100
AcDbEntity
  8
C
100
AcDbPolyline
 90
9
 70
1
 10
409.99705549603726
 20
308.1926546195395
 10
404.280790962859
 20
317.58366063833245
 10
402.61412429619236
 20
314.8455654002371
 10
400.9474576295257
 20
317.58366063833245
 10
398.56452642968077
 20
313.66884509573003
 10
400.9474576295257
 20
309.75402955312757
 10
402.61412429619236
 20
312.4921247912228
 10
407.61412429619236
 20
304.2778390769371
 10
409.99705549603726
 20
308.1926546195395
  0
LWPOLYLINE
  5
3A
330
17
100
AcDbEntity
  8
C
100
AcDbPolyline
 90
29
 70
1
 10
411.64204510740063
 20
15.220115208828044
 10
406.6563847731924
 20
20.68060033677055
 10
408.3303888293706
 20
23.430749857634716
 10
404.99705549603726
 20
28.906940333825236
 10
407.55792506125465
 20
33.11408319096809
 10
411.0117332545672
 20
33.11408319096809
 10
416.0117332545672
 20
22.161702238587043
 10
419.3284214936592
 20
22.161702238587043
 10
425.9357568656186
 20
14.020521155280186
 10
430.89125839458796
 20
22.161702238587043
 10
435.89125839458796
 20
22.161702238587043
 10
437.6024235322853
 20
24.97290210766112
 10
444.28525045511424
 20
16.73870464917526
 10
449.2366830367511
 20
22.161702238587043
 10
452.6751037972827
 20
22.161702238587043
 10
461.89537661007876
 20
4.260003725431338
 10
459.33699019779675
 20
0.05694033382519503
 10
454.2245917279213
 20
0.05694033382519503
 10
450.93138125900623
 20
5.467214675614396
 10
445.99030892941636
 20
0.05556402892070711
 10
401.7060060164417
 20
1.4282580545250667
 10
400.0054154771251
 20
7.015912683707715
 10
403.3303888293707
 20
12.478368905253777
 10
399.99705549603726
 20
17.9545593814443
 10
402.59437498419413
 20
22.22158425484477
 10
406.9073776510547
 20
17.970195911796605
 10
405.23119309634734
 20
15.216464143348984
 10
407.6338736081906
 20
11.269203302463836
 10
411.64204510740063
 20
15.220115208828044
  0
LWPOLYLINE
  5
3B
330
17
100
AcDbEntity
  8
C
100
AcDbPolyline
 90
52
 70
1
 10
341.897859763014
 20
12.478368905253777
 10
344.28079096285904
 20
8.563553362651465
 10
347.58859341763093
 20
13.997800252633974
 10
350.92192675096436
 20
11.259705014538657
 10
353.33038882937063
 20
15.216464143348984
 10
351.6637221627039
 20
17.9545593814443
 10
354.9970554960373
 20
23.430749857634716
 10
351.6542042746633
 20
28.92257686417754
 10
359.9875376079967
 20
37.13686257846327
 10
358.33038882937063
 20
39.859321286206175
 10
360.92192675096436
 20
44.11684787168157
 10
364.2552600842977
 20
41.37875263358626
 10
367.5579250612546
 20
46.804559381444236
 10
374.22459172792134
 20
46.804559381444236
 10
376.66372216270395
 20
50.81170223858711
 10
374.9920321456366
 20
53.55805012376924
 10
381.6586988123032
 20
61.77233583805497
 10
379.99705549603726
 20
64.50217842906325
 10
382.60057788986467
 20
68.77939379035114
 10
388.5551389750741
 20
61.79189863934009
 10
386.8865863864373
 20
53.56831802391571
 10
388.56452642968077
 20
50.81170223858711
 10
385.2355306990327
 20
45.342637823950874
 10
392.66284674720555
 20
35.8521784290633
 10
396.0036568644634
 20
35.8521784290633
 10
400.2245629068979
 20
28.91783278792093
 10
397.68406305409775
 20
21.961702238587065
 10
392.67032353113007
 20
21.961702238587065
 10
389.33699019779675
 20
16.485511762396655
 10
384.33699019779675
 20
16.485511762396655
 10
381.9028831134148
 20
12.486621552340704
 10
388.5695497800815
 20
4.272335838054975
 10
386.0036568644634
 20
0.05694033382519503
 10
382.55792506125465
 20
0.05694033382519503
 10
379.99705549603726
 20
4.264083190968049
 10
381.66372216270395
 20
7.002178429063255
 10
379.28079096285904
 20
10.91699397166568
 10
376.0036568644634
 20
5.533130810015718
 10
370.9915655556335
 20
5.533130810015718
 10
365.9915655556335
 20
0.05694033382519503
 10
340.90334970341786
 20
0.05694033382519503
 10
335.94745762952573
 20
5.484822129040445
 10
330.9395765551845
 20
0.0
 10
321.6486168303616
 20
12.488497811937172
 10
329.9875376079967
 20
20.70829114989181
 10
328.3303888293706
 20
23.430749857634716
 10
332.58859341763093
 20
30.42637168120532
 10
335.9332016447221
 20
27.679014923237656
 10
342.62582506009943
 20
35.925283060042055
 10
346.88079096285907
 20
28.934981934080064
 10
346.88079096285907
 20
20.664613019284683
 10
341.897859763014
 20
12.478368905253777
  0
LWPOLYLINE
  5
3C
330
17
100
AcDbEntity
  8
C
100
AcDbPolyline
 90
6
 70
1
 10
381.680790962859
 20
34.35508920976083
 10
379.28079096285904
 20
38.29794635261807
 10
375.23119309634745
 20
31.645035571920445
 10
379.28079096285904
 20
24.992124791222924
 10
381.680790962859
 20
28.934981934080064
 10
381.680790962859
 20
34.35508920976083
  0
LWPOLYLINE
  5
3D
330
17
100
AcDbEntity
  8
C
100
AcDbPolyline
 90
5
 70
1
 10
364.28079096285904
 20
38.29794635261807
 10
361.897859763014
 20
34.38313081001565
 10
365.9474576295256
 20
27.730220029318133
 10
368.33038882937063
 20
31.645035571920445
 10
364.28079096285904
 20
38.29794635261807
  0
LWPOLYLINE
  5
3E
330
17
100
AcDbEntity
  8
C
100
AcDbPolyline
 90
8
 70
1
 10
303.3303888293706
 20
4.264083190968049
 10
307.6141242961924
 20
11.301648600746672
 10
309.3369901977967
 20
8.471226048110903
 10
316.00365686446344
 20
8.471226048110903
 10
318.5645264296807
 20
4.264083190968049
 10
315.99919308675504
 20
0.04960698473288616
 10
305.053766262758
 20
1.4328202646886057
 10
303.3303888293706
 20
4.264083190968049
  0
LWPOLYLINE
  5
3F
330
17
100
AcDbEntity
  8
C
100
AcDbPolyline
 90
10
 70
1
 10
1016.6542042746634
 20
111.03416094633
 10
1022.5579250612547
 20
120.7331308100157
 10
1025.891258394588
 20
120.7331308100157
 10
1029.2807909628589
 20
126.30164860074655
 10
1031.880790962859
 20
122.03022002931796
 10
1031.880790962859
 20
116.49794635261811
 10
1027.67032353113
 20
109.58074985763477
 10
1022.6703235311301
 20
109.58074985763477
 10
1020.9672069415238
 20
106.78277260328184
 10
1016.6542042746634
 20
111.03416094633
  0
LWPOLYLINE
  5
40
330
17
100
AcDbEntity
  8
C
100
AcDbPolyline
 90
53
 70
1
 10
1743.3433583513524
 20
91.85552273718488
 10
1745.010664250005
 20
105.55124976183016
 10
1743.3474576295253
 20
108.28366063833228
 10
1743.3474576295253
 20
116.55402955312755
 10
1744.9970554960373
 20
119.26408319096804
 10
1743.3474576295253
 20
121.97413682880853
 10
1743.3474576295253
 20
138.4675791298645
 10
1749.2840873477733
 20
145.43403237066553
 10
1756.895220348134
 20
135.70869575909384
 10
1750.225703778658
 20
119.27310135574298
 10
1752.614124296192
 20
115.34926764836572
 10
1754.2552600842973
 20
118.04541930025292
 10
1757.5885934176308
 20
115.30732406215772
 10
1759.2672445565313
 20
118.0651080760653
 10
1765.2371581567122
 20
111.05959721871028
 10
1763.5645264296804
 20
108.3117022385871
 10
1765.2311930963474
 20
105.5736070004919
 10
1761.897859763014
 20
100.09741652430138
 10
1765.9557580917897
 20
93.43086926988408
 10
1774.9936490782857
 20
105.57920325822623
 10
1769.997055496037
 20
113.78789271477763
 10
1771.6637221627036
 20
116.52598795287284
 10
1769.997055496037
 20
119.26408319096804
 10
1772.5579250612545
 20
123.47122604811089
 10
1776.003656864463
 20
123.47122604811089
 10
1780.2228331152592
 20
116.53972220751719
 10
1778.5561664485926
 20
111.06353173132678
 10
1780.9474576295252
 20
107.13498193408
 10
1782.6141242961921
 20
109.87307717217531
 10
1784.2807909628586
 20
107.13498193408
 10
1786.6720821437916
 20
111.06353173132678
 10
1785.0074358794964
 20
116.53308374258242
 10
1790.0011360681515
 20
127.47166510820828
 10
1788.3303888293701
 20
130.216464143349
 10
1790.8912583945878
 20
134.42360700049184
 10
1795.9936251832517
 20
134.42360700049184
 10
1801.8923871904628
 20
127.50159035937669
 10
1800.214124296192
 20
121.98729799248686
 10
1800.214124296192
 20
111.02175587642749
 10
1792.6907169318765
 20
98.66187234933722
 10
1789.31659679705
 20
95.89027366715852
 10
1782.67032353113
 20
95.89027366715852
 10
1779.2807909628586
 20
90.32175587642766
 10
1775.9554059966765
 20
95.78488832086951
 10
1767.6755289984176
 20
79.46170223858707
 10
1764.216515337817
 20
79.46170223858707
 10
1759.2681474206654
 20
90.3009843428244
 10
1756.8978597630137
 20
86.40694033382523
 10
1758.5645264296804
 20
83.66884509572992
 10
1755.9474576295254
 20
79.36937492404661
 10
1754.2807909628589
 20
82.10747016214192
 10
1752.6224247584562
 20
79.38301139776627
 10
1743.3433583513524
 20
91.85552273718488
  0
LWPOLYLINE
  5
41
330
17
100
AcDbEntity
  8
C
100
AcDbPolyline
 90
25
 70
1
 10
3032.557925061255
 20
249.22360700049185
 10
3020.8775188716204
 20
249.22360700049185
 10
3018.3370190188207
 20
256.1797375498258
 10
3022.5579250612545
 20
263.1140831909681
 10
3052.557925061255
 20
263.1140831909681
 10
3054.2245917279215
 20
265.85217842906326
 10
3069.2245917279215
 20
265.85217842906326
 10
3070.8873851677495
 20
268.58391050878095
 10
3094.322229894789
 20
271.3339177981785
 10
3105.993625183252
 20
257.63789271477754
 10
3109.336990197797
 20
257.63789271477754
 10
3116.0272298446484
 20
246.64678472352142
 10
3125.2394812263547
 20
237.01579464264665
 10
3122.67032353113
 20
232.7950355719205
 10
3112.67032353113
 20
232.7950355719205
 10
3109.336990197797
 20
227.31884509572998
 10
3096.003656864463
 20
227.31884509572998
 10
3092.6671259909886
 20
221.83740151787768
 10
3062.6544889950796
 20
224.57665013258355
 10
3057.588685394481
 20
219.0283890462139
 10
3050.879709686541
 20
232.8057498750199
 10
3035.8853650146675
 20
235.54281279131428
 10
3033.3387488104586
 20
239.72653941251397
 10
3035.005415477125
 20
245.2027298887044
 10
3032.557925061255
 20
249.22360700049185
  0
LWPOLYLINE
  5
42
330
17
100
AcDbEntity
  8
C
100
AcDbPolyline
 90
183
 70
1
 10
2773.3358781470597
 20
138.42173169285977
 10
2776.669211480393
 20
146.6360174071455
 10
2771.6828990274335
 20
154.82781643700793
 10
2770.0116712750682
 20
176.79252403952083
 10
2781.6807909628587
 20
193.2245497223284
 10
2781.6807909628587
 20
195.90270825738
 10
2777.5478771526064
 20
202.69249523136656
 10
2769.222894538373
 20
205.4278466617575
 10
2763.3205183565015
 20
212.35410442619906
 10
2774.229541288733
 20
227.51884509572994
 10
2777.562158447839
 20
227.51884509572994
 10
2802.549092228713
 20
263.0954793837367
 10
2809.321803182574
 20
265.87712852550095
 10
2811.0036568644637
 20
263.1140831909681
 10
2820.8912583945885
 20
263.1140831909681
 10
2825.8912583945885
 20
271.3283689052538
 10
2829.228539434806
 20
271.3283689052538
 10
2842.619713175068
 20
290.5781811568802
 10
2844.3063218414204
 20
287.8073240621577
 10
2847.639655174754
 20
290.545419300253
 10
2849.2807909628596
 20
287.8492676483656
 10
2850.947457629526
 20
290.58736288646094
 10
2854.336990197797
 20
285.01884509572994
 10
2861.0036568644637
 20
285.01884509572994
 10
2865.947457629526
 20
276.8968866959847
 10
2868.330388829371
 20
280.8117022385871
 10
2866.6637221627043
 20
283.5497974766823
 10
2868.330388829371
 20
286.2878927147776
 10
2866.652554140362
 20
289.04433541814876
 10
2874.280790962859
 20
296.0066150577293
 10
2881.909027785356
 20
289.04433541814876
 10
2876.8978597630144
 20
280.8117022385871
 10
2880.2311930963474
 20
275.33551176239666
 10
2876.8978597630144
 20
269.8593212862062
 10
2879.280790962859
 20
265.9445057436037
 10
2884.2245917279215
 20
274.066464143349
 10
2887.67032353113
 20
274.066464143349
 10
2890.947457629526
 20
268.68260098169895
 10
2894.2330638080807
 20
274.08038256075395
 10
2906.0110938358966
 20
271.3161510236136
 10
2911.880790962859
 20
261.6730771721751
 10
2911.880790962859
 20
256.1408034954753
 10
2910.231193096348
 20
253.4307498576347
 10
2911.8978597630144
 20
250.6926546195395
 10
2910.2141242961925
 20
247.92651778118957
 10
2910.2141242961925
 20
236.9804318218297
 10
2905.2141242961925
 20
226.02805086944866
 10
2905.2141242961925
 20
215.08253608772498
 10
2903.556166448593
 20
209.6349603027553
 10
2906.0036568644637
 20
205.61408319096807
 10
2909.236683036751
 20
205.61408319096807
 10
2914.2296718906437
 20
211.08259479285041
 10
2929.2296718906437
 20
213.8206900309457
 10
2934.229671890644
 20
219.29688050713614
 10
2949.229671890644
 20
222.03497574523146
 10
2954.2366830367514
 20
227.51884509572994
 10
2962.5842078475716
 20
227.51884509572994
 10
2970.917541180905
 20
232.99503557192048
 10
2979.2245917279215
 20
232.99503557192048
 10
2980.9143121267075
 20
235.77100479849722
 10
2994.24764546004
 20
227.5567190842115
 10
2996.6637221627043
 20
231.5259879528728
 10
2993.3208709413298
 20
237.01781495941566
 10
2997.6338736081907
 20
241.26920330246392
 10
3000.231193096348
 20
237.00217842906335
 10
2998.5645264296813
 20
234.26408319096802
 10
3001.0036568644637
 20
230.25694033382516
 10
3016.0117332545674
 20
230.25694033382516
 10
3020.998468286217
 20
219.33361597878286
 10
3027.655136515907
 20
222.06760471597718
 10
3032.6141242961926
 20
213.92069621979448
 10
3035.8912583945885
 20
219.30455938144422
 10
3039.3369901977967
 20
219.30455938144422
 10
3041.889499781926
 20
215.11115077894593
 10
3040.227404126194
 20
209.64997933868312
 10
3048.5634447160037
 20
201.4330250430132
 10
3046.0320247833088
 20
194.50175617968023
 10
3042.649930130384
 20
191.72360700049185
 10
3032.557925061255
 20
191.72360700049185
 10
3029.2245917279215
 20
197.19979747668236
 10
3026.0036568644637
 20
197.19979747668236
 10
3021.897859763015
 20
190.45455938144428
 10
3026.8978597630144
 20
182.24027366715856
 10
3024.336990197797
 20
178.0331308100157
 10
3020.891258394588
 20
178.0331308100157
 10
3016.663722162704
 20
184.97836890525377
 10
3018.330388829371
 20
187.71646414334896
 10
3015.947457629526
 20
191.63127968595117
 10
3012.6216909239647
 20
186.1675200982439
 10
2992.6216909239647
 20
213.54847247919628
 10
2990.2165880860643
 20
209.5972321026456
 10
2991.8779066681204
 20
190.49206840900547
 10
3000.214124296192
 20
179.5358966692532
 10
3000.214124296192
 20
176.7360415907131
 10
2992.67032353113
 20
164.34265461953956
 10
2982.5579250612545
 20
164.34265461953956
 10
2980.891258394588
 20
167.08074985763477
 10
2954.3284214936593
 20
167.08074985763477
 10
2947.6579401917525
 20
158.86176396778495
 10
2919.333600201203
 20
161.5989901013254
 10
2917.6703235311306
 20
158.86646414334905
 10
2905.8912583945885
 20
158.86646414334905
 10
2903.3358781470597
 20
163.06458883571696
 10
2906.669211480393
 20
171.27887455000268
 10
2904.2245917279215
 20
175.2950355719205
 10
2854.336990197797
 20
175.2950355719205
 10
2851.0036568644637
 20
169.81884509572998
 10
2836.0036568644637
 20
169.81884509572998
 10
2829.280790962859
 20
158.7741368288086
 10
2827.557925061255
 20
161.60455938144423
 10
2814.3248988889673
 20
161.60455938144423
 10
2809.324898888967
 20
156.12836890525384
 10
2804.3369901977967
 20
156.12836890525384
 10
2802.665476400729
 20
153.38231052435614
 10
2782.665476400729
 20
156.12040576245144
 10
2780.239481226355
 20
152.1348422616944
 10
2789.3235199234055
 20
142.63789271477756
 10
2800.891258394588
 20
142.63789271477756
 10
2802.557925061255
 20
145.37598795287278
 10
2807.67032353113
 20
145.37598795287278
 10
2809.2807909628596
 20
142.73022002931802
 10
2810.891258394588
 20
145.37598795287278
 10
2831.0036568644637
 20
145.37598795287278
 10
2832.680371439779
 20
142.6213854362839
 10
2840.9032928671354
 20
139.91956839586672
 10
2843.330388829371
 20
143.90694033382522
 10
2839.9970554960373
 20
149.38313081001564
 10
2844.2245917279215
 20
156.32836890525383
 10
2847.67032353113
 20
156.32836890525383
 10
2850.2257037786585
 20
152.1302442128859
 10
2846.892370445325
 20
143.91595849860016
 10
2850.2141242961925
 20
138.45879145788942
 10
2850.2141242961925
 20
132.982600981699
 10
2852.67032353113
 20
128.94741652430142
 10
2859.244985128668
 20
128.94741652430142
 10
2865.911651795335
 20
134.42360700049184
 10
2872.5579250612545
 20
134.42360700049184
 10
2874.220718501083
 20
137.1553390802095
 10
2897.5733253706426
 20
139.8956960087804
 10
2904.2950469476627
 20
145.41711016133286
 10
2910.9357568656187
 20
137.2348068695658
 10
2915.891258394588
 20
145.37598795287278
 10
2922.6703235311306
 20
145.37598795287278
 10
2925.2311930963474
 20
141.16884509572992
 10
2921.8894997819266
 20
135.67892036489516
 10
2923.556166448593
 20
130.20272988870462
 10
2921.0036568644637
 20
126.00932128620612
 10
2914.3369901977967
 20
126.00932128620612
 10
2911.8978597630144
 20
122.00217842906325
 10
2914.341148996293
 20
117.98820326010461
 10
2935.8957221722967
 20
115.26427368291748
 10
2938.330388829371
 20
119.26408319096804
 10
2936.6542042746632
 20
122.01781495941555
 10
2940.967206941524
 20
126.26920330246382
 10
2943.564526429681
 20
122.00217842906325
 10
2941.8978597630144
 20
119.26408319096804
 10
2944.280790962859
 20
115.34926764836584
 10
2945.8912583945885
 20
117.99503557192037
 10
2952.557925061255
 20
117.99503557192037
 10
2955.891258394588
 20
123.47122604811089
 10
2964.3269585165854
 20
123.47122604811089
 10
2970.200712408359
 20
116.57855566490738
 10
2973.559037111992
 20
108.30268407381195
 10
2969.3369901977967
 20
101.36646414334905
 10
2962.6703235311306
 20
101.36646414334905
 10
2961.0036568644637
 20
98.62836890525372
 10
2954.2245917279215
 20
98.62836890525372
 10
2952.588593417631
 20
101.3160804150165
 10
2949.31659679705
 20
98.62836890525372
 10
2939.2245917279215
 20
98.62836890525372
 10
2937.5579250612545
 20
101.36646414334905
 10
2919.336990197797
 20
101.36646414334905
 10
2917.6703235311306
 20
98.62836890525372
 10
2892.5579250612545
 20
98.62836890525372
 10
2890.8912583945885
 20
101.36646414334905
 10
2846.003656864463
 20
101.36646414334905
 10
2844.33623632488
 20
98.62713039974747
 10
2781.7018019447582
 20
99.99912277188349
 10
2778.347457629526
 20
113.77589406658772
 10
2778.347457629526
 20
124.71223206690385
 10
2775.0141242961927
 20
130.18842254309425
 10
2775.0141242961927
 20
135.6646130192848
 10
2773.3358781470597
 20
138.42173169285977
  0
LWPOLYLINE
  5
43
330
17
100
AcDbEntity
  8
C
100
AcDbPolyline
 90
7
 70
1
 10
2875.231193096348
 20
250.6926546195395
 10
2876.8978597630144
 20
247.95455938144428
 10
2875.231193096348
 20
245.21646414334896
 10
2877.633873608191
 20
241.2692033024638
 10
2881.661725965921
 20
245.2395149122266
 10
2877.5992945908747
 20
254.5831070748339
 10
2875.231193096348
 20
250.6926546195395
  0
LWPOLYLINE
  5
44
330
17
100
AcDbEntity
  8
C
100
AcDbPolyline
 90
5
 70
1
 10
2875.001737257412
 20
256.17653656084536
 10
2870.932627924208
 20
265.53548802721485
 10
2868.559844668306
 20
261.6373441068051
 10
2872.6289540015105
 20
252.2783926404356
 10
2875.001737257412
 20
256.17653656084536
  0
LWPOLYLINE
  5
45
330
17
100
AcDbEntity
  8
C
100
AcDbPolyline
 90
5
 70
1
 10
3008.564526429681
 20
245.21646414334896
 10
3005.9474576295256
 20
240.91699397166556
 10
3003.3303888293703
 20
245.21646414334896
 10
3005.9474576295256
 20
249.5159343150325
 10
3008.564526429681
 20
245.21646414334896
  0
LWPOLYLINE
  5
46
330
17
100
AcDbEntity
  8
C
100
AcDbPolyline
 90
8
 70
1
 10
2936.0036568644637
 20
131.48551176239664
 10
2932.6141242961926
 20
125.91699397166556
 10
2929.997055496038
 20
130.216464143349
 10
2935.891258394588
 20
139.89979747668235
 10
2939.336990197797
 20
139.89979747668235
 10
2941.8978597630144
 20
135.6926546195395
 10
2939.336990197797
 20
131.48551176239664
 10
2936.0036568644637
 20
131.48551176239664
  0
LWPOLYLINE
  5
47
330
17
100
AcDbEntity
  8
C
100
AcDbPolyline
 90
129
 70
1
 10
3231.6807909628596
 20
72.68842254309416
 10
3231.6807909628596
 20
83.6408034954751
 10
3230.0141242961927
 20
86.37889873357041
 10
3230.0141242961927
 20
100.06937492404656
 10
3226.6637221627047
 20
105.5736070004919
 10
3230.0141242961927
 20
111.07783907693714
 10
3230.0141242961927
 20
116.54550494131777
 10
3236.6899245161235
 20
132.99658405471803
 10
3246.666024859512
 20
152.11744304621288
 10
3244.997055496038
 20
154.85932128620615
 10
3247.549373827728
 20
159.05241568826844
 10
3257.660374630811
 20
161.82090400339823
 10
3259.2807909628596
 20
159.15879145788946
 10
3262.557925061255
 20
164.54265461953955
 10
3267.557925061255
 20
164.54265461953955
 10
3269.2245917279215
 20
167.28074985763476
 10
3272.6703235311306
 20
167.28074985763476
 10
3274.280790962859
 20
164.63498193408
 10
3275.8912583945885
 20
167.28074985763476
 10
3281.0036568644637
 20
167.28074985763476
 10
3282.6703235311306
 20
164.54265461953955
 10
3294.316596797051
 20
164.54265461953955
 10
3300.9832634637173
 20
159.066464143349
 10
3312.6703235311306
 20
159.066464143349
 10
3315.983210012713
 20
153.6238649236066
 10
3320.952144705107
 20
156.34494820753696
 10
3329.316787145254
 20
150.84818317544068
 10
3349.229438858323
 20
148.12204633377047
 10
3353.347457629526
 20
154.8873628864609
 10
3353.347457629526
 20
163.1016486007466
 10
3360.8912583945885
 20
175.49503557192048
 10
3364.2245917279215
 20
175.49503557192048
 10
3369.255260084298
 20
183.75970501453875
 10
3372.5885934176313
 20
181.02160977644343
 10
3379.2552600842982
 20
191.97399072882436
 10
3382.5885934176313
 20
189.23589549072918
 10
3384.997055496038
 20
193.1926546195395
 10
3381.6637221627043
 20
198.66884509573
 10
3384.224591727922
 20
202.87598795287286
 10
3401.0130222921694
 20
202.87598795287286
 10
3405.220511869712
 20
193.19876192452557
 10
3401.8807909628595
 20
182.22539323058217
 10
3401.8807909628595
 20
176.79212479122276
 10
3406.0036568644637
 20
170.01884509572994
 10
3409.336990197797
 20
170.01884509572994
 10
3412.6258250601
 20
164.6157592505183
 10
3419.2924917267665
 20
172.83004496480393
 10
3420.947457629526
 20
170.1111724102704
 10
3424.224591727922
 20
175.49503557192048
 10
3427.557925061255
 20
175.49503557192048
 10
3429.236626200469
 20
178.25290172920006
 10
3437.680371439779
 20
175.4785282934268
 10
3440.947457629526
 20
170.1111724102704
 10
3443.330388829371
 20
174.02598795287284
 10
3441.6542042746637
 20
176.77971972132033
 10
3445.967206941524
 20
181.03110806436862
 10
3448.564526429681
 20
176.76408319096802
 10
3446.8978597630144
 20
174.02598795287284
 10
3449.296867333379
 20
170.08476123013128
 10
3454.296867333379
 20
175.5609517063218
 10
3456.897859763015
 20
171.28789271477763
 10
3455.231193096348
 20
168.5497974766823
 10
3457.614124296193
 20
164.63498193408
 10
3459.2245917279215
 20
167.28074985763476
 10
3462.557925061255
 20
167.28074985763476
 10
3465.947457629526
 20
172.8492676483656
 10
3467.621076114476
 20
170.0997515659477
 10
3478.3340317429247
 20
184.99193713736238
 10
3475.006972485329
 20
193.19076173643833
 10
3477.5601066932827
 20
200.18148635345523
 10
3482.578371913006
 20
197.43338873313044
 10
3484.9970554960373
 20
201.40694033382522
 10
3482.5885934176313
 20
205.36369946263557
 10
3479.255260084298
 20
202.62560422454035
 10
3474.224591727922
 20
210.8902736671585
 10
3470.8912583945885
 20
210.8902736671585
 10
3468.3387488104586
 20
215.083682269657
 10
3470.0054154771256
 20
220.55987274584754
 10
3467.5885934176313
 20
224.53036612930222
 10
3464.2552600842982
 20
221.792270891207
 10
3462.557925061255
 20
224.58074985763477
 10
3459.2320685118466
 20
224.58074985763477
 10
3451.680790962859
 20
234.22960450356234
 10
3451.680790962859
 20
245.24450574360367
 10
3455.891258394588
 20
252.16170223858714
 10
3459.336990197797
 20
252.16170223858714
 10
3460.937695876601
 20
249.53197148055162
 10
3467.5305393334274
 20
263.07084643653343
 10
3472.570016370085
 20
268.5902736671585
 10
3475.891258394588
 20
268.5902736671585
 10
3479.2807909628596
 20
274.15879145788944
 10
3484.306321841421
 20
265.90256215739583
 10
3490.9729885080874
 20
271.3787526335864
 10
3494.2807909628596
 20
265.9445057436037
 10
3495.8912583945885
 20
268.5902736671585
 10
3499.2245917279215
 20
268.5902736671585
 10
3505.9219267509648
 20
279.5930383478721
 10
3509.2552600842982
 20
276.85494310977674
 10
3512.5885934176317
 20
282.3311335859673
 10
3515.9219267509648
 20
279.5930383478721
 10
3517.62514207639
 20
282.39117781107035
 10
3523.5441138417864
 20
269.88885989844727
 10
3526.8766363207687
 20
247.9894264651338
 10
3528.5474576295264
 20
245.24450574360367
 10
3528.5474576295264
 20
237.01705886563974
 10
3531.889499781926
 20
226.03606322203797
 10
3521.02405026521
 20
208.18568187314668
 10
3511.027804645423
 20
199.97448011403606
 10
3504.343321506074
 20
186.24741652430143
 10
3502.557925061255
 20
186.24741652430143
 10
3495.947457629526
 20
197.1074701621419
 10
3493.564526429681
 20
193.1926546195395
 10
3495.231193096348
 20
190.45455938144428
 10
3491.8807909628595
 20
184.95032730499906
 10
3491.8807909628595
 20
182.26831526741327
 10
3499.336990197797
 20
170.01884509572994
 10
3504.3295134138725
 20
170.01884509572994
 10
3511.905502521725
 20
160.3384145690302
 10
3500.216302458089
 20
143.87811243860506
 10
3501.8789143681634
 20
119.29520776822322
 10
3505.211326472749
 20
113.82053073926168
 10
3506.8779931394156
 20
97.39195931069023
 10
3508.547457629526
 20
94.6492676483658
 10
3508.547457629526
 20
83.69688669598474
 10
3510.214124296193
 20
80.95879145788953
 10
3510.214124296193
 20
72.68842254309416
 10
3507.670152473834
 20
68.50904026350536
 10
3233.391087816655
 20
69.87864914043007
 10
3231.6807909628596
 20
72.68842254309416
  0
LWPOLYLINE
  5
48
330
17
100
AcDbEntity
  8
C
100
AcDbPolyline
 90
5
 70
1
 10
3451.6637221627043
 20
163.0736070004919
 10
3449.2807909628596
 20
166.98842254309432
 10
3446.8978597630144
 20
163.0736070004919
 10
3449.2807909628596
 20
159.15879145788946
 10
3451.6637221627043
 20
163.0736070004919
  0
LWPOLYLINE
  5
49
330
17
100
AcDbEntity
  8
C
100
AcDbPolyline
 90
19
 70
1
 10
4703.347457629527
 20
15.121623355400903
 10
4703.347457629527
 20
83.69688669598474
 10
4705.947457629525
 20
87.96831526741333
 10
4707.614124296192
 20
85.23022002931813
 10
4709.245038579672
 20
87.90957920932097
 10
4714.245038579673
 20
85.17148397122575
 10
4715.8912583945885
 20
87.87598795287278
 10
4719.31659679705
 20
87.87598795287278
 10
4722.588593417631
 20
85.18827644311011
 10
4724.2245917279215
 20
87.87598795287278
 10
4732.67032353113
 20
87.87598795287278
 10
4736.003656864464
 20
82.39979747668235
 10
4739.336990197798
 20
82.39979747668235
 10
4741.893779190899
 20
78.19935841658499
 10
4726.889655776253
 20
45.3331833178352
 10
4730.21244458943
 20
37.14488231393298
 10
4731.883254752731
 20
17.93056543597904
 10
4729.335151224463
 20
13.744395353825878
 10
4703.347457629527
 20
15.121623355400903
  0
ENDSEC
  0
SECTION
  2
OBJECTS
  0
DICTIONARY
  5
A
330
0
100
AcDbDictionary
281
1
  3
ACAD_COLOR
350
B
  3
ACAD_GROUP
350
C
  3
ACAD_LAYOUT
350
D
  3
ACAD_MATERIAL
350
E
  3
ACAD_MLEADERSTYLE
350
F
  3
ACAD_MLINESTYLE
350
10
  3
ACAD_PLOTSETTINGS
350
11
  3
ACAD_PLOTSTYLENAME
350
12
  3
ACAD_SCALELIST
350
14
  3
ACAD_TABLESTYLE
350
15
  3
ACAD_VISUALSTYLE
350
16
  3
EZDXF_META
350
2D
  0
DICTIONARY
  5
B
330
A
100
AcDbDictionary
281
1
  0
DICTIONARY
  5
C
330
A
100
AcDbDictionary
281
1
  0
DICTIONARY
  5
D
330
A
100
AcDbDictionary
281
1
  3
Model
350
1A
  3
Layout1
350
1E
  0
DICTIONARY
  5
E
330
A
100
AcDbDictionary
281
1
  3
ByBlock
350
1F
  3
ByLayer
350
20
  3
Global
350
21
  0
DICTIONARY
  5
F
330
A
100
AcDbDictionary
281
1
  3
Standard
350
2C
  0
DICTIONARY
  5
10
330
A
100
AcDbDictionary
281
1
  3
Standard
350
22
  0
DICTIONARY
  5
11
330
A
100
AcDbDictionary
281
1
  0
ACDBDICTIONARYWDFLT
  5
12
330
A
100
AcDbDictionary
281
1
  3
Normal
350
13
100
AcDbDictionaryWithDefault
340
13
  0
ACDBPLACEHOLDER
  5
13
330
12
  0
DICTIONARY
  5
14
330
A
100
AcDbDictionary
281
1
  0
DICTIONARY
  5
15
330
A
100
AcDbDictionary
281
1
  0
DICTIONARY
  5
16
330
A
100
AcDbDictionary
281
1
  0
LAYOUT
  5
1A
330
D
100
AcDbPlotSettings
  1

  4
A3
  6

 40
7.5
 41
20.0
 42
7.5
 43
20.0
 44
420.0
 45
297.0
 46
0.0
 47
0.0
 48
0.0
 49
0.0
140
0.0
141
0.0
142
1.0
143
1.0
 70
1024
 72
1
 73
0
 74
5
  7

 75
16
 76
0
 77
2
 78
300
147
1.0
148
0.0
149
0.0
100
AcDbLayout
  1
Model
 70
1
 71
0
 10
0.0
 20
0.0
 11
420.0
 21
297.0
 12
0.0
 22
0.0
 32
0.0
 14
1e+20
 24
1e+20
 34
1e+20
 15
-1e+20
 25
-1e+20
 35
-1e+20
146
0.0
 13
0.0
 23
0.0
 33
0.0
 16
1.0
 26
0.0
 36
0.0
 17
0.0
 27
1.0
 37
0.0
 76
1
330
17
  0
LAYOUT
  5
1E
330
D
100
AcDbPlotSettings
  1

  4
A3
  6

 40
7.5
 41
20.0
 42
7.5
 43
20.0
 44
420.0
 45
297.0
 46
0.0
 47
0.0
 48
0.0
 49
0.0
140
0.0
141
0.0
142
1.0
143
1.0
 70
0
 72
1
 73
0
 74
5
  7

 75
16
 76
0
 77
2
 78
300
147
1.0
148
0.0
149
0.0
100
AcDbLayout
  1
Layout1
 70
1
 71
1
 10
0.0
 20
0.0
 11
420.0
 21
297.0
 12
0.0
 22
0.0
 32
0.0
 14
1e+20
 24
1e+20
 34
1e+20
 15
-1e+20
 25
-1e+20
 35
-1e+20
146
0.0
 13
0.0
 23
0.0
 33
0.0
 16
1.0
 26
0.0
 36
0.0
 17
0.0
 27
1.0
 37
0.0
 76
1
330
1B
  0
MATERIAL
  5
1F
102
{ACAD_REACTORS
330
E
102
}
330
E
100
AcDbMaterial
  1
ByBlock
  2

 70
0
 40
1.0
 71
1
 41
1.0
 91
-1023410177
 42
1.0
 72
1
  3

 73
1
 74
1
 75
1
 44
0.5
 73
0
 45
1.0
 46
1.0
 77
1
  4

 78
1
 79
1
170
1
 48
1.0
171
1
  6

172
1
173
1
174
1
140
1.0
141
1.0
175
1
  7

176
1
177
1
178
1
143
1.0
179
1
  8

270
1
271
1
272
1
145
1.0
146
1.0
273
1
  9

274
1
275
1
276
1
 42
1.0
 72
1
  3

 73
1
 74
1
 75
1
 94
63
  0
MATERIAL
  5
20
102
{ACAD_REACTORS
330
E
102
}
330
E
100
AcDbMaterial
  1
ByLayer
  2

 70
0
 40
1.0
 71
1
 41
1.0
 91
-1023410177
 42
1.0
 72
1
  3

 73
1
 74
1
 75
1
 44
0.5
 73
0
 45
1.0
 46
1.0
 77
1
  4

 78
1
 79
1
170
1
 48
1.0
171
1
  6

172
1
173
1
174
1
140
1.0
141
1.0
175
1
  7

176
1
177
1
178
1
143
1.0
179
1
  8

270
1
271
1
272
1
145
1.0
146
1.0
273
1
  9

274
1
275
1
276
1
 42
1.0
 72
1
  3

 73
1
 74
1
 75
1
 94
63
  0
MATERIAL
  5
21
102
{ACAD_REACTORS
330
E
102
}
330
E
100
AcDbMaterial
  1
Global
  2

 70
0
 40
1.0
 71
1
 41
1.0
 91
-1023410177
 42
1.0
 72
1
  3

 73
1
 74
1
 75
1
 44
0.5
 73
0
 45
1.0
 46
1.0
 77
1
  4

 78
1
 79
1
170
1
 48
1.0
171
1
  6

172
1
173
1
174
1
140
1.0
141
1.0
175
1
  7

176
1
177
1
178
1
143
1.0
179
1
  8

270
1
271
1
272
1
145
1.0
146
1.0
273
1
  9

274
1
275
1
276
1
 42
1.0
 72
1
  3

 73
1
 74
1
 75
1
 94
63
  0
MLINESTYLE
  5
22
102
{ACAD_REACTORS
330
10
102
}
330
10
100
AcDbMlineStyle
  2
Standard
 70
0
  3

 62
256
 51
90.0
 52
90.0
 71
2
 49
0.5
 62
256
  6
BYLAYER
 49
-0.5
 62
256
  6
BYLAYER
  0
MLEADERSTYLE
  5
2C
102
{ACAD_REACTORS
330
F
102
}
330
F
100
AcDbMLeaderStyle
179
2
170
2
171
1
172
0
 90
2
 40
0.0
 41
0.0
173
1
 91
-1056964608
 92
-2
290
1
 42
2.0
291
1
 43
8.0
  3
Standard
 44
4.0
300

342
29
174
1
175
1
176
0
178
1
 93
-1056964608
 45
4.0
292
0
297
0
 46
4.0
 94
-1056964608
 47
1.0
 49
1.0
140
1.0
294
1
141
0.0
177
0
142
1.0
295
0
296
0
143
3.75
271
0
272
9
273
9
  0
DICTIONARY
  5
2D
330
A
100
AcDbDictionary
280
1
281
1
  3
CREATED_BY_EZDXF
350
2E
  3
WRITTEN_BY_EZDXF
350
4C
  0
DICTIONARYVAR
  5
2E
330
2D
100
DictionaryVariables
280
0
  1
1.4.4 @ 2026-07-21T16:54:33.511163+00:00
  0
DICTIONARYVAR
  5
4C
330
2D
100
DictionaryVariables
280
0
  1
1.4.4 @ 2026-07-21T16:54:33.515648+00:00
  0
ENDSEC
  0
EOF
