  0
SECTION
  2
HEADER
  9
$ACADVER
  1
AC1027
  9
$ACADMAINTVER
 70
105
  9
$DWGCODEPAGE
  3
ANSI_1252
  9
$LASTSAVEDBY
  1
ezdxf
  9
$REQUIREDVERSIONS
160
0
  9
$INSBASE
 10
0.0
 20
0.0
 30
0.0
  9
$EXTMIN
 10
1e+20
 20
1e+20
 30
1e+20
  9
$EXTMAX
 10
-1e+20
 20
-1e+20
 30
-1e+20
  9
$LIMMIN
 10
0.0
 20
0.0
  9
$LIMMAX
 10
420.0
 20
297.0
  9
$ORTHOMODE
 70
0
  9
$REGENMODE
 70
1
  9
$FILLMODE
 70
1
  9
$QTEXTMODE
 70
0
  9
$MIRRTEXT
 70
1
  9
$LTSCALE
 40
1.0
  9
$ATTMODE
 70
1
  9
$TEXTSIZE
 40
2.5
  9
$TRACEWID
 40
1.0
  9
$TEXTSTYLE
  7
Standard
  9
$CLAYER
  8
0
  9
$CELTYPE
  6
ByLayer
  9
$CECOLOR
 62
256
  9
$CELTSCALE
 40
1.0
  9
$DISPSILH
 70
0
  9
$DIMSCALE
 40
1.0
  9
$DIMASZ
 40
2.5
  9
$DIMEXO
 40
0.625
  9
$DIMDLI
 40
3.75
  9
$DIMRND
 40
0.0
  9
$DIMDLE
 40
0.0
  9
$DIMEXE
 40
1.25
  9
$DIMTP
 40
0.0
  9
$DIMTM
 40
0.0
  9
$DIMTXT
 40
2.5
  9
$DIMCEN
 40
2.5
  9
$DIMTSZ
 40
0.0
  9
$DIMTOL
 70
0
  9
$DIMLIM
 70
0
  9
$DIMTIH
 70
0
  9
$DIMTOH
 70
0
  9
$DIMSE1
 70
0
  9
$DIMSE2
 70
0
  9
$DIMTAD
 70
1
  9
$DIMZIN
 70
8
  9
$DIMBLK
  1

  9
$DIMASO
 70
1
  9
$DIMSHO
 70
1
  9
$DIMPOST
  1

  9
$DIMAPOST
  1

  9
$DIMALT
 70
0
  9
$DIMALTD
 70
3
  9
$DIMALTF
 40
0.03937007874
  9
$DIMLFAC
 40
1.0
  9
$DIMTOFL
 70
1
  9
$DIMTVP
 40
0.0
  9
$DIMTIX
 70
0
  9
$DIMSOXD
 70
0
  9
$DIMSAH
 70
0
  9
$DIMBLK1
  1

  9
$DIMBLK2
  1

  9
$DIMSTYLE
  2
ISO-25
  9
$DIMCLRD
 70
0
  9
$DIMCLRE
 70
0
  9
$DIMCLRT
 70
0
  9
$DIMTFAC
 40
1.0
  9
$DIMGAP
 40
0.625
  9
$DIMJUST
 70
0
  9
$DIMSD1
 70
0
  9
$DIMSD2
 70
0
  9
$DIMTOLJ
 70
0
  9
$DIMTZIN
 70
8
  9
$DIMALTZ
 70
0
  9
$DIMALTTZ
 70
0
  9
$DIMUPT
 70
0
  9
$DIMDEC
 70
2
  9
$DIMTDEC
 70
2
  9
$DIMALTU
 70
2
  9
$DIMALTTD
 70
3
  9
$DIMTXSTY
  7
Standard
  9
$DIMAUNIT
 70
0
  9
$DIMADEC
 70
0
  9
$DIMALTRND
 40
0.0
  9
$DIMAZIN
 70
0
  9
$DIMDSEP
 70
44
  9
$DIMATFIT
 70
3
  9
$DIMFRAC
 70
0
  9
$DIMLDRBLK
  1

  9
$DIMLUNIT
 70
2
  9
$DIMLWD
 70
-2
  9
$DIMLWE
 70
-2
  9
$DIMTMOVE
 70
0
  9
$DIMFXL
 40
1.0
  9
$DIMFXLON
 70
0
  9
$DIMJOGANG
 40
0.785398163397
  9
$DIMTFILL
 70
0
  9
$DIMTFILLCLR
 70
0
  9
$DIMARCSYM
 70
0
  9
$DIMLTYPE
  6

  9
$DIMLTEX1
  6

  9
$DIMLTEX2
  6

  9
$DIMTXTDIRECTION
 70
0
  9
$LUNITS
 70
2
  9
$LUPREC
 70
4
  9
$SKETCHINC
 40
1.0
  9
$FILLETRAD
 40
10.0
  9
$AUNITS
 70
0
  9
$AUPREC
 70
2
  9
$MENU
  1
.
  9
$ELEVATION
 40
0.0
  9
$PELEVATION
 40
0.0
  9
$THICKNESS
 40
0.0
  9
$LIMCHECK
 70
0
  9
$CHAMFERA
 40
0.0
  9
$CHAMFERB
 40
0.0
  9
$CHAMFERC
 40
0.0
  9
$CHAMFERD
 40
0.0
  9
$SKPOLY
 70
0
  9
$TDCREATE
 40
2461243.8295486113
  9
$TDUCREATE
 40
2458532.153996898
  9
$TDUPDATE
 40
2461243.8295486113
  9
$TDUUPDATE
 40
2458532.1544311
  9
$TDINDWG
 40
0.0
  9
$TDUSRTIMER
 40
0.0
  9
$USRTIMER
 70
1
  9
$ANGBASE
 50
0.0
  9
$ANGDIR
 70
0
  9
$PDMODE
 70
0
  9
$PDSIZE
 40
0.0
  9
$PLINEWID
 40
0.0
  9
$SPLFRAME
 70
0
  9
$SPLINETYPE
 70
6
  9
$SPLINESEGS
 70
8
  9
$HANDSEED
  5
38
  9
$SURFTAB1
 70
6
  9
$SURFTAB2
 70
6
  9
$SURFTYPE
 70
6
  9
$SURFU
 70
6
  9
$SURFV
 70
6
  9
$UCSBASE
  2

  9
$UCSNAME
  2

  9
$UCSORG
 10
0.0
 20
0.0
 30
0.0
  9
$UCSXDIR
 10
1.0
 20
0.0
 30
0.0
  9
$UCSYDIR
 10
0.0
 20
1.0
 30
0.0
  9
$UCSORTHOREF
  2

  9
$UCSORTHOVIEW
 70
0
  9
$UCSORGTOP
 10
0.0
 20
0.0
 30
0.0
  9
$UCSORGBOTTOM
 10
0.0
 20
0.0
 30
0.0
  9
$UCSORGLEFT
 10
0.0
 20
0.0
 30
0.0
  9
$UCSORGRIGHT
 10
0.0
 20
0.0
 30
0.0
  9
$UCSORGFRONT
 10
0.0
 20
0.0
 30
0.0
  9
$UCSORGBACK
 10
0.0
 20
0.0
 30
0.0
  9
$PUCSBASE
  2

  9
$PUCSNAME
  2

  9
$PUCSORG
 10
0.0
 20
0.0
 30
0.0
  9
$PUCSXDIR
 10
1.0
 20
0.0
 30
0.0
  9
$PUCSYDIR
 10
0.0
 20
1.0
 30
0.0
  9
$PUCSORTHOREF
  2

  9
$PUCSORTHOVIEW
 70
0
  9
$PUCSORGTOP
 10
0.0
 20
0.0
 30
0.0
  9
$PUCSORGBOTTOM
 10
0.0
 20
0.0
 30
0.0
  9
$PUCSORGLEFT
 10
0.0
 20
0.0
 30
0.0
  9
$PUCSORGRIGHT
 10
0.0
 20
0.0
 30
0.0
  9
$PUCSORGFRONT
 10
0.0
 20
0.0
 30
0.0
  9
$PUCSORGBACK
 10
0.0
 20
0.0
 30
0.0
  9
$USERI1
 70
0
  9
$USERI2
 70
0
  9
$USERI3
 70
0
  9
$USERI4
 70
0
  9
$USERI5
 70
0
  9
$USERR1
 40
0.0
  9
$USERR2
 40
0.0
  9
$USERR3
 40
0.0
  9
$USERR4
 40
0.0
  9
$USERR5
 40
0.0
  9
$WORLDVIEW
 70
1
  9
$SHADEDGE
 70
3
  9
$SHADEDIF
 70
70
  9
$TILEMODE
 70
1
  9
$MAXACTVP
 70
64
  9
$PINSBASE
 10
0.0
 20
0.0
 30
0.0
  9
$PLIMCHECK
 70
0
  9
$PEXTMIN
 10
1e+20
 20
1e+20
 30
1e+20
  9
$PEXTMAX
 10
-1e+20
 20
-1e+20
 30
-1e+20
  9
$PLIMMIN
 10
0.0
 20
0.0
  9
$PLIMMAX
 10
420.0
 20
297.0
  9
$UNITMODE
 70
0
  9
$VISRETAIN
 70
1
  9
$PLINEGEN
 70
0
  9
$PSLTSCALE
 70
1
  9
$TREEDEPTH
 70
3020
  9
$CMLSTYLE
  2
Standard
  9
$CMLJUST
 70
0
  9
$CMLSCALE
 40
20.0
  9
$PROXYGRAPHICS
 70
1
  9
$MEASUREMENT
 70
1
  9
$CELWEIGHT
370
-1
  9
$ENDCAPS
280
0
  9
$JOINSTYLE
280
0
  9
$LWDISPLAY
290
0
  9
$INSUNITS
 70
4
  9
$HYPERLINKBASE
  1

  9
$STYLESHEET
  1

  9
$XEDIT
290
1
  9
$CEPSNTYPE
380
0
  9
$PSTYLEMODE
290
1
  9
$FINGERPRINTGUID
  2
{14886F50-58BF-4632-AC81-0DA765846462}
  9
$VERSIONGUID
  2
{37C278FB-4417-4DF5-A6E6-D327819BC356}
  9
$EXTNAMES
290
1
  9
$PSVPSCALE
 40
0.0
  9
$OLESTARTUP
290
0
  9
$SORTENTS
280
127
  9
$INDEXCTL
280
0
  9
$HIDETEXT
280
1
  9
$XCLIPFRAME
280
1
  9
$HALOGAP
280
0
  9
$OBSCOLOR
 70
257
  9
$OBSLTYPE
280
0
  9
$INTERSECTIONDISPLAY
280
0
  9
$INTERSECTIONCOLOR
 70
257
  9
$DIMASSOC
280
2
  9
$PROJECTNAME
  1

  9
$CAMERADISPLAY
290
0
  9
$LENSLENGTH
 40
50.0
  9
$CAMERAHEIGHT
 40
0.0
  9
$STEPSPERSEC
 40
24.0
  9
$STEPSIZE
 40
100.0
  9
$3DDWFPREC
 40
2.0
  9
$PSOLWIDTH
 40
0.005
  9
$PSOLHEIGHT
 40
0.08
  9
$LOFTANG1
 40
1.570796326795
  9
$LOFTANG2
 40
1.570796326795
  9
$LOFTMAG1
 40
0.0
  9
$LOFTMAG2
 40
0.0
  9
$LOFTPARAM
 70
7
  9
$LOFTNORMALS
280
1
  9
$LATITUDE
 40
37.795
  9
$LONGITUDE
 40
-122.394
  9
$NORTHDIRECTION
 40
0.0
  9
$TIMEZONE
 70
-8000
  9
$LIGHTGLYPHDISPLAY
280
1
  9
$TILEMODELIGHTSYNCH
280
1
  9
$CMATERIAL
347
20
  9
$SOLIDHIST
280
0
  9
$SHOWHIST
280
1
  9
$DWFFRAME
280
2
  9
$DGNFRAME
280
2
  9
$REALWORLDSCALE
290
1
  9
$INTERFERECOLOR
 62
256
  9
$CSHADOW
280
0
  9
$SHADOWPLANELOCATION
 40
0.0
  0
ENDSEC
  0
SECTION
  2
CLASSES
  0
CLASS
  1
ACDBDICTIONARYWDFLT
  2
AcDbDictionaryWithDefault
  3
ObjectDBX Classes
 90
0
 91
0
280
0
281
0
  0
CLASS
  1
SUN
  2
AcDbSun
  3
SCENEOE
 90
1153
 91
0
280
0
281
0
  0
CLASS
  1
VISUALSTYLE
  2
AcDbVisualStyle
  3
ObjectDBX Classes
 90
4095
 91
0
280
0
281
0
  0
CLASS
  1
MATERIAL
  2
AcDbMaterial
  3
ObjectDBX Classes
 90
1153
 91
0
280
0
281
0
  0
CLASS
  1
SCALE
  2
AcDbScale
  3
ObjectDBX Classes
 90
1153
 91
0
280
0
281
0
  0
CLASS
  1
TABLESTYLE
  2
AcDbTableStyle
  3
ObjectDBX Classes
 90
4095
 91
0
280
0
281
0
  0
CLASS
  1
MLEADERSTYLE
  2
AcDbMLeaderStyle
  3
ACDB_MLEADERSTYLE_CLASS
 90
4095
 91
0
280
0
281
0
  0
CLASS
  1
DICTIONARYVAR
  2
AcDbDictionaryVar
  3
ObjectDBX Classes
 90
0
 91
0
280
0
281
0
  0
CLASS
  1
CELLSTYLEMAP
  2
AcDbCellStyleMap
  3
ObjectDBX Classes
 90
1152
 91
0
280
0
281
0
  0
CLASS
  1
MENTALRAYRENDERSETTINGS
  2
AcDbMentalRayRenderSettings
  3
SCENEOE
 90
1024
 91
0
280
0
281
0
  0
CLASS
  1
ACDBDETAILVIEWSTYLE
  2
AcDbDetailViewStyle
  3
ObjectDBX Classes
 90
1025
 91
0
280
0
281
0
  0
CLASS
  1
ACDBSECTIONVIEWSTYLE
  2
AcDbSectionViewStyle
  3
ObjectDBX Classes
 90
1025
 91
0
280
0
281
0
  0
CLASS
  1
RASTERVARIABLES
  2
AcDbRasterVariables
  3
ISM
 90
0
 91
0
280
0
281
0
  0
CLASS
  1
ACDBPLACEHOLDER
  2
AcDbPlaceHolder
  3
ObjectDBX Classes
 90
0
 91
0
280
0
281
0
  0
CLASS
  1
LAYOUT
  2
AcDbLayout
  3
ObjectDBX Classes
 90
0
 91
0
280
0
281
0
  0
ENDSEC
  0
SECTION
  2
TABLES
  0
TABLE
  2
VPORT
  5
8
330
0
100
AcDbSymbolTable
 70
1
  0
VPORT
  5
23
330
8
100
AcDbSymbolTableRecord
100
AcDbViewportTableRecord
  2
*Active
 70
0
 10
0.0
 20
0.0
 11
1.0
 21
1.0
 12
0.0
 22
0.0
 13
0.0
 23
0.0
 14
0.5
 24
0.5
 15
0.5
 25
0.5
 16
0.0
 26
0.0
 36
1.0
 17
0.0
 27
0.0
 37
0.0
 40
1000.0
 41
1.34
 42
50.0
 43
0.0
 44
0.0
 50
0.0
 51
0.0
 71
0
 72
1000
 73
1
 74
3
 75
0
 76
0
 77
0
 78
0
281
0
 65
0
146
0.0
  0
ENDTAB
  0
TABLE
  2
LTYPE
  5
2
330
0
100
AcDbSymbolTable
 70
3
  0
LTYPE
  5
24
330
2
100
AcDbSymbolTableRecord
100
AcDbLinetypeTableRecord
  2
ByBlock
 70
0
  3

 72
65
 73
0
 40
0.0
  0
LTYPE
  5
25
330
2
100
AcDbSymbolTableRecord
100
AcDbLinetypeTableRecord
  2
ByLayer
 70
0
  3

 72
65
 73
0
 40
0.0
  0
LTYPE
  5
26
330
2
100
AcDbSymbolTableRecord
100
AcDbLinetypeTableRecord
  2
Continuous
 70
0
  3

 72
65
 73
0
 40
0.0
  0
ENDTAB
  0
TABLE
  2
LAYER
  5
1
330
0
100
AcDbSymbolTable
 70
3
  0
LAYER
  5
27
330
1
100
AcDbSymbolTableRecord
100
AcDbLayerTableRecord
  2
0
 70
0
 62
7
  6
Continuous
370
-3
390
13
347
21
  0
LAYER
  5
28
330
1
100
AcDbSymbolTableRecord
100
AcDbLayerTableRecord
  2
Defpoints
 70
0
 62
7
  6
Continuous
290
0
370
-3
390
13
347
21
  0
LAYER
  5
2F
330
1
100
AcDbSymbolTableRecord
100
AcDbLayerTableRecord
  2
M
 70
0
 62
7
  6
Continuous
370
-3
390
13
347
21
  0
ENDTAB
  0
TABLE
  2
STYLE
  5
5
330
0
100
AcDbSymbolTable
 70
1
  0
STYLE
  5
29
330
5
100
AcDbSymbolTableRecord
100
AcDbTextStyleTableRecord
  2
Standard
 70
0
 40
0.0
 41
1.0
 50
0.0
 71
0
 42
2.5
  3
txt
  4

  0
ENDTAB
  0
TABLE
  2
VIEW
  5
7
330
0
100
AcDbSymbolTable
 70
0
  0
ENDTAB
  0
TABLE
  2
UCS
  5
6
330
0
100
AcDbSymbolTable
 70
0
  0
ENDTAB
  0
TABLE
  2
APPID
  5
3
330
0
100
AcDbSymbolTable
 70
3
  0
APPID
  5
2A
330
3
100
AcDbSymbolTableRecord
100
AcDbRegAppTableRecord
  2
ACAD
 70
0
  0
APPID
  5
35
330
3
100
AcDbSymbolTableRecord
100
AcDbRegAppTableRecord
  2
HATCHBACKGROUNDCOLOR
 70
0
  0
APPID
  5
36
330
3
100
AcDbSymbolTableRecord
100
AcDbRegAppTableRecord
  2
EZDXF
 70
0
  0
ENDTAB
  0
TABLE
  2
DIMSTYLE
  5
4
330
0
100
AcDbSymbolTable
 70
1
100
AcDbDimStyleTable
  0
DIMSTYLE
105
2B
330
4
100
AcDbSymbolTableRecord
100
AcDbDimStyleTableRecord
  2
Standard
 70
0
 40
1.0
 41
2.5
 42
0.625
 43
3.75
 44
1.25
 45
0.0
 46
0.0
 47
0.0
 48
0.0
 49
2.5
140
2.5
141
2.5
142
0.0
143
0.03937007874
144
1.0
145
0.0
146
1.0
147
0.625
148
0.0
 69
0
 70
0
 71
0
 72
0
 73
0
 74
0
 75
0
 76
0
 77
1
 78
8
 79
3
170
0
171
3
172
1
173
0
174
0
175
0
176
0
177
0
178
0
179
2
271
2
272
2
273
2
274
3
275
0
276
0
277
2
278
44
279
0
280
0
281
0
282
0
283
0
284
8
285
0
286
0
288
0
289
3
290
0
371
-2
372
-2
  0
ENDTAB
  0
TABLE
  2
BLOCK_RECORD
  5
9
330
0
100
AcDbSymbolTable
 70
2
  0
BLOCK_RECORD
  5
17
330
9
100
AcDbSymbolTableRecord
100
AcDbBlockTableRecord
  2
*Model_Space
340
1A
 70
0
280
1
281
0
  0
BLOCK_RECORD
  5
1B
330
9
100
AcDbSymbolTableRecord
100
AcDbBlockTableRecord
  2
*Paper_Space
340
1E
 70
0
280
1
281
0
  0
ENDTAB
  0
ENDSEC
  0
SECTION
  2
BLOCKS
  0
BLOCK
  5
18
330
17
100
AcDbEntity
  8
0
100
AcDbBlockBegin
  2
*Model_Space
 70
0
 10
0.0
 20
0.0
 30
0.0
  3
*Model_Space
  1

  0
ENDBLK
  5
19
330
17
100
AcDbEntity
  8
0
100
AcDbBlockEnd
  0
BLOCK
  5
1C
330
1B
100
AcDbEntity
  8
0
100
AcDbBlockBegin
  2
*Paper_Space
 70
0
 10
0.0
 20
0.0
 30
0.0
  3
*Paper_Space
  1

  0
ENDBLK
  5
1D
330
1B
100
AcDbEntity
  8
0
100
AcDbBlockEnd
  0
ENDSEC
  0
SECTION
  2
ENTITIES
  0
LWPOLYLINE
  5
30
330
17
100
AcDbEntity
  8
M
100
AcDbPolyline
 90
162
 70
1
 10
6.668396458305081
 20
45.33490967807208
 10
3.344902963575924
 20
50.79493470512719
 10
1.678236296909219
 20
91.86636327655573
 10
0.0
 20
94.62346576433522
 10
2.564902450976403
 20
101.6464129515322
 10
5.979577778230216
 20
98.84150107557355
 10
15.973688392659557
 20
98.84150107557355
 10
24.30702172599286
 20
93.36531059938314
 10
34.31291111156354
 20
93.36531059938314
 10
40.97957777823025
 20
87.88912012319261
 10
50.97957777823026
 20
87.88912012319261
 10
57.58490773214431
 20
82.46331337533475
 10
59.99336981055059
 20
86.42007250414507
 10
58.34377194403895
 20
89.13012614198546
 10
58.34377194403895
 20
116.56716172344738
 10
60.001729791638425
 20
119.29094961593223
 10
58.339243115515636
 20
124.7534058374784
 10
60.001729791638425
 20
130.21586205902446
 10
55.943771944038986
 20
136.88250709436645
 10
54.28880604127939
 20
134.16363453983294
 10
47.56280807990543
 20
142.4510248850974
 10
44.220906042434564
 20
142.4510248850974
 10
42.57468622751903
 20
145.15552886674453
 10
37.68194337707897
 20
142.4761696867417
 10
34.33330451230998
 20
136.9748344089069
 10
20.887572709101242
 20
136.9748344089069
 10
18.322886973840326
 20
141.18824668826423
 10
26.66654034764049
 20
152.1541911224018
 10
23.3350631249718
 20
163.10047342545607
 10
27.554239375767953
 20
170.0319772660498
 10
32.554239375767956
 20
170.0319772660498
 10
35.94377194403897
 20
175.60049505678077
 10
37.61043861070568
 20
172.86239981868545
 10
39.286867030297046
 20
175.61653222230012
 10
45.95353369696375
 20
161.92605603182386
 10
49.232940514981614
 20
167.31365294713896
 10
57.676685754291746
 20
164.53927951136572
 10
60.99997117897671
 20
159.07959631366884
 10
67.65806914150585
 20
159.07959631366884
 10
74.32473580817256
 20
150.86531059938312
 10
79.32121320348018
 20
150.86531059938312
 10
84.32121320348018
 20
145.3891201231926
 10
100.8875727091012
 20
145.3891201231926
 10
105.00610387589803
 20
152.15527846864452
 10
103.33943720923133
 20
163.10765942102546
 10
106.66003647721722
 20
168.56292964700214
 10
105.00172979163847
 20
171.28729063045313
 10
106.66839645830505
 20
176.76348110664352
 10
103.34711627483584
 20
182.2198699794859
 10
101.68104313193271
 20
195.90547079619014
 10
92.54324629043298
 20
208.18809382340086
 10
87.5389338443323
 20
210.92855063912265
 10
82.58490773214422
 20
219.06730782343152
 10
72.60057943901165
 20
210.86589529692978
 10
67.62651498122507
 20
216.31368017926755
 10
64.26915691022106
 20
210.79802049118933
 10
55.91095857605377
 20
227.2756114928335
 10
52.64624444489685
 20
224.5938820279546
 10
42.55423937576796
 20
224.5938820279546
 10
40.88757270910126
 20
227.33197726604982
 10
35.891270825642586
 20
227.33197726604982
 10
21.673254732441414
 20
247.94212664484994
 10
23.340311897851905
 20
261.6358105035786
 10
21.66003647721726
 20
264.39626298033545
 10
24.220906042434542
 20
268.6034058374783
 10
34.22090604243455
 20
268.6034058374783
 10
38.32670314388387
 20
275.3486439327165
 10
35.00000000000003
 20
280.81394195481136
 10
37.5497083911841
 20
287.7952863592438
 10
45.899607181648314
 20
285.05174818523415
 10
49.99336981055058
 20
291.77721536128786
 10
48.326703143883876
 20
294.51531059938316
 10
50.943771944038986
 20
298.81478077106647
 10
52.61043861070558
 20
296.07668553297117
 10
55.92769557351951
 20
301.5264648290226
 10
60.927695573519514
 20
296.05027435283205
 10
63.335063124971725
 20
300.00523533021794
 10
61.66839645830513
 20
305.4814258064085
 10
64.22090604243458
 20
309.674834408907
 10
67.65806914150585
 20
309.674834408907
 10
74.2654045134652
 20
301.5336533256
 10
77.56627384831494
 20
306.956510089996
 10
86.01001908762507
 20
304.1821366542228
 10
88.55248076310617
 20
300.00523533021794
 10
86.88581409643947
 20
294.5290448540275
 10
90.95984831455839
 20
287.8359886385463
 10
95.89966401793116
 20
293.24626298033553
 10
99.33330451231004
 20
293.24626298033553
 10
107.61043861070563
 20
279.64811410439984
 10
109.22090604243462
 20
282.29388202795457
 10
112.66663784564335
 20
282.29388202795457
 10
117.66663784564335
 20
274.07959631366884
 10
120.99997117897665
 20
274.07959631366884
 10
122.64619099389229
 20
271.3750923320217
 10
127.53893384433235
 20
274.05445151202457
 10
132.53005675810837
 20
282.2541534417995
 10
137.56633068459777
 20
287.770072504145
 10
140.88757270910125
 20
287.770072504145
 10
144.22675684523068
 20
293.2558750135004
 10
160.9942236931391
 20
290.5012197456297
 10
165.95363111573292
 20
285.0694878065984
 10
169.30263615593367
 20
287.82045623247757
 10
172.6666378456434
 20
282.29388202795457
 10
179.33330451231
 20
282.29388202795457
 10
180.95984831455846
 20
279.6217029242607
 10
185.95984831455849
 20
285.0978934004511
 10
187.63596948926698
 20
282.34426575628714
 10
190.96930282260038
 20
285.0823609943823
 10
195.22087722141123
 20
278.0976316249073
 10
192.63307562129484
 20
271.0119843864937
 10
190.94377194403899
 20
273.7872689991284
 10
188.560840744194
 20
269.872453456526
 10
195.2275074108607
 20
258.9200725041451
 10
193.55248076310616
 20
256.1682430114055
 10
195.21914742977287
 20
250.69205253521497
 10
191.87376094657537
 20
245.19606045567633
 10
190.20709427990877
 20
231.50558426520018
 10
187.62651498122506
 20
227.26606113164848
 10
182.62651498122517
 20
232.74225160783902
 10
179.3361869554929
 20
227.33671270842183
 10
147.6695202888263
 20
224.59861747032662
 10
145.99997117897666
 20
221.8557867898594
 10
135.99997117897666
 20
221.8557867898594
 10
133.54377194403898
 20
217.82060233246182
 10
133.54377194403898
 20
187.7015547134141
 10
131.8771052773723
 20
184.9634594753189
 10
131.8771052773723
 20
176.74917376103315
 10
128.5578962402314
 20
171.2961874857303
 10
136.00568472908404
 20
156.34150107557366
 10
139.33330451230995
 20
156.34150107557366
 10
144.30263615593375
 20
148.17759908962046
 10
147.63596948926704
 20
150.91569432771567
 10
153.5437719440389
 20
141.21001886630447
 10
153.5437719440389
 20
130.25763791392353
 10
156.87710527737232
 20
124.78144743773312
 10
156.87710527737232
 20
113.77298328484264
 10
147.63596948926704
 20
98.59111734724102
 10
144.2412994431811
 20
101.37959631366888
 10
135.88757270910122
 20
101.37959631366888
 10
134.22090604243465
 20
104.1176915517641
 10
127.55423937576793
 20
104.1176915517641
 10
124.22090604243463
 20
109.59388202795462
 10
119.22090604243462
 20
109.59388202795462
 10
117.55423937576792
 20
112.33197726604982
 10
114.33330451231005
 20
112.33197726604982
 10
112.61043861070563
 20
109.50155471341417
 10
110.8875727091012
 20
112.33197726604982
 10
107.66315965763829
 20
112.33197726604982
 10
92.68490778830574
 20
90.45897453623097
 10
79.31291111156358
 20
79.4748344089069
 10
75.99540759674417
 20
79.4748344089069
 10
64.34340772510194
 20
63.06691622230887
 10
52.670900934402184
 20
57.58798446340896
 10
47.654546536813555
 20
52.09388202795462
 10
34.33330451230998
 20
52.09388202795462
 10
32.666637845643386
 20
49.3557867898593
 10
25.99140247483922
 20
49.3557867898593
 10
12.6246945955093
 20
32.88609315282787
 10
9.30263615593374
 20
35.61492687105061
 10
7.587801600116406
 20
32.79769867220794
 10
5.005031751040279
 20
39.869568497059134
 10
6.668396458305081
 20
45.33490967807208
  0
LWPOLYLINE
  5
31
330
17
100
AcDbEntity
  8
M
100
AcDbPolyline
 90
5
 70
1
 10
57.65101107869186
 20
312.4933373455908
 10
60.22087722141123
 20
305.4567990976685
 10
57.61043861070569
 20
301.1682213800808
 10
53.31718525584328
 20
308.2214233202116
 10
57.65101107869186
 20
312.4933373455908
  0
LWPOLYLINE
  5
32
330
17
100
AcDbEntity
  8
M
100
AcDbPolyline
 90
5
 70
1
 10
22.630187922703882
 20
11.282335472783679
 10
26.894174077527367
 20
4.277215361287889
 10
24.290651683699927
 20
0.0
 10
18.307335636228327
 20
7.021238218971937
 10
22.630187922703882
 20
11.282335472783679
  0
LWPOLYLINE
  5
33
330
17
100
AcDbEntity
  8
M
100
AcDbPolyline
 90
38
 70
1
 10
1520.887572709101
 20
35.66531059938316
 10
1515.899664017931
 20
35.66531059938316
 10
1510.9598483145583
 20
41.07558494117225
 10
1509.33330451231
 20
38.40340583747837
 10
1505.887572709101
 20
38.40340583747837
 10
1504.220906042434
 20
41.14150107557357
 10
1500.890681132839
 20
41.14150107557357
 10
1484.2653756309837
 20
65.72320278188771
 10
1479.197231363955
 20
60.17237810847487
 10
1478.3403480699376
 20
70.02653598967612
 10
1483.3193657543725
 20
75.47974583453309
 10
1481.660036477217
 20
78.20578678985935
 10
1484.2209060424345
 20
82.4129296470022
 10
1485.9999711789765
 20
82.4129296470022
 10
1492.6666378456432
 20
71.46054869462127
 10
1500.9999711789765
 20
71.46054869462127
 10
1504.277105277372
 20
66.0766855329713
 10
1507.594362240186
 20
71.5264648290227
 10
1512.6202977823993
 20
66.02186875897931
 10
1515.9437719440384
 20
68.75186539175448
 10
1519.2672461056782
 20
66.02186875897931
 10
1524.3052530520304
 20
71.53968589069859
 10
1529.3087089830522
 20
60.57973480369861
 10
1533.3575554495683
 20
64.57074060640733
 10
1535.8738331861334
 20
71.46054869462127
 10
1539.3333045123097
 20
71.46054869462127
 10
1540.9437719440389
 20
68.81478077106651
 10
1542.5542393757676
 20
71.46054869462127
 10
1545.989939497765
 20
71.46054869462127
 10
1551.8771052773718
 20
64.55213987161301
 10
1551.8771052773718
 20
59.01107852293785
 10
1550.2275074108604
 20
56.301024885097476
 10
1551.8771052773718
 20
53.59097124725698
 10
1551.8771052773718
 20
31.686209342495108
 10
1553.560840744194
 20
28.92007250414508
 10
1550.9894107887706
 20
24.695580434520913
 10
1522.5452402610888
 20
32.94199962111766
 10
1520.887572709101
 20
35.66531059938316
  0
LWPOLYLINE
  5
34
330
17
100
AcDbEntity
  8
M
100
AcDbPolyline
 90
5
 70
1
 10
1543.333333333333
 20
61.766322907192304
 10
1540.966408954628
 20
65.65484152935075
 10
1538.5542105547443
 20
59.05001257728837
 10
1540.9211349334494
 20
55.161493955129814
 10
1543.333333333333
 20
61.766322907192304
  0
ENDSEC
  0
SECTION
  2
OBJECTS
  0
DICTIONARY
  5
A
330
0
100
AcDbDictionary
281
1
  3
ACAD_COLOR
350
B
  3
ACAD_GROUP
350
C
  3
ACAD_LAYOUT
350
D
  3
ACAD_MATERIAL
350
E
  3
ACAD_MLEADERSTYLE
350
F
  3
ACAD_MLINESTYLE
350
10
  3
ACAD_PLOTSETTINGS
350
11
  3
ACAD_PLOTSTYLENAME
350
12
  3
ACAD_SCALELIST
350
14
  3
ACAD_TABLESTYLE
350
15
  3
ACAD_VISUALSTYLE
350
16
  3
EZDXF_META
350
2D
  0
DICTIONARY
  5
B
330
A
100
AcDbDictionary
281
1
  0
DICTIONARY
  5
C
330
A
100
AcDbDictionary
281
1
  0
DICTIONARY
  5
D
330
A
100
AcDbDictionary
281
1
  3
Model
350
1A
  3
Layout1
350
1E
  0
DICTIONARY
  5
E
330
A
100
AcDbDictionary
281
1
  3
ByBlock
350
1F
  3
ByLayer
350
20
  3
Global
350
21
  0
DICTIONARY
  5
F
330
A
100
AcDbDictionary
281
1
  3
Standard
350
2C
  0
DICTIONARY
  5
10
330
A
100
AcDbDictionary
281
1
  3
Standard
350
22
  0
DICTIONARY
  5
11
330
A
100
AcDbDictionary
281
1
  0
ACDBDICTIONARYWDFLT
  5
12
330
A
100
AcDbDictionary
281
1
  3
Normal
350
13
100
AcDbDictionaryWithDefault
340
13
  0
ACDBPLACEHOLDER
  5
13
330
12
  0
DICTIONARY
  5
14
330
A
100
AcDbDictionary
281
1
  0
DICTIONARY
  5
15
330
A
100
AcDbDictionary
281
1
  0
DICTIONARY
  5
16
330
A
100
AcDbDictionary
281
1
  0
LAYOUT
  5
1A
330
D
100
AcDbPlotSettings
  1

  4
A3
  6

 40
7.5
 41
20.0
 42
7.5
 43
20.0
 44
420.0
 45
297.0
 46
0.0
 47
0.0
 48
0.0
 49
0.0
140
0.0
141
0.0
142
1.0
143
1.0
 70
1024
 72
1
 73
0
 74
5
  7

 75
16
 76
0
 77
2
 78
300
147
1.0
148
0.0
149
0.0
100
AcDbLayout
  1
Model
 70
1
 71
0
 10
0.0
 20
0.0
 11
420.0
 21
297.0
 12
0.0
 22
0.0
 32
0.0
 14
1e+20
 24
1e+20
 34
1e+20
 15
-1e+20
 25
-1e+20
 35
-1e+20
146
0.0
 13
0.0
 23
0.0
 33
0.0
 16
1.0
 26
0.0
 36
0.0
 17
0.0
 27
1.0
 37
0.0
 76
1
330
17
  0
LAYOUT
  5
1E
330
D
100
AcDbPlotSettings
  1

  4
A3
  6

 40
7.5
 41
20.0
 42
7.5
 43
20.0
 44
420.0
 45
297.0
 46
0.0
 47
0.0
 48
0.0
 49
0.0
140
0.0
141
0.0
142
1.0
143
1.0
 70
0
 72
1
 73
0
 74
5
  7

 75
16
 76
0
 77
2
 78
300
147
1.0
148
0.0
149
0.0
100
AcDbLayout
  1
Layout1
 70
1
 71
1
 10
0.0
 20
0.0
 11
420.0
 21
297.0
 12
0.0
 22
0.0
 32
0.0
 14
1e+20
 24
1e+20
 34
1e+20
 15
-1e+20
 25
-1e+20
 35
-1e+20
146
0.0
 13
0.0
 23
0.0
 33
0.0
 16
1.0
 26
0.0
 36
0.0
 17
0.0
 27
1.0
 37
0.0
 76
1
330
1B
  0
MATERIAL
  5
1F
102
{ACAD_REACTORS
330
E
102
}
330
E
100
AcDbMaterial
  1
ByBlock
  2

 70
0
 40
1.0
 71
1
 41
1.0
 91
-1023410177
 42
1.0
 72
1
  3

 73
1
 74
1
 75
1
 44
0.5
 73
0
 45
1.0
 46
1.0
 77
1
  4

 78
1
 79
1
170
1
 48
1.0
171
1
  6

172
1
173
1
174
1
140
1.0
141
1.0
175
1
  7

176
1
177
1
178
1
143
1.0
179
1
  8

270
1
271
1
272
1
145
1.0
146
1.0
273
1
  9

274
1
275
1
276
1
 42
1.0
 72
1
  3

 73
1
 74
1
 75
1
 94
63
  0
MATERIAL
  5
20
102
{ACAD_REACTORS
330
E
102
}
330
E
100
AcDbMaterial
  1
ByLayer
  2

 70
0
 40
1.0
 71
1
 41
1.0
 91
-1023410177
 42
1.0
 72
1
  3

 73
1
 74
1
 75
1
 44
0.5
 73
0
 45
1.0
 46
1.0
 77
1
  4

 78
1
 79
1
170
1
 48
1.0
171
1
  6

172
1
173
1
174
1
140
1.0
141
1.0
175
1
  7

176
1
177
1
178
1
143
1.0
179
1
  8

270
1
271
1
272
1
145
1.0
146
1.0
273
1
  9

274
1
275
1
276
1
 42
1.0
 72
1
  3

 73
1
 74
1
 75
1
 94
63
  0
MATERIAL
  5
21
102
{ACAD_REACTORS
330
E
102
}
330
E
100
AcDbMaterial
  1
Global
  2

 70
0
 40
1.0
 71
1
 41
1.0
 91
-1023410177
 42
1.0
 72
1
  3

 73
1
 74
1
 75
1
 44
0.5
 73
0
 45
1.0
 46
1.0
 77
1
  4

 78
1
 79
1
170
1
 48
1.0
171
1
  6

172
1
173
1
174
1
140
1.0
141
1.0
175
1
  7

176
1
177
1
178
1
143
1.0
179
1
  8

270
1
271
1
272
1
145
1.0
146
1.0
273
1
  9

274
1
275
1
276
1
 42
1.0
 72
1
  3

 73
1
 74
1
 75
1
 94
63
  0
MLINESTYLE
  5
22
102
{ACAD_REACTORS
330
10
102
}
330
10
100
AcDbMlineStyle
  2
Standard
 70
0
  3

 62
256
 51
90.0
 52
90.0
 71
2
 49
0.5
 62
256
  6
BYLAYER
 49
-0.5
 62
256
  6
BYLAYER
  0
MLEADERSTYLE
  5
2C
102
{ACAD_REACTORS
330
F
102
}
330
F
100
AcDbMLeaderStyle
179
2
170
2
171
1
172
0
 90
2
 40
0.0
 41
0.0
173
1
 91
-1056964608
 92
-2
290
1
 42
2.0
291
1
 43
8.0
  3
Standard
 44
4.0
300

342
29
174
1
175
1
176
0
178
1
 93
-1056964608
 45
4.0
292
0
297
0
 46
4.0
 94
-1056964608
 47
1.0
 49
1.0
140
1.0
294
1
141
0.0
177
0
142
1.0
295
0
296
0
143
3.75
271
0
272
9
273
9
  0
DICTIONARY
  5
2D
330
A
100
AcDbDictionary
280
1
281
1
  3
CREATED_BY_EZDXF
350
2E
  3
WRITTEN_BY_EZDXF
350
37
  0
DICTIONARYVAR
  5
2E
330
2D
100
DictionaryVariables
280
0
  1
1.4.4 @ 2026-07-21T16:54:33.532423+00:00
  0
DICTIONARYVAR
  5
37
330
2D
100
DictionaryVariables
280
0
  1
1.4.4 @ 2026-07-21T16:54:33.535968+00:00
  0
ENDSEC
  0
EOF
