  0
SECTION
  2
HEADER
  9
$ACADVER
  1
AC1027
  9
$ACADMAINTVER
 70
105
  9
$DWGCODEPAGE
  3
ANSI_1252
  9
$LASTSAVEDBY
  1
ezdxf
  9
$REQUIREDVERSIONS
160
0
  9
$INSBASE
 10
0.0
 20
0.0
 30
0.0
  9
$EXTMIN
 10
1e+20
 20
1e+20
 30
1e+20
  9
$EXTMAX
 10
-1e+20
 20
-1e+20
 30
-1e+20
  9
$LIMMIN
 10
0.0
 20
0.0
  9
$LIMMAX
 10
420.0
 20
297.0
  9
$ORTHOMODE
 70
0
  9
$REGENMODE
 70
1
  9
$FILLMODE
 70
1
  9
$QTEXTMODE
 70
0
  9
$MIRRTEXT
 70
1
  9
$LTSCALE
 40
1.0
  9
$ATTMODE
 70
1
  9
$TEXTSIZE
 40
2.5
  9
$TRACEWID
 40
1.0
  9
$TEXTSTYLE
  7
Standard
  9
$CLAYER
  8
0
  9
$CELTYPE
  6
ByLayer
  9
$CECOLOR
 62
256
  9
$CELTSCALE
 40
1.0
  9
$DISPSILH
 70
0
  9
$DIMSCALE
 40
1.0
  9
$DIMASZ
 40
2.5
  9
$DIMEXO
 40
0.625
  9
$DIMDLI
 40
3.75
  9
$DIMRND
 40
0.0
  9
$DIMDLE
 40
0.0
  9
$DIMEXE
 40
1.25
  9
$DIMTP
 40
0.0
  9
$DIMTM
 40
0.0
  9
$DIMTXT
 40
2.5
  9
$DIMCEN
 40
2.5
  9
$DIMTSZ
 40
0.0
  9
$DIMTOL
 70
0
  9
$DIMLIM
 70
0
  9
$DIMTIH
 70
0
  9
$DIMTOH
 70
0
  9
$DIMSE1
 70
0
  9
$DIMSE2
 70
0
  9
$DIMTAD
 70
1
  9
$DIMZIN
 70
8
  9
$DIMBLK
  1

  9
$DIMASO
 70
1
  9
$DIMSHO
 70
1
  9
$DIMPOST
  1

  9
$DIMAPOST
  1

  9
$DIMALT
 70
0
  9
$DIMALTD
 70
3
  9
$DIMALTF
 40
0.03937007874
  9
$DIMLFAC
 40
1.0
  9
$DIMTOFL
 70
1
  9
$DIMTVP
 40
0.0
  9
$DIMTIX
 70
0
  9
$DIMSOXD
 70
0
  9
$DIMSAH
 70
0
  9
$DIMBLK1
  1

  9
$DIMBLK2
  1

  9
$DIMSTYLE
  2
ISO-25
  9
$DIMCLRD
 70
0
  9
$DIMCLRE
 70
0
  9
$DIMCLRT
 70
0
  9
$DIMTFAC
 40
1.0
  9
$DIMGAP
 40
0.625
  9
$DIMJUST
 70
0
  9
$DIMSD1
 70
0
  9
$DIMSD2
 70
0
  9
$DIMTOLJ
 70
0
  9
$DIMTZIN
 70
8
  9
$DIMALTZ
 70
0
  9
$DIMALTTZ
 70
0
  9
$DIMUPT
 70
0
  9
$DIMDEC
 70
2
  9
$DIMTDEC
 70
2
  9
$DIMALTU
 70
2
  9
$DIMALTTD
 70
3
  9
$DIMTXSTY
  7
Standard
  9
$DIMAUNIT
 70
0
  9
$DIMADEC
 70
0
  9
$DIMALTRND
 40
0.0
  9
$DIMAZIN
 70
0
  9
$DIMDSEP
 70
44
  9
$DIMATFIT
 70
3
  9
$DIMFRAC
 70
0
  9
$DIMLDRBLK
  1

  9
$DIMLUNIT
 70
2
  9
$DIMLWD
 70
-2
  9
$DIMLWE
 70
-2
  9
$DIMTMOVE
 70
0
  9
$DIMFXL
 40
1.0
  9
$DIMFXLON
 70
0
  9
$DIMJOGANG
 40
0.785398163397
  9
$DIMTFILL
 70
0
  9
$DIMTFILLCLR
 70
0
  9
$DIMARCSYM
 70
0
  9
$DIMLTYPE
  6

  9
$DIMLTEX1
  6

  9
$DIMLTEX2
  6

  9
$DIMTXTDIRECTION
 70
0
  9
$LUNITS
 70
2
  9
$LUPREC
 70
4
  9
$SKETCHINC
 40
1.0
  9
$FILLETRAD
 40
10.0
  9
$AUNITS
 70
0
  9
$AUPREC
 70
2
  9
$MENU
  1
.
  9
$ELEVATION
 40
0.0
  9
$PELEVATION
 40
0.0
  9
$THICKNESS
 40
0.0
  9
$LIMCHECK
 70
0
  9
$CHAMFERA
 40
0.0
  9
$CHAMFERB
 40
0.0
  9
$CHAMFERC
 40
0.0
  9
$CHAMFERD
 40
0.0
  9
$SKPOLY
 70
0
  9
$TDCREATE
 40
2461239.5755208335
  9
$TDUCREATE
 40
2458532.153996898
  9
$TDUPDATE
 40
2461239.5755208335
  9
$TDUUPDATE
 40
2458532.1544311
  9
$TDINDWG
 40
0.0
  9
$TDUSRTIMER
 40
0.0
  9
$USRTIMER
 70
1
  9
$ANGBASE
 50
0.0
  9
$ANGDIR
 70
0
  9
$PDMODE
 70
0
  9
$PDSIZE
 40
0.0
  9
$PLINEWID
 40
0.0
  9
$SPLFRAME
 70
0
  9
$SPLINETYPE
 70
6
  9
$SPLINESEGS
 70
8
  9
$HANDSEED
  5
3C
  9
$SURFTAB1
 70
6
  9
$SURFTAB2
 70
6
  9
$SURFTYPE
 70
6
  9
$SURFU
 70
6
  9
$SURFV
 70
6
  9
$UCSBASE
  2

  9
$UCSNAME
  2

  9
$UCSORG
 10
0.0
 20
0.0
 30
0.0
  9
$UCSXDIR
 10
1.0
 20
0.0
 30
0.0
  9
$UCSYDIR
 10
0.0
 20
1.0
 30
0.0
  9
$UCSORTHOREF
  2

  9
$UCSORTHOVIEW
 70
0
  9
$UCSORGTOP
 10
0.0
 20
0.0
 30
0.0
  9
$UCSORGBOTTOM
 10
0.0
 20
0.0
 30
0.0
  9
$UCSORGLEFT
 10
0.0
 20
0.0
 30
0.0
  9
$UCSORGRIGHT
 10
0.0
 20
0.0
 30
0.0
  9
$UCSORGFRONT
 10
0.0
 20
0.0
 30
0.0
  9
$UCSORGBACK
 10
0.0
 20
0.0
 30
0.0
  9
$PUCSBASE
  2

  9
$PUCSNAME
  2

  9
$PUCSORG
 10
0.0
 20
0.0
 30
0.0
  9
$PUCSXDIR
 10
1.0
 20
0.0
 30
0.0
  9
$PUCSYDIR
 10
0.0
 20
1.0
 30
0.0
  9
$PUCSORTHOREF
  2

  9
$PUCSORTHOVIEW
 70
0
  9
$PUCSORGTOP
 10
0.0
 20
0.0
 30
0.0
  9
$PUCSORGBOTTOM
 10
0.0
 20
0.0
 30
0.0
  9
$PUCSORGLEFT
 10
0.0
 20
0.0
 30
0.0
  9
$PUCSORGRIGHT
 10
0.0
 20
0.0
 30
0.0
  9
$PUCSORGFRONT
 10
0.0
 20
0.0
 30
0.0
  9
$PUCSORGBACK
 10
0.0
 20
0.0
 30
0.0
  9
$USERI1
 70
0
  9
$USERI2
 70
0
  9
$USERI3
 70
0
  9
$USERI4
 70
0
  9
$USERI5
 70
0
  9
$USERR1
 40
0.0
  9
$USERR2
 40
0.0
  9
$USERR3
 40
0.0
  9
$USERR4
 40
0.0
  9
$USERR5
 40
0.0
  9
$WORLDVIEW
 70
1
  9
$SHADEDGE
 70
3
  9
$SHADEDIF
 70
70
  9
$TILEMODE
 70
1
  9
$MAXACTVP
 70
64
  9
$PINSBASE
 10
0.0
 20
0.0
 30
0.0
  9
$PLIMCHECK
 70
0
  9
$PEXTMIN
 10
1e+20
 20
1e+20
 30
1e+20
  9
$PEXTMAX
 10
-1e+20
 20
-1e+20
 30
-1e+20
  9
$PLIMMIN
 10
0.0
 20
0.0
  9
$PLIMMAX
 10
420.0
 20
297.0
  9
$UNITMODE
 70
0
  9
$VISRETAIN
 70
1
  9
$PLINEGEN
 70
0
  9
$PSLTSCALE
 70
1
  9
$TREEDEPTH
 70
3020
  9
$CMLSTYLE
  2
Standard
  9
$CMLJUST
 70
0
  9
$CMLSCALE
 40
20.0
  9
$PROXYGRAPHICS
 70
1
  9
$MEASUREMENT
 70
1
  9
$CELWEIGHT
370
-1
  9
$ENDCAPS
280
0
  9
$JOINSTYLE
280
0
  9
$LWDISPLAY
290
0
  9
$INSUNITS
 70
4
  9
$HYPERLINKBASE
  1

  9
$STYLESHEET
  1

  9
$XEDIT
290
1
  9
$CEPSNTYPE
380
0
  9
$PSTYLEMODE
290
1
  9
$FINGERPRINTGUID
  2
{C4B568F7-D434-441C-B513-1C03BCDE9CB4}
  9
$VERSIONGUID
  2
{C0F4D8D8-2C0B-4DAD-8E9E-215339B458F8}
  9
$EXTNAMES
290
1
  9
$PSVPSCALE
 40
0.0
  9
$OLESTARTUP
290
0
  9
$SORTENTS
280
127
  9
$INDEXCTL
280
0
  9
$HIDETEXT
280
1
  9
$XCLIPFRAME
280
1
  9
$HALOGAP
280
0
  9
$OBSCOLOR
 70
257
  9
$OBSLTYPE
280
0
  9
$INTERSECTIONDISPLAY
280
0
  9
$INTERSECTIONCOLOR
 70
257
  9
$DIMASSOC
280
2
  9
$PROJECTNAME
  1

  9
$CAMERADISPLAY
290
0
  9
$LENSLENGTH
 40
50.0
  9
$CAMERAHEIGHT
 40
0.0
  9
$STEPSPERSEC
 40
24.0
  9
$STEPSIZE
 40
100.0
  9
$3DDWFPREC
 40
2.0
  9
$PSOLWIDTH
 40
0.005
  9
$PSOLHEIGHT
 40
0.08
  9
$LOFTANG1
 40
1.570796326795
  9
$LOFTANG2
 40
1.570796326795
  9
$LOFTMAG1
 40
0.0
  9
$LOFTMAG2
 40
0.0
  9
$LOFTPARAM
 70
7
  9
$LOFTNORMALS
280
1
  9
$LATITUDE
 40
37.795
  9
$LONGITUDE
 40
-122.394
  9
$NORTHDIRECTION
 40
0.0
  9
$TIMEZONE
 70
-8000
  9
$LIGHTGLYPHDISPLAY
280
1
  9
$TILEMODELIGHTSYNCH
280
1
  9
$CMATERIAL
347
20
  9
$SOLIDHIST
280
0
  9
$SHOWHIST
280
1
  9
$DWFFRAME
280
2
  9
$DGNFRAME
280
2
  9
$REALWORLDSCALE
290
1
  9
$INTERFERECOLOR
 62
256
  9
$CSHADOW
280
0
  9
$SHADOWPLANELOCATION
 40
0.0
  0
ENDSEC
  0
SECTION
  2
CLASSES
  0
CLASS
  1
ACDBDICTIONARYWDFLT
  2
AcDbDictionaryWithDefault
  3
ObjectDBX Classes
 90
0
 91
0
280
0
281
0
  0
CLASS
  1
SUN
  2
AcDbSun
  3
SCENEOE
 90
1153
 91
0
280
0
281
0
  0
CLASS
  1
VISUALSTYLE
  2
AcDbVisualStyle
  3
ObjectDBX Classes
 90
4095
 91
0
280
0
281
0
  0
CLASS
  1
MATERIAL
  2
AcDbMaterial
  3
ObjectDBX Classes
 90
1153
 91
0
280
0
281
0
  0
CLASS
  1
SCALE
  2
AcDbScale
  3
ObjectDBX Classes
 90
1153
 91
0
280
0
281
0
  0
CLASS
  1
TABLESTYLE
  2
AcDbTableStyle
  3
ObjectDBX Classes
 90
4095
 91
0
280
0
281
0
  0
CLASS
  1
MLEADERSTYLE
  2
AcDbMLeaderStyle
  3
ACDB_MLEADERSTYLE_CLASS
 90
4095
 91
0
280
0
281
0
  0
CLASS
  1
DICTIONARYVAR
  2
AcDbDictionaryVar
  3
ObjectDBX Classes
 90
0
 91
0
280
0
281
0
  0
CLASS
  1
CELLSTYLEMAP
  2
AcDbCellStyleMap
  3
ObjectDBX Classes
 90
1152
 91
0
280
0
281
0
  0
CLASS
  1
MENTALRAYRENDERSETTINGS
  2
AcDbMentalRayRenderSettings
  3
SCENEOE
 90
1024
 91
0
280
0
281
0
  0
CLASS
  1
ACDBDETAILVIEWSTYLE
  2
AcDbDetailViewStyle
  3
ObjectDBX Classes
 90
1025
 91
0
280
0
281
0
  0
CLASS
  1
ACDBSECTIONVIEWSTYLE
  2
AcDbSectionViewStyle
  3
ObjectDBX Classes
 90
1025
 91
0
280
0
281
0
  0
CLASS
  1
RASTERVARIABLES
  2
AcDbRasterVariables
  3
ISM
 90
0
 91
0
280
0
281
0
  0
CLASS
  1
ACDBPLACEHOLDER
  2
AcDbPlaceHolder
  3
ObjectDBX Classes
 90
0
 91
0
280
0
281
0
  0
CLASS
  1
LAYOUT
  2
AcDbLayout
  3
ObjectDBX Classes
 90
0
 91
0
280
0
281
0
  0
ENDSEC
  0
SECTION
  2
TABLES
  0
TABLE
  2
VPORT
  5
8
330
0
100
AcDbSymbolTable
 70
1
  0
VPORT
  5
23
330
8
100
AcDbSymbolTableRecord
100
AcDbViewportTableRecord
  2
*Active
 70
0
 10
0.0
 20
0.0
 11
1.0
 21
1.0
 12
0.0
 22
0.0
 13
0.0
 23
0.0
 14
0.5
 24
0.5
 15
0.5
 25
0.5
 16
0.0
 26
0.0
 36
1.0
 17
0.0
 27
0.0
 37
0.0
 40
1000.0
 41
1.34
 42
50.0
 43
0.0
 44
0.0
 50
0.0
 51
0.0
 71
0
 72
1000
 73
1
 74
3
 75
0
 76
0
 77
0
 78
0
281
0
 65
0
146
0.0
  0
ENDTAB
  0
TABLE
  2
LTYPE
  5
2
330
0
100
AcDbSymbolTable
 70
3
  0
LTYPE
  5
24
330
2
100
AcDbSymbolTableRecord
100
AcDbLinetypeTableRecord
  2
ByBlock
 70
0
  3

 72
65
 73
0
 40
0.0
  0
LTYPE
  5
25
330
2
100
AcDbSymbolTableRecord
100
AcDbLinetypeTableRecord
  2
ByLayer
 70
0
  3

 72
65
 73
0
 40
0.0
  0
LTYPE
  5
26
330
2
100
AcDbSymbolTableRecord
100
AcDbLinetypeTableRecord
  2
Continuous
 70
0
  3

 72
65
 73
0
 40
0.0
  0
ENDTAB
  0
TABLE
  2
LAYER
  5
1
330
0
100
AcDbSymbolTable
 70
3
  0
LAYER
  5
27
330
1
100
AcDbSymbolTableRecord
100
AcDbLayerTableRecord
  2
0
 70
0
 62
7
  6
Continuous
370
-3
390
13
347
21
  0
LAYER
  5
28
330
1
100
AcDbSymbolTableRecord
100
AcDbLayerTableRecord
  2
Defpoints
 70
0
 62
7
  6
Continuous
290
0
370
-3
390
13
347
21
  0
LAYER
  5
2F
330
1
100
AcDbSymbolTableRecord
100
AcDbLayerTableRecord
  2
M
 70
0
 62
7
  6
Continuous
370
-3
390
13
347
21
  0
ENDTAB
  0
TABLE
  2
STYLE
  5
5
330
0
100
AcDbSymbolTable
 70
1
  0
STYLE
  5
29
330
5
100
AcDbSymbolTableRecord
100
AcDbTextStyleTableRecord
  2
Standard
 70
0
 40
0.0
 41
1.0
 50
0.0
 71
0
 42
2.5
  3
txt
  4

  0
ENDTAB
  0
TABLE
  2
VIEW
  5
7
330
0
100
AcDbSymbolTable
 70
0
  0
ENDTAB
  0
TABLE
  2
UCS
  5
6
330
0
100
AcDbSymbolTable
 70
0
  0
ENDTAB
  0
TABLE
  2
APPID
  5
3
330
0
100
AcDbSymbolTable
 70
3
  0
APPID
  5
2A
330
3
100
AcDbSymbolTableRecord
100
AcDbRegAppTableRecord
  2
ACAD
 70
0
  0
APPID
  5
39
330
3
100
AcDbSymbolTableRecord
100
AcDbRegAppTableRecord
  2
HATCHBACKGROUNDCOLOR
 70
0
  0
APPID
  5
3A
330
3
100
AcDbSymbolTableRecord
100
AcDbRegAppTableRecord
  2
EZDXF
 70
0
  0
ENDTAB
  0
TABLE
  2
DIMSTYLE
  5
4
330
0
100
AcDbSymbolTable
 70
1
100
AcDbDimStyleTable
  0
DIMSTYLE
105
2B
330
4
100
AcDbSymbolTableRecord
100
AcDbDimStyleTableRecord
  2
Standard
 70
0
 40
1.0
 41
2.5
 42
0.625
 43
3.75
 44
1.25
 45
0.0
 46
0.0
 47
0.0
 48
0.0
 49
2.5
140
2.5
141
2.5
142
0.0
143
0.03937007874
144
1.0
145
0.0
146
1.0
147
0.625
148
0.0
 69
0
 70
0
 71
0
 72
0
 73
0
 74
0
 75
0
 76
0
 77
1
 78
8
 79
3
170
0
171
3
172
1
173
0
174
0
175
0
176
0
177
0
178
0
179
2
271
2
272
2
273
2
274
3
275
0
276
0
277
2
278
44
279
0
280
0
281
0
282
0
283
0
284
8
285
0
286
0
288
0
289
3
290
0
371
-2
372
-2
  0
ENDTAB
  0
TABLE
  2
BLOCK_RECORD
  5
9
330
0
100
AcDbSymbolTable
 70
2
  0
BLOCK_RECORD
  5
17
330
9
100
AcDbSymbolTableRecord
100
AcDbBlockTableRecord
  2
*Model_Space
340
1A
 70
0
280
1
281
0
  0
BLOCK_RECORD
  5
1B
330
9
100
AcDbSymbolTableRecord
100
AcDbBlockTableRecord
  2
*Paper_Space
340
1E
 70
0
280
1
281
0
  0
ENDTAB
  0
ENDSEC
  0
SECTION
  2
BLOCKS
  0
BLOCK
  5
18
330
17
100
AcDbEntity
  8
0
100
AcDbBlockBegin
  2
*Model_Space
 70
0
 10
0.0
 20
0.0
 30
0.0
  3
*Model_Space
  1

  0
ENDBLK
  5
19
330
17
100
AcDbEntity
  8
0
100
AcDbBlockEnd
  0
BLOCK
  5
1C
330
1B
100
AcDbEntity
  8
0
100
AcDbBlockBegin
  2
*Paper_Space
 70
0
 10
0.0
 20
0.0
 30
0.0
  3
*Paper_Space
  1

  0
ENDBLK
  5
1D
330
1B
100
AcDbEntity
  8
0
100
AcDbBlockEnd
  0
ENDSEC
  0
SECTION
  2
ENTITIES
  0
LWPOLYLINE
  5
30
330
17
100
AcDbEntity
  8
M
100
AcDbPolyline
 90
56
 70
1
 10
8.355466050040118
 20
257.4552084905936
 10
3.3565280961089794
 20
279.35531762210195
 10
0.0
 20
284.8696137799952
 10
10.894202898550699
 20
302.7672328276142
 10
14.23962754071384
 20
302.7672328276142
 10
19.239627540713844
 20
308.2434233038047
 10
25.906294207380554
 20
308.2434233038047
 10
30.906294207380448
 20
313.71961377999514
 10
37.581262965963866
 20
313.71961377999514
 10
47.58126296596377
 20
321.93389949428087
 10
54.22753623188403
 20
321.93389949428087
 10
58.354556775579105
 20
328.7140046732084
 10
60.0203058719262
 20
339.6603558777751
 10
65.01484378903567
 20
350.60077226763417
 10
63.34888496599067
 20
367.02236638050744
 10
65.02443984755124
 20
372.5277609913497
 10
80.87207812256037
 20
401.30373575386614
 10
84.2479296326305
 20
404.07675663713803
 10
94.24792963263052
 20
404.07675663713803
 10
100.91459629929712
 20
409.55294711332846
 10
112.58126296596383
 20
409.55294711332846
 10
119.24792963263042
 20
415.029137589519
 10
125.89420289855069
 20
415.029137589519
 10
127.56086956521729
 20
417.7672328276142
 10
137.5608695652173
 20
417.7672328276142
 10
139.227536231884
 20
420.5053280657094
 10
144.33993470175943
 20
420.5053280657094
 10
146.89672369486217
 20
416.30488900561204
 10
136.88373546682175
 20
394.371676696571
 10
136.88373546682175
 20
388.88919122735956
 10
130.2090576570465
 20
377.92364911130016
 10
123.55040213348833
 20
356.04520953389493
 10
123.55040213348833
 20
353.35003633263085
 10
129.33993470175943
 20
343.83866139904273
 10
132.6673112822697
 20
343.83866139904273
 10
141.88373546682163
 20
331.45035096915785
 10
141.88373546682163
 20
328.6642571529426
 10
140.2085212503019
 20
323.15998187009177
 10
118.55040213348845
 20
290.3158012314074
 10
118.55040213348845
 20
287.5796674178357
 10
112.69897414750507
 20
277.9666071551488
 10
105.98463516299506
 20
269.693582334949
 10
97.66123356254575
 20
272.42841428938226
 10
96.00660136842609
 20
269.7100899704714
 10
91.00660136842609
 20
269.7100899704714
 10
86.00660136842619
 20
261.4958042561857
 10
80.99451005959624
 20
261.4958042561857
 10
76.00085388258859
 20
256.0265617766058
 10
59.34527243943932
 20
253.29028768237416
 10
57.67326803509276
 20
250.54342330380476
 10
49.33993470175946
 20
250.54342330380476
 10
47.673268035092754
 20
247.80532806570943
 10
27.673268035092846
 20
247.80532806570943
 10
26.01076016692272
 20
245.07406513943008
 10
15.058528065415189
 20
243.6899918518769
 10
8.355466050040118
 20
257.4552084905936
  0
LWPOLYLINE
  5
31
330
17
100
AcDbEntity
  8
M
100
AcDbPolyline
 90
16
 70
1
 10
5.00230269680757
 20
399.8658307780971
 10
15.022784474239659
 20
419.0717541848419
 10
18.35856724110696
 20
432.7722905487611
 10
25.017068800155084
 20
440.9765156840169
 10
25.017068800155084
 20
446.4367498160592
 10
28.365502127875033
 20
454.6882462307975
 10
32.63681811215324
 20
458.8985434153005
 10
35.21706880015507
 20
454.6595601421546
 10
35.21706880015507
 20
435.4368102749785
 10
33.55040213348837
 20
432.6987150368833
 10
33.55040213348837
 20
413.5320483702166
 10
30.21706880015507
 20
408.0558578940262
 10
30.21706880015507
 20
399.84157217974047
 10
22.66479595493309
 20
387.4342667911617
 10
10.886765927117569
 20
390.198498328302
 10
5.00230269680757
 20
399.8658307780971
  0
LWPOLYLINE
  5
32
330
17
100
AcDbEntity
  8
M
100
AcDbPolyline
 90
32
 70
1
 10
730.9062942073805
 20
4.114851875233305
 10
725.8942512106247
 20
9.604232300251535
 10
717.550821656569
 20
12.345644868012817
 10
715.8942028985507
 20
15.06723282761424
 10
710.9062942073805
 20
15.06723282761424
 10
705.9062942073805
 20
20.54342330380465
 10
699.2275362318841
 20
20.54342330380465
 10
695.8856516650234
 20
26.03366223507586
 10
685.8960725877782
 20
28.768904125273885
 10
680.9062942073806
 20
34.233899494280905
 10
677.5608695652173
 20
34.233899494280905
 10
674.9940349396352
 20
38.45084209345173
 10
680.8900021191586
 20
45.36957908983108
 10
694.2153817672971
 20
50.84250287388803
 10
697.5608695652173
 20
56.338661399042756
 10
704.2275362318841
 20
56.338661399042756
 10
707.5608695652173
 20
61.81485187523328
 10
719.3278433929297
 20
61.81485187523328
 10
724.3278433929296
 20
56.338661399042756
 10
730.9862079676797
 20
56.338661399042756
 10
737.6528746343463
 20
50.862470922852346
 10
744.3136519154423
 20
50.862470922852346
 10
752.6469852487756
 20
45.38628044666182
 10
759.3278433929296
 20
45.38628044666182
 10
764.3278433929297
 20
39.9100899704713
 10
767.6732680350929
 20
39.9100899704713
 10
770.2356982034926
 20
35.70038326524316
 10
751.8735332800948
 20
8.276370717311465
 10
749.3580232648937
 20
1.3886647233090077
 10
741.7505556502443
 20
0.0
 10
737.5760682405875
 20
4.114851875233305
 10
730.9062942073805
 20
4.114851875233305
  0
LWPOLYLINE
  5
33
330
17
100
AcDbEntity
  8
M
100
AcDbPolyline
 90
29
 70
1
 10
714.2361049360214
 20
354.5910423514237
 10
707.5538515197277
 20
362.8245331679285
 10
695.8899398097917
 20
368.2994305011639
 10
690.9062942073806
 20
373.75770901809034
 10
685.9016796824752
 20
373.75770901809034
 10
678.3289957306481
 20
383.43391628986944
 10
680.0170688001551
 20
386.2071791897736
 10
680.0170688001551
 20
399.8976553802499
 10
682.5608695652173
 20
404.07675663713803
 10
689.2538190182012
 20
404.07675663713803
 10
697.5871523515344
 20
409.55294711332846
 10
712.5608695652173
 20
409.55294711332846
 10
714.227536231884
 20
412.29104235142364
 10
720.8942028985507
 20
412.29104235142364
 10
722.5608695652173
 20
415.029137589519
 10
737.5608695652173
 20
415.029137589519
 10
739.2275362318841
 20
417.7672328276142
 10
745.8942028985507
 20
417.7672328276142
 10
747.5608695652174
 20
420.5053280657094
 10
759.3399347017595
 20
420.5053280657094
 10
763.5627891722689
 20
413.5677814355867
 10
755.2129768009299
 20
394.3632129815072
 10
753.5449241804899
 20
386.1420964950523
 10
745.2090576570465
 20
372.44745863510974
 10
740.2090576570466
 20
356.0188872065383
 10
734.3314626215997
 20
346.36283821973313
 10
728.4072658879104
 20
347.75321092253773
 10
719.2505177135761
 20
354.5910423514237
 10
714.2361049360214
 20
354.5910423514237
  0
LWPOLYLINE
  5
34
330
17
100
AcDbEntity
  8
M
100
AcDbPolyline
 90
68
 70
1
 10
724.223933570114
 20
220.42437568475714
 10
701.0066013684261
 20
220.42437568475714
 10
699.3399347017595
 20
217.68628044666184
 10
692.6580693597226
 20
217.68628044666184
 10
684.3627327148146
 20
209.50944861096676
 10
677.6133121097014
 20
198.42111475970935
 10
659.2250191780926
 20
231.37675663713807
 10
652.661176726263
 20
231.37675663713807
 10
647.6611767262629
 20
225.90056616094756
 10
642.6528746343464
 20
225.90056616094756
 10
635.9862079676797
 20
220.42437568475714
 10
629.3195413010129
 20
220.42437568475714
 10
622.6528746343464
 20
214.94818520856663
 10
616.0066013684261
 20
214.94818520856663
 10
614.2998118373413
 20
212.14417383607008
 10
609.2396275407139
 20
217.68628044666184
 10
600.8942028985507
 20
217.68628044666184
 10
599.227536231884
 20
220.42437568475714
 10
585.8942028985507
 20
220.42437568475714
 10
584.2275362318841
 20
223.16247092285235
 10
577.5608695652173
 20
223.16247092285235
 10
575.8897132826728
 20
225.9079419584612
 10
555.8897132826729
 20
228.6460371965564
 10
554.2275362318841
 20
231.37675663713807
 10
542.5471300422496
 20
231.37675663713807
 10
540.009916989291
 20
238.3238876154773
 10
543.3504021334884
 20
246.5557974351068
 10
543.3504021334884
 20
252.03085011753157
 10
551.6864781593255
 20
273.9428213854461
 10
553.3545567755791
 20
284.9044808636847
 10
557.5608695652173
 20
291.8148518752333
 10
585.9062942073805
 20
291.8148518752333
 10
590.9062942073805
 20
297.2910423514238
 10
595.904234579762
 20
297.2910423514238
 10
601.6837354668218
 20
304.07310971889166
 10
601.6837354668218
 20
306.74633408450234
 10
594.2122307004485
 20
319.02094905782997
 10
589.2122307004485
 20
321.75904429592515
 10
579.2275362318841
 20
338.1624709228523
 10
575.8974858321035
 20
338.1624709228523
 10
559.9981686316657
 20
361.5332717701126
 10
564.2275362318841
 20
368.4815185418999
 10
609.3399347017594
 20
368.4815185418999
 10
611.8837354668217
 20
364.30241728501176
 10
611.8837354668217
 20
312.2786077612023
 10
614.3574565593042
 20
308.21463739498137
 10
622.6469852487758
 20
302.7672328276142
 10
630.9862079676797
 20
302.7672328276142
 10
637.6528746343463
 20
297.2910423514238
 10
645.9862079676797
 20
297.2910423514238
 10
652.6528746343464
 20
291.8148518752333
 10
657.5675005739236
 20
291.8148518752333
 10
665.9008339072569
 20
302.7672328276142
 10
675.914596299297
 20
302.7672328276142
 10
682.5812629659638
 20
308.2434233038047
 10
692.5871523515344
 20
308.2434233038047
 10
700.9204856848678
 20
313.71961377999514
 10
711.0081306498913
 20
313.71961377999514
 10
741.8999871991703
 20
260.22541431145595
 10
731.8967236948621
 20
243.79148141152106
 10
736.8774663544826
 20
232.8812832047338
 10
745.2230509610282
 20
205.46007664036892
 10
741.8837354668217
 20
197.23104917250268
 10
741.8837354668217
 20
191.74633408450237
 10
739.2837354668218
 20
187.47490551307376
 10
736.6837354668216
 20
191.74633408450237
 10
736.6837354668216
 20
197.2254112008871
 10
724.223933570114
 20
220.42437568475714
  0
LWPOLYLINE
  5
35
330
17
100
AcDbEntity
  8
M
100
AcDbPolyline
 90
17
 70
1
 10
623.3504021334884
 20
427.2786077612023
 10
625.898666676259
 20
431.46504236718255
 10
647.6774268335893
 20
428.71278146817934
 10
649.3399347017595
 20
425.9815185418999
 10
666.0066013684261
 20
425.9815185418999
 10
667.6732680350927
 20
423.2434233038047
 10
672.6826334627984
 20
423.2434233038047
 10
676.8961225056022
 20
413.552398505356
 10
672.6818192686201
 20
406.62890033031385
 10
662.6640560177914
 20
403.88594134496805
 10
652.6528746343464
 20
395.6624709228523
 10
647.6528746343463
 20
395.6624709228523
 10
640.9862079676797
 20
390.18628044666184
 10
634.3278433929296
 20
390.18628044666184
 10
629.2981901526881
 20
384.67761261211166
 10
623.3504021334884
 20
388.86534091134405
 10
623.3504021334884
 20
427.2786077612023
  0
LWPOLYLINE
  5
36
330
17
100
AcDbEntity
  8
M
100
AcDbPolyline
 90
73
 70
1
 10
2961.7089984718605
 20
134.17648823162608
 10
2958.3504021334884
 20
145.21187620056165
 10
2958.3504021334884
 20
164.36538170354999
 10
2956.6851469212397
 20
167.10115812367255
 10
2955.0156371384855
 20
200.0143509836967
 10
2960.894202898551
 20
209.67199473237608
 10
2964.238502616076
 20
209.67199473237608
 10
2974.9934190544022
 20
221.9042348572865
 10
2973.3504021334893
 20
224.60347694164517
 10
2973.3504021334893
 20
230.0796674178357
 10
2970.0204131309524
 20
235.55036363628844
 10
2968.3537464642855
 20
249.24083982676459
 10
2966.6837354668223
 20
251.98442932259758
 10
2966.6837354668223
 20
260.2118762005616
 10
2963.3504021334884
 20
271.1642571529426
 10
2963.3504021334884
 20
279.41294029224963
 10
2966.6837354668223
 20
287.62722600653535
 10
2966.6837354668223
 20
306.74633408450234
 10
2965.0
 20
309.5124709228523
 10
2967.5608695652177
 20
313.71961377999514
 10
2974.236104936022
 20
313.71961377999514
 10
2980.902771602689
 20
321.93389949428087
 10
2987.560869565217
 20
321.93389949428087
 10
2990.8867659271177
 20
327.3978720888312
 10
3002.5640889141105
 20
330.1384683000641
 10
3007.5366869475583
 20
335.58464709860203
 10
3010.0170688001554
 20
339.6595601421546
 10
3010.0170688001554
 20
353.35003633263085
 10
3013.3504021334884
 20
358.8262268088213
 10
3013.3504021334884
 20
380.71939775001186
 10
3017.541197576689
 20
393.1121785606172
 10
3032.5549761852963
 20
395.85278894155374
 10
3034.227536231884
 20
398.60056616094755
 10
3042.560869565218
 20
398.60056616094755
 10
3044.227536231884
 20
401.33866139904273
 10
3071.006601368427
 20
401.33866139904273
 10
3073.550402133488
 20
397.1595601421546
 10
3073.550402133488
 20
388.945274427869
 10
3075.2157650884583
 20
386.20932100184757
 10
3076.8824317551243
 20
350.61408290660955
 10
3078.550402133489
 20
347.8738458564403
 10
3078.550402133489
 20
328.7071791897737
 10
3082.68181926862
 20
321.9198510392003
 10
3092.6818192686205
 20
319.18175580110506
 10
3098.54492418049
 20
309.54951201731893
 10
3100.212794297486
 20
301.3292950121224
 10
3105.2170688001556
 20
290.36755086341924
 10
3105.2170688001556
 20
284.88449421657157
 10
3110.2257776192223
 20
268.42730809677937
 10
3106.0269947691727
 20
261.52930770026904
 10
3099.3195413010135
 20
256.01961377999515
 10
3096.0066013684263
 20
256.01961377999515
 10
3092.690789892638
 20
250.57220921262814
 10
3084.252140712901
 20
245.02681118022974
 10
3082.5534325937847
 20
247.81754594734963
 10
3070.8974222474435
 20
250.55314021230723
 10
3065.906294207381
 20
256.01961377999515
 10
3059.2479296326305
 20
256.01961377999515
 10
3052.5812629659636
 20
261.4958042561857
 10
3045.9187295567567
 20
261.4958042561857
 10
3034.313573158259
 20
269.66678172043436
 10
3028.541483245572
 20
260.1840625781634
 10
3013.5504021334887
 20
216.4005875841416
 10
3013.5504021334887
 20
213.70717918977365
 10
3019.362732714815
 20
204.158350377595
 10
3023.5504021334887
 20
200.0305048077594
 10
3023.5504021334887
 20
180.79395313212143
 10
3020.2170688001556
 20
175.31776265593092
 10
3020.2170688001556
 20
145.1987150368833
 10
3014.3399347017603
 20
135.54342330380464
 10
3011.0066013684263
 20
135.54342330380464
 10
3009.338940907992
 20
132.80369540451943
 10
2961.7089984718605
 20
134.17648823162608
  0
LWPOLYLINE
  5
37
330
17
100
AcDbEntity
  8
M
100
AcDbPolyline
 90
84
 70
1
 10
3620.060196276695
 20
104.0564341825685
 10
3618.350402133489
 20
106.86538170354987
 10
3618.350402133489
 20
158.88919122735956
 10
3615.8738094978044
 20
162.95787912884052
 10
3609.247929632631
 20
168.40056616094756
 10
3604.2479296326314
 20
168.40056616094756
 10
3597.5812629659645
 20
173.87675663713807
 10
3594.2396275407145
 20
173.87675663713807
 10
3589.2396275407145
 20
179.3529471133285
 10
3582.5675005739236
 20
179.3529471133285
 10
3574.220607065566
 20
190.32315001002786
 10
3567.5487151006305
 20
193.06339135276906
 10
3563.3558800864876
 20
199.95162030457612
 10
3561.6881501189164
 20
208.17114657331825
 10
3555.887104452632
 20
220.42437568475714
 10
3540.894202898551
 20
220.42437568475714
 10
3539.227536231884
 20
223.16247092285235
 10
3525.894202898551
 20
223.16247092285235
 10
3524.2275362318846
 20
225.90056616094756
 10
3510.8942028985507
 20
225.90056616094756
 10
3507.5608695652177
 20
231.37675663713807
 10
3502.560869565218
 20
231.37675663713807
 10
3498.3504021334884
 20
238.29395313212143
 10
3498.3504021334884
 20
254.77860776120232
 10
3500.020413130953
 20
257.5221972570353
 10
3501.687079797619
 20
271.2126734475114
 10
3504.2837354668227
 20
275.4786077612022
 10
3506.0066013684263
 20
272.6481852085666
 10
3509.3278433929304
 20
272.6481852085666
 10
3519.3278433929304
 20
261.6958042561857
 10
3522.673268035093
 20
261.6958042561857
 10
3526.006601368427
 20
256.21961377999514
 10
3529.333303693054
 20
256.21961377999514
 10
3537.666637026387
 20
245.2672328276142
 10
3542.6732680350933
 20
245.2672328276142
 10
3546.024996362081
 20
239.7608220047056
 10
3557.691663028748
 20
231.54653629041988
 10
3560.955648077801
 20
226.18427513840345
 10
3575.017068800156
 20
246.5674270258499
 10
3575.017068800156
 20
262.9928934754879
 10
3577.536686947559
 20
267.132266146221
 10
3582.5729608740476
 20
272.6481852085666
 10
3585.904234579763
 20
272.6481852085666
 10
3597.5709012464285
 20
286.33866139904273
 10
3602.572960874047
 20
286.33866139904273
 10
3612.572960874048
 20
297.2910423514238
 10
3615.894202898551
 20
297.2910423514238
 10
3619.227536231884
 20
302.7672328276142
 10
3625.994510059597
 20
302.7672328276142
 10
3630.9945100595965
 20
297.2910423514238
 10
3639.3195413010135
 20
297.2910423514238
 10
3645.98620796768
 20
291.8148518752333
 10
3652.673268035093
 20
291.8148518752333
 10
3654.334083898964
 20
289.08636867030293
 10
3670.9876925567364
 20
291.82231866407983
 10
3680.9945100595965
 20
280.8624709228523
 10
3684.33993470176
 20
280.8624709228523
 10
3689.33993470176
 20
272.6481852085666
 10
3694.33993470176
 20
272.6481852085666
 10
3698.550402133489
 20
265.73098871358326
 10
3698.550402133489
 20
246.51676345821693
 10
3695.217068800155
 20
238.3024777439312
 10
3695.217068800155
 20
232.87384585644034
 10
3696.883735466822
 20
230.13575061834513
 10
3696.883735466822
 20
221.90625211460502
 10
3701.883735466822
 20
202.73958544793834
 10
3701.883735466822
 20
197.27860776120232
 10
3703.550402133489
 20
194.540512523107
 10
3703.550402133489
 20
186.32622680882127
 10
3705.2341376003105
 20
183.56008997047135
 10
3702.6732680350938
 20
179.3529471133285
 10
3699.33993470176
 20
179.3529471133285
 10
3696.006601368427
 20
173.87675663713807
 10
3692.673268035093
 20
173.87675663713807
 10
3686.8837354668226
 20
164.36538170354999
 10
3686.8837354668226
 20
150.73098871358326
 10
3688.5504021334887
 20
147.99289347548793
 10
3688.5504021334887
 20
134.3024172850118
 10
3690.2170688001556
 20
131.5643220469166
 10
3690.2170688001556
 20
115.13575061834513
 10
3691.883735466822
 20
112.39765538025004
 10
3691.883735466822
 20
106.86538170354987
 10
3689.339253882581
 20
102.68516195801136
 10
3620.060196276695
 20
104.0564341825685
  0
LWPOLYLINE
  5
38
330
17
100
AcDbEntity
  8
M
100
AcDbPolyline
 90
24
 70
1
 10
3595.0811243345415
 20
345.01071677658933
 10
3589.2520628900907
 20
349.1148518752333
 10
3575.894202898551
 20
349.1148518752333
 10
3570.017068800156
 20
358.77014360831186
 10
3570.017068800156
 20
377.9368102749785
 10
3566.683735466822
 20
383.413000751169
 10
3566.683735466822
 20
402.6445382903202
 10
3572.5709012464295
 20
409.55294711332846
 10
3579.239627540714
 20
409.55294711332846
 10
3584.2396275407145
 20
415.029137589519
 10
3592.5729608740476
 20
415.029137589519
 10
3597.5729608740476
 20
420.5053280657094
 10
3605.906294207381
 20
420.5053280657094
 10
3610.906294207381
 20
425.9815185418999
 10
3617.6819414955785
 20
425.9815185418999
 10
3626.872460178581
 20
405.39236954426497
 10
3640.2066910118656
 20
383.4861331752982
 10
3646.9015210891876
 20
366.98815905618187
 10
3634.3247360263895
 20
354.5910423514237
 10
3627.6528746343465
 20
354.5910423514237
 10
3620.98620796768
 20
349.1148518752333
 10
3614.32784339293
 20
349.1148518752333
 10
3609.323876206725
 20
343.63431638557995
 10
3595.0811243345415
 20
345.01071677658933
  0
ENDSEC
  0
SECTION
  2
OBJECTS
  0
DICTIONARY
  5
A
330
0
100
AcDbDictionary
281
1
  3
ACAD_COLOR
350
B
  3
ACAD_GROUP
350
C
  3
ACAD_LAYOUT
350
D
  3
ACAD_MATERIAL
350
E
  3
ACAD_MLEADERSTYLE
350
F
  3
ACAD_MLINESTYLE
350
10
  3
ACAD_PLOTSETTINGS
350
11
  3
ACAD_PLOTSTYLENAME
350
12
  3
ACAD_SCALELIST
350
14
  3
ACAD_TABLESTYLE
350
15
  3
ACAD_VISUALSTYLE
350
16
  3
EZDXF_META
350
2D
  0
DICTIONARY
  5
B
330
A
100
AcDbDictionary
281
1
  0
DICTIONARY
  5
C
330
A
100
AcDbDictionary
281
1
  0
DICTIONARY
  5
D
330
A
100
AcDbDictionary
281
1
  3
Model
350
1A
  3
Layout1
350
1E
  0
DICTIONARY
  5
E
330
A
100
AcDbDictionary
281
1
  3
ByBlock
350
1F
  3
ByLayer
350
20
  3
Global
350
21
  0
DICTIONARY
  5
F
330
A
100
AcDbDictionary
281
1
  3
Standard
350
2C
  0
DICTIONARY
  5
10
330
A
100
AcDbDictionary
281
1
  3
Standard
350
22
  0
DICTIONARY
  5
11
330
A
100
AcDbDictionary
281
1
  0
ACDBDICTIONARYWDFLT
  5
12
330
A
100
AcDbDictionary
281
1
  3
Normal
350
13
100
AcDbDictionaryWithDefault
340
13
  0
ACDBPLACEHOLDER
  5
13
330
12
  0
DICTIONARY
  5
14
330
A
100
AcDbDictionary
281
1
  0
DICTIONARY
  5
15
330
A
100
AcDbDictionary
281
1
  0
DICTIONARY
  5
16
330
A
100
AcDbDictionary
281
1
  0
LAYOUT
  5
1A
330
D
100
AcDbPlotSettings
  1

  4
A3
  6

 40
7.5
 41
20.0
 42
7.5
 43
20.0
 44
420.0
 45
297.0
 46
0.0
 47
0.0
 48
0.0
 49
0.0
140
0.0
141
0.0
142
1.0
143
1.0
 70
1024
 72
1
 73
0
 74
5
  7

 75
16
 76
0
 77
2
 78
300
147
1.0
148
0.0
149
0.0
100
AcDbLayout
  1
Model
 70
1
 71
0
 10
0.0
 20
0.0
 11
420.0
 21
297.0
 12
0.0
 22
0.0
 32
0.0
 14
1e+20
 24
1e+20
 34
1e+20
 15
-1e+20
 25
-1e+20
 35
-1e+20
146
0.0
 13
0.0
 23
0.0
 33
0.0
 16
1.0
 26
0.0
 36
0.0
 17
0.0
 27
1.0
 37
0.0
 76
1
330
17
  0
LAYOUT
  5
1E
330
D
100
AcDbPlotSettings
  1

  4
A3
  6

 40
7.5
 41
20.0
 42
7.5
 43
20.0
 44
420.0
 45
297.0
 46
0.0
 47
0.0
 48
0.0
 49
0.0
140
0.0
141
0.0
142
1.0
143
1.0
 70
0
 72
1
 73
0
 74
5
  7

 75
16
 76
0
 77
2
 78
300
147
1.0
148
0.0
149
0.0
100
AcDbLayout
  1
Layout1
 70
1
 71
1
 10
0.0
 20
0.0
 11
420.0
 21
297.0
 12
0.0
 22
0.0
 32
0.0
 14
1e+20
 24
1e+20
 34
1e+20
 15
-1e+20
 25
-1e+20
 35
-1e+20
146
0.0
 13
0.0
 23
0.0
 33
0.0
 16
1.0
 26
0.0
 36
0.0
 17
0.0
 27
1.0
 37
0.0
 76
1
330
1B
  0
MATERIAL
  5
1F
102
{ACAD_REACTORS
330
E
102
}
330
E
100
AcDbMaterial
  1
ByBlock
  2

 70
0
 40
1.0
 71
1
 41
1.0
 91
-1023410177
 42
1.0
 72
1
  3

 73
1
 74
1
 75
1
 44
0.5
 73
0
 45
1.0
 46
1.0
 77
1
  4

 78
1
 79
1
170
1
 48
1.0
171
1
  6

172
1
173
1
174
1
140
1.0
141
1.0
175
1
  7

176
1
177
1
178
1
143
1.0
179
1
  8

270
1
271
1
272
1
145
1.0
146
1.0
273
1
  9

274
1
275
1
276
1
 42
1.0
 72
1
  3

 73
1
 74
1
 75
1
 94
63
  0
MATERIAL
  5
20
102
{ACAD_REACTORS
330
E
102
}
330
E
100
AcDbMaterial
  1
ByLayer
  2

 70
0
 40
1.0
 71
1
 41
1.0
 91
-1023410177
 42
1.0
 72
1
  3

 73
1
 74
1
 75
1
 44
0.5
 73
0
 45
1.0
 46
1.0
 77
1
  4

 78
1
 79
1
170
1
 48
1.0
171
1
  6

172
1
173
1
174
1
140
1.0
141
1.0
175
1
  7

176
1
177
1
178
1
143
1.0
179
1
  8

270
1
271
1
272
1
145
1.0
146
1.0
273
1
  9

274
1
275
1
276
1
 42
1.0
 72
1
  3

 73
1
 74
1
 75
1
 94
63
  0
MATERIAL
  5
21
102
{ACAD_REACTORS
330
E
102
}
330
E
100
AcDbMaterial
  1
Global
  2

 70
0
 40
1.0
 71
1
 41
1.0
 91
-1023410177
 42
1.0
 72
1
  3

 73
1
 74
1
 75
1
 44
0.5
 73
0
 45
1.0
 46
1.0
 77
1
  4

 78
1
 79
1
170
1
 48
1.0
171
1
  6

172
1
173
1
174
1
140
1.0
141
1.0
175
1
  7

176
1
177
1
178
1
143
1.0
179
1
  8

270
1
271
1
272
1
145
1.0
146
1.0
273
1
  9

274
1
275
1
276
1
 42
1.0
 72
1
  3

 73
1
 74
1
 75
1
 94
63
  0
MLINESTYLE
  5
22
102
{ACAD_REACTORS
330
10
102
}
330
10
100
AcDbMlineStyle
  2
Standard
 70
0
  3

 62
256
 51
90.0
 52
90.0
 71
2
 49
0.5
 62
256
  6
BYLAYER
 49
-0.5
 62
256
  6
BYLAYER
  0
MLEADERSTYLE
  5
2C
102
{ACAD_REACTORS
330
F
102
}
330
F
100
AcDbMLeaderStyle
179
2
170
2
171
1
172
0
 90
2
 40
0.0
 41
0.0
173
1
 91
-1056964608
 92
-2
290
1
 42
2.0
291
1
 43
8.0
  3
Standard
 44
4.0
300

342
29
174
1
175
1
176
0
178
1
 93
-1056964608
 45
4.0
292
0
297
0
 46
4.0
 94
-1056964608
 47
1.0
 49
1.0
140
1.0
294
1
141
0.0
177
0
142
1.0
295
0
296
0
143
3.75
271
0
272
9
273
9
  0
DICTIONARY
  5
2D
330
A
100
AcDbDictionary
280
1
281
1
  3
CREATED_BY_EZDXF
350
2E
  3
WRITTEN_BY_EZDXF
350
3B
  0
DICTIONARYVAR
  5
2E
330
2D
100
DictionaryVariables
280
0
  1
1.4.4 @ 2026-07-17T10:48:45.444308+00:00
  0
DICTIONARYVAR
  5
3B
330
2D
100
DictionaryVariables
280
0
  1
1.4.4 @ 2026-07-17T10:48:45.447024+00:00
  0
ENDSEC
  0
EOF
