  0
SECTION
  2
HEADER
  9
$ACADVER
  1
AC1027
  9
$ACADMAINTVER
 70
105
  9
$DWGCODEPAGE
  3
ANSI_1252
  9
$LASTSAVEDBY
  1
ezdxf
  9
$REQUIREDVERSIONS
160
0
  9
$INSBASE
 10
0.0
 20
0.0
 30
0.0
  9
$EXTMIN
 10
1e+20
 20
1e+20
 30
1e+20
  9
$EXTMAX
 10
-1e+20
 20
-1e+20
 30
-1e+20
  9
$LIMMIN
 10
0.0
 20
0.0
  9
$LIMMAX
 10
420.0
 20
297.0
  9
$ORTHOMODE
 70
0
  9
$REGENMODE
 70
1
  9
$FILLMODE
 70
1
  9
$QTEXTMODE
 70
0
  9
$MIRRTEXT
 70
1
  9
$LTSCALE
 40
1.0
  9
$ATTMODE
 70
1
  9
$TEXTSIZE
 40
2.5
  9
$TRACEWID
 40
1.0
  9
$TEXTSTYLE
  7
Standard
  9
$CLAYER
  8
0
  9
$CELTYPE
  6
ByLayer
  9
$CECOLOR
 62
256
  9
$CELTSCALE
 40
1.0
  9
$DISPSILH
 70
0
  9
$DIMSCALE
 40
1.0
  9
$DIMASZ
 40
2.5
  9
$DIMEXO
 40
0.625
  9
$DIMDLI
 40
3.75
  9
$DIMRND
 40
0.0
  9
$DIMDLE
 40
0.0
  9
$DIMEXE
 40
1.25
  9
$DIMTP
 40
0.0
  9
$DIMTM
 40
0.0
  9
$DIMTXT
 40
2.5
  9
$DIMCEN
 40
2.5
  9
$DIMTSZ
 40
0.0
  9
$DIMTOL
 70
0
  9
$DIMLIM
 70
0
  9
$DIMTIH
 70
0
  9
$DIMTOH
 70
0
  9
$DIMSE1
 70
0
  9
$DIMSE2
 70
0
  9
$DIMTAD
 70
1
  9
$DIMZIN
 70
8
  9
$DIMBLK
  1

  9
$DIMASO
 70
1
  9
$DIMSHO
 70
1
  9
$DIMPOST
  1

  9
$DIMAPOST
  1

  9
$DIMALT
 70
0
  9
$DIMALTD
 70
3
  9
$DIMALTF
 40
0.03937007874
  9
$DIMLFAC
 40
1.0
  9
$DIMTOFL
 70
1
  9
$DIMTVP
 40
0.0
  9
$DIMTIX
 70
0
  9
$DIMSOXD
 70
0
  9
$DIMSAH
 70
0
  9
$DIMBLK1
  1

  9
$DIMBLK2
  1

  9
$DIMSTYLE
  2
ISO-25
  9
$DIMCLRD
 70
0
  9
$DIMCLRE
 70
0
  9
$DIMCLRT
 70
0
  9
$DIMTFAC
 40
1.0
  9
$DIMGAP
 40
0.625
  9
$DIMJUST
 70
0
  9
$DIMSD1
 70
0
  9
$DIMSD2
 70
0
  9
$DIMTOLJ
 70
0
  9
$DIMTZIN
 70
8
  9
$DIMALTZ
 70
0
  9
$DIMALTTZ
 70
0
  9
$DIMUPT
 70
0
  9
$DIMDEC
 70
2
  9
$DIMTDEC
 70
2
  9
$DIMALTU
 70
2
  9
$DIMALTTD
 70
3
  9
$DIMTXSTY
  7
Standard
  9
$DIMAUNIT
 70
0
  9
$DIMADEC
 70
0
  9
$DIMALTRND
 40
0.0
  9
$DIMAZIN
 70
0
  9
$DIMDSEP
 70
44
  9
$DIMATFIT
 70
3
  9
$DIMFRAC
 70
0
  9
$DIMLDRBLK
  1

  9
$DIMLUNIT
 70
2
  9
$DIMLWD
 70
-2
  9
$DIMLWE
 70
-2
  9
$DIMTMOVE
 70
0
  9
$DIMFXL
 40
1.0
  9
$DIMFXLON
 70
0
  9
$DIMJOGANG
 40
0.785398163397
  9
$DIMTFILL
 70
0
  9
$DIMTFILLCLR
 70
0
  9
$DIMARCSYM
 70
0
  9
$DIMLTYPE
  6

  9
$DIMLTEX1
  6

  9
$DIMLTEX2
  6

  9
$DIMTXTDIRECTION
 70
0
  9
$LUNITS
 70
2
  9
$LUPREC
 70
4
  9
$SKETCHINC
 40
1.0
  9
$FILLETRAD
 40
10.0
  9
$AUNITS
 70
0
  9
$AUPREC
 70
2
  9
$MENU
  1
.
  9
$ELEVATION
 40
0.0
  9
$PELEVATION
 40
0.0
  9
$THICKNESS
 40
0.0
  9
$LIMCHECK
 70
0
  9
$CHAMFERA
 40
0.0
  9
$CHAMFERB
 40
0.0
  9
$CHAMFERC
 40
0.0
  9
$CHAMFERD
 40
0.0
  9
$SKPOLY
 70
0
  9
$TDCREATE
 40
2461239.6197916665
  9
$TDUCREATE
 40
2458532.153996898
  9
$TDUPDATE
 40
2461239.6197916665
  9
$TDUUPDATE
 40
2458532.1544311
  9
$TDINDWG
 40
0.0
  9
$TDUSRTIMER
 40
0.0
  9
$USRTIMER
 70
1
  9
$ANGBASE
 50
0.0
  9
$ANGDIR
 70
0
  9
$PDMODE
 70
0
  9
$PDSIZE
 40
0.0
  9
$PLINEWID
 40
0.0
  9
$SPLFRAME
 70
0
  9
$SPLINETYPE
 70
6
  9
$SPLINESEGS
 70
8
  9
$HANDSEED
  5
3C
  9
$SURFTAB1
 70
6
  9
$SURFTAB2
 70
6
  9
$SURFTYPE
 70
6
  9
$SURFU
 70
6
  9
$SURFV
 70
6
  9
$UCSBASE
  2

  9
$UCSNAME
  2

  9
$UCSORG
 10
0.0
 20
0.0
 30
0.0
  9
$UCSXDIR
 10
1.0
 20
0.0
 30
0.0
  9
$UCSYDIR
 10
0.0
 20
1.0
 30
0.0
  9
$UCSORTHOREF
  2

  9
$UCSORTHOVIEW
 70
0
  9
$UCSORGTOP
 10
0.0
 20
0.0
 30
0.0
  9
$UCSORGBOTTOM
 10
0.0
 20
0.0
 30
0.0
  9
$UCSORGLEFT
 10
0.0
 20
0.0
 30
0.0
  9
$UCSORGRIGHT
 10
0.0
 20
0.0
 30
0.0
  9
$UCSORGFRONT
 10
0.0
 20
0.0
 30
0.0
  9
$UCSORGBACK
 10
0.0
 20
0.0
 30
0.0
  9
$PUCSBASE
  2

  9
$PUCSNAME
  2

  9
$PUCSORG
 10
0.0
 20
0.0
 30
0.0
  9
$PUCSXDIR
 10
1.0
 20
0.0
 30
0.0
  9
$PUCSYDIR
 10
0.0
 20
1.0
 30
0.0
  9
$PUCSORTHOREF
  2

  9
$PUCSORTHOVIEW
 70
0
  9
$PUCSORGTOP
 10
0.0
 20
0.0
 30
0.0
  9
$PUCSORGBOTTOM
 10
0.0
 20
0.0
 30
0.0
  9
$PUCSORGLEFT
 10
0.0
 20
0.0
 30
0.0
  9
$PUCSORGRIGHT
 10
0.0
 20
0.0
 30
0.0
  9
$PUCSORGFRONT
 10
0.0
 20
0.0
 30
0.0
  9
$PUCSORGBACK
 10
0.0
 20
0.0
 30
0.0
  9
$USERI1
 70
0
  9
$USERI2
 70
0
  9
$USERI3
 70
0
  9
$USERI4
 70
0
  9
$USERI5
 70
0
  9
$USERR1
 40
0.0
  9
$USERR2
 40
0.0
  9
$USERR3
 40
0.0
  9
$USERR4
 40
0.0
  9
$USERR5
 40
0.0
  9
$WORLDVIEW
 70
1
  9
$SHADEDGE
 70
3
  9
$SHADEDIF
 70
70
  9
$TILEMODE
 70
1
  9
$MAXACTVP
 70
64
  9
$PINSBASE
 10
0.0
 20
0.0
 30
0.0
  9
$PLIMCHECK
 70
0
  9
$PEXTMIN
 10
1e+20
 20
1e+20
 30
1e+20
  9
$PEXTMAX
 10
-1e+20
 20
-1e+20
 30
-1e+20
  9
$PLIMMIN
 10
0.0
 20
0.0
  9
$PLIMMAX
 10
420.0
 20
297.0
  9
$UNITMODE
 70
0
  9
$VISRETAIN
 70
1
  9
$PLINEGEN
 70
0
  9
$PSLTSCALE
 70
1
  9
$TREEDEPTH
 70
3020
  9
$CMLSTYLE
  2
Standard
  9
$CMLJUST
 70
0
  9
$CMLSCALE
 40
20.0
  9
$PROXYGRAPHICS
 70
1
  9
$MEASUREMENT
 70
1
  9
$CELWEIGHT
370
-1
  9
$ENDCAPS
280
0
  9
$JOINSTYLE
280
0
  9
$LWDISPLAY
290
0
  9
$INSUNITS
 70
4
  9
$HYPERLINKBASE
  1

  9
$STYLESHEET
  1

  9
$XEDIT
290
1
  9
$CEPSNTYPE
380
0
  9
$PSTYLEMODE
290
1
  9
$FINGERPRINTGUID
  2
{4D322454-9424-4017-8401-DBC22A409166}
  9
$VERSIONGUID
  2
{CDB63AB3-7D54-4D0F-9147-3AD0386E9298}
  9
$EXTNAMES
290
1
  9
$PSVPSCALE
 40
0.0
  9
$OLESTARTUP
290
0
  9
$SORTENTS
280
127
  9
$INDEXCTL
280
0
  9
$HIDETEXT
280
1
  9
$XCLIPFRAME
280
1
  9
$HALOGAP
280
0
  9
$OBSCOLOR
 70
257
  9
$OBSLTYPE
280
0
  9
$INTERSECTIONDISPLAY
280
0
  9
$INTERSECTIONCOLOR
 70
257
  9
$DIMASSOC
280
2
  9
$PROJECTNAME
  1

  9
$CAMERADISPLAY
290
0
  9
$LENSLENGTH
 40
50.0
  9
$CAMERAHEIGHT
 40
0.0
  9
$STEPSPERSEC
 40
24.0
  9
$STEPSIZE
 40
100.0
  9
$3DDWFPREC
 40
2.0
  9
$PSOLWIDTH
 40
0.005
  9
$PSOLHEIGHT
 40
0.08
  9
$LOFTANG1
 40
1.570796326795
  9
$LOFTANG2
 40
1.570796326795
  9
$LOFTMAG1
 40
0.0
  9
$LOFTMAG2
 40
0.0
  9
$LOFTPARAM
 70
7
  9
$LOFTNORMALS
280
1
  9
$LATITUDE
 40
37.795
  9
$LONGITUDE
 40
-122.394
  9
$NORTHDIRECTION
 40
0.0
  9
$TIMEZONE
 70
-8000
  9
$LIGHTGLYPHDISPLAY
280
1
  9
$TILEMODELIGHTSYNCH
280
1
  9
$CMATERIAL
347
20
  9
$SOLIDHIST
280
0
  9
$SHOWHIST
280
1
  9
$DWFFRAME
280
2
  9
$DGNFRAME
280
2
  9
$REALWORLDSCALE
290
1
  9
$INTERFERECOLOR
 62
256
  9
$CSHADOW
280
0
  9
$SHADOWPLANELOCATION
 40
0.0
  0
ENDSEC
  0
SECTION
  2
CLASSES
  0
CLASS
  1
ACDBDICTIONARYWDFLT
  2
AcDbDictionaryWithDefault
  3
ObjectDBX Classes
 90
0
 91
0
280
0
281
0
  0
CLASS
  1
SUN
  2
AcDbSun
  3
SCENEOE
 90
1153
 91
0
280
0
281
0
  0
CLASS
  1
VISUALSTYLE
  2
AcDbVisualStyle
  3
ObjectDBX Classes
 90
4095
 91
0
280
0
281
0
  0
CLASS
  1
MATERIAL
  2
AcDbMaterial
  3
ObjectDBX Classes
 90
1153
 91
0
280
0
281
0
  0
CLASS
  1
SCALE
  2
AcDbScale
  3
ObjectDBX Classes
 90
1153
 91
0
280
0
281
0
  0
CLASS
  1
TABLESTYLE
  2
AcDbTableStyle
  3
ObjectDBX Classes
 90
4095
 91
0
280
0
281
0
  0
CLASS
  1
MLEADERSTYLE
  2
AcDbMLeaderStyle
  3
ACDB_MLEADERSTYLE_CLASS
 90
4095
 91
0
280
0
281
0
  0
CLASS
  1
DICTIONARYVAR
  2
AcDbDictionaryVar
  3
ObjectDBX Classes
 90
0
 91
0
280
0
281
0
  0
CLASS
  1
CELLSTYLEMAP
  2
AcDbCellStyleMap
  3
ObjectDBX Classes
 90
1152
 91
0
280
0
281
0
  0
CLASS
  1
MENTALRAYRENDERSETTINGS
  2
AcDbMentalRayRenderSettings
  3
SCENEOE
 90
1024
 91
0
280
0
281
0
  0
CLASS
  1
ACDBDETAILVIEWSTYLE
  2
AcDbDetailViewStyle
  3
ObjectDBX Classes
 90
1025
 91
0
280
0
281
0
  0
CLASS
  1
ACDBSECTIONVIEWSTYLE
  2
AcDbSectionViewStyle
  3
ObjectDBX Classes
 90
1025
 91
0
280
0
281
0
  0
CLASS
  1
RASTERVARIABLES
  2
AcDbRasterVariables
  3
ISM
 90
0
 91
0
280
0
281
0
  0
CLASS
  1
ACDBPLACEHOLDER
  2
AcDbPlaceHolder
  3
ObjectDBX Classes
 90
0
 91
0
280
0
281
0
  0
CLASS
  1
LAYOUT
  2
AcDbLayout
  3
ObjectDBX Classes
 90
0
 91
0
280
0
281
0
  0
ENDSEC
  0
SECTION
  2
TABLES
  0
TABLE
  2
VPORT
  5
8
330
0
100
AcDbSymbolTable
 70
1
  0
VPORT
  5
23
330
8
100
AcDbSymbolTableRecord
100
AcDbViewportTableRecord
  2
*Active
 70
0
 10
0.0
 20
0.0
 11
1.0
 21
1.0
 12
0.0
 22
0.0
 13
0.0
 23
0.0
 14
0.5
 24
0.5
 15
0.5
 25
0.5
 16
0.0
 26
0.0
 36
1.0
 17
0.0
 27
0.0
 37
0.0
 40
1000.0
 41
1.34
 42
50.0
 43
0.0
 44
0.0
 50
0.0
 51
0.0
 71
0
 72
1000
 73
1
 74
3
 75
0
 76
0
 77
0
 78
0
281
0
 65
0
146
0.0
  0
ENDTAB
  0
TABLE
  2
LTYPE
  5
2
330
0
100
AcDbSymbolTable
 70
3
  0
LTYPE
  5
24
330
2
100
AcDbSymbolTableRecord
100
AcDbLinetypeTableRecord
  2
ByBlock
 70
0
  3

 72
65
 73
0
 40
0.0
  0
LTYPE
  5
25
330
2
100
AcDbSymbolTableRecord
100
AcDbLinetypeTableRecord
  2
ByLayer
 70
0
  3

 72
65
 73
0
 40
0.0
  0
LTYPE
  5
26
330
2
100
AcDbSymbolTableRecord
100
AcDbLinetypeTableRecord
  2
Continuous
 70
0
  3

 72
65
 73
0
 40
0.0
  0
ENDTAB
  0
TABLE
  2
LAYER
  5
1
330
0
100
AcDbSymbolTable
 70
3
  0
LAYER
  5
27
330
1
100
AcDbSymbolTableRecord
100
AcDbLayerTableRecord
  2
0
 70
0
 62
7
  6
Continuous
370
-3
390
13
347
21
  0
LAYER
  5
28
330
1
100
AcDbSymbolTableRecord
100
AcDbLayerTableRecord
  2
Defpoints
 70
0
 62
7
  6
Continuous
290
0
370
-3
390
13
347
21
  0
LAYER
  5
2F
330
1
100
AcDbSymbolTableRecord
100
AcDbLayerTableRecord
  2
C
 70
0
 62
7
  6
Continuous
370
-3
390
13
347
21
  0
ENDTAB
  0
TABLE
  2
STYLE
  5
5
330
0
100
AcDbSymbolTable
 70
1
  0
STYLE
  5
29
330
5
100
AcDbSymbolTableRecord
100
AcDbTextStyleTableRecord
  2
Standard
 70
0
 40
0.0
 41
1.0
 50
0.0
 71
0
 42
2.5
  3
txt
  4

  0
ENDTAB
  0
TABLE
  2
VIEW
  5
7
330
0
100
AcDbSymbolTable
 70
0
  0
ENDTAB
  0
TABLE
  2
UCS
  5
6
330
0
100
AcDbSymbolTable
 70
0
  0
ENDTAB
  0
TABLE
  2
APPID
  5
3
330
0
100
AcDbSymbolTable
 70
3
  0
APPID
  5
2A
330
3
100
AcDbSymbolTableRecord
100
AcDbRegAppTableRecord
  2
ACAD
 70
0
  0
APPID
  5
39
330
3
100
AcDbSymbolTableRecord
100
AcDbRegAppTableRecord
  2
HATCHBACKGROUNDCOLOR
 70
0
  0
APPID
  5
3A
330
3
100
AcDbSymbolTableRecord
100
AcDbRegAppTableRecord
  2
EZDXF
 70
0
  0
ENDTAB
  0
TABLE
  2
DIMSTYLE
  5
4
330
0
100
AcDbSymbolTable
 70
1
100
AcDbDimStyleTable
  0
DIMSTYLE
105
2B
330
4
100
AcDbSymbolTableRecord
100
AcDbDimStyleTableRecord
  2
Standard
 70
0
 40
1.0
 41
2.5
 42
0.625
 43
3.75
 44
1.25
 45
0.0
 46
0.0
 47
0.0
 48
0.0
 49
2.5
140
2.5
141
2.5
142
0.0
143
0.03937007874
144
1.0
145
0.0
146
1.0
147
0.625
148
0.0
 69
0
 70
0
 71
0
 72
0
 73
0
 74
0
 75
0
 76
0
 77
1
 78
8
 79
3
170
0
171
3
172
1
173
0
174
0
175
0
176
0
177
0
178
0
179
2
271
2
272
2
273
2
274
3
275
0
276
0
277
2
278
44
279
0
280
0
281
0
282
0
283
0
284
8
285
0
286
0
288
0
289
3
290
0
371
-2
372
-2
  0
ENDTAB
  0
TABLE
  2
BLOCK_RECORD
  5
9
330
0
100
AcDbSymbolTable
 70
2
  0
BLOCK_RECORD
  5
17
330
9
100
AcDbSymbolTableRecord
100
AcDbBlockTableRecord
  2
*Model_Space
340
1A
 70
0
280
1
281
0
  0
BLOCK_RECORD
  5
1B
330
9
100
AcDbSymbolTableRecord
100
AcDbBlockTableRecord
  2
*Paper_Space
340
1E
 70
0
280
1
281
0
  0
ENDTAB
  0
ENDSEC
  0
SECTION
  2
BLOCKS
  0
BLOCK
  5
18
330
17
100
AcDbEntity
  8
0
100
AcDbBlockBegin
  2
*Model_Space
 70
0
 10
0.0
 20
0.0
 30
0.0
  3
*Model_Space
  1

  0
ENDBLK
  5
19
330
17
100
AcDbEntity
  8
0
100
AcDbBlockEnd
  0
BLOCK
  5
1C
330
1B
100
AcDbEntity
  8
0
100
AcDbBlockBegin
  2
*Paper_Space
 70
0
 10
0.0
 20
0.0
 30
0.0
  3
*Paper_Space
  1

  0
ENDBLK
  5
1D
330
1B
100
AcDbEntity
  8
0
100
AcDbBlockEnd
  0
ENDSEC
  0
SECTION
  2
ENTITIES
  0
LWPOLYLINE
  5
30
330
17
100
AcDbEntity
  8
C
100
AcDbPolyline
 90
39
 70
1
 10
88.35663939134253
 20
332.6948778795924
 10
86.66336393326391
 20
338.25849724185076
 10
88.3415995485155
 20
343.77269997767735
 10
98.3402751025384
 20
362.93682812288796
 10
101.6744029452339
 20
376.63056747681543
 10
108.31749062829876
 20
387.54421152756515
 10
105.87448696667767
 20
391.55771754308546
 10
82.54115363334424
 20
394.29581278118076
 10
79.98415729496544
 20
398.49659247994606
 10
81.67069058523113
 20
401.2673257425252
 10
83.33735725189784
 20
417.6958971710967
 10
86.66789276178721
 20
423.1674912230579
 10
86.66789276178721
 20
431.3817769373436
 10
88.33790375925065
 20
434.12536643317657
 10
90.00457042591736
 20
447.8158426236528
 10
92.53845008782302
 20
451.978644925355
 10
105.89020559233863
 20
454.72052328788936
 10
112.56542026092919
 20
460.2037353370889
 10
122.57130964649987
 20
460.2037353370889
 10
130.90464297983317
 20
465.67992581327934
 10
140.9907586633915
 20
465.67992581327934
 10
146.86789276178715
 20
456.02463408020077
 10
146.86789276178715
 20
387.57225312781986
 10
149.3240919967248
 20
383.53706867042223
 10
159.3240919967248
 20
383.53706867042223
 10
161.86789276178715
 20
379.35796741353414
 10
161.86789276178715
 20
373.8256937368342
 10
154.32409199672492
 20
361.4323067656603
 10
150.99075866339152
 20
361.4323067656603
 10
146.86789276178715
 20
354.6590270701675
 10
146.86789276178715
 20
346.4447413558818
 10
144.32409199672492
 20
342.26564009899363
 10
139.32409199672492
 20
342.26564009899363
 10
137.6574253300582
 20
339.52754486089844
 10
119.32409199672489
 20
339.52754486089844
 10
117.66191494593615
 20
336.79682542031685
 10
97.66191494593612
 20
334.05873018222155
 10
95.9842335203407
 20
331.30253926874343
 10
88.35663939134253
 20
332.6948778795924
  0
LWPOLYLINE
  5
31
330
17
100
AcDbEntity
  8
C
100
AcDbPolyline
 90
24
 70
1
 10
16.709648922326515
 20
88.9951895683292
 10
11.667892761787147
 20
97.27807468921512
 10
11.667892761787147
 20
102.76742632908397
 10
8.324192274133392
 20
113.75387078851784
 10
17.55098361300589
 20
126.15611628946988
 10
30.878360193516198
 20
126.15611628946988
 10
32.54502686018279
 20
128.8942115275651
 10
42.5450268601828
 20
128.8942115275651
 10
44.211693526849395
 20
131.6323067656603
 10
67.54502686018282
 20
131.6323067656603
 10
69.21169352684953
 20
134.3704020037556
 10
79.21169352684953
 20
134.3704020037556
 10
80.87836019351613
 20
137.1084972418508
 10
90.99075866339157
 20
137.1084972418508
 10
93.5361220660419
 20
132.92682879463956
 10
91.86587686221992
 20
102.74311189699958
 10
85.98072698218017
 20
95.8370686704223
 10
64.32409199672485
 20
95.8370686704223
 10
62.657425330058246
 20
93.09897343232699
 10
52.65742533005824
 20
93.09897343232699
 10
50.99075866339153
 20
90.36087819423177
 10
40.99075866339164
 20
90.36087819423177
 10
39.32197632700074
 20
87.61930721301836
 10
16.709648922326515
 20
88.9951895683292
  0
LWPOLYLINE
  5
32
330
17
100
AcDbEntity
  8
C
100
AcDbPolyline
 90
20
 70
1
 10
6.704256555416399
 20
258.76595321872907
 10
1.6691040059026996
 20
267.03798955007295
 10
0.0
 20
305.42738168583605
 10
2.545026860182875
 20
309.6084972418508
 10
75.99075866339156
 20
309.6084972418508
 10
78.53455942845378
 20
305.42939598496264
 10
78.53455942845378
 20
277.9923604035008
 10
75.99665204331241
 20
273.8229411279113
 10
60.996652043312395
 20
271.08484588981605
 10
59.324091996724945
 20
268.3370686704223
 10
50.99075866339153
 20
268.3370686704223
 10
49.32409199672494
 20
265.59897343232694
 10
32.65742533005822
 20
265.59897343232694
 10
30.990758663391627
 20
262.86087819423176
 10
24.211693526849487
 20
262.86087819423176
 10
22.601226095120495
 20
265.5066461177865
 10
19.2678927617872
 20
260.0304556415961
 10
17.585149724601013
 20
262.7949620598304
 10
12.635507197855445
 20
257.3739250067282
 10
6.704256555416399
 20
258.76595321872907
  0
LWPOLYLINE
  5
33
330
17
100
AcDbEntity
  8
C
100
AcDbPolyline
 90
17
 70
1
 10
707.5416216090421
 20
2.7474249163440545
 10
705.8738705776383
 20
5.487301610792916
 10
685.8738705776383
 20
8.225396848888122
 10
681.65918394272
 20
15.149524891968413
 10
683.3345594284539
 20
20.654330059379554
 10
683.3345594284539
 20
42.57225312781976
 10
685.8783601935161
 20
46.7513543847079
 10
699.2116935268494
 20
46.7513543847079
 10
700.8783601935161
 20
49.489449622803214
 10
747.6574253300582
 20
49.489449622803214
 10
750.2012260951207
 20
45.310348365915075
 10
750.2012260951207
 20
39.83415788972455
 10
755.2205106030773
 20
31.588190483795575
 10
741.8556459820805
 20
12.376197591112748
 10
737.6833234402372
 20
2.77985574487305
 10
734.2991512290877
 20
0.0
 10
707.5416216090421
 20
2.7474249163440545
  0
LWPOLYLINE
  5
34
330
17
100
AcDbEntity
  8
C
100
AcDbPolyline
 90
63
 70
1
 10
668.3633537897326
 20
149.23945129168337
 10
665.0029058018822
 20
157.52055526174303
 10
663.3358426560991
 20
176.69178143824948
 10
660.0012260951206
 20
187.64837871003635
 10
660.0012260951206
 20
193.11140802254846
 10
656.6678927617871
 20
198.58759849873897
 10
656.6678927617871
 20
204.12233823161773
 10
674.2146450478479
 20
230.20373533708894
 10
680.9786673545617
 20
230.20373533708894
 10
685.9184830579344
 20
224.79346099529974
 10
687.5450268601828
 20
227.46564009899362
 10
692.6574253300582
 20
227.46564009899362
 10
694.324091996725
 20
224.7275448608984
 10
704.2116935268494
 20
224.7275448608984
 10
706.6549045337468
 20
228.74139151508678
 10
701.6678927617872
 20
239.66532206318857
 10
701.6678927617872
 20
247.88647394813157
 10
698.3345594284539
 20
258.8388549005125
 10
698.3345594284539
 20
264.35796741353414
 10
699.9841572949655
 20
267.0680210513746
 10
695.8832073239176
 20
273.8052960038103
 10
675.8832073239176
 20
271.0672007657151
 10
673.3345594284539
 20
275.2542651654056
 10
673.3345594284539
 20
308.11140802254846
 10
670.8783601935161
 20
312.14659247994604
 10
635.8783601935162
 20
312.14659247994604
 10
634.2116935268494
 20
314.8846877180412
 10
624.2116935268494
 20
314.8846877180412
 10
621.6508239616322
 20
319.0918305751841
 10
625.8783601935162
 20
326.0370686704223
 10
629.2217252080609
 20
326.0370686704223
 10
640.8883918747274
 20
339.7275448608984
 10
679.2116935268494
 20
339.7275448608984
 10
680.8783601935161
 20
342.4656400989936
 10
690.9703652626451
 20
342.4656400989936
 10
697.6370319293118
 20
336.9894496228032
 10
709.3240919967249
 20
336.9894496228032
 10
710.9907586633916
 20
334.2513543847079
 10
714.3240919967249
 20
334.2513543847079
 10
725.1897308904734
 20
316.40066191640693
 10
735.214214323161
 20
294.44226963528155
 10
731.8849615619422
 20
288.9727829561365
 10
733.5461389109198
 20
286.24370588281624
 10
730.2128055775866
 20
278.0294201685305
 10
731.8678927617871
 20
275.31034836591505
 10
731.8678927617871
 20
242.45320550877213
 10
733.5345594284538
 20
239.71511027067694
 10
733.5345594284538
 20
220.5558753363487
 10
740.2233182456764
 20
212.31436893655675
 10
738.5345594284539
 20
209.5399794511199
 10
738.5345594284539
 20
201.32569373683418
 10
735.2012260951205
 20
195.84950326064376
 10
735.2012260951205
 20
184.90268819486977
 10
729.3311904426445
 20
172.50373533708895
 10
724.3036985959784
 20
172.50373533708895
 10
717.6370319293118
 20
167.02754486089844
 10
710.9786673545617
 20
167.02754486089844
 10
705.9786673545617
 20
161.55135438470802
 10
699.312000687895
 20
161.55135438470802
 10
694.3208726478322
 20
156.08488081701998
 10
682.6542059811654
 20
153.3467855789248
 10
677.639149908271
 20
147.85410511813535
 10
668.3633537897326
 20
149.23945129168337
  0
LWPOLYLINE
  5
35
330
17
100
AcDbEntity
  8
C
100
AcDbPolyline
 90
42
 70
1
 10
6150.8783601935165
 20
246.43230676566031
 10
6148.334559428454
 20
250.61140802254823
 10
6148.334559428454
 20
258.82569373683395
 10
6146.667892761788
 20
261.56378897492914
 10
6146.667892761788
 20
291.7389197944867
 10
6149.2116935268505
 20
295.9180210513745
 10
6154.324091996725
 20
295.9180210513745
 10
6155.9755716481695
 20
293.204875909717
 10
6162.642238314836
 20
295.9429711478122
 10
6164.324091996726
 20
293.17992581327934
 10
6180.990758663392
 20
293.17992581327934
 10
6182.642238314836
 20
290.4667806716218
 10
6189.308904981503
 20
293.204875909717
 10
6190.990758663392
 20
290.44183057518416
 10
6199.324091996726
 20
290.44183057518416
 10
6200.9755716481695
 20
287.7286854335266
 10
6207.627922084696
 20
290.460900791386
 10
6212.645334021228
 20
284.9656400989936
 10
6219.297809210408
 20
284.9656400989936
 10
6227.6795991711815
 20
279.45760669619966
 10
6233.5443672334895
 20
267.0697802788762
 10
6229.349990106904
 20
257.42271288773
 10
6222.637031929312
 20
251.90849724185082
 10
6215.990758663393
 20
251.90849724185082
 10
6214.267892761787
 20
249.07807468921496
 10
6212.601226095122
 20
251.81616992731014
 10
6210.990758663392
 20
249.1704020037556
 10
6204.324091996726
 20
249.1704020037556
 10
6202.657425330059
 20
246.43230676566031
 10
6190.990758663392
 20
246.43230676566031
 10
6189.267892761788
 20
243.60188421302442
 10
6187.5450268601835
 20
246.43230676566031
 10
6182.657425330059
 20
246.43230676566031
 10
6180.934559428454
 20
243.60188421302442
 10
6179.242361883226
 20
246.38192303732777
 10
6175.970365262646
 20
243.6942115275651
 10
6172.5450268601835
 20
243.6942115275651
 10
6170.8783601935165
 20
246.43230676566031
 10
6167.657425330059
 20
246.43230676566031
 10
6165.960090307016
 20
243.64382779923255
 10
6162.56542026093
 20
246.43230676566031
 10
6150.8783601935165
 20
246.43230676566031
  0
LWPOLYLINE
  5
36
330
17
100
AcDbEntity
  8
C
100
AcDbPolyline
 90
40
 70
1
 10
6037.540537244306
 20
334.05873018222155
 10
6035.878360193517
 20
336.7894496228032
 10
6019.21169352685
 20
336.7894496228032
 10
6015.934559428454
 20
342.1733127844532
 10
6014.293423640349
 20
339.47716113256587
 10
6010.934559428454
 20
342.2362281637651
 10
6007.57569521656
 20
339.47716113256587
 10
6005.8783601935165
 20
342.26564009899363
 10
5997.552503644108
 20
342.26564009899363
 10
5990.001226095121
 20
351.9144947449213
 10
5990.001226095121
 20
354.662829249474
 10
5971.646344428149
 20
390.2999046937907
 10
5980.891830467907
 20
399.9656400989936
 10
5985.898753594263
 20
399.9656400989936
 10
5992.601226095121
 20
405.47124251041265
 10
5995.909028549893
 20
402.7541190654215
 10
5999.201645618202
 20
408.16341853478565
 10
6007.527401922094
 20
410.89902417749323
 10
6011.669149651757
 20
420.4250439557171
 10
6013.336250313007
 20
447.81312624768
 10
6017.5450268601835
 20
454.7275448608984
 10
6025.990758663392
 20
454.7275448608984
 10
6027.657425330059
 20
451.9894496228032
 10
6034.324091996726
 20
451.9894496228032
 10
6035.990758663393
 20
449.2513543847079
 10
6044.312000687895
 20
449.2513543847079
 10
6049.320872647833
 20
443.76544700001494
 10
6072.664862301492
 20
438.28675555068673
 10
6076.002913127979
 20
432.8028149071722
 10
6082.669579794645
 20
430.0647196690769
 10
6086.884961561943
 20
423.13944962280317
 10
6083.534559428454
 20
417.63521754635804
 10
6083.534559428454
 20
412.1590270701675
 10
6081.8654882148985
 20
409.41698150504016
 10
6080.199702474576
 20
390.260445491332
 10
6075.189968420726
 20
376.54331653436003
 10
6066.861966946731
 20
365.5979431685389
 10
6061.862939882319
 20
338.22231876818165
 10
6057.652578199657
 20
331.3052960038103
 10
6037.540537244306
 20
334.05873018222155
  0
LWPOLYLINE
  5
37
330
17
100
AcDbEntity
  8
C
100
AcDbPolyline
 90
22
 70
1
 10
5842.560213875406
 20
216.28830905017503
 10
5835.917267486052
 20
213.55995606883337
 10
5819.191300126104
 20
227.299143543077
 10
5816.667892761788
 20
231.44474135588177
 10
5816.667892761788
 20
256.1436816992484
 10
5818.334559428455
 20
258.8817769373436
 10
5818.334559428455
 20
269.84294556169965
 10
5824.205814880681
 20
276.7326841025782
 10
5835.8765602353305
 20
282.2107890649649
 10
5844.22689220222
 20
290.44183057518416
 10
5852.637031929312
 20
290.44183057518416
 10
5859.303698595979
 20
284.9656400989936
 10
5867.657425330059
 20
284.9656400989936
 10
5870.2012260951215
 20
280.7865388421055
 10
5870.2012260951215
 20
272.51616992731044
 10
5866.867892761788
 20
267.0399794511199
 10
5866.867892761788
 20
234.1828365939771
 10
5865.2012260951215
 20
231.44474135588177
 10
5865.2012260951215
 20
215.01616992731044
 10
5862.652123198102
 20
210.8283580250654
 10
5844.20681623821
 20
213.58317659699733
 10
5842.560213875406
 20
216.28830905017503
  0
LWPOLYLINE
  5
38
330
17
100
AcDbEntity
  8
C
100
AcDbPolyline
 90
8
 70
1
 10
5850.934559428454
 20
230.2960626516294
 10
5852.601226095121
 20
227.55796741353407
 10
5854.98883905634
 20
231.48047442125187
 10
5850.900964332474
 20
240.88258628614435
 10
5846.856169730422
 20
236.8955744641218
 10
5845.206632954786
 20
231.47566791560337
 10
5847.62386310571
 20
224.85706154997843
 10
5850.934559428454
 20
230.2960626516294
  0
ENDSEC
  0
SECTION
  2
OBJECTS
  0
DICTIONARY
  5
A
330
0
100
AcDbDictionary
281
1
  3
ACAD_COLOR
350
B
  3
ACAD_GROUP
350
C
  3
ACAD_LAYOUT
350
D
  3
ACAD_MATERIAL
350
E
  3
ACAD_MLEADERSTYLE
350
F
  3
ACAD_MLINESTYLE
350
10
  3
ACAD_PLOTSETTINGS
350
11
  3
ACAD_PLOTSTYLENAME
350
12
  3
ACAD_SCALELIST
350
14
  3
ACAD_TABLESTYLE
350
15
  3
ACAD_VISUALSTYLE
350
16
  3
EZDXF_META
350
2D
  0
DICTIONARY
  5
B
330
A
100
AcDbDictionary
281
1
  0
DICTIONARY
  5
C
330
A
100
AcDbDictionary
281
1
  0
DICTIONARY
  5
D
330
A
100
AcDbDictionary
281
1
  3
Model
350
1A
  3
Layout1
350
1E
  0
DICTIONARY
  5
E
330
A
100
AcDbDictionary
281
1
  3
ByBlock
350
1F
  3
ByLayer
350
20
  3
Global
350
21
  0
DICTIONARY
  5
F
330
A
100
AcDbDictionary
281
1
  3
Standard
350
2C
  0
DICTIONARY
  5
10
330
A
100
AcDbDictionary
281
1
  3
Standard
350
22
  0
DICTIONARY
  5
11
330
A
100
AcDbDictionary
281
1
  0
ACDBDICTIONARYWDFLT
  5
12
330
A
100
AcDbDictionary
281
1
  3
Normal
350
13
100
AcDbDictionaryWithDefault
340
13
  0
ACDBPLACEHOLDER
  5
13
330
12
  0
DICTIONARY
  5
14
330
A
100
AcDbDictionary
281
1
  0
DICTIONARY
  5
15
330
A
100
AcDbDictionary
281
1
  0
DICTIONARY
  5
16
330
A
100
AcDbDictionary
281
1
  0
LAYOUT
  5
1A
330
D
100
AcDbPlotSettings
  1

  4
A3
  6

 40
7.5
 41
20.0
 42
7.5
 43
20.0
 44
420.0
 45
297.0
 46
0.0
 47
0.0
 48
0.0
 49
0.0
140
0.0
141
0.0
142
1.0
143
1.0
 70
1024
 72
1
 73
0
 74
5
  7

 75
16
 76
0
 77
2
 78
300
147
1.0
148
0.0
149
0.0
100
AcDbLayout
  1
Model
 70
1
 71
0
 10
0.0
 20
0.0
 11
420.0
 21
297.0
 12
0.0
 22
0.0
 32
0.0
 14
1e+20
 24
1e+20
 34
1e+20
 15
-1e+20
 25
-1e+20
 35
-1e+20
146
0.0
 13
0.0
 23
0.0
 33
0.0
 16
1.0
 26
0.0
 36
0.0
 17
0.0
 27
1.0
 37
0.0
 76
1
330
17
  0
LAYOUT
  5
1E
330
D
100
AcDbPlotSettings
  1

  4
A3
  6

 40
7.5
 41
20.0
 42
7.5
 43
20.0
 44
420.0
 45
297.0
 46
0.0
 47
0.0
 48
0.0
 49
0.0
140
0.0
141
0.0
142
1.0
143
1.0
 70
0
 72
1
 73
0
 74
5
  7

 75
16
 76
0
 77
2
 78
300
147
1.0
148
0.0
149
0.0
100
AcDbLayout
  1
Layout1
 70
1
 71
1
 10
0.0
 20
0.0
 11
420.0
 21
297.0
 12
0.0
 22
0.0
 32
0.0
 14
1e+20
 24
1e+20
 34
1e+20
 15
-1e+20
 25
-1e+20
 35
-1e+20
146
0.0
 13
0.0
 23
0.0
 33
0.0
 16
1.0
 26
0.0
 36
0.0
 17
0.0
 27
1.0
 37
0.0
 76
1
330
1B
  0
MATERIAL
  5
1F
102
{ACAD_REACTORS
330
E
102
}
330
E
100
AcDbMaterial
  1
ByBlock
  2

 70
0
 40
1.0
 71
1
 41
1.0
 91
-1023410177
 42
1.0
 72
1
  3

 73
1
 74
1
 75
1
 44
0.5
 73
0
 45
1.0
 46
1.0
 77
1
  4

 78
1
 79
1
170
1
 48
1.0
171
1
  6

172
1
173
1
174
1
140
1.0
141
1.0
175
1
  7

176
1
177
1
178
1
143
1.0
179
1
  8

270
1
271
1
272
1
145
1.0
146
1.0
273
1
  9

274
1
275
1
276
1
 42
1.0
 72
1
  3

 73
1
 74
1
 75
1
 94
63
  0
MATERIAL
  5
20
102
{ACAD_REACTORS
330
E
102
}
330
E
100
AcDbMaterial
  1
ByLayer
  2

 70
0
 40
1.0
 71
1
 41
1.0
 91
-1023410177
 42
1.0
 72
1
  3

 73
1
 74
1
 75
1
 44
0.5
 73
0
 45
1.0
 46
1.0
 77
1
  4

 78
1
 79
1
170
1
 48
1.0
171
1
  6

172
1
173
1
174
1
140
1.0
141
1.0
175
1
  7

176
1
177
1
178
1
143
1.0
179
1
  8

270
1
271
1
272
1
145
1.0
146
1.0
273
1
  9

274
1
275
1
276
1
 42
1.0
 72
1
  3

 73
1
 74
1
 75
1
 94
63
  0
MATERIAL
  5
21
102
{ACAD_REACTORS
330
E
102
}
330
E
100
AcDbMaterial
  1
Global
  2

 70
0
 40
1.0
 71
1
 41
1.0
 91
-1023410177
 42
1.0
 72
1
  3

 73
1
 74
1
 75
1
 44
0.5
 73
0
 45
1.0
 46
1.0
 77
1
  4

 78
1
 79
1
170
1
 48
1.0
171
1
  6

172
1
173
1
174
1
140
1.0
141
1.0
175
1
  7

176
1
177
1
178
1
143
1.0
179
1
  8

270
1
271
1
272
1
145
1.0
146
1.0
273
1
  9

274
1
275
1
276
1
 42
1.0
 72
1
  3

 73
1
 74
1
 75
1
 94
63
  0
MLINESTYLE
  5
22
102
{ACAD_REACTORS
330
10
102
}
330
10
100
AcDbMlineStyle
  2
Standard
 70
0
  3

 62
256
 51
90.0
 52
90.0
 71
2
 49
0.5
 62
256
  6
BYLAYER
 49
-0.5
 62
256
  6
BYLAYER
  0
MLEADERSTYLE
  5
2C
102
{ACAD_REACTORS
330
F
102
}
330
F
100
AcDbMLeaderStyle
179
2
170
2
171
1
172
0
 90
2
 40
0.0
 41
0.0
173
1
 91
-1056964608
 92
-2
290
1
 42
2.0
291
1
 43
8.0
  3
Standard
 44
4.0
300

342
29
174
1
175
1
176
0
178
1
 93
-1056964608
 45
4.0
292
0
297
0
 46
4.0
 94
-1056964608
 47
1.0
 49
1.0
140
1.0
294
1
141
0.0
177
0
142
1.0
295
0
296
0
143
3.75
271
0
272
9
273
9
  0
DICTIONARY
  5
2D
330
A
100
AcDbDictionary
280
1
281
1
  3
CREATED_BY_EZDXF
350
2E
  3
WRITTEN_BY_EZDXF
350
3B
  0
DICTIONARYVAR
  5
2E
330
2D
100
DictionaryVariables
280
0
  1
1.4.4 @ 2026-07-17T11:52:30.125161+00:00
  0
DICTIONARYVAR
  5
3B
330
2D
100
DictionaryVariables
280
0
  1
1.4.4 @ 2026-07-17T11:52:30.130040+00:00
  0
ENDSEC
  0
EOF
