  0
SECTION
  2
HEADER
  9
$ACADVER
  1
AC1027
  9
$ACADMAINTVER
 70
105
  9
$DWGCODEPAGE
  3
ANSI_1252
  9
$LASTSAVEDBY
  1
ezdxf
  9
$REQUIREDVERSIONS
160
0
  9
$INSBASE
 10
0.0
 20
0.0
 30
0.0
  9
$EXTMIN
 10
1e+20
 20
1e+20
 30
1e+20
  9
$EXTMAX
 10
-1e+20
 20
-1e+20
 30
-1e+20
  9
$LIMMIN
 10
0.0
 20
0.0
  9
$LIMMAX
 10
420.0
 20
297.0
  9
$ORTHOMODE
 70
0
  9
$REGENMODE
 70
1
  9
$FILLMODE
 70
1
  9
$QTEXTMODE
 70
0
  9
$MIRRTEXT
 70
1
  9
$LTSCALE
 40
1.0
  9
$ATTMODE
 70
1
  9
$TEXTSIZE
 40
2.5
  9
$TRACEWID
 40
1.0
  9
$TEXTSTYLE
  7
Standard
  9
$CLAYER
  8
0
  9
$CELTYPE
  6
ByLayer
  9
$CECOLOR
 62
256
  9
$CELTSCALE
 40
1.0
  9
$DISPSILH
 70
0
  9
$DIMSCALE
 40
1.0
  9
$DIMASZ
 40
2.5
  9
$DIMEXO
 40
0.625
  9
$DIMDLI
 40
3.75
  9
$DIMRND
 40
0.0
  9
$DIMDLE
 40
0.0
  9
$DIMEXE
 40
1.25
  9
$DIMTP
 40
0.0
  9
$DIMTM
 40
0.0
  9
$DIMTXT
 40
2.5
  9
$DIMCEN
 40
2.5
  9
$DIMTSZ
 40
0.0
  9
$DIMTOL
 70
0
  9
$DIMLIM
 70
0
  9
$DIMTIH
 70
0
  9
$DIMTOH
 70
0
  9
$DIMSE1
 70
0
  9
$DIMSE2
 70
0
  9
$DIMTAD
 70
1
  9
$DIMZIN
 70
8
  9
$DIMBLK
  1

  9
$DIMASO
 70
1
  9
$DIMSHO
 70
1
  9
$DIMPOST
  1

  9
$DIMAPOST
  1

  9
$DIMALT
 70
0
  9
$DIMALTD
 70
3
  9
$DIMALTF
 40
0.03937007874
  9
$DIMLFAC
 40
1.0
  9
$DIMTOFL
 70
1
  9
$DIMTVP
 40
0.0
  9
$DIMTIX
 70
0
  9
$DIMSOXD
 70
0
  9
$DIMSAH
 70
0
  9
$DIMBLK1
  1

  9
$DIMBLK2
  1

  9
$DIMSTYLE
  2
ISO-25
  9
$DIMCLRD
 70
0
  9
$DIMCLRE
 70
0
  9
$DIMCLRT
 70
0
  9
$DIMTFAC
 40
1.0
  9
$DIMGAP
 40
0.625
  9
$DIMJUST
 70
0
  9
$DIMSD1
 70
0
  9
$DIMSD2
 70
0
  9
$DIMTOLJ
 70
0
  9
$DIMTZIN
 70
8
  9
$DIMALTZ
 70
0
  9
$DIMALTTZ
 70
0
  9
$DIMUPT
 70
0
  9
$DIMDEC
 70
2
  9
$DIMTDEC
 70
2
  9
$DIMALTU
 70
2
  9
$DIMALTTD
 70
3
  9
$DIMTXSTY
  7
Standard
  9
$DIMAUNIT
 70
0
  9
$DIMADEC
 70
0
  9
$DIMALTRND
 40
0.0
  9
$DIMAZIN
 70
0
  9
$DIMDSEP
 70
44
  9
$DIMATFIT
 70
3
  9
$DIMFRAC
 70
0
  9
$DIMLDRBLK
  1

  9
$DIMLUNIT
 70
2
  9
$DIMLWD
 70
-2
  9
$DIMLWE
 70
-2
  9
$DIMTMOVE
 70
0
  9
$DIMFXL
 40
1.0
  9
$DIMFXLON
 70
0
  9
$DIMJOGANG
 40
0.785398163397
  9
$DIMTFILL
 70
0
  9
$DIMTFILLCLR
 70
0
  9
$DIMARCSYM
 70
0
  9
$DIMLTYPE
  6

  9
$DIMLTEX1
  6

  9
$DIMLTEX2
  6

  9
$DIMTXTDIRECTION
 70
0
  9
$LUNITS
 70
2
  9
$LUPREC
 70
4
  9
$SKETCHINC
 40
1.0
  9
$FILLETRAD
 40
10.0
  9
$AUNITS
 70
0
  9
$AUPREC
 70
2
  9
$MENU
  1
.
  9
$ELEVATION
 40
0.0
  9
$PELEVATION
 40
0.0
  9
$THICKNESS
 40
0.0
  9
$LIMCHECK
 70
0
  9
$CHAMFERA
 40
0.0
  9
$CHAMFERB
 40
0.0
  9
$CHAMFERC
 40
0.0
  9
$CHAMFERD
 40
0.0
  9
$SKPOLY
 70
0
  9
$TDCREATE
 40
2461239.6197916665
  9
$TDUCREATE
 40
2458532.153996898
  9
$TDUPDATE
 40
2461239.6197916665
  9
$TDUUPDATE
 40
2458532.1544311
  9
$TDINDWG
 40
0.0
  9
$TDUSRTIMER
 40
0.0
  9
$USRTIMER
 70
1
  9
$ANGBASE
 50
0.0
  9
$ANGDIR
 70
0
  9
$PDMODE
 70
0
  9
$PDSIZE
 40
0.0
  9
$PLINEWID
 40
0.0
  9
$SPLFRAME
 70
0
  9
$SPLINETYPE
 70
6
  9
$SPLINESEGS
 70
8
  9
$HANDSEED
  5
4B
  9
$SURFTAB1
 70
6
  9
$SURFTAB2
 70
6
  9
$SURFTYPE
 70
6
  9
$SURFU
 70
6
  9
$SURFV
 70
6
  9
$UCSBASE
  2

  9
$UCSNAME
  2

  9
$UCSORG
 10
0.0
 20
0.0
 30
0.0
  9
$UCSXDIR
 10
1.0
 20
0.0
 30
0.0
  9
$UCSYDIR
 10
0.0
 20
1.0
 30
0.0
  9
$UCSORTHOREF
  2

  9
$UCSORTHOVIEW
 70
0
  9
$UCSORGTOP
 10
0.0
 20
0.0
 30
0.0
  9
$UCSORGBOTTOM
 10
0.0
 20
0.0
 30
0.0
  9
$UCSORGLEFT
 10
0.0
 20
0.0
 30
0.0
  9
$UCSORGRIGHT
 10
0.0
 20
0.0
 30
0.0
  9
$UCSORGFRONT
 10
0.0
 20
0.0
 30
0.0
  9
$UCSORGBACK
 10
0.0
 20
0.0
 30
0.0
  9
$PUCSBASE
  2

  9
$PUCSNAME
  2

  9
$PUCSORG
 10
0.0
 20
0.0
 30
0.0
  9
$PUCSXDIR
 10
1.0
 20
0.0
 30
0.0
  9
$PUCSYDIR
 10
0.0
 20
1.0
 30
0.0
  9
$PUCSORTHOREF
  2

  9
$PUCSORTHOVIEW
 70
0
  9
$PUCSORGTOP
 10
0.0
 20
0.0
 30
0.0
  9
$PUCSORGBOTTOM
 10
0.0
 20
0.0
 30
0.0
  9
$PUCSORGLEFT
 10
0.0
 20
0.0
 30
0.0
  9
$PUCSORGRIGHT
 10
0.0
 20
0.0
 30
0.0
  9
$PUCSORGFRONT
 10
0.0
 20
0.0
 30
0.0
  9
$PUCSORGBACK
 10
0.0
 20
0.0
 30
0.0
  9
$USERI1
 70
0
  9
$USERI2
 70
0
  9
$USERI3
 70
0
  9
$USERI4
 70
0
  9
$USERI5
 70
0
  9
$USERR1
 40
0.0
  9
$USERR2
 40
0.0
  9
$USERR3
 40
0.0
  9
$USERR4
 40
0.0
  9
$USERR5
 40
0.0
  9
$WORLDVIEW
 70
1
  9
$SHADEDGE
 70
3
  9
$SHADEDIF
 70
70
  9
$TILEMODE
 70
1
  9
$MAXACTVP
 70
64
  9
$PINSBASE
 10
0.0
 20
0.0
 30
0.0
  9
$PLIMCHECK
 70
0
  9
$PEXTMIN
 10
1e+20
 20
1e+20
 30
1e+20
  9
$PEXTMAX
 10
-1e+20
 20
-1e+20
 30
-1e+20
  9
$PLIMMIN
 10
0.0
 20
0.0
  9
$PLIMMAX
 10
420.0
 20
297.0
  9
$UNITMODE
 70
0
  9
$VISRETAIN
 70
1
  9
$PLINEGEN
 70
0
  9
$PSLTSCALE
 70
1
  9
$TREEDEPTH
 70
3020
  9
$CMLSTYLE
  2
Standard
  9
$CMLJUST
 70
0
  9
$CMLSCALE
 40
20.0
  9
$PROXYGRAPHICS
 70
1
  9
$MEASUREMENT
 70
1
  9
$CELWEIGHT
370
-1
  9
$ENDCAPS
280
0
  9
$JOINSTYLE
280
0
  9
$LWDISPLAY
290
0
  9
$INSUNITS
 70
4
  9
$HYPERLINKBASE
  1

  9
$STYLESHEET
  1

  9
$XEDIT
290
1
  9
$CEPSNTYPE
380
0
  9
$PSTYLEMODE
290
1
  9
$FINGERPRINTGUID
  2
{242D72DD-1E6B-4B7A-B1CA-E620D96A80D1}
  9
$VERSIONGUID
  2
{692C24C6-8665-4E0F-AA48-90E1C4DF4D9D}
  9
$EXTNAMES
290
1
  9
$PSVPSCALE
 40
0.0
  9
$OLESTARTUP
290
0
  9
$SORTENTS
280
127
  9
$INDEXCTL
280
0
  9
$HIDETEXT
280
1
  9
$XCLIPFRAME
280
1
  9
$HALOGAP
280
0
  9
$OBSCOLOR
 70
257
  9
$OBSLTYPE
280
0
  9
$INTERSECTIONDISPLAY
280
0
  9
$INTERSECTIONCOLOR
 70
257
  9
$DIMASSOC
280
2
  9
$PROJECTNAME
  1

  9
$CAMERADISPLAY
290
0
  9
$LENSLENGTH
 40
50.0
  9
$CAMERAHEIGHT
 40
0.0
  9
$STEPSPERSEC
 40
24.0
  9
$STEPSIZE
 40
100.0
  9
$3DDWFPREC
 40
2.0
  9
$PSOLWIDTH
 40
0.005
  9
$PSOLHEIGHT
 40
0.08
  9
$LOFTANG1
 40
1.570796326795
  9
$LOFTANG2
 40
1.570796326795
  9
$LOFTMAG1
 40
0.0
  9
$LOFTMAG2
 40
0.0
  9
$LOFTPARAM
 70
7
  9
$LOFTNORMALS
280
1
  9
$LATITUDE
 40
37.795
  9
$LONGITUDE
 40
-122.394
  9
$NORTHDIRECTION
 40
0.0
  9
$TIMEZONE
 70
-8000
  9
$LIGHTGLYPHDISPLAY
280
1
  9
$TILEMODELIGHTSYNCH
280
1
  9
$CMATERIAL
347
20
  9
$SOLIDHIST
280
0
  9
$SHOWHIST
280
1
  9
$DWFFRAME
280
2
  9
$DGNFRAME
280
2
  9
$REALWORLDSCALE
290
1
  9
$INTERFERECOLOR
 62
256
  9
$CSHADOW
280
0
  9
$SHADOWPLANELOCATION
 40
0.0
  0
ENDSEC
  0
SECTION
  2
CLASSES
  0
CLASS
  1
ACDBDICTIONARYWDFLT
  2
AcDbDictionaryWithDefault
  3
ObjectDBX Classes
 90
0
 91
0
280
0
281
0
  0
CLASS
  1
SUN
  2
AcDbSun
  3
SCENEOE
 90
1153
 91
0
280
0
281
0
  0
CLASS
  1
VISUALSTYLE
  2
AcDbVisualStyle
  3
ObjectDBX Classes
 90
4095
 91
0
280
0
281
0
  0
CLASS
  1
MATERIAL
  2
AcDbMaterial
  3
ObjectDBX Classes
 90
1153
 91
0
280
0
281
0
  0
CLASS
  1
SCALE
  2
AcDbScale
  3
ObjectDBX Classes
 90
1153
 91
0
280
0
281
0
  0
CLASS
  1
TABLESTYLE
  2
AcDbTableStyle
  3
ObjectDBX Classes
 90
4095
 91
0
280
0
281
0
  0
CLASS
  1
MLEADERSTYLE
  2
AcDbMLeaderStyle
  3
ACDB_MLEADERSTYLE_CLASS
 90
4095
 91
0
280
0
281
0
  0
CLASS
  1
DICTIONARYVAR
  2
AcDbDictionaryVar
  3
ObjectDBX Classes
 90
0
 91
0
280
0
281
0
  0
CLASS
  1
CELLSTYLEMAP
  2
AcDbCellStyleMap
  3
ObjectDBX Classes
 90
1152
 91
0
280
0
281
0
  0
CLASS
  1
MENTALRAYRENDERSETTINGS
  2
AcDbMentalRayRenderSettings
  3
SCENEOE
 90
1024
 91
0
280
0
281
0
  0
CLASS
  1
ACDBDETAILVIEWSTYLE
  2
AcDbDetailViewStyle
  3
ObjectDBX Classes
 90
1025
 91
0
280
0
281
0
  0
CLASS
  1
ACDBSECTIONVIEWSTYLE
  2
AcDbSectionViewStyle
  3
ObjectDBX Classes
 90
1025
 91
0
280
0
281
0
  0
CLASS
  1
RASTERVARIABLES
  2
AcDbRasterVariables
  3
ISM
 90
0
 91
0
280
0
281
0
  0
CLASS
  1
ACDBPLACEHOLDER
  2
AcDbPlaceHolder
  3
ObjectDBX Classes
 90
0
 91
0
280
0
281
0
  0
CLASS
  1
LAYOUT
  2
AcDbLayout
  3
ObjectDBX Classes
 90
0
 91
0
280
0
281
0
  0
ENDSEC
  0
SECTION
  2
TABLES
  0
TABLE
  2
VPORT
  5
8
330
0
100
AcDbSymbolTable
 70
1
  0
VPORT
  5
23
330
8
100
AcDbSymbolTableRecord
100
AcDbViewportTableRecord
  2
*Active
 70
0
 10
0.0
 20
0.0
 11
1.0
 21
1.0
 12
0.0
 22
0.0
 13
0.0
 23
0.0
 14
0.5
 24
0.5
 15
0.5
 25
0.5
 16
0.0
 26
0.0
 36
1.0
 17
0.0
 27
0.0
 37
0.0
 40
1000.0
 41
1.34
 42
50.0
 43
0.0
 44
0.0
 50
0.0
 51
0.0
 71
0
 72
1000
 73
1
 74
3
 75
0
 76
0
 77
0
 78
0
281
0
 65
0
146
0.0
  0
ENDTAB
  0
TABLE
  2
LTYPE
  5
2
330
0
100
AcDbSymbolTable
 70
3
  0
LTYPE
  5
24
330
2
100
AcDbSymbolTableRecord
100
AcDbLinetypeTableRecord
  2
ByBlock
 70
0
  3

 72
65
 73
0
 40
0.0
  0
LTYPE
  5
25
330
2
100
AcDbSymbolTableRecord
100
AcDbLinetypeTableRecord
  2
ByLayer
 70
0
  3

 72
65
 73
0
 40
0.0
  0
LTYPE
  5
26
330
2
100
AcDbSymbolTableRecord
100
AcDbLinetypeTableRecord
  2
Continuous
 70
0
  3

 72
65
 73
0
 40
0.0
  0
ENDTAB
  0
TABLE
  2
LAYER
  5
1
330
0
100
AcDbSymbolTable
 70
3
  0
LAYER
  5
27
330
1
100
AcDbSymbolTableRecord
100
AcDbLayerTableRecord
  2
0
 70
0
 62
7
  6
Continuous
370
-3
390
13
347
21
  0
LAYER
  5
28
330
1
100
AcDbSymbolTableRecord
100
AcDbLayerTableRecord
  2
Defpoints
 70
0
 62
7
  6
Continuous
290
0
370
-3
390
13
347
21
  0
LAYER
  5
2F
330
1
100
AcDbSymbolTableRecord
100
AcDbLayerTableRecord
  2
K
 70
0
 62
7
  6
Continuous
370
-3
390
13
347
21
  0
ENDTAB
  0
TABLE
  2
STYLE
  5
5
330
0
100
AcDbSymbolTable
 70
1
  0
STYLE
  5
29
330
5
100
AcDbSymbolTableRecord
100
AcDbTextStyleTableRecord
  2
Standard
 70
0
 40
0.0
 41
1.0
 50
0.0
 71
0
 42
2.5
  3
txt
  4

  0
ENDTAB
  0
TABLE
  2
VIEW
  5
7
330
0
100
AcDbSymbolTable
 70
0
  0
ENDTAB
  0
TABLE
  2
UCS
  5
6
330
0
100
AcDbSymbolTable
 70
0
  0
ENDTAB
  0
TABLE
  2
APPID
  5
3
330
0
100
AcDbSymbolTable
 70
3
  0
APPID
  5
2A
330
3
100
AcDbSymbolTableRecord
100
AcDbRegAppTableRecord
  2
ACAD
 70
0
  0
APPID
  5
48
330
3
100
AcDbSymbolTableRecord
100
AcDbRegAppTableRecord
  2
HATCHBACKGROUNDCOLOR
 70
0
  0
APPID
  5
49
330
3
100
AcDbSymbolTableRecord
100
AcDbRegAppTableRecord
  2
EZDXF
 70
0
  0
ENDTAB
  0
TABLE
  2
DIMSTYLE
  5
4
330
0
100
AcDbSymbolTable
 70
1
100
AcDbDimStyleTable
  0
DIMSTYLE
105
2B
330
4
100
AcDbSymbolTableRecord
100
AcDbDimStyleTableRecord
  2
Standard
 70
0
 40
1.0
 41
2.5
 42
0.625
 43
3.75
 44
1.25
 45
0.0
 46
0.0
 47
0.0
 48
0.0
 49
2.5
140
2.5
141
2.5
142
0.0
143
0.03937007874
144
1.0
145
0.0
146
1.0
147
0.625
148
0.0
 69
0
 70
0
 71
0
 72
0
 73
0
 74
0
 75
0
 76
0
 77
1
 78
8
 79
3
170
0
171
3
172
1
173
0
174
0
175
0
176
0
177
0
178
0
179
2
271
2
272
2
273
2
274
3
275
0
276
0
277
2
278
44
279
0
280
0
281
0
282
0
283
0
284
8
285
0
286
0
288
0
289
3
290
0
371
-2
372
-2
  0
ENDTAB
  0
TABLE
  2
BLOCK_RECORD
  5
9
330
0
100
AcDbSymbolTable
 70
2
  0
BLOCK_RECORD
  5
17
330
9
100
AcDbSymbolTableRecord
100
AcDbBlockTableRecord
  2
*Model_Space
340
1A
 70
0
280
1
281
0
  0
BLOCK_RECORD
  5
1B
330
9
100
AcDbSymbolTableRecord
100
AcDbBlockTableRecord
  2
*Paper_Space
340
1E
 70
0
280
1
281
0
  0
ENDTAB
  0
ENDSEC
  0
SECTION
  2
BLOCKS
  0
BLOCK
  5
18
330
17
100
AcDbEntity
  8
0
100
AcDbBlockBegin
  2
*Model_Space
 70
0
 10
0.0
 20
0.0
 30
0.0
  3
*Model_Space
  1

  0
ENDBLK
  5
19
330
17
100
AcDbEntity
  8
0
100
AcDbBlockEnd
  0
BLOCK
  5
1C
330
1B
100
AcDbEntity
  8
0
100
AcDbBlockBegin
  2
*Paper_Space
 70
0
 10
0.0
 20
0.0
 30
0.0
  3
*Paper_Space
  1

  0
ENDBLK
  5
1D
330
1B
100
AcDbEntity
  8
0
100
AcDbBlockEnd
  0
ENDSEC
  0
SECTION
  2
ENTITIES
  0
LWPOLYLINE
  5
30
330
17
100
AcDbEntity
  8
K
100
AcDbPolyline
 90
56
 70
1
 10
70.01043861070555
 20
83.59780561369857
 10
70.01043861070555
 20
91.80484845180914
 10
68.32670314388378
 20
94.57098529015917
 10
70.01043861070555
 20
97.33712212850921
 10
70.01043861070555
 20
110.9715151184758
 10
67.55423937576788
 20
115.00669957587351
 10
64.22090604243446
 20
115.00669957587351
 10
62.554239375767764
 20
117.74479481396871
 10
52.56633068459771
 20
117.74479481396871
 10
47.5663306845977
 20
123.22098529015912
 10
42.55423937576786
 20
123.22098529015912
 10
40.88757270910115
 20
125.95908052825445
 10
30.899664017931094
 20
125.95908052825445
 10
25.89966401793098
 20
131.43527100444484
 10
14.241299443180978
 20
131.43527100444484
 10
7.574632776514267
 20
136.91146148063538
 10
2.5404998528001377
 20
136.91146148063538
 10
0.0
 20
143.86759202996902
 10
14.220906042434533
 20
167.23050909968296
 10
27.666637845643272
 20
167.23050909968296
 10
29.333304512309976
 20
164.49241386158775
 10
69.33330451231001
 20
164.49241386158775
 10
70.99997117897661
 20
161.75431862349242
 10
75.88757270910118
 20
161.75431862349242
 10
78.34546282859145
 20
165.79228096265496
 10
81.67879616192486
 20
220.55418572455977
 10
83.34377194403896
 20
223.28950308089014
 10
83.34377194403896
 20
231.50378879517575
 10
85.86717930835486
 20
235.64938660798052
 10
89.24129944318094
 20
238.4209852901592
 10
107.5542393757679
 20
238.4209852901592
 10
109.2209060424345
 20
241.1590805282544
 10
127.57463277651426
 20
241.1590805282544
 10
130.9693028226002
 20
243.94755949468217
 10
133.5437719440389
 20
239.71807450946147
 10
133.5437719440389
 20
234.24188403327108
 10
136.87710527737218
 20
228.76569355708054
 10
136.87710527737218
 20
220.4953246422854
 10
127.66663784564325
 20
205.36384243301632
 10
122.55423937576782
 20
205.36384243301632
 10
120.94377194403883
 20
208.00961035657116
 10
118.5333941557486
 20
204.04970399009426
 10
111.87710527737227
 20
187.64670639695237
 10
111.87710527737227
 20
179.42389607085684
 10
108.54377194403885
 20
173.94770559466633
 10
108.54377194403885
 20
168.4715151184759
 10
103.53658745531813
 20
160.2454263155776
 10
96.86992078865143
 20
135.60256917272028
 10
93.56084074419402
 20
130.1662233853973
 10
108.53576080093019
 20
105.56456900647338
 10
111.88581409643949
 20
94.55725103551482
 10
109.33330451230994
 20
90.36384243301632
 10
94.22090604243449
 20
90.36384243301632
 10
89.2771052773722
 20
98.4858008327616
 10
74.26227557205422
 20
73.81858060259638
 10
70.01043861070555
 20
83.59780561369857
  0
LWPOLYLINE
  5
31
330
17
100
AcDbEntity
  8
K
100
AcDbPolyline
 90
32
 70
1
 10
716.6824886527728
 20
15.13211444538365
 10
713.3502821274856
 20
28.817962674242082
 10
708.3492498970375
 20
37.033944195692506
 10
706.6707840796682
 20
45.306382867012275
 10
724.2238575634328
 20
71.39717576634963
 10
727.5542393757678
 20
71.39717576634963
 10
730.8875727091012
 20
76.87336624254016
 10
735.9878798701466
 20
76.87336624254016
 10
740.9878798701469
 20
71.39717576634963
 10
747.6666378456432
 20
71.39717576634963
 10
750.9999711789767
 20
65.92098529015911
 10
755.97957777823
 20
65.92098529015911
 10
762.6462444448969
 20
60.44479481396869
 10
765.9795777782302
 20
60.44479481396869
 10
775.97957777823
 20
52.23050909968296
 10
780.9878798701467
 20
52.23050909968296
 10
785.9878798701468
 20
46.75431862349244
 10
792.6666378456434
 20
46.75431862349244
 10
795.2275074108607
 20
42.547175766349696
 10
790.9999711789765
 20
35.60193767111153
 10
787.6666378456433
 20
35.60193767111153
 10
784.3333045123098
 20
30.125747194921114
 10
780.9878798701467
 20
30.125747194921114
 10
770.9878798701467
 20
19.17336624254018
 10
765.9914024748392
 20
19.17336624254018
 10
759.3247358081724
 20
10.95908052825445
 10
750.9878798701467
 20
10.95908052825445
 10
745.9878798701468
 20
5.482890052063927
 10
737.6462444448969
 20
5.482890052063927
 10
730.971421772819
 20
0.0
 10
723.3760240010539
 20
1.3864614980205747
 10
716.6824886527728
 20
15.13211444538365
  0
LWPOLYLINE
  5
32
330
17
100
AcDbEntity
  8
K
100
AcDbPolyline
 90
54
 70
1
 10
652.5746327765142
 20
123.22098529015912
 10
645.8994181079237
 20
128.70419733935867
 10
632.5476626034081
 20
131.44607570189305
 10
630.8875727091012
 20
134.17336624254017
 10
624.2209060424345
 20
134.17336624254017
 10
620.0104386107056
 20
141.09056273752353
 10
620.0104386107056
 20
152.04294368990446
 10
616.6771052773722
 20
157.51913416609497
 10
616.6771052773722
 20
165.7334198803806
 10
610.8875727091012
 20
175.2447948139687
 10
605.8875727091012
 20
175.2447948139687
 10
602.5542393757678
 20
180.72098529015923
 10
599.2115406147288
 20
180.72098529015923
 10
594.9980515719251
 20
190.41201008860787
 10
597.5542393757679
 20
194.61146148063534
 10
604.241299443181
 20
194.61146148063534
 10
610.9079661098476
 20
200.08765195682588
 10
620.9079661098475
 20
200.08765195682588
 10
627.5746327765142
 20
205.56384243301628
 10
637.5746327765142
 20
205.56384243301628
 10
644.241299443181
 20
211.04003290920681
 10
654.241299443181
 20
211.04003290920681
 10
660.9079661098476
 20
216.5162233853972
 10
667.5404998528002
 20
216.5162233853972
 10
670.0050317510402
 20
223.2643464401023
 10
666.6771052773722
 20
234.19896199643998
 10
666.6771052773722
 20
239.66199130895205
 10
661.6600364772172
 20
247.9043186234925
 10
664.2209060424345
 20
252.11146148063534
 10
667.5663306845977
 20
252.11146148063534
 10
672.5574587246607
 20
257.57793504832335
 10
684.2241253913273
 20
260.3160302864186
 10
689.2329973512643
 20
265.8019376711116
 10
695.8996640179311
 20
265.8019376711116
 10
700.8996640179311
 20
271.278128147302
 10
707.5821074945395
 20
271.278128147302
 10
720.93466761081
 20
279.50425893321864
 10
727.669169787772
 20
276.73830268196645
 10
737.6908204633027
 20
265.7622090849565
 10
740.2112173371468
 20
261.6215570779273
 10
738.5429992348883
 20
201.3273885248712
 10
736.8771052773723
 20
198.5905627375235
 10
736.8771052773723
 20
193.10694052899458
 10
730.2193296840295
 20
184.90360988719735
 10
736.8840687988411
 20
157.53057423707907
 10
734.3333045123098
 20
153.34003290920683
 10
690.9999711789766
 20
153.34003290920683
 10
689.33330451231
 20
150.60193767111153
 10
675.9999711789766
 20
150.60193767111153
 10
673.5437719440389
 20
146.56675321371392
 10
673.5437719440389
 20
124.66199130895194
 10
669.3087000312931
 20
117.70437316658422
 10
660.9138554954183
 20
123.22098529015912
 10
652.5746327765142
 20
123.22098529015912
  0
LWPOLYLINE
  5
33
330
17
100
AcDbEntity
  8
K
100
AcDbPolyline
 90
16
 70
1
 10
621.6771052773723
 20
253.35246749942831
 10
621.6771052773723
 20
267.0905022786041
 10
624.9988591282396
 20
275.27625283966995
 10
623.3437719440388
 20
277.99532464228537
 10
623.3437719440388
 20
299.95616974755677
 10
625.0104386107056
 20
302.694264985652
 10
625.0104386107056
 20
308.1704554618424
 10
627.5542393757678
 20
312.3495567187305
 10
642.6666378456432
 20
312.3495567187305
 10
646.8941740775273
 20
305.4043186234925
 10
645.2242615193237
 20
302.66089084930104
 10
651.8736769608802
 20
289.00584128181896
 10
656.8814400121798
 20
256.0976840875645
 10
654.3348039637227
 20
251.91392486509912
 10
623.3891100306544
 20
250.53988826189334
 10
621.6771052773723
 20
253.35246749942831
  0
LWPOLYLINE
  5
34
330
17
100
AcDbEntity
  8
K
100
AcDbPolyline
 90
9
 70
1
 10
3247.5456881422406
 20
372.4017004119066
 10
3245.0061038758986
 20
376.57387456375477
 10
3246.681259919463
 20
387.5820428500396
 10
3249.2573559653742
 20
391.81420063975025
 10
3253.5437719440392
 20
387.58901917506626
 10
3253.5437719440392
 20
384.8371221285093
 10
3260.2275074108607
 20
373.8566995758734
 10
3257.656688945324
 20
369.63321209677656
 10
3247.5456881422406
 20
372.4017004119066
  0
LWPOLYLINE
  5
35
330
17
100
AcDbEntity
  8
K
100
AcDbPolyline
 90
48
 70
1
 10
3087.5694263909913
 20
347.71984471753103
 10
3080.9027597243244
 20
344.98174947943585
 10
3079.2209060424348
 20
347.74479481396867
 10
3070.8875727091013
 20
347.74479481396867
 10
3067.5694263909913
 20
353.19603519372157
 10
3060.9170759544636
 20
350.46381983586195
 10
3045.8850407669725
 20
366.9274774221615
 10
3039.2162698819016
 20
369.66643689281574
 10
3020.879194384374
 20
391.57566995479675
 10
3010.872267177666
 20
397.0556539013272
 10
3008.3350631249723
 20
401.22391770218144
 10
3011.6736945946222
 20
412.19370681674695
 10
3006.6832312399933
 20
434.056689132266
 10
3003.3267031438845
 20
439.5709852901592
 10
3005.8875727091013
 20
443.77812814730197
 10
3012.654546536814
 20
443.77812814730197
 10
3017.6647681564164
 20
438.29074256392795
 10
3027.564188276088
 20
435.5801870549703
 10
3029.2209060424348
 20
438.3019376711115
 10
3035.8875727091017
 20
438.3019376711115
 10
3039.2771052773724
 20
443.8704554618424
 10
3040.9437719440393
 20
441.13236022374724
 10
3042.5542393757682
 20
443.77812814730197
 10
3045.999971178977
 20
443.77812814730197
 10
3049.277105277373
 20
438.39426498565194
 10
3050.943771944039
 20
441.13236022374724
 10
3054.3333045123104
 20
435.56384243301625
 10
3059.33330451231
 20
435.56384243301625
 10
3061.88581409644
 20
431.37043383051775
 10
3060.219147429773
 20
425.89424335432733
 10
3061.8941740775276
 20
423.14241386158767
 10
3059.33330451231
 20
418.9352710044448
 10
3042.649212656027
 20
418.9352710044448
 10
3035.238675433203
 20
412.1716854439308
 10
3042.6666378456434
 20
399.9686043377781
 10
3045.9954075967444
 20
399.9686043377781
 10
3057.662074263411
 20
383.5400329092068
 10
3069.3333045123104
 20
383.5400329092068
 10
3070.999971178977
 20
380.8019376711115
 10
3082.6666378456434
 20
380.8019376711115
 10
3084.33330451231
 20
378.06384243301625
 10
3087.682185202821
 20
378.06384243301625
 10
3091.8682860659596
 20
365.6849441663067
 10
3098.5437719440392
 20
354.7180745094615
 10
3098.5437719440392
 20
349.18580083276163
 10
3096.00740815041
 20
345.0189174575137
 10
3090.062711455928
 20
343.62373353942087
 10
3087.5694263909913
 20
347.71984471753103
  0
LWPOLYLINE
  5
36
330
17
100
AcDbEntity
  8
K
100
AcDbPolyline
 90
23
 70
1
 10
3007.545688142241
 20
317.63979565000164
 10
3005.8875727091013
 20
320.3638424330163
 10
3002.5542393757682
 20
320.3638424330163
 10
2999.2209060424348
 20
325.8400329092068
 10
2995.892979443213
 20
325.8400329092068
 10
2985.892979443213
 20
339.53050909968294
 10
2982.5542393757682
 20
339.53050909968294
 10
2979.995260244312
 20
343.73454624421885
 10
2992.550636713998
 20
367.11146148063534
 10
2997.6666378456434
 20
367.11146148063534
 10
3000.999971178977
 20
361.6352710044449
 10
3009.3333045123104
 20
361.6352710044449
 10
3012.666637845644
 20
356.1590805282544
 10
3019.3212132034805
 20
356.1590805282544
 10
3024.32121320348
 20
350.6828900520639
 10
3029.3333045123104
 20
350.6828900520639
 10
3031.8771052773727
 20
346.50378879517575
 10
3031.8771052773727
 20
340.9800397302857
 10
3028.5408619311884
 20
332.75858291290336
 10
3026.8737614896327
 20
321.80335143982285
 10
3020.9547897242364
 20
309.3010335271997
 10
3017.5456881422406
 20
314.90170041190646
 10
3007.545688142241
 20
317.63979565000164
  0
LWPOLYLINE
  5
37
330
17
100
AcDbEntity
  8
K
100
AcDbPolyline
 90
48
 70
1
 10
3610.894203717808
 20
276.5543186234926
 10
3607.5628080799056
 20
276.5543186234926
 10
3594.2250765102817
 20
292.98830930749364
 10
3570.883699482263
 20
295.72734844853676
 10
3566.6771052773724
 20
302.6381817851426
 10
3566.6771052773724
 20
316.38474117612816
 10
3570.8801357376683
 20
323.2897197894714
 10
3582.5468024043353
 20
326.0278150275666
 10
3586.6600364772175
 20
332.7852710044449
 10
3582.5746862275196
 20
339.4969178432349
 10
3577.5746862275196
 20
336.7588226051397
 10
3574.9822017882093
 20
341.01790418400657
 10
3582.571664565385
 20
347.94479481396866
 10
3597.5542393757682
 20
347.94479481396866
 10
3599.277105277373
 20
350.77521736660435
 10
3601.8941740775276
 20
346.47574719492104
 10
3600.227507410861
 20
343.7376519568258
 10
3603.5608407441946
 20
338.26146148063543
 10
3600.227507410861
 20
332.7852710044449
 10
3602.6265149812257
 20
328.8440442817033
 10
3607.566330684598
 20
334.2543186234925
 10
3614.2412994431816
 20
334.2543186234925
 10
3620.907966109848
 20
339.73050909968293
 10
3625.899664017931
 20
339.73050909968293
 10
3630.8996640179316
 20
345.2066995758735
 10
3635.8875727091017
 20
345.2066995758735
 10
3637.5542393757682
 20
347.94479481396866
 10
3650.8875727091017
 20
347.94479481396866
 10
3652.5542393757682
 20
350.6828900520639
 10
3682.5542393757682
 20
350.6828900520639
 10
3684.220906042435
 20
353.4209852901592
 10
3690.9999711789774
 20
353.4209852901592
 10
3693.5437719440392
 20
349.24188403327105
 10
3693.5437719440392
 20
321.8048484518092
 10
3690.9999711789774
 20
317.6257471949211
 10
3675.9999711789774
 20
317.6257471949211
 10
3674.3333045123104
 20
314.8876519568259
 10
3664.3333045123104
 20
314.8876519568259
 10
3662.666637845644
 20
312.1495567187306
 10
3642.6666378456434
 20
312.1495567187306
 10
3640.999971178977
 20
309.41146148063535
 10
3635.9999711789774
 20
309.41146148063535
 10
3633.546650298767
 20
305.38100574886107
 10
3638.5466502987665
 20
256.0952914631468
 10
3635.9598483145587
 20
251.84554534623405
 10
3625.885040766973
 20
262.87985837454244
 10
3619.2139768761167
 20
265.61975961543004
 10
3610.894203717808
 20
276.5543186234926
  0
LWPOLYLINE
  5
38
330
17
100
AcDbEntity
  8
K
100
AcDbPolyline
 90
5
 70
1
 10
3607.590689298708
 20
353.48086730641694
 10
3611.903691965568
 20
349.22947896336865
 10
3609.296854589371
 20
344.94681755961574
 10
3604.9838519225104
 20
349.19820590266403
 10
3607.590689298708
 20
353.48086730641694
  0
LWPOLYLINE
  5
39
330
17
100
AcDbEntity
  8
K
100
AcDbPolyline
 90
5
 70
1
 10
3575.2295036076443
 20
338.28451224951306
 10
3570.9773670400195
 20
328.50459814397647
 10
3566.6580402804348
 20
332.7622202355672
 10
3570.9101768480596
 20
342.5421343411038
 10
3575.2295036076443
 20
338.28451224951306
  0
LWPOLYLINE
  5
3A
330
17
100
AcDbEntity
  8
K
100
AcDbPolyline
 90
25
 70
1
 10
3435.8875727091017
 20
188.93527100444496
 10
3431.677105277373
 20
195.85246749942831
 10
3431.677105277373
 20
209.59902689041388
 10
3433.3437719440394
 20
212.3371221285091
 10
3433.3437719440394
 20
220.55140784279482
 10
3435.875418244515
 20
224.71054105071863
 10
3442.542084911181
 20
227.44863628881396
 10
3449.213469071002
 20
238.40876740851903
 10
3460.8801357376688
 20
241.14686264661424
 10
3467.5542393757682
 20
252.11146148063534
 10
3470.8875727091017
 20
252.11146148063534
 10
3472.5542393757682
 20
254.84955671873055
 10
3482.5542393757682
 20
254.84955671873055
 10
3484.2209060424348
 20
257.5876519568259
 10
3487.666637845644
 20
257.5876519568259
 10
3493.5472319902265
 20
247.9266758621541
 10
3491.873760946576
 20
234.18030657502388
 10
3490.210438610706
 20
231.44770559466633
 10
3490.210438610706
 20
220.4953246422854
 10
3488.54136739715
 20
217.75327907715803
 10
3486.875084257121
 20
198.59102296682573
 10
3479.3378263580885
 20
183.45668766162393
 10
3443.401195136199
 20
184.82968187774262
 10
3439.236104717805
 20
188.93527100444496
 10
3435.8875727091017
 20
188.93527100444496
  0
LWPOLYLINE
  5
3B
330
17
100
AcDbEntity
  8
K
100
AcDbPolyline
 90
49
 70
1
 10
4166.677105277372
 20
228.70961035657112
 10
4166.677105277372
 20
242.40008654704738
 10
4164.993369810551
 20
245.16622338539727
 10
4167.594362240186
 20
249.43928237694146
 10
4172.594362240186
 20
243.96309190075095
 10
4175.872267177665
 20
249.34822144089586
 10
4180.979524327225
 20
252.14505273708343
 10
4185.943771944038
 20
243.98950308089007
 10
4188.326703143884
 20
247.9043186234925
 10
4186.660036477217
 20
250.6424138615877
 10
4189.2610289068525
 20
254.9154728531319
 10
4194.261028906852
 20
249.43928237694146
 10
4197.554239375768
 20
254.84955671873055
 10
4204.312911111563
 20
254.84955671873055
 10
4207.584907732144
 20
252.1618452089679
 10
4210.918241065478
 20
257.6380356851584
 10
4214.277105277371
 20
254.8789686539591
 10
4217.6104386107045
 20
257.61706389205443
 10
4220.918241065477
 20
254.8999404470631
 10
4224.220906042434
 20
260.32574719492106
 10
4227.554239375768
 20
260.32574719492106
 10
4229.257355965373
 20
263.1237244492739
 10
4233.570358632234
 20
258.8723361062257
 10
4231.894174077527
 20
256.1186043377782
 10
4234.277105277371
 20
252.2037887951758
 10
4236.660036477217
 20
256.1186043377782
 10
4233.326703143884
 20
261.59479481396875
 10
4235.943771944038
 20
265.89426498565206
 10
4237.626514981224
 20
263.1297585674176
 10
4242.626514981224
 20
268.6059490436081
 10
4245.232530761261
 20
264.324637404977
 10
4238.565864094595
 20
256.1103516906913
 10
4243.543771944038
 20
247.9323602237472
 10
4243.543771944038
 20
234.17701316078654
 10
4237.656606164431
 20
227.2686043377783
 10
4224.333304512309
 20
227.2686043377783
 10
4222.6104386107045
 20
224.43818178514252
 10
4219.277105277371
 20
229.91437226133306
 10
4217.666637845642
 20
227.2686043377783
 10
4210.999971178976
 20
227.2686043377783
 10
4209.277105277371
 20
224.43818178514252
 10
4207.554239375767
 20
227.2686043377783
 10
4194.333304512309
 20
227.2686043377783
 10
4192.666637845643
 20
224.53050909968297
 10
4182.554239375767
 20
224.53050909968297
 10
4179.220906042434
 20
230.00669957587348
 10
4172.666637845642
 20
230.00669957587348
 10
4169.277105277371
 20
224.43818178514252
 10
4166.677105277372
 20
228.70961035657112
  0
LWPOLYLINE
  5
3C
330
17
100
AcDbEntity
  8
K
100
AcDbPolyline
 90
14
 70
1
 10
4915.875418244514
 20
68.47904857721876
 10
4914.220906042434
 20
71.19717576634966
 10
4905.902771384471
 20
71.19717576634966
 10
4901.677105277372
 20
75.36247521477601
 10
4901.677105277372
 20
141.14664593803295
 10
4904.217500791293
 20
145.32015285376133
 10
4930.996364137637
 20
148.06976828664475
 10
4933.552480763105
 20
143.87043383051778
 10
4931.877105277372
 20
138.36562866310663
 10
4931.877105277372
 20
124.72686218143669
 10
4943.559261238698
 20
111.0182097778396
 10
4930.200060822415
 20
78.097323037713
 10
4922.65145083042
 20
65.69603519372158
 10
4915.875418244514
 20
68.47904857721876
  0
LWPOLYLINE
  5
3D
330
17
100
AcDbEntity
  8
K
100
AcDbPolyline
 90
9
 70
1
 10
4901.67340164355
 20
184.83888817902928
 10
4902.51866686591
 20
205.66863830146943
 10
4905.918241065478
 20
202.87613092325364
 10
4907.554239375768
 20
205.56384243301628
 10
4912.666637845643
 20
205.56384243301628
 10
4916.877105277372
 20
198.64664593803295
 10
4916.877105277372
 20
187.63818178514256
 10
4914.329450818508
 20
183.4527494598671
 10
4901.67340164355
 20
184.83888817902928
  0
LWPOLYLINE
  5
3E
330
17
100
AcDbEntity
  8
K
100
AcDbPolyline
 90
25
 70
1
 10
6050.887621021176
 20
65.73417523898695
 10
6045.899664017931
 20
71.19717576634966
 10
6040.907966109847
 20
71.19717576634966
 10
6020.889961081134
 20
87.64053703993568
 10
5997.556627747801
 20
98.59291799231661
 10
5990.867179308355
 20
104.08782206757594
 10
5988.346569767483
 20
108.22882345615126
 10
5986.6790608824995
 20
124.66569675098316
 10
5983.332192461573
 20
132.91333678826746
 10
5987.554239375768
 20
139.84955671873055
 10
5992.638344978657
 20
139.84955671873055
 10
6024.315353321013
 20
120.6766306167787
 10
6035.985492105967
 20
117.93772049377948
 10
6047.642111187437
 20
109.73050909968296
 10
6052.666637845643
 20
109.73050909968296
 10
6054.343352420959
 20
106.97590658309409
 10
6062.676685754292
 20
104.23781134499876
 10
6065.210438610706
 20
100.07521736660452
 10
6065.210438610706
 20
89.07991437739227
 10
6063.552480763106
 20
83.6323385924227
 10
6065.210438610706
 20
80.90855069993785
 10
6065.210438610706
 20
75.42606523072625
 10
6070.2234268387465
 20
64.4452338740662
 10
6067.654603373096
 20
60.22502389478434
 10
6050.887621021176
 20
65.73417523898695
  0
LWPOLYLINE
  5
3F
330
17
100
AcDbEntity
  8
K
100
AcDbPolyline
 90
37
 70
1
 10
5821.677105277372
 20
261.55295140525214
 10
5821.677105277372
 20
278.0514078427948
 10
5823.343771944039
 20
280.78950308089014
 10
5823.343771944039
 20
305.4323602237472
 10
5826.660036477218
 20
310.880509099683
 10
5824.993369810551
 20
313.6186043377782
 10
5827.55627835466
 20
317.8290969459594
 10
5874.335277404235
 20
315.0844107772345
 10
5875.9879367064295
 20
312.3693276379149
 10
5884.321270039763
 20
315.1074228760102
 10
5885.999971178976
 20
312.3495567187305
 10
5897.666637845643
 20
312.3495567187305
 10
5899.33330451231
 20
309.61146148063534
 10
5904.33330451231
 20
309.61146148063534
 10
5910.206283968614
 20
299.96299523099157
 10
5913.539617301948
 20
278.0582333262296
 10
5916.894174077527
 20
272.54717576634965
 10
5914.33330451231
 20
268.34003290920685
 10
5905.999971178976
 20
268.34003290920685
 10
5904.312857660559
 20
265.56834641466355
 10
5899.312857660559
 20
268.30644165275874
 10
5897.666637845643
 20
265.6019376711116
 10
5877.666637845644
 20
265.6019376711116
 10
5875.999971178977
 20
262.8638424330163
 10
5872.554239375767
 20
262.8638424330163
 10
5870.943771944039
 20
265.50961035657116
 10
5869.33330451231
 20
262.8638424330163
 10
5855.999971178976
 20
262.8638424330163
 10
5854.312857660559
 20
260.092155938473
 10
5849.312857660559
 20
262.8302511765682
 10
5847.666637845643
 20
260.1257471949211
 10
5834.33330451231
 20
260.1257471949211
 10
5832.610438610705
 20
257.29532464228544
 10
5830.887572709101
 20
260.1257471949211
 10
5827.666637845643
 20
260.1257471949211
 10
5825.963521256037
 20
257.32776994056815
 10
5821.677105277372
 20
261.55295140525214
  0
LWPOLYLINE
  5
40
330
17
100
AcDbEntity
  8
K
100
AcDbPolyline
 90
20
 70
1
 10
6945.907966109848
 20
232.94479481396868
 10
6970.999971178977
 20
232.94479481396868
 10
6978.543771944039
 20
220.55140784279504
 10
6978.543771944039
 20
206.8120913279845
 10
6974.31599349348
 20
197.08820089169922
 10
6970.9693028226
 20
199.83726822849334
 10
6969.277105277371
 20
197.0572294041899
 10
6966.660036477217
 20
201.35669957587342
 10
6969.99336981055
 20
206.83289005206396
 10
6967.554239375768
 20
210.84003290920683
 10
6964.333304512309
 20
210.84003290920683
 10
6961.894174077527
 20
206.83289005206396
 10
6963.560840744194
 20
204.09479481396875
 10
6961.00740815041
 20
199.8998698384661
 10
6955.09600011216
 20
198.51249856418306
 10
6947.538933844332
 20
202.6508919965655
 10
6945.018449753815
 20
206.79168728813013
 10
6940.00503175104
 20
223.2643464401023
 10
6942.525871456924
 20
230.1666456347804
 10
6945.907966109848
 20
232.94479481396868
  0
LWPOLYLINE
  5
41
330
17
100
AcDbEntity
  8
K
100
AcDbPolyline
 90
14
 70
1
 10
6813.560840744194
 20
327.30908052825436
 10
6811.894174077527
 20
324.5709852901592
 10
6814.302636155934
 20
320.6142261613488
 10
6817.61652717311
 20
323.3363509254581
 10
6826.022769192032
 20
315.0501980782352
 10
6830.2049606577075
 20
308.17945495605437
 10
6831.886377538653
 20
299.89247175710665
 10
6824.3262089087275
 20
292.9923178488415
 10
6808.404477402066
 20
288.8622446384669
 10
6799.999873680974
 20
299.90829524333105
 10
6803.343771944039
 20
310.8953895362594
 10
6803.343771944039
 20
316.3802228664799
 10
6810.9350095679865
 20
331.62294603202446
 10
6813.560840744194
 20
327.30908052825436
  0
LWPOLYLINE
  5
42
330
17
100
AcDbEntity
  8
K
100
AcDbPolyline
 90
36
 70
1
 10
6720.993340170271
 20
449.2543186234925
 10
6729.326673503603
 20
438.3019376711115
 10
6732.554239375768
 20
438.3019376711115
 10
6734.277105277372
 20
441.13236022374724
 10
6735.999971178977
 20
438.3019376711115
 10
6742.554239375769
 20
438.3019376711115
 10
6745.943771944039
 20
443.8704554618424
 10
6750.959848314558
 20
435.6297585674176
 10
6755.959848314558
 20
441.1059490436081
 10
6760.999971178976
 20
432.82574719492106
 10
6764.33330451231
 20
432.82574719492106
 10
6765.959848314558
 20
430.15356809122716
 10
6770.95165301838
 20
435.62078276684144
 10
6780.205550212314
 20
423.1821027723981
 10
6781.873868205602
 20
412.218870245082
 10
6786.877105277372
 20
401.25939856405944
 10
6786.877105277372
 20
395.7269827932297
 10
6779.266809280039
 20
386.0027156855249
 10
6777.554239375769
 20
388.8162233853972
 10
6772.566330684597
 20
388.8162233853972
 10
6767.566330684597
 20
394.29241386158776
 10
6760.887572709101
 20
394.29241386158776
 10
6759.232940514981
 20
397.0107381804986
 10
6751.017596117065
 20
394.31141073546905
 10
6746.889492316152
 20
384.81677199336974
 10
6752.689435858699
 20
375.2882933163304
 10
6761.027759683989
 20
367.0690884028296
 10
6765.22552235576
 20
357.41423425775565
 10
6756.865847602977
 20
346.42723315409694
 10
6754.340608548627
 20
339.51288812432944
 10
6748.383172327631
 20
340.9110619312978
 10
6733.343771944039
 20
362.8733609041623
 10
6733.343771944039
 20
409.42769825016336
 10
6714.995852963486
 20
445.0512552318864
 10
6717.554239375768
 20
449.2543186234925
 10
6720.993340170271
 20
449.2543186234925
  0
LWPOLYLINE
  5
43
330
17
100
AcDbEntity
  8
K
100
AcDbPolyline
 90
78
 70
1
 10
6492.666637845644
 20
350.6828900520639
 10
6494.33330451231
 20
347.94479481396866
 10
6500.999971178977
 20
347.94479481396866
 10
6502.666637845644
 20
345.2066995758735
 10
6515.999971178977
 20
345.2066995758735
 10
6517.6546033730965
 20
342.4883752569626
 10
6525.9879367064295
 20
345.2264704950578
 10
6527.666637845644
 20
342.4686043377783
 10
6540.887572709101
 20
342.4686043377783
 10
6544.2515743988115
 20
347.99517854230123
 10
6547.598024804945
 20
345.2463085658336
 10
6553.343771944039
 20
351.9887669433414
 10
6553.343771944039
 20
357.40008654704735
 10
6550.867179308355
 20
361.46877444852834
 10
6544.241299443181
 20
366.91146148063535
 10
6537.554239375768
 20
366.91146148063535
 10
6535.887572709101
 20
369.64955671873054
 10
6524.33330451231
 20
369.64955671873054
 10
6522.635969489267
 20
366.86107775230283
 10
6519.302636155934
 20
369.599172990398
 10
6517.666637845643
 20
366.91146148063535
 10
6512.554239375768
 20
366.91146148063535
 10
6510.887572709101
 20
369.64955671873054
 10
6502.666637845644
 20
369.64955671873054
 10
6500.9693028226
 20
366.86107775230283
 10
6497.610438610706
 20
369.62014478350204
 10
6494.251574398811
 20
366.86107775230283
 10
6492.610438610706
 20
369.55722940419014
 10
6487.610438610706
 20
361.3429436899045
 10
6485.010438610706
 20
365.61437226133296
 10
6485.010438610706
 20
382.0561048535828
 10
6483.335063124971
 20
387.560910020994
 10
6485.902759724325
 20
391.7792687199302
 10
6492.569426390991
 20
389.04117348183485
 10
6498.332192461572
 20
398.50857488350556
 10
6494.99885912824
 20
406.7228605977913
 10
6497.5849077321445
 20
410.9713690184917
 10
6500.918241065478
 20
408.2332737803964
 10
6502.610438610705
 20
411.01331260469965
 10
6504.302636155933
 20
408.2332737803964
 10
6507.635969489267
 20
410.9713690184917
 10
6510.22750741086
 20
406.71384243301634
 10
6508.560840744194
 20
403.97574719492104
 10
6510.943771944038
 20
400.0609316523186
 10
6512.610438610705
 20
402.7990268904139
 10
6517.666637845643
 20
394.49241386158775
 10
6520.999971178977
 20
394.49241386158775
 10
6522.666637845643
 20
391.7543186234925
 10
6527.566330684598
 20
391.7543186234925
 10
6532.626514981225
 20
397.29642523408427
 10
6534.3212700397635
 20
394.5121847807721
 10
6542.6546033730965
 20
397.25028001886733
 10
6544.33330451231
 20
394.49241386158775
 10
6547.574632776514
 20
394.49241386158775
 10
6550.9693028226
 20
397.2808928280155
 10
6552.666637845643
 20
394.49241386158775
 10
6555.887572709101
 20
394.49241386158775
 10
6557.554239375768
 20
397.23050909968293
 10
6572.666637845644
 20
397.23050909968293
 10
6575.212001248294
 20
393.0488406524717
 10
6573.542233349113
 20
362.8737493315746
 10
6570.210438610706
 20
357.40008654704735
 10
6570.210438610706
 20
343.7096103565711
 10
6565.943771944039
 20
336.7000865470473
 10
6564.243959774553
 20
339.49263511120154
 10
6550.91062644122
 20
331.2783493969158
 10
6549.277105277372
 20
333.9619913089521
 10
6545.999971178977
 20
328.57812814730204
 10
6539.33330451231
 20
328.57812814730204
 10
6537.635969489266
 20
325.7896491808743
 10
6534.302636155933
 20
328.52774441896946
 10
6532.662174067935
 20
325.83269956011463
 10
6489.228065054769
 20
331.3216254244157
 10
6484.220954354509
 20
336.80560381041556
 10
6475.877524800452
 20
339.54701637817664
 10
6471.660036477217
 20
346.47574719492104
 10
6474.220906042435
 20
350.6828900520639
 10
6492.666637845644
 20
350.6828900520639
  0
LWPOLYLINE
  5
44
330
17
100
AcDbEntity
  8
K
100
AcDbPolyline
 90
5
 70
1
 10
6504.296854589371
 20
394.55229587784544
 10
6508.3171852558435
 20
398.5151932490829
 10
6504.299742287962
 20
405.1152781248887
 10
6501.887543888078
 20
398.5104491728262
 10
6504.296854589371
 20
394.55229587784544
  0
LWPOLYLINE
  5
45
330
17
100
AcDbEntity
  8
K
100
AcDbPolyline
 90
9
 70
1
 10
6561.660036477218
 20
412.19003290920676
 10
6559.993369810551
 20
414.92812814730206
 10
6564.277105277372
 20
421.96569355708056
 10
6568.560840744194
 20
414.92812814730206
 10
6566.894174077527
 20
412.19003290920676
 10
6568.560840744194
 20
409.4519376711115
 10
6565.973609635476
 20
405.2014865639316
 10
6559.976379981926
 20
409.42402580979876
 10
6561.660036477218
 20
412.19003290920676
  0
LWPOLYLINE
  5
46
330
17
100
AcDbEntity
  8
K
100
AcDbPolyline
 90
26
 70
1
 10
6542.554239375768
 20
405.24479481396867
 10
6540.9276955735195
 20
407.9169739176626
 10
6535.9276955735195
 20
402.44078344147215
 10
6534.220906042435
 20
405.24479481396867
 10
6522.574632776515
 20
405.24479481396867
 10
6519.2869644490665
 20
407.94537951151534
 10
6514.2610289068525
 20
402.44078344147215
 10
6509.993369810551
 20
409.4519376711115
 10
6512.554239375768
 20
413.6590805282544
 10
6517.554239375768
 20
413.6590805282544
 10
6519.220906042435
 20
416.3971757663496
 10
6532.646244444897
 20
416.3971757663496
 10
6535.918241065478
 20
413.70946425658695
 10
6539.277105277372
 20
419.22759831898526
 10
6540.943771944038
 20
416.4895030808901
 10
6542.5849077321445
 20
419.1856547327774
 10
6545.918241065478
 20
416.44755949468214
 10
6547.554239375768
 20
419.1352710044448
 10
6555.999971178976
 20
419.1352710044448
 10
6558.560840744194
 20
414.92812814730206
 10
6556.885814096439
 20
412.1762986545624
 10
6558.552480763106
 20
406.700108178372
 10
6556.00740815041
 20
402.5189174575137
 10
6550.0627114559275
 20
401.12373353942087
 10
6547.554239375768
 20
405.24479481396867
 10
6542.554239375768
 20
405.24479481396867
  0
LWPOLYLINE
  5
47
330
17
100
AcDbEntity
  8
K
100
AcDbPolyline
 90
5
 70
1
 10
6492.610438610706
 20
399.67627702323773
 10
6489.993369810551
 20
403.97574719492104
 10
6492.610438610706
 20
408.27521736660435
 10
6495.227507410861
 20
403.97574719492104
 10
6492.610438610706
 20
399.67627702323773
  0
ENDSEC
  0
SECTION
  2
OBJECTS
  0
DICTIONARY
  5
A
330
0
100
AcDbDictionary
281
1
  3
ACAD_COLOR
350
B
  3
ACAD_GROUP
350
C
  3
ACAD_LAYOUT
350
D
  3
ACAD_MATERIAL
350
E
  3
ACAD_MLEADERSTYLE
350
F
  3
ACAD_MLINESTYLE
350
10
  3
ACAD_PLOTSETTINGS
350
11
  3
ACAD_PLOTSTYLENAME
350
12
  3
ACAD_SCALELIST
350
14
  3
ACAD_TABLESTYLE
350
15
  3
ACAD_VISUALSTYLE
350
16
  3
EZDXF_META
350
2D
  0
DICTIONARY
  5
B
330
A
100
AcDbDictionary
281
1
  0
DICTIONARY
  5
C
330
A
100
AcDbDictionary
281
1
  0
DICTIONARY
  5
D
330
A
100
AcDbDictionary
281
1
  3
Model
350
1A
  3
Layout1
350
1E
  0
DICTIONARY
  5
E
330
A
100
AcDbDictionary
281
1
  3
ByBlock
350
1F
  3
ByLayer
350
20
  3
Global
350
21
  0
DICTIONARY
  5
F
330
A
100
AcDbDictionary
281
1
  3
Standard
350
2C
  0
DICTIONARY
  5
10
330
A
100
AcDbDictionary
281
1
  3
Standard
350
22
  0
DICTIONARY
  5
11
330
A
100
AcDbDictionary
281
1
  0
ACDBDICTIONARYWDFLT
  5
12
330
A
100
AcDbDictionary
281
1
  3
Normal
350
13
100
AcDbDictionaryWithDefault
340
13
  0
ACDBPLACEHOLDER
  5
13
330
12
  0
DICTIONARY
  5
14
330
A
100
AcDbDictionary
281
1
  0
DICTIONARY
  5
15
330
A
100
AcDbDictionary
281
1
  0
DICTIONARY
  5
16
330
A
100
AcDbDictionary
281
1
  0
LAYOUT
  5
1A
330
D
100
AcDbPlotSettings
  1

  4
A3
  6

 40
7.5
 41
20.0
 42
7.5
 43
20.0
 44
420.0
 45
297.0
 46
0.0
 47
0.0
 48
0.0
 49
0.0
140
0.0
141
0.0
142
1.0
143
1.0
 70
1024
 72
1
 73
0
 74
5
  7

 75
16
 76
0
 77
2
 78
300
147
1.0
148
0.0
149
0.0
100
AcDbLayout
  1
Model
 70
1
 71
0
 10
0.0
 20
0.0
 11
420.0
 21
297.0
 12
0.0
 22
0.0
 32
0.0
 14
1e+20
 24
1e+20
 34
1e+20
 15
-1e+20
 25
-1e+20
 35
-1e+20
146
0.0
 13
0.0
 23
0.0
 33
0.0
 16
1.0
 26
0.0
 36
0.0
 17
0.0
 27
1.0
 37
0.0
 76
1
330
17
  0
LAYOUT
  5
1E
330
D
100
AcDbPlotSettings
  1

  4
A3
  6

 40
7.5
 41
20.0
 42
7.5
 43
20.0
 44
420.0
 45
297.0
 46
0.0
 47
0.0
 48
0.0
 49
0.0
140
0.0
141
0.0
142
1.0
143
1.0
 70
0
 72
1
 73
0
 74
5
  7

 75
16
 76
0
 77
2
 78
300
147
1.0
148
0.0
149
0.0
100
AcDbLayout
  1
Layout1
 70
1
 71
1
 10
0.0
 20
0.0
 11
420.0
 21
297.0
 12
0.0
 22
0.0
 32
0.0
 14
1e+20
 24
1e+20
 34
1e+20
 15
-1e+20
 25
-1e+20
 35
-1e+20
146
0.0
 13
0.0
 23
0.0
 33
0.0
 16
1.0
 26
0.0
 36
0.0
 17
0.0
 27
1.0
 37
0.0
 76
1
330
1B
  0
MATERIAL
  5
1F
102
{ACAD_REACTORS
330
E
102
}
330
E
100
AcDbMaterial
  1
ByBlock
  2

 70
0
 40
1.0
 71
1
 41
1.0
 91
-1023410177
 42
1.0
 72
1
  3

 73
1
 74
1
 75
1
 44
0.5
 73
0
 45
1.0
 46
1.0
 77
1
  4

 78
1
 79
1
170
1
 48
1.0
171
1
  6

172
1
173
1
174
1
140
1.0
141
1.0
175
1
  7

176
1
177
1
178
1
143
1.0
179
1
  8

270
1
271
1
272
1
145
1.0
146
1.0
273
1
  9

274
1
275
1
276
1
 42
1.0
 72
1
  3

 73
1
 74
1
 75
1
 94
63
  0
MATERIAL
  5
20
102
{ACAD_REACTORS
330
E
102
}
330
E
100
AcDbMaterial
  1
ByLayer
  2

 70
0
 40
1.0
 71
1
 41
1.0
 91
-1023410177
 42
1.0
 72
1
  3

 73
1
 74
1
 75
1
 44
0.5
 73
0
 45
1.0
 46
1.0
 77
1
  4

 78
1
 79
1
170
1
 48
1.0
171
1
  6

172
1
173
1
174
1
140
1.0
141
1.0
175
1
  7

176
1
177
1
178
1
143
1.0
179
1
  8

270
1
271
1
272
1
145
1.0
146
1.0
273
1
  9

274
1
275
1
276
1
 42
1.0
 72
1
  3

 73
1
 74
1
 75
1
 94
63
  0
MATERIAL
  5
21
102
{ACAD_REACTORS
330
E
102
}
330
E
100
AcDbMaterial
  1
Global
  2

 70
0
 40
1.0
 71
1
 41
1.0
 91
-1023410177
 42
1.0
 72
1
  3

 73
1
 74
1
 75
1
 44
0.5
 73
0
 45
1.0
 46
1.0
 77
1
  4

 78
1
 79
1
170
1
 48
1.0
171
1
  6

172
1
173
1
174
1
140
1.0
141
1.0
175
1
  7

176
1
177
1
178
1
143
1.0
179
1
  8

270
1
271
1
272
1
145
1.0
146
1.0
273
1
  9

274
1
275
1
276
1
 42
1.0
 72
1
  3

 73
1
 74
1
 75
1
 94
63
  0
MLINESTYLE
  5
22
102
{ACAD_REACTORS
330
10
102
}
330
10
100
AcDbMlineStyle
  2
Standard
 70
0
  3

 62
256
 51
90.0
 52
90.0
 71
2
 49
0.5
 62
256
  6
BYLAYER
 49
-0.5
 62
256
  6
BYLAYER
  0
MLEADERSTYLE
  5
2C
102
{ACAD_REACTORS
330
F
102
}
330
F
100
AcDbMLeaderStyle
179
2
170
2
171
1
172
0
 90
2
 40
0.0
 41
0.0
173
1
 91
-1056964608
 92
-2
290
1
 42
2.0
291
1
 43
8.0
  3
Standard
 44
4.0
300

342
29
174
1
175
1
176
0
178
1
 93
-1056964608
 45
4.0
292
0
297
0
 46
4.0
 94
-1056964608
 47
1.0
 49
1.0
140
1.0
294
1
141
0.0
177
0
142
1.0
295
0
296
0
143
3.75
271
0
272
9
273
9
  0
DICTIONARY
  5
2D
330
A
100
AcDbDictionary
280
1
281
1
  3
CREATED_BY_EZDXF
350
2E
  3
WRITTEN_BY_EZDXF
350
4A
  0
DICTIONARYVAR
  5
2E
330
2D
100
DictionaryVariables
280
0
  1
1.4.4 @ 2026-07-17T11:52:30.142601+00:00
  0
DICTIONARYVAR
  5
4A
330
2D
100
DictionaryVariables
280
0
  1
1.4.4 @ 2026-07-17T11:52:30.149934+00:00
  0
ENDSEC
  0
EOF
