  0
SECTION
  2
HEADER
  9
$ACADVER
  1
AC1027
  9
$ACADMAINTVER
 70
105
  9
$DWGCODEPAGE
  3
ANSI_1252
  9
$LASTSAVEDBY
  1
ezdxf
  9
$REQUIREDVERSIONS
160
0
  9
$INSBASE
 10
0.0
 20
0.0
 30
0.0
  9
$EXTMIN
 10
1e+20
 20
1e+20
 30
1e+20
  9
$EXTMAX
 10
-1e+20
 20
-1e+20
 30
-1e+20
  9
$LIMMIN
 10
0.0
 20
0.0
  9
$LIMMAX
 10
420.0
 20
297.0
  9
$ORTHOMODE
 70
0
  9
$REGENMODE
 70
1
  9
$FILLMODE
 70
1
  9
$QTEXTMODE
 70
0
  9
$MIRRTEXT
 70
1
  9
$LTSCALE
 40
1.0
  9
$ATTMODE
 70
1
  9
$TEXTSIZE
 40
2.5
  9
$TRACEWID
 40
1.0
  9
$TEXTSTYLE
  7
Standard
  9
$CLAYER
  8
0
  9
$CELTYPE
  6
ByLayer
  9
$CECOLOR
 62
256
  9
$CELTSCALE
 40
1.0
  9
$DISPSILH
 70
0
  9
$DIMSCALE
 40
1.0
  9
$DIMASZ
 40
2.5
  9
$DIMEXO
 40
0.625
  9
$DIMDLI
 40
3.75
  9
$DIMRND
 40
0.0
  9
$DIMDLE
 40
0.0
  9
$DIMEXE
 40
1.25
  9
$DIMTP
 40
0.0
  9
$DIMTM
 40
0.0
  9
$DIMTXT
 40
2.5
  9
$DIMCEN
 40
2.5
  9
$DIMTSZ
 40
0.0
  9
$DIMTOL
 70
0
  9
$DIMLIM
 70
0
  9
$DIMTIH
 70
0
  9
$DIMTOH
 70
0
  9
$DIMSE1
 70
0
  9
$DIMSE2
 70
0
  9
$DIMTAD
 70
1
  9
$DIMZIN
 70
8
  9
$DIMBLK
  1

  9
$DIMASO
 70
1
  9
$DIMSHO
 70
1
  9
$DIMPOST
  1

  9
$DIMAPOST
  1

  9
$DIMALT
 70
0
  9
$DIMALTD
 70
3
  9
$DIMALTF
 40
0.03937007874
  9
$DIMLFAC
 40
1.0
  9
$DIMTOFL
 70
1
  9
$DIMTVP
 40
0.0
  9
$DIMTIX
 70
0
  9
$DIMSOXD
 70
0
  9
$DIMSAH
 70
0
  9
$DIMBLK1
  1

  9
$DIMBLK2
  1

  9
$DIMSTYLE
  2
ISO-25
  9
$DIMCLRD
 70
0
  9
$DIMCLRE
 70
0
  9
$DIMCLRT
 70
0
  9
$DIMTFAC
 40
1.0
  9
$DIMGAP
 40
0.625
  9
$DIMJUST
 70
0
  9
$DIMSD1
 70
0
  9
$DIMSD2
 70
0
  9
$DIMTOLJ
 70
0
  9
$DIMTZIN
 70
8
  9
$DIMALTZ
 70
0
  9
$DIMALTTZ
 70
0
  9
$DIMUPT
 70
0
  9
$DIMDEC
 70
2
  9
$DIMTDEC
 70
2
  9
$DIMALTU
 70
2
  9
$DIMALTTD
 70
3
  9
$DIMTXSTY
  7
Standard
  9
$DIMAUNIT
 70
0
  9
$DIMADEC
 70
0
  9
$DIMALTRND
 40
0.0
  9
$DIMAZIN
 70
0
  9
$DIMDSEP
 70
44
  9
$DIMATFIT
 70
3
  9
$DIMFRAC
 70
0
  9
$DIMLDRBLK
  1

  9
$DIMLUNIT
 70
2
  9
$DIMLWD
 70
-2
  9
$DIMLWE
 70
-2
  9
$DIMTMOVE
 70
0
  9
$DIMFXL
 40
1.0
  9
$DIMFXLON
 70
0
  9
$DIMJOGANG
 40
0.785398163397
  9
$DIMTFILL
 70
0
  9
$DIMTFILLCLR
 70
0
  9
$DIMARCSYM
 70
0
  9
$DIMLTYPE
  6

  9
$DIMLTEX1
  6

  9
$DIMLTEX2
  6

  9
$DIMTXTDIRECTION
 70
0
  9
$LUNITS
 70
2
  9
$LUPREC
 70
4
  9
$SKETCHINC
 40
1.0
  9
$FILLETRAD
 40
10.0
  9
$AUNITS
 70
0
  9
$AUPREC
 70
2
  9
$MENU
  1
.
  9
$ELEVATION
 40
0.0
  9
$PELEVATION
 40
0.0
  9
$THICKNESS
 40
0.0
  9
$LIMCHECK
 70
0
  9
$CHAMFERA
 40
0.0
  9
$CHAMFERB
 40
0.0
  9
$CHAMFERC
 40
0.0
  9
$CHAMFERD
 40
0.0
  9
$SKPOLY
 70
0
  9
$TDCREATE
 40
2461239.6197916665
  9
$TDUCREATE
 40
2458532.153996898
  9
$TDUPDATE
 40
2461239.6197916665
  9
$TDUUPDATE
 40
2458532.1544311
  9
$TDINDWG
 40
0.0
  9
$TDUSRTIMER
 40
0.0
  9
$USRTIMER
 70
1
  9
$ANGBASE
 50
0.0
  9
$ANGDIR
 70
0
  9
$PDMODE
 70
0
  9
$PDSIZE
 40
0.0
  9
$PLINEWID
 40
0.0
  9
$SPLFRAME
 70
0
  9
$SPLINETYPE
 70
6
  9
$SPLINESEGS
 70
8
  9
$HANDSEED
  5
48
  9
$SURFTAB1
 70
6
  9
$SURFTAB2
 70
6
  9
$SURFTYPE
 70
6
  9
$SURFU
 70
6
  9
$SURFV
 70
6
  9
$UCSBASE
  2

  9
$UCSNAME
  2

  9
$UCSORG
 10
0.0
 20
0.0
 30
0.0
  9
$UCSXDIR
 10
1.0
 20
0.0
 30
0.0
  9
$UCSYDIR
 10
0.0
 20
1.0
 30
0.0
  9
$UCSORTHOREF
  2

  9
$UCSORTHOVIEW
 70
0
  9
$UCSORGTOP
 10
0.0
 20
0.0
 30
0.0
  9
$UCSORGBOTTOM
 10
0.0
 20
0.0
 30
0.0
  9
$UCSORGLEFT
 10
0.0
 20
0.0
 30
0.0
  9
$UCSORGRIGHT
 10
0.0
 20
0.0
 30
0.0
  9
$UCSORGFRONT
 10
0.0
 20
0.0
 30
0.0
  9
$UCSORGBACK
 10
0.0
 20
0.0
 30
0.0
  9
$PUCSBASE
  2

  9
$PUCSNAME
  2

  9
$PUCSORG
 10
0.0
 20
0.0
 30
0.0
  9
$PUCSXDIR
 10
1.0
 20
0.0
 30
0.0
  9
$PUCSYDIR
 10
0.0
 20
1.0
 30
0.0
  9
$PUCSORTHOREF
  2

  9
$PUCSORTHOVIEW
 70
0
  9
$PUCSORGTOP
 10
0.0
 20
0.0
 30
0.0
  9
$PUCSORGBOTTOM
 10
0.0
 20
0.0
 30
0.0
  9
$PUCSORGLEFT
 10
0.0
 20
0.0
 30
0.0
  9
$PUCSORGRIGHT
 10
0.0
 20
0.0
 30
0.0
  9
$PUCSORGFRONT
 10
0.0
 20
0.0
 30
0.0
  9
$PUCSORGBACK
 10
0.0
 20
0.0
 30
0.0
  9
$USERI1
 70
0
  9
$USERI2
 70
0
  9
$USERI3
 70
0
  9
$USERI4
 70
0
  9
$USERI5
 70
0
  9
$USERR1
 40
0.0
  9
$USERR2
 40
0.0
  9
$USERR3
 40
0.0
  9
$USERR4
 40
0.0
  9
$USERR5
 40
0.0
  9
$WORLDVIEW
 70
1
  9
$SHADEDGE
 70
3
  9
$SHADEDIF
 70
70
  9
$TILEMODE
 70
1
  9
$MAXACTVP
 70
64
  9
$PINSBASE
 10
0.0
 20
0.0
 30
0.0
  9
$PLIMCHECK
 70
0
  9
$PEXTMIN
 10
1e+20
 20
1e+20
 30
1e+20
  9
$PEXTMAX
 10
-1e+20
 20
-1e+20
 30
-1e+20
  9
$PLIMMIN
 10
0.0
 20
0.0
  9
$PLIMMAX
 10
420.0
 20
297.0
  9
$UNITMODE
 70
0
  9
$VISRETAIN
 70
1
  9
$PLINEGEN
 70
0
  9
$PSLTSCALE
 70
1
  9
$TREEDEPTH
 70
3020
  9
$CMLSTYLE
  2
Standard
  9
$CMLJUST
 70
0
  9
$CMLSCALE
 40
20.0
  9
$PROXYGRAPHICS
 70
1
  9
$MEASUREMENT
 70
1
  9
$CELWEIGHT
370
-1
  9
$ENDCAPS
280
0
  9
$JOINSTYLE
280
0
  9
$LWDISPLAY
290
0
  9
$INSUNITS
 70
4
  9
$HYPERLINKBASE
  1

  9
$STYLESHEET
  1

  9
$XEDIT
290
1
  9
$CEPSNTYPE
380
0
  9
$PSTYLEMODE
290
1
  9
$FINGERPRINTGUID
  2
{65645D77-81F7-48B4-ABF7-5F2BF6541138}
  9
$VERSIONGUID
  2
{6F19A76E-0CE5-462F-B9B5-EEF4349C6160}
  9
$EXTNAMES
290
1
  9
$PSVPSCALE
 40
0.0
  9
$OLESTARTUP
290
0
  9
$SORTENTS
280
127
  9
$INDEXCTL
280
0
  9
$HIDETEXT
280
1
  9
$XCLIPFRAME
280
1
  9
$HALOGAP
280
0
  9
$OBSCOLOR
 70
257
  9
$OBSLTYPE
280
0
  9
$INTERSECTIONDISPLAY
280
0
  9
$INTERSECTIONCOLOR
 70
257
  9
$DIMASSOC
280
2
  9
$PROJECTNAME
  1

  9
$CAMERADISPLAY
290
0
  9
$LENSLENGTH
 40
50.0
  9
$CAMERAHEIGHT
 40
0.0
  9
$STEPSPERSEC
 40
24.0
  9
$STEPSIZE
 40
100.0
  9
$3DDWFPREC
 40
2.0
  9
$PSOLWIDTH
 40
0.005
  9
$PSOLHEIGHT
 40
0.08
  9
$LOFTANG1
 40
1.570796326795
  9
$LOFTANG2
 40
1.570796326795
  9
$LOFTMAG1
 40
0.0
  9
$LOFTMAG2
 40
0.0
  9
$LOFTPARAM
 70
7
  9
$LOFTNORMALS
280
1
  9
$LATITUDE
 40
37.795
  9
$LONGITUDE
 40
-122.394
  9
$NORTHDIRECTION
 40
0.0
  9
$TIMEZONE
 70
-8000
  9
$LIGHTGLYPHDISPLAY
280
1
  9
$TILEMODELIGHTSYNCH
280
1
  9
$CMATERIAL
347
20
  9
$SOLIDHIST
280
0
  9
$SHOWHIST
280
1
  9
$DWFFRAME
280
2
  9
$DGNFRAME
280
2
  9
$REALWORLDSCALE
290
1
  9
$INTERFERECOLOR
 62
256
  9
$CSHADOW
280
0
  9
$SHADOWPLANELOCATION
 40
0.0
  0
ENDSEC
  0
SECTION
  2
CLASSES
  0
CLASS
  1
ACDBDICTIONARYWDFLT
  2
AcDbDictionaryWithDefault
  3
ObjectDBX Classes
 90
0
 91
0
280
0
281
0
  0
CLASS
  1
SUN
  2
AcDbSun
  3
SCENEOE
 90
1153
 91
0
280
0
281
0
  0
CLASS
  1
VISUALSTYLE
  2
AcDbVisualStyle
  3
ObjectDBX Classes
 90
4095
 91
0
280
0
281
0
  0
CLASS
  1
MATERIAL
  2
AcDbMaterial
  3
ObjectDBX Classes
 90
1153
 91
0
280
0
281
0
  0
CLASS
  1
SCALE
  2
AcDbScale
  3
ObjectDBX Classes
 90
1153
 91
0
280
0
281
0
  0
CLASS
  1
TABLESTYLE
  2
AcDbTableStyle
  3
ObjectDBX Classes
 90
4095
 91
0
280
0
281
0
  0
CLASS
  1
MLEADERSTYLE
  2
AcDbMLeaderStyle
  3
ACDB_MLEADERSTYLE_CLASS
 90
4095
 91
0
280
0
281
0
  0
CLASS
  1
DICTIONARYVAR
  2
AcDbDictionaryVar
  3
ObjectDBX Classes
 90
0
 91
0
280
0
281
0
  0
CLASS
  1
CELLSTYLEMAP
  2
AcDbCellStyleMap
  3
ObjectDBX Classes
 90
1152
 91
0
280
0
281
0
  0
CLASS
  1
MENTALRAYRENDERSETTINGS
  2
AcDbMentalRayRenderSettings
  3
SCENEOE
 90
1024
 91
0
280
0
281
0
  0
CLASS
  1
ACDBDETAILVIEWSTYLE
  2
AcDbDetailViewStyle
  3
ObjectDBX Classes
 90
1025
 91
0
280
0
281
0
  0
CLASS
  1
ACDBSECTIONVIEWSTYLE
  2
AcDbSectionViewStyle
  3
ObjectDBX Classes
 90
1025
 91
0
280
0
281
0
  0
CLASS
  1
RASTERVARIABLES
  2
AcDbRasterVariables
  3
ISM
 90
0
 91
0
280
0
281
0
  0
CLASS
  1
ACDBPLACEHOLDER
  2
AcDbPlaceHolder
  3
ObjectDBX Classes
 90
0
 91
0
280
0
281
0
  0
CLASS
  1
LAYOUT
  2
AcDbLayout
  3
ObjectDBX Classes
 90
0
 91
0
280
0
281
0
  0
ENDSEC
  0
SECTION
  2
TABLES
  0
TABLE
  2
VPORT
  5
8
330
0
100
AcDbSymbolTable
 70
1
  0
VPORT
  5
23
330
8
100
AcDbSymbolTableRecord
100
AcDbViewportTableRecord
  2
*Active
 70
0
 10
0.0
 20
0.0
 11
1.0
 21
1.0
 12
0.0
 22
0.0
 13
0.0
 23
0.0
 14
0.5
 24
0.5
 15
0.5
 25
0.5
 16
0.0
 26
0.0
 36
1.0
 17
0.0
 27
0.0
 37
0.0
 40
1000.0
 41
1.34
 42
50.0
 43
0.0
 44
0.0
 50
0.0
 51
0.0
 71
0
 72
1000
 73
1
 74
3
 75
0
 76
0
 77
0
 78
0
281
0
 65
0
146
0.0
  0
ENDTAB
  0
TABLE
  2
LTYPE
  5
2
330
0
100
AcDbSymbolTable
 70
3
  0
LTYPE
  5
24
330
2
100
AcDbSymbolTableRecord
100
AcDbLinetypeTableRecord
  2
ByBlock
 70
0
  3

 72
65
 73
0
 40
0.0
  0
LTYPE
  5
25
330
2
100
AcDbSymbolTableRecord
100
AcDbLinetypeTableRecord
  2
ByLayer
 70
0
  3

 72
65
 73
0
 40
0.0
  0
LTYPE
  5
26
330
2
100
AcDbSymbolTableRecord
100
AcDbLinetypeTableRecord
  2
Continuous
 70
0
  3

 72
65
 73
0
 40
0.0
  0
ENDTAB
  0
TABLE
  2
LAYER
  5
1
330
0
100
AcDbSymbolTable
 70
3
  0
LAYER
  5
27
330
1
100
AcDbSymbolTableRecord
100
AcDbLayerTableRecord
  2
0
 70
0
 62
7
  6
Continuous
370
-3
390
13
347
21
  0
LAYER
  5
28
330
1
100
AcDbSymbolTableRecord
100
AcDbLayerTableRecord
  2
Defpoints
 70
0
 62
7
  6
Continuous
290
0
370
-3
390
13
347
21
  0
LAYER
  5
2F
330
1
100
AcDbSymbolTableRecord
100
AcDbLayerTableRecord
  2
M
 70
0
 62
7
  6
Continuous
370
-3
390
13
347
21
  0
ENDTAB
  0
TABLE
  2
STYLE
  5
5
330
0
100
AcDbSymbolTable
 70
1
  0
STYLE
  5
29
330
5
100
AcDbSymbolTableRecord
100
AcDbTextStyleTableRecord
  2
Standard
 70
0
 40
0.0
 41
1.0
 50
0.0
 71
0
 42
2.5
  3
txt
  4

  0
ENDTAB
  0
TABLE
  2
VIEW
  5
7
330
0
100
AcDbSymbolTable
 70
0
  0
ENDTAB
  0
TABLE
  2
UCS
  5
6
330
0
100
AcDbSymbolTable
 70
0
  0
ENDTAB
  0
TABLE
  2
APPID
  5
3
330
0
100
AcDbSymbolTable
 70
3
  0
APPID
  5
2A
330
3
100
AcDbSymbolTableRecord
100
AcDbRegAppTableRecord
  2
ACAD
 70
0
  0
APPID
  5
45
330
3
100
AcDbSymbolTableRecord
100
AcDbRegAppTableRecord
  2
HATCHBACKGROUNDCOLOR
 70
0
  0
APPID
  5
46
330
3
100
AcDbSymbolTableRecord
100
AcDbRegAppTableRecord
  2
EZDXF
 70
0
  0
ENDTAB
  0
TABLE
  2
DIMSTYLE
  5
4
330
0
100
AcDbSymbolTable
 70
1
100
AcDbDimStyleTable
  0
DIMSTYLE
105
2B
330
4
100
AcDbSymbolTableRecord
100
AcDbDimStyleTableRecord
  2
Standard
 70
0
 40
1.0
 41
2.5
 42
0.625
 43
3.75
 44
1.25
 45
0.0
 46
0.0
 47
0.0
 48
0.0
 49
2.5
140
2.5
141
2.5
142
0.0
143
0.03937007874
144
1.0
145
0.0
146
1.0
147
0.625
148
0.0
 69
0
 70
0
 71
0
 72
0
 73
0
 74
0
 75
0
 76
0
 77
1
 78
8
 79
3
170
0
171
3
172
1
173
0
174
0
175
0
176
0
177
0
178
0
179
2
271
2
272
2
273
2
274
3
275
0
276
0
277
2
278
44
279
0
280
0
281
0
282
0
283
0
284
8
285
0
286
0
288
0
289
3
290
0
371
-2
372
-2
  0
ENDTAB
  0
TABLE
  2
BLOCK_RECORD
  5
9
330
0
100
AcDbSymbolTable
 70
2
  0
BLOCK_RECORD
  5
17
330
9
100
AcDbSymbolTableRecord
100
AcDbBlockTableRecord
  2
*Model_Space
340
1A
 70
0
280
1
281
0
  0
BLOCK_RECORD
  5
1B
330
9
100
AcDbSymbolTableRecord
100
AcDbBlockTableRecord
  2
*Paper_Space
340
1E
 70
0
280
1
281
0
  0
ENDTAB
  0
ENDSEC
  0
SECTION
  2
BLOCKS
  0
BLOCK
  5
18
330
17
100
AcDbEntity
  8
0
100
AcDbBlockBegin
  2
*Model_Space
 70
0
 10
0.0
 20
0.0
 30
0.0
  3
*Model_Space
  1

  0
ENDBLK
  5
19
330
17
100
AcDbEntity
  8
0
100
AcDbBlockEnd
  0
BLOCK
  5
1C
330
1B
100
AcDbEntity
  8
0
100
AcDbBlockBegin
  2
*Paper_Space
 70
0
 10
0.0
 20
0.0
 30
0.0
  3
*Paper_Space
  1

  0
ENDBLK
  5
1D
330
1B
100
AcDbEntity
  8
0
100
AcDbBlockEnd
  0
ENDSEC
  0
SECTION
  2
ENTITIES
  0
LWPOLYLINE
  5
30
330
17
100
AcDbEntity
  8
M
100
AcDbPolyline
 90
47
 70
1
 10
101.70725627353016
 20
12.328134395934109
 10
99.1983129671421
 20
16.449969827857373
 10
92.53164630047539
 20
19.188065065952607
 10
89.210467431729
 20
24.64428749317879
 10
85.8771340983957
 20
24.64428749317879
 10
82.53164630047539
 20
30.140446018333545
 10
75.86497963380879
 20
32.878541256428775
 10
72.53164630047537
 20
38.35473173261927
 10
65.87020493207696
 20
41.09068086606857
 10
57.550431773768615
 20
52.02523987413113
 10
54.21046743172897
 20
52.02523987413113
 10
51.66666666666675
 20
56.204341131019156
 10
51.66666666666675
 20
67.15672208340015
 10
50.0024045468892
 20
69.89086699446325
 10
48.335737880222496
 20
89.0575336611299
 10
42.53375285641392
 20
98.58936620024394
 10
34.208770242180606
 20
101.32471763063478
 10
28.310299472813384
 20
108.24639251305568
 10
35.87713409839566
 20
120.67762082651201
 10
39.21046743172907
 20
120.67762082651201
 10
42.54380076506226
 20
126.15381130270254
 10
47.54380076506237
 20
126.15381130270254
 10
52.528495233626685
 20
134.34295221534398
 10
57.533303163650686
 20
137.08368036749997
 10
65.86663649698399
 20
148.0360613198809
 10
70.86182856696
 20
150.77152364391543
 10
74.21046743172899
 20
156.27285892175013
 10
79.21046743172899
 20
156.27285892175013
 10
84.210467431729
 20
164.48714463603585
 10
87.55043177376865
 20
164.48714463603585
 10
95.90026607553249
 20
175.46121257549697
 10
102.6615778756117
 20
172.6842452290358
 10
109.31429719746677
 20
164.48714463603585
 10
112.64616755372626
 20
164.48714463603585
 10
124.31283422039297
 20
150.79666844555973
 10
127.65619923493765
 20
150.79666844555973
 10
132.65619923493776
 20
142.58238273127398
 10
137.6476305308003
 20
142.58238273127398
 10
144.3142971974669
 20
134.36809701698826
 10
149.32286590160436
 20
134.36809701698826
 10
151.86666666666682
 20
130.18899576010045
 10
151.86666666666682
 20
127.39247193881009
 10
133.52468112992733
 20
99.99859743588769
 10
131.8662363680012
 20
94.54942178955828
 10
130.19926474500033
 20
37.03890079602909
 10
115.98952866224721
 20
10.947914795343793
 10
101.70725627353016
 20
12.328134395934109
  0
LWPOLYLINE
  5
31
330
17
100
AcDbEntity
  8
M
100
AcDbPolyline
 90
34
 70
1
 10
6.709839291273445
 20
455.89531943821294
 10
5.0000000000001155
 20
458.7043411310192
 10
5.0000000000001155
 20
502.56994814105246
 10
8.333333333333414
 20
508.046138617243
 10
8.333333333333414
 20
518.9367597291792
 10
0.0
 20
529.8891406815602
 10
0.0
 20
549.1175671886715
 10
2.526278907517665
 20
553.2678825367364
 10
10.903416884712858
 20
558.7728589217501
 10
20.88922540722549
 20
558.7728589217501
 10
25.889225407225492
 20
564.2490493979407
 10
34.21046743172895
 20
564.2490493979407
 10
35.87713409839566
 20
566.9871446360359
 10
40.8892254072255
 20
566.9871446360359
 10
45.88922540722551
 20
572.4633351122263
 10
54.23675021804608
 20
572.4633351122263
 10
62.57008355137938
 20
577.9395255884168
 10
67.54380076506239
 20
577.9395255884168
 10
69.2666666666667
 20
580.7699481410525
 10
71.86666666666675
 20
576.4985195696239
 10
71.86666666666675
 20
551.8556624267668
 10
73.53333333333335
 20
549.1175671886715
 10
73.53333333333335
 20
538.0953012273193
 10
65.20000000000003
 20
529.8810155130336
 10
65.20000000000003
 20
505.3080433791477
 10
67.61354640632777
 20
501.342931425895
 10
79.22049911294037
 20
514.9633351122263
 10
87.64616755372646
 20
514.9633351122263
 10
93.53559840799241
 20
508.05226829344474
 10
91.86527444894632
 20
480.61123182340106
 10
85.20000000000006
 20
466.9236146514578
 10
85.20000000000006
 20
461.44243636911455
 10
80.98889787816232
 20
454.52419716895264
 10
6.709839291273445
 20
455.89531943821294
  0
LWPOLYLINE
  5
32
330
17
100
AcDbEntity
  8
M
100
AcDbPolyline
 90
17
 70
1
 10
21.66666666666672
 20
184.87096700548
 10
21.66666666666672
 20
201.37947195057637
 10
23.333333333333428
 20
204.1175671886717
 10
23.333333333333428
 20
236.9747100458145
 10
25.87713409839565
 20
241.15381130270254
 10
47.6561992349378
 20
241.15381130270254
 10
50.200000000000024
 20
236.9747100458145
 10
50.200000000000024
 20
231.50065586461233
 10
70.21127870271715
 20
201.3646230563537
 10
67.6699387579055
 20
194.40619225508348
 10
59.29658311528729
 20
194.40619225508348
 10
50.96324978195399
 20
188.9300017788931
 10
45.989532568271095
 20
188.9300017788931
 10
44.32286590160439
 20
186.19190654079776
 10
34.30247250085794
 20
186.19190654079776
 10
27.604661952226994
 20
180.69013359013664
 10
21.66666666666672
 20
184.87096700548
  0
LWPOLYLINE
  5
33
330
17
100
AcDbEntity
  8
M
100
AcDbPolyline
 90
33
 70
1
 10
630.897527499142
 20
591.430001778893
 10
619.2308608324755
 20
591.430001778893
 10
612.5641941658088
 20
596.9061922550835
 10
609.2104674317291
 20
596.9061922550835
 10
606.6642028767948
 20
601.0893411667612
 10
608.3357378802225
 20
620.3119937061798
 10
610.0000000000001
 20
623.0461386172431
 10
610.0000000000001
 20
633.9985195696239
 10
613.3333333333334
 20
639.4747100458144
 10
613.3333333333334
 20
644.9509005220049
 10
615.8771340983957
 20
649.1300017788931
 10
619.2204991129404
 20
649.1300017788931
 10
630.887165779607
 20
662.8204779693691
 10
634.2170984404353
 20
662.8204779693691
 10
642.5504317737685
 20
673.7728589217501
 10
647.5523694691998
 20
673.7728589217501
 10
654.2783674305739
 20
682.0602492670146
 10
655.9895325682712
 20
679.2490493979407
 10
659.316590034428
 20
679.2490493979407
 10
676.8873351646869
 20
655.8811536634809
 10
675.2
 20
653.1091030357812
 10
675.2
 20
642.1567220834003
 10
671.8666666666668
 20
636.6805316072097
 10
671.8666666666668
 20
622.9945737263818
 10
664.3499452824364
 20
607.9014744389989
 10
659.3107745927745
 20
602.382382731274
 10
654.3228659016045
 20
602.382382731274
 10
650.9895325682711
 20
596.9061922550835
 10
647.6561992349377
 20
596.9061922550835
 10
644.3228659016045
 20
591.430001778893
 10
640.9895325682711
 20
591.430001778893
 10
637.6255308785614
 20
585.90342757437
 10
630.897527499142
 20
591.430001778893
  0
LWPOLYLINE
  5
34
330
17
100
AcDbEntity
  8
M
100
AcDbPolyline
 90
39
 70
1
 10
552.5641941658087
 20
180.71571606460734
 10
545.8595359347087
 20
186.22311389729663
 10
534.2150310139615
 20
202.6204779693692
 10
530.8714205482883
 20
202.6204779693692
 10
523.319209037141
 20
217.7848391782603
 10
525.8771340983957
 20
221.98714463603585
 10
535.8771340983957
 20
221.98714463603585
 10
538.3333333333334
 20
226.02232909343357
 10
538.3333333333334
 20
231.49851956962408
 10
540.0
 20
234.2366148077193
 10
540.0
 20
258.8794719505764
 10
541.6666666666667
 20
261.61756718867167
 10
541.6666666666667
 20
272.57413823065457
 10
552.5616083342284
 20
287.71930439490257
 10
569.3329138102528
 20
282.2087325956374
 10
570.9895325682711
 20
279.48714463603585
 10
577.6358058341914
 20
279.48714463603585
 10
584.302472500858
 20
274.0109541598453
 10
592.6358058341913
 20
274.0109541598453
 10
599.302472500858
 20
268.53476368365494
 10
604.3228659016045
 20
268.53476368365494
 10
607.6561992349377
 20
263.0585732074644
 10
614.3228659016045
 20
263.0585732074644
 10
615.9895325682712
 20
260.32047796936916
 10
627.6561992349377
 20
260.32047796936916
 10
629.3228659016045
 20
257.582382731274
 10
650.9795008870597
 20
257.582382731274
 10
656.8544338277064
 20
250.688328770311
 10
661.8666666666666
 20
236.96435790172933
 10
661.8666666666666
 20
228.70063644896754
 10
637.6518069402025
 20
194.40619225508348
 10
619.3228659016045
 20
194.40619225508348
 10
617.6561992349377
 20
191.66809701698827
 10
579.3228659016045
 20
191.66809701698827
 10
577.6561992349378
 20
188.9300017788931
 10
567.6625305432149
 20
188.9300017788931
 10
560.9587722350446
 20
175.16335525318638
 10
555.8892254072255
 20
180.71571606460734
 10
552.5641941658087
 20
180.71571606460734
  0
LWPOLYLINE
  5
35
330
17
100
AcDbEntity
  8
M
100
AcDbPolyline
 90
29
 70
1
 10
599.9912911809329
 20
4.19483895282008
 10
601.6746778097753
 20
9.725966447588192
 10
613.3333333333334
 20
28.87947195057644
 10
613.3333333333334
 20
37.03767446435255
 10
610.0041546420908
 20
42.50703945710829
 10
608.3394701060025
 20
53.44639497997408
 10
599.988654974211
 20
61.67791275274001
 10
605.0000000000001
 20
80.88806868493148
 10
605.0000000000001
 20
89.10440602499325
 10
608.3333333333334
 20
100.05678697737419
 10
608.3333333333334
 20
105.537080431513
 10
617.5807375164635
 20
129.0158793640056
 10
620.9810604881116
 20
123.42963448201239
 10
632.6477271547783
 20
126.16772972010759
 10
634.3228659016045
 20
123.41571606460732
 10
637.6603080624506
 20
123.41571606460732
 10
648.5303746116533
 20
102.81037013342642
 10
650.1982112733072
 20
89.11028326984172
 10
655.2
 20
72.6758345964218
 10
655.2
 20
64.41862684530489
 10
650.2000000000002
 20
56.204341131019156
 10
650.2000000000002
 20
50.728150654828745
 10
648.5420421524007
 20
48.0043627623439
 10
650.2066884166958
 20
42.534810751088145
 10
645.2105560552936
 20
31.590901768969253
 10
658.5471562419516
 20
4.20324067136818
 10
655.9886619202491
 20
0.0
 10
601.7096090614097
 20
1.3718881491794344
 10
599.9912911809329
 20
4.19483895282008
  0
LWPOLYLINE
  5
36
330
17
100
AcDbEntity
  8
M
100
AcDbPolyline
 90
14
 70
1
 10
586.6666666666666
 20
507.9991136024635
 10
586.6666666666666
 20
513.5223290934334
 10
594.2189395118886
 20
525.9296344820123
 10
605.9969695397043
 20
523.1654029448719
 10
609.3228659016045
 20
517.7014303503215
 10
612.5558920738922
 20
517.7014303503215
 10
617.6160763705195
 20
523.2435369609134
 10
620.1966556692032
 20
519.0040138273617
 10
621.8633223358698
 20
505.3135376368855
 10
623.5309287864442
 20
502.5738984680846
 10
625.2024637898719
 20
483.35124592866595
 10
622.6488257834536
 20
479.1559834895501
 10
595.8601449423406
 20
484.657230447993
 10
586.6666666666666
 20
507.9991136024635
  0
LWPOLYLINE
  5
37
330
17
100
AcDbEntity
  8
M
100
AcDbPolyline
 90
36
 70
1
 10
507.5438007650623
 20
457.2633351122264
 10
502.5504317737686
 20
457.2633351122264
 10
494.2170984404353
 20
468.2157160646073
 10
490.87713409839574
 20
468.2157160646073
 10
487.5438007650623
 20
473.69190654079785
 10
484.210467431729
 20
473.69190654079785
 10
480.87713409839574
 20
479.16809701698827
 10
477.5438007650623
 20
479.16809701698827
 10
474.210467431729
 20
484.6442874931788
 10
470.89752749914214
 20
484.6442874931788
 10
464.18456932154993
 20
490.1585031390579
 10
459.9876129612196
 20
499.81150276781796
 10
462.5345600485172
 20
503.99577298266405
 10
480.8781659388668
 20
509.4750318849762
 10
485.88922540722547
 20
514.9633351122263
 10
492.5641941658088
 20
514.9633351122263
 10
499.23086083247546
 20
520.4395255884168
 10
510.87713409839563
 20
520.4395255884168
 10
512.5438007650623
 20
523.1776208265121
 10
515.9895325682711
 20
523.1776208265121
 10
517.6561992349377
 20
520.4395255884168
 10
529.3228659016045
 20
520.4395255884168
 10
531.8666666666667
 20
516.2604243315286
 10
531.8666666666667
 20
510.78423385533824
 10
535.1975954531108
 20
505.31199370617986
 10
536.8642621197775
 20
486.1453270395132
 10
538.5420421524005
 20
483.3889741287755
 10
536.8726488275399
 20
477.9038246328049
 10
540.211579482466
 20
469.67574551888003
 10
535.9895325682711
 20
462.7395255884168
 10
532.644107926108
 20
462.7395255884168
 10
527.6803818525974
 20
457.3030636983815
 10
522.6765926356841
 20
449.08255284202403
 10
519.2839586090686
 20
446.29574632016136
 10
512.5316463004755
 20
449.069017446905
 10
507.5438007650623
 20
457.2633351122264
  0
LWPOLYLINE
  5
38
330
17
100
AcDbEntity
  8
M
100
AcDbPolyline
 90
28
 70
1
 10
475.0000000000001
 20
338.28423385533824
 10
476.6666666666668
 20
341.0223290934334
 10
476.6666666666668
 20
360.1889957601001
 10
480.0065101834468
 20
365.6758815376673
 10
483.33984351678004
 20
379.36635772814344
 10
491.67548587807977
 20
393.06062732170733
 10
495.86158674121816
 20
405.43952558841676
 10
500.87713409839563
 20
405.43952558841676
 10
502.5438007650623
 20
408.1776208265121
 10
515.9774412594412
 20
408.1776208265121
 10
520.9774412594412
 20
402.7014303503216
 10
524.3228659016044
 20
402.7014303503216
 10
528.5333333333334
 20
395.78423385533824
 10
528.5333333333334
 20
390.2519601786383
 10
526.8837354668218
 20
387.5419065407978
 10
528.5333333333334
 20
384.8318529029573
 10
528.5333333333334
 20
362.8710077976859
 10
526.8666666666667
 20
360.1329125595907
 10
526.8666666666667
 20
338.2281506548288
 10
524.3350203661913
 20
334.069017446905
 10
511.001687032858
 20
328.59282697071444
 10
509.3228659016045
 20
325.83476368365496
 10
499.302472500858
 20
325.83476368365496
 10
492.63580583419133
 20
320.3585732074644
 10
482.65619923493773
 20
320.3585732074644
 10
480.96317102477025
 20
317.5771697193321
 10
475.0000000000001
 20
321.77572891024187
 10
475.0000000000001
 20
338.28423385533824
  0
LWPOLYLINE
  5
39
330
17
100
AcDbEntity
  8
M
100
AcDbPolyline
 90
18
 70
1
 10
1204.2666666666669
 20
377.7662458929241
 10
1200.958864211895
 20
372.3319990029415
 10
1194.2921975452282
 20
377.80818947913195
 10
1192.6000000000001
 20
375.0281506548288
 10
1189.994204576422
 20
379.30910027927877
 10
1191.6731044050287
 20
387.5836780059836
 10
1200.8749117005739
 20
399.95234105908685
 10
1212.536363793629
 20
402.6892124686814
 10
1214.2104674317288
 20
405.43952558841676
 10
1229.3228659016045
 20
405.43952558841676
 10
1236.8586555235581
 20
393.0592997809214
 10
1241.8586555235581
 20
376.6307283523499
 10
1245.2170688001552
 20
371.1133351122263
 10
1242.6603580334342
 20
366.91302456689925
 10
1220.9936913667677
 20
364.174929328804
 10
1219.3143938214448
 20
361.4160833614881
 10
1213.3696971269626
 20
362.8112672795808
 10
1204.2666666666669
 20
377.7662458929241
  0
LWPOLYLINE
  5
3A
330
17
100
AcDbEntity
  8
M
100
AcDbPolyline
 90
5
 70
1
 10
1240.9135840213353
 20
479.42797903324595
 10
1245.2265866881958
 20
475.1765906901977
 10
1242.6197493119982
 20
470.8939292864448
 10
1238.3067466451378
 20
475.1453176294931
 10
1240.9135840213353
 20
479.42797903324595
  0
LWPOLYLINE
  5
3B
330
17
100
AcDbEntity
  8
M
100
AcDbPolyline
 90
30
 70
1
 10
1169.210467431729
 20
457.2633351122264
 10
1160.8771340983956
 20
457.2633351122264
 10
1159.210467431729
 20
460.0014303503216
 10
1155.8892254072255
 20
460.0014303503216
 10
1145.8892254072255
 20
470.95381130270255
 10
1142.5438007650623
 20
470.95381130270255
 10
1138.3162645331784
 20
477.8990493979406
 10
1142.523407364316
 20
484.8107840490954
 10
1149.2308608324754
 20
490.32047796936916
 10
1155.9809638641336
 20
490.32047796936916
 10
1162.6476305308001
 20
482.10619225508344
 10
1165.989532568271
 20
482.10619225508344
 10
1167.656199234938
 20
479.36809701698826
 10
1197.5438007650623
 20
479.36809701698826
 10
1199.210467431729
 20
482.10619225508344
 10
1202.6561992349375
 20
482.10619225508344
 10
1204.2666666666669
 20
479.4604243315287
 10
1205.907802454772
 20
482.156575983416
 10
1209.2666666666667
 20
479.39750895221675
 10
1212.6255308785614
 20
482.156575983416
 10
1214.3228659016042
 20
479.36809701698826
 10
1232.656199234938
 20
479.36809701698826
 10
1236.883735466822
 20
472.42285892175016
 10
1232.656199234938
 20
465.4776208265121
 10
1227.6441079261078
 20
465.4776208265121
 10
1222.6511190722154
 20
460.0091092246297
 10
1207.6511190722154
 20
457.27101398653446
 10
1202.642302981555
 20
451.78516779200197
 10
1171.7089679803164
 20
453.15865563954725
 10
1169.210467431729
 20
457.2633351122264
  0
LWPOLYLINE
  5
3C
330
17
100
AcDbEntity
  8
M
100
AcDbPolyline
 90
17
 70
1
 10
1159.9912911809329
 20
368.3889741287755
 10
1162.6000000000001
 20
372.67471004581444
 10
1167.587356457807
 20
364.48119586513195
 10
1172.5357243749586
 20
375.32047796936916
 10
1175.9895325682712
 20
375.32047796936916
 10
1179.2666666666667
 20
369.9366148077192
 10
1180.8771340983956
 20
372.582382731274
 10
1184.3228659016045
 20
372.582382731274
 10
1186.8790537054472
 20
368.3829313392465
 10
1182.65715958499
 20
358.6725748621944
 10
1172.646250334618
 20
361.41365715693905
 10
1170.217068800155
 20
357.42285892175016
 10
1173.5547397361736
 20
351.9395423840054
 10
1165.914445362311
 20
342.1769440174032
 10
1158.319209037141
 20
357.42769632111737
 10
1161.6579578475994
 20
362.91278365258495
 10
1159.9912911809329
 20
368.3889741287755
  0
LWPOLYLINE
  5
3D
330
17
100
AcDbEntity
  8
M
100
AcDbPolyline
 90
6
 70
1
 10
1150.936629718248
 20
369.90233191097155
 10
1158.5547397361738
 20
360.1680802213997
 10
1154.3108314290573
 20
353.19594514542297
 10
1150.033752856414
 20
354.60127096214865
 10
1144.9769661394803
 20
362.9088491399685
 10
1150.936629718248
 20
369.90233191097155
  0
LWPOLYLINE
  5
3E
330
17
100
AcDbEntity
  8
M
100
AcDbPolyline
 90
22
 70
1
 10
3031.7006414385482
 20
499.70764376658605
 10
3021.666666666667
 20
521.6868266002308
 10
3021.666666666667
 20
527.2128052839097
 10
3025.877134098396
 20
534.1300017788931
 10
3047.5558920738927
 20
534.1300017788931
 10
3052.5558920738927
 20
539.6061922550834
 10
3057.656199234938
 20
539.6061922550834
 10
3060.989532568271
 20
534.1300017788931
 10
3064.3107745927746
 20
534.1300017788931
 10
3069.320996212377
 20
528.6426161955192
 10
3079.331417135132
 20
525.9016676095266
 10
3084.3228659016045
 20
517.7014303503215
 10
3089.222558740559
 20
517.7014303503215
 10
3094.2182645116445
 20
523.1729176234153
 10
3119.206843191082
 20
525.9097619549727
 10
3120.933333333334
 20
528.7461386172432
 10
3123.542042152401
 20
524.4604027002042
 10
3120.190239606307
 20
513.4473371916088
 10
3112.65054241188
 20
503.81327966539703
 10
3055.9911624069705
 20
501.07553651389924
 10
3054.3207502318805
 20
498.3312879405367
 10
3031.7006414385482
 20
499.70764376658605
  0
LWPOLYLINE
  5
3F
330
17
100
AcDbEntity
  8
M
100
AcDbPolyline
 90
54
 70
1
 10
5984.21046743173
 20
8.21571606460736
 10
5981.659703145197
 20
12.406257392479608
 10
5988.33984351678
 20
39.84254820433403
 10
5991.671185687981
 20
45.31546748559304
 10
5996.671185687982
 20
75.43451510464061
 10
6000.002404546889
 20
80.90723180141812
 10
6001.668346373428
 20
100.06556280661982
 10
6008.335013040096
 20
116.49413423519128
 10
6010.001283227645
 20
135.65624139201816
 10
6013.333333333334
 20
146.60440602499324
 10
6013.333333333334
 20
152.0937576648621
 10
6016.666666666668
 20
157.56994814105263
 10
6016.666666666668
 20
165.78423385533836
 10
6019.21046743173
 20
169.9633351122264
 10
6024.210467431729
 20
169.9633351122264
 10
6025.877134098396
 20
172.7014303503216
 10
6035.897527499142
 20
172.7014303503216
 10
6039.266666666666
 20
175.46893752364534
 10
6042.6
 20
172.73084228555012
 10
6049.292197545227
 20
178.22800455484466
 10
6050.989532568272
 20
175.4395255884168
 10
6054.210467431728
 20
175.4395255884168
 10
6055.877134098395
 20
178.177620826512
 10
6064.21046743173
 20
178.177620826512
 10
6065.877134098395
 20
180.91571606460732
 10
6069.312834220393
 20
180.91571606460732
 10
6080.997507846012
 20
167.20410925903383
 10
6086.0113906492825
 20
164.45841153343378
 10
6090.2154502081785
 20
154.7890745479702
 10
6082.589704002667
 20
145.045065507592
 10
6080.921632569426
 20
147.78546857648567
 10
6074.314297197468
 20
139.6442874931787
 10
6069.310774592774
 20
139.6442874931787
 10
6054.325397843733
 20
123.23173200613347
 10
6047.668353699524
 20
120.49758887547645
 10
6044.322865901604
 20
115.00143035032163
 10
6039.302472500857
 20
115.00143035032163
 10
6029.343259302351
 20
106.8206480801196
 10
6025.217068800154
 20
100.04190654079781
 10
6029.322865901605
 20
93.29666844555973
 10
6034.311899517413
 20
93.29666844555973
 10
6045.196255592371
 20
80.91720851415118
 10
6048.53053550989
 20
48.050735041472585
 10
6051.009925969018
 20
43.97745071576178
 10
6074.343259302351
 20
24.810784049095062
 10
6077.668353699526
 20
19.348128968023932
 10
6084.335020366192
 20
16.6100337299287
 10
6087.656199234937
 20
11.153811302702572
 10
6090.989532568271
 20
11.153811302702572
 10
6093.550402133488
 20
6.9466684455597445
 10
6090.988442407682
 20
2.7377346103044378
 10
6004.209396452149
 20
5.479380292965491
 10
6002.543800765063
 20
8.21571606460736
 10
5984.21046743173
 20
8.21571606460736
  0
LWPOLYLINE
  5
40
330
17
100
AcDbEntity
  8
M
100
AcDbPolyline
 90
32
 70
1
 10
6012.567402272573
 20
369.6316810850987
 10
6007.519618147404
 20
375.16020655552427
 10
6005.0033443307975
 20
379.2940849685196
 10
6003.336677664131
 20
392.9845611589958
 10
6001.66946449011
 20
395.7235542305996
 10
6000.002797823445
 20
412.152125659171
 10
5996.673176850113
 20
417.62221725821405
 10
5993.326369811864
 20
431.36803187959225
 10
5995.8649796338095
 20
435.53860515850016
 10
6002.641012219716
 20
438.32161854199734
 10
6004.322865901605
 20
435.5585732074645
 10
6017.656199234939
 20
435.5585732074645
 10
6019.322865901605
 20
432.82047796936916
 10
6030.98953256827
 20
432.82047796936916
 10
6032.656199234937
 20
430.082382731274
 10
6044.322865901604
 20
430.082382731274
 10
6045.989532568271
 20
427.34428749317874
 10
6057.656199234938
 20
427.34428749317874
 10
6059.322865901605
 20
424.60619225508344
 10
6070.969139167525
 20
424.60619225508344
 10
6074.343259302351
 20
421.8345935729046
 10
6076.883735466822
 20
417.6609541598454
 10
6066.866666666666
 20
401.204341131019
 10
6066.866666666666
 20
387.52702610422176
 10
6063.533333333334
 20
376.5746451518408
 10
6063.533333333334
 20
371.0852935119714
 10
6060.9333333333325
 20
366.81386494054277
 10
6059.241135788105
 20
369.59390376484623
 10
6055.965318111159
 20
366.90305353021193
 10
6024.207584988545
 20
369.6490229355508
 10
6022.553749665382
 20
372.36603810932
 10
6012.567402272573
 20
369.6316810850987
  0
LWPOLYLINE
  5
41
330
17
100
AcDbEntity
  8
M
100
AcDbPolyline
 90
29
 70
1
 10
5825.901660756602
 20
194.40619225508348
 10
5822.555892073891
 20
194.40619225508348
 10
5817.555892073892
 20
199.88238273127402
 10
5814.222558740558
 20
199.88238273127402
 10
5809.22255874056
 20
205.35857320746442
 10
5805.877134098395
 20
205.35857320746442
 10
5801.666666666668
 20
212.27576970244777
 10
5801.666666666668
 20
223.28423385533836
 10
5804.210467431728
 20
227.4633351122264
 10
5817.656199234937
 20
227.4633351122264
 10
5819.266666666667
 20
224.81756718867163
 10
5820.877134098396
 20
227.4633351122264
 10
5834.322865901605
 20
227.4633351122264
 10
5835.989532568272
 20
224.72523987413106
 10
5842.543800765062
 20
224.72523987413106
 10
5844.210467431729
 20
227.4633351122264
 10
5850.989532568271
 20
227.4633351122264
 10
5852.656199234938
 20
224.72523987413106
 10
5889.312834220393
 20
224.72523987413106
 10
5895.185169553482
 20
217.83423412611847
 10
5900.196762928228
 20
206.8564581623874
 10
5901.862512024577
 20
195.91010695782074
 10
5908.533333333333
 20
184.950900522005
 10
5908.533333333333
 20
179.4747100458145
 10
5910.217068800154
 20
176.70857320746447
 10
5907.6547416217245
 20
172.49903570004355
 10
5875.081947942778
 20
173.87114971948648
 10
5837.554620568931
 20
186.2015572851793
 10
5825.901660756602
 20
194.40619225508348
  0
LWPOLYLINE
  5
42
330
17
100
AcDbEntity
  8
M
100
AcDbPolyline
 90
44
 70
1
 10
5734.21046743173
 20
276.5490493979407
 10
5731.649597866511
 20
280.75619225508353
 10
5735.877134098395
 20
287.7014303503216
 10
5739.322865901604
 20
287.7014303503216
 10
5740.933333333334
 20
285.05566242676696
 10
5743.333333333334
 20
288.9985195696241
 10
5743.333333333334
 20
297.15672208340015
 10
5728.341344476443
 20
321.786418062579
 10
5725.008011143109
 20
332.73879901495997
 10
5720.003344330797
 20
340.9607516351862
 10
5718.336192209891
 20
354.6552154854821
 10
5710.000000000001
 20
371.08942298498204
 10
5710.000000000001
 20
379.2995792262573
 10
5707.558987780285
 20
383.30981358721726
 10
5700.892321113619
 20
380.5717183491221
 10
5699.21046743173
 20
383.33476368365496
 10
5695.877134098396
 20
383.33476368365496
 10
5693.316264533179
 20
387.5419065407978
 10
5695.877134098396
 20
391.74904939794067
 10
5707.564194165809
 20
391.74904939794067
 10
5710.933333333333
 20
394.5165565712644
 10
5714.241135788106
 20
391.7994331262732
 10
5715.877134098396
 20
394.48714463603585
 10
5729.210467431729
 20
394.48714463603585
 10
5730.892321113618
 20
397.25018997056884
 10
5737.558987780286
 20
394.5120947324735
 10
5739.210467431729
 20
397.22523987413115
 10
5755.969139167524
 20
397.22523987413115
 10
5772.635805834191
 20
383.5347636836549
 10
5775.97950088706
 20
383.5347636836549
 10
5781.866666666668
 20
376.62635486064664
 10
5781.866666666668
 20
360.1889957601001
 10
5785.2
 20
354.7128052839097
 10
5785.2
 20
343.7099070176263
 10
5779.329964347523
 20
331.31095415984544
 10
5777.656199234938
 20
331.31095415984544
 10
5771.866666666666
 20
321.7995792262573
 10
5771.866666666666
 20
313.5852935119716
 10
5770.200000000001
 20
310.8471982738764
 10
5770.200000000001
 20
283.4718117795311
 10
5764.32730541174
 20
271.0672425982068
 10
5748.39783073193
 20
272.4446031908221
 10
5742.56832742327
 20
276.5490493979407
 10
5734.21046743173
 20
276.5490493979407
  0
LWPOLYLINE
  5
43
330
17
100
AcDbEntity
  8
M
100
AcDbPolyline
 90
14
 70
1
 10
5718.345056364699
 20
494.2742218583068
 10
5715.008011143109
 20
505.23879901495997
 10
5708.333333333334
 20
516.2043411310192
 10
5708.333333333334
 20
521.6805316072098
 10
5699.987612961219
 20
535.3913579328253
 10
5704.1911392167485
 20
545.0594683205406
 10
5717.641012219716
 20
550.583523303902
 10
5721.001687032858
 20
545.0624146823096
 10
5727.6610357828395
 20
542.3273250171387
 10
5740.2015810032035
 20
527.2189538706997
 10
5738.532122089218
 20
488.82139884902
 10
5735.984230436316
 20
484.635576847822
 10
5726.719670712272
 20
486.0192448585554
 10
5718.345056364699
 20
494.2742218583068
  0
LWPOLYLINE
  5
44
330
17
100
AcDbEntity
  8
M
100
AcDbPolyline
 90
14
 70
1
 10
5676.668212047523
 20
453.22996491100577
 10
5675.001309848456
 20
477.876304568657
 10
5671.655087184201
 20
486.12235327700125
 10
5674.21046743173
 20
490.32047796936916
 10
5690.98953256827
 20
490.32047796936916
 10
5692.656199234937
 20
487.582382731274
 10
5699.230860832476
 20
487.582382731274
 10
5702.625530878562
 20
490.37086169770174
 10
5704.322865901604
 20
487.582382731274
 10
5707.656199234938
 20
487.582382731274
 10
5710.214992483303
 20
483.3786509661009
 10
5687.669483872059
 20
440.8523344586469
 10
5683.381635637506
 20
439.4434700387223
 10
5676.668212047523
 20
453.22996491100577
  0
ENDSEC
  0
SECTION
  2
OBJECTS
  0
DICTIONARY
  5
A
330
0
100
AcDbDictionary
281
1
  3
ACAD_COLOR
350
B
  3
ACAD_GROUP
350
C
  3
ACAD_LAYOUT
350
D
  3
ACAD_MATERIAL
350
E
  3
ACAD_MLEADERSTYLE
350
F
  3
ACAD_MLINESTYLE
350
10
  3
ACAD_PLOTSETTINGS
350
11
  3
ACAD_PLOTSTYLENAME
350
12
  3
ACAD_SCALELIST
350
14
  3
ACAD_TABLESTYLE
350
15
  3
ACAD_VISUALSTYLE
350
16
  3
EZDXF_META
350
2D
  0
DICTIONARY
  5
B
330
A
100
AcDbDictionary
281
1
  0
DICTIONARY
  5
C
330
A
100
AcDbDictionary
281
1
  0
DICTIONARY
  5
D
330
A
100
AcDbDictionary
281
1
  3
Model
350
1A
  3
Layout1
350
1E
  0
DICTIONARY
  5
E
330
A
100
AcDbDictionary
281
1
  3
ByBlock
350
1F
  3
ByLayer
350
20
  3
Global
350
21
  0
DICTIONARY
  5
F
330
A
100
AcDbDictionary
281
1
  3
Standard
350
2C
  0
DICTIONARY
  5
10
330
A
100
AcDbDictionary
281
1
  3
Standard
350
22
  0
DICTIONARY
  5
11
330
A
100
AcDbDictionary
281
1
  0
ACDBDICTIONARYWDFLT
  5
12
330
A
100
AcDbDictionary
281
1
  3
Normal
350
13
100
AcDbDictionaryWithDefault
340
13
  0
ACDBPLACEHOLDER
  5
13
330
12
  0
DICTIONARY
  5
14
330
A
100
AcDbDictionary
281
1
  0
DICTIONARY
  5
15
330
A
100
AcDbDictionary
281
1
  0
DICTIONARY
  5
16
330
A
100
AcDbDictionary
281
1
  0
LAYOUT
  5
1A
330
D
100
AcDbPlotSettings
  1

  4
A3
  6

 40
7.5
 41
20.0
 42
7.5
 43
20.0
 44
420.0
 45
297.0
 46
0.0
 47
0.0
 48
0.0
 49
0.0
140
0.0
141
0.0
142
1.0
143
1.0
 70
1024
 72
1
 73
0
 74
5
  7

 75
16
 76
0
 77
2
 78
300
147
1.0
148
0.0
149
0.0
100
AcDbLayout
  1
Model
 70
1
 71
0
 10
0.0
 20
0.0
 11
420.0
 21
297.0
 12
0.0
 22
0.0
 32
0.0
 14
1e+20
 24
1e+20
 34
1e+20
 15
-1e+20
 25
-1e+20
 35
-1e+20
146
0.0
 13
0.0
 23
0.0
 33
0.0
 16
1.0
 26
0.0
 36
0.0
 17
0.0
 27
1.0
 37
0.0
 76
1
330
17
  0
LAYOUT
  5
1E
330
D
100
AcDbPlotSettings
  1

  4
A3
  6

 40
7.5
 41
20.0
 42
7.5
 43
20.0
 44
420.0
 45
297.0
 46
0.0
 47
0.0
 48
0.0
 49
0.0
140
0.0
141
0.0
142
1.0
143
1.0
 70
0
 72
1
 73
0
 74
5
  7

 75
16
 76
0
 77
2
 78
300
147
1.0
148
0.0
149
0.0
100
AcDbLayout
  1
Layout1
 70
1
 71
1
 10
0.0
 20
0.0
 11
420.0
 21
297.0
 12
0.0
 22
0.0
 32
0.0
 14
1e+20
 24
1e+20
 34
1e+20
 15
-1e+20
 25
-1e+20
 35
-1e+20
146
0.0
 13
0.0
 23
0.0
 33
0.0
 16
1.0
 26
0.0
 36
0.0
 17
0.0
 27
1.0
 37
0.0
 76
1
330
1B
  0
MATERIAL
  5
1F
102
{ACAD_REACTORS
330
E
102
}
330
E
100
AcDbMaterial
  1
ByBlock
  2

 70
0
 40
1.0
 71
1
 41
1.0
 91
-1023410177
 42
1.0
 72
1
  3

 73
1
 74
1
 75
1
 44
0.5
 73
0
 45
1.0
 46
1.0
 77
1
  4

 78
1
 79
1
170
1
 48
1.0
171
1
  6

172
1
173
1
174
1
140
1.0
141
1.0
175
1
  7

176
1
177
1
178
1
143
1.0
179
1
  8

270
1
271
1
272
1
145
1.0
146
1.0
273
1
  9

274
1
275
1
276
1
 42
1.0
 72
1
  3

 73
1
 74
1
 75
1
 94
63
  0
MATERIAL
  5
20
102
{ACAD_REACTORS
330
E
102
}
330
E
100
AcDbMaterial
  1
ByLayer
  2

 70
0
 40
1.0
 71
1
 41
1.0
 91
-1023410177
 42
1.0
 72
1
  3

 73
1
 74
1
 75
1
 44
0.5
 73
0
 45
1.0
 46
1.0
 77
1
  4

 78
1
 79
1
170
1
 48
1.0
171
1
  6

172
1
173
1
174
1
140
1.0
141
1.0
175
1
  7

176
1
177
1
178
1
143
1.0
179
1
  8

270
1
271
1
272
1
145
1.0
146
1.0
273
1
  9

274
1
275
1
276
1
 42
1.0
 72
1
  3

 73
1
 74
1
 75
1
 94
63
  0
MATERIAL
  5
21
102
{ACAD_REACTORS
330
E
102
}
330
E
100
AcDbMaterial
  1
Global
  2

 70
0
 40
1.0
 71
1
 41
1.0
 91
-1023410177
 42
1.0
 72
1
  3

 73
1
 74
1
 75
1
 44
0.5
 73
0
 45
1.0
 46
1.0
 77
1
  4

 78
1
 79
1
170
1
 48
1.0
171
1
  6

172
1
173
1
174
1
140
1.0
141
1.0
175
1
  7

176
1
177
1
178
1
143
1.0
179
1
  8

270
1
271
1
272
1
145
1.0
146
1.0
273
1
  9

274
1
275
1
276
1
 42
1.0
 72
1
  3

 73
1
 74
1
 75
1
 94
63
  0
MLINESTYLE
  5
22
102
{ACAD_REACTORS
330
10
102
}
330
10
100
AcDbMlineStyle
  2
Standard
 70
0
  3

 62
256
 51
90.0
 52
90.0
 71
2
 49
0.5
 62
256
  6
BYLAYER
 49
-0.5
 62
256
  6
BYLAYER
  0
MLEADERSTYLE
  5
2C
102
{ACAD_REACTORS
330
F
102
}
330
F
100
AcDbMLeaderStyle
179
2
170
2
171
1
172
0
 90
2
 40
0.0
 41
0.0
173
1
 91
-1056964608
 92
-2
290
1
 42
2.0
291
1
 43
8.0
  3
Standard
 44
4.0
300

342
29
174
1
175
1
176
0
178
1
 93
-1056964608
 45
4.0
292
0
297
0
 46
4.0
 94
-1056964608
 47
1.0
 49
1.0
140
1.0
294
1
141
0.0
177
0
142
1.0
295
0
296
0
143
3.75
271
0
272
9
273
9
  0
DICTIONARY
  5
2D
330
A
100
AcDbDictionary
280
1
281
1
  3
CREATED_BY_EZDXF
350
2E
  3
WRITTEN_BY_EZDXF
350
47
  0
DICTIONARYVAR
  5
2E
330
2D
100
DictionaryVariables
280
0
  1
1.4.4 @ 2026-07-17T11:52:30.161362+00:00
  0
DICTIONARYVAR
  5
47
330
2D
100
DictionaryVariables
280
0
  1
1.4.4 @ 2026-07-17T11:52:30.164941+00:00
  0
ENDSEC
  0
EOF
