  0
SECTION
  2
HEADER
  9
$ACADVER
  1
AC1027
  9
$ACADMAINTVER
 70
105
  9
$DWGCODEPAGE
  3
ANSI_1252
  9
$LASTSAVEDBY
  1
ezdxf
  9
$REQUIREDVERSIONS
160
0
  9
$INSBASE
 10
0.0
 20
0.0
 30
0.0
  9
$EXTMIN
 10
1e+20
 20
1e+20
 30
1e+20
  9
$EXTMAX
 10
-1e+20
 20
-1e+20
 30
-1e+20
  9
$LIMMIN
 10
0.0
 20
0.0
  9
$LIMMAX
 10
420.0
 20
297.0
  9
$ORTHOMODE
 70
0
  9
$REGENMODE
 70
1
  9
$FILLMODE
 70
1
  9
$QTEXTMODE
 70
0
  9
$MIRRTEXT
 70
1
  9
$LTSCALE
 40
1.0
  9
$ATTMODE
 70
1
  9
$TEXTSIZE
 40
2.5
  9
$TRACEWID
 40
1.0
  9
$TEXTSTYLE
  7
Standard
  9
$CLAYER
  8
0
  9
$CELTYPE
  6
ByLayer
  9
$CECOLOR
 62
256
  9
$CELTSCALE
 40
1.0
  9
$DISPSILH
 70
0
  9
$DIMSCALE
 40
1.0
  9
$DIMASZ
 40
2.5
  9
$DIMEXO
 40
0.625
  9
$DIMDLI
 40
3.75
  9
$DIMRND
 40
0.0
  9
$DIMDLE
 40
0.0
  9
$DIMEXE
 40
1.25
  9
$DIMTP
 40
0.0
  9
$DIMTM
 40
0.0
  9
$DIMTXT
 40
2.5
  9
$DIMCEN
 40
2.5
  9
$DIMTSZ
 40
0.0
  9
$DIMTOL
 70
0
  9
$DIMLIM
 70
0
  9
$DIMTIH
 70
0
  9
$DIMTOH
 70
0
  9
$DIMSE1
 70
0
  9
$DIMSE2
 70
0
  9
$DIMTAD
 70
1
  9
$DIMZIN
 70
8
  9
$DIMBLK
  1

  9
$DIMASO
 70
1
  9
$DIMSHO
 70
1
  9
$DIMPOST
  1

  9
$DIMAPOST
  1

  9
$DIMALT
 70
0
  9
$DIMALTD
 70
3
  9
$DIMALTF
 40
0.03937007874
  9
$DIMLFAC
 40
1.0
  9
$DIMTOFL
 70
1
  9
$DIMTVP
 40
0.0
  9
$DIMTIX
 70
0
  9
$DIMSOXD
 70
0
  9
$DIMSAH
 70
0
  9
$DIMBLK1
  1

  9
$DIMBLK2
  1

  9
$DIMSTYLE
  2
ISO-25
  9
$DIMCLRD
 70
0
  9
$DIMCLRE
 70
0
  9
$DIMCLRT
 70
0
  9
$DIMTFAC
 40
1.0
  9
$DIMGAP
 40
0.625
  9
$DIMJUST
 70
0
  9
$DIMSD1
 70
0
  9
$DIMSD2
 70
0
  9
$DIMTOLJ
 70
0
  9
$DIMTZIN
 70
8
  9
$DIMALTZ
 70
0
  9
$DIMALTTZ
 70
0
  9
$DIMUPT
 70
0
  9
$DIMDEC
 70
2
  9
$DIMTDEC
 70
2
  9
$DIMALTU
 70
2
  9
$DIMALTTD
 70
3
  9
$DIMTXSTY
  7
Standard
  9
$DIMAUNIT
 70
0
  9
$DIMADEC
 70
0
  9
$DIMALTRND
 40
0.0
  9
$DIMAZIN
 70
0
  9
$DIMDSEP
 70
44
  9
$DIMATFIT
 70
3
  9
$DIMFRAC
 70
0
  9
$DIMLDRBLK
  1

  9
$DIMLUNIT
 70
2
  9
$DIMLWD
 70
-2
  9
$DIMLWE
 70
-2
  9
$DIMTMOVE
 70
0
  9
$DIMFXL
 40
1.0
  9
$DIMFXLON
 70
0
  9
$DIMJOGANG
 40
0.785398163397
  9
$DIMTFILL
 70
0
  9
$DIMTFILLCLR
 70
0
  9
$DIMARCSYM
 70
0
  9
$DIMLTYPE
  6

  9
$DIMLTEX1
  6

  9
$DIMLTEX2
  6

  9
$DIMTXTDIRECTION
 70
0
  9
$LUNITS
 70
2
  9
$LUPREC
 70
4
  9
$SKETCHINC
 40
1.0
  9
$FILLETRAD
 40
10.0
  9
$AUNITS
 70
0
  9
$AUPREC
 70
2
  9
$MENU
  1
.
  9
$ELEVATION
 40
0.0
  9
$PELEVATION
 40
0.0
  9
$THICKNESS
 40
0.0
  9
$LIMCHECK
 70
0
  9
$CHAMFERA
 40
0.0
  9
$CHAMFERB
 40
0.0
  9
$CHAMFERC
 40
0.0
  9
$CHAMFERD
 40
0.0
  9
$SKPOLY
 70
0
  9
$TDCREATE
 40
2461243.8295486113
  9
$TDUCREATE
 40
2458532.153996898
  9
$TDUPDATE
 40
2461243.8295486113
  9
$TDUUPDATE
 40
2458532.1544311
  9
$TDINDWG
 40
0.0
  9
$TDUSRTIMER
 40
0.0
  9
$USRTIMER
 70
1
  9
$ANGBASE
 50
0.0
  9
$ANGDIR
 70
0
  9
$PDMODE
 70
0
  9
$PDSIZE
 40
0.0
  9
$PLINEWID
 40
0.0
  9
$SPLFRAME
 70
0
  9
$SPLINETYPE
 70
6
  9
$SPLINESEGS
 70
8
  9
$HANDSEED
  5
3D
  9
$SURFTAB1
 70
6
  9
$SURFTAB2
 70
6
  9
$SURFTYPE
 70
6
  9
$SURFU
 70
6
  9
$SURFV
 70
6
  9
$UCSBASE
  2

  9
$UCSNAME
  2

  9
$UCSORG
 10
0.0
 20
0.0
 30
0.0
  9
$UCSXDIR
 10
1.0
 20
0.0
 30
0.0
  9
$UCSYDIR
 10
0.0
 20
1.0
 30
0.0
  9
$UCSORTHOREF
  2

  9
$UCSORTHOVIEW
 70
0
  9
$UCSORGTOP
 10
0.0
 20
0.0
 30
0.0
  9
$UCSORGBOTTOM
 10
0.0
 20
0.0
 30
0.0
  9
$UCSORGLEFT
 10
0.0
 20
0.0
 30
0.0
  9
$UCSORGRIGHT
 10
0.0
 20
0.0
 30
0.0
  9
$UCSORGFRONT
 10
0.0
 20
0.0
 30
0.0
  9
$UCSORGBACK
 10
0.0
 20
0.0
 30
0.0
  9
$PUCSBASE
  2

  9
$PUCSNAME
  2

  9
$PUCSORG
 10
0.0
 20
0.0
 30
0.0
  9
$PUCSXDIR
 10
1.0
 20
0.0
 30
0.0
  9
$PUCSYDIR
 10
0.0
 20
1.0
 30
0.0
  9
$PUCSORTHOREF
  2

  9
$PUCSORTHOVIEW
 70
0
  9
$PUCSORGTOP
 10
0.0
 20
0.0
 30
0.0
  9
$PUCSORGBOTTOM
 10
0.0
 20
0.0
 30
0.0
  9
$PUCSORGLEFT
 10
0.0
 20
0.0
 30
0.0
  9
$PUCSORGRIGHT
 10
0.0
 20
0.0
 30
0.0
  9
$PUCSORGFRONT
 10
0.0
 20
0.0
 30
0.0
  9
$PUCSORGBACK
 10
0.0
 20
0.0
 30
0.0
  9
$USERI1
 70
0
  9
$USERI2
 70
0
  9
$USERI3
 70
0
  9
$USERI4
 70
0
  9
$USERI5
 70
0
  9
$USERR1
 40
0.0
  9
$USERR2
 40
0.0
  9
$USERR3
 40
0.0
  9
$USERR4
 40
0.0
  9
$USERR5
 40
0.0
  9
$WORLDVIEW
 70
1
  9
$SHADEDGE
 70
3
  9
$SHADEDIF
 70
70
  9
$TILEMODE
 70
1
  9
$MAXACTVP
 70
64
  9
$PINSBASE
 10
0.0
 20
0.0
 30
0.0
  9
$PLIMCHECK
 70
0
  9
$PEXTMIN
 10
1e+20
 20
1e+20
 30
1e+20
  9
$PEXTMAX
 10
-1e+20
 20
-1e+20
 30
-1e+20
  9
$PLIMMIN
 10
0.0
 20
0.0
  9
$PLIMMAX
 10
420.0
 20
297.0
  9
$UNITMODE
 70
0
  9
$VISRETAIN
 70
1
  9
$PLINEGEN
 70
0
  9
$PSLTSCALE
 70
1
  9
$TREEDEPTH
 70
3020
  9
$CMLSTYLE
  2
Standard
  9
$CMLJUST
 70
0
  9
$CMLSCALE
 40
20.0
  9
$PROXYGRAPHICS
 70
1
  9
$MEASUREMENT
 70
1
  9
$CELWEIGHT
370
-1
  9
$ENDCAPS
280
0
  9
$JOINSTYLE
280
0
  9
$LWDISPLAY
290
0
  9
$INSUNITS
 70
4
  9
$HYPERLINKBASE
  1

  9
$STYLESHEET
  1

  9
$XEDIT
290
1
  9
$CEPSNTYPE
380
0
  9
$PSTYLEMODE
290
1
  9
$FINGERPRINTGUID
  2
{5ADF07A0-E7EB-426C-B137-513E13FF9327}
  9
$VERSIONGUID
  2
{899ABA82-0D81-4848-9610-7C2B0176C83F}
  9
$EXTNAMES
290
1
  9
$PSVPSCALE
 40
0.0
  9
$OLESTARTUP
290
0
  9
$SORTENTS
280
127
  9
$INDEXCTL
280
0
  9
$HIDETEXT
280
1
  9
$XCLIPFRAME
280
1
  9
$HALOGAP
280
0
  9
$OBSCOLOR
 70
257
  9
$OBSLTYPE
280
0
  9
$INTERSECTIONDISPLAY
280
0
  9
$INTERSECTIONCOLOR
 70
257
  9
$DIMASSOC
280
2
  9
$PROJECTNAME
  1

  9
$CAMERADISPLAY
290
0
  9
$LENSLENGTH
 40
50.0
  9
$CAMERAHEIGHT
 40
0.0
  9
$STEPSPERSEC
 40
24.0
  9
$STEPSIZE
 40
100.0
  9
$3DDWFPREC
 40
2.0
  9
$PSOLWIDTH
 40
0.005
  9
$PSOLHEIGHT
 40
0.08
  9
$LOFTANG1
 40
1.570796326795
  9
$LOFTANG2
 40
1.570796326795
  9
$LOFTMAG1
 40
0.0
  9
$LOFTMAG2
 40
0.0
  9
$LOFTPARAM
 70
7
  9
$LOFTNORMALS
280
1
  9
$LATITUDE
 40
37.795
  9
$LONGITUDE
 40
-122.394
  9
$NORTHDIRECTION
 40
0.0
  9
$TIMEZONE
 70
-8000
  9
$LIGHTGLYPHDISPLAY
280
1
  9
$TILEMODELIGHTSYNCH
280
1
  9
$CMATERIAL
347
20
  9
$SOLIDHIST
280
0
  9
$SHOWHIST
280
1
  9
$DWFFRAME
280
2
  9
$DGNFRAME
280
2
  9
$REALWORLDSCALE
290
1
  9
$INTERFERECOLOR
 62
256
  9
$CSHADOW
280
0
  9
$SHADOWPLANELOCATION
 40
0.0
  0
ENDSEC
  0
SECTION
  2
CLASSES
  0
CLASS
  1
ACDBDICTIONARYWDFLT
  2
AcDbDictionaryWithDefault
  3
ObjectDBX Classes
 90
0
 91
0
280
0
281
0
  0
CLASS
  1
SUN
  2
AcDbSun
  3
SCENEOE
 90
1153
 91
0
280
0
281
0
  0
CLASS
  1
VISUALSTYLE
  2
AcDbVisualStyle
  3
ObjectDBX Classes
 90
4095
 91
0
280
0
281
0
  0
CLASS
  1
MATERIAL
  2
AcDbMaterial
  3
ObjectDBX Classes
 90
1153
 91
0
280
0
281
0
  0
CLASS
  1
SCALE
  2
AcDbScale
  3
ObjectDBX Classes
 90
1153
 91
0
280
0
281
0
  0
CLASS
  1
TABLESTYLE
  2
AcDbTableStyle
  3
ObjectDBX Classes
 90
4095
 91
0
280
0
281
0
  0
CLASS
  1
MLEADERSTYLE
  2
AcDbMLeaderStyle
  3
ACDB_MLEADERSTYLE_CLASS
 90
4095
 91
0
280
0
281
0
  0
CLASS
  1
DICTIONARYVAR
  2
AcDbDictionaryVar
  3
ObjectDBX Classes
 90
0
 91
0
280
0
281
0
  0
CLASS
  1
CELLSTYLEMAP
  2
AcDbCellStyleMap
  3
ObjectDBX Classes
 90
1152
 91
0
280
0
281
0
  0
CLASS
  1
MENTALRAYRENDERSETTINGS
  2
AcDbMentalRayRenderSettings
  3
SCENEOE
 90
1024
 91
0
280
0
281
0
  0
CLASS
  1
ACDBDETAILVIEWSTYLE
  2
AcDbDetailViewStyle
  3
ObjectDBX Classes
 90
1025
 91
0
280
0
281
0
  0
CLASS
  1
ACDBSECTIONVIEWSTYLE
  2
AcDbSectionViewStyle
  3
ObjectDBX Classes
 90
1025
 91
0
280
0
281
0
  0
CLASS
  1
RASTERVARIABLES
  2
AcDbRasterVariables
  3
ISM
 90
0
 91
0
280
0
281
0
  0
CLASS
  1
ACDBPLACEHOLDER
  2
AcDbPlaceHolder
  3
ObjectDBX Classes
 90
0
 91
0
280
0
281
0
  0
CLASS
  1
LAYOUT
  2
AcDbLayout
  3
ObjectDBX Classes
 90
0
 91
0
280
0
281
0
  0
ENDSEC
  0
SECTION
  2
TABLES
  0
TABLE
  2
VPORT
  5
8
330
0
100
AcDbSymbolTable
 70
1
  0
VPORT
  5
23
330
8
100
AcDbSymbolTableRecord
100
AcDbViewportTableRecord
  2
*Active
 70
0
 10
0.0
 20
0.0
 11
1.0
 21
1.0
 12
0.0
 22
0.0
 13
0.0
 23
0.0
 14
0.5
 24
0.5
 15
0.5
 25
0.5
 16
0.0
 26
0.0
 36
1.0
 17
0.0
 27
0.0
 37
0.0
 40
1000.0
 41
1.34
 42
50.0
 43
0.0
 44
0.0
 50
0.0
 51
0.0
 71
0
 72
1000
 73
1
 74
3
 75
0
 76
0
 77
0
 78
0
281
0
 65
0
146
0.0
  0
ENDTAB
  0
TABLE
  2
LTYPE
  5
2
330
0
100
AcDbSymbolTable
 70
3
  0
LTYPE
  5
24
330
2
100
AcDbSymbolTableRecord
100
AcDbLinetypeTableRecord
  2
ByBlock
 70
0
  3

 72
65
 73
0
 40
0.0
  0
LTYPE
  5
25
330
2
100
AcDbSymbolTableRecord
100
AcDbLinetypeTableRecord
  2
ByLayer
 70
0
  3

 72
65
 73
0
 40
0.0
  0
LTYPE
  5
26
330
2
100
AcDbSymbolTableRecord
100
AcDbLinetypeTableRecord
  2
Continuous
 70
0
  3

 72
65
 73
0
 40
0.0
  0
ENDTAB
  0
TABLE
  2
LAYER
  5
1
330
0
100
AcDbSymbolTable
 70
3
  0
LAYER
  5
27
330
1
100
AcDbSymbolTableRecord
100
AcDbLayerTableRecord
  2
0
 70
0
 62
7
  6
Continuous
370
-3
390
13
347
21
  0
LAYER
  5
28
330
1
100
AcDbSymbolTableRecord
100
AcDbLayerTableRecord
  2
Defpoints
 70
0
 62
7
  6
Continuous
290
0
370
-3
390
13
347
21
  0
LAYER
  5
2F
330
1
100
AcDbSymbolTableRecord
100
AcDbLayerTableRecord
  2
M
 70
0
 62
7
  6
Continuous
370
-3
390
13
347
21
  0
ENDTAB
  0
TABLE
  2
STYLE
  5
5
330
0
100
AcDbSymbolTable
 70
1
  0
STYLE
  5
29
330
5
100
AcDbSymbolTableRecord
100
AcDbTextStyleTableRecord
  2
Standard
 70
0
 40
0.0
 41
1.0
 50
0.0
 71
0
 42
2.5
  3
txt
  4

  0
ENDTAB
  0
TABLE
  2
VIEW
  5
7
330
0
100
AcDbSymbolTable
 70
0
  0
ENDTAB
  0
TABLE
  2
UCS
  5
6
330
0
100
AcDbSymbolTable
 70
0
  0
ENDTAB
  0
TABLE
  2
APPID
  5
3
330
0
100
AcDbSymbolTable
 70
3
  0
APPID
  5
2A
330
3
100
AcDbSymbolTableRecord
100
AcDbRegAppTableRecord
  2
ACAD
 70
0
  0
APPID
  5
3A
330
3
100
AcDbSymbolTableRecord
100
AcDbRegAppTableRecord
  2
HATCHBACKGROUNDCOLOR
 70
0
  0
APPID
  5
3B
330
3
100
AcDbSymbolTableRecord
100
AcDbRegAppTableRecord
  2
EZDXF
 70
0
  0
ENDTAB
  0
TABLE
  2
DIMSTYLE
  5
4
330
0
100
AcDbSymbolTable
 70
1
100
AcDbDimStyleTable
  0
DIMSTYLE
105
2B
330
4
100
AcDbSymbolTableRecord
100
AcDbDimStyleTableRecord
  2
Standard
 70
0
 40
1.0
 41
2.5
 42
0.625
 43
3.75
 44
1.25
 45
0.0
 46
0.0
 47
0.0
 48
0.0
 49
2.5
140
2.5
141
2.5
142
0.0
143
0.03937007874
144
1.0
145
0.0
146
1.0
147
0.625
148
0.0
 69
0
 70
0
 71
0
 72
0
 73
0
 74
0
 75
0
 76
0
 77
1
 78
8
 79
3
170
0
171
3
172
1
173
0
174
0
175
0
176
0
177
0
178
0
179
2
271
2
272
2
273
2
274
3
275
0
276
0
277
2
278
44
279
0
280
0
281
0
282
0
283
0
284
8
285
0
286
0
288
0
289
3
290
0
371
-2
372
-2
  0
ENDTAB
  0
TABLE
  2
BLOCK_RECORD
  5
9
330
0
100
AcDbSymbolTable
 70
2
  0
BLOCK_RECORD
  5
17
330
9
100
AcDbSymbolTableRecord
100
AcDbBlockTableRecord
  2
*Model_Space
340
1A
 70
0
280
1
281
0
  0
BLOCK_RECORD
  5
1B
330
9
100
AcDbSymbolTableRecord
100
AcDbBlockTableRecord
  2
*Paper_Space
340
1E
 70
0
280
1
281
0
  0
ENDTAB
  0
ENDSEC
  0
SECTION
  2
BLOCKS
  0
BLOCK
  5
18
330
17
100
AcDbEntity
  8
0
100
AcDbBlockBegin
  2
*Model_Space
 70
0
 10
0.0
 20
0.0
 30
0.0
  3
*Model_Space
  1

  0
ENDBLK
  5
19
330
17
100
AcDbEntity
  8
0
100
AcDbBlockEnd
  0
BLOCK
  5
1C
330
1B
100
AcDbEntity
  8
0
100
AcDbBlockBegin
  2
*Paper_Space
 70
0
 10
0.0
 20
0.0
 30
0.0
  3
*Paper_Space
  1

  0
ENDBLK
  5
1D
330
1B
100
AcDbEntity
  8
0
100
AcDbBlockEnd
  0
ENDSEC
  0
SECTION
  2
ENTITIES
  0
LWPOLYLINE
  5
30
330
17
100
AcDbEntity
  8
M
100
AcDbPolyline
 90
45
 70
1
 10
13.390921728818173
 20
36.98147560035514
 10
0.0
 20
53.48100415907731
 10
5.003729945682878
 20
64.44155546866814
 10
3.336598526723966
 20
67.18041422838617
 10
9.230762870463538
 20
79.63033279118348
 10
17.572553411332457
 20
76.88945875632658
 10
22.560518938785634
 20
85.08397355142783
 10
26.006250741994474
 20
85.08397355142783
 10
27.616718173723463
 20
82.4382056278733
 10
30.89385227211916
 20
87.82206878952314
 10
34.31919067458122
 20
87.82206878952314
 10
44.252516437778496
 20
79.66255119832543
 10
55.90133912309714
 20
101.53381011769913
 10
64.22958094039899
 20
98.79738780629998
 10
69.23237418369888
 20
109.75588729162367
 10
75.90903928734183
 20
107.01368555262746
 10
78.33298270690148
 20
110.99587831333268
 10
73.33298270690159
 20
119.21016402761842
 10
75.89385227211909
 20
123.41730688476116
 10
80.89385227211898
 20
123.41730688476116
 10
83.33298270690138
 20
127.42444974190403
 10
79.99964937356796
 20
132.90064021809457
 10
84.22718560545239
 20
139.8458783133326
 10
87.55418763050882
 20
139.8458783133326
 10
94.27362308746523
 20
153.64471898386867
 10
95.95005150705683
 20
150.89058658025434
 10
97.56051893878559
 20
153.53635450380887
 10
102.66696065583791
 20
153.53635450380887
 10
111.88338484038995
 20
141.1480440739239
 10
111.88338484038995
 20
69.88997105449835
 10
104.35535720168265
 20
60.27082462726119
 10
100.98585734124788
 20
57.50302117047556
 10
85.89385227211888
 20
57.50302117047556
 10
80.93397513653721
 20
65.65139075035987
 10
75.99415943316457
 20
60.241116408570775
 10
72.6729174086611
 20
60.241116408570775
 10
69.32439706010496
 20
54.73997583594259
 10
62.64341416329899
 20
57.48395095427372
 10
57.671885568189694
 20
52.03894344534454
 10
39.34158001769128
 20
46.56365737181889
 10
32.6309741585269
 20
38.295232295348924
 10
29.247579006198787
 20
41.074449741904104
 10
22.660826099831112
 20
41.074449741904104
 10
17.646953286034382
 20
35.58306523155541
 10
13.390921728818173
 20
36.98147560035514
  0
LWPOLYLINE
  5
31
330
17
100
AcDbEntity
  8
M
100
AcDbPolyline
 90
8
 70
1
 10
100.00259387753086
 20
171.23881095079528
 10
102.61671817372343
 20
175.53344372311142
 10
105.97558238561811
 20
170.0153096607129
 10
109.30891571895151
 20
172.75340489880807
 10
111.88338484038995
 20
168.5239199135876
 10
111.88338484038995
 20
162.99164623688722
 10
107.6079557976708
 20
155.96772709527684
 10
100.00259387753086
 20
171.23881095079528
  0
LWPOLYLINE
  5
32
330
17
100
AcDbEntity
  8
M
100
AcDbPolyline
 90
186
 70
1
 10
2701.6833848403903
 20
121.9202176654589
 10
2700.005138691258
 20
124.67733633903389
 10
2703.338472024591
 20
132.89162205331962
 10
2698.3521595716315
 20
141.08342108318206
 10
2696.680931819266
 20
163.04812868569496
 10
2708.350051507057
 20
179.4801543685025
 10
2708.350051507057
 20
182.1583129035541
 10
2704.217137696804
 20
188.9480998775407
 10
2695.8921550825708
 20
191.68345130793162
 10
2689.989778900699
 20
198.6097090723732
 10
2700.8988018329305
 20
213.77444974190408
 10
2704.2314189920367
 20
213.77444974190408
 10
2729.2183527729107
 20
249.3510840299108
 10
2735.9910637267717
 20
252.13273317167506
 10
2737.6729174086613
 20
249.3696878371422
 10
2747.560518938786
 20
249.3696878371422
 10
2752.560518938786
 20
257.5839735514279
 10
2755.8977999790036
 20
257.5839735514279
 10
2769.2889737192654
 20
276.8337858030543
 10
2770.9755823856185
 20
274.0629287083318
 10
2774.308915718952
 20
276.80102394642716
 10
2775.950051507057
 20
274.10487229453975
 10
2777.6167181737237
 20
276.84296753263504
 10
2781.006250741995
 20
271.27444974190405
 10
2787.6729174086613
 20
271.27444974190405
 10
2792.6167181737237
 20
263.1524913421588
 10
2794.9996493735684
 20
267.0673068847612
 10
2793.332982706902
 20
269.80540212285644
 10
2794.9996493735684
 20
272.54349736095173
 10
2793.332982706902
 20
275.2815925990469
 10
2795.8785467406838
 20
279.4635906545455
 10
2800.9858038902435
 20
282.2604219507331
 10
2802.6729174086613
 20
279.4887354561898
 10
2806.006250741995
 20
279.4887354561898
 10
2808.567120307212
 20
275.2815925990469
 10
2803.567120307212
 20
267.0673068847612
 10
2806.9004536405455
 20
261.5911164085708
 10
2803.567120307212
 20
256.1149259323803
 10
2805.950051507057
 20
252.20011038977785
 10
2810.893852272119
 20
260.32206878952314
 10
2814.339584075328
 20
260.32206878952314
 10
2817.6167181737237
 20
254.93820562787306
 10
2820.8938522721196
 20
260.32206878952314
 10
2824.339584075328
 20
260.32206878952314
 10
2826.006250741995
 20
257.5839735514279
 10
2832.6729174086618
 20
257.5839735514279
 10
2837.6882229400967
 20
249.3445430354979
 10
2842.580965790537
 20
246.6651838554951
 10
2847.6167181737237
 20
254.93820562787306
 10
2850.9500515070567
 20
249.46201515168264
 10
2852.5605189387857
 20
252.1077830752374
 10
2857.672917408661
 20
252.1077830752374
 10
2859.28338484039
 20
249.46201515168275
 10
2862.560518938786
 20
254.8458783133326
 10
2874.247579006199
 20
254.8458783133326
 10
2877.6343216393084
 20
257.627845476244
 10
2886.8972054883325
 20
245.17708601684117
 10
2883.561630989523
 20
236.95727743048877
 10
2886.0062507419943
 20
232.94111640857074
 10
2889.3395840753283
 20
232.94111640857074
 10
2892.679494181021
 20
227.45412123493202
 10
2906.001993148016
 20
224.71825091135267
 10
2910.994159433165
 20
219.2506402180946
 10
2914.319190674582
 20
219.2506402180946
 10
2920.9245206284954
 20
213.82483347023663
 10
2923.332982706902
 20
217.78159259904695
 10
2919.990131485528
 20
223.27341960558977
 10
2924.3031341523883
 20
227.52480794863806
 10
2926.9004536405455
 20
223.25778307523748
 10
2925.233786973879
 20
220.51968783714216
 10
2927.6729174086613
 20
216.5125449799993
 10
2942.680993798765
 20
216.5125449799993
 10
2947.667728830415
 20
205.589220624957
 10
2954.324397060105
 20
208.32320936215132
 10
2959.28338484039
 20
200.1763008659686
 10
2962.560518938786
 20
205.56016402761833
 10
2966.0062507419943
 20
205.56016402761833
 10
2968.5587603261242
 20
201.36675542512006
 10
2966.8966646703916
 20
195.90558398485726
 10
2975.2327052602013
 20
187.6886296891873
 10
2972.7012853275064
 20
180.75736082585436
 10
2969.3191906745815
 20
177.97921164666596
 10
2959.2271856054526
 20
177.97921164666596
 10
2955.893852272119
 20
183.4554021228565
 10
2952.6729174086613
 20
183.4554021228565
 10
2948.5671203072125
 20
176.71016402761842
 10
2953.5671203072125
 20
168.49587831333267
 10
2951.006250741995
 20
164.28873545618984
 10
2947.560518938786
 20
164.28873545618984
 10
2943.3329827069015
 20
171.23397355142788
 10
2944.9996493735684
 20
173.9720687895231
 10
2942.6167181737237
 20
177.8868843321253
 10
2939.290951468163
 20
172.423124744418
 10
2919.290951468163
 20
199.8040771253704
 10
2916.8858486302624
 20
195.8528367488197
 10
2918.547167212318
 20
176.74767305517958
 10
2926.8833848403897
 20
165.7915013154273
 10
2926.8833848403897
 20
162.99164623688722
 10
2919.339584075328
 20
150.5982592657137
 10
2909.227185605452
 20
150.5982592657137
 10
2907.5605189387857
 20
153.33635450380888
 10
2880.997682037857
 20
153.33635450380888
 10
2874.32720073595
 20
145.1173686139591
 10
2846.0028607454005
 20
147.8545947474995
 10
2844.3395840753283
 20
145.12206878952315
 10
2832.560518938786
 20
145.12206878952315
 10
2830.0051386912573
 20
149.32019348189107
 10
2833.338472024591
 20
157.5344791961768
 10
2830.893852272119
 20
161.55064021809463
 10
2781.006250741995
 20
161.55064021809463
 10
2777.6729174086613
 20
156.0744497419041
 10
2762.6729174086613
 20
156.0744497419041
 10
2755.9500515070567
 20
145.0297414749827
 10
2754.2271856054526
 20
147.86016402761837
 10
2740.994159433165
 20
147.86016402761837
 10
2735.994159433165
 20
142.38397355142794
 10
2731.0062507419943
 20
142.38397355142794
 10
2729.3347369449266
 20
139.63791517053025
 10
2709.3347369449266
 20
142.37601040862558
 10
2706.9087417705528
 20
138.3904469078685
 10
2715.9927804676036
 20
128.89349736095167
 10
2727.5605189387857
 20
128.89349736095167
 10
2729.2271856054526
 20
131.63159259904688
 10
2734.339584075328
 20
131.63159259904688
 10
2735.950051507057
 20
128.98582467549213
 10
2737.560518938786
 20
131.63159259904688
 10
2757.6729174086613
 20
131.63159259904688
 10
2759.3496319839765
 20
128.876990082458
 10
2767.572553411333
 20
126.17517304204084
 10
2769.9996493735684
 20
130.16254497999935
 10
2766.666316040235
 20
135.63873545618975
 10
2770.893852272119
 20
142.58397355142793
 10
2774.339584075328
 20
142.58397355142793
 10
2776.894964322856
 20
138.38584885906002
 10
2773.5616309895227
 20
130.1715631447743
 10
2776.8833848403906
 20
124.71439610406354
 10
2776.8833848403906
 20
119.23820562787313
 10
2779.339584075328
 20
115.20302117047554
 10
2785.9142456728655
 20
115.20302117047554
 10
2792.5809123395325
 20
120.67921164666595
 10
2799.2271856054526
 20
120.67921164666595
 10
2800.8899790452806
 20
123.41094372638362
 10
2824.24258591484
 20
126.1513006549545
 10
2830.964307491861
 20
131.67271480750696
 10
2837.605017409817
 20
123.49041151573992
 10
2842.560518938786
 20
131.63159259904688
 10
2849.3395840753283
 20
131.63159259904688
 10
2851.900453640545
 20
127.42444974190403
 10
2848.5587603261242
 20
121.93452501106927
 10
2850.2254269927907
 20
116.45833453487874
 10
2847.6729174086613
 20
112.26492593238024
 10
2841.0062507419943
 20
112.26492593238024
 10
2838.567120307212
 20
108.25778307523737
 10
2841.0104095404913
 20
104.24380790627875
 10
2862.5649827164943
 20
101.5198783290916
 10
2864.9996493735684
 20
105.51968783714216
 10
2863.323464818861
 20
108.27341960558967
 10
2867.636467485722
 20
112.52480794863796
 10
2870.233786973879
 20
108.25778307523737
 10
2868.5671203072125
 20
105.51968783714216
 10
2870.9500515070567
 20
101.60487229453996
 10
2872.560518938786
 20
104.25064021809449
 10
2879.2271856054526
 20
104.25064021809449
 10
2882.560518938786
 20
109.72683069428501
 10
2890.996219060783
 20
109.72683069428501
 10
2896.8699729525565
 20
102.8341603110815
 10
2900.2282976561896
 20
94.55828871998607
 10
2896.006250741995
 20
87.62206878952317
 10
2889.3395840753283
 20
87.62206878952317
 10
2887.6729174086613
 20
84.88397355142784
 10
2880.893852272119
 20
84.88397355142784
 10
2879.257853961829
 20
87.57168506119062
 10
2875.985857341248
 20
84.88397355142784
 10
2865.893852272119
 20
84.88397355142784
 10
2864.2271856054526
 20
87.62206878952317
 10
2846.006250741995
 20
87.62206878952317
 10
2844.3395840753283
 20
84.88397355142784
 10
2819.2271856054526
 20
84.88397355142784
 10
2817.560518938786
 20
87.62206878952317
 10
2772.672917408661
 20
87.62206878952317
 10
2771.0054968690774
 20
84.88273504592159
 10
2708.371062488956
 20
86.25472741805763
 10
2705.016718173724
 20
100.03149871276185
 10
2705.016718173724
 20
110.96783671307797
 10
2701.6833848403903
 20
116.44402718926838
 10
2701.6833848403903
 20
121.9202176654589
  0
LWPOLYLINE
  5
33
330
17
100
AcDbEntity
  8
M
100
AcDbPolyline
 90
5
 70
1
 10
2875.9500515070567
 20
243.60117004641103
 10
2873.567120307212
 20
239.68635450380881
 10
2875.9500515070567
 20
235.77153896120663
 10
2878.3329827069015
 20
239.68635450380881
 10
2875.9500515070567
 20
243.60117004641103
  0
LWPOLYLINE
  5
34
330
17
100
AcDbEntity
  8
M
100
AcDbPolyline
 90
7
 70
1
 10
2801.9004536405455
 20
236.9482592657136
 10
2803.567120307212
 20
234.21016402761842
 10
2801.9004536405455
 20
231.4720687895231
 10
2804.303134152389
 20
227.52480794863794
 10
2808.3309865101187
 20
231.49511955840075
 10
2804.2685551350723
 20
240.83871172100802
 10
2801.9004536405455
 20
236.9482592657136
  0
LWPOLYLINE
  5
35
330
17
100
AcDbEntity
  8
M
100
AcDbPolyline
 90
5
 70
1
 10
2801.6709978016097
 20
242.4321412070195
 10
2797.601888468406
 20
251.79109267338896
 10
2795.229105212504
 20
247.89294875297918
 10
2799.298214545708
 20
238.53399728660975
 10
2801.6709978016097
 20
242.4321412070195
  0
LWPOLYLINE
  5
36
330
17
100
AcDbEntity
  8
M
100
AcDbPolyline
 90
8
 70
1
 10
2866.006250741995
 20
117.74111640857076
 10
2862.6729174086613
 20
117.74111640857076
 10
2859.28338484039
 20
112.17259861783968
 10
2856.6663160402354
 20
116.47206878952309
 10
2862.560518938786
 20
126.15540212285647
 10
2866.006250741995
 20
126.15540212285647
 10
2868.5671203072125
 20
121.94825926571362
 10
2866.006250741995
 20
117.74111640857076
  0
LWPOLYLINE
  5
37
330
17
100
AcDbEntity
  8
M
100
AcDbPolyline
 90
129
 70
1
 10
3158.3500515070573
 20
58.944027189268276
 10
3158.3500515070573
 20
69.89640814164922
 10
3156.6833848403903
 20
72.63450337974453
 10
3156.6833848403903
 20
86.32497957022068
 10
3153.3329827069024
 20
91.82921164666602
 10
3156.6833848403903
 20
97.33344372311126
 10
3156.6833848403903
 20
102.8011095874919
 10
3163.359185060321
 20
119.25218870089216
 10
3173.33528540371
 20
138.37304769238702
 10
3171.6663160402354
 20
141.1149259323803
 10
3174.2186343719254
 20
145.30802033444257
 10
3184.3296351750087
 20
148.07650864957233
 10
3185.950051507057
 20
145.4143961040636
 10
3189.2271856054526
 20
150.79825926571365
 10
3194.227185605453
 20
150.79825926571365
 10
3195.8938522721196
 20
153.53635450380887
 10
3199.3395840753283
 20
153.53635450380887
 10
3200.950051507057
 20
150.8905865802541
 10
3202.560518938786
 20
153.53635450380887
 10
3207.6729174086618
 20
153.53635450380887
 10
3209.3395840753283
 20
150.79825926571365
 10
3220.9858573412484
 20
150.79825926571365
 10
3227.6525240079154
 20
145.32206878952314
 10
3239.3395840753283
 20
145.32206878952314
 10
3242.6524705569104
 20
139.8794695697807
 10
3247.621405249305
 20
142.6005528537111
 10
3255.9860476894514
 20
137.10378782161482
 10
3275.898699402521
 20
134.37765097994458
 10
3280.016718173724
 20
141.142967532635
 10
3280.016718173724
 20
149.35725324692072
 10
3287.560518938786
 20
161.7506402180946
 10
3290.893852272119
 20
161.7506402180946
 10
3295.924520628496
 20
170.0153096607129
 10
3299.257853961829
 20
167.27721442261756
 10
3305.924520628496
 20
178.2295953749985
 10
3309.257853961829
 20
175.49150013690328
 10
3311.6663160402354
 20
179.4482592657136
 10
3308.332982706902
 20
184.92444974190414
 10
3310.8938522721196
 20
189.131592599047
 10
3327.682282836367
 20
189.131592599047
 10
3331.8897724139097
 20
179.45436657069968
 10
3328.550051507057
 20
168.4809978767563
 10
3328.550051507057
 20
163.04772943739687
 10
3332.6729174086618
 20
156.27444974190408
 10
3336.006250741995
 20
156.27444974190408
 10
3339.2950856042976
 20
150.87136389669243
 10
3345.961752270964
 20
159.08564961097804
 10
3347.616718173724
 20
156.36677705644453
 10
3350.8938522721196
 20
161.7506402180946
 10
3354.2271856054526
 20
161.7506402180946
 10
3355.9058867446665
 20
164.50850637537417
 10
3364.3496319839765
 20
161.73413293960093
 10
3367.616718173724
 20
156.36677705644453
 10
3369.9996493735684
 20
160.28159259904695
 10
3368.3234648188613
 20
163.03532436749447
 10
3372.6364674857223
 20
167.28671271054273
 10
3375.2337869738785
 20
163.01968783714216
 10
3373.567120307212
 20
160.28159259904695
 10
3375.9661278775766
 20
156.34036587630538
 10
3380.966127877577
 20
161.81655635249592
 10
3383.5671203072125
 20
157.54349736095173
 10
3381.9004536405455
 20
154.80540212285644
 10
3384.2833848403907
 20
150.8905865802541
 10
3385.893852272119
 20
153.53635450380887
 10
3389.2271856054526
 20
153.53635450380887
 10
3392.6167181737237
 20
159.10487229453975
 10
3394.2903366586743
 20
156.35535621212182
 10
3405.0032922871223
 20
171.24754178353652
 10
3401.6762330295264
 20
179.44636638261247
 10
3404.2293672374803
 20
186.43709099962936
 10
3409.2476324572035
 20
183.68899337930455
 10
3411.666316040235
 20
187.66254497999935
 10
3409.257853961829
 20
191.61930410880967
 10
3405.9245206284954
 20
188.88120887071446
 10
3400.8938522721196
 20
197.14587831333264
 10
3397.560518938786
 20
197.14587831333264
 10
3395.008009354656
 20
201.33928691583114
 10
3396.674676021323
 20
206.81547739202165
 10
3394.257853961829
 20
210.78597077547633
 10
3390.924520628496
 20
208.04787553738115
 10
3389.2271856054526
 20
210.83635450380888
 10
3385.9013290560442
 20
210.83635450380888
 10
3378.350051507057
 20
220.48520914973645
 10
3378.350051507057
 20
231.5001103897778
 10
3382.560518938786
 20
238.41730688476127
 10
3386.006250741995
 20
238.41730688476127
 10
3387.6069564207987
 20
235.78757612672575
 10
3394.199799877625
 20
249.32645108270756
 10
3399.2392769142825
 20
254.8458783133326
 10
3402.560518938786
 20
254.8458783133326
 10
3405.950051507057
 20
260.4143961040636
 10
3410.9755823856185
 20
252.15816680356994
 10
3417.6422490522855
 20
257.6343572797605
 10
3420.950051507057
 20
252.20011038977785
 10
3422.560518938786
 20
254.8458783133326
 10
3425.8938522721196
 20
254.8458783133326
 10
3432.5911872951624
 20
265.8486429940462
 10
3435.924520628496
 20
263.1105477559509
 10
3439.2578539618294
 20
268.5867382321414
 10
3442.591187295163
 20
265.8486429940462
 10
3444.294402620588
 20
268.6467824572445
 10
3450.213374385984
 20
256.14446454462137
 10
3453.5458968649664
 20
234.2450311113079
 10
3455.216718173724
 20
231.5001103897778
 10
3455.216718173724
 20
223.27266351181385
 10
3458.558760326124
 20
212.29166786821207
 10
3447.6933108094076
 20
194.4412865193208
 10
3437.697065189621
 20
186.2300847602102
 10
3431.0125820502717
 20
172.50302117047556
 10
3429.2271856054526
 20
172.50302117047556
 10
3422.6167181737237
 20
183.36307480831604
 10
3420.2337869738785
 20
179.4482592657136
 10
3421.9004536405455
 20
176.71016402761842
 10
3418.550051507057
 20
171.20593195117317
 10
3418.550051507057
 20
168.5239199135874
 10
3426.006250741995
 20
156.27444974190408
 10
3430.99877395807
 20
156.27444974190408
 10
3438.5747630659225
 20
146.59401921520433
 10
3426.885563002287
 20
130.13371708477916
 10
3428.548174912361
 20
105.55081241439734
 10
3431.8805870169467
 20
100.0761353854358
 10
3433.5472536836132
 20
83.64756395686435
 10
3435.2167181737236
 20
80.90487229453991
 10
3435.2167181737236
 20
69.95249134215886
 10
3436.8833848403906
 20
67.21439610406365
 10
3436.8833848403906
 20
58.944027189268276
 10
3434.339413018032
 20
54.764644909679475
 10
3160.060348360853
 20
56.13425378660419
 10
3158.3500515070573
 20
58.944027189268276
  0
LWPOLYLINE
  5
38
330
17
100
AcDbEntity
  8
M
100
AcDbPolyline
 90
5
 70
1
 10
3378.332982706902
 20
149.329211646666
 10
3375.950051507057
 20
153.24402718926845
 10
3373.567120307212
 20
149.329211646666
 10
3375.950051507057
 20
145.4143961040636
 10
3378.332982706902
 20
149.329211646666
  0
LWPOLYLINE
  5
39
330
17
100
AcDbEntity
  8
M
100
AcDbPolyline
 90
12
 70
1
 10
4630.015145765392
 20
1.3773113319704988
 10
4630.853472089096
 20
52.335575722838755
 10
4637.658830560282
 20
46.74545983579292
 10
4656.011128030635
 20
44.00453229151946
 10
4658.567120307212
 20
39.805402122856435
 10
4653.561630989523
 20
31.582098243795762
 10
4656.88338484039
 20
23.39634768272991
 10
4656.88338484039
 20
15.190586580254184
 10
4658.550051507056
 20
12.452491342158867
 10
4658.550051507056
 20
4.182122427363599
 10
4656.004411768661
 20
0.0
 10
4630.015145765392
 20
1.3773113319704988
  0
ENDSEC
  0
SECTION
  2
OBJECTS
  0
DICTIONARY
  5
A
330
0
100
AcDbDictionary
281
1
  3
ACAD_COLOR
350
B
  3
ACAD_GROUP
350
C
  3
ACAD_LAYOUT
350
D
  3
ACAD_MATERIAL
350
E
  3
ACAD_MLEADERSTYLE
350
F
  3
ACAD_MLINESTYLE
350
10
  3
ACAD_PLOTSETTINGS
350
11
  3
ACAD_PLOTSTYLENAME
350
12
  3
ACAD_SCALELIST
350
14
  3
ACAD_TABLESTYLE
350
15
  3
ACAD_VISUALSTYLE
350
16
  3
EZDXF_META
350
2D
  0
DICTIONARY
  5
B
330
A
100
AcDbDictionary
281
1
  0
DICTIONARY
  5
C
330
A
100
AcDbDictionary
281
1
  0
DICTIONARY
  5
D
330
A
100
AcDbDictionary
281
1
  3
Model
350
1A
  3
Layout1
350
1E
  0
DICTIONARY
  5
E
330
A
100
AcDbDictionary
281
1
  3
ByBlock
350
1F
  3
ByLayer
350
20
  3
Global
350
21
  0
DICTIONARY
  5
F
330
A
100
AcDbDictionary
281
1
  3
Standard
350
2C
  0
DICTIONARY
  5
10
330
A
100
AcDbDictionary
281
1
  3
Standard
350
22
  0
DICTIONARY
  5
11
330
A
100
AcDbDictionary
281
1
  0
ACDBDICTIONARYWDFLT
  5
12
330
A
100
AcDbDictionary
281
1
  3
Normal
350
13
100
AcDbDictionaryWithDefault
340
13
  0
ACDBPLACEHOLDER
  5
13
330
12
  0
DICTIONARY
  5
14
330
A
100
AcDbDictionary
281
1
  0
DICTIONARY
  5
15
330
A
100
AcDbDictionary
281
1
  0
DICTIONARY
  5
16
330
A
100
AcDbDictionary
281
1
  0
LAYOUT
  5
1A
330
D
100
AcDbPlotSettings
  1

  4
A3
  6

 40
7.5
 41
20.0
 42
7.5
 43
20.0
 44
420.0
 45
297.0
 46
0.0
 47
0.0
 48
0.0
 49
0.0
140
0.0
141
0.0
142
1.0
143
1.0
 70
1024
 72
1
 73
0
 74
5
  7

 75
16
 76
0
 77
2
 78
300
147
1.0
148
0.0
149
0.0
100
AcDbLayout
  1
Model
 70
1
 71
0
 10
0.0
 20
0.0
 11
420.0
 21
297.0
 12
0.0
 22
0.0
 32
0.0
 14
1e+20
 24
1e+20
 34
1e+20
 15
-1e+20
 25
-1e+20
 35
-1e+20
146
0.0
 13
0.0
 23
0.0
 33
0.0
 16
1.0
 26
0.0
 36
0.0
 17
0.0
 27
1.0
 37
0.0
 76
1
330
17
  0
LAYOUT
  5
1E
330
D
100
AcDbPlotSettings
  1

  4
A3
  6

 40
7.5
 41
20.0
 42
7.5
 43
20.0
 44
420.0
 45
297.0
 46
0.0
 47
0.0
 48
0.0
 49
0.0
140
0.0
141
0.0
142
1.0
143
1.0
 70
0
 72
1
 73
0
 74
5
  7

 75
16
 76
0
 77
2
 78
300
147
1.0
148
0.0
149
0.0
100
AcDbLayout
  1
Layout1
 70
1
 71
1
 10
0.0
 20
0.0
 11
420.0
 21
297.0
 12
0.0
 22
0.0
 32
0.0
 14
1e+20
 24
1e+20
 34
1e+20
 15
-1e+20
 25
-1e+20
 35
-1e+20
146
0.0
 13
0.0
 23
0.0
 33
0.0
 16
1.0
 26
0.0
 36
0.0
 17
0.0
 27
1.0
 37
0.0
 76
1
330
1B
  0
MATERIAL
  5
1F
102
{ACAD_REACTORS
330
E
102
}
330
E
100
AcDbMaterial
  1
ByBlock
  2

 70
0
 40
1.0
 71
1
 41
1.0
 91
-1023410177
 42
1.0
 72
1
  3

 73
1
 74
1
 75
1
 44
0.5
 73
0
 45
1.0
 46
1.0
 77
1
  4

 78
1
 79
1
170
1
 48
1.0
171
1
  6

172
1
173
1
174
1
140
1.0
141
1.0
175
1
  7

176
1
177
1
178
1
143
1.0
179
1
  8

270
1
271
1
272
1
145
1.0
146
1.0
273
1
  9

274
1
275
1
276
1
 42
1.0
 72
1
  3

 73
1
 74
1
 75
1
 94
63
  0
MATERIAL
  5
20
102
{ACAD_REACTORS
330
E
102
}
330
E
100
AcDbMaterial
  1
ByLayer
  2

 70
0
 40
1.0
 71
1
 41
1.0
 91
-1023410177
 42
1.0
 72
1
  3

 73
1
 74
1
 75
1
 44
0.5
 73
0
 45
1.0
 46
1.0
 77
1
  4

 78
1
 79
1
170
1
 48
1.0
171
1
  6

172
1
173
1
174
1
140
1.0
141
1.0
175
1
  7

176
1
177
1
178
1
143
1.0
179
1
  8

270
1
271
1
272
1
145
1.0
146
1.0
273
1
  9

274
1
275
1
276
1
 42
1.0
 72
1
  3

 73
1
 74
1
 75
1
 94
63
  0
MATERIAL
  5
21
102
{ACAD_REACTORS
330
E
102
}
330
E
100
AcDbMaterial
  1
Global
  2

 70
0
 40
1.0
 71
1
 41
1.0
 91
-1023410177
 42
1.0
 72
1
  3

 73
1
 74
1
 75
1
 44
0.5
 73
0
 45
1.0
 46
1.0
 77
1
  4

 78
1
 79
1
170
1
 48
1.0
171
1
  6

172
1
173
1
174
1
140
1.0
141
1.0
175
1
  7

176
1
177
1
178
1
143
1.0
179
1
  8

270
1
271
1
272
1
145
1.0
146
1.0
273
1
  9

274
1
275
1
276
1
 42
1.0
 72
1
  3

 73
1
 74
1
 75
1
 94
63
  0
MLINESTYLE
  5
22
102
{ACAD_REACTORS
330
10
102
}
330
10
100
AcDbMlineStyle
  2
Standard
 70
0
  3

 62
256
 51
90.0
 52
90.0
 71
2
 49
0.5
 62
256
  6
BYLAYER
 49
-0.5
 62
256
  6
BYLAYER
  0
MLEADERSTYLE
  5
2C
102
{ACAD_REACTORS
330
F
102
}
330
F
100
AcDbMLeaderStyle
179
2
170
2
171
1
172
0
 90
2
 40
0.0
 41
0.0
173
1
 91
-1056964608
 92
-2
290
1
 42
2.0
291
1
 43
8.0
  3
Standard
 44
4.0
300

342
29
174
1
175
1
176
0
178
1
 93
-1056964608
 45
4.0
292
0
297
0
 46
4.0
 94
-1056964608
 47
1.0
 49
1.0
140
1.0
294
1
141
0.0
177
0
142
1.0
295
0
296
0
143
3.75
271
0
272
9
273
9
  0
DICTIONARY
  5
2D
330
A
100
AcDbDictionary
280
1
281
1
  3
CREATED_BY_EZDXF
350
2E
  3
WRITTEN_BY_EZDXF
350
3C
  0
DICTIONARYVAR
  5
2E
330
2D
100
DictionaryVariables
280
0
  1
1.4.4 @ 2026-07-21T16:54:33.560673+00:00
  0
DICTIONARYVAR
  5
3C
330
2D
100
DictionaryVariables
280
0
  1
1.4.4 @ 2026-07-21T16:54:33.563513+00:00
  0
ENDSEC
  0
EOF
