  0
SECTION
  2
HEADER
  9
$ACADVER
  1
AC1027
  9
$ACADMAINTVER
 70
105
  9
$DWGCODEPAGE
  3
ANSI_1252
  9
$LASTSAVEDBY
  1
ezdxf
  9
$REQUIREDVERSIONS
160
0
  9
$INSBASE
 10
0.0
 20
0.0
 30
0.0
  9
$EXTMIN
 10
1e+20
 20
1e+20
 30
1e+20
  9
$EXTMAX
 10
-1e+20
 20
-1e+20
 30
-1e+20
  9
$LIMMIN
 10
0.0
 20
0.0
  9
$LIMMAX
 10
420.0
 20
297.0
  9
$ORTHOMODE
 70
0
  9
$REGENMODE
 70
1
  9
$FILLMODE
 70
1
  9
$QTEXTMODE
 70
0
  9
$MIRRTEXT
 70
1
  9
$LTSCALE
 40
1.0
  9
$ATTMODE
 70
1
  9
$TEXTSIZE
 40
2.5
  9
$TRACEWID
 40
1.0
  9
$TEXTSTYLE
  7
Standard
  9
$CLAYER
  8
0
  9
$CELTYPE
  6
ByLayer
  9
$CECOLOR
 62
256
  9
$CELTSCALE
 40
1.0
  9
$DISPSILH
 70
0
  9
$DIMSCALE
 40
1.0
  9
$DIMASZ
 40
2.5
  9
$DIMEXO
 40
0.625
  9
$DIMDLI
 40
3.75
  9
$DIMRND
 40
0.0
  9
$DIMDLE
 40
0.0
  9
$DIMEXE
 40
1.25
  9
$DIMTP
 40
0.0
  9
$DIMTM
 40
0.0
  9
$DIMTXT
 40
2.5
  9
$DIMCEN
 40
2.5
  9
$DIMTSZ
 40
0.0
  9
$DIMTOL
 70
0
  9
$DIMLIM
 70
0
  9
$DIMTIH
 70
0
  9
$DIMTOH
 70
0
  9
$DIMSE1
 70
0
  9
$DIMSE2
 70
0
  9
$DIMTAD
 70
1
  9
$DIMZIN
 70
8
  9
$DIMBLK
  1

  9
$DIMASO
 70
1
  9
$DIMSHO
 70
1
  9
$DIMPOST
  1

  9
$DIMAPOST
  1

  9
$DIMALT
 70
0
  9
$DIMALTD
 70
3
  9
$DIMALTF
 40
0.03937007874
  9
$DIMLFAC
 40
1.0
  9
$DIMTOFL
 70
1
  9
$DIMTVP
 40
0.0
  9
$DIMTIX
 70
0
  9
$DIMSOXD
 70
0
  9
$DIMSAH
 70
0
  9
$DIMBLK1
  1

  9
$DIMBLK2
  1

  9
$DIMSTYLE
  2
ISO-25
  9
$DIMCLRD
 70
0
  9
$DIMCLRE
 70
0
  9
$DIMCLRT
 70
0
  9
$DIMTFAC
 40
1.0
  9
$DIMGAP
 40
0.625
  9
$DIMJUST
 70
0
  9
$DIMSD1
 70
0
  9
$DIMSD2
 70
0
  9
$DIMTOLJ
 70
0
  9
$DIMTZIN
 70
8
  9
$DIMALTZ
 70
0
  9
$DIMALTTZ
 70
0
  9
$DIMUPT
 70
0
  9
$DIMDEC
 70
2
  9
$DIMTDEC
 70
2
  9
$DIMALTU
 70
2
  9
$DIMALTTD
 70
3
  9
$DIMTXSTY
  7
Standard
  9
$DIMAUNIT
 70
0
  9
$DIMADEC
 70
0
  9
$DIMALTRND
 40
0.0
  9
$DIMAZIN
 70
0
  9
$DIMDSEP
 70
44
  9
$DIMATFIT
 70
3
  9
$DIMFRAC
 70
0
  9
$DIMLDRBLK
  1

  9
$DIMLUNIT
 70
2
  9
$DIMLWD
 70
-2
  9
$DIMLWE
 70
-2
  9
$DIMTMOVE
 70
0
  9
$DIMFXL
 40
1.0
  9
$DIMFXLON
 70
0
  9
$DIMJOGANG
 40
0.785398163397
  9
$DIMTFILL
 70
0
  9
$DIMTFILLCLR
 70
0
  9
$DIMARCSYM
 70
0
  9
$DIMLTYPE
  6

  9
$DIMLTEX1
  6

  9
$DIMLTEX2
  6

  9
$DIMTXTDIRECTION
 70
0
  9
$LUNITS
 70
2
  9
$LUPREC
 70
4
  9
$SKETCHINC
 40
1.0
  9
$FILLETRAD
 40
10.0
  9
$AUNITS
 70
0
  9
$AUPREC
 70
2
  9
$MENU
  1
.
  9
$ELEVATION
 40
0.0
  9
$PELEVATION
 40
0.0
  9
$THICKNESS
 40
0.0
  9
$LIMCHECK
 70
0
  9
$CHAMFERA
 40
0.0
  9
$CHAMFERB
 40
0.0
  9
$CHAMFERC
 40
0.0
  9
$CHAMFERD
 40
0.0
  9
$SKPOLY
 70
0
  9
$TDCREATE
 40
2461245.8664930556
  9
$TDUCREATE
 40
2458532.153996898
  9
$TDUPDATE
 40
2461245.8664930556
  9
$TDUUPDATE
 40
2458532.1544311
  9
$TDINDWG
 40
0.0
  9
$TDUSRTIMER
 40
0.0
  9
$USRTIMER
 70
1
  9
$ANGBASE
 50
0.0
  9
$ANGDIR
 70
0
  9
$PDMODE
 70
0
  9
$PDSIZE
 40
0.0
  9
$PLINEWID
 40
0.0
  9
$SPLFRAME
 70
0
  9
$SPLINETYPE
 70
6
  9
$SPLINESEGS
 70
8
  9
$HANDSEED
  5
46
  9
$SURFTAB1
 70
6
  9
$SURFTAB2
 70
6
  9
$SURFTYPE
 70
6
  9
$SURFU
 70
6
  9
$SURFV
 70
6
  9
$UCSBASE
  2

  9
$UCSNAME
  2

  9
$UCSORG
 10
0.0
 20
0.0
 30
0.0
  9
$UCSXDIR
 10
1.0
 20
0.0
 30
0.0
  9
$UCSYDIR
 10
0.0
 20
1.0
 30
0.0
  9
$UCSORTHOREF
  2

  9
$UCSORTHOVIEW
 70
0
  9
$UCSORGTOP
 10
0.0
 20
0.0
 30
0.0
  9
$UCSORGBOTTOM
 10
0.0
 20
0.0
 30
0.0
  9
$UCSORGLEFT
 10
0.0
 20
0.0
 30
0.0
  9
$UCSORGRIGHT
 10
0.0
 20
0.0
 30
0.0
  9
$UCSORGFRONT
 10
0.0
 20
0.0
 30
0.0
  9
$UCSORGBACK
 10
0.0
 20
0.0
 30
0.0
  9
$PUCSBASE
  2

  9
$PUCSNAME
  2

  9
$PUCSORG
 10
0.0
 20
0.0
 30
0.0
  9
$PUCSXDIR
 10
1.0
 20
0.0
 30
0.0
  9
$PUCSYDIR
 10
0.0
 20
1.0
 30
0.0
  9
$PUCSORTHOREF
  2

  9
$PUCSORTHOVIEW
 70
0
  9
$PUCSORGTOP
 10
0.0
 20
0.0
 30
0.0
  9
$PUCSORGBOTTOM
 10
0.0
 20
0.0
 30
0.0
  9
$PUCSORGLEFT
 10
0.0
 20
0.0
 30
0.0
  9
$PUCSORGRIGHT
 10
0.0
 20
0.0
 30
0.0
  9
$PUCSORGFRONT
 10
0.0
 20
0.0
 30
0.0
  9
$PUCSORGBACK
 10
0.0
 20
0.0
 30
0.0
  9
$USERI1
 70
0
  9
$USERI2
 70
0
  9
$USERI3
 70
0
  9
$USERI4
 70
0
  9
$USERI5
 70
0
  9
$USERR1
 40
0.0
  9
$USERR2
 40
0.0
  9
$USERR3
 40
0.0
  9
$USERR4
 40
0.0
  9
$USERR5
 40
0.0
  9
$WORLDVIEW
 70
1
  9
$SHADEDGE
 70
3
  9
$SHADEDIF
 70
70
  9
$TILEMODE
 70
1
  9
$MAXACTVP
 70
64
  9
$PINSBASE
 10
0.0
 20
0.0
 30
0.0
  9
$PLIMCHECK
 70
0
  9
$PEXTMIN
 10
1e+20
 20
1e+20
 30
1e+20
  9
$PEXTMAX
 10
-1e+20
 20
-1e+20
 30
-1e+20
  9
$PLIMMIN
 10
0.0
 20
0.0
  9
$PLIMMAX
 10
420.0
 20
297.0
  9
$UNITMODE
 70
0
  9
$VISRETAIN
 70
1
  9
$PLINEGEN
 70
0
  9
$PSLTSCALE
 70
1
  9
$TREEDEPTH
 70
3020
  9
$CMLSTYLE
  2
Standard
  9
$CMLJUST
 70
0
  9
$CMLSCALE
 40
20.0
  9
$PROXYGRAPHICS
 70
1
  9
$MEASUREMENT
 70
1
  9
$CELWEIGHT
370
-1
  9
$ENDCAPS
280
0
  9
$JOINSTYLE
280
0
  9
$LWDISPLAY
290
0
  9
$INSUNITS
 70
4
  9
$HYPERLINKBASE
  1

  9
$STYLESHEET
  1

  9
$XEDIT
290
1
  9
$CEPSNTYPE
380
0
  9
$PSTYLEMODE
290
1
  9
$FINGERPRINTGUID
  2
{949A4A3E-E6CA-4D10-BC17-F182380CAB0B}
  9
$VERSIONGUID
  2
{339FED40-702F-491C-ACDE-EFB235481300}
  9
$EXTNAMES
290
1
  9
$PSVPSCALE
 40
0.0
  9
$OLESTARTUP
290
0
  9
$SORTENTS
280
127
  9
$INDEXCTL
280
0
  9
$HIDETEXT
280
1
  9
$XCLIPFRAME
280
1
  9
$HALOGAP
280
0
  9
$OBSCOLOR
 70
257
  9
$OBSLTYPE
280
0
  9
$INTERSECTIONDISPLAY
280
0
  9
$INTERSECTIONCOLOR
 70
257
  9
$DIMASSOC
280
2
  9
$PROJECTNAME
  1

  9
$CAMERADISPLAY
290
0
  9
$LENSLENGTH
 40
50.0
  9
$CAMERAHEIGHT
 40
0.0
  9
$STEPSPERSEC
 40
24.0
  9
$STEPSIZE
 40
100.0
  9
$3DDWFPREC
 40
2.0
  9
$PSOLWIDTH
 40
0.005
  9
$PSOLHEIGHT
 40
0.08
  9
$LOFTANG1
 40
1.570796326795
  9
$LOFTANG2
 40
1.570796326795
  9
$LOFTMAG1
 40
0.0
  9
$LOFTMAG2
 40
0.0
  9
$LOFTPARAM
 70
7
  9
$LOFTNORMALS
280
1
  9
$LATITUDE
 40
37.795
  9
$LONGITUDE
 40
-122.394
  9
$NORTHDIRECTION
 40
0.0
  9
$TIMEZONE
 70
-8000
  9
$LIGHTGLYPHDISPLAY
280
1
  9
$TILEMODELIGHTSYNCH
280
1
  9
$CMATERIAL
347
20
  9
$SOLIDHIST
280
0
  9
$SHOWHIST
280
1
  9
$DWFFRAME
280
2
  9
$DGNFRAME
280
2
  9
$REALWORLDSCALE
290
1
  9
$INTERFERECOLOR
 62
256
  9
$CSHADOW
280
0
  9
$SHADOWPLANELOCATION
 40
0.0
  0
ENDSEC
  0
SECTION
  2
CLASSES
  0
CLASS
  1
ACDBDICTIONARYWDFLT
  2
AcDbDictionaryWithDefault
  3
ObjectDBX Classes
 90
0
 91
0
280
0
281
0
  0
CLASS
  1
SUN
  2
AcDbSun
  3
SCENEOE
 90
1153
 91
0
280
0
281
0
  0
CLASS
  1
VISUALSTYLE
  2
AcDbVisualStyle
  3
ObjectDBX Classes
 90
4095
 91
0
280
0
281
0
  0
CLASS
  1
MATERIAL
  2
AcDbMaterial
  3
ObjectDBX Classes
 90
1153
 91
0
280
0
281
0
  0
CLASS
  1
SCALE
  2
AcDbScale
  3
ObjectDBX Classes
 90
1153
 91
0
280
0
281
0
  0
CLASS
  1
TABLESTYLE
  2
AcDbTableStyle
  3
ObjectDBX Classes
 90
4095
 91
0
280
0
281
0
  0
CLASS
  1
MLEADERSTYLE
  2
AcDbMLeaderStyle
  3
ACDB_MLEADERSTYLE_CLASS
 90
4095
 91
0
280
0
281
0
  0
CLASS
  1
DICTIONARYVAR
  2
AcDbDictionaryVar
  3
ObjectDBX Classes
 90
0
 91
0
280
0
281
0
  0
CLASS
  1
CELLSTYLEMAP
  2
AcDbCellStyleMap
  3
ObjectDBX Classes
 90
1152
 91
0
280
0
281
0
  0
CLASS
  1
MENTALRAYRENDERSETTINGS
  2
AcDbMentalRayRenderSettings
  3
SCENEOE
 90
1024
 91
0
280
0
281
0
  0
CLASS
  1
ACDBDETAILVIEWSTYLE
  2
AcDbDetailViewStyle
  3
ObjectDBX Classes
 90
1025
 91
0
280
0
281
0
  0
CLASS
  1
ACDBSECTIONVIEWSTYLE
  2
AcDbSectionViewStyle
  3
ObjectDBX Classes
 90
1025
 91
0
280
0
281
0
  0
CLASS
  1
RASTERVARIABLES
  2
AcDbRasterVariables
  3
ISM
 90
0
 91
0
280
0
281
0
  0
CLASS
  1
LAYOUT
  2
AcDbLayout
  3
ObjectDBX Classes
 90
0
 91
0
280
0
281
0
  0
CLASS
  1
ACDBPLACEHOLDER
  2
AcDbPlaceHolder
  3
ObjectDBX Classes
 90
0
 91
0
280
0
281
0
  0
ENDSEC
  0
SECTION
  2
TABLES
  0
TABLE
  2
VPORT
  5
8
330
0
100
AcDbSymbolTable
 70
1
  0
VPORT
  5
23
330
8
100
AcDbSymbolTableRecord
100
AcDbViewportTableRecord
  2
*Active
 70
0
 10
0.0
 20
0.0
 11
1.0
 21
1.0
 12
0.0
 22
0.0
 13
0.0
 23
0.0
 14
0.5
 24
0.5
 15
0.5
 25
0.5
 16
0.0
 26
0.0
 36
1.0
 17
0.0
 27
0.0
 37
0.0
 40
1000.0
 41
1.34
 42
50.0
 43
0.0
 44
0.0
 50
0.0
 51
0.0
 71
0
 72
1000
 73
1
 74
3
 75
0
 76
0
 77
0
 78
0
281
0
 65
0
146
0.0
  0
ENDTAB
  0
TABLE
  2
LTYPE
  5
2
330
0
100
AcDbSymbolTable
 70
3
  0
LTYPE
  5
24
330
2
100
AcDbSymbolTableRecord
100
AcDbLinetypeTableRecord
  2
ByBlock
 70
0
  3

 72
65
 73
0
 40
0.0
  0
LTYPE
  5
25
330
2
100
AcDbSymbolTableRecord
100
AcDbLinetypeTableRecord
  2
ByLayer
 70
0
  3

 72
65
 73
0
 40
0.0
  0
LTYPE
  5
26
330
2
100
AcDbSymbolTableRecord
100
AcDbLinetypeTableRecord
  2
Continuous
 70
0
  3

 72
65
 73
0
 40
0.0
  0
ENDTAB
  0
TABLE
  2
LAYER
  5
1
330
0
100
AcDbSymbolTable
 70
3
  0
LAYER
  5
27
330
1
100
AcDbSymbolTableRecord
100
AcDbLayerTableRecord
  2
0
 70
0
 62
7
  6
Continuous
370
-3
390
13
347
21
  0
LAYER
  5
28
330
1
100
AcDbSymbolTableRecord
100
AcDbLayerTableRecord
  2
Defpoints
 70
0
 62
7
  6
Continuous
290
0
370
-3
390
13
347
21
  0
LAYER
  5
2F
330
1
100
AcDbSymbolTableRecord
100
AcDbLayerTableRecord
  2
C
 70
0
 62
7
  6
Continuous
370
-3
390
13
347
21
  0
ENDTAB
  0
TABLE
  2
STYLE
  5
5
330
0
100
AcDbSymbolTable
 70
1
  0
STYLE
  5
29
330
5
100
AcDbSymbolTableRecord
100
AcDbTextStyleTableRecord
  2
Standard
 70
0
 40
0.0
 41
1.0
 50
0.0
 71
0
 42
2.5
  3
txt
  4

  0
ENDTAB
  0
TABLE
  2
VIEW
  5
7
330
0
100
AcDbSymbolTable
 70
0
  0
ENDTAB
  0
TABLE
  2
UCS
  5
6
330
0
100
AcDbSymbolTable
 70
0
  0
ENDTAB
  0
TABLE
  2
APPID
  5
3
330
0
100
AcDbSymbolTable
 70
3
  0
APPID
  5
2A
330
3
100
AcDbSymbolTableRecord
100
AcDbRegAppTableRecord
  2
ACAD
 70
0
  0
APPID
  5
43
330
3
100
AcDbSymbolTableRecord
100
AcDbRegAppTableRecord
  2
HATCHBACKGROUNDCOLOR
 70
0
  0
APPID
  5
44
330
3
100
AcDbSymbolTableRecord
100
AcDbRegAppTableRecord
  2
EZDXF
 70
0
  0
ENDTAB
  0
TABLE
  2
DIMSTYLE
  5
4
330
0
100
AcDbSymbolTable
 70
1
100
AcDbDimStyleTable
  0
DIMSTYLE
105
2B
330
4
100
AcDbSymbolTableRecord
100
AcDbDimStyleTableRecord
  2
Standard
 70
0
 40
1.0
 41
2.5
 42
0.625
 43
3.75
 44
1.25
 45
0.0
 46
0.0
 47
0.0
 48
0.0
 49
2.5
140
2.5
141
2.5
142
0.0
143
0.03937007874
144
1.0
145
0.0
146
1.0
147
0.625
148
0.0
 69
0
 70
0
 71
0
 72
0
 73
0
 74
0
 75
0
 76
0
 77
1
 78
8
 79
3
170
0
171
3
172
1
173
0
174
0
175
0
176
0
177
0
178
0
179
2
271
2
272
2
273
2
274
3
275
0
276
0
277
2
278
44
279
0
280
0
281
0
282
0
283
0
284
8
285
0
286
0
288
0
289
3
290
0
371
-2
372
-2
  0
ENDTAB
  0
TABLE
  2
BLOCK_RECORD
  5
9
330
0
100
AcDbSymbolTable
 70
2
  0
BLOCK_RECORD
  5
17
330
9
100
AcDbSymbolTableRecord
100
AcDbBlockTableRecord
  2
*Model_Space
340
1A
 70
0
280
1
281
0
  0
BLOCK_RECORD
  5
1B
330
9
100
AcDbSymbolTableRecord
100
AcDbBlockTableRecord
  2
*Paper_Space
340
1E
 70
0
280
1
281
0
  0
ENDTAB
  0
ENDSEC
  0
SECTION
  2
BLOCKS
  0
BLOCK
  5
18
330
17
100
AcDbEntity
  8
0
100
AcDbBlockBegin
  2
*Model_Space
 70
0
 10
0.0
 20
0.0
 30
0.0
  3
*Model_Space
  1

  0
ENDBLK
  5
19
330
17
100
AcDbEntity
  8
0
100
AcDbBlockEnd
  0
BLOCK
  5
1C
330
1B
100
AcDbEntity
  8
0
100
AcDbBlockBegin
  2
*Paper_Space
 70
0
 10
0.0
 20
0.0
 30
0.0
  3
*Paper_Space
  1

  0
ENDBLK
  5
1D
330
1B
100
AcDbEntity
  8
0
100
AcDbBlockEnd
  0
ENDSEC
  0
SECTION
  2
ENTITIES
  0
LWPOLYLINE
  5
30
330
17
100
AcDbEntity
  8
C
100
AcDbPolyline
 90
42
 70
1
 10
105.40046743056064
 20
1.4514100260195617
 10
95.29081929730366
 20
12.212228070856867
 10
95.29081929730366
 20
16.563791678315233
 10
99.32196362565082
 20
23.715113870417248
 10
100.66643100292816
 20
30.8704414463139
 10
104.06318264227087
 20
34.48598037038675
 10
110.77380371954581
 20
35.91455179895819
 10
114.80835994292792
 20
40.20897677193658
 10
118.83473258929288
 20
40.20897677193658
 10
124.81755203731315
 20
46.57715404444473
 10
124.81755203731315
 20
50.862868330159074
 10
128.81824400041242
 20
55.1212478208094
 10
126.1648884631319
 20
59.35763801489691
 10
124.82466688111771
 20
66.49036924041629
 10
122.1333036064034
 20
69.35508521371403
 10
122.1333036064034
 20
72.2231027710708
 10
119.4202619467406
 20
76.5547887896455
 10
129.5759067009945
 20
85.92326248622217
 10
133.59809895929774
 20
85.92326248622217
 10
134.94022317475273
 20
87.35183391479373
 10
144.33509268293764
 20
87.35183391479373
 10
145.67721689839263
 20
88.78040534336506
 10
156.4142106220323
 20
88.78040534336506
 10
157.7563348374873
 20
90.20897677193662
 10
165.9129484155828
 20
90.20897677193662
 10
169.3048212821966
 20
83.71035414116356
 10
170.64753313410662
 20
72.27677882016359
 10
174.67614800914765
 20
62.27120996483626
 10
174.67614800914765
 20
59.434296901587636
 10
177.36039644005763
 20
56.57715404444475
 10
177.36039644005763
 20
45.086659411131215
 10
176.003566193325
 20
42.19821003873636
 10
167.25926552542725
 20
31.458755185277965
 10
161.846724194735
 20
28.5781716252953
 10
145.76949092428015
 20
30.004236604736832
 10
134.41242154549803
 20
13.649090007755271
 10
134.41242154549803
 20
10.783656642285422
 10
132.36080284889496
 20
8.59989166841768
 10
121.58719482904257
 20
2.8661196290794555
 10
114.87657375176764
 20
2.8661196290794555
 10
109.49120976975802
 20
0.0
 10
105.40046743056064
 20
1.4514100260195617
  0
LWPOLYLINE
  5
31
330
17
100
AcDbEntity
  8
C
100
AcDbPolyline
 90
30
 70
1
 10
127.5339875656889
 20
107.87528168384742
 10
123.49167012615969
 20
116.48065387343965
 10
119.42337449222751
 20
120.8109914373493
 10
122.1333036064034
 20
125.13770791565936
 10
122.1333036064034
 20
128.00572547301613
 10
124.81755203731315
 20
130.86286833015882
 10
124.81755203731315
 20
135.14858261587327
 10
126.14416793222615
 20
136.56064682150938
 10
123.45991950131618
 20
143.7035039643665
 10
124.81755203731315
 20
145.1485826158735
 10
124.81755203731315
 20
148.0013779684065
 10
132.88052904970215
 20
158.0140838460754
 10
134.22384283377698
 20
162.30359670063243
 10
138.9665958211177
 20
167.3518339147936
 10
140.40870382260962
 20
167.3518339147936
 10
145.14941526913793
 20
159.4223044950577
 10
145.14941526913793
 20
156.5771540444446
 10
149.15954561120137
 20
152.30872824186193
 10
151.8559639894408
 20
146.56853488230524
 10
153.1969483515041
 20
139.4317441004046
 10
155.88640899277783
 20
135.13770791565938
 10
155.88640899277783
 20
128.00572547301635
 10
158.5592361354089
 20
125.16073955777551
 10
159.92567558178084
 20
120.79738109330285
 10
156.5089151559955
 20
117.16054460205771
 10
149.7853991309197
 20
115.72922806930153
 10
143.07328582477496
 20
111.4425607769266
 10
135.0336359517914
 20
110.01631249925758
 10
132.33614320519771
 20
107.14507225026438
 10
127.5339875656889
 20
107.87528168384742
  0
LWPOLYLINE
  5
32
330
17
100
AcDbEntity
  8
C
100
AcDbPolyline
 90
43
 70
1
 10
42.35147900572489
 20
204.29683336701666
 10
35.645889607684445
 20
207.15183391479363
 10
31.59665858471916
 20
207.15183391479363
 10
30.254534369264174
 20
208.58040534336496
 10
26.228161722899213
 20
208.58040534336496
 10
24.886037507444225
 20
210.00897677193652
 10
19.53584779373052
 20
210.00897677193652
 10
14.167350931910683
 20
212.8661196290794
 10
7.438422706529502
 20
212.8661196290794
 10
0.0
 20
220.7836566422855
 10
0.0
 20
223.7200111873018
 10
6.096298491074514
 20
230.20897677193653
 10
11.483102501000708
 20
230.20897677193653
 10
16.851599362820547
 20
233.06611962907942
 10
19.524778691137
 20
233.06611962907942
 10
25.52416970517868
 20
238.03286558212966
 10
28.184608524554623
 20
242.28056505851657
 10
28.184608524554623
 20
245.13129413274183
 10
30.88272686024951
 20
250.87510639824316
 10
36.247069646338836
 20
258.0124364875752
 10
37.58872271897795
 20
262.2966463048707
 10
41.605850679104385
 20
267.99781182807004
 10
41.605850679104385
 20
270.86286833015896
 10
43.67311399934426
 20
273.06328560943984
 10
65.23354474628084
 20
274.49760773654276
 10
66.57840914349444
 20
273.0661196290794
 10
78.65752708258933
 20
273.0661196290794
 10
79.99965129804431
 20
271.6375482005079
 10
93.42089345259419
 20
271.6375482005079
 10
96.8523355270281
 20
267.98508440476877
 10
91.46444665093867
 20
256.5152308397026
 10
91.46444665093867
 20
249.36595991392807
 10
88.7801982200287
 20
245.08024562821362
 10
88.7801982200287
 20
242.21222807085684
 10
86.71027237531925
 20
240.00897677193655
 10
79.99965129804431
 20
240.00897677193655
 10
78.65752708258933
 20
238.58040534336521
 10
67.92053335894943
 20
238.58040534336521
 10
64.62417362972329
 20
235.07172464657157
 10
65.96663212650355
 20
210.77996154610378
 10
58.53946580376635
 20
204.31177969367698
 10
55.818064872659164
 20
202.8634355050024
 10
42.35147900572489
 20
204.29683336701666
  0
LWPOLYLINE
  5
33
330
17
100
AcDbEntity
  8
C
100
AcDbPolyline
 90
17
 70
1
 10
748.9061716277434
 20
252.2827856474136
 10
751.4028594127686
 20
263.7268086561414
 10
755.1413543116782
 20
268.01082665568276
 10
756.3880127055072
 20
275.1536837985399
 10
759.5492113422724
 20
278.77616616810997
 10
774.5272791565496
 20
280.2064724332828
 10
777.0616290514896
 20
281.6585542015665
 10
781.5368297705461
 20
277.99553683563784
 10
776.5137423974644
 20
266.4834190976534
 10
770.2804504283198
 20
259.34056195479627
 10
766.5421334604243
 20
250.77293374531183
 10
759.666324059088
 20
241.46123341397552
 10
757.1136422077092
 20
239.9986481632107
 10
753.3685952126986
 20
241.42915689017042
 10
747.1218776605364
 20
238.56586017262583
 10
743.8904790982077
 20
240.78761571527673
 10
748.9061716277434
 20
252.2827856474136
  0
LWPOLYLINE
  5
34
330
17
100
AcDbEntity
  8
C
100
AcDbPolyline
 90
48
 70
1
 10
705.9277611673547
 20
254.31627859891782
 10
690.967860441408
 20
262.8877071703463
 10
684.7534070749294
 20
270.0089767719366
 10
681.0340728995192
 20
270.0089767719366
 10
664.7891804827447
 20
278.60067930248897
 10
659.1096439138693
 20
285.10897677193645
 10
662.2968861052436
 20
288.76130298501437
 10
671.0623912504996
 20
293.0661196290795
 10
673.5432307746978
 20
293.0661196290795
 10
677.8519618830762
 20
296.59287917930476
 10
682.8366477521799
 20
319.441094370427
 10
685.3221930912644
 20
322.289331765219
 10
685.3221930912644
 20
325.1464746223619
 10
686.5688514850932
 20
326.5750460509332
 10
686.5688514850932
 20
327.928621778654
 10
680.3355595159486
 20
335.07147892151113
 10
680.3355595159486
 20
339.4116427403006
 10
682.840829528115
 20
346.5887434961169
 10
685.3284842572607
 20
349.43939808425415
 10
686.5751426510895
 20
356.58225522711126
 10
688.4966850938055
 20
358.78419013248697
 10
706.0165130505178
 20
357.3501665415394
 10
715.9859000640716
 20
353.0661196290793
 10
749.6705571928721
 20
353.0661196290793
 10
751.5918743593362
 20
350.864442872382
 10
752.8385327531653
 20
336.5787285866676
 10
762.1371411311608
 20
325.92326248622214
 10
764.6245480423584
 20
325.92326248622214
 10
771.5699226106545
 20
319.4114784122396
 10
768.3965269695241
 20
314.3204355783099
 10
763.400529403663
 20
311.45792752673316
 10
749.6633772515906
 20
297.1473052835699
 10
735.862375007376
 20
298.5850190652012
 10
734.619742828085
 20
300.0089767719366
 10
727.230706103952
 20
300.0089767719366
 10
725.9840477101231
 20
298.58040534336504
 10
723.4874290143094
 20
298.58040534336504
 10
711.7020193616708
 20
286.4968566139695
 10
711.7020193616708
 20
279.4155576556471
 10
714.1927779721715
 20
273.70713487673135
 10
715.4383591846955
 20
263.7157754258205
 10
719.1819697246442
 20
257.99593526908046
 10
719.1819697246442
 20
252.27270051278992
 10
721.6752865123019
 20
246.55841479850437
 10
721.6752865123019
 20
243.6429074929397
 10
719.7220615858282
 20
241.40466697946283
 10
713.4049562953355
 20
245.74800730779057
 10
705.9277611673547
 20
254.31627859891782
  0
LWPOLYLINE
  5
35
330
17
100
AcDbEntity
  8
C
100
AcDbPolyline
 90
16
 70
1
 10
654.1557332455421
 20
76.57504605093324
 10
654.1557332455421
 20
79.43218890807613
 10
669.1314895784641
 20
96.59321531624265
 10
672.3082387009109
 20
103.14575889847599
 10
673.6243951693102
 20
101.63754820050796
 10
676.1177119569679
 20
101.63754820050796
 10
678.0838368504863
 20
99.38452535015297
 10
673.0972032751705
 20
95.09881106443873
 10
675.5816488476214
 20
92.25183391479364
 10
673.600370157252
 20
89.98144601774827
 10
671.1176817876324
 20
91.40392778518402
 10
667.417521435791
 20
85.75047491101573
 10
661.8080115766254
 20
82.17933467423822
 10
654.8704051007859
 20
71.33849978556562
 10
652.8887547615161
 20
75.12318941414009
 10
654.1557332455421
 20
76.57504605093324
  0
LWPOLYLINE
  5
36
330
17
100
AcDbEntity
  8
C
100
AcDbPolyline
 90
17
 70
1
 10
1193.9260589604455
 20
77.88014554330591
 10
1190.746670428575
 20
83.65469567735173
 10
1190.746670428575
 20
92.22612424878018
 10
1189.9601184874673
 20
93.65469567735174
 10
1189.9601184874673
 20
102.27754358080709
 10
1191.9674015847186
 20
105.92326248622219
 10
1197.5914586835092
 20
105.92326248622219
 10
1200.6785696924223
 20
100.31631098858796
 10
1203.7656807013352
 20
105.92326248622219
 10
1225.90732856339
 20
105.92326248622219
 10
1227.9146116606412
 20
102.27754358080709
 10
1227.9146116606412
 20
87.93430692064408
 10
1224.331773092327
 20
82.87306234858904
 10
1203.7794931073893
 20
80.00167879716547
 10
1200.6906355941733
 20
84.20927148083524
 10
1196.795924411304
 20
77.13551979630073
 10
1193.9260589604455
 20
77.88014554330591
  0
LWPOLYLINE
  5
37
330
17
100
AcDbEntity
  8
C
100
AcDbPolyline
 90
34
 70
1
 10
1694.5669735037757
 20
320.7291903517929
 10
1687.8238611275085
 20
327.90659584216866
 10
1685.0296723244578
 20
332.903167439126
 10
1677.2076634476075
 20
340.0395578339151
 10
1660.9313428043315
 20
359.3953225517138
 10
1673.8786363455877
 20
374.49469105765087
 10
1676.210214063433
 20
374.49469105765087
 10
1677.3286564789294
 20
373.0661196290793
 10
1685.0603315788264
 20
373.0661196290793
 10
1686.1787739943227
 20
374.49469105765087
 10
1688.5130806338914
 20
374.49469105765087
 10
1689.6315230493874
 20
373.0661196290793
 10
1699.619585878548
 20
373.0661196290793
 10
1701.9084166497441
 20
374.52786598242903
 10
1703.0528320353421
 20
373.0661196290793
 10
1715.3556986058006
 20
373.0661196290793
 10
1716.4481680511951
 20
371.6707231252859
 10
1718.6331069419841
 20
373.0661196290793
 10
1724.3032379297706
 20
373.0661196290793
 10
1728.2547815048558
 20
368.0188662596534
 10
1731.6373223695075
 20
360.8180764704111
 10
1728.2660892827255
 20
355.0767023354488
 10
1727.1468601836839
 20
345.06966859339195
 10
1724.9137482332305
 20
342.21734478572984
 10
1724.9137482332305
 20
339.36020192858695
 10
1722.6768634022383
 20
336.50305907144406
 10
1722.6768634022383
 20
333.65587828720066
 10
1720.4243797644178
 20
329.34027778278795
 10
1717.60161840908
 20
325.734802734596
 10
1711.9988555914597
 20
324.3035360423786
 10
1708.6331411085828
 20
321.43754820050793
 10
1700.8159472043499
 20
321.43754820050793
 10
1699.6919276323806
 20
320.0018531451142
 10
1694.5669735037757
 20
320.7291903517929
  0
LWPOLYLINE
  5
38
330
17
100
AcDbEntity
  8
C
100
AcDbPolyline
 90
19
 70
1
 10
2708.3878376969938
 20
79.29535630841744
 10
2701.2152234589817
 20
85.06105840729761
 10
2701.2152234589817
 20
102.29311474417402
 10
2703.401213107451
 20
104.48962299870924
 10
2714.7750555631173
 20
105.91819442728057
 10
2716.2018296591714
 20
107.35183391479353
 10
2730.4191327287544
 20
107.35183391479353
 10
2731.840863035712
 20
108.78040534336509
 10
2737.5277842635455
 20
108.78040534336509
 10
2738.949514570504
 20
110.20897677193663
 10
2750.406481071913
 20
110.20897677193663
 10
2752.593855479949
 20
108.01107709461021
 10
2754.0155857869067
 20
92.29679138032442
 10
2755.4409751233957
 20
90.86454331560267
 10
2755.4409751233957
 20
83.63912451398481
 10
2753.249941685829
 20
81.43754820050798
 10
2750.395317695867
 20
81.43754820050798
 10
2746.129264027359
 20
78.5798274106807
 10
2708.3878376969938
 20
79.29535630841744
  0
LWPOLYLINE
  5
39
330
17
100
AcDbEntity
  8
C
100
AcDbPolyline
 90
16
 70
1
 10
2633.0344500238843
 20
73.57654352819154
 10
2631.550438418027
 20
75.06769594255613
 10
2631.550438418027
 20
85.06769594255614
 10
2630.1287081110686
 20
86.4962673711277
 10
2630.1287081110686
 20
96.57882902988801
 10
2636.5614569790887
 20
103.04253117863793
 10
2646.5894462266374
 20
110.23984704034152
 10
2651.654662715442
 20
105.15025760131691
 10
2651.654662715442
 20
93.72168617274556
 10
2653.0763930224007
 20
92.293114744174
 10
2653.0763930224007
 20
82.27533952550236
 10
2654.5196153932748
 20
79.37500570830014
 10
2650.8853595848345
 20
75.72326248622218
 10
2642.354977743085
 20
75.72326248622218
 10
2640.936947854576
 20
74.29840928187714
 10
2633.0344500238843
 20
73.57654352819154
  0
LWPOLYLINE
  5
3A
330
17
100
AcDbEntity
  8
C
100
AcDbPolyline
 90
61
 70
1
 10
3031.9910539921607
 20
279.3771115341467
 10
3031.9910539921607
 20
285.0913972484325
 10
3029.3996075214072
 20
292.2342543912896
 10
3029.3996075214072
 20
296.49895316467587
 10
3026.8130200927485
 20
299.3507387908007
 10
3025.5172968573725
 20
309.3507387908007
 10
3024.2167145799003
 20
310.78466745039015
 10
3024.2167145799003
 20
319.4386129982151
 10
3032.014038219161
 20
326.60258744008564
 10
3035.2759960424055
 20
331.6375482005079
 10
3037.8775032385443
 20
331.6375482005079
 10
3040.4689497092977
 20
334.4946910576508
 10
3048.3318997471824
 20
334.4946910576508
 10
3049.6315536170073
 20
333.0617859936896
 10
3063.8036641772474
 20
331.64131764926174
 10
3069.5670278180864
 20
336.58352845776704
 10
3069.5670278180864
 20
338.00471466491155
 10
3074.157753829094
 20
343.0661196290793
 10
3076.7437382845887
 20
343.0661196290793
 10
3083.200121289339
 20
351.60813296094875
 10
3087.7261430349145
 20
355.1724663079215
 10
3088.984672514382
 20
357.94759483428464
 10
3084.5049717824604
 20
362.88659129544834
 10
3079.3252773630966
 20
365.74197092213313
 10
3069.5670278180864
 20
375.0662169987334
 10
3069.5670278180864
 20
378.0047146649116
 10
3071.5674805814847
 20
380.2102702835591
 10
3120.893559169442
 20
378.77912834980265
 10
3122.9072848090514
 20
376.55893901061046
 10
3119.0045107624032
 20
366.51879581724126
 10
3119.0045107624032
 20
363.654957295709
 10
3115.1391238605006
 20
356.55212708003194
 10
3119.0028583555663
 20
352.29225077579054
 10
3120.2985815909424
 20
322.2922507757905
 10
3121.5959572331567
 20
320.86185752205444
 10
3121.5959572331567
 20
317.92752459324726
 10
3119.596677692904
 20
315.72326248622215
 10
3115.709507986774
 20
315.72326248622215
 10
3114.413784751397
 20
314.2946910576508
 10
3104.0479988683833
 20
314.2946910576508
 10
3102.752275633007
 20
312.86611962907926
 10
3093.682212985369
 20
312.86611962907926
 10
3092.3631421846667
 20
311.41180685093536
 10
3089.725000583261
 20
312.86611962907926
 10
3082.0207038669782
 20
312.86611962907926
 10
3080.7249806316017
 20
311.43754820050793
 10
3075.55214841548
 20
311.43754820050793
 10
3072.3584742888406
 20
306.50798602327257
 10
3072.3584742888406
 20
302.2302182275135
 10
3069.767027818087
 20
296.51593251322794
 10
3069.767027818087
 20
293.64961679387545
 10
3065.8798581119563
 20
287.9353310795899
 10
3065.8798581119563
 20
283.6616529600985
 10
3061.992688405827
 20
273.6616529600985
 10
3061.992688405827
 20
270.7881741218247
 10
3052.2464142196472
 20
258.6098928462478
 10
3047.01131210761
 20
254.28100699775712
 10
3043.0471403614138
 20
255.73787740031128
 10
3034.582500462914
 20
265.0703817361043
 10
3034.582500462914
 20
272.23425439128954
 10
3031.9910539921607
 20
279.3771115341467
  0
LWPOLYLINE
  5
3B
330
17
100
AcDbEntity
  8
C
100
AcDbPolyline
 90
37
 70
1
 10
2957.5541702726146
 20
318.58040534336504
 10
2953.665149480847
 20
318.58040534336504
 10
2944.5950868332097
 20
325.7232624862222
 10
2940.716828514934
 20
325.7232624862222
 10
2932.942489102674
 20
330.00897677193643
 10
2927.764262043054
 20
330.00897677193643
 10
2921.2856458661695
 20
332.8661196290793
 10
2907.0094564654914
 20
332.8661196290793
 10
2905.7370807954408
 20
334.2689497080783
 10
2892.8587101166013
 20
327.1695661761492
 10
2886.314375877277
 20
321.39731564729254
 10
2884.2786051592107
 20
323.64181030753304
 10
2884.2786051592107
 20
326.50966520043636
 10
2881.6630402904434
 20
330.8352663076929
 10
2884.2842429912084
 20
333.7252162480574
 10
2885.5786754164683
 20
342.28810589202584
 10
2888.8539819128873
 20
347.3436708568177
 10
2907.003376739536
 20
350.2022737025176
 10
2908.320704447956
 20
351.65466467223484
 10
2912.2078741540863
 20
350.2260932436635
 10
2913.4880726423758
 20
351.63754820050775
 10
2918.6709655838827
 20
351.63754820050775
 10
2919.966688819259
 20
353.0661196290793
 10
2925.149581760766
 20
353.0661196290793
 10
2926.4399554355628
 20
354.48879301616233
 10
2936.805741318578
 20
355.91736444473366
 10
2938.1068141145342
 20
357.35183391479353
 10
2944.6790446757936
 20
357.35183391479353
 10
2951.856213398802
 20
348.00006996304467
 10
2951.856213398802
 20
345.13685977200805
 10
2954.4305553215036
 20
340.8794328565957
 10
2967.404892223323
 20
323.71394581749723
 10
2967.404892223323
 20
320.86185752205444
 10
2970.031344633365
 20
317.9661196290794
 10
2966.6897689878715
 20
314.28193819030605
 10
2961.4297789715547
 20
315.73176004398607
 10
2957.5541702726146
 20
318.58040534336504
  0
LWPOLYLINE
  5
3C
330
17
100
AcDbEntity
  8
C
100
AcDbPolyline
 90
5
 70
1
 10
2884.5136110985
 20
316.53754820050807
 10
2882.4350203061463
 20
314.2458432001073
 10
2880.3564295137926
 20
316.53754820050807
 10
2882.4350203061463
 20
318.8292532009086
 10
2884.5136110985
 20
316.53754820050807
  0
LWPOLYLINE
  5
3D
330
17
100
AcDbEntity
  8
C
100
AcDbPolyline
 90
5
 70
1
 10
2877.2521273646394
 20
305.6744146286786
 10
2875.1735365722857
 20
307.9661196290794
 10
2877.2521273646394
 20
310.25782462947996
 10
2879.330718156992
 20
307.9661196290794
 10
2877.2521273646394
 20
305.6744146286786
  0
LWPOLYLINE
  5
3E
330
17
100
AcDbEntity
  8
C
100
AcDbPolyline
 90
7
 70
1
 10
2874.1128192761967
 20
246.57614323634013
 10
2874.1128192761967
 20
230.78466745039006
 10
2872.0692344231315
 20
228.53155748582142
 10
2870.0256495700664
 20
230.78466745039006
 10
2870.0256495700664
 20
246.57614323634013
 10
2872.0692344231315
 20
248.82925320090854
 10
2874.1128192761967
 20
246.57614323634013
  0
LWPOLYLINE
  5
3F
330
17
100
AcDbEntity
  8
C
100
AcDbPolyline
 90
27
 70
1
 10
3802.3931760743526
 20
288.58364446991624
 10
3784.192163929954
 20
290.01221589848757
 10
3781.3920082154314
 20
292.8693587556307
 10
3763.190996071032
 20
294.297930184202
 10
3761.7940927343234
 20
295.72326248622215
 10
3754.804928312316
 20
295.72326248622215
 10
3750.6014369205864
 20
298.5826214241681
 10
3731.0003469189255
 20
300.01119285273967
 10
3726.7977320173936
 20
302.86995557200726
 10
3704.371585415738
 20
305.73027438587883
 10
3702.2030329216695
 20
309.4180837439039
 10
3743.6033435268923
 20
343.0691801323539
 10
3760.4609589088955
 20
341.6357891508172
 10
3770.2669395144344
 20
337.3476979106834
 10
3784.277005319355
 20
334.48865980540785
 10
3788.4683724572874
 20
331.6375482005079
 10
3794.0686838863326
 20
331.6375482005079
 10
3798.268917458117
 20
328.78040534336503
 10
3802.478604270969
 20
328.78040534336503
 10
3826.279927844413
 20
305.92326248622214
 10
3829.081855182169
 20
305.92326248622214
 10
3831.2695064032923
 20
303.69108945815293
 10
3827.691828571006
 20
298.58040534336504
 10
3826.2816994676464
 20
298.58040534336504
 10
3813.6777179628175
 20
285.7199149280246
 10
3804.493292860245
 20
286.440787327059
 10
3802.3931760743526
 20
288.58364446991624
  0
LWPOLYLINE
  5
40
330
17
100
AcDbEntity
  8
C
100
AcDbPolyline
 90
38
 70
1
 10
3693.190277728512
 20
268.58040534336504
 10
3681.98965487042
 20
268.58040534336504
 10
3680.5895770131583
 20
270.0089767719366
 10
3670.789032012329
 20
270.0089767719366
 10
3669.430966804715
 20
271.3946805338178
 10
3668.0729015971015
 20
270.0089767719366
 10
3658.1985862733095
 20
270.0089767719366
 10
3649.058879560915
 20
276.4652394204842
 10
3644.8296043026394
 20
282.2190354361379
 10
3644.8296043026394
 20
285.0681442471609
 10
3636.4291371590703
 20
293.63957281858933
 10
3636.4291371590703
 20
295.1598354729289
 10
3641.42014508932
 20
298.7973940619276
 10
3644.2341976408156
 20
297.36173280469256
 10
3651.2543575923014
 20
300.2269448723441
 10
3652.6500292273463
 20
298.8028693388646
 10
3661.0304996611467
 20
303.0783817889836
 10
3663.8306553756693
 20
301.6498103604123
 10
3669.438259037775
 20
304.51067353773107
 10
3673.625759127506
 20
301.6621924315775
 10
3680.6390935299687
 20
307.3870449999757
 10
3683.4817363294665
 20
304.48655038538385
 10
3690.482125615773
 20
303.0579789568123
 10
3696.084278492535
 20
297.3418143187373
 10
3701.6799022808405
 20
295.91443865038593
 10
3710.083476522615
 20
288.7689395641425
 10
3718.488440487465
 20
285.9102672610078
 10
3721.294936003196
 20
283.0466555787047
 10
3739.490410982236
 20
273.04969780806863
 10
3745.8843489399574
 20
267.9754260654416
 10
3743.67710588922
 20
265.7232624862224
 10
3740.7929248754012
 20
265.7232624862224
 10
3739.414862958019
 20
267.12936991929416
 10
3736.6587391232542
 20
265.7232624862224
 10
3718.3916791592183
 20
265.7232624862224
 10
3716.991601301957
 20
267.1518339147937
 10
3694.590355585773
 20
267.1518339147937
 10
3693.190277728512
 20
268.58040534336504
  0
LWPOLYLINE
  5
41
330
17
100
AcDbEntity
  8
C
100
AcDbPolyline
 90
33
 70
1
 10
4287.9945007285705
 20
340.00897677193643
 10
4284.420070662943
 20
340.00897677193643
 10
4279.675023748637
 20
344.29469105765065
 10
4277.2940312570345
 20
344.29469105765065
 10
4276.1027341319395
 20
345.72932642929965
 10
4265.426378574752
 20
347.1578978578712
 10
4264.245152242694
 20
348.5804053433651
 10
4248.8237497712
 20
348.5804053433651
 10
4245.805039291976
 20
352.21572749687033
 10
4245.805039291976
 20
365.1450831898598
 10
4248.177562749128
 20
368.0022260470025
 10
4248.177562749128
 20
372.28794033271697
 10
4250.550086206281
 20
375.14508318985963
 10
4250.550086206281
 20
379.4307974755741
 10
4251.730209497433
 20
380.8519766094184
 10
4250.543947768856
 20
387.9948337522755
 10
4253.593705538531
 20
391.6675450173096
 10
4256.016046701736
 20
390.2089767719364
 10
4265.5253016557035
 20
390.2089767719364
 10
4266.7115633842795
 20
388.7804053433651
 10
4270.270348570009
 20
388.7804053433651
 10
4272.6428720271615
 20
385.9232624862222
 10
4276.201657212891
 20
385.9232624862222
 10
4278.574180670044
 20
383.0661196290793
 10
4282.127547280269
 20
383.0661196290793
 10
4296.383301847963
 20
368.7597182833341
 10
4303.502116438132
 20
364.473254814173
 10
4313.621957820833
 20
353.72006074582583
 10
4313.621957820833
 20
352.21572749687033
 10
4309.416985613032
 20
347.15183391479377
 10
4305.847782495317
 20
347.15183391479377
 10
4293.963581268426
 20
337.1336389915257
 10
4287.9945007285705
 20
340.00897677193643
  0
LWPOLYLINE
  5
42
330
17
100
AcDbEntity
  8
C
100
AcDbPolyline
 90
62
 70
1
 10
5657.4654482780625
 20
304.30021698916966
 10
5652.594351953761
 20
307.91580825175134
 10
5652.594351953761
 20
312.23202216980906
 10
5648.4510339380795
 20
322.27831192326806
 10
5660.216529181878
 20
333.0661196290793
 10
5662.962369062747
 20
333.0661196290793
 10
5667.716517878021
 20
338.0064207199173
 10
5667.716517878021
 20
339.3543899668129
 10
5661.5650352012935
 20
345.74673857829674
 10
5653.316581060789
 20
351.4610242925823
 10
5640.953630455485
 20
364.30805553509003
 10
5636.829403385233
 20
365.7366269636616
 10
5634.084712355514
 20
368.5887884367248
 10
5627.2110005717595
 20
370.01735986529616
 10
5624.469583073723
 20
372.8661196290793
 10
5617.595871289969
 20
372.8661196290793
 10
5615.453846966408
 20
375.0920165274455
 10
5622.367276281213
 20
388.0234502461665
 10
5636.827126521273
 20
404.48053790811764
 10
5640.953630455485
 20
405.90989800878265
 10
5646.447338803066
 20
411.6187166421209
 10
5660.21935511929
 20
418.77435163313027
 10
5671.214507141126
 20
421.63077050210285
 10
5680.849117685004
 20
427.3518339147936
 10
5691.917059687806
 20
427.3518339147936
 10
5694.027499452552
 20
425.1587582924196
 10
5698.151726522804
 20
408.0159011495622
 10
5701.523525350296
 20
404.51207700084535
 10
5712.47684864493
 20
408.78040534336515
 10
5716.577320976029
 20
408.78040534336515
 10
5717.974389717654
 20
410.23217736321635
 10
5720.723874431155
 20
408.803605934645
 10
5722.118840969679
 20
410.25319343804966
 10
5724.280954504804
 20
408.0064207199171
 10
5724.280954504804
 20
396.5778492913458
 10
5726.243068039931
 20
394.5389077237641
 10
5728.205181575057
 20
396.5778492913458
 10
5728.205181575057
 20
409.4349921484887
 10
5730.316677328072
 20
411.6291651071481
 10
5737.190389111825
 20
413.05773653571964
 10
5738.573198684042
 20
414.4946910576509
 10
5742.697425754294
 20
414.4946910576509
 10
5744.114718677692
 20
415.96747915233544
 10
5745.532011601089
 20
414.4946910576509
 10
5748.28149631459
 20
414.4946910576509
 10
5751.8145841714395
 20
410.8232624862221
 10
5746.2649691913675
 20
405.05634815411287
 10
5744.8902268346155
 20
400.7706338683984
 10
5736.639701810255
 20
392.19705332609846
 10
5733.891969066807
 20
385.0587476076382
 10
5720.792350868525
 20
368.5804053433651
 10
5716.662422109322
 20
368.5804053433651
 10
5711.897955648314
 20
363.62938261160826
 10
5709.1511752823735
 20
353.6392184457501
 10
5703.659819153542
 20
345.0796569782107
 10
5703.659819153542
 20
342.2177998229191
 10
5698.152066056278
 20
335.0635331782098
 10
5695.401047367303
 20
325.05795404017954
 10
5691.929920587055
 20
321.4509126779473
 10
5683.677340714469
 20
318.59234072806277
 10
5665.78449591102
 20
302.85941928829993
 10
5657.4654482780625
 20
304.30021698916966
  0
ENDSEC
  0
SECTION
  2
OBJECTS
  0
DICTIONARY
  5
A
330
0
100
AcDbDictionary
281
1
  3
ACAD_COLOR
350
B
  3
ACAD_GROUP
350
C
  3
ACAD_LAYOUT
350
D
  3
ACAD_MATERIAL
350
E
  3
ACAD_MLEADERSTYLE
350
F
  3
ACAD_MLINESTYLE
350
10
  3
ACAD_PLOTSETTINGS
350
11
  3
ACAD_PLOTSTYLENAME
350
12
  3
ACAD_SCALELIST
350
14
  3
ACAD_TABLESTYLE
350
15
  3
ACAD_VISUALSTYLE
350
16
  3
EZDXF_META
350
2D
  0
DICTIONARY
  5
B
330
A
100
AcDbDictionary
281
1
  0
DICTIONARY
  5
C
330
A
100
AcDbDictionary
281
1
  0
DICTIONARY
  5
D
330
A
100
AcDbDictionary
281
1
  3
Model
350
1A
  3
Layout1
350
1E
  0
DICTIONARY
  5
E
330
A
100
AcDbDictionary
281
1
  3
ByBlock
350
1F
  3
ByLayer
350
20
  3
Global
350
21
  0
DICTIONARY
  5
F
330
A
100
AcDbDictionary
281
1
  3
Standard
350
2C
  0
DICTIONARY
  5
10
330
A
100
AcDbDictionary
281
1
  3
Standard
350
22
  0
DICTIONARY
  5
11
330
A
100
AcDbDictionary
281
1
  0
ACDBDICTIONARYWDFLT
  5
12
330
A
100
AcDbDictionary
281
1
  3
Normal
350
13
100
AcDbDictionaryWithDefault
340
13
  0
ACDBPLACEHOLDER
  5
13
330
12
  0
DICTIONARY
  5
14
330
A
100
AcDbDictionary
281
1
  0
DICTIONARY
  5
15
330
A
100
AcDbDictionary
281
1
  0
DICTIONARY
  5
16
330
A
100
AcDbDictionary
281
1
  0
LAYOUT
  5
1A
330
D
100
AcDbPlotSettings
  1

  4
A3
  6

 40
7.5
 41
20.0
 42
7.5
 43
20.0
 44
420.0
 45
297.0
 46
0.0
 47
0.0
 48
0.0
 49
0.0
140
0.0
141
0.0
142
1.0
143
1.0
 70
1024
 72
1
 73
0
 74
5
  7

 75
16
 76
0
 77
2
 78
300
147
1.0
148
0.0
149
0.0
100
AcDbLayout
  1
Model
 70
1
 71
0
 10
0.0
 20
0.0
 11
420.0
 21
297.0
 12
0.0
 22
0.0
 32
0.0
 14
1e+20
 24
1e+20
 34
1e+20
 15
-1e+20
 25
-1e+20
 35
-1e+20
146
0.0
 13
0.0
 23
0.0
 33
0.0
 16
1.0
 26
0.0
 36
0.0
 17
0.0
 27
1.0
 37
0.0
 76
1
330
17
  0
LAYOUT
  5
1E
330
D
100
AcDbPlotSettings
  1

  4
A3
  6

 40
7.5
 41
20.0
 42
7.5
 43
20.0
 44
420.0
 45
297.0
 46
0.0
 47
0.0
 48
0.0
 49
0.0
140
0.0
141
0.0
142
1.0
143
1.0
 70
0
 72
1
 73
0
 74
5
  7

 75
16
 76
0
 77
2
 78
300
147
1.0
148
0.0
149
0.0
100
AcDbLayout
  1
Layout1
 70
1
 71
1
 10
0.0
 20
0.0
 11
420.0
 21
297.0
 12
0.0
 22
0.0
 32
0.0
 14
1e+20
 24
1e+20
 34
1e+20
 15
-1e+20
 25
-1e+20
 35
-1e+20
146
0.0
 13
0.0
 23
0.0
 33
0.0
 16
1.0
 26
0.0
 36
0.0
 17
0.0
 27
1.0
 37
0.0
 76
1
330
1B
  0
MATERIAL
  5
1F
102
{ACAD_REACTORS
330
E
102
}
330
E
100
AcDbMaterial
  1
ByBlock
  2

 70
0
 40
1.0
 71
1
 41
1.0
 91
-1023410177
 42
1.0
 72
1
  3

 73
1
 74
1
 75
1
 44
0.5
 73
0
 45
1.0
 46
1.0
 77
1
  4

 78
1
 79
1
170
1
 48
1.0
171
1
  6

172
1
173
1
174
1
140
1.0
141
1.0
175
1
  7

176
1
177
1
178
1
143
1.0
179
1
  8

270
1
271
1
272
1
145
1.0
146
1.0
273
1
  9

274
1
275
1
276
1
 42
1.0
 72
1
  3

 73
1
 74
1
 75
1
 94
63
  0
MATERIAL
  5
20
102
{ACAD_REACTORS
330
E
102
}
330
E
100
AcDbMaterial
  1
ByLayer
  2

 70
0
 40
1.0
 71
1
 41
1.0
 91
-1023410177
 42
1.0
 72
1
  3

 73
1
 74
1
 75
1
 44
0.5
 73
0
 45
1.0
 46
1.0
 77
1
  4

 78
1
 79
1
170
1
 48
1.0
171
1
  6

172
1
173
1
174
1
140
1.0
141
1.0
175
1
  7

176
1
177
1
178
1
143
1.0
179
1
  8

270
1
271
1
272
1
145
1.0
146
1.0
273
1
  9

274
1
275
1
276
1
 42
1.0
 72
1
  3

 73
1
 74
1
 75
1
 94
63
  0
MATERIAL
  5
21
102
{ACAD_REACTORS
330
E
102
}
330
E
100
AcDbMaterial
  1
Global
  2

 70
0
 40
1.0
 71
1
 41
1.0
 91
-1023410177
 42
1.0
 72
1
  3

 73
1
 74
1
 75
1
 44
0.5
 73
0
 45
1.0
 46
1.0
 77
1
  4

 78
1
 79
1
170
1
 48
1.0
171
1
  6

172
1
173
1
174
1
140
1.0
141
1.0
175
1
  7

176
1
177
1
178
1
143
1.0
179
1
  8

270
1
271
1
272
1
145
1.0
146
1.0
273
1
  9

274
1
275
1
276
1
 42
1.0
 72
1
  3

 73
1
 74
1
 75
1
 94
63
  0
MLINESTYLE
  5
22
102
{ACAD_REACTORS
330
10
102
}
330
10
100
AcDbMlineStyle
  2
Standard
 70
0
  3

 62
256
 51
90.0
 52
90.0
 71
2
 49
0.5
 62
256
  6
BYLAYER
 49
-0.5
 62
256
  6
BYLAYER
  0
MLEADERSTYLE
  5
2C
102
{ACAD_REACTORS
330
F
102
}
330
F
100
AcDbMLeaderStyle
179
2
170
2
171
1
172
0
 90
2
 40
0.0
 41
0.0
173
1
 91
-1056964608
 92
-2
290
1
 42
2.0
291
1
 43
8.0
  3
Standard
 44
4.0
300

342
29
174
1
175
1
176
0
178
1
 93
-1056964608
 45
4.0
292
0
297
0
 46
4.0
 94
-1056964608
 47
1.0
 49
1.0
140
1.0
294
1
141
0.0
177
0
142
1.0
295
0
296
0
143
3.75
271
0
272
9
273
9
  0
DICTIONARY
  5
2D
330
A
100
AcDbDictionary
280
1
281
1
  3
CREATED_BY_EZDXF
350
2E
  3
WRITTEN_BY_EZDXF
350
45
  0
DICTIONARYVAR
  5
2E
330
2D
100
DictionaryVariables
280
0
  1
1.4.4 @ 2026-07-23T17:47:45.661147+00:00
  0
DICTIONARYVAR
  5
45
330
2D
100
DictionaryVariables
280
0
  1
1.4.4 @ 2026-07-23T17:47:45.669342+00:00
  0
ENDSEC
  0
EOF
