  0
SECTION
  2
HEADER
  9
$ACADVER
  1
AC1027
  9
$ACADMAINTVER
 70
105
  9
$DWGCODEPAGE
  3
ANSI_1252
  9
$LASTSAVEDBY
  1
ezdxf
  9
$REQUIREDVERSIONS
160
0
  9
$INSBASE
 10
0.0
 20
0.0
 30
0.0
  9
$EXTMIN
 10
1e+20
 20
1e+20
 30
1e+20
  9
$EXTMAX
 10
-1e+20
 20
-1e+20
 30
-1e+20
  9
$LIMMIN
 10
0.0
 20
0.0
  9
$LIMMAX
 10
420.0
 20
297.0
  9
$ORTHOMODE
 70
0
  9
$REGENMODE
 70
1
  9
$FILLMODE
 70
1
  9
$QTEXTMODE
 70
0
  9
$MIRRTEXT
 70
1
  9
$LTSCALE
 40
1.0
  9
$ATTMODE
 70
1
  9
$TEXTSIZE
 40
2.5
  9
$TRACEWID
 40
1.0
  9
$TEXTSTYLE
  7
Standard
  9
$CLAYER
  8
0
  9
$CELTYPE
  6
ByLayer
  9
$CECOLOR
 62
256
  9
$CELTSCALE
 40
1.0
  9
$DISPSILH
 70
0
  9
$DIMSCALE
 40
1.0
  9
$DIMASZ
 40
2.5
  9
$DIMEXO
 40
0.625
  9
$DIMDLI
 40
3.75
  9
$DIMRND
 40
0.0
  9
$DIMDLE
 40
0.0
  9
$DIMEXE
 40
1.25
  9
$DIMTP
 40
0.0
  9
$DIMTM
 40
0.0
  9
$DIMTXT
 40
2.5
  9
$DIMCEN
 40
2.5
  9
$DIMTSZ
 40
0.0
  9
$DIMTOL
 70
0
  9
$DIMLIM
 70
0
  9
$DIMTIH
 70
0
  9
$DIMTOH
 70
0
  9
$DIMSE1
 70
0
  9
$DIMSE2
 70
0
  9
$DIMTAD
 70
1
  9
$DIMZIN
 70
8
  9
$DIMBLK
  1

  9
$DIMASO
 70
1
  9
$DIMSHO
 70
1
  9
$DIMPOST
  1

  9
$DIMAPOST
  1

  9
$DIMALT
 70
0
  9
$DIMALTD
 70
3
  9
$DIMALTF
 40
0.03937007874
  9
$DIMLFAC
 40
1.0
  9
$DIMTOFL
 70
1
  9
$DIMTVP
 40
0.0
  9
$DIMTIX
 70
0
  9
$DIMSOXD
 70
0
  9
$DIMSAH
 70
0
  9
$DIMBLK1
  1

  9
$DIMBLK2
  1

  9
$DIMSTYLE
  2
ISO-25
  9
$DIMCLRD
 70
0
  9
$DIMCLRE
 70
0
  9
$DIMCLRT
 70
0
  9
$DIMTFAC
 40
1.0
  9
$DIMGAP
 40
0.625
  9
$DIMJUST
 70
0
  9
$DIMSD1
 70
0
  9
$DIMSD2
 70
0
  9
$DIMTOLJ
 70
0
  9
$DIMTZIN
 70
8
  9
$DIMALTZ
 70
0
  9
$DIMALTTZ
 70
0
  9
$DIMUPT
 70
0
  9
$DIMDEC
 70
2
  9
$DIMTDEC
 70
2
  9
$DIMALTU
 70
2
  9
$DIMALTTD
 70
3
  9
$DIMTXSTY
  7
Standard
  9
$DIMAUNIT
 70
0
  9
$DIMADEC
 70
0
  9
$DIMALTRND
 40
0.0
  9
$DIMAZIN
 70
0
  9
$DIMDSEP
 70
44
  9
$DIMATFIT
 70
3
  9
$DIMFRAC
 70
0
  9
$DIMLDRBLK
  1

  9
$DIMLUNIT
 70
2
  9
$DIMLWD
 70
-2
  9
$DIMLWE
 70
-2
  9
$DIMTMOVE
 70
0
  9
$DIMFXL
 40
1.0
  9
$DIMFXLON
 70
0
  9
$DIMJOGANG
 40
0.785398163397
  9
$DIMTFILL
 70
0
  9
$DIMTFILLCLR
 70
0
  9
$DIMARCSYM
 70
0
  9
$DIMLTYPE
  6

  9
$DIMLTEX1
  6

  9
$DIMLTEX2
  6

  9
$DIMTXTDIRECTION
 70
0
  9
$LUNITS
 70
2
  9
$LUPREC
 70
4
  9
$SKETCHINC
 40
1.0
  9
$FILLETRAD
 40
10.0
  9
$AUNITS
 70
0
  9
$AUPREC
 70
2
  9
$MENU
  1
.
  9
$ELEVATION
 40
0.0
  9
$PELEVATION
 40
0.0
  9
$THICKNESS
 40
0.0
  9
$LIMCHECK
 70
0
  9
$CHAMFERA
 40
0.0
  9
$CHAMFERB
 40
0.0
  9
$CHAMFERC
 40
0.0
  9
$CHAMFERD
 40
0.0
  9
$SKPOLY
 70
0
  9
$TDCREATE
 40
2461245.8664930556
  9
$TDUCREATE
 40
2458532.153996898
  9
$TDUPDATE
 40
2461245.8664930556
  9
$TDUUPDATE
 40
2458532.1544311
  9
$TDINDWG
 40
0.0
  9
$TDUSRTIMER
 40
0.0
  9
$USRTIMER
 70
1
  9
$ANGBASE
 50
0.0
  9
$ANGDIR
 70
0
  9
$PDMODE
 70
0
  9
$PDSIZE
 40
0.0
  9
$PLINEWID
 40
0.0
  9
$SPLFRAME
 70
0
  9
$SPLINETYPE
 70
6
  9
$SPLINESEGS
 70
8
  9
$HANDSEED
  5
3B
  9
$SURFTAB1
 70
6
  9
$SURFTAB2
 70
6
  9
$SURFTYPE
 70
6
  9
$SURFU
 70
6
  9
$SURFV
 70
6
  9
$UCSBASE
  2

  9
$UCSNAME
  2

  9
$UCSORG
 10
0.0
 20
0.0
 30
0.0
  9
$UCSXDIR
 10
1.0
 20
0.0
 30
0.0
  9
$UCSYDIR
 10
0.0
 20
1.0
 30
0.0
  9
$UCSORTHOREF
  2

  9
$UCSORTHOVIEW
 70
0
  9
$UCSORGTOP
 10
0.0
 20
0.0
 30
0.0
  9
$UCSORGBOTTOM
 10
0.0
 20
0.0
 30
0.0
  9
$UCSORGLEFT
 10
0.0
 20
0.0
 30
0.0
  9
$UCSORGRIGHT
 10
0.0
 20
0.0
 30
0.0
  9
$UCSORGFRONT
 10
0.0
 20
0.0
 30
0.0
  9
$UCSORGBACK
 10
0.0
 20
0.0
 30
0.0
  9
$PUCSBASE
  2

  9
$PUCSNAME
  2

  9
$PUCSORG
 10
0.0
 20
0.0
 30
0.0
  9
$PUCSXDIR
 10
1.0
 20
0.0
 30
0.0
  9
$PUCSYDIR
 10
0.0
 20
1.0
 30
0.0
  9
$PUCSORTHOREF
  2

  9
$PUCSORTHOVIEW
 70
0
  9
$PUCSORGTOP
 10
0.0
 20
0.0
 30
0.0
  9
$PUCSORGBOTTOM
 10
0.0
 20
0.0
 30
0.0
  9
$PUCSORGLEFT
 10
0.0
 20
0.0
 30
0.0
  9
$PUCSORGRIGHT
 10
0.0
 20
0.0
 30
0.0
  9
$PUCSORGFRONT
 10
0.0
 20
0.0
 30
0.0
  9
$PUCSORGBACK
 10
0.0
 20
0.0
 30
0.0
  9
$USERI1
 70
0
  9
$USERI2
 70
0
  9
$USERI3
 70
0
  9
$USERI4
 70
0
  9
$USERI5
 70
0
  9
$USERR1
 40
0.0
  9
$USERR2
 40
0.0
  9
$USERR3
 40
0.0
  9
$USERR4
 40
0.0
  9
$USERR5
 40
0.0
  9
$WORLDVIEW
 70
1
  9
$SHADEDGE
 70
3
  9
$SHADEDIF
 70
70
  9
$TILEMODE
 70
1
  9
$MAXACTVP
 70
64
  9
$PINSBASE
 10
0.0
 20
0.0
 30
0.0
  9
$PLIMCHECK
 70
0
  9
$PEXTMIN
 10
1e+20
 20
1e+20
 30
1e+20
  9
$PEXTMAX
 10
-1e+20
 20
-1e+20
 30
-1e+20
  9
$PLIMMIN
 10
0.0
 20
0.0
  9
$PLIMMAX
 10
420.0
 20
297.0
  9
$UNITMODE
 70
0
  9
$VISRETAIN
 70
1
  9
$PLINEGEN
 70
0
  9
$PSLTSCALE
 70
1
  9
$TREEDEPTH
 70
3020
  9
$CMLSTYLE
  2
Standard
  9
$CMLJUST
 70
0
  9
$CMLSCALE
 40
20.0
  9
$PROXYGRAPHICS
 70
1
  9
$MEASUREMENT
 70
1
  9
$CELWEIGHT
370
-1
  9
$ENDCAPS
280
0
  9
$JOINSTYLE
280
0
  9
$LWDISPLAY
290
0
  9
$INSUNITS
 70
4
  9
$HYPERLINKBASE
  1

  9
$STYLESHEET
  1

  9
$XEDIT
290
1
  9
$CEPSNTYPE
380
0
  9
$PSTYLEMODE
290
1
  9
$FINGERPRINTGUID
  2
{318B243D-2933-4EB9-AFDF-FB85C5590D70}
  9
$VERSIONGUID
  2
{A02E9A8C-8B8E-4A4C-B614-ED8EB60199EF}
  9
$EXTNAMES
290
1
  9
$PSVPSCALE
 40
0.0
  9
$OLESTARTUP
290
0
  9
$SORTENTS
280
127
  9
$INDEXCTL
280
0
  9
$HIDETEXT
280
1
  9
$XCLIPFRAME
280
1
  9
$HALOGAP
280
0
  9
$OBSCOLOR
 70
257
  9
$OBSLTYPE
280
0
  9
$INTERSECTIONDISPLAY
280
0
  9
$INTERSECTIONCOLOR
 70
257
  9
$DIMASSOC
280
2
  9
$PROJECTNAME
  1

  9
$CAMERADISPLAY
290
0
  9
$LENSLENGTH
 40
50.0
  9
$CAMERAHEIGHT
 40
0.0
  9
$STEPSPERSEC
 40
24.0
  9
$STEPSIZE
 40
100.0
  9
$3DDWFPREC
 40
2.0
  9
$PSOLWIDTH
 40
0.005
  9
$PSOLHEIGHT
 40
0.08
  9
$LOFTANG1
 40
1.570796326795
  9
$LOFTANG2
 40
1.570796326795
  9
$LOFTMAG1
 40
0.0
  9
$LOFTMAG2
 40
0.0
  9
$LOFTPARAM
 70
7
  9
$LOFTNORMALS
280
1
  9
$LATITUDE
 40
37.795
  9
$LONGITUDE
 40
-122.394
  9
$NORTHDIRECTION
 40
0.0
  9
$TIMEZONE
 70
-8000
  9
$LIGHTGLYPHDISPLAY
280
1
  9
$TILEMODELIGHTSYNCH
280
1
  9
$CMATERIAL
347
20
  9
$SOLIDHIST
280
0
  9
$SHOWHIST
280
1
  9
$DWFFRAME
280
2
  9
$DGNFRAME
280
2
  9
$REALWORLDSCALE
290
1
  9
$INTERFERECOLOR
 62
256
  9
$CSHADOW
280
0
  9
$SHADOWPLANELOCATION
 40
0.0
  0
ENDSEC
  0
SECTION
  2
CLASSES
  0
CLASS
  1
ACDBDICTIONARYWDFLT
  2
AcDbDictionaryWithDefault
  3
ObjectDBX Classes
 90
0
 91
0
280
0
281
0
  0
CLASS
  1
SUN
  2
AcDbSun
  3
SCENEOE
 90
1153
 91
0
280
0
281
0
  0
CLASS
  1
VISUALSTYLE
  2
AcDbVisualStyle
  3
ObjectDBX Classes
 90
4095
 91
0
280
0
281
0
  0
CLASS
  1
MATERIAL
  2
AcDbMaterial
  3
ObjectDBX Classes
 90
1153
 91
0
280
0
281
0
  0
CLASS
  1
SCALE
  2
AcDbScale
  3
ObjectDBX Classes
 90
1153
 91
0
280
0
281
0
  0
CLASS
  1
TABLESTYLE
  2
AcDbTableStyle
  3
ObjectDBX Classes
 90
4095
 91
0
280
0
281
0
  0
CLASS
  1
MLEADERSTYLE
  2
AcDbMLeaderStyle
  3
ACDB_MLEADERSTYLE_CLASS
 90
4095
 91
0
280
0
281
0
  0
CLASS
  1
DICTIONARYVAR
  2
AcDbDictionaryVar
  3
ObjectDBX Classes
 90
0
 91
0
280
0
281
0
  0
CLASS
  1
CELLSTYLEMAP
  2
AcDbCellStyleMap
  3
ObjectDBX Classes
 90
1152
 91
0
280
0
281
0
  0
CLASS
  1
MENTALRAYRENDERSETTINGS
  2
AcDbMentalRayRenderSettings
  3
SCENEOE
 90
1024
 91
0
280
0
281
0
  0
CLASS
  1
ACDBDETAILVIEWSTYLE
  2
AcDbDetailViewStyle
  3
ObjectDBX Classes
 90
1025
 91
0
280
0
281
0
  0
CLASS
  1
ACDBSECTIONVIEWSTYLE
  2
AcDbSectionViewStyle
  3
ObjectDBX Classes
 90
1025
 91
0
280
0
281
0
  0
CLASS
  1
RASTERVARIABLES
  2
AcDbRasterVariables
  3
ISM
 90
0
 91
0
280
0
281
0
  0
CLASS
  1
LAYOUT
  2
AcDbLayout
  3
ObjectDBX Classes
 90
0
 91
0
280
0
281
0
  0
CLASS
  1
ACDBPLACEHOLDER
  2
AcDbPlaceHolder
  3
ObjectDBX Classes
 90
0
 91
0
280
0
281
0
  0
ENDSEC
  0
SECTION
  2
TABLES
  0
TABLE
  2
VPORT
  5
8
330
0
100
AcDbSymbolTable
 70
1
  0
VPORT
  5
23
330
8
100
AcDbSymbolTableRecord
100
AcDbViewportTableRecord
  2
*Active
 70
0
 10
0.0
 20
0.0
 11
1.0
 21
1.0
 12
0.0
 22
0.0
 13
0.0
 23
0.0
 14
0.5
 24
0.5
 15
0.5
 25
0.5
 16
0.0
 26
0.0
 36
1.0
 17
0.0
 27
0.0
 37
0.0
 40
1000.0
 41
1.34
 42
50.0
 43
0.0
 44
0.0
 50
0.0
 51
0.0
 71
0
 72
1000
 73
1
 74
3
 75
0
 76
0
 77
0
 78
0
281
0
 65
0
146
0.0
  0
ENDTAB
  0
TABLE
  2
LTYPE
  5
2
330
0
100
AcDbSymbolTable
 70
3
  0
LTYPE
  5
24
330
2
100
AcDbSymbolTableRecord
100
AcDbLinetypeTableRecord
  2
ByBlock
 70
0
  3

 72
65
 73
0
 40
0.0
  0
LTYPE
  5
25
330
2
100
AcDbSymbolTableRecord
100
AcDbLinetypeTableRecord
  2
ByLayer
 70
0
  3

 72
65
 73
0
 40
0.0
  0
LTYPE
  5
26
330
2
100
AcDbSymbolTableRecord
100
AcDbLinetypeTableRecord
  2
Continuous
 70
0
  3

 72
65
 73
0
 40
0.0
  0
ENDTAB
  0
TABLE
  2
LAYER
  5
1
330
0
100
AcDbSymbolTable
 70
3
  0
LAYER
  5
27
330
1
100
AcDbSymbolTableRecord
100
AcDbLayerTableRecord
  2
0
 70
0
 62
7
  6
Continuous
370
-3
390
13
347
21
  0
LAYER
  5
28
330
1
100
AcDbSymbolTableRecord
100
AcDbLayerTableRecord
  2
Defpoints
 70
0
 62
7
  6
Continuous
290
0
370
-3
390
13
347
21
  0
LAYER
  5
2F
330
1
100
AcDbSymbolTableRecord
100
AcDbLayerTableRecord
  2
M
 70
0
 62
7
  6
Continuous
370
-3
390
13
347
21
  0
ENDTAB
  0
TABLE
  2
STYLE
  5
5
330
0
100
AcDbSymbolTable
 70
1
  0
STYLE
  5
29
330
5
100
AcDbSymbolTableRecord
100
AcDbTextStyleTableRecord
  2
Standard
 70
0
 40
0.0
 41
1.0
 50
0.0
 71
0
 42
2.5
  3
txt
  4

  0
ENDTAB
  0
TABLE
  2
VIEW
  5
7
330
0
100
AcDbSymbolTable
 70
0
  0
ENDTAB
  0
TABLE
  2
UCS
  5
6
330
0
100
AcDbSymbolTable
 70
0
  0
ENDTAB
  0
TABLE
  2
APPID
  5
3
330
0
100
AcDbSymbolTable
 70
3
  0
APPID
  5
2A
330
3
100
AcDbSymbolTableRecord
100
AcDbRegAppTableRecord
  2
ACAD
 70
0
  0
APPID
  5
38
330
3
100
AcDbSymbolTableRecord
100
AcDbRegAppTableRecord
  2
HATCHBACKGROUNDCOLOR
 70
0
  0
APPID
  5
39
330
3
100
AcDbSymbolTableRecord
100
AcDbRegAppTableRecord
  2
EZDXF
 70
0
  0
ENDTAB
  0
TABLE
  2
DIMSTYLE
  5
4
330
0
100
AcDbSymbolTable
 70
1
100
AcDbDimStyleTable
  0
DIMSTYLE
105
2B
330
4
100
AcDbSymbolTableRecord
100
AcDbDimStyleTableRecord
  2
Standard
 70
0
 40
1.0
 41
2.5
 42
0.625
 43
3.75
 44
1.25
 45
0.0
 46
0.0
 47
0.0
 48
0.0
 49
2.5
140
2.5
141
2.5
142
0.0
143
0.03937007874
144
1.0
145
0.0
146
1.0
147
0.625
148
0.0
 69
0
 70
0
 71
0
 72
0
 73
0
 74
0
 75
0
 76
0
 77
1
 78
8
 79
3
170
0
171
3
172
1
173
0
174
0
175
0
176
0
177
0
178
0
179
2
271
2
272
2
273
2
274
3
275
0
276
0
277
2
278
44
279
0
280
0
281
0
282
0
283
0
284
8
285
0
286
0
288
0
289
3
290
0
371
-2
372
-2
  0
ENDTAB
  0
TABLE
  2
BLOCK_RECORD
  5
9
330
0
100
AcDbSymbolTable
 70
2
  0
BLOCK_RECORD
  5
17
330
9
100
AcDbSymbolTableRecord
100
AcDbBlockTableRecord
  2
*Model_Space
340
1A
 70
0
280
1
281
0
  0
BLOCK_RECORD
  5
1B
330
9
100
AcDbSymbolTableRecord
100
AcDbBlockTableRecord
  2
*Paper_Space
340
1E
 70
0
280
1
281
0
  0
ENDTAB
  0
ENDSEC
  0
SECTION
  2
BLOCKS
  0
BLOCK
  5
18
330
17
100
AcDbEntity
  8
0
100
AcDbBlockBegin
  2
*Model_Space
 70
0
 10
0.0
 20
0.0
 30
0.0
  3
*Model_Space
  1

  0
ENDBLK
  5
19
330
17
100
AcDbEntity
  8
0
100
AcDbBlockEnd
  0
BLOCK
  5
1C
330
1B
100
AcDbEntity
  8
0
100
AcDbBlockBegin
  2
*Paper_Space
 70
0
 10
0.0
 20
0.0
 30
0.0
  3
*Paper_Space
  1

  0
ENDBLK
  5
1D
330
1B
100
AcDbEntity
  8
0
100
AcDbBlockEnd
  0
ENDSEC
  0
SECTION
  2
ENTITIES
  0
LWPOLYLINE
  5
30
330
17
100
AcDbEntity
  8
M
100
AcDbPolyline
 90
47
 70
1
 10
228.2097470891804
 20
130.04922163188715
 10
226.86762287372542
 20
134.33493591760137
 10
224.13474398098177
 20
137.24384156058312
 10
235.61566998261307
 20
149.4642624952528
 10
242.326291059888
 20
153.74997678096713
 10
252.32264389973147
 20
164.3902020987692
 10
240.2925504178166
 20
178.61793620813137
 10
237.60943761338794
 20
184.32980437637204
 10
228.1983258009015
 20
194.34709285950336
 10
228.1983258009015
 20
195.7671440795049
 10
222.82982893908178
 20
200.05285836521935
 10
222.82982893908178
 20
208.6986564669616
 10
226.86020419618004
 20
215.8486143129027
 10
228.20145989374453
 20
224.4144961257114
 10
234.92393759677577
 20
240.15654654353148
 10
236.97887272288588
 20
242.3438415605831
 10
239.7496421107419
 20
242.3438415605831
 10
242.45003718171841
 20
239.4695120463478
 10
251.83823772582858
 20
235.18683998219714
 10
257.1890165708406
 20
230.91527013201173
 10
259.88150534256647
 20
230.91527013201173
 10
261.94265641168204
 20
228.72135879846965
 10
263.3031742067966
 20
222.9287597892796
 10
261.95143118727594
 20
221.4899500023607
 10
261.95143118727594
 20
217.20423571664625
 10
259.2671827563662
 20
214.3470928595036
 10
259.2671827563662
 20
211.5008247025746
 10
256.6017545749717
 20
207.24515913041463
 10
265.9778038336409
 20
192.98806266713308
 10
265.9778038336409
 20
177.28344740452007
 10
267.3199280490959
 20
175.85487597594852
 10
267.3199280490959
 20
172.9146092601298
 10
256.6115141745435
 20
162.94122737114202
 10
259.2671827563662
 20
158.7011441328773
 10
259.2671827563662
 20
155.85487597594826
 10
261.9443163434716
 20
153.00530623496044
 10
263.2864405589266
 20
145.86244909210345
 10
266.0065110826193
 20
142.96717681469374
 10
261.95143118727594
 20
137.2121493615923
 10
261.95143118727594
 20
132.91852143093197
 10
255.85513269620154
 20
126.42955584629745
 10
251.8223076109587
 20
126.42955584629745
 10
245.11168653368375
 20
120.71527013201167
 10
241.09176632619688
 20
120.71527013201167
 10
239.73452337359657
 20
119.27060615725638
 10
237.63691182643078
 20
120.01484624323754
 10
228.2097470891804
 20
130.04922163188715
  0
LWPOLYLINE
  5
31
330
17
100
AcDbEntity
  8
M
100
AcDbPolyline
 90
71
 70
1
 10
0.0
 20
1.5295558462974368
 10
2.737699908766267
 20
4.443593030508564
 10
6.747830250829701
 20
12.980444635673937
 10
6.747830250829701
 20
15.844001275734488
 10
12.11632711264965
 20
24.41542984716305
 10
12.11632711264965
 20
27.266158921388282
 10
16.155602528403314
 20
35.865055185428375
 10
26.890991799817243
 20
51.576992679966295
 10
30.920320349555386
 20
61.58433403565478
 10
33.59031455992933
 20
64.42630454737707
 10
33.59031455992933
 20
68.7120188330913
 10
35.660240404638884
 20
70.9152701320116
 10
38.416269413639405
 20
70.9152701320116
 10
54.48325344404603
 20
60.939179093274845
 10
61.76757887360607
 20
67.28296345237983
 10
55.06893035934346
 20
110.0636439616307
 10
51.73758196105594
 20
115.02793617829144
 10
48.298254213813394
 20
117.22445061262998
 10
52.3927397906706
 20
121.58266503305381
 10
56.41722891553913
 20
133.00589022026875
 10
61.788792989268984
 20
140.1528283297472
 10
65.80470975855413
 20
148.70199820546793
 10
67.14939962932831
 20
157.2898122433496
 10
69.25660626948638
 20
159.53274562131924
 10
72.74912598167849
 20
155.81527013201156
 10
70.08309509333455
 20
152.9775182228219
 10
73.27151380755659
 20
150.9412459501026
 10
94.70709993831427
 20
170.90548052310282
 10
100.07214178216105
 20
172.33313256211525
 10
104.10857539284291
 20
176.62955584629748
 10
108.13494803920776
 20
176.62955584629748
 10
110.87209487461824
 20
179.54300433328874
 10
115.65163734614603
 20
173.00206618671055
 10
121.01846080965251
 20
153.00830032768687
 10
122.37051277995803
 20
151.56916169023415
 10
122.37051277995803
 20
144.42630454737704
 10
125.66908379706842
 20
140.91527013201167
 10
128.3533322279784
 20
140.91527013201167
 10
131.05588780699463
 20
138.03864094981623
 10
139.07201880351207
 20
133.77241298915453
 10
156.53794075253302
 20
133.77241298915453
 10
158.60957156463996
 20
131.56734690462602
 10
157.26386018173977
 20
100.05477464589441
 10
148.488955211048
 20
92.15161049431487
 10
141.7723389828489
 20
90.72176280513777
 10
137.7368166639671
 20
87.85812727486886
 10
133.63271631243555
 20
87.85812727486886
 10
118.86934994243082
 20
105.00098441772599
 10
106.87934478069872
 20
105.00098441772599
 10
91.48541352019191
 20
88.61551866208617
 10
90.15953160903855
 20
85.79295277120647
 10
90.15953160903855
 20
70.14059026166275
 10
94.18590425540341
 20
65.85487597594852
 10
94.18590425540341
 20
62.935809914063555
 10
90.15953160903855
 20
54.36438134263499
 10
90.15953160903855
 20
48.65009562834932
 10
86.13315896267359
 20
40.07866705692065
 10
86.13315896267359
 20
37.20423571664633
 10
82.72110890250906
 20
33.572412989154586
 10
61.24712145522937
 20
33.572412989154586
 10
59.29336518044926
 20
31.49281382806135
 10
60.630178834876645
 20
11.571950482723636
 10
61.97492308448393
 20
10.140590261662808
 10
61.97492308448393
 20
5.775664288074855
 10
59.90499723977438
 20
3.572412989154561
 10
51.85225194704446
 20
3.572412989154561
 10
50.51012773158947
 20
2.143841560583115
 10
34.40463714612974
 20
2.143841560583115
 10
33.06342876266988
 20
0.7162449534228177
 10
1.4369977581445426
 20
0.0
 10
0.0
 20
1.5295558462974368
  0
LWPOLYLINE
  5
32
330
17
100
AcDbEntity
  8
M
100
AcDbPolyline
 90
11
 70
1
 10
34.332168539062515
 20
207.85812727486885
 10
31.633867758273926
 20
207.85812727486885
 10
28.177832779000322
 20
211.53676802263288
 10
35.68972719275587
 20
218.0787380032504
 10
38.41761421093781
 20
216.62694188420605
 10
51.85646899307827
 20
215.19649574863908
 10
53.92217779175401
 20
212.99773311880543
 10
53.92217779175401
 20
204.3470928595036
 10
51.84670929578728
 20
202.13794190306012
 10
41.036846262192064
 20
203.5762086911429
 10
34.332168539062515
 20
207.85812727486885
  0
LWPOLYLINE
  5
33
330
17
100
AcDbEntity
  8
M
100
AcDbPolyline
 90
65
 70
1
 10
778.623028457216
 20
244.4036503860899
 10
781.1076435479707
 20
251.52157889645787
 10
779.2834762161544
 20
255.00549684338137
 10
760.5980504528982
 20
256.43296435750904
 10
758.6764941559538
 20
258.6349151387292
 10
758.6764941559538
 20
265.85276798243706
 10
760.601024927277
 20
268.05812727486864
 10
766.8531554990872
 20
268.05812727486864
 10
769.3087950814132
 20
269.4651111621732
 10
774.8830532757294
 20
275.85276798243706
 10
774.8830532757294
 20
282.99562512529417
 10
779.8696868510449
 20
288.70991083957995
 10
779.8696868510449
 20
290.07548671942453
 10
773.6363948819005
 20
301.5040581479961
 10
773.6363948819005
 20
304.34920085301474
 10
771.8209504717369
 20
306.4295558462974
 10
768.0746400967566
 20
306.4295558462974
 10
757.4098433597345
 20
321.5260968306469
 10
760.5909783694456
 20
326.62955584629736
 10
764.3598387114295
 20
326.62955584629736
 10
774.295428656729
 20
332.3222540193161
 10
777.3763700633871
 20
335.8527679824371
 10
777.3763700633871
 20
338.7099108395798
 10
779.8696868510449
 20
341.56705369672267
 10
779.8696868510449
 20
344.42419655386556
 10
781.1192719253274
 20
345.8561217256092
 10
782.3654085756189
 20
361.56383079704267
 10
786.761235171352
 20
368.04031806622515
 10
790.5073222929209
 20
369.471224093972
 10
793.038168178886
 20
372.37137231477135
 10
798.1105289836498
 20
369.46511116217306
 10
801.8505041651365
 20
365.17939687645884
 10
811.786094110436
 20
359.4866987034403
 10
814.2885002565312
 20
359.4866987034403
 10
818.7160970597405
 20
355.8626458401969
 10
818.7160970597405
 20
351.50868924830115
 10
814.9761218782536
 20
342.9372606768727
 10
814.9761218782536
 20
340.13848226815134
 10
816.2555031790708
 20
338.6724129891544
 10
814.9761218782536
 20
337.2063437101577
 10
814.9761218782536
 20
332.92609137456253
 10
809.3176330608618
 20
325.00098441772604
 10
803.0783239562995
 20
325.00098441772604
 10
800.0162211523071
 20
321.4920579958719
 10
800.0162211523071
 20
311.56705369672267
 10
801.8316655624707
 20
309.48669870344025
 10
821.7781998637328
 20
309.48669870344025
 10
823.7279057134133
 20
307.25249077225413
 10
819.9627554535693
 20
301.49974020629634
 10
819.9627554535693
 20
298.6515463911582
 10
817.4549252226032
 20
292.9039981720144
 10
814.9715711567383
 20
290.0582718021584
 10
813.7249127629094
 20
280.05827180215834
 10
811.236146696767
 20
277.2063437101576
 10
811.236146696767
 20
272.9206294244434
 10
808.0649575316153
 20
269.28669870344027
 10
803.0783239562995
 20
269.28669870344027
 10
796.3040180981278
 20
261.52388264629633
 10
802.5067452911208
 20
252.99448383969835
 10
803.752982728935
 20
238.71359337531428
 10
805.035577634611
 20
237.24384156058298
 10
801.8285861251246
 20
233.56888419872524
 10
783.0473421166087
 20
235.00367171904946
 10
778.623028457216
 20
238.6250372809694
 10
778.623028457216
 20
244.4036503860899
  0
LWPOLYLINE
  5
34
330
17
100
AcDbEntity
  8
M
100
AcDbPolyline
 90
8
 70
1
 10
788.0275095915124
 20
329.2866987034403
 10
783.1418362128688
 20
329.2866987034403
 10
780.0937259021737
 20
324.3966497120182
 10
781.8851312612085
 20
322.3438415605829
 10
785.6251064426951
 20
322.3438415605829
 10
786.8263080171039
 20
320.9673600339279
 10
791.0568894885166
 20
325.8152701320115
 10
788.0275095915124
 20
329.2866987034403
  0
LWPOLYLINE
  5
35
330
17
100
AcDbEntity
  8
M
100
AcDbPolyline
 90
16
 70
1
 10
718.2600963565151
 20
330.66318023009535
 10
717.0588947821066
 20
329.2866987034403
 10
714.4746643556082
 20
329.2866987034403
 10
713.2280059617792
 20
330.71527013201165
 10
710.7346891741215
 20
330.71527013201165
 10
708.8101584027986
 20
332.92062942444346
 10
708.8101584027986
 20
341.4920579958719
 10
707.5307771019815
 20
342.95812727486884
 10
709.5120557923509
 20
345.22851517191424
 10
712.0268043873707
 20
343.78766416947917
 10
721.9734533212475
 20
349.4866987034401
 10
729.5148710362433
 20
349.4866987034401
 10
737.7236111155627
 20
342.97446232451756
 10
725.7834984206442
 20
327.8517874910457
 10
720.0797376042316
 20
328.5780159945634
 10
718.2600963565151
 20
330.66318023009535
  0
LWPOLYLINE
  5
36
330
17
100
AcDbEntity
  8
M
100
AcDbPolyline
 90
7
 70
1
 10
720.0300839472584
 20
334.42419655386556
 10
720.0300839472584
 20
338.6198122075265
 10
717.030200626956
 20
340.6823889109666
 10
715.2434503719429
 20
338.634915138729
 10
715.2434503719429
 20
335.8527679824371
 10
718.2600963565151
 20
332.39593146249945
 10
720.0300839472584
 20
334.42419655386556
  0
LWPOLYLINE
  5
37
330
17
100
AcDbEntity
  8
M
100
AcDbPolyline
 90
18
 70
1
 10
6216.0308734947685
 20
462.1496120506105
 10
6213.256022679052
 20
465.8121965328471
 10
6223.027380676111
 20
480.1426663078928
 10
6224.110329588814
 20
484.4308880677012
 10
6230.612224492156
 20
493.0128771401335
 10
6236.573418747752
 20
503.742386429496
 10
6238.783547599153
 20
505.20098441772575
 10
6247.521793181212
 20
505.20098441772575
 10
6250.277885724656
 20
501.5631593771691
 10
6250.277885724656
 20
491.5631593771693
 10
6252.440716282983
 20
488.7083934215476
 10
6253.526666561389
 20
468.64122994774704
 10
6247.521793181212
 20
460.71527013201177
 10
6242.010821524256
 20
460.71527013201177
 10
6240.928505849872
 20
462.1438415605831
 10
6229.122426716679
 20
462.1438415605831
 10
6228.035471472094
 20
460.7091462648397
 10
6216.0308734947685
 20
462.1496120506105
  0
ENDSEC
  0
SECTION
  2
OBJECTS
  0
DICTIONARY
  5
A
330
0
100
AcDbDictionary
281
1
  3
ACAD_COLOR
350
B
  3
ACAD_GROUP
350
C
  3
ACAD_LAYOUT
350
D
  3
ACAD_MATERIAL
350
E
  3
ACAD_MLEADERSTYLE
350
F
  3
ACAD_MLINESTYLE
350
10
  3
ACAD_PLOTSETTINGS
350
11
  3
ACAD_PLOTSTYLENAME
350
12
  3
ACAD_SCALELIST
350
14
  3
ACAD_TABLESTYLE
350
15
  3
ACAD_VISUALSTYLE
350
16
  3
EZDXF_META
350
2D
  0
DICTIONARY
  5
B
330
A
100
AcDbDictionary
281
1
  0
DICTIONARY
  5
C
330
A
100
AcDbDictionary
281
1
  0
DICTIONARY
  5
D
330
A
100
AcDbDictionary
281
1
  3
Model
350
1A
  3
Layout1
350
1E
  0
DICTIONARY
  5
E
330
A
100
AcDbDictionary
281
1
  3
ByBlock
350
1F
  3
ByLayer
350
20
  3
Global
350
21
  0
DICTIONARY
  5
F
330
A
100
AcDbDictionary
281
1
  3
Standard
350
2C
  0
DICTIONARY
  5
10
330
A
100
AcDbDictionary
281
1
  3
Standard
350
22
  0
DICTIONARY
  5
11
330
A
100
AcDbDictionary
281
1
  0
ACDBDICTIONARYWDFLT
  5
12
330
A
100
AcDbDictionary
281
1
  3
Normal
350
13
100
AcDbDictionaryWithDefault
340
13
  0
ACDBPLACEHOLDER
  5
13
330
12
  0
DICTIONARY
  5
14
330
A
100
AcDbDictionary
281
1
  0
DICTIONARY
  5
15
330
A
100
AcDbDictionary
281
1
  0
DICTIONARY
  5
16
330
A
100
AcDbDictionary
281
1
  0
LAYOUT
  5
1A
330
D
100
AcDbPlotSettings
  1

  4
A3
  6

 40
7.5
 41
20.0
 42
7.5
 43
20.0
 44
420.0
 45
297.0
 46
0.0
 47
0.0
 48
0.0
 49
0.0
140
0.0
141
0.0
142
1.0
143
1.0
 70
1024
 72
1
 73
0
 74
5
  7

 75
16
 76
0
 77
2
 78
300
147
1.0
148
0.0
149
0.0
100
AcDbLayout
  1
Model
 70
1
 71
0
 10
0.0
 20
0.0
 11
420.0
 21
297.0
 12
0.0
 22
0.0
 32
0.0
 14
1e+20
 24
1e+20
 34
1e+20
 15
-1e+20
 25
-1e+20
 35
-1e+20
146
0.0
 13
0.0
 23
0.0
 33
0.0
 16
1.0
 26
0.0
 36
0.0
 17
0.0
 27
1.0
 37
0.0
 76
1
330
17
  0
LAYOUT
  5
1E
330
D
100
AcDbPlotSettings
  1

  4
A3
  6

 40
7.5
 41
20.0
 42
7.5
 43
20.0
 44
420.0
 45
297.0
 46
0.0
 47
0.0
 48
0.0
 49
0.0
140
0.0
141
0.0
142
1.0
143
1.0
 70
0
 72
1
 73
0
 74
5
  7

 75
16
 76
0
 77
2
 78
300
147
1.0
148
0.0
149
0.0
100
AcDbLayout
  1
Layout1
 70
1
 71
1
 10
0.0
 20
0.0
 11
420.0
 21
297.0
 12
0.0
 22
0.0
 32
0.0
 14
1e+20
 24
1e+20
 34
1e+20
 15
-1e+20
 25
-1e+20
 35
-1e+20
146
0.0
 13
0.0
 23
0.0
 33
0.0
 16
1.0
 26
0.0
 36
0.0
 17
0.0
 27
1.0
 37
0.0
 76
1
330
1B
  0
MATERIAL
  5
1F
102
{ACAD_REACTORS
330
E
102
}
330
E
100
AcDbMaterial
  1
ByBlock
  2

 70
0
 40
1.0
 71
1
 41
1.0
 91
-1023410177
 42
1.0
 72
1
  3

 73
1
 74
1
 75
1
 44
0.5
 73
0
 45
1.0
 46
1.0
 77
1
  4

 78
1
 79
1
170
1
 48
1.0
171
1
  6

172
1
173
1
174
1
140
1.0
141
1.0
175
1
  7

176
1
177
1
178
1
143
1.0
179
1
  8

270
1
271
1
272
1
145
1.0
146
1.0
273
1
  9

274
1
275
1
276
1
 42
1.0
 72
1
  3

 73
1
 74
1
 75
1
 94
63
  0
MATERIAL
  5
20
102
{ACAD_REACTORS
330
E
102
}
330
E
100
AcDbMaterial
  1
ByLayer
  2

 70
0
 40
1.0
 71
1
 41
1.0
 91
-1023410177
 42
1.0
 72
1
  3

 73
1
 74
1
 75
1
 44
0.5
 73
0
 45
1.0
 46
1.0
 77
1
  4

 78
1
 79
1
170
1
 48
1.0
171
1
  6

172
1
173
1
174
1
140
1.0
141
1.0
175
1
  7

176
1
177
1
178
1
143
1.0
179
1
  8

270
1
271
1
272
1
145
1.0
146
1.0
273
1
  9

274
1
275
1
276
1
 42
1.0
 72
1
  3

 73
1
 74
1
 75
1
 94
63
  0
MATERIAL
  5
21
102
{ACAD_REACTORS
330
E
102
}
330
E
100
AcDbMaterial
  1
Global
  2

 70
0
 40
1.0
 71
1
 41
1.0
 91
-1023410177
 42
1.0
 72
1
  3

 73
1
 74
1
 75
1
 44
0.5
 73
0
 45
1.0
 46
1.0
 77
1
  4

 78
1
 79
1
170
1
 48
1.0
171
1
  6

172
1
173
1
174
1
140
1.0
141
1.0
175
1
  7

176
1
177
1
178
1
143
1.0
179
1
  8

270
1
271
1
272
1
145
1.0
146
1.0
273
1
  9

274
1
275
1
276
1
 42
1.0
 72
1
  3

 73
1
 74
1
 75
1
 94
63
  0
MLINESTYLE
  5
22
102
{ACAD_REACTORS
330
10
102
}
330
10
100
AcDbMlineStyle
  2
Standard
 70
0
  3

 62
256
 51
90.0
 52
90.0
 71
2
 49
0.5
 62
256
  6
BYLAYER
 49
-0.5
 62
256
  6
BYLAYER
  0
MLEADERSTYLE
  5
2C
102
{ACAD_REACTORS
330
F
102
}
330
F
100
AcDbMLeaderStyle
179
2
170
2
171
1
172
0
 90
2
 40
0.0
 41
0.0
173
1
 91
-1056964608
 92
-2
290
1
 42
2.0
291
1
 43
8.0
  3
Standard
 44
4.0
300

342
29
174
1
175
1
176
0
178
1
 93
-1056964608
 45
4.0
292
0
297
0
 46
4.0
 94
-1056964608
 47
1.0
 49
1.0
140
1.0
294
1
141
0.0
177
0
142
1.0
295
0
296
0
143
3.75
271
0
272
9
273
9
  0
DICTIONARY
  5
2D
330
A
100
AcDbDictionary
280
1
281
1
  3
CREATED_BY_EZDXF
350
2E
  3
WRITTEN_BY_EZDXF
350
3A
  0
DICTIONARYVAR
  5
2E
330
2D
100
DictionaryVariables
280
0
  1
1.4.4 @ 2026-07-23T17:47:45.736542+00:00
  0
DICTIONARYVAR
  5
3A
330
2D
100
DictionaryVariables
280
0
  1
1.4.4 @ 2026-07-23T17:47:45.739746+00:00
  0
ENDSEC
  0
EOF
