  0
SECTION
  2
HEADER
  9
$ACADVER
  1
AC1027
  9
$ACADMAINTVER
 70
105
  9
$DWGCODEPAGE
  3
ANSI_1252
  9
$LASTSAVEDBY
  1
ezdxf
  9
$REQUIREDVERSIONS
160
0
  9
$INSBASE
 10
0.0
 20
0.0
 30
0.0
  9
$EXTMIN
 10
1e+20
 20
1e+20
 30
1e+20
  9
$EXTMAX
 10
-1e+20
 20
-1e+20
 30
-1e+20
  9
$LIMMIN
 10
0.0
 20
0.0
  9
$LIMMAX
 10
420.0
 20
297.0
  9
$ORTHOMODE
 70
0
  9
$REGENMODE
 70
1
  9
$FILLMODE
 70
1
  9
$QTEXTMODE
 70
0
  9
$MIRRTEXT
 70
1
  9
$LTSCALE
 40
1.0
  9
$ATTMODE
 70
1
  9
$TEXTSIZE
 40
2.5
  9
$TRACEWID
 40
1.0
  9
$TEXTSTYLE
  7
Standard
  9
$CLAYER
  8
0
  9
$CELTYPE
  6
ByLayer
  9
$CECOLOR
 62
256
  9
$CELTSCALE
 40
1.0
  9
$DISPSILH
 70
0
  9
$DIMSCALE
 40
1.0
  9
$DIMASZ
 40
2.5
  9
$DIMEXO
 40
0.625
  9
$DIMDLI
 40
3.75
  9
$DIMRND
 40
0.0
  9
$DIMDLE
 40
0.0
  9
$DIMEXE
 40
1.25
  9
$DIMTP
 40
0.0
  9
$DIMTM
 40
0.0
  9
$DIMTXT
 40
2.5
  9
$DIMCEN
 40
2.5
  9
$DIMTSZ
 40
0.0
  9
$DIMTOL
 70
0
  9
$DIMLIM
 70
0
  9
$DIMTIH
 70
0
  9
$DIMTOH
 70
0
  9
$DIMSE1
 70
0
  9
$DIMSE2
 70
0
  9
$DIMTAD
 70
1
  9
$DIMZIN
 70
8
  9
$DIMBLK
  1

  9
$DIMASO
 70
1
  9
$DIMSHO
 70
1
  9
$DIMPOST
  1

  9
$DIMAPOST
  1

  9
$DIMALT
 70
0
  9
$DIMALTD
 70
3
  9
$DIMALTF
 40
0.03937007874
  9
$DIMLFAC
 40
1.0
  9
$DIMTOFL
 70
1
  9
$DIMTVP
 40
0.0
  9
$DIMTIX
 70
0
  9
$DIMSOXD
 70
0
  9
$DIMSAH
 70
0
  9
$DIMBLK1
  1

  9
$DIMBLK2
  1

  9
$DIMSTYLE
  2
ISO-25
  9
$DIMCLRD
 70
0
  9
$DIMCLRE
 70
0
  9
$DIMCLRT
 70
0
  9
$DIMTFAC
 40
1.0
  9
$DIMGAP
 40
0.625
  9
$DIMJUST
 70
0
  9
$DIMSD1
 70
0
  9
$DIMSD2
 70
0
  9
$DIMTOLJ
 70
0
  9
$DIMTZIN
 70
8
  9
$DIMALTZ
 70
0
  9
$DIMALTTZ
 70
0
  9
$DIMUPT
 70
0
  9
$DIMDEC
 70
2
  9
$DIMTDEC
 70
2
  9
$DIMALTU
 70
2
  9
$DIMALTTD
 70
3
  9
$DIMTXSTY
  7
Standard
  9
$DIMAUNIT
 70
0
  9
$DIMADEC
 70
0
  9
$DIMALTRND
 40
0.0
  9
$DIMAZIN
 70
0
  9
$DIMDSEP
 70
44
  9
$DIMATFIT
 70
3
  9
$DIMFRAC
 70
0
  9
$DIMLDRBLK
  1

  9
$DIMLUNIT
 70
2
  9
$DIMLWD
 70
-2
  9
$DIMLWE
 70
-2
  9
$DIMTMOVE
 70
0
  9
$DIMFXL
 40
1.0
  9
$DIMFXLON
 70
0
  9
$DIMJOGANG
 40
0.785398163397
  9
$DIMTFILL
 70
0
  9
$DIMTFILLCLR
 70
0
  9
$DIMARCSYM
 70
0
  9
$DIMLTYPE
  6

  9
$DIMLTEX1
  6

  9
$DIMLTEX2
  6

  9
$DIMTXTDIRECTION
 70
0
  9
$LUNITS
 70
2
  9
$LUPREC
 70
4
  9
$SKETCHINC
 40
1.0
  9
$FILLETRAD
 40
10.0
  9
$AUNITS
 70
0
  9
$AUPREC
 70
2
  9
$MENU
  1
.
  9
$ELEVATION
 40
0.0
  9
$PELEVATION
 40
0.0
  9
$THICKNESS
 40
0.0
  9
$LIMCHECK
 70
0
  9
$CHAMFERA
 40
0.0
  9
$CHAMFERB
 40
0.0
  9
$CHAMFERC
 40
0.0
  9
$CHAMFERD
 40
0.0
  9
$SKPOLY
 70
0
  9
$TDCREATE
 40
2461242.7714236113
  9
$TDUCREATE
 40
2458532.153996898
  9
$TDUPDATE
 40
2461242.7714236113
  9
$TDUUPDATE
 40
2458532.1544311
  9
$TDINDWG
 40
0.0
  9
$TDUSRTIMER
 40
0.0
  9
$USRTIMER
 70
1
  9
$ANGBASE
 50
0.0
  9
$ANGDIR
 70
0
  9
$PDMODE
 70
0
  9
$PDSIZE
 40
0.0
  9
$PLINEWID
 40
0.0
  9
$SPLFRAME
 70
0
  9
$SPLINETYPE
 70
6
  9
$SPLINESEGS
 70
8
  9
$HANDSEED
  5
5D
  9
$SURFTAB1
 70
6
  9
$SURFTAB2
 70
6
  9
$SURFTYPE
 70
6
  9
$SURFU
 70
6
  9
$SURFV
 70
6
  9
$UCSBASE
  2

  9
$UCSNAME
  2

  9
$UCSORG
 10
0.0
 20
0.0
 30
0.0
  9
$UCSXDIR
 10
1.0
 20
0.0
 30
0.0
  9
$UCSYDIR
 10
0.0
 20
1.0
 30
0.0
  9
$UCSORTHOREF
  2

  9
$UCSORTHOVIEW
 70
0
  9
$UCSORGTOP
 10
0.0
 20
0.0
 30
0.0
  9
$UCSORGBOTTOM
 10
0.0
 20
0.0
 30
0.0
  9
$UCSORGLEFT
 10
0.0
 20
0.0
 30
0.0
  9
$UCSORGRIGHT
 10
0.0
 20
0.0
 30
0.0
  9
$UCSORGFRONT
 10
0.0
 20
0.0
 30
0.0
  9
$UCSORGBACK
 10
0.0
 20
0.0
 30
0.0
  9
$PUCSBASE
  2

  9
$PUCSNAME
  2

  9
$PUCSORG
 10
0.0
 20
0.0
 30
0.0
  9
$PUCSXDIR
 10
1.0
 20
0.0
 30
0.0
  9
$PUCSYDIR
 10
0.0
 20
1.0
 30
0.0
  9
$PUCSORTHOREF
  2

  9
$PUCSORTHOVIEW
 70
0
  9
$PUCSORGTOP
 10
0.0
 20
0.0
 30
0.0
  9
$PUCSORGBOTTOM
 10
0.0
 20
0.0
 30
0.0
  9
$PUCSORGLEFT
 10
0.0
 20
0.0
 30
0.0
  9
$PUCSORGRIGHT
 10
0.0
 20
0.0
 30
0.0
  9
$PUCSORGFRONT
 10
0.0
 20
0.0
 30
0.0
  9
$PUCSORGBACK
 10
0.0
 20
0.0
 30
0.0
  9
$USERI1
 70
0
  9
$USERI2
 70
0
  9
$USERI3
 70
0
  9
$USERI4
 70
0
  9
$USERI5
 70
0
  9
$USERR1
 40
0.0
  9
$USERR2
 40
0.0
  9
$USERR3
 40
0.0
  9
$USERR4
 40
0.0
  9
$USERR5
 40
0.0
  9
$WORLDVIEW
 70
1
  9
$SHADEDGE
 70
3
  9
$SHADEDIF
 70
70
  9
$TILEMODE
 70
1
  9
$MAXACTVP
 70
64
  9
$PINSBASE
 10
0.0
 20
0.0
 30
0.0
  9
$PLIMCHECK
 70
0
  9
$PEXTMIN
 10
1e+20
 20
1e+20
 30
1e+20
  9
$PEXTMAX
 10
-1e+20
 20
-1e+20
 30
-1e+20
  9
$PLIMMIN
 10
0.0
 20
0.0
  9
$PLIMMAX
 10
420.0
 20
297.0
  9
$UNITMODE
 70
0
  9
$VISRETAIN
 70
1
  9
$PLINEGEN
 70
0
  9
$PSLTSCALE
 70
1
  9
$TREEDEPTH
 70
3020
  9
$CMLSTYLE
  2
Standard
  9
$CMLJUST
 70
0
  9
$CMLSCALE
 40
20.0
  9
$PROXYGRAPHICS
 70
1
  9
$MEASUREMENT
 70
1
  9
$CELWEIGHT
370
-1
  9
$ENDCAPS
280
0
  9
$JOINSTYLE
280
0
  9
$LWDISPLAY
290
0
  9
$INSUNITS
 70
4
  9
$HYPERLINKBASE
  1

  9
$STYLESHEET
  1

  9
$XEDIT
290
1
  9
$CEPSNTYPE
380
0
  9
$PSTYLEMODE
290
1
  9
$FINGERPRINTGUID
  2
{69254B59-2BDC-494C-9C20-F9CAEBE26F26}
  9
$VERSIONGUID
  2
{C17250D4-1A34-499F-A98D-E9EA1B4C5314}
  9
$EXTNAMES
290
1
  9
$PSVPSCALE
 40
0.0
  9
$OLESTARTUP
290
0
  9
$SORTENTS
280
127
  9
$INDEXCTL
280
0
  9
$HIDETEXT
280
1
  9
$XCLIPFRAME
280
1
  9
$HALOGAP
280
0
  9
$OBSCOLOR
 70
257
  9
$OBSLTYPE
280
0
  9
$INTERSECTIONDISPLAY
280
0
  9
$INTERSECTIONCOLOR
 70
257
  9
$DIMASSOC
280
2
  9
$PROJECTNAME
  1

  9
$CAMERADISPLAY
290
0
  9
$LENSLENGTH
 40
50.0
  9
$CAMERAHEIGHT
 40
0.0
  9
$STEPSPERSEC
 40
24.0
  9
$STEPSIZE
 40
100.0
  9
$3DDWFPREC
 40
2.0
  9
$PSOLWIDTH
 40
0.005
  9
$PSOLHEIGHT
 40
0.08
  9
$LOFTANG1
 40
1.570796326795
  9
$LOFTANG2
 40
1.570796326795
  9
$LOFTMAG1
 40
0.0
  9
$LOFTMAG2
 40
0.0
  9
$LOFTPARAM
 70
7
  9
$LOFTNORMALS
280
1
  9
$LATITUDE
 40
37.795
  9
$LONGITUDE
 40
-122.394
  9
$NORTHDIRECTION
 40
0.0
  9
$TIMEZONE
 70
-8000
  9
$LIGHTGLYPHDISPLAY
280
1
  9
$TILEMODELIGHTSYNCH
280
1
  9
$CMATERIAL
347
20
  9
$SOLIDHIST
280
0
  9
$SHOWHIST
280
1
  9
$DWFFRAME
280
2
  9
$DGNFRAME
280
2
  9
$REALWORLDSCALE
290
1
  9
$INTERFERECOLOR
 62
256
  9
$CSHADOW
280
0
  9
$SHADOWPLANELOCATION
 40
0.0
  0
ENDSEC
  0
SECTION
  2
CLASSES
  0
CLASS
  1
ACDBDICTIONARYWDFLT
  2
AcDbDictionaryWithDefault
  3
ObjectDBX Classes
 90
0
 91
0
280
0
281
0
  0
CLASS
  1
SUN
  2
AcDbSun
  3
SCENEOE
 90
1153
 91
0
280
0
281
0
  0
CLASS
  1
VISUALSTYLE
  2
AcDbVisualStyle
  3
ObjectDBX Classes
 90
4095
 91
0
280
0
281
0
  0
CLASS
  1
MATERIAL
  2
AcDbMaterial
  3
ObjectDBX Classes
 90
1153
 91
0
280
0
281
0
  0
CLASS
  1
SCALE
  2
AcDbScale
  3
ObjectDBX Classes
 90
1153
 91
0
280
0
281
0
  0
CLASS
  1
TABLESTYLE
  2
AcDbTableStyle
  3
ObjectDBX Classes
 90
4095
 91
0
280
0
281
0
  0
CLASS
  1
MLEADERSTYLE
  2
AcDbMLeaderStyle
  3
ACDB_MLEADERSTYLE_CLASS
 90
4095
 91
0
280
0
281
0
  0
CLASS
  1
DICTIONARYVAR
  2
AcDbDictionaryVar
  3
ObjectDBX Classes
 90
0
 91
0
280
0
281
0
  0
CLASS
  1
CELLSTYLEMAP
  2
AcDbCellStyleMap
  3
ObjectDBX Classes
 90
1152
 91
0
280
0
281
0
  0
CLASS
  1
MENTALRAYRENDERSETTINGS
  2
AcDbMentalRayRenderSettings
  3
SCENEOE
 90
1024
 91
0
280
0
281
0
  0
CLASS
  1
ACDBDETAILVIEWSTYLE
  2
AcDbDetailViewStyle
  3
ObjectDBX Classes
 90
1025
 91
0
280
0
281
0
  0
CLASS
  1
ACDBSECTIONVIEWSTYLE
  2
AcDbSectionViewStyle
  3
ObjectDBX Classes
 90
1025
 91
0
280
0
281
0
  0
CLASS
  1
RASTERVARIABLES
  2
AcDbRasterVariables
  3
ISM
 90
0
 91
0
280
0
281
0
  0
CLASS
  1
LAYOUT
  2
AcDbLayout
  3
ObjectDBX Classes
 90
0
 91
0
280
0
281
0
  0
CLASS
  1
ACDBPLACEHOLDER
  2
AcDbPlaceHolder
  3
ObjectDBX Classes
 90
0
 91
0
280
0
281
0
  0
ENDSEC
  0
SECTION
  2
TABLES
  0
TABLE
  2
VPORT
  5
8
330
0
100
AcDbSymbolTable
 70
1
  0
VPORT
  5
23
330
8
100
AcDbSymbolTableRecord
100
AcDbViewportTableRecord
  2
*Active
 70
0
 10
0.0
 20
0.0
 11
1.0
 21
1.0
 12
0.0
 22
0.0
 13
0.0
 23
0.0
 14
0.5
 24
0.5
 15
0.5
 25
0.5
 16
0.0
 26
0.0
 36
1.0
 17
0.0
 27
0.0
 37
0.0
 40
1000.0
 41
1.34
 42
50.0
 43
0.0
 44
0.0
 50
0.0
 51
0.0
 71
0
 72
1000
 73
1
 74
3
 75
0
 76
0
 77
0
 78
0
281
0
 65
0
146
0.0
  0
ENDTAB
  0
TABLE
  2
LTYPE
  5
2
330
0
100
AcDbSymbolTable
 70
3
  0
LTYPE
  5
24
330
2
100
AcDbSymbolTableRecord
100
AcDbLinetypeTableRecord
  2
ByBlock
 70
0
  3

 72
65
 73
0
 40
0.0
  0
LTYPE
  5
25
330
2
100
AcDbSymbolTableRecord
100
AcDbLinetypeTableRecord
  2
ByLayer
 70
0
  3

 72
65
 73
0
 40
0.0
  0
LTYPE
  5
26
330
2
100
AcDbSymbolTableRecord
100
AcDbLinetypeTableRecord
  2
Continuous
 70
0
  3

 72
65
 73
0
 40
0.0
  0
ENDTAB
  0
TABLE
  2
LAYER
  5
1
330
0
100
AcDbSymbolTable
 70
3
  0
LAYER
  5
27
330
1
100
AcDbSymbolTableRecord
100
AcDbLayerTableRecord
  2
0
 70
0
 62
7
  6
Continuous
370
-3
390
13
347
21
  0
LAYER
  5
28
330
1
100
AcDbSymbolTableRecord
100
AcDbLayerTableRecord
  2
Defpoints
 70
0
 62
7
  6
Continuous
290
0
370
-3
390
13
347
21
  0
LAYER
  5
2F
330
1
100
AcDbSymbolTableRecord
100
AcDbLayerTableRecord
  2
C
 70
0
 62
7
  6
Continuous
370
-3
390
13
347
21
  0
ENDTAB
  0
TABLE
  2
STYLE
  5
5
330
0
100
AcDbSymbolTable
 70
1
  0
STYLE
  5
29
330
5
100
AcDbSymbolTableRecord
100
AcDbTextStyleTableRecord
  2
Standard
 70
0
 40
0.0
 41
1.0
 50
0.0
 71
0
 42
2.5
  3
txt
  4

  0
ENDTAB
  0
TABLE
  2
VIEW
  5
7
330
0
100
AcDbSymbolTable
 70
0
  0
ENDTAB
  0
TABLE
  2
UCS
  5
6
330
0
100
AcDbSymbolTable
 70
0
  0
ENDTAB
  0
TABLE
  2
APPID
  5
3
330
0
100
AcDbSymbolTable
 70
3
  0
APPID
  5
2A
330
3
100
AcDbSymbolTableRecord
100
AcDbRegAppTableRecord
  2
ACAD
 70
0
  0
APPID
  5
5A
330
3
100
AcDbSymbolTableRecord
100
AcDbRegAppTableRecord
  2
HATCHBACKGROUNDCOLOR
 70
0
  0
APPID
  5
5B
330
3
100
AcDbSymbolTableRecord
100
AcDbRegAppTableRecord
  2
EZDXF
 70
0
  0
ENDTAB
  0
TABLE
  2
DIMSTYLE
  5
4
330
0
100
AcDbSymbolTable
 70
1
100
AcDbDimStyleTable
  0
DIMSTYLE
105
2B
330
4
100
AcDbSymbolTableRecord
100
AcDbDimStyleTableRecord
  2
Standard
 70
0
 40
1.0
 41
2.5
 42
0.625
 43
3.75
 44
1.25
 45
0.0
 46
0.0
 47
0.0
 48
0.0
 49
2.5
140
2.5
141
2.5
142
0.0
143
0.03937007874
144
1.0
145
0.0
146
1.0
147
0.625
148
0.0
 69
0
 70
0
 71
0
 72
0
 73
0
 74
0
 75
0
 76
0
 77
1
 78
8
 79
3
170
0
171
3
172
1
173
0
174
0
175
0
176
0
177
0
178
0
179
2
271
2
272
2
273
2
274
3
275
0
276
0
277
2
278
44
279
0
280
0
281
0
282
0
283
0
284
8
285
0
286
0
288
0
289
3
290
0
371
-2
372
-2
  0
ENDTAB
  0
TABLE
  2
BLOCK_RECORD
  5
9
330
0
100
AcDbSymbolTable
 70
2
  0
BLOCK_RECORD
  5
17
330
9
100
AcDbSymbolTableRecord
100
AcDbBlockTableRecord
  2
*Model_Space
340
1A
 70
0
280
1
281
0
  0
BLOCK_RECORD
  5
1B
330
9
100
AcDbSymbolTableRecord
100
AcDbBlockTableRecord
  2
*Paper_Space
340
1E
 70
0
280
1
281
0
  0
ENDTAB
  0
ENDSEC
  0
SECTION
  2
BLOCKS
  0
BLOCK
  5
18
330
17
100
AcDbEntity
  8
0
100
AcDbBlockBegin
  2
*Model_Space
 70
0
 10
0.0
 20
0.0
 30
0.0
  3
*Model_Space
  1

  0
ENDBLK
  5
19
330
17
100
AcDbEntity
  8
0
100
AcDbBlockEnd
  0
BLOCK
  5
1C
330
1B
100
AcDbEntity
  8
0
100
AcDbBlockBegin
  2
*Paper_Space
 70
0
 10
0.0
 20
0.0
 30
0.0
  3
*Paper_Space
  1

  0
ENDBLK
  5
1D
330
1B
100
AcDbEntity
  8
0
100
AcDbBlockEnd
  0
ENDSEC
  0
SECTION
  2
ENTITIES
  0
LWPOLYLINE
  5
30
330
17
100
AcDbEntity
  8
C
100
AcDbPolyline
 90
26
 70
1
 10
243.38191774514334
 20
96.51382226894157
 10
240.60802460977087
 20
100.03082288006249
 10
235.0713611184786
 20
100.03082288006249
 10
233.9446327162789
 20
98.60225145149104
 10
231.59419739217373
 20
98.60225145149104
 10
230.46746898997407
 20
100.03082288006249
 10
227.08728378337517
 20
100.03082288006249
 10
224.21895203772903
 20
103.6675615754703
 10
224.21895203772903
 20
110.879798470369
 10
229.32435333693175
 20
117.35290273683997
 10
240.6326054860349
 20
123.08796573720538
 10
245.20444062474562
 20
123.08796573720538
 10
250.33370528832077
 20
118.02979648505752
 10
250.33370528832077
 20
106.59408418465466
 10
253.10801751521385
 20
103.07655221018908
 10
258.741659526212
 20
101.64798078161763
 10
259.8593859668707
 20
100.23082288006246
 10
263.23957117346964
 20
100.23082288006246
 10
266.10346320119027
 20
96.59971327341022
 10
267.239277307942
 20
87.95916647665092
 10
264.37730619423525
 20
84.33049238406876
 10
259.8601771586861
 20
82.89868293763114
 10
256.4610827300431
 20
80.02555682945467
 10
251.2988537182111
 20
80.75279635661114
 10
244.5068950948445
 20
92.23476842658962
 10
243.38191774514334
 20
96.51382226894157
  0
LWPOLYLINE
  5
31
330
17
100
AcDbEntity
  8
C
100
AcDbPolyline
 90
98
 70
1
 10
0.0
 20
395.0961330040419
 10
0.0
 20
429.4512270417974
 10
2.868331745646227
 20
433.0879657372053
 10
11.979137482949099
 20
433.0879657372053
 10
13.105865885148782
 20
431.659394308634
 10
17.61277949394735
 20
431.659394308634
 10
18.739507896147035
 20
430.2308228800624
 10
31.13352032034311
 20
430.2308228800624
 10
32.26024872254274
 20
428.8022514514911
 10
50.28790315773701
 20
428.8022514514911
 10
51.41463155993664
 20
427.37368002291953
 10
56.95129505122909
 20
427.37368002291953
 10
58.07802345342872
 20
428.8022514514911
 10
72.82247120172985
 20
428.8022514514911
 10
73.94919960392954
 20
427.37368002291953
 10
77.23240629082268
 20
427.37368002291953
 10
78.3591346930223
 20
428.8022514514911
 10
94.23031084352313
 20
428.8022514514911
 10
95.35703924572275
 20
427.37368002291953
 10
103.24413806112024
 20
427.37368002291953
 10
105.49759486551952
 20
424.51653716577687
 10
107.65407315021305
 20
424.51653716577687
 10
109.90752995461234
 20
427.37368002291953
 10
112.25796527871736
 20
427.37368002291953
 10
113.35885503420079
 20
425.9778692422378
 10
115.61231183860008
 20
427.4064406708091
 10
116.76487888751596
 20
425.9451085943482
 10
121.27179249631453
 20
425.9451085943482
 10
122.39852089851416
 20
424.51653716577687
 10
129.158891311712
 20
424.51653716577687
 10
131.41234811611133
 20
421.65939430863375
 10
141.55290373590807
 20
421.65939430863375
 10
142.6796321381077
 20
420.2308228800624
 10
147.18654574690632
 20
420.2308228800624
 10
148.31578283825482
 20
418.79907070124614
 10
169.72362248004802
 20
417.3704992726746
 10
170.84784219309884
 20
415.9451085943482
 10
175.3547558018974
 20
415.9451085943482
 10
176.47306425436642
 20
414.52721276389923
 10
183.13726832327092
 20
415.9354627480158
 10
184.2922895407722
 20
417.3999064484628
 10
189.97764415422907
 20
414.51653716577664
 10
221.55062029208273
 20
414.51653716577664
 10
222.67734869428241
 20
413.0879657372053
 10
225.9605553811756
 20
413.0879657372053
 10
227.08728378337528
 20
414.51653716577664
 10
236.19808952067817
 20
414.51653716577664
 10
237.3248179228778
 20
413.0879657372053
 10
240.70500312947672
 20
413.0879657372053
 10
243.57333487512295
 20
409.4512270417974
 10
243.57333487512295
 20
403.66756157547036
 10
240.70500312947672
 20
400.03082288006243
 10
220.42389188988315
 20
400.03082288006243
 10
219.29716348768352
 20
398.6022514514911
 10
210.18635775038064
 20
398.6022514514911
 10
209.05962934818095
 20
400.03082288006243
 10
197.79234532618452
 20
400.03082288006243
 10
196.66561692398483
 20
401.459394308634
 10
185.39833290198848
 20
401.459394308634
 10
184.2887927758619
 20
402.86617283657677
 10
180.908607569263
 20
401.43760140800543
 10
179.76469089099018
 20
402.8879657372053
 10
167.3706784667941
 20
402.8879657372053
 10
166.29243932444737
 20
404.2550579565165
 10
165.21420018210065
 20
402.8879657372053
 10
160.63488892985995
 20
402.8879657372053
 10
154.99395910256487
 20
405.74880466382444
 10
145.9570368146985
 20
407.18103635309654
 10
144.83611042280126
 20
408.6022514514911
 10
140.3291968140027
 20
408.6022514514911
 10
138.07574000960338
 20
411.459394308634
 10
122.30154237880842
 20
411.459394308634
 10
121.17481397660879
 20
412.8879657372053
 10
95.26006072601697
 20
412.8879657372053
 10
94.13333232381734
 20
414.31653716577665
 10
90.85012563692416
 20
414.31653716577665
 10
89.67490797487166
 20
412.82648652794495
 10
88.49969031281913
 20
414.31653716577665
 10
86.34321202812559
 20
414.31653716577665
 10
85.21648362592593
 20
412.8879657372053
 10
79.48586309522199
 20
412.8879657372053
 10
78.35913469302233
 20
414.31653716577665
 10
74.97894948642342
 20
414.31653716577665
 10
72.77398194187698
 20
417.1122008136592
 10
71.69574279953022
 20
415.7451085943482
 10
61.55518717973346
 20
415.7451085943482
 10
60.428458777533834
 20
414.31653716577665
 10
50.28790315773701
 20
414.31653716577665
 10
49.16117475553733
 20
412.8879657372053
 10
45.75791461033759
 20
412.8879657372053
 10
37.870815794940086
 20
408.6022514514911
 10
35.64043392914168
 20
408.6022514514911
 10
34.517340884337
 20
407.1782892683216
 10
19.851166756822884
 20
405.7478935461638
 10
15.339860109991054
 20
402.8879657372053
 10
13.102336659847364
 20
402.8879657372053
 10
2.9123078841894467
 20
391.4036372557905
 10
0.0
 20
395.0961330040419
  0
LWPOLYLINE
  5
32
330
17
100
AcDbEntity
  8
C
100
AcDbPolyline
 90
10
 70
1
 10
226.47240884212832
 20
256.5896984399938
 10
232.70757497398603
 20
265.93259228950484
 10
238.44138454615364
 20
267.3865640746622
 10
241.31987807072363
 20
263.73694132751166
 10
241.31987807072363
 20
256.51904318565056
 10
235.06537160907192
 20
250.03082288006252
 10
232.8060163630772
 20
250.03082288006252
 10
229.37477681525598
 20
247.13052571703597
 10
226.47240884212832
 20
250.81041871832755
 10
226.47240884212832
 20
256.5896984399938
  0
LWPOLYLINE
  5
33
330
17
100
AcDbEntity
  8
C
100
AcDbPolyline
 90
26
 70
1
 10
120.04808557440904
 20
132.8879657372054
 10
118.92135717220941
 20
132.8879657372054
 10
110.41938341556506
 20
143.66756157547033
 10
110.41938341556506
 20
145.16551275608325
 10
114.39805631256816
 20
150.21004559398276
 10
120.03169832356639
 20
153.06718845112556
 10
122.30154237880834
 20
155.94510859434817
 10
124.56165019115001
 20
155.94510859434817
 10
130.19529220214824
 20
161.65939430863398
 10
132.44209799860513
 20
161.65939430863398
 10
135.87613860877357
 20
166.01339150144756
 10
143.81036090229443
 20
154.51653716577673
 10
144.9330889425071
 20
154.51653716577673
 10
154.5617911013511
 20
142.30836989894036
 10
154.5617911013511
 20
140.8769924891533
 10
164.72721864315398
 20
126.55623937668858
 10
161.83401497550176
 20
122.88796573720539
 10
153.94691616010425
 20
122.88796573720539
 10
152.82018775790462
 20
121.45939430863395
 10
146.05981734470674
 20
121.45939430863395
 10
144.9330889425071
 20
120.0308228800625
 10
138.17271852930924
 20
120.0308228800625
 10
137.03880605759022
 20
118.59314281764799
 10
133.01101833552144
 20
119.32268641723687
 10
126.78539531760383
 20
124.3457756355143
 10
120.04808557440904
 20
132.8879657372054
  0
LWPOLYLINE
  5
34
330
17
100
AcDbEntity
  8
C
100
AcDbPolyline
 90
88
 70
1
 10
60.851916588801096
 20
49.37096512608441
 10
54.70137212705478
 20
57.16919943974486
 10
39.02400146776608
 20
55.749397030571245
 10
37.89389073354105
 20
54.31653716577678
 10
31.114057740785878
 20
54.31653716577678
 10
28.80892364295412
 20
52.85520508931574
 10
25.914753250591783
 20
56.52470443261326
 10
25.914753250591783
 20
60.81041871832748
 10
23.661296446192527
 20
63.66756157547038
 10
23.661296446192527
 20
66.52470443261326
 10
19.795096425356984
 20
71.4266336607442
 10
17.593316914390144
 20
70.03082288006257
 10
13.093977934146878
 20
70.03082288006257
 10
9.71379272754795
 20
67.17368002291968
 10
5.218767069751371
 20
67.17368002291968
 10
4.0557715218764026
 20
65.69912572216141
 10
0.0
 20
69.37218691524238
 10
0.0
 20
228.02265561322588
 10
10.140555619796793
 20
240.87979847036877
 10
10.140555619796793
 20
246.5247044326133
 10
6.760370413197866
 20
250.81041871832755
 10
6.760370413197866
 20
258.0226556132259
 10
10.147108486878414
 20
262.3166782354209
 10
11.273836889078071
 20
268.0309639497067
 10
14.184105027495509
 20
271.7208735178942
 10
15.368324651088894
 20
270.21940935304633
 10
21.001966662087145
 20
268.790837924475
 10
27.241481652791443
 20
260.87979847036877
 10
27.241481652791443
 20
257.95327586118464
 10
26.14211349859863
 20
256.55939430863396
 10
27.241481652791443
 20
255.16551275608302
 10
27.241481652791443
 20
248.0226556132259
 10
31.748395261590012
 20
242.3083698989401
 10
31.748395261590012
 20
236.5867565504518
 10
38.50573892630982
 20
225.16330191416588
 10
39.631672251618674
 20
215.17035842298606
 10
46.907717951138075
 20
205.94510859434823
 10
53.671618820417045
 20
205.94510859434823
 10
62.685446038014234
 20
193.08796573720534
 10
69.41770511886705
 20
193.08796573720534
 10
75.05134712986528
 20
190.23082288006242
 10
78.45611321272816
 20
190.23082288006242
 10
81.32444495837431
 20
186.5940841846546
 10
81.32444495837431
 20
176.5940841846546
 10
82.45117336057395
 20
175.16551275608327
 10
82.45117336057395
 20
172.3036008609564
 10
93.71277980619122
 20
155.1693819915816
 10
94.83863291768834
 20
149.4595353782784
 10
98.25273123937592
 20
145.1308228800625
 10
95.3570392457228
 20
141.45939430863396
 10
81.7412565478739
 20
141.45939430863396
 10
63.713602112679595
 20
162.88796573720532
 10
35.640433929141736
 20
162.88796573720532
 10
32.889240360930884
 20
159.39974575593686
 10
35.12858046818895
 20
153.72125697401296
 10
35.12858046818895
 20
148.02265561322614
 10
38.522882371929136
 20
143.71904286133096
 10
36.26942556752982
 20
138.0047571470453
 10
39.63549407698752
 20
133.7369413275118
 10
39.63549407698752
 20
129.45122704179747
 10
41.9099256464624
 20
126.5674904198667
 10
38.52974043986346
 20
120.85320470558104
 10
42.40080434233961
 20
115.94510859434814
 10
46.81073943143221
 20
115.94510859434814
 10
47.9374678336319
 20
117.3736800229197
 10
63.8086439841328
 20
117.3736800229197
 10
66.67697572977899
 20
113.73694132751177
 10
66.67697572977899
 20
108.0226556132261
 10
68.93043253417824
 20
105.16551275608322
 10
68.93043253417824
 20
102.30836989894033
 10
74.56407454517644
 20
95.1655127560832
 10
74.56407454517644
 20
92.30836989894043
 10
75.70491964451736
 20
90.86190000418814
 10
74.57666285407258
 20
88.00088148051466
 10
82.45117336057395
 20
76.59055077527522
 10
82.45117336057395
 20
73.73694132751186
 10
84.6993357056145
 20
70.8865112800886
 10
85.82606410781415
 20
63.74365413723149
 10
89.20499090669013
 20
59.45953537827842
 10
90.33171930888977
 20
53.745249663992745
 10
93.70608697798025
 20
49.46691139529635
 10
95.98603088411095
 20
43.68546004165119
 10
93.10358244132352
 20
40.030822880062544
 10
87.4699404303253
 20
40.030822880062544
 10
86.34181480750891
 20
38.60047992478721
 10
66.52711357058769
 20
39.318277855693864
 10
61.97864499100073
 20
45.085250840370186
 10
60.851916588801096
 20
49.37096512608441
  0
LWPOLYLINE
  5
35
330
17
100
AcDbEntity
  8
C
100
AcDbPolyline
 90
194
 70
1
 10
909.847660801484
 20
8.551710300388592
 10
908.6230540172003
 20
7.173680022919626
 10
900.9214623463793
 20
7.173680022919626
 10
893.35040928828
 20
14.273333343125083
 10
890.8497611613546
 20
11.459394308633964
 10
885.6751608084729
 20
11.459394308633964
 10
880.5752166024847
 20
18.63300058316153
 10
876.105356467205
 20
22.225758847351564
 10
876.105356467205
 20
26.512936734910507
 10
871.0519315100831
 20
30.777839978875065
 10
867.2023391650581
 20
36.55368560860439
 10
869.1548297845824
 20
40.215529318640584
 10
874.2531367334954
 20
41.64978997879631
 10
879.3426004443867
 20
45.94510859434819
 10
881.8798198020812
 20
45.94510859434819
 10
888.2162505050726
 20
51.6493352714279
 10
893.2886027662321
 20
53.076294333628816
 10
895.8214713169876
 20
55.92649049176202
 10
904.7081177449105
 20
60.21220477747635
 10
907.263704830944
 20
63.08796573720532
 10
909.8027466674934
 20
63.08796573720532
 10
912.903918097691
 20
66.57766396628485
 10
909.1278265404475
 20
75.07601390710994
 10
906.5738585057974
 20
77.9499529744112
 10
906.5738585057974
 20
82.25246347028381
 10
904.0497428673489
 20
87.93315676425284
 10
899.6278660565685
 20
92.90902347240315
 10
897.1736607516434
 20
94.28986231010772
 10
895.3332440432247
 20
92.21887104996718
 10
891.5246812884005
 20
83.64744247853861
 10
887.7175512299693
 20
79.36334038298443
 10
882.641898747275
 20
66.51235302944403
 10
874.3116165534834
 20
54.25413387547928
 10
872.9866400375274
 20
55.745108594348224
 10
869.1923934852903
 20
55.745108594348224
 10
862.8447888939168
 20
60.03082288006256
 10
860.3057470573674
 20
60.03082288006256
 10
853.9581424659941
 20
64.3165371657768
 10
851.4946126948395
 20
64.3165371657768
 10
850.1714713989074
 20
62.82762759042293
 10
845.0504914236832
 20
70.03082288006257
 10
841.2486170806603
 20
70.03082288006257
 10
840.0240102963766
 20
71.40885315753142
 10
838.7994035120927
 20
70.03082288006257
 10
833.7026065742663
 20
70.03082288006257
 10
831.1161547355476
 20
68.57557659582203
 10
829.1330824910417
 20
70.8070958315541
 10
829.1330824910417
 20
85.1688356428566
 10
831.104192209845
 20
87.38689364121466
 10
836.1822758829438
 20
85.95832221264321
 10
837.4400543258363
 20
87.37368002291967
 10
839.9790961623856
 20
87.37368002291967
 10
842.5418430000198
 20
90.25749773573155
 10
845.0808848365692
 20
88.8289263071601
 10
846.8888303474076
 20
90.86337825199908
 10
845.6193094291328
 20
93.72052110914197
 10
847.6199266731186
 20
95.97178345001734
 10
850.1801776425739
 20
94.53127887372914
 10
852.7404286120295
 20
95.97178345001734
 10
854.7572814548055
 20
93.70225145149114
 10
852.7404286120295
 20
91.43271945296483
 10
850.20138677548
 20
92.86129088153628
 10
848.409676863432
 20
90.84510859434825
 10
851.4946126948395
 20
87.37368002291967
 10
854.033654531389
 20
87.37368002291967
 10
855.2582613156727
 20
85.9956497454507
 10
858.3088121452436
 20
89.42838542849275
 10
855.7697703086942
 20
93.71409971420708
 10
857.0625426930847
 20
95.1688356428566
 10
857.0625426930847
 20
100.8238920417125
 10
855.7754767753303
 20
103.72052110914187
 10
857.0625426930847
 20
105.16883564285662
 10
857.0625426930847
 20
113.72964993889245
 10
859.5783330635182
 20
117.97611747448944
 10
858.3320636113593
 20
119.37852440298269
 10
858.3320636113593
 20
125.10055167214429
 10
854.5235008565353
 20
130.81483738643007
 10
854.5235008565353
 20
142.2434088150014
 10
846.9063753468873
 20
153.67198024357288
 10
846.9063753468873
 20
156.52138154583972
 10
840.5652569430913
 20
163.65693988635343
 10
839.2823137628676
 20
170.87531630443996
 10
841.2486170806603
 20
173.0879657372053
 10
853.9438262634073
 20
173.0879657372053
 10
855.2133471816818
 20
174.51653716577675
 10
861.5609517730553
 20
174.51653716577675
 10
862.8304726913301
 20
175.9451085943482
 10
865.388227792607
 20
175.9451085943482
 10
867.8898430997014
 20
177.35262228772186
 10
879.3342446289009
 20
190.23082288006242
 10
885.7889162883972
 20
190.23082288006242
 10
889.0200379156614
 20
183.68615051546712
 10
884.5021565699814
 20
178.6022514514911
 10
881.9631147334319
 20
178.6022514514911
 10
880.1314642215087
 20
176.54112465098305
 10
881.4009851397835
 20
173.68398179384025
 10
878.8443983037544
 20
170.80709583155408
 10
878.8443983037544
 20
168.02597849999955
 10
880.1399256007898
 20
166.56814251255125
 10
876.3313628459657
 20
160.85385679826558
 10
878.1232503002361
 20
158.83747472567623
 10
881.9054137136484
 20
161.67481308054266
 10
888.2607906669056
 20
158.8141717779753
 10
890.8384554716979
 20
160.2644741083872
 10
897.1860600630714
 20
150.26447410838716
 10
902.2618222433327
 20
153.1203107962926
 10
914.3824856071077
 20
135.1740119337501
 10
915.6500573145623
 20
130.89487789459753
 10
922.6064973829493
 20
123.0669080020076
 10
925.1081126900435
 20
121.65939430863392
 10
936.4700194388352
 20
121.65939430863392
 10
947.8957077033075
 20
131.65939430863395
 10
950.4274160522834
 20
131.65939430863395
 10
952.2766115636863
 20
133.7402642142852
 10
952.2766115636863
 20
136.59740707142808
 10
953.546132481961
 20
138.02597849999952
 10
953.546132481961
 20
145.1620188095004
 10
958.0293985378432
 20
151.64837928468955
 10
964.4601417549827
 20
153.09566162438816
 10
968.2320105865008
 20
150.26604615424765
 10
973.8246865760858
 20
156.55939430863387
 10
968.7466029029872
 20
162.27368002291965
 10
973.2703425093512
 20
167.364171293226
 10
979.6179471007245
 20
168.79274272179745
 10
980.9052560876216
 20
170.24133077730096
 10
987.2528606789951
 20
168.81275934872951
 10
989.0992043812295
 20
170.89042015948587
 10
990.3687252995041
 20
178.03327730234298
 10
992.8618589020028
 20
180.8387603636078
 10
985.2447333923549
 20
187.98161750646491
 10
988.5333739811249
 20
191.68227175826092
 10
997.5060635459125
 20
187.35506192033347
 10
1001.2980810512524
 20
183.0879657372053
 10
1003.8312326781648
 20
183.0879657372053
 10
1010.8745738043217
 20
176.6032544398518
 10
1010.8745738043217
 20
175.0928101172684
 10
1006.3865366880414
 20
170.04249428363914
 10
1001.219995258653
 20
168.58903783319613
 10
1000.0043076510736
 20
169.95703150486906
 10
998.1905644590305
 20
166.55540486810582
 10
1000.7153291928754
 20
160.87325074096114
 10
1001.9824803245796
 20
152.3178222653363
 10
1005.7964901312231
 20
148.02597849999955
 10
1005.7964901312231
 20
143.72346800412694
 10
1008.3355319677722
 20
138.00918228984128
 10
1008.3355319677722
 20
133.72964993889258
 10
1010.8745738043217
 20
129.44393565317824
 10
1010.8745738043217
 20
126.60061635500064
 10
1022.8874318709439
 20
114.50567505361609
 10
1027.968392298711
 20
113.07629433362875
 10
1031.721668955854
 20
108.85279260259351
 10
1032.9796596068527
 20
110.26838920723169
 10
1037.53451308809
 20
106.60731548420199
 10
1037.53451308809
 20
102.31169278571373
 10
1038.8272854724808
 20
100.85695685706419
 10
1036.274910386089
 20
96.54873703461497
 10
1038.8180641196063
 20
89.39431226329097
 10
1036.8446667629437
 20
87.1736800229197
 10
1034.3116408084459
 20
87.1736800229197
 10
1028.6760693471379
 20
79.42281389946338
 10
1032.4902100132613
 20
75.13082288006245
 10
1029.951168176712
 20
72.27368002291968
 10
1031.1869084967166
 20
70.88312135714236
 10
1031.1869084967166
 20
67.9499529744112
 10
1029.2275412532954
 20
65.74510859434824
 10
1024.149457580197
 20
65.74510859434824
 10
1022.8799366619221
 20
64.3165371657768
 10
1020.2510665573909
 20
64.3165371657768
 10
1019.0264597731071
 20
65.69456744324576
 10
1017.8018529888233
 20
64.3165371657768
 10
1015.2628111522739
 20
64.3165371657768
 10
1013.4136156408711
 20
62.235667260125524
 10
1013.4136156408711
 20
55.09281011726841
 10
1008.9223301227099
 20
50.038838909356784
 10
1001.3052046130617
 20
48.61026748078534
 10
999.4488855398496
 20
46.521381545839844
 10
999.4488855398496
 20
43.674852964089574
 10
996.9098437033001
 20
39.38913867837523
 10
996.9098437033001
 20
26.526398023261066
 10
990.5507925409897
 20
17.939512681682256
 10
986.7406032972194
 20
7.935242070822079
 10
984.7943091136815
 20
5.745108594348292
 10
968.1943745161459
 20
5.745108594348292
 10
957.3662555659963
 20
20.796806389225985
 10
952.2879512040034
 20
33.654508006094595
 10
942.8233001945241
 20
47.14503904339473
 10
928.9145649903477
 20
40.030822880062544
 10
921.3182631999473
 20
40.030822880062544
 10
916.9278008171422
 20
35.0903063214093
 10
915.6582798988675
 20
13.66173489283784
 10
914.3909840154456
 20
12.235667260125481
 10
914.3909840154456
 20
7.949952974411256
 10
912.3867026380334
 20
5.694567443245813
 10
909.847660801484
 20
8.551710300388592
  0
LWPOLYLINE
  5
36
330
17
100
AcDbEntity
  8
C
100
AcDbPolyline
 90
94
 70
1
 10
1457.5442637840374
 20
159.31769574805466
 10
1445.6981667442556
 20
162.89600205882027
 10
1438.7563093036742
 20
167.17368002291965
 10
1433.196551896472
 20
167.17368002291965
 10
1422.0275668039842
 20
172.9090951982335
 10
1416.463647714763
 20
180.0519523410906
 10
1413.7175528495975
 20
181.46210680294172
 10
1401.19873489885
 20
182.89067823151305
 10
1398.385998746719
 20
184.33505383748783
 10
1394.2310888508634
 20
188.60225145149113
 10
1391.4671587273133
 20
188.60225145149113
 10
1377.5180325437066
 20
195.76530425649784
 10
1368.4401675466213
 20
206.5228393618861
 10
1368.4401675466213
 20
208.0286082789946
 10
1370.5776911761802
 20
210.22389914222805
 10
1378.934076059137
 20
211.65426893475603
 10
1383.1145011320116
 20
214.51653716577667
 10
1394.2158998447921
 20
214.51653716577667
 10
1400.4525253110587
 20
225.19182414597938
 10
1403.9499178359401
 20
228.7837347797801
 10
1412.3225147044122
 20
233.08316921706984
 10
1419.2575418845697
 20
234.50765890170678
 10
1430.3965107178929
 20
247.37766215613453
 10
1447.1761776215483
 20
245.94156694248403
 10
1448.5637089375812
 20
244.5165371657767
 10
1456.9095875714129
 20
244.5165371657767
 10
1458.300567343718
 20
243.08796573720537
 10
1466.64644597755
 20
243.08796573720537
 10
1468.0374257498552
 20
241.65939430863403
 10
1476.383304383687
 20
241.65939430863403
 10
1477.7742841559923
 20
240.23082288006248
 10
1484.7291830175186
 20
240.23082288006248
 10
1486.120162789824
 20
238.80225145149092
 10
1494.4660414236557
 20
238.80225145149092
 10
1495.8038760678455
 20
237.42826141447182
 10
1499.9369565386748
 20
243.08796573720537
 10
1508.3758391467086
 20
243.08796573720537
 10
1509.766818919014
 20
241.65939430863403
 10
1541.749895467329
 20
241.65939430863403
 10
1546.7208771549142
 20
238.0127343108054
 10
1543.9036188570878
 20
233.6726409557701
 10
1543.9036188570878
 20
229.37589462398745
 10
1542.5522121522495
 20
227.98796573720526
 10
1543.9036188570878
 20
226.6000368504233
 10
1543.9036188570878
 20
215.17146542185196
 10
1545.9157123709729
 20
213.10499446175578
 10
1556.9684207141497
 20
217.36177365665398
 10
1562.5477972170322
 20
221.659394308634
 10
1565.3216008444142
 20
221.659394308634
 10
1568.1035603890248
 20
224.5165371657767
 10
1570.893675850864
 20
224.5165371657767
 10
1576.448909698248
 20
228.79556147911373
 10
1583.3963278013127
 20
230.222596322033
 10
1586.1862974289938
 20
233.08796573720537
 10
1588.9862863946646
 20
233.08796573720537
 10
1597.2961061863755
 20
237.35516335120855
 10
1600.0960951520467
 20
240.23082288006248
 10
1602.8780546966573
 20
240.23082288006248
 10
1605.6600142412678
 20
243.08796573720537
 10
1608.4558415249196
 20
243.08796573720537
 10
1615.4548286538022
 20
247.40084788272654
 10
1616.850134871271
 20
245.9678330854802
 10
1619.6441608449154
 20
247.40260077804678
 10
1623.1894658784893
 20
242.30503558815442
 10
1623.1894658784893
 20
235.17146542185174
 10
1624.5804456507947
 20
233.7428939932804
 10
1624.5804456507947
 20
230.80446605255878
 10
1623.1894658784893
 20
229.37589462398745
 10
1623.1894658784893
 20
226.59564115329945
 10
1631.5535767704337
 20
216.5737953310529
 10
1630.1650365773733
 20
213.7216634931589
 10
1631.574917579788
 20
212.27368002291968
 10
1630.1443647400158
 20
210.80446605255875
 10
1630.1443647400158
 20
203.66160890970164
 10
1628.0015436472843
 20
201.4608774177238
 10
1547.3247168535772
 20
198.6037345605809
 10
1543.9309806122415
 20
195.11828155327726
 10
1546.712940156852
 20
190.83256726756292
 10
1543.9036188570878
 20
187.94732319541586
 10
1543.9036188570878
 20
182.23303748113017
 10
1541.7593536820355
 20
180.03082288006246
 10
1538.8929851706137
 20
180.03082288006246
 10
1537.5020053983085
 20
181.459394308634
 10
1519.5036773251509
 20
181.459394308634
 10
1518.1126975528457
 20
180.03082288006246
 10
1513.8778136515343
 20
180.03082288006246
 10
1506.8854741526484
 20
182.90334673004637
 10
1502.7697155740818
 20
187.13033495036635
 10
1497.260781727391
 20
181.47252047170605
 10
1493.0849205528084
 20
180.04294876921145
 10
1480.571598656978
 20
168.61939475174427
 10
1475.0062329527611
 20
165.76150903949582
 10
1466.6377358203072
 20
158.5992937545504
 10
1457.5442637840374
 20
159.31769574805466
  0
LWPOLYLINE
  5
37
330
17
100
AcDbEntity
  8
C
100
AcDbPolyline
 90
35
 70
1
 10
1298.9473014771727
 20
127.88968392053413
 10
1297.4606260915846
 20
129.41653716577673
 10
1298.8911789313568
 20
130.88575113613777
 10
1298.8911789313568
 20
136.60003685042344
 10
1302.4083944576541
 20
140.21230620835135
 10
1308.008372388996
 20
143.08796573720528
 10
1316.3362216017674
 20
143.08796573720528
 10
1317.7226367188025
 20
144.5118491492936
 10
1330.25876651128
 20
145.94239610004044
 10
1338.6197385835608
 20
150.23586105738795
 10
1345.5746374450873
 20
148.8072896288165
 10
1348.3663036362207
 20
150.2408455432034
 10
1355.3455998107106
 20
147.37368002291961
 10
1359.5410035100424
 20
147.37368002291961
 10
1360.9319832823476
 20
145.94510859434817
 10
1370.646377306069
 20
145.94510859434817
 10
1377.6012761675956
 20
143.08796573720528
 10
1387.3605989561481
 20
143.08796573720528
 10
1388.7515787284535
 20
141.65939430863395
 10
1392.915059830663
 20
141.65939430863395
 10
1397.9026030070486
 20
138.00058497642686
 10
1395.7064775899798
 20
135.74510859434818
 10
1383.1876596392324
 20
135.74510859434818
 10
1381.796679866927
 20
134.31653716577685
 10
1372.0598214607899
 20
134.31653716577685
 10
1370.6688416884847
 20
132.8879657372054
 10
1355.3680641931264
 20
132.8879657372054
 10
1353.9770844208213
 20
131.45939430863396
 10
1338.676306925463
 20
131.45939430863396
 10
1337.2853271531578
 20
130.03082288006252
 10
1328.939448519326
 20
130.03082288006252
 10
1327.5484687470207
 20
128.60225145149107
 10
1317.8116103408836
 20
128.60225145149107
 10
1316.4189283505739
 20
127.17193180194964
 10
1298.9473014771727
 20
127.88968392053413
  0
LWPOLYLINE
  5
38
330
17
100
AcDbEntity
  8
C
100
AcDbPolyline
 90
15
 70
1
 10
1298.8911789313568
 20
75.06558005698972
 10
1298.8911789313568
 20
90.88575113613773
 10
1301.0354441064092
 20
93.08796573720535
 10
1309.4657317070519
 20
93.08796573720535
 10
1310.814506995952
 20
91.70273938118723
 10
1312.1632822848514
 20
93.08796573720535
 10
1337.2853271531578
 20
93.08796573720535
 10
1339.4756287596442
 20
90.83847055598149
 10
1331.058484423316
 20
83.6346203464321
 10
1327.563632032351
 20
78.60959775365505
 10
1317.8174282821262
 20
77.17965519581405
 10
1316.4206305685784
 20
75.74510859434824
 10
1308.0635014751565
 20
75.74510859434824
 10
1303.8702190181264
 20
72.87403712404927
 10
1298.8911789313568
 20
75.06558005698972
  0
LWPOLYLINE
  5
39
330
17
100
AcDbEntity
  8
C
100
AcDbPolyline
 90
17
 70
1
 10
1276.6994951941426
 20
30.74856854436736
 10
1272.4625632575564
 20
33.64952609477933
 10
1272.4625632575564
 20
48.0286082789948
 10
1274.6068284326086
 20
50.23082288006253
 10
1296.8625047894932
 20
50.23082288006253
 10
1298.2534845617986
 20
51.65939430863398
 10
1301.1198530732202
 20
51.65939430863398
 10
1302.5108328455256
 20
50.23082288006253
 10
1309.3993521613013
 20
50.23082288006253
 10
1312.2255647364123
 20
51.68211879976581
 10
1314.4315294941819
 20
49.41653716577677
 10
1312.2626675066065
 20
47.1890610157607
 10
1305.3040865831701
 20
44.33040553031154
 10
1295.5514741751565
 20
35.74510859434821
 10
1292.758946347696
 20
35.74510859434821
 10
1283.016738047822
 20
30.027683179341793
 10
1276.6994951941426
 20
30.74856854436736
  0
LWPOLYLINE
  5
3A
330
17
100
AcDbEntity
  8
C
100
AcDbPolyline
 90
56
 70
1
 10
1288.5166261556615
 20
524.3165371657767
 10
1287.167850866762
 20
525.7017635217949
 10
1285.8190755778621
 20
524.3165371657767
 10
1281.5617272941352
 20
524.3165371657767
 10
1280.1707475218298
 20
525.7451085943483
 10
1277.4731969440302
 20
525.7451085943483
 10
1276.0400126883196
 20
524.2731920932233
 10
1274.6068284326086
 20
525.7451085943483
 10
1262.0880104818611
 20
525.7451085943483
 10
1260.7079981934867
 20
527.1624161393613
 10
1255.1440791042655
 20
525.73384471079
 10
1253.7421318480292
 20
527.1736800229196
 10
1249.6536014979245
 20
527.1736800229196
 10
1248.2204172422137
 20
525.7017635217951
 10
1246.7872329865029
 20
527.1736800229196
 10
1232.87743526345
 20
527.1736800229196
 10
1231.4974229750758
 20
528.5909875679326
 10
1225.9335038858546
 20
527.1624161393613
 10
1224.5315566296183
 20
528.6022514514909
 10
1212.0127386788706
 20
528.6022514514909
 10
1210.6364707687055
 20
530.0157134253218
 10
1206.4549758390654
 20
528.5842130531537
 10
1201.5225948699865
 20
535.0972303016464
 10
1201.5225948699865
 20
539.4491636083087
 10
1205.6649594843639
 20
545.1215813315538
 10
1203.666860045039
 20
547.1736800229197
 10
1200.8849005004283
 20
547.1736800229197
 10
1197.3496555530708
 20
550.8044660525588
 10
1197.3496555530708
 20
556.5187517668446
 10
1194.5676960084602
 20
559.3758946239873
 10
1194.5676960084602
 20
566.6000368504232
 10
1196.754165666918
 20
568.8455965240445
 10
1198.1873499226288
 20
567.3736800229196
 10
1203.75126901185
 20
567.3736800229196
 10
1205.1422487841553
 20
565.9451085943481
 10
1210.7061678733764
 20
565.9451085943481
 10
1212.0971476456816
 20
564.5165371657768
 10
1217.6610667349028
 20
564.5165371657768
 10
1219.0520465072082
 20
563.0879657372052
 10
1224.5935012140135
 20
563.0879657372052
 10
1231.5553130005615
 20
560.2279829804837
 10
1251.0503992114723
 20
557.3677048500252
 10
1252.435561042535
 20
555.9451085943481
 10
1257.9770157493406
 20
555.9451085943481
 10
1264.9388275358883
 20
553.0851258376266
 10
1284.4339137467994
 20
550.224847707168
 10
1285.8190755778621
 20
548.802251451491
 10
1291.3605302846677
 20
548.802251451491
 10
1298.315429146194
 20
545.9451085943483
 10
1303.9018126178307
 20
545.9451085943483
 10
1307.4370575651885
 20
542.314322564709
 10
1307.4370575651885
 20
539.3758946239873
 10
1304.655098020578
 20
536.5187517668446
 10
1304.655098020578
 20
530.8115160159322
 10
1299.736377732759
 20
524.3165371657767
 10
1288.5166261556615
 20
524.3165371657767
  0
LWPOLYLINE
  5
3B
330
17
100
AcDbEntity
  8
C
100
AcDbPolyline
 90
11
 70
1
 10
1259.9911222127591
 20
32.16078320496152
 10
1252.9659104917637
 20
45.14790961713344
 10
1255.1331116203346
 20
47.37368002291964
 10
1257.9150711649452
 20
47.37368002291964
 10
1260.6970307095557
 20
50.23082288006253
 10
1266.345358765588
 20
50.23082288006253
 10
1268.4896239406405
 20
48.0286082789948
 10
1268.4896239406405
 20
33.6616089097016
 10
1266.3232322503377
 20
31.43666981750215
 10
1263.506830879075
 20
32.88292755987998
 10
1259.9911222127591
 20
32.16078320496152
  0
LWPOLYLINE
  5
3C
330
17
100
AcDbEntity
  8
C
100
AcDbPolyline
 90
23
 70
1
 10
1947.6612406850797
 20
13.604516095471197
 10
1946.1792817478224
 20
15.13082288006251
 10
1947.6057270483136
 20
16.599954773836355
 10
1947.6057270483136
 20
23.742811916693473
 10
1949.7290372951313
 20
25.929662546649524
 10
1956.6643540265197
 20
28.786805403792414
 10
1963.614668010534
 20
35.945108594348184
 10
1966.4000561337039
 20
35.945108594348184
 10
1974.6918429534783
 20
41.63838846476564
 10
1984.4093023022428
 20
50.21689343841729
 10
1991.4309750753605
 20
53.10961239934231
 10
2001.885653360914
 20
39.47073330316586
 10
2010.2459914077886
 20
23.684775498960974
 10
2006.6982067850913
 20
20.030822880062527
 10
1998.3533308284868
 20
20.030822880062527
 10
1991.4180140970982
 20
17.173680022919633
 10
1977.569876513259
 20
17.173680022919633
 10
1976.182813166981
 20
15.7451085943483
 10
1970.63455978187
 20
15.7451085943483
 10
1969.2474964355922
 20
14.316537165776854
 10
1962.3121797042036
 20
14.316537165776854
 10
1960.9228665648627
 20
12.885648618741419
 10
1947.6612406850797
 20
13.604516095471197
  0
LWPOLYLINE
  5
3D
330
17
100
AcDbEntity
  8
C
100
AcDbPolyline
 90
21
 70
1
 10
1838.027722692372
 20
285.0902624148599
 10
1838.027722692372
 20
287.9474052720028
 10
1825.5441525758724
 20
300.8045481291457
 10
1825.5441525758724
 20
343.7428119166934
 10
1827.7247475952888
 20
345.9886615748098
 10
1831.9282251540958
 20
341.6593943086339
 10
1834.6843000828203
 20
341.6593943086339
 10
1843.0363468912817
 20
337.3584027667991
 10
1859.681107046615
 20
324.50125990965614
 10
1868.0099239211484
 20
320.212230914444
 10
1871.5172430030377
 20
316.5999547738363
 10
1871.5172430030377
 20
313.7428119166936
 10
1878.4978200232058
 20
306.5533400640088
 10
1869.3741074273323
 20
298.602251451491
 10
1866.5966459574734
 20
298.602251451491
 10
1861.0483925723624
 20
294.31653716577677
 10
1858.282428733373
 20
294.31653716577677
 10
1855.519453931646
 20
291.4708799214971
 10
1845.8100105077017
 20
288.6137370643542
 10
1840.2083177117888
 20
282.8444127567438
 10
1838.027722692372
 20
285.0902624148599
  0
LWPOLYLINE
  5
3E
330
17
100
AcDbEntity
  8
C
100
AcDbPolyline
 90
17
 70
1
 10
2581.876912001273
 20
87.948151866171
 10
2581.876912001273
 20
119.4737879347102
 10
2588.0329281260783
 20
123.08796573720538
 10
2597.479824098694
 20
123.08796573720538
 10
2598.874693980226
 20
124.56202847352671
 10
2601.0024278177007
 20
122.31349389395396
 10
2601.0024278177007
 20
117.94815186617103
 10
2599.644553508833
 20
116.51318510274022
 10
2598.3052242799026
 20
108.02097231284368
 10
2601.6213864200754
 20
104.5165371657768
 10
2604.3402014760504
 20
104.5165371657768
 10
2606.4198698594278
 20
100.8536367662144
 10
2603.706072934333
 20
93.68395919594907
 10
2603.706072934333
 20
89.37672329474245
 10
2597.5610289257247
 20
82.88279830140144
 10
2585.308771517295
 20
84.32145069795938
 10
2581.876912001273
 20
87.948151866171
  0
LWPOLYLINE
  5
3F
330
17
100
AcDbEntity
  8
C
100
AcDbPolyline
 90
17
 70
1
 10
2533.2112999018873
 20
140.88492246538254
 10
2535.3165549921314
 20
143.1097020810761
 10
2550.203658604488
 20
135.95865230892656
 10
2559.6685567404315
 20
141.6742304448151
 10
2573.1900653722173
 20
134.52963858114242
 10
2575.9141436695368
 20
135.9690066405085
 10
2578.0214443263244
 20
133.7420653225254
 10
2578.0214443263244
 20
126.51958043759959
 10
2575.9367578120664
 20
124.31653716577684
 10
2570.529467578801
 20
124.31653716577684
 10
2569.1828551701474
 20
122.89347168981767
 10
2558.301496402357
 20
121.45607906161449
 10
2552.8879318931013
 20
124.31653716577684
 10
2550.2362672684585
 20
124.31653716577684
 10
2538.0486235036215
 20
117.16120965094112
 10
2533.2112999018873
 20
119.35204947434808
 10
2533.2112999018873
 20
140.88492246538254
  0
LWPOLYLINE
  5
40
330
17
100
AcDbEntity
  8
C
100
AcDbPolyline
 90
14
 70
1
 10
2516.989429202092
 20
29.3767232947425
 10
2515.637606643776
 20
30.805294723313835
 10
2515.637606643776
 20
40.88492246538256
 10
2517.722293158034
 20
43.087965737205415
 10
2520.5120329210995
 20
43.087965737205415
 10
2521.8697790562437
 20
41.6531344244806
 10
2531.332536964457
 20
40.22456299590915
 10
2533.4112999018876
 20
38.027779608239776
 10
2533.4112999018876
 20
26.51958043759961
 10
2531.3366335333108
 20
24.32712619888766
 10
2525.9293433000453
 20
22.898554770316217
 10
2521.8444643889648
 20
18.581759444151302
 10
2516.989429202092
 20
20.780620902919434
 10
2516.989429202092
 20
29.3767232947425
  0
LWPOLYLINE
  5
41
330
17
100
AcDbEntity
  8
C
100
AcDbPolyline
 90
13
 70
1
 10
2520.4441904935115
 20
550.0308228800624
 10
2508.25953524982
 20
550.0308228800624
 10
2506.9507600147203
 20
551.413903000884
 10
2505.619370637091
 20
550.0069248339021
 10
2502.83399279771
 20
551.4786827856528
 10
2499.415735943981
 20
555.091009009028
 10
2499.415735943981
 20
566.5992081796683
 10
2501.502986485251
 20
568.8049610495141
 10
2524.5699969810616
 20
567.3710419072269
 10
2526.6488258870504
 20
565.1741888056754
 10
2528.0074877996262
 20
549.3803988944328
 10
2525.8967090118354
 20
547.1497819767594
 10
2520.4441904935115
 20
550.0308228800624
  0
LWPOLYLINE
  5
42
330
17
100
AcDbEntity
  8
C
100
AcDbPolyline
 90
44
 70
1
 10
2475.799700591532
 20
78.61925839476658
 10
2473.112148733597
 20
81.45939430863392
 10
2470.4085036169645
 20
81.45939430863392
 10
2467.6896718297166
 20
84.33258605000572
 10
2460.930559038135
 20
87.1897289071486
 10
2458.2421005921183
 20
90.03082288006247
 10
2455.5466794399686
 20
90.03082288006247
 10
2450.139389206704
 20
94.31653716577682
 10
2446.075697567272
 20
94.31653716577682
 10
2443.3720524506393
 20
97.17368002291971
 10
2440.668407334007
 20
97.17368002291971
 10
2437.9449347978757
 20
100.05177598875525
 10
2425.814221128127
 20
107.17368002291971
 10
2424.5326312806446
 20
107.17368002291971
 10
2417.7184958561875
 20
99.97267637202556
 10
2410.1954470951073
 20
110.81381059053197
 10
2410.1954470951073
 20
123.6624375804567
 10
2408.843624536791
 20
125.09100900902814
 10
2408.843624536791
 20
127.94815186617103
 10
2406.1515317967433
 20
130.79308646785935
 10
2404.801494424403
 20
135.07314113723578
 10
2397.983717576339
 20
140.83702258845256
 10
2400.113730584519
 20
143.08796573720528
 10
2406.8728433761003
 20
143.08796573720528
 10
2408.265775250612
 20
144.55998043738384
 10
2433.9888311992713
 20
118.8072230117958
 10
2446.07104801072
 20
120.2259093478799
 10
2447.427520125588
 20
121.65939430863392
 10
2454.18663291717
 20
121.65939430863392
 10
2455.538455475486
 20
123.08796573720538
 10
2465.0012133836995
 20
123.08796573720538
 10
2466.3619525443305
 20
124.5259600025449
 10
2473.206392138167
 20
123.07935433848249
 10
2476.6347524526045
 20
119.45635103681118
 10
2476.6347524526045
 20
116.5992081796683
 10
2484.7384879775286
 20
108.03538819871972
 10
2486.0922308690665
 20
100.88238426123752
 10
2491.5048005940835
 20
92.30258684247661
 10
2491.5048005940835
 20
82.30430577660431
 10
2494.8555245964776
 20
77.34696284460352
 10
2498.2978998594963
 20
75.16427448054996
 10
2496.1903925524143
 20
71.45234164602054
 10
2490.025879819861
 20
72.17617487288364
 10
2475.799700591532
 20
78.61925839476658
  0
LWPOLYLINE
  5
43
330
17
100
AcDbEntity
  8
C
100
AcDbPolyline
 90
149
 70
1
 10
3216.0117640482827
 20
102.18379111617371
 10
3198.8971149097515
 20
122.22035052363455
 10
3197.6465021986364
 20
125.14859937982415
 10
3198.8515623949493
 20
126.55939430863394
 10
3196.4110736591215
 20
129.41653716577673
 10
3199.5931991482717
 20
133.14193322206057
 10
3200.859540979797
 20
131.65939430863395
 10
3208.0888122600586
 20
131.65939430863395
 10
3211.0819647573157
 20
135.16355482874997
 10
3209.860952513988
 20
148.02878842914836
 10
3220.2991302754654
 20
157.37368002291961
 10
3225.1796238462703
 20
157.37368002291961
 10
3230.609430530081
 20
162.31786882329945
 10
3230.609430530081
 20
163.66535653555204
 10
3225.153252052285
 20
170.05304484415694
 10
3220.272274580629
 20
172.91018770129972
 10
3215.9664981151122
 20
177.95107082126626
 10
3215.9664981151122
 20
182.2367851069806
 10
3214.7147391778326
 20
183.7022514514911
 10
3215.9349835457465
 20
185.13082288006254
 10
3213.4944948099183
 20
187.98796573720534
 10
3218.4069868509405
 20
193.73914636743007
 10
3218.4069868509405
 20
196.59628922457296
 10
3223.2879643225965
 20
202.31057493885874
 10
3223.2879643225965
 20
206.52249939269484
 10
3220.2912559392
 20
210.0308228800625
 10
3216.637103855195
 20
210.0308228800625
 10
3210.561509919053
 20
215.72110599842566
 10
3208.113216782943
 20
214.28796616390477
 10
3205.6727280471146
 20
217.14510902104766
 10
3203.232239311287
 20
215.71653759247633
 10
3201.9875904204882
 20
217.1736800229196
 10
3197.1150386372324
 20
217.1736800229196
 10
3192.234061165576
 20
221.45939430863405
 10
3183.7761198290004
 20
221.45939430863405
 10
3180.8109260149695
 20
217.98796573720546
 10
3183.2514147507973
 20
215.13082288006257
 10
3175.8984339739472
 20
206.52249939269484
 10
3175.8984339739472
 20
203.73914636743007
 10
3177.150192911227
 20
202.27368002291968
 10
3173.968067422076
 20
198.54828396663592
 10
3172.747823054162
 20
199.97685539520725
 10
3168.5769677664625
 20
195.0939279641235
 10
3168.5769677664625
 20
192.23678510698062
 10
3165.472454310289
 20
188.60225145149113
 10
3161.803295518146
 20
188.60225145149113
 10
3156.9223180464896
 20
184.3165371657768
 10
3152.049766263234
 20
184.3165371657768
 10
3144.7038955328653
 20
175.7165375924763
 10
3137.333620279613
 20
180.03082288006246
 10
3134.882575873614
 20
180.03082288006246
 10
3130.0015984019574
 20
184.3165371657768
 10
3127.5615219670854
 20
184.3165371657768
 10
3113.430138353006
 20
196.54469172867772
 10
3122.007681785727
 20
208.02120652477285
 10
3122.007681785727
 20
212.31057493885874
 10
3126.8886592573836
 20
218.02486065314451
 10
3126.8886592573836
 20
220.8820035102872
 10
3129.329147993212
 20
223.7391463674301
 10
3129.329147993212
 20
226.59628922457298
 10
3137.8654922629094
 20
236.59000675263275
 10
3136.645247894995
 20
245.16143532406142
 10
3140.9667354215667
 20
250.2207117868085
 10
3147.0784919127436
 20
251.65174985283235
 10
3150.7490195258306
 20
254.51653716577673
 10
3154.398060071839
 20
254.51653716577673
 10
3155.6127588413538
 20
255.9386162198405
 10
3165.383898719455
 20
257.36853177830056
 10
3173.919936719744
 20
264.50664532872594
 10
3178.802597095532
 20
265.9357093120722
 10
3182.4753730915963
 20
268.80225145149114
 10
3184.9125949580916
 20
268.80225145149114
 10
3189.781903251479
 20
273.0777196821272
 10
3194.6555361980245
 20
274.5041415046432
 10
3197.090717869234
 20
277.3550712449029
 10
3203.2316774078
 20
280.23082288006253
 10
3205.7405184514537
 20
280.23082288006253
 10
3211.2855206434556
 20
273.7391463674301
 10
3211.2855206434556
 20
272.23968454205516
 10
3200.3033213322287
 20
257.9539702563407
 10
3200.3033213322287
 20
256.596289224573
 10
3203.2641286132734
 20
253.12999607999888
 10
3208.1311563866184
 20
257.4034619130869
 10
3211.781746311597
 20
254.55423564257651
 10
3219.1032125190814
 20
263.12566421400516
 10
3222.7639456228235
 20
260.26852135686227
 10
3228.168941794253
 20
266.596289224573
 10
3228.168941794253
 20
269.4534320817159
 10
3230.572604214034
 20
272.26746142462497
 10
3223.2511380065494
 20
279.41031856748214
 10
3227.6521754870355
 20
284.5627262048489
 10
3234.9736416945198
 20
277.4198690619918
 10
3237.9383954482932
 20
280.8907824435718
 10
3239.158639816207
 20
286.6050681578576
 10
3245.2208483756845
 20
293.70225145149107
 10
3244.0006040077706
 20
295.13082288006245
 10
3247.1827294969216
 20
298.8562189363462
 10
3250.3549924109857
 20
295.14236925007765
 10
3247.9145036751574
 20
290.85665496436343
 10
3250.333340416707
 20
288.02486065314434
 10
3250.333340416707
 20
285.16771779600145
 10
3251.585099353986
 20
283.7022514514913
 10
3250.3496708144717
 20
282.255903523158
 10
3251.5699151823856
 20
279.39876066601533
 10
3250.364854986072
 20
277.9879657372055
 10
3254.504195704406
 20
273.1419332220606
 10
3255.714243711061
 20
274.5585675085702
 10
3260.609170881028
 20
270.26060477022986
 10
3264.2317457418408
 20
273.0879657372054
 10
3266.660541919935
 20
273.0879657372054
 10
3270.367372487289
 20
277.42764750777485
 10
3274.769742344354
 20
272.27368002291996
 10
3273.542209912118
 20
270.8365762702225
 10
3277.1769472513975
 20
265.1628691016248
 10
3278.3967369367097
 20
245.17032142205642
 10
3280.839449614559
 20
242.31057493885834
 10
3280.839449614559
 20
239.45343208171565
 10
3282.059693982473
 20
238.0248606531441
 10
3282.059693982473
 20
210.88200351028718
 10
3284.500182718301
 20
208.0248606531443
 10
3284.500182718301
 20
193.66535653555195
 10
3282.059693982473
 20
190.80821367840917
 10
3282.059693982473
 20
187.95107082126628
 10
3278.3989608787306
 20
183.66535653555204
 10
3278.3989608787306
 20
180.81863214547755
 10
3275.958472142903
 20
176.53291785976322
 10
3275.958472142903
 20
173.73914636743015
 10
3277.1787165108167
 20
172.3105749388587
 10
3277.1787165108167
 20
129.4534320817158
 10
3280.8557800123235
 20
125.14859937982415
 10
3278.4152912764953
 20
119.43431366553847
 10
3284.500182718301
 20
112.31057493885865
 10
3284.500182718301
 20
109.37964224983776
 10
3281.3495717985156
 20
105.69114110949307
 10
3276.4757676586555
 20
111.3970288199686
 10
3270.374545819085
 20
102.82560024854004
 10
3266.6927428677313
 20
107.13598154611981
 10
3263.0803111856826
 20
104.31653716577682
 10
3260.559320080365
 20
104.31653716577682
 10
3258.118831344537
 20
107.17368002291971
 10
3250.797365137052
 20
107.17368002291971
 10
3249.571575170739
 20
108.60874382599872
 10
3239.876486438644
 20
110.027530005669
 10
3233.782296294081
 20
107.17368002291971
 10
3228.9251614418217
 20
107.17368002291971
 10
3226.4933093092113
 20
104.32664825903093
 10
3220.392087469641
 20
102.89807683045949
 10
3219.153598412783
 20
101.44814587585161
 10
3216.0117640482827
 20
102.18379111617371
  0
LWPOLYLINE
  5
44
330
17
100
AcDbEntity
  8
C
100
AcDbPolyline
 90
9
 70
1
 10
3190.396275703151
 20
75.02411495563932
 10
3181.7996558135173
 20
86.5261535210664
 10
3181.7996558135173
 20
89.45343208171586
 10
3184.904169269691
 20
93.08796573720535
 10
3187.429890567809
 20
93.08796573720535
 10
3199.083076964315
 20
82.31742520433039
 10
3199.083076964315
 20
79.37964224983773
 10
3195.9835160975526
 20
75.75090671800011
 10
3190.396275703151
 20
75.02411495563932
  0
LWPOLYLINE
  5
45
330
17
100
AcDbEntity
  8
C
100
AcDbPolyline
 90
35
 70
1
 10
3060.454093555692
 20
208.60646269516624
 10
3048.26064268271
 20
214.3165371657767
 10
3043.3558225916568
 20
214.3165371657767
 10
3038.995707808809
 20
219.42103554974858
 10
3048.7930197108817
 20
229.4572546871705
 10
3048.7930197108817
 20
230.8820035102872
 10
3053.0960493235966
 20
235.9196708191149
 10
3059.2211430125813
 20
240.2221535372431
 10
3064.089388831217
 20
241.6469986475005
 10
3068.316929597507
 20
246.59628922457298
 10
3068.316929597507
 20
249.45343208171587
 10
3072.6416874215947
 20
254.51653716577673
 10
3075.0821761574234
 20
254.51653716577673
 10
3076.2961217236802
 20
255.937734425437
 10
3084.9094733896745
 20
257.37828757760275
 10
3089.804219100107
 20
254.51308530504525
 10
3100.799791383546
 20
253.08277431179494
 10
3108.778163089257
 20
245.17928724648064
 10
3111.2319421714014
 20
230.81577621151504
 10
3108.131557033306
 20
227.18607568405312
 10
3103.25057956165
 20
225.7575042554818
 10
3100.799502810842
 20
222.88796573720538
 10
3097.1387697071
 20
222.88796573720538
 10
3093.431939139746
 20
218.54828396663595
 10
3089.0610838520465
 20
223.66535653555198
 10
3089.0610838520465
 20
226.52249939269487
 10
3086.06437546865
 20
230.0308228800625
 10
3083.6238867328216
 20
230.0308228800625
 10
3082.4497398285193
 20
231.4054268237786
 10
3075.838395804992
 20
223.66535653555198
 10
3075.838395804992
 20
220.8082136784091
 10
3072.1776627012496
 20
216.52249939269487
 10
3072.1776627012496
 20
212.23678510698062
 10
3067.84493882299
 20
207.16435395865918
 10
3060.454093555692
 20
208.60646269516624
  0
LWPOLYLINE
  5
46
330
17
100
AcDbEntity
  8
C
100
AcDbPolyline
 90
144
 70
1
 10
4002.153448676003
 20
21.45939430863397
 10
3997.3872824850623
 20
26.54044898949326
 10
3998.746659002118
 20
29.438823128508318
 10
3998.746659002118
 20
38.0449624651954
 10
4004.894889567458
 20
41.68631165230552
 10
4006.2601772514677
 20
40.23082288006252
 10
4008.8536411280256
 20
40.23082288006252
 10
4010.19367961843
 20
41.65939430863397
 10
4015.5538335800484
 20
41.65939430863397
 10
4017.507197867781
 20
43.741812411567935
 10
4017.507197867781
 20
47.948404777128474
 10
4016.130050130922
 20
49.41653716577677
 10
4018.8002597994573
 20
52.263160802395234
 10
4013.440105837839
 20
56.548875088109575
 10
4022.243956266127
 20
65.93437354455523
 10
4027.6969562887352
 20
67.38769001420842
 10
4033.0676236497966
 20
60.23082288006254
 10
4034.314372445712
 20
60.23082288006254
 10
4035.654410936116
 20
61.65939430863388
 10
4038.3344879169254
 20
61.65939430863388
 10
4044.26527261821
 20
67.98201088564393
 10
4026.8874673006126
 20
83.65778322085104
 10
4026.8874673006126
 20
86.59895526871075
 10
4029.5304350349675
 20
89.4165371657768
 10
4027.6369447134375
 20
91.43512558169442
 10
4024.9698809103293
 20
90.01349061576613
 10
4020.9497654391157
 20
92.87063347290902
 10
4018.2566752806056
 20
91.43512558169442
 10
4014.2007616726946
 20
95.75900309603857
 10
4010.183401095002
 20
97.18659555716458
 10
3997.426796800059
 20
109.3544804186536
 10
3993.3904963244486
 20
116.5260947390333
 10
3992.0524307614273
 20
125.08490366836533
 10
3990.6693188132363
 20
126.55939430863394
 10
3992.0464665500954
 20
128.02752669728224
 10
3992.0464665500954
 20
153.66269049141422
 10
3990.1364088144883
 20
155.69894088836068
 10
3988.226351078881
 20
153.66269049141422
 10
3988.226351078881
 20
146.5198333485571
 10
3986.1162933432747
 20
144.27036945978932
 10
3984.006235607668
 20
146.5198333485571
 10
3984.006235607668
 20
152.25139406018818
 10
3979.9667821098024
 20
160.8640539134889
 10
3982.096177872061
 20
163.13413344319284
 10
3984.804424837407
 20
160.24695948221114
 10
3988.7400303550085
 20
161.64549980694366
 10
3997.369511265259
 20
170.8451085943482
 10
3994.7034086558947
 20
173.68735382883227
 10
3996.758982333147
 20
177.33965417402553
 10
4007.56662891268
 20
185.98091442000475
 10
4010.2369861705556
 20
183.13413344319284
 10
4012.1632483191174
 20
185.18765883748478
 10
4013.4870823965675
 20
188.0102516999368
 10
4013.4870823965675
 20
193.74181241156785
 10
4016.916636790201
 20
197.39794874985915
 10
4019.5967137710104
 20
195.9693773212877
 10
4021.521892558594
 20
198.02174777969373
 10
4020.181096593773
 20
208.02740041147462
 10
4028.1842792933267
 20
215.1373442825446
 10
4025.510319563754
 20
217.98796573720546
 10
4028.9542184840934
 20
221.659394308634
 10
4035.7410240403688
 20
221.659394308634
 10
4039.7611395115823
 20
217.37368002291956
 10
4043.781254982796
 20
217.37368002291956
 10
4045.0779869210737
 20
215.99127630033576
 10
4046.4180254114785
 20
217.4198477289071
 10
4050.45868271507
 20
213.11223446414473
 10
4053.1387596958793
 20
214.54080589271607
 10
4057.1726650957967
 20
210.2403906127468
 10
4063.8728575478194
 20
211.66896204131814
 10
4065.9856927687993
 20
209.4165371657768
 10
4063.2685065415358
 20
206.51983334855694
 10
4063.2685065415358
 20
200.80554763427116
 10
4057.927690606569
 20
195.11187756092184
 10
4059.2706419524907
 20
192.24852410281866
 10
4051.2447755375847
 20
185.1184282560917
 10
4057.9083525799174
 20
176.5938410807899
 10
4057.9083525799174
 20
172.3132409829965
 10
4071.3360829477656
 20
157.99837458816802
 10
4067.919148535882
 20
152.8986189671898
 10
4061.204649438517
 20
151.46699716880886
 10
4053.8651543235787
 20
145.06521788019035
 10
4051.2104249963113
 20
140.82003705738288
 10
4052.5513347637043
 20
123.66603383397768
 10
4050.4814474348186
 20
121.45939430863395
 10
4045.034680368948
 20
121.45939430863395
 10
4042.3979099402645
 20
124.2703694597892
 10
4039.147813714254
 20
120.80554763427142
 10
4039.147813714254
 20
118.02752669728223
 10
4040.524961451113
 20
116.55939430863394
 10
4039.1849229607083
 20
115.13082288006248
 10
4041.8649999415175
 20
112.27368002291959
 10
4040.532515121174
 20
110.8531613161976
 10
4047.177909495761
 20
105.18561035965234
 10
4048.519330561044
 20
99.46542897301536
 10
4058.4989136574973
 20
88.82652017843051
 10
4063.8135381796187
 20
91.6593943086339
 10
4066.4752962154207
 20
91.6593943086339
 10
4069.15537319623
 20
94.5165371657768
 10
4073.1938076124507
 20
94.5165371657768
 10
4078.5611968463886
 20
97.37753666710891
 10
4087.993470598021
 20
95.94104522253654
 10
4094.124513519888
 20
92.30987558398607
 10
4092.054240211569
 20
88.63145724155885
 10
4088.729237859222
 20
86.50465115598371
 10
4088.729237859222
 20
79.37697620569995
 10
4086.0491608784127
 20
76.51983334855706
 10
4086.0491608784127
 20
73.74181241156796
 10
4088.7663471056762
 20
70.84510859434823
 10
4083.416060456332
 20
65.14134210058697
 10
4088.729237859222
 20
60.8931879503235
 10
4088.729237859222
 20
55.170383840139394
 10
4094.1087298474913
 20
49.43548248491747
 10
4092.7686913570865
 20
46.57833962777469
 10
4094.1265010672946
 20
45.13082288006254
 10
4089.3425636565503
 20
40.030822880062544
 10
4085.229158490847
 20
40.030822880062544
 10
4079.849862948306
 20
47.19918779359244
 10
4076.4136040714557
 20
49.39715805539924
 10
4077.7718206895315
 20
50.84510859434821
 10
4075.8783303680016
 20
52.863697010265945
 10
4073.198253387193
 20
51.43512558169449
 10
4071.8354501770395
 20
52.88796573720545
 10
4066.5523424169596
 20
52.88796573720545
 10
4061.928468051131
 20
49.36699288262736
 10
4061.928468051131
 20
47.948404777128474
 10
4054.4471501641574
 20
39.9728152265888
 10
4050.427034692944
 20
45.68710094087447
 10
4047.188044656681
 20
42.2341190628428
 10
4047.188044656681
 20
39.37697620569991
 10
4044.5208257363465
 20
36.53354090841565
 10
4045.860864226751
 20
32.24782662270131
 10
4043.7379484306693
 20
29.98465517407489
 10
4041.0145648977345
 20
32.88796573720543
 10
4038.4027820761708
 20
32.88796573720543
 10
4033.079266004566
 20
30.050352111219205
 10
4026.360754607536
 20
22.88796573720542
 10
4022.3406391363224
 20
22.88796573720542
 10
4018.277217112983
 20
18.55608374550355
 10
4016.8938720704527
 20
20.030822880062527
 10
4012.9603697034904
 20
20.030822880062527
 10
4011.60212039425
 20
18.58283749012579
 10
4004.856400895136
 20
21.45939430863397
 10
4002.153448676003
 20
21.45939430863397
  0
LWPOLYLINE
  5
47
330
17
100
AcDbEntity
  8
C
100
AcDbPolyline
 90
10
 70
1
 10
4053.6882371087036
 20
33.74181241156793
 10
4055.785077253445
 20
35.97718545682571
 10
4059.825938970201
 20
33.10529800150175
 10
4062.519029128711
 20
34.54080589271624
 10
4064.6278830585916
 20
32.29262534206035
 10
4063.2878445681868
 20
29.435482484917564
 10
4064.6456542783944
 20
27.98796573720541
 10
4061.165399553163
 20
24.277779425232016
 10
4053.6882371087036
 20
30.79963725400159
 10
4053.6882371087036
 20
33.74181241156793
  0
LWPOLYLINE
  5
48
330
17
100
AcDbEntity
  8
C
100
AcDbPolyline
 90
42
 70
1
 10
3874.1304929020293
 20
217.93277624038376
 10
3871.4489666250174
 20
235.0849036683651
 10
3868.725816186422
 20
237.98796573720526
 10
3873.4891053433425
 20
243.0659533057169
 10
3889.6049642347516
 20
253.08796573720537
 10
3892.2702924628293
 20
253.08796573720537
 10
3894.9402996776957
 20
255.93437354455517
 10
3900.3004536393137
 20
257.3629449731265
 10
3902.9906003860665
 20
260.2308228800625
 10
3905.678921203012
 20
260.2308228800625
 10
3916.3992291262484
 20
268.80225145149114
 10
3919.0793061070576
 20
268.80225145149114
 10
3924.4394600686755
 20
273.0879657372054
 10
3927.1112932133483
 20
273.0879657372054
 10
3929.7913701941575
 20
275.9451085943483
 10
3932.4796910111027
 20
275.9451085943483
 10
3937.839844972721
 20
280.23082288006253
 10
3940.511678117394
 20
280.23082288006253
 10
3943.223857682177
 20
283.1221892573337
 10
3948.087734437633
 20
279.41846016154835
 10
3942.6650424051268
 20
275.082743524087
 10
3942.6650424051268
 20
272.2449867321779
 10
3939.9849654243176
 20
267.95927244646344
 10
3939.9849654243176
 20
262.2341190628425
 10
3936.586366839929
 20
258.6109837054582
 10
3929.886174387906
 20
257.18241227688685
 10
3927.91322588517
 20
255.07911607962552
 10
3926.5731873947652
 20
250.7934017939113
 10
3923.9045035394624
 20
247.9484047771283
 10
3923.9045035394624
 20
245.09126191998564
 10
3920.4977138655768
 20
241.45939430863405
 10
3917.817636884768
 20
241.45939430863405
 10
3909.1553275589717
 20
232.22478821568114
 10
3907.815289068567
 20
226.51050250139537
 10
3904.440033382927
 20
222.91225224876808
 10
3900.3613586120596
 20
220.01349061576624
 10
3897.648765369455
 20
221.45939430863405
 10
3889.6654378851704
 20
221.45939430863405
 10
3885.645322413957
 20
218.60225145149116
 10
3882.97663613425
 20
218.60225145149116
 10
3878.924418079062
 20
214.28231364564843
 10
3874.1304929020293
 20
217.93277624038376
  0
LWPOLYLINE
  5
49
330
17
100
AcDbEntity
  8
C
100
AcDbPolyline
 90
11
 70
1
 10
4427.745831715038
 20
515.7734049156679
 10
4423.173607778926
 20
520.0308228800625
 10
4420.863791909181
 20
520.0308228800625
 10
4417.935017433113
 20
523.6669868831973
 10
4417.935017433113
 20
525.1660874483562
 10
4426.660685025715
 20
535.9992733637629
 10
4437.677522182081
 20
523.7612921408985
 10
4443.449386570456
 20
513.7289649787766
 10
4443.449386570456
 20
506.52412974034
 10
4440.480229291237
 20
502.8378292393758
 10
4427.745831715038
 20
515.7734049156679
  0
LWPOLYLINE
  5
4A
330
17
100
AcDbEntity
  8
C
100
AcDbPolyline
 90
189
 70
1
 10
5089.170560406332
 20
94.31653716577682
 10
5083.29284710453
 20
94.31653716577682
 10
5082.105956651308
 20
92.89398427599127
 10
5071.285467957185
 20
91.45299034480092
 10
5068.226395218416
 20
95.11945573155079
 10
5073.0147941658715
 20
103.72819136717082
 10
5073.0147941658715
 20
108.02420426184467
 10
5074.206706116907
 20
109.45277569041612
 10
5074.206706116907
 20
115.0945843554232
 10
5069.431289501349
 20
120.81818141356327
 10
5071.8300909900945
 20
132.31855865756125
 10
5074.8531557023025
 20
135.94186646215988
 10
5095.115658869916
 20
137.37043789073132
 10
5098.041535712224
 20
140.8772607368376
 10
5096.856330202693
 20
153.66206127337924
 10
5095.6611212355565
 20
155.09458435542322
 10
5095.6611212355565
 20
169.38029864113747
 10
5094.469209284521
 20
170.80887006970892
 10
5094.469209284521
 20
175.09908057700662
 10
5087.96188202832
 20
184.3165371657768
 10
5085.6620927973745
 20
184.3165371657768
 10
5079.702533042194
 20
180.03082288006246
 10
5076.129619141988
 20
180.03082288006246
 10
5072.55388328888
 20
177.17368002291965
 10
5068.896300982394
 20
177.17368002291965
 10
5062.942084299932
 20
184.31013320194378
 10
5052.214876740607
 20
182.88156177337234
 10
5049.825709765817
 20
185.74510859434824
 10
5047.4418858637455
 20
185.74510859434824
 10
5046.269840688235
 20
187.14986860977888
 10
5040.369120803768
 20
184.32093486928747
 10
5033.239927381019
 20
182.89681373018752
 10
5031.993831855127
 20
181.40330033432582
 10
5030.75511854924
 20
182.88796573720535
 10
5028.46489735687
 20
182.88796573720535
 10
5027.272985405834
 20
181.459394308634
 10
5018.835999038879
 20
181.459394308634
 10
5017.690888442695
 20
182.83187176289718
 10
5016.54577784651
 20
181.459394308634
 10
5010.492615381627
 20
181.459394308634
 10
5009.300703430591
 20
182.88796573720535
 10
5004.55218720216
 20
182.88796573720535
 10
5002.2273940199
 20
184.28116139843965
 10
4998.124341250599
 20
177.9583626668436
 10
4998.124341250599
 20
157.9517272125661
 10
4995.04456137301
 20
154.26044319146848
 10
4993.818140327772
 20
155.73037565007087
 10
4989.050492523628
 20
154.30180422149942
 10
4987.846288311942
 20
155.7451085943482
 10
4981.886728556761
 20
155.7451085943482
 10
4980.694816605725
 20
157.17368002291965
 10
4974.759325845908
 20
157.17368002291965
 10
4968.799766090728
 20
160.03082288006254
 10
4962.816137340184
 20
160.03082288006254
 10
4956.903378939855
 20
167.11758604861137
 10
4952.1756199136635
 20
161.45110920850814
 10
4943.7391624411885
 20
162.89561692847366
 10
4942.553634172571
 20
164.31653716577677
 10
4937.785986368427
 20
164.31653716577677
 10
4931.177271992579
 20
172.23744149828036
 10
4931.177271992579
 20
175.09820431501566
 10
4922.809463402483
 20
186.5602324442639
 10
4933.53083284877
 20
200.83817195594133
 10
4922.294450509657
 20
212.88796573720538
 10
4921.09459467376
 20
212.88796573720538
 10
4913.943122967544
 20
222.88796573720538
 10
4912.75583539667
 20
222.88796573720538
 10
4900.836715886308
 20
237.1736800229196
 10
4899.644803935273
 20
237.1736800229196
 10
4890.652265657353
 20
247.95172721256597
 10
4890.652265657353
 20
249.45277569041613
 10
4893.67962247163
 20
253.08122781324948
 10
4903.214918079919
 20
254.50979924182082
 10
4904.445190320768
 20
255.98434756824173
 10
4911.596662026985
 20
250.27006185395595
 10
4912.75583539667
 20
251.6593943086338
 10
4917.613106077087
 20
251.6593943086338
 10
4927.148401685376
 20
241.65939430863403
 10
4930.728117371913
 20
241.65939430863403
 10
4937.87958907813
 20
233.08796573720537
 10
4941.455324931238
 20
233.08796573720537
 10
4943.83914883331
 20
230.23082288006248
 10
4946.219458871024
 20
230.23082288006248
 10
4956.946666430348
 20
218.80225145149112
 10
4958.04848953604
 20
218.80225145149112
 10
4962.813079302339
 20
224.5128719407674
 10
4980.691758567881
 20
225.94144336933897
 10
4983.6213978381675
 20
229.4527756904161
 10
4983.6213978381675
 20
230.80887006970886
 10
4979.478297670558
 20
235.77460140582863
 10
4975.237974514083
 20
239.4047859676902
 10
4978.305370995192
 20
243.08122781324948
 10
4987.84066660348
 20
244.50979924182082
 10
4989.038200262978
 20
245.94510859434826
 10
4993.829917062485
 20
245.94510859434826
 10
4999.803858474546
 20
248.8091463313007
 10
5004.57150627869
 20
247.38057490272914
 10
5010.566351315804
 20
250.25463429320328
 10
5013.619196614069
 20
246.59563283327324
 10
5013.619196614069
 20
238.02420426184457
 10
5016.54577784651
 20
234.5165371657767
 10
5027.26122914951
 20
234.5165371657767
 10
5030.836965002617
 20
231.6593943086338
 10
5041.556797242553
 20
231.6593943086338
 10
5043.9788842960525
 20
230.20789264396257
 10
5046.992731243078
 20
226.5956328332732
 10
5046.992731243078
 20
223.66601292685172
 10
5044.608907341006
 20
220.80887006970883
 10
5044.608907341006
 20
218.02420426184477
 10
5047.535488573448
 20
214.51653716577667
 10
5061.838431985881
 20
214.51653716577667
 10
5066.069513893201
 20
209.44535491989913
 10
5064.877601942165
 20
202.30249777704202
 10
5067.802128686501
 20
198.79729309692996
 10
5080.913160147898
 20
197.36872166835852
 10
5082.0886428928425
 20
195.95984153862557
 10
5086.856290696987
 20
197.388412967197
 10
5090.444318810745
 20
193.08796573720534
 10
5092.828142712819
 20
193.08796573720534
 10
5101.17152637007
 20
183.0879657372053
 10
5103.558885352087
 20
183.0879657372053
 10
5113.115887364448
 20
170.20155453332762
 10
5129.764668471826
 20
157.37368002291961
 10
5133.259546338341
 20
157.37368002291961
 10
5143.354784326137
 20
169.4733729083352
 10
5148.125522722846
 20
178.05035784518765
 10
5153.555706761894
 20
183.1124245657374
 10
5160.747992346161
 20
178.8022514514911
 10
5173.8781553832705
 20
178.8022514514911
 10
5179.294957808082
 20
172.30991854755894
 10
5179.294957808082
 20
160.8813471189875
 10
5180.486869759117
 20
159.45277569041605
 10
5180.486869759117
 20
156.59563283327316
 10
5184.605362942595
 20
151.65939430863395
 10
5186.904046262124
 20
151.65939430863395
 10
5191.671694066269
 20
155.94510859434817
 10
5194.066187416894
 20
155.94510859434817
 10
5201.179395971683
 20
160.20789264396274
 10
5203.58235144947
 20
163.0879657372053
 10
5207.164692604321
 20
163.0879657372053
 10
5213.1147930566685
 20
168.79318145953403
 10
5219.077272777916
 20
170.2224528357975
 10
5227.430433263843
 20
177.37368002291964
 10
5229.816170628588
 20
177.37368002291964
 10
5233.391906481696
 20
180.23082288006242
 10
5241.723533882624
 20
180.23082288006242
 10
5242.911308888219
 20
181.65443595407282
 10
5256.115727233484
 20
183.093182770789
 10
5259.153058527498
 20
179.45277569041608
 10
5259.153058527498
 20
87.95172721256606
 10
5256.120080004759
 20
84.31653716577681
 10
5253.658493086908
 20
84.31653716577681
 10
5245.364594985152
 20
89.99693080288485
 10
5244.168221913047
 20
88.56301247759757
 10
5236.967642334805
 20
94.31653716577682
 10
5233.380150225371
 20
94.31653716577682
 10
5230.990704614837
 20
97.18041794687582
 10
5221.463314875756
 20
98.60780492356113
 10
5216.6937167600645
 20
102.89527237528084
 10
5209.54054129632
 20
104.32418414489342
 10
5203.588956751213
 20
110.0308228800625
 10
5201.198527547397
 20
110.0308228800625
 10
5196.430879743253
 20
115.74510859434817
 10
5192.86690014647
 20
115.74510859434817
 10
5185.715428440254
 20
121.45939430863395
 10
5183.413450991558
 20
121.45939430863395
 10
5182.221539040523
 20
120.0308228800625
 10
5173.799130882795
 20
120.0308228800625
 10
5167.839571127615
 20
124.31653716577684
 10
5165.460300592028
 20
124.31653716577684
 10
5160.654389636458
 20
127.19661025901941
 10
5154.760762811842
 20
134.26044319146857
 10
5152.434454066772
 20
131.47223538437726
 10
5147.663132375557
 20
130.04256311733886
 10
5138.787511803697
 20
120.82303682967344
 10
5141.153775374927
 20
115.15084514237583
 10
5141.153775374927
 20
109.45277569041612
 10
5142.345687325963
 20
108.02420426184467
 10
5142.345687325963
 20
102.23744149828029
 10
5139.336221315875
 20
98.63043247925663
 10
5132.149480840683
 20
92.88796573720536
 10
5129.7582816192225
 20
92.88796573720536
 10
5125.02403721233
 20
90.05084077605264
 10
5119.053059636701
 20
84.32560715773386
 10
5113.099391682992
 20
82.8984480581919
 10
5109.493615172991
 20
78.57672840807494
 10
5101.060958763921
 20
82.90829909012731
 10
5096.2867633435735
 20
88.63043247925661
 10
5089.170560406332
 20
94.31653716577682
  0
LWPOLYLINE
  5
4B
330
17
100
AcDbEntity
  8
C
100
AcDbPolyline
 90
15
 70
1
 10
5213.122022766478
 20
462.8953026889222
 10
5207.164075938423
 20
467.1798570660013
 10
5199.999233376357
 20
468.6110994444732
 10
5198.814703645325
 20
470.0308228800625
 10
5180.936024379785
 20
470.0308228800625
 10
5177.903045857045
 20
473.66601292685175
 10
5177.903045857045
 20
476.5917613232513
 10
5185.699378494008
 20
487.3736800229196
 10
5200.0761493107
 20
487.3736800229196
 10
5206.035709065881
 20
484.5165371657767
 10
5221.554633424713
 20
484.5165371657767
 10
5224.584314931351
 20
480.8852987724599
 10
5225.783485659329
 20
467.94985555763446
 10
5219.1545124857785
 20
461.4492491530626
 10
5213.122022766478
 20
462.8953026889222
  0
LWPOLYLINE
  5
4C
330
17
100
AcDbEntity
  8
C
100
AcDbPolyline
 90
39
 70
1
 10
5133.855514407867
 20
356.4522804038557
 10
5127.294976412511
 20
365.74510859434815
 10
5124.916162681089
 20
365.74510859434815
 10
5123.771052084904
 20
367.1175860486113
 10
5122.62594148872
 20
365.74510859434815
 10
5118.975734501622
 20
365.74510859434815
 10
5116.641558022209
 20
367.1439274520807
 10
5113.065822169101
 20
362.85821316636645
 10
5110.660020623508
 20
364.2999552966726
 10
5108.303866500573
 20
362.88796573720526
 10
5098.694099758296
 20
362.88796573720526
 10
5097.50218780726
 20
364.3165371657768
 10
5084.4847590555655
 20
364.3165371657768
 10
5083.29284710453
 20
362.88796573720526
 10
5071.373727594169
 20
362.88796573720526
 10
5070.181815643133
 20
361.45939430863393
 10
5064.12865317825
 20
361.45939430863393
 10
5061.744829276177
 20
364.3165371657768
 10
5045.04804742303
 20
364.3165371657768
 10
5042.00291207273
 20
369.4262020997552
 10
5045.058061961672
 20
373.08796573720525
 10
5049.900180899806
 20
373.08796573720525
 10
5052.234357379219
 20
371.68914687947273
 10
5053.396424121111
 20
373.08194719841947
 10
5064.123631680435
 20
374.51051862699103
 10
5065.324236659654
 20
375.94950912358047
 10
5080.83885471506
 20
374.5191156439869
 10
5085.651847295272
 20
377.4034325937585
 10
5086.868582957638
 20
375.94510859434814
 10
5089.170560406332
 20
375.94510859434814
 10
5092.74629625944
 20
378.80225145149103
 10
5098.700051304301
 20
378.80225145149103
 10
5105.217148643815
 20
385.1931484419171
 10
5108.21778023499
 20
390.22813712303207
 10
5138.118904656496
 20
391.66166220829024
 10
5142.33985688057
 20
386.6026209398174
 10
5145.927614612618
 20
365.10200512594014
 10
5139.31773030104
 20
357.1796985617055
 10
5133.855514407867
 20
356.4522804038557
  0
LWPOLYLINE
  5
4D
330
17
100
AcDbEntity
  8
C
100
AcDbPolyline
 90
10
 70
1
 10
5034.873611732717
 20
120.80887006970897
 10
5034.873611732717
 20
129.46002813700952
 10
5040.291719244544
 20
134.51083700955402
 10
5049.913284614357
 20
135.95233331445078
 10
5054.139989543045
 20
130.88639711599416
 10
5055.340513643499
 20
120.81414220311382
 10
5049.92805827808
 20
114.32701948676338
 10
5046.885140110653
 20
113.5975988362381
 10
5037.892807927353
 20
117.1901988942431
 10
5034.873611732717
 20
120.80887006970897
  0
LWPOLYLINE
  5
4E
330
17
100
AcDbEntity
  8
C
100
AcDbPolyline
 90
13
 70
1
 10
5026.530228075465
 20
253.65959408306526
 10
5026.530228075465
 20
259.39651490346336
 10
5025.322669280082
 20
262.29116495190794
 10
5028.371294647168
 20
265.9451085943481
 10
5030.836965002617
 20
265.9451085943481
 10
5034.412700855726
 20
263.08796573720537
 10
5039.172973340482
 20
263.08796573720537
 10
5043.9788842960525
 20
260.2078926439626
 10
5048.184643194114
 20
255.16706140470168
 10
5048.184643194114
 20
250.80887006970886
 10
5045.149407728836
 20
247.1709749542903
 10
5032.547228190697
 20
247.89023204731487
 10
5026.530228075465
 20
253.65959408306526
  0
LWPOLYLINE
  5
4F
330
17
100
AcDbEntity
  8
C
100
AcDbPolyline
 90
50
 70
1
 10
7111.862576816479
 20
53.67299809287807
 10
7111.862576816479
 20
57.958712378592296
 10
7106.37840216369
 20
66.53014095002096
 10
7106.37840216369
 20
69.3814667482301
 10
7099.523183847704
 20
77.95289531965865
 10
7099.523183847704
 20
87.95871237859232
 10
7096.754425132486
 20
92.28611240895634
 10
7098.89503194284
 20
94.5165371657768
 10
7107.132599918368
 20
94.5165371657768
 10
7111.24573090796
 20
97.37368002291969
 10
7116.718599564406
 20
97.37368002291969
 10
7118.717795132466
 20
99.45676004824666
 10
7118.717795132466
 20
105.09059999759262
 10
7115.975707806071
 20
107.94774285473552
 10
7115.975707806071
 20
110.88533147681812
 10
7118.717795132466
 20
113.7424743339609
 10
7118.717795132466
 20
123.7424743339609
 10
7120.861312214072
 20
125.97593147441066
 10
7133.245077672958
 20
117.3736800229197
 10
7135.987164999353
 20
117.3736800229197
 10
7140.134213977977
 20
114.49297639410783
 10
7142.24568349538
 20
112.29291150498
 10
7140.854493743624
 20
109.39378584701842
 10
7140.854493743624
 20
99.45676004824666
 10
7142.853689311683
 20
97.37368002291969
 10
7145.595776638079
 20
97.37368002291969
 10
7148.3154915929335
 20
94.53984826200823
 10
7151.01283417625
 20
95.94510859434824
 10
7156.569108451213
 20
95.94510859434824
 10
7164.149891834827
 20
86.61008481890664
 10
7166.8904471073465
 20
79.4712185197638
 10
7172.427101126851
 20
73.70225145149112
 10
7171.017454333965
 20
72.23345714044981
 10
7171.017454333965
 20
69.37631428330693
 10
7168.275367007571
 20
66.51917142616415
 10
7168.275367007571
 20
60.80488571187836
 10
7166.161431586039
 20
58.602251451491114
 10
7150.994691144339
 20
58.602251451491114
 10
7149.623647481141
 20
60.03082288006256
 10
7142.835546279774
 20
60.03082288006256
 10
7137.359305899364
 20
57.17781361659491
 10
7129.150054995045
 20
55.75219632874773
 10
7127.14405711165
 20
53.662028569021246
 10
7127.14405711165
 20
50.804885711878356
 10
7124.4019697852555
 20
47.947742854735466
 10
7124.4019697852555
 20
36.51917142616412
 10
7122.245404290459
 20
34.27211837278132
 10
7114.604664142874
 20
42.233457140449794
 10
7114.604664142874
 20
49.387283807163726
 10
7111.862576816479
 20
53.67299809287807
  0
LWPOLYLINE
  5
50
330
17
100
AcDbEntity
  8
C
100
AcDbPolyline
 90
7
 70
1
 10
7124.987491616854
 20
24.56095595877228
 10
7127.14405711165
 20
22.313902905389483
 10
7127.14405711165
 20
17.947742854735548
 10
7124.987491616854
 20
15.700689801352862
 10
7122.830926122058
 20
17.947742854735548
 10
7122.830926122058
 20
22.313902905389483
 10
7124.987491616854
 20
24.56095595877228
  0
LWPOLYLINE
  5
51
330
17
100
AcDbEntity
  8
C
100
AcDbPolyline
 90
47
 70
1
 10
6993.95916518257
 20
50.806841561102715
 10
6992.590861682486
 20
56.50970672376354
 10
6988.468647128719
 20
60.80488571187836
 10
6988.468647128719
 20
66.54085913343988
 10
6985.743139023932
 20
73.64052909901741
 10
6980.209106147611
 20
77.96520605721646
 10
6982.98447247593
 20
82.30293338153271
 10
6982.98447247593
 20
85.0905999975926
 10
6978.851195397779
 20
89.3973056837164
 10
6980.222239060976
 20
92.25444854085929
 10
6978.243189581475
 20
94.31653716577682
 10
6975.501102255081
 20
94.31653716577682
 10
6972.016123170351
 20
97.94774285473551
 10
6972.016123170351
 20
102.23345714044973
 10
6969.274035843956
 20
105.09059999759262
 10
6969.274035843956
 20
109.37631428330697
 10
6965.903796612698
 20
112.88796573720539
 10
6941.225010675146
 20
112.88796573720539
 10
6939.072472123927
 20
115.13082288006248
 10
6943.2080942706825
 20
119.43997203177126
 10
6940.4821189168115
 20
126.54085913343982
 10
6940.4821189168115
 20
132.23345714044976
 10
6936.342316538398
 20
136.5469619225973
 10
6939.084403864793
 20
140.8326762083115
 10
6935.002131822567
 20
145.08623673283915
 10
6933.631088159369
 20
157.94337958998204
 10
6932.217253807939
 20
159.41653716577676
 10
6934.36979235916
 20
161.65939430863398
 10
6965.993320613759
 20
161.65939430863398
 10
6983.834022913193
 20
140.21022253357717
 10
6986.536568675276
 20
138.80225145149106
 10
7007.125349162702
 20
138.80225145149106
 10
7014.71194662244
 20
129.4600681865755
 10
7016.082151489246
 20
122.32158100140289
 10
7017.460564055863
 20
120.88533147681812
 10
7017.460564055863
 20
106.59961719110377
 10
7021.56342173911
 20
102.32460727047655
 10
7024.305509065504
 20
92.32460727047665
 10
7027.04314232423
 20
89.4721053696973
 10
7031.158683871897
 20
79.46624472951646
 10
7040.806402313909
 20
66.54156577517823
 10
7029.06338698042
 20
57.18482208409015
 10
7024.95231710099
 20
55.756966519685314
 10
7008.50544068678
 20
41.47615599235288
 10
7002.972549154136
 20
38.59363263693793
 10
7000.840950894221
 20
39.33397870882616
 10
6993.95916518257
 20
50.806841561102715
  0
LWPOLYLINE
  5
52
330
17
100
AcDbEntity
  8
C
100
AcDbPolyline
 90
33
 70
1
 10
6935.002639539376
 20
12.228564855543688
 10
6933.630615147142
 20
23.66531132050753
 10
6926.134256687584
 20
34.316537165776765
 10
6898.722657116028
 20
34.316537165776765
 10
6896.608721694498
 20
36.51917142616412
 10
6896.608721694498
 20
56.599617191103846
 10
6900.085620475752
 20
60.22240353428465
 10
6906.9512185697495
 20
61.65313802369754
 10
6911.065787554373
 20
64.51127976885174
 10
6919.377108979573
 20
65.95462260813379
 10
6922.854410403487
 20
60.88213437562129
 10
6924.224252525436
 20
50.890898073535304
 10
6928.928247779635
 20
45.98952738734363
 10
6930.256661369568
 20
47.37368002291964
 10
6938.482923348752
 20
47.37368002291964
 10
6939.853967011949
 20
48.80225145149109
 10
6948.080228991133
 20
48.80225145149109
 10
6949.45127265433
 20
50.23082288006253
 10
6957.762794780043
 20
50.23082288006253
 10
6959.876730201575
 20
48.02818861967517
 10
6959.876730201575
 20
43.74247433396094
 10
6965.351821290189
 20
38.03765332207587
 10
6966.7252593554795
 20
32.313388131539725
 10
6969.49555467116
 20
27.983586488908863
 10
6964.641850967167
 20
21.48126550072249
 10
6959.151981475151
 20
18.621155748787643
 10
6954.392555548785
 20
13.662028569021212
 10
6954.392555548785
 20
12.233457140449765
 10
6945.446013803955
 20
2.9115265088743847
 10
6941.254592335221
 20
0.0
 10
6936.36898792722
 20
5.090599997592649
 10
6936.36898792722
 20
10.80488571187843
 10
6935.002639539376
 20
12.228564855543688
  0
LWPOLYLINE
  5
53
330
17
100
AcDbEntity
  8
C
100
AcDbPolyline
 90
10
 70
1
 10
7822.671069127203
 20
237.88536406165605
 10
7821.226597446986
 20
239.3760347827536
 10
7821.226597446986
 20
273.7427538345143
 10
7823.382904951558
 20
275.96802727307914
 10
7826.195915664711
 20
274.51653716577675
 10
7838.6726559897215
 20
274.51653716577675
 10
7840.806755113928
 20
272.314182405943
 10
7840.806755113928
 20
242.21574315930172
 10
7834.506846388994
 20
238.60385377039296
 10
7822.671069127203
 20
237.88536406165605
  0
LWPOLYLINE
  5
54
330
17
100
AcDbEntity
  8
C
100
AcDbPolyline
 90
37
 70
1
 10
8157.91680366657
 20
48.521446300863744
 10
8147.8486173799265
 20
63.68752479208006
 10
8148.807245189594
 20
66.57555729194942
 10
8148.807245189594
 20
80.87528007512257
 10
8151.278181630903
 20
84.59734231640414
 10
8152.2208917150765
 20
83.17730352053754
 10
8158.859513750745
 20
94.605874949109
 10
8161.331261946264
 20
90.8825899326694
 10
8162.279636522788
 20
85.16830421838361
 10
8165.557443764115
 20
80.23082288006256
 10
8167.346905946452
 20
80.23082288006256
 10
8171.548205320453
 20
86.55939430863391
 10
8166.8063324378345
 20
93.70225145149114
 10
8172.096813988494
 20
101.67149796415164
 10
8178.7354360241625
 20
100.2429265355802
 10
8179.723165492037
 20
101.73077968126165
 10
8186.429770544397
 20
93.07157512732822
 10
8190.226995530003
 20
91.64160029022949
 10
8192.652505415399
 20
87.98796573720536
 10
8191.684101133164
 20
86.52922282785957
 10
8191.684101133164
 20
82.2525401988513
 10
8189.800977434476
 20
77.99761269604255
 10
8192.111931906782
 20
74.51653716577678
 10
8192.953019512595
 20
74.51653716577678
 10
8197.757111999947
 20
81.75311798260942
 10
8202.12893032935
 20
73.70425861840657
 10
8199.286373043651
 20
67.99512747557334
 10
8200.23950202759
 20
66.559394308634
 10
8198.32272316883
 20
63.67207997071678
 10
8198.32272316883
 20
60.875280075122554
 10
8199.29741412983
 20
59.40706731084611
 10
8192.110810080885
 20
51.468407338576604
 10
8185.462235463307
 20
50.03769420437942
 10
8181.6399589204175
 20
47.15887649013517
 10
8174.966940614119
 20
50.03082288006255
 10
8158.918821728449
 20
50.03082288006255
 10
8157.91680366657
 20
48.521446300863744
  0
LWPOLYLINE
  5
55
330
17
100
AcDbEntity
  8
C
100
AcDbPolyline
 90
24
 70
1
 10
8165.450156793405
 20
300.03082288006254
 10
8159.759909334262
 20
300.03082288006254
 10
8158.803278261847
 20
301.47183137139757
 10
8153.104798926982
 20
302.9024694627183
 10
8150.689422654873
 20
307.9961873499346
 10
8153.113030802704
 20
311.6469572458702
 10
8158.803278261847
 20
313.07552867444156
 10
8159.759909334262
 20
314.51653716577675
 10
8163.660694611068
 20
314.51653716577675
 10
8164.58580000714
 20
313.1230169576624
 10
8169.269499938634
 20
315.9451085943481
 10
8172.088778829071
 20
315.9451085943481
 10
8173.037153405595
 20
317.37368002291964
 10
8176.9379386824
 20
317.37368002291964
 10
8179.3752613440665
 20
313.7022514514911
 10
8178.406857061832
 20
312.2435085421451
 10
8178.406857061832
 20
309.3863656850022
 10
8176.510107908784
 20
306.52922282785954
 10
8176.510107908784
 20
300.8289456110327
 10
8175.552433620268
 20
297.94378575897196
 10
8173.09079689095
 20
294.2357320151492
 10
8171.130677444985
 20
297.1883318701112
 10
8166.388804562366
 20
298.61690329868253
 10
8165.450156793405
 20
300.03082288006254
  0
LWPOLYLINE
  5
56
330
17
100
AcDbEntity
  8
C
100
AcDbPolyline
 90
38
 70
1
 10
8135.090357568375
 20
357.191474041324
 10
8131.29685926228
 20
358.62004546989533
 10
8129.394692992745
 20
361.485348328404
 10
8124.6615292551705
 20
364.3372436236292
 10
8118.955605334946
 20
370.0672720236682
 10
8107.058734116835
 20
387.9879657372054
 10
8110.444431355026
 20
393.0879657372053
 10
8112.341180508073
 20
393.0879657372053
 10
8113.343198569952
 20
394.5973423164042
 10
8115.293591208355
 20
391.6593943086339
 10
8117.083053390692
 20
391.6593943086339
 10
8119.3876036116435
 20
395.1308228800625
 10
8117.083053390692
 20
398.6022514514911
 10
8115.293591208355
 20
398.6022514514911
 10
8114.2915731464755
 20
397.09287487229216
 10
8110.85223242293
 20
402.2736800229196
 10
8113.289555084597
 20
405.9451085943482
 10
8117.1661713330395
 20
405.9451085943482
 10
8123.770913202034
 20
401.68126642509617
 10
8125.638622212218
 20
403.0879657372053
 10
8129.519209856211
 20
403.0879657372053
 10
8132.907157093573
 20
397.9845764808798
 10
8124.349506199975
 20
386.5261732859977
 10
8124.349506199975
 20
385.156228041643
 10
8128.587289183302
 20
377.3541382294041
 10
8132.37614636205
 20
375.92731457594385
 10
8138.074778677737
 20
367.343255587391
 10
8139.873073006563
 20
365.98883721625697
 10
8142.742810442188
 20
370.3116280306902
 10
8145.23377658921
 20
366.55939430863384
 10
8143.343898796355
 20
363.71260203351574
 10
8149.947382089962
 20
356.6075525883039
 10
8150.910816127368
 20
352.2537844468283
 10
8148.433057901332
 20
348.52144630086343
 10
8147.484683324808
 20
349.950017729435
 10
8146.570617377828
 20
348.5731266486203
 10
8137.932320300484
 20
352.91052128209134
 10
8135.090357568375
 20
357.191474041324
  0
LWPOLYLINE
  5
57
330
17
100
AcDbEntity
  8
C
100
AcDbPolyline
 90
27
 70
1
 10
8129.409517187126
 20
298.61469768759383
 10
8124.667644304507
 20
300.0432691161654
 10
8120.885162779378
 20
304.31653716577677
 10
8110.444431355026
 20
304.31653716577677
 10
8107.652951110809
 20
308.52144630086343
 10
8103.91309629007
 20
302.88796573720543
 10
8097.167187283691
 20
302.88796573720543
 10
8094.749894327738
 20
306.52922282785954
 10
8094.749894327738
 20
309.44270099511084
 10
8100.007430458048
 20
318.802251451491
 10
8102.964721713544
 20
318.802251451491
 10
8105.748424964494
 20
314.60905708676813
 10
8110.417344309308
 20
323.0486145486577
 10
8113.301653688993
 20
325.9451085943481
 10
8117.083053390692
 20
325.9451085943481
 10
8118.970075736175
 20
328.7875996042995
 10
8123.803875838195
 20
330.2438657017066
 10
8135.233654524146
 20
318.76580230788545
 10
8139.023153254261
 20
313.05754130167674
 10
8142.776256294733
 20
310.23082288006253
 10
8145.641577657117
 20
310.23082288006253
 10
8148.062940210153
 20
306.5834356059729
 10
8147.106585579316
 20
299.3804752197684
 10
8144.701898608453
 20
295.7582069870781
 10
8136.580836458773
 20
293.5994327611171
 10
8133.205939424133
 20
294.3256800835516
 10
8129.409517187126
 20
298.61469768759383
  0
LWPOLYLINE
  5
58
330
17
100
AcDbEntity
  8
C
100
AcDbPolyline
 90
54
 70
1
 10
8053.046751836696
 20
469.3421274091669
 10
8050.167279054362
 20
475.12540144176916
 10
8053.980268849692
 20
485.17678274646994
 10
8058.283829646216
 20
491.6593943086338
 10
8060.1805787992635
 20
491.6593943086338
 10
8063.025702528835
 20
495.945108594348
 10
8064.922451681882
 20
495.945108594348
 10
8065.870826258406
 20
497.3736800229196
 10
8071.56107371755
 20
497.3736800229196
 10
8072.509448294074
 20
498.80225145149114
 10
8077.251321176693
 20
498.80225145149114
 10
8078.1996957532165
 20
500.2308228800625
 10
8085.786692365406
 20
500.2308228800625
 10
8086.73506694193
 20
501.6593943086338
 10
8093.460778315494
 20
501.6593943086338
 10
8097.254276621589
 20
498.80225145149114
 10
8099.171223407449
 20
498.80225145149114
 10
8101.067972560497
 20
495.945108594348
 10
8102.964721713544
 20
495.945108594348
 10
8106.7159303533035
 20
490.2945253564337
 10
8110.453042437617
 20
494.5165371657767
 10
8117.190340361402
 20
494.5165371657767
 10
8118.138714937926
 20
493.08796573720537
 10
8123.803117557934
 20
493.08796573720537
 10
8128.544990440554
 20
490.2308228800625
 10
8132.338488746649
 20
490.2308228800625
 10
8137.1234363611575
 20
487.34772600314955
 10
8139.5234994243565
 20
483.7324229322655
 10
8139.5234994243565
 20
482.24350854214526
 10
8135.233654524146
 20
475.7815577379536
 10
8132.344201694052
 20
472.8798985135243
 10
8124.770339630166
 20
474.3059968105798
 10
8123.828962397069
 20
472.8879657372054
 10
8115.273393575542
 20
472.8879657372054
 10
8113.318584863896
 20
471.415665686725
 10
8112.341180508073
 20
472.8879657372054
 10
8110.444431355026
 20
472.8879657372054
 10
8106.650933048931
 20
478.60225145149116
 10
8105.809845443117
 20
478.60225145149116
 10
8102.961495867701
 20
474.31167795579876
 10
8086.8391280667975
 20
475.7402493843701
 10
8085.893979336117
 20
474.3165371657767
 10
8081.044819482788
 20
474.3165371657767
 10
8080.096444906264
 20
475.74510859434804
 10
8078.286785091114
 20
475.74510859434804
 10
8074.493286785019
 20
472.8879657372054
 10
8069.751413902401
 20
472.8879657372054
 10
8065.924469743761
 20
470.00563252251305
 10
8064.021494515399
 20
471.43889323395126
 10
8059.313646354317
 20
468.60225145149093
 10
8056.3870804931685
 20
468.60225145149093
 10
8055.4923494019995
 20
469.9500177294349
 10
8054.578283455019
 20
468.5731266486202
 10
8053.046751836696
 20
469.3421274091669
  0
LWPOLYLINE
  5
59
330
17
100
AcDbEntity
  8
C
100
AcDbPolyline
 90
8
 70
1
 10
8092.833115468979
 20
390.84510859434806
 10
8096.2478424864685
 20
395.98883721625697
 10
8098.202651198113
 20
394.51653716577664
 10
8102.016347137021
 20
394.51653716577664
 10
8105.396586357268
 20
389.42475877850603
 10
8102.961990249668
 20
384.2905087303361
 10
8095.258625354376
 20
387.19147404132383
 10
8092.833115468979
 20
390.84510859434806
  0
ENDSEC
  0
SECTION
  2
OBJECTS
  0
DICTIONARY
  5
A
330
0
100
AcDbDictionary
281
1
  3
ACAD_COLOR
350
B
  3
ACAD_GROUP
350
C
  3
ACAD_LAYOUT
350
D
  3
ACAD_MATERIAL
350
E
  3
ACAD_MLEADERSTYLE
350
F
  3
ACAD_MLINESTYLE
350
10
  3
ACAD_PLOTSETTINGS
350
11
  3
ACAD_PLOTSTYLENAME
350
12
  3
ACAD_SCALELIST
350
14
  3
ACAD_TABLESTYLE
350
15
  3
ACAD_VISUALSTYLE
350
16
  3
EZDXF_META
350
2D
  0
DICTIONARY
  5
B
330
A
100
AcDbDictionary
281
1
  0
DICTIONARY
  5
C
330
A
100
AcDbDictionary
281
1
  0
DICTIONARY
  5
D
330
A
100
AcDbDictionary
281
1
  3
Model
350
1A
  3
Layout1
350
1E
  0
DICTIONARY
  5
E
330
A
100
AcDbDictionary
281
1
  3
ByBlock
350
1F
  3
ByLayer
350
20
  3
Global
350
21
  0
DICTIONARY
  5
F
330
A
100
AcDbDictionary
281
1
  3
Standard
350
2C
  0
DICTIONARY
  5
10
330
A
100
AcDbDictionary
281
1
  3
Standard
350
22
  0
DICTIONARY
  5
11
330
A
100
AcDbDictionary
281
1
  0
ACDBDICTIONARYWDFLT
  5
12
330
A
100
AcDbDictionary
281
1
  3
Normal
350
13
100
AcDbDictionaryWithDefault
340
13
  0
ACDBPLACEHOLDER
  5
13
330
12
  0
DICTIONARY
  5
14
330
A
100
AcDbDictionary
281
1
  0
DICTIONARY
  5
15
330
A
100
AcDbDictionary
281
1
  0
DICTIONARY
  5
16
330
A
100
AcDbDictionary
281
1
  0
LAYOUT
  5
1A
330
D
100
AcDbPlotSettings
  1

  4
A3
  6

 40
7.5
 41
20.0
 42
7.5
 43
20.0
 44
420.0
 45
297.0
 46
0.0
 47
0.0
 48
0.0
 49
0.0
140
0.0
141
0.0
142
1.0
143
1.0
 70
1024
 72
1
 73
0
 74
5
  7

 75
16
 76
0
 77
2
 78
300
147
1.0
148
0.0
149
0.0
100
AcDbLayout
  1
Model
 70
1
 71
0
 10
0.0
 20
0.0
 11
420.0
 21
297.0
 12
0.0
 22
0.0
 32
0.0
 14
1e+20
 24
1e+20
 34
1e+20
 15
-1e+20
 25
-1e+20
 35
-1e+20
146
0.0
 13
0.0
 23
0.0
 33
0.0
 16
1.0
 26
0.0
 36
0.0
 17
0.0
 27
1.0
 37
0.0
 76
1
330
17
  0
LAYOUT
  5
1E
330
D
100
AcDbPlotSettings
  1

  4
A3
  6

 40
7.5
 41
20.0
 42
7.5
 43
20.0
 44
420.0
 45
297.0
 46
0.0
 47
0.0
 48
0.0
 49
0.0
140
0.0
141
0.0
142
1.0
143
1.0
 70
0
 72
1
 73
0
 74
5
  7

 75
16
 76
0
 77
2
 78
300
147
1.0
148
0.0
149
0.0
100
AcDbLayout
  1
Layout1
 70
1
 71
1
 10
0.0
 20
0.0
 11
420.0
 21
297.0
 12
0.0
 22
0.0
 32
0.0
 14
1e+20
 24
1e+20
 34
1e+20
 15
-1e+20
 25
-1e+20
 35
-1e+20
146
0.0
 13
0.0
 23
0.0
 33
0.0
 16
1.0
 26
0.0
 36
0.0
 17
0.0
 27
1.0
 37
0.0
 76
1
330
1B
  0
MATERIAL
  5
1F
102
{ACAD_REACTORS
330
E
102
}
330
E
100
AcDbMaterial
  1
ByBlock
  2

 70
0
 40
1.0
 71
1
 41
1.0
 91
-1023410177
 42
1.0
 72
1
  3

 73
1
 74
1
 75
1
 44
0.5
 73
0
 45
1.0
 46
1.0
 77
1
  4

 78
1
 79
1
170
1
 48
1.0
171
1
  6

172
1
173
1
174
1
140
1.0
141
1.0
175
1
  7

176
1
177
1
178
1
143
1.0
179
1
  8

270
1
271
1
272
1
145
1.0
146
1.0
273
1
  9

274
1
275
1
276
1
 42
1.0
 72
1
  3

 73
1
 74
1
 75
1
 94
63
  0
MATERIAL
  5
20
102
{ACAD_REACTORS
330
E
102
}
330
E
100
AcDbMaterial
  1
ByLayer
  2

 70
0
 40
1.0
 71
1
 41
1.0
 91
-1023410177
 42
1.0
 72
1
  3

 73
1
 74
1
 75
1
 44
0.5
 73
0
 45
1.0
 46
1.0
 77
1
  4

 78
1
 79
1
170
1
 48
1.0
171
1
  6

172
1
173
1
174
1
140
1.0
141
1.0
175
1
  7

176
1
177
1
178
1
143
1.0
179
1
  8

270
1
271
1
272
1
145
1.0
146
1.0
273
1
  9

274
1
275
1
276
1
 42
1.0
 72
1
  3

 73
1
 74
1
 75
1
 94
63
  0
MATERIAL
  5
21
102
{ACAD_REACTORS
330
E
102
}
330
E
100
AcDbMaterial
  1
Global
  2

 70
0
 40
1.0
 71
1
 41
1.0
 91
-1023410177
 42
1.0
 72
1
  3

 73
1
 74
1
 75
1
 44
0.5
 73
0
 45
1.0
 46
1.0
 77
1
  4

 78
1
 79
1
170
1
 48
1.0
171
1
  6

172
1
173
1
174
1
140
1.0
141
1.0
175
1
  7

176
1
177
1
178
1
143
1.0
179
1
  8

270
1
271
1
272
1
145
1.0
146
1.0
273
1
  9

274
1
275
1
276
1
 42
1.0
 72
1
  3

 73
1
 74
1
 75
1
 94
63
  0
MLINESTYLE
  5
22
102
{ACAD_REACTORS
330
10
102
}
330
10
100
AcDbMlineStyle
  2
Standard
 70
0
  3

 62
256
 51
90.0
 52
90.0
 71
2
 49
0.5
 62
256
  6
BYLAYER
 49
-0.5
 62
256
  6
BYLAYER
  0
MLEADERSTYLE
  5
2C
102
{ACAD_REACTORS
330
F
102
}
330
F
100
AcDbMLeaderStyle
179
2
170
2
171
1
172
0
 90
2
 40
0.0
 41
0.0
173
1
 91
-1056964608
 92
-2
290
1
 42
2.0
291
1
 43
8.0
  3
Standard
 44
4.0
300

342
29
174
1
175
1
176
0
178
1
 93
-1056964608
 45
4.0
292
0
297
0
 46
4.0
 94
-1056964608
 47
1.0
 49
1.0
140
1.0
294
1
141
0.0
177
0
142
1.0
295
0
296
0
143
3.75
271
0
272
9
273
9
  0
DICTIONARY
  5
2D
330
A
100
AcDbDictionary
280
1
281
1
  3
CREATED_BY_EZDXF
350
2E
  3
WRITTEN_BY_EZDXF
350
5C
  0
DICTIONARYVAR
  5
2E
330
2D
100
DictionaryVariables
280
0
  1
1.4.4 @ 2026-07-20T15:30:51.031862+00:00
  0
DICTIONARYVAR
  5
5C
330
2D
100
DictionaryVariables
280
0
  1
1.4.4 @ 2026-07-20T15:30:51.042132+00:00
  0
ENDSEC
  0
EOF
