  0
SECTION
  2
HEADER
  9
$ACADVER
  1
AC1027
  9
$ACADMAINTVER
 70
105
  9
$DWGCODEPAGE
  3
ANSI_1252
  9
$LASTSAVEDBY
  1
ezdxf
  9
$REQUIREDVERSIONS
160
0
  9
$INSBASE
 10
0.0
 20
0.0
 30
0.0
  9
$EXTMIN
 10
1e+20
 20
1e+20
 30
1e+20
  9
$EXTMAX
 10
-1e+20
 20
-1e+20
 30
-1e+20
  9
$LIMMIN
 10
0.0
 20
0.0
  9
$LIMMAX
 10
420.0
 20
297.0
  9
$ORTHOMODE
 70
0
  9
$REGENMODE
 70
1
  9
$FILLMODE
 70
1
  9
$QTEXTMODE
 70
0
  9
$MIRRTEXT
 70
1
  9
$LTSCALE
 40
1.0
  9
$ATTMODE
 70
1
  9
$TEXTSIZE
 40
2.5
  9
$TRACEWID
 40
1.0
  9
$TEXTSTYLE
  7
Standard
  9
$CLAYER
  8
0
  9
$CELTYPE
  6
ByLayer
  9
$CECOLOR
 62
256
  9
$CELTSCALE
 40
1.0
  9
$DISPSILH
 70
0
  9
$DIMSCALE
 40
1.0
  9
$DIMASZ
 40
2.5
  9
$DIMEXO
 40
0.625
  9
$DIMDLI
 40
3.75
  9
$DIMRND
 40
0.0
  9
$DIMDLE
 40
0.0
  9
$DIMEXE
 40
1.25
  9
$DIMTP
 40
0.0
  9
$DIMTM
 40
0.0
  9
$DIMTXT
 40
2.5
  9
$DIMCEN
 40
2.5
  9
$DIMTSZ
 40
0.0
  9
$DIMTOL
 70
0
  9
$DIMLIM
 70
0
  9
$DIMTIH
 70
0
  9
$DIMTOH
 70
0
  9
$DIMSE1
 70
0
  9
$DIMSE2
 70
0
  9
$DIMTAD
 70
1
  9
$DIMZIN
 70
8
  9
$DIMBLK
  1

  9
$DIMASO
 70
1
  9
$DIMSHO
 70
1
  9
$DIMPOST
  1

  9
$DIMAPOST
  1

  9
$DIMALT
 70
0
  9
$DIMALTD
 70
3
  9
$DIMALTF
 40
0.03937007874
  9
$DIMLFAC
 40
1.0
  9
$DIMTOFL
 70
1
  9
$DIMTVP
 40
0.0
  9
$DIMTIX
 70
0
  9
$DIMSOXD
 70
0
  9
$DIMSAH
 70
0
  9
$DIMBLK1
  1

  9
$DIMBLK2
  1

  9
$DIMSTYLE
  2
ISO-25
  9
$DIMCLRD
 70
0
  9
$DIMCLRE
 70
0
  9
$DIMCLRT
 70
0
  9
$DIMTFAC
 40
1.0
  9
$DIMGAP
 40
0.625
  9
$DIMJUST
 70
0
  9
$DIMSD1
 70
0
  9
$DIMSD2
 70
0
  9
$DIMTOLJ
 70
0
  9
$DIMTZIN
 70
8
  9
$DIMALTZ
 70
0
  9
$DIMALTTZ
 70
0
  9
$DIMUPT
 70
0
  9
$DIMDEC
 70
2
  9
$DIMTDEC
 70
2
  9
$DIMALTU
 70
2
  9
$DIMALTTD
 70
3
  9
$DIMTXSTY
  7
Standard
  9
$DIMAUNIT
 70
0
  9
$DIMADEC
 70
0
  9
$DIMALTRND
 40
0.0
  9
$DIMAZIN
 70
0
  9
$DIMDSEP
 70
44
  9
$DIMATFIT
 70
3
  9
$DIMFRAC
 70
0
  9
$DIMLDRBLK
  1

  9
$DIMLUNIT
 70
2
  9
$DIMLWD
 70
-2
  9
$DIMLWE
 70
-2
  9
$DIMTMOVE
 70
0
  9
$DIMFXL
 40
1.0
  9
$DIMFXLON
 70
0
  9
$DIMJOGANG
 40
0.785398163397
  9
$DIMTFILL
 70
0
  9
$DIMTFILLCLR
 70
0
  9
$DIMARCSYM
 70
0
  9
$DIMLTYPE
  6

  9
$DIMLTEX1
  6

  9
$DIMLTEX2
  6

  9
$DIMTXTDIRECTION
 70
0
  9
$LUNITS
 70
2
  9
$LUPREC
 70
4
  9
$SKETCHINC
 40
1.0
  9
$FILLETRAD
 40
10.0
  9
$AUNITS
 70
0
  9
$AUPREC
 70
2
  9
$MENU
  1
.
  9
$ELEVATION
 40
0.0
  9
$PELEVATION
 40
0.0
  9
$THICKNESS
 40
0.0
  9
$LIMCHECK
 70
0
  9
$CHAMFERA
 40
0.0
  9
$CHAMFERB
 40
0.0
  9
$CHAMFERC
 40
0.0
  9
$CHAMFERD
 40
0.0
  9
$SKPOLY
 70
0
  9
$TDCREATE
 40
2461248.691921296
  9
$TDUCREATE
 40
2458532.153996898
  9
$TDUPDATE
 40
2461248.691921296
  9
$TDUUPDATE
 40
2458532.1544311
  9
$TDINDWG
 40
0.0
  9
$TDUSRTIMER
 40
0.0
  9
$USRTIMER
 70
1
  9
$ANGBASE
 50
0.0
  9
$ANGDIR
 70
0
  9
$PDMODE
 70
0
  9
$PDSIZE
 40
0.0
  9
$PLINEWID
 40
0.0
  9
$SPLFRAME
 70
0
  9
$SPLINETYPE
 70
6
  9
$SPLINESEGS
 70
8
  9
$HANDSEED
  5
63
  9
$SURFTAB1
 70
6
  9
$SURFTAB2
 70
6
  9
$SURFTYPE
 70
6
  9
$SURFU
 70
6
  9
$SURFV
 70
6
  9
$UCSBASE
  2

  9
$UCSNAME
  2

  9
$UCSORG
 10
0.0
 20
0.0
 30
0.0
  9
$UCSXDIR
 10
1.0
 20
0.0
 30
0.0
  9
$UCSYDIR
 10
0.0
 20
1.0
 30
0.0
  9
$UCSORTHOREF
  2

  9
$UCSORTHOVIEW
 70
0
  9
$UCSORGTOP
 10
0.0
 20
0.0
 30
0.0
  9
$UCSORGBOTTOM
 10
0.0
 20
0.0
 30
0.0
  9
$UCSORGLEFT
 10
0.0
 20
0.0
 30
0.0
  9
$UCSORGRIGHT
 10
0.0
 20
0.0
 30
0.0
  9
$UCSORGFRONT
 10
0.0
 20
0.0
 30
0.0
  9
$UCSORGBACK
 10
0.0
 20
0.0
 30
0.0
  9
$PUCSBASE
  2

  9
$PUCSNAME
  2

  9
$PUCSORG
 10
0.0
 20
0.0
 30
0.0
  9
$PUCSXDIR
 10
1.0
 20
0.0
 30
0.0
  9
$PUCSYDIR
 10
0.0
 20
1.0
 30
0.0
  9
$PUCSORTHOREF
  2

  9
$PUCSORTHOVIEW
 70
0
  9
$PUCSORGTOP
 10
0.0
 20
0.0
 30
0.0
  9
$PUCSORGBOTTOM
 10
0.0
 20
0.0
 30
0.0
  9
$PUCSORGLEFT
 10
0.0
 20
0.0
 30
0.0
  9
$PUCSORGRIGHT
 10
0.0
 20
0.0
 30
0.0
  9
$PUCSORGFRONT
 10
0.0
 20
0.0
 30
0.0
  9
$PUCSORGBACK
 10
0.0
 20
0.0
 30
0.0
  9
$USERI1
 70
0
  9
$USERI2
 70
0
  9
$USERI3
 70
0
  9
$USERI4
 70
0
  9
$USERI5
 70
0
  9
$USERR1
 40
0.0
  9
$USERR2
 40
0.0
  9
$USERR3
 40
0.0
  9
$USERR4
 40
0.0
  9
$USERR5
 40
0.0
  9
$WORLDVIEW
 70
1
  9
$SHADEDGE
 70
3
  9
$SHADEDIF
 70
70
  9
$TILEMODE
 70
1
  9
$MAXACTVP
 70
64
  9
$PINSBASE
 10
0.0
 20
0.0
 30
0.0
  9
$PLIMCHECK
 70
0
  9
$PEXTMIN
 10
1e+20
 20
1e+20
 30
1e+20
  9
$PEXTMAX
 10
-1e+20
 20
-1e+20
 30
-1e+20
  9
$PLIMMIN
 10
0.0
 20
0.0
  9
$PLIMMAX
 10
420.0
 20
297.0
  9
$UNITMODE
 70
0
  9
$VISRETAIN
 70
1
  9
$PLINEGEN
 70
0
  9
$PSLTSCALE
 70
1
  9
$TREEDEPTH
 70
3020
  9
$CMLSTYLE
  2
Standard
  9
$CMLJUST
 70
0
  9
$CMLSCALE
 40
20.0
  9
$PROXYGRAPHICS
 70
1
  9
$MEASUREMENT
 70
1
  9
$CELWEIGHT
370
-1
  9
$ENDCAPS
280
0
  9
$JOINSTYLE
280
0
  9
$LWDISPLAY
290
0
  9
$INSUNITS
 70
4
  9
$HYPERLINKBASE
  1

  9
$STYLESHEET
  1

  9
$XEDIT
290
1
  9
$CEPSNTYPE
380
0
  9
$PSTYLEMODE
290
1
  9
$FINGERPRINTGUID
  2
{0CB6B876-EB89-484D-97C2-5D5C70203C0E}
  9
$VERSIONGUID
  2
{5113A9AC-466C-4053-8DD1-0910D16D6BA6}
  9
$EXTNAMES
290
1
  9
$PSVPSCALE
 40
0.0
  9
$OLESTARTUP
290
0
  9
$SORTENTS
280
127
  9
$INDEXCTL
280
0
  9
$HIDETEXT
280
1
  9
$XCLIPFRAME
280
1
  9
$HALOGAP
280
0
  9
$OBSCOLOR
 70
257
  9
$OBSLTYPE
280
0
  9
$INTERSECTIONDISPLAY
280
0
  9
$INTERSECTIONCOLOR
 70
257
  9
$DIMASSOC
280
2
  9
$PROJECTNAME
  1

  9
$CAMERADISPLAY
290
0
  9
$LENSLENGTH
 40
50.0
  9
$CAMERAHEIGHT
 40
0.0
  9
$STEPSPERSEC
 40
24.0
  9
$STEPSIZE
 40
100.0
  9
$3DDWFPREC
 40
2.0
  9
$PSOLWIDTH
 40
0.005
  9
$PSOLHEIGHT
 40
0.08
  9
$LOFTANG1
 40
1.570796326795
  9
$LOFTANG2
 40
1.570796326795
  9
$LOFTMAG1
 40
0.0
  9
$LOFTMAG2
 40
0.0
  9
$LOFTPARAM
 70
7
  9
$LOFTNORMALS
280
1
  9
$LATITUDE
 40
37.795
  9
$LONGITUDE
 40
-122.394
  9
$NORTHDIRECTION
 40
0.0
  9
$TIMEZONE
 70
-8000
  9
$LIGHTGLYPHDISPLAY
280
1
  9
$TILEMODELIGHTSYNCH
280
1
  9
$CMATERIAL
347
20
  9
$SOLIDHIST
280
0
  9
$SHOWHIST
280
1
  9
$DWFFRAME
280
2
  9
$DGNFRAME
280
2
  9
$REALWORLDSCALE
290
1
  9
$INTERFERECOLOR
 62
256
  9
$CSHADOW
280
0
  9
$SHADOWPLANELOCATION
 40
0.0
  0
ENDSEC
  0
SECTION
  2
CLASSES
  0
CLASS
  1
ACDBDICTIONARYWDFLT
  2
AcDbDictionaryWithDefault
  3
ObjectDBX Classes
 90
0
 91
0
280
0
281
0
  0
CLASS
  1
SUN
  2
AcDbSun
  3
SCENEOE
 90
1153
 91
0
280
0
281
0
  0
CLASS
  1
VISUALSTYLE
  2
AcDbVisualStyle
  3
ObjectDBX Classes
 90
4095
 91
0
280
0
281
0
  0
CLASS
  1
MATERIAL
  2
AcDbMaterial
  3
ObjectDBX Classes
 90
1153
 91
0
280
0
281
0
  0
CLASS
  1
SCALE
  2
AcDbScale
  3
ObjectDBX Classes
 90
1153
 91
0
280
0
281
0
  0
CLASS
  1
TABLESTYLE
  2
AcDbTableStyle
  3
ObjectDBX Classes
 90
4095
 91
0
280
0
281
0
  0
CLASS
  1
MLEADERSTYLE
  2
AcDbMLeaderStyle
  3
ACDB_MLEADERSTYLE_CLASS
 90
4095
 91
0
280
0
281
0
  0
CLASS
  1
DICTIONARYVAR
  2
AcDbDictionaryVar
  3
ObjectDBX Classes
 90
0
 91
0
280
0
281
0
  0
CLASS
  1
CELLSTYLEMAP
  2
AcDbCellStyleMap
  3
ObjectDBX Classes
 90
1152
 91
0
280
0
281
0
  0
CLASS
  1
MENTALRAYRENDERSETTINGS
  2
AcDbMentalRayRenderSettings
  3
SCENEOE
 90
1024
 91
0
280
0
281
0
  0
CLASS
  1
ACDBDETAILVIEWSTYLE
  2
AcDbDetailViewStyle
  3
ObjectDBX Classes
 90
1025
 91
0
280
0
281
0
  0
CLASS
  1
ACDBSECTIONVIEWSTYLE
  2
AcDbSectionViewStyle
  3
ObjectDBX Classes
 90
1025
 91
0
280
0
281
0
  0
CLASS
  1
RASTERVARIABLES
  2
AcDbRasterVariables
  3
ISM
 90
0
 91
0
280
0
281
0
  0
CLASS
  1
ACDBPLACEHOLDER
  2
AcDbPlaceHolder
  3
ObjectDBX Classes
 90
0
 91
0
280
0
281
0
  0
CLASS
  1
LAYOUT
  2
AcDbLayout
  3
ObjectDBX Classes
 90
0
 91
0
280
0
281
0
  0
ENDSEC
  0
SECTION
  2
TABLES
  0
TABLE
  2
VPORT
  5
8
330
0
100
AcDbSymbolTable
 70
1
  0
VPORT
  5
23
330
8
100
AcDbSymbolTableRecord
100
AcDbViewportTableRecord
  2
*Active
 70
0
 10
0.0
 20
0.0
 11
1.0
 21
1.0
 12
0.0
 22
0.0
 13
0.0
 23
0.0
 14
0.5
 24
0.5
 15
0.5
 25
0.5
 16
0.0
 26
0.0
 36
1.0
 17
0.0
 27
0.0
 37
0.0
 40
1000.0
 41
1.34
 42
50.0
 43
0.0
 44
0.0
 50
0.0
 51
0.0
 71
0
 72
1000
 73
1
 74
3
 75
0
 76
0
 77
0
 78
0
281
0
 65
0
146
0.0
  0
ENDTAB
  0
TABLE
  2
LTYPE
  5
2
330
0
100
AcDbSymbolTable
 70
3
  0
LTYPE
  5
24
330
2
100
AcDbSymbolTableRecord
100
AcDbLinetypeTableRecord
  2
ByBlock
 70
0
  3

 72
65
 73
0
 40
0.0
  0
LTYPE
  5
25
330
2
100
AcDbSymbolTableRecord
100
AcDbLinetypeTableRecord
  2
ByLayer
 70
0
  3

 72
65
 73
0
 40
0.0
  0
LTYPE
  5
26
330
2
100
AcDbSymbolTableRecord
100
AcDbLinetypeTableRecord
  2
Continuous
 70
0
  3

 72
65
 73
0
 40
0.0
  0
ENDTAB
  0
TABLE
  2
LAYER
  5
1
330
0
100
AcDbSymbolTable
 70
3
  0
LAYER
  5
27
330
1
100
AcDbSymbolTableRecord
100
AcDbLayerTableRecord
  2
0
 70
0
 62
7
  6
Continuous
370
-3
390
13
347
21
  0
LAYER
  5
28
330
1
100
AcDbSymbolTableRecord
100
AcDbLayerTableRecord
  2
Defpoints
 70
0
 62
7
  6
Continuous
290
0
370
-3
390
13
347
21
  0
LAYER
  5
2F
330
1
100
AcDbSymbolTableRecord
100
AcDbLayerTableRecord
  2
C
 70
0
 62
7
  6
Continuous
370
-3
390
13
347
21
  0
ENDTAB
  0
TABLE
  2
STYLE
  5
5
330
0
100
AcDbSymbolTable
 70
1
  0
STYLE
  5
29
330
5
100
AcDbSymbolTableRecord
100
AcDbTextStyleTableRecord
  2
Standard
 70
0
 40
0.0
 41
1.0
 50
0.0
 71
0
 42
2.5
  3
txt
  4

  0
ENDTAB
  0
TABLE
  2
VIEW
  5
7
330
0
100
AcDbSymbolTable
 70
0
  0
ENDTAB
  0
TABLE
  2
UCS
  5
6
330
0
100
AcDbSymbolTable
 70
0
  0
ENDTAB
  0
TABLE
  2
APPID
  5
3
330
0
100
AcDbSymbolTable
 70
3
  0
APPID
  5
2A
330
3
100
AcDbSymbolTableRecord
100
AcDbRegAppTableRecord
  2
ACAD
 70
0
  0
APPID
  5
60
330
3
100
AcDbSymbolTableRecord
100
AcDbRegAppTableRecord
  2
HATCHBACKGROUNDCOLOR
 70
0
  0
APPID
  5
61
330
3
100
AcDbSymbolTableRecord
100
AcDbRegAppTableRecord
  2
EZDXF
 70
0
  0
ENDTAB
  0
TABLE
  2
DIMSTYLE
  5
4
330
0
100
AcDbSymbolTable
 70
1
100
AcDbDimStyleTable
  0
DIMSTYLE
105
2B
330
4
100
AcDbSymbolTableRecord
100
AcDbDimStyleTableRecord
  2
Standard
 70
0
 40
1.0
 41
2.5
 42
0.625
 43
3.75
 44
1.25
 45
0.0
 46
0.0
 47
0.0
 48
0.0
 49
2.5
140
2.5
141
2.5
142
0.0
143
0.03937007874
144
1.0
145
0.0
146
1.0
147
0.625
148
0.0
 69
0
 70
0
 71
0
 72
0
 73
0
 74
0
 75
0
 76
0
 77
1
 78
8
 79
3
170
0
171
3
172
1
173
0
174
0
175
0
176
0
177
0
178
0
179
2
271
2
272
2
273
2
274
3
275
0
276
0
277
2
278
44
279
0
280
0
281
0
282
0
283
0
284
8
285
0
286
0
288
0
289
3
290
0
371
-2
372
-2
  0
ENDTAB
  0
TABLE
  2
BLOCK_RECORD
  5
9
330
0
100
AcDbSymbolTable
 70
2
  0
BLOCK_RECORD
  5
17
330
9
100
AcDbSymbolTableRecord
100
AcDbBlockTableRecord
  2
*Model_Space
340
1A
 70
0
280
1
281
0
  0
BLOCK_RECORD
  5
1B
330
9
100
AcDbSymbolTableRecord
100
AcDbBlockTableRecord
  2
*Paper_Space
340
1E
 70
0
280
1
281
0
  0
ENDTAB
  0
ENDSEC
  0
SECTION
  2
BLOCKS
  0
BLOCK
  5
18
330
17
100
AcDbEntity
  8
0
100
AcDbBlockBegin
  2
*Model_Space
 70
0
 10
0.0
 20
0.0
 30
0.0
  3
*Model_Space
  1

  0
ENDBLK
  5
19
330
17
100
AcDbEntity
  8
0
100
AcDbBlockEnd
  0
BLOCK
  5
1C
330
1B
100
AcDbEntity
  8
0
100
AcDbBlockBegin
  2
*Paper_Space
 70
0
 10
0.0
 20
0.0
 30
0.0
  3
*Paper_Space
  1

  0
ENDBLK
  5
1D
330
1B
100
AcDbEntity
  8
0
100
AcDbBlockEnd
  0
ENDSEC
  0
SECTION
  2
ENTITIES
  0
LWPOLYLINE
  5
30
330
17
100
AcDbEntity
  8
C
100
AcDbPolyline
 90
18
 70
1
 10
285.06713252836227
 20
157.14565407998694
 10
280.00855388459956
 20
162.2042327237496
 10
280.00855388459956
 20
165.0613755808925
 10
278.5385610997908
 20
166.53136836570127
 10
280.00855388459956
 20
168.00136115050978
 10
280.00855388459956
 20
170.85850400765267
 10
285.06713252836227
 20
175.91708265141537
 10
287.9242753855049
 20
175.91708265141537
 10
289.39426817031364
 20
177.3870754362241
 10
290.8642609551224
 20
175.91708265141537
 10
293.72140381226507
 20
175.91708265141537
 10
298.7799824560282
 20
170.85850400765247
 10
298.7799824560282
 20
168.00136115050955
 10
300.24997524083653
 20
166.53136836570127
 10
298.7799824560282
 20
165.06137558089273
 10
298.7799824560282
 20
162.20423272374984
 10
293.7214038122655
 20
157.14565407998694
 10
285.06713252836227
 20
157.14565407998694
  0
LWPOLYLINE
  5
31
330
17
100
AcDbEntity
  8
C
100
AcDbPolyline
 90
28
 70
1
 10
177.91330904079584
 20
234.2994775675533
 10
170.00855388459945
 20
242.2042327237497
 10
170.00855388459945
 20
245.0613755808926
 10
168.53856109979094
 20
246.5313683657011
 10
170.00855388459945
 20
248.00136115050987
 10
170.00855388459945
 20
250.85850400765253
 10
175.06713252836238
 20
255.91708265141543
 10
177.92427538550527
 20
255.91708265141543
 10
179.3528468140766
 20
257.3456540799868
 10
186.5785466694081
 20
257.3456540799868
 10
188.00711809797943
 20
255.91708265141543
 10
190.78141824264793
 20
255.91708265141543
 10
192.2099896712195
 20
257.3456540799868
 10
196.5785466694081
 20
257.3456540799868
 10
198.00711809797966
 20
255.91708265141543
 10
200.86426095512232
 20
255.91708265141543
 10
205.92283959888525
 20
250.85850400765253
 10
205.92283959888525
 20
248.00136115050987
 10
207.39283238369376
 20
246.5313683657011
 10
205.92283959888525
 20
245.0613755808926
 10
205.92283959888525
 20
242.20902329484196
 10
198.01207663686492
 20
232.85993979427255
 10
195.14997524083677
 20
232.85993979427255
 10
193.7214038122652
 20
231.43136836570122
 10
190.78141824264793
 20
231.43136836570122
 10
189.3942681703138
 20
232.81851843803537
 10
187.99480102004586
 20
231.41905128776762
 10
177.91330904079584
 20
234.2994775675533
  0
LWPOLYLINE
  5
32
330
17
100
AcDbEntity
  8
C
100
AcDbPolyline
 90
69
 70
1
 10
93.63856109979096
 20
281.431368365701
 10
87.90949997491815
 20
287.16042949057385
 10
80.84692392752424
 20
289.9854599095315
 10
79.43568952655089
 20
288.57422550855836
 10
76.51351851542087
 20
288.57422550855836
 10
70.84258490379325
 20
291.4096923143721
 10
69.4356895265511
 20
290.0027969371297
 10
66.51351851542087
 20
290.0027969371297
 10
63.67998245602813
 20
291.4195649668261
 10
60.82607751912184
 20
289.9926124983729
 10
50.80231382868949
 20
294.28851122284397
 10
43.63856109979092
 20
294.28851122284397
 10
42.23166572254855
 20
295.6954066000863
 10
30.803094293977207
 20
289.9811208858005
 10
29.352846814076685
 20
291.43136836570125
 10
26.49570395693379
 20
291.43136836570125
 10
16.484737612224354
 20
301.4423347104105
 10
6.484737612224345
 20
304.29947756755337
 10
1.4450051643901674
 20
309.33921001538755
 10
0.0
 20
316.56423583733886
 10
1.4371253131708617
 20
318.0013611505097
 10
1.4371253131708617
 20
320.8585040076526
 10
6.486000359041899
 20
325.90737905352364
 10
12.28208599993419
 20
327.3564004637466
 10
13.721403812265276
 20
325.9170826514155
 10
20.864260955122393
 20
325.9170826514155
 10
22.29283238369395
 20
324.48851122284395
 10
29.435689526551066
 20
324.48851122284395
 10
30.864260955122404
 20
323.0599397942726
 10
38.00711809797952
 20
323.0599397942726
 10
39.43568952655107
 20
321.63136836570106
 10
46.5785466694082
 20
321.63136836570106
 10
48.00711809797953
 20
320.20279693712973
 10
55.149975240836646
 20
320.20279693712973
 10
56.578546669408205
 20
318.7742255085584
 10
63.72140381226532
 20
318.7742255085584
 10
65.14997524083665
 20
317.34565407998684
 10
72.29283238369378
 20
317.34565407998684
 10
73.72140381226532
 20
315.9170826514155
 10
80.86426095512245
 20
315.9170826514155
 10
82.29283238369378
 20
314.48851122284395
 10
89.4356895265509
 20
314.48851122284395
 10
90.86426095512246
 20
313.0599397942726
 10
98.00711809797957
 20
313.0599397942726
 10
99.4356895265509
 20
311.6313683657013
 10
106.57854666940803
 20
311.6313683657013
 10
108.00711809797959
 20
310.20279693712973
 10
115.12907965479525
 20
310.20279693712973
 10
125.11939810702755
 20
305.921231886173
 10
132.26544389688976
 20
307.35044104414544
 10
137.98930353949257
 20
304.48851122284395
 10
140.8642609551223
 20
304.48851122284395
 10
145.9228395988852
 20
299.42993257908125
 10
145.9228395988852
 20
296.57278972193836
 10
147.39283238369393
 20
295.1027969371298
 10
145.9228395988852
 20
293.63280415232106
 10
145.9228395988852
 20
290.77566129517817
 10
140.8642609551223
 20
285.71708265141547
 10
138.0071180979796
 20
285.71708265141547
 10
136.57854666940804
 20
284.28851122284414
 10
132.2308852572609
 20
284.28851122284414
 10
122.2308852572609
 20
288.57422550855836
 10
116.560732110921
 20
288.57422550855836
 10
113.66023715111994
 20
287.12397802865763
 10
112.25141102745661
 20
288.5328041523212
 10
110.86426095512248
 20
287.1456540799868
 10
108.00711809797959
 20
287.1456540799868
 10
102.29283238369379
 20
281.431368365701
 10
93.63856109979096
 20
281.431368365701
  0
LWPOLYLINE
  5
33
330
17
100
AcDbEntity
  8
C
100
AcDbPolyline
 90
18
 70
1
 10
285.06713252836227
 20
157.14565407998694
 10
280.00855388459956
 20
162.2042327237496
 10
280.00855388459956
 20
165.0613755808925
 10
278.5385610997908
 20
166.53136836570127
 10
280.00855388459956
 20
168.00136115050978
 10
280.00855388459956
 20
170.85850400765267
 10
285.06713252836227
 20
175.91708265141537
 10
287.9242753855049
 20
175.91708265141537
 10
289.39426817031364
 20
177.3870754362241
 10
290.8642609551224
 20
175.91708265141537
 10
293.72140381226507
 20
175.91708265141537
 10
298.7799824560282
 20
170.85850400765247
 10
298.7799824560282
 20
168.00136115050955
 10
300.24997524083653
 20
166.53136836570127
 10
298.7799824560282
 20
165.06137558089273
 10
298.7799824560282
 20
162.20423272374984
 10
293.7214038122655
 20
157.14565407998694
 10
285.06713252836227
 20
157.14565407998694
  0
LWPOLYLINE
  5
34
330
17
100
AcDbEntity
  8
C
100
AcDbPolyline
 90
28
 70
1
 10
177.91330904079584
 20
234.2994775675533
 10
170.00855388459945
 20
242.2042327237497
 10
170.00855388459945
 20
245.0613755808926
 10
168.53856109979094
 20
246.5313683657011
 10
170.00855388459945
 20
248.00136115050987
 10
170.00855388459945
 20
250.85850400765253
 10
175.06713252836238
 20
255.91708265141543
 10
177.92427538550527
 20
255.91708265141543
 10
179.3528468140766
 20
257.3456540799868
 10
186.5785466694081
 20
257.3456540799868
 10
188.00711809797943
 20
255.91708265141543
 10
190.78141824264793
 20
255.91708265141543
 10
192.2099896712195
 20
257.3456540799868
 10
196.5785466694081
 20
257.3456540799868
 10
198.00711809797966
 20
255.91708265141543
 10
200.86426095512232
 20
255.91708265141543
 10
205.92283959888525
 20
250.85850400765253
 10
205.92283959888525
 20
248.00136115050987
 10
207.39283238369376
 20
246.5313683657011
 10
205.92283959888525
 20
245.0613755808926
 10
205.92283959888525
 20
242.20902329484196
 10
198.01207663686492
 20
232.85993979427255
 10
195.14997524083677
 20
232.85993979427255
 10
193.7214038122652
 20
231.43136836570122
 10
190.78141824264793
 20
231.43136836570122
 10
189.3942681703138
 20
232.81851843803537
 10
187.99480102004586
 20
231.41905128776762
 10
177.91330904079584
 20
234.2994775675533
  0
LWPOLYLINE
  5
35
330
17
100
AcDbEntity
  8
C
100
AcDbPolyline
 90
69
 70
1
 10
93.63856109979096
 20
281.431368365701
 10
87.90949997491815
 20
287.16042949057385
 10
80.84692392752424
 20
289.9854599095315
 10
79.43568952655089
 20
288.57422550855836
 10
76.51351851542087
 20
288.57422550855836
 10
70.84258490379325
 20
291.4096923143721
 10
69.4356895265511
 20
290.0027969371297
 10
66.51351851542087
 20
290.0027969371297
 10
63.67998245602813
 20
291.4195649668261
 10
60.82607751912184
 20
289.9926124983729
 10
50.80231382868949
 20
294.28851122284397
 10
43.63856109979092
 20
294.28851122284397
 10
42.23166572254855
 20
295.6954066000863
 10
30.803094293977207
 20
289.9811208858005
 10
29.352846814076685
 20
291.43136836570125
 10
26.49570395693379
 20
291.43136836570125
 10
16.484737612224354
 20
301.4423347104105
 10
6.484737612224345
 20
304.29947756755337
 10
1.4450051643901674
 20
309.33921001538755
 10
0.0
 20
316.56423583733886
 10
1.4371253131708617
 20
318.0013611505097
 10
1.4371253131708617
 20
320.8585040076526
 10
6.486000359041899
 20
325.90737905352364
 10
12.28208599993419
 20
327.3564004637466
 10
13.721403812265276
 20
325.9170826514155
 10
20.864260955122393
 20
325.9170826514155
 10
22.29283238369395
 20
324.48851122284395
 10
29.435689526551066
 20
324.48851122284395
 10
30.864260955122404
 20
323.0599397942726
 10
38.00711809797952
 20
323.0599397942726
 10
39.43568952655107
 20
321.63136836570106
 10
46.5785466694082
 20
321.63136836570106
 10
48.00711809797953
 20
320.20279693712973
 10
55.149975240836646
 20
320.20279693712973
 10
56.578546669408205
 20
318.7742255085584
 10
63.72140381226532
 20
318.7742255085584
 10
65.14997524083665
 20
317.34565407998684
 10
72.29283238369378
 20
317.34565407998684
 10
73.72140381226532
 20
315.9170826514155
 10
80.86426095512245
 20
315.9170826514155
 10
82.29283238369378
 20
314.48851122284395
 10
89.4356895265509
 20
314.48851122284395
 10
90.86426095512246
 20
313.0599397942726
 10
98.00711809797957
 20
313.0599397942726
 10
99.4356895265509
 20
311.6313683657013
 10
106.57854666940803
 20
311.6313683657013
 10
108.00711809797959
 20
310.20279693712973
 10
115.12907965479525
 20
310.20279693712973
 10
125.11939810702755
 20
305.921231886173
 10
132.26544389688976
 20
307.35044104414544
 10
137.98930353949257
 20
304.48851122284395
 10
140.8642609551223
 20
304.48851122284395
 10
145.9228395988852
 20
299.42993257908125
 10
145.9228395988852
 20
296.57278972193836
 10
147.39283238369393
 20
295.1027969371298
 10
145.9228395988852
 20
293.63280415232106
 10
145.9228395988852
 20
290.77566129517817
 10
140.8642609551223
 20
285.71708265141547
 10
138.0071180979796
 20
285.71708265141547
 10
136.57854666940804
 20
284.28851122284414
 10
132.2308852572609
 20
284.28851122284414
 10
122.2308852572609
 20
288.57422550855836
 10
116.560732110921
 20
288.57422550855836
 10
113.66023715111994
 20
287.12397802865763
 10
112.25141102745661
 20
288.5328041523212
 10
110.86426095512248
 20
287.1456540799868
 10
108.00711809797959
 20
287.1456540799868
 10
102.29283238369379
 20
281.431368365701
 10
93.63856109979096
 20
281.431368365701
  0
LWPOLYLINE
  5
36
330
17
100
AcDbEntity
  8
C
100
AcDbPolyline
 90
18
 70
1
 10
285.06713252836227
 20
157.14565407998694
 10
280.00855388459956
 20
162.2042327237496
 10
280.00855388459956
 20
165.0613755808925
 10
278.5385610997908
 20
166.53136836570127
 10
280.00855388459956
 20
168.00136115050978
 10
280.00855388459956
 20
170.85850400765267
 10
285.06713252836227
 20
175.91708265141537
 10
287.9242753855049
 20
175.91708265141537
 10
289.39426817031364
 20
177.3870754362241
 10
290.8642609551224
 20
175.91708265141537
 10
293.72140381226507
 20
175.91708265141537
 10
298.7799824560282
 20
170.85850400765247
 10
298.7799824560282
 20
168.00136115050955
 10
300.24997524083653
 20
166.53136836570127
 10
298.7799824560282
 20
165.06137558089273
 10
298.7799824560282
 20
162.20423272374984
 10
293.7214038122655
 20
157.14565407998694
 10
285.06713252836227
 20
157.14565407998694
  0
LWPOLYLINE
  5
37
330
17
100
AcDbEntity
  8
C
100
AcDbPolyline
 90
28
 70
1
 10
177.91330904079584
 20
234.2994775675533
 10
170.00855388459945
 20
242.2042327237497
 10
170.00855388459945
 20
245.0613755808926
 10
168.53856109979094
 20
246.5313683657011
 10
170.00855388459945
 20
248.00136115050987
 10
170.00855388459945
 20
250.85850400765253
 10
175.06713252836238
 20
255.91708265141543
 10
177.92427538550527
 20
255.91708265141543
 10
179.3528468140766
 20
257.3456540799868
 10
186.5785466694081
 20
257.3456540799868
 10
188.00711809797943
 20
255.91708265141543
 10
190.78141824264793
 20
255.91708265141543
 10
192.2099896712195
 20
257.3456540799868
 10
196.5785466694081
 20
257.3456540799868
 10
198.00711809797966
 20
255.91708265141543
 10
200.86426095512232
 20
255.91708265141543
 10
205.92283959888525
 20
250.85850400765253
 10
205.92283959888525
 20
248.00136115050987
 10
207.39283238369376
 20
246.5313683657011
 10
205.92283959888525
 20
245.0613755808926
 10
205.92283959888525
 20
242.20902329484196
 10
198.01207663686492
 20
232.85993979427255
 10
195.14997524083677
 20
232.85993979427255
 10
193.7214038122652
 20
231.43136836570122
 10
190.78141824264793
 20
231.43136836570122
 10
189.3942681703138
 20
232.81851843803537
 10
187.99480102004586
 20
231.41905128776762
 10
177.91330904079584
 20
234.2994775675533
  0
LWPOLYLINE
  5
38
330
17
100
AcDbEntity
  8
C
100
AcDbPolyline
 90
69
 70
1
 10
93.63856109979096
 20
281.431368365701
 10
87.90949997491815
 20
287.16042949057385
 10
80.84692392752424
 20
289.9854599095315
 10
79.43568952655089
 20
288.57422550855836
 10
76.51351851542087
 20
288.57422550855836
 10
70.84258490379325
 20
291.4096923143721
 10
69.4356895265511
 20
290.0027969371297
 10
66.51351851542087
 20
290.0027969371297
 10
63.67998245602813
 20
291.4195649668261
 10
60.82607751912184
 20
289.9926124983729
 10
50.80231382868949
 20
294.28851122284397
 10
43.63856109979092
 20
294.28851122284397
 10
42.23166572254855
 20
295.6954066000863
 10
30.803094293977207
 20
289.9811208858005
 10
29.352846814076685
 20
291.43136836570125
 10
26.49570395693379
 20
291.43136836570125
 10
16.484737612224354
 20
301.4423347104105
 10
6.484737612224345
 20
304.29947756755337
 10
1.4450051643901674
 20
309.33921001538755
 10
0.0
 20
316.56423583733886
 10
1.4371253131708617
 20
318.0013611505097
 10
1.4371253131708617
 20
320.8585040076526
 10
6.486000359041899
 20
325.90737905352364
 10
12.28208599993419
 20
327.3564004637466
 10
13.721403812265276
 20
325.9170826514155
 10
20.864260955122393
 20
325.9170826514155
 10
22.29283238369395
 20
324.48851122284395
 10
29.435689526551066
 20
324.48851122284395
 10
30.864260955122404
 20
323.0599397942726
 10
38.00711809797952
 20
323.0599397942726
 10
39.43568952655107
 20
321.63136836570106
 10
46.5785466694082
 20
321.63136836570106
 10
48.00711809797953
 20
320.20279693712973
 10
55.149975240836646
 20
320.20279693712973
 10
56.578546669408205
 20
318.7742255085584
 10
63.72140381226532
 20
318.7742255085584
 10
65.14997524083665
 20
317.34565407998684
 10
72.29283238369378
 20
317.34565407998684
 10
73.72140381226532
 20
315.9170826514155
 10
80.86426095512245
 20
315.9170826514155
 10
82.29283238369378
 20
314.48851122284395
 10
89.4356895265509
 20
314.48851122284395
 10
90.86426095512246
 20
313.0599397942726
 10
98.00711809797957
 20
313.0599397942726
 10
99.4356895265509
 20
311.6313683657013
 10
106.57854666940803
 20
311.6313683657013
 10
108.00711809797959
 20
310.20279693712973
 10
115.12907965479525
 20
310.20279693712973
 10
125.11939810702755
 20
305.921231886173
 10
132.26544389688976
 20
307.35044104414544
 10
137.98930353949257
 20
304.48851122284395
 10
140.8642609551223
 20
304.48851122284395
 10
145.9228395988852
 20
299.42993257908125
 10
145.9228395988852
 20
296.57278972193836
 10
147.39283238369393
 20
295.1027969371298
 10
145.9228395988852
 20
293.63280415232106
 10
145.9228395988852
 20
290.77566129517817
 10
140.8642609551223
 20
285.71708265141547
 10
138.0071180979796
 20
285.71708265141547
 10
136.57854666940804
 20
284.28851122284414
 10
132.2308852572609
 20
284.28851122284414
 10
122.2308852572609
 20
288.57422550855836
 10
116.560732110921
 20
288.57422550855836
 10
113.66023715111994
 20
287.12397802865763
 10
112.25141102745661
 20
288.5328041523212
 10
110.86426095512248
 20
287.1456540799868
 10
108.00711809797959
 20
287.1456540799868
 10
102.29283238369379
 20
281.431368365701
 10
93.63856109979096
 20
281.431368365701
  0
LWPOLYLINE
  5
39
330
17
100
AcDbEntity
  8
C
100
AcDbPolyline
 90
46
 70
1
 10
876.513431834383
 20
1.4327259550978022
 10
866.5165995429751
 20
5.717082651415462
 10
863.6429900484064
 20
5.717082651415462
 10
853.6328269357347
 20
14.297222462276826
 10
847.9125529883644
 20
15.7272909491194
 10
830.0085538845993
 20
35.06360998118574
 10
830.0085538845993
 20
37.918518438035285
 10
828.5385610997909
 20
39.38851122284404
 10
830.0085538845993
 20
40.85850400765268
 10
830.0085538845993
 20
43.715646864795566
 10
835.0592526771428
 20
48.76634565733884
 10
842.2186676654464
 20
50.19822865499957
 10
856.5230924437379
 20
57.35044104414533
 10
863.7292836634847
 20
55.909202800195956
 10
868.0071180979794
 20
51.63136836570115
 10
870.8642609551223
 20
51.63136836570115
 10
872.2928323836938
 20
50.202796937129705
 10
876.4957039569334
 20
50.202796937129705
 10
877.9416124131033
 20
51.648705393299466
 10
885.0844695559604
 20
48.791562536156576
 10
886.4957039569337
 20
50.202796937129705
 10
889.3528468140763
 20
50.202796937129705
 10
895.7228395988852
 20
56.57278972193846
 10
895.7228395988852
 20
59.429932579081246
 10
900.7814182426476
 20
64.48851122284394
 10
903.6385610997905
 20
64.48851122284394
 10
905.0671325283619
 20
65.91708265141538
 10
912.2099896712192
 20
65.91708265141538
 10
913.6385610997905
 20
67.34565407998683
 10
923.7214038122654
 20
67.34565407998683
 10
925.1499752408367
 20
65.91708265141538
 10
928.0071180979796
 20
65.91708265141538
 10
934.4828062534816
 20
59.441394495913016
 10
938.7878894988428
 20
45.0911170113768
 10
931.6423921593732
 20
32.229221800332056
 10
933.0578168905224
 20
25.152098144586745
 10
934.5116051979116
 20
23.69830983719712
 10
931.6250609477626
 20
16.481949211823334
 10
927.3514110274566
 20
10.783749318082236
 10
927.3514110274566
 20
7.918518438035482
 10
922.2928323836938
 20
2.85993979427257
 10
919.435689526551
 20
2.85993979427257
 10
918.0071180979794
 20
1.4313683657011245
 10
899.435689526551
 20
1.4313683657011245
 10
898.0043211608497
 20
0.0
 10
876.513431834383
 20
1.4327259550978022
  0
LWPOLYLINE
  5
3A
330
17
100
AcDbEntity
  8
C
100
AcDbPolyline
 90
24
 70
1
 10
735.0545357332521
 20
238.58682230366867
 10
730.0085538845996
 20
243.63280415232103
 10
730.0085538845996
 20
246.48994700946392
 10
728.5385610997907
 20
247.95993979427266
 10
730.0085538845996
 20
249.4299325790812
 10
730.0085538845996
 20
252.2870754362241
 10
735.0671325283622
 20
257.3456540799868
 10
737.9242753855051
 20
257.3456540799868
 10
739.3745228654057
 20
258.7959015598875
 10
745.0888085796914
 20
255.93875870274462
 10
746.5371253131707
 20
257.387075436224
 10
748.0071180979795
 20
255.91708265141543
 10
750.8642609551224
 20
255.91708265141543
 10
755.922839598885
 20
250.85850400765253
 10
755.922839598885
 20
248.00136115050987
 10
757.3928323836938
 20
246.5313683657011
 10
755.922839598885
 20
245.0613755808926
 10
755.922839598885
 20
242.2042327237497
 10
750.8642609551224
 20
237.145654079987
 10
748.0071180979795
 20
237.145654079987
 10
746.5371253131707
 20
235.67566129517826
 10
745.1085538845994
 20
237.10423272374982
 10
743.7069915317019
 20
235.70267037085202
 10
735.0545357332521
 20
238.58682230366867
  0
LWPOLYLINE
  5
3B
330
17
100
AcDbEntity
  8
C
100
AcDbPolyline
 90
18
 70
1
 10
670.7814182426476
 20
1.4313683657011245
 10
665.7228395988852
 20
6.4899470094638145
 10
665.7228395988852
 20
9.347089866606705
 10
664.2528468140763
 20
10.817082651415344
 10
665.7228395988852
 20
12.287075436224203
 10
665.7228395988852
 20
15.144218293366984
 10
670.7814182426476
 20
20.202796937129676
 10
673.6385610997905
 20
20.202796937129676
 10
675.1085538845994
 20
21.672789721938422
 10
676.5785466694081
 20
20.202796937129676
 10
679.4356895265512
 20
20.202796937129676
 10
684.4942681703137
 20
15.144218293366984
 10
684.4942681703137
 20
12.287075436224203
 10
685.9642609551227
 20
10.817082651415344
 10
684.4942681703137
 20
9.347089866606705
 10
684.4942681703137
 20
6.4899470094638145
 10
679.4356895265512
 20
1.4313683657011245
 10
670.7814182426476
 20
1.4313683657011245
  0
LWPOLYLINE
  5
3C
330
17
100
AcDbEntity
  8
C
100
AcDbPolyline
 90
24
 70
1
 10
735.0545357332521
 20
238.58682230366867
 10
730.0085538845996
 20
243.63280415232103
 10
730.0085538845996
 20
246.48994700946392
 10
728.5385610997907
 20
247.95993979427266
 10
730.0085538845996
 20
249.4299325790812
 10
730.0085538845996
 20
252.2870754362241
 10
735.0671325283622
 20
257.3456540799868
 10
737.9242753855051
 20
257.3456540799868
 10
739.3745228654057
 20
258.7959015598875
 10
745.0888085796914
 20
255.93875870274462
 10
746.5371253131707
 20
257.387075436224
 10
748.0071180979795
 20
255.91708265141543
 10
750.8642609551224
 20
255.91708265141543
 10
755.922839598885
 20
250.85850400765253
 10
755.922839598885
 20
248.00136115050987
 10
757.3928323836938
 20
246.5313683657011
 10
755.922839598885
 20
245.0613755808926
 10
755.922839598885
 20
242.2042327237497
 10
750.8642609551224
 20
237.145654079987
 10
748.0071180979795
 20
237.145654079987
 10
746.5371253131707
 20
235.67566129517826
 10
745.1085538845994
 20
237.10423272374982
 10
743.7069915317019
 20
235.70267037085202
 10
735.0545357332521
 20
238.58682230366867
  0
LWPOLYLINE
  5
3D
330
17
100
AcDbEntity
  8
C
100
AcDbPolyline
 90
46
 70
1
 10
876.513431834383
 20
1.4327259550978022
 10
866.5165995429751
 20
5.717082651415462
 10
863.6429900484064
 20
5.717082651415462
 10
853.6328269357347
 20
14.297222462276826
 10
847.9125529883644
 20
15.7272909491194
 10
830.0085538845993
 20
35.06360998118574
 10
830.0085538845993
 20
37.918518438035285
 10
828.5385610997909
 20
39.38851122284404
 10
830.0085538845993
 20
40.85850400765268
 10
830.0085538845993
 20
43.715646864795566
 10
835.0592526771428
 20
48.76634565733884
 10
842.2186676654464
 20
50.19822865499957
 10
856.5230924437379
 20
57.35044104414533
 10
863.7292836634847
 20
55.909202800195956
 10
868.0071180979794
 20
51.63136836570115
 10
870.8642609551223
 20
51.63136836570115
 10
872.2928323836938
 20
50.202796937129705
 10
876.4957039569334
 20
50.202796937129705
 10
877.9416124131033
 20
51.648705393299466
 10
885.0844695559604
 20
48.791562536156576
 10
886.4957039569337
 20
50.202796937129705
 10
889.3528468140763
 20
50.202796937129705
 10
895.7228395988852
 20
56.57278972193846
 10
895.7228395988852
 20
59.429932579081246
 10
900.7814182426476
 20
64.48851122284394
 10
903.6385610997905
 20
64.48851122284394
 10
905.0671325283619
 20
65.91708265141538
 10
912.2099896712192
 20
65.91708265141538
 10
913.6385610997905
 20
67.34565407998683
 10
923.7214038122654
 20
67.34565407998683
 10
925.1499752408367
 20
65.91708265141538
 10
928.0071180979796
 20
65.91708265141538
 10
934.4828062534816
 20
59.441394495913016
 10
938.7878894988428
 20
45.0911170113768
 10
931.6423921593732
 20
32.229221800332056
 10
933.0578168905224
 20
25.152098144586745
 10
934.5116051979116
 20
23.69830983719712
 10
931.6250609477626
 20
16.481949211823334
 10
927.3514110274566
 20
10.783749318082236
 10
927.3514110274566
 20
7.918518438035482
 10
922.2928323836938
 20
2.85993979427257
 10
919.435689526551
 20
2.85993979427257
 10
918.0071180979794
 20
1.4313683657011245
 10
899.435689526551
 20
1.4313683657011245
 10
898.0043211608497
 20
0.0
 10
876.513431834383
 20
1.4327259550978022
  0
LWPOLYLINE
  5
3E
330
17
100
AcDbEntity
  8
C
100
AcDbPolyline
 90
18
 70
1
 10
670.7814182426476
 20
1.4313683657011245
 10
665.7228395988852
 20
6.4899470094638145
 10
665.7228395988852
 20
9.347089866606705
 10
664.2528468140763
 20
10.817082651415344
 10
665.7228395988852
 20
12.287075436224203
 10
665.7228395988852
 20
15.144218293366984
 10
670.7814182426476
 20
20.202796937129676
 10
673.6385610997905
 20
20.202796937129676
 10
675.1085538845994
 20
21.672789721938422
 10
676.5785466694081
 20
20.202796937129676
 10
679.4356895265512
 20
20.202796937129676
 10
684.4942681703137
 20
15.144218293366984
 10
684.4942681703137
 20
12.287075436224203
 10
685.9642609551227
 20
10.817082651415344
 10
684.4942681703137
 20
9.347089866606705
 10
684.4942681703137
 20
6.4899470094638145
 10
679.4356895265512
 20
1.4313683657011245
 10
670.7814182426476
 20
1.4313683657011245
  0
LWPOLYLINE
  5
3F
330
17
100
AcDbEntity
  8
C
100
AcDbPolyline
 90
46
 70
1
 10
876.5136281597543
 20
1.4326418156529463
 10
866.5165995429751
 20
5.717082651415462
 10
863.6429900484064
 20
5.717082651415462
 10
853.6328269357347
 20
14.297222462276826
 10
847.9125529883644
 20
15.7272909491194
 10
830.0085538845993
 20
35.06360998118574
 10
830.0085538845993
 20
37.918518438035285
 10
828.5385610997909
 20
39.38851122284404
 10
830.0085538845993
 20
40.85850400765268
 10
830.0085538845993
 20
43.715646864795566
 10
835.0592526771428
 20
48.76634565733884
 10
842.2186676654464
 20
50.19822865499957
 10
856.5230924437379
 20
57.35044104414533
 10
863.7292836634847
 20
55.909202800195956
 10
868.0071180979794
 20
51.63136836570115
 10
870.8642609551223
 20
51.63136836570115
 10
872.2928323836938
 20
50.202796937129705
 10
876.4957039569334
 20
50.202796937129705
 10
877.9416124131033
 20
51.648705393299466
 10
885.0844695559604
 20
48.791562536156576
 10
886.4957039569337
 20
50.202796937129705
 10
889.3528468140763
 20
50.202796937129705
 10
895.7228395988852
 20
56.57278972193846
 10
895.7228395988852
 20
59.429932579081246
 10
900.7814182426476
 20
64.48851122284394
 10
903.6385610997905
 20
64.48851122284394
 10
905.0671325283619
 20
65.91708265141538
 10
912.2099896712192
 20
65.91708265141538
 10
913.6385610997905
 20
67.34565407998683
 10
923.7214038122654
 20
67.34565407998683
 10
925.1499752408367
 20
65.91708265141538
 10
928.0071180979796
 20
65.91708265141538
 10
934.4828062534816
 20
59.441394495913016
 10
938.7878894988428
 20
45.0911170113768
 10
931.6423921593732
 20
32.229221800332056
 10
933.0578168905224
 20
25.152098144586745
 10
934.5116051979116
 20
23.69830983719712
 10
931.6250609477626
 20
16.481949211823334
 10
927.3514110274566
 20
10.783749318082236
 10
927.3514110274566
 20
7.918518438035482
 10
922.2928323836938
 20
2.85993979427257
 10
919.435689526551
 20
2.85993979427257
 10
918.0071180979794
 20
1.4313683657011245
 10
900.8642609551225
 20
1.4313683657011245
 10
899.4330693318202
 20
0.00017674239882747855
 10
876.5136281597543
 20
1.4326418156529463
  0
LWPOLYLINE
  5
40
330
17
100
AcDbEntity
  8
C
100
AcDbPolyline
 90
18
 70
1
 10
670.7814182426476
 20
1.4313683657011245
 10
665.7228395988852
 20
6.4899470094638145
 10
665.7228395988852
 20
9.347089866606705
 10
664.2528468140763
 20
10.817082651415344
 10
665.7228395988852
 20
12.287075436224203
 10
665.7228395988852
 20
15.144218293366984
 10
670.7814182426476
 20
20.202796937129676
 10
673.6385610997905
 20
20.202796937129676
 10
675.1085538845994
 20
21.672789721938422
 10
676.5785466694081
 20
20.202796937129676
 10
679.4356895265512
 20
20.202796937129676
 10
684.4942681703137
 20
15.144218293366984
 10
684.4942681703137
 20
12.287075436224203
 10
685.9642609551227
 20
10.817082651415344
 10
684.4942681703137
 20
9.347089866606705
 10
684.4942681703137
 20
6.4899470094638145
 10
679.4356895265512
 20
1.4313683657011245
 10
670.7814182426476
 20
1.4313683657011245
  0
LWPOLYLINE
  5
41
330
17
100
AcDbEntity
  8
C
100
AcDbPolyline
 90
24
 70
1
 10
735.0545357332521
 20
238.58682230366867
 10
730.0085538845996
 20
243.63280415232103
 10
730.0085538845996
 20
246.48994700946392
 10
728.5385610997907
 20
247.95993979427266
 10
730.0085538845996
 20
249.4299325790812
 10
730.0085538845996
 20
252.2870754362241
 10
735.0671325283622
 20
257.3456540799868
 10
737.9242753855051
 20
257.3456540799868
 10
739.3745228654057
 20
258.7959015598875
 10
745.0888085796914
 20
255.93875870274462
 10
746.5371253131707
 20
257.387075436224
 10
748.0071180979795
 20
255.91708265141543
 10
750.8642609551224
 20
255.91708265141543
 10
755.922839598885
 20
250.85850400765253
 10
755.922839598885
 20
248.00136115050987
 10
757.3928323836938
 20
246.5313683657011
 10
755.922839598885
 20
245.0613755808926
 10
755.922839598885
 20
242.2042327237497
 10
750.8642609551224
 20
237.145654079987
 10
748.0071180979795
 20
237.145654079987
 10
746.5371253131707
 20
235.67566129517826
 10
745.1085538845994
 20
237.10423272374982
 10
743.7069915317019
 20
235.70267037085202
 10
735.0545357332521
 20
238.58682230366867
  0
LWPOLYLINE
  5
42
330
17
100
AcDbEntity
  8
C
100
AcDbPolyline
 90
21
 70
1
 10
1766.4899848610914
 20
25.72280174725716
 10
1761.4371253131706
 20
30.77566129517828
 10
1761.4371253131706
 20
33.63280415232117
 10
1759.9671325283623
 20
35.102796937129696
 10
1761.4371253131706
 20
36.57278972193823
 10
1761.4371253131706
 20
39.42993257908112
 10
1767.9242753855046
 20
45.91708265141536
 10
1770.7814182426478
 20
45.91708265141536
 10
1772.209989671219
 20
47.34565407998681
 10
1780.8642609551227
 20
47.34565407998681
 10
1782.292832383694
 20
45.91708265141536
 10
1785.1499752408367
 20
45.91708265141536
 10
1790.2085538845995
 20
40.85850400765245
 10
1790.2085538845995
 20
38.00136115050967
 10
1791.6785466694078
 20
36.53136836570114
 10
1790.2085538845995
 20
35.061375580892616
 10
1790.2085538845995
 20
32.204232723749726
 10
1785.1578550920565
 20
27.15353393120634
 10
1778.0149979491994
 20
25.72496250263501
 10
1776.57248065223
 20
24.282445205665915
 10
1766.4899848610914
 20
25.72280174725716
  0
LWPOLYLINE
  5
43
330
17
100
AcDbEntity
  8
C
100
AcDbPolyline
 90
24
 70
1
 10
1457.9192474453043
 20
97.15068202018773
 10
1451.437125313171
 20
103.63280415232113
 10
1451.437125313171
 20
106.48994700946402
 10
1450.0085538845995
 20
107.91851843803535
 10
1450.0085538845995
 20
117.91851843803536
 10
1448.5799824560281
 20
119.34708986660692
 10
1448.5799824560281
 20
126.57278972193842
 10
1450.0085538845995
 20
128.00136115050975
 10
1450.0085538845995
 20
130.85850400765264
 10
1455.0671325283624
 20
135.91708265141534
 10
1457.9242753855053
 20
135.91708265141534
 10
1459.3942681703138
 20
137.38707543622408
 10
1460.8642609551223
 20
135.91708265141534
 10
1463.7214038122652
 20
135.91708265141534
 10
1468.7799824560282
 20
130.85850400765264
 10
1468.7799824560282
 20
128.0053166169317
 10
1480.2085538845995
 20
118.0053166169317
 10
1480.2085538845995
 20
115.14421829336685
 10
1481.647871696931
 20
113.70490048103576
 10
1478.7702788581362
 20
102.19452912585768
 10
1473.7214038122652
 20
97.14565407998688
 10
1470.8642609551223
 20
97.14565407998688
 10
1469.4303954008767
 20
95.71178852574124
 10
1457.9192474453043
 20
97.15068202018773
  0
LWPOLYLINE
  5
44
330
17
100
AcDbEntity
  8
C
100
AcDbPolyline
 90
24
 70
1
 10
1457.9192474453043
 20
97.15068202018773
 10
1451.437125313171
 20
103.63280415232113
 10
1451.437125313171
 20
106.48994700946402
 10
1450.0085538845995
 20
107.91851843803535
 10
1450.0085538845995
 20
117.91851843803536
 10
1448.5799824560281
 20
119.34708986660692
 10
1448.5799824560281
 20
126.57278972193842
 10
1450.0085538845995
 20
128.00136115050975
 10
1450.0085538845995
 20
130.85850400765264
 10
1455.0671325283624
 20
135.91708265141534
 10
1457.9242753855053
 20
135.91708265141534
 10
1459.3942681703138
 20
137.38707543622408
 10
1460.8642609551223
 20
135.91708265141534
 10
1463.7214038122652
 20
135.91708265141534
 10
1468.7799824560282
 20
130.85850400765264
 10
1468.7799824560282
 20
128.0053166169317
 10
1480.2085538845995
 20
118.0053166169317
 10
1480.2085538845995
 20
115.14421829336685
 10
1481.647871696931
 20
113.70490048103576
 10
1478.7702788581362
 20
102.19452912585768
 10
1473.7214038122652
 20
97.14565407998688
 10
1470.8642609551223
 20
97.14565407998688
 10
1469.4303954008767
 20
95.71178852574124
 10
1457.9192474453043
 20
97.15068202018773
  0
LWPOLYLINE
  5
45
330
17
100
AcDbEntity
  8
C
100
AcDbPolyline
 90
21
 70
1
 10
1761.4371253131706
 20
30.77566129517828
 10
1761.4371253131706
 20
33.63280415232117
 10
1759.9671325283623
 20
35.102796937129696
 10
1761.4371253131706
 20
36.57278972193823
 10
1761.4371253131706
 20
39.42993257908112
 10
1767.9242753855046
 20
45.91708265141536
 10
1770.7814182426478
 20
45.91708265141536
 10
1772.209989671219
 20
47.34565407998681
 10
1780.8642609551227
 20
47.34565407998681
 10
1782.292832383694
 20
45.91708265141536
 10
1785.1499752408367
 20
45.91708265141536
 10
1790.2085538845995
 20
40.85850400765245
 10
1790.2085538845995
 20
38.00136115050967
 10
1791.6785466694078
 20
36.53136836570114
 10
1790.2085538845995
 20
35.061375580892616
 10
1790.2085538845995
 20
32.204232723749726
 10
1785.1578550920565
 20
27.15353393120634
 10
1778.0149979491994
 20
25.72496250263501
 10
1776.57248065223
 20
24.282445205665915
 10
1766.4899848610914
 20
25.72280174725716
 10
1761.4371253131706
 20
30.77566129517828
  0
LWPOLYLINE
  5
46
330
17
100
AcDbEntity
  8
C
100
AcDbPolyline
 90
21
 70
1
 10
1759.9671325283623
 20
35.102796937129696
 10
1761.4371253131706
 20
36.57278972193823
 10
1761.4371253131706
 20
39.42993257908112
 10
1767.9242753855046
 20
45.91708265141536
 10
1770.7814182426478
 20
45.91708265141536
 10
1772.209989671219
 20
47.34565407998681
 10
1780.8642609551227
 20
47.34565407998681
 10
1782.292832383694
 20
45.91708265141536
 10
1785.1499752408367
 20
45.91708265141536
 10
1790.2085538845995
 20
40.85850400765245
 10
1790.2085538845995
 20
38.00136115050967
 10
1791.6785466694078
 20
36.53136836570114
 10
1790.2085538845995
 20
35.061375580892616
 10
1790.2085538845995
 20
32.204232723749726
 10
1785.1578550920565
 20
27.15353393120634
 10
1778.0149979491994
 20
25.72496250263501
 10
1776.57248065223
 20
24.282445205665915
 10
1766.4899848610914
 20
25.72280174725716
 10
1761.4371253131706
 20
30.77566129517828
 10
1761.4371253131706
 20
33.63280415232117
 10
1759.9671325283623
 20
35.102796937129696
  0
LWPOLYLINE
  5
47
330
17
100
AcDbEntity
  8
C
100
AcDbPolyline
 90
24
 70
1
 10
1457.9192474453043
 20
97.15068202018773
 10
1451.437125313171
 20
103.63280415232113
 10
1451.437125313171
 20
106.48994700946402
 10
1450.0085538845995
 20
107.91851843803535
 10
1450.0085538845995
 20
117.91851843803536
 10
1448.5799824560281
 20
119.34708986660692
 10
1448.5799824560281
 20
126.57278972193842
 10
1450.0085538845995
 20
128.00136115050975
 10
1450.0085538845995
 20
130.85850400765264
 10
1455.0671325283624
 20
135.91708265141534
 10
1457.9242753855053
 20
135.91708265141534
 10
1459.3942681703138
 20
137.38707543622408
 10
1460.8642609551223
 20
135.91708265141534
 10
1463.7214038122652
 20
135.91708265141534
 10
1468.7799824560282
 20
130.85850400765264
 10
1468.7799824560282
 20
128.0053166169317
 10
1480.2085538845995
 20
118.0053166169317
 10
1480.2085538845995
 20
115.14421829336685
 10
1481.647871696931
 20
113.70490048103576
 10
1478.7702788581362
 20
102.19452912585768
 10
1473.7214038122652
 20
97.14565407998688
 10
1470.8642609551223
 20
97.14565407998688
 10
1469.4303954008767
 20
95.71178852574124
 10
1457.9192474453043
 20
97.15068202018773
  0
LWPOLYLINE
  5
48
330
17
100
AcDbEntity
  8
C
100
AcDbPolyline
 90
71
 70
1
 10
3407.1692255859434
 20
199.32927530811972
 10
3404.3120827288008
 20
205.0435610224055
 10
3398.579982456028
 20
210.7756612951781
 10
3398.579982456028
 20
213.63280415232123
 10
3397.109989671219
 20
215.10279693712974
 10
3398.579982456028
 20
216.57278972193828
 10
3398.579982456028
 20
219.42993257908117
 10
3403.6385610997904
 20
224.48851122284407
 10
3406.495703956934
 20
224.48851122284407
 10
3407.9656967417422
 20
225.9585040076526
 10
3409.435689526551
 20
224.48851122284407
 10
3417.942089943992
 20
224.48851122284407
 10
3423.6799824560285
 20
227.3574574788617
 10
3426.5607321109214
 20
225.9170826514154
 10
3432.227804229707
 20
225.9170826514154
 10
3437.9420899439924
 20
228.77422550855832
 10
3440.7814182426478
 20
228.77422550855832
 10
3450.0085538846
 20
238.00136115050984
 10
3450.0085538846
 20
240.85850400765275
 10
3451.415449261842
 20
242.2653993848949
 10
3448.568179057153
 20
247.95993979427266
 10
3449.9868778332702
 20
250.79733734650733
 10
3448.558306404699
 20
252.2259087750789
 10
3454.2882819435954
 20
263.6858598528711
 10
3452.875400339634
 20
269.33738626871497
 10
3447.9145717876136
 20
274.2982148207358
 10
3442.2820859999338
 20
275.70633626765573
 10
3440.8228395988854
 20
274.24708986660676
 10
3439.352846814077
 20
275.71708265141547
 10
3436.4957039569335
 20
275.71708265141547
 10
3430.0085538845997
 20
282.2042327237497
 10
3430.0085538845997
 20
285.0613755808926
 10
3428.538561099791
 20
286.53136836570116
 10
3430.0085538845997
 20
288.00136115050987
 10
3430.0085538845997
 20
290.8585040076526
 10
3435.0671325283624
 20
295.91708265141546
 10
3437.924275385505
 20
295.91708265141546
 10
3439.352846814077
 20
297.3456540799868
 10
3478.0071180979794
 20
297.3456540799868
 10
3479.435689526551
 20
295.91708265141546
 10
3482.2928323836936
 20
295.91708265141546
 10
3487.3417074295644
 20
290.868207605544
 10
3488.7865726569557
 20
285.0887466959806
 10
3481.6611731556914
 20
272.2630275937039
 10
3483.065696741742
 20
270.8585040076525
 10
3483.065696741742
 20
268.00136115050987
 10
3493.0578168905226
 20
258.0092410017294
 10
3494.4863883190937
 20
250.86638385887227
 10
3495.9228395988857
 20
249.42993257908097
 10
3495.9228395988857
 20
242.28707543622386
 10
3497.3621574112162
 20
240.84775762389276
 10
3495.9131360009933
 20
235.05167198300114
 10
3490.8642609551216
 20
230.00279693712966
 10
3488.007118097979
 20
230.00279693712966
 10
3483.7214038122656
 20
225.71708265141544
 10
3480.864260955123
 20
225.71708265141544
 10
3475.9228395988853
 20
220.77566129517834
 10
3475.9228395988853
 20
217.9296622304996
 10
3473.042407456784
 20
213.60901401734787
 10
3452.297530756551
 20
194.29481846885488
 10
3443.728032832907
 20
192.86656881491405
 10
3442.2711563323646
 20
191.409692314372
 10
3439.3942681703134
 20
192.84813639539755
 10
3433.66023715112
 20
189.98112088580066
 10
3432.2316657225488
 20
191.409692314372
 10
3429.394268170314
 20
189.99099353825488
 10
3426.556870618079
 20
191.409692314372
 10
3425.108553884599
 20
189.96137558089265
 10
3423.638561099791
 20
191.4313683657012
 10
3415.067132528362
 20
191.4313683657012
 10
3407.1692255859434
 20
199.32927530811972
  0
LWPOLYLINE
  5
49
330
17
100
AcDbEntity
  8
C
100
AcDbPolyline
 90
38
 70
1
 10
3328.579982456028
 20
282.2042327237497
 10
3328.579982456028
 20
285.0613755808926
 10
3327.10998967122
 20
286.53136836570116
 10
3328.579982456028
 20
288.00136115050987
 10
3328.579982456028
 20
290.8585040076526
 10
3333.6385610997913
 20
295.91708265141546
 10
3336.495703956934
 20
295.91708265141546
 10
3337.9242753855056
 20
297.3456540799868
 10
3363.7035892537783
 20
297.3456540799868
 10
3375.088808579692
 20
291.65304441703046
 10
3376.495703956934
 20
293.05993979427257
 10
3379.3528468140767
 20
293.05993979427257
 10
3382.200286073328
 20
295.9073790535236
 10
3387.9963717142195
 20
297.3564004637466
 10
3389.435689526551
 20
295.91708265141546
 10
3392.2928323836936
 20
295.91708265141546
 10
3397.351411027457
 20
290.8585040076526
 10
3397.351411027457
 20
288.00136115050987
 10
3398.821403812265
 20
286.53136836570116
 10
3397.351411027457
 20
285.0613755808926
 10
3397.351411027457
 20
282.2042327237497
 10
3392.2928323836936
 20
277.1456540799868
 10
3389.435689526551
 20
277.1456540799868
 10
3387.9963717142195
 20
275.70633626765573
 10
3382.200286073328
 20
277.15535767787867
 10
3379.3528468140767
 20
280.0027969371297
 10
3376.495703956934
 20
280.0027969371297
 10
3375.1085538845996
 20
281.38994700946387
 10
3373.721403812265
 20
280.0027969371297
 10
3370.8642609551225
 20
280.0027969371297
 10
3368.0149979491994
 20
277.15353393120614
 10
3360.872140806342
 20
275.724962502635
 10
3359.435689526551
 20
274.2885112228439
 10
3355.0671325283624
 20
274.2885112228439
 10
3353.66023715112
 20
275.6954066000863
 10
3350.842116719794
 20
274.28634638442315
 10
3335.0634440029107
 20
275.72077117686723
 10
3328.579982456028
 20
282.2042327237497
  0
LWPOLYLINE
  5
4A
330
17
100
AcDbEntity
  8
C
100
AcDbPolyline
 90
19
 70
1
 10
3443.6288575018993
 20
277.15535767787867
 10
3438.5799824560286
 20
282.2042327237497
 10
3438.5799824560286
 20
285.0613755808926
 10
3437.109989671219
 20
286.53136836570116
 10
3438.5799824560286
 20
288.00136115050987
 10
3438.5799824560286
 20
290.8585040076526
 10
3443.6288575018993
 20
295.9073790535236
 10
3449.424943142791
 20
297.3564004637466
 10
3450.8642609551225
 20
295.91708265141546
 10
3453.721403812265
 20
295.91708265141546
 10
3458.7799824560284
 20
290.8585040076526
 10
3458.7799824560284
 20
288.00136115050987
 10
3460.2499752408366
 20
286.53136836570116
 10
3458.7799824560284
 20
285.0613755808926
 10
3458.7799824560284
 20
282.2042327237497
 10
3453.721403812265
 20
277.1456540799868
 10
3450.8642609551225
 20
277.1456540799868
 10
3449.424943142791
 20
275.70633626765573
 10
3443.6288575018993
 20
277.15535767787867
  0
LWPOLYLINE
  5
4B
330
17
100
AcDbEntity
  8
C
100
AcDbPolyline
 90
61
 70
1
 10
3415.067132528362
 20
191.4313683657012
 10
3407.1692255859434
 20
199.32927530811972
 10
3404.3120827288008
 20
205.0435610224055
 10
3398.579982456028
 20
210.7756612951781
 10
3398.579982456028
 20
213.63280415232123
 10
3397.109989671219
 20
215.10279693712974
 10
3398.579982456028
 20
216.57278972193828
 10
3398.579982456028
 20
219.42993257908117
 10
3403.6385610997904
 20
224.48851122284407
 10
3406.495703956934
 20
224.48851122284407
 10
3407.9656967417422
 20
225.9585040076526
 10
3409.435689526551
 20
224.48851122284407
 10
3417.942089943992
 20
224.48851122284407
 10
3423.6799824560285
 20
227.3574574788617
 10
3426.5607321109214
 20
225.9170826514154
 10
3432.227804229707
 20
225.9170826514154
 10
3437.9420899439924
 20
228.77422550855832
 10
3440.7814182426478
 20
228.77422550855832
 10
3450.0085538846
 20
238.00136115050984
 10
3450.0085538846
 20
240.85850400765275
 10
3451.415449261842
 20
242.2653993848949
 10
3448.568179057153
 20
247.95993979427266
 10
3449.9868778332702
 20
250.79733734650733
 10
3448.5385610997905
 20
252.24565407998688
 10
3450.0085538846
 20
253.71564686479542
 10
3450.0085538846
 20
256.5727897219383
 10
3455.061413432521
 20
261.6256492698594
 10
3465.0783470802244
 20
263.05663979095993
 10
3470.822839598886
 20
265.92888605029043
 10
3476.5173800082634
 20
263.08161584560173
 10
3477.924275385505
 20
264.4885112228441
 10
3483.7214038122656
 20
264.4885112228441
 10
3485.1499752408363
 20
263.05993979427257
 10
3488.00711809798
 20
263.05993979427257
 10
3493.0578168905226
 20
258.0092410017294
 10
3494.4863883190937
 20
250.86638385887227
 10
3495.9228395988857
 20
249.42993257908097
 10
3495.9228395988857
 20
242.28707543622386
 10
3497.3621574112162
 20
240.84775762389276
 10
3495.9131360009933
 20
235.05167198300114
 10
3490.8642609551216
 20
230.00279693712966
 10
3488.007118097979
 20
230.00279693712966
 10
3483.7214038122656
 20
225.71708265141544
 10
3480.864260955123
 20
225.71708265141544
 10
3475.9228395988853
 20
220.77566129517834
 10
3475.9228395988853
 20
217.9296622304996
 10
3473.043409156814
 20
213.61051656739295
 10
3462.292832383694
 20
202.85993979427252
 10
3460.8642609551225
 20
202.85993979427252
 10
3452.2928323836945
 20
194.28851122284408
 10
3449.435689526551
 20
194.28851122284408
 10
3448.0149979491994
 20
192.86781964549203
 10
3440.789972127248
 20
191.42281448110165
 10
3439.374522865406
 20
192.83826374294333
 10
3433.66023715112
 20
189.98112088580066
 10
3432.2316657225488
 20
191.409692314372
 10
3429.394268170314
 20
189.99099353825488
 10
3426.556870618079
 20
191.409692314372
 10
3425.108553884599
 20
189.96137558089265
 10
3423.638561099791
 20
191.4313683657012
 10
3415.067132528362
 20
191.4313683657012
  0
LWPOLYLINE
  5
4C
330
17
100
AcDbEntity
  8
C
100
AcDbPolyline
 90
38
 70
1
 10
3335.0634440029107
 20
275.72077117686723
 10
3328.579982456028
 20
282.2042327237497
 10
3328.579982456028
 20
285.0613755808926
 10
3327.10998967122
 20
286.53136836570116
 10
3328.579982456028
 20
288.00136115050987
 10
3328.579982456028
 20
290.8585040076526
 10
3333.6385610997913
 20
295.91708265141546
 10
3336.495703956934
 20
295.91708265141546
 10
3337.9242753855056
 20
297.3456540799868
 10
3363.7035892537783
 20
297.3456540799868
 10
3375.088808579692
 20
291.65304441703046
 10
3376.495703956934
 20
293.05993979427257
 10
3379.3528468140767
 20
293.05993979427257
 10
3382.200286073328
 20
295.9073790535236
 10
3387.9963717142195
 20
297.3564004637466
 10
3389.435689526551
 20
295.91708265141546
 10
3392.2928323836936
 20
295.91708265141546
 10
3397.351411027457
 20
290.8585040076526
 10
3397.351411027457
 20
288.00136115050987
 10
3398.821403812265
 20
286.53136836570116
 10
3397.351411027457
 20
285.0613755808926
 10
3397.351411027457
 20
282.2042327237497
 10
3392.2928323836936
 20
277.1456540799868
 10
3389.435689526551
 20
277.1456540799868
 10
3387.9963717142195
 20
275.70633626765573
 10
3382.200286073328
 20
277.15535767787867
 10
3379.3528468140767
 20
280.0027969371297
 10
3376.495703956934
 20
280.0027969371297
 10
3375.1085538845996
 20
281.38994700946387
 10
3373.721403812265
 20
280.0027969371297
 10
3370.8642609551225
 20
280.0027969371297
 10
3368.0149979491994
 20
277.15353393120614
 10
3360.872140806342
 20
275.724962502635
 10
3359.435689526551
 20
274.2885112228439
 10
3355.0671325283624
 20
274.2885112228439
 10
3353.66023715112
 20
275.6954066000863
 10
3350.842116719794
 20
274.28634638442315
 10
3335.0634440029107
 20
275.72077117686723
  0
LWPOLYLINE
  5
4D
330
17
100
AcDbEntity
  8
C
100
AcDbPolyline
 90
86
 70
1
 10
3466.487824105714
 20
162.86781964549223
 10
3460.014272980441
 20
169.34137077076494
 10
3458.58570155187
 20
179.34137077076494
 10
3447.9163955342856
 20
190.01067678834914
 10
3440.7735383914282
 20
191.43924821692048
 10
3439.374522865406
 20
192.83826374294333
 10
3433.66023715112
 20
189.98112088580066
 10
3432.2244019517825
 20
191.41695608513777
 10
3427.9386876660683
 20
189.9883846565664
 10
3426.537125313171
 20
191.38994700946398
 10
3425.108553884599
 20
189.96137558089265
 10
3423.638561099791
 20
191.4313683657012
 10
3420.8642609551225
 20
191.4313683657012
 10
3419.394268170314
 20
189.96137558089265
 10
3417.9242753855046
 20
191.4313683657012
 10
3415.067132528362
 20
191.4313683657012
 10
3407.1692255859434
 20
199.32927530811972
 10
3404.3120827288008
 20
205.0435610224055
 10
3398.579982456028
 20
210.7756612951781
 10
3398.579982456028
 20
213.63280415232123
 10
3397.109989671219
 20
215.10279693712974
 10
3398.579982456028
 20
216.57278972193828
 10
3398.579982456028
 20
219.42993257908117
 10
3403.6385610997904
 20
224.48851122284407
 10
3406.495703956934
 20
224.48851122284407
 10
3407.9656967417422
 20
225.9585040076526
 10
3409.435689526551
 20
224.48851122284407
 10
3417.942089943992
 20
224.48851122284407
 10
3423.6799824560285
 20
227.3574574788617
 10
3426.5607321109214
 20
225.9170826514154
 10
3432.227804229707
 20
225.9170826514154
 10
3437.9420899439924
 20
228.77422550855832
 10
3440.7814182426478
 20
228.77422550855832
 10
3450.0085538846
 20
238.00136115050984
 10
3450.0085538846
 20
240.85850400765275
 10
3451.415449261842
 20
242.2653993848949
 10
3448.568179057153
 20
247.95993979427266
 10
3449.9868778332702
 20
250.79733734650733
 10
3448.5385610997905
 20
252.24565407998688
 10
3450.0085538846
 20
253.71564686479542
 10
3450.0085538846
 20
256.5727897219383
 10
3455.061413432521
 20
261.6256492698594
 10
3465.0783470802244
 20
263.05663979095993
 10
3470.822839598886
 20
265.92888605029043
 10
3476.5173800082634
 20
263.08161584560173
 10
3477.924275385505
 20
264.4885112228441
 10
3483.7214038122656
 20
264.4885112228441
 10
3485.1499752408363
 20
263.05993979427257
 10
3488.00711809798
 20
263.05993979427257
 10
3493.056686975512
 20
258.0103709167396
 10
3497.361312932152
 20
239.3569917713021
 10
3495.9228395988857
 20
237.91851843803568
 10
3495.9228395988857
 20
235.05742011447063
 10
3484.483686967082
 20
225.04816156164333
 10
3483.054524266059
 20
219.33151075754864
 10
3468.768809980345
 20
207.9029393289773
 10
3467.3621574112162
 20
202.2763290524643
 10
3468.779982456028
 20
200.8585040076527
 10
3468.779982456028
 20
197.99563613208983
 10
3475.155941797359
 20
190.20279693712982
 10
3478.0071180979794
 20
190.20279693712982
 10
3479.394268170314
 20
188.81564686479547
 10
3480.7814182426478
 20
190.20279693712982
 10
3483.6385610997904
 20
190.20279693712982
 10
3489.3528468140767
 20
195.9170826514154
 10
3492.2099896712193
 20
195.9170826514154
 10
3493.679982456028
 20
197.38707543622414
 10
3495.149975240837
 20
195.9170826514154
 10
3498.00711809798
 20
195.9170826514154
 10
3503.0656967417426
 20
190.85850400765247
 10
3503.0656967417426
 20
188.00136115050958
 10
3504.5356895265513
 20
186.53136836570127
 10
3503.0873727930716
 20
185.08305163222172
 10
3504.5159442216427
 20
182.22590877507884
 10
3503.0656967417426
 20
180.77566129517854
 10
3503.0656967417426
 20
177.91851843803562
 10
3498.00711809798
 20
172.8599397942725
 10
3495.1499752408363
 20
172.8599397942725
 10
3493.699727760936
 20
171.4096923143722
 10
3490.8425849037926
 20
172.83826374294352
 10
3489.435689526551
 20
171.43136836570116
 10
3486.5785466694083
 20
171.43136836570116
 10
3478.0071180979794
 20
162.85993979427272
 10
3475.1499752408367
 20
162.85993979427272
 10
3473.712849927666
 20
161.42281448110163
 10
3466.487824105714
 20
162.86781964549223
  0
LWPOLYLINE
  5
4E
330
17
100
AcDbEntity
  8
C
100
AcDbPolyline
 90
38
 70
1
 10
3335.0634440029107
 20
275.72077117686723
 10
3328.579982456028
 20
282.2042327237497
 10
3328.579982456028
 20
285.0613755808926
 10
3327.10998967122
 20
286.53136836570116
 10
3328.579982456028
 20
288.00136115050987
 10
3328.579982456028
 20
290.8585040076526
 10
3333.6385610997913
 20
295.91708265141546
 10
3336.495703956934
 20
295.91708265141546
 10
3337.9242753855056
 20
297.3456540799868
 10
3363.7035892537783
 20
297.3456540799868
 10
3375.088808579692
 20
291.65304441703046
 10
3376.495703956934
 20
293.05993979427257
 10
3379.3528468140767
 20
293.05993979427257
 10
3382.200286073328
 20
295.9073790535236
 10
3387.9963717142195
 20
297.3564004637466
 10
3389.435689526551
 20
295.91708265141546
 10
3392.2928323836936
 20
295.91708265141546
 10
3397.351411027457
 20
290.8585040076526
 10
3397.351411027457
 20
288.00136115050987
 10
3398.821403812265
 20
286.53136836570116
 10
3397.351411027457
 20
285.0613755808926
 10
3397.351411027457
 20
282.2042327237497
 10
3392.2928323836936
 20
277.1456540799868
 10
3389.435689526551
 20
277.1456540799868
 10
3387.9963717142195
 20
275.70633626765573
 10
3382.200286073328
 20
277.15535767787867
 10
3379.3528468140767
 20
280.0027969371297
 10
3376.495703956934
 20
280.0027969371297
 10
3375.1085538845996
 20
281.38994700946387
 10
3373.721403812265
 20
280.0027969371297
 10
3370.8642609551225
 20
280.0027969371297
 10
3368.0149979491994
 20
277.15353393120614
 10
3360.872140806342
 20
275.724962502635
 10
3359.435689526551
 20
274.2885112228439
 10
3355.0671325283624
 20
274.2885112228439
 10
3353.66023715112
 20
275.6954066000863
 10
3350.842116719794
 20
274.28634638442315
 10
3335.0634440029107
 20
275.72077117686723
  0
LWPOLYLINE
  5
4F
330
17
100
AcDbEntity
  8
C
100
AcDbPolyline
 90
19
 70
1
 10
3443.6288575018993
 20
277.15535767787867
 10
3438.5799824560286
 20
282.2042327237497
 10
3438.5799824560286
 20
285.0613755808926
 10
3437.109989671219
 20
286.53136836570116
 10
3438.5799824560286
 20
288.00136115050987
 10
3438.5799824560286
 20
290.8585040076526
 10
3443.6288575018993
 20
295.9073790535236
 10
3449.424943142791
 20
297.3564004637466
 10
3450.8642609551225
 20
295.91708265141546
 10
3453.721403812265
 20
295.91708265141546
 10
3458.7799824560284
 20
290.8585040076526
 10
3458.7799824560284
 20
288.00136115050987
 10
3460.2499752408366
 20
286.53136836570116
 10
3458.7799824560284
 20
285.0613755808926
 10
3458.7799824560284
 20
282.2042327237497
 10
3453.721403812265
 20
277.1456540799868
 10
3450.8642609551225
 20
277.1456540799868
 10
3449.424943142791
 20
275.70633626765573
 10
3443.6288575018993
 20
277.15535767787867
  0
LWPOLYLINE
  5
50
330
17
100
AcDbEntity
  8
C
100
AcDbPolyline
 90
34
 70
1
 10
4282.959351323534
 20
215.00087519435905
 10
4275.05662144791
 20
217.15616516043835
 10
4268.579982456027
 20
223.63280415232123
 10
4268.579982456027
 20
226.48994700946412
 10
4267.1099896712185
 20
227.95993979427266
 10
4268.579982456027
 20
229.42993257908094
 10
4268.579982456027
 20
232.28707543622386
 10
4273.6385610997895
 20
237.34565407998699
 10
4276.4957039569335
 20
237.34565407998699
 10
4279.344966962856
 20
240.1949170859101
 10
4286.487824105714
 20
241.62348851448166
 10
4287.945951436834
 20
243.0816158456015
 10
4290.803094293977
 20
241.65304441703017
 10
4292.209989671219
 20
243.05993979427254
 10
4295.067132528362
 20
243.05993979427254
 10
4297.924275385504
 20
245.91708265141543
 10
4300.781418242647
 20
245.91708265141543
 10
4302.251411027457
 20
247.38707543622397
 10
4303.721403812264
 20
245.91708265141543
 10
4309.3706613725635
 20
245.91708265141543
 10
4315.128299189508
 20
248.79590155988728
 10
4316.578546669407
 20
247.34565407998676
 10
4319.43568952655
 20
247.34565407998676
 10
4324.488549074471
 20
242.2927945320661
 10
4325.928905616062
 20
232.21029874092758
 10
4324.494268170313
 20
230.77566129517834
 10
4324.494268170313
 20
227.91851843803568
 10
4319.4453931244425
 20
222.86964339216442
 10
4313.668348111714
 20
221.42538213898266
 10
4307.942089943992
 20
224.2885112228441
 10
4300.842097839241
 20
224.2885112228441
 10
4293.736179222852
 20
221.44614377628824
 10
4288.012837193821
 20
215.722801747257
 10
4282.959351323534
 20
215.00087519435905
  0
LWPOLYLINE
  5
51
330
17
100
AcDbEntity
  8
C
100
AcDbPolyline
 90
44
 70
1
 10
3953.6385610997904
 20
177.14565407998694
 10
3948.579982456027
 20
182.20423272374964
 10
3948.579982456027
 20
185.06137558089253
 10
3943.6385610997904
 20
190.00279693712986
 10
3940.7814182426478
 20
190.00279693712986
 10
3939.363593197836
 20
191.42062198194142
 10
3933.731107410157
 20
190.01250053502173
 10
3925.149975240836
 20
181.43136836570116
 10
3922.292832383693
 20
181.43136836570116
 10
3920.857161296655
 20
179.99569727866293
 10
3912.203360650578
 20
181.4379973863427
 10
3907.1514110274566
 20
186.4899470094641
 10
3907.1514110274566
 20
189.34708986660675
 10
3905.7228395988845
 20
190.7756612951783
 10
3905.7228395988845
 20
255.14421829336698
 10
3907.1514110274566
 20
256.5727897219383
 10
3907.1514110274566
 20
259.4299325790812
 10
3912.2099896712184
 20
264.4885112228441
 10
3915.067132528362
 20
264.4885112228441
 10
3916.495703956933
 20
265.91708265141546
 10
3948.007118097979
 20
265.91708265141546
 10
3949.435689526551
 20
264.4885112228441
 10
3952.2928323836936
 20
264.4885112228441
 10
3957.343531176237
 20
259.4378124303005
 10
3958.772102604808
 20
252.2949552874434
 10
3968.779982456027
 20
242.2870754362241
 10
3968.779982456027
 20
239.4299325790812
 10
3970.2499752408366
 20
237.95993979427266
 10
3968.779982456027
 20
236.48994700946392
 10
3968.779982456027
 20
233.71564686479562
 10
3970.208553884599
 20
232.28707543622406
 10
3970.208553884599
 20
229.42993257908117
 10
3977.333596468969
 20
222.3048899947111
 10
3981.6588013644996
 20
213.65448020365042
 10
3980.208553884599
 20
212.20423272374967
 10
3980.208553884599
 20
209.34708986660678
 10
3970.208553884599
 20
199.34708986660675
 10
3970.208553884599
 20
196.48994700946386
 10
3968.801658507357
 20
195.08305163222172
 10
3971.6588013644996
 20
189.36876591793595
 10
3970.208553884599
 20
187.91851843803542
 10
3970.208553884599
 20
185.06137558089253
 10
3962.292832383693
 20
177.14565407998694
 10
3953.6385610997904
 20
177.14565407998694
  0
LWPOLYLINE
  5
52
330
17
100
AcDbEntity
  8
C
100
AcDbPolyline
 90
34
 70
1
 10
4275.05662144791
 20
217.15616516043835
 10
4268.579982456027
 20
223.63280415232123
 10
4268.579982456027
 20
226.48994700946412
 10
4267.1099896712185
 20
227.95993979427266
 10
4268.579982456027
 20
229.42993257908094
 10
4268.579982456027
 20
232.28707543622386
 10
4273.6385610997895
 20
237.34565407998699
 10
4276.4957039569335
 20
237.34565407998699
 10
4279.344966962856
 20
240.1949170859101
 10
4286.487824105714
 20
241.62348851448166
 10
4287.945951436834
 20
243.0816158456015
 10
4290.803094293977
 20
241.65304441703017
 10
4292.209989671219
 20
243.05993979427254
 10
4295.067132528362
 20
243.05993979427254
 10
4297.924275385504
 20
245.91708265141543
 10
4300.781418242647
 20
245.91708265141543
 10
4302.251411027457
 20
247.38707543622397
 10
4303.721403812264
 20
245.91708265141543
 10
4309.3706613725635
 20
245.91708265141543
 10
4315.128299189508
 20
248.79590155988728
 10
4316.578546669407
 20
247.34565407998676
 10
4319.43568952655
 20
247.34565407998676
 10
4324.488549074471
 20
242.2927945320661
 10
4325.928905616062
 20
232.21029874092758
 10
4324.494268170313
 20
230.77566129517834
 10
4324.494268170313
 20
227.91851843803568
 10
4319.4453931244425
 20
222.86964339216442
 10
4313.668348111714
 20
221.42538213898266
 10
4307.942089943992
 20
224.2885112228441
 10
4300.842097839241
 20
224.2885112228441
 10
4293.736179222852
 20
221.44614377628824
 10
4288.012837193821
 20
215.722801747257
 10
4282.959351323534
 20
215.00087519435905
 10
4275.05662144791
 20
217.15616516043835
  0
LWPOLYLINE
  5
53
330
17
100
AcDbEntity
  8
C
100
AcDbPolyline
 90
44
 70
1
 10
3948.579982456027
 20
182.20423272374964
 10
3948.579982456027
 20
185.06137558089253
 10
3943.6385610997904
 20
190.00279693712986
 10
3940.7814182426478
 20
190.00279693712986
 10
3939.363593197836
 20
191.42062198194142
 10
3933.731107410157
 20
190.01250053502173
 10
3925.149975240836
 20
181.43136836570116
 10
3922.292832383693
 20
181.43136836570116
 10
3920.857161296655
 20
179.99569727866293
 10
3912.203360650578
 20
181.4379973863427
 10
3907.1514110274566
 20
186.4899470094641
 10
3907.1514110274566
 20
189.34708986660675
 10
3905.7228395988845
 20
190.7756612951783
 10
3905.7228395988845
 20
255.14421829336698
 10
3907.1514110274566
 20
256.5727897219383
 10
3907.1514110274566
 20
259.4299325790812
 10
3912.2099896712184
 20
264.4885112228441
 10
3915.067132528362
 20
264.4885112228441
 10
3916.495703956933
 20
265.91708265141546
 10
3948.007118097979
 20
265.91708265141546
 10
3949.435689526551
 20
264.4885112228441
 10
3952.2928323836936
 20
264.4885112228441
 10
3957.343531176237
 20
259.4378124303005
 10
3958.772102604808
 20
252.2949552874434
 10
3968.779982456027
 20
242.2870754362241
 10
3968.779982456027
 20
239.4299325790812
 10
3970.2499752408366
 20
237.95993979427266
 10
3968.779982456027
 20
236.48994700946392
 10
3968.779982456027
 20
233.71564686479562
 10
3970.208553884599
 20
232.28707543622406
 10
3970.208553884599
 20
229.42993257908117
 10
3977.333596468969
 20
222.3048899947111
 10
3981.6588013644996
 20
213.65448020365042
 10
3980.208553884599
 20
212.20423272374967
 10
3980.208553884599
 20
209.34708986660678
 10
3970.208553884599
 20
199.34708986660675
 10
3970.208553884599
 20
196.48994700946386
 10
3968.801658507357
 20
195.08305163222172
 10
3971.6588013644996
 20
189.36876591793595
 10
3970.208553884599
 20
187.91851843803542
 10
3970.208553884599
 20
185.06137558089253
 10
3962.292832383693
 20
177.14565407998694
 10
3953.6385610997904
 20
177.14565407998694
 10
3948.579982456027
 20
182.20423272374964
  0
LWPOLYLINE
  5
54
330
17
100
AcDbEntity
  8
C
100
AcDbPolyline
 90
34
 70
1
 10
4275.05662144791
 20
217.15616516043835
 10
4268.579982456027
 20
223.63280415232123
 10
4268.579982456027
 20
226.48994700946412
 10
4267.1099896712185
 20
227.95993979427266
 10
4268.579982456027
 20
229.42993257908094
 10
4268.579982456027
 20
232.28707543622386
 10
4273.6385610997895
 20
237.34565407998699
 10
4276.4957039569335
 20
237.34565407998699
 10
4279.344966962856
 20
240.1949170859101
 10
4286.487824105714
 20
241.62348851448166
 10
4287.945951436834
 20
243.0816158456015
 10
4290.803094293977
 20
241.65304441703017
 10
4292.209989671219
 20
243.05993979427254
 10
4295.067132528362
 20
243.05993979427254
 10
4297.924275385504
 20
245.91708265141543
 10
4300.781418242647
 20
245.91708265141543
 10
4302.251411027457
 20
247.38707543622397
 10
4303.721403812264
 20
245.91708265141543
 10
4309.3706613725635
 20
245.91708265141543
 10
4315.128299189508
 20
248.79590155988728
 10
4316.578546669407
 20
247.34565407998676
 10
4319.43568952655
 20
247.34565407998676
 10
4324.488549074471
 20
242.2927945320661
 10
4325.928905616062
 20
232.21029874092758
 10
4324.494268170313
 20
230.77566129517834
 10
4324.494268170313
 20
227.91851843803568
 10
4319.4453931244425
 20
222.86964339216442
 10
4313.668348111714
 20
221.42538213898266
 10
4307.942089943992
 20
224.2885112228441
 10
4300.842097839241
 20
224.2885112228441
 10
4293.736179222852
 20
221.44614377628824
 10
4288.012837193821
 20
215.722801747257
 10
4282.959351323534
 20
215.00087519435905
 10
4275.05662144791
 20
217.15616516043835
  0
LWPOLYLINE
  5
55
330
17
100
AcDbEntity
  8
C
100
AcDbPolyline
 90
44
 70
1
 10
3948.579982456027
 20
182.20423272374964
 10
3948.579982456027
 20
185.06137558089253
 10
3943.6385610997904
 20
190.00279693712986
 10
3940.7814182426478
 20
190.00279693712986
 10
3939.363593197836
 20
191.42062198194142
 10
3933.731107410157
 20
190.01250053502173
 10
3925.149975240836
 20
181.43136836570116
 10
3922.292832383693
 20
181.43136836570116
 10
3920.857161296655
 20
179.99569727866293
 10
3912.203360650578
 20
181.4379973863427
 10
3907.1514110274566
 20
186.4899470094641
 10
3907.1514110274566
 20
189.34708986660675
 10
3905.7228395988845
 20
190.7756612951783
 10
3905.7228395988845
 20
255.14421829336698
 10
3907.1514110274566
 20
256.5727897219383
 10
3907.1514110274566
 20
259.4299325790812
 10
3912.2099896712184
 20
264.4885112228441
 10
3915.067132528362
 20
264.4885112228441
 10
3916.495703956933
 20
265.91708265141546
 10
3948.007118097979
 20
265.91708265141546
 10
3949.435689526551
 20
264.4885112228441
 10
3952.2928323836936
 20
264.4885112228441
 10
3957.343531176237
 20
259.4378124303005
 10
3958.772102604808
 20
252.2949552874434
 10
3968.779982456027
 20
242.2870754362241
 10
3968.779982456027
 20
239.4299325790812
 10
3970.2499752408366
 20
237.95993979427266
 10
3968.779982456027
 20
236.48994700946392
 10
3968.779982456027
 20
233.71564686479562
 10
3970.208553884599
 20
232.28707543622406
 10
3970.208553884599
 20
229.42993257908117
 10
3977.333596468969
 20
222.3048899947111
 10
3981.6588013644996
 20
213.65448020365042
 10
3980.208553884599
 20
212.20423272374967
 10
3980.208553884599
 20
209.34708986660678
 10
3970.208553884599
 20
199.34708986660675
 10
3970.208553884599
 20
196.48994700946386
 10
3968.801658507357
 20
195.08305163222172
 10
3971.6588013644996
 20
189.36876591793595
 10
3970.208553884599
 20
187.91851843803542
 10
3970.208553884599
 20
185.06137558089253
 10
3962.292832383693
 20
177.14565407998694
 10
3953.6385610997904
 20
177.14565407998694
 10
3948.579982456027
 20
182.20423272374964
  0
LWPOLYLINE
  5
56
330
17
100
AcDbEntity
  8
C
100
AcDbPolyline
 90
19
 70
1
 10
5279.343143216184
 20
194.29821482073595
 10
5274.294268170313
 20
199.34708986660675
 10
5274.294268170313
 20
202.20423272374967
 10
5272.824275385505
 20
203.67422550855818
 10
5274.294268170313
 20
205.14421829336692
 10
5274.294268170313
 20
208.0013611505098
 10
5280.781418242648
 20
214.48851122284407
 10
5283.63856109979
 20
214.48851122284407
 10
5285.1085538846
 20
215.9585040076526
 10
5286.578546669408
 20
214.48851122284407
 10
5289.435689526551
 20
214.48851122284407
 10
5294.484564572422
 20
209.43963617697304
 10
5295.933585982644
 20
203.64355053608074
 10
5294.494268170314
 20
202.20423272374967
 10
5294.494268170314
 20
199.34708986660675
 10
5289.435689526551
 20
194.28851122284408
 10
5286.578546669408
 20
194.28851122284408
 10
5285.139228857077
 20
192.84919341051275
 10
5279.343143216184
 20
194.29821482073595
  0
LWPOLYLINE
  5
57
330
17
100
AcDbEntity
  8
C
100
AcDbPolyline
 90
25
 70
1
 10
5265.05742893047
 20
232.86964339216442
 10
5257.151411027456
 20
240.77566129517837
 10
5257.151411027456
 20
243.63280415232103
 10
5255.681418242648
 20
245.10279693712977
 10
5257.151411027456
 20
246.5727897219383
 10
5257.151411027456
 20
249.4299325790812
 10
5260.0085538846
 20
252.2870754362241
 10
5260.0085538846
 20
255.14421829336698
 10
5265.05742893047
 20
260.1930933392378
 10
5270.771714644756
 20
261.62166476780936
 10
5276.486000359042
 20
267.3359504820949
 10
5282.282085999934
 20
268.7849718923181
 10
5283.721403812266
 20
267.3456540799868
 10
5286.578546669408
 20
267.3456540799868
 10
5291.637125313171
 20
262.2870754362241
 10
5291.637125313171
 20
259.4299325790812
 10
5293.10711809798
 20
257.95993979427243
 10
5291.637125313171
 20
256.48994700946395
 10
5291.637125313171
 20
253.63280415232103
 10
5285.913136000993
 20
247.9088148401436
 10
5284.484564572422
 20
242.19452912585783
 10
5275.149975240836
 20
232.85993979427255
 10
5272.292832383694
 20
232.85993979427255
 10
5270.853514571362
 20
231.42062198194145
 10
5265.05742893047
 20
232.86964339216442
  0
LWPOLYLINE
  5
58
330
17
100
AcDbEntity
  8
C
100
AcDbPolyline
 90
19
 70
1
 10
5279.343143216184
 20
194.29821482073595
 10
5274.294268170313
 20
199.34708986660675
 10
5274.294268170313
 20
202.20423272374967
 10
5272.824275385505
 20
203.67422550855818
 10
5274.294268170313
 20
205.14421829336692
 10
5274.294268170313
 20
208.0013611505098
 10
5280.781418242648
 20
214.48851122284407
 10
5283.63856109979
 20
214.48851122284407
 10
5285.1085538846
 20
215.9585040076526
 10
5286.578546669408
 20
214.48851122284407
 10
5289.435689526551
 20
214.48851122284407
 10
5294.484564572422
 20
209.43963617697304
 10
5295.933585982644
 20
203.64355053608074
 10
5294.494268170314
 20
202.20423272374967
 10
5294.494268170314
 20
199.34708986660675
 10
5289.435689526551
 20
194.28851122284408
 10
5286.578546669408
 20
194.28851122284408
 10
5285.139228857077
 20
192.84919341051275
 10
5279.343143216184
 20
194.29821482073595
  0
LWPOLYLINE
  5
59
330
17
100
AcDbEntity
  8
C
100
AcDbPolyline
 90
25
 70
1
 10
5265.05742893047
 20
232.86964339216442
 10
5257.151411027456
 20
240.77566129517837
 10
5257.151411027456
 20
243.63280415232103
 10
5255.681418242648
 20
245.10279693712977
 10
5257.151411027456
 20
246.5727897219383
 10
5257.151411027456
 20
249.4299325790812
 10
5260.0085538846
 20
252.2870754362241
 10
5260.0085538846
 20
255.14421829336698
 10
5265.05742893047
 20
260.1930933392378
 10
5270.771714644756
 20
261.62166476780936
 10
5276.486000359042
 20
267.3359504820949
 10
5282.282085999934
 20
268.7849718923181
 10
5283.721403812266
 20
267.3456540799868
 10
5286.578546669408
 20
267.3456540799868
 10
5291.637125313171
 20
262.2870754362241
 10
5291.637125313171
 20
259.4299325790812
 10
5293.10711809798
 20
257.95993979427243
 10
5291.637125313171
 20
256.48994700946395
 10
5291.637125313171
 20
253.63280415232103
 10
5285.913136000993
 20
247.9088148401436
 10
5284.484564572422
 20
242.19452912585783
 10
5275.149975240836
 20
232.85993979427255
 10
5272.292832383694
 20
232.85993979427255
 10
5270.853514571362
 20
231.42062198194145
 10
5265.05742893047
 20
232.86964339216442
  0
LWPOLYLINE
  5
5A
330
17
100
AcDbEntity
  8
C
100
AcDbPolyline
 90
19
 70
1
 10
5279.343143216184
 20
194.29821482073595
 10
5274.294268170313
 20
199.34708986660675
 10
5274.294268170313
 20
202.20423272374967
 10
5272.824275385505
 20
203.67422550855818
 10
5274.294268170313
 20
205.14421829336692
 10
5274.294268170313
 20
208.0013611505098
 10
5280.781418242648
 20
214.48851122284407
 10
5283.63856109979
 20
214.48851122284407
 10
5285.1085538846
 20
215.9585040076526
 10
5286.578546669408
 20
214.48851122284407
 10
5289.435689526551
 20
214.48851122284407
 10
5294.484564572422
 20
209.43963617697304
 10
5295.933585982644
 20
203.64355053608074
 10
5294.494268170314
 20
202.20423272374967
 10
5294.494268170314
 20
199.34708986660675
 10
5289.435689526551
 20
194.28851122284408
 10
5286.578546669408
 20
194.28851122284408
 10
5285.139228857077
 20
192.84919341051275
 10
5279.343143216184
 20
194.29821482073595
  0
LWPOLYLINE
  5
5B
330
17
100
AcDbEntity
  8
C
100
AcDbPolyline
 90
25
 70
1
 10
5265.05742893047
 20
232.86964339216442
 10
5257.151411027456
 20
240.77566129517837
 10
5257.151411027456
 20
243.63280415232103
 10
5255.681418242648
 20
245.10279693712977
 10
5257.151411027456
 20
246.5727897219383
 10
5257.151411027456
 20
249.4299325790812
 10
5260.0085538846
 20
252.2870754362241
 10
5260.0085538846
 20
255.14421829336698
 10
5265.05742893047
 20
260.1930933392378
 10
5270.771714644756
 20
261.62166476780936
 10
5276.486000359042
 20
267.3359504820949
 10
5282.282085999934
 20
268.7849718923181
 10
5283.721403812266
 20
267.3456540799868
 10
5286.578546669408
 20
267.3456540799868
 10
5291.637125313171
 20
262.2870754362241
 10
5291.637125313171
 20
259.4299325790812
 10
5293.10711809798
 20
257.95993979427243
 10
5291.637125313171
 20
256.48994700946395
 10
5291.637125313171
 20
253.63280415232103
 10
5285.913136000993
 20
247.9088148401436
 10
5284.484564572422
 20
242.19452912585783
 10
5275.149975240836
 20
232.85993979427255
 10
5272.292832383694
 20
232.85993979427255
 10
5270.853514571362
 20
231.42062198194145
 10
5265.05742893047
 20
232.86964339216442
  0
LWPOLYLINE
  5
5C
330
17
100
AcDbEntity
  8
C
100
AcDbPolyline
 90
19
 70
1
 10
6269.3418804693665
 20
132.8709061389819
 10
6264.294268170313
 20
137.91851843803536
 10
6264.294268170313
 20
140.77566129517828
 10
6262.824275385505
 20
142.2456540799868
 10
6264.294268170313
 20
143.71564686479553
 10
6264.294268170313
 20
146.57278972193842
 10
6270.773538391428
 20
153.05205994305294
 10
6277.916395534285
 20
154.4806313716245
 10
6279.394268170314
 20
155.95850400765255
 10
6280.864260955122
 20
154.488511222844
 10
6283.721403812265
 20
154.488511222844
 10
6288.773353435386
 20
149.43656159972264
 10
6290.215653543066
 20
140.78276095364495
 10
6288.779982456028
 20
139.34708986660692
 10
6288.779982456028
 20
136.48994700946383
 10
6283.721403812265
 20
131.43136836570113
 10
6280.864260955122
 20
131.43136836570113
 10
6279.423372448618
 20
129.9904798591962
 10
6269.3418804693665
 20
132.8709061389819
  0
LWPOLYLINE
  5
5D
330
17
100
AcDbEntity
  8
C
100
AcDbPolyline
 90
59
 70
1
 10
6199.348798614728
 20
178.57827370790557
 10
6197.924275385504
 20
180.00279693712963
 10
6195.067132528361
 20
180.00279693712963
 10
6190.0085538846
 20
185.06137558089253
 10
6190.0085538846
 20
187.91851843803542
 10
6185.0574289304695
 20
192.8696433921644
 10
6179.353210405813
 20
194.29569802332858
 10
6175.046591018166
 20
197.1667776150934
 10
6157.166995876604
 20
213.61600514532998
 10
6154.28474260629
 20
220.82163832111812
 10
6155.701163547556
 20
223.65448020364997
 10
6154.252846814076
 20
225.10279693712977
 10
6155.722839598885
 20
226.57278972193828
 10
6155.722839598885
 20
233.69783230630836
 10
6158.573996229308
 20
239.40014556715684
 10
6157.161114625348
 20
245.05167198300072
 10
6152.209989671219
 20
250.0027969371297
 10
6149.352846814076
 20
250.0027969371297
 10
6147.941612413103
 20
251.41403133810303
 10
6140.829955991965
 20
248.56936876964775
 10
6135.0574289304695
 20
250.01250053502156
 10
6130.016433735818
 20
255.05349572967307
 10
6128.571428571428
 20
262.2785215516248
 10
6130.008553884599
 20
263.7156468647954
 10
6130.008553884599
 20
266.5727897219383
 10
6135.0574289304695
 20
271.62166476780936
 10
6140.836889840034
 20
273.0665299952004
 10
6153.694032697177
 20
265.9236728523433
 10
6159.343143216184
 20
267.3359504820949
 10
6162.209989671219
 20
270.2027969371297
 10
6165.067132528361
 20
270.2027969371297
 10
6166.517380008262
 20
271.6530444170304
 10
6169.417874968063
 20
270.2027969371297
 10
6178.007118097979
 20
270.2027969371297
 10
6179.43568952655
 20
268.77422550855835
 10
6182.292832383693
 20
268.77422550855835
 10
6187.351411027456
 20
263.7156468647954
 10
6187.351411027456
 20
260.85850400765275
 10
6188.79622467814
 20
259.4136903569682
 10
6184.510510392426
 20
247.98511892839682
 10
6185.922839598884
 20
246.5727897219383
 10
6185.922839598884
 20
243.71564686479542
 10
6194.484564572422
 20
235.15392189125885
 10
6197.341707429565
 20
223.72535046268726
 10
6203.05599314385
 20
218.0110647484017
 10
6204.505014554073
 20
212.2149791075094
 10
6203.107118097979
 20
210.8170826514153
 10
6204.494268170313
 20
209.42993257908117
 10
6204.494268170313
 20
206.57278972193828
 10
6209.4435693777705
 20
201.62348851448164
 10
6216.586426520627
 20
200.19491708591008
 10
6223.065696741742
 20
193.7156468647956
 10
6223.065696741742
 20
190.8585040076527
 10
6224.505014554074
 20
189.4191861953214
 10
6223.05599314385
 20
183.6231005544291
 10
6218.0071180979785
 20
178.57422550855827
 10
6215.149975240836
 20
178.57422550855827
 10
6213.717184819688
 20
177.14143508740966
 10
6199.348798614728
 20
178.57827370790557
  0
LWPOLYLINE
  5
5E
330
17
100
AcDbEntity
  8
C
100
AcDbPolyline
 90
59
 70
1
 10
6199.348798614728
 20
178.57827370790557
 10
6197.924275385504
 20
180.00279693712963
 10
6195.067132528361
 20
180.00279693712963
 10
6190.0085538846
 20
185.06137558089253
 10
6190.0085538846
 20
187.91851843803542
 10
6185.0574289304695
 20
192.8696433921644
 10
6179.353210405813
 20
194.29569802332858
 10
6175.046591018166
 20
197.1667776150934
 10
6157.166995876604
 20
213.61600514532998
 10
6154.28474260629
 20
220.82163832111812
 10
6155.701163547556
 20
223.65448020364997
 10
6154.252846814076
 20
225.10279693712977
 10
6155.722839598885
 20
226.57278972193828
 10
6155.722839598885
 20
233.69783230630836
 10
6158.573996229308
 20
239.40014556715684
 10
6157.161114625348
 20
245.05167198300072
 10
6152.209989671219
 20
250.0027969371297
 10
6149.352846814076
 20
250.0027969371297
 10
6147.941612413103
 20
251.41403133810303
 10
6140.829955991965
 20
248.56936876964775
 10
6135.0574289304695
 20
250.01250053502156
 10
6130.016433735818
 20
255.05349572967307
 10
6128.571428571428
 20
262.2785215516248
 10
6130.008553884599
 20
263.7156468647954
 10
6130.008553884599
 20
266.5727897219383
 10
6135.0574289304695
 20
271.62166476780936
 10
6140.836889840034
 20
273.0665299952004
 10
6153.694032697177
 20
265.9236728523433
 10
6159.343143216184
 20
267.3359504820949
 10
6162.209989671219
 20
270.2027969371297
 10
6165.067132528361
 20
270.2027969371297
 10
6166.517380008262
 20
271.6530444170304
 10
6169.417874968063
 20
270.2027969371297
 10
6178.007118097979
 20
270.2027969371297
 10
6179.43568952655
 20
268.77422550855835
 10
6182.292832383693
 20
268.77422550855835
 10
6187.351411027456
 20
263.7156468647954
 10
6187.351411027456
 20
260.85850400765275
 10
6188.79622467814
 20
259.4136903569682
 10
6184.510510392426
 20
247.98511892839682
 10
6185.922839598884
 20
246.5727897219383
 10
6185.922839598884
 20
243.71564686479542
 10
6194.484564572422
 20
235.15392189125885
 10
6197.341707429565
 20
223.72535046268726
 10
6203.05599314385
 20
218.0110647484017
 10
6204.505014554073
 20
212.2149791075094
 10
6203.107118097979
 20
210.8170826514153
 10
6204.494268170313
 20
209.42993257908117
 10
6204.494268170313
 20
206.57278972193828
 10
6209.4435693777705
 20
201.62348851448164
 10
6216.586426520627
 20
200.19491708591008
 10
6223.065696741742
 20
193.7156468647956
 10
6223.065696741742
 20
190.8585040076527
 10
6224.505014554074
 20
189.4191861953214
 10
6223.05599314385
 20
183.6231005544291
 10
6218.0071180979785
 20
178.57422550855827
 10
6215.149975240836
 20
178.57422550855827
 10
6213.717184819688
 20
177.14143508740966
 10
6199.348798614728
 20
178.57827370790557
  0
LWPOLYLINE
  5
5F
330
17
100
AcDbEntity
  8
C
100
AcDbPolyline
 90
59
 70
1
 10
6199.348798614728
 20
178.57827370790557
 10
6197.924275385504
 20
180.00279693712963
 10
6195.067132528361
 20
180.00279693712963
 10
6190.0085538846
 20
185.06137558089253
 10
6190.0085538846
 20
187.91851843803542
 10
6185.0574289304695
 20
192.8696433921644
 10
6179.353210405813
 20
194.29569802332858
 10
6175.046591018166
 20
197.1667776150934
 10
6157.166995876604
 20
213.61600514532998
 10
6154.28474260629
 20
220.82163832111812
 10
6155.701163547556
 20
223.65448020364997
 10
6154.252846814076
 20
225.10279693712977
 10
6155.722839598885
 20
226.57278972193828
 10
6155.722839598885
 20
233.69783230630836
 10
6158.573996229308
 20
239.40014556715684
 10
6157.161114625348
 20
245.05167198300072
 10
6152.209989671219
 20
250.0027969371297
 10
6149.352846814076
 20
250.0027969371297
 10
6147.941612413103
 20
251.41403133810303
 10
6140.829955991965
 20
248.56936876964775
 10
6135.0574289304695
 20
250.01250053502156
 10
6130.016433735818
 20
255.05349572967307
 10
6128.571428571428
 20
262.2785215516248
 10
6130.008553884599
 20
263.7156468647954
 10
6130.008553884599
 20
266.5727897219383
 10
6135.0574289304695
 20
271.62166476780936
 10
6140.836889840034
 20
273.0665299952004
 10
6153.694032697177
 20
265.9236728523433
 10
6159.343143216184
 20
267.3359504820949
 10
6162.209989671219
 20
270.2027969371297
 10
6165.067132528361
 20
270.2027969371297
 10
6166.517380008262
 20
271.6530444170304
 10
6169.417874968063
 20
270.2027969371297
 10
6178.007118097979
 20
270.2027969371297
 10
6179.43568952655
 20
268.77422550855835
 10
6182.292832383693
 20
268.77422550855835
 10
6187.351411027456
 20
263.7156468647954
 10
6187.351411027456
 20
260.85850400765275
 10
6188.79622467814
 20
259.4136903569682
 10
6184.510510392426
 20
247.98511892839682
 10
6185.922839598884
 20
246.5727897219383
 10
6185.922839598884
 20
243.71564686479542
 10
6194.484564572422
 20
235.15392189125885
 10
6197.341707429565
 20
223.72535046268726
 10
6203.05599314385
 20
218.0110647484017
 10
6204.505014554073
 20
212.2149791075094
 10
6203.107118097979
 20
210.8170826514153
 10
6204.494268170313
 20
209.42993257908117
 10
6204.494268170313
 20
206.57278972193828
 10
6209.4435693777705
 20
201.62348851448164
 10
6216.586426520627
 20
200.19491708591008
 10
6223.065696741742
 20
193.7156468647956
 10
6223.065696741742
 20
190.8585040076527
 10
6224.505014554074
 20
189.4191861953214
 10
6223.05599314385
 20
183.6231005544291
 10
6218.0071180979785
 20
178.57422550855827
 10
6215.149975240836
 20
178.57422550855827
 10
6213.717184819688
 20
177.14143508740966
 10
6199.348798614728
 20
178.57827370790557
  0
ENDSEC
  0
SECTION
  2
OBJECTS
  0
DICTIONARY
  5
A
330
0
100
AcDbDictionary
281
1
  3
ACAD_COLOR
350
B
  3
ACAD_GROUP
350
C
  3
ACAD_LAYOUT
350
D
  3
ACAD_MATERIAL
350
E
  3
ACAD_MLEADERSTYLE
350
F
  3
ACAD_MLINESTYLE
350
10
  3
ACAD_PLOTSETTINGS
350
11
  3
ACAD_PLOTSTYLENAME
350
12
  3
ACAD_SCALELIST
350
14
  3
ACAD_TABLESTYLE
350
15
  3
ACAD_VISUALSTYLE
350
16
  3
EZDXF_META
350
2D
  0
DICTIONARY
  5
B
330
A
100
AcDbDictionary
281
1
  0
DICTIONARY
  5
C
330
A
100
AcDbDictionary
281
1
  0
DICTIONARY
  5
D
330
A
100
AcDbDictionary
281
1
  3
Model
350
1A
  3
Layout1
350
1E
  0
DICTIONARY
  5
E
330
A
100
AcDbDictionary
281
1
  3
ByBlock
350
1F
  3
ByLayer
350
20
  3
Global
350
21
  0
DICTIONARY
  5
F
330
A
100
AcDbDictionary
281
1
  3
Standard
350
2C
  0
DICTIONARY
  5
10
330
A
100
AcDbDictionary
281
1
  3
Standard
350
22
  0
DICTIONARY
  5
11
330
A
100
AcDbDictionary
281
1
  0
ACDBDICTIONARYWDFLT
  5
12
330
A
100
AcDbDictionary
281
1
  3
Normal
350
13
100
AcDbDictionaryWithDefault
340
13
  0
ACDBPLACEHOLDER
  5
13
330
12
  0
DICTIONARY
  5
14
330
A
100
AcDbDictionary
281
1
  0
DICTIONARY
  5
15
330
A
100
AcDbDictionary
281
1
  0
DICTIONARY
  5
16
330
A
100
AcDbDictionary
281
1
  0
LAYOUT
  5
1A
330
D
100
AcDbPlotSettings
  1

  4
A3
  6

 40
7.5
 41
20.0
 42
7.5
 43
20.0
 44
420.0
 45
297.0
 46
0.0
 47
0.0
 48
0.0
 49
0.0
140
0.0
141
0.0
142
1.0
143
1.0
 70
1024
 72
1
 73
0
 74
5
  7

 75
16
 76
0
 77
2
 78
300
147
1.0
148
0.0
149
0.0
100
AcDbLayout
  1
Model
 70
1
 71
0
 10
0.0
 20
0.0
 11
420.0
 21
297.0
 12
0.0
 22
0.0
 32
0.0
 14
1e+20
 24
1e+20
 34
1e+20
 15
-1e+20
 25
-1e+20
 35
-1e+20
146
0.0
 13
0.0
 23
0.0
 33
0.0
 16
1.0
 26
0.0
 36
0.0
 17
0.0
 27
1.0
 37
0.0
 76
1
330
17
  0
LAYOUT
  5
1E
330
D
100
AcDbPlotSettings
  1

  4
A3
  6

 40
7.5
 41
20.0
 42
7.5
 43
20.0
 44
420.0
 45
297.0
 46
0.0
 47
0.0
 48
0.0
 49
0.0
140
0.0
141
0.0
142
1.0
143
1.0
 70
0
 72
1
 73
0
 74
5
  7

 75
16
 76
0
 77
2
 78
300
147
1.0
148
0.0
149
0.0
100
AcDbLayout
  1
Layout1
 70
1
 71
1
 10
0.0
 20
0.0
 11
420.0
 21
297.0
 12
0.0
 22
0.0
 32
0.0
 14
1e+20
 24
1e+20
 34
1e+20
 15
-1e+20
 25
-1e+20
 35
-1e+20
146
0.0
 13
0.0
 23
0.0
 33
0.0
 16
1.0
 26
0.0
 36
0.0
 17
0.0
 27
1.0
 37
0.0
 76
1
330
1B
  0
MATERIAL
  5
1F
102
{ACAD_REACTORS
330
E
102
}
330
E
100
AcDbMaterial
  1
ByBlock
  2

 70
0
 40
1.0
 71
1
 41
1.0
 91
-1023410177
 42
1.0
 72
1
  3

 73
1
 74
1
 75
1
 44
0.5
 73
0
 45
1.0
 46
1.0
 77
1
  4

 78
1
 79
1
170
1
 48
1.0
171
1
  6

172
1
173
1
174
1
140
1.0
141
1.0
175
1
  7

176
1
177
1
178
1
143
1.0
179
1
  8

270
1
271
1
272
1
145
1.0
146
1.0
273
1
  9

274
1
275
1
276
1
 42
1.0
 72
1
  3

 73
1
 74
1
 75
1
 94
63
  0
MATERIAL
  5
20
102
{ACAD_REACTORS
330
E
102
}
330
E
100
AcDbMaterial
  1
ByLayer
  2

 70
0
 40
1.0
 71
1
 41
1.0
 91
-1023410177
 42
1.0
 72
1
  3

 73
1
 74
1
 75
1
 44
0.5
 73
0
 45
1.0
 46
1.0
 77
1
  4

 78
1
 79
1
170
1
 48
1.0
171
1
  6

172
1
173
1
174
1
140
1.0
141
1.0
175
1
  7

176
1
177
1
178
1
143
1.0
179
1
  8

270
1
271
1
272
1
145
1.0
146
1.0
273
1
  9

274
1
275
1
276
1
 42
1.0
 72
1
  3

 73
1
 74
1
 75
1
 94
63
  0
MATERIAL
  5
21
102
{ACAD_REACTORS
330
E
102
}
330
E
100
AcDbMaterial
  1
Global
  2

 70
0
 40
1.0
 71
1
 41
1.0
 91
-1023410177
 42
1.0
 72
1
  3

 73
1
 74
1
 75
1
 44
0.5
 73
0
 45
1.0
 46
1.0
 77
1
  4

 78
1
 79
1
170
1
 48
1.0
171
1
  6

172
1
173
1
174
1
140
1.0
141
1.0
175
1
  7

176
1
177
1
178
1
143
1.0
179
1
  8

270
1
271
1
272
1
145
1.0
146
1.0
273
1
  9

274
1
275
1
276
1
 42
1.0
 72
1
  3

 73
1
 74
1
 75
1
 94
63
  0
MLINESTYLE
  5
22
102
{ACAD_REACTORS
330
10
102
}
330
10
100
AcDbMlineStyle
  2
Standard
 70
0
  3

 62
256
 51
90.0
 52
90.0
 71
2
 49
0.5
 62
256
  6
BYLAYER
 49
-0.5
 62
256
  6
BYLAYER
  0
MLEADERSTYLE
  5
2C
102
{ACAD_REACTORS
330
F
102
}
330
F
100
AcDbMLeaderStyle
179
2
170
2
171
1
172
0
 90
2
 40
0.0
 41
0.0
173
1
 91
-1056964608
 92
-2
290
1
 42
2.0
291
1
 43
8.0
  3
Standard
 44
4.0
300

342
29
174
1
175
1
176
0
178
1
 93
-1056964608
 45
4.0
292
0
297
0
 46
4.0
 94
-1056964608
 47
1.0
 49
1.0
140
1.0
294
1
141
0.0
177
0
142
1.0
295
0
296
0
143
3.75
271
0
272
9
273
9
  0
DICTIONARY
  5
2D
330
A
100
AcDbDictionary
280
1
281
1
  3
CREATED_BY_EZDXF
350
2E
  3
WRITTEN_BY_EZDXF
350
62
  0
DICTIONARYVAR
  5
2E
330
2D
100
DictionaryVariables
280
0
  1
1.4.4 @ 2026-07-26T13:36:22.536534+00:00
  0
DICTIONARYVAR
  5
62
330
2D
100
DictionaryVariables
280
0
  1
1.4.4 @ 2026-07-26T13:36:22.545982+00:00
  0
ENDSEC
  0
EOF
