  0
SECTION
  2
HEADER
  9
$ACADVER
  1
AC1027
  9
$ACADMAINTVER
 70
105
  9
$DWGCODEPAGE
  3
ANSI_1252
  9
$LASTSAVEDBY
  1
ezdxf
  9
$REQUIREDVERSIONS
160
0
  9
$INSBASE
 10
0.0
 20
0.0
 30
0.0
  9
$EXTMIN
 10
1e+20
 20
1e+20
 30
1e+20
  9
$EXTMAX
 10
-1e+20
 20
-1e+20
 30
-1e+20
  9
$LIMMIN
 10
0.0
 20
0.0
  9
$LIMMAX
 10
420.0
 20
297.0
  9
$ORTHOMODE
 70
0
  9
$REGENMODE
 70
1
  9
$FILLMODE
 70
1
  9
$QTEXTMODE
 70
0
  9
$MIRRTEXT
 70
1
  9
$LTSCALE
 40
1.0
  9
$ATTMODE
 70
1
  9
$TEXTSIZE
 40
2.5
  9
$TRACEWID
 40
1.0
  9
$TEXTSTYLE
  7
Standard
  9
$CLAYER
  8
0
  9
$CELTYPE
  6
ByLayer
  9
$CECOLOR
 62
256
  9
$CELTSCALE
 40
1.0
  9
$DISPSILH
 70
0
  9
$DIMSCALE
 40
1.0
  9
$DIMASZ
 40
2.5
  9
$DIMEXO
 40
0.625
  9
$DIMDLI
 40
3.75
  9
$DIMRND
 40
0.0
  9
$DIMDLE
 40
0.0
  9
$DIMEXE
 40
1.25
  9
$DIMTP
 40
0.0
  9
$DIMTM
 40
0.0
  9
$DIMTXT
 40
2.5
  9
$DIMCEN
 40
2.5
  9
$DIMTSZ
 40
0.0
  9
$DIMTOL
 70
0
  9
$DIMLIM
 70
0
  9
$DIMTIH
 70
0
  9
$DIMTOH
 70
0
  9
$DIMSE1
 70
0
  9
$DIMSE2
 70
0
  9
$DIMTAD
 70
1
  9
$DIMZIN
 70
8
  9
$DIMBLK
  1

  9
$DIMASO
 70
1
  9
$DIMSHO
 70
1
  9
$DIMPOST
  1

  9
$DIMAPOST
  1

  9
$DIMALT
 70
0
  9
$DIMALTD
 70
3
  9
$DIMALTF
 40
0.03937007874
  9
$DIMLFAC
 40
1.0
  9
$DIMTOFL
 70
1
  9
$DIMTVP
 40
0.0
  9
$DIMTIX
 70
0
  9
$DIMSOXD
 70
0
  9
$DIMSAH
 70
0
  9
$DIMBLK1
  1

  9
$DIMBLK2
  1

  9
$DIMSTYLE
  2
ISO-25
  9
$DIMCLRD
 70
0
  9
$DIMCLRE
 70
0
  9
$DIMCLRT
 70
0
  9
$DIMTFAC
 40
1.0
  9
$DIMGAP
 40
0.625
  9
$DIMJUST
 70
0
  9
$DIMSD1
 70
0
  9
$DIMSD2
 70
0
  9
$DIMTOLJ
 70
0
  9
$DIMTZIN
 70
8
  9
$DIMALTZ
 70
0
  9
$DIMALTTZ
 70
0
  9
$DIMUPT
 70
0
  9
$DIMDEC
 70
2
  9
$DIMTDEC
 70
2
  9
$DIMALTU
 70
2
  9
$DIMALTTD
 70
3
  9
$DIMTXSTY
  7
Standard
  9
$DIMAUNIT
 70
0
  9
$DIMADEC
 70
0
  9
$DIMALTRND
 40
0.0
  9
$DIMAZIN
 70
0
  9
$DIMDSEP
 70
44
  9
$DIMATFIT
 70
3
  9
$DIMFRAC
 70
0
  9
$DIMLDRBLK
  1

  9
$DIMLUNIT
 70
2
  9
$DIMLWD
 70
-2
  9
$DIMLWE
 70
-2
  9
$DIMTMOVE
 70
0
  9
$DIMFXL
 40
1.0
  9
$DIMFXLON
 70
0
  9
$DIMJOGANG
 40
0.785398163397
  9
$DIMTFILL
 70
0
  9
$DIMTFILLCLR
 70
0
  9
$DIMARCSYM
 70
0
  9
$DIMLTYPE
  6

  9
$DIMLTEX1
  6

  9
$DIMLTEX2
  6

  9
$DIMTXTDIRECTION
 70
0
  9
$LUNITS
 70
2
  9
$LUPREC
 70
4
  9
$SKETCHINC
 40
1.0
  9
$FILLETRAD
 40
10.0
  9
$AUNITS
 70
0
  9
$AUPREC
 70
2
  9
$MENU
  1
.
  9
$ELEVATION
 40
0.0
  9
$PELEVATION
 40
0.0
  9
$THICKNESS
 40
0.0
  9
$LIMCHECK
 70
0
  9
$CHAMFERA
 40
0.0
  9
$CHAMFERB
 40
0.0
  9
$CHAMFERC
 40
0.0
  9
$CHAMFERD
 40
0.0
  9
$SKPOLY
 70
0
  9
$TDCREATE
 40
2461248.691921296
  9
$TDUCREATE
 40
2458532.153996898
  9
$TDUPDATE
 40
2461248.691921296
  9
$TDUUPDATE
 40
2458532.1544311
  9
$TDINDWG
 40
0.0
  9
$TDUSRTIMER
 40
0.0
  9
$USRTIMER
 70
1
  9
$ANGBASE
 50
0.0
  9
$ANGDIR
 70
0
  9
$PDMODE
 70
0
  9
$PDSIZE
 40
0.0
  9
$PLINEWID
 40
0.0
  9
$SPLFRAME
 70
0
  9
$SPLINETYPE
 70
6
  9
$SPLINESEGS
 70
8
  9
$HANDSEED
  5
65
  9
$SURFTAB1
 70
6
  9
$SURFTAB2
 70
6
  9
$SURFTYPE
 70
6
  9
$SURFU
 70
6
  9
$SURFV
 70
6
  9
$UCSBASE
  2

  9
$UCSNAME
  2

  9
$UCSORG
 10
0.0
 20
0.0
 30
0.0
  9
$UCSXDIR
 10
1.0
 20
0.0
 30
0.0
  9
$UCSYDIR
 10
0.0
 20
1.0
 30
0.0
  9
$UCSORTHOREF
  2

  9
$UCSORTHOVIEW
 70
0
  9
$UCSORGTOP
 10
0.0
 20
0.0
 30
0.0
  9
$UCSORGBOTTOM
 10
0.0
 20
0.0
 30
0.0
  9
$UCSORGLEFT
 10
0.0
 20
0.0
 30
0.0
  9
$UCSORGRIGHT
 10
0.0
 20
0.0
 30
0.0
  9
$UCSORGFRONT
 10
0.0
 20
0.0
 30
0.0
  9
$UCSORGBACK
 10
0.0
 20
0.0
 30
0.0
  9
$PUCSBASE
  2

  9
$PUCSNAME
  2

  9
$PUCSORG
 10
0.0
 20
0.0
 30
0.0
  9
$PUCSXDIR
 10
1.0
 20
0.0
 30
0.0
  9
$PUCSYDIR
 10
0.0
 20
1.0
 30
0.0
  9
$PUCSORTHOREF
  2

  9
$PUCSORTHOVIEW
 70
0
  9
$PUCSORGTOP
 10
0.0
 20
0.0
 30
0.0
  9
$PUCSORGBOTTOM
 10
0.0
 20
0.0
 30
0.0
  9
$PUCSORGLEFT
 10
0.0
 20
0.0
 30
0.0
  9
$PUCSORGRIGHT
 10
0.0
 20
0.0
 30
0.0
  9
$PUCSORGFRONT
 10
0.0
 20
0.0
 30
0.0
  9
$PUCSORGBACK
 10
0.0
 20
0.0
 30
0.0
  9
$USERI1
 70
0
  9
$USERI2
 70
0
  9
$USERI3
 70
0
  9
$USERI4
 70
0
  9
$USERI5
 70
0
  9
$USERR1
 40
0.0
  9
$USERR2
 40
0.0
  9
$USERR3
 40
0.0
  9
$USERR4
 40
0.0
  9
$USERR5
 40
0.0
  9
$WORLDVIEW
 70
1
  9
$SHADEDGE
 70
3
  9
$SHADEDIF
 70
70
  9
$TILEMODE
 70
1
  9
$MAXACTVP
 70
64
  9
$PINSBASE
 10
0.0
 20
0.0
 30
0.0
  9
$PLIMCHECK
 70
0
  9
$PEXTMIN
 10
1e+20
 20
1e+20
 30
1e+20
  9
$PEXTMAX
 10
-1e+20
 20
-1e+20
 30
-1e+20
  9
$PLIMMIN
 10
0.0
 20
0.0
  9
$PLIMMAX
 10
420.0
 20
297.0
  9
$UNITMODE
 70
0
  9
$VISRETAIN
 70
1
  9
$PLINEGEN
 70
0
  9
$PSLTSCALE
 70
1
  9
$TREEDEPTH
 70
3020
  9
$CMLSTYLE
  2
Standard
  9
$CMLJUST
 70
0
  9
$CMLSCALE
 40
20.0
  9
$PROXYGRAPHICS
 70
1
  9
$MEASUREMENT
 70
1
  9
$CELWEIGHT
370
-1
  9
$ENDCAPS
280
0
  9
$JOINSTYLE
280
0
  9
$LWDISPLAY
290
0
  9
$INSUNITS
 70
4
  9
$HYPERLINKBASE
  1

  9
$STYLESHEET
  1

  9
$XEDIT
290
1
  9
$CEPSNTYPE
380
0
  9
$PSTYLEMODE
290
1
  9
$FINGERPRINTGUID
  2
{406EF684-44AE-490E-8F65-FCF7DD381741}
  9
$VERSIONGUID
  2
{CE332B33-F162-41F7-9B25-69F0C64AC528}
  9
$EXTNAMES
290
1
  9
$PSVPSCALE
 40
0.0
  9
$OLESTARTUP
290
0
  9
$SORTENTS
280
127
  9
$INDEXCTL
280
0
  9
$HIDETEXT
280
1
  9
$XCLIPFRAME
280
1
  9
$HALOGAP
280
0
  9
$OBSCOLOR
 70
257
  9
$OBSLTYPE
280
0
  9
$INTERSECTIONDISPLAY
280
0
  9
$INTERSECTIONCOLOR
 70
257
  9
$DIMASSOC
280
2
  9
$PROJECTNAME
  1

  9
$CAMERADISPLAY
290
0
  9
$LENSLENGTH
 40
50.0
  9
$CAMERAHEIGHT
 40
0.0
  9
$STEPSPERSEC
 40
24.0
  9
$STEPSIZE
 40
100.0
  9
$3DDWFPREC
 40
2.0
  9
$PSOLWIDTH
 40
0.005
  9
$PSOLHEIGHT
 40
0.08
  9
$LOFTANG1
 40
1.570796326795
  9
$LOFTANG2
 40
1.570796326795
  9
$LOFTMAG1
 40
0.0
  9
$LOFTMAG2
 40
0.0
  9
$LOFTPARAM
 70
7
  9
$LOFTNORMALS
280
1
  9
$LATITUDE
 40
37.795
  9
$LONGITUDE
 40
-122.394
  9
$NORTHDIRECTION
 40
0.0
  9
$TIMEZONE
 70
-8000
  9
$LIGHTGLYPHDISPLAY
280
1
  9
$TILEMODELIGHTSYNCH
280
1
  9
$CMATERIAL
347
20
  9
$SOLIDHIST
280
0
  9
$SHOWHIST
280
1
  9
$DWFFRAME
280
2
  9
$DGNFRAME
280
2
  9
$REALWORLDSCALE
290
1
  9
$INTERFERECOLOR
 62
256
  9
$CSHADOW
280
0
  9
$SHADOWPLANELOCATION
 40
0.0
  0
ENDSEC
  0
SECTION
  2
CLASSES
  0
CLASS
  1
ACDBDICTIONARYWDFLT
  2
AcDbDictionaryWithDefault
  3
ObjectDBX Classes
 90
0
 91
0
280
0
281
0
  0
CLASS
  1
SUN
  2
AcDbSun
  3
SCENEOE
 90
1153
 91
0
280
0
281
0
  0
CLASS
  1
VISUALSTYLE
  2
AcDbVisualStyle
  3
ObjectDBX Classes
 90
4095
 91
0
280
0
281
0
  0
CLASS
  1
MATERIAL
  2
AcDbMaterial
  3
ObjectDBX Classes
 90
1153
 91
0
280
0
281
0
  0
CLASS
  1
SCALE
  2
AcDbScale
  3
ObjectDBX Classes
 90
1153
 91
0
280
0
281
0
  0
CLASS
  1
TABLESTYLE
  2
AcDbTableStyle
  3
ObjectDBX Classes
 90
4095
 91
0
280
0
281
0
  0
CLASS
  1
MLEADERSTYLE
  2
AcDbMLeaderStyle
  3
ACDB_MLEADERSTYLE_CLASS
 90
4095
 91
0
280
0
281
0
  0
CLASS
  1
DICTIONARYVAR
  2
AcDbDictionaryVar
  3
ObjectDBX Classes
 90
0
 91
0
280
0
281
0
  0
CLASS
  1
CELLSTYLEMAP
  2
AcDbCellStyleMap
  3
ObjectDBX Classes
 90
1152
 91
0
280
0
281
0
  0
CLASS
  1
MENTALRAYRENDERSETTINGS
  2
AcDbMentalRayRenderSettings
  3
SCENEOE
 90
1024
 91
0
280
0
281
0
  0
CLASS
  1
ACDBDETAILVIEWSTYLE
  2
AcDbDetailViewStyle
  3
ObjectDBX Classes
 90
1025
 91
0
280
0
281
0
  0
CLASS
  1
ACDBSECTIONVIEWSTYLE
  2
AcDbSectionViewStyle
  3
ObjectDBX Classes
 90
1025
 91
0
280
0
281
0
  0
CLASS
  1
RASTERVARIABLES
  2
AcDbRasterVariables
  3
ISM
 90
0
 91
0
280
0
281
0
  0
CLASS
  1
ACDBPLACEHOLDER
  2
AcDbPlaceHolder
  3
ObjectDBX Classes
 90
0
 91
0
280
0
281
0
  0
CLASS
  1
LAYOUT
  2
AcDbLayout
  3
ObjectDBX Classes
 90
0
 91
0
280
0
281
0
  0
ENDSEC
  0
SECTION
  2
TABLES
  0
TABLE
  2
VPORT
  5
8
330
0
100
AcDbSymbolTable
 70
1
  0
VPORT
  5
23
330
8
100
AcDbSymbolTableRecord
100
AcDbViewportTableRecord
  2
*Active
 70
0
 10
0.0
 20
0.0
 11
1.0
 21
1.0
 12
0.0
 22
0.0
 13
0.0
 23
0.0
 14
0.5
 24
0.5
 15
0.5
 25
0.5
 16
0.0
 26
0.0
 36
1.0
 17
0.0
 27
0.0
 37
0.0
 40
1000.0
 41
1.34
 42
50.0
 43
0.0
 44
0.0
 50
0.0
 51
0.0
 71
0
 72
1000
 73
1
 74
3
 75
0
 76
0
 77
0
 78
0
281
0
 65
0
146
0.0
  0
ENDTAB
  0
TABLE
  2
LTYPE
  5
2
330
0
100
AcDbSymbolTable
 70
3
  0
LTYPE
  5
24
330
2
100
AcDbSymbolTableRecord
100
AcDbLinetypeTableRecord
  2
ByBlock
 70
0
  3

 72
65
 73
0
 40
0.0
  0
LTYPE
  5
25
330
2
100
AcDbSymbolTableRecord
100
AcDbLinetypeTableRecord
  2
ByLayer
 70
0
  3

 72
65
 73
0
 40
0.0
  0
LTYPE
  5
26
330
2
100
AcDbSymbolTableRecord
100
AcDbLinetypeTableRecord
  2
Continuous
 70
0
  3

 72
65
 73
0
 40
0.0
  0
ENDTAB
  0
TABLE
  2
LAYER
  5
1
330
0
100
AcDbSymbolTable
 70
3
  0
LAYER
  5
27
330
1
100
AcDbSymbolTableRecord
100
AcDbLayerTableRecord
  2
0
 70
0
 62
7
  6
Continuous
370
-3
390
13
347
21
  0
LAYER
  5
28
330
1
100
AcDbSymbolTableRecord
100
AcDbLayerTableRecord
  2
Defpoints
 70
0
 62
7
  6
Continuous
290
0
370
-3
390
13
347
21
  0
LAYER
  5
2F
330
1
100
AcDbSymbolTableRecord
100
AcDbLayerTableRecord
  2
K
 70
0
 62
7
  6
Continuous
370
-3
390
13
347
21
  0
ENDTAB
  0
TABLE
  2
STYLE
  5
5
330
0
100
AcDbSymbolTable
 70
1
  0
STYLE
  5
29
330
5
100
AcDbSymbolTableRecord
100
AcDbTextStyleTableRecord
  2
Standard
 70
0
 40
0.0
 41
1.0
 50
0.0
 71
0
 42
2.5
  3
txt
  4

  0
ENDTAB
  0
TABLE
  2
VIEW
  5
7
330
0
100
AcDbSymbolTable
 70
0
  0
ENDTAB
  0
TABLE
  2
UCS
  5
6
330
0
100
AcDbSymbolTable
 70
0
  0
ENDTAB
  0
TABLE
  2
APPID
  5
3
330
0
100
AcDbSymbolTable
 70
3
  0
APPID
  5
2A
330
3
100
AcDbSymbolTableRecord
100
AcDbRegAppTableRecord
  2
ACAD
 70
0
  0
APPID
  5
62
330
3
100
AcDbSymbolTableRecord
100
AcDbRegAppTableRecord
  2
HATCHBACKGROUNDCOLOR
 70
0
  0
APPID
  5
63
330
3
100
AcDbSymbolTableRecord
100
AcDbRegAppTableRecord
  2
EZDXF
 70
0
  0
ENDTAB
  0
TABLE
  2
DIMSTYLE
  5
4
330
0
100
AcDbSymbolTable
 70
1
100
AcDbDimStyleTable
  0
DIMSTYLE
105
2B
330
4
100
AcDbSymbolTableRecord
100
AcDbDimStyleTableRecord
  2
Standard
 70
0
 40
1.0
 41
2.5
 42
0.625
 43
3.75
 44
1.25
 45
0.0
 46
0.0
 47
0.0
 48
0.0
 49
2.5
140
2.5
141
2.5
142
0.0
143
0.03937007874
144
1.0
145
0.0
146
1.0
147
0.625
148
0.0
 69
0
 70
0
 71
0
 72
0
 73
0
 74
0
 75
0
 76
0
 77
1
 78
8
 79
3
170
0
171
3
172
1
173
0
174
0
175
0
176
0
177
0
178
0
179
2
271
2
272
2
273
2
274
3
275
0
276
0
277
2
278
44
279
0
280
0
281
0
282
0
283
0
284
8
285
0
286
0
288
0
289
3
290
0
371
-2
372
-2
  0
ENDTAB
  0
TABLE
  2
BLOCK_RECORD
  5
9
330
0
100
AcDbSymbolTable
 70
2
  0
BLOCK_RECORD
  5
17
330
9
100
AcDbSymbolTableRecord
100
AcDbBlockTableRecord
  2
*Model_Space
340
1A
 70
0
280
1
281
0
  0
BLOCK_RECORD
  5
1B
330
9
100
AcDbSymbolTableRecord
100
AcDbBlockTableRecord
  2
*Paper_Space
340
1E
 70
0
280
1
281
0
  0
ENDTAB
  0
ENDSEC
  0
SECTION
  2
BLOCKS
  0
BLOCK
  5
18
330
17
100
AcDbEntity
  8
0
100
AcDbBlockBegin
  2
*Model_Space
 70
0
 10
0.0
 20
0.0
 30
0.0
  3
*Model_Space
  1

  0
ENDBLK
  5
19
330
17
100
AcDbEntity
  8
0
100
AcDbBlockEnd
  0
BLOCK
  5
1C
330
1B
100
AcDbEntity
  8
0
100
AcDbBlockBegin
  2
*Paper_Space
 70
0
 10
0.0
 20
0.0
 30
0.0
  3
*Paper_Space
  1

  0
ENDBLK
  5
1D
330
1B
100
AcDbEntity
  8
0
100
AcDbBlockEnd
  0
ENDSEC
  0
SECTION
  2
ENTITIES
  0
LWPOLYLINE
  5
30
330
17
100
AcDbEntity
  8
K
100
AcDbPolyline
 90
43
 70
1
 10
68.67023957601704
 20
22.14450739309848
 10
55.053101880000455
 20
25.72796468152394
 10
53.643257086795956
 20
27.137809474728215
 10
46.500399943938845
 20
25.709238046156656
 10
45.06111954203518
 20
27.148518448060656
 10
17.91826239917804
 20
28.577089876631987
 10
16.491846059339508
 20
30.00350621647041
 10
13.717545914671225
 20
30.00350621647041
 10
12.247553129862476
 20
28.53351343166166
 10
10.777560345053727
 20
30.00350621647041
 10
7.920417487911058
 20
30.00350621647041
 10
2.8618388441481457
 20
35.0620848602331
 10
2.8618388441481457
 20
37.91922771737599
 10
1.4377527708795412
 20
39.343313790644594
 10
0.0
 20
52.28308872855958
 10
1.433267415576811
 20
53.71635614413639
 10
1.433267415576811
 20
56.573499001279174
 10
6.483966208119973
 20
61.62419779382245
 10
13.63711458934036
 20
63.05482747006652
 10
17.91935722839333
 20
65.90965589610165
 10
37.90945114320166
 20
71.62111130033266
 10
39.3489889164822
 20
73.06064907361332
 10
42.20613177362509
 20
73.06064907361332
 10
46.491846059339316
 20
77.34636335932754
 10
49.348988916482206
 20
77.34636335932754
 10
50.78225633205879
 20
78.77963077490413
 10
63.70065961669202
 20
77.34425263216704
 10
70.79489737265199
 20
74.50655752978308
 10
72.20613177362534
 20
75.9177919307561
 10
82.28897448609973
 20
75.9177919307561
 10
83.71754591467129
 20
74.48922050218476
 10
86.57468877181395
 20
74.48922050218476
 10
91.63326741557687
 20
69.43064185842206
 10
91.63326741557687
 20
66.57349900127917
 10
93.08351489547739
 20
65.12325152137855
 10
90.20469598700531
 20
59.36561370443461
 10
90.20469598700531
 20
56.490656288804566
 10
87.33784953197055
 20
53.62380983376991
 10
84.48476215512545
 20
42.211460326389
 10
78.77612455843396
 20
30.794185133006025
 10
78.77612455843396
 20
27.919227717375982
 10
73.72326501051285
 20
22.866368169454976
 10
68.67023957601704
 20
22.14450739309848
  0
LWPOLYLINE
  5
31
330
17
100
AcDbEntity
  8
K
100
AcDbPolyline
 90
43
 70
1
 10
68.67023957601704
 20
22.14450739309848
 10
55.053101880000455
 20
25.72796468152394
 10
53.643257086795956
 20
27.137809474728215
 10
46.500399943938845
 20
25.709238046156656
 10
45.06111954203518
 20
27.148518448060656
 10
17.91826239917804
 20
28.577089876631987
 10
16.491846059339508
 20
30.00350621647041
 10
13.717545914671225
 20
30.00350621647041
 10
12.247553129862476
 20
28.53351343166166
 10
10.777560345053727
 20
30.00350621647041
 10
7.920417487911058
 20
30.00350621647041
 10
2.8618388441481457
 20
35.0620848602331
 10
2.8618388441481457
 20
37.91922771737599
 10
1.4377527708795412
 20
39.343313790644594
 10
0.0
 20
52.28308872855958
 10
1.433267415576811
 20
53.71635614413639
 10
1.433267415576811
 20
56.573499001279174
 10
6.483966208119973
 20
61.62419779382245
 10
13.63711458934036
 20
63.05482747006652
 10
17.91935722839333
 20
65.90965589610165
 10
37.90945114320166
 20
71.62111130033266
 10
39.3489889164822
 20
73.06064907361332
 10
42.20613177362509
 20
73.06064907361332
 10
46.491846059339316
 20
77.34636335932754
 10
49.348988916482206
 20
77.34636335932754
 10
50.78225633205879
 20
78.77963077490413
 10
63.70065961669202
 20
77.34425263216704
 10
70.79489737265199
 20
74.50655752978308
 10
72.20613177362534
 20
75.9177919307561
 10
82.28897448609973
 20
75.9177919307561
 10
83.71754591467129
 20
74.48922050218476
 10
86.57468877181395
 20
74.48922050218476
 10
91.63326741557687
 20
69.43064185842206
 10
91.63326741557687
 20
66.57349900127917
 10
93.08351489547739
 20
65.12325152137855
 10
90.20469598700531
 20
59.36561370443461
 10
90.20469598700531
 20
56.490656288804566
 10
87.33784953197055
 20
53.62380983376991
 10
84.48476215512545
 20
42.211460326389
 10
78.77612455843396
 20
30.794185133006025
 10
78.77612455843396
 20
27.919227717375982
 10
73.72326501051285
 20
22.866368169454976
 10
68.67023957601704
 20
22.14450739309848
  0
LWPOLYLINE
  5
32
330
17
100
AcDbEntity
  8
K
100
AcDbPolyline
 90
56
 70
1
 10
894.2844240460006
 20
113.66330044358652
 10
895.7286852991826
 20
119.44034545631355
 10
900.7673875942859
 20
124.47904775141694
 10
927.910244737143
 20
131.62190489427417
 10
932.8618388441477
 20
136.5734990012788
 10
932.8618388441477
 20
139.4306418584217
 10
934.27182613479
 20
140.8406291490638
 10
929.9861118490755
 20
150.8406291490636
 10
931.4332674155763
 20
152.28778471556458
 10
931.4332674155763
 20
155.14492757270747
 10
937.9089555710796
 20
161.6206157282105
 10
952.1973311708927
 20
165.9071284081546
 10
966.4948938150533
 20
178.77493478789907
 10
969.3489889164823
 20
178.77493478789907
 10
970.7775603450533
 20
180.2035062164704
 10
978.0032602003847
 20
180.2035062164704
 10
979.4318316289565
 20
178.77493478789907
 10
982.2889744860992
 20
178.77493478789907
 10
988.7761245584342
 20
172.2877847155646
 10
988.7761245584342
 20
169.43064185842172
 10
990.2461173432424
 20
167.9606490736134
 10
988.7761245584342
 20
166.49065628880487
 10
988.7761245584342
 20
163.630028181468
 10
975.908504401476
 20
152.19214359750532
 10
974.5011566564797
 20
146.56275261751907
 10
975.9189817012912
 20
145.14492757270747
 10
975.9189817012912
 20
142.28778471556458
 10
980.8604030575278
 20
137.3463633593277
 10
983.7175459146714
 20
137.3463633593277
 10
988.7761245584342
 20
132.28778471556467
 10
988.7761245584342
 20
129.43064185842178
 10
990.2046959870055
 20
128.00207042985045
 10
990.2046959870055
 20
110.77637057451906
 10
988.7761245584342
 20
109.3477991459476
 10
988.7761245584342
 20
106.49065628880483
 10
983.7175459146714
 20
101.43207764504191
 10
980.8604030575283
 20
101.43207764504191
 10
979.431831628957
 20
100.00350621647047
 10
965.1461173432427
 20
100.00350621647047
 10
963.6761245584336
 20
98.53351343166172
 10
962.2061317736247
 20
100.00350621647047
 10
955.0632746307676
 20
100.00350621647047
 10
953.6347032021963
 20
101.43207764504191
 10
950.7775603450536
 20
101.43207764504191
 10
942.2061317736247
 20
110.00350621647048
 10
939.3489889164821
 20
110.00350621647048
 10
937.9618388441481
 20
111.39065628880462
 10
936.5746887718143
 20
110.00350621647048
 10
933.7127553435785
 20
110.00350621647048
 10
915.1413267721498
 20
94.2892205021848
 10
912.2889744860998
 20
94.2892205021848
 10
910.8518491729287
 20
92.85209518901394
 10
903.626823350977
 20
94.29710035340433
 10
898.5827535790747
 20
99.34117012530619
 10
897.151385766042
 20
107.92937700350369
 10
894.2844240460006
 20
113.66330044358652
  0
LWPOLYLINE
  5
33
330
17
100
AcDbEntity
  8
K
100
AcDbPolyline
 90
21
 70
1
 10
962.8618388441479
 20
130.85921328699322
 10
962.8618388441479
 20
133.7163561441361
 10
964.2489889164823
 20
135.1035062164705
 10
962.8618388441479
 20
136.49065628880476
 10
962.8618388441479
 20
139.34779914594776
 10
957.9204174879108
 20
144.28922050218483
 10
955.0632746307681
 20
144.28922050218483
 10
953.6761245584338
 20
145.67637057451898
 10
952.2889744860994
 20
144.28922050218483
 10
949.4318316289567
 20
144.28922050218483
 10
943.0618388441483
 20
137.9192277173764
 10
943.0618388441483
 20
135.0620848602334
 10
941.674688771814
 20
133.67493478789905
 10
943.0618388441483
 20
132.28778471556467
 10
943.0618388441483
 20
129.43064185842178
 10
948.0032602003854
 20
124.4892205021847
 10
950.8604030575285
 20
124.4892205021847
 10
952.2475531298625
 20
123.10207042985056
 10
953.6347032021963
 20
124.4892205021847
 10
956.491846059339
 20
124.4892205021847
 10
962.8618388441479
 20
130.85921328699322
  0
LWPOLYLINE
  5
34
330
17
100
AcDbEntity
  8
K
100
AcDbPolyline
 90
42
 70
1
 10
908.5761245584337
 20
200.77637057451915
 10
907.1475531298623
 20
202.2049420030907
 10
907.1475531298623
 20
223.63351343166204
 10
905.718981701291
 20
225.06208486023337
 10
905.718981701291
 20
235.0620848602336
 10
904.2904102727192
 20
236.49065628880496
 10
904.2904102727192
 20
239.35222809456326
 10
895.7189817012908
 20
249.35222809456326
 10
895.7189817012908
 20
252.2049420030905
 10
894.2489889164824
 20
253.67493478789905
 10
895.7189817012908
 20
255.14492757270756
 10
895.7189817012908
 20
258.0020704298502
 10
900.7775603450534
 20
263.0606490736134
 10
903.6347032021965
 20
263.0606490736134
 10
905.1046959870052
 20
264.5306418584219
 10
906.5746887718141
 20
263.0606490736134
 10
910.7953749035411
 20
263.0606490736134
 10
916.5096606178265
 20
265.91779193075627
 10
919.3570769393859
 20
265.91779193075627
 10
925.0542859028214
 20
270.1906986533327
 10
935.0841702168095
 20
274.4892205021847
 10
945.1252217572008
 20
274.4892205021847
 10
955.1252217572006
 20
270.2035062164705
 10
979.431831628957
 20
270.2035062164705
 10
980.8604030575283
 20
268.7749347878989
 10
983.7175459146714
 20
268.7749347878989
 10
988.7761245584342
 20
263.716356144136
 10
988.7761245584342
 20
260.8592132869931
 10
990.2107620041829
 20
259.4245758412441
 10
988.7701330558507
 20
249.3401732029159
 10
967.3475531298627
 20
229.3457652719939
 10
967.3475531298627
 20
227.9192277173765
 10
960.1920991918955
 20
220.76377377940904
 10
958.7635277633237
 20
216.47805949369481
 10
950.1812588597643
 20
207.8957905901353
 10
943.0384017169071
 20
197.89579059013508
 10
935.9189817012912
 20
190.77637057451912
 10
935.9189817012912
 20
189.3477991459478
 10
930.8604030575281
 20
184.2892205021849
 10
922.2061317736252
 20
184.2892205021849
 10
908.5761245584337
 20
197.91922771737626
 10
908.5761245584337
 20
200.77637057451915
  0
LWPOLYLINE
  5
35
330
17
100
AcDbEntity
  8
K
100
AcDbPolyline
 90
69
 70
1
 10
825.7189817012909
 20
206.49065628880493
 10
824.2796638889594
 20
207.92997410113622
 10
825.7286852991828
 20
213.72605974202764
 10
828.5761245584335
 20
216.57349900127886
 10
828.5761245584335
 20
219.43064185842175
 10
829.996142102406
 20
220.850659402394
 10
828.5840044096535
 20
227.91134786615652
 10
819.3489889164824
 20
237.1463633593276
 10
816.4918460593398
 20
237.1463633593276
 10
815.104695987005
 20
238.53351343166196
 10
813.7175459146711
 20
237.1463633593276
 10
810.860403057528
 20
237.1463633593276
 10
805.1461173432422
 20
231.43207764504203
 10
802.2889744860995
 20
231.43207764504203
 10
800.8604030575277
 20
230.00350621647047
 10
797.9204174879106
 20
230.00350621647047
 10
796.5332674155767
 20
231.39065628880485
 10
795.1046959870054
 20
229.9620848602333
 10
793.6347032021966
 20
231.43207764504203
 10
790.7775603450535
 20
231.43207764504203
 10
787.9204174879109
 20
234.2892205021847
 10
785.0632746307678
 20
234.2892205021847
 10
780.0240819287774
 20
239.32841320417552
 10
772.8377910016279
 20
252.26373687304448
 10
774.2904102727193
 20
253.716356144136
 10
774.2904102727193
 20
256.5734990012789
 10
779.3392853185906
 20
261.62237404714995
 10
785.116330331318
 20
263.06663530033194
 10
787.9420935392403
 20
261.65375369637076
 10
789.3489889164822
 20
263.0606490736134
 10
792.2061317736253
 20
263.0606490736134
 10
803.6347032021969
 20
274.4892205021847
 10
806.4918460593395
 20
274.4892205021847
 10
807.9618388441479
 20
275.95921328699325
 10
809.4318316289566
 20
274.4892205021847
 10
812.2889744860997
 20
274.4892205021847
 10
820.8604030575277
 20
265.91779193075627
 10
823.7175459146713
 20
265.91779193075627
 10
825.133800265309
 20
264.5015375801183
 10
835.0579108746963
 20
267.33699775422906
 10
842.202126140575
 20
273.0523699669321
 10
847.9925138166251
 20
274.49996688594445
 10
849.4318316289566
 20
273.0606490736134
 10
852.2889744860997
 20
273.0606490736134
 10
855.1461173432424
 20
270.2035062164705
 10
858.0032602003855
 20
270.2035062164705
 10
864.4904102727196
 20
263.716356144136
 10
864.4904102727196
 20
260.8592132869931
 10
865.9406577526203
 20
259.40896580709284
 10
860.2046959870056
 20
247.93704227586355
 10
860.2046959870056
 20
242.26562159968435
 10
863.0618388441483
 20
235.1227644568272
 10
863.0618388441483
 20
230.8592132869931
 10
864.4904102727196
 20
229.43064185842178
 10
864.4904102727196
 20
225.14492757270733
 10
865.9189817012914
 20
223.716356144136
 10
865.9189817012914
 20
219.43064185842175
 10
867.3475531298627
 20
218.0020704298502
 10
867.3475531298627
 20
213.71635614413597
 10
868.7846784430328
 20
212.27923083096556
 10
867.3396732786427
 20
205.0542050090134
 10
862.2968543373186
 20
200.01138606768998
 10
855.1539971944615
 20
198.58281463911865
 10
853.7175459146711
 20
197.14636335932755
 10
843.7175459146708
 20
197.14636335932755
 10
842.2829084689216
 20
195.7117259135781
 10
832.2004126777836
 20
197.15208245516914
 10
825.7189817012909
 20
203.63351343166204
 10
825.7189817012909
 20
206.49065628880493
  0
LWPOLYLINE
  5
36
330
17
100
AcDbEntity
  8
K
100
AcDbPolyline
 90
37
 70
1
 10
706.4839662081199
 20
204.2971003534042
 10
699.341109065263
 20
205.72567178197554
 10
697.94209353924
 20
207.12468730799839
 10
692.2278078249544
 20
204.26754445085572
 10
690.7775603450536
 20
205.71779193075622
 10
687.920417487911
 20
205.71779193075622
 10
683.6268233509772
 20
210.01138606768998
 10
676.4839662081199
 20
211.43995749626154
 10
671.4332674155768
 20
216.4906562888047
 10
671.4332674155768
 20
219.3477991459476
 10
670.0046959870052
 20
220.77637057451892
 10
670.0046959870052
 20
226.5734990012791
 10
671.4115913642476
 20
227.98039437852145
 10
669.983019935676
 20
230.83753723566414
 10
671.4332674155768
 20
232.2877847155649
 10
671.4332674155768
 20
235.1449275727078
 10
676.4839662081201
 20
240.19562636525114
 10
683.7089920300714
 20
241.64063152964133
 10
685.1244412919133
 20
240.22518226779965
 10
690.8387270061988
 20
243.08232512494254
 10
692.2889744860996
 20
241.6320776450418
 10
695.1500728096645
 20
241.6320776450418
 10
705.1670050512604
 20
230.184155083218
 10
707.9945822061588
 20
228.77036650576878
 10
715.1539971944618
 20
227.33848350810825
 10
716.5639423880541
 20
225.92853831451598
 10
722.2782281023399
 20
227.3571097430873
 10
723.717545914671
 20
225.91779193075624
 10
726.5746887718138
 20
225.91779193075624
 10
731.6332674155768
 20
220.8592132869933
 10
731.6332674155768
 20
218.00207042985042
 10
733.0725852279079
 20
216.56275261751935
 10
731.623563817685
 20
210.76666697662705
 10
722.3037498966867
 20
201.44685305562882
 10
715.107824224465
 20
198.56848278674022
 10
710.7649635499433
 20
200.01610301158058
 10
706.4839662081199
 20
204.2971003534042
  0
LWPOLYLINE
  5
37
330
17
100
AcDbEntity
  8
K
100
AcDbPolyline
 90
18
 70
1
 10
652.8204174879106
 20
113.67493478789903
 10
654.2904102727197
 20
115.14492757270777
 10
654.2904102727197
 20
118.00207042985068
 10
659.3342135058953
 20
123.04587366302633
 10
666.5573517442156
 20
125.93512895835445
 10
668.0032602003854
 20
124.4892205021847
 10
670.8604030575281
 20
124.4892205021847
 10
675.9042062907037
 20
119.44541726900914
 10
678.7934615860321
 20
112.22227903068848
 10
677.3475531298623
 20
110.77637057451884
 10
677.3475531298623
 20
107.91922771737606
 10
672.2889744860998
 20
102.86064907361325
 10
669.4318316289567
 20
102.86064907361325
 10
667.9947063157861
 20
101.4235237604425
 10
660.7696804938344
 20
102.86852892483267
 10
654.2904102727197
 20
109.34779914594739
 10
654.2904102727197
 20
112.20494200309028
 10
652.8204174879106
 20
113.67493478789903
  0
LWPOLYLINE
  5
38
330
17
100
AcDbEntity
  8
K
100
AcDbPolyline
 90
56
 70
1
 10
897.151385766042
 20
107.92937700350369
 10
894.2844240460006
 20
113.66330044358652
 10
895.7286852991826
 20
119.44034545631355
 10
900.7673875942859
 20
124.47904775141694
 10
927.910244737143
 20
131.62190489427417
 10
932.8618388441477
 20
136.5734990012788
 10
932.8618388441477
 20
139.4306418584217
 10
934.27182613479
 20
140.8406291490638
 10
929.9861118490755
 20
150.8406291490636
 10
931.4332674155763
 20
152.28778471556458
 10
931.4332674155763
 20
155.14492757270747
 10
937.9089555710796
 20
161.6206157282105
 10
952.1973311708927
 20
165.9071284081546
 10
966.4948938150533
 20
178.77493478789907
 10
969.3489889164823
 20
178.77493478789907
 10
970.7775603450533
 20
180.2035062164704
 10
978.0032602003847
 20
180.2035062164704
 10
979.4318316289565
 20
178.77493478789907
 10
982.2889744860992
 20
178.77493478789907
 10
988.7761245584342
 20
172.2877847155646
 10
988.7761245584342
 20
169.43064185842172
 10
990.2461173432424
 20
167.9606490736134
 10
988.7761245584342
 20
166.49065628880487
 10
988.7761245584342
 20
163.630028181468
 10
975.908504401476
 20
152.19214359750532
 10
974.5011566564797
 20
146.56275261751907
 10
975.9189817012912
 20
145.14492757270747
 10
975.9189817012912
 20
142.28778471556458
 10
980.8604030575278
 20
137.3463633593277
 10
983.7175459146714
 20
137.3463633593277
 10
988.7761245584342
 20
132.28778471556467
 10
988.7761245584342
 20
129.43064185842178
 10
990.2046959870055
 20
128.00207042985045
 10
990.2046959870055
 20
110.77637057451906
 10
988.7761245584342
 20
109.3477991459476
 10
988.7761245584342
 20
106.49065628880483
 10
983.7175459146714
 20
101.43207764504191
 10
980.8604030575283
 20
101.43207764504191
 10
979.431831628957
 20
100.00350621647047
 10
965.1461173432427
 20
100.00350621647047
 10
963.6761245584336
 20
98.53351343166172
 10
962.2061317736247
 20
100.00350621647047
 10
955.0632746307676
 20
100.00350621647047
 10
953.6347032021963
 20
101.43207764504191
 10
950.7775603450536
 20
101.43207764504191
 10
942.2061317736247
 20
110.00350621647048
 10
939.3489889164821
 20
110.00350621647048
 10
937.9618388441481
 20
111.39065628880462
 10
936.5746887718143
 20
110.00350621647048
 10
933.7127553435785
 20
110.00350621647048
 10
915.1413267721498
 20
94.2892205021848
 10
912.2889744860998
 20
94.2892205021848
 10
910.8518491729287
 20
92.85209518901394
 10
903.626823350977
 20
94.29710035340433
 10
898.5827535790747
 20
99.34117012530619
 10
897.151385766042
 20
107.92937700350369
  0
LWPOLYLINE
  5
39
330
17
100
AcDbEntity
  8
K
100
AcDbPolyline
 90
21
 70
1
 10
956.491846059339
 20
124.4892205021847
 10
962.8618388441479
 20
130.85921328699322
 10
962.8618388441479
 20
133.7163561441361
 10
964.2489889164823
 20
135.1035062164705
 10
962.8618388441479
 20
136.49065628880476
 10
962.8618388441479
 20
139.34779914594776
 10
957.9204174879108
 20
144.28922050218483
 10
955.0632746307681
 20
144.28922050218483
 10
953.6761245584338
 20
145.67637057451898
 10
952.2889744860994
 20
144.28922050218483
 10
949.4318316289567
 20
144.28922050218483
 10
943.0618388441483
 20
137.9192277173764
 10
943.0618388441483
 20
135.0620848602334
 10
941.674688771814
 20
133.67493478789905
 10
943.0618388441483
 20
132.28778471556467
 10
943.0618388441483
 20
129.43064185842178
 10
948.0032602003854
 20
124.4892205021847
 10
950.8604030575285
 20
124.4892205021847
 10
952.2475531298625
 20
123.10207042985056
 10
953.6347032021963
 20
124.4892205021847
 10
956.491846059339
 20
124.4892205021847
  0
LWPOLYLINE
  5
3A
330
17
100
AcDbEntity
  8
K
100
AcDbPolyline
 90
42
 70
1
 10
908.5761245584337
 20
197.91922771737626
 10
908.5761245584337
 20
200.77637057451915
 10
907.1475531298623
 20
202.2049420030907
 10
907.1475531298623
 20
223.63351343166204
 10
905.718981701291
 20
225.06208486023337
 10
905.718981701291
 20
235.0620848602336
 10
904.2904102727192
 20
236.49065628880496
 10
904.2904102727192
 20
239.35222809456326
 10
895.7189817012908
 20
249.35222809456326
 10
895.7189817012908
 20
252.2049420030905
 10
894.2489889164824
 20
253.67493478789905
 10
895.7189817012908
 20
255.14492757270756
 10
895.7189817012908
 20
258.0020704298502
 10
900.7775603450534
 20
263.0606490736134
 10
903.6347032021965
 20
263.0606490736134
 10
905.1046959870052
 20
264.5306418584219
 10
906.5746887718141
 20
263.0606490736134
 10
910.7953749035411
 20
263.0606490736134
 10
916.5096606178265
 20
265.91779193075627
 10
919.3570769393859
 20
265.91779193075627
 10
925.0542859028214
 20
270.1906986533327
 10
935.0841702168095
 20
274.4892205021847
 10
945.1252217572008
 20
274.4892205021847
 10
955.1252217572006
 20
270.2035062164705
 10
979.431831628957
 20
270.2035062164705
 10
980.8604030575283
 20
268.7749347878989
 10
983.7175459146714
 20
268.7749347878989
 10
988.7761245584342
 20
263.716356144136
 10
988.7761245584342
 20
260.8592132869931
 10
990.2107620041829
 20
259.4245758412441
 10
988.7701330558507
 20
249.3401732029159
 10
967.3475531298627
 20
229.3457652719939
 10
967.3475531298627
 20
227.9192277173765
 10
960.1920991918955
 20
220.76377377940904
 10
958.7635277633237
 20
216.47805949369481
 10
950.1812588597643
 20
207.8957905901353
 10
943.0384017169071
 20
197.89579059013508
 10
935.9189817012912
 20
190.77637057451912
 10
935.9189817012912
 20
189.3477991459478
 10
930.8604030575281
 20
184.2892205021849
 10
922.2061317736252
 20
184.2892205021849
 10
908.5761245584337
 20
197.91922771737626
  0
LWPOLYLINE
  5
3B
330
17
100
AcDbEntity
  8
K
100
AcDbPolyline
 90
37
 70
1
 10
706.4839662081199
 20
204.2971003534042
 10
699.341109065263
 20
205.72567178197554
 10
697.94209353924
 20
207.12468730799839
 10
692.2278078249544
 20
204.26754445085572
 10
690.7775603450536
 20
205.71779193075622
 10
687.920417487911
 20
205.71779193075622
 10
683.6268233509772
 20
210.01138606768998
 10
676.4839662081199
 20
211.43995749626154
 10
671.4332674155768
 20
216.4906562888047
 10
671.4332674155768
 20
219.3477991459476
 10
670.0046959870052
 20
220.77637057451892
 10
670.0046959870052
 20
226.5734990012791
 10
671.4115913642476
 20
227.98039437852145
 10
669.983019935676
 20
230.83753723566414
 10
671.4332674155768
 20
232.2877847155649
 10
671.4332674155768
 20
235.1449275727078
 10
676.4839662081201
 20
240.19562636525114
 10
683.7089920300714
 20
241.64063152964133
 10
685.1244412919133
 20
240.22518226779965
 10
690.8387270061988
 20
243.08232512494254
 10
692.2889744860996
 20
241.6320776450418
 10
695.1500728096645
 20
241.6320776450418
 10
705.1670050512604
 20
230.184155083218
 10
707.9945822061588
 20
228.77036650576878
 10
715.1539971944618
 20
227.33848350810825
 10
716.5639423880541
 20
225.92853831451598
 10
722.2782281023399
 20
227.3571097430873
 10
723.717545914671
 20
225.91779193075624
 10
726.5746887718138
 20
225.91779193075624
 10
731.6332674155768
 20
220.8592132869933
 10
731.6332674155768
 20
218.00207042985042
 10
733.0725852279079
 20
216.56275261751935
 10
731.623563817685
 20
210.76666697662705
 10
722.3037498966867
 20
201.44685305562882
 10
715.107824224465
 20
198.56848278674022
 10
710.7649635499433
 20
200.01610301158058
 10
706.4839662081199
 20
204.2971003534042
  0
LWPOLYLINE
  5
3C
330
17
100
AcDbEntity
  8
K
100
AcDbPolyline
 90
18
 70
1
 10
654.2904102727197
 20
112.20494200309028
 10
652.8204174879106
 20
113.67493478789903
 10
654.2904102727197
 20
115.14492757270777
 10
654.2904102727197
 20
118.00207042985068
 10
659.3342135058953
 20
123.04587366302633
 10
666.5573517442156
 20
125.93512895835445
 10
668.0032602003854
 20
124.4892205021847
 10
670.8604030575281
 20
124.4892205021847
 10
675.9042062907037
 20
119.44541726900914
 10
678.7934615860321
 20
112.22227903068848
 10
677.3475531298623
 20
110.77637057451884
 10
677.3475531298623
 20
107.91922771737606
 10
672.2889744860998
 20
102.86064907361325
 10
669.4318316289567
 20
102.86064907361325
 10
667.9947063157861
 20
101.4235237604425
 10
660.7696804938344
 20
102.86852892483267
 10
654.2904102727197
 20
109.34779914594739
 10
654.2904102727197
 20
112.20494200309028
  0
LWPOLYLINE
  5
3D
330
17
100
AcDbEntity
  8
K
100
AcDbPolyline
 90
42
 70
1
 10
923.6347032021965
 20
110.00350621647048
 10
917.1475531298621
 20
116.49065628880484
 10
917.1475531298621
 20
119.34779914594762
 10
915.6775603450537
 20
120.81779193075614
 10
917.1475531298621
 20
122.28778471556467
 10
917.1475531298621
 20
125.14492757270756
 10
922.1964281757329
 20
130.19380261857862
 10
927.9107138900187
 20
131.62237404715006
 10
932.8618388441477
 20
136.5734990012788
 10
932.8618388441477
 20
139.4306418584217
 10
934.27182613479
 20
140.8406291490638
 10
929.9861118490755
 20
150.8406291490636
 10
931.4332674155763
 20
152.28778471556458
 10
931.4332674155763
 20
155.14492757270747
 10
937.9089555710796
 20
161.6206157282105
 10
952.1973311708927
 20
165.9071284081546
 10
966.4948938150533
 20
178.77493478789907
 10
969.3489889164823
 20
178.77493478789907
 10
970.7775603450533
 20
180.2035062164704
 10
978.0032602003847
 20
180.2035062164704
 10
979.4318316289565
 20
178.77493478789907
 10
982.2889744860992
 20
178.77493478789907
 10
988.7761245584342
 20
172.2877847155646
 10
988.7761245584342
 20
169.43064185842172
 10
990.2461173432424
 20
167.9606490736134
 10
988.7761245584342
 20
166.49065628880487
 10
988.7761245584342
 20
163.62855489277672
 10
979.4353142683215
 20
155.7247923396048
 10
972.2830773771418
 20
154.29434496136895
 10
962.2830773771416
 20
148.58005924708317
 10
955.1374393490153
 20
147.15093164145765
 10
949.4496461874438
 20
144.3070350606721
 10
943.0618388441483
 20
137.9192277173764
 10
943.0618388441483
 20
135.0620848602334
 10
941.6518515535064
 20
133.6520975695914
 10
945.9375658392204
 20
123.65209756959139
 10
944.4904102727196
 20
122.20494200309051
 10
944.4904102727196
 20
119.34779914594762
 10
939.431831628957
 20
114.28922050218482
 10
936.5746887718143
 20
114.28922050218482
 10
932.2889744860998
 20
110.00350621647048
 10
923.6347032021965
 20
110.00350621647048
  0
LWPOLYLINE
  5
3E
330
17
100
AcDbEntity
  8
K
100
AcDbPolyline
 90
67
 70
1
 10
1596.4918460593392
 20
162.8606490736133
 10
1591.4332674155764
 20
167.91922771737643
 10
1591.4332674155764
 20
170.77637057451912
 10
1589.990283706442
 20
172.2193542836541
 10
1594.275997992156
 20
185.076497140797
 10
1592.8618388441478
 20
186.4906562888049
 10
1592.8618388441478
 20
189.3477991459478
 10
1587.157256727754
 20
195.05238126234192
 10
1584.3001138706113
 20
206.48095269091326
 10
1582.8658870434958
 20
207.91517951802874
 10
1581.435594820032
 20
222.21810175266742
 10
1578.572139177086
 20
227.94501303855853
 10
1580.0113250076463
 20
236.58012802192042
 10
1582.861838844148
 20
239.43064185842178
 10
1582.861838844148
 20
242.28778471556467
 10
1584.2818563881206
 20
243.70780225953692
 10
1582.869718695368
 20
250.7684907232992
 10
1572.191356363038
 20
261.4468530556289
 10
1557.9425806037916
 20
267.1463633593276
 10
1555.0632746307679
 20
267.1463633593276
 10
1550.004695987005
 20
272.20494200309054
 10
1550.004695987005
 20
275.06208486023365
 10
1548.5347032021969
 20
276.53207764504197
 10
1550.004695987005
 20
278.0020704298503
 10
1550.004695987005
 20
280.85921328699317
 10
1562.1982519224057
 20
293.05276922239386
 10
1569.341109065263
 20
294.4813406509652
 10
1570.7775603450543
 20
295.9177919307561
 10
1576.574688771814
 20
295.9177919307561
 10
1577.9854090701876
 20
294.5070716323825
 10
1602.2711233559016
 20
304.5070716323826
 10
1603.717545914671
 20
303.06064907361343
 10
1606.577257587211
 20
303.06064907361343
 10
1622.2915433014966
 20
285.91779193075627
 10
1625.1461173432428
 20
285.91779193075627
 10
1626.5746887718142
 20
284.4892205021847
 10
1636.5096606178267
 20
284.4892205021847
 10
1639.4101555776276
 20
285.93946798208526
 10
1640.8604030575284
 20
284.4892205021847
 10
1643.7217874467087
 20
284.4892205021847
 10
1653.0547144850184
 20
273.72045853490425
 10
1654.4825304215
 20
266.58137885249886
 10
1655.9604030575283
 20
265.1035062164704
 10
1654.49041027272
 20
263.6335134316621
 10
1654.49041027272
 20
260.7763705745192
 10
1649.439711480176
 20
255.7256717819758
 10
1635.1481661444664
 20
252.8673627148337
 10
1628.0061865204957
 20
247.15377901565705
 10
1615.154815667063
 20
244.29791882600526
 10
1610.2046959870056
 20
239.34779914594785
 10
1610.2046959870056
 20
236.49065628880496
 10
1608.8175459146712
 20
235.10350621647058
 10
1610.2046959870056
 20
233.716356144136
 10
1610.2046959870056
 20
230.8592132869931
 10
1614.49041027272
 20
226.5734990012789
 10
1614.49041027272
 20
223.716356144136
 10
1615.9189817012914
 20
222.28778471556464
 10
1615.9189817012914
 20
213.71635614413597
 10
1617.3475531298627
 20
212.28778471556464
 10
1617.3475531298627
 20
192.2656215996843
 10
1620.2220330146033
 20
185.07942188783178
 10
1618.776124558434
 20
183.633513431662
 10
1618.776124558434
 20
180.77637057451935
 10
1613.0521352462563
 20
175.0523812623419
 10
1611.623563817685
 20
169.33809554805612
 10
1605.1461173432428
 20
162.8606490736133
 10
1596.4918460593392
 20
162.8606490736133
  0
LWPOLYLINE
  5
3F
330
17
100
AcDbEntity
  8
K
100
AcDbPolyline
 90
17
 70
1
 10
1518.677628367876
 20
186.4297964928816
 10
1515.0553947795486
 20
187.15424321054707
 10
1510.004695987005
 20
192.20494200309068
 10
1510.004695987005
 20
195.06208486023357
 10
1508.5544485071048
 20
196.51233234013387
 10
1512.8796534026355
 20
205.16274213119456
 10
1517.9107138900195
 20
210.19380261857856
 10
1523.7067995309112
 20
211.64282402880175
 10
1525.1461173432428
 20
210.20350621647043
 10
1528.003260200385
 20
210.20350621647043
 10
1534.4904102727198
 20
203.71635614413597
 10
1534.4904102727198
 20
200.85921328699308
 10
1535.9604030575283
 20
199.38922050218477
 10
1534.4904102727198
 20
197.91922771737626
 10
1534.4904102727198
 20
195.06208486023357
 10
1528.012269966615
 20
188.5839445541291
 10
1518.677628367876
 20
186.4297964928816
  0
LWPOLYLINE
  5
40
330
17
100
AcDbEntity
  8
K
100
AcDbPolyline
 90
53
 70
1
 10
1240.7696804938346
 20
245.7256717819758
 10
1235.718981701291
 20
250.77637057451895
 10
1235.718981701291
 20
253.63351343166184
 10
1234.2904102727198
 20
255.0620848602334
 10
1234.2904102727198
 20
269.430641858422
 10
1235.718981701291
 20
270.85921328699334
 10
1235.718981701291
 20
273.7163561441362
 10
1240.7775603450539
 20
278.77493478789916
 10
1243.6347032021968
 20
278.77493478789916
 10
1245.0849506820973
 20
280.2251822677997
 10
1259.4044431421528
 20
273.065436037772
 10
1266.4839662081201
 20
274.4813406509654
 10
1271.433267415577
 20
279.43064185842206
 10
1271.433267415577
 20
282.28778471556495
 10
1272.8532849595485
 20
283.7078022595367
 10
1271.4247135309772
 20
290.85065940239383
 10
1272.820417487911
 20
292.2463633593275
 10
1271.4115913642477
 20
293.6551894829911
 10
1274.2786068738446
 20
299.3892205021846
 10
1271.433267415577
 20
305.0798994187203
 10
1271.433267415577
 20
319.43064185842184
 10
1272.8618388441482
 20
320.8592132869934
 10
1272.8618388441482
 20
323.7163561441363
 10
1277.905642077324
 20
328.76015937731194
 10
1285.0484992201812
 20
331.6173022344548
 10
1295.063274630768
 20
341.6320776450419
 10
1297.920417487911
 20
341.6320776450419
 10
1299.3663259440807
 20
343.0779861012114
 10
1306.5867937060111
 20
340.1897989964393
 10
1320.2046959870054
 20
328.00536011344474
 10
1320.2046959870054
 20
325.1449275727076
 10
1321.674688771814
 20
323.67493478789913
 10
1320.2046959870054
 20
322.20494200309037
 10
1320.2046959870054
 20
319.3477991459475
 10
1313.717545914671
 20
312.86064907361344
 10
1310.8567921552742
 20
312.86064907361344
 10
1298.776124558434
 20
302.2012364881661
 10
1298.776124558434
 20
299.3477991459474
 10
1297.3661372677925
 20
297.937811855306
 10
1301.6518515535067
 20
287.937811855306
 10
1300.2046959870054
 20
286.49065628880476
 10
1300.2046959870054
 20
283.636728331617
 10
1288.0158856147184
 20
270.0139402684725
 10
1282.2986780839915
 20
268.5846383857908
 10
1277.3378495319707
 20
263.62380983377
 10
1275.9085476492892
 20
257.9066023030432
 10
1262.2857595861444
 20
245.71779193075628
 10
1259.4318316289568
 20
245.71779193075628
 10
1258.0032602003855
 20
244.28922050218472
 10
1250.7775603450539
 20
244.28922050218472
 10
1249.3904102727195
 20
245.67637057451907
 10
1247.9947063157858
 20
244.28066661758518
 10
1240.7696804938346
 20
245.7256717819758
  0
LWPOLYLINE
  5
41
330
17
100
AcDbEntity
  8
K
100
AcDbPolyline
 90
26
 70
1
 10
1593.6289841063551
 20
188.5806538837409
 10
1587.157256727754
 20
195.05238126234192
 10
1584.3001138706113
 20
206.48095269091326
 10
1582.8658870434958
 20
207.91517951802874
 10
1581.435594820032
 20
222.21810175266742
 10
1578.572139177086
 20
227.94501303855853
 10
1580.0095851671701
 20
236.56968897906273
 10
1582.8841264290759
 20
240.88150087192096
 10
1587.9204174879108
 20
245.91779193075624
 10
1590.7775603450539
 20
245.91779193075624
 10
1592.2168781573853
 20
247.35710974308734
 10
1598.0129637982773
 20
245.90808833286437
 10
1607.3297385713759
 20
236.59131355976615
 10
1610.1868814285185
 20
230.87702784548037
 10
1614.49041027272
 20
226.5734990012789
 10
1614.49041027272
 20
223.716356144136
 10
1615.9189817012914
 20
222.28778471556464
 10
1615.9189817012914
 20
213.71635614413597
 10
1617.3475531298627
 20
212.28778471556464
 10
1617.3475531298627
 20
199.3477991459478
 10
1615.9189817012914
 20
197.91922771737626
 10
1615.9189817012914
 20
195.05611830371117
 10
1607.9975351819653
 20
188.5749347878991
 10
1605.1461173432424
 20
188.5749347878991
 10
1603.7114798974928
 20
187.14029734214944
 10
1593.6289841063551
 20
188.5806538837409
  0
LWPOLYLINE
  5
42
330
17
100
AcDbEntity
  8
K
100
AcDbPolyline
 90
14
 70
1
 10
1596.4918460593392
 20
162.8606490736133
 10
1591.4429710134684
 20
167.9095241194848
 10
1589.9998392480945
 20
173.68205118097936
 10
1592.8766142547347
 20
180.8739886975801
 10
1597.9107138900195
 20
185.9080883328643
 10
1603.706799530911
 20
187.35710974308728
 10
1605.1461173432424
 20
185.91779193075618
 10
1608.003260200385
 20
185.91779193075618
 10
1613.0618388441483
 20
180.85921328699328
 10
1613.0618388441483
 20
178.00207042985016
 10
1614.507747300318
 20
176.55616197368062
 10
1611.6184920049898
 20
169.33302373536097
 10
1605.1461173432428
 20
162.8606490736133
 10
1596.4918460593392
 20
162.8606490736133
  0
LWPOLYLINE
  5
43
330
17
100
AcDbEntity
  8
K
100
AcDbPolyline
 90
17
 70
1
 10
1518.677628367876
 20
186.4297964928816
 10
1515.0553947795486
 20
187.15424321054707
 10
1510.004695987005
 20
192.20494200309068
 10
1510.004695987005
 20
195.06208486023357
 10
1508.5544485071048
 20
196.51233234013387
 10
1512.8796534026355
 20
205.16274213119456
 10
1517.9107138900195
 20
210.19380261857856
 10
1523.7067995309112
 20
211.64282402880175
 10
1525.1461173432428
 20
210.20350621647043
 10
1528.003260200385
 20
210.20350621647043
 10
1534.4904102727198
 20
203.71635614413597
 10
1534.4904102727198
 20
200.85921328699308
 10
1535.9604030575283
 20
199.38922050218477
 10
1534.4904102727198
 20
197.91922771737626
 10
1534.4904102727198
 20
195.06208486023357
 10
1528.012269966615
 20
188.5839445541291
 10
1518.677628367876
 20
186.4297964928816
  0
LWPOLYLINE
  5
44
330
17
100
AcDbEntity
  8
K
100
AcDbPolyline
 90
14
 70
1
 10
1589.9998392480945
 20
173.68205118097936
 10
1592.8766142547347
 20
180.8739886975801
 10
1597.9107138900195
 20
185.9080883328643
 10
1603.706799530911
 20
187.35710974308728
 10
1605.1461173432424
 20
185.91779193075618
 10
1608.003260200385
 20
185.91779193075618
 10
1613.0618388441483
 20
180.85921328699328
 10
1613.0618388441483
 20
178.00207042985016
 10
1614.507747300318
 20
176.55616197368062
 10
1611.6184920049898
 20
169.33302373536097
 10
1605.1461173432428
 20
162.8606490736133
 10
1596.4918460593392
 20
162.8606490736133
 10
1591.4429710134684
 20
167.9095241194848
 10
1589.9998392480945
 20
173.68205118097936
  0
LWPOLYLINE
  5
45
330
17
100
AcDbEntity
  8
K
100
AcDbPolyline
 90
17
 70
1
 10
1515.0553947795486
 20
187.15424321054707
 10
1510.004695987005
 20
192.20494200309068
 10
1510.004695987005
 20
195.06208486023357
 10
1508.5544485071048
 20
196.51233234013387
 10
1512.8796534026355
 20
205.16274213119456
 10
1517.9107138900195
 20
210.19380261857856
 10
1523.7067995309112
 20
211.64282402880175
 10
1525.1461173432428
 20
210.20350621647043
 10
1528.003260200385
 20
210.20350621647043
 10
1534.4904102727198
 20
203.71635614413597
 10
1534.4904102727198
 20
200.85921328699308
 10
1535.9604030575283
 20
199.38922050218477
 10
1534.4904102727198
 20
197.91922771737626
 10
1534.4904102727198
 20
195.06208486023357
 10
1528.012269966615
 20
188.5839445541291
 10
1518.677628367876
 20
186.4297964928816
 10
1515.0553947795486
 20
187.15424321054707
  0
LWPOLYLINE
  5
46
330
17
100
AcDbEntity
  8
K
100
AcDbPolyline
 90
22
 70
1
 10
2623.6260048783765
 20
334.29791882600534
 10
2618.576124558434
 20
339.3477991459475
 10
2618.576124558434
 20
342.20494200309037
 10
2617.1061317736253
 20
343.67493478789913
 10
2618.576124558434
 20
345.1449275727077
 10
2618.576124558434
 20
348.00207042985056
 10
2623.6347032021968
 20
353.06064907361343
 10
2626.4918460593394
 20
353.06064907361343
 10
2627.9618388441486
 20
354.530641858422
 10
2629.4210852451974
 20
353.0713954573732
 10
2635.1353709594828
 20
354.49996688594456
 10
2636.574688771814
 20
353.06064907361343
 10
2639.431831628957
 20
353.06064907361343
 10
2645.9189817012907
 20
346.573499001279
 10
2645.9189817012907
 20
343.71635614413634
 10
2647.3889744861003
 20
342.2463633593276
 10
2645.9189817012907
 20
340.77637057451904
 10
2645.9189817012907
 20
337.91922771737615
 10
2640.860403057529
 20
332.86064907361344
 10
2638.0032602003853
 20
332.86064907361344
 10
2636.5651617574313
 20
331.4225506306596
 10
2623.6260048783765
 20
334.29791882600534
  0
LWPOLYLINE
  5
47
330
17
100
AcDbEntity
  8
K
100
AcDbPolyline
 90
20
 70
1
 10
3427.917030042606
 20
1.4354650903470878
 10
3422.86755793999
 20
6.484937192962503
 10
3421.4272013983996
 20
16.567432984101238
 10
3422.861838844148
 20
18.00207042985036
 10
3422.861838844148
 20
20.85921328699325
 10
3427.9204174879114
 20
25.917791930756163
 10
3430.777560345054
 20
25.917791930756163
 10
3432.2475531298633
 20
27.387784715564912
 10
3433.7175459146715
 20
25.917791930756163
 10
3445.146117343243
 20
25.917791930756163
 10
3446.5746887718146
 20
24.489220502184715
 10
3449.4318316289573
 20
24.489220502184715
 10
3454.4904102727205
 20
19.430641858421804
 10
3454.4904102727205
 20
16.57349900127891
 10
3455.926081359759
 20
15.137827914240788
 10
3454.4837812520786
 20
6.484027268163328
 10
3449.4318316289573
 20
1.4320776450418293
 10
3446.5746887718146
 20
1.4320776450418293
 10
3445.142611126773
 20
0.0
 10
3427.917030042606
 20
1.4354650903470878
  0
LWPOLYLINE
  5
48
330
17
100
AcDbEntity
  8
K
100
AcDbPolyline
 90
35
 70
1
 10
3309.3411090652635
 20
204.29710035340443
 10
3302.8618388441487
 20
210.77637057451892
 10
3302.8618388441487
 20
213.6335134316618
 10
3301.3918460593395
 20
215.10350621647058
 10
3302.8618388441487
 20
216.5734990012791
 10
3302.8618388441487
 20
219.43064185842198
 10
3309.348988916483
 20
225.91779193075624
 10
3312.2061317736257
 20
225.91779193075624
 10
3313.676124558434
 20
227.38778471556475
 10
3315.146117343243
 20
225.91779193075624
 10
3317.920417487911
 20
225.91779193075624
 10
3319.3489889164825
 20
227.34636335932757
 10
3322.206131773625
 20
227.34636335932757
 10
3332.206131773625
 20
237.34636335932757
 10
3335.063274630769
 20
237.34636335932757
 10
3336.533267415577
 20
238.8163561441363
 10
3338.003260200386
 20
237.34636335932757
 10
3340.860403057529
 20
237.34636335932757
 10
3345.918981701292
 20
232.28778471556467
 10
3345.918981701292
 20
229.43064185842178
 10
3347.3889744861003
 20
227.96064907361347
 10
3345.940657752621
 20
226.5123323401339
 10
3347.3692291811917
 20
223.655189482991
 10
3345.918981701292
 20
222.2049420030907
 10
3345.918981701292
 20
219.34779914594782
 10
3340.860403057529
 20
214.2892205021847
 10
3338.0032602003853
 20
214.2892205021847
 10
3336.5530127204856
 20
212.8389730222844
 10
3333.695869863342
 20
214.26754445085572
 10
3332.2889744861
 20
212.86064907361336
 10
3329.4318316289573
 20
212.86064907361336
 10
3320.8604030575284
 20
204.2892205021849
 10
3318.0032602003857
 20
204.2892205021849
 10
3316.566134887215
 20
202.85209518901382
 10
3309.3411090652635
 20
204.29710035340443
  0
LWPOLYLINE
  5
49
330
17
100
AcDbEntity
  8
K
100
AcDbPolyline
 90
49
 70
1
 10
3089.338655065644
 20
18.586777268252085
 10
3072.861838844148
 20
33.630826861791306
 10
3072.861838844148
 20
36.490656288804544
 10
3071.4332674155767
 20
37.91922771737599
 10
3071.4332674155767
 20
49.43064185842205
 10
3072.861838844148
 20
50.8592132869935
 10
3072.861838844148
 20
55.06208486023312
 10
3071.4332674155767
 20
56.490656288804566
 10
3071.4332674155767
 20
59.347799145947455
 10
3065.0518127139367
 20
65.72925384758754
 10
3050.7660984282224
 20
70.01496813330188
 10
3045.718981701292
 20
75.06208486023314
 10
3045.718981701292
 20
77.91922771737603
 10
3044.2489889164826
 20
79.38922050218477
 10
3045.718981701292
 20
80.85921328699352
 10
3045.718981701292
 20
83.71635614413631
 10
3048.5761245584345
 20
86.5734990012792
 10
3048.5761245584345
 20
89.43064185842198
 10
3055.055394779549
 20
95.9099120795367
 10
3062.198251922406
 20
97.33848350810814
 10
3067.1554329810824
 20
102.2956645667843
 10
3068.5675706738352
 20
109.3563530305468
 10
3067.1061317736257
 20
110.81779193075614
 10
3068.576124558434
 20
112.28778471556488
 10
3068.576124558434
 20
115.14492757270777
 10
3073.634703202197
 20
120.20350621647047
 10
3076.49184605934
 20
120.20350621647047
 10
3077.961838844148
 20
121.67349900127921
 10
3079.4318316289573
 20
120.20350621647047
 10
3082.2889744861
 20
120.20350621647047
 10
3092.2968543373195
 20
110.19562636525104
 10
3099.4397114801764
 20
108.7670549366796
 10
3106.584392369706
 20
101.62237404715002
 10
3112.2986780839915
 20
100.19380261857857
 10
3120.188536058052
 20
92.30394464451885
 10
3131.6525421236643
 20
66.5099309968914
 10
3130.204695987006
 20
65.06208486023313
 10
3130.204695987006
 20
62.20494200309024
 10
3121.6235638176854
 20
53.62380983376991
 10
3120.194992389114
 20
47.909524119484125
 10
3115.9189817012916
 20
43.633513431661775
 10
3115.9189817012916
 20
40.79009353426144
 10
3111.633267415577
 20
33.64723639140432
 10
3111.633267415577
 20
30.794185133006025
 10
3107.3297385713754
 20
22.18712744460316
 10
3102.2889744860995
 20
17.146363359327623
 10
3099.431831628957
 20
17.146363359327623
 10
3097.9888479198225
 20
15.70337965019264
 10
3089.338655065644
 20
18.586777268252085
  0
LWPOLYLINE
  5
4A
330
17
100
AcDbEntity
  8
K
100
AcDbPolyline
 90
20
 70
1
 10
3427.917030042606
 20
1.4354650903470878
 10
3422.86755793999
 20
6.484937192962503
 10
3421.4272013983996
 20
16.567432984101238
 10
3422.861838844148
 20
18.00207042985036
 10
3422.861838844148
 20
20.85921328699325
 10
3427.9204174879114
 20
25.917791930756163
 10
3430.777560345054
 20
25.917791930756163
 10
3432.2475531298633
 20
27.387784715564912
 10
3433.7175459146715
 20
25.917791930756163
 10
3445.146117343243
 20
25.917791930756163
 10
3446.5746887718146
 20
24.489220502184715
 10
3449.4318316289573
 20
24.489220502184715
 10
3454.4904102727205
 20
19.430641858421804
 10
3454.4904102727205
 20
16.57349900127891
 10
3455.926081359759
 20
15.137827914240788
 10
3454.4837812520786
 20
6.484027268163328
 10
3449.4318316289573
 20
1.4320776450418293
 10
3446.5746887718146
 20
1.4320776450418293
 10
3445.142611126773
 20
0.0
 10
3427.917030042606
 20
1.4354650903470878
  0
LWPOLYLINE
  5
4B
330
17
100
AcDbEntity
  8
K
100
AcDbPolyline
 90
41
 70
1
 10
3089.338655065644
 20
18.586777268252085
 10
3072.861838844148
 20
33.630826861791306
 10
3072.861838844148
 20
36.490656288804544
 10
3071.4332674155767
 20
37.91922771737599
 10
3071.4332674155767
 20
49.43064185842205
 10
3072.861838844148
 20
50.8592132869935
 10
3072.861838844148
 20
55.06208486023312
 10
3071.4332674155767
 20
56.490656288804566
 10
3071.4332674155767
 20
59.347799145947455
 10
3065.053571032877
 20
65.72749552864798
 10
3053.6301384795042
 20
68.58335366699097
 10
3045.718981701292
 20
75.05611830371083
 10
3045.718981701292
 20
77.91922771737603
 10
3044.2489889164826
 20
79.38922050218477
 10
3045.718981701292
 20
80.85921328699352
 10
3045.718981701292
 20
83.71635614413631
 10
3048.5761245584345
 20
86.5734990012792
 10
3048.5761245584345
 20
89.43064185842198
 10
3055.0632746307683
 20
95.91779193075611
 10
3057.920417487911
 20
95.91779193075611
 10
3059.370664967812
 20
97.36803941065664
 10
3067.9967418770866
 20
93.05500095601926
 10
3079.441535226849
 20
90.19380261857857
 10
3084.4825304215
 20
85.15280742392717
 10
3085.9111018500716
 20
78.00995028107005
 10
3093.734223919114
 20
70.18682821202815
 10
3112.305652490543
 20
61.61539964059959
 10
3118.7761245584343
 20
55.14492757270772
 10
3118.7761245584343
 20
52.28778471556483
 10
3120.2461173432434
 20
50.817791930756194
 10
3118.7761245584343
 20
49.34779914594745
 10
3118.7761245584343
 20
46.49065628880456
 10
3115.9189817012916
 20
43.633513431661775
 10
3115.9189817012916
 20
40.79009353426144
 10
3111.633267415577
 20
33.64723639140432
 10
3111.633267415577
 20
30.794185133006025
 10
3107.3297385713754
 20
22.18712744460316
 10
3102.2889744860995
 20
17.146363359327623
 10
3099.431831628957
 20
17.146363359327623
 10
3097.9888479198225
 20
15.70337965019264
 10
3089.338655065644
 20
18.586777268252085
  0
LWPOLYLINE
  5
4C
330
17
100
AcDbEntity
  8
K
100
AcDbPolyline
 90
35
 70
1
 10
3309.3411090652635
 20
204.29710035340443
 10
3302.8618388441487
 20
210.77637057451892
 10
3302.8618388441487
 20
213.6335134316618
 10
3301.3918460593395
 20
215.10350621647058
 10
3302.8618388441487
 20
216.5734990012791
 10
3302.8618388441487
 20
219.43064185842198
 10
3309.348988916483
 20
225.91779193075624
 10
3312.2061317736257
 20
225.91779193075624
 10
3313.676124558434
 20
227.38778471556475
 10
3315.146117343243
 20
225.91779193075624
 10
3317.920417487911
 20
225.91779193075624
 10
3319.3489889164825
 20
227.34636335932757
 10
3322.206131773625
 20
227.34636335932757
 10
3332.206131773625
 20
237.34636335932757
 10
3335.063274630769
 20
237.34636335932757
 10
3336.533267415577
 20
238.8163561441363
 10
3338.003260200386
 20
237.34636335932757
 10
3340.860403057529
 20
237.34636335932757
 10
3345.918981701292
 20
232.28778471556467
 10
3345.918981701292
 20
229.43064185842178
 10
3347.3889744861003
 20
227.96064907361347
 10
3345.940657752621
 20
226.5123323401339
 10
3347.3692291811917
 20
223.655189482991
 10
3345.918981701292
 20
222.2049420030907
 10
3345.918981701292
 20
219.34779914594782
 10
3340.860403057529
 20
214.2892205021847
 10
3338.0032602003853
 20
214.2892205021847
 10
3336.5530127204856
 20
212.8389730222844
 10
3333.695869863342
 20
214.26754445085572
 10
3332.2889744861
 20
212.86064907361336
 10
3329.4318316289573
 20
212.86064907361336
 10
3320.8604030575284
 20
204.2892205021849
 10
3318.0032602003857
 20
204.2892205021849
 10
3316.566134887215
 20
202.85209518901382
 10
3309.3411090652635
 20
204.29710035340443
  0
LWPOLYLINE
  5
4D
330
17
100
AcDbEntity
  8
K
100
AcDbPolyline
 90
16
 70
1
 10
3070.097326442342
 20
63.57286674134899
 10
3057.9091589657014
 20
67.15762188153762
 10
3052.87154244204
 20
72.19523840519837
 10
3051.4225210318173
 20
77.99132404609077
 10
3052.8618388441487
 20
79.43064185842208
 10
3052.8618388441487
 20
82.28778471556485
 10
3057.9107138900195
 20
87.33665976143567
 10
3075.135370959483
 20
91.64282402880175
 10
3076.5746887718146
 20
90.20350621647044
 10
3079.4318316289573
 20
90.20350621647044
 10
3084.4825304215
 20
85.15280742392717
 10
3085.927535585891
 20
77.92778160197544
 10
3084.4904102727196
 20
76.49065628880459
 10
3084.4904102727196
 20
73.6335134316617
 10
3075.151836439084
 20
64.29493959802657
 10
3070.097326442342
 20
63.57286674134899
  0
LWPOLYLINE
  5
4E
330
17
100
AcDbEntity
  8
K
100
AcDbPolyline
 90
20
 70
1
 10
3427.917030042606
 20
1.4354650903470878
 10
3422.86755793999
 20
6.484937192962503
 10
3421.4272013983996
 20
16.567432984101238
 10
3422.861838844148
 20
18.00207042985036
 10
3422.861838844148
 20
20.85921328699325
 10
3427.9204174879114
 20
25.917791930756163
 10
3430.777560345054
 20
25.917791930756163
 10
3432.2475531298633
 20
27.387784715564912
 10
3433.7175459146715
 20
25.917791930756163
 10
3445.146117343243
 20
25.917791930756163
 10
3446.5746887718146
 20
24.489220502184715
 10
3449.4318316289573
 20
24.489220502184715
 10
3454.4904102727205
 20
19.430641858421804
 10
3454.4904102727205
 20
16.57349900127891
 10
3455.926081359759
 20
15.137827914240788
 10
3454.4837812520786
 20
6.484027268163328
 10
3449.4318316289573
 20
1.4320776450418293
 10
3446.5746887718146
 20
1.4320776450418293
 10
3445.142611126773
 20
0.0
 10
3427.917030042606
 20
1.4354650903470878
  0
LWPOLYLINE
  5
4F
330
17
100
AcDbEntity
  8
K
100
AcDbPolyline
 90
21
 70
1
 10
4120.004695987006
 20
75.06208486023336
 10
4120.004695987006
 20
77.91922771737624
 10
4118.534703202196
 20
79.38922050218477
 10
4120.004695987006
 20
80.85921328699331
 10
4120.004695987006
 20
83.71635614413609
 10
4125.063274630767
 20
88.774934787899
 10
4127.931561280375
 20
88.774934787899
 10
4132.217275566089
 20
91.63207764504189
 10
4135.063274630767
 20
91.63207764504189
 10
4136.533267415577
 20
93.10207042985064
 10
4138.003260200386
 20
91.63207764504189
 10
4140.860403057528
 20
91.63207764504189
 10
4145.918981701291
 20
86.57349900127898
 10
4145.918981701291
 20
83.71635614413609
 10
4147.356107014461
 20
82.27923083096556
 10
4145.911101850071
 20
75.05420500901339
 10
4140.860403057528
 20
70.00350621647044
 10
4138.003260200386
 20
70.00350621647044
 10
4136.569394646141
 20
68.56964066222481
 10
4125.058246690567
 20
70.00853415667152
 10
4120.004695987006
 20
75.06208486023336
  0
LWPOLYLINE
  5
50
330
17
100
AcDbEntity
  8
K
100
AcDbPolyline
 90
92
 70
1
 10
3750.0046959870056
 20
33.63351343166177
 10
3750.0046959870056
 20
36.490656288804544
 10
3748.5761245584335
 20
37.91922771737599
 10
3748.5761245584335
 20
63.69854158564914
 10
3751.433267415576
 20
69.41282729993492
 10
3751.433267415576
 20
72.2227565615774
 10
3748.5761245584335
 20
77.93704227586318
 10
3748.5761245584335
 20
92.28778471556487
 10
3750.0046959870056
 20
93.71635614413631
 10
3750.0046959870056
 20
96.5734990012792
 10
3755.063274630768
 20
101.6320776450419
 10
3757.9204174879105
 20
101.6320776450419
 10
3759.370664967811
 20
103.08232512494232
 10
3765.1283027847553
 20
100.20350621647044
 10
3767.9382320463983
 20
100.20350621647044
 10
3773.695869863342
 20
103.08232512494232
 10
3775.146117343242
 20
101.6320776450419
 10
3777.9975351819653
 20
101.6320776450419
 10
3785.944173372762
 20
95.13028276166268
 10
3784.5120863240486
 20
92.26610866423567
 10
3785.9189817012907
 20
90.85921328699354
 10
3785.9189817012907
 20
87.93704227586319
 10
3784.5120863240486
 20
85.12325152137856
 10
3785.9189817012907
 20
83.71635614413631
 10
3785.9189817012907
 20
80.85921328699352
 10
3791.6253875643574
 20
75.15280742392716
 10
3793.056017240601
 20
67.99965904270644
 10
3795.9131600977435
 20
63.713944756992106
 10
3797.3396732786427
 20
56.58137885249859
 10
3798.7694955377924
 20
55.15155659334925
 10
3800.198066966364
 20
46.580128021920686
 10
3805.146117343242
 20
41.632077645041846
 10
3808.003260200385
 20
41.632077645041846
 10
3809.3904102727192
 20
40.2449275727077
 10
3810.7775603450536
 20
41.632077645041846
 10
3813.6347032021963
 20
41.632077645041846
 10
3819.341109065262
 20
47.33848350810821
 10
3826.4839662081195
 20
48.76705493667954
 10
3827.9204174879105
 20
50.20350621647041
 10
3835.0810891892547
 20
50.20350621647041
 10
3840.786238339281
 20
53.05608079148316
 10
3847.9758717135815
 20
54.494007466343255
 10
3856.592503330301
 20
50.185691657983035
 10
3866.5746887718137
 20
40.203506216470394
 10
3869.4318316289573
 20
40.203506216470394
 10
3870.818981701291
 20
38.81635614413626
 10
3872.206131773625
 20
40.203506216470394
 10
3875.063274630768
 20
40.203506216470394
 10
3880.0172927821154
 20
45.157524367818056
 10
3881.4458642106874
 20
49.4432386535324
 10
3884.3001138706113
 20
52.29748831345671
 10
3887.156448440823
 20
63.722826594304834
 10
3897.9026018107284
 20
75.90180041353123
 10
3905.0786869359986
 20
78.77223446363901
 10
3915.0575555349265
 20
80.19778712062863
 10
3922.206131773625
 20
87.34636335932755
 10
3925.063274630768
 20
87.34636335932755
 10
3926.499853750303
 20
88.78294247886332
 10
3949.439245629657
 20
84.48180650148463
 10
3955.9189817012907
 20
78.00207042985063
 10
3955.9189817012907
 20
75.14492757270774
 10
3957.3475531298623
 20
73.7163561441363
 10
3957.3475531298623
 20
43.633513431661775
 10
3955.9189817012907
 20
42.20494200309022
 10
3955.9189817012907
 20
39.3558871688513
 10
3951.6090033468645
 20
33.60924936295007
 10
3946.5746887718137
 20
28.574934787898965
 10
3943.717545914671
 20
28.574934787898965
 10
3942.2889744860995
 20
27.14636335932763
 10
3887.920417487911
 20
27.14636335932763
 10
3886.4918460593394
 20
28.574934787898965
 10
3883.6347032021968
 20
28.574934787898965
 10
3876.4918460593385
 20
35.71779193075619
 10
3873.634703202196
 20
35.71779193075619
 10
3872.216878157385
 20
37.13561697556778
 10
3866.5843923697053
 20
35.72749552864807
 10
3859.431831628957
 20
28.574934787898965
 10
3856.574688771814
 20
28.574934787898965
 10
3855.146117343242
 20
27.14636335932763
 10
3823.6347032021963
 20
27.14636335932763
 10
3822.2061317736243
 20
28.574934787898965
 10
3819.3489889164816
 20
28.574934787898965
 10
3812.2061317736247
 20
35.71779193075619
 10
3809.348988916482
 20
35.71779193075619
 10
3807.9618388441477
 20
37.104942003090336
 10
3806.574688771814
 20
35.71779193075619
 10
3803.7175459146706
 20
35.71779193075619
 10
3796.5746887718133
 20
28.574934787898965
 10
3793.7175459146706
 20
28.574934787898965
 10
3792.287369163044
 20
27.144758036272478
 10
3755.061694671168
 20
28.57651474749845
 10
3750.0046959870056
 20
33.63351343166177
  0
LWPOLYLINE
  5
51
330
17
100
AcDbEntity
  8
K
100
AcDbPolyline
 90
16
 70
1
 10
3797.122361458391
 20
102.21958681413534
 10
3798.5544485071046
 20
105.08376091156235
 10
3797.130216102264
 20
106.50799331640282
 10
3800.019471397593
 20
113.73113155472348
 10
3805.0632746307674
 20
118.77493478789903
 10
3807.92041748791
 20
118.77493478789903
 10
3809.3904102727192
 20
120.24492757270777
 10
3810.8604030575275
 20
118.77493478789903
 10
3813.717545914671
 20
118.77493478789903
 10
3818.769495537792
 20
113.72298516477785
 10
3820.2117956454717
 20
105.06918451869984
 10
3818.7761245584334
 20
103.63351343166171
 10
3818.7761245584334
 20
100.77637057451882
 10
3813.717545914671
 20
95.71779193075614
 10
3805.068999649188
 20
95.71779193075614
 10
3797.122361458391
 20
102.21958681413534
  0
LWPOLYLINE
  5
52
330
17
100
AcDbEntity
  8
K
100
AcDbPolyline
 90
92
 70
1
 10
3750.0046959870056
 20
33.63351343166177
 10
3750.0046959870056
 20
36.490656288804544
 10
3748.5761245584335
 20
37.91922771737599
 10
3748.5761245584335
 20
63.69854158564914
 10
3751.433267415576
 20
69.41282729993492
 10
3751.433267415576
 20
72.2227565615774
 10
3748.5761245584335
 20
77.93704227586318
 10
3748.5761245584335
 20
92.28778471556487
 10
3750.0046959870056
 20
93.71635614413631
 10
3750.0046959870056
 20
96.5734990012792
 10
3755.063274630768
 20
101.6320776450419
 10
3757.9204174879105
 20
101.6320776450419
 10
3759.370664967811
 20
103.08232512494232
 10
3765.1283027847553
 20
100.20350621647044
 10
3767.9382320463983
 20
100.20350621647044
 10
3773.695869863342
 20
103.08232512494232
 10
3775.146117343242
 20
101.6320776450419
 10
3777.9975351819653
 20
101.6320776450419
 10
3785.944173372762
 20
95.13028276166268
 10
3784.5120863240486
 20
92.26610866423567
 10
3785.9189817012907
 20
90.85921328699354
 10
3785.9189817012907
 20
87.93704227586319
 10
3784.5120863240486
 20
85.12325152137856
 10
3785.9189817012907
 20
83.71635614413631
 10
3785.9189817012907
 20
80.85921328699352
 10
3791.6253875643574
 20
75.15280742392716
 10
3793.056017240601
 20
67.99965904270644
 10
3795.9131600977435
 20
63.713944756992106
 10
3797.3396732786427
 20
56.58137885249859
 10
3798.7694955377924
 20
55.15155659334925
 10
3800.198066966364
 20
46.580128021920686
 10
3805.146117343242
 20
41.632077645041846
 10
3808.003260200385
 20
41.632077645041846
 10
3809.3904102727192
 20
40.2449275727077
 10
3810.7775603450536
 20
41.632077645041846
 10
3813.6347032021963
 20
41.632077645041846
 10
3819.341109065262
 20
47.33848350810821
 10
3826.4839662081195
 20
48.76705493667954
 10
3827.9204174879105
 20
50.20350621647041
 10
3835.0810891892547
 20
50.20350621647041
 10
3840.786238339281
 20
53.05608079148316
 10
3847.9758717135815
 20
54.494007466343255
 10
3856.592503330301
 20
50.185691657983035
 10
3866.5746887718137
 20
40.203506216470394
 10
3869.4318316289573
 20
40.203506216470394
 10
3870.818981701291
 20
38.81635614413626
 10
3872.206131773625
 20
40.203506216470394
 10
3875.063274630768
 20
40.203506216470394
 10
3880.0172927821154
 20
45.157524367818056
 10
3881.4458642106874
 20
49.4432386535324
 10
3884.3001138706113
 20
52.29748831345671
 10
3887.154739930347
 20
63.715992552398795
 10
3890.0269835719337
 20
68.02435801477912
 10
3897.9056420773236
 20
75.90301652016917
 10
3905.0854377466485
 20
78.77493478789899
 10
3909.4318316289564
 20
78.77493478789899
 10
3910.8604030575284
 20
77.34636335932754
 10
3913.717545914671
 20
77.34636335932754
 10
3920.186881428518
 20
70.87702784548067
 10
3924.4904102727196
 20
62.269970157077694
 10
3924.4904102727196
 20
59.4212670075257
 10
3931.6332674155765
 20
49.42126700752569
 10
3931.6332674155765
 20
46.555684442792014
 10
3935.9406577526197
 20
37.94090376870518
 10
3934.490410272719
 20
36.490656288804544
 10
3934.490410272719
 20
33.63351343166177
 10
3929.431831628957
 20
28.574934787898965
 10
3926.574688771814
 20
28.574934787898965
 10
3925.1461173432426
 20
27.14636335932763
 10
3887.920417487911
 20
27.14636335932763
 10
3886.4918460593394
 20
28.574934787898965
 10
3883.6347032021968
 20
28.574934787898965
 10
3876.4918460593385
 20
35.71779193075619
 10
3873.634703202196
 20
35.71779193075619
 10
3872.216878157385
 20
37.13561697556778
 10
3866.5843923697053
 20
35.72749552864807
 10
3859.431831628957
 20
28.574934787898965
 10
3856.574688771814
 20
28.574934787898965
 10
3855.146117343242
 20
27.14636335932763
 10
3823.6347032021963
 20
27.14636335932763
 10
3822.2061317736243
 20
28.574934787898965
 10
3819.3489889164816
 20
28.574934787898965
 10
3812.2061317736247
 20
35.71779193075619
 10
3809.348988916482
 20
35.71779193075619
 10
3807.9618388441477
 20
37.104942003090336
 10
3806.574688771814
 20
35.71779193075619
 10
3803.7175459146706
 20
35.71779193075619
 10
3796.5746887718133
 20
28.574934787898965
 10
3793.7175459146706
 20
28.574934787898965
 10
3792.287369163044
 20
27.144758036272478
 10
3755.061694671168
 20
28.57651474749845
 10
3750.0046959870056
 20
33.63351343166177
  0
LWPOLYLINE
  5
53
330
17
100
AcDbEntity
  8
K
100
AcDbPolyline
 90
16
 70
1
 10
3797.122361458391
 20
102.21958681413534
 10
3798.5544485071046
 20
105.08376091156235
 10
3797.130216102264
 20
106.50799331640282
 10
3800.019471397593
 20
113.73113155472348
 10
3805.0632746307674
 20
118.77493478789903
 10
3807.92041748791
 20
118.77493478789903
 10
3809.3904102727192
 20
120.24492757270777
 10
3810.8604030575275
 20
118.77493478789903
 10
3813.717545914671
 20
118.77493478789903
 10
3818.769495537792
 20
113.72298516477785
 10
3820.2117956454717
 20
105.06918451869984
 10
3818.7761245584334
 20
103.63351343166171
 10
3818.7761245584334
 20
100.77637057451882
 10
3813.717545914671
 20
95.71779193075614
 10
3805.068999649188
 20
95.71779193075614
 10
3797.122361458391
 20
102.21958681413534
  0
LWPOLYLINE
  5
54
330
17
100
AcDbEntity
  8
K
100
AcDbPolyline
 90
21
 70
1
 10
4125.058246690567
 20
70.00853415667152
 10
4120.004695987006
 20
75.06208486023336
 10
4120.004695987006
 20
77.91922771737624
 10
4118.534703202196
 20
79.38922050218477
 10
4120.004695987006
 20
80.85921328699331
 10
4120.004695987006
 20
83.71635614413609
 10
4125.063274630767
 20
88.774934787899
 10
4127.931561280375
 20
88.774934787899
 10
4132.217275566089
 20
91.63207764504189
 10
4135.063274630767
 20
91.63207764504189
 10
4136.533267415577
 20
93.10207042985064
 10
4138.003260200386
 20
91.63207764504189
 10
4140.860403057528
 20
91.63207764504189
 10
4145.918981701291
 20
86.57349900127898
 10
4145.918981701291
 20
83.71635614413609
 10
4147.356107014461
 20
82.27923083096556
 10
4145.911101850071
 20
75.05420500901339
 10
4140.860403057528
 20
70.00350621647044
 10
4138.003260200386
 20
70.00350621647044
 10
4136.569394646141
 20
68.56964066222481
 10
4125.058246690567
 20
70.00853415667152
  0
LWPOLYLINE
  5
55
330
17
100
AcDbEntity
  8
K
100
AcDbPolyline
 90
21
 70
1
 10
4120.004695987006
 20
77.91922771737624
 10
4118.534703202196
 20
79.38922050218477
 10
4120.004695987006
 20
80.85921328699331
 10
4120.004695987006
 20
83.71635614413609
 10
4125.063274630767
 20
88.774934787899
 10
4127.931561280375
 20
88.774934787899
 10
4132.217275566089
 20
91.63207764504189
 10
4135.063274630767
 20
91.63207764504189
 10
4136.533267415577
 20
93.10207042985064
 10
4138.003260200386
 20
91.63207764504189
 10
4140.860403057528
 20
91.63207764504189
 10
4145.918981701291
 20
86.57349900127898
 10
4145.918981701291
 20
83.71635614413609
 10
4147.356107014461
 20
82.27923083096556
 10
4145.911101850071
 20
75.05420500901339
 10
4140.860403057528
 20
70.00350621647044
 10
4138.003260200386
 20
70.00350621647044
 10
4136.569394646141
 20
68.56964066222481
 10
4125.058246690567
 20
70.00853415667152
 10
4120.004695987006
 20
75.06208486023336
 10
4120.004695987006
 20
77.91922771737624
  0
LWPOLYLINE
  5
56
330
17
100
AcDbEntity
  8
K
100
AcDbPolyline
 90
37
 70
1
 10
4720.777096031688
 20
54.28968481555086
 10
4715.71898170129
 20
59.347799145947675
 10
4715.71898170129
 20
62.20494200309046
 10
4714.29041027272
 20
63.6335134316619
 10
4714.29041027272
 20
85.14492757270753
 10
4715.71898170129
 20
86.57349900127898
 10
4715.71898170129
 20
89.43064185842175
 10
4720.777560345054
 20
94.48922050218478
 10
4723.634703202197
 20
94.48922050218478
 10
4725.080611658367
 20
95.93512895835443
 10
4732.223468801224
 20
93.07798610121165
 10
4733.676124558435
 20
94.53064185842209
 10
4735.146117343243
 20
93.06064907361333
 10
4743.717545914672
 20
93.06064907361333
 10
4745.14775993306
 20
91.63043505522539
 10
4780.862045647345
 20
90.20186362665395
 10
4782.247553129862
 20
88.8163561441363
 10
4783.676124558435
 20
90.24492757270775
 10
4785.146117343243
 20
88.774934787899
 10
4790.860403057529
 20
88.774934787899
 10
4792.2889744861
 20
87.34636335932755
 10
4802.206131773626
 20
87.34636335932755
 10
4803.634703202197
 20
88.774934787899
 10
4822.2889744861
 20
88.774934787899
 10
4823.717545914672
 20
87.34636335932755
 10
4852.2889744861
 20
87.34636335932755
 10
4853.717545914672
 20
85.91779193075611
 10
4856.574688771814
 20
85.91779193075611
 10
4861.633267415578
 20
80.85921328699331
 10
4861.633267415578
 20
78.0020704298504
 10
4863.079175871747
 20
76.55616197368076
 10
4857.347553129864
 20
62.227105118971004
 10
4857.347553129864
 20
59.347799145947675
 10
4852.2889744861
 20
54.28922050218476
 10
4849.431831628957
 20
54.28922050218476
 10
4848.002793721094
 20
52.86018259432157
 10
4720.777096031688
 20
54.28968481555086
  0
LWPOLYLINE
  5
57
330
17
100
AcDbEntity
  8
K
100
AcDbPolyline
 90
37
 70
1
 10
4720.777085383861
 20
54.28969546337748
 10
4715.71898170129
 20
59.347799145947675
 10
4715.71898170129
 20
62.20494200309046
 10
4714.29041027272
 20
63.6335134316619
 10
4714.29041027272
 20
85.14492757270753
 10
4715.71898170129
 20
86.57349900127898
 10
4715.71898170129
 20
89.43064185842175
 10
4720.777560345054
 20
94.48922050218478
 10
4723.634703202197
 20
94.48922050218478
 10
4725.080611658367
 20
95.93512895835443
 10
4732.223468801224
 20
93.07798610121165
 10
4733.676124558435
 20
94.53064185842209
 10
4735.146117343243
 20
93.06064907361333
 10
4743.717545914672
 20
93.06064907361333
 10
4745.14775993306
 20
91.63043505522539
 10
4780.862045647345
 20
90.20186362665395
 10
4782.247553129862
 20
88.8163561441363
 10
4783.676124558435
 20
90.24492757270775
 10
4785.146117343243
 20
88.774934787899
 10
4790.860403057529
 20
88.774934787899
 10
4792.2889744861
 20
87.34636335932755
 10
4802.206131773626
 20
87.34636335932755
 10
4803.634703202197
 20
88.774934787899
 10
4822.271159927613
 20
88.774934787899
 10
4827.985445641899
 20
85.91779193075611
 10
4830.860403057529
 20
85.91779193075611
 10
4842.296854337319
 20
74.48134065096524
 10
4849.439711480178
 20
73.05276922239379
 10
4854.49041027272
 20
68.0020704298504
 10
4854.49041027272
 20
65.14492757270752
 10
4855.960403057529
 20
63.674934787898984
 10
4854.49041027272
 20
62.20494200309046
 10
4854.49041027272
 20
59.347799145947675
 10
4849.431831628957
 20
54.28922050218476
 10
4846.574688771814
 20
54.28922050218476
 10
4845.145640115404
 20
52.86017184577352
 10
4720.777085383861
 20
54.28969546337748
  0
LWPOLYLINE
  5
58
330
17
100
AcDbEntity
  8
K
100
AcDbPolyline
 90
32
 70
1
 10
4743.6341215284
 20
54.289802175982004
 10
4738.576124558434
 20
59.347799145947675
 10
4738.576124558434
 20
62.20494200309046
 10
4737.147553129863
 20
63.6335134316619
 10
4737.147553129863
 20
73.71635614413607
 10
4738.581843654276
 20
75.15064666854975
 10
4740.010415082848
 20
85.15064666854977
 10
4745.063274630769
 20
90.20350621647044
 10
4747.9204174879105
 20
90.20350621647044
 10
4749.350888608256
 20
91.63397733681545
 10
4780.8622673337995
 20
90.20164194019986
 10
4782.247553129862
 20
88.8163561441363
 10
4783.676124558435
 20
90.24492757270775
 10
4785.146117343243
 20
88.774934787899
 10
4790.860403057529
 20
88.774934787899
 10
4792.2889744861
 20
87.34636335932755
 10
4802.206131773626
 20
87.34636335932755
 10
4803.634703202197
 20
88.774934787899
 10
4822.271159927613
 20
88.774934787899
 10
4827.985445641899
 20
85.91779193075611
 10
4830.860403057529
 20
85.91779193075611
 10
4842.296854337319
 20
74.48134065096524
 10
4849.439711480178
 20
73.05276922239379
 10
4854.49041027272
 20
68.0020704298504
 10
4854.49041027272
 20
65.14492757270752
 10
4855.960403057529
 20
63.674934787898984
 10
4854.49041027272
 20
62.20494200309046
 10
4854.49041027272
 20
59.347799145947675
 10
4849.431831628957
 20
54.28922050218476
 10
4846.574688771814
 20
54.28922050218476
 10
4845.145532266206
 20
52.86006399657628
 10
4743.6341215284
 20
54.289802175982004
  0
LWPOLYLINE
  5
59
330
17
100
AcDbEntity
  8
K
100
AcDbPolyline
 90
21
 70
1
 10
5107.912537636691
 20
62.868528924832745
 10
5101.433267415577
 20
69.34779914594746
 10
5101.433267415577
 20
72.20494200309024
 10
5099.963274630769
 20
73.67493478789899
 10
5101.433267415577
 20
75.14492757270774
 10
5101.433267415577
 20
78.00207042985063
 10
5106.491846059339
 20
83.06064907361332
 10
5109.348988916483
 20
83.06064907361332
 10
5110.799236396382
 20
84.51089655351385
 10
5116.54490175989
 20
81.63806387176054
 10
5122.27822810234
 20
83.07139545737319
 10
5123.717545914672
 20
81.63207764504187
 10
5126.574688771814
 20
81.63207764504187
 10
5131.6332674155765
 20
76.5734990012793
 10
5131.6332674155765
 20
73.7163561441363
 10
5133.072585227908
 20
72.2770383318051
 10
5131.623563817685
 20
66.4809526909127
 10
5126.574688771814
 20
61.432077645041886
 10
5123.717545914672
 20
61.432077645041886
 10
5122.2804206015
 20
59.99495233187091
 10
5107.912537636691
 20
62.868528924832745
  0
LWPOLYLINE
  5
5A
330
17
100
AcDbEntity
  8
K
100
AcDbPolyline
 90
21
 70
1
 10
5107.912537636691
 20
62.868528924832745
 10
5101.433267415577
 20
69.34779914594746
 10
5101.433267415577
 20
72.20494200309024
 10
5099.963274630769
 20
73.67493478789899
 10
5101.433267415577
 20
75.14492757270774
 10
5101.433267415577
 20
78.00207042985063
 10
5106.491846059339
 20
83.06064907361332
 10
5109.348988916483
 20
83.06064907361332
 10
5110.799236396382
 20
84.51089655351385
 10
5116.54490175989
 20
81.63806387176054
 10
5122.27822810234
 20
83.07139545737319
 10
5123.717545914672
 20
81.63207764504187
 10
5126.574688771814
 20
81.63207764504187
 10
5131.6332674155765
 20
76.5734990012793
 10
5131.6332674155765
 20
73.7163561441363
 10
5133.072585227908
 20
72.2770383318051
 10
5131.623563817685
 20
66.4809526909127
 10
5126.574688771814
 20
61.432077645041886
 10
5123.717545914672
 20
61.432077645041886
 10
5122.2804206015
 20
59.99495233187091
 10
5107.912537636691
 20
62.868528924832745
  0
LWPOLYLINE
  5
5B
330
17
100
AcDbEntity
  8
K
100
AcDbPolyline
 90
21
 70
1
 10
5107.912537636691
 20
62.868528924832745
 10
5101.433267415577
 20
69.34779914594746
 10
5101.433267415577
 20
72.20494200309024
 10
5099.963274630769
 20
73.67493478789899
 10
5101.433267415577
 20
75.14492757270774
 10
5101.433267415577
 20
78.00207042985063
 10
5106.491846059339
 20
83.06064907361332
 10
5109.348988916483
 20
83.06064907361332
 10
5110.799236396382
 20
84.51089655351385
 10
5116.54490175989
 20
81.63806387176054
 10
5122.27822810234
 20
83.07139545737319
 10
5123.717545914672
 20
81.63207764504187
 10
5126.574688771814
 20
81.63207764504187
 10
5131.6332674155765
 20
76.5734990012793
 10
5131.6332674155765
 20
73.7163561441363
 10
5133.072585227908
 20
72.2770383318051
 10
5131.623563817685
 20
66.4809526909127
 10
5126.574688771814
 20
61.432077645041886
 10
5123.717545914672
 20
61.432077645041886
 10
5122.2804206015
 20
59.99495233187091
 10
5107.912537636691
 20
62.868528924832745
  0
LWPOLYLINE
  5
5C
330
17
100
AcDbEntity
  8
K
100
AcDbPolyline
 90
20
 70
1
 10
6111.530452436112
 20
72.14494596494869
 10
6107.912537636691
 20
72.86852892483276
 10
6101.441147266796
 20
79.33991929472795
 10
6099.996142102405
 20
86.56494511667978
 10
6101.433267415577
 20
88.00207042985076
 10
6101.433267415577
 20
90.85921328699365
 10
6106.491846059339
 20
95.91779193075611
 10
6109.348988916482
 20
95.91779193075611
 10
6110.818981701291
 20
97.38778471556486
 10
6112.2889744860995
 20
95.91779193075611
 10
6120.860403057528
 20
95.91779193075611
 10
6122.2889744861
 20
94.48922050218478
 10
6125.146117343243
 20
94.48922050218478
 10
6131.6332674155765
 20
88.00207042985076
 10
6131.6332674155765
 20
85.14492757270786
 10
6133.103260200385
 20
83.674934787899
 10
6131.6332674155765
 20
82.20494200309014
 10
6131.6332674155765
 20
79.34779914594748
 10
6126.580407867656
 20
74.29493959802657
 10
6111.530452436112
 20
72.14494596494869
  0
LWPOLYLINE
  5
5D
330
17
100
AcDbEntity
  8
K
100
AcDbPolyline
 90
60
 70
1
 10
5637.91786419444
 20
61.43463093851187
 10
5625.718981701291
 20
73.6335134316617
 10
5625.718981701291
 20
75.06208486023303
 10
5608.5761245584345
 20
92.20494200309027
 10
5608.5761245584345
 20
95.06208486023304
 10
5607.106131773625
 20
96.53207764504191
 10
5608.5761245584345
 20
98.00207042985065
 10
5608.5761245584345
 20
100.85921328699354
 10
5613.634703202196
 20
105.91779193075612
 10
5616.491846059339
 20
105.91779193075612
 10
5622.206131773625
 20
111.6320776450419
 10
5625.063274630767
 20
111.6320776450419
 10
5626.502592443099
 20
113.0713954573731
 10
5637.950204499835
 20
110.209492443189
 10
5643.645917754059
 20
113.05734907030063
 10
5653.711479897493
 20
114.4952865193628
 10
5655.146117343243
 20
113.06064907361323
 10
5663.717545914671
 20
113.06064907361323
 10
5665.146117343243
 20
111.6320776450419
 10
5668.003260200386
 20
111.6320776450419
 10
5670.860403057528
 20
108.77493478789901
 10
5673.717545914671
 20
108.77493478789901
 10
5675.146117343243
 20
107.34636335932757
 10
5686.574688771814
 20
107.34636335932757
 10
5688.003260200386
 20
105.91779193075612
 10
5708.003260200386
 20
105.91779193075612
 10
5709.431831628957
 20
104.48922050218479
 10
5715.063274630767
 20
104.48922050218479
 10
5716.49184605934
 20
105.91779193075612
 10
5729.431831628956
 20
105.91779193075612
 10
5730.867032078169
 20
104.48259148154327
 10
5739.438460649599
 20
103.05402005297171
 10
5755.918981701291
 20
86.5734990012793
 10
5755.918981701291
 20
83.71635614413631
 10
5757.3889744861
 20
82.24636335932756
 10
5755.918981701291
 20
80.77637057451881
 10
5755.918981701291
 20
77.91922771737592
 10
5750.860403057528
 20
72.86064907361333
 10
5748.003260200386
 20
72.86064907361333
 10
5746.574688771813
 20
71.43207764504189
 10
5739.348988916482
 20
71.43207764504189
 10
5737.9204174879105
 20
72.86064907361333
 10
5728.003260200386
 20
72.86064907361333
 10
5726.574688771814
 20
71.43207764504189
 10
5723.634703202197
 20
71.43207764504189
 10
5722.206131773625
 20
72.86064907361333
 10
5709.348988916482
 20
72.86064907361333
 10
5707.914698392069
 20
74.29493959802646
 10
5697.914698392068
 20
75.7235110265978
 10
5696.491846059339
 20
77.14636335932757
 10
5692.2889744860995
 20
77.14636335932757
 10
5690.860403057529
 20
75.71779193075612
 10
5687.995172177481
 20
75.71779193075612
 10
5682.313238554812
 20
71.45634171375403
 10
5673.717545914671
 20
62.86064907361333
 10
5670.860403057528
 20
62.86064907361333
 10
5669.431831628957
 20
61.432077645041886
 10
5662.2889744861
 20
61.432077645041886
 10
5660.857782862798
 20
60.00088602173959
 10
5637.91786419444
 20
61.43463093851187
  0
LWPOLYLINE
  5
5E
330
17
100
AcDbEntity
  8
K
100
AcDbPolyline
 90
20
 70
1
 10
6111.530452436112
 20
72.14494596494869
 10
6107.912537636691
 20
72.86852892483276
 10
6101.441147266796
 20
79.33991929472795
 10
6099.996142102405
 20
86.56494511667978
 10
6101.433267415577
 20
88.00207042985076
 10
6101.433267415577
 20
90.85921328699365
 10
6106.491846059339
 20
95.91779193075611
 10
6109.348988916482
 20
95.91779193075611
 10
6110.818981701291
 20
97.38778471556486
 10
6112.2889744860995
 20
95.91779193075611
 10
6120.860403057528
 20
95.91779193075611
 10
6122.2889744861
 20
94.48922050218478
 10
6125.146117343243
 20
94.48922050218478
 10
6131.6332674155765
 20
88.00207042985076
 10
6131.6332674155765
 20
85.14492757270786
 10
6133.103260200385
 20
83.674934787899
 10
6131.6332674155765
 20
82.20494200309014
 10
6131.6332674155765
 20
79.34779914594748
 10
6126.580407867656
 20
74.29493959802657
 10
6111.530452436112
 20
72.14494596494869
  0
LWPOLYLINE
  5
5F
330
17
100
AcDbEntity
  8
K
100
AcDbPolyline
 90
60
 70
1
 10
5637.91786419444
 20
61.43463093851187
 10
5625.718981701291
 20
73.6335134316617
 10
5625.718981701291
 20
75.06208486023303
 10
5608.5761245584345
 20
92.20494200309027
 10
5608.5761245584345
 20
95.06208486023304
 10
5607.106131773625
 20
96.53207764504191
 10
5608.5761245584345
 20
98.00207042985065
 10
5608.5761245584345
 20
100.85921328699354
 10
5613.634703202196
 20
105.91779193075612
 10
5616.491846059339
 20
105.91779193075612
 10
5622.206131773625
 20
111.6320776450419
 10
5625.063274630767
 20
111.6320776450419
 10
5626.502592443099
 20
113.0713954573731
 10
5637.950204499835
 20
110.209492443189
 10
5643.645917754059
 20
113.05734907030063
 10
5653.711479897493
 20
114.4952865193628
 10
5655.146117343243
 20
113.06064907361323
 10
5663.717545914671
 20
113.06064907361323
 10
5665.146117343243
 20
111.6320776450419
 10
5668.003260200386
 20
111.6320776450419
 10
5670.860403057528
 20
108.77493478789901
 10
5673.717545914671
 20
108.77493478789901
 10
5675.146117343243
 20
107.34636335932757
 10
5686.574688771814
 20
107.34636335932757
 10
5688.003260200386
 20
105.91779193075612
 10
5708.003260200386
 20
105.91779193075612
 10
5709.431831628957
 20
104.48922050218479
 10
5715.063274630767
 20
104.48922050218479
 10
5716.49184605934
 20
105.91779193075612
 10
5729.431831628956
 20
105.91779193075612
 10
5730.867032078169
 20
104.48259148154327
 10
5739.438460649599
 20
103.05402005297171
 10
5755.918981701291
 20
86.5734990012793
 10
5755.918981701291
 20
83.71635614413631
 10
5757.3889744861
 20
82.24636335932756
 10
5755.918981701291
 20
80.77637057451881
 10
5755.918981701291
 20
77.91922771737592
 10
5750.860403057528
 20
72.86064907361333
 10
5748.003260200386
 20
72.86064907361333
 10
5746.574688771813
 20
71.43207764504189
 10
5739.348988916482
 20
71.43207764504189
 10
5737.9204174879105
 20
72.86064907361333
 10
5728.003260200386
 20
72.86064907361333
 10
5726.574688771814
 20
71.43207764504189
 10
5723.634703202197
 20
71.43207764504189
 10
5722.206131773625
 20
72.86064907361333
 10
5709.348988916482
 20
72.86064907361333
 10
5707.914698392069
 20
74.29493959802646
 10
5697.914698392068
 20
75.7235110265978
 10
5696.491846059339
 20
77.14636335932757
 10
5692.2889744860995
 20
77.14636335932757
 10
5690.860403057529
 20
75.71779193075612
 10
5687.995172177481
 20
75.71779193075612
 10
5682.313238554812
 20
71.45634171375403
 10
5673.717545914671
 20
62.86064907361333
 10
5670.860403057528
 20
62.86064907361333
 10
5669.431831628957
 20
61.432077645041886
 10
5662.2889744861
 20
61.432077645041886
 10
5660.857782862798
 20
60.00088602173959
 10
5637.91786419444
 20
61.43463093851187
  0
LWPOLYLINE
  5
60
330
17
100
AcDbEntity
  8
K
100
AcDbPolyline
 90
20
 70
1
 10
6107.912537636691
 20
72.86852892483276
 10
6101.441147266796
 20
79.33991929472795
 10
6099.996142102405
 20
86.56494511667978
 10
6101.433267415577
 20
88.00207042985076
 10
6101.433267415577
 20
90.85921328699365
 10
6106.491846059339
 20
95.91779193075611
 10
6109.348988916482
 20
95.91779193075611
 10
6110.818981701291
 20
97.38778471556486
 10
6112.2889744860995
 20
95.91779193075611
 10
6120.860403057528
 20
95.91779193075611
 10
6122.2889744861
 20
94.48922050218478
 10
6125.146117343243
 20
94.48922050218478
 10
6131.6332674155765
 20
88.00207042985076
 10
6131.6332674155765
 20
85.14492757270786
 10
6133.103260200385
 20
83.674934787899
 10
6131.6332674155765
 20
82.20494200309014
 10
6131.6332674155765
 20
79.34779914594748
 10
6126.580407867656
 20
74.29493959802657
 10
6111.530452436112
 20
72.14494596494869
 10
6107.912537636691
 20
72.86852892483276
  0
LWPOLYLINE
  5
61
330
17
100
AcDbEntity
  8
K
100
AcDbPolyline
 90
60
 70
1
 10
5625.718981701291
 20
73.6335134316617
 10
5625.718981701291
 20
75.06208486023303
 10
5608.5761245584345
 20
92.20494200309027
 10
5608.5761245584345
 20
95.06208486023304
 10
5607.106131773625
 20
96.53207764504191
 10
5608.5761245584345
 20
98.00207042985065
 10
5608.5761245584345
 20
100.85921328699354
 10
5613.634703202196
 20
105.91779193075612
 10
5616.491846059339
 20
105.91779193075612
 10
5622.206131773625
 20
111.6320776450419
 10
5625.063274630767
 20
111.6320776450419
 10
5626.502592443099
 20
113.0713954573731
 10
5637.950204499835
 20
110.209492443189
 10
5643.645917754059
 20
113.05734907030063
 10
5653.711479897493
 20
114.4952865193628
 10
5655.146117343243
 20
113.06064907361323
 10
5663.717545914671
 20
113.06064907361323
 10
5665.146117343243
 20
111.6320776450419
 10
5668.003260200386
 20
111.6320776450419
 10
5670.860403057528
 20
108.77493478789901
 10
5673.717545914671
 20
108.77493478789901
 10
5675.146117343243
 20
107.34636335932757
 10
5686.574688771814
 20
107.34636335932757
 10
5688.003260200386
 20
105.91779193075612
 10
5708.003260200386
 20
105.91779193075612
 10
5709.431831628957
 20
104.48922050218479
 10
5715.063274630767
 20
104.48922050218479
 10
5716.49184605934
 20
105.91779193075612
 10
5729.431831628956
 20
105.91779193075612
 10
5730.867032078169
 20
104.48259148154327
 10
5739.438460649599
 20
103.05402005297171
 10
5755.918981701291
 20
86.5734990012793
 10
5755.918981701291
 20
83.71635614413631
 10
5757.3889744861
 20
82.24636335932756
 10
5755.918981701291
 20
80.77637057451881
 10
5755.918981701291
 20
77.91922771737592
 10
5750.860403057528
 20
72.86064907361333
 10
5748.003260200386
 20
72.86064907361333
 10
5746.574688771813
 20
71.43207764504189
 10
5739.348988916482
 20
71.43207764504189
 10
5737.9204174879105
 20
72.86064907361333
 10
5728.003260200386
 20
72.86064907361333
 10
5726.574688771814
 20
71.43207764504189
 10
5723.634703202197
 20
71.43207764504189
 10
5722.206131773625
 20
72.86064907361333
 10
5709.348988916482
 20
72.86064907361333
 10
5707.914698392069
 20
74.29493959802646
 10
5697.914698392068
 20
75.7235110265978
 10
5696.491846059339
 20
77.14636335932757
 10
5692.2889744860995
 20
77.14636335932757
 10
5690.860403057529
 20
75.71779193075612
 10
5687.995172177481
 20
75.71779193075612
 10
5682.313238554812
 20
71.45634171375403
 10
5673.717545914671
 20
62.86064907361333
 10
5670.860403057528
 20
62.86064907361333
 10
5669.431831628957
 20
61.432077645041886
 10
5662.2889744861
 20
61.432077645041886
 10
5660.857782862798
 20
60.00088602173959
 10
5637.91786419444
 20
61.43463093851187
 10
5625.718981701291
 20
73.6335134316617
  0
ENDSEC
  0
SECTION
  2
OBJECTS
  0
DICTIONARY
  5
A
330
0
100
AcDbDictionary
281
1
  3
ACAD_COLOR
350
B
  3
ACAD_GROUP
350
C
  3
ACAD_LAYOUT
350
D
  3
ACAD_MATERIAL
350
E
  3
ACAD_MLEADERSTYLE
350
F
  3
ACAD_MLINESTYLE
350
10
  3
ACAD_PLOTSETTINGS
350
11
  3
ACAD_PLOTSTYLENAME
350
12
  3
ACAD_SCALELIST
350
14
  3
ACAD_TABLESTYLE
350
15
  3
ACAD_VISUALSTYLE
350
16
  3
EZDXF_META
350
2D
  0
DICTIONARY
  5
B
330
A
100
AcDbDictionary
281
1
  0
DICTIONARY
  5
C
330
A
100
AcDbDictionary
281
1
  0
DICTIONARY
  5
D
330
A
100
AcDbDictionary
281
1
  3
Model
350
1A
  3
Layout1
350
1E
  0
DICTIONARY
  5
E
330
A
100
AcDbDictionary
281
1
  3
ByBlock
350
1F
  3
ByLayer
350
20
  3
Global
350
21
  0
DICTIONARY
  5
F
330
A
100
AcDbDictionary
281
1
  3
Standard
350
2C
  0
DICTIONARY
  5
10
330
A
100
AcDbDictionary
281
1
  3
Standard
350
22
  0
DICTIONARY
  5
11
330
A
100
AcDbDictionary
281
1
  0
ACDBDICTIONARYWDFLT
  5
12
330
A
100
AcDbDictionary
281
1
  3
Normal
350
13
100
AcDbDictionaryWithDefault
340
13
  0
ACDBPLACEHOLDER
  5
13
330
12
  0
DICTIONARY
  5
14
330
A
100
AcDbDictionary
281
1
  0
DICTIONARY
  5
15
330
A
100
AcDbDictionary
281
1
  0
DICTIONARY
  5
16
330
A
100
AcDbDictionary
281
1
  0
LAYOUT
  5
1A
330
D
100
AcDbPlotSettings
  1

  4
A3
  6

 40
7.5
 41
20.0
 42
7.5
 43
20.0
 44
420.0
 45
297.0
 46
0.0
 47
0.0
 48
0.0
 49
0.0
140
0.0
141
0.0
142
1.0
143
1.0
 70
1024
 72
1
 73
0
 74
5
  7

 75
16
 76
0
 77
2
 78
300
147
1.0
148
0.0
149
0.0
100
AcDbLayout
  1
Model
 70
1
 71
0
 10
0.0
 20
0.0
 11
420.0
 21
297.0
 12
0.0
 22
0.0
 32
0.0
 14
1e+20
 24
1e+20
 34
1e+20
 15
-1e+20
 25
-1e+20
 35
-1e+20
146
0.0
 13
0.0
 23
0.0
 33
0.0
 16
1.0
 26
0.0
 36
0.0
 17
0.0
 27
1.0
 37
0.0
 76
1
330
17
  0
LAYOUT
  5
1E
330
D
100
AcDbPlotSettings
  1

  4
A3
  6

 40
7.5
 41
20.0
 42
7.5
 43
20.0
 44
420.0
 45
297.0
 46
0.0
 47
0.0
 48
0.0
 49
0.0
140
0.0
141
0.0
142
1.0
143
1.0
 70
0
 72
1
 73
0
 74
5
  7

 75
16
 76
0
 77
2
 78
300
147
1.0
148
0.0
149
0.0
100
AcDbLayout
  1
Layout1
 70
1
 71
1
 10
0.0
 20
0.0
 11
420.0
 21
297.0
 12
0.0
 22
0.0
 32
0.0
 14
1e+20
 24
1e+20
 34
1e+20
 15
-1e+20
 25
-1e+20
 35
-1e+20
146
0.0
 13
0.0
 23
0.0
 33
0.0
 16
1.0
 26
0.0
 36
0.0
 17
0.0
 27
1.0
 37
0.0
 76
1
330
1B
  0
MATERIAL
  5
1F
102
{ACAD_REACTORS
330
E
102
}
330
E
100
AcDbMaterial
  1
ByBlock
  2

 70
0
 40
1.0
 71
1
 41
1.0
 91
-1023410177
 42
1.0
 72
1
  3

 73
1
 74
1
 75
1
 44
0.5
 73
0
 45
1.0
 46
1.0
 77
1
  4

 78
1
 79
1
170
1
 48
1.0
171
1
  6

172
1
173
1
174
1
140
1.0
141
1.0
175
1
  7

176
1
177
1
178
1
143
1.0
179
1
  8

270
1
271
1
272
1
145
1.0
146
1.0
273
1
  9

274
1
275
1
276
1
 42
1.0
 72
1
  3

 73
1
 74
1
 75
1
 94
63
  0
MATERIAL
  5
20
102
{ACAD_REACTORS
330
E
102
}
330
E
100
AcDbMaterial
  1
ByLayer
  2

 70
0
 40
1.0
 71
1
 41
1.0
 91
-1023410177
 42
1.0
 72
1
  3

 73
1
 74
1
 75
1
 44
0.5
 73
0
 45
1.0
 46
1.0
 77
1
  4

 78
1
 79
1
170
1
 48
1.0
171
1
  6

172
1
173
1
174
1
140
1.0
141
1.0
175
1
  7

176
1
177
1
178
1
143
1.0
179
1
  8

270
1
271
1
272
1
145
1.0
146
1.0
273
1
  9

274
1
275
1
276
1
 42
1.0
 72
1
  3

 73
1
 74
1
 75
1
 94
63
  0
MATERIAL
  5
21
102
{ACAD_REACTORS
330
E
102
}
330
E
100
AcDbMaterial
  1
Global
  2

 70
0
 40
1.0
 71
1
 41
1.0
 91
-1023410177
 42
1.0
 72
1
  3

 73
1
 74
1
 75
1
 44
0.5
 73
0
 45
1.0
 46
1.0
 77
1
  4

 78
1
 79
1
170
1
 48
1.0
171
1
  6

172
1
173
1
174
1
140
1.0
141
1.0
175
1
  7

176
1
177
1
178
1
143
1.0
179
1
  8

270
1
271
1
272
1
145
1.0
146
1.0
273
1
  9

274
1
275
1
276
1
 42
1.0
 72
1
  3

 73
1
 74
1
 75
1
 94
63
  0
MLINESTYLE
  5
22
102
{ACAD_REACTORS
330
10
102
}
330
10
100
AcDbMlineStyle
  2
Standard
 70
0
  3

 62
256
 51
90.0
 52
90.0
 71
2
 49
0.5
 62
256
  6
BYLAYER
 49
-0.5
 62
256
  6
BYLAYER
  0
MLEADERSTYLE
  5
2C
102
{ACAD_REACTORS
330
F
102
}
330
F
100
AcDbMLeaderStyle
179
2
170
2
171
1
172
0
 90
2
 40
0.0
 41
0.0
173
1
 91
-1056964608
 92
-2
290
1
 42
2.0
291
1
 43
8.0
  3
Standard
 44
4.0
300

342
29
174
1
175
1
176
0
178
1
 93
-1056964608
 45
4.0
292
0
297
0
 46
4.0
 94
-1056964608
 47
1.0
 49
1.0
140
1.0
294
1
141
0.0
177
0
142
1.0
295
0
296
0
143
3.75
271
0
272
9
273
9
  0
DICTIONARY
  5
2D
330
A
100
AcDbDictionary
280
1
281
1
  3
CREATED_BY_EZDXF
350
2E
  3
WRITTEN_BY_EZDXF
350
64
  0
DICTIONARYVAR
  5
2E
330
2D
100
DictionaryVariables
280
0
  1
1.4.4 @ 2026-07-26T13:36:22.569102+00:00
  0
DICTIONARYVAR
  5
64
330
2D
100
DictionaryVariables
280
0
  1
1.4.4 @ 2026-07-26T13:36:22.577454+00:00
  0
ENDSEC
  0
EOF
