  0
SECTION
  2
HEADER
  9
$ACADVER
  1
AC1027
  9
$ACADMAINTVER
 70
105
  9
$DWGCODEPAGE
  3
ANSI_1252
  9
$LASTSAVEDBY
  1
ezdxf
  9
$REQUIREDVERSIONS
160
0
  9
$INSBASE
 10
0.0
 20
0.0
 30
0.0
  9
$EXTMIN
 10
1e+20
 20
1e+20
 30
1e+20
  9
$EXTMAX
 10
-1e+20
 20
-1e+20
 30
-1e+20
  9
$LIMMIN
 10
0.0
 20
0.0
  9
$LIMMAX
 10
420.0
 20
297.0
  9
$ORTHOMODE
 70
0
  9
$REGENMODE
 70
1
  9
$FILLMODE
 70
1
  9
$QTEXTMODE
 70
0
  9
$MIRRTEXT
 70
1
  9
$LTSCALE
 40
1.0
  9
$ATTMODE
 70
1
  9
$TEXTSIZE
 40
2.5
  9
$TRACEWID
 40
1.0
  9
$TEXTSTYLE
  7
Standard
  9
$CLAYER
  8
0
  9
$CELTYPE
  6
ByLayer
  9
$CECOLOR
 62
256
  9
$CELTSCALE
 40
1.0
  9
$DISPSILH
 70
0
  9
$DIMSCALE
 40
1.0
  9
$DIMASZ
 40
2.5
  9
$DIMEXO
 40
0.625
  9
$DIMDLI
 40
3.75
  9
$DIMRND
 40
0.0
  9
$DIMDLE
 40
0.0
  9
$DIMEXE
 40
1.25
  9
$DIMTP
 40
0.0
  9
$DIMTM
 40
0.0
  9
$DIMTXT
 40
2.5
  9
$DIMCEN
 40
2.5
  9
$DIMTSZ
 40
0.0
  9
$DIMTOL
 70
0
  9
$DIMLIM
 70
0
  9
$DIMTIH
 70
0
  9
$DIMTOH
 70
0
  9
$DIMSE1
 70
0
  9
$DIMSE2
 70
0
  9
$DIMTAD
 70
1
  9
$DIMZIN
 70
8
  9
$DIMBLK
  1

  9
$DIMASO
 70
1
  9
$DIMSHO
 70
1
  9
$DIMPOST
  1

  9
$DIMAPOST
  1

  9
$DIMALT
 70
0
  9
$DIMALTD
 70
3
  9
$DIMALTF
 40
0.03937007874
  9
$DIMLFAC
 40
1.0
  9
$DIMTOFL
 70
1
  9
$DIMTVP
 40
0.0
  9
$DIMTIX
 70
0
  9
$DIMSOXD
 70
0
  9
$DIMSAH
 70
0
  9
$DIMBLK1
  1

  9
$DIMBLK2
  1

  9
$DIMSTYLE
  2
ISO-25
  9
$DIMCLRD
 70
0
  9
$DIMCLRE
 70
0
  9
$DIMCLRT
 70
0
  9
$DIMTFAC
 40
1.0
  9
$DIMGAP
 40
0.625
  9
$DIMJUST
 70
0
  9
$DIMSD1
 70
0
  9
$DIMSD2
 70
0
  9
$DIMTOLJ
 70
0
  9
$DIMTZIN
 70
8
  9
$DIMALTZ
 70
0
  9
$DIMALTTZ
 70
0
  9
$DIMUPT
 70
0
  9
$DIMDEC
 70
2
  9
$DIMTDEC
 70
2
  9
$DIMALTU
 70
2
  9
$DIMALTTD
 70
3
  9
$DIMTXSTY
  7
Standard
  9
$DIMAUNIT
 70
0
  9
$DIMADEC
 70
0
  9
$DIMALTRND
 40
0.0
  9
$DIMAZIN
 70
0
  9
$DIMDSEP
 70
44
  9
$DIMATFIT
 70
3
  9
$DIMFRAC
 70
0
  9
$DIMLDRBLK
  1

  9
$DIMLUNIT
 70
2
  9
$DIMLWD
 70
-2
  9
$DIMLWE
 70
-2
  9
$DIMTMOVE
 70
0
  9
$DIMFXL
 40
1.0
  9
$DIMFXLON
 70
0
  9
$DIMJOGANG
 40
0.785398163397
  9
$DIMTFILL
 70
0
  9
$DIMTFILLCLR
 70
0
  9
$DIMARCSYM
 70
0
  9
$DIMLTYPE
  6

  9
$DIMLTEX1
  6

  9
$DIMLTEX2
  6

  9
$DIMTXTDIRECTION
 70
0
  9
$LUNITS
 70
2
  9
$LUPREC
 70
4
  9
$SKETCHINC
 40
1.0
  9
$FILLETRAD
 40
10.0
  9
$AUNITS
 70
0
  9
$AUPREC
 70
2
  9
$MENU
  1
.
  9
$ELEVATION
 40
0.0
  9
$PELEVATION
 40
0.0
  9
$THICKNESS
 40
0.0
  9
$LIMCHECK
 70
0
  9
$CHAMFERA
 40
0.0
  9
$CHAMFERB
 40
0.0
  9
$CHAMFERC
 40
0.0
  9
$CHAMFERD
 40
0.0
  9
$SKPOLY
 70
0
  9
$TDCREATE
 40
2461248.691921296
  9
$TDUCREATE
 40
2458532.153996898
  9
$TDUPDATE
 40
2461248.691921296
  9
$TDUUPDATE
 40
2458532.1544311
  9
$TDINDWG
 40
0.0
  9
$TDUSRTIMER
 40
0.0
  9
$USRTIMER
 70
1
  9
$ANGBASE
 50
0.0
  9
$ANGDIR
 70
0
  9
$PDMODE
 70
0
  9
$PDSIZE
 40
0.0
  9
$PLINEWID
 40
0.0
  9
$SPLFRAME
 70
0
  9
$SPLINETYPE
 70
6
  9
$SPLINESEGS
 70
8
  9
$HANDSEED
  5
63
  9
$SURFTAB1
 70
6
  9
$SURFTAB2
 70
6
  9
$SURFTYPE
 70
6
  9
$SURFU
 70
6
  9
$SURFV
 70
6
  9
$UCSBASE
  2

  9
$UCSNAME
  2

  9
$UCSORG
 10
0.0
 20
0.0
 30
0.0
  9
$UCSXDIR
 10
1.0
 20
0.0
 30
0.0
  9
$UCSYDIR
 10
0.0
 20
1.0
 30
0.0
  9
$UCSORTHOREF
  2

  9
$UCSORTHOVIEW
 70
0
  9
$UCSORGTOP
 10
0.0
 20
0.0
 30
0.0
  9
$UCSORGBOTTOM
 10
0.0
 20
0.0
 30
0.0
  9
$UCSORGLEFT
 10
0.0
 20
0.0
 30
0.0
  9
$UCSORGRIGHT
 10
0.0
 20
0.0
 30
0.0
  9
$UCSORGFRONT
 10
0.0
 20
0.0
 30
0.0
  9
$UCSORGBACK
 10
0.0
 20
0.0
 30
0.0
  9
$PUCSBASE
  2

  9
$PUCSNAME
  2

  9
$PUCSORG
 10
0.0
 20
0.0
 30
0.0
  9
$PUCSXDIR
 10
1.0
 20
0.0
 30
0.0
  9
$PUCSYDIR
 10
0.0
 20
1.0
 30
0.0
  9
$PUCSORTHOREF
  2

  9
$PUCSORTHOVIEW
 70
0
  9
$PUCSORGTOP
 10
0.0
 20
0.0
 30
0.0
  9
$PUCSORGBOTTOM
 10
0.0
 20
0.0
 30
0.0
  9
$PUCSORGLEFT
 10
0.0
 20
0.0
 30
0.0
  9
$PUCSORGRIGHT
 10
0.0
 20
0.0
 30
0.0
  9
$PUCSORGFRONT
 10
0.0
 20
0.0
 30
0.0
  9
$PUCSORGBACK
 10
0.0
 20
0.0
 30
0.0
  9
$USERI1
 70
0
  9
$USERI2
 70
0
  9
$USERI3
 70
0
  9
$USERI4
 70
0
  9
$USERI5
 70
0
  9
$USERR1
 40
0.0
  9
$USERR2
 40
0.0
  9
$USERR3
 40
0.0
  9
$USERR4
 40
0.0
  9
$USERR5
 40
0.0
  9
$WORLDVIEW
 70
1
  9
$SHADEDGE
 70
3
  9
$SHADEDIF
 70
70
  9
$TILEMODE
 70
1
  9
$MAXACTVP
 70
64
  9
$PINSBASE
 10
0.0
 20
0.0
 30
0.0
  9
$PLIMCHECK
 70
0
  9
$PEXTMIN
 10
1e+20
 20
1e+20
 30
1e+20
  9
$PEXTMAX
 10
-1e+20
 20
-1e+20
 30
-1e+20
  9
$PLIMMIN
 10
0.0
 20
0.0
  9
$PLIMMAX
 10
420.0
 20
297.0
  9
$UNITMODE
 70
0
  9
$VISRETAIN
 70
1
  9
$PLINEGEN
 70
0
  9
$PSLTSCALE
 70
1
  9
$TREEDEPTH
 70
3020
  9
$CMLSTYLE
  2
Standard
  9
$CMLJUST
 70
0
  9
$CMLSCALE
 40
20.0
  9
$PROXYGRAPHICS
 70
1
  9
$MEASUREMENT
 70
1
  9
$CELWEIGHT
370
-1
  9
$ENDCAPS
280
0
  9
$JOINSTYLE
280
0
  9
$LWDISPLAY
290
0
  9
$INSUNITS
 70
4
  9
$HYPERLINKBASE
  1

  9
$STYLESHEET
  1

  9
$XEDIT
290
1
  9
$CEPSNTYPE
380
0
  9
$PSTYLEMODE
290
1
  9
$FINGERPRINTGUID
  2
{48E2E5BC-13F7-4163-BE4E-2265AD8E6387}
  9
$VERSIONGUID
  2
{B5461BC8-99D4-4F3C-B1E3-99024F18F75E}
  9
$EXTNAMES
290
1
  9
$PSVPSCALE
 40
0.0
  9
$OLESTARTUP
290
0
  9
$SORTENTS
280
127
  9
$INDEXCTL
280
0
  9
$HIDETEXT
280
1
  9
$XCLIPFRAME
280
1
  9
$HALOGAP
280
0
  9
$OBSCOLOR
 70
257
  9
$OBSLTYPE
280
0
  9
$INTERSECTIONDISPLAY
280
0
  9
$INTERSECTIONCOLOR
 70
257
  9
$DIMASSOC
280
2
  9
$PROJECTNAME
  1

  9
$CAMERADISPLAY
290
0
  9
$LENSLENGTH
 40
50.0
  9
$CAMERAHEIGHT
 40
0.0
  9
$STEPSPERSEC
 40
24.0
  9
$STEPSIZE
 40
100.0
  9
$3DDWFPREC
 40
2.0
  9
$PSOLWIDTH
 40
0.005
  9
$PSOLHEIGHT
 40
0.08
  9
$LOFTANG1
 40
1.570796326795
  9
$LOFTANG2
 40
1.570796326795
  9
$LOFTMAG1
 40
0.0
  9
$LOFTMAG2
 40
0.0
  9
$LOFTPARAM
 70
7
  9
$LOFTNORMALS
280
1
  9
$LATITUDE
 40
37.795
  9
$LONGITUDE
 40
-122.394
  9
$NORTHDIRECTION
 40
0.0
  9
$TIMEZONE
 70
-8000
  9
$LIGHTGLYPHDISPLAY
280
1
  9
$TILEMODELIGHTSYNCH
280
1
  9
$CMATERIAL
347
20
  9
$SOLIDHIST
280
0
  9
$SHOWHIST
280
1
  9
$DWFFRAME
280
2
  9
$DGNFRAME
280
2
  9
$REALWORLDSCALE
290
1
  9
$INTERFERECOLOR
 62
256
  9
$CSHADOW
280
0
  9
$SHADOWPLANELOCATION
 40
0.0
  0
ENDSEC
  0
SECTION
  2
CLASSES
  0
CLASS
  1
ACDBDICTIONARYWDFLT
  2
AcDbDictionaryWithDefault
  3
ObjectDBX Classes
 90
0
 91
0
280
0
281
0
  0
CLASS
  1
SUN
  2
AcDbSun
  3
SCENEOE
 90
1153
 91
0
280
0
281
0
  0
CLASS
  1
VISUALSTYLE
  2
AcDbVisualStyle
  3
ObjectDBX Classes
 90
4095
 91
0
280
0
281
0
  0
CLASS
  1
MATERIAL
  2
AcDbMaterial
  3
ObjectDBX Classes
 90
1153
 91
0
280
0
281
0
  0
CLASS
  1
SCALE
  2
AcDbScale
  3
ObjectDBX Classes
 90
1153
 91
0
280
0
281
0
  0
CLASS
  1
TABLESTYLE
  2
AcDbTableStyle
  3
ObjectDBX Classes
 90
4095
 91
0
280
0
281
0
  0
CLASS
  1
MLEADERSTYLE
  2
AcDbMLeaderStyle
  3
ACDB_MLEADERSTYLE_CLASS
 90
4095
 91
0
280
0
281
0
  0
CLASS
  1
DICTIONARYVAR
  2
AcDbDictionaryVar
  3
ObjectDBX Classes
 90
0
 91
0
280
0
281
0
  0
CLASS
  1
CELLSTYLEMAP
  2
AcDbCellStyleMap
  3
ObjectDBX Classes
 90
1152
 91
0
280
0
281
0
  0
CLASS
  1
MENTALRAYRENDERSETTINGS
  2
AcDbMentalRayRenderSettings
  3
SCENEOE
 90
1024
 91
0
280
0
281
0
  0
CLASS
  1
ACDBDETAILVIEWSTYLE
  2
AcDbDetailViewStyle
  3
ObjectDBX Classes
 90
1025
 91
0
280
0
281
0
  0
CLASS
  1
ACDBSECTIONVIEWSTYLE
  2
AcDbSectionViewStyle
  3
ObjectDBX Classes
 90
1025
 91
0
280
0
281
0
  0
CLASS
  1
RASTERVARIABLES
  2
AcDbRasterVariables
  3
ISM
 90
0
 91
0
280
0
281
0
  0
CLASS
  1
ACDBPLACEHOLDER
  2
AcDbPlaceHolder
  3
ObjectDBX Classes
 90
0
 91
0
280
0
281
0
  0
CLASS
  1
LAYOUT
  2
AcDbLayout
  3
ObjectDBX Classes
 90
0
 91
0
280
0
281
0
  0
ENDSEC
  0
SECTION
  2
TABLES
  0
TABLE
  2
VPORT
  5
8
330
0
100
AcDbSymbolTable
 70
1
  0
VPORT
  5
23
330
8
100
AcDbSymbolTableRecord
100
AcDbViewportTableRecord
  2
*Active
 70
0
 10
0.0
 20
0.0
 11
1.0
 21
1.0
 12
0.0
 22
0.0
 13
0.0
 23
0.0
 14
0.5
 24
0.5
 15
0.5
 25
0.5
 16
0.0
 26
0.0
 36
1.0
 17
0.0
 27
0.0
 37
0.0
 40
1000.0
 41
1.34
 42
50.0
 43
0.0
 44
0.0
 50
0.0
 51
0.0
 71
0
 72
1000
 73
1
 74
3
 75
0
 76
0
 77
0
 78
0
281
0
 65
0
146
0.0
  0
ENDTAB
  0
TABLE
  2
LTYPE
  5
2
330
0
100
AcDbSymbolTable
 70
3
  0
LTYPE
  5
24
330
2
100
AcDbSymbolTableRecord
100
AcDbLinetypeTableRecord
  2
ByBlock
 70
0
  3

 72
65
 73
0
 40
0.0
  0
LTYPE
  5
25
330
2
100
AcDbSymbolTableRecord
100
AcDbLinetypeTableRecord
  2
ByLayer
 70
0
  3

 72
65
 73
0
 40
0.0
  0
LTYPE
  5
26
330
2
100
AcDbSymbolTableRecord
100
AcDbLinetypeTableRecord
  2
Continuous
 70
0
  3

 72
65
 73
0
 40
0.0
  0
ENDTAB
  0
TABLE
  2
LAYER
  5
1
330
0
100
AcDbSymbolTable
 70
3
  0
LAYER
  5
27
330
1
100
AcDbSymbolTableRecord
100
AcDbLayerTableRecord
  2
0
 70
0
 62
7
  6
Continuous
370
-3
390
13
347
21
  0
LAYER
  5
28
330
1
100
AcDbSymbolTableRecord
100
AcDbLayerTableRecord
  2
Defpoints
 70
0
 62
7
  6
Continuous
290
0
370
-3
390
13
347
21
  0
LAYER
  5
2F
330
1
100
AcDbSymbolTableRecord
100
AcDbLayerTableRecord
  2
Y
 70
0
 62
7
  6
Continuous
370
-3
390
13
347
21
  0
ENDTAB
  0
TABLE
  2
STYLE
  5
5
330
0
100
AcDbSymbolTable
 70
1
  0
STYLE
  5
29
330
5
100
AcDbSymbolTableRecord
100
AcDbTextStyleTableRecord
  2
Standard
 70
0
 40
0.0
 41
1.0
 50
0.0
 71
0
 42
2.5
  3
txt
  4

  0
ENDTAB
  0
TABLE
  2
VIEW
  5
7
330
0
100
AcDbSymbolTable
 70
0
  0
ENDTAB
  0
TABLE
  2
UCS
  5
6
330
0
100
AcDbSymbolTable
 70
0
  0
ENDTAB
  0
TABLE
  2
APPID
  5
3
330
0
100
AcDbSymbolTable
 70
3
  0
APPID
  5
2A
330
3
100
AcDbSymbolTableRecord
100
AcDbRegAppTableRecord
  2
ACAD
 70
0
  0
APPID
  5
60
330
3
100
AcDbSymbolTableRecord
100
AcDbRegAppTableRecord
  2
HATCHBACKGROUNDCOLOR
 70
0
  0
APPID
  5
61
330
3
100
AcDbSymbolTableRecord
100
AcDbRegAppTableRecord
  2
EZDXF
 70
0
  0
ENDTAB
  0
TABLE
  2
DIMSTYLE
  5
4
330
0
100
AcDbSymbolTable
 70
1
100
AcDbDimStyleTable
  0
DIMSTYLE
105
2B
330
4
100
AcDbSymbolTableRecord
100
AcDbDimStyleTableRecord
  2
Standard
 70
0
 40
1.0
 41
2.5
 42
0.625
 43
3.75
 44
1.25
 45
0.0
 46
0.0
 47
0.0
 48
0.0
 49
2.5
140
2.5
141
2.5
142
0.0
143
0.03937007874
144
1.0
145
0.0
146
1.0
147
0.625
148
0.0
 69
0
 70
0
 71
0
 72
0
 73
0
 74
0
 75
0
 76
0
 77
1
 78
8
 79
3
170
0
171
3
172
1
173
0
174
0
175
0
176
0
177
0
178
0
179
2
271
2
272
2
273
2
274
3
275
0
276
0
277
2
278
44
279
0
280
0
281
0
282
0
283
0
284
8
285
0
286
0
288
0
289
3
290
0
371
-2
372
-2
  0
ENDTAB
  0
TABLE
  2
BLOCK_RECORD
  5
9
330
0
100
AcDbSymbolTable
 70
2
  0
BLOCK_RECORD
  5
17
330
9
100
AcDbSymbolTableRecord
100
AcDbBlockTableRecord
  2
*Model_Space
340
1A
 70
0
280
1
281
0
  0
BLOCK_RECORD
  5
1B
330
9
100
AcDbSymbolTableRecord
100
AcDbBlockTableRecord
  2
*Paper_Space
340
1E
 70
0
280
1
281
0
  0
ENDTAB
  0
ENDSEC
  0
SECTION
  2
BLOCKS
  0
BLOCK
  5
18
330
17
100
AcDbEntity
  8
0
100
AcDbBlockBegin
  2
*Model_Space
 70
0
 10
0.0
 20
0.0
 30
0.0
  3
*Model_Space
  1

  0
ENDBLK
  5
19
330
17
100
AcDbEntity
  8
0
100
AcDbBlockEnd
  0
BLOCK
  5
1C
330
1B
100
AcDbEntity
  8
0
100
AcDbBlockBegin
  2
*Paper_Space
 70
0
 10
0.0
 20
0.0
 30
0.0
  3
*Paper_Space
  1

  0
ENDBLK
  5
1D
330
1B
100
AcDbEntity
  8
0
100
AcDbBlockEnd
  0
ENDSEC
  0
SECTION
  2
ENTITIES
  0
LWPOLYLINE
  5
30
330
17
100
AcDbEntity
  8
Y
100
AcDbPolyline
 90
60
 70
1
 10
242.96649959321704
 20
269.3050568823231
 10
219.3502802722964
 20
277.17712998929653
 10
212.89050240565953
 20
283.6369078559339
 10
210.03335954851644
 20
290.779764998791
 10
205.0771627816923
 20
295.7359617656149
 10
202.2200199245501
 20
295.7359617656149
 10
200.79406869070925
 20
297.1619129994553
 10
178.01970164477953
 20
295.7385150590849
 10
176.59520594337997
 20
294.31401935768486
 10
168.0237773719515
 20
292.8854479291135
 10
161.6323801559143
 20
286.4940507130768
 10
158.77523729877163
 20
279.35119357021966
 10
153.7411376634874
 20
274.3170939349352
 10
147.94505202259555
 20
272.86807252471226
 10
146.50573421026402
 20
274.30739033704333
 10
143.6485913531209
 20
274.30739033704333
 10
140.78481947533695
 20
277.17116221482775
 10
132.21339090390805
 20
278.5997336433991
 10
130.79144849597802
 20
280.0216760513291
 10
117.93430563883511
 20
280.0216760513291
 10
116.50573421026422
 20
281.45024747990044
 10
113.65338192421382
 20
281.45024747990044
 10
104.31308015084673
 20
289.3535797496728
 10
102.88360684629217
 20
296.5009462724436
 10
96.50573421026377
 20
302.878818908472
 10
93.64859135312109
 20
302.878818908472
 10
92.22001992454976
 20
304.30739033704333
 10
86.56837701154618
 20
304.30739033704333
 10
73.68504857225622
 20
298.58146658624776
 10
60.806957249395666
 20
305.73596176561466
 10
46.588576922738326
 20
305.73596176561466
 10
45.160005494167436
 20
304.30739033704333
 10
32.30286263702409
 20
304.30739033704333
 10
30.874291208452753
 20
302.878818908472
 10
16.588576922738298
 20
302.878818908472
 10
15.160005494166962
 20
301.45024747990044
 10
10.79144849597835
 20
301.45024747990044
 10
9.362877067406794
 20
302.878818908472
 10
6.505734210264125
 20
302.878818908472
 10
1.4471555665012126
 20
307.9373975522347
 10
1.4471555665012126
 20
310.7945404093776
 10
0.0
 20
312.24169597587905
 10
4.319970113175309
 20
322.3216262399545
 10
7.179255839274035
 20
325.18091196605326
 10
11.452803684095292
 20
333.7280076556962
 10
12.88543059296443
 20
339.45851529117255
 10
17.93430563883547
 20
344.5073903370434
 10
20.791448495978358
 20
344.5073903370434
 10
22.220019924549696
 20
345.9359617656147
 10
243.73143406559583
 20
345.9359617656147
 10
245.1600054941667
 20
344.5073903370434
 10
248.01714835131028
 20
344.5073903370434
 10
253.07572699507296
 20
339.44881169328045
 10
253.07572699507296
 20
336.59166883613756
 10
254.50429842364431
 20
335.163097407566
 10
254.50429842364431
 20
279.36596898080643
 10
253.07572699507296
 20
277.9373975522349
 10
253.07572699507296
 20
275.080254695092
 10
248.02286744715164
 20
270.0273951471707
 10
242.96649959321704
 20
269.3050568823231
  0
LWPOLYLINE
  5
31
330
17
100
AcDbEntity
  8
Y
100
AcDbPolyline
 90
40
 70
1
 10
927.1792558392744
 20
192.205297279462
 10
922.89354155356
 20
200.77672585089047
 10
917.1711448786785
 20
206.49912252577184
 10
915.7425734501072
 20
212.21340824005765
 10
907.9246020409437
 20
220.03137964922092
 10
902.2921162532645
 20
221.43950109614084
 10
900.8742912084524
 20
220.02167605132905
 10
890.7914484959782
 20
220.02167605132905
 10
889.3628770674069
 20
221.4502474799006
 10
886.5005569447626
 20
221.4502474799006
 10
871.4471555665014
 20
239.37096340640264
 10
871.4471555665014
 20
242.22311183794932
 10
869.9771627816925
 20
243.69310462275763
 10
871.4471555665014
 20
245.16309740756614
 10
871.4471555665014
 20
248.0161222410967
 10
880.7872069639409
 20
258.7931046227575
 10
883.6485913531211
 20
258.7931046227575
 10
885.0771627816924
 20
260.22167605132904
 10
895.0771627816927
 20
260.22167605132904
 10
896.505734210264
 20
261.6502474799006
 10
905.1600054941673
 20
261.6502474799006
 10
906.5885769227386
 20
260.22167605132904
 10
909.4485354122561
 20
260.22167605132904
 10
923.7418797062489
 20
244.4989973279371
 10
930.8821710596721
 20
243.07093905725242
 10
933.7314340655957
 20
240.22167605132904
 10
936.588576922738
 20
240.22167605132904
 10
938.0171483513097
 20
238.7931046227577
 10
940.8742912084524
 20
238.7931046227577
 10
948.7900127093587
 20
230.8773831218517
 10
948.7900127093587
 20
228.0202402647088
 10
950.2185841379301
 20
226.59166883613747
 10
950.2185841379301
 20
196.50882612366348
 10
948.7900127093587
 20
195.08025469509215
 10
948.7900127093587
 20
192.22311183794926
 10
943.7314340655955
 20
187.16453319418636
 10
940.8742912084529
 20
187.16453319418636
 10
939.4371658952819
 20
185.72740788101527
 10
932.2121400733305
 20
187.17241304540588
 10
927.1792558392744
 20
192.205297279462
  0
LWPOLYLINE
  5
32
330
17
100
AcDbEntity
  8
Y
100
AcDbPolyline
 90
18
 70
1
 10
812.8757269950726
 20
83.65168326652072
 10
811.4057342102643
 20
85.12167605132903
 10
812.8757269950726
 20
86.59166883613733
 10
812.8757269950726
 20
89.44881169328023
 10
817.9343056388353
 20
94.50739033704336
 10
820.7914484959784
 20
94.50739033704336
 10
822.2614412807872
 20
95.97738312185189
 10
823.7314340655954
 20
94.50739033704336
 10
826.5885769227382
 20
94.50739033704336
 10
831.6471555665017
 20
89.44881169328023
 10
831.6471555665017
 20
86.59166883613733
 10
833.11714835131
 20
85.12167605132903
 10
831.6471555665017
 20
83.65168326652072
 10
831.6471555665017
 20
80.79454040937783
 10
826.5885769227382
 20
75.7359617656147
 10
817.9343056388353
 20
75.7359617656147
 10
812.8757269950726
 20
80.79454040937783
 10
812.8757269950726
 20
83.65168326652072
  0
LWPOLYLINE
  5
33
330
17
100
AcDbEntity
  8
Y
100
AcDbPolyline
 90
23
 70
1
 10
774.3042984236439
 20
9.365968980806215
 10
772.8343056388356
 20
10.835961765614744
 10
774.3042984236439
 20
12.30595455042327
 10
774.3042984236439
 20
15.163097407566163
 10
782.2200199245497
 20
23.078818908471852
 10
785.0771627816923
 20
23.078818908471852
 10
786.5057342102641
 20
24.5073903370433
 10
802.3028626370245
 20
24.5073903370433
 10
803.7314340655959
 20
23.078818908471852
 10
806.5885769227385
 20
23.078818908471852
 10
811.6471555665017
 20
18.020240264708942
 10
811.6471555665017
 20
15.163097407566163
 10
813.11714835131
 20
13.693104622757634
 10
811.6471555665017
 20
12.223111837949109
 10
811.6471555665017
 20
9.365968980806215
 10
806.5942960185804
 20
4.313109432884987
 10
796.5942960185805
 20
2.8845380043136526
 10
795.1600054941674
 20
1.4502474799004128
 10
789.4457197798816
 20
1.4502474799004128
 10
788.0100486928434
 20
0.014576392862397647
 10
779.3562480467652
 20
1.456876500541937
 10
774.3042984236439
 20
6.508826123663436
 10
774.3042984236439
 20
9.365968980806215
  0
LWPOLYLINE
  5
34
330
17
100
AcDbEntity
  8
Y
100
AcDbPolyline
 90
74
 70
1
 10
724.3179006284844
 20
229.35236677596637
 10
718.6036149141986
 20
245.06665249025218
 10
712.2200199245499
 20
251.4502474799004
 10
709.3680934301259
 20
251.4502474799004
 10
700.7855665524079
 20
258.6023532113325
 10
685.0766164357989
 20
262.8866123340442
 10
680.7938598831224
 20
265.7417833691617
 10
673.640711501902
 20
267.1724130454055
 10
672.2200199245498
 20
268.5931046227578
 10
665.1600054941671
 20
268.5931046227578
 10
663.7314340655957
 20
267.1645331941862
 10
660.7914484959784
 20
267.1645331941862
 10
659.3845531187363
 20
268.57142857142856
 10
656.5274102615932
 20
267.142857142857
 10
655.0988388330219
 20
268.57142857142856
 10
649.4042984236441
 20
265.7241583667397
 10
646.5669008714094
 20
267.142857142857
 10
645.1657245900088
 20
265.74168086145664
 10
635.1458194026301
 20
264.310265834688
 10
625.1391099081256
 20
260.0216760513291
 10
622.3028626370242
 20
260.0216760513291
 10
619.4554233777734
 20
257.1742367920781
 10
613.7411376634876
 20
255.74566536350673
 10
609.4554233777734
 20
251.45995107779228
 10
603.6593377368811
 20
250.01092966756931
 10
602.2200199245498
 20
251.4502474799004
 10
599.3628770674071
 20
251.4502474799004
 10
592.1977323396217
 20
258.61539220768583
 10
583.626303768193
 20
264.3296779219716
 10
572.205244513963
 20
275.75073717620194
 10
565.1114677448496
 20
278.588247883847
 10
559.4507438875722
 20
277.1730669195277
 10
550.8690748457336
 20
270.0216760513291
 10
548.0171483513099
 20
270.0216760513291
 10
546.5471555665014
 20
268.55168326652057
 10
545.0771627816928
 20
270.0216760513291
 10
542.2200199245499
 20
270.0216760513291
 10
534.3168952187547
 20
277.92480075712433
 10
532.8883237901831
 20
282.2105150428388
 10
528.5900127093586
 20
286.50882612366337
 10
528.5900127093586
 20
289.36596898080626
 10
527.1200199245499
 20
290.8359617656148
 10
528.5900127093586
 20
292.3059545504235
 10
528.5900127093586
 20
295.16309740756617
 10
533.6485913531212
 20
300.2216760513291
 10
536.5057342102641
 20
300.2216760513291
 10
537.9343056388357
 20
301.65024747990043
 10
563.7314340655956
 20
301.65024747990043
 10
565.11858413793
 20
300.2630974075663
 10
566.5057342102642
 20
301.65024747990043
 10
736.5885769227383
 20
301.65024747990043
 10
738.0171483513101
 20
300.2216760513291
 10
740.8742912084532
 20
300.2216760513291
 10
745.9249900009959
 20
295.1709772587859
 10
747.3662282449451
 20
287.96478603903853
 10
740.2402601892591
 20
273.7128499276657
 10
741.6471555665014
 20
272.3059545504233
 10
741.6471555665014
 20
269.45276715970255
 10
753.075726995073
 20
259.45276715970255
 10
753.075726995073
 20
256.5916688361375
 10
754.5259744749733
 20
255.14142135623698
 10
751.6688316178306
 20
249.4271356419514
 10
753.075726995073
 20
248.0202402647088
 10
753.075726995073
 20
245.16309740756614
 10
758.7900127093587
 20
239.44881169328036
 10
758.7900127093587
 20
236.59166883613747
 10
760.2600054941671
 20
235.12167605132893
 10
758.7900127093587
 20
233.65168326652065
 10
758.7900127093587
 20
230.79454040937776
 10
749.4457197798812
 20
221.4502474799006
 10
746.5885769227385
 20
221.4502474799006
 10
745.1482598160375
 20
220.0099303731996
 10
729.3523659869554
 20
224.31790141749462
 10
724.3179006284844
 20
229.35236677596637
  0
LWPOLYLINE
  5
35
330
17
100
AcDbEntity
  8
Y
100
AcDbPolyline
 90
24
 70
1
 10
725.7328698522155
 20
77.93739755223494
 10
725.7328698522155
 20
80.79454040937783
 10
724.2628770674071
 20
82.26453319418614
 10
725.7111938008865
 20
83.7128499276657
 10
724.2941139848878
 20
86.54700955966332
 10
728.5900127093581
 20
96.57077325009521
 10
728.5900127093581
 20
99.44881169328023
 10
737.9343056388352
 20
108.7931046227576
 10
740.7914484959788
 20
108.7931046227576
 10
742.261441280787
 20
110.26309740756612
 10
743.7314340655954
 20
108.7931046227576
 10
746.5885769227385
 20
108.7931046227576
 10
751.6374519686098
 20
103.74422957688634
 10
753.0817132217917
 20
97.96718456415931
 10
750.2402601892593
 20
92.28427849909416
 10
751.6688316178306
 20
90.85570707052281
 10
748.8018161082333
 20
85.12167605132903
 10
750.2402601892593
 20
82.24478788927814
 10
748.7900127093585
 20
80.79454040937783
 10
748.7900127093585
 20
77.93739755223494
 10
742.3085817328663
 20
71.45596657574215
 10
737.2522138789312
 20
70.73362831089436
 10
730.778851700868
 20
72.89141570358237
 10
725.7328698522155
 20
77.93739755223494
  0
LWPOLYLINE
  5
36
330
17
100
AcDbEntity
  8
Y
100
AcDbPolyline
 90
18
 70
1
 10
812.8757269950726
 20
80.79454040937783
 10
812.8757269950726
 20
83.65168326652072
 10
811.4057342102643
 20
85.12167605132903
 10
812.8757269950726
 20
86.59166883613733
 10
812.8757269950726
 20
89.44881169328023
 10
817.9343056388353
 20
94.50739033704336
 10
820.7914484959784
 20
94.50739033704336
 10
822.2614412807872
 20
95.97738312185189
 10
823.7314340655954
 20
94.50739033704336
 10
826.5885769227382
 20
94.50739033704336
 10
831.6471555665017
 20
89.44881169328023
 10
831.6471555665017
 20
86.59166883613733
 10
833.11714835131
 20
85.12167605132903
 10
831.6471555665017
 20
83.65168326652072
 10
831.6471555665017
 20
80.79454040937783
 10
826.5885769227382
 20
75.7359617656147
 10
817.9343056388353
 20
75.7359617656147
 10
812.8757269950726
 20
80.79454040937783
  0
LWPOLYLINE
  5
37
330
17
100
AcDbEntity
  8
Y
100
AcDbPolyline
 90
21
 70
1
 10
774.3042984236439
 20
6.508826123663436
 10
774.3042984236439
 20
9.365968980806215
 10
772.8343056388356
 20
10.835961765614744
 10
774.3042984236439
 20
12.30595455042327
 10
774.3042984236439
 20
15.163097407566163
 10
782.2200199245497
 20
23.078818908471852
 10
785.0771627816923
 20
23.078818908471852
 10
786.5057342102641
 20
24.5073903370433
 10
802.3028626370245
 20
24.5073903370433
 10
803.7314340655959
 20
23.078818908471852
 10
806.5885769227385
 20
23.078818908471852
 10
811.6471555665017
 20
18.020240264708942
 10
811.6471555665017
 20
15.163097407566163
 10
813.11714835131
 20
13.693104622757634
 10
811.6471555665017
 20
12.223111837949109
 10
811.6471555665017
 20
9.365968980806215
 10
806.5957778920412
 20
4.314591306346038
 10
790.8814921777556
 20
1.457448449203147
 10
789.4396537627033
 20
0.015610034151070096
 10
779.3571579715648
 20
1.4559665757420959
 10
774.3042984236439
 20
6.508826123663436
  0
LWPOLYLINE
  5
38
330
17
100
AcDbEntity
  8
Y
100
AcDbPolyline
 90
23
 70
1
 10
730.778851700868
 20
72.89141570358237
 10
725.7328698522155
 20
77.93739755223494
 10
725.7328698522155
 20
80.79454040937783
 10
724.2628770674071
 20
82.26453319418614
 10
725.7111938008865
 20
83.7128499276657
 10
724.2941139848878
 20
86.54700955966332
 10
728.5900127093581
 20
96.57077325009521
 10
728.5900127093581
 20
99.44881169328023
 10
737.9343056388352
 20
108.7931046227576
 10
740.7914484959788
 20
108.7931046227576
 10
742.261441280787
 20
110.26309740756612
 10
743.7314340655954
 20
108.7931046227576
 10
746.5885769227385
 20
108.7931046227576
 10
751.6374519686098
 20
103.74422957688634
 10
753.0864733788327
 20
97.94814393599471
 10
751.6471555665016
 20
96.50882612366362
 10
751.6471555665016
 20
93.71123808093473
 10
755.9491120743287
 20
82.239354060062
 10
754.5042984236443
 20
80.79454040937783
 10
754.5042984236443
 20
77.93739755223494
 10
746.5942960185807
 20
70.02739514717071
 10
741.5379281646452
 20
69.30505688232292
 10
730.778851700868
 20
72.89141570358237
  0
LWPOLYLINE
  5
39
330
17
100
AcDbEntity
  8
Y
100
AcDbPolyline
 90
18
 70
1
 10
811.4057342102643
 20
85.12167605132903
 10
812.8757269950726
 20
86.59166883613733
 10
812.8757269950726
 20
89.44881169328023
 10
817.9343056388353
 20
94.50739033704336
 10
820.7914484959784
 20
94.50739033704336
 10
822.2614412807872
 20
95.97738312185189
 10
823.7314340655954
 20
94.50739033704336
 10
826.5885769227382
 20
94.50739033704336
 10
831.6471555665017
 20
89.44881169328023
 10
831.6471555665017
 20
86.59166883613733
 10
833.11714835131
 20
85.12167605132903
 10
831.6471555665017
 20
83.65168326652072
 10
831.6471555665017
 20
80.79454040937783
 10
826.5885769227382
 20
75.7359617656147
 10
817.9343056388353
 20
75.7359617656147
 10
812.8757269950726
 20
80.79454040937783
 10
812.8757269950726
 20
83.65168326652072
 10
811.4057342102643
 20
85.12167605132903
  0
LWPOLYLINE
  5
3A
330
17
100
AcDbEntity
  8
Y
100
AcDbPolyline
 90
21
 70
1
 10
772.8343056388356
 20
10.835961765614744
 10
774.3042984236439
 20
12.30595455042327
 10
774.3042984236439
 20
15.163097407566163
 10
782.2200199245497
 20
23.078818908471852
 10
785.0771627816923
 20
23.078818908471852
 10
786.5057342102641
 20
24.5073903370433
 10
802.3028626370245
 20
24.5073903370433
 10
803.7314340655959
 20
23.078818908471852
 10
806.5885769227385
 20
23.078818908471852
 10
811.6471555665017
 20
18.020240264708942
 10
811.6471555665017
 20
15.163097407566163
 10
813.11714835131
 20
13.693104622757634
 10
811.6471555665017
 20
12.223111837949109
 10
811.6471555665017
 20
9.365968980806215
 10
806.5957778920412
 20
4.314591306346038
 10
790.8814921777556
 20
1.457448449203147
 10
789.4396537627033
 20
0.015610034151070096
 10
779.3571579715648
 20
1.4559665757420959
 10
774.3042984236439
 20
6.508826123663436
 10
774.3042984236439
 20
9.365968980806215
 10
772.8343056388356
 20
10.835961765614744
  0
LWPOLYLINE
  5
3B
330
17
100
AcDbEntity
  8
Y
100
AcDbPolyline
 90
23
 70
1
 10
725.7328698522155
 20
80.79454040937783
 10
724.2628770674071
 20
82.26453319418614
 10
725.7111938008865
 20
83.7128499276657
 10
724.2941139848878
 20
86.54700955966332
 10
728.5900127093581
 20
96.57077325009521
 10
728.5900127093581
 20
99.44881169328023
 10
737.9343056388352
 20
108.7931046227576
 10
740.7914484959788
 20
108.7931046227576
 10
742.261441280787
 20
110.26309740756612
 10
743.7314340655954
 20
108.7931046227576
 10
746.5885769227385
 20
108.7931046227576
 10
751.6374519686098
 20
103.74422957688634
 10
753.0864733788327
 20
97.94814393599471
 10
751.6471555665016
 20
96.50882612366362
 10
751.6471555665016
 20
93.71123808093473
 10
755.9491120743287
 20
82.239354060062
 10
754.5042984236443
 20
80.79454040937783
 10
754.5042984236443
 20
77.93739755223494
 10
746.5942960185807
 20
70.02739514717071
 10
741.5379281646452
 20
69.30505688232292
 10
730.778851700868
 20
72.89141570358237
 10
725.7328698522155
 20
77.93739755223494
 10
725.7328698522155
 20
80.79454040937783
  0
LWPOLYLINE
  5
3C
330
17
100
AcDbEntity
  8
Y
100
AcDbPolyline
 90
31
 70
1
 10
1889.353173469515
 20
290.031379649221
 10
1882.8854305929647
 20
296.4991225257715
 10
1881.4568591643929
 20
302.21340824005705
 10
1875.0771627816928
 20
308.5931046227578
 10
1872.2200199245501
 20
308.5931046227578
 10
1865.7328698522156
 20
315.0802546950918
 10
1865.7328698522156
 20
317.9373975522347
 10
1864.2628770674073
 20
319.40739033704347
 10
1865.7328698522156
 20
320.877383121852
 10
1865.7328698522156
 20
323.7345259789949
 10
1870.7914484959788
 20
328.7931046227576
 10
1872.2200199245501
 20
328.7931046227576
 10
1880.7914484959786
 20
337.36453319418627
 10
1883.6485913531212
 20
337.36453319418627
 10
1885.0824569073668
 20
338.79839874843185
 10
1896.576556038558
 20
337.361636357033
 10
1902.285048078537
 20
334.5073903370434
 10
1905.1600054941673
 20
334.5073903370434
 10
1910.21858413793
 20
329.44881169328045
 10
1910.21858413793
 20
326.5916688361378
 10
1911.6471555665014
 20
325.1630974075662
 10
1911.6471555665014
 20
299.36596898080626
 10
1910.21858413793
 20
297.9373975522347
 10
1910.21858413793
 20
295.0802546950918
 10
1905.1600054941673
 20
290.0216760513291
 10
1902.3028626370242
 20
290.0216760513291
 10
1900.8328698522155
 20
288.55168326652057
 10
1899.3628770674072
 20
290.0216760513291
 10
1896.5885769227384
 20
290.0216760513291
 10
1895.1492591104072
 20
288.58235823899804
 10
1889.353173469515
 20
290.031379649221
  0
LWPOLYLINE
  5
3D
330
17
100
AcDbEntity
  8
Y
100
AcDbPolyline
 90
29
 70
1
 10
1827.9343056388354
 20
77.16453319418626
 10
1822.875726995073
 20
82.22311183794895
 10
1822.875726995073
 20
85.08025469509184
 10
1821.4471555665016
 20
86.50882612366317
 10
1821.4471555665016
 20
95.16309740756623
 10
1822.875726995073
 20
96.59166883613779
 10
1822.875726995073
 20
106.57077325009612
 10
1827.1614412807874
 20
116.57077325009635
 10
1827.1614412807874
 20
120.81235496786469
 10
1824.2826223723148
 20
126.5699927848084
 10
1825.7328698522156
 20
128.02024026470914
 10
1825.7328698522156
 20
130.87738312185203
 10
1830.7914484959786
 20
135.93596176561473
 10
1833.6485913531212
 20
135.93596176561473
 10
1835.1185841379302
 20
137.40595455042325
 10
1836.5885769227389
 20
135.93596176561473
 10
1839.4457197798815
 20
135.93596176561473
 10
1844.504298423644
 20
130.87738312185203
 10
1844.504298423644
 20
128.02024026470914
 10
1845.9545459035448
 20
126.5699927848084
 10
1843.0757269950727
 20
120.81235496786469
 10
1843.0757269950727
 20
116.59166883613781
 10
1844.4924073945747
 20
115.17498843663564
 10
1851.660651387578
 20
92.23660765902564
 10
1850.2185841379298
 20
90.79454040937762
 10
1850.2185841379298
 20
87.93739755223473
 10
1845.1822930790956
 20
82.9011064934001
 10
1836.5774331302744
 20
77.16453319418626
 10
1827.9343056388354
 20
77.16453319418626
  0
LWPOLYLINE
  5
3E
330
17
100
AcDbEntity
  8
Y
100
AcDbPolyline
 90
29
 70
1
 10
1827.9343056388354
 20
77.16453319418626
 10
1822.875726995073
 20
82.22311183794895
 10
1822.875726995073
 20
85.08025469509184
 10
1821.4471555665016
 20
86.50882612366317
 10
1821.4471555665016
 20
95.16309740756623
 10
1822.875726995073
 20
96.59166883613779
 10
1822.875726995073
 20
106.57077325009612
 10
1827.1614412807874
 20
116.57077325009635
 10
1827.1614412807874
 20
120.81235496786469
 10
1824.2826223723148
 20
126.5699927848084
 10
1825.7328698522156
 20
128.02024026470914
 10
1825.7328698522156
 20
130.87738312185203
 10
1830.7914484959786
 20
135.93596176561473
 10
1833.6485913531212
 20
135.93596176561473
 10
1835.1185841379302
 20
137.40595455042325
 10
1836.5885769227389
 20
135.93596176561473
 10
1839.4457197798815
 20
135.93596176561473
 10
1844.504298423644
 20
130.87738312185203
 10
1844.504298423644
 20
128.02024026470914
 10
1845.9545459035448
 20
126.5699927848084
 10
1843.0757269950727
 20
120.81235496786469
 10
1843.0757269950727
 20
116.59166883613781
 10
1844.4924073945747
 20
115.17498843663564
 10
1851.660651387578
 20
92.23660765902564
 10
1850.2185841379298
 20
90.79454040937762
 10
1850.2185841379298
 20
87.93739755223473
 10
1845.1822930790956
 20
82.9011064934001
 10
1836.5774331302744
 20
77.16453319418626
 10
1827.9343056388354
 20
77.16453319418626
  0
LWPOLYLINE
  5
3F
330
17
100
AcDbEntity
  8
Y
100
AcDbPolyline
 90
29
 70
1
 10
1827.9343056388354
 20
77.16453319418626
 10
1822.875726995073
 20
82.22311183794895
 10
1822.875726995073
 20
85.08025469509184
 10
1821.4471555665016
 20
86.50882612366317
 10
1821.4471555665016
 20
95.16309740756623
 10
1822.875726995073
 20
96.59166883613779
 10
1822.875726995073
 20
106.57077325009612
 10
1827.1614412807874
 20
116.57077325009635
 10
1827.1614412807874
 20
120.81235496786469
 10
1824.2826223723148
 20
126.5699927848084
 10
1825.7328698522156
 20
128.02024026470914
 10
1825.7328698522156
 20
130.87738312185203
 10
1830.7914484959786
 20
135.93596176561473
 10
1833.6485913531212
 20
135.93596176561473
 10
1835.1185841379302
 20
137.40595455042325
 10
1836.5885769227389
 20
135.93596176561473
 10
1839.4457197798815
 20
135.93596176561473
 10
1844.504298423644
 20
130.87738312185203
 10
1844.504298423644
 20
128.02024026470914
 10
1845.9545459035448
 20
126.5699927848084
 10
1843.0757269950727
 20
120.81235496786469
 10
1843.0757269950727
 20
116.59166883613781
 10
1844.4924073945747
 20
115.17498843663564
 10
1851.660651387578
 20
92.23660765902564
 10
1850.2185841379298
 20
90.79454040937762
 10
1850.2185841379298
 20
87.93739755223473
 10
1845.1822930790956
 20
82.9011064934001
 10
1836.5774331302744
 20
77.16453319418626
 10
1827.9343056388354
 20
77.16453319418626
  0
LWPOLYLINE
  5
40
330
17
100
AcDbEntity
  8
Y
100
AcDbPolyline
 90
74
 70
1
 10
3326.505734210263
 20
7.164533194186196
 10
3321.4471555665
 20
12.223111837949109
 10
3321.4471555665
 20
15.080254695091998
 10
3319.9771627816926
 20
16.550247479900527
 10
3321.4471555665
 20
18.020240264708942
 10
3321.4471555665
 20
20.877383121851835
 10
3325.7485415417464
 20
25.17876909709804
 10
3330.032418746744
 20
35.17448257542488
 10
3337.168363133987
 20
43.73761584011593
 10
3338.5978925605773
 20
50.88526297307183
 10
3340.018584137929
 20
52.30595455042331
 10
3340.018584137929
 20
57.95521211072219
 10
3337.166009562917
 20
63.66036126074637
 10
3332.883606846292
 20
85.07237484387208
 10
3330.018584137929
 20
87.93739755223496
 10
3330.018584137929
 20
90.79454040937784
 10
3328.5900127093582
 20
92.22311183794918
 10
3328.5900127093582
 20
109.44881169328025
 10
3330.018584137929
 20
110.8773831218518
 10
3330.018584137929
 20
113.73452597899447
 10
3335.077162781692
 20
118.79310462275761
 10
3337.9343056388348
 20
118.79310462275761
 10
3339.3845531187358
 20
120.24335210265814
 10
3345.14219093568
 20
117.36453319418605
 10
3347.9521201973225
 20
117.36453319418605
 10
3353.709758014266
 20
120.24335210265814
 10
3355.1600054941673
 20
118.79310462275761
 10
3358.017148351309
 20
118.79310462275761
 10
3363.7314340655953
 20
113.07881890847182
 10
3366.588576922738
 20
113.07881890847182
 10
3367.99547229998
 20
111.67192353122945
 10
3373.6664059116074
 20
114.50739033704338
 10
3376.505734210263
 20
114.50739033704338
 10
3380.7914484959774
 20
118.79310462275761
 10
3383.648591353121
 20
118.79310462275761
 10
3385.087909165452
 20
120.23242243508892
 10
3390.8839948063437
 20
118.78340102486573
 10
3397.361441280787
 20
112.30595455042314
 10
3397.361441280787
 20
109.44881169328025
 10
3398.790012709358
 20
108.02024026470892
 10
3398.790012709358
 20
100.85956856336453
 10
3400.2402601892586
 20
97.95907360356392
 10
3398.790012709358
 20
96.50882612366362
 10
3398.790012709358
 20
93.65168326652073
 10
3393.731434065595
 20
88.59310462275761
 10
3390.874291208452
 20
88.59310462275761
 10
3389.445719779881
 20
87.16453319418626
 10
3379.4457197798815
 20
87.16453319418626
 10
3378.0171483513095
 20
85.7359617656147
 10
3375.160005494167
 20
85.7359617656147
 10
3370.2119551172887
 20
80.7879113887363
 10
3368.7939980907063
 20
72.28016922924108
 10
3371.647155566501
 20
66.57385427765017
 10
3371.647155566501
 20
63.73452597899476
 10
3376.5964567739575
 20
58.785224771538026
 10
3383.6571452377207
 20
57.37308707878563
 10
3385.072134841491
 20
58.78807668255648
 10
3396.5832827970644
 20
60.22697017700318
 10
3398.01714835131
 20
58.793104622757554
 10
3400.8742912084526
 20
58.793104622757554
 10
3405.932869852216
 20
53.73452597899475
 10
3405.932869852216
 20
50.877383121851864
 10
3407.361441280787
 20
49.44881169328041
 10
3407.361441280787
 20
39.365968980806244
 10
3405.932869852216
 20
37.9373975522348
 10
3405.932869852216
 20
35.08025469509191
 10
3398.0311210901455
 20
27.17850593302229
 10
3386.59568877499
 20
22.89021881483888
 10
3380.8780972402374
 20
18.602025163774183
 10
3370.880657193067
 20
15.745613721725338
 10
3362.297646274305
 20
8.593104622757641
 10
3359.445719779881
 20
8.593104622757641
 10
3358.017148351309
 20
7.164533194186196
 10
3326.505734210263
 20
7.164533194186196
  0
LWPOLYLINE
  5
41
330
17
100
AcDbEntity
  8
Y
100
AcDbPolyline
 90
22
 70
1
 10
3192.2163313990977
 20
50.02536457678097
 10
3184.304298423644
 20
57.93739755223459
 10
3184.304298423644
 20
60.79454040937748
 10
3182.8343056388358
 20
62.26453319418612
 10
3184.304298423644
 20
63.73452597899498
 10
3184.304298423644
 20
66.59166883613776
 10
3189.3628770674063
 20
71.65024747990046
 10
3192.220019924549
 20
71.65024747990046
 10
3196.505734210263
 20
75.93596176561468
 10
3199.371780042285
 20
75.93596176561468
 10
3215.0774871107083
 20
87.35829417901397
 10
3222.2943087524245
 20
88.8016585073571
 10
3223.7314340655957
 20
87.36453319418625
 10
3226.5885769227384
 20
87.36453319418625
 10
3231.6471555665007
 20
82.30595455042334
 10
3231.6471555665007
 20
79.44881169328045
 10
3233.091470689474
 20
78.00449657030761
 10
3227.3459349307477
 20
62.20427323381061
 10
3212.2968442935644
 20
50.02167605132912
 10
3209.4457197798815
 20
50.02167605132912
 10
3208.0133185631466
 20
48.58927483459452
 10
3192.2163313990977
 20
50.02536457678097
  0
LWPOLYLINE
  5
42
330
17
100
AcDbEntity
  8
Y
100
AcDbPolyline
 90
60
 70
1
 10
3326.505734210263
 20
7.164533194186196
 10
3321.4471555665
 20
12.223111837949109
 10
3321.4471555665
 20
15.080254695091998
 10
3319.9771627816926
 20
16.550247479900527
 10
3321.4471555665
 20
18.020240264708942
 10
3321.4471555665
 20
20.877383121851835
 10
3325.7485415417464
 20
25.17876909709804
 10
3330.032418746744
 20
35.17448257542488
 10
3337.168363133987
 20
43.73761584011593
 10
3338.5978925605773
 20
50.88526297307183
 10
3340.018584137929
 20
52.30595455042331
 10
3340.018584137929
 20
57.95521211072219
 10
3337.166009562917
 20
63.66036126074637
 10
3332.883606846292
 20
85.07237484387208
 10
3330.018584137929
 20
87.93739755223496
 10
3330.018584137929
 20
90.79454040937784
 10
3328.5900127093582
 20
92.22311183794918
 10
3328.5900127093582
 20
109.44881169328025
 10
3330.018584137929
 20
110.8773831218518
 10
3330.018584137929
 20
113.73452597899447
 10
3335.077162781692
 20
118.79310462275761
 10
3337.9343056388348
 20
118.79310462275761
 10
3339.3845531187358
 20
120.24335210265814
 10
3345.14219093568
 20
117.36453319418605
 10
3347.9521201973225
 20
117.36453319418605
 10
3353.709758014266
 20
120.24335210265814
 10
3355.1600054941673
 20
118.79310462275761
 10
3358.017148351309
 20
118.79310462275761
 10
3363.0757269950723
 20
113.73452597899447
 10
3363.0757269950723
 20
110.8773831218518
 10
3364.5216354512427
 20
109.43147466568203
 10
3358.8073497369564
 20
95.1457603799678
 10
3360.2185841379296
 20
93.73452597899468
 10
3360.2185841379296
 20
90.87738312185178
 10
3367.361441280787
 20
83.73452597899467
 10
3367.361441280787
 20
80.87738312185178
 10
3368.7900127093585
 20
79.44881169328022
 10
3368.7900127093585
 20
72.28813999193584
 10
3371.647155566501
 20
66.57385427765017
 10
3371.647155566501
 20
63.73452597899476
 10
3376.588576922738
 20
58.793104622757554
 10
3379.4457197798815
 20
58.793104622757554
 10
3380.868225191274
 20
57.37059921136422
 10
3390.785729400136
 20
58.78738552691587
 10
3392.2271195830167
 20
60.22877570979568
 10
3400.8809202290945
 20
58.78647560211603
 10
3405.932869852216
 20
53.73452597899475
 10
3405.932869852216
 20
50.877383121851864
 10
3407.361441280787
 20
49.44881169328041
 10
3407.361441280787
 20
39.365968980806244
 10
3405.932869852216
 20
37.9373975522348
 10
3405.932869852216
 20
35.08025469509191
 10
3398.0311210901455
 20
27.17850593302229
 10
3386.59568877499
 20
22.89021881483888
 10
3380.8780972402374
 20
18.602025163774183
 10
3370.880657193067
 20
15.745613721725338
 10
3362.297646274305
 20
8.593104622757641
 10
3359.445719779881
 20
8.593104622757641
 10
3358.017148351309
 20
7.164533194186196
 10
3326.505734210263
 20
7.164533194186196
  0
LWPOLYLINE
  5
43
330
17
100
AcDbEntity
  8
Y
100
AcDbPolyline
 90
22
 70
1
 10
3361.447155566501
 20
93.65168326652073
 10
3361.447155566501
 20
96.50882612366362
 10
3360.001247110332
 20
97.95473457983317
 10
3362.8905024056594
 20
105.17787281815284
 10
3369.3531734695152
 20
111.64054388200861
 10
3375.067459183801
 20
113.06911531057995
 10
3380.7817448980863
 20
118.78340102486573
 10
3386.577830538978
 20
120.23242243508892
 10
3388.0171483513095
 20
118.79310462275761
 10
3390.874291208452
 20
118.79310462275761
 10
3397.361441280787
 20
112.30595455042314
 10
3397.361441280787
 20
109.44881169328025
 10
3398.790012709358
 20
108.02024026470892
 10
3398.790012709358
 20
100.85956856336453
 10
3400.2402601892586
 20
97.95907360356392
 10
3398.790012709358
 20
96.50882612366362
 10
3398.790012709358
 20
93.65168326652073
 10
3393.731434065595
 20
88.59310462275761
 10
3390.874291208452
 20
88.59310462275761
 10
3389.44309958515
 20
87.16191299945531
 10
3366.5031809167936
 20
88.5956579162276
 10
3361.447155566501
 20
93.65168326652073
  0
LWPOLYLINE
  5
44
330
17
100
AcDbEntity
  8
Y
100
AcDbPolyline
 90
22
 70
1
 10
3184.304298423644
 20
57.93739755223459
 10
3184.304298423644
 20
60.79454040937748
 10
3182.8343056388358
 20
62.26453319418612
 10
3184.304298423644
 20
63.73452597899498
 10
3184.304298423644
 20
66.59166883613776
 10
3189.3628770674063
 20
71.65024747990046
 10
3192.220019924549
 20
71.65024747990046
 10
3196.505734210263
 20
75.93596176561468
 10
3199.371780042285
 20
75.93596176561468
 10
3215.0774871107083
 20
87.35829417901397
 10
3222.2943087524245
 20
88.8016585073571
 10
3223.7314340655957
 20
87.36453319418625
 10
3226.5885769227384
 20
87.36453319418625
 10
3231.6471555665007
 20
82.30595455042334
 10
3231.6471555665007
 20
79.44881169328045
 10
3233.091470689474
 20
78.00449657030761
 10
3227.3459349307477
 20
62.20427323381061
 10
3212.2968442935644
 20
50.02167605132912
 10
3209.4457197798815
 20
50.02167605132912
 10
3208.0133185631466
 20
48.58927483459452
 10
3192.2163313990977
 20
50.02536457678097
 10
3184.304298423644
 20
57.93739755223459
  0
LWPOLYLINE
  5
45
330
17
100
AcDbEntity
  8
Y
100
AcDbPolyline
 90
22
 70
1
 10
3361.447155566501
 20
96.50882612366362
 10
3360.001247110332
 20
97.95473457983317
 10
3362.8905024056594
 20
105.17787281815284
 10
3369.3531734695152
 20
111.64054388200861
 10
3375.067459183801
 20
113.06911531057995
 10
3380.7817448980863
 20
118.78340102486573
 10
3386.577830538978
 20
120.23242243508892
 10
3388.0171483513095
 20
118.79310462275761
 10
3390.874291208452
 20
118.79310462275761
 10
3397.361441280787
 20
112.30595455042314
 10
3397.361441280787
 20
109.44881169328025
 10
3398.790012709358
 20
108.02024026470892
 10
3398.790012709358
 20
100.85956856336453
 10
3400.2402601892586
 20
97.95907360356392
 10
3398.790012709358
 20
96.50882612366362
 10
3398.790012709358
 20
93.65168326652073
 10
3393.731434065595
 20
88.59310462275761
 10
3390.874291208452
 20
88.59310462275761
 10
3389.44309958515
 20
87.16191299945531
 10
3366.5031809167936
 20
88.5956579162276
 10
3361.447155566501
 20
93.65168326652073
 10
3361.447155566501
 20
96.50882612366362
  0
LWPOLYLINE
  5
46
330
17
100
AcDbEntity
  8
Y
100
AcDbPolyline
 90
22
 70
1
 10
3184.304298423644
 20
60.79454040937748
 10
3182.8343056388358
 20
62.26453319418612
 10
3184.304298423644
 20
63.73452597899498
 10
3184.304298423644
 20
66.59166883613776
 10
3189.3628770674063
 20
71.65024747990046
 10
3192.220019924549
 20
71.65024747990046
 10
3196.505734210263
 20
75.93596176561468
 10
3199.371780042285
 20
75.93596176561468
 10
3215.0774871107083
 20
87.35829417901397
 10
3222.2943087524245
 20
88.8016585073571
 10
3223.7314340655957
 20
87.36453319418625
 10
3226.5885769227384
 20
87.36453319418625
 10
3231.6471555665007
 20
82.30595455042334
 10
3231.6471555665007
 20
79.44881169328045
 10
3233.091470689474
 20
78.00449657030761
 10
3227.3459349307477
 20
62.20427323381061
 10
3212.2968442935644
 20
50.02167605132912
 10
3209.4457197798815
 20
50.02167605132912
 10
3208.0133185631466
 20
48.58927483459452
 10
3192.2163313990977
 20
50.02536457678097
 10
3184.304298423644
 20
57.93739755223459
 10
3184.304298423644
 20
60.79454040937748
  0
LWPOLYLINE
  5
47
330
17
100
AcDbEntity
  8
Y
100
AcDbPolyline
 90
60
 70
1
 10
3326.505734210263
 20
7.164533194186196
 10
3321.4471555665
 20
12.223111837949109
 10
3321.4471555665
 20
15.080254695091998
 10
3319.9771627816926
 20
16.550247479900527
 10
3321.4471555665
 20
18.020240264708942
 10
3321.4471555665
 20
20.877383121851835
 10
3325.7485415417464
 20
25.17876909709804
 10
3330.032418746744
 20
35.17448257542488
 10
3337.168363133987
 20
43.73761584011593
 10
3338.5978925605773
 20
50.88526297307183
 10
3340.018584137929
 20
52.30595455042331
 10
3340.018584137929
 20
57.95521211072219
 10
3337.166009562917
 20
63.66036126074637
 10
3332.883606846292
 20
85.07237484387208
 10
3330.018584137929
 20
87.93739755223496
 10
3330.018584137929
 20
90.79454040937784
 10
3328.5900127093582
 20
92.22311183794918
 10
3328.5900127093582
 20
109.44881169328025
 10
3330.018584137929
 20
110.8773831218518
 10
3330.018584137929
 20
113.73452597899447
 10
3335.077162781692
 20
118.79310462275761
 10
3337.9343056388348
 20
118.79310462275761
 10
3339.3845531187358
 20
120.24335210265814
 10
3345.14219093568
 20
117.36453319418605
 10
3347.9521201973225
 20
117.36453319418605
 10
3353.709758014266
 20
120.24335210265814
 10
3355.1600054941673
 20
118.79310462275761
 10
3358.017148351309
 20
118.79310462275761
 10
3363.0757269950723
 20
113.73452597899447
 10
3363.0757269950723
 20
110.8773831218518
 10
3364.5216354512427
 20
109.43147466568203
 10
3358.8073497369564
 20
95.1457603799678
 10
3360.2185841379296
 20
93.73452597899468
 10
3360.2185841379296
 20
90.87738312185178
 10
3367.361441280787
 20
83.73452597899467
 10
3367.361441280787
 20
80.87738312185178
 10
3368.7900127093585
 20
79.44881169328022
 10
3368.7900127093585
 20
72.28813999193584
 10
3371.647155566501
 20
66.57385427765017
 10
3371.647155566501
 20
63.73452597899476
 10
3376.588576922738
 20
58.793104622757554
 10
3379.4457197798815
 20
58.793104622757554
 10
3380.868225191274
 20
57.37059921136422
 10
3390.785729400136
 20
58.78738552691587
 10
3392.2271195830167
 20
60.22877570979568
 10
3400.8809202290945
 20
58.78647560211603
 10
3405.932869852216
 20
53.73452597899475
 10
3405.932869852216
 20
50.877383121851864
 10
3407.361441280787
 20
49.44881169328041
 10
3407.361441280787
 20
39.365968980806244
 10
3405.932869852216
 20
37.9373975522348
 10
3405.932869852216
 20
35.08025469509191
 10
3398.0311210901455
 20
27.17850593302229
 10
3386.59568877499
 20
22.89021881483888
 10
3380.8780972402374
 20
18.602025163774183
 10
3370.880657193067
 20
15.745613721725338
 10
3362.297646274305
 20
8.593104622757641
 10
3359.445719779881
 20
8.593104622757641
 10
3358.017148351309
 20
7.164533194186196
 10
3326.505734210263
 20
7.164533194186196
  0
LWPOLYLINE
  5
48
330
17
100
AcDbEntity
  8
Y
100
AcDbPolyline
 90
19
 70
1
 10
4039.3531734695152
 20
58.60280822064945
 10
4032.2121400733304
 20
65.74384161683433
 10
4028.523978618744
 20
66.4814739077516
 10
4031.4543423669857
 20
70.87701953011461
 10
4034.314002021536
 20
82.31565814831477
 10
4039.356248046766
 20
87.35790417354472
 10
4047.9276766181947
 20
88.78647560211606
 10
4049.3628770674068
 20
90.22167605132914
 10
4056.5885769227393
 20
90.22167605132914
 10
4058.0171483513104
 20
88.79310462275758
 10
4060.874291208452
 20
88.79310462275758
 10
4067.361441280787
 20
82.30595455042311
 10
4067.361441280787
 20
79.44881169328022
 10
4068.7971123678253
 20
78.0131406062422
 10
4067.354048036799
 20
69.35475462008512
 10
4058.0225565832366
 20
61.458877236300836
 10
4046.5982805206313
 20
58.60280822064945
 10
4045.1492591104075
 20
57.153786810426375
 10
4039.3531734695152
 20
58.60280822064945
  0
LWPOLYLINE
  5
49
330
17
100
AcDbEntity
  8
Y
100
AcDbPolyline
 90
17
 70
1
 10
4003.6510102071725
 20
50.02167605132912
 10
3985.7431204169725
 20
66.49693465831297
 10
3984.293552039884
 20
72.29520816666334
 10
3985.7328698522156
 20
73.73452597899465
 10
3985.7328698522156
 20
76.59166883613754
 10
3990.791448495979
 20
81.65024747990046
 10
3993.6485913531214
 20
81.65024747990046
 10
3995.1185841379297
 20
83.12024026470898
 10
3996.588576922739
 20
81.65024747990046
 10
3999.4431967927
 20
81.65024747990046
 10
4016.5860539355576
 20
65.93596176561478
 10
4019.445719779882
 20
65.93596176561478
 10
4021.679193290603
 20
63.70248825489322
 10
4017.3614412807883
 20
57.94548557513879
 10
4017.3614412807883
 20
55.080254695091924
 10
4012.302862637024
 20
50.02167605132912
 10
4003.6510102071725
 20
50.02167605132912
  0
LWPOLYLINE
  5
4A
330
17
100
AcDbEntity
  8
Y
100
AcDbPolyline
 90
19
 70
1
 10
4039.3531734695152
 20
58.60280822064945
 10
4032.2121400733304
 20
65.74384161683433
 10
4028.523978618744
 20
66.4814739077516
 10
4031.4543423669857
 20
70.87701953011461
 10
4034.314002021536
 20
82.31565814831477
 10
4039.356248046766
 20
87.35790417354472
 10
4047.9276766181947
 20
88.78647560211606
 10
4049.3628770674068
 20
90.22167605132914
 10
4056.5885769227393
 20
90.22167605132914
 10
4058.0171483513104
 20
88.79310462275758
 10
4060.874291208452
 20
88.79310462275758
 10
4067.361441280787
 20
82.30595455042311
 10
4067.361441280787
 20
79.44881169328022
 10
4068.7971123678253
 20
78.0131406062422
 10
4067.354048036799
 20
69.35475462008512
 10
4058.0225565832366
 20
61.458877236300836
 10
4046.5982805206313
 20
58.60280822064945
 10
4045.1492591104075
 20
57.153786810426375
 10
4039.3531734695152
 20
58.60280822064945
  0
LWPOLYLINE
  5
4B
330
17
100
AcDbEntity
  8
Y
100
AcDbPolyline
 90
17
 70
1
 10
4003.6510102071725
 20
50.02167605132912
 10
3985.7431204169725
 20
66.49693465831297
 10
3984.293552039884
 20
72.29520816666334
 10
3985.7328698522156
 20
73.73452597899465
 10
3985.7328698522156
 20
76.59166883613754
 10
3990.791448495979
 20
81.65024747990046
 10
3993.6485913531214
 20
81.65024747990046
 10
3995.1185841379297
 20
83.12024026470898
 10
3996.588576922739
 20
81.65024747990046
 10
3999.4431967927
 20
81.65024747990046
 10
4016.5860539355576
 20
65.93596176561478
 10
4019.445719779882
 20
65.93596176561478
 10
4021.679193290603
 20
63.70248825489322
 10
4017.3614412807883
 20
57.94548557513879
 10
4017.3614412807883
 20
55.080254695091924
 10
4012.302862637024
 20
50.02167605132912
 10
4003.6510102071725
 20
50.02167605132912
  0
LWPOLYLINE
  5
4C
330
17
100
AcDbEntity
  8
Y
100
AcDbPolyline
 90
19
 70
1
 10
4039.3531734695152
 20
58.60280822064945
 10
4032.2121400733304
 20
65.74384161683433
 10
4028.523978618744
 20
66.4814739077516
 10
4031.4543423669857
 20
70.87701953011461
 10
4034.314002021536
 20
82.31565814831477
 10
4039.356248046766
 20
87.35790417354472
 10
4047.9276766181947
 20
88.78647560211606
 10
4049.3628770674068
 20
90.22167605132914
 10
4056.5885769227393
 20
90.22167605132914
 10
4058.0171483513104
 20
88.79310462275758
 10
4060.874291208452
 20
88.79310462275758
 10
4067.361441280787
 20
82.30595455042311
 10
4067.361441280787
 20
79.44881169328022
 10
4068.7971123678253
 20
78.0131406062422
 10
4067.354048036799
 20
69.35475462008512
 10
4058.0225565832366
 20
61.458877236300836
 10
4046.5982805206313
 20
58.60280822064945
 10
4045.1492591104075
 20
57.153786810426375
 10
4039.3531734695152
 20
58.60280822064945
  0
LWPOLYLINE
  5
4D
330
17
100
AcDbEntity
  8
Y
100
AcDbPolyline
 90
17
 70
1
 10
4003.6510102071725
 20
50.02167605132912
 10
3985.7431204169725
 20
66.49693465831297
 10
3984.293552039884
 20
72.29520816666334
 10
3985.7328698522156
 20
73.73452597899465
 10
3985.7328698522156
 20
76.59166883613754
 10
3990.791448495979
 20
81.65024747990046
 10
3993.6485913531214
 20
81.65024747990046
 10
3995.1185841379297
 20
83.12024026470898
 10
3996.588576922739
 20
81.65024747990046
 10
3999.4431967927
 20
81.65024747990046
 10
4016.5860539355576
 20
65.93596176561478
 10
4019.445719779882
 20
65.93596176561478
 10
4021.679193290603
 20
63.70248825489322
 10
4017.3614412807883
 20
57.94548557513879
 10
4017.3614412807883
 20
55.080254695091924
 10
4012.302862637024
 20
50.02167605132912
 10
4003.6510102071725
 20
50.02167605132912
  0
LWPOLYLINE
  5
4E
330
17
100
AcDbEntity
  8
Y
100
AcDbPolyline
 90
36
 70
1
 10
4702.24218304043
 20
91.4502474799005
 10
4693.669486939162
 20
91.4502474799005
 10
4683.669486939163
 20
95.73596176561472
 10
4675.077162781693
 20
95.73596176561472
 10
4673.648591353121
 20
97.16453319418628
 10
4670.791448495978
 20
97.16453319418628
 10
4663.638887755229
 20
104.31709393493527
 10
4657.924602040944
 20
105.7456653635066
 10
4651.447155566501
 20
112.22311183794898
 10
4651.447155566501
 20
115.08025469509187
 10
4648.590012709358
 20
117.93739755223476
 10
4648.590012709358
 20
120.79454040937765
 10
4647.12001992455
 20
122.26453319418617
 10
4648.590012709358
 20
123.73452597899492
 10
4648.590012709358
 20
126.5916688361376
 10
4653.642872257279
 20
131.6445283840587
 10
4663.725368048418
 20
133.08488492564996
 10
4665.160005494167
 20
131.65024747990051
 10
4668.0171483513095
 20
131.65024747990051
 10
4673.731434065596
 20
125.93596176561472
 10
4676.588576922739
 20
125.93596176561472
 10
4678.0171483513095
 20
124.50739033704339
 10
4689.362877067407
 20
124.50739033704339
 10
4690.791448495978
 20
125.93596176561472
 10
4717.934305638835
 20
125.93596176561472
 10
4719.371430952006
 20
127.3730870787858
 10
4726.596456773958
 20
125.9280819143952
 10
4731.647155566501
 20
120.87738312185203
 10
4731.647155566501
 20
118.02024026470914
 10
4733.093064022671
 20
116.5743318085396
 10
4730.20695844249
 20
109.35906785808614
 10
4723.052289867832
 20
99.34253185356512
 10
4713.731434065596
 20
90.02167605132915
 10
4710.874291208453
 20
90.02167605132915
 10
4709.428382752283
 20
88.57576759515939
 10
4702.24218304043
 20
91.4502474799005
  0
LWPOLYLINE
  5
4F
330
17
100
AcDbEntity
  8
Y
100
AcDbPolyline
 90
36
 70
1
 10
4702.24218304043
 20
91.4502474799005
 10
4693.669486939162
 20
91.4502474799005
 10
4683.669486939163
 20
95.73596176561472
 10
4675.077162781693
 20
95.73596176561472
 10
4673.648591353121
 20
97.16453319418628
 10
4670.791448495978
 20
97.16453319418628
 10
4663.638887755229
 20
104.31709393493527
 10
4657.924602040944
 20
105.7456653635066
 10
4651.447155566501
 20
112.22311183794898
 10
4651.447155566501
 20
115.08025469509187
 10
4648.590012709358
 20
117.93739755223476
 10
4648.590012709358
 20
120.79454040937765
 10
4647.12001992455
 20
122.26453319418617
 10
4648.590012709358
 20
123.73452597899492
 10
4648.590012709358
 20
126.5916688361376
 10
4653.642872257279
 20
131.6445283840587
 10
4663.725368048418
 20
133.08488492564996
 10
4665.160005494167
 20
131.65024747990051
 10
4668.0171483513095
 20
131.65024747990051
 10
4673.731434065596
 20
125.93596176561472
 10
4676.588576922739
 20
125.93596176561472
 10
4678.0171483513095
 20
124.50739033704339
 10
4689.362877067407
 20
124.50739033704339
 10
4690.791448495978
 20
125.93596176561472
 10
4717.934305638835
 20
125.93596176561472
 10
4719.371430952006
 20
127.3730870787858
 10
4726.596456773958
 20
125.9280819143952
 10
4731.647155566501
 20
120.87738312185203
 10
4731.647155566501
 20
118.02024026470914
 10
4733.093064022671
 20
116.5743318085396
 10
4730.20695844249
 20
109.35906785808614
 10
4723.052289867832
 20
99.34253185356512
 10
4713.731434065596
 20
90.02167605132915
 10
4710.874291208453
 20
90.02167605132915
 10
4709.428382752283
 20
88.57576759515939
 10
4702.24218304043
 20
91.4502474799005
  0
LWPOLYLINE
  5
50
330
17
100
AcDbEntity
  8
Y
100
AcDbPolyline
 90
36
 70
1
 10
4702.24218304043
 20
91.4502474799005
 10
4693.669486939162
 20
91.4502474799005
 10
4683.669486939163
 20
95.73596176561472
 10
4675.077162781693
 20
95.73596176561472
 10
4673.648591353121
 20
97.16453319418628
 10
4670.791448495978
 20
97.16453319418628
 10
4663.638887755229
 20
104.31709393493527
 10
4657.924602040944
 20
105.7456653635066
 10
4651.447155566501
 20
112.22311183794898
 10
4651.447155566501
 20
115.08025469509187
 10
4648.590012709358
 20
117.93739755223476
 10
4648.590012709358
 20
120.79454040937765
 10
4647.12001992455
 20
122.26453319418617
 10
4648.590012709358
 20
123.73452597899492
 10
4648.590012709358
 20
126.5916688361376
 10
4653.642872257279
 20
131.6445283840587
 10
4663.725368048418
 20
133.08488492564996
 10
4665.160005494167
 20
131.65024747990051
 10
4668.0171483513095
 20
131.65024747990051
 10
4673.731434065596
 20
125.93596176561472
 10
4676.588576922739
 20
125.93596176561472
 10
4678.0171483513095
 20
124.50739033704339
 10
4689.362877067407
 20
124.50739033704339
 10
4690.791448495978
 20
125.93596176561472
 10
4717.934305638835
 20
125.93596176561472
 10
4719.371430952006
 20
127.3730870787858
 10
4726.596456773958
 20
125.9280819143952
 10
4731.647155566501
 20
120.87738312185203
 10
4731.647155566501
 20
118.02024026470914
 10
4733.093064022671
 20
116.5743318085396
 10
4730.20695844249
 20
109.35906785808614
 10
4723.052289867832
 20
99.34253185356512
 10
4713.731434065596
 20
90.02167605132915
 10
4710.874291208453
 20
90.02167605132915
 10
4709.428382752283
 20
88.57576759515939
 10
4702.24218304043
 20
91.4502474799005
  0
LWPOLYLINE
  5
51
330
17
100
AcDbEntity
  8
Y
100
AcDbPolyline
 90
51
 70
1
 10
5375.118584137929
 20
32.837397552234584
 10
5373.731434065595
 20
31.45024747990044
 10
5370.791448495977
 20
31.45024747990044
 10
5369.362877067407
 20
32.878818908471885
 10
5366.505734210264
 20
32.878818908471885
 10
5360.0300460547605
 20
39.35450706397437
 10
5355.744331769047
 20
53.64022134968871
 10
5350.791448495978
 20
58.59310462275757
 10
5347.934305638834
 20
58.59310462275757
 10
5346.505734210264
 20
60.021676051329024
 10
5336.588576922739
 20
60.021676051329024
 10
5335.162558787637
 20
58.59565791622756
 10
5312.22264011928
 20
57.16191299945539
 10
5310.791448495978
 20
58.59310462275757
 10
5307.934305638835
 20
58.59310462275757
 10
5302.885430592964
 20
63.6419796686285
 10
5301.456859164393
 20
69.35626538291417
 10
5298.590012709358
 20
72.22311183794872
 10
5298.590012709358
 20
75.08025469509182
 10
5297.1200199245495
 20
76.55024747990058
 10
5298.590012709358
 20
78.0202402647091
 10
5298.590012709358
 20
80.87738312185199
 10
5303.648591353121
 20
85.93596176561469
 10
5306.505734210264
 20
85.93596176561469
 10
5307.934305638835
 20
87.36453319418625
 10
5336.505734210264
 20
87.36453319418625
 10
5337.934305638835
 20
88.79310462275758
 10
5340.791448495978
 20
88.79310462275758
 10
5345.732869852215
 20
93.7345259789949
 10
5345.732869852215
 20
96.59166883613779
 10
5347.145199058674
 20
98.00399804259608
 10
5342.871160391962
 20
109.40143448716155
 10
5344.314002021536
 20
115.17280100545813
 10
5349.362877067407
 20
120.22167605132917
 10
5352.220019924549
 20
120.22167605132917
 10
5353.67026740445
 20
121.67192353122968
 10
5365.1421909356795
 20
115.93596176561472
 10
5368.0171483513095
 20
115.93596176561472
 10
5372.313828981733
 20
111.63928113519106
 10
5382.3138289817325
 20
108.78213827804817
 10
5388.0171483513095
 20
103.07881890847182
 10
5390.874291208453
 20
103.07881890847182
 10
5395.932869852215
 20
98.02024026470913
 10
5395.932869852215
 20
95.16309740756623
 10
5397.361441280787
 20
93.7345259789949
 10
5397.361441280787
 20
40.794540409377355
 10
5395.932869852215
 20
39.365968980806024
 10
5395.932869852215
 20
36.50882612366313
 10
5390.874291208453
 20
31.45024747990044
 10
5376.505734210264
 20
31.45024747990044
 10
5375.118584137929
 20
32.837397552234584
  0
LWPOLYLINE
  5
52
330
17
100
AcDbEntity
  8
Y
100
AcDbPolyline
 90
22
 70
1
 10
5295.077162781692
 20
122.87881890847186
 10
5292.22001992455
 20
122.87881890847186
 10
5287.161441280787
 20
127.93739755223477
 10
5287.161441280787
 20
130.79454040937765
 10
5285.691448495978
 20
132.26453319418619
 10
5287.161441280787
 20
133.73452597899472
 10
5287.161441280787
 20
136.59166883613761
 10
5292.22001992455
 20
141.65024747990051
 10
5295.077162781692
 20
141.65024747990051
 10
5296.547155566502
 20
143.12024026470905
 10
5298.0171483513095
 20
141.65024747990051
 10
5300.866203185548
 20
141.65024747990051
 10
5306.59100028522
 20
137.35664965514673
 10
5312.312566234917
 20
135.92625816772286
 10
5317.361441280787
 20
130.87738312185203
 10
5317.361441280787
 20
128.02024026470914
 10
5318.831434065595
 20
126.5502474799004
 10
5317.361441280787
 20
125.08025469509188
 10
5317.361441280787
 20
122.22311183794898
 10
5310.874291208452
 20
115.73596176561473
 10
5302.220019924549
 20
115.73596176561473
 10
5295.077162781692
 20
122.87881890847186
  0
LWPOLYLINE
  5
53
330
17
100
AcDbEntity
  8
Y
100
AcDbPolyline
 90
139
 70
1
 10
5079.404298423644
 20
2.837397552234555
 10
5078.0171483513095
 20
1.4502474799004128
 10
5073.6485913531205
 20
1.4502474799004128
 10
5072.22001992455
 20
2.8788189084719695
 10
5063.6485913531205
 20
2.8788189084719695
 10
5062.261441280786
 20
4.265968980806001
 10
5060.874291208453
 20
2.8788189084719695
 10
5057.934305638835
 20
2.8788189084719695
 10
5056.505734210264
 20
4.307390337043304
 10
5053.644635886699
 20
4.307390337043304
 10
5043.6353773338715
 20
15.746542968845922
 10
5037.987361339386
 20
17.158546967467547
 10
5032.241695975878
 20
14.285714285714235
 10
5030.791448495978
 20
15.735961765614759
 10
5027.934305638835
 20
15.735961765614759
 10
5011.447155566501
 20
32.223111837948906
 10
5011.447155566501
 20
35.080254695091575
 10
5009.977162781693
 20
36.550247479900435
 10
5011.447155566501
 20
38.020240264709294
 10
5011.447155566501
 20
40.87738312185218
 10
5016.4851497706495
 20
45.91537732600093
 10
5023.653416090296
 20
50.2163371177885
 10
5030.783568644759
 20
51.642367628681015
 10
5032.261441280787
 20
53.120240264709295
 10
5033.731434065596
 20
51.650247479900436
 10
5036.588576922738
 20
51.650247479900436
 10
5042.302862637024
 20
45.93596176561476
 10
5045.160005494167
 20
45.93596176561476
 10
5046.569992784809
 20
44.5259744749732
 10
5056.538727392584
 20
48.79828930687713
 10
5062.2945304142595
 20
47.35933855145835
 10
5078.027017888193
 20
40.20820788148893
 10
5083.731866545228
 20
35.92957138871278
 10
5090.867399356327
 20
34.502464826493
 10
5106.5631570440155
 20
25.941142451389677
 10
5113.644022177019
 20
27.357315477990362
 10
5125.752124654742
 20
38.040935311274616
 10
5129.996908086601
 20
46.530502174992215
 10
5128.590012709358
 20
47.937397552234586
 10
5128.590012709358
 20
50.794540409377475
 10
5123.633815942534
 20
55.750737176201824
 10
5116.500349017603
 20
58.60412394617398
 10
5099.3540085618
 20
70.03501758337572
 10
5093.666405911608
 20
72.87881890847203
 10
5090.799536518882
 20
72.87881890847203
 10
5085.085250804596
 20
77.16453319418626
 10
5082.237834483037
 20
77.16453319418626
 10
5070.776889426578
 20
82.89500572241504
 10
5060.01858413793
 20
92.21887030591091
 10
5060.01858413793
 20
95.08025469509185
 10
5058.548591353121
 20
96.55024747990059
 10
5060.01858413793
 20
98.02024026470913
 10
5060.01858413793
 20
100.87738312185202
 10
5066.496030612372
 20
107.3548295962944
 10
5072.22275157434
 20
108.78650983678628
 10
5079.367701804581
 20
113.07347997493122
 10
5086.509990996369
 20
114.50193781328888
 10
5105.07788769094
 20
125.92833577917884
 10
5115.076102522175
 20
128.78496858810294
 10
5119.374020859871
 20
131.65024747990051
 10
5122.22001992455
 20
131.65024747990051
 10
5125.069282930473
 20
134.49951048582386
 10
5132.2121400733295
 20
135.9280819143952
 10
5135.070533761052
 20
138.7864756021161
 10
5143.6616917918755
 20
140.21833527392025
 10
5153.683299445026
 20
144.51330998241352
 10
5163.742400410305
 20
141.63928113519108
 10
5169.445719779882
 20
135.93596176561473
 10
5172.302862637024
 20
135.93596176561473
 10
5173.709758014266
 20
134.5290663883726
 10
5179.380691625894
 20
137.36453319418607
 10
5185.160005494166
 20
137.36453319418607
 10
5186.588576922739
 20
135.93596176561473
 10
5196.567681336696
 20
135.93596176561473
 10
5206.561640665239
 20
131.65283633909664
 10
5217.988917612765
 20
133.08124595753733
 10
5225.174780904754
 20
130.2069006407419
 10
5230.211955117288
 20
125.16972642820778
 10
5231.651140947848
 20
116.53461144484567
 10
5228.790012709358
 20
110.8123549678649
 10
5228.790012709358
 20
99.36596898080607
 10
5227.3614412807865
 20
97.93739755223474
 10
5227.3614412807865
 20
95.08025469509185
 10
5222.302862637024
 20
90.02167605132915
 10
5219.445719779881
 20
90.02167605132915
 10
5218.0171483513095
 20
88.59310462275761
 10
5199.445719779881
 20
88.59310462275761
 10
5198.01714835131
 20
87.16453319418626
 10
5189.445719779881
 20
87.16453319418626
 10
5188.0171483513095
 20
85.7359617656147
 10
5182.285048078537
 20
85.7359617656147
 10
5176.570762364251
 20
82.87881890847181
 10
5173.725709047175
 20
82.87881890847181
 10
5165.918588118291
 20
76.49117451211251
 10
5164.4917016285335
 20
72.2105150428386
 10
5161.639275715282
 20
69.35808912958652
 10
5160.21070428671
 20
62.21523198672929
 10
5158.800759093117
 20
60.805286793137235
 10
5160.208880540038
 20
55.17280100545818
 10
5165.165724590009
 20
50.21595695548731
 10
5175.144593188937
 20
48.79040429849757
 10
5189.399742753942
 20
43.08834447249554
 10
5195.09497734018
 20
45.93596176561476
 10
5200.809263054466
 20
45.93596176561476
 10
5206.523548768751
 20
48.79310462275755
 10
5210.809263054465
 20
48.79310462275755
 10
5216.5235487687505
 20
51.650247479900436
 10
5222.2433078226095
 20
51.650247479900436
 10
5233.715191843483
 20
55.95220398772782
 10
5235.160005494167
 20
54.507390337043326
 10
5238.01714835131
 20
54.507390337043326
 10
5243.075726995073
 20
49.44881169328064
 10
5243.075726995073
 20
46.59166883613774
 10
5244.545719779881
 20
45.121676051329
 10
5243.075726995073
 20
43.65168326652036
 10
5243.075726995073
 20
40.80262843228155
 10
5238.766403525205
 20
35.056863805790314
 10
5206.597624035758
 20
1.4583607834799395
 10
5199.3714309520055
 20
0.013122166729551132
 10
5197.955981690164
 20
1.4285714285713347
 10
5195.098838833022
 20
0.0
 10
5193.6485913531205
 20
1.4502474799004128
 10
5185.077162781692
 20
1.4502474799004128
 10
5183.690012709359
 20
2.837397552234555
 10
5182.302862637024
 20
1.4502474799004128
 10
5173.731434065595
 20
1.4502474799004128
 10
5172.302862637024
 20
0.021676051329078128
 10
5157.934305638835
 20
0.021676051329078128
 10
5156.505734210264
 20
1.4502474799004128
 10
5152.302862637024
 20
1.4502474799004128
 10
5150.874291208453
 20
0.021676051329078128
 10
5146.505734210264
 20
0.021676051329078128
 10
5145.077162781692
 20
1.4502474799004128
 10
5122.302862637024
 20
1.4502474799004128
 10
5120.874291208453
 20
0.021676051329078128
 10
5107.934305638835
 20
0.021676051329078128
 10
5106.505734210264
 20
1.4502474799004128
 10
5080.791448495977
 20
1.4502474799004128
 10
5079.404298423644
 20
2.837397552234555
  0
LWPOLYLINE
  5
54
330
17
100
AcDbEntity
  8
Y
100
AcDbPolyline
 90
45
 70
1
 10
5373.731434065595
 20
31.45024747990044
 10
5370.791448495977
 20
31.45024747990044
 10
5369.362877067407
 20
32.878818908471885
 10
5366.505734210264
 20
32.878818908471885
 10
5360.0300460547605
 20
39.35450706397437
 10
5355.744331769047
 20
53.64022134968871
 10
5350.791448495978
 20
58.59310462275757
 10
5347.934305638834
 20
58.59310462275757
 10
5346.505734210264
 20
60.021676051329024
 10
5336.588576922739
 20
60.021676051329024
 10
5335.162558787637
 20
58.59565791622756
 10
5312.22264011928
 20
57.16191299945539
 10
5310.791448495978
 20
58.59310462275757
 10
5307.934305638835
 20
58.59310462275757
 10
5302.885430592964
 20
63.6419796686285
 10
5301.456859164393
 20
69.35626538291417
 10
5298.590012709358
 20
72.22311183794872
 10
5298.590012709358
 20
75.08025469509182
 10
5297.1200199245495
 20
76.55024747990058
 10
5298.590012709358
 20
78.0202402647091
 10
5298.590012709358
 20
80.87738312185199
 10
5303.648591353121
 20
85.93596176561469
 10
5306.505734210264
 20
85.93596176561469
 10
5307.934305638835
 20
87.36453319418625
 10
5342.280699521143
 20
87.36453319418625
 10
5349.460495190468
 20
84.49261492645633
 10
5360.874291208453
 20
73.07881890847202
 10
5363.731434065596
 20
73.07881890847202
 10
5365.138329442838
 20
71.67192353122954
 10
5367.952120197322
 20
73.07881890847202
 10
5375.077162781692
 20
73.07881890847202
 10
5376.505734210264
 20
74.50739033704335
 10
5386.588576922738
 20
74.50739033704335
 10
5388.0171483513095
 20
73.07881890847202
 10
5390.874291208453
 20
73.07881890847202
 10
5395.932869852215
 20
68.0202402647092
 10
5395.932869852215
 20
65.16309740756643
 10
5397.361441280787
 20
63.734525978995094
 10
5397.361441280787
 20
40.794540409377355
 10
5395.932869852215
 20
39.365968980806024
 10
5395.932869852215
 20
36.50882612366313
 10
5390.874291208453
 20
31.45024747990044
 10
5376.505734210264
 20
31.45024747990044
 10
5375.118584137929
 20
32.837397552234584
 10
5373.731434065595
 20
31.45024747990044
  0
LWPOLYLINE
  5
55
330
17
100
AcDbEntity
  8
Y
100
AcDbPolyline
 90
22
 70
1
 10
5295.077162781692
 20
122.87881890847186
 10
5292.22001992455
 20
122.87881890847186
 10
5287.161441280787
 20
127.93739755223477
 10
5287.161441280787
 20
130.79454040937765
 10
5285.691448495978
 20
132.26453319418619
 10
5287.161441280787
 20
133.73452597899472
 10
5287.161441280787
 20
136.59166883613761
 10
5292.22001992455
 20
141.65024747990051
 10
5295.077162781692
 20
141.65024747990051
 10
5296.547155566502
 20
143.12024026470905
 10
5298.0171483513095
 20
141.65024747990051
 10
5300.866203185548
 20
141.65024747990051
 10
5306.59100028522
 20
137.35664965514673
 10
5312.312566234917
 20
135.92625816772286
 10
5317.361441280787
 20
130.87738312185203
 10
5317.361441280787
 20
128.02024026470914
 10
5318.831434065595
 20
126.5502474799004
 10
5317.361441280787
 20
125.08025469509188
 10
5317.361441280787
 20
122.22311183794898
 10
5310.874291208452
 20
115.73596176561473
 10
5302.220019924549
 20
115.73596176561473
 10
5295.077162781692
 20
122.87881890847186
  0
LWPOLYLINE
  5
56
330
17
100
AcDbEntity
  8
Y
100
AcDbPolyline
 90
86
 70
1
 10
5078.0171483513095
 20
1.4502474799004128
 10
5073.6485913531205
 20
1.4502474799004128
 10
5072.22001992455
 20
2.8788189084719695
 10
5063.6485913531205
 20
2.8788189084719695
 10
5062.261441280786
 20
4.265968980806001
 10
5060.874291208453
 20
2.8788189084719695
 10
5057.934305638835
 20
2.8788189084719695
 10
5056.505734210264
 20
4.307390337043304
 10
5053.644635886699
 20
4.307390337043304
 10
5043.6353773338715
 20
15.746542968845922
 10
5037.987361339386
 20
17.158546967467547
 10
5032.241695975878
 20
14.285714285714235
 10
5030.791448495978
 20
15.735961765614759
 10
5027.934305638835
 20
15.735961765614759
 10
5011.447155566501
 20
32.223111837948906
 10
5011.447155566501
 20
35.080254695091575
 10
5009.977162781693
 20
36.550247479900435
 10
5011.447155566501
 20
38.020240264709294
 10
5011.447155566501
 20
40.88234166073734
 10
5020.78151670479
 20
48.78064723928954
 10
5032.28662041491
 20
53.09506113058493
 10
5033.731434065596
 20
51.650247479900436
 10
5036.588576922738
 20
51.650247479900436
 10
5042.302862637024
 20
45.93596176561476
 10
5045.160005494167
 20
45.93596176561476
 10
5046.569992784809
 20
44.5259744749732
 10
5056.538727392584
 20
48.79828930687713
 10
5062.2945304142595
 20
47.35933855145835
 10
5078.027017888193
 20
40.20820788148893
 10
5083.731866545228
 20
35.92957138871278
 10
5090.865613214225
 20
34.502822054913175
 10
5099.463534338368
 20
30.2038614928416
 10
5102.310742488244
 20
27.356653342966773
 10
5109.3714309520055
 20
25.94451565021427
 10
5110.791448495978
 20
27.36453319418619
 10
5113.6485913531205
 20
27.36453319418619
 10
5119.362877067407
 20
33.07881890847186
 10
5120.787493029556
 20
33.07881890847186
 10
5130.787493029556
 20
44.50739033704332
 10
5132.220019924549
 20
44.50739033704332
 10
5137.920332899999
 20
50.207703312493024
 10
5149.386164965467
 20
54.507390337043326
 10
5156.570762364251
 20
54.507390337043326
 10
5165.148790942305
 20
50.21837604801649
 10
5175.144593188937
 20
48.79040429849757
 10
5189.399742753942
 20
43.08834447249554
 10
5195.09497734018
 20
45.93596176561476
 10
5200.809263054466
 20
45.93596176561476
 10
5206.523548768751
 20
48.79310462275755
 10
5210.809263054465
 20
48.79310462275755
 10
5216.5235487687505
 20
51.650247479900436
 10
5222.2433078226095
 20
51.650247479900436
 10
5233.715191843483
 20
55.95220398772782
 10
5235.160005494167
 20
54.507390337043326
 10
5238.01714835131
 20
54.507390337043326
 10
5243.075726995073
 20
49.44881169328064
 10
5243.075726995073
 20
46.59166883613774
 10
5244.545719779881
 20
45.121676051329
 10
5243.075726995073
 20
43.65168326652036
 10
5243.075726995073
 20
40.80262843228155
 10
5238.766403525205
 20
35.056863805790314
 10
5206.589855979139
 20
1.4502474799004128
 10
5203.731434065596
 20
1.4502474799004128
 10
5202.302862637024
 20
0.021676051329078128
 10
5199.362877067406
 20
0.021676051329078128
 10
5197.955981690164
 20
1.4285714285713347
 10
5195.098838833022
 20
0.0
 10
5193.6485913531205
 20
1.4502474799004128
 10
5185.077162781692
 20
1.4502474799004128
 10
5183.690012709359
 20
2.837397552234555
 10
5182.302862637024
 20
1.4502474799004128
 10
5173.731434065595
 20
1.4502474799004128
 10
5172.302862637024
 20
0.021676051329078128
 10
5157.934305638835
 20
0.021676051329078128
 10
5156.505734210264
 20
1.4502474799004128
 10
5152.302862637024
 20
1.4502474799004128
 10
5150.874291208453
 20
0.021676051329078128
 10
5146.505734210264
 20
0.021676051329078128
 10
5145.077162781692
 20
1.4502474799004128
 10
5122.302862637024
 20
1.4502474799004128
 10
5120.874291208453
 20
0.021676051329078128
 10
5107.934305638835
 20
0.021676051329078128
 10
5106.505734210264
 20
1.4502474799004128
 10
5080.791448495977
 20
1.4502474799004128
 10
5079.404298423644
 20
2.837397552234555
 10
5078.0171483513095
 20
1.4502474799004128
  0
LWPOLYLINE
  5
57
330
17
100
AcDbEntity
  8
Y
100
AcDbPolyline
 90
50
 70
1
 10
5157.943680489731
 20
87.16453319418626
 10
5147.943680489731
 20
94.30739033704339
 10
5145.09497734018
 20
94.30739033704339
 10
5139.351512019144
 20
97.17912299756127
 10
5133.644785321336
 20
101.45916802091726
 10
5123.637625008411
 20
104.31835668175282
 10
5120.791448495977
 20
107.16453319418629
 10
5117.952120197322
 20
107.16453319418629
 10
5112.202205366063
 20
110.039490609816
 10
5107.161441280787
 20
115.08025469509187
 10
5107.161441280787
 20
117.93739755223476
 10
5105.691448495978
 20
119.40739033704328
 10
5107.161441280787
 20
120.87738312185203
 10
5107.161441280787
 20
123.73452597899492
 10
5112.20905357984
 20
128.7821382780482
 10
5122.20905357984
 20
131.63928113519108
 10
5125.069282930473
 20
134.49951048582386
 10
5132.2121400733295
 20
135.9280819143952
 10
5135.070533761052
 20
138.7864756021161
 10
5143.6616917918755
 20
140.21833527392025
 10
5153.683299445026
 20
144.51330998241352
 10
5163.742400410305
 20
141.63928113519108
 10
5169.445719779882
 20
135.93596176561473
 10
5172.302862637024
 20
135.93596176561473
 10
5173.709758014266
 20
134.5290663883726
 10
5179.380691625894
 20
137.36453319418607
 10
5185.160005494166
 20
137.36453319418607
 10
5186.588576922739
 20
135.93596176561473
 10
5196.567681336696
 20
135.93596176561473
 10
5206.561640665239
 20
131.65283633909664
 10
5217.988917612765
 20
133.08124595753733
 10
5225.174780904754
 20
130.2069006407419
 10
5230.211955117288
 20
125.16972642820778
 10
5231.651140947848
 20
116.53461144484567
 10
5228.790012709358
 20
110.8123549678649
 10
5228.790012709358
 20
99.36596898080607
 10
5227.3614412807865
 20
97.93739755223474
 10
5227.3614412807865
 20
95.08025469509185
 10
5222.302862637024
 20
90.02167605132915
 10
5219.445719779881
 20
90.02167605132915
 10
5218.0171483513095
 20
88.59310462275761
 10
5199.445719779881
 20
88.59310462275761
 10
5198.01714835131
 20
87.16453319418626
 10
5189.445719779881
 20
87.16453319418626
 10
5188.022867447152
 20
85.7416808614565
 10
5178.022867447152
 20
84.31310943288517
 10
5176.584747134576
 20
82.87498912030877
 10
5168.664070585448
 20
83.59505062477501
 10
5160.811208932744
 20
87.16453319418626
 10
5157.943680489731
 20
87.16453319418626
  0
LWPOLYLINE
  5
58
330
17
100
AcDbEntity
  8
Y
100
AcDbPolyline
 90
32
 70
1
 10
5360.791448495978
 20
72.87881890847203
 10
5355.756306979457
 20
77.91396042499376
 10
5348.590012709357
 20
87.94677240313098
 10
5348.590012709357
 20
90.79454040937762
 10
5347.161441280787
 20
92.22311183794896
 10
5347.161441280787
 20
99.38686456684775
 10
5342.872766364567
 20
109.3937727046933
 10
5344.310017519486
 20
119.45453078912227
 10
5349.362877067407
 20
124.50739033704339
 10
5352.220019924549
 20
124.50739033704339
 10
5353.641962332479
 20
125.9293327449732
 10
5362.272601140736
 20
127.36777254634946
 10
5369.380214095005
 20
124.52472736464159
 10
5370.791448495977
 20
125.93596176561472
 10
5373.648591353121
 20
125.93596176561472
 10
5377.926425787616
 20
130.2137962001094
 10
5385.069282930473
 20
131.64236762868097
 10
5386.547155566501
 20
133.12024026470903
 10
5388.0171483513095
 20
131.65024747990051
 10
5390.874291208453
 20
131.65024747990051
 10
5395.932869852215
 20
126.5916688361376
 10
5395.932869852215
 20
123.73452597899492
 10
5397.361441280787
 20
122.30595455042337
 10
5397.361441280787
 20
85.08025469509184
 10
5395.932869852215
 20
83.65168326652051
 10
5395.932869852215
 20
80.79454040937762
 10
5390.874291208453
 20
75.7359617656147
 10
5388.0171483513095
 20
75.7359617656147
 10
5386.588576922738
 20
74.30739033704337
 10
5376.588576922738
 20
74.30739033704337
 10
5375.160005494167
 20
72.87881890847203
 10
5360.791448495978
 20
72.87881890847203
  0
LWPOLYLINE
  5
59
330
17
100
AcDbEntity
  8
Y
100
AcDbPolyline
 90
43
 70
1
 10
5137.247039481475
 20
50.73374617526749
 10
5125.098801619203
 20
55.735961765614796
 10
5122.235528677967
 20
55.735961765614796
 10
5109.3434911256345
 20
62.898204850243886
 10
5106.493137415154
 20
65.74855856072503
 10
5102.207423129439
 20
67.17712998929638
 10
5099.345062508919
 20
70.03949060981651
 10
5093.666405911608
 20
72.87881890847203
 10
5090.799536518882
 20
72.87881890847203
 10
5085.085250804596
 20
77.16453319418626
 10
5082.235941879351
 20
77.16453319418626
 10
5066.486627864502
 20
85.75506811137646
 10
5060.028287735822
 20
92.21340824005708
 10
5058.579266325598
 20
98.00949388094938
 10
5060.01858413793
 20
99.44881169328046
 10
5060.01858413793
 20
102.30595455042335
 10
5065.0692829304735
 20
107.35665334296674
 10
5072.21214007333
 20
108.78522477153807
 10
5077.924602040944
 20
114.4976867391515
 10
5095.149259110407
 20
118.80385100651736
 10
5096.588576922739
 20
117.36453319418605
 10
5099.445719779881
 20
117.36453319418605
 10
5102.302862637024
 20
114.50739033704338
 10
5105.1421909356795
 20
114.50739033704338
 10
5113.749248624083
 20
110.2038614928419
 10
5116.599543267448
 20
107.35356684947683
 10
5126.589637182256
 20
104.4992543023887
 10
5130.863147415988
 20
101.65024747990049
 10
5133.723346042691
 20
101.65024747990049
 10
5139.457084828144
 20
97.34994339081126
 10
5145.1421909356795
 20
94.50739033704336
 10
5148.0171483513095
 20
94.50739033704336
 10
5150.8921057669395
 20
91.63243292141343
 10
5159.463534338368
 20
87.3467186356992
 10
5164.504298423644
 20
82.30595455042334
 10
5164.504298423644
 20
79.44881169328045
 10
5165.943616235975
 20
78.00949388094935
 10
5164.494594825752
 20
72.21340824005695
 10
5161.647155566501
 20
69.36596898080604
 10
5161.647155566501
 20
66.51243702591702
 10
5150.892106885634
 20
54.32338185426821
 10
5143.714547767616
 20
51.45235820706095
 10
5137.247039481475
 20
50.73374617526749
  0
LWPOLYLINE
  5
5A
330
17
100
AcDbEntity
  8
Y
100
AcDbPolyline
 90
32
 70
1
 10
5355.756306979457
 20
77.91396042499376
 10
5348.590012709357
 20
87.94677240313098
 10
5348.590012709357
 20
90.79454040937762
 10
5347.161441280787
 20
92.22311183794896
 10
5347.161441280787
 20
99.38686456684775
 10
5342.872766364567
 20
109.3937727046933
 10
5344.310017519486
 20
119.45453078912227
 10
5349.362877067407
 20
124.50739033704339
 10
5352.220019924549
 20
124.50739033704339
 10
5353.641962332479
 20
125.9293327449732
 10
5362.272601140736
 20
127.36777254634946
 10
5369.380214095005
 20
124.52472736464159
 10
5370.791448495977
 20
125.93596176561472
 10
5373.648591353121
 20
125.93596176561472
 10
5377.926425787616
 20
130.2137962001094
 10
5385.069282930473
 20
131.64236762868097
 10
5386.547155566501
 20
133.12024026470903
 10
5388.0171483513095
 20
131.65024747990051
 10
5390.874291208453
 20
131.65024747990051
 10
5395.932869852215
 20
126.5916688361376
 10
5395.932869852215
 20
123.73452597899492
 10
5397.361441280787
 20
122.30595455042337
 10
5397.361441280787
 20
85.08025469509184
 10
5395.932869852215
 20
83.65168326652051
 10
5395.932869852215
 20
80.79454040937762
 10
5390.874291208453
 20
75.7359617656147
 10
5388.0171483513095
 20
75.7359617656147
 10
5386.588576922738
 20
74.30739033704337
 10
5376.588576922738
 20
74.30739033704337
 10
5375.160005494167
 20
72.87881890847203
 10
5360.791448495978
 20
72.87881890847203
 10
5355.756306979457
 20
77.91396042499376
  0
LWPOLYLINE
  5
5B
330
17
100
AcDbEntity
  8
Y
100
AcDbPolyline
 90
43
 70
1
 10
5125.098801619203
 20
55.735961765614796
 10
5122.235528677967
 20
55.735961765614796
 10
5109.3434911256345
 20
62.898204850243886
 10
5106.493137415154
 20
65.74855856072503
 10
5102.207423129439
 20
67.17712998929638
 10
5099.345062508919
 20
70.03949060981651
 10
5093.666405911608
 20
72.87881890847203
 10
5090.799536518882
 20
72.87881890847203
 10
5085.085250804596
 20
77.16453319418626
 10
5082.235941879351
 20
77.16453319418626
 10
5066.486627864502
 20
85.75506811137646
 10
5060.028287735822
 20
92.21340824005708
 10
5058.579266325598
 20
98.00949388094938
 10
5060.01858413793
 20
99.44881169328046
 10
5060.01858413793
 20
102.30595455042335
 10
5065.0692829304735
 20
107.35665334296674
 10
5072.21214007333
 20
108.78522477153807
 10
5077.924602040944
 20
114.4976867391515
 10
5095.149259110407
 20
118.80385100651736
 10
5096.588576922739
 20
117.36453319418605
 10
5099.445719779881
 20
117.36453319418605
 10
5102.302862637024
 20
114.50739033704338
 10
5105.1421909356795
 20
114.50739033704338
 10
5113.749248624083
 20
110.2038614928419
 10
5116.599543267448
 20
107.35356684947683
 10
5126.589637182256
 20
104.4992543023887
 10
5130.863147415988
 20
101.65024747990049
 10
5133.723346042691
 20
101.65024747990049
 10
5139.457084828144
 20
97.34994339081126
 10
5145.1421909356795
 20
94.50739033704336
 10
5148.0171483513095
 20
94.50739033704336
 10
5150.8921057669395
 20
91.63243292141343
 10
5159.463534338368
 20
87.3467186356992
 10
5164.504298423644
 20
82.30595455042334
 10
5164.504298423644
 20
79.44881169328045
 10
5165.943616235975
 20
78.00949388094935
 10
5164.494594825752
 20
72.21340824005695
 10
5161.647155566501
 20
69.36596898080604
 10
5161.647155566501
 20
66.51243702591702
 10
5150.892106885634
 20
54.32338185426821
 10
5143.714547767616
 20
51.45235820706095
 10
5137.247039481475
 20
50.73374617526749
 10
5125.098801619203
 20
55.735961765614796
  0
LWPOLYLINE
  5
5C
330
17
100
AcDbEntity
  8
Y
100
AcDbPolyline
 90
45
 70
1
 10
5373.731434065595
 20
31.45024747990044
 10
5370.791448495977
 20
31.45024747990044
 10
5369.362877067407
 20
32.878818908471885
 10
5366.505734210264
 20
32.878818908471885
 10
5360.0300460547605
 20
39.35450706397437
 10
5355.744331769047
 20
53.64022134968871
 10
5350.791448495978
 20
58.59310462275757
 10
5347.934305638834
 20
58.59310462275757
 10
5346.505734210264
 20
60.021676051329024
 10
5336.588576922739
 20
60.021676051329024
 10
5335.162558787637
 20
58.59565791622756
 10
5312.22264011928
 20
57.16191299945539
 10
5310.791448495978
 20
58.59310462275757
 10
5307.934305638835
 20
58.59310462275757
 10
5302.885430592964
 20
63.6419796686285
 10
5301.456859164393
 20
69.35626538291417
 10
5298.590012709358
 20
72.22311183794872
 10
5298.590012709358
 20
75.08025469509182
 10
5297.1200199245495
 20
76.55024747990058
 10
5298.590012709358
 20
78.0202402647091
 10
5298.590012709358
 20
80.87738312185199
 10
5303.648591353121
 20
85.93596176561469
 10
5306.505734210264
 20
85.93596176561469
 10
5307.934305638835
 20
87.36453319418625
 10
5342.280699521143
 20
87.36453319418625
 10
5349.460495190468
 20
84.49261492645633
 10
5360.874291208453
 20
73.07881890847202
 10
5363.731434065596
 20
73.07881890847202
 10
5365.138329442838
 20
71.67192353122954
 10
5367.952120197322
 20
73.07881890847202
 10
5375.077162781692
 20
73.07881890847202
 10
5376.505734210264
 20
74.50739033704335
 10
5386.588576922738
 20
74.50739033704335
 10
5388.0171483513095
 20
73.07881890847202
 10
5390.874291208453
 20
73.07881890847202
 10
5395.932869852215
 20
68.0202402647092
 10
5395.932869852215
 20
65.16309740756643
 10
5397.361441280787
 20
63.734525978995094
 10
5397.361441280787
 20
40.794540409377355
 10
5395.932869852215
 20
39.365968980806024
 10
5395.932869852215
 20
36.50882612366313
 10
5390.874291208453
 20
31.45024747990044
 10
5376.505734210264
 20
31.45024747990044
 10
5375.118584137929
 20
32.837397552234584
 10
5373.731434065595
 20
31.45024747990044
  0
LWPOLYLINE
  5
5D
330
17
100
AcDbEntity
  8
Y
100
AcDbPolyline
 90
22
 70
1
 10
5295.077162781692
 20
122.87881890847186
 10
5292.22001992455
 20
122.87881890847186
 10
5287.161441280787
 20
127.93739755223477
 10
5287.161441280787
 20
130.79454040937765
 10
5285.691448495978
 20
132.26453319418619
 10
5287.161441280787
 20
133.73452597899472
 10
5287.161441280787
 20
136.59166883613761
 10
5292.22001992455
 20
141.65024747990051
 10
5295.077162781692
 20
141.65024747990051
 10
5296.547155566502
 20
143.12024026470905
 10
5298.0171483513095
 20
141.65024747990051
 10
5300.866203185548
 20
141.65024747990051
 10
5306.59100028522
 20
137.35664965514673
 10
5312.312566234917
 20
135.92625816772286
 10
5317.361441280787
 20
130.87738312185203
 10
5317.361441280787
 20
128.02024026470914
 10
5318.831434065595
 20
126.5502474799004
 10
5317.361441280787
 20
125.08025469509188
 10
5317.361441280787
 20
122.22311183794898
 10
5310.874291208452
 20
115.73596176561473
 10
5302.220019924549
 20
115.73596176561473
 10
5295.077162781692
 20
122.87881890847186
  0
LWPOLYLINE
  5
5E
330
17
100
AcDbEntity
  8
Y
100
AcDbPolyline
 90
86
 70
1
 10
5078.0171483513095
 20
1.4502474799004128
 10
5073.6485913531205
 20
1.4502474799004128
 10
5072.22001992455
 20
2.8788189084719695
 10
5063.6485913531205
 20
2.8788189084719695
 10
5062.261441280786
 20
4.265968980806001
 10
5060.874291208453
 20
2.8788189084719695
 10
5057.934305638835
 20
2.8788189084719695
 10
5056.505734210264
 20
4.307390337043304
 10
5053.644635886699
 20
4.307390337043304
 10
5043.6353773338715
 20
15.746542968845922
 10
5037.987361339386
 20
17.158546967467547
 10
5032.241695975878
 20
14.285714285714235
 10
5030.791448495978
 20
15.735961765614759
 10
5027.934305638835
 20
15.735961765614759
 10
5011.447155566501
 20
32.223111837948906
 10
5011.447155566501
 20
35.080254695091575
 10
5009.977162781693
 20
36.550247479900435
 10
5011.447155566501
 20
38.020240264709294
 10
5011.447155566501
 20
40.88234166073734
 10
5020.78151670479
 20
48.78064723928954
 10
5032.28662041491
 20
53.09506113058493
 10
5033.731434065596
 20
51.650247479900436
 10
5036.588576922738
 20
51.650247479900436
 10
5042.302862637024
 20
45.93596176561476
 10
5045.160005494167
 20
45.93596176561476
 10
5046.569992784809
 20
44.5259744749732
 10
5056.538727392584
 20
48.79828930687713
 10
5062.2945304142595
 20
47.35933855145835
 10
5078.027017888193
 20
40.20820788148893
 10
5083.731866545228
 20
35.92957138871278
 10
5090.865613214225
 20
34.502822054913175
 10
5099.463534338368
 20
30.2038614928416
 10
5102.310742488244
 20
27.356653342966773
 10
5109.3714309520055
 20
25.94451565021427
 10
5110.791448495978
 20
27.36453319418619
 10
5113.6485913531205
 20
27.36453319418619
 10
5119.362877067407
 20
33.07881890847186
 10
5120.787493029556
 20
33.07881890847186
 10
5130.787493029556
 20
44.50739033704332
 10
5132.220019924549
 20
44.50739033704332
 10
5137.920332899999
 20
50.207703312493024
 10
5149.386164965467
 20
54.507390337043326
 10
5156.570762364251
 20
54.507390337043326
 10
5165.148790942305
 20
50.21837604801649
 10
5175.144593188937
 20
48.79040429849757
 10
5189.399742753942
 20
43.08834447249554
 10
5195.09497734018
 20
45.93596176561476
 10
5200.809263054466
 20
45.93596176561476
 10
5206.523548768751
 20
48.79310462275755
 10
5210.809263054465
 20
48.79310462275755
 10
5216.5235487687505
 20
51.650247479900436
 10
5222.2433078226095
 20
51.650247479900436
 10
5233.715191843483
 20
55.95220398772782
 10
5235.160005494167
 20
54.507390337043326
 10
5238.01714835131
 20
54.507390337043326
 10
5243.075726995073
 20
49.44881169328064
 10
5243.075726995073
 20
46.59166883613774
 10
5244.545719779881
 20
45.121676051329
 10
5243.075726995073
 20
43.65168326652036
 10
5243.075726995073
 20
40.80262843228155
 10
5238.766403525205
 20
35.056863805790314
 10
5206.589855979139
 20
1.4502474799004128
 10
5203.731434065596
 20
1.4502474799004128
 10
5202.302862637024
 20
0.021676051329078128
 10
5199.362877067406
 20
0.021676051329078128
 10
5197.955981690164
 20
1.4285714285713347
 10
5195.098838833022
 20
0.0
 10
5193.6485913531205
 20
1.4502474799004128
 10
5185.077162781692
 20
1.4502474799004128
 10
5183.690012709359
 20
2.837397552234555
 10
5182.302862637024
 20
1.4502474799004128
 10
5173.731434065595
 20
1.4502474799004128
 10
5172.302862637024
 20
0.021676051329078128
 10
5157.934305638835
 20
0.021676051329078128
 10
5156.505734210264
 20
1.4502474799004128
 10
5152.302862637024
 20
1.4502474799004128
 10
5150.874291208453
 20
0.021676051329078128
 10
5146.505734210264
 20
0.021676051329078128
 10
5145.077162781692
 20
1.4502474799004128
 10
5122.302862637024
 20
1.4502474799004128
 10
5120.874291208453
 20
0.021676051329078128
 10
5107.934305638835
 20
0.021676051329078128
 10
5106.505734210264
 20
1.4502474799004128
 10
5080.791448495977
 20
1.4502474799004128
 10
5079.404298423644
 20
2.837397552234555
 10
5078.0171483513095
 20
1.4502474799004128
  0
LWPOLYLINE
  5
5F
330
17
100
AcDbEntity
  8
Y
100
AcDbPolyline
 90
50
 70
1
 10
5157.943680489731
 20
87.16453319418626
 10
5147.943680489731
 20
94.30739033704339
 10
5145.09497734018
 20
94.30739033704339
 10
5139.351512019144
 20
97.17912299756127
 10
5133.644785321336
 20
101.45916802091726
 10
5123.637625008411
 20
104.31835668175282
 10
5120.791448495977
 20
107.16453319418629
 10
5117.952120197322
 20
107.16453319418629
 10
5112.202205366063
 20
110.039490609816
 10
5107.161441280787
 20
115.08025469509187
 10
5107.161441280787
 20
117.93739755223476
 10
5105.691448495978
 20
119.40739033704328
 10
5107.161441280787
 20
120.87738312185203
 10
5107.161441280787
 20
123.73452597899492
 10
5112.20905357984
 20
128.7821382780482
 10
5122.20905357984
 20
131.63928113519108
 10
5125.069282930473
 20
134.49951048582386
 10
5132.2121400733295
 20
135.9280819143952
 10
5135.070533761052
 20
138.7864756021161
 10
5143.6616917918755
 20
140.21833527392025
 10
5153.683299445026
 20
144.51330998241352
 10
5163.742400410305
 20
141.63928113519108
 10
5169.445719779882
 20
135.93596176561473
 10
5172.302862637024
 20
135.93596176561473
 10
5173.709758014266
 20
134.5290663883726
 10
5179.380691625894
 20
137.36453319418607
 10
5185.160005494166
 20
137.36453319418607
 10
5186.588576922739
 20
135.93596176561473
 10
5196.567681336696
 20
135.93596176561473
 10
5206.561640665239
 20
131.65283633909664
 10
5217.988917612765
 20
133.08124595753733
 10
5225.174780904754
 20
130.2069006407419
 10
5230.211955117288
 20
125.16972642820778
 10
5231.651140947848
 20
116.53461144484567
 10
5228.790012709358
 20
110.8123549678649
 10
5228.790012709358
 20
99.36596898080607
 10
5227.3614412807865
 20
97.93739755223474
 10
5227.3614412807865
 20
95.08025469509185
 10
5222.302862637024
 20
90.02167605132915
 10
5219.445719779881
 20
90.02167605132915
 10
5218.0171483513095
 20
88.59310462275761
 10
5199.445719779881
 20
88.59310462275761
 10
5198.01714835131
 20
87.16453319418626
 10
5189.445719779881
 20
87.16453319418626
 10
5188.022867447152
 20
85.7416808614565
 10
5178.022867447152
 20
84.31310943288517
 10
5176.584747134576
 20
82.87498912030877
 10
5168.664070585448
 20
83.59505062477501
 10
5160.811208932744
 20
87.16453319418626
 10
5157.943680489731
 20
87.16453319418626
  0
ENDSEC
  0
SECTION
  2
OBJECTS
  0
DICTIONARY
  5
A
330
0
100
AcDbDictionary
281
1
  3
ACAD_COLOR
350
B
  3
ACAD_GROUP
350
C
  3
ACAD_LAYOUT
350
D
  3
ACAD_MATERIAL
350
E
  3
ACAD_MLEADERSTYLE
350
F
  3
ACAD_MLINESTYLE
350
10
  3
ACAD_PLOTSETTINGS
350
11
  3
ACAD_PLOTSTYLENAME
350
12
  3
ACAD_SCALELIST
350
14
  3
ACAD_TABLESTYLE
350
15
  3
ACAD_VISUALSTYLE
350
16
  3
EZDXF_META
350
2D
  0
DICTIONARY
  5
B
330
A
100
AcDbDictionary
281
1
  0
DICTIONARY
  5
C
330
A
100
AcDbDictionary
281
1
  0
DICTIONARY
  5
D
330
A
100
AcDbDictionary
281
1
  3
Model
350
1A
  3
Layout1
350
1E
  0
DICTIONARY
  5
E
330
A
100
AcDbDictionary
281
1
  3
ByBlock
350
1F
  3
ByLayer
350
20
  3
Global
350
21
  0
DICTIONARY
  5
F
330
A
100
AcDbDictionary
281
1
  3
Standard
350
2C
  0
DICTIONARY
  5
10
330
A
100
AcDbDictionary
281
1
  3
Standard
350
22
  0
DICTIONARY
  5
11
330
A
100
AcDbDictionary
281
1
  0
ACDBDICTIONARYWDFLT
  5
12
330
A
100
AcDbDictionary
281
1
  3
Normal
350
13
100
AcDbDictionaryWithDefault
340
13
  0
ACDBPLACEHOLDER
  5
13
330
12
  0
DICTIONARY
  5
14
330
A
100
AcDbDictionary
281
1
  0
DICTIONARY
  5
15
330
A
100
AcDbDictionary
281
1
  0
DICTIONARY
  5
16
330
A
100
AcDbDictionary
281
1
  0
LAYOUT
  5
1A
330
D
100
AcDbPlotSettings
  1

  4
A3
  6

 40
7.5
 41
20.0
 42
7.5
 43
20.0
 44
420.0
 45
297.0
 46
0.0
 47
0.0
 48
0.0
 49
0.0
140
0.0
141
0.0
142
1.0
143
1.0
 70
1024
 72
1
 73
0
 74
5
  7

 75
16
 76
0
 77
2
 78
300
147
1.0
148
0.0
149
0.0
100
AcDbLayout
  1
Model
 70
1
 71
0
 10
0.0
 20
0.0
 11
420.0
 21
297.0
 12
0.0
 22
0.0
 32
0.0
 14
1e+20
 24
1e+20
 34
1e+20
 15
-1e+20
 25
-1e+20
 35
-1e+20
146
0.0
 13
0.0
 23
0.0
 33
0.0
 16
1.0
 26
0.0
 36
0.0
 17
0.0
 27
1.0
 37
0.0
 76
1
330
17
  0
LAYOUT
  5
1E
330
D
100
AcDbPlotSettings
  1

  4
A3
  6

 40
7.5
 41
20.0
 42
7.5
 43
20.0
 44
420.0
 45
297.0
 46
0.0
 47
0.0
 48
0.0
 49
0.0
140
0.0
141
0.0
142
1.0
143
1.0
 70
0
 72
1
 73
0
 74
5
  7

 75
16
 76
0
 77
2
 78
300
147
1.0
148
0.0
149
0.0
100
AcDbLayout
  1
Layout1
 70
1
 71
1
 10
0.0
 20
0.0
 11
420.0
 21
297.0
 12
0.0
 22
0.0
 32
0.0
 14
1e+20
 24
1e+20
 34
1e+20
 15
-1e+20
 25
-1e+20
 35
-1e+20
146
0.0
 13
0.0
 23
0.0
 33
0.0
 16
1.0
 26
0.0
 36
0.0
 17
0.0
 27
1.0
 37
0.0
 76
1
330
1B
  0
MATERIAL
  5
1F
102
{ACAD_REACTORS
330
E
102
}
330
E
100
AcDbMaterial
  1
ByBlock
  2

 70
0
 40
1.0
 71
1
 41
1.0
 91
-1023410177
 42
1.0
 72
1
  3

 73
1
 74
1
 75
1
 44
0.5
 73
0
 45
1.0
 46
1.0
 77
1
  4

 78
1
 79
1
170
1
 48
1.0
171
1
  6

172
1
173
1
174
1
140
1.0
141
1.0
175
1
  7

176
1
177
1
178
1
143
1.0
179
1
  8

270
1
271
1
272
1
145
1.0
146
1.0
273
1
  9

274
1
275
1
276
1
 42
1.0
 72
1
  3

 73
1
 74
1
 75
1
 94
63
  0
MATERIAL
  5
20
102
{ACAD_REACTORS
330
E
102
}
330
E
100
AcDbMaterial
  1
ByLayer
  2

 70
0
 40
1.0
 71
1
 41
1.0
 91
-1023410177
 42
1.0
 72
1
  3

 73
1
 74
1
 75
1
 44
0.5
 73
0
 45
1.0
 46
1.0
 77
1
  4

 78
1
 79
1
170
1
 48
1.0
171
1
  6

172
1
173
1
174
1
140
1.0
141
1.0
175
1
  7

176
1
177
1
178
1
143
1.0
179
1
  8

270
1
271
1
272
1
145
1.0
146
1.0
273
1
  9

274
1
275
1
276
1
 42
1.0
 72
1
  3

 73
1
 74
1
 75
1
 94
63
  0
MATERIAL
  5
21
102
{ACAD_REACTORS
330
E
102
}
330
E
100
AcDbMaterial
  1
Global
  2

 70
0
 40
1.0
 71
1
 41
1.0
 91
-1023410177
 42
1.0
 72
1
  3

 73
1
 74
1
 75
1
 44
0.5
 73
0
 45
1.0
 46
1.0
 77
1
  4

 78
1
 79
1
170
1
 48
1.0
171
1
  6

172
1
173
1
174
1
140
1.0
141
1.0
175
1
  7

176
1
177
1
178
1
143
1.0
179
1
  8

270
1
271
1
272
1
145
1.0
146
1.0
273
1
  9

274
1
275
1
276
1
 42
1.0
 72
1
  3

 73
1
 74
1
 75
1
 94
63
  0
MLINESTYLE
  5
22
102
{ACAD_REACTORS
330
10
102
}
330
10
100
AcDbMlineStyle
  2
Standard
 70
0
  3

 62
256
 51
90.0
 52
90.0
 71
2
 49
0.5
 62
256
  6
BYLAYER
 49
-0.5
 62
256
  6
BYLAYER
  0
MLEADERSTYLE
  5
2C
102
{ACAD_REACTORS
330
F
102
}
330
F
100
AcDbMLeaderStyle
179
2
170
2
171
1
172
0
 90
2
 40
0.0
 41
0.0
173
1
 91
-1056964608
 92
-2
290
1
 42
2.0
291
1
 43
8.0
  3
Standard
 44
4.0
300

342
29
174
1
175
1
176
0
178
1
 93
-1056964608
 45
4.0
292
0
297
0
 46
4.0
 94
-1056964608
 47
1.0
 49
1.0
140
1.0
294
1
141
0.0
177
0
142
1.0
295
0
296
0
143
3.75
271
0
272
9
273
9
  0
DICTIONARY
  5
2D
330
A
100
AcDbDictionary
280
1
281
1
  3
CREATED_BY_EZDXF
350
2E
  3
WRITTEN_BY_EZDXF
350
62
  0
DICTIONARYVAR
  5
2E
330
2D
100
DictionaryVariables
280
0
  1
1.4.4 @ 2026-07-26T13:36:22.600838+00:00
  0
DICTIONARYVAR
  5
62
330
2D
100
DictionaryVariables
280
0
  1
1.4.4 @ 2026-07-26T13:36:22.610817+00:00
  0
ENDSEC
  0
EOF
