  0
SECTION
  2
HEADER
  9
$ACADVER
  1
AC1027
  9
$ACADMAINTVER
 70
105
  9
$DWGCODEPAGE
  3
ANSI_1252
  9
$LASTSAVEDBY
  1
ezdxf
  9
$REQUIREDVERSIONS
160
0
  9
$INSBASE
 10
0.0
 20
0.0
 30
0.0
  9
$EXTMIN
 10
1e+20
 20
1e+20
 30
1e+20
  9
$EXTMAX
 10
-1e+20
 20
-1e+20
 30
-1e+20
  9
$LIMMIN
 10
0.0
 20
0.0
  9
$LIMMAX
 10
420.0
 20
297.0
  9
$ORTHOMODE
 70
0
  9
$REGENMODE
 70
1
  9
$FILLMODE
 70
1
  9
$QTEXTMODE
 70
0
  9
$MIRRTEXT
 70
1
  9
$LTSCALE
 40
1.0
  9
$ATTMODE
 70
1
  9
$TEXTSIZE
 40
2.5
  9
$TRACEWID
 40
1.0
  9
$TEXTSTYLE
  7
Standard
  9
$CLAYER
  8
0
  9
$CELTYPE
  6
ByLayer
  9
$CECOLOR
 62
256
  9
$CELTSCALE
 40
1.0
  9
$DISPSILH
 70
0
  9
$DIMSCALE
 40
1.0
  9
$DIMASZ
 40
2.5
  9
$DIMEXO
 40
0.625
  9
$DIMDLI
 40
3.75
  9
$DIMRND
 40
0.0
  9
$DIMDLE
 40
0.0
  9
$DIMEXE
 40
1.25
  9
$DIMTP
 40
0.0
  9
$DIMTM
 40
0.0
  9
$DIMTXT
 40
2.5
  9
$DIMCEN
 40
2.5
  9
$DIMTSZ
 40
0.0
  9
$DIMTOL
 70
0
  9
$DIMLIM
 70
0
  9
$DIMTIH
 70
0
  9
$DIMTOH
 70
0
  9
$DIMSE1
 70
0
  9
$DIMSE2
 70
0
  9
$DIMTAD
 70
1
  9
$DIMZIN
 70
8
  9
$DIMBLK
  1

  9
$DIMASO
 70
1
  9
$DIMSHO
 70
1
  9
$DIMPOST
  1

  9
$DIMAPOST
  1

  9
$DIMALT
 70
0
  9
$DIMALTD
 70
3
  9
$DIMALTF
 40
0.03937007874
  9
$DIMLFAC
 40
1.0
  9
$DIMTOFL
 70
1
  9
$DIMTVP
 40
0.0
  9
$DIMTIX
 70
0
  9
$DIMSOXD
 70
0
  9
$DIMSAH
 70
0
  9
$DIMBLK1
  1

  9
$DIMBLK2
  1

  9
$DIMSTYLE
  2
ISO-25
  9
$DIMCLRD
 70
0
  9
$DIMCLRE
 70
0
  9
$DIMCLRT
 70
0
  9
$DIMTFAC
 40
1.0
  9
$DIMGAP
 40
0.625
  9
$DIMJUST
 70
0
  9
$DIMSD1
 70
0
  9
$DIMSD2
 70
0
  9
$DIMTOLJ
 70
0
  9
$DIMTZIN
 70
8
  9
$DIMALTZ
 70
0
  9
$DIMALTTZ
 70
0
  9
$DIMUPT
 70
0
  9
$DIMDEC
 70
2
  9
$DIMTDEC
 70
2
  9
$DIMALTU
 70
2
  9
$DIMALTTD
 70
3
  9
$DIMTXSTY
  7
Standard
  9
$DIMAUNIT
 70
0
  9
$DIMADEC
 70
0
  9
$DIMALTRND
 40
0.0
  9
$DIMAZIN
 70
0
  9
$DIMDSEP
 70
44
  9
$DIMATFIT
 70
3
  9
$DIMFRAC
 70
0
  9
$DIMLDRBLK
  1

  9
$DIMLUNIT
 70
2
  9
$DIMLWD
 70
-2
  9
$DIMLWE
 70
-2
  9
$DIMTMOVE
 70
0
  9
$DIMFXL
 40
1.0
  9
$DIMFXLON
 70
0
  9
$DIMJOGANG
 40
0.785398163397
  9
$DIMTFILL
 70
0
  9
$DIMTFILLCLR
 70
0
  9
$DIMARCSYM
 70
0
  9
$DIMLTYPE
  6

  9
$DIMLTEX1
  6

  9
$DIMLTEX2
  6

  9
$DIMTXTDIRECTION
 70
0
  9
$LUNITS
 70
2
  9
$LUPREC
 70
4
  9
$SKETCHINC
 40
1.0
  9
$FILLETRAD
 40
10.0
  9
$AUNITS
 70
0
  9
$AUPREC
 70
2
  9
$MENU
  1
.
  9
$ELEVATION
 40
0.0
  9
$PELEVATION
 40
0.0
  9
$THICKNESS
 40
0.0
  9
$LIMCHECK
 70
0
  9
$CHAMFERA
 40
0.0
  9
$CHAMFERB
 40
0.0
  9
$CHAMFERC
 40
0.0
  9
$CHAMFERD
 40
0.0
  9
$SKPOLY
 70
0
  9
$TDCREATE
 40
2461243.4827199075
  9
$TDUCREATE
 40
2458532.153996898
  9
$TDUPDATE
 40
2461243.4827199075
  9
$TDUUPDATE
 40
2458532.1544311
  9
$TDINDWG
 40
0.0
  9
$TDUSRTIMER
 40
0.0
  9
$USRTIMER
 70
1
  9
$ANGBASE
 50
0.0
  9
$ANGDIR
 70
0
  9
$PDMODE
 70
0
  9
$PDSIZE
 40
0.0
  9
$PLINEWID
 40
0.0
  9
$SPLFRAME
 70
0
  9
$SPLINETYPE
 70
6
  9
$SPLINESEGS
 70
8
  9
$HANDSEED
  5
3C
  9
$SURFTAB1
 70
6
  9
$SURFTAB2
 70
6
  9
$SURFTYPE
 70
6
  9
$SURFU
 70
6
  9
$SURFV
 70
6
  9
$UCSBASE
  2

  9
$UCSNAME
  2

  9
$UCSORG
 10
0.0
 20
0.0
 30
0.0
  9
$UCSXDIR
 10
1.0
 20
0.0
 30
0.0
  9
$UCSYDIR
 10
0.0
 20
1.0
 30
0.0
  9
$UCSORTHOREF
  2

  9
$UCSORTHOVIEW
 70
0
  9
$UCSORGTOP
 10
0.0
 20
0.0
 30
0.0
  9
$UCSORGBOTTOM
 10
0.0
 20
0.0
 30
0.0
  9
$UCSORGLEFT
 10
0.0
 20
0.0
 30
0.0
  9
$UCSORGRIGHT
 10
0.0
 20
0.0
 30
0.0
  9
$UCSORGFRONT
 10
0.0
 20
0.0
 30
0.0
  9
$UCSORGBACK
 10
0.0
 20
0.0
 30
0.0
  9
$PUCSBASE
  2

  9
$PUCSNAME
  2

  9
$PUCSORG
 10
0.0
 20
0.0
 30
0.0
  9
$PUCSXDIR
 10
1.0
 20
0.0
 30
0.0
  9
$PUCSYDIR
 10
0.0
 20
1.0
 30
0.0
  9
$PUCSORTHOREF
  2

  9
$PUCSORTHOVIEW
 70
0
  9
$PUCSORGTOP
 10
0.0
 20
0.0
 30
0.0
  9
$PUCSORGBOTTOM
 10
0.0
 20
0.0
 30
0.0
  9
$PUCSORGLEFT
 10
0.0
 20
0.0
 30
0.0
  9
$PUCSORGRIGHT
 10
0.0
 20
0.0
 30
0.0
  9
$PUCSORGFRONT
 10
0.0
 20
0.0
 30
0.0
  9
$PUCSORGBACK
 10
0.0
 20
0.0
 30
0.0
  9
$USERI1
 70
0
  9
$USERI2
 70
0
  9
$USERI3
 70
0
  9
$USERI4
 70
0
  9
$USERI5
 70
0
  9
$USERR1
 40
0.0
  9
$USERR2
 40
0.0
  9
$USERR3
 40
0.0
  9
$USERR4
 40
0.0
  9
$USERR5
 40
0.0
  9
$WORLDVIEW
 70
1
  9
$SHADEDGE
 70
3
  9
$SHADEDIF
 70
70
  9
$TILEMODE
 70
1
  9
$MAXACTVP
 70
64
  9
$PINSBASE
 10
0.0
 20
0.0
 30
0.0
  9
$PLIMCHECK
 70
0
  9
$PEXTMIN
 10
1e+20
 20
1e+20
 30
1e+20
  9
$PEXTMAX
 10
-1e+20
 20
-1e+20
 30
-1e+20
  9
$PLIMMIN
 10
0.0
 20
0.0
  9
$PLIMMAX
 10
420.0
 20
297.0
  9
$UNITMODE
 70
0
  9
$VISRETAIN
 70
1
  9
$PLINEGEN
 70
0
  9
$PSLTSCALE
 70
1
  9
$TREEDEPTH
 70
3020
  9
$CMLSTYLE
  2
Standard
  9
$CMLJUST
 70
0
  9
$CMLSCALE
 40
20.0
  9
$PROXYGRAPHICS
 70
1
  9
$MEASUREMENT
 70
1
  9
$CELWEIGHT
370
-1
  9
$ENDCAPS
280
0
  9
$JOINSTYLE
280
0
  9
$LWDISPLAY
290
0
  9
$INSUNITS
 70
4
  9
$HYPERLINKBASE
  1

  9
$STYLESHEET
  1

  9
$XEDIT
290
1
  9
$CEPSNTYPE
380
0
  9
$PSTYLEMODE
290
1
  9
$FINGERPRINTGUID
  2
{FADF4F37-BCDE-443F-8E0A-CF1CE88388DB}
  9
$VERSIONGUID
  2
{58D35CC9-4058-4D9C-8E54-0B9B92D2D709}
  9
$EXTNAMES
290
1
  9
$PSVPSCALE
 40
0.0
  9
$OLESTARTUP
290
0
  9
$SORTENTS
280
127
  9
$INDEXCTL
280
0
  9
$HIDETEXT
280
1
  9
$XCLIPFRAME
280
1
  9
$HALOGAP
280
0
  9
$OBSCOLOR
 70
257
  9
$OBSLTYPE
280
0
  9
$INTERSECTIONDISPLAY
280
0
  9
$INTERSECTIONCOLOR
 70
257
  9
$DIMASSOC
280
2
  9
$PROJECTNAME
  1

  9
$CAMERADISPLAY
290
0
  9
$LENSLENGTH
 40
50.0
  9
$CAMERAHEIGHT
 40
0.0
  9
$STEPSPERSEC
 40
24.0
  9
$STEPSIZE
 40
100.0
  9
$3DDWFPREC
 40
2.0
  9
$PSOLWIDTH
 40
0.005
  9
$PSOLHEIGHT
 40
0.08
  9
$LOFTANG1
 40
1.570796326795
  9
$LOFTANG2
 40
1.570796326795
  9
$LOFTMAG1
 40
0.0
  9
$LOFTMAG2
 40
0.0
  9
$LOFTPARAM
 70
7
  9
$LOFTNORMALS
280
1
  9
$LATITUDE
 40
37.795
  9
$LONGITUDE
 40
-122.394
  9
$NORTHDIRECTION
 40
0.0
  9
$TIMEZONE
 70
-8000
  9
$LIGHTGLYPHDISPLAY
280
1
  9
$TILEMODELIGHTSYNCH
280
1
  9
$CMATERIAL
347
20
  9
$SOLIDHIST
280
0
  9
$SHOWHIST
280
1
  9
$DWFFRAME
280
2
  9
$DGNFRAME
280
2
  9
$REALWORLDSCALE
290
1
  9
$INTERFERECOLOR
 62
256
  9
$CSHADOW
280
0
  9
$SHADOWPLANELOCATION
 40
0.0
  0
ENDSEC
  0
SECTION
  2
CLASSES
  0
CLASS
  1
ACDBDICTIONARYWDFLT
  2
AcDbDictionaryWithDefault
  3
ObjectDBX Classes
 90
0
 91
0
280
0
281
0
  0
CLASS
  1
SUN
  2
AcDbSun
  3
SCENEOE
 90
1153
 91
0
280
0
281
0
  0
CLASS
  1
VISUALSTYLE
  2
AcDbVisualStyle
  3
ObjectDBX Classes
 90
4095
 91
0
280
0
281
0
  0
CLASS
  1
MATERIAL
  2
AcDbMaterial
  3
ObjectDBX Classes
 90
1153
 91
0
280
0
281
0
  0
CLASS
  1
SCALE
  2
AcDbScale
  3
ObjectDBX Classes
 90
1153
 91
0
280
0
281
0
  0
CLASS
  1
TABLESTYLE
  2
AcDbTableStyle
  3
ObjectDBX Classes
 90
4095
 91
0
280
0
281
0
  0
CLASS
  1
MLEADERSTYLE
  2
AcDbMLeaderStyle
  3
ACDB_MLEADERSTYLE_CLASS
 90
4095
 91
0
280
0
281
0
  0
CLASS
  1
DICTIONARYVAR
  2
AcDbDictionaryVar
  3
ObjectDBX Classes
 90
0
 91
0
280
0
281
0
  0
CLASS
  1
CELLSTYLEMAP
  2
AcDbCellStyleMap
  3
ObjectDBX Classes
 90
1152
 91
0
280
0
281
0
  0
CLASS
  1
MENTALRAYRENDERSETTINGS
  2
AcDbMentalRayRenderSettings
  3
SCENEOE
 90
1024
 91
0
280
0
281
0
  0
CLASS
  1
ACDBDETAILVIEWSTYLE
  2
AcDbDetailViewStyle
  3
ObjectDBX Classes
 90
1025
 91
0
280
0
281
0
  0
CLASS
  1
ACDBSECTIONVIEWSTYLE
  2
AcDbSectionViewStyle
  3
ObjectDBX Classes
 90
1025
 91
0
280
0
281
0
  0
CLASS
  1
RASTERVARIABLES
  2
AcDbRasterVariables
  3
ISM
 90
0
 91
0
280
0
281
0
  0
CLASS
  1
ACDBPLACEHOLDER
  2
AcDbPlaceHolder
  3
ObjectDBX Classes
 90
0
 91
0
280
0
281
0
  0
CLASS
  1
LAYOUT
  2
AcDbLayout
  3
ObjectDBX Classes
 90
0
 91
0
280
0
281
0
  0
ENDSEC
  0
SECTION
  2
TABLES
  0
TABLE
  2
VPORT
  5
8
330
0
100
AcDbSymbolTable
 70
1
  0
VPORT
  5
23
330
8
100
AcDbSymbolTableRecord
100
AcDbViewportTableRecord
  2
*Active
 70
0
 10
0.0
 20
0.0
 11
1.0
 21
1.0
 12
0.0
 22
0.0
 13
0.0
 23
0.0
 14
0.5
 24
0.5
 15
0.5
 25
0.5
 16
0.0
 26
0.0
 36
1.0
 17
0.0
 27
0.0
 37
0.0
 40
1000.0
 41
1.34
 42
50.0
 43
0.0
 44
0.0
 50
0.0
 51
0.0
 71
0
 72
1000
 73
1
 74
3
 75
0
 76
0
 77
0
 78
0
281
0
 65
0
146
0.0
  0
ENDTAB
  0
TABLE
  2
LTYPE
  5
2
330
0
100
AcDbSymbolTable
 70
3
  0
LTYPE
  5
24
330
2
100
AcDbSymbolTableRecord
100
AcDbLinetypeTableRecord
  2
ByBlock
 70
0
  3

 72
65
 73
0
 40
0.0
  0
LTYPE
  5
25
330
2
100
AcDbSymbolTableRecord
100
AcDbLinetypeTableRecord
  2
ByLayer
 70
0
  3

 72
65
 73
0
 40
0.0
  0
LTYPE
  5
26
330
2
100
AcDbSymbolTableRecord
100
AcDbLinetypeTableRecord
  2
Continuous
 70
0
  3

 72
65
 73
0
 40
0.0
  0
ENDTAB
  0
TABLE
  2
LAYER
  5
1
330
0
100
AcDbSymbolTable
 70
3
  0
LAYER
  5
27
330
1
100
AcDbSymbolTableRecord
100
AcDbLayerTableRecord
  2
0
 70
0
 62
7
  6
Continuous
370
-3
390
13
347
21
  0
LAYER
  5
28
330
1
100
AcDbSymbolTableRecord
100
AcDbLayerTableRecord
  2
Defpoints
 70
0
 62
7
  6
Continuous
290
0
370
-3
390
13
347
21
  0
LAYER
  5
2F
330
1
100
AcDbSymbolTableRecord
100
AcDbLayerTableRecord
  2
M
 70
0
 62
7
  6
Continuous
370
-3
390
13
347
21
  0
ENDTAB
  0
TABLE
  2
STYLE
  5
5
330
0
100
AcDbSymbolTable
 70
1
  0
STYLE
  5
29
330
5
100
AcDbSymbolTableRecord
100
AcDbTextStyleTableRecord
  2
Standard
 70
0
 40
0.0
 41
1.0
 50
0.0
 71
0
 42
2.5
  3
txt
  4

  0
ENDTAB
  0
TABLE
  2
VIEW
  5
7
330
0
100
AcDbSymbolTable
 70
0
  0
ENDTAB
  0
TABLE
  2
UCS
  5
6
330
0
100
AcDbSymbolTable
 70
0
  0
ENDTAB
  0
TABLE
  2
APPID
  5
3
330
0
100
AcDbSymbolTable
 70
3
  0
APPID
  5
2A
330
3
100
AcDbSymbolTableRecord
100
AcDbRegAppTableRecord
  2
ACAD
 70
0
  0
APPID
  5
39
330
3
100
AcDbSymbolTableRecord
100
AcDbRegAppTableRecord
  2
HATCHBACKGROUNDCOLOR
 70
0
  0
APPID
  5
3A
330
3
100
AcDbSymbolTableRecord
100
AcDbRegAppTableRecord
  2
EZDXF
 70
0
  0
ENDTAB
  0
TABLE
  2
DIMSTYLE
  5
4
330
0
100
AcDbSymbolTable
 70
1
100
AcDbDimStyleTable
  0
DIMSTYLE
105
2B
330
4
100
AcDbSymbolTableRecord
100
AcDbDimStyleTableRecord
  2
Standard
 70
0
 40
1.0
 41
2.5
 42
0.625
 43
3.75
 44
1.25
 45
0.0
 46
0.0
 47
0.0
 48
0.0
 49
2.5
140
2.5
141
2.5
142
0.0
143
0.03937007874
144
1.0
145
0.0
146
1.0
147
0.625
148
0.0
 69
0
 70
0
 71
0
 72
0
 73
0
 74
0
 75
0
 76
0
 77
1
 78
8
 79
3
170
0
171
3
172
1
173
0
174
0
175
0
176
0
177
0
178
0
179
2
271
2
272
2
273
2
274
3
275
0
276
0
277
2
278
44
279
0
280
0
281
0
282
0
283
0
284
8
285
0
286
0
288
0
289
3
290
0
371
-2
372
-2
  0
ENDTAB
  0
TABLE
  2
BLOCK_RECORD
  5
9
330
0
100
AcDbSymbolTable
 70
2
  0
BLOCK_RECORD
  5
17
330
9
100
AcDbSymbolTableRecord
100
AcDbBlockTableRecord
  2
*Model_Space
340
1A
 70
0
280
1
281
0
  0
BLOCK_RECORD
  5
1B
330
9
100
AcDbSymbolTableRecord
100
AcDbBlockTableRecord
  2
*Paper_Space
340
1E
 70
0
280
1
281
0
  0
ENDTAB
  0
ENDSEC
  0
SECTION
  2
BLOCKS
  0
BLOCK
  5
18
330
17
100
AcDbEntity
  8
0
100
AcDbBlockBegin
  2
*Model_Space
 70
0
 10
0.0
 20
0.0
 30
0.0
  3
*Model_Space
  1

  0
ENDBLK
  5
19
330
17
100
AcDbEntity
  8
0
100
AcDbBlockEnd
  0
BLOCK
  5
1C
330
1B
100
AcDbEntity
  8
0
100
AcDbBlockBegin
  2
*Paper_Space
 70
0
 10
0.0
 20
0.0
 30
0.0
  3
*Paper_Space
  1

  0
ENDBLK
  5
1D
330
1B
100
AcDbEntity
  8
0
100
AcDbBlockEnd
  0
ENDSEC
  0
SECTION
  2
ENTITIES
  0
LWPOLYLINE
  5
30
330
17
100
AcDbEntity
  8
M
100
AcDbPolyline
 90
54
 70
1
 10
1.7045740518077945
 20
69.83141572604113
 10
0.0
 20
72.63178738258269
 10
0.0
 20
86.36518560988992
 10
1.6746778097753712
 20
91.86769841343833
 10
4.220416332048504
 20
96.04998312860114
 10
14.212175301171914
 20
93.31414436324603
 10
19.986547019667398
 20
105.51103156455788
 10
18.31988035300047
 20
108.24912680265308
 10
24.214044696740046
 20
120.6990453654504
 10
32.55583523760897
 20
117.9581713305935
 10
37.543800765062144
 20
126.15268612569474
 10
40.98953256827098
 20
126.15268612569474
 10
42.59999999999997
 20
123.50691820214021
 10
45.877134098395665
 20
128.89078136379007
 10
49.30247250085773
 20
128.89078136379007
 10
59.235798264055006
 20
120.73126377259236
 10
70.88462094937364
 20
142.60252269196604
 10
79.2128627666755
 20
139.8661003805669
 10
84.21565600997538
 20
150.82459986589058
 10
90.89232111361834
 20
148.0823981268944
 10
93.31626453317799
 20
152.0645908875996
 10
88.31626453317809
 20
160.27887660188534
 10
90.8771340983956
 20
164.48601945902809
 10
95.87713409839549
 20
164.48601945902809
 10
98.31626453317787
 20
168.49316231617095
 10
94.98293119984447
 20
173.96935279236146
 10
99.2104674317289
 20
180.91459088759953
 10
102.53746945678532
 20
180.91459088759953
 10
109.25690491374174
 20
194.7134315581356
 10
110.93333333333332
 20
191.95929915452126
 10
112.5438007650621
 20
194.6050670780758
 10
117.65024248211442
 20
194.6050670780758
 10
126.86666666666646
 20
182.21675664819082
 10
126.86666666666646
 20
110.95868362876527
 10
119.32911961707605
 20
101.32737350984388
 10
112.66835369952454
 20
98.5917017937069
 10
109.32286590160412
 20
93.09554326855196
 10
104.21046743172879
 20
93.09554326855196
 10
102.54380076506231
 20
95.83363850664716
 10
95.87713409839549
 20
95.83363850664716
 10
92.55032590811285
 20
101.29910910496854
 10
77.55032590811295
 20
98.56101386687332
 10
75.86858286486797
 20
101.32387743791837
 10
65.97958366795109
 20
104.03157959897891
 10
63.54204215240045
 20
100.02704710914534
 10
65.20870881906716
 20
94.55085663295493
 10
62.66624714358615
 20
90.37395530895054
 10
54.32281758953028
 20
87.63254274118925
 10
49.31077459277433
 20
82.14316231617103
 10
37.644107926107615
 20
82.14316231617103
 10
32.6441079261075
 20
76.6669718399805
 10
22.62833111616591
 20
76.6669718399805
 10
9.286453025864283
 20
68.44742194506249
 10
1.7045740518077945
 20
69.83141572604113
  0
LWPOLYLINE
  5
31
330
17
100
AcDbEntity
  8
M
100
AcDbPolyline
 90
8
 70
1
 10
114.98587570380737
 20
212.3075235250622
 10
117.59999999999992
 20
216.60215629737834
 10
120.9588642118946
 20
211.08402223497978
 10
124.29219754522802
 20
213.822117473075
 10
126.86666666666646
 20
209.59263248785453
 10
126.86666666666646
 20
204.06035881115415
 10
122.59123762394731
 20
197.03643966954377
 10
114.98587570380737
 20
212.3075235250622
  0
LWPOLYLINE
  5
32
330
17
100
AcDbEntity
  8
M
100
AcDbPolyline
 90
17
 70
1
 10
1684.9859645434235
 20
1.3601261112178298
 10
1685.8417457517328
 20
8.389757465186886
 10
1694.2004195230802
 20
11.136178847201084
 10
1695.8771340983953
 20
13.890781363790072
 10
1704.230860832475
 20
13.890781363790072
 10
1710.897527499142
 20
19.366971839980486
 10
1714.3228659016042
 20
19.366971839980486
 10
1715.9333333333332
 20
16.721203916425843
 10
1719.2104674317288
 20
22.105067078075802
 10
1724.322865901604
 20
22.105067078075802
 10
1726.8880730695066
 20
17.890798159378775
 10
1719.2823128321647
 20
8.17232674499735
 10
1715.943192505027
 20
10.915175585146208
 10
1710.943192505027
 20
5.438985108955796
 10
1707.6098591716934
 20
8.177080347051003
 10
1702.6472004128816
 20
2.741787420733277
 10
1684.9859645434235
 20
1.3601261112178298
  0
LWPOLYLINE
  5
33
330
17
100
AcDbEntity
  8
M
100
AcDbPolyline
 90
123
 70
1
 10
2829.991291180933
 20
4.193713775812347
 10
2835.0000000000005
 20
20.650899895604535
 10
2835.0000000000005
 20
26.140251535473503
 10
2840.0000000000005
 20
34.35453724975912
 10
2840.0000000000005
 20
39.8175665622712
 10
2844.991291180933
 20
56.21752329962193
 10
2842.5438007650623
 20
60.23840041140915
 10
2837.644107926108
 20
60.23840041140915
 10
2832.6441079261076
 20
54.76220993521863
 10
2825.9691391675246
 20
54.76220993521863
 10
2815.9803205509697
 20
46.55710892876286
 10
2805.9876628790435
 20
43.8210240900212
 10
2800.9774412594415
 20
38.33363850664717
 10
2792.631672576732
 20
38.33363850664717
 10
2780.9034956418964
 20
30.07604454232449
 10
2775.003344330797
 20
39.76915026770222
 10
2773.3356728844883
 20
53.467880005237056
 10
2769.9884205175345
 20
61.71646619523163
 10
2774.210467431729
 20
68.65268612569476
 10
2779.2104674317293
 20
68.65268612569476
 10
2784.1951619002934
 20
76.84182703833619
 10
2794.2014022488793
 20
82.32143484827625
 10
2800.885702802533
 20
90.55744803045673
 10
2804.22049911294
 20
90.55744803045673
 10
2815.887165779607
 20
104.24792422093287
 10
2819.2190361358666
 20
104.24792422093287
 10
2825.8717554577215
 20
112.44502481393282
 10
2832.531646300475
 20
115.18033712434949
 10
2835.877134098396
 20
120.67649564950433
 10
2837.656199234938
 20
120.67649564950433
 10
2843.5333333333338
 20
111.02120391642578
 10
2843.5333333333338
 20
108.28310867833058
 10
2854.3264901422517
 20
90.5514939208223
 10
2904.1996278558304
 20
85.0891978855255
 10
2906.656228055961
 20
91.81560319540849
 10
2905.0
 20
94.53654928734467
 10
2905.0
 20
105.50497319179064
 10
2901.666666666667
 20
119.19544938226679
 10
2901.666666666667
 20
127.39369214448747
 10
2900.0
 20
130.13178738258267
 10
2900.0
 20
138.33227128840687
 10
2895.9530826453315
 20
142.3213755380085
 10
2894.3228659016045
 20
139.64316231617101
 10
2884.3228659016045
 20
139.64316231617101
 10
2882.656199234938
 20
136.9050670780758
 10
2870.989532568271
 20
136.9050670780758
 10
2869.3228659016045
 20
134.1669718399805
 10
2844.322865901604
 20
134.1669718399805
 10
2842.656199234938
 20
131.4288766018853
 10
2837.656199234938
 20
131.4288766018853
 10
2834.292197545228
 20
125.90230239736222
 10
2830.897527499142
 20
128.69078136379008
 10
2807.5438007650628
 20
128.69078136379008
 10
2805.877134098396
 20
131.4288766018853
 10
2794.210467431729
 20
131.4288766018853
 10
2792.5438007650623
 20
134.1669718399805
 10
2774.3228659016045
 20
134.1669718399805
 10
2766.861188713668
 20
121.90850217408533
 10
2765.1945220470016
 20
113.6942164597996
 10
2755.2
 20
97.27464452544
 10
2755.2
 20
91.79845404924947
 10
2752.656199234938
 20
87.61935279236144
 10
2745.877134098396
 20
87.61935279236144
 10
2744.2104674317293
 20
90.35744803045675
 10
2727.5438007650623
 20
90.35744803045675
 10
2725.877134098396
 20
93.09554326855196
 10
2722.5367023191425
 20
93.09554326855196
 10
2716.670305039528
 20
105.48681099181967
 10
2711.6711856879815
 20
135.60055375232815
 10
2710.0000000000005
 20
138.34607309686854
 10
2710.0000000000005
 20
146.56035881115437
 10
2706.649597866512
 20
152.0645908875996
 10
2710.004726089263
 20
157.57658725354818
 10
2716.67139275593
 20
195.9099205868815
 10
2720.0
 20
201.37834677356858
 10
2720.0
 20
206.85453724975912
 10
2721.656228055961
 20
209.5754833416952
 10
2719.1967279087617
 20
216.30982898283767
 10
2717.5438007650623
 20
216.30982898283767
 10
2706.6666666666665
 20
234.17940643020196
 10
2706.6666666666665
 20
242.4497753449971
 10
2710.0000000000005
 20
247.92596582118765
 10
2710.0000000000005
 20
256.1402515354734
 10
2712.5438007650623
 20
260.31935279236154
 10
2772.5438007650623
 20
260.31935279236154
 10
2774.210467431729
 20
263.0574480304567
 10
2779.322865901605
 20
263.0574480304567
 10
2781.866666666667
 20
258.8783467735686
 10
2781.866666666667
 20
223.28310867833045
 10
2784.3228659016045
 20
219.24792422093287
 10
2800.877134098396
 20
219.24792422093287
 10
2802.5410587125893
 20
221.98151465853667
 10
2835.974077899158
 20
224.7277983774334
 10
2840.9774412594415
 20
219.24792422093287
 10
2844.236750218046
 20
219.24792422093287
 10
2852.57008355138
 20
224.72411469712338
 10
2859.2349940899353
 20
224.72411469712338
 10
2870.901660756602
 20
232.9384004114091
 10
2879.2225587405587
 20
232.9384004114091
 10
2884.222558740559
 20
238.41459088759953
 10
2890.877134098396
 20
238.41459088759953
 10
2892.5496515678587
 20
241.1622981588597
 10
2909.3171184157673
 20
238.40764289098894
 10
2914.3107745927746
 20
232.9384004114091
 10
2950.989532568271
 20
232.9384004114091
 10
2953.5333333333333
 20
228.7592991545212
 10
2953.5333333333333
 20
209.53654928734466
 10
2951.8654554225513
 20
206.79646414820252
 10
2950.1987887558844
 20
168.4631308148691
 10
2946.8771052773723
 20
163.00607938588473
 10
2949.336605424572
 20
156.27173374474245
 10
3000.877134098396
 20
156.27173374474245
 10
3002.5438007650623
 20
159.00982898283766
 10
3022.6580713929284
 20
159.00982898283766
 10
3047.663771299598
 20
115.19031676543578
 10
3062.662092614859
 20
112.45252795392003
 10
3064.3228659016045
 20
109.7241146971234
 10
3084.3228659016045
 20
109.7241146971234
 10
3086.866666666667
 20
105.54501344023559
 10
3086.866666666667
 20
4.17940643020176
 10
3084.322680143935
 20
0.0
 10
2831.710282239218
 20
1.3696570372013772
 10
2829.991291180933
 20
4.193713775812347
  0
LWPOLYLINE
  5
34
330
17
100
AcDbEntity
  8
M
100
AcDbPolyline
 90
21
 70
1
 10
3016.666666666667
 20
198.59046332798502
 10
3016.666666666667
 20
209.59263248785453
 10
3019.210467431729
 20
213.77173374474245
 10
3029.2104674317293
 20
213.77173374474245
 10
3030.877134098396
 20
216.50982898283766
 10
3075.877134098396
 20
216.50982898283766
 10
3077.5438007650623
 20
219.24792422093287
 10
3084.3228659016045
 20
219.24792422093287
 10
3086.866666666667
 20
215.06882296404495
 10
3086.866666666667
 20
206.79845404924947
 10
3084.3228659016045
 20
202.61935279236155
 10
3074.3228659016045
 20
202.61935279236155
 10
3072.6561992349375
 20
199.88125755426623
 10
3065.989532568271
 20
199.88125755426623
 10
3064.3228659016045
 20
197.14316231617101
 10
3057.656199234938
 20
197.14316231617101
 10
3055.989532568271
 20
194.4050670780758
 10
3040.989532568271
 20
194.4050670780758
 10
3039.330302873038
 20
191.6791897216208
 10
3021.709731657565
 20
187.5437495383977
 10
3016.666666666667
 20
198.59046332798502
  0
LWPOLYLINE
  5
35
330
17
100
AcDbEntity
  8
M
100
AcDbPolyline
 90
42
 70
1
 10
3380.871796360716
 20
62.985264789978565
 10
3376.666666666667
 20
69.8936921444876
 10
3376.666666666667
 20
78.16406105928297
 10
3378.3333333333335
 20
80.90215629737818
 10
3378.3333333333335
 20
89.12449533088518
 10
3390.8863770760613
 20
104.24792422093287
 10
3395.897527499142
 20
104.24792422093287
 10
3402.564194165809
 20
109.7241146971234
 10
3405.889225407226
 20
109.7241146971234
 10
3410.8892254072257
 20
115.20030517331381
 10
3417.5438007650623
 20
115.20030517331381
 10
3421.6495978665116
 20
121.945543268552
 10
3419.2104674317293
 20
125.95268612569477
 10
3415.877134098396
 20
125.95268612569477
 10
3412.6000000000004
 20
131.33654928734484
 10
3409.3228659016045
 20
125.95268612569477
 10
3389.2104674317293
 20
125.95268612569477
 10
3386.666666666667
 20
130.1317873825828
 10
3386.666666666667
 20
176.73548963071138
 10
3390.8771340983963
 20
183.65268612569486
 10
3394.2104674317293
 20
183.65268612569486
 10
3395.877134098396
 20
186.39078136379007
 10
3407.564194165809
 20
186.39078136379007
 10
3414.2308608324756
 20
191.86697183998058
 10
3425.877134098396
 20
191.86697183998058
 10
3427.535249531535
 20
194.59101862299522
 10
3437.642024004781
 20
197.35834972876486
 10
3451.8763866575737
 20
176.72450470685962
 10
3448.5333333333338
 20
165.74018664149938
 10
3448.5333333333338
 20
157.5127397635353
 10
3443.53053550989
 20
149.29385762502034
 10
3441.8647110615393
 20
132.87358806270933
 10
3438.5363305660417
 20
124.67150755594658
 10
3441.8625120245765
 20
102.81374368557495
 10
3443.5333333333338
 20
100.06882296404484
 10
3443.5333333333338
 20
91.85453724975912
 10
3448.529989002537
 20
83.64574579321126
 10
3450.2054983921257
 20
69.88263295015918
 10
3442.638774045321
 20
62.97649564950436
 10
3437.6476305308006
 20
62.97649564950436
 10
3430.9744003198257
 20
54.7541227109819
 10
3380.871796360716
 20
62.985264789978565
  0
LWPOLYLINE
  5
36
330
17
100
AcDbEntity
  8
M
100
AcDbPolyline
 90
21
 70
1
 10
3220.8889794972183
 20
197.15018388918003
 10
3214.2308608324756
 20
202.61935279236155
 10
3204.222558740559
 20
202.61935279236155
 10
3199.2225587405587
 20
208.09554326855195
 10
3192.550431773769
 20
208.09554326855195
 10
3184.2170984404356
 20
219.04792422093288
 10
3179.2104674317293
 20
219.04792422093288
 10
3173.333333333334
 20
228.70321595401154
 10
3173.333333333334
 20
239.71168010690192
 10
3179.2104674317293
 20
249.36697183998058
 10
3185.977441259441
 20
249.36697183998058
 10
3190.9774412594415
 20
243.89078136379004
 10
3197.644107926108
 20
243.89078136379004
 10
3202.656150922864
 20
238.4014009387717
 10
3219.3228175895306
 20
232.9252104625813
 10
3224.310774592775
 20
227.4622099352186
 10
3230.969139167525
 20
227.4622099352186
 10
3237.682097345117
 20
221.94799428933942
 10
3241.8754422383413
 20
212.3033010349239
 10
3234.3269467130153
 20
194.3906013359361
 10
3220.8889794972183
 20
197.15018388918003
  0
LWPOLYLINE
  5
37
330
17
100
AcDbEntity
  8
M
100
AcDbPolyline
 90
10
 70
1
 10
4645.0
 20
102.81199474342905
 10
4654.1937380235295
 20
115.16981143739413
 10
4664.190074030982
 20
123.38108744351605
 10
4669.192945574185
 20
131.6000906930619
 10
4677.526278907518
 20
137.0762811692524
 10
4682.5916995377365
 20
145.3980436331822
 10
4691.888033553102
 20
132.90232193720252
 10
4654.316120075518
 20
73.92038157318426
 10
4645.0
 20
75.31175015589142
 10
4645.0
 20
102.81199474342905
  0
LWPOLYLINE
  5
38
330
17
100
AcDbEntity
  8
M
100
AcDbPolyline
 90
12
 70
1
 10
4645.836219924876
 20
180.96258254369957
 10
4652.668353699525
 20
178.15652760054002
 10
4655.99958047692
 20
172.68379789482015
 10
4664.321642917306
 20
169.94940595012164
 10
4673.533333333334
 20
160.31900233336583
 10
4673.533333333334
 20
154.7746445254401
 10
4671.009925969017
 20
150.62904671263533
 10
4664.313653884303
 20
145.12853750019138
 10
4654.331417135131
 20
142.3953060093469
 10
4650.981060488112
 20
136.89114866067086
 10
4644.998431893846
 20
138.29523496340656
 10
4645.836219924876
 20
180.96258254369957
  0
ENDSEC
  0
SECTION
  2
OBJECTS
  0
DICTIONARY
  5
A
330
0
100
AcDbDictionary
281
1
  3
ACAD_COLOR
350
B
  3
ACAD_GROUP
350
C
  3
ACAD_LAYOUT
350
D
  3
ACAD_MATERIAL
350
E
  3
ACAD_MLEADERSTYLE
350
F
  3
ACAD_MLINESTYLE
350
10
  3
ACAD_PLOTSETTINGS
350
11
  3
ACAD_PLOTSTYLENAME
350
12
  3
ACAD_SCALELIST
350
14
  3
ACAD_TABLESTYLE
350
15
  3
ACAD_VISUALSTYLE
350
16
  3
EZDXF_META
350
2D
  0
DICTIONARY
  5
B
330
A
100
AcDbDictionary
281
1
  0
DICTIONARY
  5
C
330
A
100
AcDbDictionary
281
1
  0
DICTIONARY
  5
D
330
A
100
AcDbDictionary
281
1
  3
Model
350
1A
  3
Layout1
350
1E
  0
DICTIONARY
  5
E
330
A
100
AcDbDictionary
281
1
  3
ByBlock
350
1F
  3
ByLayer
350
20
  3
Global
350
21
  0
DICTIONARY
  5
F
330
A
100
AcDbDictionary
281
1
  3
Standard
350
2C
  0
DICTIONARY
  5
10
330
A
100
AcDbDictionary
281
1
  3
Standard
350
22
  0
DICTIONARY
  5
11
330
A
100
AcDbDictionary
281
1
  0
ACDBDICTIONARYWDFLT
  5
12
330
A
100
AcDbDictionary
281
1
  3
Normal
350
13
100
AcDbDictionaryWithDefault
340
13
  0
ACDBPLACEHOLDER
  5
13
330
12
  0
DICTIONARY
  5
14
330
A
100
AcDbDictionary
281
1
  0
DICTIONARY
  5
15
330
A
100
AcDbDictionary
281
1
  0
DICTIONARY
  5
16
330
A
100
AcDbDictionary
281
1
  0
LAYOUT
  5
1A
330
D
100
AcDbPlotSettings
  1

  4
A3
  6

 40
7.5
 41
20.0
 42
7.5
 43
20.0
 44
420.0
 45
297.0
 46
0.0
 47
0.0
 48
0.0
 49
0.0
140
0.0
141
0.0
142
1.0
143
1.0
 70
1024
 72
1
 73
0
 74
5
  7

 75
16
 76
0
 77
2
 78
300
147
1.0
148
0.0
149
0.0
100
AcDbLayout
  1
Model
 70
1
 71
0
 10
0.0
 20
0.0
 11
420.0
 21
297.0
 12
0.0
 22
0.0
 32
0.0
 14
1e+20
 24
1e+20
 34
1e+20
 15
-1e+20
 25
-1e+20
 35
-1e+20
146
0.0
 13
0.0
 23
0.0
 33
0.0
 16
1.0
 26
0.0
 36
0.0
 17
0.0
 27
1.0
 37
0.0
 76
1
330
17
  0
LAYOUT
  5
1E
330
D
100
AcDbPlotSettings
  1

  4
A3
  6

 40
7.5
 41
20.0
 42
7.5
 43
20.0
 44
420.0
 45
297.0
 46
0.0
 47
0.0
 48
0.0
 49
0.0
140
0.0
141
0.0
142
1.0
143
1.0
 70
0
 72
1
 73
0
 74
5
  7

 75
16
 76
0
 77
2
 78
300
147
1.0
148
0.0
149
0.0
100
AcDbLayout
  1
Layout1
 70
1
 71
1
 10
0.0
 20
0.0
 11
420.0
 21
297.0
 12
0.0
 22
0.0
 32
0.0
 14
1e+20
 24
1e+20
 34
1e+20
 15
-1e+20
 25
-1e+20
 35
-1e+20
146
0.0
 13
0.0
 23
0.0
 33
0.0
 16
1.0
 26
0.0
 36
0.0
 17
0.0
 27
1.0
 37
0.0
 76
1
330
1B
  0
MATERIAL
  5
1F
102
{ACAD_REACTORS
330
E
102
}
330
E
100
AcDbMaterial
  1
ByBlock
  2

 70
0
 40
1.0
 71
1
 41
1.0
 91
-1023410177
 42
1.0
 72
1
  3

 73
1
 74
1
 75
1
 44
0.5
 73
0
 45
1.0
 46
1.0
 77
1
  4

 78
1
 79
1
170
1
 48
1.0
171
1
  6

172
1
173
1
174
1
140
1.0
141
1.0
175
1
  7

176
1
177
1
178
1
143
1.0
179
1
  8

270
1
271
1
272
1
145
1.0
146
1.0
273
1
  9

274
1
275
1
276
1
 42
1.0
 72
1
  3

 73
1
 74
1
 75
1
 94
63
  0
MATERIAL
  5
20
102
{ACAD_REACTORS
330
E
102
}
330
E
100
AcDbMaterial
  1
ByLayer
  2

 70
0
 40
1.0
 71
1
 41
1.0
 91
-1023410177
 42
1.0
 72
1
  3

 73
1
 74
1
 75
1
 44
0.5
 73
0
 45
1.0
 46
1.0
 77
1
  4

 78
1
 79
1
170
1
 48
1.0
171
1
  6

172
1
173
1
174
1
140
1.0
141
1.0
175
1
  7

176
1
177
1
178
1
143
1.0
179
1
  8

270
1
271
1
272
1
145
1.0
146
1.0
273
1
  9

274
1
275
1
276
1
 42
1.0
 72
1
  3

 73
1
 74
1
 75
1
 94
63
  0
MATERIAL
  5
21
102
{ACAD_REACTORS
330
E
102
}
330
E
100
AcDbMaterial
  1
Global
  2

 70
0
 40
1.0
 71
1
 41
1.0
 91
-1023410177
 42
1.0
 72
1
  3

 73
1
 74
1
 75
1
 44
0.5
 73
0
 45
1.0
 46
1.0
 77
1
  4

 78
1
 79
1
170
1
 48
1.0
171
1
  6

172
1
173
1
174
1
140
1.0
141
1.0
175
1
  7

176
1
177
1
178
1
143
1.0
179
1
  8

270
1
271
1
272
1
145
1.0
146
1.0
273
1
  9

274
1
275
1
276
1
 42
1.0
 72
1
  3

 73
1
 74
1
 75
1
 94
63
  0
MLINESTYLE
  5
22
102
{ACAD_REACTORS
330
10
102
}
330
10
100
AcDbMlineStyle
  2
Standard
 70
0
  3

 62
256
 51
90.0
 52
90.0
 71
2
 49
0.5
 62
256
  6
BYLAYER
 49
-0.5
 62
256
  6
BYLAYER
  0
MLEADERSTYLE
  5
2C
102
{ACAD_REACTORS
330
F
102
}
330
F
100
AcDbMLeaderStyle
179
2
170
2
171
1
172
0
 90
2
 40
0.0
 41
0.0
173
1
 91
-1056964608
 92
-2
290
1
 42
2.0
291
1
 43
8.0
  3
Standard
 44
4.0
300

342
29
174
1
175
1
176
0
178
1
 93
-1056964608
 45
4.0
292
0
297
0
 46
4.0
 94
-1056964608
 47
1.0
 49
1.0
140
1.0
294
1
141
0.0
177
0
142
1.0
295
0
296
0
143
3.75
271
0
272
9
273
9
  0
DICTIONARY
  5
2D
330
A
100
AcDbDictionary
280
1
281
1
  3
CREATED_BY_EZDXF
350
2E
  3
WRITTEN_BY_EZDXF
350
3B
  0
DICTIONARYVAR
  5
2E
330
2D
100
DictionaryVariables
280
0
  1
1.4.4 @ 2026-07-21T08:35:07.762710+00:00
  0
DICTIONARYVAR
  5
3B
330
2D
100
DictionaryVariables
280
0
  1
1.4.4 @ 2026-07-21T08:35:07.765960+00:00
  0
ENDSEC
  0
EOF
