  0
SECTION
  2
HEADER
  9
$ACADVER
  1
AC1027
  9
$ACADMAINTVER
 70
105
  9
$DWGCODEPAGE
  3
ANSI_1252
  9
$LASTSAVEDBY
  1
ezdxf
  9
$REQUIREDVERSIONS
160
0
  9
$INSBASE
 10
0.0
 20
0.0
 30
0.0
  9
$EXTMIN
 10
1e+20
 20
1e+20
 30
1e+20
  9
$EXTMAX
 10
-1e+20
 20
-1e+20
 30
-1e+20
  9
$LIMMIN
 10
0.0
 20
0.0
  9
$LIMMAX
 10
420.0
 20
297.0
  9
$ORTHOMODE
 70
0
  9
$REGENMODE
 70
1
  9
$FILLMODE
 70
1
  9
$QTEXTMODE
 70
0
  9
$MIRRTEXT
 70
1
  9
$LTSCALE
 40
1.0
  9
$ATTMODE
 70
1
  9
$TEXTSIZE
 40
2.5
  9
$TRACEWID
 40
1.0
  9
$TEXTSTYLE
  7
Standard
  9
$CLAYER
  8
0
  9
$CELTYPE
  6
ByLayer
  9
$CECOLOR
 62
256
  9
$CELTSCALE
 40
1.0
  9
$DISPSILH
 70
0
  9
$DIMSCALE
 40
1.0
  9
$DIMASZ
 40
2.5
  9
$DIMEXO
 40
0.625
  9
$DIMDLI
 40
3.75
  9
$DIMRND
 40
0.0
  9
$DIMDLE
 40
0.0
  9
$DIMEXE
 40
1.25
  9
$DIMTP
 40
0.0
  9
$DIMTM
 40
0.0
  9
$DIMTXT
 40
2.5
  9
$DIMCEN
 40
2.5
  9
$DIMTSZ
 40
0.0
  9
$DIMTOL
 70
0
  9
$DIMLIM
 70
0
  9
$DIMTIH
 70
0
  9
$DIMTOH
 70
0
  9
$DIMSE1
 70
0
  9
$DIMSE2
 70
0
  9
$DIMTAD
 70
1
  9
$DIMZIN
 70
8
  9
$DIMBLK
  1

  9
$DIMASO
 70
1
  9
$DIMSHO
 70
1
  9
$DIMPOST
  1

  9
$DIMAPOST
  1

  9
$DIMALT
 70
0
  9
$DIMALTD
 70
3
  9
$DIMALTF
 40
0.03937007874
  9
$DIMLFAC
 40
1.0
  9
$DIMTOFL
 70
1
  9
$DIMTVP
 40
0.0
  9
$DIMTIX
 70
0
  9
$DIMSOXD
 70
0
  9
$DIMSAH
 70
0
  9
$DIMBLK1
  1

  9
$DIMBLK2
  1

  9
$DIMSTYLE
  2
ISO-25
  9
$DIMCLRD
 70
0
  9
$DIMCLRE
 70
0
  9
$DIMCLRT
 70
0
  9
$DIMTFAC
 40
1.0
  9
$DIMGAP
 40
0.625
  9
$DIMJUST
 70
0
  9
$DIMSD1
 70
0
  9
$DIMSD2
 70
0
  9
$DIMTOLJ
 70
0
  9
$DIMTZIN
 70
8
  9
$DIMALTZ
 70
0
  9
$DIMALTTZ
 70
0
  9
$DIMUPT
 70
0
  9
$DIMDEC
 70
2
  9
$DIMTDEC
 70
2
  9
$DIMALTU
 70
2
  9
$DIMALTTD
 70
3
  9
$DIMTXSTY
  7
Standard
  9
$DIMAUNIT
 70
0
  9
$DIMADEC
 70
0
  9
$DIMALTRND
 40
0.0
  9
$DIMAZIN
 70
0
  9
$DIMDSEP
 70
44
  9
$DIMATFIT
 70
3
  9
$DIMFRAC
 70
0
  9
$DIMLDRBLK
  1

  9
$DIMLUNIT
 70
2
  9
$DIMLWD
 70
-2
  9
$DIMLWE
 70
-2
  9
$DIMTMOVE
 70
0
  9
$DIMFXL
 40
1.0
  9
$DIMFXLON
 70
0
  9
$DIMJOGANG
 40
0.785398163397
  9
$DIMTFILL
 70
0
  9
$DIMTFILLCLR
 70
0
  9
$DIMARCSYM
 70
0
  9
$DIMLTYPE
  6

  9
$DIMLTEX1
  6

  9
$DIMLTEX2
  6

  9
$DIMTXTDIRECTION
 70
0
  9
$LUNITS
 70
2
  9
$LUPREC
 70
4
  9
$SKETCHINC
 40
1.0
  9
$FILLETRAD
 40
10.0
  9
$AUNITS
 70
0
  9
$AUPREC
 70
2
  9
$MENU
  1
.
  9
$ELEVATION
 40
0.0
  9
$PELEVATION
 40
0.0
  9
$THICKNESS
 40
0.0
  9
$LIMCHECK
 70
0
  9
$CHAMFERA
 40
0.0
  9
$CHAMFERB
 40
0.0
  9
$CHAMFERC
 40
0.0
  9
$CHAMFERD
 40
0.0
  9
$SKPOLY
 70
0
  9
$TDCREATE
 40
2461243.485625
  9
$TDUCREATE
 40
2458532.153996898
  9
$TDUPDATE
 40
2461243.485625
  9
$TDUUPDATE
 40
2458532.1544311
  9
$TDINDWG
 40
0.0
  9
$TDUSRTIMER
 40
0.0
  9
$USRTIMER
 70
1
  9
$ANGBASE
 50
0.0
  9
$ANGDIR
 70
0
  9
$PDMODE
 70
0
  9
$PDSIZE
 40
0.0
  9
$PLINEWID
 40
0.0
  9
$SPLFRAME
 70
0
  9
$SPLINETYPE
 70
6
  9
$SPLINESEGS
 70
8
  9
$HANDSEED
  5
3E
  9
$SURFTAB1
 70
6
  9
$SURFTAB2
 70
6
  9
$SURFTYPE
 70
6
  9
$SURFU
 70
6
  9
$SURFV
 70
6
  9
$UCSBASE
  2

  9
$UCSNAME
  2

  9
$UCSORG
 10
0.0
 20
0.0
 30
0.0
  9
$UCSXDIR
 10
1.0
 20
0.0
 30
0.0
  9
$UCSYDIR
 10
0.0
 20
1.0
 30
0.0
  9
$UCSORTHOREF
  2

  9
$UCSORTHOVIEW
 70
0
  9
$UCSORGTOP
 10
0.0
 20
0.0
 30
0.0
  9
$UCSORGBOTTOM
 10
0.0
 20
0.0
 30
0.0
  9
$UCSORGLEFT
 10
0.0
 20
0.0
 30
0.0
  9
$UCSORGRIGHT
 10
0.0
 20
0.0
 30
0.0
  9
$UCSORGFRONT
 10
0.0
 20
0.0
 30
0.0
  9
$UCSORGBACK
 10
0.0
 20
0.0
 30
0.0
  9
$PUCSBASE
  2

  9
$PUCSNAME
  2

  9
$PUCSORG
 10
0.0
 20
0.0
 30
0.0
  9
$PUCSXDIR
 10
1.0
 20
0.0
 30
0.0
  9
$PUCSYDIR
 10
0.0
 20
1.0
 30
0.0
  9
$PUCSORTHOREF
  2

  9
$PUCSORTHOVIEW
 70
0
  9
$PUCSORGTOP
 10
0.0
 20
0.0
 30
0.0
  9
$PUCSORGBOTTOM
 10
0.0
 20
0.0
 30
0.0
  9
$PUCSORGLEFT
 10
0.0
 20
0.0
 30
0.0
  9
$PUCSORGRIGHT
 10
0.0
 20
0.0
 30
0.0
  9
$PUCSORGFRONT
 10
0.0
 20
0.0
 30
0.0
  9
$PUCSORGBACK
 10
0.0
 20
0.0
 30
0.0
  9
$USERI1
 70
0
  9
$USERI2
 70
0
  9
$USERI3
 70
0
  9
$USERI4
 70
0
  9
$USERI5
 70
0
  9
$USERR1
 40
0.0
  9
$USERR2
 40
0.0
  9
$USERR3
 40
0.0
  9
$USERR4
 40
0.0
  9
$USERR5
 40
0.0
  9
$WORLDVIEW
 70
1
  9
$SHADEDGE
 70
3
  9
$SHADEDIF
 70
70
  9
$TILEMODE
 70
1
  9
$MAXACTVP
 70
64
  9
$PINSBASE
 10
0.0
 20
0.0
 30
0.0
  9
$PLIMCHECK
 70
0
  9
$PEXTMIN
 10
1e+20
 20
1e+20
 30
1e+20
  9
$PEXTMAX
 10
-1e+20
 20
-1e+20
 30
-1e+20
  9
$PLIMMIN
 10
0.0
 20
0.0
  9
$PLIMMAX
 10
420.0
 20
297.0
  9
$UNITMODE
 70
0
  9
$VISRETAIN
 70
1
  9
$PLINEGEN
 70
0
  9
$PSLTSCALE
 70
1
  9
$TREEDEPTH
 70
3020
  9
$CMLSTYLE
  2
Standard
  9
$CMLJUST
 70
0
  9
$CMLSCALE
 40
20.0
  9
$PROXYGRAPHICS
 70
1
  9
$MEASUREMENT
 70
1
  9
$CELWEIGHT
370
-1
  9
$ENDCAPS
280
0
  9
$JOINSTYLE
280
0
  9
$LWDISPLAY
290
0
  9
$INSUNITS
 70
4
  9
$HYPERLINKBASE
  1

  9
$STYLESHEET
  1

  9
$XEDIT
290
1
  9
$CEPSNTYPE
380
0
  9
$PSTYLEMODE
290
1
  9
$FINGERPRINTGUID
  2
{3E6036EC-3148-49E5-9499-01B2D826E78B}
  9
$VERSIONGUID
  2
{CC524D3A-161C-4FE7-9537-7F4D88780DF7}
  9
$EXTNAMES
290
1
  9
$PSVPSCALE
 40
0.0
  9
$OLESTARTUP
290
0
  9
$SORTENTS
280
127
  9
$INDEXCTL
280
0
  9
$HIDETEXT
280
1
  9
$XCLIPFRAME
280
1
  9
$HALOGAP
280
0
  9
$OBSCOLOR
 70
257
  9
$OBSLTYPE
280
0
  9
$INTERSECTIONDISPLAY
280
0
  9
$INTERSECTIONCOLOR
 70
257
  9
$DIMASSOC
280
2
  9
$PROJECTNAME
  1

  9
$CAMERADISPLAY
290
0
  9
$LENSLENGTH
 40
50.0
  9
$CAMERAHEIGHT
 40
0.0
  9
$STEPSPERSEC
 40
24.0
  9
$STEPSIZE
 40
100.0
  9
$3DDWFPREC
 40
2.0
  9
$PSOLWIDTH
 40
0.005
  9
$PSOLHEIGHT
 40
0.08
  9
$LOFTANG1
 40
1.570796326795
  9
$LOFTANG2
 40
1.570796326795
  9
$LOFTMAG1
 40
0.0
  9
$LOFTMAG2
 40
0.0
  9
$LOFTPARAM
 70
7
  9
$LOFTNORMALS
280
1
  9
$LATITUDE
 40
37.795
  9
$LONGITUDE
 40
-122.394
  9
$NORTHDIRECTION
 40
0.0
  9
$TIMEZONE
 70
-8000
  9
$LIGHTGLYPHDISPLAY
280
1
  9
$TILEMODELIGHTSYNCH
280
1
  9
$CMATERIAL
347
20
  9
$SOLIDHIST
280
0
  9
$SHOWHIST
280
1
  9
$DWFFRAME
280
2
  9
$DGNFRAME
280
2
  9
$REALWORLDSCALE
290
1
  9
$INTERFERECOLOR
 62
256
  9
$CSHADOW
280
0
  9
$SHADOWPLANELOCATION
 40
0.0
  0
ENDSEC
  0
SECTION
  2
CLASSES
  0
CLASS
  1
ACDBDICTIONARYWDFLT
  2
AcDbDictionaryWithDefault
  3
ObjectDBX Classes
 90
0
 91
0
280
0
281
0
  0
CLASS
  1
SUN
  2
AcDbSun
  3
SCENEOE
 90
1153
 91
0
280
0
281
0
  0
CLASS
  1
VISUALSTYLE
  2
AcDbVisualStyle
  3
ObjectDBX Classes
 90
4095
 91
0
280
0
281
0
  0
CLASS
  1
MATERIAL
  2
AcDbMaterial
  3
ObjectDBX Classes
 90
1153
 91
0
280
0
281
0
  0
CLASS
  1
SCALE
  2
AcDbScale
  3
ObjectDBX Classes
 90
1153
 91
0
280
0
281
0
  0
CLASS
  1
TABLESTYLE
  2
AcDbTableStyle
  3
ObjectDBX Classes
 90
4095
 91
0
280
0
281
0
  0
CLASS
  1
MLEADERSTYLE
  2
AcDbMLeaderStyle
  3
ACDB_MLEADERSTYLE_CLASS
 90
4095
 91
0
280
0
281
0
  0
CLASS
  1
DICTIONARYVAR
  2
AcDbDictionaryVar
  3
ObjectDBX Classes
 90
0
 91
0
280
0
281
0
  0
CLASS
  1
CELLSTYLEMAP
  2
AcDbCellStyleMap
  3
ObjectDBX Classes
 90
1152
 91
0
280
0
281
0
  0
CLASS
  1
MENTALRAYRENDERSETTINGS
  2
AcDbMentalRayRenderSettings
  3
SCENEOE
 90
1024
 91
0
280
0
281
0
  0
CLASS
  1
ACDBDETAILVIEWSTYLE
  2
AcDbDetailViewStyle
  3
ObjectDBX Classes
 90
1025
 91
0
280
0
281
0
  0
CLASS
  1
ACDBSECTIONVIEWSTYLE
  2
AcDbSectionViewStyle
  3
ObjectDBX Classes
 90
1025
 91
0
280
0
281
0
  0
CLASS
  1
RASTERVARIABLES
  2
AcDbRasterVariables
  3
ISM
 90
0
 91
0
280
0
281
0
  0
CLASS
  1
ACDBPLACEHOLDER
  2
AcDbPlaceHolder
  3
ObjectDBX Classes
 90
0
 91
0
280
0
281
0
  0
CLASS
  1
LAYOUT
  2
AcDbLayout
  3
ObjectDBX Classes
 90
0
 91
0
280
0
281
0
  0
ENDSEC
  0
SECTION
  2
TABLES
  0
TABLE
  2
VPORT
  5
8
330
0
100
AcDbSymbolTable
 70
1
  0
VPORT
  5
23
330
8
100
AcDbSymbolTableRecord
100
AcDbViewportTableRecord
  2
*Active
 70
0
 10
0.0
 20
0.0
 11
1.0
 21
1.0
 12
0.0
 22
0.0
 13
0.0
 23
0.0
 14
0.5
 24
0.5
 15
0.5
 25
0.5
 16
0.0
 26
0.0
 36
1.0
 17
0.0
 27
0.0
 37
0.0
 40
1000.0
 41
1.34
 42
50.0
 43
0.0
 44
0.0
 50
0.0
 51
0.0
 71
0
 72
1000
 73
1
 74
3
 75
0
 76
0
 77
0
 78
0
281
0
 65
0
146
0.0
  0
ENDTAB
  0
TABLE
  2
LTYPE
  5
2
330
0
100
AcDbSymbolTable
 70
3
  0
LTYPE
  5
24
330
2
100
AcDbSymbolTableRecord
100
AcDbLinetypeTableRecord
  2
ByBlock
 70
0
  3

 72
65
 73
0
 40
0.0
  0
LTYPE
  5
25
330
2
100
AcDbSymbolTableRecord
100
AcDbLinetypeTableRecord
  2
ByLayer
 70
0
  3

 72
65
 73
0
 40
0.0
  0
LTYPE
  5
26
330
2
100
AcDbSymbolTableRecord
100
AcDbLinetypeTableRecord
  2
Continuous
 70
0
  3

 72
65
 73
0
 40
0.0
  0
ENDTAB
  0
TABLE
  2
LAYER
  5
1
330
0
100
AcDbSymbolTable
 70
3
  0
LAYER
  5
27
330
1
100
AcDbSymbolTableRecord
100
AcDbLayerTableRecord
  2
0
 70
0
 62
7
  6
Continuous
370
-3
390
13
347
21
  0
LAYER
  5
28
330
1
100
AcDbSymbolTableRecord
100
AcDbLayerTableRecord
  2
Defpoints
 70
0
 62
7
  6
Continuous
290
0
370
-3
390
13
347
21
  0
LAYER
  5
2F
330
1
100
AcDbSymbolTableRecord
100
AcDbLayerTableRecord
  2
Y
 70
0
 62
7
  6
Continuous
370
-3
390
13
347
21
  0
ENDTAB
  0
TABLE
  2
STYLE
  5
5
330
0
100
AcDbSymbolTable
 70
1
  0
STYLE
  5
29
330
5
100
AcDbSymbolTableRecord
100
AcDbTextStyleTableRecord
  2
Standard
 70
0
 40
0.0
 41
1.0
 50
0.0
 71
0
 42
2.5
  3
txt
  4

  0
ENDTAB
  0
TABLE
  2
VIEW
  5
7
330
0
100
AcDbSymbolTable
 70
0
  0
ENDTAB
  0
TABLE
  2
UCS
  5
6
330
0
100
AcDbSymbolTable
 70
0
  0
ENDTAB
  0
TABLE
  2
APPID
  5
3
330
0
100
AcDbSymbolTable
 70
3
  0
APPID
  5
2A
330
3
100
AcDbSymbolTableRecord
100
AcDbRegAppTableRecord
  2
ACAD
 70
0
  0
APPID
  5
3B
330
3
100
AcDbSymbolTableRecord
100
AcDbRegAppTableRecord
  2
HATCHBACKGROUNDCOLOR
 70
0
  0
APPID
  5
3C
330
3
100
AcDbSymbolTableRecord
100
AcDbRegAppTableRecord
  2
EZDXF
 70
0
  0
ENDTAB
  0
TABLE
  2
DIMSTYLE
  5
4
330
0
100
AcDbSymbolTable
 70
1
100
AcDbDimStyleTable
  0
DIMSTYLE
105
2B
330
4
100
AcDbSymbolTableRecord
100
AcDbDimStyleTableRecord
  2
Standard
 70
0
 40
1.0
 41
2.5
 42
0.625
 43
3.75
 44
1.25
 45
0.0
 46
0.0
 47
0.0
 48
0.0
 49
2.5
140
2.5
141
2.5
142
0.0
143
0.03937007874
144
1.0
145
0.0
146
1.0
147
0.625
148
0.0
 69
0
 70
0
 71
0
 72
0
 73
0
 74
0
 75
0
 76
0
 77
1
 78
8
 79
3
170
0
171
3
172
1
173
0
174
0
175
0
176
0
177
0
178
0
179
2
271
2
272
2
273
2
274
3
275
0
276
0
277
2
278
44
279
0
280
0
281
0
282
0
283
0
284
8
285
0
286
0
288
0
289
3
290
0
371
-2
372
-2
  0
ENDTAB
  0
TABLE
  2
BLOCK_RECORD
  5
9
330
0
100
AcDbSymbolTable
 70
2
  0
BLOCK_RECORD
  5
17
330
9
100
AcDbSymbolTableRecord
100
AcDbBlockTableRecord
  2
*Model_Space
340
1A
 70
0
280
1
281
0
  0
BLOCK_RECORD
  5
1B
330
9
100
AcDbSymbolTableRecord
100
AcDbBlockTableRecord
  2
*Paper_Space
340
1E
 70
0
280
1
281
0
  0
ENDTAB
  0
ENDSEC
  0
SECTION
  2
BLOCKS
  0
BLOCK
  5
18
330
17
100
AcDbEntity
  8
0
100
AcDbBlockBegin
  2
*Model_Space
 70
0
 10
0.0
 20
0.0
 30
0.0
  3
*Model_Space
  1

  0
ENDBLK
  5
19
330
17
100
AcDbEntity
  8
0
100
AcDbBlockEnd
  0
BLOCK
  5
1C
330
1B
100
AcDbEntity
  8
0
100
AcDbBlockBegin
  2
*Paper_Space
 70
0
 10
0.0
 20
0.0
 30
0.0
  3
*Paper_Space
  1

  0
ENDBLK
  5
1D
330
1B
100
AcDbEntity
  8
0
100
AcDbBlockEnd
  0
ENDSEC
  0
SECTION
  2
ENTITIES
  0
LWPOLYLINE
  5
30
330
17
100
AcDbEntity
  8
Y
100
AcDbPolyline
 90
93
 70
1
 10
190.88545434684866
 20
279.2965501545932
 10
189.27772896759276
 20
281.93781327765623
 10
187.66726153586376
 20
279.2920453541017
 10
182.55486306598846
 20
279.2920453541017
 10
180.88819639932174
 20
282.0301405921969
 10
165.89567318324637
 20
282.0301405921969
 10
150.8783224740362
 20
301.2189776095209
 10
145.87289086788624
 20
303.96004729860306
 10
140.0110623009262
 20
313.5901942300374
 10
140.0110623009262
 20
327.336753621023
 10
147.55486306598854
 20
339.73014059219685
 10
152.56489474719982
 20
339.73014059219685
 10
164.2243460323557
 20
353.4121497533491
 10
192.54864653623372
 20
358.8865943885524
 10
194.21297849912767
 20
361.62085404187803
 10
204.21297849912767
 20
364.3589492799734
 10
207.55486306598837
 20
369.84918821124444
 10
219.22152973265509
 20
369.84918821124444
 10
223.32732683410416
 20
376.59442630648255
 10
220.88819639932177
 20
380.6015691636254
 10
214.22152973265517
 20
380.6015691636254
 10
212.55486306598849
 20
383.3396644017207
 10
180.88819639932174
 20
383.3396644017207
 10
177.55486306598846
 20
388.81585487791114
 10
174.22152973265514
 20
388.81585487791114
 10
172.55486306598843
 20
391.5539501160064
 10
160.9056215889384
 20
391.5539501160064
 10
153.33512337297873
 20
398.4635318210491
 10
155.00526687734794
 20
406.694953378297
 10
150.86539838626655
 20
413.496165899359
 10
142.60497373852166
 20
421.63858448070755
 10
136.0209882699436
 20
416.2303107029469
 10
129.3032598461543
 20
405.19404257815006
 10
125.9699265128209
 20
407.93213781624524
 10
116.00059486919723
 20
391.5539501160064
 10
106.00059486919722
 20
391.5539501160064
 10
104.33392820253052
 20
388.81585487791114
 10
85.98020146845076
 20
388.81585487791114
 10
82.5855314223648
 20
386.0273759114834
 10
79.22152973265517
 20
391.5539501160064
 10
75.99396386049095
 20
391.5539501160064
 10
67.64412955872712
 20
380.57988217654525
 10
60.98540785397433
 20
383.3147143052831
 10
59.333928202530586
 20
380.6015691636254
 10
55.908589800068185
 20
380.6015691636254
 10
52.61106230092616
 20
383.3102524664922
 10
49.267869795898925
 20
380.56405862307685
 10
39.29380533811233
 20
391.48803398160504
 10
35.22813110108125
 20
384.80871202076827
 10
37.66726153586386
 20
380.8015691636254
 10
41.00059486919727
 20
380.8015691636254
 10
44.31874118730761
 20
375.35032878387267
 10
50.985407853974316
 20
378.08842402196785
 10
54.33392820253058
 20
372.5872834493397
 10
57.66726153586388
 20
372.5872834493397
 10
60.22813110108116
 20
368.38014059219694
 10
57.66726153586388
 20
364.1729977350541
 10
52.66726153586387
 20
364.1729977350541
 10
51.00059486919728
 20
361.4349024969587
 10
34.33392820253056
 20
361.4349024969587
 10
32.667261535863965
 20
358.69680725886354
 10
26.000594869197258
 20
358.69680725886354
 10
24.3388054911704
 20
355.9667247092482
 10
5.893498531278185
 20
353.21190613731636
 10
3.3451348835211725
 20
357.3985035586312
 10
1.6784682168545784
 20
420.37469403482174
 10
0.0
 20
423.13217753393997
 10
5.874665659299394
 20
438.2984062258046
 10
64.21994580361212
 20
441.03706223257853
 10
68.34891465557402
 20
447.8203682036587
 10
73.34891465557402
 20
477.9394158227063
 10
77.55486306598847
 20
484.84918821124444
 10
392.6672615358638
 20
484.84918821124444
 10
395.2110623009261
 20
480.6700869543565
 10
395.2110623009261
 20
299.8997180395609
 10
392.6672615358638
 20
295.7206167826731
 10
385.9002877081518
 20
295.7206167826731
 10
380.90028770815167
 20
301.19680725886354
 10
374.24605639086127
 20
301.19680725886354
 10
362.5793897241948
 20
309.41109297314927
 10
355.9002877081517
 20
309.41109297314927
 10
350.90028770815184
 20
314.8872834493398
 10
344.3339282025305
 20
314.8872834493398
 10
341.0005948691971
 20
309.41109297314927
 10
336.0005948691972
 20
309.41109297314927
 10
334.3339282025305
 20
306.6729977350541
 10
270.994638116374
 20
306.6729977350541
 10
252.66130478304072
 20
282.0301405921969
 10
244.33392820253042
 20
282.0301405921969
 10
242.66726153586393
 20
279.2920453541017
 10
226.00059486919733
 20
279.2920453541017
 10
224.33105679905984
 20
276.54923281030455
 10
190.88545434684866
 20
279.2965501545932
  0
LWPOLYLINE
  5
31
330
17
100
AcDbEntity
  8
Y
100
AcDbPolyline
 90
15
 70
1
 10
203.34439563425966
 20
80.84566190479114
 10
203.34439563425966
 20
86.32828946813243
 10
201.67772896759274
 20
89.06638470622764
 10
201.67772896759274
 20
94.59865838292814
 10
204.22152973265517
 20
98.77775963981594
 10
244.33392820253042
 20
98.77775963981594
 10
246.9007628281129
 20
94.56081704064523
 10
240.99056318798574
 20
87.62537868743503
 10
235.98020146845056
 20
87.62537868743503
 10
229.3543216032773
 20
82.18269165532821
 10
225.94439563425962
 20
76.58067042051331
 10
224.2215297326552
 20
79.4110929731493
 10
220.98020146845064
 20
79.4110929731493
 10
210.92874946876117
 20
71.15454311626135
 10
203.34439563425966
 20
80.84566190479114
  0
LWPOLYLINE
  5
32
330
17
100
AcDbEntity
  8
Y
100
AcDbPolyline
 90
62
 70
1
 10
704.2215297326552
 20
295.7206167826731
 10
689.2215297326552
 20
295.7206167826731
 10
683.3509058177062
 20
305.36521321437505
 10
680.0175724843729
 20
319.0556894048512
 10
676.6606601674378
 20
324.5706167826731
 10
680.8881963993217
 20
331.5158548779111
 10
687.6672615358639
 20
331.5158548779111
 10
690.9295659289415
 20
326.1563548035692
 10
694.9986752621456
 20
335.51530626993866
 10
692.5548630659885
 20
339.53014059219686
 10
689.2281607413614
 20
339.53014059219686
 10
680.8751756304171
 20
350.5083495951521
 10
672.5811458523056
 20
355.95871202076836
 10
667.5752564667349
 20
355.95871202076836
 10
660.9085898000683
 20
361.4349024969587
 10
650.9802014684508
 20
361.4349024969587
 10
647.6110623009263
 20
358.667395323635
 10
630.9085898000683
 20
372.3872834493397
 10
597.6409787495468
 20
372.3872834493397
 10
589.3514500600753
 20
366.9398788819727
 10
582.6110623009262
 20
355.8663847062279
 10
579.2777289675929
 20
361.34257518241833
 10
575.9443956342594
 20
355.8663847062279
 10
573.3273268341045
 20
360.1658548779112
 10
574.9939935007712
 20
362.9039501160064
 10
572.6237058431194
 20
366.7979941250056
 10
567.6753379259676
 20
355.95871202076836
 10
562.5548630659885
 20
355.95871202076836
 10
559.2579796555947
 20
361.37502048070104
 10
555.2288479232918
 20
357.4034477731455
 10
558.5559751167254
 20
349.2044557607553
 10
556.894797767748
 20
346.47537868743495
 10
558.5614644344146
 20
343.7372834493397
 10
556.0005948691972
 20
339.53014059219686
 10
552.5548630659885
 20
339.53014059219686
 10
549.2215297326552
 20
345.0063310683874
 10
539.3339282025306
 20
345.0063310683874
 10
537.6110623009262
 20
342.17590851575164
 10
530.9128008803385
 20
353.18019513528867
 10
522.6847833934087
 20
347.773212215306
 10
519.2777289675928
 20
342.17590851575164
 10
517.5993615370191
 20
344.9332264374086
 10
510.9326948703524
 20
336.7189407231229
 10
509.26165259707335
 20
339.4642244577956
 10
504.26165259707335
 20
333.98803398160516
 10
500.01052752303855
 20
340.9720251746623
 10
501.6782609008192
 20
428.6471513208474
 10
504.2215297326551
 20
432.825378687435
 10
801.0005948691972
 20
432.825378687435
 10
803.5614644344146
 20
428.6182358302921
 10
798.5443956342593
 20
420.3759085157517
 10
798.5443956342593
 20
412.1747839651443
 10
795.2110623009262
 20
401.2224030127634
 10
795.2110623009262
 20
395.7330513728945
 10
792.6689400232962
 20
391.5567076310738
 10
737.6808651966829
 20
388.8192060704415
 10
731.8887912685191
 20
373.866198888549
 10
733.5436563849977
 20
371.1474919114768
 10
735.2119911335914
 20
308.10827176818736
 10
720.9888209703719
 20
290.239667235403
 10
706.7183185744564
 20
291.6187493997141
 10
704.2215297326552
 20
295.7206167826731
  0
LWPOLYLINE
  5
33
330
17
100
AcDbEntity
  8
Y
100
AcDbPolyline
 90
5
 70
1
 10
704.9944713971707
 20
313.6355961848498
 10
700.9165783420112
 20
323.01475021171655
 10
695.2276532046815
 20
316.33897071382967
 10
699.3055462598411
 20
306.95981668696294
 10
704.9944713971707
 20
313.6355961848498
  0
LWPOLYLINE
  5
34
330
17
100
AcDbEntity
  8
Y
100
AcDbPolyline
 90
23
 70
1
 10
1953.3436508794027
 20
236.97838723804466
 10
1954.993993500771
 20
239.68966440172068
 10
1953.3443956342592
 20
242.39971803956118
 10
1953.3443956342592
 20
324.667565082325
 10
1997.666192114974
 20
326.0414213074685
 10
2000.2117208647237
 20
321.8594812185932
 10
1998.5438708994182
 20
250.61846127196284
 10
1992.622080081123
 20
238.1101888292375
 10
1989.2777289675926
 20
243.60447994432312
 10
1987.611062300926
 20
240.8663847062279
 10
1985.8881963993213
 20
243.69680725886354
 10
1977.554863065988
 20
243.69680725886354
 10
1975.8881963993215
 20
246.43490249695876
 10
1959.3476677254978
 20
246.43490249695876
 10
1956.8881675782982
 20
239.70055685581627
 10
1959.3543216032767
 20
235.64901810049443
 10
1962.6110623009256
 20
232.97383824171115
 10
1969.2901427733527
 20
238.46022577263327
 10
1975.2366429636204
 20
231.4821898350744
 10
1959.273056513696
 20
208.01691802334355
 10
1957.6110623009258
 20
210.74733708718028
 10
1954.1867399460825
 20
205.12166464708025
 10
1953.3436508794027
 20
236.97838723804466
  0
LWPOLYLINE
  5
35
330
17
100
AcDbEntity
  8
Y
100
AcDbPolyline
 90
227
 70
1
 10
3160.067926055348
 20
58.882785353787106
 10
3150.911177881014
 20
65.72061678267305
 10
3144.233621041485
 20
65.72061678267305
 10
3139.233621041485
 20
71.19680725886357
 10
3132.575256466735
 20
71.19680725886357
 10
3122.575256466735
 20
79.4110929731493
 10
3114.233621041485
 20
79.4110929731493
 10
3109.2189977905264
 20
84.90329939086583
 10
3102.5427086014015
 20
87.64534673639935
 10
3099.221529732655
 20
93.10156916362544
 10
3090.8881963993217
 20
93.10156916362544
 10
3089.221529732655
 20
95.83966440172065
 10
3069.221529732655
 20
95.83966440172065
 10
3067.5548630659882
 20
98.57775963981597
 10
3055.8881963993217
 20
98.57775963981597
 10
3054.2903725097863
 20
101.20275602976747
 10
3039.3420045926346
 20
68.45871202076836
 10
3032.667261535864
 20
68.45871202076836
 10
3031.000594869198
 20
65.72061678267305
 10
2996.0005948691974
 20
65.72061678267305
 10
2994.3339282025304
 20
62.98252154457784
 10
2975.888196399322
 20
62.98252154457784
 10
2973.349348513729
 20
67.1534859280516
 10
2968.341663808302
 20
94.57652121967541
 10
2973.352406777368
 20
111.04039097517781
 10
2977.537341208444
 20
117.91564039765923
 10
2985.914479185639
 20
123.42061678267302
 10
2994.246056390861
 20
123.42061678267302
 10
3005.912723057528
 20
131.63490249695874
 10
3014.246056390861
 20
131.63490249695874
 10
3025.912723057528
 20
139.84918821124447
 10
3030.888196399322
 20
139.84918821124447
 10
3033.340060899452
 20
143.87725131860108
 10
3031.682489635952
 20
154.7698624787417
 10
3020.8931459601336
 20
169.7682358302921
 10
3015.8881963993217
 20
169.7682358302921
 10
3012.5548630659887
 20
175.24442630648264
 10
3009.2300984367926
 20
175.24442630648264
 10
3002.563431770126
 20
183.45871202076836
 10
2999.2377670989636
 20
183.45871202076836
 10
2983.3123067299307
 20
198.60586041687856
 10
2994.226479293467
 20
213.77775963981594
 10
3011.0005948691974
 20
213.77775963981594
 10
3012.667261535864
 20
211.03966440172073
 10
3019.233621041485
 20
211.03966440172073
 10
3029.23079259674
 20
221.9889475336666
 10
3067.6647712808767
 20
224.73423172539066
 10
3070.211062300926
 20
220.55103933530873
 10
3070.211062300926
 20
184.9558012400706
 10
3074.3460826671176
 20
178.1625534956135
 10
3081.012749333784
 20
175.4244582575183
 10
3084.3339282025304
 20
169.9682358302921
 10
3089.333928202531
 20
169.9682358302921
 10
3092.6000445207287
 20
164.6024733075373
 10
3098.3443956342594
 20
176.73594963917793
 10
3098.3443956342594
 20
201.38437266864207
 10
3100.011062300926
 20
204.12246790673726
 10
3100.011062300926
 20
212.336753621023
 10
3102.5548630659887
 20
216.51585487791115
 10
3112.667261535864
 20
216.51585487791115
 10
3114.333928202531
 20
213.77775963981594
 10
3164.3339282025304
 20
213.77775963981594
 10
3165.9443956342598
 20
211.1319917162614
 10
3168.3443956342594
 20
215.07484885911853
 10
3168.3443956342594
 20
223.2330513728943
 10
3165.0110623009264
 20
228.7092418490848
 10
3165.0110623009264
 20
236.92352756337053
 10
3162.6110623009263
 20
240.86638470622768
 10
3161.0005948691974
 20
238.22061678267315
 10
3154.333928202531
 20
238.22061678267315
 10
3152.667261535864
 20
235.48252154457782
 10
3135.8881963993217
 20
235.48252154457782
 10
3133.3509058177065
 20
239.65092750008932
 10
3130.0163835670573
 20
253.34628674382787
 10
3117.548170047246
 20
279.2920453541017
 10
3104.313534801784
 20
279.2920453541017
 10
3100.9260775090647
 20
276.50949114936805
 10
3090.8936031334333
 20
290.24442630648264
 10
3085.908589800068
 20
290.24442630648264
 10
3079.241923133402
 20
295.7206167826731
 10
3065.908589800068
 20
295.7206167826731
 10
3059.241923133402
 20
301.19680725886354
 10
3045.997116681192
 20
301.19680725886354
 10
3030.9971166811924
 20
279.2920453541017
 10
3020.908589800068
 20
279.2920453541017
 10
3010.9085898000685
 20
287.5063310683874
 10
3002.5669543748186
 20
287.5063310683874
 10
2997.566954374818
 20
292.9825215445778
 10
2992.5548630659887
 20
292.9825215445778
 10
2989.277728967593
 20
298.3663847062279
 10
2987.667261535864
 20
295.7206167826731
 10
2984.221529732655
 20
295.7206167826731
 10
2982.5548630659882
 20
298.45871202076836
 10
2979.221529732655
 20
298.45871202076836
 10
2975.011062300926
 20
305.3759085157517
 10
2975.011062300926
 20
310.90818219245165
 10
2978.3462722289555
 20
316.38745564564255
 10
2980.0120625315635
 20
341.0173551199138
 10
2983.3356868151923
 20
351.93783490898113
 10
2980.9443956342598
 20
355.8663847062279
 10
2979.333928202531
 20
353.2206167826731
 10
2975.888196399322
 20
353.2206167826731
 10
2973.3443956342594
 20
357.39971803956115
 10
2973.3443956342594
 20
417.6938964781659
 10
2978.34439563426
 20
425.90818219245165
 10
2978.34439563426
 20
434.1289049938882
 10
2985.895673183247
 20
443.77775963981594
 10
2990.888196399322
 20
443.77775963981594
 10
2995.888196399322
 20
451.99204535410166
 10
3000.8881963993217
 20
451.99204535410166
 10
3004.221529732655
 20
457.46823583029203
 10
3009.221529732655
 20
457.46823583029203
 10
3014.221529732655
 20
465.6825215445778
 10
3019.2215297326557
 20
465.6825215445778
 10
3024.221529732655
 20
473.89680725886353
 10
3029.221529732655
 20
473.89680725886353
 10
3032.5548630659887
 20
479.372997735054
 10
3037.5548630659887
 20
479.372997735054
 10
3042.5548630659882
 20
487.5872834493397
 10
3047.5548630659887
 20
487.5872834493397
 10
3050.9443956342593
 20
493.1558012400706
 10
3053.5594540080806
 20
488.8596339116511
 10
3041.8927873414136
 20
466.9548720068892
 10
3044.3339282025304
 20
462.94442630648257
 10
3049.221529732655
 20
462.94442630648257
 10
3050.8881963993217
 20
465.6825215445778
 10
3095.8881963993217
 20
465.6825215445778
 10
3098.3443956342594
 20
469.7177060019754
 10
3098.3443956342594
 20
519.0034202876897
 10
3100.888196399322
 20
523.1825215445778
 10
3114.333928202531
 20
523.1825215445778
 10
3116.0005948691974
 20
520.4444263064826
 10
3124.3339282025304
 20
520.4444263064826
 10
3126.0005948691974
 20
517.7063310683874
 10
3129.325359498393
 20
517.7063310683874
 10
3135.99202616506
 20
509.49204535410166
 10
3139.3339282025304
 20
509.49204535410166
 10
3142.667261535864
 20
504.0158548779111
 10
3147.660630527157
 20
504.0158548779111
 10
3155.993963860491
 20
493.06347392553016
 10
3172.5548630659887
 20
493.06347392553016
 10
3174.221529732655
 20
495.8015691636254
 10
3202.5548630659887
 20
495.8015691636254
 10
3204.217905492008
 20
498.53371029208614
 10
3229.3300745087295
 20
501.2840907082032
 10
3231.871218784146
 20
497.1093536843048
 10
3235.2045521174796
 20
483.41887749382863
 10
3241.877728967593
 20
472.4558012400708
 10
3241.877728967593
 20
466.9796107638804
 10
3245.969926512821
 20
460.2567147967199
 10
3252.5752564667346
 20
465.6825215445778
 10
3262.58273118476
 20
465.6825215445778
 10
3275.907947077843
 20
473.89180633585204
 10
3290.9009459033196
 20
476.6286235817723
 10
3297.534469665242
 20
482.0775895290657
 10
3305.8881963993217
 20
495.8015691636254
 10
3309.221529732655
 20
495.8015691636254
 10
3312.5855314223645
 20
501.32814336814846
 10
3319.313534801784
 20
495.8015691636254
 10
3322.6672615358643
 20
495.8015691636254
 10
3326.0127493337845
 20
490.3054106384707
 10
3339.346082667118
 20
484.82922016228014
 10
3342.6773094445125
 20
479.35649045656027
 10
3351.010642777846
 20
476.61839521846497
 10
3355.2115246550316
 20
469.7169464202308
 10
3353.5448579883655
 20
368.40742261070704
 10
3355.211062300926
 20
365.6700869543565
 10
3355.211062300926
 20
286.20924184908483
 10
3351.0005948691974
 20
279.2920453541017
 10
3310.89676510346
 20
279.2920453541017
 10
3304.230098436793
 20
287.5063310683874
 10
3296.0005948691974
 20
287.5063310683874
 10
3294.3339282025304
 20
284.7682358302921
 10
3281.0005948691974
 20
284.7682358302921
 10
3279.333928202531
 20
282.0301405921969
 10
3264.3339282025304
 20
282.0301405921969
 10
3262.667261535864
 20
279.2920453541017
 10
3232.667261535864
 20
279.2920453541017
 10
3230.211062300926
 20
275.25686089670387
 10
3230.211062300926
 20
245.19389647816615
 10
3232.6746985072973
 20
241.14649413912815
 10
3244.341365173964
 20
238.40839890103294
 10
3246.0005948691974
 20
235.6825215445778
 10
3259.3135348017845
 20
235.6825215445778
 10
3265.9802014684506
 20
230.20633106838739
 10
3272.667261535864
 20
230.20633106838739
 10
3274.333928202531
 20
227.4682358302921
 10
3286.0005948691974
 20
227.4682358302921
 10
3290.2153970357335
 20
220.54391798526797
 10
3288.540240992169
 20
209.53574969898315
 10
3285.211062300926
 20
204.0663847062276
 10
3285.211062300926
 20
195.8652601556209
 10
3281.876234474065
 20
184.9079687245061
 10
3280.213940655653
 20
168.5225010858761
 10
3284.3339282025304
 20
161.75395011600637
 10
3287.6562951516726
 20
161.75395011600637
 10
3298.5443956342597
 20
149.37023143526184
 10
3298.5443956342597
 20
127.44264007639194
 10
3300.2243421309277
 20
121.92281587305342
 10
3295.950484196664
 20
117.71001305213625
 10
3289.2333751314777
 20
123.22763835568207
 10
3275.8924539933005
 20
125.96729180370059
 10
3270.900287708152
 20
131.43490249695878
 10
3262.5669543748186
 20
131.43490249695878
 10
3257.5669543748186
 20
136.9110929731493
 10
3252.5648947472
 20
136.9110929731493
 10
3246.6684823275905
 20
143.83035244513965
 10
3250.0067252561157
 20
157.5409930444378
 10
3247.536276764955
 20
164.30531629404555
 10
3234.326554751047
 20
167.01802706475877
 10
3231.019456152812
 20
161.58493651051586
 10
3216.019456152812
 20
150.63255555813492
 10
3212.6672615358643
 20
145.12537868743502
 10
3209.313534801784
 20
145.12537868743502
 10
3202.68765493661
 20
139.68269165532809
 10
3197.6672615358643
 20
131.43490249695878
 10
3192.667261535864
 20
131.43490249695878
 10
3187.6794160004506
 20
123.24058483163746
 10
3181.012749333784
 20
120.50248959354226
 10
3178.5443956342597
 20
116.44733708718003
 10
3178.5443956342597
 20
111.01608310279187
 10
3185.2110623009266
 20
91.84941643612521
 10
3185.2110623009266
 20
86.33280777778118
 10
3177.6729750859713
 20
71.19680725886357
 10
3174.333928202531
 20
71.19680725886357
 10
3165.992122789038
 20
57.492412650982374
 10
3160.067926055348
 20
58.882785353787106
  0
LWPOLYLINE
  5
36
330
17
100
AcDbEntity
  8
Y
100
AcDbPolyline
 90
45
 70
1
 10
3084.2300984367926
 20
169.7682358302921
 10
3077.563431770126
 20
177.98252154457782
 10
3074.221529732655
 20
177.98252154457782
 10
3070.0110623009264
 20
184.89971803956118
 10
3070.0110623009264
 20
220.4949561347993
 10
3067.5577344694593
 20
224.52542328649494
 10
3034.224401136126
 20
221.78732804839973
 10
3031.677728967593
 20
225.97114661098982
 10
3031.677728967593
 20
234.18543232527554
 10
3030.0110623009264
 20
236.92352756337075
 10
3030.0110623009264
 20
278.05639922075045
 10
3047.561138933165
 20
301.39680725886353
 10
3059.313534801784
 20
301.39680725886353
 10
3065.980201468451
 20
295.9206167826731
 10
3079.313534801784
 20
295.9206167826731
 10
3085.980201468451
 20
290.44442630648257
 10
3090.9951881350858
 20
290.44442630648257
 10
3100.9627137594543
 20
276.79840908264487
 10
3104.2419231334015
 20
279.49204535410166
 10
3117.673954554607
 20
279.49204535410166
 10
3130.2057410347957
 20
253.413994440566
 10
3133.537885450813
 20
239.72840130335206
 10
3136.0005948691974
 20
235.6825215445778
 10
3152.5548630659882
 20
235.6825215445778
 10
3154.221529732655
 20
238.42061678267314
 10
3160.888196399322
 20
238.42061678267314
 10
3162.6110623009263
 20
241.251039335309
 10
3165.211062300926
 20
236.9796107638804
 10
3165.211062300926
 20
226.02722981149947
 10
3168.5443956342597
 20
220.55103933530896
 10
3168.5443956342597
 20
215.01876565860866
 10
3165.9443956342598
 20
210.74733708718009
 10
3164.221529732655
 20
213.57775963981595
 10
3114.221529732655
 20
213.57775963981595
 10
3112.5548630659882
 20
216.31585487791116
 10
3102.667261535864
 20
216.31585487791116
 10
3100.2110623009266
 20
212.28067042051356
 10
3100.2110623009266
 20
204.06638470622784
 10
3098.5443956342597
 20
201.32828946813262
 10
3098.5443956342597
 20
179.42352756337075
 10
3095.211062300926
 20
173.94733708718024
 10
3095.211062300926
 20
168.47114661098982
 10
3092.6110623009263
 20
164.19971803956125
 10
3089.221529732655
 20
169.7682358302921
 10
3084.2300984367926
 20
169.7682358302921
  0
LWPOLYLINE
  5
37
330
17
100
AcDbEntity
  8
Y
100
AcDbPolyline
 90
173
 70
1
 10
3623.414134793499
 20
4.1143045782303655
 10
3612.5821160583523
 20
10.958712020768369
 10
3602.5752564667355
 20
10.958712020768369
 10
3595.9085898000685
 20
16.43490249695878
 10
3585.914479185639
 20
16.43490249695878
 10
3577.537341208444
 20
21.939878881972795
 10
3568.3547734225504
 20
37.025525958798376
 10
3565.0139723137772
 20
45.25821440541744
 10
3563.3485502763506
 20
56.202416365650265
 10
3557.6110623009263
 20
65.62828946813259
 10
3556.0005948691974
 20
62.98252154457784
 10
3549.321836893701
 20
62.98252154457784
 10
3544.321836893701
 20
57.50633106838732
 10
3535.980201468451
 20
57.50633106838732
 10
3529.3135348017845
 20
52.03014059219691
 10
3517.5669543748186
 20
52.03014059219691
 10
3502.5669543748186
 20
68.45871202076836
 10
3492.6672615358643
 20
68.45871202076836
 10
3491.0005948691974
 20
65.72061678267305
 10
3482.6672615358643
 20
65.72061678267305
 10
3481.000594869198
 20
62.98252154457784
 10
3461.0005948691974
 20
62.98252154457784
 10
3459.333928202531
 20
60.24442630648264
 10
3452.6672615358643
 20
60.24442630648264
 10
3451.0005948691974
 20
57.50633106838732
 10
3447.5548630659887
 20
57.50633106838732
 10
3443.34439563426
 20
64.42352756337067
 10
3443.34439563426
 20
80.85209899194201
 10
3441.679140422011
 20
83.5878754120648
 10
3440.0124737553447
 20
116.44501826920761
 10
3436.6606601674384
 20
121.95156916362548
 10
3440.0110623009264
 20
127.45580124007073
 10
3440.0110623009264
 20
132.92346710445136
 10
3446.688106755884
 20
149.37761236845236
 10
3451.683206920592
 20
157.58384835333018
 10
3453.349873587258
 20
165.7981340676159
 10
3459.221529732655
 20
175.4444263064826
 10
3490.888196399322
 20
175.4444263064826
 10
3494.2215297326557
 20
180.92061678267314
 10
3502.6409787495472
 20
180.92061678267314
 10
3510.9743120828803
 20
175.4444263064826
 10
3524.3076454162137
 20
175.4444263064826
 10
3532.640978749547
 20
169.9682358302921
 10
3537.6672615358643
 20
169.9682358302921
 10
3539.3384178184087
 20
167.22276479468323
 10
3559.226376863057
 20
164.50000849690406
 10
3565.8781484906735
 20
175.42791902798893
 10
3574.211481824007
 20
178.16601426608415
 10
3575.888196399322
 20
180.92061678267314
 10
3582.5669543748186
 20
180.92061678267314
 10
3587.5669543748186
 20
186.39680725886353
 10
3594.2336210414855
 20
186.39680725886353
 10
3599.233621041485
 20
191.87299773505407
 10
3607.5548630659887
 20
191.87299773505407
 10
3613.347739965057
 20
201.38986692637982
 10
3615.0128510276195
 20
215.06756494028843
 10
3618.3356868151927
 20
225.9854539566002
 10
3614.221529732655
 20
232.7444263064826
 10
3610.888196399322
 20
232.7444263064826
 10
3607.5548630659887
 20
238.22061678267315
 10
3600.888196399322
 20
238.22061678267315
 10
3597.542708601402
 20
243.71677530782787
 10
3584.2161510919814
 20
249.19018285634
 10
3577.5634317701265
 20
257.3872834493398
 10
3569.3253594983935
 20
257.3872834493398
 10
3562.6586928317265
 20
249.17299773505408
 10
3557.667261535864
 20
249.17299773505408
 10
3554.333928202531
 20
243.69680725886354
 10
3550.9885035603675
 20
243.69680725886354
 10
3545.9885035603675
 20
238.22061678267315
 10
3509.321836893701
 20
238.22061678267315
 10
3504.287588139287
 20
232.70691576593404
 10
3497.5752564667355
 20
238.22061678267315
 10
3485.9144791856393
 20
238.22061678267315
 10
3477.5811458523062
 20
243.69680725886354
 10
3469.2215297326557
 20
243.69680725886354
 10
3467.549985777349
 20
246.4429151854386
 10
3449.2356165810347
 20
249.17817811735577
 10
3445.867802998576
 20
251.94459641723265
 10
3440.0076022547396
 20
261.57206906782096
 10
3443.3470850860085
 20
289.0035351818171
 10
3449.2144312867363
 20
301.39680725886353
 10
3450.888196399322
 20
301.39680725886353
 10
3458.34439563426
 20
313.64627743054683
 10
3458.34439563426
 20
319.07076552840306
 10
3435.0110623009264
 20
365.61838457602215
 10
3435.0110623009264
 20
371.14627743054683
 10
3440.888196399322
 20
380.8015691636254
 10
3454.2478125189728
 20
380.8015691636254
 10
3462.581145852306
 20
386.27775963981594
 10
3475.888196399322
 20
386.27775963981594
 10
3477.5482862936287
 20
389.00505018046294
 10
3490.8816196269627
 20
391.74314541855813
 10
3493.3485502763506
 20
395.7959600568387
 10
3495.015216943017
 20
406.74834100921976
 10
3498.346800181149
 20
412.22165632900754
 10
3500.0124799763507
 20
431.37697397382436
 10
3504.214757794724
 20
443.8037098081575
 10
3512.6773094445125
 20
441.02315712322707
 10
3514.333928202531
 20
438.3015691636254
 10
3520.9885035603675
 20
438.3015691636254
 10
3525.9885035603675
 20
432.825378687435
 10
3534.3135348017845
 20
432.825378687435
 10
3540.980201468451
 20
427.34918821124444
 10
3549.321836893701
 20
427.34918821124444
 10
3554.3271646745334
 20
421.86716254652333
 10
3574.226376863057
 20
419.1428656397611
 10
3575.888196399322
 20
421.87299773505407
 10
3595.888196399322
 20
421.87299773505407
 10
3597.5548630659887
 20
424.61109297314925
 10
3605.888196399322
 20
424.61109297314925
 10
3607.5548630659887
 20
427.34918821124444
 10
3627.5548630659887
 20
427.34918821124444
 10
3629.2129784991284
 20
430.0732349942591
 10
3639.212978499128
 20
432.8113302323544
 10
3645.8660427249074
 20
443.74136431756295
 10
3657.5327093915744
 20
454.69374526994386
 10
3665.888196399322
 20
468.420616782673
 10
3684.333928202531
 20
468.420616782673
 10
3686.8735743255024
 20
464.24834100921976
 10
3688.5414856214093
 20
453.2877810646907
 10
3691.877728967593
 20
445.0663242473085
 10
3691.877728967593
 20
439.590133771118
 10
3695.211062300926
 20
431.37584805683224
 10
3695.211062300926
 20
425.8996575806419
 10
3701.877728967593
 20
409.47108615207037
 10
3701.877728967593
 20
403.99025912401135
 10
3708.5443956342597
 20
382.0854972192495
 10
3708.5443956342597
 20
373.82828946813265
 10
3705.2110623009266
 20
368.3520989919422
 10
3705.2110623009266
 20
313.64627743054683
 10
3711.877728967593
 20
302.6938964781659
 10
3711.877728967593
 20
299.89971803956115
 10
3710.2089542363524
 20
297.1581595525225
 10
3708.5422875696854
 20
275.25339764776055
 10
3705.2281311010815
 20
269.80871202076827
 10
3706.877728967593
 20
267.0986583829278
 10
3706.877728967593
 20
261.55408153163086
 10
3675.231813774236
 20
228.71847027837268
 10
3689.350710793532
 20
200.06541456274084
 10
3696.0031268113266
 20
197.33317226971835
 10
3700.988503560368
 20
191.87299773505407
 10
3704.3218368937014
 20
191.87299773505407
 10
3709.333879890457
 20
186.38361731003573
 10
3717.6773094445125
 20
183.64220474227466
 10
3721.894797767748
 20
176.71347392553028
 10
3715.228131101081
 20
165.76109297314923
 10
3721.0005948691974
 20
156.27775963981594
 10
3724.333928202531
 20
156.27775963981594
 10
3727.667261535864
 20
150.8015691636254
 10
3732.655170227034
 20
150.8015691636254
 10
3742.655170227035
 20
139.84918821124447
 10
3747.6623119750525
 20
139.84918821124447
 10
3758.5443956342597
 20
124.72189609157746
 10
3758.5443956342597
 20
119.24151552578499
 10
3761.894797767748
 20
113.73728344933976
 10
3759.3339282025313
 20
109.5301405921969
 10
3754.3135348017845
 20
109.5301405921969
 10
3747.6468681351175
 20
104.05395011600638
 10
3739.321836893701
 20
104.05395011600638
 10
3734.321836893701
 20
98.57775963981597
 10
3725.980201468451
 20
98.57775963981597
 10
3719.3135348017845
 20
93.10156916362544
 10
3711.0005948691974
 20
93.10156916362544
 10
3705.203051157818
 20
83.57703306635888
 10
3700.2133393894146
 20
67.18226582732001
 10
3703.541485621409
 20
45.31159058850021
 10
3706.883711128466
 20
37.0753920175374
 10
3703.5363844911512
 20
26.07703306635889
 10
3694.333928202531
 20
10.958712020768369
 10
3676.000594869198
 20
10.958712020768369
 10
3670.9996010754294
 20
2.7427936452926183
 10
3623.414134793499
 20
4.1143045782303655
  0
LWPOLYLINE
  5
38
330
17
100
AcDbEntity
  8
Y
100
AcDbPolyline
 90
23
 70
1
 10
4186.711584071672
 20
329.94071483957043
 10
4175.011062300926
 20
360.1471639007838
 10
4175.011062300926
 20
362.9319917162611
 10
4180.888196399322
 20
372.5872834493397
 10
4184.2281607413615
 20
372.5872834493397
 10
4192.561494074695
 20
383.5396644017207
 10
4195.888196399322
 20
383.5396644017207
 10
4197.554863065989
 20
386.27775963981594
 10
4220.888196399322
 20
386.27775963981594
 10
4222.554863065988
 20
389.0158548779111
 10
4234.221529732655
 20
389.0158548779111
 10
4235.888196399322
 20
391.7539501160063
 10
4244.333928202531
 20
391.7539501160063
 10
4246.8811890137795
 20
387.5691644975252
 10
4243.542606907567
 20
360.14509719648635
 10
4240.211062300927
 20
349.19859348895386
 10
4240.211062300927
 20
343.709241849085
 10
4237.667261535864
 20
339.53014059219686
 10
4225.974312082881
 20
339.53014059219686
 10
4217.640978749547
 20
334.0539501160065
 10
4204.333928202531
 20
334.0539501160065
 10
4202.670143979047
 20
331.32059032028315
 10
4186.711584071672
 20
329.94071483957043
  0
LWPOLYLINE
  5
39
330
17
100
AcDbEntity
  8
Y
100
AcDbPolyline
 90
15
 70
1
 10
4913.343759038026
 20
171.12566336063227
 10
4914.179737260795
 20
318.0786923774287
 10
4916.000594869198
 20
315.0872834493398
 10
4921.000594869198
 20
315.0872834493398
 10
4928.534593193821
 20
302.71000048745833
 10
4936.880549005053
 20
280.77205949793426
 10
4935.215011627613
 20
269.8270995890464
 10
4950.201546298479
 20
242.47072677714843
 10
4956.88930845006
 20
225.9901700464696
 10
4943.541597810816
 20
204.06178828199862
 10
4941.87564626977
 20
187.6402659488402
 10
4937.6836704224
 20
177.99872149988693
 10
4927.675812769391
 20
175.2584747615632
 10
4926.004219109845
 20
172.51228517802198
 10
4913.343759038026
 20
171.12566336063227
  0
LWPOLYLINE
  5
3A
330
17
100
AcDbEntity
  8
Y
100
AcDbPolyline
 90
29
 70
1
 10
4913.34439563426
 20
1.3857330830768788
 10
4913.34439563426
 20
6.9723678877052775
 10
4921.662645222538
 20
26.104341940745734
 10
4913.34439563426
 20
37.03689854248316
 10
4913.34439563426
 20
61.741515525785
 10
4914.9939935007715
 20
64.45156916362549
 10
4913.34439563426
 20
67.16162280146587
 10
4913.34439563426
 20
105.57488965132423
 10
4919.246056390862
 20
109.73014059219688
 10
4924.221529732656
 20
109.73014059219688
 10
4925.888196399323
 20
112.46823583029209
 10
4940.888196399322
 20
112.46823583029209
 10
4942.611062300926
 20
115.29865838292785
 10
4944.333928202531
 20
112.46823583029209
 10
4947.65978475194
 20
112.46823583029209
 10
4955.225491686201
 20
102.80094363651315
 10
4941.867351179303
 20
69.88266881594119
 10
4936.889308450059
 20
61.70445576075523
 10
4940.211062300927
 20
53.51870519968938
 10
4940.211062300927
 20
45.312944097213645
 10
4941.877728967593
 20
42.57484885911833
 10
4941.877728967593
 20
28.88437266864219
 10
4943.54439563426
 20
26.14627743054698
 10
4943.54439563426
 20
12.442640076392287
 10
4945.219771119993
 20
6.937834908981144
 10
4942.667261535864
 20
2.744426306482639
 10
4927.667261535865
 20
2.744426306482639
 10
4925.996741175396
 20
0.0
 10
4913.34439563426
 20
1.3857330830768788
  0
ENDSEC
  0
SECTION
  2
OBJECTS
  0
DICTIONARY
  5
A
330
0
100
AcDbDictionary
281
1
  3
ACAD_COLOR
350
B
  3
ACAD_GROUP
350
C
  3
ACAD_LAYOUT
350
D
  3
ACAD_MATERIAL
350
E
  3
ACAD_MLEADERSTYLE
350
F
  3
ACAD_MLINESTYLE
350
10
  3
ACAD_PLOTSETTINGS
350
11
  3
ACAD_PLOTSTYLENAME
350
12
  3
ACAD_SCALELIST
350
14
  3
ACAD_TABLESTYLE
350
15
  3
ACAD_VISUALSTYLE
350
16
  3
EZDXF_META
350
2D
  0
DICTIONARY
  5
B
330
A
100
AcDbDictionary
281
1
  0
DICTIONARY
  5
C
330
A
100
AcDbDictionary
281
1
  0
DICTIONARY
  5
D
330
A
100
AcDbDictionary
281
1
  3
Model
350
1A
  3
Layout1
350
1E
  0
DICTIONARY
  5
E
330
A
100
AcDbDictionary
281
1
  3
ByBlock
350
1F
  3
ByLayer
350
20
  3
Global
350
21
  0
DICTIONARY
  5
F
330
A
100
AcDbDictionary
281
1
  3
Standard
350
2C
  0
DICTIONARY
  5
10
330
A
100
AcDbDictionary
281
1
  3
Standard
350
22
  0
DICTIONARY
  5
11
330
A
100
AcDbDictionary
281
1
  0
ACDBDICTIONARYWDFLT
  5
12
330
A
100
AcDbDictionary
281
1
  3
Normal
350
13
100
AcDbDictionaryWithDefault
340
13
  0
ACDBPLACEHOLDER
  5
13
330
12
  0
DICTIONARY
  5
14
330
A
100
AcDbDictionary
281
1
  0
DICTIONARY
  5
15
330
A
100
AcDbDictionary
281
1
  0
DICTIONARY
  5
16
330
A
100
AcDbDictionary
281
1
  0
LAYOUT
  5
1A
330
D
100
AcDbPlotSettings
  1

  4
A3
  6

 40
7.5
 41
20.0
 42
7.5
 43
20.0
 44
420.0
 45
297.0
 46
0.0
 47
0.0
 48
0.0
 49
0.0
140
0.0
141
0.0
142
1.0
143
1.0
 70
1024
 72
1
 73
0
 74
5
  7

 75
16
 76
0
 77
2
 78
300
147
1.0
148
0.0
149
0.0
100
AcDbLayout
  1
Model
 70
1
 71
0
 10
0.0
 20
0.0
 11
420.0
 21
297.0
 12
0.0
 22
0.0
 32
0.0
 14
1e+20
 24
1e+20
 34
1e+20
 15
-1e+20
 25
-1e+20
 35
-1e+20
146
0.0
 13
0.0
 23
0.0
 33
0.0
 16
1.0
 26
0.0
 36
0.0
 17
0.0
 27
1.0
 37
0.0
 76
1
330
17
  0
LAYOUT
  5
1E
330
D
100
AcDbPlotSettings
  1

  4
A3
  6

 40
7.5
 41
20.0
 42
7.5
 43
20.0
 44
420.0
 45
297.0
 46
0.0
 47
0.0
 48
0.0
 49
0.0
140
0.0
141
0.0
142
1.0
143
1.0
 70
0
 72
1
 73
0
 74
5
  7

 75
16
 76
0
 77
2
 78
300
147
1.0
148
0.0
149
0.0
100
AcDbLayout
  1
Layout1
 70
1
 71
1
 10
0.0
 20
0.0
 11
420.0
 21
297.0
 12
0.0
 22
0.0
 32
0.0
 14
1e+20
 24
1e+20
 34
1e+20
 15
-1e+20
 25
-1e+20
 35
-1e+20
146
0.0
 13
0.0
 23
0.0
 33
0.0
 16
1.0
 26
0.0
 36
0.0
 17
0.0
 27
1.0
 37
0.0
 76
1
330
1B
  0
MATERIAL
  5
1F
102
{ACAD_REACTORS
330
E
102
}
330
E
100
AcDbMaterial
  1
ByBlock
  2

 70
0
 40
1.0
 71
1
 41
1.0
 91
-1023410177
 42
1.0
 72
1
  3

 73
1
 74
1
 75
1
 44
0.5
 73
0
 45
1.0
 46
1.0
 77
1
  4

 78
1
 79
1
170
1
 48
1.0
171
1
  6

172
1
173
1
174
1
140
1.0
141
1.0
175
1
  7

176
1
177
1
178
1
143
1.0
179
1
  8

270
1
271
1
272
1
145
1.0
146
1.0
273
1
  9

274
1
275
1
276
1
 42
1.0
 72
1
  3

 73
1
 74
1
 75
1
 94
63
  0
MATERIAL
  5
20
102
{ACAD_REACTORS
330
E
102
}
330
E
100
AcDbMaterial
  1
ByLayer
  2

 70
0
 40
1.0
 71
1
 41
1.0
 91
-1023410177
 42
1.0
 72
1
  3

 73
1
 74
1
 75
1
 44
0.5
 73
0
 45
1.0
 46
1.0
 77
1
  4

 78
1
 79
1
170
1
 48
1.0
171
1
  6

172
1
173
1
174
1
140
1.0
141
1.0
175
1
  7

176
1
177
1
178
1
143
1.0
179
1
  8

270
1
271
1
272
1
145
1.0
146
1.0
273
1
  9

274
1
275
1
276
1
 42
1.0
 72
1
  3

 73
1
 74
1
 75
1
 94
63
  0
MATERIAL
  5
21
102
{ACAD_REACTORS
330
E
102
}
330
E
100
AcDbMaterial
  1
Global
  2

 70
0
 40
1.0
 71
1
 41
1.0
 91
-1023410177
 42
1.0
 72
1
  3

 73
1
 74
1
 75
1
 44
0.5
 73
0
 45
1.0
 46
1.0
 77
1
  4

 78
1
 79
1
170
1
 48
1.0
171
1
  6

172
1
173
1
174
1
140
1.0
141
1.0
175
1
  7

176
1
177
1
178
1
143
1.0
179
1
  8

270
1
271
1
272
1
145
1.0
146
1.0
273
1
  9

274
1
275
1
276
1
 42
1.0
 72
1
  3

 73
1
 74
1
 75
1
 94
63
  0
MLINESTYLE
  5
22
102
{ACAD_REACTORS
330
10
102
}
330
10
100
AcDbMlineStyle
  2
Standard
 70
0
  3

 62
256
 51
90.0
 52
90.0
 71
2
 49
0.5
 62
256
  6
BYLAYER
 49
-0.5
 62
256
  6
BYLAYER
  0
MLEADERSTYLE
  5
2C
102
{ACAD_REACTORS
330
F
102
}
330
F
100
AcDbMLeaderStyle
179
2
170
2
171
1
172
0
 90
2
 40
0.0
 41
0.0
173
1
 91
-1056964608
 92
-2
290
1
 42
2.0
291
1
 43
8.0
  3
Standard
 44
4.0
300

342
29
174
1
175
1
176
0
178
1
 93
-1056964608
 45
4.0
292
0
297
0
 46
4.0
 94
-1056964608
 47
1.0
 49
1.0
140
1.0
294
1
141
0.0
177
0
142
1.0
295
0
296
0
143
3.75
271
0
272
9
273
9
  0
DICTIONARY
  5
2D
330
A
100
AcDbDictionary
280
1
281
1
  3
CREATED_BY_EZDXF
350
2E
  3
WRITTEN_BY_EZDXF
350
3D
  0
DICTIONARYVAR
  5
2E
330
2D
100
DictionaryVariables
280
0
  1
1.4.4 @ 2026-07-21T08:39:18.163585+00:00
  0
DICTIONARYVAR
  5
3D
330
2D
100
DictionaryVariables
280
0
  1
1.4.4 @ 2026-07-21T08:39:18.187245+00:00
  0
ENDSEC
  0
EOF
