  0
SECTION
  2
HEADER
  9
$ACADVER
  1
AC1027
  9
$ACADMAINTVER
 70
105
  9
$DWGCODEPAGE
  3
ANSI_1252
  9
$LASTSAVEDBY
  1
ezdxf
  9
$REQUIREDVERSIONS
160
0
  9
$INSBASE
 10
0.0
 20
0.0
 30
0.0
  9
$EXTMIN
 10
1e+20
 20
1e+20
 30
1e+20
  9
$EXTMAX
 10
-1e+20
 20
-1e+20
 30
-1e+20
  9
$LIMMIN
 10
0.0
 20
0.0
  9
$LIMMAX
 10
420.0
 20
297.0
  9
$ORTHOMODE
 70
0
  9
$REGENMODE
 70
1
  9
$FILLMODE
 70
1
  9
$QTEXTMODE
 70
0
  9
$MIRRTEXT
 70
1
  9
$LTSCALE
 40
1.0
  9
$ATTMODE
 70
1
  9
$TEXTSIZE
 40
2.5
  9
$TRACEWID
 40
1.0
  9
$TEXTSTYLE
  7
Standard
  9
$CLAYER
  8
0
  9
$CELTYPE
  6
ByLayer
  9
$CECOLOR
 62
256
  9
$CELTSCALE
 40
1.0
  9
$DISPSILH
 70
0
  9
$DIMSCALE
 40
1.0
  9
$DIMASZ
 40
2.5
  9
$DIMEXO
 40
0.625
  9
$DIMDLI
 40
3.75
  9
$DIMRND
 40
0.0
  9
$DIMDLE
 40
0.0
  9
$DIMEXE
 40
1.25
  9
$DIMTP
 40
0.0
  9
$DIMTM
 40
0.0
  9
$DIMTXT
 40
2.5
  9
$DIMCEN
 40
2.5
  9
$DIMTSZ
 40
0.0
  9
$DIMTOL
 70
0
  9
$DIMLIM
 70
0
  9
$DIMTIH
 70
0
  9
$DIMTOH
 70
0
  9
$DIMSE1
 70
0
  9
$DIMSE2
 70
0
  9
$DIMTAD
 70
1
  9
$DIMZIN
 70
8
  9
$DIMBLK
  1

  9
$DIMASO
 70
1
  9
$DIMSHO
 70
1
  9
$DIMPOST
  1

  9
$DIMAPOST
  1

  9
$DIMALT
 70
0
  9
$DIMALTD
 70
3
  9
$DIMALTF
 40
0.03937007874
  9
$DIMLFAC
 40
1.0
  9
$DIMTOFL
 70
1
  9
$DIMTVP
 40
0.0
  9
$DIMTIX
 70
0
  9
$DIMSOXD
 70
0
  9
$DIMSAH
 70
0
  9
$DIMBLK1
  1

  9
$DIMBLK2
  1

  9
$DIMSTYLE
  2
ISO-25
  9
$DIMCLRD
 70
0
  9
$DIMCLRE
 70
0
  9
$DIMCLRT
 70
0
  9
$DIMTFAC
 40
1.0
  9
$DIMGAP
 40
0.625
  9
$DIMJUST
 70
0
  9
$DIMSD1
 70
0
  9
$DIMSD2
 70
0
  9
$DIMTOLJ
 70
0
  9
$DIMTZIN
 70
8
  9
$DIMALTZ
 70
0
  9
$DIMALTTZ
 70
0
  9
$DIMUPT
 70
0
  9
$DIMDEC
 70
2
  9
$DIMTDEC
 70
2
  9
$DIMALTU
 70
2
  9
$DIMALTTD
 70
3
  9
$DIMTXSTY
  7
Standard
  9
$DIMAUNIT
 70
0
  9
$DIMADEC
 70
0
  9
$DIMALTRND
 40
0.0
  9
$DIMAZIN
 70
0
  9
$DIMDSEP
 70
44
  9
$DIMATFIT
 70
3
  9
$DIMFRAC
 70
0
  9
$DIMLDRBLK
  1

  9
$DIMLUNIT
 70
2
  9
$DIMLWD
 70
-2
  9
$DIMLWE
 70
-2
  9
$DIMTMOVE
 70
0
  9
$DIMFXL
 40
1.0
  9
$DIMFXLON
 70
0
  9
$DIMJOGANG
 40
0.785398163397
  9
$DIMTFILL
 70
0
  9
$DIMTFILLCLR
 70
0
  9
$DIMARCSYM
 70
0
  9
$DIMLTYPE
  6

  9
$DIMLTEX1
  6

  9
$DIMLTEX2
  6

  9
$DIMTXTDIRECTION
 70
0
  9
$LUNITS
 70
2
  9
$LUPREC
 70
4
  9
$SKETCHINC
 40
1.0
  9
$FILLETRAD
 40
10.0
  9
$AUNITS
 70
0
  9
$AUPREC
 70
2
  9
$MENU
  1
.
  9
$ELEVATION
 40
0.0
  9
$PELEVATION
 40
0.0
  9
$THICKNESS
 40
0.0
  9
$LIMCHECK
 70
0
  9
$CHAMFERA
 40
0.0
  9
$CHAMFERB
 40
0.0
  9
$CHAMFERC
 40
0.0
  9
$CHAMFERD
 40
0.0
  9
$SKPOLY
 70
0
  9
$TDCREATE
 40
2461239.6197916665
  9
$TDUCREATE
 40
2458532.153996898
  9
$TDUPDATE
 40
2461239.6197916665
  9
$TDUUPDATE
 40
2458532.1544311
  9
$TDINDWG
 40
0.0
  9
$TDUSRTIMER
 40
0.0
  9
$USRTIMER
 70
1
  9
$ANGBASE
 50
0.0
  9
$ANGDIR
 70
0
  9
$PDMODE
 70
0
  9
$PDSIZE
 40
0.0
  9
$PLINEWID
 40
0.0
  9
$SPLFRAME
 70
0
  9
$SPLINETYPE
 70
6
  9
$SPLINESEGS
 70
8
  9
$HANDSEED
  5
3B
  9
$SURFTAB1
 70
6
  9
$SURFTAB2
 70
6
  9
$SURFTYPE
 70
6
  9
$SURFU
 70
6
  9
$SURFV
 70
6
  9
$UCSBASE
  2

  9
$UCSNAME
  2

  9
$UCSORG
 10
0.0
 20
0.0
 30
0.0
  9
$UCSXDIR
 10
1.0
 20
0.0
 30
0.0
  9
$UCSYDIR
 10
0.0
 20
1.0
 30
0.0
  9
$UCSORTHOREF
  2

  9
$UCSORTHOVIEW
 70
0
  9
$UCSORGTOP
 10
0.0
 20
0.0
 30
0.0
  9
$UCSORGBOTTOM
 10
0.0
 20
0.0
 30
0.0
  9
$UCSORGLEFT
 10
0.0
 20
0.0
 30
0.0
  9
$UCSORGRIGHT
 10
0.0
 20
0.0
 30
0.0
  9
$UCSORGFRONT
 10
0.0
 20
0.0
 30
0.0
  9
$UCSORGBACK
 10
0.0
 20
0.0
 30
0.0
  9
$PUCSBASE
  2

  9
$PUCSNAME
  2

  9
$PUCSORG
 10
0.0
 20
0.0
 30
0.0
  9
$PUCSXDIR
 10
1.0
 20
0.0
 30
0.0
  9
$PUCSYDIR
 10
0.0
 20
1.0
 30
0.0
  9
$PUCSORTHOREF
  2

  9
$PUCSORTHOVIEW
 70
0
  9
$PUCSORGTOP
 10
0.0
 20
0.0
 30
0.0
  9
$PUCSORGBOTTOM
 10
0.0
 20
0.0
 30
0.0
  9
$PUCSORGLEFT
 10
0.0
 20
0.0
 30
0.0
  9
$PUCSORGRIGHT
 10
0.0
 20
0.0
 30
0.0
  9
$PUCSORGFRONT
 10
0.0
 20
0.0
 30
0.0
  9
$PUCSORGBACK
 10
0.0
 20
0.0
 30
0.0
  9
$USERI1
 70
0
  9
$USERI2
 70
0
  9
$USERI3
 70
0
  9
$USERI4
 70
0
  9
$USERI5
 70
0
  9
$USERR1
 40
0.0
  9
$USERR2
 40
0.0
  9
$USERR3
 40
0.0
  9
$USERR4
 40
0.0
  9
$USERR5
 40
0.0
  9
$WORLDVIEW
 70
1
  9
$SHADEDGE
 70
3
  9
$SHADEDIF
 70
70
  9
$TILEMODE
 70
1
  9
$MAXACTVP
 70
64
  9
$PINSBASE
 10
0.0
 20
0.0
 30
0.0
  9
$PLIMCHECK
 70
0
  9
$PEXTMIN
 10
1e+20
 20
1e+20
 30
1e+20
  9
$PEXTMAX
 10
-1e+20
 20
-1e+20
 30
-1e+20
  9
$PLIMMIN
 10
0.0
 20
0.0
  9
$PLIMMAX
 10
420.0
 20
297.0
  9
$UNITMODE
 70
0
  9
$VISRETAIN
 70
1
  9
$PLINEGEN
 70
0
  9
$PSLTSCALE
 70
1
  9
$TREEDEPTH
 70
3020
  9
$CMLSTYLE
  2
Standard
  9
$CMLJUST
 70
0
  9
$CMLSCALE
 40
20.0
  9
$PROXYGRAPHICS
 70
1
  9
$MEASUREMENT
 70
1
  9
$CELWEIGHT
370
-1
  9
$ENDCAPS
280
0
  9
$JOINSTYLE
280
0
  9
$LWDISPLAY
290
0
  9
$INSUNITS
 70
4
  9
$HYPERLINKBASE
  1

  9
$STYLESHEET
  1

  9
$XEDIT
290
1
  9
$CEPSNTYPE
380
0
  9
$PSTYLEMODE
290
1
  9
$FINGERPRINTGUID
  2
{C0A92764-CF58-4AFB-87C9-914DC2503E8C}
  9
$VERSIONGUID
  2
{2667A092-A51F-4C19-8787-504B9C9A04CD}
  9
$EXTNAMES
290
1
  9
$PSVPSCALE
 40
0.0
  9
$OLESTARTUP
290
0
  9
$SORTENTS
280
127
  9
$INDEXCTL
280
0
  9
$HIDETEXT
280
1
  9
$XCLIPFRAME
280
1
  9
$HALOGAP
280
0
  9
$OBSCOLOR
 70
257
  9
$OBSLTYPE
280
0
  9
$INTERSECTIONDISPLAY
280
0
  9
$INTERSECTIONCOLOR
 70
257
  9
$DIMASSOC
280
2
  9
$PROJECTNAME
  1

  9
$CAMERADISPLAY
290
0
  9
$LENSLENGTH
 40
50.0
  9
$CAMERAHEIGHT
 40
0.0
  9
$STEPSPERSEC
 40
24.0
  9
$STEPSIZE
 40
100.0
  9
$3DDWFPREC
 40
2.0
  9
$PSOLWIDTH
 40
0.005
  9
$PSOLHEIGHT
 40
0.08
  9
$LOFTANG1
 40
1.570796326795
  9
$LOFTANG2
 40
1.570796326795
  9
$LOFTMAG1
 40
0.0
  9
$LOFTMAG2
 40
0.0
  9
$LOFTPARAM
 70
7
  9
$LOFTNORMALS
280
1
  9
$LATITUDE
 40
37.795
  9
$LONGITUDE
 40
-122.394
  9
$NORTHDIRECTION
 40
0.0
  9
$TIMEZONE
 70
-8000
  9
$LIGHTGLYPHDISPLAY
280
1
  9
$TILEMODELIGHTSYNCH
280
1
  9
$CMATERIAL
347
20
  9
$SOLIDHIST
280
0
  9
$SHOWHIST
280
1
  9
$DWFFRAME
280
2
  9
$DGNFRAME
280
2
  9
$REALWORLDSCALE
290
1
  9
$INTERFERECOLOR
 62
256
  9
$CSHADOW
280
0
  9
$SHADOWPLANELOCATION
 40
0.0
  0
ENDSEC
  0
SECTION
  2
CLASSES
  0
CLASS
  1
ACDBDICTIONARYWDFLT
  2
AcDbDictionaryWithDefault
  3
ObjectDBX Classes
 90
0
 91
0
280
0
281
0
  0
CLASS
  1
SUN
  2
AcDbSun
  3
SCENEOE
 90
1153
 91
0
280
0
281
0
  0
CLASS
  1
VISUALSTYLE
  2
AcDbVisualStyle
  3
ObjectDBX Classes
 90
4095
 91
0
280
0
281
0
  0
CLASS
  1
MATERIAL
  2
AcDbMaterial
  3
ObjectDBX Classes
 90
1153
 91
0
280
0
281
0
  0
CLASS
  1
SCALE
  2
AcDbScale
  3
ObjectDBX Classes
 90
1153
 91
0
280
0
281
0
  0
CLASS
  1
TABLESTYLE
  2
AcDbTableStyle
  3
ObjectDBX Classes
 90
4095
 91
0
280
0
281
0
  0
CLASS
  1
MLEADERSTYLE
  2
AcDbMLeaderStyle
  3
ACDB_MLEADERSTYLE_CLASS
 90
4095
 91
0
280
0
281
0
  0
CLASS
  1
DICTIONARYVAR
  2
AcDbDictionaryVar
  3
ObjectDBX Classes
 90
0
 91
0
280
0
281
0
  0
CLASS
  1
CELLSTYLEMAP
  2
AcDbCellStyleMap
  3
ObjectDBX Classes
 90
1152
 91
0
280
0
281
0
  0
CLASS
  1
MENTALRAYRENDERSETTINGS
  2
AcDbMentalRayRenderSettings
  3
SCENEOE
 90
1024
 91
0
280
0
281
0
  0
CLASS
  1
ACDBDETAILVIEWSTYLE
  2
AcDbDetailViewStyle
  3
ObjectDBX Classes
 90
1025
 91
0
280
0
281
0
  0
CLASS
  1
ACDBSECTIONVIEWSTYLE
  2
AcDbSectionViewStyle
  3
ObjectDBX Classes
 90
1025
 91
0
280
0
281
0
  0
CLASS
  1
RASTERVARIABLES
  2
AcDbRasterVariables
  3
ISM
 90
0
 91
0
280
0
281
0
  0
CLASS
  1
ACDBPLACEHOLDER
  2
AcDbPlaceHolder
  3
ObjectDBX Classes
 90
0
 91
0
280
0
281
0
  0
CLASS
  1
LAYOUT
  2
AcDbLayout
  3
ObjectDBX Classes
 90
0
 91
0
280
0
281
0
  0
ENDSEC
  0
SECTION
  2
TABLES
  0
TABLE
  2
VPORT
  5
8
330
0
100
AcDbSymbolTable
 70
1
  0
VPORT
  5
23
330
8
100
AcDbSymbolTableRecord
100
AcDbViewportTableRecord
  2
*Active
 70
0
 10
0.0
 20
0.0
 11
1.0
 21
1.0
 12
0.0
 22
0.0
 13
0.0
 23
0.0
 14
0.5
 24
0.5
 15
0.5
 25
0.5
 16
0.0
 26
0.0
 36
1.0
 17
0.0
 27
0.0
 37
0.0
 40
1000.0
 41
1.34
 42
50.0
 43
0.0
 44
0.0
 50
0.0
 51
0.0
 71
0
 72
1000
 73
1
 74
3
 75
0
 76
0
 77
0
 78
0
281
0
 65
0
146
0.0
  0
ENDTAB
  0
TABLE
  2
LTYPE
  5
2
330
0
100
AcDbSymbolTable
 70
3
  0
LTYPE
  5
24
330
2
100
AcDbSymbolTableRecord
100
AcDbLinetypeTableRecord
  2
ByBlock
 70
0
  3

 72
65
 73
0
 40
0.0
  0
LTYPE
  5
25
330
2
100
AcDbSymbolTableRecord
100
AcDbLinetypeTableRecord
  2
ByLayer
 70
0
  3

 72
65
 73
0
 40
0.0
  0
LTYPE
  5
26
330
2
100
AcDbSymbolTableRecord
100
AcDbLinetypeTableRecord
  2
Continuous
 70
0
  3

 72
65
 73
0
 40
0.0
  0
ENDTAB
  0
TABLE
  2
LAYER
  5
1
330
0
100
AcDbSymbolTable
 70
3
  0
LAYER
  5
27
330
1
100
AcDbSymbolTableRecord
100
AcDbLayerTableRecord
  2
0
 70
0
 62
7
  6
Continuous
370
-3
390
13
347
21
  0
LAYER
  5
28
330
1
100
AcDbSymbolTableRecord
100
AcDbLayerTableRecord
  2
Defpoints
 70
0
 62
7
  6
Continuous
290
0
370
-3
390
13
347
21
  0
LAYER
  5
2F
330
1
100
AcDbSymbolTableRecord
100
AcDbLayerTableRecord
  2
C
 70
0
 62
7
  6
Continuous
370
-3
390
13
347
21
  0
ENDTAB
  0
TABLE
  2
STYLE
  5
5
330
0
100
AcDbSymbolTable
 70
1
  0
STYLE
  5
29
330
5
100
AcDbSymbolTableRecord
100
AcDbTextStyleTableRecord
  2
Standard
 70
0
 40
0.0
 41
1.0
 50
0.0
 71
0
 42
2.5
  3
txt
  4

  0
ENDTAB
  0
TABLE
  2
VIEW
  5
7
330
0
100
AcDbSymbolTable
 70
0
  0
ENDTAB
  0
TABLE
  2
UCS
  5
6
330
0
100
AcDbSymbolTable
 70
0
  0
ENDTAB
  0
TABLE
  2
APPID
  5
3
330
0
100
AcDbSymbolTable
 70
3
  0
APPID
  5
2A
330
3
100
AcDbSymbolTableRecord
100
AcDbRegAppTableRecord
  2
ACAD
 70
0
  0
APPID
  5
38
330
3
100
AcDbSymbolTableRecord
100
AcDbRegAppTableRecord
  2
HATCHBACKGROUNDCOLOR
 70
0
  0
APPID
  5
39
330
3
100
AcDbSymbolTableRecord
100
AcDbRegAppTableRecord
  2
EZDXF
 70
0
  0
ENDTAB
  0
TABLE
  2
DIMSTYLE
  5
4
330
0
100
AcDbSymbolTable
 70
1
100
AcDbDimStyleTable
  0
DIMSTYLE
105
2B
330
4
100
AcDbSymbolTableRecord
100
AcDbDimStyleTableRecord
  2
Standard
 70
0
 40
1.0
 41
2.5
 42
0.625
 43
3.75
 44
1.25
 45
0.0
 46
0.0
 47
0.0
 48
0.0
 49
2.5
140
2.5
141
2.5
142
0.0
143
0.03937007874
144
1.0
145
0.0
146
1.0
147
0.625
148
0.0
 69
0
 70
0
 71
0
 72
0
 73
0
 74
0
 75
0
 76
0
 77
1
 78
8
 79
3
170
0
171
3
172
1
173
0
174
0
175
0
176
0
177
0
178
0
179
2
271
2
272
2
273
2
274
3
275
0
276
0
277
2
278
44
279
0
280
0
281
0
282
0
283
0
284
8
285
0
286
0
288
0
289
3
290
0
371
-2
372
-2
  0
ENDTAB
  0
TABLE
  2
BLOCK_RECORD
  5
9
330
0
100
AcDbSymbolTable
 70
2
  0
BLOCK_RECORD
  5
17
330
9
100
AcDbSymbolTableRecord
100
AcDbBlockTableRecord
  2
*Model_Space
340
1A
 70
0
280
1
281
0
  0
BLOCK_RECORD
  5
1B
330
9
100
AcDbSymbolTableRecord
100
AcDbBlockTableRecord
  2
*Paper_Space
340
1E
 70
0
280
1
281
0
  0
ENDTAB
  0
ENDSEC
  0
SECTION
  2
BLOCKS
  0
BLOCK
  5
18
330
17
100
AcDbEntity
  8
0
100
AcDbBlockBegin
  2
*Model_Space
 70
0
 10
0.0
 20
0.0
 30
0.0
  3
*Model_Space
  1

  0
ENDBLK
  5
19
330
17
100
AcDbEntity
  8
0
100
AcDbBlockEnd
  0
BLOCK
  5
1C
330
1B
100
AcDbEntity
  8
0
100
AcDbBlockBegin
  2
*Paper_Space
 70
0
 10
0.0
 20
0.0
 30
0.0
  3
*Paper_Space
  1

  0
ENDBLK
  5
1D
330
1B
100
AcDbEntity
  8
0
100
AcDbBlockEnd
  0
ENDSEC
  0
SECTION
  2
ENTITIES
  0
LWPOLYLINE
  5
30
330
17
100
AcDbEntity
  8
C
100
AcDbPolyline
 90
47
 70
1
 10
163.39099174035175
 20
9.590399785629671
 10
160.8820484339637
 20
13.712235217552937
 10
154.21538176729698
 20
16.45033045564817
 10
150.8942028985506
 20
21.90655288287435
 10
147.5608695652173
 20
21.90655288287435
 10
144.21538176729698
 20
27.402711408029106
 10
137.54871510063037
 20
30.14080664612434
 10
134.21538176729698
 20
35.616997122314835
 10
127.55394039889856
 20
38.35294625576413
 10
119.23416724059021
 20
49.287505263826695
 10
115.89420289855057
 20
49.287505263826695
 10
113.35040213348834
 20
53.46660652071472
 10
113.35040213348834
 20
64.41898747309571
 10
111.6861400137108
 20
67.15313238415882
 10
110.0194733470441
 20
86.31979905082545
 10
104.21748832323551
 20
95.8516315899395
 10
95.89250570900221
 20
98.58698302033034
 10
89.99403493963499
 20
105.50865790275124
 10
97.56086956521726
 20
117.93988621620757
 10
100.89420289855067
 20
117.93988621620757
 10
104.22753623188386
 20
123.4160766923981
 10
109.22753623188397
 20
123.4160766923981
 10
114.21223070044829
 20
131.60521760503954
 10
119.21703863047229
 20
134.34594575719552
 10
127.55037196380559
 20
145.29832670957646
 10
132.5455640337816
 20
148.03378903361101
 10
135.8942028985506
 20
153.53512431144568
 10
140.8942028985506
 20
153.53512431144568
 10
145.8942028985506
 20
161.74941002573144
 10
149.23416724059024
 20
161.74941002573144
 10
157.5840015423541
 20
172.72347796519253
 10
164.3453133424333
 20
169.94651061873137
 10
170.99803266428836
 20
161.74941002573144
 10
174.32990302054785
 20
161.74941002573144
 10
185.99656968721456
 20
148.0589338352553
 10
189.33993470175926
 20
148.0589338352553
 10
194.33993470175938
 20
139.84464812096957
 10
199.3313659976219
 20
139.84464812096957
 10
205.9980326642885
 20
131.63036240668382
 10
211.00660136842598
 20
131.63036240668382
 10
213.5504021334884
 20
127.45126114979603
 10
213.5504021334884
 20
124.65473732850566
 10
195.20841659674892
 20
97.26086282558325
 10
193.5499718348228
 20
91.81168717925384
 10
191.88300021182192
 20
34.301166185724654
 10
177.6732641290688
 20
8.210180185039356
 10
163.39099174035175
 20
9.590399785629671
  0
LWPOLYLINE
  5
31
330
17
100
AcDbEntity
  8
C
100
AcDbPolyline
 90
17
 70
1
 10
83.35040213348832
 20
182.13323239517555
 10
83.35040213348832
 20
198.64173734027193
 10
85.01706880015503
 20
201.37983257836726
 10
85.01706880015503
 20
234.23697543551006
 10
87.56086956521725
 20
238.4160766923981
 10
109.3399347017594
 20
238.4160766923981
 10
111.88373546682162
 20
234.23697543551006
 10
111.88373546682162
 20
228.76292125430788
 10
131.89501416953874
 20
198.6268884460493
 10
129.3536742247271
 20
191.66845764477904
 10
120.9803185821089
 20
191.66845764477904
 10
112.6469852487756
 20
186.19226716858864
 10
107.67326803509269
 20
186.19226716858864
 10
106.00660136842599
 20
183.45417193049332
 10
95.98620796767953
 20
183.45417193049332
 10
89.2883974190486
 20
177.9523989798322
 10
83.35040213348832
 20
182.13323239517555
  0
LWPOLYLINE
  5
32
330
17
100
AcDbEntity
  8
C
100
AcDbPolyline
 90
22
 70
1
 10
1.7239119912368928
 20
379.23393556393734
 10
0.0
 20
382.0660766923981
 10
1.6837354668216564
 20
384.83221353074805
 10
1.6837354668216564
 20
412.21316591170046
 10
3.3504021334882506
 20
414.95126114979564
 10
3.3504021334882506
 20
442.33221353074805
 10
5.895983641277858
 20
446.51424029354513
 10
59.35073847164729
 20
443.7699113625217
 10
63.54791085127975
 20
434.1164148893669
 10
66.88039113602484
 20
406.7424696932477
 10
71.88373546682159
 20
398.5226897212242
 10
71.88373546682159
 20
392.99041604452435
 10
69.33993470175936
 20
388.8113147876362
 10
64.33993470175936
 20
388.8113147876362
 10
62.67326803509277
 20
386.07321954954097
 10
52.67326803509276
 20
386.07321954954097
 10
51.006601368426054
 20
383.33512431144567
 10
27.673268035092626
 20
383.33512431144567
 10
26.00660136842603
 20
380.5970290733505
 10
16.006601368426022
 20
380.5970290733505
 10
14.336081007958356
 20
377.85260276686796
 10
1.7239119912368928
 20
379.23393556393734
  0
LWPOLYLINE
  5
33
330
17
100
AcDbEntity
  8
C
100
AcDbPolyline
 90
54
 70
1
 10
654.253819018201
 20
271.0732195495409
 10
645.914596299297
 20
271.0732195495409
 10
639.2393816307065
 20
276.55643159874046
 10
625.8876261261909
 20
279.2983099612748
 10
624.2275362318838
 20
282.02560050192193
 10
617.5608695652172
 20
282.02560050192193
 10
613.3504021334884
 20
288.94279699690526
 10
613.3504021334884
 20
299.8951779492862
 10
610.0170688001549
 20
305.37136842547676
 10
610.0170688001549
 20
313.58565413976237
 10
604.227536231884
 20
323.0970290733505
 10
599.227536231884
 20
323.0970290733505
 10
595.8942028985506
 20
328.573219549541
 10
592.5515041375115
 20
328.573219549541
 10
588.3380150947079
 20
338.26424434798963
 10
590.8942028985507
 20
342.4636957400171
 10
597.5812629659637
 20
342.4636957400171
 10
604.2479296326304
 20
347.93988621620764
 10
614.2479296326303
 20
347.93988621620764
 10
620.914596299297
 20
353.41607669239806
 10
630.914596299297
 20
353.41607669239806
 10
637.5812629659638
 20
358.89226716858855
 10
647.5812629659638
 20
358.89226716858855
 10
654.2479296326303
 20
364.36845764477897
 10
660.880463375583
 20
364.36845764477897
 10
663.344995273823
 20
371.1165806994841
 10
660.017068800155
 20
382.0511962558217
 10
660.017068800155
 20
387.5142255683338
 10
654.9999999999999
 20
395.75655288287425
 10
657.5608695652173
 20
399.9636957400171
 10
660.9062942073805
 20
399.9636957400171
 10
665.8974222474434
 20
405.43016930770517
 10
677.5640889141101
 20
408.16826454580035
 10
682.5729608740471
 20
413.65417193049336
 10
689.2396275407137
 20
413.65417193049336
 10
694.2396275407137
 20
419.1303624066838
 10
700.9220710173223
 20
419.1303624066838
 10
714.2746311335928
 20
427.3564931926004
 10
721.0091333105548
 20
424.5905369413482
 10
731.0307839860855
 20
413.61444334433827
 10
733.5511808599296
 20
409.4737913373091
 10
731.8829627576711
 20
349.17962278425296
 10
730.2170688001551
 20
346.44279699690526
 10
730.2170688001551
 20
340.95917478837634
 10
723.5592932068122
 20
332.7558441465791
 10
730.2240323216238
 20
305.3828084964608
 10
727.6732680350926
 20
301.1922671685886
 10
684.3399347017594
 20
301.1922671685886
 10
682.6732680350926
 20
298.45417193049326
 10
669.3399347017594
 20
298.45417193049326
 10
666.8837354668217
 20
294.4189874730957
 10
666.8837354668217
 20
272.5142255683337
 10
662.6486635540759
 20
265.556607425966
 10
654.253819018201
 20
271.0732195495409
  0
LWPOLYLINE
  5
34
330
17
100
AcDbEntity
  8
C
100
AcDbPolyline
 90
5
 70
1
 10
1299.9904821119594
 20
472.4075830191886
 10
1302.597319488157
 20
476.6902444229415
 10
1306.9103221550174
 20
472.43885607989324
 10
1304.3034847788197
 20
468.15619467614033
 10
1299.9904821119594
 20
472.4075830191886
  0
LWPOLYLINE
  5
35
330
17
100
AcDbEntity
  8
C
100
AcDbPolyline
 90
30
 70
1
 10
1233.3927034471378
 20
450.4209210292428
 10
1230.8942028985505
 20
454.52560050192193
 10
1222.5608695652172
 20
454.52560050192193
 10
1220.8942028985505
 20
457.2636957400171
 10
1217.572960874047
 20
457.2636957400171
 10
1207.572960874047
 20
468.2160766923981
 10
1204.227536231884
 20
468.2160766923981
 10
1200.0
 20
475.1613147876361
 10
1204.2071428311376
 20
482.0730494387909
 10
1210.914596299297
 20
487.5827433590647
 10
1217.6646993309553
 20
487.5827433590647
 10
1224.3313659976218
 20
479.36845764477897
 10
1227.6732680350926
 20
479.36845764477897
 10
1229.3399347017596
 20
476.6303624066838
 10
1259.227536231884
 20
476.6303624066838
 10
1260.8942028985505
 20
479.36845764477897
 10
1264.3399347017591
 20
479.36845764477897
 10
1265.9504021334885
 20
476.72268972122424
 10
1267.5915379215937
 20
479.41884137311155
 10
1270.9504021334883
 20
476.65977434191234
 10
1274.309266345383
 20
479.41884137311155
 10
1276.006601368426
 20
476.6303624066838
 10
1294.3399347017594
 20
476.6303624066838
 10
1298.5674709336433
 20
469.6851243114457
 10
1294.3399347017594
 20
462.73988621620765
 10
1289.3278433929295
 20
462.73988621620765
 10
1284.334854539037
 20
457.2713746143252
 10
1269.334854539037
 20
454.53327937623
 10
1264.3260384483767
 20
449.0474331816975
 10
1233.3927034471378
 20
450.4209210292428
  0
LWPOLYLINE
  5
36
330
17
100
AcDbEntity
  8
C
100
AcDbPolyline
 90
54
 70
1
 10
6065.8931319189705
 20
2.7416456826610536
 10
6064.227536231884
 20
5.477981454302921
 10
6045.894202898551
 20
5.477981454302921
 10
6043.34343861202
 20
9.66852278217517
 10
6050.0235789836015
 20
37.10481359402959
 10
6053.3549211548025
 20
42.577732875288596
 10
6058.3549211548025
 20
72.69678049433617
 10
6061.68614001371
 20
78.16949719111369
 10
6063.35208184025
 20
97.32782819631538
 10
6070.018748506917
 20
113.75639962488684
 10
6071.685018694467
 20
132.91850678171372
 10
6075.017068800154
 20
143.86667141468882
 10
6075.017068800154
 20
149.35602305455768
 10
6078.350402133488
 20
154.8322135307482
 10
6078.350402133488
 20
163.0464992450339
 10
6080.894202898551
 20
167.22560050192195
 10
6085.894202898551
 20
167.22560050192195
 10
6087.560869565218
 20
169.96369574001716
 10
6097.581262965964
 20
169.96369574001716
 10
6100.950402133489
 20
172.7312029133409
 10
6104.283735466823
 20
169.9931076752457
 10
6110.97593301205
 20
175.49026994454022
 10
6112.673268035092
 20
172.70179097811237
 10
6115.89420289855
 20
172.70179097811237
 10
6117.560869565217
 20
175.43988621620758
 10
6125.894202898551
 20
175.43988621620758
 10
6127.560869565217
 20
178.17798145430288
 10
6130.996569687214
 20
178.17798145430288
 10
6142.681243312834
 20
164.4663746487294
 10
6147.695126116104
 20
161.72067692312933
 10
6151.899185675001
 20
152.05133993766574
 10
6144.273439469487
 20
142.30733089728756
 10
6142.605368036248
 20
145.04773396618123
 10
6135.998032664289
 20
136.90655288287425
 10
6130.994510059596
 20
136.90655288287425
 10
6116.009133310555
 20
120.49399739582903
 10
6109.352089166347
 20
117.75985426517202
 10
6106.006601368426
 20
112.26369574001718
 10
6100.98620796768
 20
112.26369574001718
 10
6091.026994769173
 20
104.08291346981515
 10
6086.900804266977
 20
97.30417193049337
 10
6091.006601368426
 20
90.55893383525529
 10
6095.995634984234
 20
90.55893383525529
 10
6106.879991059193
 20
78.17947390384674
 10
6110.214270976711
 20
45.31300043116815
 10
6112.693661435839
 20
41.23971610545735
 10
6136.026994769173
 20
22.073049438790626
 10
6139.352089166347
 20
16.610394357719493
 10
6146.018755833013
 20
13.872299119624259
 10
6149.339934701759
 20
8.416076692398134
 10
6152.673268035092
 20
8.416076692398134
 10
6155.23413760031
 20
4.208933835255308
 10
6152.672177874502
 20
0.0
 10
6065.8931319189705
 20
2.7416456826610536
  0
LWPOLYLINE
  5
37
330
17
100
AcDbEntity
  8
C
100
AcDbPolyline
 90
30
 70
1
 10
6030.8841549899025
 20
435.37544111374893
 10
6029.227536231884
 20
438.0970290733505
 10
6019.227536231884
 20
438.0970290733505
 10
6017.556379949339
 20
440.8425001089593
 10
5997.55637994934
 20
443.5805953470546
 10
5992.543347707673
 20
451.8162911726501
 10
5984.210014374339
 20
457.2924816488405
 10
5975.017068800155
 20
472.3951779492862
 10
5975.017068800155
 20
477.9274516259862
 10
5979.283735466823
 20
484.93697543550996
 10
5981.006601368426
 20
482.10655288287427
 10
5992.673268035092
 20
482.10655288287427
 10
5994.339934701759
 20
479.36845764477897
 10
5997.673268035092
 20
479.36845764477897
 10
6000.9759330120505
 20
473.9426508969211
 10
6004.247929632631
 20
476.6303624066838
 10
6010.98620796768
 20
476.6303624066838
 10
6014.283735466822
 20
473.9216791038171
 10
6017.642599678717
 20
476.6807461350163
 10
6019.33993470176
 20
473.89226716858855
 10
6031.006601368426
 20
473.89226716858855
 10
6032.677141261932
 20
471.1478087721158
 10
6055.994034225261
 20
468.4116427611128
 10
6063.550402133488
 20
461.51495776550854
 10
6063.550402133488
 20
436.7999398540481
 10
6061.006601368426
 20
432.62083859716006
 10
6055.894202898551
 20
432.62083859716006
 10
6049.267659096302
 20
443.5073034151397
 10
6039.313970579134
 20
432.60564456300176
 10
6030.8841549899025
 20
435.37544111374893
  0
ENDSEC
  0
SECTION
  2
OBJECTS
  0
DICTIONARY
  5
A
330
0
100
AcDbDictionary
281
1
  3
ACAD_COLOR
350
B
  3
ACAD_GROUP
350
C
  3
ACAD_LAYOUT
350
D
  3
ACAD_MATERIAL
350
E
  3
ACAD_MLEADERSTYLE
350
F
  3
ACAD_MLINESTYLE
350
10
  3
ACAD_PLOTSETTINGS
350
11
  3
ACAD_PLOTSTYLENAME
350
12
  3
ACAD_SCALELIST
350
14
  3
ACAD_TABLESTYLE
350
15
  3
ACAD_VISUALSTYLE
350
16
  3
EZDXF_META
350
2D
  0
DICTIONARY
  5
B
330
A
100
AcDbDictionary
281
1
  0
DICTIONARY
  5
C
330
A
100
AcDbDictionary
281
1
  0
DICTIONARY
  5
D
330
A
100
AcDbDictionary
281
1
  3
Model
350
1A
  3
Layout1
350
1E
  0
DICTIONARY
  5
E
330
A
100
AcDbDictionary
281
1
  3
ByBlock
350
1F
  3
ByLayer
350
20
  3
Global
350
21
  0
DICTIONARY
  5
F
330
A
100
AcDbDictionary
281
1
  3
Standard
350
2C
  0
DICTIONARY
  5
10
330
A
100
AcDbDictionary
281
1
  3
Standard
350
22
  0
DICTIONARY
  5
11
330
A
100
AcDbDictionary
281
1
  0
ACDBDICTIONARYWDFLT
  5
12
330
A
100
AcDbDictionary
281
1
  3
Normal
350
13
100
AcDbDictionaryWithDefault
340
13
  0
ACDBPLACEHOLDER
  5
13
330
12
  0
DICTIONARY
  5
14
330
A
100
AcDbDictionary
281
1
  0
DICTIONARY
  5
15
330
A
100
AcDbDictionary
281
1
  0
DICTIONARY
  5
16
330
A
100
AcDbDictionary
281
1
  0
LAYOUT
  5
1A
330
D
100
AcDbPlotSettings
  1

  4
A3
  6

 40
7.5
 41
20.0
 42
7.5
 43
20.0
 44
420.0
 45
297.0
 46
0.0
 47
0.0
 48
0.0
 49
0.0
140
0.0
141
0.0
142
1.0
143
1.0
 70
1024
 72
1
 73
0
 74
5
  7

 75
16
 76
0
 77
2
 78
300
147
1.0
148
0.0
149
0.0
100
AcDbLayout
  1
Model
 70
1
 71
0
 10
0.0
 20
0.0
 11
420.0
 21
297.0
 12
0.0
 22
0.0
 32
0.0
 14
1e+20
 24
1e+20
 34
1e+20
 15
-1e+20
 25
-1e+20
 35
-1e+20
146
0.0
 13
0.0
 23
0.0
 33
0.0
 16
1.0
 26
0.0
 36
0.0
 17
0.0
 27
1.0
 37
0.0
 76
1
330
17
  0
LAYOUT
  5
1E
330
D
100
AcDbPlotSettings
  1

  4
A3
  6

 40
7.5
 41
20.0
 42
7.5
 43
20.0
 44
420.0
 45
297.0
 46
0.0
 47
0.0
 48
0.0
 49
0.0
140
0.0
141
0.0
142
1.0
143
1.0
 70
0
 72
1
 73
0
 74
5
  7

 75
16
 76
0
 77
2
 78
300
147
1.0
148
0.0
149
0.0
100
AcDbLayout
  1
Layout1
 70
1
 71
1
 10
0.0
 20
0.0
 11
420.0
 21
297.0
 12
0.0
 22
0.0
 32
0.0
 14
1e+20
 24
1e+20
 34
1e+20
 15
-1e+20
 25
-1e+20
 35
-1e+20
146
0.0
 13
0.0
 23
0.0
 33
0.0
 16
1.0
 26
0.0
 36
0.0
 17
0.0
 27
1.0
 37
0.0
 76
1
330
1B
  0
MATERIAL
  5
1F
102
{ACAD_REACTORS
330
E
102
}
330
E
100
AcDbMaterial
  1
ByBlock
  2

 70
0
 40
1.0
 71
1
 41
1.0
 91
-1023410177
 42
1.0
 72
1
  3

 73
1
 74
1
 75
1
 44
0.5
 73
0
 45
1.0
 46
1.0
 77
1
  4

 78
1
 79
1
170
1
 48
1.0
171
1
  6

172
1
173
1
174
1
140
1.0
141
1.0
175
1
  7

176
1
177
1
178
1
143
1.0
179
1
  8

270
1
271
1
272
1
145
1.0
146
1.0
273
1
  9

274
1
275
1
276
1
 42
1.0
 72
1
  3

 73
1
 74
1
 75
1
 94
63
  0
MATERIAL
  5
20
102
{ACAD_REACTORS
330
E
102
}
330
E
100
AcDbMaterial
  1
ByLayer
  2

 70
0
 40
1.0
 71
1
 41
1.0
 91
-1023410177
 42
1.0
 72
1
  3

 73
1
 74
1
 75
1
 44
0.5
 73
0
 45
1.0
 46
1.0
 77
1
  4

 78
1
 79
1
170
1
 48
1.0
171
1
  6

172
1
173
1
174
1
140
1.0
141
1.0
175
1
  7

176
1
177
1
178
1
143
1.0
179
1
  8

270
1
271
1
272
1
145
1.0
146
1.0
273
1
  9

274
1
275
1
276
1
 42
1.0
 72
1
  3

 73
1
 74
1
 75
1
 94
63
  0
MATERIAL
  5
21
102
{ACAD_REACTORS
330
E
102
}
330
E
100
AcDbMaterial
  1
Global
  2

 70
0
 40
1.0
 71
1
 41
1.0
 91
-1023410177
 42
1.0
 72
1
  3

 73
1
 74
1
 75
1
 44
0.5
 73
0
 45
1.0
 46
1.0
 77
1
  4

 78
1
 79
1
170
1
 48
1.0
171
1
  6

172
1
173
1
174
1
140
1.0
141
1.0
175
1
  7

176
1
177
1
178
1
143
1.0
179
1
  8

270
1
271
1
272
1
145
1.0
146
1.0
273
1
  9

274
1
275
1
276
1
 42
1.0
 72
1
  3

 73
1
 74
1
 75
1
 94
63
  0
MLINESTYLE
  5
22
102
{ACAD_REACTORS
330
10
102
}
330
10
100
AcDbMlineStyle
  2
Standard
 70
0
  3

 62
256
 51
90.0
 52
90.0
 71
2
 49
0.5
 62
256
  6
BYLAYER
 49
-0.5
 62
256
  6
BYLAYER
  0
MLEADERSTYLE
  5
2C
102
{ACAD_REACTORS
330
F
102
}
330
F
100
AcDbMLeaderStyle
179
2
170
2
171
1
172
0
 90
2
 40
0.0
 41
0.0
173
1
 91
-1056964608
 92
-2
290
1
 42
2.0
291
1
 43
8.0
  3
Standard
 44
4.0
300

342
29
174
1
175
1
176
0
178
1
 93
-1056964608
 45
4.0
292
0
297
0
 46
4.0
 94
-1056964608
 47
1.0
 49
1.0
140
1.0
294
1
141
0.0
177
0
142
1.0
295
0
296
0
143
3.75
271
0
272
9
273
9
  0
DICTIONARY
  5
2D
330
A
100
AcDbDictionary
280
1
281
1
  3
CREATED_BY_EZDXF
350
2E
  3
WRITTEN_BY_EZDXF
350
3A
  0
DICTIONARYVAR
  5
2E
330
2D
100
DictionaryVariables
280
0
  1
1.4.4 @ 2026-07-17T11:52:30.192616+00:00
  0
DICTIONARYVAR
  5
3A
330
2D
100
DictionaryVariables
280
0
  1
1.4.4 @ 2026-07-17T11:52:30.194477+00:00
  0
ENDSEC
  0
EOF
