  0
SECTION
  2
HEADER
  9
$ACADVER
  1
AC1027
  9
$ACADMAINTVER
 70
105
  9
$DWGCODEPAGE
  3
ANSI_1252
  9
$LASTSAVEDBY
  1
ezdxf
  9
$REQUIREDVERSIONS
160
0
  9
$INSBASE
 10
0.0
 20
0.0
 30
0.0
  9
$EXTMIN
 10
1e+20
 20
1e+20
 30
1e+20
  9
$EXTMAX
 10
-1e+20
 20
-1e+20
 30
-1e+20
  9
$LIMMIN
 10
0.0
 20
0.0
  9
$LIMMAX
 10
420.0
 20
297.0
  9
$ORTHOMODE
 70
0
  9
$REGENMODE
 70
1
  9
$FILLMODE
 70
1
  9
$QTEXTMODE
 70
0
  9
$MIRRTEXT
 70
1
  9
$LTSCALE
 40
1.0
  9
$ATTMODE
 70
1
  9
$TEXTSIZE
 40
2.5
  9
$TRACEWID
 40
1.0
  9
$TEXTSTYLE
  7
Standard
  9
$CLAYER
  8
0
  9
$CELTYPE
  6
ByLayer
  9
$CECOLOR
 62
256
  9
$CELTSCALE
 40
1.0
  9
$DISPSILH
 70
0
  9
$DIMSCALE
 40
1.0
  9
$DIMASZ
 40
2.5
  9
$DIMEXO
 40
0.625
  9
$DIMDLI
 40
3.75
  9
$DIMRND
 40
0.0
  9
$DIMDLE
 40
0.0
  9
$DIMEXE
 40
1.25
  9
$DIMTP
 40
0.0
  9
$DIMTM
 40
0.0
  9
$DIMTXT
 40
2.5
  9
$DIMCEN
 40
2.5
  9
$DIMTSZ
 40
0.0
  9
$DIMTOL
 70
0
  9
$DIMLIM
 70
0
  9
$DIMTIH
 70
0
  9
$DIMTOH
 70
0
  9
$DIMSE1
 70
0
  9
$DIMSE2
 70
0
  9
$DIMTAD
 70
1
  9
$DIMZIN
 70
8
  9
$DIMBLK
  1

  9
$DIMASO
 70
1
  9
$DIMSHO
 70
1
  9
$DIMPOST
  1

  9
$DIMAPOST
  1

  9
$DIMALT
 70
0
  9
$DIMALTD
 70
3
  9
$DIMALTF
 40
0.03937007874
  9
$DIMLFAC
 40
1.0
  9
$DIMTOFL
 70
1
  9
$DIMTVP
 40
0.0
  9
$DIMTIX
 70
0
  9
$DIMSOXD
 70
0
  9
$DIMSAH
 70
0
  9
$DIMBLK1
  1

  9
$DIMBLK2
  1

  9
$DIMSTYLE
  2
ISO-25
  9
$DIMCLRD
 70
0
  9
$DIMCLRE
 70
0
  9
$DIMCLRT
 70
0
  9
$DIMTFAC
 40
1.0
  9
$DIMGAP
 40
0.625
  9
$DIMJUST
 70
0
  9
$DIMSD1
 70
0
  9
$DIMSD2
 70
0
  9
$DIMTOLJ
 70
0
  9
$DIMTZIN
 70
8
  9
$DIMALTZ
 70
0
  9
$DIMALTTZ
 70
0
  9
$DIMUPT
 70
0
  9
$DIMDEC
 70
2
  9
$DIMTDEC
 70
2
  9
$DIMALTU
 70
2
  9
$DIMALTTD
 70
3
  9
$DIMTXSTY
  7
Standard
  9
$DIMAUNIT
 70
0
  9
$DIMADEC
 70
0
  9
$DIMALTRND
 40
0.0
  9
$DIMAZIN
 70
0
  9
$DIMDSEP
 70
44
  9
$DIMATFIT
 70
3
  9
$DIMFRAC
 70
0
  9
$DIMLDRBLK
  1

  9
$DIMLUNIT
 70
2
  9
$DIMLWD
 70
-2
  9
$DIMLWE
 70
-2
  9
$DIMTMOVE
 70
0
  9
$DIMFXL
 40
1.0
  9
$DIMFXLON
 70
0
  9
$DIMJOGANG
 40
0.785398163397
  9
$DIMTFILL
 70
0
  9
$DIMTFILLCLR
 70
0
  9
$DIMARCSYM
 70
0
  9
$DIMLTYPE
  6

  9
$DIMLTEX1
  6

  9
$DIMLTEX2
  6

  9
$DIMTXTDIRECTION
 70
0
  9
$LUNITS
 70
2
  9
$LUPREC
 70
4
  9
$SKETCHINC
 40
1.0
  9
$FILLETRAD
 40
10.0
  9
$AUNITS
 70
0
  9
$AUPREC
 70
2
  9
$MENU
  1
.
  9
$ELEVATION
 40
0.0
  9
$PELEVATION
 40
0.0
  9
$THICKNESS
 40
0.0
  9
$LIMCHECK
 70
0
  9
$CHAMFERA
 40
0.0
  9
$CHAMFERB
 40
0.0
  9
$CHAMFERC
 40
0.0
  9
$CHAMFERD
 40
0.0
  9
$SKPOLY
 70
0
  9
$TDCREATE
 40
2461239.6197916665
  9
$TDUCREATE
 40
2458532.153996898
  9
$TDUPDATE
 40
2461239.6197916665
  9
$TDUUPDATE
 40
2458532.1544311
  9
$TDINDWG
 40
0.0
  9
$TDUSRTIMER
 40
0.0
  9
$USRTIMER
 70
1
  9
$ANGBASE
 50
0.0
  9
$ANGDIR
 70
0
  9
$PDMODE
 70
0
  9
$PDSIZE
 40
0.0
  9
$PLINEWID
 40
0.0
  9
$SPLFRAME
 70
0
  9
$SPLINETYPE
 70
6
  9
$SPLINESEGS
 70
8
  9
$HANDSEED
  5
58
  9
$SURFTAB1
 70
6
  9
$SURFTAB2
 70
6
  9
$SURFTYPE
 70
6
  9
$SURFU
 70
6
  9
$SURFV
 70
6
  9
$UCSBASE
  2

  9
$UCSNAME
  2

  9
$UCSORG
 10
0.0
 20
0.0
 30
0.0
  9
$UCSXDIR
 10
1.0
 20
0.0
 30
0.0
  9
$UCSYDIR
 10
0.0
 20
1.0
 30
0.0
  9
$UCSORTHOREF
  2

  9
$UCSORTHOVIEW
 70
0
  9
$UCSORGTOP
 10
0.0
 20
0.0
 30
0.0
  9
$UCSORGBOTTOM
 10
0.0
 20
0.0
 30
0.0
  9
$UCSORGLEFT
 10
0.0
 20
0.0
 30
0.0
  9
$UCSORGRIGHT
 10
0.0
 20
0.0
 30
0.0
  9
$UCSORGFRONT
 10
0.0
 20
0.0
 30
0.0
  9
$UCSORGBACK
 10
0.0
 20
0.0
 30
0.0
  9
$PUCSBASE
  2

  9
$PUCSNAME
  2

  9
$PUCSORG
 10
0.0
 20
0.0
 30
0.0
  9
$PUCSXDIR
 10
1.0
 20
0.0
 30
0.0
  9
$PUCSYDIR
 10
0.0
 20
1.0
 30
0.0
  9
$PUCSORTHOREF
  2

  9
$PUCSORTHOVIEW
 70
0
  9
$PUCSORGTOP
 10
0.0
 20
0.0
 30
0.0
  9
$PUCSORGBOTTOM
 10
0.0
 20
0.0
 30
0.0
  9
$PUCSORGLEFT
 10
0.0
 20
0.0
 30
0.0
  9
$PUCSORGRIGHT
 10
0.0
 20
0.0
 30
0.0
  9
$PUCSORGFRONT
 10
0.0
 20
0.0
 30
0.0
  9
$PUCSORGBACK
 10
0.0
 20
0.0
 30
0.0
  9
$USERI1
 70
0
  9
$USERI2
 70
0
  9
$USERI3
 70
0
  9
$USERI4
 70
0
  9
$USERI5
 70
0
  9
$USERR1
 40
0.0
  9
$USERR2
 40
0.0
  9
$USERR3
 40
0.0
  9
$USERR4
 40
0.0
  9
$USERR5
 40
0.0
  9
$WORLDVIEW
 70
1
  9
$SHADEDGE
 70
3
  9
$SHADEDIF
 70
70
  9
$TILEMODE
 70
1
  9
$MAXACTVP
 70
64
  9
$PINSBASE
 10
0.0
 20
0.0
 30
0.0
  9
$PLIMCHECK
 70
0
  9
$PEXTMIN
 10
1e+20
 20
1e+20
 30
1e+20
  9
$PEXTMAX
 10
-1e+20
 20
-1e+20
 30
-1e+20
  9
$PLIMMIN
 10
0.0
 20
0.0
  9
$PLIMMAX
 10
420.0
 20
297.0
  9
$UNITMODE
 70
0
  9
$VISRETAIN
 70
1
  9
$PLINEGEN
 70
0
  9
$PSLTSCALE
 70
1
  9
$TREEDEPTH
 70
3020
  9
$CMLSTYLE
  2
Standard
  9
$CMLJUST
 70
0
  9
$CMLSCALE
 40
20.0
  9
$PROXYGRAPHICS
 70
1
  9
$MEASUREMENT
 70
1
  9
$CELWEIGHT
370
-1
  9
$ENDCAPS
280
0
  9
$JOINSTYLE
280
0
  9
$LWDISPLAY
290
0
  9
$INSUNITS
 70
4
  9
$HYPERLINKBASE
  1

  9
$STYLESHEET
  1

  9
$XEDIT
290
1
  9
$CEPSNTYPE
380
0
  9
$PSTYLEMODE
290
1
  9
$FINGERPRINTGUID
  2
{94B977E4-C132-44C2-8C15-784B21E3D713}
  9
$VERSIONGUID
  2
{D954A8EB-FBFE-4D6B-B7F7-35A562434435}
  9
$EXTNAMES
290
1
  9
$PSVPSCALE
 40
0.0
  9
$OLESTARTUP
290
0
  9
$SORTENTS
280
127
  9
$INDEXCTL
280
0
  9
$HIDETEXT
280
1
  9
$XCLIPFRAME
280
1
  9
$HALOGAP
280
0
  9
$OBSCOLOR
 70
257
  9
$OBSLTYPE
280
0
  9
$INTERSECTIONDISPLAY
280
0
  9
$INTERSECTIONCOLOR
 70
257
  9
$DIMASSOC
280
2
  9
$PROJECTNAME
  1

  9
$CAMERADISPLAY
290
0
  9
$LENSLENGTH
 40
50.0
  9
$CAMERAHEIGHT
 40
0.0
  9
$STEPSPERSEC
 40
24.0
  9
$STEPSIZE
 40
100.0
  9
$3DDWFPREC
 40
2.0
  9
$PSOLWIDTH
 40
0.005
  9
$PSOLHEIGHT
 40
0.08
  9
$LOFTANG1
 40
1.570796326795
  9
$LOFTANG2
 40
1.570796326795
  9
$LOFTMAG1
 40
0.0
  9
$LOFTMAG2
 40
0.0
  9
$LOFTPARAM
 70
7
  9
$LOFTNORMALS
280
1
  9
$LATITUDE
 40
37.795
  9
$LONGITUDE
 40
-122.394
  9
$NORTHDIRECTION
 40
0.0
  9
$TIMEZONE
 70
-8000
  9
$LIGHTGLYPHDISPLAY
280
1
  9
$TILEMODELIGHTSYNCH
280
1
  9
$CMATERIAL
347
20
  9
$SOLIDHIST
280
0
  9
$SHOWHIST
280
1
  9
$DWFFRAME
280
2
  9
$DGNFRAME
280
2
  9
$REALWORLDSCALE
290
1
  9
$INTERFERECOLOR
 62
256
  9
$CSHADOW
280
0
  9
$SHADOWPLANELOCATION
 40
0.0
  0
ENDSEC
  0
SECTION
  2
CLASSES
  0
CLASS
  1
ACDBDICTIONARYWDFLT
  2
AcDbDictionaryWithDefault
  3
ObjectDBX Classes
 90
0
 91
0
280
0
281
0
  0
CLASS
  1
SUN
  2
AcDbSun
  3
SCENEOE
 90
1153
 91
0
280
0
281
0
  0
CLASS
  1
VISUALSTYLE
  2
AcDbVisualStyle
  3
ObjectDBX Classes
 90
4095
 91
0
280
0
281
0
  0
CLASS
  1
MATERIAL
  2
AcDbMaterial
  3
ObjectDBX Classes
 90
1153
 91
0
280
0
281
0
  0
CLASS
  1
SCALE
  2
AcDbScale
  3
ObjectDBX Classes
 90
1153
 91
0
280
0
281
0
  0
CLASS
  1
TABLESTYLE
  2
AcDbTableStyle
  3
ObjectDBX Classes
 90
4095
 91
0
280
0
281
0
  0
CLASS
  1
MLEADERSTYLE
  2
AcDbMLeaderStyle
  3
ACDB_MLEADERSTYLE_CLASS
 90
4095
 91
0
280
0
281
0
  0
CLASS
  1
DICTIONARYVAR
  2
AcDbDictionaryVar
  3
ObjectDBX Classes
 90
0
 91
0
280
0
281
0
  0
CLASS
  1
CELLSTYLEMAP
  2
AcDbCellStyleMap
  3
ObjectDBX Classes
 90
1152
 91
0
280
0
281
0
  0
CLASS
  1
MENTALRAYRENDERSETTINGS
  2
AcDbMentalRayRenderSettings
  3
SCENEOE
 90
1024
 91
0
280
0
281
0
  0
CLASS
  1
ACDBDETAILVIEWSTYLE
  2
AcDbDetailViewStyle
  3
ObjectDBX Classes
 90
1025
 91
0
280
0
281
0
  0
CLASS
  1
ACDBSECTIONVIEWSTYLE
  2
AcDbSectionViewStyle
  3
ObjectDBX Classes
 90
1025
 91
0
280
0
281
0
  0
CLASS
  1
RASTERVARIABLES
  2
AcDbRasterVariables
  3
ISM
 90
0
 91
0
280
0
281
0
  0
CLASS
  1
ACDBPLACEHOLDER
  2
AcDbPlaceHolder
  3
ObjectDBX Classes
 90
0
 91
0
280
0
281
0
  0
CLASS
  1
LAYOUT
  2
AcDbLayout
  3
ObjectDBX Classes
 90
0
 91
0
280
0
281
0
  0
ENDSEC
  0
SECTION
  2
TABLES
  0
TABLE
  2
VPORT
  5
8
330
0
100
AcDbSymbolTable
 70
1
  0
VPORT
  5
23
330
8
100
AcDbSymbolTableRecord
100
AcDbViewportTableRecord
  2
*Active
 70
0
 10
0.0
 20
0.0
 11
1.0
 21
1.0
 12
0.0
 22
0.0
 13
0.0
 23
0.0
 14
0.5
 24
0.5
 15
0.5
 25
0.5
 16
0.0
 26
0.0
 36
1.0
 17
0.0
 27
0.0
 37
0.0
 40
1000.0
 41
1.34
 42
50.0
 43
0.0
 44
0.0
 50
0.0
 51
0.0
 71
0
 72
1000
 73
1
 74
3
 75
0
 76
0
 77
0
 78
0
281
0
 65
0
146
0.0
  0
ENDTAB
  0
TABLE
  2
LTYPE
  5
2
330
0
100
AcDbSymbolTable
 70
3
  0
LTYPE
  5
24
330
2
100
AcDbSymbolTableRecord
100
AcDbLinetypeTableRecord
  2
ByBlock
 70
0
  3

 72
65
 73
0
 40
0.0
  0
LTYPE
  5
25
330
2
100
AcDbSymbolTableRecord
100
AcDbLinetypeTableRecord
  2
ByLayer
 70
0
  3

 72
65
 73
0
 40
0.0
  0
LTYPE
  5
26
330
2
100
AcDbSymbolTableRecord
100
AcDbLinetypeTableRecord
  2
Continuous
 70
0
  3

 72
65
 73
0
 40
0.0
  0
ENDTAB
  0
TABLE
  2
LAYER
  5
1
330
0
100
AcDbSymbolTable
 70
3
  0
LAYER
  5
27
330
1
100
AcDbSymbolTableRecord
100
AcDbLayerTableRecord
  2
0
 70
0
 62
7
  6
Continuous
370
-3
390
13
347
21
  0
LAYER
  5
28
330
1
100
AcDbSymbolTableRecord
100
AcDbLayerTableRecord
  2
Defpoints
 70
0
 62
7
  6
Continuous
290
0
370
-3
390
13
347
21
  0
LAYER
  5
2F
330
1
100
AcDbSymbolTableRecord
100
AcDbLayerTableRecord
  2
M
 70
0
 62
7
  6
Continuous
370
-3
390
13
347
21
  0
ENDTAB
  0
TABLE
  2
STYLE
  5
5
330
0
100
AcDbSymbolTable
 70
1
  0
STYLE
  5
29
330
5
100
AcDbSymbolTableRecord
100
AcDbTextStyleTableRecord
  2
Standard
 70
0
 40
0.0
 41
1.0
 50
0.0
 71
0
 42
2.5
  3
txt
  4

  0
ENDTAB
  0
TABLE
  2
VIEW
  5
7
330
0
100
AcDbSymbolTable
 70
0
  0
ENDTAB
  0
TABLE
  2
UCS
  5
6
330
0
100
AcDbSymbolTable
 70
0
  0
ENDTAB
  0
TABLE
  2
APPID
  5
3
330
0
100
AcDbSymbolTable
 70
3
  0
APPID
  5
2A
330
3
100
AcDbSymbolTableRecord
100
AcDbRegAppTableRecord
  2
ACAD
 70
0
  0
APPID
  5
55
330
3
100
AcDbSymbolTableRecord
100
AcDbRegAppTableRecord
  2
HATCHBACKGROUNDCOLOR
 70
0
  0
APPID
  5
56
330
3
100
AcDbSymbolTableRecord
100
AcDbRegAppTableRecord
  2
EZDXF
 70
0
  0
ENDTAB
  0
TABLE
  2
DIMSTYLE
  5
4
330
0
100
AcDbSymbolTable
 70
1
100
AcDbDimStyleTable
  0
DIMSTYLE
105
2B
330
4
100
AcDbSymbolTableRecord
100
AcDbDimStyleTableRecord
  2
Standard
 70
0
 40
1.0
 41
2.5
 42
0.625
 43
3.75
 44
1.25
 45
0.0
 46
0.0
 47
0.0
 48
0.0
 49
2.5
140
2.5
141
2.5
142
0.0
143
0.03937007874
144
1.0
145
0.0
146
1.0
147
0.625
148
0.0
 69
0
 70
0
 71
0
 72
0
 73
0
 74
0
 75
0
 76
0
 77
1
 78
8
 79
3
170
0
171
3
172
1
173
0
174
0
175
0
176
0
177
0
178
0
179
2
271
2
272
2
273
2
274
3
275
0
276
0
277
2
278
44
279
0
280
0
281
0
282
0
283
0
284
8
285
0
286
0
288
0
289
3
290
0
371
-2
372
-2
  0
ENDTAB
  0
TABLE
  2
BLOCK_RECORD
  5
9
330
0
100
AcDbSymbolTable
 70
2
  0
BLOCK_RECORD
  5
17
330
9
100
AcDbSymbolTableRecord
100
AcDbBlockTableRecord
  2
*Model_Space
340
1A
 70
0
280
1
281
0
  0
BLOCK_RECORD
  5
1B
330
9
100
AcDbSymbolTableRecord
100
AcDbBlockTableRecord
  2
*Paper_Space
340
1E
 70
0
280
1
281
0
  0
ENDTAB
  0
ENDSEC
  0
SECTION
  2
BLOCKS
  0
BLOCK
  5
18
330
17
100
AcDbEntity
  8
0
100
AcDbBlockBegin
  2
*Model_Space
 70
0
 10
0.0
 20
0.0
 30
0.0
  3
*Model_Space
  1

  0
ENDBLK
  5
19
330
17
100
AcDbEntity
  8
0
100
AcDbBlockEnd
  0
BLOCK
  5
1C
330
1B
100
AcDbEntity
  8
0
100
AcDbBlockBegin
  2
*Paper_Space
 70
0
 10
0.0
 20
0.0
 30
0.0
  3
*Paper_Space
  1

  0
ENDBLK
  5
1D
330
1B
100
AcDbEntity
  8
0
100
AcDbBlockEnd
  0
ENDSEC
  0
SECTION
  2
ENTITIES
  0
LWPOLYLINE
  5
30
330
17
100
AcDbEntity
  8
M
100
AcDbPolyline
 90
22
 70
1
 10
275.05209472747396
 20
34.22789170194901
 10
273.34204215240044
 20
37.03726378956926
 10
273.34204215240044
 20
56.260013656745905
 10
275.88584291746287
 20
60.439114913633766
 10
279.2343749261663
 20
60.439114913633766
 10
287.5677082594996
 20
68.6534006279195
 10
292.56460089295945
 20
68.6534006279195
 10
297.6247851895868
 20
74.19550723851128
 10
299.3315747206715
 20
71.39149586601471
 10
309.33157472067177
 20
71.39149586601471
 10
310.9982413873382
 20
68.6534006279195
 10
335.9982413873381
 20
68.6534006279195
 10
337.6649080540051
 20
65.91530538982424
 10
349.33157472067154
 20
65.91530538982424
 10
350.9982413873383
 20
63.17721015172897
 10
362.66490805400497
 20
63.17721015172897
 10
364.3315747206715
 20
60.439114913633766
 10
387.6649080540049
 20
60.439114913633766
 10
390.2087088190671
 20
56.260013656745905
 10
390.2087088190671
 20
37.03726378956926
 10
387.6644903504902
 20
32.857476305478414
 10
275.05209472747396
 20
34.22789170194901
  0
LWPOLYLINE
  5
31
330
17
100
AcDbEntity
  8
M
100
AcDbPolyline
 90
56
 70
1
 10
76.6753754857339
 20
256.0921257133636
 10
76.6753754857339
 20
264.29916855147417
 10
74.99164001891212
 20
267.0653053898242
 10
76.6753754857339
 20
269.83144222817424
 10
76.6753754857339
 20
283.46583521814085
 10
74.21917625079621
 20
287.50101967553854
 10
70.88584291746281
 20
287.50101967553854
 10
69.2191762507961
 20
290.2391149136337
 10
59.23126755962605
 20
290.2391149136337
 10
54.23126755962604
 20
295.71530538982415
 10
49.219176250796195
 20
295.71530538982415
 10
47.55250958412949
 20
298.45340062791945
 10
37.56460089295943
 20
298.45340062791945
 10
32.56460089295932
 20
303.9295911041099
 10
20.906236318209316
 20
303.9295911041099
 10
14.239569651542606
 20
309.4057815803004
 10
9.205436727828475
 20
309.4057815803004
 10
6.664936875028338
 20
316.36191212963405
 10
20.88584291746287
 20
339.724829199348
 10
34.33157472067161
 20
339.724829199348
 10
35.99824138733831
 20
336.9867339612528
 10
75.99824138733835
 20
336.9867339612528
 10
77.66490805400494
 20
334.24863872315746
 10
82.55250958412952
 20
334.24863872315746
 10
85.01039970361978
 20
338.28660106232
 10
88.3437330369532
 20
393.0485058242248
 10
90.00870881906731
 20
395.78382318055515
 10
90.00870881906731
 20
403.99810889484075
 10
92.5321161833832
 20
408.14370670764555
 10
95.90623631820927
 20
410.91530538982425
 10
114.21917625079625
 20
410.91530538982425
 10
115.88584291746284
 20
413.65340062791944
 10
134.2395696515426
 20
413.65340062791944
 10
137.63423969762854
 20
416.4418795943472
 10
140.20870881906723
 20
412.21239460912653
 10
140.20870881906723
 20
406.7362041329361
 10
143.5420421524005
 20
401.26001365674557
 10
143.5420421524005
 20
392.9896447419504
 10
134.3315747206716
 20
377.8581625326813
 10
129.21917625079615
 20
377.8581625326813
 10
127.60870881906716
 20
380.5039304562362
 10
125.19833103077693
 20
376.54402408975926
 10
118.54204215240061
 20
360.14102649661737
 10
118.54204215240061
 20
351.9182161705219
 10
115.2087088190672
 20
346.44202569433133
 10
115.2087088190672
 20
340.96583521814097
 10
110.20152433034647
 20
332.7397464152426
 10
103.53485766367976
 20
308.09688927238534
 10
100.22577761922236
 20
302.6605434850623
 10
115.20069767595854
 20
278.0588891061384
 10
118.55075097146783
 20
267.05157113517987
 10
115.99824138733827
 20
262.8581625326814
 10
100.88584291746284
 20
262.8581625326814
 10
95.94204215240055
 20
270.98012093242664
 10
80.92721244708257
 20
246.31290070226143
 10
76.6753754857339
 20
256.0921257133636
  0
LWPOLYLINE
  5
32
330
17
100
AcDbEntity
  8
M
100
AcDbPolyline
 90
25
 70
1
 10
119.21501745229956
 20
662.6268996064018
 10
117.55250958412944
 20
665.3581625326813
 10
109.21917625079614
 20
665.3581625326813
 10
105.91651127383916
 20
670.7839692805393
 10
102.64451465325853
 20
668.0962577707766
 10
89.21917625079612
 20
668.0962577707766
 10
87.55250958412952
 20
670.8343530088719
 10
79.21917625079611
 20
670.8343530088719
 10
76.65830668557882
 20
675.0414958660147
 10
78.34483997584452
 20
677.8122291285938
 10
80.01150664251122
 20
694.2408005571654
 10
83.3420421524006
 20
699.7123946091265
 10
83.3420421524006
 20
707.9266803234123
 10
85.01205314986404
 20
710.6702698192452
 10
86.67871981653074
 20
724.3607460097214
 10
89.2125994784364
 20
728.5235483114236
 10
102.56435498295203
 20
731.265426673958
 10
109.23956965154258
 20
736.7486387231576
 10
119.24545903711325
 20
736.7486387231576
 10
127.57879237044656
 20
742.2248291993479
 10
137.66490805400488
 20
742.2248291993479
 10
143.5420421524005
 20
732.5695374662694
 10
143.5420421524005
 20
664.0610733133791
 10
140.99377760962994
 20
659.8746387073987
 10
119.21501745229956
 20
662.6268996064018
  0
LWPOLYLINE
  5
33
330
17
100
AcDbEntity
  8
M
100
AcDbPolyline
 90
20
 70
1
 10
1.7008770671635975
 20
507.91901499521686
 10
0.0
 20
513.50761107304
 10
3.342042152400637
 20
518.9981088948408
 10
3.342042152400637
 20
529.9665674153157
 10
10.964322358674394
 20
536.9234104607242
 10
14.275375485733877
 20
531.4838231805551
 10
17.552509584129574
 20
536.8676863422052
 10
22.57290298487591
 20
536.8676863422052
 10
29.239569651542617
 20
542.3438768183955
 10
45.885842917462895
 20
542.3438768183955
 10
47.54717184644963
 20
545.0732029160167
 10
64.21383851311634
 20
547.8112981541119
 10
65.88584291746291
 20
550.5581625326813
 10
75.99076460341381
 20
550.5581625326813
 10
83.54204215240057
 20
540.9093078867537
 10
83.54204215240057
 20
532.6325018848077
 10
80.20870881906728
 20
527.1563114086171
 10
80.20870881906728
 20
510.7277399800457
 10
77.66428738193798
 20
506.54761904761904
 10
1.7008770671635975
 20
507.91901499521686
  0
LWPOLYLINE
  5
34
330
17
100
AcDbEntity
  8
M
100
AcDbPolyline
 90
32
 70
1
 10
730.0409608760823
 20
173.8807815976856
 10
723.3474255278012
 20
187.62643454504868
 10
720.0152190025138
 20
201.3122827739071
 10
715.0141867720657
 20
209.52826429535753
 10
713.3357209546965
 20
217.8007029666773
 10
730.8887944384612
 20
243.89149586601465
 10
734.2191762507962
 20
243.89149586601465
 10
737.5525095841296
 20
249.3676863422052
 10
742.652816745175
 20
249.3676863422052
 10
747.6528167451753
 20
243.89149586601465
 10
754.3315747206716
 20
243.89149586601465
 10
757.664908054005
 20
238.41530538982414
 10
762.6445146532583
 20
238.41530538982414
 10
769.3111813199251
 20
232.93911491363372
 10
772.6445146532585
 20
232.93911491363372
 10
782.6445146532584
 20
224.724829199348
 10
787.6528167451751
 20
224.724829199348
 10
792.6528167451752
 20
219.24863872315748
 10
799.3315747206717
 20
219.24863872315748
 10
801.892444285889
 20
215.04149586601474
 10
797.6649080540049
 20
208.09625777077656
 10
794.3315747206716
 20
208.09625777077656
 10
790.9982413873382
 20
202.62006729458614
 10
787.6528167451751
 20
202.62006729458614
 10
777.6528167451751
 20
191.6676863422052
 10
772.6563393498675
 20
191.6676863422052
 10
765.9896726832008
 20
183.45340062791948
 10
757.6528167451751
 20
183.45340062791948
 10
752.6528167451752
 20
177.97721015172897
 10
744.3111813199253
 20
177.97721015172897
 10
737.6363586478474
 20
172.49432009966503
 10
730.0409608760823
 20
173.8807815976856
  0
LWPOLYLINE
  5
35
330
17
100
AcDbEntity
  8
M
100
AcDbPolyline
 90
30
 70
1
 10
671.715552010149
 20
548.9950690232683
 10
670.0087088190672
 20
551.7991685514743
 10
670.0087088190672
 20
584.6563114086171
 10
667.5525095841294
 20
588.6914958660146
 10
632.5525095841296
 20
588.6914958660146
 10
630.8858429174628
 20
591.4295911041098
 10
620.8858429174628
 20
591.4295911041098
 10
618.3249733522456
 20
595.6367339612527
 10
622.5525095841296
 20
602.5819720564909
 10
625.8958745986743
 20
602.5819720564909
 10
637.5625412653409
 20
616.2724482469671
 10
675.8858429174628
 20
616.2724482469671
 10
677.5525095841294
 20
619.0105434850623
 10
687.6445146532585
 20
619.0105434850623
 10
694.3111813199253
 20
613.5343530088718
 10
705.9982413873382
 20
613.5343530088718
 10
707.664908054005
 20
610.7962577707765
 10
710.9982413873382
 20
610.7962577707765
 10
721.8638802810867
 20
592.9455653024755
 10
731.8883637137743
 20
570.9871730213501
 10
728.5591109525556
 20
565.5176863422051
 10
730.2257776192223
 20
562.77959110411
 10
725.9982413873382
 20
555.8343530088719
 10
722.664908054005
 20
555.8343530088719
 10
720.9982413873382
 20
553.0962577707766
 10
697.664908054005
 20
553.0962577707766
 10
695.9982413873382
 20
550.3581625326814
 10
685.9982413873382
 20
550.3581625326814
 10
684.3277210268706
 20
547.6137362261989
 10
671.715552010149
 20
548.9950690232683
  0
LWPOLYLINE
  5
36
330
17
100
AcDbEntity
  8
M
100
AcDbPolyline
 90
64
 70
1
 10
538.3853295315968
 20
23.275672618985194
 10
536.675375485734
 20
26.084882837188488
 10
536.675375485734
 20
48.002805905628804
 10
534.9983416647468
 20
53.51305988887223
 10
544.2251330036192
 20
65.91530538982424
 10
547.5525095841294
 20
65.91530538982424
 10
550.0167199621759
 20
69.96365101090038
 10
556.6833866288425
 20
91.8684129156623
 10
563.3280612281685
 20
102.78466404312647
 10
549.2661403300617
 20
131.32209174810794
 10
547.6749559626533
 20
128.70800314450847
 10
531.0082892959866
 20
123.23181266831796
 10
529.3315747206716
 20
120.47721015172897
 10
522.6528167451751
 20
120.47721015172897
 10
517.6528167451752
 20
115.00101967553856
 10
510.98615007850844
 20
115.00101967553856
 10
505.98615007850844
 20
109.52482919934803
 10
497.64970937863484
 20
109.52482919934803
 10
489.3163760453014
 20
101.3105434850623
 10
482.55250958412955
 20
101.3105434850623
 10
478.34619679449133
 20
108.22091449661086
 10
476.6780166090954
 20
119.18324142921244
 10
471.66143765429956
 20
132.9191123768676
 10
477.553893728494
 20
139.83372919862634
 10
489.2192618668251
 20
142.5715196800713
 10
495.8944116216003
 20
150.79625777077655
 10
502.5646008929594
 20
150.79625777077655
 10
507.5646008929594
 20
156.27244824696706
 10
510.88584291746287
 20
156.27244824696706
 10
514.2191762507962
 20
161.74863872315748
 10
519.2191762507962
 20
161.74863872315748
 10
522.5525095841294
 20
167.224829199348
 10
525.8858429174629
 20
167.224829199348
 10
530.8654495167165
 20
175.40561146955025
 10
540.8684847094795
 20
183.6223903778914
 10
562.557459144941
 20
213.77244824696706
 10
564.2191762507962
 20
213.77244824696706
 10
571.6853359321087
 20
226.03828200912335
 10
577.5222273658208
 20
241.10699152676762
 10
582.5646008929593
 20
246.62959110410986
 10
592.664908054005
 20
246.62959110410986
 10
596.8753754857339
 20
239.71239460912665
 10
596.8753754857339
 20
212.2753590276646
 10
595.2257776192222
 20
209.5653053898242
 10
596.8753754857339
 20
206.85525175198381
 10
596.8753754857339
 20
201.32297807528366
 10
595.2257776192222
 20
198.61292443744327
 10
596.8753754857339
 20
195.90287079960288
 10
596.8753754857339
 20
182.21239460912665
 10
598.540351267848
 20
179.4770772527964
 10
600.2079316883487
 20
152.0811132017119
 10
605.2087088190672
 20
132.91146753395788
 10
605.2087088190672
 20
127.45048984722185
 10
608.5591109525557
 20
121.94625777077661
 10
606.8905538521282
 20
119.20505682007443
 10
619.3563288867241
 20
95.99497092232667
 10
623.5553219824021
 20
91.8559634423011
 10
621.8840843048011
 20
86.36475393018291
 10
623.5420421524005
 20
83.64096603769813
 10
623.5420421524005
 20
56.25371866372461
 10
628.5383574655044
 20
45.309408930259
 10
631.88033601399
 20
26.093032276466477
 10
629.3310569679775
 20
21.904930986588912
 10
538.3853295315968
 20
23.275672618985194
  0
LWPOLYLINE
  5
37
330
17
100
AcDbEntity
  8
M
100
AcDbPolyline
 90
41
 70
1
 10
526.6961060999308
 20
464.137559387823
 10
523.3304626699346
 20
472.43146641174206
 10
524.9957205910268
 20
475.1672472821078
 10
519.9957205910268
 20
486.11962823448874
 10
521.663796003268
 20
488.8600378403134
 10
518.3242565300349
 20
497.0896172564946
 10
522.6284581310654
 20
501.3323302632248
 10
525.2257776192223
 20
497.0653053898242
 10
523.5591109525556
 20
494.327210151729
 10
525.9982413873383
 20
490.3200672945861
 10
529.231267559626
 20
490.3200672945861
 10
534.2914518562534
 20
495.86217390517794
 10
537.6087088190671
 20
490.4123946091266
 10
541.6583066855789
 20
497.0653053898242
 10
539.2753754857339
 20
500.9801209324266
 10
535.9420421524006
 20
495.5039304562362
 10
533.3249733522455
 20
499.8034006279194
 10
534.987302416227
 20
502.5343698044604
 10
527.5599863680541
 20
512.024829199348
 10
520.8858429174629
 20
512.024829199348
 10
518.3249733522455
 20
516.2319720564908
 10
520.8858429174629
 20
520.4391149136337
 10
534.3315747206716
 20
520.4391149136337
 10
539.3519681214179
 20
512.1913257552646
 10
545.9778479865919
 20
506.74863872315757
 10
549.3315747206716
 20
506.74863872315757
 10
552.664908054005
 20
501.27244824696703
 10
555.9982413873383
 20
501.27244824696703
 10
559.3315747206716
 20
495.7962577707766
 10
562.664908054005
 20
495.7962577707766
 10
565.9982413873383
 20
490.3200672945861
 10
569.3315747206716
 20
490.3200672945861
 10
573.5591109525557
 20
483.374829199348
 10
570.9982413873382
 20
479.1676863422052
 10
567.664908054005
 20
479.1676863422052
 10
564.3390116921048
 20
473.70371374765483
 10
552.6723450254381
 20
470.96561850955965
 10
551.0027310032161
 20
468.2226811873379
 10
531.0027310032161
 20
465.48458594924256
 10
529.3111278689205
 20
462.70552365718567
 10
526.6961060999308
 20
464.137559387823
  0
LWPOLYLINE
  5
38
330
17
100
AcDbEntity
  8
M
100
AcDbPolyline
 90
18
 70
1
 10
1950.0518951770214
 20
1.3710766776920957
 10
1948.3249733522453
 20
4.208162532681387
 10
1950.870537386027
 20
8.39016058817993
 10
1955.870537386027
 20
11.128255826275163
 10
1959.219176250796
 20
16.62959110410994
 10
1962.569934773746
 20
16.62959110410994
 10
1977.5699347737461
 20
30.32006729458614
 10
1980.8944116215998
 20
30.32006729458614
 10
1987.5610782882666
 20
38.53435300887187
 10
1997.6649080540046
 20
38.53435300887187
 10
1999.3315747206714
 20
35.796257770776606
 10
2009.3052919343543
 20
35.796257770776606
 10
2017.6386252676873
 20
30.32006729458614
 10
2024.3315747206711
 20
30.32006729458614
 10
2028.5420421524004
 20
23.402870799602848
 10
2028.5420421524004
 20
4.18012093242659
 10
2025.9976207152715
 20
0.0
 10
1950.0518951770214
 20
1.3710766776920957
  0
LWPOLYLINE
  5
39
330
17
100
AcDbEntity
  8
M
100
AcDbPolyline
 90
116
 70
1
 10
3153.342042152401
 20
431.3229780752835
 10
3145.8772916839353
 20
443.5864967020477
 10
3135.8846437748866
 20
446.32257886762073
 10
3129.2162457074955
 20
454.5389979149419
 10
3120.888545113222
 20
457.27524239591764
 10
3112.562957817131
 20
465.4818927306354
 10
3089.2247279022645
 20
468.2205625675841
 10
3083.3420421524006
 20
475.1237142128325
 10
3083.3420421524006
 20
477.93546799538734
 10
3089.229207932008
 20
484.8438768183956
 10
3092.55250958413
 20
484.8438768183956
 10
3097.55250958413
 20
493.0581625326813
 10
3102.55250958413
 20
493.0581625326813
 10
3110.8858429174634
 20
506.74863872315757
 10
3114.2277449549338
 20
506.74863872315757
 10
3120.8944116216007
 20
514.9629244374433
 10
3124.2277449549338
 20
514.9629244374433
 10
3130.8944116216003
 20
523.1772101517289
 10
3135.9982413873386
 20
523.1772101517289
 10
3138.5449205071277
 20
518.9933801692176
 10
3136.8782538404616
 20
502.56480874064613
 10
3139.331574720672
 20
498.53435300887185
 10
3144.331574720672
 20
498.53435300887185
 10
3149.34162262932
 20
490.3035600160923
 10
3157.564544056677
 20
487.6017429756753
 10
3159.991640018912
 20
491.58911491363375
 10
3156.675375485734
 20
497.03726378956924
 10
3156.675375485734
 20
507.9896447419502
 10
3152.5831779405057
 20
514.7125407091107
 10
3149.2498446071727
 20
511.97444547101543
 10
3144.9916400189127
 20
518.9700672945861
 10
3147.550214774744
 20
523.1734401077367
 10
3187.557422000207
 20
525.9120286975751
 10
3195.008708819068
 20
535.4331174105632
 10
3195.008708819068
 20
538.1647755615077
 10
3200.9010299326865
 20
547.8450173910237
 10
3207.6770625185923
 20
545.0620040075265
 10
3212.6649080540055
 20
536.8676863422052
 10
3217.55250958413
 20
536.8676863422052
 10
3223.3316035416956
 20
546.3619121296342
 10
3220.8776918074946
 20
553.0809561637544
 10
3207.5598830356143
 20
550.3460490052432
 10
3204.994123171848
 20
554.5612259242874
 10
3214.268102905323
 20
572.5671995626587
 10
3215.9982413873386
 20
569.7248291993479
 10
3224.219176250797
 20
569.7248291993479
 10
3225.885842917463
 20
572.4629244374431
 10
3232.664908054005
 20
572.4629244374431
 10
3235.998241387339
 20
566.9867339612528
 10
3244.3315747206716
 20
566.9867339612528
 10
3245.9982413873386
 20
564.2486387231576
 10
3252.55250958413
 20
564.2486387231576
 10
3254.275375485734
 20
567.0790612757935
 10
3255.9982413873386
 20
564.2486387231576
 10
3265.977847986592
 20
564.2486387231576
 10
3269.2753754857345
 20
561.5399554202908
 10
3272.634239697629
 20
564.2990224514901
 10
3277.664908054005
 20
556.0343530088718
 10
3282.658277045299
 20
556.0343530088718
 10
3290.9587742015465
 20
545.1251281749463
 10
3294.3009063642953
 20
547.8704510229187
 10
3297.6649080540055
 20
542.3438768183955
 10
3302.656339349868
 20
542.3438768183955
 10
3309.3369533613454
 20
534.1124059828242
 10
3316.0103958519258
 20
531.3715278170504
 10
3321.892444285889
 20
521.7081625326814
 10
3315.998241387338
 20
512.024829199348
 10
3310.998241387338
 20
512.024829199348
 10
3307.6749559626533
 20
506.5651460016514
 10
3299.3416226293207
 20
503.82705076355603
 10
3295.942042152401
 20
498.2420256943312
 10
3294.2498446071722
 20
501.0220645186345
 10
3290.927786167598
 20
498.2932308004118
 10
3284.2277449549338
 20
506.5486387231576
 10
3280.998241387339
 20
506.5486387231576
 10
3279.275375485734
 20
503.7182161705216
 10
3275.9420421524005
 20
509.19440664671214
 10
3274.331574720672
 20
506.5486387231576
 10
3265.9062363182097
 20
506.5486387231576
 10
3259.2395696515428
 20
512.024829199348
 10
3250.90623631821
 20
512.024829199348
 10
3244.275375485734
 20
517.47160774031
 10
3241.018634788086
 20
514.7964278815269
 10
3235.2087088190674
 20
505.25154950385496
 10
3235.2087088190674
 20
502.56646588788357
 10
3246.8753754857344
 20
480.6617039831216
 10
3246.8753754857344
 20
477.93235696334733
 10
3255.2213946195793
 20
466.96330324457966
 10
3252.6786475769727
 20
460.00101967553854
 10
3227.559986368054
 20
460.00101967553854
 10
3220.015402178899
 20
469.64132169501494
 10
3218.3475201053993
 20
477.8615976286906
 10
3212.545072612697
 20
487.3941899381311
 10
3200.8859285334925
 20
490.13051967100563
 10
3194.2277449549338
 20
498.33435300887186
 10
3190.8858429174625
 20
498.33435300887186
 10
3189.2753754857345
 20
500.98012093242636
 10
3186.8924442858893
 20
497.0653053898242
 10
3188.542042152401
 20
494.35525175198393
 10
3188.542042152401
 20
488.8847379157283
 10
3196.8894642040873
 20
477.9138403620832
 10
3193.551464934308
 20
469.68805644727064
 10
3200.222531727686
 20
455.9885442822992
 10
3195.998241387339
 20
449.0486387231576
 10
3187.664908054005
 20
449.0486387231576
 10
3185.998241387338
 20
446.3105434850623
 10
3177.6445146532587
 20
446.3105434850623
 10
3174.3574728308504
 20
443.61047341665574
 10
3170.2210958578476
 20
434.09680637874936
 10
3176.875375485734
 20
423.16477556150767
 10
3176.875375485734
 20
420.3743993022091
 10
3167.655595165159
 20
402.47365699148196
 10
3160.8736884528766
 20
405.25908296259803
 10
3155.016719962177
 20
414.8812454830333
 10
3153.342042152401
 20
420.3837582865815
 10
3153.342042152401
 20
431.3229780752835
  0
LWPOLYLINE
  5
3A
330
17
100
AcDbEntity
  8
M
100
AcDbPolyline
 90
10
 70
1
 10
3261.6583066855787
 20
540.874829199348
 10
3259.219176250796
 20
544.8819720564909
 10
3254.219176250796
 20
544.8819720564909
 10
3252.58895950707
 20
547.5601852783284
 10
3248.5686288405964
 20
543.597287907091
 10
3250.9982413873386
 20
539.6057815803003
 10
3254.3315747206716
 20
539.6057815803003
 10
3255.9982413873386
 20
536.8676863422052
 10
3259.219176250796
 20
536.8676863422052
 10
3261.6583066855787
 20
540.874829199348
  0
LWPOLYLINE
  5
3B
330
17
100
AcDbEntity
  8
M
100
AcDbPolyline
 90
5
 70
1
 10
3246.658306685579
 20
546.3510196755384
 10
3244.275375485734
 20
550.2658352181406
 10
3241.892444285889
 20
546.3510196755384
 10
3244.275375485734
 20
542.4362041329363
 10
3246.658306685579
 20
546.3510196755384
  0
LWPOLYLINE
  5
3C
330
17
100
AcDbEntity
  8
M
100
AcDbPolyline
 90
25
 70
1
 10
3085.8858429174634
 20
520.2391149136337
 10
3077.5525095841294
 20
520.2391149136337
 10
3074.2343632660195
 20
525.6903552933866
 10
3067.5820128294918
 20
522.958139935527
 10
3052.549977642001
 20
539.4217975218265
 10
3045.8812067569293
 20
542.1607569924807
 10
3027.547873423596
 20
564.0655188972428
 10
3020.8816421380707
 20
566.8034353180835
 10
3014.985674958547
 20
573.722172314463
 10
3019.219176250797
 20
580.6772101517289
 10
3044.3230060165342
 20
580.6772101517289
 10
3064.3230060165347
 20
556.0343530088718
 10
3075.9982413873386
 20
556.0343530088718
 10
3077.6649080540046
 20
553.2962577707765
 10
3089.3315747206716
 20
553.2962577707765
 10
3090.9982413873386
 20
550.5581625326813
 10
3094.3471220778492
 20
550.5581625326813
 10
3098.5332229409883
 20
538.1792642659717
 10
3105.208708819068
 20
527.2123946091265
 10
3105.208708819068
 20
521.6801209324267
 10
3102.6723450254385
 20
517.5132375571787
 10
3096.7276483309565
 20
516.1180536390859
 10
3094.234363266019
 20
520.2141648171961
 10
3087.5676965993525
 20
517.4760695791009
 10
3085.8858429174634
 20
520.2391149136337
  0
LWPOLYLINE
  5
3D
330
17
100
AcDbEntity
  8
M
100
AcDbPolyline
 90
23
 70
1
 10
3009.219176250796
 20
492.8581625326813
 10
3005.885842917463
 20
498.33435300887186
 10
3002.557916318241
 20
498.33435300887186
 10
2992.5579163182415
 20
512.024829199348
 10
2989.2191762507964
 20
512.024829199348
 10
2986.66019711934
 20
516.2288663438839
 10
2999.2155735890265
 20
539.6057815803003
 10
3004.3315747206716
 20
539.6057815803003
 10
3007.6649080540055
 20
534.12959110411
 10
3015.998241387338
 20
534.12959110411
 10
3019.331574720672
 20
528.6534006279194
 10
3025.986150078508
 20
528.6534006279194
 10
3030.986150078508
 20
523.1772101517289
 10
3035.9982413873386
 20
523.1772101517289
 10
3038.5420421524013
 20
518.9981088948408
 10
3038.5420421524013
 20
513.4743598299507
 10
3035.205798806216
 20
505.2529030125684
 10
3033.5386983646613
 20
494.2976715394879
 10
3027.6197265992646
 20
481.79535362686477
 10
3024.210625017269
 20
487.39602051157146
 10
3014.210625017269
 20
490.1341157496667
 10
3012.55250958413
 20
492.8581625326813
 10
3009.219176250796
 20
492.8581625326813
  0
LWPOLYLINE
  5
3E
330
17
100
AcDbEntity
  8
M
100
AcDbPolyline
 90
65
 70
1
 10
3614.2312675596263
 20
407.97721015172897
 10
3609.2312675596263
 20
413.45340062791945
 10
3605.885842917464
 20
413.45340062791945
 10
3602.55250958413
 20
418.92959110411
 10
3597.56460089296
 20
418.92959110411
 10
3592.549977642001
 20
424.42179752182653
 10
3579.215731281753
 20
429.8983629912142
 10
3568.318392406648
 20
442.29258907443756
 10
3570.008708819068
 20
445.0695374662694
 10
3570.008708819068
 20
456.0219184186504
 10
3571.67691408066
 20
458.7625413484088
 10
3573.343580747326
 20
488.88158896745637
 10
3577.545072612697
 20
495.78403988913647
 10
3589.2117392793634
 20
498.52213512723165
 10
3593.3249733522457
 20
505.2795911041099
 10
3589.2396231025473
 20
511.9912379428999
 10
3584.2396231025477
 20
509.2531427048047
 10
3581.6471386632375
 20
513.5122242836716
 10
3589.236601440414
 20
520.4391149136337
 10
3604.219176250797
 20
520.4391149136337
 10
3605.9420421524014
 20
523.2695374662694
 10
3608.5591109525562
 20
518.9700672945861
 10
3606.8924442858893
 20
516.2319720564908
 10
3610.225777619223
 20
510.75578158030044
 10
3606.8924442858893
 20
505.2795911041099
 10
3609.2914518562534
 20
501.33836438136836
 10
3614.2312675596263
 20
506.74863872315757
 10
3620.90623631821
 20
506.74863872315757
 10
3627.572902984876
 20
512.2248291993479
 10
3632.56460089296
 20
512.2248291993479
 10
3637.56460089296
 20
517.7010196755385
 10
3642.55250958413
 20
517.7010196755385
 10
3644.219176250797
 20
520.4391149136337
 10
3657.5525095841303
 20
520.4391149136337
 10
3659.2191762507964
 20
523.1772101517289
 10
3689.219176250797
 20
523.1772101517289
 10
3690.8858429174634
 20
525.9153053898242
 10
3697.664908054006
 20
525.9153053898242
 10
3700.2087088190674
 20
521.7362041329361
 10
3700.2087088190674
 20
494.2991685514743
 10
3697.664908054006
 20
490.12006729458614
 10
3682.664908054005
 20
490.12006729458614
 10
3680.998241387338
 20
487.3819720564909
 10
3670.9982413873386
 20
487.3819720564909
 10
3669.3315747206725
 20
484.6438768183956
 10
3649.331574720672
 20
484.6438768183956
 10
3647.664908054005
 20
481.9057815803004
 10
3642.664908054005
 20
481.9057815803004
 10
3640.208708819068
 20
477.8705971229028
 10
3640.208708819068
 20
472.45048984722183
 10
3641.875375485735
 20
469.7123946091265
 10
3641.875375485735
 20
456.0219184186504
 10
3643.542042152401
 20
453.28382318055515
 10
3643.542042152401
 20
439.5933469900789
 10
3645.208708819068
 20
436.8552517519837
 10
3645.208708819068
 20
420.42668032341226
 10
3646.8924442858893
 20
417.6605434850623
 10
3640.998241387339
 20
407.97721015172897
 10
3637.6649080540055
 20
407.97721015172897
 10
3634.3315747206725
 20
402.50101967553854
 10
3630.9982413873386
 20
402.50101967553854
 10
3629.3163877054494
 20
399.73797434100567
 10
3622.5403551195436
 20
402.52098772450285
 10
3619.2191762507964
 20
407.97721015172897
 10
3614.2312675596263
 20
407.97721015172897
  0
LWPOLYLINE
  5
3F
330
17
100
AcDbEntity
  8
M
100
AcDbPolyline
 90
5
 70
1
 10
3614.255626173736
 20
525.975187406082
 10
3618.5686288405964
 20
521.7237990630337
 10
3615.9617914643995
 20
517.4411376592808
 10
3611.648788797539
 20
521.692526002329
 10
3614.255626173736
 20
525.975187406082
  0
LWPOLYLINE
  5
40
330
17
100
AcDbEntity
  8
M
100
AcDbPolyline
 90
5
 70
1
 10
3581.8944404826725
 20
510.7788323491781
 10
3577.6423039150477
 20
500.9989182436415
 10
3573.3229771554634
 20
505.2565403352323
 10
3577.5751137230873
 20
515.0364544407688
 10
3581.8944404826725
 20
510.7788323491781
  0
LWPOLYLINE
  5
41
330
17
100
AcDbEntity
  8
M
100
AcDbPolyline
 90
42
 70
1
 10
3486.6772520804307
 20
335.48656176494995
 10
3485.012053149864
 20
338.22224572230783
 10
3483.345386483198
 20
351.9127219127841
 10
3480.885842917464
 20
355.95340062791945
 10
3450.8979342262933
 20
355.95340062791945
 10
3445.8979342262933
 20
361.42959110411
 10
3442.5525095841294
 20
361.42959110411
 10
3438.3401296681272
 20
368.34992953754397
 10
3440.0105854137637
 20
393.0488109194603
 10
3442.5403551195427
 20
397.2048611503837
 10
3449.2070217862097
 20
399.942956388479
 10
3455.87840594603
 20
410.90308750818406
 10
3467.5450726126965
 20
413.64118274627924
 10
3474.219176250797
 20
424.6057815803004
 10
3477.55250958413
 20
424.6057815803004
 10
3479.219176250797
 20
427.3438768183956
 10
3489.2191762507964
 20
427.3438768183956
 10
3490.8858429174634
 20
430.0819720564909
 10
3494.3315747206716
 20
430.0819720564909
 10
3497.6649080540055
 20
424.6057815803004
 10
3500.9861500785087
 20
424.6057815803004
 10
3505.9861500785087
 20
419.12959110411
 10
3539.3409401483777
 20
419.12959110411
 10
3543.542042152401
 20
409.46705649485637
 10
3543.542042152401
 20
403.9877567507557
 10
3548.542042152401
 20
390.29728056027955
 10
3548.542042152401
 20
384.8182810644958
 10
3551.868742036149
 20
373.88769573218275
 10
3558.542042152401
 20
360.18359727916413
 10
3558.542042152401
 20
351.9182161705219
 10
3555.998241387338
 20
347.7391149136337
 10
3552.6649080540055
 20
347.7391149136337
 10
3549.3451335895843
 20
342.2851997220854
 10
3537.678466922918
 20
336.80900924589497
 10
3534.331574720672
 20
331.3105434850623
 10
3530.9896726832017
 20
331.3105434850623
 10
3524.3327738632483
 20
323.108293153335
 10
3514.3223627033703
 20
320.3673472405113
 10
3497.6363586478474
 20
306.6609867663317
 10
3490.046616204209
 20
308.04641594255145
 10
3488.3439187470967
 20
310.8437046220929
 10
3486.6772520804307
 20
335.48656176494995
  0
LWPOLYLINE
  5
42
330
17
100
AcDbEntity
  8
M
100
AcDbPolyline
 90
16
 70
1
 10
4908.342042152401
 20
212.22415286928887
 10
4908.342042152401
 20
313.640966037698
 10
4910.885842917463
 20
317.8200672945861
 10
4920.885842917463
 20
317.8200672945861
 10
4922.55250958413
 20
320.5581625326813
 10
4937.6649080540055
 20
320.5581625326813
 10
4940.217417638134
 20
316.3647539301828
 10
4938.5420421524
 20
310.8599487627717
 10
4938.5420421524
 20
297.22118228110173
 10
4950.22468081635
 20
283.51196344075237
 10
4931.893151399998
 20
239.7067502899872
 10
4945.252415546598
 20
225.9896487108888
 10
4937.654203109401
 20
219.0547722801136
 10
4920.984759546185
 20
216.3162208375853
 10
4914.300651710919
 20
210.82570368718788
 10
4908.342042152401
 20
212.22415286928887
  0
LWPOLYLINE
  5
43
330
17
100
AcDbEntity
  8
M
100
AcDbPolyline
 90
31
 70
1
 10
6334.215017452299
 20
41.07928055878288
 10
6332.552509584129
 20
43.81054348506236
 10
6322.552509584129
 20
43.81054348506236
 10
6320.885842917463
 20
46.548638723157595
 10
6310.8858429174625
 20
46.548638723157595
 10
6309.219176250796
 20
49.28673396125283
 10
6299.219176250796
 20
49.28673396125283
 10
6297.55250958413
 20
52.02482919934806
 10
6287.5677082595
 20
52.02482919934806
 10
6279.196378237741
 20
60.27656879222484
 10
6270.865449516716
 20
73.96309454819358
 10
6264.19878285005
 20
79.4392850243841
 10
6250.885842917463
 20
101.3105434850623
 10
6247.55250958413
 20
101.3105434850623
 10
6238.324973352245
 20
116.47006729458609
 10
6240.930341388493
 20
120.7503147827077
 10
6247.664822437976
 20
112.45247206102371
 10
6259.320872691067
 20
109.71686843019646
 10
6265.977847986593
 20
104.24863872315748
 10
6269.319483411841
 20
104.24863872315748
 10
6274.325275239879
 20
98.7661048162597
 10
6292.655704773461
 20
96.02844326254278
 10
6300.983042711969
 20
87.82006729458617
 10
6307.644514653259
 20
87.82006729458617
 10
6317.652158550008
 20
79.59950266511393
 10
6332.6598278912825
 20
76.86000746789703
 10
6337.652816745175
 20
71.39149586601471
 10
6340.983042711969
 20
71.39149586601471
 10
6345.208708819067
 20
67.22619641758845
 10
6345.208708819067
 20
39.689967913531994
 10
6334.215017452299
 20
41.07928055878288
  0
LWPOLYLINE
  5
44
330
17
100
AcDbEntity
  8
M
100
AcDbPolyline
 90
42
 70
1
 10
6147.552509584129
 20
522.977210151729
 10
6145.008708819068
 20
527.1563114086168
 10
6145.008708819068
 20
535.3705971229026
 10
6143.3420421524015
 20
538.1086923609978
 10
6143.3420421524015
 20
568.2838231805554
 10
6145.885842917463
 20
572.4629244374431
 10
6150.998241387338
 20
572.4629244374431
 10
6152.649721038782
 20
569.7497792957856
 10
6159.3163877054485
 20
572.4878745338808
 10
6160.998241387339
 20
569.7248291993479
 10
6177.6649080540055
 20
569.7248291993479
 10
6179.316387705449
 20
567.0116840576904
 10
6185.983054372116
 20
569.7497792957856
 10
6187.6649080540055
 20
566.9867339612528
 10
6195.998241387339
 20
566.9867339612528
 10
6197.649721038782
 20
564.2735888195953
 10
6204.302071475309
 20
567.0058041774546
 10
6209.319483411842
 20
561.5105434850623
 10
6215.9719586010215
 20
561.5105434850623
 10
6224.353748561794
 20
556.0025100822683
 10
6230.218516624102
 20
543.6146836649448
 10
6226.024139497517
 20
533.9676162737986
 10
6219.311181319926
 20
528.4534006279195
 10
6212.6649080540055
 20
528.4534006279195
 10
6210.942042152401
 20
525.6229780752835
 10
6209.275375485735
 20
528.3610733133788
 10
6207.664908054005
 20
525.7153053898243
 10
6200.998241387339
 20
525.7153053898243
 10
6199.331574720672
 20
522.977210151729
 10
6187.6649080540055
 20
522.977210151729
 10
6185.942042152401
 20
520.146787599093
 10
6184.219176250796
 20
522.977210151729
 10
6179.3315747206725
 20
522.977210151729
 10
6177.608708819068
 20
520.146787599093
 10
6175.916511273839
 20
522.9268264233964
 10
6172.644514653259
 20
520.2391149136337
 10
6169.219176250797
 20
520.2391149136337
 10
6167.55250958413
 20
522.977210151729
 10
6164.331574720672
 20
522.977210151729
 10
6162.63423969763
 20
520.1887311853012
 10
6159.239569651543
 20
522.977210151729
 10
6147.552509584129
 20
522.977210151729
  0
LWPOLYLINE
  5
45
330
17
100
AcDbEntity
  8
M
100
AcDbPolyline
 90
40
 70
1
 10
6034.214686634919
 20
610.6036335682902
 10
6032.55250958413
 20
613.3343530088719
 10
6015.8858429174625
 20
613.3343530088719
 10
6012.608708819068
 20
618.7182161705218
 10
6010.967573030962
 20
616.0220645186345
 10
6007.608708819068
 20
618.7811315498337
 10
6004.249844607173
 20
616.0220645186345
 10
6002.55250958413
 20
618.8105434850622
 10
5994.226653034721
 20
618.8105434850622
 10
5986.675375485734
 20
628.4593981309899
 10
5986.675375485734
 20
631.2077326355426
 10
5968.320493818762
 20
666.8448080798594
 10
5977.565979858521
 20
676.5105434850623
 10
5982.572902984876
 20
676.5105434850623
 10
5989.275375485734
 20
682.0161458964812
 10
5992.583177940506
 20
679.2990224514901
 10
5995.875795008815
 20
684.7083219208542
 10
6004.201551312708
 20
687.4439275635618
 10
6008.343299042371
 20
696.9699473417858
 10
6010.01039970362
 20
724.3580296337486
 10
6014.219176250796
 20
731.272448246967
 10
6022.6649080540055
 20
731.272448246967
 10
6024.331574720672
 20
728.5343530088718
 10
6030.998241387339
 20
728.5343530088718
 10
6032.6649080540055
 20
725.7962577707765
 10
6040.986150078509
 20
725.7962577707765
 10
6045.995022038446
 20
720.3103503860835
 10
6069.3390116921055
 20
714.8316589367554
 10
6072.677062518593
 20
709.3477182932409
 10
6079.343729185259
 20
706.6096230551456
 10
6083.559110952556
 20
699.6843530088718
 10
6080.208708819067
 20
694.1801209324267
 10
6080.208708819067
 20
688.7039304562361
 10
6078.539637605511
 20
685.9618848911088
 10
6076.873851865189
 20
666.8053488774007
 10
6071.864117811339
 20
653.0882199204286
 10
6063.5361163373445
 20
642.1428465546076
 10
6058.537089272932
 20
614.7672221542502
 10
6054.32672759027
 20
607.850199389879
 10
6034.214686634919
 20
610.6036335682902
  0
LWPOLYLINE
  5
46
330
17
100
AcDbEntity
  8
M
100
AcDbPolyline
 90
32
 70
1
 10
6062.5466162042085
 20
325.8440349901704
 10
6060.88296047428
 20
328.5771836893391
 10
6029.241580068784
 20
331.3130925213932
 10
6020.9121257037805
 20
336.7867339612528
 10
6014.219176250796
 20
336.7867339612528
 10
6008.346196794491
 20
346.4352002108966
 10
6006.671040750927
 20
357.4433684971808
 10
6009.219176250797
 20
361.62959110411
 10
6014.3315747206725
 20
361.62959110411
 10
6015.942042152401
 20
358.9838231805551
 10
6017.552509584129
 20
361.62959110411
 10
6027.664908054005
 20
361.62959110411
 10
6029.275375485734
 20
358.9838231805551
 10
6030.885842917463
 20
361.62959110411
 10
6039.311181319926
 20
361.62959110411
 10
6042.583177940506
 20
358.9418795943472
 10
6044.219176250797
 20
361.62959110411
 10
6050.977847986593
 20
361.62959110411
 10
6054.249844607173
 20
358.9418795943472
 10
6055.8858429174625
 20
361.62959110411
 10
6062.64451465326
 20
361.62959110411
 10
6065.91651127384
 20
358.9418795943472
 10
6067.552509584129
 20
361.62959110411
 10
6074.311181319926
 20
361.62959110411
 10
6077.608708819067
 20
358.9209078012432
 10
6080.967573030963
 20
361.6799748324425
 10
6083.542042152401
 20
357.45048984722183
 10
6083.542042152401
 20
346.44202569433133
 10
6080.208708819067
 20
340.96583521814097
 10
6080.208708819067
 20
327.2753590276647
 10
6077.658382910954
 20
323.08553789290727
 10
6062.5466162042085
 20
325.8440349901704
  0
LWPOLYLINE
  5
47
330
17
100
AcDbEntity
  8
M
100
AcDbPolyline
 90
25
 70
1
 10
6057.552557896204
 20
238.22849533865198
 10
6052.56460089296
 20
243.6914958660147
 10
6047.572902984876
 20
243.6914958660147
 10
6027.554897956163
 20
260.13485713960074
 10
6004.22156462283
 20
271.08723809198165
 10
5997.532116183384
 20
276.582142167241
 10
5995.011506642511
 20
280.7231435558163
 10
5993.343997757528
 20
297.16001685064816
 10
5989.997129336602
 20
305.4076568879325
 10
5994.219176250796
 20
312.3438768183956
 10
5999.303281853687
 20
312.3438768183956
 10
6030.980290196042
 20
293.1709507164437
 10
6042.6504289809955
 20
290.4320405934445
 10
6054.307048062466
 20
282.224829199348
 10
6059.3315747206725
 20
282.224829199348
 10
6061.008289295987
 20
279.4702266827591
 10
6069.34162262932
 20
276.7321314446638
 10
6071.875375485734
 20
272.56953746626954
 10
6071.875375485734
 20
261.5742344770573
 10
6070.217417638135
 20
256.12665869208774
 10
6071.875375485734
 20
253.40287079960288
 10
6071.875375485734
 20
247.9203853303913
 10
6076.888363713775
 20
236.93955397373122
 10
6074.319540248124
 20
232.7193439944494
 10
6057.552557896204
 20
238.22849533865198
  0
LWPOLYLINE
  5
48
330
17
100
AcDbEntity
  8
M
100
AcDbPolyline
 90
39
 70
1
 10
5729.233692336171
 20
87.62779969806276
 10
5720.9121257037805
 20
93.09625777077657
 10
5710.885842917463
 20
93.09625777077657
 10
5709.219176250796
 20
95.83435300887189
 10
5700.885842917463
 20
95.83435300887189
 10
5699.219176250796
 20
98.5724482469671
 10
5692.552509584129
 20
98.5724482469671
 10
5690.885842917463
 20
101.3105434850623
 10
5682.552509584129
 20
101.3105434850623
 10
5680.8858429174625
 20
104.04863872315751
 10
5677.546796034022
 20
104.04863872315751
 10
5670.012205733368
 20
119.17761766018641
 10
5668.346196794491
 20
130.12567640137286
 10
5661.658306685579
 20
141.11292443744327
 10
5665.942042152401
 20
148.1504898472219
 10
5667.6649080540055
 20
145.32006729458612
 10
5672.572902984877
 20
145.32006729458612
 10
5679.239569651543
 20
150.79625777077655
 10
5689.2454590371135
 20
150.79625777077655
 10
5697.604021743487
 20
156.28902754925022
 10
5702.59746058738
 20
153.55452532521375
 10
5709.239569651543
 20
159.01054348506227
 10
5717.55250958413
 20
159.01054348506227
 10
5719.219176250797
 20
161.74863872315748
 10
5725.885842917463
 20
161.74863872315748
 10
5727.552509584129
 20
164.4867339612528
 10
5735.906236318209
 20
164.4867339612528
 10
5742.608708819068
 20
169.99233637267176
 10
5745.916511273839
 20
167.27521292768054
 10
5747.55250958413
 20
169.9629244374432
 10
5754.219176250796
 20
169.9629244374432
 10
5755.942042152401
 20
172.7933469900791
 10
5775.208708819067
 20
141.1409660376981
 10
5775.208708819067
 20
138.35308259211442
 10
5765.19721361442
 20
116.42314071526805
 10
5752.6802135854405
 20
95.85949781051617
 10
5742.6802135854405
 20
90.38330733432568
 10
5739.321625820352
 20
84.86562743453693
 10
5729.233692336171
 20
87.62779969806276
  0
LWPOLYLINE
  5
49
330
17
100
AcDbEntity
  8
M
100
AcDbPolyline
 90
9
 70
1
 10
7069.195940209429
 20
421.69958875362903
 10
7064.996321780288
 20
431.35871114065407
 10
7067.55250958413
 20
435.5581625326813
 10
7070.897934226293
 20
435.5581625326813
 10
7075.885891229537
 20
441.02116306004405
 10
7084.371451471447
 20
443.8092757109572
 10
7085.211649368955
 20
414.8224482469671
 10
7080.0797625764935
 20
414.8224482469671
 10
7069.195940209429
 20
421.69958875362903
  0
LWPOLYLINE
  5
4A
330
17
100
AcDbEntity
  8
M
100
AcDbPolyline
 90
35
 70
1
 10
7004.9997489942625
 20
445.0346524685513
 10
7007.538770061163
 20
451.98673396125275
 10
7010.885842917464
 20
451.98673396125275
 10
7014.249844607173
 20
457.51330816577587
 10
7024.32438014249
 20
449.2377968331938
 10
7032.664859741932
 20
446.4973535362344
 10
7037.652816745176
 20
441.03435300887185
 10
7040.998241387339
 20
441.03435300887185
 10
7045.203230866069
 20
434.1261560081007
 10
7046.870569196859
 20
425.90855994921196
 10
7056.890141589082
 20
406.7043795307831
 10
7055.225777619224
 20
403.97006729458604
 10
7056.884084304802
 20
401.24570631113545
 10
7055.217417638135
 20
395.769515834945
 10
7056.875375485734
 20
393.0457279424601
 10
7056.875375485734
 20
384.8279193241038
 10
7066.88444322179
 20
365.64387282999735
 10
7064.345314243639
 20
358.6914958660147
 10
7054.219176250797
 20
358.6914958660147
 10
7050.8654495167175
 20
364.2011897862888
 10
7040.967573030963
 20
372.3315883281584
 10
7038.559110952557
 20
368.374829199348
 10
7041.89244428589
 20
362.89863872315755
 10
7037.658382910955
 20
355.9426807500502
 10
7022.551080456323
 20
358.7003629441496
 10
7011.6781343734665
 20
373.8149528285598
 10
7010.0111133659575
 20
392.98569441491804
 10
7004.991640018913
 20
401.23197205649086
 10
7007.55250958413
 20
405.4391149136337
 10
7012.55250958413
 20
405.4391149136337
 10
7014.275375485735
 20
408.2695374662696
 10
7015.998241387339
 20
405.4391149136337
 10
7020.885842917463
 20
405.4391149136337
 10
7023.3274565051815
 20
409.4503372363133
 10
7004.9997489942625
 20
445.0346524685513
  0
LWPOLYLINE
  5
4B
330
17
100
AcDbEntity
  8
M
100
AcDbPolyline
 90
20
 70
1
 10
6977.634239697629
 20
372.3315883281584
 10
6975.942042152401
 20
369.5515495038549
 10
6973.324973352246
 20
373.85101967553845
 10
6976.658306685578
 20
379.327210151729
 10
6974.219176250796
 20
383.33435300887186
 10
6970.998241387339
 20
383.33435300887186
 10
6968.559110952557
 20
379.327210151729
 10
6970.225777619224
 20
376.5891149136338
 10
6967.6723450254385
 20
372.3941899381311
 10
6961.760936987189
 20
371.0068186638481
 10
6954.2038707193615
 20
375.1452120962305
 10
6951.683386628843
 20
379.28600738779517
 10
6946.669968626069
 20
395.7586665397673
 10
6949.190808331952
 20
402.6609657344454
 10
6952.572902984876
 20
405.4391149136337
 10
6977.664908054006
 20
405.4391149136337
 10
6985.208708819067
 20
393.0457279424601
 10
6985.208708819067
 20
379.30641142764955
 10
6980.980930368509
 20
369.5825209913642
 10
6977.634239697629
 20
372.3315883281584
  0
LWPOLYLINE
  5
4C
330
17
100
AcDbEntity
  8
M
100
AcDbPolyline
 90
6
 70
1
 10
6913.333333333334
 20
475.1742777397069
 10
6917.595162412739
 20
482.1758540844454
 10
6923.555979983835
 20
475.18101713877235
 10
6921.005545423655
 20
468.19768441447076
 10
6915.029805800878
 20
469.6001539177755
 10
6913.333333333334
 20
475.1742777397069
  0
LWPOLYLINE
  5
4D
330
17
100
AcDbEntity
  8
M
100
AcDbPolyline
 90
14
 70
1
 10
6820.967573030963
 20
493.1085462610139
 10
6824.281464048138
 20
495.83067102512314
 10
6832.68770606706
 20
487.5445181779002
 10
6836.869897532736
 20
480.6737750557194
 10
6838.551314413681
 20
472.3867918567717
 10
6830.991145783757
 20
465.48663794850654
 10
6815.069414277094
 20
461.3565647381319
 10
6806.6648105560025
 20
472.4026153429961
 10
6810.0087088190685
 20
483.3897096359244
 10
6810.0087088190685
 20
488.874542966145
 10
6817.599946443015
 20
504.1172661316895
 10
6820.225777619223
 20
499.8034006279194
 10
6818.559110952556
 20
497.0653053898242
 10
6820.967573030963
 20
493.1085462610139
  0
LWPOLYLINE
  5
4E
330
17
100
AcDbEntity
  8
M
100
AcDbPolyline
 90
71
 70
1
 10
6668.3420421524015
 20
535.4266803234123
 10
6670.885842917463
 20
539.6057815803003
 10
6685.977847986593
 20
539.6057815803003
 10
6689.249844607173
 20
536.9180700705377
 10
6690.885842917463
 20
539.6057815803003
 10
6695.998241387339
 20
539.6057815803003
 10
6697.6649080540055
 20
536.8676863422052
 10
6702.55250958413
 20
536.8676863422052
 10
6704.275375485734
 20
539.6981088948409
 10
6705.998241387339
 20
536.8676863422052
 10
6725.9982413873395
 20
536.8676863422052
 10
6727.608708819067
 20
534.2219184186504
 10
6729.219176250796
 20
536.8676863422052
 10
6735.998241387339
 20
536.8676863422052
 10
6737.608708819068
 20
534.2219184186504
 10
6740.008708819068
 20
538.1647755615074
 10
6740.008708819068
 20
581.9220183498284
 10
6721.660789838515
 20
617.5455753315514
 10
6724.219176250796
 20
621.7486387231576
 10
6727.6582770453
 20
621.7486387231576
 10
6735.991610378633
 20
610.7962577707765
 10
6739.219176250796
 20
610.7962577707765
 10
6740.942042152401
 20
613.6266803234123
 10
6742.6649080540055
 20
610.7962577707765
 10
6749.219176250797
 20
610.7962577707765
 10
6752.608708819068
 20
616.3647755615075
 10
6757.624785189587
 20
608.1240786670826
 10
6762.624785189587
 20
613.6002691432732
 10
6767.6649080540055
 20
605.3200672945861
 10
6770.9982413873395
 20
605.3200672945861
 10
6772.624785189588
 20
602.6478881908922
 10
6777.616589893409
 20
608.1151028665065
 10
6786.870487087343
 20
595.6764228720631
 10
6788.5388050806305
 20
584.713190344747
 10
6793.542042152401
 20
573.7537186637245
 10
6793.542042152401
 20
568.2213028928948
 10
6785.931746155067
 20
558.49703578519
 10
6784.219176250797
 20
561.3105434850622
 10
6779.231267559626
 20
561.3105434850622
 10
6774.231267559627
 20
566.7867339612528
 10
6767.552509584129
 20
566.7867339612528
 10
6765.89787739001
 20
569.5050582801637
 10
6757.674955962653
 20
566.8032412397465
 10
6755.200697675959
 20
562.7383883401768
 10
6753.5524093067215
 20
557.322583698396
 10
6771.875375485734
 20
532.693661626606
 10
6771.875375485734
 20
529.8887300067771
 10
6763.530784478005
 20
518.921553253762
 10
6761.0292014648385
 20
512.0719807177087
 10
6755.986150078509
 20
506.5486387231576
 10
6742.6649080540055
 20
506.5486387231576
 10
6740.998241387339
 20
503.8105434850623
 10
6737.55250958413
 20
503.8105434850623
 10
6735.942042152401
 20
506.4563114086171
 10
6734.3390116921055
 20
503.8227613667025
 10
6722.6723450254385
 20
501.08466612860724
 10
6720.967573030962
 20
498.2839692805393
 10
6717.634239697629
 20
501.0220645186345
 10
6712.624785189587
 20
492.79224639828
 10
6707.6049154388065
 20
498.29019898246884
 10
6699.316376045302
 20
490.12006729458614
 10
6695.990764603414
 20
490.12006729458614
 10
6680.931746155067
 20
470.87798816614236
 10
6679.275375485735
 20
473.59916855147424
 10
6677.608708819068
 20
470.861073313379
 10
6675.008708819068
 20
475.1325018848076
 10
6675.008708819068
 20
491.56107331337904
 10
6671.67691408066
 20
497.03473609790626
 10
6670.010247413993
 20
527.1537837169539
 10
6668.3420421524015
 20
529.8944066467124
 10
6668.3420421524015
 20
535.4266803234123
  0
LWPOLYLINE
  5
4F
330
17
100
AcDbEntity
  8
M
100
AcDbPolyline
 90
105
 70
1
 10
6530.885842917463
 20
498.33435300887186
 10
6529.219176250796
 20
501.07244824696704
 10
6505.885842917463
 20
501.07244824696704
 10
6504.219176250797
 20
503.8105434850623
 10
6495.897934226293
 20
503.8105434850623
 10
6490.885891229538
 20
509.2999239100806
 10
6482.542461675482
 20
512.0413364778417
 10
6478.324973352245
 20
518.9700672945861
 10
6480.885842917463
 20
523.1772101517289
 10
6499.3315747206725
 20
523.1772101517289
 10
6500.998241387339
 20
520.4391149136337
 10
6507.6649080540055
 20
520.4391149136337
 10
6509.3315747206725
 20
517.7010196755385
 10
6522.664908054006
 20
517.7010196755385
 10
6524.319540248125
 20
514.9826953566277
 10
6532.652873581458
 20
517.7207905947229
 10
6534.3315747206725
 20
514.9629244374433
 10
6547.55250958413
 20
514.9629244374433
 10
6550.91651127384
 20
520.4894986419663
 10
6554.262961679974
 20
517.7406286654987
 10
6560.0087088190685
 20
524.4830870430064
 10
6560.0087088190685
 20
529.8944066467124
 10
6557.532116183384
 20
533.9630945481933
 10
6550.90623631821
 20
539.4057815803004
 10
6544.219176250797
 20
539.4057815803004
 10
6542.55250958413
 20
542.1438768183956
 10
6530.998241387339
 20
542.1438768183956
 10
6529.300906364296
 20
539.3553978519678
 10
6525.967573030963
 20
542.093493090063
 10
6524.331574720672
 20
539.4057815803004
 10
6519.219176250796
 20
539.4057815803004
 10
6517.552509584129
 20
542.1438768183956
 10
6509.3315747206725
 20
542.1438768183956
 10
6507.634239697629
 20
539.3553978519678
 10
6504.275375485735
 20
542.1144648831671
 10
6500.916511273839
 20
539.3553978519678
 10
6499.275375485735
 20
542.0515495038552
 10
6494.275375485735
 20
533.8372637895695
 10
6491.675375485735
 20
538.108692360998
 10
6491.675375485735
 20
554.5504249532478
 10
6490.0
 20
560.0552301206591
 10
6492.567696599353
 20
564.2735888195953
 10
6499.2343632660195
 20
561.5354935814998
 10
6504.997129336602
 20
571.0028949831706
 10
6501.6637960032685
 20
579.2171806974563
 10
6504.249844607173
 20
583.4656891181568
 10
6507.583177940506
 20
580.7275938800615
 10
6509.275375485735
 20
583.5076327043647
 10
6510.967573030962
 20
580.7275938800615
 10
6514.300906364296
 20
583.4656891181568
 10
6516.89244428589
 20
579.2081625326814
 10
6515.225777619224
 20
576.4700672945861
 10
6517.608708819068
 20
572.5552517519836
 10
6519.275375485734
 20
575.2933469900789
 10
6524.331574720672
 20
566.9867339612528
 10
6527.6649080540055
 20
566.9867339612528
 10
6529.331574720672
 20
564.2486387231576
 10
6534.231267559627
 20
564.2486387231576
 10
6539.291451856254
 20
569.7907453337493
 10
6540.986206914792
 20
567.0065048804371
 10
6549.319540248125
 20
569.7446001185324
 10
6550.998241387339
 20
566.9867339612528
 10
6554.239569651543
 20
566.9867339612528
 10
6557.634239697629
 20
569.7752129276805
 10
6559.3315747206725
 20
566.9867339612528
 10
6562.552509584129
 20
566.9867339612528
 10
6564.219176250796
 20
569.7248291993479
 10
6579.3315747206725
 20
569.7248291993479
 10
6581.875375485734
 20
565.5457279424598
 10
6581.875375485734
 20
551.7991685514743
 10
6580.208708819068
 20
549.0610733133791
 10
6580.208708819068
 20
535.3705971229028
 10
6576.875375485734
 20
529.8944066467124
 10
6576.875375485734
 20
516.2600136567455
 10
6582.6649080540055
 20
506.74863872315757
 10
6585.979034560022
 20
506.74863872315757
 10
6624.312367893356
 20
473.8914958660146
 10
6627.6649080540055
 20
473.8914958660146
 10
6630.998241387339
 20
468.41530538982425
 10
6634.315337354364
 20
468.41530538982425
 10
6650.236055802301
 20
453.27266716678616
 10
6647.664908054006
 20
449.0486387231576
 10
6642.64451465326
 20
449.0486387231576
 10
6635.987539357734
 20
443.5804090161186
 10
6624.3390116921055
 20
440.84657089051206
 10
6622.6649080540055
 20
438.0962577707767
 10
6617.644514653259
 20
438.0962577707767
 10
6610.91651127384
 20
432.56968356625356
 10
6609.249844607173
 20
435.3077788043488
 10
6602.583177940506
 20
429.8315883281584
 10
6600.91651127384
 20
432.56968356625356
 10
6594.249844607173
 20
427.0934930900631
 10
6592.574854843294
 20
429.8452619878649
 10
6574.302970972661
 20
418.92959110411
 10
6569.331574720672
 20
418.92959110411
 10
6567.644461202254
 20
416.1579046095666
 10
6565.029439433265
 20
417.5899403402039
 10
6555.011618831919
 20
442.2767125363779
 10
6553.345279224172
 20
453.2269442444252
 10
6548.3420421524015
 20
464.18641592544776
 10
6548.3420421524015
 20
469.65631140861706
 10
6543.3420421524015
 20
477.8705971229028
 10
6543.3420421524015
 20
486.08488283718856
 10
6535.885842917463
 20
498.33435300887186
 10
6530.885842917463
 20
498.33435300887186
  0
LWPOLYLINE
  5
50
330
17
100
AcDbEntity
  8
M
100
AcDbPolyline
 90
5
 70
1
 10
6510.9617914643995
 20
567.0466159775104
 10
6514.982122130872
 20
571.009513348748
 10
6510.96467916299
 20
577.6095982245537
 10
6508.552480763106
 20
571.0047692724912
 10
6510.9617914643995
 20
567.0466159775104
  0
LWPOLYLINE
  5
51
330
17
100
AcDbEntity
  8
M
100
AcDbPolyline
 90
9
 70
1
 10
6568.324973352246
 20
584.6843530088718
 10
6566.658306685579
 20
587.4224482469671
 10
6570.942042152401
 20
594.4600136567456
 10
6575.225777619223
 20
587.4224482469671
 10
6573.559110952556
 20
584.6843530088718
 10
6575.225777619223
 20
581.9462577707766
 10
6572.638546510505
 20
577.6958066635966
 10
6566.641316856954
 20
581.9183459094638
 10
6568.324973352246
 20
584.6843530088718
  0
LWPOLYLINE
  5
52
330
17
100
AcDbEntity
  8
M
100
AcDbPolyline
 90
26
 70
1
 10
6549.219176250797
 20
577.7391149136337
 10
6547.592632448548
 20
580.4112940173276
 10
6542.592632448549
 20
574.9351035411372
 10
6540.885842917463
 20
577.7391149136337
 10
6529.239569651543
 20
577.7391149136337
 10
6525.951901324095
 20
580.4396996111803
 10
6520.925965781881
 20
574.9351035411372
 10
6516.65830668558
 20
581.9462577707766
 10
6519.219176250796
 20
586.1534006279194
 10
6524.219176250796
 20
586.1534006279194
 10
6525.885842917463
 20
588.8914958660147
 10
6539.311181319926
 20
588.8914958660147
 10
6542.583177940506
 20
586.203784356252
 10
6545.942042152401
 20
591.7219184186503
 10
6547.608708819068
 20
588.9838231805551
 10
6549.249844607173
 20
591.6799748324424
 10
6552.583177940506
 20
588.9418795943471
 10
6554.219176250797
 20
591.6295911041099
 10
6562.6649080540055
 20
591.6295911041099
 10
6565.225777619223
 20
587.4224482469671
 10
6563.550750971468
 20
584.6706187542275
 10
6565.217417638135
 20
579.194428278037
 10
6562.6723450254385
 20
575.0132375571787
 10
6556.727648330956
 20
573.6180536390859
 10
6554.219176250797
 20
577.7391149136337
 10
6549.219176250797
 20
577.7391149136337
  0
LWPOLYLINE
  5
53
330
17
100
AcDbEntity
  8
M
100
AcDbPolyline
 90
5
 70
1
 10
6499.275375485735
 20
572.1705971229028
 10
6496.658306685579
 20
576.4700672945861
 10
6499.275375485735
 20
580.7695374662694
 10
6501.89244428589
 20
576.4700672945861
 10
6499.275375485735
 20
572.1705971229028
  0
LWPOLYLINE
  5
54
330
17
100
AcDbEntity
  8
M
100
AcDbPolyline
 90
20
 70
1
 10
6463.542042152401
 20
414.95048984722183
 10
6466.873498891038
 20
409.47738234803177
 10
6468.540165557705
 20
384.8345252051746
 10
6470.221095857848
 20
382.07299685493956
 10
6466.007606815045
 20
372.38197205649095
 10
6454.311181319926
 20
372.38197205649095
 10
6447.649507744618
 20
366.9098830482024
 10
6424.33544794751
 20
364.1740495005827
 10
6422.661054360205
 20
361.42326003572265
 10
6410.059571382943
 20
362.8034224570417
 10
6394.230493812865
 20
380.5962577707767
 10
6389.183693778077
 20
380.5962577707767
 10
6388.339801272137
 20
390.30102158908574
 10
6417.552810281154
 20
443.7787135913065
 10
6444.334979971813
 20
441.02875866771205
 10
6445.998241387339
 20
438.2962577707766
 10
6459.3315747206725
 20
438.2962577707766
 10
6461.867364342626
 20
434.13031767756684
 10
6463.542042152401
 20
428.62780487401966
 10
6463.542042152401
 20
414.95048984722183
  0
ENDSEC
  0
SECTION
  2
OBJECTS
  0
DICTIONARY
  5
A
330
0
100
AcDbDictionary
281
1
  3
ACAD_COLOR
350
B
  3
ACAD_GROUP
350
C
  3
ACAD_LAYOUT
350
D
  3
ACAD_MATERIAL
350
E
  3
ACAD_MLEADERSTYLE
350
F
  3
ACAD_MLINESTYLE
350
10
  3
ACAD_PLOTSETTINGS
350
11
  3
ACAD_PLOTSTYLENAME
350
12
  3
ACAD_SCALELIST
350
14
  3
ACAD_TABLESTYLE
350
15
  3
ACAD_VISUALSTYLE
350
16
  3
EZDXF_META
350
2D
  0
DICTIONARY
  5
B
330
A
100
AcDbDictionary
281
1
  0
DICTIONARY
  5
C
330
A
100
AcDbDictionary
281
1
  0
DICTIONARY
  5
D
330
A
100
AcDbDictionary
281
1
  3
Model
350
1A
  3
Layout1
350
1E
  0
DICTIONARY
  5
E
330
A
100
AcDbDictionary
281
1
  3
ByBlock
350
1F
  3
ByLayer
350
20
  3
Global
350
21
  0
DICTIONARY
  5
F
330
A
100
AcDbDictionary
281
1
  3
Standard
350
2C
  0
DICTIONARY
  5
10
330
A
100
AcDbDictionary
281
1
  3
Standard
350
22
  0
DICTIONARY
  5
11
330
A
100
AcDbDictionary
281
1
  0
ACDBDICTIONARYWDFLT
  5
12
330
A
100
AcDbDictionary
281
1
  3
Normal
350
13
100
AcDbDictionaryWithDefault
340
13
  0
ACDBPLACEHOLDER
  5
13
330
12
  0
DICTIONARY
  5
14
330
A
100
AcDbDictionary
281
1
  0
DICTIONARY
  5
15
330
A
100
AcDbDictionary
281
1
  0
DICTIONARY
  5
16
330
A
100
AcDbDictionary
281
1
  0
LAYOUT
  5
1A
330
D
100
AcDbPlotSettings
  1

  4
A3
  6

 40
7.5
 41
20.0
 42
7.5
 43
20.0
 44
420.0
 45
297.0
 46
0.0
 47
0.0
 48
0.0
 49
0.0
140
0.0
141
0.0
142
1.0
143
1.0
 70
1024
 72
1
 73
0
 74
5
  7

 75
16
 76
0
 77
2
 78
300
147
1.0
148
0.0
149
0.0
100
AcDbLayout
  1
Model
 70
1
 71
0
 10
0.0
 20
0.0
 11
420.0
 21
297.0
 12
0.0
 22
0.0
 32
0.0
 14
1e+20
 24
1e+20
 34
1e+20
 15
-1e+20
 25
-1e+20
 35
-1e+20
146
0.0
 13
0.0
 23
0.0
 33
0.0
 16
1.0
 26
0.0
 36
0.0
 17
0.0
 27
1.0
 37
0.0
 76
1
330
17
  0
LAYOUT
  5
1E
330
D
100
AcDbPlotSettings
  1

  4
A3
  6

 40
7.5
 41
20.0
 42
7.5
 43
20.0
 44
420.0
 45
297.0
 46
0.0
 47
0.0
 48
0.0
 49
0.0
140
0.0
141
0.0
142
1.0
143
1.0
 70
0
 72
1
 73
0
 74
5
  7

 75
16
 76
0
 77
2
 78
300
147
1.0
148
0.0
149
0.0
100
AcDbLayout
  1
Layout1
 70
1
 71
1
 10
0.0
 20
0.0
 11
420.0
 21
297.0
 12
0.0
 22
0.0
 32
0.0
 14
1e+20
 24
1e+20
 34
1e+20
 15
-1e+20
 25
-1e+20
 35
-1e+20
146
0.0
 13
0.0
 23
0.0
 33
0.0
 16
1.0
 26
0.0
 36
0.0
 17
0.0
 27
1.0
 37
0.0
 76
1
330
1B
  0
MATERIAL
  5
1F
102
{ACAD_REACTORS
330
E
102
}
330
E
100
AcDbMaterial
  1
ByBlock
  2

 70
0
 40
1.0
 71
1
 41
1.0
 91
-1023410177
 42
1.0
 72
1
  3

 73
1
 74
1
 75
1
 44
0.5
 73
0
 45
1.0
 46
1.0
 77
1
  4

 78
1
 79
1
170
1
 48
1.0
171
1
  6

172
1
173
1
174
1
140
1.0
141
1.0
175
1
  7

176
1
177
1
178
1
143
1.0
179
1
  8

270
1
271
1
272
1
145
1.0
146
1.0
273
1
  9

274
1
275
1
276
1
 42
1.0
 72
1
  3

 73
1
 74
1
 75
1
 94
63
  0
MATERIAL
  5
20
102
{ACAD_REACTORS
330
E
102
}
330
E
100
AcDbMaterial
  1
ByLayer
  2

 70
0
 40
1.0
 71
1
 41
1.0
 91
-1023410177
 42
1.0
 72
1
  3

 73
1
 74
1
 75
1
 44
0.5
 73
0
 45
1.0
 46
1.0
 77
1
  4

 78
1
 79
1
170
1
 48
1.0
171
1
  6

172
1
173
1
174
1
140
1.0
141
1.0
175
1
  7

176
1
177
1
178
1
143
1.0
179
1
  8

270
1
271
1
272
1
145
1.0
146
1.0
273
1
  9

274
1
275
1
276
1
 42
1.0
 72
1
  3

 73
1
 74
1
 75
1
 94
63
  0
MATERIAL
  5
21
102
{ACAD_REACTORS
330
E
102
}
330
E
100
AcDbMaterial
  1
Global
  2

 70
0
 40
1.0
 71
1
 41
1.0
 91
-1023410177
 42
1.0
 72
1
  3

 73
1
 74
1
 75
1
 44
0.5
 73
0
 45
1.0
 46
1.0
 77
1
  4

 78
1
 79
1
170
1
 48
1.0
171
1
  6

172
1
173
1
174
1
140
1.0
141
1.0
175
1
  7

176
1
177
1
178
1
143
1.0
179
1
  8

270
1
271
1
272
1
145
1.0
146
1.0
273
1
  9

274
1
275
1
276
1
 42
1.0
 72
1
  3

 73
1
 74
1
 75
1
 94
63
  0
MLINESTYLE
  5
22
102
{ACAD_REACTORS
330
10
102
}
330
10
100
AcDbMlineStyle
  2
Standard
 70
0
  3

 62
256
 51
90.0
 52
90.0
 71
2
 49
0.5
 62
256
  6
BYLAYER
 49
-0.5
 62
256
  6
BYLAYER
  0
MLEADERSTYLE
  5
2C
102
{ACAD_REACTORS
330
F
102
}
330
F
100
AcDbMLeaderStyle
179
2
170
2
171
1
172
0
 90
2
 40
0.0
 41
0.0
173
1
 91
-1056964608
 92
-2
290
1
 42
2.0
291
1
 43
8.0
  3
Standard
 44
4.0
300

342
29
174
1
175
1
176
0
178
1
 93
-1056964608
 45
4.0
292
0
297
0
 46
4.0
 94
-1056964608
 47
1.0
 49
1.0
140
1.0
294
1
141
0.0
177
0
142
1.0
295
0
296
0
143
3.75
271
0
272
9
273
9
  0
DICTIONARY
  5
2D
330
A
100
AcDbDictionary
280
1
281
1
  3
CREATED_BY_EZDXF
350
2E
  3
WRITTEN_BY_EZDXF
350
57
  0
DICTIONARYVAR
  5
2E
330
2D
100
DictionaryVariables
280
0
  1
1.4.4 @ 2026-07-17T11:52:30.229906+00:00
  0
DICTIONARYVAR
  5
57
330
2D
100
DictionaryVariables
280
0
  1
1.4.4 @ 2026-07-17T11:52:30.245849+00:00
  0
ENDSEC
  0
EOF
