  0
SECTION
  2
HEADER
  9
$ACADVER
  1
AC1027
  9
$ACADMAINTVER
 70
105
  9
$DWGCODEPAGE
  3
ANSI_1252
  9
$LASTSAVEDBY
  1
ezdxf
  9
$REQUIREDVERSIONS
160
0
  9
$INSBASE
 10
0.0
 20
0.0
 30
0.0
  9
$EXTMIN
 10
1e+20
 20
1e+20
 30
1e+20
  9
$EXTMAX
 10
-1e+20
 20
-1e+20
 30
-1e+20
  9
$LIMMIN
 10
0.0
 20
0.0
  9
$LIMMAX
 10
420.0
 20
297.0
  9
$ORTHOMODE
 70
0
  9
$REGENMODE
 70
1
  9
$FILLMODE
 70
1
  9
$QTEXTMODE
 70
0
  9
$MIRRTEXT
 70
1
  9
$LTSCALE
 40
1.0
  9
$ATTMODE
 70
1
  9
$TEXTSIZE
 40
2.5
  9
$TRACEWID
 40
1.0
  9
$TEXTSTYLE
  7
Standard
  9
$CLAYER
  8
0
  9
$CELTYPE
  6
ByLayer
  9
$CECOLOR
 62
256
  9
$CELTSCALE
 40
1.0
  9
$DISPSILH
 70
0
  9
$DIMSCALE
 40
1.0
  9
$DIMASZ
 40
2.5
  9
$DIMEXO
 40
0.625
  9
$DIMDLI
 40
3.75
  9
$DIMRND
 40
0.0
  9
$DIMDLE
 40
0.0
  9
$DIMEXE
 40
1.25
  9
$DIMTP
 40
0.0
  9
$DIMTM
 40
0.0
  9
$DIMTXT
 40
2.5
  9
$DIMCEN
 40
2.5
  9
$DIMTSZ
 40
0.0
  9
$DIMTOL
 70
0
  9
$DIMLIM
 70
0
  9
$DIMTIH
 70
0
  9
$DIMTOH
 70
0
  9
$DIMSE1
 70
0
  9
$DIMSE2
 70
0
  9
$DIMTAD
 70
1
  9
$DIMZIN
 70
8
  9
$DIMBLK
  1

  9
$DIMASO
 70
1
  9
$DIMSHO
 70
1
  9
$DIMPOST
  1

  9
$DIMAPOST
  1

  9
$DIMALT
 70
0
  9
$DIMALTD
 70
3
  9
$DIMALTF
 40
0.03937007874
  9
$DIMLFAC
 40
1.0
  9
$DIMTOFL
 70
1
  9
$DIMTVP
 40
0.0
  9
$DIMTIX
 70
0
  9
$DIMSOXD
 70
0
  9
$DIMSAH
 70
0
  9
$DIMBLK1
  1

  9
$DIMBLK2
  1

  9
$DIMSTYLE
  2
ISO-25
  9
$DIMCLRD
 70
0
  9
$DIMCLRE
 70
0
  9
$DIMCLRT
 70
0
  9
$DIMTFAC
 40
1.0
  9
$DIMGAP
 40
0.625
  9
$DIMJUST
 70
0
  9
$DIMSD1
 70
0
  9
$DIMSD2
 70
0
  9
$DIMTOLJ
 70
0
  9
$DIMTZIN
 70
8
  9
$DIMALTZ
 70
0
  9
$DIMALTTZ
 70
0
  9
$DIMUPT
 70
0
  9
$DIMDEC
 70
2
  9
$DIMTDEC
 70
2
  9
$DIMALTU
 70
2
  9
$DIMALTTD
 70
3
  9
$DIMTXSTY
  7
Standard
  9
$DIMAUNIT
 70
0
  9
$DIMADEC
 70
0
  9
$DIMALTRND
 40
0.0
  9
$DIMAZIN
 70
0
  9
$DIMDSEP
 70
44
  9
$DIMATFIT
 70
3
  9
$DIMFRAC
 70
0
  9
$DIMLDRBLK
  1

  9
$DIMLUNIT
 70
2
  9
$DIMLWD
 70
-2
  9
$DIMLWE
 70
-2
  9
$DIMTMOVE
 70
0
  9
$DIMFXL
 40
1.0
  9
$DIMFXLON
 70
0
  9
$DIMJOGANG
 40
0.785398163397
  9
$DIMTFILL
 70
0
  9
$DIMTFILLCLR
 70
0
  9
$DIMARCSYM
 70
0
  9
$DIMLTYPE
  6

  9
$DIMLTEX1
  6

  9
$DIMLTEX2
  6

  9
$DIMTXTDIRECTION
 70
0
  9
$LUNITS
 70
2
  9
$LUPREC
 70
4
  9
$SKETCHINC
 40
1.0
  9
$FILLETRAD
 40
10.0
  9
$AUNITS
 70
0
  9
$AUPREC
 70
2
  9
$MENU
  1
.
  9
$ELEVATION
 40
0.0
  9
$PELEVATION
 40
0.0
  9
$THICKNESS
 40
0.0
  9
$LIMCHECK
 70
0
  9
$CHAMFERA
 40
0.0
  9
$CHAMFERB
 40
0.0
  9
$CHAMFERC
 40
0.0
  9
$CHAMFERD
 40
0.0
  9
$SKPOLY
 70
0
  9
$TDCREATE
 40
2461243.464953704
  9
$TDUCREATE
 40
2458532.153996898
  9
$TDUPDATE
 40
2461243.464953704
  9
$TDUUPDATE
 40
2458532.1544311
  9
$TDINDWG
 40
0.0
  9
$TDUSRTIMER
 40
0.0
  9
$USRTIMER
 70
1
  9
$ANGBASE
 50
0.0
  9
$ANGDIR
 70
0
  9
$PDMODE
 70
0
  9
$PDSIZE
 40
0.0
  9
$PLINEWID
 40
0.0
  9
$SPLFRAME
 70
0
  9
$SPLINETYPE
 70
6
  9
$SPLINESEGS
 70
8
  9
$HANDSEED
  5
3E
  9
$SURFTAB1
 70
6
  9
$SURFTAB2
 70
6
  9
$SURFTYPE
 70
6
  9
$SURFU
 70
6
  9
$SURFV
 70
6
  9
$UCSBASE
  2

  9
$UCSNAME
  2

  9
$UCSORG
 10
0.0
 20
0.0
 30
0.0
  9
$UCSXDIR
 10
1.0
 20
0.0
 30
0.0
  9
$UCSYDIR
 10
0.0
 20
1.0
 30
0.0
  9
$UCSORTHOREF
  2

  9
$UCSORTHOVIEW
 70
0
  9
$UCSORGTOP
 10
0.0
 20
0.0
 30
0.0
  9
$UCSORGBOTTOM
 10
0.0
 20
0.0
 30
0.0
  9
$UCSORGLEFT
 10
0.0
 20
0.0
 30
0.0
  9
$UCSORGRIGHT
 10
0.0
 20
0.0
 30
0.0
  9
$UCSORGFRONT
 10
0.0
 20
0.0
 30
0.0
  9
$UCSORGBACK
 10
0.0
 20
0.0
 30
0.0
  9
$PUCSBASE
  2

  9
$PUCSNAME
  2

  9
$PUCSORG
 10
0.0
 20
0.0
 30
0.0
  9
$PUCSXDIR
 10
1.0
 20
0.0
 30
0.0
  9
$PUCSYDIR
 10
0.0
 20
1.0
 30
0.0
  9
$PUCSORTHOREF
  2

  9
$PUCSORTHOVIEW
 70
0
  9
$PUCSORGTOP
 10
0.0
 20
0.0
 30
0.0
  9
$PUCSORGBOTTOM
 10
0.0
 20
0.0
 30
0.0
  9
$PUCSORGLEFT
 10
0.0
 20
0.0
 30
0.0
  9
$PUCSORGRIGHT
 10
0.0
 20
0.0
 30
0.0
  9
$PUCSORGFRONT
 10
0.0
 20
0.0
 30
0.0
  9
$PUCSORGBACK
 10
0.0
 20
0.0
 30
0.0
  9
$USERI1
 70
0
  9
$USERI2
 70
0
  9
$USERI3
 70
0
  9
$USERI4
 70
0
  9
$USERI5
 70
0
  9
$USERR1
 40
0.0
  9
$USERR2
 40
0.0
  9
$USERR3
 40
0.0
  9
$USERR4
 40
0.0
  9
$USERR5
 40
0.0
  9
$WORLDVIEW
 70
1
  9
$SHADEDGE
 70
3
  9
$SHADEDIF
 70
70
  9
$TILEMODE
 70
1
  9
$MAXACTVP
 70
64
  9
$PINSBASE
 10
0.0
 20
0.0
 30
0.0
  9
$PLIMCHECK
 70
0
  9
$PEXTMIN
 10
1e+20
 20
1e+20
 30
1e+20
  9
$PEXTMAX
 10
-1e+20
 20
-1e+20
 30
-1e+20
  9
$PLIMMIN
 10
0.0
 20
0.0
  9
$PLIMMAX
 10
420.0
 20
297.0
  9
$UNITMODE
 70
0
  9
$VISRETAIN
 70
1
  9
$PLINEGEN
 70
0
  9
$PSLTSCALE
 70
1
  9
$TREEDEPTH
 70
3020
  9
$CMLSTYLE
  2
Standard
  9
$CMLJUST
 70
0
  9
$CMLSCALE
 40
20.0
  9
$PROXYGRAPHICS
 70
1
  9
$MEASUREMENT
 70
1
  9
$CELWEIGHT
370
-1
  9
$ENDCAPS
280
0
  9
$JOINSTYLE
280
0
  9
$LWDISPLAY
290
0
  9
$INSUNITS
 70
4
  9
$HYPERLINKBASE
  1

  9
$STYLESHEET
  1

  9
$XEDIT
290
1
  9
$CEPSNTYPE
380
0
  9
$PSTYLEMODE
290
1
  9
$FINGERPRINTGUID
  2
{4BEF78F0-B420-4C44-9CFA-0F66203B8866}
  9
$VERSIONGUID
  2
{C174469B-3914-448D-89A2-96A2FCE94045}
  9
$EXTNAMES
290
1
  9
$PSVPSCALE
 40
0.0
  9
$OLESTARTUP
290
0
  9
$SORTENTS
280
127
  9
$INDEXCTL
280
0
  9
$HIDETEXT
280
1
  9
$XCLIPFRAME
280
1
  9
$HALOGAP
280
0
  9
$OBSCOLOR
 70
257
  9
$OBSLTYPE
280
0
  9
$INTERSECTIONDISPLAY
280
0
  9
$INTERSECTIONCOLOR
 70
257
  9
$DIMASSOC
280
2
  9
$PROJECTNAME
  1

  9
$CAMERADISPLAY
290
0
  9
$LENSLENGTH
 40
50.0
  9
$CAMERAHEIGHT
 40
0.0
  9
$STEPSPERSEC
 40
24.0
  9
$STEPSIZE
 40
100.0
  9
$3DDWFPREC
 40
2.0
  9
$PSOLWIDTH
 40
0.005
  9
$PSOLHEIGHT
 40
0.08
  9
$LOFTANG1
 40
1.570796326795
  9
$LOFTANG2
 40
1.570796326795
  9
$LOFTMAG1
 40
0.0
  9
$LOFTMAG2
 40
0.0
  9
$LOFTPARAM
 70
7
  9
$LOFTNORMALS
280
1
  9
$LATITUDE
 40
37.795
  9
$LONGITUDE
 40
-122.394
  9
$NORTHDIRECTION
 40
0.0
  9
$TIMEZONE
 70
-8000
  9
$LIGHTGLYPHDISPLAY
280
1
  9
$TILEMODELIGHTSYNCH
280
1
  9
$CMATERIAL
347
20
  9
$SOLIDHIST
280
0
  9
$SHOWHIST
280
1
  9
$DWFFRAME
280
2
  9
$DGNFRAME
280
2
  9
$REALWORLDSCALE
290
1
  9
$INTERFERECOLOR
 62
256
  9
$CSHADOW
280
0
  9
$SHADOWPLANELOCATION
 40
0.0
  0
ENDSEC
  0
SECTION
  2
CLASSES
  0
CLASS
  1
ACDBDICTIONARYWDFLT
  2
AcDbDictionaryWithDefault
  3
ObjectDBX Classes
 90
0
 91
0
280
0
281
0
  0
CLASS
  1
SUN
  2
AcDbSun
  3
SCENEOE
 90
1153
 91
0
280
0
281
0
  0
CLASS
  1
VISUALSTYLE
  2
AcDbVisualStyle
  3
ObjectDBX Classes
 90
4095
 91
0
280
0
281
0
  0
CLASS
  1
MATERIAL
  2
AcDbMaterial
  3
ObjectDBX Classes
 90
1153
 91
0
280
0
281
0
  0
CLASS
  1
SCALE
  2
AcDbScale
  3
ObjectDBX Classes
 90
1153
 91
0
280
0
281
0
  0
CLASS
  1
TABLESTYLE
  2
AcDbTableStyle
  3
ObjectDBX Classes
 90
4095
 91
0
280
0
281
0
  0
CLASS
  1
MLEADERSTYLE
  2
AcDbMLeaderStyle
  3
ACDB_MLEADERSTYLE_CLASS
 90
4095
 91
0
280
0
281
0
  0
CLASS
  1
DICTIONARYVAR
  2
AcDbDictionaryVar
  3
ObjectDBX Classes
 90
0
 91
0
280
0
281
0
  0
CLASS
  1
CELLSTYLEMAP
  2
AcDbCellStyleMap
  3
ObjectDBX Classes
 90
1152
 91
0
280
0
281
0
  0
CLASS
  1
MENTALRAYRENDERSETTINGS
  2
AcDbMentalRayRenderSettings
  3
SCENEOE
 90
1024
 91
0
280
0
281
0
  0
CLASS
  1
ACDBDETAILVIEWSTYLE
  2
AcDbDetailViewStyle
  3
ObjectDBX Classes
 90
1025
 91
0
280
0
281
0
  0
CLASS
  1
ACDBSECTIONVIEWSTYLE
  2
AcDbSectionViewStyle
  3
ObjectDBX Classes
 90
1025
 91
0
280
0
281
0
  0
CLASS
  1
RASTERVARIABLES
  2
AcDbRasterVariables
  3
ISM
 90
0
 91
0
280
0
281
0
  0
CLASS
  1
LAYOUT
  2
AcDbLayout
  3
ObjectDBX Classes
 90
0
 91
0
280
0
281
0
  0
CLASS
  1
ACDBPLACEHOLDER
  2
AcDbPlaceHolder
  3
ObjectDBX Classes
 90
0
 91
0
280
0
281
0
  0
ENDSEC
  0
SECTION
  2
TABLES
  0
TABLE
  2
VPORT
  5
8
330
0
100
AcDbSymbolTable
 70
1
  0
VPORT
  5
23
330
8
100
AcDbSymbolTableRecord
100
AcDbViewportTableRecord
  2
*Active
 70
0
 10
0.0
 20
0.0
 11
1.0
 21
1.0
 12
0.0
 22
0.0
 13
0.0
 23
0.0
 14
0.5
 24
0.5
 15
0.5
 25
0.5
 16
0.0
 26
0.0
 36
1.0
 17
0.0
 27
0.0
 37
0.0
 40
1000.0
 41
1.34
 42
50.0
 43
0.0
 44
0.0
 50
0.0
 51
0.0
 71
0
 72
1000
 73
1
 74
3
 75
0
 76
0
 77
0
 78
0
281
0
 65
0
146
0.0
  0
ENDTAB
  0
TABLE
  2
LTYPE
  5
2
330
0
100
AcDbSymbolTable
 70
3
  0
LTYPE
  5
24
330
2
100
AcDbSymbolTableRecord
100
AcDbLinetypeTableRecord
  2
ByBlock
 70
0
  3

 72
65
 73
0
 40
0.0
  0
LTYPE
  5
25
330
2
100
AcDbSymbolTableRecord
100
AcDbLinetypeTableRecord
  2
ByLayer
 70
0
  3

 72
65
 73
0
 40
0.0
  0
LTYPE
  5
26
330
2
100
AcDbSymbolTableRecord
100
AcDbLinetypeTableRecord
  2
Continuous
 70
0
  3

 72
65
 73
0
 40
0.0
  0
ENDTAB
  0
TABLE
  2
LAYER
  5
1
330
0
100
AcDbSymbolTable
 70
3
  0
LAYER
  5
27
330
1
100
AcDbSymbolTableRecord
100
AcDbLayerTableRecord
  2
0
 70
0
 62
7
  6
Continuous
370
-3
390
13
347
21
  0
LAYER
  5
28
330
1
100
AcDbSymbolTableRecord
100
AcDbLayerTableRecord
  2
Defpoints
 70
0
 62
7
  6
Continuous
290
0
370
-3
390
13
347
21
  0
LAYER
  5
2F
330
1
100
AcDbSymbolTableRecord
100
AcDbLayerTableRecord
  2
C
 70
0
 62
7
  6
Continuous
370
-3
390
13
347
21
  0
ENDTAB
  0
TABLE
  2
STYLE
  5
5
330
0
100
AcDbSymbolTable
 70
1
  0
STYLE
  5
29
330
5
100
AcDbSymbolTableRecord
100
AcDbTextStyleTableRecord
  2
Standard
 70
0
 40
0.0
 41
1.0
 50
0.0
 71
0
 42
2.5
  3
txt
  4

  0
ENDTAB
  0
TABLE
  2
VIEW
  5
7
330
0
100
AcDbSymbolTable
 70
0
  0
ENDTAB
  0
TABLE
  2
UCS
  5
6
330
0
100
AcDbSymbolTable
 70
0
  0
ENDTAB
  0
TABLE
  2
APPID
  5
3
330
0
100
AcDbSymbolTable
 70
3
  0
APPID
  5
2A
330
3
100
AcDbSymbolTableRecord
100
AcDbRegAppTableRecord
  2
ACAD
 70
0
  0
APPID
  5
3B
330
3
100
AcDbSymbolTableRecord
100
AcDbRegAppTableRecord
  2
HATCHBACKGROUNDCOLOR
 70
0
  0
APPID
  5
3C
330
3
100
AcDbSymbolTableRecord
100
AcDbRegAppTableRecord
  2
EZDXF
 70
0
  0
ENDTAB
  0
TABLE
  2
DIMSTYLE
  5
4
330
0
100
AcDbSymbolTable
 70
1
100
AcDbDimStyleTable
  0
DIMSTYLE
105
2B
330
4
100
AcDbSymbolTableRecord
100
AcDbDimStyleTableRecord
  2
Standard
 70
0
 40
1.0
 41
2.5
 42
0.625
 43
3.75
 44
1.25
 45
0.0
 46
0.0
 47
0.0
 48
0.0
 49
2.5
140
2.5
141
2.5
142
0.0
143
0.03937007874
144
1.0
145
0.0
146
1.0
147
0.625
148
0.0
 69
0
 70
0
 71
0
 72
0
 73
0
 74
0
 75
0
 76
0
 77
1
 78
8
 79
3
170
0
171
3
172
1
173
0
174
0
175
0
176
0
177
0
178
0
179
2
271
2
272
2
273
2
274
3
275
0
276
0
277
2
278
44
279
0
280
0
281
0
282
0
283
0
284
8
285
0
286
0
288
0
289
3
290
0
371
-2
372
-2
  0
ENDTAB
  0
TABLE
  2
BLOCK_RECORD
  5
9
330
0
100
AcDbSymbolTable
 70
2
  0
BLOCK_RECORD
  5
17
330
9
100
AcDbSymbolTableRecord
100
AcDbBlockTableRecord
  2
*Model_Space
340
1A
 70
0
280
1
281
0
  0
BLOCK_RECORD
  5
1B
330
9
100
AcDbSymbolTableRecord
100
AcDbBlockTableRecord
  2
*Paper_Space
340
1E
 70
0
280
1
281
0
  0
ENDTAB
  0
ENDSEC
  0
SECTION
  2
BLOCKS
  0
BLOCK
  5
18
330
17
100
AcDbEntity
  8
0
100
AcDbBlockBegin
  2
*Model_Space
 70
0
 10
0.0
 20
0.0
 30
0.0
  3
*Model_Space
  1

  0
ENDBLK
  5
19
330
17
100
AcDbEntity
  8
0
100
AcDbBlockEnd
  0
BLOCK
  5
1C
330
1B
100
AcDbEntity
  8
0
100
AcDbBlockBegin
  2
*Paper_Space
 70
0
 10
0.0
 20
0.0
 30
0.0
  3
*Paper_Space
  1

  0
ENDBLK
  5
1D
330
1B
100
AcDbEntity
  8
0
100
AcDbBlockEnd
  0
ENDSEC
  0
SECTION
  2
ENTITIES
  0
LWPOLYLINE
  5
30
330
17
100
AcDbEntity
  8
C
100
AcDbPolyline
 90
24
 70
1
 10
16.698231338466705
 20
42.483179177652985
 10
11.65367843862608
 20
53.5331521963508
 10
13.316264533178357
 20
56.26454363740052
 10
10.907802454771964
 20
60.22130276621085
 10
7.566457136668925
 20
57.47662625491179
 10
0.0
 20
72.66959177536569
 10
0.0
 20
83.67353761860797
 10
3.316264533178126
 20
89.12168649454333
 10
1.6495978665116429
 20
91.85978173263854
 10
4.215314562130645
 20
96.07488773258387
 10
24.32735551748255
 20
93.32145355417265
 10
25.98953256827108
 20
90.59073411359097
 10
49.32286590160451
 20
90.59073411359097
 10
50.989532568271215
 20
87.85263887549566
 10
57.65619923493781
 20
87.85263887549566
 10
60.20000000000003
 20
83.67353761860797
 10
60.20000000000003
 20
72.66507346571693
 10
57.676592635684585
 20
68.51947565291272
 10
37.67659263568457
 20
52.09090422434137
 10
32.67659263568468
 20
43.87661851005564
 10
29.241135788105275
 20
41.05463609954418
 10
27.600000000000293
 20
43.75078775143126
 10
25.984230436314704
 20
41.09630918251983
 10
16.698231338466705
 20
42.483179177652985
  0
LWPOLYLINE
  5
31
330
17
100
AcDbEntity
  8
C
100
AcDbPolyline
 90
139
 70
1
 10
151.6608712430886
 20
94.61639751796724
 10
154.21046743172917
 20
98.8050198278767
 10
164.21046743172906
 20
98.8050198278767
 10
165.88708299871558
 20
101.55945968792591
 10
175.88708299871558
 20
98.8213644498307
 10
180.8771340983958
 20
107.01930554216233
 10
192.56419416580883
 20
107.01930554216233
 10
195.9333333333335
 20
109.78681271548618
 10
199.24113578810542
 20
107.06968927049488
 10
202.5438007650624
 20
112.49549601835285
 10
214.2104674317291
 20
112.49549601835285
 10
218.3402783024323
 20
119.28018530593654
 10
223.33333333333348
 20
138.42022959105793
 10
223.33333333333348
 20
143.90533786368175
 10
228.3203451052931
 20
154.82926841178357
 10
224.24113578810545
 20
161.53082657573458
 10
220.9298865993604
 20
158.81087188497978
 10
213.31210804503843
 20
165.76360627979736
 10
218.3203451052931
 20
176.73403031654544
 10
215.93333333333354
 20
180.65554965619336
 10
214.26666666666682
 20
177.91745441809815
 10
207.6000000000001
 20
188.86983537047908
 10
205.940285151617
 20
186.14316097670658
 10
194.9801272847823
 20
201.37898482455918
 10
199.98293119984513
 20
209.59787697073384
 10
195.90780245477214
 20
216.29273133763937
 10
192.6358058341914
 20
213.60501982787673
 10
182.54380076506249
 20
213.60501982787673
 10
180.8771340983958
 20
216.34311506597192
 10
175.8808322149371
 20
216.34311506597192
 10
161.66281612173594
 20
236.95326444477206
 10
163.32987328714643
 20
250.64694830350075
 10
161.64959786651178
 20
253.40740078025757
 10
164.21046743172906
 20
257.61454363740046
 10
174.21046743172909
 20
257.61454363740046
 10
178.31626453317838
 20
264.3597817326386
 10
174.98956138929455
 20
269.82507975473345
 10
177.53926978047863
 20
276.8064241591659
 10
185.88916857094284
 20
274.06288598515624
 10
189.9829311998451
 20
280.78835316120995
 10
188.3162645331784
 20
283.5264483993053
 10
190.9333333333335
 20
287.8259185709886
 10
192.6000000000001
 20
285.08782333289327
 10
195.91725696281404
 20
290.5376026289447
 10
200.91725696281404
 20
285.06141215275414
 10
203.32462451426625
 20
289.01637313014004
 10
201.65795784759965
 20
294.4925636063306
 10
204.2104674317291
 20
298.68597220882907
 10
207.64763053080037
 20
298.68597220882907
 10
214.25496590275972
 20
290.5447911255221
 10
217.55583523760947
 20
295.9676478899181
 10
225.9995804769196
 20
293.1932744541449
 10
228.5420421524007
 20
289.01637313014004
 10
226.875375485734
 20
283.54018265394967
 10
230.93333333333342
 20
276.87353761860754
 10
233.32462451426628
 20
280.8020874158543
 10
231.65795784759956
 20
286.27827789204485
 10
234.21046743172914
 20
290.47168649454335
 10
237.65619923493787
 20
290.47168649454335
 10
239.26666666666685
 20
287.8259185709886
 10
241.65508718420082
 20
291.74975227836586
 10
238.3217538508675
 20
299.9640379926516
 10
240.8670861897474
 20
304.1456554065258
 10
249.31083142905752
 20
306.9200288422992
 10
251.88373546682186
 20
302.69311506597194
 10
250.21706880015526
 20
299.95501982787664
 10
254.34704851926415
 20
293.1700531464835
 10
259.2505902961474
 20
287.7995073908495
 10
260.93333333333345
 20
290.5640138090838
 10
262.6561992349379
 20
287.73359125644816
 10
267.66427562504157
 20
287.73359125644816
 10
272.68135749955167
 20
276.743792864664
 10
279.3432593023508
 20
271.2715163837933
 10
284.3228659016046
 20
263.09073411359094
 10
302.6561992349379
 20
263.09073411359094
 10
307.6000000000001
 20
254.96877571384567
 10
312.5438007650625
 20
263.09073411359094
 10
315.9895325682712
 20
263.09073411359094
 10
319.32286590160453
 20
257.61454363740046
 10
329.32286590160453
 20
257.61454363740046
 10
332.6160763705196
 20
252.20426929561134
 10
337.6058776615728
 20
257.669289757241
 10
345.2108160862989
 20
247.95186843675788
 10
343.53696915156274
 20
242.45208565119637
 10
346.8666666666668
 20
228.7765422855903
 10
346.8666666666668
 20
220.52221632286006
 10
344.33502036619143
 20
216.36308311493625
 10
337.55898778028535
 20
213.58006973143907
 10
334.9829311998451
 20
217.8121626850196
 10
338.3333333333335
 20
223.3163947614647
 10
338.3333333333335
 20
231.4607954667791
 10
334.3002617626469
 20
235.43625172931303
 10
330.208462068596
 20
226.02511243299605
 10
333.54048514419753
 20
217.81405556812072
 10
331.0032720912389
 20
210.86692458978152
 10
314.32286590160453
 20
210.86692458978152
 10
312.6561992349379
 20
208.1288293516862
 10
307.5438007650624
 20
208.1288293516862
 10
305.9333333333335
 20
210.77459727524106
 10
304.32286590160453
 20
208.1288293516862
 10
299.21046743172906
 20
208.1288293516862
 10
297.6000000000001
 20
210.77459727524106
 10
295.9895325682712
 20
208.1288293516862
 10
279.3228659016045
 20
208.1288293516862
 10
276.8666666666668
 20
204.09364489428862
 10
276.8666666666668
 20
168.55448999956002
 10
281.86666666666684
 20
160.3402042852743
 10
281.86666666666684
 20
154.86401380908376
 10
283.5305355098895
 20
152.1305149952178
 10
285.2028783547274
 20
135.64599266753098
 10
283.5504021334885
 20
132.93121030406718
 10
286.8625120245761
 20
127.48988691156615
 10
290.19584535790943
 20
105.58512500680428
 10
291.86666666666684
 20
102.84020428527441
 10
291.86666666666684
 20
94.62591857098867
 10
293.543771944039
 20
91.87067418673422
 10
290.97886949306275
 20
84.84772699953724
 10
284.2239492728824
 20
90.39641146611399
 10
267.5384630273825
 20
93.13759849216041
 10
264.21046743172917
 20
98.60501982787673
 10
259.21046743172917
 20
98.60501982787673
 10
257.54380076506243
 20
101.34311506597193
 10
254.3228659016046
 20
101.34311506597193
 10
252.60000000000016
 20
98.51269251333628
 10
250.87713409839574
 20
101.34311506597193
 10
247.6527210469328
 20
101.34311506597193
 10
232.67446917760026
 20
79.4701123361531
 10
219.3024725008581
 20
68.48597220882901
 10
215.9849689860387
 20
68.48597220882901
 10
204.33296911439646
 20
52.07805402223098
 10
192.66046232369672
 20
46.59912226333107
 10
187.6441079261081
 20
41.10501982787673
 10
174.3228659016045
 20
41.10501982787673
 10
172.64772715477838
 20
38.35300617237647
 10
166.696067255381
 20
39.74982431203089
 10
161.67018909036236
 20
50.75889076873863
 10
156.67118568798134
 20
80.87193507355761
 10
153.3388112863321
 20
86.34655016198145
 10
151.6608712430886
 20
94.61639751796724
  0
LWPOLYLINE
  5
32
330
17
100
AcDbEntity
  8
C
100
AcDbPolyline
 90
5
 70
1
 10
241.88373546682186
 20
157.57406744692426
 10
244.26666666666685
 20
153.65925190432193
 10
246.64959786651175
 20
157.57406744692426
 10
244.26666666666685
 20
161.48888298952667
 10
241.88373546682186
 20
157.57406744692426
  0
LWPOLYLINE
  5
33
330
17
100
AcDbEntity
  8
C
100
AcDbPolyline
 90
5
 70
1
 10
242.57736298941091
 20
137.26786985029005
 10
244.9895613892946
 20
143.87269880235255
 10
242.6226370105894
 20
147.761217424511
 10
240.21043861070578
 20
141.1563884724485
 10
242.57736298941091
 20
137.26786985029005
  0
LWPOLYLINE
  5
34
330
17
100
AcDbEntity
  8
C
100
AcDbPolyline
 90
7
 70
1
 10
229.26666666666685
 20
188.86983537047908
 10
225.98953256827124
 20
183.4859722088291
 10
222.65619923493784
 20
183.4859722088291
 10
220.21706880015523
 20
179.47882935168624
 10
224.26666666666682
 20
172.82591857098862
 10
231.64959786651173
 20
184.95501982787664
 10
229.26666666666685
 20
188.86983537047908
  0
LWPOLYLINE
  5
35
330
17
100
AcDbEntity
  8
C
100
AcDbPolyline
 90
5
 70
1
 10
197.60000000000022
 20
298.7782995233695
 10
200.21706880015523
 20
294.4788293516862
 10
197.60000000000022
 20
290.1793591800029
 10
194.9829311998451
 20
294.4788293516862
 10
197.60000000000022
 20
298.7782995233695
  0
LWPOLYLINE
  5
36
330
17
100
AcDbEntity
  8
C
100
AcDbPolyline
 90
23
 70
1
 10
1618.3333333333333
 20
1.4433882098403572
 10
1618.3333333333333
 20
26.173537618607746
 10
1619.982931199845
 20
28.883591256448128
 10
1618.3333333333333
 20
31.59364489428851
 10
1618.3333333333333
 20
39.877815617545664
 10
1622.619749311998
 20
44.10299708222964
 10
1624.2666666666667
 20
41.397347142417274
 10
1629.2256544469521
 20
49.544255638599985
 10
1636.001687032858
 20
46.76124225510281
 10
1640.9333333333334
 20
38.659251904321955
 10
1642.6
 20
41.397347142417274
 10
1645.9333333333332
 20
35.92115666622675
 10
1647.6000000000001
 20
38.659251904321955
 10
1651.883735466822
 20
31.621686494543333
 10
1650.213822908618
 20
28.87825872035188
 10
1656.8666666666668
 20
15.216168860073708
 10
1656.8666666666668
 20
9.688882989526636
 10
1654.3228659016042
 20
5.509781732638608
 10
1644.322865901604
 20
5.509781732638608
 10
1642.6561992349375
 20
2.7716864945434017
 10
1622.6561992349375
 20
2.7716864945434017
 10
1620.9690857165197
 20
0.0
 10
1618.3333333333333
 20
1.4433882098403572
  0
LWPOLYLINE
  5
37
330
17
100
AcDbEntity
  8
C
100
AcDbPolyline
 90
49
 70
1
 10
2975.036458466498
 20
436.7754000249621
 10
2959.2137503652825
 20
460.03359125644806
 10
2927.5438007650628
 20
460.03359125644806
 10
2925.877134098396
 20
462.77168649454336
 10
2914.215874165841
 20
462.77168649454336
 10
2904.215874165841
 20
476.4621626850195
 10
2854.2104674317293
 20
476.4621626850195
 10
2852.5438007650623
 20
479.2002579231147
 10
2834.316234892898
 20
479.2002579231147
 10
2825.9911604334548
 20
468.2587314907031
 10
2814.3303028730384
 20
465.52199961427874
 10
2812.656199234938
 20
462.77168649454336
 10
2805.989532568271
 20
462.77168649454336
 10
2804.3228659016045
 20
460.03359125644806
 10
2794.2308608324756
 20
460.03359125644806
 10
2784.230860832476
 20
468.2478769707338
 10
2779.222558740559
 20
468.2478769707338
 10
2774.212337120957
 20
473.7352625541078
 10
2764.201916198202
 20
476.4762111401001
 10
2762.5476544588637
 20
479.1939268547274
 10
2737.6598234755847
 20
476.46811679465407
 10
2735.9895325682714
 20
473.7240674469243
 10
2729.322865901605
 20
473.7240674469243
 10
2727.656199234938
 20
470.9859722088291
 10
2720.989532568271
 20
470.9859722088291
 10
2719.3228659016045
 20
468.2478769707338
 10
2705.9895325682714
 20
468.2478769707338
 10
2704.3228659016045
 20
465.50978173263854
 10
2695.8771340983963
 20
465.50978173263854
 10
2694.2104674317293
 20
468.2478769707338
 10
2690.877134098396
 20
468.2478769707338
 10
2688.333333333334
 20
472.42697822762193
 10
2688.333333333334
 20
477.9592519043219
 10
2690.0000000000005
 20
480.6973471424171
 10
2690.0000000000005
 20
494.3787651471634
 10
2699.198576012353
 20
517.733591256448
 10
3017.656199234938
 20
517.733591256448
 10
3020.2000000000003
 20
513.5544899995602
 10
3020.2000000000003
 20
458.7277143651707
 10
3014.312834220393
 20
451.81930554216245
 10
3007.644107926108
 20
451.81930554216245
 10
3002.6441079261076
 20
446.3431150659719
 10
2995.9895325682714
 20
446.3431150659719
 10
2992.656199234938
 20
440.8669245897814
 10
2989.3228659016045
 20
440.8669245897814
 10
2987.6561992349384
 20
438.1288293516862
 10
2980.9895325682714
 20
438.1288293516862
 10
2979.3108314290575
 20
435.3709631944066
 10
2975.036458466498
 20
436.7754000249621
  0
LWPOLYLINE
  5
38
330
17
100
AcDbEntity
  8
C
100
AcDbPolyline
 90
60
 70
1
 10
3113.333333333334
 20
401.2227002286839
 10
3113.333333333334
 20
412.1888829895267
 10
3111.6666666666674
 20
414.92697822762193
 10
3111.6666666666674
 20
439.5698353704791
 10
3110.000000000001
 20
442.30793060857434
 10
3110.000000000001
 20
456.05448999956
 10
3112.5438007650628
 20
460.23359125644805
 10
3324.322865901605
 20
460.23359125644805
 10
3327.644164762391
 20
454.77717169944196
 10
3335.9774980957245
 20
457.5152669375372
 10
3337.6000000000004
 20
454.8497280947981
 10
3340.9172569628145
 20
460.2995073908493
 10
3345.917256962814
 20
454.82331691465896
 10
3349.2104674317297
 20
460.23359125644805
 10
3352.6561992349384
 20
460.23359125644805
 10
3357.6561992349384
 20
452.0193055421624
 10
3379.2104674317293
 20
452.0193055421624
 10
3380.933333333334
 20
454.8497280947981
 10
3382.6000000000004
 20
452.11163285670284
 10
3384.2104674317297
 20
454.7574007802576
 10
3387.5438007650628
 20
454.7574007802576
 10
3390.8771340983963
 20
460.23359125644805
 10
3399.302472500858
 20
460.23359125644805
 10
3402.600000000001
 20
457.52490795358136
 10
3405.9588642118956
 20
460.28397498478057
 10
3410.9895325682714
 20
452.0193055421624
 10
3417.6561992349384
 20
452.0193055421624
 10
3420.2000000000007
 20
447.84020428527424
 10
3420.2000000000007
 20
442.30793060857434
 10
3418.5333333333338
 20
439.5698353704791
 10
3418.5333333333338
 20
425.87935918000284
 10
3414.321285366625
 20
418.95956609183884
 10
3354.20892689814
 20
421.702788799726
 10
3352.5438007650628
 20
424.43835316121005
 10
3347.656199234938
 20
424.43835316121005
 10
3345.9895325682714
 20
421.7002579231147
 10
3324.322865901605
 20
421.7002579231147
 10
3322.656199234938
 20
418.9621626850195
 10
3310.989532568272
 20
418.9621626850195
 10
3309.322865901605
 20
416.2240674469243
 10
3294.310774592775
 20
416.2240674469243
 10
3279.310774592775
 20
399.7954960183528
 10
3259.322865901605
 20
399.7954960183528
 10
3257.6561992349384
 20
397.05740078025764
 10
3254.2144151386137
 20
397.05740078025764
 10
3240.8810818052807
 20
416.2240674469243
 10
3237.5438007650628
 20
416.2240674469243
 10
3235.8771340983963
 20
418.9621626850195
 10
3220.9895325682714
 20
418.9621626850195
 10
3219.322865901605
 20
416.2240674469243
 10
3180.889225407226
 20
416.2240674469243
 10
3165.9494097038532
 20
432.58672274109443
 10
3162.6561992349384
 20
427.17644839930523
 10
3157.6395839791276
 20
427.17644839930523
 10
3145.9729173124606
 20
416.2240674469243
 10
3140.977441259442
 20
416.2240674469243
 10
3130.9774412594415
 20
405.27168649454336
 10
3125.9743338929015
 20
405.27168649454336
 10
3117.600000000001
 20
397.01698594296965
 10
3113.333333333334
 20
401.2227002286839
  0
LWPOLYLINE
  5
39
330
17
100
AcDbEntity
  8
C
100
AcDbPolyline
 90
25
 70
1
 10
3308.375349054289
 20
149.26271430510084
 10
3305.8771340983963
 20
153.36692458978152
 10
3245.8771340983963
 20
153.36692458978152
 10
3243.332107238213
 20
157.54804014579616
 10
3245.001587810093
 20
195.94609329902423
 10
3250.8871657796076
 20
202.85263887549576
 10
3255.8771340983963
 20
202.85263887549576
 10
3257.5438007650628
 20
205.59073411359097
 10
3270.8975274991426
 20
205.59073411359097
 10
3277.564194165809
 20
211.06692458978148
 10
3289.310774592775
 20
211.06692458978148
 10
3299.310774592775
 20
200.11454363740043
 10
3304.322865901605
 20
200.11454363740043
 10
3305.958864211895
 20
197.4268321276378
 10
3309.2765258383615
 20
200.15205417794903
 10
3314.310774592775
 20
194.63835316121003
 10
3320.9691391675256
 20
194.63835316121003
 10
3324.3432593023513
 20
191.86675447903144
 10
3326.8666666666672
 20
187.72115666622668
 10
3326.8666666666672
 20
182.23180502635782
 10
3330.191988856892
 20
171.30574640133355
 10
3335.19584535791
 20
163.08512500680428
 10
3336.871001401475
 20
152.07695672052012
 10
3334.321026928272
 20
147.88771294311542
 10
3308.375349054289
 20
149.26271430510084
  0
LWPOLYLINE
  5
3A
330
17
100
AcDbEntity
  8
C
100
AcDbPolyline
 90
12
 70
1
 10
4581.728832942371
 20
294.38049511855746
 10
4578.333333333333
 20
297.16965551169574
 10
4578.333333333333
 20
343.8599598616697
 10
4607.654572988205
 20
345.2362629475105
 10
4610.200000000001
 20
341.05448999956
 10
4610.200000000001
 20
330.10210904717894
 10
4611.866666666668
 20
327.36401380908376
 10
4611.866666666668
 20
308.1973471424171
 10
4613.533333333333
 20
305.4592519043219
 10
4613.533333333333
 20
297.18888298952675
 10
4610.987906321537
 20
293.0071100415761
 10
4581.728832942371
 20
294.38049511855746
  0
ENDSEC
  0
SECTION
  2
OBJECTS
  0
DICTIONARY
  5
A
330
0
100
AcDbDictionary
281
1
  3
ACAD_COLOR
350
B
  3
ACAD_GROUP
350
C
  3
ACAD_LAYOUT
350
D
  3
ACAD_MATERIAL
350
E
  3
ACAD_MLEADERSTYLE
350
F
  3
ACAD_MLINESTYLE
350
10
  3
ACAD_PLOTSETTINGS
350
11
  3
ACAD_PLOTSTYLENAME
350
12
  3
ACAD_SCALELIST
350
14
  3
ACAD_TABLESTYLE
350
15
  3
ACAD_VISUALSTYLE
350
16
  3
EZDXF_META
350
2D
  0
DICTIONARY
  5
B
330
A
100
AcDbDictionary
281
1
  0
DICTIONARY
  5
C
330
A
100
AcDbDictionary
281
1
  0
DICTIONARY
  5
D
330
A
100
AcDbDictionary
281
1
  3
Model
350
1A
  3
Layout1
350
1E
  0
DICTIONARY
  5
E
330
A
100
AcDbDictionary
281
1
  3
ByBlock
350
1F
  3
ByLayer
350
20
  3
Global
350
21
  0
DICTIONARY
  5
F
330
A
100
AcDbDictionary
281
1
  3
Standard
350
2C
  0
DICTIONARY
  5
10
330
A
100
AcDbDictionary
281
1
  3
Standard
350
22
  0
DICTIONARY
  5
11
330
A
100
AcDbDictionary
281
1
  0
ACDBDICTIONARYWDFLT
  5
12
330
A
100
AcDbDictionary
281
1
  3
Normal
350
13
100
AcDbDictionaryWithDefault
340
13
  0
ACDBPLACEHOLDER
  5
13
330
12
  0
DICTIONARY
  5
14
330
A
100
AcDbDictionary
281
1
  0
DICTIONARY
  5
15
330
A
100
AcDbDictionary
281
1
  0
DICTIONARY
  5
16
330
A
100
AcDbDictionary
281
1
  0
LAYOUT
  5
1A
330
D
100
AcDbPlotSettings
  1

  4
A3
  6

 40
7.5
 41
20.0
 42
7.5
 43
20.0
 44
420.0
 45
297.0
 46
0.0
 47
0.0
 48
0.0
 49
0.0
140
0.0
141
0.0
142
1.0
143
1.0
 70
1024
 72
1
 73
0
 74
5
  7

 75
16
 76
0
 77
2
 78
300
147
1.0
148
0.0
149
0.0
100
AcDbLayout
  1
Model
 70
1
 71
0
 10
0.0
 20
0.0
 11
420.0
 21
297.0
 12
0.0
 22
0.0
 32
0.0
 14
1e+20
 24
1e+20
 34
1e+20
 15
-1e+20
 25
-1e+20
 35
-1e+20
146
0.0
 13
0.0
 23
0.0
 33
0.0
 16
1.0
 26
0.0
 36
0.0
 17
0.0
 27
1.0
 37
0.0
 76
1
330
17
  0
LAYOUT
  5
1E
330
D
100
AcDbPlotSettings
  1

  4
A3
  6

 40
7.5
 41
20.0
 42
7.5
 43
20.0
 44
420.0
 45
297.0
 46
0.0
 47
0.0
 48
0.0
 49
0.0
140
0.0
141
0.0
142
1.0
143
1.0
 70
0
 72
1
 73
0
 74
5
  7

 75
16
 76
0
 77
2
 78
300
147
1.0
148
0.0
149
0.0
100
AcDbLayout
  1
Layout1
 70
1
 71
1
 10
0.0
 20
0.0
 11
420.0
 21
297.0
 12
0.0
 22
0.0
 32
0.0
 14
1e+20
 24
1e+20
 34
1e+20
 15
-1e+20
 25
-1e+20
 35
-1e+20
146
0.0
 13
0.0
 23
0.0
 33
0.0
 16
1.0
 26
0.0
 36
0.0
 17
0.0
 27
1.0
 37
0.0
 76
1
330
1B
  0
MATERIAL
  5
1F
102
{ACAD_REACTORS
330
E
102
}
330
E
100
AcDbMaterial
  1
ByBlock
  2

 70
0
 40
1.0
 71
1
 41
1.0
 91
-1023410177
 42
1.0
 72
1
  3

 73
1
 74
1
 75
1
 44
0.5
 73
0
 45
1.0
 46
1.0
 77
1
  4

 78
1
 79
1
170
1
 48
1.0
171
1
  6

172
1
173
1
174
1
140
1.0
141
1.0
175
1
  7

176
1
177
1
178
1
143
1.0
179
1
  8

270
1
271
1
272
1
145
1.0
146
1.0
273
1
  9

274
1
275
1
276
1
 42
1.0
 72
1
  3

 73
1
 74
1
 75
1
 94
63
  0
MATERIAL
  5
20
102
{ACAD_REACTORS
330
E
102
}
330
E
100
AcDbMaterial
  1
ByLayer
  2

 70
0
 40
1.0
 71
1
 41
1.0
 91
-1023410177
 42
1.0
 72
1
  3

 73
1
 74
1
 75
1
 44
0.5
 73
0
 45
1.0
 46
1.0
 77
1
  4

 78
1
 79
1
170
1
 48
1.0
171
1
  6

172
1
173
1
174
1
140
1.0
141
1.0
175
1
  7

176
1
177
1
178
1
143
1.0
179
1
  8

270
1
271
1
272
1
145
1.0
146
1.0
273
1
  9

274
1
275
1
276
1
 42
1.0
 72
1
  3

 73
1
 74
1
 75
1
 94
63
  0
MATERIAL
  5
21
102
{ACAD_REACTORS
330
E
102
}
330
E
100
AcDbMaterial
  1
Global
  2

 70
0
 40
1.0
 71
1
 41
1.0
 91
-1023410177
 42
1.0
 72
1
  3

 73
1
 74
1
 75
1
 44
0.5
 73
0
 45
1.0
 46
1.0
 77
1
  4

 78
1
 79
1
170
1
 48
1.0
171
1
  6

172
1
173
1
174
1
140
1.0
141
1.0
175
1
  7

176
1
177
1
178
1
143
1.0
179
1
  8

270
1
271
1
272
1
145
1.0
146
1.0
273
1
  9

274
1
275
1
276
1
 42
1.0
 72
1
  3

 73
1
 74
1
 75
1
 94
63
  0
MLINESTYLE
  5
22
102
{ACAD_REACTORS
330
10
102
}
330
10
100
AcDbMlineStyle
  2
Standard
 70
0
  3

 62
256
 51
90.0
 52
90.0
 71
2
 49
0.5
 62
256
  6
BYLAYER
 49
-0.5
 62
256
  6
BYLAYER
  0
MLEADERSTYLE
  5
2C
102
{ACAD_REACTORS
330
F
102
}
330
F
100
AcDbMLeaderStyle
179
2
170
2
171
1
172
0
 90
2
 40
0.0
 41
0.0
173
1
 91
-1056964608
 92
-2
290
1
 42
2.0
291
1
 43
8.0
  3
Standard
 44
4.0
300

342
29
174
1
175
1
176
0
178
1
 93
-1056964608
 45
4.0
292
0
297
0
 46
4.0
 94
-1056964608
 47
1.0
 49
1.0
140
1.0
294
1
141
0.0
177
0
142
1.0
295
0
296
0
143
3.75
271
0
272
9
273
9
  0
DICTIONARY
  5
2D
330
A
100
AcDbDictionary
280
1
281
1
  3
CREATED_BY_EZDXF
350
2E
  3
WRITTEN_BY_EZDXF
350
3D
  0
DICTIONARYVAR
  5
2E
330
2D
100
DictionaryVariables
280
0
  1
1.4.4 @ 2026-07-21T08:09:32.653366+00:00
  0
DICTIONARYVAR
  5
3D
330
2D
100
DictionaryVariables
280
0
  1
1.4.4 @ 2026-07-21T08:09:32.655674+00:00
  0
ENDSEC
  0
EOF
