  0
SECTION
  2
HEADER
  9
$ACADVER
  1
AC1027
  9
$ACADMAINTVER
 70
105
  9
$DWGCODEPAGE
  3
ANSI_1252
  9
$LASTSAVEDBY
  1
ezdxf
  9
$REQUIREDVERSIONS
160
0
  9
$INSBASE
 10
0.0
 20
0.0
 30
0.0
  9
$EXTMIN
 10
1e+20
 20
1e+20
 30
1e+20
  9
$EXTMAX
 10
-1e+20
 20
-1e+20
 30
-1e+20
  9
$LIMMIN
 10
0.0
 20
0.0
  9
$LIMMAX
 10
420.0
 20
297.0
  9
$ORTHOMODE
 70
0
  9
$REGENMODE
 70
1
  9
$FILLMODE
 70
1
  9
$QTEXTMODE
 70
0
  9
$MIRRTEXT
 70
1
  9
$LTSCALE
 40
1.0
  9
$ATTMODE
 70
1
  9
$TEXTSIZE
 40
2.5
  9
$TRACEWID
 40
1.0
  9
$TEXTSTYLE
  7
Standard
  9
$CLAYER
  8
0
  9
$CELTYPE
  6
ByLayer
  9
$CECOLOR
 62
256
  9
$CELTSCALE
 40
1.0
  9
$DISPSILH
 70
0
  9
$DIMSCALE
 40
1.0
  9
$DIMASZ
 40
2.5
  9
$DIMEXO
 40
0.625
  9
$DIMDLI
 40
3.75
  9
$DIMRND
 40
0.0
  9
$DIMDLE
 40
0.0
  9
$DIMEXE
 40
1.25
  9
$DIMTP
 40
0.0
  9
$DIMTM
 40
0.0
  9
$DIMTXT
 40
2.5
  9
$DIMCEN
 40
2.5
  9
$DIMTSZ
 40
0.0
  9
$DIMTOL
 70
0
  9
$DIMLIM
 70
0
  9
$DIMTIH
 70
0
  9
$DIMTOH
 70
0
  9
$DIMSE1
 70
0
  9
$DIMSE2
 70
0
  9
$DIMTAD
 70
1
  9
$DIMZIN
 70
8
  9
$DIMBLK
  1

  9
$DIMASO
 70
1
  9
$DIMSHO
 70
1
  9
$DIMPOST
  1

  9
$DIMAPOST
  1

  9
$DIMALT
 70
0
  9
$DIMALTD
 70
3
  9
$DIMALTF
 40
0.03937007874
  9
$DIMLFAC
 40
1.0
  9
$DIMTOFL
 70
1
  9
$DIMTVP
 40
0.0
  9
$DIMTIX
 70
0
  9
$DIMSOXD
 70
0
  9
$DIMSAH
 70
0
  9
$DIMBLK1
  1

  9
$DIMBLK2
  1

  9
$DIMSTYLE
  2
ISO-25
  9
$DIMCLRD
 70
0
  9
$DIMCLRE
 70
0
  9
$DIMCLRT
 70
0
  9
$DIMTFAC
 40
1.0
  9
$DIMGAP
 40
0.625
  9
$DIMJUST
 70
0
  9
$DIMSD1
 70
0
  9
$DIMSD2
 70
0
  9
$DIMTOLJ
 70
0
  9
$DIMTZIN
 70
8
  9
$DIMALTZ
 70
0
  9
$DIMALTTZ
 70
0
  9
$DIMUPT
 70
0
  9
$DIMDEC
 70
2
  9
$DIMTDEC
 70
2
  9
$DIMALTU
 70
2
  9
$DIMALTTD
 70
3
  9
$DIMTXSTY
  7
Standard
  9
$DIMAUNIT
 70
0
  9
$DIMADEC
 70
0
  9
$DIMALTRND
 40
0.0
  9
$DIMAZIN
 70
0
  9
$DIMDSEP
 70
44
  9
$DIMATFIT
 70
3
  9
$DIMFRAC
 70
0
  9
$DIMLDRBLK
  1

  9
$DIMLUNIT
 70
2
  9
$DIMLWD
 70
-2
  9
$DIMLWE
 70
-2
  9
$DIMTMOVE
 70
0
  9
$DIMFXL
 40
1.0
  9
$DIMFXLON
 70
0
  9
$DIMJOGANG
 40
0.785398163397
  9
$DIMTFILL
 70
0
  9
$DIMTFILLCLR
 70
0
  9
$DIMARCSYM
 70
0
  9
$DIMLTYPE
  6

  9
$DIMLTEX1
  6

  9
$DIMLTEX2
  6

  9
$DIMTXTDIRECTION
 70
0
  9
$LUNITS
 70
2
  9
$LUPREC
 70
4
  9
$SKETCHINC
 40
1.0
  9
$FILLETRAD
 40
10.0
  9
$AUNITS
 70
0
  9
$AUPREC
 70
2
  9
$MENU
  1
.
  9
$ELEVATION
 40
0.0
  9
$PELEVATION
 40
0.0
  9
$THICKNESS
 40
0.0
  9
$LIMCHECK
 70
0
  9
$CHAMFERA
 40
0.0
  9
$CHAMFERB
 40
0.0
  9
$CHAMFERC
 40
0.0
  9
$CHAMFERD
 40
0.0
  9
$SKPOLY
 70
0
  9
$TDCREATE
 40
2461243.464953704
  9
$TDUCREATE
 40
2458532.153996898
  9
$TDUPDATE
 40
2461243.464953704
  9
$TDUUPDATE
 40
2458532.1544311
  9
$TDINDWG
 40
0.0
  9
$TDUSRTIMER
 40
0.0
  9
$USRTIMER
 70
1
  9
$ANGBASE
 50
0.0
  9
$ANGDIR
 70
0
  9
$PDMODE
 70
0
  9
$PDSIZE
 40
0.0
  9
$PLINEWID
 40
0.0
  9
$SPLFRAME
 70
0
  9
$SPLINETYPE
 70
6
  9
$SPLINESEGS
 70
8
  9
$HANDSEED
  5
5D
  9
$SURFTAB1
 70
6
  9
$SURFTAB2
 70
6
  9
$SURFTYPE
 70
6
  9
$SURFU
 70
6
  9
$SURFV
 70
6
  9
$UCSBASE
  2

  9
$UCSNAME
  2

  9
$UCSORG
 10
0.0
 20
0.0
 30
0.0
  9
$UCSXDIR
 10
1.0
 20
0.0
 30
0.0
  9
$UCSYDIR
 10
0.0
 20
1.0
 30
0.0
  9
$UCSORTHOREF
  2

  9
$UCSORTHOVIEW
 70
0
  9
$UCSORGTOP
 10
0.0
 20
0.0
 30
0.0
  9
$UCSORGBOTTOM
 10
0.0
 20
0.0
 30
0.0
  9
$UCSORGLEFT
 10
0.0
 20
0.0
 30
0.0
  9
$UCSORGRIGHT
 10
0.0
 20
0.0
 30
0.0
  9
$UCSORGFRONT
 10
0.0
 20
0.0
 30
0.0
  9
$UCSORGBACK
 10
0.0
 20
0.0
 30
0.0
  9
$PUCSBASE
  2

  9
$PUCSNAME
  2

  9
$PUCSORG
 10
0.0
 20
0.0
 30
0.0
  9
$PUCSXDIR
 10
1.0
 20
0.0
 30
0.0
  9
$PUCSYDIR
 10
0.0
 20
1.0
 30
0.0
  9
$PUCSORTHOREF
  2

  9
$PUCSORTHOVIEW
 70
0
  9
$PUCSORGTOP
 10
0.0
 20
0.0
 30
0.0
  9
$PUCSORGBOTTOM
 10
0.0
 20
0.0
 30
0.0
  9
$PUCSORGLEFT
 10
0.0
 20
0.0
 30
0.0
  9
$PUCSORGRIGHT
 10
0.0
 20
0.0
 30
0.0
  9
$PUCSORGFRONT
 10
0.0
 20
0.0
 30
0.0
  9
$PUCSORGBACK
 10
0.0
 20
0.0
 30
0.0
  9
$USERI1
 70
0
  9
$USERI2
 70
0
  9
$USERI3
 70
0
  9
$USERI4
 70
0
  9
$USERI5
 70
0
  9
$USERR1
 40
0.0
  9
$USERR2
 40
0.0
  9
$USERR3
 40
0.0
  9
$USERR4
 40
0.0
  9
$USERR5
 40
0.0
  9
$WORLDVIEW
 70
1
  9
$SHADEDGE
 70
3
  9
$SHADEDIF
 70
70
  9
$TILEMODE
 70
1
  9
$MAXACTVP
 70
64
  9
$PINSBASE
 10
0.0
 20
0.0
 30
0.0
  9
$PLIMCHECK
 70
0
  9
$PEXTMIN
 10
1e+20
 20
1e+20
 30
1e+20
  9
$PEXTMAX
 10
-1e+20
 20
-1e+20
 30
-1e+20
  9
$PLIMMIN
 10
0.0
 20
0.0
  9
$PLIMMAX
 10
420.0
 20
297.0
  9
$UNITMODE
 70
0
  9
$VISRETAIN
 70
1
  9
$PLINEGEN
 70
0
  9
$PSLTSCALE
 70
1
  9
$TREEDEPTH
 70
3020
  9
$CMLSTYLE
  2
Standard
  9
$CMLJUST
 70
0
  9
$CMLSCALE
 40
20.0
  9
$PROXYGRAPHICS
 70
1
  9
$MEASUREMENT
 70
1
  9
$CELWEIGHT
370
-1
  9
$ENDCAPS
280
0
  9
$JOINSTYLE
280
0
  9
$LWDISPLAY
290
0
  9
$INSUNITS
 70
4
  9
$HYPERLINKBASE
  1

  9
$STYLESHEET
  1

  9
$XEDIT
290
1
  9
$CEPSNTYPE
380
0
  9
$PSTYLEMODE
290
1
  9
$FINGERPRINTGUID
  2
{B10FA19B-5E75-4432-A7E1-157DFA5AC8C1}
  9
$VERSIONGUID
  2
{987C2F06-25E6-4568-8F01-77B56A7F440D}
  9
$EXTNAMES
290
1
  9
$PSVPSCALE
 40
0.0
  9
$OLESTARTUP
290
0
  9
$SORTENTS
280
127
  9
$INDEXCTL
280
0
  9
$HIDETEXT
280
1
  9
$XCLIPFRAME
280
1
  9
$HALOGAP
280
0
  9
$OBSCOLOR
 70
257
  9
$OBSLTYPE
280
0
  9
$INTERSECTIONDISPLAY
280
0
  9
$INTERSECTIONCOLOR
 70
257
  9
$DIMASSOC
280
2
  9
$PROJECTNAME
  1

  9
$CAMERADISPLAY
290
0
  9
$LENSLENGTH
 40
50.0
  9
$CAMERAHEIGHT
 40
0.0
  9
$STEPSPERSEC
 40
24.0
  9
$STEPSIZE
 40
100.0
  9
$3DDWFPREC
 40
2.0
  9
$PSOLWIDTH
 40
0.005
  9
$PSOLHEIGHT
 40
0.08
  9
$LOFTANG1
 40
1.570796326795
  9
$LOFTANG2
 40
1.570796326795
  9
$LOFTMAG1
 40
0.0
  9
$LOFTMAG2
 40
0.0
  9
$LOFTPARAM
 70
7
  9
$LOFTNORMALS
280
1
  9
$LATITUDE
 40
37.795
  9
$LONGITUDE
 40
-122.394
  9
$NORTHDIRECTION
 40
0.0
  9
$TIMEZONE
 70
-8000
  9
$LIGHTGLYPHDISPLAY
280
1
  9
$TILEMODELIGHTSYNCH
280
1
  9
$CMATERIAL
347
20
  9
$SOLIDHIST
280
0
  9
$SHOWHIST
280
1
  9
$DWFFRAME
280
2
  9
$DGNFRAME
280
2
  9
$REALWORLDSCALE
290
1
  9
$INTERFERECOLOR
 62
256
  9
$CSHADOW
280
0
  9
$SHADOWPLANELOCATION
 40
0.0
  0
ENDSEC
  0
SECTION
  2
CLASSES
  0
CLASS
  1
ACDBDICTIONARYWDFLT
  2
AcDbDictionaryWithDefault
  3
ObjectDBX Classes
 90
0
 91
0
280
0
281
0
  0
CLASS
  1
SUN
  2
AcDbSun
  3
SCENEOE
 90
1153
 91
0
280
0
281
0
  0
CLASS
  1
VISUALSTYLE
  2
AcDbVisualStyle
  3
ObjectDBX Classes
 90
4095
 91
0
280
0
281
0
  0
CLASS
  1
MATERIAL
  2
AcDbMaterial
  3
ObjectDBX Classes
 90
1153
 91
0
280
0
281
0
  0
CLASS
  1
SCALE
  2
AcDbScale
  3
ObjectDBX Classes
 90
1153
 91
0
280
0
281
0
  0
CLASS
  1
TABLESTYLE
  2
AcDbTableStyle
  3
ObjectDBX Classes
 90
4095
 91
0
280
0
281
0
  0
CLASS
  1
MLEADERSTYLE
  2
AcDbMLeaderStyle
  3
ACDB_MLEADERSTYLE_CLASS
 90
4095
 91
0
280
0
281
0
  0
CLASS
  1
DICTIONARYVAR
  2
AcDbDictionaryVar
  3
ObjectDBX Classes
 90
0
 91
0
280
0
281
0
  0
CLASS
  1
CELLSTYLEMAP
  2
AcDbCellStyleMap
  3
ObjectDBX Classes
 90
1152
 91
0
280
0
281
0
  0
CLASS
  1
MENTALRAYRENDERSETTINGS
  2
AcDbMentalRayRenderSettings
  3
SCENEOE
 90
1024
 91
0
280
0
281
0
  0
CLASS
  1
ACDBDETAILVIEWSTYLE
  2
AcDbDetailViewStyle
  3
ObjectDBX Classes
 90
1025
 91
0
280
0
281
0
  0
CLASS
  1
ACDBSECTIONVIEWSTYLE
  2
AcDbSectionViewStyle
  3
ObjectDBX Classes
 90
1025
 91
0
280
0
281
0
  0
CLASS
  1
RASTERVARIABLES
  2
AcDbRasterVariables
  3
ISM
 90
0
 91
0
280
0
281
0
  0
CLASS
  1
LAYOUT
  2
AcDbLayout
  3
ObjectDBX Classes
 90
0
 91
0
280
0
281
0
  0
CLASS
  1
ACDBPLACEHOLDER
  2
AcDbPlaceHolder
  3
ObjectDBX Classes
 90
0
 91
0
280
0
281
0
  0
ENDSEC
  0
SECTION
  2
TABLES
  0
TABLE
  2
VPORT
  5
8
330
0
100
AcDbSymbolTable
 70
1
  0
VPORT
  5
23
330
8
100
AcDbSymbolTableRecord
100
AcDbViewportTableRecord
  2
*Active
 70
0
 10
0.0
 20
0.0
 11
1.0
 21
1.0
 12
0.0
 22
0.0
 13
0.0
 23
0.0
 14
0.5
 24
0.5
 15
0.5
 25
0.5
 16
0.0
 26
0.0
 36
1.0
 17
0.0
 27
0.0
 37
0.0
 40
1000.0
 41
1.34
 42
50.0
 43
0.0
 44
0.0
 50
0.0
 51
0.0
 71
0
 72
1000
 73
1
 74
3
 75
0
 76
0
 77
0
 78
0
281
0
 65
0
146
0.0
  0
ENDTAB
  0
TABLE
  2
LTYPE
  5
2
330
0
100
AcDbSymbolTable
 70
3
  0
LTYPE
  5
24
330
2
100
AcDbSymbolTableRecord
100
AcDbLinetypeTableRecord
  2
ByBlock
 70
0
  3

 72
65
 73
0
 40
0.0
  0
LTYPE
  5
25
330
2
100
AcDbSymbolTableRecord
100
AcDbLinetypeTableRecord
  2
ByLayer
 70
0
  3

 72
65
 73
0
 40
0.0
  0
LTYPE
  5
26
330
2
100
AcDbSymbolTableRecord
100
AcDbLinetypeTableRecord
  2
Continuous
 70
0
  3

 72
65
 73
0
 40
0.0
  0
ENDTAB
  0
TABLE
  2
LAYER
  5
1
330
0
100
AcDbSymbolTable
 70
3
  0
LAYER
  5
27
330
1
100
AcDbSymbolTableRecord
100
AcDbLayerTableRecord
  2
0
 70
0
 62
7
  6
Continuous
370
-3
390
13
347
21
  0
LAYER
  5
28
330
1
100
AcDbSymbolTableRecord
100
AcDbLayerTableRecord
  2
Defpoints
 70
0
 62
7
  6
Continuous
290
0
370
-3
390
13
347
21
  0
LAYER
  5
2F
330
1
100
AcDbSymbolTableRecord
100
AcDbLayerTableRecord
  2
K
 70
0
 62
7
  6
Continuous
370
-3
390
13
347
21
  0
ENDTAB
  0
TABLE
  2
STYLE
  5
5
330
0
100
AcDbSymbolTable
 70
1
  0
STYLE
  5
29
330
5
100
AcDbSymbolTableRecord
100
AcDbTextStyleTableRecord
  2
Standard
 70
0
 40
0.0
 41
1.0
 50
0.0
 71
0
 42
2.5
  3
txt
  4

  0
ENDTAB
  0
TABLE
  2
VIEW
  5
7
330
0
100
AcDbSymbolTable
 70
0
  0
ENDTAB
  0
TABLE
  2
UCS
  5
6
330
0
100
AcDbSymbolTable
 70
0
  0
ENDTAB
  0
TABLE
  2
APPID
  5
3
330
0
100
AcDbSymbolTable
 70
3
  0
APPID
  5
2A
330
3
100
AcDbSymbolTableRecord
100
AcDbRegAppTableRecord
  2
ACAD
 70
0
  0
APPID
  5
5A
330
3
100
AcDbSymbolTableRecord
100
AcDbRegAppTableRecord
  2
HATCHBACKGROUNDCOLOR
 70
0
  0
APPID
  5
5B
330
3
100
AcDbSymbolTableRecord
100
AcDbRegAppTableRecord
  2
EZDXF
 70
0
  0
ENDTAB
  0
TABLE
  2
DIMSTYLE
  5
4
330
0
100
AcDbSymbolTable
 70
1
100
AcDbDimStyleTable
  0
DIMSTYLE
105
2B
330
4
100
AcDbSymbolTableRecord
100
AcDbDimStyleTableRecord
  2
Standard
 70
0
 40
1.0
 41
2.5
 42
0.625
 43
3.75
 44
1.25
 45
0.0
 46
0.0
 47
0.0
 48
0.0
 49
2.5
140
2.5
141
2.5
142
0.0
143
0.03937007874
144
1.0
145
0.0
146
1.0
147
0.625
148
0.0
 69
0
 70
0
 71
0
 72
0
 73
0
 74
0
 75
0
 76
0
 77
1
 78
8
 79
3
170
0
171
3
172
1
173
0
174
0
175
0
176
0
177
0
178
0
179
2
271
2
272
2
273
2
274
3
275
0
276
0
277
2
278
44
279
0
280
0
281
0
282
0
283
0
284
8
285
0
286
0
288
0
289
3
290
0
371
-2
372
-2
  0
ENDTAB
  0
TABLE
  2
BLOCK_RECORD
  5
9
330
0
100
AcDbSymbolTable
 70
2
  0
BLOCK_RECORD
  5
17
330
9
100
AcDbSymbolTableRecord
100
AcDbBlockTableRecord
  2
*Model_Space
340
1A
 70
0
280
1
281
0
  0
BLOCK_RECORD
  5
1B
330
9
100
AcDbSymbolTableRecord
100
AcDbBlockTableRecord
  2
*Paper_Space
340
1E
 70
0
280
1
281
0
  0
ENDTAB
  0
ENDSEC
  0
SECTION
  2
BLOCKS
  0
BLOCK
  5
18
330
17
100
AcDbEntity
  8
0
100
AcDbBlockBegin
  2
*Model_Space
 70
0
 10
0.0
 20
0.0
 30
0.0
  3
*Model_Space
  1

  0
ENDBLK
  5
19
330
17
100
AcDbEntity
  8
0
100
AcDbBlockEnd
  0
BLOCK
  5
1C
330
1B
100
AcDbEntity
  8
0
100
AcDbBlockBegin
  2
*Paper_Space
 70
0
 10
0.0
 20
0.0
 30
0.0
  3
*Paper_Space
  1

  0
ENDBLK
  5
1D
330
1B
100
AcDbEntity
  8
0
100
AcDbBlockEnd
  0
ENDSEC
  0
SECTION
  2
ENTITIES
  0
LWPOLYLINE
  5
30
330
17
100
AcDbEntity
  8
K
100
AcDbPolyline
 90
73
 70
1
 10
197.6039980694747
 20
109.82574887151519
 10
199.27066473614119
 20
107.08765363341988
 10
200.8811321678702
 20
109.7334215569744
 10
204.326863971079
 20
109.7334215569744
 10
205.99353063774572
 20
106.9953263188791
 10
209.21446550120348
 20
106.9953263188791
 10
214.2144655012036
 20
115.20961203316482
 10
217.54779883453702
 20
115.20961203316482
 10
220.8811321678702
 20
120.68580250935534
 10
224.21446550120362
 20
120.68580250935534
 10
225.93733140280804
 20
123.51622506199134
 10
227.6039980694745
 20
120.77812982389614
 10
229.2244144015233
 20
123.44024236940454
 10
239.22441440152332
 20
120.70214713130933
 10
240.88113216787022
 20
123.42389774745055
 10
244.30647057033227
 20
123.42389774745055
 10
247.57846719091305
 20
120.736186237688
 10
255.91180052424633
 20
134.42666242816415
 10
262.63980390366584
 20
128.90008822364106
 10
269.21446550120356
 20
128.90008822364106
 10
272.55774773485655
 20
134.39262332178546
 10
282.54950670397994
 20
131.65678455643038
 10
288.32387842247545
 20
143.8536717577422
 10
286.6572117558085
 20
146.59176699583742
 10
292.55137609954807
 20
159.04168555863473
 10
300.893166640417
 20
156.30081152377784
 10
305.88113216787013
 20
164.49532631887908
 10
309.326863971079
 20
164.49532631887908
 10
310.937331402808
 20
161.84955839532455
 10
314.2144655012037
 20
167.2334215569744
 10
317.6398039036658
 20
167.2334215569744
 10
327.5784671909131
 20
159.06951957102135
 10
332.60399806947447
 20
167.3257488715151
 10
335.20399806947444
 20
163.0543203000866
 10
335.20399806947444
 20
146.62194669220852
 10
344.3316442372316
 20
128.90008822364106
 10
345.9935306377456
 20
128.90008822364106
 10
353.5460402218752
 20
116.49239390685717
 10
351.8793735552085
 20
111.01620343066665
 10
354.258021193948
 20
107.1084251670229
 10
359.25802119394814
 20
118.06080611940395
 10
360.93733140280784
 20
115.3019393477055
 10
362.60399806947476
 20
118.04003458580081
 10
364.30381023895984
 20
115.24748602164647
 10
377.53107796327356
 20
123.3964277446612
 10
380.88113216787013
 20
128.90008822364106
 10
389.23485890194996
 20
128.90008822364106
 10
392.62952894803607
 20
131.68856719006894
 10
395.2039980694745
 20
127.45908220484847
 10
395.2039980694745
 20
91.80776090910037
 10
392.66019730441224
 20
87.62865965221245
 10
334.2144655012035
 20
87.62865965221245
 10
330.8811321678703
 20
93.10485012840297
 10
324.3268639710789
 20
93.10485012840297
 10
320.9935306377455
 20
87.62865965221245
 10
239.2144655012035
 20
87.62865965221245
 10
234.258963972234
 20
95.76984073551942
 10
227.59229730556717
 20
87.55555502123369
 10
224.21446550120362
 20
93.10485012840297
 10
209.32686397107892
 20
93.10485012840297
 10
207.6601973044122
 20
90.36675489030776
 10
194.326863971079
 20
90.36675489030776
 10
192.65847121994074
 20
87.6258239420088
 10
165.04612034710453
 20
89.00046478632761
 10
163.32026260265286
 20
91.8358025093553
 10
165.9118005242466
 20
96.09332909483071
 10
169.2451338575799
 20
93.3552338567355
 10
172.54779883453685
 20
98.78104060459347
 10
182.6601973044123
 20
98.78104060459347
 10
184.28674110666077
 20
96.1088615008996
 10
189.22655681003343
 20
101.51913584268868
 10
192.54779883453688
 20
101.51913584268868
 10
197.6039980694747
 20
109.82574887151519
  0
LWPOLYLINE
  5
31
330
17
100
AcDbEntity
  8
K
100
AcDbPolyline
 90
26
 70
1
 10
350.00399806947456
 20
179.48289172865805
 10
350.00399806947456
 20
184.95908220484836
 10
352.5629858497595
 20
189.16313355817394
 10
359.22965251642637
 20
186.42503832007873
 10
361.653595935986
 20
190.40723108078396
 10
356.6535959359861
 20
198.62151679506968
 10
359.2144655012036
 20
202.82865965221242
 10
364.2144655012035
 20
202.82865965221242
 10
366.6535959359859
 20
206.8358025093553
 10
363.32026260265246
 20
212.31199298554583
 10
367.54779883453693
 20
219.25723108078387
 10
370.87480085959334
 20
219.25723108078387
 10
377.59423631654977
 20
233.05607175131993
 10
379.2706647361413
 20
230.3019393477056
 10
380.88113216787013
 20
232.94770727126013
 10
385.9875738849224
 20
232.94770727126013
 10
395.2039980694745
 20
220.55939684137516
 10
395.2039980694745
 20
168.47442757576704
 10
392.6571715797832
 20
164.29035548555981
 10
360.87824972468707
 20
167.03815699934643
 10
359.2144655012036
 20
169.77151679506963
 10
352.5477988345368
 20
169.77151679506963
 10
350.937331402808
 20
172.41728471862416
 10
349.2706647361411
 20
169.67918948052895
 10
346.6535959359859
 20
173.97865965221249
 10
350.00399806947456
 20
179.48289172865805
  0
LWPOLYLINE
  5
32
330
17
100
AcDbEntity
  8
K
100
AcDbPolyline
 90
7
 70
1
 10
392.6039980694745
 20
249.46860601437226
 10
395.21638510825494
 20
245.17682730780433
 10
390.94120664569044
 20
235.34391684390533
 10
384.9905450891421
 20
247.91317135620662
 10
387.60399806947464
 20
252.20670125246747
 10
390.93733140280807
 20
246.73051077627696
 10
392.6039980694745
 20
249.46860601437226
  0
LWPOLYLINE
  5
33
330
17
100
AcDbEntity
  8
K
100
AcDbPolyline
 90
188
 70
1
 10
68.32026260265289
 20
127.43104060459342
 10
70.91180052424662
 20
131.68856719006882
 10
74.26080556444725
 20
128.93759876418963
 10
79.2706647361413
 20
134.42458738080677
 10
84.31477266224907
 20
128.90008822364106
 10
89.2144655012036
 20
128.90008822364106
 10
90.93733140280801
 20
131.73051077627684
 10
95.99353063774562
 20
123.42389774745055
 10
99.2144655012036
 20
123.42389774745055
 10
109.27066473614133
 20
139.94479649056257
 10
111.88773353629632
 20
135.64532631887914
 10
110.22106686962962
 20
132.90723108078396
 10
114.32686397107894
 20
126.16199298554575
 10
119.32686397107905
 20
126.16199298554575
 10
120.93733140280793
 20
123.51622506199111
 10
123.34280935580655
 20
127.4680816990602
 10
124.99820264589634
 20
135.62680577164588
 10
119.24513385757996
 20
145.07827592388
 10
115.91180052424654
 20
142.3401806857848
 10
109.24513385757994
 20
153.29256163816575
 10
105.91180052424653
 20
150.55446640007054
 10
99.27066473614133
 20
161.46490376624345
 10
95.93733140280791
 20
155.98871329005303
 10
94.21446550120349
 20
158.8191358426887
 10
90.98349895653435
 20
158.8191358426887
 10
79.31683228986763
 20
145.12865965221243
 10
74.32023296237267
 20
145.12865965221243
 10
65.92813992838987
 20
134.09905166469204
 10
64.26147326172327
 20
136.83714690278737
 10
55.98689962903936
 20
125.96199298554578
 10
52.54779883453686
 20
125.96199298554578
 10
50.88113216787027
 20
128.7000882236411
 10
34.21446550120355
 20
128.7000882236411
 10
32.54246109685699
 20
131.4469526022105
 10
15.875794430190272
 20
134.1850478403057
 10
14.214465501203533
 20
136.91437393792683
 10
2.5477988345369296
 20
136.91437393792683
 10
0.0
 20
141.10004345180883
 10
5.008704166682865
 20
176.7572469241462
 10
12.614294066808807
 20
186.47550068541818
 10
14.270664736141248
 20
183.7543203000862
 10
23.337331402807916
 20
198.6495583953244
 10
23.337331402807916
 20
253.41146315722906
 10
24.986929269319557
 20
256.1215167950697
 10
23.33943946738215
 20
258.82810718396667
 10
21.672136668121954
 20
280.7412296885293
 10
18.32941146546807
 20
288.97865965221246
 10
21.66104082281295
 20
297.18874628281276
 10
14.189469667992727
 20
312.1911867762217
 10
6.670664736141307
 20
319.05358810291153
 10
6.670664736141307
 20
324.5458561471959
 10
3.3351779418867578
 20
330.02558445204244
 10
5.006106134048838
 20
351.9863549776012
 10
7.547798834536823
 20
356.16199298554585
 10
10.993530637745664
 20
356.16199298554585
 10
14.296195614702633
 20
350.7361862376879
 10
17.629528948035933
 20
353.4742814757831
 10
20.99353063774567
 20
347.94770727126013
 10
27.63980390366583
 20
347.94770727126013
 10
34.24513385757988
 20
342.52190052340217
 10
38.32026260265287
 20
349.2167548903077
 10
36.64857258558551
 20
351.9631027754899
 10
43.32139998130291
 20
360.18497938807036
 10
39.244586768885206
 20
369.5616497766312
 10
32.59229730556756
 20
361.3650788307575
 10
29.995289250407396
 20
365.6315920642348
 10
31.661955917073993
 20
371.1077825404253
 10
29.98692926931956
 20
373.85961203316486
 10
31.653595935986157
 20
376.59770727126005
 10
27.54779883453684
 20
383.34294536649827
 10
24.32686397107897
 20
383.34294536649827
 10
21.88773353629625
 20
379.3358025093554
 10
25.214436680180196
 20
373.87050448726046
 10
22.626635080063906
 20
366.7848572488468
 10
20.937331402807956
 20
369.56014186148155
 10
19.336911879727303
 20
366.93088121642046
 10
10.876601183286372
 20
364.1510648447328
 10
8.326892792102413
 20
371.1324092491652
 10
13.325751920341911
 20
379.34482067413035
 10
9.995536000878769
 20
387.55142418995024
 10
14.205100073497846
 20
397.2334215569744
 10
17.66019730441226
 20
397.2334215569744
 10
19.326863971078968
 20
394.49532631887917
 10
30.993530637745682
 20
394.49532631887917
 10
33.54604022187513
 20
390.3019177163807
 10
31.879373555208424
 20
384.82572724019013
 10
39.27066473614127
 20
372.68289172865764
 10
40.91180052424659
 20
375.37904338054506
 10
44.27066473614127
 20
372.61997634934573
 10
47.62952894803596
 20
375.37904338054506
 10
50.95340777332746
 20
369.91838531042333
 10
55.953407773327356
 20
375.3945757866138
 10
65.93733140280789
 20
358.9924155381815
 10
69.98692926931949
 20
365.64532631887914
 10
68.32026260265289
 20
368.3834215569743
 10
70.91180052424662
 20
372.64094814244976
 10
74.2451338575798
 20
369.9028529043545
 10
77.6039980694746
 20
375.420986966753
 10
80.21270688854176
 20
371.135251049714
 10
78.54604022187517
 20
365.6590605735235
 10
80.93733140280801
 20
361.73051077627673
 10
85.90157901962125
 20
369.88606043247006
 10
91.00883616918132
 20
367.0892291362825
 10
94.2961956147026
 20
361.6885671900688
 10
97.62952894803601
 20
364.42666242816415
 10
100.95708071480614
 20
358.9599702398988
 10
109.27890367122251
 20
367.16291001122346
 10
122.60845756172978
 20
350.73899539613393
 10
127.62007443999413
 20
356.2279091199472
 10
131.8793735552085
 20
349.230489144952
 10
130.21270688854182
 20
343.75429866876163
 10
132.6397504526612
 20
339.76701281342247
 10
137.63146147267736
 20
342.50056884819315
 10
145.98689962903944
 20
331.5191358426887
 10
164.32686397107898
 20
331.5191358426887
 10
165.9935306377457
 20
328.78104060459344
 10
197.66019730441243
 20
328.78104060459344
 10
200.9935306377456
 20
323.3048501284029
 10
204.23485890195013
 20
323.3048501284029
 10
210.90152556861673
 20
328.78104060459344
 10
217.56299750990726
 20
328.78104060459344
 10
225.88713610785638
 20
336.9862629368578
 10
237.55101818343005
 20
339.7237046484719
 10
242.55989014336689
 20
345.2096120331649
 10
249.2265568100335
 20
345.2096120331649
 10
254.2265568100336
 20
350.6858025093553
 10
257.6481059955823
 20
350.6858025093553
 10
262.6481059955824
 20
345.2096120331649
 10
269.314772662249
 20
345.2096120331649
 10
274.31113221016335
 20
339.73740871878255
 10
335.9904213726189
 20
345.2147201115876
 10
340.2029373112213
 20
338.294158212455
 10
341.8693447293074
 20
294.4914489370497
 10
355.98554489583324
 20
276.75723108078387
 10
359.3193871871544
 20
276.75723108078387
 10
366.89207113898146
 20
267.08102380900476
 10
349.2961956147026
 20
238.17351401911802
 10
345.9628622813694
 20
240.91160925721334
 10
337.68590341682545
 20
227.31374826546235
 10
311.005206598956
 20
194.4393182577304
 10
302.67771916195704
 20
188.96696937055967
 10
297.6601973044123
 20
180.72389774745056
 10
294.3268639710791
 20
180.72389774745056
 10
289.326863971079
 20
172.50961203316484
 10
284.31683228986736
 20
172.50961203316484
 10
272.66439808380426
 20
158.83583719951943
 10
266.0056851023328
 20
156.10100865355793
 10
262.66019730441235
 20
150.60485012840297
 10
259.326863971079
 20
150.60485012840297
 10
256.00208187127305
 20
145.14270810729312
 10
245.9916609485181
 20
142.40175952130073
 10
240.98143932891568
 20
136.91437393792683
 10
235.98143932891557
 20
136.91437393792683
 10
225.92125503228854
 20
125.89607685114446
 10
224.21446550120362
 20
128.7000882236411
 10
220.97313723699907
 20
128.7000882236411
 10
210.97313723699907
 20
120.48580250935537
 10
204.32023296237267
 20
120.48580250935537
 10
195.94431955979442
 20
109.47745918025231
 10
190.92098261722325
 20
114.97920916497284
 10
182.6339145180954
 20
109.53342155697443
 10
175.9935306377457
 20
109.53342155697443
 10
174.326863971079
 20
106.79532631887912
 10
162.6501656232009
 20
106.79532631887912
 10
156.89369859666112
 20
100.04028848161317
 10
161.88773353629637
 20
91.8358025093553
 10
159.32686397107898
 20
87.62865965221245
 10
155.88113216787025
 20
87.62865965221245
 10
151.65359593598626
 20
94.57389774745062
 10
153.32026260265286
 20
97.31199298554583
 10
150.9297647750355
 20
101.23923941663138
 10
140.98812390363403
 20
87.62865965221245
 10
137.54779883453693
 20
87.62865965221245
 10
130.88960424802977
 20
98.56712218718855
 10
119.33430094251219
 20
95.85516324813837
 10
114.27066473614123
 20
87.536332337672
 10
109.27066473614133
 20
95.75061805195773
 10
104.31482949853188
 20
87.60888873302808
 10
100.03775092588852
 20
89.01421454975389
 10
97.56824568628797
 20
93.07125887195488
 10
92.56824568628797
 20
90.33316363385968
 10
90.8811321678703
 20
93.10485012840297
 10
82.54779883453689
 20
93.10485012840297
 10
80.00153427960267
 20
97.28799904008056
 10
81.66820094626937
 20
116.45466570674733
 10
79.21446550120359
 20
120.48580250935537
 10
72.54779883453688
 20
120.48580250935537
 10
68.32026260265289
 20
127.43104060459342
  0
LWPOLYLINE
  5
34
330
17
100
AcDbEntity
  8
K
100
AcDbPolyline
 90
5
 70
1
 10
136.88773353629625
 20
124.69294536649822
 10
139.27066473614124
 20
120.77812982389591
 10
141.65359593598626
 20
124.69294536649822
 10
139.27066473614124
 20
128.60776090910065
 10
136.88773353629625
 20
124.69294536649822
  0
LWPOLYLINE
  5
35
330
17
100
AcDbEntity
  8
K
100
AcDbPolyline
 90
5
 70
1
 10
132.60399806947453
 20
120.77812982389591
 10
134.99161103069412
 20
124.70063683161369
 10
130.94540990350635
 20
134.00689942414556
 10
128.54777001351349
 20
127.44193305868912
 10
132.60399806947453
 20
120.77812982389591
  0
LWPOLYLINE
  5
36
330
17
100
AcDbEntity
  8
K
100
AcDbPolyline
 90
7
 70
1
 10
59.97612785755402
 20
343.739431164069
 10
53.31523925225212
 20
351.9465974813161
 10
54.98692926931958
 20
354.6929453664982
 10
52.61276044552743
 20
358.5933655770138
 10
45.221650845391316
 20
343.7524867767404
 10
52.60399806947458
 20
334.3194875459673
 10
59.97612785755402
 20
343.739431164069
  0
LWPOLYLINE
  5
37
330
17
100
AcDbEntity
  8
K
100
AcDbPolyline
 90
5
 70
1
 10
37.603998069474564
 20
233.04003458580058
 10
39.986929269319575
 20
236.954850128403
 10
37.603998069474564
 20
240.86966567100544
 10
35.22106686962967
 20
236.954850128403
 10
37.603998069474564
 20
233.04003458580058
  0
LWPOLYLINE
  5
38
330
17
100
AcDbEntity
  8
K
100
AcDbPolyline
 90
6
 70
1
 10
21.661955917073982
 20
338.2506396832824
 10
17.58171786320073
 20
344.95388791464586
 10
10.232234891971558
 20
338.2460264726508
 10
15.957080714806171
 20
328.8409226208512
 10
20.015721100839933
 20
332.8415824299415
 10
21.661955917073982
 20
338.2506396832824
  0
LWPOLYLINE
  5
39
330
17
100
AcDbEntity
  8
K
100
AcDbPolyline
 90
6
 70
1
 10
336.636606107361
 20
176.68884302899514
 10
339.2144655012036
 20
180.92389774745055
 10
342.66019730441246
 20
180.92389774745055
 10
345.22106686962996
 20
176.7167548903077
 10
342.63383576091167
 20
172.46630378312778
 10
336.636606107361
 20
176.68884302899514
  0
LWPOLYLINE
  5
3A
330
17
100
AcDbEntity
  8
K
100
AcDbPolyline
 90
209
 70
1
 10
667.5477988345368
 20
123.22389774745058
 10
664.2706647361413
 20
128.60776090910065
 10
661.8822442186073
 20
124.68392720172328
 10
665.1916491549135
 20
116.52860789439701
 10
681.8915497063399
 20
94.58016716966522
 10
679.3022594900623
 20
90.32633324292327
 10
670.8636103103256
 20
95.87173127532166
 10
664.199159969768
 20
106.8204711205234
 10
659.1960341747113
 20
109.56027810353075
 10
649.1960341747113
 20
128.7269447701974
 10
644.1896383317761
 20
131.46854249370944
 10
641.6602261254358
 20
138.39431401107007
 10
644.9853686661371
 20
143.8570481850795
 10
626.6706647361412
 20
171.21017743117716
 10
626.6706647361412
 20
179.43996969182663
 10
623.337331402808
 20
190.39235064420757
 10
623.337331402808
 20
198.61024866389488
 10
618.3384651566635
 20
220.51004364700378
 10
616.6734625595852
 20
236.92221210391907
 10
611.6706647361412
 20
245.141094242434
 10
611.6706647361412
 20
280.79241553818144
 10
614.2144655012036
 20
284.9715167950696
 10
629.326863971079
 20
284.9715167950696
 10
632.6039980694745
 20
279.5876536334196
 10
635.8811321678702
 20
284.9715167950696
 10
642.6398039036658
 20
284.9715167950696
 10
645.9118005242466
 20
282.2838052853069
 10
649.2706647361413
 20
287.80193934770534
 10
652.620074439994
 20
282.29933769137574
 10
657.5598901433668
 20
287.70961203316494
 10
667.6601973044122
 20
287.70961203316494
 10
670.937331402808
 20
282.32574887151486
 10
674.2144655012036
 20
287.70961203316494
 10
680.8811321678702
 20
287.70961203316494
 10
683.3202626026529
 20
291.7167548903077
 10
681.6706647361412
 20
294.4268085281483
 10
681.6706647361412
 20
299.95908220484813
 10
683.3202626026529
 20
302.6691358426887
 10
680.0039980694746
 20
308.11728471862443
 10
680.0039980694746
 20
313.6495583953244
 10
683.3202626026529
 20
319.0977072712601
 10
681.6706647361412
 20
321.8077609091007
 10
681.6706647361412
 20
332.7601418614816
 10
679.9869292693196
 20
335.52627869983155
 10
681.6535959359862
 20
338.26437393792673
 10
677.6039980694745
 20
344.9172847186245
 10
675.2210668696297
 20
341.00246917602203
 10
676.8877335362963
 20
338.26437393792673
 10
674.326863971079
 20
334.0572310807839
 10
669.2144655012036
 20
334.0572310807839
 10
665.9118005242466
 20
339.48303782864184
 10
662.6398039036658
 20
336.79532631887923
 10
659.2144655012036
 20
336.79532631887923
 10
657.6039980694746
 20
339.44109424243396
 10
655.9935306377457
 20
336.79532631887923
 10
652.5477988345368
 20
336.79532631887923
 10
650.8811321678702
 20
339.5334215569744
 10
644.2144655012036
 20
339.5334215569744
 10
640.8811321678702
 20
345.00961203316496
 10
635.8811321678702
 20
345.00961203316496
 10
634.2144655012036
 20
347.74770727126014
 10
629.3182952669415
 20
347.74770727126014
 10
622.6516286002749
 20
339.5334215569744
 10
619.2186988877877
 20
339.5334215569744
 10
606.6830020002773
 20
357.3818661730011
 10
602.5651098533666
 20
366.85301811089533
 10
599.2517499651044
 20
364.1313296312514
 10
588.3252387028388
 20
379.32038100132394
 10
590.8673926449026
 20
386.28104060459344
 10
595.9814393289158
 20
386.28104060459344
 10
600.9091836281495
 20
380.88398732448024
 10
605.9003507211935
 20
391.81702000448126
 10
609.24513385758
 20
389.0695195710212
 10
612.5477988345369
 20
394.49532631887917
 10
615.9731372369992
 20
394.49532631887917
 10
619.24513385758
 20
391.8076148091164
 10
622.5629858497599
 20
397.25837165341204
 10
629.2296525164265
 20
394.52027641531686
 10
632.5477988345368
 20
399.9715167950696
 10
635.9935306377456
 20
399.9715167950696
 10
638.5544002029629
 20
395.76437393792673
 10
636.8877335362963
 20
393.02627869983155
 10
638.5544002029629
 20
390.2881834617363
 10
635.2210668696297
 20
384.8119929855458
 10
637.6450102891894
 20
380.8298002248406
 10
644.311676955856
 20
383.5678954629359
 10
650.9935306377457
 20
372.5905644141172
 10
652.5477988345368
 20
372.5905644141172
 10
656.6505199455626
 20
379.3307490965165
 10
646.6505199455627
 20
393.02122528699266
 10
650.8811321678702
 20
399.9715167950696
 10
655.9814393289158
 20
399.9715167950696
 10
660.9212550322885
 20
394.5612424532805
 10
664.2144655012036
 20
399.9715167950696
 10
667.6601973044122
 20
399.9715167950696
 10
670.2210668696297
 20
395.76437393792673
 10
668.5544002029629
 20
393.02627869983155
 10
670.9783436225227
 20
389.0440859391263
 10
677.6450102891894
 20
391.7821811772215
 10
680.2210668696297
 20
387.550088223641
 10
675.2210668696297
 20
379.3358025093554
 10
677.6039980694745
 20
375.420986966753
 10
680.9373314028079
 20
380.89717744294336
 10
686.8877335362963
 20
371.1215167950697
 10
685.2210668696297
 20
368.3834215569743
 10
689.326863971079
 20
361.6381834617363
 10
692.5477988345368
 20
361.6381834617363
 10
694.2706647361413
 20
364.468606014372
 10
700.9373314028079
 20
353.516225061991
 10
704.2144655012036
 20
358.90008822364103
 10
714.2407482875207
 20
358.90008822364103
 10
722.574081620854
 20
364.3762786998316
 10
727.6449986290422
 20
364.3762786998316
 10
735.9783319623755
 20
356.16199298554585
 10
739.326863971079
 20
356.16199298554585
 10
743.5544002029629
 20
349.2167548903077
 10
741.8706647361412
 20
346.45061805195775
 10
741.8706647361412
 20
330.0352077870646
 10
740.195986926366
 20
324.53269498351756
 10
735.9935306377457
 20
317.62865965221255
 10
732.6601973044123
 20
317.62865965221255
 10
730.2210668696297
 20
313.6215167950697
 10
736.8706647361413
 20
302.6971774429434
 10
736.8706647361413
 20
299.9029990043387
 10
732.6039980694746
 20
292.8934751948149
 10
729.2296525164264
 20
298.4370428891082
 10
722.6723517689992
 20
295.74386579641487
 10
716.8877335362963
 20
286.2405644141173
 10
719.2706647361412
 20
282.32574887151486
 10
722.5477988345369
 20
287.70961203316494
 10
727.6601973044123
 20
287.70961203316494
 10
730.2039980694747
 20
283.5305107762768
 10
730.2039980694747
 20
278.05432030008626
 10
734.3116769558561
 20
271.30599070103113
 10
740.9783436225226
 20
274.0440859391263
 10
746.8877335362963
 20
264.3358025093554
 10
743.5544002029629
 20
258.85961203316486
 10
748.5269536145178
 20
250.69041714275363
 10
751.8706647361414
 20
242.45055759303835
 10
751.8706647361414
 20
236.9828917286577
 10
755.2155775519406
 20
231.48767781698743
 10
751.8766468970146
 20
223.25959870306244
 10
753.5418602313312
 20
217.78818346173634
 10
751.8793735552086
 20
212.32572724019016
 10
755.2210668696297
 20
206.8358025093553
 10
751.8877335362964
 20
201.3596120331649
 10
755.2039980694746
 20
195.91146315722906
 10
755.2039980694746
 20
187.64109424243392
 10
751.8877335362964
 20
182.1929453664982
 10
755.2039980694746
 20
176.74479649056252
 10
755.2039980694746
 20
168.47442757576715
 10
752.6601973044123
 20
164.29532631887912
 10
749.322630584495
 20
164.29532631887912
 10
736.8616803448965
 20
146.55330669202215
 10
735.2039980694746
 20
141.1066363584933
 10
735.2039980694746
 20
130.15713719449872
 10
731.8799113761435
 20
116.50463827546021
 10
737.6543561204793
 20
109.72850413669866
 10
762.6638215450592
 20
106.98937220924465
 10
764.3268639710791
 20
104.25723108078388
 10
772.6601973044123
 20
104.25723108078388
 10
774.3268639710789
 20
101.51913584268868
 10
789.326863971079
 20
101.51913584268868
 10
790.9935306377457
 20
98.78104060459347
 10
797.6601973044122
 20
98.78104060459347
 10
799.326863971079
 20
96.04294536649816
 10
805.9935306377456
 20
96.04294536649816
 10
808.537331402808
 20
91.86384410961013
 10
808.537331402808
 20
80.86262283289469
 10
804.3362293987847
 20
71.2000882236411
 10
797.6601973044122
 20
71.2000882236411
 10
794.3268639710789
 20
65.72389774745058
 10
790.8811321678703
 20
65.72389774745058
 10
785.8811321678702
 20
73.9381834617363
 10
782.6516286002748
 20
73.9381834617363
 10
775.9515873876114
 20
65.68277553899048
 10
772.6295289480362
 20
68.41160925721323
 10
770.9935306377457
 20
65.72389774745058
 10
752.5477988345369
 20
65.72389774745058
 10
748.3286225837408
 20
72.65540158804428
 10
749.9952892504073
 20
78.13159206423481
 10
747.5477988345368
 20
82.15246917602204
 10
737.5681922352832
 20
82.15246917602204
 10
724.2216600793854
 20
93.11569201836679
 10
715.9814961651986
 20
95.8231744473138
 10
710.9814961651986
 20
87.60888873302808
 10
702.6481628318653
 20
90.3469839711234
 10
700.2322348919716
 20
86.37795949844073
 10
707.6819787914333
 20
79.57859006639234
 10
713.554400202963
 20
69.93104060459343
 10
710.9935306377456
 20
65.72389774745058
 10
699.2144655012036
 20
65.72389774745058
 10
697.6039980694746
 20
68.36966567100534
 10
695.9850585575862
 20
65.70997933004563
 10
690.0403618631038
 20
67.10516324813842
 10
683.3243431747675
 20
78.1386225218338
 10
688.3243431747675
 20
89.09100347421473
 10
684.9952892504074
 20
94.56016349280627
 10
686.661955917074
 20
100.03635396899668
 10
684.9869292693196
 20
102.78818346173635
 10
687.5682456862879
 20
107.02891757532728
 10
692.5682456862879
 20
104.29082233723209
 10
696.6535959359862
 20
111.00246917602196
 10
694.2144655012036
 20
115.00961203316484
 10
687.5477988345368
 20
115.00961203316484
 10
685.8736951964371
 20
117.75992515290035
 10
674.2070285297705
 20
120.49802039099555
 10
672.5477988345368
 20
123.22389774745058
 10
667.5477988345368
 20
123.22389774745058
  0
LWPOLYLINE
  5
3B
330
17
100
AcDbEntity
  8
K
100
AcDbPolyline
 90
13
 70
1
 10
707.5519352692686
 20
339.52662598562955
 10
704.2144655012036
 20
345.00961203316496
 10
685.9935306377457
 20
345.00961203316496
 10
683.5544002029629
 20
341.00246917602203
 10
690.949032166715
 20
328.8541452355722
 10
697.5674718292382
 20
337.0090083911811
 10
707.6802141263361
 20
334.24004323840416
 10
712.6266350800638
 20
320.6962715793877
 10
717.5477988345369
 20
328.78104060459344
 10
725.8886089517947
 20
328.78104060459344
 10
733.3159249999676
 20
338.271499999481
 10
730.885268602602
 20
342.26472122372473
 10
707.5519352692686
 20
339.52662598562955
  0
LWPOLYLINE
  5
3C
330
17
100
AcDbEntity
  8
K
100
AcDbPolyline
 90
5
 70
1
 10
724.2706647361413
 20
314.7982370995768
 10
721.8877335362963
 20
310.8834215569743
 10
724.2706647361413
 20
306.968606014372
 10
726.6535959359862
 20
310.8834215569743
 10
724.2706647361413
 20
314.7982370995768
  0
LWPOLYLINE
  5
3D
330
17
100
AcDbEntity
  8
K
100
AcDbPolyline
 90
5
 70
1
 10
706.8877335362963
 20
308.14532631887914
 10
709.2706647361413
 20
304.23051077627673
 10
711.6535959359862
 20
308.14532631887914
 10
709.2706647361413
 20
312.06014186148155
 10
706.8877335362963
 20
308.14532631887914
  0
LWPOLYLINE
  5
3E
330
17
100
AcDbEntity
  8
K
100
AcDbPolyline
 90
6
 70
1
 10
669.326863971079
 20
369.652469176022
 10
666.8911399540476
 20
365.6509225766135
 10
675.9290309405438
 20
353.50258858827135
 10
678.3202626026529
 20
357.4310406045934
 10
670.8811321678703
 20
369.652469176022
 10
669.326863971079
 20
369.652469176022
  0
LWPOLYLINE
  5
3F
330
17
100
AcDbEntity
  8
K
100
AcDbPolyline
 90
6
 70
1
 10
646.8877335362963
 20
351.954850128403
 10
649.326863971079
 20
347.94770727126013
 10
652.5477988345368
 20
347.94770727126013
 10
654.9869292693196
 20
351.954850128403
 10
650.937331402808
 20
358.60776090910065
 10
646.8877335362963
 20
351.954850128403
  0
LWPOLYLINE
  5
40
330
17
100
AcDbEntity
  8
K
100
AcDbPolyline
 90
5
 70
1
 10
624.2706647361413
 20
366.82204662338637
 10
621.8877335362963
 20
362.90723108078396
 10
624.2706647361413
 20
358.9924155381815
 10
626.6535959359862
 20
362.90723108078396
 10
624.2706647361413
 20
366.82204662338637
  0
LWPOLYLINE
  5
41
330
17
100
AcDbEntity
  8
K
100
AcDbPolyline
 90
9
 70
1
 10
619.9869292693195
 20
373.85961203316486
 10
614.2706647361413
 20
383.2506180519578
 10
612.6039980694746
 20
380.5125228138625
 10
610.9373314028079
 20
383.2506180519578
 10
608.554400202963
 20
379.3358025093554
 10
610.9373314028079
 20
375.420986966753
 10
612.6039980694746
 20
378.1590822048482
 10
617.6039980694746
 20
369.94479649056245
 10
619.9869292693195
 20
373.85961203316486
  0
LWPOLYLINE
  5
42
330
17
100
AcDbEntity
  8
K
100
AcDbPolyline
 90
10
 70
1
 10
724.3268639710791
 20
82.35246917602201
 10
727.6601973044123
 20
76.87627869983149
 10
730.9935306377456
 20
76.87627869983149
 10
735.2210668696297
 20
69.93104060459343
 10
732.6568073078182
 20
65.71832846733183
 10
718.3779210096714
 20
67.09822084068217
 10
716.6706647361412
 20
69.90299900433861
 10
716.6706647361412
 20
75.43527268103878
 10
720.8811321678702
 20
82.35246917602201
 10
724.3268639710791
 20
82.35246917602201
  0
LWPOLYLINE
  5
43
330
17
100
AcDbEntity
  8
K
100
AcDbPolyline
 90
29
 70
1
 10
629.326863971079
 20
87.82865965221242
 10
632.620074439994
 20
82.41838531042345
 10
637.5598901433668
 20
87.82865965221242
 10
645.8811321678702
 20
87.82865965221242
 10
647.5922973055675
 20
90.6398595212865
 10
654.2751242283965
 20
82.40566206280064
 10
659.2265568100333
 20
87.82865965221242
 10
662.6649775705649
 20
87.82865965221242
 10
671.885250383361
 20
69.92696113905671
 10
669.326863971079
 20
65.72389774745058
 10
664.2144655012036
 20
65.72389774745058
 10
660.9212550322885
 20
71.13417208923978
 10
655.9801827026987
 20
65.72252144254608
 10
611.6958797897239
 20
67.09521546815044
 10
609.9952892504074
 20
72.6828700973331
 10
613.320262602653
 20
78.14532631887916
 10
609.9869292693195
 20
83.62151679506968
 10
612.5842487574764
 20
87.88854166847015
 10
616.8972514243369
 20
83.63715332542199
 10
615.2210668696297
 20
80.88342155697437
 10
617.6237473814729
 20
76.93616071608922
 10
621.631918880683
 20
80.88707262245343
 10
616.6462585464747
 20
86.34755775039594
 10
618.3202626026529
 20
89.09770727126009
 10
614.9869292693195
 20
94.57389774745062
 10
617.5477988345369
 20
98.78104060459347
 10
621.0016070278494
 20
98.78104060459347
 10
626.0016070278494
 20
87.82865965221242
 10
629.326863971079
 20
87.82865965221242
  0
LWPOLYLINE
  5
44
330
17
100
AcDbEntity
  8
K
100
AcDbPolyline
 90
52
 70
1
 10
561.6440780479455
 20
94.58953427780293
 10
569.977411381279
 20
102.80381999208865
 10
568.3202626026529
 20
105.52627869983155
 10
570.9118005242466
 20
109.78380528530695
 10
574.24513385758
 20
107.04571004721164
 10
577.5477988345369
 20
112.47151679506962
 10
584.2144655012036
 20
112.47151679506962
 10
586.6535959359862
 20
116.47865965221249
 10
584.9819059189189
 20
119.22500753739462
 10
591.6485725855855
 20
127.43929325168035
 10
589.9869292693195
 20
130.16913584268863
 10
592.590451663147
 20
134.44635120397652
 10
598.5450127483564
 20
127.45885605296547
 10
596.8764601597195
 20
119.23527543754109
 10
598.554400202963
 20
116.47865965221249
 10
595.225404472315
 20
111.00959523757625
 10
602.6527205204878
 20
101.51913584268868
 10
605.9935306377456
 20
101.51913584268868
 10
610.2144366801801
 20
94.58479020154631
 10
607.67393682738
 20
87.62865965221245
 10
602.6601973044123
 20
87.62865965221245
 10
599.3268639710791
 20
82.15246917602204
 10
595.9935306377456
 20
82.15246917602204
 10
593.554400202963
 20
78.14532631887916
 10
598.554400202963
 20
69.93104060459343
 10
595.9935306377456
 20
65.72389774745058
 10
592.5477988345369
 20
65.72389774745058
 10
589.9869292693195
 20
69.93104060459343
 10
591.6535959359862
 20
72.66913584268863
 10
589.2706647361413
 20
76.58395138529106
 10
585.9935306377456
 20
71.2000882236411
 10
580.9814393289158
 20
71.2000882236411
 10
575.9814393289157
 20
65.72389774745058
 10
550.8932234767001
 20
65.72389774745058
 10
545.937331402808
 20
71.15177954266582
 10
540.9294503284667
 20
65.66695741362538
 10
531.6384906036438
 20
78.15545522556255
 10
539.977411381279
 20
86.37524856351719
 10
538.3202626026529
 20
89.09770727126009
 10
542.5784671909132
 20
96.09332909483071
 10
545.9230754180044
 20
93.34597233686304
 10
552.6156988333817
 20
101.59224047366745
 10
556.8706647361413
 20
94.60193934770544
 10
556.8706647361413
 20
86.33157043291007
 10
551.8877335362963
 20
78.14532631887916
 10
554.2706647361413
 20
74.23051077627684
 10
557.5784671909132
 20
79.66475766625936
 10
560.9118005242466
 20
76.92666242816404
 10
563.3202626026529
 20
80.88342155697437
 10
561.6535959359862
 20
83.62151679506968
 10
564.9869292693196
 20
89.09770727126009
 10
561.6440780479455
 20
94.58953427780293
  0
LWPOLYLINE
  5
45
330
17
100
AcDbEntity
  8
K
100
AcDbPolyline
 90
6
 70
1
 10
591.6706647361412
 20
100.0220466233862
 10
589.2706647361413
 20
103.96490376624345
 10
585.2210668696297
 20
97.31199298554583
 10
589.2706647361413
 20
90.6590822048483
 10
591.6706647361412
 20
94.60193934770544
 10
591.6706647361412
 20
100.0220466233862
  0
LWPOLYLINE
  5
46
330
17
100
AcDbEntity
  8
K
100
AcDbPolyline
 90
5
 70
1
 10
571.8877335362963
 20
100.05008822364103
 10
575.9373314028079
 20
93.39717744294352
 10
578.3202626026529
 20
97.31199298554583
 10
574.2706647361413
 20
103.96490376624345
 10
571.8877335362963
 20
100.05008822364103
  0
LWPOLYLINE
  5
47
330
17
100
AcDbEntity
  8
K
100
AcDbPolyline
 90
37
 70
1
 10
497.54779883453693
 20
246.63818346173628
 10
499.98692926931955
 20
250.64532631887914
 10
498.337331402808
 20
253.35537995671964
 10
498.337331402808
 20
261.6257488715148
 10
501.66195591707407
 20
267.08763200209495
 10
499.9952892504074
 20
272.5638224782854
 10
502.54779883453693
 20
276.75723108078387
 10
510.99353063774566
 20
276.75723108078387
 10
512.6601973044123
 20
274.0191358426887
 10
515.9868996290394
 20
274.0191358426887
 10
524.2873967852871
 20
263.1099110087631
 10
527.629528948036
 20
265.8552338567355
 10
534.2706647361413
 20
254.94479649056245
 10
535.8811321678703
 20
257.5905644141172
 10
541.0024231530381
 20
257.5905644141172
 10
554.308850463859
 20
227.5322955780663
 10
557.629528948036
 20
230.25999576149746
 10
560.2089585977308
 20
226.0223613369988
 10
556.8681286827755
 20
206.81258932600534
 10
553.5293202596994
 20
195.8422187930413
 10
549.326863971079
 20
188.9381834617363
 10
540.9015255686166
 20
188.9381834617363
 10
537.629528948036
 20
191.62589497149895
 10
534.3064171193279
 20
186.166496967193
 10
529.3064171193279
 20
188.90459220528822
 10
525.9146943922187
 20
183.33247629646576
 10
523.3268927921023
 20
190.41812353487953
 10
524.9869292693196
 20
193.14532631887914
 10
522.5879216989551
 20
197.0865530416207
 10
517.5879216989551
 20
191.6103625654302
 10
513.3243431747675
 20
198.6148129980242
 10
518.3243431747675
 20
209.56719395040514
 10
514.2144655012036
 20
216.3191358426887
 10
502.5402428342435
 20
216.3191358426887
 10
491.66251506073087
 20
239.68832023523467
 10
494.2007259782358
 20
246.63818346173628
 10
497.54779883453693
 20
246.63818346173628
  0
LWPOLYLINE
  5
48
330
17
100
AcDbEntity
  8
K
100
AcDbPolyline
 90
5
 70
1
 10
514.9869292693196
 20
242.43104060459342
 10
512.6039980694746
 20
246.34585614719583
 10
510.2210668696296
 20
242.43104060459342
 10
512.6039980694746
 20
238.516225061991
 10
514.9869292693196
 20
242.43104060459342
  0
LWPOLYLINE
  5
49
330
17
100
AcDbEntity
  8
K
100
AcDbPolyline
 90
5
 70
1
 10
504.29041404813944
 20
241.2218750018036
 10
508.3107447146123
 20
245.18477237304103
 10
505.91758209080973
 20
249.1163966835739
 10
501.89725142433696
 20
245.15349931233644
 10
504.29041404813944
 20
241.2218750018036
  0
LWPOLYLINE
  5
4A
330
17
100
AcDbEntity
  8
K
100
AcDbPolyline
 90
8
 70
1
 10
513.3202626026529
 20
69.93104060459343
 10
517.6039980694746
 20
76.96860601437206
 10
519.326863971079
 20
74.13818346173629
 10
525.9935306377457
 20
74.13818346173629
 10
528.5544002029629
 20
69.93104060459343
 10
525.9890668600373
 20
65.71656439835827
 10
515.0436400360403
 20
67.09977767831398
 10
513.3202626026529
 20
69.93104060459343
  0
LWPOLYLINE
  5
4B
330
17
100
AcDbEntity
  8
K
100
AcDbPolyline
 90
33
 70
1
 10
1224.977411381279
 20
152.0582612170983
 10
1226.653595935986
 20
154.81199298554583
 10
1224.2545883656217
 20
158.75321970828736
 10
1219.2333107450968
 20
153.2537251715218
 10
1216.6602261254359
 20
160.29907591583202
 10
1226.653595935986
 20
176.7167548903077
 10
1221.6535959359862
 20
184.93104060459342
 10
1224.24513385758
 20
189.18856719006882
 10
1227.6398039036658
 20
186.40008822364106
 10
1234.2144655012034
 20
186.40008822364106
 10
1238.3202626026527
 20
193.14532631887914
 10
1236.6535959359862
 20
195.88342155697435
 10
1239.2854944414592
 20
200.20725481596568
 10
1243.5497184415888
 20
190.39953961566857
 10
1241.8706647361412
 20
187.64109424243392
 10
1241.8706647361412
 20
182.1649037662435
 10
1236.8877335362965
 20
173.97865965221249
 10
1239.270664736141
 20
170.0638441096102
 10
1242.5412220621772
 20
175.43690257381195
 10
1255.9861571862614
 20
178.19791603679357
 10
1258.554400202963
 20
173.97865965221249
 10
1253.554400202963
 20
165.76437393792676
 10
1257.6397504526615
 20
159.05272709913686
 10
1262.6273342559036
 20
161.78402299138838
 10
1268.5687163478385
 20
154.81199298554583
 10
1262.6501656232012
 20
147.86675489030776
 10
1252.5681922352833
 20
147.86675489030776
 10
1249.2961956147028
 20
150.55446640007042
 10
1245.9935306377456
 20
145.12865965221243
 10
1242.6601973044123
 20
145.12865965221243
 10
1240.987005494695
 20
142.37984453624807
 10
1233.389069851423
 20
143.76676929652788
 10
1224.977411381279
 20
152.0582612170983
  0
LWPOLYLINE
  5
4C
330
17
100
AcDbEntity
  8
K
100
AcDbPolyline
 90
5
 70
1
 10
1246.6535959359862
 20
163.02627869983155
 10
1244.2706647361415
 20
166.94109424243396
 10
1241.8877335362963
 20
163.02627869983155
 10
1244.2706647361415
 20
159.11146315722925
 10
1246.6535959359862
 20
163.02627869983155
  0
LWPOLYLINE
  5
4D
330
17
100
AcDbEntity
  8
K
100
AcDbPolyline
 90
28
 70
1
 10
1968.3202626026527
 20
28.859612033164893
 10
1966.6535959359862
 20
31.5977072712601
 10
1969.9869292693193
 20
37.07389774745062
 10
1967.551188831131
 20
41.075471324474755
 10
1953.3348177214825
 20
39.70162033488689
 10
1954.1717246017681
 20
76.82441838182474
 10
1957.5681922352835
 20
79.61437393792681
 10
1977.5477988345367
 20
79.61437393792681
 10
1979.2144655012032
 20
82.35246917602201
 10
1989.2144655012034
 20
82.35246917602201
 10
1990.9373314028076
 20
85.18289172865778
 10
1993.5293202596988
 20
80.92462432090764
 10
1998.541860231331
 20
64.45485012840302
 10
1996.8612714031478
 20
58.93291540723
 10
1987.6216015350594
 20
46.51335915596788
 10
1984.280523907835
 20
49.25781577833055
 10
1979.2545883656217
 20
43.75321970828738
 10
1977.6039980694743
 20
46.46490376624346
 10
1975.2210668696298
 20
42.55008822364103
 10
1977.6039980694743
 20
38.63527268103872
 10
1979.2589639722337
 20
41.35414523557224
 10
1985.9964611810467
 20
33.05258617471385
 10
1994.3285611606273
 20
30.314896181423023
 10
2000.2270319299944
 20
23.39322129900234
 10
1997.656807307818
 20
19.17070941971277
 10
1969.2112543430044
 20
21.919649412110775
 10
1966.6535959359862
 20
26.121516795069688
 10
1968.3202626026527
 20
28.859612033164893
  0
LWPOLYLINE
  5
4E
330
17
100
AcDbEntity
  8
K
100
AcDbPolyline
 90
8
 70
1
 10
1981.653595935986
 20
182.1929453664982
 10
1979.9869292693195
 20
184.93104060459342
 10
1982.547798834537
 20
189.13818346173628
 10
1985.9935306377454
 20
189.13818346173628
 10
1990.2163851082548
 20
182.2006368316136
 10
1985.965148695056
 20
172.42279308125597
 10
1979.9809642089542
 20
179.44505038637516
 10
1981.653595935986
 20
182.1929453664982
  0
LWPOLYLINE
  5
4F
330
17
100
AcDbEntity
  8
K
100
AcDbPolyline
 90
5
 70
1
 10
1983.554400202963
 20
157.55008822364104
 10
1980.9671690942446
 20
153.2996371164612
 10
1974.9699394406944
 20
157.52217636232834
 10
1979.2706647361408
 20
164.58765363341965
 10
1983.554400202963
 20
157.55008822364104
  0
LWPOLYLINE
  5
50
330
17
100
AcDbEntity
  8
K
100
AcDbPolyline
 90
37
 70
1
 10
1958.325081712932
 20
141.14688533951426
 10
1956.666135907618
 20
146.5977072712601
 10
1958.325081712932
 20
152.04852920300615
 10
1953.3325138158216
 20
157.5165797569843
 10
1955.0005380232874
 20
171.21820717545555
 10
1953.3373314028076
 20
173.95061805195766
 10
1953.3373314028076
 20
182.22098696675292
 10
1954.9869292693197
 20
184.93104060459342
 10
1953.3373314028076
 20
187.64109424243392
 10
1953.3373314028076
 20
204.1345365434899
 10
1959.2739611210557
 20
211.10098978429093
 10
1966.8850941214164
 20
201.3756531727192
 10
1960.2155775519402
 20
184.94005876936836
 10
1962.6039980694743
 20
181.01622506199112
 10
1964.2451338575797
 20
183.7123767138783
 10
1967.5784671909132
 20
180.9742814757831
 10
1969.2571183298137
 20
183.73206548969068
 10
1975.2270319299944
 20
176.72655463233568
 10
1973.5544002029628
 20
173.97865965221249
 10
1975.2210668696298
 20
171.24056441411727
 10
1971.8877335362963
 20
165.76437393792676
 10
1973.5544002029628
 20
163.02627869983155
 10
1970.937331402808
 20
158.72680852814824
 10
1969.270664736141
 20
161.46490376624345
 10
1965.2210668696296
 20
154.81199298554583
 10
1968.5489108852737
 20
149.34482067413023
 10
1965.2155775519407
 20
141.13053495984462
 10
1967.6039980694745
 20
137.20670125246735
 10
1972.6039980694745
 20
145.420986966753
 10
1975.2210668696298
 20
141.12151679506968
 10
1965.9935306377454
 20
125.96199298554578
 10
1962.5477988345365
 20
125.96199298554578
 10
1960.9373314028078
 20
128.60776090910065
 10
1959.3183918909194
 20
125.94807456814084
 10
1953.3373314028076
 20
127.35179284596288
 10
1953.3373314028076
 20
135.68411119033064
 10
1958.325081712932
 20
141.14688533951426
  0
LWPOLYLINE
  5
51
330
17
100
AcDbEntity
  8
K
100
AcDbPolyline
 90
68
 70
1
 10
3294.2144655012034
 20
128.7000882236411
 10
3290.8811321678704
 20
134.1762786998315
 10
3285.881132167871
 20
134.1762786998315
 10
3284.214465501204
 20
136.91437393792683
 10
3259.214465501204
 20
136.91437393792683
 10
3257.553649637333
 20
139.64285714285717
 10
3240.9800487965927
 20
136.92005129044992
 10
3230.9731372369997
 20
128.7000882236411
 10
3224.326863971079
 20
128.7000882236411
 10
3222.656207227326
 20
125.95543785890284
 10
3174.210720888239
 20
131.44433532589295
 10
3170.0056889540274
 20
138.3526020749547
 10
3168.3390222873604
 20
165.7335544559071
 10
3165.003998069475
 20
171.21252281386234
 10
3165.003998069475
 20
176.68871329005276
 10
3162.5477988345374
 20
180.72389774745056
 10
3114.214465501204
 20
180.72389774745056
 10
3111.6753908254045
 20
184.89523471483525
 10
3108.3410160897047
 20
204.06788944511112
 10
3103.3411938947484
 20
215.01988091977685
 10
3098.342284282278
 20
242.3948621309243
 10
3094.9869292693197
 20
247.90723108078393
 10
3099.1940721004576
 20
254.81896573193862
 10
3109.2348589019502
 20
263.0667548903077
 10
3139.2230342053417
 20
263.0667548903077
 10
3145.8897008720082
 20
271.28104060459344
 10
3149.214465501204
 20
271.28104060459344
 10
3152.547798834537
 20
276.75723108078387
 10
3164.326863971079
 20
276.75723108078387
 10
3165.993530637746
 20
274.0191358426887
 10
3172.660197304413
 20
274.0191358426887
 10
3174.3268639710795
 20
271.28104060459344
 10
3190.993530637746
 20
271.28104060459344
 10
3192.6601973044126
 20
268.54294536649826
 10
3199.326863971079
 20
268.54294536649826
 10
3200.993530637746
 20
265.80485012840296
 10
3207.6601973044126
 20
265.80485012840296
 10
3209.326863971079
 20
263.0667548903077
 10
3222.6601973044126
 20
263.0667548903077
 10
3225.993530637746
 20
257.5905644141172
 10
3237.660197304412
 20
257.5905644141172
 10
3239.326863971079
 20
254.852469176022
 10
3270.993530637746
 20
254.852469176022
 10
3272.6601973044126
 20
252.11437393792679
 10
3287.6601973044126
 20
252.11437393792679
 10
3289.326863971079
 20
249.3762786998316
 10
3304.214465501204
 20
249.3762786998316
 10
3308.343841586255
 20
256.1602536967014
 10
3311.677174919588
 20
269.8507298871775
 10
3314.214465501204
 20
274.0191358426887
 10
3317.547798834537
 20
274.0191358426887
 10
3319.214465501204
 20
276.75723108078387
 10
3327.5629975099073
 20
276.75723108078387
 10
3335.896330843241
 20
284.9715167950696
 10
3344.2407482875205
 20
284.9715167950696
 10
3352.635592823396
 20
290.48812891864475
 10
3355.203998069475
 20
286.2686060143722
 10
3355.203998069475
 20
141.09347519481474
 10
3352.6601973044126
 20
136.91437393792683
 10
3340.993530637746
 20
136.91437393792683
 10
3339.3334407434395
 20
134.1870833972798
 10
3326.0001074101056
 20
131.4489881591846
 10
3324.326863971079
 20
128.7000882236411
 10
3312.6339145180955
 20
128.7000882236411
 10
3304.2852731684407
 20
123.21383819386777
 10
3300.0377509258888
 20
124.60945264499202
 10
3297.5477988345374
 20
128.7000882236411
 10
3294.2144655012034
 20
128.7000882236411
  0
LWPOLYLINE
  5
52
330
17
100
AcDbEntity
  8
K
100
AcDbPolyline
 90
22
 70
1
 10
3181.710306702707
 20
502.4569205354568
 10
3171.6761426891403
 20
518.9416185577455
 10
3170.008688243769
 20
527.159786895645
 10
3161.6601973127545
 20
543.6182404453593
 10
3165.8552340576916
 20
553.2668249587142
 10
3169.2348589019502
 20
556.0429453664981
 10
3187.6601973044126
 20
556.0429453664981
 10
3189.3268639710795
 20
553.3048501284029
 10
3239.326863971079
 20
553.3048501284029
 10
3248.5373314028084
 20
538.1733679191341
 10
3248.5373314028084
 20
521.7447964905626
 10
3250.2210668696302
 20
518.9786596522125
 10
3247.6601973044126
 20
514.7715167950696
 10
3234.3268639710795
 20
514.7715167950696
 10
3232.666774076772
 20
512.0442262544227
 10
3219.3334407434395
 20
509.30613101632747
 10
3217.6601973044126
 20
506.5572310807839
 10
3202.6601973044126
 20
506.5572310807839
 10
3200.993530637746
 20
503.8191358426887
 10
3194.3268639710795
 20
503.8191358426887
 10
3192.655733526704
 20
501.0737072555012
 10
3181.710306702707
 20
502.4569205354568
  0
LWPOLYLINE
  5
53
330
17
100
AcDbEntity
  8
K
100
AcDbPolyline
 90
51
 70
1
 10
3044.2144655012034
 20
62.98580250935537
 10
3040.860738767124
 20
68.49549642962927
 10
3030.860738767124
 20
76.70978214391499
 10
3025.003998069475
 20
86.33157043291007
 10
3025.003998069475
 20
102.81622506199118
 10
3028.3373314028086
 20
108.29241553818159
 10
3028.3373314028086
 20
127.45908220484824
 10
3029.9869292693197
 20
130.16913584268863
 10
3027.547798834537
 20
134.1762786998315
 10
3024.214465501204
 20
134.1762786998315
 10
3022.547798834537
 20
136.91437393792683
 10
3014.226556810034
 20
136.91437393792683
 10
3009.226556810034
 20
142.39056441411725
 10
3004.214465501204
 20
142.39056441411725
 10
3002.5477988345374
 20
145.12865965221243
 10
2994.2348589019507
 20
145.12865965221243
 10
2987.5681922352837
 20
150.60485012840297
 10
2979.231890690821
 20
150.60485012840297
 10
2971.6736014720664
 20
157.50328870107566
 10
2970.0024680919423
 20
182.2121893929085
 10
2975.8533678322206
 20
194.5707225177824
 10
2980.8932234767003
 20
200.0905644141172
 10
2997.6601973044126
 20
200.0905644141172
 10
2999.326863971079
 20
197.352469176022
 10
3039.3023373128735
 20
197.352469176022
 10
3050.9074937113714
 20
189.18149171177333
 10
3052.5477988345374
 20
191.8762786998315
 10
3059.214465501204
 20
191.8762786998315
 10
3060.8811321678704
 20
194.61437393792679
 10
3082.6601973044126
 20
194.61437393792679
 10
3085.993530637746
 20
189.13818346173628
 10
3089.3268639710795
 20
189.13818346173628
 10
3091.8706647361414
 20
184.95908220484813
 10
3091.8706647361414
 20
165.73633233767194
 10
3090.2025866150566
 20
162.9959182816042
 10
3088.5387630644786
 20
130.1948254273426
 10
3094.326863971079
 20
120.68580250935534
 10
3097.6601973044126
 20
120.68580250935534
 10
3100.22106686963
 20
116.47865965221249
 10
3098.5373314028084
 20
113.71252281386246
 10
3098.5373314028084
 20
102.76014186148153
 10
3095.203998069475
 20
97.283951385291
 10
3095.203998069475
 20
83.59799350446329
 10
3087.66591085452
 20
68.46199298554578
 10
3084.326863971079
 20
68.46199298554578
 10
3080.993530637746
 20
62.98580250935537
 10
3075.9849619336082
 20
62.98580250935537
 10
3062.6182540542786
 20
46.51610887232383
 10
3052.5274054337906
 20
54.80502023915312
 10
3047.5477988345374
 20
62.98580250935537
 10
3044.2144655012034
 20
62.98580250935537
  0
LWPOLYLINE
  5
54
330
17
100
AcDbEntity
  8
K
100
AcDbPolyline
 90
15
 70
1
 10
3008.328622583741
 20
269.82572724019013
 10
3010.0039980694746
 20
272.5781298238957
 10
3010.0039980694746
 20
302.6971774429434
 10
3011.6706647361416
 20
305.43527268103867
 10
3011.6706647361416
 20
335.54707742391133
 10
3015.8717667401647
 20
345.2096120331649
 10
3027.6449986290427
 20
345.2096120331649
 10
3036.0163286508014
 20
336.9578724402885
 10
3045.212706888542
 20
321.84953676399977
 10
3041.862653593033
 20
310.8422187930413
 10
3033.5293202597
 20
297.15174260256515
 10
3030.1968911837494
 20
286.2023327815861
 10
3019.3354955767554
 20
265.61342352657016
 10
3010.0334483885363
 20
264.2241567387192
 10
3008.328622583741
 20
269.82572724019013
  0
LWPOLYLINE
  5
55
330
17
100
AcDbEntity
  8
K
100
AcDbPolyline
 90
122
 70
1
 10
3606.670664736142
 20
23.355379956719545
 10
3603.3373314028086
 20
28.83157043291007
 10
3603.3373314028086
 20
37.0458561471958
 10
3594.199159969768
 20
52.05856635861872
 10
3589.1991599697685
 20
54.796661596713925
 10
3585.9015790196217
 20
60.21411601481208
 10
3581.0088361691814
 20
57.53475683480913
 10
3577.660197304413
 20
52.03342155697443
 10
3567.5629975099077
 20
52.03342155697443
 10
3559.2296641765743
 20
60.24770727126017
 10
3552.559890143367
 20
60.24770727126017
 10
3547.5598901433673
 20
65.72389774745058
 10
3540.8932234767003
 20
65.72389774745058
 10
3535.8811804799448
 20
71.21327817246892
 10
3519.217167696963
 20
76.68859665830585
 10
3510.8583341548156
 20
84.92801829270802
 10
3504.214465501204
 20
95.84294536649818
 10
3500.8811321678704
 20
95.84294536649818
 10
3499.214465501204
 20
98.5810406045935
 10
3492.547798834538
 20
98.5810406045935
 10
3490.881132167871
 20
101.3191358426887
 10
3477.5740816208545
 20
101.3191358426887
 10
3469.2407482875215
 20
106.79532631887912
 10
3454.2144655012044
 20
106.79532631887912
 10
3452.547798834538
 20
109.53342155697443
 10
3445.901525568617
 20
109.53342155697443
 10
3442.527405433791
 20
112.30502023915312
 10
3440.003998069475
 20
116.45061805195766
 10
3440.003998069475
 20
157.53520778706465
 10
3438.3275410343526
 20
163.0435666167529
 10
3451.6706647361416
 20
182.2243069380748
 10
3451.6706647361416
 20
187.64109424243392
 10
3445.012009212584
 20
198.58031403113662
 10
3434.995289250408
 20
231.49239390685682
 10
3442.5477988345374
 20
243.90008822364106
 10
3452.547798834538
 20
243.90008822364106
 10
3454.2144655012044
 20
246.63818346173628
 10
3482.660197304413
 20
246.63818346173628
 10
3485.203998069475
 20
242.45908220484813
 10
3485.203998069475
 20
184.95908220484813
 10
3487.6019992051392
 20
181.01950891054318
 10
3522.546446474014
 20
241.16199298554585
 10
3527.648105995583
 20
241.16199298554585
 10
3532.648105995583
 20
235.68580250935534
 10
3539.306470570333
 20
235.68580250935534
 10
3545.9731372369997
 20
230.20961203316492
 10
3550.981439328916
 20
230.20961203316492
 10
3555.9814393289166
 20
224.7334215569744
 10
3562.660197304413
 20
224.7334215569744
 10
3564.3268639710795
 20
221.9953263188792
 10
3567.5681922352837
 20
221.9953263188792
 10
3577.568192235284
 20
230.20961203316492
 10
3609.3268639710795
 20
230.20961203316492
 10
3610.9628622813702
 20
227.52190052340217
 10
3614.2961956147033
 20
230.25999576149746
 10
3615.9373314028085
 20
227.56384410961005
 10
3617.547798834538
 20
230.20961203316492
 10
3640.993530637746
 20
230.20961203316492
 10
3645.203998069475
 20
223.29241553818147
 10
3645.203998069475
 20
215.03520778706465
 10
3641.8693815084966
 20
204.07861051527775
 10
3640.202209038386
 20
184.90612710900922
 10
3635.9709264987887
 20
175.1741772679347
 10
3627.550501030296
 20
183.47431094402012
 10
3619.2044175925557
 20
186.21659550213477
 10
3617.578467190914
 20
188.88779973340374
 10
3610.9731372369997
 20
183.46199298554578
 10
3599.3005811847624
 20
183.46199298554578
 10
3590.967247851429
 20
177.98580250935535
 10
3585.993530637746
 20
177.98580250935535
 10
3584.3268639710795
 20
175.24770727126017
 10
3572.6501656232012
 20
175.24770727126017
 10
3566.8936985966616
 20
168.4926694339941
 10
3570.9971548783933
 20
161.75127697114945
 10
3595.9721391679777
 20
159.01592154895684
 10
3604.3005811847624
 20
153.54294536649815
 10
3620.888608951795
 20
153.54294536649815
 10
3635.9476274001427
 20
172.78502449494204
 10
3637.665535042093
 20
169.96274765459552
 10
3654.3322017087594
 20
167.2246524165003
 10
3655.993530637746
 20
164.49532631887908
 10
3667.633914518096
 20
164.49532631887908
 10
3675.967247851429
 20
159.01913584268868
 10
3687.6398039036667
 20
159.01913584268868
 10
3694.306470570333
 20
153.54294536649815
 10
3699.326863971079
 20
153.54294536649815
 10
3701.8626535930334
 20
149.37700527328857
 10
3703.537331402809
 20
143.87449246974126
 10
3703.537331402809
 20
130.19717744294346
 10
3706.013924038493
 20
126.12848954146227
 10
3709.306470570333
 20
123.42389774745055
 10
3717.6398039036662
 20
123.42389774745055
 10
3724.3064705703327
 20
117.94770727126014
 10
3732.6398039036667
 20
117.94770727126014
 10
3739.306470570333
 20
112.47151679506962
 10
3747.6527205204884
 20
112.47151679506962
 10
3755.205507745294
 20
102.82073311892891
 10
3753.536120158693
 20
64.42481862710126
 10
3750.993530637746
 20
60.24770727126017
 10
3739.300581184762
 20
60.24770727126017
 10
3730.9672478514294
 20
54.771516795069644
 10
3725.993530637746
 20
54.771516795069644
 10
3724.3268639710795
 20
52.03342155697443
 10
3710.993530637746
 20
52.03342155697443
 10
3709.3268639710795
 20
49.29532631887912
 10
3702.574081620855
 20
49.29532631887912
 10
3694.1969436436593
 20
54.80030270389313
 10
3690.881132167871
 20
60.24770727126017
 10
3680.9849619336087
 20
60.24770727126017
 10
3674.332242611754
 20
52.05060667826034
 10
3661.005685102333
 20
46.57719912974822
 10
3657.6723517689998
 20
41.10100865355781
 10
3644.3293959132084
 20
35.62086606992909
 10
3639.31477266225
 20
30.128659652212452
 10
3634.3147726622497
 20
30.128659652212452
 10
3629.3147726622497
 20
24.65246917602204
 10
3625.993530637746
 20
24.65246917602204
 10
3622.660197304413
 20
19.176278699831517
 10
3617.6449986290427
 20
19.176278699831517
 10
3609.2509154241434
 20
10.90211096928817
 10
3606.670664736142
 20
15.141094242433816
 10
3606.670664736142
 20
23.355379956719545
  0
LWPOLYLINE
  5
56
330
17
100
AcDbEntity
  8
K
100
AcDbPolyline
 90
10
 70
1
 10
3688.3785174860263
 20
464.1210504390525
 10
3686.6706647361416
 20
466.9268085281483
 10
3686.6706647361416
 20
475.1971774429434
 10
3688.3373314028086
 20
477.9352726810386
 10
3688.3373314028086
 20
488.88041075724465
 10
3692.5384334068317
 20
498.54294536649815
 10
3719.3094387814626
 20
498.54294536649815
 10
3726.904049925867
 20
491.61135582993876
 10
3705.9854153134465
 20
462.7436400647986
 10
3688.3785174860263
 20
464.1210504390525
  0
LWPOLYLINE
  5
57
330
17
100
AcDbEntity
  8
K
100
AcDbPolyline
 90
16
 70
1
 10
3646.653595935987
 20
275.2881834617363
 10
3650.881132167871
 20
282.2334215569744
 10
3655.881132167871
 20
282.2334215569744
 10
3659.202311036617
 20
287.6896439842006
 10
3672.5356443699507
 20
293.165834460391
 10
3675.8710842592222
 20
298.64548570705216
 10
3684.2044175925557
 20
301.3835809451474
 10
3687.5477988345374
 20
306.8762786998316
 10
3690.8932234767008
 20
306.8762786998316
 10
3695.953407773328
 20
312.41838531042333
 10
3700.2023071849226
 20
305.4380505628036
 10
3701.868973851589
 20
278.0570981818512
 10
3703.5477700135143
 20
275.2990759158319
 10
3701.00589193281
 20
268.33917164723675
 10
3649.2126804570967
 20
271.08397317705567
 10
3646.653595935987
 20
275.2881834617363
  0
LWPOLYLINE
  5
58
330
17
100
AcDbEntity
  8
K
100
AcDbPolyline
 90
31
 70
1
 10
3512.5477988345374
 20
292.9858025093554
 10
3509.2144655012044
 20
292.9858025093554
 10
3505.881132167871
 20
298.46199298554586
 10
3464.3268639710795
 20
298.46199298554586
 10
3462.660197304413
 20
295.72389774745056
 10
3445.8655848106932
 20
295.72389774745056
 10
3441.67176992898
 20
308.1256074690878
 10
3440.002085585201
 20
332.8130831235404
 10
3444.214465501204
 20
339.7334215569744
 10
3472.6601973044126
 20
339.7334215569744
 10
3474.3268639710795
 20
336.99532631887917
 10
3485.9935306377465
 20
336.99532631887917
 10
3487.6601973044126
 20
334.25723108078387
 10
3509.2144655012044
 20
334.25723108078387
 10
3512.5477988345374
 20
339.7334215569744
 10
3555.881132167871
 20
339.7334215569744
 10
3557.5477988345374
 20
342.4715167950696
 10
3565.9935306377465
 20
342.4715167950696
 10
3568.5397951926807
 20
338.2883678833919
 10
3566.868260189253
 20
319.06571534397324
 10
3565.203998069475
 20
316.33157043291015
 10
3565.203998069475
 20
302.641094242434
 10
3562.660197304413
 20
298.46199298554586
 10
3555.9814393289166
 20
298.46199298554586
 10
3550.981439328916
 20
292.9858025093554
 10
3542.6398039036662
 20
292.9858025093554
 10
3535.9731372369997
 20
287.50961203316496
 10
3529.3064705703327
 20
287.50961203316496
 10
3522.6250000652276
 20
282.02126126111403
 10
3518.3710842592222
 20
283.41897645451576
 10
3512.5477988345374
 20
292.9858025093554
  0
LWPOLYLINE
  5
59
330
17
100
AcDbEntity
  8
K
100
AcDbPolyline
 90
26
 70
1
 10
4924.22021298704
 20
2.754655267870776
 10
4919.217684850097
 20
8.233614655953069
 10
4913.337061555261
 20
9.613760939434556
 10
4914.171109424042
 20
254.88340920847685
 10
4924.335415204606
 20
252.10032548284622
 10
4925.993530637746
 20
249.3762786998316
 10
4937.669562732118
 20
249.3762786998316
 10
4941.8706647361405
 20
239.713744090578
 10
4941.8706647361405
 20
226.03051077627677
 10
4943.538233581681
 20
223.29093338717541
 10
4941.869770623761
 20
171.21105391495206
 10
4935.2155775519395
 20
160.2791652969614
 10
4948.533486728239
 20
127.46003196965205
 10
4950.210616259543
 20
119.19417927965658
 10
4938.5472966264115
 20
102.77032102075701
 10
4940.203998069474
 20
97.3268734221222
 10
4940.203998069474
 20
58.95061805195767
 10
4938.5373314028075
 20
56.21252281386246
 10
4938.5373314028075
 20
42.578129823895864
 10
4940.203998069474
 20
39.84003458580065
 10
4940.203998069474
 20
23.411463157229196
 10
4941.8706647361405
 20
20.673367919133987
 10
4941.8706647361405
 20
9.70782580307461
 10
4943.546040221875
 20
4.203020635663357
 10
4940.987679834949
 20
0.0
 10
4924.22021298704
 20
2.754655267870776
  0
ENDSEC
  0
SECTION
  2
OBJECTS
  0
DICTIONARY
  5
A
330
0
100
AcDbDictionary
281
1
  3
ACAD_COLOR
350
B
  3
ACAD_GROUP
350
C
  3
ACAD_LAYOUT
350
D
  3
ACAD_MATERIAL
350
E
  3
ACAD_MLEADERSTYLE
350
F
  3
ACAD_MLINESTYLE
350
10
  3
ACAD_PLOTSETTINGS
350
11
  3
ACAD_PLOTSTYLENAME
350
12
  3
ACAD_SCALELIST
350
14
  3
ACAD_TABLESTYLE
350
15
  3
ACAD_VISUALSTYLE
350
16
  3
EZDXF_META
350
2D
  0
DICTIONARY
  5
B
330
A
100
AcDbDictionary
281
1
  0
DICTIONARY
  5
C
330
A
100
AcDbDictionary
281
1
  0
DICTIONARY
  5
D
330
A
100
AcDbDictionary
281
1
  3
Model
350
1A
  3
Layout1
350
1E
  0
DICTIONARY
  5
E
330
A
100
AcDbDictionary
281
1
  3
ByBlock
350
1F
  3
ByLayer
350
20
  3
Global
350
21
  0
DICTIONARY
  5
F
330
A
100
AcDbDictionary
281
1
  3
Standard
350
2C
  0
DICTIONARY
  5
10
330
A
100
AcDbDictionary
281
1
  3
Standard
350
22
  0
DICTIONARY
  5
11
330
A
100
AcDbDictionary
281
1
  0
ACDBDICTIONARYWDFLT
  5
12
330
A
100
AcDbDictionary
281
1
  3
Normal
350
13
100
AcDbDictionaryWithDefault
340
13
  0
ACDBPLACEHOLDER
  5
13
330
12
  0
DICTIONARY
  5
14
330
A
100
AcDbDictionary
281
1
  0
DICTIONARY
  5
15
330
A
100
AcDbDictionary
281
1
  0
DICTIONARY
  5
16
330
A
100
AcDbDictionary
281
1
  0
LAYOUT
  5
1A
330
D
100
AcDbPlotSettings
  1

  4
A3
  6

 40
7.5
 41
20.0
 42
7.5
 43
20.0
 44
420.0
 45
297.0
 46
0.0
 47
0.0
 48
0.0
 49
0.0
140
0.0
141
0.0
142
1.0
143
1.0
 70
1024
 72
1
 73
0
 74
5
  7

 75
16
 76
0
 77
2
 78
300
147
1.0
148
0.0
149
0.0
100
AcDbLayout
  1
Model
 70
1
 71
0
 10
0.0
 20
0.0
 11
420.0
 21
297.0
 12
0.0
 22
0.0
 32
0.0
 14
1e+20
 24
1e+20
 34
1e+20
 15
-1e+20
 25
-1e+20
 35
-1e+20
146
0.0
 13
0.0
 23
0.0
 33
0.0
 16
1.0
 26
0.0
 36
0.0
 17
0.0
 27
1.0
 37
0.0
 76
1
330
17
  0
LAYOUT
  5
1E
330
D
100
AcDbPlotSettings
  1

  4
A3
  6

 40
7.5
 41
20.0
 42
7.5
 43
20.0
 44
420.0
 45
297.0
 46
0.0
 47
0.0
 48
0.0
 49
0.0
140
0.0
141
0.0
142
1.0
143
1.0
 70
0
 72
1
 73
0
 74
5
  7

 75
16
 76
0
 77
2
 78
300
147
1.0
148
0.0
149
0.0
100
AcDbLayout
  1
Layout1
 70
1
 71
1
 10
0.0
 20
0.0
 11
420.0
 21
297.0
 12
0.0
 22
0.0
 32
0.0
 14
1e+20
 24
1e+20
 34
1e+20
 15
-1e+20
 25
-1e+20
 35
-1e+20
146
0.0
 13
0.0
 23
0.0
 33
0.0
 16
1.0
 26
0.0
 36
0.0
 17
0.0
 27
1.0
 37
0.0
 76
1
330
1B
  0
MATERIAL
  5
1F
102
{ACAD_REACTORS
330
E
102
}
330
E
100
AcDbMaterial
  1
ByBlock
  2

 70
0
 40
1.0
 71
1
 41
1.0
 91
-1023410177
 42
1.0
 72
1
  3

 73
1
 74
1
 75
1
 44
0.5
 73
0
 45
1.0
 46
1.0
 77
1
  4

 78
1
 79
1
170
1
 48
1.0
171
1
  6

172
1
173
1
174
1
140
1.0
141
1.0
175
1
  7

176
1
177
1
178
1
143
1.0
179
1
  8

270
1
271
1
272
1
145
1.0
146
1.0
273
1
  9

274
1
275
1
276
1
 42
1.0
 72
1
  3

 73
1
 74
1
 75
1
 94
63
  0
MATERIAL
  5
20
102
{ACAD_REACTORS
330
E
102
}
330
E
100
AcDbMaterial
  1
ByLayer
  2

 70
0
 40
1.0
 71
1
 41
1.0
 91
-1023410177
 42
1.0
 72
1
  3

 73
1
 74
1
 75
1
 44
0.5
 73
0
 45
1.0
 46
1.0
 77
1
  4

 78
1
 79
1
170
1
 48
1.0
171
1
  6

172
1
173
1
174
1
140
1.0
141
1.0
175
1
  7

176
1
177
1
178
1
143
1.0
179
1
  8

270
1
271
1
272
1
145
1.0
146
1.0
273
1
  9

274
1
275
1
276
1
 42
1.0
 72
1
  3

 73
1
 74
1
 75
1
 94
63
  0
MATERIAL
  5
21
102
{ACAD_REACTORS
330
E
102
}
330
E
100
AcDbMaterial
  1
Global
  2

 70
0
 40
1.0
 71
1
 41
1.0
 91
-1023410177
 42
1.0
 72
1
  3

 73
1
 74
1
 75
1
 44
0.5
 73
0
 45
1.0
 46
1.0
 77
1
  4

 78
1
 79
1
170
1
 48
1.0
171
1
  6

172
1
173
1
174
1
140
1.0
141
1.0
175
1
  7

176
1
177
1
178
1
143
1.0
179
1
  8

270
1
271
1
272
1
145
1.0
146
1.0
273
1
  9

274
1
275
1
276
1
 42
1.0
 72
1
  3

 73
1
 74
1
 75
1
 94
63
  0
MLINESTYLE
  5
22
102
{ACAD_REACTORS
330
10
102
}
330
10
100
AcDbMlineStyle
  2
Standard
 70
0
  3

 62
256
 51
90.0
 52
90.0
 71
2
 49
0.5
 62
256
  6
BYLAYER
 49
-0.5
 62
256
  6
BYLAYER
  0
MLEADERSTYLE
  5
2C
102
{ACAD_REACTORS
330
F
102
}
330
F
100
AcDbMLeaderStyle
179
2
170
2
171
1
172
0
 90
2
 40
0.0
 41
0.0
173
1
 91
-1056964608
 92
-2
290
1
 42
2.0
291
1
 43
8.0
  3
Standard
 44
4.0
300

342
29
174
1
175
1
176
0
178
1
 93
-1056964608
 45
4.0
292
0
297
0
 46
4.0
 94
-1056964608
 47
1.0
 49
1.0
140
1.0
294
1
141
0.0
177
0
142
1.0
295
0
296
0
143
3.75
271
0
272
9
273
9
  0
DICTIONARY
  5
2D
330
A
100
AcDbDictionary
280
1
281
1
  3
CREATED_BY_EZDXF
350
2E
  3
WRITTEN_BY_EZDXF
350
5C
  0
DICTIONARYVAR
  5
2E
330
2D
100
DictionaryVariables
280
0
  1
1.4.4 @ 2026-07-21T08:09:32.669630+00:00
  0
DICTIONARYVAR
  5
5C
330
2D
100
DictionaryVariables
280
0
  1
1.4.4 @ 2026-07-21T08:09:32.676179+00:00
  0
ENDSEC
  0
EOF
