  0
SECTION
  2
HEADER
  9
$ACADVER
  1
AC1027
  9
$ACADMAINTVER
 70
105
  9
$DWGCODEPAGE
  3
ANSI_1252
  9
$LASTSAVEDBY
  1
ezdxf
  9
$REQUIREDVERSIONS
160
0
  9
$INSBASE
 10
0.0
 20
0.0
 30
0.0
  9
$EXTMIN
 10
1e+20
 20
1e+20
 30
1e+20
  9
$EXTMAX
 10
-1e+20
 20
-1e+20
 30
-1e+20
  9
$LIMMIN
 10
0.0
 20
0.0
  9
$LIMMAX
 10
420.0
 20
297.0
  9
$ORTHOMODE
 70
0
  9
$REGENMODE
 70
1
  9
$FILLMODE
 70
1
  9
$QTEXTMODE
 70
0
  9
$MIRRTEXT
 70
1
  9
$LTSCALE
 40
1.0
  9
$ATTMODE
 70
1
  9
$TEXTSIZE
 40
2.5
  9
$TRACEWID
 40
1.0
  9
$TEXTSTYLE
  7
Standard
  9
$CLAYER
  8
0
  9
$CELTYPE
  6
ByLayer
  9
$CECOLOR
 62
256
  9
$CELTSCALE
 40
1.0
  9
$DISPSILH
 70
0
  9
$DIMSCALE
 40
1.0
  9
$DIMASZ
 40
2.5
  9
$DIMEXO
 40
0.625
  9
$DIMDLI
 40
3.75
  9
$DIMRND
 40
0.0
  9
$DIMDLE
 40
0.0
  9
$DIMEXE
 40
1.25
  9
$DIMTP
 40
0.0
  9
$DIMTM
 40
0.0
  9
$DIMTXT
 40
2.5
  9
$DIMCEN
 40
2.5
  9
$DIMTSZ
 40
0.0
  9
$DIMTOL
 70
0
  9
$DIMLIM
 70
0
  9
$DIMTIH
 70
0
  9
$DIMTOH
 70
0
  9
$DIMSE1
 70
0
  9
$DIMSE2
 70
0
  9
$DIMTAD
 70
1
  9
$DIMZIN
 70
8
  9
$DIMBLK
  1

  9
$DIMASO
 70
1
  9
$DIMSHO
 70
1
  9
$DIMPOST
  1

  9
$DIMAPOST
  1

  9
$DIMALT
 70
0
  9
$DIMALTD
 70
3
  9
$DIMALTF
 40
0.03937007874
  9
$DIMLFAC
 40
1.0
  9
$DIMTOFL
 70
1
  9
$DIMTVP
 40
0.0
  9
$DIMTIX
 70
0
  9
$DIMSOXD
 70
0
  9
$DIMSAH
 70
0
  9
$DIMBLK1
  1

  9
$DIMBLK2
  1

  9
$DIMSTYLE
  2
ISO-25
  9
$DIMCLRD
 70
0
  9
$DIMCLRE
 70
0
  9
$DIMCLRT
 70
0
  9
$DIMTFAC
 40
1.0
  9
$DIMGAP
 40
0.625
  9
$DIMJUST
 70
0
  9
$DIMSD1
 70
0
  9
$DIMSD2
 70
0
  9
$DIMTOLJ
 70
0
  9
$DIMTZIN
 70
8
  9
$DIMALTZ
 70
0
  9
$DIMALTTZ
 70
0
  9
$DIMUPT
 70
0
  9
$DIMDEC
 70
2
  9
$DIMTDEC
 70
2
  9
$DIMALTU
 70
2
  9
$DIMALTTD
 70
3
  9
$DIMTXSTY
  7
Standard
  9
$DIMAUNIT
 70
0
  9
$DIMADEC
 70
0
  9
$DIMALTRND
 40
0.0
  9
$DIMAZIN
 70
0
  9
$DIMDSEP
 70
44
  9
$DIMATFIT
 70
3
  9
$DIMFRAC
 70
0
  9
$DIMLDRBLK
  1

  9
$DIMLUNIT
 70
2
  9
$DIMLWD
 70
-2
  9
$DIMLWE
 70
-2
  9
$DIMTMOVE
 70
0
  9
$DIMFXL
 40
1.0
  9
$DIMFXLON
 70
0
  9
$DIMJOGANG
 40
0.785398163397
  9
$DIMTFILL
 70
0
  9
$DIMTFILLCLR
 70
0
  9
$DIMARCSYM
 70
0
  9
$DIMLTYPE
  6

  9
$DIMLTEX1
  6

  9
$DIMLTEX2
  6

  9
$DIMTXTDIRECTION
 70
0
  9
$LUNITS
 70
2
  9
$LUPREC
 70
4
  9
$SKETCHINC
 40
1.0
  9
$FILLETRAD
 40
10.0
  9
$AUNITS
 70
0
  9
$AUPREC
 70
2
  9
$MENU
  1
.
  9
$ELEVATION
 40
0.0
  9
$PELEVATION
 40
0.0
  9
$THICKNESS
 40
0.0
  9
$LIMCHECK
 70
0
  9
$CHAMFERA
 40
0.0
  9
$CHAMFERB
 40
0.0
  9
$CHAMFERC
 40
0.0
  9
$CHAMFERD
 40
0.0
  9
$SKPOLY
 70
0
  9
$TDCREATE
 40
2461243.464953704
  9
$TDUCREATE
 40
2458532.153996898
  9
$TDUPDATE
 40
2461243.464953704
  9
$TDUUPDATE
 40
2458532.1544311
  9
$TDINDWG
 40
0.0
  9
$TDUSRTIMER
 40
0.0
  9
$USRTIMER
 70
1
  9
$ANGBASE
 50
0.0
  9
$ANGDIR
 70
0
  9
$PDMODE
 70
0
  9
$PDSIZE
 40
0.0
  9
$PLINEWID
 40
0.0
  9
$SPLFRAME
 70
0
  9
$SPLINETYPE
 70
6
  9
$SPLINESEGS
 70
8
  9
$HANDSEED
  5
3F
  9
$SURFTAB1
 70
6
  9
$SURFTAB2
 70
6
  9
$SURFTYPE
 70
6
  9
$SURFU
 70
6
  9
$SURFV
 70
6
  9
$UCSBASE
  2

  9
$UCSNAME
  2

  9
$UCSORG
 10
0.0
 20
0.0
 30
0.0
  9
$UCSXDIR
 10
1.0
 20
0.0
 30
0.0
  9
$UCSYDIR
 10
0.0
 20
1.0
 30
0.0
  9
$UCSORTHOREF
  2

  9
$UCSORTHOVIEW
 70
0
  9
$UCSORGTOP
 10
0.0
 20
0.0
 30
0.0
  9
$UCSORGBOTTOM
 10
0.0
 20
0.0
 30
0.0
  9
$UCSORGLEFT
 10
0.0
 20
0.0
 30
0.0
  9
$UCSORGRIGHT
 10
0.0
 20
0.0
 30
0.0
  9
$UCSORGFRONT
 10
0.0
 20
0.0
 30
0.0
  9
$UCSORGBACK
 10
0.0
 20
0.0
 30
0.0
  9
$PUCSBASE
  2

  9
$PUCSNAME
  2

  9
$PUCSORG
 10
0.0
 20
0.0
 30
0.0
  9
$PUCSXDIR
 10
1.0
 20
0.0
 30
0.0
  9
$PUCSYDIR
 10
0.0
 20
1.0
 30
0.0
  9
$PUCSORTHOREF
  2

  9
$PUCSORTHOVIEW
 70
0
  9
$PUCSORGTOP
 10
0.0
 20
0.0
 30
0.0
  9
$PUCSORGBOTTOM
 10
0.0
 20
0.0
 30
0.0
  9
$PUCSORGLEFT
 10
0.0
 20
0.0
 30
0.0
  9
$PUCSORGRIGHT
 10
0.0
 20
0.0
 30
0.0
  9
$PUCSORGFRONT
 10
0.0
 20
0.0
 30
0.0
  9
$PUCSORGBACK
 10
0.0
 20
0.0
 30
0.0
  9
$USERI1
 70
0
  9
$USERI2
 70
0
  9
$USERI3
 70
0
  9
$USERI4
 70
0
  9
$USERI5
 70
0
  9
$USERR1
 40
0.0
  9
$USERR2
 40
0.0
  9
$USERR3
 40
0.0
  9
$USERR4
 40
0.0
  9
$USERR5
 40
0.0
  9
$WORLDVIEW
 70
1
  9
$SHADEDGE
 70
3
  9
$SHADEDIF
 70
70
  9
$TILEMODE
 70
1
  9
$MAXACTVP
 70
64
  9
$PINSBASE
 10
0.0
 20
0.0
 30
0.0
  9
$PLIMCHECK
 70
0
  9
$PEXTMIN
 10
1e+20
 20
1e+20
 30
1e+20
  9
$PEXTMAX
 10
-1e+20
 20
-1e+20
 30
-1e+20
  9
$PLIMMIN
 10
0.0
 20
0.0
  9
$PLIMMAX
 10
420.0
 20
297.0
  9
$UNITMODE
 70
0
  9
$VISRETAIN
 70
1
  9
$PLINEGEN
 70
0
  9
$PSLTSCALE
 70
1
  9
$TREEDEPTH
 70
3020
  9
$CMLSTYLE
  2
Standard
  9
$CMLJUST
 70
0
  9
$CMLSCALE
 40
20.0
  9
$PROXYGRAPHICS
 70
1
  9
$MEASUREMENT
 70
1
  9
$CELWEIGHT
370
-1
  9
$ENDCAPS
280
0
  9
$JOINSTYLE
280
0
  9
$LWDISPLAY
290
0
  9
$INSUNITS
 70
4
  9
$HYPERLINKBASE
  1

  9
$STYLESHEET
  1

  9
$XEDIT
290
1
  9
$CEPSNTYPE
380
0
  9
$PSTYLEMODE
290
1
  9
$FINGERPRINTGUID
  2
{4A5AA278-0C7D-4F4E-ABF8-151AB6E88D36}
  9
$VERSIONGUID
  2
{FE08C3B6-AB02-4003-8E80-A53B5F19D718}
  9
$EXTNAMES
290
1
  9
$PSVPSCALE
 40
0.0
  9
$OLESTARTUP
290
0
  9
$SORTENTS
280
127
  9
$INDEXCTL
280
0
  9
$HIDETEXT
280
1
  9
$XCLIPFRAME
280
1
  9
$HALOGAP
280
0
  9
$OBSCOLOR
 70
257
  9
$OBSLTYPE
280
0
  9
$INTERSECTIONDISPLAY
280
0
  9
$INTERSECTIONCOLOR
 70
257
  9
$DIMASSOC
280
2
  9
$PROJECTNAME
  1

  9
$CAMERADISPLAY
290
0
  9
$LENSLENGTH
 40
50.0
  9
$CAMERAHEIGHT
 40
0.0
  9
$STEPSPERSEC
 40
24.0
  9
$STEPSIZE
 40
100.0
  9
$3DDWFPREC
 40
2.0
  9
$PSOLWIDTH
 40
0.005
  9
$PSOLHEIGHT
 40
0.08
  9
$LOFTANG1
 40
1.570796326795
  9
$LOFTANG2
 40
1.570796326795
  9
$LOFTMAG1
 40
0.0
  9
$LOFTMAG2
 40
0.0
  9
$LOFTPARAM
 70
7
  9
$LOFTNORMALS
280
1
  9
$LATITUDE
 40
37.795
  9
$LONGITUDE
 40
-122.394
  9
$NORTHDIRECTION
 40
0.0
  9
$TIMEZONE
 70
-8000
  9
$LIGHTGLYPHDISPLAY
280
1
  9
$TILEMODELIGHTSYNCH
280
1
  9
$CMATERIAL
347
20
  9
$SOLIDHIST
280
0
  9
$SHOWHIST
280
1
  9
$DWFFRAME
280
2
  9
$DGNFRAME
280
2
  9
$REALWORLDSCALE
290
1
  9
$INTERFERECOLOR
 62
256
  9
$CSHADOW
280
0
  9
$SHADOWPLANELOCATION
 40
0.0
  0
ENDSEC
  0
SECTION
  2
CLASSES
  0
CLASS
  1
ACDBDICTIONARYWDFLT
  2
AcDbDictionaryWithDefault
  3
ObjectDBX Classes
 90
0
 91
0
280
0
281
0
  0
CLASS
  1
SUN
  2
AcDbSun
  3
SCENEOE
 90
1153
 91
0
280
0
281
0
  0
CLASS
  1
VISUALSTYLE
  2
AcDbVisualStyle
  3
ObjectDBX Classes
 90
4095
 91
0
280
0
281
0
  0
CLASS
  1
MATERIAL
  2
AcDbMaterial
  3
ObjectDBX Classes
 90
1153
 91
0
280
0
281
0
  0
CLASS
  1
SCALE
  2
AcDbScale
  3
ObjectDBX Classes
 90
1153
 91
0
280
0
281
0
  0
CLASS
  1
TABLESTYLE
  2
AcDbTableStyle
  3
ObjectDBX Classes
 90
4095
 91
0
280
0
281
0
  0
CLASS
  1
MLEADERSTYLE
  2
AcDbMLeaderStyle
  3
ACDB_MLEADERSTYLE_CLASS
 90
4095
 91
0
280
0
281
0
  0
CLASS
  1
DICTIONARYVAR
  2
AcDbDictionaryVar
  3
ObjectDBX Classes
 90
0
 91
0
280
0
281
0
  0
CLASS
  1
CELLSTYLEMAP
  2
AcDbCellStyleMap
  3
ObjectDBX Classes
 90
1152
 91
0
280
0
281
0
  0
CLASS
  1
MENTALRAYRENDERSETTINGS
  2
AcDbMentalRayRenderSettings
  3
SCENEOE
 90
1024
 91
0
280
0
281
0
  0
CLASS
  1
ACDBDETAILVIEWSTYLE
  2
AcDbDetailViewStyle
  3
ObjectDBX Classes
 90
1025
 91
0
280
0
281
0
  0
CLASS
  1
ACDBSECTIONVIEWSTYLE
  2
AcDbSectionViewStyle
  3
ObjectDBX Classes
 90
1025
 91
0
280
0
281
0
  0
CLASS
  1
RASTERVARIABLES
  2
AcDbRasterVariables
  3
ISM
 90
0
 91
0
280
0
281
0
  0
CLASS
  1
LAYOUT
  2
AcDbLayout
  3
ObjectDBX Classes
 90
0
 91
0
280
0
281
0
  0
CLASS
  1
ACDBPLACEHOLDER
  2
AcDbPlaceHolder
  3
ObjectDBX Classes
 90
0
 91
0
280
0
281
0
  0
ENDSEC
  0
SECTION
  2
TABLES
  0
TABLE
  2
VPORT
  5
8
330
0
100
AcDbSymbolTable
 70
1
  0
VPORT
  5
23
330
8
100
AcDbSymbolTableRecord
100
AcDbViewportTableRecord
  2
*Active
 70
0
 10
0.0
 20
0.0
 11
1.0
 21
1.0
 12
0.0
 22
0.0
 13
0.0
 23
0.0
 14
0.5
 24
0.5
 15
0.5
 25
0.5
 16
0.0
 26
0.0
 36
1.0
 17
0.0
 27
0.0
 37
0.0
 40
1000.0
 41
1.34
 42
50.0
 43
0.0
 44
0.0
 50
0.0
 51
0.0
 71
0
 72
1000
 73
1
 74
3
 75
0
 76
0
 77
0
 78
0
281
0
 65
0
146
0.0
  0
ENDTAB
  0
TABLE
  2
LTYPE
  5
2
330
0
100
AcDbSymbolTable
 70
3
  0
LTYPE
  5
24
330
2
100
AcDbSymbolTableRecord
100
AcDbLinetypeTableRecord
  2
ByBlock
 70
0
  3

 72
65
 73
0
 40
0.0
  0
LTYPE
  5
25
330
2
100
AcDbSymbolTableRecord
100
AcDbLinetypeTableRecord
  2
ByLayer
 70
0
  3

 72
65
 73
0
 40
0.0
  0
LTYPE
  5
26
330
2
100
AcDbSymbolTableRecord
100
AcDbLinetypeTableRecord
  2
Continuous
 70
0
  3

 72
65
 73
0
 40
0.0
  0
ENDTAB
  0
TABLE
  2
LAYER
  5
1
330
0
100
AcDbSymbolTable
 70
3
  0
LAYER
  5
27
330
1
100
AcDbSymbolTableRecord
100
AcDbLayerTableRecord
  2
0
 70
0
 62
7
  6
Continuous
370
-3
390
13
347
21
  0
LAYER
  5
28
330
1
100
AcDbSymbolTableRecord
100
AcDbLayerTableRecord
  2
Defpoints
 70
0
 62
7
  6
Continuous
290
0
370
-3
390
13
347
21
  0
LAYER
  5
2F
330
1
100
AcDbSymbolTableRecord
100
AcDbLayerTableRecord
  2
Y
 70
0
 62
7
  6
Continuous
370
-3
390
13
347
21
  0
ENDTAB
  0
TABLE
  2
STYLE
  5
5
330
0
100
AcDbSymbolTable
 70
1
  0
STYLE
  5
29
330
5
100
AcDbSymbolTableRecord
100
AcDbTextStyleTableRecord
  2
Standard
 70
0
 40
0.0
 41
1.0
 50
0.0
 71
0
 42
2.5
  3
txt
  4

  0
ENDTAB
  0
TABLE
  2
VIEW
  5
7
330
0
100
AcDbSymbolTable
 70
0
  0
ENDTAB
  0
TABLE
  2
UCS
  5
6
330
0
100
AcDbSymbolTable
 70
0
  0
ENDTAB
  0
TABLE
  2
APPID
  5
3
330
0
100
AcDbSymbolTable
 70
3
  0
APPID
  5
2A
330
3
100
AcDbSymbolTableRecord
100
AcDbRegAppTableRecord
  2
ACAD
 70
0
  0
APPID
  5
3C
330
3
100
AcDbSymbolTableRecord
100
AcDbRegAppTableRecord
  2
HATCHBACKGROUNDCOLOR
 70
0
  0
APPID
  5
3D
330
3
100
AcDbSymbolTableRecord
100
AcDbRegAppTableRecord
  2
EZDXF
 70
0
  0
ENDTAB
  0
TABLE
  2
DIMSTYLE
  5
4
330
0
100
AcDbSymbolTable
 70
1
100
AcDbDimStyleTable
  0
DIMSTYLE
105
2B
330
4
100
AcDbSymbolTableRecord
100
AcDbDimStyleTableRecord
  2
Standard
 70
0
 40
1.0
 41
2.5
 42
0.625
 43
3.75
 44
1.25
 45
0.0
 46
0.0
 47
0.0
 48
0.0
 49
2.5
140
2.5
141
2.5
142
0.0
143
0.03937007874
144
1.0
145
0.0
146
1.0
147
0.625
148
0.0
 69
0
 70
0
 71
0
 72
0
 73
0
 74
0
 75
0
 76
0
 77
1
 78
8
 79
3
170
0
171
3
172
1
173
0
174
0
175
0
176
0
177
0
178
0
179
2
271
2
272
2
273
2
274
3
275
0
276
0
277
2
278
44
279
0
280
0
281
0
282
0
283
0
284
8
285
0
286
0
288
0
289
3
290
0
371
-2
372
-2
  0
ENDTAB
  0
TABLE
  2
BLOCK_RECORD
  5
9
330
0
100
AcDbSymbolTable
 70
2
  0
BLOCK_RECORD
  5
17
330
9
100
AcDbSymbolTableRecord
100
AcDbBlockTableRecord
  2
*Model_Space
340
1A
 70
0
280
1
281
0
  0
BLOCK_RECORD
  5
1B
330
9
100
AcDbSymbolTableRecord
100
AcDbBlockTableRecord
  2
*Paper_Space
340
1E
 70
0
280
1
281
0
  0
ENDTAB
  0
ENDSEC
  0
SECTION
  2
BLOCKS
  0
BLOCK
  5
18
330
17
100
AcDbEntity
  8
0
100
AcDbBlockBegin
  2
*Model_Space
 70
0
 10
0.0
 20
0.0
 30
0.0
  3
*Model_Space
  1

  0
ENDBLK
  5
19
330
17
100
AcDbEntity
  8
0
100
AcDbBlockEnd
  0
BLOCK
  5
1C
330
1B
100
AcDbEntity
  8
0
100
AcDbBlockBegin
  2
*Paper_Space
 70
0
 10
0.0
 20
0.0
 30
0.0
  3
*Paper_Space
  1

  0
ENDBLK
  5
1D
330
1B
100
AcDbEntity
  8
0
100
AcDbBlockEnd
  0
ENDSEC
  0
SECTION
  2
ENTITIES
  0
LWPOLYLINE
  5
30
330
17
100
AcDbEntity
  8
Y
100
AcDbPolyline
 90
83
 70
1
 10
295.9001540076476
 20
306.6682993278567
 10
292.5647747350151
 20
306.6682993278567
 10
278.34764156820756
 20
324.5293195668291
 10
276.68071565296026
 20
368.34565791047123
 10
272.55989825822934
 20
375.11557220181504
 10
210.90585408735186
 20
369.640502642239
 10
205.90221363526595
 20
375.1206802802377
 10
199.23554696859935
 20
375.1206802802377
 10
194.23554696859924
 20
380.59687075642813
 10
190.99042948748158
 20
380.59687075642813
 10
185.99042948748146
 20
375.1206802802377
 10
179.32376282081486
 20
375.1206802802377
 10
174.3326347807519
 20
369.6542067125497
 10
162.66318352299214
 20
366.9154579479733
 10
154.32065545427466
 20
358.69210885166626
 10
147.64879406223153
 20
358.69210885166626
 10
140.98212739556493
 20
353.2159183754757
 10
137.55678899310263
 20
353.2159183754757
 10
134.22345565976946
 20
358.69210885166626
 10
127.55678899310263
 20
358.69210885166626
 10
125.94632156137364
 20
361.33787677522076
 10
124.33585412964464
 20
358.69210885166626
 10
102.55678899310271
 20
358.69210885166626
 10
100.89012232643601
 20
361.43020408976145
 10
90.91051572718246
 20
361.43020408976145
 10
87.63851910660169
 20
364.1179155995241
 10
86.00252079631143
 20
361.43020408976145
 10
82.5647747350151
 20
361.43020408976145
 10
68.32459730735174
 20
379.3201748917419
 10
70.94632156137371
 20
383.62729330906376
 10
72.61298822804041
 20
380.8891980709686
 10
78.32925276121871
 20
390.28020408976147
 10
76.67965489470707
 20
392.990257727602
 10
76.67965489470707
 20
406.73681711858757
 10
84.22345565976941
 20
419.13020408976143
 10
89.23348734098069
 20
419.13020408976143
 10
100.89293862613657
 20
432.81221325091366
 10
129.2172391300146
 20
438.286657886117
 10
130.88157109290853
 20
441.0209175394426
 10
140.88157109290856
 20
443.7590127775379
 10
144.22345565976923
 20
449.249251708809
 10
155.89012232643594
 20
449.249251708809
 10
159.99591942788504
 20
455.99448980404713
 10
157.55678899310266
 20
460.00163266119
 10
150.89012232643606
 20
460.00163266119
 10
149.22345565976934
 20
462.7397278992853
 10
117.55678899310263
 20
462.7397278992853
 10
114.22345565976933
 20
468.2159183754757
 10
110.89012232643603
 20
468.2159183754757
 10
109.22345565976931
 20
470.9540136135709
 10
97.5567889931026
 20
470.9540136135709
 10
95.89012232643601
 20
473.69210885166626
 10
92.55678899310271
 20
473.69210885166626
 10
90.00719280446212
 20
477.8807311615758
 10
91.67296452696172
 20
486.0906060796094
 10
80.92112521059835
 20
501.03684425015837
 10
72.6867093205228
 20
495.6256566652515
 10
65.97185243993519
 20
484.59410607571465
 10
62.638519106601784
 20
487.33220131380983
 10
52.66918746297811
 20
470.9540136135709
 10
42.6691874629781
 20
470.9540136135709
 10
41.002520796311394
 20
468.2159183754757
 10
22.648794062231637
 20
468.2159183754757
 10
19.25412401614568
 20
465.42743940904796
 10
15.890122326436051
 20
470.9540136135709
 10
12.662556454271833
 20
470.9540136135709
 10
4.270463420289028
 20
459.92440562605066
 10
1.6796548947071166
 20
464.18073391807815
 10
1.6796548947071166
 20
510.7283529656972
 10
0.0
 20
513.4877860070017
 10
5.01685071998037
 20
524.4770780602923
 10
10.017941107509976
 20
551.8640016110495
 10
17.556788993102757
 20
564.249251708809
 10
329.3358541296447
 20
564.249251708809
 10
331.87965489470696
 20
560.0701504519211
 10
331.87965489470696
 20
324.5378767752208
 10
326.01467526089834
 20
314.9025530911067
 10
319.3480085942317
 20
312.1644578530115
 10
316.0025207963115
 20
306.6682993278567
 10
312.66061875884054
 20
306.6682993278567
 10
305.9805545908803
 20
298.43750597804865
 10
301.7217584702212
 20
299.836824703408
 10
295.9001540076476
 20
306.6682993278567
  0
LWPOLYLINE
  5
31
330
17
100
AcDbEntity
  8
Y
100
AcDbPolyline
 90
5
 70
1
 10
89.99591942788531
 20
376.58972789928526
 10
87.61298822804031
 20
380.5045434418877
 10
85.23005702819542
 20
376.58972789928526
 10
87.61298822804031
 20
372.6749123566828
 10
89.99591942788531
 20
376.58972789928526
  0
LWPOLYLINE
  5
32
330
17
100
AcDbEntity
  8
Y
100
AcDbPolyline
 90
85
 70
1
 10
677.5699229500465
 20
383.3409291090755
 10
664.2543786695226
 20
394.2786976252203
 10
652.6766244344112
 20
391.56146959044924
 10
651.0025207963115
 20
388.81115647071385
 10
644.2171243514922
 20
388.81115647071385
 10
637.587549326329
 20
402.42546232595953
 10
632.596911857521
 20
396.95952605059824
 10
630.9207906828124
 20
399.71315369476224
 10
627.587457349479
 20
396.97505845666706
 10
621.662586094552
 20
406.70877551833286
 10
624.279654894707
 20
411.00824569001617
 10
627.6129882280403
 20
405.53205521382574
 10
630.020999371149
 20
409.4880735203612
 10
631.6709460756398
 20
414.9093269779742
 10
629.2234556597693
 20
418.93020408976145
 10
625.9001540076474
 20
418.93020408976145
 10
614.2235277146774
 20
432.6323675968181
 10
604.2326676770706
 20
435.36796022616284
 10
597.5771823938492
 20
440.8349659945233
 10
589.3358541296448
 20
440.8349659945233
 10
584.3358541296449
 20
432.6206802802377
 10
579.3358541296448
 20
432.6206802802377
 10
577.6691874629781
 20
429.8825850421424
 10
574.2234556597693
 20
429.8825850421424
 10
572.5813934741194
 20
432.5802586328532
 10
564.2730589639879
 20
427.1204959547666
 10
560.9718524399351
 20
429.83220131380983
 10
557.6129882280404
 20
424.31406725141153
 10
555.9463215613738
 20
427.0521624895067
 10
554.3358541296448
 20
424.406394565952
 10
547.5567889931027
 20
424.406394565952
 10
544.9959194278854
 20
428.61353742309484
 10
549.2234556597693
 20
435.5587755183329
 10
552.6691874629781
 20
435.5587755183329
 10
554.279654894707
 20
432.91300759477815
 10
560.9207906828123
 20
443.8234449609512
 10
564.3154607288984
 20
441.0349659945233
 10
572.6691874629781
 20
441.0349659945233
 10
574.2796548947072
 20
438.3891980709685
 10
576.662586094552
 20
442.304013613571
 10
572.5567889931027
 20
449.04925170880904
 10
569.2234556597692
 20
449.04925170880904
 10
567.5567889931027
 20
451.7873469469043
 10
534.3095713433277
 20
451.7873469469043
 10
526.0200426538562
 20
446.3399423795372
 10
519.279654894707
 20
435.26644820379244
 10
515.9463215613738
 20
440.74263867998286
 10
512.6129882280403
 20
435.26644820379244
 10
509.9959194278854
 20
439.56591837547575
 10
511.66258609455207
 20
442.304013613571
 10
509.2922984369003
 20
446.19805762257016
 10
504.3439305197485
 20
435.3587755183329
 10
499.23008666847556
 20
435.3587755183329
 10
482.5661589250561
 20
457.2599376953986
 10
444.3382465091982
 20
454.52937252283743
 10
442.66918746297813
 20
451.7873469469043
 10
422.543049470135
 20
451.7873469469043
 10
420.0089206070757
 20
458.7260331195668
 10
425.01911419066096
 20
480.675452628607
 10
428.3496658921706
 20
486.14707328108733
 10
430.0156776797891
 20
499.8321701079531
 10
435.88302388051636
 20
512.2254421849996
 10
739.3358541296446
 20
512.2254421849996
 10
741.8905226393406
 20
508.0284867762137
 10
733.5441168969843
 20
486.0893631105917
 10
731.877315343552
 20
472.3977789216847
 10
728.5579010438397
 20
464.2177936831078
 10
730.2129882280403
 20
461.4987218804923
 10
730.2129882280403
 20
420.36242243657927
 10
724.3258224484334
 20
413.454013613571
 10
720.8901223264361
 20
413.454013613571
 10
717.5567889931027
 20
418.93020408976145
 10
712.5567889931026
 20
418.93020408976145
 10
709.2661084883794
 20
424.33632206180704
 10
703.5777065064044
 20
417.66115647071376
 10
709.3258224484333
 20
410.9159183754757
 10
716.0025207963114
 20
410.9159183754757
 10
719.3358541296449
 20
405.4397278992853
 10
722.669187462978
 20
405.4397278992853
 10
726.879654894707
 20
398.52253140430184
 10
726.879654894707
 20
392.990257727602
 10
722.6777386965053
 20
386.08710968769924
 10
712.6777386965053
 20
383.3490144496039
 10
709.3296844006096
 20
377.848639534918
 10
677.5699229500465
 20
383.3409291090755
  0
LWPOLYLINE
  5
33
330
17
100
AcDbEntity
  8
Y
100
AcDbPolyline
 90
29
 70
1
 10
1170.8748167950002
 20
369.66963460569144
 10
1158.3339345225932
 20
390.27251262464614
 10
1162.547423565397
 20
399.96353742309475
 10
1165.902213635266
 20
399.96353742309475
 10
1170.9022136352658
 20
405.4397278992853
 10
1210.8901223264359
 20
405.4397278992853
 10
1212.5567889931028
 20
408.17782313738047
 10
1229.3358541296448
 20
408.17782313738047
 10
1236.8967236948622
 20
395.7563945659519
 10
1233.5684137119297
 20
390.28845673684845
 10
1240.2350803785962
 20
382.07417102256267
 10
1238.5633903615287
 20
379.32782313738045
 10
1240.2300570281955
 20
376.58972789928526
 10
1237.6691874629782
 20
372.3825850421424
 10
1234.2234556597693
 20
372.3825850421424
 10
1230.8901223264359
 20
377.8587755183329
 10
1219.2234556597691
 20
377.8587755183329
 10
1214.2679541307998
 20
385.9999566016399
 10
1207.6012874641333
 20
377.7856708873542
 10
1205.9207906828121
 20
380.54648702809556
 10
1199.356247530391
 20
375.15418372432106
 10
1195.9463215613737
 20
369.5521624895067
 10
1194.279654894707
 20
372.29025772760195
 10
1190.971852439935
 20
366.8560108376194
 10
1187.6385191066017
 20
369.59410607571465
 10
1185.9463215613737
 20
366.81406725141153
 10
1182.587457349479
 20
372.33220131380983
 10
1175.9575697930618
 20
366.8862222496102
 10
1170.8748167950002
 20
369.66963460569144
  0
LWPOLYLINE
  5
34
330
17
100
AcDbEntity
  8
Y
100
AcDbPolyline
 90
25
 70
1
 10
1890.0122434731836
 20
316.3784507356092
 10
1891.662586094552
 20
319.08972789928526
 10
1890.01298822804
 20
321.79978153712574
 10
1890.01298822804
 20
404.06709610586756
 10
1927.6679260711533
 20
405.4418001858543
 10
1930.21298822804
 20
401.26062664239714
 10
1930.21298822804
 20
395.73870510978225
 10
1925.21298822804
 20
382.0482289193061
 10
1925.21298822804
 20
376.57021091084033
 10
1921.8767448818562
 20
368.348754093458
 10
1920.2075668972586
 20
357.3798701946759
 10
1908.5693554218935
 20
343.7227853001146
 10
1918.5633903615285
 20
327.304013613571
 10
1915.9718524399348
 20
323.04648702809556
 10
1912.577182393849
 20
325.8349659945233
 10
1896.0162603192787
 20
325.8349659945233
 10
1893.556760172079
 20
319.1006203533808
 10
1896.0229141970576
 20
315.049081598059
 10
1899.2796548947067
 20
312.3739017392757
 10
1905.9587353671336
 20
317.8602892701978
 10
1911.9052355574013
 20
310.882253332639
 10
1895.941649107477
 20
287.4169815209081
 10
1894.2796548947067
 20
290.14740058474484
 10
1890.8553325398636
 20
284.52172814464484
 10
1890.0122434731836
 20
316.3784507356092
  0
LWPOLYLINE
  5
35
330
17
100
AcDbEntity
  8
Y
100
AcDbPolyline
 90
197
 70
1
 10
2908.3463215613738
 20
58.94263867998284
 10
2908.3463215613738
 20
97.33205521382583
 10
2910.8835455540766
 20
101.50035177326566
 10
2924.2168788874096
 20
104.23844701136088
 10
2925.890122326436
 20
106.98734694690427
 10
2937.5567889931026
 20
106.98734694690427
 10
2939.2234556597696
 20
109.72544218499958
 10
2945.8901223264365
 20
109.72544218499958
 10
2947.5502122207427
 20
112.4527327256466
 10
2960.984099632653
 20
115.21147746202098
 10
2972.6771627407197
 20
101.49002585561662
 10
2977.684492994414
 20
98.74791643097424
 10
2981.0025207963113
 20
93.29687075642812
 10
2984.3358541296448
 20
93.29687075642812
 10
2989.3562475303916
 20
85.0490815980589
 10
2999.2653989099035
 20
76.90942153631674
 10
3012.5653576972404
 20
93.29687075642812
 10
3017.5567889931026
 20
93.29687075642812
 10
3020.8901223264356
 20
98.77306123261853
 10
3024.2234556597696
 20
98.77306123261853
 10
3030.0209993711487
 20
108.29759732988519
 10
3031.679654894707
 20
113.74746547871884
 10
3031.679654894707
 20
124.71300759477822
 10
3035.0129882280407
 20
130.18919807096862
 10
3035.0129882280407
 20
143.87967426144488
 10
3036.6625860945524
 20
146.58972789928526
 10
3034.2234556597696
 20
150.59687075642813
 10
3030.8901223264365
 20
150.59687075642813
 10
3025.01155656637
 20
160.25451450510752
 10
3026.681066349125
 20
193.16770736513178
 10
3028.3463215613738
 20
195.90348378525434
 10
3028.3463215613738
 20
215.0140672514115
 10
3025.8901223264365
 20
219.04925170880907
 10
3022.5567889931026
 20
219.04925170880907
 10
3019.2234556597696
 20
224.52544218499958
 10
2997.6691874629787
 20
224.52544218499958
 10
2996.0025207963117
 20
221.78734694690428
 10
2989.315460728898
 20
221.78734694690428
 10
2985.946321561374
 20
219.01983977358051
 10
2975.9105157271824
 20
227.2635374230948
 10
2935.8901223264356
 20
227.2635374230948
 10
2934.2234556597696
 20
230.00163266119
 10
2917.556788993103
 20
230.00163266119
 10
2915.0129882280407
 20
234.18073391807815
 10
2915.0129882280407
 20
267.03787677522104
 10
2911.679654894707
 20
272.51406725141146
 10
2911.679654894707
 20
286.26062664239714
 10
2914.9959194278854
 20
291.70877551833286
 10
2911.679654894707
 20
297.1569243942687
 10
2911.679654894707
 20
308.1093053466496
 10
2910.0129882280407
 20
310.84740058474483
 10
2910.0129882280407
 20
327.2759720133163
 10
2908.3463215613738
 20
330.01406725141146
 10
2908.3463215613738
 20
343.7045434418877
 10
2906.6811934896323
 20
346.4401109883197
 10
2905.014526822966
 20
376.55915860736735
 10
2900.017142870131
 20
384.7691465298815
 10
2898.3413764146107
 20
395.78132609472794
 10
2910.0236697116875
 20
412.2319023702032
 10
2912.543049470135
 20
419.13020408976143
 10
2914.2276890463536
 20
419.13020408976143
 10
2926.6796548947073
 20
436.85943165479836
 10
2926.6796548947073
 20
445.01905505756434
 10
2920.0129882280407
 20
458.7095312480406
 10
2920.0129882280407
 20
464.1892585298879
 10
2916.6825649075577
 20
472.39637314107705
 10
2915.0171428701315
 20
483.34057510131004
 10
2910.0025496173353
 20
491.57883544518967
 10
2912.5367721711787
 20
498.5177781521436
 10
2922.5482377595754
 20
501.25901277753803
 10
2925.00060118926
 20
505.28789555487685
 10
2916.6796548947077
 20
524.4260720323483
 10
2916.6796548947077
 20
529.8950196323639
 10
2910.0025496173353
 20
540.864549730904
 10
2912.543049470135
 20
547.8206802802375
 10
2914.223455659769
 20
547.8206802802375
 10
2920.864810829756
 20
558.7314780595009
 10
2939.232947471025
 20
580.6778231373805
 10
2959.329223120939
 20
580.6778231373805
 10
2967.6037967536226
 20
569.8026692201389
 10
2969.22345565977
 20
572.4635374230947
 10
2975.8901223264356
 20
572.4635374230947
 10
2977.5567889931026
 20
575.2016326611899
 10
2990.8901223264365
 20
575.2016326611899
 10
2992.5567889931026
 20
577.9397278992852
 10
2999.223455659769
 20
577.9397278992852
 10
3000.890122326436
 20
580.6778231373805
 10
3007.556788993103
 20
580.6778231373805
 10
3009.219831419123
 20
583.4099642658412
 10
3034.3320004358443
 20
586.1603446819582
 10
3036.0110720298394
 20
583.4018699203951
 10
3046.000651107084
 20
580.666628030197
 10
3050.990429487482
 20
575.2016326611899
 10
3055.9821273955654
 20
575.2016326611899
 10
3065.9821273955654
 20
566.9873469469043
 10
3075.8901223264365
 20
566.9873469469043
 10
3077.556788993102
 20
569.7254421849996
 10
3084.249738446086
 20
569.7254421849996
 10
3092.58307177942
 20
575.2016326611899
 10
3097.673967729131
 20
575.2016326611899
 10
3106.874902049916
 20
557.3374809604456
 10
3108.540843608376
 20
549.1267689937521
 10
3119.3358541296448
 20
531.3921088516662
 10
3129.223455659769
 20
531.3921088516662
 10
3130.890122326436
 20
534.1302040897614
 10
3137.556788993103
 20
534.1302040897614
 10
3139.2234556597696
 20
536.8682993278567
 10
3154.2497384460867
 20
536.8682993278567
 10
3162.5830717794192
 20
542.3444898040472
 10
3169.223455659769
 20
542.3444898040472
 10
3170.890122326436
 20
545.0825850421423
 10
3184.2234556597696
 20
545.0825850421423
 10
3186.6625860945514
 20
549.0897278992852
 10
3185.0129882280403
 20
551.7997815371255
 10
3185.0129882280403
 20
565.5463409281116
 10
3187.5567889931026
 20
569.7254421849996
 10
3197.669187462978
 20
569.7254421849996
 10
3199.3358541296448
 20
566.9873469469043
 10
3229.3298973768215
 20
566.9873469469043
 10
3247.6540412672766
 20
542.3568418473964
 10
3259.2160186883366
 20
545.0703671605022
 10
3260.890122326436
 20
547.8206802802375
 10
3264.2234556597696
 20
547.8206802802375
 10
3267.5567889931026
 20
553.2968707564281
 10
3274.2355469685995
 20
553.2968707564281
 10
3279.235546968599
 20
558.7730612326186
 10
3285.910515727182
 20
558.7730612326186
 10
3289.3051857732685
 20
561.5615401990464
 10
3291.879654894707
 20
557.3320552138259
 10
3291.879654894707
 20
324.5378767752208
 10
3289.3533759871893
 20
320.3875614271563
 10
3280.9762380099946
 20
314.8825850421424
 10
3272.6539887876083
 20
314.8825850421424
 10
3264.3206554542744
 20
306.6682993278567
 10
3256.0025207963113
 20
306.6682993278567
 10
3254.3358541296448
 20
303.93020408976145
 10
3251.0025207963117
 20
303.93020408976145
 10
3248.5398113779265
 20
299.8843243309869
 10
3245.2064780445935
 20
286.19384814051074
 10
3240.9994950716828
 20
279.2823761135851
 10
3209.220573216586
 20
282.0301776273716
 10
3207.556788993103
 20
284.7635374230948
 10
3175.890122326436
 20
284.7635374230948
 10
3174.223455659769
 20
287.50163266119
 10
3164.223455659769
 20
287.50163266119
 10
3160.890122326436
 20
292.97782313738054
 10
3145.8901223264356
 20
292.97782313738054
 10
3144.2234556597696
 20
295.7159183754757
 10
3137.556788993103
 20
295.7159183754757
 10
3135.890122326436
 20
298.454013613571
 10
3129.223455659769
 20
298.454013613571
 10
3127.556788993103
 20
301.19210885166626
 10
3110.8901223264365
 20
301.19210885166626
 10
3109.2234556597696
 20
303.93020408976145
 10
3102.5567889931026
 20
303.93020408976145
 10
3100.8901223264356
 20
306.6682993278567
 10
3089.3358541296443
 20
306.6682993278567
 10
3086.0146752608985
 20
301.21207690063056
 10
3079.3480085942315
 20
298.4739816625354
 10
3076.0025207963117
 20
292.97782313738054
 10
3045.982127395565
 20
292.97782313738054
 10
3036.0229141970576
 20
284.79704086717817
 10
3031.8896013118647
 20
278.0065982700755
 10
3038.5437975733093
 20
258.8757840184237
 10
3041.8755002526163
 20
236.98173784011755
 10
3045.204977084932
 20
231.5118830441707
 10
3048.546321561374
 20
220.5331797644331
 10
3048.546321561374
 20
215.0701504519209
 10
3051.0025207963113
 20
211.0349659945233
 10
3099.335854129645
 20
211.0349659945233
 10
3101.8796548947066
 20
206.8558647376355
 10
3101.8796548947066
 20
198.64157902334978
 10
3105.211111633345
 20
193.1684715241596
 10
3106.877778300011
 20
168.52561438130243
 10
3111.0062654092767
 20
161.7430998446524
 10
3159.2274457368567
 20
156.27961635926158
 10
3160.890122326436
 20
159.01115647071384
 10
3167.577182393849
 20
159.01115647071384
 10
3177.5702708342556
 20
167.21976483247659
 10
3194.330003326849
 20
169.97314945625962
 10
3196.0025207963117
 20
167.22544218499957
 10
3221.0025207963113
 20
167.22544218499957
 10
3222.6691874629782
 20
164.48734694690427
 10
3227.6625564542715
 20
164.48734694690427
 10
3235.9958897876054
 20
153.53496599452333
 10
3240.9164051127527
 20
153.53496599452333
 10
3249.249738446086
 20
159.01115647071384
 10
3260.916405112753
 20
159.01115647071384
 10
3269.2497384460858
 20
164.48734694690427
 10
3275.8901223264365
 20
164.48734694690427
 10
3277.5567889931026
 20
167.22544218499957
 10
3289.3358541296448
 20
167.22544218499957
 10
3291.879654894707
 20
163.04634092811176
 10
3291.879654894707
 20
58.94263867998273
 10
3289.3357304898022
 20
54.76333430049674
 10
2910.056665603892
 20
56.132787752989024
 10
2908.3463215613738
 20
58.94263867998284
  0
LWPOLYLINE
  5
36
330
17
100
AcDbEntity
  8
Y
100
AcDbPolyline
 90
14
 70
1
 10
2949.2234556597696
 20
295.9159183754757
 10
2955.890122326436
 20
295.9159183754757
 10
2960.023366016331
 20
302.7062472945883
 10
2970.0233660163303
 20
327.3491044374455
 10
2978.354332704482
 20
341.03569256798016
 10
2981.67094607564
 20
351.9331365017838
 10
2972.5339909800477
 20
366.94384844454265
 10
2964.23865433514
 20
375.1206802802377
 10
2952.678552890684
 20
375.1206802802377
 10
2948.5457727291273
 20
365.6152859086581
 10
2946.8789156454454
 20
302.63190038952916
 10
2945.223426838746
 20
299.912168778523
 10
2947.63562523863
 20
293.3073398264605
 10
2949.2234556597696
 20
295.9159183754757
  0
LWPOLYLINE
  5
37
330
17
100
AcDbEntity
  8
Y
100
AcDbPolyline
 90
125
 70
1
 10
3421.6796548947077
 20
272.51406725141146
 10
3419.22345565977
 20
276.54925170880904
 10
3414.22345565977
 20
276.54925170880904
 10
3410.946321561374
 20
281.9331148704591
 10
3407.6691874629787
 20
276.54925170880904
 10
3391.002520796312
 20
276.54925170880904
 10
3389.335854129645
 20
273.81115647071385
 10
3380.890122326436
 20
273.81115647071385
 10
3378.3463215613747
 20
277.990257727602
 10
3378.3463215613747
 20
305.4272933090638
 10
3380.0129882280407
 20
308.165388547159
 10
3380.0129882280407
 20
321.85586473763516
 10
3382.556788993103
 20
326.0349659945233
 10
3399.2234556597696
 20
326.0349659945233
 10
3400.8901223264365
 20
328.7730612326186
 10
3442.6691874629787
 20
328.7730612326186
 10
3446.0025207963117
 20
323.2968707564281
 10
3449.3358541296448
 20
323.2968707564281
 10
3456.0025207963117
 20
312.34448980404716
 10
3459.243849060516
 20
312.34448980404716
 10
3465.9008243560415
 20
317.81271951108613
 10
3477.54935202167
 20
320.5465576366927
 10
3479.2234556597696
 20
323.2968707564281
 10
3487.568880301933
 20
323.2968707564281
 10
3492.568880301933
 20
328.7730612326186
 10
3499.22345565977
 20
328.7730612326186
 10
3501.6796548947077
 20
332.80824569001624
 10
3501.6796548947077
 20
346.48267892842745
 10
3505.0129882280407
 20
360.1731551189036
 10
3505.0129882280407
 20
368.3474005847448
 10
3502.556788993103
 20
372.3825850421424
 10
3494.3358541296448
 20
372.3825850421424
 10
3492.6691874629787
 20
369.64448980404717
 10
3447.6691874629787
 20
369.64448980404717
 10
3444.3358541296448
 20
364.1682993278567
 10
3424.22345565977
 20
364.1682993278567
 10
3422.556788993103
 20
366.906394565952
 10
3410.890122326436
 20
366.906394565952
 10
3409.2234556597696
 20
369.64448980404717
 10
3385.890122326437
 20
369.64448980404717
 10
3383.3254365911757
 20
373.8579020834045
 10
3391.689210302338
 20
384.85029038950324
 10
3393.3445002565154
 20
390.2891002389436
 10
3391.6829992255043
 20
403.9371444222451
 10
3390.012988228041
 20
406.68073391807815
 10
3390.012988228041
 20
417.63311487045905
 10
3388.329252761219
 20
420.3992517088091
 10
3400.8901223264365
 20
441.0349659945233
 10
3404.2234556597696
 20
441.0349659945233
 10
3411.67094607564
 20
453.27012882059626
 10
3408.3543327044827
 20
464.16757275439977
 10
3396.6906766628
 20
483.3292933943072
 10
3388.3339345225936
 20
502.54980031678156
 10
3390.8697289256897
 20
506.7157482647257
 10
3397.5771823938494
 20
512.2254421849996
 10
3402.568880301933
 20
512.2254421849996
 10
3412.568880301933
 20
523.1778231373805
 10
3417.5734042489144
 20
523.1778231373805
 10
3429.240070915581
 20
534.1302040897614
 10
3434.2234556597696
 20
534.1302040897614
 10
3437.5969118575213
 20
539.6723107003533
 10
3452.657096154149
 20
523.1778231373805
 10
3490.8901223264365
 20
523.1778231373805
 10
3492.5567889931035
 20
525.9159183754757
 10
3507.6691874629782
 20
525.9159183754757
 10
3509.335854129645
 20
523.1778231373805
 10
3512.6652397560943
 20
523.1778231373805
 10
3525.998573089427
 20
504.01115647071384
 10
3529.2234556597696
 20
504.01115647071384
 10
3530.8901223264365
 20
506.749251708809
 10
3550.9022136352664
 20
506.749251708809
 10
3565.9022136352664
 20
523.1778231373805
 10
3580.890122326436
 20
523.1778231373805
 10
3582.556788993103
 20
525.9159183754757
 10
3594.22345565977
 20
525.9159183754757
 10
3595.890122326437
 20
528.6540136135709
 10
3617.5567889931035
 20
528.6540136135709
 10
3619.223455659769
 20
531.3921088516662
 10
3624.3358541296457
 20
531.3921088516662
 10
3626.882797483212
 20
527.2078447708063
 10
3623.549464149878
 20
497.0887971517587
 10
3626.0025207963117
 20
493.0587755183329
 10
3639.34357600213
 20
493.0587755183329
 10
3655.221090554467
 20
458.7370805273785
 10
3652.690281234705
 20
451.8074835804092
 10
3644.356947901371
 20
449.069388342314
 10
3641.8857224573367
 20
442.30293772174434
 10
3656.8796548947075
 20
398.51113504751976
 10
3656.8796548947075
 20
392.98868303698
 10
3630.219119072904
 20
351.9266970614342
 10
3631.885450318285
 20
343.71406449490917
 10
3627.6691874629787
 20
336.7873469469044
 10
3624.3358541296457
 20
336.7873469469044
 10
3621.01256870496
 20
331.32766374920755
 10
3612.679235371627
 20
328.5895685111123
 10
3609.348008594232
 20
323.11683880539243
 10
3596.014675260899
 20
317.640648329202
 10
3592.6691874629782
 20
312.14448980404717
 10
3587.648794062232
 20
312.14448980404717
 10
3577.5874573494793
 20
303.8798203614289
 10
3575.8901223264365
 20
306.6682993278567
 10
3570.8901223264365
 20
306.6682993278567
 10
3567.5567889931035
 20
312.14448980404717
 10
3564.2234556597696
 20
312.14448980404717
 10
3560.8901223264365
 20
317.6206802802377
 10
3549.3154607288984
 20
317.6206802802377
 10
3542.648794062232
 20
312.14448980404717
 10
3529.3358541296448
 20
312.14448980404717
 10
3527.6691874629787
 20
309.406394565952
 10
3522.659155781767
 20
309.406394565952
 10
3516.87817206432
 20
302.62258714241773
 10
3515.211857208504
 20
261.5598281955055
 10
3512.6691874629782
 20
257.3825850421424
 10
3509.323762820816
 20
257.3825850421424
 10
3504.313935997442
 20
251.89563185463882
 10
3492.560008341996
 20
254.6542067125497
 10
3487.568880301933
 20
260.1206802802377
 10
3482.5771823938494
 20
260.1206802802377
 10
3475.9105157271824
 20
265.59687075642813
 10
3469.2355469685995
 20
265.59687075642813
 10
3464.2355469686
 20
271.07306123261867
 10
3459.3372064901687
 20
271.07306123261867
 10
3424.281653759043
 20
210.7393548314308
 10
3421.6796548947077
 20
215.0140672514115
 10
3421.6796548947077
 20
272.51406725141146
  0
LWPOLYLINE
  5
38
330
17
100
AcDbEntity
  8
Y
100
AcDbPolyline
 90
47
 70
1
 10
3532.5531647524563
 20
188.93615819939603
 10
3507.553164752456
 20
191.67425343749122
 10
3503.323287700854
 20
198.6233371651227
 10
3509.233487340981
 20
205.5587755183329
 10
3520.9164051127536
 20
205.5587755183329
 10
3529.2497384460867
 20
211.0349659945233
 10
3534.2234556597696
 20
211.0349659945233
 10
3535.890122326436
 20
213.77306123261852
 10
3547.57718239385
 20
213.77306123261852
 10
3554.2796548947076
 20
219.27866364403758
 10
3560.9821273955654
 20
213.77306123261852
 10
3564.3206554542753
 20
213.77306123261852
 10
3572.5793931320604
 20
205.63230552165845
 10
3576.6814439257964
 20
215.0670223472504
 10
3578.34760478902
 20
234.2278722743152
 10
3581.6796548947077
 20
245.17603690729018
 10
3581.6796548947077
 20
250.66538854715904
 10
3584.22345565977
 20
254.84448980404716
 10
3605.8901223264365
 20
254.84448980404716
 10
3608.3405261377957
 20
258.87015320842335
 10
3605.017513856657
 20
275.2478565940376
 10
3598.346321561374
 20
288.9476264861358
 10
3598.346321561374
 20
294.47491235668286
 10
3600.8901223264365
 20
298.654013613571
 10
3637.6691874629782
 20
298.654013613571
 10
3640.2049770849317
 20
294.48807352036124
 10
3641.8796548947075
 20
288.985560716814
 10
3641.8796548947075
 20
275.30824569001624
 10
3643.5463215613736
 20
272.5701504519209
 10
3643.5463215613736
 20
261.61776949954
 10
3645.221697047108
 20
258.8653669158344
 10
3643.5463215613736
 20
253.36056174842315
 10
3643.5463215613736
 20
236.97491235668278
 10
3645.2129882280406
 20
234.23681711858757
 10
3645.2129882280406
 20
195.8474005847447
 10
3637.6691874629782
 20
183.45401361357094
 10
3630.910515727183
 20
183.45401361357094
 10
3624.243849060516
 20
188.93020408976147
 10
3612.5830717794206
 20
188.93020408976147
 10
3604.2497384460867
 20
194.40639456595187
 10
3592.58307177942
 20
194.40639456595187
 10
3584.249738446087
 20
199.8825850421424
 10
3575.8901223264365
 20
199.8825850421424
 10
3574.2653577767537
 20
202.55184108804968
 10
3557.653791060985
 20
183.448539364915
 10
3534.2195824329315
 20
186.19847201004382
 10
3532.5531647524563
 20
188.93615819939603
  0
LWPOLYLINE
  5
39
330
17
100
AcDbEntity
  8
Y
100
AcDbPolyline
 90
58
 70
1
 10
3402.562745745926
 20
49.287346946904286
 10
3399.2280192420026
 20
49.287346946904286
 10
3387.561352575336
 20
65.71591837547575
 10
3384.22345565977
 20
65.71591837547575
 10
3380.014679112594
 20
72.63033698869414
 10
3378.348012445927
 20
100.01128936964653
 10
3376.6796548947077
 20
102.75216248950659
 10
3376.6796548947077
 20
119.18073391807805
 10
3375.0129882280407
 20
121.91882915617325
 10
3375.0129882280407
 20
138.40348378525437
 10
3377.5652610732623
 20
142.59650345954745
 10
3389.3432911010786
 20
139.832271922407
 10
3391.002520796312
 20
137.10639456595186
 10
3405.9762380099946
 20
137.10639456595186
 10
3414.3095713433286
 20
131.63020408976143
 10
3427.6691874629782
 20
131.63020408976143
 10
3429.335854129645
 20
128.89210885166625
 10
3436.002520796312
 20
128.89210885166625
 10
3437.6691874629782
 20
126.15401361357092
 10
3441.002520796312
 20
126.15401361357092
 10
3447.691985476034
 20
115.16417878259921
 10
3455.9998186005528
 20
106.97502898842993
 10
3472.669139150905
 20
101.49796652188603
 10
3477.6570961541483
 20
96.03496599452332
 10
3484.3237628208153
 20
96.03496599452332
 10
3489.3237628208153
 20
90.55877551833291
 10
3495.987322120942
 20
90.55877551833291
 10
3504.320655454275
 20
82.34448980404719
 10
3514.2234556597696
 20
82.34448980404719
 10
3517.5414834616677
 20
87.79553547859331
 10
3522.6408873966857
 20
90.58806620491299
 10
3540.212988228041
 20
67.21836748021992
 10
3540.212988228041
 20
56.260626642397284
 10
3543.546321561374
 20
50.78443616620676
 10
3543.546321561374
 20
45.308245690016236
 10
3545.966070873372
 20
41.33294324887626
 10
3554.2386543351395
 20
49.48734694690427
 10
3559.2234556597696
 20
49.48734694690427
 10
3562.5567889931026
 20
54.96353742309479
 10
3565.9022136352664
 20
54.96353742309479
 10
3570.902213635266
 20
60.4397278992852
 10
3575.902213635266
 20
60.4397278992852
 10
3580.8875903843073
 20
65.8999024339496
 10
3594.211301195183
 20
71.37214080270194
 10
3597.544634528516
 20
76.84833127889235
 10
3610.8847436857623
 20
82.3273046827614
 10
3617.5653576972404
 20
90.55877551833291
 10
3627.6691874629787
 20
90.55877551833291
 10
3631.0146752608994
 20
85.06261699317807
 10
3637.681341927565
 20
82.32452175508287
 10
3640.2129882280406
 20
78.16538854715915
 10
3640.2129882280406
 20
39.77597201331618
 10
3637.6691874629782
 20
35.596870756428146
 10
3547.556788993103
 20
35.596870756428146
 10
3545.9207906828124
 20
38.2845822661908
 10
3542.648337093392
 20
35.59649538916676
 10
3411.729022318278
 20
36.966442723028294
 10
3402.562745745926
 20
49.287346946904286
  0
LWPOLYLINE
  5
3A
330
17
100
AcDbEntity
  8
Y
100
AcDbPolyline
 90
14
 70
1
 10
4861.753291295435
 20
280.6583010015061
 10
4850.01298822804
 20
286.16905550252835
 10
4850.01298822804
 20
401.33647859838015
 10
4886.00381340661
 20
399.96141384903285
 10
4893.536519120935
 20
387.5862544612133
 10
4901.869852454268
 20
365.6814925564514
 10
4906.898144261897
 20
357.42072744391794
 10
4886.898144261897
 20
327.30167982487035
 10
4888.546321561374
 20
324.59395997573046
 10
4888.546321561374
 20
316.37967426144473
 10
4890.209643897244
 20
313.64707328108733
 10
4891.883505439638
 20
299.89749632570437
 10
4877.662291073613
 20
279.28271079512234
 10
4861.753291295435
 20
280.6583010015061
  0
LWPOLYLINE
  5
3B
330
17
100
AcDbEntity
  8
Y
100
AcDbPolyline
 90
9
 70
1
 10
4850.010773870583
 20
1.3735847811634505
 10
4850.8485505807075
 20
38.53496599452333
 10
4855.990429487481
 20
38.53496599452333
 10
4860.996773310473
 20
33.05182752172231
 10
4877.655705621824
 20
30.31500292771461
 10
4891.022914197057
 20
19.334795883773182
 10
4900.230057028195
 20
4.2087755183328746
 10
4897.66819366921
 20
0.0
 10
4850.010773870583
 20
1.3735847811634505
  0
ENDSEC
  0
SECTION
  2
OBJECTS
  0
DICTIONARY
  5
A
330
0
100
AcDbDictionary
281
1
  3
ACAD_COLOR
350
B
  3
ACAD_GROUP
350
C
  3
ACAD_LAYOUT
350
D
  3
ACAD_MATERIAL
350
E
  3
ACAD_MLEADERSTYLE
350
F
  3
ACAD_MLINESTYLE
350
10
  3
ACAD_PLOTSETTINGS
350
11
  3
ACAD_PLOTSTYLENAME
350
12
  3
ACAD_SCALELIST
350
14
  3
ACAD_TABLESTYLE
350
15
  3
ACAD_VISUALSTYLE
350
16
  3
EZDXF_META
350
2D
  0
DICTIONARY
  5
B
330
A
100
AcDbDictionary
281
1
  0
DICTIONARY
  5
C
330
A
100
AcDbDictionary
281
1
  0
DICTIONARY
  5
D
330
A
100
AcDbDictionary
281
1
  3
Model
350
1A
  3
Layout1
350
1E
  0
DICTIONARY
  5
E
330
A
100
AcDbDictionary
281
1
  3
ByBlock
350
1F
  3
ByLayer
350
20
  3
Global
350
21
  0
DICTIONARY
  5
F
330
A
100
AcDbDictionary
281
1
  3
Standard
350
2C
  0
DICTIONARY
  5
10
330
A
100
AcDbDictionary
281
1
  3
Standard
350
22
  0
DICTIONARY
  5
11
330
A
100
AcDbDictionary
281
1
  0
ACDBDICTIONARYWDFLT
  5
12
330
A
100
AcDbDictionary
281
1
  3
Normal
350
13
100
AcDbDictionaryWithDefault
340
13
  0
ACDBPLACEHOLDER
  5
13
330
12
  0
DICTIONARY
  5
14
330
A
100
AcDbDictionary
281
1
  0
DICTIONARY
  5
15
330
A
100
AcDbDictionary
281
1
  0
DICTIONARY
  5
16
330
A
100
AcDbDictionary
281
1
  0
LAYOUT
  5
1A
330
D
100
AcDbPlotSettings
  1

  4
A3
  6

 40
7.5
 41
20.0
 42
7.5
 43
20.0
 44
420.0
 45
297.0
 46
0.0
 47
0.0
 48
0.0
 49
0.0
140
0.0
141
0.0
142
1.0
143
1.0
 70
1024
 72
1
 73
0
 74
5
  7

 75
16
 76
0
 77
2
 78
300
147
1.0
148
0.0
149
0.0
100
AcDbLayout
  1
Model
 70
1
 71
0
 10
0.0
 20
0.0
 11
420.0
 21
297.0
 12
0.0
 22
0.0
 32
0.0
 14
1e+20
 24
1e+20
 34
1e+20
 15
-1e+20
 25
-1e+20
 35
-1e+20
146
0.0
 13
0.0
 23
0.0
 33
0.0
 16
1.0
 26
0.0
 36
0.0
 17
0.0
 27
1.0
 37
0.0
 76
1
330
17
  0
LAYOUT
  5
1E
330
D
100
AcDbPlotSettings
  1

  4
A3
  6

 40
7.5
 41
20.0
 42
7.5
 43
20.0
 44
420.0
 45
297.0
 46
0.0
 47
0.0
 48
0.0
 49
0.0
140
0.0
141
0.0
142
1.0
143
1.0
 70
0
 72
1
 73
0
 74
5
  7

 75
16
 76
0
 77
2
 78
300
147
1.0
148
0.0
149
0.0
100
AcDbLayout
  1
Layout1
 70
1
 71
1
 10
0.0
 20
0.0
 11
420.0
 21
297.0
 12
0.0
 22
0.0
 32
0.0
 14
1e+20
 24
1e+20
 34
1e+20
 15
-1e+20
 25
-1e+20
 35
-1e+20
146
0.0
 13
0.0
 23
0.0
 33
0.0
 16
1.0
 26
0.0
 36
0.0
 17
0.0
 27
1.0
 37
0.0
 76
1
330
1B
  0
MATERIAL
  5
1F
102
{ACAD_REACTORS
330
E
102
}
330
E
100
AcDbMaterial
  1
ByBlock
  2

 70
0
 40
1.0
 71
1
 41
1.0
 91
-1023410177
 42
1.0
 72
1
  3

 73
1
 74
1
 75
1
 44
0.5
 73
0
 45
1.0
 46
1.0
 77
1
  4

 78
1
 79
1
170
1
 48
1.0
171
1
  6

172
1
173
1
174
1
140
1.0
141
1.0
175
1
  7

176
1
177
1
178
1
143
1.0
179
1
  8

270
1
271
1
272
1
145
1.0
146
1.0
273
1
  9

274
1
275
1
276
1
 42
1.0
 72
1
  3

 73
1
 74
1
 75
1
 94
63
  0
MATERIAL
  5
20
102
{ACAD_REACTORS
330
E
102
}
330
E
100
AcDbMaterial
  1
ByLayer
  2

 70
0
 40
1.0
 71
1
 41
1.0
 91
-1023410177
 42
1.0
 72
1
  3

 73
1
 74
1
 75
1
 44
0.5
 73
0
 45
1.0
 46
1.0
 77
1
  4

 78
1
 79
1
170
1
 48
1.0
171
1
  6

172
1
173
1
174
1
140
1.0
141
1.0
175
1
  7

176
1
177
1
178
1
143
1.0
179
1
  8

270
1
271
1
272
1
145
1.0
146
1.0
273
1
  9

274
1
275
1
276
1
 42
1.0
 72
1
  3

 73
1
 74
1
 75
1
 94
63
  0
MATERIAL
  5
21
102
{ACAD_REACTORS
330
E
102
}
330
E
100
AcDbMaterial
  1
Global
  2

 70
0
 40
1.0
 71
1
 41
1.0
 91
-1023410177
 42
1.0
 72
1
  3

 73
1
 74
1
 75
1
 44
0.5
 73
0
 45
1.0
 46
1.0
 77
1
  4

 78
1
 79
1
170
1
 48
1.0
171
1
  6

172
1
173
1
174
1
140
1.0
141
1.0
175
1
  7

176
1
177
1
178
1
143
1.0
179
1
  8

270
1
271
1
272
1
145
1.0
146
1.0
273
1
  9

274
1
275
1
276
1
 42
1.0
 72
1
  3

 73
1
 74
1
 75
1
 94
63
  0
MLINESTYLE
  5
22
102
{ACAD_REACTORS
330
10
102
}
330
10
100
AcDbMlineStyle
  2
Standard
 70
0
  3

 62
256
 51
90.0
 52
90.0
 71
2
 49
0.5
 62
256
  6
BYLAYER
 49
-0.5
 62
256
  6
BYLAYER
  0
MLEADERSTYLE
  5
2C
102
{ACAD_REACTORS
330
F
102
}
330
F
100
AcDbMLeaderStyle
179
2
170
2
171
1
172
0
 90
2
 40
0.0
 41
0.0
173
1
 91
-1056964608
 92
-2
290
1
 42
2.0
291
1
 43
8.0
  3
Standard
 44
4.0
300

342
29
174
1
175
1
176
0
178
1
 93
-1056964608
 45
4.0
292
0
297
0
 46
4.0
 94
-1056964608
 47
1.0
 49
1.0
140
1.0
294
1
141
0.0
177
0
142
1.0
295
0
296
0
143
3.75
271
0
272
9
273
9
  0
DICTIONARY
  5
2D
330
A
100
AcDbDictionary
280
1
281
1
  3
CREATED_BY_EZDXF
350
2E
  3
WRITTEN_BY_EZDXF
350
3E
  0
DICTIONARYVAR
  5
2E
330
2D
100
DictionaryVariables
280
0
  1
1.4.4 @ 2026-07-21T08:09:32.690494+00:00
  0
DICTIONARYVAR
  5
3E
330
2D
100
DictionaryVariables
280
0
  1
1.4.4 @ 2026-07-21T08:09:32.694526+00:00
  0
ENDSEC
  0
EOF
