0
SECTION
2
ENTITIES
0
LWPOLYLINE
8
SHEET
90
4
70
1
10
0.000
20
0.000
10
600.000
20
0.000
10
600.000
20
600.000
10
0.000
20
600.000
0
LWPOLYLINE
8
LIGHT
90
21
70
1
10
490.000
20
119.286
10
485.714
20
119.286
10
484.286
20
113.571
10
474.286
20
113.571
10
472.857
20
107.857
10
467.857
20
108.571
10
467.143
20
113.571
10
462.143
20
114.286
10
462.857
20
136.429
10
507.143
20
136.429
10
507.857
20
125.714
10
512.857
20
125.000
10
513.571
20
135.714
10
519.286
20
137.143
10
520.000
20
142.143
10
524.286
20
142.143
10
525.000
20
131.429
10
530.714
20
130.000
10
530.000
20
113.571
10
491.429
20
113.571
10
490.000
20
119.286
0
LWPOLYLINE
8
LIGHT
90
5
70
1
10
502.857
20
216.429
10
507.857
20
215.714
10
507.143
20
210.714
10
502.143
20
211.429
10
502.857
20
216.429
0
LWPOLYLINE
8
LIGHT
90
5
70
1
10
502.857
20
193.571
10
507.857
20
192.857
10
507.143
20
187.857
10
502.143
20
188.571
10
502.857
20
193.571
0
LWPOLYLINE
8
LIGHT
90
5
70
1
10
502.143
20
177.143
10
502.857
20
182.143
10
507.857
20
181.429
10
507.143
20
176.429
10
502.143
20
177.143
0
LWPOLYLINE
8
LIGHT
90
5
70
1
10
507.143
20
199.286
10
502.143
20
200.000
10
502.857
20
205.000
10
507.857
20
204.286
10
507.143
20
199.286
0
LWPOLYLINE
8
LIGHT
90
13
70
1
10
496.429
20
194.286
10
490.714
20
192.857
10
490.714
20
177.143
10
485.000
20
177.143
10
485.000
20
227.143
10
490.000
20
227.857
10
490.714
20
217.143
10
496.429
20
215.714
10
495.714
20
210.714
10
490.714
20
210.000
10
490.714
20
200.000
10
496.429
20
198.571
10
496.429
20
194.286
0
LWPOLYLINE
8
LIGHT
90
5
70
1
10
490.714
20
160.000
10
485.000
20
160.000
10
485.000
20
170.000
10
490.000
20
170.714
10
490.714
20
160.000
0
LWPOLYLINE
8
LIGHT
90
5
70
1
10
377.143
20
239.286
10
387.857
20
238.571
10
387.143
20
233.571
10
376.429
20
234.286
10
377.143
20
239.286
0
LWPOLYLINE
8
LIGHT
90
9
70
1
10
387.857
20
255.714
10
387.857
20
245.714
10
382.143
20
245.714
10
381.429
20
250.714
10
376.429
20
251.429
10
377.143
20
262.143
10
381.429
20
262.143
10
382.857
20
256.429
10
387.857
20
255.714
0
LWPOLYLINE
8
LIGHT
90
13
70
1
10
359.286
20
291.429
10
359.286
20
301.429
10
370.000
20
302.143
10
371.429
20
307.857
10
375.714
20
307.857
10
376.429
20
297.143
10
370.714
20
295.714
10
370.714
20
285.714
10
365.000
20
284.286
10
364.286
20
279.286
10
353.571
20
280.000
10
353.571
20
290.000
10
359.286
20
291.429
0
LWPOLYLINE
8
LIGHT
90
5
70
1
10
365.714
20
319.286
10
370.714
20
318.571
10
370.000
20
313.571
10
365.000
20
314.286
10
365.714
20
319.286
0
LWPOLYLINE
8
LIGHT
90
29
70
1
10
330.000
20
267.857
10
330.714
20
251.429
10
336.429
20
251.429
10
336.429
20
278.571
10
341.429
20
279.286
10
342.143
20
268.571
10
347.857
20
267.143
10
347.857
20
257.143
10
353.571
20
255.714
10
354.286
20
250.714
10
365.000
20
250.000
10
365.000
20
240.000
10
370.714
20
238.571
10
370.714
20
228.571
10
353.571
20
227.143
10
352.857
20
210.714
10
337.143
20
210.714
10
335.714
20
205.000
10
325.000
20
205.714
10
325.000
20
215.714
10
330.714
20
217.143
10
330.714
20
227.143
10
325.000
20
228.571
10
325.000
20
244.286
10
319.286
20
245.714
10
319.286
20
255.714
10
325.000
20
257.143
10
325.000
20
267.143
10
330.000
20
267.857
0
LWPOLYLINE
8
LIGHT
90
5
70
1
10
358.571
20
239.286
10
353.571
20
238.571
10
354.286
20
233.571
10
359.286
20
234.286
10
358.571
20
239.286
0
LWPOLYLINE
8
LIGHT
90
5
70
1
10
365.000
20
312.857
10
364.286
20
307.857
10
359.286
20
308.571
10
360.000
20
313.571
10
365.000
20
312.857
0
LWPOLYLINE
8
LIGHT
90
7
70
1
10
353.571
20
341.429
10
359.286
20
342.857
10
360.000
20
347.857
10
364.286
20
347.857
10
365.000
20
320.000
10
353.571
20
320.000
10
353.571
20
341.429
0
LWPOLYLINE
8
LIGHT
90
23
70
1
10
342.143
20
352.857
10
341.429
20
347.857
10
336.429
20
347.143
10
336.429
20
331.429
10
330.714
20
331.429
10
330.714
20
398.571
10
335.714
20
399.286
10
337.143
20
393.571
10
342.143
20
392.857
10
342.143
20
371.429
10
336.429
20
370.000
10
336.429
20
365.714
10
341.429
20
365.000
10
342.857
20
370.714
10
347.143
20
370.714
10
348.571
20
365.000
10
358.571
20
365.000
10
359.286
20
348.571
10
353.571
20
348.571
10
353.571
20
358.571
10
348.571
20
359.286
10
347.143
20
353.571
10
342.143
20
352.857
0
LWPOLYLINE
8
LIGHT
90
5
70
1
10
353.571
20
392.857
10
352.857
20
387.857
10
347.857
20
388.571
10
348.571
20
393.571
10
353.571
20
392.857
0
LWPOLYLINE
8
LIGHT
90
5
70
1
10
353.571
20
347.143
10
352.857
20
342.143
10
347.857
20
342.857
10
348.571
20
347.857
10
353.571
20
347.143
0
LWPOLYLINE
8
LIGHT
90
31
70
1
10
337.143
20
285.000
10
335.714
20
290.714
10
325.714
20
290.714
10
324.286
20
296.429
10
320.000
20
296.429
10
319.286
20
285.714
10
313.571
20
285.714
10
313.571
20
301.429
10
307.857
20
302.857
10
307.857
20
312.857
10
302.857
20
313.571
10
301.429
20
307.857
10
297.143
20
307.857
10
296.429
20
318.571
10
307.143
20
319.286
10
308.571
20
325.000
10
312.857
20
325.000
10
314.286
20
307.857
10
330.000
20
307.857
10
331.429
20
313.571
10
336.429
20
314.286
10
337.143
20
319.286
10
342.143
20
320.000
10
342.143
20
330.000
10
347.143
20
330.714
10
347.857
20
302.857
10
353.571
20
301.429
10
352.857
20
296.429
10
347.857
20
295.714
10
347.857
20
285.714
10
337.143
20
285.000
0
LWPOLYLINE
8
LIGHT
90
5
70
1
10
347.143
20
410.714
10
342.143
20
411.429
10
342.857
20
416.429
10
347.857
20
415.714
10
347.143
20
410.714
0
LWPOLYLINE
8
LIGHT
90
7
70
1
10
342.143
20
474.286
10
336.429
20
472.857
10
336.429
20
451.429
10
330.714
20
451.429
10
330.714
20
478.571
10
341.429
20
479.286
10
342.143
20
474.286
0
LWPOLYLINE
8
LIGHT
90
5
70
1
10
341.429
20
125.000
10
342.143
20
114.286
10
336.429
20
114.286
10
336.429
20
124.286
10
341.429
20
125.000
0
LWPOLYLINE
8
LIGHT
90
5
70
1
10
336.429
20
440.000
10
337.143
20
445.000
10
342.143
20
444.286
10
341.429
20
439.286
10
336.429
20
440.000
0
LWPOLYLINE
8
LIGHT
90
5
70
1
10
331.429
20
102.143
10
342.143
20
101.429
10
341.429
20
96.429
10
330.714
20
97.143
10
331.429
20
102.143
0
LWPOLYLINE
8
LIGHT
90
5
70
1
10
330.000
20
176.429
10
330.714
20
165.714
10
325.000
20
165.714
10
325.000
20
175.714
10
330.000
20
176.429
0
LWPOLYLINE
8
LIGHT
90
5
70
1
10
325.000
20
432.857
10
330.000
20
433.571
10
330.714
20
422.857
10
325.000
20
422.857
10
325.000
20
432.857
0
LWPOLYLINE
8
LIGHT
90
5
70
1
10
325.000
20
147.143
10
330.000
20
147.857
10
330.714
20
137.143
10
325.000
20
137.143
10
325.000
20
147.143
0
LWPOLYLINE
8
LIGHT
90
5
70
1
10
324.286
20
273.571
10
319.286
20
274.286
10
320.000
20
279.286
10
325.000
20
278.571
10
324.286
20
273.571
0
LWPOLYLINE
8
LIGHT
90
5
70
1
10
325.000
20
187.143
10
324.286
20
182.143
10
319.286
20
182.857
10
320.000
20
187.857
10
325.000
20
187.143
0
LWPOLYLINE
8
LIGHT
90
5
70
1
10
325.000
20
451.429
10
319.286
20
451.429
10
319.286
20
467.143
10
324.286
20
467.857
10
325.000
20
451.429
0
LWPOLYLINE
8
LIGHT
90
23
70
1
10
318.571
20
353.571
10
320.000
20
359.286
10
324.286
20
359.286
10
325.000
20
348.571
10
319.286
20
347.143
10
318.571
20
336.429
10
302.143
20
337.143
10
302.143
20
352.857
10
307.857
20
354.286
10
307.857
20
387.143
10
302.143
20
388.571
10
301.429
20
393.571
10
296.429
20
394.286
10
296.429
20
398.571
10
307.143
20
399.286
10
307.857
20
410.000
10
312.857
20
410.714
10
313.571
20
377.143
10
319.286
20
375.714
10
318.571
20
370.714
10
313.571
20
370.000
10
313.571
20
354.286
10
318.571
20
353.571
0
LWPOLYLINE
8
LIGHT
90
5
70
1
10
319.286
20
148.571
10
319.286
20
158.571
10
324.286
20
159.286
10
325.000
20
148.571
10
319.286
20
148.571
0
LWPOLYLINE
8
LIGHT
90
5
70
1
10
319.286
20
377.143
10
319.286
20
387.143
10
324.286
20
387.857
10
325.000
20
377.143
10
319.286
20
377.143
0
LWPOLYLINE
8
LIGHT
90
5
70
1
10
320.000
20
479.286
10
325.000
20
478.571
10
324.286
20
473.571
10
319.286
20
474.286
10
320.000
20
479.286
0
LWPOLYLINE
8
LIGHT
90
13
70
1
10
313.571
20
160.000
10
307.857
20
160.000
10
307.857
20
238.571
10
313.571
20
240.000
10
314.286
20
245.000
10
318.571
20
245.000
10
319.286
20
211.429
10
313.571
20
210.000
10
313.571
20
205.714
10
319.286
20
204.286
10
319.286
20
200.000
10
313.571
20
198.571
10
313.571
20
160.000
0
LWPOLYLINE
8
LIGHT
90
9
70
1
10
314.286
20
142.143
10
318.571
20
142.143
10
319.286
20
131.429
10
313.571
20
130.000
10
312.857
20
125.000
10
307.857
20
125.714
10
307.857
20
135.714
10
313.571
20
137.143
10
314.286
20
142.143
0
LWPOLYLINE
8
LIGHT
90
5
70
1
10
312.857
20
445.000
10
313.571
20
417.143
10
307.857
20
417.143
10
307.857
20
444.286
10
312.857
20
445.000
0
LWPOLYLINE
8
LIGHT
90
7
70
1
10
307.857
20
462.857
10
308.571
20
467.857
10
313.571
20
467.143
10
312.857
20
456.429
10
302.143
20
457.143
10
302.143
20
461.429
10
307.857
20
462.857
0
LWPOLYLINE
8
LIGHT
90
9
70
1
10
296.429
20
411.429
10
296.429
20
432.857
10
290.714
20
434.286
10
290.714
20
438.571
10
296.429
20
440.000
10
297.143
20
445.000
10
301.429
20
445.000
10
302.143
20
411.429
10
296.429
20
411.429
0
LWPOLYLINE
8
LIGHT
90
5
70
1
10
297.143
20
370.714
10
302.143
20
370.000
10
301.429
20
365.000
10
296.429
20
365.714
10
297.143
20
370.714
0
LWPOLYLINE
8
LIGHT
90
9
70
1
10
285.714
20
393.571
10
290.714
20
392.857
10
290.714
20
388.571
10
285.000
20
387.143
10
284.286
20
382.143
10
279.286
20
382.857
10
279.286
20
398.571
10
284.286
20
399.286
10
285.714
20
393.571
0
LWPOLYLINE
8
LIGHT
90
5
70
1
10
285.000
20
421.429
10
290.000
20
422.143
10
290.714
20
405.714
10
285.000
20
405.714
10
285.000
20
421.429
0
LWPOLYLINE
8
LIGHT
90
13
70
1
10
279.286
20
284.286
10
273.571
20
285.714
10
273.571
20
290.000
10
285.000
20
291.429
10
285.000
20
335.714
10
290.000
20
336.429
10
290.714
20
257.143
10
285.000
20
257.143
10
284.286
20
262.143
10
273.571
20
262.857
10
273.571
20
278.571
10
279.286
20
280.000
10
279.286
20
284.286
0
LWPOLYLINE
8
LIGHT
90
5
70
1
10
268.571
20
96.429
10
285.000
20
95.714
10
284.286
20
90.714
10
267.857
20
91.429
10
268.571
20
96.429
0
LWPOLYLINE
8
LIGHT
90
5
70
1
10
273.571
20
125.714
10
273.571
20
135.714
10
278.571
20
136.429
10
279.286
20
125.714
10
273.571
20
125.714
0
LWPOLYLINE
8
LIGHT
90
5
70
1
10
272.857
20
342.143
10
267.857
20
342.857
10
268.571
20
347.857
10
273.571
20
347.143
10
272.857
20
342.143
0
LWPOLYLINE
8
LIGHT
90
5
70
1
10
262.857
20
342.143
10
267.857
20
341.429
10
267.143
20
336.429
10
262.143
20
337.143
10
262.857
20
342.143
0
LWPOLYLINE
8
LIGHT
90
5
70
1
10
256.429
20
320.000
10
257.143
20
325.000
10
262.143
20
324.286
10
261.429
20
319.286
10
256.429
20
320.000
0
LWPOLYLINE
8
LIGHT
90
5
70
1
10
255.714
20
302.143
10
250.714
20
302.857
10
251.429
20
307.857
10
256.429
20
307.143
10
255.714
20
302.143
0
LWPOLYLINE
8
LIGHT
90
5
70
1
10
245.714
20
290.714
10
250.714
20
290.000
10
250.000
20
285.000
10
245.000
20
285.714
10
245.714
20
290.714
0
LWPOLYLINE
8
LIGHT
90
5
70
1
10
239.286
20
268.571
10
240.000
20
273.571
10
245.000
20
272.857
10
244.286
20
267.857
10
239.286
20
268.571
0
LWPOLYLINE
8
LIGHT
90
5
70
1
10
238.571
20
113.571
10
222.143
20
114.286
10
222.857
20
119.286
10
239.286
20
118.571
10
238.571
20
113.571
0
LWPOLYLINE
8
LIGHT
90
5
70
1
10
232.857
20
245.000
10
227.857
20
245.714
10
228.571
20
250.714
10
233.571
20
250.000
10
232.857
20
245.000
0
LWPOLYLINE
8
LIGHT
90
5
70
1
10
222.143
20
240.000
10
222.857
20
245.000
10
227.857
20
244.286
10
227.143
20
239.286
10
222.143
20
240.000
0
LWPOLYLINE
8
LIGHT
90
5
70
1
10
221.429
20
227.857
10
216.429
20
228.571
10
217.143
20
233.571
10
222.143
20
232.857
10
221.429
20
227.857
0
LWPOLYLINE
8
LIGHT
90
11
70
1
10
210.714
20
124.286
10
210.714
20
114.286
10
221.429
20
113.571
10
221.429
20
107.857
10
193.571
20
108.571
10
193.571
20
118.571
10
205.000
20
120.000
10
205.714
20
130.714
10
216.429
20
130.000
10
215.714
20
125.000
10
210.714
20
124.286
0
LWPOLYLINE
8
LIGHT
90
7
70
1
10
188.571
20
90.714
10
216.429
20
90.000
10
215.714
20
85.000
10
182.143
20
85.714
10
182.857
20
102.143
10
187.857
20
101.429
10
188.571
20
90.714
0
LWPOLYLINE
8
LIGHT
90
5
70
1
10
216.429
20
141.429
10
215.714
20
136.429
10
205.000
20
137.143
10
205.714
20
142.143
10
216.429
20
141.429
0
LWPOLYLINE
8
LIGHT
90
5
70
1
10
210.714
20
217.143
10
211.429
20
222.143
10
216.429
20
221.429
10
215.714
20
216.429
10
210.714
20
217.143
0
LWPOLYLINE
8
LIGHT
90
5
70
1
10
205.000
20
200.000
10
205.714
20
205.000
10
210.714
20
204.286
10
210.000
20
199.286
10
205.000
20
200.000
0
LWPOLYLINE
8
LIGHT
90
5
70
1
10
205.000
20
182.857
10
199.286
20
182.857
10
199.286
20
192.857
10
204.286
20
193.571
10
205.000
20
182.857
0
LWPOLYLINE
8
LIGHT
90
5
70
1
10
193.571
20
154.286
10
194.286
20
159.286
10
199.286
20
158.571
10
198.571
20
153.571
10
193.571
20
154.286
0
LWPOLYLINE
8
LIGHT
90
5
70
1
10
188.571
20
107.857
10
193.571
20
107.143
10
192.857
20
102.143
10
187.857
20
102.857
10
188.571
20
107.857
0
LWPOLYLINE
8
LIGHT
90
5
70
1
10
187.857
20
130.000
10
192.857
20
130.714
10
193.571
20
120.000
10
187.857
20
120.000
10
187.857
20
130.000
0
LWPOLYLINE
8
MEDIUM
90
5
70
1
10
382.857
20
245.000
10
387.857
20
244.286
10
387.143
20
239.286
10
382.143
20
240.000
10
382.857
20
245.000
0
LWPOLYLINE
8
MEDIUM
90
13
70
1
10
359.286
20
291.429
10
353.571
20
291.429
10
353.571
20
318.571
10
364.286
20
319.286
10
365.000
20
314.286
10
359.286
20
312.857
10
359.286
20
308.571
10
364.286
20
307.857
10
365.714
20
313.571
10
370.000
20
313.571
10
370.714
20
302.857
10
360.000
20
302.143
10
359.286
20
291.429
0
LWPOLYLINE
8
MEDIUM
90
5
70
1
10
358.571
20
342.143
10
353.571
20
342.857
10
354.286
20
347.857
10
359.286
20
347.143
10
358.571
20
342.143
0
LWPOLYLINE
8
MEDIUM
90
9
70
1
10
342.143
20
331.429
10
342.143
20
352.857
10
347.857
20
354.286
10
348.571
20
359.286
10
352.857
20
359.286
10
353.571
20
348.571
10
347.857
20
347.143
10
347.857
20
331.429
10
342.143
20
331.429
0
LWPOLYLINE
8
MEDIUM
90
41
70
1
10
325.000
20
387.143
10
319.286
20
387.143
10
318.571
20
376.429
10
313.571
20
377.143
10
313.571
20
398.571
10
319.286
20
400.000
10
319.286
20
415.714
10
313.571
20
417.143
10
313.571
20
461.429
10
319.286
20
461.429
10
319.286
20
451.429
10
324.286
20
450.714
10
325.000
20
467.143
10
314.286
20
467.857
10
313.571
20
472.857
10
324.286
20
473.571
10
325.714
20
479.286
10
330.000
20
479.286
10
330.714
20
451.429
10
336.429
20
450.000
10
336.429
20
440.000
10
342.143
20
438.571
10
342.143
20
411.429
10
347.857
20
410.000
10
347.857
20
371.429
10
342.143
20
371.429
10
342.143
20
392.857
10
336.429
20
394.286
10
335.714
20
399.286
10
331.429
20
399.286
10
330.714
20
331.429
10
325.000
20
331.429
10
325.000
20
358.571
10
320.000
20
359.286
10
318.571
20
353.571
10
313.571
20
354.286
10
313.571
20
370.000
10
319.286
20
371.429
10
320.000
20
376.429
10
325.000
20
377.143
10
325.000
20
387.143
0
LWPOLYLINE
8
MEDIUM
90
5
70
1
10
330.000
20
433.571
10
325.000
20
432.857
10
325.714
20
422.143
10
330.714
20
422.857
10
330.000
20
433.571
0
LWPOLYLINE
8
MEDIUM
90
5
70
1
10
341.429
20
113.571
10
342.143
20
102.857
10
336.429
20
102.857
10
336.429
20
112.857
10
341.429
20
113.571
0
LWPOLYLINE
8
MEDIUM
90
5
70
1
10
337.143
20
370.714
10
342.143
20
370.000
10
341.429
20
365.000
10
336.429
20
365.714
10
337.143
20
370.714
0
LWPOLYLINE
8
MEDIUM
90
29
70
1
10
302.143
20
118.571
10
307.857
20
120.000
10
308.571
20
125.000
10
313.571
20
124.286
10
313.571
20
108.571
10
307.857
20
107.143
10
307.857
20
102.857
10
319.286
20
102.857
10
319.286
20
141.429
10
314.286
20
142.143
10
312.857
20
136.429
10
307.857
20
137.143
10
307.857
20
158.571
10
312.857
20
159.286
10
314.286
20
147.857
10
325.000
20
147.143
10
325.714
20
136.429
10
336.429
20
135.714
10
336.429
20
114.286
10
330.714
20
112.857
10
330.000
20
107.857
10
325.000
20
107.143
10
325.714
20
102.143
10
330.714
20
101.429
10
330.000
20
96.429
10
296.429
20
97.143
10
297.143
20
102.143
10
302.143
20
102.857
10
302.143
20
118.571
0
LWPOLYLINE
8
MEDIUM
90
5
70
1
10
325.000
20
268.571
10
325.000
20
290.000
10
330.000
20
290.714
10
330.714
20
268.571
10
325.000
20
268.571
0
LWPOLYLINE
8
MEDIUM
90
13
70
1
10
325.000
20
148.571
10
325.000
20
158.571
10
319.286
20
160.000
10
319.286
20
170.000
10
313.571
20
171.429
10
314.286
20
199.286
10
319.286
20
198.571
10
319.286
20
182.857
10
325.000
20
181.429
10
325.000
20
165.714
10
330.714
20
164.286
10
330.714
20
148.571
10
325.000
20
148.571
0
LWPOLYLINE
8
MEDIUM
90
5
70
1
10
319.286
20
210.000
10
318.571
20
205.000
10
313.571
20
205.714
10
314.286
20
210.714
10
319.286
20
210.000
0
LWPOLYLINE
8
MEDIUM
90
9
70
1
10
313.571
20
244.286
10
312.857
20
239.286
10
307.857
20
240.000
10
307.857
20
301.429
10
312.857
20
302.143
10
313.571
20
285.714
10
319.286
20
284.286
10
319.286
20
245.714
10
313.571
20
244.286
0
LWPOLYLINE
8
MEDIUM
90
7
70
1
10
307.857
20
324.286
10
307.143
20
319.286
10
302.143
20
320.000
10
302.143
20
335.714
10
312.857
20
336.429
10
313.571
20
325.714
10
307.857
20
324.286
0
LWPOLYLINE
8
MEDIUM
90
11
70
1
10
302.143
20
455.714
10
307.143
20
456.429
10
307.857
20
417.143
10
313.571
20
415.714
10
313.571
20
411.429
10
307.857
20
410.000
10
307.143
20
399.286
10
296.429
20
400.000
10
296.429
20
410.000
10
302.143
20
411.429
10
302.143
20
455.714
0
LWPOLYLINE
8
MEDIUM
90
49
70
1
10
262.143
20
335.714
10
267.857
20
337.143
10
268.571
20
342.143
10
278.571
20
342.143
10
280.000
20
336.429
10
285.000
20
335.714
10
285.000
20
291.429
10
273.571
20
290.000
10
274.286
20
285.000
10
279.286
20
284.286
10
278.571
20
279.286
10
273.571
20
278.571
10
274.286
20
262.143
10
284.286
20
262.143
10
285.714
20
256.429
10
290.714
20
257.143
10
291.429
20
325.000
10
296.429
20
324.286
10
297.143
20
307.857
10
302.143
20
308.571
10
302.857
20
313.571
10
307.857
20
312.857
10
307.857
20
302.857
10
302.143
20
301.429
10
302.143
20
257.143
10
296.429
20
255.714
10
295.714
20
250.714
10
290.714
20
250.000
10
290.000
20
239.286
10
280.000
20
239.286
10
278.571
20
245.000
10
273.571
20
244.286
10
272.857
20
239.286
10
267.857
20
240.000
10
267.857
20
290.000
10
262.143
20
290.000
10
262.143
20
257.143
10
257.143
20
256.429
10
256.429
20
290.000
10
250.714
20
291.429
10
250.714
20
301.429
10
256.429
20
302.857
10
256.429
20
318.571
10
261.429
20
319.286
10
262.143
20
297.143
10
267.857
20
297.143
10
267.857
20
324.286
10
262.143
20
325.714
10
262.143
20
335.714
0
LWPOLYLINE
8
MEDIUM
90
5
70
1
10
307.143
20
387.857
10
307.857
20
354.286
10
302.143
20
354.286
10
302.143
20
387.143
10
307.143
20
387.857
0
LWPOLYLINE
8
MEDIUM
90
5
70
1
10
301.429
20
119.286
10
296.429
20
120.000
10
297.143
20
125.000
10
302.143
20
124.286
10
301.429
20
119.286
0
LWPOLYLINE
8
MEDIUM
90
5
70
1
10
296.429
20
188.571
10
296.429
20
210.000
10
301.429
20
210.714
10
302.143
20
188.571
10
296.429
20
188.571
0
LWPOLYLINE
8
MEDIUM
90
5
70
1
10
296.429
20
234.286
10
297.143
20
239.286
10
302.143
20
238.571
10
301.429
20
233.571
10
296.429
20
234.286
0
LWPOLYLINE
8
MEDIUM
90
5
70
1
10
291.429
20
433.571
10
296.429
20
432.857
10
295.714
20
427.857
10
290.714
20
428.571
10
291.429
20
433.571
0
LWPOLYLINE
8
MEDIUM
90
5
70
1
10
285.000
20
394.286
10
285.000
20
404.286
10
290.000
20
405.000
10
290.714
20
394.286
10
285.000
20
394.286
0
LWPOLYLINE
8
MEDIUM
90
11
70
1
10
279.286
20
221.429
10
273.571
20
222.857
10
272.857
20
227.857
10
267.857
20
228.571
10
268.571
20
233.571
10
290.714
20
232.857
10
290.714
20
154.286
10
285.000
20
154.286
10
285.000
20
204.286
10
279.286
20
205.714
10
279.286
20
221.429
0
LWPOLYLINE
8
MEDIUM
90
15
70
1
10
273.571
20
124.286
10
279.286
20
125.714
10
280.000
20
130.714
10
285.000
20
131.429
10
285.714
20
136.429
10
290.000
20
136.429
10
290.714
20
125.714
10
285.000
20
124.286
10
285.000
20
120.000
10
290.714
20
118.571
10
290.714
20
97.143
10
279.286
20
97.143
10
279.286
20
118.571
10
273.571
20
120.000
10
273.571
20
124.286
0
LWPOLYLINE
8
MEDIUM
90
5
70
1
10
274.286
20
142.143
10
279.286
20
141.429
10
278.571
20
136.429
10
273.571
20
137.143
10
274.286
20
142.143
0
LWPOLYLINE
8
MEDIUM
90
5
70
1
10
273.571
20
130.000
10
272.857
20
125.000
10
267.857
20
125.714
10
268.571
20
130.714
10
273.571
20
130.000
0
LWPOLYLINE
8
MEDIUM
90
11
70
1
10
227.143
20
96.429
10
222.143
20
97.143
10
222.857
20
113.571
10
232.857
20
113.571
10
234.286
20
107.857
10
239.286
20
107.143
10
240.000
20
96.429
10
267.857
20
95.714
10
267.143
20
90.714
10
227.857
20
91.429
10
227.143
20
96.429
0
LWPOLYLINE
8
MEDIUM
90
9
70
1
10
250.714
20
125.714
10
256.429
20
124.286
10
256.429
20
114.286
10
239.286
20
114.286
10
240.000
20
119.286
10
245.000
20
120.000
10
245.000
20
141.429
10
250.000
20
142.143
10
250.714
20
125.714
0
LWPOLYLINE
8
MEDIUM
90
11
70
1
10
239.286
20
267.143
10
245.000
20
268.571
10
245.000
20
284.286
10
250.000
20
285.000
10
250.714
20
257.143
10
245.000
20
255.714
10
244.286
20
250.714
10
233.571
20
251.429
10
234.286
20
256.429
10
239.286
20
257.143
10
239.286
20
267.143
0
LWPOLYLINE
8
MEDIUM
90
45
70
1
10
239.286
20
192.857
10
239.286
20
165.714
10
245.000
20
164.286
10
245.000
20
154.286
10
250.714
20
152.857
10
250.714
20
148.571
10
245.000
20
147.143
10
244.286
20
142.143
10
240.000
20
142.143
10
239.286
20
158.571
10
233.571
20
158.571
10
232.857
20
119.286
10
222.143
20
120.000
10
221.429
20
130.714
10
205.714
20
130.714
10
204.286
20
119.286
10
193.571
20
120.000
10
194.286
20
153.571
10
199.286
20
152.857
10
199.286
20
142.857
10
205.000
20
141.429
10
205.714
20
136.429
10
216.429
20
137.143
10
215.714
20
142.143
10
205.000
20
142.857
10
205.000
20
147.143
10
210.714
20
148.571
10
211.429
20
153.571
10
215.714
20
153.571
10
217.143
20
147.857
10
222.143
20
147.143
10
222.857
20
142.143
10
227.857
20
142.857
10
227.857
20
198.571
10
222.143
20
200.000
10
222.143
20
215.714
10
216.429
20
217.143
10
216.429
20
227.143
10
222.143
20
228.571
10
222.143
20
238.571
10
227.143
20
239.286
10
227.857
20
228.571
10
233.571
20
227.143
10
233.571
20
194.286
10
239.286
20
192.857
0
LWPOLYLINE
8
MEDIUM
90
5
70
1
10
211.429
20
216.429
10
216.429
20
215.714
10
215.714
20
210.714
10
210.714
20
211.429
10
211.429
20
216.429
0
LWPOLYLINE
8
MEDIUM
90
5
70
1
10
210.000
20
193.571
10
205.000
20
194.286
10
205.714
20
199.286
10
210.714
20
198.571
10
210.000
20
193.571
0
LWPOLYLINE
8
MEDIUM
90
5
70
1
10
210.000
20
90.714
10
205.000
20
91.429
10
205.714
20
96.429
10
210.714
20
95.714
10
210.000
20
90.714
0
LWPOLYLINE
8
MEDIUM
90
5
70
1
10
205.714
20
187.857
10
210.714
20
187.143
10
210.000
20
182.143
10
205.000
20
182.857
10
205.714
20
187.857
0
LWPOLYLINE
8
MEDIUM
90
9
70
1
10
205.000
20
170.000
10
204.286
20
165.000
10
199.286
20
165.714
10
199.286
20
181.429
10
204.286
20
182.143
10
205.714
20
176.429
10
210.714
20
175.714
10
210.714
20
171.429
10
205.000
20
170.000
0
LWPOLYLINE
8
MEDIUM
90
5
70
1
10
198.571
20
102.143
10
193.571
20
102.857
10
194.286
20
107.857
10
199.286
20
107.143
10
198.571
20
102.143
0
LWPOLYLINE
8
MEDIUM
90
5
70
1
10
198.571
20
90.714
10
193.571
20
91.429
10
194.286
20
96.429
10
199.286
20
95.714
10
198.571
20
90.714
0
LWPOLYLINE
8
BLACK
90
7
70
1
10
330.714
20
108.571
10
331.429
20
113.571
10
336.429
20
112.857
10
335.714
20
102.143
10
325.000
20
102.857
10
325.000
20
107.143
10
330.714
20
108.571
0
LWPOLYLINE
8
BLACK
90
7
70
1
10
313.571
20
130.000
10
318.571
20
130.714
10
319.286
20
102.857
10
307.857
20
102.857
10
308.571
20
107.857
10
313.571
20
108.571
10
313.571
20
130.000
0
LWPOLYLINE
8
BLACK
90
5
70
1
10
313.571
20
415.714
10
318.571
20
416.429
10
319.286
20
400.000
10
313.571
20
400.000
10
313.571
20
415.714
0
LWPOLYLINE
8
BLACK
90
5
70
1
10
313.571
20
462.857
10
314.286
20
467.857
10
319.286
20
467.143
10
318.571
20
462.143
10
313.571
20
462.857
0
LWPOLYLINE
8
BLACK
90
5
70
1
10
318.571
20
170.714
10
319.286
20
148.571
10
313.571
20
148.571
10
313.571
20
170.000
10
318.571
20
170.714
0
LWPOLYLINE
8
BLACK
90
71
70
1
10
250.714
20
148.571
10
250.714
20
152.857
10
245.000
20
154.286
10
245.000
20
164.286
10
239.286
20
165.714
10
239.286
20
192.857
10
233.571
20
194.286
10
233.571
20
227.143
10
227.857
20
228.571
10
227.857
20
244.286
10
233.571
20
245.714
10
234.286
20
250.714
10
244.286
20
250.714
10
245.714
20
256.429
10
250.714
20
257.143
10
251.429
20
290.714
10
256.429
20
290.000
10
256.429
20
257.143
10
262.143
20
257.143
10
262.143
20
290.000
10
267.143
20
290.714
10
267.857
20
240.000
10
272.857
20
239.286
10
274.286
20
245.000
10
278.571
20
245.000
10
280.000
20
239.286
10
290.000
20
239.286
10
290.714
20
250.000
10
296.429
20
251.429
10
297.143
20
256.429
10
302.143
20
257.143
10
302.143
20
301.429
10
307.143
20
302.143
10
307.857
20
120.000
10
302.857
20
119.286
10
301.429
20
125.000
10
296.429
20
124.286
10
297.143
20
119.286
10
302.143
20
118.571
10
302.143
20
102.857
10
296.429
20
101.429
10
295.714
20
96.429
10
291.429
20
96.429
10
290.714
20
118.571
10
285.000
20
120.000
10
285.714
20
125.000
10
290.714
20
125.714
10
290.714
20
135.714
10
285.714
20
136.429
10
284.286
20
130.714
10
280.000
20
130.714
10
279.286
20
141.429
10
274.286
20
142.143
10
273.571
20
131.429
10
267.857
20
130.000
10
267.857
20
125.714
10
273.571
20
124.286
10
274.286
20
119.286
10
279.286
20
118.571
10
279.286
20
97.143
10
239.286
20
97.143
10
239.286
20
107.143
10
233.571
20
108.571
10
233.571
20
112.857
10
255.714
20
113.571
10
256.429
20
124.286
10
250.714
20
125.714
10
250.714
20
141.429
10
245.000
20
142.857
10
245.714
20
147.857
10
250.714
20
148.571
0
LWPOLYLINE
8
BLACK
90
5
70
1
10
296.429
20
238.571
10
297.143
20
233.571
10
302.143
20
234.286
10
301.429
20
239.286
10
296.429
20
238.571
0
LWPOLYLINE
8
BLACK
90
5
70
1
10
297.143
20
187.857
10
302.143
20
188.571
10
301.429
20
210.714
10
296.429
20
210.000
10
297.143
20
187.857
0
LWPOLYLINE
8
BLACK
90
11
70
1
10
273.571
20
227.143
10
274.286
20
222.143
10
279.286
20
221.429
10
279.286
20
205.714
10
285.000
20
204.286
10
285.714
20
153.571
10
290.714
20
154.286
10
290.714
20
232.857
10
268.571
20
233.571
10
267.857
20
228.571
10
273.571
20
227.143
0
LWPOLYLINE
8
BLACK
90
5
70
1
10
290.714
20
427.143
10
295.714
20
427.857
10
296.429
20
394.286
10
290.714
20
394.286
10
290.714
20
427.143
0
LWPOLYLINE
8
BLACK
90
5
70
1
10
267.143
20
325.000
10
267.857
20
297.143
10
262.143
20
297.143
10
262.143
20
324.286
10
267.143
20
325.000
0
LWPOLYLINE
8
BLACK
90
7
70
1
10
238.571
20
159.286
10
239.286
20
142.857
10
245.000
20
141.429
10
245.000
20
120.000
10
233.571
20
120.000
10
233.571
20
158.571
10
238.571
20
159.286
0
LWPOLYLINE
8
BLACK
90
17
70
1
10
205.000
20
95.714
10
204.286
20
90.714
10
199.286
20
91.429
10
198.571
20
96.429
10
193.571
20
95.714
10
192.857
20
90.714
10
187.857
20
91.429
10
187.857
20
101.429
10
198.571
20
102.143
10
200.000
20
107.857
10
221.429
20
107.857
10
222.143
20
97.143
10
227.857
20
95.714
10
227.143
20
90.714
10
211.429
20
90.714
10
210.000
20
96.429
10
205.000
20
95.714
0
LWPOLYLINE
8
BLACK
90
29
70
1
10
205.000
20
181.429
10
210.714
20
182.857
10
210.714
20
187.143
10
205.000
20
188.571
10
205.000
20
192.857
10
210.714
20
194.286
10
210.714
20
210.000
10
216.429
20
211.429
10
217.143
20
216.429
10
221.429
20
216.429
10
222.143
20
200.000
10
227.857
20
198.571
10
227.857
20
142.857
10
222.857
20
142.143
10
221.429
20
147.857
10
216.429
20
148.571
10
215.714
20
153.571
10
211.429
20
153.571
10
210.000
20
147.857
10
205.000
20
147.143
10
204.286
20
142.143
10
199.286
20
142.857
10
199.286
20
164.286
10
205.000
20
165.714
10
205.714
20
170.714
10
210.714
20
171.429
10
210.000
20
176.429
10
205.000
20
177.143
10
205.000
20
181.429
0
ENDSEC
0
EOF