  0
SECTION
  2
HEADER
  9
$ACADVER
  1
AC1027
  9
$ACADMAINTVER
 70
105
  9
$DWGCODEPAGE
  3
ANSI_1252
  9
$LASTSAVEDBY
  1
ezdxf
  9
$REQUIREDVERSIONS
160
0
  9
$INSBASE
 10
0.0
 20
0.0
 30
0.0
  9
$EXTMIN
 10
1e+20
 20
1e+20
 30
1e+20
  9
$EXTMAX
 10
-1e+20
 20
-1e+20
 30
-1e+20
  9
$LIMMIN
 10
0.0
 20
0.0
  9
$LIMMAX
 10
420.0
 20
297.0
  9
$ORTHOMODE
 70
0
  9
$REGENMODE
 70
1
  9
$FILLMODE
 70
1
  9
$QTEXTMODE
 70
0
  9
$MIRRTEXT
 70
1
  9
$LTSCALE
 40
1.0
  9
$ATTMODE
 70
1
  9
$TEXTSIZE
 40
2.5
  9
$TRACEWID
 40
1.0
  9
$TEXTSTYLE
  7
Standard
  9
$CLAYER
  8
0
  9
$CELTYPE
  6
ByLayer
  9
$CECOLOR
 62
256
  9
$CELTSCALE
 40
1.0
  9
$DISPSILH
 70
0
  9
$DIMSCALE
 40
1.0
  9
$DIMASZ
 40
2.5
  9
$DIMEXO
 40
0.625
  9
$DIMDLI
 40
3.75
  9
$DIMRND
 40
0.0
  9
$DIMDLE
 40
0.0
  9
$DIMEXE
 40
1.25
  9
$DIMTP
 40
0.0
  9
$DIMTM
 40
0.0
  9
$DIMTXT
 40
2.5
  9
$DIMCEN
 40
2.5
  9
$DIMTSZ
 40
0.0
  9
$DIMTOL
 70
0
  9
$DIMLIM
 70
0
  9
$DIMTIH
 70
0
  9
$DIMTOH
 70
0
  9
$DIMSE1
 70
0
  9
$DIMSE2
 70
0
  9
$DIMTAD
 70
1
  9
$DIMZIN
 70
8
  9
$DIMBLK
  1

  9
$DIMASO
 70
1
  9
$DIMSHO
 70
1
  9
$DIMPOST
  1

  9
$DIMAPOST
  1

  9
$DIMALT
 70
0
  9
$DIMALTD
 70
3
  9
$DIMALTF
 40
0.03937007874
  9
$DIMLFAC
 40
1.0
  9
$DIMTOFL
 70
1
  9
$DIMTVP
 40
0.0
  9
$DIMTIX
 70
0
  9
$DIMSOXD
 70
0
  9
$DIMSAH
 70
0
  9
$DIMBLK1
  1

  9
$DIMBLK2
  1

  9
$DIMSTYLE
  2
ISO-25
  9
$DIMCLRD
 70
0
  9
$DIMCLRE
 70
0
  9
$DIMCLRT
 70
0
  9
$DIMTFAC
 40
1.0
  9
$DIMGAP
 40
0.625
  9
$DIMJUST
 70
0
  9
$DIMSD1
 70
0
  9
$DIMSD2
 70
0
  9
$DIMTOLJ
 70
0
  9
$DIMTZIN
 70
8
  9
$DIMALTZ
 70
0
  9
$DIMALTTZ
 70
0
  9
$DIMUPT
 70
0
  9
$DIMDEC
 70
2
  9
$DIMTDEC
 70
2
  9
$DIMALTU
 70
2
  9
$DIMALTTD
 70
3
  9
$DIMTXSTY
  7
Standard
  9
$DIMAUNIT
 70
0
  9
$DIMADEC
 70
0
  9
$DIMALTRND
 40
0.0
  9
$DIMAZIN
 70
0
  9
$DIMDSEP
 70
44
  9
$DIMATFIT
 70
3
  9
$DIMFRAC
 70
0
  9
$DIMLDRBLK
  1

  9
$DIMLUNIT
 70
2
  9
$DIMLWD
 70
-2
  9
$DIMLWE
 70
-2
  9
$DIMTMOVE
 70
0
  9
$DIMFXL
 40
1.0
  9
$DIMFXLON
 70
0
  9
$DIMJOGANG
 40
0.785398163397
  9
$DIMTFILL
 70
0
  9
$DIMTFILLCLR
 70
0
  9
$DIMARCSYM
 70
0
  9
$DIMLTYPE
  6

  9
$DIMLTEX1
  6

  9
$DIMLTEX2
  6

  9
$DIMTXTDIRECTION
 70
0
  9
$LUNITS
 70
2
  9
$LUPREC
 70
4
  9
$SKETCHINC
 40
1.0
  9
$FILLETRAD
 40
10.0
  9
$AUNITS
 70
0
  9
$AUPREC
 70
2
  9
$MENU
  1
.
  9
$ELEVATION
 40
0.0
  9
$PELEVATION
 40
0.0
  9
$THICKNESS
 40
0.0
  9
$LIMCHECK
 70
0
  9
$CHAMFERA
 40
0.0
  9
$CHAMFERB
 40
0.0
  9
$CHAMFERC
 40
0.0
  9
$CHAMFERD
 40
0.0
  9
$SKPOLY
 70
0
  9
$TDCREATE
 40
2461246.7702546297
  9
$TDUCREATE
 40
2458532.153996898
  9
$TDUPDATE
 40
2461246.7702546297
  9
$TDUUPDATE
 40
2458532.1544311
  9
$TDINDWG
 40
0.0
  9
$TDUSRTIMER
 40
0.0
  9
$USRTIMER
 70
1
  9
$ANGBASE
 50
0.0
  9
$ANGDIR
 70
0
  9
$PDMODE
 70
0
  9
$PDSIZE
 40
0.0
  9
$PLINEWID
 40
0.0
  9
$SPLFRAME
 70
0
  9
$SPLINETYPE
 70
6
  9
$SPLINESEGS
 70
8
  9
$HANDSEED
  5
50
  9
$SURFTAB1
 70
6
  9
$SURFTAB2
 70
6
  9
$SURFTYPE
 70
6
  9
$SURFU
 70
6
  9
$SURFV
 70
6
  9
$UCSBASE
  2

  9
$UCSNAME
  2

  9
$UCSORG
 10
0.0
 20
0.0
 30
0.0
  9
$UCSXDIR
 10
1.0
 20
0.0
 30
0.0
  9
$UCSYDIR
 10
0.0
 20
1.0
 30
0.0
  9
$UCSORTHOREF
  2

  9
$UCSORTHOVIEW
 70
0
  9
$UCSORGTOP
 10
0.0
 20
0.0
 30
0.0
  9
$UCSORGBOTTOM
 10
0.0
 20
0.0
 30
0.0
  9
$UCSORGLEFT
 10
0.0
 20
0.0
 30
0.0
  9
$UCSORGRIGHT
 10
0.0
 20
0.0
 30
0.0
  9
$UCSORGFRONT
 10
0.0
 20
0.0
 30
0.0
  9
$UCSORGBACK
 10
0.0
 20
0.0
 30
0.0
  9
$PUCSBASE
  2

  9
$PUCSNAME
  2

  9
$PUCSORG
 10
0.0
 20
0.0
 30
0.0
  9
$PUCSXDIR
 10
1.0
 20
0.0
 30
0.0
  9
$PUCSYDIR
 10
0.0
 20
1.0
 30
0.0
  9
$PUCSORTHOREF
  2

  9
$PUCSORTHOVIEW
 70
0
  9
$PUCSORGTOP
 10
0.0
 20
0.0
 30
0.0
  9
$PUCSORGBOTTOM
 10
0.0
 20
0.0
 30
0.0
  9
$PUCSORGLEFT
 10
0.0
 20
0.0
 30
0.0
  9
$PUCSORGRIGHT
 10
0.0
 20
0.0
 30
0.0
  9
$PUCSORGFRONT
 10
0.0
 20
0.0
 30
0.0
  9
$PUCSORGBACK
 10
0.0
 20
0.0
 30
0.0
  9
$USERI1
 70
0
  9
$USERI2
 70
0
  9
$USERI3
 70
0
  9
$USERI4
 70
0
  9
$USERI5
 70
0
  9
$USERR1
 40
0.0
  9
$USERR2
 40
0.0
  9
$USERR3
 40
0.0
  9
$USERR4
 40
0.0
  9
$USERR5
 40
0.0
  9
$WORLDVIEW
 70
1
  9
$SHADEDGE
 70
3
  9
$SHADEDIF
 70
70
  9
$TILEMODE
 70
1
  9
$MAXACTVP
 70
64
  9
$PINSBASE
 10
0.0
 20
0.0
 30
0.0
  9
$PLIMCHECK
 70
0
  9
$PEXTMIN
 10
1e+20
 20
1e+20
 30
1e+20
  9
$PEXTMAX
 10
-1e+20
 20
-1e+20
 30
-1e+20
  9
$PLIMMIN
 10
0.0
 20
0.0
  9
$PLIMMAX
 10
420.0
 20
297.0
  9
$UNITMODE
 70
0
  9
$VISRETAIN
 70
1
  9
$PLINEGEN
 70
0
  9
$PSLTSCALE
 70
1
  9
$TREEDEPTH
 70
3020
  9
$CMLSTYLE
  2
Standard
  9
$CMLJUST
 70
0
  9
$CMLSCALE
 40
20.0
  9
$PROXYGRAPHICS
 70
1
  9
$MEASUREMENT
 70
1
  9
$CELWEIGHT
370
-1
  9
$ENDCAPS
280
0
  9
$JOINSTYLE
280
0
  9
$LWDISPLAY
290
0
  9
$INSUNITS
 70
4
  9
$HYPERLINKBASE
  1

  9
$STYLESHEET
  1

  9
$XEDIT
290
1
  9
$CEPSNTYPE
380
0
  9
$PSTYLEMODE
290
1
  9
$FINGERPRINTGUID
  2
{6EF37B4B-5B55-4527-B876-556C33430A1C}
  9
$VERSIONGUID
  2
{445FBF47-47EF-40E4-A3E3-EBBAF47F710B}
  9
$EXTNAMES
290
1
  9
$PSVPSCALE
 40
0.0
  9
$OLESTARTUP
290
0
  9
$SORTENTS
280
127
  9
$INDEXCTL
280
0
  9
$HIDETEXT
280
1
  9
$XCLIPFRAME
280
1
  9
$HALOGAP
280
0
  9
$OBSCOLOR
 70
257
  9
$OBSLTYPE
280
0
  9
$INTERSECTIONDISPLAY
280
0
  9
$INTERSECTIONCOLOR
 70
257
  9
$DIMASSOC
280
2
  9
$PROJECTNAME
  1

  9
$CAMERADISPLAY
290
0
  9
$LENSLENGTH
 40
50.0
  9
$CAMERAHEIGHT
 40
0.0
  9
$STEPSPERSEC
 40
24.0
  9
$STEPSIZE
 40
100.0
  9
$3DDWFPREC
 40
2.0
  9
$PSOLWIDTH
 40
0.005
  9
$PSOLHEIGHT
 40
0.08
  9
$LOFTANG1
 40
1.570796326795
  9
$LOFTANG2
 40
1.570796326795
  9
$LOFTMAG1
 40
0.0
  9
$LOFTMAG2
 40
0.0
  9
$LOFTPARAM
 70
7
  9
$LOFTNORMALS
280
1
  9
$LATITUDE
 40
37.795
  9
$LONGITUDE
 40
-122.394
  9
$NORTHDIRECTION
 40
0.0
  9
$TIMEZONE
 70
-8000
  9
$LIGHTGLYPHDISPLAY
280
1
  9
$TILEMODELIGHTSYNCH
280
1
  9
$CMATERIAL
347
20
  9
$SOLIDHIST
280
0
  9
$SHOWHIST
280
1
  9
$DWFFRAME
280
2
  9
$DGNFRAME
280
2
  9
$REALWORLDSCALE
290
1
  9
$INTERFERECOLOR
 62
256
  9
$CSHADOW
280
0
  9
$SHADOWPLANELOCATION
 40
0.0
  0
ENDSEC
  0
SECTION
  2
CLASSES
  0
CLASS
  1
ACDBDICTIONARYWDFLT
  2
AcDbDictionaryWithDefault
  3
ObjectDBX Classes
 90
0
 91
0
280
0
281
0
  0
CLASS
  1
SUN
  2
AcDbSun
  3
SCENEOE
 90
1153
 91
0
280
0
281
0
  0
CLASS
  1
VISUALSTYLE
  2
AcDbVisualStyle
  3
ObjectDBX Classes
 90
4095
 91
0
280
0
281
0
  0
CLASS
  1
MATERIAL
  2
AcDbMaterial
  3
ObjectDBX Classes
 90
1153
 91
0
280
0
281
0
  0
CLASS
  1
SCALE
  2
AcDbScale
  3
ObjectDBX Classes
 90
1153
 91
0
280
0
281
0
  0
CLASS
  1
TABLESTYLE
  2
AcDbTableStyle
  3
ObjectDBX Classes
 90
4095
 91
0
280
0
281
0
  0
CLASS
  1
MLEADERSTYLE
  2
AcDbMLeaderStyle
  3
ACDB_MLEADERSTYLE_CLASS
 90
4095
 91
0
280
0
281
0
  0
CLASS
  1
DICTIONARYVAR
  2
AcDbDictionaryVar
  3
ObjectDBX Classes
 90
0
 91
0
280
0
281
0
  0
CLASS
  1
CELLSTYLEMAP
  2
AcDbCellStyleMap
  3
ObjectDBX Classes
 90
1152
 91
0
280
0
281
0
  0
CLASS
  1
MENTALRAYRENDERSETTINGS
  2
AcDbMentalRayRenderSettings
  3
SCENEOE
 90
1024
 91
0
280
0
281
0
  0
CLASS
  1
ACDBDETAILVIEWSTYLE
  2
AcDbDetailViewStyle
  3
ObjectDBX Classes
 90
1025
 91
0
280
0
281
0
  0
CLASS
  1
ACDBSECTIONVIEWSTYLE
  2
AcDbSectionViewStyle
  3
ObjectDBX Classes
 90
1025
 91
0
280
0
281
0
  0
CLASS
  1
RASTERVARIABLES
  2
AcDbRasterVariables
  3
ISM
 90
0
 91
0
280
0
281
0
  0
CLASS
  1
ACDBPLACEHOLDER
  2
AcDbPlaceHolder
  3
ObjectDBX Classes
 90
0
 91
0
280
0
281
0
  0
CLASS
  1
LAYOUT
  2
AcDbLayout
  3
ObjectDBX Classes
 90
0
 91
0
280
0
281
0
  0
ENDSEC
  0
SECTION
  2
TABLES
  0
TABLE
  2
VPORT
  5
8
330
0
100
AcDbSymbolTable
 70
1
  0
VPORT
  5
23
330
8
100
AcDbSymbolTableRecord
100
AcDbViewportTableRecord
  2
*Active
 70
0
 10
0.0
 20
0.0
 11
1.0
 21
1.0
 12
0.0
 22
0.0
 13
0.0
 23
0.0
 14
0.5
 24
0.5
 15
0.5
 25
0.5
 16
0.0
 26
0.0
 36
1.0
 17
0.0
 27
0.0
 37
0.0
 40
1000.0
 41
1.34
 42
50.0
 43
0.0
 44
0.0
 50
0.0
 51
0.0
 71
0
 72
1000
 73
1
 74
3
 75
0
 76
0
 77
0
 78
0
281
0
 65
0
146
0.0
  0
ENDTAB
  0
TABLE
  2
LTYPE
  5
2
330
0
100
AcDbSymbolTable
 70
3
  0
LTYPE
  5
24
330
2
100
AcDbSymbolTableRecord
100
AcDbLinetypeTableRecord
  2
ByBlock
 70
0
  3

 72
65
 73
0
 40
0.0
  0
LTYPE
  5
25
330
2
100
AcDbSymbolTableRecord
100
AcDbLinetypeTableRecord
  2
ByLayer
 70
0
  3

 72
65
 73
0
 40
0.0
  0
LTYPE
  5
26
330
2
100
AcDbSymbolTableRecord
100
AcDbLinetypeTableRecord
  2
Continuous
 70
0
  3

 72
65
 73
0
 40
0.0
  0
ENDTAB
  0
TABLE
  2
LAYER
  5
1
330
0
100
AcDbSymbolTable
 70
3
  0
LAYER
  5
27
330
1
100
AcDbSymbolTableRecord
100
AcDbLayerTableRecord
  2
0
 70
0
 62
7
  6
Continuous
370
-3
390
13
347
21
  0
LAYER
  5
28
330
1
100
AcDbSymbolTableRecord
100
AcDbLayerTableRecord
  2
Defpoints
 70
0
 62
7
  6
Continuous
290
0
370
-3
390
13
347
21
  0
LAYER
  5
2F
330
1
100
AcDbSymbolTableRecord
100
AcDbLayerTableRecord
  2
C
 70
0
 62
7
  6
Continuous
370
-3
390
13
347
21
  0
ENDTAB
  0
TABLE
  2
STYLE
  5
5
330
0
100
AcDbSymbolTable
 70
1
  0
STYLE
  5
29
330
5
100
AcDbSymbolTableRecord
100
AcDbTextStyleTableRecord
  2
Standard
 70
0
 40
0.0
 41
1.0
 50
0.0
 71
0
 42
2.5
  3
txt
  4

  0
ENDTAB
  0
TABLE
  2
VIEW
  5
7
330
0
100
AcDbSymbolTable
 70
0
  0
ENDTAB
  0
TABLE
  2
UCS
  5
6
330
0
100
AcDbSymbolTable
 70
0
  0
ENDTAB
  0
TABLE
  2
APPID
  5
3
330
0
100
AcDbSymbolTable
 70
3
  0
APPID
  5
2A
330
3
100
AcDbSymbolTableRecord
100
AcDbRegAppTableRecord
  2
ACAD
 70
0
  0
APPID
  5
4D
330
3
100
AcDbSymbolTableRecord
100
AcDbRegAppTableRecord
  2
HATCHBACKGROUNDCOLOR
 70
0
  0
APPID
  5
4E
330
3
100
AcDbSymbolTableRecord
100
AcDbRegAppTableRecord
  2
EZDXF
 70
0
  0
ENDTAB
  0
TABLE
  2
DIMSTYLE
  5
4
330
0
100
AcDbSymbolTable
 70
1
100
AcDbDimStyleTable
  0
DIMSTYLE
105
2B
330
4
100
AcDbSymbolTableRecord
100
AcDbDimStyleTableRecord
  2
Standard
 70
0
 40
1.0
 41
2.5
 42
0.625
 43
3.75
 44
1.25
 45
0.0
 46
0.0
 47
0.0
 48
0.0
 49
2.5
140
2.5
141
2.5
142
0.0
143
0.03937007874
144
1.0
145
0.0
146
1.0
147
0.625
148
0.0
 69
0
 70
0
 71
0
 72
0
 73
0
 74
0
 75
0
 76
0
 77
1
 78
8
 79
3
170
0
171
3
172
1
173
0
174
0
175
0
176
0
177
0
178
0
179
2
271
2
272
2
273
2
274
3
275
0
276
0
277
2
278
44
279
0
280
0
281
0
282
0
283
0
284
8
285
0
286
0
288
0
289
3
290
0
371
-2
372
-2
  0
ENDTAB
  0
TABLE
  2
BLOCK_RECORD
  5
9
330
0
100
AcDbSymbolTable
 70
2
  0
BLOCK_RECORD
  5
17
330
9
100
AcDbSymbolTableRecord
100
AcDbBlockTableRecord
  2
*Model_Space
340
1A
 70
0
280
1
281
0
  0
BLOCK_RECORD
  5
1B
330
9
100
AcDbSymbolTableRecord
100
AcDbBlockTableRecord
  2
*Paper_Space
340
1E
 70
0
280
1
281
0
  0
ENDTAB
  0
ENDSEC
  0
SECTION
  2
BLOCKS
  0
BLOCK
  5
18
330
17
100
AcDbEntity
  8
0
100
AcDbBlockBegin
  2
*Model_Space
 70
0
 10
0.0
 20
0.0
 30
0.0
  3
*Model_Space
  1

  0
ENDBLK
  5
19
330
17
100
AcDbEntity
  8
0
100
AcDbBlockEnd
  0
BLOCK
  5
1C
330
1B
100
AcDbEntity
  8
0
100
AcDbBlockBegin
  2
*Paper_Space
 70
0
 10
0.0
 20
0.0
 30
0.0
  3
*Paper_Space
  1

  0
ENDBLK
  5
1D
330
1B
100
AcDbEntity
  8
0
100
AcDbBlockEnd
  0
ENDSEC
  0
SECTION
  2
ENTITIES
  0
LWPOLYLINE
  5
30
330
17
100
AcDbEntity
  8
C
100
AcDbPolyline
 90
5
 70
1
 10
78.77494919772855
 20
29.992669253862793
 10
76.58203189803459
 20
33.74320316917756
 10
78.81502602948487
 20
36.0346494240471
 10
81.00794332917971
 20
32.284115508732334
 10
78.77494919772855
 20
29.992669253862793
  0
LWPOLYLINE
  5
31
330
17
100
AcDbEntity
  8
C
100
AcDbPolyline
 90
5
 70
1
 10
73.22646666823562
 20
17.44265789977795
 10
75.45429128299031
 20
15.156516481812154
 10
73.22646666823562
 20
12.87037506384614
 10
70.99864205348183
 20
15.156516481812154
 10
73.22646666823562
 20
17.44265789977795
  0
LWPOLYLINE
  5
32
330
17
100
AcDbEntity
  8
C
100
AcDbPolyline
 90
9
 70
1
 10
66.84117828212788
 20
43.708522673289174
 10
65.43012110811031
 20
45.15651648181218
 10
67.65794572286498
 20
47.44265789977797
 10
74.04323410897274
 20
40.890224576049185
 10
72.65110387263007
 20
38.033081718906516
 10
74.06216104664765
 20
36.58508791038351
 10
71.83433643189296
 20
34.29894649241771
 10
65.44904804578522
 20
40.851379816146284
 10
66.84117828212788
 20
43.708522673289174
  0
LWPOLYLINE
  5
33
330
17
100
AcDbEntity
  8
C
100
AcDbPolyline
 90
14
 70
1
 10
68.50162745786025
 20
16.576891472214417
 10
61.540976276146075
 20
10.862605757928856
 10
67.09113299009229
 20
5.1671649876268155
 10
63.49444968236817
 20
0.0
 10
61.29335965932192
 20
2.258707006391525
 10
61.29335965932192
 20
5.115849863534416
 10
58.488396864071035
 20
7.994236959003587
 10
59.88655716918423
 20
10.863755646702167
 10
57.116968950293945
 20
15.126885447843685
 10
57.116968950293945
 20
18.054325957232777
 10
59.305164304808144
 20
20.29980075692084
 10
62.08942477749346
 20
17.44265789977795
 10
64.87368525017878
 20
20.29980075692084
 10
68.50162745786025
 20
16.576891472214417
  0
LWPOLYLINE
  5
34
330
17
100
AcDbEntity
  8
C
100
AcDbPolyline
 90
5
 70
1
 10
64.87368525017878
 20
50.013232206703286
 10
62.64586063542499
 20
52.2993736246693
 10
64.87368525017878
 20
54.585515042635315
 10
67.10150986493346
 20
52.2993736246693
 10
64.87368525017878
 20
50.013232206703286
  0
LWPOLYLINE
  5
35
330
17
100
AcDbEntity
  8
C
100
AcDbPolyline
 90
11
 70
1
 10
63.48155501383612
 20
20.013232206703258
 10
62.08942477749346
 20
21.441803635274816
 10
60.697294541150804
 20
20.013232206703258
 10
57.07733969005346
 20
23.72794505324083
 10
61.27265733675635
 20
28.033081718906505
 10
58.495769347534754
 20
33.732236493629884
 10
60.6899613114118
 20
37.4849504598056
 10
64.28807623512878
 20
32.315728745076825
 10
62.89307151496004
 20
28.021165275516235
 10
65.69045269091589
 20
22.27995124471782
 10
63.48155501383612
 20
20.013232206703258
  0
LWPOLYLINE
  5
36
330
17
100
AcDbEntity
  8
C
100
AcDbPolyline
 90
5
 70
1
 10
64.31724939224814
 20
46.585087910383514
 10
62.08942477749346
 20
44.2989464924175
 10
59.86160016273967
 20
46.585087910383514
 10
62.08942477749346
 20
48.87122932834953
 10
64.31724939224814
 20
46.585087910383514
  0
LWPOLYLINE
  5
37
330
17
100
AcDbEntity
  8
C
100
AcDbPolyline
 90
12
 70
1
 10
48.18577295837301
 20
60.28168818193458
 10
53.73664335943662
 20
54.585515042635315
 10
55.12877359577928
 20
56.014086471206646
 10
58.74872844687662
 20
52.2993736246693
 10
56.520903832122826
 20
50.013232206703286
 10
55.12877359577928
 20
51.44180363527484
 10
53.77010082535261
 20
50.0475654742607
 10
50.206131569706436
 20
50.7790178223253
 10
46.775992177723325
 20
54.298946492417734
 10
45.38386194137978
 20
52.870375063846176
 10
41.74166356023612
 20
56.60791369971396
 10
48.18577295837301
 20
60.28168818193458
  0
LWPOLYLINE
  5
38
330
17
100
AcDbEntity
  8
C
100
AcDbPolyline
 90
7
 70
1
 10
57.365644286611506
 20
5.147233610505619
 10
50.95981750336964
 20
0.03450411946892551
 10
47.31326450874018
 20
2.2797084623833452
 10
49.518072506712585
 20
4.542230767526467
 10
52.3023329793979
 20
4.542230767526467
 10
55.12877359577928
 20
7.44265789977816
 10
57.365644286611506
 20
5.147233610505619
  0
LWPOLYLINE
  5
39
330
17
100
AcDbEntity
  8
C
100
AcDbPolyline
 90
5
 70
1
 10
50.11668850834017
 20
18.013659338955044
 10
52.34451312309396
 20
20.29980075692084
 10
54.57233773784864
 20
18.013659338955044
 10
52.34451312309396
 20
15.727517920989031
 10
50.11668850834017
 20
18.013659338955044
  0
LWPOLYLINE
  5
3A
330
17
100
AcDbEntity
  8
C
100
AcDbPolyline
 90
9
 70
1
 10
45.9402977993113
 20
29.44223076752639
 10
48.168122414065984
 20
31.728372185492404
 10
53.16128056383107
 20
26.60451029033495
 10
51.76915032748841
 20
23.74736743319228
 10
53.180207501505095
 20
22.299373624669272
 10
50.94288939119007
 20
20.003490204006713
 10
45.94825796127999
 20
26.593256442075663
 10
47.33242803565396
 20
28.013659338955055
 10
45.9402977993113
 20
29.44223076752639
  0
LWPOLYLINE
  5
3B
330
17
100
AcDbEntity
  8
C
100
AcDbPolyline
 90
12
 70
1
 10
38.97961490675428
 20
36.56347059511034
 10
43.16504744160987
 20
42.29012765579476
 10
41.74474356336866
 20
43.747610215526535
 10
45.388719728363114
 20
45.99122798912614
 10
50.408248673277534
 20
42.31199728396362
 10
48.168122414065984
 20
40.01323220670328
 10
46.775992177723325
 20
41.44180363527483
 10
44.78779682320866
 20
39.40156414924867
 10
44.78779682320866
 20
36.62575452866123
 10
46.2195563197918
 20
35.156516481812176
 10
44.00270160395259
 20
32.881632117069735
 10
38.97961490675428
 20
36.56347059511034
  0
LWPOLYLINE
  5
3C
330
17
100
AcDbEntity
  8
C
100
AcDbPolyline
 90
5
 70
1
 10
42.583857680549286
 20
20.28364485042955
 10
46.238719846706466
 20
18.033324501240955
 10
44.00747549318318
 20
15.74367382748032
 10
40.352613327026
 20
17.993994176669137
 10
42.583857680549286
 20
20.28364485042955
  0
LWPOLYLINE
  5
3D
330
17
100
AcDbEntity
  8
C
100
AcDbPolyline
 90
5
 70
1
 10
44.01177012091573
 20
11.748935138332861
 10
46.20468742060968
 20
7.998401223018092
 10
44.00747549318318
 20
5.743673827480311
 10
40.352613327026
 20
7.993994176669128
 10
44.01177012091573
 20
11.748935138332861
  0
LWPOLYLINE
  5
3E
330
17
100
AcDbEntity
  8
C
100
AcDbPolyline
 90
7
 70
1
 10
37.03108052332382
 20
51.72837218549242
 10
38.42321075966648
 20
50.29980075692087
 10
41.2074712323518
 20
53.156943614063756
 10
43.42733568513779
 20
50.87897072779013
 10
38.41976743507303
 20
44.272136038949526
 10
34.81363278341032
 20
49.452879273341075
 10
37.03108052332382
 20
51.72837218549242
  0
LWPOLYLINE
  5
3F
330
17
100
AcDbEntity
  8
C
100
AcDbPolyline
 90
7
 70
1
 10
34.239311147199025
 20
28.8789347891123
 10
36.4746446653923
 20
26.5850879103835
 10
33.67145725503207
 20
23.70852267328938
 10
35.063587491374726
 20
20.851379816146263
 10
32.8779104879926
 20
18.60848928938097
 10
27.823054442490225
 20
20.83156421655663
 10
34.239311147199025
 20
28.8789347891123
  0
LWPOLYLINE
  5
40
330
17
100
AcDbEntity
  8
C
100
AcDbPolyline
 90
14
 70
1
 10
25.93621877627772
 20
48.827945053240725
 10
28.121863247335455
 20
46.585087910383514
 10
26.737720367576046
 20
45.16471291998103
 10
33.69837154929023
 20
39.45042720569547
 10
31.472079830393795
 20
37.16585880954049
 10
20.325517687210137
 20
45.74461447595412
 10
14.747476489397116
 20
41.451573095254936
 10
12.568801387324413
 20
43.68727843496289
 10
12.568801387324413
 20
46.62575452866125
 10
16.14912697818216
 20
50.29980075692087
 10
18.933387450867478
 20
47.44265789977797
 10
21.717647923552796
 20
50.29980075692087
 10
23.151958303591513
 20
48.827945053240725
 10
25.93621877627772
 20
48.827945053240725
  0
LWPOLYLINE
  5
41
330
17
100
AcDbEntity
  8
C
100
AcDbPolyline
 90
5
 70
1
 10
25.025713223771895
 20
30.83731699730352
 10
28.67829910526698
 20
34.58551504263529
 10
32.29825395636343
 20
30.870802196097948
 10
30.093650015307283
 20
28.608489289380977
 10
25.025713223771895
 20
30.83731699730352
  0
LWPOLYLINE
  5
42
330
17
100
AcDbEntity
  8
C
100
AcDbPolyline
 90
6
 70
1
 10
23.098808260979986
 20
77.43140084655442
 10
28.061298200150908
 20
73.79397877794491
 10
29.487694062539482
 20
70.86651075570849
 10
27.29888978862771
 20
67.12301132486532
 10
20.888407567726475
 20
75.16313944856012
 10
23.098808260979986
 20
77.43140084655442
  0
LWPOLYLINE
  5
43
330
17
100
AcDbEntity
  8
C
100
AcDbPolyline
 90
5
 70
1
 10
21.737686339431406
 20
57.463220852618456
 10
23.93060363912536
 20
53.71268693730369
 10
20.305479271331528
 20
49.99266925386281
 10
18.112561971637575
 20
53.743203169177576
 10
21.737686339431406
 20
57.463220852618456
  0
LWPOLYLINE
  5
44
330
17
100
AcDbEntity
  8
C
100
AcDbPolyline
 90
9
 70
1
 10
22.55334230196393
 20
19.442230767526382
 10
23.945472538307477
 20
18.013659338955044
 10
18.933387450867478
 20
12.87037506384614
 10
16.705562836112797
 20
15.156516481812154
 10
20.881953545141663
 20
19.442230767526382
 10
19.489823308799004
 20
20.870802196097713
 10
21.717647923552796
 20
23.156943614063728
 10
23.945472538307477
 20
20.870802196097713
 10
22.55334230196393
 20
19.442230767526382
  0
LWPOLYLINE
  5
45
330
17
100
AcDbEntity
  8
C
100
AcDbPolyline
 90
5
 70
1
 10
20.325517687210137
 20
33.156943614063735
 10
22.55334230196393
 20
30.870802196097948
 10
20.325517687210137
 20
28.584660778131934
 10
18.097693072455456
 20
30.870802196097948
 10
20.325517687210137
 20
33.156943614063735
  0
LWPOLYLINE
  5
46
330
17
100
AcDbEntity
  8
C
100
AcDbPolyline
 90
5
 70
1
 10
21.16121206562127
 20
38.013659338955065
 10
17.54125721452482
 20
34.29894649241771
 10
15.313432599770138
 20
36.58508791038351
 10
18.933387450867478
 20
40.29980075692086
 10
21.16121206562127
 20
38.013659338955065
  0
LWPOLYLINE
  5
47
330
17
100
AcDbEntity
  8
C
100
AcDbPolyline
 90
5
 70
1
 10
16.1333831900361
 20
67.4265019932867
 10
19.78824535619328
 20
65.17618164409811
 10
17.557001002669992
 20
62.886530970337475
 10
13.902138836512812
 20
65.13685131952629
 10
16.1333831900361
 20
67.4265019932867
  0
LWPOLYLINE
  5
48
330
17
100
AcDbEntity
  8
C
100
AcDbPolyline
 90
5
 70
1
 10
16.14912697818216
 20
24.298946492417485
 10
13.921302363427479
 20
26.5850879103835
 10
16.14912697818216
 20
28.871229328349514
 10
18.376951592935953
 20
26.5850879103835
 10
16.14912697818216
 20
24.298946492417485
  0
LWPOLYLINE
  5
49
330
17
100
AcDbEntity
  8
C
100
AcDbPolyline
 90
15
 70
1
 10
11.972736269153295
 20
31.441803635274823
 10
10.580606032810635
 20
30.013232206703265
 10
6.960651181713295
 20
33.72794505324062
 10
8.352781418055955
 20
35.156516481812176
 10
6.404215323782658
 20
37.15608934956038
 10
3.6070601825644033
 20
34.28571428571425
 10
0.010376874841178108
 20
39.45287927334107
 10
2.2077569482457093
 20
41.707779216340946
 10
4.9920174209310275
 20
40.27920778776939
 10
7.796345560125317
 20
43.15694361406375
 10
10.02417017487911
 20
40.870802196097735
 10
8.632039938536451
 20
39.4422307675264
 10
16.984821356593294
 20
30.870802196097948
 10
14.756996741838613
 20
28.584660778131934
 10
11.972736269153295
 20
31.441803635274823
  0
LWPOLYLINE
  5
4A
330
17
100
AcDbEntity
  8
C
100
AcDbPolyline
 90
5
 70
1
 10
14.200560883907976
 20
53.72794505324063
 10
11.972736269153295
 20
51.44180363527484
 10
9.744911654399502
 20
53.72794505324063
 10
11.972736269153295
 20
56.014086471206646
 10
14.200560883907976
 20
53.72794505324063
  0
LWPOLYLINE
  5
4B
330
17
100
AcDbEntity
  8
C
100
AcDbPolyline
 90
8
 70
1
 10
2.784260472685318
 20
29.44223076752639
 10
0.0
 20
32.29937362466928
 10
2.2340341138704645
 20
34.59188708512939
 10
10.018743902309168
 20
25.150948168047194
 10
7.82756511029703
 20
22.902411834706093
 10
2.1757920311333834
 20
24.35234111051754
 10
0.0
 20
26.5850879103835
 10
2.784260472685318
 20
29.44223076752639
  0
LWPOLYLINE
  5
4C
330
17
100
AcDbEntity
  8
C
100
AcDbPolyline
 90
6
 70
1
 10
4.969904943743053
 20
20.256516481812035
 10
7.838525703821375
 20
20.256516481812035
 10
10.02417017487911
 20
18.013659338955044
 10
7.819566233822961
 20
15.751346432238078
 10
2.751629442286685
 20
17.98017414016062
 10
4.969904943743053
 20
20.256516481812035
  0
ENDSEC
  0
SECTION
  2
OBJECTS
  0
DICTIONARY
  5
A
330
0
100
AcDbDictionary
281
1
  3
ACAD_COLOR
350
B
  3
ACAD_GROUP
350
C
  3
ACAD_LAYOUT
350
D
  3
ACAD_MATERIAL
350
E
  3
ACAD_MLEADERSTYLE
350
F
  3
ACAD_MLINESTYLE
350
10
  3
ACAD_PLOTSETTINGS
350
11
  3
ACAD_PLOTSTYLENAME
350
12
  3
ACAD_SCALELIST
350
14
  3
ACAD_TABLESTYLE
350
15
  3
ACAD_VISUALSTYLE
350
16
  3
EZDXF_META
350
2D
  0
DICTIONARY
  5
B
330
A
100
AcDbDictionary
281
1
  0
DICTIONARY
  5
C
330
A
100
AcDbDictionary
281
1
  0
DICTIONARY
  5
D
330
A
100
AcDbDictionary
281
1
  3
Model
350
1A
  3
Layout1
350
1E
  0
DICTIONARY
  5
E
330
A
100
AcDbDictionary
281
1
  3
ByBlock
350
1F
  3
ByLayer
350
20
  3
Global
350
21
  0
DICTIONARY
  5
F
330
A
100
AcDbDictionary
281
1
  3
Standard
350
2C
  0
DICTIONARY
  5
10
330
A
100
AcDbDictionary
281
1
  3
Standard
350
22
  0
DICTIONARY
  5
11
330
A
100
AcDbDictionary
281
1
  0
ACDBDICTIONARYWDFLT
  5
12
330
A
100
AcDbDictionary
281
1
  3
Normal
350
13
100
AcDbDictionaryWithDefault
340
13
  0
ACDBPLACEHOLDER
  5
13
330
12
  0
DICTIONARY
  5
14
330
A
100
AcDbDictionary
281
1
  0
DICTIONARY
  5
15
330
A
100
AcDbDictionary
281
1
  0
DICTIONARY
  5
16
330
A
100
AcDbDictionary
281
1
  0
LAYOUT
  5
1A
330
D
100
AcDbPlotSettings
  1

  4
A3
  6

 40
7.5
 41
20.0
 42
7.5
 43
20.0
 44
420.0
 45
297.0
 46
0.0
 47
0.0
 48
0.0
 49
0.0
140
0.0
141
0.0
142
1.0
143
1.0
 70
1024
 72
1
 73
0
 74
5
  7

 75
16
 76
0
 77
2
 78
300
147
1.0
148
0.0
149
0.0
100
AcDbLayout
  1
Model
 70
1
 71
0
 10
0.0
 20
0.0
 11
420.0
 21
297.0
 12
0.0
 22
0.0
 32
0.0
 14
1e+20
 24
1e+20
 34
1e+20
 15
-1e+20
 25
-1e+20
 35
-1e+20
146
0.0
 13
0.0
 23
0.0
 33
0.0
 16
1.0
 26
0.0
 36
0.0
 17
0.0
 27
1.0
 37
0.0
 76
1
330
17
  0
LAYOUT
  5
1E
330
D
100
AcDbPlotSettings
  1

  4
A3
  6

 40
7.5
 41
20.0
 42
7.5
 43
20.0
 44
420.0
 45
297.0
 46
0.0
 47
0.0
 48
0.0
 49
0.0
140
0.0
141
0.0
142
1.0
143
1.0
 70
0
 72
1
 73
0
 74
5
  7

 75
16
 76
0
 77
2
 78
300
147
1.0
148
0.0
149
0.0
100
AcDbLayout
  1
Layout1
 70
1
 71
1
 10
0.0
 20
0.0
 11
420.0
 21
297.0
 12
0.0
 22
0.0
 32
0.0
 14
1e+20
 24
1e+20
 34
1e+20
 15
-1e+20
 25
-1e+20
 35
-1e+20
146
0.0
 13
0.0
 23
0.0
 33
0.0
 16
1.0
 26
0.0
 36
0.0
 17
0.0
 27
1.0
 37
0.0
 76
1
330
1B
  0
MATERIAL
  5
1F
102
{ACAD_REACTORS
330
E
102
}
330
E
100
AcDbMaterial
  1
ByBlock
  2

 70
0
 40
1.0
 71
1
 41
1.0
 91
-1023410177
 42
1.0
 72
1
  3

 73
1
 74
1
 75
1
 44
0.5
 73
0
 45
1.0
 46
1.0
 77
1
  4

 78
1
 79
1
170
1
 48
1.0
171
1
  6

172
1
173
1
174
1
140
1.0
141
1.0
175
1
  7

176
1
177
1
178
1
143
1.0
179
1
  8

270
1
271
1
272
1
145
1.0
146
1.0
273
1
  9

274
1
275
1
276
1
 42
1.0
 72
1
  3

 73
1
 74
1
 75
1
 94
63
  0
MATERIAL
  5
20
102
{ACAD_REACTORS
330
E
102
}
330
E
100
AcDbMaterial
  1
ByLayer
  2

 70
0
 40
1.0
 71
1
 41
1.0
 91
-1023410177
 42
1.0
 72
1
  3

 73
1
 74
1
 75
1
 44
0.5
 73
0
 45
1.0
 46
1.0
 77
1
  4

 78
1
 79
1
170
1
 48
1.0
171
1
  6

172
1
173
1
174
1
140
1.0
141
1.0
175
1
  7

176
1
177
1
178
1
143
1.0
179
1
  8

270
1
271
1
272
1
145
1.0
146
1.0
273
1
  9

274
1
275
1
276
1
 42
1.0
 72
1
  3

 73
1
 74
1
 75
1
 94
63
  0
MATERIAL
  5
21
102
{ACAD_REACTORS
330
E
102
}
330
E
100
AcDbMaterial
  1
Global
  2

 70
0
 40
1.0
 71
1
 41
1.0
 91
-1023410177
 42
1.0
 72
1
  3

 73
1
 74
1
 75
1
 44
0.5
 73
0
 45
1.0
 46
1.0
 77
1
  4

 78
1
 79
1
170
1
 48
1.0
171
1
  6

172
1
173
1
174
1
140
1.0
141
1.0
175
1
  7

176
1
177
1
178
1
143
1.0
179
1
  8

270
1
271
1
272
1
145
1.0
146
1.0
273
1
  9

274
1
275
1
276
1
 42
1.0
 72
1
  3

 73
1
 74
1
 75
1
 94
63
  0
MLINESTYLE
  5
22
102
{ACAD_REACTORS
330
10
102
}
330
10
100
AcDbMlineStyle
  2
Standard
 70
0
  3

 62
256
 51
90.0
 52
90.0
 71
2
 49
0.5
 62
256
  6
BYLAYER
 49
-0.5
 62
256
  6
BYLAYER
  0
MLEADERSTYLE
  5
2C
102
{ACAD_REACTORS
330
F
102
}
330
F
100
AcDbMLeaderStyle
179
2
170
2
171
1
172
0
 90
2
 40
0.0
 41
0.0
173
1
 91
-1056964608
 92
-2
290
1
 42
2.0
291
1
 43
8.0
  3
Standard
 44
4.0
300

342
29
174
1
175
1
176
0
178
1
 93
-1056964608
 45
4.0
292
0
297
0
 46
4.0
 94
-1056964608
 47
1.0
 49
1.0
140
1.0
294
1
141
0.0
177
0
142
1.0
295
0
296
0
143
3.75
271
0
272
9
273
9
  0
DICTIONARY
  5
2D
330
A
100
AcDbDictionary
280
1
281
1
  3
CREATED_BY_EZDXF
350
2E
  3
WRITTEN_BY_EZDXF
350
4F
  0
DICTIONARYVAR
  5
2E
330
2D
100
DictionaryVariables
280
0
  1
1.4.4 @ 2026-07-24T15:29:10.158954+00:00
  0
DICTIONARYVAR
  5
4F
330
2D
100
DictionaryVariables
280
0
  1
1.4.4 @ 2026-07-24T15:29:10.161301+00:00
  0
ENDSEC
  0
EOF
