  0
SECTION
  2
HEADER
  9
$ACADVER
  1
AC1027
  9
$ACADMAINTVER
 70
105
  9
$DWGCODEPAGE
  3
ANSI_1252
  9
$LASTSAVEDBY
  1
ezdxf
  9
$REQUIREDVERSIONS
160
0
  9
$INSBASE
 10
0.0
 20
0.0
 30
0.0
  9
$EXTMIN
 10
1e+20
 20
1e+20
 30
1e+20
  9
$EXTMAX
 10
-1e+20
 20
-1e+20
 30
-1e+20
  9
$LIMMIN
 10
0.0
 20
0.0
  9
$LIMMAX
 10
420.0
 20
297.0
  9
$ORTHOMODE
 70
0
  9
$REGENMODE
 70
1
  9
$FILLMODE
 70
1
  9
$QTEXTMODE
 70
0
  9
$MIRRTEXT
 70
1
  9
$LTSCALE
 40
1.0
  9
$ATTMODE
 70
1
  9
$TEXTSIZE
 40
2.5
  9
$TRACEWID
 40
1.0
  9
$TEXTSTYLE
  7
Standard
  9
$CLAYER
  8
0
  9
$CELTYPE
  6
ByLayer
  9
$CECOLOR
 62
256
  9
$CELTSCALE
 40
1.0
  9
$DISPSILH
 70
0
  9
$DIMSCALE
 40
1.0
  9
$DIMASZ
 40
2.5
  9
$DIMEXO
 40
0.625
  9
$DIMDLI
 40
3.75
  9
$DIMRND
 40
0.0
  9
$DIMDLE
 40
0.0
  9
$DIMEXE
 40
1.25
  9
$DIMTP
 40
0.0
  9
$DIMTM
 40
0.0
  9
$DIMTXT
 40
2.5
  9
$DIMCEN
 40
2.5
  9
$DIMTSZ
 40
0.0
  9
$DIMTOL
 70
0
  9
$DIMLIM
 70
0
  9
$DIMTIH
 70
0
  9
$DIMTOH
 70
0
  9
$DIMSE1
 70
0
  9
$DIMSE2
 70
0
  9
$DIMTAD
 70
1
  9
$DIMZIN
 70
8
  9
$DIMBLK
  1

  9
$DIMASO
 70
1
  9
$DIMSHO
 70
1
  9
$DIMPOST
  1

  9
$DIMAPOST
  1

  9
$DIMALT
 70
0
  9
$DIMALTD
 70
3
  9
$DIMALTF
 40
0.03937007874
  9
$DIMLFAC
 40
1.0
  9
$DIMTOFL
 70
1
  9
$DIMTVP
 40
0.0
  9
$DIMTIX
 70
0
  9
$DIMSOXD
 70
0
  9
$DIMSAH
 70
0
  9
$DIMBLK1
  1

  9
$DIMBLK2
  1

  9
$DIMSTYLE
  2
ISO-25
  9
$DIMCLRD
 70
0
  9
$DIMCLRE
 70
0
  9
$DIMCLRT
 70
0
  9
$DIMTFAC
 40
1.0
  9
$DIMGAP
 40
0.625
  9
$DIMJUST
 70
0
  9
$DIMSD1
 70
0
  9
$DIMSD2
 70
0
  9
$DIMTOLJ
 70
0
  9
$DIMTZIN
 70
8
  9
$DIMALTZ
 70
0
  9
$DIMALTTZ
 70
0
  9
$DIMUPT
 70
0
  9
$DIMDEC
 70
2
  9
$DIMTDEC
 70
2
  9
$DIMALTU
 70
2
  9
$DIMALTTD
 70
3
  9
$DIMTXSTY
  7
Standard
  9
$DIMAUNIT
 70
0
  9
$DIMADEC
 70
0
  9
$DIMALTRND
 40
0.0
  9
$DIMAZIN
 70
0
  9
$DIMDSEP
 70
44
  9
$DIMATFIT
 70
3
  9
$DIMFRAC
 70
0
  9
$DIMLDRBLK
  1

  9
$DIMLUNIT
 70
2
  9
$DIMLWD
 70
-2
  9
$DIMLWE
 70
-2
  9
$DIMTMOVE
 70
0
  9
$DIMFXL
 40
1.0
  9
$DIMFXLON
 70
0
  9
$DIMJOGANG
 40
0.785398163397
  9
$DIMTFILL
 70
0
  9
$DIMTFILLCLR
 70
0
  9
$DIMARCSYM
 70
0
  9
$DIMLTYPE
  6

  9
$DIMLTEX1
  6

  9
$DIMLTEX2
  6

  9
$DIMTXTDIRECTION
 70
0
  9
$LUNITS
 70
2
  9
$LUPREC
 70
4
  9
$SKETCHINC
 40
1.0
  9
$FILLETRAD
 40
10.0
  9
$AUNITS
 70
0
  9
$AUPREC
 70
2
  9
$MENU
  1
.
  9
$ELEVATION
 40
0.0
  9
$PELEVATION
 40
0.0
  9
$THICKNESS
 40
0.0
  9
$LIMCHECK
 70
0
  9
$CHAMFERA
 40
0.0
  9
$CHAMFERB
 40
0.0
  9
$CHAMFERC
 40
0.0
  9
$CHAMFERD
 40
0.0
  9
$SKPOLY
 70
0
  9
$TDCREATE
 40
2461245.8428587965
  9
$TDUCREATE
 40
2458532.153996898
  9
$TDUPDATE
 40
2461245.8428587965
  9
$TDUUPDATE
 40
2458532.1544311
  9
$TDINDWG
 40
0.0
  9
$TDUSRTIMER
 40
0.0
  9
$USRTIMER
 70
1
  9
$ANGBASE
 50
0.0
  9
$ANGDIR
 70
0
  9
$PDMODE
 70
0
  9
$PDSIZE
 40
0.0
  9
$PLINEWID
 40
0.0
  9
$SPLFRAME
 70
0
  9
$SPLINETYPE
 70
6
  9
$SPLINESEGS
 70
8
  9
$HANDSEED
  5
7D
  9
$SURFTAB1
 70
6
  9
$SURFTAB2
 70
6
  9
$SURFTYPE
 70
6
  9
$SURFU
 70
6
  9
$SURFV
 70
6
  9
$UCSBASE
  2

  9
$UCSNAME
  2

  9
$UCSORG
 10
0.0
 20
0.0
 30
0.0
  9
$UCSXDIR
 10
1.0
 20
0.0
 30
0.0
  9
$UCSYDIR
 10
0.0
 20
1.0
 30
0.0
  9
$UCSORTHOREF
  2

  9
$UCSORTHOVIEW
 70
0
  9
$UCSORGTOP
 10
0.0
 20
0.0
 30
0.0
  9
$UCSORGBOTTOM
 10
0.0
 20
0.0
 30
0.0
  9
$UCSORGLEFT
 10
0.0
 20
0.0
 30
0.0
  9
$UCSORGRIGHT
 10
0.0
 20
0.0
 30
0.0
  9
$UCSORGFRONT
 10
0.0
 20
0.0
 30
0.0
  9
$UCSORGBACK
 10
0.0
 20
0.0
 30
0.0
  9
$PUCSBASE
  2

  9
$PUCSNAME
  2

  9
$PUCSORG
 10
0.0
 20
0.0
 30
0.0
  9
$PUCSXDIR
 10
1.0
 20
0.0
 30
0.0
  9
$PUCSYDIR
 10
0.0
 20
1.0
 30
0.0
  9
$PUCSORTHOREF
  2

  9
$PUCSORTHOVIEW
 70
0
  9
$PUCSORGTOP
 10
0.0
 20
0.0
 30
0.0
  9
$PUCSORGBOTTOM
 10
0.0
 20
0.0
 30
0.0
  9
$PUCSORGLEFT
 10
0.0
 20
0.0
 30
0.0
  9
$PUCSORGRIGHT
 10
0.0
 20
0.0
 30
0.0
  9
$PUCSORGFRONT
 10
0.0
 20
0.0
 30
0.0
  9
$PUCSORGBACK
 10
0.0
 20
0.0
 30
0.0
  9
$USERI1
 70
0
  9
$USERI2
 70
0
  9
$USERI3
 70
0
  9
$USERI4
 70
0
  9
$USERI5
 70
0
  9
$USERR1
 40
0.0
  9
$USERR2
 40
0.0
  9
$USERR3
 40
0.0
  9
$USERR4
 40
0.0
  9
$USERR5
 40
0.0
  9
$WORLDVIEW
 70
1
  9
$SHADEDGE
 70
3
  9
$SHADEDIF
 70
70
  9
$TILEMODE
 70
1
  9
$MAXACTVP
 70
64
  9
$PINSBASE
 10
0.0
 20
0.0
 30
0.0
  9
$PLIMCHECK
 70
0
  9
$PEXTMIN
 10
1e+20
 20
1e+20
 30
1e+20
  9
$PEXTMAX
 10
-1e+20
 20
-1e+20
 30
-1e+20
  9
$PLIMMIN
 10
0.0
 20
0.0
  9
$PLIMMAX
 10
420.0
 20
297.0
  9
$UNITMODE
 70
0
  9
$VISRETAIN
 70
1
  9
$PLINEGEN
 70
0
  9
$PSLTSCALE
 70
1
  9
$TREEDEPTH
 70
3020
  9
$CMLSTYLE
  2
Standard
  9
$CMLJUST
 70
0
  9
$CMLSCALE
 40
20.0
  9
$PROXYGRAPHICS
 70
1
  9
$MEASUREMENT
 70
1
  9
$CELWEIGHT
370
-1
  9
$ENDCAPS
280
0
  9
$JOINSTYLE
280
0
  9
$LWDISPLAY
290
0
  9
$INSUNITS
 70
4
  9
$HYPERLINKBASE
  1

  9
$STYLESHEET
  1

  9
$XEDIT
290
1
  9
$CEPSNTYPE
380
0
  9
$PSTYLEMODE
290
1
  9
$FINGERPRINTGUID
  2
{6F7350E3-305B-4159-A739-9AC0B0FF875E}
  9
$VERSIONGUID
  2
{22A7BF32-175C-4F34-A35A-981F32825A1F}
  9
$EXTNAMES
290
1
  9
$PSVPSCALE
 40
0.0
  9
$OLESTARTUP
290
0
  9
$SORTENTS
280
127
  9
$INDEXCTL
280
0
  9
$HIDETEXT
280
1
  9
$XCLIPFRAME
280
1
  9
$HALOGAP
280
0
  9
$OBSCOLOR
 70
257
  9
$OBSLTYPE
280
0
  9
$INTERSECTIONDISPLAY
280
0
  9
$INTERSECTIONCOLOR
 70
257
  9
$DIMASSOC
280
2
  9
$PROJECTNAME
  1

  9
$CAMERADISPLAY
290
0
  9
$LENSLENGTH
 40
50.0
  9
$CAMERAHEIGHT
 40
0.0
  9
$STEPSPERSEC
 40
24.0
  9
$STEPSIZE
 40
100.0
  9
$3DDWFPREC
 40
2.0
  9
$PSOLWIDTH
 40
0.005
  9
$PSOLHEIGHT
 40
0.08
  9
$LOFTANG1
 40
1.570796326795
  9
$LOFTANG2
 40
1.570796326795
  9
$LOFTMAG1
 40
0.0
  9
$LOFTMAG2
 40
0.0
  9
$LOFTPARAM
 70
7
  9
$LOFTNORMALS
280
1
  9
$LATITUDE
 40
37.795
  9
$LONGITUDE
 40
-122.394
  9
$NORTHDIRECTION
 40
0.0
  9
$TIMEZONE
 70
-8000
  9
$LIGHTGLYPHDISPLAY
280
1
  9
$TILEMODELIGHTSYNCH
280
1
  9
$CMATERIAL
347
20
  9
$SOLIDHIST
280
0
  9
$SHOWHIST
280
1
  9
$DWFFRAME
280
2
  9
$DGNFRAME
280
2
  9
$REALWORLDSCALE
290
1
  9
$INTERFERECOLOR
 62
256
  9
$CSHADOW
280
0
  9
$SHADOWPLANELOCATION
 40
0.0
  0
ENDSEC
  0
SECTION
  2
CLASSES
  0
CLASS
  1
ACDBDICTIONARYWDFLT
  2
AcDbDictionaryWithDefault
  3
ObjectDBX Classes
 90
0
 91
0
280
0
281
0
  0
CLASS
  1
SUN
  2
AcDbSun
  3
SCENEOE
 90
1153
 91
0
280
0
281
0
  0
CLASS
  1
VISUALSTYLE
  2
AcDbVisualStyle
  3
ObjectDBX Classes
 90
4095
 91
0
280
0
281
0
  0
CLASS
  1
MATERIAL
  2
AcDbMaterial
  3
ObjectDBX Classes
 90
1153
 91
0
280
0
281
0
  0
CLASS
  1
SCALE
  2
AcDbScale
  3
ObjectDBX Classes
 90
1153
 91
0
280
0
281
0
  0
CLASS
  1
TABLESTYLE
  2
AcDbTableStyle
  3
ObjectDBX Classes
 90
4095
 91
0
280
0
281
0
  0
CLASS
  1
MLEADERSTYLE
  2
AcDbMLeaderStyle
  3
ACDB_MLEADERSTYLE_CLASS
 90
4095
 91
0
280
0
281
0
  0
CLASS
  1
DICTIONARYVAR
  2
AcDbDictionaryVar
  3
ObjectDBX Classes
 90
0
 91
0
280
0
281
0
  0
CLASS
  1
CELLSTYLEMAP
  2
AcDbCellStyleMap
  3
ObjectDBX Classes
 90
1152
 91
0
280
0
281
0
  0
CLASS
  1
MENTALRAYRENDERSETTINGS
  2
AcDbMentalRayRenderSettings
  3
SCENEOE
 90
1024
 91
0
280
0
281
0
  0
CLASS
  1
ACDBDETAILVIEWSTYLE
  2
AcDbDetailViewStyle
  3
ObjectDBX Classes
 90
1025
 91
0
280
0
281
0
  0
CLASS
  1
ACDBSECTIONVIEWSTYLE
  2
AcDbSectionViewStyle
  3
ObjectDBX Classes
 90
1025
 91
0
280
0
281
0
  0
CLASS
  1
RASTERVARIABLES
  2
AcDbRasterVariables
  3
ISM
 90
0
 91
0
280
0
281
0
  0
CLASS
  1
LAYOUT
  2
AcDbLayout
  3
ObjectDBX Classes
 90
0
 91
0
280
0
281
0
  0
CLASS
  1
ACDBPLACEHOLDER
  2
AcDbPlaceHolder
  3
ObjectDBX Classes
 90
0
 91
0
280
0
281
0
  0
ENDSEC
  0
SECTION
  2
TABLES
  0
TABLE
  2
VPORT
  5
8
330
0
100
AcDbSymbolTable
 70
1
  0
VPORT
  5
23
330
8
100
AcDbSymbolTableRecord
100
AcDbViewportTableRecord
  2
*Active
 70
0
 10
0.0
 20
0.0
 11
1.0
 21
1.0
 12
0.0
 22
0.0
 13
0.0
 23
0.0
 14
0.5
 24
0.5
 15
0.5
 25
0.5
 16
0.0
 26
0.0
 36
1.0
 17
0.0
 27
0.0
 37
0.0
 40
1000.0
 41
1.34
 42
50.0
 43
0.0
 44
0.0
 50
0.0
 51
0.0
 71
0
 72
1000
 73
1
 74
3
 75
0
 76
0
 77
0
 78
0
281
0
 65
0
146
0.0
  0
ENDTAB
  0
TABLE
  2
LTYPE
  5
2
330
0
100
AcDbSymbolTable
 70
3
  0
LTYPE
  5
24
330
2
100
AcDbSymbolTableRecord
100
AcDbLinetypeTableRecord
  2
ByBlock
 70
0
  3

 72
65
 73
0
 40
0.0
  0
LTYPE
  5
25
330
2
100
AcDbSymbolTableRecord
100
AcDbLinetypeTableRecord
  2
ByLayer
 70
0
  3

 72
65
 73
0
 40
0.0
  0
LTYPE
  5
26
330
2
100
AcDbSymbolTableRecord
100
AcDbLinetypeTableRecord
  2
Continuous
 70
0
  3

 72
65
 73
0
 40
0.0
  0
ENDTAB
  0
TABLE
  2
LAYER
  5
1
330
0
100
AcDbSymbolTable
 70
3
  0
LAYER
  5
27
330
1
100
AcDbSymbolTableRecord
100
AcDbLayerTableRecord
  2
0
 70
0
 62
7
  6
Continuous
370
-3
390
13
347
21
  0
LAYER
  5
28
330
1
100
AcDbSymbolTableRecord
100
AcDbLayerTableRecord
  2
Defpoints
 70
0
 62
7
  6
Continuous
290
0
370
-3
390
13
347
21
  0
LAYER
  5
2F
330
1
100
AcDbSymbolTableRecord
100
AcDbLayerTableRecord
  2
K
 70
0
 62
7
  6
Continuous
370
-3
390
13
347
21
  0
ENDTAB
  0
TABLE
  2
STYLE
  5
5
330
0
100
AcDbSymbolTable
 70
1
  0
STYLE
  5
29
330
5
100
AcDbSymbolTableRecord
100
AcDbTextStyleTableRecord
  2
Standard
 70
0
 40
0.0
 41
1.0
 50
0.0
 71
0
 42
2.5
  3
txt
  4

  0
ENDTAB
  0
TABLE
  2
VIEW
  5
7
330
0
100
AcDbSymbolTable
 70
0
  0
ENDTAB
  0
TABLE
  2
UCS
  5
6
330
0
100
AcDbSymbolTable
 70
0
  0
ENDTAB
  0
TABLE
  2
APPID
  5
3
330
0
100
AcDbSymbolTable
 70
3
  0
APPID
  5
2A
330
3
100
AcDbSymbolTableRecord
100
AcDbRegAppTableRecord
  2
ACAD
 70
0
  0
APPID
  5
7A
330
3
100
AcDbSymbolTableRecord
100
AcDbRegAppTableRecord
  2
HATCHBACKGROUNDCOLOR
 70
0
  0
APPID
  5
7B
330
3
100
AcDbSymbolTableRecord
100
AcDbRegAppTableRecord
  2
EZDXF
 70
0
  0
ENDTAB
  0
TABLE
  2
DIMSTYLE
  5
4
330
0
100
AcDbSymbolTable
 70
1
100
AcDbDimStyleTable
  0
DIMSTYLE
105
2B
330
4
100
AcDbSymbolTableRecord
100
AcDbDimStyleTableRecord
  2
Standard
 70
0
 40
1.0
 41
2.5
 42
0.625
 43
3.75
 44
1.25
 45
0.0
 46
0.0
 47
0.0
 48
0.0
 49
2.5
140
2.5
141
2.5
142
0.0
143
0.03937007874
144
1.0
145
0.0
146
1.0
147
0.625
148
0.0
 69
0
 70
0
 71
0
 72
0
 73
0
 74
0
 75
0
 76
0
 77
1
 78
8
 79
3
170
0
171
3
172
1
173
0
174
0
175
0
176
0
177
0
178
0
179
2
271
2
272
2
273
2
274
3
275
0
276
0
277
2
278
44
279
0
280
0
281
0
282
0
283
0
284
8
285
0
286
0
288
0
289
3
290
0
371
-2
372
-2
  0
ENDTAB
  0
TABLE
  2
BLOCK_RECORD
  5
9
330
0
100
AcDbSymbolTable
 70
2
  0
BLOCK_RECORD
  5
17
330
9
100
AcDbSymbolTableRecord
100
AcDbBlockTableRecord
  2
*Model_Space
340
1A
 70
0
280
1
281
0
  0
BLOCK_RECORD
  5
1B
330
9
100
AcDbSymbolTableRecord
100
AcDbBlockTableRecord
  2
*Paper_Space
340
1E
 70
0
280
1
281
0
  0
ENDTAB
  0
ENDSEC
  0
SECTION
  2
BLOCKS
  0
BLOCK
  5
18
330
17
100
AcDbEntity
  8
0
100
AcDbBlockBegin
  2
*Model_Space
 70
0
 10
0.0
 20
0.0
 30
0.0
  3
*Model_Space
  1

  0
ENDBLK
  5
19
330
17
100
AcDbEntity
  8
0
100
AcDbBlockEnd
  0
BLOCK
  5
1C
330
1B
100
AcDbEntity
  8
0
100
AcDbBlockBegin
  2
*Paper_Space
 70
0
 10
0.0
 20
0.0
 30
0.0
  3
*Paper_Space
  1

  0
ENDBLK
  5
1D
330
1B
100
AcDbEntity
  8
0
100
AcDbBlockEnd
  0
ENDSEC
  0
SECTION
  2
ENTITIES
  0
LWPOLYLINE
  5
30
330
17
100
AcDbEntity
  8
K
100
AcDbPolyline
 90
90
 70
1
 10
246.45879466613215
 20
0.715493421166169
 10
242.20161350807138
 20
5.059776253258486
 10
242.20161350807138
 20
7.916919110401377
 10
240.80168454310362
 20
9.345490538972822
 10
240.80168454310362
 20
26.48834768182995
 10
238.00182661316813
 20
29.345490538972953
 10
238.00182661316813
 20
40.84768705904551
 10
242.19798859657774
 20
46.55704067070765
 10
240.80602098184502
 20
59.34106537695194
 10
238.00616305190954
 20
62.19820823409461
 10
236.6053957563689
 20
75.06305043613781
 10
232.37118978385476
 20
80.8241672036205
 10
233.8020397182649
 20
82.28429224283529
 10
233.8020397182649
 20
85.14143509997818
 10
236.61129162348584
 20
88.00816413258383
 10
238.0094425801245
 20
93.71519230177338
 10
242.20161350807138
 20
99.41911563047424
 10
242.20161350807138
 20
103.70482991618846
 10
246.40140040297456
 20
109.41911563047401
 10
246.40140040297456
 20
112.28429224283532
 10
247.7613185632732
 20
113.67203424804705
 10
238.00415090865647
 20
123.62883297425098
 10
236.6042219436887
 20
147.91454725996522
 10
233.8020397182649
 20
150.77406196754438
 10
233.8020397182649
 20
155.14143509997825
 10
236.00193316571645
 20
157.3863382369054
 10
237.44387790780561
 20
155.91489139090407
 10
240.2437358377411
 20
155.91489139090407
 10
243.05341412913592
 20
153.04772724828885
 10
248.65312998900694
 20
151.61915581971752
 10
252.84309652245085
 20
147.3434628194754
 10
255.62796504720498
 20
147.3434628194754
 10
265.43872355246543
 20
141.62261365234775
 10
271.05199342849085
 20
140.19058439114596
 10
273.86000932704746
 20
137.32511665382785
 10
282.23291775995807
 20
133.05300783237172
 10
289.2405519597793
 20
131.6228058363762
 10
299.04005471455343
 20
124.47994869351908
 10
306.03452172131904
 20
123.05243401613252
 10
315.82491054081794
 20
117.3434628194756
 10
318.628532591565
 20
117.3434628194756
 10
327.0369735244893
 20
111.62314472896307
 10
334.02842335704673
 20
110.19624583265907
 10
349.41824262505617
 20
103.05774853376137
 10
352.2299130690698
 20
103.05774853376137
 10
357.8368953861274
 20
98.7664729016946
 10
366.2335664944264
 20
97.33839515148968
 10
370.4259042953716
 20
94.4863199623327
 10
374.6369164746447
 20
94.4863199623327
 10
376.03684543961236
 20
93.05774853376114
 10
380.2186540044351
 20
93.05774853376114
 10
388.6182277942416
 20
88.77203424804692
 10
392.8359930192253
 20
88.77203424804692
 10
397.04328798121355
 20
84.47865828064027
 10
419.4317566369378
 20
80.19493289375457
 10
423.62320496414594
 20
77.34346281947558
 10
427.834217143419
 20
77.34346281947558
 10
429.2386916908817
 20
75.9102528060609
 10
441.83805237559136
 20
74.48168137748934
 10
443.9913844634267
 20
72.2842922428355
 10
443.9913844634267
 20
6.488347681829931
 10
441.83350679309643
 20
4.286319962332752
 10
416.5507538694342
 20
4.286319962332752
 10
412.99935942419677
 20
7.9103757273124575
 10
411.59820146981065
 20
16.48932910555523
 10
407.3994019888927
 20
22.20227133128516
 10
406.00092697619914
 20
29.337709973884518
 10
403.19344447936214
 20
32.20263339611584
 10
403.19344447936214
 20
36.497656192417516
 10
399.78075618257367
 20
41.373172568160086
 10
398.4424233923451
 20
40.007457568410175
 10
390.0323588988781
 20
38.57710191603281
 10
385.82512291001683
 20
35.71489139090423
 10
381.6253360151135
 20
35.71489139090423
 10
373.225762225307
 20
30.00060567661844
 10
370.35309802549864
 20
30.00060567661844
 10
368.2058407574719
 20
32.19179570101094
 10
365.4034596926279
 20
42.20080735435761
 10
359.1426834375647
 20
51.429177105189794
 10
343.8384792453543
 20
51.429177105189794
 10
342.4385502803865
 20
50.00060567661846
 10
331.2315030995918
 20
50.00060567661846
 10
319.3977065812973
 20
40.766082217049245
 10
319.3977065812973
 20
16.570006528549786
 10
320.79763554626504
 20
15.14143509997834
 10
320.79763554626504
 20
3.63120482468704
 10
318.6397578759348
 20
1.4291771051898605
 10
297.64082340141863
 20
1.4291771051898605
 10
296.24030090348185
 20
0.0
 10
246.45879466613215
 20
0.715493421166169
  0
LWPOLYLINE
  5
31
330
17
100
AcDbEntity
  8
K
100
AcDbPolyline
 90
32
 70
1
 10
21.770923682466165
 20
48.576726396689864
 10
14.017266743856698
 20
55.05042336922106
 10
12.616828695312886
 20
70.77042357686159
 10
9.813405323425616
 20
73.63120482468722
 10
9.813405323425616
 20
80.77406196754433
 10
1.4260372009855249
 20
89.33303514437574
 10
0.0
 20
93.69867665702536
 10
4.213689463554632
 20
97.99857795712109
 10
4.213689463554632
 20
102.2762584876169
 10
8.413476358457878
 20
107.99054420190268
 10
8.413476358457878
 20
110.85572081426398
 10
13.371211958723567
 20
115.91489139090405
 10
20.370856783562292
 20
115.91489139090405
 10
21.765690943242294
 20
117.33826377477374
 10
32.965122662984264
 20
118.76683520334508
 10
34.366043467489035
 20
120.19641876443154
 10
48.36533311716648
 20
121.6249901930031
 10
49.76936504788495
 20
123.05774853376138
 10
58.25297039193422
 20
123.05774853376138
 10
61.81077702723217
 20
119.42714938569266
 10
61.81077702723217
 20
100.85572081426398
 10
63.21070599219991
 20
99.42714938569264
 10
63.21070599219991
 20
90.85572081426396
 10
67.41049288710316
 20
86.57000652854974
 10
67.41049288710316
 20
76.57000652854973
 10
70.21035081703863
 20
73.71286367140684
 10
70.21035081703863
 20
50.774061967544306
 10
68.06740146859791
 20
48.58726800251723
 10
61.03043583903545
 20
45.714891390904235
 10
55.45311246199874
 20
45.714891390904235
 10
54.04757098946347
 20
44.280592623193286
 10
21.770923682466165
 20
48.576726396689864
  0
LWPOLYLINE
  5
32
330
17
100
AcDbEntity
  8
K
100
AcDbPolyline
 90
7
 70
1
 10
678.5310263588699
 20
29.372443815738116
 10
680.7752441038929
 20
31.672364296488674
 10
684.9993021061061
 20
27.343462819475526
 10
687.7872466258108
 20
27.343462819475526
 10
689.975783073779
 20
25.100605676618425
 10
687.7569688343643
 20
22.826719230649385
 10
678.5310263588699
 20
29.372443815738116
  0
LWPOLYLINE
  5
33
330
17
100
AcDbEntity
  8
K
100
AcDbPolyline
 90
5
 70
1
 10
664.604843834745
 20
35.10060567661832
 10
666.8355215053693
 20
37.38665001077446
 10
669.0661991759937
 20
35.10060567661832
 10
666.8355215053693
 20
32.81456134246241
 10
664.604843834745
 20
35.10060567661832
  0
LWPOLYLINE
  5
34
330
17
100
AcDbEntity
  8
K
100
AcDbPolyline
 90
28
 70
1
 10
645.8974796896091
 20
35.71710963431607
 10
640.3259196878939
 20
38.57203424804689
 10
636.1341411648739
 20
38.57203424804689
 10
630.5461589833836
 20
42.86704350921888
 10
620.781174925668
 20
45.726288196829444
 10
618.0043511878807
 20
48.572034248047125
 10
615.2164066681761
 20
48.572034248047125
 10
611.0164775462437
 20
52.876207952517575
 10
602.6526439871296
 20
57.161922238231796
 10
597.07675494772
 20
62.87620795251758
 10
588.7170436236082
 20
67.15980996264514
 10
580.3532100644941
 20
74.30266710550227
 10
577.5971679945379
 20
75.71489139090426
 10
569.20013206003
 20
75.71489139090426
 10
567.0444551423269
 20
79.39686142545344
 10
576.1578877709178
 20
90.17336116517605
 10
581.7651758012407
 20
94.48320919942165
 10
597.1776149288903
 20
95.91911687762433
 10
613.9090880297867
 20
77.34346281947558
 10
615.3006891134885
 20
77.34346281947558
 10
624.3962590357087
 20
68.02213578041827
 10
632.0579265017666
 20
57.3150889743641
 10
645.9580967472994
 20
47.34346281947555
 10
648.7380110075694
 20
47.34346281947555
 10
654.3461431516477
 20
44.46979826408048
 10
663.4962315666368
 20
36.53524550843778
 10
661.2978745691734
 20
34.28232406457133
 10
645.8974796896091
 20
35.71710963431607
  0
LWPOLYLINE
  5
35
330
17
100
AcDbEntity
  8
K
100
AcDbPolyline
 90
17
 70
1
 10
1613.001254754558
 20
44.30240677748909
 10
1609.3730274170878
 20
48.572034248047125
 10
1606.9450957315187
 20
48.572034248047125
 10
1602.611237672778
 20
53.672034248047005
 10
1605.7773818268333
 20
57.39789120201788
 10
1606.9913476696179
 20
55.96931977344654
 10
1611.8254554198243
 20
61.65800389551413
 10
1616.6767129113841
 20
58.803571093192005
 10
1625.6799044295167
 20
70.81098948795317
 10
1622.0346911573301
 20
75.10060567661836
 10
1626.41480115417
 20
80.25503405916079
 10
1631.9776474467003
 20
73.70878457258945
 10
1631.9776474467003
 20
47.91371315550275
 10
1626.4536559288913
 20
42.85774853376134
 10
1621.605189721131
 20
42.85774853376134
 10
1620.3749330047385
 20
41.41000632149683
 10
1613.001254754558
 20
44.30240677748909
  0
LWPOLYLINE
  5
36
330
17
100
AcDbEntity
  8
K
100
AcDbPolyline
 90
20
 70
1
 10
1566.930474857729
 20
30.255034059160746
 10
1568.1444407005135
 20
28.82646263058941
 10
1572.2620916031653
 20
33.67203424804699
 10
1569.8341599175965
 20
36.52917710518988
 10
1572.9661834298172
 20
40.21488155047281
 10
1577.8105959098098
 20
38.78967891848228
 10
1583.8697151101242
 20
48.772034248047106
 10
1585.1862144375957
 20
48.772034248047106
 10
1589.4804184446884
 20
43.718698365944554
 10
1591.925974153212
 20
33.64610973810378
 10
1588.8281119659493
 20
30.00060567661844
 10
1586.4001802803803
 20
30.00060567661844
 10
1585.1862144375957
 20
28.572034248047107
 10
1579.0428962721703
 20
28.572034248047107
 10
1576.6639572209367
 20
29.971778886294096
 10
1571.8080938497985
 20
24.257493172008427
 10
1569.3801621642297
 20
25.686064600579872
 10
1566.930474857729
 20
22.803320151218998
 10
1563.764330703674
 20
26.529177105189873
 10
1566.930474857729
 20
30.255034059160746
  0
LWPOLYLINE
  5
37
330
17
100
AcDbEntity
  8
K
100
AcDbPolyline
 90
7
 70
1
 10
1585.0937105613975
 20
20.20060567661841
 10
1587.6141461231648
 20
20.20060567661841
 10
1590.7340383391208
 20
16.529177105189863
 10
1587.6045025990236
 20
12.846400221829036
 10
1584.4780669571678
 20
13.582225971419671
 10
1581.9738183454415
 20
16.529177105189863
 10
1585.0937105613975
 20
20.20060567661841
  0
LWPOLYLINE
  5
38
330
17
100
AcDbEntity
  8
K
100
AcDbPolyline
 90
7
 70
1
 10
1555.9585303345696
 20
28.772034248047085
 10
1558.4789658963368
 20
28.772034248047085
 10
1561.5988581122929
 20
25.100605676618425
 10
1558.4852833840637
 20
21.436611402061434
 10
1554.1444064391221
 20
20.706860017922214
 10
1551.624672275829
 20
23.67203424804698
 10
1555.9585303345696
 20
28.772034248047085
  0
LWPOLYLINE
  5
39
330
17
100
AcDbEntity
  8
K
100
AcDbPolyline
 90
24
 70
1
 10
1378.7195172880315
 20
18.572034248046986
 10
1375.5996250720755
 20
22.243462819475646
 10
1378.7195172880315
 20
25.914891390904195
 10
1387.2362931122184
 20
25.914891390904195
 10
1389.6261949483967
 20
27.321086425363905
 10
1395.7346422142066
 20
34.50938854171937
 10
1401.8393394190718
 20
31.635832894734595
 10
1406.7211042520087
 20
33.0720244076157
 10
1409.1490359375775
 20
30.214881550472803
 10
1414.0048993087157
 20
31.64345297904414
 10
1416.3987103524503
 20
28.82646263058941
 10
1418.7717294170827
 20
31.618985381816955
 10
1424.9330796658994
 20
33.06909684569348
 10
1428.062615405997
 20
29.386319962332763
 10
1424.9533389883327
 20
25.727383856175233
 10
1420.0974756171947
 20
24.29881242760379
 10
1416.4449622905493
 20
20.000605676618434
 10
1414.0170306049804
 20
20.000605676618434
 10
1409.1611672338422
 20
14.286319962332762
 10
1406.7332355482733
 20
14.286319962332762
 10
1405.5133177659588
 20
12.850744406909364
 10
1395.7333230783645
 20
14.289357884516685
 10
1386.028480479115
 20
18.572034248046986
 10
1378.7195172880315
 20
18.572034248046986
  0
LWPOLYLINE
  5
3A
330
17
100
AcDbEntity
  8
K
100
AcDbPolyline
 90
21
 70
1
 10
2136.5265931294334
 20
156.52917710518977
 10
2141.180151239044
 20
165.13008800371475
 10
2142.340442215097
 20
177.99709307768708
 10
2144.6607683695743
 20
180.8561123542791
 10
2145.8209008558956
 20
189.4329440261393
 10
2152.277103271505
 20
195.94165535605734
 10
2159.315554413094
 20
191.6053969700704
 10
2165.1125626326475
 20
184.46253982721328
 10
2169.71157018944
 20
181.62917710518988
 10
2172.037848252331
 20
181.62917710518988
 10
2179.006710063559
 20
175.90466284074412
 10
2183.6545487526696
 20
174.47293950510277
 10
2185.9624927136147
 20
171.62917710518988
 10
2188.281296001436
 20
171.62917710518988
 10
2192.4203598701974
 20
166.52917710518977
 10
2184.8251106674506
 20
157.17059454589187
 10
2178.9914031183193
 20
152.85774853376122
 10
2155.818049971937
 20
152.85774853376122
 10
2154.656865770545
 20
151.42698070439974
 10
2138.8980508729123
 20
152.14614453723786
 10
2136.5265931294334
 20
156.52917710518977
  0
LWPOLYLINE
  5
3B
330
17
100
AcDbEntity
  8
K
100
AcDbPolyline
 90
20
 70
1
 10
2116.2869146029366
 20
74.3063024976518
 10
2109.8830566324978
 20
82.19689725163204
 10
2108.7236549885874
 20
86.48261153734649
 10
2106.395849092218
 20
89.35084707270069
 10
2106.395849092218
 20
92.27893570910761
 10
2108.718178525241
 20
95.14042335074669
 10
2109.8775801691518
 20
106.56899477931825
 10
2112.1928573117716
 20
109.42179285196451
 10
2112.1928573117716
 20
112.2789357091074
 10
2116.29926746433
 20
117.33870101886956
 10
2130.280640540614
 20
118.77431152062279
 10
2148.8359953538456
 20
110.2006056766185
 10
2151.180443396294
 20
110.2006056766185
 10
2154.1313164925573
 20
106.56464999482185
 10
2154.1313164925573
 20
90.77941850127225
 10
2151.8125132047358
 20
87.92227564412936
 10
2151.8125132047358
 20
77.91754347170455
 10
2144.2163636251303
 20
69.99780411242762
 10
2122.1214261861173
 20
71.43067554260041
 10
2116.2869146029366
 20
74.3063024976518
  0
LWPOLYLINE
  5
3C
330
17
100
AcDbEntity
  8
K
100
AcDbPolyline
 90
88
 70
1
 10
1909.2638720001223
 20
82.23741475060997
 10
1910.45697127131
 20
83.70750713767893
 10
1910.45697127131
 20
87.99322142339317
 10
1912.7757745591314
 20
90.85036428053606
 10
1912.7757745591314
 20
93.70750713767895
 10
1915.0985945287923
 20
96.56959920025376
 10
1916.2579961727033
 20
106.56959920025378
 10
1918.5727827786848
 20
109.42179285196451
 10
1918.5727827786848
 20
115.0651327869865
 10
1916.2539794908632
 20
117.92227564412939
 10
1916.2539794908632
 20
139.35084707270073
 10
1909.9156919964726
 20
147.16064833364806
 10
1906.4401751330129
 20
148.58811571642394
 10
1895.3615893902763
 20
160.80182818798772
 10
1898.3043054299067
 20
165.87809499351746
 10
1902.9734528579404
 20
170.1929568749734
 10
1909.9398541874743
 20
171.6235801554682
 10
1919.2241520965515
 20
177.34346281947566
 10
1922.694882253214
 20
177.34346281947566
 10
1929.6512921166782
 20
183.0577485337612
 10
1933.1270529329188
 20
183.0577485337612
 10
1945.930191831189
 20
194.53087569514872
 10
1948.244324302317
 20
191.67948804398804
 10
1955.1864050817112
 20
198.8076320514045
 10
1958.6804581513709
 20
195.93747087160173
 10
1960.9626112773367
 20
197.3434628194757
 10
1965.5809183435547
 20
197.3434628194757
 10
1969.0591232752865
 20
201.6291771051899
 10
1971.3972260725332
 20
201.6291771051899
 10
1978.3212377573761
 20
205.8949314777201
 10
1982.9804431187665
 20
210.20060567661835
 10
1985.3860083170641
 20
210.20060567661835
 10
1987.6794907656845
 20
207.3746622123862
 10
1994.5466599318968
 20
211.60539697007042
 10
1999.1896185775965
 20
217.32627730530285
 10
2002.6678235093284
 20
218.7548487338744
 10
2006.2076068939425
 20
223.11643769068712
 10
2009.234900132307
 20
219.38631996233272
 10
2006.907042590011
 20
216.51802079079485
 10
2009.2258458778324
 20
212.23230650508063
 10
2004.5685044280765
 20
206.4937042155579
 10
2004.5685044280765
 20
205.13607856625038
 10
2007.433939060792
 20
201.6053969700702
 10
2012.032946617585
 20
198.77203424804702
 10
2014.3625492982799
 20
198.77203424804702
 10
2019.0099707345692
 20
194.47724983363602
 10
2030.6056627782243
 20
191.6196940530175
 10
2036.3663843058414
 20
185.94117722459447
 10
2038.6708529234422
 20
187.36091733037853
 10
2043.3367910031736
 20
184.48631996233277
 10
2045.6674438633531
 20
184.48631996233277
 10
2050.9445701845048
 20
179.42899257198118
 10
2050.9445701845048
 20
176.56464999482168
 10
2052.1039718284155
 20
175.13607856625035
 10
2052.1039718284155
 20
152.20798992984362
 10
2049.1460531024763
 20
148.56335288615318
 10
2040.9355423661464
 20
150.00859357973528
 10
2039.7826235538394
 20
151.4291771051899
 10
2035.1450169781965
 20
151.4291771051899
 10
2033.9856153342857
 20
152.85774853376122
 10
2029.348008758643
 20
152.85774853376122
 10
2028.1886071147323
 20
154.28631996233278
 10
2024.710402183
 20
154.28631996233278
 10
2022.3858881616957
 20
157.15049937210844
 10
2013.199139879226
 20
158.56544541202712
 10
2006.872428080083
 20
152.18727785819542
 10
2004.5555546833893
 20
146.47774802353018
 10
1996.4526929207018
 20
136.49370421555784
 10
1996.4526929207018
 20
133.63656135841518
 10
1993.0052139027898
 20
129.388706396802
 10
2009.2061110037193
 20
110.85243291203906
 10
2009.2061110037193
 20
109.3508470727007
 10
2004.5685044280765
 20
103.63656135841515
 10
2004.5685044280765
 20
100.79183793013647
 10
2001.0751804347908
 20
93.61793221511871
 10
1996.9800247561707
 20
88.57203424804693
 10
1972.6325902340461
 20
88.57203424804693
 10
1970.3300043952336
 20
85.73487392622314
 10
1964.5263655323624
 20
82.87446305660295
 10
1959.870672034477
 20
78.57203424804693
 10
1945.9663524241
 20
78.57203424804693
 10
1943.6475491362785
 20
75.71489139090426
 10
1937.7552788896976
 20
75.71489139090426
 10
1936.5958772457873
 20
77.14346281947559
 10
1921.6189179019755
 20
77.14346281947559
 10
1919.2901527735376
 20
74.27404535417148
 10
1916.302289385111
 20
75.01035210198381
 10
1909.2638720001223
 20
82.23741475060997
  0
LWPOLYLINE
  5
3D
330
17
100
AcDbEntity
  8
K
100
AcDbPolyline
 90
16
 70
1
 10
2924.851366517309
 20
17.85945896033725
 10
2923.4004366672098
 20
19.345599096279862
 10
2923.4004366672098
 20
26.48845623913698
 10
2922.0057115813433
 20
27.917027667708318
 10
2922.0057115813433
 20
42.29013157067318
 10
2929.7363733570955
 20
48.76871185201526
 10
2945.156903244362
 20
50.204597848057645
 10
2947.310763126949
 20
47.99846939981411
 10
2947.310763126949
 20
45.12773863764919
 10
2951.4949383845506
 20
37.98488149479184
 10
2951.4949383845506
 20
33.63933691149934
 10
2947.310763126949
 20
27.925051197213556
 10
2947.310763126949
 20
25.077500940432373
 10
2944.5041141944466
 20
19.327982966413025
 10
2942.3696516978926
 20
17.14172262820568
 10
2924.851366517309
 20
17.85945896033725
  0
LWPOLYLINE
  5
3E
330
17
100
AcDbEntity
  8
K
100
AcDbPolyline
 90
42
 70
1
 10
2724.012333970537
 20
16.42947422910057
 10
2722.560024302361
 20
17.917027667708417
 10
2722.560024302361
 20
36.488456239136994
 10
2721.1652992164945
 20
37.917027667708325
 10
2721.1652992164945
 20
42.20274195342277
 10
2719.131086254323
 20
44.286319962332676
 10
2712.1798951044548
 20
44.286319962332676
 10
2705.20626967512
 20
47.143462819475566
 10
2698.2001570545863
 20
47.143462819475566
 10
2694.669791279307
 20
52.20591679130582
 10
2693.2634971076286
 20
62.288865652901926
 10
2698.2196599852437
 20
65.914891390904
 10
2710.7627357391207
 20
65.914891390904
 10
2712.157460824988
 20
67.34346281947556
 10
2716.4078787043654
 20
67.34346281947556
 10
2719.1531671282482
 20
65.93750811008947
 10
2727.503334356682
 20
74.49031213377188
 10
2742.929411342889
 20
73.05390961840463
 10
2747.8650758479675
 20
67.99846939981413
 10
2747.8650758479675
 20
62.28418368552835
 10
2749.254304187463
 20
60.86124239503676
 10
2750.6477223245597
 20
50.87061305010931
 10
2755.4687391346806
 20
47.34346281947555
 10
2761.0346552176075
 20
47.34346281947555
 10
2768.0082806469427
 20
44.48631996233266
 10
2772.1418794585015
 20
44.48631996233266
 10
2776.3260547161026
 20
47.34346281947555
 10
2790.2759190413403
 20
47.34346281947555
 10
2797.249544470675
 20
51.62917710518977
 10
2804.2861036549784
 20
51.62917710518977
 10
2822.4175297712495
 20
37.34346281947553
 10
2825.1383420387133
 20
37.34346281947553
 10
2830.717242382181
 20
41.62917710518976
 10
2847.530044820829
 20
41.62917710518976
 10
2849.6745103698872
 20
39.43267096646541
 10
2851.069235455754
 20
29.432670966465402
 10
2852.469457287993
 20
27.9984693998141
 10
2852.469457287993
 20
26.48845623913698
 10
2843.345869563228
 20
17.14346281947554
 10
2826.6091685328242
 20
17.14346281947554
 10
2825.214152498158
 20
15.714593381536357
 10
2724.012333970537
 20
16.42947422910057
  0
LWPOLYLINE
  5
3F
330
17
100
AcDbEntity
  8
K
100
AcDbPolyline
 90
50
 70
1
 10
2530.1454896019272
 20
15.000961627376741
 10
2528.6932373668474
 20
16.488456239136973
 10
2528.6932373668474
 20
55.154792178224724
 10
2536.428017784442
 20
60.19637251022192
 10
2546.1793676259485
 20
61.62322817976684
 10
2547.579900692681
 20
63.05774853376134
 10
2550.3693508644146
 20
63.05774853376134
 10
2553.158801036149
 20
65.914891390904
 10
2558.758844426457
 20
65.914891390904
 10
2568.521920027526
 20
70.20060567661845
 10
2572.702960283252
 20
70.20060567661845
 10
2578.28186062672
 20
73.05774853376134
 10
2581.0713107984543
 20
73.05774853376134
 10
2597.8080118288585
 20
81.6291771051898
 10
2603.368904127361
 20
81.6291771051898
 10
2606.158354299095
 20
84.48631996233269
 10
2611.7454039010613
 20
84.48631996233269
 10
2617.3243042445297
 20
88.77203424804692
 10
2620.1212706070996
 20
88.77203424804692
 10
2632.6737963799023
 20
95.91489139090426
 10
2636.926556854911
 20
95.91489139090426
 10
2639.062273317726
 20
93.72734665594251
 10
2641.8517234894603
 20
86.5844895130854
 10
2644.6460815813844
 20
83.72231963332143
 10
2646.040806667251
 20
78.00803391903565
 10
2649.4870796078308
 20
74.47812891635186
 10
2656.4607050371656
 20
73.04955748778053
 10
2657.847433142916
 20
71.6291771051898
 10
2664.805393122917
 20
71.6291771051898
 10
2671.155196125282
 20
68.01590145436842
 10
2671.155196125282
 20
65.0661812363984
 10
2665.5762957818138
 20
57.92332409354128
 10
2665.5762957818138
 20
53.63836961816904
 10
2660.6606204225723
 20
47.16484191894854
 10
2657.829425097951
 20
45.714891390904235
 10
2652.250524754483
 20
45.714891390904235
 10
2649.422954580081
 20
44.26679742444284
 10
2641.0317320632776
 20
51.429177105189794
 10
2631.329648466478
 20
51.429177105189794
 10
2625.756018186229
 20
48.57473322500594
 10
2613.2207870534507
 20
47.148130055974626
 10
2611.198629841527
 20
45.07690035894907
 10
2613.9714676047347
 20
37.976582087050346
 10
2613.9714676047347
 20
33.71275511409988
 10
2615.3661926906016
 20
32.28418368552855
 10
2615.3661926906016
 20
22.284183685528536
 10
2616.760917776469
 20
20.85561225695698
 10
2616.760917776469
 20
16.488456239136973
 10
2614.6106067222127
 20
14.285962740038904
 10
2530.1454896019272
 20
15.000961627376741
  0
LWPOLYLINE
  5
40
330
17
100
AcDbEntity
  8
K
100
AcDbPolyline
 90
16
 70
1
 10
3537.3120601679307
 20
16.42780853327064
 10
3535.862117188431
 20
19.395297611209728
 10
3542.85793631789
 20
29.417768843526872
 10
3542.85793631789
 20
33.71278229792773
 10
3545.009878606871
 20
35.9148913909042
 10
3549.1979589519074
 20
35.9148913909042
 10
3551.9820200825125
 20
38.76385549300898
 10
3558.9621539909053
 20
40.192426921580534
 10
3560.3661732053356
 20
41.62917710518976
 10
3564.638449317445
 20
41.62917710518976
 10
3566.779818202084
 20
39.43788790732184
 10
3569.574626332273
 20
29.428022169542878
 10
3572.37449873314
 20
25.130306214500074
 10
3572.37449873314
 20
19.3455719124519
 10
3570.223447952472
 20
17.144375110930255
 10
3537.3120601679307
 20
16.42780853327064
  0
LWPOLYLINE
  5
41
330
17
100
AcDbEntity
  8
K
100
AcDbPolyline
 90
10
 70
1
 10
3425.6487334858302
 20
15.001480902892329
 10
3424.174854184012
 20
16.50971977579463
 10
3425.6089090998003
 20
19.444691950518344
 10
3431.940413630251
 20
25.923798648741503
 10
3445.9841653075177
 20
23.0495697787233
 10
3447.372199656445
 20
21.629177105189857
 10
3458.550466427453
 20
21.629177105189857
 10
3462.1177797282558
 20
16.51851110992364
 10
3459.9355778522327
 20
14.285437008212277
 10
3425.6487334858302
 20
15.001480902892329
  0
LWPOLYLINE
  5
42
330
17
100
AcDbEntity
  8
K
100
AcDbPolyline
 90
30
 70
1
 10
3156.188195494846
 20
12.14868899833288
 10
3153.366464229568
 20
19.367470037469637
 10
3153.366464229568
 20
23.631286198166123
 10
3151.975276502159
 20
25.054905762803337
 10
3150.57924972048
 20
36.4834771913749
 10
3147.7823571028534
 20
39.34557191245203
 10
3147.7823571028534
 20
43.63128619816625
 10
3146.3465105629202
 20
45.10060567661856
 10
3148.5382726101557
 20
47.34346281947555
 10
3151.3303261735127
 20
47.34346281947555
 10
3152.7263529551915
 20
48.772034248047106
 10
3163.89456720862
 20
48.772034248047106
 10
3165.290593990299
 20
50.20060567661844
 10
3170.874701117013
 20
50.20060567661844
 10
3172.2640016171677
 20
51.62229401832374
 10
3180.7092542085475
 20
53.06264921272863
 10
3194.666834483941
 20
44.492870757857574
 10
3207.242394283095
 20
47.35258753297589
 10
3220.5806323219567
 20
35.14016015513488
 10
3219.1754067197307
 20
22.198297899019725
 10
3217.019076340135
 20
19.991698418781123
 10
3202.9753246628684
 20
22.865927288799327
 10
3201.5872903139416
 20
24.28631996233277
 10
3190.419076060513
 20
24.28631996233277
 10
3189.0230492788346
 20
25.714891390904214
 10
3184.914708940262
 20
25.714891390904214
 10
3175.1425214685114
 20
17.14346281947554
 10
3172.3485379218455
 20
17.14346281947554
 10
3165.3649266557095
 20
11.426330366726356
 10
3156.188195494846
 20
12.14868899833288
  0
LWPOLYLINE
  5
43
330
17
100
AcDbEntity
  8
K
100
AcDbPolyline
 90
21
 70
1
 10
3915.5018930379065
 20
30.855558009181827
 10
3918.286153510592
 20
33.71270086632472
 10
3918.286153510592
 20
36.56984372346761
 10
3921.8144465178284
 20
40.190495333627176
 10
3927.390272054936
 20
41.620940712418616
 10
3938.538015668332
 20
50.20060567661844
 10
3944.098382739238
 20
50.20060567661844
 10
3946.9248233556195
 20
53.10103280887013
 10
3949.7512639720007
 20
50.20060567661844
 10
3952.535524444687
 20
50.20060567661844
 10
3960.9100421317294
 20
41.60687185527423
 10
3968.6592963564076
 20
36.546442605208675
 10
3965.0827194276008
 20
32.87624316610716
 10
3953.9189660684533
 20
27.14825211033012
 10
3946.9646606919478
 20
25.720983065081192
 10
3942.779365558917
 20
22.857748533761324
 10
3938.6142220812585
 20
22.857748533761324
 10
3937.2205175668837
 20
21.427561617960666
 10
3918.3424241168013
 20
22.145052623621766
 10
3915.5018930379065
 20
25.059939058340476
 10
3915.5018930379065
 20
30.855558009181827
  0
LWPOLYLINE
  5
44
330
17
100
AcDbEntity
  8
K
100
AcDbPolyline
 90
5
 70
1
 10
3942.1919967886597
 20
12.243462819475637
 10
3939.9641721739054
 20
9.9573214015094
 10
3937.7363475591515
 20
12.243462819475637
 10
3939.9641721739054
 20
14.529604237441651
 10
3942.1919967886597
 20
12.243462819475637
  0
LWPOLYLINE
  5
45
330
17
100
AcDbEntity
  8
K
100
AcDbPolyline
 90
29
 70
1
 10
3836.150469566368
 20
76.48851048691219
 10
3836.150469566368
 20
79.34565334405508
 10
3834.73763700746
 20
80.79546901095269
 10
3837.5218974801455
 20
86.50975472523848
 10
3834.718710069785
 20
89.38631996233259
 10
3836.9465346845395
 20
91.67246138029861
 10
3838.3386649208824
 20
90.24388995172727
 10
3841.122925393568
 20
93.10103280886995
 10
3843.9071858662537
 20
90.24388995172727
 10
3845.862880616768
 20
92.2507780794728
 10
3840.3268602753965
 20
99.35194602447916
 10
3840.3268602753965
 20
103.71270086632478
 10
3842.4728754862144
 20
105.91489139090405
 10
3845.3414962462925
 20
105.91489139090405
 10
3848.0930968277235
 20
103.09126334889007
 10
3853.661617773095
 20
107.3769776346043
 10
3855.8650532362253
 20
105.11586379255533
 10
3851.688662527197
 20
97.97300664969822
 10
3856.4363579933383
 20
93.10103280886995
 10
3857.786308085985
 20
94.4863199623327
 10
3860.654928846063
 20
94.4863199623327
 10
3864.1759227404405
 20
90.87315853075827
 10
3865.5852045295665
 20
87.98081463046259
 10
3865.5852045295665
 20
79.34565334405508
 10
3863.4391893187485
 20
77.14346281947559
 10
3856.470384262569
 20
77.14346281947559
 10
3850.8991693760154
 20
72.85567518927283
 10
3838.9901021002534
 20
73.57454611802683
 10
3836.150469566368
 20
76.48851048691219
  0
LWPOLYLINE
  5
46
330
17
100
AcDbEntity
  8
K
100
AcDbPolyline
 90
5
 70
1
 10
3856.425388094423
 20
70.23263289850368
 10
3861.460744725236
 20
66.54180076448424
 10
3859.2315883649394
 20
64.25429274044747
 10
3854.1962317341263
 20
67.94512487446691
 10
3856.425388094423
 20
70.23263289850368
  0
LWPOLYLINE
  5
47
330
17
100
AcDbEntity
  8
K
100
AcDbPolyline
 90
5
 70
1
 10
3857.2720523717503
 20
49.38631996233278
 10
3855.044227756996
 20
47.10017854436677
 10
3852.8164031422416
 20
49.38631996233278
 10
3855.044227756996
 20
51.67246138029857
 10
3857.2720523717503
 20
49.38631996233278
  0
LWPOLYLINE
  5
48
330
17
100
AcDbEntity
  8
K
100
AcDbPolyline
 90
24
 70
1
 10
3836.144672090938
 20
45.065888291782485
 10
3834.7064084253275
 20
46.54180076448422
 10
3844.451320079727
 20
53.68465790734134
 10
3842.5150556299104
 20
55.67160711579544
 10
3841.122925393568
 20
54.24303568722388
 10
3838.9030609407823
 20
56.52100857349773
 10
3843.8575017623807
 20
63.05774853376134
 10
3846.733626482635
 20
63.05774853376134
 10
3848.9192709536933
 20
60.81489139090412
 10
3846.135010481008
 20
57.95774853376123
 10
3850.299173706222
 20
53.68458180542635
 10
3847.5096359194918
 20
49.3907443356878
 10
3852.2694607798717
 20
43.110774811566664
 10
3853.652097520653
 20
44.529604237441454
 10
3855.879922135407
 20
42.24346281947567
 10
3853.652097520653
 20
39.957321401509645
 10
3852.2599672843103
 20
41.385892830080984
 10
3850.311401190036
 20
39.38631996233277
 10
3853.076734725047
 20
36.54859948514133
 10
3850.2546203770125
 20
30.756624251049747
 10
3843.934663486061
 20
24.271232576822953
 10
3841.7556304827835
 20
25.016590113335567
 10
3834.7538956386065
 20
35.0756128417995
 10
3836.144672090938
 20
45.065888291782485
  0
LWPOLYLINE
  5
49
330
17
100
AcDbEntity
  8
K
100
AcDbPolyline
 90
5
 70
1
 10
3836.9465346845395
 20
98.81531852315572
 10
3839.174359299294
 20
96.52917710518993
 10
3836.9465346845395
 20
94.24303568722392
 10
3834.718710069785
 20
96.52917710518993
 10
3836.9465346845395
 20
98.81531852315572
  0
LWPOLYLINE
  5
4A
330
17
100
AcDbEntity
  8
K
100
AcDbPolyline
 90
5
 70
1
 10
4671.524492629339
 20
171.3377969564751
 10
4668.338642281955
 20
176.5363356625822
 10
4672.424678709526
 20
181.72211072871636
 10
4674.701217292756
 20
176.52144474928
 10
4671.524492629339
 20
171.3377969564751
  0
LWPOLYLINE
  5
4B
330
17
100
AcDbEntity
  8
K
100
AcDbPolyline
 90
5
 70
1
 10
4658.392298066769
 20
210.29198582533314
 10
4660.698281756787
 20
206.5291771051898
 10
4658.392298066769
 20
202.76636838504646
 10
4656.086314376752
 20
206.5291771051898
 10
4658.392298066769
 20
210.29198582533314
  0
LWPOLYLINE
  5
4C
330
17
100
AcDbEntity
  8
K
100
AcDbPolyline
 90
5
 70
1
 10
4657.516818429265
 20
174.194939813618
 10
4655.210834739248
 20
177.95774853376133
 10
4657.516818429265
 20
181.72055725390467
 10
4659.822802119283
 20
177.95774853376133
 10
4657.516818429265
 20
174.194939813618
  0
LWPOLYLINE
  5
4D
330
17
100
AcDbEntity
  8
K
100
AcDbPolyline
 90
5
 70
1
 10
4647.886542416714
 20
209.90922552790357
 10
4645.580558726697
 20
213.67203424804694
 10
4647.886542416714
 20
217.43484296819025
 10
4650.192526106731
 20
213.67203424804694
 10
4647.886542416714
 20
209.90922552790357
  0
LWPOLYLINE
  5
4E
330
17
100
AcDbEntity
  8
K
100
AcDbPolyline
 90
5
 70
1
 10
4649.317046469227
 20
202.24346281947558
 10
4646.135583141705
 20
197.0520826707609
 10
4643.8295994516875
 20
200.81489139090425
 10
4647.011062779209
 20
206.00627153961892
 10
4649.317046469227
 20
202.24346281947558
  0
LWPOLYLINE
  5
4F
330
17
100
AcDbEntity
  8
K
100
AcDbPolyline
 90
137
 70
1
 10
4520.889280519422
 20
141.42917710518986
 10
4512.510403448003
 20
153.6622918624544
 10
4515.138222729146
 20
159.37958081458413
 10
4511.255717944361
 20
165.7148913909041
 10
4505.213108786366
 20
165.7148913909041
 10
4500.8357105988425
 20
162.85774853376122
 10
4493.746125194268
 20
162.85774853376122
 10
4491.995165919259
 20
165.7148913909041
 10
4488.493247369241
 20
165.7148913909041
 10
4487.617767731736
 20
167.14346281947545
 10
4485.003423423859
 20
167.14346281947545
 10
4482.376984511346
 20
170.00060567661833
 10
4480.634313132952
 20
170.00060567661833
 10
4477.091629580426
 20
172.89100785549348
 10
4473.136460755127
 20
179.34488860491317
 10
4472.244054039727
 20
182.25727327194875
 10
4473.111070138284
 20
183.6720342480469
 10
4471.377395459531
 20
186.50097281658338
 10
4471.377395459531
 20
189.41452425093908
 10
4474.485573169166
 20
194.48631996233257
 10
4476.236532444175
 20
194.48631996233257
 10
4478.86297135669
 20
198.77203424804702
 10
4480.725932674959
 20
198.77203424804702
 10
4486.798289115862
 20
188.8634143967618
 10
4491.119686281754
 20
195.91489139090413
 10
4492.8706455567635
 20
195.91489139090413
 10
4493.746125194268
 20
197.3434628194757
 10
4498.999003019297
 20
197.3434628194757
 10
4502.556922590945
 20
203.14912868247603
 10
4504.307881865954
 20
200.29198582533314
 10
4506.37929636346
 20
203.6720342480469
 10
4504.649827428367
 20
206.49411005819206
 10
4503.765751654895
 20
212.2645030476742
 10
4506.033379966669
 20
215.96472504946985
 10
4507.784339241678
 20
214.5361536208983
 10
4513.00667721937
 20
223.05774853376127
 10
4515.754504343717
 20
223.05774853376127
 10
4517.990362179427
 20
217.95001617785138
 10
4515.745118175144
 20
214.2863199623326
 10
4513.997767774449
 20
214.2863199623326
 10
4507.487432184541
 20
202.24658438825927
 10
4509.560759690981
 20
198.8634143967618
 10
4511.267702249869
 20
201.64873259878036
 10
4515.668219585079
 20
200.21261619659137
 10
4517.449900729501
 20
201.66625296249063
 10
4520.050477294856
 20
198.83724417696104
 10
4523.030694072304
 20
203.7002385366533
 10
4523.030694072304
 20
205.07240138801208
 10
4519.513403934964
 20
210.81176982212037
 10
4526.183080395114
 20
223.14617867645103
 10
4532.374663202214
 20
214.48631996233257
 10
4537.611726611507
 20
214.48631996233257
 10
4541.0525654668545
 20
211.67901076375563
 10
4542.812947869977
 20
214.5515298912466
 10
4545.4993312456645
 20
211.6291771051899
 10
4549.0093925722185
 20
211.6291771051899
 10
4555.955602890837
 20
201.71145597689198
 10
4559.437637854451
 20
207.39329647804118
 10
4562.93955640447
 20
204.5361536208985
 10
4565.03643207627
 20
207.95774853376136
 10
4563.285472801261
 20
210.81489139090402
 10
4565.03643207627
 20
213.67203424804694
 10
4563.285472801261
 20
216.52917710518983
 10
4565.555814818157
 20
220.23382721866014
 10
4568.182253730671
 20
218.8052557900888
 10
4569.968854678802
 20
221.7205572539045
 10
4573.536798303004
 20
215.89853455693265
 10
4577.804154700221
 20
214.50587545592305
 10
4581.2892265149385
 20
220.19267136498223
 10
4591.031085521765
 20
221.63779520361194
 10
4598.859682716454
 20
208.8634143967618
 10
4599.735162353959
 20
210.29198582533314
 10
4605.051457830495
 20
201.61707495559546
 10
4611.179815293028
 20
200.1885035270239
 10
4614.297860969042
 20
195.10060567661847
 10
4613.422381331536
 20
193.6720342480469
 10
4616.369275466547
 20
188.8634143967618
 10
4617.188754082421
 20
190.20060567661835
 10
4619.906812536942
 20
190.20060567661835
 10
4623.449496089468
 20
187.3102034977432
 10
4625.999551479098
 20
183.149128682476
 10
4629.839209847868
 20
189.41452425093908
 10
4629.839209847868
 20
190.78668710229763
 10
4624.563015331031
 20
199.3961628861358
 10
4627.755802392119
 20
203.11748984924915
 10
4632.652619109873
 20
196.5798711970581
 10
4634.819735044346
 20
191.6291771051899
 10
4635.681590819378
 20
191.6291771051899
 10
4642.295924772933
 20
182.27524696192486
 10
4642.295924772933
 20
180.78668710229783
 10
4639.1572072159615
 20
175.66505773233843
 10
4637.345168246282
 20
177.14346281947567
 10
4631.296335721118
 20
177.14346281947567
 10
4628.669896808605
 20
174.28631996233278
 10
4625.943550457468
 20
174.28631996233278
 10
4625.068070819963
 20
175.7148913909041
 10
4618.9518079620675
 20
175.7148913909041
 10
4616.325369049554
 20
178.57203424804703
 10
4613.686835532403
 20
178.57203424804703
 10
4612.8074948971125
 20
180.00690589296386
 10
4600.5700550594265
 20
181.43323072941996
 10
4598.859682716454
 20
182.8286881202701
 10
4588.430310589283
 20
174.31957928406504
 10
4586.276956224991
 20
170.8058247789528
 10
4588.0161872476465
 20
166.54881700822145
 10
4588.0161872476465
 20
160.79991417111094
 10
4587.148183103083
 20
157.96716771377683
 10
4591.518105797664
 20
149.41037698223346
 10
4591.518105797664
 20
143.70023853665325
 10
4593.286349668931
 20
140.8148913909042
 10
4591.036367000543
 20
137.14346281947564
 10
4588.397833483391
 20
137.14346281947564
 10
4585.771394570877
 20
134.28631996233275
 10
4583.144955658364
 20
134.28631996233275
 10
4580.518516745849
 20
131.42917710518986
 10
4577.904172437973
 20
131.42917710518986
 10
4577.020255017469
 20
129.98683725163573
 10
4570.791590124414
 20
131.43879118199408
 10
4568.1739889867995
 20
134.28631996233275
 10
4563.884403633262
 20
134.28631996233275
 10
4561.257964720748
 20
131.42917710518986
 10
4559.407098007116
 20
131.42917710518986
 10
4558.587619391242
 20
132.7663683850464
 10
4556.887379659084
 20
129.9919875781963
 10
4551.960658658533
 20
130.72282570254035
 10
4549.816784970014
 20
134.22111003341874
 10
4547.2005230407585
 20
131.3750380962526
 10
4543.145054118793
 20
136.52201854779733
 10
4546.651359688673
 20
142.24346281947552
 10
4544.523944169537
 20
145.71489139090409
 10
4541.997412695646
 20
145.71489139090409
 10
4539.378776517443
 20
142.86623665297626
 10
4532.385789352493
 20
141.43987828376737
 10
4531.503751650228
 20
140.0006056766183
 10
4523.5124328694255
 20
140.0006056766183
 10
4522.636953231921
 20
141.42917710518986
 10
4520.889280519422
 20
141.42917710518986
  0
LWPOLYLINE
  5
50
330
17
100
AcDbEntity
  8
K
100
AcDbPolyline
 90
6
 70
1
 10
4556.498920297479
 20
159.35811567372627
 10
4556.498920297479
 20
156.55738139379616
 10
4558.587619391242
 20
153.14912868247598
 10
4561.534513526251
 20
157.95774853376133
 10
4558.587619391242
 20
162.76636838504643
 10
4556.498920297479
 20
159.35811567372627
  0
LWPOLYLINE
  5
51
330
17
100
AcDbEntity
  8
K
100
AcDbPolyline
 90
6
 70
1
 10
4517.119621206027
 20
157.95774853376133
 10
4520.9419949785415
 20
151.72055725390464
 10
4523.888889113553
 20
156.52917710518977
 10
4520.885993956912
 20
161.4291771051899
 10
4519.2470367251635
 20
161.4291771051899
 10
4517.119621206027
 20
157.95774853376133
  0
LWPOLYLINE
  5
52
330
17
100
AcDbEntity
  8
K
100
AcDbPolyline
 90
5
 70
1
 10
4635.074803076641
 20
207.95774853376136
 10
4637.380786766658
 20
211.7205572539047
 10
4639.686770456676
 20
207.95774853376136
 10
4637.380786766658
 20
204.19493981361802
 10
4635.074803076641
 20
207.95774853376136
  0
LWPOLYLINE
  5
53
330
17
100
AcDbEntity
  8
K
100
AcDbPolyline
 90
5
 70
1
 10
4636.184851906656
 20
216.52917710518983
 10
4633.87886821664
 20
212.7663683850465
 10
4631.572884526622
 20
216.52917710518983
 10
4633.87886821664
 20
220.29198582533317
 10
4636.184851906656
 20
216.52917710518983
  0
LWPOLYLINE
  5
54
330
17
100
AcDbEntity
  8
K
100
AcDbPolyline
 90
203
 70
1
 10
4350.1674646435085
 20
68.57203424804715
 10
4348.436887869753
 20
68.57203424804715
 10
4344.894204317227
 20
71.46243642692207
 10
4342.6646041500935
 20
75.10060567661836
 10
4345.291043062608
 20
79.3863199623328
 10
4342.68188874635
 20
83.64382995944064
 10
4342.68188874635
 20
96.50097281658354
 10
4334.785287412553
 20
109.3863199623326
 10
4337.091271102569
 20
113.14912868247595
 10
4338.913513723822
 20
110.17566861198725
 10
4341.539952636335
 20
108.74709718341569
 10
4345.0469713629955
 20
103.02448921202911
 10
4348.508124910507
 20
100.20060567661848
 10
4350.2794666867685
 20
100.20060567661848
 10
4351.9813623977025
 20
97.42352271215648
 10
4357.55144687179
 20
105.11424315391626
 10
4355.802355056564
 20
109.39538657428383
 10
4358.102782402681
 20
113.14912868247595
 10
4360.408766092697
 20
109.3863199623326
 10
4358.657806817689
 20
106.52917710518994
 10
4360.805604838079
 20
103.02448921202911
 10
4364.26675838559
 20
100.20060567661848
 10
4365.926098118593
 20
100.20060567661848
 10
4367.733058415231
 20
103.14912868247616
 10
4371.301002039433
 20
97.32710598550409
 10
4375.568358436651
 20
95.9344468844947
 10
4377.683789650278
 20
99.38631996233282
 10
4375.556374131143
 20
102.8577485337614
 10
4373.7983020354195
 20
102.8577485337614
 10
4370.683612035418
 20
109.39229135874484
 10
4373.3063914627555
 20
113.67203424804705
 10
4369.810029256638
 20
119.37725335038164
 10
4371.560988531647
 20
123.66296763609586
 10
4368.928993275233
 20
127.95774853376129
 10
4371.17897594362
 20
131.62917710518985
 10
4375.576756632397
 20
131.62917710518985
 10
4377.286950904899
 20
133.02448921202893
 10
4380.858836859744
 20
138.85294484093657
 10
4386.987194322276
 20
130.28151626950813
 10
4387.813089056208
 20
131.62917710518985
 10
4391.4270096494865
 20
131.62917710518985
 10
4398.406347233941
 20
120.24058297189177
 10
4402.678740401305
 20
123.02918869111323
 10
4404.459186474303
 20
125.9344468844945
 10
4408.946626452133
 20
124.46996312836123
 10
4411.523078336644
 20
120.26581560553228
 10
4414.149517249159
 20
123.1229584626754
 10
4418.190422168003
 20
116.52917710518973
 10
4417.314942530499
 20
115.1006056766184
 10
4421.68678437412
 20
107.96681514571249
 10
4419.935825099112
 20
103.68110085999827
 10
4421.695452113738
 20
100.80981434418446
 10
4416.44257428871
 20
93.66695720132734
 10
4419.935825099112
 20
87.96681514571247
 10
4418.184865824102
 20
83.68110085999825
 10
4420.31783768714
 20
80.20060567661847
 10
4422.0687969621495
 20
80.20060567661847
 10
4425.514714490538
 20
74.57770011104748
 10
4427.594592526991
 20
77.97155898623443
 10
4425.843633251981
 20
83.6858447005202
 10
4428.097136686929
 20
87.36301831306604
 10
4432.474534874453
 20
85.93444688449448
 10
4435.964469118962
 20
91.62917710518981
 10
4441.21734694399
 20
91.62917710518981
 10
4445.594745131513
 20
98.77203424804692
 10
4447.345704406523
 20
98.77203424804692
 10
4451.779103615676
 20
106.00627153961884
 10
4454.085087305693
 20
102.2434628194755
 10
4453.209607668189
 20
100.81489139090417
 10
4457.067623113826
 20
94.51954150437447
 10
4459.6696169164825
 20
95.93481676019123
 10
4461.40331380466
 20
94.52032935571353
 10
4465.806477412949
 20
98.8312694095952
 10
4471.0651168150725
 20
90.25043933518417
 10
4472.816076090082
 20
91.67901076375551
 10
4475.473054849932
 20
87.34346281947558
 10
4476.236532444176
 20
87.34346281947558
 10
4479.738450994194
 20
93.05774853376114
 10
4481.601412312463
 20
93.05774853376114
 10
4484.726874618355
 20
87.95774853376126
 10
4481.207671472081
 20
82.21525853086908
 10
4481.207671472081
 20
80.84309567951054
 10
4484.171850203347
 20
76.00627153961904
 10
4484.991328819222
 20
77.34346281947558
 10
4487.617767731736
 20
77.34346281947558
 10
4490.646053505219
 20
82.284894176895
 10
4491.504606064828
 20
85.08679522414519
 10
4490.6206628883765
 20
86.52917710518993
 10
4492.926646578394
 20
90.29198582533327
 10
4496.108109905916
 20
85.10060567661837
 10
4493.481670993402
 20
80.81489139090414
 10
4495.5530854909075
 20
77.43484296819037
 10
4497.624499988414
 20
80.81489139090414
 10
4495.8735407134045
 20
83.67203424804703
 10
4498.113499329238
 20
87.32710598550409
 10
4502.600939307067
 20
88.79158974163737
 10
4504.333343040249
 20
85.96472504946972
 10
4506.0588411409635
 20
87.37252323296674
 10
4507.888491553473
 20
85.87974933417253
 10
4513.998004746014
 20
74.48631996233269
 10
4515.633116131884
 20
74.48631996233269
 10
4517.424038382343
 20
77.40867274838959
 10
4520.066515341037
 20
74.53408307804632
 10
4522.651717636507
 20
77.3463671321617
 10
4544.526223441475
 20
75.91861061249361
 10
4546.668644284929
 20
79.4145242509392
 10
4546.668644284929
 20
85.12880996522476
 10
4548.419603559938
 20
87.98595282236765
 10
4548.419603559938
 20
93.70023853665343
 10
4550.170562834947
 20
96.55738139379633
 10
4550.170562834947
 20
100.84309567951055
 10
4551.921522109957
 20
103.70023853665344
 10
4551.921522109957
 20
106.55738139379633
 10
4556.281635701224
 20
113.67203424804705
 10
4555.40615606372
 20
115.1006056766184
 10
4557.698624416582
 20
118.84136062911233
 10
4560.899635176813
 20
115.11044860042152
 10
4560.018123443754
 20
113.67203424804705
 10
4562.08953794126
 20
110.29198582533328
 10
4566.442489993684
 20
117.3949527769791
 10
4591.892405595278
 20
95.91489139090426
 10
4593.653557890718
 20
95.91489139090426
 10
4600.272902172711
 20
87.99403194940948
 10
4600.272902172711
 20
86.50097281658353
 10
4594.564007343408
 20
77.18543457618753
 10
4591.027793069595
 20
72.85774853376137
 10
4583.04504821974
 20
72.85774853376137
 10
4582.169568582236
 20
74.2863199623327
 10
4578.667650032217
 20
74.2863199623327
 10
4576.907473054865
 20
77.15850388455681
 10
4567.277197042314
 20
80.0156467416997
 10
4564.699938807593
 20
84.2211100334187
 10
4562.140427236356
 20
81.43677335279342
 10
4554.2534472937805
 20
80.00681253525266
 10
4549.0337269015745
 20
75.74815071263652
 10
4542.905369439042
 20
65.74815071263629
 10
4535.860767336497
 20
60.00060567661847
 10
4532.358848786479
 20
60.00060567661847
 10
4528.795850541788
 20
57.09362916090988
 10
4527.070352441075
 20
59.90922552790367
 10
4522.748955275181
 20
52.85774853376135
 10
4520.115880093444
 20
52.85774853376135
 10
4515.738481905921
 20
47.143462819475566
 10
4513.982064295497
 20
47.143462819475566
 10
4511.355625382984
 20
44.286319962332676
 10
4508.72918647047
 20
44.286319962332676
 10
4506.111585332855
 20
41.438791181994006
 10
4499.993901329939
 20
40.01270782621291
 10
4499.11439939367
 20
38.57757297703679
 10
4485.1067251935965
 20
37.149001548465456
 10
4484.227851224979
 20
35.71489139090423
 10
4480.705550173706
 20
35.71489139090423
 10
4478.909148077342
 20
34.24924410503194
 10
4476.2486270488125
 20
37.14346281947556
 10
4473.626706026726
 20
37.14346281947556
 10
4467.498348564194
 20
42.85774853376134
 10
4465.748720776682
 20
42.85774853376134
 10
4456.118444764131
 20
51.429177105189794
 10
4452.618964732804
 20
51.429177105189794
 10
4449.162489004139
 20
54.249244105031956
 10
4446.577934941951
 20
51.43766522440485
 10
4439.574097841914
 20
50.009093795833515
 10
4436.939856195089
 20
47.143462819475566
 10
4434.313417282576
 20
47.143462819475566
 10
4431.686978370062
 20
44.286319962332676
 10
4428.185059820044
 20
44.286319962332676
 10
4425.558620907529
 20
41.42917710518979
 10
4422.9238940984
 20
41.42917710518979
 10
4419.4351180210215
 20
38.582756919431475
 10
4415.077934111681
 20
37.16078245531818
 10
4408.542861559197
 20
25.075300162936244
 10
4408.542861559197
 20
22.215258530869253
 10
4406.313364283022
 20
18.57725717437775
 10
4391.331050430053
 20
17.139167792394773
 10
4388.760607761525
 20
19.93539574770442
 10
4386.180007948854
 20
15.724479807425752
 10
4378.2113065534295
 20
14.279702358375946
 10
4376.502063636536
 20
15.674238273866159
 10
4373.033363330941
 20
11.429177105189869
 10
4359.034263061815
 20
11.429177105189869
 10
4358.155769062599
 20
9.995686965967089
 10
4324.800951156676
 20
12.860266492575212
 10
4320.427410707074
 20
15.714891390904207
 10
4317.774718055837
 20
15.714891390904207
 10
4315.529474051554
 20
19.37858760642297
 10
4317.765331887265
 20
24.486319962332747
 10
4318.651981851843
 20
24.486319962332747
 10
4333.580212573285
 20
47.412690671668976
 10
4337.095717719051
 20
43.110348852601675
 10
4339.733748061264
 20
45.980101319818225
 10
4342.336213288739
 20
41.73350630086637
 10
4346.713611476262
 20
50.304934872295036
 10
4348.52850741176
 20
47.34346281947555
 10
4350.1674646435085
 20
47.34346281947555
 10
4351.918423918518
 20
50.20060567661844
 10
4358.158783424311
 20
50.20060567661844
 10
4358.978262040186
 20
48.8634143967619
 10
4361.049676537691
 20
52.243462819475674
 10
4356.672278350168
 20
59.38631996233279
 10
4359.298717262682
 20
63.67203424804701
 10
4357.171301743546
 20
67.14346281947559
 10
4351.042944281013
 20
67.14346281947559
 10
4350.1674646435085
 20
68.57203424804715
  0
LWPOLYLINE
  5
55
330
17
100
AcDbEntity
  8
K
100
AcDbPolyline
 90
5
 70
1
 10
4450.0281443406675
 20
84.57770011104748
 10
4452.099558838173
 20
87.95774853376126
 10
4450.0281443406675
 20
91.33779695647503
 10
4447.95672984316
 20
87.95774853376126
 10
4450.0281443406675
 20
84.57770011104748
  0
LWPOLYLINE
  5
56
330
17
100
AcDbEntity
  8
K
100
AcDbPolyline
 90
6
 70
1
 10
4385.298652186955
 20
108.57203424804696
 10
4383.171236667818
 20
105.10060567661839
 10
4386.118130802829
 20
100.29198582533327
 10
4389.06502493784
 20
105.10060567661839
 10
4386.937609418703
 20
108.57203424804696
 10
4385.298652186955
 20
108.57203424804696
  0
LWPOLYLINE
  5
57
330
17
100
AcDbEntity
  8
K
100
AcDbPolyline
 90
5
 70
1
 10
4366.302554362718
 20
63.67203424804701
 10
4364.231139865213
 20
67.0520826707608
 10
4362.159725367707
 20
63.67203424804701
 10
4364.231139865213
 20
60.29198582533324
 10
4366.302554362718
 20
63.67203424804701
  0
LWPOLYLINE
  5
58
330
17
100
AcDbEntity
  8
K
100
AcDbPolyline
 90
5
 70
1
 10
4556.8366601162315
 20
223.14912868247606
 10
4559.14264380625
 20
219.38631996233272
 10
4555.961180478727
 20
214.19493981361782
 10
4553.65519678871
 20
217.95774853376116
 10
4556.8366601162315
 20
223.14912868247606
  0
LWPOLYLINE
  5
59
330
17
100
AcDbEntity
  8
K
100
AcDbPolyline
 90
41
 70
1
 10
4499.375459263422
 20
122.24346281947551
 10
4496.749020350909
 20
126.52917710518996
 10
4501.1264185384325
 20
133.67203424804708
 10
4499.375459263422
 20
136.52917710518975
 10
4501.62544193181
 20
140.2006056766183
 10
4503.4884032500795
 20
140.2006056766183
 10
4505.741497314182
 20
136.52410005847005
 10
4500.488619489154
 20
129.38124291561292
 10
4504.363882887584
 20
123.05774853376138
 10
4506.878319756837
 20
123.05774853376138
 10
4510.436239328486
 20
128.86341439676175
 10
4512.243199625126
 20
125.91489139090406
 10
4515.745118175144
 20
125.91489139090406
 10
4517.995100843532
 20
122.24346281947551
 10
4515.755142227697
 20
118.58839108201846
 10
4511.373261364068
 20
117.1583567243888
 10
4506.087708875476
 20
109.97106861210648
 10
4503.468043901571
 20
111.39595556314808
 10
4502.612923612575
 20
110.0006056766185
 10
4499.974390095424
 20
110.0006056766185
 10
4497.34795118291
 20
107.14346281947562
 10
4494.733606875034
 20
107.14346281947562
 10
4493.85078328309
 20
105.70290783008329
 10
4486.759608780867
 20
107.14929345330671
 10
4482.391143645431
 20
110.0006056766185
 10
4477.11949420046
 20
110.0006056766185
 10
4473.128354734539
 20
115.06594268344905
 10
4473.128354734539
 20
126.55738139379635
 10
4477.498699671609
 20
133.68872933455944
 10
4475.7477403965995
 20
140.83158647741655
 10
4478.01803156652
 20
144.53615362089843
 10
4479.76899084153
 20
143.1075821923269
 10
4482.435699696944
 20
147.45900730373296
 10
4484.722135954251
 20
142.23573046356574
 10
4480.332191834576
 20
135.07240138801203
 10
4480.332191834576
 20
133.7033549092772
 10
4487.684662867
 20
123.11736269189043
 10
4490.316245712062
 20
125.98010131981808
 10
4494.733606875034
 20
118.77203424804694
 10
4497.248043744286
 20
118.77203424804694
 10
4499.375459263422
 20
122.24346281947551
  0
LWPOLYLINE
  5
5A
330
17
100
AcDbEntity
  8
K
100
AcDbPolyline
 90
6
 70
1
 10
4493.812399770569
 20
91.35456091767202
 10
4489.74079623101
 20
96.52201854779751
 10
4492.8706455567635
 20
101.62917710518981
 10
4493.858127237529
 20
101.62917710518981
 10
4496.983589543421
 20
96.52917710518993
 10
4493.812399770569
 20
91.35456091767202
  0
LWPOLYLINE
  5
5B
330
17
100
AcDbEntity
  8
K
100
AcDbPolyline
 90
5
 70
1
 10
4493.815641553054
 20
138.5027078669816
 10
4490.6061858590465
 20
142.24346281947552
 10
4493.815641553054
 20
145.98421777196947
 10
4496.108109905916
 20
142.24346281947552
 10
4493.815641553054
 20
138.5027078669816
  0
LWPOLYLINE
  5
5C
330
17
100
AcDbEntity
  8
K
100
AcDbPolyline
 90
5
 70
1
 10
4423.763755215527
 20
121.33779695647506
 10
4421.45777152551
 20
125.1006056766184
 10
4423.763755215527
 20
128.86341439676175
 10
4426.069738905545
 20
125.1006056766184
 10
4423.763755215527
 20
121.33779695647506
  0
LWPOLYLINE
  5
5D
330
17
100
AcDbEntity
  8
K
100
AcDbPolyline
 90
5
 70
1
 10
4367.412603192734
 20
129.38631996233264
 10
4364.231139865213
 20
124.19493981361795
 10
4361.925156175195
 20
127.95774853376129
 10
4365.106619502718
 20
133.14912868247598
 10
4367.412603192734
 20
129.38631996233264
  0
LWPOLYLINE
  5
5E
330
17
100
AcDbEntity
  8
K
100
AcDbPolyline
 90
21
 70
1
 10
4351.974424940148
 20
111.33779695647506
 10
4350.1674646435085
 20
114.28631996233274
 10
4346.777548136751
 20
114.28631996233274
 10
4344.970587840111
 20
111.33779695647506
 10
4342.6646041500935
 20
115.1006056766184
 10
4346.162135680251
 20
120.80773283351176
 10
4342.295630024747
 20
125.71489139090409
 10
4340.6491906742185
 20
125.71489139090409
 10
4339.717710015084
 20
124.19493981361795
 10
4337.411726325066
 20
127.95774853376129
 10
4341.468669290092
 20
134.57770011104753
 10
4343.275629586732
 20
131.62917710518985
 10
4345.790066455986
 20
131.62917710518985
 10
4348.416505368499
 20
135.91489139090407
 10
4350.2794666867685
 20
135.91489139090407
 10
4352.532560750871
 20
132.2383857727558
 10
4347.279682925843
 20
125.0955286298987
 10
4349.403987049264
 20
121.62917710518984
 10
4353.781385236788
 20
121.62917710518984
 10
4356.031367905174
 20
117.95774853376129
 10
4351.974424940148
 20
111.33779695647506
  0
LWPOLYLINE
  5
5F
330
17
100
AcDbEntity
  8
K
100
AcDbPolyline
 90
23
 70
1
 10
4346.765453532113
 20
160.00060567661833
 10
4344.139014619599
 20
157.14346281947567
 10
4341.412668268462
 20
157.14346281947567
 10
4340.593189652588
 20
158.4806540993322
 10
4337.1472721242
 20
152.85774853376122
 10
4335.3963128491905
 20
152.85774853376122
 10
4334.476506877838
 20
151.35684722867904
 10
4330.974588327819
 20
155.64256151439326
 10
4327.524412741526
 20
150.01270782621302
 10
4321.285074388855
 20
148.5582658230642
 10
4320.457157989981
 20
149.90922552790374
 10
4318.767062166395
 20
147.1513971311118
 10
4313.791060708697
 20
146.41324866042083
 10
4313.791060708697
 20
159.4725800689003
 10
4318.645335263549
 20
160.19267136498195
 10
4321.276636605855
 20
164.48631996233277
 10
4337.126889622947
 20
164.48631996233277
 10
4338.816769203284
 20
163.1075821923269
 10
4340.532326201165
 20
165.90695707926773
 10
4350.274185207991
 20
167.35208091789767
 10
4352.529449355156
 20
163.67203424804688
 10
4350.2794666867685
 20
160.00060567661833
 10
4346.765453532113
 20
160.00060567661833
  0
LWPOLYLINE
  5
60
330
17
100
AcDbEntity
  8
K
100
AcDbPolyline
 90
7
 70
1
 10
4313.773776112441
 20
129.38631996233264
 10
4316.023758780828
 20
133.05774853376118
 10
4318.762199736603
 20
133.05774853376118
 10
4321.012182404989
 20
129.38631996233264
 10
4318.753761953603
 20
125.70112296592129
 10
4315.578602332198
 20
126.44127925478443
 10
4313.773776112441
 20
129.38631996233264
  0
LWPOLYLINE
  5
61
330
17
100
AcDbEntity
  8
K
100
AcDbPolyline
 90
6
 70
1
 10
5462.1091084921145
 20
17.34346281947552
 10
5464.205349226293
 20
15.100605676618418
 10
5462.0895339747885
 20
12.836804924905243
 10
5457.224757978561
 20
15.06753241183134
 10
5459.351909965861
 20
17.34346281947552
 10
5462.1091084921145
 20
17.34346281947552
  0
LWPOLYLINE
  5
62
330
17
100
AcDbEntity
  8
K
100
AcDbPolyline
 90
21
 70
1
 10
5432.663384553243
 20
32.84150872384184
 10
5428.657829010229
 20
31.412937295270282
 10
5426.590341293514
 20
33.625030361489785
 10
5425.255156112509
 20
40.7678875043469
 10
5423.876039706558
 20
42.24346281947567
 10
5426.546410068569
 20
45.10060567661856
 10
5425.222657040695
 20
46.516945358191506
 10
5427.938756015228
 20
50.87605012589647
 10
5431.313021164756
 20
54.486319962332665
 10
5434.058815932906
 20
54.486319962332665
 10
5442.081247264659
 20
48.76395957304558
 10
5447.432161779164
 20
47.332666801657155
 10
5452.188682597249
 20
42.24346281947567
 10
5448.201213481213
 20
37.97709997144616
 10
5454.888078627075
 20
33.68436307023326
 10
5447.426999208597
 20
27.15287792382326
 10
5442.085692941576
 20
25.724155220622436
 10
5435.377212022833
 20
19.98200391099281
 10
5427.852917463661
 20
23.641350664846517
 10
5434.557521154598
 20
30.814891390904098
 10
5432.663384553243
 20
32.84150872384184
  0
LWPOLYLINE
  5
63
330
17
100
AcDbEntity
  8
K
100
AcDbPolyline
 90
7
 70
1
 10
5443.319597515697
 20
33.04695251594292
 10
5445.239002602638
 20
35.10060567661832
 10
5443.340999259788
 20
37.13136020078722
 10
5438.085865512128
 20
35.72568740872262
 10
5436.166460425188
 20
33.67203424804699
 10
5438.064463768039
 20
31.641279723878093
 10
5443.319597515697
 20
33.04695251594292
  0
LWPOLYLINE
  5
64
330
17
100
AcDbEntity
  8
K
100
AcDbPolyline
 90
48
 70
1
 10
5303.746250460901
 20
26.568633424290944
 10
5305.805614150287
 20
28.772034248047085
 10
5312.481540055312
 20
28.772034248047085
 10
5313.816725236316
 20
30.20060567661842
 10
5316.487095598326
 20
30.20060567661842
 10
5319.200880042459
 20
33.10419910720963
 10
5321.880988958575
 20
30.236636556717045
 10
5327.176828978572
 20
34.486319962332644
 10
5333.852754883597
 20
34.486319962332644
 10
5339.217587551715
 20
38.79136699500596
 10
5344.561850172256
 20
35.93234002440293
 10
5348.533759133449
 20
38.765482941989895
 10
5355.2107952656015
 20
40.19429194640889
 10
5362.44165277303
 20
45.11758417467271
 10
5361.133768352454
 20
46.516945358191506
 10
5363.852104434626
 20
50.87964049084914
 10
5372.5697449259105
 20
58.77203424804689
 10
5375.235243562546
 20
58.77203424804689
 10
5379.240799105562
 20
63.05774853376134
 10
5383.246354648576
 20
63.05774853376134
 10
5387.295324273714
 20
67.38991339292389
 10
5388.646642288937
 20
65.94408075867531
 10
5395.301828366826
 20
70.21648079035225
 10
5400.6722437940925
 20
67.34346281947556
 10
5403.3513835668555
 20
67.34346281947556
 10
5408.145723818445
 20
63.67941381729114
 10
5398.016034814694
 20
54.28631996233268
 10
5395.342601759972
 20
54.28631996233268
 10
5383.336840834704
 20
44.295395444005734
 10
5377.99235857642
 20
42.86582320876286
 10
5373.930228143998
 20
39.968325764240255
 10
5371.840694692156
 20
42.20400650037459
 10
5371.840694692156
 20
45.04596958486196
 10
5368.618864573862
 20
47.11427345170427
 10
5366.736831012929
 20
45.10060567661856
 10
5368.035139149141
 20
43.71149056714807
 10
5368.035139149141
 20
39.3468636432317
 10
5363.323751469538
 20
34.3059495260325
 10
5355.275947639922
 20
30.00060567661844
 10
5349.938286960252
 20
30.00060567661844
 10
5340.591990693217
 20
24.28631996233277
 10
5335.244936523487
 20
24.28631996233277
 10
5325.906905282632
 20
20.00439557796141
 10
5317.916022477863
 20
18.579431332507056
 10
5316.570987760552
 20
17.140321466007634
 10
5306.450899946171
 20
17.8621822990932
 10
5303.746250460901
 20
23.649821398038174
 10
5303.746250460901
 20
26.568633424290944
  0
LWPOLYLINE
  5
65
330
17
100
AcDbEntity
  8
K
100
AcDbPolyline
 90
39
 70
1
 10
5037.4301172796295
 20
71.43268168985095
 10
5035.374029078897
 20
73.63257792894595
 10
5035.374029078897
 20
79.35476188534207
 10
5031.340028325093
 20
85.1096272545373
 10
5032.666781672095
 20
86.52917710518993
 10
5031.33159649109
 20
87.95774853376126
 10
5034.0019668530995
 20
90.81489139090415
 10
5031.343028644221
 20
93.65980250104866
 10
5034.01339900623
 20
97.94551678676288
 10
5032.663130736596
 20
99.39022625354643
 10
5045.491871281202
 20
111.6713978268824
 10
5050.828658660455
 20
105.96134196435236
 10
5052.120429759338
 20
107.3434628194756
 10
5054.8776282855915
 20
107.3434628194756
 10
5056.97386901977
 20
105.10060567661839
 10
5055.638683838765
 20
103.67203424804705
 10
5058.8194421303215
 20
100.26880563140762
 10
5060.711453003745
 20
103.64271050838857
 10
5056.685983840892
 20
106.5140576515704
 10
5058.052964545148
 20
107.97664846315902
 10
5055.374181679452
 20
113.70893596862697
 10
5058.855902580703
 20
115.94408075867536
 10
5060.9794245627845
 20
113.67203424804705
 10
5059.651752756475
 20
112.25150169870668
 10
5066.2944965267325
 20
106.56561836655732
 10
5064.95492292296
 20
100.832551211395
 10
5067.618473423017
 20
96.55778221634547
 10
5067.618473423017
 20
90.77543507180307
 10
5066.320165286805
 20
89.38631996233259
 10
5067.6553504678095
 20
87.95774853376126
 10
5066.283288242012
 20
86.48972078608885
 10
5066.283288242012
 20
80.77543507180307
 10
5063.632130490837
 20
77.93884860436351
 10
5064.967315671842
 20
75.08170574722061
 10
5060.218369009612
 20
70.00060567661848
 10
5057.461170483357
 20
70.00060567661848
 10
5056.169399384475
 20
71.3827265317415
 10
5054.874233835563
 20
69.99697381012115
 10
5037.4301172796295
 20
71.43268168985095
  0
LWPOLYLINE
  5
66
330
17
100
AcDbEntity
  8
K
100
AcDbPolyline
 90
24
 70
1
 10
5991.151673329434
 20
18.573699956911494
 10
5989.015127150467
 20
20.827952917459534
 10
6007.45556977643
 20
34.51946905691949
 10
6011.54892185987
 20
30.20060567661842
 10
6014.170877399549
 20
30.20060567661842
 10
6016.901420117247
 20
33.08157968311121
 10
6019.6093760392405
 20
31.65300825453965
 10
6020.983767395692
 20
33.103117695062465
 10
6025.045701278684
 20
28.81740340934824
 10
6027.740516007813
 20
31.660681097925192
 10
6031.823063745161
 20
28.789038564414504
 10
6034.543960401117
 20
30.224436825968315
 10
6035.920525157818
 20
28.772034248047085
 10
6041.261789506073
 20
28.772034248047085
 10
6045.323723389065
 20
31.629177105189754
 10
6048.123687479232
 20
31.629177105189754
 10
6051.548271518128
 20
25.125324386354396
 10
6051.548271518128
 20
22.203602866575412
 10
6049.460304767789
 20
20.000605676618434
 10
6038.628481079812
 20
20.000605676618434
 10
6037.274503118815
 20
18.572034248046986
 10
6029.150635352832
 20
18.572034248046986
 10
6027.7950519161195
 20
17.141768894756716
 10
5991.151673329434
 20
18.573699956911494
  0
LWPOLYLINE
  5
67
330
17
100
AcDbEntity
  8
K
100
AcDbPolyline
 90
5
 70
1
 10
7259.962643234332
 20
116.52917710518973
 10
7262.205481265666
 20
118.81481122574212
 10
7264.448319297
 20
116.52917710518973
 10
7262.205481265666
 20
114.24354298463757
 10
7259.962643234332
 20
116.52917710518973
  0
LWPOLYLINE
  5
68
330
17
100
AcDbEntity
  8
K
100
AcDbPolyline
 90
5
 70
1
 10
7251.5517056262515
 20
110.81489139090417
 10
7253.7945436575865
 20
113.10052551145633
 10
7256.0373816889205
 20
110.81489139090417
 10
7253.7945436575865
 20
108.52925727035179
 10
7251.5517056262515
 20
110.81489139090417
  0
LWPOLYLINE
  5
69
330
17
100
AcDbEntity
  8
K
100
AcDbPolyline
 90
5
 70
1
 10
7246.785428984186
 20
108.8148112257421
 10
7249.02826701552
 20
106.52917710518994
 10
7246.785428984186
 20
104.24354298463756
 10
7244.542590952852
 20
106.52917710518994
 10
7246.785428984186
 20
108.8148112257421
  0
LWPOLYLINE
  5
6A
330
17
100
AcDbEntity
  8
K
100
AcDbPolyline
 90
5
 70
1
 10
7242.579960180146
 20
104.52909694002787
 10
7244.82279821148
 20
102.2434628194755
 10
7241.178137245466
 20
98.52925727035178
 10
7238.935299214132
 20
100.81489139090417
 10
7242.579960180146
 20
104.52909694002787
  0
LWPOLYLINE
  5
6B
330
17
100
AcDbEntity
  8
K
100
AcDbPolyline
 90
5
 70
1
 10
7235.570845506746
 20
98.81481122574209
 10
7237.81368353808
 20
96.52917710518993
 10
7235.570845506746
 20
94.24354298463756
 10
7233.328007475412
 20
96.52917710518993
 10
7235.570845506746
 20
98.81481122574209
  0
LWPOLYLINE
  5
6C
330
17
100
AcDbEntity
  8
K
100
AcDbPolyline
 90
14
 70
1
 10
7229.963553768026
 20
91.67195408288498
 10
7232.208721646537
 20
89.38394565882591
 10
7210.401058427003
 20
68.59395785012335
 10
7206.14981448659
 20
65.70571593838804
 10
7196.266741771592
 20
68.58333131392236
 10
7194.117068933686
 20
70.77402253535703
 10
7194.117068933686
 20
73.71659733861424
 10
7206.1477221701925
 20
84.53443215813184
 10
7210.348938272822
 20
78.82592490804274
 10
7213.121697373413
 20
81.65159163914004
 10
7215.917448252764
 20
80.22704302859918
 10
7221.503986119134
 20
87.34346281947558
 10
7225.7161089401
 20
87.34346281947558
 10
7229.963553768026
 20
91.67195408288498
  0
LWPOLYLINE
  5
6D
330
17
100
AcDbEntity
  8
K
100
AcDbPolyline
 90
5
 70
1
 10
6952.402612701383
 20
137.1006858417805
 10
6950.159774670049
 20
139.38631996233264
 10
6952.402612701383
 20
141.671954082885
 10
6954.645450732717
 20
139.38631996233264
 10
6952.402612701383
 20
137.1006858417805
  0
LWPOLYLINE
  5
6E
330
17
100
AcDbEntity
  8
K
100
AcDbPolyline
 90
5
 70
1
 10
6947.3561288006895
 20
127.95774853376129
 10
6949.5989668320235
 20
130.24338265431368
 10
6951.8418048633575
 20
127.95774853376129
 10
6949.5989668320235
 20
125.67211441320892
 10
6947.3561288006895
 20
127.95774853376129
  0
LWPOLYLINE
  5
6F
330
17
100
AcDbEntity
  8
K
100
AcDbPolyline
 90
5
 70
1
 10
6948.197143897343
 20
153.10052551145637
 10
6951.8418048633575
 20
149.38631996233264
 10
6949.622084564799
 20
147.124244689135
 10
6944.519559212379
 20
149.35276801860908
 10
6948.197143897343
 20
153.10052551145637
  0
LWPOLYLINE
  5
70
330
17
100
AcDbEntity
  8
K
100
AcDbPolyline
 90
5
 70
1
 10
6948.197143897343
 20
143.10052551145637
 10
6950.439981928677
 20
140.8148913909042
 10
6945.393498027984
 20
135.67211441320893
 10
6943.15065999665
 20
137.9577485337613
 10
6948.197143897343
 20
143.10052551145637
  0
LWPOLYLINE
  5
71
330
17
100
AcDbEntity
  8
K
100
AcDbPolyline
 90
5
 70
1
 10
6950.439981928677
 20
132.24346281947552
 10
6948.197143897343
 20
129.95782869892335
 10
6945.954305866009
 20
132.24346281947552
 10
6948.197143897343
 20
134.5290969400279
 10
6950.439981928677
 20
132.24346281947552
  0
LWPOLYLINE
  5
72
330
17
100
AcDbEntity
  8
K
100
AcDbPolyline
 90
5
 70
1
 10
6943.430867255278
 20
146.52917710518997
 10
6939.766217004585
 20
142.79460085142003
 10
6937.54740163919
 20
146.56318930609413
 10
6941.203708050307
 20
148.7988332282202
 10
6943.430867255278
 20
146.52917710518997
  0
LWPOLYLINE
  5
73
330
17
100
AcDbEntity
  8
K
100
AcDbPolyline
 90
8
 70
1
 10
6934.808341360851
 20
127.87641931148119
 10
6933.357043295965
 20
130.83440052087036
 10
6938.3843833545825
 20
135.95766836859923
 10
6940.627221385917
 20
133.67203424804708
 10
6939.225398451238
 20
132.24346281947552
 10
6940.627221385917
 20
130.8148913909042
 10
6937.009912163879
 20
127.12855949044032
 10
6934.808341360851
 20
127.87641931148119
  0
LWPOLYLINE
  5
74
330
17
100
AcDbEntity
  8
K
100
AcDbPolyline
 90
16
 70
1
 10
6930.534253584529
 20
147.9577485337613
 10
6929.132430649849
 20
149.38631996233264
 10
6930.534253584529
 20
150.8148913909042
 10
6929.120007056112
 20
152.25612347055684
 10
6934.178914550543
 20
155.93857891968275
 10
6939.237822044975
 20
152.25612347055684
 10
6933.618106712517
 20
146.52917710518997
 10
6935.019929647197
 20
145.10060567661841
 10
6933.618106712517
 20
143.67203424804686
 10
6937.823575516557
 20
139.38631996233264
 10
6935.617951553663
 20
137.13861000010218
 10
6929.226016693614
 20
137.86237675396816
 10
6927.730607715169
 20
139.38631996233264
 10
6931.936076519209
 20
143.67203424804686
 10
6929.132430649849
 20
146.52917710518997
 10
6930.534253584529
 20
147.9577485337613
  0
LWPOLYLINE
  5
75
330
17
100
AcDbEntity
  8
K
100
AcDbPolyline
 90
53
 70
1
 10
6853.433992177128
 20
115.1006056766184
 10
6855.6348541845755
 20
117.3434628194756
 10
6858.522452101709
 20
117.3434628194756
 10
6862.727920905749
 20
113.05774853376116
 10
6865.4441196976795
 20
113.05774853376116
 10
6876.638907498127
 20
125.89219631287851
 10
6880.097203786857
 20
128.0067671965719
 10
6878.714550024885
 20
135.05194961973288
 10
6877.305085696003
 20
136.48830824964264
 10
6877.305085696003
 20
143.63116539249975
 10
6875.908805963716
 20
145.05408784760476
 10
6874.494944305668
 20
155.13996690601627
 10
6885.120031450632
 20
164.5240834538959
 10
6886.558910795309
 20
163.0577485337612
 10
6892.148235022556
 20
163.0577485337612
 10
6897.755526761275
 20
160.20060567661832
 10
6900.57714014211
 20
160.20060567661832
 10
6901.97896307679
 20
158.77203424804696
 10
6906.18443188083
 20
158.77203424804696
 10
6907.577577624746
 20
157.35230558163815
 10
6914.586692298146
 20
158.78087701020948
 10
6916.777087654282
 20
156.54868623515594
 10
6913.973441784921
 20
150.8344005208704
 10
6917.369922514361
 20
147.3731107903824
 10
6921.575391318401
 20
150.2302536475255
 10
6923.7903095471065
 20
147.97307207353904
 10
6921.607395013977
 20
144.26546005886155
 10
6917.384391078358
 20
145.6999880618688
 10
6915.394408561677
 20
143.67203424804686
 10
6916.796231496357
 20
142.24346281947552
 10
6914.5662766450005
 20
139.97095770571133
 10
6910.36080784096
 20
142.82810056285422
 10
6908.988077750189
 20
141.42917710518986
 10
6906.18443188083
 20
141.42917710518986
 10
6897.11327888461
 20
132.18493542957677
 10
6895.726738560726
 20
129.35894101578648
 10
6894.323387364965
 20
113.62752365765694
 10
6892.925137977482
 20
112.2025939639284
 10
6892.925137977482
 20
99.41612372300668
 10
6895.728783846843
 20
95.13040943729223
 10
6895.728783846843
 20
90.83810171209983
 10
6898.563727398693
 20
85.06002623681019
 10
6892.14092648655
 20
81.4237174596626
 10
6885.065163587058
 20
82.86587287936497
 10
6881.470450870728
 20
86.52917710518993
 10
6882.872273805408
 20
87.95774853376126
 10
6880.909643032703
 20
89.95782869892332
 10
6879.511897487347
 20
88.53341246124447
 10
6866.852855111343
 20
100.0006056766185
 10
6865.447614727336
 20
100.0006056766185
 10
6854.835815111808
 20
110.81489139090417
 10
6856.237638046488
 20
112.2434628194755
 10
6853.433992177128
 20
115.1006056766184
  0
LWPOLYLINE
  5
76
330
17
100
AcDbEntity
  8
K
100
AcDbPolyline
 90
69
 70
1
 10
7790.428948505376
 20
11.434473668944456
 10
7789.256991148943
 20
12.857748533761315
 10
7782.205040999565
 20
12.857748533761315
 10
7775.676522771654
 20
19.344711455275053
 10
7775.676522771654
 20
27.921875570478647
 10
7773.323885433229
 20
30.77901842762154
 10
7773.323885433229
 20
35.064732713335765
 10
7770.435892441542
 20
38.57203424804689
 10
7739.9361324558095
 20
38.57203424804689
 10
7731.701901771322
 20
31.429177105189776
 10
7728.100210102176
 20
31.429177105189776
 10
7710.455430063989
 20
45.714891390904235
 10
7706.914684304069
 20
45.714891390904235
 10
7701.016962459878
 20
52.87733566794061
 10
7695.175690359136
 20
55.71489139090424
 10
7688.168765467107
 20
55.71489139090424
 10
7683.463490790257
 20
52.85774853376135
 10
7678.777428880281
 20
52.85774853376135
 10
7676.4322270514585
 20
50.00963567576244
 10
7669.374315036184
 20
48.58106424719111
 10
7668.143364538712
 20
47.086145602525995
 10
7665.1025678656815
 20
50.77901842762156
 10
7665.1025678656815
 20
73.63616128476447
 10
7662.2617711926505
 20
77.08614560252602
 10
7658.732815185013
 20
72.8004313168118
 10
7654.515699842769
 20
77.92187557047869
 10
7654.515699842769
 20
82.27933578275804
 10
7657.539212086668
 20
85.95121766189351
 10
7663.420805432731
 20
81.66550337617929
 10
7668.090921613974
 20
87.33709111787546
 10
7698.769242602685
 20
91.63598242122073
 10
7702.944765280481
 20
86.56505006847249
 10
7702.944765280481
 20
82.27933578275804
 10
7708.185395610592
 20
75.91489139090424
 10
7712.890670287442
 20
75.91489139090424
 10
7715.243307625867
 20
73.05774853376134
 10
7729.359131656417
 20
73.05774853376134
 10
7730.535450325629
 20
71.6291771051898
 10
7736.328075163838
 20
71.6291771051898
 10
7743.385987179112
 20
78.77203424804691
 10
7748.180230363817
 20
78.77203424804691
 10
7749.356549033029
 20
77.34346281947558
 10
7752.885505040666
 20
77.34346281947558
 10
7755.242714193723
 20
74.48076775617318
 10
7767.005900885849
 20
73.05219632760185
 10
7768.177647740429
 20
71.6291771051898
 10
7775.141167118392
 20
71.6291771051898
 10
7776.317485787605
 20
73.05774853376134
 10
7778.6701231260295
 20
73.05774853376134
 10
7781.022760464454
 20
75.91489139090424
 10
7784.551716472092
 20
75.91489139090424
 10
7789.256991148942
 20
81.6291771051898
 10
7791.609628487367
 20
81.6291771051898
 10
7792.785947156579
 20
83.05774853376136
 10
7809.348801162865
 20
83.05774853376136
 10
7812.342401517241
 20
79.42219292561536
 10
7812.342401517241
 20
76.56505006847247
 10
7814.6918163973205
 20
73.71182070181703
 10
7815.868135066533
 20
60.85467784467413
 10
7818.223994863303
 20
57.99362149704379
 10
7818.223994863303
 20
52.27933578275823
 10
7819.400313532516
 20
50.85076435418667
 10
7819.400313532516
 20
46.49330414190733
 10
7815.8713575248785
 20
42.20758985619311
 10
7815.8713575248785
 20
27.993621497043762
 10
7818.223994863303
 20
25.136478639900872
 10
7818.223994863303
 20
12.207589856193191
 10
7815.2257892771095
 20
8.56644145863572
 10
7790.428948505376
 20
11.434473668944456
  0
LWPOLYLINE
  5
77
330
17
100
AcDbEntity
  8
K
100
AcDbPolyline
 90
26
 70
1
 10
7467.532949527628
 20
82.14453831970836
 10
7464.593038446299
 20
85.71489139090404
 10
7459.8877637694495
 20
85.71489139090404
 10
7458.070482084287
 20
87.9218755704787
 10
7458.070482084287
 20
152.28909838184745
 10
7462.250268331394
 20
155.91489139090407
 10
7464.604828198582
 20
155.91489139090407
 10
7468.13378420622
 20
158.77203424804696
 10
7470.493844559235
 20
158.77203424804696
 10
7475.1655320841455
 20
161.608782272189
 10
7481.06811740017
 20
167.34346281947543
 10
7485.85801786174
 20
167.34346281947543
 10
7497.641283927837
 20
154.46437324105665
 10
7504.701478603709
 20
150.17727287527993
 10
7508.852184860423
 20
145.136478639901
 10
7508.852184860423
 20
119.4221929256154
 10
7511.204822198848
 20
116.56505006847229
 10
7511.204822198848
 20
113.6361612847645
 10
7508.8480661563335
 20
110.77401649817963
 10
7507.671747487121
 20
100.77401649817963
 10
7505.323228852785
 20
97.9218755704787
 10
7505.323228852785
 20
93.63616128476448
 10
7502.97059151436
 20
90.7790184276216
 10
7502.97059151436
 20
86.49330414190737
 10
7498.79977727098
 20
81.42808991219374
 10
7467.532949527628
 20
82.14453831970836
  0
LWPOLYLINE
  5
78
330
17
100
AcDbEntity
  8
K
100
AcDbPolyline
 90
147
 70
1
 10
8465.582943020981
 20
72.86577138434835
 10
8460.618646815748
 20
79.35244549027387
 10
8460.618646815748
 20
85.13448014867731
 10
8462.805237850214
 20
87.9916230058202
 10
8462.805237850214
 20
103.63815977598811
 10
8460.12260537742
 20
107.14346281947562
 10
8456.868929306573
 20
107.14346281947562
 10
8448.122565168705
 20
111.42917710518985
 10
8444.816468136156
 20
111.42917710518985
 10
8442.629877101688
 20
114.28631996233274
 10
8439.349990549987
 20
114.28631996233274
 10
8438.256695032755
 20
115.71489139090407
 10
8429.609118254306
 20
115.71489139090407
 10
8428.515822737072
 20
114.28631996233274
 10
8424.123018281929
 20
114.28631996233274
 10
8421.97567201988
 20
112.88338842696133
 10
8417.083991580424
 20
106.49159882995463
 10
8415.990696063192
 20
93.63445597281172
 10
8411.023094461336
 20
87.1434628194756
 10
8407.743207909638
 20
87.1434628194756
 10
8406.649912392404
 20
85.71489139090404
 10
8397.903548254537
 20
85.71489139090404
 10
8396.810252737303
 20
84.28631996233271
 10
8388.063888599436
 20
84.28631996233271
 10
8386.970593082202
 20
82.85774853376138
 10
8378.224228944335
 20
82.85774853376138
 10
8377.130933427103
 20
81.42917710518982
 10
8367.192486412583
 20
81.42917710518982
 10
8362.222050264743
 20
87.92387406170232
 10
8362.222050264743
 20
95.06673120455945
 10
8361.128754747508
 20
96.49530263313099
 10
8361.128754747508
 20
113.63815977598813
 10
8358.446122274716
 20
117.14346281947563
 10
8348.705249979033
 20
117.14346281947563
 10
8347.615951305792
 20
115.72011392867365
 10
8334.496405098993
 20
114.29154250010231
 10
8333.399112737767
 20
112.85774853376118
 10
8327.9326351516
 20
112.85774853376118
 10
8326.843336478358
 20
111.43439964295942
 10
8313.705039620898
 20
110.00378647884502
 10
8311.466291429717
 20
108.54113907415264
 10
8295.531023713504
 20
126.49119340702254
 10
8295.531023713504
 20
129.42019443439156
 10
8313.601383681938
 20
153.03210864056103
 10
8315.827219488823
 20
154.48631996233274
 10
8318.092975496498
 20
154.48631996233274
 10
8319.186271013732
 20
153.05774853376118
 10
8324.6527485999
 20
153.05774853376118
 10
8325.746044117132
 20
151.62917710518985
 10
8331.2125217033
 20
151.62917710518985
 10
8332.305817220533
 20
150.20060567661852
 10
8337.772294806698
 20
150.20060567661852
 10
8339.932497516764
 20
147.3779435300391
 10
8342.119088551231
 20
148.80651495861065
 10
8344.3320679101
 20
145.91489139090407
 10
8349.798545496267
 20
145.91489139090407
 10
8350.8918410135
 20
144.48631996233274
 10
8355.166235723014
 20
144.48631996233274
 10
8357.822943829893
 20
147.9577485337613
 10
8356.755572678574
 20
149.3524454902737
 10
8356.755572678574
 20
170.78616664175738
 10
8351.868989151166
 20
178.59021397754393
 10
8344.216352732596
 20
181.44719547940548
 10
8338.808740947761
 20
189.92632256354545
 10
8334.44301457529
 20
184.22177894988724
 10
8332.199303674213
 20
187.15355836060166
 10
8325.639530570814
 20
188.58212978917322
 10
8322.833403432793
 20
192.24879903927828
 10
8330.004328508176
 20
200.1772603321219
 10
8334.466019930596
 20
203.0922292443249
 10
8337.276253368374
 20
199.42019443439162
 10
8337.276253368374
 20
195.1344801486774
 10
8339.909492161458
 20
191.69371811763546
 10
8343.189378713158
 20
195.9794324033497
 10
8345.375969747625
 20
193.12228954620682
 10
8348.024266857406
 20
196.58272775871933
 10
8350.195799575175
 20
200.83892777222778
 10
8350.195799575175
 20
203.70590872010587
 10
8352.38239060964
 20
206.56305157724876
 10
8352.38239060964
 20
212.27733729153454
 10
8356.308924919958
 20
217.40800383192104
 10
8358.495515954426
 20
214.55086097477815
 10
8361.134977742244
 20
217.9997543777492
 10
8362.228273259478
 20
223.714040092035
 10
8365.055289057826
 20
227.40800383192106
 10
8371.16841440261
 20
219.42019443439165
 10
8371.16841440261
 20
215.1293304257651
 10
8376.002333777224
 20
207.409389611231
 10
8383.647244655214
 20
215.971681519729
 10
8385.877297564968
 20
213.05774853376124
 10
8388.067042695713
 20
213.05774853376124
 10
8397.876169670046
 20
198.81636313432182
 10
8403.338555620985
 20
203.09886958111824
 10
8406.593063016233
 20
198.8463173611199
 10
8412.028614553577
 20
207.36925393485683
 10
8415.315045742645
 20
205.93783195587557
 10
8418.626769402263
 20
210.26514668906393
 10
8421.95604963367
 20
205.91489139090413
 10
8424.142640668138
 20
205.91489139090413
 10
8427.436807755961
 20
201.6105172226874
 10
8430.716694307663
 20
200.18194579411585
 10
8433.943632656992
 20
195.96541709263528
 10
8438.2652578376
 20
200.20060567661835
 10
8440.53661479885
 20
200.20060567661835
 10
8447.11178953189
 20
193.0409778865829
 10
8450.396013617863
 20
191.6105172226874
 10
8454.258873712348
 20
186.56305157724873
 10
8454.258873712348
 20
180.7810169188453
 10
8453.165578195114
 20
179.35244549027374
 10
8453.165578195114
 20
176.49530263313085
 10
8450.978987160648
 20
173.63815977598819
 10
8450.978987160648
 20
169.35244549027374
 10
8448.79239612618
 20
166.49530263313085
 10
8448.79239612618
 20
160.78101691884527
 10
8446.605805091715
 20
157.92387406170238
 10
8446.605805091715
 20
153.63815977598816
 10
8445.531458197678
 20
152.23434785779943
 10
8448.203516376452
 20
147.34626748674407
 10
8478.80563288354
 20
148.77436487691952
 10
8479.900712047041
 20
147.3434628194754
 10
8488.556851630336
 20
147.3434628194754
 10
8492.914035085347
 20
151.61349847869786
 10
8496.187076909999
 20
153.0390886512587
 10
8500.560258978932
 20
158.7533743655445
 10
8503.913349479584
 20
160.21383014995538
 10
8506.081771267489
 20
158.797129284332
 10
8509.370297332634
 20
161.6617981103581
 10
8515.980434993467
 20
155.9036393128863
 10
8520.36380428213
 20
154.47174006242025
 10
8523.632532736377
 20
150.20060567661852
 10
8525.819123770845
 20
150.20060567661852
 10
8528.602968884219
 20
146.56305157724893
 10
8528.602968884219
 20
139.4201944343916
 10
8530.787726521772
 20
136.56544721356488
 10
8531.880793200467
 20
116.56963342919546
 10
8539.535924056552
 20
107.99589515629404
 10
8539.535924056552
 20
105.06673120455945
 10
8537.34311002735
 20
102.20145697548743
 10
8536.249814510116
 20
96.48717126120188
 10
8531.876632441183
 20
90.77288554691609
 10
8530.783336923949
 20
85.0585998326303
 10
8526.873751621832
 20
79.95007997488734
 10
8522.500569552898
 20
84.23579426060157
 10
8518.16605515021
 20
78.57203424804693
 10
8508.303567843333
 20
78.57203424804693
 10
8490.802795144957
 20
68.56743552421385
 10
8465.582943020981
 20
72.86577138434835
  0
LWPOLYLINE
  5
79
330
17
100
AcDbEntity
  8
K
100
AcDbPolyline
 90
26
 70
1
 10
8159.449780557809
 20
37.16509803699264
 10
8156.169894006111
 20
41.45081232270687
 10
8150.703416419942
 20
44.307955179849756
 10
8147.913612419917
 20
47.953295550253074
 10
8154.5063647460765
 20
58.003570494585155
 10
8156.695330653658
 20
63.72406253794605
 10
8166.53947582504
 20
75.15784380557689
 10
8169.297429643805
 20
80.20305578219755
 10
8204.384411926505
 20
78.7703387236074
 10
8209.360677852066
 20
73.71298298165118
 10
8209.360677852066
 20
66.56305157724884
 10
8212.640564403766
 20
62.277337291534394
 10
8212.640564403766
 20
55.13448014867728
 10
8214.827155438232
 20
52.27733729153461
 10
8214.827155438232
 20
49.352445490273844
 10
8210.975703222162
 20
44.319886124888356
 10
8206.568269933847
 20
40.00060567661845
 10
8201.110355152525
 20
40.00060567661845
 10
8198.928529451861
 20
37.149689516292824
 10
8187.995574279526
 20
35.72111808772149
 10
8186.897513428491
 20
34.28631996233267
 10
8178.151149290624
 20
34.28631996233267
 10
8177.057853773391
 20
32.85774853376133
 10
8171.591376187223
 20
32.85774853376133
 10
8170.476951816055
 20
31.40156876272826
 10
8159.449780557809
 20
37.16509803699264
  0
ENDSEC
  0
SECTION
  2
OBJECTS
  0
DICTIONARY
  5
A
330
0
100
AcDbDictionary
281
1
  3
ACAD_COLOR
350
B
  3
ACAD_GROUP
350
C
  3
ACAD_LAYOUT
350
D
  3
ACAD_MATERIAL
350
E
  3
ACAD_MLEADERSTYLE
350
F
  3
ACAD_MLINESTYLE
350
10
  3
ACAD_PLOTSETTINGS
350
11
  3
ACAD_PLOTSTYLENAME
350
12
  3
ACAD_SCALELIST
350
14
  3
ACAD_TABLESTYLE
350
15
  3
ACAD_VISUALSTYLE
350
16
  3
EZDXF_META
350
2D
  0
DICTIONARY
  5
B
330
A
100
AcDbDictionary
281
1
  0
DICTIONARY
  5
C
330
A
100
AcDbDictionary
281
1
  0
DICTIONARY
  5
D
330
A
100
AcDbDictionary
281
1
  3
Model
350
1A
  3
Layout1
350
1E
  0
DICTIONARY
  5
E
330
A
100
AcDbDictionary
281
1
  3
ByBlock
350
1F
  3
ByLayer
350
20
  3
Global
350
21
  0
DICTIONARY
  5
F
330
A
100
AcDbDictionary
281
1
  3
Standard
350
2C
  0
DICTIONARY
  5
10
330
A
100
AcDbDictionary
281
1
  3
Standard
350
22
  0
DICTIONARY
  5
11
330
A
100
AcDbDictionary
281
1
  0
ACDBDICTIONARYWDFLT
  5
12
330
A
100
AcDbDictionary
281
1
  3
Normal
350
13
100
AcDbDictionaryWithDefault
340
13
  0
ACDBPLACEHOLDER
  5
13
330
12
  0
DICTIONARY
  5
14
330
A
100
AcDbDictionary
281
1
  0
DICTIONARY
  5
15
330
A
100
AcDbDictionary
281
1
  0
DICTIONARY
  5
16
330
A
100
AcDbDictionary
281
1
  0
LAYOUT
  5
1A
330
D
100
AcDbPlotSettings
  1

  4
A3
  6

 40
7.5
 41
20.0
 42
7.5
 43
20.0
 44
420.0
 45
297.0
 46
0.0
 47
0.0
 48
0.0
 49
0.0
140
0.0
141
0.0
142
1.0
143
1.0
 70
1024
 72
1
 73
0
 74
5
  7

 75
16
 76
0
 77
2
 78
300
147
1.0
148
0.0
149
0.0
100
AcDbLayout
  1
Model
 70
1
 71
0
 10
0.0
 20
0.0
 11
420.0
 21
297.0
 12
0.0
 22
0.0
 32
0.0
 14
1e+20
 24
1e+20
 34
1e+20
 15
-1e+20
 25
-1e+20
 35
-1e+20
146
0.0
 13
0.0
 23
0.0
 33
0.0
 16
1.0
 26
0.0
 36
0.0
 17
0.0
 27
1.0
 37
0.0
 76
1
330
17
  0
LAYOUT
  5
1E
330
D
100
AcDbPlotSettings
  1

  4
A3
  6

 40
7.5
 41
20.0
 42
7.5
 43
20.0
 44
420.0
 45
297.0
 46
0.0
 47
0.0
 48
0.0
 49
0.0
140
0.0
141
0.0
142
1.0
143
1.0
 70
0
 72
1
 73
0
 74
5
  7

 75
16
 76
0
 77
2
 78
300
147
1.0
148
0.0
149
0.0
100
AcDbLayout
  1
Layout1
 70
1
 71
1
 10
0.0
 20
0.0
 11
420.0
 21
297.0
 12
0.0
 22
0.0
 32
0.0
 14
1e+20
 24
1e+20
 34
1e+20
 15
-1e+20
 25
-1e+20
 35
-1e+20
146
0.0
 13
0.0
 23
0.0
 33
0.0
 16
1.0
 26
0.0
 36
0.0
 17
0.0
 27
1.0
 37
0.0
 76
1
330
1B
  0
MATERIAL
  5
1F
102
{ACAD_REACTORS
330
E
102
}
330
E
100
AcDbMaterial
  1
ByBlock
  2

 70
0
 40
1.0
 71
1
 41
1.0
 91
-1023410177
 42
1.0
 72
1
  3

 73
1
 74
1
 75
1
 44
0.5
 73
0
 45
1.0
 46
1.0
 77
1
  4

 78
1
 79
1
170
1
 48
1.0
171
1
  6

172
1
173
1
174
1
140
1.0
141
1.0
175
1
  7

176
1
177
1
178
1
143
1.0
179
1
  8

270
1
271
1
272
1
145
1.0
146
1.0
273
1
  9

274
1
275
1
276
1
 42
1.0
 72
1
  3

 73
1
 74
1
 75
1
 94
63
  0
MATERIAL
  5
20
102
{ACAD_REACTORS
330
E
102
}
330
E
100
AcDbMaterial
  1
ByLayer
  2

 70
0
 40
1.0
 71
1
 41
1.0
 91
-1023410177
 42
1.0
 72
1
  3

 73
1
 74
1
 75
1
 44
0.5
 73
0
 45
1.0
 46
1.0
 77
1
  4

 78
1
 79
1
170
1
 48
1.0
171
1
  6

172
1
173
1
174
1
140
1.0
141
1.0
175
1
  7

176
1
177
1
178
1
143
1.0
179
1
  8

270
1
271
1
272
1
145
1.0
146
1.0
273
1
  9

274
1
275
1
276
1
 42
1.0
 72
1
  3

 73
1
 74
1
 75
1
 94
63
  0
MATERIAL
  5
21
102
{ACAD_REACTORS
330
E
102
}
330
E
100
AcDbMaterial
  1
Global
  2

 70
0
 40
1.0
 71
1
 41
1.0
 91
-1023410177
 42
1.0
 72
1
  3

 73
1
 74
1
 75
1
 44
0.5
 73
0
 45
1.0
 46
1.0
 77
1
  4

 78
1
 79
1
170
1
 48
1.0
171
1
  6

172
1
173
1
174
1
140
1.0
141
1.0
175
1
  7

176
1
177
1
178
1
143
1.0
179
1
  8

270
1
271
1
272
1
145
1.0
146
1.0
273
1
  9

274
1
275
1
276
1
 42
1.0
 72
1
  3

 73
1
 74
1
 75
1
 94
63
  0
MLINESTYLE
  5
22
102
{ACAD_REACTORS
330
10
102
}
330
10
100
AcDbMlineStyle
  2
Standard
 70
0
  3

 62
256
 51
90.0
 52
90.0
 71
2
 49
0.5
 62
256
  6
BYLAYER
 49
-0.5
 62
256
  6
BYLAYER
  0
MLEADERSTYLE
  5
2C
102
{ACAD_REACTORS
330
F
102
}
330
F
100
AcDbMLeaderStyle
179
2
170
2
171
1
172
0
 90
2
 40
0.0
 41
0.0
173
1
 91
-1056964608
 92
-2
290
1
 42
2.0
291
1
 43
8.0
  3
Standard
 44
4.0
300

342
29
174
1
175
1
176
0
178
1
 93
-1056964608
 45
4.0
292
0
297
0
 46
4.0
 94
-1056964608
 47
1.0
 49
1.0
140
1.0
294
1
141
0.0
177
0
142
1.0
295
0
296
0
143
3.75
271
0
272
9
273
9
  0
DICTIONARY
  5
2D
330
A
100
AcDbDictionary
280
1
281
1
  3
CREATED_BY_EZDXF
350
2E
  3
WRITTEN_BY_EZDXF
350
7C
  0
DICTIONARYVAR
  5
2E
330
2D
100
DictionaryVariables
280
0
  1
1.4.4 @ 2026-07-23T17:13:43.202834+00:00
  0
DICTIONARYVAR
  5
7C
330
2D
100
DictionaryVariables
280
0
  1
1.4.4 @ 2026-07-23T17:13:43.213277+00:00
  0
ENDSEC
  0
EOF
