  0
SECTION
  2
HEADER
  9
$ACADVER
  1
AC1027
  9
$ACADMAINTVER
 70
105
  9
$DWGCODEPAGE
  3
ANSI_1252
  9
$LASTSAVEDBY
  1
ezdxf
  9
$REQUIREDVERSIONS
160
0
  9
$INSBASE
 10
0.0
 20
0.0
 30
0.0
  9
$EXTMIN
 10
1e+20
 20
1e+20
 30
1e+20
  9
$EXTMAX
 10
-1e+20
 20
-1e+20
 30
-1e+20
  9
$LIMMIN
 10
0.0
 20
0.0
  9
$LIMMAX
 10
420.0
 20
297.0
  9
$ORTHOMODE
 70
0
  9
$REGENMODE
 70
1
  9
$FILLMODE
 70
1
  9
$QTEXTMODE
 70
0
  9
$MIRRTEXT
 70
1
  9
$LTSCALE
 40
1.0
  9
$ATTMODE
 70
1
  9
$TEXTSIZE
 40
2.5
  9
$TRACEWID
 40
1.0
  9
$TEXTSTYLE
  7
Standard
  9
$CLAYER
  8
0
  9
$CELTYPE
  6
ByLayer
  9
$CECOLOR
 62
256
  9
$CELTSCALE
 40
1.0
  9
$DISPSILH
 70
0
  9
$DIMSCALE
 40
1.0
  9
$DIMASZ
 40
2.5
  9
$DIMEXO
 40
0.625
  9
$DIMDLI
 40
3.75
  9
$DIMRND
 40
0.0
  9
$DIMDLE
 40
0.0
  9
$DIMEXE
 40
1.25
  9
$DIMTP
 40
0.0
  9
$DIMTM
 40
0.0
  9
$DIMTXT
 40
2.5
  9
$DIMCEN
 40
2.5
  9
$DIMTSZ
 40
0.0
  9
$DIMTOL
 70
0
  9
$DIMLIM
 70
0
  9
$DIMTIH
 70
0
  9
$DIMTOH
 70
0
  9
$DIMSE1
 70
0
  9
$DIMSE2
 70
0
  9
$DIMTAD
 70
1
  9
$DIMZIN
 70
8
  9
$DIMBLK
  1

  9
$DIMASO
 70
1
  9
$DIMSHO
 70
1
  9
$DIMPOST
  1

  9
$DIMAPOST
  1

  9
$DIMALT
 70
0
  9
$DIMALTD
 70
3
  9
$DIMALTF
 40
0.03937007874
  9
$DIMLFAC
 40
1.0
  9
$DIMTOFL
 70
1
  9
$DIMTVP
 40
0.0
  9
$DIMTIX
 70
0
  9
$DIMSOXD
 70
0
  9
$DIMSAH
 70
0
  9
$DIMBLK1
  1

  9
$DIMBLK2
  1

  9
$DIMSTYLE
  2
ISO-25
  9
$DIMCLRD
 70
0
  9
$DIMCLRE
 70
0
  9
$DIMCLRT
 70
0
  9
$DIMTFAC
 40
1.0
  9
$DIMGAP
 40
0.625
  9
$DIMJUST
 70
0
  9
$DIMSD1
 70
0
  9
$DIMSD2
 70
0
  9
$DIMTOLJ
 70
0
  9
$DIMTZIN
 70
8
  9
$DIMALTZ
 70
0
  9
$DIMALTTZ
 70
0
  9
$DIMUPT
 70
0
  9
$DIMDEC
 70
2
  9
$DIMTDEC
 70
2
  9
$DIMALTU
 70
2
  9
$DIMALTTD
 70
3
  9
$DIMTXSTY
  7
Standard
  9
$DIMAUNIT
 70
0
  9
$DIMADEC
 70
0
  9
$DIMALTRND
 40
0.0
  9
$DIMAZIN
 70
0
  9
$DIMDSEP
 70
44
  9
$DIMATFIT
 70
3
  9
$DIMFRAC
 70
0
  9
$DIMLDRBLK
  1

  9
$DIMLUNIT
 70
2
  9
$DIMLWD
 70
-2
  9
$DIMLWE
 70
-2
  9
$DIMTMOVE
 70
0
  9
$DIMFXL
 40
1.0
  9
$DIMFXLON
 70
0
  9
$DIMJOGANG
 40
0.785398163397
  9
$DIMTFILL
 70
0
  9
$DIMTFILLCLR
 70
0
  9
$DIMARCSYM
 70
0
  9
$DIMLTYPE
  6

  9
$DIMLTEX1
  6

  9
$DIMLTEX2
  6

  9
$DIMTXTDIRECTION
 70
0
  9
$LUNITS
 70
2
  9
$LUPREC
 70
4
  9
$SKETCHINC
 40
1.0
  9
$FILLETRAD
 40
10.0
  9
$AUNITS
 70
0
  9
$AUPREC
 70
2
  9
$MENU
  1
.
  9
$ELEVATION
 40
0.0
  9
$PELEVATION
 40
0.0
  9
$THICKNESS
 40
0.0
  9
$LIMCHECK
 70
0
  9
$CHAMFERA
 40
0.0
  9
$CHAMFERB
 40
0.0
  9
$CHAMFERC
 40
0.0
  9
$CHAMFERD
 40
0.0
  9
$SKPOLY
 70
0
  9
$TDCREATE
 40
2461256.62212963
  9
$TDUCREATE
 40
2458532.153996898
  9
$TDUPDATE
 40
2461256.62212963
  9
$TDUUPDATE
 40
2458532.1544311
  9
$TDINDWG
 40
0.0
  9
$TDUSRTIMER
 40
0.0
  9
$USRTIMER
 70
1
  9
$ANGBASE
 50
0.0
  9
$ANGDIR
 70
0
  9
$PDMODE
 70
0
  9
$PDSIZE
 40
0.0
  9
$PLINEWID
 40
0.0
  9
$SPLFRAME
 70
0
  9
$SPLINETYPE
 70
6
  9
$SPLINESEGS
 70
8
  9
$HANDSEED
  5
166
  9
$SURFTAB1
 70
6
  9
$SURFTAB2
 70
6
  9
$SURFTYPE
 70
6
  9
$SURFU
 70
6
  9
$SURFV
 70
6
  9
$UCSBASE
  2

  9
$UCSNAME
  2

  9
$UCSORG
 10
0.0
 20
0.0
 30
0.0
  9
$UCSXDIR
 10
1.0
 20
0.0
 30
0.0
  9
$UCSYDIR
 10
0.0
 20
1.0
 30
0.0
  9
$UCSORTHOREF
  2

  9
$UCSORTHOVIEW
 70
0
  9
$UCSORGTOP
 10
0.0
 20
0.0
 30
0.0
  9
$UCSORGBOTTOM
 10
0.0
 20
0.0
 30
0.0
  9
$UCSORGLEFT
 10
0.0
 20
0.0
 30
0.0
  9
$UCSORGRIGHT
 10
0.0
 20
0.0
 30
0.0
  9
$UCSORGFRONT
 10
0.0
 20
0.0
 30
0.0
  9
$UCSORGBACK
 10
0.0
 20
0.0
 30
0.0
  9
$PUCSBASE
  2

  9
$PUCSNAME
  2

  9
$PUCSORG
 10
0.0
 20
0.0
 30
0.0
  9
$PUCSXDIR
 10
1.0
 20
0.0
 30
0.0
  9
$PUCSYDIR
 10
0.0
 20
1.0
 30
0.0
  9
$PUCSORTHOREF
  2

  9
$PUCSORTHOVIEW
 70
0
  9
$PUCSORGTOP
 10
0.0
 20
0.0
 30
0.0
  9
$PUCSORGBOTTOM
 10
0.0
 20
0.0
 30
0.0
  9
$PUCSORGLEFT
 10
0.0
 20
0.0
 30
0.0
  9
$PUCSORGRIGHT
 10
0.0
 20
0.0
 30
0.0
  9
$PUCSORGFRONT
 10
0.0
 20
0.0
 30
0.0
  9
$PUCSORGBACK
 10
0.0
 20
0.0
 30
0.0
  9
$USERI1
 70
0
  9
$USERI2
 70
0
  9
$USERI3
 70
0
  9
$USERI4
 70
0
  9
$USERI5
 70
0
  9
$USERR1
 40
0.0
  9
$USERR2
 40
0.0
  9
$USERR3
 40
0.0
  9
$USERR4
 40
0.0
  9
$USERR5
 40
0.0
  9
$WORLDVIEW
 70
1
  9
$SHADEDGE
 70
3
  9
$SHADEDIF
 70
70
  9
$TILEMODE
 70
1
  9
$MAXACTVP
 70
64
  9
$PINSBASE
 10
0.0
 20
0.0
 30
0.0
  9
$PLIMCHECK
 70
0
  9
$PEXTMIN
 10
1e+20
 20
1e+20
 30
1e+20
  9
$PEXTMAX
 10
-1e+20
 20
-1e+20
 30
-1e+20
  9
$PLIMMIN
 10
0.0
 20
0.0
  9
$PLIMMAX
 10
420.0
 20
297.0
  9
$UNITMODE
 70
0
  9
$VISRETAIN
 70
1
  9
$PLINEGEN
 70
0
  9
$PSLTSCALE
 70
1
  9
$TREEDEPTH
 70
3020
  9
$CMLSTYLE
  2
Standard
  9
$CMLJUST
 70
0
  9
$CMLSCALE
 40
20.0
  9
$PROXYGRAPHICS
 70
1
  9
$MEASUREMENT
 70
1
  9
$CELWEIGHT
370
-1
  9
$ENDCAPS
280
0
  9
$JOINSTYLE
280
0
  9
$LWDISPLAY
290
0
  9
$INSUNITS
 70
4
  9
$HYPERLINKBASE
  1

  9
$STYLESHEET
  1

  9
$XEDIT
290
1
  9
$CEPSNTYPE
380
0
  9
$PSTYLEMODE
290
1
  9
$FINGERPRINTGUID
  2
{17B4DB2E-BEBA-4D13-8D29-F03781948458}
  9
$VERSIONGUID
  2
{3AEA2458-A37C-4335-A8C4-FC755615A500}
  9
$EXTNAMES
290
1
  9
$PSVPSCALE
 40
0.0
  9
$OLESTARTUP
290
0
  9
$SORTENTS
280
127
  9
$INDEXCTL
280
0
  9
$HIDETEXT
280
1
  9
$XCLIPFRAME
280
1
  9
$HALOGAP
280
0
  9
$OBSCOLOR
 70
257
  9
$OBSLTYPE
280
0
  9
$INTERSECTIONDISPLAY
280
0
  9
$INTERSECTIONCOLOR
 70
257
  9
$DIMASSOC
280
2
  9
$PROJECTNAME
  1

  9
$CAMERADISPLAY
290
0
  9
$LENSLENGTH
 40
50.0
  9
$CAMERAHEIGHT
 40
0.0
  9
$STEPSPERSEC
 40
24.0
  9
$STEPSIZE
 40
100.0
  9
$3DDWFPREC
 40
2.0
  9
$PSOLWIDTH
 40
0.005
  9
$PSOLHEIGHT
 40
0.08
  9
$LOFTANG1
 40
1.570796326795
  9
$LOFTANG2
 40
1.570796326795
  9
$LOFTMAG1
 40
0.0
  9
$LOFTMAG2
 40
0.0
  9
$LOFTPARAM
 70
7
  9
$LOFTNORMALS
280
1
  9
$LATITUDE
 40
37.795
  9
$LONGITUDE
 40
-122.394
  9
$NORTHDIRECTION
 40
0.0
  9
$TIMEZONE
 70
-8000
  9
$LIGHTGLYPHDISPLAY
280
1
  9
$TILEMODELIGHTSYNCH
280
1
  9
$CMATERIAL
347
20
  9
$SOLIDHIST
280
0
  9
$SHOWHIST
280
1
  9
$DWFFRAME
280
2
  9
$DGNFRAME
280
2
  9
$REALWORLDSCALE
290
1
  9
$INTERFERECOLOR
 62
256
  9
$CSHADOW
280
0
  9
$SHADOWPLANELOCATION
 40
0.0
  0
ENDSEC
  0
SECTION
  2
CLASSES
  0
CLASS
  1
ACDBDICTIONARYWDFLT
  2
AcDbDictionaryWithDefault
  3
ObjectDBX Classes
 90
0
 91
0
280
0
281
0
  0
CLASS
  1
SUN
  2
AcDbSun
  3
SCENEOE
 90
1153
 91
0
280
0
281
0
  0
CLASS
  1
VISUALSTYLE
  2
AcDbVisualStyle
  3
ObjectDBX Classes
 90
4095
 91
0
280
0
281
0
  0
CLASS
  1
MATERIAL
  2
AcDbMaterial
  3
ObjectDBX Classes
 90
1153
 91
0
280
0
281
0
  0
CLASS
  1
SCALE
  2
AcDbScale
  3
ObjectDBX Classes
 90
1153
 91
0
280
0
281
0
  0
CLASS
  1
TABLESTYLE
  2
AcDbTableStyle
  3
ObjectDBX Classes
 90
4095
 91
0
280
0
281
0
  0
CLASS
  1
MLEADERSTYLE
  2
AcDbMLeaderStyle
  3
ACDB_MLEADERSTYLE_CLASS
 90
4095
 91
0
280
0
281
0
  0
CLASS
  1
DICTIONARYVAR
  2
AcDbDictionaryVar
  3
ObjectDBX Classes
 90
0
 91
0
280
0
281
0
  0
CLASS
  1
CELLSTYLEMAP
  2
AcDbCellStyleMap
  3
ObjectDBX Classes
 90
1152
 91
0
280
0
281
0
  0
CLASS
  1
MENTALRAYRENDERSETTINGS
  2
AcDbMentalRayRenderSettings
  3
SCENEOE
 90
1024
 91
0
280
0
281
0
  0
CLASS
  1
ACDBDETAILVIEWSTYLE
  2
AcDbDetailViewStyle
  3
ObjectDBX Classes
 90
1025
 91
0
280
0
281
0
  0
CLASS
  1
ACDBSECTIONVIEWSTYLE
  2
AcDbSectionViewStyle
  3
ObjectDBX Classes
 90
1025
 91
0
280
0
281
0
  0
CLASS
  1
RASTERVARIABLES
  2
AcDbRasterVariables
  3
ISM
 90
0
 91
0
280
0
281
0
  0
CLASS
  1
ACDBPLACEHOLDER
  2
AcDbPlaceHolder
  3
ObjectDBX Classes
 90
0
 91
0
280
0
281
0
  0
CLASS
  1
LAYOUT
  2
AcDbLayout
  3
ObjectDBX Classes
 90
0
 91
0
280
0
281
0
  0
ENDSEC
  0
SECTION
  2
TABLES
  0
TABLE
  2
VPORT
  5
8
330
0
100
AcDbSymbolTable
 70
1
  0
VPORT
  5
23
330
8
100
AcDbSymbolTableRecord
100
AcDbViewportTableRecord
  2
*Active
 70
0
 10
0.0
 20
0.0
 11
1.0
 21
1.0
 12
0.0
 22
0.0
 13
0.0
 23
0.0
 14
0.5
 24
0.5
 15
0.5
 25
0.5
 16
0.0
 26
0.0
 36
1.0
 17
0.0
 27
0.0
 37
0.0
 40
1000.0
 41
1.34
 42
50.0
 43
0.0
 44
0.0
 50
0.0
 51
0.0
 71
0
 72
1000
 73
1
 74
3
 75
0
 76
0
 77
0
 78
0
281
0
 65
0
146
0.0
  0
ENDTAB
  0
TABLE
  2
LTYPE
  5
2
330
0
100
AcDbSymbolTable
 70
3
  0
LTYPE
  5
24
330
2
100
AcDbSymbolTableRecord
100
AcDbLinetypeTableRecord
  2
ByBlock
 70
0
  3

 72
65
 73
0
 40
0.0
  0
LTYPE
  5
25
330
2
100
AcDbSymbolTableRecord
100
AcDbLinetypeTableRecord
  2
ByLayer
 70
0
  3

 72
65
 73
0
 40
0.0
  0
LTYPE
  5
26
330
2
100
AcDbSymbolTableRecord
100
AcDbLinetypeTableRecord
  2
Continuous
 70
0
  3

 72
65
 73
0
 40
0.0
  0
ENDTAB
  0
TABLE
  2
LAYER
  5
1
330
0
100
AcDbSymbolTable
 70
7
  0
LAYER
  5
27
330
1
100
AcDbSymbolTableRecord
100
AcDbLayerTableRecord
  2
0
 70
0
 62
7
  6
Continuous
370
-3
390
13
347
21
  0
LAYER
  5
28
330
1
100
AcDbSymbolTableRecord
100
AcDbLayerTableRecord
  2
Defpoints
 70
0
 62
7
  6
Continuous
290
0
370
-3
390
13
347
21
  0
LAYER
  5
2F
330
1
100
AcDbSymbolTableRecord
100
AcDbLayerTableRecord
  2
ENG_L
 70
0
 62
4
  6
Continuous
370
-3
390
13
347
21
  0
LAYER
  5
30
330
1
100
AcDbSymbolTableRecord
100
AcDbLayerTableRecord
  2
ENG_D
 70
0
 62
3
  6
Continuous
370
-3
390
13
347
21
  0
LAYER
  5
31
330
1
100
AcDbSymbolTableRecord
100
AcDbLayerTableRecord
  2
ENG_K
 70
0
 62
2
  6
Continuous
370
-3
390
13
347
21
  0
LAYER
  5
32
330
1
100
AcDbSymbolTableRecord
100
AcDbLayerTableRecord
  2
CUT_OUTLINE
 70
0
 62
5
  6
Continuous
370
-3
390
13
347
21
  0
LAYER
  5
33
330
1
100
AcDbSymbolTableRecord
100
AcDbLayerTableRecord
  2
CUT_SLOT
 70
0
 62
1
  6
Continuous
370
-3
390
13
347
21
  0
ENDTAB
  0
TABLE
  2
STYLE
  5
5
330
0
100
AcDbSymbolTable
 70
1
  0
STYLE
  5
29
330
5
100
AcDbSymbolTableRecord
100
AcDbTextStyleTableRecord
  2
Standard
 70
0
 40
0.0
 41
1.0
 50
0.0
 71
0
 42
2.5
  3
txt
  4

  0
ENDTAB
  0
TABLE
  2
VIEW
  5
7
330
0
100
AcDbSymbolTable
 70
0
  0
ENDTAB
  0
TABLE
  2
UCS
  5
6
330
0
100
AcDbSymbolTable
 70
0
  0
ENDTAB
  0
TABLE
  2
APPID
  5
3
330
0
100
AcDbSymbolTable
 70
3
  0
APPID
  5
2A
330
3
100
AcDbSymbolTableRecord
100
AcDbRegAppTableRecord
  2
ACAD
 70
0
  0
APPID
  5
163
330
3
100
AcDbSymbolTableRecord
100
AcDbRegAppTableRecord
  2
HATCHBACKGROUNDCOLOR
 70
0
  0
APPID
  5
164
330
3
100
AcDbSymbolTableRecord
100
AcDbRegAppTableRecord
  2
EZDXF
 70
0
  0
ENDTAB
  0
TABLE
  2
DIMSTYLE
  5
4
330
0
100
AcDbSymbolTable
 70
1
100
AcDbDimStyleTable
  0
DIMSTYLE
105
2B
330
4
100
AcDbSymbolTableRecord
100
AcDbDimStyleTableRecord
  2
Standard
 70
0
 40
1.0
 41
2.5
 42
0.625
 43
3.75
 44
1.25
 45
0.0
 46
0.0
 47
0.0
 48
0.0
 49
2.5
140
2.5
141
2.5
142
0.0
143
0.03937007874
144
1.0
145
0.0
146
1.0
147
0.625
148
0.0
 69
0
 70
0
 71
0
 72
0
 73
0
 74
0
 75
0
 76
0
 77
1
 78
8
 79
3
170
0
171
3
172
1
173
0
174
0
175
0
176
0
177
0
178
0
179
2
271
2
272
2
273
2
274
3
275
0
276
0
277
2
278
44
279
0
280
0
281
0
282
0
283
0
284
8
285
0
286
0
288
0
289
3
290
0
371
-2
372
-2
  0
ENDTAB
  0
TABLE
  2
BLOCK_RECORD
  5
9
330
0
100
AcDbSymbolTable
 70
2
  0
BLOCK_RECORD
  5
17
330
9
100
AcDbSymbolTableRecord
100
AcDbBlockTableRecord
  2
*Model_Space
340
1A
 70
0
280
1
281
0
  0
BLOCK_RECORD
  5
1B
330
9
100
AcDbSymbolTableRecord
100
AcDbBlockTableRecord
  2
*Paper_Space
340
1E
 70
0
280
1
281
0
  0
ENDTAB
  0
ENDSEC
  0
SECTION
  2
BLOCKS
  0
BLOCK
  5
18
330
17
100
AcDbEntity
  8
0
100
AcDbBlockBegin
  2
*Model_Space
 70
0
 10
0.0
 20
0.0
 30
0.0
  3
*Model_Space
  1

  0
ENDBLK
  5
19
330
17
100
AcDbEntity
  8
0
100
AcDbBlockEnd
  0
BLOCK
  5
1C
330
1B
100
AcDbEntity
  8
0
100
AcDbBlockBegin
  2
*Paper_Space
 70
0
 10
0.0
 20
0.0
 30
0.0
  3
*Paper_Space
  1

  0
ENDBLK
  5
1D
330
1B
100
AcDbEntity
  8
0
100
AcDbBlockEnd
  0
ENDSEC
  0
SECTION
  2
ENTITIES
  0
LWPOLYLINE
  5
34
330
17
100
AcDbEntity
  8
ENG_L
100
AcDbPolyline
 90
4
 70
1
 10
213.33216930609626
 20
99.51119562921318
 10
216.71134081719205
 20
99.51119562921318
 10
215.44415150053112
 20
98.24400631255237
 10
213.33216930609626
 20
99.51119562921318
  0
LWPOLYLINE
  5
35
330
17
100
AcDbEntity
  8
ENG_L
100
AcDbPolyline
 90
24
 70
1
 10
205.76891299600032
 20
114.07255313966613
 10
205.76891299600032
 20
111.94841664192478
 10
206.6713460537986
 20
111.49720011302577
 10
207.24303618515444
 20
110.35381985031401
 10
206.77517378996245
 20
109.41809505993005
 10
208.2010078690622
 20
107.58487981537324
 10
209.1421738647872
 20
108.52604581109826
 10
209.6240682746139
 20
108.04415140127155
 10
210.5878570942673
 20
109.00794022092497
 10
211.53265963265596
 20
108.06313768253617
 10
212.01951333272018
 20
105.62886918221525
 10
212.9973291434008
 20
104.16214546619418
 10
212.9973291434008
 20
101.2976296636977
 10
214.2450334564896
 20
100.04992535060886
 10
211.6622568522446
 20
99.76295017235948
 10
211.15493920534513
 20
99.2556325254601
 10
204.2576071574749
 20
100.24096567515583
 10
202.38864721138526
 20
101.04194850919424
 10
202.88184508660632
 20
112.38549963927791
 10
203.3594409468668
 20
112.86309549953843
 10
203.3594409468668
 20
113.84126057036181
 10
206.18012864661898
 20
116.14909596106804
 10
208.64333903454502
 20
115.79720876279298
 10
205.76891299600032
 20
114.07255313966613
  0
LWPOLYLINE
  5
36
330
17
100
AcDbEntity
  8
ENG_L
100
AcDbPolyline
 90
5
 70
1
 10
196.15927947714871
 20
87.46383538354586
 10
194.8264851748085
 20
87.46383538354586
 10
194.129689343917
 20
88.1606312144374
 10
195.819065821628
 20
90.52575828323273
 10
196.15927947714871
 20
87.46383538354586
  0
LWPOLYLINE
  5
37
330
17
100
AcDbEntity
  8
ENG_L
100
AcDbPolyline
 90
21
 70
1
 10
194.68534156998624
 20
90.97823985715503
 10
194.22934027145808
 20
90.52223855862684
 10
194.7193300672272
 20
88.5622793755505
 10
193.20115090532676
 20
87.5501599342835
 10
192.9274791199764
 20
86.72914457823244
 10
189.00898025130678
 20
86.99037783614372
 10
186.97503101275905
 20
90.04130169396518
 10
186.97503101275905
 20
91.66621468217461
 10
192.66431286698807
 20
96.86077637516644
 10
194.1036435600685
 20
96.86077637516644
 10
195.16723597981294
 20
97.92436879491085
 10
196.13102479946633
 20
96.96057997525742
 10
196.13102479946633
 20
94.30239076390212
 10
195.33304742129414
 20
93.90340207481607
 10
195.74893398973066
 20
93.48751550637957
 10
195.16723597981294
 20
92.90581749646188
 10
195.16723597981294
 20
92.28277948181274
 10
196.13102479946633
 20
92.28277948181274
 10
196.13102479946633
 20
90.49634544732832
 10
195.64913038963965
 20
90.0144510375016
 10
194.68534156998624
 20
90.97823985715503
  0
LWPOLYLINE
  5
38
330
17
100
AcDbEntity
  8
ENG_L
100
AcDbPolyline
 90
6
 70
1
 10
189.86639747171927
 20
113.34498990936514
 10
189.86639747171927
 20
111.72228792090289
 10
188.34175953369194
 20
109.58779480766468
 10
186.92627480778714
 20
113.83424898537919
 10
188.45806455023597
 20
114.75332283084838
 10
189.86639747171927
 20
113.34498990936514
  0
LWPOLYLINE
  5
39
330
17
100
AcDbEntity
  8
ENG_L
100
AcDbPolyline
 90
11
 70
1
 10
187.9388198324125
 20
106.44178465235244
 10
187.36489177980314
 20
105.2939285471337
 10
186.1032758358883
 20
105.2939285471337
 10
185.04516830169638
 20
107.41014361551748
 10
185.30140634302492
 20
113.81609464873144
 10
186.4610352219775
 20
113.42955168908053
 10
186.95604473149436
 20
110.95450414149643
 10
187.45692542258575
 20
110.45362345040499
 10
187.45692542258575
 20
109.00794022092487
 10
187.9388198324125
 20
108.52604581109814
 10
187.9388198324125
 20
106.44178465235244
  0
LWPOLYLINE
  5
3A
330
17
100
AcDbEntity
  8
ENG_L
100
AcDbPolyline
 90
4
 70
1
 10
181.29210169492973
 20
242.87478255265603
 10
180.46945648009861
 20
242.05213733782549
 10
180.46945648009861
 20
243.69742776748726
 10
181.29210169492973
 20
242.87478255265603
  0
LWPOLYLINE
  5
3B
330
17
100
AcDbEntity
  8
ENG_L
100
AcDbPolyline
 90
4
 70
1
 10
179.50566766044523
 20
245.42539820661236
 10
179.50566766044523
 20
247.07068863627413
 10
180.32831287527634
 20
246.2480434214429
 10
179.50566766044523
 20
245.42539820661236
  0
LWPOLYLINE
  5
3C
330
17
100
AcDbEntity
  8
ENG_L
100
AcDbPolyline
 90
43
 70
1
 10
168.6630434393445
 20
249.4372370046647
 10
168.6630434393445
 20
251.49200201018851
 10
167.64702677987805
 20
253.5240353291215
 10
168.11607141660883
 20
253.9930799658523
 10
169.0647430436754
 20
253.67685609016343
 10
169.53416162563806
 20
252.89449178689227
 10
170.04844492750607
 20
254.95162499436418
 10
171.0104111635205
 20
252.7070371103304
 10
171.43235546628364
 20
252.56638900940942
 10
171.92854944229634
 20
253.55877696143514
 10
172.95251736750677
 20
253.04679299882983
 10
173.86407834734723
 20
253.9583539786703
 10
175.0274743671825
 20
253.9583539786703
 10
175.5093687770092
 20
253.4764595688437
 10
176.52226755870248
 20
253.4764595688437
 10
177.0261246112278
 20
252.46874546379283
 10
177.8190372260518
 20
252.20444125885155
 10
177.8190372260518
 20
251.166791119801
 10
178.83505388551828
 20
250.15077446033462
 10
178.38324902847003
 20
249.24716474623798
 10
179.430531897013
 20
248.7235233119667
 10
178.85192866319258
 20
248.14492007814604
 10
179.81571748284597
 20
246.699236848666
 10
179.316948295345
 20
246.20046766116488
 10
180.25694923485938
 20
244.3204657821363
 10
179.79884270517167
 20
243.4042527227609
 10
180.2285092751853
 20
242.97458615274704
 10
180.2285092751853
 20
241.32929572308504
 10
179.31229621580997
 20
240.41308266370964
 10
178.47533296951693
 20
240.83156428685615
 10
178.2221593194194
 20
239.56569603636856
 10
174.4955119390687
 20
242.29857078195894
 10
173.0261622148639
 20
240.33943781635259
 10
171.91751442677557
 20
241.44808560444096
 10
170.6212397094427
 20
241.70734054790734
 10
170.12469910877346
 20
244.686584151923
 10
169.62683225899792
 20
245.1844510016985
 10
169.62683225899792
 20
247.11202864100534
 10
169.14493784917124
 20
247.59392305083216
 10
168.61520604609026
 20
247.06419124775115
 10
167.6856650716123
 20
248.61342620521444
 10
168.08260329088586
 20
250.5981173015821
 10
168.6630434393445
 20
249.4372370046647
  0
LWPOLYLINE
  5
3D
330
17
100
AcDbEntity
  8
ENG_L
100
AcDbPolyline
 90
4
 70
1
 10
174.74305933684744
 20
243.59762416739628
 10
174.55981795415235
 20
243.90302647188798
 10
174.49873749325397
 20
243.59762416739628
 10
174.74305933684744
 20
243.59762416739628
  0
LWPOLYLINE
  5
3E
330
17
100
AcDbEntity
  8
ENG_L
100
AcDbPolyline
 90
5
 70
1
 10
174.01378374748367
 20
246.09833802130643
 10
173.97849784627812
 20
245.8513367128674
 10
174.3404785676716
 20
245.48935599147393
 10
174.41105037008276
 20
245.70107139870734
 10
174.01378374748367
 20
246.09833802130643
  0
LWPOLYLINE
  5
3F
330
17
100
AcDbEntity
  8
ENG_L
100
AcDbPolyline
 90
4
 70
1
 10
174.0750615313988
 20
246.52728250871215
 10
174.34697142633516
 20
247.07110229858498
 10
174.1615783161513
 20
247.13290000197975
 10
174.0750615313988
 20
246.52728250871215
  0
LWPOLYLINE
  5
40
330
17
100
AcDbEntity
  8
ENG_L
100
AcDbPolyline
 90
5
 70
1
 10
169.23828703368824
 20
235.88731361016892
 10
168.1811490295178
 20
235.88731361016892
 10
168.1811490295178
 20
236.7099588249999
 10
168.7683412289378
 20
237.29715102442017
 10
169.23828703368824
 20
235.88731361016892
  0
LWPOLYLINE
  5
41
330
17
100
AcDbEntity
  8
ENG_L
100
AcDbPolyline
 90
5
 70
1
 10
168.59858833976577
 20
237.20609123162316
 10
166.76440471905568
 20
236.10558105919722
 10
165.56657559069993
 20
236.50485743531547
 10
166.65627254580045
 20
237.59455439041633
 10
168.59858833976577
 20
237.20609123162316
  0
LWPOLYLINE
  5
42
330
17
100
AcDbEntity
  8
ENG_L
100
AcDbPolyline
 90
4
 70
1
 10
167.7990582197821
 20
236.1282608150823
 10
166.9764130049511
 20
235.3056156002511
 10
166.9764130049511
 20
236.95090602991354
 10
167.7990582197821
 20
236.1282608150823
  0
LWPOLYLINE
  5
43
330
17
100
AcDbEntity
  8
ENG_L
100
AcDbPolyline
 90
7
 70
1
 10
166.33276464444825
 20
250.60570345573717
 10
167.1983739285997
 20
249.74009417158572
 10
167.71194493840383
 20
247.1722391225648
 10
166.40609126972714
 20
244.82170251894675
 10
164.29939890219293
 20
244.52074646644184
 10
164.8251659244933
 20
250.30418371174613
 10
166.33276464444825
 20
250.60570345573717
  0
LWPOLYLINE
  5
44
330
17
100
AcDbEntity
  8
ENG_L
100
AcDbPolyline
 90
14
 70
1
 10
161.83732844753354
 20
239.96280574784203
 10
160.63259242296675
 20
239.72185854292883
 10
159.98894406246396
 20
240.36550690343162
 10
159.98894406246396
 20
241.6027642426639
 10
161.01781049502634
 20
241.94571972018485
 10
161.43462729194408
 20
241.528902923267
 10
161.91652170177073
 20
242.01079733309362
 10
161.91652170177073
 20
245.4817840607264
 10
163.58434386829578
 20
245.81534849403153
 10
163.85083848291464
 20
241.81792927474865
 10
163.36220493125083
 20
241.32929572308504
 10
163.36220493125083
 20
240.36550690343162
 10
162.39841611159747
 20
239.40171808377818
 10
161.83732844753354
 20
239.96280574784203
  0
LWPOLYLINE
  5
45
330
17
100
AcDbEntity
  8
ENG_L
100
AcDbPolyline
 90
47
 70
1
 10
155.6043186137456
 20
245.33648244160267
 10
156.0946536036531
 20
245.82681743151014
 10
154.68181428010195
 20
249.59438896097996
 10
154.96102756132436
 20
251.54888192953683
 10
156.23359238394139
 20
251.54888192953683
 10
157.05465392276088
 20
250.72782039071706
 10
158.11359426297022
 20
248.60993971029853
 10
157.57947201333047
 20
248.07581746065875
 10
157.57947201333047
 20
246.34784702153388
 10
158.06136642315715
 20
245.86595261170729
 10
158.06136642315715
 20
244.90216379205387
 10
159.0773830826236
 20
243.8861471325875
 10
158.59548867279693
 20
242.92235831293408
 10
159.02515524281054
 20
242.49269174292044
 10
159.02515524281054
 20
241.528902923267
 10
159.96995778119918
 20
240.58410038487833
 10
160.4387370913358
 20
238.2402038341953
 10
160.8306784500963
 20
238.10955671460854
 10
161.28571372981332
 20
239.0196272740426
 10
162.01632530186168
 20
239.0196272740426
 10
162.95750452216504
 20
238.07844805373924
 10
161.43462729194405
 20
236.04794508011116
 10
161.43462729194405
 20
234.10087957568447
 10
160.96548892995375
 20
233.63174121369434
 10
161.44738333978046
 20
229.77658593508065
 10
160.95273288211735
 20
229.2819354774176
 10
160.95273288211735
 20
226.39056901845734
 10
160.05402167537292
 20
225.4918578117129
 10
159.09522624289443
 20
225.81145628920575
 10
158.54326083298383
 20
226.91538710902702
 10
158.54326083298383
 20
228.80004106759077
 10
158.06136642315715
 20
229.2819354774176
 10
158.06136642315715
 20
231.6622600959195
 10
156.6454699159734
 20
232.60619110070868
 10
156.16786067120154
 20
234.5166280797961
 10
155.16999996419696
 20
235.01555843329825
 10
155.16999996419696
 20
236.24873441753903
 10
157.09757760350377
 20
237.69441764701904
 10
157.09757760350377
 20
239.60132528396016
 10
157.44221923484227
 20
239.94596691529878
 10
156.13378878385035
 20
240.8182538826269
 10
156.13378878385035
 20
241.81119013291163
 10
154.68810555437025
 20
243.25687336239187
 10
154.68810555437025
 20
244.2206621820453
 10
154.1714851573614
 20
244.73728257905393
 10
154.54737561185874
 20
245.86495394254592
 10
155.6043186137456
 20
245.33648244160267
  0
LWPOLYLINE
  5
46
330
17
100
AcDbEntity
  8
ENG_L
100
AcDbPolyline
 90
10
 70
1
 10
156.61568319367706
 20
262.9168183064405
 10
156.61568319367706
 20
264.4602273947665
 10
155.63128402816983
 20
265.44462656027366
 10
155.93625932491332
 20
266.96950304399115
 10
157.16001329571824
 20
266.96950304399115
 10
159.78243800420591
 20
265.5126004281645
 10
158.62557822557537
 20
264.9341705388495
 10
159.05886936049464
 20
264.0675882690109
 10
158.18061550553006
 20
262.60383184406976
 10
156.61568319367706
 20
262.9168183064405
  0
LWPOLYLINE
  5
47
330
17
100
AcDbEntity
  8
ENG_L
100
AcDbPolyline
 90
6
 70
1
 10
156.03398518375934
 20
256.84972043763054
 10
157.29510706244082
 20
256.84972043763054
 10
157.60008235918428
 20
255.32484395391307
 10
156.05251410104046
 20
253.77727569576925
 10
155.12522200329775
 20
255.9409572571687
 10
156.03398518375934
 20
256.84972043763054
  0
LWPOLYLINE
  5
48
330
17
100
AcDbEntity
  8
ENG_L
100
AcDbPolyline
 90
9
 70
1
 10
155.68773168086238
 20
229.1869434945155
 10
156.61568319367706
 20
227.0217232979481
 10
156.61568319367706
 20
224.66259857933247
 10
157.11818794935758
 20
224.1600938236521
 10
156.7984232896407
 20
222.5612705250677
 10
155.71063101754658
 20
222.92386794909925
 10
154.68810555437025
 20
225.48018160703998
 10
154.68810555437025
 20
227.52089995036195
 10
155.68773168086238
 20
229.1869434945155
  0
LWPOLYLINE
  5
49
330
17
100
AcDbEntity
  8
ENG_L
100
AcDbPolyline
 90
6
 70
1
 10
154.00110975485916
 20
234.78787537519574
 10
155.36769633291001
 20
235.2434042345457
 10
155.68876163052957
 20
232.99594715120864
 10
154.68810555437025
 20
232.99594715120864
 10
154.68810555437025
 20
234.10087957568447
 10
154.00110975485916
 20
234.78787537519574
  0
LWPOLYLINE
  5
4A
330
17
100
AcDbEntity
  8
ENG_L
100
AcDbPolyline
 90
13
 70
1
 10
151.7967390954101
 20
229.48154267759958
 10
151.7967390954101
 20
225.4267801988039
 10
151.31484468558338
 20
224.9448857889773
 10
151.31484468558338
 20
222.05351933001705
 10
150.1669439725856
 20
220.9056186170193
 10
149.89009152027478
 20
223.397290687817
 10
148.78658275509403
 20
223.61799244085302
 10
146.99157499872024
 20
225.41300019722678
 10
146.46316566779782
 20
229.11186551368345
 10
148.94948440787508
 20
229.38812315146984
 10
149.78666816289817
 20
228.96953127395835
 10
150.7955010973594
 20
230.4827806756502
 10
151.7967390954101
 20
229.48154267759958
  0
LWPOLYLINE
  5
4B
330
17
100
AcDbEntity
  8
ENG_L
100
AcDbPolyline
 90
6
 70
1
 10
150.8558481680491
 20
214.6839595777943
 10
149.2383534841459
 20
214.6839595777943
 10
149.87711272184723
 20
215.961478053197
 10
150.2800838728951
 20
218.78227611053214
 10
150.48374836849877
 20
218.7770573728479
 10
150.8558481680491
 20
214.6839595777943
  0
LWPOLYLINE
  5
4C
330
17
100
AcDbEntity
  8
ENG_L
100
AcDbPolyline
 90
4
 70
1
 10
150.450859466021
 20
218.29816765149445
 10
149.62821425118992
 20
217.47552243666357
 10
149.62821425118992
 20
219.12081286632568
 10
150.450859466021
 20
218.29816765149445
  0
LWPOLYLINE
  5
4D
330
17
100
AcDbEntity
  8
ENG_L
100
AcDbPolyline
 90
4
 70
1
 10
150.0171354052023
 20
221.43731165964488
 10
150.4429934752802
 20
219.30802130925542
 10
148.73956119496881
 20
220.1597374494111
 10
150.0171354052023
 20
221.43731165964488
  0
LWPOLYLINE
  5
4E
330
17
100
AcDbEntity
  8
ENG_L
100
AcDbPolyline
 90
4
 70
1
 10
148.66442543153653
 20
212.65657833839657
 10
148.66442543153653
 20
214.30186876805868
 10
149.48707064636758
 20
213.47922355322746
 10
148.66442543153653
 20
212.65657833839657
  0
LWPOLYLINE
  5
4F
330
17
100
AcDbEntity
  8
ENG_L
100
AcDbPolyline
 90
4
 70
1
 10
148.18253102170982
 20
211.69278951874304
 10
148.18253102170982
 20
213.33807994840538
 10
149.00517623654088
 20
212.51543473357404
 10
148.18253102170982
 20
211.69278951874304
  0
LWPOLYLINE
  5
50
330
17
100
AcDbEntity
  8
ENG_L
100
AcDbPolyline
 90
4
 70
1
 10
148.18253102170982
 20
213.13847274822317
 10
148.18253102170982
 20
214.7837631778855
 10
149.00517623654088
 20
213.96111796305416
 10
148.18253102170982
 20
213.13847274822317
  0
LWPOLYLINE
  5
51
330
17
100
AcDbEntity
  8
ENG_L
100
AcDbPolyline
 90
4
 70
1
 10
147.7006366118831
 20
210.2471062892628
 10
147.7006366118831
 20
211.8923967189249
 10
148.5232818267142
 20
211.06975150409403
 10
147.7006366118831
 20
210.2471062892628
  0
LWPOLYLINE
  5
52
330
17
100
AcDbEntity
  8
ENG_L
100
AcDbPolyline
 90
4
 70
1
 10
147.21874220205643
 20
209.28331746960959
 10
147.21874220205643
 20
210.92860789927192
 10
148.0413874168875
 20
210.10596268444058
 10
147.21874220205643
 20
209.28331746960959
  0
LWPOLYLINE
  5
53
330
17
100
AcDbEntity
  8
ENG_L
100
AcDbPolyline
 90
4
 70
1
 10
146.25495338240302
 20
208.31952864995628
 10
146.25495338240302
 20
209.9648190796184
 10
147.0775985972341
 20
209.14217386478717
 10
146.25495338240302
 20
208.31952864995628
  0
LWPOLYLINE
  5
54
330
17
100
AcDbEntity
  8
ENG_L
100
AcDbPolyline
 90
53
 70
1
 10
123.87725310609245
 20
138.41092415336053
 10
125.65565108341265
 20
138.76660374882454
 10
126.16497990508796
 20
139.27593257049986
 10
131.94771282300835
 20
138.79403816067315
 10
132.42115910225104
 20
139.26748443991588
 10
133.26909346271387
 20
139.26748443991588
 10
133.47836744803408
 20
141.15095030779756
 10
132.92851022424207
 20
142.2506647553814
 10
134.4858906496457
 20
143.18509301062366
 10
137.28144320524927
 20
140.38954045502015
 10
138.78559003008922
 20
138.38401135523358
 10
138.78559003008922
 20
137.43971040070014
 10
139.39803405699254
 20
136.82726637379682
 10
137.4288875345699
 20
135.42073314349489
 10
133.11346805049274
 20
134.9412420897086
 10
132.56853846262007
 20
134.39631250183592
 10
131.60474964296668
 20
134.87820691166263
 10
131.18027569901852
 20
134.45373296771444
 10
126.41685458232827
 20
134.20302659315175
 10
123.73606115363144
 20
136.39640303481272
 10
121.78337266193006
 20
136.8845751577381
 10
119.46069579937517
 20
139.72340243419413
 10
120.81372272419847
 20
142.15885089887604
 10
122.30137649589038
 20
142.15885089887604
 10
123.24617903427915
 20
143.10365343726482
 10
123.99401767066317
 20
143.25322116454166
 10
122.32371301407102
 20
144.5059496569857
 10
123.23790735659149
 20
146.02960689451982
 10
126.73667807417397
 20
145.64085459256626
 10
126.73948756698408
 20
145.46100316510692
 10
126.3978612502492
 20
145.41219940557338
 10
127.59683245154827
 20
145.17240516531348
 10
125.85830791171817
 20
144.0133888054267
 10
126.39275736385652
 20
143.12263971852946
 10
127.58154500161848
 20
143.12263971852946
 10
129.02722823109855
 20
145.05021735783617
 10
130.0116870531175
 20
145.05021735783617
 10
130.59338506303533
 20
145.63191536775412
 10
130.83433226794867
 20
145.3909681628408
 10
130.83433226794867
 20
146.1073553620066
 10
132.03906829251542
 20
145.70577668715111
 10
132.03906829251542
 20
144.66812654810056
 10
132.598156703083
 20
144.10903813753296
 10
131.06412791797803
 20
142.06366642405965
 10
130.81085106861974
 20
140.2907284785515
 10
129.1292140214013
 20
139.73018279614558
 10
128.18391301390184
 20
140.20283329989513
 10
127.17254843397049
 20
139.69715100992963
 10
126.63842618433071
 20
140.2312732595693
 10
124.87739065727519
 20
140.2312732595693
 10
123.92121021338829
 20
139.65756499323723
 10
124.4110751278798
 20
138.67783516425413
 10
123.87725310609245
 20
138.41092415336053
  0
LWPOLYLINE
  5
55
330
17
100
AcDbEntity
  8
ENG_L
100
AcDbPolyline
 90
5
 70
1
 10
125.41420229464403
 20
145.27167669762974
 10
124.08781053037491
 20
145.08219215987705
 10
124.08781053037491
 20
145.05021735783617
 10
125.19274295485053
 20
145.05021735783617
 10
125.41420229464403
 20
145.27167669762974
  0
LWPOLYLINE
  5
56
330
17
100
AcDbEntity
  8
ENG_L
100
AcDbPolyline
 90
5
 70
1
 10
130.52830745012648
 20
20.204839225539285
 10
129.9063892635243
 20
20.82675741214124
 10
131.14035708577094
 20
21.23808001955696
 10
131.76227527237302
 20
20.61616183295467
 10
130.52830745012648
 20
20.204839225539285
  0
LWPOLYLINE
  5
57
330
17
100
AcDbEntity
  8
ENG_L
100
AcDbPolyline
 90
34
 70
1
 10
114.13506464013514
 20
29.42145211072722
 10
116.00748093038504
 20
28.95334803816474
 10
116.43885573500283
 20
29.81609764740034
 10
117.72296594022592
 20
30.45815275001185
 10
118.08903113915557
 20
29.359957153222815
 10
117.21127484076683
 20
28.043322705639806
 10
118.06413040754117
 20
27.616894922252612
 10
118.06413040754117
 20
26.65310610259919
 10
118.98399394179724
 20
26.19317433547108
 10
119.20158414668262
 20
25.540403720815007
 10
120.32468889454391
 20
25.540403720815007
 10
120.84158974525951
 20
26.5742054222462
 10
122.85353862133479
 20
25.711941618213885
 10
123.08784025574128
 20
24.54043344618151
 10
124.27217591018122
 20
24.303566315293402
 10
124.88459895998201
 20
22.466297165891103
 10
123.54933429544117
 20
22.199244232982917
 10
123.39969490281696
 20
21.750326055110293
 10
123.84686332546156
 20
21.30315763246571
 10
123.84686332546156
 20
20.368516243444045
 10
125.4297993334299
 20
19.313225571465196
 10
124.41933356784642
 20
18.302759805881696
 10
121.49958808334134
 20
18.568191213564013
 10
121.25589929039701
 20
19.299257592396923
 10
117.950546805873
 20
19.771450804471847
 10
117.58223599771448
 20
20.139761612630313
 10
117.14791734816572
 20
19.70544296308163
 10
116.18412852851233
 20
20.187337372908342
 10
115.68070414225609
 20
19.683912986652064
 10
113.72708071910087
 20
21.079358288905723
 10
113.72708071910087
 20
22.067339251937156
 10
113.24518630927417
 20
22.549233661763868
 10
113.24518630927417
 20
28.53157377986626
 10
114.13506464013514
 20
29.42145211072722
  0
LWPOLYLINE
  5
58
330
17
100
AcDbEntity
  8
ENG_L
100
AcDbPolyline
 90
29
 70
1
 10
118.98034346691661
 20
134.39631250183592
 10
118.11219253341335
 20
133.96223703508426
 10
111.69215364067229
 20
134.45608618067973
 10
111.31760866996738
 20
134.8306311513846
 10
110.93551786023176
 20
134.448540341649
 10
109.81504552113904
 20
134.448540341649
 10
107.02813474180503
 20
135.84199573131593
 10
106.4986645717004
 20
135.31252556121143
 10
105.91696656178266
 20
135.894223571129
 10
104.62796685174183
 20
135.894223571129
 10
103.36635090782686
 20
135.26341559917165
 10
103.36635090782686
 20
136.03536717595134
 10
103.22520730300458
 20
135.894223571129
 10
100.09761525469182
 20
135.894223571129
 10
99.22330700982668
 20
137.35140397923772
 10
100.55464934135512
 20
139.2152832433775
 10
101.61346898971566
 20
139.74469306755788
 10
107.39620190763603
 20
140.22658747738458
 10
110.29693993096573
 20
141.67695648904933
 10
115.25728366436988
 20
141.67695648904933
 10
117.71282204090446
 20
139.7125257878218
 10
120.64411390447037
 20
138.24687985603867
 10
121.49984456842226
 20
136.82066208278565
 10
121.09274964498962
 20
136.41356715935294
 10
122.44701229035242
 20
135.5107253957778
 10
122.11630760567078
 20
134.51861134173294
 10
121.01237678584961
 20
133.96664593182228
 10
119.41001003693019
 20
133.96664593182228
 10
118.98034346691661
 20
134.39631250183592
  0
LWPOLYLINE
  5
59
330
17
100
AcDbEntity
  8
ENG_L
100
AcDbPolyline
 90
5
 70
1
 10
118.92811562710354
 20
26.98608695029514
 10
119.95435773885113
 20
28.012329062042653
 10
121.90234526573924
 20
26.843536545909874
 10
119.4246259357701
 20
26.48957664162843
 10
118.92811562710354
 20
26.98608695029514
  0
LWPOLYLINE
  5
5A
330
17
100
AcDbEntity
  8
ENG_L
100
AcDbPolyline
 90
4
 70
1
 10
115.41371115349432
 20
100.37518084877573
 10
115.41371115349432
 20
102.98426009809114
 10
116.71825077815211
 20
101.67972047343343
 10
115.41371115349432
 20
100.37518084877573
  0
LWPOLYLINE
  5
5B
330
17
100
AcDbEntity
  8
ENG_L
100
AcDbPolyline
 90
32
 70
1
 10
112.26678159078088
 20
94.84801103460849
 10
111.81328308137121
 20
95.30150954401817
 10
111.6150459244432
 20
96.68916964251417
 10
110.42677279394151
 20
95.89698755551312
 10
109.48983463075167
 20
95.89698755551312
 10
108.4262422110072
 20
94.83339513576861
 10
108.4262422110072
 20
93.42077699421935
 10
107.58170247372662
 20
92.01321076541846
 10
106.00986322739057
 20
92.32757861468566
 10
106.26588268323337
 20
99.75214283412659
 10
107.56225699144491
 20
99.75214283412659
 10
108.04415140127152
 20
99.27024842429988
 10
107.71023094054394
 20
98.93632796357232
 10
108.58905078281552
 20
98.760563995118
 10
108.93333074517898
 20
98.07200407039107
 10
110.43741675356787
 20
100.43556779785933
 10
111.38268628287629
 20
100.75065764096225
 10
112.41865026810905
 20
99.71469365572938
 10
110.83571426014069
 20
98.65940298375043
 10
110.83571426014069
 20
98.48012452413457
 10
111.2525310570585
 20
98.34118559182869
 10
111.69969947970301
 20
98.78835401447317
 10
112.86309549953855
 20
98.78835401447317
 10
113.72708071910088
 20
97.92436879491085
 10
113.72708071910088
 20
95.51489674577729
 10
114.20897512892758
 20
95.03300233595058
 10
114.20897512892758
 20
93.91252999685817
 10
113.77930855891391
 20
93.0531968568309
 10
114.3087787290186
 20
92.52372668672615
 10
112.82836951235637
 20
91.043317470064
 10
111.77348646477822
 20
91.39494515258994
 10
112.26678159078088
 20
94.84801103460849
  0
LWPOLYLINE
  5
5C
330
17
100
AcDbEntity
  8
ENG_L
100
AcDbPolyline
 90
6
 70
1
 10
111.25515537787318
 20
88.22402730628265
 10
112.18159388952971
 20
89.15046581793918
 10
113.41885122876224
 20
89.15046581793918
 10
113.761806706283
 20
88.12159938537701
 10
112.2335600963665
 20
86.59335277546054
 10
111.25515537787318
 20
88.22402730628265
  0
LWPOLYLINE
  5
5D
330
17
100
AcDbEntity
  8
ENG_L
100
AcDbPolyline
 90
4
 70
1
 10
112.52234469453413
 20
146.63704419213886
 10
112.52234469453413
 20
148.28233462180097
 10
113.34498990936521
 20
147.45968940696974
 10
112.52234469453413
 20
146.63704419213886
  0
LWPOLYLINE
  5
5E
330
17
100
AcDbEntity
  8
ENG_L
100
AcDbPolyline
 90
5
 70
1
 10
112.28139748962077
 20
90.6959526475103
 10
112.86858968904073
 20
91.28314484693045
 10
113.33853549379108
 20
89.8733074326793
 10
112.28139748962077
 20
89.8733074326793
 10
112.28139748962077
 20
90.6959526475103
  0
LWPOLYLINE
  5
5F
330
17
100
AcDbEntity
  8
ENG_L
100
AcDbPolyline
 90
4
 70
1
 10
110.59476705522734
 20
145.67325537248544
 10
110.59476705522734
 20
147.31854580214764
 10
111.4174122700584
 20
146.49590058731633
 10
110.59476705522734
 20
145.67325537248544
  0
LWPOLYLINE
  5
60
330
17
100
AcDbEntity
  8
ENG_L
100
AcDbPolyline
 90
4
 70
1
 10
107.70340059626714
 20
145.87286257266751
 10
108.5260458110982
 20
145.0502173578363
 10
107.70340059626714
 20
144.2275721430051
 10
107.70340059626714
 20
145.87286257266751
  0
LWPOLYLINE
  5
61
330
17
100
AcDbEntity
  8
ENG_L
100
AcDbPolyline
 90
4
 70
1
 10
108.04415140127155
 20
144.56832294800958
 10
107.22150618644044
 20
143.7456777331787
 10
107.22150618644044
 20
145.39096816284047
 10
108.04415140127155
 20
144.56832294800958
  0
LWPOLYLINE
  5
62
330
17
100
AcDbEntity
  8
ENG_L
100
AcDbPolyline
 90
5
 70
1
 10
106.55416094886256
 20
92.19713225415272
 10
108.11289385514036
 20
89.39141302285269
 10
106.0167701618737
 20
89.39141302285269
 10
106.0167701618737
 20
91.65974146716371
 10
106.55416094886256
 20
92.19713225415272
  0
LWPOLYLINE
  5
63
330
17
100
AcDbEntity
  8
ENG_L
100
AcDbPolyline
 90
5
 70
1
 10
107.5558025758707
 20
27.22703415520855
 10
106.49866457170039
 20
27.22703415520855
 10
106.49866457170039
 20
28.04967937003955
 10
107.08585677112039
 20
28.636871569459487
 10
107.5558025758707
 20
27.22703415520855
  0
LWPOLYLINE
  5
64
330
17
100
AcDbEntity
  8
ENG_L
100
AcDbPolyline
 90
4
 70
1
 10
106.73961177661374
 20
143.263783323352
 10
106.73961177661374
 20
144.9090737530142
 10
107.56225699144481
 20
144.08642853818287
 10
106.73961177661374
 20
143.263783323352
  0
LWPOLYLINE
  5
65
330
17
100
AcDbEntity
  8
ENG_L
100
AcDbPolyline
 90
4
 70
1
 10
106.73961177661374
 20
14.116081489796372
 10
106.73961177661374
 20
15.76137191945859
 10
107.56225699144481
 20
14.938726704627703
 10
106.73961177661374
 20
14.116081489796372
  0
LWPOLYLINE
  5
66
330
17
100
AcDbEntity
  8
ENG_L
100
AcDbPolyline
 90
5
 70
1
 10
107.08585677112039
 20
24.299821881019202
 10
107.5558025758707
 20
22.889984466768265
 10
106.49866457170039
 20
22.889984466768265
 10
106.49866457170039
 20
23.71262968159926
 10
107.08585677112039
 20
24.299821881019202
  0
LWPOLYLINE
  5
67
330
17
100
AcDbEntity
  8
ENG_L
100
AcDbPolyline
 90
4
 70
1
 10
107.08036258161812
 20
21.203354032374722
 10
106.25771736678705
 20
20.380708817543834
 10
106.25771736678705
 20
22.02599924720605
 10
107.08036258161812
 20
21.203354032374722
  0
LWPOLYLINE
  5
68
330
17
100
AcDbEntity
  8
ENG_L
100
AcDbPolyline
 90
5
 70
1
 10
106.0167701618737
 20
25.640207320905994
 10
106.64663852079944
 20
26.270075679831972
 10
107.03352011751615
 20
24.335667696248287
 10
106.0167701618737
 20
24.335667696248287
 10
106.0167701618737
 20
25.640207320905994
  0
LWPOLYLINE
  5
69
330
17
100
AcDbEntity
  8
ENG_L
100
AcDbPolyline
 90
4
 70
1
 10
105.77582295696035
 20
19.898814407717126
 10
105.77582295696035
 20
21.54410483737934
 10
106.59846817179141
 20
20.72145962254801
 10
105.77582295696035
 20
19.898814407717126
  0
LWPOLYLINE
  5
6A
330
17
100
AcDbEntity
  8
ENG_L
100
AcDbPolyline
 90
5
 70
1
 10
105.1450149850029
 20
16.143462729194425
 10
104.49674004446686
 20
17.440012610266507
 10
106.20397591355955
 20
18.464354131722093
 10
106.53553182820635
 20
16.143462729194425
 10
105.1450149850029
 20
16.143462729194425
  0
LWPOLYLINE
  5
6B
330
17
100
AcDbEntity
  8
ENG_L
100
AcDbPolyline
 90
5
 70
1
 10
98.78835401447321
 20
136.95781599087343
 10
99.37554621389322
 20
137.54500819029337
 10
99.84549201864355
 20
136.13517077604243
 10
98.78835401447321
 20
136.13517077604243
 10
98.78835401447321
 20
136.95781599087343
  0
LWPOLYLINE
  5
6C
330
17
100
AcDbEntity
  8
ENG_L
100
AcDbPolyline
 90
4
 70
1
 10
99.85194643421765
 20
63.61006209712428
 10
99.02930121938657
 20
62.78741688229306
 10
99.02930121938657
 20
64.43270731195516
 10
99.85194643421765
 20
63.61006209712428
  0
LWPOLYLINE
  5
6D
330
17
100
AcDbEntity
  8
ENG_L
100
AcDbPolyline
 90
4
 70
1
 10
98.54740680955987
 20
61.34173365281281
 10
98.54740680955987
 20
62.98702408247503
 10
99.37005202439093
 20
62.164378867644146
 10
98.54740680955987
 20
61.34173365281281
  0
LWPOLYLINE
  5
6E
330
17
100
AcDbEntity
  8
ENG_L
100
AcDbPolyline
 90
4
 70
1
 10
98.06551239973317
 20
60.37794483315984
 10
98.06551239973317
 20
62.02323526282161
 10
98.88815761456425
 20
61.20059004799072
 10
98.06551239973317
 20
60.37794483315984
  0
LWPOLYLINE
  5
6F
330
17
100
AcDbEntity
  8
ENG_L
100
AcDbPolyline
 90
4
 70
1
 10
97.10172358007976
 20
59.414156013506414
 10
97.10172358007976
 20
61.05944644316852
 10
97.92436879491086
 20
60.2368012283373
 10
97.10172358007976
 20
59.414156013506414
  0
LWPOLYLINE
  5
70
330
17
100
AcDbEntity
  8
ENG_L
100
AcDbPolyline
 90
4
 70
1
 10
96.61982917025307
 20
60.85983924298621
 10
96.61982917025307
 20
62.505129672648316
 10
97.44247438508415
 20
61.68248445781743
 10
96.61982917025307
 20
60.85983924298621
  0
LWPOLYLINE
  5
71
330
17
100
AcDbEntity
  8
ENG_L
100
AcDbPolyline
 90
5
 70
1
 10
94.45130432603293
 20
64.814798121691
 10
94.45130432603293
 20
65.637443336522
 10
95.03849652545293
 20
66.22463553594193
 10
95.50844233020324
 20
64.814798121691
 10
94.45130432603293
 20
64.814798121691
  0
LWPOLYLINE
  5
72
330
17
100
AcDbEntity
  8
ENG_L
100
AcDbPolyline
 90
4
 70
1
 10
95.03300233595064
 20
63.61006209712428
 10
94.21035712111959
 20
62.787416882292945
 10
94.21035712111959
 20
64.43270731195516
 10
95.03300233595064
 20
63.61006209712428
  0
LWPOLYLINE
  5
73
330
17
100
AcDbEntity
  8
ENG_L
100
AcDbPolyline
 90
4
 70
1
 10
94.21035712111959
 20
66.84217936108861
 10
95.03300233595064
 20
66.01953414625771
 10
94.21035712111959
 20
65.19688893142639
 10
94.21035712111959
 20
66.84217936108861
  0
LWPOLYLINE
  5
74
330
17
100
AcDbEntity
  8
ENG_L
100
AcDbPolyline
 90
4
 70
1
 10
91.31899066215938
 20
79.65372122622749
 10
91.31899066215938
 20
81.2990116558896
 10
92.14163587699048
 20
80.47636644105872
 10
91.31899066215938
 20
79.65372122622749
  0
LWPOLYLINE
  5
75
330
17
100
AcDbEntity
  8
ENG_D
100
AcDbPolyline
 90
13
 70
1
 10
219.26195647114787
 20
105.634679352138
 10
219.26195647114787
 20
106.39886097160944
 10
218.63242106797586
 20
107.02839637478145
 10
220.2630955987981
 20
108.00680109327465
 10
221.17978008727817
 20
107.09011660479473
 10
221.67925593698257
 20
102.09535810775073
 10
220.3366744292612
 20
100.21574399694077
 10
218.42553125473964
 20
100.48876445044385
 10
217.81627324166777
 20
101.09802246351573
 10
217.81627324166777
 20
102.74331289317784
 10
218.78006206132116
 20
103.70710171283115
 10
218.78006206132116
 20
105.15278494231129
 10
219.26195647114787
 20
105.634679352138
  0
LWPOLYLINE
  5
76
330
17
100
AcDbEntity
  8
ENG_D
100
AcDbPolyline
 90
4
 70
1
 10
220.46669249571463
 20
107.12170258634957
 10
220.46669249571463
 20
108.76699301601167
 10
221.2893377105457
 20
107.94434780118046
 10
220.46669249571463
 20
107.12170258634957
  0
LWPOLYLINE
  5
77
330
17
100
AcDbEntity
  8
ENG_D
100
AcDbPolyline
 90
4
 70
1
 10
214.68395957779424
 20
113.58593711427866
 10
215.50660479262532
 20
112.76329189944745
 10
214.68395957779424
 20
111.94064668461657
 10
214.68395957779424
 20
113.58593711427866
  0
LWPOLYLINE
  5
78
330
17
100
AcDbEntity
  8
ENG_D
100
AcDbPolyline
 90
8
 70
1
 10
212.21760760931247
 20
99.02930121938658
 10
210.57483290256843
 20
99.85068857275859
 10
213.23144600403737
 20
100.38201119305245
 10
212.5041198841422
 20
101.10933731294757
 10
212.84124311771657
 20
104.14344641511697
 10
214.4430123728809
 20
101.26026175582115
 10
214.4430123728809
 20
99.02930121938658
 10
212.21760760931247
 20
99.02930121938658
  0
LWPOLYLINE
  5
79
330
17
100
AcDbEntity
  8
ENG_D
100
AcDbPolyline
 90
5
 70
1
 10
211.069751504094
 20
106.73961177661384
 10
211.069751504094
 20
108.04415140127144
 10
211.69961986301973
 20
108.67401976019741
 10
212.08650145973647
 20
106.73961177661384
 10
211.069751504094
 20
106.73961177661384
  0
LWPOLYLINE
  5
7A
330
17
100
AcDbEntity
  8
ENG_D
100
AcDbPolyline
 90
4
 70
1
 10
210.82880429918066
 20
109.24888742583849
 10
211.65144951401172
 20
108.42624221100716
 10
210.82880429918066
 20
107.60359699617617
 10
210.82880429918066
 20
109.24888742583849
  0
LWPOLYLINE
  5
7B
330
17
100
AcDbEntity
  8
ENG_D
100
AcDbPolyline
 90
8
 70
1
 10
210.81794644631984
 20
115.20808008324957
 10
211.079582073013
 20
108.66718941592057
 10
209.47515471248323
 20
108.66718941592057
 10
210.05373484462757
 20
109.82434968020927
 10
209.1421738647872
 20
110.73591066004973
 10
209.1421738647872
 20
113.67020079975276
 10
208.5362150379242
 20
114.88211845347884
 10
210.81794644631984
 20
115.20808008324957
  0
LWPOLYLINE
  5
7C
330
17
100
AcDbEntity
  8
ENG_D
100
AcDbPolyline
 90
4
 70
1
 10
209.7238718747049
 20
108.42624221100716
 10
208.90122665987386
 20
107.60359699617628
 10
208.90122665987386
 20
109.24888742583838
 10
209.7238718747049
 20
108.42624221100716
  0
LWPOLYLINE
  5
7D
330
17
100
AcDbEntity
  8
ENG_D
100
AcDbPolyline
 90
7
 70
1
 10
205.52796579108696
 20
114.8320131435766
 10
205.52796579108696
 20
116.61844717806102
 10
206.63289821556262
 20
116.61844717806102
 10
207.1772459174836
 20
117.16279487998193
 10
209.1553920232242
 20
115.9759072165375
 10
206.36141834415093
 20
115.6654656966405
 10
205.52796579108696
 20
114.8320131435766
  0
LWPOLYLINE
  5
7E
330
17
100
AcDbEntity
  8
ENG_D
100
AcDbPolyline
 90
5
 70
1
 10
207.30794540999733
 20
109.14908382574728
 10
206.25080740582703
 20
109.14908382574728
 10
206.25080740582703
 20
109.97172904057828
 10
206.83799960524698
 20
110.55892123999823
 10
207.30794540999733
 20
109.14908382574728
  0
LWPOLYLINE
  5
7F
330
17
100
AcDbEntity
  8
ENG_D
100
AcDbPolyline
 90
4
 70
1
 10
206.49175461074034
 20
110.01306904530949
 10
206.49175461074034
 20
111.6583594749716
 10
207.31439982557143
 20
110.83571426014072
 10
206.49175461074034
 20
110.01306904530949
  0
LWPOLYLINE
  5
80
330
17
100
AcDbEntity
  8
ENG_D
100
AcDbPolyline
 90
4
 70
1
 10
206.35061100591804
 20
112.28139748962074
 10
205.52796579108696
 20
111.45875227478984
 10
205.52796579108696
 20
113.10404270445196
 10
206.35061100591804
 20
112.28139748962074
  0
LWPOLYLINE
  5
81
330
17
100
AcDbEntity
  8
ENG_D
100
AcDbPolyline
 90
4
 70
1
 10
205.04607138126028
 20
115.99540916341189
 10
205.86871659609136
 20
115.17276394858101
 10
205.04607138126028
 20
114.35011873374978
 10
205.04607138126028
 20
115.99540916341189
  0
LWPOLYLINE
  5
82
330
17
100
AcDbEntity
  8
ENG_D
100
AcDbPolyline
 90
10
 70
1
 10
202.97735013713114
 20
107.46245339135373
 10
203.35944094686684
 20
107.08036258161813
 10
203.35944094686684
 20
105.91696656178273
 10
202.87754653704013
 20
105.43507215195602
 10
202.87754653704013
 20
100.95687885869341
 10
201.91375771738674
 20
100.95687885869341
 10
201.91375771738674
 20
111.87671823868517
 10
203.6354392092933
 20
114.28707232735458
 10
203.35514239730065
 20
107.84024565152328
 10
202.97735013713114
 20
107.46245339135373
  0
LWPOLYLINE
  5
83
330
17
100
AcDbEntity
  8
ENG_D
100
AcDbPolyline
 90
5
 70
1
 10
194.68534156998624
 20
91.65974146716383
 10
196.2047826157089
 20
90.14030042144105
 10
194.60638686143903
 20
87.90254636546324
 10
193.68682676315072
 20
90.66122666032817
 10
194.68534156998624
 20
91.65974146716383
  0
LWPOLYLINE
  5
84
330
17
100
AcDbEntity
  8
ENG_D
100
AcDbPolyline
 90
7
 70
1
 10
194.4802401803019
 20
94.07470770579963
 10
195.84682675835273
 20
94.5302365651498
 10
196.14564069830627
 20
92.43853898547505
 10
195.01926203071386
 20
91.3121603178827
 10
194.6647312241324
 20
93.08481435079008
 10
195.06743237972194
 20
93.48751550637957
 10
194.4802401803019
 20
94.07470770579963
  0
LWPOLYLINE
  5
85
330
17
100
AcDbEntity
  8
ENG_D
100
AcDbPolyline
 90
5
 70
1
 10
194.22544669859928
 20
88.70801113700644
 10
196.55829066822713
 20
87.04169401584372
 10
192.9987111355928
 20
86.71809587651336
 10
192.9987111355928
 20
88.09464335550332
 10
194.22544669859928
 20
88.70801113700644
  0
LWPOLYLINE
  5
86
330
17
100
AcDbEntity
  8
ENG_D
100
AcDbPolyline
 90
5
 70
1
 10
195.7228882058822
 20
98.33250538849502
 10
194.3089611263158
 20
96.35300747710207
 10
192.43522353136964
 20
96.7277549960912
 10
195.18720700651005
 20
98.86818658786711
 10
195.7228882058822
 20
98.33250538849502
  0
LWPOLYLINE
  5
87
330
17
100
AcDbEntity
  8
ENG_D
100
AcDbPolyline
 90
4
 70
1
 10
188.6616614471525
 20
111.1764650651449
 10
189.4843066619836
 20
110.35381985031401
 10
188.6616614471525
 20
109.53117463548278
 10
188.6616614471525
 20
111.1764650651449
  0
LWPOLYLINE
  5
88
330
17
100
AcDbEntity
  8
ENG_D
100
AcDbPolyline
 90
4
 70
1
 10
188.6616614471525
 20
88.04553339346333
 10
189.4843066619836
 20
87.22288817863245
 10
188.6616614471525
 20
86.40024296380156
 10
188.6616614471525
 20
88.04553339346333
  0
LWPOLYLINE
  5
89
330
17
100
AcDbEntity
  8
ENG_D
100
AcDbPolyline
 90
5
 70
1
 10
188.00389744532137
 20
114.72559552593631
 10
188.6258156319235
 20
114.10367733933424
 10
187.3918478096769
 20
113.69235473191885
 10
186.76992962307472
 20
114.31427291852091
 10
188.00389744532137
 20
114.72559552593631
  0
LWPOLYLINE
  5
8A
330
17
100
AcDbEntity
  8
ENG_D
100
AcDbPolyline
 90
4
 70
1
 10
186.7340838078457
 20
104.2303361273894
 10
186.7340838078457
 20
105.87562655705152
 10
187.5567290226768
 20
105.05298134222029
 10
186.7340838078457
 20
104.2303361273894
  0
LWPOLYLINE
  5
8B
330
17
100
AcDbEntity
  8
ENG_D
100
AcDbPolyline
 90
5
 70
1
 10
186.69823799261667
 20
113.62178292950753
 10
185.46427017037013
 20
113.21046032209215
 10
184.84235198376794
 20
113.83237850869409
 10
186.07631980601457
 20
114.24370111610982
 10
186.69823799261667
 20
113.62178292950753
  0
LWPOLYLINE
  5
8C
330
17
100
AcDbEntity
  8
ENG_D
100
AcDbPolyline
 90
4
 70
1
 10
186.59294020302337
 20
105.53487575204701
 10
185.77029498819232
 20
104.71223053721613
 10
185.77029498819232
 20
106.3575209668779
 10
186.59294020302337
 20
105.53487575204701
  0
LWPOLYLINE
  5
8D
330
17
100
AcDbEntity
  8
ENG_D
100
AcDbPolyline
 90
7
 70
1
 10
179.7466148653586
 20
242.77497895256505
 10
179.22999446834973
 20
243.2915993495739
 10
179.66766015681134
 20
244.6045964149588
 10
181.21873343745884
 20
242.43309382205226
 10
180.86279207768752
 20
241.3652697427384
 10
179.7466148653586
 20
241.7373288135145
 10
179.7466148653586
 20
242.77497895256505
  0
LWPOLYLINE
  5
8E
330
17
100
AcDbEntity
  8
ENG_D
100
AcDbPolyline
 90
4
 70
1
 10
179.50566766044523
 20
246.1068998166207
 10
180.32831287527634
 20
245.28425460178948
 10
179.50566766044523
 20
244.46160938695894
 10
179.50566766044523
 20
246.1068998166207
  0
LWPOLYLINE
  5
8F
330
17
100
AcDbEntity
  8
ENG_D
100
AcDbPolyline
 90
4
 70
1
 10
179.02377325061855
 20
246.38918702626577
 10
179.02377325061855
 20
248.03447745592754
 10
179.8464184654496
 20
247.21183224109632
 10
179.02377325061855
 20
246.38918702626577
  0
LWPOLYLINE
  5
90
330
17
100
AcDbEntity
  8
ENG_D
100
AcDbPolyline
 90
4
 70
1
 10
179.02377325061855
 20
247.07068863627413
 10
179.8464184654496
 20
246.2480434214429
 10
179.02377325061855
 20
245.42539820661236
 10
179.02377325061855
 20
247.07068863627413
  0
LWPOLYLINE
  5
91
330
17
100
AcDbEntity
  8
ENG_D
100
AcDbPolyline
 90
5
 70
1
 10
177.78200158957927
 20
241.1085246206801
 10
178.93521443838074
 20
241.49292890361363
 10
179.29944644271407
 20
240.40023289061364
 10
178.15295768677942
 20
239.25374413467915
 10
177.78200158957927
 20
241.1085246206801
  0
LWPOLYLINE
  5
92
330
17
100
AcDbEntity
  8
ENG_D
100
AcDbPolyline
 90
4
 70
1
 10
179.36452405562295
 20
248.17562106074976
 10
178.54187884079184
 20
247.3529758459192
 10
178.54187884079184
 20
248.99826627558096
 10
179.36452405562295
 20
248.17562106074976
  0
LWPOLYLINE
  5
93
330
17
100
AcDbEntity
  8
ENG_D
100
AcDbPolyline
 90
4
 70
1
 10
178.88262964579621
 20
249.13940988040318
 10
178.05998443096513
 20
248.31676466557195
 10
178.05998443096513
 20
249.9620550952344
 10
178.88262964579621
 20
249.13940988040318
  0
LWPOLYLINE
  5
94
330
17
100
AcDbEntity
  8
ENG_D
100
AcDbPolyline
 90
4
 70
1
 10
176.61430120148506
 20
253.33531596402125
 10
177.43694641631612
 20
252.51267074919005
 10
176.61430120148506
 20
251.69002553435882
 10
176.61430120148506
 20
253.33531596402125
  0
LWPOLYLINE
  5
95
330
17
100
AcDbEntity
  8
ENG_D
100
AcDbPolyline
 90
4
 70
1
 10
176.95505200648944
 20
253.47645956884347
 10
176.13240679165835
 20
252.6538143540129
 10
176.13240679165835
 20
254.2991047836747
 10
176.95505200648944
 20
253.47645956884347
  0
LWPOLYLINE
  5
96
330
17
100
AcDbEntity
  8
ENG_D
100
AcDbPolyline
 90
4
 70
1
 10
175.65051238183165
 20
254.7809991935013
 10
176.4731575966627
 20
253.95835397867006
 10
175.65051238183165
 20
253.13570876383952
 10
175.65051238183165
 20
254.7809991935013
  0
LWPOLYLINE
  5
97
330
17
100
AcDbEntity
  8
ENG_D
100
AcDbPolyline
 90
6
 70
1
 10
173.0000931277848
 20
239.74246888878258
 10
171.07251548847802
 20
239.74246888878258
 10
171.07251548847802
 20
241.6027642426639
 10
172.10138192104037
 20
241.94571972018485
 10
173.0000931277848
 20
241.0470085134404
 10
173.0000931277848
 20
239.74246888878258
  0
LWPOLYLINE
  5
98
330
17
100
AcDbEntity
  8
ENG_D
100
AcDbPolyline
 90
4
 70
1
 10
171.79535710321807
 20
252.6538143540129
 10
171.79535710321807
 20
254.2991047836747
 10
172.61800231804915
 20
253.47645956884347
 10
171.79535710321807
 20
252.6538143540129
  0
LWPOLYLINE
  5
99
330
17
100
AcDbEntity
  8
ENG_D
100
AcDbPolyline
 90
14
 70
1
 10
167.2173602098644
 20
251.01010760036192
 10
167.2173602098644
 20
254.54005198858786
 10
168.08134542942688
 20
255.4040372081503
 10
169.2447414492622
 20
255.4040372081503
 10
170.10872666882463
 20
254.54005198858786
 10
170.10872666882463
 20
252.41286714909904
 10
169.62683225899792
 20
251.93097273927222
 10
168.69339506507126
 20
252.86440993319914
 10
168.51065504666894
 20
253.41262998840585
 10
168.27995396044759
 20
253.3357296263321
 10
169.14493784917124
 20
251.60576184888473
 10
169.14493784917124
 20
248.89846267548975
 10
168.27318267230044
 20
248.89846267548975
 10
167.2173602098644
 20
251.01010760036192
  0
LWPOLYLINE
  5
9A
330
17
100
AcDbEntity
  8
ENG_D
100
AcDbPolyline
 90
7
 70
1
 10
169.16761760505642
 20
235.67530532427395
 10
168.81543183202
 20
234.61874800516446
 10
167.7855791704287
 20
234.9620322256951
 10
166.66636318255036
 20
236.64085620751263
 10
167.11755660977343
 20
237.09204963473573
 10
168.31757101877923
 20
237.09204963473573
 10
169.16761760505642
 20
235.67530532427395
  0
LWPOLYLINE
  5
9B
330
17
100
AcDbEntity
  8
ENG_D
100
AcDbPolyline
 90
5
 70
1
 10
165.04883536564427
 20
250.05023756406763
 10
165.04883536564427
 20
251.54888192953683
 10
165.87148058047535
 20
251.54888192953683
 10
166.98324334922776
 20
250.43711916078416
 10
165.04883536564427
 20
250.05023756406763
  0
LWPOLYLINE
  5
9C
330
17
100
AcDbEntity
  8
ENG_D
100
AcDbPolyline
 90
4
 70
1
 10
162.63936331651078
 20
244.94350379678508
 10
162.63936331651078
 20
246.58879422644753
 10
163.46200853134184
 20
245.7661490116163
 10
162.63936331651078
 20
244.94350379678508
  0
LWPOLYLINE
  5
9D
330
17
100
AcDbEntity
  8
ENG_D
100
AcDbPolyline
 90
4
 70
1
 10
162.63936331651078
 20
240.80606130852655
 10
163.46200853134187
 20
239.983416093696
 10
162.63936331651078
 20
239.16077087886478
 10
162.63936331651078
 20
240.80606130852655
  0
LWPOLYLINE
  5
9E
330
17
100
AcDbEntity
  8
ENG_D
100
AcDbPolyline
 90
18
 70
1
 10
153.72431673471687
 20
266.9070673517766
 10
153.72431673471687
 20
268.0572876071132
 10
155.5746792151325
 20
269.3789750931246
 10
157.19738120359472
 20
269.3789750931246
 10
158.6590368730238
 20
267.91731942369546
 10
161.51936469326316
 20
267.4405981203223
 10
162.9089320329051
 20
266.60685771653704
 10
162.5959455705345
 20
265.0419254046843
 10
159.44031114047738
 20
265.0419254046843
 10
157.0308390913439
 20
266.4876086341643
 10
156.33131824278743
 20
266.4876086341643
 10
156.1543991297042
 20
265.6030130687481
 10
157.09757760350377
 20
264.65983459494845
 10
157.09757760350377
 20
263.28801268486535
 10
158.58029646945636
 20
262.7937730628811
 10
158.22455280486568
 20
261.01505473992813
 10
156.19048883105845
 20
262.46795757836173
 10
153.72431673471687
 20
266.9070673517766
  0
LWPOLYLINE
  5
9F
330
17
100
AcDbEntity
  8
ENG_D
100
AcDbPolyline
 90
4
 70
1
 10
162.1574689066841
 20
238.6788764690386
 10
162.1574689066841
 20
240.3241668987004
 10
162.9801141215152
 20
239.50152168386919
 10
162.1574689066841
 20
238.6788764690386
  0
LWPOLYLINE
  5
A0
330
17
100
AcDbEntity
  8
ENG_D
100
AcDbPolyline
 90
5
 70
1
 10
160.47083847229064
 20
239.60132528396016
 10
161.0580306717106
 20
240.18851748338045
 10
161.52797647646105
 20
238.77868006912917
 10
160.47083847229064
 20
238.77868006912917
 10
160.47083847229064
 20
239.60132528396016
  0
LWPOLYLINE
  5
A1
330
17
100
AcDbEntity
  8
ENG_D
100
AcDbPolyline
 90
9
 70
1
 10
159.51360543340783
 20
245.65978963075463
 10
159.24570170379116
 20
249.67834557500558
 10
160.95273288211735
 20
249.3369393393401
 10
160.95273288211735
 20
247.31163584118733
 10
161.43462729194405
 20
246.82974143136073
 10
161.43462729194405
 20
241.67004652808922
 10
159.98894406246396
 20
241.67004652808922
 10
159.98894406246396
 20
245.1844510016985
 10
159.51360543340783
 20
245.65978963075463
  0
LWPOLYLINE
  5
A2
330
17
100
AcDbEntity
  8
ENG_D
100
AcDbPolyline
 90
5
 70
1
 10
160.67593986197505
 20
225.42128600930144
 10
159.4419720397285
 20
225.0099634018863
 10
158.82005385312624
 20
225.6318815884881
 10
160.05402167537295
 20
226.04320419590374
 10
160.67593986197505
 20
225.42128600930144
  0
LWPOLYLINE
  5
A3
330
17
100
AcDbEntity
  8
ENG_D
100
AcDbPolyline
 90
38
 70
1
 10
150.3353904878497
 20
215.1193031660287
 10
149.86137166097373
 20
221.28154791541598
 10
150.83950605652726
 20
222.2596823109697
 10
151.30810554374628
 20
229.2886746192546
 10
150.29882802611692
 20
230.29795213688396
 10
150.7807224359436
 20
231.2617409565374
 10
150.26298785928412
 20
231.77947553319677
 10
153.64771758209798
 20
235.68493290567426
 10
154.63764384030128
 20
235.3549574862732
 10
155.07581875803254
 20
234.04043273307963
 10
155.19348116352597
 20
234.86406957153338
 10
156.27095581232498
 20
235.22322778779946
 10
158.08497343660773
 20
230.8177564145415
 10
157.10139540283615
 20
228.85060034699833
 10
157.58621115516758
 20
221.57836406202748
 10
157.16003089559797
 20
221.15218380245773
 10
158.5324614994885
 20
218.86479946264026
 10
159.04226167144452
 20
215.80599843090397
 10
157.6792756134215
 20
214.443012372881
 10
156.7645967558078
 20
214.443012372881
 10
156.25584321587135
 20
213.4255052930081
 10
155.15203070829463
 20
213.7934427955336
 10
155.64749625938146
 20
218.74809830640152
 10
154.26857765736978
 20
222.42521457843267
 10
153.341190451664
 20
222.6106920195736
 10
151.876571668804
 20
220.72761072732504
 10
152.30452661653527
 20
220.29965577959376
 10
151.82263220670862
 20
218.37207814028693
 10
152.27863350523677
 20
217.91607684175872
 10
152.27863350523677
 20
212.89752554330988
 10
150.93275387584774
 20
211.55164591392074
 10
149.50774064873326
 20
211.55164591392074
 10
147.60461228462643
 20
209.0141414284451
 10
147.94953155671638
 20
212.11841487725468
 10
148.83627001896252
 20
213.44852257062374
 10
148.32367462653215
 20
213.96111796305416
 10
149.26847716492088
 20
214.90592050144298
 10
150.3353904878497
 20
215.1193031660287
  0
LWPOLYLINE
  5
A4
330
17
100
AcDbEntity
  8
ENG_D
100
AcDbPolyline
 90
11
 70
1
 10
156.19886639675937
 20
223.15183773694346
 10
156.61568319367706
 20
223.29077666924934
 10
156.61568319367706
 20
223.9810969693239
 10
156.13378878385035
 20
224.46299137915048
 10
156.13378878385035
 20
226.92281075880217
 10
155.61605706718493
 20
228.13085143102163
 10
155.16999996419696
 20
227.38742292604152
 10
155.16999996419696
 20
225.62638739898588
 10
155.65189437402367
 20
225.1444929891593
 10
155.65189437402367
 20
223.69880975967925
 10
156.19886639675937
 20
223.15183773694346
  0
LWPOLYLINE
  5
A5
330
17
100
AcDbEntity
  8
ENG_D
100
AcDbPolyline
 90
6
 70
1
 10
153.2771483120723
 20
224.14597818232386
 10
153.7893943476258
 20
223.63373214677028
 10
154.20621114454354
 20
223.77267107907616
 10
154.20621114454354
 20
223.94447858015366
 10
153.37602000577024
 20
224.44259326341754
 10
153.2771483120723
 20
224.14597818232386
  0
LWPOLYLINE
  5
A6
330
17
100
AcDbEntity
  8
ENG_D
100
AcDbPolyline
 90
5
 70
1
 10
158.16666421275045
 20
245.97125040130075
 10
158.63661001750089
 20
244.56141298704947
 10
157.57947201333045
 20
244.56141298704947
 10
157.57947201333045
 20
245.38405820188046
 10
158.16666421275045
 20
245.97125040130075
  0
LWPOLYLINE
  5
A7
330
17
100
AcDbEntity
  8
ENG_D
100
AcDbPolyline
 90
4
 70
1
 10
157.33852480841708
 20
255.0632864031457
 10
157.33852480841708
 20
256.70857683280815
 10
158.16117002324816
 20
255.8859316179769
 10
157.33852480841708
 20
255.0632864031457
  0
LWPOLYLINE
  5
A8
330
17
100
AcDbEntity
  8
ENG_D
100
AcDbPolyline
 90
4
 70
1
 10
157.33852480841708
 20
249.9620550952344
 10
158.16117002324816
 20
249.13940988040318
 10
157.33852480841708
 20
248.31676466557195
 10
157.33852480841708
 20
249.9620550952344
  0
LWPOLYLINE
  5
A9
330
17
100
AcDbEntity
  8
ENG_D
100
AcDbPolyline
 90
4
 70
1
 10
158.1611700232482
 20
239.983416093696
 10
157.33852480841708
 20
239.16077087886478
 10
157.33852480841708
 20
240.80606130852655
 10
158.1611700232482
 20
239.983416093696
  0
LWPOLYLINE
  5
AA
330
17
100
AcDbEntity
  8
ENG_D
100
AcDbPolyline
 90
5
 70
1
 10
158.15471560767406
 20
246.0070962165295
 10
157.09757760350377
 20
246.0070962165295
 10
157.09757760350377
 20
246.82974143136073
 10
157.6847698029237
 20
247.416933630781
 10
158.15471560767406
 20
246.0070962165295
  0
LWPOLYLINE
  5
AB
330
17
100
AcDbEntity
  8
ENG_D
100
AcDbPolyline
 90
4
 70
1
 10
157.6792756134215
 20
254.9221427983237
 10
156.8566303985904
 20
254.09949758349248
 10
156.8566303985904
 20
255.74478801315425
 10
157.6792756134215
 20
254.9221427983237
  0
LWPOLYLINE
  5
AC
330
17
100
AcDbEntity
  8
ENG_D
100
AcDbPolyline
 90
4
 70
1
 10
156.8566303985904
 20
250.92584391488782
 10
157.67927561342148
 20
250.1031987000566
 10
156.8566303985904
 20
249.28055348522537
 10
156.8566303985904
 20
250.92584391488782
  0
LWPOLYLINE
  5
AD
330
17
100
AcDbEntity
  8
ENG_D
100
AcDbPolyline
 90
6
 70
1
 10
155.61338693884434
 20
255.73130896380135
 10
155.11166839716927
 20
254.2261533387764
 10
154.66749520851644
 20
256.44701928204097
 10
155.57270111978644
 20
257.3522251933109
 10
157.47428586080335
 20
256.9719082451074
 10
155.61338693884434
 20
255.73130896380135
  0
LWPOLYLINE
  5
AE
330
17
100
AcDbEntity
  8
ENG_D
100
AcDbPolyline
 90
4
 70
1
 10
156.71548679376806
 20
251.5488819295366
 10
155.892841578937
 20
250.72623671470606
 10
155.892841578937
 20
252.37152714436783
 10
156.71548679376806
 20
251.5488819295366
  0
LWPOLYLINE
  5
AF
330
17
100
AcDbEntity
  8
ENG_D
100
AcDbPolyline
 90
5
 70
1
 10
156.23908657344364
 20
240.74210352366498
 10
155.13527397701486
 20
241.84591612009365
 10
155.5465965844304
 20
243.07988394234047
 10
156.65040918085916
 20
241.97607134591158
 10
156.23908657344364
 20
240.74210352366498
  0
LWPOLYLINE
  5
B0
330
17
100
AcDbEntity
  8
ENG_D
100
AcDbPolyline
 90
5
 70
1
 10
155.16999996419696
 20
255.02194639841468
 10
155.75719216361702
 20
255.6091385978343
 10
156.22713796836737
 20
254.19930118358346
 10
155.16999996419696
 20
254.19930118358346
 10
155.16999996419696
 20
255.02194639841468
  0
LWPOLYLINE
  5
B1
330
17
100
AcDbEntity
  8
ENG_D
100
AcDbPolyline
 90
5
 70
1
 10
154.7672988086075
 20
269.39958543897836
 10
155.417777513387
 20
268.74910673419873
 10
153.64512348047973
 20
268.3945759276174
 10
152.9946447757
 20
269.0450546323968
 10
154.7672988086075
 20
269.39958543897836
  0
LWPOLYLINE
  5
B2
330
17
100
AcDbEntity
  8
ENG_D
100
AcDbPolyline
 90
5
 70
1
 10
154.20621114454354
 20
243.59762416739605
 10
154.20621114454354
 20
244.42026938222727
 10
154.79340334396363
 20
245.00746158164688
 10
155.26334914871398
 20
243.59762416739605
 10
154.20621114454354
 20
243.59762416739605
  0
LWPOLYLINE
  5
B3
330
17
100
AcDbEntity
  8
ENG_D
100
AcDbPolyline
 90
4
 70
1
 10
153.9652639396302
 20
243.6915171251781
 10
153.9652639396302
 20
247.0706886362739
 10
155.23245325629117
 20
245.8034993196132
 10
153.9652639396302
 20
243.6915171251781
  0
LWPOLYLINE
  5
B4
330
17
100
AcDbEntity
  8
ENG_D
100
AcDbPolyline
 90
4
 70
1
 10
147.21874220205643
 20
210.44671348944522
 10
148.0413874168875
 20
209.62406827461388
 10
147.21874220205643
 20
208.80142305978288
 10
147.21874220205643
 20
210.44671348944522
  0
LWPOLYLINE
  5
B5
330
17
100
AcDbEntity
  8
ENG_D
100
AcDbPolyline
 90
4
 70
1
 10
146.73684779222972
 20
209.9648190796184
 10
147.5594930070608
 20
209.14217386478717
 10
146.73684779222972
 20
208.31952864995628
 10
146.73684779222972
 20
209.9648190796184
  0
LWPOLYLINE
  5
B6
330
17
100
AcDbEntity
  8
ENG_D
100
AcDbPolyline
 90
4
 70
1
 10
144.6681265481006
 20
226.00847820872173
 10
143.84548133326956
 20
225.1858329938905
 10
143.84548133326956
 20
226.83112342355227
 10
144.6681265481006
 20
226.00847820872173
  0
LWPOLYLINE
  5
B7
330
17
100
AcDbEntity
  8
ENG_D
100
AcDbPolyline
 90
4
 70
1
 10
138.54464282517583
 20
135.55347276612451
 10
138.54464282517583
 20
137.1987631957866
 10
139.3672880400069
 20
136.3761179809557
 10
138.54464282517583
 20
135.55347276612451
  0
LWPOLYLINE
  5
B8
330
17
100
AcDbEntity
  8
ENG_D
100
AcDbPolyline
 90
6
 70
1
 10
134.54834394173994
 20
239.983416093696
 10
132.55831301033902
 20
237.99338516229506
 10
130.96846089878576
 20
238.94729642922695
 10
132.39696695887326
 20
240.94720491334942
 10
133.58455512208647
 20
240.94720491334942
 10
134.54834394173994
 20
239.983416093696
  0
LWPOLYLINE
  5
B9
330
17
100
AcDbEntity
  8
ENG_D
100
AcDbPolyline
 90
4
 70
1
 10
133.72569872690886
 20
142.29999450369857
 10
133.72569872690886
 20
143.94528493336068
 10
134.54834394173994
 20
143.12263971852946
 10
133.72569872690886
 20
142.29999450369857
  0
LWPOLYLINE
  5
BA
330
17
100
AcDbEntity
  8
ENG_D
100
AcDbPolyline
 90
4
 70
1
 10
133.24380431708215
 20
143.46339052353375
 10
134.06644953191324
 20
142.64074530870286
 10
133.24380431708215
 20
141.81810009387164
 10
133.24380431708215
 20
143.46339052353375
  0
LWPOLYLINE
  5
BB
330
17
100
AcDbEntity
  8
ENG_D
100
AcDbPolyline
 90
4
 70
1
 10
132.28001549742876
 20
233.3780379609449
 10
132.28001549742876
 20
235.02332839060668
 10
133.10266071225988
 20
234.20068317577548
 10
132.28001549742876
 20
233.3780379609449
  0
LWPOLYLINE
  5
BC
330
17
100
AcDbEntity
  8
ENG_D
100
AcDbPolyline
 90
5
 70
1
 10
132.14436608210872
 20
145.73721315734744
 10
132.614311886859
 20
144.3273757430963
 10
131.55717388268872
 20
144.3273757430963
 10
131.55717388268872
 20
145.1500209579273
 10
132.14436608210872
 20
145.73721315734744
  0
LWPOLYLINE
  5
BD
330
17
100
AcDbEntity
  8
ENG_D
100
AcDbPolyline
 90
38
 70
1
 10
105.05298134222029
 20
18.893685583332264
 10
105.05298134222029
 20
20.360038815178005
 10
107.03143392801398
 20
21.843878254523275
 10
107.43401343167977
 20
22.649037261854854
 10
106.49866457170039
 20
24.519734981813478
 10
106.49866457170039
 20
27.085890550386125
 10
108.32643861091611
 20
28.913664589601872
 10
110.41069976966226
 20
28.913664589601872
 10
111.31760866996738
 20
28.460210139449327
 10
113.2266984971203
 20
29.41475505302582
 10
114.41407651861189
 20
29.018962379195102
 10
113.72708071910088
 20
28.331966579684288
 10
113.72708071910088
 20
22.74884086194584
 10
114.20897512892758
 20
22.26694645211913
 10
114.20897512892758
 20
21.33230506309747
 10
115.65465835840769
 20
20.368516243444045
 10
115.65465835840769
 20
19.195460658096962
 10
114.23653268668339
 20
17.30462642913111
 10
114.3772107975394
 20
16.882592096563176
 10
119.41992740209598
 20
17.341020878795522
 10
121.35707554135689
 20
18.793881983241167
 10
124.22895413519717
 20
18.793881983241167
 10
125.19274295485059
 20
19.757670802894587
 10
128.592854480101
 20
19.757670802894587
 10
130.07588880700283
 20
20.74636035416255
 10
131.07527947286204
 20
20.413230132209303
 10
131.07527947286204
 20
17.929896763678844
 10
131.57178978152865
 20
17.433386455012247
 10
131.28425187573464
 20
15.420621114454413
 10
111.19713506751071
 20
15.420621114454413
 10
109.88350017324325
 20
17.17213430681108
 10
109.07312320724387
 20
15.956568857811938
 10
108.00122772052875
 20
15.420621114454413
 10
104.98624283006005
 20
15.420621114454413
 10
103.45965711939492
 20
16.33657254085341
 10
103.98938892247588
 20
16.866304343934434
 10
103.50749451264919
 20
17.348198753761146
 10
105.05298134222029
 20
18.893685583332264
  0
LWPOLYLINE
  5
BE
330
17
100
AcDbEntity
  8
ENG_D
100
AcDbPolyline
 90
5
 70
1
 10
109.84924568460208
 20
20.210626293703182
 10
109.45295062559525
 20
20.871118058714554
 10
109.4127107865458
 20
20.75039854156624
 10
109.80900584555265
 20
20.089906776554756
 10
109.84924568460208
 20
20.210626293703182
  0
LWPOLYLINE
  5
BF
330
17
100
AcDbEntity
  8
ENG_D
100
AcDbPolyline
 90
5
 70
1
 10
105.82956441018787
 20
17.67772660528022
 10
105.14261097520043
 20
17.2655545442878
 10
105.64204401832531
 20
16.433166139079635
 10
105.99075354685783
 20
16.549402648590505
 10
105.82956441018787
 20
17.67772660528022
  0
LWPOLYLINE
  5
C0
330
17
100
AcDbEntity
  8
ENG_D
100
AcDbPolyline
 90
4
 70
1
 10
128.76561102381956
 20
139.26748443991588
 10
127.94296580898848
 20
138.444839225085
 10
127.94296580898848
 20
140.0901296547471
 10
128.76561102381956
 20
139.26748443991588
  0
LWPOLYLINE
  5
C1
330
17
100
AcDbEntity
  8
ENG_D
100
AcDbPolyline
 90
5
 70
1
 10
125.6892532635172
 20
145.03560145899652
 10
125.02236755234844
 20
145.7024871701652
 10
127.30531189549954
 20
146.0286220763295
 10
127.97219760666836
 20
145.36173636516082
 10
125.6892532635172
 20
145.03560145899652
  0
LWPOLYLINE
  5
C2
330
17
100
AcDbEntity
  8
ENG_D
100
AcDbPolyline
 90
6
 70
1
 10
123.2910221007678
 20
139.08474434395214
 10
123.64984140594552
 20
140.16120225948535
 10
124.76654037368972
 20
140.71955174335739
 10
127.75627249662513
 20
140.38735928525358
 10
124.85024526364639
 20
138.7728997113765
 10
123.2910221007678
 20
139.08474434395214
  0
LWPOLYLINE
  5
C3
330
17
100
AcDbEntity
  8
ENG_D
100
AcDbPolyline
 90
4
 70
1
 10
126.83803338451277
 20
134.44854034164888
 10
126.01538816968169
 20
133.625895126818
 10
126.01538816968169
 20
135.2711855564801
 10
126.83803338451277
 20
134.44854034164888
  0
LWPOLYLINE
  5
C4
330
17
100
AcDbEntity
  8
ENG_D
100
AcDbPolyline
 90
44
 70
1
 10
101.13537277151251
 20
140.7505179773928
 10
101.57991687334244
 20
141.1950620792227
 10
101.53207948008811
 20
141.24289947247703
 10
103.09646478389537
 20
142.18153065476125
 10
104.5525991202397
 20
141.69615254264644
 10
105.39214847121313
 20
142.11592721813327
 10
106.39886097160938
 20
143.12263971852946
 10
105.91696656178269
 20
143.60453412835616
 10
106.36110047372074
 20
144.04866804029436
 10
109.63097823557393
 20
145.4500442239457
 10
109.63097823557393
 20
146.49590058731633
 10
110.73591066004963
 20
146.49590058731633
 10
111.31760866996738
 20
147.07759859723413
 10
111.73349523840393
 20
146.66171202879752
 10
112.21538964823064
 20
147.62550084845094
 10
112.69728405805733
 20
147.14360643862423
 10
113.17917846788403
 20
148.10739525827765
 10
113.82688431919195
 20
147.45968940696974
 10
115.30171497930372
 20
147.45968940696974
 10
116.26550379895711
 20
146.01400617748962
 10
123.05673942529621
 20
146.01400617748962
 10
123.39969490281696
 20
144.98513974492744
 10
123.00894719297825
 20
144.59439203508873
 10
125.14539220974005
 20
142.99205827251726
 10
123.48375879699056
 20
142.65973158996746
 10
122.50098369607252
 20
141.67695648904945
 10
121.09727100880423
 20
141.67695648904945
 10
120.04082588449407
 20
139.77535526529107
 10
122.05519871037947
 20
137.31334403365335
 10
123.95464365635864
 20
136.8384827971586
 10
126.71763754998241
 20
134.6894875465623
 10
121.98656797158003
 20
134.6894875465623
 10
121.71888916483474
 20
135.49252396679822
 10
120.32596146332936
 20
136.3282805877014
 10
120.89304357440716
 20
136.89536269877922
 10
120.30309100887894
 20
137.87861697465965
 10
117.4516499545245
 20
139.30433750183678
 10
115.08824423279206
 20
141.1950620792227
 10
110.41069976966226
 20
141.1950620792227
 10
107.51933331070205
 20
139.7493788497427
 10
104.67089053248468
 20
139.7493788497427
 10
104.18899612265797
 20
139.267484439916
 10
102.02519289399864
 20
139.267484439916
 10
101.13537277151251
 20
140.7505179773928
  0
LWPOLYLINE
  5
C5
330
17
100
AcDbEntity
  8
ENG_D
100
AcDbPolyline
 90
5
 70
1
 10
125.37773425619284
 20
145.54672766650302
 10
126.04461996736147
 20
144.8798419553342
 10
123.76167562421038
 20
144.5537070491696
 10
123.09478991304177
 20
145.22059276033838
 10
125.37773425619284
 20
145.54672766650302
  0
LWPOLYLINE
  5
C6
330
17
100
AcDbEntity
  8
ENG_D
100
AcDbPolyline
 90
5
 70
1
 10
120.75039547681706
 20
27.09138473988848
 10
121.98436329906365
 20
27.50270734730387
 10
122.60628148566578
 20
26.880789160701912
 10
121.37231366341915
 20
26.469466553286193
 10
120.75039547681706
 20
27.09138473988848
  0
LWPOLYLINE
  5
C7
330
17
100
AcDbEntity
  8
ENG_D
100
AcDbPolyline
 90
4
 70
1
 10
121.1964440714147
 20
140.09012965474722
 10
122.01908928624577
 20
139.26748443991588
 10
121.1964440714147
 20
138.444839225085
 10
121.1964440714147
 20
140.09012965474722
  0
LWPOLYLINE
  5
C8
330
17
100
AcDbEntity
  8
ENG_D
100
AcDbPolyline
 90
4
 70
1
 10
121.1964440714147
 20
92.38258308190406
 10
122.01908928624577
 20
91.55993786707273
 10
121.1964440714147
 20
90.73729265224185
 10
121.1964440714147
 20
92.38258308190406
  0
LWPOLYLINE
  5
C9
330
17
100
AcDbEntity
  8
ENG_D
100
AcDbPolyline
 90
4
 70
1
 10
121.53719487641911
 20
88.18667699828586
 10
120.714549661588
 20
87.36403178345498
 10
120.714549661588
 20
89.00932221311675
 10
121.53719487641911
 20
88.18667699828586
  0
LWPOLYLINE
  5
CA
330
17
100
AcDbEntity
  8
ENG_D
100
AcDbPolyline
 90
5
 70
1
 10
121.11681657383187
 20
85.7401693126798
 10
119.3682415096477
 20
86.08988432551656
 10
120.42576506342039
 20
87.85242358180435
 10
121.47211726351017
 20
86.80607138171459
 10
121.11681657383187
 20
85.7401693126798
  0
LWPOLYLINE
  5
CB
330
17
100
AcDbEntity
  8
ENG_D
100
AcDbPolyline
 90
4
 70
1
 10
120.2326552517613
 20
89.49121662294345
 10
121.0553004665924
 20
88.66857140811257
 10
120.2326552517613
 20
87.84592619328136
 10
120.2326552517613
 20
89.49121662294345
  0
LWPOLYLINE
  5
CC
330
17
100
AcDbEntity
  8
ENG_D
100
AcDbPolyline
 90
5
 70
1
 10
119.44473602411234
 20
27.433255372939612
 10
118.82281783751026
 20
28.055173559541903
 10
120.05678565975683
 20
28.46649616695729
 10
120.678703846359
 20
27.844577980355332
 10
119.44473602411234
 20
27.433255372939612
  0
LWPOLYLINE
  5
CD
330
17
100
AcDbEntity
  8
ENG_D
100
AcDbPolyline
 90
4
 70
1
 10
119.12772282728558
 20
29.877453409255295
 10
118.30507761245451
 20
29.05480819442441
 10
118.30507761245451
 20
30.700098624086625
 10
119.12772282728558
 20
29.877453409255295
  0
LWPOLYLINE
  5
CE
330
17
100
AcDbEntity
  8
ENG_D
100
AcDbPolyline
 90
4
 70
1
 10
117.82318320262782
 20
100.37518084877584
 10
117.82318320262782
 20
102.02047127843761
 10
118.6458284174589
 20
101.19782606360673
 10
117.82318320262782
 20
100.37518084877584
  0
LWPOLYLINE
  5
CF
330
17
100
AcDbEntity
  8
ENG_D
100
AcDbPolyline
 90
4
 70
1
 10
118.16393400763218
 20
98.30645960464656
 10
117.34128879280112
 20
97.48381438981524
 10
117.34128879280112
 20
99.12910481947745
 10
118.16393400763218
 20
98.30645960464656
  0
LWPOLYLINE
  5
D0
330
17
100
AcDbEntity
  8
ENG_D
100
AcDbPolyline
 90
4
 70
1
 10
117.34128879280112
 20
103.46615450791774
 10
118.16393400763218
 20
102.64350929308685
 10
117.34128879280112
 20
101.82086407825552
 10
117.34128879280112
 20
103.46615450791774
  0
LWPOLYLINE
  5
D1
330
17
100
AcDbEntity
  8
ENG_D
100
AcDbPolyline
 90
10
 70
1
 10
116.68352479096997
 20
102.67823528026886
 10
117.58223599771448
 20
101.77952407352441
 10
117.58223599771448
 20
99.02930121938658
 10
115.75918357405955
 20
99.02930121938658
 10
114.08877341310344
 20
101.81331815431349
 10
115.29481838060195
 20
102.21533314347953
 10
115.7206661997978
 20
101.36363750508792
 10
116.03674916814336
 20
101.67972047343343
 10
115.44955696872336
 20
102.26691267285348
 10
116.68352479096997
 20
102.67823528026886
  0
LWPOLYLINE
  5
D2
330
17
100
AcDbEntity
  8
ENG_D
100
AcDbPolyline
 90
4
 70
1
 10
116.3774999731477
 20
19.416919997890414
 10
116.3774999731477
 20
21.062210427552518
 10
117.2001451879788
 20
20.2395652127213
 10
116.3774999731477
 20
19.416919997890414
  0
LWPOLYLINE
  5
D3
330
17
100
AcDbEntity
  8
ENG_D
100
AcDbPolyline
 90
22
 70
1
 10
110.28086690668647
 20
96.37888196533973
 10
111.98396023514496
 20
97.5142775176453
 10
112.26761748804365
 20
95.52867674735444
 10
112.77790779828739
 20
95.01838643711069
 10
112.30741410463665
 20
91.72493058155551
 10
112.74480408729356
 20
91.57913392066985
 10
113.86781066161234
 20
92.14063720782929
 10
114.24370111610968
 20
91.01296584433716
 10
113.71330071752375
 20
90.48256544575118
 10
113.4541587121468
 20
88.66857140811257
 10
112.41034852034352
 20
88.66857140811257
 10
111.40964323277902
 20
87.16751347676576
 10
108.85130131675791
 20
88.1908502431742
 10
105.93293176497815
 20
88.45615656606343
 10
106.31429919189408
 20
89.60025884681112
 10
107.46245339135379
 20
89.82988968670314
 10
107.46245339135379
 20
90.03393890262157
 10
105.86438176919823
 20
92.16470106549568
 10
107.49455477230866
 20
92.70809206653252
 10
107.96333408244524
 20
95.05198861721532
 10
109.2902274305695
 20
96.37888196533973
 10
110.28086690668647
 20
96.37888196533973
  0
LWPOLYLINE
  5
D4
330
17
100
AcDbEntity
  8
ENG_D
100
AcDbPolyline
 90
5
 70
1
 10
113.24518630927417
 20
96.13793476042642
 10
113.24518630927417
 20
96.96057997525742
 10
113.83237850869418
 20
97.54777217467736
 10
114.30232431344449
 20
96.13793476042642
 10
113.24518630927417
 20
96.13793476042642
  0
LWPOLYLINE
  5
D5
330
17
100
AcDbEntity
  8
ENG_D
100
AcDbPolyline
 90
5
 70
1
 10
113.24518630927417
 20
93.58731910647056
 10
113.83237850869418
 20
94.17451130589049
 10
114.30232431344449
 20
92.76467389163956
 10
113.24518630927417
 20
92.76467389163956
 10
113.24518630927417
 20
93.58731910647056
  0
LWPOLYLINE
  5
D6
330
17
100
AcDbEntity
  8
ENG_D
100
AcDbPolyline
 90
4
 70
1
 10
113.00423910436082
 20
97.48381438981535
 10
113.00423910436082
 20
99.12910481947745
 10
113.82688431919192
 20
98.30645960464656
 10
113.00423910436082
 20
97.48381438981535
  0
LWPOLYLINE
  5
D7
330
17
100
AcDbEntity
  8
ENG_D
100
AcDbPolyline
 90
4
 70
1
 10
113.00423910436082
 20
86.88213737362793
 10
113.00423910436082
 20
88.52742780329037
 10
113.82688431919189
 20
87.70478258845915
 10
113.00423910436082
 20
86.88213737362793
  0
LWPOLYLINE
  5
D8
330
17
100
AcDbEntity
  8
ENG_D
100
AcDbPolyline
 90
4
 70
1
 10
113.34498990936522
 20
87.22288817863245
 10
112.52234469453413
 20
86.40024296380156
 10
112.52234469453413
 20
88.04553339346333
 10
113.34498990936522
 20
87.22288817863245
  0
LWPOLYLINE
  5
D9
330
17
100
AcDbEntity
  8
ENG_D
100
AcDbPolyline
 90
18
 70
1
 10
106.73278143233695
 20
98.64038006537402
 10
107.36264979126278
 20
99.27024842429988
 10
107.34366350999805
 20
99.28923470556461
 10
105.05052837761706
 20
99.74786173204076
 10
105.05981522680733
 20
99.90165553071239
 10
109.28268159153879
 20
100.22649140492257
 10
110.25401625022292
 20
101.19782606360673
 10
111.89930667988517
 20
101.19782606360673
 10
113.26579665512804
 20
99.83133608836381
 10
112.96965649009695
 20
98.35063526320842
 10
110.67768986956726
 20
97.77764360807595
 10
110.30798765594302
 20
98.88675024894854
 10
111.58999806401711
 20
99.74142385433137
 10
110.92536023882778
 20
100.140206549445
 10
109.82521555564156
 20
98.1599461197098
 10
108.84212877944375
 20
97.17685934351195
 10
108.26343363919887
 20
98.33424962400173
 10
106.73278143233695
 20
98.64038006537402
  0
LWPOLYLINE
  5
DA
330
17
100
AcDbEntity
  8
ENG_D
100
AcDbPolyline
 90
4
 70
1
 10
111.89930667988513
 20
134.9304347514756
 10
111.07666146505403
 20
134.1077895366447
 10
111.07666146505403
 20
135.7530799663068
 10
111.89930667988513
 20
134.9304347514756
  0
LWPOLYLINE
  5
DB
330
17
100
AcDbEntity
  8
ENG_D
100
AcDbPolyline
 90
5
 70
1
 10
108.843059007925
 20
96.34415597815772
 10
108.22114082132285
 20
96.96607416475977
 10
109.45510864356946
 20
97.37739677217516
 10
110.07702683017165
 20
96.7554785855731
 10
108.843059007925
 20
96.34415597815772
  0
LWPOLYLINE
  5
DC
330
17
100
AcDbEntity
  8
ENG_D
100
AcDbPolyline
 90
4
 70
1
 10
108.66718941592053
 20
144.7094665528321
 10
108.66718941592053
 20
146.35475698249388
 10
109.48983463075164
 20
145.532111767663
 10
108.66718941592053
 20
144.7094665528321
  0
LWPOLYLINE
  5
DD
330
17
100
AcDbEntity
  8
ENG_D
100
AcDbPolyline
 90
5
 70
1
 10
107.56775118094706
 20
29.60066038911302
 10
108.03769698569742
 20
28.190822974861973
 10
106.98055898152708
 20
28.190822974861973
 10
106.98055898152708
 20
29.01346818969286
 10
107.56775118094706
 20
29.60066038911302
  0
LWPOLYLINE
  5
DE
330
17
100
AcDbEntity
  8
ENG_D
100
AcDbPolyline
 90
4
 70
1
 10
107.22150618644044
 20
14.116081489796484
 10
107.22150618644044
 20
15.76137191945859
 10
108.04415140127153
 20
14.938726704627703
 10
107.22150618644044
 20
14.116081489796484
  0
LWPOLYLINE
  5
DF
330
17
100
AcDbEntity
  8
ENG_D
100
AcDbPolyline
 90
4
 70
1
 10
106.73961177661374
 20
135.07157835629812
 10
106.73961177661374
 20
136.7168687859599
 10
107.56225699144483
 20
135.894223571129
 10
106.73961177661374
 20
135.07157835629812
  0
LWPOLYLINE
  5
E0
330
17
100
AcDbEntity
  8
ENG_D
100
AcDbPolyline
 90
4
 70
1
 10
106.73961177661374
 20
23.47168247668574
 10
107.56225699144481
 20
22.649037261854854
 10
106.73961177661374
 20
21.826392047023525
 10
106.73961177661374
 20
23.47168247668574
  0
LWPOLYLINE
  5
E1
330
17
100
AcDbEntity
  8
ENG_D
100
AcDbPolyline
 90
5
 70
1
 10
107.073908166044
 20
21.444301237288133
 10
106.0167701618737
 20
21.444301237288133
 10
106.0167701618737
 20
22.26694645211913
 10
106.6039623612937
 20
22.854138651539067
 10
107.073908166044
 20
21.444301237288133
  0
LWPOLYLINE
  5
E2
330
17
100
AcDbEntity
  8
ENG_D
100
AcDbPolyline
 90
4
 70
1
 10
106.25771736678705
 20
23.27207527650399
 10
106.25771736678705
 20
24.917365706166205
 10
107.08036258161812
 20
24.094720491334876
 10
106.25771736678705
 20
23.27207527650399
  0
LWPOLYLINE
  5
E3
330
17
100
AcDbEntity
  8
ENG_D
100
AcDbPolyline
 90
4
 70
1
 10
104.33013972748024
 20
14.597975899623417
 10
104.33013972748024
 20
16.24326632928552
 10
105.15278494231134
 20
15.420621114454303
 10
104.33013972748024
 20
14.597975899623417
  0
LWPOLYLINE
  5
E4
330
17
100
AcDbEntity
  8
ENG_D
100
AcDbPolyline
 90
4
 70
1
 10
103.36635090782686
 20
137.1987631957866
 10
104.18899612265794
 20
136.3761179809557
 10
103.36635090782686
 20
135.55347276612451
 10
103.36635090782686
 20
137.1987631957866
  0
LWPOLYLINE
  5
E5
330
17
100
AcDbEntity
  8
ENG_D
100
AcDbPolyline
 90
38
 70
1
 10
99.27024842429992
 20
62.57953476531064
 10
98.40486104096459
 20
61.13722245975162
 10
96.19780368243882
 20
62.083104184834205
 10
96.7609727750754
 20
62.646273277470854
 10
96.24872673952194
 20
63.1585193130243
 10
95.45436668107351
 20
63.423305999173785
 10
94.90730562456108
 20
65.61155022522347
 10
95.3628653058733
 20
66.06710990653575
 10
93.93231481249896
 20
68.92821089328439
 10
94.86409611837226
 20
70.3258828520944
 10
94.3515007259419
 20
70.83847824452472
 10
94.93319873585962
 20
71.42017625444241
 10
94.93319873585962
 20
73.63004110339388
 10
94.45130432603293
 20
74.1119355132206
 10
94.45130432603293
 20
76.56433124309703
 10
93.48751550637952
 20
78.49190888240376
 10
93.48751550637952
 20
79.43962467777787
 10
92.52372668672614
 20
80.88530790725801
 10
92.52372668672614
 20
83.90650722919368
 10
93.04854477729576
 20
84.95614341033297
 10
94.35150072594186
 20
86.25909935897901
 10
95.31528954559526
 20
86.25909935897901
 10
95.80734950011234
 20
86.75115931349609
 10
100.82548927704751
 20
86.24934533580253
 10
102.16161488326011
 20
84.91321972958998
 10
102.16161488326011
 20
83.44068584364628
 10
103.12540370291352
 20
81.99500261416614
 10
103.12540370291352
 20
80.85845725079443
 10
102.64350929308681
 20
80.37656284096772
 10
102.64350929308681
 20
76.72101476253613
 10
103.17763154272653
 20
76.18689251289645
 10
101.67972047343342
 20
73.19107037431006
 10
101.67972047343342
 20
70.73867464443373
 10
99.27024842429992
 20
68.32920259530017
 10
99.27024842429992
 20
65.15554892669529
 10
99.85194643421765
 20
64.57385091677759
 10
99.27024842429992
 20
63.992152906859886
 10
99.27024842429992
 20
62.57953476531064
  0
LWPOLYLINE
  5
E6
330
17
100
AcDbEntity
  8
ENG_D
100
AcDbPolyline
 90
5
 70
1
 10
100.71593165378002
 20
139.0265372350026
 10
100.71593165378002
 20
139.84918244983356
 10
101.30312385319996
 20
140.43637464925374
 10
101.77306965795032
 20
139.0265372350026
 10
100.71593165378002
 20
139.0265372350026
  0
LWPOLYLINE
  5
E7
330
17
100
AcDbEntity
  8
ENG_D
100
AcDbPolyline
 90
4
 70
1
 10
99.99309003903996
 20
68.08825539038699
 10
99.99309003903996
 20
69.73354582004909
 10
100.81573525387105
 20
68.91090060521788
 10
99.99309003903996
 20
68.08825539038699
  0
LWPOLYLINE
  5
E8
330
17
100
AcDbEntity
  8
ENG_D
100
AcDbPolyline
 90
5
 70
1
 10
100.32738642847025
 20
136.13517077604243
 10
99.27024842429992
 20
136.13517077604243
 10
99.27024842429992
 20
136.95781599087343
 10
99.8574406237199
 20
137.54500819029337
 10
100.32738642847025
 20
136.13517077604243
  0
LWPOLYLINE
  5
E9
330
17
100
AcDbEntity
  8
ENG_D
100
AcDbPolyline
 90
4
 70
1
 10
100.33384084404436
 20
67.46521737573785
 10
99.51119562921326
 20
66.64257216090664
 10
99.51119562921326
 20
68.28786259056874
 10
100.33384084404436
 20
67.46521737573785
  0
LWPOLYLINE
  5
EA
330
17
100
AcDbEntity
  8
ENG_D
100
AcDbPolyline
 90
4
 70
1
 10
99.51119562921326
 20
69.25165141022238
 10
100.33384084404436
 20
68.42900619539117
 10
99.51119562921326
 20
67.60636098056028
 10
99.51119562921326
 20
69.25165141022238
  0
LWPOLYLINE
  5
EB
330
17
100
AcDbEntity
  8
ENG_D
100
AcDbPolyline
 90
4
 70
1
 10
97.44247438508417
 20
61.20059004799072
 10
96.61982917025307
 20
60.37794483315984
 10
96.61982917025307
 20
62.02323526282161
 10
97.44247438508417
 20
61.20059004799072
  0
LWPOLYLINE
  5
EC
330
17
100
AcDbEntity
  8
ENG_D
100
AcDbPolyline
 90
4
 70
1
 10
96.96057997525746
 20
62.646273277470854
 10
96.13793476042638
 20
61.823628062639635
 10
96.13793476042638
 20
63.46891849230174
 10
96.96057997525746
 20
62.646273277470854
  0
LWPOLYLINE
  5
ED
330
17
100
AcDbEntity
  8
ENG_D
100
AcDbPolyline
 90
4
 70
1
 10
95.17414594077297
 20
62.98702408247503
 10
95.99679115560407
 20
62.164378867644146
 10
95.17414594077297
 20
61.34173365281293
 10
95.17414594077297
 20
62.98702408247503
  0
LWPOLYLINE
  5
EE
330
17
100
AcDbEntity
  8
ENG_D
100
AcDbPolyline
 90
5
 70
1
 10
94.45130432603293
 20
64.67365451686857
 10
95.0384965254529
 20
65.26084671628874
 10
95.50844233020322
 20
63.851009302037575
 10
94.45130432603293
 20
63.851009302037575
 10
94.45130432603293
 20
64.67365451686857
  0
LWPOLYLINE
  5
EF
330
17
100
AcDbEntity
  8
ENG_D
100
AcDbPolyline
 90
5
 70
1
 10
95.02654792037654
 20
62.40532607255756
 10
93.96940991620623
 20
62.40532607255756
 10
93.96940991620623
 20
63.22797128738855
 10
94.55660211562623
 20
63.81516348680849
 10
95.02654792037654
 20
62.40532607255756
  0
LWPOLYLINE
  5
F0
330
17
100
AcDbEntity
  8
ENG_D
100
AcDbPolyline
 90
4
 70
1
 10
94.21035712111959
 20
71.17922904952889
 10
95.03300233595064
 20
70.356583834698
 10
94.21035712111959
 20
69.53393861986667
 10
94.21035712111959
 20
71.17922904952889
  0
LWPOLYLINE
  5
F1
330
17
100
AcDbEntity
  8
ENG_D
100
AcDbPolyline
 90
4
 70
1
 10
94.21035712111959
 20
65.6787833412531
 10
94.21035712111959
 20
67.32407377091532
 10
95.03300233595064
 20
66.50142855608443
 10
94.21035712111959
 20
65.6787833412531
  0
LWPOLYLINE
  5
F2
330
17
100
AcDbEntity
  8
ENG_D
100
AcDbPolyline
 90
4
 70
1
 10
94.55110792612396
 20
69.87468942487129
 10
93.72846271129288
 20
69.0520442100404
 10
93.72846271129288
 20
70.69733463970218
 10
94.55110792612396
 20
69.87468942487129
  0
LWPOLYLINE
  5
F3
330
17
100
AcDbEntity
  8
ENG_D
100
AcDbPolyline
 90
4
 70
1
 10
94.06921351629727
 20
77.10310557227173
 10
93.24656830146617
 20
76.28046035744084
 10
93.24656830146617
 20
77.92575078710296
 10
94.06921351629727
 20
77.10310557227173
  0
LWPOLYLINE
  5
F4
330
17
100
AcDbEntity
  8
ENG_D
100
AcDbPolyline
 90
4
 70
1
 10
93.24656830146617
 20
75.3166715377872
 10
93.24656830146617
 20
76.96196196744931
 10
94.06921351629727
 20
76.13931675261843
 10
93.24656830146617
 20
75.3166715377872
  0
LWPOLYLINE
  5
F5
330
17
100
AcDbEntity
  8
ENG_D
100
AcDbPolyline
 90
4
 70
1
 10
92.28277948181278
 20
80.81711724606289
 10
93.10542469664388
 20
79.994472031232
 10
92.28277948181278
 20
79.17182681640078
 10
92.28277948181278
 20
80.81711724606289
  0
LWPOLYLINE
  5
F6
330
17
100
AcDbEntity
  8
ENG_D
100
AcDbPolyline
 90
4
 70
1
 10
91.80088507198609
 20
79.65372122622749
 10
91.80088507198609
 20
81.2990116558896
 10
92.62353028681717
 20
80.47636644105872
 10
91.80088507198609
 20
79.65372122622749
  0
LWPOLYLINE
  5
F7
330
17
100
AcDbEntity
  8
ENG_K
100
AcDbPolyline
 90
11
 70
1
 10
220.55872613849732
 20
100.95687885869341
 10
221.18953411045467
 20
102.21849480260813
 10
221.18953411045467
 20
103.98938892247588
 10
220.707639700628
 20
104.4712833323026
 10
220.707639700628
 20
106.88075538143616
 10
220.12594169071025
 20
107.46245339135373
 10
221.1899978640097
 20
108.52650956465327
 10
221.43608244444323
 20
161.43469435785263
 10
221.9074607164844
 20
161.4345601283458
 10
222.15430839513607
 20
100.95687885869341
 10
220.55872613849732
 20
100.95687885869341
  0
LWPOLYLINE
  5
F8
330
17
100
AcDbEntity
  8
ENG_K
100
AcDbPolyline
 90
5
 70
1
 10
217.75684307437035
 20
109.57567445613824
 10
219.36747043730415
 20
109.89779992872506
 10
220.8028070193118
 20
107.88832871391418
 10
218.63862263698803
 20
106.34248272654013
 10
217.75684307437035
 20
109.57567445613824
  0
LWPOLYLINE
  5
F9
330
17
100
AcDbEntity
  8
ENG_K
100
AcDbPolyline
 90
5
 70
1
 10
218.78006206132116
 20
106.59846817179141
 10
219.40993042024698
 20
107.22833653071706
 10
219.79681201696366
 20
105.2939285471337
 10
218.78006206132116
 20
105.2939285471337
 10
218.78006206132116
 20
106.59846817179141
  0
LWPOLYLINE
  5
FA
330
17
100
AcDbEntity
  8
ENG_K
100
AcDbPolyline
 90
4
 70
1
 10
216.12964280727434
 20
98.44760320946888
 10
216.12964280727434
 20
100.0928936391312
 10
216.9522880221054
 20
99.27024842429988
 10
216.12964280727434
 20
98.44760320946888
  0
LWPOLYLINE
  5
FB
330
17
100
AcDbEntity
  8
ENG_K
100
AcDbPolyline
 90
5
 70
1
 10
216.41450049852403
 20
111.89213419016563
 10
216.01411435292994
 20
110.69097575338338
 10
213.91720747671786
 20
112.18876637924913
 10
214.3175936223119
 20
113.3899248160315
 10
216.41450049852403
 20
111.89213419016563
  0
LWPOLYLINE
  5
FC
330
17
100
AcDbEntity
  8
ENG_K
100
AcDbPolyline
 90
4
 70
1
 10
210.82880429918066
 20
115.51351475358528
 10
211.65144951401172
 20
114.6908695387543
 10
210.82880429918066
 20
113.86822432392296
 10
210.82880429918066
 20
115.51351475358528
  0
LWPOLYLINE
  5
FD
330
17
100
AcDbEntity
  8
ENG_K
100
AcDbPolyline
 90
5
 70
1
 10
211.57195678468602
 20
115.03553515722153
 10
209.05698616353607
 20
114.6762536399144
 10
208.14365905795168
 20
115.58958074549885
 10
208.52350525605095
 20
116.72911933979657
 10
211.57195678468602
 20
115.03553515722153
  0
LWPOLYLINE
  5
FE
330
17
100
AcDbEntity
  8
ENG_K
100
AcDbPolyline
 90
4
 70
1
 10
210.68766069435833
 20
109.87192544048729
 10
209.86501547952724
 20
109.0492802256564
 10
209.86501547952724
 20
110.69457065531819
 10
210.68766069435833
 20
109.87192544048729
  0
LWPOLYLINE
  5
FF
330
17
100
AcDbEntity
  8
ENG_K
100
AcDbPolyline
 90
4
 70
1
 10
207.93743784022044
 20
117.44109239289224
 10
208.76008305505152
 20
116.61844717806102
 10
207.93743784022044
 20
115.79580196323013
 10
207.93743784022044
 20
117.44109239289224
  0
LWPOLYLINE
  5
100
330
17
100
AcDbEntity
  8
ENG_K
100
AcDbPolyline
 90
4
 70
1
 10
207.31439982557143
 20
116.61844717806102
 10
206.49175461074034
 20
115.79580196323013
 10
206.49175461074034
 20
117.44109239289224
 10
207.31439982557143
 20
116.61844717806102
  0
LWPOLYLINE
  5
101
330
17
100
AcDbEntity
  8
ENG_K
100
AcDbPolyline
 90
4
 70
1
 10
202.15470492230006
 20
111.45875227478984
 10
202.15470492230006
 20
113.10404270445196
 10
202.97735013713114
 20
112.28139748962074
 10
202.15470492230006
 20
111.45875227478984
  0
LWPOLYLINE
  5
102
330
17
100
AcDbEntity
  8
ENG_K
100
AcDbPolyline
 90
4
 70
1
 10
188.0386234325035
 20
114.6908695387543
 10
187.21597821767241
 20
113.86822432392307
 10
187.21597821767241
 20
115.51351475358518
 10
188.0386234325035
 20
114.6908695387543
  0
LWPOLYLINE
  5
103
330
17
100
AcDbEntity
  8
ENG_K
100
AcDbPolyline
 90
4
 70
1
 10
179.50566766044523
 20
244.94350379678508
 10
179.50566766044523
 20
246.58879422644753
 10
180.3283128752763
 20
245.7661490116163
 10
179.50566766044523
 20
244.94350379678508
  0
LWPOLYLINE
  5
104
330
17
100
AcDbEntity
  8
ENG_K
100
AcDbPolyline
 90
4
 70
1
 10
176.13240679165835
 20
253.13570876383952
 10
176.13240679165835
 20
254.7809991935013
 10
176.95505200648944
 20
253.95835397867006
 10
176.13240679165835
 20
253.13570876383952
  0
LWPOLYLINE
  5
105
330
17
100
AcDbEntity
  8
ENG_K
100
AcDbPolyline
 90
5
 70
1
 10
176.46670318108863
 20
254.19930118358346
 10
175.4095651769183
 20
254.19930118358346
 10
175.4095651769183
 20
255.02194639841468
 10
175.99675737633837
 20
255.6091385978343
 10
176.46670318108863
 20
254.19930118358346
  0
LWPOLYLINE
  5
106
330
17
100
AcDbEntity
  8
ENG_K
100
AcDbPolyline
 90
6
 70
1
 10
175.03966694128223
 20
255.1630900032369
 10
173.94898788302908
 20
256.79910859061647
 10
174.31858053635412
 20
258.647071857242
 10
175.89145958674501
 20
256.44504118669477
 10
175.89145958674501
 20
255.1630900032369
 10
175.03966694128223
 20
255.1630900032369
  0
LWPOLYLINE
  5
107
330
17
100
AcDbEntity
  8
ENG_K
100
AcDbPolyline
 90
4
 70
1
 10
173.58179113770257
 20
256.8497204376303
 10
172.75914592287145
 20
256.0270752227998
 10
172.75914592287145
 20
257.67236565246156
 10
173.58179113770257
 20
256.8497204376303
  0
LWPOLYLINE
  5
108
330
17
100
AcDbEntity
  8
ENG_K
100
AcDbPolyline
 90
5
 70
1
 10
171.5544098983047
 20
239.26057447895576
 10
171.5544098983047
 20
240.083219693787
 10
172.14160209772479
 20
240.6704118932066
 10
172.61154790247514
 20
239.26057447895576
 10
171.5544098983047
 20
239.26057447895576
  0
LWPOLYLINE
  5
109
330
17
100
AcDbEntity
  8
ENG_K
100
AcDbPolyline
 90
4
 70
1
 10
171.31346269339136
 20
253.38311038432647
 10
171.31346269339136
 20
255.2628936033281
 10
172.72330010764253
 20
253.8530561890766
 10
171.31346269339136
 20
253.38311038432647
  0
LWPOLYLINE
  5
10A
330
17
100
AcDbEntity
  8
ENG_K
100
AcDbPolyline
 90
4
 70
1
 10
168.42209623443117
 20
263.25549137019965
 10
168.42209623443117
 20
264.9007817998614
 10
169.24474144926228
 20
264.07813658503085
 10
168.42209623443117
 20
263.25549137019965
  0
LWPOLYLINE
  5
10B
330
17
100
AcDbEntity
  8
ENG_K
100
AcDbPolyline
 90
5
 70
1
 10
168.38625041920213
 20
254.81684500873047
 10
167.15228259695544
 20
254.40552240131487
 10
166.53036441035331
 20
255.02744058791714
 10
167.76433223259988
 20
255.4387631953323
 10
168.38625041920213
 20
254.81684500873047
  0
LWPOLYLINE
  5
10C
330
17
100
AcDbEntity
  8
ENG_K
100
AcDbPolyline
 90
5
 70
1
 10
164.80788816073093
 20
252.13057993945444
 10
165.39508036015098
 20
252.71777213887404
 10
165.86502616490134
 20
251.3079347246232
 10
164.80788816073093
 20
251.3079347246232
 10
164.80788816073093
 20
252.13057993945444
  0
LWPOLYLINE
  5
10D
330
17
100
AcDbEntity
  8
ENG_K
100
AcDbPolyline
 90
4
 70
1
 10
164.56694095581759
 20
265.6649634193331
 10
164.56694095581759
 20
267.31025384899556
 10
165.3895861706486
 20
266.4876086341643
 10
164.56694095581759
 20
265.6649634193331
  0
LWPOLYLINE
  5
10E
330
17
100
AcDbEntity
  8
ENG_K
100
AcDbPolyline
 90
5
 70
1
 10
163.8440993410775
 20
267.5512010539087
 10
164.4312915404975
 20
268.138393253329
 10
164.90123734524795
 20
266.7285558390777
 10
163.8440993410775
 20
266.7285558390777
 10
163.8440993410775
 20
267.5512010539087
  0
LWPOLYLINE
  5
10F
330
17
100
AcDbEntity
  8
ENG_K
100
AcDbPolyline
 90
5
 70
1
 10
164.04920073076184
 20
265.9004164347445
 10
162.8152329085151
 20
265.4890938273289
 10
162.19331472191305
 20
266.11101201393114
 10
163.4272825441596
 20
266.5223346213463
 10
164.04920073076184
 20
265.9004164347445
  0
LWPOLYLINE
  5
110
330
17
100
AcDbEntity
  8
ENG_K
100
AcDbPolyline
 90
5
 70
1
 10
162.9856083110174
 20
247.416933630781
 10
163.45555411576774
 20
246.0070962165295
 10
162.39841611159744
 20
246.0070962165295
 10
162.39841611159744
 20
246.82974143136073
 10
162.9856083110174
 20
247.416933630781
  0
LWPOLYLINE
  5
111
330
17
100
AcDbEntity
  8
ENG_K
100
AcDbPolyline
 90
5
 70
1
 10
160.0540216753727
 20
250.1379246872386
 10
160.67593986197497
 20
249.51600650063676
 10
159.44197203972826
 20
249.10468389322116
 10
158.82005385312615
 20
249.72660207982344
 10
160.0540216753727
 20
250.1379246872386
  0
LWPOLYLINE
  5
112
330
17
100
AcDbEntity
  8
ENG_K
100
AcDbPolyline
 90
7
 70
1
 10
158.4781832200749
 20
260.18825531923517
 10
158.06136642315712
 20
260.6050721161528
 10
157.57947201333042
 20
260.1231777063262
 10
156.580957206495
 20
261.12169251316163
 10
156.96080340459426
 20
262.26123110745993
 10
159.86191859715194
 20
260.64950044492764
 10
158.4781832200749
 20
260.18825531923517
  0
LWPOLYLINE
  5
113
330
17
100
AcDbEntity
  8
ENG_K
100
AcDbPolyline
 90
4
 70
1
 10
158.3023136280705
 20
216.2294464073652
 10
159.12495884290158
 20
215.40680119253432
 10
158.3023136280705
 20
214.5841559777031
 10
158.3023136280705
 20
216.2294464073652
  0
LWPOLYLINE
  5
114
330
17
100
AcDbEntity
  8
ENG_K
100
AcDbPolyline
 90
4
 70
1
 10
157.8204192182438
 20
255.0632864031457
 10
157.8204192182438
 20
256.70857683280815
 10
158.64306443307487
 20
255.8859316179769
 10
157.8204192182438
 20
255.0632864031457
  0
LWPOLYLINE
  5
115
330
17
100
AcDbEntity
  8
ENG_K
100
AcDbPolyline
 90
4
 70
1
 10
157.33852480841708
 20
223.93975696459245
 10
158.64306443307487
 20
222.63521733993485
 10
157.33852480841708
 20
221.33067771527726
 10
157.33852480841708
 20
223.93975696459245
  0
LWPOLYLINE
  5
116
330
17
100
AcDbEntity
  8
ENG_K
100
AcDbPolyline
 90
24
 70
1
 10
149.9882989747604
 20
209.12745359668895
 10
147.24611302631376
 20
209.43214092429398
 10
149.26942367033305
 20
212.03354032374733
 10
150.73314667566558
 20
212.03354032374733
 10
151.79673909541006
 20
213.09713274349184
 10
151.79673909541006
 20
217.71646964157677
 10
151.31484468558338
 20
218.19836405140347
 10
151.31484468558338
 20
219.31883639049587
 10
151.74451125559702
 20
220.17816953052315
 10
151.23501211218945
 20
220.68766867393097
 10
153.12457894894663
 20
223.11711174976145
 10
154.36757173458258
 20
223.11711174976145
 10
156.138590849621
 20
218.81606532752517
 10
155.66986362992597
 20
214.12879313057476
 10
156.01173435182938
 20
214.01483622327368
 10
156.45663194143074
 20
214.9046314024765
 10
158.63606603136907
 20
215.21597912961045
 10
157.5614760143951
 20
211.45491407020168
 10
156.7521051829385
 20
210.1059626844407
 10
155.26980356428803
 20
210.1059626844407
 10
154.78790915446135
 20
209.624068274614
 10
151.69693549531902
 20
209.624068274614
 10
150.87039945415387
 20
210.450604315779
 10
149.9882989747604
 20
209.12745359668895
  0
LWPOLYLINE
  5
117
330
17
100
AcDbEntity
  8
ENG_K
100
AcDbPolyline
 90
4
 70
1
 10
157.33852480841708
 20
219.40310007597031
 10
157.33852480841708
 20
221.0483905056324
 10
158.16117002324816
 20
220.2257452908012
 10
157.33852480841708
 20
219.40310007597031
  0
LWPOLYLINE
  5
118
330
17
100
AcDbEntity
  8
ENG_K
100
AcDbPolyline
 90
4
 70
1
 10
157.6792756134215
 20
221.18953411045462
 10
156.8566303985904
 20
220.36688889562407
 10
156.8566303985904
 20
222.01217932528584
 10
157.6792756134215
 20
221.18953411045462
  0
LWPOLYLINE
  5
119
330
17
100
AcDbEntity
  8
ENG_K
100
AcDbPolyline
 90
4
 70
1
 10
156.3747359887637
 20
262.97320416055527
 10
157.1973812035948
 20
262.150558945724
 10
156.3747359887637
 20
261.3279137308935
 10
156.3747359887637
 20
262.97320416055527
  0
LWPOLYLINE
  5
11A
330
17
100
AcDbEntity
  8
ENG_K
100
AcDbPolyline
 90
4
 70
1
 10
155.892841578937
 20
262.29170255054623
 10
155.892841578937
 20
263.9369929802087
 10
156.71548679376804
 20
263.11434776537743
 10
155.892841578937
 20
262.29170255054623
  0
LWPOLYLINE
  5
11B
330
17
100
AcDbEntity
  8
ENG_K
100
AcDbPolyline
 90
5
 70
1
 10
155.65189437402367
 20
252.61247434928103
 10
156.23908657344361
 20
253.1996665487011
 10
156.70903237819397
 20
251.78982913445003
 10
155.65189437402367
 20
251.78982913445003
 10
155.65189437402367
 20
252.61247434928103
  0
LWPOLYLINE
  5
11C
330
17
100
AcDbEntity
  8
ENG_K
100
AcDbPolyline
 90
4
 70
1
 10
155.7516979741147
 20
268.89708068329776
 10
154.9290527592836
 20
268.0744354684672
 10
154.9290527592836
 20
269.71972589812896
 10
155.7516979741147
 20
268.89708068329776
  0
LWPOLYLINE
  5
11D
330
17
100
AcDbEntity
  8
ENG_K
100
AcDbPolyline
 90
5
 70
1
 10
154.7672988086075
 20
268.91769102915174
 10
155.41777751338694
 20
268.2672123243721
 10
153.6451234804796
 20
267.9126815177906
 10
152.99464477570018
 20
268.5631602225702
 10
154.7672988086075
 20
268.91769102915174
  0
LWPOLYLINE
  5
11E
330
17
100
AcDbEntity
  8
ENG_K
100
AcDbPolyline
 90
5
 70
1
 10
152.66172298413366
 20
224.70352492175283
 10
153.8314850009952
 20
225.0934455940401
 10
154.8727169846144
 20
223.35805895467487
 10
153.33445596767282
 20
223.35805895467487
 10
152.66172298413366
 20
224.70352492175283
  0
LWPOLYLINE
  5
11F
330
17
100
AcDbEntity
  8
ENG_K
100
AcDbPolyline
 90
5
 70
1
 10
154.25917228053265
 20
245.0433073968761
 10
153.24242232489016
 20
245.0433073968761
 10
153.24242232489016
 20
246.34784702153388
 10
153.87229068381592
 20
246.97771538045976
 10
154.25917228053265
 20
245.0433073968761
  0
LWPOLYLINE
  5
120
330
17
100
AcDbEntity
  8
ENG_K
100
AcDbPolyline
 90
5
 70
1
 10
153.78939434762563
 20
226.52509860573034
 10
154.41131253422787
 20
225.9031804191285
 10
153.17734471198116
 20
225.4918578117129
 10
152.55542652537903
 20
226.11377599831516
 10
153.78939434762563
 20
226.52509860573034
  0
LWPOLYLINE
  5
121
330
17
100
AcDbEntity
  8
ENG_K
100
AcDbPolyline
 90
4
 70
1
 10
153.00147511997682
 20
234.34182678059767
 10
153.00147511997682
 20
235.98711721026012
 10
153.82412033480787
 20
235.1644719954289
 10
153.00147511997682
 20
234.34182678059767
  0
LWPOLYLINE
  5
122
330
17
100
AcDbEntity
  8
ENG_K
100
AcDbPolyline
 90
5
 70
1
 10
150.75919245951408
 20
233.21084857227348
 10
152.18600239486526
 20
235.20838248176523
 10
153.4475237145746
 20
234.78787537519574
 10
151.31484468558347
 20
232.6551963462047
 10
150.75919245951408
 20
233.21084857227348
  0
LWPOLYLINE
  5
123
330
17
100
AcDbEntity
  8
ENG_K
100
AcDbPolyline
 90
4
 70
1
 10
151.41464828567442
 20
231.30931671681543
 10
150.5920030708433
 20
230.4866715019842
 10
150.5920030708433
 20
232.13196193164598
 10
151.41464828567442
 20
231.30931671681543
  0
LWPOLYLINE
  5
124
330
17
100
AcDbEntity
  8
ENG_K
100
AcDbPolyline
 90
5
 70
1
 10
147.64839704509342
 20
232.07972236485674
 10
148.81688388579065
 20
233.2482092055541
 10
151.39673131670023
 20
232.9615594910084
 10
151.00118594436856
 20
231.7749233740136
 10
147.64839704509342
 20
232.07972236485674
  0
LWPOLYLINE
  5
125
330
17
100
AcDbEntity
  8
ENG_K
100
AcDbPolyline
 90
4
 70
1
 10
148.0413874168875
 20
209.14217386478717
 10
147.21874220205643
 20
208.31952864995617
 10
147.21874220205643
 20
209.9648190796185
 10
148.0413874168875
 20
209.14217386478717
  0
LWPOLYLINE
  5
126
330
17
100
AcDbEntity
  8
ENG_K
100
AcDbPolyline
 90
4
 70
1
 10
143.84548133326956
 20
224.70393858406433
 10
143.84548133326956
 20
226.34922901372613
 10
144.6681265481006
 20
225.5265837988949
 10
143.84548133326956
 20
224.70393858406433
  0
LWPOLYLINE
  5
127
330
17
100
AcDbEntity
  8
ENG_K
100
AcDbPolyline
 90
14
 70
1
 10
132.03906829251542
 20
237.01909669110833
 10
130.7930784847622
 20
238.8880814027381
 10
132.44176944810488
 20
238.55834321006975
 10
133.86684233173122
 20
239.983416093696
 10
133.27965013231128
 20
240.57060829311584
 10
134.6312804376126
 20
241.02115172821635
 10
134.95104509732946
 20
239.42232842963196
 10
133.5369793618086
 20
238.00826269411112
 10
133.96664593182223
 20
237.14892955408385
 10
133.96664593182223
 20
234.78238118569328
 10
134.7892911466533
 20
233.95973597086206
 10
132.66210630716446
 20
233.95973597086206
 10
132.03906829251542
 20
234.5827739855113
 10
132.03906829251542
 20
237.01909669110833
  0
LWPOLYLINE
  5
128
330
17
100
AcDbEntity
  8
ENG_K
100
AcDbPolyline
 90
17
 70
1
 10
132.03906829251542
 20
19.342514905228093
 10
132.03906829251542
 20
17.448002353852132
 10
132.53227755177403
 20
16.95479309459358
 10
132.25448805417292
 20
14.454687616183403
 10
107.68227507244882
 20
14.697976853626283
 10
103.60422101330221
 20
15.377652530150554
 10
103.61272721395524
 20
15.570025750780703
 10
107.85893037694123
 20
15.896656763318195
 10
109.42717276589937
 20
17.016829898288233
 10
109.78876468159761
 20
18.10160564538299
 10
111.43808227242407
 20
15.902515524281014
 10
112.86309549953855
 20
15.902515524281014
 10
113.24518630927417
 20
15.520424714545399
 10
113.62727711900982
 20
15.902515524281014
 10
130.83433226794867
 20
15.902515524281014
 10
130.83433226794867
 20
21.350408279505963
 10
132.03906829251542
 20
19.342514905228093
  0
LWPOLYLINE
  5
129
330
17
100
AcDbEntity
  8
ENG_K
100
AcDbPolyline
 90
4
 70
1
 10
132.38215574974456
 20
241.19310049498276
 10
131.9725224212405
 20
239.1449338524625
 10
130.33398910722448
 20
239.96420050947086
 10
132.38215574974456
 20
241.19310049498276
  0
LWPOLYLINE
  5
12A
330
17
100
AcDbEntity
  8
ENG_K
100
AcDbPolyline
 90
4
 70
1
 10
128.28371661399288
 20
145.532111767663
 10
127.4610713991618
 20
144.709466552832
 10
127.4610713991618
 20
146.354756982494
 10
128.28371661399288
 20
145.532111767663
  0
LWPOLYLINE
  5
12B
330
17
100
AcDbEntity
  8
ENG_K
100
AcDbPolyline
 90
5
 70
1
 10
123.27978121438373
 20
134.43392444280911
 10
122.61289550321494
 20
135.10081015397768
 10
124.89583984636612
 20
135.4269450601423
 10
125.56272555753478
 20
134.76005934897339
 10
123.27978121438373
 20
134.43392444280911
  0
LWPOLYLINE
  5
12C
330
17
100
AcDbEntity
  8
ENG_K
100
AcDbPolyline
 90
4
 70
1
 10
123.1240217107215
 20
24.717758505984122
 10
123.1240217107215
 20
26.363048935646226
 10
123.94666692555259
 20
25.540403720815007
 10
123.1240217107215
 20
24.717758505984122
  0
LWPOLYLINE
  5
12D
330
17
100
AcDbEntity
  8
ENG_K
100
AcDbPolyline
 90
14
 70
1
 10
119.02791922719454
 20
85.58907905636681
 10
119.02791922719454
 20
87.32269177872342
 10
119.50981363702127
 20
87.80458618855013
 10
119.50981363702127
 20
91.94202867680845
 10
119.01330332835464
 20
92.43853898547505
 10
119.35155402741321
 20
94.80629387888496
 10
121.43739127632806
 20
92.12450313028009
 10
121.43739127632806
 20
90.6959526475103
 10
121.95401167333688
 20
90.17933225050146
 10
121.63778779764809
 20
89.2306606234351
 10
120.64751568226617
 20
88.63649735420597
 10
123.36496891563485
 20
86.37195299306543
 10
123.36496891563485
 20
84.5048166342568
 10
119.02791922719454
 20
85.58907905636681
  0
LWPOLYLINE
  5
12E
330
17
100
AcDbEntity
  8
ENG_K
100
AcDbPolyline
 90
5
 70
1
 10
120.02643403403009
 20
86.67591615589687
 10
120.15302775417848
 20
86.29613499545164
 10
120.81392473912777
 20
86.42831439244148
 10
120.42576506342039
 20
87.07524718528714
 10
120.02643403403009
 20
86.67591615589687
  0
LWPOLYLINE
  5
12F
330
17
100
AcDbEntity
  8
ENG_K
100
AcDbPolyline
 90
4
 70
1
 10
121.67833848124141
 20
26.64533614529052
 10
121.67833848124141
 20
28.29062657495274
 10
122.50098369607247
 20
27.46798136012185
 10
121.67833848124141
 20
26.64533614529052
  0
LWPOLYLINE
  5
130
330
17
100
AcDbEntity
  8
ENG_K
100
AcDbPolyline
 90
4
 70
1
 10
120.2326552517613
 20
17.00744794875697
 10
120.2326552517613
 20
18.652738378418743
 10
121.05530046659241
 20
17.830093163587858
 10
120.2326552517613
 20
17.00744794875697
  0
LWPOLYLINE
  5
131
330
17
100
AcDbEntity
  8
ENG_K
100
AcDbPolyline
 90
5
 70
1
 10
119.58900689125842
 20
17.850703509441846
 10
120.23948559603808
 20
17.20022480466199
 10
118.46683156313075
 20
16.84569399808067
 10
117.816352858351
 20
17.496172702860193
 10
119.58900689125842
 20
17.850703509441846
  0
LWPOLYLINE
  5
132
330
17
100
AcDbEntity
  8
ENG_K
100
AcDbPolyline
 90
13
 70
1
 10
115.39924353508255
 20
98.8768806595195
 10
117.08849239731447
 20
99.43996361359686
 10
116.81727147731581
 20
103.5082774135765
 10
118.5982526571809
 20
101.72729623371146
 10
118.1163582473542
 20
100.76350741405804
 10
119.12772282728558
 20
99.75214283412659
 10
118.64582841745889
 20
99.27024842429988
 10
119.50981363702127
 20
98.40626320473756
 10
119.50981363702127
 20
95.51489674577729
 10
120.09151164693898
 20
94.93319873585959
 10
118.90470719841798
 20
93.74639428733866
 10
118.09327157928566
 20
96.72165822415712
 10
115.39924353508255
 20
98.8768806595195
  0
LWPOLYLINE
  5
133
330
17
100
AcDbEntity
  8
ENG_K
100
AcDbPolyline
 90
4
 70
1
 10
117.2001451879788
 20
16.866304343934434
 10
116.3774999731477
 20
16.04365912910355
 10
116.3774999731477
 20
17.688949558765653
 10
117.2001451879788
 20
16.866304343934434
  0
LWPOLYLINE
  5
134
330
17
100
AcDbEntity
  8
ENG_K
100
AcDbPolyline
 90
4
 70
1
 10
115.89560556332101
 20
146.83665139232062
 10
116.71825077815211
 20
146.0140061774897
 10
115.89560556332101
 20
145.1913609626585
 10
115.89560556332101
 20
146.83665139232062
  0
LWPOLYLINE
  5
135
330
17
100
AcDbEntity
  8
ENG_K
100
AcDbPolyline
 90
4
 70
1
 10
116.23635636832542
 20
146.49590058731633
 10
115.41371115349432
 20
145.67325537248544
 10
115.41371115349432
 20
147.31854580214753
 10
116.23635636832542
 20
146.49590058731633
  0
LWPOLYLINE
  5
136
330
17
100
AcDbEntity
  8
ENG_K
100
AcDbPolyline
 90
5
 70
1
 10
113.64189301784977
 20
146.96317909830324
 10
112.97500730668098
 20
147.63006480947183
 10
115.25795164983214
 20
147.95619971563644
 10
115.92483736100081
 20
147.28931400446754
 10
113.64189301784977
 20
146.96317909830324
  0
LWPOLYLINE
  5
137
330
17
100
AcDbEntity
  8
ENG_K
100
AcDbPolyline
 90
4
 70
1
 10
112.52234469453413
 20
147.80044021197403
 10
113.34498990936521
 20
146.97779499714315
 10
112.52234469453413
 20
146.15514978231192
 10
112.52234469453413
 20
147.80044021197403
  0
LWPOLYLINE
  5
138
330
17
100
AcDbEntity
  8
ENG_K
100
AcDbPolyline
 90
8
 70
1
 10
107.16854505045137
 20
29.877453409255295
 10
110.45362345040506
 20
29.877453409255295
 10
110.94632519846459
 20
29.384751661195697
 10
113.93918267368866
 20
29.05221194172636
 10
111.30980699165971
 20
27.92533664942831
 10
110.30737216629683
 20
28.426554062109698
 10
107.50959362070934
 20
28.17221055796548
 10
107.16854505045137
 20
29.877453409255295
  0
LWPOLYLINE
  5
139
330
17
100
AcDbEntity
  8
ENG_K
100
AcDbPolyline
 90
4
 70
1
 10
112.86309549953852
 20
100.71593165378002
 10
112.04045028470742
 20
99.89328643894912
 10
112.04045028470742
 20
101.53857686861123
 10
112.86309549953852
 20
100.71593165378002
  0
LWPOLYLINE
  5
13A
330
17
100
AcDbEntity
  8
ENG_K
100
AcDbPolyline
 90
4
 70
1
 10
111.55855587488072
 20
145.67325537248544
 10
111.55855587488072
 20
147.31854580214753
 10
112.38120108971182
 20
146.49590058731633
 10
111.55855587488072
 20
145.67325537248544
  0
LWPOLYLINE
  5
13B
330
17
100
AcDbEntity
  8
ENG_K
100
AcDbPolyline
 90
5
 70
1
 10
110.44716903483089
 20
19.51672359798129
 10
109.39003103066058
 20
19.51672359798129
 10
109.39003103066058
 20
20.339368812812285
 10
109.97722323008057
 20
20.926561012232447
 10
110.44716903483089
 20
19.51672359798129
  0
LWPOLYLINE
  5
13C
330
17
100
AcDbEntity
  8
ENG_K
100
AcDbPolyline
 90
5
 70
1
 10
109.93700305339618
 20
146.04873216467175
 10
110.55892123999833
 20
145.42681397806967
 10
109.3249534177517
 20
145.01549137065427
 10
108.70303523114954
 20
145.63740955725635
 10
109.93700305339618
 20
146.04873216467175
  0
LWPOLYLINE
  5
13D
330
17
100
AcDbEntity
  8
ENG_K
100
AcDbPolyline
 90
5
 70
1
 10
108.34704895677008
 20
99.73153248827282
 10
107.69657025199035
 20
100.38201119305235
 10
109.46922428489775
 20
100.736541999634
 10
110.11970298967739
 20
100.08606329485414
 10
108.34704895677008
 20
99.73153248827282
  0
LWPOLYLINE
  5
13E
330
17
100
AcDbEntity
  8
ENG_K
100
AcDbPolyline
 90
5
 70
1
 10
109.49532882025385
 20
21.89034983188587
 10
109.96527462500418
 20
20.48051241763471
 10
108.90813662083389
 20
20.48051241763471
 10
108.90813662083389
 20
21.30315763246571
 10
109.49532882025385
 20
21.89034983188587
  0
LWPOLYLINE
  5
13F
330
17
100
AcDbEntity
  8
ENG_K
100
AcDbPolyline
 90
5
 70
1
 10
109.59513242034495
 20
88.08137920869252
 10
108.3611645980983
 20
87.67005660127714
 10
107.73924641149615
 20
88.2919747878792
 10
108.97321423374277
 20
88.70329739529458
 10
109.59513242034495
 20
88.08137920869252
  0
LWPOLYLINE
  5
140
330
17
100
AcDbEntity
  8
ENG_K
100
AcDbPolyline
 90
5
 70
1
 10
109.59513242034485
 20
144.94491956824308
 10
108.36116459809826
 20
144.53359696082734
 10
107.73924641149625
 20
145.15551514742953
 10
108.97321423374281
 20
145.56683775484524
 10
109.59513242034485
 20
144.94491956824308
  0
LWPOLYLINE
  5
141
330
17
100
AcDbEntity
  8
ENG_K
100
AcDbPolyline
 90
4
 70
1
 10
108.52604581109824
 20
144.56832294800958
 10
107.70340059626714
 20
143.7456777331787
 10
107.70340059626714
 20
145.39096816284047
 10
108.52604581109824
 20
144.56832294800958
  0
LWPOLYLINE
  5
142
330
17
100
AcDbEntity
  8
ENG_K
100
AcDbPolyline
 90
4
 70
1
 10
107.22150618644044
 20
27.127230555117343
 10
107.22150618644044
 20
28.772520984779447
 10
108.04415140127153
 20
27.949875769948562
 10
107.22150618644044
 20
27.127230555117343
  0
LWPOLYLINE
  5
143
330
17
100
AcDbEntity
  8
ENG_K
100
AcDbPolyline
 90
4
 70
1
 10
107.22150618644044
 20
23.47168247668574
 10
108.04415140127153
 20
22.649037261854854
 10
107.22150618644044
 20
21.826392047023635
 10
107.22150618644044
 20
23.47168247668574
  0
LWPOLYLINE
  5
144
330
17
100
AcDbEntity
  8
ENG_K
100
AcDbPolyline
 90
4
 70
1
 10
106.73961177661374
 20
23.27207527650399
 10
106.73961177661374
 20
24.917365706166205
 10
107.56225699144481
 20
24.094720491334876
 10
106.73961177661374
 20
23.27207527650399
  0
LWPOLYLINE
  5
145
330
17
100
AcDbEntity
  8
ENG_K
100
AcDbPolyline
 90
5
 70
1
 10
107.08585677112039
 20
22.854138651539067
 10
107.5558025758707
 20
21.444301237288133
 10
106.49866457170039
 20
21.444301237288133
 10
106.49866457170039
 20
22.26694645211913
 10
107.08585677112039
 20
22.854138651539067
  0
LWPOLYLINE
  5
146
330
17
100
AcDbEntity
  8
ENG_K
100
AcDbPolyline
 90
5
 70
1
 10
103.34494064685178
 20
141.59074405819084
 10
105.97063066909843
 20
143.63294740882714
 10
107.24291644741552
 20
143.20885214938806
 10
104.61722642516888
 20
141.16664879875174
 10
103.34494064685178
 20
141.59074405819084
  0
LWPOLYLINE
  5
147
330
17
100
AcDbEntity
  8
ENG_K
100
AcDbPolyline
 90
5
 70
1
 10
103.0402160016624
 20
15.406005215614528
 10
102.3733302904936
 20
16.072890926783103
 10
104.65627463364477
 20
16.39902583294772
 10
105.32316034481345
 20
15.732140121778816
 10
103.0402160016624
 20
15.406005215614528
  0
LWPOLYLINE
  5
148
330
17
100
AcDbEntity
  8
ENG_K
100
AcDbPolyline
 90
42
 70
1
 10
102.11869120251714
 20
86.401826639813
 10
103.12540370291352
 20
84.3884016390204
 10
103.12540370291352
 20
83.44068584364628
 10
104.08919252256692
 20
81.99500261416614
 10
104.08919252256692
 20
80.85845725079443
 10
103.60729811274021
 20
80.37656284096772
 10
103.60729811274021
 20
78.01743812235229
 10
102.4629136052305
 20
75.3472076048296
 10
102.15567687421435
 20
80.570232032104
 10
102.6435092930868
 20
81.0580644509764
 10
102.6435092930868
 20
81.84909672691131
 10
101.6797204734334
 20
83.29477995639145
 10
101.6797204734334
 20
84.71361252940801
 10
100.60637403051251
 20
85.7869589723289
 10
95.98662561091372
 20
86.24893381428878
 10
95.5148967457774
 20
85.77720494915242
 10
94.56914770197648
 20
85.77720494915242
 10
93.00562109655284
 20
83.76695645646492
 10
93.00562109655284
 20
81.03121379451284
 10
93.95538292517898
 20
79.60657105157354
 10
94.43231804476818
 20
77.22189545362757
 10
94.93319873585963
 20
76.72101476253613
 10
94.93319873585963
 20
74.31154271340257
 10
95.41509314568633
 20
73.82964830357585
 10
95.41509314568633
 20
71.22056905426044
 10
94.51638193894183
 20
70.32185784751577
 10
93.42368592594188
 20
70.6860898518492
 10
93.93468392902412
 20
72.219083861096
 10
93.3877119062885
 20
72.76605588383146
 10
93.9171820763932
 20
73.29552605393619
 10
92.9533932567398
 20
75.22310369324303
 10
93.48751550637952
 20
75.7572259428827
 10
93.48751550637952
 20
77.00330197218075
 10
92.52372668672614
 20
77.96709079183417
 10
92.52372668672614
 20
78.9308796114876
 10
91.94202867680842
 20
79.51257762140528
 10
92.38647390823789
 20
79.9570228528348
 10
91.06482766766243
 20
80.83812034655169
 10
91.57199707420762
 20
85.9098144120033
 10
93.41030034748823
 20
87.22288817863245
 10
101.29762966369779
 20
87.22288817863245
 10
102.11869120251714
 20
86.401826639813
  0
LWPOLYLINE
  5
149
330
17
100
AcDbEntity
  8
ENG_K
100
AcDbPolyline
 90
5
 70
1
 10
102.1616148832601
 20
75.7572259428827
 10
102.74880708268012
 20
76.34441814230264
 10
103.21875288743041
 20
74.9345807280517
 10
102.1616148832601
 20
74.9345807280517
 10
102.1616148832601
 20
75.7572259428827
  0
LWPOLYLINE
  5
14A
330
17
100
AcDbEntity
  8
ENG_K
100
AcDbPolyline
 90
4
 70
1
 10
101.92066767834676
 20
141.53581288422689
 10
102.74331289317783
 20
140.713167669396
 10
101.92066767834676
 20
139.8905224545647
 10
101.92066767834676
 20
141.53581288422689
  0
LWPOLYLINE
  5
14B
330
17
100
AcDbEntity
  8
ENG_K
100
AcDbPolyline
 90
5
 70
1
 10
102.26691267285341
 20
75.38062932264921
 10
102.73685847760372
 20
73.97079190839828
 10
101.6797204734334
 20
73.97079190839828
 10
101.6797204734334
 20
74.79343712322928
 10
102.26691267285341
 20
75.38062932264921
  0
LWPOLYLINE
  5
14C
330
17
100
AcDbEntity
  8
ENG_K
100
AcDbPolyline
 90
4
 70
1
 10
102.26141848335114
 20
139.74937884974258
 10
101.43877326852007
 20
138.9267336349117
 10
101.43877326852007
 20
140.57202406457392
 10
102.26141848335114
 20
139.74937884974258
  0
LWPOLYLINE
  5
14D
330
17
100
AcDbEntity
  8
ENG_K
100
AcDbPolyline
 90
5
 70
1
 10
102.18986956094247
 20
71.07942544943813
 10
101.19782606360671
 20
71.07942544943813
 10
101.19782606360671
 20
73.34775389374914
 10
101.86383236677779
 20
74.0137601969204
 10
102.18986956094247
 20
71.07942544943813
  0
LWPOLYLINE
  5
14E
330
17
100
AcDbEntity
  8
ENG_K
100
AcDbPolyline
 90
4
 70
1
 10
101.43877326852007
 20
68.5701498002137
 10
101.43877326852007
 20
70.21544022987591
 10
102.26141848335114
 20
69.39279501504458
 10
101.43877326852007
 20
68.5701498002137
  0
LWPOLYLINE
  5
14F
330
17
100
AcDbEntity
  8
ENG_K
100
AcDbPolyline
 90
5
 70
1
 10
101.71444646061553
 20
70.42166144760687
 10
101.3502144562822
 20
69.32896543460699
 10
100.028935854269
 20
69.76939163527796
 10
101.19782606360668
 20
70.93828184461559
 10
101.71444646061553
 20
70.42166144760687
  0
LWPOLYLINE
  5
150
330
17
100
AcDbEntity
  8
ENG_K
100
AcDbPolyline
 90
4
 70
1
 10
99.99309003903996
 20
70.21544022987581
 10
100.81573525387105
 20
69.39279501504458
 10
99.99309003903996
 20
68.5701498002137
 10
99.99309003903996
 20
70.21544022987581
  0
LWPOLYLINE
  5
151
330
17
100
AcDbEntity
  8
ENG_K
100
AcDbPolyline
 90
4
 70
1
 10
100.33384084404436
 20
68.91090060521788
 10
99.51119562921326
 20
68.08825539038699
 10
99.51119562921326
 20
69.73354582004909
 10
100.33384084404436
 20
68.91090060521788
  0
LWPOLYLINE
  5
152
330
17
100
AcDbEntity
  8
ENG_K
100
AcDbPolyline
 90
8
 70
1
 10
99.75214283412663
 20
64.814798121691
 10
98.77175602285881
 20
64.814798121691
 10
99.06515592817502
 20
69.21579670143385
 10
100.28626508376635
 20
67.9946875458426
 10
99.80437067393966
 20
67.03089872618916
 10
100.33384084404435
 20
66.50142855608443
 10
99.75214283412663
 20
65.91973054616673
 10
99.75214283412663
 20
64.814798121691
  0
LWPOLYLINE
  5
153
330
17
100
AcDbEntity
  8
ENG_K
100
AcDbPolyline
 90
5
 70
1
 10
98.49107103489062
 20
60.47774843325071
 10
96.86077637516642
 20
60.47774843325071
 10
96.86077637516642
 20
61.78228805790842
 10
97.3905081782474
 20
62.31201986098933
 10
98.49107103489062
 20
60.47774843325071
  0
LWPOLYLINE
  5
154
330
17
100
AcDbEntity
  8
ENG_K
100
AcDbPolyline
 90
4
 70
1
 10
96.61982917025307
 20
63.46891849230174
 10
97.44247438508415
 20
62.646273277470854
 10
96.61982917025307
 20
61.823628062639635
 10
96.61982917025307
 20
63.46891849230174
  0
LWPOLYLINE
  5
155
330
17
100
AcDbEntity
  8
ENG_K
100
AcDbPolyline
 90
7
 70
1
 10
95.86919753615777
 20
63.77287066893267
 10
97.0265878166476
 20
63.19417552868778
 10
95.97618080975016
 20
62.14376852179016
 10
94.45130432603293
 20
62.448743818533714
 10
94.45130432603293
 20
63.67680060928449
 10
95.5291347425738
 20
65.47318463685248
 10
95.86919753615777
 20
63.77287066893267
  0
LWPOLYLINE
  5
156
330
17
100
AcDbEntity
  8
ENG_K
100
AcDbPolyline
 90
10
 70
1
 10
96.04590111764372
 20
65.77858694134441
 10
94.51858661145822
 20
65.77858694134441
 10
94.25090780471291
 20
66.58162336158024
 10
92.93127420862609
 20
67.37340351923248
 10
93.45907554670549
 20
68.42900619539117
 10
92.93127420862609
 20
69.48460887154995
 10
94.58490200691296
 20
70.47678555052205
 10
94.96792472304175
 20
69.32771740213572
 10
94.50353216584597
 20
68.86332484493984
 10
96.04590111764372
 20
65.77858694134441
  0
LWPOLYLINE
  5
157
330
17
100
AcDbEntity
  8
ENG_K
100
AcDbPolyline
 90
4
 70
1
 10
94.69225153094628
 20
71.17922904952889
 10
95.51489674577735
 20
70.356583834698
 10
94.69225153094628
 20
69.53393861986667
 10
94.69225153094628
 20
71.17922904952889
  0
LWPOLYLINE
  5
158
330
17
100
AcDbEntity
  8
CUT_SLOT
100
AcDbPolyline
 90
5
 70
1
 10
200.52129905940333
 20
144.56832294800958
 10
204.0854006745411
 20
144.56832294800958
 10
204.0854006745411
 20
289.13664589601916
 10
200.52129905940333
 20
289.13664589601916
 10
200.52129905940333
 20
144.56832294800958
  0
LWPOLYLINE
  5
159
330
17
100
AcDbEntity
  8
CUT_SLOT
100
AcDbPolyline
 90
5
 70
1
 10
177.42728829181823
 20
144.56832294800958
 10
180.991389906956
 20
144.56832294800958
 10
180.991389906956
 20
289.13664589601916
 10
177.42728829181823
 20
289.13664589601916
 10
177.42728829181823
 20
144.56832294800958
  0
LWPOLYLINE
  5
15A
330
17
100
AcDbEntity
  8
CUT_SLOT
100
AcDbPolyline
 90
5
 70
1
 10
154.3332775242332
 20
144.56832294800958
 10
157.89737913937097
 20
144.56832294800958
 10
157.89737913937097
 20
289.13664589601916
 10
154.3332775242332
 20
289.13664589601916
 10
154.3332775242332
 20
144.56832294800958
  0
LWPOLYLINE
  5
15B
330
17
100
AcDbEntity
  8
CUT_SLOT
100
AcDbPolyline
 90
5
 70
1
 10
131.23926675664816
 20
144.56832294800958
 10
134.80336837178592
 20
144.56832294800958
 10
134.80336837178592
 20
289.13664589601916
 10
131.23926675664816
 20
289.13664589601916
 10
131.23926675664816
 20
144.56832294800958
  0
LWPOLYLINE
  5
15C
330
17
100
AcDbEntity
  8
CUT_SLOT
100
AcDbPolyline
 90
5
 70
1
 10
108.14525598906314
 20
144.56832294800958
 10
111.7093576042009
 20
144.56832294800958
 10
111.7093576042009
 20
289.13664589601916
 10
108.14525598906314
 20
289.13664589601916
 10
108.14525598906314
 20
144.56832294800958
  0
LWPOLYLINE
  5
15D
330
17
100
AcDbEntity
  8
CUT_SLOT
100
AcDbPolyline
 90
5
 70
1
 10
85.05124522147811
 20
144.56832294800958
 10
88.61534683661587
 20
144.56832294800958
 10
88.61534683661587
 20
289.13664589601916
 10
85.05124522147811
 20
289.13664589601916
 10
85.05124522147811
 20
144.56832294800958
  0
LWPOLYLINE
  5
15E
330
17
100
AcDbEntity
  8
CUT_SLOT
100
AcDbPolyline
 90
5
 70
1
 10
108.14525598906316
 20
144.56832294800958
 10
111.70935760420092
 20
144.56832294800958
 10
111.70935760420092
 20
289.13664589601916
 10
108.14525598906316
 20
289.13664589601916
 10
108.14525598906316
 20
144.56832294800958
  0
LWPOLYLINE
  5
15F
330
17
100
AcDbEntity
  8
CUT_SLOT
100
AcDbPolyline
 90
5
 70
1
 10
131.23926675664822
 20
144.56832294800958
 10
134.80336837178598
 20
144.56832294800958
 10
134.80336837178598
 20
289.13664589601916
 10
131.23926675664822
 20
289.13664589601916
 10
131.23926675664822
 20
144.56832294800958
  0
LWPOLYLINE
  5
160
330
17
100
AcDbEntity
  8
CUT_SLOT
100
AcDbPolyline
 90
5
 70
1
 10
154.33327752423324
 20
144.56832294800958
 10
157.897379139371
 20
144.56832294800958
 10
157.897379139371
 20
289.13664589601916
 10
154.33327752423324
 20
289.13664589601916
 10
154.33327752423324
 20
144.56832294800958
  0
LWPOLYLINE
  5
161
330
17
100
AcDbEntity
  8
CUT_SLOT
100
AcDbPolyline
 90
5
 70
1
 10
177.4272882918183
 20
144.56832294800958
 10
180.99138990695604
 20
144.56832294800958
 10
180.99138990695604
 20
289.13664589601916
 10
177.4272882918183
 20
289.13664589601916
 10
177.4272882918183
 20
144.56832294800958
  0
LWPOLYLINE
  5
162
330
17
100
AcDbEntity
  8
CUT_OUTLINE
100
AcDbPolyline
 90
5
 70
1
 10
0.0
 20
0.0
 10
289.13664589601916
 20
0.0
 10
289.13664589601916
 20
289.13664589601916
 10
0.0
 20
289.13664589601916
 10
0.0
 20
0.0
  0
ENDSEC
  0
SECTION
  2
OBJECTS
  0
DICTIONARY
  5
A
330
0
100
AcDbDictionary
281
1
  3
ACAD_COLOR
350
B
  3
ACAD_GROUP
350
C
  3
ACAD_LAYOUT
350
D
  3
ACAD_MATERIAL
350
E
  3
ACAD_MLEADERSTYLE
350
F
  3
ACAD_MLINESTYLE
350
10
  3
ACAD_PLOTSETTINGS
350
11
  3
ACAD_PLOTSTYLENAME
350
12
  3
ACAD_SCALELIST
350
14
  3
ACAD_TABLESTYLE
350
15
  3
ACAD_VISUALSTYLE
350
16
  3
EZDXF_META
350
2D
  0
DICTIONARY
  5
B
330
A
100
AcDbDictionary
281
1
  0
DICTIONARY
  5
C
330
A
100
AcDbDictionary
281
1
  0
DICTIONARY
  5
D
330
A
100
AcDbDictionary
281
1
  3
Model
350
1A
  3
Layout1
350
1E
  0
DICTIONARY
  5
E
330
A
100
AcDbDictionary
281
1
  3
ByBlock
350
1F
  3
ByLayer
350
20
  3
Global
350
21
  0
DICTIONARY
  5
F
330
A
100
AcDbDictionary
281
1
  3
Standard
350
2C
  0
DICTIONARY
  5
10
330
A
100
AcDbDictionary
281
1
  3
Standard
350
22
  0
DICTIONARY
  5
11
330
A
100
AcDbDictionary
281
1
  0
ACDBDICTIONARYWDFLT
  5
12
330
A
100
AcDbDictionary
281
1
  3
Normal
350
13
100
AcDbDictionaryWithDefault
340
13
  0
ACDBPLACEHOLDER
  5
13
330
12
  0
DICTIONARY
  5
14
330
A
100
AcDbDictionary
281
1
  0
DICTIONARY
  5
15
330
A
100
AcDbDictionary
281
1
  0
DICTIONARY
  5
16
330
A
100
AcDbDictionary
281
1
  0
LAYOUT
  5
1A
330
D
100
AcDbPlotSettings
  1

  4
A3
  6

 40
7.5
 41
20.0
 42
7.5
 43
20.0
 44
420.0
 45
297.0
 46
0.0
 47
0.0
 48
0.0
 49
0.0
140
0.0
141
0.0
142
1.0
143
1.0
 70
1024
 72
1
 73
0
 74
5
  7

 75
16
 76
0
 77
2
 78
300
147
1.0
148
0.0
149
0.0
100
AcDbLayout
  1
Model
 70
1
 71
0
 10
0.0
 20
0.0
 11
420.0
 21
297.0
 12
0.0
 22
0.0
 32
0.0
 14
1e+20
 24
1e+20
 34
1e+20
 15
-1e+20
 25
-1e+20
 35
-1e+20
146
0.0
 13
0.0
 23
0.0
 33
0.0
 16
1.0
 26
0.0
 36
0.0
 17
0.0
 27
1.0
 37
0.0
 76
1
330
17
  0
LAYOUT
  5
1E
330
D
100
AcDbPlotSettings
  1

  4
A3
  6

 40
7.5
 41
20.0
 42
7.5
 43
20.0
 44
420.0
 45
297.0
 46
0.0
 47
0.0
 48
0.0
 49
0.0
140
0.0
141
0.0
142
1.0
143
1.0
 70
0
 72
1
 73
0
 74
5
  7

 75
16
 76
0
 77
2
 78
300
147
1.0
148
0.0
149
0.0
100
AcDbLayout
  1
Layout1
 70
1
 71
1
 10
0.0
 20
0.0
 11
420.0
 21
297.0
 12
0.0
 22
0.0
 32
0.0
 14
1e+20
 24
1e+20
 34
1e+20
 15
-1e+20
 25
-1e+20
 35
-1e+20
146
0.0
 13
0.0
 23
0.0
 33
0.0
 16
1.0
 26
0.0
 36
0.0
 17
0.0
 27
1.0
 37
0.0
 76
1
330
1B
  0
MATERIAL
  5
1F
102
{ACAD_REACTORS
330
E
102
}
330
E
100
AcDbMaterial
  1
ByBlock
  2

 70
0
 40
1.0
 71
1
 41
1.0
 91
-1023410177
 42
1.0
 72
1
  3

 73
1
 74
1
 75
1
 44
0.5
 73
0
 45
1.0
 46
1.0
 77
1
  4

 78
1
 79
1
170
1
 48
1.0
171
1
  6

172
1
173
1
174
1
140
1.0
141
1.0
175
1
  7

176
1
177
1
178
1
143
1.0
179
1
  8

270
1
271
1
272
1
145
1.0
146
1.0
273
1
  9

274
1
275
1
276
1
 42
1.0
 72
1
  3

 73
1
 74
1
 75
1
 94
63
  0
MATERIAL
  5
20
102
{ACAD_REACTORS
330
E
102
}
330
E
100
AcDbMaterial
  1
ByLayer
  2

 70
0
 40
1.0
 71
1
 41
1.0
 91
-1023410177
 42
1.0
 72
1
  3

 73
1
 74
1
 75
1
 44
0.5
 73
0
 45
1.0
 46
1.0
 77
1
  4

 78
1
 79
1
170
1
 48
1.0
171
1
  6

172
1
173
1
174
1
140
1.0
141
1.0
175
1
  7

176
1
177
1
178
1
143
1.0
179
1
  8

270
1
271
1
272
1
145
1.0
146
1.0
273
1
  9

274
1
275
1
276
1
 42
1.0
 72
1
  3

 73
1
 74
1
 75
1
 94
63
  0
MATERIAL
  5
21
102
{ACAD_REACTORS
330
E
102
}
330
E
100
AcDbMaterial
  1
Global
  2

 70
0
 40
1.0
 71
1
 41
1.0
 91
-1023410177
 42
1.0
 72
1
  3

 73
1
 74
1
 75
1
 44
0.5
 73
0
 45
1.0
 46
1.0
 77
1
  4

 78
1
 79
1
170
1
 48
1.0
171
1
  6

172
1
173
1
174
1
140
1.0
141
1.0
175
1
  7

176
1
177
1
178
1
143
1.0
179
1
  8

270
1
271
1
272
1
145
1.0
146
1.0
273
1
  9

274
1
275
1
276
1
 42
1.0
 72
1
  3

 73
1
 74
1
 75
1
 94
63
  0
MLINESTYLE
  5
22
102
{ACAD_REACTORS
330
10
102
}
330
10
100
AcDbMlineStyle
  2
Standard
 70
0
  3

 62
256
 51
90.0
 52
90.0
 71
2
 49
0.5
 62
256
  6
BYLAYER
 49
-0.5
 62
256
  6
BYLAYER
  0
MLEADERSTYLE
  5
2C
102
{ACAD_REACTORS
330
F
102
}
330
F
100
AcDbMLeaderStyle
179
2
170
2
171
1
172
0
 90
2
 40
0.0
 41
0.0
173
1
 91
-1056964608
 92
-2
290
1
 42
2.0
291
1
 43
8.0
  3
Standard
 44
4.0
300

342
29
174
1
175
1
176
0
178
1
 93
-1056964608
 45
4.0
292
0
297
0
 46
4.0
 94
-1056964608
 47
1.0
 49
1.0
140
1.0
294
1
141
0.0
177
0
142
1.0
295
0
296
0
143
3.75
271
0
272
9
273
9
  0
DICTIONARY
  5
2D
330
A
100
AcDbDictionary
280
1
281
1
  3
CREATED_BY_EZDXF
350
2E
  3
WRITTEN_BY_EZDXF
350
165
  0
DICTIONARYVAR
  5
2E
330
2D
100
DictionaryVariables
280
0
  1
1.4.4 @ 2026-08-03T11:55:52.809330+00:00
  0
DICTIONARYVAR
  5
165
330
2D
100
DictionaryVariables
280
0
  1
1.4.4 @ 2026-08-03T11:55:52.841476+00:00
  0
ENDSEC
  0
EOF
