  0
SECTION
  2
HEADER
  9
$ACADVER
  1
AC1027
  9
$ACADMAINTVER
 70
105
  9
$DWGCODEPAGE
  3
ANSI_1252
  9
$LASTSAVEDBY
  1
ezdxf
  9
$REQUIREDVERSIONS
160
0
  9
$INSBASE
 10
0.0
 20
0.0
 30
0.0
  9
$EXTMIN
 10
1e+20
 20
1e+20
 30
1e+20
  9
$EXTMAX
 10
-1e+20
 20
-1e+20
 30
-1e+20
  9
$LIMMIN
 10
0.0
 20
0.0
  9
$LIMMAX
 10
420.0
 20
297.0
  9
$ORTHOMODE
 70
0
  9
$REGENMODE
 70
1
  9
$FILLMODE
 70
1
  9
$QTEXTMODE
 70
0
  9
$MIRRTEXT
 70
1
  9
$LTSCALE
 40
1.0
  9
$ATTMODE
 70
1
  9
$TEXTSIZE
 40
2.5
  9
$TRACEWID
 40
1.0
  9
$TEXTSTYLE
  7
Standard
  9
$CLAYER
  8
0
  9
$CELTYPE
  6
ByLayer
  9
$CECOLOR
 62
256
  9
$CELTSCALE
 40
1.0
  9
$DISPSILH
 70
0
  9
$DIMSCALE
 40
1.0
  9
$DIMASZ
 40
2.5
  9
$DIMEXO
 40
0.625
  9
$DIMDLI
 40
3.75
  9
$DIMRND
 40
0.0
  9
$DIMDLE
 40
0.0
  9
$DIMEXE
 40
1.25
  9
$DIMTP
 40
0.0
  9
$DIMTM
 40
0.0
  9
$DIMTXT
 40
2.5
  9
$DIMCEN
 40
2.5
  9
$DIMTSZ
 40
0.0
  9
$DIMTOL
 70
0
  9
$DIMLIM
 70
0
  9
$DIMTIH
 70
0
  9
$DIMTOH
 70
0
  9
$DIMSE1
 70
0
  9
$DIMSE2
 70
0
  9
$DIMTAD
 70
1
  9
$DIMZIN
 70
8
  9
$DIMBLK
  1

  9
$DIMASO
 70
1
  9
$DIMSHO
 70
1
  9
$DIMPOST
  1

  9
$DIMAPOST
  1

  9
$DIMALT
 70
0
  9
$DIMALTD
 70
3
  9
$DIMALTF
 40
0.03937007874
  9
$DIMLFAC
 40
1.0
  9
$DIMTOFL
 70
1
  9
$DIMTVP
 40
0.0
  9
$DIMTIX
 70
0
  9
$DIMSOXD
 70
0
  9
$DIMSAH
 70
0
  9
$DIMBLK1
  1

  9
$DIMBLK2
  1

  9
$DIMSTYLE
  2
ISO-25
  9
$DIMCLRD
 70
0
  9
$DIMCLRE
 70
0
  9
$DIMCLRT
 70
0
  9
$DIMTFAC
 40
1.0
  9
$DIMGAP
 40
0.625
  9
$DIMJUST
 70
0
  9
$DIMSD1
 70
0
  9
$DIMSD2
 70
0
  9
$DIMTOLJ
 70
0
  9
$DIMTZIN
 70
8
  9
$DIMALTZ
 70
0
  9
$DIMALTTZ
 70
0
  9
$DIMUPT
 70
0
  9
$DIMDEC
 70
2
  9
$DIMTDEC
 70
2
  9
$DIMALTU
 70
2
  9
$DIMALTTD
 70
3
  9
$DIMTXSTY
  7
Standard
  9
$DIMAUNIT
 70
0
  9
$DIMADEC
 70
0
  9
$DIMALTRND
 40
0.0
  9
$DIMAZIN
 70
0
  9
$DIMDSEP
 70
44
  9
$DIMATFIT
 70
3
  9
$DIMFRAC
 70
0
  9
$DIMLDRBLK
  1

  9
$DIMLUNIT
 70
2
  9
$DIMLWD
 70
-2
  9
$DIMLWE
 70
-2
  9
$DIMTMOVE
 70
0
  9
$DIMFXL
 40
1.0
  9
$DIMFXLON
 70
0
  9
$DIMJOGANG
 40
0.785398163397
  9
$DIMTFILL
 70
0
  9
$DIMTFILLCLR
 70
0
  9
$DIMARCSYM
 70
0
  9
$DIMLTYPE
  6

  9
$DIMLTEX1
  6

  9
$DIMLTEX2
  6

  9
$DIMTXTDIRECTION
 70
0
  9
$LUNITS
 70
2
  9
$LUPREC
 70
4
  9
$SKETCHINC
 40
1.0
  9
$FILLETRAD
 40
10.0
  9
$AUNITS
 70
0
  9
$AUPREC
 70
2
  9
$MENU
  1
.
  9
$ELEVATION
 40
0.0
  9
$PELEVATION
 40
0.0
  9
$THICKNESS
 40
0.0
  9
$LIMCHECK
 70
0
  9
$CHAMFERA
 40
0.0
  9
$CHAMFERB
 40
0.0
  9
$CHAMFERC
 40
0.0
  9
$CHAMFERD
 40
0.0
  9
$SKPOLY
 70
0
  9
$TDCREATE
 40
2461256.622141204
  9
$TDUCREATE
 40
2458532.153996898
  9
$TDUPDATE
 40
2461256.622141204
  9
$TDUUPDATE
 40
2458532.1544311
  9
$TDINDWG
 40
0.0
  9
$TDUSRTIMER
 40
0.0
  9
$USRTIMER
 70
1
  9
$ANGBASE
 50
0.0
  9
$ANGDIR
 70
0
  9
$PDMODE
 70
0
  9
$PDSIZE
 40
0.0
  9
$PLINEWID
 40
0.0
  9
$SPLFRAME
 70
0
  9
$SPLINETYPE
 70
6
  9
$SPLINESEGS
 70
8
  9
$HANDSEED
  5
CD
  9
$SURFTAB1
 70
6
  9
$SURFTAB2
 70
6
  9
$SURFTYPE
 70
6
  9
$SURFU
 70
6
  9
$SURFV
 70
6
  9
$UCSBASE
  2

  9
$UCSNAME
  2

  9
$UCSORG
 10
0.0
 20
0.0
 30
0.0
  9
$UCSXDIR
 10
1.0
 20
0.0
 30
0.0
  9
$UCSYDIR
 10
0.0
 20
1.0
 30
0.0
  9
$UCSORTHOREF
  2

  9
$UCSORTHOVIEW
 70
0
  9
$UCSORGTOP
 10
0.0
 20
0.0
 30
0.0
  9
$UCSORGBOTTOM
 10
0.0
 20
0.0
 30
0.0
  9
$UCSORGLEFT
 10
0.0
 20
0.0
 30
0.0
  9
$UCSORGRIGHT
 10
0.0
 20
0.0
 30
0.0
  9
$UCSORGFRONT
 10
0.0
 20
0.0
 30
0.0
  9
$UCSORGBACK
 10
0.0
 20
0.0
 30
0.0
  9
$PUCSBASE
  2

  9
$PUCSNAME
  2

  9
$PUCSORG
 10
0.0
 20
0.0
 30
0.0
  9
$PUCSXDIR
 10
1.0
 20
0.0
 30
0.0
  9
$PUCSYDIR
 10
0.0
 20
1.0
 30
0.0
  9
$PUCSORTHOREF
  2

  9
$PUCSORTHOVIEW
 70
0
  9
$PUCSORGTOP
 10
0.0
 20
0.0
 30
0.0
  9
$PUCSORGBOTTOM
 10
0.0
 20
0.0
 30
0.0
  9
$PUCSORGLEFT
 10
0.0
 20
0.0
 30
0.0
  9
$PUCSORGRIGHT
 10
0.0
 20
0.0
 30
0.0
  9
$PUCSORGFRONT
 10
0.0
 20
0.0
 30
0.0
  9
$PUCSORGBACK
 10
0.0
 20
0.0
 30
0.0
  9
$USERI1
 70
0
  9
$USERI2
 70
0
  9
$USERI3
 70
0
  9
$USERI4
 70
0
  9
$USERI5
 70
0
  9
$USERR1
 40
0.0
  9
$USERR2
 40
0.0
  9
$USERR3
 40
0.0
  9
$USERR4
 40
0.0
  9
$USERR5
 40
0.0
  9
$WORLDVIEW
 70
1
  9
$SHADEDGE
 70
3
  9
$SHADEDIF
 70
70
  9
$TILEMODE
 70
1
  9
$MAXACTVP
 70
64
  9
$PINSBASE
 10
0.0
 20
0.0
 30
0.0
  9
$PLIMCHECK
 70
0
  9
$PEXTMIN
 10
1e+20
 20
1e+20
 30
1e+20
  9
$PEXTMAX
 10
-1e+20
 20
-1e+20
 30
-1e+20
  9
$PLIMMIN
 10
0.0
 20
0.0
  9
$PLIMMAX
 10
420.0
 20
297.0
  9
$UNITMODE
 70
0
  9
$VISRETAIN
 70
1
  9
$PLINEGEN
 70
0
  9
$PSLTSCALE
 70
1
  9
$TREEDEPTH
 70
3020
  9
$CMLSTYLE
  2
Standard
  9
$CMLJUST
 70
0
  9
$CMLSCALE
 40
20.0
  9
$PROXYGRAPHICS
 70
1
  9
$MEASUREMENT
 70
1
  9
$CELWEIGHT
370
-1
  9
$ENDCAPS
280
0
  9
$JOINSTYLE
280
0
  9
$LWDISPLAY
290
0
  9
$INSUNITS
 70
4
  9
$HYPERLINKBASE
  1

  9
$STYLESHEET
  1

  9
$XEDIT
290
1
  9
$CEPSNTYPE
380
0
  9
$PSTYLEMODE
290
1
  9
$FINGERPRINTGUID
  2
{E52E7986-40D2-4600-B0D5-4FC00FA63D4C}
  9
$VERSIONGUID
  2
{4E56650E-0D38-48D2-8A10-3C1C9B1C2746}
  9
$EXTNAMES
290
1
  9
$PSVPSCALE
 40
0.0
  9
$OLESTARTUP
290
0
  9
$SORTENTS
280
127
  9
$INDEXCTL
280
0
  9
$HIDETEXT
280
1
  9
$XCLIPFRAME
280
1
  9
$HALOGAP
280
0
  9
$OBSCOLOR
 70
257
  9
$OBSLTYPE
280
0
  9
$INTERSECTIONDISPLAY
280
0
  9
$INTERSECTIONCOLOR
 70
257
  9
$DIMASSOC
280
2
  9
$PROJECTNAME
  1

  9
$CAMERADISPLAY
290
0
  9
$LENSLENGTH
 40
50.0
  9
$CAMERAHEIGHT
 40
0.0
  9
$STEPSPERSEC
 40
24.0
  9
$STEPSIZE
 40
100.0
  9
$3DDWFPREC
 40
2.0
  9
$PSOLWIDTH
 40
0.005
  9
$PSOLHEIGHT
 40
0.08
  9
$LOFTANG1
 40
1.570796326795
  9
$LOFTANG2
 40
1.570796326795
  9
$LOFTMAG1
 40
0.0
  9
$LOFTMAG2
 40
0.0
  9
$LOFTPARAM
 70
7
  9
$LOFTNORMALS
280
1
  9
$LATITUDE
 40
37.795
  9
$LONGITUDE
 40
-122.394
  9
$NORTHDIRECTION
 40
0.0
  9
$TIMEZONE
 70
-8000
  9
$LIGHTGLYPHDISPLAY
280
1
  9
$TILEMODELIGHTSYNCH
280
1
  9
$CMATERIAL
347
20
  9
$SOLIDHIST
280
0
  9
$SHOWHIST
280
1
  9
$DWFFRAME
280
2
  9
$DGNFRAME
280
2
  9
$REALWORLDSCALE
290
1
  9
$INTERFERECOLOR
 62
256
  9
$CSHADOW
280
0
  9
$SHADOWPLANELOCATION
 40
0.0
  0
ENDSEC
  0
SECTION
  2
CLASSES
  0
CLASS
  1
ACDBDICTIONARYWDFLT
  2
AcDbDictionaryWithDefault
  3
ObjectDBX Classes
 90
0
 91
0
280
0
281
0
  0
CLASS
  1
SUN
  2
AcDbSun
  3
SCENEOE
 90
1153
 91
0
280
0
281
0
  0
CLASS
  1
VISUALSTYLE
  2
AcDbVisualStyle
  3
ObjectDBX Classes
 90
4095
 91
0
280
0
281
0
  0
CLASS
  1
MATERIAL
  2
AcDbMaterial
  3
ObjectDBX Classes
 90
1153
 91
0
280
0
281
0
  0
CLASS
  1
SCALE
  2
AcDbScale
  3
ObjectDBX Classes
 90
1153
 91
0
280
0
281
0
  0
CLASS
  1
TABLESTYLE
  2
AcDbTableStyle
  3
ObjectDBX Classes
 90
4095
 91
0
280
0
281
0
  0
CLASS
  1
MLEADERSTYLE
  2
AcDbMLeaderStyle
  3
ACDB_MLEADERSTYLE_CLASS
 90
4095
 91
0
280
0
281
0
  0
CLASS
  1
DICTIONARYVAR
  2
AcDbDictionaryVar
  3
ObjectDBX Classes
 90
0
 91
0
280
0
281
0
  0
CLASS
  1
CELLSTYLEMAP
  2
AcDbCellStyleMap
  3
ObjectDBX Classes
 90
1152
 91
0
280
0
281
0
  0
CLASS
  1
MENTALRAYRENDERSETTINGS
  2
AcDbMentalRayRenderSettings
  3
SCENEOE
 90
1024
 91
0
280
0
281
0
  0
CLASS
  1
ACDBDETAILVIEWSTYLE
  2
AcDbDetailViewStyle
  3
ObjectDBX Classes
 90
1025
 91
0
280
0
281
0
  0
CLASS
  1
ACDBSECTIONVIEWSTYLE
  2
AcDbSectionViewStyle
  3
ObjectDBX Classes
 90
1025
 91
0
280
0
281
0
  0
CLASS
  1
RASTERVARIABLES
  2
AcDbRasterVariables
  3
ISM
 90
0
 91
0
280
0
281
0
  0
CLASS
  1
ACDBPLACEHOLDER
  2
AcDbPlaceHolder
  3
ObjectDBX Classes
 90
0
 91
0
280
0
281
0
  0
CLASS
  1
LAYOUT
  2
AcDbLayout
  3
ObjectDBX Classes
 90
0
 91
0
280
0
281
0
  0
ENDSEC
  0
SECTION
  2
TABLES
  0
TABLE
  2
VPORT
  5
8
330
0
100
AcDbSymbolTable
 70
1
  0
VPORT
  5
23
330
8
100
AcDbSymbolTableRecord
100
AcDbViewportTableRecord
  2
*Active
 70
0
 10
0.0
 20
0.0
 11
1.0
 21
1.0
 12
0.0
 22
0.0
 13
0.0
 23
0.0
 14
0.5
 24
0.5
 15
0.5
 25
0.5
 16
0.0
 26
0.0
 36
1.0
 17
0.0
 27
0.0
 37
0.0
 40
1000.0
 41
1.34
 42
50.0
 43
0.0
 44
0.0
 50
0.0
 51
0.0
 71
0
 72
1000
 73
1
 74
3
 75
0
 76
0
 77
0
 78
0
281
0
 65
0
146
0.0
  0
ENDTAB
  0
TABLE
  2
LTYPE
  5
2
330
0
100
AcDbSymbolTable
 70
3
  0
LTYPE
  5
24
330
2
100
AcDbSymbolTableRecord
100
AcDbLinetypeTableRecord
  2
ByBlock
 70
0
  3

 72
65
 73
0
 40
0.0
  0
LTYPE
  5
25
330
2
100
AcDbSymbolTableRecord
100
AcDbLinetypeTableRecord
  2
ByLayer
 70
0
  3

 72
65
 73
0
 40
0.0
  0
LTYPE
  5
26
330
2
100
AcDbSymbolTableRecord
100
AcDbLinetypeTableRecord
  2
Continuous
 70
0
  3

 72
65
 73
0
 40
0.0
  0
ENDTAB
  0
TABLE
  2
LAYER
  5
1
330
0
100
AcDbSymbolTable
 70
7
  0
LAYER
  5
27
330
1
100
AcDbSymbolTableRecord
100
AcDbLayerTableRecord
  2
0
 70
0
 62
7
  6
Continuous
370
-3
390
13
347
21
  0
LAYER
  5
28
330
1
100
AcDbSymbolTableRecord
100
AcDbLayerTableRecord
  2
Defpoints
 70
0
 62
7
  6
Continuous
290
0
370
-3
390
13
347
21
  0
LAYER
  5
2F
330
1
100
AcDbSymbolTableRecord
100
AcDbLayerTableRecord
  2
ENG_L
 70
0
 62
4
  6
Continuous
370
-3
390
13
347
21
  0
LAYER
  5
30
330
1
100
AcDbSymbolTableRecord
100
AcDbLayerTableRecord
  2
ENG_D
 70
0
 62
3
  6
Continuous
370
-3
390
13
347
21
  0
LAYER
  5
31
330
1
100
AcDbSymbolTableRecord
100
AcDbLayerTableRecord
  2
ENG_K
 70
0
 62
2
  6
Continuous
370
-3
390
13
347
21
  0
LAYER
  5
32
330
1
100
AcDbSymbolTableRecord
100
AcDbLayerTableRecord
  2
CUT_OUTLINE
 70
0
 62
5
  6
Continuous
370
-3
390
13
347
21
  0
LAYER
  5
33
330
1
100
AcDbSymbolTableRecord
100
AcDbLayerTableRecord
  2
CUT_SLOT
 70
0
 62
1
  6
Continuous
370
-3
390
13
347
21
  0
ENDTAB
  0
TABLE
  2
STYLE
  5
5
330
0
100
AcDbSymbolTable
 70
1
  0
STYLE
  5
29
330
5
100
AcDbSymbolTableRecord
100
AcDbTextStyleTableRecord
  2
Standard
 70
0
 40
0.0
 41
1.0
 50
0.0
 71
0
 42
2.5
  3
txt
  4

  0
ENDTAB
  0
TABLE
  2
VIEW
  5
7
330
0
100
AcDbSymbolTable
 70
0
  0
ENDTAB
  0
TABLE
  2
UCS
  5
6
330
0
100
AcDbSymbolTable
 70
0
  0
ENDTAB
  0
TABLE
  2
APPID
  5
3
330
0
100
AcDbSymbolTable
 70
3
  0
APPID
  5
2A
330
3
100
AcDbSymbolTableRecord
100
AcDbRegAppTableRecord
  2
ACAD
 70
0
  0
APPID
  5
CA
330
3
100
AcDbSymbolTableRecord
100
AcDbRegAppTableRecord
  2
HATCHBACKGROUNDCOLOR
 70
0
  0
APPID
  5
CB
330
3
100
AcDbSymbolTableRecord
100
AcDbRegAppTableRecord
  2
EZDXF
 70
0
  0
ENDTAB
  0
TABLE
  2
DIMSTYLE
  5
4
330
0
100
AcDbSymbolTable
 70
1
100
AcDbDimStyleTable
  0
DIMSTYLE
105
2B
330
4
100
AcDbSymbolTableRecord
100
AcDbDimStyleTableRecord
  2
Standard
 70
0
 40
1.0
 41
2.5
 42
0.625
 43
3.75
 44
1.25
 45
0.0
 46
0.0
 47
0.0
 48
0.0
 49
2.5
140
2.5
141
2.5
142
0.0
143
0.03937007874
144
1.0
145
0.0
146
1.0
147
0.625
148
0.0
 69
0
 70
0
 71
0
 72
0
 73
0
 74
0
 75
0
 76
0
 77
1
 78
8
 79
3
170
0
171
3
172
1
173
0
174
0
175
0
176
0
177
0
178
0
179
2
271
2
272
2
273
2
274
3
275
0
276
0
277
2
278
44
279
0
280
0
281
0
282
0
283
0
284
8
285
0
286
0
288
0
289
3
290
0
371
-2
372
-2
  0
ENDTAB
  0
TABLE
  2
BLOCK_RECORD
  5
9
330
0
100
AcDbSymbolTable
 70
2
  0
BLOCK_RECORD
  5
17
330
9
100
AcDbSymbolTableRecord
100
AcDbBlockTableRecord
  2
*Model_Space
340
1A
 70
0
280
1
281
0
  0
BLOCK_RECORD
  5
1B
330
9
100
AcDbSymbolTableRecord
100
AcDbBlockTableRecord
  2
*Paper_Space
340
1E
 70
0
280
1
281
0
  0
ENDTAB
  0
ENDSEC
  0
SECTION
  2
BLOCKS
  0
BLOCK
  5
18
330
17
100
AcDbEntity
  8
0
100
AcDbBlockBegin
  2
*Model_Space
 70
0
 10
0.0
 20
0.0
 30
0.0
  3
*Model_Space
  1

  0
ENDBLK
  5
19
330
17
100
AcDbEntity
  8
0
100
AcDbBlockEnd
  0
BLOCK
  5
1C
330
1B
100
AcDbEntity
  8
0
100
AcDbBlockBegin
  2
*Paper_Space
 70
0
 10
0.0
 20
0.0
 30
0.0
  3
*Paper_Space
  1

  0
ENDBLK
  5
1D
330
1B
100
AcDbEntity
  8
0
100
AcDbBlockEnd
  0
ENDSEC
  0
SECTION
  2
ENTITIES
  0
LWPOLYLINE
  5
34
330
17
100
AcDbEntity
  8
ENG_L
100
AcDbPolyline
 90
19
 70
1
 10
208.17226778021427
 20
31.45150185714696
 10
208.65745389944234
 20
21.74777947258577
 10
209.08535810056335
 20
20.891971070343796
 10
210.18820585957957
 20
20.230262414934085
 10
212.11247256286424
 20
19.95536717160762
 10
211.7207378721285
 20
18.780163099400447
 10
208.35379298749422
 20
19.039158859757045
 10
206.25080740582703
 20
20.09065165059054
 10
206.25080740582703
 20
21.78505204229242
 10
206.7327018156537
 20
22.26694645211913
 10
206.7327018156537
 20
25.922494530550733
 10
206.151003805736
 20
26.50419254046843
 10
206.7327018156537
 20
27.085890550386125
 10
206.7327018156537
 20
27.8340705563348
 10
204.37233417840827
 20
29.722364666131096
 10
203.80189562779967
 20
30.86324176734845
 10
205.1630228427047
 20
32.768819868215445
 10
206.3280225647183
 20
32.768819868215445
 10
208.17226778021427
 20
31.45150185714696
  0
LWPOLYLINE
  5
35
330
17
100
AcDbEntity
  8
ENG_L
100
AcDbPolyline
 90
11
 70
1
 10
206.64899553929837
 20
35.171123028863825
 10
208.2090860277374
 20
36.2111833544897
 10
208.68088980081436
 20
35.73937958141282
 10
208.37591450407092
 20
34.21450309769569
 10
207.31439982557148
 20
34.21450309769569
 10
206.8433127539776
 20
33.74341602610187
 10
202.50626306553733
 20
33.26152161627516
 10
201.97883533029565
 20
32.73409388103343
 10
200.82976718190923
 20
33.1171165971621
 10
201.7693950091194
 20
34.68316297584584
 10
206.64899553929837
 20
35.171123028863825
  0
LWPOLYLINE
  5
36
330
17
100
AcDbEntity
  8
ENG_L
100
AcDbPolyline
 90
4
 70
1
 10
203.45924454695785
 20
21.685248442201434
 10
202.63659933212676
 20
20.862603227370546
 10
202.63659933212676
 20
22.507893657032653
 10
203.45924454695785
 20
21.685248442201434
  0
LWPOLYLINE
  5
37
330
17
100
AcDbEntity
  8
ENG_L
100
AcDbPolyline
 90
5
 70
1
 10
199.32445459394748
 20
21.221852496827843
 10
198.97152030784957
 20
22.28065535512147
 10
201.6313531254756
 20
23.758340253802636
 10
201.9455442297794
 20
20.930620315068648
 10
199.32445459394748
 20
21.221852496827843
  0
LWPOLYLINE
  5
38
330
17
100
AcDbEntity
  8
ENG_L
100
AcDbPolyline
 90
5
 70
1
 10
199.7810786883956
 20
25.163807100581526
 10
201.01504651064226
 20
25.575129707997245
 10
201.63696469724434
 20
24.95321152139496
 10
200.40299687499777
 20
24.54188891397957
 10
199.7810786883956
 20
25.163807100581526
  0
LWPOLYLINE
  5
39
330
17
100
AcDbEntity
  8
ENG_L
100
AcDbPolyline
 90
6
 70
1
 10
172.40702351758878
 20
64.57385091677759
 10
170.1348555196595
 20
63.60006463195078
 10
168.58909662447746
 20
63.90921641098713
 10
168.94791592965518
 20
64.98567432652035
 10
170.10092499051697
 20
65.56217885695136
 10
172.40702351758878
 20
64.57385091677759
  0
LWPOLYLINE
  5
3A
330
17
100
AcDbEntity
  8
ENG_L
100
AcDbPolyline
 90
5
 70
1
 10
171.64775908282164
 20
65.77858694134441
 10
170.5906210786513
 20
65.77858694134441
 10
170.5906210786513
 20
66.60123215617541
 10
171.17781327807134
 20
67.18842435559536
 10
171.64775908282164
 20
65.77858694134441
  0
LWPOLYLINE
  5
3B
330
17
100
AcDbEntity
  8
ENG_L
100
AcDbPolyline
 90
8
 70
1
 10
168.29899240546138
 20
72.28416147400473
 10
170.10872666882463
 20
69.95736027825194
 10
170.10872666882463
 20
68.52880979548215
 10
170.93137188365571
 20
67.70616458065126
 10
168.30162263197448
 20
67.70616458065126
 10
166.72640186817978
 20
69.80645893237747
 10
167.0017021505828
 20
72.28416147400473
 10
168.29899240546138
 20
72.28416147400473
  0
LWPOLYLINE
  5
3C
330
17
100
AcDbEntity
  8
ENG_L
100
AcDbPolyline
 90
4
 70
1
 10
167.9402018246045
 20
21.54410483737934
 10
168.76284703943554
 20
20.72145962254801
 10
167.9402018246045
 20
19.898814407717012
 10
167.9402018246045
 20
21.54410483737934
  0
LWPOLYLINE
  5
3D
330
17
100
AcDbEntity
  8
ENG_L
100
AcDbPolyline
 90
4
 70
1
 10
168.28095262960886
 20
72.76605588383146
 10
167.45830741477778
 20
71.94341066900056
 10
167.45830741477778
 20
73.58870109866267
 10
168.28095262960886
 20
72.76605588383146
  0
LWPOLYLINE
  5
3E
330
17
100
AcDbEntity
  8
ENG_L
100
AcDbPolyline
 90
42
 70
1
 10
158.3023136280705
 20
23.332778527957345
 10
158.21787033369236
 20
23.07944864482303
 10
154.94698433532935
 20
23.971508462558354
 10
155.55209077393263
 20
24.576614901161587
 10
154.68810555437025
 20
25.44060012072402
 10
154.68810555437025
 20
27.850072169857576
 10
154.1539833047305
 20
28.384194419497245
 10
154.68810555437025
 20
29.452438918776693
 10
154.68810555437025
 20
31.422940238826413
 10
155.11777212438395
 20
31.852606808840168
 10
154.68810555437025
 20
32.71193994886734
 10
154.68810555437025
 20
35.56038272708473
 10
154.19159524570364
 20
36.05689303575132
 10
154.47913315149765
 20
38.06965837630916
 10
156.68863613730457
 20
38.06965837630916
 10
158.03066544055352
 20
37.17497217414323
 10
158.54326083298383
 20
37.68756756657354
 10
159.12495884290163
 20
37.10586955665573
 10
161.53443089203512
 20
37.10586955665573
 10
162.03010530343892
 20
36.61019514525188
 10
163.9230315801944
 20
36.339777105715456
 10
163.53586985073892
 20
35.178291917349
 10
162.4506074916236
 20
35.178291917349
 10
159.98894406246396
 20
34.059353995003704
 10
159.98894406246396
 20
33.35051787813315
 10
160.57064207238167
 20
32.768819868215445
 10
159.98894406246396
 20
32.187121858297864
 10
159.98894406246396
 20
31.403452373706454
 10
161.51182129268494
 20
29.372949400078507
 10
160.95273288211735
 20
28.813860989510886
 10
160.95273288211735
 20
26.55638392049442
 10
162.10057350544602
 20
24.031134549171384
 10
162.9425742649438
 20
23.61013416942248
 10
168.49571963360404
 20
23.345698675676818
 10
167.33615009122013
 20
22.186129133292766
 10
166.50134893940117
 20
22.01916890292899
 10
166.83526940012874
 20
21.685248442201434
 10
166.3420601408701
 20
21.192039182942878
 10
164.02295129504725
 20
21.449717943589853
 10
162.33477230826273
 20
22.17322322364035
 10
158.3023136280705
 20
22.677280558664357
 10
158.3023136280705
 20
23.332778527957345
  0
LWPOLYLINE
  5
3F
330
17
100
AcDbEntity
  8
ENG_L
100
AcDbPolyline
 90
5
 70
1
 10
158.38682427363287
 20
23.586310464644434
 10
159.25927210344713
 20
23.76080003060732
 10
158.96007762990166
 20
24.059994504152748
 10
158.4927991189149
 20
23.904235000490548
 10
158.38682427363287
 20
23.586310464644434
  0
LWPOLYLINE
  5
40
330
17
100
AcDbEntity
  8
ENG_L
100
AcDbPolyline
 90
4
 70
1
 10
166.9764130049511
 20
72.42530507882717
 10
166.9764130049511
 20
74.07059550848949
 10
167.79905821978213
 20
73.24795029365816
 10
166.9764130049511
 20
72.42530507882717
  0
LWPOLYLINE
  5
41
330
17
100
AcDbEntity
  8
ENG_L
100
AcDbPolyline
 90
4
 70
1
 10
166.9764130049511
 20
22.02599924720605
 10
167.79905821978213
 20
21.203354032374722
 10
166.9764130049511
 20
20.380708817543724
 10
166.9764130049511
 20
22.02599924720605
  0
LWPOLYLINE
  5
42
330
17
100
AcDbEntity
  8
ENG_L
100
AcDbPolyline
 90
5
 70
1
 10
163.27162909869267
 20
74.22096688084446
 10
166.7694981719627
 20
73.90297878327445
 10
164.86211364064297
 20
72.75854806448268
 10
162.11450061816208
 20
73.06383840031371
 10
163.27162909869267
 20
74.22096688084446
  0
LWPOLYLINE
  5
43
330
17
100
AcDbEntity
  8
ENG_L
100
AcDbPolyline
 90
10
 70
1
 10
160.2298912673773
 20
64.5738509167777
 10
160.2298912673773
 20
65.537639736431
 10
161.99919255515155
 20
65.537639736431
 10
164.29862710346018
 20
63.749190643302086
 10
164.87554045105966
 20
61.44153725290413
 10
163.53641362400393
 20
61.44153725290413
 10
160.57091184441506
 20
63.2208383206575
 10
162.55662882456767
 20
63.71726756569562
 10
161.35741213305278
 20
64.5738509167777
 10
160.2298912673773
 20
64.5738509167777
  0
LWPOLYLINE
  5
44
330
17
100
AcDbEntity
  8
ENG_L
100
AcDbPolyline
 90
5
 70
1
 10
159.78384267277966
 20
63.715359886717614
 10
161.0178104950262
 20
64.12668249413301
 10
161.63972868162838
 20
63.50476430753105
 10
160.40576085938173
 20
63.09344170011533
 10
159.78384267277966
 20
63.715359886717614
  0
LWPOLYLINE
  5
45
330
17
100
AcDbEntity
  8
ENG_L
100
AcDbPolyline
 90
4
 70
1
 10
159.7479968575506
 20
64.91460172178209
 10
160.57064207238167
 20
64.09195650695088
 10
159.7479968575506
 20
63.26931129211999
 10
159.7479968575506
 20
64.91460172178209
  0
LWPOLYLINE
  5
46
330
17
100
AcDbEntity
  8
ENG_L
100
AcDbPolyline
 90
4
 70
1
 10
154.9290527592836
 20
71.46151625917364
 10
154.9290527592836
 20
73.10680668883573
 10
155.75169797411468
 20
72.28416147400485
 10
154.9290527592836
 20
71.46151625917364
  0
LWPOLYLINE
  5
47
330
17
100
AcDbEntity
  8
ENG_L
100
AcDbPolyline
 90
5
 70
1
 10
155.2633491487139
 20
69.633742219958
 10
154.20621114454354
 20
69.633742219958
 10
154.20621114454354
 20
70.456387434789
 10
154.79340334396358
 20
71.04357963420892
 10
155.2633491487139
 20
69.633742219958
  0
LWPOLYLINE
  5
48
330
17
100
AcDbEntity
  8
ENG_L
100
AcDbPolyline
 90
5
 70
1
 10
153.72431673471687
 20
68.66995340030458
 10
153.72431673471687
 20
69.49259861513556
 10
154.3115089341368
 20
70.07979081455574
 10
154.7814547388872
 20
68.66995340030458
 10
153.72431673471687
 20
68.66995340030458
  0
LWPOLYLINE
  5
49
330
17
100
AcDbEntity
  8
ENG_L
100
AcDbPolyline
 90
4
 70
1
 10
153.48336952980353
 20
67.60636098056028
 10
153.48336952980353
 20
69.25165141022238
 10
154.3060147446346
 20
68.42900619539117
 10
153.48336952980353
 20
67.60636098056028
  0
LWPOLYLINE
  5
4A
330
17
100
AcDbEntity
  8
ENG_L
100
AcDbPolyline
 90
5
 70
1
 10
153.34772011448348
 20
68.15221317524878
 10
153.8176659192338
 20
66.74237576099785
 10
152.76052791506345
 20
66.74237576099785
 10
152.76052791506345
 20
67.56502097582884
 10
153.34772011448348
 20
68.15221317524878
  0
LWPOLYLINE
  5
4B
330
17
100
AcDbEntity
  8
ENG_L
100
AcDbPolyline
 90
5
 70
1
 10
152.27863350523677
 20
65.77858694134441
 10
152.27863350523677
 20
66.60123215617541
 10
152.8658257046568
 20
67.18842435559536
 10
153.3357715094071
 20
65.77858694134441
 10
152.27863350523677
 20
65.77858694134441
  0
LWPOLYLINE
  5
4C
330
17
100
AcDbEntity
  8
ENG_L
100
AcDbPolyline
 90
5
 70
1
 10
148.9422398929558
 20
32.52787266330215
 10
147.94158381679648
 20
32.52787266330215
 10
147.94158381679648
 20
34.31430669778657
 10
148.59385362912536
 20
34.96657651011559
 10
148.9422398929558
 20
32.52787266330215
  0
LWPOLYLINE
  5
4D
330
17
100
AcDbEntity
  8
ENG_L
100
AcDbPolyline
 90
4
 70
1
 10
148.18253102170982
 20
34.35564670251801
 10
148.18253102170982
 20
36.00093713218
 10
149.0051762365409
 20
35.178291917349
 10
148.18253102170982
 20
34.35564670251801
  0
LWPOLYLINE
  5
4E
330
17
100
AcDbEntity
  8
ENG_L
100
AcDbPolyline
 90
74
 70
1
 10
134.20282144172916
 20
77.34405277718514
 10
133.48475152199552
 20
77.34405277718514
 10
133.48475152199552
 20
81.74838475105074
 10
133.03845895837463
 20
81.8971489389243
 10
129.9457826533968
 20
79.83536473560571
 10
129.6424602545204
 20
81.35197672998773
 10
128.170323465823
 20
83.80553804448343
 10
128.7039191147545
 20
86.47351628914102
 10
130.80540590903715
 20
86.77372868832434
 10
131.06447213462917
 20
84.44213265799615
 10
132.15785817387112
 20
83.34874661875413
 10
133.0028571121688
 20
83.17974683109463
 10
133.0028571121688
 20
85.2384306199776
 10
132.46873486252912
 20
86.30667511925705
 10
133.0028571121688
 20
86.84079736889672
 10
133.0028571121688
 20
93.38771190628859
 10
132.52096270234213
 20
93.8696063161153
 10
132.52096270234213
 20
95.4719730650343
 10
132.9506292723558
 20
96.3313062050617
 10
132.4211591022511
 20
96.86077637516644
 10
133.0028571121688
 20
97.44247438508413
 10
133.0028571121688
 20
98.20665600455558
 10
132.52096270234213
 20
98.68855041438218
 10
132.52096270234213
 20
100.06037232446529
 10
132.10414590542433
 20
100.19931125677117
 10
131.55717388268872
 20
99.65233923403561
 10
131.55717388268872
 20
97.72476159472888
 10
130.67257831727247
 20
96.84016602931244
 10
128.06512313254615
 20
97.36165706625776
 10
127.60221500398409
 20
97.82456519481985
 10
125.69722580587705
 20
97.82456519481985
 10
123.89906452200002
 20
99.10896611187492
 10
123.33652895596082
 20
100.2340372439533
 10
123.76454593287002
 20
101.09007119777169
 10
122.82935624558866
 20
101.55766604141247
 10
123.19130399614679
 20
102.64350929308674
 10
125.87424456485941
 20
102.64350929308674
 10
126.78000286783492
 20
101.73775099011128
 10
125.87480446520371
 20
99.4747549835332
 10
127.62464609524085
 20
99.28032813575128
 10
130.98614730066774
 20
102.16161488326003
 10
132.42115910225104
 20
102.16161488326003
 10
133.01646623813286
 20
102.75692201914188
 10
136.05553305898528
 20
99.21134406148069
 10
137.41285974423664
 20
98.30645960464646
 10
138.18322201780583
 20
98.30645960464646
 10
139.94054083956172
 20
100.64955136698772
 10
140.2265248523825
 20
96.93175920031705
 10
141.30857458231614
 20
94.98406968643658
 10
141.57815155811966
 20
95.07392867837106
 10
141.1428342394097
 20
95.94456331579104
 10
142.0937732859672
 20
96.89550236234868
 10
143.1226397185295
 20
96.55254688482773
 10
143.1226397185295
 20
83.26792929992789
 10
141.29486567931377
 20
81.44015526071213
 10
140.33107685966036
 20
81.44015526071213
 10
139.91519029122378
 20
81.02426869227564
 10
140.713167669396
 20
80.62528000318947
 10
140.713167669396
 20
79.93203633901757
 10
138.29164023989298
 20
75.57328696591215
 10
137.77838346445955
 20
73.00700308874485
 10
136.8833015364141
 20
73.00700308874485
 10
136.65350583154913
 20
75.0751644325297
 10
134.49494253350395
 20
74.21173911331158
 10
132.90305351207778
 20
74.21173911331158
 10
131.55717388268872
 20
75.55761874270073
 10
131.55717388268872
 20
78.47583585812457
 10
130.52428244554798
 20
80.02517301383571
 10
131.0379291648652
 20
80.5388197331528
 10
132.52096270234213
 20
79.64899961066673
 10
132.52096270234213
 20
77.18032073116288
 10
133.51549753898112
 20
75.7879719598683
 10
133.98563221308697
 20
76.25810663397425
 10
134.20282144172916
 20
77.34405277718514
  0
LWPOLYLINE
  5
4F
330
17
100
AcDbEntity
  8
ENG_L
100
AcDbPolyline
 90
8
 70
1
 10
134.44854034164894
 20
77.88282710635985
 10
135.02958245030842
 20
76.72074288904085
 10
135.894223571129
 20
77.23952756153318
 10
135.894223571129
 20
77.9179808297944
 10
134.99179051333076
 20
78.36919735869353
 10
134.46284823522993
 20
79.42708191489523
 10
134.44854034164894
 20
79.4127740213143
 10
134.44854034164894
 20
77.88282710635985
  0
LWPOLYLINE
  5
50
330
17
100
AcDbEntity
  8
ENG_L
100
AcDbPolyline
 90
5
 70
1
 10
137.75934791834163
 20
77.06575526427496
 10
137.7567235975269
 20
77.0683795850896
 10
137.37694243708165
 20
76.94178586494115
 10
137.4539483974966
 20
76.5567560628665
 10
137.75934791834163
 20
77.06575526427496
  0
LWPOLYLINE
  5
51
330
17
100
AcDbEntity
  8
ENG_L
100
AcDbPolyline
 90
8
 70
1
 10
142.35297416270384
 20
109.10194977991894
 10
142.6520601581347
 20
106.41017582104129
 10
142.15885089887612
 20
105.91696656178273
 10
142.15885089887612
 20
104.812034137307
 10
141.19506207922268
 20
104.812034137307
 10
141.19506207922268
 20
105.94381721824631
 10
140.1423286912032
 20
107.52291730027552
 10
142.35297416270384
 20
109.10194977991894
  0
LWPOLYLINE
  5
52
330
17
100
AcDbEntity
  8
ENG_L
100
AcDbPolyline
 90
6
 70
1
 10
141.34083685007815
 20
104.65475737829155
 10
141.7018572206638
 20
103.5716962665344
 10
140.60117149520536
 20
101.92066767834685
 10
139.2674844399159
 20
101.92066767834685
 10
139.2674844399159
 20
103.76617777393615
 10
141.34083685007815
 20
104.65475737829155
  0
LWPOLYLINE
  5
53
330
17
100
AcDbEntity
  8
ENG_L
100
AcDbPolyline
 90
4
 70
1
 10
140.47222046448266
 20
80.1356156360541
 10
140.47222046448266
 20
81.78090606571642
 10
141.29486567931372
 20
80.95826085088542
 10
140.47222046448266
 20
80.1356156360541
  0
LWPOLYLINE
  5
54
330
17
100
AcDbEntity
  8
ENG_L
100
AcDbPolyline
 90
22
 70
1
 10
138.20389202017145
 20
114.20897512892758
 10
140.42880271850638
 20
114.20897512892758
 10
140.75020330586852
 20
112.60197219211688
 10
139.2674844399159
 20
112.10773257013274
 10
139.2674844399159
 20
109.77212184039631
 10
138.88539363018023
 20
109.39003103066058
 10
139.2674844399159
 20
109.00794022092487
 10
139.2674844399159
 20
107.36264979126275
 10
138.2662464418653
 20
106.36141179321213
 10
137.50633498989015
 20
107.5012789711749
 10
137.3146176549774
 20
105.77582295696043
 10
136.44340026638096
 20
105.77582295696043
 10
135.93814885652634
 20
107.29157718652438
 10
134.86532950014703
 20
107.82798686471395
 10
135.894223571129
 20
110.40022204216903
 10
135.894223571129
 20
111.69969947970304
 10
135.29353927994663
 20
112.30038377088547
 10
133.96664593182223
 20
112.56576244051031
 10
133.96664593182223
 20
113.95020533376876
 10
137.43192060557067
 20
114.21676492405707
 10
137.8218012104358
 20
113.82688431919196
 10
138.20389202017145
 20
114.20897512892758
  0
LWPOLYLINE
  5
55
330
17
100
AcDbEntity
  8
ENG_L
100
AcDbPolyline
 90
5
 70
1
 10
138.30369562026252
 20
104.18899612265787
 10
138.96970192343355
 20
104.85500242582913
 10
139.29573911759826
 20
101.92066767834685
 10
138.30369562026252
 20
101.92066767834685
 10
138.30369562026252
 20
104.18899612265787
  0
LWPOLYLINE
  5
56
330
17
100
AcDbEntity
  8
ENG_L
100
AcDbPolyline
 90
4
 70
1
 10
137.58085400552244
 20
107.32130978653132
 10
138.40349922035352
 20
106.49866457170043
 10
137.58085400552244
 20
105.6760193568692
 10
137.58085400552244
 20
107.32130978653132
  0
LWPOLYLINE
  5
57
330
17
100
AcDbEntity
  8
ENG_L
100
AcDbPolyline
 90
5
 70
1
 10
137.43325598512604
 20
72.04321426909155
 10
136.37611798095568
 20
72.04321426909155
 10
136.37611798095568
 20
72.86585948392243
 10
136.96331018037566
 20
73.4530516833426
 10
137.43325598512604
 20
72.04321426909155
  0
LWPOLYLINE
  5
58
330
17
100
AcDbEntity
  8
ENG_L
100
AcDbPolyline
 90
5
 70
1
 10
135.894223571129
 20
71.07942544943813
 10
135.894223571129
 20
71.90207066426912
 10
136.48141577054903
 20
72.48926286368906
 10
136.95136157529933
 20
71.07942544943813
 10
135.894223571129
 20
71.07942544943813
  0
LWPOLYLINE
  5
59
330
17
100
AcDbEntity
  8
ENG_L
100
AcDbPolyline
 90
4
 70
1
 10
135.65327636621566
 20
70.0158330296935
 10
135.65327636621566
 20
71.66112345935561
 10
136.47592158104675
 20
70.83847824452472
 10
135.65327636621566
 20
70.0158330296935
  0
LWPOLYLINE
  5
5A
330
17
100
AcDbEntity
  8
ENG_L
100
AcDbPolyline
 90
7
 70
1
 10
134.5158226270742
 20
68.18805899047786
 10
133.91788972685032
 20
69.98185769114961
 10
135.54592684218235
 20
70.95867996034877
 10
135.92894955831113
 20
69.80961181196244
 10
135.41232916130232
 20
69.2929914149536
 10
135.41232916130232
 20
68.18805899047786
 10
134.5158226270742
 20
68.18805899047786
  0
LWPOLYLINE
  5
5B
330
17
100
AcDbEntity
  8
ENG_L
100
AcDbPolyline
 90
4
 70
1
 10
134.68948754656228
 20
106.63980817652285
 10
134.68948754656228
 20
108.28509860618496
 10
135.51213276139333
 20
107.46245339135373
 10
134.68948754656228
 20
106.63980817652285
  0
LWPOLYLINE
  5
5C
330
17
100
AcDbEntity
  8
ENG_L
100
AcDbPolyline
 90
4
 70
1
 10
134.54834394173994
 20
60.71869563816401
 10
133.72569872690886
 20
59.89605042333312
 10
133.72569872690886
 20
61.54134085299523
 10
134.54834394173994
 20
60.71869563816401
  0
LWPOLYLINE
  5
5D
330
17
100
AcDbEntity
  8
ENG_L
100
AcDbPolyline
 90
4
 70
1
 10
133.72569872690886
 20
101.82086407825564
 10
133.72569872690886
 20
103.46615450791774
 10
134.54834394173994
 20
102.64350929308685
 10
133.72569872690886
 20
101.82086407825564
  0
LWPOLYLINE
  5
5E
330
17
100
AcDbEntity
  8
ENG_L
100
AcDbPolyline
 90
4
 70
1
 10
132.62076630243314
 20
65.0557453266043
 10
131.79812108760208
 20
64.2331001117733
 10
131.79812108760208
 20
65.87839054143562
 10
132.62076630243314
 20
65.0557453266043
  0
LWPOLYLINE
  5
5F
330
17
100
AcDbEntity
  8
ENG_L
100
AcDbPolyline
 90
6
 70
1
 10
131.55717388268872
 20
66.88351936582015
 10
130.87017808317768
 20
67.57051516533119
 10
132.23676466122853
 20
68.02604402468137
 10
132.55782995884803
 20
65.77858694134441
 10
131.55717388268872
 20
65.77858694134441
 10
131.55717388268872
 20
66.88351936582015
  0
LWPOLYLINE
  5
60
330
17
100
AcDbEntity
  8
ENG_L
100
AcDbPolyline
 90
9
 70
1
 10
131.05629319159732
 20
111.68071319843831
 10
130.78239960143515
 20
110.31124524762748
 10
129.14770183355523
 20
110.63818480120358
 10
129.14770183355523
 20
111.89930667988502
 10
129.52979264329093
 20
112.28139748962074
 10
129.04789823346422
 20
112.76329189944745
 10
130.0230019025495
 20
113.73839556853282
 10
132.8048781957775
 20
113.42929820261848
 10
131.05629319159732
 20
111.68071319843831
  0
LWPOLYLINE
  5
61
330
17
100
AcDbEntity
  8
ENG_L
100
AcDbPolyline
 90
4
 70
1
 10
130.83433226794867
 20
67.12446657073335
 10
130.83433226794867
 20
68.76975700039544
 10
131.65697748277975
 20
67.94711178556456
 10
130.83433226794867
 20
67.12446657073335
  0
LWPOLYLINE
  5
62
330
17
100
AcDbEntity
  8
ENG_L
100
AcDbPolyline
 90
5
 70
1
 10
130.1765682661175
 20
69.42752100222683
 10
131.17508307295307
 20
68.42900619539117
 10
130.06365325995438
 20
67.31757638239256
 10
129.0275001177311
 20
69.04449828609793
 10
130.1765682661175
 20
69.42752100222683
  0
LWPOLYLINE
  5
63
330
17
100
AcDbEntity
  8
ENG_L
100
AcDbPolyline
 90
4
 70
1
 10
130.352437858122
 20
80.33522283623617
 10
131.17508307295307
 20
79.51257762140528
 10
130.352437858122
 20
78.68993240657407
 10
130.352437858122
 20
80.33522283623617
  0
LWPOLYLINE
  5
64
330
17
100
AcDbEntity
  8
ENG_L
100
AcDbPolyline
 90
4
 70
1
 10
130.69318866312634
 20
109.39003103066058
 10
129.87054344829528
 20
108.5673858158297
 10
129.87054344829528
 20
110.2126762454918
 10
130.69318866312634
 20
109.39003103066058
  0
LWPOLYLINE
  5
65
330
17
100
AcDbEntity
  8
ENG_L
100
AcDbPolyline
 90
5
 70
1
 10
129.62959624338194
 20
76.86215836735843
 10
129.62959624338194
 20
77.68480358218943
 10
130.21678844280189
 20
78.27199578160959
 10
130.68673424755227
 20
76.86215836735843
 10
129.62959624338194
 20
76.86215836735843
  0
LWPOLYLINE
  5
66
330
17
100
AcDbEntity
  8
ENG_L
100
AcDbPolyline
 90
4
 70
1
 10
129.38864903846857
 20
76.96196196744931
 10
130.21129425329966
 20
76.13931675261843
 10
129.38864903846857
 20
75.3166715377872
 10
129.38864903846857
 20
76.96196196744931
  0
LWPOLYLINE
  5
67
330
17
100
AcDbEntity
  8
ENG_L
100
AcDbPolyline
 90
5
 70
1
 10
129.72294542789885
 20
73.48889749857157
 10
128.66580742372852
 20
73.48889749857157
 10
128.66580742372852
 20
74.31154271340257
 10
129.25299962314855
 20
74.8987349128225
 10
129.72294542789885
 20
73.48889749857157
  0
LWPOLYLINE
  5
68
330
17
100
AcDbEntity
  8
ENG_L
100
AcDbPolyline
 90
5
 70
1
 10
128.70315773172536
 20
72.34661476609894
 10
129.18242782073736
 20
71.867344677087
 10
128.8271271310591
 20
70.8014426080521
 10
126.80268488400023
 20
71.20633105746398
 10
128.70315773172536
 20
72.34661476609894
  0
LWPOLYLINE
  5
69
330
17
100
AcDbEntity
  8
ENG_L
100
AcDbPolyline
 90
4
 70
1
 10
126.35613897468606
 20
112.76329189944745
 10
125.53349375985498
 20
111.94064668461657
 10
125.53349375985498
 20
113.58593711427866
 10
126.35613897468606
 20
112.76329189944745
  0
LWPOLYLINE
  5
6A
330
17
100
AcDbEntity
  8
ENG_L
100
AcDbPolyline
 90
5
 70
1
 10
124.74557453220605
 20
113.21046032209215
 10
124.12365634560393
 20
113.83237850869409
 10
125.35762416785057
 20
114.24370111610982
 10
125.97954235445266
 20
113.62178292950753
 10
124.74557453220605
 20
113.21046032209215
  0
LWPOLYLINE
  5
6B
330
17
100
AcDbEntity
  8
ENG_L
100
AcDbPolyline
 90
5
 70
1
 10
123.81213733827946
 20
112.69821428653859
 10
124.22345994569496
 20
113.93218210878531
 10
126.11519176977265
 20
112.04045028470743
 10
124.46990134011052
 20
112.04045028470743
 10
123.81213733827946
 20
112.69821428653859
  0
LWPOLYLINE
  5
6C
330
17
100
AcDbEntity
  8
ENG_L
100
AcDbPolyline
 90
4
 70
1
 10
122.1602328910681
 20
119.16906283201666
 10
122.1602328910681
 20
120.81435326167889
 10
122.98287810589918
 20
119.991708046848
 10
122.1602328910681
 20
119.16906283201666
  0
LWPOLYLINE
  5
6D
330
17
100
AcDbEntity
  8
ENG_L
100
AcDbPolyline
 90
4
 70
1
 10
122.50098369607247
 20
120.4736024566746
 10
121.67833848124141
 20
119.65095724184371
 10
121.67833848124141
 20
121.29624767150592
 10
122.50098369607247
 20
120.4736024566746
  0
LWPOLYLINE
  5
6E
330
17
100
AcDbEntity
  8
ENG_L
100
AcDbPolyline
 90
4
 70
1
 10
121.1964440714147
 20
119.16906283201666
 10
121.1964440714147
 20
120.81435326167889
 10
122.01908928624577
 20
119.991708046848
 10
121.1964440714147
 20
119.16906283201666
  0
LWPOLYLINE
  5
6F
330
17
100
AcDbEntity
  8
ENG_L
100
AcDbPolyline
 90
24
 70
1
 10
75.6621532696499
 20
22.15253242686288
 10
74.76370452322226
 20
22.45201534233876
 10
74.15951127349855
 20
23.660401841786303
 10
75.07572433287396
 20
24.576614901161587
 10
74.5278220816571
 20
25.124517152378512
 10
75.49161090131051
 20
25.606411562205224
 10
75.07572433287396
 20
26.02229813064172
 10
75.65742234279169
 20
26.603996140559417
 10
75.65742234279169
 20
27.567784960212837
 10
77.00330197218076
 20
28.913664589601872
 10
76.55210854495772
 20
29.36485801682498
 10
77.58499998209848
 20
30.91419517253613
 10
77.58499998209848
 20
32.34037943599055
 10
79.43970806313793
 20
36.31475389536077
 10
79.99447203123198
 20
35.7599899272667
 10
80.3765628409676
 20
36.14208073700232
 10
81.9715059401118
 20
36.14208073700232
 10
85.34476680889867
 20
34.69639750752229
 10
86.7857322808982
 20
34.69639750752229
 10
90.15713739129887
 20
33.3997032342912
 10
88.39877570793942
 20
26.11506197465918
 10
86.83498719897398
 20
25.072536302015557
 10
79.57893663700882
 20
23.621326189622426
 10
75.6621532696499
 20
22.15253242686288
  0
LWPOLYLINE
  5
70
330
17
100
AcDbEntity
  8
ENG_L
100
AcDbPolyline
 90
4
 70
1
 10
73.97079190839824
 20
23.95357688651245
 10
74.79343712322931
 20
23.130931671681566
 10
73.97079190839824
 20
22.308286456850233
 10
73.97079190839824
 20
23.95357688651245
  0
LWPOLYLINE
  5
71
330
17
100
AcDbEntity
  8
ENG_D
100
AcDbPolyline
 90
7
 70
1
 10
219.74479886323175
 20
18.444320742280638
 10
219.74284480765468
 20
18.16292317000312
 10
215.2002008106899
 20
17.81348901639035
 10
214.89889016769172
 20
19.92266351737737
 10
216.12964280727434
 20
20.33291439723839
 10
216.12964280727434
 20
18.77297129282207
 10
219.74479886323175
 20
18.444320742280638
  0
LWPOLYLINE
  5
72
330
17
100
AcDbEntity
  8
ENG_D
100
AcDbPolyline
 90
59
 70
1
 10
210.1059626844406
 20
28.331966579684288
 10
209.64467862046777
 20
27.870682515711344
 10
210.12657303029448
 20
25.46121046657779
 10
209.6240682746139
 20
24.958705710897313
 10
209.6240682746139
 20
22.233881364188246
 10
210.1825632643052
 20
21.303056381369533
 10
211.73610306927156
 20
22.338749584680407
 10
212.06519376283754
 20
20.03511472971875
 10
210.0553514997397
 20
19.747994406419057
 10
208.71709521918433
 20
20.550948174752225
 10
208.1783850451338
 20
21.628368522853435
 10
208.1783850451338
 20
26.404388940377444
 10
207.5966870352161
 20
26.98608695029514
 10
208.0785814450428
 20
27.46798136012185
 10
207.6964906353071
 20
27.850072169857576
 10
207.6964906353071
 20
31.19914089526643
 10
206.17359224693573
 20
32.28692545838885
 10
205.41101432964257
 20
32.28692545838885
 10
204.37838345144246
 20
30.841242228908715
 10
205.45974410524428
 20
29.327337313586167
 10
207.21459622548042
 20
28.073871513417558
 10
207.21459622548042
 20
26.886283350204152
 10
206.83250541574475
 20
26.50419254046843
 10
207.21459622548042
 20
26.122101730732705
 10
207.21459622548042
 20
22.067339251937156
 10
206.73270181565374
 20
21.585444842110448
 10
206.73270181565374
 20
20.38847877485206
 10
209.2169909560768
 20
19.146334204640624
 10
206.8462854173219
 20
18.807661984818424
 10
206.34623437634608
 20
18.30761094384259
 10
200.60491954316285
 20
18.557233327894053
 10
199.9861800780799
 20
19.175972792977003
 10
199.9861800780799
 20
20.139761612630313
 10
198.7746137092364
 20
21.351327981473766
 10
200.50188629457466
 20
21.696782498541566
 10
201.2305493524168
 20
21.332450969620442
 10
201.41182654180471
 20
22.963945674111976
 10
200.98557074393915
 20
23.106030940067136
 10
199.4735846856496
 20
22.09804023454065
 10
198.54049684859984
 20
23.03112807159058
 10
198.54049684859984
 20
25.012107119133265
 10
197.56116211249324
 20
27.460443959399726
 10
198.023876451591
 20
28.848586976693014
 10
197.57670802894646
 20
29.295755399337597
 10
197.57670802894646
 20
30.43822682028352
 10
200.3776411010567
 20
34.25768100952475
 10
201.3814015934911
 20
33.9230941787132
 10
201.5725932500715
 20
33.349519208972
 10
202.33877220786513
 20
33.73260868786887
 10
204.70532057625584
 20
33.73260868786887
 10
205.17124254613378
 20
34.19853065774681
 10
208.01774674102276
 20
34.67294802356169
 10
208.59427161357038
 20
35.825997768656805
 10
209.67629611442692
 20
34.74397326780032
 10
209.18464583909594
 20
33.76067271713834
 10
210.73326052976793
 20
31.769596686274326
 10
211.70403430659618
 20
31.44600542733167
 10
210.1059626844406
 20
29.315243264457557
 10
210.1059626844406
 20
28.331966579684288
  0
LWPOLYLINE
  5
73
330
17
100
AcDbEntity
  8
ENG_D
100
AcDbPolyline
 90
5
 70
1
 10
207.8851982734307
 20
18.987265154853496
 10
211.16032733665216
 20
19.28500416060075
 10
211.8448326856239
 20
18.600498811629173
 10
208.56970362240233
 20
18.302759805881696
 10
207.8851982734307
 20
18.987265154853496
  0
LWPOLYLINE
  5
74
330
17
100
AcDbEntity
  8
ENG_D
100
AcDbPolyline
 90
4
 70
1
 10
210.68766069435833
 20
33.25071427804216
 10
209.86501547952724
 20
32.428069063211275
 10
209.86501547952724
 20
34.07335949287338
 10
210.68766069435833
 20
33.25071427804216
  0
LWPOLYLINE
  5
75
330
17
100
AcDbEntity
  8
ENG_D
100
AcDbPolyline
 90
16
 70
1
 10
192.75776393067946
 20
20.821263222638997
 10
192.75776393067946
 20
19.6578672028036
 10
191.89133248388444
 20
18.79143575600861
 10
181.83952796848493
 20
19.03660171979893
 10
180.22850927518527
 20
20.110614181998553
 10
180.22850927518527
 20
20.821263222638997
 10
182.17507319575682
 20
22.767827143210575
 10
182.66577134367404
 20
25.22131788279669
 10
183.64569542936948
 20
25.71127992564437
 10
183.9099996343108
 20
26.50419254046843
 10
185.14725697354334
 20
26.50419254046843
 10
186.14664673202074
 20
25.504802781990964
 10
188.59525564693882
 20
24.525359216023723
 10
189.07348485689525
 20
23.56890079611096
 10
190.47844710736376
 20
23.10058004595472
 10
192.75776393067946
 20
20.821263222638997
  0
LWPOLYLINE
  5
76
330
17
100
AcDbEntity
  8
ENG_D
100
AcDbPolyline
 90
60
 70
1
 10
156.61568319367706
 20
64.42493735464683
 10
155.73421176661518
 20
63.984201641115845
 10
156.73974761071335
 20
61.97312995291959
 10
154.60291785311912
 20
61.667868558977545
 10
154.1586353842656
 20
62.112151027831075
 10
153.25022400319781
 20
61.65794533729707
 10
151.31484468558338
 20
62.487393616274865
 10
151.31484468558338
 20
64.19176010704186
 10
152.3215571859797
 20
65.19847260743828
 10
153.24242232489016
 20
67.04020288525913
 10
153.24242232489016
 20
68.02742752053558
 10
154.68810555437025
 20
69.95500515984232
 10
154.68810555437025
 20
71.90207066426912
 10
155.07019636410593
 20
72.28416147400485
 10
154.6190029368829
 20
72.73535490122774
 10
155.65743345331973
 20
74.29300067588306
 10
155.93373047023667
 20
77.88486189580324
 10
156.61568319367706
 20
77.20290917236284
 10
157.1175566776932
 20
77.70478265637892
 10
159.18024398593474
 20
75.1264235210769
 10
161.00961280146558
 20
74.21173911331158
 10
162.0163253018618
 20
74.21173911331158
 10
162.9801141215152
 20
73.24795029365816
 10
164.75100824138266
 20
73.24795029365816
 10
166.81186268487056
 20
74.27837751540211
 10
168.30016414584514
 20
72.19475547003773
 10
167.21736020986444
 20
71.65335350204738
 10
167.21736020986444
 20
69.95500515984232
 10
168.7232802405729
 20
67.94711178556445
 10
169.74101211025888
 20
67.94711178556445
 10
172.20323775309112
 20
64.93772488876948
 10
171.05402767632407
 20
64.55465486318057
 10
170.10872666882463
 20
65.02730536693025
 10
168.0733941636829
 20
64.00963911435942
 10
167.5503410575604
 20
65.05574532660441
 10
165.8714805804754
 20
65.05574532660441
 10
165.28978257055763
 20
64.4740473166866
 10
165.28978257055763
 20
62.26418246773513
 10
165.77167698038434
 20
61.78228805790842
 10
165.77167698038434
 20
59.90382038064135
 10
166.73546580003773
 20
59.42192597081475
 10
166.73546580003773
 20
58.55017079394398
 10
162.1005889873358
 20
58.55017079394398
 10
160.78692144063615
 20
59.207004567293886
 10
161.83668912837686
 20
60.25677225503445
 10
160.33568208828456
 20
62.18663844943884
 10
159.02515524281054
 20
62.448743818533714
 10
159.02515524281054
 20
63.992152906859886
 10
158.44345723289283
 20
64.57385091677759
 10
159.50704965263722
 20
65.637443336522
 10
159.50704965263722
 20
66.63037958680718
 10
160.95273288211735
 20
67.5941684064606
 10
160.95273288211735
 20
67.73145372628287
 10
158.88695572116828
 20
67.96098452194389
 10
157.99892061489058
 20
69.29303718136049
 10
156.61568319367706
 20
68.30501045192217
 10
156.61568319367706
 20
67.56502097582884
 10
157.19738120359477
 20
66.98332296591114
 10
156.61568319367706
 20
66.40162495599344
 10
156.61568319367706
 20
64.42493735464683
  0
LWPOLYLINE
  5
77
330
17
100
AcDbEntity
  8
ENG_D
100
AcDbPolyline
 90
4
 70
1
 10
168.16560911490097
 20
67.54948106121195
 10
168.08634879763366
 20
67.50985090257832
 10
168.11607141660895
 20
67.49994336291998
 10
168.16560911490097
 20
67.54948106121195
  0
LWPOLYLINE
  5
78
330
17
100
AcDbEntity
  8
ENG_D
100
AcDbPolyline
 90
5
 70
1
 10
166.2165357537385
 20
70.9997979518553
 10
166.10559744111194
 20
71.55448951498799
 10
165.80640296756647
 20
71.25529504144257
 10
165.92406537305985
 20
70.90230782496232
 10
166.2165357537385
 20
70.9997979518553
  0
LWPOLYLINE
  5
79
330
17
100
AcDbEntity
  8
ENG_D
100
AcDbPolyline
 90
7
 70
1
 10
161.83385084838991
 20
65.05574532660441
 10
160.60726046155213
 20
65.05574532660441
 10
160.0744426515969
 20
64.16771564334567
 10
163.87776761672237
 20
61.70674066591153
 10
164.27907216416045
 20
61.840508848390876
 10
163.87146598852158
 20
63.47093355094646
 10
161.83385084838991
 20
65.05574532660441
  0
LWPOLYLINE
  5
7A
330
17
100
AcDbEntity
  8
ENG_D
100
AcDbPolyline
 90
4
 70
1
 10
170.34967387373794
 20
68.28786259056874
 10
171.17231908856903
 20
67.46521737573785
 10
170.34967387373794
 20
66.64257216090664
 10
170.34967387373794
 20
68.28786259056874
  0
LWPOLYLINE
  5
7B
330
17
100
AcDbEntity
  8
ENG_D
100
AcDbPolyline
 90
4
 70
1
 10
168.90399064425787
 20
62.78741688229306
 10
168.90399064425787
 20
64.43270731195516
 10
169.72663585908896
 20
63.61006209712428
 10
168.90399064425787
 20
62.78741688229306
  0
LWPOLYLINE
  5
7C
330
17
100
AcDbEntity
  8
ENG_D
100
AcDbPolyline
 90
4
 70
1
 10
167.9402018246045
 20
21.06221042755263
 10
168.76284703943554
 20
20.2395652127213
 10
167.9402018246045
 20
19.416919997890304
 10
167.9402018246045
 20
21.06221042755263
  0
LWPOLYLINE
  5
7D
330
17
100
AcDbEntity
  8
ENG_D
100
AcDbPolyline
 90
21
 70
1
 10
158.6430644330749
 20
23.130931671681452
 10
160.08874766255502
 20
23.130931671681452
 10
160.57064207238173
 20
22.649037261854744
 10
162.4552960309457
 20
22.649037261854744
 10
164.38287367025248
 20
21.685248442201434
 10
166.802204312198
 20
21.685248442201434
 10
168.46824785635144
 20
20.685622315709253
 10
166.19854575101917
 20
19.71289284199551
 10
165.67187338029328
 20
20.23956521272141
 10
163.77114639745002
 20
20.23956521272141
 10
162.32546316796993
 20
21.203354032374833
 10
160.26675852388323
 20
21.203354032374833
 10
160.50770572879657
 20
19.51672359798129
 10
159.02515524281054
 20
19.51672359798129
 10
159.02515524281054
 20
21.548826452939984
 10
157.99462791099688
 20
22.167142852028142
 10
157.0203624446125
 20
22.167142852028142
 10
155.0394503471203
 20
23.58208006452267
 10
155.5727011197866
 20
24.115330837188754
 10
158.18015630451285
 20
23.593839800243543
 10
158.6430644330749
 20
23.130931671681452
  0
LWPOLYLINE
  5
7E
330
17
100
AcDbEntity
  8
ENG_D
100
AcDbPolyline
 90
23
 70
1
 10
160.47083847229064
 20
26.431239596841127
 10
160.47083847229064
 20
29.01346818969286
 10
160.87553888137646
 20
29.41816859877866
 10
159.50704965263722
 20
31.2428209037644
 10
159.50704965263722
 20
32.38672905847984
 10
159.88914046237292
 20
32.768819868215445
 10
159.50704965263722
 20
33.150910677951174
 10
159.50704965263722
 20
34.369652200387456
 10
162.34622473157128
 20
35.6601863271756
 10
163.2132913691201
 20
35.6601863271756
 10
163.6951857789468
 20
36.623975146829025
 10
164.53496615377685
 20
36.623975146829025
 10
164.8269413722115
 20
34.58014861778658
 10
163.3171782918685
 20
33.573639897557904
 10
162.42556988056108
 20
31.34461886928952
 10
163.06113763346323
 20
30.285339281119317
 10
164.7945337478915
 20
29.0471991993847
 10
165.28356328125477
 20
24.64593339911536
 10
165.92059054251504
 20
23.371878876594977
 10
162.58248339716255
 20
23.371878876594977
 10
161.43462729194405
 20
23.945806929204117
 10
161.43462729194405
 20
24.985556367360886
 10
160.47083847229064
 20
26.431239596841127
  0
LWPOLYLINE
  5
7F
330
17
100
AcDbEntity
  8
ENG_D
100
AcDbPolyline
 90
4
 70
1
 10
161.05253648220835
 20
67.46521737573785
 10
160.2298912673773
 20
66.64257216090652
 10
160.2298912673773
 20
68.28786259056885
 10
161.05253648220835
 20
67.46521737573785
  0
LWPOLYLINE
  5
80
330
17
100
AcDbEntity
  8
ENG_D
100
AcDbPolyline
 90
4
 70
1
 10
159.2661024477239
 20
59.896050423333016
 10
159.2661024477239
 20
61.54134085299534
 10
160.08874766255497
 20
60.71869563816401
 10
159.2661024477239
 20
59.896050423333016
  0
LWPOLYLINE
  5
81
330
17
100
AcDbEntity
  8
ENG_D
100
AcDbPolyline
 90
33
 70
1
 10
156.1104082359539
 20
41.08420898325693
 10
157.09757760350377
 20
40.09703961570699
 10
157.09757760350377
 20
38.65135638622685
 10
157.69826189468614
 20
38.05067209504453
 10
159.27293279200066
 20
37.73573791558149
 10
158.0920674057608
 20
36.55487252934175
 10
156.55505851260037
 20
37.57954512478201
 10
154.71062290664563
 20
37.37460783523139
 10
155.16439214821625
 20
32.836915419524935
 10
155.70412221383668
 20
31.75745528828411
 10
155.16999996419696
 20
31.22333303864444
 10
155.16999996419696
 20
29.154611794515283
 10
154.20621114454354
 20
29.154611794515283
 10
154.20621114454354
 20
30.70482023964727
 10
153.279772632887
 20
31.260683346641226
 10
152.86033151515454
 20
30.841242228908715
 10
150.78075889573051
 20
30.841242228908715
 10
147.76630383363323
 20
32.2114490753167
 10
148.42347822662316
 20
32.86862346830644
 10
148.42347822662316
 20
34.1146994976046
 10
147.84178021670547
 20
34.69639750752229
 10
148.42347822662316
 20
35.278095517439986
 10
148.42347822662316
 20
38.16946197640014
 10
148.90537263644987
 20
38.65135638622685
 10
148.90537263644987
 20
41.54272284518712
 10
149.38726704627658
 20
42.024617255013716
 10
149.38726704627658
 20
44.915983713973986
 10
150.35105586592996
 20
45.8797725336274
 10
150.93275387584774
 20
45.298074523709595
 10
152.34537201739704
 20
45.298074523709595
 10
154.83750678635755
 20
43.80279366233331
 10
155.6285138261272
 20
43.01178662256366
 10
156.1104082359539
 20
41.08420898325693
  0
LWPOLYLINE
  5
82
330
17
100
AcDbEntity
  8
ENG_D
100
AcDbPolyline
 90
4
 70
1
 10
146.25495338240302
 20
85.91834855397484
 10
146.25495338240302
 20
87.56363898363695
 10
147.0775985972341
 20
86.74099376880574
 10
146.25495338240302
 20
85.91834855397484
  0
LWPOLYLINE
  5
83
330
17
100
AcDbEntity
  8
ENG_D
100
AcDbPolyline
 90
5
 70
1
 10
142.70582292161166
 20
97.37739677217516
 10
143.32774110821387
 20
96.7554785855731
 10
142.0937732859672
 20
96.34415597815772
 10
141.4718550993651
 20
96.96607416475977
 10
142.70582292161166
 20
97.37739677217516
  0
LWPOLYLINE
  5
84
330
17
100
AcDbEntity
  8
ENG_D
100
AcDbPolyline
 90
20
 70
1
 10
138.7855900300892
 20
107.56225699144473
 10
138.7855900300892
 20
108.8083330207429
 10
138.2038920201715
 20
109.39003103066058
 10
138.7855900300892
 20
109.97172904057828
 10
138.7855900300892
 20
112.45506240910873
 10
140.25475445889828
 20
112.94478388537854
 10
140.5041952665234
 20
114.69086953875419
 10
142.37888741337034
 20
114.69086953875419
 10
142.6459614263683
 20
111.75305539577695
 10
142.18729085855014
 20
110.83571426014072
 10
143.2382803450228
 20
108.73373528719532
 10
141.79574637040508
 20
108.4452284922719
 10
140.76539550920901
 20
107.41487763107571
 10
142.25765582980588
 20
104.43035698988213
 10
139.966844855327
 20
103.66675333172249
 10
139.71740404770188
 20
101.92066767834685
 10
138.7855900300892
 20
101.92066767834685
 10
138.7855900300892
 20
104.04279033071184
 10
137.78002812702263
 20
106.55669508837829
 10
138.7855900300892
 20
107.56225699144473
  0
LWPOLYLINE
  5
85
330
17
100
AcDbEntity
  8
ENG_D
100
AcDbPolyline
 90
5
 70
1
 10
140.1661956466604
 20
81.95677565772097
 10
141.40016346890698
 20
81.54545305030526
 10
140.2963508724782
 20
80.44164045387647
 10
139.0623830502316
 20
80.8529630612922
 10
140.1661956466604
 20
81.95677565772097
  0
LWPOLYLINE
  5
86
330
17
100
AcDbEntity
  8
ENG_D
100
AcDbPolyline
 90
5
 70
1
 10
138.7855900300892
 20
99.51119562921329
 10
138.7855900300892
 20
100.33384084404429
 10
139.3727822295092
 20
100.92103304346445
 10
139.84272803425955
 20
99.51119562921329
 10
138.7855900300892
 20
99.51119562921329
  0
LWPOLYLINE
  5
87
330
17
100
AcDbEntity
  8
ENG_D
100
AcDbPolyline
 90
4
 70
1
 10
138.54464282517583
 20
98.447603209469
 10
138.54464282517583
 20
100.09289363913109
 10
139.3672880400069
 20
99.27024842429988
 10
138.54464282517583
 20
98.447603209469
  0
LWPOLYLINE
  5
88
330
17
100
AcDbEntity
  8
ENG_D
100
AcDbPolyline
 90
5
 70
1
 10
136.85801239078242
 20
75.89836954770513
 10
136.85801239078242
 20
77.27677049175973
 10
138.13949588630535
 20
77.70393165693423
 10
137.77838346445955
 20
75.89836954770513
 10
136.85801239078242
 20
75.89836954770513
  0
LWPOLYLINE
  5
89
330
17
100
AcDbEntity
  8
ENG_D
100
AcDbPolyline
 90
30
 70
1
 10
132.03906829251542
 20
78.61552731391197
 10
132.03906829251542
 20
75.7572259428827
 10
133.1026607122599
 20
74.69363352313817
 10
134.39166042230065
 20
74.69363352313817
 10
136.3576301688018
 20
75.67661839638873
 10
137.33990680060913
 20
75.34919285245311
 10
137.33990680060913
 20
73.19107037431006
 10
136.32524303446883
 20
71.16174284202958
 10
134.5130325313961
 20
69.80258496472503
 10
134.93043475147562
 20
68.96778052456587
 10
134.93043475147562
 20
65.91973054616673
 10
134.44854034164894
 20
65.43783613634002
 10
134.44854034164894
 20
60.95964284307742
 10
133.60989351329505
 20
60.95964284307742
 10
131.55717388268872
 20
63.525542381335455
 10
131.55717388268872
 20
64.67365451686857
 10
131.9392646924244
 20
65.0557453266043
 10
131.4573702825977
 20
65.537639736431
 10
132.03906829251542
 20
66.1193377463487
 10
132.03906829251542
 20
67.34737399979429
 10
130.06535116043335
 20
68.882487324747
 10
129.57913452931297
 20
68.72041511437355
 10
129.2162026631817
 20
67.63161951597974
 10
127.092114015901
 20
70.96947310456359
 10
128.6843058881816
 20
71.50020372865717
 10
129.15564957347513
 20
75.74229689629897
 10
130.11149065320862
 20
77.17605851589914
 10
130.11149065320862
 20
78.61552731391197
 10
131.075279472862
 20
80.22184201333427
 10
132.03906829251542
 20
78.61552731391197
  0
LWPOLYLINE
  5
8A
330
17
100
AcDbEntity
  8
ENG_D
100
AcDbPolyline
 90
44
 70
1
 10
122.86246415995429
 20
103.52810485850294
 10
123.34435856978101
 20
105.9375769076365
 10
122.88307450580814
 20
106.39886097160944
 10
122.88307450580814
 20
108.48312213035527
 10
123.33652895596083
 20
109.39003103066058
 10
122.83084666599511
 20
110.40139561059203
 10
123.26516531554384
 20
110.83571426014072
 10
122.88307450580814
 20
111.21780506987645
 10
122.88307450580814
 20
112.86309549953843
 10
123.31274107582182
 20
113.29276206955218
 10
122.85463454613411
 20
114.20897512892758
 10
123.33652895596083
 20
115.17276394858101
 10
122.85853538528792
 20
116.12875108992671
 10
123.7923882126579
 20
118.30774102045683
 10
127.8343281514217
 20
112.75007360465649
 10
130.39540614664404
 20
112.46550938296507
 10
129.65020658923578
 20
111.72030982555681
 10
129.81861078178176
 20
110.87828886282713
 10
130.59338506303533
 20
111.03324371907786
 10
130.59338506303533
 20
111.89930667988502
 10
132.42115910225104
 20
113.72708071910087
 10
134.11555949395296
 20
113.72708071910087
 10
134.59745390377964
 20
112.76329189944745
 10
135.5121327613934
 20
112.76329189944745
 10
136.3761179809557
 20
111.89930667988502
 10
136.3761179809557
 20
110.25401625022302
 10
135.894223571129
 20
109.77212184039631
 10
135.894223571129
 20
108.32643861091617
 10
135.4225746777175
 20
107.85478971750462
 10
136.01943445169834
 20
107.97416167230078
 10
137.3890246382552
 20
105.50889933649854
 10
135.0622861763465
 20
102.6651078830545
 10
133.9100641067152
 20
102.43466346912832
 10
133.59004931158879
 20
101.4746190837491
 10
133.00285711216884
 20
102.06181128316905
 10
132.6207663024332
 20
101.67972047343343
 10
131.1644116450563
 20
101.67972047343343
 10
127.77939111290945
 20
98.77827430302189
 10
125.1921830545063
 20
99.06574186506656
 10
126.21456229118189
 20
101.62168995675557
 10
125.66574996569854
 20
102.1705022822389
 10
122.58988773410492
 20
102.45012612147475
 10
123.26516531554383
 20
103.12540370291346
 10
122.86246415995429
 20
103.52810485850294
  0
LWPOLYLINE
  5
8B
330
17
100
AcDbEntity
  8
ENG_D
100
AcDbPolyline
 90
4
 70
1
 10
124.57857090366514
 20
112.89556954080626
 10
124.8932963545883
 20
112.37102712260094
 10
125.02443195913965
 20
112.44970848533175
 10
124.57857090366514
 20
112.89556954080626
  0
LWPOLYLINE
  5
8C
330
17
100
AcDbEntity
  8
ENG_D
100
AcDbPolyline
 90
8
 70
1
 10
134.5186113417329
 20
76.42418924292905
 10
133.9602618578608
 20
77.54088821067329
 10
134.2821121523679
 20
80.43754086123744
 10
135.56695181547792
 20
78.51028136657257
 10
136.3761179809557
 20
78.24055931141316
 10
136.3761179809557
 20
77.00330197218075
 10
135.4774067742112
 20
76.10459076543619
 10
134.5186113417329
 20
76.42418924292905
  0
LWPOLYLINE
  5
8D
330
17
100
AcDbEntity
  8
ENG_D
100
AcDbPolyline
 90
4
 70
1
 10
134.68948754656228
 20
80.81711724606289
 10
135.51213276139333
 20
79.994472031232
 10
134.68948754656228
 20
79.17182681640078
 10
134.68948754656228
 20
80.81711724606289
  0
LWPOLYLINE
  5
8E
330
17
100
AcDbEntity
  8
ENG_D
100
AcDbPolyline
 90
4
 70
1
 10
130.352437858122
 20
67.12446657073335
 10
130.352437858122
 20
68.76975700039544
 10
131.17508307295307
 20
67.94711178556456
 10
130.352437858122
 20
67.12446657073335
  0
LWPOLYLINE
  5
8F
330
17
100
AcDbEntity
  8
ENG_D
100
AcDbPolyline
 90
4
 70
1
 10
121.67833848124141
 20
120.81435326167889
 10
122.50098369607247
 20
119.991708046848
 10
121.67833848124141
 20
119.16906283201666
 10
121.67833848124141
 20
120.81435326167889
  0
LWPOLYLINE
  5
90
330
17
100
AcDbEntity
  8
ENG_D
100
AcDbPolyline
 90
4
 70
1
 10
79.75352482631861
 20
36.4828315420066
 10
80.57617004114971
 20
35.660186327175715
 10
79.75352482631861
 20
34.837541112344496
 10
79.75352482631861
 20
36.4828315420066
  0
LWPOLYLINE
  5
91
330
17
100
AcDbEntity
  8
ENG_D
100
AcDbPolyline
 90
4
 70
1
 10
76.86215836735842
 20
29.73630980443309
 10
77.68480358218952
 20
28.913664589601872
 10
76.86215836735842
 20
28.091019374770987
 10
76.86215836735842
 20
29.73630980443309
  0
LWPOLYLINE
  5
92
330
17
100
AcDbEntity
  8
ENG_D
100
AcDbPolyline
 90
4
 70
1
 10
76.23912035270942
 20
25.540403720815007
 10
75.41647513787834
 20
24.717758505984122
 10
75.41647513787834
 20
26.363048935646226
 10
76.23912035270942
 20
25.540403720815007
  0
LWPOLYLINE
  5
93
330
17
100
AcDbEntity
  8
ENG_D
100
AcDbPolyline
 90
4
 70
1
 10
74.93458072805163
 20
25.399260115992917
 10
75.7572259428827
 20
24.576614901161587
 10
74.93458072805163
 20
23.7539696863307
 10
74.93458072805163
 20
25.399260115992917
  0
LWPOLYLINE
  5
94
330
17
100
AcDbEntity
  8
ENG_D
100
AcDbPolyline
 90
5
 70
1
 10
74.69363352313827
 20
23.71262968159926
 10
75.21025392014708
 20
23.196009284590424
 10
74.84602191581378
 20
22.10331327159043
 10
73.52474331380058
 20
22.543739472261628
 10
74.69363352313827
 20
23.71262968159926
  0
LWPOLYLINE
  5
95
330
17
100
AcDbEntity
  8
ENG_K
100
AcDbPolyline
 90
8
 70
1
 10
214.91834724773884
 20
20.093931418074916
 10
215.20192119832737
 20
26.616132281611193
 10
218.2499224677974
 20
21.351402816162768
 10
219.74385088097458
 20
19.857474402985574
 10
219.74385088097458
 20
18.03904686408242
 10
215.27993821490983
 20
18.597035947340522
 10
215.80637820976943
 20
19.64991593705956
 10
214.91834724773884
 20
20.093931418074916
  0
LWPOLYLINE
  5
96
330
17
100
AcDbEntity
  8
ENG_K
100
AcDbPolyline
 90
12
 70
1
 10
209.6941392746979
 20
21.00633211285863
 10
209.1421738647872
 20
22.110262932680147
 10
209.1421738647872
 20
25.158312911079285
 10
209.6240682746139
 20
25.640207320905994
 10
209.6240682746139
 20
26.929207030947033
 10
209.08994602497418
 20
27.99745153022659
 10
209.6240682746139
 20
28.53157377986626
 10
209.6240682746139
 20
29.51955474289758
 10
211.7795797090412
 20
31.05920576748855
 10
212.03640824043725
 20
22.070207168626954
 10
210.65293470717623
 20
20.686733635365997
 10
209.6941392746979
 20
21.00633211285863
  0
LWPOLYLINE
  5
97
330
17
100
AcDbEntity
  8
ENG_K
100
AcDbPolyline
 90
13
 70
1
 10
199.48966976941333
 20
18.70869428199018
 10
199.9146745423387
 20
21.683727692467624
 10
199.99083314564723
 20
21.685841579397124
 10
200.44908820664187
 20
19.39456627442382
 10
201.04977249782442
 20
18.793881983241167
 10
206.15100380573594
 20
18.793881983241167
 10
206.63289821556262
 20
19.27577639306788
 10
208.27818864522487
 20
19.27577639306788
 10
208.75229325992206
 20
18.801671778370665
 10
212.1359302956631
 20
19.06195155035084
 10
211.7240697918764
 20
17.82637003899068
 10
200.12520975633745
 20
18.07315429506606
 10
199.48966976941333
 20
18.70869428199018
  0
LWPOLYLINE
  5
98
330
17
100
AcDbEntity
  8
ENG_K
100
AcDbPolyline
 90
5
 70
1
 10
209.52526334368414
 20
32.909549810726915
 10
210.77059719023097
 20
33.324661092909324
 10
211.12271264008308
 20
31.564083843648838
 10
210.19799632722322
 20
31.564083843648838
 10
209.52526334368414
 20
32.909549810726915
  0
LWPOLYLINE
  5
99
330
17
100
AcDbEntity
  8
ENG_K
100
AcDbPolyline
 90
5
 70
1
 10
208.62555346777836
 20
33.66753107496001
 10
209.03687607519393
 20
34.90149889720673
 10
210.14068867162274
 20
33.79768630077773
 10
209.7293660642072
 20
32.563718478531236
 10
208.62555346777836
 20
33.66753107496001
  0
LWPOLYLINE
  5
9A
330
17
100
AcDbEntity
  8
ENG_K
100
AcDbPolyline
 90
4
 70
1
 10
199.2633384633399
 20
19.898814407717126
 10
199.2633384633399
 20
21.54410483737923
 10
200.08598367817095
 20
20.72145962254801
 10
199.2633384633399
 20
19.898814407717126
  0
LWPOLYLINE
  5
9B
330
17
100
AcDbEntity
  8
ENG_K
100
AcDbPolyline
 90
14
 70
1
 10
180.26044541491305
 20
21.348876368867288
 10
182.17408291342747
 20
28.046607613667618
 10
182.983453744884
 20
29.395558999428584
 10
183.69230246998555
 20
29.395558999428584
 10
187.57180589644364
 20
26.000993501277826
 10
189.5333119074794
 20
25.510616998518863
 10
190.51722077189024
 20
24.034753701902556
 10
193.8691118054284
 20
22.119387397023683
 10
196.23082839955742
 20
19.757670802894587
 10
197.17202877801103
 20
19.757670802894587
 10
199.52024572228135
 20
18.080372985558757
 10
179.46158167325348
 20
17.82646584569758
 10
180.091009158008
 20
21.60303075422476
 10
180.26044541491305
 20
21.348876368867288
  0
LWPOLYLINE
  5
9C
330
17
100
AcDbEntity
  8
ENG_K
100
AcDbPolyline
 90
19
 70
1
 10
180.73131686151666
 20
20.64256919896179
 10
181.35728468124864
 20
19.703617469363778
 10
182.10851115421414
 20
19.328004232880946
 10
182.5381777242277
 20
19.757670802894587
 10
183.70157374406327
 20
19.757670802894587
 10
184.18346815388995
 20
19.27577639306788
 10
191.69417151093498
 20
19.27577639306788
 10
192.27586952085275
 20
19.857474402985574
 10
192.27586952085275
 20
20.621656022457024
 10
190.21813665572816
 20
22.679388887581588
 10
188.7317324472365
 20
23.17485695707877
 10
188.2461728375395
 20
24.14597617647285
 10
185.87583765419058
 20
25.094110249812452
 10
184.9476497733612
 20
26.02229813064183
 10
184.2325781159296
 20
26.02229813064183
 10
183.77264634880154
 20
25.102434596385613
 10
183.0877743531906
 20
24.874143931181926
 10
182.61899504305407
 20
22.530247380499134
 10
180.73131686151666
 20
20.64256919896179
  0
LWPOLYLINE
  5
9D
330
17
100
AcDbEntity
  8
ENG_K
100
AcDbPolyline
 90
5
 70
1
 10
197.57670802894646
 20
28.190822974861973
 10
197.57670802894646
 20
29.01346818969286
 10
198.16390022836637
 20
29.60066038911302
 10
198.63384603311675
 20
28.190822974861973
 10
197.57670802894646
 20
28.190822974861973
  0
LWPOLYLINE
  5
9E
330
17
100
AcDbEntity
  8
ENG_K
100
AcDbPolyline
 90
4
 70
1
 10
198.15840603886417
 20
29.877453409255295
 10
197.3357608240331
 20
29.05480819442441
 10
197.3357608240331
 20
30.700098624086515
 10
198.15840603886417
 20
29.877453409255295
  0
LWPOLYLINE
  5
9F
330
17
100
AcDbEntity
  8
ENG_K
100
AcDbPolyline
 90
4
 70
1
 10
171.17231908856903
 20
66.98332296591114
 10
170.34967387373794
 20
66.16067775107992
 10
170.34967387373794
 20
67.80596818074203
 10
171.17231908856903
 20
66.98332296591114
  0
LWPOLYLINE
  5
A0
330
17
100
AcDbEntity
  8
ENG_K
100
AcDbPolyline
 90
4
 70
1
 10
169.86777946391126
 20
66.64257216090664
 10
169.86777946391126
 20
68.28786259056874
 10
170.69042467874235
 20
67.46521737573785
 10
169.86777946391126
 20
66.64257216090664
  0
LWPOLYLINE
  5
A1
330
17
100
AcDbEntity
  8
ENG_K
100
AcDbPolyline
 90
5
 70
1
 10
169.72018144351486
 20
62.40532607255756
 10
168.6630434393445
 20
62.40532607255756
 10
168.6630434393445
 20
63.22797128738855
 10
169.25023563876454
 20
63.81516348680849
 10
169.72018144351486
 20
62.40532607255756
  0
LWPOLYLINE
  5
A2
330
17
100
AcDbEntity
  8
ENG_K
100
AcDbPolyline
 90
5
 70
1
 10
169.3539618625743
 20
35.48711953084327
 10
169.641422127683
 20
30.600295023995415
 10
168.6630434393445
 20
30.600295023995415
 10
168.6630434393445
 20
34.79620110761328
 10
169.3539618625743
 20
35.48711953084327
  0
LWPOLYLINE
  5
A3
330
17
100
AcDbEntity
  8
ENG_K
100
AcDbPolyline
 90
5
 70
1
 10
168.24622664242673
 20
67.98183777274657
 10
168.8681448290288
 20
67.35991958614463
 10
167.6341770067822
 20
66.9485969787289
 10
167.0122588201801
 20
67.57051516533119
 10
168.24622664242673
 20
67.98183777274657
  0
LWPOLYLINE
  5
A4
330
17
100
AcDbEntity
  8
ENG_K
100
AcDbPolyline
 90
18
 70
1
 10
159.71360919735037
 20
19.839557434011446
 10
159.9629274474481
 20
19.92266351737737
 10
159.71112960104466
 20
21.685248442201434
 10
162.47136905522495
 20
21.685248442201434
 10
163.91705228470508
 20
20.72145962254801
 10
165.8714805804754
 20
20.72145962254801
 10
166.25357139021102
 20
20.339368812812396
 10
166.63566219994667
 20
20.72145962254801
 10
167.79905821978218
 20
20.72145962254801
 10
168.67765933818444
 20
19.84285850414569
 10
168.3895068079955
 20
17.825790792822982
 10
156.27290436344157
 20
18.07306839373235
 10
155.65189437402367
 20
18.69407838315029
 10
155.65189437402367
 20
21.585444842110448
 10
155.1493896183431
 20
22.087949597790924
 10
155.47579033040086
 20
23.719953158079733
 10
159.4906310427224
 20
21.846360825662934
 10
159.71360919735037
 20
19.839557434011446
  0
LWPOLYLINE
  5
A5
330
17
100
AcDbEntity
  8
ENG_K
100
AcDbPolyline
 90
8
 70
1
 10
165.77167698038434
 20
63.876298447669285
 10
165.77167698038434
 20
61.92343166273084
 10
164.80788816073093
 20
61.92343166273084
 10
164.80788816073093
 20
64.67365451686857
 10
165.67187338029328
 20
65.537639736431
 10
167.9402018246045
 20
65.537639736431
 10
167.9402018246045
 20
64.1172456525827
 10
165.77167698038434
 20
63.876298447669285
  0
LWPOLYLINE
  5
A6
330
17
100
AcDbEntity
  8
ENG_K
100
AcDbPolyline
 90
4
 70
1
 10
167.31716380995545
 20
68.42900619539117
 10
166.49451859512436
 20
67.60636098056028
 10
166.49451859512436
 20
69.25165141022238
 10
167.31716380995545
 20
68.42900619539117
  0
LWPOLYLINE
  5
A7
330
17
100
AcDbEntity
  8
ENG_K
100
AcDbPolyline
 90
5
 70
1
 10
166.4015453393101
 20
72.53193902319488
 10
166.7884269360268
 20
70.59753103961141
 10
165.28978257055763
 20
70.59753103961141
 10
165.28978257055763
 20
71.42017625444241
 10
166.4015453393101
 20
72.53193902319488
  0
LWPOLYLINE
  5
A8
330
17
100
AcDbEntity
  8
ENG_K
100
AcDbPolyline
 90
10
 70
1
 10
161.8935701215034
 20
31.312159879922085
 10
162.9253371608065
 20
33.89157747817983
 10
164.32599375090422
 20
34.82534853824504
 10
164.32599375090422
 20
36.31574565649054
 10
165.52400332951632
 20
36.71508218269448
 10
165.7766444414846
 20
24.335667696248287
 10
164.83317730636261
 20
24.335667696248287
 10
164.33897904887135
 20
28.78345201366983
 10
162.44929105808433
 20
30.200718006760162
 10
161.8935701215034
 20
31.312159879922085
  0
LWPOLYLINE
  5
A9
330
17
100
AcDbEntity
  8
ENG_K
100
AcDbPolyline
 90
28
 70
1
 10
160.9854728568105
 20
66.85077939112693
 10
159.98894406246396
 20
66.35251499395368
 10
159.98894406246396
 20
65.43783613634002
 10
159.12495884290158
 20
64.57385091677759
 10
159.50704965263725
 20
64.19176010704186
 10
159.50704965263725
 20
62.843802736407994
 10
160.60599485629675
 20
62.62401369567605
 10
162.4782486849913
 20
60.21683020164015
 10
161.0472294856582
 20
58.785811002307064
 10
156.29188274128325
 20
59.03609240990582
 10
152.56238398798595
 20
61.70002009083242
 10
154.24356145254038
 20
62.708726569564945
 10
154.77329325562138
 20
62.17899476648392
 10
156.00972436681403
 20
62.35562778236869
 10
155.08768257160543
 20
64.19971137278591
 10
156.13378878385035
 20
64.72276447890835
 10
156.13378878385035
 20
66.60123215617541
 10
156.51587959358605
 20
66.98332296591114
 10
156.13378878385035
 20
67.36541377564687
 10
156.13378878385035
 20
68.55300193886016
 10
158.12381223142376
 20
69.9744472585555
 10
159.1633547644528
 20
68.41513345901184
 10
161.5165139230609
 20
68.15367133027772
 10
161.10793247175613
 20
66.9279269763633
 10
161.1185443235985
 20
66.91731512452093
 10
161.10156536065068
 20
66.90882564304701
 10
161.0580306717106
 20
66.77822157622681
 10
160.9854728568105
 20
66.85077939112693
  0
LWPOLYLINE
  5
AA
330
17
100
AcDbEntity
  8
ENG_K
100
AcDbPolyline
 90
5
 70
1
 10
162.12162309145512
 20
74.10644132371824
 10
160.88765526920847
 20
73.69511871630286
 10
160.26573708260628
 20
74.31703690290492
 10
161.4997049048529
 20
74.7283595103203
 10
162.12162309145512
 20
74.10644132371824
  0
LWPOLYLINE
  5
AB
330
17
100
AcDbEntity
  8
ENG_K
100
AcDbPolyline
 90
5
 70
1
 10
161.15783427180165
 20
74.58833573354507
 10
159.92386644955502
 20
74.17701312612934
 10
159.30194826295295
 20
74.79893131273163
 10
160.53591608519955
 20
75.21025392014703
 10
161.15783427180165
 20
74.58833573354507
  0
LWPOLYLINE
  5
AC
330
17
100
AcDbEntity
  8
ENG_K
100
AcDbPolyline
 90
5
 70
1
 10
158.50591052498703
 20
76.20177004471252
 10
160.3211800361241
 20
75.11260833803036
 10
158.96007762990166
 20
74.65890753595605
 10
157.96156282306615
 20
75.65742234279172
 10
158.50591052498703
 20
76.20177004471252
  0
LWPOLYLINE
  5
AD
330
17
100
AcDbEntity
  8
ENG_K
100
AcDbPolyline
 90
4
 70
1
 10
158.64306443307487
 20
76.13931675261843
 10
157.8204192182438
 20
75.3166715377872
 10
157.8204192182438
 20
76.96196196744931
 10
158.64306443307487
 20
76.13931675261843
  0
LWPOLYLINE
  5
AE
330
17
100
AcDbEntity
  8
ENG_K
100
AcDbPolyline
 90
12
 70
1
 10
155.16999996419696
 20
42.75965144385341
 10
153.5870639562286
 20
43.814942115832366
 10
154.12102344329242
 20
44.34890160289606
 10
156.0648196034187
 20
44.07121643716383
 10
157.0619766646798
 20
41.57832378401105
 10
158.04238014189244
 20
40.59792030679843
 10
158.59622196897294
 20
37.82871117139586
 10
157.23872120832604
 20
37.82871117139586
 10
156.61568319367706
 20
38.45174918604488
 10
156.61568319367706
 20
39.91692028064497
 10
155.16999996419696
 20
41.844497919951706
 10
155.16999996419696
 20
42.75965144385341
  0
LWPOLYLINE
  5
AF
330
17
100
AcDbEntity
  8
ENG_K
100
AcDbPolyline
 90
4
 70
1
 10
156.3747359887637
 20
77.92575078710296
 10
157.19738120359477
 20
77.10310557227173
 10
156.3747359887637
 20
76.28046035744084
 10
156.3747359887637
 20
77.92575078710296
  0
LWPOLYLINE
  5
B0
330
17
100
AcDbEntity
  8
ENG_K
100
AcDbPolyline
 90
5
 70
1
 10
154.73686175934216
 20
30.94841049518704
 10
154.35859953721905
 20
29.813623828817693
 10
151.46450312174986
 20
30.778322633974064
 10
153.24242232489016
 20
31.845074155858132
 10
154.73686175934216
 20
30.94841049518704
  0
LWPOLYLINE
  5
B1
330
17
100
AcDbEntity
  8
ENG_K
100
AcDbPolyline
 90
5
 70
1
 10
154.25917228053265
 20
84.09057451475898
 10
153.3344559676728
 20
84.09057451475898
 10
152.6617229841337
 20
85.43604048183717
 10
153.90705683068057
 20
85.85115176401936
 10
154.25917228053265
 20
84.09057451475898
  0
LWPOLYLINE
  5
B2
330
17
100
AcDbEntity
  8
ENG_K
100
AcDbPolyline
 90
4
 70
1
 10
153.48336952980353
 20
45.15693091888717
 10
154.3060147446346
 20
44.334285704056285
 10
153.48336952980353
 20
43.511640489225066
 10
153.48336952980353
 20
45.15693091888717
  0
LWPOLYLINE
  5
B3
330
17
100
AcDbEntity
  8
ENG_K
100
AcDbPolyline
 90
5
 70
1
 10
152.83972116930062
 20
62.66688362332462
 10
153.4901998740803
 20
62.0164049185451
 10
151.71754584117292
 20
61.66187411196344
 10
151.06706713639326
 20
62.3123528167433
 10
152.83972116930062
 20
62.66688362332462
  0
LWPOLYLINE
  5
B4
330
17
100
AcDbEntity
  8
ENG_K
100
AcDbPolyline
 90
8
 70
1
 10
146.0140061774897
 20
88.36034191777398
 10
147.18435454185618
 20
88.75045803922931
 10
147.4671972263187
 20
86.20487387906705
 10
146.3818589904289
 20
84.39597681925082
 10
145.99339583163587
 20
86.33829261321624
 10
146.39609698722535
 20
86.74099376880574
 10
146.0140061774897
 20
87.12308457854145
 10
146.0140061774897
 20
88.36034191777398
  0
LWPOLYLINE
  5
B5
330
17
100
AcDbEntity
  8
ENG_K
100
AcDbPolyline
 90
7
 70
1
 10
142.16965823710896
 20
111.9101140181179
 10
142.53253207510235
 20
115.17597856005845
 10
142.81147900891526
 20
115.16873806666229
 10
143.13722958721456
 20
109.63097823557399
 10
142.22613318430135
 20
109.63097823557399
 10
141.6422305018673
 20
111.38268628287629
 10
142.16965823710896
 20
111.9101140181179
  0
LWPOLYLINE
  5
B6
330
17
100
AcDbEntity
  8
ENG_K
100
AcDbPolyline
 90
4
 70
1
 10
139.02653723500256
 20
99.89328643894912
 10
139.02653723500256
 20
101.53857686861123
 10
139.84918244983362
 20
100.71593165378002
 10
139.02653723500256
 20
99.89328643894912
  0
LWPOLYLINE
  5
B7
330
17
100
AcDbEntity
  8
ENG_K
100
AcDbPolyline
 90
4
 70
1
 10
132.28001549742876
 20
61.823628062639635
 10
132.28001549742876
 20
63.46891849230174
 10
133.10266071225985
 20
62.646273277470854
 10
132.28001549742876
 20
61.823628062639635
  0
LWPOLYLINE
  5
B8
330
17
100
AcDbEntity
  8
ENG_K
100
AcDbPolyline
 90
6
 70
1
 10
122.85481982812578
 20
116.37749997314772
 10
123.18085702229048
 20
119.31183472062989
 10
124.42856133537927
 20
118.06413040754116
 10
123.84686332546156
 20
117.48243239762346
 10
123.84686332546156
 20
116.37749997314772
 10
122.85481982812578
 20
116.37749997314772
  0
LWPOLYLINE
  5
B9
330
17
100
AcDbEntity
  8
ENG_K
100
AcDbPolyline
 90
4
 70
1
 10
123.1240217107215
 20
110.01306904530949
 10
123.1240217107215
 20
111.6583594749716
 10
123.94666692555259
 20
110.83571426014072
 10
123.1240217107215
 20
110.01306904530949
  0
LWPOLYLINE
  5
BA
330
17
100
AcDbEntity
  8
ENG_K
100
AcDbPolyline
 90
4
 70
1
 10
123.94666692555259
 20
113.24518630927416
 10
123.1240217107215
 20
112.42254109444328
 10
123.1240217107215
 20
114.06783152410537
 10
123.94666692555259
 20
113.24518630927416
  0
LWPOLYLINE
  5
BB
330
17
100
AcDbEntity
  8
ENG_K
100
AcDbPolyline
 90
5
 70
1
 10
122.88307450580814
 20
114.44992233384099
 10
122.88307450580814
 20
115.27256754867199
 10
123.47026670522816
 20
115.85975974809193
 10
123.94021250997848
 20
114.44992233384099
 10
122.88307450580814
 20
114.44992233384099
  0
LWPOLYLINE
  5
BC
330
17
100
AcDbEntity
  8
ENG_K
100
AcDbPolyline
 90
5
 70
1
 10
123.47026670522813
 20
110.07702683017173
 10
123.94021250997845
 20
108.66718941592057
 10
122.88307450580814
 20
108.66718941592057
 10
122.88307450580814
 20
109.48983463075157
 10
123.47026670522813
 20
110.07702683017173
  0
LWPOLYLINE
  5
BD
330
17
100
AcDbEntity
  8
ENG_K
100
AcDbPolyline
 90
5
 70
1
 10
123.47026670522816
 20
106.70376596138465
 10
123.94021250997848
 20
105.2939285471337
 10
122.88307450580814
 20
105.2939285471337
 10
122.88307450580814
 20
106.1165737619647
 10
123.47026670522816
 20
106.70376596138465
  0
LWPOLYLINE
  5
BE
330
17
100
AcDbEntity
  8
ENG_K
100
AcDbPolyline
 90
4
 70
1
 10
123.1240217107215
 20
102.30275848808257
 10
123.1240217107215
 20
103.94804891774467
 10
123.94666692555259
 20
103.12540370291346
 10
123.1240217107215
 20
102.30275848808257
  0
LWPOLYLINE
  5
BF
330
17
100
AcDbEntity
  8
CUT_SLOT
100
AcDbPolyline
 90
5
 70
1
 10
165.88028290802572
 20
0.0
 10
169.44438452316348
 20
0.0
 10
169.44438452316348
 20
144.56832294800958
 10
165.88028290802572
 20
144.56832294800958
 10
165.88028290802572
 20
0.0
  0
LWPOLYLINE
  5
C0
330
17
100
AcDbEntity
  8
CUT_SLOT
100
AcDbPolyline
 90
5
 70
1
 10
142.7862721404407
 20
0.0
 10
146.35037375557846
 20
0.0
 10
146.35037375557846
 20
144.56832294800958
 10
142.7862721404407
 20
144.56832294800958
 10
142.7862721404407
 20
0.0
  0
LWPOLYLINE
  5
C1
330
17
100
AcDbEntity
  8
CUT_SLOT
100
AcDbPolyline
 90
5
 70
1
 10
119.69226137285567
 20
0.0
 10
123.25636298799343
 20
0.0
 10
123.25636298799343
 20
144.56832294800958
 10
119.69226137285567
 20
144.56832294800958
 10
119.69226137285567
 20
0.0
  0
LWPOLYLINE
  5
C2
330
17
100
AcDbEntity
  8
CUT_SLOT
100
AcDbPolyline
 90
5
 70
1
 10
96.59825060527064
 20
0.0
 10
100.1623522204084
 20
0.0
 10
100.1623522204084
 20
144.56832294800958
 10
96.59825060527064
 20
144.56832294800958
 10
96.59825060527064
 20
0.0
  0
LWPOLYLINE
  5
C3
330
17
100
AcDbEntity
  8
CUT_SLOT
100
AcDbPolyline
 90
5
 70
1
 10
73.50423983768562
 20
0.0
 10
77.06834145282338
 20
0.0
 10
77.06834145282338
 20
144.56832294800958
 10
73.50423983768562
 20
144.56832294800958
 10
73.50423983768562
 20
0.0
  0
LWPOLYLINE
  5
C4
330
17
100
AcDbEntity
  8
CUT_SLOT
100
AcDbPolyline
 90
5
 70
1
 10
212.0683044431958
 20
0.0
 10
215.6324060583336
 20
0.0
 10
215.6324060583336
 20
144.56832294800958
 10
212.0683044431958
 20
144.56832294800958
 10
212.0683044431958
 20
0.0
  0
LWPOLYLINE
  5
C5
330
17
100
AcDbEntity
  8
CUT_SLOT
100
AcDbPolyline
 90
5
 70
1
 10
188.97429367561077
 20
0.0
 10
192.53839529074853
 20
0.0
 10
192.53839529074853
 20
144.56832294800958
 10
188.97429367561077
 20
144.56832294800958
 10
188.97429367561077
 20
0.0
  0
LWPOLYLINE
  5
C6
330
17
100
AcDbEntity
  8
CUT_SLOT
100
AcDbPolyline
 90
5
 70
1
 10
165.88028290802572
 20
0.0
 10
169.44438452316348
 20
0.0
 10
169.44438452316348
 20
144.56832294800958
 10
165.88028290802572
 20
144.56832294800958
 10
165.88028290802572
 20
0.0
  0
LWPOLYLINE
  5
C7
330
17
100
AcDbEntity
  8
CUT_SLOT
100
AcDbPolyline
 90
5
 70
1
 10
142.7862721404407
 20
0.0
 10
146.35037375557846
 20
0.0
 10
146.35037375557846
 20
144.56832294800958
 10
142.7862721404407
 20
144.56832294800958
 10
142.7862721404407
 20
0.0
  0
LWPOLYLINE
  5
C8
330
17
100
AcDbEntity
  8
CUT_SLOT
100
AcDbPolyline
 90
5
 70
1
 10
119.69226137285567
 20
0.0
 10
123.25636298799343
 20
0.0
 10
123.25636298799343
 20
144.56832294800958
 10
119.69226137285567
 20
144.56832294800958
 10
119.69226137285567
 20
0.0
  0
LWPOLYLINE
  5
C9
330
17
100
AcDbEntity
  8
CUT_OUTLINE
100
AcDbPolyline
 90
5
 70
1
 10
0.0
 20
0.0
 10
289.13664589601916
 20
0.0
 10
289.13664589601916
 20
289.13664589601916
 10
0.0
 20
289.13664589601916
 10
0.0
 20
0.0
  0
ENDSEC
  0
SECTION
  2
OBJECTS
  0
DICTIONARY
  5
A
330
0
100
AcDbDictionary
281
1
  3
ACAD_COLOR
350
B
  3
ACAD_GROUP
350
C
  3
ACAD_LAYOUT
350
D
  3
ACAD_MATERIAL
350
E
  3
ACAD_MLEADERSTYLE
350
F
  3
ACAD_MLINESTYLE
350
10
  3
ACAD_PLOTSETTINGS
350
11
  3
ACAD_PLOTSTYLENAME
350
12
  3
ACAD_SCALELIST
350
14
  3
ACAD_TABLESTYLE
350
15
  3
ACAD_VISUALSTYLE
350
16
  3
EZDXF_META
350
2D
  0
DICTIONARY
  5
B
330
A
100
AcDbDictionary
281
1
  0
DICTIONARY
  5
C
330
A
100
AcDbDictionary
281
1
  0
DICTIONARY
  5
D
330
A
100
AcDbDictionary
281
1
  3
Model
350
1A
  3
Layout1
350
1E
  0
DICTIONARY
  5
E
330
A
100
AcDbDictionary
281
1
  3
ByBlock
350
1F
  3
ByLayer
350
20
  3
Global
350
21
  0
DICTIONARY
  5
F
330
A
100
AcDbDictionary
281
1
  3
Standard
350
2C
  0
DICTIONARY
  5
10
330
A
100
AcDbDictionary
281
1
  3
Standard
350
22
  0
DICTIONARY
  5
11
330
A
100
AcDbDictionary
281
1
  0
ACDBDICTIONARYWDFLT
  5
12
330
A
100
AcDbDictionary
281
1
  3
Normal
350
13
100
AcDbDictionaryWithDefault
340
13
  0
ACDBPLACEHOLDER
  5
13
330
12
  0
DICTIONARY
  5
14
330
A
100
AcDbDictionary
281
1
  0
DICTIONARY
  5
15
330
A
100
AcDbDictionary
281
1
  0
DICTIONARY
  5
16
330
A
100
AcDbDictionary
281
1
  0
LAYOUT
  5
1A
330
D
100
AcDbPlotSettings
  1

  4
A3
  6

 40
7.5
 41
20.0
 42
7.5
 43
20.0
 44
420.0
 45
297.0
 46
0.0
 47
0.0
 48
0.0
 49
0.0
140
0.0
141
0.0
142
1.0
143
1.0
 70
1024
 72
1
 73
0
 74
5
  7

 75
16
 76
0
 77
2
 78
300
147
1.0
148
0.0
149
0.0
100
AcDbLayout
  1
Model
 70
1
 71
0
 10
0.0
 20
0.0
 11
420.0
 21
297.0
 12
0.0
 22
0.0
 32
0.0
 14
1e+20
 24
1e+20
 34
1e+20
 15
-1e+20
 25
-1e+20
 35
-1e+20
146
0.0
 13
0.0
 23
0.0
 33
0.0
 16
1.0
 26
0.0
 36
0.0
 17
0.0
 27
1.0
 37
0.0
 76
1
330
17
  0
LAYOUT
  5
1E
330
D
100
AcDbPlotSettings
  1

  4
A3
  6

 40
7.5
 41
20.0
 42
7.5
 43
20.0
 44
420.0
 45
297.0
 46
0.0
 47
0.0
 48
0.0
 49
0.0
140
0.0
141
0.0
142
1.0
143
1.0
 70
0
 72
1
 73
0
 74
5
  7

 75
16
 76
0
 77
2
 78
300
147
1.0
148
0.0
149
0.0
100
AcDbLayout
  1
Layout1
 70
1
 71
1
 10
0.0
 20
0.0
 11
420.0
 21
297.0
 12
0.0
 22
0.0
 32
0.0
 14
1e+20
 24
1e+20
 34
1e+20
 15
-1e+20
 25
-1e+20
 35
-1e+20
146
0.0
 13
0.0
 23
0.0
 33
0.0
 16
1.0
 26
0.0
 36
0.0
 17
0.0
 27
1.0
 37
0.0
 76
1
330
1B
  0
MATERIAL
  5
1F
102
{ACAD_REACTORS
330
E
102
}
330
E
100
AcDbMaterial
  1
ByBlock
  2

 70
0
 40
1.0
 71
1
 41
1.0
 91
-1023410177
 42
1.0
 72
1
  3

 73
1
 74
1
 75
1
 44
0.5
 73
0
 45
1.0
 46
1.0
 77
1
  4

 78
1
 79
1
170
1
 48
1.0
171
1
  6

172
1
173
1
174
1
140
1.0
141
1.0
175
1
  7

176
1
177
1
178
1
143
1.0
179
1
  8

270
1
271
1
272
1
145
1.0
146
1.0
273
1
  9

274
1
275
1
276
1
 42
1.0
 72
1
  3

 73
1
 74
1
 75
1
 94
63
  0
MATERIAL
  5
20
102
{ACAD_REACTORS
330
E
102
}
330
E
100
AcDbMaterial
  1
ByLayer
  2

 70
0
 40
1.0
 71
1
 41
1.0
 91
-1023410177
 42
1.0
 72
1
  3

 73
1
 74
1
 75
1
 44
0.5
 73
0
 45
1.0
 46
1.0
 77
1
  4

 78
1
 79
1
170
1
 48
1.0
171
1
  6

172
1
173
1
174
1
140
1.0
141
1.0
175
1
  7

176
1
177
1
178
1
143
1.0
179
1
  8

270
1
271
1
272
1
145
1.0
146
1.0
273
1
  9

274
1
275
1
276
1
 42
1.0
 72
1
  3

 73
1
 74
1
 75
1
 94
63
  0
MATERIAL
  5
21
102
{ACAD_REACTORS
330
E
102
}
330
E
100
AcDbMaterial
  1
Global
  2

 70
0
 40
1.0
 71
1
 41
1.0
 91
-1023410177
 42
1.0
 72
1
  3

 73
1
 74
1
 75
1
 44
0.5
 73
0
 45
1.0
 46
1.0
 77
1
  4

 78
1
 79
1
170
1
 48
1.0
171
1
  6

172
1
173
1
174
1
140
1.0
141
1.0
175
1
  7

176
1
177
1
178
1
143
1.0
179
1
  8

270
1
271
1
272
1
145
1.0
146
1.0
273
1
  9

274
1
275
1
276
1
 42
1.0
 72
1
  3

 73
1
 74
1
 75
1
 94
63
  0
MLINESTYLE
  5
22
102
{ACAD_REACTORS
330
10
102
}
330
10
100
AcDbMlineStyle
  2
Standard
 70
0
  3

 62
256
 51
90.0
 52
90.0
 71
2
 49
0.5
 62
256
  6
BYLAYER
 49
-0.5
 62
256
  6
BYLAYER
  0
MLEADERSTYLE
  5
2C
102
{ACAD_REACTORS
330
F
102
}
330
F
100
AcDbMLeaderStyle
179
2
170
2
171
1
172
0
 90
2
 40
0.0
 41
0.0
173
1
 91
-1056964608
 92
-2
290
1
 42
2.0
291
1
 43
8.0
  3
Standard
 44
4.0
300

342
29
174
1
175
1
176
0
178
1
 93
-1056964608
 45
4.0
292
0
297
0
 46
4.0
 94
-1056964608
 47
1.0
 49
1.0
140
1.0
294
1
141
0.0
177
0
142
1.0
295
0
296
0
143
3.75
271
0
272
9
273
9
  0
DICTIONARY
  5
2D
330
A
100
AcDbDictionary
280
1
281
1
  3
CREATED_BY_EZDXF
350
2E
  3
WRITTEN_BY_EZDXF
350
CC
  0
DICTIONARYVAR
  5
2E
330
2D
100
DictionaryVariables
280
0
  1
1.4.4 @ 2026-08-03T11:55:53.685187+00:00
  0
DICTIONARYVAR
  5
CC
330
2D
100
DictionaryVariables
280
0
  1
1.4.4 @ 2026-08-03T11:55:53.704941+00:00
  0
ENDSEC
  0
EOF
