  0
SECTION
  2
HEADER
  9
$ACADVER
  1
AC1027
  9
$ACADMAINTVER
 70
105
  9
$DWGCODEPAGE
  3
ANSI_1252
  9
$LASTSAVEDBY
  1
ezdxf
  9
$REQUIREDVERSIONS
160
0
  9
$INSBASE
 10
0.0
 20
0.0
 30
0.0
  9
$EXTMIN
 10
1e+20
 20
1e+20
 30
1e+20
  9
$EXTMAX
 10
-1e+20
 20
-1e+20
 30
-1e+20
  9
$LIMMIN
 10
0.0
 20
0.0
  9
$LIMMAX
 10
420.0
 20
297.0
  9
$ORTHOMODE
 70
0
  9
$REGENMODE
 70
1
  9
$FILLMODE
 70
1
  9
$QTEXTMODE
 70
0
  9
$MIRRTEXT
 70
1
  9
$LTSCALE
 40
1.0
  9
$ATTMODE
 70
1
  9
$TEXTSIZE
 40
2.5
  9
$TRACEWID
 40
1.0
  9
$TEXTSTYLE
  7
Standard
  9
$CLAYER
  8
0
  9
$CELTYPE
  6
ByLayer
  9
$CECOLOR
 62
256
  9
$CELTSCALE
 40
1.0
  9
$DISPSILH
 70
0
  9
$DIMSCALE
 40
1.0
  9
$DIMASZ
 40
2.5
  9
$DIMEXO
 40
0.625
  9
$DIMDLI
 40
3.75
  9
$DIMRND
 40
0.0
  9
$DIMDLE
 40
0.0
  9
$DIMEXE
 40
1.25
  9
$DIMTP
 40
0.0
  9
$DIMTM
 40
0.0
  9
$DIMTXT
 40
2.5
  9
$DIMCEN
 40
2.5
  9
$DIMTSZ
 40
0.0
  9
$DIMTOL
 70
0
  9
$DIMLIM
 70
0
  9
$DIMTIH
 70
0
  9
$DIMTOH
 70
0
  9
$DIMSE1
 70
0
  9
$DIMSE2
 70
0
  9
$DIMTAD
 70
1
  9
$DIMZIN
 70
8
  9
$DIMBLK
  1

  9
$DIMASO
 70
1
  9
$DIMSHO
 70
1
  9
$DIMPOST
  1

  9
$DIMAPOST
  1

  9
$DIMALT
 70
0
  9
$DIMALTD
 70
3
  9
$DIMALTF
 40
0.03937007874
  9
$DIMLFAC
 40
1.0
  9
$DIMTOFL
 70
1
  9
$DIMTVP
 40
0.0
  9
$DIMTIX
 70
0
  9
$DIMSOXD
 70
0
  9
$DIMSAH
 70
0
  9
$DIMBLK1
  1

  9
$DIMBLK2
  1

  9
$DIMSTYLE
  2
ISO-25
  9
$DIMCLRD
 70
0
  9
$DIMCLRE
 70
0
  9
$DIMCLRT
 70
0
  9
$DIMTFAC
 40
1.0
  9
$DIMGAP
 40
0.625
  9
$DIMJUST
 70
0
  9
$DIMSD1
 70
0
  9
$DIMSD2
 70
0
  9
$DIMTOLJ
 70
0
  9
$DIMTZIN
 70
8
  9
$DIMALTZ
 70
0
  9
$DIMALTTZ
 70
0
  9
$DIMUPT
 70
0
  9
$DIMDEC
 70
2
  9
$DIMTDEC
 70
2
  9
$DIMALTU
 70
2
  9
$DIMALTTD
 70
3
  9
$DIMTXSTY
  7
Standard
  9
$DIMAUNIT
 70
0
  9
$DIMADEC
 70
0
  9
$DIMALTRND
 40
0.0
  9
$DIMAZIN
 70
0
  9
$DIMDSEP
 70
44
  9
$DIMATFIT
 70
3
  9
$DIMFRAC
 70
0
  9
$DIMLDRBLK
  1

  9
$DIMLUNIT
 70
2
  9
$DIMLWD
 70
-2
  9
$DIMLWE
 70
-2
  9
$DIMTMOVE
 70
0
  9
$DIMFXL
 40
1.0
  9
$DIMFXLON
 70
0
  9
$DIMJOGANG
 40
0.785398163397
  9
$DIMTFILL
 70
0
  9
$DIMTFILLCLR
 70
0
  9
$DIMARCSYM
 70
0
  9
$DIMLTYPE
  6

  9
$DIMLTEX1
  6

  9
$DIMLTEX2
  6

  9
$DIMTXTDIRECTION
 70
0
  9
$LUNITS
 70
2
  9
$LUPREC
 70
4
  9
$SKETCHINC
 40
1.0
  9
$FILLETRAD
 40
10.0
  9
$AUNITS
 70
0
  9
$AUPREC
 70
2
  9
$MENU
  1
.
  9
$ELEVATION
 40
0.0
  9
$PELEVATION
 40
0.0
  9
$THICKNESS
 40
0.0
  9
$LIMCHECK
 70
0
  9
$CHAMFERA
 40
0.0
  9
$CHAMFERB
 40
0.0
  9
$CHAMFERC
 40
0.0
  9
$CHAMFERD
 40
0.0
  9
$SKPOLY
 70
0
  9
$TDCREATE
 40
2461256.62212963
  9
$TDUCREATE
 40
2458532.153996898
  9
$TDUPDATE
 40
2461256.62212963
  9
$TDUUPDATE
 40
2458532.1544311
  9
$TDINDWG
 40
0.0
  9
$TDUSRTIMER
 40
0.0
  9
$USRTIMER
 70
1
  9
$ANGBASE
 50
0.0
  9
$ANGDIR
 70
0
  9
$PDMODE
 70
0
  9
$PDSIZE
 40
0.0
  9
$PLINEWID
 40
0.0
  9
$SPLFRAME
 70
0
  9
$SPLINETYPE
 70
6
  9
$SPLINESEGS
 70
8
  9
$HANDSEED
  5
DF
  9
$SURFTAB1
 70
6
  9
$SURFTAB2
 70
6
  9
$SURFTYPE
 70
6
  9
$SURFU
 70
6
  9
$SURFV
 70
6
  9
$UCSBASE
  2

  9
$UCSNAME
  2

  9
$UCSORG
 10
0.0
 20
0.0
 30
0.0
  9
$UCSXDIR
 10
1.0
 20
0.0
 30
0.0
  9
$UCSYDIR
 10
0.0
 20
1.0
 30
0.0
  9
$UCSORTHOREF
  2

  9
$UCSORTHOVIEW
 70
0
  9
$UCSORGTOP
 10
0.0
 20
0.0
 30
0.0
  9
$UCSORGBOTTOM
 10
0.0
 20
0.0
 30
0.0
  9
$UCSORGLEFT
 10
0.0
 20
0.0
 30
0.0
  9
$UCSORGRIGHT
 10
0.0
 20
0.0
 30
0.0
  9
$UCSORGFRONT
 10
0.0
 20
0.0
 30
0.0
  9
$UCSORGBACK
 10
0.0
 20
0.0
 30
0.0
  9
$PUCSBASE
  2

  9
$PUCSNAME
  2

  9
$PUCSORG
 10
0.0
 20
0.0
 30
0.0
  9
$PUCSXDIR
 10
1.0
 20
0.0
 30
0.0
  9
$PUCSYDIR
 10
0.0
 20
1.0
 30
0.0
  9
$PUCSORTHOREF
  2

  9
$PUCSORTHOVIEW
 70
0
  9
$PUCSORGTOP
 10
0.0
 20
0.0
 30
0.0
  9
$PUCSORGBOTTOM
 10
0.0
 20
0.0
 30
0.0
  9
$PUCSORGLEFT
 10
0.0
 20
0.0
 30
0.0
  9
$PUCSORGRIGHT
 10
0.0
 20
0.0
 30
0.0
  9
$PUCSORGFRONT
 10
0.0
 20
0.0
 30
0.0
  9
$PUCSORGBACK
 10
0.0
 20
0.0
 30
0.0
  9
$USERI1
 70
0
  9
$USERI2
 70
0
  9
$USERI3
 70
0
  9
$USERI4
 70
0
  9
$USERI5
 70
0
  9
$USERR1
 40
0.0
  9
$USERR2
 40
0.0
  9
$USERR3
 40
0.0
  9
$USERR4
 40
0.0
  9
$USERR5
 40
0.0
  9
$WORLDVIEW
 70
1
  9
$SHADEDGE
 70
3
  9
$SHADEDIF
 70
70
  9
$TILEMODE
 70
1
  9
$MAXACTVP
 70
64
  9
$PINSBASE
 10
0.0
 20
0.0
 30
0.0
  9
$PLIMCHECK
 70
0
  9
$PEXTMIN
 10
1e+20
 20
1e+20
 30
1e+20
  9
$PEXTMAX
 10
-1e+20
 20
-1e+20
 30
-1e+20
  9
$PLIMMIN
 10
0.0
 20
0.0
  9
$PLIMMAX
 10
420.0
 20
297.0
  9
$UNITMODE
 70
0
  9
$VISRETAIN
 70
1
  9
$PLINEGEN
 70
0
  9
$PSLTSCALE
 70
1
  9
$TREEDEPTH
 70
3020
  9
$CMLSTYLE
  2
Standard
  9
$CMLJUST
 70
0
  9
$CMLSCALE
 40
20.0
  9
$PROXYGRAPHICS
 70
1
  9
$MEASUREMENT
 70
1
  9
$CELWEIGHT
370
-1
  9
$ENDCAPS
280
0
  9
$JOINSTYLE
280
0
  9
$LWDISPLAY
290
0
  9
$INSUNITS
 70
4
  9
$HYPERLINKBASE
  1

  9
$STYLESHEET
  1

  9
$XEDIT
290
1
  9
$CEPSNTYPE
380
0
  9
$PSTYLEMODE
290
1
  9
$FINGERPRINTGUID
  2
{25BD7290-F637-431C-9806-D4258AF8A8DA}
  9
$VERSIONGUID
  2
{429F463E-9F23-4B05-BA8E-3B1025AC36A0}
  9
$EXTNAMES
290
1
  9
$PSVPSCALE
 40
0.0
  9
$OLESTARTUP
290
0
  9
$SORTENTS
280
127
  9
$INDEXCTL
280
0
  9
$HIDETEXT
280
1
  9
$XCLIPFRAME
280
1
  9
$HALOGAP
280
0
  9
$OBSCOLOR
 70
257
  9
$OBSLTYPE
280
0
  9
$INTERSECTIONDISPLAY
280
0
  9
$INTERSECTIONCOLOR
 70
257
  9
$DIMASSOC
280
2
  9
$PROJECTNAME
  1

  9
$CAMERADISPLAY
290
0
  9
$LENSLENGTH
 40
50.0
  9
$CAMERAHEIGHT
 40
0.0
  9
$STEPSPERSEC
 40
24.0
  9
$STEPSIZE
 40
100.0
  9
$3DDWFPREC
 40
2.0
  9
$PSOLWIDTH
 40
0.005
  9
$PSOLHEIGHT
 40
0.08
  9
$LOFTANG1
 40
1.570796326795
  9
$LOFTANG2
 40
1.570796326795
  9
$LOFTMAG1
 40
0.0
  9
$LOFTMAG2
 40
0.0
  9
$LOFTPARAM
 70
7
  9
$LOFTNORMALS
280
1
  9
$LATITUDE
 40
37.795
  9
$LONGITUDE
 40
-122.394
  9
$NORTHDIRECTION
 40
0.0
  9
$TIMEZONE
 70
-8000
  9
$LIGHTGLYPHDISPLAY
280
1
  9
$TILEMODELIGHTSYNCH
280
1
  9
$CMATERIAL
347
20
  9
$SOLIDHIST
280
0
  9
$SHOWHIST
280
1
  9
$DWFFRAME
280
2
  9
$DGNFRAME
280
2
  9
$REALWORLDSCALE
290
1
  9
$INTERFERECOLOR
 62
256
  9
$CSHADOW
280
0
  9
$SHADOWPLANELOCATION
 40
0.0
  0
ENDSEC
  0
SECTION
  2
CLASSES
  0
CLASS
  1
ACDBDICTIONARYWDFLT
  2
AcDbDictionaryWithDefault
  3
ObjectDBX Classes
 90
0
 91
0
280
0
281
0
  0
CLASS
  1
SUN
  2
AcDbSun
  3
SCENEOE
 90
1153
 91
0
280
0
281
0
  0
CLASS
  1
VISUALSTYLE
  2
AcDbVisualStyle
  3
ObjectDBX Classes
 90
4095
 91
0
280
0
281
0
  0
CLASS
  1
MATERIAL
  2
AcDbMaterial
  3
ObjectDBX Classes
 90
1153
 91
0
280
0
281
0
  0
CLASS
  1
SCALE
  2
AcDbScale
  3
ObjectDBX Classes
 90
1153
 91
0
280
0
281
0
  0
CLASS
  1
TABLESTYLE
  2
AcDbTableStyle
  3
ObjectDBX Classes
 90
4095
 91
0
280
0
281
0
  0
CLASS
  1
MLEADERSTYLE
  2
AcDbMLeaderStyle
  3
ACDB_MLEADERSTYLE_CLASS
 90
4095
 91
0
280
0
281
0
  0
CLASS
  1
DICTIONARYVAR
  2
AcDbDictionaryVar
  3
ObjectDBX Classes
 90
0
 91
0
280
0
281
0
  0
CLASS
  1
CELLSTYLEMAP
  2
AcDbCellStyleMap
  3
ObjectDBX Classes
 90
1152
 91
0
280
0
281
0
  0
CLASS
  1
MENTALRAYRENDERSETTINGS
  2
AcDbMentalRayRenderSettings
  3
SCENEOE
 90
1024
 91
0
280
0
281
0
  0
CLASS
  1
ACDBDETAILVIEWSTYLE
  2
AcDbDetailViewStyle
  3
ObjectDBX Classes
 90
1025
 91
0
280
0
281
0
  0
CLASS
  1
ACDBSECTIONVIEWSTYLE
  2
AcDbSectionViewStyle
  3
ObjectDBX Classes
 90
1025
 91
0
280
0
281
0
  0
CLASS
  1
RASTERVARIABLES
  2
AcDbRasterVariables
  3
ISM
 90
0
 91
0
280
0
281
0
  0
CLASS
  1
ACDBPLACEHOLDER
  2
AcDbPlaceHolder
  3
ObjectDBX Classes
 90
0
 91
0
280
0
281
0
  0
CLASS
  1
LAYOUT
  2
AcDbLayout
  3
ObjectDBX Classes
 90
0
 91
0
280
0
281
0
  0
ENDSEC
  0
SECTION
  2
TABLES
  0
TABLE
  2
VPORT
  5
8
330
0
100
AcDbSymbolTable
 70
1
  0
VPORT
  5
23
330
8
100
AcDbSymbolTableRecord
100
AcDbViewportTableRecord
  2
*Active
 70
0
 10
0.0
 20
0.0
 11
1.0
 21
1.0
 12
0.0
 22
0.0
 13
0.0
 23
0.0
 14
0.5
 24
0.5
 15
0.5
 25
0.5
 16
0.0
 26
0.0
 36
1.0
 17
0.0
 27
0.0
 37
0.0
 40
1000.0
 41
1.34
 42
50.0
 43
0.0
 44
0.0
 50
0.0
 51
0.0
 71
0
 72
1000
 73
1
 74
3
 75
0
 76
0
 77
0
 78
0
281
0
 65
0
146
0.0
  0
ENDTAB
  0
TABLE
  2
LTYPE
  5
2
330
0
100
AcDbSymbolTable
 70
3
  0
LTYPE
  5
24
330
2
100
AcDbSymbolTableRecord
100
AcDbLinetypeTableRecord
  2
ByBlock
 70
0
  3

 72
65
 73
0
 40
0.0
  0
LTYPE
  5
25
330
2
100
AcDbSymbolTableRecord
100
AcDbLinetypeTableRecord
  2
ByLayer
 70
0
  3

 72
65
 73
0
 40
0.0
  0
LTYPE
  5
26
330
2
100
AcDbSymbolTableRecord
100
AcDbLinetypeTableRecord
  2
Continuous
 70
0
  3

 72
65
 73
0
 40
0.0
  0
ENDTAB
  0
TABLE
  2
LAYER
  5
1
330
0
100
AcDbSymbolTable
 70
7
  0
LAYER
  5
27
330
1
100
AcDbSymbolTableRecord
100
AcDbLayerTableRecord
  2
0
 70
0
 62
7
  6
Continuous
370
-3
390
13
347
21
  0
LAYER
  5
28
330
1
100
AcDbSymbolTableRecord
100
AcDbLayerTableRecord
  2
Defpoints
 70
0
 62
7
  6
Continuous
290
0
370
-3
390
13
347
21
  0
LAYER
  5
2F
330
1
100
AcDbSymbolTableRecord
100
AcDbLayerTableRecord
  2
ENG_L
 70
0
 62
4
  6
Continuous
370
-3
390
13
347
21
  0
LAYER
  5
30
330
1
100
AcDbSymbolTableRecord
100
AcDbLayerTableRecord
  2
ENG_D
 70
0
 62
3
  6
Continuous
370
-3
390
13
347
21
  0
LAYER
  5
31
330
1
100
AcDbSymbolTableRecord
100
AcDbLayerTableRecord
  2
ENG_K
 70
0
 62
2
  6
Continuous
370
-3
390
13
347
21
  0
LAYER
  5
32
330
1
100
AcDbSymbolTableRecord
100
AcDbLayerTableRecord
  2
CUT_OUTLINE
 70
0
 62
5
  6
Continuous
370
-3
390
13
347
21
  0
LAYER
  5
33
330
1
100
AcDbSymbolTableRecord
100
AcDbLayerTableRecord
  2
CUT_SLOT
 70
0
 62
1
  6
Continuous
370
-3
390
13
347
21
  0
ENDTAB
  0
TABLE
  2
STYLE
  5
5
330
0
100
AcDbSymbolTable
 70
1
  0
STYLE
  5
29
330
5
100
AcDbSymbolTableRecord
100
AcDbTextStyleTableRecord
  2
Standard
 70
0
 40
0.0
 41
1.0
 50
0.0
 71
0
 42
2.5
  3
txt
  4

  0
ENDTAB
  0
TABLE
  2
VIEW
  5
7
330
0
100
AcDbSymbolTable
 70
0
  0
ENDTAB
  0
TABLE
  2
UCS
  5
6
330
0
100
AcDbSymbolTable
 70
0
  0
ENDTAB
  0
TABLE
  2
APPID
  5
3
330
0
100
AcDbSymbolTable
 70
3
  0
APPID
  5
2A
330
3
100
AcDbSymbolTableRecord
100
AcDbRegAppTableRecord
  2
ACAD
 70
0
  0
APPID
  5
DC
330
3
100
AcDbSymbolTableRecord
100
AcDbRegAppTableRecord
  2
HATCHBACKGROUNDCOLOR
 70
0
  0
APPID
  5
DD
330
3
100
AcDbSymbolTableRecord
100
AcDbRegAppTableRecord
  2
EZDXF
 70
0
  0
ENDTAB
  0
TABLE
  2
DIMSTYLE
  5
4
330
0
100
AcDbSymbolTable
 70
1
100
AcDbDimStyleTable
  0
DIMSTYLE
105
2B
330
4
100
AcDbSymbolTableRecord
100
AcDbDimStyleTableRecord
  2
Standard
 70
0
 40
1.0
 41
2.5
 42
0.625
 43
3.75
 44
1.25
 45
0.0
 46
0.0
 47
0.0
 48
0.0
 49
2.5
140
2.5
141
2.5
142
0.0
143
0.03937007874
144
1.0
145
0.0
146
1.0
147
0.625
148
0.0
 69
0
 70
0
 71
0
 72
0
 73
0
 74
0
 75
0
 76
0
 77
1
 78
8
 79
3
170
0
171
3
172
1
173
0
174
0
175
0
176
0
177
0
178
0
179
2
271
2
272
2
273
2
274
3
275
0
276
0
277
2
278
44
279
0
280
0
281
0
282
0
283
0
284
8
285
0
286
0
288
0
289
3
290
0
371
-2
372
-2
  0
ENDTAB
  0
TABLE
  2
BLOCK_RECORD
  5
9
330
0
100
AcDbSymbolTable
 70
2
  0
BLOCK_RECORD
  5
17
330
9
100
AcDbSymbolTableRecord
100
AcDbBlockTableRecord
  2
*Model_Space
340
1A
 70
0
280
1
281
0
  0
BLOCK_RECORD
  5
1B
330
9
100
AcDbSymbolTableRecord
100
AcDbBlockTableRecord
  2
*Paper_Space
340
1E
 70
0
280
1
281
0
  0
ENDTAB
  0
ENDSEC
  0
SECTION
  2
BLOCKS
  0
BLOCK
  5
18
330
17
100
AcDbEntity
  8
0
100
AcDbBlockBegin
  2
*Model_Space
 70
0
 10
0.0
 20
0.0
 30
0.0
  3
*Model_Space
  1

  0
ENDBLK
  5
19
330
17
100
AcDbEntity
  8
0
100
AcDbBlockEnd
  0
BLOCK
  5
1C
330
1B
100
AcDbEntity
  8
0
100
AcDbBlockBegin
  2
*Paper_Space
 70
0
 10
0.0
 20
0.0
 30
0.0
  3
*Paper_Space
  1

  0
ENDBLK
  5
1D
330
1B
100
AcDbEntity
  8
0
100
AcDbBlockEnd
  0
ENDSEC
  0
SECTION
  2
ENTITIES
  0
LWPOLYLINE
  5
34
330
17
100
AcDbEntity
  8
ENG_L
100
AcDbPolyline
 90
18
 70
1
 10
196.61291920929304
 20
104.18899612265787
 10
197.19461721921076
 20
103.60729811274017
 10
196.61291920929304
 20
103.02560010282247
 10
196.61291920929304
 20
102.29056591398289
 10
198.14246938572296
 20
101.27086579636291
 10
197.17141419898434
 20
99.65244048513189
 10
195.57617744601214
 20
100.71593165378012
 10
193.60737289907186
 20
100.71593165378012
 10
191.24699698081747
 20
103.60083555386868
 10
192.78249316247962
 20
105.64816379608499
 10
193.2802090240995
 20
107.14131138094463
 10
194.72269187798304
 20
108.00680109327465
 10
195.16723597981294
 20
107.56225699144484
 10
195.5493267895486
 20
107.94434780118046
 10
197.67651162903752
 20
107.94434780118046
 10
198.66636953576995
 20
106.954489894448
 10
196.61291920929304
 20
105.4144021495903
 10
196.61291920929304
 20
104.18899612265787
  0
LWPOLYLINE
  5
35
330
17
100
AcDbEntity
  8
ENG_L
100
AcDbPolyline
 90
4
 70
1
 10
197.3357608240331
 20
109.7307818356651
 10
198.15840603886417
 20
108.90813662083387
 10
197.3357608240331
 20
108.08549140600299
 10
197.3357608240331
 20
109.7307818356651
  0
LWPOLYLINE
  5
36
330
17
100
AcDbEntity
  8
ENG_L
100
AcDbPolyline
 90
4
 70
1
 10
198.15840603886417
 20
104.08919252256688
 10
197.3357608240331
 20
103.26654730773599
 10
197.3357608240331
 20
104.91183773739809
 10
198.15840603886417
 20
104.08919252256688
  0
LWPOLYLINE
  5
37
330
17
100
AcDbEntity
  8
ENG_L
100
AcDbPolyline
 90
4
 70
1
 10
190.58923908645932
 20
103.26654730773599
 10
190.58923908645932
 20
104.91183773739809
 10
191.4118843012904
 20
104.08919252256688
 10
190.58923908645932
 20
103.26654730773599
  0
LWPOLYLINE
  5
38
330
17
100
AcDbEntity
  8
ENG_L
100
AcDbPolyline
 90
5
 70
1
 10
190.42748513578312
 20
104.10980286842087
 10
191.07796384056277
 20
103.45932416364101
 10
189.30530980765542
 20
103.10479335705969
 10
188.65483110287573
 20
103.75527206183921
 10
190.42748513578312
 20
104.10980286842087
  0
LWPOLYLINE
  5
39
330
17
100
AcDbEntity
  8
ENG_L
100
AcDbPolyline
 90
5
 70
1
 10
186.97503101275905
 20
104.18899612265787
 10
187.56222321217905
 20
104.77618832207803
 10
188.0321690169294
 20
103.36635090782687
 10
186.97503101275905
 20
103.36635090782687
 10
186.97503101275905
 20
104.18899612265787
  0
LWPOLYLINE
  5
3A
330
17
100
AcDbEntity
  8
ENG_L
100
AcDbPolyline
 90
24
 70
1
 10
182.22518953197945
 20
113.69637973649715
 10
181.29210169492976
 20
112.76329189944757
 10
179.80349478470686
 20
112.76329189944757
 10
177.8084889100318
 20
111.76578896210998
 10
176.3733539965717
 20
112.626869910186
 10
176.3733539965717
 20
114.79067313884528
 10
177.33714281622508
 20
115.7544619584987
 10
177.33714281622508
 20
116.85939438297443
 10
174.14794923300352
 20
116.85939438297443
 10
175.92553147409618
 20
117.74818550352084
 10
176.4059026957043
 20
119.66967038995335
 10
178.82468704140146
 20
121.01343947089616
 10
179.36452405562298
 20
120.4736024566746
 10
181.29210169492976
 20
120.4736024566746
 10
181.77399610475643
 20
119.99170804684789
 10
183.70157374406327
 20
119.99170804684789
 10
184.58616930947943
 20
119.1071124814318
 10
184.2580658874373
 20
117.46659537122117
 10
183.07576396272023
 20
118.0577463335798
 10
181.1922980948387
 20
117.84847234825958
 10
181.1922980948387
 20
116.2363563683253
 10
181.7739961047564
 20
115.65465835840772
 10
181.26140071232604
 20
115.14206296597729
 10
182.22518953197945
 20
113.69637973649715
  0
LWPOLYLINE
  5
3B
330
17
100
AcDbEntity
  8
ENG_L
100
AcDbPolyline
 90
4
 70
1
 10
179.57735929090333
 20
116.06710079387005
 10
179.32855003596956
 20
115.9841643755588
 10
179.37001824512518
 20
115.85975974809193
 10
179.57735929090333
 20
116.06710079387005
  0
LWPOLYLINE
  5
3C
330
17
100
AcDbEntity
  8
ENG_L
100
AcDbPolyline
 90
71
 70
1
 10
130.93885748360063
 20
251.06698751971
 10
131.49472059059457
 20
251.99342603136654
 10
130.9566003121463
 20
252.5315463098148
 10
136.2706540676354
 20
256.83339934997275
 10
138.8647832843264
 20
257.3522251933109
 10
139.26748443991588
 20
256.9495240377215
 10
140.6581420302041
 20
258.34018162800953
 10
142.68209855147614
 20
257.47277169032157
 10
143.50473052826524
 20
258.2954036671106
 10
144.85268789889923
 20
258.2954036671106
 10
145.06920363910106
 20
259.3779823681195
 10
146.9127173842342
 20
261.2214961132526
 10
147.8911221027275
 20
260.89536120708857
 10
148.093972209472
 20
260.286810886855
 10
148.38644259015064
 20
260.38430101374786
 10
148.12956988572077
 20
261.66866453589745
 10
149.98963505855986
 20
261.66866453589745
 10
151.43531828803998
 20
259.7410868965906
 10
152.66072431497247
 20
259.7410868965906
 10
153.24242232489016
 20
260.3227849065084
 10
154.20621114454357
 20
259.35899608685475
 10
154.20621114454357
 20
258.39520726720156
 10
154.7403333941833
 20
257.8610850175618
 10
154.22916272481095
 20
256.83874367881685
 10
155.12917465727998
 20
254.58871384764436
 10
157.5303676014424
 20
252.66775949231436
 10
158.08056247675432
 20
251.56736974169047
 10
157.68476980292374
 20
250.37999172019875
 10
157.09757760350377
 20
250.96718391961903
 10
157.06722597777704
 20
250.9368322938923
 10
156.66031672051759
 20
249.71610452211414
 10
155.98487522171965
 20
251.06698751971
 10
155.74242670003687
 20
251.06698751971
 10
151.91161956926797
 20
247.71503128028715
 10
149.79525096731078
 20
247.1859391297977
 10
149.4133361333556
 20
247.56785396375312
 10
148.06205741925308
 20
245.7661490116163
 10
146.3560734944464
 20
245.7661490116163
 10
144.45712424578076
 20
249.08931019678127
 10
144.035966824114
 20
248.94892438955884
 10
143.75692252103175
 20
248.11179148031215
 10
142.7108163087867
 20
248.46049355106058
 10
142.130410939202
 20
249.62130429023
 10
143.02383478759972
 20
251.40815198702526
 10
142.72930412094067
 20
251.50632887591163
 10
141.31553568167928
 20
249.62130429022977
 10
138.88539363018015
 20
249.62130429022977
 10
138.25409798836623
 20
248.9900086484158
 10
136.8084147588861
 20
246.58053659928237
 10
134.42955406038416
 20
244.20167590078057
 10
134.1595911656905
 20
242.8518614273121
 10
131.51031195206218
 20
243.14622578438215
 10
132.05805457378017
 20
245.88493889297203
 10
132.4211591022511
 20
246.2480434214429
 10
131.49209626977975
 20
247.1771062539143
 10
130.9848578223025
 20
247.00802677142187
 10
129.7535919868508
 20
245.28425460178948
 10
128.90675462864186
 20
245.28425460178948
 10
128.90675462864186
 20
245.90729261643872
 10
128.7656110238195
 20
245.7661490116163
 10
126.63842618433077
 20
245.7661490116163
 10
125.67463736467738
 20
246.72993783126972
 10
123.42184883498271
 20
246.72993783126972
 10
122.22677876234303
 20
246.13240279494963
 10
121.89867534030093
 20
247.77291990516036
 10
125.22746894203269
 20
251.10171350689203
 10
126.17614056909918
 20
250.78548963120318
 10
126.87465177368313
 20
249.62130429023
 10
128.10359727893078
 20
249.62130429023
 10
130.03117491823758
 20
251.06698751971
 10
130.93885748360063
 20
251.06698751971
  0
LWPOLYLINE
  5
3D
330
17
100
AcDbEntity
  8
ENG_L
100
AcDbPolyline
 90
6
 70
1
 10
134.93043475147562
 20
247.79353025101415
 10
135.47740677421118
 20
247.24655822827856
 10
135.8741868053737
 20
247.37881823866604
 10
135.69621529756247
 20
248.98056180896734
 10
134.93043475147562
 20
248.52109348131535
 10
134.93043475147562
 20
247.79353025101415
  0
LWPOLYLINE
  5
3E
330
17
100
AcDbEntity
  8
ENG_L
100
AcDbPolyline
 90
4
 70
1
 10
146.59570418740745
 20
260.70487571624403
 10
145.77305897257634
 20
259.8822305014128
 10
145.77305897257634
 20
261.52752093107455
 10
146.59570418740745
 20
260.70487571624403
  0
LWPOLYLINE
  5
3F
330
17
100
AcDbEntity
  8
ENG_L
100
AcDbPolyline
 90
4
 70
1
 10
142.39979810378944
 20
258.636154472115
 10
143.22244331862052
 20
257.8135092572837
 10
142.39979810378944
 20
256.99086404245253
 10
142.39979810378944
 20
258.636154472115
  0
LWPOLYLINE
  5
40
330
17
100
AcDbEntity
  8
ENG_L
100
AcDbPolyline
 90
4
 70
1
 10
140.95411487430934
 20
257.4727584522793
 10
140.95411487430934
 20
259.11804888194115
 10
141.77676008914045
 20
258.2954036671106
 10
140.95411487430934
 20
257.4727584522793
  0
LWPOLYLINE
  5
41
330
17
100
AcDbEntity
  8
ENG_L
100
AcDbPolyline
 90
4
 70
1
 10
139.84918244983365
 20
257.33161484745716
 10
139.02653723500256
 20
256.5089696326259
 10
139.02653723500256
 20
258.1542600622877
 10
139.84918244983365
 20
257.33161484745716
  0
LWPOLYLINE
  5
42
330
17
100
AcDbEntity
  8
ENG_L
100
AcDbPolyline
 90
4
 70
1
 10
131.31622667777538
 20
242.05213733782549
 10
131.31622667777538
 20
243.69742776748726
 10
132.1388718926065
 20
242.87478255265603
 10
131.31622667777538
 20
242.05213733782549
  0
LWPOLYLINE
  5
43
330
17
100
AcDbEntity
  8
ENG_L
100
AcDbPolyline
 90
4
 70
1
 10
130.83433226794867
 20
242.73363894783384
 10
131.65697748277978
 20
241.9109937330026
 10
130.83433226794867
 20
241.08834851817207
 10
130.83433226794867
 20
242.73363894783384
  0
LWPOLYLINE
  5
44
330
17
100
AcDbEntity
  8
ENG_L
100
AcDbPolyline
 90
4
 70
1
 10
128.76561102381956
 20
158.06136642315715
 10
127.94296580898848
 20
157.23872120832593
 10
127.94296580898848
 20
158.88401163798838
 10
128.76561102381956
 20
158.06136642315715
  0
LWPOLYLINE
  5
45
330
17
100
AcDbEntity
  8
ENG_L
100
AcDbPolyline
 90
6
 70
1
 10
127.38331057595698
 20
158.71497621912667
 10
127.71355266041515
 20
157.06376579683567
 10
127.12809055146582
 20
155.892841578937
 10
125.86647460755096
 20
155.892841578937
 10
125.22590815285118
 20
157.1739744883366
 10
127.38331057595698
 20
158.71497621912667
  0
LWPOLYLINE
  5
46
330
17
100
AcDbEntity
  8
ENG_L
100
AcDbPolyline
 90
4
 70
1
 10
126.83803338451277
 20
251.06698751971
 10
126.01538816968169
 20
250.24434230487878
 10
126.01538816968169
 20
251.88963273454124
 10
126.83803338451277
 20
251.06698751971
  0
LWPOLYLINE
  5
47
330
17
100
AcDbEntity
  8
ENG_L
100
AcDbPolyline
 90
5
 70
1
 10
124.32875773528825
 20
161.67557449685742
 10
124.32875773528825
 20
162.98011412151513
 10
124.95862609421403
 20
163.60998248044078
 10
125.34550769093073
 20
161.67557449685742
 10
124.32875773528825
 20
161.67557449685742
  0
LWPOLYLINE
  5
48
330
17
100
AcDbEntity
  8
ENG_L
100
AcDbPolyline
 90
5
 70
1
 10
124.26368012237948
 20
245.7314230244343
 10
123.64176193577727
 20
246.35334121103614
 10
124.87572975802394
 20
246.76466381845174
 10
125.49764794462607
 20
246.14274563184946
 10
124.26368012237948
 20
245.7314230244343
  0
LWPOLYLINE
  5
49
330
17
100
AcDbEntity
  8
ENG_L
100
AcDbPolyline
 90
4
 70
1
 10
120.2326552517613
 20
246.1068998166207
 10
121.05530046659241
 20
245.28425460178948
 10
120.2326552517613
 20
244.46160938695894
 10
120.2326552517613
 20
246.1068998166207
  0
LWPOLYLINE
  5
4A
330
17
100
AcDbEntity
  8
ENG_L
100
AcDbPolyline
 90
4
 70
1
 10
120.2326552517613
 20
247.3529758459192
 10
120.2326552517613
 20
248.99826627558096
 10
121.05530046659241
 20
248.17562106074976
 10
120.2326552517613
 20
247.3529758459192
  0
LWPOLYLINE
  5
4B
330
17
100
AcDbEntity
  8
ENG_L
100
AcDbPolyline
 90
4
 70
1
 10
120.2326552517613
 20
244.66121658714067
 10
121.05530046659237
 20
243.83857137230947
 10
120.2326552517613
 20
243.01592615747825
 10
120.2326552517613
 20
244.66121658714067
  0
LWPOLYLINE
  5
4C
330
17
100
AcDbEntity
  8
ENG_L
100
AcDbPolyline
 90
5
 70
1
 10
120.0970058364412
 20
169.8319336486823
 10
120.5669516411916
 20
168.42209623443128
 10
119.50981363702127
 20
168.42209623443128
 10
119.50981363702127
 20
169.24474144926216
 10
120.0970058364412
 20
169.8319336486823
  0
LWPOLYLINE
  5
4D
330
17
100
AcDbEntity
  8
ENG_L
100
AcDbPolyline
 90
4
 70
1
 10
120.09151164693897
 20
245.7661490116163
 10
119.26886643210791
 20
244.94350379678508
 10
119.26886643210791
 20
246.58879422644753
 10
120.09151164693897
 20
245.7661490116163
  0
LWPOLYLINE
  5
4E
330
17
100
AcDbEntity
  8
ENG_L
100
AcDbPolyline
 90
6
 70
1
 10
117.8904654880531
 20
151.79673909541003
 10
119.12772282728565
 20
151.79673909541003
 10
120.02643403403009
 20
150.89802788866547
 10
119.65558840787668
 20
149.78549101020545
 10
117.52449182817972
 20
150.69881811578978
 10
117.8904654880531
 20
151.79673909541003
  0
LWPOLYLINE
  5
4F
330
17
100
AcDbEntity
  8
ENG_L
100
AcDbPolyline
 90
4
 70
1
 10
119.60961723711229
 20
245.28425460178948
 10
118.7869720222812
 20
244.46160938695894
 10
118.7869720222812
 20
246.1068998166207
 10
119.60961723711229
 20
245.28425460178948
  0
LWPOLYLINE
  5
50
330
17
100
AcDbEntity
  8
ENG_L
100
AcDbPolyline
 90
5
 70
1
 10
117.33445844852433
 20
152.13065955613757
 10
118.48094720445897
 20
153.2771483120724
 10
119.57364321745891
 20
152.91291630773895
 10
119.18923893452508
 20
151.7597034589375
 10
117.33445844852433
 20
152.13065955613757
  0
LWPOLYLINE
  5
51
330
17
100
AcDbEntity
  8
ENG_L
100
AcDbPolyline
 90
4
 70
1
 10
118.30507761245451
 20
243.97971497713166
 10
118.30507761245451
 20
245.62500540679412
 10
119.12772282728555
 20
244.8023601919629
 10
118.30507761245451
 20
243.97971497713166
  0
LWPOLYLINE
  5
52
330
17
100
AcDbEntity
  8
ENG_L
100
AcDbPolyline
 90
9
 70
1
 10
117.68203959780548
 20
244.8023601919629
 10
117.71239122353215
 20
244.77200856623617
 10
118.96336569167354
 20
244.35501707685603
 10
115.66822631476866
 20
242.85722645099005
 10
114.5461310319971
 20
243.23125821191405
 10
115.97527045580935
 20
245.232053405251
 10
117.08185377573389
 20
245.78534506521322
 10
118.2692317972254
 20
245.38955239138272
 10
117.68203959780548
 20
244.8023601919629
  0
LWPOLYLINE
  5
53
330
17
100
AcDbEntity
  8
ENG_L
100
AcDbPolyline
 90
4
 70
1
 10
118.64582841745886
 20
246.72993783126972
 10
117.82318320262782
 20
245.9072926164385
 10
117.82318320262782
 20
247.55258304610095
 10
118.64582841745886
 20
246.72993783126972
  0
LWPOLYLINE
  5
54
330
17
100
AcDbEntity
  8
ENG_L
100
AcDbPolyline
 90
4
 70
1
 10
117.82318320262782
 20
163.9852429459
 10
117.82318320262782
 20
165.6305333755622
 10
118.64582841745889
 20
164.8078881607309
 10
117.82318320262782
 20
163.9852429459
  0
LWPOLYLINE
  5
55
330
17
100
AcDbEntity
  8
ENG_L
100
AcDbPolyline
 90
4
 70
1
 10
117.34128879280112
 20
166.59432219521563
 10
118.16393400763218
 20
165.7716769803843
 10
117.34128879280112
 20
164.94903176555343
 10
117.34128879280112
 20
166.59432219521563
  0
LWPOLYLINE
  5
56
330
17
100
AcDbEntity
  8
ENG_L
100
AcDbPolyline
 90
4
 70
1
 10
117.34128879280112
 20
160.32969486746816
 10
118.16393400763218
 20
159.50704965263728
 10
117.34128879280112
 20
158.68440443780597
 10
117.34128879280112
 20
160.32969486746816
  0
LWPOLYLINE
  5
57
330
17
100
AcDbEntity
  8
ENG_L
100
AcDbPolyline
 90
4
 70
1
 10
117.34128879280112
 20
149.52841065109868
 10
117.34128879280112
 20
151.17370108076088
 10
118.16393400763218
 20
150.35105586593
 10
117.34128879280112
 20
149.52841065109868
  0
LWPOLYLINE
  5
58
330
17
100
AcDbEntity
  8
ENG_L
100
AcDbPolyline
 90
4
 70
1
 10
117.34128879280112
 20
148.56462183144527
 10
117.34128879280112
 20
150.20991226110792
 10
118.16393400763215
 20
149.38726704627658
 10
117.34128879280112
 20
148.56462183144527
  0
LWPOLYLINE
  5
59
330
17
100
AcDbEntity
  8
ENG_L
100
AcDbPolyline
 90
4
 70
1
 10
117.34128879280112
 20
247.07068863627413
 10
118.1639340076322
 20
246.2480434214429
 10
117.34128879280112
 20
245.42539820661236
 10
117.34128879280112
 20
247.07068863627413
  0
LWPOLYLINE
  5
5A
330
17
100
AcDbEntity
  8
ENG_L
100
AcDbPolyline
 90
8
 70
1
 10
117.20014518797885
 20
154.20621114454357
 10
118.16393400763218
 20
153.24242232489016
 10
117.16541920079666
 20
152.24390751805473
 10
115.93145137855005
 20
152.6552301254701
 10
116.4526357365799
 20
153.17641448349994
 10
115.48884691692653
 20
153.65830889332665
 10
116.03674916814326
 20
154.20621114454357
 10
117.20014518797885
 20
154.20621114454357
  0
LWPOLYLINE
  5
5B
330
17
100
AcDbEntity
  8
ENG_L
100
AcDbPolyline
 90
4
 70
1
 10
117.68203959780551
 20
166.25357139021102
 10
116.8593943829744
 20
165.43092617538014
 10
116.8593943829744
 20
167.0762166050419
 10
117.68203959780551
 20
166.25357139021102
  0
LWPOLYLINE
  5
5C
330
17
100
AcDbEntity
  8
ENG_L
100
AcDbPolyline
 90
4
 70
1
 10
117.6820395978055
 20
150.83295027575662
 10
116.8593943829744
 20
150.01030506092573
 10
116.8593943829744
 20
151.6555954905878
 10
117.6820395978055
 20
150.83295027575662
  0
LWPOLYLINE
  5
5D
330
17
100
AcDbEntity
  8
ENG_L
100
AcDbPolyline
 90
4
 70
1
 10
117.2001451879788
 20
151.31484468558344
 10
116.3774999731477
 20
150.4921994707522
 10
116.3774999731477
 20
152.13748990041432
 10
117.2001451879788
 20
151.31484468558344
  0
LWPOLYLINE
  5
5E
330
17
100
AcDbEntity
  8
ENG_L
100
AcDbPolyline
 90
4
 70
1
 10
116.3774999731477
 20
244.94350379678508
 10
116.3774999731477
 20
246.58879422644753
 10
117.20014518797878
 20
245.7661490116163
 10
116.3774999731477
 20
244.94350379678508
  0
LWPOLYLINE
  5
5F
330
17
100
AcDbEntity
  8
ENG_L
100
AcDbPolyline
 90
5
 70
1
 10
116.34165415791874
 20
154.10091335495025
 10
115.1076863356721
 20
153.68959074753485
 10
114.48576814906991
 20
154.31150893413692
 10
115.71973597131654
 20
154.7228315415523
 10
116.34165415791874
 20
154.10091335495025
  0
LWPOLYLINE
  5
60
330
17
100
AcDbEntity
  8
ENG_L
100
AcDbPolyline
 90
4
 70
1
 10
116.23635636832542
 20
152.27863350523674
 10
115.41371115349432
 20
151.45598829040586
 10
115.41371115349432
 20
153.10127872006797
 10
116.23635636832542
 20
152.27863350523674
  0
LWPOLYLINE
  5
61
330
17
100
AcDbEntity
  8
ENG_L
100
AcDbPolyline
 90
5
 70
1
 10
115.75995614800092
 20
166.45867277989547
 10
116.22990195275128
 20
165.0488353656443
 10
115.17276394858098
 20
165.0488353656443
 10
115.17276394858098
 20
165.8714805804753
 10
115.75995614800092
 20
166.45867277989547
  0
LWPOLYLINE
  5
62
330
17
100
AcDbEntity
  8
ENG_L
100
AcDbPolyline
 90
4
 70
1
 10
114.93181674366762
 20
165.43092617538014
 10
114.93181674366762
 20
167.0762166050419
 10
115.75446195849872
 20
166.25357139021102
 10
114.93181674366762
 20
165.43092617538014
  0
LWPOLYLINE
  5
63
330
17
100
AcDbEntity
  8
ENG_L
100
AcDbPolyline
 90
4
 70
1
 10
114.44992233384092
 20
165.9128205852064
 10
114.44992233384092
 20
167.55811101486907
 10
115.27256754867196
 20
166.73546580003773
 10
114.44992233384092
 20
165.9128205852064
  0
LWPOLYLINE
  5
64
330
17
100
AcDbEntity
  8
ENG_L
100
AcDbPolyline
 90
4
 70
1
 10
114.44992233384092
 20
152.90167151988555
 10
114.44992233384092
 20
154.5469619495482
 10
115.27256754867196
 20
153.72431673471687
 10
114.44992233384092
 20
152.90167151988555
  0
LWPOLYLINE
  5
65
330
17
100
AcDbEntity
  8
ENG_L
100
AcDbPolyline
 90
4
 70
1
 10
114.7906731388453
 20
167.21736020986444
 10
113.96802792401422
 20
166.39471499503355
 10
113.96802792401422
 20
168.04000542469532
 10
114.7906731388453
 20
167.21736020986444
  0
LWPOLYLINE
  5
66
330
17
100
AcDbEntity
  8
ENG_L
100
AcDbPolyline
 90
4
 70
1
 10
113.96802792401422
 20
172.65934232278056
 10
113.96802792401422
 20
174.30463275244279
 10
114.79067313884529
 20
173.48198753761147
 10
113.96802792401422
 20
172.65934232278056
  0
LWPOLYLINE
  5
67
330
17
100
AcDbEntity
  8
ENG_L
100
AcDbPolyline
 90
4
 70
1
 10
113.48613351418753
 20
168.52189983452203
 10
114.3087787290186
 20
167.69925461969115
 10
113.48613351418753
 20
166.87660940485983
 10
113.48613351418753
 20
168.52189983452203
  0
LWPOLYLINE
  5
68
330
17
100
AcDbEntity
  8
ENG_L
100
AcDbPolyline
 90
4
 70
1
 10
112.52234469453413
 20
240.6064541083448
 10
112.52234469453413
 20
242.25174453800724
 10
113.34498990936518
 20
241.42909932317602
 10
112.52234469453413
 20
240.6064541083448
  0
LWPOLYLINE
  5
69
330
17
100
AcDbEntity
  8
ENG_L
100
AcDbPolyline
 90
4
 70
1
 10
112.04045028470742
 20
241.76985012817997
 10
112.86309549953853
 20
240.94720491334942
 10
112.04045028470742
 20
240.1245596985182
 10
112.04045028470742
 20
241.76985012817997
  0
LWPOLYLINE
  5
6A
330
17
100
AcDbEntity
  8
ENG_L
100
AcDbPolyline
 90
4
 70
1
 10
112.3812010897118
 20
240.4653105035226
 10
111.55855587488072
 20
239.64266528869138
 10
111.55855587488072
 20
241.28795571835383
 10
112.3812010897118
 20
240.4653105035226
  0
LWPOLYLINE
  5
6B
330
17
100
AcDbEntity
  8
ENG_L
100
AcDbPolyline
 90
4
 70
1
 10
111.55855587488072
 20
167.55811101486896
 10
112.3812010897118
 20
166.73546580003773
 10
111.55855587488072
 20
165.9128205852065
 10
111.55855587488072
 20
167.55811101486896
  0
LWPOLYLINE
  5
6C
330
17
100
AcDbEntity
  8
ENG_L
100
AcDbPolyline
 90
5
 70
1
 10
111.90480086938734
 20
166.45867277989547
 10
112.37474667413768
 20
165.0488353656443
 10
111.31760866996738
 20
165.0488353656443
 10
111.31760866996738
 20
165.8714805804753
 10
111.90480086938734
 20
166.45867277989547
  0
LWPOLYLINE
  5
6D
330
17
100
AcDbEntity
  8
ENG_L
100
AcDbPolyline
 90
4
 70
1
 10
111.55855587488072
 20
165.14863896573516
 10
112.38120108971182
 20
164.32599375090427
 10
111.55855587488072
 20
163.50334853607308
 10
111.55855587488072
 20
165.14863896573516
  0
LWPOLYLINE
  5
6E
330
17
100
AcDbEntity
  8
ENG_L
100
AcDbPolyline
 90
4
 70
1
 10
111.89930667988514
 20
241.9109937330026
 10
111.07666146505403
 20
241.08834851817207
 10
111.07666146505403
 20
242.73363894783384
 10
111.89930667988514
 20
241.9109937330026
  0
LWPOLYLINE
  5
6F
330
17
100
AcDbEntity
  8
ENG_L
100
AcDbPolyline
 90
4
 70
1
 10
110.59476705522734
 20
239.16077087886478
 10
110.59476705522734
 20
240.80606130852655
 10
111.4174122700584
 20
239.983416093696
 10
110.59476705522734
 20
239.16077087886478
  0
LWPOLYLINE
  5
70
330
17
100
AcDbEntity
  8
ENG_L
100
AcDbPolyline
 90
5
 70
1
 10
109.04928022565618
 20
163.60315213616428
 10
108.32643861091617
 20
164.32599375090427
 10
109.43786842391485
 20
165.43742356390288
 10
110.53843128055809
 20
163.60315213616428
 10
109.04928022565618
 20
163.60315213616428
  0
LWPOLYLINE
  5
71
330
17
100
AcDbEntity
  8
ENG_L
100
AcDbPolyline
 90
4
 70
1
 10
109.63097823557393
 20
239.16077087886478
 10
109.63097823557393
 20
240.80606130852655
 10
110.45362345040502
 20
239.983416093696
 10
109.63097823557393
 20
239.16077087886478
  0
LWPOLYLINE
  5
72
330
17
100
AcDbEntity
  8
ENG_D
100
AcDbPolyline
 90
24
 70
1
 10
197.54198204176433
 20
100.78100926668887
 10
197.3763115076264
 20
101.27802086910253
 10
196.13102479946633
 20
102.02519289399869
 10
196.13102479946633
 20
103.22520730300444
 10
196.513115609202
 20
103.60729811274017
 10
196.13102479946633
 20
103.98938892247588
 10
196.13102479946633
 20
105.65534935450371
 10
197.93272975160303
 20
107.00662806860628
 10
197.46609709062255
 20
107.47326072958663
 10
194.67212341154928
 20
107.78370224948364
 10
196.54618069713277
 20
108.90813662083387
 10
197.47690442885536
 20
108.90813662083387
 10
198.54049684859984
 20
109.9717290405784
 10
199.98618007807994
 20
108.52604581109814
 10
199.98618007807994
 20
103.50749451264917
 10
199.50428566825323
 20
103.02560010282247
 10
199.50428566825323
 20
102.21849480260813
 10
200.02561980697382
 20
101.175826525167
 10
198.66449259206877
 20
99.2702484243
 10
195.5866946974252
 20
99.2702484243
 10
192.7035100381295
 20
100.8720176794642
 10
195.70975507071634
 20
101.20604490530727
 10
197.0641126365161
 20
100.30313986144068
 10
197.54198204176433
 20
100.78100926668887
  0
LWPOLYLINE
  5
73
330
17
100
AcDbEntity
  8
ENG_D
100
AcDbPolyline
 90
4
 70
1
 10
194.9262887748996
 20
106.63980817652285
 10
194.9262887748996
 20
108.28509860618496
 10
195.74893398973066
 20
107.46245339135373
 10
194.9262887748996
 20
106.63980817652285
  0
LWPOLYLINE
  5
74
330
17
100
AcDbEntity
  8
ENG_D
100
AcDbPolyline
 90
10
 70
1
 10
193.57254315476976
 20
107.17544134833301
 10
193.22426090597733
 20
105.4340301043708
 10
191.85778238228795
 20
103.61205873945167
 10
193.98192628689458
 20
100.95687885869341
 10
191.98146833833752
 20
100.95687885869341
 10
188.28035472247007
 20
102.68406521276485
 10
187.45692542258575
 20
103.50749451264917
 10
187.45692542258575
 20
104.78005933526613
 10
189.31172061105633
 20
105.04503007647637
 10
193.57254315476976
 20
107.17544134833301
  0
LWPOLYLINE
  5
75
330
17
100
AcDbEntity
  8
ENG_D
100
AcDbPolyline
 90
5
 70
1
 10
190.24848828145488
 20
103.60729811274017
 10
190.3896318862773
 20
103.74844171756259
 10
189.6254502668059
 20
103.63927291478092
 10
189.6254502668059
 20
103.60729811274017
 10
190.24848828145488
 20
103.60729811274017
  0
LWPOLYLINE
  5
76
330
17
100
AcDbEntity
  8
ENG_D
100
AcDbPolyline
 90
4
 70
1
 10
186.7340838078457
 20
104.91183773739809
 10
187.5567290226768
 20
104.08919252256688
 10
186.7340838078457
 20
103.26654730773599
 10
186.7340838078457
 20
104.91183773739809
  0
LWPOLYLINE
  5
77
330
17
100
AcDbEntity
  8
ENG_D
100
AcDbPolyline
 90
4
 70
1
 10
176.4731575966627
 20
117.58223599771445
 10
175.65051238183165
 20
116.75959078288345
 10
175.65051238183165
 20
118.40488121254577
 10
176.4731575966627
 20
117.58223599771445
  0
LWPOLYLINE
  5
78
330
17
100
AcDbEntity
  8
ENG_D
100
AcDbPolyline
 90
4
 70
1
 10
156.8566303985904
 20
250.24434230487878
 10
156.8566303985904
 20
251.88963273454124
 10
157.67927561342148
 20
251.06698751971
 10
156.8566303985904
 20
250.24434230487878
  0
LWPOLYLINE
  5
79
330
17
100
AcDbEntity
  8
ENG_D
100
AcDbPolyline
 90
5
 70
1
 10
157.19092678802076
 20
252.75361795410345
 10
156.13378878385035
 20
252.75361795410345
 10
156.13378878385035
 20
253.57626316893445
 10
156.72098098327032
 20
254.16345536835473
 10
157.19092678802076
 20
252.75361795410345
  0
LWPOLYLINE
  5
7A
330
17
100
AcDbEntity
  8
ENG_D
100
AcDbPolyline
 90
4
 70
1
 10
155.892841578937
 20
253.13570876383952
 10
155.892841578937
 20
254.7809991935013
 10
156.71548679376806
 20
253.95835397867006
 10
155.892841578937
 20
253.13570876383952
  0
LWPOLYLINE
  5
7B
330
17
100
AcDbEntity
  8
ENG_D
100
AcDbPolyline
 90
8
 70
1
 10
155.16999996419696
 20
257.50527976694525
 10
155.16999996419696
 20
256.44077897143114
 10
156.15868951546477
 20
254.95774464452947
 10
155.80428276669917
 20
253.89452439823245
 10
154.74684219789316
 20
254.24700458783468
 10
153.70877081826373
 20
256.8421830369083
 10
154.0538227518681
 20
257.87733883772137
 10
155.16999996419696
 20
257.50527976694525
  0
LWPOLYLINE
  5
7C
330
17
100
AcDbEntity
  8
ENG_D
100
AcDbPolyline
 90
4
 70
1
 10
153.9652639396302
 20
257.4727584522793
 10
153.9652639396302
 20
259.11804888194115
 10
154.78790915446132
 20
258.2954036671106
 10
153.9652639396302
 20
257.4727584522793
  0
LWPOLYLINE
  5
7D
330
17
100
AcDbEntity
  8
ENG_D
100
AcDbPolyline
 90
6
 70
1
 10
152.84571561631452
 20
259.24457658792386
 10
150.87106196678272
 20
259.52666996642847
 10
150.53904193485423
 20
261.1867701260706
 10
152.86033151515443
 20
261.1867701260706
 10
153.82412033480787
 20
260.2229813064172
 10
152.84571561631452
 20
259.24457658792386
  0
LWPOLYLINE
  5
7E
330
17
100
AcDbEntity
  8
ENG_D
100
AcDbPolyline
 90
4
 70
1
 10
150.11010866101662
 20
260.3641249112394
 10
150.11010866101662
 20
262.00941534090185
 10
150.9327538758477
 20
261.1867701260706
 10
150.11010866101662
 20
260.3641249112394
  0
LWPOLYLINE
  5
7F
330
17
100
AcDbEntity
  8
ENG_D
100
AcDbPolyline
 90
4
 70
1
 10
149.00517623654085
 20
261.66866453589745
 10
148.18253102170982
 20
260.8460193210662
 10
148.18253102170982
 20
262.49130975072865
 10
149.00517623654085
 20
261.66866453589745
  0
LWPOLYLINE
  5
80
330
17
100
AcDbEntity
  8
ENG_D
100
AcDbPolyline
 90
8
 70
1
 10
142.44441991154005
 20
248.22637192429897
 10
143.64845941375341
 20
248.82839167540573
 10
143.93404014550734
 20
249.68513387066758
 10
144.9801463577524
 20
249.33643179991915
 10
146.43454482546142
 20
246.42763486450116
 10
148.23941094105808
 20
245.5252018067029
 10
145.68582405265542
 20
245.5252018067029
 10
142.44441991154005
 20
248.22637192429897
  0
LWPOLYLINE
  5
81
330
17
100
AcDbEntity
  8
ENG_D
100
AcDbPolyline
 90
4
 70
1
 10
146.25495338240302
 20
261.52752093107455
 10
147.07759859723413
 20
260.70487571624403
 10
146.25495338240302
 20
259.8822305014128
 10
146.25495338240302
 20
261.52752093107455
  0
LWPOLYLINE
  5
82
330
17
100
AcDbEntity
  8
ENG_D
100
AcDbPolyline
 90
11
 70
1
 10
143.7043377284472
 20
257.8135092572837
 10
143.12263971852948
 20
257.23181124736595
 10
142.6407453087028
 20
257.71370565719275
 10
142.23804415311332
 20
257.3110045016032
 10
140.46539012020594
 20
257.6655353081847
 10
142.4980180278687
 20
259.6981632158475
 10
144.5278882531009
 20
260.71309832846356
 10
146.76607958990965
 20
260.3933567089194
 10
145.51312548639825
 20
259.14040260540804
 10
145.24774681677334
 20
257.8135092572837
 10
143.7043377284472
 20
257.8135092572837
  0
LWPOLYLINE
  5
83
330
17
100
AcDbEntity
  8
ENG_D
100
AcDbPolyline
 90
4
 70
1
 10
143.36358692344282
 20
255.74478801315425
 10
144.18623213827394
 20
254.9221427983237
 10
143.36358692344282
 20
254.09949758349248
 10
143.36358692344282
 20
255.74478801315425
  0
LWPOLYLINE
  5
84
330
17
100
AcDbEntity
  8
ENG_D
100
AcDbPolyline
 90
4
 70
1
 10
143.22244331862055
 20
257.33161484745716
 10
142.39979810378944
 20
256.5089696326259
 10
142.39979810378944
 20
258.1542600622877
 10
143.22244331862055
 20
257.33161484745716
  0
LWPOLYLINE
  5
85
330
17
100
AcDbEntity
  8
ENG_D
100
AcDbPolyline
 90
4
 70
1
 10
143.22244331862052
 20
249.13940988040318
 10
142.39979810378944
 20
248.31676466557195
 10
142.39979810378944
 20
249.9620550952344
 10
143.22244331862052
 20
249.13940988040318
  0
LWPOLYLINE
  5
86
330
17
100
AcDbEntity
  8
ENG_D
100
AcDbPolyline
 90
4
 70
1
 10
141.91790369396273
 20
256.0270752227998
 10
141.91790369396273
 20
257.67236565246156
 10
142.74054890879384
 20
256.8497204376303
 10
141.91790369396273
 20
256.0270752227998
  0
LWPOLYLINE
  5
87
330
17
100
AcDbEntity
  8
ENG_D
100
AcDbPolyline
 90
5
 70
1
 10
132.10414590542442
 20
241.8762677458206
 10
130.8701780831778
 20
242.28759035323623
 10
131.9739906796065
 20
243.3914029496649
 10
133.20795850185306
 20
242.98008034224927
 10
132.10414590542442
 20
241.8762677458206
  0
LWPOLYLINE
  5
88
330
17
100
AcDbEntity
  8
ENG_D
100
AcDbPolyline
 90
4
 70
1
 10
131.79812108760208
 20
158.40211722816144
 10
132.62076630243317
 20
157.57947201333045
 10
131.79812108760208
 20
156.75682679849945
 10
131.79812108760208
 20
158.40211722816144
  0
LWPOLYLINE
  5
89
330
17
100
AcDbEntity
  8
ENG_D
100
AcDbPolyline
 90
5
 70
1
 10
130.11149065320862
 20
245.5252018067029
 10
130.11149065320862
 20
246.34784702153388
 10
130.69868285262862
 20
246.93503922095417
 10
131.16862865737906
 20
245.5252018067029
 10
130.11149065320862
 20
245.5252018067029
  0
LWPOLYLINE
  5
8A
330
17
100
AcDbEntity
  8
ENG_D
100
AcDbPolyline
 90
5
 70
1
 10
128.94260044387087
 20
157.6847698029238
 10
130.17656826611747
 20
158.09609241033917
 10
130.7984864527197
 20
157.4741742237371
 10
129.5645186304731
 20
157.06285161632172
 10
128.94260044387087
 20
157.6847698029238
  0
LWPOLYLINE
  5
8B
330
17
100
AcDbEntity
  8
ENG_D
100
AcDbPolyline
 90
4
 70
1
 10
128.90675462864186
 20
245.42539820661236
 10
128.90675462864186
 20
247.07068863627413
 10
129.72939984347298
 20
246.2480434214429
 10
128.90675462864186
 20
245.42539820661236
  0
LWPOLYLINE
  5
8C
330
17
100
AcDbEntity
  8
ENG_D
100
AcDbPolyline
 90
4
 70
1
 10
128.90675462864186
 20
157.92022281833496
 10
129.72939984347295
 20
157.09757760350374
 10
128.90675462864186
 20
156.27493238867285
 10
128.90675462864186
 20
157.92022281833496
  0
LWPOLYLINE
  5
8D
330
17
100
AcDbEntity
  8
ENG_D
100
AcDbPolyline
 90
4
 70
1
 10
128.42486021881518
 20
156.75682679849945
 10
128.42486021881518
 20
158.40211722816144
 10
129.24750543364627
 20
157.57947201333045
 10
128.42486021881518
 20
156.75682679849945
  0
LWPOLYLINE
  5
8E
330
17
100
AcDbEntity
  8
ENG_D
100
AcDbPolyline
 90
61
 70
1
 10
127.22012419424844
 20
156.51587959358605
 10
127.22012419424844
 20
157.88770150366915
 10
126.80330739733061
 20
158.02664043597503
 10
125.83689425686254
 20
157.06022729550696
 10
126.41708777401247
 20
156.093238100257
 10
127.22012419424844
 20
155.82555929351182
 10
127.22012419424844
 20
154.5883019542793
 10
126.4098402876132
 20
153.77801804764403
 10
124.88360508874247
 20
152.76052791506356
 10
123.42184883498311
 20
152.76052791506356
 10
121.58011855716194
 20
151.83966277615292
 10
119.99170804684796
 20
150.2512522658389
 10
118.9281156271035
 20
151.31484468558344
 10
118.21304396967192
 20
151.31484468558344
 10
117.67164200168153
 20
150.23204074960262
 10
115.65465835840767
 20
151.67274335194102
 10
115.65465835840767
 20
152.47616296417388
 10
116.98155170653207
 20
152.74154163379882
 10
117.48243239762344
 20
153.24242232489016
 10
117.00053798779668
 20
153.72431673471698
 10
116.06981425607412
 20
153.72431673471698
 10
114.69086953875427
 20
154.55168356510885
 10
114.69086953875427
 20
156.20395277550026
 10
116.45099957226317
 20
158.96987139958563
 10
117.58223599771448
 20
159.53548961231135
 10
118.53547650134784
 20
159.0588693604946
 10
119.53138411644989
 20
159.65641392955587
 10
119.97090582421039
 20
162.29354417611896
 10
118.06413040754116
 20
163.72362573862088
 10
118.06413040754116
 20
164.73067300183973
 10
117.00771047751623
 20
166.2096609038747
 10
115.58958074549876
 20
165.7369509932023
 10
113.62727711900982
 20
167.69925461969115
 10
112.86309549953855
 20
167.69925461969115
 10
111.79950307979409
 20
166.63566219994675
 10
111.79950307979409
 20
164.65897459860014
 10
110.79178897474335
 20
164.15511754607482
 10
110.42661278639847
 20
163.05958898104
 10
109.35258185226336
 20
164.6706353822427
 10
108.90813662083391
 20
164.22619015081318
 10
108.42624221100719
 20
164.7080845606399
 10
108.42624221100719
 20
166.80841874366513
 10
110.3678468413412
 20
169.72082568916613
 10
111.12007921103027
 20
173.48198753761147
 10
113.40406597047023
 20
173.48198753761147
 10
114.16293604210944
 20
171.71129070378666
 10
115.73187351729895
 20
170.5906210786513
 10
117.00053798779672
 20
170.5906210786513
 10
117.55153501511087
 20
171.14161810596528
 10
119.1983175159739
 20
170.04376310539004
 10
120.54736027291723
 20
168.1551032456694
 10
120.03648600774714
 20
167.64422898049935
 10
121.39135218950992
 20
164.4828745563862
 10
124.9412017621916
 20
161.94726771875634
 10
124.32875773528826
 20
161.33482369185305
 10
124.32875773528826
 20
160.5706420723816
 10
124.89914089577405
 20
160.00025891189586
 10
127.11955063271007
 20
160.24697110488884
 10
128.67734148006858
 20
157.1313894101718
 10
128.3318869630009
 20
155.40411682483358
 10
127.22012419424844
 20
156.51587959358605
  0
LWPOLYLINE
  5
8F
330
17
100
AcDbEntity
  8
ENG_D
100
AcDbPolyline
 90
5
 70
1
 10
118.86659951986404
 20
152.31566914170935
 10
118.9640896467569
 20
152.60813952238794
 10
118.61110243027677
 20
152.72580192788132
 10
118.3119079567313
 20
152.4266074543359
 10
118.86659951986404
 20
152.31566914170935
  0
LWPOLYLINE
  5
90
330
17
100
AcDbEntity
  8
ENG_D
100
AcDbPolyline
 90
22
 70
1
 10
124.34724554744216
 20
246.22884736784602
 10
121.43739127632806
 20
244.77392023228896
 10
119.55738939729932
 20
245.71392117180335
 10
118.12920802045015
 20
244.28573979495405
 10
116.89524019820354
 20
244.69706240236965
 10
117.41642455623335
 20
245.21824676039938
 10
116.45263573658
 20
245.7001411702262
 10
116.94683667486917
 20
246.19434210851554
 10
121.36443833270087
 20
249.13940988040318
 10
122.30137649589045
 20
249.13940988040318
 10
122.81799689289915
 20
249.65603027741201
 10
124.05196471514577
 20
249.2447076699964
 10
122.42179044183528
 20
247.61453339668594
 10
122.57558142961989
 20
246.845578457763
 10
123.308088996287
 20
247.21183224109654
 10
125.8742445648593
 20
247.21183224109654
 10
126.85701966577756
 20
246.22905714017818
 10
128.43169056309188
 20
245.91412296071536
 10
127.31992779433939
 20
244.8023601919629
 10
125.53349375985498
 20
244.8023601919629
 10
125.53349375985498
 20
245.83343129704184
 10
124.34724554744216
 20
246.22884736784602
  0
LWPOLYLINE
  5
91
330
17
100
AcDbEntity
  8
ENG_D
100
AcDbPolyline
 90
4
 70
1
 10
126.83803338451277
 20
160.4708384722906
 10
126.01538816968169
 20
159.64819325745972
 10
126.01538816968169
 20
161.2934836871218
 10
126.83803338451277
 20
160.4708384722906
  0
LWPOLYLINE
  5
92
330
17
100
AcDbEntity
  8
ENG_D
100
AcDbPolyline
 90
4
 70
1
 10
125.0515993500283
 20
162.25727250677525
 10
125.87424456485938
 20
161.43462729194403
 10
125.0515993500283
 20
160.61198207711314
 10
125.0515993500283
 20
162.25727250677525
  0
LWPOLYLINE
  5
93
330
17
100
AcDbEntity
  8
ENG_D
100
AcDbPolyline
 90
5
 70
1
 10
125.01575353479927
 20
163.25690714165765
 10
123.78178571255262
 20
162.8455845342419
 10
123.15986752595057
 20
163.4675027208442
 10
124.39383534819711
 20
163.87882532825958
 10
125.01575353479927
 20
163.25690714165765
  0
LWPOLYLINE
  5
94
330
17
100
AcDbEntity
  8
ENG_D
100
AcDbPolyline
 90
4
 70
1
 10
123.60591612054819
 20
250.44394950506054
 10
124.4285613353793
 20
249.62130429023
 10
123.60591612054819
 20
248.79865907539877
 10
123.60591612054819
 20
250.44394950506054
  0
LWPOLYLINE
  5
95
330
17
100
AcDbEntity
  8
ENG_D
100
AcDbPolyline
 90
4
 70
1
 10
121.53719487641906
 20
243.83857137230947
 10
120.714549661588
 20
243.01592615747825
 10
120.714549661588
 20
244.66121658714067
 10
121.53719487641906
 20
243.83857137230947
  0
LWPOLYLINE
  5
96
330
17
100
AcDbEntity
  8
ENG_D
100
AcDbPolyline
 90
5
 70
1
 10
120.57890024626792
 20
245.48935599147416
 10
121.04884605101836
 20
244.07951857722287
 10
119.99170804684796
 20
244.07951857722287
 10
119.99170804684796
 20
244.90216379205387
 10
120.57890024626792
 20
245.48935599147416
  0
LWPOLYLINE
  5
97
330
17
100
AcDbEntity
  8
ENG_D
100
AcDbPolyline
 90
4
 70
1
 10
119.7507608419346
 20
168.804187044167
 10
119.7507608419346
 20
170.4494774738291
 10
120.57340605676569
 20
169.6268322589979
 10
119.7507608419346
 20
168.804187044167
  0
LWPOLYLINE
  5
98
330
17
100
AcDbEntity
  8
ENG_D
100
AcDbPolyline
 90
5
 70
1
 10
119.17589317629363
 20
161.68240484113429
 10
119.56277477301033
 20
159.7479968575507
 10
118.54602481736785
 20
159.7479968575507
 10
118.54602481736785
 20
161.0525364822083
 10
119.17589317629363
 20
161.68240484113429
  0
LWPOLYLINE
  5
99
330
17
100
AcDbEntity
  8
ENG_D
100
AcDbPolyline
 90
4
 70
1
 10
119.60961723711229
 20
170.5906210786513
 10
118.7869720222812
 20
169.76797586382042
 10
118.7869720222812
 20
171.4132662934822
 10
119.60961723711229
 20
170.5906210786513
  0
LWPOLYLINE
  5
9A
330
17
100
AcDbEntity
  8
ENG_D
100
AcDbPolyline
 90
4
 70
1
 10
118.30507761245451
 20
171.89516070330936
 10
119.12772282728555
 20
171.07251548847802
 10
118.30507761245451
 20
170.24987027364668
 10
118.30507761245451
 20
171.89516070330936
  0
LWPOLYLINE
  5
9B
330
17
100
AcDbEntity
  8
ENG_D
100
AcDbPolyline
 90
4
 70
1
 10
118.64582841745889
 20
150.35105586593
 10
117.82318320262782
 20
149.52841065109868
 10
117.82318320262782
 20
151.17370108076088
 10
118.64582841745889
 20
150.35105586593
  0
LWPOLYLINE
  5
9C
330
17
100
AcDbEntity
  8
ENG_D
100
AcDbPolyline
 90
4
 70
1
 10
118.1639340076322
 20
149.86916145610328
 10
117.34128879280112
 20
149.0465162412724
 10
117.34128879280112
 20
150.69180667093417
 10
118.1639340076322
 20
149.86916145610328
  0
LWPOLYLINE
  5
9D
330
17
100
AcDbEntity
  8
ENG_D
100
AcDbPolyline
 90
6
 70
1
 10
114.18836478307375
 20
244.39965903637352
 10
115.57546510417046
 20
245.7867593574701
 10
117.47704984518742
 20
245.40644240926656
 10
115.59244583984523
 20
244.1500397390386
 10
114.57682794186684
 20
242.45734324240797
 10
114.18836478307375
 20
244.39965903637352
  0
LWPOLYLINE
  5
9E
330
17
100
AcDbEntity
  8
ENG_D
100
AcDbPolyline
 90
4
 70
1
 10
115.272567548672
 20
154.20621114454357
 10
114.44992233384092
 20
153.3835659297127
 10
114.44992233384092
 20
155.02885635937446
 10
115.272567548672
 20
154.20621114454357
  0
LWPOLYLINE
  5
9F
330
17
100
AcDbEntity
  8
ENG_D
100
AcDbPolyline
 90
4
 70
1
 10
113.96802792401422
 20
243.69742776748726
 10
114.7906731388453
 20
242.87478255265603
 10
113.96802792401422
 20
242.05213733782549
 10
113.96802792401422
 20
243.69742776748726
  0
LWPOLYLINE
  5
A0
330
17
100
AcDbEntity
  8
ENG_D
100
AcDbPolyline
 90
4
 70
1
 10
113.96802792401422
 20
172.17744791295354
 10
113.96802792401422
 20
173.82273834261574
 10
114.79067313884529
 20
173.00009312778485
 10
113.96802792401422
 20
172.17744791295354
  0
LWPOLYLINE
  5
A1
330
17
100
AcDbEntity
  8
ENG_D
100
AcDbPolyline
 90
4
 70
1
 10
114.3087787290186
 20
173.96388194743818
 10
113.48613351418753
 20
173.1412367326073
 10
113.48613351418753
 20
174.7865271622695
 10
114.3087787290186
 20
173.96388194743818
  0
LWPOLYLINE
  5
A2
330
17
100
AcDbEntity
  8
ENG_D
100
AcDbPolyline
 90
4
 70
1
 10
113.34498990936522
 20
242.87478255265603
 10
112.52234469453413
 20
242.05213733782549
 10
112.52234469453413
 20
243.69742776748726
 10
113.34498990936522
 20
242.87478255265603
  0
LWPOLYLINE
  5
A3
330
17
100
AcDbEntity
  8
ENG_D
100
AcDbPolyline
 90
4
 70
1
 10
112.04045028470742
 20
243.21553335766066
 10
112.86309549953849
 20
242.39288814282943
 10
112.04045028470742
 20
241.57024292799824
 10
112.04045028470742
 20
243.21553335766066
  0
LWPOLYLINE
  5
A4
330
17
100
AcDbEntity
  8
ENG_D
100
AcDbPolyline
 90
4
 70
1
 10
112.04045028470742
 20
182.7791249291413
 10
112.04045028470742
 20
184.42441535880306
 10
112.86309549953853
 20
183.60177014397217
 10
112.04045028470742
 20
182.7791249291413
  0
LWPOLYLINE
  5
A5
330
17
100
AcDbEntity
  8
ENG_D
100
AcDbPolyline
 90
4
 70
1
 10
112.38120108971184
 20
241.9109937330026
 10
111.55855587488072
 20
241.08834851817207
 10
111.55855587488072
 20
242.73363894783384
 10
112.38120108971184
 20
241.9109937330026
  0
LWPOLYLINE
  5
A6
330
17
100
AcDbEntity
  8
ENG_D
100
AcDbPolyline
 90
4
 70
1
 10
112.38120108971182
 20
173.96388194743818
 10
111.55855587488072
 20
173.1412367326073
 10
111.55855587488072
 20
174.78652716226938
 10
112.38120108971182
 20
173.96388194743818
  0
LWPOLYLINE
  5
A7
330
17
100
AcDbEntity
  8
ENG_D
100
AcDbPolyline
 90
4
 70
1
 10
111.55855587488072
 20
181.0511544900162
 10
112.38120108971184
 20
180.2285092751853
 10
111.55855587488072
 20
179.40586406035442
 10
111.55855587488072
 20
181.0511544900162
  0
LWPOLYLINE
  5
A8
330
17
100
AcDbEntity
  8
ENG_D
100
AcDbPolyline
 90
4
 70
1
 10
111.07666146505403
 20
239.64266528869138
 10
111.07666146505403
 20
241.28795571835383
 10
111.8993066798851
 20
240.4653105035226
 10
111.07666146505403
 20
239.64266528869138
  0
LWPOLYLINE
  5
A9
330
17
100
AcDbEntity
  8
ENG_D
100
AcDbPolyline
 90
5
 70
1
 10
111.38268628287638
 20
241.94571972018485
 10
112.00460446947827
 20
241.32380153358278
 10
110.7706366472317
 20
240.91247892616718
 10
110.14871846062981
 20
241.53439711276926
 10
111.38268628287638
 20
241.94571972018485
  0
LWPOLYLINE
  5
AA
330
17
100
AcDbEntity
  8
ENG_D
100
AcDbPolyline
 90
4
 70
1
 10
111.07666146505403
 20
180.56926008018982
 10
111.8993066798851
 20
179.7466148653586
 10
111.07666146505403
 20
178.92396965052737
 10
111.07666146505403
 20
180.56926008018982
  0
LWPOLYLINE
  5
AB
330
17
100
AcDbEntity
  8
ENG_D
100
AcDbPolyline
 90
5
 70
1
 10
111.41095785448428
 20
177.57809002113845
 10
110.35381985031398
 20
177.57809002113845
 10
110.35381985031398
 20
178.40073523596945
 10
110.94101204973396
 20
178.9879274353896
 10
111.41095785448428
 20
177.57809002113845
  0
LWPOLYLINE
  5
AC
330
17
100
AcDbEntity
  8
ENG_D
100
AcDbPolyline
 90
4
 70
1
 10
110.59476705522734
 20
177.1959992114026
 10
111.4174122700584
 20
176.37335399657172
 10
110.59476705522734
 20
175.55070878174038
 10
110.59476705522734
 20
177.1959992114026
  0
LWPOLYLINE
  5
AD
330
17
100
AcDbEntity
  8
ENG_D
100
AcDbPolyline
 90
4
 70
1
 10
109.63097823557393
 20
239.64266528869138
 10
109.63097823557393
 20
241.28795571835383
 10
110.45362345040498
 20
240.4653105035226
 10
109.63097823557393
 20
239.64266528869138
  0
LWPOLYLINE
  5
AE
330
17
100
AcDbEntity
  8
ENG_D
100
AcDbPolyline
 90
5
 70
1
 10
109.32495341775166
 20
162.8455845342419
 10
108.7030352311496
 20
163.4675027208442
 10
109.93700305339618
 20
163.87882532825958
 10
110.5589212399983
 20
163.25690714165765
 10
109.32495341775166
 20
162.8455845342419
  0
LWPOLYLINE
  5
AF
330
17
100
AcDbEntity
  8
ENG_D
100
AcDbPolyline
 90
4
 70
1
 10
108.66718941592053
 20
164.66674455590845
 10
109.48983463075163
 20
163.84409934107757
 10
108.66718941592053
 20
163.02145412624637
 10
108.66718941592053
 20
164.66674455590845
  0
LWPOLYLINE
  5
B0
330
17
100
AcDbEntity
  8
ENG_K
100
AcDbPolyline
 90
5
 70
1
 10
199.65225961735229
 20
103.85507566193041
 10
200.03914121406902
 20
101.92066767834685
 10
199.02239125842652
 20
101.92066767834685
 10
199.02239125842652
 20
103.22520730300444
 10
199.65225961735229
 20
103.85507566193041
  0
LWPOLYLINE
  5
B1
330
17
100
AcDbEntity
  8
ENG_K
100
AcDbPolyline
 90
4
 70
1
 10
199.2633384633399
 20
101.53857686861123
 10
200.08598367817095
 20
100.71593165378002
 10
199.2633384633399
 20
99.89328643894912
 10
199.2633384633399
 20
101.53857686861123
  0
LWPOLYLINE
  5
B2
330
17
100
AcDbEntity
  8
ENG_K
100
AcDbPolyline
 90
4
 70
1
 10
198.1534026706573
 20
109.43466455750107
 10
199.65667406092874
 20
109.935755020925
 10
200.15776452435256
 20
108.4324836306534
 10
198.1534026706573
 20
109.43466455750107
  0
LWPOLYLINE
  5
B3
330
17
100
AcDbEntity
  8
ENG_K
100
AcDbPolyline
 90
4
 70
1
 10
154.9290527592836
 20
257.19047124263494
 10
155.75169797411468
 20
256.36782602780374
 10
154.9290527592836
 20
255.54518081297252
 10
154.9290527592836
 20
257.19047124263494
  0
LWPOLYLINE
  5
B4
330
17
100
AcDbEntity
  8
ENG_K
100
AcDbPolyline
 90
4
 70
1
 10
147.07759859723413
 20
245.28425460178948
 10
146.25495338240302
 20
244.46160938695894
 10
146.25495338240302
 20
246.1068998166207
 10
147.07759859723413
 20
245.28425460178948
  0
LWPOLYLINE
  5
B5
330
17
100
AcDbEntity
  8
ENG_K
100
AcDbPolyline
 90
4
 70
1
 10
144.80927015292295
 20
245.42539820661236
 10
144.80927015292295
 20
247.07068863627413
 10
145.63191536775406
 20
246.2480434214429
 10
144.80927015292295
 20
245.42539820661236
  0
LWPOLYLINE
  5
B6
330
17
100
AcDbEntity
  8
ENG_K
100
AcDbPolyline
 90
4
 70
1
 10
145.15002095792732
 20
246.72993783126972
 10
144.32737574309624
 20
245.9072926164385
 10
144.32737574309624
 20
247.55258304610095
 10
145.15002095792732
 20
246.72993783126972
  0
LWPOLYLINE
  5
B7
330
17
100
AcDbEntity
  8
ENG_K
100
AcDbPolyline
 90
8
 70
1
 10
129.1952775938332
 20
157.1498054433168
 10
131.05679166070811
 20
158.08056247675418
 10
132.24416968219975
 20
157.6847698029238
 10
130.7361123438692
 20
156.17671246459318
 10
128.68429523588244
 20
155.15080391059976
 10
127.61834815817727
 20
155.5061196031683
 10
128.58453274091863
 20
157.7605502962315
 10
129.1952775938332
 20
157.1498054433168
  0
LWPOLYLINE
  5
B8
330
17
100
AcDbEntity
  8
ENG_K
100
AcDbPolyline
 90
4
 70
1
 10
128.76561102381956
 20
157.57947201333045
 10
127.94296580898848
 20
156.75682679849956
 10
127.94296580898848
 20
158.40211722816133
 10
128.76561102381956
 20
157.57947201333045
  0
LWPOLYLINE
  5
B9
330
17
100
AcDbEntity
  8
ENG_K
100
AcDbPolyline
 90
4
 70
1
 10
127.94296580898848
 20
252.853421554194
 10
128.7656110238196
 20
252.03077633936343
 10
127.94296580898848
 20
251.20813112453223
 10
127.94296580898848
 20
252.853421554194
  0
LWPOLYLINE
  5
BA
330
17
100
AcDbEntity
  8
ENG_K
100
AcDbPolyline
 90
5
 70
1
 10
127.80731639366846
 20
158.33815944329942
 10
126.7035037972396
 20
159.44197203972843
 10
127.11482640465516
 20
160.67593986197494
 10
128.21863900108397
 20
159.57212726554616
 10
127.80731639366846
 20
158.33815944329942
  0
LWPOLYLINE
  5
BB
330
17
100
AcDbEntity
  8
ENG_K
100
AcDbPolyline
 90
6
 70
1
 10
124.72546444386381
 20
159.4924337537974
 10
123.82625297960773
 20
160.39164521805338
 10
124.13122827635117
 20
161.91652170177073
 10
124.91045574520601
 20
161.91652170177073
 10
127.00840878701491
 20
159.81856865996193
 10
124.72546444386381
 20
159.4924337537974
  0
LWPOLYLINE
  5
BC
330
17
100
AcDbEntity
  8
ENG_K
100
AcDbPolyline
 90
4
 70
1
 10
125.53349375985498
 20
246.58879422644753
 10
126.35613897468606
 20
245.7661490116163
 10
125.53349375985498
 20
244.94350379678508
 10
125.53349375985498
 20
246.58879422644753
  0
LWPOLYLINE
  5
BD
330
17
100
AcDbEntity
  8
ENG_K
100
AcDbPolyline
 90
9
 70
1
 10
121.0022899978241
 20
164.16735350824496
 10
119.46503567612207
 20
167.75428025888294
 10
119.92663043393907
 20
168.21587501669987
 10
120.95549686650136
 20
167.87291953917926
 10
120.95549686650136
 20
166.80841874366513
 10
121.85943465046626
 20
165.45251206771772
 10
124.85029231452116
 20
162.96013068100535
 10
124.45574806251784
 20
161.77649792499525
 10
121.0022899978241
 20
164.16735350824496
  0
LWPOLYLINE
  5
BE
330
17
100
AcDbEntity
  8
ENG_K
100
AcDbPolyline
 90
4
 70
1
 10
123.1240217107215
 20
151.93788270023256
 10
123.1240217107215
 20
153.58317312989467
 10
123.94666692555259
 20
152.76052791506345
 10
123.1240217107215
 20
151.93788270023256
  0
LWPOLYLINE
  5
BF
330
17
100
AcDbEntity
  8
ENG_K
100
AcDbPolyline
 90
4
 70
1
 10
122.1602328910681
 20
153.10127872006808
 10
122.98287810589918
 20
152.27863350523674
 10
122.1602328910681
 20
151.45598829040586
 10
122.1602328910681
 20
153.10127872006808
  0
LWPOLYLINE
  5
C0
330
17
100
AcDbEntity
  8
ENG_K
100
AcDbPolyline
 90
6
 70
1
 10
121.04753050928396
 20
243.59762416739605
 10
120.38476027645062
 20
244.92316463306275
 10
122.45620573517343
 20
245.8109269725153
 10
122.95217712329556
 20
245.3149555843932
 10
121.80728951196413
 20
243.59762416739605
 10
121.04753050928396
 20
243.59762416739605
  0
LWPOLYLINE
  5
C1
330
17
100
AcDbEntity
  8
ENG_K
100
AcDbPolyline
 90
4
 70
1
 10
121.1964440714147
 20
152.61938431024134
 10
122.01908928624577
 20
151.79673909541003
 10
121.1964440714147
 20
150.97409388057915
 10
121.1964440714147
 20
152.61938431024134
  0
LWPOLYLINE
  5
C2
330
17
100
AcDbEntity
  8
ENG_K
100
AcDbPolyline
 90
7
 70
1
 10
120.49070888530866
 20
162.48111328305447
 10
119.9548737460869
 20
159.266102447724
 10
119.02791922719454
 20
159.266102447724
 10
119.02791922719454
 20
161.81671810167975
 10
118.525414471514
 20
162.31922285736022
 10
118.87994527809549
 20
164.0918768902676
 10
120.49070888530866
 20
162.48111328305447
  0
LWPOLYLINE
  5
C3
330
17
100
AcDbEntity
  8
ENG_K
100
AcDbPolyline
 90
5
 70
1
 10
119.70683555653729
 20
170.52055007856748
 10
120.16329249312058
 20
169.15117926881751
 10
117.19514181977185
 20
170.6352546054919
 10
118.56451262952176
 20
171.09171154207502
 10
119.70683555653729
 20
170.52055007856748
  0
LWPOLYLINE
  5
C4
330
17
100
AcDbEntity
  8
ENG_K
100
AcDbPolyline
 90
5
 70
1
 10
119.2330206168789
 20
149.76386366650996
 10
117.99905279463229
 20
149.35254105909456
 10
117.3771346080301
 20
149.97445924569664
 10
118.61110243027676
 20
150.385781853112
 10
119.2330206168789
 20
149.76386366650996
  0
LWPOLYLINE
  5
C5
330
17
100
AcDbEntity
  8
ENG_K
100
AcDbPolyline
 90
5
 70
1
 10
116.47047322896199
 20
161.20051043130746
 10
117.58223599771448
 20
160.088747662555
 10
117.58223599771448
 20
158.88873325354913
 10
115.79346531100522
 20
157.8154708415237
 10
116.47047322896199
 20
161.20051043130746
  0
LWPOLYLINE
  5
C6
330
17
100
AcDbEntity
  8
ENG_K
100
AcDbPolyline
 90
17
 70
1
 10
112.77690102541152
 20
175.04108349314674
 10
115.81215294496711
 20
171.4999562536652
 10
117.517780898136
 20
170.47657948176376
 10
115.62084655173965
 20
170.09719261248458
 10
114.52035809095857
 20
170.6474368428751
 10
113.1087643200127
 20
173.00009312778485
 10
111.5151381289045
 20
173.00009312778485
 10
110.82470711203536
 20
169.54793804343916
 10
109.77989179770466
 20
167.45830741477786
 10
108.90813662083389
 20
167.45830741477786
 10
108.90813662083389
 20
168.76284703943557
 10
109.39003103066058
 20
169.24474144926216
 10
109.39003103066058
 20
173.58179113770245
 10
109.8857054420644
 20
174.0774655491063
 10
110.19755880829405
 20
176.26043911271384
 10
111.82557216687316
 20
174.08975463460828
 10
112.77690102541152
 20
175.04108349314674
  0
LWPOLYLINE
  5
C7
330
17
100
AcDbEntity
  8
ENG_K
100
AcDbPolyline
 90
5
 70
1
 10
115.75995614800092
 20
158.7483622226683
 10
116.22990195275128
 20
157.33852480841713
 10
115.17276394858098
 20
157.33852480841713
 10
115.17276394858098
 20
158.16117002324813
 10
115.75995614800092
 20
158.7483622226683
  0
LWPOLYLINE
  5
C8
330
17
100
AcDbEntity
  8
ENG_K
100
AcDbPolyline
 90
5
 70
1
 10
115.74800754292458
 20
156.37473598876372
 10
114.69086953875427
 20
156.37473598876372
 10
114.69086953875427
 20
157.19738120359472
 10
115.27806173817424
 20
157.7845734030149
 10
115.74800754292458
 20
156.37473598876372
  0
LWPOLYLINE
  5
C9
330
17
100
AcDbEntity
  8
ENG_K
100
AcDbPolyline
 90
5
 70
1
 10
114.20897512892756
 20
154.447158349457
 10
114.20897512892756
 20
155.26980356428788
 10
114.79616732834754
 20
155.85699576370803
 10
115.26611313309789
 20
154.447158349457
 10
114.20897512892756
 20
154.447158349457
  0
LWPOLYLINE
  5
CA
330
17
100
AcDbEntity
  8
ENG_K
100
AcDbPolyline
 90
5
 70
1
 10
113.72708071910087
 20
153.00147511997687
 10
113.72708071910087
 20
153.82412033480784
 10
114.31427291852086
 20
154.41131253422802
 10
114.78421872327117
 20
153.00147511997687
 10
113.72708071910087
 20
153.00147511997687
  0
LWPOLYLINE
  5
CB
330
17
100
AcDbEntity
  8
ENG_K
100
AcDbPolyline
 90
8
 70
1
 10
113.42447826664844
 20
241.49663139030463
 10
110.86465317915884
 20
239.9607363378107
 10
109.80809586004963
 20
240.31292211084732
 10
110.18015493082594
 20
241.42909932317602
 10
111.21780506987643
 20
241.42909932317602
 10
114.20897512892762
 20
244.42026938222727
 10
114.74881214314908
 20
243.88043236800573
 10
113.42447826664844
 20
241.49663139030463
  0
LWPOLYLINE
  5
CC
330
17
100
AcDbEntity
  8
ENG_K
100
AcDbPolyline
 90
5
 70
1
 10
111.79950307979408
 20
184.66536256371657
 10
112.38669527921407
 20
185.25255476313652
 10
112.85664108396442
 20
183.84271734888557
 10
111.79950307979408
 20
183.84271734888557
 10
111.79950307979408
 20
184.66536256371657
  0
LWPOLYLINE
  5
CD
330
17
100
AcDbEntity
  8
ENG_K
100
AcDbPolyline
 90
6
 70
1
 10
111.69076025489085
 20
184.08211284355113
 10
111.87061168235016
 20
184.0849223363613
 10
112.26761748804365
 20
181.30588169650684
 10
113.10404270445179
 20
180.4694564800987
 10
111.28935399228503
 20
180.4694564800987
 10
111.69076025489085
 20
184.08211284355113
  0
LWPOLYLINE
  5
CE
330
17
100
AcDbEntity
  8
ENG_K
100
AcDbPolyline
 90
4
 70
1
 10
111.07666146505403
 20
179.40586406035442
 10
111.07666146505403
 20
181.0511544900162
 10
111.89930667988514
 20
180.2285092751853
 10
111.07666146505403
 20
179.40586406035442
  0
LWPOLYLINE
  5
CF
330
17
100
AcDbEntity
  8
ENG_K
100
AcDbPolyline
 90
8
 70
1
 10
108.73373528719544
 20
163.95973996757084
 10
109.7894321472823
 20
163.43189153752735
 10
110.73731802566527
 20
164.85372035510193
 10
111.79950307979409
 20
164.4996586703924
 10
111.79950307979409
 20
163.7442957409866
 10
109.95111869472443
 20
161.89591135591675
 10
108.38366760832082
 20
162.20940157319762
 10
108.73373528719544
 20
163.95973996757084
  0
LWPOLYLINE
  5
D0
330
17
100
AcDbEntity
  8
ENG_K
100
AcDbPolyline
 90
5
 70
1
 10
110.35381985031398
 20
177.43694641631612
 10
110.94101204973398
 20
178.02413861573606
 10
111.4109578544843
 20
176.61430120148515
 10
110.35381985031398
 20
176.61430120148515
 10
110.35381985031398
 20
177.43694641631612
  0
LWPOLYLINE
  5
D1
330
17
100
AcDbEntity
  8
CUT_SLOT
100
AcDbPolyline
 90
5
 70
1
 10
212.06830444319579
 20
144.56832294800958
 10
215.63240605833357
 20
144.56832294800958
 10
215.63240605833357
 20
289.13664589601916
 10
212.06830444319579
 20
289.13664589601916
 10
212.06830444319579
 20
144.56832294800958
  0
LWPOLYLINE
  5
D2
330
17
100
AcDbEntity
  8
CUT_SLOT
100
AcDbPolyline
 90
5
 70
1
 10
188.97429367561077
 20
144.56832294800958
 10
192.53839529074853
 20
144.56832294800958
 10
192.53839529074853
 20
289.13664589601916
 10
188.97429367561077
 20
289.13664589601916
 10
188.97429367561077
 20
144.56832294800958
  0
LWPOLYLINE
  5
D3
330
17
100
AcDbEntity
  8
CUT_SLOT
100
AcDbPolyline
 90
5
 70
1
 10
165.88028290802572
 20
144.56832294800958
 10
169.44438452316348
 20
144.56832294800958
 10
169.44438452316348
 20
289.13664589601916
 10
165.88028290802572
 20
289.13664589601916
 10
165.88028290802572
 20
144.56832294800958
  0
LWPOLYLINE
  5
D4
330
17
100
AcDbEntity
  8
CUT_SLOT
100
AcDbPolyline
 90
5
 70
1
 10
142.78627214044067
 20
144.56832294800958
 10
146.35037375557843
 20
144.56832294800958
 10
146.35037375557843
 20
289.13664589601916
 10
142.78627214044067
 20
289.13664589601916
 10
142.78627214044067
 20
144.56832294800958
  0
LWPOLYLINE
  5
D5
330
17
100
AcDbEntity
  8
CUT_SLOT
100
AcDbPolyline
 90
5
 70
1
 10
119.69226137285567
 20
144.56832294800958
 10
123.25636298799343
 20
144.56832294800958
 10
123.25636298799343
 20
289.13664589601916
 10
119.69226137285567
 20
289.13664589601916
 10
119.69226137285567
 20
144.56832294800958
  0
LWPOLYLINE
  5
D6
330
17
100
AcDbEntity
  8
CUT_SLOT
100
AcDbPolyline
 90
5
 70
1
 10
73.50423983768562
 20
144.56832294800958
 10
77.06834145282338
 20
144.56832294800958
 10
77.06834145282338
 20
289.13664589601916
 10
73.50423983768562
 20
289.13664589601916
 10
73.50423983768562
 20
144.56832294800958
  0
LWPOLYLINE
  5
D7
330
17
100
AcDbEntity
  8
CUT_SLOT
100
AcDbPolyline
 90
5
 70
1
 10
96.59825060527065
 20
144.56832294800958
 10
100.16235222040841
 20
144.56832294800958
 10
100.16235222040841
 20
289.13664589601916
 10
96.59825060527065
 20
289.13664589601916
 10
96.59825060527065
 20
144.56832294800958
  0
LWPOLYLINE
  5
D8
330
17
100
AcDbEntity
  8
CUT_SLOT
100
AcDbPolyline
 90
5
 70
1
 10
119.69226137285568
 20
144.56832294800958
 10
123.25636298799344
 20
144.56832294800958
 10
123.25636298799344
 20
289.13664589601916
 10
119.69226137285568
 20
289.13664589601916
 10
119.69226137285568
 20
144.56832294800958
  0
LWPOLYLINE
  5
D9
330
17
100
AcDbEntity
  8
CUT_SLOT
100
AcDbPolyline
 90
5
 70
1
 10
142.7862721404407
 20
144.56832294800958
 10
146.35037375557846
 20
144.56832294800958
 10
146.35037375557846
 20
289.13664589601916
 10
142.7862721404407
 20
289.13664589601916
 10
142.7862721404407
 20
144.56832294800958
  0
LWPOLYLINE
  5
DA
330
17
100
AcDbEntity
  8
CUT_SLOT
100
AcDbPolyline
 90
5
 70
1
 10
165.88028290802575
 20
144.56832294800958
 10
169.4443845231635
 20
144.56832294800958
 10
169.4443845231635
 20
289.13664589601916
 10
165.88028290802575
 20
289.13664589601916
 10
165.88028290802575
 20
144.56832294800958
  0
LWPOLYLINE
  5
DB
330
17
100
AcDbEntity
  8
CUT_OUTLINE
100
AcDbPolyline
 90
5
 70
1
 10
0.0
 20
0.0
 10
289.13664589601916
 20
0.0
 10
289.13664589601916
 20
289.13664589601916
 10
0.0
 20
289.13664589601916
 10
0.0
 20
0.0
  0
ENDSEC
  0
SECTION
  2
OBJECTS
  0
DICTIONARY
  5
A
330
0
100
AcDbDictionary
281
1
  3
ACAD_COLOR
350
B
  3
ACAD_GROUP
350
C
  3
ACAD_LAYOUT
350
D
  3
ACAD_MATERIAL
350
E
  3
ACAD_MLEADERSTYLE
350
F
  3
ACAD_MLINESTYLE
350
10
  3
ACAD_PLOTSETTINGS
350
11
  3
ACAD_PLOTSTYLENAME
350
12
  3
ACAD_SCALELIST
350
14
  3
ACAD_TABLESTYLE
350
15
  3
ACAD_VISUALSTYLE
350
16
  3
EZDXF_META
350
2D
  0
DICTIONARY
  5
B
330
A
100
AcDbDictionary
281
1
  0
DICTIONARY
  5
C
330
A
100
AcDbDictionary
281
1
  0
DICTIONARY
  5
D
330
A
100
AcDbDictionary
281
1
  3
Model
350
1A
  3
Layout1
350
1E
  0
DICTIONARY
  5
E
330
A
100
AcDbDictionary
281
1
  3
ByBlock
350
1F
  3
ByLayer
350
20
  3
Global
350
21
  0
DICTIONARY
  5
F
330
A
100
AcDbDictionary
281
1
  3
Standard
350
2C
  0
DICTIONARY
  5
10
330
A
100
AcDbDictionary
281
1
  3
Standard
350
22
  0
DICTIONARY
  5
11
330
A
100
AcDbDictionary
281
1
  0
ACDBDICTIONARYWDFLT
  5
12
330
A
100
AcDbDictionary
281
1
  3
Normal
350
13
100
AcDbDictionaryWithDefault
340
13
  0
ACDBPLACEHOLDER
  5
13
330
12
  0
DICTIONARY
  5
14
330
A
100
AcDbDictionary
281
1
  0
DICTIONARY
  5
15
330
A
100
AcDbDictionary
281
1
  0
DICTIONARY
  5
16
330
A
100
AcDbDictionary
281
1
  0
LAYOUT
  5
1A
330
D
100
AcDbPlotSettings
  1

  4
A3
  6

 40
7.5
 41
20.0
 42
7.5
 43
20.0
 44
420.0
 45
297.0
 46
0.0
 47
0.0
 48
0.0
 49
0.0
140
0.0
141
0.0
142
1.0
143
1.0
 70
1024
 72
1
 73
0
 74
5
  7

 75
16
 76
0
 77
2
 78
300
147
1.0
148
0.0
149
0.0
100
AcDbLayout
  1
Model
 70
1
 71
0
 10
0.0
 20
0.0
 11
420.0
 21
297.0
 12
0.0
 22
0.0
 32
0.0
 14
1e+20
 24
1e+20
 34
1e+20
 15
-1e+20
 25
-1e+20
 35
-1e+20
146
0.0
 13
0.0
 23
0.0
 33
0.0
 16
1.0
 26
0.0
 36
0.0
 17
0.0
 27
1.0
 37
0.0
 76
1
330
17
  0
LAYOUT
  5
1E
330
D
100
AcDbPlotSettings
  1

  4
A3
  6

 40
7.5
 41
20.0
 42
7.5
 43
20.0
 44
420.0
 45
297.0
 46
0.0
 47
0.0
 48
0.0
 49
0.0
140
0.0
141
0.0
142
1.0
143
1.0
 70
0
 72
1
 73
0
 74
5
  7

 75
16
 76
0
 77
2
 78
300
147
1.0
148
0.0
149
0.0
100
AcDbLayout
  1
Layout1
 70
1
 71
1
 10
0.0
 20
0.0
 11
420.0
 21
297.0
 12
0.0
 22
0.0
 32
0.0
 14
1e+20
 24
1e+20
 34
1e+20
 15
-1e+20
 25
-1e+20
 35
-1e+20
146
0.0
 13
0.0
 23
0.0
 33
0.0
 16
1.0
 26
0.0
 36
0.0
 17
0.0
 27
1.0
 37
0.0
 76
1
330
1B
  0
MATERIAL
  5
1F
102
{ACAD_REACTORS
330
E
102
}
330
E
100
AcDbMaterial
  1
ByBlock
  2

 70
0
 40
1.0
 71
1
 41
1.0
 91
-1023410177
 42
1.0
 72
1
  3

 73
1
 74
1
 75
1
 44
0.5
 73
0
 45
1.0
 46
1.0
 77
1
  4

 78
1
 79
1
170
1
 48
1.0
171
1
  6

172
1
173
1
174
1
140
1.0
141
1.0
175
1
  7

176
1
177
1
178
1
143
1.0
179
1
  8

270
1
271
1
272
1
145
1.0
146
1.0
273
1
  9

274
1
275
1
276
1
 42
1.0
 72
1
  3

 73
1
 74
1
 75
1
 94
63
  0
MATERIAL
  5
20
102
{ACAD_REACTORS
330
E
102
}
330
E
100
AcDbMaterial
  1
ByLayer
  2

 70
0
 40
1.0
 71
1
 41
1.0
 91
-1023410177
 42
1.0
 72
1
  3

 73
1
 74
1
 75
1
 44
0.5
 73
0
 45
1.0
 46
1.0
 77
1
  4

 78
1
 79
1
170
1
 48
1.0
171
1
  6

172
1
173
1
174
1
140
1.0
141
1.0
175
1
  7

176
1
177
1
178
1
143
1.0
179
1
  8

270
1
271
1
272
1
145
1.0
146
1.0
273
1
  9

274
1
275
1
276
1
 42
1.0
 72
1
  3

 73
1
 74
1
 75
1
 94
63
  0
MATERIAL
  5
21
102
{ACAD_REACTORS
330
E
102
}
330
E
100
AcDbMaterial
  1
Global
  2

 70
0
 40
1.0
 71
1
 41
1.0
 91
-1023410177
 42
1.0
 72
1
  3

 73
1
 74
1
 75
1
 44
0.5
 73
0
 45
1.0
 46
1.0
 77
1
  4

 78
1
 79
1
170
1
 48
1.0
171
1
  6

172
1
173
1
174
1
140
1.0
141
1.0
175
1
  7

176
1
177
1
178
1
143
1.0
179
1
  8

270
1
271
1
272
1
145
1.0
146
1.0
273
1
  9

274
1
275
1
276
1
 42
1.0
 72
1
  3

 73
1
 74
1
 75
1
 94
63
  0
MLINESTYLE
  5
22
102
{ACAD_REACTORS
330
10
102
}
330
10
100
AcDbMlineStyle
  2
Standard
 70
0
  3

 62
256
 51
90.0
 52
90.0
 71
2
 49
0.5
 62
256
  6
BYLAYER
 49
-0.5
 62
256
  6
BYLAYER
  0
MLEADERSTYLE
  5
2C
102
{ACAD_REACTORS
330
F
102
}
330
F
100
AcDbMLeaderStyle
179
2
170
2
171
1
172
0
 90
2
 40
0.0
 41
0.0
173
1
 91
-1056964608
 92
-2
290
1
 42
2.0
291
1
 43
8.0
  3
Standard
 44
4.0
300

342
29
174
1
175
1
176
0
178
1
 93
-1056964608
 45
4.0
292
0
297
0
 46
4.0
 94
-1056964608
 47
1.0
 49
1.0
140
1.0
294
1
141
0.0
177
0
142
1.0
295
0
296
0
143
3.75
271
0
272
9
273
9
  0
DICTIONARY
  5
2D
330
A
100
AcDbDictionary
280
1
281
1
  3
CREATED_BY_EZDXF
350
2E
  3
WRITTEN_BY_EZDXF
350
DE
  0
DICTIONARYVAR
  5
2E
330
2D
100
DictionaryVariables
280
0
  1
1.4.4 @ 2026-08-03T11:55:52.899371+00:00
  0
DICTIONARYVAR
  5
DE
330
2D
100
DictionaryVariables
280
0
  1
1.4.4 @ 2026-08-03T11:55:52.916871+00:00
  0
ENDSEC
  0
EOF
