  0
SECTION
  2
HEADER
  9
$ACADVER
  1
AC1027
  9
$ACADMAINTVER
 70
105
  9
$DWGCODEPAGE
  3
ANSI_1252
  9
$LASTSAVEDBY
  1
ezdxf
  9
$REQUIREDVERSIONS
160
0
  9
$INSBASE
 10
0.0
 20
0.0
 30
0.0
  9
$EXTMIN
 10
1e+20
 20
1e+20
 30
1e+20
  9
$EXTMAX
 10
-1e+20
 20
-1e+20
 30
-1e+20
  9
$LIMMIN
 10
0.0
 20
0.0
  9
$LIMMAX
 10
420.0
 20
297.0
  9
$ORTHOMODE
 70
0
  9
$REGENMODE
 70
1
  9
$FILLMODE
 70
1
  9
$QTEXTMODE
 70
0
  9
$MIRRTEXT
 70
1
  9
$LTSCALE
 40
1.0
  9
$ATTMODE
 70
1
  9
$TEXTSIZE
 40
2.5
  9
$TRACEWID
 40
1.0
  9
$TEXTSTYLE
  7
Standard
  9
$CLAYER
  8
0
  9
$CELTYPE
  6
ByLayer
  9
$CECOLOR
 62
256
  9
$CELTSCALE
 40
1.0
  9
$DISPSILH
 70
0
  9
$DIMSCALE
 40
1.0
  9
$DIMASZ
 40
2.5
  9
$DIMEXO
 40
0.625
  9
$DIMDLI
 40
3.75
  9
$DIMRND
 40
0.0
  9
$DIMDLE
 40
0.0
  9
$DIMEXE
 40
1.25
  9
$DIMTP
 40
0.0
  9
$DIMTM
 40
0.0
  9
$DIMTXT
 40
2.5
  9
$DIMCEN
 40
2.5
  9
$DIMTSZ
 40
0.0
  9
$DIMTOL
 70
0
  9
$DIMLIM
 70
0
  9
$DIMTIH
 70
0
  9
$DIMTOH
 70
0
  9
$DIMSE1
 70
0
  9
$DIMSE2
 70
0
  9
$DIMTAD
 70
1
  9
$DIMZIN
 70
8
  9
$DIMBLK
  1

  9
$DIMASO
 70
1
  9
$DIMSHO
 70
1
  9
$DIMPOST
  1

  9
$DIMAPOST
  1

  9
$DIMALT
 70
0
  9
$DIMALTD
 70
3
  9
$DIMALTF
 40
0.03937007874
  9
$DIMLFAC
 40
1.0
  9
$DIMTOFL
 70
1
  9
$DIMTVP
 40
0.0
  9
$DIMTIX
 70
0
  9
$DIMSOXD
 70
0
  9
$DIMSAH
 70
0
  9
$DIMBLK1
  1

  9
$DIMBLK2
  1

  9
$DIMSTYLE
  2
ISO-25
  9
$DIMCLRD
 70
0
  9
$DIMCLRE
 70
0
  9
$DIMCLRT
 70
0
  9
$DIMTFAC
 40
1.0
  9
$DIMGAP
 40
0.625
  9
$DIMJUST
 70
0
  9
$DIMSD1
 70
0
  9
$DIMSD2
 70
0
  9
$DIMTOLJ
 70
0
  9
$DIMTZIN
 70
8
  9
$DIMALTZ
 70
0
  9
$DIMALTTZ
 70
0
  9
$DIMUPT
 70
0
  9
$DIMDEC
 70
2
  9
$DIMTDEC
 70
2
  9
$DIMALTU
 70
2
  9
$DIMALTTD
 70
3
  9
$DIMTXSTY
  7
Standard
  9
$DIMAUNIT
 70
0
  9
$DIMADEC
 70
0
  9
$DIMALTRND
 40
0.0
  9
$DIMAZIN
 70
0
  9
$DIMDSEP
 70
44
  9
$DIMATFIT
 70
3
  9
$DIMFRAC
 70
0
  9
$DIMLDRBLK
  1

  9
$DIMLUNIT
 70
2
  9
$DIMLWD
 70
-2
  9
$DIMLWE
 70
-2
  9
$DIMTMOVE
 70
0
  9
$DIMFXL
 40
1.0
  9
$DIMFXLON
 70
0
  9
$DIMJOGANG
 40
0.785398163397
  9
$DIMTFILL
 70
0
  9
$DIMTFILLCLR
 70
0
  9
$DIMARCSYM
 70
0
  9
$DIMLTYPE
  6

  9
$DIMLTEX1
  6

  9
$DIMLTEX2
  6

  9
$DIMTXTDIRECTION
 70
0
  9
$LUNITS
 70
2
  9
$LUPREC
 70
4
  9
$SKETCHINC
 40
1.0
  9
$FILLETRAD
 40
10.0
  9
$AUNITS
 70
0
  9
$AUPREC
 70
2
  9
$MENU
  1
.
  9
$ELEVATION
 40
0.0
  9
$PELEVATION
 40
0.0
  9
$THICKNESS
 40
0.0
  9
$LIMCHECK
 70
0
  9
$CHAMFERA
 40
0.0
  9
$CHAMFERB
 40
0.0
  9
$CHAMFERC
 40
0.0
  9
$CHAMFERD
 40
0.0
  9
$SKPOLY
 70
0
  9
$TDCREATE
 40
2461256.62212963
  9
$TDUCREATE
 40
2458532.153996898
  9
$TDUPDATE
 40
2461256.622141204
  9
$TDUUPDATE
 40
2458532.1544311
  9
$TDINDWG
 40
0.0
  9
$TDUSRTIMER
 40
0.0
  9
$USRTIMER
 70
1
  9
$ANGBASE
 50
0.0
  9
$ANGDIR
 70
0
  9
$PDMODE
 70
0
  9
$PDSIZE
 40
0.0
  9
$PLINEWID
 40
0.0
  9
$SPLFRAME
 70
0
  9
$SPLINETYPE
 70
6
  9
$SPLINESEGS
 70
8
  9
$HANDSEED
  5
20E
  9
$SURFTAB1
 70
6
  9
$SURFTAB2
 70
6
  9
$SURFTYPE
 70
6
  9
$SURFU
 70
6
  9
$SURFV
 70
6
  9
$UCSBASE
  2

  9
$UCSNAME
  2

  9
$UCSORG
 10
0.0
 20
0.0
 30
0.0
  9
$UCSXDIR
 10
1.0
 20
0.0
 30
0.0
  9
$UCSYDIR
 10
0.0
 20
1.0
 30
0.0
  9
$UCSORTHOREF
  2

  9
$UCSORTHOVIEW
 70
0
  9
$UCSORGTOP
 10
0.0
 20
0.0
 30
0.0
  9
$UCSORGBOTTOM
 10
0.0
 20
0.0
 30
0.0
  9
$UCSORGLEFT
 10
0.0
 20
0.0
 30
0.0
  9
$UCSORGRIGHT
 10
0.0
 20
0.0
 30
0.0
  9
$UCSORGFRONT
 10
0.0
 20
0.0
 30
0.0
  9
$UCSORGBACK
 10
0.0
 20
0.0
 30
0.0
  9
$PUCSBASE
  2

  9
$PUCSNAME
  2

  9
$PUCSORG
 10
0.0
 20
0.0
 30
0.0
  9
$PUCSXDIR
 10
1.0
 20
0.0
 30
0.0
  9
$PUCSYDIR
 10
0.0
 20
1.0
 30
0.0
  9
$PUCSORTHOREF
  2

  9
$PUCSORTHOVIEW
 70
0
  9
$PUCSORGTOP
 10
0.0
 20
0.0
 30
0.0
  9
$PUCSORGBOTTOM
 10
0.0
 20
0.0
 30
0.0
  9
$PUCSORGLEFT
 10
0.0
 20
0.0
 30
0.0
  9
$PUCSORGRIGHT
 10
0.0
 20
0.0
 30
0.0
  9
$PUCSORGFRONT
 10
0.0
 20
0.0
 30
0.0
  9
$PUCSORGBACK
 10
0.0
 20
0.0
 30
0.0
  9
$USERI1
 70
0
  9
$USERI2
 70
0
  9
$USERI3
 70
0
  9
$USERI4
 70
0
  9
$USERI5
 70
0
  9
$USERR1
 40
0.0
  9
$USERR2
 40
0.0
  9
$USERR3
 40
0.0
  9
$USERR4
 40
0.0
  9
$USERR5
 40
0.0
  9
$WORLDVIEW
 70
1
  9
$SHADEDGE
 70
3
  9
$SHADEDIF
 70
70
  9
$TILEMODE
 70
1
  9
$MAXACTVP
 70
64
  9
$PINSBASE
 10
0.0
 20
0.0
 30
0.0
  9
$PLIMCHECK
 70
0
  9
$PEXTMIN
 10
1e+20
 20
1e+20
 30
1e+20
  9
$PEXTMAX
 10
-1e+20
 20
-1e+20
 30
-1e+20
  9
$PLIMMIN
 10
0.0
 20
0.0
  9
$PLIMMAX
 10
420.0
 20
297.0
  9
$UNITMODE
 70
0
  9
$VISRETAIN
 70
1
  9
$PLINEGEN
 70
0
  9
$PSLTSCALE
 70
1
  9
$TREEDEPTH
 70
3020
  9
$CMLSTYLE
  2
Standard
  9
$CMLJUST
 70
0
  9
$CMLSCALE
 40
20.0
  9
$PROXYGRAPHICS
 70
1
  9
$MEASUREMENT
 70
1
  9
$CELWEIGHT
370
-1
  9
$ENDCAPS
280
0
  9
$JOINSTYLE
280
0
  9
$LWDISPLAY
290
0
  9
$INSUNITS
 70
4
  9
$HYPERLINKBASE
  1

  9
$STYLESHEET
  1

  9
$XEDIT
290
1
  9
$CEPSNTYPE
380
0
  9
$PSTYLEMODE
290
1
  9
$FINGERPRINTGUID
  2
{7B5FF5D5-E715-4784-BACD-68FA12CAEC11}
  9
$VERSIONGUID
  2
{4D7D18AE-E841-4734-B6DB-83DABA2B2221}
  9
$EXTNAMES
290
1
  9
$PSVPSCALE
 40
0.0
  9
$OLESTARTUP
290
0
  9
$SORTENTS
280
127
  9
$INDEXCTL
280
0
  9
$HIDETEXT
280
1
  9
$XCLIPFRAME
280
1
  9
$HALOGAP
280
0
  9
$OBSCOLOR
 70
257
  9
$OBSLTYPE
280
0
  9
$INTERSECTIONDISPLAY
280
0
  9
$INTERSECTIONCOLOR
 70
257
  9
$DIMASSOC
280
2
  9
$PROJECTNAME
  1

  9
$CAMERADISPLAY
290
0
  9
$LENSLENGTH
 40
50.0
  9
$CAMERAHEIGHT
 40
0.0
  9
$STEPSPERSEC
 40
24.0
  9
$STEPSIZE
 40
100.0
  9
$3DDWFPREC
 40
2.0
  9
$PSOLWIDTH
 40
0.005
  9
$PSOLHEIGHT
 40
0.08
  9
$LOFTANG1
 40
1.570796326795
  9
$LOFTANG2
 40
1.570796326795
  9
$LOFTMAG1
 40
0.0
  9
$LOFTMAG2
 40
0.0
  9
$LOFTPARAM
 70
7
  9
$LOFTNORMALS
280
1
  9
$LATITUDE
 40
37.795
  9
$LONGITUDE
 40
-122.394
  9
$NORTHDIRECTION
 40
0.0
  9
$TIMEZONE
 70
-8000
  9
$LIGHTGLYPHDISPLAY
280
1
  9
$TILEMODELIGHTSYNCH
280
1
  9
$CMATERIAL
347
20
  9
$SOLIDHIST
280
0
  9
$SHOWHIST
280
1
  9
$DWFFRAME
280
2
  9
$DGNFRAME
280
2
  9
$REALWORLDSCALE
290
1
  9
$INTERFERECOLOR
 62
256
  9
$CSHADOW
280
0
  9
$SHADOWPLANELOCATION
 40
0.0
  0
ENDSEC
  0
SECTION
  2
CLASSES
  0
CLASS
  1
ACDBDICTIONARYWDFLT
  2
AcDbDictionaryWithDefault
  3
ObjectDBX Classes
 90
0
 91
0
280
0
281
0
  0
CLASS
  1
SUN
  2
AcDbSun
  3
SCENEOE
 90
1153
 91
0
280
0
281
0
  0
CLASS
  1
VISUALSTYLE
  2
AcDbVisualStyle
  3
ObjectDBX Classes
 90
4095
 91
0
280
0
281
0
  0
CLASS
  1
MATERIAL
  2
AcDbMaterial
  3
ObjectDBX Classes
 90
1153
 91
0
280
0
281
0
  0
CLASS
  1
SCALE
  2
AcDbScale
  3
ObjectDBX Classes
 90
1153
 91
0
280
0
281
0
  0
CLASS
  1
TABLESTYLE
  2
AcDbTableStyle
  3
ObjectDBX Classes
 90
4095
 91
0
280
0
281
0
  0
CLASS
  1
MLEADERSTYLE
  2
AcDbMLeaderStyle
  3
ACDB_MLEADERSTYLE_CLASS
 90
4095
 91
0
280
0
281
0
  0
CLASS
  1
DICTIONARYVAR
  2
AcDbDictionaryVar
  3
ObjectDBX Classes
 90
0
 91
0
280
0
281
0
  0
CLASS
  1
CELLSTYLEMAP
  2
AcDbCellStyleMap
  3
ObjectDBX Classes
 90
1152
 91
0
280
0
281
0
  0
CLASS
  1
MENTALRAYRENDERSETTINGS
  2
AcDbMentalRayRenderSettings
  3
SCENEOE
 90
1024
 91
0
280
0
281
0
  0
CLASS
  1
ACDBDETAILVIEWSTYLE
  2
AcDbDetailViewStyle
  3
ObjectDBX Classes
 90
1025
 91
0
280
0
281
0
  0
CLASS
  1
ACDBSECTIONVIEWSTYLE
  2
AcDbSectionViewStyle
  3
ObjectDBX Classes
 90
1025
 91
0
280
0
281
0
  0
CLASS
  1
RASTERVARIABLES
  2
AcDbRasterVariables
  3
ISM
 90
0
 91
0
280
0
281
0
  0
CLASS
  1
ACDBPLACEHOLDER
  2
AcDbPlaceHolder
  3
ObjectDBX Classes
 90
0
 91
0
280
0
281
0
  0
CLASS
  1
LAYOUT
  2
AcDbLayout
  3
ObjectDBX Classes
 90
0
 91
0
280
0
281
0
  0
ENDSEC
  0
SECTION
  2
TABLES
  0
TABLE
  2
VPORT
  5
8
330
0
100
AcDbSymbolTable
 70
1
  0
VPORT
  5
23
330
8
100
AcDbSymbolTableRecord
100
AcDbViewportTableRecord
  2
*Active
 70
0
 10
0.0
 20
0.0
 11
1.0
 21
1.0
 12
0.0
 22
0.0
 13
0.0
 23
0.0
 14
0.5
 24
0.5
 15
0.5
 25
0.5
 16
0.0
 26
0.0
 36
1.0
 17
0.0
 27
0.0
 37
0.0
 40
1000.0
 41
1.34
 42
50.0
 43
0.0
 44
0.0
 50
0.0
 51
0.0
 71
0
 72
1000
 73
1
 74
3
 75
0
 76
0
 77
0
 78
0
281
0
 65
0
146
0.0
  0
ENDTAB
  0
TABLE
  2
LTYPE
  5
2
330
0
100
AcDbSymbolTable
 70
3
  0
LTYPE
  5
24
330
2
100
AcDbSymbolTableRecord
100
AcDbLinetypeTableRecord
  2
ByBlock
 70
0
  3

 72
65
 73
0
 40
0.0
  0
LTYPE
  5
25
330
2
100
AcDbSymbolTableRecord
100
AcDbLinetypeTableRecord
  2
ByLayer
 70
0
  3

 72
65
 73
0
 40
0.0
  0
LTYPE
  5
26
330
2
100
AcDbSymbolTableRecord
100
AcDbLinetypeTableRecord
  2
Continuous
 70
0
  3

 72
65
 73
0
 40
0.0
  0
ENDTAB
  0
TABLE
  2
LAYER
  5
1
330
0
100
AcDbSymbolTable
 70
7
  0
LAYER
  5
27
330
1
100
AcDbSymbolTableRecord
100
AcDbLayerTableRecord
  2
0
 70
0
 62
7
  6
Continuous
370
-3
390
13
347
21
  0
LAYER
  5
28
330
1
100
AcDbSymbolTableRecord
100
AcDbLayerTableRecord
  2
Defpoints
 70
0
 62
7
  6
Continuous
290
0
370
-3
390
13
347
21
  0
LAYER
  5
2F
330
1
100
AcDbSymbolTableRecord
100
AcDbLayerTableRecord
  2
ENG_L
 70
0
 62
4
  6
Continuous
370
-3
390
13
347
21
  0
LAYER
  5
30
330
1
100
AcDbSymbolTableRecord
100
AcDbLayerTableRecord
  2
ENG_D
 70
0
 62
3
  6
Continuous
370
-3
390
13
347
21
  0
LAYER
  5
31
330
1
100
AcDbSymbolTableRecord
100
AcDbLayerTableRecord
  2
ENG_K
 70
0
 62
2
  6
Continuous
370
-3
390
13
347
21
  0
LAYER
  5
32
330
1
100
AcDbSymbolTableRecord
100
AcDbLayerTableRecord
  2
CUT_OUTLINE
 70
0
 62
5
  6
Continuous
370
-3
390
13
347
21
  0
LAYER
  5
33
330
1
100
AcDbSymbolTableRecord
100
AcDbLayerTableRecord
  2
CUT_SLOT
 70
0
 62
1
  6
Continuous
370
-3
390
13
347
21
  0
ENDTAB
  0
TABLE
  2
STYLE
  5
5
330
0
100
AcDbSymbolTable
 70
1
  0
STYLE
  5
29
330
5
100
AcDbSymbolTableRecord
100
AcDbTextStyleTableRecord
  2
Standard
 70
0
 40
0.0
 41
1.0
 50
0.0
 71
0
 42
2.5
  3
txt
  4

  0
ENDTAB
  0
TABLE
  2
VIEW
  5
7
330
0
100
AcDbSymbolTable
 70
0
  0
ENDTAB
  0
TABLE
  2
UCS
  5
6
330
0
100
AcDbSymbolTable
 70
0
  0
ENDTAB
  0
TABLE
  2
APPID
  5
3
330
0
100
AcDbSymbolTable
 70
3
  0
APPID
  5
2A
330
3
100
AcDbSymbolTableRecord
100
AcDbRegAppTableRecord
  2
ACAD
 70
0
  0
APPID
  5
20B
330
3
100
AcDbSymbolTableRecord
100
AcDbRegAppTableRecord
  2
HATCHBACKGROUNDCOLOR
 70
0
  0
APPID
  5
20C
330
3
100
AcDbSymbolTableRecord
100
AcDbRegAppTableRecord
  2
EZDXF
 70
0
  0
ENDTAB
  0
TABLE
  2
DIMSTYLE
  5
4
330
0
100
AcDbSymbolTable
 70
1
100
AcDbDimStyleTable
  0
DIMSTYLE
105
2B
330
4
100
AcDbSymbolTableRecord
100
AcDbDimStyleTableRecord
  2
Standard
 70
0
 40
1.0
 41
2.5
 42
0.625
 43
3.75
 44
1.25
 45
0.0
 46
0.0
 47
0.0
 48
0.0
 49
2.5
140
2.5
141
2.5
142
0.0
143
0.03937007874
144
1.0
145
0.0
146
1.0
147
0.625
148
0.0
 69
0
 70
0
 71
0
 72
0
 73
0
 74
0
 75
0
 76
0
 77
1
 78
8
 79
3
170
0
171
3
172
1
173
0
174
0
175
0
176
0
177
0
178
0
179
2
271
2
272
2
273
2
274
3
275
0
276
0
277
2
278
44
279
0
280
0
281
0
282
0
283
0
284
8
285
0
286
0
288
0
289
3
290
0
371
-2
372
-2
  0
ENDTAB
  0
TABLE
  2
BLOCK_RECORD
  5
9
330
0
100
AcDbSymbolTable
 70
2
  0
BLOCK_RECORD
  5
17
330
9
100
AcDbSymbolTableRecord
100
AcDbBlockTableRecord
  2
*Model_Space
340
1A
 70
0
280
1
281
0
  0
BLOCK_RECORD
  5
1B
330
9
100
AcDbSymbolTableRecord
100
AcDbBlockTableRecord
  2
*Paper_Space
340
1E
 70
0
280
1
281
0
  0
ENDTAB
  0
ENDSEC
  0
SECTION
  2
BLOCKS
  0
BLOCK
  5
18
330
17
100
AcDbEntity
  8
0
100
AcDbBlockBegin
  2
*Model_Space
 70
0
 10
0.0
 20
0.0
 30
0.0
  3
*Model_Space
  1

  0
ENDBLK
  5
19
330
17
100
AcDbEntity
  8
0
100
AcDbBlockEnd
  0
BLOCK
  5
1C
330
1B
100
AcDbEntity
  8
0
100
AcDbBlockBegin
  2
*Paper_Space
 70
0
 10
0.0
 20
0.0
 30
0.0
  3
*Paper_Space
  1

  0
ENDBLK
  5
1D
330
1B
100
AcDbEntity
  8
0
100
AcDbBlockEnd
  0
ENDSEC
  0
SECTION
  2
ENTITIES
  0
LWPOLYLINE
  5
34
330
17
100
AcDbEntity
  8
ENG_L
100
AcDbPolyline
 90
4
 70
1
 10
215.64774839744763
 20
100.09289363913109
 10
216.4703936122787
 20
99.27024842429988
 10
215.64774839744763
 20
98.447603209469
 10
215.64774839744763
 20
100.09289363913109
  0
LWPOLYLINE
  5
35
330
17
100
AcDbEntity
  8
ENG_L
100
AcDbPolyline
 90
5
 70
1
 10
216.07330703260504
 20
109.63097823557399
 10
214.62707965844595
 20
109.63097823557399
 10
211.9188629894447
 20
110.98508657007467
 10
215.05196834175095
 20
111.33320938699754
 10
216.07330703260504
 20
109.63097823557399
  0
LWPOLYLINE
  5
36
330
17
100
AcDbEntity
  8
ENG_L
100
AcDbPolyline
 90
7
 70
1
 10
213.08936278618341
 20
99.02930121938658
 10
211.98131248393437
 20
101.24540182388475
 10
212.9973291434008
 20
102.26141848335114
 10
213.52679931350542
 20
101.73194831324639
 10
214.72213008992256
 20
102.32961370145499
 10
214.4221016824618
 20
99.02930121938658
 10
213.08936278618341
 20
99.02930121938658
  0
LWPOLYLINE
  5
37
330
17
100
AcDbEntity
  8
ENG_L
100
AcDbPolyline
 90
4
 70
1
 10
214.54281597297194
 20
102.64350929308685
 10
213.72017075814085
 20
101.82086407825564
 10
213.72017075814085
 20
103.46615450791774
 10
214.54281597297194
 20
102.64350929308685
  0
LWPOLYLINE
  5
38
330
17
100
AcDbEntity
  8
ENG_L
100
AcDbPolyline
 90
7
 70
1
 10
212.46497301950512
 20
104.2796780134112
 10
212.6998001133804
 20
103.5751967317854
 10
214.2088955122443
 20
103.2733776520125
 10
213.08251684465193
 20
102.14699898442025
 10
211.03809806500388
 20
102.4390588100843
 10
211.35394954520766
 20
104.65001917151051
 10
212.46497301950512
 20
104.2796780134112
  0
LWPOLYLINE
  5
39
330
17
100
AcDbEntity
  8
ENG_L
100
AcDbPolyline
 90
16
 70
1
 10
208.0482298193158
 20
107.4928050170807
 10
207.19455945972513
 20
107.77736180361086
 10
207.51237874196275
 20
110.63773534374933
 10
208.1783850451338
 20
109.9717290405784
 10
209.29014781388628
 20
111.08349180933075
 10
209.59196689365905
 20
109.57439641046696
 10
209.98390825241964
 20
109.44374929088008
 10
210.5580283576452
 20
110.59198950133108
 10
211.7062685680963
 20
108.86962918565457
 10
212.9025289115166
 20
108.47087573784763
 10
211.59132936248346
 20
107.81527596333108
 10
212.05943343504595
 20
105.94285967308126
 10
211.0323023256968
 20
104.9157285637321
 10
209.97701165371788
 20
106.49866457170043
 10
209.04237026469613
 20
106.49866457170043
 10
208.0482298193158
 20
107.4928050170807
  0
LWPOLYLINE
  5
3A
330
17
100
AcDbEntity
  8
ENG_L
100
AcDbPolyline
 90
4
 70
1
 10
208.84313966026426
 20
107.76639073924498
 10
209.86501547952724
 20
107.91237299913969
 10
209.86501547952724
 20
108.2773286488764
 10
208.84313966026426
 20
107.76639073924498
  0
LWPOLYLINE
  5
3B
330
17
100
AcDbEntity
  8
ENG_L
100
AcDbPolyline
 90
8
 70
1
 10
208.6602794549605
 20
98.54740680955987
 10
208.6602794549605
 20
101.09802246351573
 10
208.1783850451338
 20
101.57991687334244
 10
208.1783850451338
 20
102.76750503655585
 10
210.18552395708605
 20
104.20117568795028
 10
211.5516459139207
 20
101.74215616564786
 10
211.5516459139207
 20
98.54740680955987
 10
208.6602794549605
 20
98.54740680955987
  0
LWPOLYLINE
  5
3C
330
17
100
AcDbEntity
  8
ENG_L
100
AcDbPolyline
 90
4
 70
1
 10
210.34690988935395
 20
110.01306904530949
 10
210.34690988935395
 20
111.6583594749716
 10
211.16955510418504
 20
110.83571426014072
 10
210.34690988935395
 20
110.01306904530949
  0
LWPOLYLINE
  5
3D
330
17
100
AcDbEntity
  8
ENG_L
100
AcDbPolyline
 90
4
 70
1
 10
210.68766069435833
 20
111.31760866996743
 10
209.86501547952724
 20
110.4949634551362
 10
209.86501547952724
 20
112.14025388479831
 10
210.68766069435833
 20
111.31760866996743
  0
LWPOLYLINE
  5
3E
330
17
100
AcDbEntity
  8
ENG_L
100
AcDbPolyline
 90
6
 70
1
 10
210.5878570942673
 20
105.634679352138
 10
210.5878570942673
 20
104.33013972748029
 10
209.71610191739654
 20
104.33013972748029
 10
209.1229778111901
 20
105.51638793989315
 10
209.51877048502064
 20
106.70376596138465
 10
210.5878570942673
 20
105.634679352138
  0
LWPOLYLINE
  5
3F
330
17
100
AcDbEntity
  8
ENG_L
100
AcDbPolyline
 90
4
 70
1
 10
209.86501547952724
 20
111.1764650651449
 10
210.68766069435833
 20
110.35381985031401
 10
209.86501547952724
 20
109.53117463548278
 10
209.86501547952724
 20
111.1764650651449
  0
LWPOLYLINE
  5
40
330
17
100
AcDbEntity
  8
ENG_L
100
AcDbPolyline
 90
5
 70
1
 10
209.55899066170505
 20
96.34415597815772
 10
208.93707247510284
 20
96.96607416475977
 10
210.17104029734946
 20
97.37739677217516
 10
210.79295848395165
 20
96.7554785855731
 10
209.55899066170505
 20
96.34415597815772
  0
LWPOLYLINE
  5
41
330
17
100
AcDbEntity
  8
ENG_L
100
AcDbPolyline
 90
12
 70
1
 10
205.2594610284178
 20
118.10770273217108
 10
204.77868883372676
 20
119.5500193162442
 10
206.200621161233
 20
121.54072457475284
 10
208.66027945496052
 20
119.62765701296485
 10
208.66027945496052
 20
118.12101032688915
 10
209.6240682746139
 20
116.19343268758232
 10
209.6240682746139
 20
113.34498990936514
 10
211.11134960237402
 20
111.85770858160504
 10
207.10557791133053
 20
112.7821174333844
 10
204.37171432429264
 20
115.01891491368809
 10
203.8001766603978
 20
116.16199024147778
 10
205.2594610284178
 20
118.10770273217108
  0
LWPOLYLINE
  5
42
330
17
100
AcDbEntity
  8
ENG_L
100
AcDbPolyline
 90
4
 70
1
 10
209.7238718747049
 20
104.08919252256688
 10
208.90122665987386
 20
103.26654730773599
 10
208.90122665987386
 20
104.91183773739809
 10
209.7238718747049
 20
104.08919252256688
  0
LWPOLYLINE
  5
43
330
17
100
AcDbEntity
  8
ENG_L
100
AcDbPolyline
 90
5
 70
1
 10
209.17904112129312
 20
104.33013972748029
 10
208.1783850451338
 20
104.33013972748029
 10
208.1783850451338
 20
106.1165737619647
 10
208.83065485746272
 20
106.7688435742935
 10
209.17904112129312
 20
104.33013972748029
  0
LWPOLYLINE
  5
44
330
17
100
AcDbEntity
  8
ENG_L
100
AcDbPolyline
 90
4
 70
1
 10
208.76008305505152
 20
97.34267078499315
 10
207.93743784022044
 20
96.52002557016192
 10
207.93743784022044
 20
98.16531599982403
 10
208.76008305505152
 20
97.34267078499315
  0
LWPOLYLINE
  5
45
330
17
100
AcDbEntity
  8
ENG_L
100
AcDbPolyline
 90
4
 70
1
 10
207.45554343039376
 20
102.30275848808246
 10
207.45554343039376
 20
103.94804891774479
 10
208.27818864522482
 20
103.12540370291346
 10
207.45554343039376
 20
102.30275848808246
  0
LWPOLYLINE
  5
46
330
17
100
AcDbEntity
  8
ENG_L
100
AcDbPolyline
 90
4
 70
1
 10
207.79629423539814
 20
97.82456519481985
 10
206.97364902056705
 20
97.00191997998864
 10
206.97364902056705
 20
98.64721040965074
 10
207.79629423539814
 20
97.82456519481985
  0
LWPOLYLINE
  5
47
330
17
100
AcDbEntity
  8
ENG_L
100
AcDbPolyline
 90
4
 70
1
 10
207.79629423539814
 20
96.86077637516644
 10
206.97364902056705
 20
96.03813116033555
 10
206.97364902056705
 20
97.68342158999732
 10
207.79629423539814
 20
96.86077637516644
  0
LWPOLYLINE
  5
48
330
17
100
AcDbEntity
  8
ENG_L
100
AcDbPolyline
 90
4
 70
1
 10
206.49175461074034
 20
99.12910481947745
 10
207.31439982557143
 20
98.30645960464656
 10
206.49175461074034
 20
97.48381438981535
 10
206.49175461074034
 20
99.12910481947745
  0
LWPOLYLINE
  5
49
330
17
100
AcDbEntity
  8
ENG_L
100
AcDbPolyline
 90
4
 70
1
 10
205.38682218626465
 20
118.54602481736787
 10
204.56417697143357
 20
117.72337960253698
 10
204.56417697143357
 20
119.36867003219875
 10
205.38682218626465
 20
118.54602481736787
  0
LWPOLYLINE
  5
4A
330
17
100
AcDbEntity
  8
ENG_L
100
AcDbPolyline
 90
85
 70
1
 10
187.3939187480307
 20
93.06359237512251
 10
186.9105748534724
 20
91.29133142840872
 10
184.9338697717841
 20
91.57371786864998
 10
184.67085675321886
 20
91.83673088721523
 10
184.60028495080772
 20
91.62501547998158
 10
185.04745337345227
 20
91.177847057337
 10
185.04745337345227
 20
89.9902588941236
 10
183.04031446150003
 20
88.55658824272916
 10
181.67419250466537
 20
91.01560776503159
 10
181.67419250466537
 20
92.62353028681713
 10
182.63798132431876
 20
93.58731910647056
 10
182.63798132431876
 20
94.21035712111959
 10
181.09894891032178
 20
94.21035712111959
 10
181.63946651748324
 20
95.83190994260416
 10
181.09249449474768
 20
96.37888196533973
 10
181.33344169966108
 20
96.61982917025314
 10
180.73131437543108
 20
96.61982917025314
 10
180.2192815076524
 20
102.25219071581826
 10
180.71040368501198
 20
102.74331289317784
 10
180.71040368501198
 20
106.1165737619647
 10
181.19229809483872
 20
106.59846817179131
 10
181.67419250466537
 20
106.1165737619647
 10
182.63798132431876
 20
107.08036258161813
 10
182.63798132431876
 20
107.84454420108946
 10
182.03729703313638
 20
108.4452284922719
 10
180.72320819782513
 20
108.70804625933405
 10
180.21666008461196
 20
116.30626795753129
 10
181.67419250466537
 20
116.79211209754902
 10
181.67419250466537
 20
118.64582841745886
 10
182.63798132431876
 20
119.60961723711227
 10
184.66536256371666
 20
117.58223599771445
 10
185.83757727361757
 20
117.58223599771445
 10
186.84143333187902
 20
120.59380417249876
 10
188.3501930804235
 20
119.68854832337217
 10
189.36844002311474
 20
118.16117790933534
 10
190.06619424312123
 20
115.13757628930699
 10
192.14266250755506
 20
114.72228263642026
 10
192.62869209283016
 20
115.69434180697047
 10
194.6114310811938
 20
115.19865705987952
 10
195.06743237972188
 20
115.6546583584076
 10
196.67535490150752
 20
115.6546583584076
 10
199.02239125842655
 20
114.35074927123034
 10
199.02239125842655
 20
113.34498990936514
 10
199.50428566825323
 20
112.86309549953843
 10
199.50428566825323
 20
109.687858154922
 10
199.8372665159492
 20
110.3538198503139
 10
201.5736374498629
 20
110.3538198503139
 10
202.9461007315894
 20
107.88338594320612
 10
200.58785716218705
 20
105.99679108768434
 10
201.04977249782436
 20
105.53487575204701
 10
200.61974740276963
 20
105.10485065699238
 10
198.05860243877316
 20
103.475031134449
 10
198.05860243877316
 20
103.25767068120462
 10
200.4343693957148
 20
101.74581898133262
 10
200.85016529764226
 20
102.16161488326003
 10
202.06267127951747
 20
102.16161488326003
 10
202.46165996860358
 20
101.36363750508781
 10
202.77774293694912
 20
101.67972047343332
 10
203.62863144858974
 20
101.67972047343332
 10
204.23090402707814
 20
106.49790110134039
 10
204.39442222523581
 20
106.49933536114642
 10
204.7913441747698
 20
103.72088171440829
 10
205.38682218626465
 20
103.12540370291346
 10
204.90492777643792
 20
102.64350929308685
 10
205.28701858617362
 20
102.26141848335114
 10
205.28701858617362
 20
100.13423364386232
 10
204.4230333666113
 20
99.2702484243
 10
200.085983678171
 20
99.2702484243
 10
199.6040892683443
 20
98.78835401447328
 10
197.9096888766424
 20
98.78835401447328
 10
197.51070018755632
 20
99.5863313926455
 10
196.61291920929304
 20
98.68855041438218
 10
196.03122119937527
 20
99.2702484243
 10
194.85335097097712
 20
99.2702484243
 10
193.23965834050617
 20
94.89022557016446
 10
193.23965834050617
 20
92.58060660607414
 10
193.80387014292438
 20
91.4521830012377
 10
192.71383864528212
 20
90.90716725241666
 10
192.38116731044605
 20
89.90915324790838
 10
191.31208070119936
 20
90.97823985715503
 10
190.37899286414958
 20
90.0451520201052
 10
188.6616614471525
 20
91.19003963143668
 10
188.6616614471525
 20
92.31445992103227
 10
187.1421880764247
 20
91.30147767388053
 10
187.3939187480307
 20
93.06359237512251
  0
LWPOLYLINE
  5
4B
330
17
100
AcDbEntity
  8
ENG_L
100
AcDbPolyline
 90
4
 70
1
 10
187.56668876932812
 20
93.69708245321296
 10
187.73371844272816
 20
93.86411212661294
 10
187.6223653271281
 20
93.90122983181293
 10
187.56668876932812
 20
93.69708245321296
  0
LWPOLYLINE
  5
4C
330
17
100
AcDbEntity
  8
ENG_L
100
AcDbPolyline
 90
18
 70
1
 10
188.42071424223917
 20
107.36264979126275
 10
188.42071424223917
 20
106.59846817179141
 10
188.90260865206588
 20
106.1165737619647
 10
188.90260865206588
 20
101.33424805286818
 10
189.8953363907374
 20
100.73861140966522
 10
191.79397511102604
 20
101.37149098309483
 10
191.79397511102604
 20
104.18899612265787
 10
192.27586952085275
 20
104.67089053248458
 10
192.27586952085275
 20
105.43507215195602
 10
191.79397511102604
 20
105.91696656178273
 10
191.79397511102604
 20
113.14538270918317
 10
191.2122771011083
 20
113.72708071910098
 10
189.94361263061055
 20
113.72708071910098
 10
188.5512638593158
 20
112.73254588246185
 10
189.0024122521569
 20
112.28139748962074
 10
188.43347029007558
 20
111.71245552753939
 10
188.91536469990228
 20
107.85730024892581
 10
188.42071424223917
 20
107.36264979126275
  0
LWPOLYLINE
  5
4D
330
17
100
AcDbEntity
  8
ENG_L
100
AcDbPolyline
 90
5
 70
1
 10
205.32174457335574
 20
107.39737577844488
 10
204.275392373266
 20
106.35102357835513
 10
203.21786881949328
 20
108.1135628346429
 10
204.96644388367747
 20
108.46327784747977
 10
205.32174457335574
 20
107.39737577844488
  0
LWPOLYLINE
  5
4E
330
17
100
AcDbEntity
  8
ENG_L
100
AcDbPolyline
 90
4
 70
1
 10
204.0822825616069
 20
109.7307818356652
 10
204.90492777643792
 20
108.90813662083387
 10
204.0822825616069
 20
108.08549140600287
 10
204.0822825616069
 20
109.7307818356652
  0
LWPOLYLINE
  5
4F
330
17
100
AcDbEntity
  8
ENG_L
100
AcDbPolyline
 90
5
 70
1
 10
202.39565212721342
 20
109.14908382574728
 10
202.39565212721342
 20
109.97172904057828
 10
202.98284432663343
 20
110.55892123999823
 10
203.45279013138375
 20
109.14908382574728
 10
202.39565212721342
 20
109.14908382574728
  0
LWPOLYLINE
  5
50
330
17
100
AcDbEntity
  8
ENG_L
100
AcDbPolyline
 90
5
 70
1
 10
202.56602752971557
 20
114.47915413152099
 10
202.91441379354606
 20
112.04045028470743
 10
201.91375771738674
 20
112.04045028470743
 10
201.91375771738674
 20
113.82688431919186
 10
202.56602752971557
 20
114.47915413152099
  0
LWPOLYLINE
  5
51
330
17
100
AcDbEntity
  8
ENG_L
100
AcDbPolyline
 90
4
 70
1
 10
201.67281051247338
 20
114.35011873374978
 10
201.67281051247338
 20
115.99540916341189
 10
202.49545572730446
 20
115.17276394858101
 10
201.67281051247338
 20
114.35011873374978
  0
LWPOLYLINE
  5
52
330
17
100
AcDbEntity
  8
ENG_L
100
AcDbPolyline
 90
4
 70
1
 10
201.19091610264667
 20
116.75959078288356
 10
201.19091610264667
 20
118.40488121254566
 10
202.01356131747775
 20
117.58223599771445
 10
201.19091610264667
 20
116.75959078288356
  0
LWPOLYLINE
  5
53
330
17
100
AcDbEntity
  8
ENG_L
100
AcDbPolyline
 90
4
 70
1
 10
202.01356131747775
 20
116.13655276823431
 10
201.19091610264667
 20
115.31390755340342
 10
201.19091610264667
 20
116.95919798306554
 10
202.01356131747775
 20
116.13655276823431
  0
LWPOLYLINE
  5
54
330
17
100
AcDbEntity
  8
ENG_L
100
AcDbPolyline
 90
4
 70
1
 10
197.3357608240331
 20
97.96570879964229
 10
197.3357608240331
 20
99.61099922930438
 10
198.15840603886417
 20
98.78835401447317
 10
197.3357608240331
 20
97.96570879964229
  0
LWPOLYLINE
  5
55
330
17
100
AcDbEntity
  8
ENG_L
100
AcDbPolyline
 90
4
 70
1
 10
197.19461721921076
 20
89.632360227766
 10
196.3719720043797
 20
88.80971501293466
 10
196.3719720043797
 20
90.45500544259698
 10
197.19461721921076
 20
89.632360227766
  0
LWPOLYLINE
  5
56
330
17
100
AcDbEntity
  8
ENG_L
100
AcDbPolyline
 90
4
 70
1
 10
195.890077594553
 20
89.97311103277016
 10
196.71272280938408
 20
89.15046581793928
 10
195.890077594553
 20
88.32782060310807
 10
195.890077594553
 20
89.97311103277016
  0
LWPOLYLINE
  5
57
330
17
100
AcDbEntity
  8
ENG_L
100
AcDbPolyline
 90
4
 70
1
 10
194.44439436507287
 20
90.25539824241513
 10
194.44439436507287
 20
91.90068867207724
 10
195.26703957990395
 20
91.07804345724601
 10
194.44439436507287
 20
90.25539824241513
  0
LWPOLYLINE
  5
58
330
17
100
AcDbEntity
  8
ENG_L
100
AcDbPolyline
 90
4
 70
1
 10
190.92998989146366
 20
85.29531053932571
 10
190.1073446766326
 20
84.47266532449449
 10
190.1073446766326
 20
86.1179557541566
 10
190.92998989146366
 20
85.29531053932571
  0
LWPOLYLINE
  5
59
330
17
100
AcDbEntity
  8
ENG_L
100
AcDbPolyline
 90
4
 70
1
 10
189.96620107181027
 20
85.29531053932571
 10
189.1435558569792
 20
84.47266532449449
 10
189.1435558569792
 20
86.1179557541566
 10
189.96620107181027
 20
85.29531053932571
  0
LWPOLYLINE
  5
5A
330
17
100
AcDbEntity
  8
ENG_L
100
AcDbPolyline
 90
5
 70
1
 10
185.4501545290418
 20
84.3109113738183
 10
184.79967582426215
 20
84.96139007859816
 10
186.57232985716948
 20
85.31592088517948
 10
187.22280856194922
 20
84.66544218039995
 10
185.4501545290418
 20
84.3109113738183
  0
LWPOLYLINE
  5
5B
330
17
100
AcDbEntity
  8
ENG_L
100
AcDbPolyline
 90
4
 70
1
 10
184.32461175871222
 20
84.47266532449437
 10
184.32461175871222
 20
86.11795575415671
 10
185.14725697354328
 20
85.29531053932571
 10
184.32461175871222
 20
84.47266532449437
  0
LWPOLYLINE
  5
5C
330
17
100
AcDbEntity
  8
ENG_L
100
AcDbPolyline
 90
4
 70
1
 10
183.84271734888551
 20
86.59985016398353
 10
184.6653625637166
 20
85.7772049491523
 10
183.84271734888551
 20
84.95455973432142
 10
183.84271734888551
 20
86.59985016398353
  0
LWPOLYLINE
  5
5D
330
17
100
AcDbEntity
  8
ENG_L
100
AcDbPolyline
 90
4
 70
1
 10
182.87892852923213
 20
89.00932221311675
 10
183.7015737440632
 20
88.18667699828586
 10
182.87892852923213
 20
87.36403178345498
 10
182.87892852923213
 20
89.00932221311675
  0
LWPOLYLINE
  5
5E
330
17
100
AcDbEntity
  8
ENG_L
100
AcDbPolyline
 90
5
 70
1
 10
182.4038644636822
 20
85.62923100005315
 10
180.63121043077487
 20
85.27470019347183
 10
179.98073172599513
 20
85.92517889825135
 10
181.75338575890254
 20
86.27970970483301
 10
182.4038644636822
 20
85.62923100005315
  0
LWPOLYLINE
  5
5F
330
17
100
AcDbEntity
  8
ENG_L
100
AcDbPolyline
 90
4
 70
1
 10
179.98756207027193
 20
85.43645414414802
 10
179.98756207027193
 20
87.08174457381035
 10
180.810207285103
 20
86.25909935897901
 10
179.98756207027193
 20
85.43645414414802
  0
LWPOLYLINE
  5
60
330
17
100
AcDbEntity
  8
ENG_L
100
AcDbPolyline
 90
4
 70
1
 10
180.3283128752763
 20
87.22288817863245
 10
179.50566766044523
 20
86.40024296380156
 10
179.50566766044523
 20
88.04553339346333
 10
180.3283128752763
 20
87.22288817863245
  0
LWPOLYLINE
  5
61
330
17
100
AcDbEntity
  8
ENG_L
100
AcDbPolyline
 90
5
 70
1
 10
179.91699026786077
 20
93.75769450897265
 10
180.26537653169123
 20
91.31899066215942
 10
179.2647204555319
 20
91.31899066215942
 10
179.2647204555319
 20
93.10542469664385
 10
179.91699026786077
 20
93.75769450897265
  0
LWPOLYLINE
  5
62
330
17
100
AcDbEntity
  8
ENG_L
100
AcDbPolyline
 90
5
 70
1
 10
179.2647204555319
 20
94.21035712111959
 10
179.2647204555319
 20
95.996791155604
 10
179.91699026786077
 20
96.64906096793302
 10
180.26537653169123
 20
94.21035712111959
 10
179.2647204555319
 20
94.21035712111959
  0
LWPOLYLINE
  5
63
330
17
100
AcDbEntity
  8
ENG_L
100
AcDbPolyline
 90
5
 70
1
 10
179.2647204555319
 20
90.6959526475103
 10
179.91699026786074
 20
91.3482224598393
 10
180.26537653169123
 20
88.90951861302598
 10
179.2647204555319
 20
88.90951861302598
 10
179.2647204555319
 20
90.6959526475103
  0
LWPOLYLINE
  5
64
330
17
100
AcDbEntity
  8
ENG_L
100
AcDbPolyline
 90
5
 70
1
 10
179.4350958580341
 20
116.88862618065431
 10
179.78348212186452
 20
114.44992233384099
 10
178.7828260457052
 20
114.44992233384099
 10
178.7828260457052
 20
116.2363563683253
 10
179.4350958580341
 20
116.88862618065431
  0
LWPOLYLINE
  5
65
330
17
100
AcDbEntity
  8
ENG_L
100
AcDbPolyline
 90
4
 70
1
 10
179.02377325061855
 20
101.05668245878464
 10
179.8464184654496
 20
100.2340372439533
 10
179.02377325061855
 20
99.4113920291223
 10
179.02377325061855
 20
101.05668245878464
  0
LWPOLYLINE
  5
66
330
17
100
AcDbEntity
  8
ENG_L
100
AcDbPolyline
 90
5
 70
1
 10
178.7828260457052
 20
99.37005202439086
 10
179.4350958580341
 20
100.02232183671988
 10
179.78348212186452
 20
97.58361798990656
 10
178.7828260457052
 20
97.58361798990656
 10
178.7828260457052
 20
99.37005202439086
  0
LWPOLYLINE
  5
67
330
17
100
AcDbEntity
  8
ENG_L
100
AcDbPolyline
 90
9
 70
1
 10
158.9950754169633
 20
239.450382554965
 10
159.41218705883526
 20
240.70171748058078
 10
162.88031052142415
 20
236.70003656220894
 10
162.88031052142415
 20
234.5827739855113
 10
161.52418537561994
 20
233.22664883970722
 10
161.89591135591692
 20
235.08527874119167
 10
161.43462729194405
 20
235.54656280516474
 10
161.43462729194405
 20
236.5229203049879
 10
158.9950754169633
 20
239.450382554965
  0
LWPOLYLINE
  5
68
330
17
100
AcDbEntity
  8
ENG_L
100
AcDbPolyline
 90
4
 70
1
 10
162.01632530186177
 20
76.13931675261843
 10
161.19368008703069
 20
75.3166715377872
 10
161.19368008703069
 20
76.96196196744931
 10
162.01632530186177
 20
76.13931675261843
  0
LWPOLYLINE
  5
69
330
17
100
AcDbEntity
  8
ENG_L
100
AcDbPolyline
 90
4
 70
1
 10
160.71178567720398
 20
78.40764519692966
 10
161.53443089203506
 20
77.58499998209845
 10
160.71178567720398
 20
76.76235476726757
 10
160.71178567720398
 20
78.40764519692966
  0
LWPOLYLINE
  5
6A
330
17
100
AcDbEntity
  8
ENG_L
100
AcDbPolyline
 90
41
 70
1
 10
152.66072431497253
 20
238.05583845438915
 10
151.77612874955622
 20
238.94043401980537
 10
152.0811040462997
 20
240.4653105035226
 10
153.62451313462586
 20
240.4653105035226
 10
154.15398330473047
 20
240.99478067362745
 10
153.30377808674515
 20
242.6951911095978
 10
151.72192200412047
 20
243.48611915091055
 10
154.24664583945219
 20
243.84679398452903
 10
155.1224242039189
 20
243.4089048022958
 10
155.6708806552884
 20
243.95736125366517
 10
155.93625932491332
 20
245.2842546017897
 10
157.19738120359472
 20
245.2842546017897
 10
158.06136642315715
 20
244.42026938222727
 10
158.06136642315715
 20
243.436992697454
 10
159.52349821211143
 20
241.48748364551497
 10
159.12370098144254
 20
239.48849749217027
 10
158.3804522611754
 20
240.9749949327047
 10
157.64567343331677
 20
241.12195069827646
 10
158.0423801418924
 20
239.1384171553983
 10
159.16271934079035
 20
238.0180779565002
 10
160.95273288211735
 20
237.2509292959317
 10
160.95273288211735
 20
235.7461700053467
 10
161.45523763779786
 20
235.24366524966612
 10
161.10070683121637
 20
233.47101121675882
 10
160.43348816429378
 20
234.1382298836814
 10
159.59667928561734
 20
233.63614455647564
 10
160.14969646188132
 20
232.71444926270223
 10
160.95273288211735
 20
232.44677045595697
 10
160.95273288211735
 20
231.20951311672445
 10
160.40483063090053
 20
230.66161086550753
 10
159.8954971267727
 20
231.680277873763
 10
158.51255985038014
 20
230.75831968950132
 10
157.57947201333045
 20
231.69140752655105
 10
157.57947201333045
 20
234.78238118569328
 10
157.96156282306615
 20
235.1644719954289
 10
157.57947201333045
 20
235.5465628051645
 10
157.09757760350377
 20
235.06466839533792
 10
155.5520907739327
 20
236.6101552249089
 10
154.5591545236477
 20
236.6101552249089
 10
153.5953657039943
 20
238.05583845438915
 10
152.66072431497253
 20
238.05583845438915
  0
LWPOLYLINE
  5
6B
330
17
100
AcDbEntity
  8
ENG_L
100
AcDbPolyline
 90
5
 70
1
 10
159.6003988371542
 20
76.86215836735843
 10
158.54326083298383
 20
76.86215836735843
 10
158.54326083298383
 20
77.68480358218943
 10
159.13045303240384
 20
78.27199578160959
 10
159.6003988371542
 20
76.86215836735843
  0
LWPOLYLINE
  5
6C
330
17
100
AcDbEntity
  8
ENG_L
100
AcDbPolyline
 90
4
 70
1
 10
156.3747359887637
 20
39.174590800784785
 10
156.3747359887637
 20
40.81988123044689
 10
157.19738120359477
 20
39.997236015616
 10
156.3747359887637
 20
39.174590800784785
  0
LWPOLYLINE
  5
6D
330
17
100
AcDbEntity
  8
ENG_L
100
AcDbPolyline
 90
4
 70
1
 10
156.3747359887637
 20
37.72890757130498
 10
156.3747359887637
 20
39.374198000967084
 10
157.19738120359477
 20
38.551552786135865
 10
156.3747359887637
 20
37.72890757130498
  0
LWPOLYLINE
  5
6E
330
17
100
AcDbEntity
  8
ENG_L
100
AcDbPolyline
 90
5
 70
1
 10
156.23908657344367
 20
41.648020634780345
 10
156.70903237819397
 20
40.23818322052941
 10
155.65189437402367
 20
40.23818322052941
 10
155.65189437402367
 20
41.060828435360406
 10
156.23908657344367
 20
41.648020634780345
  0
LWPOLYLINE
  5
6F
330
17
100
AcDbEntity
  8
ENG_L
100
AcDbPolyline
 90
11
 70
1
 10
151.623074175922
 20
85.7772049491523
 10
153.29187859446318
 20
85.7772049491523
 10
155.148428388241
 20
84.98154075181897
 10
155.66651027286358
 20
81.35496755946092
 10
154.24356145254038
 20
79.9320187391378
 10
152.7861105319338
 20
80.8064892915018
 10
152.54516332702045
 20
82.01122531606853
 10
151.24049779765664
 20
82.79402463368679
 10
151.76829913573602
 20
83.84962730984557
 10
151.29564863198627
 20
84.79492831734514
 10
151.623074175922
 20
85.7772049491523
  0
LWPOLYLINE
  5
70
330
17
100
AcDbEntity
  8
ENG_L
100
AcDbPolyline
 90
4
 70
1
 10
155.269803564288
 20
79.994472031232
 10
154.4471583494569
 20
79.17182681640078
 10
154.4471583494569
 20
80.81711724606289
 10
155.269803564288
 20
79.994472031232
  0
LWPOLYLINE
  5
71
330
17
100
AcDbEntity
  8
ENG_L
100
AcDbPolyline
 90
4
 70
1
 10
154.7879091544613
 20
52.526490671110146
 10
153.9652639396302
 20
51.70384545627926
 10
153.9652639396302
 20
53.34913588594104
 10
154.7879091544613
 20
52.526490671110146
  0
LWPOLYLINE
  5
72
330
17
100
AcDbEntity
  8
ENG_L
100
AcDbPolyline
 90
26
 70
1
 10
148.4234782266232
 20
53.10818868102785
 10
148.8055690363588
 20
53.490279490763456
 10
150.2512522658389
 20
53.490279490763456
 10
150.83295027575667
 20
54.07197750068127
 10
150.83295027575667
 20
55.56677069220106
 10
151.6309276539289
 20
55.96575938128723
 10
150.68530928241137
 20
56.911377752804746
 10
152.31598381323357
 20
57.88978247129795
 10
153.24242232489016
 20
56.96334395964142
 10
153.24242232489016
 20
55.6588043349836
 10
154.35512470667427
 20
55.6588043349836
 10
153.7765445745299
 20
54.50164407069502
 10
154.20621114454357
 20
54.07197750068127
 10
154.20621114454357
 20
52.908581480845875
 10
152.37843710532783
 20
51.08080744163013
 10
151.41464828567445
 20
51.08080744163013
 10
150.91813797700777
 20
50.58429713296353
 10
149.03273623969505
 20
50.85364023829386
 10
148.309894624955
 20
51.57648185303398
 10
144.96797418269733
 20
52.053899059070766
 10
143.1870948181079
 20
53.12242667782441
 10
145.08402916450433
 20
53.501813547103595
 10
145.96643041721174
 20
53.06061292074982
 10
146.3960969872253
 20
53.490279490763456
 10
148.04138741688755
 20
53.490279490763456
 10
148.4234782266232
 20
53.10818868102785
  0
LWPOLYLINE
  5
73
330
17
100
AcDbEntity
  8
ENG_L
100
AcDbPolyline
 90
19
 70
1
 10
149.86916145610326
 20
237.47414044447135
 10
148.388752239441
 20
238.95454966113383
 10
148.71488714560542
 20
239.93295437962692
 10
149.00017286833426
 20
240.02804962053648
 10
148.48483398847813
 20
240.28571906046437
 10
147.87494541470596
 20
241.505496208009
 10
149.76634072664086
 20
242.85649285939104
 10
151.87064958420254
 20
243.38257007378127
 10
153.39006331823538
 20
241.86315633974843
 10
151.55579189049672
 20
240.76259348310523
 10
151.55579189049672
 20
241.57024292799844
 10
151.39403793982058
 20
241.40848897732226
 10
150.4172572859163
 20
241.60384510810306
 10
150.8535606216105
 20
239.42232842963196
 10
150.55615725561418
 20
239.1249250636358
 10
151.7967390954101
 20
238.71139778370366
 10
151.7967390954101
 20
236.3692080199955
 10
149.86916145610326
 20
236.3692080199955
 10
149.86916145610326
 20
237.47414044447135
  0
LWPOLYLINE
  5
74
330
17
100
AcDbEntity
  8
ENG_L
100
AcDbPolyline
 90
4
 70
1
 10
152.0376863003234
 20
79.17182681640078
 10
152.0376863003234
 20
80.81711724606289
 10
152.86033151515448
 20
79.994472031232
 10
152.0376863003234
 20
79.17182681640078
  0
LWPOLYLINE
  5
75
330
17
100
AcDbEntity
  8
ENG_L
100
AcDbPolyline
 90
4
 70
1
 10
151.55579189049672
 20
235.3056156002511
 10
151.55579189049672
 20
236.95090602991354
 10
152.37843710532775
 20
236.1282608150823
 10
151.55579189049672
 20
235.3056156002511
  0
LWPOLYLINE
  5
76
330
17
100
AcDbEntity
  8
ENG_L
100
AcDbPolyline
 90
5
 70
1
 10
151.84970023139914
 20
76.86215836735843
 10
150.83295027575667
 20
76.86215836735843
 10
150.83295027575667
 20
78.16669799201614
 10
151.4628186346824
 20
78.79656635094211
 10
151.84970023139914
 20
76.86215836735843
  0
LWPOLYLINE
  5
77
330
17
100
AcDbEntity
  8
ENG_L
100
AcDbPolyline
 90
4
 70
1
 10
151.07389748067
 20
85.15416693450317
 10
151.8965426955011
 20
84.33152171967228
 10
151.07389748067
 20
83.50887650484107
 10
151.07389748067
 20
85.15416693450317
  0
LWPOLYLINE
  5
78
330
17
100
AcDbEntity
  8
ENG_L
100
AcDbPolyline
 90
4
 70
1
 10
150.5920030708433
 20
78.68993240657407
 10
150.5920030708433
 20
80.33522283623617
 10
151.4146482856744
 20
79.51257762140528
 10
150.5920030708433
 20
78.68993240657407
  0
LWPOLYLINE
  5
79
330
17
100
AcDbEntity
  8
ENG_L
100
AcDbPolyline
 90
10
 70
1
 10
149.3872670462766
 20
237.1918532348267
 10
150.45085946602103
 20
236.1282608150823
 10
149.85017517483854
 20
235.5275765239
 10
149.3438493003003
 20
232.99594715120864
 10
146.9777949971431
 20
232.99594715120864
 10
146.9777949971431
 20
237.1918532348267
 10
147.52569724835996
 20
237.73975548604363
 10
148.0904973789272
 20
236.61015522490914
 10
148.80556903635897
 20
236.61015522490914
 10
149.3872670462766
 20
237.1918532348267
  0
LWPOLYLINE
  5
7A
330
17
100
AcDbEntity
  8
ENG_L
100
AcDbPolyline
 90
6
 70
1
 10
145.43230816757196
 20
58.79111799885728
 10
145.93806093999515
 20
59.29687077128032
 10
149.62409466200074
 20
58.44624760466377
 10
148.50866592787432
 20
57.33081887053726
 10
146.62326419056154
 20
57.60016197586771
 10
145.43230816757196
 20
58.79111799885728
  0
LWPOLYLINE
  5
7B
330
17
100
AcDbEntity
  8
ENG_L
100
AcDbPolyline
 90
5
 70
1
 10
146.326685553854
 20
104.23076464994053
 10
147.9903400217684
 20
103.23257196919178
 10
147.62100911430034
 20
102.12457924678753
 10
145.97143157480332
 20
102.45449475468705
 10
146.326685553854
 20
104.23076464994053
  0
LWPOLYLINE
  5
7C
330
17
100
AcDbEntity
  8
ENG_L
100
AcDbPolyline
 90
4
 70
1
 10
148.0413874168875
 20
70.356583834698
 10
147.21874220205643
 20
69.53393861986667
 10
147.21874220205643
 20
71.179229049529
 10
148.0413874168875
 20
70.356583834698
  0
LWPOLYLINE
  5
7D
330
17
100
AcDbEntity
  8
ENG_L
100
AcDbPolyline
 90
5
 70
1
 10
146.49590058731638
 20
113.00423910436086
 10
146.49590058731638
 20
113.82688431919186
 10
147.08309278673636
 20
114.41407651861202
 10
147.5530385914867
 20
113.00423910436086
 10
146.49590058731638
 20
113.00423910436086
  0
LWPOLYLINE
  5
7E
330
17
100
AcDbEntity
  8
ENG_L
100
AcDbPolyline
 90
4
 70
1
 10
146.73684779222972
 20
113.10404270445196
 10
147.5594930070608
 20
112.28139748962074
 10
146.73684779222972
 20
111.45875227478984
 10
146.73684779222972
 20
113.10404270445196
  0
LWPOLYLINE
  5
7F
330
17
100
AcDbEntity
  8
ENG_L
100
AcDbPolyline
 90
4
 70
1
 10
147.5594930070608
 20
105.05298134222029
 10
146.73684779222972
 20
104.2303361273894
 10
146.73684779222972
 20
105.87562655705152
 10
147.5594930070608
 20
105.05298134222029
  0
LWPOLYLINE
  5
80
330
17
100
AcDbEntity
  8
ENG_L
100
AcDbPolyline
 90
4
 70
1
 10
146.25495338240302
 20
113.86822432392307
 10
146.25495338240302
 20
115.51351475358518
 10
147.0775985972341
 20
114.6908695387543
 10
146.25495338240302
 20
113.86822432392307
  0
LWPOLYLINE
  5
81
330
17
100
AcDbEntity
  8
ENG_L
100
AcDbPolyline
 90
5
 70
1
 10
146.0140061774897
 20
105.2939285471337
 10
146.0140061774897
 20
106.1165737619647
 10
146.60119837690965
 20
106.70376596138465
 10
147.07114418166
 20
105.2939285471337
 10
146.0140061774897
 20
105.2939285471337
  0
LWPOLYLINE
  5
82
330
17
100
AcDbEntity
  8
ENG_L
100
AcDbPolyline
 90
5
 70
1
 10
147.07114418166
 20
121.67833848124144
 10
146.0140061774897
 20
121.67833848124144
 10
146.0140061774897
 20
122.50098369607242
 10
146.60119837690962
 20
123.0881758954926
 10
147.07114418166
 20
121.67833848124144
  0
LWPOLYLINE
  5
83
330
17
100
AcDbEntity
  8
ENG_L
100
AcDbPolyline
 90
4
 70
1
 10
146.59570418740742
 20
67.46521737573785
 10
145.77305897257634
 20
66.64257216090664
 10
145.77305897257634
 20
68.28786259056874
 10
146.59570418740742
 20
67.46521737573785
  0
LWPOLYLINE
  5
84
330
17
100
AcDbEntity
  8
ENG_L
100
AcDbPolyline
 90
5
 70
1
 10
144.63340056091846
 20
41.95953964210486
 10
145.25531874752062
 20
41.337621455502905
 10
144.021350925274
 20
40.926298848087185
 10
143.3994327386719
 20
41.54821703468947
 10
144.63340056091846
 20
41.95953964210486
  0
LWPOLYLINE
  5
85
330
17
100
AcDbEntity
  8
ENG_L
100
AcDbPolyline
 90
20
 70
1
 10
139.70850495321963
 20
108.48517191457529
 10
139.2674844399159
 20
108.77918559011113
 10
139.2674844399159
 20
109.9448783841146
 10
140.16217064208195
 20
111.28690768736371
 10
139.74937884974258
 20
111.69969947970304
 10
139.74937884974258
 20
113.36918205274316
 10
141.62185118757895
 20
114.7066622940548
 10
143.1226397185295
 20
114.40650458786472
 10
143.1226397185295
 20
107.36264979126275
 10
142.15885089887612
 20
106.39886097160944
 10
142.15885089887612
 20
105.68378931417777
 10
143.1226397185295
 20
105.20189490435105
 10
143.1226397185295
 20
102.69984506775597
 10
141.61021797688915
 20
103.60729811274028
 10
140.8129712694871
 20
103.60729811274028
 10
140.25731904341774
 20
103.05164588667093
 10
138.23705721817203
 20
104.49469004756062
 10
138.7855900300892
 20
105.591755671395
 10
138.7855900300892
 20
107.56225699144473
 10
139.70850495321963
 20
108.48517191457529
  0
LWPOLYLINE
  5
86
330
17
100
AcDbEntity
  8
ENG_L
100
AcDbPolyline
 90
4
 70
1
 10
139.95374833235746
 20
108.32167632848333
 10
140.29635087247823
 20
107.97907378836258
 10
140.41055171918518
 20
108.01714073726487
 10
139.95374833235746
 20
108.32167632848333
  0
LWPOLYLINE
  5
87
330
17
100
AcDbEntity
  8
ENG_L
100
AcDbPolyline
 90
4
 70
1
 10
142.7405489087938
 20
102.64350929308685
 10
141.91790369396273
 20
101.82086407825564
 10
141.91790369396273
 20
103.46615450791774
 10
142.7405489087938
 20
102.64350929308685
  0
LWPOLYLINE
  5
88
330
17
100
AcDbEntity
  8
ENG_L
100
AcDbPolyline
 90
7
 70
1
 10
141.67230342148213
 20
90.596742184615
 10
141.74846202479065
 20
90.5946282976855
 10
142.17346679771603
 20
87.61959488720805
 10
141.26013969213162
 20
86.70626778162371
 10
140.026171869885
 20
87.1175903890391
 10
141.21404836048742
 20
88.30546687964159
 10
141.67230342148213
 20
90.596742184615
  0
LWPOLYLINE
  5
89
330
17
100
AcDbEntity
  8
ENG_L
100
AcDbPolyline
 90
5
 70
1
 10
141.34303602832173
 20
91.32582100643627
 10
141.72991762503847
 20
89.39141302285269
 10
140.71316766939597
 20
89.39141302285269
 10
140.71316766939597
 20
90.6959526475103
 10
141.34303602832173
 20
91.32582100643627
  0
LWPOLYLINE
  5
8A
330
17
100
AcDbEntity
  8
ENG_L
100
AcDbPolyline
 90
5
 70
1
 10
141.26013969213156
 20
84.84814211668102
 10
141.88205787873372
 20
84.22622393007906
 10
140.6480900564871
 20
83.81490132266333
 10
140.026171869885
 20
84.43681950926563
 10
141.26013969213156
 20
84.84814211668102
  0
LWPOLYLINE
  5
8B
330
17
100
AcDbEntity
  8
ENG_L
100
AcDbPolyline
 90
7
 70
1
 10
136.85801239078242
 20
117.89046548805304
 10
136.85801239078242
 20
118.64582841745886
 10
138.7518849378974
 20
120.5397009645739
 10
141.67695648904942
 20
118.67829179565904
 10
141.67695648904942
 20
117.48243239762346
 10
140.7782452823049
 20
116.583721190879
 10
136.85801239078242
 20
117.89046548805304
  0
LWPOLYLINE
  5
8C
330
17
100
AcDbEntity
  8
ENG_L
100
AcDbPolyline
 90
4
 70
1
 10
140.47222046448266
 20
93.82826631138386
 10
141.29486567931372
 20
93.00562109655286
 10
140.47222046448266
 20
92.18297588172153
 10
140.47222046448266
 20
93.82826631138386
  0
LWPOLYLINE
  5
8D
330
17
100
AcDbEntity
  8
ENG_L
100
AcDbPolyline
 90
5
 70
1
 10
140.2312732595693
 20
90.83709625233271
 10
140.2312732595693
 20
92.14163587699042
 10
140.86114161849505
 20
92.7715042359164
 10
141.24802321521173
 20
90.83709625233271
 10
140.2312732595693
 20
90.83709625233271
  0
LWPOLYLINE
  5
8E
330
17
100
AcDbEntity
  8
ENG_L
100
AcDbPolyline
 90
4
 70
1
 10
139.99032605465595
 20
83.02698209501469
 10
139.99032605465595
 20
84.67227252467646
 10
140.81297126948704
 20
83.84962730984557
 10
139.99032605465595
 20
83.02698209501469
  0
LWPOLYLINE
  5
8F
330
17
100
AcDbEntity
  8
ENG_L
100
AcDbPolyline
 90
7
 70
1
 10
131.63906983535577
 20
97.60389337013764
 10
130.58185100669533
 20
99.71833102745853
 10
130.87775001392492
 20
101.19782606360673
 10
132.11628345140673
 20
101.19782606360673
 10
133.98078393864395
 20
99.8660400012943
 10
133.6967723679973
 20
97.30993586547454
 10
131.63906983535577
 20
97.60389337013764
  0
LWPOLYLINE
  5
90
330
17
100
AcDbEntity
  8
ENG_L
100
AcDbPolyline
 90
4
 70
1
 10
131.31622667777538
 20
139.6082352449204
 10
132.13887189260646
 20
138.78559003008917
 10
131.31622667777538
 20
137.96294481525828
 10
131.31622667777538
 20
139.6082352449204
  0
LWPOLYLINE
  5
91
330
17
100
AcDbEntity
  8
ENG_L
100
AcDbPolyline
 90
8
 70
1
 10
130.0454828118185
 20
116.45263573657994
 10
129.04240404396194
 20
115.44955696872339
 10
128.6361761844711
 20
116.66824054719571
 10
131.10567760651784
 20
119.6865200630306
 10
132.03906829251542
 20
118.13086891970126
 10
132.03906829251542
 20
115.55485475831672
 10
131.00927163147188
 20
114.52505809727309
 10
130.0454828118185
 20
116.45263573657994
  0
LWPOLYLINE
  5
92
330
17
100
AcDbEntity
  8
ENG_L
100
AcDbPolyline
 90
16
 70
1
 10
112.9090666703029
 20
45.21440407781174
 10
109.21399275237773
 20
46.79800718549409
 10
108.75492508902444
 20
47.71614251220069
 10
104.43310994752892
 20
47.97036693228862
 10
105.534875752047
 20
50.17389854132481
 10
105.534875752047
 20
51.662505451547716
 10
106.39886097160932
 20
52.526490671110146
 10
107.56225699144488
 20
52.526490671110146
 10
108.63134360069151
 20
51.457404061863386
 10
106.93009726745811
 20
50.89032195078558
 10
106.54742077667231
 20
49.74229247842832
 10
107.52919190351406
 20
49.153229802323175
 10
109.00794022092495
 20
49.153229802323175
 10
110.49330030045914
 20
47.66786972278902
 10
113.30141641360635
 20
46.391453307722095
 10
112.9090666703029
 20
45.21440407781174
  0
LWPOLYLINE
  5
93
330
17
100
AcDbEntity
  8
ENG_L
100
AcDbPolyline
 90
4
 70
1
 10
112.38120108971184
 20
43.85239129422958
 10
111.55855587488072
 20
43.02974607939869
 10
111.55855587488072
 20
44.67503650906046
 10
112.38120108971184
 20
43.85239129422958
  0
LWPOLYLINE
  5
94
330
17
100
AcDbEntity
  8
ENG_L
100
AcDbPolyline
 90
5
 70
1
 10
110.14871846062965
 20
43.47579467399609
 10
111.3826862828763
 20
43.88711728141181
 10
112.0046044694784
 20
43.265199094809525
 10
110.77063664723181
 20
42.85387648739414
 10
110.14871846062965
 20
43.47579467399609
  0
LWPOLYLINE
  5
95
330
17
100
AcDbEntity
  8
ENG_L
100
AcDbPolyline
 90
4
 70
1
 10
108.18529500609384
 20
51.90345265646123
 10
109.00794022092492
 20
51.080807441630014
 10
108.18529500609384
 20
50.25816222679913
 10
108.18529500609384
 20
51.90345265646123
  0
LWPOLYLINE
  5
96
330
17
100
AcDbEntity
  8
ENG_L
100
AcDbPolyline
 90
4
 70
1
 10
105.29392854713365
 20
46.602614148367415
 10
106.7037659613847
 20
45.19277673411648
 10
105.29392854713365
 20
44.72283092936602
 10
105.29392854713365
 20
46.602614148367415
  0
LWPOLYLINE
  5
97
330
17
100
AcDbEntity
  8
ENG_L
100
AcDbPolyline
 90
5
 70
1
 10
103.27304469625871
 20
220.7554770938822
 10
102.19896519125695
 20
219.6813975888803
 10
100.56829066043481
 20
220.6598023073738
 10
101.64237016543652
 20
221.73388181237553
 10
103.27304469625871
 20
220.7554770938822
  0
LWPOLYLINE
  5
98
330
17
100
AcDbEntity
  8
ENG_L
100
AcDbPolyline
 90
22
 70
1
 10
101.84553191491459
 20
25.606411562205224
 10
102.80932073456799
 20
25.124517152378512
 10
102.16161488326011
 20
24.4768113010706
 10
102.16161488326011
 20
21.30315763246571
 10
102.71726710932938
 20
20.74750540639647
 10
101.25384515087288
 20
18.698714664557414
 10
99.27024842429992
 20
20.115569469252303
 10
99.27024842429992
 20
22.067339251937156
 10
98.78835401447321
 20
22.549233661763868
 10
98.78835401447321
 20
29.49536259951957
 10
99.90011678322567
 20
30.607125368272147
 10
100.21505096268857
 20
29.032454470957703
 10
100.71593165378002
 20
28.53157377986626
 10
101.62749263362038
 20
29.443134759706613
 10
101.14559822379368
 20
30.406923579360033
 10
101.6855156632683
 20
30.946841018834604
 10
101.99124492886111
 20
36.14423853391213
 10
102.36124320713779
 20
36.139745290440395
 10
102.64697451402218
 20
27.85353739079288
 10
102.21384272307314
 20
27.42040559984382
 10
102.69573713289984
 20
26.4566167801904
 10
101.84553191491459
 20
25.606411562205224
  0
LWPOLYLINE
  5
99
330
17
100
AcDbEntity
  8
ENG_L
100
AcDbPolyline
 90
4
 70
1
 10
99.99309003903996
 20
47.08450855819424
 10
100.81573525387105
 20
46.26186334336302
 10
99.99309003903996
 20
45.43921812853213
 10
99.99309003903996
 20
47.08450855819424
  0
LWPOLYLINE
  5
9A
330
17
100
AcDbEntity
  8
ENG_L
100
AcDbPolyline
 90
5
 70
1
 10
99.06514703461576
 20
233.8240865555421
 10
100.29911485686232
 20
234.2354091629577
 10
100.92103304346419
 20
233.61349097635565
 10
99.68706522121761
 20
233.20216836894002
 10
99.06514703461576
 20
233.8240865555421
  0
LWPOLYLINE
  5
9B
330
17
100
AcDbEntity
  8
ENG_L
100
AcDbPolyline
 90
9
 70
1
 10
95.896987555513
 20
232.65519634620446
 10
94.9331987358596
 20
231.69140752655105
 10
94.37968484631325
 20
232.24492141609753
 10
96.77724221241029
 20
235.70805983379307
 10
100.29095730328214
 20
234.1109166106694
 10
98.22726635040931
 20
233.6981784200951
 10
97.85063428189892
 20
234.07481048860546
 10
96.40495105241877
 20
232.1472328492986
 10
95.896987555513
 20
232.65519634620446
  0
LWPOLYLINE
  5
9C
330
17
100
AcDbEntity
  8
ENG_L
100
AcDbPolyline
 90
5
 70
1
 10
94.45130432603293
 20
24.194524091425862
 10
95.08117268495869
 20
24.82439245035184
 10
95.4680542816754
 20
22.889984466768265
 10
94.45130432603293
 20
22.889984466768265
 10
94.45130432603293
 20
24.194524091425862
  0
LWPOLYLINE
  5
9D
330
17
100
AcDbEntity
  8
ENG_L
100
AcDbPolyline
 90
6
 70
1
 10
93.91107834917857
 20
228.20385520813468
 10
93.46690516052571
 20
230.42472115139924
 10
95.08117268495869
 20
232.03898867583206
 10
95.44650624335226
 20
230.21232088386424
 10
94.4073790406356
 20
229.69275728250582
 10
93.91107834917857
 20
228.20385520813468
  0
LWPOLYLINE
  5
9E
330
17
100
AcDbEntity
  8
ENG_L
100
AcDbPolyline
 90
4
 70
1
 10
95.03300233595061
 20
231.79121112664203
 10
94.21035712111959
 20
230.9685659118108
 10
94.21035712111959
 20
232.61385634147325
 10
95.03300233595061
 20
231.79121112664203
  0
LWPOLYLINE
  5
9F
330
17
100
AcDbEntity
  8
ENG_L
100
AcDbPolyline
 90
5
 70
1
 10
95.13830012554395
 20
22.543739472261628
 10
93.90433230329732
 20
22.132416864845904
 10
93.28241411669524
 20
22.754335051448194
 10
94.51638193894182
 20
23.16565765886358
 10
95.13830012554395
 20
22.543739472261628
  0
LWPOLYLINE
  5
A0
330
17
100
AcDbEntity
  8
ENG_L
100
AcDbPolyline
 90
7
 70
1
 10
90.49634544732832
 20
224.08090056941487
 10
91.5737178686499
 20
225.15827299073644
 10
91.86373005518843
 20
227.1883582965064
 10
95.26945175705286
 20
224.40185872225337
 10
93.09380022736151
 20
224.09105136086916
 10
91.52923688446906
 20
223.0480091322742
 10
90.49634544732832
 20
224.08090056941487
  0
LWPOLYLINE
  5
A1
330
17
100
AcDbEntity
  8
ENG_L
100
AcDbPolyline
 90
4
 70
1
 10
94.55110792612395
 20
28.913664589601872
 10
93.72846271129288
 20
28.091019374770987
 10
93.72846271129288
 20
29.736309804433205
 10
94.55110792612395
 20
28.913664589601872
  0
LWPOLYLINE
  5
A2
330
17
100
AcDbEntity
  8
ENG_L
100
AcDbPolyline
 90
4
 70
1
 10
94.06921351629727
 20
46.26186334336302
 10
93.24656830146617
 20
45.43921812853213
 10
93.24656830146617
 20
47.08450855819424
 10
94.06921351629727
 20
46.26186334336302
  0
LWPOLYLINE
  5
A3
330
17
100
AcDbEntity
  8
ENG_L
100
AcDbPolyline
 90
4
 70
1
 10
93.63990389905507
 20
229.44556865794618
 10
94.14099436247885
 20
227.942297267675
 10
92.13663250878383
 20
228.94447819452225
 10
93.63990389905507
 20
229.44556865794618
  0
LWPOLYLINE
  5
A4
330
17
100
AcDbEntity
  8
ENG_L
100
AcDbPolyline
 90
5
 70
1
 10
93.0056210965528
 20
32.86862346830644
 10
93.52224149356165
 20
32.352003071297815
 10
93.15800948922832
 20
31.259307058297715
 10
91.83673088721514
 20
31.69973325896891
 10
93.0056210965528
 20
32.86862346830644
  0
LWPOLYLINE
  5
A5
330
17
100
AcDbEntity
  8
ENG_L
100
AcDbPolyline
 90
4
 70
1
 10
92.28277948181278
 20
226.6315162233705
 10
92.28277948181278
 20
229.24059547268638
 10
93.58731910647056
 20
227.93605584802833
 10
92.28277948181278
 20
226.6315162233705
  0
LWPOLYLINE
  5
A6
330
17
100
AcDbEntity
  8
ENG_L
100
AcDbPolyline
 90
4
 70
1
 10
92.28277948181278
 20
22.989788066859028
 10
93.1054246966439
 20
22.167142852028142
 10
92.28277948181278
 20
21.344497637197257
 10
92.28277948181278
 20
22.989788066859028
  0
LWPOLYLINE
  5
A7
330
17
100
AcDbEntity
  8
ENG_L
100
AcDbPolyline
 90
4
 70
1
 10
91.31899066215938
 20
227.7949122432057
 10
92.14163587699049
 20
226.97226702837514
 10
91.31899066215938
 20
226.14962181354392
 10
91.31899066215938
 20
227.7949122432057
  0
LWPOLYLINE
  5
A8
330
17
100
AcDbEntity
  8
ENG_L
100
AcDbPolyline
 90
4
 70
1
 10
91.65974146716373
 20
221.67142852028144
 10
90.83709625233269
 20
220.8487833054502
 10
90.83709625233269
 20
222.49407373511266
 10
91.65974146716373
 20
221.67142852028144
  0
LWPOLYLINE
  5
A9
330
17
100
AcDbEntity
  8
ENG_L
100
AcDbPolyline
 90
4
 70
1
 10
90.83709625233269
 20
221.0483905056324
 10
91.65974146716376
 20
220.2257452908012
 10
90.83709625233269
 20
219.40310007597031
 10
90.83709625233269
 20
221.0483905056324
  0
LWPOLYLINE
  5
AA
330
17
100
AcDbEntity
  8
ENG_L
100
AcDbPolyline
 90
4
 70
1
 10
91.17784705733706
 20
32.28692545838885
 10
90.35520184250599
 20
31.464280243557518
 10
90.35520184250599
 20
33.109570673219736
 10
91.17784705733706
 20
32.28692545838885
  0
LWPOLYLINE
  5
AB
330
17
100
AcDbEntity
  8
ENG_L
100
AcDbPolyline
 90
4
 70
1
 10
90.35520184250599
 20
20.862603227370546
 10
90.35520184250599
 20
22.507893657032763
 10
91.17784705733706
 20
21.685248442201434
 10
90.35520184250599
 20
20.862603227370546
  0
LWPOLYLINE
  5
AC
330
17
100
AcDbEntity
  8
ENG_L
100
AcDbPolyline
 90
10
 70
1
 10
90.21405823768366
 20
36.14208073700242
 10
90.61076494625925
 20
35.74537402842681
 10
90.3204077838861
 20
33.71287389181465
 10
87.16185077463565
 20
34.000015438110154
 10
87.73885447581031
 20
36.30803024280871
 10
88.50275996663137
 20
36.68998298821935
 10
88.08687339819484
 20
37.10586955665585
 10
89.09544017874741
 20
38.114436337208346
 10
91.25912174014697
 20
37.18714423946579
 10
90.21405823768366
 20
36.14208073700242
  0
LWPOLYLINE
  5
AD
330
17
100
AcDbEntity
  8
ENG_L
100
AcDbPolyline
 90
4
 70
1
 10
89.8733074326793
 20
220.56649609580515
 10
90.69595264751041
 20
219.7438508809747
 10
89.8733074326793
 20
218.92120566614327
 10
89.8733074326793
 20
220.56649609580515
  0
LWPOLYLINE
  5
AE
330
17
100
AcDbEntity
  8
ENG_L
100
AcDbPolyline
 90
5
 70
1
 10
87.9457297933725
 20
44.816180113882886
 10
89.25026941803031
 20
44.816180113882886
 10
90.38443364018583
 20
43.682015891727374
 10
87.9457297933725
 20
43.333629627897
 10
87.9457297933725
 20
44.816180113882886
  0
LWPOLYLINE
  5
AF
330
17
100
AcDbEntity
  8
ENG_L
100
AcDbPolyline
 90
4
 70
1
 10
88.90951861302588
 20
31.946174653384563
 10
88.90951861302588
 20
33.59146508304667
 10
89.73216382785698
 20
32.768819868215445
 10
88.90951861302588
 20
31.946174653384563
  0
LWPOLYLINE
  5
B0
330
17
100
AcDbEntity
  8
ENG_L
100
AcDbPolyline
 90
4
 70
1
 10
88.90951861302588
 20
22.02599924720594
 10
89.73216382785698
 20
21.203354032374722
 10
88.90951861302588
 20
20.380708817543834
 10
88.90951861302588
 20
22.02599924720594
  0
LWPOLYLINE
  5
B1
330
17
100
AcDbEntity
  8
ENG_L
100
AcDbPolyline
 90
4
 70
1
 10
88.35826144455845
 20
37.594005386128785
 10
86.35389959086322
 20
38.59618631297634
 10
87.85717098113464
 20
39.09727677640029
 10
88.35826144455845
 20
37.594005386128785
  0
LWPOLYLINE
  5
B2
330
17
100
AcDbEntity
  8
ENG_L
100
AcDbPolyline
 90
4
 70
1
 10
87.4638353835458
 20
39.65648521061149
 10
87.4638353835458
 20
41.3017756402736
 10
88.28648059837688
 20
40.47913042544271
 10
87.4638353835458
 20
39.65648521061149
  0
LWPOLYLINE
  5
B3
330
17
100
AcDbEntity
  8
ENG_L
100
AcDbPolyline
 90
4
 70
1
 10
87.4638353835458
 20
20.098421607898874
 10
88.28648059837688
 20
19.27577639306799
 10
87.4638353835458
 20
18.45313117823677
 10
87.4638353835458
 20
20.098421607898874
  0
LWPOLYLINE
  5
B4
330
17
100
AcDbEntity
  8
ENG_L
100
AcDbPolyline
 90
7
 70
1
 10
86.66180051456863
 20
32.748209522361684
 10
86.25909935897906
 20
33.150910677951174
 10
85.29531053932568
 20
32.18712185829775
 10
84.73965831325638
 20
32.742774084366985
 10
86.20308027171289
 20
34.791564826206155
 10
88.53834518841754
 20
33.123518457131354
 10
86.66180051456863
 20
32.748209522361684
  0
LWPOLYLINE
  5
B5
330
17
100
AcDbEntity
  8
ENG_L
100
AcDbPolyline
 90
5
 70
1
 10
84.81341612949896
 20
23.371878876594977
 10
84.81341612949896
 20
27.085890550386125
 10
85.50040303545056
 20
27.772877456337607
 10
85.79380294076675
 20
23.371878876594977
 10
84.81341612949896
 20
23.371878876594977
  0
LWPOLYLINE
  5
B6
330
17
100
AcDbEntity
  8
ENG_L
100
AcDbPolyline
 90
4
 70
1
 10
83.6086801049322
 20
57.48657837419935
 10
83.6086801049322
 20
59.13186880386145
 10
84.4313253197633
 20
58.309223589030566
 10
83.6086801049322
 20
57.48657837419935
  0
LWPOLYLINE
  5
B7
330
17
100
AcDbEntity
  8
ENG_L
100
AcDbPolyline
 90
4
 70
1
 10
81.53995886080311
 20
51.080807441630014
 10
80.71731364597201
 20
50.25816222679913
 10
80.71731364597201
 20
51.90345265646123
 10
81.53995886080311
 20
51.080807441630014
  0
LWPOLYLINE
  5
B8
330
17
100
AcDbEntity
  8
ENG_L
100
AcDbPolyline
 90
4
 70
1
 10
80.23541923614532
 20
48.33058458749206
 10
80.23541923614532
 20
49.975875017154166
 10
81.0580644509764
 20
49.15322980232328
 10
80.23541923614532
 20
48.33058458749206
  0
LWPOLYLINE
  5
B9
330
17
100
AcDbEntity
  8
ENG_L
100
AcDbPolyline
 90
5
 70
1
 10
79.13598100117187
 20
45.98507032322063
 10
79.60592680592218
 20
44.575232908969696
 10
78.54878880175187
 20
44.575232908969696
 10
78.54878880175187
 20
45.397878123800695
 10
79.13598100117187
 20
45.98507032322063
  0
LWPOLYLINE
  5
BA
330
17
100
AcDbEntity
  8
ENG_L
100
AcDbPolyline
 90
11
 70
1
 10
78.06689439192517
 20
29.6893275164698
 10
76.06940098602671
 20
30.18870086794445
 10
76.42418924292906
 20
31.25306563865138
 10
77.56651216994456
 20
31.824227102159153
 10
78.49005215822896
 20
31.51638043939775
 10
79.51257762140527
 20
28.960066781456906
 10
79.51257762140527
 20
22.549233661763868
 10
78.24857883481643
 20
21.285234875175085
 10
78.539561034219
 20
24.48603906860347
 10
78.06689439192517
 20
24.958705710897313
 10
78.06689439192517
 20
29.6893275164698
  0
LWPOLYLINE
  5
BB
330
17
100
AcDbEntity
  8
ENG_L
100
AcDbPolyline
 90
5
 70
1
 10
77.58499998209848
 20
42.50651166484043
 10
78.21486834102424
 20
43.13638002376641
 10
78.60174993774095
 20
41.20197204018283
 10
77.58499998209848
 20
41.20197204018283
 10
77.58499998209848
 20
42.50651166484043
  0
LWPOLYLINE
  5
BC
330
17
100
AcDbEntity
  8
ENG_L
100
AcDbPolyline
 90
4
 70
1
 10
76.23912035270942
 20
33.73260868786887
 10
75.41647513787834
 20
32.90996347303798
 10
75.41647513787834
 20
34.55525390270009
 10
76.23912035270942
 20
33.73260868786887
  0
LWPOLYLINE
  5
BD
330
17
100
AcDbEntity
  8
ENG_L
100
AcDbPolyline
 90
5
 70
1
 10
74.31703690290486
 20
31.046343618593152
 10
74.78698270765518
 20
29.636506204341995
 10
73.72984470348489
 20
29.636506204341995
 10
73.72984470348489
 20
30.45915141917299
 10
74.31703690290486
 20
31.046343618593152
  0
LWPOLYLINE
  5
BE
330
17
100
AcDbEntity
  8
ENG_L
100
AcDbPolyline
 90
4
 70
1
 10
73.48889749857155
 20
27.609124964943945
 10
73.48889749857155
 20
29.25441539460616
 10
74.3115427134026
 20
28.431770179775274
 10
73.48889749857155
 20
27.609124964943945
  0
LWPOLYLINE
  5
BF
330
17
100
AcDbEntity
  8
ENG_L
100
AcDbPolyline
 90
4
 70
1
 10
73.00700308874484
 20
28.29062657495274
 10
73.82964830357592
 20
27.46798136012185
 10
73.00700308874484
 20
26.64533614529063
 10
73.00700308874484
 20
28.29062657495274
  0
LWPOLYLINE
  5
C0
330
17
100
AcDbEntity
  8
ENG_L
100
AcDbPolyline
 90
4
 70
1
 10
72.52510867891813
 20
24.717758505984122
 10
72.52510867891813
 20
26.363048935646226
 10
73.34775389374923
 20
25.540403720815007
 10
72.52510867891813
 20
24.717758505984122
  0
LWPOLYLINE
  5
C1
330
17
100
AcDbEntity
  8
ENG_L
100
AcDbPolyline
 90
4
 70
1
 10
71.07942544943805
 20
21.06221042755263
 10
71.9020706642691
 20
20.2395652127213
 10
71.07942544943805
 20
19.416919997890414
 10
71.07942544943805
 20
21.06221042755263
  0
LWPOLYLINE
  5
C2
330
17
100
AcDbEntity
  8
ENG_D
100
AcDbPolyline
 90
4
 70
1
 10
216.61153721710102
 20
103.46615450791774
 10
217.4341824319321
 20
102.64350929308685
 10
216.61153721710102
 20
101.82086407825564
 10
216.61153721710102
 20
103.46615450791774
  0
LWPOLYLINE
  5
C3
330
17
100
AcDbEntity
  8
ENG_D
100
AcDbPolyline
 90
4
 70
1
 10
216.9522880221054
 20
108.90813662083387
 10
216.12964280727434
 20
108.08549140600287
 10
216.12964280727434
 20
109.7307818356652
 10
216.9522880221054
 20
108.90813662083387
  0
LWPOLYLINE
  5
C4
330
17
100
AcDbEntity
  8
ENG_D
100
AcDbPolyline
 90
53
 70
1
 10
203.32030576666958
 20
107.04122740142097
 10
203.84133535669355
 20
107.56225699144473
 10
204.32322976652023
 20
107.08036258161813
 10
204.77039818916478
 20
107.5275310042626
 10
204.61463868550254
 20
107.99480951524953
 10
203.70681652226693
 20
108.29741690299466
 10
204.8051241763469
 20
109.9448783841146
 10
204.8051241763469
 20
110.73591066004973
 10
204.28145668310705
 20
111.25957815328957
 10
205.24524550276047
 20
113.66905020242302
 10
204.7053205762559
 20
114.20897512892758
 10
205.26440898682355
 20
114.76806353949509
 10
207.33236166874502
 20
113.21709902805411
 10
210.7794524832091
 20
111.89129486864479
 10
210.20576628453165
 20
111.31760866996743
 10
210.68766069435833
 20
110.83571426014072
 10
210.45580158376276
 20
110.60385514954507
 10
213.52728567909966
 20
110.84012315687863
 10
215.0739163782707
 20
110.06680780729316
 10
214.87194564671853
 20
111.07666146505402
 10
216.41407144639774
 20
111.07666146505402
 10
215.89829826732284
 20
107.98202239060473
 10
216.85248442201438
 20
106.07365008122183
 10
216.85248442201438
 20
103.07900151105831
 10
215.91164718262834
 20
100.72690841259335
 10
216.39902997186172
 20
99.75214283412659
 10
215.84577192161802
 20
98.64562673363919
 10
215.40680119253432
 20
98.20665600455547
 10
214.92490678270758
 20
98.68855041438218
 10
214.06092156314526
 20
97.82456519481985
 10
212.13334392383848
 20
97.82456519481985
 10
211.06975150409403
 20
96.76097277507534
 10
210.5878570942673
 20
97.24286718490205
 10
210.15353844471855
 20
96.80854853535337
 10
209.18974962506513
 20
97.29044294518008
 10
208.68288905431064
 20
96.78358237442541
 10
206.7553114150038
 20
98.22926560390555
 10
206.33599510707813
 20
97.80994929597998
 10
202.96273423829126
 20
98.29184370580668
 10
202.4954557273045
 20
97.82456519481985
 10
201.37498338821175
 20
97.82456519481985
 10
200.51565024818458
 20
98.2542317648335
 10
200.085983678171
 20
97.82456519481985
 10
198.95565274626628
 20
97.82456519481985
 10
197.11175403953527
 20
98.93090441885843
 10
199.39070206658505
 20
99.25646842272273
 10
199.88637647798888
 20
99.75214283412659
 10
204.22342616642916
 20
99.75214283412659
 10
204.8051241763469
 20
100.33384084404429
 10
204.8051241763469
 20
102.06181128316916
 10
204.2234261664292
 20
102.64350929308685
 10
204.76598899614967
 20
103.18607212280727
 10
203.32030576666958
 20
107.04122740142097
  0
LWPOLYLINE
  5
C5
330
17
100
AcDbEntity
  8
ENG_D
100
AcDbPolyline
 90
14
 70
1
 10
210.7272303068204
 20
109.16816452490252
 10
210.736770656398
 20
109.14908382574728
 10
209.18559161076345
 20
109.14908382574728
 10
208.9941999156881
 20
110.10604230112386
 10
208.1783850451338
 20
109.2902274305696
 10
207.8806025286515
 20
109.58800994705187
 10
207.71062864212885
 20
108.05824496834815
 10
209.21938902367847
 20
106.98055898152703
 10
210.23491371516332
 20
106.98055898152703
 10
211.10720068249123
 20
105.67212853053532
 10
211.52575280262218
 20
106.09068065066619
 10
211.03006805553125
 20
108.07341963902984
 10
211.79537067273012
 20
108.45607094762933
 10
210.7272303068204
 20
109.16816452490252
  0
LWPOLYLINE
  5
C6
330
17
100
AcDbEntity
  8
ENG_D
100
AcDbPolyline
 90
7
 70
1
 10
212.5733773379689
 20
101.15596506791047
 10
213.59273605632092
 20
99.32111937487687
 10
213.97637439829026
 20
99.44899882219993
 10
214.16389465583921
 20
101.51172165523847
 10
213.43164779294955
 20
101.14559822379366
 10
212.9973291434008
 20
101.57991687334234
 10
212.5733773379689
 20
101.15596506791047
  0
LWPOLYLINE
  5
C7
330
17
100
AcDbEntity
  8
ENG_D
100
AcDbPolyline
 90
8
 70
1
 10
212.89752554330974
 20
102.64350929308674
 10
213.37941995313648
 20
103.12540370291356
 10
213.37941995313642
 20
103.12540370291356
 10
212.36652117144337
 20
103.12540370291356
 10
211.8846267616167
 20
104.08919252256699
 10
211.79259311883405
 20
104.08919252256699
 10
211.79259311883405
 20
102.64350929308674
 10
212.89752554330974
 20
102.64350929308674
  0
LWPOLYLINE
  5
C8
330
17
100
AcDbEntity
  8
ENG_D
100
AcDbPolyline
 90
6
 70
1
 10
208.68301787880307
 20
102.53575528093396
 10
209.3401798497627
 20
98.81183744549583
 10
211.069751504094
 20
99.00401207375486
 10
211.069751504094
 20
101.61728478121901
 10
210.02640141179515
 20
103.49531494735686
 10
208.68301787880307
 20
102.53575528093396
  0
LWPOLYLINE
  5
C9
330
17
100
AcDbEntity
  8
ENG_D
100
AcDbPolyline
 90
5
 70
1
 10
209.99192108755312
 20
104.98852624264177
 10
210.08535233858674
 20
105.45568249780979
 10
209.7293660642072
 20
105.81166877218939
 10
209.6467480304991
 20
105.56381467106513
 10
209.99192108755312
 20
104.98852624264177
  0
LWPOLYLINE
  5
CA
330
17
100
AcDbEntity
  8
ENG_D
100
AcDbPolyline
 90
4
 70
1
 10
210.34690988935395
 20
110.4949634551362
 10
210.34690988935395
 20
112.14025388479831
 10
211.16955510418504
 20
111.31760866996743
 10
210.34690988935395
 20
110.4949634551362
  0
LWPOLYLINE
  5
CB
330
17
100
AcDbEntity
  8
ENG_D
100
AcDbPolyline
 90
4
 70
1
 10
210.34690988935395
 20
96.03813116033555
 10
210.34690988935395
 20
97.68342158999732
 10
211.16955510418504
 20
96.86077637516644
 10
210.34690988935395
 20
96.03813116033555
  0
LWPOLYLINE
  5
CC
330
17
100
AcDbEntity
  8
ENG_D
100
AcDbPolyline
 90
5
 70
1
 10
210.27095539892338
 20
107.43643677633796
 10
207.53464393301374
 20
107.82733841432501
 10
210.16098832363244
 20
108.95291458173317
 10
210.62258308144942
 20
108.49131982391602
 10
210.27095539892338
 20
107.43643677633796
  0
LWPOLYLINE
  5
CD
330
17
100
AcDbEntity
  8
ENG_D
100
AcDbPolyline
 90
4
 70
1
 10
208.90122665987386
 20
96.03813116033555
 10
208.90122665987386
 20
97.68342158999732
 10
209.7238718747049
 20
96.86077637516644
 10
208.90122665987386
 20
96.03813116033555
  0
LWPOLYLINE
  5
CE
330
17
100
AcDbEntity
  8
ENG_D
100
AcDbPolyline
 90
4
 70
1
 10
207.45554343039376
 20
119.6509572418436
 10
207.45554343039376
 20
121.29624767150592
 10
208.27818864522482
 20
120.4736024566746
 10
207.45554343039376
 20
119.6509572418436
  0
LWPOLYLINE
  5
CF
330
17
100
AcDbEntity
  8
ENG_D
100
AcDbPolyline
 90
4
 70
1
 10
207.45554343039376
 20
96.03813116033544
 10
207.45554343039376
 20
97.68342158999744
 10
208.27818864522484
 20
96.86077637516644
 10
207.45554343039376
 20
96.03813116033544
  0
LWPOLYLINE
  5
D0
330
17
100
AcDbEntity
  8
ENG_D
100
AcDbPolyline
 90
4
 70
1
 10
206.97364902056705
 20
96.52002557016192
 10
206.97364902056705
 20
98.16531599982403
 10
207.79629423539814
 20
97.34267078499315
 10
206.97364902056705
 20
96.52002557016192
  0
LWPOLYLINE
  5
D1
330
17
100
AcDbEntity
  8
ENG_D
100
AcDbPolyline
 90
5
 70
1
 10
206.04570601614273
 20
121.06079465609454
 10
207.27967383838933
 20
121.47211726351026
 10
207.90159202499143
 20
120.85019907690797
 10
206.6676242027448
 20
120.43887646949258
 10
206.04570601614273
 20
121.06079465609454
  0
LWPOLYLINE
  5
D2
330
17
100
AcDbEntity
  8
ENG_D
100
AcDbPolyline
 90
4
 70
1
 10
206.35061100591804
 20
120.9554968665013
 10
205.52796579108696
 20
120.13285165167042
 10
205.52796579108696
 20
121.77814208133253
 10
206.35061100591804
 20
120.9554968665013
  0
LWPOLYLINE
  5
D3
330
17
100
AcDbEntity
  8
ENG_D
100
AcDbPolyline
 90
4
 70
1
 10
205.94049744227297
 20
119.51605505666762
 10
203.93613558857763
 20
120.51823598351507
 10
205.43940697884912
 20
121.01932644693902
 10
205.94049744227297
 20
119.51605505666762
  0
LWPOLYLINE
  5
D4
330
17
100
AcDbEntity
  8
ENG_D
100
AcDbPolyline
 90
5
 70
1
 10
205.86226218051726
 20
117.82318320262786
 10
204.8051241763469
 20
117.82318320262786
 10
204.8051241763469
 20
118.64582841745886
 10
205.39231637576694
 20
119.23302061687879
 10
205.86226218051726
 20
117.82318320262786
  0
LWPOLYLINE
  5
D5
330
17
100
AcDbEntity
  8
ENG_D
100
AcDbPolyline
 90
5
 70
1
 10
203.63623396700922
 20
116.99504379829439
 10
204.80512417634694
 20
118.16393400763225
 10
205.32174457335574
 20
117.6473136106233
 10
204.9575125690224
 20
116.55461759762342
 10
203.63623396700922
 20
116.99504379829439
  0
LWPOLYLINE
  5
D6
330
17
100
AcDbEntity
  8
ENG_D
100
AcDbPolyline
 90
4
 70
1
 10
204.56417697143357
 20
115.51351475358518
 10
205.38682218626465
 20
114.6908695387543
 10
204.56417697143357
 20
113.86822432392307
 10
204.56417697143357
 20
115.51351475358518
  0
LWPOLYLINE
  5
D7
330
17
100
AcDbEntity
  8
ENG_D
100
AcDbPolyline
 90
5
 70
1
 10
204.85808531233596
 20
111.55855587488072
 10
203.84133535669352
 20
111.55855587488072
 10
203.84133535669352
 20
112.86309549953843
 10
204.47120371561928
 20
113.4929638584644
 10
204.85808531233596
 20
111.55855587488072
  0
LWPOLYLINE
  5
D8
330
17
100
AcDbEntity
  8
ENG_D
100
AcDbPolyline
 90
4
 70
1
 10
204.0822825616069
 20
111.65835947497172
 10
204.90492777643792
 20
110.83571426014072
 10
204.0822825616069
 20
110.01306904530938
 10
204.0822825616069
 20
111.65835947497172
  0
LWPOLYLINE
  5
D9
330
17
100
AcDbEntity
  8
ENG_D
100
AcDbPolyline
 90
4
 70
1
 10
203.60038815178015
 20
97.00191997998864
 10
203.60038815178015
 20
98.64721040965074
 10
204.42303336661124
 20
97.82456519481985
 10
203.60038815178015
 20
97.00191997998864
  0
LWPOLYLINE
  5
DA
330
17
100
AcDbEntity
  8
ENG_D
100
AcDbPolyline
 90
19
 70
1
 10
196.85386641420638
 20
115.70090146332556
 10
201.39490040558314
 20
114.89954252367085
 10
201.89477143612197
 20
112.40018737097657
 10
202.39565212721345
 20
111.89930667988502
 10
202.39565212721345
 20
109.97172904057828
 10
203.86194570254733
 20
108.50543546524437
 10
203.5421810428305
 20
106.90661216666008
 10
202.39565212721342
 20
107.28878847186563
 10
202.39565212721342
 20
108.34902705211601
 10
201.30786756409108
 20
109.87192544048729
 10
200.13509364021067
 20
109.87192544048729
 10
199.5702935096434
 20
108.74232517935289
 10
199.02239125842652
 20
109.2902274305696
 10
199.02239125842652
 20
112.66348829935646
 10
198.54049684859984
 20
113.14538270918317
 10
198.54049684859984
 20
114.1091715288366
 10
197.95879883868207
 20
114.6908695387543
 10
196.85386641420638
 20
114.6908695387543
 10
196.85386641420638
 20
115.70090146332556
  0
LWPOLYLINE
  5
DB
330
17
100
AcDbEntity
  8
ENG_D
100
AcDbPolyline
 90
4
 70
1
 10
201.67281051247338
 20
113.38632991409669
 10
201.67281051247338
 20
115.03162034375846
 10
202.49545572730446
 20
114.20897512892758
 10
201.67281051247338
 20
113.38632991409669
  0
LWPOLYLINE
  5
DC
330
17
100
AcDbEntity
  8
ENG_D
100
AcDbPolyline
 90
5
 70
1
 10
202.16153526657683
 20
116.47047322896186
 10
200.3888812336695
 20
116.11594242238054
 10
199.8863764779889
 20
116.61844717806102
 10
200.94996889773333
 20
117.68203959780554
 10
202.16153526657683
 20
116.47047322896186
  0
LWPOLYLINE
  5
DD
330
17
100
AcDbEntity
  8
ENG_D
100
AcDbPolyline
 90
4
 70
1
 10
201.19091610264667
 20
116.4773035732386
 10
202.01356131747775
 20
115.65465835840772
 10
201.19091610264667
 20
114.83201314357649
 10
201.19091610264667
 20
116.4773035732386
  0
LWPOLYLINE
  5
DE
330
17
100
AcDbEntity
  8
ENG_D
100
AcDbPolyline
 90
5
 70
1
 10
201.0150465106422
 20
98.34118559182858
 10
201.63696469724434
 20
97.71926740522663
 10
200.4029968749977
 20
97.3079447978109
 10
199.7810786883956
 20
97.92986298441319
 10
201.0150465106422
 20
98.34118559182858
  0
LWPOLYLINE
  5
DF
330
17
100
AcDbEntity
  8
ENG_D
100
AcDbPolyline
 90
4
 70
1
 10
201.04977249782436
 20
106.01677016187372
 10
200.22712728299328
 20
105.1941249470425
 10
200.22712728299328
 20
106.83941537670461
 10
201.04977249782436
 20
106.01677016187372
  0
LWPOLYLINE
  5
E0
330
17
100
AcDbEntity
  8
ENG_D
100
AcDbPolyline
 90
5
 70
1
 10
197.68200581853972
 20
100.43913863363774
 10
198.15195162329007
 20
99.02930121938658
 10
197.09481361911975
 20
99.02930121938658
 10
197.09481361911975
 20
99.85194643421758
 10
197.68200581853972
 20
100.43913863363774
  0
LWPOLYLINE
  5
E1
330
17
100
AcDbEntity
  8
ENG_D
100
AcDbPolyline
 90
4
 70
1
 10
195.890077594553
 20
97.68342158999732
 10
196.71272280938408
 20
96.86077637516644
 10
195.890077594553
 20
96.03813116033555
 10
195.890077594553
 20
97.68342158999732
  0
LWPOLYLINE
  5
E2
330
17
100
AcDbEntity
  8
ENG_D
100
AcDbPolyline
 90
69
 70
1
 10
186.8672761469241
 20
92.60604407931771
 10
187.83106496657757
 20
92.124149669491
 10
188.27180068010844
 20
93.00562109655274
 10
189.14355585697922
 20
93.00562109655274
 10
189.14355585697922
 20
91.44794169288217
 10
190.3175908989423
 20
90.6652516649068
 10
191.31208070119936
 20
91.65974146716383
 10
192.20986167946265
 20
90.76196048890051
 10
192.5868877258501
 20
91.51601258167553
 10
193.1408534095764
 20
91.70066780958419
 10
192.75776393067946
 20
92.46684676737816
 10
192.75776393067946
 20
94.98265500543246
 10
194.20344716015956
 20
98.35591587421943
 10
194.20344716015956
 20
99.51119562921318
 10
196.66588034528212
 20
99.51119562921318
 10
196.2789987485654
 20
97.57678764562971
 10
196.12267285727208
 20
97.73311353692304
 10
194.68534156998626
 20
95.81667182054198
 10
194.68534156998626
 20
94.83339513576861
 10
194.25567499997257
 20
94.40372856575485
 10
195.24955337240445
 20
92.41597182089112
 10
194.28576455275106
 20
91.93407741106441
 10
194.71378152966028
 20
91.07804345724601
 10
194.25567499997257
 20
90.16183039787063
 10
194.68534156998626
 20
89.73216382785698
 10
194.68534156998626
 20
88.56876780802159
 10
194.20344716015956
 20
88.08687339819488
 10
194.20344716015956
 20
86.51557486626638
 10
190.41268830090112
 20
86.26285760898256
 10
188.43920205439306
 20
85.27611448572847
 10
187.01063285896484
 20
85.75230421753798
 10
185.52115848529542
 20
84.75932130175823
 10
183.55819781934218
 20
86.23154180122327
 10
182.13759910233819
 20
85.75800889555518
 10
181.04957081400482
 20
86.3020230397219
 10
180.22850927518527
 20
87.12308457854145
 10
180.22850927518527
 20
88.0377634361551
 10
179.09890901405072
 20
88.60256356672235
 10
179.7466148653586
 20
89.25026941803027
 10
179.7466148653586
 20
90.49634544732832
 10
179.16491685544085
 20
91.07804345724601
 10
179.7466148653586
 20
91.65974146716371
 10
179.7466148653586
 20
95.79718395542203
 10
179.2647204555319
 20
96.27907836524874
 10
179.2647204555319
 20
99.85194643421758
 10
179.6468112652676
 20
100.2340372439533
 10
179.2647204555319
 20
100.61612805368902
 10
179.2647204555319
 20
102.74331289317784
 10
180.236055114216
 20
103.71464755186189
 10
180.56152359753435
 20
107.94573783500073
 10
180.88098808576333
 20
107.94286001010012
 10
181.19823610388445
 20
102.54964370204156
 10
180.71040368501198
 20
102.06181128316916
 10
180.71040368501198
 20
99.85194643421758
 10
181.1922980948387
 20
99.37005202439086
 10
181.1922980948387
 20
96.96057997525742
 10
182.1908129016742
 20
95.96206516842187
 10
181.76754168918234
 20
94.69225153094618
 10
183.1198757341455
 20
94.69225153094618
 10
183.1198757341455
 20
93.38771190628859
 10
182.15608691449208
 20
92.42392308663516
 10
182.15608691449208
 20
91.14047914946045
 10
183.19943700679093
 20
89.26244898332259
 10
184.56555896362556
 20
90.23825038106159
 10
184.56555896362556
 20
90.97823985715503
 10
184.04893856661675
 20
91.49486025416387
 10
184.42482902111414
 20
92.622531617656
 10
186.38538173709742
 20
91.6422552596643
 10
186.8672761469241
 20
92.60604407931771
  0
LWPOLYLINE
  5
E3
330
17
100
AcDbEntity
  8
ENG_D
100
AcDbPolyline
 90
4
 70
1
 10
195.4081831847263
 20
97.20152718017106
 10
196.23082839955737
 20
96.37888196533973
 10
195.4081831847263
 20
95.55623675050873
 10
195.4081831847263
 20
97.20152718017106
  0
LWPOLYLINE
  5
E4
330
17
100
AcDbEntity
  8
ENG_D
100
AcDbPolyline
 90
4
 70
1
 10
195.74893398973066
 20
95.4150931456863
 10
194.9262887748996
 20
94.59244793085541
 10
194.9262887748996
 20
96.23773836051753
 10
195.74893398973066
 20
95.4150931456863
  0
LWPOLYLINE
  5
E5
330
17
100
AcDbEntity
  8
ENG_D
100
AcDbPolyline
 90
4
 70
1
 10
195.26703957990395
 20
91.55993786707273
 10
194.44439436507287
 20
90.73729265224185
 10
194.44439436507287
 20
92.38258308190395
 10
195.26703957990395
 20
91.55993786707273
  0
LWPOLYLINE
  5
E6
330
17
100
AcDbEntity
  8
ENG_D
100
AcDbPolyline
 90
4
 70
1
 10
194.44439436507287
 20
91.41879426225053
 10
195.26703957990395
 20
90.5961490474193
 10
194.44439436507287
 20
89.77350383258842
 10
194.44439436507287
 20
91.41879426225053
  0
LWPOLYLINE
  5
E7
330
17
100
AcDbEntity
  8
ENG_D
100
AcDbPolyline
 90
5
 70
1
 10
195.37233736949727
 20
115.06746615898777
 10
194.13836954725065
 20
114.65614355157206
 10
193.51645136064855
 20
115.27806173817434
 10
194.7504191828951
 20
115.68938434558973
 10
195.37233736949727
 20
115.06746615898777
  0
LWPOLYLINE
  5
E8
330
17
100
AcDbEntity
  8
ENG_D
100
AcDbPolyline
 90
4
 70
1
 10
192.9987111355928
 20
86.59985016398353
 10
193.82135635042388
 20
85.7772049491523
 10
192.9987111355928
 20
84.95455973432142
 10
192.9987111355928
 20
86.59985016398353
  0
LWPOLYLINE
  5
E9
330
17
100
AcDbEntity
  8
ENG_D
100
AcDbPolyline
 90
6
 70
1
 10
192.432373431388
 20
114.15749210206894
 10
189.31632297749928
 20
115.00732404403868
 10
189.76109968212597
 20
116.34165415791864
 10
190.45890281986985
 20
115.64385102017482
 10
192.83965056179628
 20
115.37932349329417
 10
192.432373431388
 20
114.15749210206894
  0
LWPOLYLINE
  5
EA
330
17
100
AcDbEntity
  8
ENG_D
100
AcDbPolyline
 90
5
 70
1
 10
189.11432405929938
 20
113.89745612160296
 10
191.39726840245055
 20
114.22359102776758
 10
192.06415411361917
 20
113.55670531659867
 10
189.78120977046817
 20
113.23057041043438
 10
189.11432405929938
 20
113.89745612160296
  0
LWPOLYLINE
  5
EB
330
17
100
AcDbEntity
  8
ENG_D
100
AcDbPolyline
 90
4
 70
1
 10
191.89377871111708
 20
85.7772049491523
 10
191.07113349628602
 20
84.95455973432131
 10
191.07113349628602
 20
86.59985016398363
 10
191.89377871111708
 20
85.7772049491523
  0
LWPOLYLINE
  5
EC
330
17
100
AcDbEntity
  8
ENG_D
100
AcDbPolyline
 90
5
 70
1
 10
191.03528768105696
 20
100.61063386418667
 10
189.80131985881042
 20
100.19931125677128
 10
189.17940167220823
 20
100.82122944337324
 10
190.41336949445486
 20
101.23255205078895
 10
191.03528768105696
 20
100.61063386418667
  0
LWPOLYLINE
  5
ED
330
17
100
AcDbEntity
  8
ENG_D
100
AcDbPolyline
 90
4
 70
1
 10
189.96620107181027
 20
117.58223599771445
 10
189.1435558569792
 20
116.75959078288356
 10
189.1435558569792
 20
118.40488121254566
 10
189.96620107181027
 20
117.58223599771445
  0
LWPOLYLINE
  5
EE
330
17
100
AcDbEntity
  8
ENG_D
100
AcDbPolyline
 90
4
 70
1
 10
189.4843066619836
 20
85.29531053932571
 10
188.6616614471525
 20
84.47266532449449
 10
188.6616614471525
 20
86.1179557541566
 10
189.4843066619836
 20
85.29531053932571
  0
LWPOLYLINE
  5
EF
330
17
100
AcDbEntity
  8
ENG_D
100
AcDbPolyline
 90
5
 70
1
 10
188.9394759085718
 20
110.1128726454007
 10
187.93881983241246
 20
110.1128726454007
 10
187.93881983241246
 20
111.89930667988502
 10
188.59108964474132
 20
112.55157649221404
 10
188.9394759085718
 20
110.1128726454007
  0
LWPOLYLINE
  5
F0
330
17
100
AcDbEntity
  8
ENG_D
100
AcDbPolyline
 90
4
 70
1
 10
188.1797670373258
 20
113.58593711427866
 10
189.0024122521569
 20
112.76329189944745
 10
188.1797670373258
 20
111.94064668461657
 10
188.1797670373258
 20
113.58593711427866
  0
LWPOLYLINE
  5
F1
330
17
100
AcDbEntity
  8
ENG_D
100
AcDbPolyline
 90
5
 70
1
 10
188.5686881913382
 20
108.1921253503707
 10
188.95556978805496
 20
106.25771736678713
 10
187.93881983241246
 20
106.25771736678713
 10
187.93881983241246
 20
107.56225699144473
 10
188.5686881913382
 20
108.1921253503707
  0
LWPOLYLINE
  5
F2
330
17
100
AcDbEntity
  8
ENG_D
100
AcDbPolyline
 90
5
 70
1
 10
188.9959578365828
 20
118.78697202228128
 10
187.93881983241246
 20
118.78697202228128
 10
187.93881983241246
 20
119.60961723711227
 10
188.52601203183247
 20
120.19680943653222
 10
188.9959578365828
 20
118.78697202228128
  0
LWPOLYLINE
  5
F3
330
17
100
AcDbEntity
  8
ENG_D
100
AcDbPolyline
 90
4
 70
1
 10
185.15423030038875
 20
120.49972953706833
 10
187.5361186768229
 20
120.9761072123553
 10
188.96525170268336
 20
119.54697418649485
 10
185.15423030038875
 20
120.49972953706833
  0
LWPOLYLINE
  5
F4
330
17
100
AcDbEntity
  8
ENG_D
100
AcDbPolyline
 90
5
 70
1
 10
186.97503101275905
 20
92.28277948181285
 10
186.97503101275905
 20
94.14307483569439
 10
188.23248003433463
 20
94.56222450955276
 10
187.90684503037176
 20
92.28277948181285
 10
186.97503101275905
 20
92.28277948181285
  0
LWPOLYLINE
  5
F5
330
17
100
AcDbEntity
  8
ENG_D
100
AcDbPolyline
 90
5
 70
1
 10
186.2880352132481
 20
85.40060832891905
 10
187.52200303549463
 20
85.81193093633443
 10
188.14392122209676
 20
85.19001274973247
 10
186.9099533998501
 20
84.77869014231676
 10
186.2880352132481
 20
85.40060832891905
  0
LWPOLYLINE
  5
F6
330
17
100
AcDbEntity
  8
ENG_D
100
AcDbPolyline
 90
4
 70
1
 10
184.8065061685389
 20
116.75959078288356
 10
184.8065061685389
 20
118.40488121254566
 10
185.62915138337
 20
117.58223599771445
 10
184.8065061685389
 20
116.75959078288356
  0
LWPOLYLINE
  5
F7
330
17
100
AcDbEntity
  8
ENG_D
100
AcDbPolyline
 90
4
 70
1
 10
183.84271734888551
 20
118.88677562237237
 10
184.6653625637166
 20
118.06413040754116
 10
183.84271734888551
 20
117.24148519271027
 10
183.84271734888551
 20
118.88677562237237
  0
LWPOLYLINE
  5
F8
330
17
100
AcDbEntity
  8
ENG_D
100
AcDbPolyline
 90
5
 70
1
 10
183.66684775688114
 20
86.29382534616126
 10
184.28876594348316
 20
85.67190715955897
 10
183.05479812123662
 20
85.26058455214358
 10
182.43287993463449
 20
85.88250273874553
 10
183.66684775688114
 20
86.29382534616126
  0
LWPOLYLINE
  5
F9
330
17
100
AcDbEntity
  8
ENG_D
100
AcDbPolyline
 90
4
 70
1
 10
182.25088714637616
 20
119.07255275403517
 10
183.7541585366477
 20
119.5736432174589
 10
184.2552490000715
 20
118.07037182718739
 10
182.25088714637616
 20
119.07255275403517
  0
LWPOLYLINE
  5
FA
330
17
100
AcDbEntity
  8
ENG_D
100
AcDbPolyline
 90
5
 70
1
 10
182.12411211245137
 20
117.34128879280115
 10
181.28433173762133
 20
117.34128879280115
 10
180.63605679708525
 20
118.63783867387323
 10
182.46620321718447
 20
119.7359265259328
 10
182.12411211245137
 20
117.34128879280115
  0
LWPOLYLINE
  5
FB
330
17
100
AcDbEntity
  8
ENG_D
100
AcDbPolyline
 90
4
 70
1
 10
182.25589051458311
 20
116.61844717806102
 10
181.43324529975203
 20
115.79580196323013
 10
181.43324529975203
 20
117.44109239289224
 10
182.25589051458311
 20
116.61844717806102
  0
LWPOLYLINE
  5
FC
330
17
100
AcDbEntity
  8
ENG_D
100
AcDbPolyline
 90
4
 70
1
 10
182.25589051458311
 20
96.86077637516644
 10
181.43324529975203
 20
96.03813116033555
 10
181.43324529975203
 20
97.68342158999732
 10
182.25589051458311
 20
96.86077637516644
  0
LWPOLYLINE
  5
FD
330
17
100
AcDbEntity
  8
ENG_D
100
AcDbPolyline
 90
12
 70
1
 10
180.71040368501198
 20
111.89930667988502
 10
181.1922980948387
 20
111.4174122700584
 10
181.1922980948387
 20
109.00794022092487
 10
182.01494330966972
 20
108.18529500609387
 10
180.31057681890258
 20
108.18529500609387
 10
178.7772847665463
 20
111.76297646159183
 10
179.2534056061
 20
116.04806401757517
 10
178.6830224456142
 20
116.61844717806102
 10
179.70926455736176
 20
117.64468928980875
 10
181.33993908818397
 20
116.66628457131534
 10
180.71040368501198
 20
116.03674916814333
 10
180.71040368501198
 20
111.89930667988502
  0
LWPOLYLINE
  5
FE
330
17
100
AcDbEntity
  8
ENG_D
100
AcDbPolyline
 90
7
 70
1
 10
180.2285092751853
 20
122.78327090571706
 10
179.183445772722
 20
121.73820740325392
 10
178.2561536749793
 20
123.90188896465337
 10
179.2228594598357
 20
124.86859474950973
 10
181.7040063757857
 20
123.49017979620413
 10
181.34027204393777
 20
121.6715081369647
 10
180.2285092751853
 20
122.78327090571706
  0
LWPOLYLINE
  5
FF
330
17
100
AcDbEntity
  8
ENG_D
100
AcDbPolyline
 90
4
 70
1
 10
179.98756207027193
 20
85.91834855397474
 10
179.98756207027193
 20
87.56363898363706
 10
180.810207285103
 20
86.74099376880574
 10
179.98756207027193
 20
85.91834855397474
  0
LWPOLYLINE
  5
100
330
17
100
AcDbEntity
  8
ENG_D
100
AcDbPolyline
 90
4
 70
1
 10
180.3283128752763
 20
103.60729811274017
 10
179.50566766044523
 20
102.78465289790928
 10
179.50566766044523
 20
104.42994332757138
 10
180.3283128752763
 20
103.60729811274017
  0
LWPOLYLINE
  5
101
330
17
100
AcDbEntity
  8
ENG_D
100
AcDbPolyline
 90
8
 70
1
 10
160.95273288211735
 20
235.06466839533792
 10
160.45622257345073
 20
235.56117870400462
 10
160.8155040907579
 20
238.07614932515463
 10
162.45635871599225
 20
235.12261099973264
 10
161.91652170177076
 20
234.5827739855113
 10
161.91652170177076
 20
233.47784156103546
 10
160.95273288211735
 20
233.47784156103546
 10
160.95273288211735
 20
235.06466839533792
  0
LWPOLYLINE
  5
102
330
17
100
AcDbEntity
  8
ENG_D
100
AcDbPolyline
 90
5
 70
1
 10
161.53992508153732
 20
77.79010137178288
 10
162.00987088628767
 20
76.38026395753184
 10
160.95273288211735
 20
76.38026395753184
 10
160.95273288211735
 20
77.20290917236272
 10
161.53992508153732
 20
77.79010137178288
  0
LWPOLYLINE
  5
103
330
17
100
AcDbEntity
  8
ENG_D
100
AcDbPolyline
 90
5
 70
1
 10
160.0961123287423
 20
234.2494393807475
 10
161.13734431236148
 20
232.51405274138205
 10
159.59908329541986
 20
232.51405274138205
 10
158.92635031188078
 20
233.85951870846023
 10
160.0961123287423
 20
234.2494393807475
  0
LWPOLYLINE
  5
104
330
17
100
AcDbEntity
  8
ENG_D
100
AcDbPolyline
 90
4
 70
1
 10
160.2298912673773
 20
81.29901165588971
 10
161.05253648220835
 20
80.47636644105872
 10
160.2298912673773
 20
79.65372122622738
 10
160.2298912673773
 20
81.29901165588971
  0
LWPOLYLINE
  5
105
330
17
100
AcDbEntity
  8
ENG_D
100
AcDbPolyline
 90
9
 70
1
 10
157.41025697986805
 20
242.05256586037626
 10
158.98460455921722
 20
241.10795731276679
 10
159.48232042083706
 20
239.61480972790716
 10
161.19368008703069
 20
237.33299683964893
 10
159.66768112257952
 20
237.33299683964893
 10
157.57947201333045
 20
238.89915367158588
 10
157.57947201333045
 20
239.88361249360503
 10
157.07696725764995
 20
240.38611724928538
 10
157.41025697986805
 20
242.05256586037626
  0
LWPOLYLINE
  5
106
330
17
100
AcDbEntity
  8
ENG_D
100
AcDbPolyline
 90
5
 70
1
 10
160.61881242138972
 20
79.2784607607685
 10
161.0056940181064
 20
77.34405277718514
 10
159.98894406246396
 20
77.34405277718514
 10
159.98894406246396
 20
78.64859240184285
 10
160.61881242138972
 20
79.2784607607685
  0
LWPOLYLINE
  5
107
330
17
100
AcDbEntity
  8
ENG_D
100
AcDbPolyline
 90
21
 70
1
 10
158.06136642315715
 20
83.03475205232292
 10
159.19096668429174
 20
82.46995192175565
 10
158.59548867279688
 20
81.8744739102607
 10
158.9822315620676
 20
81.1009881317194
 10
160.5055644594728
 20
79.57765523431415
 10
160.09424185205722
 20
78.34368741206754
 10
159.50704965263722
 20
78.9308796114876
 10
159.4766980269105
 20
78.90052798576086
 10
159.1864749501411
 20
78.02985875545265
 10
157.70162933688812
 20
78.32682787810319
 10
157.05000184322583
 20
78.9784553717655
 10
156.02603391801546
 20
78.4664714091603
 10
155.46776293333414
 20
79.5830133785228
 10
154.05857015119827
 20
80.4285290478045
 10
155.16999996419696
 20
81.53995886080301
 10
155.16999996419696
 20
83.26792929992789
 10
154.66749520851644
 20
83.77043405560836
 10
155.00429196438512
 20
85.4544178349519
 10
156.6662950406907
 20
84.34641578408142
 10
158.06136642315715
 20
84.62543006057477
 10
158.06136642315715
 20
83.03475205232292
  0
LWPOLYLINE
  5
108
330
17
100
AcDbEntity
  8
ENG_D
100
AcDbPolyline
 90
14
 70
1
 10
156.0600309676078
 20
234.1746373919269
 10
157.54872599634484
 20
236.25881043215878
 10
158.64306443307487
 20
235.1644719954289
 10
158.06136642315715
 20
234.5827739855113
 10
158.06136642315715
 20
231.891014726733
 10
158.57396181558752
 20
231.3784193343027
 10
160.01964504506768
 20
232.3422081539561
 10
160.47083847229067
 20
231.891014726733
 10
160.47083847229067
 20
230.72761870689763
 10
159.5922373538883
 20
229.8490175884953
 10
157.73224008743512
 20
230.11473148370288
 10
156.1068224004819
 20
231.1983432750051
 10
156.59507284782322
 20
233.63959551171166
 10
156.0600309676078
 20
234.1746373919269
  0
LWPOLYLINE
  5
109
330
17
100
AcDbEntity
  8
ENG_D
100
AcDbPolyline
 90
4
 70
1
 10
159.2661024477239
 20
77.44385637727613
 10
160.08874766255497
 20
76.62121116244514
 10
159.2661024477239
 20
75.79856594761381
 10
159.2661024477239
 20
77.44385637727613
  0
LWPOLYLINE
  5
10A
330
17
100
AcDbEntity
  8
ENG_D
100
AcDbPolyline
 90
4
 70
1
 10
159.2661024477239
 20
77.24424917709416
 10
159.2661024477239
 20
78.88953960675649
 10
160.08874766255497
 20
78.06689439192516
 10
159.2661024477239
 20
77.24424917709416
  0
LWPOLYLINE
  5
10B
330
17
100
AcDbEntity
  8
ENG_D
100
AcDbPolyline
 90
4
 70
1
 10
158.7842080378972
 20
81.09940445570784
 10
158.7842080378972
 20
82.74469488536995
 10
159.60685325272829
 20
81.92204967053873
 10
158.7842080378972
 20
81.09940445570784
  0
LWPOLYLINE
  5
10C
330
17
100
AcDbEntity
  8
ENG_D
100
AcDbPolyline
 90
4
 70
1
 10
156.8566303985904
 20
35.80132993199791
 10
156.8566303985904
 20
37.446620361660024
 10
157.67927561342148
 20
36.62397514682914
 10
156.8566303985904
 20
35.80132993199791
  0
LWPOLYLINE
  5
10D
330
17
100
AcDbEntity
  8
ENG_D
100
AcDbPolyline
 90
4
 70
1
 10
156.3747359887637
 20
36.28322434182463
 10
156.3747359887637
 20
37.92851477148673
 10
157.19738120359477
 20
37.10586955665585
 10
156.3747359887637
 20
36.28322434182463
  0
LWPOLYLINE
  5
10E
330
17
100
AcDbEntity
  8
ENG_D
100
AcDbPolyline
 90
5
 70
1
 10
156.70903237819394
 20
37.346816761569144
 10
155.65189437402367
 20
37.346816761569144
 10
155.65189437402367
 20
38.16946197640014
 10
156.23908657344364
 20
38.7566541758203
 10
156.70903237819394
 20
37.346816761569144
  0
LWPOLYLINE
  5
10F
330
17
100
AcDbEntity
  8
ENG_D
100
AcDbPolyline
 90
4
 70
1
 10
155.892841578937
 20
38.21080198113158
 10
155.892841578937
 20
39.856092410793906
 10
156.71548679376806
 20
39.03344719596258
 10
155.892841578937
 20
38.21080198113158
  0
LWPOLYLINE
  5
110
330
17
100
AcDbEntity
  8
ENG_D
100
AcDbPolyline
 90
5
 70
1
 10
155.82342731784556
 20
245.41423717736555
 10
156.1543991297042
 20
243.75937811807225
 10
155.22502560338884
 20
242.83000459175707
 10
152.9369192664962
 20
243.8106215932825
 10
155.82342731784556
 20
245.41423717736555
  0
LWPOLYLINE
  5
111
330
17
100
AcDbEntity
  8
ENG_D
100
AcDbPolyline
 90
5
 70
1
 10
155.71697198693266
 20
237.12677562191774
 10
156.33889017353476
 20
236.50485743531547
 10
155.1049223512882
 20
236.0935348279003
 10
154.483004164686
 20
236.71545301450215
 10
155.71697198693266
 20
237.12677562191774
  0
LWPOLYLINE
  5
112
330
17
100
AcDbEntity
  8
ENG_D
100
AcDbPolyline
 90
4
 70
1
 10
155.4109471691103
 20
43.229353279580664
 10
156.23359238394139
 20
42.406708064749445
 10
155.4109471691103
 20
41.58406284991856
 10
155.4109471691103
 20
43.229353279580664
  0
LWPOLYLINE
  5
113
330
17
100
AcDbEntity
  8
ENG_D
100
AcDbPolyline
 90
18
 70
1
 10
144.95041375774522
 20
41.92481365492273
 10
146.3960969872253
 20
41.92481365492273
 10
146.87799139705203
 20
42.406708064749445
 10
154.3060147446346
 20
42.406708064749445
 10
154.68810555437025
 20
42.02461725501383
 10
155.3887594386543
 20
42.72527113929792
 10
155.65591824395258
 20
36.046301006840366
 10
155.16999996419696
 20
35.56038272708473
 10
155.16999996419696
 20
34.596593907431306
 10
154.30968178863228
 20
33.73627573186666
 10
147.60455672808644
 20
33.48793776666115
 10
146.9777949971431
 20
34.1146994976046
 10
146.9777949971431
 20
35.56038272708473
 10
146.03738672538617
 20
36.50079099884162
 10
145.55549231555946
 20
38.428368638148356
 10
144.59867457373636
 20
39.38518637997146
 10
144.05170255100074
 20
41.02610244817828
 10
144.95041375774522
 20
41.92481365492273
  0
LWPOLYLINE
  5
114
330
17
100
AcDbEntity
  8
ENG_D
100
AcDbPolyline
 90
4
 70
1
 10
154.9290527592836
 20
52.18573986610564
 10
154.9290527592836
 20
53.83103029576775
 10
155.75169797411468
 20
53.00838508093686
 10
154.9290527592836
 20
52.18573986610564
  0
LWPOLYLINE
  5
115
330
17
100
AcDbEntity
  8
ENG_D
100
AcDbPolyline
 90
5
 70
1
 10
153.72431673471687
 20
52.76743787602356
 10
153.72431673471687
 20
54.07197750068127
 10
154.35418509364263
 20
54.701845859607026
 10
154.74106669035933
 20
52.76743787602356
 10
153.72431673471687
 20
52.76743787602356
  0
LWPOLYLINE
  5
116
330
17
100
AcDbEntity
  8
ENG_D
100
AcDbPolyline
 90
37
 70
1
 10
146.59570418740745
 20
53.00838508093686
 10
146.06158193776764
 20
52.47426283129708
 10
145.01640555116828
 20
52.99685102459672
 10
144.50386784843118
 20
52.89434348404931
 10
145.13246053297527
 20
52.51718787332293
 10
148.53706182829137
 20
52.03081625970629
 10
149.46996421773363
 20
51.09791387026408
 10
152.1628574651969
 20
51.546729411507954
 10
153.29025971814443
 20
52.674131664455444
 10
154.26866443663775
 20
51.04345713363323
 10
153.82412033480787
 20
50.59891303180342
 10
152.86033151515454
 20
50.59891303180342
 10
152.37843710532783
 20
50.117018621976705
 10
149.48707064636764
 20
50.117018621976705
 10
149.00517623654093
 20
49.63512421215
 10
145.15002095792735
 20
49.63512421215
 10
144.66033675297112
 20
49.145440007193784
 10
141.19506207922268
 20
49.4119995974821
 10
141.19506207922268
 20
51.180611041721
 10
142.18223144677256
 20
52.16778040927095
 10
142.654354290176
 20
54.05627178288475
 10
144.12935221892585
 20
57.00626764038441
 10
145.06920363910106
 20
57.94611906055969
 10
145.38413781856391
 20
59.52078995787402
 10
147.07759859723416
 20
57.827329179203744
 10
148.32367462653212
 20
57.827329179203744
 10
148.8147968038917
 20
58.31845135656333
 10
151.9291773898564
 20
58.035325848748485
 10
151.3670725253964
 20
56.91111611982846
 10
152.44444494671794
 20
55.8337436985068
 10
151.31484468558338
 20
55.268943567939544
 10
151.31484468558338
 20
53.8723703004993
 10
150.45085946602106
 20
53.00838508093686
 10
149.00517623654093
 20
53.00838508093686
 10
148.4234782266232
 20
52.42668707101905
 10
147.84178021670542
 20
53.00838508093686
 10
146.59570418740745
 20
53.00838508093686
  0
LWPOLYLINE
  5
117
330
17
100
AcDbEntity
  8
ENG_D
100
AcDbPolyline
 90
4
 70
1
 10
154.3060147446346
 20
54.45406831041699
 10
153.48336952980353
 20
53.631423095585774
 10
153.48336952980353
 20
55.27671352524788
 10
154.3060147446346
 20
54.45406831041699
  0
LWPOLYLINE
  5
118
330
17
100
AcDbEntity
  8
ENG_D
100
AcDbPolyline
 90
4
 70
1
 10
154.3060147446346
 20
52.526490671110146
 10
153.48336952980353
 20
51.70384545627926
 10
153.48336952980353
 20
53.34913588594104
 10
154.3060147446346
 20
52.526490671110146
  0
LWPOLYLINE
  5
119
330
17
100
AcDbEntity
  8
ENG_D
100
AcDbPolyline
 90
5
 70
1
 10
153.78939434762572
 20
80.99298683806744
 10
154.41131253422787
 20
80.37106865146548
 10
153.17734471198125
 20
79.95974604404977
 10
152.55542652537915
 20
80.58166423065205
 10
153.78939434762572
 20
80.99298683806744
  0
LWPOLYLINE
  5
11A
330
17
100
AcDbEntity
  8
ENG_D
100
AcDbPolyline
 90
5
 70
1
 10
152.76052791506345
 20
57.03720527903855
 10
154.01797693663903
 20
57.456354952896916
 10
153.69234193267613
 20
55.176909925157005
 10
152.76052791506345
 20
55.176909925157005
 10
152.76052791506345
 20
57.03720527903855
  0
LWPOLYLINE
  5
11B
330
17
100
AcDbEntity
  8
ENG_D
100
AcDbPolyline
 90
4
 70
1
 10
153.82412033480787
 20
60.2368012283373
 10
153.00147511997682
 20
59.414156013506414
 10
153.00147511997682
 20
61.05944644316852
 10
153.82412033480787
 20
60.2368012283373
  0
LWPOLYLINE
  5
11C
330
17
100
AcDbEntity
  8
ENG_D
100
AcDbPolyline
 90
4
 70
1
 10
152.5195807101501
 20
230.4866715019842
 10
152.5195807101501
 20
232.13196193164598
 10
153.34222592498116
 20
231.30931671681543
 10
152.5195807101501
 20
230.4866715019842
  0
LWPOLYLINE
  5
11D
330
17
100
AcDbEntity
  8
ENG_D
100
AcDbPolyline
 90
4
 70
1
 10
152.5195807101501
 20
79.17182681640067
 10
152.5195807101501
 20
80.81711724606299
 10
153.34222592498116
 20
79.994472031232
 10
152.5195807101501
 20
79.17182681640067
  0
LWPOLYLINE
  5
11E
330
17
100
AcDbEntity
  8
ENG_D
100
AcDbPolyline
 90
5
 70
1
 10
152.27863350523677
 20
57.58638197429056
 10
152.27863350523677
 20
58.40902718912155
 10
152.8658257046568
 20
58.99621938854149
 10
153.3357715094071
 20
57.58638197429056
 10
152.27863350523677
 20
57.58638197429056
  0
LWPOLYLINE
  5
11F
330
17
100
AcDbEntity
  8
ENG_D
100
AcDbPolyline
 90
13
 70
1
 10
148.76015942611457
 20
233.22224232099907
 10
149.38726704627658
 20
234.2674216879357
 10
149.38726704627658
 20
235.7461700053467
 10
150.251252265839
 20
236.61015522490914
 10
151.41464828567433
 20
236.61015522490914
 10
152.76052791506348
 20
235.26427559551988
 10
152.76052791506348
 20
233.33669795621304
 10
153.53560909659328
 20
232.56161677468333
 10
150.45974686499986
 20
232.2819929354476
 10
149.9451066935978
 20
231.7673527640456
 10
145.531867754954
 20
232.78579251911725
 10
145.5364172729879
 20
232.86404874842924
 10
148.76015942611457
 20
233.22224232099907
  0
LWPOLYLINE
  5
120
330
17
100
AcDbEntity
  8
ENG_D
100
AcDbPolyline
 90
4
 70
1
 10
151.55579189049672
 20
241.08834851817207
 10
151.55579189049672
 20
242.73363894783384
 10
152.37843710532778
 20
241.9109937330026
 10
151.55579189049672
 20
241.08834851817207
  0
LWPOLYLINE
  5
121
330
17
100
AcDbEntity
  8
ENG_D
100
AcDbPolyline
 90
4
 70
1
 10
151.55579189049672
 20
86.59985016398363
 10
152.37843710532778
 20
85.7772049491523
 10
151.55579189049672
 20
84.95455973432131
 10
151.55579189049672
 20
86.59985016398363
  0
LWPOLYLINE
  5
122
330
17
100
AcDbEntity
  8
ENG_D
100
AcDbPolyline
 90
5
 70
1
 10
151.7967390954101
 20
84.91321972958998
 10
152.3133594924189
 20
84.39659933258115
 10
151.9491274880856
 20
83.30390331958127
 10
150.62784888607234
 20
83.74432952025224
 10
151.7967390954101
 20
84.91321972958998
  0
LWPOLYLINE
  5
123
330
17
100
AcDbEntity
  8
ENG_D
100
AcDbPolyline
 90
5
 70
1
 10
150.25152413933418
 20
78.93153551274568
 10
151.1784226963219
 20
80.4763664410586
 10
152.07455355682936
 20
80.4763664410586
 10
151.7470408052213
 20
78.18377717980218
 10
150.25152413933418
 20
78.93153551274568
  0
LWPOLYLINE
  5
124
330
17
100
AcDbEntity
  8
ENG_D
100
AcDbPolyline
 90
5
 70
1
 10
150.27186261169274
 20
238.517122518362
 10
149.62138390691328
 20
239.16760122314162
 10
151.3940379398206
 20
239.52213202972317
 10
152.04451664460007
 20
238.87165332494354
 10
150.27186261169274
 20
238.517122518362
  0
LWPOLYLINE
  5
125
330
17
100
AcDbEntity
  8
ENG_D
100
AcDbPolyline
 90
4
 70
1
 10
151.41464828567442
 20
242.87478255265603
 10
150.5920030708433
 20
242.05213733782549
 10
150.5920030708433
 20
243.69742776748726
 10
151.41464828567442
 20
242.87478255265603
  0
LWPOLYLINE
  5
126
330
17
100
AcDbEntity
  8
ENG_D
100
AcDbPolyline
 90
5
 70
1
 10
150.9809242248557
 20
78.3146719411154
 10
151.36780582157243
 20
76.38026395753184
 10
150.35105586592996
 20
76.38026395753184
 10
150.35105586592996
 20
77.68480358218943
 10
150.9809242248557
 20
78.3146719411154
  0
LWPOLYLINE
  5
127
330
17
100
AcDbEntity
  8
ENG_D
100
AcDbPolyline
 90
11
 70
1
 10
148.90537263644987
 20
239.35260812173854
 10
148.90537263644987
 20
239.11943087413357
 10
150.35105586592996
 20
237.67374764465333
 10
150.35105586592996
 20
236.3692080199955
 10
147.45968940696977
 20
236.3692080199955
 10
147.45968940696977
 20
239.11943087413357
 10
147.95536381837363
 20
239.6151052855373
 10
148.29403603819577
 20
241.98581082429226
 10
149.07624884127924
 20
240.4213852181254
 10
150.25625563404594
 20
240.0280496205367
 10
148.90537263644987
 20
239.35260812173854
  0
LWPOLYLINE
  5
128
330
17
100
AcDbEntity
  8
ENG_D
100
AcDbPolyline
 90
7
 70
1
 10
148.0873585876519
 20
103.04173325701571
 10
145.98034388923716
 20
103.9447395563362
 10
146.3479266382173
 20
105.78265330123715
 10
146.9777949971431
 20
105.1527849423114
 10
147.50752680022407
 20
105.68251674539242
 10
148.4461579825084
 20
104.11813144158499
 10
148.0873585876519
 20
103.04173325701571
  0
LWPOLYLINE
  5
129
330
17
100
AcDbEntity
  8
ENG_D
100
AcDbPolyline
 90
4
 70
1
 10
147.21874220205643
 20
121.29624767150592
 10
148.0413874168875
 20
120.4736024566746
 10
147.21874220205643
 20
119.6509572418436
 10
147.21874220205643
 20
121.29624767150592
  0
LWPOLYLINE
  5
12A
330
17
100
AcDbEntity
  8
ENG_D
100
AcDbPolyline
 90
4
 70
1
 10
147.5594930070608
 20
110.83571426014072
 10
146.73684779222972
 20
110.01306904530949
 10
146.73684779222972
 20
111.6583594749716
 10
147.5594930070608
 20
110.83571426014072
  0
LWPOLYLINE
  5
12B
330
17
100
AcDbEntity
  8
ENG_D
100
AcDbPolyline
 90
4
 70
1
 10
147.5594930070608
 20
67.46521737573785
 10
146.73684779222972
 20
66.64257216090664
 10
146.73684779222972
 20
68.28786259056874
 10
147.5594930070608
 20
67.46521737573785
  0
LWPOLYLINE
  5
12C
330
17
100
AcDbEntity
  8
ENG_D
100
AcDbPolyline
 90
4
 70
1
 10
146.73684779222972
 20
121.09664047132385
 10
146.73684779222972
 20
122.74193090098595
 10
147.5594930070608
 20
121.91928568615474
 10
146.73684779222972
 20
121.09664047132385
  0
LWPOLYLINE
  5
12D
330
17
100
AcDbEntity
  8
ENG_D
100
AcDbPolyline
 90
4
 70
1
 10
146.73684779222972
 20
115.03162034375846
 10
147.5594930070608
 20
114.20897512892758
 10
146.73684779222972
 20
113.38632991409669
 10
146.73684779222972
 20
115.03162034375846
  0
LWPOLYLINE
  5
12E
330
17
100
AcDbEntity
  8
ENG_D
100
AcDbPolyline
 90
5
 70
1
 10
147.0830927867364
 20
72.48926286368906
 10
147.5530385914867
 20
71.07942544943813
 10
146.49590058731638
 20
71.07942544943813
 10
146.49590058731638
 20
71.90207066426912
 10
147.0830927867364
 20
72.48926286368906
  0
LWPOLYLINE
  5
12F
330
17
100
AcDbEntity
  8
ENG_D
100
AcDbPolyline
 90
4
 70
1
 10
146.25495338240302
 20
111.1764650651449
 10
147.0775985972341
 20
110.35381985031401
 10
146.25495338240302
 20
109.53117463548278
 10
146.25495338240302
 20
111.1764650651449
  0
LWPOLYLINE
  5
130
330
17
100
AcDbEntity
  8
ENG_D
100
AcDbPolyline
 90
5
 70
1
 10
146.0140061774897
 20
120.2326552517613
 10
146.0140061774897
 20
121.53719487641901
 10
146.6438745364154
 20
122.16706323534498
 10
147.03075613313212
 20
120.2326552517613
 10
146.0140061774897
 20
120.2326552517613
  0
LWPOLYLINE
  5
131
330
17
100
AcDbEntity
  8
ENG_D
100
AcDbPolyline
 90
4
 70
1
 10
145.63191536775403
 20
67.46521737573785
 10
144.80927015292295
 20
66.64257216090664
 10
144.80927015292295
 20
68.28786259056874
 10
145.63191536775403
 20
67.46521737573785
  0
LWPOLYLINE
  5
132
330
17
100
AcDbEntity
  8
ENG_D
100
AcDbPolyline
 90
17
 70
1
 10
142.69297314851582
 20
88.7161471683906
 10
143.19174233601686
 20
88.21737798088958
 10
142.15885089887612
 20
86.66804082517842
 10
142.15885089887612
 20
85.36826348295301
 10
143.2115842868956
 20
83.7891634009238
 10
141.2352677584457
 20
82.37750873774542
 10
140.2312732595693
 20
82.71217357070404
 10
140.2312732595693
 20
83.99854087197633
 10
141.0292506377415
 20
84.3975295610625
 10
140.71316766939597
 20
84.71361252940801
 10
140.71316766939597
 20
86.84079736889672
 10
141.67695648904942
 20
87.80458618855013
 10
141.67695648904942
 20
89.0506622178483
 10
141.16033609204058
 20
89.56728261485713
 10
141.5433588081694
 20
90.71635076324347
 10
143.19698660645625
 20
89.72417408427135
 10
142.69297314851582
 20
88.7161471683906
  0
LWPOLYLINE
  5
133
330
17
100
AcDbEntity
  8
ENG_D
100
AcDbPolyline
 90
21
 70
1
 10
141.7841247553277
 20
119.55856984199309
 10
142.70319860079698
 20
118.02678009954437
 10
142.22795351636347
 20
117.55153501511073
 10
143.1226397185295
 20
116.20950571186161
 10
143.1226397185295
 20
114.51720461926618
 10
140.84332289521382
 20
113.75743234482772
 10
139.79227291037955
 20
112.70638235999341
 10
134.40998522883154
 20
115.64217564083768
 10
131.8233870456913
 20
115.12485600420963
 10
131.5622794725826
 20
117.99703930840543
 10
130.52674666094487
 20
120.06810493168096
 10
132.4528618836709
 20
121.44390151934236
 10
138.48203604895025
 20
120.94147033890235
 10
138.81314758784504
 20
119.94813572221807
 10
137.47160747252227
 20
118.15941556845434
 10
139.80157022976877
 20
117.10034158788774
 10
140.61336406930494
 20
117.10034158788774
 10
141.19506207922268
 20
117.68203959780543
 10
141.19506207922268
 20
118.44622121727689
 10
140.50806627971167
 20
119.13321701678792
 10
141.7841247553277
 20
119.55856984199309
  0
LWPOLYLINE
  5
134
330
17
100
AcDbEntity
  8
ENG_D
100
AcDbPolyline
 90
4
 70
1
 10
141.77676008914042
 20
93.00562109655286
 10
140.95411487430934
 20
92.18297588172165
 10
140.95411487430934
 20
93.82826631138374
 10
141.77676008914042
 20
93.00562109655286
  0
LWPOLYLINE
  5
135
330
17
100
AcDbEntity
  8
ENG_D
100
AcDbPolyline
 90
5
 70
1
 10
141.72991762503844
 20
90.83709625233271
 10
140.71316766939597
 20
90.83709625233271
 10
140.71316766939597
 20
92.14163587699042
 10
141.34303602832173
 20
92.7715042359164
 10
141.72991762503844
 20
90.83709625233271
  0
LWPOLYLINE
  5
136
330
17
100
AcDbEntity
  8
ENG_D
100
AcDbPolyline
 90
4
 70
1
 10
140.95411487430934
 20
48.33058458749206
 10
140.95411487430934
 20
49.975875017154166
 10
141.77676008914042
 20
49.15322980232328
 10
140.95411487430934
 20
48.33058458749206
  0
LWPOLYLINE
  5
137
330
17
100
AcDbEntity
  8
ENG_D
100
AcDbPolyline
 90
4
 70
1
 10
140.47222046448266
 20
92.66487029154835
 10
140.47222046448266
 20
96.82991690976827
 10
141.7217344499486
 20
93.91438427701448
 10
140.47222046448266
 20
92.66487029154835
  0
LWPOLYLINE
  5
138
330
17
100
AcDbEntity
  8
ENG_D
100
AcDbPolyline
 90
4
 70
1
 10
140.47222046448266
 20
101.05668245878464
 10
141.29486567931372
 20
100.2340372439533
 10
140.47222046448266
 20
99.4113920291223
 10
140.47222046448266
 20
101.05668245878464
  0
LWPOLYLINE
  5
139
330
17
100
AcDbEntity
  8
ENG_D
100
AcDbPolyline
 90
4
 70
1
 10
140.47222046448266
 20
93.34637190155715
 10
141.29486567931374
 20
92.52372668672615
 10
140.47222046448266
 20
91.70108147189515
 10
140.47222046448266
 20
93.34637190155715
  0
LWPOLYLINE
  5
13A
330
17
100
AcDbEntity
  8
ENG_D
100
AcDbPolyline
 90
5
 70
1
 10
139.1676808398249
 20
108.42624221100716
 10
139.71202854174578
 20
108.97058991292819
 10
141.52729805288286
 20
107.8814282062458
 10
140.16619564666038
 20
107.42772740417172
 10
139.1676808398249
 20
108.42624221100716
  0
LWPOLYLINE
  5
13B
330
17
100
AcDbEntity
  8
ENG_D
100
AcDbPolyline
 90
4
 70
1
 10
139.99032605465595
 20
96.03813116033555
 10
139.99032605465595
 20
97.68342158999732
 10
140.81297126948704
 20
96.86077637516644
 10
139.99032605465595
 20
96.03813116033555
  0
LWPOLYLINE
  5
13C
330
17
100
AcDbEntity
  8
ENG_D
100
AcDbPolyline
 90
9
 70
1
 10
134.95868942915797
 20
93.24656830146627
 10
133.6258951268178
 20
93.24656830146627
 10
132.53994898360685
 20
94.33251444467716
 10
132.05805457378014
 20
96.74198649381071
 10
131.32683028838755
 20
97.47321077920334
 10
133.50472649325923
 20
98.01768483042127
 10
133.85807551916872
 20
101.19782606360673
 10
134.07521634447573
 20
101.19782606360673
 10
134.95868942915797
 20
93.24656830146627
  0
LWPOLYLINE
  5
13D
330
17
100
AcDbEntity
  8
ENG_D
100
AcDbPolyline
 90
5
 70
1
 10
132.61299634512474
 20
99.99309003904
 10
131.94026336158566
 20
101.33855600611818
 10
133.11002537844712
 20
101.72847667840523
 10
134.1512573620663
 20
99.99309003904
 10
132.61299634512474
 20
99.99309003904
  0
LWPOLYLINE
  5
13E
330
17
100
AcDbEntity
  8
ENG_D
100
AcDbPolyline
 90
4
 70
1
 10
131.31622667777538
 20
139.12634083509346
 10
132.13887189260646
 20
138.30369562026257
 10
131.31622667777538
 20
137.48105040543135
 10
131.31622667777538
 20
139.12634083509346
  0
LWPOLYLINE
  5
13F
330
17
100
AcDbEntity
  8
ENG_D
100
AcDbPolyline
 90
4
 70
1
 10
131.31622667777538
 20
114.35011873374978
 10
131.31622667777538
 20
115.99540916341189
 10
132.13887189260646
 20
115.17276394858101
 10
131.31622667777538
 20
114.35011873374978
  0
LWPOLYLINE
  5
140
330
17
100
AcDbEntity
  8
ENG_D
100
AcDbPolyline
 90
4
 70
1
 10
130.352437858122
 20
118.20527401236336
 10
130.352437858122
 20
119.85056444202546
 10
131.17508307295307
 20
119.02791922719457
 10
130.352437858122
 20
118.20527401236336
  0
LWPOLYLINE
  5
141
330
17
100
AcDbEntity
  8
ENG_D
100
AcDbPolyline
 90
4
 70
1
 10
130.69318866312634
 20
118.54602481736787
 10
129.87054344829528
 20
117.72337960253698
 10
129.87054344829528
 20
119.36867003219875
 10
130.69318866312634
 20
118.54602481736787
  0
LWPOLYLINE
  5
142
330
17
100
AcDbEntity
  8
ENG_D
100
AcDbPolyline
 90
4
 70
1
 10
128.90675462864186
 20
116.27769637305686
 10
128.90675462864186
 20
117.92298680271895
 10
129.72939984347295
 20
117.10034158788774
 10
128.90675462864186
 20
116.27769637305686
  0
LWPOLYLINE
  5
143
330
17
100
AcDbEntity
  8
ENG_D
100
AcDbPolyline
 90
4
 70
1
 10
128.42486021881518
 20
115.79580196323003
 10
128.42486021881518
 20
117.44109239289236
 10
129.24750543364624
 20
116.61844717806102
 10
128.42486021881518
 20
115.79580196323003
  0
LWPOLYLINE
  5
144
330
17
100
AcDbEntity
  8
ENG_D
100
AcDbPolyline
 90
39
 70
1
 10
118.95195860869119
 20
31.13624276735294
 10
118.0468140126509
 20
29.77852587329255
 10
117.553525714694
 20
27.80537268146499
 10
115.43500922668765
 20
26.29214661860324
 10
115.17004162209983
 20
31.856466314947873
 10
115.60243051859464
 20
32.72124410793742
 10
115.17276394858098
 20
33.150910677951174
 10
115.17276394858098
 20
34.79620110761328
 10
115.55485475831665
 20
35.178291917349
 10
115.07296034848996
 20
35.660186327175715
 10
115.65465835840767
 20
36.24188433709341
 10
115.65465835840767
 20
39.4155380056983
 10
115.17276394858098
 20
39.89743241552502
 10
115.17276394858098
 20
42.28271232128045
 10
113.67757444195232
 20
43.35070482601533
 10
111.55855587488072
 20
42.820950184247366
 10
111.55855587488072
 20
43.611444089316166
 10
109.94015593298111
 20
42.397644132891486
 10
105.32274806677688
 20
42.91068945135868
 10
105.03084305518576
 20
44.954024532496526
 10
105.8509587203925
 20
45.36408236509981
 10
105.42129215037883
 20
45.79374893511356
 10
103.60729811274021
 20
46.052890940490364
 10
103.60729811274021
 20
47.32545576310743
 10
104.4712833323025
 20
48.189440982669865
 10
109.05705018296463
 20
48.189440982669865
 10
109.56090723548996
 20
47.181726877619234
 10
110.96586948595848
 20
46.713406127462996
 10
111.89930667988516
 20
45.77996893353631
 10
112.61437833731674
 20
45.77996893353631
 10
113.09627274714343
 20
46.743757753189726
 10
113.82688431919195
 20
46.743757753189726
 10
116.74860240387885
 20
43.822039668502846
 10
117.52349935419156
 20
43.56374068506519
 10
118.54602481736787
 20
41.00742702712446
 10
118.54602481736787
 20
36.680855066177244
 10
119.99170804684798
 20
33.78948860721698
 10
119.99170804684798
 20
31.656117486431377
 10
118.95195860869119
 20
31.13624276735294
  0
LWPOLYLINE
  5
145
330
17
100
AcDbEntity
  8
ENG_D
100
AcDbPolyline
 90
4
 70
1
 10
113.00423910436082
 20
18.45313117823677
 10
113.00423910436082
 20
20.098421607898874
 10
113.82688431919192
 20
19.27577639306799
 10
113.00423910436082
 20
18.45313117823677
  0
LWPOLYLINE
  5
146
330
17
100
AcDbEntity
  8
ENG_D
100
AcDbPolyline
 90
98
 70
1
 10
102.21384272307314
 20
29.347983239150555
 10
100.71593165378002
 20
27.850072169857466
 10
99.77112911539137
 20
28.79487470824604
 10
99.60416888502756
 20
29.629675860065262
 10
99.27024842429992
 20
29.295755399337597
 10
99.27024842429992
 20
22.74884086194584
 10
99.75214283412663
 20
22.26694645211913
 10
99.75214283412663
 20
20.363560956190298
 10
101.13102225318502
 20
19.378647085434242
 10
104.49380831330609
 20
24.663025179910257
 10
105.97621947828037
 20
23.77357848092576
 10
106.07968975680836
 20
23.46316764534173
 10
106.49866457170039
 20
24.16145900349509
 10
106.49866457170039
 20
24.958705710897313
 10
105.85095872039251
 20
25.606411562205224
 10
107.02448426692442
 20
26.19317433547108
 10
107.35715560176051
 20
27.191188339979355
 10
108.05793140284864
 20
26.490412538891285
 10
109.87192544048729
 20
26.231270533514262
 10
109.87192544048729
 20
23.897191032397735
 10
108.6106075908135
 20
23.644927462463052
 10
108.46879526463229
 20
23.21949048391947
 10
110.353819850314
 20
21.80572204465814
 10
110.353819850314
 20
19.857474402985574
 10
110.95450414149639
 20
19.256790111803255
 10
113.24577944646992
 20
18.79853505080864
 10
113.24366555954033
 20
18.72237644750008
 10
110.26863214906287
 20
18.29737167457468
 10
109.29022743056952
 20
19.27577639306799
 10
108.52604581109826
 20
19.27577639306799
 10
108.04415140127156
 20
18.793881983241278
 10
102.26141848335118
 20
18.793881983241278
 10
101.77952407352448
 20
18.31198757341457
 10
98.20665600455546
 20
18.31198757341457
 10
97.72476159472876
 20
18.793881983241278
 10
92.1416358769905
 20
18.793881983241278
 10
91.65380345811798
 20
18.306049564368763
 10
87.06707670366433
 20
18.57585702051312
 10
88.49954813711028
 20
21.15430560071585
 10
91.031641265391
 20
22.167142852028142
 10
92.4239230866351
 20
22.167142852028142
 10
92.9058174964618
 20
22.649037261854744
 10
94.35150072594183
 20
22.649037261854744
 10
94.91147847581446
 20
23.209015011727452
 10
93.05583883110927
 20
32.02330332407721
 10
91.0473884148676
 20
31.800142166716896
 10
87.08941765486615
 20
33.28438120171751
 10
86.25909935897907
 20
34.1146994976046
 10
85.3475383791387
 20
33.20313851776413
 10
85.87600988008212
 20
32.14619551587739
 10
84.73022261320125
 20
31.764266426916986
 10
82.75730016393508
 20
34.230419488499805
 10
79.39899401973713
 20
34.71017750909955
 10
78.95148995734147
 20
35.157681571495125
 10
78.06689439192519
 20
34.98076245841186
 10
78.06689439192519
 20
34.14776458553537
 10
77.21027383855007
 20
32.72006366324365
 10
76.06164600743847
 20
33.10293960694744
 10
77.0914033956169
 20
35.67733307739351
 10
76.55355887211633
 20
37.828711171395746
 10
77.24424917709418
 20
37.828711171395746
 10
77.00330197218076
 20
38.06965837630916
 10
78.06689439192517
 20
39.13325079605357
 10
78.06689439192517
 20
40.379326825351725
 10
77.48519638200746
 20
40.96102483526942
 10
78.06689439192517
 20
41.54272284518712
 10
78.06689439192517
 20
43.47030048449385
 10
78.54878880175185
 20
43.95219489432067
 10
79.03068321157859
 20
43.47030048449396
 10
79.41277402131426
 20
43.85239129422958
 10
78.96158059409122
 20
44.30358472145268
 10
80.0132500723156
 20
45.88108893878928
 10
81.4589333017957
 20
51.18192744688288
 10
82.40394408036546
 20
52.59944361473756
 10
82.40394408036546
 20
53.56323243439098
 10
83.36773290001886
 20
55.008915663871115
 10
83.36773290001886
 20
56.44838446188394
 10
84.19509973041079
 20
57.827329179203744
 10
85.39511413941672
 20
57.827329179203744
 10
85.87700854924343
 20
57.345434769377036
 10
88.28648059837691
 20
57.345434769377036
 10
90.08390301186584
 20
55.54801235588813
 10
90.56579742169255
 20
54.10232912640811
 10
91.53351476601446
 20
53.13461178208612
 10
93.46109240532125
 20
46.388090044512275
 10
94.02163775601926
 20
45.827544693814446
 10
93.48751550637954
 20
44.75930019453489
 10
93.48751550637954
 20
41.34311564500515
 10
93.00562109655284
 20
40.861221235178434
 10
93.00562109655284
 20
39.615145205880275
 10
94.06921351629731
 20
38.551552786135865
 10
94.9900786552079
 20
38.551552786135865
 10
96.98544042632477
 20
37.55387190057735
 10
100.32627529491032
 20
35.16756128015919
 10
102.16161488326011
 20
34.90536991039483
 10
102.16161488326011
 20
30.74143862881773
 10
101.73194831324645
 20
30.311772058803975
 10
102.21384272307314
 20
29.347983239150555
  0
LWPOLYLINE
  5
147
330
17
100
AcDbEntity
  8
ENG_D
100
AcDbPolyline
 90
13
 70
1
 10
87.73950857564127
 20
34.63131989461343
 10
87.87301825707097
 20
34.230790850324325
 10
90.11425463759264
 20
34.43453961218979
 10
90.11425463759264
 20
35.56038272708473
 10
89.53255662767492
 20
36.14208073700242
 10
90.49634544732832
 20
37.10586955665585
 10
90.46599382160159
 20
37.13622118238258
 10
89.21554343084813
 20
37.55303797930043
 10
88.76837500820358
 20
37.10586955665585
 10
89.31627725942043
 20
36.55796730543892
 10
88.18667699828586
 20
35.993167174871665
 10
88.18667699828586
 20
35.078488317258014
 10
87.73950857564127
 20
34.63131989461343
  0
LWPOLYLINE
  5
148
330
17
100
AcDbEntity
  8
ENG_D
100
AcDbPolyline
 90
5
 70
1
 10
89.36218122517275
 20
44.02276669673177
 10
89.05066221784817
 20
44.334285704056285
 10
88.4276242031992
 20
44.334285704056285
 10
88.4276242031992
 20
43.889258550735555
 10
89.36218122517275
 20
44.02276669673177
  0
LWPOLYLINE
  5
149
330
17
100
AcDbEntity
  8
ENG_D
100
AcDbPolyline
 90
4
 70
1
 10
87.39214375308771
 20
38.482100811771616
 10
87.59948479886587
 20
38.27475976599348
 10
87.64095300802151
 20
38.39916439346036
 10
87.39214375308771
 20
38.482100811771616
  0
LWPOLYLINE
  5
14A
330
17
100
AcDbEntity
  8
ENG_D
100
AcDbPolyline
 90
4
 70
1
 10
107.70340059626714
 20
52.86724147611466
 10
108.52604581109823
 20
52.04459626128344
 10
107.70340059626714
 20
51.22195104645255
 10
107.70340059626714
 20
52.86724147611466
  0
LWPOLYLINE
  5
14B
330
17
100
AcDbEntity
  8
ENG_D
100
AcDbPolyline
 90
5
 70
1
 10
107.66755478103813
 20
52.42119288151681
 10
106.43358695879152
 20
52.009870274101424
 10
105.81166877218934
 20
52.63178846070349
 10
107.04563659443599
 20
53.043111068118876
 10
107.66755478103813
 20
52.42119288151681
  0
LWPOLYLINE
  5
14C
330
17
100
AcDbEntity
  8
ENG_D
100
AcDbPolyline
 90
5
 70
1
 10
106.70376596138469
 20
24.95321152139496
 10
105.46979813913813
 20
24.54188891397957
 10
104.84787995253598
 20
25.163807100581526
 10
106.08184777478263
 20
25.575129707997245
 10
106.70376596138469
 20
24.95321152139496
  0
LWPOLYLINE
  5
14D
330
17
100
AcDbEntity
  8
ENG_D
100
AcDbPolyline
 90
5
 70
1
 10
105.42770748576872
 20
52.57524687608217
 10
106.61886628752451
 20
52.17819394216339
 10
105.64204401832531
 20
50.550156826831504
 10
104.45088521656949
 20
50.947209760749956
 10
105.42770748576872
 20
52.57524687608217
  0
LWPOLYLINE
  5
14E
330
17
100
AcDbEntity
  8
ENG_D
100
AcDbPolyline
 90
4
 70
1
 10
105.63467935213804
 20
24.576614901161587
 10
104.81203413730694
 20
23.7539696863307
 10
104.81203413730694
 20
25.399260115992806
 10
105.63467935213804
 20
24.576614901161587
  0
LWPOLYLINE
  5
14F
330
17
100
AcDbEntity
  8
ENG_D
100
AcDbPolyline
 90
4
 70
1
 10
102.7433128931778
 20
221.67142852028144
 10
101.92066767834676
 20
220.8487833054502
 10
101.92066767834676
 20
222.49407373511266
 10
102.7433128931778
 20
221.67142852028144
  0
LWPOLYLINE
  5
150
330
17
100
AcDbEntity
  8
ENG_D
100
AcDbPolyline
 90
5
 70
1
 10
101.61464286052443
 20
232.2383795492866
 10
100.99272467392254
 20
232.86029773588868
 10
102.22669249616912
 20
233.27162034330428
 10
102.84861068277097
 20
232.64970215670223
 10
101.61464286052443
 20
232.2383795492866
  0
LWPOLYLINE
  5
151
330
17
100
AcDbEntity
  8
ENG_D
100
AcDbPolyline
 90
4
 70
1
 10
101.92066767834676
 20
36.000937132179885
 10
102.74331289317784
 20
35.178291917349
 10
101.92066767834676
 20
34.355646702518115
 10
101.92066767834676
 20
36.000937132179885
  0
LWPOLYLINE
  5
152
330
17
100
AcDbEntity
  8
ENG_D
100
AcDbPolyline
 90
5
 70
1
 10
101.27701931784397
 20
233.73939911180264
 10
101.92749802262347
 20
233.088920407023
 10
100.15484398971617
 20
232.7343896004417
 10
99.50436528493647
 20
233.3848683052211
 10
101.27701931784397
 20
233.73939911180264
  0
LWPOLYLINE
  5
153
330
17
100
AcDbEntity
  8
ENG_D
100
AcDbPolyline
 90
4
 70
1
 10
100.95687885869336
 20
222.01217932528584
 10
101.77952407352446
 20
221.18953411045462
 10
100.95687885869336
 20
220.36688889562407
 10
100.95687885869336
 20
222.01217932528584
  0
LWPOLYLINE
  5
154
330
17
100
AcDbEntity
  8
ENG_D
100
AcDbPolyline
 90
5
 70
1
 10
100.32738642847022
 20
46.02091613844972
 10
99.27024842429992
 20
46.02091613844972
 10
99.27024842429992
 20
46.84356135328072
 10
99.85744062371987
 20
47.43075355270088
 10
100.32738642847022
 20
46.02091613844972
  0
LWPOLYLINE
  5
155
330
17
100
AcDbEntity
  8
ENG_D
100
AcDbPolyline
 90
4
 70
1
 10
97.92436879491088
 20
235.64636640525572
 10
97.10172358007976
 20
234.8237211904245
 10
97.10172358007976
 20
236.46901162008626
 10
97.92436879491088
 20
235.64636640525572
  0
LWPOLYLINE
  5
156
330
17
100
AcDbEntity
  8
ENG_D
100
AcDbPolyline
 90
5
 70
1
 10
94.93319873585962
 20
229.62268628242177
 10
94.93319873585962
 20
230.445331497253
 10
95.5203909352796
 20
231.03252369667305
 10
95.99033674002993
 20
229.62268628242177
 10
94.93319873585962
 20
229.62268628242177
  0
LWPOLYLINE
  5
157
330
17
100
AcDbEntity
  8
ENG_D
100
AcDbPolyline
 90
4
 70
1
 10
95.51489674577732
 20
231.79121112664203
 10
94.69225153094628
 20
230.9685659118108
 10
94.69225153094628
 20
232.61385634147325
 10
95.51489674577732
 20
231.79121112664203
  0
LWPOLYLINE
  5
158
330
17
100
AcDbEntity
  8
ENG_D
100
AcDbPolyline
 90
5
 70
1
 10
95.44981913286841
 20
224.62787259215045
 10
95.08558712853511
 20
223.53517657915046
 10
93.76430852652202
 20
223.97560277982166
 10
94.93319873585968
 20
225.1444929891593
 10
95.44981913286841
 20
224.62787259215045
  0
LWPOLYLINE
  5
159
330
17
100
AcDbEntity
  8
ENG_D
100
AcDbPolyline
 90
4
 70
1
 10
94.21035712111959
 20
232.13196193164598
 10
95.03300233595066
 20
231.30931671681543
 10
94.21035712111959
 20
230.4866715019842
 10
94.21035712111959
 20
232.13196193164598
  0
LWPOLYLINE
  5
15A
330
17
100
AcDbEntity
  8
ENG_D
100
AcDbPolyline
 90
4
 70
1
 10
94.06921351629724
 20
229.3817390775086
 10
93.24656830146617
 20
228.55909386267737
 10
93.24656830146617
 20
230.2043842923398
 10
94.06921351629724
 20
229.3817390775086
  0
LWPOLYLINE
  5
15B
330
17
100
AcDbEntity
  8
ENG_D
100
AcDbPolyline
 90
4
 70
1
 10
93.58731910647055
 20
228.41795025785515
 10
92.76467389163948
 20
227.59530504302396
 10
92.76467389163948
 20
229.24059547268638
 10
93.58731910647055
 20
228.41795025785515
  0
LWPOLYLINE
  5
15C
330
17
100
AcDbEntity
  8
ENG_D
100
AcDbPolyline
 90
5
 70
1
 10
91.55993786707275
 20
226.73131982346172
 10
91.55993786707275
 20
227.55396503829272
 10
92.1471300664927
 20
228.141157237713
 10
92.61707587124315
 20
226.73131982346172
 10
91.55993786707275
 20
226.73131982346172
  0
LWPOLYLINE
  5
15D
330
17
100
AcDbEntity
  8
ENG_D
100
AcDbPolyline
 90
5
 70
1
 10
91.06342755840613
 20
223.20229945101255
 10
92.18980622599848
 20
224.3286781186049
 10
92.53731623480496
 20
222.5911280745727
 10
91.41738746268746
 20
220.72458012104335
 10
91.06342755840613
 20
223.20229945101255
  0
LWPOLYLINE
  5
15E
330
17
100
AcDbEntity
  8
ENG_D
100
AcDbPolyline
 90
5
 70
1
 10
91.07804345724603
 20
224.80374218415488
 10
91.07804345724603
 20
226.5901762186393
 10
91.73031326957488
 20
227.24244603096832
 10
92.07869953340538
 20
224.80374218415488
 10
91.07804345724603
 20
224.80374218415488
  0
LWPOLYLINE
  5
15F
330
17
100
AcDbEntity
  8
ENG_D
100
AcDbPolyline
 90
4
 70
1
 10
90.83709625233269
 20
223.74014976441092
 10
90.83709625233269
 20
225.3854401940727
 10
91.65974146716377
 20
224.5627949792415
 10
90.83709625233269
 20
223.74014976441092
  0
LWPOLYLINE
  5
160
330
17
100
AcDbEntity
  8
ENG_D
100
AcDbPolyline
 90
5
 70
1
 10
91.14096305218067
 20
222.00366449394159
 10
91.59466385425483
 20
220.64256208771903
 10
90.59614904741939
 20
219.64404728088348
 10
90.05180134549843
 20
220.18839498280428
 10
91.14096305218067
 20
222.00366449394159
  0
LWPOLYLINE
  5
161
330
17
100
AcDbEntity
  8
ENG_D
100
AcDbPolyline
 90
33
 70
1
 10
85.29531053932567
 20
23.71262968159926
 10
85.81897803256552
 20
23.18896218835942
 10
84.83636770976632
 20
20.732436381361353
 10
85.92958730930438
 20
18.545997182285333
 10
71.70071899639551
 20
18.7956264509328
 10
70.73867464443367
 20
19.757670802894587
 10
71.32037265435139
 20
20.339368812812285
 10
71.32037265435139
 20
21.35226759450548
 10
72.34551723585992
 20
21.86483988525978
 10
73.25590155940215
 20
23.685608532344247
 10
73.72162209126529
 20
26.945652255386253
 10
73.09903673152749
 20
28.190822974861863
 10
74.27093950115957
 20
28.190822974861863
 10
75.20195103402325
 20
31.449363339884684
 10
76.76918511154415
 20
33.01659741740559
 10
77.11463962861181
 20
31.289324832067365
 10
76.73010263450445
 20
30.52025084385268
 10
78.54878880175188
 20
30.06557930204079
 10
78.54878880175188
 20
25.115389230336405
 10
79.0829110513916
 20
24.047144731056846
 10
78.54878880175188
 20
23.513022481417288
 10
78.54878880175188
 20
22.408090056941443
 10
79.53547551369769
 20
22.408090056941443
 10
79.29452830878435
 20
19.757670802894587
 10
81.84483451164749
 20
19.757670802894587
 10
83.37707238237033
 20
20.85212642483947
 10
83.85717314887629
 20
27.09343638941686
 10
84.81341612949896
 20
28.04967937003955
 10
84.81341612949896
 20
29.154611794515173
 10
85.77720494915236
 20
29.154611794515173
 10
85.77720494915236
 20
27.368177760030864
 10
85.29531053932567
 20
26.886283350204152
 10
85.29531053932567
 20
23.71262968159926
  0
LWPOLYLINE
  5
162
330
17
100
AcDbEntity
  8
ENG_D
100
AcDbPolyline
 90
5
 70
1
 10
76.6559371496272
 20
22.583959648945996
 10
76.77359955512057
 20
22.230972432465855
 10
77.06606993579925
 20
22.32846255935872
 10
76.9551316231727
 20
22.883154122491423
 10
76.6559371496272
 20
22.583959648945996
  0
LWPOLYLINE
  5
163
330
17
100
AcDbEntity
  8
ENG_D
100
AcDbPolyline
 90
4
 70
1
 10
82.0218532706298
 20
51.56270185145673
 10
81.1992080557987
 20
50.74005663662584
 10
81.1992080557987
 20
52.38534706628795
 10
82.0218532706298
 20
51.56270185145673
  0
LWPOLYLINE
  5
164
330
17
100
AcDbEntity
  8
ENG_D
100
AcDbPolyline
 90
4
 70
1
 10
80.71731364597201
 20
50.93966383680759
 10
81.53995886080311
 20
50.117018621976705
 10
80.71731364597201
 20
49.294373407145486
 10
80.71731364597201
 20
50.93966383680759
  0
LWPOLYLINE
  5
165
330
17
100
AcDbEntity
  8
ENG_D
100
AcDbPolyline
 90
4
 70
1
 10
80.23541923614532
 20
49.49398060732746
 10
81.0580644509764
 20
48.67133539249657
 10
80.23541923614532
 20
47.848690177665354
 10
80.23541923614532
 20
49.49398060732746
  0
LWPOLYLINE
  5
166
330
17
100
AcDbEntity
  8
ENG_D
100
AcDbPolyline
 90
8
 70
1
 10
79.42054397862266
 20
29.154611794515283
 10
78.54878880175187
 20
29.154611794515283
 10
78.54878880175187
 20
30.28639487545459
 10
77.4852976331038
 20
31.88163162842672
 10
78.96394469941833
 20
32.768819868215445
 10
80.57617004114971
 20
32.768819868215445
 10
81.01048869069842
 20
32.33450121866688
 10
79.42054397862266
 20
29.154611794515283
  0
LWPOLYLINE
  5
167
330
17
100
AcDbEntity
  8
ENG_D
100
AcDbPolyline
 90
4
 70
1
 10
80.57617004114971
 20
47.70754657284315
 10
79.75352482631861
 20
46.884901358012264
 10
79.75352482631861
 20
48.53019178767437
 10
80.57617004114971
 20
47.70754657284315
  0
LWPOLYLINE
  5
168
330
17
100
AcDbEntity
  8
ENG_D
100
AcDbPolyline
 90
5
 70
1
 10
79.03068321157856
 20
45.53902172862312
 10
79.03068321157856
 20
46.361666943454004
 10
79.61787541099854
 20
46.94885914287417
 10
80.0878212157489
 20
45.53902172862312
 10
79.03068321157856
 20
45.53902172862312
  0
LWPOLYLINE
  5
169
330
17
100
AcDbEntity
  8
ENG_D
100
AcDbPolyline
 90
4
 70
1
 10
78.78973600666522
 20
43.02974607939869
 10
78.78973600666522
 20
44.67503650906046
 10
79.6123812214963
 20
43.85239129422958
 10
78.78973600666522
 20
43.02974607939869
  0
LWPOLYLINE
  5
16A
330
17
100
AcDbEntity
  8
ENG_D
100
AcDbPolyline
 90
5
 70
1
 10
76.28729070171747
 20
36.38985828619234
 10
76.67417229843417
 20
34.455450302608995
 10
75.65742234279169
 20
34.455450302608995
 10
75.65742234279169
 20
35.7599899272667
 10
76.28729070171747
 20
36.38985828619234
  0
LWPOLYLINE
  5
16B
330
17
100
AcDbEntity
  8
ENG_D
100
AcDbPolyline
 90
4
 70
1
 10
74.93458072805163
 20
33.109570673219736
 10
75.7572259428827
 20
32.28692545838885
 10
74.93458072805163
 20
31.464280243557518
 10
74.93458072805163
 20
33.109570673219736
  0
LWPOLYLINE
  5
16C
330
17
100
AcDbEntity
  8
ENG_D
100
AcDbPolyline
 90
4
 70
1
 10
75.27533153305602
 20
30.841242228908715
 10
74.45268631822493
 20
30.01859701407783
 10
74.45268631822493
 20
31.663887443739604
 10
75.27533153305602
 20
30.841242228908715
  0
LWPOLYLINE
  5
16D
330
17
100
AcDbEntity
  8
ENG_D
100
AcDbPolyline
 90
4
 70
1
 10
73.97079190839824
 20
30.218204214259913
 10
74.79343712322931
 20
29.395558999428584
 10
73.97079190839824
 20
28.5729137845977
 10
73.97079190839824
 20
30.218204214259913
  0
LWPOLYLINE
  5
16E
330
17
100
AcDbEntity
  8
ENG_D
100
AcDbPolyline
 90
5
 70
1
 10
72.76605588383148
 20
27.085890550386125
 10
73.35324808325147
 20
27.673082749806067
 10
73.82319388800182
 20
26.26324533555513
 10
72.76605588383148
 20
26.26324533555513
 10
72.76605588383148
 20
27.085890550386125
  0
LWPOLYLINE
  5
16F
330
17
100
AcDbEntity
  8
ENG_D
100
AcDbPolyline
 90
4
 70
1
 10
72.52510867891813
 20
19.134632788245455
 10
73.34775389374923
 20
18.31198757341457
 10
72.52510867891813
 20
17.48934235858335
 10
72.52510867891813
 20
19.134632788245455
  0
LWPOLYLINE
  5
170
330
17
100
AcDbEntity
  8
ENG_D
100
AcDbPolyline
 90
5
 70
1
 10
72.28416147400479
 20
24.335667696248287
 10
72.28416147400479
 20
25.158312911079285
 10
72.87135367342475
 20
25.745505110499444
 10
73.3412994781751
 20
24.335667696248287
 10
72.28416147400479
 20
24.335667696248287
  0
LWPOLYLINE
  5
171
330
17
100
AcDbEntity
  8
ENG_D
100
AcDbPolyline
 90
5
 70
1
 10
72.38945926359807
 20
23.81792747119249
 10
72.85940506834842
 20
22.408090056941553
 10
71.8022670641781
 20
22.408090056941553
 10
71.8022670641781
 20
23.230735271772552
 10
72.38945926359807
 20
23.81792747119249
  0
LWPOLYLINE
  5
172
330
17
100
AcDbEntity
  8
ENG_K
100
AcDbPolyline
 90
9
 70
1
 10
215.3952671361943
 20
107.91053599451239
 10
215.74072165326194
 20
109.63780857985073
 10
217.3343788318411
 20
108.04415140127144
 10
217.3343788318411
 20
106.1165737619647
 10
217.8162732416678
 20
105.634679352138
 10
217.8162732416678
 20
102.2536485260428
 10
216.37059001218768
 20
102.9764901407827
 10
216.37059001218768
 20
105.95989024252562
 10
215.3952671361943
 20
107.91053599451239
  0
LWPOLYLINE
  5
173
330
17
100
AcDbEntity
  8
ENG_K
100
AcDbPolyline
 90
5
 70
1
 10
215.99399339195426
 20
101.40292745329116
 10
216.46393919670462
 20
99.99309003904
 10
215.4068011925343
 20
99.99309003904
 10
215.4068011925343
 20
100.815735253871
 10
215.99399339195426
 20
101.40292745329116
  0
LWPOLYLINE
  5
174
330
17
100
AcDbEntity
  8
ENG_K
100
AcDbPolyline
 90
4
 70
1
 10
214.68395957779424
 20
97.96570879964229
 10
214.68395957779424
 20
99.61099922930438
 10
215.50660479262532
 20
98.78835401447317
 10
214.68395957779424
 20
97.96570879964229
  0
LWPOLYLINE
  5
175
330
17
100
AcDbEntity
  8
ENG_K
100
AcDbPolyline
 90
4
 70
1
 10
211.79259311883405
 20
97.00191997998853
 10
211.79259311883405
 20
98.64721040965085
 10
212.6152383336651
 20
97.82456519481985
 10
211.79259311883405
 20
97.00191997998853
  0
LWPOLYLINE
  5
176
330
17
100
AcDbEntity
  8
ENG_K
100
AcDbPolyline
 90
4
 70
1
 10
211.31069870900734
 20
98.16531599982403
 10
212.13334392383842
 20
97.34267078499315
 10
211.31069870900734
 20
96.52002557016192
 10
211.31069870900734
 20
98.16531599982403
  0
LWPOLYLINE
  5
177
330
17
100
AcDbEntity
  8
ENG_K
100
AcDbPolyline
 90
4
 70
1
 10
210.34690988935395
 20
98.16531599982403
 10
211.16955510418504
 20
97.34267078499315
 10
210.34690988935395
 20
96.52002557016192
 10
210.34690988935395
 20
98.16531599982403
  0
LWPOLYLINE
  5
178
330
17
100
AcDbEntity
  8
ENG_K
100
AcDbPolyline
 90
4
 70
1
 10
208.90122665987386
 20
98.16531599982403
 10
209.7238718747049
 20
97.34267078499315
 10
208.90122665987386
 20
96.52002557016192
 10
208.90122665987386
 20
98.16531599982403
  0
LWPOLYLINE
  5
179
330
17
100
AcDbEntity
  8
ENG_K
100
AcDbPolyline
 90
4
 70
1
 10
207.45554343039376
 20
98.16531599982414
 10
208.27818864522482
 20
97.34267078499315
 10
207.45554343039376
 20
96.52002557016182
 10
207.45554343039376
 20
98.16531599982414
  0
LWPOLYLINE
  5
17A
330
17
100
AcDbEntity
  8
ENG_K
100
AcDbPolyline
 90
4
 70
1
 10
203.21238669973567
 20
98.06551239973315
 10
206.59155821083127
 20
98.06551239973315
 10
205.32436889417045
 20
96.79832308307212
 10
203.21238669973567
 20
98.06551239973315
  0
LWPOLYLINE
  5
17B
330
17
100
AcDbEntity
  8
ENG_K
100
AcDbPolyline
 90
10
 70
1
 10
205.899462613077
 20
113.75782673608647
 10
205.28701858617362
 20
113.14538270918317
 10
205.28701858617362
 20
111.55855587488072
 10
204.3232297665202
 20
111.55855587488072
 10
204.3232297665202
 20
112.66348829935646
 10
203.7415317566025
 20
113.24518630927416
 10
204.2234261664292
 20
113.72708071910087
 10
203.2596373467758
 20
114.6908695387543
 10
203.81528957284513
 20
115.24652176482353
 10
205.899462613077
 20
113.75782673608647
  0
LWPOLYLINE
  5
17C
330
17
100
AcDbEntity
  8
ENG_K
100
AcDbPolyline
 90
4
 70
1
 10
205.04607138126028
 20
121.77814208133253
 10
205.86871659609136
 20
120.9554968665013
 10
205.04607138126028
 20
120.13285165167042
 10
205.04607138126028
 20
121.77814208133253
  0
LWPOLYLINE
  5
17D
330
17
100
AcDbEntity
  8
ENG_K
100
AcDbPolyline
 90
5
 70
1
 10
205.3399797221627
 20
109.63097823557399
 10
203.84133535669352
 20
109.63097823557399
 10
203.84133535669352
 20
110.45362345040499
 10
204.953098125446
 20
111.56538621915746
 10
205.3399797221627
 20
109.63097823557399
  0
LWPOLYLINE
  5
17E
330
17
100
AcDbEntity
  8
ENG_K
100
AcDbPolyline
 90
5
 70
1
 10
202.1478745780233
 20
98.45443355374573
 10
203.92052861093063
 20
98.80896436032704
 10
204.57100731571037
 20
98.15848565554752
 10
202.79835328280296
 20
97.80395484896587
 10
202.1478745780233
 20
98.45443355374573
  0
LWPOLYLINE
  5
17F
330
17
100
AcDbEntity
  8
ENG_K
100
AcDbPolyline
 90
4
 70
1
 10
204.42303336661124
 20
106.01677016187372
 10
203.60038815178015
 20
105.1941249470425
 10
203.60038815178015
 20
106.83941537670461
 10
204.42303336661124
 20
106.01677016187372
  0
LWPOLYLINE
  5
180
330
17
100
AcDbEntity
  8
ENG_K
100
AcDbPolyline
 90
5
 70
1
 10
201.91375771738674
 20
109.63097823557399
 10
201.91375771738674
 20
111.89930667988502
 10
202.57976402055777
 20
112.56531298305627
 10
202.9058012147225
 20
109.63097823557399
 10
201.91375771738674
 20
109.63097823557399
  0
LWPOLYLINE
  5
181
330
17
100
AcDbEntity
  8
ENG_K
100
AcDbPolyline
 90
5
 70
1
 10
202.43251938371938
 20
112.04045028470743
 10
201.43186330756004
 20
112.04045028470743
 10
201.43186330756004
 20
113.82688431919186
 10
202.0841331198889
 20
114.47915413152087
 10
202.43251938371938
 20
112.04045028470743
  0
LWPOLYLINE
  5
182
330
17
100
AcDbEntity
  8
ENG_K
100
AcDbPolyline
 90
9
 70
1
 10
197.5803030529865
 20
115.06379408881196
 10
197.57537861949538
 20
115.17726976169729
 10
199.82337150627163
 20
115.62686833905245
 10
200.3191609257759
 20
116.61844717806102
 10
201.07396464120228
 20
116.61844717806102
 10
202.469409943456
 20
114.66482375490583
 10
201.3658554661699
 20
113.56126927761979
 10
200.79308070807895
 20
114.70681879380163
 10
197.5803030529865
 20
115.06379408881196
  0
LWPOLYLINE
  5
183
330
17
100
AcDbEntity
  8
ENG_K
100
AcDbPolyline
 90
4
 70
1
 10
201.19091610264667
 20
117.92298680271895
 10
202.01356131747775
 20
117.10034158788774
 10
201.19091610264667
 20
116.27769637305686
 10
201.19091610264667
 20
117.92298680271895
  0
LWPOLYLINE
  5
184
330
17
100
AcDbEntity
  8
ENG_K
100
AcDbPolyline
 90
5
 70
1
 10
201.0150465106422
 20
98.8230800016553
 10
201.63696469724434
 20
98.20116181505334
 10
200.4029968749977
 20
97.78983920763761
 10
199.7810786883956
 20
98.41175739423991
 10
201.0150465106422
 20
98.8230800016553
  0
LWPOLYLINE
  5
185
330
17
100
AcDbEntity
  8
ENG_K
100
AcDbPolyline
 90
5
 70
1
 10
198.69288524127535
 20
97.27884120455543
 10
197.5128784485088
 20
97.67217680214435
 10
197.90621404609763
 20
98.85218359491088
 10
199.08622083886422
 20
98.45884799732207
 10
198.69288524127535
 20
97.27884120455543
  0
LWPOLYLINE
  5
186
330
17
100
AcDbEntity
  8
ENG_K
100
AcDbPolyline
 90
4
 70
1
 10
196.81802059897737
 20
97.44796857458648
 10
195.4081831847263
 20
96.03813116033544
 10
195.4081831847263
 20
97.91791437933672
 10
196.81802059897737
 20
97.44796857458648
  0
LWPOLYLINE
  5
187
330
17
100
AcDbEntity
  8
ENG_K
100
AcDbPolyline
 90
18
 70
1
 10
191.31208070119936
 20
85.67740134906133
 10
190.91867504203177
 20
85.28399568989376
 10
187.72671787782468
 20
85.63865759702782
 10
190.2988356119729
 20
86.74099376880574
 10
193.51258034746022
 20
86.74099376880574
 10
193.73533275190997
 20
88.300260599954
 10
194.17755404886103
 20
88.74248189690503
 10
193.63640267209493
 20
90.90708740396936
 10
195.0880427255758
 20
90.6167593932733
 10
195.64913038963965
 20
91.17784705733712
 10
196.67537250138722
 20
90.15160494558938
 10
195.1599550319131
 20
87.62590916313262
 10
194.9009996292679
 20
85.29531053932571
 10
193.62174915024178
 20
85.29531053932571
 10
193.23965834050617
 20
85.67740134906133
 10
192.85756753077052
 20
85.29531053932571
 10
191.69417151093498
 20
85.29531053932571
 10
191.31208070119936
 20
85.67740134906133
  0
LWPOLYLINE
  5
188
330
17
100
AcDbEntity
  8
ENG_K
100
AcDbPolyline
 90
4
 70
1
 10
195.4081831847263
 20
97.48381438981524
 10
195.4081831847263
 20
99.12910481947756
 10
196.23082839955737
 20
98.30645960464656
 10
195.4081831847263
 20
97.48381438981524
  0
LWPOLYLINE
  5
189
330
17
100
AcDbEntity
  8
ENG_K
100
AcDbPolyline
 90
9
 70
1
 10
195.22261125112942
 20
97.2156453196813
 10
195.68385637682178
 20
95.83190994260416
 10
195.16723597981294
 20
95.31528954559532
 10
195.16723597981294
 20
94.50818424538099
 10
195.70135822945267
 20
93.43993974610154
 10
194.53736762088715
 20
92.275949137536
 10
194.2224334414243
 20
93.85062003485056
 10
193.66361014593804
 20
94.40944333033663
 10
195.22261125112942
 20
97.2156453196813
  0
LWPOLYLINE
  5
18A
330
17
100
AcDbEntity
  8
ENG_K
100
AcDbPolyline
 90
4
 70
1
 10
195.37233736949725
 20
92.14713006649266
 10
193.9624999552462
 20
90.73729265224173
 10
193.9624999552462
 20
92.61707587124323
 10
195.37233736949725
 20
92.14713006649266
  0
LWPOLYLINE
  5
18B
330
17
100
AcDbEntity
  8
ENG_K
100
AcDbPolyline
 90
5
 70
1
 10
188.14392122209676
 20
85.67190715955897
 10
186.90995339985017
 20
85.26058455214358
 10
186.28803521324807
 20
85.88250273874553
 10
187.5220030354947
 20
86.29382534616126
 10
188.14392122209676
 20
85.67190715955897
  0
LWPOLYLINE
  5
18C
330
17
100
AcDbEntity
  8
ENG_K
100
AcDbPolyline
 90
5
 70
1
 10
187.18013240244338
 20
85.19001274973247
 10
185.94616458019672
 20
84.77869014231676
 10
185.3242463935947
 20
85.40060832891905
 10
186.55821421584125
 20
85.81193093633443
 10
187.18013240244338
 20
85.19001274973247
  0
LWPOLYLINE
  5
18D
330
17
100
AcDbEntity
  8
ENG_K
100
AcDbPolyline
 90
9
 70
1
 10
182.3356783575503
 20
122.33982433412649
 10
183.17675565349376
 20
121.91928568615474
 10
184.14610024601336
 20
121.91928568615474
 10
187.18203502792133
 20
120.2326552517613
 10
184.76176765644647
 20
120.2326552517613
 10
181.46393046682456
 20
121.50105417084677
 10
181.17168774898488
 20
122.96226776004538
 10
181.7402003460555
 20
123.53078035711596
 10
182.3356783575503
 20
122.33982433412649
  0
LWPOLYLINE
  5
18E
330
17
100
AcDbEntity
  8
ENG_K
100
AcDbPolyline
 90
5
 70
1
 10
182.43287993463449
 20
86.36439714857225
 10
183.66684775688114
 20
86.77571975598796
 10
184.28876594348316
 20
86.15380156938568
 10
183.05479812123662
 20
85.74247896197029
 10
182.43287993463449
 20
86.36439714857225
  0
LWPOLYLINE
  5
18F
330
17
100
AcDbEntity
  8
ENG_K
100
AcDbPolyline
 90
4
 70
1
 10
182.5735262247403
 20
86.14505776209147
 10
180.46945648009861
 20
85.72424381316324
 10
180.46945648009861
 20
87.40749960887662
 10
182.5735262247403
 20
86.14505776209147
  0
LWPOLYLINE
  5
190
330
17
100
AcDbEntity
  8
ENG_K
100
AcDbPolyline
 90
11
 70
1
 10
181.1922980948387
 20
106.88075538143616
 10
180.71040368501198
 20
106.39886097160944
 10
180.71040368501198
 20
103.36635090782687
 10
179.7466148653586
 20
103.36635090782687
 10
179.7466148653586
 20
107.84454420108946
 10
179.25010455669195
 20
108.34105450975606
 10
179.67510932961733
 20
111.31608792023351
 10
179.75126793292586
 20
111.318201807163
 10
180.20952299392056
 20
109.0269265021896
 10
181.1922980948387
 20
108.04415140127144
 10
181.1922980948387
 20
106.88075538143616
  0
LWPOLYLINE
  5
191
330
17
100
AcDbEntity
  8
ENG_K
100
AcDbPolyline
 90
4
 70
1
 10
181.2921016949297
 20
123.84686332546157
 10
180.46945648009861
 20
123.02421811063036
 10
180.46945648009861
 20
124.66950854029247
 10
181.2921016949297
 20
123.84686332546157
  0
LWPOLYLINE
  5
192
330
17
100
AcDbEntity
  8
ENG_K
100
AcDbPolyline
 90
5
 70
1
 10
180.41124937114895
 20
88.74251822297951
 10
180.76336482100103
 20
86.98194097371913
 10
179.8386485081412
 20
86.98194097371913
 10
179.16591552460213
 20
88.32740694079733
 10
180.41124937114895
 20
88.74251822297951
  0
LWPOLYLINE
  5
193
330
17
100
AcDbEntity
  8
ENG_K
100
AcDbPolyline
 90
5
 70
1
 10
179.28820165486084
 20
118.72751680329895
 10
180.3808976678608
 20
119.09174880763219
 10
180.7451296721941
 20
117.99905279463229
 10
178.92396965052757
 20
116.17789277296575
 10
179.28820165486084
 20
118.72751680329895
  0
LWPOLYLINE
  5
194
330
17
100
AcDbEntity
  8
ENG_K
100
AcDbPolyline
 90
4
 70
1
 10
179.50566766044523
 20
99.41139202912241
 10
179.50566766044523
 20
101.05668245878452
 10
180.3283128752763
 20
100.2340372439533
 10
179.50566766044523
 20
99.41139202912241
  0
LWPOLYLINE
  5
195
330
17
100
AcDbEntity
  8
ENG_K
100
AcDbPolyline
 90
9
 70
1
 10
179.7466148653586
 20
121.99223862978204
 10
179.7466148653586
 20
119.26886643210798
 10
178.81966034646626
 20
119.26886643210798
 10
178.31690407582732
 20
122.28540405594157
 10
177.8077223766199
 20
122.79458575514901
 10
178.09437209116538
 20
125.37443318605857
 10
179.32855003596956
 20
124.96304053779039
 10
178.8077267773196
 20
123.40057076184064
 10
179.7466148653586
 20
121.99223862978204
  0
LWPOLYLINE
  5
196
330
17
100
AcDbEntity
  8
ENG_K
100
AcDbPolyline
 90
11
 70
1
 10
160.47083847229067
 20
77.73391354422921
 10
161.46604038961001
 20
77.23631258556951
 10
161.15749863205048
 20
75.69360379777179
 10
159.50704965263722
 20
75.36351400188923
 10
159.50704965263722
 20
76.52140756235414
 10
158.97292740299753
 20
77.05552981199371
 10
159.4548218128242
 20
78.01931863164712
 10
158.9904292556284
 20
78.483711188843
 10
159.40175186304398
 20
79.7176790110895
 10
160.47083847229067
 20
78.64859240184285
 10
160.47083847229067
 20
77.73391354422921
  0
LWPOLYLINE
  5
197
330
17
100
AcDbEntity
  8
ENG_K
100
AcDbPolyline
 90
5
 70
1
 10
159.64819325745952
 20
79.7535248263187
 10
158.5085348458017
 20
80.89318323797656
 10
158.91985745321728
 20
82.12715106022306
 10
161.29348368712166
 20
79.7535248263187
 10
159.64819325745952
 20
79.7535248263187
  0
LWPOLYLINE
  5
198
330
17
100
AcDbEntity
  8
ENG_K
100
AcDbPolyline
 90
5
 70
1
 10
158.9600776299018
 20
229.34701309032656
 10
158.33815944329953
 20
229.9689312769284
 10
159.5721272655463
 20
230.38025388434403
 10
160.19404545214832
 20
229.75833569774173
 10
158.9600776299018
 20
229.34701309032656
  0
LWPOLYLINE
  5
199
330
17
100
AcDbEntity
  8
ENG_K
100
AcDbPolyline
 90
4
 70
1
 10
158.3023136280705
 20
82.74469488536995
 10
159.12495884290158
 20
81.92204967053873
 10
158.3023136280705
 20
81.09940445570784
 10
158.3023136280705
 20
82.74469488536995
  0
LWPOLYLINE
  5
19A
330
17
100
AcDbEntity
  8
ENG_K
100
AcDbPolyline
 90
5
 70
1
 10
158.3091439723473
 20
78.40081485265272
 10
156.3747359887637
 20
78.01393325593608
 10
156.3747359887637
 20
79.51257762140517
 10
157.19738120359483
 20
79.51257762140517
 10
158.3091439723473
 20
78.40081485265272
  0
LWPOLYLINE
  5
19B
330
17
100
AcDbEntity
  8
ENG_K
100
AcDbPolyline
 90
5
 70
1
 10
157.03249999059477
 20
229.82890750015318
 10
156.41058180399287
 20
230.45082568675522
 10
157.64454962623944
 20
230.86214829417085
 10
158.26646781284134
 20
230.24023010756878
 10
157.03249999059477
 20
229.82890750015318
  0
LWPOLYLINE
  5
19C
330
17
100
AcDbEntity
  8
ENG_K
100
AcDbPolyline
 90
5
 70
1
 10
157.78457340301478
 20
84.22622393007906
 10
156.55060558076815
 20
83.81490132266333
 10
155.92868739416605
 20
84.43681950926563
 10
157.16265521641262
 20
84.84814211668102
 10
157.78457340301478
 20
84.22622393007906
  0
LWPOLYLINE
  5
19D
330
17
100
AcDbEntity
  8
ENG_K
100
AcDbPolyline
 90
13
 70
1
 10
155.16999996419696
 20
36.24188433709341
 10
155.16999996419696
 20
40.379326825351725
 10
154.48300416468598
 20
41.066322624862764
 10
155.74452548439518
 20
41.486829731432366
 10
157.21659271983108
 20
39.42593560182217
 10
156.29960022533155
 20
38.96743935457236
 10
156.66791103349007
 20
38.599128546413894
 10
156.1860166236634
 20
37.63533972676048
 10
157.8272495625206
 20
35.99410678790338
 10
156.27890790006387
 20
35.684438455411915
 10
155.0478121567198
 20
33.83779484039595
 10
154.66749520851644
 20
35.73937958141293
 10
155.16999996419696
 20
36.24188433709341
  0
LWPOLYLINE
  5
19E
330
17
100
AcDbEntity
  8
ENG_K
100
AcDbPolyline
 90
10
 70
1
 10
155.65189437402367
 20
231.891014726733
 10
155.65189437402367
 20
233.13709075603106
 10
155.07019636410593
 20
233.71878876594886
 10
156.13378878385038
 20
234.78238118569328
 10
157.11818794935758
 20
233.79798202018608
 10
156.63629353953087
 20
231.38850997105266
 10
157.43832840850814
 20
230.58647510207518
 10
155.793037978846
 20
230.58647510207518
 10
155.07019636410593
 20
231.30931671681543
 10
155.65189437402367
 20
231.891014726733
  0
LWPOLYLINE
  5
19F
330
17
100
AcDbEntity
  8
ENG_K
100
AcDbPolyline
 90
4
 70
1
 10
154.4471583494569
 20
41.10216844009174
 10
154.4471583494569
 20
42.98195165909324
 10
155.85699576370794
 20
42.512005854342675
 10
154.4471583494569
 20
41.10216844009174
  0
LWPOLYLINE
  5
1A0
330
17
100
AcDbEntity
  8
ENG_K
100
AcDbPolyline
 90
5
 70
1
 10
154.20621114454354
 20
53.590083090854556
 10
154.79340334396358
 20
54.177275290274494
 10
155.2633491487139
 20
52.76743787602356
 10
154.20621114454354
 20
52.76743787602356
 10
154.20621114454354
 20
53.590083090854556
  0
LWPOLYLINE
  5
1A1
330
17
100
AcDbEntity
  8
ENG_K
100
AcDbPolyline
 90
4
 70
1
 10
155.269803564288
 20
34.214503097695584
 10
154.4471583494569
 20
33.3918578828647
 10
154.4471583494569
 20
35.0371483125268
 10
155.269803564288
 20
34.214503097695584
  0
LWPOLYLINE
  5
1A2
330
17
100
AcDbEntity
  8
ENG_K
100
AcDbPolyline
 90
4
 70
1
 10
153.9652639396302
 20
236.95090602991354
 10
154.7879091544613
 20
236.1282608150823
 10
153.9652639396302
 20
235.3056156002511
 10
153.9652639396302
 20
236.95090602991354
  0
LWPOLYLINE
  5
1A3
330
17
100
AcDbEntity
  8
ENG_K
100
AcDbPolyline
 90
10
 70
1
 10
153.82412033480787
 20
59.75490681851059
 10
153.34222592498116
 20
59.27301240868399
 10
154.26866443663775
 20
58.346573897027355
 10
153.12838072800272
 20
56.44610104930226
 10
152.77951419632822
 20
58.190433707674735
 10
152.27084371010724
 20
58.69910419389579
 10
152.61121592368633
 20
63.12394297042412
 10
152.83139514056253
 20
63.13111510925917
 10
153.22864232331304
 20
60.35038483000543
 10
153.82412033480787
 20
59.75490681851059
  0
LWPOLYLINE
  5
1A4
330
17
100
AcDbEntity
  8
ENG_K
100
AcDbPolyline
 90
5
 70
1
 10
153.8176659192338
 20
63.851009302037575
 10
152.76052791506345
 20
63.851009302037575
 10
152.76052791506345
 20
64.67365451686857
 10
153.34772011448345
 20
65.26084671628874
 10
153.8176659192338
 20
63.851009302037575
  0
LWPOLYLINE
  5
1A5
330
17
100
AcDbEntity
  8
ENG_K
100
AcDbPolyline
 90
4
 70
1
 10
153.00147511997682
 20
79.17182681640078
 10
153.00147511997682
 20
80.81711724606289
 10
153.82412033480787
 20
79.994472031232
 10
153.00147511997682
 20
79.17182681640078
  0
LWPOLYLINE
  5
1A6
330
17
100
AcDbEntity
  8
ENG_K
100
AcDbPolyline
 90
4
 70
1
 10
152.86033151515448
 20
70.83847824452472
 10
152.0376863003234
 20
70.0158330296935
 10
152.0376863003234
 20
71.66112345935561
 10
152.86033151515448
 20
70.83847824452472
  0
LWPOLYLINE
  5
1A7
330
17
100
AcDbEntity
  8
ENG_K
100
AcDbPolyline
 90
6
 70
1
 10
150.26256711527083
 20
232.76631479572706
 10
152.84241454618024
 20
232.4796650811818
 10
152.4436262197195
 20
231.2833001017993
 10
150.47841946917524
 20
231.56404392330577
 10
149.76935785601222
 20
232.27310553646885
 10
150.26256711527083
 20
232.76631479572706
  0
LWPOLYLINE
  5
1A8
330
17
100
AcDbEntity
  8
ENG_K
100
AcDbPolyline
 90
8
 70
1
 10
150.8247276635371
 20
73.68941000857599
 10
151.1444692830812
 20
75.92760134538479
 10
152.37843710532778
 20
74.69363352313829
 10
151.8965426955011
 20
74.21173911331158
 10
152.27863350523677
 20
73.82964830357585
 10
152.27863350523677
 20
72.52510867891814
 10
151.406878328366
 20
72.52510867891814
 10
150.8247276635371
 20
73.68941000857599
  0
LWPOLYLINE
  5
1A9
330
17
100
AcDbEntity
  8
ENG_K
100
AcDbPolyline
 90
5
 70
1
 10
150.83295027575667
 20
76.72101476253613
 10
151.42014247517668
 20
77.30820696195606
 10
151.890088279927
 20
75.89836954770513
 10
150.83295027575667
 20
75.89836954770513
 10
150.83295027575667
 20
76.72101476253613
  0
LWPOLYLINE
  5
1AA
330
17
100
AcDbEntity
  8
ENG_K
100
AcDbPolyline
 90
5
 70
1
 10
151.4081938701003
 20
77.82594718701186
 10
150.35105586592996
 20
77.82594718701186
 10
150.35105586592996
 20
78.64859240184285
 10
150.93824806534994
 20
79.2357846012628
 10
151.4081938701003
 20
77.82594718701186
  0
LWPOLYLINE
  5
1AB
330
17
100
AcDbEntity
  8
ENG_K
100
AcDbPolyline
 90
5
 70
1
 10
147.43106789548878
 20
105.65412483441983
 10
149.24846009367903
 20
106.744560153334
 10
148.88638635518515
 20
104.93419146086458
 10
147.7936098676974
 20
103.84141497337684
 10
147.43106789548878
 20
105.65412483441983
  0
LWPOLYLINE
  5
1AC
330
17
100
AcDbEntity
  8
ENG_K
100
AcDbPolyline
 90
11
 70
1
 10
146.9777949971431
 20
117.04346166853973
 10
146.9777949971431
 20
115.41371115349442
 10
146.0140061774897
 20
115.41371115349442
 10
146.0140061774897
 20
120.09151164693898
 10
146.49590058731638
 20
120.57340605676559
 10
146.49590058731638
 20
121.61105619581602
 10
147.6120777996453
 20
121.98311526659245
 10
147.96077987039357
 20
120.93700905434746
 10
147.48812936664382
 20
119.991708046848
 10
147.9700237764705
 20
119.02791922719457
 10
146.9777949971431
 20
117.04346166853973
  0
LWPOLYLINE
  5
1AD
330
17
100
AcDbEntity
  8
ENG_K
100
AcDbPolyline
 90
5
 70
1
 10
146.25495338240302
 20
66.64257216090664
 10
146.25495338240302
 20
73.6989852380867
 10
147.4596894069698
 20
70.8879345140977
 10
147.4596894069698
 20
67.84730818547358
 10
146.25495338240302
 20
66.64257216090664
  0
LWPOLYLINE
  5
1AE
330
17
100
AcDbEntity
  8
ENG_K
100
AcDbPolyline
 90
4
 70
1
 10
146.73684779222972
 20
109.53117463548278
 10
146.73684779222972
 20
111.1764650651449
 10
147.5594930070608
 20
110.35381985031401
 10
146.73684779222972
 20
109.53117463548278
  0
LWPOLYLINE
  5
1AF
330
17
100
AcDbEntity
  8
ENG_K
100
AcDbPolyline
 90
6
 70
1
 10
146.25495338240302
 20
115.62379889300945
 10
147.50446736786898
 20
112.70826626025566
 10
147.03002283695614
 20
112.23382172934271
 10
147.51191724678282
 20
111.2700329096894
 10
146.25495338240302
 20
110.01306904530949
 10
146.25495338240302
 20
115.62379889300945
  0
LWPOLYLINE
  5
1B0
330
17
100
AcDbEntity
  8
ENG_K
100
AcDbPolyline
 90
4
 70
1
 10
146.25495338240302
 20
86.40024296380156
 10
146.25495338240302
 20
88.04553339346333
 10
147.0775985972341
 20
87.22288817863245
 10
146.25495338240302
 20
86.40024296380156
  0
LWPOLYLINE
  5
1B1
330
17
100
AcDbEntity
  8
ENG_K
100
AcDbPolyline
 90
4
 70
1
 10
146.25495338240302
 20
107.12170258634957
 10
146.25495338240302
 20
108.76699301601167
 10
147.0775985972341
 20
107.94434780118046
 10
146.25495338240302
 20
107.12170258634957
  0
LWPOLYLINE
  5
1B2
330
17
100
AcDbEntity
  8
ENG_K
100
AcDbPolyline
 90
4
 70
1
 10
146.25495338240302
 20
107.32130978653132
 10
147.0775985972341
 20
106.49866457170043
 10
146.25495338240302
 20
105.6760193568692
 10
146.25495338240302
 20
107.32130978653132
  0
LWPOLYLINE
  5
1B3
330
17
100
AcDbEntity
  8
ENG_K
100
AcDbPolyline
 90
4
 70
1
 10
145.29116456274963
 20
39.374198000967084
 10
146.1138097775807
 20
38.551552786135865
 10
145.29116456274963
 20
37.72890757130498
 10
145.29116456274963
 20
39.374198000967084
  0
LWPOLYLINE
  5
1B4
330
17
100
AcDbEntity
  8
ENG_K
100
AcDbPolyline
 90
5
 70
1
 10
146.219107567174
 20
49.529826422556766
 10
144.98513974492738
 20
49.11850381514105
 10
144.36322155832528
 20
49.74042200174333
 10
145.59718938057185
 20
50.15174460915872
 10
146.219107567174
 20
49.529826422556766
  0
LWPOLYLINE
  5
1B5
330
17
100
AcDbEntity
  8
ENG_K
100
AcDbPolyline
 90
16
 70
1
 10
141.75477449427268
 20
89.8733074326793
 10
140.67139458598282
 20
92.58175720340401
 10
141.09525847913167
 20
93.00562109655286
 10
140.61336406930496
 20
93.48751550637957
 10
141.09525847913167
 20
93.96940991620627
 10
140.71316766939597
 20
94.35150072594189
 10
140.71316766939597
 20
95.26617958355554
 10
139.66706145715108
 20
95.78923268967799
 10
140.20283329989527
 20
96.86077637516644
 10
139.69715100992957
 20
97.87214095509789
 10
140.2312732595693
 20
98.40626320473756
 10
140.2312732595693
 20
99.79854502598162
 10
141.2424409199629
 20
102.32646417696567
 10
142.87379539140372
 20
103.30527685983016
 10
143.12722877682165
 20
89.8733074326793
 10
141.75477449427268
 20
89.8733074326793
  0
LWPOLYLINE
  5
1B6
330
17
100
AcDbEntity
  8
ENG_K
100
AcDbPolyline
 90
5
 70
1
 10
142.82301235474233
 20
88.71782539045437
 10
143.15456886243084
 20
84.4075907905042
 10
141.67695648904942
 20
85.14639697719495
 10
141.67695648904942
 20
86.80773228096595
 10
142.82301235474233
 20
88.71782539045437
  0
LWPOLYLINE
  5
1B7
330
17
100
AcDbEntity
  8
ENG_K
100
AcDbPolyline
 90
5
 70
1
 10
143.15950697503544
 20
70.1156366297847
 10
142.2508845416587
 20
70.1156366297847
 10
141.6247286492364
 20
71.36794841462945
 10
142.81112071120498
 20
72.55434047659793
 10
143.15950697503544
 20
70.1156366297847
  0
LWPOLYLINE
  5
1B8
330
17
100
AcDbEntity
  8
ENG_K
100
AcDbPolyline
 90
13
 70
1
 10
140.71316766939597
 20
121.33758767623704
 10
140.71316766939597
 20
123.74705972537059
 10
140.22204549203644
 20
124.23818190273018
 10
140.51978449778386
 20
127.51331096595165
 10
141.79574637040508
 20
126.2373490933304
 10
143.1226397185295
 20
125.97197042370544
 10
143.1226397185295
 20
116.37749997314772
 10
142.2508845416587
 20
116.37749997314772
 10
141.6247286492364
 20
117.62981175799247
 10
142.08974828138872
 20
118.09483139014488
 10
141.19506207922268
 20
119.43686069339398
 10
141.19506207922268
 20
120.85569326641033
 10
140.71316766939597
 20
121.33758767623704
  0
LWPOLYLINE
  5
1B9
330
17
100
AcDbEntity
  8
ENG_K
100
AcDbPolyline
 90
7
 70
1
 10
141.19506207922268
 20
81.38327534136403
 10
140.6465292673055
 20
82.4803409651983
 10
142.86367182957736
 20
84.06401422396404
 10
143.13247028744848
 20
77.34405277718514
 10
142.2508845416587
 20
77.34405277718514
 10
141.19506207922268
 20
79.4556977020573
 10
141.19506207922268
 20
81.38327534136403
  0
LWPOLYLINE
  5
1BA
330
17
100
AcDbEntity
  8
ENG_K
100
AcDbPolyline
 90
4
 70
1
 10
137.51149124688175
 20
142.16509231852248
 10
135.50712939318643
 20
143.16727324536993
 10
137.0104007834579
 20
143.6683637087939
 10
137.51149124688175
 20
142.16509231852248
  0
LWPOLYLINE
  5
1BB
330
17
100
AcDbEntity
  8
ENG_K
100
AcDbPolyline
 90
5
 70
1
 10
137.62382229404446
 20
120.77138497315687
 10
134.84194600081653
 20
120.46228760724276
 10
134.1646248482135
 20
121.13960875984564
 10
136.9465011414416
 20
121.44870612575997
 10
137.62382229404446
 20
120.77138497315687
  0
LWPOLYLINE
  5
1BC
330
17
100
AcDbEntity
  8
ENG_K
100
AcDbPolyline
 90
4
 70
1
 10
136.13517077604237
 20
134.7892911466534
 10
137.4023600927033
 20
133.52210182999224
 10
136.13517077604237
 20
131.41011963555738
 10
136.13517077604237
 20
134.7892911466534
  0
LWPOLYLINE
  5
1BD
330
17
100
AcDbEntity
  8
ENG_K
100
AcDbPolyline
 90
4
 70
1
 10
135.03023835156662
 20
115.65465835840772
 10
134.20759313673554
 20
114.83201314357649
 10
134.20759313673554
 20
116.4773035732386
 10
135.03023835156662
 20
115.65465835840772
  0
LWPOLYLINE
  5
1BE
330
17
100
AcDbEntity
  8
ENG_K
100
AcDbPolyline
 90
5
 70
1
 10
134.01946724395015
 20
90.83709625233271
 10
133.43782993525176
 20
93.1636454871263
 10
134.65509988636202
 20
93.56940213749631
 10
134.95868942915797
 20
90.83709625233271
 10
134.01946724395015
 20
90.83709625233271
  0
LWPOLYLINE
  5
1BF
330
17
100
AcDbEntity
  8
ENG_K
100
AcDbPolyline
 90
4
 70
1
 10
133.24380431708215
 20
92.66487029154835
 10
133.24380431708215
 20
94.31016072121045
 10
134.06644953191324
 20
93.48751550637957
 10
133.24380431708215
 20
92.66487029154835
  0
LWPOLYLINE
  5
1C0
330
17
100
AcDbEntity
  8
ENG_K
100
AcDbPolyline
 90
5
 70
1
 10
132.31586131265783
 20
115.75995614800105
 10
133.54982913490437
 20
116.17127875541644
 10
134.17174732150656
 20
115.54936056881448
 10
132.9377794992599
 20
115.13803796139877
 10
132.31586131265783
 20
115.75995614800105
  0
LWPOLYLINE
  5
1C1
330
17
100
AcDbEntity
  8
ENG_K
100
AcDbPolyline
 90
4
 70
1
 10
132.28001549742876
 20
141.81810009387164
 10
132.28001549742876
 20
143.46339052353375
 10
133.10266071225985
 20
142.64074530870286
 10
132.28001549742876
 20
141.81810009387164
  0
LWPOLYLINE
  5
1C2
330
17
100
AcDbEntity
  8
ENG_K
100
AcDbPolyline
 90
4
 70
1
 10
132.28001549742876
 20
120.61474606149713
 10
132.28001549742876
 20
122.26003649115924
 10
133.10266071225985
 20
121.43739127632801
 10
132.28001549742876
 20
120.61474606149713
  0
LWPOLYLINE
  5
1C3
330
17
100
AcDbEntity
  8
ENG_K
100
AcDbPolyline
 90
5
 70
1
 10
132.2094436950176
 20
133.27303611476194
 10
132.55782995884803
 20
130.83433226794872
 10
131.075279472862
 20
130.83433226794872
 10
131.075279472862
 20
132.13887189260643
 10
132.2094436950176
 20
133.27303611476194
  0
LWPOLYLINE
  5
1C4
330
17
100
AcDbEntity
  8
ENG_K
100
AcDbPolyline
 90
4
 70
1
 10
131.79812108760208
 20
120.13285165167031
 10
131.79812108760208
 20
121.77814208133265
 10
132.62076630243314
 20
120.9554968665013
 10
131.79812108760208
 20
120.13285165167031
  0
LWPOLYLINE
  5
1C5
330
17
100
AcDbEntity
  8
ENG_K
100
AcDbPolyline
 90
4
 70
1
 10
131.79812108760208
 20
115.995409163412
 10
132.62076630243314
 20
115.17276394858101
 10
131.79812108760208
 20
114.35011873374967
 10
131.79812108760208
 20
115.995409163412
  0
LWPOLYLINE
  5
1C6
330
17
100
AcDbEntity
  8
ENG_K
100
AcDbPolyline
 90
4
 70
1
 10
131.31622667777538
 20
130.93413586803982
 10
132.13887189260646
 20
130.1114906532086
 10
131.31622667777538
 20
129.2888454383777
 10
131.31622667777538
 20
130.93413586803982
  0
LWPOLYLINE
  5
1C7
330
17
100
AcDbEntity
  8
ENG_K
100
AcDbPolyline
 90
4
 70
1
 10
131.31622667777538
 20
136.99915599560487
 10
131.31622667777538
 20
138.64444642526698
 10
132.13887189260646
 20
137.82180121043575
 10
131.31622667777538
 20
136.99915599560487
  0
LWPOLYLINE
  5
1C8
330
17
100
AcDbEntity
  8
ENG_K
100
AcDbPolyline
 90
4
 70
1
 10
132.13887189260646
 20
120.4736024566746
 10
131.31622667777538
 20
119.65095724184371
 10
131.31622667777538
 20
121.29624767150582
 10
132.13887189260646
 20
120.4736024566746
  0
LWPOLYLINE
  5
1C9
330
17
100
AcDbEntity
  8
ENG_K
100
AcDbPolyline
 90
7
 70
1
 10
118.94896451864737
 20
36.90810577965165
 10
120.47360245667467
 20
34.773612666413435
 10
120.47360245667467
 20
32.045978253475546
 10
119.50981363702127
 20
32.045978253475546
 10
119.50981363702127
 20
33.67572876852076
 10
118.52682876377075
 20
35.64169851502186
 10
118.94896451864737
 20
36.90810577965165
  0
LWPOLYLINE
  5
1CA
330
17
100
AcDbEntity
  8
ENG_K
100
AcDbPolyline
 90
4
 70
1
 10
120.1968094365323
 20
31.428434428328767
 10
118.7869720222812
 20
30.01859701407772
 10
118.7869720222812
 20
31.898380233079003
 10
120.1968094365323
 20
31.428434428328767
  0
LWPOLYLINE
  5
1CB
330
17
100
AcDbEntity
  8
ENG_K
100
AcDbPolyline
 90
10
 70
1
 10
118.06413040754116
 20
36.383027941915834
 10
118.06413040754116
 20
40.91462264341439
 10
117.14536822727014
 20
43.2115280940919
 10
115.5174055799194
 20
44.296836525659074
 10
116.09469177253816
 20
44.87412271827773
 10
118.54602481736787
 20
43.512271026705626
 10
118.54602481736787
 20
42.024617255013716
 10
119.02791922719456
 20
41.54272284518712
 10
119.02791922719456
 20
36.383027941915834
 10
118.06413040754116
 20
36.383027941915834
  0
LWPOLYLINE
  5
1CC
330
17
100
AcDbEntity
  8
ENG_K
100
AcDbPolyline
 90
10
 70
1
 10
118.06413040754117
 20
28.35881723614786
 10
118.06413040754117
 20
27.411101440773745
 10
117.05741790714484
 20
25.397676439981034
 10
115.95244087488999
 20
24.29269940772627
 10
115.63993809030933
 20
27.10522446895236
 10
117.10034158788777
 20
28.078826800671308
 10
117.10034158788777
 20
28.990879748493015
 10
118.62497952591507
 20
31.125372861731336
 10
119.05281995880895
 20
29.841851563049527
 10
118.06413040754117
 20
28.35881723614786
  0
LWPOLYLINE
  5
1CD
330
17
100
AcDbEntity
  8
ENG_K
100
AcDbPolyline
 90
4
 70
1
 10
115.41371115349432
 20
45.638825328713885
 10
116.23635636832542
 20
44.816180113883
 10
115.41371115349432
 20
43.99353489905178
 10
115.41371115349432
 20
45.638825328713885
  0
LWPOLYLINE
  5
1CE
330
17
100
AcDbEntity
  8
ENG_K
100
AcDbPolyline
 90
12
 70
1
 10
115.65465835840769
 20
33.307594197390266
 10
116.4343798924958
 20
31.748151129214143
 10
114.68721046632513
 20
32.621735842299216
 10
114.96097379535067
 20
43.846032332346184
 10
115.30472546215374
 20
43.85742748471255
 10
115.64577095942892
 20
40.10592701468574
 10
116.13655276823438
 20
39.615145205880275
 10
116.13655276823438
 20
36.04227713691144
 10
115.7544619584987
 20
35.660186327175715
 10
116.2363563683254
 20
35.178291917349
 10
115.65465835840769
 20
34.596593907431306
 10
115.65465835840769
 20
33.307594197390266
  0
LWPOLYLINE
  5
1CF
330
17
100
AcDbEntity
  8
ENG_K
100
AcDbPolyline
 90
4
 70
1
 10
113.96802792401422
 20
20.58031601772592
 10
114.79067313884529
 20
19.757670802894587
 10
113.96802792401422
 20
18.935025588063702
 10
113.96802792401422
 20
20.58031601772592
  0
LWPOLYLINE
  5
1D0
330
17
100
AcDbEntity
  8
ENG_K
100
AcDbPolyline
 90
4
 70
1
 10
114.3087787290186
 20
19.27577639306799
 10
113.48613351418753
 20
18.45313117823666
 10
113.48613351418753
 20
20.098421607898874
 10
114.3087787290186
 20
19.27577639306799
  0
LWPOLYLINE
  5
1D1
330
17
100
AcDbEntity
  8
ENG_K
100
AcDbPolyline
 90
15
 70
1
 10
113.41830840013978
 20
17.82846467772048
 10
86.2644087306538
 20
18.082239440986747
 10
86.25452525384821
 20
18.482215392035872
 10
91.45433907714684
 20
18.78808679340638
 10
91.9470678920519
 20
19.280815608311407
 10
101.5849560885859
 20
18.7989211984847
 10
102.06181128316905
 20
19.27577639306788
 10
107.84454420108942
 20
19.27577639306788
 10
108.32643861091611
 20
19.757670802894587
 10
109.48983463075166
 20
19.757670802894587
 10
110.45362345040506
 20
18.793881983241167
 10
111.69969947970301
 20
18.793881983241167
 10
112.20220423538365
 20
19.296386738921754
 10
113.80102753396794
 20
18.97662207920503
 10
113.41830840013978
 20
17.82846467772048
  0
LWPOLYLINE
  5
1D2
330
17
100
AcDbEntity
  8
ENG_K
100
AcDbPolyline
 90
5
 70
1
 10
111.4789283772979
 20
25.503368084342505
 10
109.73035331311371
 20
25.853083097179265
 10
110.78787686688642
 20
27.61562235346704
 10
111.8342290669762
 20
26.56927015337729
 10
111.4789283772979
 20
25.503368084342505
  0
LWPOLYLINE
  5
1D3
330
17
100
AcDbEntity
  8
ENG_K
100
AcDbPolyline
 90
4
 70
1
 10
109.63097823557393
 20
21.344497637197257
 10
109.63097823557393
 20
22.989788066859028
 10
110.45362345040502
 20
22.167142852028142
 10
109.63097823557393
 20
21.344497637197257
  0
LWPOLYLINE
  5
1D4
330
17
100
AcDbEntity
  8
ENG_K
100
AcDbPolyline
 90
5
 70
1
 10
109.92488657647637
 20
22.408090056941553
 10
108.5182758537898
 20
22.408090056941553
 10
107.82870717468721
 20
23.787227415146717
 10
109.5790455690604
 20
24.137295094021294
 10
109.92488657647637
 20
22.408090056941553
  0
LWPOLYLINE
  5
1D5
330
17
100
AcDbEntity
  8
ENG_K
100
AcDbPolyline
 90
5
 70
1
 10
109.46397784552765
 20
27.16882704625889
 10
109.0694563281644
 20
25.985262494169213
 10
107.38850657648675
 20
26.32145244450468
 10
107.78302809384998
 20
27.505016996594357
 10
109.46397784552765
 20
27.16882704625889
  0
LWPOLYLINE
  5
1D6
330
17
100
AcDbEntity
  8
ENG_K
100
AcDbPolyline
 90
5
 70
1
 10
108.63134360069155
 20
52.42119288151681
 10
107.39737577844492
 20
52.009870274101424
 10
106.77545759184274
 20
52.63178846070349
 10
108.00942541408936
 20
53.043111068118876
 10
108.63134360069155
 20
52.42119288151681
  0
LWPOLYLINE
  5
1D7
330
17
100
AcDbEntity
  8
ENG_K
100
AcDbPolyline
 90
4
 70
1
 10
107.56225699144481
 20
42.88860247457615
 10
106.73961177661374
 20
42.06595725974527
 10
106.73961177661374
 20
43.711247689407486
 10
107.56225699144481
 20
42.88860247457615
  0
LWPOLYLINE
  5
1D8
330
17
100
AcDbEntity
  8
ENG_K
100
AcDbPolyline
 90
6
 70
1
 10
106.99414852960591
 20
24.05063122597273
 10
105.9975545776485
 20
22.389641306043707
 10
105.36399954721765
 20
23.656751366905482
 10
104.28695629957097
 20
24.015765782787636
 10
106.66185095340894
 20
25.712119106957807
 10
106.99414852960591
 20
24.05063122597273
  0
LWPOLYLINE
  5
1D9
330
17
100
AcDbEntity
  8
ENG_K
100
AcDbPolyline
 90
5
 70
1
 10
105.18657902310031
 20
50.96060572580596
 10
103.45965711939495
 20
51.996758868029126
 10
104.00999926832974
 20
52.547101016964135
 10
105.60882256691406
 20
52.22733635724719
 10
105.18657902310031
 20
50.96060572580596
  0
LWPOLYLINE
  5
1DA
330
17
100
AcDbEntity
  8
ENG_K
100
AcDbPolyline
 90
6
 70
1
 10
100.14884954270217
 20
34.68178160868251
 10
99.17044482420889
 20
35.660186327175715
 10
99.65233923403558
 20
36.14208073700232
 10
101.29762966369778
 20
36.14208073700232
 10
102.4317938858533
 20
35.007916514846805
 10
100.14884954270217
 20
34.68178160868251
  0
LWPOLYLINE
  5
1DB
330
17
100
AcDbEntity
  8
ENG_K
100
AcDbPolyline
 90
4
 70
1
 10
101.88482186311782
 20
224.45749718964802
 10
100.47498444886665
 20
223.9875513848979
 10
100.47498444886665
 20
225.8673346038995
 10
101.88482186311782
 20
224.45749718964802
  0
LWPOLYLINE
  5
1DC
330
17
100
AcDbEntity
  8
ENG_K
100
AcDbPolyline
 90
4
 70
1
 10
101.29762966369772
 20
221.67142852028144
 10
100.47498444886665
 20
220.8487833054502
 10
100.47498444886665
 20
222.49407373511266
 10
101.29762966369772
 20
221.67142852028144
  0
LWPOLYLINE
  5
1DD
330
17
100
AcDbEntity
  8
ENG_K
100
AcDbPolyline
 90
5
 70
1
 10
99.78901009063257
 20
46.02091613844972
 10
97.67565163268912
 20
46.02091613844972
 10
98.34938328538946
 20
47.368379443850415
 10
99.4406238268021
 20
48.45961998526316
 10
99.78901009063257
 20
46.02091613844972
  0
LWPOLYLINE
  5
1DE
330
17
100
AcDbEntity
  8
ENG_K
100
AcDbPolyline
 90
4
 70
1
 10
98.54740680955987
 20
35.31943552217109
 10
98.54740680955987
 20
36.96472595183331
 10
99.37005202439093
 20
36.14208073700242
 10
98.54740680955987
 20
35.31943552217109
  0
LWPOLYLINE
  5
1DF
330
17
100
AcDbEntity
  8
ENG_K
100
AcDbPolyline
 90
4
 70
1
 10
98.88815761456425
 20
233.23689435612204
 10
98.06551239973317
 20
232.4142491412915
 10
98.06551239973317
 20
234.05953957095326
 10
98.88815761456425
 20
233.23689435612204
  0
LWPOLYLINE
  5
1E0
330
17
100
AcDbEntity
  8
ENG_K
100
AcDbPolyline
 90
5
 70
1
 10
98.99345540415753
 20
36.51867735723591
 10
97.75948758191092
 20
36.10735474982019
 10
97.13756939530882
 20
36.729272936422475
 10
98.37153721755541
 20
37.14059554383786
 10
98.99345540415753
 20
36.51867735723591
  0
LWPOLYLINE
  5
1E1
330
17
100
AcDbEntity
  8
ENG_K
100
AcDbPolyline
 90
4
 70
1
 10
95.99679115560409
 20
224.5627949792415
 10
95.17414594077297
 20
223.74014976441092
 10
95.17414594077297
 20
225.3854401940727
 10
95.99679115560409
 20
224.5627949792415
  0
LWPOLYLINE
  5
1E2
330
17
100
AcDbEntity
  8
ENG_K
100
AcDbPolyline
 90
4
 70
1
 10
91.80088507198609
 20
51.421558246634525
 10
92.62353028681717
 20
50.598913031803306
 10
91.80088507198609
 20
49.77626781697242
 10
91.80088507198609
 20
51.421558246634525
  0
LWPOLYLINE
  5
1E3
330
17
100
AcDbEntity
  8
ENG_K
100
AcDbPolyline
 90
5
 70
1
 10
90.11425463759264
 20
219.02100926623459
 10
90.11425463759264
 20
219.8436544810657
 10
90.7014468370127
 20
220.43084668048542
 10
91.17139264176295
 20
219.02100926623459
 10
90.11425463759264
 20
219.02100926623459
  0
LWPOLYLINE
  5
1E4
330
17
100
AcDbEntity
  8
ENG_K
100
AcDbPolyline
 90
5
 70
1
 10
90.11425463759264
 20
53.73122669567698
 10
90.11425463759264
 20
54.55387191050798
 10
90.70144683701264
 20
55.14106410992792
 10
91.17139264176295
 20
53.73122669567698
 10
90.11425463759264
 20
53.73122669567698
  0
LWPOLYLINE
  5
1E5
330
17
100
AcDbEntity
  8
ENG_K
100
AcDbPolyline
 90
4
 70
1
 10
90.69595264751037
 20
218.78006206132116
 10
89.8733074326793
 20
217.95741684649028
 10
89.8733074326793
 20
219.6027072761525
 10
90.69595264751037
 20
218.78006206132116
  0
LWPOLYLINE
  5
1E6
330
17
100
AcDbEntity
  8
ENG_K
100
AcDbPolyline
 90
5
 70
1
 10
90.64911018340842
 20
54.695015515330404
 10
89.72439387054857
 20
54.695015515330404
 10
89.05166088700949
 20
56.04048148240848
 10
90.29699473355633
 20
56.45559276459089
 10
90.64911018340842
 20
54.695015515330404
  0
LWPOLYLINE
  5
1E7
330
17
100
AcDbEntity
  8
ENG_K
100
AcDbPolyline
 90
4
 70
1
 10
88.90951861302588
 20
55.55900073489284
 10
88.90951861302588
 20
57.204291164554945
 10
89.73216382785698
 20
56.381645949723726
 10
88.90951861302588
 20
55.55900073489284
  0
LWPOLYLINE
  5
1E8
330
17
100
AcDbEntity
  8
ENG_K
100
AcDbPolyline
 90
5
 70
1
 10
86.82018702304286
 20
57.847939525057626
 10
87.47066572782259
 20
57.1974608202781
 10
85.6980116949152
 20
56.842930013696446
 10
85.04753299013555
 20
57.4934087184763
 10
86.82018702304286
 20
57.847939525057626
  0
LWPOLYLINE
  5
1E9
330
17
100
AcDbEntity
  8
ENG_K
100
AcDbPolyline
 90
10
 70
1
 10
73.22061735230311
 20
17.829510909826098
 10
71.13361655640097
 20
18.351261108801697
 10
70.74089459943801
 20
19.529426979690623
 10
77.68847062618721
 20
19.2721093490702
 10
78.14608764616231
 20
18.814492329095156
 10
80.55555969529581
 20
19.296386738921868
 10
81.06325707704187
 20
18.788689357175702
 10
86.7440880738378
 20
18.489698252081244
 10
86.73757192433408
 20
18.094549234767943
 10
73.22061735230311
 20
17.829510909826098
  0
LWPOLYLINE
  5
1EA
330
17
100
AcDbEntity
  8
ENG_K
100
AcDbPolyline
 90
9
 70
1
 10
86.10944092281254
 20
57.7644095842692
 10
84.2854212601348
 20
57.156403030043215
 10
82.86701350742146
 20
52.42837718766546
 10
81.60353046030832
 20
50.32257210914359
 10
81.92758874983484
 20
54.535329872988484
 10
82.84874338648488
 20
55.91706182796352
 10
82.35171624055243
 20
56.91111611982846
 10
84.29417141167544
 20
58.853571290951365
 10
86.10944092281254
 20
57.7644095842692
  0
LWPOLYLINE
  5
1EB
330
17
100
AcDbEntity
  8
ENG_K
100
AcDbPolyline
 90
5
 70
1
 10
84.33152171967225
 20
27.70892856503526
 10
84.33152171967225
 20
29.569223918916588
 10
85.5889707412478
 20
29.988373592775286
 10
85.26333573728495
 20
27.70892856503526
 10
84.33152171967225
 20
27.70892856503526
  0
LWPOLYLINE
  5
1EC
330
17
100
AcDbEntity
  8
ENG_K
100
AcDbPolyline
 90
4
 70
1
 10
84.5724689245856
 20
31.181993033913223
 10
85.39511413941669
 20
30.359347819082004
 10
84.5724689245856
 20
29.53670260425112
 10
84.5724689245856
 20
31.181993033913223
  0
LWPOLYLINE
  5
1ED
330
17
100
AcDbEntity
  8
ENG_K
100
AcDbPolyline
 90
5
 70
1
 10
83.36773290001886
 20
24.194524091425862
 10
83.95492509943881
 20
24.781716290846024
 10
84.42487090418919
 20
23.371878876594977
 10
83.36773290001886
 20
23.371878876594977
 10
83.36773290001886
 20
24.194524091425862
  0
LWPOLYLINE
  5
1EE
330
17
100
AcDbEntity
  8
ENG_K
100
AcDbPolyline
 90
4
 70
1
 10
82.50374768045648
 20
19.757670802894587
 10
81.68110246562541
 20
18.935025588063702
 10
81.68110246562541
 20
20.58031601772592
 10
82.50374768045648
 20
19.757670802894587
  0
LWPOLYLINE
  5
1EF
330
17
100
AcDbEntity
  8
ENG_K
100
AcDbPolyline
 90
5
 70
1
 10
80.95826085088537
 20
51.180611041721
 10
81.58812920981113
 20
51.81047940064698
 10
81.97501080652785
 20
49.87607141706341
 10
80.95826085088537
 20
49.87607141706341
 10
80.95826085088537
 20
51.180611041721
  0
LWPOLYLINE
  5
1F0
330
17
100
AcDbEntity
  8
ENG_K
100
AcDbPolyline
 90
5
 70
1
 10
81.68793280990218
 20
32.62084591911629
 10
79.91527877699487
 20
32.26631511253497
 10
79.26480007221514
 20
32.91679381731449
 10
81.03745410512253
 20
33.27132462389615
 10
81.68793280990218
 20
32.62084591911629
  0
LWPOLYLINE
  5
1F1
330
17
100
AcDbEntity
  8
ENG_K
100
AcDbPolyline
 90
5
 70
1
 10
81.10623479998445
 20
50.364796171166624
 10
81.49311639670115
 20
48.430388187583276
 10
80.47636644105867
 20
48.430388187583276
 10
80.47636644105867
 20
49.73492781224098
 10
81.10623479998445
 20
50.364796171166624
  0
LWPOLYLINE
  5
1F2
330
17
100
AcDbEntity
  8
ENG_K
100
AcDbPolyline
 90
7
 70
1
 10
80.47636644105869
 20
45.53902172862312
 10
79.51257762140527
 20
45.53902172862312
 10
79.51257762140527
 20
47.292390675176655
 10
80.59040803794612
 20
49.088774702744644
 10
80.97887119673923
 20
47.14645890877922
 10
80.47636644105869
 20
46.64395415309875
 10
80.47636644105869
 20
45.53902172862312
  0
LWPOLYLINE
  5
1F3
330
17
100
AcDbEntity
  8
ENG_K
100
AcDbPolyline
 90
4
 70
1
 10
79.75352482631861
 20
30.01859701407783
 10
79.75352482631861
 20
31.663887443739604
 10
80.57617004114972
 20
30.841242228908715
 10
79.75352482631861
 20
30.01859701407783
  0
LWPOLYLINE
  5
1F4
330
17
100
AcDbEntity
  8
ENG_K
100
AcDbPolyline
 90
4
 70
1
 10
79.27163041649192
 20
43.02974607939869
 10
79.27163041649192
 20
44.67503650906046
 10
80.09427563132303
 20
43.85239129422958
 10
79.27163041649192
 20
43.02974607939869
  0
LWPOLYLINE
  5
1F5
330
17
100
AcDbEntity
  8
ENG_K
100
AcDbPolyline
 90
5
 70
1
 10
79.03068321157856
 20
44.575232908969696
 10
79.03068321157856
 20
45.397878123800695
 10
79.61787541099858
 20
45.98507032322063
 10
80.0878212157489
 20
44.575232908969696
 10
79.03068321157856
 20
44.575232908969696
  0
LWPOLYLINE
  5
1F6
330
17
100
AcDbEntity
  8
ENG_K
100
AcDbPolyline
 90
4
 70
1
 10
79.61238122149629
 20
44.334285704056285
 10
78.78973600666522
 20
43.51164048922496
 10
78.78973600666522
 20
45.15693091888717
 10
79.61238122149629
 20
44.334285704056285
  0
LWPOLYLINE
  5
1F7
330
17
100
AcDbEntity
  8
ENG_K
100
AcDbPolyline
 90
4
 70
1
 10
78.78973600666522
 20
44.193142099234194
 10
79.61238122149629
 20
43.37049688440287
 10
78.78973600666522
 20
42.547851669571976
 10
78.78973600666522
 20
44.193142099234194
  0
LWPOLYLINE
  5
1F8
330
17
100
AcDbEntity
  8
ENG_K
100
AcDbPolyline
 90
5
 70
1
 10
77.4146245795963
 20
37.79947937371608
 10
77.08848967343187
 20
40.0824237168671
 10
78.23726979442736
 20
41.231203837862495
 10
78.56340470059179
 20
38.94825949471148
 10
77.4146245795963
 20
37.79947937371608
  0
LWPOLYLINE
  5
1F9
330
17
100
AcDbEntity
  8
ENG_K
100
AcDbPolyline
 90
4
 70
1
 10
77.34405277718511
 20
36.765118751651556
 10
77.34405277718511
 20
38.41040918131367
 10
78.16669799201621
 20
37.58776396648245
 10
77.34405277718511
 20
36.765118751651556
  0
LWPOLYLINE
  5
1FA
330
17
100
AcDbEntity
  8
ENG_K
100
AcDbPolyline
 90
4
 70
1
 10
76.86215836735842
 20
24.917365706166095
 10
77.68480358218952
 20
24.094720491334876
 10
76.86215836735842
 20
23.27207527650399
 10
76.86215836735842
 20
24.917365706166095
  0
LWPOLYLINE
  5
1FB
330
17
100
AcDbEntity
  8
ENG_K
100
AcDbPolyline
 90
5
 70
1
 10
77.25107952137085
 20
23.860603630698307
 10
77.63796111808756
 20
21.926195647114845
 10
76.13931675261838
 20
21.926195647114845
 10
76.13931675261838
 20
22.74884086194584
 10
77.25107952137085
 20
23.860603630698307
  0
LWPOLYLINE
  5
1FC
330
17
100
AcDbEntity
  8
ENG_K
100
AcDbPolyline
 90
11
 70
1
 10
75.19284432785525
 20
33.349641814004904
 10
76.13931675261838
 20
34.769350451149705
 10
76.13931675261838
 20
36.24188433709341
 10
77.25107952137085
 20
37.35364710584588
 10
77.5965340384385
 20
35.62637452050765
 10
76.64965112211914
 20
33.73260868786887
 10
77.15533341208481
 20
32.72124410793742
 10
75.63404179489524
 20
31.19995249074792
 10
75.12270662083709
 20
29.154611794515283
 10
74.14408682298283
 20
29.154611794515283
 10
75.19284432785525
 20
33.349641814004904
  0
LWPOLYLINE
  5
1FD
330
17
100
AcDbEntity
  8
ENG_K
100
AcDbPolyline
 90
5
 70
1
 10
73.72984470348489
 20
29.01346818969286
 10
74.35971306241065
 20
29.643336548618837
 10
74.74659465912737
 20
27.70892856503526
 10
73.72984470348489
 20
27.70892856503526
 10
73.72984470348489
 20
29.01346818969286
  0
LWPOLYLINE
  5
1FE
330
17
100
AcDbEntity
  8
ENG_K
100
AcDbPolyline
 90
7
 70
1
 10
73.7298447034849
 20
23.54608756934806
 10
72.4592647890801
 20
21.428454378673244
 10
72.77045957204581
 20
26.09637612315907
 10
73.8723951078702
 20
27.932935349533004
 10
74.2263550121515
 20
25.45521601956391
 10
73.7298447034849
 20
24.958705710897313
 10
73.7298447034849
 20
23.54608756934806
  0
LWPOLYLINE
  5
1FF
330
17
100
AcDbEntity
  8
ENG_K
100
AcDbPolyline
 90
5
 70
1
 10
72.38945926359807
 20
22.854138651539067
 10
72.85940506834842
 20
21.444301237288133
 10
71.8022670641781
 20
21.444301237288133
 10
71.8022670641781
 20
22.26694645211913
 10
72.38945926359807
 20
22.854138651539067
  0
LWPOLYLINE
  5
200
330
17
100
AcDbEntity
  8
CUT_SLOT
100
AcDbPolyline
 90
5
 70
1
 10
119.69226137285564
 20
0.0
 10
123.2563629879934
 20
0.0
 10
123.2563629879934
 20
144.56832294800958
 10
119.69226137285564
 20
144.56832294800958
 10
119.69226137285564
 20
0.0
  0
LWPOLYLINE
  5
201
330
17
100
AcDbEntity
  8
CUT_SLOT
100
AcDbPolyline
 90
5
 70
1
 10
142.7862721404407
 20
0.0
 10
146.35037375557846
 20
0.0
 10
146.35037375557846
 20
144.56832294800958
 10
142.7862721404407
 20
144.56832294800958
 10
142.7862721404407
 20
0.0
  0
LWPOLYLINE
  5
202
330
17
100
AcDbEntity
  8
CUT_SLOT
100
AcDbPolyline
 90
5
 70
1
 10
165.88028290802572
 20
0.0
 10
169.44438452316348
 20
0.0
 10
169.44438452316348
 20
144.56832294800958
 10
165.88028290802572
 20
144.56832294800958
 10
165.88028290802572
 20
0.0
  0
LWPOLYLINE
  5
203
330
17
100
AcDbEntity
  8
CUT_SLOT
100
AcDbPolyline
 90
5
 70
1
 10
188.97429367561074
 20
0.0
 10
192.5383952907485
 20
0.0
 10
192.5383952907485
 20
144.56832294800958
 10
188.97429367561074
 20
144.56832294800958
 10
188.97429367561074
 20
0.0
  0
LWPOLYLINE
  5
204
330
17
100
AcDbEntity
  8
CUT_SLOT
100
AcDbPolyline
 90
5
 70
1
 10
212.06830444319579
 20
0.0
 10
215.63240605833357
 20
0.0
 10
215.63240605833357
 20
144.56832294800958
 10
212.06830444319579
 20
144.56832294800958
 10
212.06830444319579
 20
0.0
  0
LWPOLYLINE
  5
205
330
17
100
AcDbEntity
  8
CUT_SLOT
100
AcDbPolyline
 90
5
 70
1
 10
73.50423983768557
 20
144.56832294800958
 10
77.06834145282333
 20
144.56832294800958
 10
77.06834145282333
 20
289.13664589601916
 10
73.50423983768557
 20
289.13664589601916
 10
73.50423983768557
 20
144.56832294800958
  0
LWPOLYLINE
  5
206
330
17
100
AcDbEntity
  8
CUT_SLOT
100
AcDbPolyline
 90
5
 70
1
 10
96.59825060527062
 20
144.56832294800958
 10
100.16235222040838
 20
144.56832294800958
 10
100.16235222040838
 20
289.13664589601916
 10
96.59825060527062
 20
289.13664589601916
 10
96.59825060527062
 20
144.56832294800958
  0
LWPOLYLINE
  5
207
330
17
100
AcDbEntity
  8
CUT_SLOT
100
AcDbPolyline
 90
5
 70
1
 10
119.69226137285565
 20
144.56832294800958
 10
123.25636298799341
 20
144.56832294800958
 10
123.25636298799341
 20
289.13664589601916
 10
119.69226137285565
 20
289.13664589601916
 10
119.69226137285565
 20
144.56832294800958
  0
LWPOLYLINE
  5
208
330
17
100
AcDbEntity
  8
CUT_SLOT
100
AcDbPolyline
 90
5
 70
1
 10
142.78627214044064
 20
144.56832294800958
 10
146.3503737555784
 20
144.56832294800958
 10
146.3503737555784
 20
289.13664589601916
 10
142.78627214044064
 20
289.13664589601916
 10
142.78627214044064
 20
144.56832294800958
  0
LWPOLYLINE
  5
209
330
17
100
AcDbEntity
  8
CUT_SLOT
100
AcDbPolyline
 90
5
 70
1
 10
165.88028290802572
 20
144.56832294800958
 10
169.44438452316348
 20
144.56832294800958
 10
169.44438452316348
 20
289.13664589601916
 10
165.88028290802572
 20
289.13664589601916
 10
165.88028290802572
 20
144.56832294800958
  0
LWPOLYLINE
  5
20A
330
17
100
AcDbEntity
  8
CUT_OUTLINE
100
AcDbPolyline
 90
5
 70
1
 10
0.0
 20
0.0
 10
289.13664589601916
 20
0.0
 10
289.13664589601916
 20
289.13664589601916
 10
0.0
 20
289.13664589601916
 10
0.0
 20
0.0
  0
ENDSEC
  0
SECTION
  2
OBJECTS
  0
DICTIONARY
  5
A
330
0
100
AcDbDictionary
281
1
  3
ACAD_COLOR
350
B
  3
ACAD_GROUP
350
C
  3
ACAD_LAYOUT
350
D
  3
ACAD_MATERIAL
350
E
  3
ACAD_MLEADERSTYLE
350
F
  3
ACAD_MLINESTYLE
350
10
  3
ACAD_PLOTSETTINGS
350
11
  3
ACAD_PLOTSTYLENAME
350
12
  3
ACAD_SCALELIST
350
14
  3
ACAD_TABLESTYLE
350
15
  3
ACAD_VISUALSTYLE
350
16
  3
EZDXF_META
350
2D
  0
DICTIONARY
  5
B
330
A
100
AcDbDictionary
281
1
  0
DICTIONARY
  5
C
330
A
100
AcDbDictionary
281
1
  0
DICTIONARY
  5
D
330
A
100
AcDbDictionary
281
1
  3
Model
350
1A
  3
Layout1
350
1E
  0
DICTIONARY
  5
E
330
A
100
AcDbDictionary
281
1
  3
ByBlock
350
1F
  3
ByLayer
350
20
  3
Global
350
21
  0
DICTIONARY
  5
F
330
A
100
AcDbDictionary
281
1
  3
Standard
350
2C
  0
DICTIONARY
  5
10
330
A
100
AcDbDictionary
281
1
  3
Standard
350
22
  0
DICTIONARY
  5
11
330
A
100
AcDbDictionary
281
1
  0
ACDBDICTIONARYWDFLT
  5
12
330
A
100
AcDbDictionary
281
1
  3
Normal
350
13
100
AcDbDictionaryWithDefault
340
13
  0
ACDBPLACEHOLDER
  5
13
330
12
  0
DICTIONARY
  5
14
330
A
100
AcDbDictionary
281
1
  0
DICTIONARY
  5
15
330
A
100
AcDbDictionary
281
1
  0
DICTIONARY
  5
16
330
A
100
AcDbDictionary
281
1
  0
LAYOUT
  5
1A
330
D
100
AcDbPlotSettings
  1

  4
A3
  6

 40
7.5
 41
20.0
 42
7.5
 43
20.0
 44
420.0
 45
297.0
 46
0.0
 47
0.0
 48
0.0
 49
0.0
140
0.0
141
0.0
142
1.0
143
1.0
 70
1024
 72
1
 73
0
 74
5
  7

 75
16
 76
0
 77
2
 78
300
147
1.0
148
0.0
149
0.0
100
AcDbLayout
  1
Model
 70
1
 71
0
 10
0.0
 20
0.0
 11
420.0
 21
297.0
 12
0.0
 22
0.0
 32
0.0
 14
1e+20
 24
1e+20
 34
1e+20
 15
-1e+20
 25
-1e+20
 35
-1e+20
146
0.0
 13
0.0
 23
0.0
 33
0.0
 16
1.0
 26
0.0
 36
0.0
 17
0.0
 27
1.0
 37
0.0
 76
1
330
17
  0
LAYOUT
  5
1E
330
D
100
AcDbPlotSettings
  1

  4
A3
  6

 40
7.5
 41
20.0
 42
7.5
 43
20.0
 44
420.0
 45
297.0
 46
0.0
 47
0.0
 48
0.0
 49
0.0
140
0.0
141
0.0
142
1.0
143
1.0
 70
0
 72
1
 73
0
 74
5
  7

 75
16
 76
0
 77
2
 78
300
147
1.0
148
0.0
149
0.0
100
AcDbLayout
  1
Layout1
 70
1
 71
1
 10
0.0
 20
0.0
 11
420.0
 21
297.0
 12
0.0
 22
0.0
 32
0.0
 14
1e+20
 24
1e+20
 34
1e+20
 15
-1e+20
 25
-1e+20
 35
-1e+20
146
0.0
 13
0.0
 23
0.0
 33
0.0
 16
1.0
 26
0.0
 36
0.0
 17
0.0
 27
1.0
 37
0.0
 76
1
330
1B
  0
MATERIAL
  5
1F
102
{ACAD_REACTORS
330
E
102
}
330
E
100
AcDbMaterial
  1
ByBlock
  2

 70
0
 40
1.0
 71
1
 41
1.0
 91
-1023410177
 42
1.0
 72
1
  3

 73
1
 74
1
 75
1
 44
0.5
 73
0
 45
1.0
 46
1.0
 77
1
  4

 78
1
 79
1
170
1
 48
1.0
171
1
  6

172
1
173
1
174
1
140
1.0
141
1.0
175
1
  7

176
1
177
1
178
1
143
1.0
179
1
  8

270
1
271
1
272
1
145
1.0
146
1.0
273
1
  9

274
1
275
1
276
1
 42
1.0
 72
1
  3

 73
1
 74
1
 75
1
 94
63
  0
MATERIAL
  5
20
102
{ACAD_REACTORS
330
E
102
}
330
E
100
AcDbMaterial
  1
ByLayer
  2

 70
0
 40
1.0
 71
1
 41
1.0
 91
-1023410177
 42
1.0
 72
1
  3

 73
1
 74
1
 75
1
 44
0.5
 73
0
 45
1.0
 46
1.0
 77
1
  4

 78
1
 79
1
170
1
 48
1.0
171
1
  6

172
1
173
1
174
1
140
1.0
141
1.0
175
1
  7

176
1
177
1
178
1
143
1.0
179
1
  8

270
1
271
1
272
1
145
1.0
146
1.0
273
1
  9

274
1
275
1
276
1
 42
1.0
 72
1
  3

 73
1
 74
1
 75
1
 94
63
  0
MATERIAL
  5
21
102
{ACAD_REACTORS
330
E
102
}
330
E
100
AcDbMaterial
  1
Global
  2

 70
0
 40
1.0
 71
1
 41
1.0
 91
-1023410177
 42
1.0
 72
1
  3

 73
1
 74
1
 75
1
 44
0.5
 73
0
 45
1.0
 46
1.0
 77
1
  4

 78
1
 79
1
170
1
 48
1.0
171
1
  6

172
1
173
1
174
1
140
1.0
141
1.0
175
1
  7

176
1
177
1
178
1
143
1.0
179
1
  8

270
1
271
1
272
1
145
1.0
146
1.0
273
1
  9

274
1
275
1
276
1
 42
1.0
 72
1
  3

 73
1
 74
1
 75
1
 94
63
  0
MLINESTYLE
  5
22
102
{ACAD_REACTORS
330
10
102
}
330
10
100
AcDbMlineStyle
  2
Standard
 70
0
  3

 62
256
 51
90.0
 52
90.0
 71
2
 49
0.5
 62
256
  6
BYLAYER
 49
-0.5
 62
256
  6
BYLAYER
  0
MLEADERSTYLE
  5
2C
102
{ACAD_REACTORS
330
F
102
}
330
F
100
AcDbMLeaderStyle
179
2
170
2
171
1
172
0
 90
2
 40
0.0
 41
0.0
173
1
 91
-1056964608
 92
-2
290
1
 42
2.0
291
1
 43
8.0
  3
Standard
 44
4.0
300

342
29
174
1
175
1
176
0
178
1
 93
-1056964608
 45
4.0
292
0
297
0
 46
4.0
 94
-1056964608
 47
1.0
 49
1.0
140
1.0
294
1
141
0.0
177
0
142
1.0
295
0
296
0
143
3.75
271
0
272
9
273
9
  0
DICTIONARY
  5
2D
330
A
100
AcDbDictionary
280
1
281
1
  3
CREATED_BY_EZDXF
350
2E
  3
WRITTEN_BY_EZDXF
350
20D
  0
DICTIONARYVAR
  5
2E
330
2D
100
DictionaryVariables
280
0
  1
1.4.4 @ 2026-08-03T11:55:52.958968+00:00
  0
DICTIONARYVAR
  5
20D
330
2D
100
DictionaryVariables
280
0
  1
1.4.4 @ 2026-08-03T11:55:53.023679+00:00
  0
ENDSEC
  0
EOF
