  0
SECTION
  2
HEADER
  9
$ACADVER
  1
AC1027
  9
$ACADMAINTVER
 70
105
  9
$DWGCODEPAGE
  3
ANSI_1252
  9
$LASTSAVEDBY
  1
ezdxf
  9
$REQUIREDVERSIONS
160
0
  9
$INSBASE
 10
0.0
 20
0.0
 30
0.0
  9
$EXTMIN
 10
1e+20
 20
1e+20
 30
1e+20
  9
$EXTMAX
 10
-1e+20
 20
-1e+20
 30
-1e+20
  9
$LIMMIN
 10
0.0
 20
0.0
  9
$LIMMAX
 10
420.0
 20
297.0
  9
$ORTHOMODE
 70
0
  9
$REGENMODE
 70
1
  9
$FILLMODE
 70
1
  9
$QTEXTMODE
 70
0
  9
$MIRRTEXT
 70
1
  9
$LTSCALE
 40
1.0
  9
$ATTMODE
 70
1
  9
$TEXTSIZE
 40
2.5
  9
$TRACEWID
 40
1.0
  9
$TEXTSTYLE
  7
Standard
  9
$CLAYER
  8
0
  9
$CELTYPE
  6
ByLayer
  9
$CECOLOR
 62
256
  9
$CELTSCALE
 40
1.0
  9
$DISPSILH
 70
0
  9
$DIMSCALE
 40
1.0
  9
$DIMASZ
 40
2.5
  9
$DIMEXO
 40
0.625
  9
$DIMDLI
 40
3.75
  9
$DIMRND
 40
0.0
  9
$DIMDLE
 40
0.0
  9
$DIMEXE
 40
1.25
  9
$DIMTP
 40
0.0
  9
$DIMTM
 40
0.0
  9
$DIMTXT
 40
2.5
  9
$DIMCEN
 40
2.5
  9
$DIMTSZ
 40
0.0
  9
$DIMTOL
 70
0
  9
$DIMLIM
 70
0
  9
$DIMTIH
 70
0
  9
$DIMTOH
 70
0
  9
$DIMSE1
 70
0
  9
$DIMSE2
 70
0
  9
$DIMTAD
 70
1
  9
$DIMZIN
 70
8
  9
$DIMBLK
  1

  9
$DIMASO
 70
1
  9
$DIMSHO
 70
1
  9
$DIMPOST
  1

  9
$DIMAPOST
  1

  9
$DIMALT
 70
0
  9
$DIMALTD
 70
3
  9
$DIMALTF
 40
0.03937007874
  9
$DIMLFAC
 40
1.0
  9
$DIMTOFL
 70
1
  9
$DIMTVP
 40
0.0
  9
$DIMTIX
 70
0
  9
$DIMSOXD
 70
0
  9
$DIMSAH
 70
0
  9
$DIMBLK1
  1

  9
$DIMBLK2
  1

  9
$DIMSTYLE
  2
ISO-25
  9
$DIMCLRD
 70
0
  9
$DIMCLRE
 70
0
  9
$DIMCLRT
 70
0
  9
$DIMTFAC
 40
1.0
  9
$DIMGAP
 40
0.625
  9
$DIMJUST
 70
0
  9
$DIMSD1
 70
0
  9
$DIMSD2
 70
0
  9
$DIMTOLJ
 70
0
  9
$DIMTZIN
 70
8
  9
$DIMALTZ
 70
0
  9
$DIMALTTZ
 70
0
  9
$DIMUPT
 70
0
  9
$DIMDEC
 70
2
  9
$DIMTDEC
 70
2
  9
$DIMALTU
 70
2
  9
$DIMALTTD
 70
3
  9
$DIMTXSTY
  7
Standard
  9
$DIMAUNIT
 70
0
  9
$DIMADEC
 70
0
  9
$DIMALTRND
 40
0.0
  9
$DIMAZIN
 70
0
  9
$DIMDSEP
 70
44
  9
$DIMATFIT
 70
3
  9
$DIMFRAC
 70
0
  9
$DIMLDRBLK
  1

  9
$DIMLUNIT
 70
2
  9
$DIMLWD
 70
-2
  9
$DIMLWE
 70
-2
  9
$DIMTMOVE
 70
0
  9
$DIMFXL
 40
1.0
  9
$DIMFXLON
 70
0
  9
$DIMJOGANG
 40
0.785398163397
  9
$DIMTFILL
 70
0
  9
$DIMTFILLCLR
 70
0
  9
$DIMARCSYM
 70
0
  9
$DIMLTYPE
  6

  9
$DIMLTEX1
  6

  9
$DIMLTEX2
  6

  9
$DIMTXTDIRECTION
 70
0
  9
$LUNITS
 70
2
  9
$LUPREC
 70
4
  9
$SKETCHINC
 40
1.0
  9
$FILLETRAD
 40
10.0
  9
$AUNITS
 70
0
  9
$AUPREC
 70
2
  9
$MENU
  1
.
  9
$ELEVATION
 40
0.0
  9
$PELEVATION
 40
0.0
  9
$THICKNESS
 40
0.0
  9
$LIMCHECK
 70
0
  9
$CHAMFERA
 40
0.0
  9
$CHAMFERB
 40
0.0
  9
$CHAMFERC
 40
0.0
  9
$CHAMFERD
 40
0.0
  9
$SKPOLY
 70
0
  9
$TDCREATE
 40
2461256.622152778
  9
$TDUCREATE
 40
2458532.153996898
  9
$TDUPDATE
 40
2461256.622152778
  9
$TDUUPDATE
 40
2458532.1544311
  9
$TDINDWG
 40
0.0
  9
$TDUSRTIMER
 40
0.0
  9
$USRTIMER
 70
1
  9
$ANGBASE
 50
0.0
  9
$ANGDIR
 70
0
  9
$PDMODE
 70
0
  9
$PDSIZE
 40
0.0
  9
$PLINEWID
 40
0.0
  9
$SPLFRAME
 70
0
  9
$SPLINETYPE
 70
6
  9
$SPLINESEGS
 70
8
  9
$HANDSEED
  5
113
  9
$SURFTAB1
 70
6
  9
$SURFTAB2
 70
6
  9
$SURFTYPE
 70
6
  9
$SURFU
 70
6
  9
$SURFV
 70
6
  9
$UCSBASE
  2

  9
$UCSNAME
  2

  9
$UCSORG
 10
0.0
 20
0.0
 30
0.0
  9
$UCSXDIR
 10
1.0
 20
0.0
 30
0.0
  9
$UCSYDIR
 10
0.0
 20
1.0
 30
0.0
  9
$UCSORTHOREF
  2

  9
$UCSORTHOVIEW
 70
0
  9
$UCSORGTOP
 10
0.0
 20
0.0
 30
0.0
  9
$UCSORGBOTTOM
 10
0.0
 20
0.0
 30
0.0
  9
$UCSORGLEFT
 10
0.0
 20
0.0
 30
0.0
  9
$UCSORGRIGHT
 10
0.0
 20
0.0
 30
0.0
  9
$UCSORGFRONT
 10
0.0
 20
0.0
 30
0.0
  9
$UCSORGBACK
 10
0.0
 20
0.0
 30
0.0
  9
$PUCSBASE
  2

  9
$PUCSNAME
  2

  9
$PUCSORG
 10
0.0
 20
0.0
 30
0.0
  9
$PUCSXDIR
 10
1.0
 20
0.0
 30
0.0
  9
$PUCSYDIR
 10
0.0
 20
1.0
 30
0.0
  9
$PUCSORTHOREF
  2

  9
$PUCSORTHOVIEW
 70
0
  9
$PUCSORGTOP
 10
0.0
 20
0.0
 30
0.0
  9
$PUCSORGBOTTOM
 10
0.0
 20
0.0
 30
0.0
  9
$PUCSORGLEFT
 10
0.0
 20
0.0
 30
0.0
  9
$PUCSORGRIGHT
 10
0.0
 20
0.0
 30
0.0
  9
$PUCSORGFRONT
 10
0.0
 20
0.0
 30
0.0
  9
$PUCSORGBACK
 10
0.0
 20
0.0
 30
0.0
  9
$USERI1
 70
0
  9
$USERI2
 70
0
  9
$USERI3
 70
0
  9
$USERI4
 70
0
  9
$USERI5
 70
0
  9
$USERR1
 40
0.0
  9
$USERR2
 40
0.0
  9
$USERR3
 40
0.0
  9
$USERR4
 40
0.0
  9
$USERR5
 40
0.0
  9
$WORLDVIEW
 70
1
  9
$SHADEDGE
 70
3
  9
$SHADEDIF
 70
70
  9
$TILEMODE
 70
1
  9
$MAXACTVP
 70
64
  9
$PINSBASE
 10
0.0
 20
0.0
 30
0.0
  9
$PLIMCHECK
 70
0
  9
$PEXTMIN
 10
1e+20
 20
1e+20
 30
1e+20
  9
$PEXTMAX
 10
-1e+20
 20
-1e+20
 30
-1e+20
  9
$PLIMMIN
 10
0.0
 20
0.0
  9
$PLIMMAX
 10
420.0
 20
297.0
  9
$UNITMODE
 70
0
  9
$VISRETAIN
 70
1
  9
$PLINEGEN
 70
0
  9
$PSLTSCALE
 70
1
  9
$TREEDEPTH
 70
3020
  9
$CMLSTYLE
  2
Standard
  9
$CMLJUST
 70
0
  9
$CMLSCALE
 40
20.0
  9
$PROXYGRAPHICS
 70
1
  9
$MEASUREMENT
 70
1
  9
$CELWEIGHT
370
-1
  9
$ENDCAPS
280
0
  9
$JOINSTYLE
280
0
  9
$LWDISPLAY
290
0
  9
$INSUNITS
 70
4
  9
$HYPERLINKBASE
  1

  9
$STYLESHEET
  1

  9
$XEDIT
290
1
  9
$CEPSNTYPE
380
0
  9
$PSTYLEMODE
290
1
  9
$FINGERPRINTGUID
  2
{6D6274C4-024B-48CD-BE7A-85C3F78B2FFC}
  9
$VERSIONGUID
  2
{178C102B-5EFD-490D-9A61-C0C90D565E33}
  9
$EXTNAMES
290
1
  9
$PSVPSCALE
 40
0.0
  9
$OLESTARTUP
290
0
  9
$SORTENTS
280
127
  9
$INDEXCTL
280
0
  9
$HIDETEXT
280
1
  9
$XCLIPFRAME
280
1
  9
$HALOGAP
280
0
  9
$OBSCOLOR
 70
257
  9
$OBSLTYPE
280
0
  9
$INTERSECTIONDISPLAY
280
0
  9
$INTERSECTIONCOLOR
 70
257
  9
$DIMASSOC
280
2
  9
$PROJECTNAME
  1

  9
$CAMERADISPLAY
290
0
  9
$LENSLENGTH
 40
50.0
  9
$CAMERAHEIGHT
 40
0.0
  9
$STEPSPERSEC
 40
24.0
  9
$STEPSIZE
 40
100.0
  9
$3DDWFPREC
 40
2.0
  9
$PSOLWIDTH
 40
0.005
  9
$PSOLHEIGHT
 40
0.08
  9
$LOFTANG1
 40
1.570796326795
  9
$LOFTANG2
 40
1.570796326795
  9
$LOFTMAG1
 40
0.0
  9
$LOFTMAG2
 40
0.0
  9
$LOFTPARAM
 70
7
  9
$LOFTNORMALS
280
1
  9
$LATITUDE
 40
37.795
  9
$LONGITUDE
 40
-122.394
  9
$NORTHDIRECTION
 40
0.0
  9
$TIMEZONE
 70
-8000
  9
$LIGHTGLYPHDISPLAY
280
1
  9
$TILEMODELIGHTSYNCH
280
1
  9
$CMATERIAL
347
20
  9
$SOLIDHIST
280
0
  9
$SHOWHIST
280
1
  9
$DWFFRAME
280
2
  9
$DGNFRAME
280
2
  9
$REALWORLDSCALE
290
1
  9
$INTERFERECOLOR
 62
256
  9
$CSHADOW
280
0
  9
$SHADOWPLANELOCATION
 40
0.0
  0
ENDSEC
  0
SECTION
  2
CLASSES
  0
CLASS
  1
ACDBDICTIONARYWDFLT
  2
AcDbDictionaryWithDefault
  3
ObjectDBX Classes
 90
0
 91
0
280
0
281
0
  0
CLASS
  1
SUN
  2
AcDbSun
  3
SCENEOE
 90
1153
 91
0
280
0
281
0
  0
CLASS
  1
VISUALSTYLE
  2
AcDbVisualStyle
  3
ObjectDBX Classes
 90
4095
 91
0
280
0
281
0
  0
CLASS
  1
MATERIAL
  2
AcDbMaterial
  3
ObjectDBX Classes
 90
1153
 91
0
280
0
281
0
  0
CLASS
  1
SCALE
  2
AcDbScale
  3
ObjectDBX Classes
 90
1153
 91
0
280
0
281
0
  0
CLASS
  1
TABLESTYLE
  2
AcDbTableStyle
  3
ObjectDBX Classes
 90
4095
 91
0
280
0
281
0
  0
CLASS
  1
MLEADERSTYLE
  2
AcDbMLeaderStyle
  3
ACDB_MLEADERSTYLE_CLASS
 90
4095
 91
0
280
0
281
0
  0
CLASS
  1
DICTIONARYVAR
  2
AcDbDictionaryVar
  3
ObjectDBX Classes
 90
0
 91
0
280
0
281
0
  0
CLASS
  1
CELLSTYLEMAP
  2
AcDbCellStyleMap
  3
ObjectDBX Classes
 90
1152
 91
0
280
0
281
0
  0
CLASS
  1
MENTALRAYRENDERSETTINGS
  2
AcDbMentalRayRenderSettings
  3
SCENEOE
 90
1024
 91
0
280
0
281
0
  0
CLASS
  1
ACDBDETAILVIEWSTYLE
  2
AcDbDetailViewStyle
  3
ObjectDBX Classes
 90
1025
 91
0
280
0
281
0
  0
CLASS
  1
ACDBSECTIONVIEWSTYLE
  2
AcDbSectionViewStyle
  3
ObjectDBX Classes
 90
1025
 91
0
280
0
281
0
  0
CLASS
  1
RASTERVARIABLES
  2
AcDbRasterVariables
  3
ISM
 90
0
 91
0
280
0
281
0
  0
CLASS
  1
ACDBPLACEHOLDER
  2
AcDbPlaceHolder
  3
ObjectDBX Classes
 90
0
 91
0
280
0
281
0
  0
CLASS
  1
LAYOUT
  2
AcDbLayout
  3
ObjectDBX Classes
 90
0
 91
0
280
0
281
0
  0
ENDSEC
  0
SECTION
  2
TABLES
  0
TABLE
  2
VPORT
  5
8
330
0
100
AcDbSymbolTable
 70
1
  0
VPORT
  5
23
330
8
100
AcDbSymbolTableRecord
100
AcDbViewportTableRecord
  2
*Active
 70
0
 10
0.0
 20
0.0
 11
1.0
 21
1.0
 12
0.0
 22
0.0
 13
0.0
 23
0.0
 14
0.5
 24
0.5
 15
0.5
 25
0.5
 16
0.0
 26
0.0
 36
1.0
 17
0.0
 27
0.0
 37
0.0
 40
1000.0
 41
1.34
 42
50.0
 43
0.0
 44
0.0
 50
0.0
 51
0.0
 71
0
 72
1000
 73
1
 74
3
 75
0
 76
0
 77
0
 78
0
281
0
 65
0
146
0.0
  0
ENDTAB
  0
TABLE
  2
LTYPE
  5
2
330
0
100
AcDbSymbolTable
 70
3
  0
LTYPE
  5
24
330
2
100
AcDbSymbolTableRecord
100
AcDbLinetypeTableRecord
  2
ByBlock
 70
0
  3

 72
65
 73
0
 40
0.0
  0
LTYPE
  5
25
330
2
100
AcDbSymbolTableRecord
100
AcDbLinetypeTableRecord
  2
ByLayer
 70
0
  3

 72
65
 73
0
 40
0.0
  0
LTYPE
  5
26
330
2
100
AcDbSymbolTableRecord
100
AcDbLinetypeTableRecord
  2
Continuous
 70
0
  3

 72
65
 73
0
 40
0.0
  0
ENDTAB
  0
TABLE
  2
LAYER
  5
1
330
0
100
AcDbSymbolTable
 70
7
  0
LAYER
  5
27
330
1
100
AcDbSymbolTableRecord
100
AcDbLayerTableRecord
  2
0
 70
0
 62
7
  6
Continuous
370
-3
390
13
347
21
  0
LAYER
  5
28
330
1
100
AcDbSymbolTableRecord
100
AcDbLayerTableRecord
  2
Defpoints
 70
0
 62
7
  6
Continuous
290
0
370
-3
390
13
347
21
  0
LAYER
  5
2F
330
1
100
AcDbSymbolTableRecord
100
AcDbLayerTableRecord
  2
ENG_L
 70
0
 62
4
  6
Continuous
370
-3
390
13
347
21
  0
LAYER
  5
30
330
1
100
AcDbSymbolTableRecord
100
AcDbLayerTableRecord
  2
ENG_D
 70
0
 62
3
  6
Continuous
370
-3
390
13
347
21
  0
LAYER
  5
31
330
1
100
AcDbSymbolTableRecord
100
AcDbLayerTableRecord
  2
ENG_K
 70
0
 62
2
  6
Continuous
370
-3
390
13
347
21
  0
LAYER
  5
32
330
1
100
AcDbSymbolTableRecord
100
AcDbLayerTableRecord
  2
CUT_OUTLINE
 70
0
 62
5
  6
Continuous
370
-3
390
13
347
21
  0
LAYER
  5
33
330
1
100
AcDbSymbolTableRecord
100
AcDbLayerTableRecord
  2
CUT_SLOT
 70
0
 62
1
  6
Continuous
370
-3
390
13
347
21
  0
ENDTAB
  0
TABLE
  2
STYLE
  5
5
330
0
100
AcDbSymbolTable
 70
1
  0
STYLE
  5
29
330
5
100
AcDbSymbolTableRecord
100
AcDbTextStyleTableRecord
  2
Standard
 70
0
 40
0.0
 41
1.0
 50
0.0
 71
0
 42
2.5
  3
txt
  4

  0
ENDTAB
  0
TABLE
  2
VIEW
  5
7
330
0
100
AcDbSymbolTable
 70
0
  0
ENDTAB
  0
TABLE
  2
UCS
  5
6
330
0
100
AcDbSymbolTable
 70
0
  0
ENDTAB
  0
TABLE
  2
APPID
  5
3
330
0
100
AcDbSymbolTable
 70
3
  0
APPID
  5
2A
330
3
100
AcDbSymbolTableRecord
100
AcDbRegAppTableRecord
  2
ACAD
 70
0
  0
APPID
  5
110
330
3
100
AcDbSymbolTableRecord
100
AcDbRegAppTableRecord
  2
HATCHBACKGROUNDCOLOR
 70
0
  0
APPID
  5
111
330
3
100
AcDbSymbolTableRecord
100
AcDbRegAppTableRecord
  2
EZDXF
 70
0
  0
ENDTAB
  0
TABLE
  2
DIMSTYLE
  5
4
330
0
100
AcDbSymbolTable
 70
1
100
AcDbDimStyleTable
  0
DIMSTYLE
105
2B
330
4
100
AcDbSymbolTableRecord
100
AcDbDimStyleTableRecord
  2
Standard
 70
0
 40
1.0
 41
2.5
 42
0.625
 43
3.75
 44
1.25
 45
0.0
 46
0.0
 47
0.0
 48
0.0
 49
2.5
140
2.5
141
2.5
142
0.0
143
0.03937007874
144
1.0
145
0.0
146
1.0
147
0.625
148
0.0
 69
0
 70
0
 71
0
 72
0
 73
0
 74
0
 75
0
 76
0
 77
1
 78
8
 79
3
170
0
171
3
172
1
173
0
174
0
175
0
176
0
177
0
178
0
179
2
271
2
272
2
273
2
274
3
275
0
276
0
277
2
278
44
279
0
280
0
281
0
282
0
283
0
284
8
285
0
286
0
288
0
289
3
290
0
371
-2
372
-2
  0
ENDTAB
  0
TABLE
  2
BLOCK_RECORD
  5
9
330
0
100
AcDbSymbolTable
 70
2
  0
BLOCK_RECORD
  5
17
330
9
100
AcDbSymbolTableRecord
100
AcDbBlockTableRecord
  2
*Model_Space
340
1A
 70
0
280
1
281
0
  0
BLOCK_RECORD
  5
1B
330
9
100
AcDbSymbolTableRecord
100
AcDbBlockTableRecord
  2
*Paper_Space
340
1E
 70
0
280
1
281
0
  0
ENDTAB
  0
ENDSEC
  0
SECTION
  2
BLOCKS
  0
BLOCK
  5
18
330
17
100
AcDbEntity
  8
0
100
AcDbBlockBegin
  2
*Model_Space
 70
0
 10
0.0
 20
0.0
 30
0.0
  3
*Model_Space
  1

  0
ENDBLK
  5
19
330
17
100
AcDbEntity
  8
0
100
AcDbBlockEnd
  0
BLOCK
  5
1C
330
1B
100
AcDbEntity
  8
0
100
AcDbBlockBegin
  2
*Paper_Space
 70
0
 10
0.0
 20
0.0
 30
0.0
  3
*Paper_Space
  1

  0
ENDBLK
  5
1D
330
1B
100
AcDbEntity
  8
0
100
AcDbBlockEnd
  0
ENDSEC
  0
SECTION
  2
ENTITIES
  0
LWPOLYLINE
  5
34
330
17
100
AcDbEntity
  8
ENG_L
100
AcDbPolyline
 90
30
 70
1
 10
220.707639700628
 20
113.18830638992617
 10
220.1863055619074
 20
114.23097466736732
 10
221.57879740990984
 20
116.18046325457065
 10
223.23039979379953
 20
115.62992912660752
 10
225.21372882064603
 20
114.1424323564727
 10
227.08807224198887
 20
111.79950307979402
 10
228.3181466577641
 20
111.79950307979402
 10
228.82065141344472
 20
112.30200783547473
 10
230.34552789716196
 20
111.99703253873116
 10
230.34552789716196
 20
110.90866720376802
 10
231.3464118205226
 20
109.40734131872709
 10
230.87965014680168
 20
108.47381797128519
 10
231.30931671681535
 20
108.04415140127144
 10
231.30931671681535
 20
107.08036258161813
 10
232.27310553646873
 20
106.1165737619647
 10
232.27310553646873
 20
103.54055960058007
 10
231.4265773765555
 20
102.12967933405793
 10
226.8515050601636
 20
103.146362071034
 10
226.39056901845728
 20
103.60729811274028
 10
224.46299137915048
 20
103.60729811274028
 10
223.9810969693238
 20
104.08919252256699
 10
222.053519330017
 20
104.08919252256699
 10
221.18953411045467
 20
104.95317774212931
 10
221.18953411045467
 20
105.94381721824631
 10
220.18865018709403
 20
107.44514310328724
 10
220.67919974095395
 20
108.42624221100716
 10
220.22574529080129
 20
109.33315111131247
 10
220.22574529080129
 20
111.4174122700584
 10
220.707639700628
 20
111.89930667988502
 10
220.707639700628
 20
113.18830638992617
  0
LWPOLYLINE
  5
35
330
17
100
AcDbEntity
  8
ENG_L
100
AcDbPolyline
 90
37
 70
1
 10
218.6802584612301
 20
146.97779499714304
 10
219.26195647114787
 20
147.55949300706084
 10
219.79142664125254
 20
147.0300228369561
 10
220.71818801664799
 20
147.4934035246539
 10
222.11277224651477
 20
146.6566529867338
 10
222.25862071970136
 20
146.21910756717392
 10
222.63521733993474
 20
146.5957041874073
 10
223.11711174976148
 20
146.1138097775807
 10
223.11711174976148
 20
145.1231703014636
 10
224.08090056941487
 20
143.67748707198348
 10
224.08090056941487
 20
141.09525847913173
 10
223.23069535142966
 20
140.24505326114644
 10
219.8320300117837
 20
139.75952964119708
 10
218.38879110954875
 20
138.7973703730404
 10
215.4821503713831
 20
138.31293025001278
 10
213.53610347257577
 20
137.33990680060916
 10
212.41563113348303
 20
137.33990680060916
 10
212.18151427284647
 20
137.57402366124572
 10
211.99012257777116
 20
136.61706518586914
 10
211.069751504094
 20
136.61706518586914
 10
211.069751504094
 20
139.1676808398249
 10
210.60684337553204
 20
139.63058896838686
 10
209.69215936310314
 20
144.20400903053132
 10
209.613260936381
 20
143.4939231900323
 10
209.2419774648782
 20
143.12263971852946
 10
209.6240682746139
 20
142.74054890879384
 10
209.6240682746139
 20
141.50329156956144
 10
208.59520184205167
 20
141.1603360920405
 10
207.5966870352161
 20
142.15885089887604
 10
208.1783850451338
 20
142.74054890879384
 10
208.1783850451338
 20
146.1138097775807
 10
209.04237026469613
 20
146.97779499714304
 10
210.20576628453168
 20
146.97779499714304
 10
210.68766069435839
 20
146.49590058731633
 10
213.37941995313642
 20
146.49590058731633
 10
213.86131436296313
 20
146.97779499714304
 10
218.6802584612301
 20
146.97779499714304
  0
LWPOLYLINE
  5
36
330
17
100
AcDbEntity
  8
ENG_L
100
AcDbPolyline
 90
4
 70
1
 10
220.807443300719
 20
26.50419254046843
 10
219.98479808588792
 20
25.681547325637545
 10
219.98479808588792
 20
27.326837755299316
 10
220.807443300719
 20
26.50419254046843
  0
LWPOLYLINE
  5
37
330
17
100
AcDbEntity
  8
ENG_L
100
AcDbPolyline
 90
5
 70
1
 10
220.73589437831035
 20
48.912282597409984
 10
219.74385088097455
 20
48.912282597409984
 10
219.74385088097455
 20
51.180611041721
 10
220.40985718414564
 20
51.846617344892266
 10
220.73589437831035
 20
48.912282597409984
  0
LWPOLYLINE
  5
38
330
17
100
AcDbEntity
  8
ENG_L
100
AcDbPolyline
 90
12
 70
1
 10
216.47039361227877
 20
42.88860247457615
 10
217.7164696415767
 20
42.88860247457615
 10
218.81447774132033
 20
43.98661057431974
 10
220.41194968266703
 20
48.14003762182117
 10
220.71243684561932
 20
41.8298071998231
 10
219.84365448106567
 20
40.96102483526942
 10
217.91607684175884
 20
40.96102483526942
 10
217.39945644474997
 20
40.444404438260584
 10
214.92490678270758
 20
41.26925432560813
 10
214.92490678270758
 20
43.47030048449385
 10
215.4068011925343
 20
43.95219489432067
 10
216.47039361227877
 20
42.88860247457615
  0
LWPOLYLINE
  5
39
330
17
100
AcDbEntity
  8
ENG_L
100
AcDbPolyline
 90
17
 70
1
 10
220.22574529080129
 20
89.73216382785698
 10
220.22574529080129
 20
86.15929575888804
 10
219.74385088097458
 20
85.67740134906133
 10
219.74385088097458
 20
82.30414048027446
 10
218.78006206132116
 20
81.34035166062104
 10
217.345186170074
 20
82.77522755186828
 10
216.8654697199815
 20
87.0926756027004
 10
214.86041459296044
 20
88.5964669479663
 10
215.37836123286024
 20
89.632360227766
 10
214.92336485018782
 20
90.54235299311087
 10
215.17405114322682
 20
99.81774583555404
 10
217.45756297982848
 20
99.24686787640357
 10
218.29816765149448
 20
98.40626320473756
 10
218.29816765149448
 20
97.44247438508413
 10
220.24635563665512
 20
95.49428639992352
 10
219.28256681700174
 20
90.67534230165653
 10
220.22574529080129
 20
89.73216382785698
  0
LWPOLYLINE
  5
3A
330
17
100
AcDbEntity
  8
ENG_L
100
AcDbPolyline
 90
4
 70
1
 10
220.3255488908923
 20
53.00838508093686
 10
219.50290367606124
 20
52.18573986610553
 10
219.50290367606124
 20
53.83103029576786
 10
220.3255488908923
 20
53.00838508093686
  0
LWPOLYLINE
  5
3B
330
17
100
AcDbEntity
  8
ENG_L
100
AcDbPolyline
 90
23
 70
1
 10
216.70484342866908
 20
75.70525973604603
 10
218.5196785117116
 20
76.79416078587143
 10
218.77535856080257
 20
71.42487975496104
 10
219.26195647114787
 20
70.9382818446157
 10
219.26195647114787
 20
63.22797128738855
 10
219.74385088097458
 20
62.74607687756184
 10
219.74385088097458
 20
57.44523836946813
 10
220.22574529080129
 20
56.96334395964142
 10
220.22574529080129
 20
55.318053529979316
 10
219.73007087939746
 20
54.82237911857557
 10
219.45320538587245
 20
52.884320663900475
 10
218.38066094469946
 20
53.42059288448697
 10
217.13606481588096
 20
51.55369869125936
 10
216.85827961184927
 20
56.27604715979784
 10
216.37059001218768
 20
56.76373675945945
 10
216.37059001218768
 20
58.89092159894827
 10
216.85248442201438
 20
59.372816008774976
 10
216.85248442201438
 20
65.637443336522
 10
217.32515106430822
 20
66.11010997881583
 10
216.8432566544815
 20
71.41094848690955
 10
217.3343788318411
 20
71.90207066426912
 10
217.3343788318411
 20
75.07572433287402
 10
216.70484342866908
 20
75.70525973604603
  0
LWPOLYLINE
  5
3C
330
17
100
AcDbEntity
  8
ENG_L
100
AcDbPolyline
 90
4
 70
1
 10
215.16585398762095
 20
59.131868803861565
 10
215.988499202452
 20
58.309223589030566
 10
215.16585398762095
 20
57.48657837419924
 10
215.16585398762095
 20
59.131868803861565
  0
LWPOLYLINE
  5
3D
330
17
100
AcDbEntity
  8
ENG_L
100
AcDbPolyline
 90
87
 70
1
 10
207.22133536731752
 20
88.27974145653982
 10
207.69649063530713
 20
87.80458618855013
 10
207.69649063530713
 20
86.85679898241949
 10
210.07109683672414
 20
84.95711402128592
 10
210.30032904558118
 20
84.26941739471461
 10
212.0572330691853
 20
83.51645852745581
 10
211.5378659123436
 20
79.88088842956387
 10
211.06975150409409
 20
79.41277402131419
 10
210.10596268444058
 20
80.37656284096761
 10
210.1059626844406
 20
78.44898520166088
 10
209.6240682746139
 20
77.96709079183417
 10
209.6240682746139
 20
76.72101476253613
 10
209.95798873534153
 20
76.38709430180846
 10
210.12494896570533
 20
77.22189545362745
 10
211.06975150409406
 20
78.16669799201625
 10
211.5516459139207
 20
77.68480358218943
 10
211.5516459139207
 20
74.31154271340257
 10
212.03354032374742
 20
73.82964830357585
 10
212.03354032374742
 20
51.92412265882673
 10
210.1059626844406
 20
50.4784394293466
 10
210.1059626844406
 20
49.876071417063294
 10
211.06975150409403
 20
49.876071417063294
 10
211.06975150409403
 20
46.84356135328072
 10
211.65144951401172
 20
46.26186334336302
 10
211.06975150409403
 20
45.68016533344543
 10
211.06975150409403
 20
44.915983713973986
 10
211.5516459139207
 20
44.43408930414727
 10
211.5516459139207
 20
42.024617255013716
 10
212.3742911287518
 20
41.20197204018283
 10
210.2900299700057
 20
41.20197204018283
 10
208.1783850451338
 20
42.25779450261869
 10
208.1783850451338
 20
43.90927121357757
 10
209.1421738647872
 20
45.836848852884415
 10
209.1421738647872
 20
47.650666653495044
 10
208.60805161514747
 20
48.7189111527746
 10
209.1421738647872
 20
49.25303340241427
 10
209.1421738647872
 20
50.98100384153903
 10
207.6964906353071
 20
52.42668707101916
 10
207.6964906353071
 20
53.39047589067258
 10
207.21459622548042
 20
53.8723703004993
 10
207.21459622548042
 20
54.58301934113974
 10
208.71433278849153
 20
55.58284371648037
 10
209.08994602497418
 20
56.3340701894457
 10
208.56047585486948
 20
56.863540359550434
 10
209.1421738647872
 20
57.44523836946813
 10
209.1421738647872
 20
58.25234366968246
 10
208.1261572053208
 20
60.28437698861533
 10
209.17252549051395
 20
61.33074527380855
 10
209.59763293199376
 20
62.60606759824794
 10
208.56764834458903
 20
64.04804602061465
 10
208.1783850451338
 20
63.918291587462875
 10
208.1783850451338
 20
61.562010855360725
 10
206.52231988762216
 20
60.319961987227
 10
207.7952955662369
 20
59.895636761022054
 10
206.74423587199374
 20
57.793517372535796
 10
207.24321773696138
 20
55.298608047697485
 10
205.75130751148416
 20
54.40346191241119
 10
203.1506746475043
 20
56.42617636217317
 10
204.34667925048092
 20
57.024178663661495
 10
204.78801774771293
 20
59.672209647053556
 10
204.3232297665202
 20
60.13699762824631
 10
204.3232297665202
 20
61.582680857726444
 10
203.3594409468668
 20
62.54646967737987
 10
203.3594409468668
 20
63.82572015640597
 10
205.6469499743644
 20
64.07988782612783
 10
208.1783850451338
 20
67.07158381885536
 10
208.1783850451338
 20
72.66625228374046
 10
207.6964906353071
 20
73.14814669356717
 10
207.6964906353071
 20
74.31154271340257
 10
208.1783850451338
 20
74.79343712322928
 10
208.1783850451338
 20
78.64859240184285
 10
208.60805161514747
 20
79.07825897185661
 10
208.1261572053208
 20
80.04204779151003
 10
208.5978261628663
 20
80.5137167490555
 10
208.02312305007362
 20
81.47155527037664
 10
206.32471789461945
 20
81.89615655924021
 10
205.28701858617362
 20
80.85845725079433
 10
203.87693629551748
 20
82.26853954145052
 10
202.81244128571151
 20
84.9297770659655
 10
203.67552391521232
 20
85.36131838071593
 10
202.39565212721342
 20
86.64119016871474
 10
202.39565212721342
 20
87.7874534418398
 10
204.2053863905767
 20
90.1142546375926
 10
205.1381050240429
 20
90.1142546375926
 10
205.58201912461797
 20
91.00208283874278
 10
207.487513428527
 20
92.2724123746822
 10
207.22133536731752
 20
88.27974145653982
  0
LWPOLYLINE
  5
3E
330
17
100
AcDbEntity
  8
ENG_L
100
AcDbPolyline
 90
6
 70
1
 10
210.17603368452458
 20
73.44497221317425
 10
210.55414297658325
 20
74.20119079729149
 10
210.05812529118634
 20
75.0278869396197
 10
209.63868417345384
 20
74.60844582188719
 10
209.821764643327
 20
73.32688253277509
 10
210.17603368452458
 20
73.44497221317425
  0
LWPOLYLINE
  5
3F
330
17
100
AcDbEntity
  8
ENG_L
100
AcDbPolyline
 90
5
 70
1
 10
210.14299832091314
 20
71.64094735684756
 10
210.22000428132807
 20
71.25591755477278
 10
210.52540380217314
 20
71.76491675618135
 10
210.52277948135844
 20
71.76754107699601
 10
210.14299832091314
 20
71.64094735684756
  0
LWPOLYLINE
  5
40
330
17
100
AcDbEntity
  8
ENG_L
100
AcDbPolyline
 90
4
 70
1
 10
209.25047987004461
 20
83.23521778277
 10
210.1139886865683
 20
81.68090191302736
 10
210.50774870690307
 20
82.33716861358519
 10
209.25047987004461
 20
83.23521778277
  0
LWPOLYLINE
  5
41
330
17
100
AcDbEntity
  8
ENG_L
100
AcDbPolyline
 90
4
 70
1
 10
210.82880429918066
 20
79.85332842640958
 10
211.65144951401172
 20
79.03068321157858
 10
210.82880429918066
 20
78.20803799674725
 10
210.82880429918066
 20
79.85332842640958
  0
LWPOLYLINE
  5
42
330
17
100
AcDbEntity
  8
ENG_L
100
AcDbPolyline
 90
4
 70
1
 10
206.49175461074034
 20
70.69733463970218
 10
207.31439982557143
 20
69.87468942487129
 10
206.49175461074034
 20
69.0520442100404
 10
206.49175461074034
 20
70.69733463970218
  0
LWPOLYLINE
  5
43
330
17
100
AcDbEntity
  8
ENG_L
100
AcDbPolyline
 90
4
 70
1
 10
201.67281051247338
 20
57.96847278402606
 10
201.67281051247338
 20
59.613763213688166
 10
202.49545572730446
 20
58.79111799885728
 10
201.67281051247338
 20
57.96847278402606
  0
LWPOLYLINE
  5
44
330
17
100
AcDbEntity
  8
ENG_L
100
AcDbPolyline
 90
25
 70
1
 10
169.0451342490802
 20
282.3901241584454
 10
167.19131442601602
 20
284.24394398150963
 10
165.73453524514562
 20
283.2033874237452
 10
165.44217096323317
 20
282.32629457800783
 10
164.2535414241974
 20
282.72250442435285
 10
165.82024075030665
 20
286.9003692939776
 10
166.77939108543504
 20
287.3799444615417
 10
167.04369529037643
 20
288.172857076366
 10
170.67093681362235
 20
288.172857076366
 10
172.49558911860805
 20
286.8043678476266
 10
173.06610096917495
 20
287.3748796981934
 10
173.5897424034465
 20
286.3275968296506
 10
174.44577635726492
 20
286.75561380655967
 10
175.65051238183165
 20
286.15324579427636
 10
175.65051238183165
 20
285.43040417953637
 10
176.39535353501148
 20
285.8028247561262
 10
178.43148125295517
 20
284.348447814738
 10
177.91884082614283
 20
283.83580738792546
 10
178.3781256366194
 20
283.37652257744895
 10
176.78951218065907
 20
281.25837130283514
 10
174.01889581843247
 20
278.99150337010445
 10
166.9764130049511
 20
281.00364131681334
 10
166.9764130049511
 20
281.90822974861885
 10
168.56323983925355
 20
281.90822974861885
 10
169.0451342490802
 20
282.3901241584454
  0
LWPOLYLINE
  5
45
330
17
100
AcDbEntity
  8
ENG_L
100
AcDbPolyline
 90
4
 70
1
 10
173.09989672787583
 20
288.17285707636574
 10
172.27725151304477
 20
287.3502118615352
 10
172.27725151304477
 20
288.995502291197
 10
173.09989672787583
 20
288.17285707636574
  0
LWPOLYLINE
  5
46
330
17
100
AcDbEntity
  8
ENG_L
100
AcDbPolyline
 90
4
 70
1
 10
172.27725151304477
 20
288.0317134715435
 10
173.0998967278758
 20
287.2090682567123
 10
172.27725151304477
 20
286.38642304188113
 10
172.27725151304477
 20
288.0317134715435
  0
LWPOLYLINE
  5
47
330
17
100
AcDbEntity
  8
ENG_L
100
AcDbPolyline
 90
4
 70
1
 10
170.83156828356465
 20
287.3502118615352
 10
170.83156828356465
 20
288.995502291197
 10
171.65421349839576
 20
288.17285707636574
 10
170.83156828356465
 20
287.3502118615352
  0
LWPOLYLINE
  5
48
330
17
100
AcDbEntity
  8
ENG_L
100
AcDbPolyline
 90
14
 70
1
 10
140.18785551359306
 20
118.30507761245457
 10
136.9991559956047
 20
118.30507761245457
 10
136.37611798095568
 20
118.9281156271036
 10
136.37611798095568
 20
119.89190444675701
 10
135.4123291613023
 20
120.85569326641033
 10
135.4123291613023
 20
122.0681992482855
 10
136.44655373807336
 20
122.58531153667107
 10
137.20348481134766
 20
123.84686332546147
 10
138.43264665098522
 20
123.84686332546147
 10
139.3658806743913
 20
122.44701229035249
 10
140.84729982936287
 20
122.94081867534301
 10
141.80141512097205
 20
120.71454966158801
 10
140.66974992341977
 20
120.71454966158801
 10
140.18785551359306
 20
118.30507761245457
  0
LWPOLYLINE
  5
49
330
17
100
AcDbEntity
  8
ENG_L
100
AcDbPolyline
 90
116
 70
1
 10
108.14518255028712
 20
122.77635450268897
 10
107.90016283106173
 20
122.69468126294714
 10
106.9213585936791
 20
119.26886643210798
 10
105.46722346171825
 20
119.26886643210798
 10
105.99087705057515
 20
121.36348078753556
 10
105.36906431056582
 20
121.98529352754494
 10
106.54258985709772
 20
122.5720563008108
 10
106.94583299434497
 20
123.78178571255272
 10
106.3328531302192
 20
124.3947655766785
 10
107.52380915320892
 20
124.99024358817323
 10
107.91590784150645
 20
125.7744409647683
 10
107.41998141704505
 20
126.7662938136912
 10
109.25959768155265
 20
129.13151472520101
 10
110.91761021280774
 20
129.3683736582374
 10
111.26538083015436
 20
130.06391489293057
 10
110.73591066004965
 20
130.5933850630353
 10
111.17488138913343
 20
131.03235579211915
 10
113.35294117510911
 20
132.1213856851069
 10
113.91121215979038
 20
131.0048437157445
 10
115.14718133171066
 20
130.26326221259222
 10
115.37029340751808
 20
129.14770183355517
 10
117.00053798779668
 20
129.14770183355517
 10
117.48243239762343
 20
129.629596243382
 10
117.00053798779675
 20
130.1114906532086
 10
117.53466023743647
 20
130.64561290284848
 10
118.60290473671613
 20
130.1114906532086
 10
120.57340605676572
 20
130.1114906532086
 10
120.95549686650135
 20
129.72939984347298
 10
121.3898155160501
 20
130.16371849302166
 10
122.3536043357035
 20
129.68182408319495
 10
122.78327090571709
 20
130.1114906532086
 10
123.74705972537049
 20
130.1114906532086
 10
123.64176193577724
 20
130.21678844280183
 10
124.72602435788727
 20
130.57820925017205
 10
124.68477945794483
 20
130.61945415011445
 10
126.79684988292702
 20
132.2035069688511
 10
127.6541812108209
 20
133.63239251534077
 10
128.2837166139929
 20
133.00285711216875
 10
129.04789823346417
 20
133.00285711216875
 10
129.52979264329093
 20
133.48475152199546
 10
129.04789823346422
 20
133.96664593182228
 10
129.49944101756418
 20
134.41818871592216
 10
131.14035708577092
 20
134.96516073865772
 10
131.5264278657031
 20
134.57908995872558
 10
132.50516994704162
 20
135.94932887259947
 10
132.20326802647253
 20
137.45883847544482
 10
133.93104408561643
 20
136.88291312239676
 10
135.44303014390596
 20
137.89090382792324
 10
135.9940271712201
 20
137.33990680060904
 10
136.75820879069133
 20
137.33990680060904
 10
137.91359299928655
 20
138.49529100920432
 10
139.2674844399159
 20
134.975173263568
 10
139.2674844399159
 20
133.10266071225985
 10
139.7493788497426
 20
132.62076630243314
 10
139.7493788497426
 20
130.69318866312628
 10
140.2312732595693
 20
130.21129425329957
 10
140.2312732595693
 20
128.24079293324985
 10
140.76539550920901
 20
127.1725484339704
 10
139.84918244983368
 20
126.25633537459512
 10
138.1547820581318
 20
126.25633537459512
 10
137.1909932384784
 20
128.18391301390187
 10
136.61706518586908
 20
128.18391301390187
 10
136.61706518586908
 20
127.27932458209634
 10
133.2244795062648
 20
126.31001438792377
 10
133.01156480958412
 20
124.39378211779794
 10
133.99739194880783
 20
123.01362412288486
 10
134.4485403416489
 20
123.46477251572585
 10
135.41232916130232
 20
122.50098369607242
 10
135.41232916130232
 20
121.69924917166053
 10
132.6296537014119
 20
121.44627867530689
 10
132.03906829251542
 20
120.85569326641033
 10
132.03906829251542
 20
117.96432680745016
 10
131.17508307295307
 20
117.10034158788784
 10
127.64513868472687
 20
117.10034158788784
 10
126.82072307762671
 20
117.51254939143796
 10
125.88541440657869
 20
116.1095863848659
 10
124.43218160937596
 20
116.40023294430635
 10
122.90780373760832
 20
118.43273677332988
 10
122.43968753116087
 20
119.83708539267235
 10
121.02269457101579
 20
120.78174736610225
 10
119.04523562208483
 20
123.74793578949883
 10
118.59884612949575
 20
125.533493759855
 10
117.58223599771446
 20
125.533493759855
 10
117.58223599771446
 20
126.356138974686
 10
119.47508764983915
 20
128.24899062681072
 10
119.31279171750523
 20
128.73587842381252
 10
118.59360057764583
 20
129.09547399374222
 10
117.68203959780554
 20
128.18391301390187
 10
115.29675969204993
 20
128.18391301390187
 10
114.28273294517015
 20
126.7642755682702
 10
114.69086953875428
 20
126.356138974686
 10
114.69086953875428
 20
125.19274295485073
 10
114.37478657040876
 20
124.8766599865051
 10
115.41093359959828
 20
124.35858647191044
 10
113.67302738556988
 20
123.1999823292248
 10
113.35625118294467
 20
122.56642992397437
 10
116.15133885922899
 20
124.89566965421129
 10
116.5880955523343
 20
124.45891296110612
 10
117.1350675750699
 20
122.81799689289929
 10
116.61844717806107
 20
122.30137649589045
 10
116.61844717806107
 20
118.44622121727689
 10
116.07054492684422
 20
117.89831896606006
 10
115.50574479627694
 20
119.02791922719457
 10
115.27256754867204
 20
119.02791922719457
 10
113.82688431919195
 20
117.58223599771456
 10
112.86309549953855
 20
117.58223599771456
 10
112.28139748962077
 20
117.00053798779675
 10
110.82439941070878
 20
118.45753606670873
 10
111.03654900924731
 20
120.36688245355542
 10
110.75551945464478
 20
120.27320593535462
 10
109.99898699953064
 20
119.01231851016436
 10
107.17853789791843
 20
119.32570174367696
 10
107.84454420108946
 20
119.991708046848
 10
107.36264979126277
 20
120.4736024566746
 10
107.95515513941338
 20
121.06610780482518
 10
108.14518255028712
 20
122.77635450268897
  0
LWPOLYLINE
  5
4A
330
17
100
AcDbEntity
  8
ENG_L
100
AcDbPolyline
 90
7
 70
1
 10
110.0760053888947
 20
121.91928568615484
 10
109.48983463075169
 20
121.91928568615484
 10
109.00794022092491
 20
121.43739127632801
 10
109.48983463075162
 20
120.9554968665013
 10
109.2488874258382
 20
120.7145496615879
 10
109.903900242528
 20
120.7145496615879
 10
110.0760053888947
 20
121.91928568615484
  0
LWPOLYLINE
  5
4B
330
17
100
AcDbEntity
  8
ENG_L
100
AcDbPolyline
 90
11
 70
1
 10
128.013530940597
 20
145.9464564237394
 10
130.0860531799652
 20
147.50084810326558
 10
132.03906829251542
 20
146.5243405469905
 10
132.99505543386115
 20
147.00233411766328
 10
135.17795073055746
 20
146.06680756193634
 10
133.08007227106012
 20
144.56832294800958
 10
131.15559520783322
 20
144.56832294800958
 10
129.24288630837177
 20
143.13379127341364
 10
127.4206367042528
 20
142.87346990139648
 10
126.12664810190863
 20
143.52046420256858
 10
128.013530940597
 20
145.9464564237394
  0
LWPOLYLINE
  5
4C
330
17
100
AcDbEntity
  8
ENG_L
100
AcDbPolyline
 90
5
 70
1
 10
134.0196070678113
 20
139.5084316448293
 10
133.09489075495142
 20
139.5084316448293
 10
132.42215777141237
 20
140.85389761190748
 10
133.6674916179592
 20
141.26900889408967
 10
134.0196070678113
 20
139.5084316448293
  0
LWPOLYLINE
  5
4D
330
17
100
AcDbEntity
  8
ENG_L
100
AcDbPolyline
 90
4
 70
1
 10
133.58455512208653
 20
137.82180121043575
 10
132.76190990725547
 20
136.99915599560475
 10
132.76190990725547
 20
138.64444642526706
 10
133.58455512208653
 20
137.82180121043575
  0
LWPOLYLINE
  5
4E
330
17
100
AcDbEntity
  8
ENG_L
100
AcDbPolyline
 90
7
 70
1
 10
129.04789823346422
 20
136.3761179809557
 10
129.58202048310403
 20
136.9102402305954
 10
130.5458093027574
 20
136.42834582076867
 10
131.55717388268872
 20
137.43971040070014
 10
132.65151231941877
 20
136.3453719639701
 10
130.5673392791869
 20
134.85667693523305
 10
129.04789823346422
 20
136.3761179809557
  0
LWPOLYLINE
  5
4F
330
17
100
AcDbEntity
  8
ENG_L
100
AcDbPolyline
 90
4
 70
1
 10
126.9098142306944
 20
142.16509231852248
 10
124.90545237699907
 20
143.16727324536993
 10
126.40872376727053
 20
143.6683637087939
 10
126.9098142306944
 20
142.16509231852248
  0
LWPOLYLINE
  5
50
330
17
100
AcDbEntity
  8
ENG_L
100
AcDbPolyline
 90
5
 70
1
 10
125.92682935744384
 20
133.90281635138456
 10
124.60555075543063
 20
134.34324255205553
 10
125.77444096476836
 20
135.5121327613934
 10
126.29106136177717
 20
134.99551236438444
 10
125.92682935744384
 20
133.90281635138456
  0
LWPOLYLINE
  5
51
330
17
100
AcDbEntity
  8
ENG_L
100
AcDbPolyline
 90
6
 70
1
 10
125.39235015503267
 20
143.60453412835616
 10
124.40795098952538
 20
142.62013496284897
 10
122.84049990312178
 20
142.93362518012952
 10
123.16743945669776
 20
144.56832294800958
 10
124.42856133537934
 20
144.56832294800958
 10
125.39235015503267
 20
143.60453412835616
  0
LWPOLYLINE
  5
52
330
17
100
AcDbEntity
  8
ENG_L
100
AcDbPolyline
 90
4
 70
1
 10
124.56970494020159
 20
133.14400071699106
 10
124.56970494020159
 20
134.78929114665317
 10
125.39235015503267
 20
133.96664593182228
 10
124.56970494020159
 20
133.14400071699106
  0
LWPOLYLINE
  5
53
330
17
100
AcDbEntity
  8
ENG_L
100
AcDbPolyline
 90
5
 70
1
 10
123.84686332546154
 20
133.10266071225985
 10
124.51286962863263
 20
133.76866701543088
 10
124.83890682279731
 20
130.83433226794872
 10
123.84686332546154
 20
130.83433226794872
 10
123.84686332546154
 20
133.10266071225985
  0
LWPOLYLINE
  5
54
330
17
100
AcDbEntity
  8
ENG_L
100
AcDbPolyline
 90
4
 70
1
 10
123.60591612054819
 20
129.7707398482044
 10
123.60591612054819
 20
131.41603027786653
 10
124.42856133537929
 20
130.5933850630353
 10
123.60591612054819
 20
129.7707398482044
  0
LWPOLYLINE
  5
55
330
17
100
AcDbEntity
  8
ENG_L
100
AcDbPolyline
 90
4
 70
1
 10
119.54067310241953
 20
130.8343322679486
 10
122.97642369032506
 20
130.8343322679486
 10
122.54695486683688
 20
129.54592579748413
 10
119.54067310241953
 20
130.8343322679486
  0
LWPOLYLINE
  5
56
330
17
100
AcDbEntity
  8
ENG_L
100
AcDbPolyline
 90
21
 70
1
 10
114.29416283017873
 20
151.8113549942499
 10
115.129840267838
 20
150.97567755659057
 10
115.68309831808172
 20
149.86916145610328
 10
115.22499178839401
 20
148.9529483967279
 10
115.7338516126448
 20
148.44408857247714
 10
118.17510384935153
 20
148.9323390198185
 10
119.18254188137018
 20
147.42118197179045
 10
119.99170804684798
 20
147.15145991663127
 10
119.99170804684798
 20
144.79002394241257
 10
116.51109773893931
 20
145.05776319686714
 10
116.03674916814333
 20
145.532111767663
 10
114.61791659512676
 20
145.532111767663
 10
113.17223336564665
 20
146.49590058731644
 10
112.18159388952967
 20
146.49590058731644
 10
111.69969947970307
 20
146.97779499714315
 10
112.71106405963445
 20
147.98915957707447
 10
112.22916964980776
 20
148.9529483967279
 10
112.76329189944748
 20
149.48707064636756
 10
112.76329189944748
 20
150.7331466756656
 10
112.01121848702766
 20
151.4852200880856
 10
114.29416283017873
 20
151.8113549942499
  0
LWPOLYLINE
  5
57
330
17
100
AcDbEntity
  8
ENG_L
100
AcDbPolyline
 90
4
 70
1
 10
116.69764043229819
 20
130.61399540888928
 10
118.12677345815868
 20
129.18486238302884
 10
114.31575205586405
 20
130.13761773360233
 10
116.69764043229819
 20
130.61399540888928
  0
LWPOLYLINE
  5
58
330
17
100
AcDbEntity
  8
ENG_L
100
AcDbPolyline
 90
6
 70
1
 10
116.27297475749585
 20
126.73822978442173
 10
117.25270814619536
 20
125.10534080325597
 10
115.0875762473298
 20
124.796036246275
 10
114.62841624666007
 20
125.25519624694492
 10
115.5182363691462
 20
126.73822978442173
 10
116.27297475749585
 20
126.73822978442173
  0
LWPOLYLINE
  5
59
330
17
100
AcDbEntity
  8
ENG_L
100
AcDbPolyline
 90
4
 70
1
 10
115.41371115349432
 20
118.88677562237237
 10
116.23635636832542
 20
118.06413040754116
 10
115.41371115349432
 20
117.24148519271027
 10
115.41371115349432
 20
118.88677562237237
  0
LWPOLYLINE
  5
5A
330
17
100
AcDbEntity
  8
ENG_L
100
AcDbPolyline
 90
9
 70
1
 10
110.22327023323733
 20
115.20350996556661
 10
112.22629218815034
 20
116.63423993336164
 10
114.61167628451715
 20
116.1571631140883
 10
115.37282226219467
 20
116.91830909176582
 10
115.66984493377278
 20
113.05701436125048
 10
112.40290986961209
 20
112.30310626952111
 10
111.67629105101749
 20
111.57648745092652
 10
110.861040414695
 20
114.565739784109
 10
110.22327023323733
 20
115.20350996556661
  0
LWPOLYLINE
  5
5B
330
17
100
AcDbEntity
  8
ENG_L
100
AcDbPolyline
 90
4
 70
1
 10
113.00423910436082
 20
131.69831748751093
 10
113.00423910436082
 20
133.34360791717305
 10
113.82688431919192
 20
132.52096270234216
 10
113.00423910436082
 20
131.69831748751093
  0
LWPOLYLINE
  5
5C
330
17
100
AcDbEntity
  8
ENG_L
100
AcDbPolyline
 90
4
 70
1
 10
112.52234469453413
 20
134.3073967368267
 10
113.34498990936521
 20
133.48475152199546
 10
112.52234469453413
 20
132.66210630716458
 10
112.52234469453413
 20
134.3073967368267
  0
LWPOLYLINE
  5
5D
330
17
100
AcDbEntity
  8
ENG_L
100
AcDbPolyline
 90
4
 70
1
 10
112.52234469453413
 20
132.86171350734634
 10
113.34498990936521
 20
132.03906829251542
 10
112.52234469453413
 20
131.21642307768423
 10
112.52234469453413
 20
132.86171350734634
  0
LWPOLYLINE
  5
5E
330
17
100
AcDbEntity
  8
ENG_L
100
AcDbPolyline
 90
4
 70
1
 10
112.86309549953852
 20
133.00285711216887
 10
112.04045028470742
 20
132.18021189733764
 10
112.04045028470742
 20
133.82550232699975
 10
112.86309549953852
 20
133.00285711216887
  0
LWPOLYLINE
  5
5F
330
17
100
AcDbEntity
  8
ENG_L
100
AcDbPolyline
 90
4
 70
1
 10
109.63097823557393
 20
147.80044021197403
 10
110.453623450405
 20
146.97779499714315
 10
109.63097823557393
 20
146.1551497823118
 10
109.63097823557393
 20
147.80044021197403
  0
LWPOLYLINE
  5
60
330
17
100
AcDbEntity
  8
ENG_L
100
AcDbPolyline
 90
4
 70
1
 10
110.453623450405
 20
156.61568319367703
 10
109.63097823557393
 20
155.79303797884614
 10
109.63097823557393
 20
157.43832840850837
 10
110.453623450405
 20
156.61568319367703
  0
LWPOLYLINE
  5
61
330
17
100
AcDbEntity
  8
ENG_L
100
AcDbPolyline
 90
19
 70
1
 10
103.12970225247966
 20
160.36673632263344
 10
102.87271091595551
 20
166.27753706268933
 10
108.534933210077
 20
165.76278958140557
 10
109.40464692950052
 20
164.893075861982
 10
108.9163592330535
 20
161.47506198685292
 10
109.47234842325214
 20
160.36308360645558
 10
108.50855960359874
 20
159.88118919662898
 10
108.9081366208339
 20
159.0820351621587
 10
108.9081366208339
 20
157.19738120359472
 10
109.48983463075162
 20
156.61568319367703
 10
108.9081366208339
 20
156.03398518375934
 10
108.9081366208339
 20
154.54633141206753
 10
106.52302424859532
 20
153.221268983046
 10
105.61507055754291
 20
153.52392021339688
 10
104.92868137242381
 20
154.66790218859526
 10
103.1254037029135
 20
154.410291092951
 10
103.1254037029135
 20
159.60685325272829
 10
103.50749451264917
 20
159.988944062464
 10
103.12970225247966
 20
160.36673632263344
  0
LWPOLYLINE
  5
62
330
17
100
AcDbEntity
  8
ENG_L
100
AcDbPolyline
 90
5
 70
1
 10
108.0376969856974
 20
125.533493759855
 10
106.98055898152708
 20
125.533493759855
 10
106.98055898152708
 20
126.356138974686
 10
107.56775118094707
 20
126.94333117410616
 10
108.0376969856974
 20
125.533493759855
  0
LWPOLYLINE
  5
63
330
17
100
AcDbEntity
  8
ENG_L
100
AcDbPolyline
 90
4
 70
1
 10
107.08036258161812
 20
123.36496891563486
 10
106.25771736678705
 20
122.54232370080354
 10
106.25771736678705
 20
124.18761413046575
 10
107.08036258161812
 20
123.36496891563486
  0
LWPOLYLINE
  5
64
330
17
100
AcDbEntity
  8
ENG_L
100
AcDbPolyline
 90
5
 70
1
 10
105.05298134222029
 20
120.71454966158801
 10
105.05298134222029
 20
121.53719487641901
 10
105.64017354164028
 20
122.12438707583917
 10
106.1101193463906
 20
120.71454966158801
 10
105.05298134222029
 20
120.71454966158801
  0
LWPOLYLINE
  5
65
330
17
100
AcDbEntity
  8
ENG_L
100
AcDbPolyline
 90
4
 70
1
 10
102.88445649800015
 20
152.90167151988555
 10
102.88445649800015
 20
154.5469619495482
 10
103.70710171283119
 20
153.72431673471687
 10
102.88445649800015
 20
152.90167151988555
  0
LWPOLYLINE
  5
66
330
17
100
AcDbEntity
  8
ENG_L
100
AcDbPolyline
 90
5
 70
1
 10
102.1616148832601
 20
152.37843710532772
 10
102.74880708268009
 20
152.9656293047479
 10
103.2187528874304
 20
151.55579189049672
 10
102.1616148832601
 20
151.55579189049672
 10
102.1616148832601
 20
152.37843710532772
  0
LWPOLYLINE
  5
67
330
17
100
AcDbEntity
  8
ENG_L
100
AcDbPolyline
 90
4
 70
1
 10
101.92066767834676
 20
152.13748990041432
 10
102.74331289317783
 20
151.31484468558344
 10
101.92066767834676
 20
150.4921994707521
 10
101.92066767834676
 20
152.13748990041432
  0
LWPOLYLINE
  5
68
330
17
100
AcDbEntity
  8
ENG_L
100
AcDbPolyline
 90
4
 70
1
 10
97.42186403923027
 20
147.48029975282373
 10
98.85099706509078
 20
146.05116672696306
 10
95.03997566279615
 20
147.003922077537
 10
97.42186403923027
 20
147.48029975282373
  0
LWPOLYLINE
  5
69
330
17
100
AcDbEntity
  8
ENG_L
100
AcDbPolyline
 90
5
 70
1
 10
96.95412555968333
 20
150.5920030708433
 10
95.89698755551302
 20
150.5920030708433
 10
95.89698755551302
 20
151.41464828567442
 10
96.48417975493302
 20
152.00184048509436
 10
96.95412555968333
 20
150.5920030708433
  0
LWPOLYLINE
  5
6A
330
17
100
AcDbEntity
  8
ENG_L
100
AcDbPolyline
 90
6
 70
1
 10
96.87209122459834
 20
147.8530950661373
 10
95.89698755551302
 20
146.87799139705206
 10
94.93319873585962
 20
147.84178021670547
 10
94.93319873585962
 20
149.00517623654085
 10
96.5629938586841
 20
150.63497135936532
 10
96.87209122459834
 20
147.8530950661373
  0
LWPOLYLINE
  5
6B
330
17
100
AcDbEntity
  8
ENG_L
100
AcDbPolyline
 90
33
 70
1
 10
92.00128159330612
 20
39.67609400520678
 10
92.49547739712456
 20
38.193506593751316
 10
96.88995972959007
 20
33.31074844656745
 10
95.11172626849795
 20
27.46798136012185
 10
94.06921351629731
 20
27.46798136012185
 10
93.5847468024893
 20
26.98351464631388
 10
83.97039601172968
 20
27.230036461461605
 10
80.47636644105867
 20
31.722360195181487
 10
80.47636644105867
 20
32.68850413324442
 10
79.09952527012533
 20
34.5242923611555
 10
77.16646645071087
 20
35.974086475716426
 10
76.13931675261838
 20
37.514811022855035
 10
76.13931675261838
 20
38.46703307034704
 10
74.12981763958719
 20
40.978906961636085
 10
75.12330009315195
 20
41.97238941520076
 10
74.66519356346424
 20
42.88860247457615
 10
75.2368836948201
 20
44.03198273728792
 10
76.05699936002685
 20
44.44204056989132
 10
75.62032723908442
 20
45.31538481177621
 10
76.62121116244508
 20
46.81671069681714
 10
76.62121116244508
 20
47.78476173173429
 10
78.03614837493959
 20
49.765673829226586
 10
78.52880972756246
 20
49.273012476603654
 10
80.3212776979345
 20
51.513597439568734
 10
81.48773102099004
 20
52.09682410109651
 10
82.40394408036548
 20
51.180611041721
 10
82.40394408036548
 20
50.21682222206769
 10
84.33152171967227
 20
48.28924458276085
 10
84.33152171967227
 20
47.82040020692957
 10
87.22288817863246
 20
45.41092815779613
 10
87.22288817863246
 20
44.425388936094265
 10
90.75212358253877
 20
40.42558881166713
 10
92.00128159330612
 20
39.67609400520678
  0
LWPOLYLINE
  5
6C
330
17
100
AcDbEntity
  8
ENG_L
100
AcDbPolyline
 90
21
 70
1
 10
56.77891257232274
 20
5.797908730783785
 10
55.69465015021274
 20
6.1593295381539015
 10
56.72813582063536
 20
7.1928152085763974
 10
59.331042925361835
 20
8.233978050466995
 10
59.51395961359728
 20
8.051061362231549
 10
59.51395961359728
 20
8.823012939011331
 10
60.68550378296898
 20
8.237240854325535
 10
63.5035440024854
 20
10.585607703922474
 10
76.02121650271083
 20
12.992852415504409
 10
77.00330197218071
 20
13.974937884974171
 10
78.66926240420855
 20
13.974937884974171
 10
80.15891070756753
 20
11.988740147162225
 10
82.55334531235276
 20
10.552079384291147
 10
84.43132531976333
 20
8.674099376880573
 10
85.39511413941673
 20
8.674099376880573
 10
87.22288817863246
 20
6.846325337664716
 10
87.22288817863246
 20
5.682929317829433
 10
85.87528175980562
 20
4.335322899002403
 10
57.725811076948716
 20
4.820658600431016
 10
56.76373675945942
 20
5.782732917920419
 10
56.77891257232274
 20
5.797908730783785
  0
LWPOLYLINE
  5
6D
330
17
100
AcDbEntity
  8
ENG_L
100
AcDbPolyline
 90
4
 70
1
 10
78.78973600666522
 20
51.90345265646135
 10
79.61238122149629
 20
51.080807441630014
 10
78.78973600666522
 20
50.25816222679913
 10
78.78973600666522
 20
51.90345265646135
  0
LWPOLYLINE
  5
6E
330
17
100
AcDbEntity
  8
ENG_L
100
AcDbPolyline
 90
4
 70
1
 10
74.45268631822493
 20
41.102168440091845
 10
74.45268631822493
 20
42.74745886975406
 10
75.275331533056
 20
41.92481365492273
 10
74.45268631822493
 20
41.102168440091845
  0
LWPOLYLINE
  5
6F
330
17
100
AcDbEntity
  8
ENG_D
100
AcDbPolyline
 90
13
 70
1
 10
230.13655549428933
 20
112.76329189944745
 10
231.37605522897562
 20
112.76329189944745
 10
232.75499994629544
 20
111.93592506905547
 10
232.75499994629544
 20
103.02560010282247
 10
231.39887480049128
 20
101.6694749570184
 10
231.79121112664203
 20
103.63115658777211
 10
231.79121112664203
 20
105.91696656178273
 10
230.82742230698864
 20
106.88075538143616
 10
230.82742230698864
 20
107.84454420108946
 10
230.29330005734894
 20
108.37866645072913
 10
230.79032720328138
 20
109.37272074259408
 10
229.85303624801105
 20
110.77865717549962
 10
230.13655549428933
 20
112.76329189944745
  0
LWPOLYLINE
  5
70
330
17
100
AcDbEntity
  8
ENG_D
100
AcDbPolyline
 90
33
 70
1
 10
225.6996505952275
 20
85.98622896255537
 10
230.4393934882072
 20
86.26503736802482
 10
231.30931671681535
 20
85.39511413941669
 10
231.30931671681535
 20
79.61238122149628
 10
231.79121112664205
 20
79.13048681166957
 10
231.79121112664205
 20
77.51204703847104
 10
230.896524924476
 20
76.17001773522203
 10
231.30931671681535
 20
75.7572259428827
 10
231.30931671681535
 20
68.81109700512688
 10
230.82742230698867
 20
68.32920259530017
 10
230.82742230698867
 20
64.51697099742948
 10
230.28061897053144
 20
63.42336432451512
 10
228.42866300696105
 20
62.6296689115563
 10
226.84211180255727
 20
63.1585193130243
 10
226.00847820872167
 20
63.992152906859886
 10
226.00847820872167
 20
65.43783613634002
 10
225.47435595908195
 20
65.97195838597969
 10
226.49037261854835
 20
68.00399170491256
 10
226.49037261854835
 20
69.72577586274053
 10
225.3607723574138
 20
70.2905759933078
 10
225.98258509742314
 20
70.91238873331717
 10
225.51216015293667
 20
72.7940885112629
 10
225.95625036890866
 20
73.68226894320684
 10
225.47435595908195
 20
74.16416335303356
 10
225.92616081613016
 20
75.06777306712998
 10
224.87887794758709
 20
75.5914145014015
 10
226.39056901845734
 20
77.10310557227173
 10
225.47435595908195
 20
78.01931863164712
 10
225.98003824904762
 20
79.03068321157858
 10
225.4894886951877
 20
80.0117823192985
 10
226.49037261854835
 20
81.51310820433943
 10
226.49037261854835
 20
85.19550693923472
 10
225.6996505952275
 20
85.98622896255537
  0
LWPOLYLINE
  5
71
330
17
100
AcDbEntity
  8
ENG_D
100
AcDbPolyline
 90
5
 70
1
 10
227.87097823511954
 20
61.16586406080848
 10
227.24906004851744
 20
61.787782247410775
 10
228.48302787076406
 20
62.19910485482616
 10
229.10494605736613
 20
61.5771866682242
 10
227.87097823511954
 20
61.16586406080848
  0
LWPOLYLINE
  5
72
330
17
100
AcDbEntity
  8
ENG_D
100
AcDbPolyline
 90
7
 70
1
 10
221.0897305103636
 20
147.45968940696974
 10
222.25312653019913
 20
147.45968940696974
 10
223.21691534985248
 20
146.49590058731633
 10
222.08731508871793
 20
145.3663003261818
 10
221.500552315452
 20
146.53982587271364
 10
220.5025383109437
 20
146.8724972075499
 10
221.0897305103636
 20
147.45968940696974
  0
LWPOLYLINE
  5
73
330
17
100
AcDbEntity
  8
ENG_D
100
AcDbPolyline
 90
5
 70
1
 10
221.60635090737247
 20
36.10735474982019
 10
220.98443272077037
 20
36.729272936422475
 10
222.2184005430169
 20
37.14059554383786
 10
222.8403187296191
 20
36.51867735723591
 10
221.60635090737247
 20
36.10735474982019
  0
LWPOLYLINE
  5
74
330
17
100
AcDbEntity
  8
ENG_D
100
AcDbPolyline
 90
21
 70
1
 10
215.9537732152699
 20
41.47764523227815
 10
216.47039361227877
 20
40.96102483526931
 10
217.23457523175003
 20
40.96102483526931
 10
217.7164696415767
 20
41.44291924509602
 10
219.6440472808835
 20
41.44291924509602
 10
220.2304487913199
 20
42.02932075553234
 10
220.5143918703666
 20
47.99212541551356
 10
222.1533229301081
 20
44.38647708408227
 10
222.1533229301081
 20
39.89743241552502
 10
221.1895341104547
 20
38.933643595871594
 10
221.1895341104547
 20
37.403729493469264
 10
218.51955667550536
 20
36.67555382939225
 10
218.27287850586276
 20
34.455450302608995
 10
216.944518064797
 20
34.455450302608995
 10
215.83646776254798
 20
36.67155090710716
 10
216.27078641209667
 20
37.10586955665585
 10
215.888695602361
 20
37.48796036639146
 10
215.888695602361
 20
38.45174918604488
 10
214.92490678270758
 20
39.4155380056983
 10
214.92490678270758
 20
41.13468975475754
 10
215.9537732152699
 20
41.47764523227815
  0
LWPOLYLINE
  5
75
330
17
100
AcDbEntity
  8
ENG_D
100
AcDbPolyline
 90
4
 70
1
 10
220.9485869055413
 20
116.4773035732386
 10
221.7712321203724
 20
115.65465835840772
 10
220.9485869055413
 20
114.83201314357649
 10
220.9485869055413
 20
116.4773035732386
  0
LWPOLYLINE
  5
76
330
17
100
AcDbEntity
  8
ENG_D
100
AcDbPolyline
 90
11
 70
1
 10
221.2041500092946
 20
111.71431537854292
 10
220.707639700628
 20
111.21780506987645
 10
220.707639700628
 20
109.44691095000869
 10
221.21797407012872
 20
108.42624221100716
 10
220.74473480433522
 20
107.47976367942024
 10
221.67142852028138
 20
106.08972310550114
 10
221.67142852028138
 20
104.7443818469781
 10
219.26195647114787
 20
105.34674985926151
 10
219.26195647114787
 20
110.39855836240642
 10
220.8151972818941
 20
114.43698447034656
 10
221.2041500092946
 20
111.71431537854292
  0
LWPOLYLINE
  5
77
330
17
100
AcDbEntity
  8
ENG_D
100
AcDbPolyline
 90
80
 70
1
 10
220.22574529080129
 20
66.40162495599344
 10
220.22574529080129
 20
62.74607687756184
 10
220.707639700628
 20
62.26418246773513
 10
220.707639700628
 20
53.24933228585027
 10
219.22508921464197
 20
53.24933228585027
 10
219.72923498213464
 20
56.77835265829933
 10
219.26195647114787
 20
57.245631169286156
 10
219.26195647114787
 20
62.54646967737987
 10
218.78006206132116
 20
63.028364087206576
 10
218.78006206132116
 20
70.73867464443373
 10
218.29816765149448
 20
71.22056905426044
 10
218.29816765149448
 20
75.96565183313031
 10
217.88135085457668
 20
76.1045907654363
 10
217.4341824319321
 20
75.65742234279172
 10
217.82472137225167
 20
75.26688340247212
 10
217.34282696242497
 20
69.4841504845517
 10
217.8162732416678
 20
69.01070420530885
 10
217.8162732416678
 20
65.91973054616673
 10
217.3343788318411
 20
65.43783613634002
 10
217.3343788318411
 20
59.173208808593
 10
216.85248442201438
 20
58.691314398766295
 10
216.85248442201438
 20
56.96334395964142
 10
217.3343788318411
 20
56.48144954981471
 10
217.3343788318411
 20
51.56270185145673
 10
214.92490678270758
 20
53.369805888306864
 10
214.92490678270758
 20
57.927132779294844
 10
215.30699759244325
 20
58.309223589030566
 10
214.92490678270758
 20
58.691314398766295
 10
214.92490678270758
 20
61.83139801994819
 10
215.888695602361
 20
62.313292429774904
 10
215.888695602361
 20
66.1193377463487
 10
216.37059001218768
 20
66.60123215617541
 10
216.37059001218768
 20
67.84730818547358
 10
215.888695602361
 20
68.32920259530017
 10
215.888695602361
 20
71.90207066426912
 10
216.27078641209667
 20
72.28416147400485
 10
215.888695602361
 20
72.66625228374046
 10
215.888695602361
 20
77.68480358218943
 10
216.31836217237466
 20
78.11447015220318
 10
215.83646776254798
 20
79.07825897185661
 10
216.37059001218768
 20
79.61238122149628
 10
216.37059001218768
 20
81.34035166062104
 10
215.888695602361
 20
81.82224607044775
 10
215.888695602361
 20
86.15929575888804
 10
214.92490678270758
 20
87.12308457854145
 10
214.92490678270758
 20
88.36034191777398
 10
215.9537732152699
 20
88.70329739529458
 10
217.3235714936082
 20
87.33349911695632
 10
217.8054659034349
 20
82.99644942851603
 10
218.78006206132116
 20
82.02185327062983
 10
219.26195647114787
 20
82.50374768045643
 10
219.26195647114787
 20
85.8770085492433
 10
219.74385088097455
 20
86.35890295907001
 10
219.74385088097455
 20
89.532556627675
 10
218.78006206132116
 20
90.49634544732832
 10
218.78006206132116
 20
91.65974146716371
 10
219.26195647114787
 20
92.14163587699042
 10
219.26195647114787
 20
94.5180428381931
 10
220.177907897547
 20
96.04462854885843
 10
221.24176195026772
 20
94.98077449613763
 10
220.707639700628
 20
93.91252999685817
 10
220.707639700628
 20
92.14163587699042
 10
221.1895341104547
 20
91.65974146716371
 10
221.1895341104547
 20
89.73216382785698
 10
221.7712321203724
 20
89.15046581793928
 10
221.1895341104547
 20
88.56876780802159
 10
221.1895341104547
 20
86.64119016871474
 10
220.707639700628
 20
86.15929575888804
 10
220.707639700628
 20
81.82224607044775
 10
220.22574529080129
 20
81.34035166062104
 10
220.22574529080129
 20
79.61238122149628
 10
220.807443300719
 20
79.03068321157858
 10
220.22574529080129
 20
78.44898520166088
 10
220.22574529080129
 20
70.89535816387271
 10
220.759867540441
 20
69.82711366459327
 10
220.22574529080129
 20
69.2929914149536
 10
220.22574529080129
 20
68.52880979548215
 10
220.707639700628
 20
68.04691538565555
 10
220.707639700628
 20
66.88351936582015
 10
220.22574529080129
 20
66.40162495599344
  0
LWPOLYLINE
  5
78
330
17
100
AcDbEntity
  8
ENG_D
100
AcDbPolyline
 90
4
 70
1
 10
219.98479808588792
 20
27.808732165126028
 10
220.807443300719
 20
26.98608695029514
 10
219.98479808588792
 20
26.16344173546392
 10
219.98479808588792
 20
27.808732165126028
  0
LWPOLYLINE
  5
79
330
17
100
AcDbEntity
  8
ENG_D
100
AcDbPolyline
 90
5
 70
1
 10
219.74385088097455
 20
51.321754646543425
 10
219.74385088097455
 20
52.62629427120113
 10
220.37371923990037
 20
53.25616263012678
 10
220.76060083661704
 20
51.321754646543425
 10
219.74385088097455
 20
51.321754646543425
  0
LWPOLYLINE
  5
7A
330
17
100
AcDbEntity
  8
ENG_D
100
AcDbPolyline
 90
5
 70
1
 10
218.1126757133143
 20
29.096138144163007
 10
220.41731216502822
 20
29.425371922979338
 10
220.72825004648183
 20
27.870682515711454
 10
219.713104863989
 20
26.855537333218436
 10
218.1126757133143
 20
29.096138144163007
  0
LWPOLYLINE
  5
7B
330
17
100
AcDbEntity
  8
ENG_D
100
AcDbPolyline
 90
4
 70
1
 10
219.50290367606124
 20
146.1551497823118
 10
219.50290367606124
 20
147.80044021197415
 10
220.3255488908923
 20
146.97779499714315
 10
219.50290367606124
 20
146.1551497823118
  0
LWPOLYLINE
  5
7C
330
17
100
AcDbEntity
  8
ENG_D
100
AcDbPolyline
 90
4
 70
1
 10
220.3255488908923
 20
139.74937884974258
 10
219.50290367606124
 20
138.92673363491159
 10
219.50290367606124
 20
140.57202406457392
 10
220.3255488908923
 20
139.74937884974258
  0
LWPOLYLINE
  5
7D
330
17
100
AcDbEntity
  8
ENG_D
100
AcDbPolyline
 90
4
 70
1
 10
220.3255488908923
 20
95.89698755551301
 10
219.50290367606124
 20
95.07434234068202
 10
219.50290367606124
 20
96.71963277034435
 10
220.3255488908923
 20
95.89698755551301
  0
LWPOLYLINE
  5
7E
330
17
100
AcDbEntity
  8
ENG_D
100
AcDbPolyline
 90
5
 70
1
 10
218.1928698619012
 20
98.51156099433078
 10
219.7785768681567
 20
96.92585398807529
 10
219.36725426074116
 20
95.6918861658288
 10
217.78154725448564
 20
97.27759317208428
 10
218.1928698619012
 20
98.51156099433078
  0
LWPOLYLINE
  5
7F
330
17
100
AcDbEntity
  8
ENG_D
100
AcDbPolyline
 90
4
 70
1
 10
219.3617600712389
 20
31.80503104856214
 10
218.53911485640782
 20
30.98238583373092
 10
218.53911485640782
 20
32.62767626339303
 10
219.3617600712389
 20
31.80503104856214
  0
LWPOLYLINE
  5
80
330
17
100
AcDbEntity
  8
ENG_D
100
AcDbPolyline
 90
4
 70
1
 10
217.5753260367544
 20
97.96570879964229
 10
217.5753260367544
 20
99.61099922930438
 10
218.3979712515855
 20
98.78835401447317
 10
217.5753260367544
 20
97.96570879964229
  0
LWPOLYLINE
  5
81
330
17
100
AcDbEntity
  8
ENG_D
100
AcDbPolyline
 90
7
 70
1
 10
216.3705900121877
 20
100.36298827467604
 10
218.6911465780934
 20
98.81595056407222
 10
218.68556740576796
 20
98.80248125057733
 10
214.90198565736358
 20
99.55919760025822
 10
215.2226892991899
 20
102.44553037669546
 10
216.3705900121877
 20
101.2976296636977
 10
216.3705900121877
 20
100.36298827467604
  0
LWPOLYLINE
  5
82
330
17
100
AcDbEntity
  8
ENG_D
100
AcDbPolyline
 90
8
 70
1
 10
212.61523833366516
 20
137.82180121043575
 10
213.42234363387922
 20
137.82180121043575
 10
215.36636649762528
 20
138.79381264230884
 10
218.07171088939748
 20
138.40733487205569
 10
212.51942297996115
 20
136.36175511594752
 10
211.51461027744816
 20
136.69669268345186
 10
211.88556637464833
 20
138.5514731694526
 10
212.61523833366516
 20
137.82180121043575
  0
LWPOLYLINE
  5
83
330
17
100
AcDbEntity
  8
ENG_D
100
AcDbPolyline
 90
5
 70
1
 10
215.888695602361
 20
51.662505451547716
 10
216.47588780178097
 20
52.249697650967875
 10
216.94583360653127
 20
50.83986023671672
 10
215.888695602361
 20
50.83986023671672
 10
215.888695602361
 20
51.662505451547716
  0
LWPOLYLINE
  5
84
330
17
100
AcDbEntity
  8
ENG_D
100
AcDbPolyline
 90
4
 70
1
 10
214.53781260476498
 20
43.89702482107016
 10
216.0410839950365
 20
44.39811528449389
 10
216.54217445846035
 20
42.894843894222376
 10
214.53781260476498
 20
43.89702482107016
  0
LWPOLYLINE
  5
85
330
17
100
AcDbEntity
  8
ENG_D
100
AcDbPolyline
 90
4
 70
1
 10
216.4703936122787
 20
50.117018621976705
 10
215.64774839744763
 20
49.294373407145486
 10
215.64774839744763
 20
50.93966383680759
 10
216.4703936122787
 20
50.117018621976705
  0
LWPOLYLINE
  5
86
330
17
100
AcDbEntity
  8
ENG_D
100
AcDbPolyline
 90
5
 70
1
 10
214.82610185177782
 20
46.884487695701196
 10
216.07143569832465
 20
47.299598977883605
 10
216.42355114817676
 20
45.53902172862312
 10
215.4988348353169
 20
45.53902172862312
 10
214.82610185177782
 20
46.884487695701196
  0
LWPOLYLINE
  5
87
330
17
100
AcDbEntity
  8
ENG_D
100
AcDbPolyline
 90
5
 70
1
 10
214.2609798767588
 20
146.29584227370262
 10
210.4958432893058
 20
146.0062163823602
 10
209.8061007707359
 20
146.6959589009299
 10
213.57123735818905
 20
146.98558479227253
 10
214.2609798767588
 20
146.29584227370262
  0
LWPOLYLINE
  5
88
330
17
100
AcDbEntity
  8
ENG_D
100
AcDbPolyline
 90
12
 70
1
 10
211.7814394316845
 20
52.26388817317995
 10
212.03948874200577
 20
41.68386645000943
 10
211.069751504094
 20
41.68386645000943
 10
211.069751504094
 20
44.2344821039653
 10
210.5878570942673
 20
44.716376513792014
 10
210.5878570942673
 20
45.8797725336274
 10
210.96994790400296
 20
46.26186334336302
 10
210.5878570942673
 20
46.64395415309875
 10
210.5878570942673
 20
49.39417700723669
 10
209.6240682746139
 20
49.39417700723669
 10
209.6240682746139
 20
50.7229087752723
 10
211.7814394316845
 20
52.26388817317995
  0
LWPOLYLINE
  5
89
330
17
100
AcDbEntity
  8
ENG_D
100
AcDbPolyline
 90
20
 70
1
 10
209.64326432821102
 20
93.46902769422572
 10
210.14068867162274
 20
91.97675466399058
 10
209.6240682746139
 20
91.46013426698174
 10
209.6240682746139
 20
88.28648059837685
 10
210.56887081300258
 20
87.34167805998815
 10
211.04196148473875
 20
84.97622470130739
 10
212.0872585839669
 20
84.45357615169324
 10
211.67346650787206
 20
83.21219992340878
 10
207.21459622548042
 20
86.62192425700232
 10
207.21459622548042
 20
87.60497898836816
 10
206.7327018156537
 20
88.08687339819488
 10
206.7327018156537
 20
90.65302896676741
 10
207.1623683856674
 20
91.5123621067947
 10
206.65550781491282
 20
92.01922267754937
 10
208.1783850451338
 20
94.04972565117731
 10
208.1783850451338
 20
97.41988594388428
 10
209.51855430845768
 20
99.29612291253764
 10
211.06975150409403
 20
98.98588347341031
 10
211.06975150409403
 20
96.32200204599161
 10
209.64326432821102
 20
93.46902769422572
  0
LWPOLYLINE
  5
8A
330
17
100
AcDbEntity
  8
ENG_D
100
AcDbPolyline
 90
4
 70
1
 10
211.65144951401172
 20
61.68248445781743
 10
210.82880429918066
 20
60.859839242986105
 10
210.82880429918066
 20
62.50512967264843
 10
211.65144951401172
 20
61.68248445781743
  0
LWPOLYLINE
  5
8B
330
17
100
AcDbEntity
  8
ENG_D
100
AcDbPolyline
 90
4
 70
1
 10
209.38312106970056
 20
137.1987631957866
 10
210.20576628453165
 20
136.3761179809557
 10
209.38312106970056
 20
135.55347276612451
 10
209.38312106970056
 20
137.1987631957866
  0
LWPOLYLINE
  5
8C
330
17
100
AcDbEntity
  8
ENG_D
100
AcDbPolyline
 90
4
 70
1
 10
209.24197746487823
 20
135.894223571129
 10
208.41933225004715
 20
135.071578356298
 10
208.41933225004715
 20
136.71686878596
 10
209.24197746487823
 20
135.894223571129
  0
LWPOLYLINE
  5
8D
330
17
100
AcDbEntity
  8
ENG_D
100
AcDbPolyline
 90
39
 70
1
 10
201.9250515071721
 20
81.26272574462878
 10
201.4238858821571
 20
88.78021011985382
 10
203.7586645033127
 20
90.5961490474193
 10
204.70532057625584
 20
90.5961490474193
 10
205.39231637576694
 20
91.28314484693034
 10
205.8428598108674
 20
89.93151454162884
 10
204.45838615052634
 20
89.65461980956069
 10
202.87754653704013
 20
87.6221117350785
 10
202.87754653704013
 20
86.84079736889672
 10
204.48904120800142
 20
85.2293026979355
 10
203.35944094686684
 20
84.66450256736823
 10
203.35944094686684
 20
84.38840163902029
 10
204.28030608577726
 20
82.54667136119942
 10
205.28701858617362
 20
81.53995886080313
 10
206.17689691703458
 20
82.42983719166408
 10
208.333647040194
 20
81.89064966087423
 10
209.17588798247124
 20
80.48691475707881
 10
208.71250729477353
 20
79.56015338168332
 10
209.2419774648782
 20
79.03068321157858
 10
208.66027945496052
 20
78.44898520166088
 10
208.66027945496052
 20
74.59382992304731
 10
208.1783850451338
 20
74.1119355132206
 10
208.1783850451338
 20
73.34775389374914
 10
208.66027945496052
 20
72.86585948392243
 10
208.66027945496052
 20
66.89506211296691
 10
205.86103636094384
 20
63.58686572912908
 10
204.26913657239194
 20
63.90524568683942
 10
204.8391960636981
 20
66.18548365206411
 10
205.83026875785546
 20
66.68101999914278
 10
206.25080740582703
 20
67.52209729508584
 10
206.25080740582703
 20
69.44967493439258
 10
207.1623683856674
 20
71.2727968940734
 10
204.3232297665202
 20
74.1119355132206
 10
204.3232297665202
 20
76.52140756235414
 10
203.84133535669352
 20
77.00330197218075
 10
203.84133535669352
 20
79.4127740213143
 10
203.3594409468668
 20
79.89466843114101
 10
203.3594409468668
 20
80.7845959313973
 10
201.9250515071721
 20
81.26272574462878
  0
LWPOLYLINE
  5
8E
330
17
100
AcDbEntity
  8
ENG_D
100
AcDbPolyline
 90
4
 70
1
 10
207.45554343039376
 20
135.071578356298
 10
207.45554343039376
 20
136.71686878596
 10
208.27818864522484
 20
135.894223571129
 10
207.45554343039376
 20
135.071578356298
  0
LWPOLYLINE
  5
8F
330
17
100
AcDbEntity
  8
ENG_D
100
AcDbPolyline
 90
4
 70
1
 10
207.45554343039376
 20
86.11795575415671
 10
208.27818864522482
 20
85.29531053932571
 10
207.45554343039376
 20
84.47266532449437
 10
207.45554343039376
 20
86.11795575415671
  0
LWPOLYLINE
  5
90
330
17
100
AcDbEntity
  8
ENG_D
100
AcDbPolyline
 90
5
 70
1
 10
206.31588501873594
 20
90.56142306023729
 10
205.08191719648931
 20
90.97274566765267
 10
206.18572979291812
 20
92.07655826408168
 10
207.41969761516472
 20
91.66523565666596
 10
206.31588501873594
 20
90.56142306023729
  0
LWPOLYLINE
  5
91
330
17
100
AcDbEntity
  8
ENG_D
100
AcDbPolyline
 90
9
 70
1
 10
205.29415214262374
 20
58.27641228450797
 10
204.46768273275086
 20
56.347983661471204
 10
202.76190591054686
 20
56.689139025911885
 10
203.3594409468668
 20
57.88420909855185
 10
203.3594409468668
 20
61.143710128642724
 10
202.77874160611037
 20
62.30510881015561
 10
203.90641296960243
 20
62.68099926465287
 10
204.7913441747698
 20
61.79606805948556
 10
205.29415214262374
 20
58.27641228450797
  0
LWPOLYLINE
  5
92
330
17
100
AcDbEntity
  8
ENG_D
100
AcDbPolyline
 90
4
 70
1
 10
202.15470492230006
 20
57.96847278402606
 10
202.15470492230006
 20
59.613763213688166
 10
202.97735013713114
 20
58.79111799885728
 10
202.15470492230006
 20
57.96847278402606
  0
LWPOLYLINE
  5
93
330
17
100
AcDbEntity
  8
ENG_D
100
AcDbPolyline
 90
4
 70
1
 10
177.57809002113845
 20
284.6584526027567
 10
178.40073523596953
 20
283.83580738792546
 10
177.57809002113845
 20
283.01316217309426
 10
177.57809002113845
 20
284.6584526027567
  0
LWPOLYLINE
  5
94
330
17
100
AcDbEntity
  8
ENG_D
100
AcDbPolyline
 90
5
 70
1
 10
175.34448756400957
 20
284.76487022039686
 10
174.7225693774073
 20
285.38678840699873
 10
175.95653719965404
 20
285.7981110144143
 10
176.57845538625608
 20
285.17619282781203
 10
175.34448756400957
 20
284.76487022039686
  0
LWPOLYLINE
  5
95
330
17
100
AcDbEntity
  8
ENG_D
100
AcDbPolyline
 90
5
 70
1
 10
174.9927483800004
 20
278.9821373024766
 10
173.75878055775377
 20
279.3934599098917
 10
174.86259315418263
 20
280.4972725063206
 10
176.0965609764293
 20
280.085949898905
 10
174.9927483800004
 20
278.9821373024766
  0
LWPOLYLINE
  5
96
330
17
100
AcDbEntity
  8
ENG_D
100
AcDbPolyline
 90
5
 70
1
 10
173.41690992470276
 20
285.7286590400503
 10
172.7949917381005
 20
286.35057722665215
 10
174.0289595603472
 20
286.7618998340677
 10
174.6508777469493
 20
286.13998164746545
 10
173.41690992470276
 20
285.7286590400503
  0
LWPOLYLINE
  5
97
330
17
100
AcDbEntity
  8
ENG_D
100
AcDbPolyline
 90
5
 70
1
 10
173.27027213037798
 20
287.8613380690413
 10
172.0736546161283
 20
286.6647205547914
 10
170.44298008530612
 20
287.64312527328497
 10
170.98732778722695
 20
288.1874729752059
 10
173.27027213037798
 20
287.8613380690413
  0
LWPOLYLINE
  5
98
330
17
100
AcDbEntity
  8
ENG_D
100
AcDbPolyline
 90
4
 70
1
 10
172.27725151304477
 20
287.5498190617163
 10
173.09989672787583
 20
286.7271738468857
 10
172.27725151304477
 20
285.9045286320545
 10
172.27725151304477
 20
287.5498190617163
  0
LWPOLYLINE
  5
99
330
17
100
AcDbEntity
  8
ENG_D
100
AcDbPolyline
 90
6
 70
1
 10
167.59945101960017
 20
289.13664589601916
 10
169.2447414492622
 20
289.13664589601916
 10
170.40191344052772
 20
287.97947390475366
 10
167.12678437730628
 20
287.6817348990064
 10
166.6356621999467
 20
288.17285707636574
 10
167.59945101960017
 20
289.13664589601916
  0
LWPOLYLINE
  5
9A
330
17
100
AcDbEntity
  8
ENG_D
100
AcDbPolyline
 90
4
 70
1
 10
163.93889957296204
 20
282.43475768528594
 10
165.44217096323314
 20
282.93584814870985
 10
165.94326142665685
 20
281.43257675843824
 10
163.93889957296204
 20
282.43475768528594
  0
LWPOLYLINE
  5
9B
330
17
100
AcDbEntity
  8
ENG_D
100
AcDbPolyline
 90
4
 70
1
 10
140.47222046448266
 20
121.77814208133265
 10
141.29486567931372
 20
120.9554968665013
 10
140.47222046448266
 20
120.13285165167031
 10
140.47222046448266
 20
121.77814208133265
  0
LWPOLYLINE
  5
9C
330
17
100
AcDbEntity
  8
ENG_D
100
AcDbPolyline
 90
5
 70
1
 10
133.41967390908667
 20
145.9792801903076
 10
132.7977557224845
 20
146.60119837690954
 10
134.03172354473114
 20
147.01252098432528
 10
134.65364173133324
 20
146.39060279772298
 10
133.41967390908667
 20
145.9792801903076
  0
LWPOLYLINE
  5
9D
330
17
100
AcDbEntity
  8
ENG_D
100
AcDbPolyline
 90
4
 70
1
 10
133.58455512208653
 20
139.26748443991588
 10
132.76190990725547
 20
138.44483922508488
 10
132.76190990725547
 20
140.09012965474722
 10
133.58455512208653
 20
139.26748443991588
  0
LWPOLYLINE
  5
9E
330
17
100
AcDbEntity
  8
ENG_D
100
AcDbPolyline
 90
4
 70
1
 10
128.90675462864186
 20
136.7168687859599
 10
129.72939984347295
 20
135.894223571129
 10
128.90675462864186
 20
135.07157835629812
 10
128.90675462864186
 20
136.7168687859599
  0
LWPOLYLINE
  5
9F
330
17
100
AcDbEntity
  8
ENG_D
100
AcDbPolyline
 90
5
 70
1
 10
126.73822978442173
 20
135.51213276139327
 10
127.32542198384172
 20
136.09932496081345
 10
127.79536778859207
 20
134.6894875465623
 10
126.73822978442173
 20
134.6894875465623
 10
126.73822978442173
 20
135.51213276139327
  0
LWPOLYLINE
  5
A0
330
17
100
AcDbEntity
  8
ENG_D
100
AcDbPolyline
 90
5
 70
1
 10
127.28520180715735
 20
143.6392601155384
 10
127.90711999375945
 20
143.0173419289361
 10
126.67315217151284
 20
142.60601932152073
 10
126.05123398491075
 20
143.2279375081227
 10
127.28520180715735
 20
143.6392601155384
  0
LWPOLYLINE
  5
A1
330
17
100
AcDbEntity
  8
ENG_D
100
AcDbPolyline
 90
4
 70
1
 10
125.53349375985498
 20
133.14400071699106
 10
125.53349375985498
 20
134.78929114665317
 10
126.35613897468606
 20
133.96664593182228
 10
125.53349375985498
 20
133.14400071699106
  0
LWPOLYLINE
  5
A2
330
17
100
AcDbEntity
  8
ENG_D
100
AcDbPolyline
 90
4
 70
1
 10
125.87424456485938
 20
130.1114906532086
 10
125.0515993500283
 20
129.2888454383777
 10
125.0515993500283
 20
130.93413586803982
 10
125.87424456485938
 20
130.1114906532086
  0
LWPOLYLINE
  5
A3
330
17
100
AcDbEntity
  8
ENG_D
100
AcDbPolyline
 90
4
 70
1
 10
124.0878105303749
 20
134.78929114665317
 10
124.91045574520598
 20
133.96664593182228
 10
124.0878105303749
 20
133.14400071699106
 10
124.0878105303749
 20
134.78929114665317
  0
LWPOLYLINE
  5
A4
330
17
100
AcDbEntity
  8
ENG_D
100
AcDbPolyline
 90
4
 70
1
 10
124.0878105303749
 20
130.45224145821288
 10
124.91045574520598
 20
129.629596243382
 10
124.0878105303749
 20
128.80695102855077
 10
124.0878105303749
 20
130.45224145821288
  0
LWPOLYLINE
  5
A5
330
17
100
AcDbEntity
  8
ENG_D
100
AcDbPolyline
 90
5
 70
1
 10
123.91194093837042
 20
145.0849433450183
 10
124.53385912497261
 20
144.46302515841626
 10
123.29989130272598
 20
144.05170255100086
 10
122.67797311612378
 20
144.67362073760293
 10
123.91194093837042
 20
145.0849433450183
  0
LWPOLYLINE
  5
A6
330
17
100
AcDbEntity
  8
ENG_D
100
AcDbPolyline
 90
4
 70
1
 10
118.7869720222812
 20
148.76422903162768
 10
120.19680943653229
 20
147.3543916173764
 10
118.7869720222812
 20
146.88444581262615
 10
118.7869720222812
 20
148.76422903162768
  0
LWPOLYLINE
  5
A7
330
17
100
AcDbEntity
  8
ENG_D
100
AcDbPolyline
 90
5
 70
1
 10
119.11640797785373
 20
145.54342661709495
 10
119.79372913045658
 20
144.86610546449197
 10
117.0118528372286
 20
144.55700809857763
 10
116.33453168462574
 20
145.23432925118064
 10
119.11640797785373
 20
145.54342661709495
  0
LWPOLYLINE
  5
A8
330
17
100
AcDbEntity
  8
ENG_D
100
AcDbPolyline
 90
5
 70
1
 10
118.54602481736785
 20
124.08781053037498
 10
118.54602481736785
 20
124.91045574520587
 10
119.13321701678782
 20
125.49764794462604
 10
119.60316282153816
 20
124.08781053037498
 10
118.54602481736785
 20
124.08781053037498
  0
LWPOLYLINE
  5
A9
330
17
100
AcDbEntity
  8
ENG_D
100
AcDbPolyline
 90
5
 70
1
 10
118.65132260696113
 20
126.46143676427945
 10
119.12126841171147
 20
125.05159935002841
 10
118.06413040754116
 20
125.05159935002841
 10
118.06413040754116
 20
125.8742445648593
 10
118.65132260696113
 20
126.46143676427945
  0
LWPOLYLINE
  5
AA
330
17
100
AcDbEntity
  8
ENG_D
100
AcDbPolyline
 90
8
 70
1
 10
114.63864169894124
 20
149.43484280655463
 10
115.58958074549876
 20
150.385781853112
 10
116.56798546399209
 20
150.05964694694774
 10
116.80281255786738
 20
149.3551656653217
 10
118.48156971778944
 20
149.01941423333741
 10
116.66253644342312
 20
147.9279942687176
 10
115.25090258168602
 20
148.21032104106501
 10
114.63864169894124
 20
149.43484280655463
  0
LWPOLYLINE
  5
AB
330
17
100
AcDbEntity
  8
ENG_D
100
AcDbPolyline
 90
5
 70
1
 10
116.13655276823437
 20
124.42856133537927
 10
116.72374496765435
 20
125.01575353479922
 10
117.1936907724047
 20
123.60591612054827
 10
116.13655276823437
 20
123.60591612054827
 10
116.13655276823437
 20
124.42856133537927
  0
LWPOLYLINE
  5
AC
330
17
100
AcDbEntity
  8
ENG_D
100
AcDbPolyline
 90
4
 70
1
 10
115.89560556332101
 20
118.88677562237237
 10
116.71825077815211
 20
118.06413040754116
 10
115.89560556332101
 20
117.24148519271027
 10
115.89560556332101
 20
118.88677562237237
  0
LWPOLYLINE
  5
AD
330
17
100
AcDbEntity
  8
ENG_D
100
AcDbPolyline
 90
10
 70
1
 10
116.61844717806107
 20
153.41608724437828
 10
116.61844717806107
 20
152.12971994310598
 10
115.61073307301035
 20
151.62586289058066
 10
115.32926785911619
 20
150.7814672488982
 10
112.28139748962077
 20
151.61270462239685
 10
112.28139748962077
 20
155.26980356428788
 10
113.14538270918308
 20
156.13378878385032
 10
113.8428859327147
 20
156.13378878385032
 10
115.79835625019463
 20
153.68945088700036
 10
116.61844717806107
 20
153.41608724437828
  0
LWPOLYLINE
  5
AE
330
17
100
AcDbEntity
  8
ENG_D
100
AcDbPolyline
 90
5
 70
1
 10
114.20897512892756
 20
136.13517077604243
 10
114.20897512892756
 20
136.95781599087343
 10
114.79616732834758
 20
137.54500819029337
 10
115.26611313309789
 20
136.13517077604243
 10
114.20897512892756
 20
136.13517077604243
  0
LWPOLYLINE
  5
AF
330
17
100
AcDbEntity
  8
ENG_D
100
AcDbPolyline
 90
4
 70
1
 10
114.79067313884529
 20
135.4123291613023
 10
113.96802792401422
 20
134.5896839464714
 10
113.96802792401422
 20
136.23497437613364
 10
114.79067313884529
 20
135.4123291613023
  0
LWPOLYLINE
  5
B0
330
17
100
AcDbEntity
  8
ENG_D
100
AcDbPolyline
 90
5
 70
1
 10
113.72708071910087
 20
134.54834394173986
 10
114.31427291852084
 20
135.13553614116003
 10
114.78421872327118
 20
133.72569872690897
 10
113.72708071910087
 20
133.72569872690897
 10
113.72708071910087
 20
134.54834394173986
  0
LWPOLYLINE
  5
B1
330
17
100
AcDbEntity
  8
ENG_D
100
AcDbPolyline
 90
4
 70
1
 10
113.48613351418753
 20
135.75307996630693
 10
114.3087787290186
 20
134.9304347514756
 10
113.48613351418753
 20
134.1077895366447
 10
113.48613351418753
 20
135.75307996630693
  0
LWPOLYLINE
  5
B2
330
17
100
AcDbEntity
  8
ENG_D
100
AcDbPolyline
 90
7
 70
1
 10
112.7010793808849
 20
131.86864224941763
 10
111.39880378332526
 20
129.69818292015168
 10
111.39404401389353
 20
129.69987283166662
 10
111.81650546774603
 20
132.65710300863387
 10
113.85249946966984
 20
134.1113844385795
 10
114.25480732329854
 20
132.90446087769348
 10
112.7010793808849
 20
131.86864224941763
  0
LWPOLYLINE
  5
B3
330
17
100
AcDbEntity
  8
ENG_D
100
AcDbPolyline
 90
4
 70
1
 10
113.82688431919192
 20
134.44854034164888
 10
113.00423910436082
 20
133.625895126818
 10
113.00423910436082
 20
135.2711855564801
 10
113.82688431919192
 20
134.44854034164888
  0
LWPOLYLINE
  5
B4
330
17
100
AcDbEntity
  8
ENG_D
100
AcDbPolyline
 90
4
 70
1
 10
111.07666146505403
 20
129.2888454383777
 10
111.07666146505403
 20
130.93413586803982
 10
111.89930667988513
 20
130.1114906532086
 10
111.07666146505403
 20
129.2888454383777
  0
LWPOLYLINE
  5
B5
330
17
100
AcDbEntity
  8
ENG_D
100
AcDbPolyline
 90
5
 70
1
 10
109.66682405080297
 20
129.04240404396182
 10
110.83571426014065
 20
130.21129425329968
 10
111.35233465714948
 20
129.69467385629085
 10
110.9881026528162
 20
128.60197784329085
 10
109.66682405080297
 20
129.04240404396182
  0
LWPOLYLINE
  5
B6
330
17
100
AcDbEntity
  8
ENG_D
100
AcDbPolyline
 90
17
 70
1
 10
107.86203040858895
 20
160.09669892829902
 10
108.82581922824235
 20
160.57859333812564
 10
108.42624221100719
 20
161.3777473725959
 10
108.42624221100719
 20
163.46200853134184
 10
109.4713057134705
 20
164.50707203380512
 10
110.353819850314
 20
162.4478723811704
 10
110.353819850314
 20
156.99777400341276
 10
109.97172904057831
 20
156.61568319367703
 10
110.45362345040502
 20
156.13378878385032
 10
109.87192544048729
 20
155.55209077393272
 10
109.87192544048729
 20
154.1064075444526
 10
108.90813662083389
 20
153.14261872479906
 10
107.90257471776734
 20
154.1481806278657
 10
108.86636353742072
 20
156.55765267699917
 10
108.42624221100719
 20
156.99777400341276
 10
108.42624221100719
 20
158.96827532346248
 10
107.86203040858895
 20
160.09669892829902
  0
LWPOLYLINE
  5
B7
330
17
100
AcDbEntity
  8
ENG_D
100
AcDbPolyline
 90
5
 70
1
 10
108.90813662083389
 20
146.73684779222984
 10
108.90813662083389
 20
147.55949300706072
 10
109.49532882025383
 20
148.1466852064809
 10
109.96527462500421
 20
146.73684779222984
 10
108.90813662083389
 20
146.73684779222984
  0
LWPOLYLINE
  5
B8
330
17
100
AcDbEntity
  8
ENG_D
100
AcDbPolyline
 90
5
 70
1
 10
107.46245339135379
 20
126.356138974686
 10
108.04964559077375
 20
126.94333117410616
 10
108.5195913955241
 20
125.533493759855
 10
107.46245339135379
 20
125.533493759855
 10
107.46245339135379
 20
126.356138974686
  0
LWPOLYLINE
  5
B9
330
17
100
AcDbEntity
  8
ENG_D
100
AcDbPolyline
 90
5
 70
1
 10
107.61484178402931
 20
124.26492815485058
 10
106.29356318201607
 20
124.70535435552155
 10
107.46245339135375
 20
125.87424456485941
 10
107.97907378836263
 20
125.35762416785067
 10
107.61484178402931
 20
124.26492815485058
  0
LWPOLYLINE
  5
BA
330
17
100
AcDbEntity
  8
ENG_D
100
AcDbPolyline
 90
5
 70
1
 10
106.49866457170039
 20
123.94666692555256
 10
107.08585677112039
 20
124.53385912497251
 10
107.5558025758707
 20
123.12402171072156
 10
106.49866457170039
 20
123.12402171072156
 10
106.49866457170039
 20
123.94666692555256
  0
LWPOLYLINE
  5
BB
330
17
100
AcDbEntity
  8
ENG_D
100
AcDbPolyline
 90
5
 70
1
 10
106.49866457170039
 20
123.46477251572585
 10
107.01528496870921
 20
122.94815211871702
 10
106.65105296437589
 20
121.85545610571712
 10
105.32977436236266
 20
122.29588230638811
 10
106.49866457170039
 20
123.46477251572585
  0
LWPOLYLINE
  5
BC
330
17
100
AcDbEntity
  8
ENG_D
100
AcDbPolyline
 90
5
 70
1
 10
106.12206795146697
 20
122.12438707583917
 10
106.5920137562173
 20
120.71454966158801
 10
105.534875752047
 20
120.71454966158801
 10
105.534875752047
 20
121.53719487641901
 10
106.12206795146697
 20
122.12438707583917
  0
LWPOLYLINE
  5
BD
330
17
100
AcDbEntity
  8
ENG_D
100
AcDbPolyline
 90
5
 70
1
 10
105.64017354164027
 20
121.16059825618575
 10
106.11011934639062
 20
119.7507608419347
 10
105.05298134222029
 20
119.7507608419347
 10
105.05298134222029
 20
120.57340605676559
 10
105.64017354164027
 20
121.16059825618575
  0
LWPOLYLINE
  5
BE
330
17
100
AcDbEntity
  8
ENG_D
100
AcDbPolyline
 90
9
 70
1
 10
104.5005380162596
 20
152.102649863758
 10
103.23091766906978
 20
150.32518137769225
 10
101.43194292424327
 20
150.68497632665745
 10
102.66249557435155
 20
151.91552897676587
 10
103.14438998417828
 20
154.3250010258994
 10
103.98938892247584
 20
155.1699999641969
 10
105.21186100341636
 20
155.1699999641969
 10
106.07623926197226
 20
153.15311736089976
 10
104.5005380162596
 20
152.102649863758
  0
LWPOLYLINE
  5
BF
330
17
100
AcDbEntity
  8
ENG_D
100
AcDbPolyline
 90
5
 70
1
 10
98.5832526247889
 20
146.39060279772298
 10
99.75214283412657
 20
147.55949300706084
 10
100.26876323113544
 20
147.04287261005211
 10
99.90453122680212
 20
145.950176597052
 10
98.5832526247889
 20
146.39060279772298
  0
LWPOLYLINE
  5
C0
330
17
100
AcDbEntity
  8
ENG_D
100
AcDbPolyline
 90
4
 70
1
 10
98.54740680955987
 20
145.1913609626584
 10
98.54740680955987
 20
146.83665139232062
 10
99.37005202439093
 20
146.0140061774897
 10
98.54740680955987
 20
145.1913609626584
  0
LWPOLYLINE
  5
C1
330
17
100
AcDbEntity
  8
ENG_D
100
AcDbPolyline
 90
5
 70
1
 10
97.74537194058271
 20
147.4802997528236
 10
99.51802597349005
 20
147.1257689462423
 10
98.30645960464652
 20
145.9142025773986
 10
97.2428671849021
 20
146.97779499714315
 10
97.74537194058271
 20
147.4802997528236
  0
LWPOLYLINE
  5
C2
330
17
100
AcDbEntity
  8
ENG_D
100
AcDbPolyline
 90
4
 70
1
 10
96.61982917025307
 20
147.31854580214753
 10
97.44247438508415
 20
146.49590058731633
 10
96.61982917025307
 20
145.67325537248544
 10
96.61982917025307
 20
147.31854580214753
  0
LWPOLYLINE
  5
C3
330
17
100
AcDbEntity
  8
ENG_D
100
AcDbPolyline
 90
5
 70
1
 10
95.41509314568631
 20
148.80556903635878
 10
94.88842077496044
 20
149.33224140708478
 10
95.81571287270312
 20
151.49592296848425
 10
96.96057997525745
 20
150.35105586593
 10
95.41509314568631
 20
148.80556903635878
  0
LWPOLYLINE
  5
C4
330
17
100
AcDbEntity
  8
ENG_D
100
AcDbPolyline
 90
4
 70
1
 10
96.47868556543077
 20
146.97779499714315
 10
95.65604035059967
 20
146.15514978231192
 10
95.65604035059967
 20
147.80044021197403
 10
96.47868556543077
 20
146.97779499714315
  0
LWPOLYLINE
  5
C5
330
17
100
AcDbEntity
  8
ENG_D
100
AcDbPolyline
 90
5
 70
1
 10
94.96903604269838
 20
149.67436587311022
 10
96.02144618743571
 20
147.21874220205643
 10
93.96940991620623
 20
147.21874220205643
 10
93.96940991620623
 20
148.00832232895667
 10
94.96903604269838
 20
149.67436587311022
  0
LWPOLYLINE
  5
C6
330
17
100
AcDbEntity
  8
ENG_D
100
AcDbPolyline
 90
4
 70
1
 10
95.99679115560407
 20
146.49590058731633
 10
95.17414594077297
 20
145.67325537248544
 10
95.17414594077297
 20
147.31854580214753
 10
95.99679115560407
 20
146.49590058731633
  0
LWPOLYLINE
  5
C7
330
17
100
AcDbEntity
  8
ENG_D
100
AcDbPolyline
 90
5
 70
1
 10
94.51638193894182
 20
27.984601757130577
 10
95.13830012554395
 20
27.362683570528624
 10
93.90433230329732
 20
26.951360963112904
 10
93.28241411669524
 20
27.57327914971519
 10
94.51638193894182
 20
27.984601757130577
  0
LWPOLYLINE
  5
C8
330
17
100
AcDbEntity
  8
ENG_D
100
AcDbPolyline
 90
5
 70
1
 10
87.7899702897103
 20
4.3224337896002885
 10
85.5070259465592
 20
4.64856869576491
 10
87.18553787063563
 20
6.327080619841219
 10
88.81621240145785
 20
5.348675901348021
 10
87.7899702897103
 20
4.3224337896002885
  0
LWPOLYLINE
  5
C9
330
17
100
AcDbEntity
  8
ENG_D
100
AcDbPolyline
 90
6
 70
1
 10
79.00807361222844
 20
49.55793021140897
 10
78.50401084085269
 20
50.06199298278491
 10
79.34445299908525
 20
52.02302468532749
 10
81.55107544423193
 20
52.33825646320555
 10
81.16304216521239
 20
51.174156626146996
 10
79.00807361222844
 20
49.55793021140897
  0
LWPOLYLINE
  5
CA
330
17
100
AcDbEntity
  8
ENG_D
100
AcDbPolyline
 90
4
 70
1
 10
78.30784159683853
 20
49.975875017154166
 10
79.1304868116696
 20
49.15322980232328
 10
78.30784159683853
 20
48.330584587491956
 10
78.30784159683853
 20
49.975875017154166
  0
LWPOLYLINE
  5
CB
330
17
100
AcDbEntity
  8
ENG_D
100
AcDbPolyline
 90
4
 70
1
 10
76.38026395753172
 20
14.315688689978456
 10
77.20290917236282
 20
13.49304347514757
 10
76.38026395753172
 20
12.67039826031635
 10
76.38026395753172
 20
14.315688689978456
  0
LWPOLYLINE
  5
CC
330
17
100
AcDbEntity
  8
ENG_D
100
AcDbPolyline
 90
5
 70
1
 10
76.24461454221166
 20
45.503175913393925
 10
76.71456034696202
 20
44.09333849914299
 10
75.65742234279169
 20
44.09333849914299
 10
75.65742234279169
 20
44.915983713973986
 10
76.24461454221166
 20
45.503175913393925
  0
LWPOLYLINE
  5
CD
330
17
100
AcDbEntity
  8
ENG_D
100
AcDbPolyline
 90
4
 70
1
 10
74.93458072805163
 20
41.102168440091845
 10
74.93458072805163
 20
42.74745886975406
 10
75.7572259428827
 20
41.92481365492273
 10
74.93458072805163
 20
41.102168440091845
  0
LWPOLYLINE
  5
CE
330
17
100
AcDbEntity
  8
ENG_D
100
AcDbPolyline
 90
4
 70
1
 10
74.45268631822493
 20
42.26556445992702
 10
75.275331533056
 20
41.442919245096135
 10
74.45268631822493
 20
40.6202740302648
 10
74.45268631822493
 20
42.26556445992702
  0
LWPOLYLINE
  5
CF
330
17
100
AcDbEntity
  8
ENG_D
100
AcDbPolyline
 90
5
 70
1
 10
62.85137466715515
 20
9.743185986127333
 10
60.71869563816406
 20
7.610506957136165
 10
60.16304341209475
 20
8.166159183205401
 10
61.58985334744588
 20
10.163693092696935
 10
62.85137466715515
 20
9.743185986127333
  0
LWPOLYLINE
  5
D0
330
17
100
AcDbEntity
  8
ENG_D
100
AcDbPolyline
 90
4
 70
1
 10
60.33660482842835
 20
7.710310557227151
 10
59.51395961359728
 20
6.887665342396265
 10
59.51395961359728
 20
8.53295577205837
 10
60.33660482842835
 20
7.710310557227151
  0
LWPOLYLINE
  5
D1
330
17
100
AcDbEntity
  8
ENG_D
100
AcDbPolyline
 90
7
 70
1
 10
56.96334395964152
 20
6.264627327747019
 10
57.94611906055954
 20
5.281852226828976
 10
60.238752932261214
 20
4.823325452488758
 10
60.231419098780535
 20
4.686035464690597
 10
56.213410281111905
 20
4.320761935811546
 10
55.56545515046677
 20
6.264627327747019
 10
56.96334395964152
 20
6.264627327747019
  0
LWPOLYLINE
  5
D2
330
17
100
AcDbEntity
  8
ENG_D
100
AcDbPolyline
 90
4
 70
1
 10
57.10448756446379
 20
5.441982112915911
 10
57.10448756446379
 20
7.087272542578016
 10
57.92713277929486
 20
6.26462732774713
 10
57.10448756446379
 20
5.441982112915911
  0
LWPOLYLINE
  5
D3
330
17
100
AcDbEntity
  8
ENG_K
100
AcDbPolyline
 90
8
 70
1
 10
232.11029696466042
 20
113.21739628991901
 10
232.97516948261918
 20
114.9471413258365
 10
233.24207542384605
 20
102.40256208817355
 10
231.45046032163765
 20
102.40256208817355
 10
232.27310553646873
 20
103.22520730300444
 10
232.27310553646873
 20
111.67055204907128
 10
230.4507140496888
 20
112.88547970692464
 10
232.11029696466042
 20
113.21739628991901
  0
LWPOLYLINE
  5
D4
330
17
100
AcDbEntity
  8
ENG_K
100
AcDbPolyline
 90
59
 70
1
 10
220.12594169071025
 20
79.03068321157858
 10
219.74385088097455
 20
79.4127740213143
 10
219.74385088097455
 20
81.53995886080301
 10
220.22574529080129
 20
82.02185327062972
 10
220.22574529080129
 20
86.35890295907001
 10
220.707639700628
 20
86.84079736889672
 10
220.707639700628
 20
88.76837500820356
 10
221.08973051036367
 20
89.15046581793928
 10
220.707639700628
 20
89.532556627675
 10
220.707639700628
 20
91.46013426698174
 10
220.2144304413694
 20
91.95334352624029
 10
220.5171205903054
 20
94.67755486666441
 10
223.54176057741734
 20
92.20284942266377
 10
226.62763865357317
 20
87.21796945348903
 10
233.23689435612215
 20
86.97318220524642
 10
233.23689435612215
 20
28.754784928405886
 10
231.35877298638837
 20
27.949875769948562
 10
229.9634370874263
 20
27.949875769948562
 10
229.48154267759963
 20
27.46798136012185
 10
227.5005636300568
 20
27.46798136012185
 10
225.0910915809233
 20
26.50419254046843
 10
223.69880975967922
 20
26.50419254046843
 10
223.22580274883128
 20
26.031185529620583
 10
220.22574529080129
 20
25.758453033435934
 10
220.22574529080129
 20
26.886283350204152
 10
219.64404728088354
 20
27.46798136012185
 10
220.22574529080129
 20
28.04967937003955
 10
220.22574529080129
 20
28.704692186729332
 10
218.66647845965298
 20
28.927444591179132
 10
217.85919692241075
 20
29.73472612842132
 10
216.85248442201438
 20
31.748151129214143
 10
216.85248442201438
 20
32.61990630608469
 10
215.95005136421614
 20
33.07112283498381
 10
214.92490678270758
 20
35.12141199800101
 10
214.92490678270758
 20
39.13325079605357
 10
215.4068011925343
 20
39.61514520588039
 10
216.3568100106106
 20
38.665136387804
 10
216.83384404722796
 20
35.32589813148235
 10
217.61826496810124
 20
34.85524557895836
 10
217.83583142257027
 20
36.81334366917932
 10
220.4915035728259
 20
37.537617891976296
 10
220.7214197022051
 20
39.14703079763071
 10
221.67142852028138
 20
40.09703961570699
 10
221.67142852028138
 20
44.27740578470818
 10
220.22574529080129
 20
47.168772243668336
 10
220.22574529080129
 20
52.42668707101916
 10
219.64404728088354
 20
53.00838508093686
 10
220.22574529080129
 20
53.590083090854556
 10
220.22574529080129
 20
62.06457526755316
 10
219.74385088097455
 20
62.54646967737987
 10
219.74385088097455
 20
66.60123215617541
 10
220.22574529080129
 20
67.08312656600212
 10
220.22574529080129
 20
67.84730818547358
 10
219.74385088097455
 20
68.32920259530017
 10
219.74385088097455
 20
69.44967493439269
 10
220.17351745098827
 20
70.30900807441998
 10
219.74385088097455
 20
70.73867464443373
 10
219.74385088097455
 20
78.64859240184285
 10
220.12594169071025
 20
79.03068321157858
  0
LWPOLYLINE
  5
D5
330
17
100
AcDbEntity
  8
ENG_K
100
AcDbPolyline
 90
33
 70
1
 10
226.17428965020284
 20
70.42259167608822
 10
226.97226702837506
 20
70.02360298700205
 10
226.97226702837506
 20
67.89023186621657
 10
226.06070604853468
 20
66.06710990653575
 10
226.49037261854838
 20
65.637443336522
 10
226.49037261854838
 20
64.23373064925364
 10
228.3760892621589
 20
63.1861102916923
 10
228.80004106759077
 20
63.610062097124164
 10
229.72721149807379
 20
63.610062097124164
 10
230.34552789716196
 20
64.64058942893769
 10
230.34552789716196
 20
68.52880979548215
 10
230.82742230698864
 20
69.01070420530885
 10
230.82742230698864
 20
75.55761874270073
 10
230.27642527967458
 20
76.10861577001482
 10
231.30931671681535
 20
77.65795292572587
 10
231.30931671681535
 20
78.9308796114876
 10
230.82742230698864
 20
79.4127740213143
 10
230.82742230698864
 20
85.19550693923472
 10
230.2457242970709
 20
85.77720494915242
 10
226.7443347463999
 20
85.77720494915242
 10
226.9761347978648
 20
81.3730039713193
 10
226.04557331242893
 20
79.9771617431655
 10
226.5188125782224
 20
79.03068321157858
 10
226.06070604853468
 20
78.11447015220318
 10
227.07207062846607
 20
77.10310557227173
 10
225.69239524037616
 20
75.72343018418192
 10
226.57269001113988
 20
75.28328279880003
 10
226.0369181683957
 20
74.21173911331158
 10
226.5188125782224
 20
73.24795029365816
 10
226.0607060485347
 20
72.33173723428288
 10
226.49037261854838
 20
71.90207066426912
 10
226.49037261854838
 20
70.73867464443373
 10
226.17428965020284
 20
70.42259167608822
  0
LWPOLYLINE
  5
D6
330
17
100
AcDbEntity
  8
ENG_K
100
AcDbPolyline
 90
4
 70
1
 10
221.7712321203724
 20
116.13655276823431
 10
220.9485869055413
 20
115.31390755340342
 10
220.9485869055413
 20
116.95919798306554
 10
221.7712321203724
 20
116.13655276823431
  0
LWPOLYLINE
  5
D7
330
17
100
AcDbEntity
  8
ENG_K
100
AcDbPolyline
 90
5
 70
1
 10
220.9127410903123
 20
104.94768355262696
 10
219.67877326806573
 20
104.53636094521157
 10
219.05685508146354
 20
105.15827913181353
 10
220.2908229037102
 20
105.56960173922924
 10
220.9127410903123
 20
104.94768355262696
  0
LWPOLYLINE
  5
D8
330
17
100
AcDbEntity
  8
ENG_K
100
AcDbPolyline
 90
5
 70
1
 10
218.79384206289828
 20
109.02172022250201
 10
219.46704896727277
 20
109.69492712687668
 10
219.76044887258897
 20
105.2939285471337
 10
218.26130039498855
 20
105.2939285471337
 10
218.79384206289828
 20
109.02172022250201
  0
LWPOLYLINE
  5
D9
330
17
100
AcDbEntity
  8
ENG_K
100
AcDbPolyline
 90
18
 70
1
 10
216.9522880221054
 20
72.28416147400485
 10
216.3705900121877
 20
71.70246346408715
 10
216.3705900121877
 20
68.52880979548215
 10
216.85248442201438
 20
68.04691538565555
 10
216.85248442201438
 20
66.40162495599344
 10
216.3705900121877
 20
65.91973054616673
 10
216.3705900121877
 20
61.92343166273084
 10
214.9225561339311
 20
61.92343166273084
 10
215.17143599137916
 20
87.55805697987873
 10
216.3705900121877
 20
86.35890295907001
 10
216.3705900121877
 20
82.02185327062972
 10
216.85248442201438
 20
81.53995886080301
 10
216.85248442201438
 20
79.4127740213143
 10
216.42281785200072
 20
78.98310745130055
 10
216.9047122618274
 20
78.01931863164712
 10
216.3705900121877
 20
77.48519638200746
 10
216.3705900121877
 20
72.86585948392243
 10
216.9522880221054
 20
72.28416147400485
  0
LWPOLYLINE
  5
DA
330
17
100
AcDbEntity
  8
ENG_K
100
AcDbPolyline
 90
5
 70
1
 10
215.8108775971377
 20
49.39417700723669
 10
214.90830879109322
 20
49.39417700723669
 10
215.20170869640938
 20
53.79517558697944
 10
216.89425750542753
 20
52.10262677796129
 10
215.8108775971377
 20
49.39417700723669
  0
LWPOLYLINE
  5
DB
330
17
100
AcDbEntity
  8
ENG_K
100
AcDbPolyline
 90
4
 70
1
 10
215.16585398762095
 20
46.602614148367415
 10
216.575691401872
 20
45.19277673411648
 10
215.16585398762095
 20
44.72283092936591
 10
215.16585398762095
 20
46.602614148367415
  0
LWPOLYLINE
  5
DC
330
17
100
AcDbEntity
  8
ENG_K
100
AcDbPolyline
 90
5
 70
1
 10
214.92490678270758
 20
46.98470495810314
 10
214.92490678270758
 20
48.77113899258756
 10
215.48807587534424
 20
49.3343080852241
 10
216.49504864411037
 20
46.98470495810314
 10
214.92490678270758
 20
46.98470495810314
  0
LWPOLYLINE
  5
DD
330
17
100
AcDbEntity
  8
ENG_K
100
AcDbPolyline
 90
5
 70
1
 10
215.6119025822186
 20
102.05631709366692
 10
214.37793475997194
 20
101.64499448625119
 10
213.75601657336992
 20
102.26691267285348
 10
214.98998439561646
 20
102.67823528026886
 10
215.6119025822186
 20
102.05631709366692
  0
LWPOLYLINE
  5
DE
330
17
100
AcDbEntity
  8
ENG_K
100
AcDbPolyline
 90
16
 70
1
 10
210.5878570942673
 20
96.43576188468784
 10
210.5878570942673
 20
98.59082455553603
 10
209.73504171642426
 20
98.76138763110464
 10
208.53809164748338
 20
96.96596252769329
 10
208.15430509881557
 20
98.88489527103228
 10
210.6227229419838
 20
100.85962954556693
 10
210.89608658460594
 20
101.67972047343332
 10
211.78912643329278
 20
101.67972047343332
 10
212.03705761516014
 20
84.57246892458569
 10
210.63127484024355
 20
84.57246892458569
 10
210.12494896570533
 20
87.10409829727672
 10
209.1421738647872
 20
88.08687339819488
 10
209.1421738647872
 20
91.61681778642073
 10
209.5956283149399
 20
92.52372668672615
 10
209.11373390511318
 20
93.48751550637957
 10
210.5878570942673
 20
96.43576188468784
  0
LWPOLYLINE
  5
DF
330
17
100
AcDbEntity
  8
ENG_K
100
AcDbPolyline
 90
4
 70
1
 10
208.90122665987386
 20
136.7168687859599
 10
209.7238718747049
 20
135.894223571129
 10
208.90122665987386
 20
135.07157835629812
 10
208.90122665987386
 20
136.7168687859599
  0
LWPOLYLINE
  5
E0
330
17
100
AcDbEntity
  8
ENG_K
100
AcDbPolyline
 90
5
 70
1
 10
208.6768774465749
 20
93.72846271129298
 10
207.6964906353071
 20
93.72846271129298
 10
207.6964906353071
 20
97.44247438508413
 10
208.3834775412587
 20
98.12946129103561
 10
208.6768774465749
 20
93.72846271129298
  0
LWPOLYLINE
  5
E1
330
17
100
AcDbEntity
  8
ENG_K
100
AcDbPolyline
 90
5
 70
1
 10
207.21459622548042
 20
92.76467389163956
 10
207.21459622548042
 20
93.58731910647056
 10
207.80178842490042
 20
94.17451130589049
 10
208.27173422965072
 20
92.76467389163956
 10
207.21459622548042
 20
92.76467389163956
  0
LWPOLYLINE
  5
E2
330
17
100
AcDbEntity
  8
ENG_K
100
AcDbPolyline
 90
4
 70
1
 10
207.79629423539814
 20
135.894223571129
 10
206.97364902056705
 20
135.07157835629812
 10
206.97364902056705
 20
136.7168687859599
 10
207.79629423539814
 20
135.894223571129
  0
LWPOLYLINE
  5
E3
330
17
100
AcDbEntity
  8
ENG_K
100
AcDbPolyline
 90
5
 70
1
 10
205.7689129960003
 20
67.22427017082455
 10
205.7689129960003
 20
68.04691538565555
 10
206.35610519542033
 20
68.63410758507548
 10
206.82605100017065
 20
67.22427017082455
 10
205.7689129960003
 20
67.22427017082455
  0
LWPOLYLINE
  5
E4
330
17
100
AcDbEntity
  8
ENG_K
100
AcDbPolyline
 90
5
 70
1
 10
205.28701858617362
 20
67.08312656600212
 10
205.8742107855936
 20
67.67031876542207
 10
206.34415659034394
 20
66.26048135117114
 10
205.28701858617362
 20
66.26048135117114
 10
205.28701858617362
 20
67.08312656600212
  0
LWPOLYLINE
  5
E5
330
17
100
AcDbEntity
  8
ENG_K
100
AcDbPolyline
 90
4
 70
1
 10
205.04607138126028
 20
72.42530507882728
 10
205.04607138126028
 20
74.07059550848938
 10
205.86871659609136
 20
73.24795029365816
 10
205.04607138126028
 20
72.42530507882728
  0
LWPOLYLINE
  5
E6
330
17
100
AcDbEntity
  8
ENG_K
100
AcDbPolyline
 90
14
 70
1
 10
204.32322976652023
 20
77.20290917236272
 10
204.8051241763469
 20
76.72101476253613
 10
204.8051241763469
 20
74.31154271340257
 10
205.62776939117794
 20
73.48889749857157
 10
202.87754653704013
 20
73.48889749857157
 10
202.87754653704013
 20
74.59382992304731
 10
202.39565212721342
 20
75.07572433287402
 10
202.39565212721342
 20
79.4127740213143
 10
201.8931473715329
 20
79.91527877699478
 10
202.20663758881363
 20
81.48272986339845
 10
203.84133535669352
 20
81.15579030982256
 10
203.84133535669352
 20
80.09427563132299
 10
204.32322976652023
 20
79.61238122149628
 10
204.32322976652023
 20
77.20290917236272
  0
LWPOLYLINE
  5
E7
330
17
100
AcDbEntity
  8
ENG_K
100
AcDbPolyline
 90
7
 70
1
 10
203.8579333483079
 20
57.58638197429056
 10
202.5367957320357
 20
57.58638197429056
 10
201.8139541172957
 20
58.309223589030566
 10
202.3434242874004
 20
58.83869375913531
 10
201.87431798849286
 20
59.77690635695032
 10
203.55503176986886
 20
62.129905650876616
 10
203.8579333483079
 20
57.58638197429056
  0
LWPOLYLINE
  5
E8
330
17
100
AcDbEntity
  8
ENG_K
100
AcDbPolyline
 90
5
 70
1
 10
133.5781007065124
 20
141.91790369396273
 10
132.52096270234213
 20
141.91790369396273
 10
132.52096270234213
 20
142.74054890879384
 10
133.10815490176216
 20
143.3277411082138
 10
133.5781007065124
 20
141.91790369396273
  0
LWPOLYLINE
  5
E9
330
17
100
AcDbEntity
  8
ENG_K
100
AcDbPolyline
 90
4
 70
1
 10
127.4610713991618
 20
134.5896839464713
 10
127.4610713991618
 20
136.23497437613364
 10
128.28371661399285
 20
135.4123291613023
 10
127.4610713991618
 20
134.5896839464713
  0
LWPOLYLINE
  5
EA
330
17
100
AcDbEntity
  8
ENG_K
100
AcDbPolyline
 90
4
 70
1
 10
123.94666692555259
 20
133.96664593182228
 10
123.1240217107215
 20
133.14400071699106
 10
123.1240217107215
 20
134.78929114665317
 10
123.94666692555259
 20
133.96664593182228
  0
LWPOLYLINE
  5
EB
330
17
100
AcDbEntity
  8
ENG_K
100
AcDbPolyline
 90
4
 70
1
 10
116.3774999731477
 20
148.56462183144538
 10
116.3774999731477
 20
150.2099122611078
 10
117.20014518797878
 20
149.38726704627658
 10
116.3774999731477
 20
148.56462183144538
  0
LWPOLYLINE
  5
EC
330
17
100
AcDbEntity
  8
ENG_K
100
AcDbPolyline
 90
4
 70
1
 10
114.93181674366762
 20
153.3835659297127
 10
114.93181674366762
 20
155.02885635937446
 10
115.75446195849872
 20
154.20621114454357
 10
114.93181674366762
 20
153.3835659297127
  0
LWPOLYLINE
  5
ED
330
17
100
AcDbEntity
  8
ENG_K
100
AcDbPolyline
 90
8
 70
1
 10
114.64223424300269
 20
136.3761179809557
 10
113.71218665469175
 20
137.77118936342202
 10
114.06100117982852
 20
139.51526198910602
 10
115.65465835840769
 20
137.92160481052673
 10
115.65465835840769
 20
135.31252556121132
 10
114.75594715166318
 20
134.41381435446687
 10
113.59256188467425
 20
134.8016094434631
 10
114.64223424300269
 20
136.3761179809557
  0
LWPOLYLINE
  5
EE
330
17
100
AcDbEntity
  8
ENG_K
100
AcDbPolyline
 90
4
 70
1
 10
115.27256754867199
 20
154.68810555437028
 10
114.44992233384092
 20
153.86546033953897
 10
114.44992233384092
 20
155.51075076920117
 10
115.27256754867199
 20
154.68810555437028
  0
LWPOLYLINE
  5
EF
330
17
100
AcDbEntity
  8
ENG_K
100
AcDbPolyline
 90
4
 70
1
 10
113.96802792401422
 20
156.4745395888546
 10
114.79067313884529
 20
155.65189437402373
 10
113.96802792401422
 20
154.8292491591924
 10
113.96802792401422
 20
156.4745395888546
  0
LWPOLYLINE
  5
F0
330
17
100
AcDbEntity
  8
ENG_K
100
AcDbPolyline
 90
5
 70
1
 10
112.76329189944748
 20
155.892841578937
 10
112.76329189944748
 20
158.16117002324813
 10
113.35048409886743
 20
158.7483622226683
 10
114.30232431344449
 20
155.892841578937
 10
112.76329189944748
 20
155.892841578937
  0
LWPOLYLINE
  5
F1
330
17
100
AcDbEntity
  8
ENG_K
100
AcDbPolyline
 90
5
 70
1
 10
112.55819050976318
 20
133.86134814222905
 10
113.72708071910093
 20
135.03023835156668
 10
114.24370111610969
 20
134.51361795455773
 10
113.87946911177636
 20
133.42092194155785
 10
112.55819050976318
 20
133.86134814222905
  0
LWPOLYLINE
  5
F2
330
17
100
AcDbEntity
  8
ENG_K
100
AcDbPolyline
 90
5
 70
1
 10
113.33853549379111
 20
140.47222046448272
 10
112.28139748962077
 20
140.47222046448272
 10
112.28139748962077
 20
141.29486567931372
 10
112.86858968904076
 20
141.88205787873363
 10
113.33853549379111
 20
140.47222046448272
  0
LWPOLYLINE
  5
F3
330
17
100
AcDbEntity
  8
ENG_K
100
AcDbPolyline
 90
5
 70
1
 10
112.85664108396439
 20
141.91790369396273
 10
111.79950307979408
 20
141.91790369396273
 10
111.79950307979408
 20
142.74054890879384
 10
112.38669527921408
 20
143.3277411082138
 10
112.85664108396439
 20
141.91790369396273
  0
LWPOLYLINE
  5
F4
330
17
100
AcDbEntity
  8
ENG_K
100
AcDbPolyline
 90
4
 70
1
 10
112.38120108971182
 20
143.60453412835616
 10
111.55855587488072
 20
142.78188891352528
 10
111.55855587488072
 20
144.4271793431874
 10
112.38120108971182
 20
143.60453412835616
  0
LWPOLYLINE
  5
F5
330
17
100
AcDbEntity
  8
ENG_K
100
AcDbPolyline
 90
4
 70
1
 10
111.89930667988513
 20
144.08642853818287
 10
111.07666146505403
 20
143.263783323352
 10
111.07666146505403
 20
144.9090737530141
 10
111.89930667988513
 20
144.08642853818287
  0
LWPOLYLINE
  5
F6
330
17
100
AcDbEntity
  8
ENG_K
100
AcDbPolyline
 90
5
 70
1
 10
110.35381985031398
 20
145.1500209579273
 10
110.94101204973396
 20
145.73721315734744
 10
111.41095785448428
 20
144.3273757430963
 10
110.35381985031398
 20
144.3273757430963
 10
110.35381985031398
 20
145.1500209579273
  0
LWPOLYLINE
  5
F7
330
17
100
AcDbEntity
  8
ENG_K
100
AcDbPolyline
 90
4
 70
1
 10
110.11287264540064
 20
146.35475698249388
 10
110.93551786023171
 20
145.532111767663
 10
110.11287264540064
 20
144.7094665528321
 10
110.11287264540064
 20
146.35475698249388
  0
LWPOLYLINE
  5
F8
330
17
100
AcDbEntity
  8
ENG_K
100
AcDbPolyline
 90
5
 70
1
 10
109.39003103066058
 20
145.77305897257642
 10
109.39003103066058
 20
146.5957041874073
 10
109.97722323008055
 20
147.18289638682748
 10
110.4471690348309
 20
145.77305897257642
 10
109.39003103066058
 20
145.77305897257642
  0
LWPOLYLINE
  5
F9
330
17
100
AcDbEntity
  8
ENG_K
100
AcDbPolyline
 90
5
 70
1
 10
109.9066514276694
 20
153.78939434762572
 10
109.54241942333607
 20
152.69669833462584
 10
108.22114082132288
 20
153.13712453529683
 10
109.3900310306606
 20
154.30601474463467
 10
109.9066514276694
 20
153.78939434762572
  0
LWPOLYLINE
  5
FA
330
17
100
AcDbEntity
  8
ENG_K
100
AcDbPolyline
 90
5
 70
1
 10
107.73924641149618
 20
147.56498719656298
 10
108.97321423374281
 20
147.9763098039787
 10
109.5951324203449
 20
147.3543916173764
 10
108.3611645980983
 20
146.94306900996102
 10
107.73924641149618
 20
147.56498719656298
  0
LWPOLYLINE
  5
FB
330
17
100
AcDbEntity
  8
ENG_K
100
AcDbPolyline
 90
5
 70
1
 10
105.4496880507959
 20
147.44507350812995
 10
104.7828023396271
 20
148.11195921929854
 10
107.06574668277827
 20
148.43809412546315
 10
107.7326323939469
 20
147.77120841429425
 10
105.4496880507959
 20
147.44507350812995
  0
LWPOLYLINE
  5
FC
330
17
100
AcDbEntity
  8
ENG_K
100
AcDbPolyline
 90
4
 70
1
 10
106.11657376196472
 20
119.5098136370213
 10
105.29392854713365
 20
118.68716842218996
 10
105.29392854713365
 20
120.33245885185218
 10
106.11657376196472
 20
119.5098136370213
  0
LWPOLYLINE
  5
FD
330
17
100
AcDbEntity
  8
ENG_K
100
AcDbPolyline
 90
5
 70
1
 10
104.65957568305276
 20
147.9528986662284
 10
105.33689683565565
 20
147.2755775136253
 10
102.55502054242773
 20
146.9664801477112
 10
101.87769938982466
 20
147.64380130031407
 10
104.65957568305276
 20
147.9528986662284
  0
LWPOLYLINE
  5
FE
330
17
100
AcDbEntity
  8
ENG_K
100
AcDbPolyline
 90
5
 70
1
 10
103.33050509259782
 20
150.24575807633678
 10
102.0965372703512
 20
149.83443546892104
 10
101.4746190837491
 20
150.45635365552334
 10
102.7085869059957
 20
150.86767626293874
 10
103.33050509259782
 20
150.24575807633678
  0
LWPOLYLINE
  5
FF
330
17
100
AcDbEntity
  8
ENG_K
100
AcDbPolyline
 90
4
 70
1
 10
99.02930121938657
 20
147.80044021197403
 10
99.85194643421765
 20
146.97779499714315
 10
99.02930121938657
 20
146.15514978231192
 10
99.02930121938657
 20
147.80044021197403
  0
LWPOLYLINE
  5
100
330
17
100
AcDbEntity
  8
ENG_K
100
AcDbPolyline
 90
4
 70
1
 10
98.54740680955987
 20
145.67325537248544
 10
98.54740680955987
 20
147.31854580214764
 10
99.37005202439093
 20
146.49590058731633
 10
98.54740680955987
 20
145.67325537248544
  0
LWPOLYLINE
  5
101
330
17
100
AcDbEntity
  8
ENG_K
100
AcDbPolyline
 90
5
 70
1
 10
93.88422221495507
 20
146.48128468847642
 10
93.2173365037864
 20
147.14817039964535
 10
95.50028084693744
 20
147.47430530580962
 10
96.16716655810625
 20
146.80741959464106
 10
93.88422221495507
 20
146.48128468847642
  0
LWPOLYLINE
  5
102
330
17
100
AcDbEntity
  8
ENG_K
100
AcDbPolyline
 90
5
 70
1
 10
88.12159938537692
 20
4.302323701258048
 10
87.49968119877487
 20
4.924241887860337
 10
88.73364902102142
 20
5.335564495275724
 10
89.35556720762358
 20
4.713646308673769
 10
88.12159938537692
 20
4.302323701258048
  0
LWPOLYLINE
  5
103
330
17
100
AcDbEntity
  8
ENG_K
100
AcDbPolyline
 90
5
 70
1
 10
81.16336224056968
 20
51.9392984716901
 10
79.92939441832308
 20
51.52797586427471
 10
79.30747623172097
 20
52.14989405087667
 10
80.54144405396758
 20
52.56121665829239
 10
81.16336224056968
 20
51.9392984716901
  0
LWPOLYLINE
  5
104
330
17
100
AcDbEntity
  8
ENG_K
100
AcDbPolyline
 90
5
 70
1
 10
56.47499513424066
 20
4.577996893353697
 10
55.417857130070345
 20
4.577996893353697
 10
55.417857130070345
 20
5.4006421081846945
 10
56.00504932949033
 20
5.987834307604634
 10
56.47499513424066
 20
4.577996893353697
  0
LWPOLYLINE
  5
105
330
17
100
AcDbEntity
  8
CUT_SLOT
100
AcDbPolyline
 90
5
 70
1
 10
212.06830444319579
 20
0.0
 10
215.63240605833357
 20
0.0
 10
215.63240605833357
 20
144.56832294800958
 10
212.06830444319579
 20
144.56832294800958
 10
212.06830444319579
 20
0.0
  0
LWPOLYLINE
  5
106
330
17
100
AcDbEntity
  8
CUT_SLOT
100
AcDbPolyline
 90
5
 70
1
 10
188.97429367561077
 20
0.0
 10
192.53839529074853
 20
0.0
 10
192.53839529074853
 20
144.56832294800958
 10
188.97429367561077
 20
144.56832294800958
 10
188.97429367561077
 20
0.0
  0
LWPOLYLINE
  5
107
330
17
100
AcDbEntity
  8
CUT_SLOT
100
AcDbPolyline
 90
5
 70
1
 10
165.88028290802572
 20
0.0
 10
169.44438452316348
 20
0.0
 10
169.44438452316348
 20
144.56832294800958
 10
165.88028290802572
 20
144.56832294800958
 10
165.88028290802572
 20
0.0
  0
LWPOLYLINE
  5
108
330
17
100
AcDbEntity
  8
CUT_SLOT
100
AcDbPolyline
 90
5
 70
1
 10
142.7862721404407
 20
0.0
 10
146.35037375557846
 20
0.0
 10
146.35037375557846
 20
144.56832294800958
 10
142.7862721404407
 20
144.56832294800958
 10
142.7862721404407
 20
0.0
  0
LWPOLYLINE
  5
109
330
17
100
AcDbEntity
  8
CUT_SLOT
100
AcDbPolyline
 90
5
 70
1
 10
119.69226137285568
 20
0.0
 10
123.25636298799344
 20
0.0
 10
123.25636298799344
 20
144.56832294800958
 10
119.69226137285568
 20
144.56832294800958
 10
119.69226137285568
 20
0.0
  0
LWPOLYLINE
  5
10A
330
17
100
AcDbEntity
  8
CUT_SLOT
100
AcDbPolyline
 90
5
 70
1
 10
165.88028290802572
 20
0.0
 10
169.44438452316348
 20
0.0
 10
169.44438452316348
 20
144.56832294800958
 10
165.88028290802572
 20
144.56832294800958
 10
165.88028290802572
 20
0.0
  0
LWPOLYLINE
  5
10B
330
17
100
AcDbEntity
  8
CUT_SLOT
100
AcDbPolyline
 90
5
 70
1
 10
142.78627214044073
 20
0.0
 10
146.3503737555785
 20
0.0
 10
146.3503737555785
 20
144.56832294800958
 10
142.78627214044073
 20
144.56832294800958
 10
142.78627214044073
 20
0.0
  0
LWPOLYLINE
  5
10C
330
17
100
AcDbEntity
  8
CUT_SLOT
100
AcDbPolyline
 90
5
 70
1
 10
119.69226137285568
 20
0.0
 10
123.25636298799344
 20
0.0
 10
123.25636298799344
 20
144.56832294800958
 10
119.69226137285568
 20
144.56832294800958
 10
119.69226137285568
 20
0.0
  0
LWPOLYLINE
  5
10D
330
17
100
AcDbEntity
  8
CUT_SLOT
100
AcDbPolyline
 90
5
 70
1
 10
96.59825060527065
 20
0.0
 10
100.16235222040841
 20
0.0
 10
100.16235222040841
 20
144.56832294800958
 10
96.59825060527065
 20
144.56832294800958
 10
96.59825060527065
 20
0.0
  0
LWPOLYLINE
  5
10E
330
17
100
AcDbEntity
  8
CUT_SLOT
100
AcDbPolyline
 90
5
 70
1
 10
73.50423983768562
 20
0.0
 10
77.06834145282338
 20
0.0
 10
77.06834145282338
 20
144.56832294800958
 10
73.50423983768562
 20
144.56832294800958
 10
73.50423983768562
 20
0.0
  0
LWPOLYLINE
  5
10F
330
17
100
AcDbEntity
  8
CUT_OUTLINE
100
AcDbPolyline
 90
5
 70
1
 10
0.0
 20
0.0
 10
289.13664589601916
 20
0.0
 10
289.13664589601916
 20
289.13664589601916
 10
0.0
 20
289.13664589601916
 10
0.0
 20
0.0
  0
ENDSEC
  0
SECTION
  2
OBJECTS
  0
DICTIONARY
  5
A
330
0
100
AcDbDictionary
281
1
  3
ACAD_COLOR
350
B
  3
ACAD_GROUP
350
C
  3
ACAD_LAYOUT
350
D
  3
ACAD_MATERIAL
350
E
  3
ACAD_MLEADERSTYLE
350
F
  3
ACAD_MLINESTYLE
350
10
  3
ACAD_PLOTSETTINGS
350
11
  3
ACAD_PLOTSTYLENAME
350
12
  3
ACAD_SCALELIST
350
14
  3
ACAD_TABLESTYLE
350
15
  3
ACAD_VISUALSTYLE
350
16
  3
EZDXF_META
350
2D
  0
DICTIONARY
  5
B
330
A
100
AcDbDictionary
281
1
  0
DICTIONARY
  5
C
330
A
100
AcDbDictionary
281
1
  0
DICTIONARY
  5
D
330
A
100
AcDbDictionary
281
1
  3
Model
350
1A
  3
Layout1
350
1E
  0
DICTIONARY
  5
E
330
A
100
AcDbDictionary
281
1
  3
ByBlock
350
1F
  3
ByLayer
350
20
  3
Global
350
21
  0
DICTIONARY
  5
F
330
A
100
AcDbDictionary
281
1
  3
Standard
350
2C
  0
DICTIONARY
  5
10
330
A
100
AcDbDictionary
281
1
  3
Standard
350
22
  0
DICTIONARY
  5
11
330
A
100
AcDbDictionary
281
1
  0
ACDBDICTIONARYWDFLT
  5
12
330
A
100
AcDbDictionary
281
1
  3
Normal
350
13
100
AcDbDictionaryWithDefault
340
13
  0
ACDBPLACEHOLDER
  5
13
330
12
  0
DICTIONARY
  5
14
330
A
100
AcDbDictionary
281
1
  0
DICTIONARY
  5
15
330
A
100
AcDbDictionary
281
1
  0
DICTIONARY
  5
16
330
A
100
AcDbDictionary
281
1
  0
LAYOUT
  5
1A
330
D
100
AcDbPlotSettings
  1

  4
A3
  6

 40
7.5
 41
20.0
 42
7.5
 43
20.0
 44
420.0
 45
297.0
 46
0.0
 47
0.0
 48
0.0
 49
0.0
140
0.0
141
0.0
142
1.0
143
1.0
 70
1024
 72
1
 73
0
 74
5
  7

 75
16
 76
0
 77
2
 78
300
147
1.0
148
0.0
149
0.0
100
AcDbLayout
  1
Model
 70
1
 71
0
 10
0.0
 20
0.0
 11
420.0
 21
297.0
 12
0.0
 22
0.0
 32
0.0
 14
1e+20
 24
1e+20
 34
1e+20
 15
-1e+20
 25
-1e+20
 35
-1e+20
146
0.0
 13
0.0
 23
0.0
 33
0.0
 16
1.0
 26
0.0
 36
0.0
 17
0.0
 27
1.0
 37
0.0
 76
1
330
17
  0
LAYOUT
  5
1E
330
D
100
AcDbPlotSettings
  1

  4
A3
  6

 40
7.5
 41
20.0
 42
7.5
 43
20.0
 44
420.0
 45
297.0
 46
0.0
 47
0.0
 48
0.0
 49
0.0
140
0.0
141
0.0
142
1.0
143
1.0
 70
0
 72
1
 73
0
 74
5
  7

 75
16
 76
0
 77
2
 78
300
147
1.0
148
0.0
149
0.0
100
AcDbLayout
  1
Layout1
 70
1
 71
1
 10
0.0
 20
0.0
 11
420.0
 21
297.0
 12
0.0
 22
0.0
 32
0.0
 14
1e+20
 24
1e+20
 34
1e+20
 15
-1e+20
 25
-1e+20
 35
-1e+20
146
0.0
 13
0.0
 23
0.0
 33
0.0
 16
1.0
 26
0.0
 36
0.0
 17
0.0
 27
1.0
 37
0.0
 76
1
330
1B
  0
MATERIAL
  5
1F
102
{ACAD_REACTORS
330
E
102
}
330
E
100
AcDbMaterial
  1
ByBlock
  2

 70
0
 40
1.0
 71
1
 41
1.0
 91
-1023410177
 42
1.0
 72
1
  3

 73
1
 74
1
 75
1
 44
0.5
 73
0
 45
1.0
 46
1.0
 77
1
  4

 78
1
 79
1
170
1
 48
1.0
171
1
  6

172
1
173
1
174
1
140
1.0
141
1.0
175
1
  7

176
1
177
1
178
1
143
1.0
179
1
  8

270
1
271
1
272
1
145
1.0
146
1.0
273
1
  9

274
1
275
1
276
1
 42
1.0
 72
1
  3

 73
1
 74
1
 75
1
 94
63
  0
MATERIAL
  5
20
102
{ACAD_REACTORS
330
E
102
}
330
E
100
AcDbMaterial
  1
ByLayer
  2

 70
0
 40
1.0
 71
1
 41
1.0
 91
-1023410177
 42
1.0
 72
1
  3

 73
1
 74
1
 75
1
 44
0.5
 73
0
 45
1.0
 46
1.0
 77
1
  4

 78
1
 79
1
170
1
 48
1.0
171
1
  6

172
1
173
1
174
1
140
1.0
141
1.0
175
1
  7

176
1
177
1
178
1
143
1.0
179
1
  8

270
1
271
1
272
1
145
1.0
146
1.0
273
1
  9

274
1
275
1
276
1
 42
1.0
 72
1
  3

 73
1
 74
1
 75
1
 94
63
  0
MATERIAL
  5
21
102
{ACAD_REACTORS
330
E
102
}
330
E
100
AcDbMaterial
  1
Global
  2

 70
0
 40
1.0
 71
1
 41
1.0
 91
-1023410177
 42
1.0
 72
1
  3

 73
1
 74
1
 75
1
 44
0.5
 73
0
 45
1.0
 46
1.0
 77
1
  4

 78
1
 79
1
170
1
 48
1.0
171
1
  6

172
1
173
1
174
1
140
1.0
141
1.0
175
1
  7

176
1
177
1
178
1
143
1.0
179
1
  8

270
1
271
1
272
1
145
1.0
146
1.0
273
1
  9

274
1
275
1
276
1
 42
1.0
 72
1
  3

 73
1
 74
1
 75
1
 94
63
  0
MLINESTYLE
  5
22
102
{ACAD_REACTORS
330
10
102
}
330
10
100
AcDbMlineStyle
  2
Standard
 70
0
  3

 62
256
 51
90.0
 52
90.0
 71
2
 49
0.5
 62
256
  6
BYLAYER
 49
-0.5
 62
256
  6
BYLAYER
  0
MLEADERSTYLE
  5
2C
102
{ACAD_REACTORS
330
F
102
}
330
F
100
AcDbMLeaderStyle
179
2
170
2
171
1
172
0
 90
2
 40
0.0
 41
0.0
173
1
 91
-1056964608
 92
-2
290
1
 42
2.0
291
1
 43
8.0
  3
Standard
 44
4.0
300

342
29
174
1
175
1
176
0
178
1
 93
-1056964608
 45
4.0
292
0
297
0
 46
4.0
 94
-1056964608
 47
1.0
 49
1.0
140
1.0
294
1
141
0.0
177
0
142
1.0
295
0
296
0
143
3.75
271
0
272
9
273
9
  0
DICTIONARY
  5
2D
330
A
100
AcDbDictionary
280
1
281
1
  3
CREATED_BY_EZDXF
350
2E
  3
WRITTEN_BY_EZDXF
350
112
  0
DICTIONARYVAR
  5
2E
330
2D
100
DictionaryVariables
280
0
  1
1.4.4 @ 2026-08-03T11:55:54.443265+00:00
  0
DICTIONARYVAR
  5
112
330
2D
100
DictionaryVariables
280
0
  1
1.4.4 @ 2026-08-03T11:55:54.473920+00:00
  0
ENDSEC
  0
EOF
