  0
SECTION
  2
HEADER
  9
$ACADVER
  1
AC1027
  9
$ACADMAINTVER
 70
105
  9
$DWGCODEPAGE
  3
ANSI_1252
  9
$LASTSAVEDBY
  1
ezdxf
  9
$REQUIREDVERSIONS
160
0
  9
$INSBASE
 10
0.0
 20
0.0
 30
0.0
  9
$EXTMIN
 10
1e+20
 20
1e+20
 30
1e+20
  9
$EXTMAX
 10
-1e+20
 20
-1e+20
 30
-1e+20
  9
$LIMMIN
 10
0.0
 20
0.0
  9
$LIMMAX
 10
420.0
 20
297.0
  9
$ORTHOMODE
 70
0
  9
$REGENMODE
 70
1
  9
$FILLMODE
 70
1
  9
$QTEXTMODE
 70
0
  9
$MIRRTEXT
 70
1
  9
$LTSCALE
 40
1.0
  9
$ATTMODE
 70
1
  9
$TEXTSIZE
 40
2.5
  9
$TRACEWID
 40
1.0
  9
$TEXTSTYLE
  7
Standard
  9
$CLAYER
  8
0
  9
$CELTYPE
  6
ByLayer
  9
$CECOLOR
 62
256
  9
$CELTSCALE
 40
1.0
  9
$DISPSILH
 70
0
  9
$DIMSCALE
 40
1.0
  9
$DIMASZ
 40
2.5
  9
$DIMEXO
 40
0.625
  9
$DIMDLI
 40
3.75
  9
$DIMRND
 40
0.0
  9
$DIMDLE
 40
0.0
  9
$DIMEXE
 40
1.25
  9
$DIMTP
 40
0.0
  9
$DIMTM
 40
0.0
  9
$DIMTXT
 40
2.5
  9
$DIMCEN
 40
2.5
  9
$DIMTSZ
 40
0.0
  9
$DIMTOL
 70
0
  9
$DIMLIM
 70
0
  9
$DIMTIH
 70
0
  9
$DIMTOH
 70
0
  9
$DIMSE1
 70
0
  9
$DIMSE2
 70
0
  9
$DIMTAD
 70
1
  9
$DIMZIN
 70
8
  9
$DIMBLK
  1

  9
$DIMASO
 70
1
  9
$DIMSHO
 70
1
  9
$DIMPOST
  1

  9
$DIMAPOST
  1

  9
$DIMALT
 70
0
  9
$DIMALTD
 70
3
  9
$DIMALTF
 40
0.03937007874
  9
$DIMLFAC
 40
1.0
  9
$DIMTOFL
 70
1
  9
$DIMTVP
 40
0.0
  9
$DIMTIX
 70
0
  9
$DIMSOXD
 70
0
  9
$DIMSAH
 70
0
  9
$DIMBLK1
  1

  9
$DIMBLK2
  1

  9
$DIMSTYLE
  2
ISO-25
  9
$DIMCLRD
 70
0
  9
$DIMCLRE
 70
0
  9
$DIMCLRT
 70
0
  9
$DIMTFAC
 40
1.0
  9
$DIMGAP
 40
0.625
  9
$DIMJUST
 70
0
  9
$DIMSD1
 70
0
  9
$DIMSD2
 70
0
  9
$DIMTOLJ
 70
0
  9
$DIMTZIN
 70
8
  9
$DIMALTZ
 70
0
  9
$DIMALTTZ
 70
0
  9
$DIMUPT
 70
0
  9
$DIMDEC
 70
2
  9
$DIMTDEC
 70
2
  9
$DIMALTU
 70
2
  9
$DIMALTTD
 70
3
  9
$DIMTXSTY
  7
Standard
  9
$DIMAUNIT
 70
0
  9
$DIMADEC
 70
0
  9
$DIMALTRND
 40
0.0
  9
$DIMAZIN
 70
0
  9
$DIMDSEP
 70
44
  9
$DIMATFIT
 70
3
  9
$DIMFRAC
 70
0
  9
$DIMLDRBLK
  1

  9
$DIMLUNIT
 70
2
  9
$DIMLWD
 70
-2
  9
$DIMLWE
 70
-2
  9
$DIMTMOVE
 70
0
  9
$DIMFXL
 40
1.0
  9
$DIMFXLON
 70
0
  9
$DIMJOGANG
 40
0.785398163397
  9
$DIMTFILL
 70
0
  9
$DIMTFILLCLR
 70
0
  9
$DIMARCSYM
 70
0
  9
$DIMLTYPE
  6

  9
$DIMLTEX1
  6

  9
$DIMLTEX2
  6

  9
$DIMTXTDIRECTION
 70
0
  9
$LUNITS
 70
2
  9
$LUPREC
 70
4
  9
$SKETCHINC
 40
1.0
  9
$FILLETRAD
 40
10.0
  9
$AUNITS
 70
0
  9
$AUPREC
 70
2
  9
$MENU
  1
.
  9
$ELEVATION
 40
0.0
  9
$PELEVATION
 40
0.0
  9
$THICKNESS
 40
0.0
  9
$LIMCHECK
 70
0
  9
$CHAMFERA
 40
0.0
  9
$CHAMFERB
 40
0.0
  9
$CHAMFERC
 40
0.0
  9
$CHAMFERD
 40
0.0
  9
$SKPOLY
 70
0
  9
$TDCREATE
 40
2461256.622141204
  9
$TDUCREATE
 40
2458532.153996898
  9
$TDUPDATE
 40
2461256.622141204
  9
$TDUUPDATE
 40
2458532.1544311
  9
$TDINDWG
 40
0.0
  9
$TDUSRTIMER
 40
0.0
  9
$USRTIMER
 70
1
  9
$ANGBASE
 50
0.0
  9
$ANGDIR
 70
0
  9
$PDMODE
 70
0
  9
$PDSIZE
 40
0.0
  9
$PLINEWID
 40
0.0
  9
$SPLFRAME
 70
0
  9
$SPLINETYPE
 70
6
  9
$SPLINESEGS
 70
8
  9
$HANDSEED
  5
1C7
  9
$SURFTAB1
 70
6
  9
$SURFTAB2
 70
6
  9
$SURFTYPE
 70
6
  9
$SURFU
 70
6
  9
$SURFV
 70
6
  9
$UCSBASE
  2

  9
$UCSNAME
  2

  9
$UCSORG
 10
0.0
 20
0.0
 30
0.0
  9
$UCSXDIR
 10
1.0
 20
0.0
 30
0.0
  9
$UCSYDIR
 10
0.0
 20
1.0
 30
0.0
  9
$UCSORTHOREF
  2

  9
$UCSORTHOVIEW
 70
0
  9
$UCSORGTOP
 10
0.0
 20
0.0
 30
0.0
  9
$UCSORGBOTTOM
 10
0.0
 20
0.0
 30
0.0
  9
$UCSORGLEFT
 10
0.0
 20
0.0
 30
0.0
  9
$UCSORGRIGHT
 10
0.0
 20
0.0
 30
0.0
  9
$UCSORGFRONT
 10
0.0
 20
0.0
 30
0.0
  9
$UCSORGBACK
 10
0.0
 20
0.0
 30
0.0
  9
$PUCSBASE
  2

  9
$PUCSNAME
  2

  9
$PUCSORG
 10
0.0
 20
0.0
 30
0.0
  9
$PUCSXDIR
 10
1.0
 20
0.0
 30
0.0
  9
$PUCSYDIR
 10
0.0
 20
1.0
 30
0.0
  9
$PUCSORTHOREF
  2

  9
$PUCSORTHOVIEW
 70
0
  9
$PUCSORGTOP
 10
0.0
 20
0.0
 30
0.0
  9
$PUCSORGBOTTOM
 10
0.0
 20
0.0
 30
0.0
  9
$PUCSORGLEFT
 10
0.0
 20
0.0
 30
0.0
  9
$PUCSORGRIGHT
 10
0.0
 20
0.0
 30
0.0
  9
$PUCSORGFRONT
 10
0.0
 20
0.0
 30
0.0
  9
$PUCSORGBACK
 10
0.0
 20
0.0
 30
0.0
  9
$USERI1
 70
0
  9
$USERI2
 70
0
  9
$USERI3
 70
0
  9
$USERI4
 70
0
  9
$USERI5
 70
0
  9
$USERR1
 40
0.0
  9
$USERR2
 40
0.0
  9
$USERR3
 40
0.0
  9
$USERR4
 40
0.0
  9
$USERR5
 40
0.0
  9
$WORLDVIEW
 70
1
  9
$SHADEDGE
 70
3
  9
$SHADEDIF
 70
70
  9
$TILEMODE
 70
1
  9
$MAXACTVP
 70
64
  9
$PINSBASE
 10
0.0
 20
0.0
 30
0.0
  9
$PLIMCHECK
 70
0
  9
$PEXTMIN
 10
1e+20
 20
1e+20
 30
1e+20
  9
$PEXTMAX
 10
-1e+20
 20
-1e+20
 30
-1e+20
  9
$PLIMMIN
 10
0.0
 20
0.0
  9
$PLIMMAX
 10
420.0
 20
297.0
  9
$UNITMODE
 70
0
  9
$VISRETAIN
 70
1
  9
$PLINEGEN
 70
0
  9
$PSLTSCALE
 70
1
  9
$TREEDEPTH
 70
3020
  9
$CMLSTYLE
  2
Standard
  9
$CMLJUST
 70
0
  9
$CMLSCALE
 40
20.0
  9
$PROXYGRAPHICS
 70
1
  9
$MEASUREMENT
 70
1
  9
$CELWEIGHT
370
-1
  9
$ENDCAPS
280
0
  9
$JOINSTYLE
280
0
  9
$LWDISPLAY
290
0
  9
$INSUNITS
 70
4
  9
$HYPERLINKBASE
  1

  9
$STYLESHEET
  1

  9
$XEDIT
290
1
  9
$CEPSNTYPE
380
0
  9
$PSTYLEMODE
290
1
  9
$FINGERPRINTGUID
  2
{F888EA6F-1CDA-4F40-861B-4804DC0AAA17}
  9
$VERSIONGUID
  2
{5B71123B-5F59-4AFA-93F4-35FDEF67BFF3}
  9
$EXTNAMES
290
1
  9
$PSVPSCALE
 40
0.0
  9
$OLESTARTUP
290
0
  9
$SORTENTS
280
127
  9
$INDEXCTL
280
0
  9
$HIDETEXT
280
1
  9
$XCLIPFRAME
280
1
  9
$HALOGAP
280
0
  9
$OBSCOLOR
 70
257
  9
$OBSLTYPE
280
0
  9
$INTERSECTIONDISPLAY
280
0
  9
$INTERSECTIONCOLOR
 70
257
  9
$DIMASSOC
280
2
  9
$PROJECTNAME
  1

  9
$CAMERADISPLAY
290
0
  9
$LENSLENGTH
 40
50.0
  9
$CAMERAHEIGHT
 40
0.0
  9
$STEPSPERSEC
 40
24.0
  9
$STEPSIZE
 40
100.0
  9
$3DDWFPREC
 40
2.0
  9
$PSOLWIDTH
 40
0.005
  9
$PSOLHEIGHT
 40
0.08
  9
$LOFTANG1
 40
1.570796326795
  9
$LOFTANG2
 40
1.570796326795
  9
$LOFTMAG1
 40
0.0
  9
$LOFTMAG2
 40
0.0
  9
$LOFTPARAM
 70
7
  9
$LOFTNORMALS
280
1
  9
$LATITUDE
 40
37.795
  9
$LONGITUDE
 40
-122.394
  9
$NORTHDIRECTION
 40
0.0
  9
$TIMEZONE
 70
-8000
  9
$LIGHTGLYPHDISPLAY
280
1
  9
$TILEMODELIGHTSYNCH
280
1
  9
$CMATERIAL
347
20
  9
$SOLIDHIST
280
0
  9
$SHOWHIST
280
1
  9
$DWFFRAME
280
2
  9
$DGNFRAME
280
2
  9
$REALWORLDSCALE
290
1
  9
$INTERFERECOLOR
 62
256
  9
$CSHADOW
280
0
  9
$SHADOWPLANELOCATION
 40
0.0
  0
ENDSEC
  0
SECTION
  2
CLASSES
  0
CLASS
  1
ACDBDICTIONARYWDFLT
  2
AcDbDictionaryWithDefault
  3
ObjectDBX Classes
 90
0
 91
0
280
0
281
0
  0
CLASS
  1
SUN
  2
AcDbSun
  3
SCENEOE
 90
1153
 91
0
280
0
281
0
  0
CLASS
  1
VISUALSTYLE
  2
AcDbVisualStyle
  3
ObjectDBX Classes
 90
4095
 91
0
280
0
281
0
  0
CLASS
  1
MATERIAL
  2
AcDbMaterial
  3
ObjectDBX Classes
 90
1153
 91
0
280
0
281
0
  0
CLASS
  1
SCALE
  2
AcDbScale
  3
ObjectDBX Classes
 90
1153
 91
0
280
0
281
0
  0
CLASS
  1
TABLESTYLE
  2
AcDbTableStyle
  3
ObjectDBX Classes
 90
4095
 91
0
280
0
281
0
  0
CLASS
  1
MLEADERSTYLE
  2
AcDbMLeaderStyle
  3
ACDB_MLEADERSTYLE_CLASS
 90
4095
 91
0
280
0
281
0
  0
CLASS
  1
DICTIONARYVAR
  2
AcDbDictionaryVar
  3
ObjectDBX Classes
 90
0
 91
0
280
0
281
0
  0
CLASS
  1
CELLSTYLEMAP
  2
AcDbCellStyleMap
  3
ObjectDBX Classes
 90
1152
 91
0
280
0
281
0
  0
CLASS
  1
MENTALRAYRENDERSETTINGS
  2
AcDbMentalRayRenderSettings
  3
SCENEOE
 90
1024
 91
0
280
0
281
0
  0
CLASS
  1
ACDBDETAILVIEWSTYLE
  2
AcDbDetailViewStyle
  3
ObjectDBX Classes
 90
1025
 91
0
280
0
281
0
  0
CLASS
  1
ACDBSECTIONVIEWSTYLE
  2
AcDbSectionViewStyle
  3
ObjectDBX Classes
 90
1025
 91
0
280
0
281
0
  0
CLASS
  1
RASTERVARIABLES
  2
AcDbRasterVariables
  3
ISM
 90
0
 91
0
280
0
281
0
  0
CLASS
  1
ACDBPLACEHOLDER
  2
AcDbPlaceHolder
  3
ObjectDBX Classes
 90
0
 91
0
280
0
281
0
  0
CLASS
  1
LAYOUT
  2
AcDbLayout
  3
ObjectDBX Classes
 90
0
 91
0
280
0
281
0
  0
ENDSEC
  0
SECTION
  2
TABLES
  0
TABLE
  2
VPORT
  5
8
330
0
100
AcDbSymbolTable
 70
1
  0
VPORT
  5
23
330
8
100
AcDbSymbolTableRecord
100
AcDbViewportTableRecord
  2
*Active
 70
0
 10
0.0
 20
0.0
 11
1.0
 21
1.0
 12
0.0
 22
0.0
 13
0.0
 23
0.0
 14
0.5
 24
0.5
 15
0.5
 25
0.5
 16
0.0
 26
0.0
 36
1.0
 17
0.0
 27
0.0
 37
0.0
 40
1000.0
 41
1.34
 42
50.0
 43
0.0
 44
0.0
 50
0.0
 51
0.0
 71
0
 72
1000
 73
1
 74
3
 75
0
 76
0
 77
0
 78
0
281
0
 65
0
146
0.0
  0
ENDTAB
  0
TABLE
  2
LTYPE
  5
2
330
0
100
AcDbSymbolTable
 70
3
  0
LTYPE
  5
24
330
2
100
AcDbSymbolTableRecord
100
AcDbLinetypeTableRecord
  2
ByBlock
 70
0
  3

 72
65
 73
0
 40
0.0
  0
LTYPE
  5
25
330
2
100
AcDbSymbolTableRecord
100
AcDbLinetypeTableRecord
  2
ByLayer
 70
0
  3

 72
65
 73
0
 40
0.0
  0
LTYPE
  5
26
330
2
100
AcDbSymbolTableRecord
100
AcDbLinetypeTableRecord
  2
Continuous
 70
0
  3

 72
65
 73
0
 40
0.0
  0
ENDTAB
  0
TABLE
  2
LAYER
  5
1
330
0
100
AcDbSymbolTable
 70
7
  0
LAYER
  5
27
330
1
100
AcDbSymbolTableRecord
100
AcDbLayerTableRecord
  2
0
 70
0
 62
7
  6
Continuous
370
-3
390
13
347
21
  0
LAYER
  5
28
330
1
100
AcDbSymbolTableRecord
100
AcDbLayerTableRecord
  2
Defpoints
 70
0
 62
7
  6
Continuous
290
0
370
-3
390
13
347
21
  0
LAYER
  5
2F
330
1
100
AcDbSymbolTableRecord
100
AcDbLayerTableRecord
  2
ENG_L
 70
0
 62
4
  6
Continuous
370
-3
390
13
347
21
  0
LAYER
  5
30
330
1
100
AcDbSymbolTableRecord
100
AcDbLayerTableRecord
  2
ENG_D
 70
0
 62
3
  6
Continuous
370
-3
390
13
347
21
  0
LAYER
  5
31
330
1
100
AcDbSymbolTableRecord
100
AcDbLayerTableRecord
  2
ENG_K
 70
0
 62
2
  6
Continuous
370
-3
390
13
347
21
  0
LAYER
  5
32
330
1
100
AcDbSymbolTableRecord
100
AcDbLayerTableRecord
  2
CUT_OUTLINE
 70
0
 62
5
  6
Continuous
370
-3
390
13
347
21
  0
LAYER
  5
33
330
1
100
AcDbSymbolTableRecord
100
AcDbLayerTableRecord
  2
CUT_SLOT
 70
0
 62
1
  6
Continuous
370
-3
390
13
347
21
  0
ENDTAB
  0
TABLE
  2
STYLE
  5
5
330
0
100
AcDbSymbolTable
 70
1
  0
STYLE
  5
29
330
5
100
AcDbSymbolTableRecord
100
AcDbTextStyleTableRecord
  2
Standard
 70
0
 40
0.0
 41
1.0
 50
0.0
 71
0
 42
2.5
  3
txt
  4

  0
ENDTAB
  0
TABLE
  2
VIEW
  5
7
330
0
100
AcDbSymbolTable
 70
0
  0
ENDTAB
  0
TABLE
  2
UCS
  5
6
330
0
100
AcDbSymbolTable
 70
0
  0
ENDTAB
  0
TABLE
  2
APPID
  5
3
330
0
100
AcDbSymbolTable
 70
3
  0
APPID
  5
2A
330
3
100
AcDbSymbolTableRecord
100
AcDbRegAppTableRecord
  2
ACAD
 70
0
  0
APPID
  5
1C4
330
3
100
AcDbSymbolTableRecord
100
AcDbRegAppTableRecord
  2
HATCHBACKGROUNDCOLOR
 70
0
  0
APPID
  5
1C5
330
3
100
AcDbSymbolTableRecord
100
AcDbRegAppTableRecord
  2
EZDXF
 70
0
  0
ENDTAB
  0
TABLE
  2
DIMSTYLE
  5
4
330
0
100
AcDbSymbolTable
 70
1
100
AcDbDimStyleTable
  0
DIMSTYLE
105
2B
330
4
100
AcDbSymbolTableRecord
100
AcDbDimStyleTableRecord
  2
Standard
 70
0
 40
1.0
 41
2.5
 42
0.625
 43
3.75
 44
1.25
 45
0.0
 46
0.0
 47
0.0
 48
0.0
 49
2.5
140
2.5
141
2.5
142
0.0
143
0.03937007874
144
1.0
145
0.0
146
1.0
147
0.625
148
0.0
 69
0
 70
0
 71
0
 72
0
 73
0
 74
0
 75
0
 76
0
 77
1
 78
8
 79
3
170
0
171
3
172
1
173
0
174
0
175
0
176
0
177
0
178
0
179
2
271
2
272
2
273
2
274
3
275
0
276
0
277
2
278
44
279
0
280
0
281
0
282
0
283
0
284
8
285
0
286
0
288
0
289
3
290
0
371
-2
372
-2
  0
ENDTAB
  0
TABLE
  2
BLOCK_RECORD
  5
9
330
0
100
AcDbSymbolTable
 70
2
  0
BLOCK_RECORD
  5
17
330
9
100
AcDbSymbolTableRecord
100
AcDbBlockTableRecord
  2
*Model_Space
340
1A
 70
0
280
1
281
0
  0
BLOCK_RECORD
  5
1B
330
9
100
AcDbSymbolTableRecord
100
AcDbBlockTableRecord
  2
*Paper_Space
340
1E
 70
0
280
1
281
0
  0
ENDTAB
  0
ENDSEC
  0
SECTION
  2
BLOCKS
  0
BLOCK
  5
18
330
17
100
AcDbEntity
  8
0
100
AcDbBlockBegin
  2
*Model_Space
 70
0
 10
0.0
 20
0.0
 30
0.0
  3
*Model_Space
  1

  0
ENDBLK
  5
19
330
17
100
AcDbEntity
  8
0
100
AcDbBlockEnd
  0
BLOCK
  5
1C
330
1B
100
AcDbEntity
  8
0
100
AcDbBlockBegin
  2
*Paper_Space
 70
0
 10
0.0
 20
0.0
 30
0.0
  3
*Paper_Space
  1

  0
ENDBLK
  5
1D
330
1B
100
AcDbEntity
  8
0
100
AcDbBlockEnd
  0
ENDSEC
  0
SECTION
  2
ENTITIES
  0
LWPOLYLINE
  5
34
330
17
100
AcDbEntity
  8
ENG_L
100
AcDbPolyline
 90
54
 70
1
 10
212.3331821420559
 20
131.63355821978317
 10
211.5516459139207
 20
132.93611860000865
 10
211.5516459139207
 20
135.03023835156657
 10
211.98131248393437
 20
135.45990492158035
 10
211.46932852132917
 20
136.48387284679075
 10
212.48402163590814
 20
136.9912194040802
 10
212.0525266050121
 20
139.14869455856015
 10
211.48254329643333
 20
139.71867786713887
 10
212.5080460087802
 20
141.25693193565925
 10
212.05026248181488
 20
145.83476720531252
 10
211.61672352682962
 20
145.9792801903076
 10
210.9884768212841
 20
145.35103348476198
 10
210.00846831792347
 20
147.63771999260345
 10
211.63083916815785
 20
147.96219416265043
 10
212.03354032374742
 20
147.55949300706084
 10
212.5154347335741
 20
148.04138741688755
 10
213.09713274349187
 20
147.45968940696974
 10
213.86131436296313
 20
147.45968940696974
 10
214.3432087727898
 20
147.94158381679645
 10
215.98849920245206
 20
147.94158381679645
 10
216.30458217079757
 20
147.62550084845094
 10
216.95103016064638
 20
148.91839682814867
 10
217.34591288818112
 20
146.94398319047508
 10
216.8809243816884
 20
146.0140061774897
 10
217.83069688762606
 20
144.11446116561433
 10
217.34880247779935
 20
142.1868835263075
 10
219.31418431096088
 20
138.25611985998455
 10
218.8322899011342
 20
137.77422545015773
 10
219.31418431096088
 20
136.8104366305044
 10
218.7800620613212
 20
136.27631438086473
 10
218.7800620613212
 20
133.55149003415556
 10
219.30979386440214
 20
132.66860369568732
 10
219.74385088097458
 20
133.10266071225985
 10
220.2516384020998
 20
132.5948731911346
 10
219.7697439922731
 20
130.66729555182778
 10
220.22574529080129
 20
130.21129425329957
 10
220.22574529080129
 20
129.24750543364615
 10
220.707639700628
 20
128.76561102381956
 10
221.18953411045467
 20
129.24750543364627
 10
222.200898690386
 20
128.23614085371483
 10
223.25784169227293
 20
128.7646123546583
 10
223.65945103986215
 20
127.55978431189064
 10
220.28198041283048
 20
126.26075714764772
 10
215.5163588158018
 20
125.78419498794491
 10
214.97993242189943
 20
125.24776859404253
 10
212.9973291434008
 20
126.09745571339903
 10
212.9973291434008
 20
127.31992779433942
 10
213.37941995313648
 20
127.70201860407515
 10
212.8975255433098
 20
128.18391301390187
 10
213.1384727482232
 20
128.42486021881527
 10
212.36652117144342
 20
128.42486021881527
 10
212.91501175080927
 20
129.52184137754696
 10
212.00212722608146
 20
129.9782836399108
 10
212.3331821420559
 20
131.63355821978317
  0
LWPOLYLINE
  5
35
330
17
100
AcDbEntity
  8
ENG_L
100
AcDbPolyline
 90
4
 70
1
 10
212.66434829570485
 20
131.55717388268872
 10
212.9973291434008
 20
130.89121218729682
 10
212.9973291434008
 20
132.22313557808064
 10
212.66434829570485
 20
131.55717388268872
  0
LWPOLYLINE
  5
36
330
17
100
AcDbEntity
  8
ENG_L
100
AcDbPolyline
 90
4
 70
1
 10
219.98479808588792
 20
131.89792468769323
 10
220.807443300719
 20
131.075279472862
 10
219.98479808588792
 20
130.25263425803112
 10
219.98479808588792
 20
131.89792468769323
  0
LWPOLYLINE
  5
37
330
17
100
AcDbEntity
  8
ENG_L
100
AcDbPolyline
 90
5
 70
1
 10
219.83720006549152
 20
137.09895959569585
 10
218.78006206132116
 20
137.09895959569585
 10
218.78006206132116
 20
137.92160481052673
 10
219.36725426074113
 20
138.5087970099469
 10
219.83720006549152
 20
137.09895959569585
  0
LWPOLYLINE
  5
38
330
17
100
AcDbEntity
  8
ENG_L
100
AcDbPolyline
 90
5
 70
1
 10
219.36725426074116
 20
139.95448023942703
 10
219.83720006549152
 20
138.54464282517586
 10
218.78006206132116
 20
138.54464282517586
 10
218.78006206132116
 20
139.36728804000685
 10
219.36725426074116
 20
139.95448023942703
  0
LWPOLYLINE
  5
39
330
17
100
AcDbEntity
  8
ENG_L
100
AcDbPolyline
 90
5
 70
1
 10
219.40993042024692
 20
135.17821230066585
 10
219.79681201696363
 20
133.24380431708215
 10
218.78006206132116
 20
133.24380431708215
 10
218.78006206132116
 20
134.54834394173986
 10
219.40993042024692
 20
135.17821230066585
  0
LWPOLYLINE
  5
3A
330
17
100
AcDbEntity
  8
ENG_L
100
AcDbPolyline
 90
5
 70
1
 10
218.78006206132116
 20
135.171381956389
 10
218.78006206132116
 20
136.47592158104672
 10
219.40993042024698
 20
137.10578993997237
 10
219.79681201696366
 20
135.171381956389
 10
218.78006206132116
 20
135.171381956389
  0
LWPOLYLINE
  5
3B
330
17
100
AcDbEntity
  8
ENG_L
100
AcDbPolyline
 90
5
 70
1
 10
218.29816765149448
 20
140.3310768596603
 10
218.88535985091445
 20
140.91826905908022
 10
219.3553056556648
 20
139.5084316448293
 10
218.29816765149448
 20
139.5084316448293
 10
218.29816765149448
 20
140.3310768596603
  0
LWPOLYLINE
  5
3C
330
17
100
AcDbEntity
  8
ENG_L
100
AcDbPolyline
 90
5
 70
1
 10
217.81627324166777
 20
140.47222046448272
 10
217.81627324166777
 20
141.77676008914042
 10
218.4461416005936
 20
142.40662844806607
 10
218.83302319731027
 20
140.47222046448272
 10
217.81627324166777
 20
140.47222046448272
  0
LWPOLYLINE
  5
3D
330
17
100
AcDbEntity
  8
ENG_L
100
AcDbPolyline
 90
5
 70
1
 10
218.35112878748353
 20
141.91790369396273
 10
217.3343788318411
 20
141.91790369396273
 10
217.3343788318411
 20
143.22244331862044
 10
217.96424719076683
 20
143.85231167754642
 10
218.35112878748353
 20
141.91790369396273
  0
LWPOLYLINE
  5
3E
330
17
100
AcDbEntity
  8
ENG_L
100
AcDbPolyline
 90
4
 70
1
 10
217.09343162692772
 20
146.83665139232062
 10
217.9160768417588
 20
146.0140061774897
 10
217.09343162692772
 20
145.1913609626585
 10
217.09343162692772
 20
146.83665139232062
  0
LWPOLYLINE
  5
3F
330
17
100
AcDbEntity
  8
ENG_L
100
AcDbPolyline
 90
5
 70
1
 10
216.94583360653127
 20
150.5920030708433
 10
215.888695602361
 20
150.5920030708433
 10
215.888695602361
 20
151.41464828567442
 10
216.47588780178103
 20
152.00184048509436
 10
216.94583360653127
 20
150.5920030708433
  0
LWPOLYLINE
  5
40
330
17
100
AcDbEntity
  8
ENG_L
100
AcDbPolyline
 90
4
 70
1
 10
216.12964280727434
 20
149.0465162412723
 10
216.12964280727434
 20
150.69180667093428
 10
216.95228802210542
 20
149.86916145610328
 10
216.12964280727434
 20
149.0465162412723
  0
LWPOLYLINE
  5
41
330
17
100
AcDbEntity
  8
ENG_L
100
AcDbPolyline
 90
4
 70
1
 10
215.64774839744763
 20
152.41977711005927
 10
215.64774839744763
 20
154.06506753972104
 10
216.4703936122787
 20
153.24242232489016
 10
215.64774839744763
 20
152.41977711005927
  0
LWPOLYLINE
  5
42
330
17
100
AcDbEntity
  8
ENG_L
100
AcDbPolyline
 90
5
 70
1
 10
215.4068011925343
 20
151.55579189049672
 10
215.4068011925343
 20
152.37843710532772
 10
215.99399339195426
 20
152.9656293047479
 10
216.46393919670462
 20
151.55579189049672
 10
215.4068011925343
 20
151.55579189049672
  0
LWPOLYLINE
  5
43
330
17
100
AcDbEntity
  8
ENG_L
100
AcDbPolyline
 90
4
 70
1
 10
213.72017075814085
 20
157.92022281833496
 10
214.54281597297194
 20
157.09757760350374
 10
213.72017075814085
 20
156.27493238867285
 10
213.72017075814085
 20
157.92022281833496
  0
LWPOLYLINE
  5
44
330
17
100
AcDbEntity
  8
ENG_L
100
AcDbPolyline
 90
4
 70
1
 10
213.57902715331852
 20
127.70201860407515
 10
212.75638193848744
 20
126.87937338924394
 10
212.75638193848744
 20
128.52466381890605
 10
213.57902715331852
 20
127.70201860407515
  0
LWPOLYLINE
  5
45
330
17
100
AcDbEntity
  8
ENG_L
100
AcDbPolyline
 90
4
 70
1
 10
211.31069870900734
 20
143.94528493336068
 10
212.13334392383842
 20
143.12263971852946
 10
211.31069870900734
 20
142.29999450369857
 10
211.31069870900734
 20
143.94528493336068
  0
LWPOLYLINE
  5
46
330
17
100
AcDbEntity
  8
ENG_L
100
AcDbPolyline
 90
5
 70
1
 10
211.069751504094
 20
144.809270152923
 10
211.069751504094
 20
145.631915367754
 10
211.656943703514
 20
146.21910756717392
 10
212.12688950826433
 20
144.809270152923
 10
211.069751504094
 20
144.809270152923
  0
LWPOLYLINE
  5
47
330
17
100
AcDbEntity
  8
ENG_L
100
AcDbPolyline
 90
4
 70
1
 10
204.0822825616069
 20
155.99264517902822
 10
204.90492777643792
 20
155.1699999641969
 10
204.0822825616069
 20
154.3473547493659
 10
204.0822825616069
 20
155.99264517902822
  0
LWPOLYLINE
  5
48
330
17
100
AcDbEntity
  8
ENG_L
100
AcDbPolyline
 90
5
 70
1
 10
204.34612765881266
 20
155.892841578937
 10
203.3594409468668
 20
155.892841578937
 10
203.3594409468668
 20
158.64306443307484
 10
204.0347185283057
 20
159.31834201451355
 10
204.34612765881266
 20
155.892841578937
  0
LWPOLYLINE
  5
49
330
17
100
AcDbEntity
  8
ENG_L
100
AcDbPolyline
 90
5
 70
1
 10
202.87754653704013
 20
162.0163253018617
 10
203.55949926048052
 20
162.69827802530202
 10
203.86058156720395
 20
158.7842080378973
 10
202.87754653704013
 20
158.7842080378973
 10
202.87754653704013
 20
162.0163253018617
  0
LWPOLYLINE
  5
4A
330
17
100
AcDbEntity
  8
ENG_L
100
AcDbPolyline
 90
75
 70
1
 10
195.16723597981294
 20
182.00717335236126
 10
195.16723597981294
 20
181.57438890457445
 10
194.68534156998626
 20
181.09249449474774
 10
194.68534156998626
 20
180.2853891945333
 10
195.24158286773968
 20
179.1729065990265
 10
193.63890854085946
 20
178.21130200289838
 10
192.75776393067946
 20
179.6798763531985
 10
192.75776393067946
 20
186.43625668358433
 10
192.22364168103974
 20
187.50450118286378
 10
192.75776393067946
 20
188.03862343250344
 10
192.75776393067946
 20
189.32762314254447
 10
192.16022889435948
 20
190.52269321518455
 10
193.80074600457
 20
190.8507966372266
 10
194.2510229204375
 20
190.40051972135896
 10
194.95407879425485
 20
190.75204765826768
 10
195.1466256339591
 20
191.71478185678882
 10
194.20344716015956
 20
192.65796033058845
 10
194.20344716015956
 20
196.66979912864102
 10
194.63311373017322
 20
197.5291322686684
 10
193.73236008856574
 20
198.429885910276
 10
193.246939288406
 20
202.7986731117136
 10
191.8068391221645
 20
205.1988400554494
 10
191.28226683007907
 20
207.8217015158764
 10
193.72618827962066
 20
209.17943565451068
 10
196.29358493122027
 20
207.63899766355087
 10
198.05860243877316
 20
205.36968943955424
 10
198.05860243877316
 20
203.2596373467759
 10
197.6458106464338
 20
202.84684555443644
 10
198.5775919523071
 20
201.44917359562652
 10
198.11083027858618
 20
200.51565024818464
 10
199.02239125842655
 20
199.60408926834415
 10
199.02239125842655
 20
196.71272280938402
 10
199.57338828574058
 20
196.1617257820699
 10
198.54049684859984
 20
194.6123886263589
 10
198.54049684859984
 20
193.82135635042386
 10
199.12219485851756
 20
193.23965834050617
 10
198.6095994660872
 20
192.72706294807574
 10
199.49413487679885
 20
191.40025983200837
 10
199.97240007650282
 20
188.0524034340806
 10
200.46807448790662
 20
187.55672902267673
 10
200.46807448790662
 20
178.40073523596945
 10
201.4524736534139
 20
177.41633607046236
 10
200.4886848337605
 20
172.59739197219537
 10
200.94996889773333
 20
172.1361079082224
 10
200.94996889773333
 20
168.79199447006732
 10
202.50028551006037
 20
167.75845006184932
 10
201.02716289847422
 20
165.79428657973438
 10
201.43186330756004
 20
165.38958617064858
 10
201.43186330756004
 20
162.93719044077216
 10
202.44787996702647
 20
160.9051571218393
 10
201.91375771738674
 20
160.3710348721996
 10
201.91375771738674
 20
159.09810818643788
 10
202.87754653704013
 20
157.65242495695776
 10
202.87754653704013
 20
155.7516979741147
 10
203.35944094686684
 20
155.26980356428788
 10
203.35944094686684
 20
147.21874220205643
 10
202.09395789608152
 20
147.21874220205643
 10
198.8770216554842
 20
148.95093863930109
 10
197.10136939989033
 20
150.72659089489505
 10
196.6061800674559
 20
158.15443088141112
 10
197.09481361911975
 20
158.64306443307484
 10
197.09481361911975
 20
159.4072460525463
 10
196.612919209293
 20
159.889140462373
 10
196.612919209293
 20
161.534430892035
 10
197.09481361911975
 20
162.0163253018617
 10
197.09481361911975
 20
162.78050692133317
 10
196.612919209293
 20
163.26240133115988
 10
196.612919209293
 20
164.90769176082188
 10
197.09481361911975
 20
165.38958617064858
 10
197.09481361911975
 20
167.59945101960017
 10
196.612919209293
 20
168.08134542942688
 10
196.612919209293
 20
170.97271188838704
 10
196.13102479946633
 20
171.45460629821375
 10
196.13102479946633
 20
181.52527894253467
 10
195.16723597981294
 20
182.00717335236126
  0
LWPOLYLINE
  5
4B
330
17
100
AcDbEntity
  8
ENG_L
100
AcDbPolyline
 90
12
 70
1
 10
195.16723597981294
 20
182.22903985811934
 10
196.13102479946633
 20
183.67472308759946
 10
196.13102479946633
 20
184.94764977336132
 10
195.64913038963962
 20
185.42954418318803
 10
195.64913038963962
 20
188.32091064214816
 10
195.10215836690404
 20
188.86788266488375
 10
194.78414650091602
 20
188.76187870955442
 10
195.21946381962596
 20
187.8912440721344
 10
194.68534156998626
 20
187.35712182249475
 10
194.68534156998626
 20
185.14725697354328
 10
195.16723597981294
 20
184.66536256371657
 10
195.16723597981294
 20
182.22903985811934
  0
LWPOLYLINE
  5
4C
330
17
100
AcDbEntity
  8
ENG_L
100
AcDbPolyline
 90
9
 70
1
 10
199.158813247688
 20
159.9889440624639
 10
199.88637647798888
 20
159.9889440624639
 10
200.46807448790662
 20
160.5706420723816
 10
200.46807448790662
 20
161.81671810167975
 10
199.9069868238428
 20
162.37780576574357
 10
199.02239125842655
 20
162.2008866526603
 10
199.02239125842655
 20
161.33482369185305
 10
198.60295014069405
 20
160.9153825741205
 10
199.158813247688
 20
159.9889440624639
  0
LWPOLYLINE
  5
4D
330
17
100
AcDbEntity
  8
ENG_L
100
AcDbPolyline
 90
4
 70
1
 10
203.45924454695785
 20
167.21736020986444
 10
202.63659933212676
 20
166.39471499503355
 10
202.63659933212676
 20
168.04000542469532
 10
203.45924454695785
 20
167.21736020986444
  0
LWPOLYLINE
  5
4E
330
17
100
AcDbEntity
  8
ENG_L
100
AcDbPolyline
 90
5
 70
1
 10
202.9305076730292
 20
177.09619561131186
 10
201.91375771738674
 20
177.09619561131186
 10
201.91375771738674
 20
178.40073523596945
 10
202.54362607631245
 20
179.0306035948954
 10
202.9305076730292
 20
177.09619561131186
  0
LWPOLYLINE
  5
4F
330
17
100
AcDbEntity
  8
ENG_L
100
AcDbPolyline
 90
5
 70
1
 10
202.60074462333833
 20
173.78688363382744
 10
202.89414452865452
 20
169.38588505408458
 10
201.91375771738674
 20
169.38588505408458
 10
201.91375771738674
 20
173.09989672787586
 10
202.60074462333833
 20
173.78688363382744
  0
LWPOLYLINE
  5
50
330
17
100
AcDbEntity
  8
ENG_L
100
AcDbPolyline
 90
5
 70
1
 10
201.43186330756004
 20
173.24104033269816
 10
201.43186330756004
 20
176.9550520064894
 10
202.11885021351165
 20
177.6420389124409
 10
202.4122501188278
 20
173.24104033269816
 10
201.43186330756004
 20
173.24104033269816
  0
LWPOLYLINE
  5
51
330
17
100
AcDbEntity
  8
ENG_L
100
AcDbPolyline
 90
4
 70
1
 10
202.01356131747775
 20
190.8301862913726
 10
201.19091610264667
 20
190.0075410765417
 10
201.19091610264667
 20
191.65283150620382
 10
202.01356131747775
 20
190.8301862913726
  0
LWPOLYLINE
  5
52
330
17
100
AcDbEntity
  8
ENG_L
100
AcDbPolyline
 90
5
 70
1
 10
201.925504421893
 20
183.36082293905886
 10
200.94996889773333
 20
183.36082293905886
 10
200.94996889773333
 20
188.52051784233015
 10
201.6466303115552
 20
189.21717925615235
 10
201.925504421893
 20
183.36082293905886
  0
LWPOLYLINE
  5
53
330
17
100
AcDbEntity
  8
ENG_L
100
AcDbPolyline
 90
4
 70
1
 10
201.19091610264667
 20
189.04375225688807
 10
201.19091610264667
 20
190.68904268655018
 10
202.01356131747775
 20
189.8663974717193
 10
201.19091610264667
 20
189.04375225688807
  0
LWPOLYLINE
  5
54
330
17
100
AcDbEntity
  8
ENG_L
100
AcDbPolyline
 90
4
 70
1
 10
200.70902169282
 20
189.72525386689676
 10
201.53166690765107
 20
188.90260865206588
 10
200.70902169282
 20
188.079963437235
 10
200.70902169282
 20
189.72525386689676
  0
LWPOLYLINE
  5
55
330
17
100
AcDbEntity
  8
ENG_L
100
AcDbPolyline
 90
5
 70
1
 10
200.46807448790662
 20
191.89377871111702
 10
201.0552666873266
 20
192.48097091053717
 10
201.52521249207697
 20
191.07113349628614
 10
200.46807448790662
 20
191.07113349628614
 10
200.46807448790662
 20
191.89377871111702
  0
LWPOLYLINE
  5
56
330
17
100
AcDbEntity
  8
ENG_L
100
AcDbPolyline
 90
5
 70
1
 10
200.6384498904088
 20
197.36499262171282
 10
200.98683615423926
 20
194.9262887748996
 10
199.9861800780799
 20
194.9262887748996
 10
199.9861800780799
 20
196.71272280938402
 10
200.6384498904088
 20
197.36499262171282
  0
LWPOLYLINE
  5
57
330
17
100
AcDbEntity
  8
ENG_L
100
AcDbPolyline
 90
5
 70
1
 10
199.50428566825323
 20
199.60408926834415
 10
200.1795632496921
 20
200.2793668497832
 10
200.49097238019905
 20
196.85386641420644
 10
199.50428566825323
 20
196.85386641420644
 10
199.50428566825323
 20
199.60408926834415
  0
LWPOLYLINE
  5
58
330
17
100
AcDbEntity
  8
ENG_L
100
AcDbPolyline
 90
4
 70
1
 10
200.08598367817095
 20
201.43186330756004
 10
199.2633384633399
 20
200.60921809272912
 10
199.2633384633399
 20
202.25450852239123
 10
200.08598367817095
 20
201.43186330756004
  0
LWPOLYLINE
  5
59
330
17
100
AcDbEntity
  8
ENG_L
100
AcDbPolyline
 90
5
 70
1
 10
199.6095834578465
 20
201.15507028741774
 10
200.07952926259688
 20
199.7452328731667
 10
199.02239125842652
 20
199.7452328731667
 10
199.02239125842652
 20
200.5678780879976
 10
199.6095834578465
 20
201.15507028741774
  0
LWPOLYLINE
  5
5A
330
17
100
AcDbEntity
  8
ENG_L
100
AcDbPolyline
 90
5
 70
1
 10
199.52088365986762
 20
203.11849374195356
 10
198.54049684859984
 20
203.11849374195356
 10
198.54049684859984
 20
206.83250541574472
 10
199.22748375455146
 20
207.5194923216962
 10
199.52088365986762
 20
203.11849374195356
  0
LWPOLYLINE
  5
5B
330
17
100
AcDbEntity
  8
ENG_L
100
AcDbPolyline
 90
5
 70
1
 10
199.12768904801987
 20
203.08264792672438
 10
199.59763485277017
 20
201.67281051247343
 10
198.54049684859984
 20
201.67281051247343
 10
198.54049684859984
 20
202.49545572730443
 10
199.12768904801987
 20
203.08264792672438
  0
LWPOLYLINE
  5
5C
330
17
100
AcDbEntity
  8
ENG_L
100
AcDbPolyline
 90
4
 70
1
 10
196.71272280938408
 20
211.06975150409403
 10
195.890077594553
 20
210.2471062892628
 10
195.890077594553
 20
211.8923967189249
 10
196.71272280938408
 20
211.06975150409403
  0
LWPOLYLINE
  5
5D
330
17
100
AcDbEntity
  8
ENG_L
100
AcDbPolyline
 90
7
 70
1
 10
194.6853415699862
 20
220.1259416907102
 10
193.17055572301877
 20
221.64072753767772
 10
194.21359795161396
 20
223.20529088057063
 10
194.51496616748406
 20
225.3148683916615
 10
195.64913038963965
 20
224.18070416950587
 10
195.64913038963965
 20
221.08973051036364
 10
194.6853415699862
 20
220.1259416907102
  0
LWPOLYLINE
  5
5E
330
17
100
AcDbEntity
  8
ENG_L
100
AcDbPolyline
 90
5
 70
1
 10
195.4543348066466
 20
210.14179999127936
 10
193.75049166935102
 20
209.11949410890207
 10
192.7207282942069
 20
209.4627485672833
 10
193.0616277548725
 20
211.16724587061108
 10
195.4543348066466
 20
210.14179999127936
  0
LWPOLYLINE
  5
5F
330
17
100
AcDbEntity
  8
ENG_L
100
AcDbPolyline
 90
5
 70
1
 10
194.41000670487264
 20
176.45524062768848
 10
194.69665641941816
 20
173.87539319677902
 10
193.52816957872068
 20
172.70690635608165
 10
193.2233705878775
 20
176.05969525535681
 10
194.41000670487264
 20
176.45524062768848
  0
LWPOLYLINE
  5
60
330
17
100
AcDbEntity
  8
ENG_L
100
AcDbPolyline
 90
5
 70
1
 10
194.40854854984389
 20
191.2067829116062
 10
193.17458072759723
 20
190.79546030419047
 10
192.55266254099516
 20
191.41737849079277
 10
193.7866303632417
 20
191.82870109820814
 10
194.40854854984389
 20
191.2067829116062
  0
LWPOLYLINE
  5
61
330
17
100
AcDbEntity
  8
ENG_L
100
AcDbPolyline
 90
4
 70
1
 10
193.48060554541948
 20
248.79865907539877
 10
193.48060554541948
 20
250.44394950506054
 10
194.3032507602506
 20
249.62130429023
 10
193.48060554541948
 20
248.79865907539877
  0
LWPOLYLINE
  5
62
330
17
100
AcDbEntity
  8
ENG_L
100
AcDbPolyline
 90
4
 70
1
 10
192.5168167257661
 20
250.44394950506054
 10
193.3394619405972
 20
249.62130429023
 10
192.5168167257661
 20
248.79865907539877
 10
192.5168167257661
 20
250.44394950506054
  0
LWPOLYLINE
  5
63
330
17
100
AcDbEntity
  8
ENG_L
100
AcDbPolyline
 90
8
 70
1
 10
191.77935921218614
 20
158.62844853423496
 10
192.17606592076172
 20
159.02515524281057
 10
191.79397511102604
 20
159.4072460525463
 10
191.79397511102604
 20
161.534430892035
 10
192.9667879440825
 20
162.7072437250915
 10
193.243612933804
 20
158.00121889982665
 10
192.13331911646748
 20
156.15072920426587
 10
191.77935921218614
 20
158.62844853423496
  0
LWPOLYLINE
  5
64
330
17
100
AcDbEntity
  8
ENG_L
100
AcDbPolyline
 90
4
 70
1
 10
192.85756753077044
 20
250.1031987000566
 10
192.0349223159394
 20
249.28055348522537
 10
192.0349223159394
 20
250.92584391488782
 10
192.85756753077044
 20
250.1031987000566
  0
LWPOLYLINE
  5
65
330
17
100
AcDbEntity
  8
ENG_L
100
AcDbPolyline
 90
5
 70
1
 10
192.42825791352826
 20
252.93073557857926
 10
191.2482511207616
 20
253.32407117616773
 10
191.64158671835048
 20
254.5040779689345
 10
192.8215935111171
 20
254.11074237134534
 10
192.42825791352826
 20
252.93073557857926
  0
LWPOLYLINE
  5
66
330
17
100
AcDbEntity
  8
ENG_L
100
AcDbPolyline
 90
27
 70
1
 10
184.4519753619574
 20
173.4957675391887
 10
182.15608691449208
 20
175.79165598665404
 10
182.15608691449208
 20
178.37003438501188
 10
184.56555896362556
 20
182.22518966362543
 10
184.56555896362556
 20
183.17675565349344
 10
186.07259795496077
 20
186.19083363616406
 10
187.0391600141678
 20
186.67411466576743
 10
189.26705875514446
 20
190.8823678431678
 10
190.30901834615875
 20
190.53504797949648
 10
190.8068057434762
 20
188.54389839022667
 10
192.3756731209438
 20
186.97503101275902
 10
191.89377871111708
 20
186.4931366029323
 10
192.3756731209438
 20
186.01124219310572
 10
191.89377871111708
 20
185.529347783279
 10
192.27586952085278
 20
185.14725697354328
 10
192.27586952085278
 20
182.73778492440974
 10
192.75776393067946
 20
182.25589051458303
 10
192.75776393067946
 20
179.64681126526762
 10
192.27586952085278
 20
179.16491685544088
 10
192.27586952085278
 20
170.00892306873362
 10
191.79397511102604
 20
169.5270286589069
 10
191.79397511102604
 20
166.97641300495116
 10
190.48943548636822
 20
166.97641300495116
 10
187.51062673551309
 20
169.95522175580624
 10
186.51045299782265
 20
171.45548236234197
 10
186.0577300866352
 20
173.26637400709177
 10
184.4519753619574
 20
173.4957675391887
  0
LWPOLYLINE
  5
67
330
17
100
AcDbEntity
  8
ENG_L
100
AcDbPolyline
 90
4
 70
1
 10
191.5530279061127
 20
251.40773832471442
 10
192.37567312094382
 20
250.5850931098832
 10
191.5530279061127
 20
249.76244789505265
 10
191.5530279061127
 20
251.40773832471442
  0
LWPOLYLINE
  5
68
330
17
100
AcDbEntity
  8
ENG_L
100
AcDbPolyline
 90
5
 70
1
 10
191.82870109820811
 20
254.98722041123267
 10
191.41737849079266
 20
253.75325258898584
 10
190.3135658943638
 20
254.85706518541474
 10
190.7248885017794
 20
256.0910330076611
 10
191.82870109820811
 20
254.98722041123267
  0
LWPOLYLINE
  5
69
330
17
100
AcDbEntity
  8
ENG_L
100
AcDbPolyline
 90
4
 70
1
 10
191.07113349628602
 20
250.72623671470606
 10
191.07113349628602
 20
252.37152714436783
 10
191.89377871111708
 20
251.5488819295366
 10
191.07113349628602
 20
250.72623671470606
  0
LWPOLYLINE
  5
6A
330
17
100
AcDbEntity
  8
ENG_L
100
AcDbPolyline
 90
4
 70
1
 10
191.89377871111705
 20
255.8859316179769
 10
191.07113349628602
 20
255.0632864031457
 10
191.07113349628602
 20
256.70857683280815
 10
191.89377871111705
 20
255.8859316179769
  0
LWPOLYLINE
  5
6B
330
17
100
AcDbEntity
  8
ENG_L
100
AcDbPolyline
 90
4
 70
1
 10
191.9990765007102
 20
253.09986294861008
 10
190.58923908645932
 20
251.69002553435882
 10
190.58923908645932
 20
253.56980875336043
 10
191.9990765007102
 20
253.09986294861008
  0
LWPOLYLINE
  5
6C
330
17
100
AcDbEntity
  8
ENG_L
100
AcDbPolyline
 90
4
 70
1
 10
191.8937787111171
 20
188.90260865206588
 10
191.07113349628602
 20
188.07996343723488
 10
191.07113349628602
 20
189.72525386689688
 10
191.8937787111171
 20
188.90260865206588
  0
LWPOLYLINE
  5
6D
330
17
100
AcDbEntity
  8
ENG_L
100
AcDbPolyline
 90
5
 70
1
 10
191.41737849079263
 20
249.82640567991422
 10
191.88732429554298
 20
248.41656826566316
 10
190.83018629137266
 20
248.41656826566316
 10
190.83018629137266
 20
249.23921348049416
 10
191.41737849079263
 20
249.82640567991422
  0
LWPOLYLINE
  5
6E
330
17
100
AcDbEntity
  8
ENG_L
100
AcDbPolyline
 90
73
 70
1
 10
180.22850927518527
 20
246.32835915641405
 10
180.22850927518527
 20
251.60576184888473
 10
180.6581758451989
 20
252.465094988912
 10
180.0234078855011
 20
253.09986294861008
 10
181.2573757077477
 20
253.5111855560257
 10
181.77399610475638
 20
252.99456515901687
 10
182.53817772422775
 20
252.99456515901687
 10
183.1198757341455
 20
253.57626316893467
 10
184.1834681538899
 20
252.51267074919005
 10
184.88432417376228
 20
252.51267074919005
 10
185.84811299341567
 20
254.9221427983237
 10
186.87522741266815
 20
254.9221427983237
 10
187.83901623232157
 20
255.8859316179769
 10
189.03903064132726
 20
255.8859316179769
 10
189.86639747171927
 20
254.5069869006571
 10
189.86639747171927
 20
251.6486855296276
 10
190.34829188154598
 20
251.166791119801
 10
190.34829188154598
 20
249.23921348049416
 10
190.92998989146366
 20
248.65751547057658
 10
190.34829188154598
 20
248.07581746065875
 10
190.34829188154598
 20
246.1116214321817
 10
188.96934716422575
 20
245.28425460178948
 10
187.07483461285003
 20
245.28425460178948
 10
186.13442634109308
 20
244.34384633003248
 10
184.21591565477087
 20
243.8642186584521
 10
181.3695102330237
 20
240.5799047102821
 10
182.73678625524855
 20
240.12414603620735
 10
182.20831475430515
 20
239.0672030343206
 10
182.63798132431876
 20
238.63753646430698
 10
183.60177014397226
 20
239.6013252839604
 10
184.13589239361193
 20
239.0672030343206
 10
183.63021010364628
 20
238.05583845438915
 10
184.11210451347296
 20
237.09204963473573
 10
183.61330420031223
 20
236.09444900841424
 10
183.72395795144934
 20
235.5411802527285
 10
184.41093630945016
 20
236.57164778972995
 10
184.9486484425224
 20
236.75088516742048
 10
184.55402490728554
 20
237.54013223789428
 10
184.87305203981384
 20
239.13526790053564
 10
186.06812211245347
 20
238.53773286421597
 10
188.0386234325035
 20
238.53773286421597
 10
188.94738661296506
 20
237.62896968375412
 10
187.41916492469724
 20
234.063119077796
 10
186.90902317136883
 20
233.552977324468
 10
186.4271287615422
 20
234.516766144121
 10
186.06347003291876
 20
234.15310741549743
 10
186.5302317066397
 20
233.21958406805555
 10
185.56644288698632
 20
231.7739008385755
 10
186.0112421931057
 20
230.8843022263367
 10
186.0112421931057
 20
228.99964826777276
 10
186.6119264842882
 20
228.3989639765902
 10
187.90263837743225
 20
228.14082159796146
 10
188.4493357537201
 20
225.4073347165222
 10
186.93768070476213
 20
224.5003416871474
 10
186.39333300284136
 20
225.0446893890683
 10
185.62915138337
 20
225.0446893890683
 10
185.1374244588821
 20
224.55296246458033
 10
177.42219601853
 20
225.299597474937
 10
176.8552484063984
 20
226.4334926992002
 10
176.8552484063984
 20
228.36107033850706
 10
175.83923174693192
 20
230.39310365744004
 10
176.32112615675862
 20
230.87499806726663
 10
175.8630196270709
 20
231.79121112664203
 10
176.31168073479955
 20
232.6885333420994
 10
173.9638819474382
 20
234.5667723719884
 10
173.9638819474382
 20
236.97157603227902
 10
171.83110614425402
 20
238.5711578846672
 10
175.34881815069994
 20
240.4653105035226
 10
177.23733921613413
 20
240.4653105035226
 10
178.34385531662133
 20
241.57182660400989
 10
178.7828260457052
 20
242.44976806217755
 10
178.7828260457052
 20
244.40078151710742
 10
180.22850927518527
 20
246.32835915641405
  0
LWPOLYLINE
  5
6F
330
17
100
AcDbEntity
  8
ENG_L
100
AcDbPolyline
 90
9
 70
1
 10
182.6379813243188
 20
231.69140752655105
 10
182.19081290167424
 20
231.24423910390647
 10
182.32975183398017
 20
230.82742230698884
 10
182.9834537448841
 20
230.82742230698884
 10
183.59563845009347
 20
231.8477301490043
 10
183.38935530192296
 20
234.11684477887997
 10
183.04980473406164
 20
234.00366125625948
 10
182.6379813243188
 20
233.18001443677394
 10
182.6379813243188
 20
231.69140752655105
  0
LWPOLYLINE
  5
70
330
17
100
AcDbEntity
  8
ENG_L
100
AcDbPolyline
 90
37
 70
1
 10
179.7466148653586
 20
196.46400564716225
 10
178.7828260457052
 20
196.945900056989
 10
178.7828260457052
 20
198.4406932485089
 10
178.3009316358785
 20
198.9225876583356
 10
178.3009316358785
 20
206.10189384369625
 10
177.33714281622508
 20
206.58378825352298
 10
177.33714281622508
 20
207.31439982557143
 10
178.1821417545228
 20
208.15939876386912
 10
180.5916138036563
 20
208.64129317369583
 10
181.07652205479886
 20
209.1262014248384
 10
184.24713966697985
 20
209.6546376935352
 10
184.60028495080772
 20
208.59520184205172
 10
183.6017701439722
 20
207.59668703521618
 10
183.6017701439722
 20
206.83250541574472
 10
184.5655589636256
 20
205.8687165960913
 10
184.5655589636256
 20
204.19427873579755
 10
183.09562360590914
 20
203.21432183065323
 10
182.66250664467995
 20
201.0487370245071
 10
184.54558793692846
 20
199.58411824164713
 10
185.49199747528218
 20
200.5305277800009
 10
186.91821524853523
 20
199.67479711604895
 10
187.45692542258575
 20
198.59737676794796
 10
187.45692542258575
 20
196.2308283995573
 10
187.48762640518936
 20
196.2001274169537
 10
188.9333096346695
 20
197.163916236607
 10
189.86639747171927
 20
196.2308283995573
 10
189.86639747171927
 20
193.52402329139574
 10
188.34152098800203
 20
193.21904799465216
 10
187.45692542258575
 20
194.1036435600685
 10
186.59294020302343
 20
193.23965834050617
 10
185.42954418318791
 20
193.23965834050617
 10
184.99987761317433
 20
193.6693249105198
 10
184.13381179082273
 20
193.23629199934388
 10
179.8105654636488
 20
193.49060060682476
 10
179.22999446834976
 20
195.23231359272174
 10
179.7466148653586
 20
195.7489339897307
 10
179.7466148653586
 20
196.46400564716225
  0
LWPOLYLINE
  5
71
330
17
100
AcDbEntity
  8
ENG_L
100
AcDbPolyline
 90
4
 70
1
 10
182.87892852923213
 20
238.6788764690386
 10
182.87892852923213
 20
240.3241668987004
 10
183.70157374406324
 20
239.50152168386919
 10
182.87892852923213
 20
238.6788764690386
  0
LWPOLYLINE
  5
72
330
17
100
AcDbEntity
  8
ENG_L
100
AcDbPolyline
 90
16
 70
1
 10
174.05591559022082
 20
160.7117856772039
 10
174.41733639759087
 20
161.43462729194403
 10
173.93934282691797
 20
162.39061443328984
 10
174.89183346025283
 20
164.61309257773783
 10
175.89145958674501
 20
162.94704903358425
 10
175.89145958674501
 20
161.38822510008887
 10
174.89206982826767
 20
158.88975070389566
 10
172.80670995617265
 20
156.80439083180065
 10
172.52708611693689
 20
159.88025306339426
 10
171.9175144267757
 20
160.48982475355533
 10
170.5906210786513
 20
160.75520342318018
 10
170.5906210786513
 20
162.00253102999784
 10
173.19423063991192
 20
165.18472049376075
 10
173.4776578660092
 20
161.50016655449673
 10
173.8718483046556
 20
160.7117856772039
 10
174.05591559022082
 20
160.7117856772039
  0
LWPOLYLINE
  5
73
330
17
100
AcDbEntity
  8
ENG_L
100
AcDbPolyline
 90
5
 70
1
 10
173.75878055775385
 20
149.01067042604322
 10
174.99274838000045
 20
149.4219930334586
 10
175.61466656660266
 20
148.80007484685655
 10
174.38069874435604
 20
148.38875223944115
 10
173.75878055775385
 20
149.01067042604322
  0
LWPOLYLINE
  5
74
330
17
100
AcDbEntity
  8
ENG_L
100
AcDbPolyline
 90
5
 70
1
 10
173.07928638202196
 20
148.92598298230385
 10
173.72976508680162
 20
148.275504277524
 10
171.9571110538943
 20
147.9209734709427
 10
171.30663234911455
 20
148.57145217572221
 10
173.07928638202196
 20
148.92598298230385
  0
LWPOLYLINE
  5
75
330
17
100
AcDbEntity
  8
ENG_L
100
AcDbPolyline
 90
4
 70
1
 10
171.79535710321807
 20
238.87848366922037
 10
172.61800231804912
 20
238.05583845438915
 10
171.79535710321807
 20
237.23319323955795
 10
171.79535710321807
 20
238.87848366922037
  0
LWPOLYLINE
  5
76
330
17
100
AcDbEntity
  8
ENG_L
100
AcDbPolyline
 90
20
 70
1
 10
172.0363043081314
 20
156.74463422439976
 10
172.0363043081314
 20
155.0701963641059
 10
171.16452929343956
 20
154.19842134941408
 10
167.3993927059865
 20
154.4880472407567
 10
168.56323983925344
 20
155.6518943740236
 10
169.49041026973646
 20
155.6518943740236
 10
170.06579751212308
 20
156.6108731113346
 10
167.6588778268993
 20
160.33065807940784
 10
166.7354658000377
 20
159.40724605254618
 10
166.25357139021102
 20
159.889140462373
 10
166.25357139021102
 20
160.85292928202634
 10
165.7369509932022
 20
161.36954967903517
 10
166.1482736006177
 20
162.60351750128166
 10
166.83526940012874
 20
161.91652170177073
 10
168.2809526296089
 20
161.91652170177073
 10
169.14493784917124
 20
161.0525364822083
 10
169.14493784917124
 20
160.088747662555
 10
170.07837504309785
 20
159.15531046862841
 10
170.55211364347193
 20
157.7340946675061
 10
172.0363043081314
 20
156.74463422439976
  0
LWPOLYLINE
  5
77
330
17
100
AcDbEntity
  8
ENG_L
100
AcDbPolyline
 90
4
 70
1
 10
172.1361079082224
 20
237.57394404456232
 10
171.31346269339136
 20
236.75129882973178
 10
171.31346269339136
 20
238.39658925939355
 10
172.1361079082224
 20
237.57394404456232
  0
LWPOLYLINE
  5
78
330
17
100
AcDbEntity
  8
ENG_L
100
AcDbPolyline
 90
4
 70
1
 10
164.56694095581759
 20
166.59432219521563
 10
165.38958617064864
 20
165.7716769803843
 10
164.56694095581759
 20
164.94903176555331
 10
164.56694095581759
 20
166.59432219521563
  0
LWPOLYLINE
  5
79
330
17
100
AcDbEntity
  8
ENG_L
100
AcDbPolyline
 90
53
 70
1
 10
147.4596894069698
 20
152.45229842472475
 10
147.4596894069698
 20
151.41464828567442
 10
148.10739525827765
 20
150.7669424343664
 10
147.17738310385403
 20
150.30193635715472
 10
149.37107926392866
 20
148.50709404436634
 10
149.7693578560122
 20
148.90537263644987
 10
151.920734838879
 20
148.90537263644987
 10
153.2893637393634
 20
146.98929217577174
 10
152.41505549449826
 20
145.532111767663
 10
149.9421143997308
 20
145.532111767663
 10
148.4964311702507
 20
144.56832294800958
 10
146.55278050666462
 20
144.56832294800958
 10
144.62520286735784
 20
143.60453412835628
 10
142.74054890879387
 20
143.60453412835628
 10
142.223928511785
 20
143.08791373134744
 10
141.28138662996042
 20
143.40209435862218
 10
140.2312732595693
 20
144.977264414209
 10
140.2312732595693
 20
146.1138097775807
 10
141.09525847913167
 20
146.97779499714315
 10
140.71316766939597
 20
147.35988580687876
 10
140.71316766939597
 20
148.49021673878326
 10
142.0511694979561
 20
150.72021978638338
 10
140.66371139982294
 20
151.31484468558344
 10
139.34043738354342
 20
151.31484468558344
 10
137.89475415406332
 20
150.35105586593
 10
136.75820879069133
 20
150.35105586593
 10
135.72841212964784
 20
151.38085252697365
 10
136.85801239078242
 20
151.9456526575408
 10
136.85801239078242
 20
156.5384680347859
 10
135.74369801677526
 20
158.098508158396
 10
134.93043475147562
 20
158.36959591349574
 10
134.93043475147562
 20
160.088747662555
 10
135.841995731316
 20
161.00030864239534
 10
135.36010132148928
 20
161.96409746204876
 10
136.3387676729589
 20
162.94276381351847
 10
137.9694422037811
 20
161.96435909502503
 10
137.43971040070014
 20
161.43462729194403
 10
137.8444108097859
 20
161.02992688285823
 10
139.66906311477143
 20
162.39841611159733
 10
142.74054890879387
 20
162.39841611159733
 10
143.6045341283562
 20
161.534430892035
 10
143.6045341283562
 20
160.35798483820417
 10
140.74265365363493
 20
157.97308444260315
 10
141.17168153132621
 20
156.25697293183782
 10
141.77676008914048
 20
155.6518943740236
 10
142.56779236507526
 20
155.6518943740236
 10
144.11712952078653
 20
156.68478581116452
 10
144.66812654810064
 20
156.13378878385032
 10
146.13184955343323
 20
156.13378878385032
 10
148.0999088529801
 20
153.60342682729
 10
146.55973016775405
 20
153.09003393221465
 10
146.68638607816075
 20
152.71006620099448
 10
147.4596894069698
 20
152.45229842472475
  0
LWPOLYLINE
  5
7A
330
17
100
AcDbEntity
  8
ENG_L
100
AcDbPolyline
 90
4
 70
1
 10
149.62821425118992
 20
151.17370108076088
 10
150.450859466021
 20
150.35105586593
 10
149.62821425118992
 20
149.5284106510988
 10
149.62821425118992
 20
151.17370108076088
  0
LWPOLYLINE
  5
7B
330
17
100
AcDbEntity
  8
ENG_L
100
AcDbPolyline
 90
4
 70
1
 10
149.14631984136324
 20
152.13748990041432
 10
149.96896505619432
 20
151.31484468558344
 10
149.14631984136324
 20
150.4921994707522
 10
149.14631984136324
 20
152.13748990041432
  0
LWPOLYLINE
  5
7C
330
17
100
AcDbEntity
  8
ENG_L
100
AcDbPolyline
 90
5
 70
1
 10
147.35988580687876
 20
152.27863350523674
 10
148.4713156198775
 20
153.39006331823558
 10
149.57187847652068
 20
151.55579189049672
 10
148.08272742161876
 20
151.55579189049672
 10
147.35988580687876
 20
152.27863350523674
  0
LWPOLYLINE
  5
7D
330
17
100
AcDbEntity
  8
ENG_L
100
AcDbPolyline
 90
7
 70
1
 10
145.54033437988258
 20
53.44984479585469
 10
144.47628930522697
 20
51.321754646543425
 10
143.71653030254683
 20
51.321754646543425
 10
142.58488035593066
 20
53.01922956646765
 10
144.45047957206606
 20
55.4178571300703
 10
145.25918976070892
 20
55.4178571300703
 10
145.54033437988258
 20
53.44984479585469
  0
LWPOLYLINE
  5
7E
330
17
100
AcDbEntity
  8
ENG_L
100
AcDbPolyline
 90
9
 70
1
 10
142.11592721813315
 20
45.63724165270244
 10
141.2601396921316
 20
44.78145412670076
 10
140.2312732595693
 20
45.124409604221704
 10
140.2312732595693
 20
46.670804809562426
 10
139.19838182242856
 20
48.22014196527358
 10
141.553772341062
 20
50.575532483907004
 10
143.92777696486112
 20
51.169033639856806
 10
143.1100230389904
 20
47.62543329441693
 10
142.11592721813315
 20
45.63724165270244
  0
LWPOLYLINE
  5
7F
330
17
100
AcDbEntity
  8
ENG_L
100
AcDbPolyline
 90
5
 70
1
 10
140.96094521858612
 20
43.22252293530371
 10
139.1882911856788
 20
42.867992128722385
 10
138.53781248089905
 20
43.51847083350191
 10
140.31046651380646
 20
43.873001640083565
 10
140.96094521858612
 20
43.22252293530371
  0
LWPOLYLINE
  5
80
330
17
100
AcDbEntity
  8
ENG_L
100
AcDbPolyline
 90
5
 70
1
 10
133.7615445421379
 20
157.6847698029238
 10
134.99551236438447
 20
158.09609241033917
 10
135.61743055098668
 20
157.4741742237371
 10
134.38346272874003
 20
157.06285161632172
 10
133.7615445421379
 20
157.6847698029238
  0
LWPOLYLINE
  5
81
330
17
100
AcDbEntity
  8
ENG_L
100
AcDbPolyline
 90
13
 70
1
 10
130.21648687936514
 20
150.83814290182218
 10
129.62959624338194
 20
150.2512522658389
 10
129.14770183355523
 20
150.7331466756656
 10
128.70315773172536
 20
150.2886025738357
 10
127.07248320090316
 20
151.2670072923291
 10
128.06512313254615
 20
152.2596472239721
 10
130.47459518167963
 20
152.74154163379882
 10
131.01020185995313
 20
153.2771483120724
 10
131.98860657844648
 20
152.9510134059078
 10
132.2127332120035
 20
152.27863350523674
 10
134.0664495319133
 20
152.27863350523674
 10
135.24241747252972
 20
151.10266556462037
 10
130.21648687936514
 20
150.83814290182218
  0
LWPOLYLINE
  5
82
330
17
100
AcDbEntity
  8
ENG_L
100
AcDbPolyline
 90
5
 70
1
 10
132.9236638579317
 20
164.34660409675806
 10
134.69631789083905
 20
163.99207329017673
 10
133.56394477623266
 20
162.85970017557017
 10
131.79129074332528
 20
163.21423098215183
 10
132.9236638579317
 20
164.34660409675806
  0
LWPOLYLINE
  5
83
330
17
100
AcDbEntity
  8
ENG_L
100
AcDbPolyline
 90
5
 70
1
 10
131.97399067960657
 20
152.72580192788143
 10
131.35207249300439
 20
153.3477201144835
 10
132.58604031525098
 20
153.75904272189888
 10
133.2079585018532
 20
153.13712453529683
 10
131.97399067960657
 20
152.72580192788143
  0
LWPOLYLINE
  5
84
330
17
100
AcDbEntity
  8
ENG_L
100
AcDbPolyline
 90
4
 70
1
 10
132.69254714861475
 20
163.3684463508971
 10
130.6881852949194
 20
164.3706272777449
 10
132.19145668519096
 20
164.8717177411686
 10
132.69254714861475
 20
163.3684463508971
  0
LWPOLYLINE
  5
85
330
17
100
AcDbEntity
  8
ENG_L
100
AcDbPolyline
 90
4
 70
1
 10
130.83433226794867
 20
164.66674455590845
 10
131.65697748277975
 20
163.84409934107757
 10
130.83433226794867
 20
163.02145412624637
 10
130.83433226794867
 20
164.66674455590845
  0
LWPOLYLINE
  5
86
330
17
100
AcDbEntity
  8
ENG_L
100
AcDbPolyline
 90
4
 70
1
 10
130.83433226794867
 20
59.613763213688166
 10
131.65697748277975
 20
58.79111799885728
 10
130.83433226794867
 20
57.96847278402606
 10
130.83433226794867
 20
59.613763213688166
  0
LWPOLYLINE
  5
87
330
17
100
AcDbEntity
  8
ENG_L
100
AcDbPolyline
 90
5
 70
1
 10
129.62959624338194
 20
163.29546641909064
 10
128.42486021881518
 20
161.28757304481255
 10
128.42486021881518
 20
166.1124277853888
 10
129.62959624338194
 20
164.90769176082188
 10
129.62959624338194
 20
163.29546641909064
  0
LWPOLYLINE
  5
88
330
17
100
AcDbEntity
  8
ENG_L
100
AcDbPolyline
 90
8
 70
1
 10
128.6468211424638
 20
63.009377805941845
 10
127.29931744848558
 20
61.66187411196344
 10
125.52666341557823
 20
62.0164049185451
 10
126.73822978442173
 20
63.22797128738855
 10
126.73822978442173
 20
65.637443336522
 10
128.23175040715608
 20
67.13096395925633
 10
129.16129138163407
 20
65.58172900179315
 10
128.6468211424638
 20
63.009377805941845
  0
LWPOLYLINE
  5
89
330
17
100
AcDbEntity
  8
ENG_L
100
AcDbPolyline
 90
6
 70
1
 10
129.24750543364624
 20
159.02515524281057
 10
127.94296580898848
 20
157.72061561815286
 10
127.94296580898848
 20
163.35251412962702
 10
128.31567638757875
 20
163.36942066058825
 10
128.65692002474975
 20
159.61574065170703
 10
129.24750543364624
 20
159.02515524281057
  0
LWPOLYLINE
  5
8A
330
17
100
AcDbEntity
  8
ENG_L
100
AcDbPolyline
 90
4
 70
1
 10
127.4610713991618
 20
67.80596818074214
 10
128.28371661399285
 20
66.98332296591114
 10
127.4610713991618
 20
66.16067775107982
 10
127.4610713991618
 20
67.80596818074214
  0
LWPOLYLINE
  5
8B
330
17
100
AcDbEntity
  8
ENG_L
100
AcDbPolyline
 90
4
 70
1
 10
121.0553004665924
 20
55.89975153989701
 10
120.2326552517613
 20
55.077106325066126
 10
120.2326552517613
 20
56.72239675472823
 10
121.0553004665924
 20
55.89975153989701
  0
LWPOLYLINE
  5
8C
330
17
100
AcDbEntity
  8
ENG_L
100
AcDbPolyline
 90
109
 70
1
 10
101.51390903195224
 20
82.95184633158237
 10
101.06057328511845
 20
83.40518207841608
 10
102.6435092930868
 20
84.46047275039503
 10
102.6435092930868
 20
85.8770085492433
 10
103.02560010282248
 20
86.25909935897901
 10
102.5007820122529
 20
86.78391744954872
 10
100.64783610247046
 20
87.71039040443995
 10
95.98662561091372
 20
88.17651145359551
 10
94.551107926124
 20
86.74099376880584
 10
93.35109351711806
 20
86.74099376880584
 10
92.40352497090201
 20
88.32027467916592
 10
93.50600331853343
 20
88.68776746170958
 10
94.37490744120008
 20
88.2533154003764
 10
95.41509314568633
 20
89.70957538665714
 10
95.41509314568633
 20
90.49634544732832
 10
94.45130432603293
 20
91.46013426698174
 10
94.45130432603293
 20
93.10542469664385
 10
95.43771596961474
 20
94.09183634022567
 10
97.42250335838699
 20
91.53996684037557
 10
96.86077637516644
 20
90.97823985715503
 10
96.86077637516644
 20
90.23209801353616
 10
98.86538356744104
 20
88.67295908621142
 10
103.1254037029135
 20
88.89717067228898
 10
103.1254037029135
 20
89.532556627675
 10
102.6435092930868
 20
90.0144510375016
 10
102.6435092930868
 20
93.8696063161153
 10
102.14100453740627
 20
94.37211107179566
 10
102.62289894723298
 20
96.78158312092921
 10
102.1616148832601
 20
97.24286718490217
 10
102.1616148832601
 20
99.32712834364798
 10
102.56701212166863
 20
100.13792282046508
 10
99.11775616514288
 20
102.1089262241941
 10
99.7174168469445
 20
102.70858690599572
 10
99.62331752611412
 20
102.99088486848684
 10
98.2757586220429
 20
102.09251226577265
 10
97.71098159315166
 20
102.657289294664
 10
95.62680855291987
 20
102.95502830041126
 10
97.8549168205466
 20
105.18313656803812
 10
98.33681123037331
 20
106.62881979751826
 10
99.27024842429992
 20
107.56225699144473
 10
99.27024842429992
 20
108.49919515463458
 10
100.24806423498055
 20
109.96591887065554
 10
101.21681234487146
 20
114.80965942011001
 10
102.06181128316905
 20
115.6546583584076
 10
103.22520730300458
 20
115.6546583584076
 10
104.2550039640481
 20
114.6248616973642
 10
103.12540370291352
 20
114.06006156679682
 10
103.12540370291352
 20
111.89930667988502
 10
103.60729811274021
 20
111.4174122700584
 10
103.60729811274021
 20
109.97172904057828
 10
104.18899612265797
 20
109.39003103066058
 10
106.35689042939752
 20
109.39003103066058
 10
107.56162645396428
 20
111.55855587488072
 10
108.4262422110072
 20
111.55855587488072
 10
108.4262422110072
 20
102.36572778741237
 10
111.4381004443272
 20
101.86375141519244
 10
111.31760866996738
 20
102.10473496391204
 10
111.31760866996738
 20
105.634679352138
 10
111.81328308137121
 20
106.13035376354185
 10
112.07694700661816
 20
107.97600124027062
 10
114.3330395459639
 20
107.65370230607829
 10
113.75552067877493
 20
106.49866457170043
 10
114.63681620522328
 20
104.73607351880365
 10
116.09804533305496
 20
103.76192076691582
 10
116.31021768772243
 20
103.12540370291346
 10
117.16277728010223
 20
103.12540370291346
 10
119.66511361427443
 20
101.7352168505956
 10
118.64582841745889
 20
100.71593165378002
 10
119.50981363702127
 20
99.85194643421758
 10
119.50981363702127
 20
97.24286718490217
 10
118.56663516322172
 20
96.2996887111025
 10
119.04852957304841
 20
93.89021666196906
 10
118.53224481579073
 20
93.37393190471144
 10
118.05035040596404
 20
90.00067103592446
 10
117.6344638375275
 20
89.58478446748796
 10
118.09257036721522
 20
88.66857140811257
 10
117.1118756442278
 20
86.70718196213767
 10
117.60037294782828
 20
84.26469544413528
 10
114.8205246449711
 20
80.97942017712224
 10
114.58409261181788
 20
80.93213377049169
 10
116.5116702511245
 20
80.45023936066498
 10
114.32776501028327
 20
80.01345831249662
 10
113.8268843191919
 20
79.51257762140528
 10
115.75446195849874
 20
79.51257762140517
 10
116.78425861954227
 20
78.48278096036177
 10
115.82046979988885
 20
78.00088655053494
 10
116.13655276823438
 20
77.68480358218943
 10
116.13655276823438
 20
76.55447265028492
 10
115.29982550762433
 20
75.15992721593479
 10
112.63419496220183
 20
75.45610838764848
 10
113.21674634960013
 20
76.62121116244514
 10
112.22916964980776
 20
78.59636456202989
 10
112.70083860735328
 20
79.06803351957537
 10
112.11487198200561
 20
80.04464456182147
 10
110.17274156741304
 20
80.87698616807548
 10
110.77777165574587
 20
81.48201625640827
 10
109.75841293739387
 20
83.31686194944199
 10
109.33956931659161
 20
83.17724740917443
 10
109.04886656334534
 20
82.30513914943572
 10
107.99192356145846
 20
82.83361065037909
 10
106.39336678210712
 20
81.2350538710278
 10
105.88317248099371
 20
82.76563677436799
 10
105.01243065862698
 20
82.24319168094796
 10
104.64387986847807
 20
81.13753931050138
 10
103.569848934343
 20
82.74858571170385
 10
102.74331289317789
 20
81.92204967053884
 10
101.09802246351566
 20
81.92204967053884
 10
100.55012021229882
 20
82.46995192175555
 10
101.51390903195224
 20
82.95184633158237
  0
LWPOLYLINE
  5
8D
330
17
100
AcDbEntity
  8
ENG_L
100
AcDbPolyline
 90
5
 70
1
 10
111.5741855599531
 20
101.59158118394063
 10
109.99212715631141
 20
101.06422838272667
 10
110.42615069512964
 20
100.34085581802965
 10
111.73286467770359
 20
101.27422294843957
 10
111.5741855599531
 20
101.59158118394063
  0
LWPOLYLINE
  5
8E
330
17
100
AcDbEntity
  8
ENG_L
100
AcDbPolyline
 90
5
 70
1
 10
114.52049413625211
 20
78.27860979915869
 10
114.22958547478143
 20
77.98770113768794
 10
114.39171522489126
 20
77.17705238713879
 10
114.66485292373841
 20
77.26809828675452
 10
114.52049413625211
 20
78.27860979915869
  0
LWPOLYLINE
  5
8F
330
17
100
AcDbEntity
  8
ENG_L
100
AcDbPolyline
 90
4
 70
1
 10
105.42957796245372
 20
84.12642032998797
 10
105.39373214722465
 20
84.09057451475887
 10
105.44152656753009
 20
84.09057451475887
 10
105.42957796245372
 20
84.12642032998797
  0
LWPOLYLINE
  5
90
330
17
100
AcDbEntity
  8
ENG_L
100
AcDbPolyline
 90
8
 70
1
 10
104.34328105622572
 20
105.62033873045684
 10
103.63536214200965
 20
105.97429818756487
 10
101.69065402886947
 20
104.46174743290027
 10
101.87310364504556
 20
102.45480165496323
 10
102.06181128316905
 20
102.64350929308674
 10
103.98938892247584
 20
102.64350929308674
 10
104.56185916486075
 20
103.21597953547158
 10
104.34328105622572
 20
105.62033873045684
  0
LWPOLYLINE
  5
91
330
17
100
AcDbEntity
  8
ENG_L
100
AcDbPolyline
 90
5
 70
1
 10
116.13655276823437
 20
78.16669799201614
 10
116.72374496765433
 20
78.7538901914363
 10
117.19369077240466
 20
77.34405277718514
 10
116.13655276823437
 20
77.34405277718514
 10
116.13655276823437
 20
78.16669799201614
  0
LWPOLYLINE
  5
92
330
17
100
AcDbEntity
  8
ENG_L
100
AcDbPolyline
 90
4
 70
1
 10
116.23635636832542
 20
106.49866457170043
 10
115.41371115349432
 20
105.6760193568692
 10
115.41371115349432
 20
107.32130978653132
 10
116.23635636832542
 20
106.49866457170043
  0
LWPOLYLINE
  5
93
330
17
100
AcDbEntity
  8
ENG_L
100
AcDbPolyline
 90
4
 70
1
 10
114.93181674366762
 20
107.80320419635802
 10
115.75446195849871
 20
106.98055898152714
 10
114.93181674366762
 20
106.15791376669593
 10
114.93181674366762
 20
107.80320419635802
  0
LWPOLYLINE
  5
94
330
17
100
AcDbEntity
  8
ENG_L
100
AcDbPolyline
 90
5
 70
1
 10
115.37786533826525
 20
109.28473324106724
 10
114.14389751601871
 20
108.87341063365186
 10
113.52197932941654
 20
109.49532882025382
 10
114.75594715166321
 20
109.90665142766953
 10
115.37786533826525
 20
109.28473324106724
  0
LWPOLYLINE
  5
95
330
17
100
AcDbEntity
  8
ENG_L
100
AcDbPolyline
 90
5
 70
1
 10
113.32437956351129
 20
110.37443019616776
 10
113.97485826829109
 20
109.72395149138814
 10
112.20220423538368
 20
109.36942068480681
 10
111.55172553060392
 20
110.01989938958646
 10
113.32437956351129
 20
110.37443019616776
  0
LWPOLYLINE
  5
96
330
17
100
AcDbEntity
  8
ENG_L
100
AcDbPolyline
 90
4
 70
1
 10
113.34498990936521
 20
60.71869563816401
 10
112.52234469453413
 20
59.89605042333312
 10
112.52234469453413
 20
61.54134085299523
 10
113.34498990936521
 20
60.71869563816401
  0
LWPOLYLINE
  5
97
330
17
100
AcDbEntity
  8
ENG_L
100
AcDbPolyline
 90
5
 70
1
 10
112.37474667413771
 20
111.07666146505413
 10
111.31760866996738
 20
111.07666146505413
 10
111.31760866996738
 20
111.89930667988502
 10
111.90480086938733
 20
112.48649887930517
 10
112.37474667413771
 20
111.07666146505413
  0
LWPOLYLINE
  5
98
330
17
100
AcDbEntity
  8
ENG_L
100
AcDbPolyline
 90
4
 70
1
 10
109.14908382574723
 20
81.58129886553456
 10
109.14908382574723
 20
83.22658929519666
 10
109.97172904057832
 20
82.40394408036545
 10
109.14908382574723
 20
81.58129886553456
  0
LWPOLYLINE
  5
99
330
17
100
AcDbEntity
  8
ENG_L
100
AcDbPolyline
 90
15
 70
1
 10
107.69824471874321
 20
56.837678338638284
 10
107.68495184536941
 20
56.84432477532519
 10
109.42738133865738
 20
57.88978247129795
 10
109.87192544048729
 20
57.44523836946813
 10
109.87192544048729
 20
55.799947939806025
 10
109.05350622377621
 20
54.98152872309492
 10
102.64170259510111
 20
51.52901907688534
 10
100.23403724395331
 20
52.866610938634096
 10
100.23403724395331
 20
53.590083090854556
 10
101.19782606360671
 20
54.55387191050798
 10
101.19782606360671
 20
55.51766073016129
 10
102.11403912298215
 20
56.43387378953679
 10
103.07782794263555
 20
55.95197937971008
 10
103.49668717441631
 20
56.37083861149084
 10
107.69824471874321
 20
56.837678338638284
  0
LWPOLYLINE
  5
9A
330
17
100
AcDbEntity
  8
ENG_L
100
AcDbPolyline
 90
4
 70
1
 10
108.18529500609384
 20
82.74469488536995
 10
109.00794022092492
 20
81.92204967053873
 10
108.18529500609384
 20
81.09940445570784
 10
108.18529500609384
 20
82.74469488536995
  0
LWPOLYLINE
  5
9B
330
17
100
AcDbEntity
  8
ENG_L
100
AcDbPolyline
 90
5
 70
1
 10
108.49131982391606
 20
80.02919801841402
 10
109.11323801051823
 20
79.40727983181206
 10
107.87927018827156
 20
78.99595722439634
 10
107.25735200166952
 20
79.61787541099864
 10
108.49131982391606
 20
80.02919801841402
  0
LWPOLYLINE
  5
9C
330
17
100
AcDbEntity
  8
ENG_L
100
AcDbPolyline
 90
5
 70
1
 10
105.66510197174203
 20
113.85427654001168
 10
107.54164664559093
 20
114.22958547478157
 10
108.46096819818932
 20
113.31026392218303
 10
108.06976655174945
 20
112.13665898286351
 10
105.66510197174203
 20
113.85427654001168
  0
LWPOLYLINE
  5
9D
330
17
100
AcDbEntity
  8
ENG_L
100
AcDbPolyline
 90
4
 70
1
 10
107.1856603712114
 20
80.8529630612922
 10
105.77582295696035
 20
80.38301725654173
 10
105.77582295696035
 20
82.26280047554313
 10
107.1856603712114
 20
80.8529630612922
  0
LWPOLYLINE
  5
9E
330
17
100
AcDbEntity
  8
ENG_L
100
AcDbPolyline
 90
5
 70
1
 10
106.76884357429361
 20
114.03859972642539
 10
104.48589923114248
 20
113.71246482026109
 10
103.8190135199737
 20
114.37935053142978
 10
106.10195786312482
 20
114.70548543759406
 10
106.76884357429361
 20
114.03859972642539
  0
LWPOLYLINE
  5
9F
330
17
100
AcDbEntity
  8
ENG_L
100
AcDbPolyline
 90
8
 70
1
 10
101.6797204734334
 20
59.07548294974685
 10
101.6797204734334
 20
60.818499238255
 10
103.02560010282244
 20
62.16437886764403
 10
104.67089053248468
 20
62.16437886764403
 10
105.60863356828958
 20
61.22663583183918
 10
104.25047483499179
 20
59.32521360522236
 10
103.15921550958153
 20
58.77958394251714
 10
101.6797204734334
 20
59.07548294974685
  0
LWPOLYLINE
  5
A0
330
17
100
AcDbEntity
  8
ENG_L
100
AcDbPolyline
 90
28
 70
1
 10
97.32418297283924
 20
72.74685983023433
 10
96.81031466109745
 20
72.57557039298712
 10
96.5312703580152
 20
71.73843748374043
 10
95.26270475301087
 20
72.16129268540861
 10
96.8855056069666
 20
74.32502715734957
 10
97.38659607039045
 20
75.82829854762107
 10
98.3064596046465
 20
76.28823031474919
 10
98.3064596046465
 20
77.22357917472844
 10
100.10816455678322
 20
78.574857888831
 10
99.65233923403561
 20
79.03068321157858
 10
100.46815410458989
 20
79.84649808213284
 10
99.5677774543203
 20
80.02657341218678
 10
99.20206833990669
 20
81.12370075542773
 10
102.44023767431027
 20
82.00683784662866
 10
102.15080754502723
 20
79.40196668308141
 10
101.19782606360673
 20
78.44898520166088
 10
101.19782606360673
 20
77.47214634801203
 10
98.30645960464652
 20
75.06267429887859
 10
98.30645960464652
 20
74.34816110257303
 10
99.18060244561282
 20
73.82367539799328
 10
100.29073729116142
 20
75.82191811998074
 10
102.15011770463148
 20
77.1500469867451
 10
103.77697401106458
 20
76.17393320288524
 10
100.34744997000838
 20
73.23434116769411
 10
100.81573525387105
 20
72.76605588383146
 10
100.37676452478715
 20
72.32708515474762
 10
99.27024842429992
 20
71.77382710450398
 10
97.32418297283924
 20
72.74685983023433
  0
LWPOLYLINE
  5
A1
330
17
100
AcDbEntity
  8
ENG_L
100
AcDbPolyline
 90
5
 70
1
 10
100.02893585426904
 20
72.38945926359818
 10
101.26290367651558
 20
72.80078187101357
 10
101.88482186311775
 20
72.17886368441162
 10
100.65085404087108
 20
71.7675410769959
 10
100.02893585426904
 20
72.38945926359818
  0
LWPOLYLINE
  5
A2
330
17
100
AcDbEntity
  8
ENG_L
100
AcDbPolyline
 90
5
 70
1
 10
100.23403724395331
 20
115.7544619584987
 10
100.8639056028791
 20
116.38433031742434
 10
101.25078719959579
 20
114.44992233384099
 10
100.23403724395331
 20
114.44992233384099
 10
100.23403724395331
 20
115.7544619584987
  0
LWPOLYLINE
  5
A3
330
17
100
AcDbEntity
  8
ENG_L
100
AcDbPolyline
 90
4
 70
1
 10
100.81573525387107
 20
114.20897512892758
 10
99.99309003903996
 20
113.38632991409669
 10
99.99309003903996
 20
115.03162034375846
 10
100.81573525387107
 20
114.20897512892758
  0
LWPOLYLINE
  5
A4
330
17
100
AcDbEntity
  8
ENG_L
100
AcDbPolyline
 90
4
 70
1
 10
99.99309003903996
 20
113.58593711427866
 10
100.81573525387105
 20
112.76329189944745
 10
99.99309003903996
 20
111.94064668461657
 10
99.99309003903996
 20
113.58593711427866
  0
LWPOLYLINE
  5
A5
330
17
100
AcDbEntity
  8
ENG_L
100
AcDbPolyline
 90
4
 70
1
 10
100.33384084404436
 20
70.83847824452472
 10
99.51119562921326
 20
70.0158330296935
 10
99.51119562921326
 20
71.66112345935561
 10
100.33384084404436
 20
70.83847824452472
  0
LWPOLYLINE
  5
A6
330
17
100
AcDbEntity
  8
ENG_L
100
AcDbPolyline
 90
5
 70
1
 10
99.85744062371987
 20
112.96839328913188
 10
100.32738642847022
 20
111.55855587488072
 10
99.27024842429992
 20
111.55855587488072
 10
99.27024842429992
 20
112.38120108971172
 10
99.85744062371987
 20
112.96839328913188
  0
LWPOLYLINE
  5
A7
330
17
100
AcDbEntity
  8
ENG_L
100
AcDbPolyline
 90
12
 70
1
 10
99.75214283412663
 20
58.20941998893958
 10
98.42004320631473
 20
56.87732036112758
 10
96.37888196533973
 20
56.58572589813116
 10
96.37888196533973
 20
58.16031002689981
 10
95.24928170420515
 20
58.72511015746718
 10
96.27907836524871
 20
59.75490681851059
 10
95.89698755551302
 20
60.13699762824631
 10
95.89698755551302
 20
61.267328560150936
 10
96.72435438590495
 20
62.64627327747074
 10
97.9243687949109
 20
62.64627327747074
 10
99.75214283412663
 20
60.818499238255
 10
99.75214283412663
 20
58.20941998893958
  0
LWPOLYLINE
  5
A8
330
17
100
AcDbEntity
  8
ENG_L
100
AcDbPolyline
 90
4
 70
1
 10
99.02930121938657
 20
111.6583594749716
 10
99.85194643421765
 20
110.83571426014072
 10
99.02930121938657
 20
110.01306904530949
 10
99.02930121938657
 20
111.6583594749716
  0
LWPOLYLINE
  5
A9
330
17
100
AcDbEntity
  8
ENG_L
100
AcDbPolyline
 90
5
 70
1
 10
98.72327640156435
 20
78.03216840474315
 10
98.10135821496216
 20
78.6540865913452
 10
99.33532603720879
 20
79.06540919876059
 10
99.95724422381099
 20
78.44349101215853
 10
98.72327640156435
 20
78.03216840474315
  0
LWPOLYLINE
  5
AA
330
17
100
AcDbEntity
  8
ENG_L
100
AcDbPolyline
 90
103
 70
1
 10
80.47636644105867
 20
216.75268082192335
 10
79.8286605897508
 20
217.40038667323137
 10
80.87594345829382
 20
217.92402810750278
 10
80.42413860124564
 20
218.82763782159918
 10
80.95826085088537
 20
219.36176007123888
 10
80.95826085088537
 20
222.53541373984388
 10
80.46857664592915
 20
223.02509794479985
 10
80.736621247123
 20
226.50967776031993
 10
86.84895932367785
 20
226.00031625394058
 10
87.32269177872338
 20
225.52658379889513
 10
91.25170837673403
 20
225.52658379889513
 10
91.75695978658877
 20
224.01082956933084
 10
92.4761509264481
 20
223.65123399940123
 10
93.00562109655276
 20
224.18070416950565
 10
93.55913498609924
 20
223.6271902799596
 10
91.23486655107473
 20
220.26991365159066
 10
88.80397594702762
 20
219.29755740997192
 10
85.91993222998624
 20
216.41351369293048
 10
83.05082507660212
 20
214.9789601162384
 10
82.17752750054292
 20
213.66901375214965
 10
85.6827083456115
 20
213.48453054977767
 10
86.15929575888799
 20
213.96111796305416
 10
87.84460968132917
 20
213.96111796305416
 10
89.15046581793925
 20
211.67586972398666
 10
89.15046581793925
 20
213.65288847271546
 10
90.27969454213498
 20
214.02929804744753
 10
91.05271730269172
 20
211.19488125873931
 10
91.55993786707276
 20
210.6876606943583
 10
92.04183227689944
 20
211.1695551041849
 10
92.57595452653919
 20
210.63543285454534
 10
92.09406011671248
 20
209.67164403489193
 10
93.05784893636587
 20
208.7078552152386
 10
92.57595452653918
 20
207.74406639558518
 10
93.48751550637954
 20
206.83250541574472
 10
93.48751550637954
 20
202.58377801999893
 10
95.52398461774568
 20
202.07466074215742
 10
93.96940991620625
 20
198.96551133907846
 10
93.96940991620625
 20
194.02978224067158
 10
92.94054348364395
 20
193.68682676315063
 10
92.5715640799804
 20
194.05580616681428
 10
92.07088097233272
 20
193.22133432073474
 10
92.63108799129473
 20
191.91418460982345
 10
94.00011089880985
 20
192.82686654816672
 10
94.45130432603294
 20
192.37567312094373
 10
94.45130432603294
 20
190.73038269128162
 10
93.60092823243461
 20
189.88000659768335
 10
96.84996983614202
 20
187.0951137945055
 10
97.35283632968343
 20
182.06644885909128
 10
96.91300421497947
 20
181.6266167443874
 10
97.87679303463285
 20
179.69903910508057
 10
97.5084822264743
 20
179.3307282969221
 10
98.30645960464652
 20
178.93173960783594
 10
98.30645960464652
 20
178.05998443096516
 10
95.55623675050873
 20
178.05998443096516
 10
96.27907836524872
 20
178.78282604570518
 10
95.0330023359507
 20
178.7828260457053
 10
94.4988800863109
 20
178.2487037960655
 10
92.46684676737787
 20
179.2647204555319
 10
90.81419836004028
 20
179.2647204555319
 10
91.06881568971318
 20
182.06551108193392
 10
90.49634544732825
 20
182.63798132431884
 10
89.29937938007
 20
182.63798132431884
 10
88.79062584013353
 20
181.62047424444594
 10
87.73688396941401
 20
181.97172153468566
 10
87.24187445989718
 20
184.44676908226987
 10
86.67189115131839
 20
185.01675239084858
 10
88.73576911262701
 20
188.11256933281152
 10
90.16830797112367
 20
189.06759523847595
 10
90.989201277022
 20
190.70938185027265
 10
89.49479612978637
 20
191.34984119908793
 10
87.60497898836809
 20
193.23965834050617
 10
87.10708296501865
 20
193.23965834050617
 10
85.20374985404783
 20
195.61882472921977
 10
83.49091704800627
 20
195.1906165277093
 10
81.53995886080314
 20
193.23965834050617
 10
80.60531747178139
 20
193.23965834050617
 10
79.64152865212799
 20
191.79397511102613
 10
78.16669799201625
 20
191.79397511102613
 10
77.20290917236285
 20
190.8301862913727
 10
75.536948740335
 20
190.8301862913727
 10
74.09126551085491
 20
192.75776393067957
 10
73.19107037430993
 20
192.75776393067957
 10
71.16652361945853
 20
193.77003730810515
 10
68.86655566631528
 20
196.58110925083582
 10
69.34056717523157
 20
197.5291322686684
 10
68.9109006052179
 20
197.95879883868218
 10
68.9109006052179
 20
200.56228094997473
 10
74.73435338792376
 20
206.8710214645728
 10
75.14708797329094
 20
207.69649063530716
 10
74.64140568332523
 20
208.7078552152386
 10
75.17552793296501
 20
209.24197746487826
 10
75.62667632580607
 20
208.79082907203716
 10
76.58177143355118
 20
210.1279622228803
 10
76.08708891280536
 20
211.11732726437205
 10
76.62121116244508
 20
211.65144951401172
 10
76.62121116244508
 20
212.61523833366502
 10
77.16911341366189
 20
213.16314058488206
 10
77.61482871872057
 20
212.27170997476463
 10
78.39416614757626
 20
213.44071611804816
 10
79.08114492564755
 20
213.6697090440719
 10
79.54292924713207
 20
215.05506200852543
 10
80.47636644105867
 20
215.988499202452
 10
80.47636644105867
 20
216.75268082192335
  0
LWPOLYLINE
  5
AB
330
17
100
AcDbEntity
  8
ENG_L
100
AcDbPolyline
 90
4
 70
1
 10
89.44916903148176
 20
211.1531391002872
 10
89.57419236546245
 20
210.93434826582103
 10
89.59763424058383
 20
211.00467389118515
 10
89.44916903148176
 20
211.1531391002872
  0
LWPOLYLINE
  5
AC
330
17
100
AcDbEntity
  8
ENG_L
100
AcDbPolyline
 90
5
 70
1
 10
89.26975728315013
 20
224.54330711412163
 10
89.73216382785691
 20
224.08090056941487
 10
90.42248412793136
 20
224.08090056941487
 10
90.5172168083025
 20
224.36509861052832
 10
89.26975728315013
 20
224.54330711412163
  0
LWPOLYLINE
  5
AD
330
17
100
AcDbEntity
  8
ENG_L
100
AcDbPolyline
 90
7
 70
1
 10
87.22288817863245
 20
207.11479262538944
 10
86.92510566215013
 20
207.4125751418717
 10
86.73018643057287
 20
205.65830205767642
 10
86.32155265107326
 20
205.2496682781768
 10
86.78883116206003
 20
204.47087075986548
 10
87.22288817863245
 20
204.9049277764379
 10
87.22288817863245
 20
207.11479262538944
  0
LWPOLYLINE
  5
AE
330
17
100
AcDbEntity
  8
ENG_L
100
AcDbPolyline
 90
5
 70
1
 10
86.89338216148126
 20
202.94137611747774
 10
87.1590585981948
 20
203.02993492971567
 10
87.07049978595697
 20
203.29561136642914
 10
86.8048233492434
 20
203.20705255419136
 10
86.89338216148126
 20
202.94137611747774
  0
LWPOLYLINE
  5
AF
330
17
100
AcDbEntity
  8
ENG_L
100
AcDbPolyline
 90
5
 70
1
 10
85.4093521362131
 20
198.47604174902133
 10
85.71475165705814
 20
198.9850409504298
 10
85.71212733624348
 20
198.98766527124445
 10
85.33234617579816
 20
198.861071551096
 10
85.4093521362131
 20
198.47604174902133
  0
LWPOLYLINE
  5
B0
330
17
100
AcDbEntity
  8
ENG_L
100
AcDbPolyline
 90
6
 70
1
 10
81.98692954739839
 20
222.93575824920086
 10
81.94266001639261
 20
222.71441059417208
 10
82.86685220892741
 20
221.79021840163716
 10
82.88583849019216
 20
221.6952869953135
 10
82.88583849019216
 20
222.4863037778042
 10
81.98692954739839
 20
222.93575824920086
  0
LWPOLYLINE
  5
B1
330
17
100
AcDbEntity
  8
ENG_L
100
AcDbPolyline
 90
5
 70
1
 10
82.9167540089729
 20
221.54070940140969
 10
83.06857858615585
 20
220.78158651549495
 10
83.36773290001886
 20
220.8813046201159
 10
83.36773290001886
 20
221.08973051036364
 10
82.9167540089729
 20
221.54070940140969
  0
LWPOLYLINE
  5
B2
330
17
100
AcDbEntity
  8
ENG_L
100
AcDbPolyline
 90
9
 70
1
 10
76.65381553712113
 20
193.74545432477063
 10
76.8980041825875
 20
193.8268505399261
 10
76.62121116244508
 20
194.1036435600686
 10
76.62121116244508
 20
196.48396817857028
 10
75.19978006120128
 20
197.43158891273282
 10
74.97799847402787
 20
198.54049684859987
 10
74.43715801585091
 20
198.54049684859987
 10
74.2207111256577
 20
195.29379349570198
 10
76.65381553712113
 20
193.74545432477063
  0
LWPOLYLINE
  5
B3
330
17
100
AcDbEntity
  8
ENG_L
100
AcDbPolyline
 90
4
 70
1
 10
72.85940506834841
 20
202.63659933212674
 10
72.90719948865384
 20
202.63659933212674
 10
72.87135367342478
 20
202.67244514735583
 10
72.85940506834841
 20
202.63659933212674
  0
LWPOLYLINE
  5
B4
330
17
100
AcDbEntity
  8
ENG_L
100
AcDbPolyline
 90
4
 70
1
 10
97.10172358007976
 20
105.6760193568692
 10
97.10172358007976
 20
107.32130978653132
 10
97.92436879491086
 20
106.49866457170043
 10
97.10172358007976
 20
105.6760193568692
  0
LWPOLYLINE
  5
B5
330
17
100
AcDbEntity
  8
ENG_L
100
AcDbPolyline
 90
4
 70
1
 10
96.96057997525746
 20
69.39279501504458
 10
96.13793476042638
 20
68.5701498002137
 10
96.13793476042638
 20
70.21544022987581
 10
96.96057997525746
 20
69.39279501504458
  0
LWPOLYLINE
  5
B6
330
17
100
AcDbEntity
  8
ENG_L
100
AcDbPolyline
 90
5
 70
1
 10
96.4439595782486
 20
71.83699305136015
 10
97.06587776485077
 20
71.2150748647582
 10
95.8319099426041
 20
70.80375225734248
 10
95.20999175600204
 20
71.42567044394477
 10
96.4439595782486
 20
71.83699305136015
  0
LWPOLYLINE
  5
B7
330
17
100
AcDbEntity
  8
ENG_L
100
AcDbPolyline
 90
4
 70
1
 10
96.47868556543077
 20
102.64350929308685
 10
95.65604035059967
 20
101.82086407825564
 10
95.65604035059967
 20
103.46615450791774
 10
96.47868556543077
 20
102.64350929308685
  0
LWPOLYLINE
  5
B8
330
17
100
AcDbEntity
  8
ENG_L
100
AcDbPolyline
 90
4
 70
1
 10
95.65604035059967
 20
104.42994332757138
 10
96.47868556543077
 20
103.60729811274017
 10
95.65604035059967
 20
102.78465289790928
 10
95.65604035059967
 20
104.42994332757138
  0
LWPOLYLINE
  5
B9
330
17
100
AcDbEntity
  8
ENG_L
100
AcDbPolyline
 90
5
 70
1
 10
94.89584842786277
 20
65.11819861869861
 10
96.71111793899992
 20
64.02903691201622
 10
95.35001553277743
 20
63.57533610994215
 10
94.3515007259419
 20
64.57385091677759
 10
94.89584842786277
 20
65.11819861869861
  0
LWPOLYLINE
  5
BA
330
17
100
AcDbEntity
  8
ENG_L
100
AcDbPolyline
 90
5
 70
1
 10
93.9323742797337
 20
66.66274826341501
 10
95.04036700213793
 20
67.03207917088294
 10
96.03855968288661
 20
65.36842470296855
 10
94.26228978763312
 20
65.013170723918
 10
93.9323742797337
 20
66.66274826341501
  0
LWPOLYLINE
  5
BB
330
17
100
AcDbEntity
  8
ENG_L
100
AcDbPolyline
 90
9
 70
1
 10
94.00011089880987
 20
213.54832617071494
 10
95.62377495263252
 20
214.63076887326338
 10
95.90477735064256
 20
210.97773769913252
 10
95.02168748651874
 20
210.09464783500874
 10
92.39462974948049
 20
210.3865431391241
 10
93.4352876665665
 20
212.46785897329602
 10
92.31862529704185
 20
213.5845213428207
 10
93.55259311928842
 20
213.9958439502364
 10
94.00011089880987
 20
213.54832617071494
  0
LWPOLYLINE
  5
BC
330
17
100
AcDbEntity
  8
ENG_L
100
AcDbPolyline
 90
4
 70
1
 10
95.17414594077297
 20
102.98426009809103
 10
95.99679115560407
 20
102.16161488326014
 10
95.17414594077297
 20
101.33896966842893
 10
95.17414594077297
 20
102.98426009809103
  0
LWPOLYLINE
  5
BD
330
17
100
AcDbEntity
  8
ENG_L
100
AcDbPolyline
 90
4
 70
1
 10
94.69225153094628
 20
66.64257216090652
 10
94.69225153094628
 20
68.28786259056874
 10
95.51489674577735
 20
67.46521737573785
 10
94.69225153094628
 20
66.64257216090652
  0
LWPOLYLINE
  5
BE
330
17
100
AcDbEntity
  8
ENG_L
100
AcDbPolyline
 90
5
 70
1
 10
94.07470770579951
 20
92.72882807641058
 10
94.54465351054984
 20
91.31899066215942
 10
93.48751550637952
 20
91.31899066215942
 10
93.48751550637952
 20
92.14163587699042
 10
94.07470770579951
 20
92.72882807641058
  0
LWPOLYLINE
  5
BF
330
17
100
AcDbEntity
  8
ENG_L
100
AcDbPolyline
 90
5
 70
1
 10
94.02237105219531
 20
89.39141302285269
 10
93.00562109655283
 20
89.39141302285269
 10
93.00562109655283
 20
90.6959526475103
 10
93.63548945547859
 20
91.32582100643627
 10
94.02237105219531
 20
89.39141302285269
  0
LWPOLYLINE
  5
C0
330
17
100
AcDbEntity
  8
ENG_L
100
AcDbPolyline
 90
4
 70
1
 10
92.76467389163948
 20
89.97311103277016
 10
93.58731910647057
 20
89.15046581793928
 10
92.76467389163948
 20
88.32782060310807
 10
92.76467389163948
 20
89.97311103277016
  0
LWPOLYLINE
  5
C1
330
17
100
AcDbEntity
  8
ENG_L
100
AcDbPolyline
 90
4
 70
1
 10
89.732163827857
 20
180.2285092751853
 10
88.90951861302588
 20
179.40586406035442
 10
88.90951861302588
 20
181.0511544900162
 10
89.732163827857
 20
180.2285092751853
  0
LWPOLYLINE
  5
C2
330
17
100
AcDbEntity
  8
ENG_L
100
AcDbPolyline
 90
4
 70
1
 10
88.42762420319919
 20
182.0149433096696
 10
89.25026941803029
 20
181.19229809483872
 10
88.42762420319919
 20
180.3696528800075
 10
88.42762420319919
 20
182.0149433096696
  0
LWPOLYLINE
  5
C3
330
17
100
AcDbEntity
  8
ENG_L
100
AcDbPolyline
 90
4
 70
1
 10
87.4638353835458
 20
79.85332842640946
 10
88.28648059837688
 20
79.03068321157858
 10
87.4638353835458
 20
78.20803799674736
 10
87.4638353835458
 20
79.85332842640946
  0
LWPOLYLINE
  5
C4
330
17
100
AcDbEntity
  8
ENG_L
100
AcDbPolyline
 90
4
 70
1
 10
86.9819409737191
 20
77.24424917709428
 10
86.9819409737191
 20
78.88953960675649
 10
87.80458618855016
 20
78.06689439192516
 10
86.9819409737191
 20
77.24424917709428
  0
LWPOLYLINE
  5
C5
330
17
100
AcDbEntity
  8
ENG_L
100
AcDbPolyline
 90
4
 70
1
 10
87.32269177872347
 20
77.10310557227173
 10
86.5000465638924
 20
76.28046035744084
 10
86.5000465638924
 20
77.92575078710307
 10
87.32269177872347
 20
77.10310557227173
  0
LWPOLYLINE
  5
C6
330
17
100
AcDbEntity
  8
ENG_L
100
AcDbPolyline
 90
4
 70
1
 10
75.89836954770503
 20
211.4105023090982
 10
76.72101476253613
 20
210.5878570942673
 10
75.89836954770503
 20
209.7652118794364
 10
75.89836954770503
 20
211.4105023090982
  0
LWPOLYLINE
  5
C7
330
17
100
AcDbEntity
  8
ENG_L
100
AcDbPolyline
 90
4
 70
1
 10
75.41647513787834
 20
208.801423059783
 10
75.41647513787834
 20
210.4467134894451
 10
76.23912035270942
 20
209.62406827461388
 10
75.41647513787834
 20
208.801423059783
  0
LWPOLYLINE
  5
C8
330
17
100
AcDbEntity
  8
ENG_L
100
AcDbPolyline
 90
5
 70
1
 10
73.24795029365819
 20
206.00986020091372
 10
73.24795029365819
 20
206.83250541574472
 10
73.8351424930782
 20
207.41969761516467
 10
74.3050882978285
 20
206.00986020091372
 10
73.24795029365819
 20
206.00986020091372
  0
LWPOLYLINE
  5
C9
330
17
100
AcDbEntity
  8
ENG_D
100
AcDbPolyline
 90
6
 70
1
 10
219.24276041755078
 20
130.57489725088146
 10
219.6385530913813
 20
131.76227527237316
 10
221.1895341104547
 20
130.21129425329957
 10
221.1895341104547
 20
128.42486021881527
 10
220.3177789335839
 20
128.42486021881527
 10
219.24276041755078
 20
130.57489725088146
  0
LWPOLYLINE
  5
CA
330
17
100
AcDbEntity
  8
ENG_D
100
AcDbPolyline
 90
5
 70
1
 10
219.83720006549152
 20
132.28001549742885
 10
218.78006206132116
 20
132.28001549742885
 10
218.78006206132116
 20
133.10266071225985
 10
219.3672542607412
 20
133.6898529116798
 10
219.83720006549152
 20
132.28001549742885
  0
LWPOLYLINE
  5
CB
330
17
100
AcDbEntity
  8
ENG_D
100
AcDbPolyline
 90
5
 70
1
 10
219.3553056556648
 20
137.09895959569585
 10
218.29816765149448
 20
137.09895959569585
 10
218.29816765149448
 20
137.92160481052673
 10
218.88535985091443
 20
138.5087970099469
 10
219.3553056556648
 20
137.09895959569585
  0
LWPOLYLINE
  5
CC
330
17
100
AcDbEntity
  8
ENG_D
100
AcDbPolyline
 90
5
 70
1
 10
218.98012037493487
 20
137.157874304487
 10
219.28120268165833
 20
133.24380431708215
 10
218.29816765149448
 20
133.24380431708215
 10
218.29816765149448
 20
136.47592158104672
 10
218.98012037493487
 20
137.157874304487
  0
LWPOLYLINE
  5
CD
330
17
100
AcDbEntity
  8
ENG_D
100
AcDbPolyline
 90
5
 70
1
 10
218.29816765149448
 20
139.36728804000685
 10
218.88535985091443
 20
139.95448023942703
 10
219.3553056556648
 20
138.54464282517586
 10
218.29816765149448
 20
138.54464282517586
 10
218.29816765149448
 20
139.36728804000685
  0
LWPOLYLINE
  5
CE
330
17
100
AcDbEntity
  8
ENG_D
100
AcDbPolyline
 90
5
 70
1
 10
217.81627324166777
 20
139.5084316448293
 10
217.81627324166777
 20
140.3310768596603
 10
218.4034654410878
 20
140.91826905908022
 10
218.87341124583813
 20
139.5084316448293
 10
217.81627324166777
 20
139.5084316448293
  0
LWPOLYLINE
  5
CF
330
17
100
AcDbEntity
  8
ENG_D
100
AcDbPolyline
 90
5
 70
1
 10
218.35112878748356
 20
140.47222046448272
 10
217.3343788318411
 20
140.47222046448272
 10
217.3343788318411
 20
141.77676008914042
 10
217.96424719076686
 20
142.4066284480662
 10
218.35112878748356
 20
140.47222046448272
  0
LWPOLYLINE
  5
D0
330
17
100
AcDbEntity
  8
ENG_D
100
AcDbPolyline
 90
5
 70
1
 10
217.86923437765688
 20
144.3273757430963
 10
216.85248442201438
 20
144.3273757430963
 10
216.85248442201438
 20
145.631915367754
 10
217.4823527809402
 20
146.26178372667965
 10
217.86923437765688
 20
144.3273757430963
  0
LWPOLYLINE
  5
D1
330
17
100
AcDbEntity
  8
ENG_D
100
AcDbPolyline
 90
5
 70
1
 10
217.48235278094015
 20
143.85231167754642
 10
217.86923437765685
 20
141.91790369396273
 10
216.85248442201438
 20
141.91790369396273
 10
216.85248442201438
 20
143.22244331862044
 10
217.48235278094015
 20
143.85231167754642
  0
LWPOLYLINE
  5
D2
330
17
100
AcDbEntity
  8
ENG_D
100
AcDbPolyline
 90
5
 70
1
 10
216.37059001218768
 20
148.18253102170985
 10
216.37059001218768
 20
149.00517623654085
 10
216.95778221160768
 20
149.5923684359608
 10
217.427728016358
 20
148.18253102170985
 10
216.37059001218768
 20
148.18253102170985
  0
LWPOLYLINE
  5
D3
330
17
100
AcDbEntity
  8
ENG_D
100
AcDbPolyline
 90
5
 70
1
 10
216.37059001218768
 20
145.77305897257642
 10
216.37059001218768
 20
146.5957041874073
 10
216.95778221160762
 20
147.18289638682748
 10
217.427728016358
 20
145.77305897257642
 10
216.37059001218768
 20
145.77305897257642
  0
LWPOLYLINE
  5
D4
330
17
100
AcDbEntity
  8
ENG_D
100
AcDbPolyline
 90
9
 70
1
 10
215.888695602361
 20
150.89538596797104
 10
215.888695602361
 20
148.57239178875392
 10
216.90620268223387
 20
148.0636382488174
 10
216.52861440276115
 20
146.93087341039924
 10
214.28315561994884
 20
147.49223810610235
 10
212.9973291434008
 20
149.80672576388886
 10
212.9973291434008
 20
151.39205984447457
 10
214.46851219015858
 20
153.45171610993546
 10
215.888695602361
 20
150.89538596797104
  0
LWPOLYLINE
  5
D5
330
17
100
AcDbEntity
  8
ENG_D
100
AcDbPolyline
 90
4
 70
1
 10
215.64774839744763
 20
153.58317312989467
 10
216.4703936122787
 20
152.76052791506345
 10
215.64774839744763
 20
151.93788270023256
 10
215.64774839744763
 20
153.58317312989467
  0
LWPOLYLINE
  5
D6
330
17
100
AcDbEntity
  8
ENG_D
100
AcDbPolyline
 90
5
 70
1
 10
214.71980539302328
 20
125.87973875436154
 10
215.9537732152699
 20
126.29106136177725
 10
216.575691401872
 20
125.66914317517497
 10
215.34172357962544
 20
125.25782056775958
 10
214.71980539302328
 20
125.87973875436154
  0
LWPOLYLINE
  5
D7
330
17
100
AcDbEntity
  8
ENG_D
100
AcDbPolyline
 90
4
 70
1
 10
215.98849920245203
 20
154.20621114454357
 10
215.16585398762095
 20
153.38356592971257
 10
215.16585398762095
 20
155.02885635937457
 10
215.98849920245203
 20
154.20621114454357
  0
LWPOLYLINE
  5
D8
330
17
100
AcDbEntity
  8
ENG_D
100
AcDbPolyline
 90
4
 70
1
 10
214.68395957779424
 20
154.34735474936602
 10
214.68395957779424
 20
155.9926451790281
 10
215.50660479262532
 20
155.1699999641969
 10
214.68395957779424
 20
154.34735474936602
  0
LWPOLYLINE
  5
D9
330
17
100
AcDbEntity
  8
ENG_D
100
AcDbPolyline
 90
4
 70
1
 10
214.20206516796753
 20
155.31114356901944
 10
214.20206516796753
 20
156.95643399868152
 10
215.02471038279862
 20
156.13378878385032
 10
214.20206516796753
 20
155.31114356901944
  0
LWPOLYLINE
  5
DA
330
17
100
AcDbEntity
  8
ENG_D
100
AcDbPolyline
 90
5
 70
1
 10
214.04031121729136
 20
147.96219416265043
 10
214.69078992207102
 20
147.31171545787058
 10
212.9181358891637
 20
146.95718465128925
 10
212.26765718438395
 20
147.6076633560688
 10
214.04031121729136
 20
147.96219416265043
  0
LWPOLYLINE
  5
DB
330
17
100
AcDbEntity
  8
ENG_D
100
AcDbPolyline
 90
5
 70
1
 10
212.7922277537165
 20
125.87973875436154
 10
214.0261955759631
 20
126.29106136177725
 10
214.6481137625652
 20
125.66914317517497
 10
213.4141459403186
 20
125.25782056775958
 10
212.7922277537165
 20
125.87973875436154
  0
LWPOLYLINE
  5
DC
330
17
100
AcDbEntity
  8
ENG_D
100
AcDbPolyline
 90
4
 70
1
 10
213.23827634831414
 20
129.48845263855947
 10
214.0609215631452
 20
128.66580742372858
 10
213.23827634831414
 20
127.84316220889735
 10
213.23827634831414
 20
129.48845263855947
  0
LWPOLYLINE
  5
DD
330
17
100
AcDbEntity
  8
ENG_D
100
AcDbPolyline
 90
4
 70
1
 10
213.23827634831414
 20
128.52466381890605
 10
214.0609215631452
 20
127.70201860407515
 10
213.23827634831414
 20
126.87937338924394
 10
213.23827634831414
 20
128.52466381890605
  0
LWPOLYLINE
  5
DE
330
17
100
AcDbEntity
  8
ENG_D
100
AcDbPolyline
 90
4
 70
1
 10
212.75638193848744
 20
155.51075076920117
 10
213.57902715331852
 20
154.68810555437028
 10
212.75638193848744
 20
153.86546033953908
 10
212.75638193848744
 20
155.51075076920117
  0
LWPOLYLINE
  5
DF
330
17
100
AcDbEntity
  8
ENG_D
100
AcDbPolyline
 90
5
 70
1
 10
212.6074683763567
 20
130.35243785812202
 10
211.99982620606335
 20
131.56772219870882
 10
213.15797469509758
 20
133.49796968043248
 10
213.50747823090987
 20
130.35243785812202
 10
212.6074683763567
 20
130.35243785812202
  0
LWPOLYLINE
  5
E0
330
17
100
AcDbEntity
  8
ENG_D
100
AcDbPolyline
 90
4
 70
1
 10
213.0971327434918
 20
133.96664593182228
 10
212.27448752866073
 20
133.14400071699106
 10
212.27448752866073
 20
134.78929114665317
 10
213.0971327434918
 20
133.96664593182228
  0
LWPOLYLINE
  5
E1
330
17
100
AcDbEntity
  8
ENG_D
100
AcDbPolyline
 90
4
 70
1
 10
212.27448752866073
 20
156.95643399868152
 10
213.0971327434918
 20
156.13378878385032
 10
212.27448752866073
 20
155.31114356901944
 10
212.27448752866073
 20
156.95643399868152
  0
LWPOLYLINE
  5
E2
330
17
100
AcDbEntity
  8
ENG_D
100
AcDbPolyline
 90
9
 70
1
 10
211.56053331289948
 20
143.0139487194597
 10
211.069751504094
 20
143.50473052826518
 10
211.069751504094
 20
144.6252028673576
 10
211.4994180741077
 20
145.48453600738497
 10
210.86465011440967
 20
146.11930396708306
 10
212.2312366924605
 20
146.57483282643324
 10
213.0119450422407
 20
141.10987437797164
 10
211.84015715213525
 20
139.93808648786597
 10
211.56053331289948
 20
143.0139487194597
  0
LWPOLYLINE
  5
E3
330
17
100
AcDbEntity
  8
ENG_D
100
AcDbPolyline
 90
5
 70
1
 10
211.3465445242364
 20
136.7527146011892
 10
212.51543473357407
 20
137.92160481052673
 10
213.03205513058293
 20
137.404984413518
 10
212.6678231262496
 20
136.312288400518
 10
211.3465445242364
 20
136.7527146011892
  0
LWPOLYLINE
  5
E4
330
17
100
AcDbEntity
  8
ENG_D
100
AcDbPolyline
 90
5
 70
1
 10
212.2039157262496
 20
140.01955785233588
 10
212.55230199008003
 20
137.58085400552244
 10
211.5516459139207
 20
137.58085400552244
 10
211.5516459139207
 20
139.36728804000685
 10
212.2039157262496
 20
140.01955785233588
  0
LWPOLYLINE
  5
E5
330
17
100
AcDbEntity
  8
ENG_D
100
AcDbPolyline
 90
4
 70
1
 10
211.79259311883405
 20
136.23497437613364
 10
212.6152383336651
 20
135.4123291613023
 10
211.79259311883405
 20
134.5896839464713
 10
211.79259311883405
 20
136.23497437613364
  0
LWPOLYLINE
  5
E6
330
17
100
AcDbEntity
  8
ENG_D
100
AcDbPolyline
 90
5
 70
1
 10
205.87421078559356
 20
149.1104740261343
 10
206.34415659034394
 20
147.70063661188314
 10
205.28701858617362
 20
147.70063661188314
 10
205.28701858617362
 20
148.52328182671414
 10
205.87421078559356
 20
149.1104740261343
  0
LWPOLYLINE
  5
E7
330
17
100
AcDbEntity
  8
ENG_D
100
AcDbPolyline
 90
4
 70
1
 10
205.04607138126028
 20
148.08272742161898
 10
205.04607138126028
 20
149.72801785128075
 10
205.86871659609136
 20
148.90537263644987
 10
205.04607138126028
 20
148.08272742161898
  0
LWPOLYLINE
  5
E8
330
17
100
AcDbEntity
  8
ENG_D
100
AcDbPolyline
 90
4
 70
1
 10
205.86871659609136
 20
149.86916145610328
 10
205.04607138126028
 20
149.0465162412724
 10
205.04607138126028
 20
150.69180667093417
 10
205.86871659609136
 20
149.86916145610328
  0
LWPOLYLINE
  5
E9
330
17
100
AcDbEntity
  8
ENG_D
100
AcDbPolyline
 90
4
 70
1
 10
204.56417697143357
 20
152.41977711005927
 10
204.56417697143357
 20
154.06506753972104
 10
205.38682218626465
 20
153.24242232489016
 10
204.56417697143357
 20
152.41977711005927
  0
LWPOLYLINE
  5
EA
330
17
100
AcDbEntity
  8
ENG_D
100
AcDbPolyline
 90
179
 70
1
 10
197.57670802894646
 20
154.30601474463458
 10
197.57670802894646
 20
150.9327538758476
 10
199.15254648424434
 20
149.35691542054974
 10
200.59822971372444
 20
148.87502101072315
 10
201.53166690765107
 20
147.94158381679645
 10
201.0291621519704
 20
147.43907906111596
 10
196.01223491811066
 20
148.4424645078879
 10
195.06743237972188
 20
149.3872670462767
 10
194.11356582285956
 20
149.3872670462767
 10
190.34829188154595
 20
152.65050446208173
 10
190.34829188154595
 20
161.0096128014653
 10
192.27586952085275
 20
164.864768080079
 10
192.27586952085275
 20
165.64272594966155
 10
190.69293351288442
 20
166.69801662164053
 10
191.31208070119933
 20
167.31716380995542
 10
191.31208070119933
 20
169.72663585908887
 10
191.79397511102604
 20
170.20853026891558
 10
191.79397511102604
 20
179.36452405562287
 10
192.27586952085275
 20
179.84641846544957
 10
192.27586952085275
 20
182.05628331440104
 10
191.79397511102604
 20
182.53817772422775
 10
191.79397511102604
 20
184.94764977336132
 10
191.21227710110833
 20
185.529347783279
 10
191.69417151093504
 20
186.01124219310572
 10
191.21227710110833
 20
186.4931366029323
 10
191.69417151093504
 20
186.97503101275902
 10
190.3838928203699
 20
188.28530970332423
 10
189.36594218515052
 20
190.8301862913726
 10
190.28318663021733
 20
193.12329740403968
 10
189.38450306189256
 20
193.57263918820212
 10
189.38450306189256
 20
196.03122119937532
 10
188.87190766946225
 20
196.54381659180564
 10
187.42622443998218
 20
195.58002777215233
 10
186.97503101275905
 20
196.03122119937532
 10
186.97503101275905
 20
198.4406932485089
 10
186.45841061575024
 20
198.95731364551773
 10
186.80136609327096
 20
199.98618007807988
 10
188.03862343250356
 20
199.98618007807988
 10
188.52051784233024
 20
199.50428566825317
 10
191.1756587119379
 20
199.50428566825317
 10
191.760260993342
 20
200.4786228039267
 10
190.83018629137266
 20
202.33877220786545
 10
190.83018629137266
 20
203.28648800323944
 10
189.86639747171927
 20
204.73217123271948
 10
189.86639747171927
 20
207.11479262538944
 10
189.21869162041136
 20
207.76249847669737
 10
190.34829188154595
 20
208.3272986072645
 10
190.34829188154595
 20
208.5604758548696
 10
188.90260865206588
 20
210.0061590843496
 10
188.90260865206588
 20
212.16249135447018
 10
190.34829188154595
 20
213.1262801741236
 10
190.34829188154595
 20
214.9978597263349
 10
191.31208070119933
 20
216.44354295581502
 10
191.31208070119933
 20
220.78059264425542
 10
192.28989651188002
 20
222.2473163602765
 10
192.78078862923243
 20
224.7017769470383
 10
196.55605538157016
 20
227.4703058987526
 10
198.0721256051047
 20
227.16709185404582
 10
197.57189837899648
 20
219.66368346242226
 10
196.61858862138615
 20
218.23371882600674
 10
197.08364081668705
 20
212.18804028709448
 10
198.22441388025433
 20
211.61765375531095
 10
197.57670802894646
 20
210.96994790400302
 10
197.57670802894646
 20
208.24512355729385
 10
198.21935483819055
 20
207.174045541887
 10
199.02239125842655
 20
206.90636673514183
 10
199.02239125842655
 20
203.45924454695785
 10
199.55651350806625
 20
202.92512229731818
 10
199.07461909823957
 20
201.96133347766477
 10
200.03840791789298
 20
200.99754465801135
 10
199.55651350806627
 20
200.03375583835802
 10
199.98618007807994
 20
199.60408926834415
 10
199.98618007807994
 20
197.14121581097487
 10
200.94996889773333
 20
194.73174376184144
 10
200.94996889773333
 20
193.33946194059715
 10
201.46658929474216
 20
192.8228415435883
 10
200.98469488491546
 20
191.3771583141083
 10
201.9828603348741
 20
190.37899286414972
 10
201.0190715152207
 20
188.9333096346696
 10
201.43186330756004
 20
188.52051784233015
 10
201.43186330756004
 20
183.70157374406315
 10
201.94848370456887
 20
183.18495334705432
 10
201.52521249207697
 20
181.91513970957874
 10
202.4102419958985
 20
181.91513970957874
 10
201.91969572643248
 20
173.57585312865675
 10
202.39565212721345
 20
173.09989672787586
 10
202.39565212721345
 20
169.72663585908887
 10
202.97735013713114
 20
169.14493784917119
 10
202.4478799670265
 20
168.61546767906654
 10
203.35944094686684
 20
166.79234571938574
 10
203.35944094686684
 20
159.12495884290158
 10
203.84133535669352
 20
158.64306443307484
 10
203.84133535669352
 20
156.20674172747772
 10
204.8157214156711
 20
154.7451626390114
 10
204.33784566536013
 20
151.40003238683454
 10
204.90492777643792
 20
150.83295027575662
 10
204.42303336661124
 20
150.35105586593
 10
204.8051241763469
 20
149.9689650561943
 10
204.8051241763469
 20
147.80516182753502
 10
203.13105055021646
 20
146.80071765185676
 10
202.88055134087043
 20
155.0671915602756
 10
202.39565212721342
 20
155.55209077393272
 10
202.39565212721342
 20
157.50651906970313
 10
201.43186330756004
 20
158.95220229918328
 10
201.43186330756004
 20
160.5706420723816
 10
201.86152987757373
 20
161.00030864239534
 10
200.94996889773333
 20
162.82343060207614
 10
200.94996889773333
 20
165.1899789704666
 10
200.39088048716576
 20
165.74906738103422
 10
201.80912433453983
 20
167.640059177533
 10
200.46807448790662
 20
168.53409240862183
 10
200.46807448790662
 20
171.93650070804046
 10
199.96556973222607
 20
172.43900546372092
 10
200.9293585518795
 20
177.2579495619879
 10
199.9861800780799
 20
178.20112803578746
 10
199.9861800780799
 20
187.41052323073072
 10
199.02239125842652
 20
189.81999527986426
 10
199.02239125842652
 20
191.23912775757202
 10
197.98949982128576
 20
192.78846491328318
 10
198.44069324850884
 20
193.23965834050617
 10
198.05860243877314
 20
193.6217491502419
 10
198.05860243877314
 20
194.7582945136137
 10
198.95328864093918
 20
196.1003238168627
 10
198.54049684859984
 20
196.51311560920203
 10
198.54049684859984
 20
199.4044820681622
 10
197.52448018913344
 20
200.42049872762857
 10
198.02150733506588
 20
201.41455301949352
 10
197.02571100163237
 20
202.90824751964388
 10
197.57670802894646
 20
203.45924454695785
 10
197.57670802894646
 20
205.20434773279294
 10
195.96846466771242
 20
207.2720891972366
 10
193.71691722104504
 20
208.62301766523706
 10
191.82378898214634
 20
207.57127975473787
 10
192.26300550971433
 20
205.37519711689777
 10
193.71427180243302
 20
202.95641996236668
 10
194.19263982192666
 20
198.65110778692375
 10
195.21946381962596
 20
197.62428378922448
 10
194.68534156998626
 20
196.55603928994503
 10
194.68534156998626
 20
192.85756753077044
 10
195.64913038963965
 20
191.89377871111702
 10
195.64913038963965
 20
190.69376430211116
 10
194.16609685216275
 20
189.8039441796251
 10
193.6423594960957
 20
190.32768153569202
 10
192.87340455717273
 20
190.17389054790746
 10
193.2511923968462
 20
189.41831486856066
 10
192.7783742765333
 20
187.05422426699624
 10
193.23965834050617
 20
186.59294020302332
 10
193.23965834050617
 20
179.8133533775187
 10
193.8041969598062
 20
178.87245567868538
 10
194.6109946820595
 20
179.35653431203724
 10
194.20344716015956
 20
180.1716293558373
 10
194.20344716015956
 20
181.2921016949297
 10
194.68534156998624
 20
181.7739961047564
 10
194.68534156998624
 20
184.4657553635346
 10
194.20344716015956
 20
184.94764977336132
 10
194.20344716015956
 20
187.55672902267673
 10
194.58553796989523
 20
187.93881983241246
 10
194.16872117297743
 20
188.3556366293303
 10
194.5517438891062
 20
189.50470477771663
 10
196.13102479946633
 20
188.5571362315006
 10
196.13102479946633
 20
185.62915138337
 10
196.61291920929304
 20
185.14725697354328
 10
196.61291920929304
 20
183.52881720034486
 10
195.76006364251873
 20
182.24953385018327
 10
196.61291920929304
 20
181.82310606679619
 10
196.61291920929304
 20
171.6542134983957
 10
197.09481361911975
 20
171.172319088569
 10
197.09481361911975
 20
168.28095262960886
 10
197.57670802894646
 20
167.79905821978213
 10
197.57670802894646
 20
165.1899789704666
 10
197.11192004775373
 20
164.72519098927384
 10
197.59381445758044
 20
161.8338245303137
 10
197.09481361911975
 20
161.33482369185305
 10
197.09481361911975
 20
160.088747662555
 10
197.57670802894646
 20
159.60685325272829
 10
197.57670802894646
 20
158.44345723289288
 10
197.09481361911975
 20
157.96156282306617
 10
197.09481361911975
 20
154.7879091544613
 10
197.57670802894646
 20
154.30601474463458
  0
LWPOLYLINE
  5
EB
330
17
100
AcDbEntity
  8
ENG_D
100
AcDbPolyline
 90
7
 70
1
 10
194.8557169724884
 20
224.29261597664828
 10
194.67519077853186
 20
223.0289326189523
 10
193.79065536782025
 20
221.70212950288516
 10
194.68534156998626
 20
220.807443300719
 10
195.16723597981294
 20
221.2893377105456
 10
195.16723597981294
 20
223.9810969693239
 10
194.8557169724884
 20
224.29261597664828
  0
LWPOLYLINE
  5
EC
330
17
100
AcDbEntity
  8
ENG_D
100
AcDbPolyline
 90
5
 70
1
 10
193.65481423817258
 20
209.62406827461388
 10
194.39824274315257
 20
210.07012537760184
 10
193.4806055454195
 20
210.46339846234463
 10
193.4806055454195
 20
209.62406827461388
 10
193.65481423817258
 20
209.62406827461388
  0
LWPOLYLINE
  5
ED
330
17
100
AcDbEntity
  8
ENG_D
100
AcDbPolyline
 90
5
 70
1
 10
193.99688761544644
 20
175.80957295562817
 10
193.73784050296152
 20
175.72322391813321
 10
193.91493592194502
 20
173.77517430931465
 10
194.19213231072766
 20
174.05237069809732
 10
193.99688761544644
 20
175.80957295562817
  0
LWPOLYLINE
  5
EE
330
17
100
AcDbEntity
  8
ENG_D
100
AcDbPolyline
 90
5
 70
1
 10
192.54873991727638
 20
161.6076940882766
 10
192.27586952085278
 20
161.33482369185305
 10
192.27586952085278
 20
159.60685325272829
 10
192.69084686927462
 20
159.1918759043064
 10
192.54873991727638
 20
161.6076940882766
  0
LWPOLYLINE
  5
EF
330
17
100
AcDbEntity
  8
ENG_D
100
AcDbPolyline
 90
5
 70
1
 10
192.7093713872186
 20
158.8769590992587
 10
192.2904854196927
 20
158.45807313173276
 10
192.41841992523806
 20
157.562531592915
 10
192.75380933738163
 20
158.12151394648765
 10
192.7093713872186
 20
158.8769590992587
  0
LWPOLYLINE
  5
F0
330
17
100
AcDbEntity
  8
ENG_D
100
AcDbPolyline
 90
4
 70
1
 10
202.49545572730446
 20
147.45968940696974
 10
201.67281051247338
 20
146.63704419213886
 10
201.67281051247338
 20
148.28233462180097
 10
202.49545572730446
 20
147.45968940696974
  0
LWPOLYLINE
  5
F1
330
17
100
AcDbEntity
  8
ENG_D
100
AcDbPolyline
 90
4
 70
1
 10
199.60408926834424
 20
220.2257452908012
 10
198.78144405351318
 20
219.4031000759702
 10
198.78144405351318
 20
221.0483905056324
 10
199.60408926834424
 20
220.2257452908012
  0
LWPOLYLINE
  5
F2
330
17
100
AcDbEntity
  8
ENG_D
100
AcDbPolyline
 90
4
 70
1
 10
197.67651162903746
 20
199.02239125842658
 10
196.85386641420638
 20
198.19974604359535
 10
196.85386641420638
 20
199.84503647325747
 10
197.67651162903746
 20
199.02239125842658
  0
LWPOLYLINE
  5
F3
330
17
100
AcDbEntity
  8
ENG_D
100
AcDbPolyline
 90
5
 70
1
 10
193.72155275033285
 20
247.93467385583634
 10
193.72155275033285
 20
248.75731907066756
 10
194.3087449497529
 20
249.34451127008717
 10
194.77869075450326
 20
247.93467385583634
 10
193.72155275033285
 20
247.93467385583634
  0
LWPOLYLINE
  5
F4
330
17
100
AcDbEntity
  8
ENG_D
100
AcDbPolyline
 90
19
 70
1
 10
189.86639747171927
 20
250.96718391961903
 10
189.38450306189256
 20
251.44907832944563
 10
189.38450306189256
 20
254.3404447884059
 10
188.88199830621204
 20
254.84294954408648
 10
189.21528802843017
 20
256.50939815517717
 10
190.75966512955702
 20
255.58277189450095
 10
191.84261040677762
 20
253.95835397866983
 10
190.86728139508
 20
252.49536046112354
 10
191.7510514302832
 20
250.72782039071706
 10
193.72155275033288
 20
248.75731907066756
 10
193.72155275033288
 20
247.59392305083216
 10
192.8575675307704
 20
246.72993783126972
 10
191.89377871111708
 20
246.72993783126972
 10
191.39127395543665
 20
246.22743307558915
 10
189.86639747171927
 20
246.5324083723328
 10
189.86639747171927
 20
248.27542466084074
 10
190.24848828145494
 20
248.65751547057658
 10
189.86639747171927
 20
249.0396062803122
 10
189.86639747171927
 20
250.96718391961903
  0
LWPOLYLINE
  5
F5
330
17
100
AcDbEntity
  8
ENG_D
100
AcDbPolyline
 90
4
 70
1
 10
192.9987111355928
 20
248.79865907539877
 10
192.9987111355928
 20
250.44394950506054
 10
193.8213563504239
 20
249.62130429023
 10
192.9987111355928
 20
248.79865907539877
  0
LWPOLYLINE
  5
F6
330
17
100
AcDbEntity
  8
ENG_D
100
AcDbPolyline
 90
6
 70
1
 10
188.3154164526458
 20
226.6954740082323
 10
188.9232189979197
 20
226.08767146295895
 10
188.609728780639
 20
224.52022037655527
 10
186.48011241123376
 20
224.9461436504363
 10
187.98274511780969
 20
225.69746000372425
 10
188.3154164526458
 20
226.6954740082323
  0
LWPOLYLINE
  5
F7
330
17
100
AcDbEntity
  8
ENG_D
100
AcDbPolyline
 90
5
 70
1
 10
187.45692542258575
 20
194.78514517007727
 10
188.6684917914293
 20
193.57357880123382
 10
186.8958377585219
 20
193.21904799465216
 10
186.39333300284136
 20
193.72155275033288
 10
187.45692542258575
 20
194.78514517007727
  0
LWPOLYLINE
  5
F8
330
17
100
AcDbEntity
  8
ENG_D
100
AcDbPolyline
 90
5
 70
1
 10
188.14392122209688
 20
245.17895681219605
 10
186.9099533998503
 20
244.76763420478088
 10
186.2880352132481
 20
245.38955239138272
 10
187.52200303549478
 20
245.80087499879832
 10
188.14392122209688
 20
245.17895681219605
  0
LWPOLYLINE
  5
F9
330
17
100
AcDbEntity
  8
ENG_D
100
AcDbPolyline
 90
5
 70
1
 10
187.66202681226994
 20
228.31265246826194
 10
186.42805899002337
 20
227.90132986084632
 10
185.80614080342147
 20
228.5232480474484
 10
187.04010862566807
 20
228.934570654864
 10
187.66202681226994
 20
228.31265246826194
  0
LWPOLYLINE
  5
FA
330
17
100
AcDbEntity
  8
ENG_D
100
AcDbPolyline
 90
5
 70
1
 10
186.57232985716962
 20
225.5471941447489
 10
187.22280856194905
 20
224.89671543996926
 10
185.45015452904173
 20
224.5421846333877
 10
184.7996758242623
 20
225.19266333816734
 10
186.57232985716962
 20
225.5471941447489
  0
LWPOLYLINE
  5
FB
330
17
100
AcDbEntity
  8
ENG_D
100
AcDbPolyline
 90
6
 70
1
 10
186.15238579792796
 20
171.31346269339141
 10
183.98386095370788
 20
173.48198753761147
 10
184.4803712623744
 20
173.97849784627817
 10
186.44664870940287
 20
173.69760106813115
 10
187.0426833030878
 20
171.31346269339141
 10
186.15238579792796
 20
171.31346269339141
  0
LWPOLYLINE
  5
FC
330
17
100
AcDbEntity
  8
ENG_D
100
AcDbPolyline
 90
4
 70
1
 10
185.77029498819232
 20
237.7150876493852
 10
185.77029498819232
 20
239.36037807904697
 10
186.5929402030234
 20
238.53773286421577
 10
185.77029498819232
 20
237.7150876493852
  0
LWPOLYLINE
  5
FD
330
17
100
AcDbEntity
  8
ENG_D
100
AcDbPolyline
 90
5
 70
1
 10
185.52934778327898
 20
229.48154267759958
 10
186.11653998269892
 20
230.06873487701984
 10
186.58648578744928
 20
228.65889746276835
 10
185.52934778327898
 20
228.65889746276835
 10
185.52934778327898
 20
229.48154267759958
  0
LWPOLYLINE
  5
FE
330
17
100
AcDbEntity
  8
ENG_D
100
AcDbPolyline
 90
10
 70
1
 10
185.04745337345227
 20
206.83250541574472
 10
185.04745337345227
 20
205.31869902539313
 10
183.1198757341455
 20
206.60375078493098
 10
183.1198757341455
 20
207.79629423539814
 10
184.03143671398584
 20
208.7078552152386
 10
183.47770572693585
 20
209.81531718933843
 10
185.69434049776177
 20
210.13197929945648
 10
186.03879975086153
 20
209.09860154015715
 10
184.64275296436648
 20
207.2372058248305
 10
185.04745337345227
 20
206.83250541574472
  0
LWPOLYLINE
  5
FF
330
17
100
AcDbEntity
  8
ENG_D
100
AcDbPolyline
 90
5
 70
1
 10
185.7344491729633
 20
193.61625496073964
 10
184.50048135071668
 20
193.20493235332393
 10
183.87856316411458
 20
193.8268505399262
 10
185.11253098636112
 20
194.2381731473416
 10
185.7344491729633
 20
193.61625496073964
  0
LWPOLYLINE
  5
100
330
17
100
AcDbEntity
  8
ENG_D
100
AcDbPolyline
 90
5
 70
1
 10
184.5655589636256
 20
198.9225876583355
 10
183.50196654388114
 20
199.98618007808
 10
184.00447129956177
 20
200.4886848337605
 10
185.7771253324691
 20
200.13415402717916
 10
184.5655589636256
 20
198.9225876583355
  0
LWPOLYLINE
  5
101
330
17
100
AcDbEntity
  8
ENG_D
100
AcDbPolyline
 90
7
 70
1
 10
183.7541585366477
 20
203.9051649371312
 10
184.118390540981
 20
202.81246892413128
 10
183.6017701439722
 20
202.29584852712244
 10
183.6017701439722
 20
201.33205970746903
 10
182.33777135738333
 20
200.06806092088024
 10
182.65323775955483
 20
203.53819134476691
 10
183.7541585366477
 20
203.9051649371312
  0
LWPOLYLINE
  5
102
330
17
100
AcDbEntity
  8
ENG_D
100
AcDbPolyline
 90
5
 70
1
 10
181.1922980948387
 20
176.44009250873182
 10
182.29863731887738
 20
178.283991215463
 10
182.67484858082472
 20
175.6505123818317
 10
181.1922980948387
 20
175.6505123818317
 10
181.1922980948387
 20
176.44009250873182
  0
LWPOLYLINE
  5
103
330
17
100
AcDbEntity
  8
ENG_D
100
AcDbPolyline
 90
5
 70
1
 10
180.22850927518527
 20
252.61247434928103
 10
180.81570147460528
 20
253.1996665487013
 10
181.2856472793557
 20
251.78982913445003
 10
180.22850927518527
 20
251.78982913445003
 10
180.22850927518527
 20
252.61247434928103
  0
LWPOLYLINE
  5
104
330
17
100
AcDbEntity
  8
ENG_D
100
AcDbPolyline
 90
5
 70
1
 10
180.37648322428436
 20
202.16153526657698
 10
180.76336482100103
 20
200.2271272829933
 10
179.7466148653586
 20
200.2271272829933
 10
179.7466148653586
 20
201.53166690765102
 10
180.37648322428436
 20
202.16153526657698
  0
LWPOLYLINE
  5
105
330
17
100
AcDbEntity
  8
ENG_D
100
AcDbPolyline
 90
4
 70
1
 10
180.3283128752763
 20
194.20344716015958
 10
179.50566766044523
 20
193.38080194532836
 10
179.50566766044523
 20
195.02609237499047
 10
180.3283128752763
 20
194.20344716015958
  0
LWPOLYLINE
  5
106
330
17
100
AcDbEntity
  8
ENG_D
100
AcDbPolyline
 90
4
 70
1
 10
179.50566766044523
 20
244.94350379678508
 10
179.50566766044523
 20
246.58879422644753
 10
180.3283128752763
 20
245.7661490116163
 10
179.50566766044523
 20
244.94350379678508
  0
LWPOLYLINE
  5
107
330
17
100
AcDbEntity
  8
ENG_D
100
AcDbPolyline
 90
5
 70
1
 10
179.2647204555319
 20
196.71272280938402
 10
179.89458881445765
 20
197.34259116830967
 10
180.28147041117438
 20
195.40818318472643
 10
179.2647204555319
 20
195.40818318472643
 10
179.2647204555319
 20
196.71272280938402
  0
LWPOLYLINE
  5
108
330
17
100
AcDbEntity
  8
ENG_D
100
AcDbPolyline
 90
5
 70
1
 10
179.37001824512515
 20
245.97125040130052
 10
179.8399640498755
 20
244.56141298704947
 10
178.7828260457052
 20
244.56141298704947
 10
178.7828260457052
 20
245.38405820188046
 10
179.37001824512515
 20
245.97125040130052
  0
LWPOLYLINE
  5
109
330
17
100
AcDbEntity
  8
ENG_D
100
AcDbPolyline
 90
5
 70
1
 10
178.1583812314932
 20
240.48225092393793
 10
177.8119036696017
 20
242.90759385717874
 10
178.92137339782965
 20
245.49635655637724
 10
179.2722282748808
 20
242.33866266291736
 10
178.1583812314932
 20
240.48225092393793
  0
LWPOLYLINE
  5
10A
330
17
100
AcDbEntity
  8
ENG_D
100
AcDbPolyline
 90
6
 70
1
 10
177.8190372260518
 20
205.2301386668256
 10
177.23833788529532
 20
206.3915373483385
 10
178.52647745955537
 20
206.82091720642504
 10
178.79457275021147
 20
201.19091610264672
 10
177.8190372260518
 20
201.19091610264672
 10
177.8190372260518
 20
205.2301386668256
  0
LWPOLYLINE
  5
10B
330
17
100
AcDbEntity
  8
ENG_D
100
AcDbPolyline
 90
5
 70
1
 10
177.41633607046234
 20
239.96280574784203
 10
175.47402027649704
 20
240.35126890663517
 10
177.30820389720714
 20
241.4517790790611
 10
178.5060330255629
 20
241.05250270294286
 10
177.41633607046234
 20
239.96280574784203
  0
LWPOLYLINE
  5
10C
330
17
100
AcDbEntity
  8
ENG_D
100
AcDbPolyline
 90
19
 70
1
 10
176.40807998375385
 20
231.3743943297244
 10
176.9550520064894
 20
230.8274223069886
 10
176.42558183638477
 20
230.29795213688396
 10
177.3371428162251
 20
228.47483017720327
 10
177.3371428162251
 20
226.5901762186393
 10
177.85376321323395
 20
226.0735558216307
 10
177.4160975247723
 20
224.76055875624579
 10
173.4819875376115
 20
230.26831273827096
 10
173.4819875376115
 20
231.891014726733
 10
173.88196047371383
 20
232.2909876628354
 10
172.0363043081314
 20
234.59805786981346
 10
172.0363043081314
 20
235.54656280516474
 10
171.5544098983047
 20
236.02845721499133
 10
171.5544098983047
 20
237.67374764465333
 10
172.49215293410967
 20
238.61149068045862
 10
174.44577635726492
 20
237.21604537820463
 10
174.44577635726492
 20
234.79838279921617
 10
176.89601302804354
 20
232.83819346259315
 10
176.40807998375385
 20
231.3743943297244
  0
LWPOLYLINE
  5
10D
330
17
100
AcDbEntity
  8
ENG_D
100
AcDbPolyline
 90
4
 70
1
 10
177.09619561131174
 20
205.91005660082251
 10
177.09619561131174
 20
207.55534703048463
 10
177.91884082614283
 20
206.73270181565374
 10
177.09619561131174
 20
205.91005660082251
  0
LWPOLYLINE
  5
10E
330
17
100
AcDbEntity
  8
ENG_D
100
AcDbPolyline
 90
34
 70
1
 10
168.6630434393445
 20
159.889140462373
 10
168.6630434393445
 20
160.85292928202634
 10
168.08134542942676
 20
161.43462729194414
 10
166.63566219994667
 20
161.43462729194414
 10
165.22732927846343
 20
162.84296021342738
 10
166.11714940094953
 20
164.3259937509042
 10
167.11755660977337
 20
164.3259937509042
 10
167.60424816459147
 20
164.81268530572234
 10
173.24227997987845
 20
164.54420760023248
 10
171.07251548847802
 20
161.83200198598192
 10
171.07251548847802
 20
161.15026234105446
 10
172.1550941894871
 20
160.9337466008527
 10
172.99120572880602
 20
160.09763506153374
 10
173.19347629939696
 20
157.87265878503365
 10
174.46915690516138
 20
159.1483393907981
 10
174.98049207921952
 20
161.1936800870306
 10
175.91435747903745
 20
161.1936800870306
 10
175.4147812945838
 20
155.6983420580408
 10
175.92855469045227
 20
154.6707952663038
 10
174.92767076709163
 20
153.16946938126284
 10
174.92767076709163
 20
149.2874634461856
 10
174.06368554752927
 20
148.42347822662327
 10
172.13610790822247
 20
148.42347822662327
 10
171.55440989830473
 20
147.84178021670547
 10
171.07251548847802
 20
148.32367462653218
 10
170.5093463958414
 20
147.76050553389553
 10
168.1811490295178
 20
153.19296605531719
 10
168.1811490295178
 20
154.42624765903778
 10
170.9638244894082
 20
154.67921815539142
 10
171.5544098983047
 20
155.26980356428788
 10
171.5544098983047
 20
156.48673216295427
 10
170.14723410400404
 20
157.4248493591548
 10
169.65718388472467
 20
158.89500001699275
 10
168.6630434393445
 20
159.889140462373
  0
LWPOLYLINE
  5
10F
330
17
100
AcDbEntity
  8
ENG_D
100
AcDbPolyline
 90
4
 70
1
 10
170.83156828356465
 20
148.76422903162768
 10
171.65421349839573
 20
147.94158381679645
 10
170.83156828356465
 20
147.11893860196557
 10
170.83156828356465
 20
148.76422903162768
  0
LWPOLYLINE
  5
110
330
17
100
AcDbEntity
  8
ENG_D
100
AcDbPolyline
 90
4
 70
1
 10
171.17231908856903
 20
147.45968940696974
 10
170.34967387373794
 20
146.63704419213886
 10
170.34967387373794
 20
148.28233462180097
 10
171.17231908856903
 20
147.45968940696974
  0
LWPOLYLINE
  5
111
330
17
100
AcDbEntity
  8
ENG_D
100
AcDbPolyline
 90
4
 70
1
 10
165.04883536564427
 20
164.46713735572672
 10
165.04883536564427
 20
166.1124277853888
 10
165.87148058047535
 20
165.2897825705576
 10
165.04883536564427
 20
164.46713735572672
  0
LWPOLYLINE
  5
112
330
17
100
AcDbEntity
  8
ENG_D
100
AcDbPolyline
 90
4
 70
1
 10
152.5195807101501
 20
146.8366513923207
 10
153.34222592498116
 20
146.0140061774897
 10
152.5195807101501
 20
145.1913609626584
 10
152.5195807101501
 20
146.8366513923207
  0
LWPOLYLINE
  5
113
330
17
100
AcDbEntity
  8
ENG_D
100
AcDbPolyline
 90
5
 70
1
 10
151.56262223477353
 20
145.38413781856386
 10
149.78996820186612
 20
145.02960701198253
 10
149.1394894970864
 20
145.68008571676216
 10
150.91214352999376
 20
146.0346165233435
 10
151.56262223477353
 20
145.38413781856386
  0
LWPOLYLINE
  5
114
330
17
100
AcDbEntity
  8
ENG_D
100
AcDbPolyline
 90
36
 70
1
 10
143.15973482223677
 20
52.99107479287035
 10
144.16077542610964
 20
50.98899358512465
 10
142.70748382086308
 20
50.117018621976705
 10
141.77676008914048
 20
50.117018621976705
 10
139.81848146722996
 20
48.158740000066146
 10
140.713167669396
 20
46.81671069681703
 10
140.713167669396
 20
45.44698808584047
 10
141.75927388164092
 20
44.92393497971803
 10
141.11316612655563
 20
43.631719469547356
 10
139.3810680415841
 20
43.38427688598012
 10
138.87077773134033
 20
42.87398657573638
 10
135.29874555963417
 20
43.38427688598012
 10
134.4485403416489
 20
44.2344821039653
 10
134.4485403416489
 20
47.63459362921585
 10
133.48475152199552
 20
49.08027685869598
 10
133.48475152199552
 20
52.62629427120113
 10
133.86684233173122
 20
53.00838508093686
 10
133.3849479219045
 20
53.49027949076357
 10
134.87820691166257
 20
54.98353848052173
 10
134.4485403416489
 20
55.842871620548905
 10
134.4485403416489
 20
60.365752259060045
 10
135.894223571129
 20
61.32954107871347
 10
135.894223571129
 20
63.992152906859886
 10
135.3125255612113
 20
64.57385091677759
 10
136.7226078518673
 20
65.98393320743357
 10
139.22108224806087
 20
66.98332296591103
 10
141.74712048069932
 20
66.98332296591103
 10
144.49964353945154
 20
65.23171738306866
 10
146.5208013189308
 20
62.19998071384991
 10
146.05287442484305
 20
60.7962000315867
 10
149.5660696654652
 20
57.784889825339135
 10
147.1397242497728
 20
56.436920149954496
 10
145.60421622780922
 20
54.389576120669744
 10
144.61589870828755
 20
54.88373488043064
 10
144.0327272252556
 20
54.30056339739864
 10
143.15973482223677
 20
52.99107479287035
  0
LWPOLYLINE
  5
115
330
17
100
AcDbEntity
  8
ENG_D
100
AcDbPolyline
 90
4
 70
1
 10
146.25495338240302
 20
145.39096816284047
 10
147.0775985972341
 20
144.56832294800958
 10
146.25495338240302
 20
143.7456777331787
 10
146.25495338240302
 20
145.39096816284047
  0
LWPOLYLINE
  5
116
330
17
100
AcDbEntity
  8
ENG_D
100
AcDbPolyline
 90
12
 70
1
 10
145.532111767663
 20
157.19738120359472
 10
146.76607958990957
 20
155.96341338134812
 10
144.48313524675842
 20
155.63727847518382
 10
144.05572755557927
 20
156.06468616636292
 10
142.69135715571645
 20
155.15510589978777
 10
141.29089016792253
 20
155.43519929734663
 10
140.2312732595693
 20
157.0246246598763
 10
140.2312732595693
 20
158.1742200572436
 10
143.15667969642897
 20
160.6120587546266
 10
143.51832169749758
 20
161.69698475783244
 10
145.532111767663
 20
159.10782609619122
 10
145.532111767663
 20
157.19738120359472
  0
LWPOLYLINE
  5
117
330
17
100
AcDbEntity
  8
ENG_D
100
AcDbPolyline
 90
4
 70
1
 10
143.22244331862052
 20
143.60453412835616
 10
142.39979810378944
 20
142.78188891352528
 10
142.39979810378944
 20
144.4271793431874
 10
143.22244331862052
 20
143.60453412835616
  0
LWPOLYLINE
  5
118
330
17
100
AcDbEntity
  8
ENG_D
100
AcDbPolyline
 90
4
 70
1
 10
141.43600928413605
 20
68.76975700039544
 10
142.25865449896713
 20
67.94711178556456
 10
141.43600928413605
 20
67.12446657073335
 10
141.43600928413605
 20
68.76975700039544
  0
LWPOLYLINE
  5
119
330
17
100
AcDbEntity
  8
ENG_D
100
AcDbPolyline
 90
46
 70
1
 10
129.14770183355523
 20
164.7080845606399
 10
128.46070603404425
 20
165.3950803601508
 10
129.69467385629082
 20
165.80640296756656
 10
130.21129425329968
 20
165.2897825705576
 10
131.65697748277987
 20
165.2897825705576
 10
132.13887189260646
 20
164.8078881607309
 10
131.65697748277978
 20
164.32599375090427
 10
132.6207663024332
 20
163.36220493125074
 10
133.41179857836798
 20
163.36220493125074
 10
134.89947400938166
 20
164.3539885519265
 10
138.82928209072153
 20
162.88031052142415
 10
140.95411487430937
 20
162.88031052142415
 10
140.95411487430937
 20
161.91652170177073
 10
139.84918244983368
 20
161.91652170177073
 10
138.34104592825932
 20
160.40838518019652
 10
136.71037139743711
 20
161.3867898986897
 10
137.2401032005181
 20
161.91652170177073
 10
136.8206620827856
 20
162.33596281950324
 10
135.96857045905574
 20
161.82470784526538
 10
136.42834582076873
 20
160.9051571218393
 10
135.41232916130232
 20
159.889140462373
 10
135.41232916130232
 20
158.69217439511462
 10
136.30015736245232
 20
158.24826029453965
 10
137.33990680060913
 20
156.68863613730431
 10
137.33990680060913
 20
151.64782553327927
 10
136.5419294224369
 20
151.24883684419322
 10
137.19876319578663
 20
150.5920030708433
 10
128.67632730877978
 20
150.5920030708433
 10
128.65827883335177
 20
150.95387275832584
 10
134.1595786837732
 20
151.50400274336818
 10
133.85603499349833
 20
151.80754643364293
 10
131.47528725157187
 20
152.07207396052357
 10
131.7229155232948
 20
152.8149587756924
 10
130.6502649823836
 20
152.27863350523685
 10
129.22065477718274
 20
152.27863350523685
 10
127.67131762147154
 20
151.24574206809604
 10
127.16789635443543
 20
151.749163335132
 10
127.70201860407512
 20
152.81740783441145
 10
127.70201860407512
 20
156.2335923839413
 10
128.14918702671972
 20
156.68076080658588
 10
127.667292616893
 20
158.126444036066
 10
128.56600382363752
 20
159.02515524281057
 10
128.18391301390184
 20
159.4072460525463
 10
128.18391301390184
 20
161.98947464539805
 10
129.14770183355523
 20
163.43515787487817
 10
129.14770183355523
 20
164.7080845606399
  0
LWPOLYLINE
  5
11A
330
17
100
AcDbEntity
  8
ENG_D
100
AcDbPolyline
 90
94
 70
1
 10
88.6685714081125
 20
81.0580644509764
 10
89.15046581793925
 20
81.53995886080301
 10
89.15046581793925
 20
82.69785242126792
 10
90.48815987731061
 20
82.43031360939368
 10
92.52372668672614
 20
85.37057677854942
 10
92.52372668672614
 20
86.64119016871474
 10
91.94202867680842
 20
87.22288817863245
 10
93.07162893794296
 20
88.35248843976706
 10
93.63642906851027
 20
87.22288817863245
 10
94.35150072594186
 20
87.22288817863245
 10
95.80734950011234
 20
88.67873695280282
 10
100.79693653698274
 20
88.17977824911594
 10
103.74911902175151
 20
86.30111666789931
 10
103.12540370291352
 20
85.67740134906133
 10
103.12540370291352
 20
84.20257068894954
 10
101.81697325192167
 20
83.33028372162165
 10
102.32742632474128
 20
82.81983064880194
 10
101.49565318786814
 20
82.40394408036545
 10
102.54370569299574
 20
82.40394408036545
 10
103.64474729113742
 20
83.50498567850705
 10
104.5710869323936
 20
82.11547621662285
 10
105.4059247213243
 20
83.36773290001875
 10
106.21429962081082
 20
83.36773290001875
 10
106.48600705085722
 20
82.0091957497866
 10
107.91364681857686
 20
83.43683551750614
 10
109.03968249213817
 20
82.6861450684654
 10
108.87110098436136
 20
83.52905260734944
 10
109.98543794358072
 20
83.90049826042257
 10
111.3755512743622
 20
81.39829426501576
 10
111.01679254304163
 20
81.03953553369536
 10
112.44792299723595
 20
80.42619391046912
 10
113.05207649761509
 20
79.4192714098373
 10
114.0901852475719
 20
80.45738015979398
 10
114.31575205586417
 20
80.50249352145245
 10
112.38817441655718
 20
80.98438793127916
 10
114.52806096694596
 20
81.41236524135687
 10
115.02385038645023
 20
82.40394408036545
 10
115.76039153855652
 20
82.40394408036545
 10
121.43739127632806
 20
76.23329219148334
 10
121.43739127632806
 20
75.7572259428827
 10
126.35613897468612
 20
70.83847824452461
 10
127.3199277943395
 20
70.83847824452461
 10
129.6106099621172
 20
68.54779607674688
 10
130.0974636621814
 20
66.11352757642597
 10
131.07527947286204
 20
64.64680386040489
 10
131.07527947286204
 20
61.78228805790842
 10
131.55717388268872
 20
61.30039364808171
 10
131.55717388268872
 20
59.206273896523776
 10
130.72980705229685
 20
57.82732917920386
 10
128.76561102381962
 20
57.82732917920386
 10
127.81560220574335
 20
56.87732036112758
 10
124.39142581671364
 20
56.38815230555194
 10
119.57511639423903
 20
54.46162853656211
 10
116.73422321810091
 20
53.98814634053905
 10
116.15916236758447
 20
53.41308549002255
 10
112.20108175464959
 20
56.38164594972383
 10
111.39056161359493
 20
56.38164594972383
 10
109.72109652433228
 20
55.26866922354867
 10
109.23920211450555
 20
57.19624686285552
 10
108.01730074480801
 20
56.38164594972383
 10
106.59846817179147
 20
56.38164594972383
 10
106.11657376196477
 20
55.899751539897125
 10
103.70710171283127
 20
55.899751539897125
 10
103.17297946319147
 20
55.365629290257345
 10
102.2091906435381
 20
55.847523700084054
 10
101.67972047343342
 20
55.318053529979316
 10
101.67972047343342
 20
54.35426471032601
 10
100.76815949359305
 20
53.44270373048554
 10
101.34673962573741
 20
52.28554346619685
 10
99.46173935964026
 20
52.28554346619685
 10
97.68700109684022
 20
53.04614557882537
 10
96.27907836524865
 20
54.45406831041699
 10
94.83339513576857
 20
54.45406831041699
 10
93.9487995703524
 20
55.338663875833085
 10
94.47029060729768
 20
57.94611906055969
 10
94.93319873585962
 20
58.40902718912155
 10
94.93319873585962
 20
59.85471041860158
 10
95.41509314568633
 20
60.336604828428285
 10
95.41509314568633
 20
62.57332033384344
 10
94.42904783405623
 20
64.05238830128856
 10
94.40372856575497
 20
64.03972866713792
 10
93.05521872844909
 20
65.38823850444375
 10
91.6152760133842
 20
67.78814302955195
 10
88.66857140811254
 20
70.2437302006116
 10
88.66857140811254
 20
71.17145909222067
 10
87.756038273597
 20
71.6277256594785
 10
86.74099376880574
 20
74.16533692145654
 10
86.74099376880574
 20
75.72416085495193
 10
88.16399724240065
 20
78.09583331094339
 10
87.61143340394224
 20
79.7535248263186
 10
88.32782060310825
 20
79.7535248263186
 10
88.15195101110373
 20
79.92939441832314
 10
88.56327361851928
 20
81.16336224056964
 10
88.6685714081125
 20
81.0580644509764
  0
LWPOLYLINE
  5
11B
330
17
100
AcDbEntity
  8
ENG_D
100
AcDbPolyline
 90
4
 70
1
 10
89.1660057325561
 20
80.5606301265328
 10
89.21554343084813
 20
80.51109242824084
 10
89.24526604982343
 20
80.52099996789919
 10
89.1660057325561
 20
80.5606301265328
  0
LWPOLYLINE
  5
11C
330
17
100
AcDbEntity
  8
ENG_D
100
AcDbPolyline
 90
11
 70
1
 10
113.1169376988839
 20
79.31116940772264
 10
113.27890042695826
 20
79.04123152759868
 10
112.80038700315475
 20
78.08420467999167
 10
113.74197478351
 20
76.67182300945885
 10
113.54607767824773
 20
75.69233748314741
 10
115.25682296383992
 20
75.88242029265768
 10
115.64643574618808
 20
76.66164585735402
 10
115.36099815648552
 20
78.65970898527186
 10
115.93147109536797
 20
78.4695513389776
 10
115.52112374862489
 20
79.04403762441791
 10
113.1169376988839
 20
79.31116940772264
  0
LWPOLYLINE
  5
11D
330
17
100
AcDbEntity
  8
ENG_D
100
AcDbPolyline
 90
4
 70
1
 10
106.16309373823493
 20
81.1940280842598
 10
106.11557509280347
 20
81.09899079339688
 10
106.32940899724511
 20
81.02771282524968
 10
106.16309373823493
 20
81.1940280842598
  0
LWPOLYLINE
  5
11E
330
17
100
AcDbEntity
  8
ENG_D
100
AcDbPolyline
 90
4
 70
1
 10
94.99007865520747
 20
64.33290371186418
 10
95.55623675050875
 20
64.33290371186418
 10
95.36751738540836
 20
64.52162307696463
 10
94.99007865520747
 20
64.33290371186418
  0
LWPOLYLINE
  5
11F
330
17
100
AcDbEntity
  8
ENG_D
100
AcDbPolyline
 90
8
 70
1
 10
127.22012419424844
 20
65.43783613634002
 10
127.22012419424844
 20
63.028364087206576
 10
126.50411292378516
 20
62.312352816743186
 10
127.1409309400113
 20
62.18498921349802
 10
128.20289929516656
 20
63.246957568653286
 10
128.650014668428
 20
65.48253443496054
 10
128.0728512619451
 20
66.2905632040367
 10
127.22012419424844
 20
65.43783613634002
  0
LWPOLYLINE
  5
120
330
17
100
AcDbEntity
  8
ENG_D
100
AcDbPolyline
 90
7
 70
1
 10
102.17623078210003
 20
60.63350793691291
 10
102.36235851512328
 20
59.33061380575022
 10
103.94468943408341
 20
59.726196535490274
 10
104.97922352597773
 20
61.17454426414226
 10
104.47128333230253
 20
61.68248445781743
 10
103.22520730300458
 20
61.68248445781743
 10
102.17623078210003
 20
60.63350793691291
  0
LWPOLYLINE
  5
121
330
17
100
AcDbEntity
  8
ENG_D
100
AcDbPolyline
 90
4
 70
1
 10
96.69274784303596
 20
73.26485945573091
 10
96.13793476042633
 20
72.52510867891814
 10
96.44616425076502
 20
72.52510867891814
 10
96.69274784303596
 20
73.26485945573091
  0
LWPOLYLINE
  5
122
330
17
100
AcDbEntity
  8
ENG_D
100
AcDbPolyline
 90
16
 70
1
 10
96.74486333230863
 20
73.33434677476114
 10
98.78835401447323
 20
72.3126014336789
 10
99.75214283412662
 20
72.79449584350562
 10
100.7344194659339
 20
72.30335752760197
 10
100.89521011339592
 20
72.35695441008927
 10
99.59479307289493
 20
73.22389910375648
 10
103.01199097685844
 20
76.15292587858247
 10
102.60164829739057
 20
76.5632685580503
 10
100.65217754210188
 20
75.48022924955666
 10
99.35989440298702
 20
73.15411959914985
 10
97.82456519481981
 20
74.07531712405013
 10
97.82456519481981
 20
75.28838156705142
 10
98.48494683564851
 20
75.83869960107536
 10
97.7806399094225
 20
75.48654613796235
 10
97.31794155319295
 20
74.0984510692736
 10
96.74486333230863
 20
73.33434677476114
  0
LWPOLYLINE
  5
123
330
17
100
AcDbEntity
  8
ENG_D
100
AcDbPolyline
 90
5
 70
1
 10
98.78835401447323
 20
76.09153891676257
 10
100.71593165378002
 20
77.69785361618486
 10
100.71593165378002
 20
78.42831519929516
 10
98.78835401447323
 20
76.98263196981503
 10
98.78835401447323
 20
76.09153891676257
  0
LWPOLYLINE
  5
124
330
17
100
AcDbEntity
  8
ENG_D
100
AcDbPolyline
 90
8
 70
1
 10
100.71593165378002
 20
78.64859240184285
 10
101.69052781166629
 20
79.62318855972916
 10
101.88299209220997
 20
81.35536708462222
 10
99.82032291851986
 20
80.7928209463431
 10
99.93650821393294
 20
80.44426506010383
 10
101.44560361279684
 20
80.14244598033116
 10
100.33384084404435
 20
79.03068321157858
 10
100.71593165378002
 20
78.64859240184285
  0
LWPOLYLINE
  5
125
330
17
100
AcDbEntity
  8
ENG_D
100
AcDbPolyline
 90
12
 70
1
 10
97.74537194058269
 20
62.143768521790264
 10
96.81660071660447
 20
61.95801427699465
 10
96.40477507663827
 20
60.31071171712976
 10
96.96057997525745
 20
59.75490681851059
 10
96.06279899699423
 20
58.857125840247384
 10
96.84050099493528
 20
58.46827484127692
 10
97.03115177766861
 20
57.13371936214362
 10
97.24286718490208
 20
57.345434769377036
 10
98.20665600455544
 20
57.345434769377036
 10
99.27024842429992
 20
58.40902718912155
 10
99.27024842429992
 20
60.61889203807303
 10
97.74537194058269
 20
62.143768521790264
  0
LWPOLYLINE
  5
126
330
17
100
AcDbEntity
  8
ENG_D
100
AcDbPolyline
 90
5
 70
1
 10
94.82603046958134
 20
66.45267235111251
 10
94.48833996250546
 20
66.34010884875386
 10
94.64031886443274
 20
65.58021433911743
 10
95.27352101831275
 20
65.70685476989347
 10
94.82603046958134
 20
66.45267235111251
  0
LWPOLYLINE
  5
127
330
17
100
AcDbEntity
  8
ENG_D
100
AcDbPolyline
 90
4
 70
1
 10
128.90675462864186
 20
150.01030506092573
 10
128.90675462864186
 20
151.6555954905878
 10
129.72939984347295
 20
150.83295027575662
 10
128.90675462864186
 20
150.01030506092573
  0
LWPOLYLINE
  5
128
330
17
100
AcDbEntity
  8
ENG_D
100
AcDbPolyline
 90
4
 70
1
 10
127.4610713991618
 20
151.65559549058793
 10
128.28371661399285
 20
150.83295027575662
 10
127.4610713991618
 20
150.01030506092562
 10
127.4610713991618
 20
151.65559549058793
  0
LWPOLYLINE
  5
129
330
17
100
AcDbEntity
  8
ENG_D
100
AcDbPolyline
 90
23
 70
1
 10
111.30301880128233
 20
105.77582295696043
 10
111.59047906639101
 20
110.66264746380794
 10
112.38120108971182
 20
109.87192544048729
 10
113.82688431919196
 20
109.87192544048729
 10
115.129840267838
 20
108.56896949184114
 10
115.70688619822072
 20
107.41487763107571
 10
115.23521724067517
 20
106.94320867353035
 10
116.55832708518685
 20
104.7380255993442
 10
119.99170804684798
 20
102.28561062672914
 10
119.99170804684798
 20
100.61612805368902
 10
119.02791922719456
 20
99.65233923403561
 10
117.96432680745015
 20
100.71593165378002
 10
118.87261924994138
 20
101.62422409627125
 10
117.03790589567329
 20
102.64350929308685
 10
116.00760173751162
 20
102.64350929308685
 10
115.01814129440535
 20
104.12769995774629
 10
114.27904612901156
 20
104.3740650128775
 10
113.19295846946115
 20
106.54624033197845
 10
113.69235473191875
 20
107.045636594436
 10
113.55341579961282
 20
107.46245339135385
 10
112.49036989249342
 20
107.46245339135385
 10
112.24942268758008
 20
105.77582295696043
 10
111.30301880128233
 20
105.77582295696043
  0
LWPOLYLINE
  5
12A
330
17
100
AcDbEntity
  8
ENG_D
100
AcDbPolyline
 90
5
 70
1
 10
119.12126841171145
 20
95.65604035059971
 10
118.06413040754116
 20
95.65604035059971
 10
118.06413040754116
 20
96.47868556543071
 10
118.65132260696113
 20
97.06587776485087
 10
119.12126841171145
 20
95.65604035059971
  0
LWPOLYLINE
  5
12B
330
17
100
AcDbEntity
  8
ENG_D
100
AcDbPolyline
 90
5
 70
1
 10
118.63937400188476
 20
90.355201842506
 10
117.58223599771446
 20
90.355201842506
 10
117.58223599771446
 20
91.177847057337
 10
118.16942819713444
 20
91.76503925675716
 10
118.63937400188476
 20
90.355201842506
  0
LWPOLYLINE
  5
12C
330
17
100
AcDbEntity
  8
ENG_D
100
AcDbPolyline
 90
5
 70
1
 10
117.10034158788777
 20
88.28648059837685
 10
117.73020994681356
 20
88.91634895730249
 10
118.11709154353024
 20
86.98194097371913
 10
117.10034158788777
 20
86.98194097371913
 10
117.10034158788777
 20
88.28648059837685
  0
LWPOLYLINE
  5
12D
330
17
100
AcDbEntity
  8
ENG_D
100
AcDbPolyline
 90
4
 70
1
 10
118.16393400763218
 20
89.632360227766
 10
117.34128879280112
 20
88.80971501293466
 10
117.34128879280112
 20
90.45500544259689
 10
118.16393400763218
 20
89.632360227766
  0
LWPOLYLINE
  5
12E
330
17
100
AcDbEntity
  8
ENG_D
100
AcDbPolyline
 90
5
 70
1
 10
117.6191032542204
 20
85.05436333441241
 10
116.61844717806106
 20
85.05436333441241
 10
116.61844717806106
 20
86.84079736889672
 10
117.27071699038991
 20
87.49306718122574
 10
117.6191032542204
 20
85.05436333441241
  0
LWPOLYLINE
  5
12F
330
17
100
AcDbEntity
  8
ENG_D
100
AcDbPolyline
 90
4
 70
1
 10
116.8593943829744
 20
83.02698209501469
 10
116.8593943829744
 20
84.67227252467646
 10
117.68203959780551
 20
83.84962730984557
 10
116.8593943829744
 20
83.02698209501469
  0
LWPOLYLINE
  5
130
330
17
100
AcDbEntity
  8
ENG_D
100
AcDbPolyline
 90
4
 70
1
 10
117.20014518797878
 20
83.36773290001886
 10
116.3774999731477
 20
82.54508768518764
 10
116.3774999731477
 20
84.19037811485009
 10
117.20014518797878
 20
83.36773290001886
  0
LWPOLYLINE
  5
131
330
17
100
AcDbEntity
  8
ENG_D
100
AcDbPolyline
 90
4
 70
1
 10
115.89560556332101
 20
82.06319327536127
 10
115.89560556332101
 20
83.70848370502304
 10
116.71825077815213
 20
82.88583849019216
 10
115.89560556332101
 20
82.06319327536127
  0
LWPOLYLINE
  5
132
330
17
100
AcDbEntity
  8
ENG_D
100
AcDbPolyline
 90
5
 70
1
 10
113.72708071910087
 20
78.16669799201614
 10
114.86124494125644
 20
79.30086221417166
 10
115.20963120508691
 20
76.86215836735843
 10
113.72708071910087
 20
76.86215836735843
 10
113.72708071910087
 20
78.16669799201614
  0
LWPOLYLINE
  5
133
330
17
100
AcDbEntity
  8
ENG_D
100
AcDbPolyline
 90
5
 70
1
 10
108.3611645980983
 20
55.865025552715
 10
107.73924641149618
 20
56.486943739316956
 10
108.97321423374281
 20
56.898266346732676
 10
109.5951324203449
 20
56.27634816013038
 10
108.3611645980983
 20
55.865025552715
  0
LWPOLYLINE
  5
134
330
17
100
AcDbEntity
  8
ENG_D
100
AcDbPolyline
 90
5
 70
1
 10
105.534875752047
 20
84.91321972958998
 10
106.05149614905582
 20
84.39659933258115
 10
105.6872641447225
 20
83.30390331958127
 10
104.36598554270927
 20
83.74432952025224
 10
105.534875752047
 20
84.91321972958998
  0
LWPOLYLINE
  5
135
330
17
100
AcDbEntity
  8
ENG_D
100
AcDbPolyline
 90
5
 70
1
 10
104.63616454530248
 20
115.20748993576302
 10
105.25808273190464
 20
114.58557174916106
 10
104.02411490965798
 20
114.17424914174535
 10
103.40219672305592
 20
114.79616732834764
 10
104.63616454530248
 20
115.20748993576302
  0
LWPOLYLINE
  5
136
330
17
100
AcDbEntity
  8
ENG_D
100
AcDbPolyline
 90
5
 70
1
 10
101.74479808634234
 20
52.56121665829239
 10
102.3667162729444
 20
51.9392984716901
 10
101.13274845069782
 20
51.52797586427471
 10
100.5108302640957
 20
52.14989405087667
 10
101.74479808634234
 20
52.56121665829239
  0
LWPOLYLINE
  5
137
330
17
100
AcDbEntity
  8
ENG_D
100
AcDbPolyline
 90
19
 70
1
 10
101.07383032013776
 20
115.6546583584076
 10
101.97362881433584
 20
115.6546583584076
 10
101.178839782342
 20
111.68071319843831
 10
100.71593165378002
 20
111.21780506987645
 10
100.71593165378002
 20
109.79897249685988
 10
99.75214283412663
 20
108.35328926737975
 10
99.75214283412663
 20
107.36264979126275
 10
98.75800238874642
 20
106.3685093458826
 10
98.27610797891974
 20
104.92282611640246
 10
96.06355439740815
 20
102.71027253489096
 10
96.40417111097143
 20
105.77582295696031
 10
97.00191997998881
 20
105.77582295696031
 10
96.8085485353534
 20
105.96919440159569
 10
97.40402654684824
 20
107.16015042458548
 10
98.14064816316532
 20
107.52846123274395
 10
97.77233735500678
 20
107.89677204090242
 10
100.20559728427929
 20
112.76329189944745
 10
99.71270310523272
 20
113.7490802575406
 10
101.07383032013776
 20
115.6546583584076
  0
LWPOLYLINE
  5
138
330
17
100
AcDbEntity
  8
ENG_D
100
AcDbPolyline
 90
11
 70
1
 10
99.32247626411295
 20
178.25335587560042
 10
98.15848565554745
 20
177.089365267035
 10
97.85235521417508
 20
178.62001747389678
 10
96.69496493368524
 20
179.19871261414167
 10
97.29044294518009
 20
179.79419062563662
 10
96.3266541255267
 20
181.72176826494345
 10
96.8715837133993
 20
182.2666978528159
 10
97.23378158529367
 20
185.5264786998655
 10
97.37445200228005
 20
185.53098274488354
 10
98.29670064199385
 20
180.3049071198387
 10
99.32247626411295
 20
178.25335587560042
  0
LWPOLYLINE
  5
139
330
17
100
AcDbEntity
  8
ENG_D
100
AcDbPolyline
 90
4
 70
1
 10
96.61982917025307
 20
184.70670256844778
 10
96.61982917025307
 20
186.3519929981099
 10
97.44247438508415
 20
185.529347783279
 10
96.61982917025307
 20
184.70670256844778
  0
LWPOLYLINE
  5
13A
330
17
100
AcDbEntity
  8
ENG_D
100
AcDbPolyline
 90
5
 70
1
 10
94.84801103460852
 20
178.28631573703868
 10
94.18112532343973
 20
178.95320144820727
 10
96.46406966659089
 20
179.27933635437188
 10
97.13095537775956
 20
178.61245064320298
 10
94.84801103460852
 20
178.28631573703868
  0
LWPOLYLINE
  5
13B
330
17
100
AcDbEntity
  8
ENG_D
100
AcDbPolyline
 90
4
 70
1
 10
95.65604035059967
 20
103.94804891774467
 10
96.47868556543077
 20
103.12540370291346
 10
95.65604035059967
 20
102.30275848808257
 10
95.65604035059967
 20
103.94804891774467
  0
LWPOLYLINE
  5
13C
330
17
100
AcDbEntity
  8
ENG_D
100
AcDbPolyline
 90
5
 70
1
 10
93.00562109655283
 20
88.42762420319927
 10
93.00562109655283
 20
89.25026941803027
 10
93.59281329597282
 20
89.8374616174502
 10
94.06275910072316
 20
88.42762420319927
 10
93.00562109655283
 20
88.42762420319927
  0
LWPOLYLINE
  5
13D
330
17
100
AcDbEntity
  8
ENG_D
100
AcDbPolyline
 90
5
 70
1
 10
93.09897028106977
 20
207.45554343039385
 10
92.04183227689944
 20
207.45554343039385
 10
92.04183227689944
 20
208.27818864522473
 10
92.62902447631937
 20
208.8653808446449
 10
93.09897028106977
 20
207.45554343039385
  0
LWPOLYLINE
  5
13E
330
17
100
AcDbEntity
  8
ENG_D
100
AcDbPolyline
 90
5
 70
1
 10
92.04183227689944
 20
89.39141302285269
 10
92.04183227689944
 20
90.21405823768359
 10
92.62902447631937
 20
90.80125043710375
 10
93.09897028106977
 20
89.39141302285269
 10
92.04183227689944
 20
89.39141302285269
  0
LWPOLYLINE
  5
13F
330
17
100
AcDbEntity
  8
ENG_D
100
AcDbPolyline
 90
4
 70
1
 10
91.80088507198609
 20
87.08174457381024
 10
92.62353028681717
 20
86.25909935897901
 10
91.80088507198609
 20
85.43645414414813
 10
91.80088507198609
 20
87.08174457381024
  0
LWPOLYLINE
  5
140
330
17
100
AcDbEntity
  8
ENG_D
100
AcDbPolyline
 90
7
 70
1
 10
89.63236022776596
 20
211.60852583326883
 10
90.26316819972334
 20
210.346909889354
 10
89.25499103359112
 20
210.346909889354
 10
87.68210283257395
 20
212.96839022438274
 10
88.02535729095533
 20
213.99815359952677
 10
89.63236022776596
 20
213.6767530121646
 10
89.63236022776596
 20
211.60852583326883
  0
LWPOLYLINE
  5
141
330
17
100
AcDbEntity
  8
ENG_D
100
AcDbPolyline
 90
4
 70
1
 10
87.4638353835458
 20
79.37143401658275
 10
88.2864805983769
 20
78.54878880175187
 10
87.4638353835458
 20
77.72614358692098
 10
87.4638353835458
 20
79.37143401658275
  0
LWPOLYLINE
  5
142
330
17
100
AcDbEntity
  8
ENG_D
100
AcDbPolyline
 90
4
 70
1
 10
87.80458618855016
 20
77.58499998209845
 10
86.9819409737191
 20
76.76235476726757
 10
86.9819409737191
 20
78.40764519692978
 10
87.80458618855016
 20
77.58499998209845
  0
LWPOLYLINE
  5
143
330
17
100
AcDbEntity
  8
ENG_D
100
AcDbPolyline
 90
4
 70
1
 10
86.5000465638924
 20
77.44385637727602
 10
87.32269177872347
 20
76.62121116244514
 10
86.5000465638924
 20
75.79856594761381
 10
86.5000465638924
 20
77.44385637727602
  0
LWPOLYLINE
  5
144
330
17
100
AcDbEntity
  8
ENG_D
100
AcDbPolyline
 90
4
 70
1
 10
86.84079736889677
 20
76.13931675261843
 10
86.0181521540657
 20
75.3166715377871
 10
86.0181521540657
 20
76.96196196744931
 10
86.84079736889677
 20
76.13931675261843
  0
LWPOLYLINE
  5
145
330
17
100
AcDbEntity
  8
ENG_D
100
AcDbPolyline
 90
5
 70
1
 10
84.60831473981465
 20
213.5845213428207
 10
85.84228256206129
 20
213.9958439502364
 10
86.46420074866334
 20
213.37392576363413
 10
85.23023292641676
 20
212.96260315621873
 10
84.60831473981465
 20
213.5845213428207
  0
LWPOLYLINE
  5
146
330
17
100
AcDbEntity
  8
ENG_D
100
AcDbPolyline
 90
4
 70
1
 10
86.35890295907008
 20
75.175527932965
 10
85.53625774423901
 20
74.35288271813367
 10
85.53625774423901
 20
75.99817314779588
 10
86.35890295907008
 20
75.175527932965
  0
LWPOLYLINE
  5
147
330
17
100
AcDbEntity
  8
ENG_D
100
AcDbPolyline
 90
4
 70
1
 10
83.6086801049322
 20
214.5841559777031
 10
83.6086801049322
 20
216.2294464073652
 10
84.4313253197633
 20
215.40680119253432
 10
83.6086801049322
 20
214.5841559777031
  0
LWPOLYLINE
  5
148
330
17
100
AcDbEntity
  8
ENG_D
100
AcDbPolyline
 90
4
 70
1
 10
83.12678569510551
 20
195.9898811946441
 10
83.94943090993661
 20
195.1672359798129
 10
83.12678569510551
 20
194.344590764982
 10
83.12678569510551
 20
195.9898811946441
  0
LWPOLYLINE
  5
149
330
17
100
AcDbEntity
  8
ENG_D
100
AcDbPolyline
 90
4
 70
1
 10
83.46753650010989
 20
214.92490678270758
 10
82.64489128527882
 20
214.1022615678767
 10
82.64489128527882
 20
215.74755199753847
 10
83.46753650010989
 20
214.92490678270758
  0
LWPOLYLINE
  5
14A
330
17
100
AcDbEntity
  8
ENG_D
100
AcDbPolyline
 90
5
 70
1
 10
81.71694828085447
 20
194.09814937056635
 10
82.88583849019216
 20
195.26703957990398
 10
83.40245888720096
 20
194.75041918289514
 10
83.03822688286766
 20
193.65772316989515
 10
81.71694828085447
 20
194.09814937056635
  0
LWPOLYLINE
  5
14B
330
17
100
AcDbEntity
  8
ENG_D
100
AcDbPolyline
 90
4
 70
1
 10
81.68110246562541
 20
192.89890753550154
 10
81.68110246562541
 20
194.54419796516376
 10
82.50374768045648
 20
193.72155275033288
 10
81.68110246562541
 20
192.89890753550154
  0
LWPOLYLINE
  5
14C
330
17
100
AcDbEntity
  8
ENG_D
100
AcDbPolyline
 90
5
 70
1
 10
81.46076560656591
 20
221.5922352660442
 10
80.47636644105876
 20
220.60783610053724
 10
79.94969407033278
 20
221.13450847126282
 10
81.0423874079619
 20
223.6841262590641
 10
81.46076560656591
 20
221.5922352660442
  0
LWPOLYLINE
  5
14D
330
17
100
AcDbEntity
  8
ENG_D
100
AcDbPolyline
 90
5
 70
1
 10
81.47488124789419
 20
218.3632452644033
 10
81.11064924356086
 20
217.27054925140342
 10
79.78937064154766
 20
217.7109754520744
 10
80.95826085088538
 20
218.87986566141225
 10
81.47488124789419
 20
218.3632452644033
  0
LWPOLYLINE
  5
14E
330
17
100
AcDbEntity
  8
ENG_D
100
AcDbPolyline
 90
5
 70
1
 10
80.47636644105867
 20
220.807443300719
 10
81.12863625338751
 20
221.45971311304802
 10
81.47702251721802
 20
219.02100926623459
 10
80.47636644105867
 20
219.02100926623459
 10
80.47636644105867
 20
220.807443300719
  0
LWPOLYLINE
  5
14F
330
17
100
AcDbEntity
  8
ENG_D
100
AcDbPolyline
 90
5
 70
1
 10
80.54144405396757
 20
192.2411435336705
 10
79.30747623172098
 20
192.65246614108622
 10
80.41128882814976
 20
193.7562787375149
 10
81.64525665039639
 20
193.3449561300995
 10
80.54144405396757
 20
192.2411435336705
  0
LWPOLYLINE
  5
150
330
17
100
AcDbEntity
  8
ENG_D
100
AcDbPolyline
 90
5
 70
1
 10
81.0516100354023
 20
215.6477483974477
 10
79.99447203123198
 20
215.6477483974477
 10
79.99447203123198
 20
216.4703936122787
 10
80.58166423065195
 20
217.05758581169866
 10
81.0516100354023
 20
215.6477483974477
  0
LWPOLYLINE
  5
151
330
17
100
AcDbEntity
  8
ENG_D
100
AcDbPolyline
 90
4
 70
1
 10
79.75352482631861
 20
216.2294464073652
 10
80.57617004114971
 20
215.40680119253432
 10
79.75352482631861
 20
214.5841559777031
 10
79.75352482631861
 20
216.2294464073652
  0
LWPOLYLINE
  5
152
330
17
100
AcDbEntity
  8
ENG_D
100
AcDbPolyline
 90
5
 70
1
 10
80.0878212157489
 20
214.2020651679676
 10
79.03068321157856
 20
214.2020651679676
 10
79.03068321157856
 20
215.0247103827986
 10
79.61787541099858
 20
215.6119025822185
 10
80.0878212157489
 20
214.2020651679676
  0
LWPOLYLINE
  5
153
330
17
100
AcDbEntity
  8
ENG_D
100
AcDbPolyline
 90
5
 70
1
 10
79.0306832115786
 20
214.54281597297197
 10
79.54730360858738
 20
214.02619557596302
 10
79.18307160425407
 20
212.93349956296314
 10
77.86179300224086
 20
213.37392576363413
 10
79.0306832115786
 20
214.54281597297197
  0
LWPOLYLINE
  5
154
330
17
100
AcDbEntity
  8
ENG_D
100
AcDbPolyline
 90
4
 70
1
 10
77.34405277718511
 20
211.21089510891633
 10
77.34405277718511
 20
213.09067832791771
 10
78.75389019143618
 20
212.62073252316728
 10
77.34405277718511
 20
211.21089510891633
  0
LWPOLYLINE
  5
155
330
17
100
AcDbEntity
  8
ENG_D
100
AcDbPolyline
 90
6
 70
1
 10
75.11758532857017
 20
208.61841845926432
 10
76.67658643376154
 20
211.42462044860866
 10
77.12230162586889
 20
210.08747487228675
 10
76.57828748170216
 20
208.9994465839532
 10
75.65742234279165
 20
208.07858144504277
 10
75.11758532857017
 20
208.61841845926432
  0
LWPOLYLINE
  5
156
330
17
100
AcDbEntity
  8
ENG_D
100
AcDbPolyline
 90
5
 70
1
 10
75.49322260883457
 20
208.29731671996942
 10
75.15654165170024
 20
206.61391193429802
 10
73.87098830830725
 20
205.32835859090503
 10
74.23522031264055
 20
207.87798262123823
 10
75.49322260883457
 20
208.29731671996942
  0
LWPOLYLINE
  5
157
330
17
100
AcDbEntity
  8
ENG_D
100
AcDbPolyline
 90
5
 70
1
 10
73.2479502936582
 20
204.2234261664292
 10
72.7036025917373
 20
204.7677738683501
 10
73.79276429841957
 20
206.5830433794873
 10
74.24646510049371
 20
205.22194097326474
 10
73.2479502936582
 20
204.2234261664292
  0
LWPOLYLINE
  5
158
330
17
100
AcDbEntity
  8
ENG_D
100
AcDbPolyline
 90
4
 70
1
 10
69.97449302496236
 20
197.57670802894646
 10
69.15184781013124
 20
196.75406281411557
 10
69.15184781013124
 20
198.39935324377734
 10
69.97449302496236
 20
197.57670802894646
  0
LWPOLYLINE
  5
159
330
17
100
AcDbEntity
  8
ENG_K
100
AcDbPolyline
 90
23
 70
1
 10
211.78576277455724
 20
157.7274459624296
 10
213.60811940034534
 20
158.09191728758708
 10
215.888695602361
 20
153.78416223933544
 10
215.888695602361
 20
151.896542695501
 10
216.35461757223888
 20
151.4306207256233
 10
216.89596585622442
 20
148.18253102170985
 10
215.4068011925343
 20
148.18253102170985
 10
215.4068011925343
 20
150.7705145835422
 10
214.41751255560317
 20
152.55123413001826
 10
213.4792235532275
 20
151.23762952669227
 10
213.4792235532275
 20
149.9260413754513
 10
214.59192593501157
 20
147.70063661188314
 10
212.5154347335741
 20
147.70063661188314
 10
212.5154347335741
 20
148.8055690363589
 10
212.0335403237474
 20
149.2874634461856
 10
212.0335403237474
 20
151.896542695501
 10
212.8975255433098
 20
152.76052791506345
 10
212.4156311334831
 20
153.24242232489016
 10
212.9973291434008
 20
153.82412033480784
 10
212.9973291434008
 20
154.6312256350222
 10
211.98131248393437
 20
156.66325895395505
 10
212.4156311334831
 20
157.09757760350374
 10
211.78576277455724
 20
157.7274459624296
  0
LWPOLYLINE
  5
15A
330
17
100
AcDbEntity
  8
ENG_K
100
AcDbPolyline
 90
14
 70
1
 10
205.28701858617362
 20
149.9689650561943
 10
205.86871659609136
 20
149.38726704627658
 10
205.356121203661
 20
148.87467165384615
 10
206.27570813744143
 20
147.4952912531755
 10
205.92130138867583
 20
146.43207100687872
 10
202.97234676892424
 20
147.41505588012916
 10
204.3232297665202
 20
148.0904973789272
 10
204.3232297665202
 20
149.7693578560123
 10
203.7415317566025
 20
150.35105586593
 10
204.2234261664292
 20
150.83295027575662
 10
203.83002050726162
 20
151.22635593492427
 10
204.13911787317585
 20
154.0082322281522
 10
205.28701858617362
 20
152.86033151515443
 10
205.28701858617362
 20
149.9689650561943
  0
LWPOLYLINE
  5
15B
330
17
100
AcDbEntity
  8
ENG_K
100
AcDbPolyline
 90
4
 70
1
 10
202.97735013713114
 20
168.66304343934456
 10
202.15470492230006
 20
167.84039822451336
 10
202.15470492230006
 20
169.48568865417545
 10
202.97735013713114
 20
168.66304343934456
  0
LWPOLYLINE
  5
15C
330
17
100
AcDbEntity
  8
ENG_K
100
AcDbPolyline
 90
5
 70
1
 10
200.94996889773333
 20
182.25589051458303
 10
201.53716109715327
 20
182.84308271400317
 10
202.00710690190365
 20
181.43324529975214
 10
200.94996889773333
 20
181.43324529975214
 10
200.94996889773333
 20
182.25589051458303
  0
LWPOLYLINE
  5
15D
330
17
100
AcDbEntity
  8
ENG_K
100
AcDbPolyline
 90
4
 70
1
 10
199.2633384633399
 20
148.76422903162768
 10
200.08598367817095
 20
147.94158381679645
 10
199.2633384633399
 20
147.11893860196557
 10
199.2633384633399
 20
148.76422903162768
  0
LWPOLYLINE
  5
15E
330
17
100
AcDbEntity
  8
ENG_K
100
AcDbPolyline
 90
12
 70
1
 10
199.12219485851756
 20
220.2257452908012
 10
197.57670802894646
 20
218.68025846123018
 10
197.57670802894646
 20
217.71646964157677
 10
197.11351051081274
 20
217.25327212344314
 10
198.1063612389235
 20
211.79259311883413
 10
196.6307417995385
 20
211.79259311883413
 10
196.12535538737325
 20
218.3626164769822
 10
197.09862028270345
 20
219.82251381997753
 10
197.39872583007622
 20
225.5245192200599
 10
197.7255497837658
 20
225.52847215727257
 10
198.05105659974242
 20
221.29688354957634
 10
199.12219485851756
 20
220.2257452908012
  0
LWPOLYLINE
  5
15F
330
17
100
AcDbEntity
  8
ENG_K
100
AcDbPolyline
 90
8
 70
1
 10
198.54049684859984
 20
206.97364902056714
 10
197.66874167172907
 20
206.97364902056714
 10
197.09040472238172
 20
208.1303229192618
 10
197.4273960375693
 20
212.51121001670072
 10
197.64757525444548
 20
212.51838215553576
 10
198.04482243719605
 20
209.73765187628203
 10
198.54049684859984
 20
209.24197746487815
 10
198.54049684859984
 20
206.97364902056714
  0
LWPOLYLINE
  5
160
330
17
100
AcDbEntity
  8
ENG_K
100
AcDbPolyline
 90
4
 70
1
 10
196.85386641420638
 20
226.6315162233705
 10
196.85386641420638
 20
228.27680665303296
 10
197.67651162903746
 20
227.45416143820174
 10
196.85386641420638
 20
226.6315162233705
  0
LWPOLYLINE
  5
161
330
17
100
AcDbEntity
  8
ENG_K
100
AcDbPolyline
 90
5
 70
1
 10
196.5478415963842
 20
147.90685782961444
 10
195.92592340978203
 20
148.5287760162164
 10
197.15989123202866
 20
148.9400986236321
 10
197.78180941863076
 20
148.3181804370298
 10
196.5478415963842
 20
147.90685782961444
  0
LWPOLYLINE
  5
162
330
17
100
AcDbEntity
  8
ENG_K
100
AcDbPolyline
 90
4
 70
1
 10
195.4081831847263
 20
149.72801785128087
 10
196.2308283995574
 20
148.90537263644987
 10
195.4081831847263
 20
148.08272742161887
 10
195.4081831847263
 20
149.72801785128087
  0
LWPOLYLINE
  5
163
330
17
100
AcDbEntity
  8
ENG_K
100
AcDbPolyline
 90
5
 70
1
 10
193.9983457704753
 20
149.49256483586993
 10
195.23231359272185
 20
149.90388744328553
 10
195.85423177932392
 20
149.28196925668337
 10
194.6202639570773
 20
148.87064664926763
 10
193.9983457704753
 20
149.49256483586993
  0
LWPOLYLINE
  5
164
330
17
100
AcDbEntity
  8
ENG_K
100
AcDbPolyline
 90
6
 70
1
 10
193.23965834050617
 20
247.45277944600974
 10
193.23965834050617
 20
248.55771187048558
 10
192.55266254099521
 20
249.2447076699964
 10
193.9192491190459
 20
249.7002365293468
 10
194.24031441666548
 20
247.45277944600974
 10
193.23965834050617
 20
247.45277944600974
  0
LWPOLYLINE
  5
165
330
17
100
AcDbEntity
  8
ENG_K
100
AcDbPolyline
 90
4
 70
1
 10
192.9987111355928
 20
151.17370108076088
 10
193.82135635042388
 20
150.35105586593
 10
192.9987111355928
 20
149.5284106510988
 10
192.9987111355928
 20
151.17370108076088
  0
LWPOLYLINE
  5
166
330
17
100
AcDbEntity
  8
ENG_K
100
AcDbPolyline
 90
4
 70
1
 10
192.5168167257661
 20
150.01030506092573
 10
192.5168167257661
 20
151.6555954905878
 10
193.33946194059718
 20
150.83295027575662
 10
192.5168167257661
 20
150.01030506092573
  0
LWPOLYLINE
  5
167
330
17
100
AcDbEntity
  8
ENG_K
100
AcDbPolyline
 90
4
 70
1
 10
192.0349223159394
 20
164.94903176555331
 10
192.0349223159394
 20
166.59432219521563
 10
192.85756753077047
 20
165.7716769803843
 10
192.0349223159394
 20
164.94903176555331
  0
LWPOLYLINE
  5
168
330
17
100
AcDbEntity
  8
ENG_K
100
AcDbPolyline
 90
4
 70
1
 10
192.0349223159394
 20
165.6305333755622
 10
192.85756753077047
 20
164.8078881607309
 10
192.0349223159394
 20
163.9852429458999
 10
192.0349223159394
 20
165.6305333755622
  0
LWPOLYLINE
  5
169
330
17
100
AcDbEntity
  8
ENG_K
100
AcDbPolyline
 90
5
 70
1
 10
192.34094713376166
 20
151.83146508259216
 10
192.96286532036373
 20
151.2095468959902
 10
191.72889749811714
 20
150.7982242885745
 10
191.10697931151503
 20
151.42014247517676
 10
192.34094713376166
 20
151.83146508259216
  0
LWPOLYLINE
  5
16A
330
17
100
AcDbEntity
  8
ENG_K
100
AcDbPolyline
 90
4
 70
1
 10
192.3756731209438
 20
200.4680744879066
 10
191.5530279061127
 20
199.6454292730757
 10
191.5530279061127
 20
201.29071970273782
 10
192.3756731209438
 20
200.4680744879066
  0
LWPOLYLINE
  5
16B
330
17
100
AcDbEntity
  8
ENG_K
100
AcDbPolyline
 90
5
 70
1
 10
191.31208070119933
 20
163.12125772633757
 10
191.31208070119933
 20
163.94390294116857
 10
191.89927290061937
 20
164.5310951405885
 10
192.3692187053697
 20
163.12125772633757
 10
191.31208070119933
 20
163.12125772633757
  0
LWPOLYLINE
  5
16C
330
17
100
AcDbEntity
  8
ENG_K
100
AcDbPolyline
 90
13
 70
1
 10
191.79964452311916
 20
216.3061411867
 10
190.83018629137266
 20
214.8519538390803
 10
190.83018629137266
 20
212.8683781126781
 10
189.3845030618926
 20
211.90458929302469
 10
189.3845030618926
 20
209.8650154795273
 10
188.51274788502178
 20
209.8650154795273
 10
187.91037987273842
 20
211.06975150409403
 10
189.3955102099979
 20
214.0400121786129
 10
189.8804244627465
 20
216.46458344235597
 10
190.84033708282706
 20
217.9044523724767
 10
191.24121347570036
 20
220.71058712258983
 10
191.4613926925765
 20
220.70341498375456
 10
191.79964452311916
 20
216.3061411867
  0
LWPOLYLINE
  5
16D
330
17
100
AcDbEntity
  8
ENG_K
100
AcDbPolyline
 90
4
 70
1
 10
191.07113349628602
 20
152.61938431024134
 10
191.89377871111708
 20
151.79673909541003
 10
191.07113349628602
 20
150.97409388057903
 10
191.07113349628602
 20
152.61938431024134
  0
LWPOLYLINE
  5
16E
330
17
100
AcDbEntity
  8
ENG_K
100
AcDbPolyline
 90
5
 70
1
 10
190.83018629137266
 20
202.01356131747772
 10
191.46005465029845
 20
202.64342967640337
 10
191.8469362470151
 20
200.70902169282002
 10
190.83018629137266
 20
200.70902169282002
 10
190.83018629137266
 20
202.01356131747772
  0
LWPOLYLINE
  5
16F
330
17
100
AcDbEntity
  8
ENG_K
100
AcDbPolyline
 90
5
 70
1
 10
190.83018629137266
 20
162.98011412151513
 10
191.4173784907927
 20
163.56730632093507
 10
191.88732429554298
 20
162.15746890668413
 10
190.83018629137266
 20
162.15746890668413
 10
190.83018629137266
 20
162.98011412151513
  0
LWPOLYLINE
  5
170
330
17
100
AcDbEntity
  8
ENG_K
100
AcDbPolyline
 90
4
 70
1
 10
190.58923908645932
 20
151.45598829040586
 10
190.58923908645932
 20
153.10127872006797
 10
191.4118843012904
 20
152.27863350523674
 10
190.58923908645932
 20
151.45598829040586
  0
LWPOLYLINE
  5
171
330
17
100
AcDbEntity
  8
ENG_K
100
AcDbPolyline
 90
4
 70
1
 10
190.58923908645932
 20
160.61198207711314
 10
190.58923908645932
 20
162.25727250677525
 10
191.4118843012904
 20
161.43462729194403
 10
190.58923908645932
 20
160.61198207711314
  0
LWPOLYLINE
  5
172
330
17
100
AcDbEntity
  8
ENG_K
100
AcDbPolyline
 90
5
 70
1
 10
190.34829188154595
 20
203.45924454695785
 10
190.93548408096598
 20
204.0464367463778
 10
191.4054298857163
 20
202.63659933212685
 10
190.34829188154595
 20
202.63659933212685
 10
190.34829188154595
 20
203.45924454695785
  0
LWPOLYLINE
  5
173
330
17
100
AcDbEntity
  8
ENG_K
100
AcDbPolyline
 90
5
 70
1
 10
189.13672551270258
 20
256.033905567076
 10
190.9093795456099
 20
256.3884363736575
 10
191.55985825038934
 20
255.73795766887787
 10
189.787204217482
 20
255.38342686229632
 10
189.13672551270258
 20
256.033905567076
  0
LWPOLYLINE
  5
174
330
17
100
AcDbEntity
  8
ENG_K
100
AcDbPolyline
 90
5
 70
1
 10
189.38450306189256
 20
209.24197746487815
 10
189.91423486497354
 20
209.7717092679593
 10
191.01479772161676
 20
207.93743784022044
 10
189.38450306189256
 20
207.93743784022044
 10
189.38450306189256
 20
209.24197746487815
  0
LWPOLYLINE
  5
175
330
17
100
AcDbEntity
  8
ENG_K
100
AcDbPolyline
 90
5
 70
1
 10
189.95158517297045
 20
200.00079597691987
 10
190.6184708841391
 20
199.33391026575097
 10
188.33552654098807
 20
199.0077753595867
 10
187.66864082981925
 20
199.67466107075526
 10
189.95158517297045
 20
200.00079597691987
  0
LWPOLYLINE
  5
176
330
17
100
AcDbEntity
  8
ENG_K
100
AcDbPolyline
 90
4
 70
1
 10
189.1435558569792
 20
208.801423059783
 10
189.1435558569792
 20
210.4467134894451
 10
189.96620107181027
 20
209.62406827461388
 10
189.1435558569792
 20
208.801423059783
  0
LWPOLYLINE
  5
177
330
17
100
AcDbEntity
  8
ENG_K
100
AcDbPolyline
 90
4
 70
1
 10
188.6616614471525
 20
224.22204417423708
 10
188.6616614471525
 20
225.8673346038995
 10
189.4843066619836
 20
225.0446893890683
 10
188.6616614471525
 20
224.22204417423708
  0
LWPOLYLINE
  5
178
330
17
100
AcDbEntity
  8
ENG_K
100
AcDbPolyline
 90
5
 70
1
 10
185.46427017037013
 20
209.58934228743186
 10
184.84235198376794
 20
210.21126047403382
 10
186.07631980601457
 20
210.62258308144953
 10
186.69823799261667
 20
210.00066489484726
 10
185.46427017037013
 20
209.58934228743186
  0
LWPOLYLINE
  5
179
330
17
100
AcDbEntity
  8
ENG_K
100
AcDbPolyline
 90
5
 70
1
 10
185.15275116304554
 20
208.8653808446449
 10
185.6226969677959
 20
207.45554343039385
 10
184.56555896362556
 20
207.45554343039385
 10
184.56555896362556
 20
208.27818864522473
 10
185.15275116304554
 20
208.8653808446449
  0
LWPOLYLINE
  5
17A
330
17
100
AcDbEntity
  8
ENG_K
100
AcDbPolyline
 90
4
 70
1
 10
184.32461175871222
 20
208.03724144031145
 10
185.14725697354328
 20
207.21459622548045
 10
184.32461175871222
 20
206.3919510106491
 10
184.32461175871222
 20
208.03724144031145
  0
LWPOLYLINE
  5
17B
330
17
100
AcDbEntity
  8
ENG_K
100
AcDbPolyline
 90
5
 70
1
 10
178.3009316358785
 20
244.56141298704947
 10
178.3009316358785
 20
245.9398139311042
 10
179.58241513140143
 20
246.3669750962787
 10
179.2213027095556
 20
244.56141298704947
 10
178.3009316358785
 20
244.56141298704947
  0
LWPOLYLINE
  5
17C
330
17
100
AcDbEntity
  8
ENG_K
100
AcDbPolyline
 90
5
 70
1
 10
177.8190372260518
 20
243.11572975756945
 10
177.8190372260518
 20
243.93837497240045
 10
178.40622942547176
 20
244.5255671718207
 10
178.8761752302222
 20
243.11572975756945
 10
177.8190372260518
 20
243.11572975756945
  0
LWPOLYLINE
  5
17D
330
17
100
AcDbEntity
  8
ENG_K
100
AcDbPolyline
 90
5
 70
1
 10
177.33714281622508
 20
205.3868221862646
 10
178.00314911939617
 20
206.05282848943585
 10
178.32918631356088
 20
203.11849374195356
 10
177.33714281622508
 20
203.11849374195356
 10
177.33714281622508
 20
205.3868221862646
  0
LWPOLYLINE
  5
17E
330
17
100
AcDbEntity
  8
ENG_K
100
AcDbPolyline
 90
4
 70
1
 10
177.09619561131174
 20
208.03724144031133
 10
177.91884082614283
 20
207.21459622548045
 10
177.09619561131174
 20
206.39195101064922
 10
177.09619561131174
 20
208.03724144031133
  0
LWPOLYLINE
  5
17F
330
17
100
AcDbEntity
  8
ENG_K
100
AcDbPolyline
 90
5
 70
1
 10
176.8552484063984
 20
205.527965791087
 10
176.8552484063984
 20
206.350611005918
 10
177.44244060581838
 20
206.93780320533796
 10
177.91238641056873
 20
205.527965791087
 10
176.8552484063984
 20
205.527965791087
  0
LWPOLYLINE
  5
180
330
17
100
AcDbEntity
  8
ENG_K
100
AcDbPolyline
 90
5
 70
1
 10
175.81250487819779
 20
227.73829207102426
 10
177.56440164751407
 20
225.28563659398148
 10
175.9834932295276
 20
225.28563659398148
 10
175.39036912332114
 20
226.47188480639446
 10
175.81250487819779
 20
227.73829207102426
  0
LWPOLYLINE
  5
181
330
17
100
AcDbEntity
  8
ENG_K
100
AcDbPolyline
 90
5
 70
1
 10
175.609623490532
 20
159.32501715651514
 10
175.91070579725545
 20
155.41094716911041
 10
174.9276707670916
 20
155.41094716911041
 10
174.9276707670916
 20
158.64306443307484
 10
175.609623490532
 20
159.32501715651514
  0
LWPOLYLINE
  5
182
330
17
100
AcDbEntity
  8
ENG_K
100
AcDbPolyline
 90
5
 70
1
 10
175.60429013366348
 20
155.24001713104795
 10
175.89541418004285
 20
150.2909083425995
 10
174.73294581034637
 20
148.3534610597721
 10
174.44182176396708
 20
153.30256984822066
 10
175.60429013366348
 20
155.24001713104795
  0
LWPOLYLINE
  5
183
330
17
100
AcDbEntity
  8
ENG_K
100
AcDbPolyline
 90
4
 70
1
 10
175.02747436718266
 20
228.89984466768175
 10
174.20482915235155
 20
228.0771994528512
 10
174.20482915235155
 20
229.72248988251297
 10
175.02747436718266
 20
228.89984466768175
  0
LWPOLYLINE
  5
184
330
17
100
AcDbEntity
  8
ENG_K
100
AcDbPolyline
 90
5
 70
1
 10
173.0000931277848
 20
233.33669795621304
 10
173.52982493086574
 20
233.86642975929405
 10
174.63038778750905
 20
232.03215833155545
 10
173.0000931277848
 20
232.03215833155545
 10
173.0000931277848
 20
233.33669795621304
  0
LWPOLYLINE
  5
185
330
17
100
AcDbEntity
  8
ENG_K
100
AcDbPolyline
 90
4
 70
1
 10
173.58179113770254
 20
233.71878876594886
 10
172.75914592287145
 20
232.89614355111766
 10
172.75914592287145
 20
234.54143398078008
 10
173.58179113770254
 20
233.71878876594886
  0
LWPOLYLINE
  5
186
330
17
100
AcDbEntity
  8
ENG_K
100
AcDbPolyline
 90
9
 70
1
 10
164.29126776372212
 20
166.18849377730217
 10
164.65392892237014
 20
167.27647725324624
 10
172.99439777420756
 20
164.68805588543455
 10
172.9881475347852
 20
164.63668859516068
 10
167.76277445325465
 20
164.32931370801197
 10
165.67986312387896
 20
163.287858043324
 10
164.74543486863672
 20
164.84523846872767
 10
165.1899789704666
 20
165.2897825705576
 10
164.29126776372212
 20
166.18849377730217
  0
LWPOLYLINE
  5
187
330
17
100
AcDbEntity
  8
ENG_K
100
AcDbPolyline
 90
4
 70
1
 10
170.83156828356465
 20
147.60083301179228
 10
170.83156828356465
 20
149.2461234414544
 10
171.65421349839573
 20
148.42347822662316
 10
170.83156828356465
 20
147.60083301179228
  0
LWPOLYLINE
  5
188
330
17
100
AcDbEntity
  8
ENG_K
100
AcDbPolyline
 90
4
 70
1
 10
171.17231908856903
 20
147.94158381679645
 10
170.34967387373794
 20
147.11893860196557
 10
170.34967387373794
 20
148.76422903162768
 10
171.17231908856903
 20
147.94158381679645
  0
LWPOLYLINE
  5
189
330
17
100
AcDbEntity
  8
ENG_K
100
AcDbPolyline
 90
6
 70
1
 10
148.2823346218008
 20
59.51395961359729
 10
146.63704419213866
 20
59.51395961359729
 10
145.46965847556882
 20
60.681345330167225
 10
146.60994218420385
 20
62.58181817789221
 10
146.95880871587835
 20
60.83748551951973
 10
148.2823346218008
 20
59.51395961359729
  0
LWPOLYLINE
  5
18A
330
17
100
AcDbEntity
  8
ENG_K
100
AcDbPolyline
 90
5
 70
1
 10
145.0502173578363
 20
157.33852480841713
 10
145.0502173578363
 20
159.12495884290158
 10
145.70248717016514
 20
159.77722865523037
 10
146.0508734339956
 20
157.33852480841713
 10
145.0502173578363
 20
157.33852480841713
  0
LWPOLYLINE
  5
18B
330
17
100
AcDbEntity
  8
ENG_K
100
AcDbPolyline
 90
4
 70
1
 10
145.63191536775403
 20
159.50704965263728
 10
144.80927015292295
 20
158.68440443780608
 10
144.80927015292295
 20
160.32969486746816
 10
145.63191536775403
 20
159.50704965263728
  0
LWPOLYLINE
  5
18C
330
17
100
AcDbEntity
  8
ENG_K
100
AcDbPolyline
 90
4
 70
1
 10
144.32737574309624
 20
160.8115892772949
 10
145.15002095792732
 20
159.988944062464
 10
144.32737574309624
 20
159.1662988476328
 10
144.32737574309624
 20
160.8115892772949
  0
LWPOLYLINE
  5
18D
330
17
100
AcDbEntity
  8
ENG_K
100
AcDbPolyline
 90
4
 70
1
 10
142.88169251361612
 20
66.84217936108861
 10
143.7043377284472
 20
66.01953414625771
 10
142.88169251361612
 20
65.1968889314265
 10
142.88169251361612
 20
66.84217936108861
  0
LWPOLYLINE
  5
18E
330
17
100
AcDbEntity
  8
ENG_K
100
AcDbPolyline
 90
16
 70
1
 10
139.31388663177094
 20
66.50142855608443
 10
136.9934169296975
 20
65.57324067525505
 10
135.99402717122004
 20
64.57385091677759
 10
136.3761179809557
 20
64.19176010704186
 10
136.3761179809557
 20
61.100786447899736
 10
135.47740677421123
 20
60.202075241155285
 10
134.44087318040079
 20
60.54758643909197
 10
134.6979214917071
 20
66.45969759913717
 10
137.22111691925343
 20
66.96433668464641
 10
137.72199761034474
 20
67.46521737573774
 10
139.21060452056764
 20
67.46521737573774
 10
141.2170616176624
 20
68.46844592428513
 10
143.16655020486584
 20
67.07595407628276
 10
142.78147525121426
 20
65.92072921532788
 10
141.62007656970113
 20
66.50142855608443
 10
139.31388663177094
 20
66.50142855608443
  0
LWPOLYLINE
  5
18F
330
17
100
AcDbEntity
  8
ENG_K
100
AcDbPolyline
 90
5
 70
1
 10
139.33256205282476
 20
163.39693091843287
 10
139.95448023942697
 20
162.77501273183083
 10
138.72051241718032
 20
162.36369012441543
 10
138.0985942305782
 20
162.9856083110175
 10
139.33256205282476
 20
163.39693091843287
  0
LWPOLYLINE
  5
190
330
17
100
AcDbEntity
  8
ENG_K
100
AcDbPolyline
 90
11
 70
1
 10
135.44705514848445
 20
54.87088510733484
 10
134.06644953191324
 20
53.49027949076357
 10
134.54834394173994
 20
53.00838508093686
 10
133.96664593182223
 20
52.42668707101916
 10
133.96664593182223
 20
49.22618274595059
 10
135.13970151716939
 20
47.46659936792985
 10
132.03906829251542
 20
47.46659936792985
 10
132.03906829251542
 20
55.1516207795254
 10
134.337929403325
 20
55.40704979183752
 10
135.0357325410689
 20
56.10485292958134
 10
135.44705514848445
 20
54.87088510733484
  0
LWPOLYLINE
  5
191
330
17
100
AcDbEntity
  8
ENG_K
100
AcDbPolyline
 90
4
 70
1
 10
134.68948754656228
 20
44.67503650906046
 10
135.51213276139333
 20
43.85239129422958
 10
134.68948754656228
 20
43.02974607939869
 10
134.68948754656228
 20
44.67503650906046
  0
LWPOLYLINE
  5
192
330
17
100
AcDbEntity
  8
ENG_K
100
AcDbPolyline
 90
5
 70
1
 10
130.59338506303533
 20
64.67365451686857
 10
131.27533778647572
 20
65.3556072403092
 10
131.57642009319918
 20
61.44153725290413
 10
130.59338506303533
 20
61.44153725290413
 10
130.59338506303533
 20
64.67365451686857
  0
LWPOLYLINE
  5
193
330
17
100
AcDbEntity
  8
ENG_K
100
AcDbPolyline
 90
4
 70
1
 10
131.17508307295307
 20
65.0557453266043
 10
130.352437858122
 20
64.23310011177341
 10
130.352437858122
 20
65.87839054143552
 10
131.17508307295307
 20
65.0557453266043
  0
LWPOLYLINE
  5
194
330
17
100
AcDbEntity
  8
ENG_K
100
AcDbPolyline
 90
5
 70
1
 10
129.73489403297526
 20
68.63410758507548
 10
130.20483983772556
 20
67.22427017082455
 10
129.14770183355523
 20
67.22427017082455
 10
129.14770183355523
 20
68.04691538565555
 10
129.73489403297526
 20
68.63410758507548
  0
LWPOLYLINE
  5
195
330
17
100
AcDbEntity
  8
ENG_K
100
AcDbPolyline
 90
5
 70
1
 10
129.83469763306627
 20
57.72203138961063
 10
128.60072981081964
 20
57.31070878219491
 10
127.97881162421754
 20
57.932626968797194
 10
129.21277944646408
 20
58.34394957621258
 10
129.83469763306627
 20
57.72203138961063
  0
LWPOLYLINE
  5
196
330
17
100
AcDbEntity
  8
ENG_K
100
AcDbPolyline
 90
5
 70
1
 10
127.70201860407512
 20
157.19738120359472
 10
128.2892108034951
 20
157.7845734030149
 10
128.75915660824546
 20
156.37473598876372
 10
127.70201860407512
 20
156.37473598876372
 10
127.70201860407512
 20
157.19738120359472
  0
LWPOLYLINE
  5
197
330
17
100
AcDbEntity
  8
ENG_K
100
AcDbPolyline
 90
5
 70
1
 10
125.73709065677153
 20
71.86472035627223
 10
127.5523601679086
 20
70.77555864959007
 10
126.19125776168616
 20
70.32185784751577
 10
125.19274295485064
 20
71.32037265435143
 10
125.73709065677153
 20
71.86472035627223
  0
LWPOLYLINE
  5
198
330
17
100
AcDbEntity
  8
ENG_K
100
AcDbPolyline
 90
4
 70
1
 10
125.87424456485938
 20
71.80226706417814
 10
125.0515993500283
 20
70.97962184934691
 10
125.0515993500283
 20
72.62491227900902
 10
125.87424456485938
 20
71.80226706417814
  0
LWPOLYLINE
  5
199
330
17
100
AcDbEntity
  8
ENG_K
100
AcDbPolyline
 90
4
 70
1
 10
124.56970494020159
 20
73.10680668883573
 10
125.39235015503267
 20
72.28416147400485
 10
124.56970494020159
 20
71.46151625917364
 10
124.56970494020159
 20
73.10680668883573
  0
LWPOLYLINE
  5
19A
330
17
100
AcDbEntity
  8
ENG_K
100
AcDbPolyline
 90
4
 70
1
 10
124.0878105303749
 20
71.94341066900056
 10
124.0878105303749
 20
73.58870109866267
 10
124.91045574520598
 20
72.76605588383146
 10
124.0878105303749
 20
71.94341066900056
  0
LWPOLYLINE
  5
19B
330
17
100
AcDbEntity
  8
ENG_K
100
AcDbPolyline
 90
5
 70
1
 10
124.36348372247038
 20
73.79492231639372
 10
123.95216111505482
 20
72.56095449414724
 10
120.92077087931924
 20
75.59234472988285
 10
121.33209348673479
 20
76.82631255212935
 10
124.36348372247038
 20
73.79492231639372
  0
LWPOLYLINE
  5
19C
330
17
100
AcDbEntity
  8
ENG_K
100
AcDbPolyline
 90
4
 70
1
 10
120.714549661588
 20
75.79856594761392
 10
120.714549661588
 20
77.44385637727602
 10
121.5371948764191
 20
76.62121116244514
 10
120.714549661588
 20
75.79856594761392
  0
LWPOLYLINE
  5
19D
330
17
100
AcDbEntity
  8
ENG_K
100
AcDbPolyline
 90
4
 70
1
 10
121.0553004665924
 20
77.10310557227173
 10
120.2326552517613
 20
76.28046035744084
 10
120.2326552517613
 20
77.92575078710296
 10
121.0553004665924
 20
77.10310557227173
  0
LWPOLYLINE
  5
19E
330
17
100
AcDbEntity
  8
ENG_K
100
AcDbPolyline
 90
4
 70
1
 10
119.7507608419346
 20
78.40764519692966
 10
120.57340605676569
 20
77.58499998209845
 10
119.7507608419346
 20
76.76235476726757
 10
119.7507608419346
 20
78.40764519692966
  0
LWPOLYLINE
  5
19F
330
17
100
AcDbEntity
  8
ENG_K
100
AcDbPolyline
 90
4
 70
1
 10
119.26886643210791
 20
77.24424917709428
 10
119.26886643210791
 20
78.88953960675637
 10
120.091511646939
 20
78.06689439192516
 10
119.26886643210791
 20
77.24424917709428
  0
LWPOLYLINE
  5
1A0
330
17
100
AcDbEntity
  8
ENG_K
100
AcDbPolyline
 90
4
 70
1
 10
119.60961723711229
 20
78.54878880175187
 10
118.7869720222812
 20
77.72614358692098
 10
118.7869720222812
 20
79.37143401658275
 10
119.60961723711229
 20
78.54878880175187
  0
LWPOLYLINE
  5
1A1
330
17
100
AcDbEntity
  8
ENG_K
100
AcDbPolyline
 90
4
 70
1
 10
118.7869720222812
 20
103.46615450791774
 10
119.60961723711227
 20
102.64350929308685
 10
118.7869720222812
 20
101.82086407825552
 10
118.7869720222812
 20
103.46615450791774
  0
LWPOLYLINE
  5
1A2
330
17
100
AcDbEntity
  8
ENG_K
100
AcDbPolyline
 90
4
 70
1
 10
118.30507761245451
 20
79.85332842640946
 10
119.12772282728558
 20
79.03068321157858
 10
118.30507761245451
 20
78.20803799674725
 10
118.30507761245451
 20
79.85332842640946
  0
LWPOLYLINE
  5
1A3
330
17
100
AcDbEntity
  8
ENG_K
100
AcDbPolyline
 90
4
 70
1
 10
118.64582841745889
 20
79.51257762140528
 10
117.82318320262782
 20
78.68993240657396
 10
117.82318320262782
 20
80.33522283623617
 10
118.64582841745889
 20
79.51257762140528
  0
LWPOLYLINE
  5
1A4
330
17
100
AcDbEntity
  8
ENG_K
100
AcDbPolyline
 90
4
 70
1
 10
115.41371115349432
 20
106.83941537670461
 10
116.23635636832542
 20
106.01677016187372
 10
115.41371115349432
 20
105.1941249470425
 10
115.41371115349432
 20
106.83941537670461
  0
LWPOLYLINE
  5
1A5
330
17
100
AcDbEntity
  8
ENG_K
100
AcDbPolyline
 90
5
 70
1
 10
115.74800754292458
 20
107.70340059626716
 10
114.69086953875427
 20
107.70340059626716
 10
114.69086953875427
 20
108.52604581109814
 10
115.27806173817424
 20
109.11323801051832
 10
115.74800754292458
 20
107.70340059626716
  0
LWPOLYLINE
  5
1A6
330
17
100
AcDbEntity
  8
ENG_K
100
AcDbPolyline
 90
4
 70
1
 10
114.44992233384092
 20
108.08549140600299
 10
114.44992233384092
 20
109.7307818356652
 10
115.27256754867199
 20
108.90813662083387
 10
114.44992233384092
 20
108.08549140600299
  0
LWPOLYLINE
  5
1A7
330
17
100
AcDbEntity
  8
ENG_K
100
AcDbPolyline
 90
4
 70
1
 10
99.37005202439093
 20
177.81903722605173
 10
98.54740680955987
 20
176.99639201122085
 10
98.54740680955987
 20
178.64168244088307
 10
99.37005202439093
 20
177.81903722605173
  0
LWPOLYLINE
  5
1A8
330
17
100
AcDbEntity
  8
ENG_K
100
AcDbPolyline
 90
4
 70
1
 10
98.06551239973317
 20
106.63980817652285
 10
98.06551239973317
 20
108.28509860618507
 10
98.88815761456424
 20
107.46245339135373
 10
98.06551239973317
 20
106.63980817652285
  0
LWPOLYLINE
  5
1A9
330
17
100
AcDbEntity
  8
ENG_K
100
AcDbPolyline
 90
4
 70
1
 10
97.10172358007976
 20
106.3575209668779
 10
97.92436879491088
 20
105.53487575204701
 10
97.10172358007976
 20
104.71223053721613
 10
97.10172358007976
 20
106.3575209668779
  0
LWPOLYLINE
  5
1AA
330
17
100
AcDbEntity
  8
ENG_K
100
AcDbPolyline
 90
4
 70
1
 10
96.61982917025307
 20
54.79481911542117
 10
97.44247438508415
 20
53.97217390059028
 10
96.61982917025307
 20
53.149528685759066
 10
96.61982917025307
 20
54.79481911542117
  0
LWPOLYLINE
  5
1AB
330
17
100
AcDbEntity
  8
ENG_K
100
AcDbPolyline
 90
5
 70
1
 10
97.06587776485077
 20
54.34877052082376
 10
95.8319099426041
 20
53.93744791340804
 10
95.20999175600204
 20
54.55936610001033
 10
96.4439595782486
 20
54.97068870742572
 10
97.06587776485077
 20
54.34877052082376
  0
LWPOLYLINE
  5
1AC
330
17
100
AcDbEntity
  8
ENG_K
100
AcDbPolyline
 90
4
 70
1
 10
92.76467389163948
 20
66.84217936108861
 10
93.58731910647057
 20
66.01953414625771
 10
92.76467389163948
 20
65.1968889314265
 10
92.76467389163948
 20
66.84217936108861
  0
LWPOLYLINE
  5
1AD
330
17
100
AcDbEntity
  8
ENG_K
100
AcDbPolyline
 90
5
 70
1
 10
92.52372668672614
 20
89.39141302285269
 10
92.52372668672614
 20
90.21405823768359
 10
93.11091888614608
 20
90.80125043710375
 10
93.58086469089646
 20
89.39141302285269
 10
92.52372668672614
 20
89.39141302285269
  0
LWPOLYLINE
  5
1AE
330
17
100
AcDbEntity
  8
ENG_K
100
AcDbPolyline
 90
8
 70
1
 10
91.55993786707275
 20
84.89793584528782
 10
91.55993786707275
 20
85.84394346131252
 10
92.66627709111143
 20
87.68784216804382
 10
93.01384370877244
 20
85.25487584441682
 10
92.4876193790805
 20
84.2024271850329
 10
90.68168048006677
 20
81.88050574344385
 10
89.46929624759103
 20
82.28463382093565
 10
91.55993786707275
 20
84.89793584528782
  0
LWPOLYLINE
  5
1AF
330
17
100
AcDbEntity
  8
ENG_K
100
AcDbPolyline
 90
4
 70
1
 10
92.14163587699048
 20
67.94711178556456
 10
91.31899066215938
 20
67.12446657073335
 10
91.31899066215938
 20
68.76975700039544
 10
92.14163587699048
 20
67.94711178556456
  0
LWPOLYLINE
  5
1B0
330
17
100
AcDbEntity
  8
ENG_K
100
AcDbPolyline
 90
5
 70
1
 10
88.46347001842827
 20
80.58166423065205
 10
89.69743784067484
 20
80.99298683806744
 10
90.31935602727697
 20
80.37106865146548
 10
89.08538820503031
 20
79.95974604404977
 10
88.46347001842827
 20
80.58166423065205
  0
LWPOLYLINE
  5
1B1
330
17
100
AcDbEntity
  8
ENG_K
100
AcDbPolyline
 90
4
 70
1
 10
89.25026941803029
 20
71.32037265435143
 10
88.42762420319919
 20
70.4977274395202
 10
88.42762420319919
 20
72.14301786918232
 10
89.25026941803029
 20
71.32037265435143
  0
LWPOLYLINE
  5
1B2
330
17
100
AcDbEntity
  8
ENG_K
100
AcDbPolyline
 90
4
 70
1
 10
88.42762420319919
 20
78.68993240657407
 10
88.42762420319919
 20
80.33522283623617
 10
89.25026941803029
 20
79.51257762140528
 10
88.42762420319919
 20
78.68993240657407
  0
LWPOLYLINE
  5
1B3
330
17
100
AcDbEntity
  8
ENG_K
100
AcDbPolyline
 90
7
 70
1
 10
88.69125116399776
 20
78.03795547290704
 10
87.22288817863246
 20
75.5906838306315
 10
87.22288817863246
 20
73.82187834626752
 10
85.77720494915235
 20
74.54471996100753
 10
85.77720494915235
 20
75.73268858201543
 10
88.2628711946236
 20
79.32309538102933
 10
88.69125116399776
 20
78.03795547290704
  0
LWPOLYLINE
  5
1B4
330
17
100
AcDbEntity
  8
ENG_K
100
AcDbPolyline
 90
4
 70
1
 10
87.4638353835458
 20
73.10680668883573
 10
88.28648059837688
 20
72.28416147400485
 10
87.4638353835458
 20
71.46151625917364
 10
87.4638353835458
 20
73.10680668883573
  0
LWPOLYLINE
  5
1B5
330
17
100
AcDbEntity
  8
ENG_K
100
AcDbPolyline
 90
5
 70
1
 10
87.32818596822572
 20
74.41684050299602
 10
87.79813177297605
 20
73.00700308874485
 10
86.74099376880574
 20
73.00700308874485
 10
86.74099376880574
 20
73.82964830357585
 10
87.32818596822572
 20
74.41684050299602
  0
LWPOLYLINE
  5
1B6
330
17
100
AcDbEntity
  8
ENG_K
100
AcDbPolyline
 90
4
 70
1
 10
81.53995886080313
 20
221.18953411045462
 10
80.71731364597201
 20
220.36688889562407
 10
80.71731364597201
 20
222.01217932528584
 10
81.53995886080313
 20
221.18953411045462
  0
LWPOLYLINE
  5
1B7
330
17
100
AcDbEntity
  8
ENG_K
100
AcDbPolyline
 90
4
 70
1
 10
80.23541923614532
 20
222.97596814493926
 10
81.05806445097642
 20
222.15332293010803
 10
80.23541923614532
 20
221.3306777152775
 10
80.23541923614532
 20
222.97596814493926
  0
LWPOLYLINE
  5
1B8
330
17
100
AcDbEntity
  8
ENG_K
100
AcDbPolyline
 90
5
 70
1
 10
80.08650567401459
 20
219.5029036760613
 10
79.4137726904755
 20
220.84836964313936
 10
80.65910653702235
 20
221.26348092532177
 10
81.01122198687442
 20
219.5029036760613
 10
80.08650567401459
 20
219.5029036760613
  0
LWPOLYLINE
  5
1B9
330
17
100
AcDbEntity
  8
CUT_SLOT
100
AcDbPolyline
 90
5
 70
1
 10
85.05124522147811
 20
0.0
 10
88.61534683661587
 20
0.0
 10
88.61534683661587
 20
144.56832294800958
 10
85.05124522147811
 20
144.56832294800958
 10
85.05124522147811
 20
0.0
  0
LWPOLYLINE
  5
1BA
330
17
100
AcDbEntity
  8
CUT_SLOT
100
AcDbPolyline
 90
5
 70
1
 10
108.14525598906313
 20
0.0
 10
111.70935760420089
 20
0.0
 10
111.70935760420089
 20
144.56832294800958
 10
108.14525598906313
 20
144.56832294800958
 10
108.14525598906313
 20
0.0
  0
LWPOLYLINE
  5
1BB
330
17
100
AcDbEntity
  8
CUT_SLOT
100
AcDbPolyline
 90
5
 70
1
 10
131.23926675664816
 20
0.0
 10
134.80336837178592
 20
0.0
 10
134.80336837178592
 20
144.56832294800958
 10
131.23926675664816
 20
144.56832294800958
 10
131.23926675664816
 20
0.0
  0
LWPOLYLINE
  5
1BC
330
17
100
AcDbEntity
  8
CUT_SLOT
100
AcDbPolyline
 90
5
 70
1
 10
154.3332775242332
 20
0.0
 10
157.89737913937097
 20
0.0
 10
157.89737913937097
 20
144.56832294800958
 10
154.3332775242332
 20
144.56832294800958
 10
154.3332775242332
 20
0.0
  0
LWPOLYLINE
  5
1BD
330
17
100
AcDbEntity
  8
CUT_SLOT
100
AcDbPolyline
 90
5
 70
1
 10
177.42728829181826
 20
0.0
 10
180.99138990695602
 20
0.0
 10
180.99138990695602
 20
144.56832294800958
 10
177.42728829181826
 20
144.56832294800958
 10
177.42728829181826
 20
0.0
  0
LWPOLYLINE
  5
1BE
330
17
100
AcDbEntity
  8
CUT_SLOT
100
AcDbPolyline
 90
5
 70
1
 10
108.14525598906314
 20
144.56832294800958
 10
111.7093576042009
 20
144.56832294800958
 10
111.7093576042009
 20
289.13664589601916
 10
108.14525598906314
 20
289.13664589601916
 10
108.14525598906314
 20
144.56832294800958
  0
LWPOLYLINE
  5
1BF
330
17
100
AcDbEntity
  8
CUT_SLOT
100
AcDbPolyline
 90
5
 70
1
 10
131.23926675664816
 20
144.56832294800958
 10
134.80336837178592
 20
144.56832294800958
 10
134.80336837178592
 20
289.13664589601916
 10
131.23926675664816
 20
289.13664589601916
 10
131.23926675664816
 20
144.56832294800958
  0
LWPOLYLINE
  5
1C0
330
17
100
AcDbEntity
  8
CUT_SLOT
100
AcDbPolyline
 90
5
 70
1
 10
154.3332775242332
 20
144.56832294800958
 10
157.89737913937097
 20
144.56832294800958
 10
157.89737913937097
 20
289.13664589601916
 10
154.3332775242332
 20
289.13664589601916
 10
154.3332775242332
 20
144.56832294800958
  0
LWPOLYLINE
  5
1C1
330
17
100
AcDbEntity
  8
CUT_SLOT
100
AcDbPolyline
 90
5
 70
1
 10
177.4272882918182
 20
144.56832294800958
 10
180.99138990695596
 20
144.56832294800958
 10
180.99138990695596
 20
289.13664589601916
 10
177.4272882918182
 20
289.13664589601916
 10
177.4272882918182
 20
144.56832294800958
  0
LWPOLYLINE
  5
1C2
330
17
100
AcDbEntity
  8
CUT_SLOT
100
AcDbPolyline
 90
5
 70
1
 10
200.52129905940325
 20
144.56832294800958
 10
204.085400674541
 20
144.56832294800958
 10
204.085400674541
 20
289.13664589601916
 10
200.52129905940325
 20
289.13664589601916
 10
200.52129905940325
 20
144.56832294800958
  0
LWPOLYLINE
  5
1C3
330
17
100
AcDbEntity
  8
CUT_OUTLINE
100
AcDbPolyline
 90
5
 70
1
 10
0.0
 20
0.0
 10
289.13664589601916
 20
0.0
 10
289.13664589601916
 20
289.13664589601916
 10
0.0
 20
289.13664589601916
 10
0.0
 20
0.0
  0
ENDSEC
  0
SECTION
  2
OBJECTS
  0
DICTIONARY
  5
A
330
0
100
AcDbDictionary
281
1
  3
ACAD_COLOR
350
B
  3
ACAD_GROUP
350
C
  3
ACAD_LAYOUT
350
D
  3
ACAD_MATERIAL
350
E
  3
ACAD_MLEADERSTYLE
350
F
  3
ACAD_MLINESTYLE
350
10
  3
ACAD_PLOTSETTINGS
350
11
  3
ACAD_PLOTSTYLENAME
350
12
  3
ACAD_SCALELIST
350
14
  3
ACAD_TABLESTYLE
350
15
  3
ACAD_VISUALSTYLE
350
16
  3
EZDXF_META
350
2D
  0
DICTIONARY
  5
B
330
A
100
AcDbDictionary
281
1
  0
DICTIONARY
  5
C
330
A
100
AcDbDictionary
281
1
  0
DICTIONARY
  5
D
330
A
100
AcDbDictionary
281
1
  3
Model
350
1A
  3
Layout1
350
1E
  0
DICTIONARY
  5
E
330
A
100
AcDbDictionary
281
1
  3
ByBlock
350
1F
  3
ByLayer
350
20
  3
Global
350
21
  0
DICTIONARY
  5
F
330
A
100
AcDbDictionary
281
1
  3
Standard
350
2C
  0
DICTIONARY
  5
10
330
A
100
AcDbDictionary
281
1
  3
Standard
350
22
  0
DICTIONARY
  5
11
330
A
100
AcDbDictionary
281
1
  0
ACDBDICTIONARYWDFLT
  5
12
330
A
100
AcDbDictionary
281
1
  3
Normal
350
13
100
AcDbDictionaryWithDefault
340
13
  0
ACDBPLACEHOLDER
  5
13
330
12
  0
DICTIONARY
  5
14
330
A
100
AcDbDictionary
281
1
  0
DICTIONARY
  5
15
330
A
100
AcDbDictionary
281
1
  0
DICTIONARY
  5
16
330
A
100
AcDbDictionary
281
1
  0
LAYOUT
  5
1A
330
D
100
AcDbPlotSettings
  1

  4
A3
  6

 40
7.5
 41
20.0
 42
7.5
 43
20.0
 44
420.0
 45
297.0
 46
0.0
 47
0.0
 48
0.0
 49
0.0
140
0.0
141
0.0
142
1.0
143
1.0
 70
1024
 72
1
 73
0
 74
5
  7

 75
16
 76
0
 77
2
 78
300
147
1.0
148
0.0
149
0.0
100
AcDbLayout
  1
Model
 70
1
 71
0
 10
0.0
 20
0.0
 11
420.0
 21
297.0
 12
0.0
 22
0.0
 32
0.0
 14
1e+20
 24
1e+20
 34
1e+20
 15
-1e+20
 25
-1e+20
 35
-1e+20
146
0.0
 13
0.0
 23
0.0
 33
0.0
 16
1.0
 26
0.0
 36
0.0
 17
0.0
 27
1.0
 37
0.0
 76
1
330
17
  0
LAYOUT
  5
1E
330
D
100
AcDbPlotSettings
  1

  4
A3
  6

 40
7.5
 41
20.0
 42
7.5
 43
20.0
 44
420.0
 45
297.0
 46
0.0
 47
0.0
 48
0.0
 49
0.0
140
0.0
141
0.0
142
1.0
143
1.0
 70
0
 72
1
 73
0
 74
5
  7

 75
16
 76
0
 77
2
 78
300
147
1.0
148
0.0
149
0.0
100
AcDbLayout
  1
Layout1
 70
1
 71
1
 10
0.0
 20
0.0
 11
420.0
 21
297.0
 12
0.0
 22
0.0
 32
0.0
 14
1e+20
 24
1e+20
 34
1e+20
 15
-1e+20
 25
-1e+20
 35
-1e+20
146
0.0
 13
0.0
 23
0.0
 33
0.0
 16
1.0
 26
0.0
 36
0.0
 17
0.0
 27
1.0
 37
0.0
 76
1
330
1B
  0
MATERIAL
  5
1F
102
{ACAD_REACTORS
330
E
102
}
330
E
100
AcDbMaterial
  1
ByBlock
  2

 70
0
 40
1.0
 71
1
 41
1.0
 91
-1023410177
 42
1.0
 72
1
  3

 73
1
 74
1
 75
1
 44
0.5
 73
0
 45
1.0
 46
1.0
 77
1
  4

 78
1
 79
1
170
1
 48
1.0
171
1
  6

172
1
173
1
174
1
140
1.0
141
1.0
175
1
  7

176
1
177
1
178
1
143
1.0
179
1
  8

270
1
271
1
272
1
145
1.0
146
1.0
273
1
  9

274
1
275
1
276
1
 42
1.0
 72
1
  3

 73
1
 74
1
 75
1
 94
63
  0
MATERIAL
  5
20
102
{ACAD_REACTORS
330
E
102
}
330
E
100
AcDbMaterial
  1
ByLayer
  2

 70
0
 40
1.0
 71
1
 41
1.0
 91
-1023410177
 42
1.0
 72
1
  3

 73
1
 74
1
 75
1
 44
0.5
 73
0
 45
1.0
 46
1.0
 77
1
  4

 78
1
 79
1
170
1
 48
1.0
171
1
  6

172
1
173
1
174
1
140
1.0
141
1.0
175
1
  7

176
1
177
1
178
1
143
1.0
179
1
  8

270
1
271
1
272
1
145
1.0
146
1.0
273
1
  9

274
1
275
1
276
1
 42
1.0
 72
1
  3

 73
1
 74
1
 75
1
 94
63
  0
MATERIAL
  5
21
102
{ACAD_REACTORS
330
E
102
}
330
E
100
AcDbMaterial
  1
Global
  2

 70
0
 40
1.0
 71
1
 41
1.0
 91
-1023410177
 42
1.0
 72
1
  3

 73
1
 74
1
 75
1
 44
0.5
 73
0
 45
1.0
 46
1.0
 77
1
  4

 78
1
 79
1
170
1
 48
1.0
171
1
  6

172
1
173
1
174
1
140
1.0
141
1.0
175
1
  7

176
1
177
1
178
1
143
1.0
179
1
  8

270
1
271
1
272
1
145
1.0
146
1.0
273
1
  9

274
1
275
1
276
1
 42
1.0
 72
1
  3

 73
1
 74
1
 75
1
 94
63
  0
MLINESTYLE
  5
22
102
{ACAD_REACTORS
330
10
102
}
330
10
100
AcDbMlineStyle
  2
Standard
 70
0
  3

 62
256
 51
90.0
 52
90.0
 71
2
 49
0.5
 62
256
  6
BYLAYER
 49
-0.5
 62
256
  6
BYLAYER
  0
MLEADERSTYLE
  5
2C
102
{ACAD_REACTORS
330
F
102
}
330
F
100
AcDbMLeaderStyle
179
2
170
2
171
1
172
0
 90
2
 40
0.0
 41
0.0
173
1
 91
-1056964608
 92
-2
290
1
 42
2.0
291
1
 43
8.0
  3
Standard
 44
4.0
300

342
29
174
1
175
1
176
0
178
1
 93
-1056964608
 45
4.0
292
0
297
0
 46
4.0
 94
-1056964608
 47
1.0
 49
1.0
140
1.0
294
1
141
0.0
177
0
142
1.0
295
0
296
0
143
3.75
271
0
272
9
273
9
  0
DICTIONARY
  5
2D
330
A
100
AcDbDictionary
280
1
281
1
  3
CREATED_BY_EZDXF
350
2E
  3
WRITTEN_BY_EZDXF
350
1C6
  0
DICTIONARYVAR
  5
2E
330
2D
100
DictionaryVariables
280
0
  1
1.4.4 @ 2026-08-03T11:55:53.510864+00:00
  0
DICTIONARYVAR
  5
1C6
330
2D
100
DictionaryVariables
280
0
  1
1.4.4 @ 2026-08-03T11:55:53.567741+00:00
  0
ENDSEC
  0
EOF
