  0
SECTION
  2
HEADER
  9
$ACADVER
  1
AC1027
  9
$ACADMAINTVER
 70
105
  9
$DWGCODEPAGE
  3
ANSI_1252
  9
$LASTSAVEDBY
  1
ezdxf
  9
$REQUIREDVERSIONS
160
0
  9
$INSBASE
 10
0.0
 20
0.0
 30
0.0
  9
$EXTMIN
 10
1e+20
 20
1e+20
 30
1e+20
  9
$EXTMAX
 10
-1e+20
 20
-1e+20
 30
-1e+20
  9
$LIMMIN
 10
0.0
 20
0.0
  9
$LIMMAX
 10
420.0
 20
297.0
  9
$ORTHOMODE
 70
0
  9
$REGENMODE
 70
1
  9
$FILLMODE
 70
1
  9
$QTEXTMODE
 70
0
  9
$MIRRTEXT
 70
1
  9
$LTSCALE
 40
1.0
  9
$ATTMODE
 70
1
  9
$TEXTSIZE
 40
2.5
  9
$TRACEWID
 40
1.0
  9
$TEXTSTYLE
  7
Standard
  9
$CLAYER
  8
0
  9
$CELTYPE
  6
ByLayer
  9
$CECOLOR
 62
256
  9
$CELTSCALE
 40
1.0
  9
$DISPSILH
 70
0
  9
$DIMSCALE
 40
1.0
  9
$DIMASZ
 40
2.5
  9
$DIMEXO
 40
0.625
  9
$DIMDLI
 40
3.75
  9
$DIMRND
 40
0.0
  9
$DIMDLE
 40
0.0
  9
$DIMEXE
 40
1.25
  9
$DIMTP
 40
0.0
  9
$DIMTM
 40
0.0
  9
$DIMTXT
 40
2.5
  9
$DIMCEN
 40
2.5
  9
$DIMTSZ
 40
0.0
  9
$DIMTOL
 70
0
  9
$DIMLIM
 70
0
  9
$DIMTIH
 70
0
  9
$DIMTOH
 70
0
  9
$DIMSE1
 70
0
  9
$DIMSE2
 70
0
  9
$DIMTAD
 70
1
  9
$DIMZIN
 70
8
  9
$DIMBLK
  1

  9
$DIMASO
 70
1
  9
$DIMSHO
 70
1
  9
$DIMPOST
  1

  9
$DIMAPOST
  1

  9
$DIMALT
 70
0
  9
$DIMALTD
 70
3
  9
$DIMALTF
 40
0.03937007874
  9
$DIMLFAC
 40
1.0
  9
$DIMTOFL
 70
1
  9
$DIMTVP
 40
0.0
  9
$DIMTIX
 70
0
  9
$DIMSOXD
 70
0
  9
$DIMSAH
 70
0
  9
$DIMBLK1
  1

  9
$DIMBLK2
  1

  9
$DIMSTYLE
  2
ISO-25
  9
$DIMCLRD
 70
0
  9
$DIMCLRE
 70
0
  9
$DIMCLRT
 70
0
  9
$DIMTFAC
 40
1.0
  9
$DIMGAP
 40
0.625
  9
$DIMJUST
 70
0
  9
$DIMSD1
 70
0
  9
$DIMSD2
 70
0
  9
$DIMTOLJ
 70
0
  9
$DIMTZIN
 70
8
  9
$DIMALTZ
 70
0
  9
$DIMALTTZ
 70
0
  9
$DIMUPT
 70
0
  9
$DIMDEC
 70
2
  9
$DIMTDEC
 70
2
  9
$DIMALTU
 70
2
  9
$DIMALTTD
 70
3
  9
$DIMTXSTY
  7
Standard
  9
$DIMAUNIT
 70
0
  9
$DIMADEC
 70
0
  9
$DIMALTRND
 40
0.0
  9
$DIMAZIN
 70
0
  9
$DIMDSEP
 70
44
  9
$DIMATFIT
 70
3
  9
$DIMFRAC
 70
0
  9
$DIMLDRBLK
  1

  9
$DIMLUNIT
 70
2
  9
$DIMLWD
 70
-2
  9
$DIMLWE
 70
-2
  9
$DIMTMOVE
 70
0
  9
$DIMFXL
 40
1.0
  9
$DIMFXLON
 70
0
  9
$DIMJOGANG
 40
0.785398163397
  9
$DIMTFILL
 70
0
  9
$DIMTFILLCLR
 70
0
  9
$DIMARCSYM
 70
0
  9
$DIMLTYPE
  6

  9
$DIMLTEX1
  6

  9
$DIMLTEX2
  6

  9
$DIMTXTDIRECTION
 70
0
  9
$LUNITS
 70
2
  9
$LUPREC
 70
4
  9
$SKETCHINC
 40
1.0
  9
$FILLETRAD
 40
10.0
  9
$AUNITS
 70
0
  9
$AUPREC
 70
2
  9
$MENU
  1
.
  9
$ELEVATION
 40
0.0
  9
$PELEVATION
 40
0.0
  9
$THICKNESS
 40
0.0
  9
$LIMCHECK
 70
0
  9
$CHAMFERA
 40
0.0
  9
$CHAMFERB
 40
0.0
  9
$CHAMFERC
 40
0.0
  9
$CHAMFERD
 40
0.0
  9
$SKPOLY
 70
0
  9
$TDCREATE
 40
2461243.517962963
  9
$TDUCREATE
 40
2458532.153996898
  9
$TDUPDATE
 40
2461243.517962963
  9
$TDUUPDATE
 40
2458532.1544311
  9
$TDINDWG
 40
0.0
  9
$TDUSRTIMER
 40
0.0
  9
$USRTIMER
 70
1
  9
$ANGBASE
 50
0.0
  9
$ANGDIR
 70
0
  9
$PDMODE
 70
0
  9
$PDSIZE
 40
0.0
  9
$PLINEWID
 40
0.0
  9
$SPLFRAME
 70
0
  9
$SPLINETYPE
 70
6
  9
$SPLINESEGS
 70
8
  9
$HANDSEED
  5
40
  9
$SURFTAB1
 70
6
  9
$SURFTAB2
 70
6
  9
$SURFTYPE
 70
6
  9
$SURFU
 70
6
  9
$SURFV
 70
6
  9
$UCSBASE
  2

  9
$UCSNAME
  2

  9
$UCSORG
 10
0.0
 20
0.0
 30
0.0
  9
$UCSXDIR
 10
1.0
 20
0.0
 30
0.0
  9
$UCSYDIR
 10
0.0
 20
1.0
 30
0.0
  9
$UCSORTHOREF
  2

  9
$UCSORTHOVIEW
 70
0
  9
$UCSORGTOP
 10
0.0
 20
0.0
 30
0.0
  9
$UCSORGBOTTOM
 10
0.0
 20
0.0
 30
0.0
  9
$UCSORGLEFT
 10
0.0
 20
0.0
 30
0.0
  9
$UCSORGRIGHT
 10
0.0
 20
0.0
 30
0.0
  9
$UCSORGFRONT
 10
0.0
 20
0.0
 30
0.0
  9
$UCSORGBACK
 10
0.0
 20
0.0
 30
0.0
  9
$PUCSBASE
  2

  9
$PUCSNAME
  2

  9
$PUCSORG
 10
0.0
 20
0.0
 30
0.0
  9
$PUCSXDIR
 10
1.0
 20
0.0
 30
0.0
  9
$PUCSYDIR
 10
0.0
 20
1.0
 30
0.0
  9
$PUCSORTHOREF
  2

  9
$PUCSORTHOVIEW
 70
0
  9
$PUCSORGTOP
 10
0.0
 20
0.0
 30
0.0
  9
$PUCSORGBOTTOM
 10
0.0
 20
0.0
 30
0.0
  9
$PUCSORGLEFT
 10
0.0
 20
0.0
 30
0.0
  9
$PUCSORGRIGHT
 10
0.0
 20
0.0
 30
0.0
  9
$PUCSORGFRONT
 10
0.0
 20
0.0
 30
0.0
  9
$PUCSORGBACK
 10
0.0
 20
0.0
 30
0.0
  9
$USERI1
 70
0
  9
$USERI2
 70
0
  9
$USERI3
 70
0
  9
$USERI4
 70
0
  9
$USERI5
 70
0
  9
$USERR1
 40
0.0
  9
$USERR2
 40
0.0
  9
$USERR3
 40
0.0
  9
$USERR4
 40
0.0
  9
$USERR5
 40
0.0
  9
$WORLDVIEW
 70
1
  9
$SHADEDGE
 70
3
  9
$SHADEDIF
 70
70
  9
$TILEMODE
 70
1
  9
$MAXACTVP
 70
64
  9
$PINSBASE
 10
0.0
 20
0.0
 30
0.0
  9
$PLIMCHECK
 70
0
  9
$PEXTMIN
 10
1e+20
 20
1e+20
 30
1e+20
  9
$PEXTMAX
 10
-1e+20
 20
-1e+20
 30
-1e+20
  9
$PLIMMIN
 10
0.0
 20
0.0
  9
$PLIMMAX
 10
420.0
 20
297.0
  9
$UNITMODE
 70
0
  9
$VISRETAIN
 70
1
  9
$PLINEGEN
 70
0
  9
$PSLTSCALE
 70
1
  9
$TREEDEPTH
 70
3020
  9
$CMLSTYLE
  2
Standard
  9
$CMLJUST
 70
0
  9
$CMLSCALE
 40
20.0
  9
$PROXYGRAPHICS
 70
1
  9
$MEASUREMENT
 70
1
  9
$CELWEIGHT
370
-1
  9
$ENDCAPS
280
0
  9
$JOINSTYLE
280
0
  9
$LWDISPLAY
290
0
  9
$INSUNITS
 70
4
  9
$HYPERLINKBASE
  1

  9
$STYLESHEET
  1

  9
$XEDIT
290
1
  9
$CEPSNTYPE
380
0
  9
$PSTYLEMODE
290
1
  9
$FINGERPRINTGUID
  2
{04857579-74E1-4A9F-BC7F-A3AEC74817D8}
  9
$VERSIONGUID
  2
{48FA9928-0D9C-45AA-B11B-26D8303CC68F}
  9
$EXTNAMES
290
1
  9
$PSVPSCALE
 40
0.0
  9
$OLESTARTUP
290
0
  9
$SORTENTS
280
127
  9
$INDEXCTL
280
0
  9
$HIDETEXT
280
1
  9
$XCLIPFRAME
280
1
  9
$HALOGAP
280
0
  9
$OBSCOLOR
 70
257
  9
$OBSLTYPE
280
0
  9
$INTERSECTIONDISPLAY
280
0
  9
$INTERSECTIONCOLOR
 70
257
  9
$DIMASSOC
280
2
  9
$PROJECTNAME
  1

  9
$CAMERADISPLAY
290
0
  9
$LENSLENGTH
 40
50.0
  9
$CAMERAHEIGHT
 40
0.0
  9
$STEPSPERSEC
 40
24.0
  9
$STEPSIZE
 40
100.0
  9
$3DDWFPREC
 40
2.0
  9
$PSOLWIDTH
 40
0.005
  9
$PSOLHEIGHT
 40
0.08
  9
$LOFTANG1
 40
1.570796326795
  9
$LOFTANG2
 40
1.570796326795
  9
$LOFTMAG1
 40
0.0
  9
$LOFTMAG2
 40
0.0
  9
$LOFTPARAM
 70
7
  9
$LOFTNORMALS
280
1
  9
$LATITUDE
 40
37.795
  9
$LONGITUDE
 40
-122.394
  9
$NORTHDIRECTION
 40
0.0
  9
$TIMEZONE
 70
-8000
  9
$LIGHTGLYPHDISPLAY
280
1
  9
$TILEMODELIGHTSYNCH
280
1
  9
$CMATERIAL
347
20
  9
$SOLIDHIST
280
0
  9
$SHOWHIST
280
1
  9
$DWFFRAME
280
2
  9
$DGNFRAME
280
2
  9
$REALWORLDSCALE
290
1
  9
$INTERFERECOLOR
 62
256
  9
$CSHADOW
280
0
  9
$SHADOWPLANELOCATION
 40
0.0
  0
ENDSEC
  0
SECTION
  2
CLASSES
  0
CLASS
  1
ACDBDICTIONARYWDFLT
  2
AcDbDictionaryWithDefault
  3
ObjectDBX Classes
 90
0
 91
0
280
0
281
0
  0
CLASS
  1
SUN
  2
AcDbSun
  3
SCENEOE
 90
1153
 91
0
280
0
281
0
  0
CLASS
  1
VISUALSTYLE
  2
AcDbVisualStyle
  3
ObjectDBX Classes
 90
4095
 91
0
280
0
281
0
  0
CLASS
  1
MATERIAL
  2
AcDbMaterial
  3
ObjectDBX Classes
 90
1153
 91
0
280
0
281
0
  0
CLASS
  1
SCALE
  2
AcDbScale
  3
ObjectDBX Classes
 90
1153
 91
0
280
0
281
0
  0
CLASS
  1
TABLESTYLE
  2
AcDbTableStyle
  3
ObjectDBX Classes
 90
4095
 91
0
280
0
281
0
  0
CLASS
  1
MLEADERSTYLE
  2
AcDbMLeaderStyle
  3
ACDB_MLEADERSTYLE_CLASS
 90
4095
 91
0
280
0
281
0
  0
CLASS
  1
DICTIONARYVAR
  2
AcDbDictionaryVar
  3
ObjectDBX Classes
 90
0
 91
0
280
0
281
0
  0
CLASS
  1
CELLSTYLEMAP
  2
AcDbCellStyleMap
  3
ObjectDBX Classes
 90
1152
 91
0
280
0
281
0
  0
CLASS
  1
MENTALRAYRENDERSETTINGS
  2
AcDbMentalRayRenderSettings
  3
SCENEOE
 90
1024
 91
0
280
0
281
0
  0
CLASS
  1
ACDBDETAILVIEWSTYLE
  2
AcDbDetailViewStyle
  3
ObjectDBX Classes
 90
1025
 91
0
280
0
281
0
  0
CLASS
  1
ACDBSECTIONVIEWSTYLE
  2
AcDbSectionViewStyle
  3
ObjectDBX Classes
 90
1025
 91
0
280
0
281
0
  0
CLASS
  1
RASTERVARIABLES
  2
AcDbRasterVariables
  3
ISM
 90
0
 91
0
280
0
281
0
  0
CLASS
  1
LAYOUT
  2
AcDbLayout
  3
ObjectDBX Classes
 90
0
 91
0
280
0
281
0
  0
CLASS
  1
ACDBPLACEHOLDER
  2
AcDbPlaceHolder
  3
ObjectDBX Classes
 90
0
 91
0
280
0
281
0
  0
ENDSEC
  0
SECTION
  2
TABLES
  0
TABLE
  2
VPORT
  5
8
330
0
100
AcDbSymbolTable
 70
1
  0
VPORT
  5
23
330
8
100
AcDbSymbolTableRecord
100
AcDbViewportTableRecord
  2
*Active
 70
0
 10
0.0
 20
0.0
 11
1.0
 21
1.0
 12
0.0
 22
0.0
 13
0.0
 23
0.0
 14
0.5
 24
0.5
 15
0.5
 25
0.5
 16
0.0
 26
0.0
 36
1.0
 17
0.0
 27
0.0
 37
0.0
 40
1000.0
 41
1.34
 42
50.0
 43
0.0
 44
0.0
 50
0.0
 51
0.0
 71
0
 72
1000
 73
1
 74
3
 75
0
 76
0
 77
0
 78
0
281
0
 65
0
146
0.0
  0
ENDTAB
  0
TABLE
  2
LTYPE
  5
2
330
0
100
AcDbSymbolTable
 70
3
  0
LTYPE
  5
24
330
2
100
AcDbSymbolTableRecord
100
AcDbLinetypeTableRecord
  2
ByBlock
 70
0
  3

 72
65
 73
0
 40
0.0
  0
LTYPE
  5
25
330
2
100
AcDbSymbolTableRecord
100
AcDbLinetypeTableRecord
  2
ByLayer
 70
0
  3

 72
65
 73
0
 40
0.0
  0
LTYPE
  5
26
330
2
100
AcDbSymbolTableRecord
100
AcDbLinetypeTableRecord
  2
Continuous
 70
0
  3

 72
65
 73
0
 40
0.0
  0
ENDTAB
  0
TABLE
  2
LAYER
  5
1
330
0
100
AcDbSymbolTable
 70
3
  0
LAYER
  5
27
330
1
100
AcDbSymbolTableRecord
100
AcDbLayerTableRecord
  2
0
 70
0
 62
7
  6
Continuous
370
-3
390
13
347
21
  0
LAYER
  5
28
330
1
100
AcDbSymbolTableRecord
100
AcDbLayerTableRecord
  2
Defpoints
 70
0
 62
7
  6
Continuous
290
0
370
-3
390
13
347
21
  0
LAYER
  5
2F
330
1
100
AcDbSymbolTableRecord
100
AcDbLayerTableRecord
  2
Y
 70
0
 62
7
  6
Continuous
370
-3
390
13
347
21
  0
ENDTAB
  0
TABLE
  2
STYLE
  5
5
330
0
100
AcDbSymbolTable
 70
1
  0
STYLE
  5
29
330
5
100
AcDbSymbolTableRecord
100
AcDbTextStyleTableRecord
  2
Standard
 70
0
 40
0.0
 41
1.0
 50
0.0
 71
0
 42
2.5
  3
txt
  4

  0
ENDTAB
  0
TABLE
  2
VIEW
  5
7
330
0
100
AcDbSymbolTable
 70
0
  0
ENDTAB
  0
TABLE
  2
UCS
  5
6
330
0
100
AcDbSymbolTable
 70
0
  0
ENDTAB
  0
TABLE
  2
APPID
  5
3
330
0
100
AcDbSymbolTable
 70
3
  0
APPID
  5
2A
330
3
100
AcDbSymbolTableRecord
100
AcDbRegAppTableRecord
  2
ACAD
 70
0
  0
APPID
  5
3D
330
3
100
AcDbSymbolTableRecord
100
AcDbRegAppTableRecord
  2
HATCHBACKGROUNDCOLOR
 70
0
  0
APPID
  5
3E
330
3
100
AcDbSymbolTableRecord
100
AcDbRegAppTableRecord
  2
EZDXF
 70
0
  0
ENDTAB
  0
TABLE
  2
DIMSTYLE
  5
4
330
0
100
AcDbSymbolTable
 70
1
100
AcDbDimStyleTable
  0
DIMSTYLE
105
2B
330
4
100
AcDbSymbolTableRecord
100
AcDbDimStyleTableRecord
  2
Standard
 70
0
 40
1.0
 41
2.5
 42
0.625
 43
3.75
 44
1.25
 45
0.0
 46
0.0
 47
0.0
 48
0.0
 49
2.5
140
2.5
141
2.5
142
0.0
143
0.03937007874
144
1.0
145
0.0
146
1.0
147
0.625
148
0.0
 69
0
 70
0
 71
0
 72
0
 73
0
 74
0
 75
0
 76
0
 77
1
 78
8
 79
3
170
0
171
3
172
1
173
0
174
0
175
0
176
0
177
0
178
0
179
2
271
2
272
2
273
2
274
3
275
0
276
0
277
2
278
44
279
0
280
0
281
0
282
0
283
0
284
8
285
0
286
0
288
0
289
3
290
0
371
-2
372
-2
  0
ENDTAB
  0
TABLE
  2
BLOCK_RECORD
  5
9
330
0
100
AcDbSymbolTable
 70
2
  0
BLOCK_RECORD
  5
17
330
9
100
AcDbSymbolTableRecord
100
AcDbBlockTableRecord
  2
*Model_Space
340
1A
 70
0
280
1
281
0
  0
BLOCK_RECORD
  5
1B
330
9
100
AcDbSymbolTableRecord
100
AcDbBlockTableRecord
  2
*Paper_Space
340
1E
 70
0
280
1
281
0
  0
ENDTAB
  0
ENDSEC
  0
SECTION
  2
BLOCKS
  0
BLOCK
  5
18
330
17
100
AcDbEntity
  8
0
100
AcDbBlockBegin
  2
*Model_Space
 70
0
 10
0.0
 20
0.0
 30
0.0
  3
*Model_Space
  1

  0
ENDBLK
  5
19
330
17
100
AcDbEntity
  8
0
100
AcDbBlockEnd
  0
BLOCK
  5
1C
330
1B
100
AcDbEntity
  8
0
100
AcDbBlockBegin
  2
*Paper_Space
 70
0
 10
0.0
 20
0.0
 30
0.0
  3
*Paper_Space
  1

  0
ENDBLK
  5
1D
330
1B
100
AcDbEntity
  8
0
100
AcDbBlockEnd
  0
ENDSEC
  0
SECTION
  2
ENTITIES
  0
LWPOLYLINE
  5
30
330
17
100
AcDbEntity
  8
Y
100
AcDbPolyline
 90
93
 70
1
 10
337.583093526616
 20
115.01391841740494
 10
332.5585668684099
 20
115.01391841740494
 10
330.0147661033475
 20
119.19301967429286
 10
330.0147661033475
 20
124.72529335099314
 10
331.68143277001417
 20
127.46338858908845
 10
331.68143277001417
 20
168.53481716051698
 10
333.34809943668085
 20
171.2729123986122
 10
333.34809943668085
 20
195.8596863409595
 10
330.891900201743
 20
199.89487079835732
 10
326.0042986716185
 20
199.89487079835732
 10
324.3376320049518
 20
197.15677556026213
 10
291.00429867161836
 20
197.15677556026213
 10
289.3376320049519
 20
194.4186803221668
 10
277.67096533828516
 20
194.4186803221668
 10
275.2277543313879
 20
190.40483366797844
 10
280.2147661033474
 20
179.48090311987664
 10
280.2147661033474
 20
171.2729123986122
 10
281.8780884392174
 20
168.54031141825453
 10
283.5515594828679
 20
154.79394213112428
 10
281.0042986716186
 20
150.60915651264307
 10
275.9070988771135
 20
150.60915651264307
 10
267.57376554378
 20
158.8234422269288
 10
259.245626935823
 20
158.8234422269288
 10
249.24562693582297
 20
167.0377279412144
 10
242.57896026915637
 20
167.0377279412144
 10
232.57896026915637
 20
175.25201365550015
 10
224.235265216288
 20
175.25201365550015
 10
212.5685985496213
 20
188.94248984597638
 10
209.24043221044664
 20
188.94248984597638
 10
200.90709887711333
 20
197.15677556026213
 10
195.8919002017432
 20
197.15677556026213
 10
192.55856686840977
 20
202.63296603645253
 10
189.22523353507637
 20
202.63296603645253
 10
183.35261845799522
 20
212.28083366308582
 10
178.35261845799533
 20
242.3998812821334
 10
175.01476610334743
 20
247.88349586476897
 10
175.01476610334743
 20
253.3596863409595
 10
173.33103063652567
 20
256.12582317930963
 10
175.89190020174317
 20
260.3329660364525
 10
182.55856686840977
 20
260.3329660364525
 10
184.21668230154899
 20
263.05701281946705
 10
194.21668230154899
 20
265.79510805756235
 10
197.55856686840966
 20
271.28534698883345
 10
209.22523353507637
 20
271.28534698883345
 10
213.33103063652547
 20
278.0305850840715
 10
210.89190020174308
 20
282.0377279412144
 10
204.22523353507648
 20
282.0377279412144
 10
202.5585668684098
 20
284.7758231793097
 10
170.89190020174306
 20
284.7758231793097
 10
167.55856686840974
 20
290.25201365550015
 10
164.22523353507646
 20
290.25201365550015
 10
162.55856686840974
 20
292.99010889359533
 10
150.90932539135972
 20
292.99010889359533
 10
143.33882717540004
 20
299.8996905986381
 10
145.00807573560215
 20
308.12670135963384
 10
134.25623641923877
 20
323.0729395301828
 10
126.02182052916322
 20
317.6617519452759
 10
119.30696364857563
 20
306.630201355739
 10
115.97363031524222
 20
309.36829659383426
 10
106.00429867161853
 20
292.99010889359533
 10
96.00429867161853
 20
292.99010889359533
 10
94.33763200495181
 20
290.25201365550015
 10
75.98390527087207
 20
290.25201365550015
 10
72.58923522478611
 20
287.4635346890724
 10
69.22523353507648
 20
292.99010889359533
 10
65.99766766291226
 20
292.99010889359533
 10
57.64783336114843
 20
282.0160409541342
 10
50.879745737156256
 20
284.795791228274
 10
47.558566868409756
 20
290.25201365550015
 10
44.225233535076455
 20
290.25201365550015
 10
42.558566868409756
 20
292.99010889359533
 10
35.907098877113185
 20
292.99010889359533
 10
27.57376554377988
 20
301.20439460788106
 10
22.57065817723969
 20
301.20439460788106
 10
17.561786217302533
 20
306.69030199257406
 10
5.88446323031
 20
309.430898203807
 10
0.0
 20
319.0982306536021
 10
10.020481777432089
 20
338.3041540603469
 10
13.356264544299389
 20
352.0046904242661
 10
20.014766103347515
 20
360.2089155595218
 10
20.014766103347515
 20
365.66914969156414
 10
23.358477224971086
 20
373.90900924127936
 10
30.891900201743148
 20
386.28534698883345
 10
382.67096533828516
 20
386.28534698883345
 10
385.21476610334736
 20
382.10624573194553
 10
385.21476610334736
 20
146.57397205524524
 10
379.34978646953874
 20
136.9386483711311
 10
372.68311980287217
 20
134.20055313303592
 10
369.33763200495196
 20
128.70439460788108
 10
365.9922073627886
 20
128.70439460788108
 10
356.02848128927866
 20
117.7917422416559
 10
349.31127046145116
 20
106.75632445308214
 10
337.583093526616
 20
115.01391841740494
  0
LWPOLYLINE
  5
31
330
17
100
AcDbEntity
  8
Y
100
AcDbPolyline
 90
109
 70
1
 10
720.8866947344554
 20
208.10915651264307
 10
695.891900201743
 20
208.10915651264307
 10
693.3393906176136
 20
212.30256511514156
 10
695.0060572842802
 20
217.778755591332
 10
690.9345530303531
 20
224.46765543706948
 10
685.2263623309516
 20
217.7692683918534
 10
686.8901415890814
 20
212.30256511514156
 10
684.2814327700141
 20
208.0168291981026
 10
681.6643639698591
 20
212.31629936978592
 10
683.3310306365258
 20
215.0543946078811
 10
680.960742978874
 20
218.94843861688028
 10
676.0123750617223
 20
208.10915651264307
 10
669.2252335350764
 20
208.10915651264307
 10
660.8919002017432
 20
221.7996327031192
 10
659.3376320049518
 20
221.7996327031192
 10
652.6709653382852
 20
210.84725175073825
 10
647.5789602691563
 20
210.84725175073825
 10
640.9122936024896
 20
216.3234422269288
 10
632.5706581772396
 20
216.3234422269288
 10
627.5706581772397
 20
221.7996327031192
 10
620.8919002017432
 20
221.7996327031192
 10
617.6147661033475
 20
227.18349586476927
 10
616.0042986716186
 20
224.5377279412144
 10
612.5685985496212
 20
224.5377279412144
 10
606.6659434753547
 20
231.4643129773436
 10
610.0068461660076
 20
239.6972517507382
 10
606.6698532875482
 20
247.92055562979886
 10
610.0147661033475
 20
253.41576954146916
 10
610.0147661033475
 20
258.8919600176596
 10
614.2559018914527
 20
265.8595402409756
 10
617.6505719375388
 20
263.07106127454773
 10
626.0042986716186
 20
263.07106127454773
 10
627.6147661033475
 20
260.42529335099294
 10
629.9976973031925
 20
264.34010889359536
 10
625.8919002017432
 20
271.08534698883346
 10
622.5585668684097
 20
271.08534698883346
 10
620.8919002017432
 20
273.82344222692865
 10
587.6446825519681
 20
273.82344222692865
 10
579.3551538624965
 20
268.37603765956163
 10
572.6147661033475
 20
257.30254348381686
 10
569.2814327700142
 20
262.7787339600073
 10
565.9480994366808
 20
257.30254348381686
 10
563.3310306365258
 20
261.6020136555002
 10
564.9976973031925
 20
264.34010889359536
 10
562.6274096455408
 20
268.23415290259453
 10
557.6790417283889
 20
257.3948707983573
 10
552.5706581772396
 20
257.3948707983573
 10
547.6521200943919
 20
262.7818410795714
 10
545.2252047140531
 20
256.13671563340523
 10
548.5651682368359
 20
250.64963270311924
 10
546.8985015701693
 20
247.9115374650239
 10
548.5651682368359
 20
245.17344222692873
 10
546.0042986716186
 20
240.96629936978587
 10
542.5585668684098
 20
240.96629936978587
 10
539.2252335350764
 20
246.44248984597638
 10
529.3376320049518
 20
246.44248984597638
 10
527.6147661033475
 20
243.61206729334063
 10
520.9165046827599
 20
254.61635391287763
 10
512.6884871958299
 20
249.20937099289497
 10
509.28143277001413
 20
243.61206729334063
 10
507.61476610334756
 20
246.35016253143593
 10
506.0042986716186
 20
243.70439460788106
 10
502.5671355725473
 20
243.70439460788106
 10
495.9004689058806
 20
251.9186803221668
 10
492.5492014407041
 20
251.9186803221668
 10
488.3357123979004
 20
261.60970512061556
 10
490.0147661033475
 20
264.3681504938501
 10
490.0147661033475
 20
272.56927504445747
 10
493.3480994366809
 20
283.52165599683843
 10
493.3480994366809
 20
289.0047126436862
 10
498.3480994366809
 20
299.9570935960671
 10
498.3480994366809
 20
308.1645131396956
 10
501.6814327700142
 20
319.11689409207656
 10
501.6814327700142
 20
324.5990028557704
 10
505.8825347740374
 20
334.26153746502393
 10
754.337632004952
 20
334.26153746502393
 10
756.8901415890814
 20
330.06812886252544
 10
753.5400882935721
 20
319.06081089156714
 10
750.2092881503488
 20
313.588782084843
 10
748.5426214836823
 20
305.37449637055727
 10
740.2067549602389
 20
291.67985851061474
 10
735.206754960239
 20
275.2512870820433
 10
731.8985015701691
 20
269.8162993697859
 10
736.0143465802669
 20
263.05455399605404
 10
744.3476799136001
 20
260.31645875795886
 10
746.0042986716187
 20
257.5948707983573
 10
750.9957299674812
 20
257.5948707983573
 10
757.6290220881509
 20
249.42170729253166
 10
760.9736303152421
 20
252.16906405049932
 10
763.5701915872366
 20
247.903284817937
 10
756.9114885718071
 20
239.69881145963978
 10
762.6609336570738
 20
232.9520136555001
 10
769.3376320049518
 20
232.9520136555001
 10
772.6709653382853
 20
227.4758231793097
 10
776.0042986716185
 20
227.4758231793097
 10
780.2147661033474
 20
220.55862668432624
 10
780.2147661033474
 20
215.0263530076264
 10
776.0128499051457
 20
208.12320496772364
 10
766.0128499051457
 20
205.3851097296283
 10
762.6709653382852
 20
199.89487079835732
 10
756.0106299798956
 20
199.89487079835732
 10
749.3026529104734
 20
186.1195607450793
 10
742.6264668672546
 20
194.34557569118803
 10
740.2318349035024
 20
190.41153746502394
 10
743.5651682368358
 20
184.93534698883352
 10
740.9572909110989
 20
180.65097709655132
 10
732.5651978771161
 20
191.6805850840716
 10
729.2200280677887
 20
191.6805850840716
 10
720.8866947344554
 20
208.10915651264307
  0
LWPOLYLINE
  5
32
330
17
100
AcDbEntity
  8
Y
100
AcDbPolyline
 90
29
 70
1
 10
636.6612879794355
 20
245.16838881408987
 10
640.8919002017432
 20
252.11868032216677
 10
645.9922073627887
 20
252.11868032216677
 10
650.9320230661614
 20
246.70840598037768
 10
654.2252335350764
 20
252.11868032216677
 10
657.6709653382852
 20
252.11868032216677
 10
660.2318349035025
 20
247.9115374650239
 10
658.5651682368359
 20
245.17344222692873
 10
660.9891116563956
 20
241.1912494662235
 10
667.6557783230622
 20
243.9293447043187
 10
670.2318349035025
 20
239.6972517507382
 10
665.2318349035025
 20
231.48296603645258
 10
667.6147661033475
 20
227.56815049385014
 10
670.891900201743
 20
232.9520136555001
 10
677.6709653382852
 20
232.9520136555001
 10
680.9332697313628
 20
227.5925135811582
 10
684.9961568462659
 20
236.93715394543514
 10
667.5623598987307
 20
254.66744403833664
 10
657.567778885711
 20
257.40405550618726
 10
650.9122936024896
 20
262.87106127454774
 10
642.6709653382852
 20
262.87106127454774
 10
636.0042986716186
 20
251.9186803221668
 10
632.6766788883925
 20
251.9186803221668
 10
625.2288903995399
 20
236.96399391201018
 10
627.6557783230623
 20
232.97696375193777
 10
634.3224449897289
 20
235.7150589900331
 10
640.9616458430086
 20
224.8078004453593
 10
646.6541126527993
 20
231.48773598746087
 10
636.6612879794355
 20
245.16838881408987
  0
LWPOLYLINE
  5
33
330
17
100
AcDbEntity
  8
Y
100
AcDbPolyline
 90
5
 70
1
 10
774.261683458016
 20
243.9642766241388
 10
778.5746861248764
 20
239.7128882810905
 10
775.967848748679
 20
235.43022687733784
 10
771.6548460818184
 20
239.68161522038588
 10
774.261683458016
 20
243.9642766241388
  0
LWPOLYLINE
  5
34
330
17
100
AcDbEntity
  8
Y
100
AcDbPolyline
 90
32
 70
1
 10
1943.347354681824
 20
138.41454601563362
 10
1944.9976973031924
 20
141.12582317930966
 10
1943.3480994366805
 20
143.83587681715017
 10
1943.3480994366805
 20
226.10420184548397
 10
1996.003400189302
 20
227.47729925740035
 10
1998.555062958149
 20
223.28528185143747
 10
1991.8814327700138
 20
195.87572929302465
 10
1991.8814327700138
 20
184.92046655225712
 10
1988.5480994366803
 20
173.9680855998762
 10
1988.5480994366803
 20
168.47873396000733
 10
1986.8918713807195
 20
165.75778786807126
 10
1989.3691999310533
 20
158.97462636120375
 10
1995.2147661033473
 20
152.11503340392042
 10
1995.2147661033473
 20
149.31206729334068
 10
1990.9838518198674
 20
142.36127954190925
 10
1985.9838518198671
 20
145.09937478000444
 10
1982.6147661033474
 20
139.56444824572168
 10
1979.281432770014
 20
145.04063872191207
 10
1977.6147661033474
 20
142.3025434838169
 10
1975.8919002017428
 20
145.13296603645253
 10
1967.5585668684096
 20
145.13296603645253
 10
1965.891900201743
 20
147.87106127454774
 10
1949.3513715279191
 20
147.87106127454774
 10
1946.8918713807195
 20
141.13671563340523
 10
1949.358025405698
 20
137.08517687808342
 10
1952.6147661033472
 20
134.4099970193001
 10
1959.293846575774
 20
139.89638455022225
 10
1965.2403467660417
 20
132.91834861266338
 10
1949.2767603161174
 20
109.45307680093252
 10
1947.6147661033472
 20
112.18349586476928
 10
1944.190443748504
 20
106.55782342466924
 10
1943.347354681824
 20
138.41454601563362
  0
LWPOLYLINE
  5
35
330
17
100
AcDbEntity
  8
Y
100
AcDbPolyline
 90
126
 70
1
 10
3611.004298671619
 20
109.53772794121441
 10
3605.231834903503
 20
100.05439460788112
 10
3606.8985015701696
 20
97.31629936978592
 10
3602.691358739032
 20
90.40456471863112
 10
3599.2814327700144
 20
87.603554101224
 10
3592.5789602691566
 20
93.10915651264307
 10
3589.2373248439067
 20
93.10915651264307
 10
3584.2373248439067
 20
98.58534698883348
 10
3577.565197877116
 20
98.58534698883348
 10
3569.231864543783
 20
109.53772794121441
 10
3565.8978569545666
 20
109.53772794121441
 10
3556.6710656156943
 20
121.93997344216645
 10
3558.339390617614
 20
127.42161273418917
 10
3551.6643639698596
 20
138.38772794121445
 10
3557.614766103348
 20
148.16338858908819
 10
3559.2814327700144
 20
145.42529335099297
 10
3561.6643639698596
 20
149.34010889359539
 10
3559.994621312769
 20
152.08325754452946
 10
3570.0267412181915
 20
165.81770741504855
 10
3573.3365199542154
 20
173.97394787167764
 10
3569.997697303193
 20
179.459156512643
 10
3571.6654653166233
 20
182.1990611061356
 10
3549.2013052340876
 20
221.8382007226738
 10
3545.0285496088773
 20
225.95134555323781
 10
3542.5921290927586
 20
232.62249696642013
 10
3540.2318349035027
 20
228.74487079835725
 10
3541.8985015701696
 20
226.00677556026204
 10
3539.281432770015
 20
221.70730538857873
 10
3537.614766103348
 20
224.44540062667394
 10
3534.347679913601
 20
219.07804474351767
 10
3526.014346580267
 20
216.33994950542245
 10
3524.3376320049524
 20
213.58534698883346
 10
3502.5585668684103
 20
213.58534698883346
 10
3497.5585668684103
 20
221.7996327031192
 10
3492.670965338286
 20
221.7996327031192
 10
3490.948099436681
 20
218.96921015048355
 10
3485.9405328089088
 20
227.19592675325228
 10
3475.9988919375073
 20
213.58534698883346
 10
3472.670965338286
 20
213.58534698883346
 10
3471.0042986716194
 20
210.84725175073825
 10
3460.978015885302
 20
210.84725175073825
 10
3452.6446825519683
 20
205.37106127454774
 10
3446.004298671619
 20
205.37106127454774
 10
3444.281432770015
 20
202.54063872191207
 10
3442.5585668684103
 20
205.37106127454774
 10
3439.317238604206
 20
205.37106127454774
 10
3435.92256855812
 20
202.58258230811998
 10
3432.598689732828
 20
208.04324037824173
 10
3427.5986897328285
 20
202.56704990205122
 10
3425.0004701155467
 20
206.83555355901407
 10
3449.219869037915
 20
254.8567755602621
 10
3455.8919002017437
 20
254.8567755602621
 10
3457.5790137201616
 20
257.62846205480537
 10
3462.579013720161
 20
254.89036681671018
 10
3464.2252335350768
 20
257.5948707983573
 10
3477.6709653382854
 20
257.5948707983573
 10
3479.2814327700144
 20
254.94910287480255
 10
3482.6147661033483
 20
260.42529335099294
 10
3484.281432770015
 20
257.68719811289776
 10
3485.8919002017433
 20
260.3329660364525
 10
3489.320206815336
 20
260.3329660364525
 10
3504.320206815336
 20
246.64248984597637
 10
3507.6709653382854
 20
246.64248984597637
 10
3511.0042986716194
 20
241.16629936978583
 10
3520.8919002017437
 20
241.16629936978583
 10
3522.5585668684103
 20
243.90439460788104
 10
3525.992207362789
 20
243.90439460788104
 10
3530.943639944426
 20
238.48139701846927
 10
3537.626466867255
 20
246.71559447695512
 10
3539.3069636485757
 20
243.9547783362136
 10
3542.640296981909
 20
246.69287357430892
 10
3544.3376320049524
 20
243.90439460788104
 10
3557.6709653382854
 20
243.90439460788104
 10
3559.337632004952
 20
241.16629936978583
 10
3572.670965338286
 20
241.16629936978583
 10
3574.306963648576
 20
238.4785878600232
 10
3577.6402969819096
 20
241.21668309811838
 10
3580.9480994366813
 20
235.7824362081359
 10
3584.225233535077
 20
241.16629936978583
 10
3587.6709653382854
 20
241.16629936978583
 10
3590.9736303152426
 20
235.74049262192798
 10
3594.245626935823
 20
238.42820413169065
 10
3602.6709653382854
 20
238.42820413169065
 10
3604.337632004952
 20
235.69010889359544
 10
3611.0136640993246
 20
235.69010889359544
 10
3619.346997432658
 20
216.52344222692875
 10
3622.5585668684103
 20
216.52344222692875
 10
3624.281432770015
 20
219.35386477956442
 10
3626.004298671619
 20
216.52344222692875
 10
3634.317238604206
 20
216.52344222692875
 10
3640.983905270872
 20
211.04725175073824
 10
3647.6709653382854
 20
211.04725175073824
 10
3650.231834903503
 20
206.84010889359539
 10
3646.0196042030548
 20
199.92001560000162
 10
3641.0196042030543
 20
197.1819203619064
 10
3630.9572909110993
 20
180.65097709655132
 10
3622.6014037261134
 20
191.63300025396134
 10
3615.243002925845
 20
184.91699952355756
 10
3617.670965338286
 20
180.92820413169065
 10
3622.6709653382854
 20
180.92820413169065
 10
3625.231834903503
 20
176.7210612745478
 10
3616.8985015701696
 20
163.03058508407153
 10
3624.3376320049524
 20
150.80915651264303
 10
3627.6634885543613
 20
150.80915651264303
 10
3635.2361725061883
 20
141.13294924086395
 10
3632.6709653382854
 20
136.9186803221668
 10
3627.6709653382854
 20
136.9186803221668
 10
3625.231834903503
 20
132.91153746502394
 10
3629.3376320049524
 20
126.16629936978585
 10
3632.6709653382854
 20
126.16629936978585
 10
3635.2147661033478
 20
121.98719811289772
 10
3635.2147661033478
 20
116.45492443619787
 10
3633.5480994366812
 20
113.71682919810256
 10
3633.5480994366812
 20
105.50254348381682
 10
3630.231834903503
 20
100.05439460788112
 10
3631.8985015701696
 20
97.31629936978592
 10
3627.6709653382854
 20
90.37106127454774
 10
3620.995729967481
 20
90.37106127454774
 10
3614.319590030873
 20
82.14510313836898
 10
3608.3691964184914
 20
83.54162408821341
 10
3606.6727239509473
 20
89.11574791014453
 10
3608.3310306365265
 20
91.8401088935954
 10
3606.660547799816
 20
94.58447355390508
 10
3614.9938811331494
 20
105.53685450628603
 10
3612.5585668684103
 20
109.53772794121441
 10
3611.004298671619
 20
109.53772794121441
  0
LWPOLYLINE
  5
36
330
17
100
AcDbEntity
  8
Y
100
AcDbPolyline
 90
5
 70
1
 10
3610.9480994366813
 20
178.2824362081359
 10
3613.331030636526
 20
182.1972517507382
 10
3610.9480994366813
 20
186.11206729334063
 10
3608.565168236836
 20
182.1972517507382
 10
3610.9480994366813
 20
178.2824362081359
  0
LWPOLYLINE
  5
37
330
17
100
AcDbEntity
  8
Y
100
AcDbPolyline
 90
5
 70
1
 10
3593.565168236836
 20
201.36391841740488
 10
3595.9480994366813
 20
197.44910287480255
 10
3598.331030636526
 20
201.36391841740488
 10
3595.9480994366813
 20
205.2787339600073
 10
3593.565168236836
 20
201.36391841740488
  0
LWPOLYLINE
  5
38
330
17
100
AcDbEntity
  8
Y
100
AcDbPolyline
 90
5
 70
1
 10
3576.6643639698596
 20
228.74487079835725
 10
3574.2814327700144
 20
232.6596863409597
 10
3571.89850157017
 20
228.74487079835725
 10
3574.2814327700144
 20
224.83005525575484
 10
3576.6643639698596
 20
228.74487079835725
  0
LWPOLYLINE
  5
39
330
17
100
AcDbEntity
  8
Y
100
AcDbPolyline
 90
5
 70
1
 10
3560.9480994366813
 20
221.70730538857873
 10
3558.565168236836
 20
217.79248984597632
 10
3560.9480994366813
 20
213.8776743033739
 10
3563.3310306365265
 20
217.79248984597632
 10
3560.9480994366813
 20
221.70730538857873
  0
LWPOLYLINE
  5
3A
330
17
100
AcDbEntity
  8
Y
100
AcDbPolyline
 90
40
 70
1
 10
3452.5585668684103
 20
156.28534698883345
 10
3464.3376320049524
 20
156.28534698883345
 10
3465.9480994366813
 20
153.6395790652787
 10
3467.5585668684103
 20
156.28534698883345
 10
3472.670965338286
 20
156.28534698883345
 10
3474.306963648576
 20
153.5976354790708
 10
3477.640296981909
 20
156.335730717166
 10
3479.2814327700144
 20
153.6395790652787
 10
3480.8919002017437
 20
156.28534698883345
 10
3494.337632004952
 20
156.28534698883345
 10
3497.6709653382854
 20
150.80915651264303
 10
3502.6709653382854
 20
150.80915651264303
 10
3506.8918713807207
 20
143.87481087150044
 10
3504.3691999310545
 20
136.96749618789184
 10
3498.5711332972014
 20
130.16364248490086
 10
3500.231834903503
 20
127.43534698883352
 10
3495.9480994366813
 20
120.397781579055
 10
3494.2814327700144
 20
123.13587681715022
 10
3491.8985015701696
 20
119.2210612745478
 10
3495.2318349035027
 20
113.74487079835727
 10
3492.6463608572685
 20
109.49730629382992
 10
3484.313027523936
 20
114.97349677002045
 10
3481.890141589082
 20
110.99304130561771
 10
3483.5568082557484
 20
105.51685082942718
 10
3481.8985015701696
 20
102.79248984597633
 10
3485.2252047140537
 20
97.32719182388149
 10
3482.655338571334
 20
90.29065357595911
 10
3478.3215127484855
 20
94.5625676013383
 10
3479.997697303193
 20
97.31629936978592
 10
3475.9320230661615
 20
103.99562133062268
 10
3470.957958608375
 20
98.54783644828491
 10
3467.640296981909
 20
101.27305849859624
 10
3460.9989965396626
 20
90.36235062919084
 10
3451.720356246437
 20
91.74812158207524
 10
3449.9976973031926
 20
94.5782041316906
 10
3451.666847122795
 20
97.32037883532263
 10
3433.3335137894614
 20
132.91561693056065
 10
3444.2252335350768
 20
150.80915651264303
 10
3449.2252335350768
 20
150.80915651264303
 10
3452.5585668684103
 20
156.28534698883345
  0
LWPOLYLINE
  5
3B
330
17
100
AcDbEntity
  8
Y
100
AcDbPolyline
 90
5
 70
1
 10
3456.6643639698596
 20
102.79248984597633
 10
3454.2814327700144
 20
106.70730538857876
 10
3451.8985015701696
 20
102.79248984597633
 10
3454.2814327700144
 20
98.87767430337391
 10
3456.6643639698596
 20
102.79248984597633
  0
LWPOLYLINE
  5
3C
330
17
100
AcDbEntity
  8
Y
100
AcDbPolyline
 90
33
 70
1
 10
4933.38446323031
 20
1.3951839180926795
 10
4929.281432770015
 20
8.135876817150223
 10
4925.948099436681
 20
2.6596863409596994
 10
4923.331030636526
 20
6.9591565126430055
 10
4924.997697303193
 20
9.69725175073821
 10
4922.614766103347
 20
13.612067293340635
 10
4917.630842473867
 20
5.424192759194035
 10
4912.630842473866
 20
10.90038323538456
 10
4910.94809943668
 20
8.135876817150223
 10
4909.2653563994945
 20
10.90038323538456
 10
4904.19281208144
 20
5.344739458468473
 10
4903.346778503827
 20
23.413599437496213
 10
4904.997697303193
 20
26.12582317930967
 10
4903.34809943668
 20
28.83587681715005
 10
4903.34809943668
 20
45.37588826262817
 10
4910.886006821823
 20
46.7518554837254
 10
4912.614766103347
 20
49.591960017659645
 10
4915.231834903503
 20
45.292489845976334
 10
4913.565168236836
 20
42.55439460788113
 10
4915.948099436681
 20
38.63957906527871
 10
4918.3310306365265
 20
42.55439460788113
 10
4914.997697303193
 20
48.03058508407154
 10
4917.55856686841
 20
52.237727941214395
 10
4921.004298671619
 20
52.237727941214395
 10
4924.281432770014
 20
46.85386477956443
 10
4925.891900201743
 20
49.49963270311919
 10
4936.00907893777
 20
49.49963270311919
 10
4945.2100132585565
 20
31.635481002374565
 10
4946.887228193592
 20
23.369207393981185
 10
4945.231834903502
 20
20.649632703119146
 10
4948.565168236836
 20
15.173442226928735
 10
4939.329159924792
 20
0.0
 10
4933.38446323031
 20
1.3951839180926795
  0
ENDSEC
  0
SECTION
  2
OBJECTS
  0
DICTIONARY
  5
A
330
0
100
AcDbDictionary
281
1
  3
ACAD_COLOR
350
B
  3
ACAD_GROUP
350
C
  3
ACAD_LAYOUT
350
D
  3
ACAD_MATERIAL
350
E
  3
ACAD_MLEADERSTYLE
350
F
  3
ACAD_MLINESTYLE
350
10
  3
ACAD_PLOTSETTINGS
350
11
  3
ACAD_PLOTSTYLENAME
350
12
  3
ACAD_SCALELIST
350
14
  3
ACAD_TABLESTYLE
350
15
  3
ACAD_VISUALSTYLE
350
16
  3
EZDXF_META
350
2D
  0
DICTIONARY
  5
B
330
A
100
AcDbDictionary
281
1
  0
DICTIONARY
  5
C
330
A
100
AcDbDictionary
281
1
  0
DICTIONARY
  5
D
330
A
100
AcDbDictionary
281
1
  3
Model
350
1A
  3
Layout1
350
1E
  0
DICTIONARY
  5
E
330
A
100
AcDbDictionary
281
1
  3
ByBlock
350
1F
  3
ByLayer
350
20
  3
Global
350
21
  0
DICTIONARY
  5
F
330
A
100
AcDbDictionary
281
1
  3
Standard
350
2C
  0
DICTIONARY
  5
10
330
A
100
AcDbDictionary
281
1
  3
Standard
350
22
  0
DICTIONARY
  5
11
330
A
100
AcDbDictionary
281
1
  0
ACDBDICTIONARYWDFLT
  5
12
330
A
100
AcDbDictionary
281
1
  3
Normal
350
13
100
AcDbDictionaryWithDefault
340
13
  0
ACDBPLACEHOLDER
  5
13
330
12
  0
DICTIONARY
  5
14
330
A
100
AcDbDictionary
281
1
  0
DICTIONARY
  5
15
330
A
100
AcDbDictionary
281
1
  0
DICTIONARY
  5
16
330
A
100
AcDbDictionary
281
1
  0
LAYOUT
  5
1A
330
D
100
AcDbPlotSettings
  1

  4
A3
  6

 40
7.5
 41
20.0
 42
7.5
 43
20.0
 44
420.0
 45
297.0
 46
0.0
 47
0.0
 48
0.0
 49
0.0
140
0.0
141
0.0
142
1.0
143
1.0
 70
1024
 72
1
 73
0
 74
5
  7

 75
16
 76
0
 77
2
 78
300
147
1.0
148
0.0
149
0.0
100
AcDbLayout
  1
Model
 70
1
 71
0
 10
0.0
 20
0.0
 11
420.0
 21
297.0
 12
0.0
 22
0.0
 32
0.0
 14
1e+20
 24
1e+20
 34
1e+20
 15
-1e+20
 25
-1e+20
 35
-1e+20
146
0.0
 13
0.0
 23
0.0
 33
0.0
 16
1.0
 26
0.0
 36
0.0
 17
0.0
 27
1.0
 37
0.0
 76
1
330
17
  0
LAYOUT
  5
1E
330
D
100
AcDbPlotSettings
  1

  4
A3
  6

 40
7.5
 41
20.0
 42
7.5
 43
20.0
 44
420.0
 45
297.0
 46
0.0
 47
0.0
 48
0.0
 49
0.0
140
0.0
141
0.0
142
1.0
143
1.0
 70
0
 72
1
 73
0
 74
5
  7

 75
16
 76
0
 77
2
 78
300
147
1.0
148
0.0
149
0.0
100
AcDbLayout
  1
Layout1
 70
1
 71
1
 10
0.0
 20
0.0
 11
420.0
 21
297.0
 12
0.0
 22
0.0
 32
0.0
 14
1e+20
 24
1e+20
 34
1e+20
 15
-1e+20
 25
-1e+20
 35
-1e+20
146
0.0
 13
0.0
 23
0.0
 33
0.0
 16
1.0
 26
0.0
 36
0.0
 17
0.0
 27
1.0
 37
0.0
 76
1
330
1B
  0
MATERIAL
  5
1F
102
{ACAD_REACTORS
330
E
102
}
330
E
100
AcDbMaterial
  1
ByBlock
  2

 70
0
 40
1.0
 71
1
 41
1.0
 91
-1023410177
 42
1.0
 72
1
  3

 73
1
 74
1
 75
1
 44
0.5
 73
0
 45
1.0
 46
1.0
 77
1
  4

 78
1
 79
1
170
1
 48
1.0
171
1
  6

172
1
173
1
174
1
140
1.0
141
1.0
175
1
  7

176
1
177
1
178
1
143
1.0
179
1
  8

270
1
271
1
272
1
145
1.0
146
1.0
273
1
  9

274
1
275
1
276
1
 42
1.0
 72
1
  3

 73
1
 74
1
 75
1
 94
63
  0
MATERIAL
  5
20
102
{ACAD_REACTORS
330
E
102
}
330
E
100
AcDbMaterial
  1
ByLayer
  2

 70
0
 40
1.0
 71
1
 41
1.0
 91
-1023410177
 42
1.0
 72
1
  3

 73
1
 74
1
 75
1
 44
0.5
 73
0
 45
1.0
 46
1.0
 77
1
  4

 78
1
 79
1
170
1
 48
1.0
171
1
  6

172
1
173
1
174
1
140
1.0
141
1.0
175
1
  7

176
1
177
1
178
1
143
1.0
179
1
  8

270
1
271
1
272
1
145
1.0
146
1.0
273
1
  9

274
1
275
1
276
1
 42
1.0
 72
1
  3

 73
1
 74
1
 75
1
 94
63
  0
MATERIAL
  5
21
102
{ACAD_REACTORS
330
E
102
}
330
E
100
AcDbMaterial
  1
Global
  2

 70
0
 40
1.0
 71
1
 41
1.0
 91
-1023410177
 42
1.0
 72
1
  3

 73
1
 74
1
 75
1
 44
0.5
 73
0
 45
1.0
 46
1.0
 77
1
  4

 78
1
 79
1
170
1
 48
1.0
171
1
  6

172
1
173
1
174
1
140
1.0
141
1.0
175
1
  7

176
1
177
1
178
1
143
1.0
179
1
  8

270
1
271
1
272
1
145
1.0
146
1.0
273
1
  9

274
1
275
1
276
1
 42
1.0
 72
1
  3

 73
1
 74
1
 75
1
 94
63
  0
MLINESTYLE
  5
22
102
{ACAD_REACTORS
330
10
102
}
330
10
100
AcDbMlineStyle
  2
Standard
 70
0
  3

 62
256
 51
90.0
 52
90.0
 71
2
 49
0.5
 62
256
  6
BYLAYER
 49
-0.5
 62
256
  6
BYLAYER
  0
MLEADERSTYLE
  5
2C
102
{ACAD_REACTORS
330
F
102
}
330
F
100
AcDbMLeaderStyle
179
2
170
2
171
1
172
0
 90
2
 40
0.0
 41
0.0
173
1
 91
-1056964608
 92
-2
290
1
 42
2.0
291
1
 43
8.0
  3
Standard
 44
4.0
300

342
29
174
1
175
1
176
0
178
1
 93
-1056964608
 45
4.0
292
0
297
0
 46
4.0
 94
-1056964608
 47
1.0
 49
1.0
140
1.0
294
1
141
0.0
177
0
142
1.0
295
0
296
0
143
3.75
271
0
272
9
273
9
  0
DICTIONARY
  5
2D
330
A
100
AcDbDictionary
280
1
281
1
  3
CREATED_BY_EZDXF
350
2E
  3
WRITTEN_BY_EZDXF
350
3F
  0
DICTIONARYVAR
  5
2E
330
2D
100
DictionaryVariables
280
0
  1
1.4.4 @ 2026-07-21T09:25:52.655665+00:00
  0
DICTIONARYVAR
  5
3F
330
2D
100
DictionaryVariables
280
0
  1
1.4.4 @ 2026-07-21T09:25:52.659019+00:00
  0
ENDSEC
  0
EOF
