  0
SECTION
  2
HEADER
  9
$ACADVER
  1
AC1027
  9
$ACADMAINTVER
 70
105
  9
$DWGCODEPAGE
  3
ANSI_1252
  9
$LASTSAVEDBY
  1
ezdxf
  9
$REQUIREDVERSIONS
160
0
  9
$INSBASE
 10
0.0
 20
0.0
 30
0.0
  9
$EXTMIN
 10
1e+20
 20
1e+20
 30
1e+20
  9
$EXTMAX
 10
-1e+20
 20
-1e+20
 30
-1e+20
  9
$LIMMIN
 10
0.0
 20
0.0
  9
$LIMMAX
 10
420.0
 20
297.0
  9
$ORTHOMODE
 70
0
  9
$REGENMODE
 70
1
  9
$FILLMODE
 70
1
  9
$QTEXTMODE
 70
0
  9
$MIRRTEXT
 70
1
  9
$LTSCALE
 40
1.0
  9
$ATTMODE
 70
1
  9
$TEXTSIZE
 40
2.5
  9
$TRACEWID
 40
1.0
  9
$TEXTSTYLE
  7
Standard
  9
$CLAYER
  8
0
  9
$CELTYPE
  6
ByLayer
  9
$CECOLOR
 62
256
  9
$CELTSCALE
 40
1.0
  9
$DISPSILH
 70
0
  9
$DIMSCALE
 40
1.0
  9
$DIMASZ
 40
2.5
  9
$DIMEXO
 40
0.625
  9
$DIMDLI
 40
3.75
  9
$DIMRND
 40
0.0
  9
$DIMDLE
 40
0.0
  9
$DIMEXE
 40
1.25
  9
$DIMTP
 40
0.0
  9
$DIMTM
 40
0.0
  9
$DIMTXT
 40
2.5
  9
$DIMCEN
 40
2.5
  9
$DIMTSZ
 40
0.0
  9
$DIMTOL
 70
0
  9
$DIMLIM
 70
0
  9
$DIMTIH
 70
0
  9
$DIMTOH
 70
0
  9
$DIMSE1
 70
0
  9
$DIMSE2
 70
0
  9
$DIMTAD
 70
1
  9
$DIMZIN
 70
8
  9
$DIMBLK
  1

  9
$DIMASO
 70
1
  9
$DIMSHO
 70
1
  9
$DIMPOST
  1

  9
$DIMAPOST
  1

  9
$DIMALT
 70
0
  9
$DIMALTD
 70
3
  9
$DIMALTF
 40
0.03937007874
  9
$DIMLFAC
 40
1.0
  9
$DIMTOFL
 70
1
  9
$DIMTVP
 40
0.0
  9
$DIMTIX
 70
0
  9
$DIMSOXD
 70
0
  9
$DIMSAH
 70
0
  9
$DIMBLK1
  1

  9
$DIMBLK2
  1

  9
$DIMSTYLE
  2
ISO-25
  9
$DIMCLRD
 70
0
  9
$DIMCLRE
 70
0
  9
$DIMCLRT
 70
0
  9
$DIMTFAC
 40
1.0
  9
$DIMGAP
 40
0.625
  9
$DIMJUST
 70
0
  9
$DIMSD1
 70
0
  9
$DIMSD2
 70
0
  9
$DIMTOLJ
 70
0
  9
$DIMTZIN
 70
8
  9
$DIMALTZ
 70
0
  9
$DIMALTTZ
 70
0
  9
$DIMUPT
 70
0
  9
$DIMDEC
 70
2
  9
$DIMTDEC
 70
2
  9
$DIMALTU
 70
2
  9
$DIMALTTD
 70
3
  9
$DIMTXSTY
  7
Standard
  9
$DIMAUNIT
 70
0
  9
$DIMADEC
 70
0
  9
$DIMALTRND
 40
0.0
  9
$DIMAZIN
 70
0
  9
$DIMDSEP
 70
44
  9
$DIMATFIT
 70
3
  9
$DIMFRAC
 70
0
  9
$DIMLDRBLK
  1

  9
$DIMLUNIT
 70
2
  9
$DIMLWD
 70
-2
  9
$DIMLWE
 70
-2
  9
$DIMTMOVE
 70
0
  9
$DIMFXL
 40
1.0
  9
$DIMFXLON
 70
0
  9
$DIMJOGANG
 40
0.785398163397
  9
$DIMTFILL
 70
0
  9
$DIMTFILLCLR
 70
0
  9
$DIMARCSYM
 70
0
  9
$DIMLTYPE
  6

  9
$DIMLTEX1
  6

  9
$DIMLTEX2
  6

  9
$DIMTXTDIRECTION
 70
0
  9
$LUNITS
 70
2
  9
$LUPREC
 70
4
  9
$SKETCHINC
 40
1.0
  9
$FILLETRAD
 40
10.0
  9
$AUNITS
 70
0
  9
$AUPREC
 70
2
  9
$MENU
  1
.
  9
$ELEVATION
 40
0.0
  9
$PELEVATION
 40
0.0
  9
$THICKNESS
 40
0.0
  9
$LIMCHECK
 70
0
  9
$CHAMFERA
 40
0.0
  9
$CHAMFERB
 40
0.0
  9
$CHAMFERC
 40
0.0
  9
$CHAMFERD
 40
0.0
  9
$SKPOLY
 70
0
  9
$TDCREATE
 40
2461239.6197916665
  9
$TDUCREATE
 40
2458532.153996898
  9
$TDUPDATE
 40
2461239.6197916665
  9
$TDUUPDATE
 40
2458532.1544311
  9
$TDINDWG
 40
0.0
  9
$TDUSRTIMER
 40
0.0
  9
$USRTIMER
 70
1
  9
$ANGBASE
 50
0.0
  9
$ANGDIR
 70
0
  9
$PDMODE
 70
0
  9
$PDSIZE
 40
0.0
  9
$PLINEWID
 40
0.0
  9
$SPLFRAME
 70
0
  9
$SPLINETYPE
 70
6
  9
$SPLINESEGS
 70
8
  9
$HANDSEED
  5
54
  9
$SURFTAB1
 70
6
  9
$SURFTAB2
 70
6
  9
$SURFTYPE
 70
6
  9
$SURFU
 70
6
  9
$SURFV
 70
6
  9
$UCSBASE
  2

  9
$UCSNAME
  2

  9
$UCSORG
 10
0.0
 20
0.0
 30
0.0
  9
$UCSXDIR
 10
1.0
 20
0.0
 30
0.0
  9
$UCSYDIR
 10
0.0
 20
1.0
 30
0.0
  9
$UCSORTHOREF
  2

  9
$UCSORTHOVIEW
 70
0
  9
$UCSORGTOP
 10
0.0
 20
0.0
 30
0.0
  9
$UCSORGBOTTOM
 10
0.0
 20
0.0
 30
0.0
  9
$UCSORGLEFT
 10
0.0
 20
0.0
 30
0.0
  9
$UCSORGRIGHT
 10
0.0
 20
0.0
 30
0.0
  9
$UCSORGFRONT
 10
0.0
 20
0.0
 30
0.0
  9
$UCSORGBACK
 10
0.0
 20
0.0
 30
0.0
  9
$PUCSBASE
  2

  9
$PUCSNAME
  2

  9
$PUCSORG
 10
0.0
 20
0.0
 30
0.0
  9
$PUCSXDIR
 10
1.0
 20
0.0
 30
0.0
  9
$PUCSYDIR
 10
0.0
 20
1.0
 30
0.0
  9
$PUCSORTHOREF
  2

  9
$PUCSORTHOVIEW
 70
0
  9
$PUCSORGTOP
 10
0.0
 20
0.0
 30
0.0
  9
$PUCSORGBOTTOM
 10
0.0
 20
0.0
 30
0.0
  9
$PUCSORGLEFT
 10
0.0
 20
0.0
 30
0.0
  9
$PUCSORGRIGHT
 10
0.0
 20
0.0
 30
0.0
  9
$PUCSORGFRONT
 10
0.0
 20
0.0
 30
0.0
  9
$PUCSORGBACK
 10
0.0
 20
0.0
 30
0.0
  9
$USERI1
 70
0
  9
$USERI2
 70
0
  9
$USERI3
 70
0
  9
$USERI4
 70
0
  9
$USERI5
 70
0
  9
$USERR1
 40
0.0
  9
$USERR2
 40
0.0
  9
$USERR3
 40
0.0
  9
$USERR4
 40
0.0
  9
$USERR5
 40
0.0
  9
$WORLDVIEW
 70
1
  9
$SHADEDGE
 70
3
  9
$SHADEDIF
 70
70
  9
$TILEMODE
 70
1
  9
$MAXACTVP
 70
64
  9
$PINSBASE
 10
0.0
 20
0.0
 30
0.0
  9
$PLIMCHECK
 70
0
  9
$PEXTMIN
 10
1e+20
 20
1e+20
 30
1e+20
  9
$PEXTMAX
 10
-1e+20
 20
-1e+20
 30
-1e+20
  9
$PLIMMIN
 10
0.0
 20
0.0
  9
$PLIMMAX
 10
420.0
 20
297.0
  9
$UNITMODE
 70
0
  9
$VISRETAIN
 70
1
  9
$PLINEGEN
 70
0
  9
$PSLTSCALE
 70
1
  9
$TREEDEPTH
 70
3020
  9
$CMLSTYLE
  2
Standard
  9
$CMLJUST
 70
0
  9
$CMLSCALE
 40
20.0
  9
$PROXYGRAPHICS
 70
1
  9
$MEASUREMENT
 70
1
  9
$CELWEIGHT
370
-1
  9
$ENDCAPS
280
0
  9
$JOINSTYLE
280
0
  9
$LWDISPLAY
290
0
  9
$INSUNITS
 70
4
  9
$HYPERLINKBASE
  1

  9
$STYLESHEET
  1

  9
$XEDIT
290
1
  9
$CEPSNTYPE
380
0
  9
$PSTYLEMODE
290
1
  9
$FINGERPRINTGUID
  2
{C320F2A6-8BE3-435A-B9A1-6F8F293316B0}
  9
$VERSIONGUID
  2
{AF03C161-AAB9-4C24-8A37-483C2DD5A134}
  9
$EXTNAMES
290
1
  9
$PSVPSCALE
 40
0.0
  9
$OLESTARTUP
290
0
  9
$SORTENTS
280
127
  9
$INDEXCTL
280
0
  9
$HIDETEXT
280
1
  9
$XCLIPFRAME
280
1
  9
$HALOGAP
280
0
  9
$OBSCOLOR
 70
257
  9
$OBSLTYPE
280
0
  9
$INTERSECTIONDISPLAY
280
0
  9
$INTERSECTIONCOLOR
 70
257
  9
$DIMASSOC
280
2
  9
$PROJECTNAME
  1

  9
$CAMERADISPLAY
290
0
  9
$LENSLENGTH
 40
50.0
  9
$CAMERAHEIGHT
 40
0.0
  9
$STEPSPERSEC
 40
24.0
  9
$STEPSIZE
 40
100.0
  9
$3DDWFPREC
 40
2.0
  9
$PSOLWIDTH
 40
0.005
  9
$PSOLHEIGHT
 40
0.08
  9
$LOFTANG1
 40
1.570796326795
  9
$LOFTANG2
 40
1.570796326795
  9
$LOFTMAG1
 40
0.0
  9
$LOFTMAG2
 40
0.0
  9
$LOFTPARAM
 70
7
  9
$LOFTNORMALS
280
1
  9
$LATITUDE
 40
37.795
  9
$LONGITUDE
 40
-122.394
  9
$NORTHDIRECTION
 40
0.0
  9
$TIMEZONE
 70
-8000
  9
$LIGHTGLYPHDISPLAY
280
1
  9
$TILEMODELIGHTSYNCH
280
1
  9
$CMATERIAL
347
20
  9
$SOLIDHIST
280
0
  9
$SHOWHIST
280
1
  9
$DWFFRAME
280
2
  9
$DGNFRAME
280
2
  9
$REALWORLDSCALE
290
1
  9
$INTERFERECOLOR
 62
256
  9
$CSHADOW
280
0
  9
$SHADOWPLANELOCATION
 40
0.0
  0
ENDSEC
  0
SECTION
  2
CLASSES
  0
CLASS
  1
ACDBDICTIONARYWDFLT
  2
AcDbDictionaryWithDefault
  3
ObjectDBX Classes
 90
0
 91
0
280
0
281
0
  0
CLASS
  1
SUN
  2
AcDbSun
  3
SCENEOE
 90
1153
 91
0
280
0
281
0
  0
CLASS
  1
VISUALSTYLE
  2
AcDbVisualStyle
  3
ObjectDBX Classes
 90
4095
 91
0
280
0
281
0
  0
CLASS
  1
MATERIAL
  2
AcDbMaterial
  3
ObjectDBX Classes
 90
1153
 91
0
280
0
281
0
  0
CLASS
  1
SCALE
  2
AcDbScale
  3
ObjectDBX Classes
 90
1153
 91
0
280
0
281
0
  0
CLASS
  1
TABLESTYLE
  2
AcDbTableStyle
  3
ObjectDBX Classes
 90
4095
 91
0
280
0
281
0
  0
CLASS
  1
MLEADERSTYLE
  2
AcDbMLeaderStyle
  3
ACDB_MLEADERSTYLE_CLASS
 90
4095
 91
0
280
0
281
0
  0
CLASS
  1
DICTIONARYVAR
  2
AcDbDictionaryVar
  3
ObjectDBX Classes
 90
0
 91
0
280
0
281
0
  0
CLASS
  1
CELLSTYLEMAP
  2
AcDbCellStyleMap
  3
ObjectDBX Classes
 90
1152
 91
0
280
0
281
0
  0
CLASS
  1
MENTALRAYRENDERSETTINGS
  2
AcDbMentalRayRenderSettings
  3
SCENEOE
 90
1024
 91
0
280
0
281
0
  0
CLASS
  1
ACDBDETAILVIEWSTYLE
  2
AcDbDetailViewStyle
  3
ObjectDBX Classes
 90
1025
 91
0
280
0
281
0
  0
CLASS
  1
ACDBSECTIONVIEWSTYLE
  2
AcDbSectionViewStyle
  3
ObjectDBX Classes
 90
1025
 91
0
280
0
281
0
  0
CLASS
  1
RASTERVARIABLES
  2
AcDbRasterVariables
  3
ISM
 90
0
 91
0
280
0
281
0
  0
CLASS
  1
ACDBPLACEHOLDER
  2
AcDbPlaceHolder
  3
ObjectDBX Classes
 90
0
 91
0
280
0
281
0
  0
CLASS
  1
LAYOUT
  2
AcDbLayout
  3
ObjectDBX Classes
 90
0
 91
0
280
0
281
0
  0
ENDSEC
  0
SECTION
  2
TABLES
  0
TABLE
  2
VPORT
  5
8
330
0
100
AcDbSymbolTable
 70
1
  0
VPORT
  5
23
330
8
100
AcDbSymbolTableRecord
100
AcDbViewportTableRecord
  2
*Active
 70
0
 10
0.0
 20
0.0
 11
1.0
 21
1.0
 12
0.0
 22
0.0
 13
0.0
 23
0.0
 14
0.5
 24
0.5
 15
0.5
 25
0.5
 16
0.0
 26
0.0
 36
1.0
 17
0.0
 27
0.0
 37
0.0
 40
1000.0
 41
1.34
 42
50.0
 43
0.0
 44
0.0
 50
0.0
 51
0.0
 71
0
 72
1000
 73
1
 74
3
 75
0
 76
0
 77
0
 78
0
281
0
 65
0
146
0.0
  0
ENDTAB
  0
TABLE
  2
LTYPE
  5
2
330
0
100
AcDbSymbolTable
 70
3
  0
LTYPE
  5
24
330
2
100
AcDbSymbolTableRecord
100
AcDbLinetypeTableRecord
  2
ByBlock
 70
0
  3

 72
65
 73
0
 40
0.0
  0
LTYPE
  5
25
330
2
100
AcDbSymbolTableRecord
100
AcDbLinetypeTableRecord
  2
ByLayer
 70
0
  3

 72
65
 73
0
 40
0.0
  0
LTYPE
  5
26
330
2
100
AcDbSymbolTableRecord
100
AcDbLinetypeTableRecord
  2
Continuous
 70
0
  3

 72
65
 73
0
 40
0.0
  0
ENDTAB
  0
TABLE
  2
LAYER
  5
1
330
0
100
AcDbSymbolTable
 70
3
  0
LAYER
  5
27
330
1
100
AcDbSymbolTableRecord
100
AcDbLayerTableRecord
  2
0
 70
0
 62
7
  6
Continuous
370
-3
390
13
347
21
  0
LAYER
  5
28
330
1
100
AcDbSymbolTableRecord
100
AcDbLayerTableRecord
  2
Defpoints
 70
0
 62
7
  6
Continuous
290
0
370
-3
390
13
347
21
  0
LAYER
  5
2F
330
1
100
AcDbSymbolTableRecord
100
AcDbLayerTableRecord
  2
K
 70
0
 62
7
  6
Continuous
370
-3
390
13
347
21
  0
ENDTAB
  0
TABLE
  2
STYLE
  5
5
330
0
100
AcDbSymbolTable
 70
1
  0
STYLE
  5
29
330
5
100
AcDbSymbolTableRecord
100
AcDbTextStyleTableRecord
  2
Standard
 70
0
 40
0.0
 41
1.0
 50
0.0
 71
0
 42
2.5
  3
txt
  4

  0
ENDTAB
  0
TABLE
  2
VIEW
  5
7
330
0
100
AcDbSymbolTable
 70
0
  0
ENDTAB
  0
TABLE
  2
UCS
  5
6
330
0
100
AcDbSymbolTable
 70
0
  0
ENDTAB
  0
TABLE
  2
APPID
  5
3
330
0
100
AcDbSymbolTable
 70
3
  0
APPID
  5
2A
330
3
100
AcDbSymbolTableRecord
100
AcDbRegAppTableRecord
  2
ACAD
 70
0
  0
APPID
  5
51
330
3
100
AcDbSymbolTableRecord
100
AcDbRegAppTableRecord
  2
HATCHBACKGROUNDCOLOR
 70
0
  0
APPID
  5
52
330
3
100
AcDbSymbolTableRecord
100
AcDbRegAppTableRecord
  2
EZDXF
 70
0
  0
ENDTAB
  0
TABLE
  2
DIMSTYLE
  5
4
330
0
100
AcDbSymbolTable
 70
1
100
AcDbDimStyleTable
  0
DIMSTYLE
105
2B
330
4
100
AcDbSymbolTableRecord
100
AcDbDimStyleTableRecord
  2
Standard
 70
0
 40
1.0
 41
2.5
 42
0.625
 43
3.75
 44
1.25
 45
0.0
 46
0.0
 47
0.0
 48
0.0
 49
2.5
140
2.5
141
2.5
142
0.0
143
0.03937007874
144
1.0
145
0.0
146
1.0
147
0.625
148
0.0
 69
0
 70
0
 71
0
 72
0
 73
0
 74
0
 75
0
 76
0
 77
1
 78
8
 79
3
170
0
171
3
172
1
173
0
174
0
175
0
176
0
177
0
178
0
179
2
271
2
272
2
273
2
274
3
275
0
276
0
277
2
278
44
279
0
280
0
281
0
282
0
283
0
284
8
285
0
286
0
288
0
289
3
290
0
371
-2
372
-2
  0
ENDTAB
  0
TABLE
  2
BLOCK_RECORD
  5
9
330
0
100
AcDbSymbolTable
 70
2
  0
BLOCK_RECORD
  5
17
330
9
100
AcDbSymbolTableRecord
100
AcDbBlockTableRecord
  2
*Model_Space
340
1A
 70
0
280
1
281
0
  0
BLOCK_RECORD
  5
1B
330
9
100
AcDbSymbolTableRecord
100
AcDbBlockTableRecord
  2
*Paper_Space
340
1E
 70
0
280
1
281
0
  0
ENDTAB
  0
ENDSEC
  0
SECTION
  2
BLOCKS
  0
BLOCK
  5
18
330
17
100
AcDbEntity
  8
0
100
AcDbBlockBegin
  2
*Model_Space
 70
0
 10
0.0
 20
0.0
 30
0.0
  3
*Model_Space
  1

  0
ENDBLK
  5
19
330
17
100
AcDbEntity
  8
0
100
AcDbBlockEnd
  0
BLOCK
  5
1C
330
1B
100
AcDbEntity
  8
0
100
AcDbBlockBegin
  2
*Paper_Space
 70
0
 10
0.0
 20
0.0
 30
0.0
  3
*Paper_Space
  1

  0
ENDBLK
  5
1D
330
1B
100
AcDbEntity
  8
0
100
AcDbBlockEnd
  0
ENDSEC
  0
SECTION
  2
ENTITIES
  0
LWPOLYLINE
  5
30
330
17
100
AcDbEntity
  8
K
100
AcDbPolyline
 90
62
 70
1
 10
175.86497963380876
 20
38.354299023421575
 10
169.19831296714204
 20
41.092394261516816
 10
165.87713409839566
 20
46.548616688742996
 10
162.54380076506237
 20
46.548616688742996
 10
159.19831296714204
 20
52.04477521389775
 10
152.53164630047544
 20
54.782870451992984
 10
149.19831296714204
 20
60.25906092818348
 10
142.53687159874363
 20
62.99501006163277
 10
134.21709844043528
 20
73.92956906969533
 10
130.87713409839563
 20
73.92956906969533
 10
128.3333333333334
 20
78.10867032658336
 10
128.3333333333334
 20
89.06105127896436
 10
126.66907121355587
 20
91.79519619002747
 10
125.00240454688915
 20
110.9618628566941
 10
119.20041952308058
 20
120.49369539580815
 10
110.87543690884726
 20
123.22904682619898
 10
104.97696613948004
 20
130.15072170861987
 10
112.54380076506231
 20
142.58195002207623
 10
115.87713409839573
 20
142.58195002207623
 10
119.21046743172892
 20
148.05814049826674
 10
124.21046743172903
 20
148.05814049826674
 10
129.19516190029333
 20
156.2472814109082
 10
134.19996983031734
 20
158.98800956306417
 10
142.53330316365066
 20
169.9403905154451
 10
147.52849523362664
 20
172.67585283947963
 10
150.87713409839566
 20
178.17718811731433
 10
155.87713409839566
 20
178.17718811731433
 10
160.87713409839566
 20
186.39147383160008
 10
164.2170984404353
 20
186.39147383160008
 10
172.56693274219913
 20
197.36554177106117
 10
179.32824454227836
 20
194.5885744246
 10
185.98096386413343
 20
186.39147383160008
 10
189.31283422039292
 20
186.39147383160008
 10
200.97950088705963
 20
172.70099764112393
 10
204.3228659016043
 20
172.70099764112393
 10
209.32286590160442
 20
164.4867119268382
 10
214.31429719746697
 20
164.4867119268382
 10
220.98096386413357
 20
156.27242621255246
 10
225.98096386413346
 20
156.27242621255246
 10
232.64763053080006
 20
148.05814049826674
 10
237.6358058341912
 20
148.05814049826674
 10
244.3415474139863
 20
142.54985277200652
 10
262.6694850768549
 20
115.17695885993032
 10
267.6652644177873
 20
112.44117493513397
 10
274.34614565873727
 20
104.20937483467755
 10
295.98458300745966
 20
74.12956906969531
 10
299.32286590160453
 20
74.12956906969531
 10
300.989532568271
 20
71.39147383160011
 10
310.9895325682712
 20
71.39147383160011
 10
312.65619923493773
 20
68.6533785935049
 10
337.6561992349376
 20
68.6533785935049
 10
339.32286590160453
 20
65.91528335540964
 10
350.98953256827104
 20
65.91528335540964
 10
352.65619923493773
 20
63.17718811731437
 10
364.3228659016045
 20
63.17718811731437
 10
365.98953256827093
 20
60.43909287921917
 10
389.32286590160436
 20
60.43909287921917
 10
391.86666666666656
 20
56.259991622331306
 10
391.86666666666656
 20
37.03724175515466
 10
389.3226433665382
 20
32.8577749049436
 10
178.37691237393926
 20
34.22755237892153
 10
175.86497963380876
 20
38.354299023421575
  0
LWPOLYLINE
  5
31
330
17
100
AcDbEntity
  8
K
100
AcDbPolyline
 90
51
 70
1
 10
81.66666666666677
 20
480.60867032658336
 10
81.66666666666677
 20
502.51343223134535
 10
79.21046743172899
 20
506.548616688743
 10
4.196727908761244
 20
506.548616688743
 10
1.6562280559611064
 20
513.5047472380766
 10
5.0000000000001155
 20
518.9980868604262
 10
5.0000000000001155
 20
529.966545380901
 10
12.622280206273873
 20
536.9233884263097
 10
15.933333333333355
 20
531.4838011461404
 10
19.21046743172905
 20
536.8676643077905
 10
24.230860832475386
 20
536.8676643077905
 10
30.897527499142097
 20
542.343854783981
 10
47.54380076506237
 20
542.343854783981
 10
49.210467431728965
 20
545.0819500220763
 10
57.54380076506238
 20
545.0819500220763
 10
59.21046743172897
 20
547.8200452601715
 10
65.87713409839569
 20
547.8200452601715
 10
67.54380076506239
 20
550.5581404982667
 10
74.21046743172899
 20
550.5581404982667
 10
76.66666666666666
 20
554.5933249556642
 10
76.66666666666666
 20
584.6562893742024
 10
75.00000000000007
 20
587.3943846122978
 10
75.00000000000007
 20
603.8790392413786
 10
77.5438007650624
 20
608.0581404982667
 10
94.210467431729
 20
608.0581404982667
 10
95.87713409839571
 20
610.7962357363618
 10
104.21046743172901
 20
610.7962357363618
 10
105.87713409839571
 20
613.5343309744572
 10
115.87713409839573
 20
613.5343309744572
 10
117.54380076506233
 20
616.2724262125524
 10
135.87713409839563
 20
616.2724262125524
 10
137.54380076506234
 20
619.0105214506476
 10
142.6561992349378
 20
619.0105214506476
 10
145.2
 20
614.8314201937594
 10
145.2
 20
609.355229717569
 10
148.53333333333342
 20
603.8790392413786
 10
148.53333333333342
 20
573.759991622331
 10
150.2
 20
571.0218963842357
 10
150.2
 20
559.9996304228835
 10
141.8666666666667
 20
551.7853447085978
 10
141.8666666666667
 20
527.2123725747118
 10
144.28021307299443
 20
523.2472606214592
 10
155.88716577960705
 20
536.8676643077905
 10
164.3128342203931
 20
536.8676643077905
 10
170.20226507465907
 20
529.9565974890089
 10
168.531941115613
 20
502.51556101896523
 10
161.8666666666667
 20
488.82794384702197
 10
161.8666666666667
 20
483.3467655646787
 10
157.655564544829
 20
476.4285263645168
 10
83.37650595794011
 20
477.7996486337771
 10
81.66666666666677
 20
480.60867032658336
  0
LWPOLYLINE
  5
32
330
17
100
AcDbEntity
  8
K
100
AcDbPolyline
 90
17
 70
1
 10
98.33333333333339
 20
223.28380114614058
 10
100.00000000000009
 20
226.0218963842359
 10
100.00000000000009
 20
258.8790392413787
 10
102.54380076506231
 20
263.0581404982667
 10
124.32286590160446
 20
263.0581404982667
 10
126.86666666666669
 20
258.8790392413787
 10
126.86666666666669
 20
253.4049850601765
 10
146.8779453693838
 20
223.26895225191794
 10
144.33660542457216
 20
216.31052145064768
 10
135.96324978195395
 20
216.31052145064768
 10
127.62991644862065
 20
210.8343309744573
 10
122.65619923493776
 20
210.8343309744573
 10
120.98953256827104
 20
208.09623573636196
 10
110.9691391675246
 20
208.09623573636196
 10
104.27132861889365
 20
202.59446278570084
 10
98.33333333333339
 20
206.7752962010442
 10
98.33333333333339
 20
223.28380114614058
  0
LWPOLYLINE
  5
33
330
17
100
AcDbEntity
  8
K
100
AcDbPolyline
 90
25
 70
1
 10
119.21046743172892
 20
665.3581404982667
 10
110.87713409839562
 20
665.3581404982667
 10
107.57446912143864
 20
670.7839472461246
 10
104.302472500858
 20
668.0962357363619
 10
90.8771340983956
 20
668.0962357363619
 10
89.210467431729
 20
670.8343309744572
 10
80.87713409839559
 20
670.8343309744572
 10
78.3162645331783
 20
675.0414738316001
 10
80.002797823444
 20
677.8122070941793
 10
81.6694644901107
 20
694.2407785227507
 10
85.00000000000007
 20
699.7123725747118
 10
85.00000000000007
 20
707.9266582889976
 10
86.67001099746352
 20
710.6702477848306
 10
88.33667766413022
 20
724.3607239753068
 10
90.87055732603588
 20
728.523526277009
 10
104.2223128305515
 20
731.2654046395434
 10
110.89752749914206
 20
736.7486166887429
 10
120.90341688471273
 20
736.7486166887429
 10
129.23675021804604
 20
742.2248071649333
 10
139.32286590160436
 20
742.2248071649333
 10
145.2
 20
732.5695154318548
 10
145.2
 20
664.0610512789644
 10
142.65173545722942
 20
659.8746166729841
 10
120.87297529989904
 20
662.6268775719873
 10
119.21046743172892
 20
665.3581404982667
  0
LWPOLYLINE
  5
34
330
17
100
AcDbEntity
  8
K
100
AcDbPolyline
 90
35
 70
1
 10
5.88083221493696
 20
758.4533785935048
 10
2.5438007650623318
 20
758.4533785935048
 10
0.0
 20
762.632479850393
 10
0.0
 20
768.1647535270928
 10
2.5234073643159993
 20
772.3103513398976
 10
12.564194165808784
 20
780.5581404982667
 10
17.55589207389219
 20
780.5581404982667
 10
22.555892073892192
 20
786.0343309744571
 10
29.230860832475503
 20
786.0343309744571
 10
39.230860832475514
 20
794.2486166887429
 10
45.89752749914211
 20
794.2486166887429
 10
55.89752749914212
 20
802.4629024030286
 10
60.89752749914212
 20
802.4629024030286
 10
74.19286926804192
 20
813.3840759989106
 10
85.88169768062815
 20
829.8438547839808
 10
89.32286590160443
 20
829.8438547839808
 10
92.65619923493773
 20
824.3676643077904
 10
97.63580583419129
 20
824.3676643077904
 10
104.3389218951154
 20
818.8615332577456
 10
120.21282849985471
 20
798.2731957440801
 10
117.68257738189014
 20
791.3451272067961
 10
109.34038775914901
 20
785.8631168832806
 10
105.98953256827114
 20
780.3581404982667
 10
100.98953256827103
 20
780.3581404982667
 10
96.00168703285806
 20
772.1638228329452
 10
89.33502036619134
 20
769.4257275948501
 10
85.98953256827113
 20
763.9295690696953
 10
82.65619923493772
 20
763.9295690696953
 10
79.32286590160442
 20
758.4533785935048
 10
75.98953256827113
 20
758.4533785935048
 10
71.86666666666675
 20
751.680098898012
 10
71.86666666666675
 20
740.7277179456311
 10
69.32190604798794
 20
736.547039786373
 10
20.046497896214376
 20
737.9191153160228
 10
5.88083221493696
 20
758.4533785935048
  0
LWPOLYLINE
  5
35
330
17
100
AcDbEntity
  8
K
100
AcDbPolyline
 90
20
 70
1
 10
10.000000000000009
 20
373.82295604086914
 10
10.000000000000009
 20
379.312307680738
 10
6.659093377989533
 20
390.2895722959153
 10
16.667374688920322
 20
409.4721114751995
 10
18.334142674221066
 20
466.97560696807517
 10
20.87891484112292
 20
471.1563040994138
 10
74.33366967149236
 20
468.41197516839037
 10
78.53084205112482
 20
458.75847869523557
 10
81.86406332440166
 20
431.37844680760475
 10
91.86787638959981
 20
409.4653324743138
 10
90.19798410043278
 20
379.2879932486536
 10
84.31283422039304
 20
372.3819500220763
 10
62.6561992349377
 20
372.3819500220763
 10
60.98953256827111
 20
369.643854783981
 10
50.9895325682711
 20
369.643854783981
 10
49.322865901604395
 20
366.90575954588576
 10
39.3228659016045
 20
366.90575954588576
 10
37.654083565213604
 20
364.1641885646724
 10
15.041756160539377
 20
365.5400709199832
 10
10.000000000000009
 20
373.82295604086914
  0
LWPOLYLINE
  5
36
330
17
100
AcDbEntity
  8
K
100
AcDbPolyline
 90
134
 70
1
 10
663.3350130400951
 20
434.065436613397
 10
661.667949894312
 20
453.2366627899035
 10
658.3333333333335
 20
464.19326006169035
 10
658.3333333333335
 20
469.65628937420246
 10
655.0
 20
475.132479850393
 10
655.0
 20
480.66721958327173
 10
672.5467522860607
 20
506.7486166887429
 10
679.3107745927746
 20
506.7486166887429
 10
684.2505902961473
 20
501.3383423469537
 10
685.8771340983957
 20
504.0105214506476
 10
690.9895325682711
 20
504.0105214506476
 10
692.6561992349378
 20
501.27242621255243
 10
700.8633945754281
 20
501.27242621255243
 10
703.3261815224693
 20
508.0157714246893
 10
700.0000000000001
 20
516.2124330336313
 10
700.0000000000001
 20
524.4313552997855
 10
696.6666666666667
 20
535.3837362521665
 10
696.6666666666667
 20
540.9028487651881
 10
698.3162645331784
 20
543.6129024030287
 10
694.2153145621305
 20
550.3501773554643
 10
674.2153145621305
 20
547.6120821173691
 10
671.6666666666667
 20
551.7991465170596
 10
671.6666666666667
 20
584.6562893742024
 10
669.210467431729
 20
588.6914738316
 10
634.2104674317291
 20
588.6914738316
 10
632.5438007650623
 20
591.4295690696953
 10
622.5438007650623
 20
591.4295690696953
 10
619.9829311998451
 20
595.6367119268381
 10
624.2104674317291
 20
602.5819500220763
 10
627.5530437427274
 20
602.5819500220763
 10
639.9823423234841
 20
617.556295455083
 10
634.2003964274794
 20
629.7691811741951
 10
607.5403955139216
 20
632.5065919822837
 10
605.8771340983957
 20
635.2390928792191
 10
574.210467431729
 20
635.2390928792191
 10
572.5438007650623
 20
637.9771881173143
 10
559.210467431729
 20
637.9771881173143
 10
557.5438007650624
 20
640.7152833554096
 10
552.5438007650624
 20
640.7152833554096
 10
550.0
 20
644.8943846122977
 10
550.0
 20
661.3790392413786
 10
551.6666666666667
 20
664.1171344794739
 10
551.6666666666667
 20
669.5933249556642
 10
554.210467431729
 20
673.7724262125524
 10
559.210467431729
 20
673.7724262125524
 10
560.8771340983957
 20
676.5105214506476
 10
577.5438007650623
 20
676.5105214506476
 10
579.210467431729
 20
679.2486166887429
 10
585.8771340983957
 20
679.2486166887429
 10
587.5389234764225
 20
681.9786992383583
 10
605.8722568097559
 20
684.7167944764535
 10
609.2104674317291
 20
690.2009976411239
 10
657.5472789530676
 20
690.2009976411239
 10
672.5472789530676
 20
712.1057595458857
 10
675.8771340983957
 20
712.1057595458857
 10
684.1886859447081
 20
725.7604518648276
 10
691.6292638030731
 20
732.5514554657165
 10
659.1785498728511
 20
772.1936279775443
 10
656.6562280559612
 20
779.0999853333147
 10
659.210467431729
 20
783.2962357363618
 10
667.6561992349378
 20
783.2962357363618
 10
670.9895325682711
 20
777.8200452601715
 10
674.210467431729
 20
777.8200452601715
 10
677.5438007650623
 20
783.2962357363618
 10
682.5438007650624
 20
783.2962357363618
 10
684.2411357881053
 20
786.0847147027897
 10
690.9234741616394
 20
780.5956510388153
 10
695.8892254072256
 20
786.0343309744571
 10
700.9895325682711
 20
786.0343309744571
 10
702.6561992349377
 20
783.2962357363618
 10
705.8771340983957
 20
783.2962357363618
 10
707.5438007650623
 20
786.0343309744571
 10
740.9895325682712
 20
786.0343309744571
 10
742.6561992349376
 20
783.2962357363618
 10
770.9632497819539
 20
783.2962357363618
 10
779.2965831152874
 20
777.8200452601715
 10
789.3228659016045
 20
777.8200452601715
 10
790.989532568271
 20
775.0819500220763
 10
797.6561992349378
 20
775.0819500220763
 10
799.3329138102528
 20
772.3273475054873
 10
807.6662471435862
 20
769.589252267392
 10
810.2170688001551
 20
765.3986166887429
 10
799.3364247705168
 20
747.523272925766
 10
787.6604623236967
 20
742.0427191241973
 10
782.644107926108
 20
736.548616688743
 10
775.9774412594411
 20
736.548616688743
 10
770.9774412594412
 20
731.0724262125524
 10
764.3107745927745
 20
731.0724262125524
 10
759.3209962123768
 20
725.6074308435454
 10
749.320996212377
 20
722.8693356054501
 10
744.3107745927744
 20
717.3819500220762
 10
740.9691391675249
 20
717.3819500220762
 10
734.3432593023507
 20
711.9392629899692
 10
731.8771052773723
 20
707.8877242346473
 10
734.3547313931582
 20
701.1037479652331
 10
753.5557046822863
 20
677.7882803998633
 10
751.8666666666667
 20
675.0134322313454
 10
751.8666666666667
 20
664.0610512789644
 10
748.5333333333335
 20
658.5848608027738
 10
748.5333333333335
 20
644.9075457759761
 10
746.8575132518929
 20
639.4012797940998
 10
735.9845830074594
 20
624.2867119268382
 10
730.9895325682711
 20
624.2867119268382
 10
727.6561992349377
 20
618.8105214506477
 10
724.3228659016045
 20
618.8105214506477
 10
720.9895325682711
 20
613.3343309744572
 10
717.6561992349377
 20
613.3343309744572
 10
715.2
 20
609.2991465170596
 10
715.2
 20
606.6133323001674
 10
733.5479189805532
 20
570.9897753184443
 10
730.2170688001551
 20
565.5176643077905
 10
731.8782461491327
 20
562.7885872344702
 10
728.5449128157993
 20
554.5743015201845
 10
730.1999999999999
 20
551.855229717569
 10
730.1999999999999
 20
518.9980868604262
 10
731.8666666666667
 20
516.259991622331
 10
731.8666666666667
 20
497.10075668800266
 10
738.5554254838893
 20
488.8592502882108
 10
736.8666666666668
 20
486.0848608027739
 10
736.8666666666668
 20
477.8705750884882
 10
733.5333333333334
 20
472.39438461229776
 10
733.5333333333334
 20
461.45516482359506
 10
731.858655523558
 20
455.952652020048
 10
727.6561992349377
 20
449.048616688743
 10
722.6358058341913
 20
449.048616688743
 10
715.9691391675245
 20
443.57242621255244
 10
709.3107745927746
 20
443.57242621255244
 10
704.3107745927746
 20
438.096235736362
 10
697.6441079261078
 20
438.096235736362
 10
692.652979886045
 20
432.629762168674
 10
680.9863132193783
 20
429.89166693057877
 10
675.9712571464837
 20
424.39898646978935
 10
666.6954610279455
 20
425.7843326433374
 10
663.3350130400951
 20
434.065436613397
  0
LWPOLYLINE
  5
37
330
17
100
AcDbEntity
  8
K
100
AcDbPolyline
 90
17
 70
1
 10
704.2059778158512
 20
282.03218296244694
 10
684.2059778158512
 20
284.7702782005421
 10
679.9912911809329
 20
291.69440624362244
 10
681.6666666666667
 20
297.19921141103356
 10
681.6666666666667
 20
319.11713447947375
 10
684.210467431729
 20
323.2962357363619
 10
697.5438007650623
 20
323.2962357363619
 10
699.210467431729
 20
326.03433097445725
 10
745.9895325682711
 20
326.03433097445725
 10
748.5333333333335
 20
321.8552297175691
 10
748.5333333333335
 20
316.37903924137856
 10
753.5526178412902
 20
308.1330718354496
 10
740.1877532202934
 20
288.92107894276677
 10
736.0154306784501
 20
279.32473709652703
 10
732.6312584673005
 20
276.544881351654
 10
705.8737288472549
 20
279.2923062679981
 10
704.2059778158512
 20
282.03218296244694
  0
LWPOLYLINE
  5
38
330
17
100
AcDbEntity
  8
K
100
AcDbPolyline
 90
64
 70
1
 10
538.3333333333335
 20
26.08486080277389
 10
538.3333333333335
 20
48.002783871214206
 10
536.6562995123463
 20
53.51303785445763
 10
545.8830908512188
 20
65.91528335540964
 10
549.210467431729
 20
65.91528335540964
 10
551.6746778097754
 20
69.96362897648578
 10
558.341344476442
 20
91.8683908812477
 10
564.9860190757679
 20
102.78464200871187
 10
550.9240981776612
 20
131.32206971369334
 10
549.3329138102528
 20
128.70798111009387
 10
532.6662471435861
 20
123.23179063390336
 10
530.9895325682711
 20
120.47718811731437
 10
524.3107745927746
 20
120.47718811731437
 10
519.3107745927747
 20
115.00099764112396
 10
512.644107926108
 20
115.00099764112396
 10
507.64410792610795
 20
109.52480716493343
 10
499.30766722623434
 20
109.52480716493343
 10
490.9743338929009
 20
101.3105214506477
 10
484.210467431729
 20
101.3105214506477
 10
480.0041546420908
 20
108.22089246219626
 10
478.3359744566948
 20
119.18321939479785
 10
473.31939550189907
 20
132.919090342453
 10
479.21185157609347
 20
139.83370716421175
 10
490.87721971442454
 20
142.5714976456567
 10
497.5523694691998
 20
150.79623573636195
 10
504.2225587405589
 20
150.79623573636195
 10
509.2225587405589
 20
156.27242621255246
 10
512.5438007650623
 20
156.27242621255246
 10
515.8771340983957
 20
161.74861668874289
 10
520.8771340983957
 20
161.74861668874289
 10
524.210467431729
 20
167.2248071649334
 10
527.5438007650623
 20
167.2248071649334
 10
532.523407364316
 20
175.40558943513565
 10
542.5264425570789
 20
183.6223683434768
 10
564.2154169925406
 20
213.77242621255246
 10
565.8771340983957
 20
213.77242621255246
 10
573.3432937797081
 20
226.03825997470875
 10
579.1801852134201
 20
241.10696949235302
 10
584.2225587405588
 20
246.62956906969526
 10
594.3228659016045
 20
246.62956906969526
 10
598.5333333333334
 20
239.71237257471205
 10
598.5333333333334
 20
212.27533699325
 10
596.8837354668217
 20
209.5652833554096
 10
598.5333333333334
 20
206.85522971756922
 10
598.5333333333334
 20
201.32295604086906
 10
596.8837354668217
 20
198.61290240302867
 10
598.5333333333334
 20
195.90284876518828
 10
598.5333333333334
 20
182.21237257471205
 10
600.1983091154475
 20
179.4770552183818
 10
601.8658895359482
 20
152.08109116729733
 10
606.8666666666667
 20
132.91144549954328
 10
606.8666666666667
 20
127.45046781280725
 10
610.2170688001552
 20
121.94623573636201
 10
608.5485116997277
 20
119.20503478565983
 10
621.0142867343236
 20
95.99494888791207
 10
625.2132798300016
 20
91.8559414078865
 10
623.5420421524007
 20
86.36473189576832
 10
625.1999999999999
 20
83.64094400328354
 10
625.1999999999999
 20
56.253696629310014
 10
630.1963153131039
 20
45.309386895844405
 10
633.5382938615895
 20
26.09301024205188
 10
630.989014815577
 20
21.904908952174313
 10
540.0432873791963
 20
23.275650584570595
 10
538.3333333333335
 20
26.08486080277389
  0
LWPOLYLINE
  5
39
330
17
100
AcDbEntity
  8
K
100
AcDbPolyline
 90
75
 70
1
 10
524.988420517534
 20
472.4314443773274
 10
526.6536784386263
 20
475.1672252476932
 10
521.6536784386263
 20
486.1196062000741
 10
523.3217538508675
 20
488.8600158058988
 10
519.9822143776344
 20
497.08959522207994
 10
524.2864159786649
 20
501.3323082288101
 10
526.8837354668218
 20
497.0652833554096
 10
525.2170688001551
 20
494.32718811731434
 10
527.6561992349377
 20
490.32004526017147
 10
530.8892254072255
 20
490.32004526017147
 10
535.9494097038529
 20
495.86215187076334
 10
539.2666666666667
 20
490.4123725747119
 10
543.3162645331784
 20
497.0652833554096
 10
540.9333333333334
 20
500.980098898012
 10
537.6
 20
495.50390842182156
 10
534.982931199845
 20
499.80337859350476
 10
536.6452602638265
 20
502.53434777004577
 10
529.2179442156536
 20
512.0248071649333
 10
522.5438007650623
 20
512.0248071649333
 10
519.982931199845
 20
516.2319500220763
 10
522.5438007650623
 20
520.4390928792191
 10
534.2225587405588
 20
520.4390928792191
 10
539.2114992722001
 20
525.90317060435
 10
557.5448326055334
 20
531.3793610805404
 10
562.5558920738921
 20
536.8676643077905
 10
569.2308608324754
 20
536.8676643077905
 10
575.8975274991421
 20
542.343854783981
 10
587.5438007650623
 20
542.343854783981
 10
589.982931199845
 20
546.3509976411239
 10
587.5438007650623
 20
550.3581404982667
 10
562.5438007650623
 20
550.3581404982667
 10
560.8771340983957
 20
553.0962357363619
 10
554.210467431729
 20
553.0962357363619
 10
551.6746778097753
 20
557.2621758295717
 10
549.9912911809328
 20
562.7933033243396
 10
551.6666666666667
 20
565.5457059080452
 10
551.6666666666667
 20
570.9658131837263
 10
550.0
 20
573.7039084218216
 10
550.0
 20
598.3896876015098
 10
551.6579578475995
 20
603.8372633864794
 10
550.0
 20
606.5610512789644
 10
550.0
 20
614.8314201937594
 10
552.5721664622149
 20
619.0571222388268
 10
574.3002921393787
 20
602.5819500220763
 10
577.638774045321
 20
602.5819500220763
 10
592.638774045321
 20
588.8914738316
 10
597.6487224510132
 20
588.8914738316
 10
605.2
 20
579.2426191856724
 10
605.2
 20
573.7039084218216
 10
603.5333333333334
 20
570.9658131837263
 10
603.5333333333334
 20
551.7991465170596
 10
600.2265866881958
 20
546.3666341714761
 10
608.5333333333334
 20
538.1785553355547
 10
608.5333333333334
 20
532.6885630509024
 10
611.8666666666667
 20
527.2123725747118
 10
611.8666666666667
 20
521.7361820985215
 10
613.5333333333334
 20
518.9980868604262
 10
613.5333333333334
 20
508.0457059080452
 10
615.2087088190672
 20
505.29330332433966
 10
613.5393154942066
 20
499.8081538283691
 10
616.8782461491327
 20
491.5800747144442
 10
612.6561992349377
 20
484.643854783981
 10
609.314297197467
 20
484.643854783981
 10
595.9641222711393
 20
468.19453210689886
 10
589.1983129671421
 20
470.97334664246915
 10
584.210467431729
 20
479.1676643077906
 10
579.210467431729
 20
479.1676643077906
 10
575.9172569628139
 20
484.57793864957966
 10
565.9863132193783
 20
473.7011907401025
 10
554.3303028730376
 20
470.96559647514505
 10
552.6561992349378
 20
468.2152833554096
 10
545.9895325682711
 20
468.2152833554096
 10
544.3257483447873
 20
465.4819235596863
 10
528.3684221056245
 20
464.1021547495332
 10
524.988420517534
 20
472.4314443773274
  0
LWPOLYLINE
  5
3A
330
17
100
AcDbEntity
  8
K
100
AcDbPolyline
 90
23
 70
1
 10
1300.0460885115865
 20
617.4377153908816
 10
1298.3333333333333
 20
620.2515274694406
 10
1298.3333333333333
 20
628.5133717724259
 10
1301.6695766795174
 20
636.7348285898082
 10
1303.337487975424
 20
647.6953885343372
 10
1324.1951619002934
 20
681.9615671251938
 10
1329.2014022488795
 20
684.7030796970386
 10
1335.8742035550945
 20
692.9249241636252
 10
1344.2004195230807
 20
695.6606808388206
 10
1347.535249531535
 20
701.1393301384243
 10
1357.646250334618
 20
703.907818453554
 10
1360.2021534609212
 20
699.7088347460557
 10
1358.531225268759
 20
677.7480642204971
 10
1356.8666666666666
 20
675.0134322313454
 10
1356.8666666666666
 20
664.0610512789644
 10
1355.2
 20
661.3229560408691
 10
1355.2
 20
650.3705750884882
 10
1353.5333333333335
 20
647.632479850393
 10
1353.5333333333335
 20
636.680098898012
 10
1345.9895325682712
 20
624.2867119268382
 10
1329.2965831152874
 20
624.2867119268382
 10
1320.9662091457237
 20
618.8124661754106
 10
1300.0460885115865
 20
617.4377153908816
  0
LWPOLYLINE
  5
3B
330
17
100
AcDbEntity
  8
K
100
AcDbPolyline
 90
5
 70
1
 10
1314.9734133118045
 20
497.04964682505727
 10
1317.5802506880018
 20
501.3323082288101
 10
1321.8932533548625
 20
497.0809198857619
 10
1319.2864159786648
 20
492.798258482009
 10
1314.9734133118045
 20
497.04964682505727
  0
LWPOLYLINE
  5
3C
330
17
100
AcDbEntity
  8
K
100
AcDbPolyline
 90
30
 70
1
 10
1248.375634646983
 20
475.0629848351114
 10
1245.8771340983956
 20
479.1676643077906
 10
1237.5438007650623
 20
479.1676643077906
 10
1235.8771340983956
 20
481.90575954588576
 10
1232.5558920738922
 20
481.90575954588576
 10
1222.5558920738922
 20
492.8581404982667
 10
1219.210467431729
 20
492.8581404982667
 10
1214.982931199845
 20
499.80337859350476
 10
1219.1900740309827
 20
506.71511324465956
 10
1225.8975274991421
 20
512.2248071649334
 10
1232.6476305308004
 20
512.2248071649334
 10
1239.3142971974669
 20
504.0105214506476
 10
1242.6561992349377
 20
504.0105214506476
 10
1244.3228659016045
 20
501.27242621255243
 10
1274.2104674317288
 20
501.27242621255243
 10
1275.8771340983956
 20
504.0105214506476
 10
1279.3228659016042
 20
504.0105214506476
 10
1280.9333333333334
 20
501.3647535270929
 10
1282.5744691214386
 20
504.0609051789802
 10
1285.9333333333334
 20
501.3018381477809
 10
1289.292197545228
 20
504.0609051789802
 10
1290.989532568271
 20
501.27242621255243
 10
1309.3228659016045
 20
501.27242621255243
 10
1313.5504021334884
 20
494.32718811731434
 10
1309.3228659016045
 20
487.3819500220763
 10
1304.3107745927744
 20
487.3819500220763
 10
1299.317785738882
 20
481.91343842019387
 10
1284.317785738882
 20
479.17534318209863
 10
1279.3089696482218
 20
473.68949698756614
 10
1248.375634646983
 20
475.0629848351114
  0
LWPOLYLINE
  5
3D
330
17
100
AcDbEntity
  8
K
100
AcDbPolyline
 90
17
 70
1
 10
1949.9999999999998
 20
1.3717961716035454
 10
1949.9999999999998
 20
89.117134479474
 10
1952.5384630273822
 20
93.28746659588785
 10
1969.205129694049
 20
96.02556183398318
 10
1970.9420957093862
 20
98.87914885917984
 10
1978.533333333333
 20
83.63642569363516
 10
1978.533333333333
 20
78.16475352709301
 10
1981.8593305201916
 20
72.70061529153999
 10
1990.1926638535247
 20
42.581567672492355
 10
1992.6610765235773
 20
38.52631828597744
 10
2010.9698645172718
 20
35.791888910295775
 10
2019.296583115287
 20
30.32004526017154
 10
2025.9895325682708
 20
30.32004526017154
 10
2030.1999999999998
 20
23.40284876518825
 10
2030.1999999999998
 20
4.180098898011991
 10
2027.655591975123
 20
0.0
 10
1949.9999999999998
 20
1.3717961716035454
  0
LWPOLYLINE
  5
3E
330
17
100
AcDbEntity
  8
K
100
AcDbPolyline
 90
136
 70
1
 10
3162.5316463004756
 20
405.25906092818343
 10
3156.674677809776
 20
414.88122344861864
 10
3155.0000000000005
 20
420.38373625216684
 10
3155.0000000000005
 20
431.3229560408689
 10
3147.535249531535
 20
443.5864746676331
 10
3137.542601622486
 20
446.3225568332061
 10
3130.874203555095
 20
454.5389758805273
 10
3122.5465029608213
 20
457.27522036150305
 10
3114.2209156647305
 20
465.4818706962208
 10
3090.884634130417
 20
468.22031189667604
 10
3085.8892254072257
 20
473.69147383160004
 10
3080.877134098396
 20
473.69147383160004
 10
3079.2104674317293
 20
476.42956906969533
 10
3052.5438007650623
 20
476.42956906969533
 10
3049.982931199845
 20
480.6367119268381
 10
3052.5438007650623
 20
484.84385478398093
 10
3055.8771340983963
 20
484.84385478398093
 10
3059.2004195230807
 20
490.3035379816778
 10
3067.533752856414
 20
493.041633219773
 10
3070.9257667055613
 20
498.61422740051466
 10
3080.98412583416
 20
484.84385478398093
 10
3084.322865901605
 20
484.84385478398093
 10
3085.9494097038532
 20
482.1716756802871
 10
3090.9234741616397
 20
487.61946056262485
 10
3094.2411357881056
 20
484.8942385123135
 10
3099.2104674317293
 20
493.0581404982667
 10
3104.210467431729
 20
493.0581404982667
 10
3112.5438007650628
 20
506.7486166887429
 10
3115.885702802533
 20
506.7486166887429
 10
3122.5523694691997
 20
514.9629024030287
 10
3125.885702802533
 20
514.9629024030287
 10
3132.5523694692
 20
523.1771881173142
 10
3137.6561992349375
 20
523.1771881173142
 10
3140.2028783547275
 20
518.993358134803
 10
3138.536211688061
 20
502.56478670623153
 10
3140.9895325682714
 20
498.5343309744572
 10
3145.9895325682714
 20
498.5343309744572
 10
3150.9995804769196
 20
490.3035379816777
 10
3159.222501904276
 20
487.6017209412606
 10
3161.6495978665116
 20
491.58909287921915
 10
3158.333333333333
 20
497.03724175515464
 10
3158.333333333333
 20
507.98962270753555
 10
3154.2411357881056
 20
514.7125186746962
 10
3150.907802454772
 20
511.97442343660083
 10
3146.649597866512
 20
518.9700452601714
 10
3149.2081726223428
 20
523.1734180733221
 10
3189.2153798478066
 20
525.9120066631605
 10
3196.6666666666674
 20
535.4330953761486
 10
3196.6666666666674
 20
538.164753527093
 10
3202.558987780286
 20
547.8449953566092
 10
3209.3350203661917
 20
545.061981973112
 10
3214.322865901605
 20
536.8676643077905
 10
3219.2104674317293
 20
536.8676643077905
 10
3224.989561389295
 20
546.3618900952197
 10
3222.5356496550944
 20
553.0809341293398
 10
3209.2178408832133
 20
550.3460269708286
 10
3206.652081019447
 20
554.5612038898729
 10
3215.9260607529227
 20
572.5671775282442
 10
3217.656199234938
 20
569.7248071649334
 10
3225.8771340983963
 20
569.7248071649334
 10
3227.5438007650623
 20
572.4629024030286
 10
3234.3228659016045
 20
572.4629024030286
 10
3237.6620926148594
 20
566.9770299455396
 10
3252.6742877980723
 20
564.236708602572
 10
3255.2104386107058
 20
557.292486139409
 10
3249.292197545228
 20
547.569661531839
 10
3245.9588642118947
 20
550.3077567699341
 10
3243.5504021334887
 20
546.3509976411239
 10
3245.9588642118947
 20
542.3942385123134
 10
3249.292197545228
 20
545.1323337504089
 10
3252.656199234938
 20
539.6057595458857
 10
3255.9895325682714
 20
539.6057595458857
 10
3257.656199234938
 20
536.8676643077905
 10
3267.656199234938
 20
536.8676643077905
 10
3269.266666666667
 20
534.2218963842361
 10
3271.6536784386262
 20
538.1434157238835
 10
3261.6536784386267
 20
560.0481776286456
 10
3264.2256544469524
 20
564.2735667851806
 10
3270.9160413909317
 20
561.5257292903317
 10
3274.292197545228
 20
564.2990004170755
 10
3279.322865901605
 20
556.0343309744572
 10
3284.3162348928986
 20
556.0343309744572
 10
3292.616732049146
 20
545.1251061405317
 10
3295.958864211895
 20
547.870428988504
 10
3299.322865901605
 20
542.343854783981
 10
3304.314297197467
 20
542.343854783981
 10
3310.9949112089453
 20
534.1123839484095
 10
3317.668353699525
 20
531.3715057826357
 10
3323.5504021334887
 20
521.7081404982667
 10
3317.656199234938
 20
512.0248071649333
 10
3312.656199234938
 20
512.0248071649333
 10
3309.3329138102526
 20
506.56512396723673
 10
3300.99958047692
 20
503.82702872914143
 10
3297.6
 20
498.2420036599166
 10
3295.907802454772
 20
501.02204248421987
 10
3292.5857440151967
 20
498.2932087659971
 10
3285.8857028025336
 20
506.548616688743
 10
3282.656199234938
 20
506.548616688743
 10
3280.9333333333334
 20
503.71819413610694
 10
3277.6
 20
509.1943846122975
 10
3275.9895325682714
 20
506.548616688743
 10
3267.564194165809
 20
506.548616688743
 10
3260.897527499142
 20
512.0248071649333
 10
3252.564194165809
 20
512.0248071649333
 10
3245.9333333333334
 20
517.4715857058953
 10
3242.6765926356848
 20
514.7964058471123
 10
3236.866666666667
 20
505.25152746944036
 10
3236.866666666667
 20
502.5664438534689
 10
3248.5333333333333
 20
480.6616819487069
 10
3248.5333333333333
 20
477.93233492893273
 10
3256.8793524671787
 20
466.96328121016506
 10
3254.336605424572
 20
460.0009976411239
 10
3229.2179442156535
 20
460.0009976411239
 10
3221.6733600264984
 20
469.6412996606003
 10
3220.0054779529987
 20
477.861575594276
 10
3214.203030460296
 20
487.3941679037165
 10
3202.5438863810914
 20
490.130497636591
 10
3195.885702802533
 20
498.3343309744572
 10
3192.5438007650623
 20
498.3343309744572
 10
3190.9333333333334
 20
500.98009889801176
 10
3188.550402133489
 20
497.0652833554096
 10
3190.2
 20
494.3552297175693
 10
3190.2
 20
488.88471588131364
 10
3198.5474220516867
 20
477.91381832766854
 10
3195.2094227819075
 20
469.688034412856
 10
3201.880489575285
 20
455.98852224788453
 10
3197.656199234938
 20
449.048616688743
 10
3189.3228659016045
 20
449.048616688743
 10
3187.656199234938
 20
446.3105214506476
 10
3179.3024725008577
 20
446.3105214506476
 10
3176.01543067845
 20
443.6104513822411
 10
3171.8790537054474
 20
434.09678434433476
 10
3178.5333333333333
 20
423.164753527093
 10
3178.5333333333333
 20
420.3743772677945
 10
3169.313553012758
 20
402.47363495706736
 10
3162.5316463004756
 20
405.25906092818343
  0
LWPOLYLINE
  5
3F
330
17
100
AcDbEntity
  8
K
100
AcDbPolyline
 90
30
 70
1
 10
3624.1983129671426
 20
402.5209656900882
 10
3620.8771340983963
 20
407.9771881173143
 10
3615.8892254072257
 20
407.9771881173143
 10
3610.889225407226
 20
413.45337859350485
 10
3607.5438007650628
 20
413.45337859350485
 10
3604.2104674317293
 20
418.9295690696954
 10
3599.222558740559
 20
418.9295690696954
 10
3594.2079354896005
 20
424.4217754874119
 10
3580.864979633809
 20
429.9019180710406
 10
3577.528495233627
 20
435.383285299911
 10
3572.528495233627
 20
438.1213805380063
 10
3569.9829311998456
 20
442.30337859350476
 10
3571.6687747312412
 20
445.0729786807983
 10
3573.336462732364
 20
466.9911638384082
 10
3577.6197493119985
 20
471.2132606097624
 10
3579.322865901605
 20
468.4152833554096
 10
3589.322865901605
 20
468.4152833554096
 10
3590.989532568272
 20
465.6771881173143
 10
3602.6476305308006
 20
465.6771881173143
 10
3615.9809638641336
 20
449.2486166887429
 10
3619.3162348928986
 20
449.2486166887429
 10
3627.663128401257
 20
438.2784137920436
 10
3634.3287121620187
 20
435.5407633188735
 10
3648.555057587356
 20
417.66816969628627
 10
3642.6561992349384
 20
407.9771881173143
 10
3639.3228659016045
 20
407.9771881173143
 10
3635.9895325682714
 20
402.5009976411239
 10
3632.6561992349384
 20
402.5009976411239
 10
3630.9743455530484
 20
399.737952306591
 10
3624.1983129671426
 20
402.5209656900882
  0
LWPOLYLINE
  5
40
330
17
100
AcDbEntity
  8
K
100
AcDbPolyline
 90
30
 70
1
 10
3491.704574051809
 20
308.0463939081368
 10
3490.001876594696
 20
310.84368258767824
 10
3488.3352099280296
 20
335.48653973053536
 10
3486.670010997464
 20
338.22222368789323
 10
3484.996539953813
 20
351.96859297502357
 10
3495.0021080645747
 20
368.40631201413163
 10
3496.6687747312417
 20
390.3110739188935
 10
3498.333333333334
 20
393.0457059080452
 10
3498.333333333334
 20
403.9820439083612
 10
3501.673176850114
 20
417.69925835227906
 10
3504.2411357881056
 20
421.9180480361231
 10
3507.635805834192
 20
419.1295690696953
 10
3540.998897995977
 20
419.1295690696953
 10
3545.2000000000003
 20
409.46703446044177
 10
3545.2000000000003
 20
403.9877347163411
 10
3550.2000000000003
 20
390.29725852586495
 10
3550.2000000000003
 20
384.81825903008115
 10
3553.526699883748
 20
373.8876736977681
 10
3560.2000000000003
 20
360.18357524474953
 10
3560.2000000000003
 20
351.9181941361073
 10
3557.656199234938
 20
347.73909287921913
 10
3554.3228659016045
 20
347.73909287921913
 10
3551.003091437184
 20
342.28517768767074
 10
3539.3364247705176
 20
336.8089872114803
 10
3535.9895325682714
 20
331.3105214506476
 10
3532.6476305308006
 20
331.3105214506476
 10
3525.990731710848
 20
323.10827111892036
 10
3515.98032055097
 20
320.36732520609667
 10
3499.294316495447
 20
306.6609647319171
 10
3491.704574051809
 20
308.0463939081368
  0
LWPOLYLINE
  5
41
330
17
100
AcDbEntity
  8
K
100
AcDbPolyline
 90
13
 70
1
 10
4909.998051984433
 20
212.22458802220137
 10
4910.838354179267
 20
246.73699959576405
 10
4914.302472500858
 20
243.89147383160005
 10
4922.656199234938
 20
243.89147383160005
 10
4924.322865901605
 20
241.15337859350487
 10
4929.302472500858
 20
241.15337859350487
 10
4935.969139167525
 20
235.67718811731433
 10
4939.31538911768
 20
235.67718811731433
 10
4946.902548296467
 20
225.98248472219686
 10
4939.312160957001
 20
219.054750245699
 10
4922.642717393785
 20
216.3161988031707
 10
4915.958609558518
 20
210.82568165277328
 10
4909.998051984433
 20
212.22458802220137
  0
LWPOLYLINE
  5
42
330
17
100
AcDbEntity
  8
K
100
AcDbPolyline
 90
31
 70
1
 10
6324.210467431729
 20
43.81052145064776
 10
6322.543800765063
 20
46.548616688742996
 10
6312.543800765062
 20
46.548616688742996
 10
6310.877134098396
 20
49.28671192683823
 10
6300.877134098395
 20
49.28671192683823
 10
6299.21046743173
 20
52.02480716493346
 10
6289.2256661071
 20
52.02480716493346
 10
6280.85433608534
 20
60.276546757810245
 10
6272.523407364315
 20
73.96307251377898
 10
6265.856740697649
 20
79.4392629899695
 10
6252.543800765063
 20
101.3105214506477
 10
6249.21046743173
 20
101.3105214506477
 10
6239.982931199845
 20
116.47004526017149
 10
6242.588299236092
 20
120.7502927482931
 10
6249.322780285575
 20
112.45245002660911
 10
6260.978830538666
 20
109.71684639578186
 10
6267.635805834192
 20
104.24861668874289
 10
6270.977441259441
 20
104.24861668874289
 10
6275.983233087478
 20
98.7660827818451
 10
6294.313662621061
 20
96.02842122812818
 10
6302.641000559568
 20
87.82004526017157
 10
6309.302472500858
 20
87.82004526017157
 10
6319.310116397607
 20
79.59948063069933
 10
6334.317785738882
 20
76.85998543348244
 10
6339.310774592775
 20
71.39147383160011
 10
6342.641000559568
 20
71.39147383160011
 10
6346.866666666667
 20
67.22617438317386
 10
6346.866666666667
 20
39.689945879117396
 10
6335.872975299899
 20
41.07925852436828
 10
6334.210467431729
 20
43.81052145064776
 10
6324.210467431729
 20
43.81052145064776
  0
LWPOLYLINE
  5
43
330
17
100
AcDbEntity
  8
K
100
AcDbPolyline
 90
42
 70
1
 10
6146.666666666666
 20
535.370575088488
 10
6145.000000000001
 20
538.1086703265831
 10
6145.000000000001
 20
568.2838011461407
 10
6147.543800765063
 20
572.4629024030286
 10
6152.656199234937
 20
572.4629024030286
 10
6154.307678886382
 20
569.749757261371
 10
6160.974345553048
 20
572.4878524994662
 10
6162.656199234938
 20
569.7248071649334
 10
6179.322865901605
 20
569.7248071649334
 10
6180.974345553049
 20
567.0116620232758
 10
6187.641012219715
 20
569.749757261371
 10
6189.322865901604
 20
566.9867119268381
 10
6197.656199234938
 20
566.9867119268381
 10
6199.307678886382
 20
564.2735667851806
 10
6205.960029322909
 20
567.0057821430399
 10
6210.977441259442
 20
561.5105214506476
 10
6217.629916448621
 20
561.5105214506476
 10
6226.011706409394
 20
556.0024880478537
 10
6231.876474471702
 20
543.6146616305302
 10
6227.682097345117
 20
533.967594239384
 10
6220.969139167525
 20
528.4533785935048
 10
6214.322865901605
 20
528.4533785935048
 10
6212.6
 20
525.622956040869
 10
6210.933333333334
 20
528.3610512789642
 10
6209.322865901604
 20
525.7152833554096
 10
6202.656199234938
 20
525.7152833554096
 10
6200.989532568271
 20
522.9771881173143
 10
6189.322865901604
 20
522.9771881173143
 10
6187.6
 20
520.1467655646784
 10
6185.877134098396
 20
522.9771881173143
 10
6180.989532568272
 20
522.9771881173143
 10
6179.266666666667
 20
520.1467655646784
 10
6177.574469121439
 20
522.9268043889817
 10
6174.302472500858
 20
520.2390928792191
 10
6170.877134098397
 20
520.2390928792191
 10
6169.21046743173
 20
522.9771881173143
 10
6165.989532568271
 20
522.9771881173143
 10
6164.292197545229
 20
520.1887091508866
 10
6160.897527499143
 20
522.9771881173143
 10
6149.210467431729
 20
522.9771881173143
 10
6146.666666666666
 20
527.1562893742022
 10
6146.666666666666
 20
535.370575088488
  0
LWPOLYLINE
  5
44
330
17
100
AcDbEntity
  8
K
100
AcDbPolyline
 90
54
 70
1
 10
6060.877134098396
 20
30.120045260171562
 10
6058.326369811864
 20
34.31058658804381
 10
6065.006510183447
 20
61.74687739989823
 10
6068.337852354648
 20
67.21979668115723
 10
6073.337852354648
 20
97.33884430020481
 10
6076.669071213556
 20
102.81156099698232
 10
6078.335013040095
 20
121.96989200218403
 10
6085.001679706762
 20
138.3984634307555
 10
6086.667949894312
 20
157.56057058758236
 10
6090.0
 20
168.50873522055744
 10
6090.0
 20
173.9980868604263
 10
6093.333333333334
 20
179.47427733661684
 10
6093.333333333334
 20
187.68856305090256
 10
6095.877134098396
 20
191.8676643077906
 10
6100.877134098396
 20
191.8676643077906
 10
6102.543800765063
 20
194.6057595458858
 10
6112.564194165809
 20
194.6057595458858
 10
6115.933333333333
 20
197.37326671920954
 10
6119.266666666667
 20
194.63517148111433
 10
6125.958864211895
 20
200.13233375040886
 10
6127.656199234938
 20
197.34385478398102
 10
6130.877134098396
 20
197.34385478398102
 10
6132.543800765063
 20
200.0819500220762
 10
6140.877134098396
 20
200.0819500220762
 10
6142.543800765062
 20
202.82004526017153
 10
6145.97950088706
 20
202.82004526017153
 10
6157.66417451268
 20
189.10843845459803
 10
6162.6780573159485
 20
186.36274072899798
 10
6166.882116874846
 20
176.6934037435344
 10
6159.256370669333
 20
166.9493947031562
 10
6157.588299236093
 20
169.68979777204987
 10
6150.980963864134
 20
161.5486166887429
 10
6145.977441259441
 20
161.5486166887429
 10
6130.992064510399
 20
145.13606120169766
 10
6124.335020366192
 20
142.40191807104065
 10
6120.989532568271
 20
136.90575954588581
 10
6115.969139167524
 20
136.90575954588581
 10
6106.009925969018
 20
128.7249772756838
 10
6101.883735466821
 20
121.94623573636201
 10
6105.989532568271
 20
115.20099764112393
 10
6110.97856618408
 20
115.20099764112393
 10
6121.862922259038
 20
102.82153770971539
 10
6125.197202176556
 20
69.9550642370368
 10
6127.676592635685
 20
65.88177991132599
 10
6151.009925969018
 20
46.715113244659264
 10
6154.335020366192
 20
41.25245816358814
 10
6161.001687032858
 20
38.514362925492904
 10
6164.322865901604
 20
33.05814049826677
 10
6167.656199234938
 20
33.05814049826677
 10
6170.217068800155
 20
28.85099764112395
 10
6167.655109074348
 20
24.64206380586864
 10
6080.876063118816
 20
27.383709488529696
 10
6079.21046743173
 20
30.120045260171562
 10
6060.877134098396
 20
30.120045260171562
  0
LWPOLYLINE
  5
45
330
17
100
AcDbEntity
  8
K
100
AcDbPolyline
 90
55
 70
1
 10
6089.228914601239
 20
391.534598973829
 10
6081.671750783187
 20
401.19097496356073
 10
6076.669903738438
 20
434.06025554334394
 10
6071.666666666667
 20
445.0197272243664
 10
6071.666666666667
 20
450.4896227075358
 10
6068.316264533179
 20
455.993854783981
 10
6069.982931199845
 20
458.7319500220762
 10
6064.245297691388
 20
468.15806221454017
 10
6052.610966155937
 20
457.2360366914625
 10
6044.236750218047
 20
462.73909287921913
 10
6034.21046743173
 20
462.73909287921913
 10
6032.539311149185
 20
465.48456391482796
 10
6012.539311149185
 20
468.22265915292326
 10
6007.526278907518
 20
476.45835497851874
 10
5999.192945574184
 20
481.93454545470917
 10
5990.0
 20
497.03724175515487
 10
5990.0
 20
502.5695154318548
 10
5994.266666666667
 20
509.5790392413786
 10
5995.989532568271
 20
506.7486166887429
 10
6007.656199234938
 20
506.7486166887429
 10
6009.322865901605
 20
504.0105214506476
 10
6012.656199234938
 20
504.0105214506476
 10
6015.958864211895
 20
498.58471470278977
 10
6019.230860832476
 20
501.27242621255243
 10
6025.969139167524
 20
501.27242621255243
 10
6029.266666666666
 20
498.56374290968574
 10
6032.625530878562
 20
501.32280994088495
 10
6034.322865901605
 20
498.5343309744572
 10
6045.989532568272
 20
498.5343309744572
 10
6047.6600724617765
 20
495.78987257798445
 10
6070.976965425106
 20
493.0537065669814
 10
6078.533333333334
 20
486.1570215713772
 10
6078.533333333334
 20
461.49808686042616
 10
6080.989532568271
 20
457.4629024030287
 10
6094.322865901605
 20
457.4629024030287
 10
6095.989532568272
 20
454.72480716493334
 10
6107.656199234937
 20
454.72480716493334
 10
6109.322865901604
 20
451.98671192683815
 10
6120.989532568271
 20
451.98671192683815
 10
6122.656199234938
 20
449.2486166887429
 10
6134.322865901605
 20
449.2486166887429
 10
6135.989532568272
 20
446.5105214506476
 10
6147.635805834191
 20
446.5105214506476
 10
6151.009925969018
 20
443.7389227684688
 10
6153.550402133489
 20
439.5652833554096
 10
6143.533333333333
 20
423.1086703265832
 10
6143.533333333333
 20
409.43135529978593
 10
6140.2
 20
398.47897434740497
 10
6140.2
 20
392.98962270753555
 10
6137.6
 20
388.718194136107
 10
6135.907802454772
 20
391.4982329604104
 10
6132.631984777826
 20
388.8073827257761
 10
6100.874251655212
 20
391.553352131115
 10
6099.220416332048
 20
394.2703673048842
 10
6089.228914601239
 20
391.534598973829
  0
LWPOLYLINE
  5
46
330
17
100
AcDbEntity
  8
K
100
AcDbPolyline
 90
85
 70
1
 10
6044.222501904276
 20
574.9812267219395
 10
6041.649597866512
 20
579.2081404982667
 10
6044.982931199846
 20
584.6843309744571
 10
6042.543800765063
 20
588.6914738316
 10
6035.989532568271
 20
588.6914738316
 10
6033.550402133488
 20
584.6843309744571
 10
6035.217068800155
 20
581.9462357363619
 10
6032.6
 20
577.6467655646786
 10
6029.982931199846
 20
581.9462357363619
 10
6031.649597866512
 20
584.6843309744571
 10
6027.580250688003
 20
591.3696870534376
 10
6023.559920021529
 20
587.4067896822002
 10
6025.217068800155
 20
584.6843309744571
 10
6022.625530878561
 20
580.4268043889817
 10
6019.230860832476
 20
583.2152833554096
 10
6010.877134098396
 20
583.2152833554096
 10
6009.210467431729
 20
585.9533785935048
 10
5999.21046743173
 20
585.9533785935048
 10
5996.649597866512
 20
590.1605214506477
 10
5998.316264533179
 20
592.8986166887429
 10
5995.877134098396
 20
596.9057595458858
 10
5990.867768670691
 20
596.9057595458858
 10
5986.657192096596
 20
606.5900856663
 10
5991.666666666667
 20
617.5632204388337
 10
5991.666666666667
 20
622.9942873968362
 10
5969.97929778698
 20
666.8456706260923
 10
5979.22393770612
 20
676.5105214506476
 10
5984.230860832476
 20
676.5105214506476
 10
5990.933333333333
 20
682.0161238620667
 10
5994.241135788106
 20
679.2990004170755
 10
5997.533752856414
 20
684.7082998864397
 10
6005.8595091603065
 20
687.4439055291473
 10
6010.001256889969
 20
696.9699253073711
 10
6011.66835755122
 20
724.358007599334
 10
6015.877134098396
 20
731.2724262125524
 10
6024.322865901604
 20
731.2724262125524
 10
6025.989532568271
 20
728.5343309744571
 10
6032.656199234938
 20
728.5343309744571
 10
6034.322865901605
 20
725.7962357363618
 10
6042.6441079261085
 20
725.7962357363618
 10
6047.6504517491
 20
720.3130972635608
 10
6064.328203639285
 20
717.5731808816021
 10
6065.933333333333
 20
714.9361820985214
 10
6068.333333333333
 20
718.8790392413786
 10
6068.333333333333
 20
732.5695154318548
 10
6070.877134098396
 20
736.7486166887429
 10
6077.555892073892
 20
736.7486166887429
 10
6082.54567045429
 20
742.2136120577499
 10
6092.545670454289
 20
744.951707295845
 10
6097.590140828307
 20
750.4766034197677
 10
6100.927244770929
 20
747.7354108954704
 10
6109.2256661071
 20
755.9152833554095
 10
6115.897527499143
 20
755.9152833554095
 10
6119.29720089065
 20
758.7078722127197
 10
6131.861738727027
 20
735.3138993840375
 10
6133.5278553803355
 20
727.1023244498764
 10
6136.866666666667
 20
721.6171344794741
 10
6136.866666666667
 20
713.4028487651883
 10
6140.217068800155
 20
707.8986166887429
 10
6137.656199234938
 20
703.6914738316
 10
6120.989532568271
 20
703.6914738316
 10
6119.266666666667
 20
700.8610512789642
 10
6117.543800765063
 20
703.6914738316
 10
6114.322865901605
 20
703.6914738316
 10
6112.6
 20
700.8610512789642
 10
6110.877134098396
 20
703.6914738316
 10
6107.656199234937
 20
703.6914738316
 10
6105.958864211895
 20
700.9029948651722
 10
6102.599999999999
 20
703.6620618963715
 10
6099.266666666666
 20
700.9239666582763
 10
6095.933333333334
 20
703.6620618963715
 10
6092.6
 20
700.9239666582763
 10
6089.282312832165
 20
703.6492096889978
 10
6081.8625703521575
 20
694.1684276312106
 10
6078.531210527906
 20
666.8036862177119
 10
6073.522075658938
 20
653.088197886014
 10
6065.195025227401
 20
642.1440744617074
 10
6061.863429594895
 20
620.2507317338201
 10
6056.881305180268
 20
609.3375068255888
 10
6070.2
 20
590.1918830222243
 10
6070.2
 20
573.7039084218216
 10
6067.647727154778
 20
569.5108887475284
 10
6055.869697126963
 20
572.2751202846688
 10
6052.555835237609
 20
577.7193219600347
 10
6044.222501904276
 20
574.9812267219395
  0
LWPOLYLINE
  5
47
330
17
100
AcDbEntity
  8
K
100
AcDbPolyline
 90
32
 70
1
 10
6030.899537916383
 20
331.3130704869786
 10
6022.57008355138
 20
336.78671192683817
 10
6015.877134098396
 20
336.78671192683817
 10
6010.004154642091
 20
346.43517817648194
 10
6008.328998598527
 20
357.4433464627662
 10
6010.877134098396
 20
361.6295690696953
 10
6015.989532568272
 20
361.6295690696953
 10
6017.599999999999
 20
358.9838011461405
 10
6019.210467431729
 20
361.6295690696953
 10
6029.322865901604
 20
361.6295690696953
 10
6030.933333333333
 20
358.9838011461405
 10
6032.543800765063
 20
361.6295690696953
 10
6040.969139167525
 20
361.6295690696953
 10
6044.241135788106
 20
358.9418575599326
 10
6045.877134098397
 20
361.6295690696953
 10
6052.635805834192
 20
361.6295690696953
 10
6055.9078024547725
 20
358.9418575599326
 10
6057.543800765062
 20
361.6295690696953
 10
6064.302472500858
 20
361.6295690696953
 10
6067.574469121439
 20
358.9418575599326
 10
6069.210467431729
 20
361.6295690696953
 10
6075.969139167525
 20
361.6295690696953
 10
6079.266666666666
 20
358.9208857668286
 10
6082.625530878562
 20
361.6799527980279
 10
6085.200000000001
 20
357.45046781280723
 10
6085.200000000001
 20
346.44200365991674
 10
6081.866666666667
 20
340.9658131837263
 10
6081.866666666667
 20
327.27533699325005
 10
6079.316340758553
 20
323.08551585849267
 10
6064.204574051808
 20
325.84401295575583
 10
6062.540918321879
 20
328.57716165492445
 10
6030.899537916383
 20
331.3130704869786
  0
LWPOLYLINE
  5
48
330
17
100
AcDbEntity
  8
K
100
AcDbPolyline
 90
30
 70
1
 10
5896.771180514226
 20
778.9853163604471
 10
5879.203030460296
 20
783.108453618002
 10
5877.543800765063
 20
785.8343309744572
 10
5869.210467431729
 20
785.8343309744572
 10
5867.543800765063
 20
788.5724262125524
 10
5859.210467431729
 20
788.5724262125524
 10
5857.543800765062
 20
791.3105214506476
 10
5850.877134098396
 20
791.3105214506476
 10
5849.210467431729
 20
794.048616688743
 10
5842.543800765062
 20
794.048616688743
 10
5839.982931199846
 20
798.2557595458858
 10
5841.668543261362
 20
801.0249793612362
 10
5843.335209928029
 20
825.6678365040931
 10
5846.668357551219
 20
831.1437218850482
 10
5848.335024217886
 20
858.5246742660004
 10
5851.666666666667
 20
863.9980868604263
 10
5851.666666666667
 20
874.950467812807
 10
5855.877134098396
 20
881.8676643077905
 10
5882.635805834192
 20
881.8676643077905
 10
5885.933333333334
 20
879.1589810049236
 10
5889.28355698112
 20
881.9109504298912
 10
5940.21503100512
 20
814.6981035621532
 10
5935.948163038652
 20
804.8843072392754
 10
5934.2505902961475
 20
807.6731767448177
 10
5924.32281758953
 20
796.7999018756659
 10
5915.99958047692
 20
794.0651239672366
 10
5912.666247143587
 20
788.5889334910461
 10
5904.332913810254
 20
785.8508382529509
 10
5900.99958047692
 20
780.3746477767604
 10
5896.771180514226
 20
778.9853163604471
  0
LWPOLYLINE
  5
49
330
17
100
AcDbEntity
  8
K
100
AcDbPolyline
 90
39
 70
1
 10
5817.553832446274
 20
684.5248071649333
 10
5805.862988434025
 20
698.243654730327
 10
5795.897527499143
 20
706.4295690696953
 10
5792.543800765063
 20
706.4295690696953
 10
5789.198312967142
 20
711.9257275948501
 10
5782.536871598743
 20
714.6616767282994
 10
5774.203538265411
 20
725.6140576806803
 10
5767.531646300476
 20
728.3542990234215
 10
5764.210467431729
 20
733.8105214506476
 10
5759.210467431729
 20
733.8105214506476
 10
5756.666666666667
 20
737.9896227075358
 10
5756.666666666667
 20
757.2123725747118
 10
5759.210467431729
 20
761.3914738316
 10
5762.628331116166
 20
761.3914738316
 10
5775.9616644495
 20
753.1771881173142
 10
5784.302472500858
 20
753.1771881173142
 10
5790.969139167525
 20
747.7009976411239
 10
5795.989532568272
 20
747.7009976411239
 10
5797.656199234938
 20
744.9629024030286
 10
5805.969139167525
 20
744.9629024030286
 10
5812.642717393785
 20
739.4810345743151
 10
5829.3023328811405
 20
736.7440977442494
 10
5842.628331116166
 20
728.5343309744571
 10
5850.969139167525
 20
728.5343309744571
 10
5857.635805834191
 20
723.0581404982667
 10
5864.307667226234
 20
723.0581404982667
 10
5872.683987739951
 20
714.8014817061752
 10
5876.8790537054465
 20
705.1528299855323
 10
5872.666247143587
 20
698.2317906339033
 10
5864.332913810253
 20
695.493695395808
 10
5860.933333333333
 20
689.9086703265834
 10
5859.266666666666
 20
692.6467655646786
 10
5855.933333333333
 20
687.1705750884881
 10
5854.266666666666
 20
689.9086703265834
 10
5851.001687032858
 20
684.5447752138977
 10
5837.668353699524
 20
679.0685847377073
 10
5834.292197545229
 20
673.5220424842199
 10
5820.897527499143
 20
684.5248071649333
 10
5817.553832446274
 20
684.5248071649333
  0
LWPOLYLINE
  5
4A
330
17
100
AcDbEntity
  8
K
100
AcDbPolyline
 90
39
 70
1
 10
5712.543800765063
 20
93.09623573636198
 10
5710.877134098396
 20
95.83433097445729
 10
5702.543800765063
 20
95.83433097445729
 10
5700.877134098396
 20
98.5724262125525
 10
5694.210467431729
 20
98.5724262125525
 10
5692.543800765063
 20
101.3105214506477
 10
5684.210467431729
 20
101.3105214506477
 10
5682.543800765062
 20
104.04861668874291
 10
5679.204753881621
 20
104.04861668874291
 10
5671.670163580967
 20
119.17759562577181
 10
5670.004154642091
 20
130.12565436695826
 10
5663.316264533179
 20
141.11290240302867
 10
5667.6
 20
148.1504678128073
 10
5669.322865901605
 20
145.32004526017153
 10
5674.230860832476
 20
145.32004526017153
 10
5680.897527499142
 20
150.79623573636195
 10
5690.903416884713
 20
150.79623573636195
 10
5699.261979591085
 20
156.28900551483562
 10
5704.255418434979
 20
153.55450329079915
 10
5710.897527499143
 20
159.01052145064767
 10
5719.210467431729
 20
159.01052145064767
 10
5720.877134098396
 20
161.74861668874289
 10
5727.543800765063
 20
161.74861668874289
 10
5729.210467431729
 20
164.4867119268382
 10
5737.564194165809
 20
164.4867119268382
 10
5744.266666666667
 20
169.99231433825716
 10
5747.574469121439
 20
167.27519089326594
 10
5749.21046743173
 20
169.9629024030286
 10
5755.877134098396
 20
169.9629024030286
 10
5757.6
 20
172.7933249556645
 10
5776.866666666667
 20
141.1409440032835
 10
5776.866666666667
 20
138.35306055769982
 10
5766.855171462019
 20
116.42311868085345
 10
5754.33817143304
 20
95.85947577610158
 10
5744.33817143304
 20
90.38328529991108
 10
5740.979583667951
 20
84.86560540012233
 10
5730.89165018377
 20
87.62777766364816
 10
5722.570083551379
 20
93.09623573636198
 10
5712.543800765063
 20
93.09623573636198
  0
LWPOLYLINE
  5
4B
330
17
100
AcDbEntity
  8
K
100
AcDbPolyline
 90
9
 70
1
 10
7072.555892073892
 20
435.5581404982667
 10
7077.543849077137
 20
441.0211410256294
 10
7086.029409319046
 20
443.80925367654254
 10
7086.869607216554
 20
414.8224262125525
 10
7081.737720424093
 20
414.8224262125525
 10
7070.853898057028
 20
421.6995667192144
 10
7066.654279627887
 20
431.3586891062394
 10
7069.21046743173
 20
435.5581404982667
 10
7072.555892073892
 20
435.5581404982667
  0
LWPOLYLINE
  5
4C
330
17
100
AcDbEntity
  8
K
100
AcDbPolyline
 90
35
 70
1
 10
7009.210467431729
 20
405.43909287921906
 10
7014.210467431729
 20
405.43909287921906
 10
7015.933333333333
 20
408.269515431855
 10
7017.656199234938
 20
405.43909287921906
 10
7022.543800765063
 20
405.43909287921906
 10
7024.985414352781
 20
409.45031520189866
 10
7006.657706841862
 20
445.0346304341367
 10
7009.196727908762
 20
451.98671192683815
 10
7012.543800765063
 20
451.98671192683815
 10
7015.9078024547725
 20
457.5132861313612
 10
7025.982337990089
 20
449.2377747987791
 10
7034.322817589531
 20
446.4973315018198
 10
7039.3107745927755
 20
441.0343309744572
 10
7042.656199234938
 20
441.0343309744572
 10
7046.8611887136685
 20
434.126133973686
 10
7048.528527044458
 20
425.9085379147973
 10
7058.548099436681
 20
406.70435749636846
 10
7056.883735466822
 20
403.97004526017145
 10
7058.5420421524
 20
401.2456842767208
 10
7056.8753754857335
 20
395.76949380053037
 10
7058.533333333334
 20
393.0457059080454
 10
7058.533333333334
 20
384.82789728968913
 10
7068.542401069389
 20
365.6438507955827
 10
7066.003272091239
 20
358.69147383160004
 10
7055.877134098396
 20
358.69147383160004
 10
7052.523407364316
 20
364.20116775187415
 10
7042.625530878562
 20
372.3315662937438
 10
7040.217068800156
 20
368.37480716493343
 10
7043.550402133489
 20
362.8986166887429
 10
7039.316340758554
 20
355.94265871563556
 10
7024.209038303922
 20
358.700340909735
 10
7013.336092221066
 20
373.8149307941452
 10
7011.669071213556
 20
392.9856723805034
 10
7006.6495978665125
 20
401.23195002207626
 10
7009.210467431729
 20
405.43909287921906
  0
LWPOLYLINE
  5
4D
330
17
100
AcDbEntity
  8
K
100
AcDbPolyline
 90
6
 70
1
 10
6919.253120260339
 20
482.1758320500308
 10
6925.213937831434
 20
475.18099510435775
 10
6922.663503271255
 20
468.1976623800561
 10
6916.687763648478
 20
469.6001318833609
 10
6914.991291180933
 20
475.17425570529224
 10
6919.253120260339
 20
482.1758320500308
  0
LWPOLYLINE
  5
4E
330
17
100
AcDbEntity
  8
K
100
AcDbPolyline
 90
38
 70
1
 10
6676.666666666667
 20
491.56105127896444
 10
6673.334871928259
 20
497.03471406349166
 10
6671.668205261592
 20
527.1537616825392
 10
6670.000000000001
 20
529.8943846122978
 10
6670.000000000001
 20
535.4266582889976
 10
6672.543800765063
 20
539.6057595458857
 10
6687.635805834191
 20
539.6057595458857
 10
6690.9078024547725
 20
536.9180480361231
 10
6692.543800765063
 20
539.6057595458857
 10
6697.656199234938
 20
539.6057595458857
 10
6699.322865901605
 20
536.8676643077905
 10
6704.21046743173
 20
536.8676643077905
 10
6705.933333333333
 20
539.6980868604262
 10
6707.656199234938
 20
536.8676643077905
 10
6727.656199234938
 20
536.8676643077905
 10
6729.266666666666
 20
534.2218963842358
 10
6730.877134098396
 20
536.8676643077905
 10
6737.635805834191
 20
536.8676643077905
 10
6747.676592635685
 20
528.6198751494214
 10
6758.550402133489
 20
510.75575954588584
 10
6755.989532568272
 20
506.548616688743
 10
6744.322865901605
 20
506.548616688743
 10
6742.656199234938
 20
503.8105214506476
 10
6739.21046743173
 20
503.8105214506476
 10
6737.6
 20
506.4562893742025
 10
6735.996969539705
 20
503.8227393322878
 10
6724.330302873038
 20
501.08464409419264
 10
6722.625530878561
 20
498.2839472461247
 10
6719.292197545228
 20
501.02204248421987
 10
6714.282743037186
 20
492.7922243638654
 10
6709.262873286406
 20
498.29017694805424
 10
6700.974333892901
 20
490.1200452601715
 10
6697.648722451014
 20
490.1200452601715
 10
6682.589704002666
 20
470.8779661317277
 10
6680.933333333333
 20
473.5991465170596
 10
6679.266666666667
 20
470.8610512789644
 10
6676.666666666667
 20
475.132479850393
 10
6676.666666666667
 20
491.56105127896444
  0
LWPOLYLINE
  5
4F
330
17
100
AcDbEntity
  8
K
100
AcDbPolyline
 90
41
 70
1
 10
6550.000000000001
 20
464.1863938910331
 10
6550.000000000001
 20
469.65628937420246
 10
6545.000000000001
 20
477.8705750884882
 10
6545.000000000001
 20
486.0848608027739
 10
6539.989561389295
 20
494.3162956632188
 10
6542.554463840271
 20
501.33924285041564
 10
6545.9078024547725
 20
498.58471470278977
 10
6547.543800765063
 20
501.27242621255243
 10
6554.210467431729
 20
501.27242621255243
 10
6557.6
 20
506.84094400328337
 10
6559.299812169485
 20
504.048395439129
 10
6572.633145502819
 20
512.2626811534147
 10
6574.266666666667
 20
509.5790392413786
 10
6575.877134098396
 20
512.2248071649334
 10
6580.989532568272
 20
512.2248071649334
 10
6584.322865901605
 20
506.7486166887429
 10
6587.636992407622
 20
506.7486166887429
 10
6625.970325740956
 20
473.8914738316
 10
6629.322865901605
 20
473.8914738316
 10
6632.656199234938
 20
468.4152833554096
 10
6635.973295201963
 20
468.4152833554096
 10
6651.8940136499
 20
453.2726451323715
 10
6649.322865901605
 20
449.048616688743
 10
6644.302472500859
 20
449.048616688743
 10
6637.6454972053325
 20
443.580386981704
 10
6625.996969539704
 20
440.8465488560974
 10
6624.322865901605
 20
438.096235736362
 10
6619.302472500858
 20
438.096235736362
 10
6612.574469121439
 20
432.56966153183896
 10
6610.907802454772
 20
435.30775676993414
 10
6604.241135788106
 20
429.8315662937438
 10
6602.5744691214395
 20
432.56966153183896
 10
6595.9078024547725
 20
427.0934710556484
 10
6594.232812690893
 20
429.84523995345023
 10
6575.96092882026
 20
418.9295690696954
 10
6570.989532568271
 20
418.9295690696954
 10
6569.302419049854
 20
416.157882575152
 10
6566.687397280864
 20
417.5899183057893
 10
6556.669576679517
 20
442.2766905019633
 10
6555.003237071771
 20
453.22692221001057
 10
6550.000000000001
 20
464.1863938910331
  0
LWPOLYLINE
  5
50
330
17
100
AcDbEntity
  8
K
100
AcDbPolyline
 90
20
 70
1
 10
6419.210768128753
 20
443.7786915568919
 10
6445.992937819412
 20
441.02873663329746
 10
6447.656199234938
 20
438.296235736362
 10
6460.989532568272
 20
438.296235736362
 10
6463.525322190226
 20
434.1302956431522
 10
6465.200000000001
 20
428.627782839605
 10
6465.200000000001
 20
414.9504678128072
 10
6468.531456738638
 20
409.47736031361717
 10
6470.198123405305
 20
384.83450317075994
 10
6471.879053705447
 20
382.07297482052496
 10
6467.665564662644
 20
372.3819500220763
 10
6455.969139167525
 20
372.3819500220763
 10
6449.307465592217
 20
366.90986101378775
 10
6425.9934057951095
 20
364.1740274661681
 10
6424.319012207804
 20
361.42323800130805
 10
6411.717529230543
 20
362.803400422627
 10
6395.888451660464
 20
380.596235736362
 10
6390.841651625676
 20
380.596235736362
 10
6389.997759119736
 20
390.30099955467114
 10
6419.210768128753
 20
443.7786915568919
  0
ENDSEC
  0
SECTION
  2
OBJECTS
  0
DICTIONARY
  5
A
330
0
100
AcDbDictionary
281
1
  3
ACAD_COLOR
350
B
  3
ACAD_GROUP
350
C
  3
ACAD_LAYOUT
350
D
  3
ACAD_MATERIAL
350
E
  3
ACAD_MLEADERSTYLE
350
F
  3
ACAD_MLINESTYLE
350
10
  3
ACAD_PLOTSETTINGS
350
11
  3
ACAD_PLOTSTYLENAME
350
12
  3
ACAD_SCALELIST
350
14
  3
ACAD_TABLESTYLE
350
15
  3
ACAD_VISUALSTYLE
350
16
  3
EZDXF_META
350
2D
  0
DICTIONARY
  5
B
330
A
100
AcDbDictionary
281
1
  0
DICTIONARY
  5
C
330
A
100
AcDbDictionary
281
1
  0
DICTIONARY
  5
D
330
A
100
AcDbDictionary
281
1
  3
Model
350
1A
  3
Layout1
350
1E
  0
DICTIONARY
  5
E
330
A
100
AcDbDictionary
281
1
  3
ByBlock
350
1F
  3
ByLayer
350
20
  3
Global
350
21
  0
DICTIONARY
  5
F
330
A
100
AcDbDictionary
281
1
  3
Standard
350
2C
  0
DICTIONARY
  5
10
330
A
100
AcDbDictionary
281
1
  3
Standard
350
22
  0
DICTIONARY
  5
11
330
A
100
AcDbDictionary
281
1
  0
ACDBDICTIONARYWDFLT
  5
12
330
A
100
AcDbDictionary
281
1
  3
Normal
350
13
100
AcDbDictionaryWithDefault
340
13
  0
ACDBPLACEHOLDER
  5
13
330
12
  0
DICTIONARY
  5
14
330
A
100
AcDbDictionary
281
1
  0
DICTIONARY
  5
15
330
A
100
AcDbDictionary
281
1
  0
DICTIONARY
  5
16
330
A
100
AcDbDictionary
281
1
  0
LAYOUT
  5
1A
330
D
100
AcDbPlotSettings
  1

  4
A3
  6

 40
7.5
 41
20.0
 42
7.5
 43
20.0
 44
420.0
 45
297.0
 46
0.0
 47
0.0
 48
0.0
 49
0.0
140
0.0
141
0.0
142
1.0
143
1.0
 70
1024
 72
1
 73
0
 74
5
  7

 75
16
 76
0
 77
2
 78
300
147
1.0
148
0.0
149
0.0
100
AcDbLayout
  1
Model
 70
1
 71
0
 10
0.0
 20
0.0
 11
420.0
 21
297.0
 12
0.0
 22
0.0
 32
0.0
 14
1e+20
 24
1e+20
 34
1e+20
 15
-1e+20
 25
-1e+20
 35
-1e+20
146
0.0
 13
0.0
 23
0.0
 33
0.0
 16
1.0
 26
0.0
 36
0.0
 17
0.0
 27
1.0
 37
0.0
 76
1
330
17
  0
LAYOUT
  5
1E
330
D
100
AcDbPlotSettings
  1

  4
A3
  6

 40
7.5
 41
20.0
 42
7.5
 43
20.0
 44
420.0
 45
297.0
 46
0.0
 47
0.0
 48
0.0
 49
0.0
140
0.0
141
0.0
142
1.0
143
1.0
 70
0
 72
1
 73
0
 74
5
  7

 75
16
 76
0
 77
2
 78
300
147
1.0
148
0.0
149
0.0
100
AcDbLayout
  1
Layout1
 70
1
 71
1
 10
0.0
 20
0.0
 11
420.0
 21
297.0
 12
0.0
 22
0.0
 32
0.0
 14
1e+20
 24
1e+20
 34
1e+20
 15
-1e+20
 25
-1e+20
 35
-1e+20
146
0.0
 13
0.0
 23
0.0
 33
0.0
 16
1.0
 26
0.0
 36
0.0
 17
0.0
 27
1.0
 37
0.0
 76
1
330
1B
  0
MATERIAL
  5
1F
102
{ACAD_REACTORS
330
E
102
}
330
E
100
AcDbMaterial
  1
ByBlock
  2

 70
0
 40
1.0
 71
1
 41
1.0
 91
-1023410177
 42
1.0
 72
1
  3

 73
1
 74
1
 75
1
 44
0.5
 73
0
 45
1.0
 46
1.0
 77
1
  4

 78
1
 79
1
170
1
 48
1.0
171
1
  6

172
1
173
1
174
1
140
1.0
141
1.0
175
1
  7

176
1
177
1
178
1
143
1.0
179
1
  8

270
1
271
1
272
1
145
1.0
146
1.0
273
1
  9

274
1
275
1
276
1
 42
1.0
 72
1
  3

 73
1
 74
1
 75
1
 94
63
  0
MATERIAL
  5
20
102
{ACAD_REACTORS
330
E
102
}
330
E
100
AcDbMaterial
  1
ByLayer
  2

 70
0
 40
1.0
 71
1
 41
1.0
 91
-1023410177
 42
1.0
 72
1
  3

 73
1
 74
1
 75
1
 44
0.5
 73
0
 45
1.0
 46
1.0
 77
1
  4

 78
1
 79
1
170
1
 48
1.0
171
1
  6

172
1
173
1
174
1
140
1.0
141
1.0
175
1
  7

176
1
177
1
178
1
143
1.0
179
1
  8

270
1
271
1
272
1
145
1.0
146
1.0
273
1
  9

274
1
275
1
276
1
 42
1.0
 72
1
  3

 73
1
 74
1
 75
1
 94
63
  0
MATERIAL
  5
21
102
{ACAD_REACTORS
330
E
102
}
330
E
100
AcDbMaterial
  1
Global
  2

 70
0
 40
1.0
 71
1
 41
1.0
 91
-1023410177
 42
1.0
 72
1
  3

 73
1
 74
1
 75
1
 44
0.5
 73
0
 45
1.0
 46
1.0
 77
1
  4

 78
1
 79
1
170
1
 48
1.0
171
1
  6

172
1
173
1
174
1
140
1.0
141
1.0
175
1
  7

176
1
177
1
178
1
143
1.0
179
1
  8

270
1
271
1
272
1
145
1.0
146
1.0
273
1
  9

274
1
275
1
276
1
 42
1.0
 72
1
  3

 73
1
 74
1
 75
1
 94
63
  0
MLINESTYLE
  5
22
102
{ACAD_REACTORS
330
10
102
}
330
10
100
AcDbMlineStyle
  2
Standard
 70
0
  3

 62
256
 51
90.0
 52
90.0
 71
2
 49
0.5
 62
256
  6
BYLAYER
 49
-0.5
 62
256
  6
BYLAYER
  0
MLEADERSTYLE
  5
2C
102
{ACAD_REACTORS
330
F
102
}
330
F
100
AcDbMLeaderStyle
179
2
170
2
171
1
172
0
 90
2
 40
0.0
 41
0.0
173
1
 91
-1056964608
 92
-2
290
1
 42
2.0
291
1
 43
8.0
  3
Standard
 44
4.0
300

342
29
174
1
175
1
176
0
178
1
 93
-1056964608
 45
4.0
292
0
297
0
 46
4.0
 94
-1056964608
 47
1.0
 49
1.0
140
1.0
294
1
141
0.0
177
0
142
1.0
295
0
296
0
143
3.75
271
0
272
9
273
9
  0
DICTIONARY
  5
2D
330
A
100
AcDbDictionary
280
1
281
1
  3
CREATED_BY_EZDXF
350
2E
  3
WRITTEN_BY_EZDXF
350
53
  0
DICTIONARYVAR
  5
2E
330
2D
100
DictionaryVariables
280
0
  1
1.4.4 @ 2026-07-17T11:52:30.070993+00:00
  0
DICTIONARYVAR
  5
53
330
2D
100
DictionaryVariables
280
0
  1
1.4.4 @ 2026-07-17T11:52:30.079360+00:00
  0
ENDSEC
  0
EOF
