  0
SECTION
  2
HEADER
  9
$ACADVER
  1
AC1027
  9
$ACADMAINTVER
 70
105
  9
$DWGCODEPAGE
  3
ANSI_1252
  9
$LASTSAVEDBY
  1
ezdxf
  9
$REQUIREDVERSIONS
160
0
  9
$INSBASE
 10
0.0
 20
0.0
 30
0.0
  9
$EXTMIN
 10
1e+20
 20
1e+20
 30
1e+20
  9
$EXTMAX
 10
-1e+20
 20
-1e+20
 30
-1e+20
  9
$LIMMIN
 10
0.0
 20
0.0
  9
$LIMMAX
 10
420.0
 20
297.0
  9
$ORTHOMODE
 70
0
  9
$REGENMODE
 70
1
  9
$FILLMODE
 70
1
  9
$QTEXTMODE
 70
0
  9
$MIRRTEXT
 70
1
  9
$LTSCALE
 40
1.0
  9
$ATTMODE
 70
1
  9
$TEXTSIZE
 40
2.5
  9
$TRACEWID
 40
1.0
  9
$TEXTSTYLE
  7
Standard
  9
$CLAYER
  8
0
  9
$CELTYPE
  6
ByLayer
  9
$CECOLOR
 62
256
  9
$CELTSCALE
 40
1.0
  9
$DISPSILH
 70
0
  9
$DIMSCALE
 40
1.0
  9
$DIMASZ
 40
2.5
  9
$DIMEXO
 40
0.625
  9
$DIMDLI
 40
3.75
  9
$DIMRND
 40
0.0
  9
$DIMDLE
 40
0.0
  9
$DIMEXE
 40
1.25
  9
$DIMTP
 40
0.0
  9
$DIMTM
 40
0.0
  9
$DIMTXT
 40
2.5
  9
$DIMCEN
 40
2.5
  9
$DIMTSZ
 40
0.0
  9
$DIMTOL
 70
0
  9
$DIMLIM
 70
0
  9
$DIMTIH
 70
0
  9
$DIMTOH
 70
0
  9
$DIMSE1
 70
0
  9
$DIMSE2
 70
0
  9
$DIMTAD
 70
1
  9
$DIMZIN
 70
8
  9
$DIMBLK
  1

  9
$DIMASO
 70
1
  9
$DIMSHO
 70
1
  9
$DIMPOST
  1

  9
$DIMAPOST
  1

  9
$DIMALT
 70
0
  9
$DIMALTD
 70
3
  9
$DIMALTF
 40
0.03937007874
  9
$DIMLFAC
 40
1.0
  9
$DIMTOFL
 70
1
  9
$DIMTVP
 40
0.0
  9
$DIMTIX
 70
0
  9
$DIMSOXD
 70
0
  9
$DIMSAH
 70
0
  9
$DIMBLK1
  1

  9
$DIMBLK2
  1

  9
$DIMSTYLE
  2
ISO-25
  9
$DIMCLRD
 70
0
  9
$DIMCLRE
 70
0
  9
$DIMCLRT
 70
0
  9
$DIMTFAC
 40
1.0
  9
$DIMGAP
 40
0.625
  9
$DIMJUST
 70
0
  9
$DIMSD1
 70
0
  9
$DIMSD2
 70
0
  9
$DIMTOLJ
 70
0
  9
$DIMTZIN
 70
8
  9
$DIMALTZ
 70
0
  9
$DIMALTTZ
 70
0
  9
$DIMUPT
 70
0
  9
$DIMDEC
 70
2
  9
$DIMTDEC
 70
2
  9
$DIMALTU
 70
2
  9
$DIMALTTD
 70
3
  9
$DIMTXSTY
  7
Standard
  9
$DIMAUNIT
 70
0
  9
$DIMADEC
 70
0
  9
$DIMALTRND
 40
0.0
  9
$DIMAZIN
 70
0
  9
$DIMDSEP
 70
44
  9
$DIMATFIT
 70
3
  9
$DIMFRAC
 70
0
  9
$DIMLDRBLK
  1

  9
$DIMLUNIT
 70
2
  9
$DIMLWD
 70
-2
  9
$DIMLWE
 70
-2
  9
$DIMTMOVE
 70
0
  9
$DIMFXL
 40
1.0
  9
$DIMFXLON
 70
0
  9
$DIMJOGANG
 40
0.785398163397
  9
$DIMTFILL
 70
0
  9
$DIMTFILLCLR
 70
0
  9
$DIMARCSYM
 70
0
  9
$DIMLTYPE
  6

  9
$DIMLTEX1
  6

  9
$DIMLTEX2
  6

  9
$DIMTXTDIRECTION
 70
0
  9
$LUNITS
 70
2
  9
$LUPREC
 70
4
  9
$SKETCHINC
 40
1.0
  9
$FILLETRAD
 40
10.0
  9
$AUNITS
 70
0
  9
$AUPREC
 70
2
  9
$MENU
  1
.
  9
$ELEVATION
 40
0.0
  9
$PELEVATION
 40
0.0
  9
$THICKNESS
 40
0.0
  9
$LIMCHECK
 70
0
  9
$CHAMFERA
 40
0.0
  9
$CHAMFERB
 40
0.0
  9
$CHAMFERC
 40
0.0
  9
$CHAMFERD
 40
0.0
  9
$SKPOLY
 70
0
  9
$TDCREATE
 40
2461239.5755208335
  9
$TDUCREATE
 40
2458532.153996898
  9
$TDUPDATE
 40
2461239.5755208335
  9
$TDUUPDATE
 40
2458532.1544311
  9
$TDINDWG
 40
0.0
  9
$TDUSRTIMER
 40
0.0
  9
$USRTIMER
 70
1
  9
$ANGBASE
 50
0.0
  9
$ANGDIR
 70
0
  9
$PDMODE
 70
0
  9
$PDSIZE
 40
0.0
  9
$PLINEWID
 40
0.0
  9
$SPLFRAME
 70
0
  9
$SPLINETYPE
 70
6
  9
$SPLINESEGS
 70
8
  9
$HANDSEED
  5
47
  9
$SURFTAB1
 70
6
  9
$SURFTAB2
 70
6
  9
$SURFTYPE
 70
6
  9
$SURFU
 70
6
  9
$SURFV
 70
6
  9
$UCSBASE
  2

  9
$UCSNAME
  2

  9
$UCSORG
 10
0.0
 20
0.0
 30
0.0
  9
$UCSXDIR
 10
1.0
 20
0.0
 30
0.0
  9
$UCSYDIR
 10
0.0
 20
1.0
 30
0.0
  9
$UCSORTHOREF
  2

  9
$UCSORTHOVIEW
 70
0
  9
$UCSORGTOP
 10
0.0
 20
0.0
 30
0.0
  9
$UCSORGBOTTOM
 10
0.0
 20
0.0
 30
0.0
  9
$UCSORGLEFT
 10
0.0
 20
0.0
 30
0.0
  9
$UCSORGRIGHT
 10
0.0
 20
0.0
 30
0.0
  9
$UCSORGFRONT
 10
0.0
 20
0.0
 30
0.0
  9
$UCSORGBACK
 10
0.0
 20
0.0
 30
0.0
  9
$PUCSBASE
  2

  9
$PUCSNAME
  2

  9
$PUCSORG
 10
0.0
 20
0.0
 30
0.0
  9
$PUCSXDIR
 10
1.0
 20
0.0
 30
0.0
  9
$PUCSYDIR
 10
0.0
 20
1.0
 30
0.0
  9
$PUCSORTHOREF
  2

  9
$PUCSORTHOVIEW
 70
0
  9
$PUCSORGTOP
 10
0.0
 20
0.0
 30
0.0
  9
$PUCSORGBOTTOM
 10
0.0
 20
0.0
 30
0.0
  9
$PUCSORGLEFT
 10
0.0
 20
0.0
 30
0.0
  9
$PUCSORGRIGHT
 10
0.0
 20
0.0
 30
0.0
  9
$PUCSORGFRONT
 10
0.0
 20
0.0
 30
0.0
  9
$PUCSORGBACK
 10
0.0
 20
0.0
 30
0.0
  9
$USERI1
 70
0
  9
$USERI2
 70
0
  9
$USERI3
 70
0
  9
$USERI4
 70
0
  9
$USERI5
 70
0
  9
$USERR1
 40
0.0
  9
$USERR2
 40
0.0
  9
$USERR3
 40
0.0
  9
$USERR4
 40
0.0
  9
$USERR5
 40
0.0
  9
$WORLDVIEW
 70
1
  9
$SHADEDGE
 70
3
  9
$SHADEDIF
 70
70
  9
$TILEMODE
 70
1
  9
$MAXACTVP
 70
64
  9
$PINSBASE
 10
0.0
 20
0.0
 30
0.0
  9
$PLIMCHECK
 70
0
  9
$PEXTMIN
 10
1e+20
 20
1e+20
 30
1e+20
  9
$PEXTMAX
 10
-1e+20
 20
-1e+20
 30
-1e+20
  9
$PLIMMIN
 10
0.0
 20
0.0
  9
$PLIMMAX
 10
420.0
 20
297.0
  9
$UNITMODE
 70
0
  9
$VISRETAIN
 70
1
  9
$PLINEGEN
 70
0
  9
$PSLTSCALE
 70
1
  9
$TREEDEPTH
 70
3020
  9
$CMLSTYLE
  2
Standard
  9
$CMLJUST
 70
0
  9
$CMLSCALE
 40
20.0
  9
$PROXYGRAPHICS
 70
1
  9
$MEASUREMENT
 70
1
  9
$CELWEIGHT
370
-1
  9
$ENDCAPS
280
0
  9
$JOINSTYLE
280
0
  9
$LWDISPLAY
290
0
  9
$INSUNITS
 70
4
  9
$HYPERLINKBASE
  1

  9
$STYLESHEET
  1

  9
$XEDIT
290
1
  9
$CEPSNTYPE
380
0
  9
$PSTYLEMODE
290
1
  9
$FINGERPRINTGUID
  2
{E019F332-ABDA-439E-BCFF-62E505A5302C}
  9
$VERSIONGUID
  2
{F0A62EA7-1DCC-476A-9C3C-47CEC7B4DA55}
  9
$EXTNAMES
290
1
  9
$PSVPSCALE
 40
0.0
  9
$OLESTARTUP
290
0
  9
$SORTENTS
280
127
  9
$INDEXCTL
280
0
  9
$HIDETEXT
280
1
  9
$XCLIPFRAME
280
1
  9
$HALOGAP
280
0
  9
$OBSCOLOR
 70
257
  9
$OBSLTYPE
280
0
  9
$INTERSECTIONDISPLAY
280
0
  9
$INTERSECTIONCOLOR
 70
257
  9
$DIMASSOC
280
2
  9
$PROJECTNAME
  1

  9
$CAMERADISPLAY
290
0
  9
$LENSLENGTH
 40
50.0
  9
$CAMERAHEIGHT
 40
0.0
  9
$STEPSPERSEC
 40
24.0
  9
$STEPSIZE
 40
100.0
  9
$3DDWFPREC
 40
2.0
  9
$PSOLWIDTH
 40
0.005
  9
$PSOLHEIGHT
 40
0.08
  9
$LOFTANG1
 40
1.570796326795
  9
$LOFTANG2
 40
1.570796326795
  9
$LOFTMAG1
 40
0.0
  9
$LOFTMAG2
 40
0.0
  9
$LOFTPARAM
 70
7
  9
$LOFTNORMALS
280
1
  9
$LATITUDE
 40
37.795
  9
$LONGITUDE
 40
-122.394
  9
$NORTHDIRECTION
 40
0.0
  9
$TIMEZONE
 70
-8000
  9
$LIGHTGLYPHDISPLAY
280
1
  9
$TILEMODELIGHTSYNCH
280
1
  9
$CMATERIAL
347
20
  9
$SOLIDHIST
280
0
  9
$SHOWHIST
280
1
  9
$DWFFRAME
280
2
  9
$DGNFRAME
280
2
  9
$REALWORLDSCALE
290
1
  9
$INTERFERECOLOR
 62
256
  9
$CSHADOW
280
0
  9
$SHADOWPLANELOCATION
 40
0.0
  0
ENDSEC
  0
SECTION
  2
CLASSES
  0
CLASS
  1
ACDBDICTIONARYWDFLT
  2
AcDbDictionaryWithDefault
  3
ObjectDBX Classes
 90
0
 91
0
280
0
281
0
  0
CLASS
  1
SUN
  2
AcDbSun
  3
SCENEOE
 90
1153
 91
0
280
0
281
0
  0
CLASS
  1
VISUALSTYLE
  2
AcDbVisualStyle
  3
ObjectDBX Classes
 90
4095
 91
0
280
0
281
0
  0
CLASS
  1
MATERIAL
  2
AcDbMaterial
  3
ObjectDBX Classes
 90
1153
 91
0
280
0
281
0
  0
CLASS
  1
SCALE
  2
AcDbScale
  3
ObjectDBX Classes
 90
1153
 91
0
280
0
281
0
  0
CLASS
  1
TABLESTYLE
  2
AcDbTableStyle
  3
ObjectDBX Classes
 90
4095
 91
0
280
0
281
0
  0
CLASS
  1
MLEADERSTYLE
  2
AcDbMLeaderStyle
  3
ACDB_MLEADERSTYLE_CLASS
 90
4095
 91
0
280
0
281
0
  0
CLASS
  1
DICTIONARYVAR
  2
AcDbDictionaryVar
  3
ObjectDBX Classes
 90
0
 91
0
280
0
281
0
  0
CLASS
  1
CELLSTYLEMAP
  2
AcDbCellStyleMap
  3
ObjectDBX Classes
 90
1152
 91
0
280
0
281
0
  0
CLASS
  1
MENTALRAYRENDERSETTINGS
  2
AcDbMentalRayRenderSettings
  3
SCENEOE
 90
1024
 91
0
280
0
281
0
  0
CLASS
  1
ACDBDETAILVIEWSTYLE
  2
AcDbDetailViewStyle
  3
ObjectDBX Classes
 90
1025
 91
0
280
0
281
0
  0
CLASS
  1
ACDBSECTIONVIEWSTYLE
  2
AcDbSectionViewStyle
  3
ObjectDBX Classes
 90
1025
 91
0
280
0
281
0
  0
CLASS
  1
RASTERVARIABLES
  2
AcDbRasterVariables
  3
ISM
 90
0
 91
0
280
0
281
0
  0
CLASS
  1
ACDBPLACEHOLDER
  2
AcDbPlaceHolder
  3
ObjectDBX Classes
 90
0
 91
0
280
0
281
0
  0
CLASS
  1
LAYOUT
  2
AcDbLayout
  3
ObjectDBX Classes
 90
0
 91
0
280
0
281
0
  0
ENDSEC
  0
SECTION
  2
TABLES
  0
TABLE
  2
VPORT
  5
8
330
0
100
AcDbSymbolTable
 70
1
  0
VPORT
  5
23
330
8
100
AcDbSymbolTableRecord
100
AcDbViewportTableRecord
  2
*Active
 70
0
 10
0.0
 20
0.0
 11
1.0
 21
1.0
 12
0.0
 22
0.0
 13
0.0
 23
0.0
 14
0.5
 24
0.5
 15
0.5
 25
0.5
 16
0.0
 26
0.0
 36
1.0
 17
0.0
 27
0.0
 37
0.0
 40
1000.0
 41
1.34
 42
50.0
 43
0.0
 44
0.0
 50
0.0
 51
0.0
 71
0
 72
1000
 73
1
 74
3
 75
0
 76
0
 77
0
 78
0
281
0
 65
0
146
0.0
  0
ENDTAB
  0
TABLE
  2
LTYPE
  5
2
330
0
100
AcDbSymbolTable
 70
3
  0
LTYPE
  5
24
330
2
100
AcDbSymbolTableRecord
100
AcDbLinetypeTableRecord
  2
ByBlock
 70
0
  3

 72
65
 73
0
 40
0.0
  0
LTYPE
  5
25
330
2
100
AcDbSymbolTableRecord
100
AcDbLinetypeTableRecord
  2
ByLayer
 70
0
  3

 72
65
 73
0
 40
0.0
  0
LTYPE
  5
26
330
2
100
AcDbSymbolTableRecord
100
AcDbLinetypeTableRecord
  2
Continuous
 70
0
  3

 72
65
 73
0
 40
0.0
  0
ENDTAB
  0
TABLE
  2
LAYER
  5
1
330
0
100
AcDbSymbolTable
 70
3
  0
LAYER
  5
27
330
1
100
AcDbSymbolTableRecord
100
AcDbLayerTableRecord
  2
0
 70
0
 62
7
  6
Continuous
370
-3
390
13
347
21
  0
LAYER
  5
28
330
1
100
AcDbSymbolTableRecord
100
AcDbLayerTableRecord
  2
Defpoints
 70
0
 62
7
  6
Continuous
290
0
370
-3
390
13
347
21
  0
LAYER
  5
2F
330
1
100
AcDbSymbolTableRecord
100
AcDbLayerTableRecord
  2
K
 70
0
 62
7
  6
Continuous
370
-3
390
13
347
21
  0
ENDTAB
  0
TABLE
  2
STYLE
  5
5
330
0
100
AcDbSymbolTable
 70
1
  0
STYLE
  5
29
330
5
100
AcDbSymbolTableRecord
100
AcDbTextStyleTableRecord
  2
Standard
 70
0
 40
0.0
 41
1.0
 50
0.0
 71
0
 42
2.5
  3
txt
  4

  0
ENDTAB
  0
TABLE
  2
VIEW
  5
7
330
0
100
AcDbSymbolTable
 70
0
  0
ENDTAB
  0
TABLE
  2
UCS
  5
6
330
0
100
AcDbSymbolTable
 70
0
  0
ENDTAB
  0
TABLE
  2
APPID
  5
3
330
0
100
AcDbSymbolTable
 70
3
  0
APPID
  5
2A
330
3
100
AcDbSymbolTableRecord
100
AcDbRegAppTableRecord
  2
ACAD
 70
0
  0
APPID
  5
44
330
3
100
AcDbSymbolTableRecord
100
AcDbRegAppTableRecord
  2
HATCHBACKGROUNDCOLOR
 70
0
  0
APPID
  5
45
330
3
100
AcDbSymbolTableRecord
100
AcDbRegAppTableRecord
  2
EZDXF
 70
0
  0
ENDTAB
  0
TABLE
  2
DIMSTYLE
  5
4
330
0
100
AcDbSymbolTable
 70
1
100
AcDbDimStyleTable
  0
DIMSTYLE
105
2B
330
4
100
AcDbSymbolTableRecord
100
AcDbDimStyleTableRecord
  2
Standard
 70
0
 40
1.0
 41
2.5
 42
0.625
 43
3.75
 44
1.25
 45
0.0
 46
0.0
 47
0.0
 48
0.0
 49
2.5
140
2.5
141
2.5
142
0.0
143
0.03937007874
144
1.0
145
0.0
146
1.0
147
0.625
148
0.0
 69
0
 70
0
 71
0
 72
0
 73
0
 74
0
 75
0
 76
0
 77
1
 78
8
 79
3
170
0
171
3
172
1
173
0
174
0
175
0
176
0
177
0
178
0
179
2
271
2
272
2
273
2
274
3
275
0
276
0
277
2
278
44
279
0
280
0
281
0
282
0
283
0
284
8
285
0
286
0
288
0
289
3
290
0
371
-2
372
-2
  0
ENDTAB
  0
TABLE
  2
BLOCK_RECORD
  5
9
330
0
100
AcDbSymbolTable
 70
2
  0
BLOCK_RECORD
  5
17
330
9
100
AcDbSymbolTableRecord
100
AcDbBlockTableRecord
  2
*Model_Space
340
1A
 70
0
280
1
281
0
  0
BLOCK_RECORD
  5
1B
330
9
100
AcDbSymbolTableRecord
100
AcDbBlockTableRecord
  2
*Paper_Space
340
1E
 70
0
280
1
281
0
  0
ENDTAB
  0
ENDSEC
  0
SECTION
  2
BLOCKS
  0
BLOCK
  5
18
330
17
100
AcDbEntity
  8
0
100
AcDbBlockBegin
  2
*Model_Space
 70
0
 10
0.0
 20
0.0
 30
0.0
  3
*Model_Space
  1

  0
ENDBLK
  5
19
330
17
100
AcDbEntity
  8
0
100
AcDbBlockEnd
  0
BLOCK
  5
1C
330
1B
100
AcDbEntity
  8
0
100
AcDbBlockBegin
  2
*Paper_Space
 70
0
 10
0.0
 20
0.0
 30
0.0
  3
*Paper_Space
  1

  0
ENDBLK
  5
1D
330
1B
100
AcDbEntity
  8
0
100
AcDbBlockEnd
  0
ENDSEC
  0
SECTION
  2
ENTITIES
  0
LWPOLYLINE
  5
30
330
17
100
AcDbEntity
  8
K
100
AcDbPolyline
 90
247
 70
1
 10
293.34204215240055
 20
56.20481239273398
 10
293.34204215240055
 20
67.20698155260344
 10
298.34204215240055
 20
78.15936250498437
 10
298.34204215240055
 20
97.33232416467213
 10
301.6583066855788
 20
102.78047304060783
 10
300.0087088190673
 20
105.49052667844822
 10
300.0087088190673
 20
111.02280035514828
 10
301.67537548573387
 20
113.76089559324359
 10
301.67537548573387
 20
121.97518130752933
 10
305.0087088190673
 20
127.45137178371974
 10
305.0087088190673
 20
138.40375273610067
 10
308.34204215240055
 20
143.87994321229118
 10
308.34204215240055
 20
149.3561336884816
 10
311.66666666666663
 20
154.81801681906177
 10
309.9985014168487
 20
160.2991312113207
 10
319.9885640284885
 20
173.9760026439227
 10
318.32497335224554
 20
176.7090444691792
 10
323.31839240664783
 20
184.9125186299832
 10
312.54523448097524
 20
197.16550594105036
 10
302.53720405269394
 20
202.6460940327282
 10
297.5525095841295
 20
210.83523494536965
 10
294.2191762507962
 20
210.83523494536965
 10
289.2191762507962
 20
219.04952065965537
 10
284.2191762507962
 20
219.04952065965537
 10
276.6607898385143
 20
231.46686976554724
 10
285.88106265131006
 20
249.36856827870295
 10
287.5562077006708
 20
249.36856827870295
 10
301.67537548573387
 20
269.8354291436053
 10
301.67537548573387
 20
275.2988522352872
 10
310.0087088190672
 20
297.20361414004907
 10
310.0087088190672
 20
302.67630585813646
 10
313.33333333333337
 20
313.6000721192968
 10
307.5525095841295
 20
323.09713970727444
 10
304.22774495493366
 20
323.09713970727444
 10
297.56107828826697
 20
331.31142542156016
 10
294.22920793200757
 20
331.31142542156016
 10
282.5483088047375
 20
345.01860296886707
 10
275.87891375114424
 20
347.75781879445003
 10
267.5591405928357
 20
358.69237780251257
 10
262.55250958412955
 20
358.69237780251257
 10
256.6688497595677
 20
368.3583903714355
 10
261.6743926876711
 20
390.28743558026906
 10
260.00772602100443
 20
409.45410224693575
 10
265.0138732006337
 20
431.3857946529312
 10
272.54679603402224
 20
446.51142542156015
 10
280.88584291746287
 20
446.51142542156015
 10
282.5525095841296
 20
449.24952065965533
 10
302.5525095841295
 20
449.24952065965533
 10
304.2191762507962
 20
451.9876158977507
 10
312.5525095841295
 20
451.9876158977507
 10
314.2191762507962
 20
454.72571113584587
 10
322.5525095841295
 20
454.72571113584587
 10
324.2556261737356
 20
457.5236883901988
 10
328.5420421524006
 20
453.2985069255148
 10
328.5420421524006
 20
431.3238600117816
 10
325.2191474297729
 20
425.86481868175025
 10
327.67864757697265
 20
419.13047304060774
 10
339.21917625079624
 20
419.13047304060774
 10
340.8858429174629
 20
421.86856827870304
 10
349.21917625079624
 20
421.86856827870304
 10
350.8858429174628
 20
424.6066635167983
 10
359.21917625079624
 20
424.6066635167983
 10
360.88584291746287
 20
427.34475875489346
 10
379.21917625079624
 20
427.34475875489346
 10
380.88584291746287
 20
430.0828539929887
 10
387.55250958412955
 20
430.0828539929887
 10
390.0043740842596
 20
434.11091710034526
 10
388.3461967944912
 20
445.00751071882297
 10
385.88584291746287
 20
449.04952065965534
 10
382.55250958412944
 20
449.04952065965534
 10
377.55250958412955
 20
457.2638063739411
 10
374.2191762507961
 20
457.2638063739411
 10
370.87053738602725
 20
462.7651416517759
 10
365.87053738602725
 20
465.5032368898711
 10
363.3420421524006
 20
469.657193345115
 10
363.3420421524006
 20
475.2032688302768
 10
367.52833997247416
 20
479.3297623957778
 10
385.8833258636715
 20
512.2257111358459
 10
387.55250958412955
 20
512.2257111358459
 10
398.3221694371827
 20
529.9187237515758
 10
387.5574591449411
 20
544.8828539929887
 10
384.2191762507962
 20
544.8828539929887
 10
378.34204215240055
 20
554.5381457260675
 10
378.34204215240055
 20
557.3191630009937
 10
383.3489140909523
 20
573.7703136562349
 10
391.6753754857339
 20
590.1853375488045
 10
391.6753754857339
 20
595.6656574980053
 10
398.3500532955091
 20
606.6311996140645
 10
401.66666666666674
 20
617.5286435478682
 10
399.2191762507962
 20
621.5495206596553
 10
394.3315747206716
 20
621.5495206596553
 10
392.66978534264473
 20
618.81943811004
 10
374.31748787229236
 20
616.0785105657667
 10
367.6445146532585
 20
610.5971397072744
 10
355.9778479865918
 20
610.5971397072744
 10
349.3111813199252
 20
605.1209492310841
 10
339.33157472067165
 20
605.1209492310841
 10
337.66490805400497
 20
602.3828539929888
 10
334.20981082309044
 20
602.3828539929888
 10
330.0087088190672
 20
612.0453886022424
 10
330.0087088190672
 20
617.5143362022577
 10
323.3420421524006
 20
628.4667171546388
 10
323.3420421524006
 20
633.9560687945076
 10
320.0167199621757
 20
644.8821274195318
 10
315.01418677206584
 20
653.1005748032838
 10
313.3491755565285
 20
661.306701508432
 10
307.5625412653409
 20
668.0971397072743
 10
290.88584291746287
 20
668.0971397072743
 10
289.2191762507962
 20
670.8352349453696
 10
285.88584291746275
 20
670.8352349453696
 10
280.00870881906724
 20
680.4905266784482
 10
280.00870881906724
 20
685.9667171546389
 10
273.3500532955091
 20
696.9059369433414
 10
268.3500532955092
 20
713.3345083719126
 10
263.3461967944912
 20
721.555129766442
 10
261.6703131016397
 20
732.5680797480383
 10
271.67537548573387
 20
746.2654865834055
 10
271.67537548573387
 20
748.9589505828942
 10
268.34204215240067
 20
762.6494267733704
 10
268.34204215240067
 20
770.8476695355911
 10
265.00870881906724
 20
776.3238600117817
 10
265.00870881906724
 20
781.800050487972
 10
263.3444466992897
 20
784.5341953990352
 10
261.6773965059853
 20
803.7052726220362
 10
254.19329734040718
 20
818.7328685656179
 10
249.99542898906557
 20
822.8707673690832
 10
253.35005329550918
 20
833.8931043759694
 10
258.34204215240067
 20
842.0942289265768
 10
258.34204215240067
 20
847.5631765265921
 10
262.54314415642386
 20
857.2257111358457
 10
354.33157472067154
 20
857.2257111358457
 10
355.9982413873383
 20
854.4876158977506
 10
367.67427348171066
 20
854.4876158977506
 10
371.8877625245144
 20
844.7965910993016
 10
365.20870881906717
 20
833.8238600117816
 10
365.20870881906717
 20
828.3608306992694
 10
361.86736434262525
 20
817.3821274195317
 10
354.33157472067154
 20
805.0019016120362
 10
344.33157472067154
 20
805.0019016120362
 10
340.20870881906717
 20
798.2286219165435
 10
340.20870881906717
 20
787.3411118366471
 10
345.9882097061269
 20
780.5590444691792
 10
352.55250958412955
 20
780.5590444691792
 10
354.2138385131163
 20
783.2883705668002
 10
370.880505179783
 20
786.0264658048955
 10
372.55250958412944
 20
788.773330183465
 10
384.2191762507962
 20
788.773330183465
 10
385.88584291746287
 20
791.51142542156
 10
410.9982413873382
 20
791.51142542156
 10
412.6649080540049
 20
788.773330183465
 10
422.64451465325845
 20
788.773330183465
 10
429.3111813199252
 20
783.2971397072744
 10
432.65281674517496
 20
783.2971397072744
 10
447.68909067166516
 20
766.8288396925471
 10
453.53656419940216
 20
757.2222760398366
 10
455.2044343163985
 20
749.0020590346398
 10
460.2087088190673
 20
738.0403148859367
 10
460.2087088190673
 20
688.7048123927337
 10
458.5420421524006
 20
685.9667171546387
 10
458.5420421524006
 20
680.490526678448
 10
455.20870881906717
 20
675.0143362022576
 10
455.20870881906717
 20
666.8152632774269
 10
450.2087088190673
 20
647.6485966107604
 10
450.2087088190673
 20
642.163488338136
 10
445.20870881906717
 20
631.2111073857551
 10
445.20870881906717
 20
620.2524314403528
 10
443.5420421524004
 20
617.5143362022575
 10
443.5420421524004
 20
590.1894670218151
 10
445.20870881906717
 20
587.4513717837198
 10
445.20870881906717
 20
581.9751813075294
 10
450.2053644882705
 20
573.7663898509812
 10
451.872031154937
 20
560.075913660505
 10
453.54204215240065
 20
557.3323241646722
 10
453.54204215240065
 20
513.4667171546386
 10
451.87537548573374
 20
510.7286219165432
 10
451.87537548573374
 20
494.30005048797193
 10
450.2087088190673
 20
491.56195524987663
 10
450.2087088190673
 20
486.0920597667075
 10
445.2048463271271
 20
475.13121811769605
 10
440.2037559395976
 20
447.7442945669385
 10
435.20455417697633
 20
439.53132024263215
 10
433.53848846168455
 20
428.58288839928485
 10
425.2018368805155
 20
412.14777528212346
 10
421.8673643426254
 20
401.1916512290557
 10
413.534031009292
 20
387.50117503857945
 10
410.2006976759587
 20
376.54879408619854
 10
401.8753754857339
 20
362.8714790594007
 10
401.8753754857339
 20
360.1245961493304
 10
396.0258544259482
 20
353.26036225264295
 10
387.67011352129265
 20
336.7876158977506
 10
385.9982413873383
 20
336.7876158977506
 10
367.6899872570334
 20
306.7097698265355
 10
356.02332059036667
 20
293.01929363605933
 10
347.66490805400497
 20
279.2876158977506
 10
344.32682596851004
 20
279.2876158977506
 10
321.8951294251121
 20
247.89510935950315
 10
326.0056783587714
 20
241.14206468277703
 10
337.6665359191885
 20
238.40533280635273
 10
345.991610378632
 20
227.46380637394108
 10
349.33157472067165
 20
227.46380637394108
 10
360.20870881906717
 20
209.59422892657693
 10
360.20870881906717
 20
195.84766953559102
 10
358.5420421524005
 20
193.1095742974958
 10
358.5420421524005
 20
86.37994321229122
 10
360.9420421524006
 20
82.43708606943403
 10
362.55250958412944
 20
85.08285399298873
 10
369.2395696515427
 20
85.08285399298873
 10
375.9062363182093
 20
90.55904446917926
 10
379.21917625079624
 20
90.55904446917926
 10
380.88584291746287
 20
93.29713970727447
 10
387.572902984876
 20
93.29713970727447
 10
394.23956965154264
 20
98.77333018346496
 10
399.231267559626
 20
98.77333018346496
 10
414.231267559626
 20
115.20190161203631
 10
419.2191762507962
 20
115.20190161203631
 10
422.6087088190672
 20
120.77041940276739
 10
424.2914518562534
 20
118.00591298453305
 10
429.231267559626
 20
123.41618732632203
 10
437.5591405928357
 20
123.41618732632203
 10
445.8789137511444
 20
134.35074633438464
 10
452.5403551195425
 20
137.08669546783398
 10
455.8784059460296
 20
142.5706361113485
 10
467.5450726126963
 20
145.30873134944372
 10
472.53498772658463
 20
153.50644903654626
 10
480.86832105991795
 20
158.98263951273677
 10
484.21917625079624
 20
164.48761589775057
 10
487.559140592836
 20
164.48761589775057
 10
495.8924739261693
 20
175.43999685013162
 10
499.22458298490767
 20
175.43999685013162
 10
509.2135982794922
 20
189.11543445581296
 10
517.542461675481
 20
191.85206100020918
 10
524.2191762507963
 20
202.82094923108392
 10
527.5525095841294
 20
202.82094923108392
 10
535.885842917463
 20
216.51142542156015
 10
539.2222846745342
 20
216.51142542156015
 10
555.8889513412007
 20
241.15428256441723
 10
557.5525095841296
 20
241.15428256441723
 10
568.3420421524005
 20
258.8799432122914
 10
568.3420421524005
 20
264.3649213604567
 10
574.2889218920616
 20
271.3434026876101
 10
578.5420421524007
 20
264.3561336884818
 10
578.5420421524007
 20
34.30005048797188
 10
575.9980743962708
 20
30.120674888615863
 10
295.052343049936
 20
31.490270442021075
 10
293.33957836252864
 20
34.30409814276164
 10
295.0062450291954
 20
53.4707648094283
 10
293.34204215240055
 20
56.20481239273398
  0
LWPOLYLINE
  5
31
330
17
100
AcDbEntity
  8
K
100
AcDbPolyline
 90
31
 70
1
 10
413.35353735704774
 20
666.875018667545
 10
418.34204215240055
 20
677.8022196478415
 10
418.34204215240055
 20
683.2761805052432
 10
421.675375485734
 20
691.4904662195289
 10
421.675375485734
 20
702.4513717837195
 10
423.34204215240055
 20
705.1894670218148
 10
423.34204215240055
 20
729.7762409641626
 10
421.675375485734
 20
732.5143362022577
 10
421.675375485734
 20
737.9863365888464
 10
410.8907924782743
 20
752.9780920882267
 10
402.5525095841295
 20
752.9780920882267
 10
400.88584291746275
 20
755.716187326322
 10
395.9982413873383
 20
755.716187326322
 10
394.3315747206716
 20
752.9780920882267
 10
380.9982413873383
 20
752.9780920882267
 10
379.3315747206717
 20
750.2399968501317
 10
374.31948341184176
 20
750.2399968501317
 10
369.3194834118418
 20
744.7638063739411
 10
364.3194834118417
 20
744.7638063739411
 10
359.3194834118418
 20
739.2876158977506
 10
355.9982413873383
 20
739.2876158977506
 10
350.20630427217804
 20
729.7722906371305
 10
348.5447255218561
 20
710.6641350084286
 10
366.01997625952475
 20
684.6890174153634
 10
379.3175730998667
 20
671.0352349453697
 10
382.6548763727935
 20
671.0352349453697
 10
394.3215430394602
 20
657.3447587548935
 10
397.664908054005
 20
657.3447587548935
 10
400.9675730309619
 20
651.9189520070354
 10
407.53211618338327
 20
657.31125531081
 10
413.35353735704774
 20
666.875018667545
  0
LWPOLYLINE
  5
32
330
17
100
AcDbEntity
  8
K
100
AcDbPolyline
 90
18
 70
1
 10
564.2191762507963
 20
810.4780920882268
 10
560.0087088190671
 20
817.3952885832099
 10
560.0087088190671
 20
822.8714790594003
 10
557.5525095841296
 20
826.9066635167981
 10
554.2191762507961
 20
826.9066635167981
 10
547.5525095841294
 20
837.8590444691791
 10
542.5525095841293
 20
837.8590444691791
 10
539.2191762507962
 20
843.3352349453695
 10
532.5525095841296
 20
843.3352349453695
 10
530.0087088190674
 20
847.5143362022575
 10
530.0087088190674
 20
853.0466098789577
 10
532.5525095841296
 20
857.2257111358457
 10
575.9982413873382
 20
857.2257111358457
 10
578.5420421524007
 20
853.0466098789577
 10
578.5420421524007
 20
809.1810028689241
 10
574.2870762496411
 20
802.1907017429623
 10
567.561078288267
 20
810.4780920882268
 10
564.2191762507963
 20
810.4780920882268
  0
LWPOLYLINE
  5
33
330
17
100
AcDbEntity
  8
K
100
AcDbPolyline
 90
13
 70
1
 10
287.5677082594996
 20
583.2161873263219
 10
282.5525095841296
 20
583.2161873263219
 10
278.3206357495603
 20
590.1685514831146
 10
285.8933197013873
 20
599.8447587548934
 10
329.33157472067165
 20
599.8447587548934
 10
331.88776252451436
 20
595.645307362866
 10
327.69269655901746
 20
585.9966556422231
 10
323.5275348742949
 20
581.8909962672823
 10
317.67209193569533
 20
566.7743935788571
 10
310.06250431130854
 20
568.1634452880706
 10
302.5699347737462
 20
575.0019016120362
 10
295.90104159283294
 20
575.0019016120362
 10
287.5677082594996
 20
583.2161873263219
  0
LWPOLYLINE
  5
34
330
17
100
AcDbEntity
  8
K
100
AcDbPolyline
 90
12
 70
1
 10
1.675375485733932
 20
48.04660987895784
 10
5.885842917462858
 20
54.96380637394113
 10
50.885842917462895
 20
54.96380637394113
 10
52.552509584129496
 20
57.701901612036366
 10
67.66490805400494
 20
57.701901612036366
 10
70.20870881906727
 20
53.522800355148334
 10
70.20870881906727
 20
34.30005048797208
 10
67.66419256768552
 20
30.119773789273662
 10
1.7008161253270204
 20
31.491525740606622
 10
0.0
 20
37.07992158096651
 10
1.675375485733932
 20
39.83232416467214
 10
1.675375485733932
 20
48.04660987895784
  0
LWPOLYLINE
  5
35
330
17
100
AcDbEntity
  8
K
100
AcDbPolyline
 90
66
 70
1
 10
975.881353301585
 20
375.12832502859766
 10
955.881353301585
 20
377.8664202666929
 10
954.2191762507962
 20
380.59713970727444
 10
942.5493021200131
 20
380.59713970727444
 10
914.2159687866798
 20
432.620949231084
 10
907.6528167451752
 20
432.620949231084
 10
902.6528167451751
 20
427.1447587548935
 10
897.6445146532585
 20
427.1447587548935
 10
890.9778479865919
 20
421.6685682787031
 10
884.3111813199251
 20
421.6685682787031
 10
877.6445146532585
 20
416.19237780251257
 10
870.9982413873382
 20
416.19237780251257
 10
869.2914518562535
 20
413.38836643001605
 10
864.231267559626
 20
418.93047304060775
 10
855.8858429174628
 20
418.93047304060775
 10
854.2191762507962
 20
421.6685682787031
 10
840.8858429174628
 20
421.6685682787031
 10
839.2191762507962
 20
424.4066635167983
 10
832.5525095841296
 20
424.4066635167983
 10
830.881353301585
 20
427.1521345524071
 10
810.881353301585
 20
429.89022979050236
 10
809.2191762507962
 20
432.620949231084
 10
797.5387700611618
 20
432.620949231084
 10
795.0015570082032
 20
439.5680802094232
 10
798.3420421524006
 20
447.79999002905276
 10
798.3420421524006
 20
453.2750427114775
 10
806.6781181782377
 20
475.1870139793921
 10
808.3461967944912
 20
486.14867345763065
 10
812.5525095841296
 20
493.0590444691792
 10
840.8979342262927
 20
493.0590444691792
 10
845.8979342262927
 20
498.5352349453697
 10
850.8958745986743
 20
498.5352349453697
 10
856.6753754857339
 20
505.3173023128377
 10
856.6753754857339
 20
507.99052667844836
 10
849.2038707193607
 20
520.2651416517758
 10
844.2038707193607
 20
523.0032368898711
 10
834.2191762507962
 20
539.4066635167982
 10
830.8891258510157
 20
539.4066635167982
 10
814.9898086505779
 20
562.7774643640586
 10
819.2191762507962
 20
569.7257111358458
 10
864.3315747206716
 20
569.7257111358458
 10
866.8753754857339
 20
565.5466098789576
 10
866.8753754857339
 20
513.5228003551482
 10
869.3490965782164
 20
509.45882998892733
 10
877.6386252676879
 20
504.0114254215602
 10
885.9778479865919
 20
504.0114254215602
 10
892.6445146532584
 20
498.5352349453697
 10
900.9778479865919
 20
498.5352349453697
 10
907.6445146532586
 20
493.0590444691792
 10
912.5591405928357
 20
493.0590444691792
 10
920.8924739261691
 20
504.0114254215602
 10
930.9062363182093
 20
504.0114254215602
 10
937.5729029848759
 20
509.48761589775063
 10
947.5787923704466
 20
509.48761589775063
 10
955.9121257037799
 20
514.963806373941
 10
965.9997706688035
 20
514.963806373941
 10
996.8916272180825
 20
461.4696069054019
 10
986.8753754857339
 20
445.01433620225777
 10
986.8753754857339
 20
442.332324164672
 10
991.8673643426254
 20
434.1311996140646
 10
1000.2146909799405
 20
406.70426923431484
 10
996.872465472883
 20
398.468070663352
 10
993.5378875103099
 20
376.55512976644206
 10
989.3231026405119
 20
369.63084033748856
 10
977.5450726126965
 20
372.3950718746289
 10
975.881353301585
 20
375.12832502859766
  0
LWPOLYLINE
  5
36
330
17
100
AcDbEntity
  8
K
100
AcDbPolyline
 90
309
 70
1
 10
813.3420421524006
 20
23.347669535591116
 10
813.3420421524006
 20
42.51433620225778
 10
810.8858429174629
 20
46.54952065965545
 10
797.664908054005
 20
46.54952065965545
 10
795.9982413873383
 20
43.811425421560216
 10
754.3315747206716
 20
43.811425421560216
 10
752.6029146587248
 20
40.97148389121888
 10
740.858885725377
 20
63.0214973987287
 10
735.002976732936
 20
69.89322733883816
 10
736.6795301278246
 20
80.91057821953542
 10
742.5525095841296
 20
90.55904446917926
 10
744.3111813199251
 20
90.55904446917926
 10
754.3111813199251
 20
82.34475875489353
 10
759.3315747206716
 20
82.34475875489353
 10
762.664908054005
 20
76.86856827870301
 10
770.9982413873383
 20
76.86856827870301
 10
774.3315747206716
 20
71.39237780251258
 10
780.9982413873383
 20
71.39237780251258
 10
784.3401259541989
 20
65.90213887124143
 10
794.3297050314441
 20
63.166896981043415
 10
799.2852346574278
 20
57.739412152584904
 10
802.6087088190673
 20
60.469408785360116
 10
809.311181319925
 20
54.96380637394113
 10
817.6445146532584
 20
54.96380637394113
 10
827.6087088190673
 20
46.77893259488391
 10
830.967573030962
 20
49.537999626083156
 10
832.664908054005
 20
46.74952065965543
 10
845.9737147291322
 20
46.74952065965543
 10
857.5788711276304
 20
38.57854319540671
 10
860.0087088190672
 20
42.57041940276737
 10
860.0087088190672
 20
163.04660987895787
 10
861.6623872576934
 20
165.76336731384373
 10
856.6753754857339
 20
176.68729786194552
 10
856.6753754857339
 20
182.2001153819461
 10
860.0181021520605
 20
193.18336014273325
 10
869.1981409571897
 20
205.5227629522252
 10
874.2192245628702
 20
211.0220449965418
 10
882.5424616754811
 20
213.75682290497127
 10
884.2191762507962
 20
216.51142542156015
 10
889.2054367278284
 20
216.51142542156015
 10
891.6649368750284
 20
223.24577106270266
 10
884.2038707193606
 20
235.50323688987112
 10
879.2067157386117
 20
238.23977414123348
 10
865.8897906243473
 20
257.3828539929887
 10
862.5556180078675
 20
257.3828539929887
 10
845.8889513412008
 20
282.0257111358459
 10
844.2098108230905
 20
282.0257111358459
 10
840.0208074334487
 20
291.66041893202225
 10
825.0087088190672
 20
313.582848654611
 10
825.0087088190672
 20
316.3238600117816
 10
810.0202040237144
 20
340.9478321755754
 10
785.0149779314065
 20
395.72118456825007
 10
775.010935210649
 20
428.59161065073886
 10
771.6795301278246
 20
450.4837011950135
 10
768.3420421524005
 20
455.96671715463884
 10
768.3420421524005
 20
464.18100286892445
 10
766.675375485734
 20
466.91909810701975
 10
766.675375485734
 20
508.0466098789578
 10
768.3420421524005
 20
510.78470511705285
 10
768.3420421524005
 20
518.9926958383176
 10
773.3420421524005
 20
529.9450767906985
 10
773.3420421524005
 20
554.5513068897457
 10
765.0104975457602
 20
581.9263820258495
 10
761.6787198165308
 20
609.2945562302343
 10
760.0087088190672
 20
612.0381457260673
 10
760.0087088190672
 20
620.252431440353
 10
758.3420421524006
 20
622.9905266784483
 10
758.3420421524006
 20
631.2048123927341
 10
756.675375485734
 20
633.9429076308292
 10
756.675375485734
 20
642.1571933451149
 10
753.3420421524006
 20
647.6333838213055
 10
753.3420421524006
 20
672.332324164672
 10
756.675375485734
 20
677.8085146408625
 10
756.675375485734
 20
683.2743529729679
 10
761.6848274433769
 20
696.990709523657
 10
769.2191762507962
 20
709.368568278703
 10
772.5591405928358
 20
709.368568278703
 10
780.8789137511443
 20
720.3031272867655
 10
787.5499776420006
 20
723.0430285276531
 10
792.5646008929593
 20
728.5352349453696
 10
829.3315747206716
 20
728.5352349453696
 10
831.0056783587713
 20
725.7849218256342
 10
842.6723450254381
 20
723.0468265875389
 10
844.3315747206717
 20
720.320949231084
 10
855.9982413873382
 20
720.320949231084
 10
857.6087088190673
 20
717.6751813075291
 10
859.2191762507963
 20
720.320949231084
 10
864.2191762507962
 20
720.320949231084
 10
866.6719154395468
 20
724.3504493268885
 10
865.0120531498641
 20
737.9850324207105
 10
860.8858429174628
 20
744.7638063739411
 10
847.5525095841296
 20
744.7638063739411
 10
843.3485523358472
 20
751.6703075675478
 10
840.013285200092
 20
765.3687261608279
 10
833.3304626699346
 20
781.8371102530017
 10
835.8836380399526
 20
786.031612646603
 10
877.5503047066194
 20
788.7697078846983
 10
879.2191762507962
 20
791.51142542156
 10
989.3453142436391
 20
791.51142542156
 10
991.8858140964394
 20
784.5552948722266
 10
986.8673643426255
 20
776.3106988481032
 10
981.8853407093378
 20
759.9411926244442
 10
993.5385838540349
 20
743.5315237064013
 10
996.8737470194706
 20
713.3959422472875
 10
1000.2069200923743
 20
702.4440878648896
 10
1001.878835531921
 20
688.7104967543272
 10
992.664908054005
 20
673.573330183465
 10
967.5525095841296
 20
673.573330183465
 10
965.8858429174628
 20
676.3114254215601
 10
952.664908054005
 20
676.3114254215601
 10
936.8673643426253
 20
650.3583178957224
 10
931.8656150920402
 20
633.9239989295143
 10
924.2910216512323
 20
624.2453517551485
 10
920.9062363182094
 20
627.0257111358459
 10
904.2191762507962
 20
627.0257111358459
 10
902.5525095841294
 20
629.7638063739411
 10
892.5525095841294
 20
629.7638063739411
 10
890.8858429174629
 20
632.5019016120364
 10
880.9982413873383
 20
632.5019016120364
 10
878.5420421524005
 20
628.4667171546388
 10
878.5420421524005
 20
590.1894670218148
 10
880.9982413873383
 20
586.1542825644173
 10
884.231267559626
 20
586.1542825644173
 10
889.231267559626
 20
591.6304730406076
 10
895.9062363182093
 20
591.6304730406076
 10
902.5617216014308
 20
597.0974788089683
 10
912.5543792733571
 20
599.8335636477099
 10
917.5646008929593
 20
605.320949231084
 10
922.5729029848759
 20
605.320949231084
 10
929.2395696515426
 20
610.7971397072745
 10
932.664908054005
 20
610.7971397072745
 10
935.2087088190673
 20
606.6180384503863
 10
935.2087088190673
 20
587.3952885832101
 10
933.5634485552408
 20
584.6923610069239
 10
940.9907646034137
 20
575.2019016120362
 10
945.9861500785086
 20
575.2019016120362
 10
950.9861500785084
 20
569.7257111358458
 10
954.3194834118418
 20
569.7257111358458
 10
959.3341066628005
 20
564.2335047181293
 10
966.0103958519252
 20
561.4914573725957
 10
969.3315747206716
 20
556.0352349453697
 10
974.3111813199253
 20
556.0352349453697
 10
984.3111813199251
 20
547.8209492310839
 10
989.2191762507962
 20
547.8209492310839
 10
990.9259657818811
 20
550.6249606035805
 10
995.9981930752642
 20
545.0696640441608
 10
1004.3416226293198
 20
542.3282514763998
 10
1005.9982413873386
 20
539.6066635167982
 10
1010.9861500785087
 20
539.6066635167982
 10
1015.9861500785086
 20
534.1304730406077
 10
1020.9861500785084
 20
534.1304730406077
 10
1025.9861500785084
 20
528.6542825644174
 10
1030.977847986592
 20
528.6542825644174
 10
1037.6445146532585
 20
523.1780920882268
 10
1040.998241387338
 20
523.1780920882268
 10
1046.8753754857341
 20
513.5228003551482
 10
1046.8753754857341
 20
505.2627835844381
 10
1041.8753754857337
 20
491.5723073939619
 10
1041.8753754857337
 20
486.07697710171135
 10
1035.9882097061268
 20
479.1685682787031
 10
1030.9861500785087
 20
479.1685682787031
 10
1025.9861500785084
 20
473.69237780251257
 10
1019.3194834118419
 20
473.69237780251257
 10
1014.3194834118416
 20
468.21618732632203
 10
1009.3194834118417
 20
468.21618732632203
 10
1004.3194834118418
 20
462.7399968501316
 10
995.8842725484457
 20
462.7399968501316
 10
965.8842725484456
 20
514.7638063739411
 10
955.9719586010211
 20
514.7638063739411
 10
947.6386252676879
 20
509.28761589775064
 10
937.6445146532585
 20
509.28761589775064
 10
930.9778479865918
 20
503.8114254215602
 10
920.9916103786321
 20
503.8114254215602
 10
912.6582770452986
 20
492.8590444691792
 10
907.572902984876
 20
492.8590444691792
 10
900.9062363182093
 20
498.33523494536973
 10
892.5729029848759
 20
498.33523494536973
 10
885.9062363182093
 20
503.8114254215602
 10
877.5787923704466
 20
503.8114254215602
 10
869.2016543932516
 20
509.3164018065741
 10
866.6753754857339
 20
513.4667171546388
 10
866.6753754857339
 20
565.4905266784482
 10
864.2191762507962
 20
569.5257111358458
 10
819.3315747206716
 20
569.5257111358458
 10
815.2276089875567
 20
562.7834817171571
 10
830.9949584537853
 20
539.6066635167982
 10
834.3315747206716
 20
539.6066635167982
 10
844.3543727337268
 20
523.1406382096362
 10
852.6926965590175
 20
514.9214332961354
 10
856.8919663894893
 20
505.2631126860501
 10
850.9882097061269
 20
498.33523494536973
 10
845.9861500785084
 20
498.33523494536973
 10
840.9861500785084
 20
492.8590444691792
 10
812.664908054005
 20
492.8590444691792
 10
808.536564199402
 20
486.07676527947444
 10
805.2032308660687
 20
469.648193850903
 10
800.2053644882704
 20
461.4374133730915
 10
798.5402534257075
 20
447.75971535918296
 10
795.2174176381345
 20
436.84182634287123
 10
797.664908054005
 20
432.820949231084
 10
809.3315747206716
 20
432.820949231084
 10
810.9982413873383
 20
430.0828539929887
 10
817.664908054005
 20
430.0828539929887
 10
819.3360643365495
 20
427.3373829573798
 10
839.3360643365495
 20
424.59928771928463
 10
841.0021146141768
 20
421.86220512032554
 10
864.3240746886503
 20
419.12544449934137
 10
869.2592991152145
 20
413.72019869881865
 10
870.8784059460297
 20
416.38015992087236
 10
882.5450726126963
 20
419.11825515896754
 10
884.2191762507962
 20
421.86856827870304
 10
890.9062363182093
 20
421.86856827870304
 10
897.572902984876
 20
427.34475875489346
 10
902.5646008929593
 20
427.34475875489346
 10
907.5646008929594
 20
432.820949231084
 10
914.3347821847881
 20
432.820949231084
 10
942.6681155181213
 20
380.7971397072744
 10
954.3315747206716
 20
380.7971397072744
 10
955.9982413873382
 20
378.0590444691792
 10
962.664908054005
 20
378.0590444691792
 10
964.3315747206717
 20
375.320949231084
 10
975.9719586010211
 20
375.320949231084
 10
984.3052919343546
 20
369.84475875489346
 10
989.3315747206716
 20
369.84475875489346
 10
993.5420421524005
 20
362.92756225991013
 10
993.5420421524005
 20
357.4113315352751
 10
990.2021986356206
 20
343.6941170913574
 10
986.8924442858889
 20
338.25666351679826
 10
992.6837693376193
 20
328.74234378895545
 10
1007.6771856582396
 20
317.79476996755
 10
1019.3215430394603
 20
304.13047304060774
 10
1022.6445146532587
 20
304.13047304060774
 10
1029.3519681214182
 20
298.62077912033374
 10
1032.6649080540049
 20
293.17809208822683
 10
1035.9982413873383
 20
293.17809208822683
 10
1041.8869549682
 20
283.5037769196684
 10
1038.5420421524007
 20
275.260956052163
 10
1038.5420421524007
 20
269.77624096416247
 10
1033.5420421524004
 20
261.56195524987675
 10
1033.5420421524004
 20
256.09892593736475
 10
1030.2006976759585
 20
245.12022265762684
 10
1027.664908054005
 20
240.95428256441724
 10
1019.231267559626
 20
240.95428256441724
 10
1014.2312675596261
 20
246.43047304060778
 10
1007.5787923704466
 20
246.43047304060778
 10
999.2454590371133
 20
251.9066635167983
 10
992.5729029848761
 20
251.9066635167983
 10
985.9062363182093
 20
257.3828539929887
 10
979.231267559626
 20
257.3828539929887
 10
974.2312675596261
 20
262.85904446917925
 10
962.664908054005
 20
262.85904446917925
 10
959.3315747206716
 20
257.3828539929887
 10
952.664908054005
 20
257.3828539929887
 10
949.3437291852586
 20
251.92663156576262
 10
936.0024421667306
 20
246.44717439743852
 10
930.2317426795872
 20
239.67543520334183
 10
932.664908054005
 20
235.67809208822683
 10
935.9861500785084
 20
235.67809208822683
 10
940.9963716981107
 20
230.1907065048529
 10
951.0067926208656
 20
227.4497579188605
 10
954.3315747206716
 20
221.98761589775057
 10
960.9861500785084
 20
221.98761589775057
 10
965.9861500785084
 20
216.51142542156015
 10
970.9778479865918
 20
216.51142542156015
 10
977.6445146532585
 20
211.03523494536964
 10
980.9861500785084
 20
211.03523494536964
 10
985.9861500785084
 20
205.5590444691792
 10
992.6528167451751
 20
205.5590444691792
 10
997.5926324485476
 20
200.14877012739012
 10
999.2091283421479
 20
202.80444195259022
 10
1007.6451618799838
 20
205.57628154359347
 10
1015.9916103786321
 20
194.60666351679828
 10
1020.9928346532266
 20
194.60666351679828
 10
1031.0096375390665
 20
180.89318337546996
 10
1041.008115312624
 20
175.41782649947442
 10
1048.5420421524007
 20
165.79114220420394
 10
1048.5420421524007
 20
162.99609256505536
 10
1042.6753859349137
 20
150.60427790158886
 10
1019.33544794751
 20
147.86540762755678
 10
1015.9420421524006
 20
142.29052667844826
 10
1014.2191762507964
 20
145.12094923108393
 10
937.6445146532585
 20
145.12094923108393
 10
934.2753754857339
 20
142.3534420577602
 10
930.9420421524005
 20
145.09153729585537
 10
927.5831779405058
 20
142.33247026465617
 10
924.2191762507962
 20
147.85904446917925
 10
914.2395696515426
 20
147.85904446917925
 10
910.967573030962
 20
150.54675597894192
 10
908.5591109525556
 20
146.58999685013157
 10
912.6087088190671
 20
139.93708606943406
 10
914.2753754857339
 20
142.67518130752927
 10
916.8924442858889
 20
138.37571113584585
 10
915.2257776192223
 20
135.63761589775063
 10
920.2045541769766
 20
127.45819726715452
 10
923.5378875103098
 20
105.55343536239265
 10
925.2087088190673
 20
102.80851464086265
 10
925.2087088190673
 20
89.11803845038644
 10
931.8753754857338
 20
78.1656574980055
 10
931.8753754857338
 20
64.46888631450817
 10
936.8753754857338
 20
53.51650536212723
 10
936.8753754857338
 20
42.58422121122915
 10
945.2219886490689
 20
34.35684537879891
 10
943.5507509714678
 20
28.865635866680783
 10
945.2257776192222
 20
26.113806373941145
 10
942.664908054005
 20
21.906663516798318
 10
937.664908054005
 20
21.906663516798318
 10
935.9978525810423
 20
19.16792952550242
 10
815.0521232455834
 20
20.538250596790874
 10
813.3420421524006
 20
23.347669535591116
  0
LWPOLYLINE
  5
37
330
17
100
AcDbEntity
  8
K
100
AcDbPolyline
 90
24
 70
1
 10
810.8858429174629
 20
597.1066635167983
 10
815.8858429174628
 20
605.320949231084
 10
819.2258072595024
 20
605.320949231084
 10
827.5455804178109
 20
616.2555082391466
 10
834.2112729879152
 20
618.993203401868
 10
844.2077800990679
 20
632.6788976611841
 10
849.2004922482413
 20
635.4130019333506
 10
858.3456436078475
 20
653.1688477549236
 10
860.0043740842596
 20
664.0690765999177
 10
850.8858429174628
 20
679.0495206596554
 10
845.9010415928329
 20
679.0495206596554
 10
837.5677082594997
 20
687.2638063739412
 10
827.5787923704466
 20
687.2638063739412
 10
819.2454590371133
 20
692.7399968501315
 10
805.9778479865919
 20
692.7399968501315
 10
799.3111813199251
 20
687.2638063739412
 10
795.9982413873383
 20
687.2638063739412
 10
790.2087088190673
 20
677.7524314403531
 10
790.2087088190673
 20
669.5381457260675
 10
788.543762119613
 20
666.8028761483927
 10
790.2080259068028
 20
639.4613996445597
 10
795.2032803407955
 20
617.5774278384971
 10
806.0023502148512
 20
597.1066635167983
 10
810.8858429174629
 20
597.1066635167983
  0
LWPOLYLINE
  5
38
330
17
100
AcDbEntity
  8
K
100
AcDbPolyline
 90
15
 70
1
 10
2204.1753754857336
 20
660.0828539929886
 10
2289.3315747206716
 20
660.0828539929886
 10
2291.892444285889
 20
655.8757111358458
 10
2287.677062518592
 20
648.9504410895721
 10
2281.003620028012
 20
646.2095629237984
 10
2274.323006016534
 20
637.9780920882267
 10
2270.998241387338
 20
637.9780920882267
 10
2269.331574720671
 20
635.2399968501317
 10
2257.6528167451747
 20
635.2399968501317
 10
2247.6648597419307
 20
624.3008058465784
 10
2239.33327191022
 20
621.5632841304448
 10
2227.6548763727933
 20
607.8590444691791
 10
2215.9936778051056
 20
607.8590444691791
 10
2204.1753754857336
 20
591.2169452847576
 10
2204.1753754857336
 20
660.0828539929886
  0
LWPOLYLINE
  5
39
330
17
100
AcDbEntity
  8
K
100
AcDbPolyline
 90
18
 70
1
 10
2203.3420421524
 20
1.3742458112270262
 10
2203.3420421524
 20
89.14924751578704
 10
2205.977794535587
 20
90.5926357256274
 10
2209.3315747206716
 20
85.08285399298873
 10
2212.6649080540046
 20
85.08285399298873
 10
2217.664908054005
 20
76.86856827870301
 10
2220.9982413873386
 20
76.86856827870301
 10
2224.331574720671
 20
71.39237780251258
 10
2227.6539416698133
 20
71.39237780251258
 10
2238.5467230876047
 20
59.00333520095869
 10
2236.872031154937
 20
45.24693718261521
 10
2235.2257776192223
 20
42.542377802512576
 10
2250.2087088190674
 20
17.92756225991024
 10
2250.2087088190674
 20
15.133383821305413
 10
2248.5420421524004
 20
12.39528858321018
 10
2248.5420421524004
 20
6.919098107019684
 10
2244.330417217693
 20
0.0
 10
2203.3420421524
 20
1.3742458112270262
  0
LWPOLYLINE
  5
3A
330
17
100
AcDbEntity
  8
K
100
AcDbPolyline
 90
164
 70
1
 10
3294.2223955996897
 20
49.29733280625317
 10
3289.2312675596263
 20
54.76380637394115
 10
3280.9103695756694
 20
54.76380637394115
 10
3269.2437029090024
 20
62.97809208822688
 10
3260.9062363182097
 20
62.97809208822688
 10
3250.9062363182097
 20
71.19237780251261
 10
3242.578792370447
 20
71.19237780251261
 10
3234.2454590371135
 20
76.66856827870302
 10
3225.8721033944953
 20
76.66856827870302
 10
3223.331603541695
 20
83.62469882803677
 10
3226.658306685579
 20
89.08999685013161
 10
3224.2191762507964
 20
93.09713970727448
 10
3217.55250958413
 20
93.09713970727448
 10
3215.0087088190676
 20
97.27624096416248
 10
3215.0087088190676
 20
135.6095742974958
 10
3210.0087088190676
 20
143.82386001178153
 10
3210.0087088190676
 20
149.3561336884816
 10
3211.675375485734
 20
152.09422892657693
 10
3211.675375485734
 20
165.78470511705308
 10
3213.3420421524006
 20
168.52280035514826
 10
3213.3420421524006
 20
179.4751813075293
 10
3215.0087088190676
 20
182.21327654562452
 10
3215.0087088190676
 20
193.16565749800546
 10
3218.342042152401
 20
198.641847974196
 10
3218.342042152401
 20
209.58106776289847
 10
3221.6753754857345
 20
220.5334487152794
 10
3221.6753754857345
 20
234.23708606943399
 10
3223.3420421524006
 20
236.9751813075293
 10
3223.3420421524006
 20
242.46015945569482
 10
3229.214975471404
 20
249.35186692187222
 10
3249.2166443086676
 20
257.5668380514626
 10
3254.2312675596263
 20
263.05904446917924
 10
3260.9062363182097
 20
263.05904446917924
 10
3270.9062363182097
 20
271.27333018346496
 10
3277.562541265341
 20
271.27333018346496
 10
3283.330445924797
 20
278.0417897328261
 10
3278.3500532955095
 20
294.4059369433412
 10
3273.3489871214997
 20
302.6219742292145
 10
3268.3489871214997
 20
321.78864089588114
 10
3260.885842917463
 20
334.0495206596554
 10
3217.55250958413
 20
334.0495206596554
 10
3215.0087088190676
 20
338.2286219165435
 10
3215.0087088190676
 20
343.704812392734
 10
3213.3420421524006
 20
346.44290763082927
 10
3213.3420421524006
 20
365.6095742974959
 10
3211.675375485734
 20
368.34766953559114
 10
3211.675375485734
 20
384.7762409641626
 10
3210.0087088190676
 20
387.51433620225777
 10
3210.0087088190676
 20
401.26089559324345
 10
3215.885842917463
 20
410.916187326322
 10
3219.2301426349877
 20
410.916187326322
 10
3229.985059073315
 20
423.1484274512324
 10
3228.342042152401
 20
425.84766953559114
 10
3228.342042152401
 20
431.3238600117816
 10
3225.0120531498646
 20
436.7945562302344
 10
3223.3453864831977
 20
450.4850324207105
 10
3221.678719816531
 20
453.2231276588057
 10
3218.3394872196063
 20
480.6525382764027
 10
3222.543144156424
 20
490.320949231084
 10
3224.3052919343545
 20
490.320949231084
 10
3232.638625267688
 20
484.84475875489346
 10
3242.638625267688
 20
484.84475875489346
 10
3250.9719586010215
 20
479.36856827870304
 10
3260.9703732685666
 20
479.36856827870304
 10
3274.3037066019
 20
471.1542825644173
 10
3284.3111813199257
 20
471.1542825644173
 10
3287.583177940506
 20
468.46657105465454
 10
3291.6818856691807
 20
475.2001623231916
 10
3295.015219002514
 20
488.8906385136677
 10
3298.3500532955095
 20
494.3692948521599
 10
3303.342042152401
 20
510.77154395337465
 10
3303.342042152401
 20
516.1960247207588
 10
3297.562541265341
 20
522.9780920882267
 10
3290.9062363182097
 20
522.9780920882267
 10
3280.9062363182097
 20
531.1923778025125
 10
3274.2326465251876
 20
531.1923778025125
 10
3265.0087088190676
 20
540.8355854043654
 10
3265.0087088190676
 20
554.5942289265769
 10
3268.3420421524006
 20
560.0704194027672
 10
3268.3420421524006
 20
581.9751813075292
 10
3270.008708819067
 20
584.7132765456245
 10
3270.008708819067
 20
590.1333838213054
 10
3267.5450726126965
 20
594.1807861603432
 10
3255.8890622663557
 20
596.9163804253009
 10
3250.889062266356
 20
602.3925709014912
 10
3239.2298782804023
 20
605.1289100002355
 10
3232.5729029848762
 20
610.5971397072744
 10
3225.8933197013876
 20
610.5971397072744
 10
3218.3377708728476
 20
620.2514520992977
 10
3221.676732936657
 20
647.6786404805877
 10
3226.6697594333273
 20
669.5528517993328
 10
3217.5477293179774
 20
687.2638063739412
 10
3215.885842917463
 20
687.2638063739412
 10
3210.0072771573973
 20
696.9214501226206
 10
3211.6767869401524
 20
729.8346429826446
 10
3214.2191762507964
 20
734.0114254215601
 10
3219.2395696515428
 20
734.0114254215601
 10
3225.9062363182097
 20
739.4876158977506
 10
3240.9121257037805
 20
739.4876158977506
 10
3249.2454590371135
 20
744.963806373941
 10
3262.578792370447
 20
744.963806373941
 10
3270.901937346957
 20
750.4333016442191
 10
3282.5450726126965
 20
753.1658742065865
 10
3285.008708819068
 20
757.2132765456244
 10
3285.008708819068
 20
784.5381457260673
 10
3269.993650445247
 20
809.2057416259153
 10
3281.6802680816663
 20
831.1479624942946
 10
3283.3475201054
 20
839.3651331826933
 10
3294.2191762507964
 20
857.2257111358457
 10
3499.3315747206716
 20
857.2257111358457
 10
3501.875375485734
 20
853.0466098789577
 10
3501.875375485734
 20
324.53814572606717
 10
3498.5420421524013
 20
319.06195524987663
 10
3498.5420421524013
 20
220.4905266784481
 10
3495.942042152401
 20
216.2190981070195
 10
3491.675375485734
 20
223.2286219165433
 10
3491.675375485734
 20
231.44290763082904
 10
3487.537204052694
 20
238.24133212796644
 10
3482.5315373763674
 20
240.98253054595457
 10
3477.527351319516
 20
251.94408095620153
 10
3474.3009063642958
 20
254.59437502656095
 10
3470.9537429163083
 20
249.09546364772422
 10
3464.287076249642
 20
257.30974936200994
 10
3462.608708819068
 20
254.55243144035282
 10
3459.2125994784365
 20
260.1317539285322
 10
3445.894219971076
 20
262.8667782916509
 10
3434.2967444610126
 20
273.7542042806906
 10
3432.6087088190675
 20
270.9810028689243
 10
3427.55250958413
 20
279.2876158977506
 10
3424.2191762507964
 20
279.2876158977506
 10
3422.608708819068
 20
281.93338382130526
 10
3420.9982413873386
 20
279.2876158977506
 10
3414.2237398330294
 20
279.2876158977506
 10
3402.5892884510085
 20
295.6708229459023
 10
3399.2611195009304
 20
292.9369698797669
 10
3392.5610782882673
 20
301.19237780251257
 10
3382.55250958413
 20
301.19237780251257
 10
3379.2191762507964
 20
306.668568278703
 10
3372.55250958413
 20
306.668568278703
 10
3370.0087088190676
 20
310.847669535591
 10
3370.0087088190676
 20
321.78624867951015
 10
3365.974243037483
 20
325.7630792356434
 10
3351.8646234003186
 20
294.4017818068194
 10
3327.666842158035
 20
251.9066635167983
 10
3325.9963437441584
 20
251.9066635167983
 10
3299.3557059991917
 20
210.87532413280968
 10
3287.6548763727938
 20
197.1447587548935
 10
3284.3252988534955
 20
197.1447587548935
 10
3266.896043983754
 20
173.9650354417342
 10
3270.9982413873386
 20
167.2257111358459
 10
3280.998241387339
 20
167.2257111358459
 10
3284.34162262932
 20
161.7330133811617
 10
3292.6749559626537
 20
158.99491814306649
 10
3296.013546918774
 20
153.51009014372536
 10
3301.020654471945
 20
150.76810267413194
 10
3308.554057288764
 20
132.8912182119975
 10
3305.2174176381345
 20
127.40959592882056
 10
3306.8840843048015
 20
121.93340545263015
 10
3305.208708819068
 20
119.18100286892435
 10
3305.208708819068
 20
100.07041940276734
 10
3308.542042152401
 20
94.59422892657696
 10
3308.542042152401
 20
50.72862191654351
 10
3305.9897693071794
 20
46.53560224225048
 10
3294.2223955996897
 20
49.29733280625317
  0
LWPOLYLINE
  5
3B
330
17
100
AcDbEntity
  8
K
100
AcDbPolyline
 90
25
 70
1
 10
3780.8829604742805
 20
424.4113989591703
 10
3779.2191762507964
 20
427.1447587548935
 10
3765.8858429174634
 20
427.1447587548935
 10
3762.55250958413
 20
432.620949231084
 10
3757.55250958413
 20
432.620949231084
 10
3753.342042152401
 20
439.53814572606734
 10
3753.342042152401
 20
456.02280035514826
 10
3755.0120531498646
 20
458.7663898509812
 10
3756.678719816531
 20
472.4568660414574
 10
3759.2753754857345
 20
476.7228003551482
 10
3760.998241387339
 20
473.89237780251256
 10
3764.331574720672
 20
473.89237780251256
 10
3767.664908054005
 20
468.416187326322
 10
3770.998241387339
 20
468.416187326322
 10
3774.331574720672
 20
462.9399968501316
 10
3777.6649080540055
 20
462.9399968501316
 10
3780.998241387339
 20
457.46380637394105
 10
3784.324943711966
 20
457.46380637394105
 10
3792.658277045299
 20
446.51142542156015
 10
3797.6649080540055
 20
446.51142542156015
 10
3801.0166363809935
 20
441.00501459865154
 10
3812.68330304766
 20
432.7907288843658
 10
3815.2191474297733
 20
428.62469882803674
 10
3812.676374494865
 20
421.6623443634055
 10
3780.8829604742805
 20
424.4113989591703
  0
LWPOLYLINE
  5
3C
330
17
100
AcDbEntity
  8
K
100
AcDbPolyline
 90
190
 70
1
 10
3821.6666666666674
 20
100.05611205715698
 10
3820.0000000000005
 20
105.5323025333475
 10
3821.6753754857345
 20
108.28470511705306
 10
3821.6753754857345
 20
119.2325677597857
 10
3829.1920968699646
 20
134.3256670471686
 10
3834.2312675596263
 20
139.8447587548935
 10
3837.56460089296
 20
139.8447587548935
 10
3842.5543792733574
 20
145.30975412390052
 10
3852.552581639038
 20
148.0473571525988
 10
3858.3190082918813
 20
154.81408230644527
 10
3855.885842917464
 20
158.8114254215602
 10
3852.56460089296
 20
158.8114254215602
 10
3847.5283269664706
 20
164.3273444839058
 10
3840.8858429174634
 20
175.23999685013163
 10
3837.56460089296
 20
175.23999685013163
 10
3832.52832696647
 20
180.75591591247726
 10
3824.19878285005
 20
194.44016696088178
 10
3817.5321161833836
 20
199.9163574370722
 10
3809.219176250797
 20
213.57333018346498
 10
3807.5491159807225
 20
213.57333018346498
 10
3794.1945343287866
 20
238.25545877231107
 10
3790.0087088190676
 20
242.38148677474842
 10
3790.0087088190676
 20
245.13596018001965
 10
3775.9256189078556
 20
270.9944067816996
 10
3769.3369533613463
 20
262.87622959046513
 10
3762.6770625185923
 20
260.14091728004826
 10
3757.6649080540055
 20
251.9066635167983
 10
3750.989672683201
 20
251.9066635167983
 10
3744.2636747218276
 20
243.61927317153382
 10
3742.608708819068
 20
246.33814572606732
 10
3739.331574720672
 20
240.95428256441724
 10
3735.977847986592
 20
240.95428256441724
 10
3729.348647986513
 20
235.50886827863775
 10
3719.3261679865604
 20
221.78761589775058
 10
3714.2061928543962
 20
221.78761589775058
 10
3703.3517615019123
 20
250.59360679472758
 10
3695.0167199621765
 20
264.2868893242935
 10
3688.35005329551
 20
286.1916512290555
 10
3683.3170281126986
 20
294.4601926008171
 10
3697.5533121007556
 20
309.59372137803734
 10
3705.875795008815
 20
312.3282514763998
 10
3710.0087088190676
 20
319.1180384503863
 10
3710.0087088190676
 20
324.5381457260674
 10
3706.683386628843
 20
330.00117503857945
 10
3701.6753754857345
 20
346.4560687945076
 10
3701.6753754857345
 20
351.9688863145081
 10
3711.6670489853373
 20
373.8554092184005
 10
3703.35184459284
 20
395.7125179072511
 10
3693.342042152401
 20
412.157193345115
 10
3693.342042152401
 20
414.9513717837196
 10
3708.322757644444
 20
439.56254723493345
 10
3695.008708819068
 20
458.7014924214122
 10
3695.008708819068
 20
461.4429076308292
 10
3686.683386628843
 20
475.12022265762715
 10
3683.334626272376
 20
486.1232924003037
 10
3709.2141206686456
 20
536.8685682787032
 10
3715.8858429174634
 20
536.8685682787032
 10
3717.55250958413
 20
539.6066635167982
 10
3740.90326810708
 20
539.6066635167982
 10
3748.342042152401
 20
546.3960207803849
 10
3748.342042152401
 20
554.5381457260675
 10
3745.0087088190676
 20
560.0143362022578
 10
3745.0087088190676
 20
573.704812392734
 10
3743.343733036954
 20
576.4401297490642
 10
3741.6775903911325
 20
603.812473216125
 10
3735.8958745986747
 20
610.5971397072744
 10
3714.2191762507964
 20
610.5971397072744
 10
3711.6753754857345
 20
614.7762409641626
 10
3711.6753754857345
 20
620.2627835844381
 10
3706.6785287339344
 20
633.9446258810326
 10
3701.6816001497054
 20
661.3087586041933
 10
3688.319950001845
 20
677.7722203935208
 10
3690.0115066425114
 20
680.5512063031869
 10
3691.677331090862
 20
696.9714758654982
 10
3695.012021983574
 20
705.1891069939664
 10
3698.3475208044915
 20
724.3682252142438
 10
3708.3333035764235
 20
738.0392373424838
 10
3703.3433319228798
 20
757.167462014402
 10
3701.6781733091784
 20
773.5811683494571
 10
3698.342042152401
 20
779.0619552498767
 10
3698.342042152401
 20
784.5381457260673
 10
3696.658306685579
 20
787.3042825644172
 10
3699.219176250797
 20
791.51142542156
 10
4015.998241387339
 20
791.51142542156
 10
4018.555865061019
 20
787.3096151005135
 10
3998.557413017884
 20
746.2413653690745
 10
4013.542042152401
 20
724.359049807557
 10
4013.542042152401
 20
696.9190981070196
 10
4010.9982413873386
 20
692.7399968501315
 10
3999.3052919343545
 20
692.7399968501315
 10
3990.971958601022
 20
687.2638063739412
 10
3977.6370399352336
 20
687.2638063739412
 10
3964.3037066019
 20
679.0495206596554
 10
3952.6649080540055
 20
679.0495206596554
 10
3950.9982413873386
 20
676.3114254215601
 10
3945.998241387339
 20
676.3114254215601
 10
3943.540503557476
 20
672.2737132724994
 10
3941.877084237516
 20
642.2133498475098
 10
3958.560842202639
 20
617.5452219990774
 10
3956.8753754857344
 20
614.7762409641626
 10
3956.8753754857344
 20
606.5751164135551
 10
3953.5420421524013
 20
595.6227354611743
 10
3953.5420421524013
 20
587.4084497468886
 10
3950.208708819068
 20
576.4560687945075
 10
3950.208708819068
 20
571.0228003551483
 10
3954.331574720672
 20
564.2495206596554
 10
3959.3111813199257
 20
564.2495206596554
 10
3969.3208726910666
 20
556.027274176218
 10
3981.005678358772
 20
553.2849218256341
 10
3982.664908054006
 20
550.5590444691793
 10
3987.652816745175
 20
550.5590444691793
 10
3992.652816745176
 20
545.0828539929886
 10
3995.9982413873386
 20
545.0828539929886
 10
3998.5420421524013
 20
540.9037527361005
 10
3998.5420421524013
 20
535.3714790594006
 10
3996.8753754857344
 20
532.6333838213055
 10
3996.8753754857344
 20
518.9429076308292
 10
3993.5420421524013
 20
513.4667171546388
 10
3993.5420421524013
 20
497.03814572606734
 10
3991.0224240049984
 20
492.8987730553343
 10
3985.986150078509
 20
487.3828539929887
 10
3979.3111813199257
 20
487.3828539929887
 10
3965.991046809157
 20
476.4413149305716
 10
3957.6749559626537
 20
473.7088850810062
 10
3953.5420421524013
 20
466.91909810701975
 10
3953.5420421524013
 20
447.7609560521629
 10
3950.208708819068
 20
439.5466703378771
 10
3950.208708819068
 20
434.1180384503863
 10
3951.8753754857344
 20
431.37994321229104
 10
3951.8753754857344
 20
423.15044470855094
 10
3956.8753754857344
 20
403.9837780418843
 10
3956.8753754857344
 20
398.52280035514826
 10
3958.5420421524013
 20
395.78470511705297
 10
3958.5420421524013
 20
387.5704194027672
 10
3960.2257776192228
 20
384.8042825644173
 10
3957.6649080540055
 20
380.59713970727444
 10
3954.331574720672
 20
380.59713970727444
 10
3950.9982413873386
 20
375.120949231084
 10
3947.6649080540055
 20
375.120949231084
 10
3941.8769381233224
 20
365.61214148781903
 10
3943.540503557476
 20
335.5491375706209
 10
3945.2087088190674
 20
332.80851464086254
 10
3945.2087088190674
 20
316.3683522487197
 10
3949.3471220778497
 20
304.13047304060774
 10
3989.3382677394147
 20
304.13047304060774
 10
4001.8688180818717
 20
278.05499447082997
 10
4010.2174176381345
 20
250.62388164310627
 10
4007.6649080540055
 20
246.43047304060778
 10
4002.6528167451756
 20
246.43047304060778
 10
3997.652816745176
 20
240.95428256441724
 10
3990.986150078509
 20
240.95428256441724
 10
3985.986150078509
 20
235.47809208822684
 10
3979.3163760453017
 20
235.47809208822684
 10
3970.9830427119687
 20
227.26380637394112
 10
3965.9861500785087
 20
227.26380637394112
 10
3960.9861500785087
 20
221.78761589775058
 10
3957.6649080540055
 20
221.78761589775058
 10
3955.2063042721784
 20
217.74848111332085
 10
3953.5407589247557
 20
198.59470961795896
 10
3950.208708819068
 20
187.64654498498373
 10
3950.208708819068
 20
179.41909810701966
 10
3946.873684601182
 20
173.9401297490643
 10
3945.207017934515
 20
146.5591773681119
 10
3943.539244328957
 20
143.8192635875523
 10
3941.8782538404616
 20
127.44664305809644
 10
3946.8753754857344
 20
119.237086069434
 10
3946.8753754857344
 20
78.10957429749585
 10
3945.225777619223
 20
75.39952065965547
 10
3947.685301454752
 20
71.3588743584291
 10
3957.6445146532587
 20
63.17809208822686
 10
3965.977847986592
 20
63.17809208822686
 10
3972.6445146532587
 20
57.701901612036366
 10
3980.9861500785087
 20
57.701901612036366
 10
3985.986150078509
 20
52.2257111358459
 10
3992.644514653259
 20
52.2257111358459
 10
3999.3111813199257
 20
46.74952065965543
 10
4005.9778479865918
 20
46.74952065965543
 10
4012.6445146532587
 20
41.273330183464964
 10
4019.3111813199253
 20
41.273330183464964
 10
4025.977847986592
 20
35.79713970727447
 10
4030.998241387339
 20
35.79713970727447
 10
4033.5420421524013
 20
31.618038450386436
 10
4033.5420421524013
 20
23.347669535591116
 10
4030.99801527085
 20
19.168196801613384
 10
3823.385617637836
 20
20.53798599999529
 10
3821.6753754857345
 20
23.347669535591116
 10
3821.6753754857345
 20
89.06195524987679
 10
3820.008708819068
 20
91.80005048797204
 10
3820.008708819068
 20
97.33232416467213
 10
3821.6666666666674
 20
100.05611205715698
  0
LWPOLYLINE
  5
3D
330
17
100
AcDbEntity
  8
K
100
AcDbPolyline
 90
13
 70
1
 10
3940.8858429174634
 20
68.65428256441733
 10
3943.324973352246
 20
72.66142542156021
 10
3940.8858429174634
 20
76.66856827870302
 10
3927.6649080540055
 20
76.66856827870302
 10
3925.2257776192228
 20
72.66142542156021
 10
3926.8924442858893
 20
69.92333018346494
 10
3923.5524807631064
 20
64.43624725317883
 10
3926.0119809103066
 20
57.701901612036366
 10
3929.219176250797
 20
57.701901612036366
 10
3931.658306685579
 20
61.70904446917924
 10
3929.9916400189127
 20
64.44713970727447
 10
3932.55250958413
 20
68.65428256441733
 10
3940.8858429174634
 20
68.65428256441733
  0
LWPOLYLINE
  5
3E
330
17
100
AcDbEntity
  8
K
100
AcDbPolyline
 90
7
 70
1
 10
3909.2618290794067
 20
76.59849577455799
 10
3903.5650760129206
 20
69.91353044143703
 10
3907.628458131066
 20
63.237974104484564
 10
3911.648788797539
 20
67.20087147572204
 10
3909.9916400189127
 20
69.92333018346494
 10
3911.658306685579
 20
72.66142542156021
 10
3909.2618290794067
 20
76.59849577455799
  0
LWPOLYLINE
  5
3F
330
17
100
AcDbEntity
  8
K
100
AcDbPolyline
 90
25
 70
1
 10
3874.2312675596263
 20
646.3923778025124
 10
3879.2166443086676
 20
651.8525523371768
 10
3892.549977642001
 20
657.3287428133674
 10
3897.56460089296
 20
662.8209492310839
 10
3902.5599863680545
 20
662.8209492310839
 10
3909.9978927327693
 20
672.3249406971079
 10
3908.342042152401
 20
677.7655926040313
 10
3908.342042152401
 20
688.704812392734
 10
3904.2191762507964
 20
695.4780920882268
 10
3900.8858429174634
 20
695.4780920882268
 10
3899.2191762507964
 20
698.2161873263219
 10
3875.9861500785087
 20
698.2161873263219
 10
3870.986150078509
 20
692.7399968501315
 10
3850.9062363182097
 20
692.7399968501315
 10
3844.239569651543
 20
698.2161873263219
 10
3832.5525095841303
 20
698.2161873263219
 10
3830.8858429174634
 20
700.9542825644173
 10
3825.980292088929
 20
700.9542825644173
 10
3807.686447212097
 20
684.5610968955673
 10
3803.542042152401
 20
677.7524314403531
 10
3803.542042152401
 20
664.1180384503862
 10
3805.9998253163817
 20
660.0802518238464
 10
3864.341007241672
 20
657.3417881824555
 10
3869.3396511107762
 20
646.3923778025124
 10
3874.2312675596263
 20
646.3923778025124
  0
LWPOLYLINE
  5
40
330
17
100
AcDbEntity
  8
K
100
AcDbPolyline
 90
36
 70
1
 10
3887.558466336953
 20
432.620949231084
 10
3884.219176250797
 20
432.620949231084
 10
3876.653076792602
 20
445.0509697695471
 10
3902.5269417965114
 20
476.5884688180911
 10
3909.9916400189127
 20
488.85190161203633
 10
3907.55250958413
 20
492.8590444691792
 10
3900.9062363182097
 20
492.8590444691792
 10
3894.239569651543
 20
498.33523494536973
 10
3885.8979342262933
 20
498.33523494536973
 10
3880.8979342262933
 20
503.8114254215602
 10
3874.331574720672
 20
503.8114254215602
 10
3870.9982413873386
 20
498.33523494536973
 10
3867.644514653259
 20
498.33523494536973
 10
3861.0186347880854
 20
492.8925479132626
 10
3857.6649080540055
 20
487.3828539929887
 10
3852.654876372794
 20
487.3828539929887
 10
3840.9882097061272
 20
473.69237780251257
 10
3837.6528167451756
 20
473.69237780251257
 10
3832.689090671665
 20
468.2559159124771
 10
3830.208708819068
 20
464.18100286892445
 10
3830.208708819068
 20
447.74857793781894
 10
3818.561686958081
 20
431.34766960295997
 10
3822.6649080540055
 20
424.6066635167983
 10
3825.9982413873386
 20
424.6066635167983
 10
3827.6649080540055
 20
421.86856827870304
 10
3835.9719586010215
 20
421.86856827870304
 10
3844.3052919343554
 20
416.39237780251256
 10
3852.638625267688
 20
416.39237780251256
 10
3860.971958601022
 20
410.916187326322
 10
3870.977847986592
 20
410.916187326322
 10
3877.6445146532587
 20
405.4399968501316
 10
3884.3052919343554
 20
405.4399968501316
 10
3892.5643621811496
 20
400.0126078308093
 10
3896.675375485734
 20
409.46793843135424
 10
3896.675375485734
 20
420.3664025181118
 10
3887.558466336953
 20
432.620949231084
  0
LWPOLYLINE
  5
41
330
17
100
AcDbEntity
  8
K
100
AcDbPolyline
 90
25
 70
1
 10
3814.998270208362
 20
428.60291391984555
 10
3812.534114590476
 20
432.6511695778022
 10
3800.867447923809
 20
440.8654552920879
 10
3797.55250958413
 20
446.31142542156016
 10
3792.5591405928362
 20
446.31142542156016
 10
3784.225807259503
 20
457.2638063739411
 10
3780.8858429174634
 20
457.2638063739411
 10
3777.55250958413
 20
462.7399968501316
 10
3774.2191762507964
 20
462.7399968501316
 10
3770.885842917464
 20
468.21618732632203
 10
3767.55250958413
 20
468.21618732632203
 10
3764.219176250797
 20
473.69237780251257
 10
3760.8858429174634
 20
473.69237780251257
 10
3759.2753754857345
 20
476.3381457260673
 10
3756.8720311549378
 20
472.3897943254724
 10
3755.205364488271
 20
458.69931813499625
 10
3753.542042152401
 20
455.96671715463884
 10
3753.542042152401
 20
439.5942289265768
 10
3757.6649080540055
 20
432.820949231084
 10
3762.6649080540055
 20
432.820949231084
 10
3766.0014525455376
 20
427.33948328070966
 10
3794.334785878871
 20
424.6013880426144
 10
3795.9982413873386
 20
421.86856827870304
 10
3812.5387700611623
 20
421.86856827870304
 10
3814.998270208362
 20
428.60291391984555
  0
LWPOLYLINE
  5
42
330
17
100
AcDbEntity
  8
K
100
AcDbPolyline
 90
23
 70
1
 10
4455.0671810941285
 20
491.49251012914766
 10
4447.569934773746
 20
498.33523494536973
 10
4444.225807259502
 20
498.33523494536973
 10
4435.892473926169
 20
509.28761589775064
 10
4432.552509584129
 20
509.28761589775064
 10
4428.340322185189
 20
516.2076380531544
 10
4430.010923724465
 20
543.6532347698524
 10
4435.895874598674
 20
550.5590444691793
 10
4444.231267559625
 20
550.5590444691793
 10
4449.231267559626
 20
556.0352349453697
 10
4455.8858429174625
 20
556.0352349453697
 10
4457.555899580724
 20
558.7788994635838
 10
4486.001452545537
 20
556.0299594711857
 10
4488.5420421524
 20
551.8561336884816
 10
4488.5420421524
 20
540.9037527361005
 10
4490.208708819067
 20
538.1656574980054
 10
4490.208708819067
 20
524.4751813075293
 10
4491.87326742116
 20
521.7405493183774
 10
4493.544880040304
 20
499.7707834667678
 10
4487.654876372793
 20
492.8590444691792
 10
4477.6649080540055
 20
492.8590444691792
 10
4475.995953640813
 20
490.1171907903656
 10
4455.0671810941285
 20
491.49251012914766
  0
LWPOLYLINE
  5
43
330
17
100
AcDbEntity
  8
K
100
AcDbPolyline
 90
56
 70
1
 10
5163.34189968717
 20
658.7094584201448
 10
5194.330037399119
 20
660.0853795926831
 10
5198.537523131086
 20
653.1730816044505
 10
5203.538875154234
 20
623.045889655486
 10
5206.893161108099
 20
614.7799706977468
 10
5198.537092510585
 20
606.5432745087678
 10
5196.873252680306
 20
592.8760187600528
 10
5191.873252680306
 20
579.1855425695767
 10
5190.205364488271
 20
565.4850324207106
 10
5188.565076012921
 20
562.7902727826357
 10
5200.208708819067
 20
549.1268261223614
 10
5200.208708819067
 20
543.6286868105176
 10
5210.217417638135
 20
510.7429292621539
 10
5205.998241387339
 20
503.8114254215602
 10
5199.319483411842
 20
503.8114254215602
 10
5194.319483411841
 20
498.33523494536973
 10
5185.977847986592
 20
498.33523494536973
 10
5182.685301454751
 20
495.6306431513578
 10
5180.2087088190665
 20
491.56195524987686
 10
5180.2087088190665
 20
483.3476695355911
 10
5178.542042152401
 20
480.6095742974959
 10
5178.542042152401
 20
466.97518130752917
 10
5182.6649080540055
 20
460.2019016120364
 10
5185.989672683201
 20
460.2019016120364
 10
5192.671926099495
 20
451.96841079553155
 10
5204.345133589584
 20
446.489150136918
 10
5206.875375485734
 20
442.332324164672
 10
5206.875375485734
 20
439.5397646953609
 10
5183.5420421524
 20
398.4683361239323
 10
5183.5420421524
 20
395.78470511705297
 10
5205.208708819067
 20
360.18946702181495
 10
5205.208708819067
 20
357.3952885832102
 10
5193.5420421524
 20
338.2286219165435
 10
5193.5420421524
 20
335.5466098789577
 10
5201.8673643426255
 20
321.86929485215984
 10
5205.2006976759585
 20
310.9169138997791
 10
5210.221697047108
 20
302.6681292186056
 10
5200.217573632461
 20
280.75433507223687
 10
5210.224198113727
 20
256.0951533148322
 10
5204.33327191022
 20
249.1823317494924
 10
5196.008289295986
 20
246.44698031910156
 10
5192.677062518592
 20
240.97425061338157
 10
5186.010395851925
 20
238.23615537528636
 10
5183.559110952556
 20
234.20904446917916
 10
5190.197581134257
 20
223.30298631352667
 10
5211.887896465733
 20
173.9634778122568
 10
5207.674955962653
 20
167.0422184143397
 10
5191.008289295986
 20
161.56602793814918
 10
5188.5420421524
 20
157.51433620225768
 10
5188.5420421524
 20
149.30005048797196
 10
5183.5420421524
 20
141.08576477368635
 10
5183.5420421524
 20
135.6049833073339
 10
5173.537223697025
 20
121.90791042199828
 10
5171.871220843644
 20
110.95989167120396
 10
5164.175904811357
 20
98.31758676101981
 10
5163.34189968717
 20
658.7094584201448
  0
ENDSEC
  0
SECTION
  2
OBJECTS
  0
DICTIONARY
  5
A
330
0
100
AcDbDictionary
281
1
  3
ACAD_COLOR
350
B
  3
ACAD_GROUP
350
C
  3
ACAD_LAYOUT
350
D
  3
ACAD_MATERIAL
350
E
  3
ACAD_MLEADERSTYLE
350
F
  3
ACAD_MLINESTYLE
350
10
  3
ACAD_PLOTSETTINGS
350
11
  3
ACAD_PLOTSTYLENAME
350
12
  3
ACAD_SCALELIST
350
14
  3
ACAD_TABLESTYLE
350
15
  3
ACAD_VISUALSTYLE
350
16
  3
EZDXF_META
350
2D
  0
DICTIONARY
  5
B
330
A
100
AcDbDictionary
281
1
  0
DICTIONARY
  5
C
330
A
100
AcDbDictionary
281
1
  0
DICTIONARY
  5
D
330
A
100
AcDbDictionary
281
1
  3
Model
350
1A
  3
Layout1
350
1E
  0
DICTIONARY
  5
E
330
A
100
AcDbDictionary
281
1
  3
ByBlock
350
1F
  3
ByLayer
350
20
  3
Global
350
21
  0
DICTIONARY
  5
F
330
A
100
AcDbDictionary
281
1
  3
Standard
350
2C
  0
DICTIONARY
  5
10
330
A
100
AcDbDictionary
281
1
  3
Standard
350
22
  0
DICTIONARY
  5
11
330
A
100
AcDbDictionary
281
1
  0
ACDBDICTIONARYWDFLT
  5
12
330
A
100
AcDbDictionary
281
1
  3
Normal
350
13
100
AcDbDictionaryWithDefault
340
13
  0
ACDBPLACEHOLDER
  5
13
330
12
  0
DICTIONARY
  5
14
330
A
100
AcDbDictionary
281
1
  0
DICTIONARY
  5
15
330
A
100
AcDbDictionary
281
1
  0
DICTIONARY
  5
16
330
A
100
AcDbDictionary
281
1
  0
LAYOUT
  5
1A
330
D
100
AcDbPlotSettings
  1

  4
A3
  6

 40
7.5
 41
20.0
 42
7.5
 43
20.0
 44
420.0
 45
297.0
 46
0.0
 47
0.0
 48
0.0
 49
0.0
140
0.0
141
0.0
142
1.0
143
1.0
 70
1024
 72
1
 73
0
 74
5
  7

 75
16
 76
0
 77
2
 78
300
147
1.0
148
0.0
149
0.0
100
AcDbLayout
  1
Model
 70
1
 71
0
 10
0.0
 20
0.0
 11
420.0
 21
297.0
 12
0.0
 22
0.0
 32
0.0
 14
1e+20
 24
1e+20
 34
1e+20
 15
-1e+20
 25
-1e+20
 35
-1e+20
146
0.0
 13
0.0
 23
0.0
 33
0.0
 16
1.0
 26
0.0
 36
0.0
 17
0.0
 27
1.0
 37
0.0
 76
1
330
17
  0
LAYOUT
  5
1E
330
D
100
AcDbPlotSettings
  1

  4
A3
  6

 40
7.5
 41
20.0
 42
7.5
 43
20.0
 44
420.0
 45
297.0
 46
0.0
 47
0.0
 48
0.0
 49
0.0
140
0.0
141
0.0
142
1.0
143
1.0
 70
0
 72
1
 73
0
 74
5
  7

 75
16
 76
0
 77
2
 78
300
147
1.0
148
0.0
149
0.0
100
AcDbLayout
  1
Layout1
 70
1
 71
1
 10
0.0
 20
0.0
 11
420.0
 21
297.0
 12
0.0
 22
0.0
 32
0.0
 14
1e+20
 24
1e+20
 34
1e+20
 15
-1e+20
 25
-1e+20
 35
-1e+20
146
0.0
 13
0.0
 23
0.0
 33
0.0
 16
1.0
 26
0.0
 36
0.0
 17
0.0
 27
1.0
 37
0.0
 76
1
330
1B
  0
MATERIAL
  5
1F
102
{ACAD_REACTORS
330
E
102
}
330
E
100
AcDbMaterial
  1
ByBlock
  2

 70
0
 40
1.0
 71
1
 41
1.0
 91
-1023410177
 42
1.0
 72
1
  3

 73
1
 74
1
 75
1
 44
0.5
 73
0
 45
1.0
 46
1.0
 77
1
  4

 78
1
 79
1
170
1
 48
1.0
171
1
  6

172
1
173
1
174
1
140
1.0
141
1.0
175
1
  7

176
1
177
1
178
1
143
1.0
179
1
  8

270
1
271
1
272
1
145
1.0
146
1.0
273
1
  9

274
1
275
1
276
1
 42
1.0
 72
1
  3

 73
1
 74
1
 75
1
 94
63
  0
MATERIAL
  5
20
102
{ACAD_REACTORS
330
E
102
}
330
E
100
AcDbMaterial
  1
ByLayer
  2

 70
0
 40
1.0
 71
1
 41
1.0
 91
-1023410177
 42
1.0
 72
1
  3

 73
1
 74
1
 75
1
 44
0.5
 73
0
 45
1.0
 46
1.0
 77
1
  4

 78
1
 79
1
170
1
 48
1.0
171
1
  6

172
1
173
1
174
1
140
1.0
141
1.0
175
1
  7

176
1
177
1
178
1
143
1.0
179
1
  8

270
1
271
1
272
1
145
1.0
146
1.0
273
1
  9

274
1
275
1
276
1
 42
1.0
 72
1
  3

 73
1
 74
1
 75
1
 94
63
  0
MATERIAL
  5
21
102
{ACAD_REACTORS
330
E
102
}
330
E
100
AcDbMaterial
  1
Global
  2

 70
0
 40
1.0
 71
1
 41
1.0
 91
-1023410177
 42
1.0
 72
1
  3

 73
1
 74
1
 75
1
 44
0.5
 73
0
 45
1.0
 46
1.0
 77
1
  4

 78
1
 79
1
170
1
 48
1.0
171
1
  6

172
1
173
1
174
1
140
1.0
141
1.0
175
1
  7

176
1
177
1
178
1
143
1.0
179
1
  8

270
1
271
1
272
1
145
1.0
146
1.0
273
1
  9

274
1
275
1
276
1
 42
1.0
 72
1
  3

 73
1
 74
1
 75
1
 94
63
  0
MLINESTYLE
  5
22
102
{ACAD_REACTORS
330
10
102
}
330
10
100
AcDbMlineStyle
  2
Standard
 70
0
  3

 62
256
 51
90.0
 52
90.0
 71
2
 49
0.5
 62
256
  6
BYLAYER
 49
-0.5
 62
256
  6
BYLAYER
  0
MLEADERSTYLE
  5
2C
102
{ACAD_REACTORS
330
F
102
}
330
F
100
AcDbMLeaderStyle
179
2
170
2
171
1
172
0
 90
2
 40
0.0
 41
0.0
173
1
 91
-1056964608
 92
-2
290
1
 42
2.0
291
1
 43
8.0
  3
Standard
 44
4.0
300

342
29
174
1
175
1
176
0
178
1
 93
-1056964608
 45
4.0
292
0
297
0
 46
4.0
 94
-1056964608
 47
1.0
 49
1.0
140
1.0
294
1
141
0.0
177
0
142
1.0
295
0
296
0
143
3.75
271
0
272
9
273
9
  0
DICTIONARY
  5
2D
330
A
100
AcDbDictionary
280
1
281
1
  3
CREATED_BY_EZDXF
350
2E
  3
WRITTEN_BY_EZDXF
350
46
  0
DICTIONARYVAR
  5
2E
330
2D
100
DictionaryVariables
280
0
  1
1.4.4 @ 2026-07-17T10:48:45.399769+00:00
  0
DICTIONARYVAR
  5
46
330
2D
100
DictionaryVariables
280
0
  1
1.4.4 @ 2026-07-17T10:48:45.406262+00:00
  0
ENDSEC
  0
EOF
