  0
SECTION
  2
HEADER
  9
$ACADVER
  1
AC1027
  9
$ACADMAINTVER
 70
105
  9
$DWGCODEPAGE
  3
ANSI_1252
  9
$LASTSAVEDBY
  1
ezdxf
  9
$REQUIREDVERSIONS
160
0
  9
$INSBASE
 10
0.0
 20
0.0
 30
0.0
  9
$EXTMIN
 10
1e+20
 20
1e+20
 30
1e+20
  9
$EXTMAX
 10
-1e+20
 20
-1e+20
 30
-1e+20
  9
$LIMMIN
 10
0.0
 20
0.0
  9
$LIMMAX
 10
420.0
 20
297.0
  9
$ORTHOMODE
 70
0
  9
$REGENMODE
 70
1
  9
$FILLMODE
 70
1
  9
$QTEXTMODE
 70
0
  9
$MIRRTEXT
 70
1
  9
$LTSCALE
 40
1.0
  9
$ATTMODE
 70
1
  9
$TEXTSIZE
 40
2.5
  9
$TRACEWID
 40
1.0
  9
$TEXTSTYLE
  7
Standard
  9
$CLAYER
  8
0
  9
$CELTYPE
  6
ByLayer
  9
$CECOLOR
 62
256
  9
$CELTSCALE
 40
1.0
  9
$DISPSILH
 70
0
  9
$DIMSCALE
 40
1.0
  9
$DIMASZ
 40
2.5
  9
$DIMEXO
 40
0.625
  9
$DIMDLI
 40
3.75
  9
$DIMRND
 40
0.0
  9
$DIMDLE
 40
0.0
  9
$DIMEXE
 40
1.25
  9
$DIMTP
 40
0.0
  9
$DIMTM
 40
0.0
  9
$DIMTXT
 40
2.5
  9
$DIMCEN
 40
2.5
  9
$DIMTSZ
 40
0.0
  9
$DIMTOL
 70
0
  9
$DIMLIM
 70
0
  9
$DIMTIH
 70
0
  9
$DIMTOH
 70
0
  9
$DIMSE1
 70
0
  9
$DIMSE2
 70
0
  9
$DIMTAD
 70
1
  9
$DIMZIN
 70
8
  9
$DIMBLK
  1

  9
$DIMASO
 70
1
  9
$DIMSHO
 70
1
  9
$DIMPOST
  1

  9
$DIMAPOST
  1

  9
$DIMALT
 70
0
  9
$DIMALTD
 70
3
  9
$DIMALTF
 40
0.03937007874
  9
$DIMLFAC
 40
1.0
  9
$DIMTOFL
 70
1
  9
$DIMTVP
 40
0.0
  9
$DIMTIX
 70
0
  9
$DIMSOXD
 70
0
  9
$DIMSAH
 70
0
  9
$DIMBLK1
  1

  9
$DIMBLK2
  1

  9
$DIMSTYLE
  2
ISO-25
  9
$DIMCLRD
 70
0
  9
$DIMCLRE
 70
0
  9
$DIMCLRT
 70
0
  9
$DIMTFAC
 40
1.0
  9
$DIMGAP
 40
0.625
  9
$DIMJUST
 70
0
  9
$DIMSD1
 70
0
  9
$DIMSD2
 70
0
  9
$DIMTOLJ
 70
0
  9
$DIMTZIN
 70
8
  9
$DIMALTZ
 70
0
  9
$DIMALTTZ
 70
0
  9
$DIMUPT
 70
0
  9
$DIMDEC
 70
2
  9
$DIMTDEC
 70
2
  9
$DIMALTU
 70
2
  9
$DIMALTTD
 70
3
  9
$DIMTXSTY
  7
Standard
  9
$DIMAUNIT
 70
0
  9
$DIMADEC
 70
0
  9
$DIMALTRND
 40
0.0
  9
$DIMAZIN
 70
0
  9
$DIMDSEP
 70
44
  9
$DIMATFIT
 70
3
  9
$DIMFRAC
 70
0
  9
$DIMLDRBLK
  1

  9
$DIMLUNIT
 70
2
  9
$DIMLWD
 70
-2
  9
$DIMLWE
 70
-2
  9
$DIMTMOVE
 70
0
  9
$DIMFXL
 40
1.0
  9
$DIMFXLON
 70
0
  9
$DIMJOGANG
 40
0.785398163397
  9
$DIMTFILL
 70
0
  9
$DIMTFILLCLR
 70
0
  9
$DIMARCSYM
 70
0
  9
$DIMLTYPE
  6

  9
$DIMLTEX1
  6

  9
$DIMLTEX2
  6

  9
$DIMTXTDIRECTION
 70
0
  9
$LUNITS
 70
2
  9
$LUPREC
 70
4
  9
$SKETCHINC
 40
1.0
  9
$FILLETRAD
 40
10.0
  9
$AUNITS
 70
0
  9
$AUPREC
 70
2
  9
$MENU
  1
.
  9
$ELEVATION
 40
0.0
  9
$PELEVATION
 40
0.0
  9
$THICKNESS
 40
0.0
  9
$LIMCHECK
 70
0
  9
$CHAMFERA
 40
0.0
  9
$CHAMFERB
 40
0.0
  9
$CHAMFERC
 40
0.0
  9
$CHAMFERD
 40
0.0
  9
$SKPOLY
 70
0
  9
$TDCREATE
 40
2461243.4827199075
  9
$TDUCREATE
 40
2458532.153996898
  9
$TDUPDATE
 40
2461243.4827199075
  9
$TDUUPDATE
 40
2458532.1544311
  9
$TDINDWG
 40
0.0
  9
$TDUSRTIMER
 40
0.0
  9
$USRTIMER
 70
1
  9
$ANGBASE
 50
0.0
  9
$ANGDIR
 70
0
  9
$PDMODE
 70
0
  9
$PDSIZE
 40
0.0
  9
$PLINEWID
 40
0.0
  9
$SPLFRAME
 70
0
  9
$SPLINETYPE
 70
6
  9
$SPLINESEGS
 70
8
  9
$HANDSEED
  5
40
  9
$SURFTAB1
 70
6
  9
$SURFTAB2
 70
6
  9
$SURFTYPE
 70
6
  9
$SURFU
 70
6
  9
$SURFV
 70
6
  9
$UCSBASE
  2

  9
$UCSNAME
  2

  9
$UCSORG
 10
0.0
 20
0.0
 30
0.0
  9
$UCSXDIR
 10
1.0
 20
0.0
 30
0.0
  9
$UCSYDIR
 10
0.0
 20
1.0
 30
0.0
  9
$UCSORTHOREF
  2

  9
$UCSORTHOVIEW
 70
0
  9
$UCSORGTOP
 10
0.0
 20
0.0
 30
0.0
  9
$UCSORGBOTTOM
 10
0.0
 20
0.0
 30
0.0
  9
$UCSORGLEFT
 10
0.0
 20
0.0
 30
0.0
  9
$UCSORGRIGHT
 10
0.0
 20
0.0
 30
0.0
  9
$UCSORGFRONT
 10
0.0
 20
0.0
 30
0.0
  9
$UCSORGBACK
 10
0.0
 20
0.0
 30
0.0
  9
$PUCSBASE
  2

  9
$PUCSNAME
  2

  9
$PUCSORG
 10
0.0
 20
0.0
 30
0.0
  9
$PUCSXDIR
 10
1.0
 20
0.0
 30
0.0
  9
$PUCSYDIR
 10
0.0
 20
1.0
 30
0.0
  9
$PUCSORTHOREF
  2

  9
$PUCSORTHOVIEW
 70
0
  9
$PUCSORGTOP
 10
0.0
 20
0.0
 30
0.0
  9
$PUCSORGBOTTOM
 10
0.0
 20
0.0
 30
0.0
  9
$PUCSORGLEFT
 10
0.0
 20
0.0
 30
0.0
  9
$PUCSORGRIGHT
 10
0.0
 20
0.0
 30
0.0
  9
$PUCSORGFRONT
 10
0.0
 20
0.0
 30
0.0
  9
$PUCSORGBACK
 10
0.0
 20
0.0
 30
0.0
  9
$USERI1
 70
0
  9
$USERI2
 70
0
  9
$USERI3
 70
0
  9
$USERI4
 70
0
  9
$USERI5
 70
0
  9
$USERR1
 40
0.0
  9
$USERR2
 40
0.0
  9
$USERR3
 40
0.0
  9
$USERR4
 40
0.0
  9
$USERR5
 40
0.0
  9
$WORLDVIEW
 70
1
  9
$SHADEDGE
 70
3
  9
$SHADEDIF
 70
70
  9
$TILEMODE
 70
1
  9
$MAXACTVP
 70
64
  9
$PINSBASE
 10
0.0
 20
0.0
 30
0.0
  9
$PLIMCHECK
 70
0
  9
$PEXTMIN
 10
1e+20
 20
1e+20
 30
1e+20
  9
$PEXTMAX
 10
-1e+20
 20
-1e+20
 30
-1e+20
  9
$PLIMMIN
 10
0.0
 20
0.0
  9
$PLIMMAX
 10
420.0
 20
297.0
  9
$UNITMODE
 70
0
  9
$VISRETAIN
 70
1
  9
$PLINEGEN
 70
0
  9
$PSLTSCALE
 70
1
  9
$TREEDEPTH
 70
3020
  9
$CMLSTYLE
  2
Standard
  9
$CMLJUST
 70
0
  9
$CMLSCALE
 40
20.0
  9
$PROXYGRAPHICS
 70
1
  9
$MEASUREMENT
 70
1
  9
$CELWEIGHT
370
-1
  9
$ENDCAPS
280
0
  9
$JOINSTYLE
280
0
  9
$LWDISPLAY
290
0
  9
$INSUNITS
 70
4
  9
$HYPERLINKBASE
  1

  9
$STYLESHEET
  1

  9
$XEDIT
290
1
  9
$CEPSNTYPE
380
0
  9
$PSTYLEMODE
290
1
  9
$FINGERPRINTGUID
  2
{AD9CC171-B326-4132-97B2-38D19B365E2F}
  9
$VERSIONGUID
  2
{EA3C7BB5-C3F7-4162-9779-4F33708E1670}
  9
$EXTNAMES
290
1
  9
$PSVPSCALE
 40
0.0
  9
$OLESTARTUP
290
0
  9
$SORTENTS
280
127
  9
$INDEXCTL
280
0
  9
$HIDETEXT
280
1
  9
$XCLIPFRAME
280
1
  9
$HALOGAP
280
0
  9
$OBSCOLOR
 70
257
  9
$OBSLTYPE
280
0
  9
$INTERSECTIONDISPLAY
280
0
  9
$INTERSECTIONCOLOR
 70
257
  9
$DIMASSOC
280
2
  9
$PROJECTNAME
  1

  9
$CAMERADISPLAY
290
0
  9
$LENSLENGTH
 40
50.0
  9
$CAMERAHEIGHT
 40
0.0
  9
$STEPSPERSEC
 40
24.0
  9
$STEPSIZE
 40
100.0
  9
$3DDWFPREC
 40
2.0
  9
$PSOLWIDTH
 40
0.005
  9
$PSOLHEIGHT
 40
0.08
  9
$LOFTANG1
 40
1.570796326795
  9
$LOFTANG2
 40
1.570796326795
  9
$LOFTMAG1
 40
0.0
  9
$LOFTMAG2
 40
0.0
  9
$LOFTPARAM
 70
7
  9
$LOFTNORMALS
280
1
  9
$LATITUDE
 40
37.795
  9
$LONGITUDE
 40
-122.394
  9
$NORTHDIRECTION
 40
0.0
  9
$TIMEZONE
 70
-8000
  9
$LIGHTGLYPHDISPLAY
280
1
  9
$TILEMODELIGHTSYNCH
280
1
  9
$CMATERIAL
347
20
  9
$SOLIDHIST
280
0
  9
$SHOWHIST
280
1
  9
$DWFFRAME
280
2
  9
$DGNFRAME
280
2
  9
$REALWORLDSCALE
290
1
  9
$INTERFERECOLOR
 62
256
  9
$CSHADOW
280
0
  9
$SHADOWPLANELOCATION
 40
0.0
  0
ENDSEC
  0
SECTION
  2
CLASSES
  0
CLASS
  1
ACDBDICTIONARYWDFLT
  2
AcDbDictionaryWithDefault
  3
ObjectDBX Classes
 90
0
 91
0
280
0
281
0
  0
CLASS
  1
SUN
  2
AcDbSun
  3
SCENEOE
 90
1153
 91
0
280
0
281
0
  0
CLASS
  1
VISUALSTYLE
  2
AcDbVisualStyle
  3
ObjectDBX Classes
 90
4095
 91
0
280
0
281
0
  0
CLASS
  1
MATERIAL
  2
AcDbMaterial
  3
ObjectDBX Classes
 90
1153
 91
0
280
0
281
0
  0
CLASS
  1
SCALE
  2
AcDbScale
  3
ObjectDBX Classes
 90
1153
 91
0
280
0
281
0
  0
CLASS
  1
TABLESTYLE
  2
AcDbTableStyle
  3
ObjectDBX Classes
 90
4095
 91
0
280
0
281
0
  0
CLASS
  1
MLEADERSTYLE
  2
AcDbMLeaderStyle
  3
ACDB_MLEADERSTYLE_CLASS
 90
4095
 91
0
280
0
281
0
  0
CLASS
  1
DICTIONARYVAR
  2
AcDbDictionaryVar
  3
ObjectDBX Classes
 90
0
 91
0
280
0
281
0
  0
CLASS
  1
CELLSTYLEMAP
  2
AcDbCellStyleMap
  3
ObjectDBX Classes
 90
1152
 91
0
280
0
281
0
  0
CLASS
  1
MENTALRAYRENDERSETTINGS
  2
AcDbMentalRayRenderSettings
  3
SCENEOE
 90
1024
 91
0
280
0
281
0
  0
CLASS
  1
ACDBDETAILVIEWSTYLE
  2
AcDbDetailViewStyle
  3
ObjectDBX Classes
 90
1025
 91
0
280
0
281
0
  0
CLASS
  1
ACDBSECTIONVIEWSTYLE
  2
AcDbSectionViewStyle
  3
ObjectDBX Classes
 90
1025
 91
0
280
0
281
0
  0
CLASS
  1
RASTERVARIABLES
  2
AcDbRasterVariables
  3
ISM
 90
0
 91
0
280
0
281
0
  0
CLASS
  1
ACDBPLACEHOLDER
  2
AcDbPlaceHolder
  3
ObjectDBX Classes
 90
0
 91
0
280
0
281
0
  0
CLASS
  1
LAYOUT
  2
AcDbLayout
  3
ObjectDBX Classes
 90
0
 91
0
280
0
281
0
  0
ENDSEC
  0
SECTION
  2
TABLES
  0
TABLE
  2
VPORT
  5
8
330
0
100
AcDbSymbolTable
 70
1
  0
VPORT
  5
23
330
8
100
AcDbSymbolTableRecord
100
AcDbViewportTableRecord
  2
*Active
 70
0
 10
0.0
 20
0.0
 11
1.0
 21
1.0
 12
0.0
 22
0.0
 13
0.0
 23
0.0
 14
0.5
 24
0.5
 15
0.5
 25
0.5
 16
0.0
 26
0.0
 36
1.0
 17
0.0
 27
0.0
 37
0.0
 40
1000.0
 41
1.34
 42
50.0
 43
0.0
 44
0.0
 50
0.0
 51
0.0
 71
0
 72
1000
 73
1
 74
3
 75
0
 76
0
 77
0
 78
0
281
0
 65
0
146
0.0
  0
ENDTAB
  0
TABLE
  2
LTYPE
  5
2
330
0
100
AcDbSymbolTable
 70
3
  0
LTYPE
  5
24
330
2
100
AcDbSymbolTableRecord
100
AcDbLinetypeTableRecord
  2
ByBlock
 70
0
  3

 72
65
 73
0
 40
0.0
  0
LTYPE
  5
25
330
2
100
AcDbSymbolTableRecord
100
AcDbLinetypeTableRecord
  2
ByLayer
 70
0
  3

 72
65
 73
0
 40
0.0
  0
LTYPE
  5
26
330
2
100
AcDbSymbolTableRecord
100
AcDbLinetypeTableRecord
  2
Continuous
 70
0
  3

 72
65
 73
0
 40
0.0
  0
ENDTAB
  0
TABLE
  2
LAYER
  5
1
330
0
100
AcDbSymbolTable
 70
3
  0
LAYER
  5
27
330
1
100
AcDbSymbolTableRecord
100
AcDbLayerTableRecord
  2
0
 70
0
 62
7
  6
Continuous
370
-3
390
13
347
21
  0
LAYER
  5
28
330
1
100
AcDbSymbolTableRecord
100
AcDbLayerTableRecord
  2
Defpoints
 70
0
 62
7
  6
Continuous
290
0
370
-3
390
13
347
21
  0
LAYER
  5
2F
330
1
100
AcDbSymbolTableRecord
100
AcDbLayerTableRecord
  2
C
 70
0
 62
7
  6
Continuous
370
-3
390
13
347
21
  0
ENDTAB
  0
TABLE
  2
STYLE
  5
5
330
0
100
AcDbSymbolTable
 70
1
  0
STYLE
  5
29
330
5
100
AcDbSymbolTableRecord
100
AcDbTextStyleTableRecord
  2
Standard
 70
0
 40
0.0
 41
1.0
 50
0.0
 71
0
 42
2.5
  3
txt
  4

  0
ENDTAB
  0
TABLE
  2
VIEW
  5
7
330
0
100
AcDbSymbolTable
 70
0
  0
ENDTAB
  0
TABLE
  2
UCS
  5
6
330
0
100
AcDbSymbolTable
 70
0
  0
ENDTAB
  0
TABLE
  2
APPID
  5
3
330
0
100
AcDbSymbolTable
 70
3
  0
APPID
  5
2A
330
3
100
AcDbSymbolTableRecord
100
AcDbRegAppTableRecord
  2
ACAD
 70
0
  0
APPID
  5
3D
330
3
100
AcDbSymbolTableRecord
100
AcDbRegAppTableRecord
  2
HATCHBACKGROUNDCOLOR
 70
0
  0
APPID
  5
3E
330
3
100
AcDbSymbolTableRecord
100
AcDbRegAppTableRecord
  2
EZDXF
 70
0
  0
ENDTAB
  0
TABLE
  2
DIMSTYLE
  5
4
330
0
100
AcDbSymbolTable
 70
1
100
AcDbDimStyleTable
  0
DIMSTYLE
105
2B
330
4
100
AcDbSymbolTableRecord
100
AcDbDimStyleTableRecord
  2
Standard
 70
0
 40
1.0
 41
2.5
 42
0.625
 43
3.75
 44
1.25
 45
0.0
 46
0.0
 47
0.0
 48
0.0
 49
2.5
140
2.5
141
2.5
142
0.0
143
0.03937007874
144
1.0
145
0.0
146
1.0
147
0.625
148
0.0
 69
0
 70
0
 71
0
 72
0
 73
0
 74
0
 75
0
 76
0
 77
1
 78
8
 79
3
170
0
171
3
172
1
173
0
174
0
175
0
176
0
177
0
178
0
179
2
271
2
272
2
273
2
274
3
275
0
276
0
277
2
278
44
279
0
280
0
281
0
282
0
283
0
284
8
285
0
286
0
288
0
289
3
290
0
371
-2
372
-2
  0
ENDTAB
  0
TABLE
  2
BLOCK_RECORD
  5
9
330
0
100
AcDbSymbolTable
 70
2
  0
BLOCK_RECORD
  5
17
330
9
100
AcDbSymbolTableRecord
100
AcDbBlockTableRecord
  2
*Model_Space
340
1A
 70
0
280
1
281
0
  0
BLOCK_RECORD
  5
1B
330
9
100
AcDbSymbolTableRecord
100
AcDbBlockTableRecord
  2
*Paper_Space
340
1E
 70
0
280
1
281
0
  0
ENDTAB
  0
ENDSEC
  0
SECTION
  2
BLOCKS
  0
BLOCK
  5
18
330
17
100
AcDbEntity
  8
0
100
AcDbBlockBegin
  2
*Model_Space
 70
0
 10
0.0
 20
0.0
 30
0.0
  3
*Model_Space
  1

  0
ENDBLK
  5
19
330
17
100
AcDbEntity
  8
0
100
AcDbBlockEnd
  0
BLOCK
  5
1C
330
1B
100
AcDbEntity
  8
0
100
AcDbBlockBegin
  2
*Paper_Space
 70
0
 10
0.0
 20
0.0
 30
0.0
  3
*Paper_Space
  1

  0
ENDBLK
  5
1D
330
1B
100
AcDbEntity
  8
0
100
AcDbBlockEnd
  0
ENDSEC
  0
SECTION
  2
ENTITIES
  0
LWPOLYLINE
  5
30
330
17
100
AcDbEntity
  8
C
100
AcDbPolyline
 90
30
 70
1
 10
49.223763374587335
 20
95.84444320409547
 10
45.90353195666452
 20
101.29910910496854
 10
30.93176104432027
 20
98.5661667955724
 10
22.589956266597433
 20
104.0479242209329
 10
17.584066881026985
 20
104.0479242209329
 10
10.879648605630177
 20
109.55512494715181
 10
0.0
 20
124.67903207475828
 10
2.594341836656744
 20
128.94116509212273
 10
12.589004312606678
 20
120.73126377259236
 10
24.237826997925318
 20
142.60252269196604
 10
32.56606881522717
 20
139.8661003805669
 10
37.56886205852705
 20
150.82459986589058
 10
44.245527162170006
 20
148.0823981268944
 10
46.669470581729655
 20
152.0645908875996
 10
41.66947058172976
 20
160.27887660188534
 10
44.26100850332348
 20
164.53640318736063
 10
47.65567854940955
 20
161.74792422093287
 10
54.34273861682249
 20
161.74792422093287
 10
55.97873692711319
 20
159.0602127111702
 10
59.31207026044638
 20
161.79830794926542
 10
61.0094052834893
 20
159.00982898283766
 10
72.67607195015601
 20
159.00982898283766
 10
74.3427386168225
 20
156.27173374474245
 10
77.67607195015592
 20
156.27173374474245
 10
80.21987271521813
 20
152.09263248785453
 10
80.21987271521813
 20
110.95868362876527
 10
72.68232566562772
 20
101.32737350984388
 10
66.02155974807621
 20
98.5917017937069
 10
62.66869849867174
 20
93.08342974111383
 10
49.223763374587335
 20
95.84444320409547
  0
LWPOLYLINE
  5
31
330
17
100
AcDbEntity
  8
C
100
AcDbPolyline
 90
88
 70
1
 10
250.95320604855152
 20
208.0032159540115
 10
246.66947058172983
 20
215.04078136379002
 10
251.66947058172983
 20
223.25506707807574
 10
249.28653938188495
 20
227.16988262067815
 10
246.00940528348934
 20
221.7860194590282
 10
242.67607195015594
 20
221.7860194590282
 10
241.00940528348934
 20
219.04792422093288
 10
234.2303401469472
 20
219.04792422093288
 10
221.68653938188498
 20
239.65559690639247
 10
221.68653938188498
 20
245.131787382583
 10
215.92767516999024
 20
254.59277858783847
 10
212.6556785494095
 20
251.9050670780758
 10
202.56367348028058
 20
251.9050670780758
 10
200.8970068136139
 20
254.64316231617101
 10
195.9007049301552
 20
254.64316231617101
 10
181.68268883695404
 20
275.25331169497116
 10
183.34974600236453
 20
288.9469955536998
 10
181.66947058172988
 20
291.70744803045665
 10
184.23034014694716
 20
295.9145908875995
 10
194.23034014694719
 20
295.9145908875995
 10
198.34162656608555
 20
302.66884714761267
 10
195.00829323275227
 20
310.8831328618983
 10
197.57570795282763
 20
315.1010284734506
 10
205.90904128616094
 20
312.36293323535534
 10
210.0028039150632
 20
319.08840041140905
 10
208.3361372483965
 20
321.8264956495044
 10
210.9532060485516
 20
326.1259658211877
 10
212.6198727152182
 20
323.38787058309236
 10
215.93712967803214
 20
328.8376498791438
 10
220.93712967803214
 20
323.36145940295324
 10
223.34449722948435
 20
327.31642038033914
 10
221.67783056281775
 20
332.7926108565297
 10
224.2303401469472
 20
336.98601945902817
 10
227.66750324601847
 20
336.98601945902817
 10
234.27483861797782
 20
328.8448383757212
 10
237.57570795282757
 20
334.2676951401172
 10
246.0194531921377
 20
331.493321704344
 10
248.5619148676188
 20
327.31642038033914
 10
246.8952482009521
 20
321.8402299041487
 10
250.95320604855152
 20
315.17358486880664
 10
253.34449722948438
 20
319.1021346660534
 10
251.67783056281766
 20
324.57832514224395
 10
254.23034014694724
 20
328.77173374474245
 10
257.676071950156
 20
328.77173374474245
 10
259.28653938188495
 20
326.1259658211877
 10
261.6749598994189
 20
330.04979952856496
 10
258.3416265660856
 20
338.2640852428507
 10
260.88695890496547
 20
342.4457026567249
 10
269.3307041442756
 20
345.2200760924983
 10
271.90360818203993
 20
340.99316231617104
 10
270.24034793312467
 20
338.2606633358101
 10
279.2782389196208
 20
326.112329347468
 10
280.89700681361387
 20
328.77173374474245
 10
284.32845551107056
 20
328.77173374474245
 10
301.8800113984579
 20
310.92168200893013
 10
306.88202036057044
 20
280.7905327847756
 10
310.97873692711295
 20
274.0602127111702
 10
314.25073354769364
 20
276.7479242209329
 10
337.5636734802805
 20
276.7479242209329
 10
339.2865393818849
 20
279.5783467735686
 10
340.95320604855164
 20
276.8402515354733
 10
342.5636734802806
 20
279.48601945902817
 10
349.34273861682266
 20
279.48601945902817
 10
351.90360818203993
 20
275.2788766018853
 10
350.22858153428547
 20
272.52704710914566
 10
351.89106821040815
 20
267.0645908875996
 10
350.2244015437416
 20
261.58840041140905
 10
353.5619148676188
 20
250.6222852043838
 10
349.3181341358059
 20
243.65035971640557
 10
340.923289599931
 20
249.1669718399806
 10
329.2303401469472
 20
249.1669718399806
 10
325.9276751699902
 20
254.59277858783847
 10
322.6198727152183
 20
251.87565514284728
 10
319.31207026044626
 20
254.59277858783847
 10
316.0094052834893
 20
249.1669718399806
 10
312.67607195015603
 20
249.1669718399806
 10
309.3427386168226
 20
243.69078136379008
 10
306.0094052834893
 20
243.69078136379008
 10
302.69359380770067
 20
238.24337679642292
 10
294.356602084747
 20
232.76478223562492
 10
284.33733188271117
 20
219.04792422093288
 10
281.0094052834893
 20
219.04792422093288
 10
277.6964653509023
 20
213.60523718882584
 10
270.98901188274283
 20
208.09554326855195
 10
267.676071950156
 20
208.09554326855195
 10
262.61987271521826
 20
199.78893023972577
 10
254.28653938188495
 20
213.47940643020203
 10
250.95320604855152
 20
208.0032159540115
  0
LWPOLYLINE
  5
32
330
17
100
AcDbEntity
  8
C
100
AcDbPolyline
 90
58
 70
1
 10
158.33613724839657
 20
124.68363850664721
 10
165.89043004125415
 20
137.0942623806276
 10
179.22376337458746
 20
139.83235761872282
 10
180.9276751699902
 20
142.63164128259876
 10
184.27668021019093
 20
139.88067285671957
 10
189.29099887414014
 20
145.37254567914005
 10
195.92921663961314
 20
137.19331307525385
 10
200.8889304235102
 20
148.05744803045673
 10
205.89180134632622
 20
148.05744803045673
 10
214.21840126129644
 20
164.47274500568375
 10
225.90022616250673
 20
167.21439778862091
 10
235.90909812244377
 20
178.17649564950432
 10
240.89700681361393
 20
178.17649564950432
 10
245.95320604855164
 20
186.48310867833052
 10
249.28653938188495
 20
181.00691820213999
 10
252.61987271521824
 20
186.48310867833052
 10
254.28653938188495
 20
183.7450134402353
 10
256.66947058172985
 20
187.65982898283772
 10
255.00280391506325
 20
190.39792422093294
 10
259.28653938188495
 20
197.43548963071146
 10
262.68822641474287
 20
191.84700379101628
 10
269.3548930814096
 20
189.10890855292095
 10
271.90360818203993
 20
184.92173374474243
 10
270.23694151537336
 20
182.1836385066472
 10
272.6556250984049
 20
178.2100869059524
 10
277.6556250984049
 20
180.94818214404762
 10
279.34273861682266
 20
178.17649564950432
 10
284.3427386168227
 20
178.17649564950432
 10
287.676071950156
 20
172.7003051733138
 10
291.0094052834893
 20
172.7003051733138
 10
294.3427386168227
 20
167.22411469712338
 10
297.676071950156
 20
167.22411469712338
 10
300.21799612052234
 20
163.0480964172357
 10
301.8846627871891
 20
138.40523927437863
 10
303.56364465925714
 20
135.64691191312383
 10
301.0175563934576
 20
128.67547975676797
 10
287.55709670792083
 20
131.43968129933347
 10
284.23034014694724
 20
136.9050670780758
 10
279.23034014694724
 20
136.9050670780758
 10
277.56367348028056
 20
139.64316231617101
 10
274.34273861682266
 20
139.64316231617101
 10
272.61987271521826
 20
136.81273976353538
 10
270.8970068136138
 20
139.64316231617101
 10
267.67259376215094
 20
139.64316231617101
 10
252.69434189281836
 20
117.77015958635218
 10
239.3223452160762
 20
106.7860194590281
 10
236.0048417012568
 20
106.7860194590281
 10
224.35284182961456
 20
90.37810127243007
 10
212.68033503891482
 20
84.89916951353015
 10
207.6639806413262
 20
79.40506707807582
 10
194.3427386168226
 20
79.40506707807582
 10
192.676071950156
 20
76.6669718399805
 10
187.584066881027
 20
76.6669718399805
 10
184.31207026044626
 20
79.35468334974327
 10
180.96150651081578
 20
73.8501857610645
 10
171.69593271487815
 20
86.30456092833138
 10
161.6945505249936
 20
119.16624526652342
 10
158.33613724839657
 20
124.68363850664721
  0
LWPOLYLINE
  5
33
330
17
100
AcDbEntity
  8
C
100
AcDbPolyline
 90
5
 70
1
 10
262.6425097258075
 20
186.06126467471006
 10
260.2303113259239
 20
179.45643572264757
 10
262.597235704629
 20
175.56791710048913
 10
265.0094341045127
 20
182.17274605255162
 10
262.6425097258075
 20
186.06126467471006
  0
LWPOLYLINE
  5
34
330
17
100
AcDbEntity
  8
C
100
AcDbPolyline
 90
5
 70
1
 10
217.6604451832045
 20
339.804522395712
 10
220.23031132592385
 20
332.7679841477897
 10
217.61987271521832
 20
328.479406430202
 10
213.32661936035592
 20
335.5326083703328
 10
217.6604451832045
 20
339.804522395712
  0
LWPOLYLINE
  5
35
330
17
100
AcDbEntity
  8
C
100
AcDbPolyline
 90
22
 70
1
 10
1645.0604623220813
 20
67.08891398083117
 10
1642.619872715218
 20
71.09845404924964
 10
1640.988958431738
 20
68.41909486924669
 10
1638.3532060485513
 20
69.86248307908704
 10
1638.3532060485513
 20
78.16406105928297
 10
1640.0028039150632
 20
80.87411469712336
 10
1638.3532060485513
 20
83.58416833496385
 10
1638.3532060485513
 20
97.3414709971463
 10
1643.3409563586754
 20
102.8042451463299
 10
1641.6778305628175
 20
108.26880133272022
 10
1644.2181856823604
 20
112.4422418862543
 10
1650.9942182682662
 20
115.22525526975147
 10
1653.5647855310172
 20
111.0021804809459
 10
1650.2314521976841
 20
102.78789476666029
 10
1652.6198727152182
 20
98.86406105928303
 10
1655.9532060485515
 20
104.34025153547344
 10
1660.2118615721092
 20
97.34388888962809
 10
1661.895248200952
 20
91.81276139485995
 10
1658.5702748487063
 20
86.35030517331388
 10
1665.2369415153732
 20
75.39792422093295
 10
1659.339348620228
 20
65.70902160748082
 10
1645.0604623220813
 20
67.08891398083117
  0
LWPOLYLINE
  5
36
330
17
100
AcDbEntity
  8
C
100
AcDbPolyline
 90
98
 70
1
 10
2783.3444972294847
 20
4.193713775812347
 10
2788.3532060485522
 20
20.650899895604535
 10
2788.3532060485522
 20
26.140251535473503
 10
2793.3532060485522
 20
34.35453724975912
 10
2793.3532060485522
 20
39.83072772594964
 10
2795.8970068136136
 20
44.009828982837675
 10
2799.342738616823
 20
44.009828982837675
 10
2801.0094052834897
 20
41.27173374474247
 10
2809.3427386168228
 20
41.27173374474247
 10
2811.0094052834897
 20
38.53363850664715
 10
2832.6760719501563
 20
38.53363850664715
 10
2834.3472282327007
 20
35.78816747103841
 10
2854.347228232701
 20
33.05007223294321
 10
2856.0094052834897
 20
30.31935279236142
 10
2872.563673480281
 20
30.31935279236142
 10
2875.015537980411
 20
34.34741589971835
 10
2873.356443120323
 20
45.25003926600979
 10
2868.3560920307887
 20
56.203189271655795
 10
2865.0229295222075
 20
80.84478353152657
 10
2858.353206048552
 20
94.5415370934981
 10
2858.353206048552
 20
105.50497319179064
 10
2855.0198727152188
 20
119.19544938226679
 10
2855.0198727152188
 20
127.39369214448747
 10
2853.353206048552
 20
130.13178738258267
 10
2853.353206048552
 20
138.33227128840687
 10
2849.3062886938833
 20
142.3213755380085
 10
2847.676071950156
 20
139.64316231617101
 10
2837.6760719501563
 20
139.64316231617101
 10
2836.0094052834893
 20
136.9050670780758
 10
2824.3427386168223
 20
136.9050670780758
 10
2822.6760719501563
 20
134.1669718399805
 10
2797.6760719501563
 20
134.1669718399805
 10
2796.0094052834893
 20
131.4288766018853
 10
2790.9973139746594
 20
131.4288766018853
 10
2785.9371296780323
 20
125.88676999129345
 10
2784.230340146947
 20
128.69078136379008
 10
2760.8970068136146
 20
128.69078136379008
 10
2759.2303401469476
 20
131.4288766018853
 10
2747.563673480281
 20
131.4288766018853
 10
2745.897006813614
 20
134.1669718399805
 10
2730.897006813614
 20
134.1669718399805
 10
2728.3361372483973
 20
138.37411469712336
 10
2733.336137248397
 20
146.58840041140908
 10
2730.897006813614
 20
150.59554326855195
 10
2714.2303401469476
 20
150.59554326855195
 10
2712.5636734802806
 20
153.33363850664716
 10
2697.563673480281
 20
153.33363850664716
 10
2695.897006813614
 20
156.0717337447425
 10
2665.8832672906465
 20
156.0717337447425
 10
2663.348869003741
 20
163.01115762555474
 10
2670.0198727152183
 20
190.40992286912274
 10
2670.0198727152183
 20
195.90215629737807
 10
2673.357360690643
 20
201.38517225700338
 10
2675.015076389597
 20
212.27873256441575
 10
2660.0198727152183
 20
234.17649031112654
 10
2660.0198727152183
 20
242.4497753449971
 10
2663.3532060485522
 20
247.92596582118765
 10
2663.3532060485522
 20
256.1402515354734
 10
2665.8970068136136
 20
260.31935279236154
 10
2725.8970068136146
 20
260.31935279236154
 10
2727.5636734802806
 20
263.0574480304567
 10
2732.6760719501567
 20
263.0574480304567
 10
2735.219872715218
 20
258.8783467735686
 10
2735.219872715218
 20
223.28310867833045
 10
2737.6760719501567
 20
219.24792422093287
 10
2754.2303401469476
 20
219.24792422093287
 10
2755.8942647611407
 20
221.98151465853667
 10
2789.32728394771
 20
224.7277983774334
 10
2794.3306473079933
 20
219.24792422093287
 10
2797.5899562665977
 20
219.24792422093287
 10
2805.9232895999316
 20
224.72411469712338
 10
2812.588200138487
 20
224.72411469712338
 10
2824.2548668051536
 20
232.9384004114091
 10
2832.5757647891105
 20
232.9384004114091
 10
2837.5757647891105
 20
238.41459088759953
 10
2844.2303401469476
 20
238.41459088759953
 10
2845.9028576164105
 20
241.1622981588597
 10
2862.670324464319
 20
238.40764289098894
 10
2867.663980641327
 20
232.9384004114091
 10
2904.3427386168228
 20
232.9384004114091
 10
2906.886539381885
 20
228.7592991545212
 10
2906.886539381885
 20
209.53654928734466
 10
2905.218661471103
 20
206.79646414820252
 10
2903.551994804436
 20
168.4631308148691
 10
2900.2303113259236
 20
163.00607938588473
 10
2902.689811473124
 20
156.27173374474245
 10
2954.230340146948
 20
156.27173374474245
 10
2955.897006813614
 20
159.00982898283766
 10
2976.01127744148
 20
159.00982898283766
 10
3001.01697734815
 20
115.19031676543578
 10
3016.0152986634107
 20
112.45252795392003
 10
3017.676071950156
 20
109.7241146971234
 10
3037.6760719501563
 20
109.7241146971234
 10
3040.2198727152186
 20
105.54501344023559
 10
3040.2198727152186
 20
4.17940643020176
 10
3037.675886192487
 20
0.0
 10
2785.0634882877694
 20
1.3696570372013772
 10
2783.3444972294847
 20
4.193713775812347
  0
LWPOLYLINE
  5
37
330
17
100
AcDbEntity
  8
C
100
AcDbPolyline
 90
21
 70
1
 10
2970.0198727152188
 20
198.59046332798502
 10
2970.0198727152188
 20
209.59263248785453
 10
2972.5636734802806
 20
213.77173374474245
 10
2982.563673480281
 20
213.77173374474245
 10
2984.230340146947
 20
216.50982898283766
 10
3029.230340146947
 20
216.50982898283766
 10
3030.897006813614
 20
219.24792422093287
 10
3037.6760719501563
 20
219.24792422093287
 10
3040.2198727152186
 20
215.06882296404495
 10
3040.2198727152186
 20
206.79845404924947
 10
3037.6760719501563
 20
202.61935279236155
 10
3027.6760719501567
 20
202.61935279236155
 10
3026.0094052834897
 20
199.88125755426623
 10
3019.3427386168228
 20
199.88125755426623
 10
3017.676071950156
 20
197.14316231617101
 10
3011.0094052834897
 20
197.14316231617101
 10
3009.342738616823
 20
194.4050670780758
 10
2994.3427386168223
 20
194.4050670780758
 10
2992.6835089215897
 20
191.6791897216208
 10
2975.062937706117
 20
187.5437495383977
 10
2970.0198727152188
 20
198.59046332798502
  0
LWPOLYLINE
  5
38
330
17
100
AcDbEntity
  8
C
100
AcDbPolyline
 90
15
 70
1
 10
3366.670866023254
 20
431.3655551740861
 10
3380.904992555527
 20
449.2479242209329
 10
3384.2303401469476
 20
449.2479242209329
 10
3387.5448121966665
 20
454.6931283026139
 10
3402.548314648214
 20
465.6480666005689
 10
3412.5690802143927
 20
479.36697183998047
 10
3415.9890118827434
 20
479.36697183998047
 10
3422.696465350903
 20
473.8572779197067
 10
3430.232860943259
 20
461.47605658940694
 10
3420.2083775105716
 20
439.51766430828155
 10
3410.210420757576
 20
423.0924496426457
 10
3405.210420757576
 20
409.40197345216956
 10
3399.3378914864215
 20
399.7542467924162
 10
3379.2172562887126
 20
402.5088575635311
 10
3366.670866023254
 20
431.3655551740861
  0
LWPOLYLINE
  5
39
330
17
100
AcDbEntity
  8
C
100
AcDbPolyline
 90
21
 70
1
 10
3340.019872715219
 20
130.1317873825828
 10
3340.019872715219
 20
176.73548963071138
 10
3344.2303401469476
 20
183.65268612569486
 10
3347.5636734802815
 20
183.65268612569486
 10
3349.2303401469476
 20
186.39078136379007
 10
3360.917400214361
 20
186.39078136379007
 10
3367.584066881028
 20
191.86697183998058
 10
3379.2303401469476
 20
191.86697183998058
 10
3380.888455580087
 20
194.59101862299522
 10
3390.995230053333
 20
197.35834972876486
 10
3405.2295927061255
 20
176.72450470685962
 10
3401.886539381885
 20
165.74018664149938
 10
3401.886539381885
 20
157.5127397635353
 10
3396.883741558441
 20
149.29385762502034
 10
3395.217074891775
 20
132.8652861964489
 10
3391.0094052834897
 20
125.95268612569477
 10
3369.230340146948
 20
125.95268612569477
 10
3365.9532060485517
 20
131.33654928734484
 10
3362.673784203632
 20
125.94892768497634
 10
3341.728135269437
 20
127.32535604350915
 10
3340.019872715219
 20
130.1317873825828
  0
LWPOLYLINE
  5
3A
330
17
100
AcDbEntity
  8
C
100
AcDbPolyline
 90
47
 70
1
 10
3289.2424314557775
 20
432.6193527923615
 10
3284.2424314557775
 20
438.0955432685519
 10
3277.584066881027
 20
438.0955432685519
 10
3270.917400214361
 20
443.57173374474246
 10
3265.909098122444
 20
443.57173374474246
 10
3260.9152822354017
 20
449.0411511448365
 10
3242.680949238796
 20
446.31784167131747
 10
3241.0094052834893
 20
443.57173374474246
 10
3222.6760719501567
 20
443.57173374474246
 10
3221.0094052834897
 20
440.83363850664716
 10
3214.342738616823
 20
440.83363850664716
 10
3212.6760719501563
 20
438.0955432685519
 10
3192.6760719501567
 20
438.0955432685519
 10
3191.0094052834897
 20
435.35744803045674
 10
3181.0094052834897
 20
435.35744803045674
 10
3179.3062886938833
 20
432.5594707761039
 10
3175.019872715219
 20
436.78465224078775
 10
3175.019872715219
 20
439.5926324878543
 10
3180.8733005096838
 20
449.2089781501901
 10
3204.2066338430172
 20
473.8518352930473
 10
3210.8970068136146
 20
484.84316231617095
 10
3214.2303401469476
 20
484.84316231617095
 10
3215.8970068136146
 20
487.5812575542662
 10
3239.335261832899
 20
487.5812575542662
 10
3246.8767789881917
 20
477.9448745225027
 10
3251.8748163505206
 20
461.5227517605667
 10
3255.933456736554
 20
457.52209195147617
 10
3257.5636734802806
 20
460.2003051733138
 10
3282.563673480281
 20
460.2003051733138
 10
3284.226466920109
 20
462.9320372530316
 10
3307.552289825705
 20
465.6692511654229
 10
3317.555597090177
 20
487.5812575542662
 10
3332.6760719501563
 20
487.5812575542662
 10
3335.2198727152186
 20
483.40215629737804
 10
3335.2198727152186
 20
477.9259658211876
 10
3338.5532060485516
 20
472.4497753449971
 10
3338.5532060485516
 20
466.96506025699694
 10
3341.88419983073
 20
458.7565398652001
 10
3343.5498617177554
 20
445.07431722178245
 10
3345.236941515374
 20
442.3026861256948
 10
3342.6760719501563
 20
438.0955432685519
 10
3332.6556785494104
 20
438.0955432685519
 10
3325.9890118827434
 20
432.6193527923615
 10
3314.322345216077
 20
432.6193527923615
 10
3307.634548405102
 20
427.1258054119179
 10
3295.9309039858963
 20
432.6193527923615
 10
3289.2424314557775
 20
432.6193527923615
  0
LWPOLYLINE
  5
3B
330
17
100
AcDbEntity
  8
C
100
AcDbPolyline
 90
21
 70
1
 10
3167.5840668810274
 20
202.61935279236155
 10
3157.5757647891105
 20
202.61935279236155
 10
3152.575764789111
 20
208.09554326855195
 10
3145.903637822321
 20
208.09554326855195
 10
3137.570304488987
 20
219.04792422093288
 10
3132.5636734802806
 20
219.04792422093288
 10
3126.6865393818853
 20
228.70321595401154
 10
3126.6865393818853
 20
239.71168010690192
 10
3132.5636734802806
 20
249.36697183998058
 10
3139.3306473079933
 20
249.36697183998058
 10
3144.330647307993
 20
243.89078136379004
 10
3150.99731397466
 20
243.89078136379004
 10
3156.009356971416
 20
238.4014009387717
 10
3172.676023638083
 20
232.9252104625813
 10
3177.6639806413264
 20
227.4622099352186
 10
3184.322345216077
 20
227.4622099352186
 10
3191.0353033936685
 20
221.94799428933942
 10
3195.2286482868926
 20
212.3033010349239
 10
3187.680152761567
 20
194.3906013359361
 10
3174.24218554577
 20
197.15018388918003
 10
3167.5840668810274
 20
202.61935279236155
  0
LWPOLYLINE
  5
3C
330
17
100
AcDbEntity
  8
C
100
AcDbPolyline
 90
12
 70
1
 10
4598.351637942397
 20
138.29523496340656
 10
4599.189425973427
 20
180.96258254369957
 10
4606.0215597480765
 20
178.15652760054002
 10
4609.352786525471
 20
172.68379789482015
 10
4617.674848965858
 20
169.94940595012164
 10
4626.886539381885
 20
160.31900233336583
 10
4626.886539381885
 20
154.7746445254401
 10
4624.363132017569
 20
150.62904671263533
 10
4617.666859932854
 20
145.12853750019138
 10
4607.6846231836835
 20
142.3953060093469
 10
4604.334266536664
 20
136.89114866067086
 10
4598.351637942397
 20
138.29523496340656
  0
ENDSEC
  0
SECTION
  2
OBJECTS
  0
DICTIONARY
  5
A
330
0
100
AcDbDictionary
281
1
  3
ACAD_COLOR
350
B
  3
ACAD_GROUP
350
C
  3
ACAD_LAYOUT
350
D
  3
ACAD_MATERIAL
350
E
  3
ACAD_MLEADERSTYLE
350
F
  3
ACAD_MLINESTYLE
350
10
  3
ACAD_PLOTSETTINGS
350
11
  3
ACAD_PLOTSTYLENAME
350
12
  3
ACAD_SCALELIST
350
14
  3
ACAD_TABLESTYLE
350
15
  3
ACAD_VISUALSTYLE
350
16
  3
EZDXF_META
350
2D
  0
DICTIONARY
  5
B
330
A
100
AcDbDictionary
281
1
  0
DICTIONARY
  5
C
330
A
100
AcDbDictionary
281
1
  0
DICTIONARY
  5
D
330
A
100
AcDbDictionary
281
1
  3
Model
350
1A
  3
Layout1
350
1E
  0
DICTIONARY
  5
E
330
A
100
AcDbDictionary
281
1
  3
ByBlock
350
1F
  3
ByLayer
350
20
  3
Global
350
21
  0
DICTIONARY
  5
F
330
A
100
AcDbDictionary
281
1
  3
Standard
350
2C
  0
DICTIONARY
  5
10
330
A
100
AcDbDictionary
281
1
  3
Standard
350
22
  0
DICTIONARY
  5
11
330
A
100
AcDbDictionary
281
1
  0
ACDBDICTIONARYWDFLT
  5
12
330
A
100
AcDbDictionary
281
1
  3
Normal
350
13
100
AcDbDictionaryWithDefault
340
13
  0
ACDBPLACEHOLDER
  5
13
330
12
  0
DICTIONARY
  5
14
330
A
100
AcDbDictionary
281
1
  0
DICTIONARY
  5
15
330
A
100
AcDbDictionary
281
1
  0
DICTIONARY
  5
16
330
A
100
AcDbDictionary
281
1
  0
LAYOUT
  5
1A
330
D
100
AcDbPlotSettings
  1

  4
A3
  6

 40
7.5
 41
20.0
 42
7.5
 43
20.0
 44
420.0
 45
297.0
 46
0.0
 47
0.0
 48
0.0
 49
0.0
140
0.0
141
0.0
142
1.0
143
1.0
 70
1024
 72
1
 73
0
 74
5
  7

 75
16
 76
0
 77
2
 78
300
147
1.0
148
0.0
149
0.0
100
AcDbLayout
  1
Model
 70
1
 71
0
 10
0.0
 20
0.0
 11
420.0
 21
297.0
 12
0.0
 22
0.0
 32
0.0
 14
1e+20
 24
1e+20
 34
1e+20
 15
-1e+20
 25
-1e+20
 35
-1e+20
146
0.0
 13
0.0
 23
0.0
 33
0.0
 16
1.0
 26
0.0
 36
0.0
 17
0.0
 27
1.0
 37
0.0
 76
1
330
17
  0
LAYOUT
  5
1E
330
D
100
AcDbPlotSettings
  1

  4
A3
  6

 40
7.5
 41
20.0
 42
7.5
 43
20.0
 44
420.0
 45
297.0
 46
0.0
 47
0.0
 48
0.0
 49
0.0
140
0.0
141
0.0
142
1.0
143
1.0
 70
0
 72
1
 73
0
 74
5
  7

 75
16
 76
0
 77
2
 78
300
147
1.0
148
0.0
149
0.0
100
AcDbLayout
  1
Layout1
 70
1
 71
1
 10
0.0
 20
0.0
 11
420.0
 21
297.0
 12
0.0
 22
0.0
 32
0.0
 14
1e+20
 24
1e+20
 34
1e+20
 15
-1e+20
 25
-1e+20
 35
-1e+20
146
0.0
 13
0.0
 23
0.0
 33
0.0
 16
1.0
 26
0.0
 36
0.0
 17
0.0
 27
1.0
 37
0.0
 76
1
330
1B
  0
MATERIAL
  5
1F
102
{ACAD_REACTORS
330
E
102
}
330
E
100
AcDbMaterial
  1
ByBlock
  2

 70
0
 40
1.0
 71
1
 41
1.0
 91
-1023410177
 42
1.0
 72
1
  3

 73
1
 74
1
 75
1
 44
0.5
 73
0
 45
1.0
 46
1.0
 77
1
  4

 78
1
 79
1
170
1
 48
1.0
171
1
  6

172
1
173
1
174
1
140
1.0
141
1.0
175
1
  7

176
1
177
1
178
1
143
1.0
179
1
  8

270
1
271
1
272
1
145
1.0
146
1.0
273
1
  9

274
1
275
1
276
1
 42
1.0
 72
1
  3

 73
1
 74
1
 75
1
 94
63
  0
MATERIAL
  5
20
102
{ACAD_REACTORS
330
E
102
}
330
E
100
AcDbMaterial
  1
ByLayer
  2

 70
0
 40
1.0
 71
1
 41
1.0
 91
-1023410177
 42
1.0
 72
1
  3

 73
1
 74
1
 75
1
 44
0.5
 73
0
 45
1.0
 46
1.0
 77
1
  4

 78
1
 79
1
170
1
 48
1.0
171
1
  6

172
1
173
1
174
1
140
1.0
141
1.0
175
1
  7

176
1
177
1
178
1
143
1.0
179
1
  8

270
1
271
1
272
1
145
1.0
146
1.0
273
1
  9

274
1
275
1
276
1
 42
1.0
 72
1
  3

 73
1
 74
1
 75
1
 94
63
  0
MATERIAL
  5
21
102
{ACAD_REACTORS
330
E
102
}
330
E
100
AcDbMaterial
  1
Global
  2

 70
0
 40
1.0
 71
1
 41
1.0
 91
-1023410177
 42
1.0
 72
1
  3

 73
1
 74
1
 75
1
 44
0.5
 73
0
 45
1.0
 46
1.0
 77
1
  4

 78
1
 79
1
170
1
 48
1.0
171
1
  6

172
1
173
1
174
1
140
1.0
141
1.0
175
1
  7

176
1
177
1
178
1
143
1.0
179
1
  8

270
1
271
1
272
1
145
1.0
146
1.0
273
1
  9

274
1
275
1
276
1
 42
1.0
 72
1
  3

 73
1
 74
1
 75
1
 94
63
  0
MLINESTYLE
  5
22
102
{ACAD_REACTORS
330
10
102
}
330
10
100
AcDbMlineStyle
  2
Standard
 70
0
  3

 62
256
 51
90.0
 52
90.0
 71
2
 49
0.5
 62
256
  6
BYLAYER
 49
-0.5
 62
256
  6
BYLAYER
  0
MLEADERSTYLE
  5
2C
102
{ACAD_REACTORS
330
F
102
}
330
F
100
AcDbMLeaderStyle
179
2
170
2
171
1
172
0
 90
2
 40
0.0
 41
0.0
173
1
 91
-1056964608
 92
-2
290
1
 42
2.0
291
1
 43
8.0
  3
Standard
 44
4.0
300

342
29
174
1
175
1
176
0
178
1
 93
-1056964608
 45
4.0
292
0
297
0
 46
4.0
 94
-1056964608
 47
1.0
 49
1.0
140
1.0
294
1
141
0.0
177
0
142
1.0
295
0
296
0
143
3.75
271
0
272
9
273
9
  0
DICTIONARY
  5
2D
330
A
100
AcDbDictionary
280
1
281
1
  3
CREATED_BY_EZDXF
350
2E
  3
WRITTEN_BY_EZDXF
350
3F
  0
DICTIONARYVAR
  5
2E
330
2D
100
DictionaryVariables
280
0
  1
1.4.4 @ 2026-07-21T08:35:07.607164+00:00
  0
DICTIONARYVAR
  5
3F
330
2D
100
DictionaryVariables
280
0
  1
1.4.4 @ 2026-07-21T08:35:07.612401+00:00
  0
ENDSEC
  0
EOF
