  0
SECTION
  2
HEADER
  9
$ACADVER
  1
AC1027
  9
$ACADMAINTVER
 70
105
  9
$DWGCODEPAGE
  3
ANSI_1252
  9
$LASTSAVEDBY
  1
ezdxf
  9
$REQUIREDVERSIONS
160
0
  9
$INSBASE
 10
0.0
 20
0.0
 30
0.0
  9
$EXTMIN
 10
1e+20
 20
1e+20
 30
1e+20
  9
$EXTMAX
 10
-1e+20
 20
-1e+20
 30
-1e+20
  9
$LIMMIN
 10
0.0
 20
0.0
  9
$LIMMAX
 10
420.0
 20
297.0
  9
$ORTHOMODE
 70
0
  9
$REGENMODE
 70
1
  9
$FILLMODE
 70
1
  9
$QTEXTMODE
 70
0
  9
$MIRRTEXT
 70
1
  9
$LTSCALE
 40
1.0
  9
$ATTMODE
 70
1
  9
$TEXTSIZE
 40
2.5
  9
$TRACEWID
 40
1.0
  9
$TEXTSTYLE
  7
Standard
  9
$CLAYER
  8
0
  9
$CELTYPE
  6
ByLayer
  9
$CECOLOR
 62
256
  9
$CELTSCALE
 40
1.0
  9
$DISPSILH
 70
0
  9
$DIMSCALE
 40
1.0
  9
$DIMASZ
 40
2.5
  9
$DIMEXO
 40
0.625
  9
$DIMDLI
 40
3.75
  9
$DIMRND
 40
0.0
  9
$DIMDLE
 40
0.0
  9
$DIMEXE
 40
1.25
  9
$DIMTP
 40
0.0
  9
$DIMTM
 40
0.0
  9
$DIMTXT
 40
2.5
  9
$DIMCEN
 40
2.5
  9
$DIMTSZ
 40
0.0
  9
$DIMTOL
 70
0
  9
$DIMLIM
 70
0
  9
$DIMTIH
 70
0
  9
$DIMTOH
 70
0
  9
$DIMSE1
 70
0
  9
$DIMSE2
 70
0
  9
$DIMTAD
 70
1
  9
$DIMZIN
 70
8
  9
$DIMBLK
  1

  9
$DIMASO
 70
1
  9
$DIMSHO
 70
1
  9
$DIMPOST
  1

  9
$DIMAPOST
  1

  9
$DIMALT
 70
0
  9
$DIMALTD
 70
3
  9
$DIMALTF
 40
0.03937007874
  9
$DIMLFAC
 40
1.0
  9
$DIMTOFL
 70
1
  9
$DIMTVP
 40
0.0
  9
$DIMTIX
 70
0
  9
$DIMSOXD
 70
0
  9
$DIMSAH
 70
0
  9
$DIMBLK1
  1

  9
$DIMBLK2
  1

  9
$DIMSTYLE
  2
ISO-25
  9
$DIMCLRD
 70
0
  9
$DIMCLRE
 70
0
  9
$DIMCLRT
 70
0
  9
$DIMTFAC
 40
1.0
  9
$DIMGAP
 40
0.625
  9
$DIMJUST
 70
0
  9
$DIMSD1
 70
0
  9
$DIMSD2
 70
0
  9
$DIMTOLJ
 70
0
  9
$DIMTZIN
 70
8
  9
$DIMALTZ
 70
0
  9
$DIMALTTZ
 70
0
  9
$DIMUPT
 70
0
  9
$DIMDEC
 70
2
  9
$DIMTDEC
 70
2
  9
$DIMALTU
 70
2
  9
$DIMALTTD
 70
3
  9
$DIMTXSTY
  7
Standard
  9
$DIMAUNIT
 70
0
  9
$DIMADEC
 70
0
  9
$DIMALTRND
 40
0.0
  9
$DIMAZIN
 70
0
  9
$DIMDSEP
 70
44
  9
$DIMATFIT
 70
3
  9
$DIMFRAC
 70
0
  9
$DIMLDRBLK
  1

  9
$DIMLUNIT
 70
2
  9
$DIMLWD
 70
-2
  9
$DIMLWE
 70
-2
  9
$DIMTMOVE
 70
0
  9
$DIMFXL
 40
1.0
  9
$DIMFXLON
 70
0
  9
$DIMJOGANG
 40
0.785398163397
  9
$DIMTFILL
 70
0
  9
$DIMTFILLCLR
 70
0
  9
$DIMARCSYM
 70
0
  9
$DIMLTYPE
  6

  9
$DIMLTEX1
  6

  9
$DIMLTEX2
  6

  9
$DIMTXTDIRECTION
 70
0
  9
$LUNITS
 70
2
  9
$LUPREC
 70
4
  9
$SKETCHINC
 40
1.0
  9
$FILLETRAD
 40
10.0
  9
$AUNITS
 70
0
  9
$AUPREC
 70
2
  9
$MENU
  1
.
  9
$ELEVATION
 40
0.0
  9
$PELEVATION
 40
0.0
  9
$THICKNESS
 40
0.0
  9
$LIMCHECK
 70
0
  9
$CHAMFERA
 40
0.0
  9
$CHAMFERB
 40
0.0
  9
$CHAMFERC
 40
0.0
  9
$CHAMFERD
 40
0.0
  9
$SKPOLY
 70
0
  9
$TDCREATE
 40
2461243.4827199075
  9
$TDUCREATE
 40
2458532.153996898
  9
$TDUPDATE
 40
2461243.4827199075
  9
$TDUUPDATE
 40
2458532.1544311
  9
$TDINDWG
 40
0.0
  9
$TDUSRTIMER
 40
0.0
  9
$USRTIMER
 70
1
  9
$ANGBASE
 50
0.0
  9
$ANGDIR
 70
0
  9
$PDMODE
 70
0
  9
$PDSIZE
 40
0.0
  9
$PLINEWID
 40
0.0
  9
$SPLFRAME
 70
0
  9
$SPLINETYPE
 70
6
  9
$SPLINESEGS
 70
8
  9
$HANDSEED
  5
64
  9
$SURFTAB1
 70
6
  9
$SURFTAB2
 70
6
  9
$SURFTYPE
 70
6
  9
$SURFU
 70
6
  9
$SURFV
 70
6
  9
$UCSBASE
  2

  9
$UCSNAME
  2

  9
$UCSORG
 10
0.0
 20
0.0
 30
0.0
  9
$UCSXDIR
 10
1.0
 20
0.0
 30
0.0
  9
$UCSYDIR
 10
0.0
 20
1.0
 30
0.0
  9
$UCSORTHOREF
  2

  9
$UCSORTHOVIEW
 70
0
  9
$UCSORGTOP
 10
0.0
 20
0.0
 30
0.0
  9
$UCSORGBOTTOM
 10
0.0
 20
0.0
 30
0.0
  9
$UCSORGLEFT
 10
0.0
 20
0.0
 30
0.0
  9
$UCSORGRIGHT
 10
0.0
 20
0.0
 30
0.0
  9
$UCSORGFRONT
 10
0.0
 20
0.0
 30
0.0
  9
$UCSORGBACK
 10
0.0
 20
0.0
 30
0.0
  9
$PUCSBASE
  2

  9
$PUCSNAME
  2

  9
$PUCSORG
 10
0.0
 20
0.0
 30
0.0
  9
$PUCSXDIR
 10
1.0
 20
0.0
 30
0.0
  9
$PUCSYDIR
 10
0.0
 20
1.0
 30
0.0
  9
$PUCSORTHOREF
  2

  9
$PUCSORTHOVIEW
 70
0
  9
$PUCSORGTOP
 10
0.0
 20
0.0
 30
0.0
  9
$PUCSORGBOTTOM
 10
0.0
 20
0.0
 30
0.0
  9
$PUCSORGLEFT
 10
0.0
 20
0.0
 30
0.0
  9
$PUCSORGRIGHT
 10
0.0
 20
0.0
 30
0.0
  9
$PUCSORGFRONT
 10
0.0
 20
0.0
 30
0.0
  9
$PUCSORGBACK
 10
0.0
 20
0.0
 30
0.0
  9
$USERI1
 70
0
  9
$USERI2
 70
0
  9
$USERI3
 70
0
  9
$USERI4
 70
0
  9
$USERI5
 70
0
  9
$USERR1
 40
0.0
  9
$USERR2
 40
0.0
  9
$USERR3
 40
0.0
  9
$USERR4
 40
0.0
  9
$USERR5
 40
0.0
  9
$WORLDVIEW
 70
1
  9
$SHADEDGE
 70
3
  9
$SHADEDIF
 70
70
  9
$TILEMODE
 70
1
  9
$MAXACTVP
 70
64
  9
$PINSBASE
 10
0.0
 20
0.0
 30
0.0
  9
$PLIMCHECK
 70
0
  9
$PEXTMIN
 10
1e+20
 20
1e+20
 30
1e+20
  9
$PEXTMAX
 10
-1e+20
 20
-1e+20
 30
-1e+20
  9
$PLIMMIN
 10
0.0
 20
0.0
  9
$PLIMMAX
 10
420.0
 20
297.0
  9
$UNITMODE
 70
0
  9
$VISRETAIN
 70
1
  9
$PLINEGEN
 70
0
  9
$PSLTSCALE
 70
1
  9
$TREEDEPTH
 70
3020
  9
$CMLSTYLE
  2
Standard
  9
$CMLJUST
 70
0
  9
$CMLSCALE
 40
20.0
  9
$PROXYGRAPHICS
 70
1
  9
$MEASUREMENT
 70
1
  9
$CELWEIGHT
370
-1
  9
$ENDCAPS
280
0
  9
$JOINSTYLE
280
0
  9
$LWDISPLAY
290
0
  9
$INSUNITS
 70
4
  9
$HYPERLINKBASE
  1

  9
$STYLESHEET
  1

  9
$XEDIT
290
1
  9
$CEPSNTYPE
380
0
  9
$PSTYLEMODE
290
1
  9
$FINGERPRINTGUID
  2
{589DF360-7412-4623-B13D-7A505D9742C4}
  9
$VERSIONGUID
  2
{B8AEACF4-949C-4094-A3BA-6703D1981A82}
  9
$EXTNAMES
290
1
  9
$PSVPSCALE
 40
0.0
  9
$OLESTARTUP
290
0
  9
$SORTENTS
280
127
  9
$INDEXCTL
280
0
  9
$HIDETEXT
280
1
  9
$XCLIPFRAME
280
1
  9
$HALOGAP
280
0
  9
$OBSCOLOR
 70
257
  9
$OBSLTYPE
280
0
  9
$INTERSECTIONDISPLAY
280
0
  9
$INTERSECTIONCOLOR
 70
257
  9
$DIMASSOC
280
2
  9
$PROJECTNAME
  1

  9
$CAMERADISPLAY
290
0
  9
$LENSLENGTH
 40
50.0
  9
$CAMERAHEIGHT
 40
0.0
  9
$STEPSPERSEC
 40
24.0
  9
$STEPSIZE
 40
100.0
  9
$3DDWFPREC
 40
2.0
  9
$PSOLWIDTH
 40
0.005
  9
$PSOLHEIGHT
 40
0.08
  9
$LOFTANG1
 40
1.570796326795
  9
$LOFTANG2
 40
1.570796326795
  9
$LOFTMAG1
 40
0.0
  9
$LOFTMAG2
 40
0.0
  9
$LOFTPARAM
 70
7
  9
$LOFTNORMALS
280
1
  9
$LATITUDE
 40
37.795
  9
$LONGITUDE
 40
-122.394
  9
$NORTHDIRECTION
 40
0.0
  9
$TIMEZONE
 70
-8000
  9
$LIGHTGLYPHDISPLAY
280
1
  9
$TILEMODELIGHTSYNCH
280
1
  9
$CMATERIAL
347
20
  9
$SOLIDHIST
280
0
  9
$SHOWHIST
280
1
  9
$DWFFRAME
280
2
  9
$DGNFRAME
280
2
  9
$REALWORLDSCALE
290
1
  9
$INTERFERECOLOR
 62
256
  9
$CSHADOW
280
0
  9
$SHADOWPLANELOCATION
 40
0.0
  0
ENDSEC
  0
SECTION
  2
CLASSES
  0
CLASS
  1
ACDBDICTIONARYWDFLT
  2
AcDbDictionaryWithDefault
  3
ObjectDBX Classes
 90
0
 91
0
280
0
281
0
  0
CLASS
  1
SUN
  2
AcDbSun
  3
SCENEOE
 90
1153
 91
0
280
0
281
0
  0
CLASS
  1
VISUALSTYLE
  2
AcDbVisualStyle
  3
ObjectDBX Classes
 90
4095
 91
0
280
0
281
0
  0
CLASS
  1
MATERIAL
  2
AcDbMaterial
  3
ObjectDBX Classes
 90
1153
 91
0
280
0
281
0
  0
CLASS
  1
SCALE
  2
AcDbScale
  3
ObjectDBX Classes
 90
1153
 91
0
280
0
281
0
  0
CLASS
  1
TABLESTYLE
  2
AcDbTableStyle
  3
ObjectDBX Classes
 90
4095
 91
0
280
0
281
0
  0
CLASS
  1
MLEADERSTYLE
  2
AcDbMLeaderStyle
  3
ACDB_MLEADERSTYLE_CLASS
 90
4095
 91
0
280
0
281
0
  0
CLASS
  1
DICTIONARYVAR
  2
AcDbDictionaryVar
  3
ObjectDBX Classes
 90
0
 91
0
280
0
281
0
  0
CLASS
  1
CELLSTYLEMAP
  2
AcDbCellStyleMap
  3
ObjectDBX Classes
 90
1152
 91
0
280
0
281
0
  0
CLASS
  1
MENTALRAYRENDERSETTINGS
  2
AcDbMentalRayRenderSettings
  3
SCENEOE
 90
1024
 91
0
280
0
281
0
  0
CLASS
  1
ACDBDETAILVIEWSTYLE
  2
AcDbDetailViewStyle
  3
ObjectDBX Classes
 90
1025
 91
0
280
0
281
0
  0
CLASS
  1
ACDBSECTIONVIEWSTYLE
  2
AcDbSectionViewStyle
  3
ObjectDBX Classes
 90
1025
 91
0
280
0
281
0
  0
CLASS
  1
RASTERVARIABLES
  2
AcDbRasterVariables
  3
ISM
 90
0
 91
0
280
0
281
0
  0
CLASS
  1
ACDBPLACEHOLDER
  2
AcDbPlaceHolder
  3
ObjectDBX Classes
 90
0
 91
0
280
0
281
0
  0
CLASS
  1
LAYOUT
  2
AcDbLayout
  3
ObjectDBX Classes
 90
0
 91
0
280
0
281
0
  0
ENDSEC
  0
SECTION
  2
TABLES
  0
TABLE
  2
VPORT
  5
8
330
0
100
AcDbSymbolTable
 70
1
  0
VPORT
  5
23
330
8
100
AcDbSymbolTableRecord
100
AcDbViewportTableRecord
  2
*Active
 70
0
 10
0.0
 20
0.0
 11
1.0
 21
1.0
 12
0.0
 22
0.0
 13
0.0
 23
0.0
 14
0.5
 24
0.5
 15
0.5
 25
0.5
 16
0.0
 26
0.0
 36
1.0
 17
0.0
 27
0.0
 37
0.0
 40
1000.0
 41
1.34
 42
50.0
 43
0.0
 44
0.0
 50
0.0
 51
0.0
 71
0
 72
1000
 73
1
 74
3
 75
0
 76
0
 77
0
 78
0
281
0
 65
0
146
0.0
  0
ENDTAB
  0
TABLE
  2
LTYPE
  5
2
330
0
100
AcDbSymbolTable
 70
3
  0
LTYPE
  5
24
330
2
100
AcDbSymbolTableRecord
100
AcDbLinetypeTableRecord
  2
ByBlock
 70
0
  3

 72
65
 73
0
 40
0.0
  0
LTYPE
  5
25
330
2
100
AcDbSymbolTableRecord
100
AcDbLinetypeTableRecord
  2
ByLayer
 70
0
  3

 72
65
 73
0
 40
0.0
  0
LTYPE
  5
26
330
2
100
AcDbSymbolTableRecord
100
AcDbLinetypeTableRecord
  2
Continuous
 70
0
  3

 72
65
 73
0
 40
0.0
  0
ENDTAB
  0
TABLE
  2
LAYER
  5
1
330
0
100
AcDbSymbolTable
 70
3
  0
LAYER
  5
27
330
1
100
AcDbSymbolTableRecord
100
AcDbLayerTableRecord
  2
0
 70
0
 62
7
  6
Continuous
370
-3
390
13
347
21
  0
LAYER
  5
28
330
1
100
AcDbSymbolTableRecord
100
AcDbLayerTableRecord
  2
Defpoints
 70
0
 62
7
  6
Continuous
290
0
370
-3
390
13
347
21
  0
LAYER
  5
2F
330
1
100
AcDbSymbolTableRecord
100
AcDbLayerTableRecord
  2
K
 70
0
 62
7
  6
Continuous
370
-3
390
13
347
21
  0
ENDTAB
  0
TABLE
  2
STYLE
  5
5
330
0
100
AcDbSymbolTable
 70
1
  0
STYLE
  5
29
330
5
100
AcDbSymbolTableRecord
100
AcDbTextStyleTableRecord
  2
Standard
 70
0
 40
0.0
 41
1.0
 50
0.0
 71
0
 42
2.5
  3
txt
  4

  0
ENDTAB
  0
TABLE
  2
VIEW
  5
7
330
0
100
AcDbSymbolTable
 70
0
  0
ENDTAB
  0
TABLE
  2
UCS
  5
6
330
0
100
AcDbSymbolTable
 70
0
  0
ENDTAB
  0
TABLE
  2
APPID
  5
3
330
0
100
AcDbSymbolTable
 70
3
  0
APPID
  5
2A
330
3
100
AcDbSymbolTableRecord
100
AcDbRegAppTableRecord
  2
ACAD
 70
0
  0
APPID
  5
61
330
3
100
AcDbSymbolTableRecord
100
AcDbRegAppTableRecord
  2
HATCHBACKGROUNDCOLOR
 70
0
  0
APPID
  5
62
330
3
100
AcDbSymbolTableRecord
100
AcDbRegAppTableRecord
  2
EZDXF
 70
0
  0
ENDTAB
  0
TABLE
  2
DIMSTYLE
  5
4
330
0
100
AcDbSymbolTable
 70
1
100
AcDbDimStyleTable
  0
DIMSTYLE
105
2B
330
4
100
AcDbSymbolTableRecord
100
AcDbDimStyleTableRecord
  2
Standard
 70
0
 40
1.0
 41
2.5
 42
0.625
 43
3.75
 44
1.25
 45
0.0
 46
0.0
 47
0.0
 48
0.0
 49
2.5
140
2.5
141
2.5
142
0.0
143
0.03937007874
144
1.0
145
0.0
146
1.0
147
0.625
148
0.0
 69
0
 70
0
 71
0
 72
0
 73
0
 74
0
 75
0
 76
0
 77
1
 78
8
 79
3
170
0
171
3
172
1
173
0
174
0
175
0
176
0
177
0
178
0
179
2
271
2
272
2
273
2
274
3
275
0
276
0
277
2
278
44
279
0
280
0
281
0
282
0
283
0
284
8
285
0
286
0
288
0
289
3
290
0
371
-2
372
-2
  0
ENDTAB
  0
TABLE
  2
BLOCK_RECORD
  5
9
330
0
100
AcDbSymbolTable
 70
2
  0
BLOCK_RECORD
  5
17
330
9
100
AcDbSymbolTableRecord
100
AcDbBlockTableRecord
  2
*Model_Space
340
1A
 70
0
280
1
281
0
  0
BLOCK_RECORD
  5
1B
330
9
100
AcDbSymbolTableRecord
100
AcDbBlockTableRecord
  2
*Paper_Space
340
1E
 70
0
280
1
281
0
  0
ENDTAB
  0
ENDSEC
  0
SECTION
  2
BLOCKS
  0
BLOCK
  5
18
330
17
100
AcDbEntity
  8
0
100
AcDbBlockBegin
  2
*Model_Space
 70
0
 10
0.0
 20
0.0
 30
0.0
  3
*Model_Space
  1

  0
ENDBLK
  5
19
330
17
100
AcDbEntity
  8
0
100
AcDbBlockEnd
  0
BLOCK
  5
1C
330
1B
100
AcDbEntity
  8
0
100
AcDbBlockBegin
  2
*Paper_Space
 70
0
 10
0.0
 20
0.0
 30
0.0
  3
*Paper_Space
  1

  0
ENDBLK
  5
1D
330
1B
100
AcDbEntity
  8
0
100
AcDbBlockEnd
  0
ENDSEC
  0
SECTION
  2
ENTITIES
  0
LWPOLYLINE
  5
30
330
17
100
AcDbEntity
  8
K
100
AcDbPolyline
 90
24
 70
1
 10
158.32670314388386
 20
132.90045475782264
 10
164.2108581337861
 20
142.56728081266235
 10
172.55428768784188
 20
145.3086933804234
 10
177.56633068459783
 20
150.79807380544173
 10
185.90796610984773
 20
150.79807380544173
 10
195.90796610984773
 20
159.01235951972748
 10
204.22090604243448
 20
159.01235951972748
 10
205.9437719440389
 20
161.84278207236335
 10
207.66663784564332
 20
159.01235951972748
 10
220.99997117897652
 20
159.01235951972748
 10
223.56084074419402
 20
154.80521666258463
 10
219.27710527737233
 20
147.76765125280576
 10
217.5542393757679
 20
150.59807380544177
 10
214.31291111156335
 20
150.59807380544177
 10
204.31291111156335
 20
142.38378809115605
 10
197.65806914150573
 20
142.38378809115605
 10
190.99140247483913
 20
134.1695023768703
 10
185.88757270910116
 20
134.1695023768703
 10
184.24551052345106
 20
136.86717596758092
 10
175.9736883926597
 20
131.4314071387751
 10
169.33330451230998
 20
131.4314071387751
 10
167.6601127025925
 20
128.68259202281064
 10
160.04834599584694
 20
130.07204150102615
 10
158.32670314388386
 20
132.90045475782264
  0
LWPOLYLINE
  5
31
330
17
100
AcDbEntity
  8
K
100
AcDbPolyline
 90
173
 70
1
 10
68.34377194403896
 20
127.4047472931874
 10
68.34377194403896
 20
152.09516302474412
 10
70.9182410654775
 20
156.3246480099647
 10
77.64624444489677
 20
150.79807380544173
 10
82.55423937576789
 20
150.79807380544173
 10
84.27710527737231
 20
153.6284963580775
 10
89.33330451230992
 20
145.32188332925122
 10
92.5542393757679
 20
145.32188332925122
 10
102.61043861070563
 20
161.84278207236324
 10
105.22750741086062
 20
157.54331190067984
 10
103.56084074419391
 20
154.80521666258463
 10
107.66663784564324
 20
148.05997856734643
 10
112.66663784564335
 20
148.05997856734643
 10
114.2510536234902
 20
145.45700978945507
 10
118.33409971861752
 20
157.5311603850459
 10
112.58490773214425
 20
166.97626150568067
 10
109.25157439881083
 20
164.23816626758548
 10
102.58490773214423
 20
175.19054721996642
 10
99.25157439881083
 20
172.4524519818712
 10
92.61043861070561
 20
183.36288934804412
 10
89.2771052773722
 20
177.8866988718537
 10
87.55423937576778
 20
180.71712142448936
 10
84.32327283109863
 20
180.71712142448936
 10
72.65660616443192
 20
167.0266452340131
 10
67.66000683693696
 20
167.0266452340131
 10
59.267913802954155
 20
155.9970372464927
 10
57.610438610705586
 20
158.72003220518704
 10
55.999971178976594
 20
156.07426428163217
 10
25.88757270910125
 20
156.07426428163217
 10
24.220906042434542
 20
158.8123595197275
 10
17.554239375767832
 20
158.8123595197275
 10
15.010438610705501
 20
162.99146077661553
 10
15.010438610705501
 20
206.8570677866488
 10
16.660036477217144
 20
209.5671214244893
 10
15.010438610705501
 20
212.27717506232992
 10
15.010438610705501
 20
223.28563921522027
 10
17.545688142240557
 20
227.45069201702785
 10
27.545688142240564
 20
230.18878725512303
 10
29.220906042434436
 20
232.9409309482988
 10
42.54790806749076
 20
232.9409309482988
 10
49.1947009030983
 20
246.59059480713597
 10
53.35549497540415
 20
250.69194896412316
 10
56.68713312238904
 20
261.63876001850207
 10
63.313716142246015
 20
269.803656953683
 10
57.54737334617022
 20
276.5702837041803
 10
35.8697187879915
 20
287.5282189753476
 10
26.68406800004497
 20
305.3626968038931
 10
23.33506312497169
 20
316.366569964848
 10
26.660036477217155
 20
321.82902618639406
 10
24.277105277372257
 20
325.74384172899653
 10
22.635969489266937
 20
323.0476900771092
 10
19.200512641688206
 20
325.86967248762033
 10
16.660036477217144
 20
330.04331190067984
 10
18.326703143883847
 20
332.781407138775
 10
15.89752160942104
 20
336.7722053739639
 10
5.920278335220797
 20
334.0403411441234
 10
2.5258714569226237
 20
336.8286039370111
 10
0.0
 20
343.74468054525164
 10
2.5542393757678195
 20
347.9409309482989
 10
12.666637845643258
 20
347.9409309482989
 10
14.277105277372248
 20
345.29516302474406
 10
17.554239375767832
 20
350.67902618639414
 10
20.999971178976562
 20
350.67902618639414
 10
24.277105277372257
 20
345.29516302474406
 10
27.54834599584699
 20
350.66934420509557
 10
42.548345995847
 20
353.40743944319075
 10
44.25157439881089
 20
356.2056003909171
 10
50.929515959235225
 20
350.7201483948542
 10
57.562808079905324
 20
358.89331190067986
 10
60.887572709101164
 20
358.89331190067986
 10
64.2515743988109
 20
364.4198861052028
 10
67.58490773214409
 20
361.6817908671076
 10
74.20875157784768
 20
372.5638200421917
 10
80.87541824451428
 20
375.3019152802869
 10
84.22090604243459
 20
380.79807380544173
 10
87.55423937576778
 20
380.79807380544173
 10
90.94377194403891
 20
386.3665915961727
 10
94.31811749708696
 20
380.82302390187937
 10
100.98478416375367
 20
383.5611191399746
 10
102.66663784564334
 20
380.79807380544173
 10
106.00630248725362
 20
380.79807380544173
 10
112.64487304609017
 20
367.16529497925995
 10
119.24129944318096
 20
372.583788091156
 10
122.66663784564335
 20
372.583788091156
 10
125.22750741086064
 20
368.37664523401315
 10
123.56084074419394
 20
365.6385499959179
 10
125.94377194403883
 20
361.7237344533155
 10
130.88757270910122
 20
369.84569285306077
 10
140.99997117897666
 20
369.84569285306077
 10
145.94377194403884
 20
361.7237344533155
 10
149.22090604243454
 20
367.1075976149656
 10
154.33330451230987
 20
367.1075976149656
 10
155.96930282260024
 20
364.4198861052028
 10
159.241299443181
 20
367.1075976149656
 10
180.9999711789765
 20
367.1075976149656
 10
182.66663784564318
 20
364.3695023768703
 10
189.33330451231
 20
364.3695023768703
 10
195.20496065770686
 20
354.7232101380039
 10
196.8716273243738
 20
346.50892442371816
 10
205.9437719440389
 20
331.60468683426814
 10
207.55423937576788
 20
334.2504547578227
 10
214.22090604243448
 20
334.2504547578227
 10
215.8875727091012
 20
336.9885499959179
 10
232.5542393757678
 20
336.9885499959179
 10
234.21556830475444
 20
339.71787609353896
 10
250.88223497142104
 20
342.4559713316342
 10
252.55423937576782
 20
345.2028357102036
 10
267.55423937576796
 20
345.2028357102036
 10
269.2209060424344
 20
347.9409309482989
 10
275.8875727091012
 20
347.9409309482989
 10
277.55423937576774
 20
350.67902618639414
 10
280.8794963189973
 20
350.67902618639414
 10
285.8773593643058
 20
361.62672619040325
 10
322.55174077293503
 20
364.36539752935926
 10
324.2209060424346
 20
367.1075976149656
 10
330.97957777823007
 20
367.1075976149656
 10
337.64624444489664
 20
361.63140713877505
 10
350.99997117897664
 20
361.63140713877505
 10
352.6666378456433
 20
358.89331190067986
 10
380.9825459893599
 20
358.89331190067986
 10
388.5437719440388
 20
351.9921929737902
 10
388.5437719440388
 20
316.32479410994875
 10
382.67879231023016
 20
306.6894704258346
 10
376.0121256435636
 20
303.9513751877394
 10
372.6666378456434
 20
298.4552166625846
 10
369.32121320348
 20
298.4552166625846
 10
359.3574871299701
 20
287.5425642963594
 10
342.63596948926687
 20
260.0714996009187
 10
339.3026361559337
 20
262.809594839014
 10
331.02567729138974
 20
249.21173384726302
 10
304.3449804735203
 20
216.3373038395311
 10
296.0174930365214
 20
210.86495495236036
 10
290.9999711789766
 20
202.62188332925123
 10
287.6666378456434
 20
202.62188332925123
 10
282.66663784564327
 20
194.4075976149655
 10
277.65660616443165
 20
194.4075976149655
 10
266.00417195836854
 20
180.7338227813201
 10
259.3454589768971
 20
177.9989942353586
 10
255.99997117897666
 20
172.50283571020364
 10
252.66663784564324
 20
172.50283571020364
 10
249.34185574583734
 20
167.0406936890938
 10
239.3314348230824
 20
164.2997451031014
 10
234.32121320347997
 20
158.8123595197275
 10
207.55423937576788
 20
158.8123595197275
 10
205.9437719440389
 20
161.45812744328202
 10
204.33330451230992
 20
158.8123595197275
 10
195.97957777823007
 20
158.8123595197275
 10
185.97957777823004
 20
150.59807380544177
 10
174.32473580817242
 20
150.59807380544177
 10
167.65806914150582
 20
142.38378809115605
 10
162.67184331293095
 20
142.38378809115605
 10
154.35891412225544
 20
125.99544197239587
 10
150.23702529890116
 20
121.9324372750894
 10
155.22750741086065
 20
113.73378809115597
 10
152.66663784564327
 20
109.52664523401312
 10
149.22090604243454
 20
109.52664523401312
 10
144.99336981055055
 20
116.47188332925128
 10
146.66003647721715
 20
119.2099785673465
 10
144.26953864959978
 20
123.13722499843205
 10
134.32789777819832
 20
109.52664523401312
 10
130.88757270910122
 20
109.52664523401312
 10
124.22937812259404
 20
120.46510776898923
 10
112.67407481707647
 20
117.75314882993904
 10
107.61043861070551
 20
109.43431791947266
 10
102.61043861070563
 20
117.6486036337584
 10
97.65460337309617
 20
109.50687431482875
 10
93.3775248004528
 20
110.91220013155456
 10
90.90801956085227
 20
114.96924445375556
 10
85.90801956085225
 20
112.23114921566035
 10
84.22090604243459
 20
115.00283571020364
 10
74.22090604243459
 20
115.00283571020364
 10
71.68748306566263
 20
119.16488774347178
 10
68.34377194403896
 20
127.4047472931874
  0
LWPOLYLINE
  5
32
330
17
100
AcDbEntity
  8
K
100
AcDbPolyline
 90
5
 70
1
 10
130.22750741086054
 20
146.5909309482989
 10
132.61043861070553
 20
142.67611540569658
 10
134.99336981055055
 20
146.5909309482989
 10
132.61043861070553
 20
150.50574649090132
 10
130.22750741086054
 20
146.5909309482989
  0
LWPOLYLINE
  5
33
330
17
100
AcDbEntity
  8
K
100
AcDbPolyline
 90
5
 70
1
 10
125.94377194403883
 20
142.67611540569658
 10
128.3313849052584
 20
146.59862241341438
 10
124.28518377807063
 20
155.90488500594623
 10
121.88754388807777
 20
149.3399186404898
 10
125.94377194403883
 20
142.67611540569658
  0
LWPOLYLINE
  5
34
330
17
100
AcDbEntity
  8
K
100
AcDbPolyline
 90
62
 70
1
 10
177.63596948926707
 20
117.99131467663149
 10
194.2561032816197
 20
131.64356743463546
 10
202.56627384831472
 20
128.91308281986414
 10
207.55423937576788
 20
137.1075976149655
 10
210.8875727091013
 20
137.1075976149655
 10
214.21432927007467
 20
142.57298339370783
 10
227.6592643941593
 20
145.33399685668945
 10
229.3333045123098
 20
142.583788091156
 10
232.5542393757678
 20
142.583788091156
 10
234.2209060424345
 20
145.32188332925122
 10
237.64624444489658
 20
145.32188332925122
 10
240.91824106547733
 20
142.63417181948867
 10
249.25157439881062
 20
156.32464800996482
 10
255.9795777782301
 20
150.79807380544173
 10
262.55423937576785
 20
150.79807380544173
 10
265.89752160942083
 20
156.29060890358616
 10
275.88928057854423
 20
153.55477013823105
 10
281.66365229703973
 20
165.7516573395429
 10
279.99698563037276
 20
168.4897525776381
 10
285.89114997411235
 20
180.93967114043542
 10
294.2329405149813
 20
178.1987971055785
 10
299.2209060424345
 20
186.39331190067975
 10
302.6666378456433
 20
186.39331190067975
 10
304.2771052773723
 20
183.74754397712533
 10
305.94377194403876
 20
186.48563921522054
 10
309.3333045123099
 20
180.91712142448935
 10
312.6666378456433
 20
180.91712142448935
 10
319.3536979130567
 20
169.9312370280248
 10
325.97957777822995
 20
164.48854999591788
 10
330.99140247483905
 20
164.48854999591788
 10
337.6580691415056
 20
156.27426428163216
 10
342.5542393757677
 20
156.27426428163216
 10
344.2209060424346
 20
159.01235951972748
 10
355.99997117897675
 20
159.01235951972748
 10
357.6666378456432
 20
156.27426428163216
 10
364.33330451231006
 20
156.27426428163216
 10
366.89417407752757
 20
152.0671214244893
 10
363.56084074419414
 20
146.5909309482989
 10
365.9693028226003
 20
142.63417181948867
 10
385.96930282260035
 20
159.06274324806014
 10
388.5437719440388
 20
154.83325826283968
 10
388.5437719440388
 20
113.70574649090103
 10
385.9999711789766
 20
109.52664523401312
 10
327.5542393757678
 20
109.52664523401312
 10
324.2209060424346
 20
115.00283571020364
 10
317.6666378456432
 20
115.00283571020364
 10
314.3333045123098
 20
109.52664523401312
 10
232.5542393757678
 20
109.52664523401312
 10
227.5987378467983
 20
117.66782631732009
 10
220.93207118013146
 20
109.45354060303436
 10
217.5542393757679
 20
115.00283571020364
 10
202.6666378456432
 20
115.00283571020364
 10
200.9999711789765
 20
112.26474047210844
 10
187.6666378456433
 20
112.26474047210844
 10
185.99824509450502
 20
109.52380952380946
 10
158.38589422166882
 20
110.8984503681283
 10
156.66003647721715
 20
113.73378809115597
 10
159.25157439881087
 20
117.99131467663138
 10
162.5849077321442
 20
115.25321943853616
 10
165.88757270910116
 20
120.67902618639414
 10
175.99997117897658
 20
120.67902618639414
 10
177.63596948926707
 20
117.99131467663149
  0
LWPOLYLINE
  5
35
330
17
100
AcDbEntity
  8
K
100
AcDbPolyline
 90
5
 70
1
 10
349.9933698105504
 20
132.90045475782264
 10
347.6104386107055
 20
136.81527030042483
 10
345.2275074108608
 20
132.90045475782264
 10
347.6104386107055
 20
128.98563921522043
 10
349.9933698105504
 20
132.90045475782264
  0
LWPOLYLINE
  5
36
330
17
100
AcDbEntity
  8
K
100
AcDbPolyline
 90
17
 70
1
 10
372.6666378456434
 20
219.0504547578227
 10
369.22090604243454
 20
219.0504547578227
 10
367.5542393757678
 20
221.78854999591792
 10
364.22090604243465
 20
221.78854999591792
 10
356.6600364772168
 20
234.2099785673465
 10
360.8875727091012
 20
241.15521666258454
 10
364.2145747341576
 20
241.15521666258454
 10
370.93401019111406
 20
254.9540573331206
 10
372.6104386107056
 20
252.19992492950627
 10
374.2209060424344
 20
254.8456928530608
 10
379.3273477594867
 20
254.8456928530608
 10
388.5437719440388
 20
242.45738242317583
 10
388.5437719440388
 20
220.4914607766154
 10
385.99002227865674
 20
216.2960148977735
 10
375.8790214755736
 20
219.0645032129034
 10
374.27710527737213
 20
221.69622268137724
 10
372.6666378456434
 20
219.0504547578227
  0
LWPOLYLINE
  5
37
330
17
100
AcDbEntity
  8
K
100
AcDbPolyline
 90
8
 70
1
 10
379.27710527737224
 20
276.8427820723633
 10
382.6359694892669
 20
271.3246480099648
 10
385.96930282260035
 20
274.06274324806003
 10
388.5437719440388
 20
269.83325826283954
 10
388.5437719440388
 20
264.3009845861392
 10
384.2683429013196
 20
257.2770654445288
 10
376.66298098117966
 20
272.5481493000472
 10
379.27710527737224
 20
276.8427820723633
  0
LWPOLYLINE
  5
38
330
17
100
AcDbEntity
  8
K
100
AcDbPolyline
 90
265
 70
1
 10
652.5358080492756
 20
131.45826368533142
 10
642.5299616106474
 20
150.63613602603533
 10
634.9915945313733
 20
157.51639169362684
 10
638.3308273073276
 20
165.745215320086
 10
624.2246041589758
 20
186.1933119006798
 10
620.9999711789767
 20
186.1933119006798
 10
619.2993854836461
 20
183.3994925440655
 10
611.6808625643407
 20
190.35290631962187
 10
610.0128431575947
 20
209.53512949720243
 10
608.3437719440388
 20
212.27717506232992
 10
608.3437719440388
 20
223.22955601471085
 10
605.8875727091012
 20
227.26474047210843
 10
602.5542393757679
 20
227.26474047210843
 10
599.2209060424345
 20
232.74093094829885
 10
595.8875727091012
 20
232.74093094829885
 10
592.5542393757679
 20
238.21712142448936
 10
587.5479080674908
 20
238.21712142448936
 10
580.8622362025089
 20
251.94662614721975
 10
573.3083851690764
 20
258.8410139951941
 10
589.2279346652865
 20
279.4885499959179
 10
592.5596461098794
 20
279.4885499959179
 10
602.5403759078436
 20
293.15264436217836
 10
610.8700508515566
 20
298.62643075376116
 10
614.2209060424345
 20
304.13140713877505
 10
617.5542393757678
 20
304.13140713877505
 10
620.8875727091013
 20
309.6075976149656
 10
624.2209060424345
 20
309.6075976149656
 10
627.5662738483148
 20
315.10355901034035
 10
636.0100190876249
 20
312.32918557456713
 10
639.3026361559337
 20
306.9198861052028
 10
642.6359694892669
 20
309.65798134329816
 10
645.9437719440389
 20
304.2237344533155
 10
647.5542393757678
 20
306.8695023768703
 10
655.9999711789766
 20
306.8695023768703
 10
657.6031660302947
 20
304.23568226399044
 10
666.6771052773722
 20
321.8532656073423
 10
666.6771052773722
 20
330.0152703004251
 10
665.0017297916384
 20
332.76767288413066
 10
666.668396458305
 20
338.2438633603212
 10
662.6104386107056
 20
344.91050839566316
 10
659.33330451231
 20
339.5266452340132
 10
649.2209060424345
 20
339.5266452340132
 10
645.9437719440389
 20
344.91050839566316
 10
640.9999711789767
 20
336.7885499959179
 10
622.6462444448968
 20
336.7885499959179
 10
619.2515743988108
 20
334.00007102949013
 10
615.0149576320201
 20
340.96022714636086
 10
610.0149576320201
 20
371.07927476540846
 10
607.5542393757678
 20
375.1218833292512
 10
604.2209060424345
 20
375.1218833292512
 10
595.8875727091012
 20
388.81235951972747
 10
590.8875727091012
 20
388.81235951972747
 10
581.6600364772172
 20
403.9718833292513
 10
584.2209060424345
 20
408.17902618639414
 10
589.32121320348
 20
408.17902618639414
 10
594.2489575027139
 20
402.78197290628094
 10
599.193786416943
 20
413.613502908878
 10
603.3171852558432
 20
417.67799605007974
 10
601.6600364772172
 20
420.40045475782273
 10
605.8875727091012
 20
427.34569285306077
 10
609.33330451231
 20
427.34569285306077
 10
610.9437719440389
 20
424.69992492950604
 10
617.5849077321442
 20
435.61036229567907
 10
620.9795777782302
 20
432.8218833292512
 10
629.33330451231
 20
432.8218833292512
 10
630.943771944039
 20
430.17611540569646
 10
637.5542393757678
 20
441.0361690435369
 10
644.33330451231
 20
441.0361690435369
 10
646.8886847598382
 20
436.838044351169
 10
643.5333941557486
 20
428.56964964823385
 10
639.33330451231
 20
421.6695023768703
 10
636.0056847290839
 20
421.6695023768703
 10
628.5578962402312
 20
406.7148159667137
 10
630.9847841637537
 20
402.72778580664124
 10
637.6514508304203
 20
405.4658810447366
 10
644.33330451231
 20
394.4885499959179
 10
645.8875727091012
 20
394.4885499959179
 10
649.9902938201269
 20
401.2287346783172
 10
639.9902938201269
 20
414.91921086879336
 10
644.2209060424345
 20
421.8695023768703
 10
649.3273477594869
 20
421.8695023768703
 10
658.5437719440389
 20
409.4811919469853
 10
658.5437719440389
 20
403.9914003176962
 10
661.8886847598382
 20
395.7485794501906
 10
660.2275074108605
 20
393.0195023768703
 10
661.8941740775273
 20
390.281407138775
 10
660.2275074108605
 20
387.5433119006798
 10
664.3574871299695
 20
380.75834521928664
 10
669.2610289068527
 20
375.3877994636525
 10
671.6600364772172
 20
379.32902618639406
 10
669.9933698105505
 20
382.0671214244894
 10
672.6104386107056
 20
386.3665915961727
 10
678.5524807631061
 20
376.60466520294324
 10
675.2191474297728
 20
365.6522842505623
 10
684.2888060412793
 20
350.75213081737286
 10
690.8961414132386
 20
358.89331190067986
 10
694.33330451231
 20
358.89331190067986
 10
695.9999711789766
 20
356.15521666258456
 10
701.0137107019443
 20
356.15521666258456
 10
705.9664089546282
 20
342.5942571611884
 10
710.8875727091012
 20
350.67902618639414
 10
719.228382826359
 20
350.67902618639414
 10
726.6747485997888
 20
360.19382689688763
 10
725.0123152054015
 20
384.7740920853294
 10
723.326703143884
 20
387.5433119006798
 10
725.8875727091012
 20
391.75045475782264
 10
734.3129111115636
 20
391.75045475782264
 10
740.97957777823
 20
386.27426428163227
 10
754.3070217259929
 20
386.27426428163227
 10
762.6403550593261
 20
380.79807380544173
 10
767.6666378456432
 20
380.79807380544173
 10
770.2275074108607
 20
376.5909309482989
 10
765.9999711789767
 20
369.64569285306084
 10
759.3333045123098
 20
369.64569285306084
 10
756.8690941342635
 20
365.5973472319849
 10
755.2191474297726
 20
360.17609377437174
 10
760.2208772214112
 20
351.95896625953725
 10
757.64779260175
 20
344.91361551522726
 10
752.626514981225
 20
350.4131100519928
 10
747.6546033730962
 20
342.24496955292403
 10
739.3212700397629
 20
344.9830647910193
 10
737.6359694892672
 20
342.21435674377585
 10
734.3026361559337
 20
344.9524519818711
 10
731.9001391378923
 20
341.0054925950886
 10
737.6566061644319
 20
334.2504547578227
 10
742.6666378456432
 20
334.2504547578227
 10
745.9999711789767
 20
328.77426428163227
 10
752.6666378456432
 20
328.77426428163227
 10
755.943771944039
 20
323.3904011199822
 10
759.9933698105506
 20
330.04331190067984
 10
758.3267031438838
 20
332.781407138775
 10
760.8875727091012
 20
336.9885499959179
 10
764.2209060424345
 20
336.9885499959179
 10
768.3267031438838
 20
343.73378809115604
 10
765.943771944039
 20
347.6486036337585
 10
764.2771052773722
 20
344.91050839566316
 10
761.6600364772172
 20
349.20997856734647
 10
764.2515743988109
 20
353.4675051528219
 10
767.5849077321442
 20
350.72940991472666
 10
769.2771052773721
 20
353.5094487390298
 10
772.6221393746126
 20
348.0140355792777
 10
779.2983254178312
 20
356.2400505253863
 10
785.9408541423471
 20
342.5991433232556
 10
790.8794963189973
 20
353.4171214244893
 10
794.2209060424345
 20
353.4171214244893
 10
795.9535336969636
 20
356.26358114264434
 10
802.6202003636303
 20
342.5731049521682
 10
805.8875727091013
 20
347.9409309482989
 10
810.9999711789766
 20
347.9409309482989
 10
813.5674216897914
 20
343.72297653767424
 10
802.6556714614519
 20
331.31235951972747
 10
799.3333045123098
 20
331.31235951972747
 10
794.2771052773722
 20
323.0057464909013
 10
790.9564154862321
 20
328.4611654334886
 10
786.0251294435905
 20
317.65930076865436
 10
782.6043500483011
 20
314.84937483680955
 10
778.3597842040888
 20
319.03330402610464
 10
774.2622755720543
 20
328.4575738797838
 10
765.9693028226004
 20
314.8334043628235
 10
762.635969489267
 20
317.5714996009187
 10
759.3333045123098
 20
312.14569285306084
 10
754.2209060424345
 20
312.14569285306084
 10
752.6104386107055
 20
314.79146077661557
 10
749.3333045123101
 20
309.4075976149656
 10
744.2209060424345
 20
309.4075976149656
 10
741.6600364772172
 20
313.61474047210834
 10
743.3437719440387
 20
316.3808773104584
 10
743.3437719440387
 20
321.80098458613935
 10
740.9437719440389
 20
325.74384172899653
 10
736.8941740775272
 20
319.0909309482989
 10
740.2275074108607
 20
313.61474047210834
 10
737.6666378456433
 20
309.4075976149656
 10
730.8996640179308
 20
309.4075976149656
 10
720.9598483145584
 20
320.2940624329452
 10
719.33330451231
 20
317.6218833292512
 10
715.9999711789766
 20
317.6218833292512
 10
710.2275074108607
 20
308.13854999591797
 10
712.6104386107055
 20
304.2237344533155
 10
715.8875727091012
 20
309.6075976149656
 10
720.9999711789766
 20
309.6075976149656
 10
723.543771944039
 20
305.42849635807744
 10
723.543771944039
 20
299.9523058818869
 10
727.6514508304203
 20
293.2039762828318
 10
734.3038012669481
 20
295.9361916406913
 10
739.2610289068529
 20
290.50684708270023
 10
742.5542393757678
 20
295.9171214244893
 10
747.6760032733489
 20
295.9171214244893
 10
751.8894923161528
 20
286.2260966260407
 10
750.2275074108607
 20
283.49569285306075
 10
756.8705950939254
 20
272.5820488023112
 10
760.2039284272588
 20
258.89157261183504
 10
762.6819433770788
 20
254.82054805141652
 10
772.6819433770788
 20
249.34435757522598
 10
777.6461909938921
 20
241.18880791903263
 10
782.6337747971342
 20
243.92010381128426
 10
788.5514532895872
 20
236.97588925381362
 10
786.8728307747035
 20
228.70267828760015
 10
781.8640049224243
 20
217.73096451594154
 10
771.0030800475594
 20
202.63308543165104
 10
759.3407414837432
 20
199.89600597279622
 10
757.6666378456433
 20
197.14569285306084
 10
749.2209060424346
 20
197.14569285306084
 10
747.6104386107054
 20
199.7914607766156
 10
745.2104386107056
 20
195.84860363375833
 10
745.2104386107056
 20
190.37241315756782
 10
743.5608407441938
 20
187.66235951972743
 10
745.2104386107056
 20
184.95230588188704
 10
745.2104386107056
 20
135.6665915961728
 10
747.6666378456431
 20
131.63140713877507
 10
754.33330451231
 20
131.63140713877507
 10
755.9999711789767
 20
128.89331190067978
 10
774.33330451231
 20
128.89331190067978
 10
777.6546033730962
 20
123.43689234367372
 10
785.9879367064295
 20
126.17498758176893
 10
787.6359694892669
 20
123.4675051528219
 10
790.956185749799
 20
126.19482565254481
 10
796.8771052773723
 20
119.24680783957642
 10
796.8771052773723
 20
100.07135350093466
 10
798.560840744194
 20
97.30521666258463
 10
795.9999711789765
 20
93.09807380544177
 10
790.9999711789766
 20
93.09807380544177
 10
787.6666378456432
 20
87.62188332925125
 10
784.2209060424345
 20
87.62188332925125
 10
779.2209060424344
 20
95.83616904353698
 10
775.9914024748391
 20
95.83616904353698
 10
769.2913612621757
 20
87.58076112079117
 10
765.9693028226004
 20
90.30959483901391
 10
764.33330451231
 20
87.62188332925125
 10
745.8875727091013
 20
87.62188332925125
 10
741.6683964583051
 20
94.55338716984497
 10
743.3350631249715
 20
100.02957764603548
 10
740.887572709101
 20
104.0504547578227
 10
730.9079661098474
 20
104.0504547578227
 10
717.5614339539496
 20
115.01367760016745
 10
709.3212700397629
 20
117.72116002911449
 10
704.3212700397629
 20
109.50687431482875
 10
695.9879367064295
 20
112.24496955292406
 10
693.5720087665359
 20
108.27594508024141
 10
701.0217526659975
 20
101.476575648193
 10
706.8941740775273
 20
91.8290261863941
 10
704.33330451231
 20
87.62188332925125
 10
692.5542393757679
 20
87.62188332925125
 10
690.9437719440389
 20
90.267651252806
 10
689.3248324321505
 20
87.60796491184631
 10
683.3801357376681
 20
89.0031488299391
 10
676.6641170493317
 20
100.03660810363446
 10
681.6641170493317
 20
110.9889890560154
 10
678.3350631249717
 20
116.45814907460694
 10
680.0017297916384
 20
121.93433955079736
 10
678.3267031438838
 20
124.68616904353702
 10
680.9080195608523
 20
128.92690315712795
 10
685.9080195608523
 20
126.18880791903275
 10
689.9933698105505
 20
132.90045475782264
 10
687.5483459958471
 20
136.9172795962642
 10
672.5669888797655
 20
139.6519717682474
 10
665.9079661098476
 20
145.12188332925123
 10
660.8875727091012
 20
145.12188332925123
 10
657.6104386107056
 20
150.50574649090132
 10
655.2220180931716
 20
146.58191278352396
 10
658.5314230294779
 20
138.42659347619767
 10
675.2313235809042
 20
116.47815275146588
 10
672.6420333646266
 20
112.22431882472395
 10
664.2033841848898
 20
117.76971685712235
 10
657.5389338443323
 20
128.71845670232406
 10
652.5358080492756
 20
131.45826368533142
  0
LWPOLYLINE
  5
39
330
17
100
AcDbEntity
  8
K
100
AcDbPolyline
 90
5
 70
1
 10
771.8941740775272
 20
335.5195023768703
 10
774.2771052773722
 20
331.6046868342679
 10
776.6600364772172
 20
335.5195023768703
 10
774.2771052773722
 20
339.43431791947273
 10
771.8941740775272
 20
335.5195023768703
  0
LWPOLYLINE
  5
3A
330
17
100
AcDbEntity
  8
K
100
AcDbPolyline
 90
5
 70
1
 10
745.2275074108608
 20
242.42426428163222
 10
747.6104386107054
 20
238.5094487390298
 10
749.9933698105506
 20
242.42426428163222
 10
747.6104386107054
 20
246.33907982423463
 10
745.2275074108608
 20
242.42426428163222
  0
LWPOLYLINE
  5
3B
330
17
100
AcDbEntity
  8
K
100
AcDbPolyline
 90
5
 70
1
 10
745.943771944039
 20
356.247543977125
 10
748.3267031438838
 20
360.16235951972743
 10
745.943771944039
 20
364.07717506232984
 10
743.5608407441938
 20
360.16235951972743
 10
745.943771944039
 20
356.247543977125
  0
LWPOLYLINE
  5
3C
330
17
100
AcDbEntity
  8
K
100
AcDbPolyline
 90
6
 70
1
 10
743.3437719440387
 20
283.46765125280604
 10
740.9437719440389
 20
287.41050839566316
 10
736.8941740775272
 20
280.75759761496556
 10
740.9437719440389
 20
274.1046868342679
 10
743.3437719440387
 20
278.04754397712503
 10
743.3437719440387
 20
283.46765125280604
  0
LWPOLYLINE
  5
3D
330
17
100
AcDbEntity
  8
K
100
AcDbPolyline
 90
5
 70
1
 10
725.9635212560371
 20
331.5722415359852
 10
729.9838519225099
 20
335.53513890722263
 10
727.5906892987074
 20
339.4667632177555
 10
723.5703586322346
 20
335.503865846518
 10
725.9635212560371
 20
331.5722415359852
  0
LWPOLYLINE
  5
3E
330
17
100
AcDbEntity
  8
K
100
AcDbPolyline
 90
5
 70
1
 10
719.9933698105505
 20
332.781407138775
 10
717.6104386107056
 20
336.69622268137744
 10
715.2275074108607
 20
332.781407138775
 10
717.6104386107056
 20
328.8665915961727
 10
719.9933698105505
 20
332.781407138775
  0
LWPOLYLINE
  5
3F
330
17
100
AcDbEntity
  8
K
100
AcDbPolyline
 90
5
 70
1
 10
702.6104386107056
 20
333.95812744328225
 10
700.2275074108605
 20
330.04331190067984
 10
702.6104386107056
 20
326.12849635807737
 10
704.9933698105505
 20
330.04331190067984
 10
702.6104386107056
 20
333.95812744328225
  0
LWPOLYLINE
  5
40
330
17
100
AcDbEntity
  8
K
100
AcDbPolyline
 90
9
 70
1
 10
670.2275074108605
 20
360.16235951972743
 10
668.5561589828194
 20
357.41657281651686
 10
672.6252683160235
 20
348.0576213501474
 10
675.0017297916384
 20
351.961808060086
 10
673.3350631249717
 20
357.43799853627655
 10
674.9933698105505
 20
360.16235951972743
 10
670.9437719440389
 20
366.81527030042514
 10
668.560840744194
 20
362.90045475782273
 10
670.2275074108605
 20
360.16235951972743
  0
LWPOLYLINE
  5
41
330
17
100
AcDbEntity
  8
K
100
AcDbPolyline
 90
5
 70
1
 10
661.6600364772172
 20
357.4242642816322
 10
659.2771052773722
 20
361.33907982423466
 10
656.8941740775273
 20
357.4242642816322
 10
659.2771052773722
 20
353.5094487390298
 10
661.6600364772172
 20
357.4242642816322
  0
LWPOLYLINE
  5
42
330
17
100
AcDbEntity
  8
K
100
AcDbPolyline
 90
6
 70
1
 10
644.2771052773722
 20
380.5057464909013
 10
640.2275074108607
 20
373.8528357102037
 10
642.6666378456432
 20
369.84569285306077
 10
645.8875727091012
 20
369.84569285306077
 10
648.3267031438838
 20
373.8528357102037
 10
644.2771052773722
 20
380.5057464909013
  0
LWPOLYLINE
  5
43
330
17
100
AcDbEntity
  8
K
100
AcDbPolyline
 90
5
 70
1
 10
617.6104386107055
 20
388.720032205187
 10
615.2275074108607
 20
384.8052166625846
 10
617.6104386107055
 20
380.8904011199822
 10
619.9933698105506
 20
384.8052166625846
 10
617.6104386107055
 20
388.720032205187
  0
LWPOLYLINE
  5
44
330
17
100
AcDbEntity
  8
K
100
AcDbPolyline
 90
9
 70
1
 10
613.3267031438838
 20
395.75759761496556
 10
607.6104386107055
 20
405.1486036337585
 10
605.9437719440389
 20
402.41050839566316
 10
604.2771052773722
 20
405.1486036337585
 10
601.8941740775273
 20
401.23378809115604
 10
604.2771052773722
 20
397.31897254855363
 10
605.9437719440389
 20
400.0570677866489
 10
610.9437719440389
 20
391.8427820723631
 10
613.3267031438838
 20
395.75759761496556
  0
LWPOLYLINE
  5
45
330
17
100
AcDbEntity
  8
K
100
AcDbPolyline
 90
10
 70
1
 10
710.0104386107056
 20
91.80098458613928
 10
710.0104386107056
 20
97.33325826283945
 10
714.2209060424345
 20
104.25045475782268
 10
717.6666378456433
 20
104.25045475782268
 10
720.9999711789766
 20
98.77426428163216
 10
724.33330451231
 20
98.77426428163216
 10
728.5608407441939
 20
91.8290261863941
 10
725.9965811823826
 20
87.6163140491325
 10
711.7176948842357
 20
88.99620642248284
 10
710.0104386107056
 20
91.80098458613928
  0
LWPOLYLINE
  5
46
330
17
100
AcDbEntity
  8
K
100
AcDbPolyline
 90
29
 70
1
 10
652.5663306845977
 20
109.72664523401309
 10
656.0047514451293
 20
109.72664523401309
 10
665.2250242579253
 20
91.8249467208574
 10
662.6666378456433
 20
87.62188332925125
 10
657.5542393757678
 20
87.62188332925125
 10
654.2610289068527
 20
93.03215767104045
 10
649.3199565772629
 20
87.62050702434676
 10
605.0356536642882
 20
88.99320104995113
 10
603.3350631249716
 20
94.58085567913376
 10
606.6600364772172
 20
100.04331190067984
 10
603.3267031438838
 20
105.51950237687035
 10
605.9240226320408
 20
109.78652725027082
 10
610.2370252989012
 20
105.53513890722266
 10
608.5608407441939
 20
102.78140713877504
 10
610.9635212560371
 20
98.83414629788989
 10
614.9716927552472
 20
102.7850582042541
 10
609.986032421039
 20
108.2455433321966
 10
611.6600364772171
 20
110.99569285306077
 10
608.3267031438838
 20
116.47188332925128
 10
610.8875727091012
 20
120.67902618639414
 10
614.3413809024138
 20
120.67902618639414
 10
619.3413809024138
 20
109.72664523401309
 10
622.6666378456432
 20
109.72664523401309
 10
625.9598483145583
 20
104.31637089222411
 10
630.8996640179311
 20
109.72664523401309
 10
639.2209060424345
 20
109.72664523401309
 10
640.9320711801319
 20
112.53784510308718
 10
647.6148981029608
 20
104.30364764460131
 10
652.5663306845977
 20
109.72664523401309
  0
LWPOLYLINE
  5
47
330
17
100
AcDbEntity
  8
K
100
AcDbPolyline
 90
52
 70
1
 10
577.5542393757679
 20
134.3695023768703
 10
579.9933698105505
 20
138.37664523401315
 10
578.3216797934831
 20
141.12299311919529
 10
584.9883464601497
 20
149.33727883348104
 10
583.3267031438838
 20
152.0671214244893
 10
585.9302255377112
 20
156.3443367857772
 10
591.8847866229206
 20
149.35684163476614
 10
590.2162340342838
 20
141.13326101934177
 10
591.8941740775273
 20
138.37664523401315
 10
588.5651783468793
 20
132.90758081937693
 10
595.9924943950521
 20
123.41712142448935
 10
599.33330451231
 20
123.41712142448935
 10
603.5542105547445
 20
116.48277578334698
 10
601.0137107019443
 20
109.52664523401312
 10
595.9999711789766
 20
109.52664523401312
 10
592.6666378456433
 20
104.0504547578227
 10
589.33330451231
 20
104.0504547578227
 10
586.8941740775273
 20
100.04331190067984
 10
591.8941740775273
 20
91.8290261863941
 10
589.33330451231
 20
87.62188332925125
 10
585.8875727091012
 20
87.62188332925125
 10
583.3267031438838
 20
91.8290261863941
 10
584.9933698105505
 20
94.56712142448932
 10
582.6104386107056
 20
98.48193696709173
 10
579.33330451231
 20
93.09807380544177
 10
574.32121320348
 20
93.09807380544177
 10
569.32121320348
 20
87.62188332925125
 10
544.2329973512644
 20
87.62188332925125
 10
539.2771052773722
 20
93.0497651244665
 10
534.2692242030311
 20
87.56494299542605
 10
524.9782644782082
 20
100.05344080736323
 10
533.3171852558432
 20
108.27323414531787
 10
531.6600364772172
 20
110.99569285306077
 10
535.9182410654774
 20
117.99131467663138
 10
539.2628492925686
 20
115.24395791866371
 10
545.955472707946
 20
123.49022605546811
 10
550.2104386107056
 20
116.49992492950612
 10
550.2104386107056
 20
108.22955601471074
 10
545.2275074108605
 20
100.04331190067984
 10
547.6104386107056
 20
96.12849635807751
 10
550.9182410654774
 20
101.56274324806003
 10
554.2515743988109
 20
98.8246480099647
 10
556.6600364772172
 20
102.78140713877504
 10
554.9933698105505
 20
105.51950237687035
 10
558.3267031438838
 20
110.99569285306077
 10
554.9838519225099
 20
116.4875198596036
 10
563.3171852558432
 20
124.70180557388932
 10
561.6600364772172
 20
127.42426428163223
 10
564.2515743988109
 20
131.68179086710762
 10
567.5849077321442
 20
128.94369562901232
 10
570.8875727091012
 20
134.3695023768703
 10
577.5542393757679
 20
134.3695023768703
  0
LWPOLYLINE
  5
48
330
17
100
AcDbEntity
  8
K
100
AcDbPolyline
 90
6
 70
1
 10
582.6104386107056
 20
125.86288934804412
 10
578.560840744194
 20
119.2099785673465
 10
582.6104386107056
 20
112.55706778664899
 10
585.0104386107056
 20
116.49992492950612
 10
585.0104386107056
 20
121.92003220518689
 10
582.6104386107056
 20
125.86288934804412
  0
LWPOLYLINE
  5
49
330
17
100
AcDbEntity
  8
K
100
AcDbPolyline
 90
5
 70
1
 10
571.6600364772172
 20
119.2099785673465
 10
567.6104386107056
 20
125.86288934804412
 10
565.2275074108605
 20
121.94807380544171
 10
569.2771052773721
 20
115.29516302474418
 10
571.6600364772172
 20
119.2099785673465
  0
LWPOLYLINE
  5
4A
330
17
100
AcDbEntity
  8
K
100
AcDbPolyline
 90
46
 70
1
 10
509.32667350360373
 20
295.9171214244893
 10
517.6271706598515
 20
285.0078965905638
 10
520.9693028226002
 20
287.7532194385362
 10
527.6104386107055
 20
276.84278207236315
 10
529.2209060424345
 20
279.4885499959179
 10
534.33330451231
 20
279.4885499959179
 10
540.9598483145584
 20
268.60208517793825
 10
545.899664017931
 20
274.01235951972745
 10
550.9878798701468
 20
274.01235951972745
 10
555.9276955735194
 20
268.60208517793825
 10
557.6104386107056
 20
271.3665915961727
 10
562.6104386107056
 20
263.152305881887
 10
564.2771052773722
 20
265.8904011199822
 10
566.8905582577049
 20
261.59687122372134
 10
561.024564436411
 20
249.2064557032332
 10
557.5849077321442
 20
246.38102341044254
 10
554.9933698105505
 20
250.63854999591794
 10
556.6600364772172
 20
253.37664523401315
 10
552.5849077321442
 20
260.0714996009187
 10
549.2515743988109
 20
257.3334043628235
 10
547.6330756212948
 20
259.9923666401712
 10
545.2208772214111
 20
253.38753768810872
 10
547.6104386107056
 20
249.46182969141074
 10
549.2209060424345
 20
252.10759761496558
 10
552.6666378456433
 20
252.10759761496558
 10
555.2275074108605
 20
247.90045475782273
 10
549.33330451231
 20
238.21712142448936
 10
544.3212132034802
 20
238.21712142448936
 10
534.3261454999753
 20
227.27014251112686
 10
523.3726552203057
 20
225.88591022303672
 10
521.668396458305
 20
231.48561758389562
 10
523.3228869738402
 20
234.203709145132
 10
515.0216962851011
 20
245.11384547890336
 10
512.5878016001163
 20
251.7780809258856
 10
509.29065168369993
 20
246.36133463463017
 10
497.6239850170332
 20
260.0518108251063
 10
495.9573183503666
 20
257.31371558701113
 10
489.98740475018565
 20
264.3192264443662
 10
493.32670314388383
 20
269.8052166625846
 10
490.00464318712733
 20
275.26288659154176
 10
491.671309853794
 20
283.4771723058275
 10
489.9969856303729
 20
286.22784781573364
 10
495.8804742631816
 20
298.65521666258456
 10
504.33330451230995
 20
298.65521666258456
 10
505.99997117897664
 20
295.9171214244893
 10
509.32667350360373
 20
295.9171214244893
  0
LWPOLYLINE
  5
4B
330
17
100
AcDbEntity
  8
K
100
AcDbPolyline
 90
5
 70
1
 10
505.94377194403893
 20
268.24384172899653
 10
503.5608407441939
 20
264.3290261863941
 10
505.94377194403893
 20
260.41421064379165
 10
508.32670314388383
 20
264.3290261863941
 10
505.94377194403893
 20
268.24384172899653
  0
LWPOLYLINE
  5
4C
330
17
100
AcDbEntity
  8
K
100
AcDbPolyline
 90
5
 70
1
 10
501.6505185891766
 20
267.0827579548417
 10
499.257355965374
 20
271.01438226537454
 10
495.23702529890124
 20
267.0514848941371
 10
497.6301879227037
 20
263.11986058360424
 10
501.6505185891766
 20
267.0827579548417
  0
LWPOLYLINE
  5
4D
330
17
100
AcDbEntity
  8
K
100
AcDbPolyline
 90
6
 70
1
 10
529.2209060424345
 20
298.65521666258456
 10
530.9999711789766
 20
298.65521666258456
 10
536.8941740775273
 20
288.9718833292513
 10
534.2874012747064
 20
284.68932801033134
 10
526.6556988745319
 20
294.4409477438874
 10
529.2209060424345
 20
298.65521666258456
  0
LWPOLYLINE
  5
4E
330
17
100
AcDbEntity
  8
K
100
AcDbPolyline
 90
33
 70
1
 10
1218.3267031438838
 20
184.92426428163222
 10
1219.9933698105506
 20
187.66235951972743
 10
1216.6600364772173
 20
193.13854999591794
 10
1219.9988591282395
 20
198.6237586368833
 10
1216.6655257949062
 20
206.83804435116903
 10
1222.6104386107056
 20
216.6046868342679
 10
1225.9635212560372
 20
211.0960510597947
 10
1229.98385192251
 20
215.05894843103212
 10
1224.9933698105506
 20
223.25759761496556
 10
1227.5542393757678
 20
227.46474047210842
 10
1230.887572709101
 20
227.46474047210842
 10
1232.6104386107056
 20
230.29516302474406
 10
1234.2771052773721
 20
227.55706778664887
 10
1235.9240226320408
 20
230.26271772646123
 10
1244.3181058369398
 20
221.98854999591788
 10
1247.6462444448969
 20
221.98854999591788
 10
1261.0203645797228
 20
211.00266559945356
 10
1265.2275074108607
 20
204.09093094829888
 10
1260.2275074108607
 20
195.87664523401315
 10
1262.6104386107056
 20
191.96182969141086
 10
1265.9437719440389
 20
197.43802016760137
 10
1268.5632230693668
 20
193.13463617599092
 10
1255.9636262012177
 20
175.1952101589592
 10
1252.6359694892667
 20
177.9286424580616
 10
1249.3181174970869
 20
172.4778856137661
 10
1242.6514508304203
 20
175.2159808518613
 10
1239.2771052773721
 20
169.67241315756797
 10
1237.5788438567845
 20
172.46241406281914
 10
1229.2917137096713
 20
167.01658568043032
 10
1225.0441914671196
 20
168.41220013155456
 10
1219.9933698105506
 20
176.7099785673465
 10
1221.6600364772173
 20
179.4480738054417
 10
1218.3267031438838
 20
184.92426428163222
  0
LWPOLYLINE
  5
4F
330
17
100
AcDbEntity
  8
K
100
AcDbPolyline
 90
9
 70
1
 10
1255.0104386107055
 20
190.42849635807747
 10
1258.320738083519
 20
195.8668454919853
 10
1252.6239850170332
 20
202.5518108251062
 10
1250.2275074108607
 20
198.61474047210837
 10
1251.8941740775272
 20
195.87664523401315
 10
1246.8941740775272
 20
187.66235951972743
 10
1250.963521256037
 20
180.97700344074707
 10
1255.0104386107055
 20
184.96610769034882
 10
1255.0104386107055
 20
190.42849635807747
  0
LWPOLYLINE
  5
50
330
17
100
AcDbEntity
  8
K
100
AcDbPolyline
 90
7
 70
1
 10
1241.6666666666667
 20
206.83991864048969
 10
1239.236532809386
 20
213.49385658304354
 10
1235.2104386107055
 20
209.5252780157727
 10
1235.2104386107055
 20
204.06288934804417
 10
1230.2275074108607
 20
195.87664523401315
 10
1232.6104386107056
 20
191.96182969141086
 10
1241.6666666666667
 20
206.83991864048969
  0
LWPOLYLINE
  5
51
330
17
100
AcDbEntity
  8
K
100
AcDbPolyline
 90
5
 70
1
 10
1235.2275074108604
 20
184.92426428163222
 10
1237.6104386107056
 20
181.00944873902992
 10
1239.9933698105506
 20
184.92426428163222
 10
1237.6104386107056
 20
188.83907982423466
 10
1235.2275074108604
 20
184.92426428163222
  0
LWPOLYLINE
  5
52
330
17
100
AcDbEntity
  8
K
100
AcDbPolyline
 90
6
 70
1
 10
1266.9053420998694
 20
67.20451650881287
 10
1264.3267793692592
 20
62.968306308525015
 10
1256.7150126625136
 20
64.35775578674041
 10
1254.9933698105503
 20
67.18616904353702
 10
1259.2548250710984
 20
74.18713125729425
 10
1266.9053420998694
 20
67.20451650881287
  0
LWPOLYLINE
  5
53
330
17
100
AcDbEntity
  8
K
100
AcDbPolyline
 90
12
 70
1
 10
1209.9969856303728
 20
78.1444902713404
 10
1214.2209060424345
 20
85.08378809115602
 10
1217.5542393757678
 20
85.08378809115602
 10
1219.2515743988108
 20
87.87226705758377
 10
1229.3261099341282
 20
79.59675572500169
 10
1237.670485433104
 20
76.85503234676672
 10
1245.2318450135458
 20
67.19329510509131
 10
1242.6641475906556
 20
62.97493505320051
 10
1223.3998468786272
 20
64.35095653263102
 10
1219.2710167149676
 20
68.4208034082382
 10
1215.908223247395
 20
65.65850877416068
 10
1209.9969856303728
 20
78.1444902713404
  0
LWPOLYLINE
  5
54
330
17
100
AcDbEntity
  8
K
100
AcDbPolyline
 90
15
 70
1
 10
1946.677105277372
 20
124.7743270326498
 10
1957.6621740679348
 20
126.16255001167687
 10
1959.277105277372
 20
123.50944873902992
 10
1960.887572709101
 20
126.15521666258456
 10
1965.9999711789765
 20
126.15521666258456
 10
1970.200986653062
 20
119.25354838372914
 10
1980.2009866530623
 20
91.87259600277675
 10
1988.565178346879
 20
78.13142393436378
 10
1980.9594181095372
 20
68.41295251998235
 10
1977.6202977823991
 20
71.15580136013122
 10
1972.6202977823991
 20
65.67961088394081
 10
1969.2869644490659
 20
68.41770612203601
 10
1964.324305690254
 20
62.98241319571829
 10
1946.677105277372
 20
61.601849898111794
 10
1946.677105277372
 20
124.7743270326498
  0
LWPOLYLINE
  5
55
330
17
100
AcDbEntity
  8
K
100
AcDbPolyline
 90
8
 70
1
 10
1974.9933698105501
 20
204.09093094829888
 10
1973.3267031438836
 20
206.8290261863941
 10
1975.8875727091013
 20
211.03616904353694
 10
1979.3333045123095
 20
211.03616904353694
 10
1983.556158982819
 20
204.09862241341426
 10
1979.3049225696202
 20
194.32077866305664
 10
1973.3207380835186
 20
201.34303596817583
 10
1974.9933698105501
 20
204.09093094829888
  0
LWPOLYLINE
  5
56
330
17
100
AcDbEntity
  8
K
100
AcDbPolyline
 90
24
 70
1
 10
1948.3403118978515
 20
193.11619275725621
 10
1946.677105277372
 20
195.84860363375833
 10
1946.677105277372
 20
204.11897254855361
 10
1948.3267031438838
 20
206.8290261863941
 10
1946.677105277372
 20
209.5390798242346
 10
1946.677105277372
 20
226.03252212529057
 10
1952.6137349956198
 20
232.9989753660916
 10
1960.2248679959805
 20
223.27363875451988
 10
1953.5553514265046
 20
206.83804435116903
 10
1955.9437719440384
 20
202.9142106437918
 10
1957.5849077321438
 20
205.61036229567898
 10
1960.9182410654773
 20
202.87226705758377
 10
1962.5849077321438
 20
205.61036229567898
 10
1966.0203645797228
 20
202.78837988516773
 10
1968.560840744194
 20
198.61474047210837
 10
1966.894174077527
 20
195.87664523401315
 10
1968.560840744194
 20
193.13854999591794
 10
1965.2275074108604
 20
187.66235951972743
 10
1966.894174077527
 20
184.92426428163222
 10
1960.9693028226
 20
175.1905472199663
 10
1957.635969489267
 20
177.9286424580616
 10
1955.9833473378587
 20
175.21362035217726
 10
1946.668927561254
 20
179.38696427805888
 10
1948.3403118978515
 20
193.11619275725621
  0
LWPOLYLINE
  5
57
330
17
100
AcDbEntity
  8
K
100
AcDbPolyline
 90
104
 70
1
 10
3309.211161038654
 20
175.25472717330214
 10
3284.2190338844443
 20
219.0504547578227
 10
3264.3333045123104
 20
219.0504547578227
 10
3262.666637845644
 20
216.3123595197275
 10
3210.8875727091017
 20
216.3123595197275
 10
3208.3267031438836
 20
220.51950237687035
 10
3211.6782362969093
 20
226.02559255684073
 10
3213.3449029635763
 20
267.0970211282694
 10
3215.010438610706
 20
269.83325826283954
 10
3215.010438610706
 20
288.94384172899635
 10
3212.554239375768
 20
292.97902618639415
 10
3175.899664017931
 20
292.97902618639415
 10
3170.893320194939
 20
298.4621646591952
 10
3154.3274537095144
 20
301.18369986751503
 10
3152.6666378456434
 20
298.4552166625846
 10
3145.987879870147
 20
298.4552166625846
 10
3140.987879870147
 20
292.97902618639415
 10
3132.642111187437
 20
292.97902618639415
 10
3120.975444520771
 20
284.76474047210843
 10
3114.3070217259933
 20
284.76474047210843
 10
3105.9736883926594
 20
279.2885499959179
 10
3102.5663306845977
 20
279.2885499959179
 10
3097.566330684598
 20
284.76474047210843
 10
3085.999971178977
 20
284.76474047210843
 10
3084.335696891864
 20
282.03057557185105
 10
3045.890062964089
 20
279.28445886272414
 10
3043.343771944039
 20
283.46765125280604
 10
3043.343771944039
 20
319.06288934804417
 10
3040.8875727091017
 20
323.09807380544174
 10
3035.9999711789765
 20
323.09807380544174
 10
3034.3333045123104
 20
320.35997856734656
 10
2975.8875727091013
 20
320.35997856734656
 10
2973.3437719440394
 20
324.5390798242347
 10
2973.3437719440394
 20
341.02373445331546
 10
2977.5542393757682
 20
347.9409309482989
 10
2980.8875727091013
 20
347.9409309482989
 10
2982.5542393757682
 20
350.67902618639414
 10
2992.5746327765146
 20
350.67902618639414
 10
2999.2343878835877
 20
356.1495393100615
 10
3015.906603211151
 20
358.8885461138756
 10
3024.2471888287523
 20
364.3695023768703
 10
3032.6545465368135
 20
364.3695023768703
 10
3037.6545465368135
 20
358.89331190067986
 10
3072.6666378456434
 20
358.89331190067986
 10
3074.3333045123104
 20
356.15521666258456
 10
3084.2209060424348
 20
356.15521666258456
 10
3085.8875727091017
 20
358.89331190067986
 10
3094.2329973512647
 20
358.89331190067986
 10
3099.2329973512647
 20
364.3695023768703
 10
3110.9795777782306
 20
364.3695023768703
 10
3117.646244444897
 20
358.89331190067986
 10
3127.6666378456434
 20
358.89331190067986
 10
3129.33330451231
 20
356.15521666258456
 10
3132.5787660339743
 20
356.15521666258456
 10
3144.245432700641
 20
364.3695023768703
 10
3155.999971178977
 20
364.3695023768703
 10
3157.6666378456434
 20
361.63140713877505
 10
3172.6666378456434
 20
361.63140713877505
 10
3174.33330451231
 20
358.89331190067986
 10
3202.666637845643
 20
358.89331190067986
 10
3204.33330451231
 20
356.15521666258456
 10
3215.999971178977
 20
356.15521666258456
 10
3217.6666378456434
 20
353.4171214244893
 10
3222.5542393757682
 20
353.4171214244893
 10
3225.8875727091013
 20
358.89331190067986
 10
3230.9999711789765
 20
358.89331190067986
 10
3232.6666378456434
 20
356.15521666258456
 10
3247.6666378456434
 20
356.15521666258456
 10
3249.33330451231
 20
353.4171214244893
 10
3265.9999711789765
 20
353.4171214244893
 10
3267.6666378456434
 20
350.67902618639414
 10
3304.2209060424348
 20
350.67902618639414
 10
3309.2209060424348
 20
358.89331190067986
 10
3314.2209060424348
 20
358.89331190067986
 10
3315.8875727091017
 20
361.63140713877505
 10
3345.999971178977
 20
361.63140713877505
 10
3348.5437719440392
 20
357.4523058818871
 10
3348.5437719440392
 20
283.4676512528058
 10
3345.999971178977
 20
279.2885499959179
 10
3339.33330451231
 20
279.2885499959179
 10
3337.6666378456434
 20
276.5504547578227
 10
3292.6666378456434
 20
276.5504547578227
 10
3290.999971178977
 20
273.81235951972747
 10
3280.999971178977
 20
273.81235951972747
 10
3278.543771944039
 20
269.77717506232966
 10
3278.543771944039
 20
256.1427820723633
 10
3284.2771052773724
 20
246.72373445331576
 10
3285.8875727091013
 20
249.3695023768703
 10
3292.5542393757682
 20
249.3695023768703
 10
3294.2209060424348
 20
252.10759761496558
 10
3300.8875727091013
 20
252.10759761496558
 10
3302.554239375768
 20
254.8456928530608
 10
3317.554239375768
 20
254.8456928530608
 10
3319.2209060424348
 20
257.583788091156
 10
3325.8875727091013
 20
257.583788091156
 10
3327.554239375768
 20
260.3218833292512
 10
3334.2209060424348
 20
260.3218833292512
 10
3335.8875727091017
 20
263.05997856734655
 10
3345.999971178977
 20
263.05997856734655
 10
3348.5437719440392
 20
258.88087731045863
 10
3348.5437719440392
 20
173.94384172899635
 10
3345.9976834324525
 20
169.7609820313899
 10
3325.0944645383647
 20
171.13462213014418
 10
3309.211161038654
 20
175.25472717330214
  0
LWPOLYLINE
  5
58
330
17
100
AcDbEntity
  8
K
100
AcDbPolyline
 90
65
 70
1
 10
2965.011569630243
 20
67.15626933975727
 10
2963.3449029635763
 20
108.2276979111858
 10
2961.6771052773724
 20
110.96765125280595
 10
2961.6771052773724
 20
130.1428425312826
 10
2958.332192461573
 20
138.3856633987881
 10
2960.8875727091017
 20
142.583788091156
 10
2964.2209060424343
 20
142.583788091156
 10
2967.545688142241
 20
148.04593011226586
 10
2977.5456881422406
 20
150.78402535036116
 10
2981.6655257949064
 20
157.55233006545478
 10
2978.3469389422053
 20
165.7302762381827
 10
2973.3482909653535
 20
195.84117952731316
 10
2971.677105277373
 20
198.58669887185354
 10
2971.677105277373
 20
206.80098458613938
 10
2968.326703143884
 20
212.30521666258463
 10
2972.610438610706
 20
219.34278207236312
 10
2974.33330451231
 20
216.51235951972748
 10
3004.33330451231
 20
216.51235951972748
 10
3005.999971178977
 20
213.77426428163216
 10
3020.9999711789765
 20
213.77426428163216
 10
3022.6666378456434
 20
211.03616904353694
 10
3039.33330451231
 20
211.03616904353694
 10
3041.8941740775276
 20
206.8290261863941
 10
3036.894174077527
 20
198.61474047210837
 10
3039.33330451231
 20
194.6075976149655
 10
3054.3333045123104
 20
194.6075976149655
 10
3055.999971178977
 20
191.8695023768703
 10
3067.6666378456434
 20
191.8695023768703
 10
3069.3333045123104
 20
189.13140713877507
 10
3092.6666378456434
 20
189.13140713877507
 10
3094.3333045123104
 20
186.39331190067975
 10
3097.5542393757682
 20
186.39331190067975
 10
3100.8875727091013
 20
191.8695023768703
 10
3104.2209060424348
 20
191.8695023768703
 10
3105.8875727091013
 20
194.6075976149655
 10
3130.8875727091013
 20
194.6075976149655
 10
3132.554239375768
 20
197.3456928530608
 10
3144.2209060424348
 20
197.3456928530608
 10
3145.8875727091013
 20
200.083788091156
 10
3155.9079661098476
 20
200.083788091156
 10
3159.302636155934
 20
202.87226705758388
 10
3161.874058438477
 20
198.6477875934063
 10
3165.2073917718103
 20
168.5287399743587
 10
3166.8771052773727
 20
165.7856392152206
 10
3166.8771052773727
 20
154.82827045668623
 10
3173.5403436275474
 20
141.14483455900617
 10
3178.540534872268
 20
108.28643495084123
 10
3183.55177346415
 20
97.30943613052811
 10
3181.013710701944
 20
90.35997856734646
 10
3164.2209060424348
 20
90.35997856734646
 10
3162.554239375768
 20
93.09807380544177
 10
3154.2209060424348
 20
93.09807380544177
 10
3152.554239375768
 20
95.83616904353698
 10
3142.5542393757682
 20
95.83616904353698
 10
3140.8875727091013
 20
98.57426428163218
 10
3119.2209060424348
 20
98.57426428163218
 10
3117.554239375768
 20
101.31235951972751
 10
3109.2209060424348
 20
101.31235951972751
 10
3107.5542393757682
 20
104.0504547578227
 10
3104.343481255191
 20
104.0504547578227
 10
3096.8736765419335
 20
86.32448960493466
 10
3093.5390458547763
 20
67.15036315377887
 10
3089.3329157060143
 20
60.24029219509819
 10
2968.3871863705554
 20
61.61061326638673
 10
2965.011569630243
 20
67.15626933975727
  0
LWPOLYLINE
  5
59
330
17
100
AcDbEntity
  8
K
100
AcDbPolyline
 90
127
 70
1
 10
3563.336198655362
 20
48.029505603090385
 10
3573.3290058406915
 20
67.18238604163895
 10
3571.6771052773724
 20
69.89622268137741
 10
3571.6771052773724
 20
86.32479410994887
 10
3570.010438610706
 20
89.06288934804407
 10
3570.010438610706
 20
105.49146077661553
 10
3567.554239375768
 20
109.52664523401312
 10
3519.220906042435
 20
109.52664523401312
 10
3517.5542393757682
 20
112.26474047210844
 10
3510.907966109848
 20
112.26474047210844
 10
3497.5746327765146
 20
123.21712142448938
 10
3485.913855495419
 20
123.21712142448938
 10
3477.5805221620853
 20
128.6933119006798
 10
3465.8875727091013
 20
128.6933119006798
 10
3464.2209060424348
 20
131.4314071387751
 10
3457.5542393757682
 20
131.4314071387751
 10
3455.8875727091017
 20
134.1695023768703
 10
3447.5542393757682
 20
134.1695023768703
 10
3445.010438610706
 20
138.34860363375833
 10
3445.010438610706
 20
174.00871260148122
 10
3450.8858755195533
 20
180.90335795369995
 10
3467.54419146712
 20
186.37680462218609
 10
3469.9980515719253
 20
190.40814622293811
 10
3444.9980515719253
 20
247.90814622293811
 10
3457.5542393757682
 20
268.5361690435369
 10
3460.987879870147
 20
268.5361690435369
 10
3465.987879870147
 20
263.05997856734655
 10
3475.9795777782306
 20
263.05997856734655
 10
3482.646244444897
 20
257.583788091156
 10
3490.9999711789774
 20
257.583788091156
 10
3492.666637845644
 20
254.8456928530608
 10
3495.872025351924
 20
254.8456928530608
 10
3500.019257822119
 20
267.1096517292084
 10
3504.98385192251
 20
275.2657706084227
 10
3492.5694380511386
 20
287.5028357102036
 10
3485.8996640179316
 20
287.5028357102036
 10
3480.8876210211756
 20
292.99221613522195
 10
3464.2209543545086
 20
298.4684066114124
 10
3459.2329973512647
 20
303.9314071387751
 10
3452.5677096501595
 20
303.9314071387751
 10
3443.3140632570994
 20
313.60567382242834
 10
3454.2258556032466
 20
328.77426428163227
 10
3470.8875727091017
 20
328.77426428163227
 10
3472.5542393757682
 20
331.51235951972745
 10
3479.220906042435
 20
331.51235951972745
 10
3480.8875727091017
 20
334.2504547578227
 10
3494.2209060424348
 20
334.2504547578227
 10
3498.3458800086137
 20
341.027197702259
 10
3500.0125466752806
 20
362.931959607021
 10
3501.6771052773724
 20
365.6665915961727
 10
3501.6771052773724
 20
376.6189725485536
 10
3504.2209060424348
 20
380.79807380544173
 10
3512.5542393757682
 20
380.79807380544173
 10
3514.2175007912942
 20
383.5305747023772
 10
3540.9963641376376
 20
386.28019013526074
 10
3548.5324199604365
 20
373.8995269978065
 10
3562.6751027451546
 20
342.4647404721084
 10
3567.6666378456434
 20
342.4647404721084
 10
3569.3333045123104
 20
339.7266452340132
 10
3585.999971178977
 20
339.7266452340132
 10
3587.666637845644
 20
336.9885499959179
 10
3594.3333045123104
 20
336.9885499959179
 10
3595.999971178977
 20
334.2504547578227
 10
3612.5542393757682
 20
334.2504547578227
 10
3615.0145932527967
 20
338.292464698655
 10
3616.681259919463
 20
349.244845651036
 10
3620.8875727091017
 20
356.15521666258456
 10
3640.8875727091017
 20
356.15521666258456
 10
3642.5542393757682
 20
358.89331190067986
 10
3652.5542393757682
 20
358.89331190067986
 10
3654.2209060424348
 20
361.63140713877505
 10
3674.2209060424348
 20
361.63140713877505
 10
3675.8875727091013
 20
364.3695023768703
 10
3679.2209060424348
 20
364.3695023768703
 10
3681.673645231185
 20
368.39900247267474
 10
3680.0069785645187
 20
382.089478663151
 10
3689.2250424771664
 20
397.23344080535804
 10
3712.6705110724824
 20
394.4821868375403
 10
3714.3333045123104
 20
391.75045475782264
 10
3739.3333045123104
 20
391.75045475782264
 10
3740.9999711789774
 20
389.01235951972745
 10
3749.33330451231
 20
389.01235951972745
 10
3751.8771052773727
 20
384.8332582628393
 10
3751.8771052773727
 20
365.6665915961727
 10
3755.2104386107053
 20
360.19040111998214
 10
3755.2104386107053
 20
335.54754397712503
 10
3756.8771052773723
 20
332.80944873902973
 10
3756.8771052773723
 20
327.2771750623299
 10
3754.33330451231
 20
323.09807380544174
 10
3750.999971178977
 20
323.09807380544174
 10
3749.33330451231
 20
320.35997856734656
 10
3740.9736883926603
 20
320.35997856734656
 10
3732.6403550593263
 20
314.883788091156
 10
3722.6462444448975
 20
314.883788091156
 10
3715.9795777782306
 20
309.4075976149656
 10
3707.6666378456434
 20
309.4075976149656
 10
3703.5422333491138
 20
302.6317902278095
 10
3701.8755666824472
 20
272.5127426087619
 10
3700.2104386107058
 20
269.7771750623299
 10
3700.2104386107058
 20
261.56288934804417
 10
3697.676685754292
 20
257.4002953696497
 10
3689.3433524209586
 20
254.6622001315545
 10
3687.6666378456434
 20
251.90759761496562
 10
3675.9795777782306
 20
251.90759761496562
 10
3669.312911111564
 20
246.43140713877509
 10
3657.666637845644
 20
246.43140713877509
 10
3655.9999711789774
 20
243.69331190067987
 10
3652.666637845644
 20
243.69331190067987
 10
3648.543771944039
 20
236.92003220518697
 10
3648.543771944039
 20
190.42849635807747
 10
3650.999971178977
 20
186.39331190067975
 10
3697.6760032733496
 20
186.39331190067975
 10
3701.874613995164
 20
176.73650724050583
 10
3703.5404276132426
 20
163.05303823486295
 10
3705.210438610706
 20
160.30944873902985
 10
3705.210438610706
 20
152.09516302474412
 10
3710.207094279909
 20
143.88637156819627
 10
3711.882603669498
 20
130.12325872514418
 10
3704.3158793226935
 20
123.21712142448938
 10
3699.327347759487
 20
123.21712142448938
 10
3690.2242592586485
 20
110.98115181621893
 10
3693.542592053824
 20
102.80383171382124
 10
3696.87541439282
 20
48.05032185889013
 10
3698.560840744194
 20
45.281407138775045
 10
3695.9996121762965
 20
41.07367449151411
 10
3565.036109514129
 20
42.44408420999912
 10
3563.336198655362
 20
48.029505603090385
  0
LWPOLYLINE
  5
5A
330
17
100
AcDbEntity
  8
K
100
AcDbPolyline
 90
17
 70
1
 10
3655.8875727091017
 20
498.3361690435369
 10
3651.6804496081695
 20
505.24787128078253
 10
3650.012778161861
 20
518.9466010183173
 10
3646.6771052773724
 20
527.1666520550921
 10
3646.6771052773724
 20
535.372413157568
 10
3643.333333333334
 20
540.8657527799176
 10
3645.8738331861337
 20
547.8218833292511
 10
3719.3333045123104
 20
547.8218833292511
 10
3721.8894923161533
 20
543.6224319372237
 10
3717.696696502399
 20
533.9790015655896
 10
3711.01323214812
 20
525.7440187004961
 10
3696.0188324625915
 20
514.7957268666179
 10
3692.6666378456434
 20
509.2885499959179
 10
3689.3212132034805
 20
509.2885499959179
 10
3674.293454062957
 20
492.8295756991544
 10
3665.913855495419
 20
498.3361690435369
 10
3655.8875727091017
 20
498.3361690435369
  0
LWPOLYLINE
  5
5B
330
17
100
AcDbEntity
  8
K
100
AcDbPolyline
 90
9
 70
1
 10
3551.6655257949064
 20
543.6237586368833
 10
3554.2209060424348
 20
547.8218833292511
 10
3620.999971178977
 20
547.8218833292511
 10
3623.5557870804028
 20
543.6230429197662
 10
3616.0132968133375
 20
525.7245937939537
 10
3592.670511072482
 20
522.9853893447716
 10
3591.00155510802
 20
520.243533117441
 10
3561.711067589891
 20
518.8686734992432
 10
3551.6655257949064
 20
543.6237586368833
  0
LWPOLYLINE
  5
5C
330
17
100
AcDbEntity
  8
K
100
AcDbPolyline
 90
10
 70
1
 10
4179.244482646953
 20
156.07426428163217
 10
4175.901042983492
 20
156.07426428163217
 10
4166.653236221201
 20
165.74242589675558
 10
4192.552425319624
 20
211.03616904353694
 10
4194.340194300415
 20
211.03616904353694
 10
4218.5573250720445
 20
160.2756313916721
 10
4216.010019087625
 20
156.09077156012597
 10
4199.333256200235
 20
150.6112637542696
 10
4194.29052098087
 20
145.08826803782014
 10
4179.244482646953
 20
156.07426428163217
  0
LWPOLYLINE
  5
5D
330
17
100
AcDbEntity
  8
K
100
AcDbPolyline
 90
15
 70
1
 10
4970.899664017931
 20
399.76474047210843
 10
4962.580522162085
 20
399.76474047210843
 10
4954.247188828752
 20
405.2409309482989
 10
4947.566330684598
 20
405.2409309482989
 10
4942.559319538491
 20
410.72480029879745
 10
4927.556098804213
 20
413.46348344870523
 10
4920.896141413239
 20
421.6695023768703
 10
4917.554239375768
 20
421.6695023768703
 10
4911.660036477218
 20
431.35283571020364
 10
4914.220906042434
 20
435.5599785673465
 10
5002.666637845643
 20
435.5599785673465
 10
5005.229578266558
 20
431.3494335901294
 10
4991.022215656781
 20
410.75472728604154
 10
4975.943771944038
 20
394.24024131494264
 10
4970.899664017931
 20
399.76474047210843
  0
LWPOLYLINE
  5
5E
330
17
100
AcDbEntity
  8
K
100
AcDbPolyline
 90
22
 70
1
 10
4906.677105277373
 20
75.32120699919209
 10
4906.677105277373
 20
195.9558929926437
 10
4912.546802404334
 20
197.33347497142063
 10
4915.879021475574
 20
202.80783487417065
 10
4925.889442398329
 20
205.54878346016292
 10
4930.89966401793
 20
211.03616904353694
 10
4937.666637845643
 20
211.03616904353694
 10
4941.012125643564
 20
205.5400105183821
 10
4947.678792310229
 20
202.8019152802869
 10
4953.561589388986
 20
193.13732007947226
 10
4916.877105277372
 20
135.60937908625826
 10
4916.877105277372
 20
132.92849635807747
 10
4919.333304512311
 20
128.89331190067978
 10
4924.312911111563
 20
128.89331190067978
 10
4934.312911111563
 20
120.67902618639414
 10
4937.656606164431
 20
120.67902618639414
 10
4943.54377194404
 20
113.7706173633859
 10
4943.54377194404
 20
86.31600643797388
 10
4937.656606164431
 20
79.40759761496552
 10
4920.97368839266
 20
79.40759761496552
 10
4912.6294356238095
 20
73.92423150972205
 10
4906.677105277373
 20
75.32120699919209
  0
LWPOLYLINE
  5
5F
330
17
100
AcDbEntity
  8
K
100
AcDbPolyline
 90
16
 70
1
 10
4930.067302365128
 20
225.9030995194129
 10
4920.910554190794
 20
232.74093094829885
 10
4917.554239375768
 20
232.74093094829885
 10
4914.220906042434
 20
238.21712142448936
 10
4910.902771384471
 20
238.21712142448936
 10
4906.676374963846
 20
242.38314075339073
 10
4907.51216261941
 20
290.4409309482989
 10
4922.554239375767
 20
290.4409309482989
 10
4924.220906042434
 20
293.17902618639414
 10
4927.666637845643
 20
293.17902618639414
 10
4931.86828606596
 20
286.2763183958751
 10
4940.203130768504
 20
261.62899191835186
 10
4946.885608216559
 20
247.90604715895114
 10
4941.8676533197295
 20
234.16640875096405
 10
4935.991499098817
 20
224.51272681660816
 10
4930.067302365128
 20
225.9030995194129
  0
LWPOLYLINE
  5
60
330
17
100
AcDbEntity
  8
K
100
AcDbPolyline
 90
10
 70
1
 10
4906.674010769505
 20
1.3768918964106591
 10
4907.513590967964
 20
27.583788091156023
 10
4912.666637845643
 20
27.583788091156023
 10
4914.33330451231
 20
24.845692853060818
 10
4935.999971178976
 20
24.845692853060818
 10
4938.552480763105
 20
20.652284250562424
 10
4936.877105277372
 20
15.147479083151062
 10
4936.877105277372
 20
4.181936967091682
 10
4934.3315784278375
 20
0.0
 10
4906.674010769505
 20
1.3768918964106591
  0
ENDSEC
  0
SECTION
  2
OBJECTS
  0
DICTIONARY
  5
A
330
0
100
AcDbDictionary
281
1
  3
ACAD_COLOR
350
B
  3
ACAD_GROUP
350
C
  3
ACAD_LAYOUT
350
D
  3
ACAD_MATERIAL
350
E
  3
ACAD_MLEADERSTYLE
350
F
  3
ACAD_MLINESTYLE
350
10
  3
ACAD_PLOTSETTINGS
350
11
  3
ACAD_PLOTSTYLENAME
350
12
  3
ACAD_SCALELIST
350
14
  3
ACAD_TABLESTYLE
350
15
  3
ACAD_VISUALSTYLE
350
16
  3
EZDXF_META
350
2D
  0
DICTIONARY
  5
B
330
A
100
AcDbDictionary
281
1
  0
DICTIONARY
  5
C
330
A
100
AcDbDictionary
281
1
  0
DICTIONARY
  5
D
330
A
100
AcDbDictionary
281
1
  3
Model
350
1A
  3
Layout1
350
1E
  0
DICTIONARY
  5
E
330
A
100
AcDbDictionary
281
1
  3
ByBlock
350
1F
  3
ByLayer
350
20
  3
Global
350
21
  0
DICTIONARY
  5
F
330
A
100
AcDbDictionary
281
1
  3
Standard
350
2C
  0
DICTIONARY
  5
10
330
A
100
AcDbDictionary
281
1
  3
Standard
350
22
  0
DICTIONARY
  5
11
330
A
100
AcDbDictionary
281
1
  0
ACDBDICTIONARYWDFLT
  5
12
330
A
100
AcDbDictionary
281
1
  3
Normal
350
13
100
AcDbDictionaryWithDefault
340
13
  0
ACDBPLACEHOLDER
  5
13
330
12
  0
DICTIONARY
  5
14
330
A
100
AcDbDictionary
281
1
  0
DICTIONARY
  5
15
330
A
100
AcDbDictionary
281
1
  0
DICTIONARY
  5
16
330
A
100
AcDbDictionary
281
1
  0
LAYOUT
  5
1A
330
D
100
AcDbPlotSettings
  1

  4
A3
  6

 40
7.5
 41
20.0
 42
7.5
 43
20.0
 44
420.0
 45
297.0
 46
0.0
 47
0.0
 48
0.0
 49
0.0
140
0.0
141
0.0
142
1.0
143
1.0
 70
1024
 72
1
 73
0
 74
5
  7

 75
16
 76
0
 77
2
 78
300
147
1.0
148
0.0
149
0.0
100
AcDbLayout
  1
Model
 70
1
 71
0
 10
0.0
 20
0.0
 11
420.0
 21
297.0
 12
0.0
 22
0.0
 32
0.0
 14
1e+20
 24
1e+20
 34
1e+20
 15
-1e+20
 25
-1e+20
 35
-1e+20
146
0.0
 13
0.0
 23
0.0
 33
0.0
 16
1.0
 26
0.0
 36
0.0
 17
0.0
 27
1.0
 37
0.0
 76
1
330
17
  0
LAYOUT
  5
1E
330
D
100
AcDbPlotSettings
  1

  4
A3
  6

 40
7.5
 41
20.0
 42
7.5
 43
20.0
 44
420.0
 45
297.0
 46
0.0
 47
0.0
 48
0.0
 49
0.0
140
0.0
141
0.0
142
1.0
143
1.0
 70
0
 72
1
 73
0
 74
5
  7

 75
16
 76
0
 77
2
 78
300
147
1.0
148
0.0
149
0.0
100
AcDbLayout
  1
Layout1
 70
1
 71
1
 10
0.0
 20
0.0
 11
420.0
 21
297.0
 12
0.0
 22
0.0
 32
0.0
 14
1e+20
 24
1e+20
 34
1e+20
 15
-1e+20
 25
-1e+20
 35
-1e+20
146
0.0
 13
0.0
 23
0.0
 33
0.0
 16
1.0
 26
0.0
 36
0.0
 17
0.0
 27
1.0
 37
0.0
 76
1
330
1B
  0
MATERIAL
  5
1F
102
{ACAD_REACTORS
330
E
102
}
330
E
100
AcDbMaterial
  1
ByBlock
  2

 70
0
 40
1.0
 71
1
 41
1.0
 91
-1023410177
 42
1.0
 72
1
  3

 73
1
 74
1
 75
1
 44
0.5
 73
0
 45
1.0
 46
1.0
 77
1
  4

 78
1
 79
1
170
1
 48
1.0
171
1
  6

172
1
173
1
174
1
140
1.0
141
1.0
175
1
  7

176
1
177
1
178
1
143
1.0
179
1
  8

270
1
271
1
272
1
145
1.0
146
1.0
273
1
  9

274
1
275
1
276
1
 42
1.0
 72
1
  3

 73
1
 74
1
 75
1
 94
63
  0
MATERIAL
  5
20
102
{ACAD_REACTORS
330
E
102
}
330
E
100
AcDbMaterial
  1
ByLayer
  2

 70
0
 40
1.0
 71
1
 41
1.0
 91
-1023410177
 42
1.0
 72
1
  3

 73
1
 74
1
 75
1
 44
0.5
 73
0
 45
1.0
 46
1.0
 77
1
  4

 78
1
 79
1
170
1
 48
1.0
171
1
  6

172
1
173
1
174
1
140
1.0
141
1.0
175
1
  7

176
1
177
1
178
1
143
1.0
179
1
  8

270
1
271
1
272
1
145
1.0
146
1.0
273
1
  9

274
1
275
1
276
1
 42
1.0
 72
1
  3

 73
1
 74
1
 75
1
 94
63
  0
MATERIAL
  5
21
102
{ACAD_REACTORS
330
E
102
}
330
E
100
AcDbMaterial
  1
Global
  2

 70
0
 40
1.0
 71
1
 41
1.0
 91
-1023410177
 42
1.0
 72
1
  3

 73
1
 74
1
 75
1
 44
0.5
 73
0
 45
1.0
 46
1.0
 77
1
  4

 78
1
 79
1
170
1
 48
1.0
171
1
  6

172
1
173
1
174
1
140
1.0
141
1.0
175
1
  7

176
1
177
1
178
1
143
1.0
179
1
  8

270
1
271
1
272
1
145
1.0
146
1.0
273
1
  9

274
1
275
1
276
1
 42
1.0
 72
1
  3

 73
1
 74
1
 75
1
 94
63
  0
MLINESTYLE
  5
22
102
{ACAD_REACTORS
330
10
102
}
330
10
100
AcDbMlineStyle
  2
Standard
 70
0
  3

 62
256
 51
90.0
 52
90.0
 71
2
 49
0.5
 62
256
  6
BYLAYER
 49
-0.5
 62
256
  6
BYLAYER
  0
MLEADERSTYLE
  5
2C
102
{ACAD_REACTORS
330
F
102
}
330
F
100
AcDbMLeaderStyle
179
2
170
2
171
1
172
0
 90
2
 40
0.0
 41
0.0
173
1
 91
-1056964608
 92
-2
290
1
 42
2.0
291
1
 43
8.0
  3
Standard
 44
4.0
300

342
29
174
1
175
1
176
0
178
1
 93
-1056964608
 45
4.0
292
0
297
0
 46
4.0
 94
-1056964608
 47
1.0
 49
1.0
140
1.0
294
1
141
0.0
177
0
142
1.0
295
0
296
0
143
3.75
271
0
272
9
273
9
  0
DICTIONARY
  5
2D
330
A
100
AcDbDictionary
280
1
281
1
  3
CREATED_BY_EZDXF
350
2E
  3
WRITTEN_BY_EZDXF
350
63
  0
DICTIONARYVAR
  5
2E
330
2D
100
DictionaryVariables
280
0
  1
1.4.4 @ 2026-07-21T08:35:07.628942+00:00
  0
DICTIONARYVAR
  5
63
330
2D
100
DictionaryVariables
280
0
  1
1.4.4 @ 2026-07-21T08:35:07.638630+00:00
  0
ENDSEC
  0
EOF
