  0
SECTION
  2
HEADER
  9
$ACADVER
  1
AC1027
  9
$ACADMAINTVER
 70
105
  9
$DWGCODEPAGE
  3
ANSI_1252
  9
$LASTSAVEDBY
  1
ezdxf
  9
$REQUIREDVERSIONS
160
0
  9
$INSBASE
 10
0.0
 20
0.0
 30
0.0
  9
$EXTMIN
 10
1e+20
 20
1e+20
 30
1e+20
  9
$EXTMAX
 10
-1e+20
 20
-1e+20
 30
-1e+20
  9
$LIMMIN
 10
0.0
 20
0.0
  9
$LIMMAX
 10
420.0
 20
297.0
  9
$ORTHOMODE
 70
0
  9
$REGENMODE
 70
1
  9
$FILLMODE
 70
1
  9
$QTEXTMODE
 70
0
  9
$MIRRTEXT
 70
1
  9
$LTSCALE
 40
1.0
  9
$ATTMODE
 70
1
  9
$TEXTSIZE
 40
2.5
  9
$TRACEWID
 40
1.0
  9
$TEXTSTYLE
  7
Standard
  9
$CLAYER
  8
0
  9
$CELTYPE
  6
ByLayer
  9
$CECOLOR
 62
256
  9
$CELTSCALE
 40
1.0
  9
$DISPSILH
 70
0
  9
$DIMSCALE
 40
1.0
  9
$DIMASZ
 40
2.5
  9
$DIMEXO
 40
0.625
  9
$DIMDLI
 40
3.75
  9
$DIMRND
 40
0.0
  9
$DIMDLE
 40
0.0
  9
$DIMEXE
 40
1.25
  9
$DIMTP
 40
0.0
  9
$DIMTM
 40
0.0
  9
$DIMTXT
 40
2.5
  9
$DIMCEN
 40
2.5
  9
$DIMTSZ
 40
0.0
  9
$DIMTOL
 70
0
  9
$DIMLIM
 70
0
  9
$DIMTIH
 70
0
  9
$DIMTOH
 70
0
  9
$DIMSE1
 70
0
  9
$DIMSE2
 70
0
  9
$DIMTAD
 70
1
  9
$DIMZIN
 70
8
  9
$DIMBLK
  1

  9
$DIMASO
 70
1
  9
$DIMSHO
 70
1
  9
$DIMPOST
  1

  9
$DIMAPOST
  1

  9
$DIMALT
 70
0
  9
$DIMALTD
 70
3
  9
$DIMALTF
 40
0.03937007874
  9
$DIMLFAC
 40
1.0
  9
$DIMTOFL
 70
1
  9
$DIMTVP
 40
0.0
  9
$DIMTIX
 70
0
  9
$DIMSOXD
 70
0
  9
$DIMSAH
 70
0
  9
$DIMBLK1
  1

  9
$DIMBLK2
  1

  9
$DIMSTYLE
  2
ISO-25
  9
$DIMCLRD
 70
0
  9
$DIMCLRE
 70
0
  9
$DIMCLRT
 70
0
  9
$DIMTFAC
 40
1.0
  9
$DIMGAP
 40
0.625
  9
$DIMJUST
 70
0
  9
$DIMSD1
 70
0
  9
$DIMSD2
 70
0
  9
$DIMTOLJ
 70
0
  9
$DIMTZIN
 70
8
  9
$DIMALTZ
 70
0
  9
$DIMALTTZ
 70
0
  9
$DIMUPT
 70
0
  9
$DIMDEC
 70
2
  9
$DIMTDEC
 70
2
  9
$DIMALTU
 70
2
  9
$DIMALTTD
 70
3
  9
$DIMTXSTY
  7
Standard
  9
$DIMAUNIT
 70
0
  9
$DIMADEC
 70
0
  9
$DIMALTRND
 40
0.0
  9
$DIMAZIN
 70
0
  9
$DIMDSEP
 70
44
  9
$DIMATFIT
 70
3
  9
$DIMFRAC
 70
0
  9
$DIMLDRBLK
  1

  9
$DIMLUNIT
 70
2
  9
$DIMLWD
 70
-2
  9
$DIMLWE
 70
-2
  9
$DIMTMOVE
 70
0
  9
$DIMFXL
 40
1.0
  9
$DIMFXLON
 70
0
  9
$DIMJOGANG
 40
0.785398163397
  9
$DIMTFILL
 70
0
  9
$DIMTFILLCLR
 70
0
  9
$DIMARCSYM
 70
0
  9
$DIMLTYPE
  6

  9
$DIMLTEX1
  6

  9
$DIMLTEX2
  6

  9
$DIMTXTDIRECTION
 70
0
  9
$LUNITS
 70
2
  9
$LUPREC
 70
4
  9
$SKETCHINC
 40
1.0
  9
$FILLETRAD
 40
10.0
  9
$AUNITS
 70
0
  9
$AUPREC
 70
2
  9
$MENU
  1
.
  9
$ELEVATION
 40
0.0
  9
$PELEVATION
 40
0.0
  9
$THICKNESS
 40
0.0
  9
$LIMCHECK
 70
0
  9
$CHAMFERA
 40
0.0
  9
$CHAMFERB
 40
0.0
  9
$CHAMFERC
 40
0.0
  9
$CHAMFERD
 40
0.0
  9
$SKPOLY
 70
0
  9
$TDCREATE
 40
2461243.4827199075
  9
$TDUCREATE
 40
2458532.153996898
  9
$TDUPDATE
 40
2461243.4827199075
  9
$TDUUPDATE
 40
2458532.1544311
  9
$TDINDWG
 40
0.0
  9
$TDUSRTIMER
 40
0.0
  9
$USRTIMER
 70
1
  9
$ANGBASE
 50
0.0
  9
$ANGDIR
 70
0
  9
$PDMODE
 70
0
  9
$PDSIZE
 40
0.0
  9
$PLINEWID
 40
0.0
  9
$SPLFRAME
 70
0
  9
$SPLINETYPE
 70
6
  9
$SPLINESEGS
 70
8
  9
$HANDSEED
  5
3F
  9
$SURFTAB1
 70
6
  9
$SURFTAB2
 70
6
  9
$SURFTYPE
 70
6
  9
$SURFU
 70
6
  9
$SURFV
 70
6
  9
$UCSBASE
  2

  9
$UCSNAME
  2

  9
$UCSORG
 10
0.0
 20
0.0
 30
0.0
  9
$UCSXDIR
 10
1.0
 20
0.0
 30
0.0
  9
$UCSYDIR
 10
0.0
 20
1.0
 30
0.0
  9
$UCSORTHOREF
  2

  9
$UCSORTHOVIEW
 70
0
  9
$UCSORGTOP
 10
0.0
 20
0.0
 30
0.0
  9
$UCSORGBOTTOM
 10
0.0
 20
0.0
 30
0.0
  9
$UCSORGLEFT
 10
0.0
 20
0.0
 30
0.0
  9
$UCSORGRIGHT
 10
0.0
 20
0.0
 30
0.0
  9
$UCSORGFRONT
 10
0.0
 20
0.0
 30
0.0
  9
$UCSORGBACK
 10
0.0
 20
0.0
 30
0.0
  9
$PUCSBASE
  2

  9
$PUCSNAME
  2

  9
$PUCSORG
 10
0.0
 20
0.0
 30
0.0
  9
$PUCSXDIR
 10
1.0
 20
0.0
 30
0.0
  9
$PUCSYDIR
 10
0.0
 20
1.0
 30
0.0
  9
$PUCSORTHOREF
  2

  9
$PUCSORTHOVIEW
 70
0
  9
$PUCSORGTOP
 10
0.0
 20
0.0
 30
0.0
  9
$PUCSORGBOTTOM
 10
0.0
 20
0.0
 30
0.0
  9
$PUCSORGLEFT
 10
0.0
 20
0.0
 30
0.0
  9
$PUCSORGRIGHT
 10
0.0
 20
0.0
 30
0.0
  9
$PUCSORGFRONT
 10
0.0
 20
0.0
 30
0.0
  9
$PUCSORGBACK
 10
0.0
 20
0.0
 30
0.0
  9
$USERI1
 70
0
  9
$USERI2
 70
0
  9
$USERI3
 70
0
  9
$USERI4
 70
0
  9
$USERI5
 70
0
  9
$USERR1
 40
0.0
  9
$USERR2
 40
0.0
  9
$USERR3
 40
0.0
  9
$USERR4
 40
0.0
  9
$USERR5
 40
0.0
  9
$WORLDVIEW
 70
1
  9
$SHADEDGE
 70
3
  9
$SHADEDIF
 70
70
  9
$TILEMODE
 70
1
  9
$MAXACTVP
 70
64
  9
$PINSBASE
 10
0.0
 20
0.0
 30
0.0
  9
$PLIMCHECK
 70
0
  9
$PEXTMIN
 10
1e+20
 20
1e+20
 30
1e+20
  9
$PEXTMAX
 10
-1e+20
 20
-1e+20
 30
-1e+20
  9
$PLIMMIN
 10
0.0
 20
0.0
  9
$PLIMMAX
 10
420.0
 20
297.0
  9
$UNITMODE
 70
0
  9
$VISRETAIN
 70
1
  9
$PLINEGEN
 70
0
  9
$PSLTSCALE
 70
1
  9
$TREEDEPTH
 70
3020
  9
$CMLSTYLE
  2
Standard
  9
$CMLJUST
 70
0
  9
$CMLSCALE
 40
20.0
  9
$PROXYGRAPHICS
 70
1
  9
$MEASUREMENT
 70
1
  9
$CELWEIGHT
370
-1
  9
$ENDCAPS
280
0
  9
$JOINSTYLE
280
0
  9
$LWDISPLAY
290
0
  9
$INSUNITS
 70
4
  9
$HYPERLINKBASE
  1

  9
$STYLESHEET
  1

  9
$XEDIT
290
1
  9
$CEPSNTYPE
380
0
  9
$PSTYLEMODE
290
1
  9
$FINGERPRINTGUID
  2
{1C71088F-C084-4C02-B90F-9BA8B348466D}
  9
$VERSIONGUID
  2
{7DC750D7-FCCA-4737-8471-828BA67F08E0}
  9
$EXTNAMES
290
1
  9
$PSVPSCALE
 40
0.0
  9
$OLESTARTUP
290
0
  9
$SORTENTS
280
127
  9
$INDEXCTL
280
0
  9
$HIDETEXT
280
1
  9
$XCLIPFRAME
280
1
  9
$HALOGAP
280
0
  9
$OBSCOLOR
 70
257
  9
$OBSLTYPE
280
0
  9
$INTERSECTIONDISPLAY
280
0
  9
$INTERSECTIONCOLOR
 70
257
  9
$DIMASSOC
280
2
  9
$PROJECTNAME
  1

  9
$CAMERADISPLAY
290
0
  9
$LENSLENGTH
 40
50.0
  9
$CAMERAHEIGHT
 40
0.0
  9
$STEPSPERSEC
 40
24.0
  9
$STEPSIZE
 40
100.0
  9
$3DDWFPREC
 40
2.0
  9
$PSOLWIDTH
 40
0.005
  9
$PSOLHEIGHT
 40
0.08
  9
$LOFTANG1
 40
1.570796326795
  9
$LOFTANG2
 40
1.570796326795
  9
$LOFTMAG1
 40
0.0
  9
$LOFTMAG2
 40
0.0
  9
$LOFTPARAM
 70
7
  9
$LOFTNORMALS
280
1
  9
$LATITUDE
 40
37.795
  9
$LONGITUDE
 40
-122.394
  9
$NORTHDIRECTION
 40
0.0
  9
$TIMEZONE
 70
-8000
  9
$LIGHTGLYPHDISPLAY
280
1
  9
$TILEMODELIGHTSYNCH
280
1
  9
$CMATERIAL
347
20
  9
$SOLIDHIST
280
0
  9
$SHOWHIST
280
1
  9
$DWFFRAME
280
2
  9
$DGNFRAME
280
2
  9
$REALWORLDSCALE
290
1
  9
$INTERFERECOLOR
 62
256
  9
$CSHADOW
280
0
  9
$SHADOWPLANELOCATION
 40
0.0
  0
ENDSEC
  0
SECTION
  2
CLASSES
  0
CLASS
  1
ACDBDICTIONARYWDFLT
  2
AcDbDictionaryWithDefault
  3
ObjectDBX Classes
 90
0
 91
0
280
0
281
0
  0
CLASS
  1
SUN
  2
AcDbSun
  3
SCENEOE
 90
1153
 91
0
280
0
281
0
  0
CLASS
  1
VISUALSTYLE
  2
AcDbVisualStyle
  3
ObjectDBX Classes
 90
4095
 91
0
280
0
281
0
  0
CLASS
  1
MATERIAL
  2
AcDbMaterial
  3
ObjectDBX Classes
 90
1153
 91
0
280
0
281
0
  0
CLASS
  1
SCALE
  2
AcDbScale
  3
ObjectDBX Classes
 90
1153
 91
0
280
0
281
0
  0
CLASS
  1
TABLESTYLE
  2
AcDbTableStyle
  3
ObjectDBX Classes
 90
4095
 91
0
280
0
281
0
  0
CLASS
  1
MLEADERSTYLE
  2
AcDbMLeaderStyle
  3
ACDB_MLEADERSTYLE_CLASS
 90
4095
 91
0
280
0
281
0
  0
CLASS
  1
DICTIONARYVAR
  2
AcDbDictionaryVar
  3
ObjectDBX Classes
 90
0
 91
0
280
0
281
0
  0
CLASS
  1
CELLSTYLEMAP
  2
AcDbCellStyleMap
  3
ObjectDBX Classes
 90
1152
 91
0
280
0
281
0
  0
CLASS
  1
MENTALRAYRENDERSETTINGS
  2
AcDbMentalRayRenderSettings
  3
SCENEOE
 90
1024
 91
0
280
0
281
0
  0
CLASS
  1
ACDBDETAILVIEWSTYLE
  2
AcDbDetailViewStyle
  3
ObjectDBX Classes
 90
1025
 91
0
280
0
281
0
  0
CLASS
  1
ACDBSECTIONVIEWSTYLE
  2
AcDbSectionViewStyle
  3
ObjectDBX Classes
 90
1025
 91
0
280
0
281
0
  0
CLASS
  1
RASTERVARIABLES
  2
AcDbRasterVariables
  3
ISM
 90
0
 91
0
280
0
281
0
  0
CLASS
  1
ACDBPLACEHOLDER
  2
AcDbPlaceHolder
  3
ObjectDBX Classes
 90
0
 91
0
280
0
281
0
  0
CLASS
  1
LAYOUT
  2
AcDbLayout
  3
ObjectDBX Classes
 90
0
 91
0
280
0
281
0
  0
ENDSEC
  0
SECTION
  2
TABLES
  0
TABLE
  2
VPORT
  5
8
330
0
100
AcDbSymbolTable
 70
1
  0
VPORT
  5
23
330
8
100
AcDbSymbolTableRecord
100
AcDbViewportTableRecord
  2
*Active
 70
0
 10
0.0
 20
0.0
 11
1.0
 21
1.0
 12
0.0
 22
0.0
 13
0.0
 23
0.0
 14
0.5
 24
0.5
 15
0.5
 25
0.5
 16
0.0
 26
0.0
 36
1.0
 17
0.0
 27
0.0
 37
0.0
 40
1000.0
 41
1.34
 42
50.0
 43
0.0
 44
0.0
 50
0.0
 51
0.0
 71
0
 72
1000
 73
1
 74
3
 75
0
 76
0
 77
0
 78
0
281
0
 65
0
146
0.0
  0
ENDTAB
  0
TABLE
  2
LTYPE
  5
2
330
0
100
AcDbSymbolTable
 70
3
  0
LTYPE
  5
24
330
2
100
AcDbSymbolTableRecord
100
AcDbLinetypeTableRecord
  2
ByBlock
 70
0
  3

 72
65
 73
0
 40
0.0
  0
LTYPE
  5
25
330
2
100
AcDbSymbolTableRecord
100
AcDbLinetypeTableRecord
  2
ByLayer
 70
0
  3

 72
65
 73
0
 40
0.0
  0
LTYPE
  5
26
330
2
100
AcDbSymbolTableRecord
100
AcDbLinetypeTableRecord
  2
Continuous
 70
0
  3

 72
65
 73
0
 40
0.0
  0
ENDTAB
  0
TABLE
  2
LAYER
  5
1
330
0
100
AcDbSymbolTable
 70
3
  0
LAYER
  5
27
330
1
100
AcDbSymbolTableRecord
100
AcDbLayerTableRecord
  2
0
 70
0
 62
7
  6
Continuous
370
-3
390
13
347
21
  0
LAYER
  5
28
330
1
100
AcDbSymbolTableRecord
100
AcDbLayerTableRecord
  2
Defpoints
 70
0
 62
7
  6
Continuous
290
0
370
-3
390
13
347
21
  0
LAYER
  5
2F
330
1
100
AcDbSymbolTableRecord
100
AcDbLayerTableRecord
  2
Y
 70
0
 62
7
  6
Continuous
370
-3
390
13
347
21
  0
ENDTAB
  0
TABLE
  2
STYLE
  5
5
330
0
100
AcDbSymbolTable
 70
1
  0
STYLE
  5
29
330
5
100
AcDbSymbolTableRecord
100
AcDbTextStyleTableRecord
  2
Standard
 70
0
 40
0.0
 41
1.0
 50
0.0
 71
0
 42
2.5
  3
txt
  4

  0
ENDTAB
  0
TABLE
  2
VIEW
  5
7
330
0
100
AcDbSymbolTable
 70
0
  0
ENDTAB
  0
TABLE
  2
UCS
  5
6
330
0
100
AcDbSymbolTable
 70
0
  0
ENDTAB
  0
TABLE
  2
APPID
  5
3
330
0
100
AcDbSymbolTable
 70
3
  0
APPID
  5
2A
330
3
100
AcDbSymbolTableRecord
100
AcDbRegAppTableRecord
  2
ACAD
 70
0
  0
APPID
  5
3C
330
3
100
AcDbSymbolTableRecord
100
AcDbRegAppTableRecord
  2
HATCHBACKGROUNDCOLOR
 70
0
  0
APPID
  5
3D
330
3
100
AcDbSymbolTableRecord
100
AcDbRegAppTableRecord
  2
EZDXF
 70
0
  0
ENDTAB
  0
TABLE
  2
DIMSTYLE
  5
4
330
0
100
AcDbSymbolTable
 70
1
100
AcDbDimStyleTable
  0
DIMSTYLE
105
2B
330
4
100
AcDbSymbolTableRecord
100
AcDbDimStyleTableRecord
  2
Standard
 70
0
 40
1.0
 41
2.5
 42
0.625
 43
3.75
 44
1.25
 45
0.0
 46
0.0
 47
0.0
 48
0.0
 49
2.5
140
2.5
141
2.5
142
0.0
143
0.03937007874
144
1.0
145
0.0
146
1.0
147
0.625
148
0.0
 69
0
 70
0
 71
0
 72
0
 73
0
 74
0
 75
0
 76
0
 77
1
 78
8
 79
3
170
0
171
3
172
1
173
0
174
0
175
0
176
0
177
0
178
0
179
2
271
2
272
2
273
2
274
3
275
0
276
0
277
2
278
44
279
0
280
0
281
0
282
0
283
0
284
8
285
0
286
0
288
0
289
3
290
0
371
-2
372
-2
  0
ENDTAB
  0
TABLE
  2
BLOCK_RECORD
  5
9
330
0
100
AcDbSymbolTable
 70
2
  0
BLOCK_RECORD
  5
17
330
9
100
AcDbSymbolTableRecord
100
AcDbBlockTableRecord
  2
*Model_Space
340
1A
 70
0
280
1
281
0
  0
BLOCK_RECORD
  5
1B
330
9
100
AcDbSymbolTableRecord
100
AcDbBlockTableRecord
  2
*Paper_Space
340
1E
 70
0
280
1
281
0
  0
ENDTAB
  0
ENDSEC
  0
SECTION
  2
BLOCKS
  0
BLOCK
  5
18
330
17
100
AcDbEntity
  8
0
100
AcDbBlockBegin
  2
*Model_Space
 70
0
 10
0.0
 20
0.0
 30
0.0
  3
*Model_Space
  1

  0
ENDBLK
  5
19
330
17
100
AcDbEntity
  8
0
100
AcDbBlockEnd
  0
BLOCK
  5
1C
330
1B
100
AcDbEntity
  8
0
100
AcDbBlockBegin
  2
*Paper_Space
 70
0
 10
0.0
 20
0.0
 30
0.0
  3
*Paper_Space
  1

  0
ENDBLK
  5
1D
330
1B
100
AcDbEntity
  8
0
100
AcDbBlockEnd
  0
ENDSEC
  0
SECTION
  2
ENTITIES
  0
LWPOLYLINE
  5
30
330
17
100
AcDbEntity
  8
Y
100
AcDbPolyline
 90
110
 70
1
 10
203.33995524425652
 20
321.7926251248417
 10
201.6732885775896
 20
330.0069108391275
 10
195.8782780563202
 20
339.52728526692766
 10
189.21161138965337
 20
339.52728526692766
 10
187.54494472298666
 20
342.26538050502296
 10
155.87827805632014
 20
342.26538050502296
 10
152.55341680314638
 20
347.7276525638084
 10
140.88675013647978
 20
344.98955732571324
 10
138.32289780879182
 20
349.2016004354861
 10
141.65623114212522
 20
357.41588614977184
 10
140.0011439579245
 20
360.13495795238725
 10
140.0011439579245
 20
373.8815173433728
 10
147.54494472298686
 20
386.2749043145467
 10
152.55497640419813
 20
386.2749043145467
 10
164.214427689354
 20
399.95691347569897
 10
192.53872819323203
 20
405.43135811090224
 10
194.20306015612599
 20
408.1656177642279
 10
204.20306015612599
 20
410.90371300232323
 10
207.54494472298668
 20
416.3939519335943
 10
219.2116113896534
 20
416.3939519335943
 10
223.3174084911025
 20
423.1391900288324
 10
220.87827805632008
 20
427.14633288597526
 10
214.2116113896535
 20
427.14633288597526
 10
212.5449447229868
 20
429.88442812407055
 10
180.87827805632006
 20
429.88442812407055
 10
177.54494472298677
 20
435.360618600261
 10
174.21161138965346
 20
435.360618600261
 10
172.54494472298677
 20
438.0987138383562
 10
160.87827805632006
 20
438.0987138383562
 10
159.21161138965346
 20
440.8368090764515
 10
155.87827805632014
 20
440.8368090764515
 10
153.32868186767956
 20
445.0254313863611
 10
154.99445359017915
 20
453.23530630439467
 10
144.2426142738158
 20
468.1815444749436
 10
136.00819838374022
 20
462.77035689003674
 10
129.29334150315265
 20
451.7388063004999
 10
125.96000816981923
 20
454.4769015385951
 10
115.99067652619554
 20
438.0987138383562
 10
105.99067652619554
 20
438.0987138383562
 10
104.32400985952883
 20
435.360618600261
 10
85.97028312544907
 20
435.360618600261
 10
82.57561307936312
 20
432.5721396338332
 10
79.21161138965348
 20
438.0987138383562
 10
75.98404551748928
 20
438.0987138383562
 10
67.63421121572544
 20
427.1246458988951
 10
60.97548951097265
 20
429.8594780276329
 10
59.3240098595289
 20
427.14633288597526
 10
55.898671457066506
 20
427.14633288597526
 10
52.60114395792448
 20
429.85501618884206
 10
49.257951452897245
 20
427.1088223454267
 10
39.28388699511065
 20
438.0327977039549
 10
35.218212758079574
 20
431.3534757431181
 10
37.65734319286218
 20
427.34633288597524
 10
40.99067652619559
 20
427.34633288597524
 10
44.30882284430593
 20
421.89509250622245
 10
50.975489510972636
 20
424.6331877443177
 10
54.3240098595289
 20
419.1320471716895
 10
57.6573431928622
 20
419.1320471716895
 10
61.86781062459112
 20
412.21485067670613
 10
61.86781062459112
 20
403.944481761911
 10
57.6573431928622
 20
397.02728526692766
 10
54.21161138965347
 20
397.02728526692766
 10
52.54494472298676
 20
399.76538050502296
 10
40.87827805632016
 20
399.76538050502296
 10
39.211611389653456
 20
402.5034757431182
 10
32.544944722986855
 20
402.5034757431182
 10
30.878278056320152
 20
405.2415709812134
 10
24.21161138965344
 20
405.2415709812134
 10
22.540455107109004
 20
407.9870420168222
 10
2.5404551071089854
 20
410.72513725491757
 10
0.0
 20
414.89874207373947
 10
1.6687414040529314
 20
456.02129810218594
 10
8.336458373938926
 20
469.71393116534466
 10
10.002427185569761
 20
488.87257249910044
 10
13.334477291257807
 20
499.8207371320754
 10
13.334477291257807
 20
508.0481840100395
 10
15.001143957924512
 20
510.7862792481348
 10
15.001143957924512
 20
516.2624697243252
 10
18.334477291257922
 20
521.7386602005157
 10
18.334477291257922
 20
527.2148506767062
 10
20.87827805632014
 20
531.3939519335943
 10
392.6573431928622
 20
531.3939519335943
 10
395.2011439579244
 20
527.2148506767064
 10
395.2011439579244
 20
335.49210080952986
 10
392.6573431928622
 20
331.31299955264194
 10
389.21161138965334
 20
331.31299955264194
 10
387.5449447229868
 20
334.05109479073724
 10
359.2116113896535
 20
334.05109479073724
 10
357.5449447229868
 20
336.7891900288325
 10
344.23200479039997
 20
336.7891900288325
 10
337.56533812373334
 20
342.26538050502296
 10
330.9906765261956
 20
342.26538050502296
 10
329.3240098595289
 20
339.52728526692766
 10
309.3240098595289
 20
339.52728526692766
 10
307.6573431928622
 20
336.7891900288325
 10
292.66541958296585
 20
336.7891900288325
 10
287.6717433692102
 20
325.85066117965334
 10
275.9981134976288
 20
323.1109317199965
 10
274.324009859529
 20
320.360618600261
 10
259.32400985952887
 20
320.360618600261
 10
257.65734319286213
 20
317.6225233621658
 10
250.99067652619556
 20
317.6225233621658
 10
249.32400985952884
 20
314.8844281240706
 10
240.99067652619556
 20
314.8844281240706
 10
239.32400985952884
 20
312.14633288597526
 10
220.87827805632008
 20
312.14633288597526
 10
219.2678106245911
 20
314.7921008095299
 10
216.00072443484385
 20
309.4247449263738
 10
211.7236458622005
 20
308.019419109648
 10
203.33995524425652
 20
321.7926251248417
  0
LWPOLYLINE
  5
31
330
17
100
AcDbEntity
  8
Y
100
AcDbPolyline
 90
5
 70
1
 10
109.26781062459123
 20
364.4624697243253
 10
111.88487942474623
 20
360.16299955264196
 10
109.26781062459123
 20
355.86352938095865
 10
106.65074182443612
 20
360.16299955264196
 10
109.26781062459123
 20
364.4624697243253
  0
LWPOLYLINE
  5
32
330
17
100
AcDbEntity
  8
Y
100
AcDbPolyline
 90
82
 70
1
 10
704.2116113896535
 20
342.26538050502296
 10
685.8782780563201
 20
342.26538050502296
 10
683.3257684721906
 20
346.4587891075214
 10
684.9924351388573
 20
351.9349795837119
 10
679.2116113896535
 20
361.43204717168965
 10
675.8842348091433
 20
361.43204717168965
 10
666.6772039575843
 20
373.8077314981355
 10
664.9924351388573
 20
379.343400473953
 10
666.6548223965507
 20
382.0744652544493
 10
661.6548223965508
 20
393.02684620683027
 10
664.2116113896534
 20
397.22728526692765
 10
667.6573431928622
 20
397.22728526692765
 10
670.2182127580796
 20
393.0201424097848
 10
668.5515460914129
 20
390.28204717168956
 10
670.9754895109726
 20
386.2998544109844
 10
677.6421561776392
 20
389.03794964907956
 10
680.2182127580796
 20
384.8058566954991
 10
675.2182127580796
 20
376.5915709812134
 10
677.6011439579245
 20
372.676755438611
 10
680.87827805632
 20
378.06061860026097
 10
687.6573431928622
 20
378.06061860026097
 10
690.9196475859399
 20
372.701118525919
 10
694.988756919144
 20
382.0600699922885
 10
692.5449447229868
 20
386.0749043145467
 10
689.2216430708648
 20
386.0749043145467
 10
677.5450167778948
 20
399.7770678216034
 10
667.554156740288
 20
402.51266045094815
 10
660.8986714570666
 20
407.97966621930857
 10
655.8782780563201
 20
407.97966621930857
 10
650.8782780563201
 20
416.1939519335943
 10
632.5449447229868
 20
416.1939519335943
 10
630.8782780563201
 20
418.93204717168953
 10
597.6310604065451
 20
418.93204717168953
 10
589.3415317170736
 20
413.4846426043225
 10
582.6011439579245
 20
402.41114842857775
 10
579.2678106245912
 20
407.8873389047681
 10
575.9344772912578
 20
402.41114842857775
 10
573.3174084911028
 20
406.71061860026106
 10
574.9840751577696
 20
409.44871383835624
 10
572.6137875001177
 20
413.3427578473554
 10
567.6654195829659
 20
402.5034757431182
 10
562.5449447229868
 20
402.5034757431182
 10
559.248061312593
 20
407.9197842030509
 10
555.2189295802901
 20
403.9482114954953
 10
558.5460567737239
 20
395.74921948310515
 10
556.8848794247463
 20
393.0201424097848
 10
558.5515460914129
 20
390.28204717168956
 10
555.9906765261956
 20
386.0749043145467
 10
552.5449447229868
 20
386.0749043145467
 10
549.2116113896535
 20
391.55109479073724
 10
539.3240098595289
 20
391.55109479073724
 10
537.6011439579245
 20
388.7206722381015
 10
530.9089464126965
 20
399.71499677669044
 10
527.575613079363
 20
396.9769015385951
 10
525.0011439579246
 20
401.2063865238158
 10
525.0011439579246
 20
414.9529459148015
 10
535.8782780563201
 20
432.8225233621658
 10
539.2116113896534
 20
432.8225233621658
 10
541.6743208080379
 20
436.86840312094
 10
548.3344772912578
 20
464.22261724845083
 10
548.3344772912578
 20
469.7076078005312
 10
552.5355792952811
 20
479.3701424097848
 10
745.9906765261954
 20
479.3701424097848
 10
748.5344772912579
 20
475.1910411528967
 10
748.5344772912579
 20
469.6755409452766
 10
743.5344772912578
 20
447.77077904051475
 10
743.5344772912578
 20
439.55288102082744
 10
740.2011439579246
 20
428.60050006844654
 10
740.2011439579246
 20
423.11613623473056
 10
733.5344772912578
 20
409.4256600442544
 10
733.5344772912578
 20
390.25400557143485
 10
731.8678106245911
 20
387.51591033333966
 10
731.8678106245911
 20
368.3624048303513
 10
730.2098527769919
 20
362.9148290453815
 10
731.8678106245911
 20
360.1910411528967
 10
731.8678106245911
 20
346.5005649624204
 10
733.5515460914128
 20
343.7344281240705
 10
730.9906765261956
 20
339.52728526692766
 10
722.6573431928622
 20
339.52728526692766
 10
720.9872865296014
 20
336.7836207487136
 10
706.7084002314547
 20
338.16351312206393
 10
704.2116113896535
 20
342.26538050502296
  0
LWPOLYLINE
  5
33
330
17
100
AcDbEntity
  8
Y
100
AcDbPolyline
 90
5
 70
1
 10
704.984553054169
 20
360.18035990719966
 10
700.9066599990095
 20
369.5595139340664
 10
695.2177348616798
 20
362.8837344361795
 10
699.2956279168394
 20
353.5045804093128
 10
704.984553054169
 20
360.18035990719966
  0
LWPOLYLINE
  5
34
330
17
100
AcDbEntity
  8
Y
100
AcDbPolyline
 90
10
 70
1
 10
1260.881497405213
 20
372.3941450325731
 10
1255.881497405213
 20
377.8703355087635
 10
1244.209055804808
 20
380.6097860884504
 10
1214.9808963720725
 20
420.39587249994935
 10
1217.5449447229867
 20
424.60823764788
 10
1292.6573431928623
 20
424.60823764788
 10
1295.2083990977403
 20
420.4172172327233
 10
1286.8594516123856
 20
387.4985100047539
 10
1272.6399459204943
 20
369.6345091565375
 10
1260.881497405213
 20
372.3941450325731
  0
LWPOLYLINE
  5
35
330
17
100
AcDbEntity
  8
Y
100
AcDbPolyline
 90
34
 70
1
 10
1953.3337325364012
 20
283.5231509603945
 10
1954.9840751577694
 20
286.2344281240705
 10
1953.3341970898118
 20
288.94494209285773
 10
1954.1688035078
 20
372.58442812407054
 10
1960.970283125449
 20
372.58442812407054
 10
1964.3408615212286
 20
369.8157387275373
 10
1992.6609685099938
 20
331.50029986038373
 10
2002.6554735036343
 20
328.7637092073632
 10
2007.645251884032
 20
323.29871383835626
 10
2012.6473115116505
 20
323.29871383835626
 10
2018.5344772912574
 20
316.3903050153479
 10
2018.5344772912574
 20
305.3730531904825
 10
2012.657343192862
 20
295.7177614574039
 10
2009.3240098595286
 20
295.7177614574039
 10
2005.9344772912575
 20
290.14924366667293
 10
2004.267810624591
 20
292.88733890476817
 10
2000.9702296744445
 20
287.4698844866701
 10
1995.9702296744442
 20
290.2079797247653
 10
1992.6011439579243
 20
284.6730531904825
 10
1989.267810624591
 20
290.14924366667293
 10
1987.6011439579245
 20
287.41114842857775
 10
1985.8782780563197
 20
290.2415709812134
 10
1977.5449447229864
 20
290.2415709812134
 10
1975.87827805632
 20
292.9796662193086
 10
1959.3377493824962
 20
292.9796662193086
 10
1956.8782492352966
 20
286.2453205781661
 10
1959.3444032602752
 20
282.19378182284424
 10
1962.601143957924
 20
279.51860196406096
 10
1969.2802244303512
 20
285.0049894949831
 10
1975.2267246206188
 20
278.02695355742424
 10
1959.2631381706944
 20
254.5616817456934
 10
1957.6011439579243
 20
257.29210080953015
 10
1954.176821603081
 20
251.6664283694301
 10
1953.3337325364012
 20
283.5231509603945
  0
LWPOLYLINE
  5
36
330
17
100
AcDbEntity
  8
Y
100
AcDbPolyline
 90
103
 70
1
 10
3255.8765995688877
 20
328.5776618296141
 10
3254.2116113896536
 20
331.31299955264194
 10
3239.2116113896536
 20
331.31299955264194
 10
3237.5449447229867
 20
334.05109479073724
 10
3230.990676526196
 20
334.05109479073724
 10
3227.6573431928623
 20
328.5749043145467
 10
3224.2116113896536
 20
328.5749043145467
 10
3222.544944722987
 20
331.31299955264194
 10
3210.87827805632
 20
331.31299955264194
 10
3209.211611389653
 20
334.05109479073724
 10
3180.87827805632
 20
334.05109479073724
 10
3179.2116113896536
 20
336.7891900288325
 10
3164.2116113896536
 20
336.7891900288325
 10
3162.544944722987
 20
339.52728526692766
 10
3150.9661498679893
 20
339.52728526692766
 10
3139.299483201323
 20
331.31299955264194
 10
3135.87827805632
 20
331.31299955264194
 10
3134.2116113896536
 20
334.05109479073724
 10
3124.2320047904004
 20
334.05109479073724
 10
3117.5653381237335
 20
339.52728526692766
 10
3105.978585217366
 20
339.52728526692766
 10
3100.978585217366
 20
334.05109479073724
 10
3092.6573431928628
 20
334.05109479073724
 10
3090.990676526196
 20
331.31299955264194
 10
3080.8782780563206
 20
331.31299955264194
 10
3079.2116113896536
 20
334.05109479073724
 10
3044.225081664045
 20
334.05109479073724
 10
3035.001143957925
 20
343.69430239259003
 10
3035.001143957925
 20
349.18257700000635
 10
3033.334477291258
 20
351.92067223810153
 10
3033.334477291258
 20
382.0397198571491
 10
3031.6678106245913
 20
384.77781509524436
 10
3031.6678106245913
 20
409.47176763245807
 10
3038.334477291258
 20
423.1622438229342
 10
3038.334477291258
 20
434.1196125814681
 10
3040.0044882887214
 20
436.86320207730114
 10
3043.3291354011026
 20
464.1728033575768
 10
3027.561182089295
 20
479.17014240978483
 10
3014.2116113896536
 20
479.17014240978483
 10
3012.544944722987
 20
481.90823764788007
 10
2985.87827805632
 20
481.90823764788007
 10
2983.3191924401945
 20
486.11244973151577
 10
3010.008405502278
 20
535.4398345873307
 10
3013.344868527461
 20
546.4024988129331
 10
3019.265224336992
 20
553.3498551200356
 10
3029.3119185506994
 20
542.3463328859752
 10
3032.6573431928623
 20
542.3463328859752
 10
3035.960008169819
 20
536.9205261381173
 10
3039.2320047904004
 20
539.6082376478801
 10
3050.87827805632
 20
539.6082376478801
 10
3052.544944722987
 20
542.3463328859752
 10
3079.2116113896536
 20
542.3463328859752
 10
3080.8782780563206
 20
545.0844281240705
 10
3090.9861129439632
 20
545.0844281240705
 10
3102.6527796106298
 20
528.6558566954991
 10
3110.87827805632
 20
528.6558566954991
 10
3112.5449447229867
 20
531.3939519335943
 10
3119.2116113896536
 20
531.3939519335943
 10
3120.8782780563206
 20
534.1320471716895
 10
3134.2116113896536
 20
534.1320471716895
 10
3135.87827805632
 20
536.8701424097848
 10
3142.544944722987
 20
536.8701424097848
 10
3144.211611389654
 20
539.6082376478801
 10
3150.87827805632
 20
539.6082376478801
 10
3152.5449447229867
 20
542.3463328859752
 10
3167.5449447229867
 20
542.3463328859752
 10
3169.211611389653
 20
545.0844281240705
 10
3172.6617624081077
 20
545.0844281240705
 10
3182.6617624081077
 20
525.9177614574039
 10
3187.6573431928623
 20
525.9177614574039
 10
3190.990676526196
 20
520.4415709812133
 10
3194.307394603718
 20
520.4415709812133
 10
3205.9740612703845
 20
509.4891900288324
 10
3209.324009859529
 20
509.4891900288324
 10
3212.6573431928628
 20
504.0129995526419
 10
3217.6452518840324
 20
504.0129995526419
 10
3222.5850675874053
 20
498.6027252108528
 10
3225.8782780563206
 20
504.0129995526419
 10
3230.891748330712
 20
504.0129995526419
 10
3240.0011439579253
 20
513.5364586174557
 10
3240.0011439579253
 20
529.9529459148017
 10
3242.544944722987
 20
534.1320471716895
 10
3249.23613804786
 20
534.1320471716895
 10
3260.902804714526
 20
542.3463328859752
 10
3267.560143398357
 20
542.3463328859752
 10
3275.8934767316905
 20
550.5606186002609
 10
3284.2320047904004
 20
550.5606186002609
 10
3290.898671457067
 20
556.0368090764515
 10
3297.569471381193
 20
556.0368090764515
 10
3309.224537450949
 20
564.2429270235248
 10
3319.213481078881
 20
566.977994921649
 10
3324.2237026984835
 20
572.4653805050228
 10
3332.5653381237335
 20
572.4653805050228
 10
3339.2320047904
 20
577.9415709812133
 10
3352.6573431928623
 20
577.9415709812133
 10
3355.2011439579246
 20
573.7624697243255
 10
3355.2011439579246
 20
340.9682912857204
 10
3352.6573431928623
 20
336.7891900288325
 10
3322.6573431928628
 20
336.7891900288325
 10
3320.990676526196
 20
334.05109479073724
 10
3315.990676526196
 20
334.05109479073724
 10
3310.9889504417242
 20
325.83397336624785
 10
3255.8765995688877
 20
328.5776618296141
  0
LWPOLYLINE
  5
37
330
17
100
AcDbEntity
  8
Y
100
AcDbPolyline
 90
56
 70
1
 10
3217.557036031817
 20
503.81299955264194
 10
3212.544944722987
 20
503.81299955264194
 10
3209.211611389653
 20
509.2891900288324
 10
3205.8948933121314
 20
509.2891900288324
 10
3194.228226645465
 20
520.2415709812134
 10
3190.87827805632
 20
520.2415709812134
 10
3187.5449447229867
 20
525.7177614574039
 10
3182.5405255077417
 20
525.7177614574039
 10
3172.5405255077417
 20
544.8844281240706
 10
3169.324009859529
 20
544.8844281240706
 10
3167.6573431928623
 20
542.1463328859752
 10
3152.6573431928623
 20
542.1463328859752
 10
3150.990676526196
 20
539.40823764788
 10
3144.3240098595293
 20
539.40823764788
 10
3142.6573431928623
 20
536.6701424097848
 10
3135.990676526196
 20
536.6701424097848
 10
3134.3240098595293
 20
533.9320471716895
 10
3120.990676526196
 20
533.9320471716895
 10
3119.324009859529
 20
531.1939519335943
 10
3112.6573431928623
 20
531.1939519335943
 10
3110.990676526196
 20
528.455856695499
 10
3102.5495083052197
 20
528.455856695499
 10
3090.8828416385527
 20
544.8844281240706
 10
3080.990676526196
 20
544.8844281240706
 10
3079.324009859529
 20
542.1463328859752
 10
3052.6573431928628
 20
542.1463328859752
 10
3050.990676526196
 20
539.40823764788
 10
3039.3036164587825
 20
539.40823764788
 10
3035.908946412697
 20
536.6197586814523
 10
3032.5327902584
 20
542.1663009349396
 10
3025.8713488900016
 20
544.902250068389
 10
3017.551575731693
 20
555.8368090764515
 10
3014.2116113896536
 20
555.8368090764515
 10
3009.199456925067
 20
564.0710628397015
 10
3002.522345861773
 20
566.813447740697
 10
2999.9907053472193
 20
573.7453205781661
 10
3002.544944722987
 20
577.9415709812133
 10
3322.6573431928628
 20
577.9415709812133
 10
3325.224177818445
 20
573.7246283820426
 10
3319.3239378046214
 20
566.8008773454128
 10
3309.3110837982335
 20
564.0592625579496
 10
3297.632816534656
 20
555.8368090764515
 10
3290.970283125449
 20
555.8368090764515
 10
3284.303616458782
 20
550.360618600261
 10
3275.9754778508254
 20
550.360618600261
 10
3267.642144517492
 20
542.1463328859752
 10
3260.9661498679893
 20
542.1463328859752
 10
3249.2994832013233
 20
533.9320471716895
 10
3242.6573431928623
 20
533.9320471716895
 10
3240.2011439579246
 20
529.8968627142918
 10
3240.2011439579246
 20
513.4682912857204
 10
3237.677736593609
 20
509.32269347291606
 10
3230.9702831254494
 20
503.81299955264194
 10
3225.990676526196
 20
503.81299955264194
 10
3222.617220328444
 20
498.2708929420502
 10
3217.557036031817
 20
503.81299955264194
  0
LWPOLYLINE
  5
38
330
17
100
AcDbEntity
  8
Y
100
AcDbPolyline
 90
111
 70
1
 10
3455.0205958625024
 20
302.58420571531053
 10
3451.6758217676997
 20
313.57417774108984
 10
3446.6764843201577
 20
321.7873749763381
 10
3436.6678106245913
 20
351.9325469403646
 10
3436.6678106245913
 20
357.4529459148015
 10
3439.1963058582182
 20
361.60690237004536
 10
3444.1963058582187
 20
364.34499760814055
 10
3448.3344772912583
 20
371.14342210527764
 10
3448.3344772912583
 20
423.11744342159875
 10
3443.3363470935733
 20
434.06572861652757
 10
3441.6687838577377
 20
453.2427058286358
 10
3436.6678106245913
 20
475.15173142146716
 10
3436.6678106245913
 20
483.3624048303513
 10
3433.325768472191
 20
494.34340047395295
 10
3435.934477291258
 20
498.62913639099196
 10
3437.6639199652222
 20
495.78790914090797
 10
3450.9972532985557
 20
493.0498139028128
 10
3452.6573431928628
 20
490.3225233621657
 10
3459.3119185506994
 20
490.3225233621657
 10
3464.3119185506994
 20
484.84633288597524
 10
3472.636949792116
 20
484.84633288597524
 10
3479.303616458783
 20
479.3701424097848
 10
3487.6654195829665
 20
479.3701424097848
 10
3492.6381246395395
 20
468.4775503811013
 10
3495.8986714570674
 20
471.1558566954991
 10
3505.8782780563206
 20
471.1558566954991
 10
3507.544944722987
 20
473.8939519335943
 10
3527.544944722987
 20
473.8939519335943
 10
3529.2116113896536
 20
476.6320471716895
 10
3535.8782780563206
 20
476.6320471716895
 10
3537.5449447229876
 20
479.3701424097848
 10
3555.8782780563206
 20
479.3701424097848
 10
3557.544944722987
 20
482.10823764788
 10
3567.544944722987
 20
482.10823764788
 10
3569.2116113896536
 20
484.84633288597524
 10
3575.9785852173663
 20
484.84633288597524
 10
3580.9785852173663
 20
479.3701424097848
 10
3585.9702831254494
 20
479.3701424097848
 10
3592.6369497921164
 20
473.8939519335943
 10
3599.3119185507
 20
473.8939519335943
 10
3604.3119185506994
 20
468.41776145740386
 10
3610.9702831254494
 20
468.41776145740386
 10
3617.636949792116
 20
462.9415709812134
 10
3622.565338123734
 20
462.9415709812134
 10
3629.2320047904
 20
468.41776145740386
 10
3640.898671457067
 20
468.41776145740386
 10
3647.5653381237335
 20
473.8939519335943
 10
3657.544944722987
 20
473.8939519335943
 10
3659.2422797460304
 20
476.68243090002204
 10
3662.636949792116
 20
473.8939519335943
 10
3672.6573431928628
 20
473.8939519335943
 10
3674.3240098595297
 20
471.1558566954991
 10
3677.6573431928628
 20
471.1558566954991
 10
3688.52899933826
 20
453.29527874234674
 10
3690.1956660049264
 20
445.080993028061
 10
3694.328168658026
 20
438.2918815265404
 10
3715.9948353246923
 20
435.5537862884451
 10
3717.6573431928628
 20
432.8225233621658
 10
3740.990676526196
 20
432.8225233621658
 10
3742.6573431928628
 20
430.08442812407054
 10
3754.3240098595297
 20
430.08442812407054
 10
3755.990676526196
 20
427.34633288597524
 10
3760.984719773373
 20
427.34633288597524
 10
3770.2062836026257
 20
414.95111397262906
 10
3763.5290559604764
 20
371.0721894670802
 10
3757.6473115116514
 20
364.17014240978483
 10
3747.5449447229876
 20
364.17014240978483
 10
3745.8782780563206
 20
366.90823764788007
 10
3720.8782780563206
 20
366.90823764788007
 10
3719.211611389654
 20
369.64633288597526
 10
3707.5449447229876
 20
369.64633288597526
 10
3705.8782780563206
 20
372.38442812407055
 10
3694.3240098595293
 20
372.38442812407055
 10
3686.8678106245916
 20
360.13495795238725
 10
3686.8678106245916
 20
349.2254990368374
 10
3688.5431861103257
 20
343.72069386942616
 10
3685.990676526196
 20
339.52728526692766
 10
3682.6573431928623
 20
339.52728526692766
 10
3680.990676526196
 20
336.7891900288325
 10
3660.990676526196
 20
336.7891900288325
 10
3659.3240098595293
 20
334.05109479073724
 10
3649.3240098595293
 20
334.05109479073724
 10
3647.6573431928628
 20
331.31299955264194
 10
3627.6573431928628
 20
331.31299955264194
 10
3623.5303226491674
 20
324.5328943737143
 10
3621.863655982501
 20
313.5805134213334
 10
3619.3240098595293
 20
309.40823764788007
 10
3602.544944722987
 20
309.40823764788007
 10
3600.8782780563206
 20
312.14633288597526
 10
3594.211611389654
 20
312.14633288597526
 10
3592.544944722987
 20
314.8844281240706
 10
3575.8782780563206
 20
314.8844281240706
 10
3574.2116113896536
 20
317.6225233621658
 10
3569.203146490143
 20
317.6225233621658
 10
3555.0124959415284
 20
349.16392731265825
 10
3547.544944722987
 20
361.43204717168965
 10
3535.990676526196
 20
361.43204717168965
 10
3534.327883086368
 20
358.70031509197185
 10
3510.9945497530343
 20
355.96221985387666
 10
3508.534477291258
 20
351.92067223810153
 10
3508.534477291258
 20
340.96829128572057
 10
3506.865702560018
 20
338.2267327986819
 10
3505.199035893351
 20
316.3219708939199
 10
3500.990676526196
 20
309.40823764788007
 10
3487.6573431928628
 20
309.40823764788007
 10
3485.9906765261962
 20
306.67014240978483
 10
3479.3240098595293
 20
306.67014240978483
 10
3477.6573431928628
 20
303.93204717168965
 10
3460.990676526196
 20
303.93204717168965
 10
3459.3119753869823
 20
301.17418101440995
 10
3455.0205958625024
 20
302.58420571531053
  0
LWPOLYLINE
  5
39
330
17
100
AcDbEntity
  8
Y
100
AcDbPolyline
 90
26
 70
1
 10
3445.0445636239638
 20
17.801720881990168
 10
3443.3344772912583
 20
20.611148428577586
 10
3443.3344772912583
 20
34.35770781956349
 10
3445.0011439579253
 20
37.09580305765869
 10
3445.0011439579253
 20
56.262469724325356
 10
3446.6678106245918
 20
59.00056496242057
 10
3446.6678106245918
 20
78.16723162908723
 10
3448.3344772912583
 20
80.90532686718255
 10
3448.3344772912583
 20
100.07199353384921
 10
3454.211611389654
 20
109.72728526692765
 10
3462.6573431928628
 20
109.72728526692765
 10
3464.3240098595293
 20
106.98919002883245
 10
3470.990676526196
 20
106.98919002883245
 10
3472.6573431928623
 20
104.25109479073713
 10
3484.297727073212
 20
104.25109479073713
 10
3492.6310604065457
 20
98.77490431454672
 10
3504.303616458783
 20
98.77490431454672
 10
3517.636949792116
 20
87.82252336216578
 10
3524.3240098595293
 20
87.82252336216578
 10
3525.9906765261962
 20
85.08442812407047
 10
3574.324009859529
 20
85.08442812407047
 10
3576.8665069128947
 20
80.90746867925635
 10
3578.533173579561
 20
45.31223058401823
 10
3580.214791849117
 20
42.54957199831999
 10
3567.6636972637893
 20
16.43134183742456
 10
3445.0445636239638
 20
17.801720881990168
  0
LWPOLYLINE
  5
3A
330
17
100
AcDbEntity
  8
Y
100
AcDbPolyline
 90
16
 70
1
 10
4920.078504408254
 20
1.3737159567257518
 10
4913.334477291258
 20
4.143584236920628
 10
4913.334477291258
 20
48.092544907040846
 10
4925.868230147672
 20
52.21077798843399
 10
4927.544944722987
 20
54.965380505022864
 10
4944.2320047903995
 20
54.965380505022864
 10
4947.646680117654
 20
57.77029238098152
 10
4950.211582568631
 20
50.74734519378443
 10
4948.534477291258
 20
47.99210080952998
 10
4948.534477291258
 20
31.56352938095852
 10
4946.867810624592
 20
28.825434142863315
 10
4946.867810624592
 20
12.396862714291856
 10
4945.201143957925
 20
9.658767476196651
 10
4945.201143957925
 20
4.182577000006238
 10
4942.655227523138
 20
0.0
 10
4920.078504408254
 20
1.3737159567257518
  0
LWPOLYLINE
  5
3B
330
17
100
AcDbEntity
  8
Y
100
AcDbPolyline
 90
17
 70
1
 10
4913.334477291258
 20
266.97603495016386
 10
4913.334477291258
 20
406.7698692659164
 10
4915.96194069446
 20
408.2087182724321
 10
4924.330939025847
 20
397.2094633226092
 10
4931.010004741176
 20
394.46627561809913
 10
4935.199061260102
 20
384.83144562457005
 10
4936.866648720883
 20
368.3937977968751
 10
4945.201143957925
 20
332.7935967129402
 10
4945.201143957925
 20
327.3338982957538
 10
4948.534477291258
 20
321.85770781956336
 10
4948.534477291258
 20
280.7301960476254
 10
4944.324009859529
 20
273.81299955264194
 10
4940.978585217365
 20
273.81299955264194
 10
4935.978585217365
 20
268.3368090764515
 10
4930.990676526196
 20
268.3368090764515
 10
4929.3209841349
 20
265.593743005037
 10
4913.334477291258
 20
266.97603495016386
  0
ENDSEC
  0
SECTION
  2
OBJECTS
  0
DICTIONARY
  5
A
330
0
100
AcDbDictionary
281
1
  3
ACAD_COLOR
350
B
  3
ACAD_GROUP
350
C
  3
ACAD_LAYOUT
350
D
  3
ACAD_MATERIAL
350
E
  3
ACAD_MLEADERSTYLE
350
F
  3
ACAD_MLINESTYLE
350
10
  3
ACAD_PLOTSETTINGS
350
11
  3
ACAD_PLOTSTYLENAME
350
12
  3
ACAD_SCALELIST
350
14
  3
ACAD_TABLESTYLE
350
15
  3
ACAD_VISUALSTYLE
350
16
  3
EZDXF_META
350
2D
  0
DICTIONARY
  5
B
330
A
100
AcDbDictionary
281
1
  0
DICTIONARY
  5
C
330
A
100
AcDbDictionary
281
1
  0
DICTIONARY
  5
D
330
A
100
AcDbDictionary
281
1
  3
Model
350
1A
  3
Layout1
350
1E
  0
DICTIONARY
  5
E
330
A
100
AcDbDictionary
281
1
  3
ByBlock
350
1F
  3
ByLayer
350
20
  3
Global
350
21
  0
DICTIONARY
  5
F
330
A
100
AcDbDictionary
281
1
  3
Standard
350
2C
  0
DICTIONARY
  5
10
330
A
100
AcDbDictionary
281
1
  3
Standard
350
22
  0
DICTIONARY
  5
11
330
A
100
AcDbDictionary
281
1
  0
ACDBDICTIONARYWDFLT
  5
12
330
A
100
AcDbDictionary
281
1
  3
Normal
350
13
100
AcDbDictionaryWithDefault
340
13
  0
ACDBPLACEHOLDER
  5
13
330
12
  0
DICTIONARY
  5
14
330
A
100
AcDbDictionary
281
1
  0
DICTIONARY
  5
15
330
A
100
AcDbDictionary
281
1
  0
DICTIONARY
  5
16
330
A
100
AcDbDictionary
281
1
  0
LAYOUT
  5
1A
330
D
100
AcDbPlotSettings
  1

  4
A3
  6

 40
7.5
 41
20.0
 42
7.5
 43
20.0
 44
420.0
 45
297.0
 46
0.0
 47
0.0
 48
0.0
 49
0.0
140
0.0
141
0.0
142
1.0
143
1.0
 70
1024
 72
1
 73
0
 74
5
  7

 75
16
 76
0
 77
2
 78
300
147
1.0
148
0.0
149
0.0
100
AcDbLayout
  1
Model
 70
1
 71
0
 10
0.0
 20
0.0
 11
420.0
 21
297.0
 12
0.0
 22
0.0
 32
0.0
 14
1e+20
 24
1e+20
 34
1e+20
 15
-1e+20
 25
-1e+20
 35
-1e+20
146
0.0
 13
0.0
 23
0.0
 33
0.0
 16
1.0
 26
0.0
 36
0.0
 17
0.0
 27
1.0
 37
0.0
 76
1
330
17
  0
LAYOUT
  5
1E
330
D
100
AcDbPlotSettings
  1

  4
A3
  6

 40
7.5
 41
20.0
 42
7.5
 43
20.0
 44
420.0
 45
297.0
 46
0.0
 47
0.0
 48
0.0
 49
0.0
140
0.0
141
0.0
142
1.0
143
1.0
 70
0
 72
1
 73
0
 74
5
  7

 75
16
 76
0
 77
2
 78
300
147
1.0
148
0.0
149
0.0
100
AcDbLayout
  1
Layout1
 70
1
 71
1
 10
0.0
 20
0.0
 11
420.0
 21
297.0
 12
0.0
 22
0.0
 32
0.0
 14
1e+20
 24
1e+20
 34
1e+20
 15
-1e+20
 25
-1e+20
 35
-1e+20
146
0.0
 13
0.0
 23
0.0
 33
0.0
 16
1.0
 26
0.0
 36
0.0
 17
0.0
 27
1.0
 37
0.0
 76
1
330
1B
  0
MATERIAL
  5
1F
102
{ACAD_REACTORS
330
E
102
}
330
E
100
AcDbMaterial
  1
ByBlock
  2

 70
0
 40
1.0
 71
1
 41
1.0
 91
-1023410177
 42
1.0
 72
1
  3

 73
1
 74
1
 75
1
 44
0.5
 73
0
 45
1.0
 46
1.0
 77
1
  4

 78
1
 79
1
170
1
 48
1.0
171
1
  6

172
1
173
1
174
1
140
1.0
141
1.0
175
1
  7

176
1
177
1
178
1
143
1.0
179
1
  8

270
1
271
1
272
1
145
1.0
146
1.0
273
1
  9

274
1
275
1
276
1
 42
1.0
 72
1
  3

 73
1
 74
1
 75
1
 94
63
  0
MATERIAL
  5
20
102
{ACAD_REACTORS
330
E
102
}
330
E
100
AcDbMaterial
  1
ByLayer
  2

 70
0
 40
1.0
 71
1
 41
1.0
 91
-1023410177
 42
1.0
 72
1
  3

 73
1
 74
1
 75
1
 44
0.5
 73
0
 45
1.0
 46
1.0
 77
1
  4

 78
1
 79
1
170
1
 48
1.0
171
1
  6

172
1
173
1
174
1
140
1.0
141
1.0
175
1
  7

176
1
177
1
178
1
143
1.0
179
1
  8

270
1
271
1
272
1
145
1.0
146
1.0
273
1
  9

274
1
275
1
276
1
 42
1.0
 72
1
  3

 73
1
 74
1
 75
1
 94
63
  0
MATERIAL
  5
21
102
{ACAD_REACTORS
330
E
102
}
330
E
100
AcDbMaterial
  1
Global
  2

 70
0
 40
1.0
 71
1
 41
1.0
 91
-1023410177
 42
1.0
 72
1
  3

 73
1
 74
1
 75
1
 44
0.5
 73
0
 45
1.0
 46
1.0
 77
1
  4

 78
1
 79
1
170
1
 48
1.0
171
1
  6

172
1
173
1
174
1
140
1.0
141
1.0
175
1
  7

176
1
177
1
178
1
143
1.0
179
1
  8

270
1
271
1
272
1
145
1.0
146
1.0
273
1
  9

274
1
275
1
276
1
 42
1.0
 72
1
  3

 73
1
 74
1
 75
1
 94
63
  0
MLINESTYLE
  5
22
102
{ACAD_REACTORS
330
10
102
}
330
10
100
AcDbMlineStyle
  2
Standard
 70
0
  3

 62
256
 51
90.0
 52
90.0
 71
2
 49
0.5
 62
256
  6
BYLAYER
 49
-0.5
 62
256
  6
BYLAYER
  0
MLEADERSTYLE
  5
2C
102
{ACAD_REACTORS
330
F
102
}
330
F
100
AcDbMLeaderStyle
179
2
170
2
171
1
172
0
 90
2
 40
0.0
 41
0.0
173
1
 91
-1056964608
 92
-2
290
1
 42
2.0
291
1
 43
8.0
  3
Standard
 44
4.0
300

342
29
174
1
175
1
176
0
178
1
 93
-1056964608
 45
4.0
292
0
297
0
 46
4.0
 94
-1056964608
 47
1.0
 49
1.0
140
1.0
294
1
141
0.0
177
0
142
1.0
295
0
296
0
143
3.75
271
0
272
9
273
9
  0
DICTIONARY
  5
2D
330
A
100
AcDbDictionary
280
1
281
1
  3
CREATED_BY_EZDXF
350
2E
  3
WRITTEN_BY_EZDXF
350
3E
  0
DICTIONARYVAR
  5
2E
330
2D
100
DictionaryVariables
280
0
  1
1.4.4 @ 2026-07-21T08:35:07.654387+00:00
  0
DICTIONARYVAR
  5
3E
330
2D
100
DictionaryVariables
280
0
  1
1.4.4 @ 2026-07-21T08:35:07.658965+00:00
  0
ENDSEC
  0
EOF
