  0
SECTION
  2
HEADER
  9
$ACADVER
  1
AC1027
  9
$ACADMAINTVER
 70
105
  9
$DWGCODEPAGE
  3
ANSI_1252
  9
$LASTSAVEDBY
  1
ezdxf
  9
$REQUIREDVERSIONS
160
0
  9
$INSBASE
 10
0.0
 20
0.0
 30
0.0
  9
$EXTMIN
 10
1e+20
 20
1e+20
 30
1e+20
  9
$EXTMAX
 10
-1e+20
 20
-1e+20
 30
-1e+20
  9
$LIMMIN
 10
0.0
 20
0.0
  9
$LIMMAX
 10
420.0
 20
297.0
  9
$ORTHOMODE
 70
0
  9
$REGENMODE
 70
1
  9
$FILLMODE
 70
1
  9
$QTEXTMODE
 70
0
  9
$MIRRTEXT
 70
1
  9
$LTSCALE
 40
1.0
  9
$ATTMODE
 70
1
  9
$TEXTSIZE
 40
2.5
  9
$TRACEWID
 40
1.0
  9
$TEXTSTYLE
  7
Standard
  9
$CLAYER
  8
0
  9
$CELTYPE
  6
ByLayer
  9
$CECOLOR
 62
256
  9
$CELTSCALE
 40
1.0
  9
$DISPSILH
 70
0
  9
$DIMSCALE
 40
1.0
  9
$DIMASZ
 40
2.5
  9
$DIMEXO
 40
0.625
  9
$DIMDLI
 40
3.75
  9
$DIMRND
 40
0.0
  9
$DIMDLE
 40
0.0
  9
$DIMEXE
 40
1.25
  9
$DIMTP
 40
0.0
  9
$DIMTM
 40
0.0
  9
$DIMTXT
 40
2.5
  9
$DIMCEN
 40
2.5
  9
$DIMTSZ
 40
0.0
  9
$DIMTOL
 70
0
  9
$DIMLIM
 70
0
  9
$DIMTIH
 70
0
  9
$DIMTOH
 70
0
  9
$DIMSE1
 70
0
  9
$DIMSE2
 70
0
  9
$DIMTAD
 70
1
  9
$DIMZIN
 70
8
  9
$DIMBLK
  1

  9
$DIMASO
 70
1
  9
$DIMSHO
 70
1
  9
$DIMPOST
  1

  9
$DIMAPOST
  1

  9
$DIMALT
 70
0
  9
$DIMALTD
 70
3
  9
$DIMALTF
 40
0.03937007874
  9
$DIMLFAC
 40
1.0
  9
$DIMTOFL
 70
1
  9
$DIMTVP
 40
0.0
  9
$DIMTIX
 70
0
  9
$DIMSOXD
 70
0
  9
$DIMSAH
 70
0
  9
$DIMBLK1
  1

  9
$DIMBLK2
  1

  9
$DIMSTYLE
  2
ISO-25
  9
$DIMCLRD
 70
0
  9
$DIMCLRE
 70
0
  9
$DIMCLRT
 70
0
  9
$DIMTFAC
 40
1.0
  9
$DIMGAP
 40
0.625
  9
$DIMJUST
 70
0
  9
$DIMSD1
 70
0
  9
$DIMSD2
 70
0
  9
$DIMTOLJ
 70
0
  9
$DIMTZIN
 70
8
  9
$DIMALTZ
 70
0
  9
$DIMALTTZ
 70
0
  9
$DIMUPT
 70
0
  9
$DIMDEC
 70
2
  9
$DIMTDEC
 70
2
  9
$DIMALTU
 70
2
  9
$DIMALTTD
 70
3
  9
$DIMTXSTY
  7
Standard
  9
$DIMAUNIT
 70
0
  9
$DIMADEC
 70
0
  9
$DIMALTRND
 40
0.0
  9
$DIMAZIN
 70
0
  9
$DIMDSEP
 70
44
  9
$DIMATFIT
 70
3
  9
$DIMFRAC
 70
0
  9
$DIMLDRBLK
  1

  9
$DIMLUNIT
 70
2
  9
$DIMLWD
 70
-2
  9
$DIMLWE
 70
-2
  9
$DIMTMOVE
 70
0
  9
$DIMFXL
 40
1.0
  9
$DIMFXLON
 70
0
  9
$DIMJOGANG
 40
0.785398163397
  9
$DIMTFILL
 70
0
  9
$DIMTFILLCLR
 70
0
  9
$DIMARCSYM
 70
0
  9
$DIMLTYPE
  6

  9
$DIMLTEX1
  6

  9
$DIMLTEX2
  6

  9
$DIMTXTDIRECTION
 70
0
  9
$LUNITS
 70
2
  9
$LUPREC
 70
4
  9
$SKETCHINC
 40
1.0
  9
$FILLETRAD
 40
10.0
  9
$AUNITS
 70
0
  9
$AUPREC
 70
2
  9
$MENU
  1
.
  9
$ELEVATION
 40
0.0
  9
$PELEVATION
 40
0.0
  9
$THICKNESS
 40
0.0
  9
$LIMCHECK
 70
0
  9
$CHAMFERA
 40
0.0
  9
$CHAMFERB
 40
0.0
  9
$CHAMFERC
 40
0.0
  9
$CHAMFERD
 40
0.0
  9
$SKPOLY
 70
0
  9
$TDCREATE
 40
2461236.492962963
  9
$TDUCREATE
 40
2458532.153996898
  9
$TDUPDATE
 40
2461236.492962963
  9
$TDUUPDATE
 40
2458532.1544311
  9
$TDINDWG
 40
0.0
  9
$TDUSRTIMER
 40
0.0
  9
$USRTIMER
 70
1
  9
$ANGBASE
 50
0.0
  9
$ANGDIR
 70
0
  9
$PDMODE
 70
0
  9
$PDSIZE
 40
0.0
  9
$PLINEWID
 40
0.0
  9
$SPLFRAME
 70
0
  9
$SPLINETYPE
 70
6
  9
$SPLINESEGS
 70
8
  9
$HANDSEED
  5
5C
  9
$SURFTAB1
 70
6
  9
$SURFTAB2
 70
6
  9
$SURFTYPE
 70
6
  9
$SURFU
 70
6
  9
$SURFV
 70
6
  9
$UCSBASE
  2

  9
$UCSNAME
  2

  9
$UCSORG
 10
0.0
 20
0.0
 30
0.0
  9
$UCSXDIR
 10
1.0
 20
0.0
 30
0.0
  9
$UCSYDIR
 10
0.0
 20
1.0
 30
0.0
  9
$UCSORTHOREF
  2

  9
$UCSORTHOVIEW
 70
0
  9
$UCSORGTOP
 10
0.0
 20
0.0
 30
0.0
  9
$UCSORGBOTTOM
 10
0.0
 20
0.0
 30
0.0
  9
$UCSORGLEFT
 10
0.0
 20
0.0
 30
0.0
  9
$UCSORGRIGHT
 10
0.0
 20
0.0
 30
0.0
  9
$UCSORGFRONT
 10
0.0
 20
0.0
 30
0.0
  9
$UCSORGBACK
 10
0.0
 20
0.0
 30
0.0
  9
$PUCSBASE
  2

  9
$PUCSNAME
  2

  9
$PUCSORG
 10
0.0
 20
0.0
 30
0.0
  9
$PUCSXDIR
 10
1.0
 20
0.0
 30
0.0
  9
$PUCSYDIR
 10
0.0
 20
1.0
 30
0.0
  9
$PUCSORTHOREF
  2

  9
$PUCSORTHOVIEW
 70
0
  9
$PUCSORGTOP
 10
0.0
 20
0.0
 30
0.0
  9
$PUCSORGBOTTOM
 10
0.0
 20
0.0
 30
0.0
  9
$PUCSORGLEFT
 10
0.0
 20
0.0
 30
0.0
  9
$PUCSORGRIGHT
 10
0.0
 20
0.0
 30
0.0
  9
$PUCSORGFRONT
 10
0.0
 20
0.0
 30
0.0
  9
$PUCSORGBACK
 10
0.0
 20
0.0
 30
0.0
  9
$USERI1
 70
0
  9
$USERI2
 70
0
  9
$USERI3
 70
0
  9
$USERI4
 70
0
  9
$USERI5
 70
0
  9
$USERR1
 40
0.0
  9
$USERR2
 40
0.0
  9
$USERR3
 40
0.0
  9
$USERR4
 40
0.0
  9
$USERR5
 40
0.0
  9
$WORLDVIEW
 70
1
  9
$SHADEDGE
 70
3
  9
$SHADEDIF
 70
70
  9
$TILEMODE
 70
1
  9
$MAXACTVP
 70
64
  9
$PINSBASE
 10
0.0
 20
0.0
 30
0.0
  9
$PLIMCHECK
 70
0
  9
$PEXTMIN
 10
1e+20
 20
1e+20
 30
1e+20
  9
$PEXTMAX
 10
-1e+20
 20
-1e+20
 30
-1e+20
  9
$PLIMMIN
 10
0.0
 20
0.0
  9
$PLIMMAX
 10
420.0
 20
297.0
  9
$UNITMODE
 70
0
  9
$VISRETAIN
 70
1
  9
$PLINEGEN
 70
0
  9
$PSLTSCALE
 70
1
  9
$TREEDEPTH
 70
3020
  9
$CMLSTYLE
  2
Standard
  9
$CMLJUST
 70
0
  9
$CMLSCALE
 40
20.0
  9
$PROXYGRAPHICS
 70
1
  9
$MEASUREMENT
 70
1
  9
$CELWEIGHT
370
-1
  9
$ENDCAPS
280
0
  9
$JOINSTYLE
280
0
  9
$LWDISPLAY
290
0
  9
$INSUNITS
 70
4
  9
$HYPERLINKBASE
  1

  9
$STYLESHEET
  1

  9
$XEDIT
290
1
  9
$CEPSNTYPE
380
0
  9
$PSTYLEMODE
290
1
  9
$FINGERPRINTGUID
  2
{88229289-79DB-463C-84B4-C2FC7DD89B06}
  9
$VERSIONGUID
  2
{C583D9CE-3B5F-4D11-B2A5-6F93A65769BF}
  9
$EXTNAMES
290
1
  9
$PSVPSCALE
 40
0.0
  9
$OLESTARTUP
290
0
  9
$SORTENTS
280
127
  9
$INDEXCTL
280
0
  9
$HIDETEXT
280
1
  9
$XCLIPFRAME
280
1
  9
$HALOGAP
280
0
  9
$OBSCOLOR
 70
257
  9
$OBSLTYPE
280
0
  9
$INTERSECTIONDISPLAY
280
0
  9
$INTERSECTIONCOLOR
 70
257
  9
$DIMASSOC
280
2
  9
$PROJECTNAME
  1

  9
$CAMERADISPLAY
290
0
  9
$LENSLENGTH
 40
50.0
  9
$CAMERAHEIGHT
 40
0.0
  9
$STEPSPERSEC
 40
24.0
  9
$STEPSIZE
 40
100.0
  9
$3DDWFPREC
 40
2.0
  9
$PSOLWIDTH
 40
0.005
  9
$PSOLHEIGHT
 40
0.08
  9
$LOFTANG1
 40
1.570796326795
  9
$LOFTANG2
 40
1.570796326795
  9
$LOFTMAG1
 40
0.0
  9
$LOFTMAG2
 40
0.0
  9
$LOFTPARAM
 70
7
  9
$LOFTNORMALS
280
1
  9
$LATITUDE
 40
37.795
  9
$LONGITUDE
 40
-122.394
  9
$NORTHDIRECTION
 40
0.0
  9
$TIMEZONE
 70
-8000
  9
$LIGHTGLYPHDISPLAY
280
1
  9
$TILEMODELIGHTSYNCH
280
1
  9
$CMATERIAL
347
20
  9
$SOLIDHIST
280
0
  9
$SHOWHIST
280
1
  9
$DWFFRAME
280
2
  9
$DGNFRAME
280
2
  9
$REALWORLDSCALE
290
1
  9
$INTERFERECOLOR
 62
256
  9
$CSHADOW
280
0
  9
$SHADOWPLANELOCATION
 40
0.0
  0
ENDSEC
  0
SECTION
  2
CLASSES
  0
CLASS
  1
ACDBDICTIONARYWDFLT
  2
AcDbDictionaryWithDefault
  3
ObjectDBX Classes
 90
0
 91
0
280
0
281
0
  0
CLASS
  1
SUN
  2
AcDbSun
  3
SCENEOE
 90
1153
 91
0
280
0
281
0
  0
CLASS
  1
VISUALSTYLE
  2
AcDbVisualStyle
  3
ObjectDBX Classes
 90
4095
 91
0
280
0
281
0
  0
CLASS
  1
MATERIAL
  2
AcDbMaterial
  3
ObjectDBX Classes
 90
1153
 91
0
280
0
281
0
  0
CLASS
  1
SCALE
  2
AcDbScale
  3
ObjectDBX Classes
 90
1153
 91
0
280
0
281
0
  0
CLASS
  1
TABLESTYLE
  2
AcDbTableStyle
  3
ObjectDBX Classes
 90
4095
 91
0
280
0
281
0
  0
CLASS
  1
MLEADERSTYLE
  2
AcDbMLeaderStyle
  3
ACDB_MLEADERSTYLE_CLASS
 90
4095
 91
0
280
0
281
0
  0
CLASS
  1
DICTIONARYVAR
  2
AcDbDictionaryVar
  3
ObjectDBX Classes
 90
0
 91
0
280
0
281
0
  0
CLASS
  1
CELLSTYLEMAP
  2
AcDbCellStyleMap
  3
ObjectDBX Classes
 90
1152
 91
0
280
0
281
0
  0
CLASS
  1
MENTALRAYRENDERSETTINGS
  2
AcDbMentalRayRenderSettings
  3
SCENEOE
 90
1024
 91
0
280
0
281
0
  0
CLASS
  1
ACDBDETAILVIEWSTYLE
  2
AcDbDetailViewStyle
  3
ObjectDBX Classes
 90
1025
 91
0
280
0
281
0
  0
CLASS
  1
ACDBSECTIONVIEWSTYLE
  2
AcDbSectionViewStyle
  3
ObjectDBX Classes
 90
1025
 91
0
280
0
281
0
  0
CLASS
  1
RASTERVARIABLES
  2
AcDbRasterVariables
  3
ISM
 90
0
 91
0
280
0
281
0
  0
CLASS
  1
LAYOUT
  2
AcDbLayout
  3
ObjectDBX Classes
 90
0
 91
0
280
0
281
0
  0
CLASS
  1
ACDBPLACEHOLDER
  2
AcDbPlaceHolder
  3
ObjectDBX Classes
 90
0
 91
0
280
0
281
0
  0
ENDSEC
  0
SECTION
  2
TABLES
  0
TABLE
  2
VPORT
  5
8
330
0
100
AcDbSymbolTable
 70
1
  0
VPORT
  5
23
330
8
100
AcDbSymbolTableRecord
100
AcDbViewportTableRecord
  2
*Active
 70
0
 10
0.0
 20
0.0
 11
1.0
 21
1.0
 12
0.0
 22
0.0
 13
0.0
 23
0.0
 14
0.5
 24
0.5
 15
0.5
 25
0.5
 16
0.0
 26
0.0
 36
1.0
 17
0.0
 27
0.0
 37
0.0
 40
1000.0
 41
1.34
 42
50.0
 43
0.0
 44
0.0
 50
0.0
 51
0.0
 71
0
 72
1000
 73
1
 74
3
 75
0
 76
0
 77
0
 78
0
281
0
 65
0
146
0.0
  0
ENDTAB
  0
TABLE
  2
LTYPE
  5
2
330
0
100
AcDbSymbolTable
 70
3
  0
LTYPE
  5
24
330
2
100
AcDbSymbolTableRecord
100
AcDbLinetypeTableRecord
  2
ByBlock
 70
0
  3

 72
65
 73
0
 40
0.0
  0
LTYPE
  5
25
330
2
100
AcDbSymbolTableRecord
100
AcDbLinetypeTableRecord
  2
ByLayer
 70
0
  3

 72
65
 73
0
 40
0.0
  0
LTYPE
  5
26
330
2
100
AcDbSymbolTableRecord
100
AcDbLinetypeTableRecord
  2
Continuous
 70
0
  3

 72
65
 73
0
 40
0.0
  0
ENDTAB
  0
TABLE
  2
LAYER
  5
1
330
0
100
AcDbSymbolTable
 70
3
  0
LAYER
  5
27
330
1
100
AcDbSymbolTableRecord
100
AcDbLayerTableRecord
  2
0
 70
0
 62
7
  6
Continuous
370
-3
390
13
347
21
  0
LAYER
  5
28
330
1
100
AcDbSymbolTableRecord
100
AcDbLayerTableRecord
  2
Defpoints
 70
0
 62
7
  6
Continuous
290
0
370
-3
390
13
347
21
  0
LAYER
  5
2F
330
1
100
AcDbSymbolTableRecord
100
AcDbLayerTableRecord
  2
M
 70
0
 62
7
  6
Continuous
370
-3
390
13
347
21
  0
ENDTAB
  0
TABLE
  2
STYLE
  5
5
330
0
100
AcDbSymbolTable
 70
1
  0
STYLE
  5
29
330
5
100
AcDbSymbolTableRecord
100
AcDbTextStyleTableRecord
  2
Standard
 70
0
 40
0.0
 41
1.0
 50
0.0
 71
0
 42
2.5
  3
txt
  4

  0
ENDTAB
  0
TABLE
  2
VIEW
  5
7
330
0
100
AcDbSymbolTable
 70
0
  0
ENDTAB
  0
TABLE
  2
UCS
  5
6
330
0
100
AcDbSymbolTable
 70
0
  0
ENDTAB
  0
TABLE
  2
APPID
  5
3
330
0
100
AcDbSymbolTable
 70
3
  0
APPID
  5
2A
330
3
100
AcDbSymbolTableRecord
100
AcDbRegAppTableRecord
  2
ACAD
 70
0
  0
APPID
  5
59
330
3
100
AcDbSymbolTableRecord
100
AcDbRegAppTableRecord
  2
HATCHBACKGROUNDCOLOR
 70
0
  0
APPID
  5
5A
330
3
100
AcDbSymbolTableRecord
100
AcDbRegAppTableRecord
  2
EZDXF
 70
0
  0
ENDTAB
  0
TABLE
  2
DIMSTYLE
  5
4
330
0
100
AcDbSymbolTable
 70
1
100
AcDbDimStyleTable
  0
DIMSTYLE
105
2B
330
4
100
AcDbSymbolTableRecord
100
AcDbDimStyleTableRecord
  2
Standard
 70
0
 40
1.0
 41
2.5
 42
0.625
 43
3.75
 44
1.25
 45
0.0
 46
0.0
 47
0.0
 48
0.0
 49
2.5
140
2.5
141
2.5
142
0.0
143
0.03937007874
144
1.0
145
0.0
146
1.0
147
0.625
148
0.0
 69
0
 70
0
 71
0
 72
0
 73
0
 74
0
 75
0
 76
0
 77
1
 78
8
 79
3
170
0
171
3
172
1
173
0
174
0
175
0
176
0
177
0
178
0
179
2
271
2
272
2
273
2
274
3
275
0
276
0
277
2
278
44
279
0
280
0
281
0
282
0
283
0
284
8
285
0
286
0
288
0
289
3
290
0
371
-2
372
-2
  0
ENDTAB
  0
TABLE
  2
BLOCK_RECORD
  5
9
330
0
100
AcDbSymbolTable
 70
2
  0
BLOCK_RECORD
  5
17
330
9
100
AcDbSymbolTableRecord
100
AcDbBlockTableRecord
  2
*Model_Space
340
1A
 70
0
280
1
281
0
  0
BLOCK_RECORD
  5
1B
330
9
100
AcDbSymbolTableRecord
100
AcDbBlockTableRecord
  2
*Paper_Space
340
1E
 70
0
280
1
281
0
  0
ENDTAB
  0
ENDSEC
  0
SECTION
  2
BLOCKS
  0
BLOCK
  5
18
330
17
100
AcDbEntity
  8
0
100
AcDbBlockBegin
  2
*Model_Space
 70
0
 10
0.0
 20
0.0
 30
0.0
  3
*Model_Space
  1

  0
ENDBLK
  5
19
330
17
100
AcDbEntity
  8
0
100
AcDbBlockEnd
  0
BLOCK
  5
1C
330
1B
100
AcDbEntity
  8
0
100
AcDbBlockBegin
  2
*Paper_Space
 70
0
 10
0.0
 20
0.0
 30
0.0
  3
*Paper_Space
  1

  0
ENDBLK
  5
1D
330
1B
100
AcDbEntity
  8
0
100
AcDbBlockEnd
  0
ENDSEC
  0
SECTION
  2
ENTITIES
  0
LWPOLYLINE
  5
30
330
17
100
AcDbEntity
  8
M
100
AcDbPolyline
 90
69
 70
1
 10
248.26179436840596
 20
205.5596867568236
 10
251.86538872796083
 20
205.5596867568236
 10
262.40314971035497
 20
191.85224206887156
 10
269.3173303098448
 20
189.15406695496364
 10
290.35205919337716
 20
221.98825818539507
 10
293.86327214861814
 20
221.98825818539507
 10
312.22980255381026
 20
247.92711505927846
 10
310.4749694429538
 20
264.362371132713
 10
328.985290883375
 20
285.00073805427706
 10
332.5400261358852
 20
282.22635342349025
 10
353.6097513295675
 20
282.22635342349025
 10
355.36387070428935
 20
279.488258185395
 10
390.4462581987277
 20
279.488258185395
 10
393.11966985835454
 20
275.3151922925148
 10
394.8737892330765
 20
258.88662086394345
 10
398.3850980618758
 20
253.40563814283223
 10
398.3850980618758
 20
247.92944766664175
 10
402.7279047364529
 20
241.1505371506382
 10
436.0445564266635
 20
238.4133962642723
 10
441.31533492287554
 20
232.92844325993036
 10
450.09617960623166
 20
230.18714875507231
 10
453.6044183556755
 20
224.7109582788818
 10
462.36476741953857
 20
221.97606230754943
 10
467.61540588619033
 20
216.51206770920464
 10
474.6288070086131
 20
216.51206770920464
 10
483.3994038822227
 20
208.29778199491892
 10
486.9228238084334
 20
208.29778199491892
 10
489.59930554741567
 20
204.119923857118
 10
489.59930554741567
 20
190.37087822795797
 10
486.9228238084334
 20
186.19302009015695
 10
483.4145850589895
 20
186.19302009015695
 10
481.6604656842676
 20
183.45492485206174
 10
472.88986881065796
 20
183.45492485206174
 10
469.38163006121414
 20
177.97873437587134
 10
464.1192719370484
 20
177.97873437587134
 10
462.3668383618605
 20
175.24327058905757
 10
406.2232026062634
 20
172.5045989811153
 10
395.7328259234973
 20
161.58795295924813
 10
386.9380194492839
 20
147.85968675682363
 10
383.32038605363886
 20
147.85968675682363
 10
381.566266678917
 20
150.59778199491893
 10
372.7956698053074
 20
150.59778199491893
 10
371.04155043058546
 20
153.33587723301414
 10
364.02507293169776
 20
153.33587723301414
 10
362.2709535569759
 20
156.07397247110936
 10
355.2544760580882
 20
156.07397247110936
 10
353.50035668336625
 20
158.81206770920465
 10
346.4838791844786
 20
158.81206770920465
 10
344.7297598097567
 20
161.55016294729987
 10
335.95916293614704
 20
161.55016294729987
 10
334.2050435614251
 20
164.28825818539508
 10
325.5235486369976
 20
164.28825818539508
 10
318.5070711381099
 20
158.81206770920465
 10
302.63089481643055
 20
158.81206770920465
 10
300.8734533815912
 20
161.55534852196453
 10
272.91675634268626
 20
164.28278900214968
 10
269.42938254842664
 20
158.83916770868203
 10
260.5912395068574
 20
153.32080271609163
 10
255.32721416190373
 20
156.0597654377736
 10
241.32725541083383
 20
147.86479430106473
 10
227.2943004130585
 20
145.12669906296952
 10
213.2151530610429
 20
136.88537433975048
 10
201.72372809302078
 20
146.5440587907231
 10
201.72372809302078
 20
160.31040004759413
 10
204.38284862649172
 20
164.4611581859177
 10
213.15947357121087
 20
169.94111247272173
 10
234.21520116453414
 20
194.59133937092614
 10
241.23167866342183
 20
197.32943460902143
 10
248.26179436840596
 20
205.5596867568236
  0
LWPOLYLINE
  5
31
330
17
100
AcDbEntity
  8
M
100
AcDbPolyline
 90
204
 70
1
 10
328.94268543725934
 20
490.12159151872834
 10
327.18856606253746
 20
492.8596867568237
 10
316.68414251122505
 20
492.8596867568237
 10
309.6676650123374
 20
498.3358772330141
 10
306.2485282120756
 20
498.3358772330141
 10
304.49440883735366
 20
495.5977819949189
 10
295.69777015547703
 20
495.5977819949189
 10
286.92717328186745
 20
490.12159151872834
 10
278.1565764082579
 20
490.12159151872834
 10
269.3414495111281
 20
484.61759736004973
 10
264.0381103047026
 20
490.13643415697305
 10
257.011832213478
 20
492.8783539573524
 10
252.57442914664858
 20
499.80492485206173
 10
254.3285485213705
 20
502.543020090157
 10
251.7614329494949
 20
506.55016294729984
 10
227.29286365257008
 20
506.55016294729984
 10
223.72522360367154
 20
503.7657064359876
 10
221.94140357922223
 20
506.55016294729984
 10
218.4331648297784
 20
506.55016294729984
 10
214.00256371607423
 20
513.4661163231959
 10
214.00256371607423
 20
518.9423067993864
 10
210.49739504598585
 20
524.4137050306562
 10
208.74327567126394
 20
540.8422764592277
 10
206.14096575119947
 20
544.9043559863443
 10
193.86213012814602
 20
550.3805464625348
 10
191.19901184468927
 20
554.5375448946246
 10
191.19901184468927
 20
568.2280210851007
 10
187.69077309524542
 20
573.7042115612912
 10
187.69077309524542
 20
590.1327829898626
 10
185.9366537205235
 20
592.870878227958
 10
185.9366537205235
 20
598.3470687041483
 10
183.3409146683813
 20
602.3988914252417
 10
174.57031779477168
 20
605.136986663337
 10
172.8260610870085
 20
607.8596867568236
 10
164.05546421339886
 20
607.8596867568236
 10
162.30134483867695
 20
610.5977819949189
 10
158.7931060892331
 20
610.5977819949189
 10
153.51045526804822
 20
618.8437436246965
 10
142.9857390197167
 20
627.0580293389821
 10
134.23543484312626
 20
640.7168296139665
 10
132.47552401961238
 20
640.7168296139665
 10
124.5295712504669
 20
655.8763534234903
 10
132.47552401961238
 20
671.035877233014
 10
172.8260610870085
 20
671.035877233014
 10
174.5801804617304
 20
673.7739724711092
 10
190.3707584609448
 20
673.7739724711092
 10
206.15783283344211
 20
695.6787343758713
 10
209.6625679561688
 20
695.6787343758713
 10
211.4166873308907
 20
698.4168296139665
 10
222.05079822542348
 20
698.4168296139665
 10
223.8049176001454
 20
695.6787343758713
 10
243.08504954531966
 20
695.6787343758713
 10
251.89815595883093
 20
687.4246354639928
 10
257.1497935673375
 20
676.4945667846907
 10
265.9136452604302
 20
673.7585773265007
 10
267.6579019681934
 20
671.035877233014
 10
299.12265606698674
 20
671.035877233014
 10
305.21677120161405
 20
680.5484952856893
 10
305.21677120161405
 20
686.0246857618798
 10
310.4827976731706
 20
694.2446975884627
 10
312.2361135889114
 20
707.9289029765013
 10
317.49847171307715
 20
718.8812839288822
 10
319.2533945467802
 20
732.5780309217961
 10
322.75796494883326
 20
738.0484952856893
 10
322.75796494883326
 20
743.5246857618798
 10
324.4933235102473
 20
746.2334962806332
 10
320.22678588675035
 20
752.8933545082997
 10
318.53114381323275
 20
750.2465395001999
 10
293.97347256712584
 20
747.5084442621047
 10
292.21557321430026
 20
744.7644486615856
 10
278.18261821652493
 20
744.7644486615856
 10
276.4188570850129
 20
742.0113031089368
 10
265.8941408366814
 20
744.7493983470321
 10
264.14966321874954
 20
742.0263534234904
 10
257.0237910736606
 20
742.0263534234904
 10
254.34730933467836
 20
746.2042115612912
 10
254.34730933467836
 20
751.6835706214657
 10
242.06847371162493
 20
773.5883325262276
 10
242.06847371162493
 20
779.0678617109874
 10
236.78701426100557
 20
790.0599976551571
 10
243.0008939698546
 20
796.988258185395
 10
248.26179436840593
 20
796.988258185395
 10
255.27827186729357
 20
805.2025438996807
 10
258.77791044838256
 20
805.2025438996807
 10
264.87202558300993
 20
814.7151619523561
 10
264.87202558300993
 20
831.0851639422434
 10
261.3637868335661
 20
836.561354418434
 10
261.3637868335661
 20
863.9559666520189
 10
259.60007724275675
 20
869.4620968522437
 10
262.2861491978265
 20
873.6549248520618
 10
265.9037825934714
 20
873.6549248520618
 10
267.65790196819336
 20
870.9168296139665
 10
276.42849884180293
 20
870.9168296139665
 10
278.18783372066366
 20
868.1705932269548
 10
313.1582615728513
 20
862.7118791077171
 10
330.6724575974848
 20
892.7845703781671
 10
335.05309551687003
 20
896.8873483303654
 10
338.53229190499843
 20
905.0336334692341
 10
332.43896532652064
 20
914.5450206240189
 10
325.4278331273477
 20
917.2810299237359
 10
316.67051442280547
 20
928.2168296139663
 10
313.1631211900453
 20
928.2168296139663
 10
305.1932881318417
 20
937.8927917340718
 10
310.48512774948136
 20
946.1530966292956
 10
312.23924712420325
 20
954.3673823435814
 10
315.74148744994557
 20
959.8342095714037
 10
315.74148744994557
 20
965.3052483003856
 10
322.75796494883326
 20
978.9957244908618
 10
322.75796494883326
 20
984.4770667142608
 10
327.2182667122648
 20
991.4393813633737
 10
337.8203074471174
 20
983.1647457631616
 10
367.64033681739
 20
969.4742695726854
 10
381.60820914852457
 20
958.5726840627871
 10
400.928922102301
 20
980.5062808076603
 10
402.6778411952057
 20
977.776302957176
 10
413.1396003292852
 20
991.384884980308
 10
429.03055394029843
 20
994.140996935219
 10
430.7910038173319
 20
991.3930200901568
 10
434.1898479205746
 20
991.3930200901568
 10
435.94396729529655
 20
994.1311153282521
 10
444.82395881510723
 20
994.1311153282521
 10
447.50044055408955
 20
989.9532571904513
 10
447.50044055408955
 20
921.4423067993864
 10
444.80925520197655
 20
917.2414970348741
 10
437.6959284021727
 20
920.0173865379255
 10
432.44103638159777
 20
925.4858075304712
 10
416.64289297046975
 20
928.2258225721507
 10
414.8945347986335
 20
930.9549248520617
 10
406.1499797332907
 20
930.9549248520617
 10
397.37938285968113
 20
936.4311153282521
 10
388.58274417780467
 20
936.4311153282521
 10
386.8880739249898
 20
939.0764133713853
 10
372.0668105625592
 20
913.2193435310061
 10
368.57201699277505
 20
899.5813355233284
 10
383.4409390564626
 20
873.6411206542987
 10
393.9450090769779
 20
870.9083967095223
 10
400.94286132711335
 20
865.4467427881558
 10
416.751718317245
 20
868.188615982838
 10
418.51216819427844
 20
865.440639137776
 10
427.28996679474415
 20
865.440639137776
 10
433.46330280240744
 20
853.051138862515
 10
436.9718449169363
 20
833.8828148122212
 10
445.7418227463452
 20
814.7175009627025
 10
447.4931402489173
 20
806.5163360078728
 10
455.3411649381556
 20
796.988258185395
 10
458.8403348747168
 20
796.988258185395
 10
471.1341797751785
 20
786.0224893736892
 10
478.17502588111944
 20
783.2748845822686
 10
480.8402021253553
 20
776.3411999005714
 10
474.5892908622793
 20
766.5838306987758
 10
472.8193901028165
 20
769.346559912775
 10
457.0906896378588
 20
752.9787343758712
 10
453.59455568871687
 20
752.9787343758712
 10
450.03161961617246
 20
747.4171640321092
 10
448.2775002414505
 20
750.1552592702044
 10
444.8359176752899
 20
744.7831158621142
 10
437.8194401764022
 20
742.045020624019
 10
432.54512319205384
 20
733.8120677092046
 10
429.02477964230815
 20
733.8120677092046
 10
423.76242151814245
 20
728.3358772330141
 10
411.48709052703595
 20
728.3358772330141
 10
404.47061302814825
 20
720.1215915187283
 10
400.97097444705923
 20
720.1215915187283
 10
397.4800969031268
 20
714.6725010420153
 10
388.6065592743572
 20
709.1320363560826
 10
385.0608225417084
 20
714.6667593647401
 10
355.25684556804066
 20
728.3498658457237
 10
348.31769255567434
 20
733.7657064359876
 10
345.7615168202182
 20
729.7756401327198
 10
345.7615168202182
 20
661.3232591803388
 10
343.08503508123596
 20
657.145401042538
 10
322.03560258457287
 20
657.145401042538
 10
319.448036511537
 20
653.1063359452953
 10
317.6939171368151
 20
622.9872883262477
 10
315.94148744994555
 20
620.2518306089102
 10
315.94148744994555
 20
614.8342095714037
 10
318.52736383512905
 20
610.7977819949189
 10
322.03560258457287
 20
610.7977819949189
 10
323.7897219592948
 20
608.0596867568237
 10
332.53427702463733
 20
608.0596867568237
 10
341.30487389824697
 20
602.5834962806331
 10
346.5932738306798
 20
602.5834962806331
 10
348.3473932054017
 20
599.8454010425379
 10
357.09194827074424
 20
599.8454010425379
 10
365.8625451443539
 20
594.3692105663474
 10
371.1509450767866
 20
594.3692105663474
 10
372.90506445150857
 20
591.6311153282522
 10
381.67566132511814
 20
591.6311153282522
 10
386.12502325213023
 20
584.6858772330141
 10
382.5980236893785
 20
579.1804020374817
 10
382.5980236893785
 20
573.7107188538447
 10
377.33566556521276
 20
562.7583379014637
 10
377.33566556521276
 20
557.2756401327198
 10
375.6003070037987
 20
554.5668296139665
 10
380.8439043146566
 20
546.3818286190227
 10
380.8439043146566
 20
513.4661163231959
 10
377.33566556521276
 20
507.9899258470055
 10
377.33566556521276
 20
488.81426901765093
 10
371.1344524371177
 20
481.90013128598696
 10
353.4951411792274
 20
484.6535421914543
 10
351.74623730864437
 20
487.38349628063315
 10
341.22152106031285
 20
487.38349628063315
 10
339.4674016855909
 20
490.12159151872834
 10
328.94268543725934
 20
490.12159151872834
  0
LWPOLYLINE
  5
32
330
17
100
AcDbEntity
  8
M
100
AcDbPolyline
 90
6
 70
1
 10
214.96025613137246
 20
558.5188239755721
 10
210.71182271758522
 20
554.5398649147616
 10
213.29419896908303
 20
547.8215915187284
 10
216.67904545505647
 20
547.8215915187284
 10
219.24616102693216
 20
551.8287343758712
 10
214.96025613137246
 20
558.5188239755721
  0
LWPOLYLINE
  5
33
330
17
100
AcDbEntity
  8
M
100
AcDbPolyline
 90
20
 70
1
 10
407.8512830863779
 20
342.42398982557364
 10
413.13964965857673
 20
347.9272455854369
 10
429.02387558540534
 20
353.4371358089031
 10
430.79100381733195
 20
350.6787343758713
 10
434.2992425667758
 20
350.6787343758713
 10
437.8074813162196
 20
345.20254389968073
 10
441.2954273686443
 20
345.20254389968073
 10
448.3524902615703
 20
339.69467750799845
 10
451.02142671986553
 20
335.52859718727035
 10
447.50044055408955
 20
327.28446432535605
 10
447.50044055408955
 20
302.63278298986273
 10
445.7463211793676
 20
299.89468775176755
 10
445.7463211793676
 20
288.9423067993866
 10
443.0687992626143
 20
284.762824994552
 10
396.47525780546556
 20
286.13509400592784
 10
394.676859312432
 20
288.9423067993866
 10
394.676859312432
 20
299.95325719045127
 10
398.1850980618758
 20
305.4294476666417
 10
398.1850980618758
 20
324.5921901939558
 10
407.8512830863779
 20
342.42398982557364
  0
LWPOLYLINE
  5
34
330
17
100
AcDbEntity
  8
M
100
AcDbPolyline
 90
13
 70
1
 10
267.6579019681934
 20
326.0358772330141
 10
270.3343837071757
 20
321.8580190952132
 10
270.3343837071757
 20
286.2042115612913
 10
267.6579019681934
 20
282.02635342349026
 10
244.8543500968084
 20
282.02635342349026
 10
243.09905660850063
 20
279.28642545105276
 10
201.779786150647
 20
280.65871005676667
 10
196.47659090231573
 20
286.17739704595635
 10
192.94038380307907
 20
294.4571686158417
 10
196.4701209472085
 20
299.96691704308375
 10
201.73247907137426
 20
316.3954884716552
 10
207.9084485814469
 20
326.0358772330141
 10
267.6579019681934
 20
326.0358772330141
  0
LWPOLYLINE
  5
35
330
17
100
AcDbEntity
  8
M
100
AcDbPolyline
 90
33
 70
1
 10
37.75812019336239
 20
859.7793684389252
 10
29.003453536577904
 20
867.9787343758711
 10
21.97179486092343
 20
867.9787343758711
 10
20.209295016467454
 20
870.7299111206202
 10
9.70473943384742
 20
873.4627613885444
 10
0.0
 20
880.3485011178873
 10
0.0
 20
885.9056381428321
 10
3.508238749443837
 20
891.3818286190225
 10
3.508238749443837
 20
899.5896070407549
 10
8.774157248875202
 20
910.5493980905337
 10
10.529270625921294
 20
921.5079854005199
 10
14.032954997775349
 20
926.9770667142604
 10
14.032954997775349
 20
929.6565925136724
 10
0.0
 20
951.5613544184342
 10
0.0
 20
984.4682425216245
 10
3.5418640601856954
 20
992.761259453878
 10
115.04908424357596
 20
994.1317898525543
 10
122.06599386627398
 20
983.1787343758712
 10
123.82962875256209
 20
983.1787343758712
 10
128.2643486347203
 20
973.4873987728034
 10
123.84483533356882
 20
966.5887529343469
 10
101.0055737729118
 20
941.9073058044427
 10
97.49314144340026
 20
941.9073058044427
 10
88.76049751170761
 20
933.7285657107226
 10
79.13917990199509
 20
918.710155726207
 10
80.88582288981749
 20
905.0780309217959
 10
84.3917315629506
 20
899.6054775816766
 10
86.16010089475967
 20
891.3244613924774
 10
72.88361613485999
 20
876.1268991110098
 10
71.12918969789544
 20
878.8654736583678
 10
51.90305143774781
 20
857.0392416467363
 10
47.45590446040621
 20
855.6508855134828
 10
37.75812019336239
 20
859.7793684389252
  0
LWPOLYLINE
  5
36
330
17
100
AcDbEntity
  8
M
100
AcDbPolyline
 90
55
 70
1
 10
20.217675486201458
 20
616.0739724711093
 10
18.46355611147954
 20
618.8120677092046
 10
13.201197987313783
 20
618.8120677092046
 10
10.505955435023695
 20
623.0192105663475
 10
14.032954997775349
 20
628.5246857618798
 10
14.032954997775349
 20
642.2151619523561
 10
15.787074372497267
 20
644.9532571904513
 10
15.787074372497267
 20
653.167542904737
 10
19.295313121941106
 20
658.6437333809274
 10
19.295313121941106
 20
672.3342095714037
 10
21.047857908118417
 20
675.0698469531761
 10
19.296863301535293
 20
707.8684584728226
 10
15.787074372497267
 20
713.3470687041483
 10
15.787074372497267
 20
721.6199238571179
 10
20.217675486201458
 20
728.535877233014
 10
23.725914235645295
 20
728.535877233014
 10
27.22429031813045
 20
733.996672564596
 10
36.002131663606384
 20
736.7370294565109
 10
43.029827525941315
 20
744.9644486615855
 10
46.536130715629895
 20
744.9644486615855
 10
55.30672758923949
 20
755.9168296139665
 10
58.80830173008372
 20
755.9168296139665
 10
60.617118427906235
 20
758.7403047196331
 10
62.37123780262815
 20
756.0022094815379
 10
65.8247792289714
 20
761.3930200901569
 10
69.34819915518209
 20
761.3930200901569
 10
78.16504206284003
 20
769.6506184936815
 10
103.72696281643334
 20
740.75685022115
 10
97.50969524936781
 20
733.8248123464085
 10
88.74127196292669
 20
731.0873956811358
 10
72.88583120576064
 20
711.8377272070896
 10
70.14601417556898
 20
716.1144486615855
 10
73.65425292501283
 20
721.590639137776
 10
69.33301797841523
 20
728.3358772330141
 10
58.91769637628491
 20
728.3358772330141
 10
56.3433134426507
 20
724.3173903767618
 10
58.93169399355408
 20
717.5834962806331
 10
62.42593512572875
 20
717.5834962806331
 10
66.87900798552143
 20
710.6324655993703
 10
57.17073736503592
 20
698.233624259357
 10
50.15905836285795
 20
695.4974015763999
 10
45.82586455607773
 20
688.7334962806332
 10
50.15905836285795
 20
681.9695909848664
 10
57.175535861745615
 20
679.2314957467712
 10
60.67181575100683
 20
673.7739724711092
 10
64.16794970014882
 20
673.7739724711092
 10
69.4420274818287
 20
668.285586117073
 10
78.21655571459519
 20
665.5462635467971
 10
86.17533243114633
 20
655.8837246367183
 10
75.61682447931611
 20
639.4024059984812
 10
70.35304120646435
 20
625.7082221614152
 10
58.90807420977945
 20
610.5916513782408
 10
36.00069026299063
 20
613.3422140649523
 10
34.25063048397686
 20
616.0739724711093
 10
20.217675486201458
 20
616.0739724711093
  0
LWPOLYLINE
  5
37
330
17
100
AcDbEntity
  8
M
100
AcDbPolyline
 90
54
 70
1
 10
10.524716248331512
 20
321.7994496565293
 10
8.770596873609593
 20
324.5375448946245
 10
8.770596873609593
 20
332.7518306089102
 10
5.266912501755594
 20
338.220911922651
 10
3.5127931270336754
 20
349.17329287503196
 10
0.0
 20
354.6565925136722
 10
0.0
 20
436.85801909521314
 10
3.510553010974804
 20
442.33782202137087
 10
5.263980700309034
 20
464.23394642748326
 10
8.755119747813733
 20
472.40819443413596
 10
0.0
 20
483.3412481525546
 10
0.0
 20
535.4294476666417
 10
3.508238749443837
 20
540.9056381428322
 10
3.508238749443837
 20
546.374337059397
 10
7.929324351581945
 20
556.035877233014
 10
18.546908949413687
 20
556.035877233014
 10
27.324471732684042
 20
550.5553373780194
 10
44.88995688264835
 20
547.813450369812
 10
47.556668739901994
 20
543.6508425433772
 10
49.31134216164301
 20
532.6950022289332
 10
59.84005874054527
 20
513.5210505200101
 10
59.84005874054527
 20
508.043343538481
 10
66.86692465825544
 20
494.33259757580504
 10
63.351607564181954
 20
486.10173843270655
 10
65.09786248712118
 20
475.1984615909962
 10
68.60610123656502
 20
469.7222711148058
 10
70.36022061128693
 20
458.7698901624249
 10
73.86701531461904
 20
453.29595377215304
 10
75.62113468934095
 20
445.0816680578673
 10
79.13537186248637
 20
439.5961143333085
 10
79.13537186248637
 20
436.7994496565293
 10
72.97445433820776
 20
427.182556314707
 10
58.11332743471542
 20
412.1724105056218
 10
59.84005874054527
 20
409.4770667142608
 10
59.84005874054527
 20
393.0484952856894
 10
63.3482974899891
 20
387.5723048094989
 10
63.3482974899891
 20
373.8232591803389
 10
59.84005874054527
 20
368.34706870414834
 10
59.84005874054527
 20
360.1913524285465
 10
63.34462914259831
 20
354.7208880646533
 10
65.09874851732023
 20
341.03041187417705
 10
68.60610123656502
 20
335.55560444813915
 10
70.36022061128693
 20
324.6032234957581
 10
73.86845936073078
 20
319.1270330195677
 10
75.62392909424887
 20
308.1662206889286
 10
79.14811927881848
 20
299.9145858501865
 10
74.70477074878212
 20
292.9787343758713
 10
69.42211992759728
 20
292.9787343758713
 10
62.40274603051776
 20
287.5002833311554
 10
20.20850938854729
 20
290.2445815074306
 10
14.032954997775349
 20
302.63853393920806
 10
14.032954997775349
 20
310.84706870414846
 10
10.524716248331512
 20
316.323259180339
 10
10.524716248331512
 20
321.7994496565293
  0
LWPOLYLINE
  5
38
330
17
100
AcDbEntity
  8
M
100
AcDbPolyline
 90
38
 70
1
 10
1090.1234330867746
 20
116.34871250047865
 10
1083.1487221456696
 20
135.6207193738809
 10
1083.1487221456696
 20
141.0905606666282
 10
1076.2121347636353
 20
154.78103685710445
 10
1076.2121347636353
 20
160.26161880362102
 10
1070.6628648580079
 20
173.95209499409728
 10
1070.6628648580079
 20
179.47166998987632
 10
1076.978513946643
 20
191.93662411116443
 10
1079.7696701749212
 20
189.18222516953867
 10
1092.2166835383207
 20
205.5596867568236
 10
1113.137484030851
 20
205.5596867568236
 10
1114.5248015072582
 20
202.82159151872838
 10
1124.1131515572347
 20
202.82159151872838
 10
1125.5004690336414
 20
205.5596867568236
 10
1142.271151035394
 20
205.5596867568236
 10
1143.6584685118012
 20
202.82159151872838
 10
1160.183405943812
 20
202.82159151872838
 10
1161.5707234202187
 20
205.5596867568236
 10
1168.5073108022523
 20
205.5596867568236
 10
1169.8888880444285
 20
208.2864527150097
 10
1183.7862092849516
 20
211.0293136504541
 10
1190.799790687866
 20
216.56628818379644
 10
1192.9468027818073
 20
212.32881284701924
 10
1192.9468027818073
 20
124.66198923805685
 10
1190.8235281763173
 20
120.4713636708519
 10
1167.1275869339572
 20
123.22240893207983
 10
1162.969874835068
 20
128.69302009015695
 10
1149.084866132557
 20
128.69302009015695
 10
1147.6975486561503
 20
131.43111532825228
 10
1135.3345636533602
 20
131.43111532825228
 10
1133.9472461769535
 20
128.69302009015695
 10
1131.0497389392688
 20
128.69302009015695
 10
1129.662421462862
 20
131.43111532825228
 10
1125.5966211098248
 20
131.43111532825228
 10
1118.660033727791
 20
125.95492485206175
 10
1114.5248015072582
 20
125.95492485206175
 10
1113.1458419362223
 20
123.23332529090172
 10
1090.1234330867746
 20
116.34871250047865
  0
LWPOLYLINE
  5
39
330
17
100
AcDbEntity
  8
M
100
AcDbPolyline
 90
98
 70
1
 10
1169.8907078857342
 20
651.6769480953429
 10
1168.5073108022523
 20
654.4073058044427
 10
1158.7960884674046
 20
654.4073058044427
 10
1156.017767398907
 20
659.8907714256333
 10
1133.820687776398
 20
662.6288666637284
 10
1132.4370564156757
 20
665.3596867568236
 10
1121.338516604421
 20
665.3596867568236
 10
1119.951199128014
 20
668.0977819949188
 10
1110.2399767931663
 20
668.0977819949188
 10
1108.8526593167596
 20
670.8358772330141
 10
1097.754119505505
 20
670.8358772330141
 10
1096.3668020290984
 20
673.5739724711093
 10
1086.6674136326938
 20
673.5739724711093
 10
1082.505461203473
 20
679.0501629472998
 10
1075.5570398829964
 20
679.0501629472998
 10
1073.437499810822
 20
683.2334178094852
 10
1073.437499810822
 20
694.1857987618662
 10
1070.6628648580079
 20
699.6619892380567
 10
1070.6628648580079
 20
718.8286559047233
 10
1067.8882299051943
 20
724.3048463809138
 10
1067.8882299051943
 20
743.4715130475804
 10
1065.8405639465363
 20
747.5129127314748
 10
1050.580071706061
 20
750.25100796957
 10
1049.1980078312668
 20
752.9787343758712
 10
1039.486785496419
 20
752.9787343758712
 10
1038.0994680200124
 20
755.7168296139664
 10
1028.3882456851647
 20
755.7168296139664
 10
1027.000928208758
 20
758.4549248520617
 10
1020.0643408267238
 20
758.4549248520617
 10
1017.9448007545493
 20
762.638179714247
 10
1017.9448007545493
 20
842.0907176089238
 10
1020.1087561652953
 20
846.3616333195516
 10
1024.3373316023726
 20
840.7977819949189
 10
1028.511117970036
 20
840.7977819949189
 10
1031.2857529228495
 20
835.3215915187282
 10
1035.4273028289188
 20
835.3215915187282
 10
1043.7512076873593
 20
827.1073058044425
 10
1047.9335626397312
 20
827.1073058044425
 10
1050.7172798560962
 20
821.6131900133876
 10
1059.0411847145372
 20
818.8750947752925
 10
1061.8067374037992
 20
813.4168296139665
 10
1067.347695646563
 20
813.4168296139665
 10
1072.848623583454
 20
805.2741019154097
 10
1076.9950352221072
 20
810.7298442171576
 10
1079.7737491144894
 20
807.9877237558532
 10
1086.6705756969845
 20
816.1549248520616
 10
1089.5530869319355
 20
816.1549248520616
 10
1090.9062478211022
 20
813.4842431587834
 10
1099.1789983792094
 20
821.6480482338013
 10
1113.0459733936955
 20
816.1743049991536
 10
1119.9934754521164
 20
824.401515840073
 10
1124.1619454321517
 20
821.6591327887088
 10
1132.5257721133069
 20
829.9128145873547
 10
1133.9197741551868
 20
827.1615262790342
 10
1140.787681482804
 20
832.5834962806331
 10
1144.9347476417793
 20
832.5834962806331
 10
1149.1165901749766
 20
838.0858576465251
 10
1154.6696521341407
 20
835.3458913508118
 10
1161.6531420992876
 20
843.6157189615965
 10
1163.019477039061
 20
840.9190361504457
 10
1164.345358373032
 20
843.5358772330139
 10
1168.5191447406953
 20
843.5358772330139
 10
1172.7477201777726
 20
849.0997285576467
 10
1174.1350376541795
 20
846.3616333195514
 10
1178.230367075543
 20
851.7501629472998
 10
1182.3804855663207
 20
851.7501629472998
 10
1184.4107945339663
 20
855.7573058044426
 10
1180.993168089914
 20
862.5025438996807
 10
1175.4438981842866
 20
862.5025438996807
 10
1172.669263231473
 20
867.9787343758711
 10
1169.9119228244404
 20
867.9787343758711
 10
1157.4260655367787
 20
881.6692105663475
 10
1154.6341360381844
 20
881.6692105663475
 10
1151.846798430311
 20
887.1704717851201
 10
1146.2924925894793
 20
889.9110518312057
 10
1137.2541037255348
 20
913.2386101641295
 10
1137.2541037255348
 20
918.717063277175
 10
1134.4870232506294
 20
926.9089840169627
 10
1127.5428813906872
 20
940.6143701904375
 10
1127.5428813906872
 20
946.0949521369544
 10
1121.9936114850598
 20
959.7854283274305
 10
1121.9936114850598
 20
965.3108142185251
 10
1128.3011958187049
 20
974.9933985705288
 10
1133.8560979345016
 20
972.2525243131919
 10
1137.9981602597452
 20
977.7025438996807
 10
1142.1601126889657
 20
977.7025438996807
 10
1146.322065118186
 20
983.1787343758712
 10
1151.8713350238133
 20
983.1787343758712
 10
1156.033287453034
 20
988.6549248520618
 10
1165.85554813431
 20
988.6549248520618
 10
1167.2428656107168
 20
985.9168296139665
 10
1174.1794529927508
 20
985.9168296139665
 10
1175.5725107033888
 20
983.1674050959618
 10
1189.4456854674568
 20
980.4293098578667
 10
1192.9468027818073
 20
973.5192890374952
 10
1192.9468027818073
 20
653.1143701904376
 10
1190.8230135356375
 20
648.9227288966823
 10
1169.8907078857342
 20
651.6769480953429
  0
LWPOLYLINE
  5
3A
330
17
100
AcDbEntity
  8
M
100
AcDbPolyline
 90
88
 70
1
 10
960.4204650550631
 20
323.10728202688864
 10
954.8808219587553
 20
328.5739724711093
 10
949.3111495299768
 20
328.5739724711093
 10
947.9238320535699
 20
331.31206770920465
 10
938.2126097187222
 20
331.31206770920465
 10
935.4379747659086
 20
336.788258185395
 10
929.900538798724
 20
336.788258185395
 10
925.7385863695037
 20
342.26444866158556
 10
921.5648000018405
 20
342.26444866158556
 10
919.4452599296659
 20
346.44770352377094
 10
919.4452599296659
 20
392.99532257139003
 10
917.4028475726201
 20
397.0263534234904
 10
909.0789427141793
 20
397.0263534234904
 10
907.6916252377724
 20
399.76444866158556
 10
889.656498044484
 20
399.76444866158556
 10
888.2691805680771
 20
402.50254389968075
 10
870.2340533747887
 20
402.50254389968075
 10
868.8467358983818
 20
405.2406391377761
 10
850.8116087050934
 20
405.2406391377761
 10
849.4242912286865
 20
407.9787343758713
 10
839.7003865767226
 20
407.9787343758713
 10
837.5868917106293
 20
414.93094049427805
 10
849.4022993005526
 20
440.994041082616
 10
852.2876418791313
 20
443.8413860159264
 10
855.0992707831607
 20
438.2921819985781
 10
884.2250725314849
 20
435.5548259678267
 10
889.7710586664914
 20
427.34540104253796
 10
895.3203285721187
 20
427.34540104253796
 10
900.8695984777459
 20
419.1311153282522
 10
905.0194600466784
 20
419.1311153282522
 10
910.5687299523056
 20
413.6549248520617
 10
913.3637674282708
 20
413.6549248520617
 10
916.1384023810843
 20
408.1787343758713
 10
918.9130373338979
 20
408.1787343758713
 10
920.266198223065
 20
405.508052682593
 10
922.9725200013988
 20
408.1787343758713
 10
932.7658095748147
 20
408.1787343758713
 10
935.4721313531486
 20
405.508052682593
 10
936.8252922423154
 20
408.1787343758713
 10
945.1491971007563
 20
408.1787343758713
 10
946.5365145771631
 20
410.91682961396646
 10
953.5959742440682
 20
410.91682961396646
 10
954.9218555780395
 20
408.29998853139836
 10
956.2477369120107
 20
410.91682961396646
 10
968.7335941996721
 20
410.91682961396646
 10
970.1319775285236
 20
413.6767651001663
 10
978.4759956390697
 20
410.93205373649675
 10
984.6491813207858
 20
417.70082016140555
 10
984.6491813207858
 20
428.63833665654295
 10
988.8111337500063
 20
436.85262237082867
 10
988.8111337500063
 20
475.185955704162
 10
992.3179912985878
 20
482.1073058044427
 10
999.377450965493
 20
482.1073058044427
 10
1000.7647684418996
 20
479.3692105663474
 10
1003.4165311098424
 20
479.3692105663474
 10
1004.8038485862492
 20
482.1073058044427
 10
1013.12775344469
 20
482.1073058044427
 10
1014.5150709210968
 20
484.8454010425379
 10
1017.4125781587815
 20
484.8454010425379
 10
1018.7998956351882
 20
482.1073058044427
 10
1025.6136107323512
 20
482.1073058044427
 10
1027.000928208758
 20
484.8454010425379
 10
1029.8940520694057
 20
484.8454010425379
 10
1039.6191609993712
 20
468.3933375228657
 10
1045.1716303419776
 20
465.653663633289
 10
1051.4404201883126
 20
453.2811937994001
 10
1051.4404201883126
 20
393.04309856130493
 10
1053.4858069634065
 20
389.0061972145039
 10
1081.2321564915428
 20
386.26810197640873
 10
1084.7421801278547
 20
379.340503090334
 10
1083.3487221456694
 20
373.8400740531539
 10
1083.3487221456694
 20
357.4000844761519
 10
1080.5740871928556
 20
351.92389399996136
 10
1080.5740871928556
 20
335.4895116760745
 10
1074.2853618730312
 20
325.8358772330141
 10
1070.007769977369
 20
325.8358772330141
 10
1068.620452500962
 20
328.5739724711093
 10
1049.1980078312668
 20
328.5739724711093
 10
1047.81069035486
 20
331.31206770920465
 10
1031.1747145764211
 20
331.31206770920465
 10
1027.0127621472004
 20
336.788258185395
 10
1007.5784835390626
 20
336.788258185395
 10
1006.191166062656
 20
339.52635342349026
 10
995.1950960131211
 20
339.52635342349026
 10
978.5062526769552
 20
323.057288755457
 10
975.7423760038729
 20
325.78476739172766
 10
971.6095166470217
 20
320.3468568354884
 10
960.4204650550631
 20
323.10728202688864
  0
LWPOLYLINE
  5
3B
330
17
100
AcDbEntity
  8
M
100
AcDbPolyline
 90
28
 70
1
 10
928.4987334939999
 20
106.7934960659466
 10
926.3818473117
 20
110.97151304758049
 10
926.3818473117
 20
116.44770352377101
 10
922.2198948824795
 20
124.66198923805675
 10
922.2198948824795
 20
146.56675114281862
 10
919.4452599296659
 20
152.042941619009
 10
919.4452599296659
 20
171.2096082856757
 10
915.2833075004455
 20
179.42389399996142
 10
915.2833075004455
 20
201.38749169417062
 10
922.9653481603741
 20
211.0358772330141
 10
931.3988946215592
 20
211.0358772330141
 10
932.7862120979661
 20
208.29778199491892
 10
938.3354820035933
 20
208.29778199491892
 10
939.72279948
 20
205.5596867568236
 10
959.1334102112528
 20
205.5596867568236
 10
963.2953626404731
 20
200.08349628063317
 10
977.180371342984
 20
200.08349628063317
 10
982.0745463679723
 20
190.42405094225725
 10
982.0745463679723
 20
171.2573842755906
 10
984.8491813207859
 20
165.78119379940017
 10
984.8491813207859
 20
154.82881284701924
 10
989.0111337500063
 20
146.6145271327335
 10
989.0111337500063
 20
130.18595570416204
 10
991.7857687028198
 20
124.70976522797164
 10
991.7857687028198
 20
108.28119379940019
 10
993.1851895686267
 20
105.51921056634752
 10
991.0507455260919
 20
101.30654031008993
 10
928.4987334939999
 20
106.7934960659466
  0
LWPOLYLINE
  5
3C
330
17
100
AcDbEntity
  8
M
100
AcDbPolyline
 90
379
 70
1
 10
1597.8982634004044
 20
24.649742770299714
 10
1596.0095978827358
 20
28.815714689809813
 10
1592.2787077433481
 20
39.78838889464711
 10
1592.2787077433481
 20
45.26354119128065
 10
1587.3159939815707
 20
58.94683104774342
 10
1586.0747642857941
 20
67.16045279795868
 10
1579.8571915354444
 20
83.61793555061293
 10
1581.7629413168913
 20
87.82159151872843
 10
1585.4869314158625
 20
87.82159151872843
 10
1587.9695914818437
 20
93.29778199491895
 10
1591.693581580815
 20
93.29778199491895
 10
1593.5175662527995
 20
97.32108249679078
 10
1592.281119655901
 20
108.23037639656121
 10
1587.303590933709
 20
119.20968675682367
 10
1590.4380200646124
 20
126.12353339662366
 10
1599.1360208421243
 20
131.60520084246332
 10
1605.9304020676107
 20
141.14230559698152
 10
1604.6939444668214
 20
154.7790443322538
 10
1599.7168912636134
 20
165.75730580444272
 10
1602.861195595569
 20
172.6929349196982
 10
1620.2582375461202
 20
175.43393256253594
 10
1625.3021560428099
 20
180.9968082080459
 10
1626.579744796624
 20
178.1787343758713
 10
1628.960134637372
 20
178.1787343758713
 10
1635.1223646909189
 20
183.61573253663136
 10
1636.9665889310045
 20
187.68367697973335
 10
1636.9665889310045
 20
212.28331558153303
 10
1635.140132735481
 20
216.31206770920465
 10
1627.6921525375383
 20
216.31206770920465
 10
1626.4508225045477
 20
219.05016294729987
 10
1611.554862108662
 20
219.05016294729987
 10
1610.3135320756721
 20
221.78825818539508
 10
1596.658901712777
 20
221.78825818539508
 10
1595.4175716797865
 20
224.5263534234903
 10
1587.9790807897791
 20
224.5263534234903
 10
1583.5759987911038
 20
231.4636462195268
 10
1586.0732737410146
 20
236.97207384702247
 10
1587.3142211194104
 20
258.8700833510829
 10
1589.8022383497153
 20
267.1020941172101
 10
1592.9711703346295
 20
274.092046303284
 10
1595.45383040061
 20
271.35395106518865
 10
1598.4853579083006
 20
278.0408198368762
 10
1598.4853579083006
 20
310.89796269401904
 10
1599.726687941291
 20
313.6360579321142
 10
1599.726687941291
 20
330.0073961487765
 10
1594.1533445938476
 20
336.83714259203333
 10
1586.063522377231
 20
357.4267550049567
 10
1587.3133876113866
 20
360.18367697973343
 10
1587.3133876113866
 20
376.6122484083049
 10
1589.7960476773671
 20
382.0884388844954
 10
1589.7960476773671
 20
395.772087458614
 10
1592.2682776768968
 20
403.95186359705247
 10
1586.072057578396
 20
412.1523454809993
 10
1586.072057578396
 20
464.2387424629757
 10
1590.4617408557601
 20
471.1549248520617
 10
1595.4175716797865
 20
471.1549248520617
 10
1597.2390710112338
 20
475.17274325094104
 10
1596.0026978423198
 20
480.6270662695468
 10
1596.0026978423198
 20
491.56902986724714
 10
1593.5129735630724
 20
497.0608024112131
 10
1596.650632928442
 20
506.75016294729977
 10
1605.3482119437099
 20
506.75016294729977
 10
1606.5895419767005
 20
509.488258185395
 10
1614.0375221746433
 20
509.488258185395
 10
1615.2788522076337
 20
512.2263534234903
 10
1620.2441723395955
 20
512.2263534234903
 10
1621.485502372586
 20
514.9644486615855
 10
1626.4508225045477
 20
514.9644486615855
 10
1627.6921525375383
 20
517.7025438996807
 10
1635.1373921496531
 20
517.7025438996807
 10
1646.3717290729428
 20
545.2363482468992
 10
1647.6178942114234
 20
542.4875878521035
 10
1649.3700925832316
 20
546.3525438996808
 10
1647.6178942114234
 20
550.2174999472581
 10
1645.1352341454428
 20
544.7413094710676
 10
1643.8294429664145
 20
547.6215915187283
 10
1641.3467829004333
 20
547.6215915187283
 10
1638.8641228344522
 20
553.0977819949189
 10
1628.933482570529
 20
553.0977819949189
 10
1627.7566136835762
 20
555.6936904234485
 10
1626.579744796624
 20
553.0977819949189
 10
1619.0028423066049
 20
553.0977819949189
 10
1617.7615122736145
 20
555.8358772330141
 10
1592.9349116138053
 20
555.8358772330141
 10
1591.6827357411064
 20
558.5978959574263
 10
1585.4802358133363
 20
561.3341602973136
 10
1578.6201155743397
 20
573.7147929867052
 10
1579.8692922231435
 20
581.9810023171661
 10
1586.0804127616545
 20
592.9412717815329
 10
1593.512626344103
 20
614.7996635363659
 10
1592.2787077433481
 20
617.521410819628
 10
1592.2787077433481
 20
639.4693912654477
 10
1593.5200377763388
 20
642.207486503543
 10
1593.5200377763388
 20
655.8547441529614
 10
1587.3133876113866
 20
669.5452203434377
 10
1587.3133876113866
 20
675.0646293606858
 10
1590.4393460763795
 20
681.9597916140807
 10
1595.412794403361
 20
684.7023690953116
 10
1599.1530946363675
 20
690.2025438996807
 10
1601.633711152674
 20
690.2025438996807
 10
1605.9321339018363
 20
696.9749404121808
 10
1604.6934855978204
 20
727.0289198216979
 10
1591.0373777103578
 20
743.459268934267
 10
1591.0373777103578
 20
746.255105551162
 10
1596.637847671354
 20
758.6084843656229
 10
1610.292478034249
 20
775.0370557941943
 10
1614.0375221746433
 20
783.2977819949189
 10
1616.5252055791902
 20
783.2977819949189
 10
1623.973185777133
 20
796.988258185395
 10
1627.8210748296144
 20
796.988258185395
 10
1629.062404862605
 20
794.2501629472998
 10
1638.9930451265284
 20
794.2501629472998
 10
1640.234375159519
 20
791.5120677092045
 10
1650.1650154234424
 20
791.5120677092045
 10
1651.406345456433
 20
788.7739724711092
 10
1661.3369857203568
 20
788.7739724711092
 10
1662.578315753347
 20
786.035877233014
 10
1672.5089560172707
 20
786.035877233014
 10
1673.7502860502614
 20
783.2977819949189
 10
1683.6809263141847
 20
783.2977819949189
 10
1684.9222563471753
 20
780.5596867568237
 10
1694.8528966110991
 20
780.5596867568237
 10
1696.0942266440893
 20
777.8215915187283
 10
1706.024866908013
 20
777.8215915187283
 10
1707.2661969410037
 20
775.0834962806331
 10
1717.196837204927
 20
775.0834962806331
 10
1718.4381672379177
 20
772.3454010425379
 10
1728.3688075018415
 20
772.3454010425379
 10
1729.6101375348317
 20
769.6073058044426
 10
1739.5407777987555
 20
769.6073058044426
 10
1740.782107831746
 20
766.8692105663474
 10
1750.7127480956694
 20
766.8692105663474
 10
1751.95407812866
 20
764.1311153282521
 10
1761.8847183925839
 20
764.1311153282521
 10
1763.126048425574
 20
761.3930200901569
 10
1773.0566886894978
 20
761.3930200901569
 10
1774.2980187224885
 20
758.6549248520616
 10
1784.2286589864118
 20
758.6549248520616
 10
1785.4699890194024
 20
755.9168296139665
 10
1795.4006292833262
 20
755.9168296139665
 10
1796.6419593163164
 20
753.1787343758713
 10
1806.5725995802402
 20
753.1787343758713
 10
1807.8139296132308
 20
750.440639137776
 10
1817.7445698771542
 20
750.440639137776
 10
1818.9858999101448
 20
747.7025438996807
 10
1828.9165401740686
 20
747.7025438996807
 10
1830.1578702070587
 20
744.9644486615855
 10
1840.0885104709826
 20
744.9644486615855
 10
1841.3298405039732
 20
742.2263534234903
 10
1851.2604807678965
 20
742.2263534234903
 10
1852.5018108008871
 20
739.488258185395
 10
1862.432451064811
 20
739.488258185395
 10
1863.673781097801
 20
736.7501629472998
 10
1873.604421361725
 20
736.7501629472998
 10
1874.8457513947155
 20
734.0120677092045
 10
1883.5350616256483
 20
734.0120677092045
 10
1884.7800166992147
 20
731.2659764458183
 10
1905.8826272600525
 20
728.527881207723
 10
1907.1203322524673
 20
725.7977819949189
 10
1917.0509725163906
 20
725.7977819949189
 10
1918.2923025493812
 20
723.0596867568237
 10
1928.222942813305
 20
723.0596867568237
 10
1929.4642728462957
 20
720.3215915187283
 10
1939.394913110219
 20
720.3215915187283
 10
1940.6362431432096
 20
717.5834962806331
 10
1950.566883407133
 20
717.5834962806331
 10
1951.8082134401236
 20
714.8454010425379
 10
1961.7388537040474
 20
714.8454010425379
 10
1962.980183737038
 20
712.1073058044426
 10
1972.9108240009614
 20
712.1073058044426
 10
1974.152154033952
 20
709.3692105663474
 10
1984.0827942978754
 20
709.3692105663474
 10
1985.324124330866
 20
706.6311153282522
 10
1995.2547645947898
 20
706.6311153282522
 10
1996.4960946277804
 20
703.8930200901569
 10
2006.4267348917037
 20
703.8930200901569
 10
2007.6680649246944
 20
701.1549248520616
 10
2017.5987051886177
 20
701.1549248520616
 10
2018.8400352216083
 20
698.4168296139665
 10
2028.7706754855321
 20
698.4168296139665
 10
2030.0120055185223
 20
695.6787343758713
 10
2036.2186556834745
 20
695.6787343758713
 10
2038.1161895869222
 20
691.4932007892572
 10
2038.1161895869222
 20
549.0690298672472
 10
2036.1541945374365
 20
544.7413094710676
 10
2034.8484033584082
 20
547.6215915187283
 10
2027.4004231604654
 20
547.6215915187283
 10
2026.159093127475
 20
550.3596867568236
 10
2017.5702426974854
 20
550.3596867568236
 10
1997.708962169638
 20
533.9311153282522
 10
1995.1258423027136
 20
533.9311153282522
 10
1993.884512269723
 20
536.6692105663474
 10
1979.0086980034425
 20
536.6692105663474
 10
1974.0301199237056
 20
542.1600230700024
 10
1966.5685940401443
 20
544.9030980980947
 10
1955.9749338801428
 20
565.5212465170839
 10
1969.1317753096462
 20
589.0144669781773
 10
1970.4281639349804
 20
586.1549248520616
 10
1975.3668320000988
 20
586.1549248520616
 10
1981.573482165051
 20
580.6787343758713
 10
1986.5388022970133
 20
580.6787343758713
 10
1992.7454524619654
 20
575.2025438996807
 10
1996.4960946277804
 20
575.2025438996807
 10
1997.7374246607703
 20
572.4644486615855
 10
2001.461414759742
 20
572.4644486615855
 10
2002.7027447927326
 20
569.7263534234903
 10
2006.4267348917037
 20
569.7263534234903
 10
2007.603603778656
 20
567.1304449949606
 10
2009.3655988281416
 20
571.0170103130667
 10
2009.3655988281416
 20
614.7833155815329
 10
2007.5391426326182
 20
618.8120677092046
 10
1985.3039782012613
 20
618.8120677092046
 10
1977.8714894894715
 20
610.6148673643773
 10
1971.671611325172
 20
607.8797596287586
 10
1967.93397101139
 20
602.3834962806332
 10
1965.3540676405473
 20
602.3834962806332
 10
1960.3744561665035
 20
607.8754485021535
 10
1946.7235567125979
 20
613.350142697029
 10
1938.049336904219
 20
621.5501629472998
 10
1935.5535335767815
 20
621.5501629472998
 10
1931.8158932629995
 20
627.0464262954252
 10
1925.6005146155392
 20
629.7883721479026
 10
1924.3700304222577
 20
632.5025438996807
 10
1915.6807201913243
 20
632.5025438996807
 10
1914.4321147935614
 20
635.256686958347
 10
1904.5014745296376
 20
637.9947821964423
 10
1903.26741986142
 20
640.7168296139665
 10
1892.204225726977
 20
640.7168296139665
 10
1884.7562455290342
 20
632.5025438996807
 10
1878.5430894268434
 20
632.5025438996807
 10
1872.2797284071264
 20
626.9763168603679
 10
1868.508061580486
 20
632.5226167716157
 10
1862.2987421165221
 20
635.2618895845247
 10
1857.346267321906
 20
643.4549248520617
 10
1854.8670814324018
 20
643.4549248520617
 10
1851.1430913334302
 20
648.9311153282522
 10
1847.4156270579822
 20
648.9311153282522
 10
1842.4503069260206
 20
657.145401042538
 10
1836.356461690878
 20
657.145401042538
 10
1831.3911415589162
 20
648.9311153282522
 10
1828.9165401740686
 20
648.9311153282522
 10
1826.4338801080876
 20
643.4549248520617
 10
1815.241763681569
 20
643.4549248520617
 10
1812.6865861739402
 20
640.6368510198871
 10
1811.408997420126
 20
643.4549248520617
 10
1807.8139296132308
 20
643.4549248520617
 10
1806.5725995802402
 20
640.7168296139665
 10
1803.981163351788
 20
640.7168296139665
 10
1801.5710207274544
 20
643.3749462579823
 10
1800.365949415288
 20
640.7168296139665
 10
1795.27170699125
 20
640.7168296139665
 10
1794.0948381042974
 20
643.3127380424961
 10
1792.9179692173452
 20
640.7168296139665
 10
1787.8237267933073
 20
640.7168296139665
 10
1784.0997366943361
 20
648.9311153282522
 10
1781.617076628355
 20
648.9311153282522
 10
1777.8753184848215
 20
657.1845933579684
 10
1771.7130884312749
 20
662.6215915187283
 10
1760.514466067517
 20
662.6215915187283
 10
1759.2731360345267
 20
665.3596867568236
 10
1739.4118555066793
 20
665.3596867568236
 10
1738.1705254736887
 20
668.0977819949188
 10
1733.2052053417272
 20
668.0977819949188
 10
1731.9584219380336
 20
670.8479061439054
 10
1718.321749391574
 20
673.5824003902227
 10
1713.3570308165176
 20
679.0579274167043
 10
1698.5712270540985
 20
681.775774255534
 10
1685.5855244308989
 20
653.1322309826417
 10
1688.6703012937812
 20
643.6061761381494
 10
1696.1143727736942
 20
635.3962013008828
 10
1700.4799270758838
 20
625.7667690557975
 10
1694.2615582000733
 20
601.0773839937093
 10
1687.3602141934425
 20
588.6223537271076
 10
1684.813480184704
 20
591.4311153282522
 10
1672.3800337251946
 20
591.4311153282522
 10
1671.138703692204
 20
594.1692105663474
 10
1667.543635885309
 20
594.1692105663474
 10
1665.726976367463
 20
590.1620677092045
 10
1668.7978713897444
 20
583.3883630426521
 10
1673.755620535592
 20
580.6544427782699
 10
1685.5923856367392
 20
562.7902224044893
 10
1683.6809263141847
 20
558.5739724711093
 10
1678.715606182223
 20
558.5739724711093
 10
1677.4742761492325
 20
555.8358772330141
 10
1666.3023058523186
 20
555.8358772330141
 10
1665.0669272918317
 20
553.1109096065037
 10
1652.653626961927
 20
550.3728143684085
 10
1650.8310159715775
 20
546.3525438996808
 10
1653.889005522414
 20
539.6073058044427
 10
1658.8543256543758
 20
539.6073058044427
 10
1660.0956556873664
 20
536.8692105663474
 10
1672.5089560172707
 20
536.8692105663474
 10
1673.7502860502614
 20
534.1311153282522
 10
1678.715606182223
 20
534.1311153282522
 10
1679.9569362152135
 20
531.3930200901569
 10
1688.6392445627544
 20
531.3930200901569
 10
1694.267770448566
 20
521.7367037367331
 10
1694.267770448566
 20
518.9499822481996
 10
1692.3702365451181
 20
514.7644486615856
 10
1684.9222563471753
 20
514.7644486615856
 10
1683.616465168147
 20
511.8841666139248
 10
1682.3106739891184
 20
514.7644486615856
 10
1678.715606182223
 20
514.7644486615856
 10
1677.4742761492325
 20
512.0263534234904
 10
1660.0956556873664
 20
512.0263534234904
 10
1658.8543256543758
 20
509.288258185395
 10
1656.2628894259235
 20
509.288258185395
 10
1653.8285354679797
 20
511.973077211334
 10
1648.3606093684982
 20
505.2725123076739
 10
1653.3038793598807
 20
497.09470483647124
 10
1653.3038793598807
 20
469.6746853171658
 10
1652.0675061909662
 20
464.22036229856013
 10
1653.889005522414
 20
460.20254389968073
 10
1667.543635885309
 20
460.20254389968073
 10
1668.7849659182996
 20
457.46444866158555
 10
1677.4742761492325
 20
457.46444866158555
 10
1679.3718100526803
 20
453.2789150749715
 10
1679.3718100526803
 20
447.79868946522384
 10
1684.3345238144577
 20
434.1153996087611
 10
1685.5829237244104
 20
425.85433021262753
 10
1681.1887769402683
 20
418.93111532825225
 10
1674.9916160832518
 20
418.93111532825225
 10
1673.178558609039
 20
414.93191777031103
 10
1677.472688777163
 20
408.1662844503927
 10
1688.6527946375481
 20
405.4261952983319
 10
1689.887576479137
 20
402.70254389968073
 10
1693.6115665781085
 20
402.70254389968073
 10
1695.5115720050956
 20
398.51155868726687
 10
1694.265358536013
 20
387.5160906822753
 10
1691.7819151340484
 20
382.03817234284975
 10
1690.5470810641652
 20
373.8668725352392
 10
1696.7553873786226
 20
360.17274325094104
 10
1695.5043777184292
 20
354.65385060780477
 10
1681.8544701186613
 20
324.54522034343756
 10
1681.8544701186613
 20
321.85034364640006
 10
1684.9222563471753
 20
315.08349628063314
 10
1687.4049164131563
 20
315.08349628063314
 10
1689.9034039016074
 20
309.5723940654648
 10
1693.6323114965921
 20
306.83068319680683
 10
1696.753311233806
 20
297.1927690176374
 10
1694.2645390001267
 20
283.46858765443307
 10
1688.0611202836135
 20
267.04856964519206
 10
1688.0611202836135
 20
261.5690298672473
 10
1685.5768429463023
 20
256.08927205375676
 10
1684.3355129133117
 20
239.66070062518543
 10
1681.8544701186613
 20
234.18807748629493
 10
1681.8544701186613
 20
226.01701031306666
 10
1683.695157797397
 20
221.956866729957
 10
1692.3844680283305
 20
216.48067625376657
 10
1694.265358536013
 20
212.3318542599433
 10
1695.5066885690035
 20
201.37947330756236
 10
1699.2330905805275
 20
193.15986745592386
 10
1699.2330905805275
 20
187.68032767797908
 10
1705.4523376746813
 20
171.2184130536959
 10
1695.5091004815563
 20
157.5105706154534
 10
1695.5091004815563
 20
138.39113507766157
 10
1700.4788881745205
 20
121.94778199491887
 10
1695.5029098092082
 20
105.48394606310387
 10
1689.2977275534768
 20
91.79670775066212
 10
1688.063657240889
 20
86.35254389968084
 10
1689.3074071806802
 20
80.86567788175397
 10
1687.4049164131563
 20
76.66921056634752
 10
1676.232946116242
 20
76.66921056634752
 10
1674.9916160832518
 20
73.9311153282523
 10
1670.0262959512897
 20
73.9311153282523
 10
1668.7707094294258
 20
71.16157347784663
 10
1662.5640592644734
 20
73.89966871594189
 10
1661.3369857203568
 20
71.19302009015705
 10
1656.3716655883948
 20
71.19302009015705
 10
1655.1303355554046
 20
68.45492485206178
 10
1650.155526115507
 20
68.45492485206178
 10
1641.4856107294531
 20
54.79500628411058
 10
1637.7745926553803
 20
52.06644883711009
 10
1635.9312036180856
 20
45.28961188154506
 10
1637.1665889310045
 20
42.56462936068581
 10
1637.1665889310045
 20
34.34351603004265
 10
1639.6558482046585
 20
26.107395760936875
 10
1637.749657409119
 20
21.90276701479066
 10
1597.8982634004044
 20
24.649742770299714
  0
LWPOLYLINE
  5
3D
330
17
100
AcDbEntity
  8
M
100
AcDbPolyline
 90
11
 70
1
 10
1673.6314492297688
 20
580.4787343758712
 10
1671.138703692204
 20
580.4787343758712
 10
1666.7487130450982
 20
590.1620677092045
 10
1668.6560436262234
 20
594.3692105663474
 10
1671.2676259842804
 20
594.3692105663474
 10
1672.5089560172707
 20
591.6311153282522
 10
1684.9222563471753
 20
591.6311153282522
 10
1688.0611202836135
 20
584.707486503543
 10
1688.0611202836135
 20
565.4976012958186
 10
1686.1146535717278
 20
561.2041329245702
 10
1673.6314492297688
 20
580.4787343758712
  0
LWPOLYLINE
  5
3E
330
17
100
AcDbEntity
  8
M
100
AcDbPolyline
 90
203
 70
1
 10
2536.4242926009347
 20
82.14540104253804
 10
2417.756290215391
 20
82.14540104253804
 10
2416.3265552468906
 20
84.88349628063324
 10
2351.988481664367
 20
84.88349628063324
 10
2349.8044748301004
 20
89.0661027389083
 10
2349.8044748301004
 20
94.54229321509877
 10
2348.3747398616
 20
97.28038845319404
 10
2348.3747398616
 20
113.75803267950094
 10
2350.538308071295
 20
117.9014969877659
 10
2362.002624347703
 20
128.87919232852266
 10
2369.1347763599533
 20
131.61095896952403
 10
2371.9852835406755
 20
137.06998480973013
 10
2390.5718381311817
 20
153.49855623830157
 10
2393.430357126311
 20
158.97292555919444
 10
2410.613613276721
 20
175.42681137614173
 10
2417.745765288971
 20
178.158578017143
 10
2419.8614882866264
 20
182.2104136318821
 10
2419.8614882866264
 20
206.85327077473917
 10
2422.7209582236273
 20
212.32946125092968
 10
2422.7209582236273
 20
226.01993744140583
 10
2424.9049650578936
 20
230.2025438996808
 10
2429.1941699633953
 20
230.2025438996808
 10
2430.6574891360283
 20
233.00495647730858
 10
2433.5841274812947
 20
230.2025438996808
 10
2456.3591343649055
 20
230.2025438996808
 10
2457.788869333406
 20
232.940639137776
 10
2482.094363797915
 20
232.940639137776
 10
2483.524098766415
 20
235.6787343758713
 10
2490.6932122334892
 20
235.6787343758713
 10
2493.5928391644034
 20
238.45528208111335
 10
2499.3519360323185
 20
232.940639137776
 10
2545.1034550243357
 20
232.940639137776
 10
2547.895756553072
 20
230.2668612392134
 10
2551.397105388675
 20
236.97231839378665
 10
2551.397105388675
 20
242.40392531497494
 10
2545.678165514673
 20
256.09440150545106
 10
2545.678165514673
 20
261.5661027389082
 10
2542.8186955776714
 20
267.04229321509865
 10
2542.8186955776714
 20
272.5184836912892
 10
2539.959225640671
 20
277.9946741674797
 10
2539.959225640671
 20
283.4708646436701
 10
2538.52949067217
 20
286.20895988176534
 10
2538.52949067217
 20
291.6851503579558
 10
2536.4512914436978
 20
295.66512394513154
 10
2529.3801580950253
 20
290.24833356747394
 10
2517.965899667187
 20
287.51589299839844
 10
2516.5291942788963
 20
284.76444866158556
 10
2507.9240891805944
 20
284.76444866158556
 10
2500.7754143380917
 20
279.288258185395
 10
2495.0831697513886
 20
279.288258185395
 10
2493.653434782888
 20
276.55016294729984
 10
2486.3919370881717
 20
276.55016294729984
 10
2480.6729972141693
 20
284.76444866158556
 10
2476.395862548484
 20
284.76444866158556
 10
2453.5201030524754
 20
306.66921056634743
 10
2447.8900181761346
 20
306.66921056634743
 10
2443.6008132706324
 20
301.1930200901569
 10
2439.3069940755418
 20
301.1930200901569
 10
2429.2988492960376
 20
290.240639137776
 10
2426.435452638792
 20
290.240639137776
 10
2417.824128461078
 20
281.99483615884316
 10
2410.634310660187
 20
287.50254389968075
 10
2404.915370786185
 20
287.50254389968075
 10
2397.7666959436824
 20
292.9787343758713
 10
2393.450795750882
 20
292.9787343758713
 10
2392.0210607823815
 20
295.7168296139665
 10
2386.3021209083795
 20
295.7168296139665
 10
2383.433646292087
 20
301.21026501318926
 10
2374.855236481084
 20
303.94836025128456
 10
2373.434506191875
 20
306.66921056634743
 10
2367.732914330567
 20
306.66921056634743
 10
2361.242354578105
 20
313.5748302722261
 10
2361.242354578105
 20
340.9708646436702
 10
2358.382884641104
 20
346.44705511986075
 10
2358.382884641104
 20
360.18660410807223
 10
2360.56689147537
 20
364.3692105663474
 10
2366.285831349372
 20
364.3692105663474
 10
2367.715566317873
 20
367.1073058044427
 10
2394.880530719383
 20
367.1073058044427
 10
2396.343849892016
 20
369.9097183820704
 10
2399.270488237282
 20
367.1073058044427
 10
2409.177880404388
 20
367.1073058044427
 10
2412.0187411112947
 20
372.54785761652545
 10
2422.026885890799
 20
380.76214333081117
 10
2425.5804281606283
 20
387.56755648902475
 10
2425.5804281606283
 20
398.4708646436701
 10
2422.7209582236273
 20
403.94705511986064
 10
2422.7209582236273
 20
425.86351450266244
 10
2421.284100221284
 20
431.36698772072526
 10
2436.323966591186
 20
457.42680068738406
 10
2439.2899217757354
 20
460.26686123921326
 10
2442.187113428555
 20
454.71842964650057
 10
2462.203402987562
 20
451.9803344084052
 10
2463.629000444377
 20
449.2501629472998
 10
2472.2074102553797
 20
449.2501629472998
 10
2473.6371452238805
 20
446.5120677092046
 10
2482.114802422486
 20
446.5120677092046
 10
2490.652334984347
 20
454.6872112734801
 10
2496.3686557617375
 20
465.6345763759878
 10
2507.8065355097415
 20
479.32505256646397
 10
2512.0983595118546
 20
487.54435413062293
 10
2514.9987066979984
 20
490.3215915187283
 10
2522.1269429159292
 20
490.3215915187283
 10
2523.55667788443
 20
493.0596867568237
 10
2529.2875153731693
 20
493.0596867568237
 10
2533.5767202786706
 20
498.53587723301405
 10
2537.8623959541906
 20
498.53587723301405
 10
2543.5813358281926
 20
506.75016294729977
 10
2546.4324373804384
 20
506.75016294729977
 10
2551.397105388675
 20
516.2580326795008
 10
2551.397105388675
 20
521.7342231556913
 10
2555.69354599653
 20
529.9623660131504
 10
2564.2569200112457
 20
557.2953264665514
 10
2562.1550829207667
 20
561.320569085278
 10
2543.5874368437258
 20
564.0558787984698
 10
2537.8744661940063
 20
569.5263534234904
 10
2530.7053527269327
 20
569.5263534234904
 10
2529.275617758432
 20
572.2644486615856
 10
2526.428045436168
 20
572.2644486615856
 10
2522.1388405306666
 20
577.7406391377759
 10
2514.9987066979984
 20
577.7406391377759
 10
2509.279766823996
 20
583.2168296139665
 10
2502.110653356922
 20
583.2168296139665
 10
2500.6752399096417
 20
585.9657997456958
 10
2486.396340406875
 20
588.700361576744
 10
2483.503660141844
 20
591.4702574782624
 10
2481.340091932149
 20
595.6137217865273
 10
2481.340091932149
 20
603.8356360122348
 10
2478.473791627681
 20
612.069543051851
 10
2483.5040320150865
 20
624.4554045668573
 10
2487.797604578558
 20
627.1962879821909
 10
2492.136092781551
 20
635.5049564773084
 10
2495.062731126817
 20
632.7025438996807
 10
2503.6615795623916
 20
632.7025438996807
 10
2505.0913145308923
 20
629.9644486615855
 10
2522.2481341528983
 20
629.9644486615855
 10
2523.677869121399
 20
627.2263534234903
 10
2529.396808995401
 20
627.2263534234903
 10
2530.8265439639017
 20
624.488258185395
 10
2542.137226895659
 20
624.488258185395
 10
2553.5751066436633
 20
651.8692105663474
 10
2557.9915083654114
 20
651.8692105663474
 10
2559.421243333912
 20
649.1311153282522
 10
2565.140183207914
 20
649.1311153282522
 10
2566.5755966551947
 20
646.382145196523
 10
2580.8622894280275
 20
643.6460908709824
 10
2585.1445751521846
 20
638.1787343758713
 10
2589.4456776724232
 20
638.1787343758713
 10
2590.881671881115
 20
635.4286520239827
 10
2603.7492865976196
 20
632.6905567858876
 10
2605.172762325929
 20
629.9644486615855
 10
2612.3214371684317
 20
629.9644486615855
 10
2613.751172136932
 20
627.2263534234903
 10
2619.3489207739653
 20
627.2263534234903
 10
2620.8122399465983
 20
630.028766001118
 10
2623.6717098835993
 20
627.2906707630228
 10
2625.067860647968
 20
629.9644486615855
 10
2632.3249327553985
 20
629.9644486615855
 10
2644.5488533941257
 20
614.816727707096
 10
2643.1001433727083
 20
612.0422932150989
 10
2643.1001433727083
 20
606.5705919816415
 10
2637.3797212259337
 20
592.8765674027319
 10
2635.950216920186
 20
573.7129929427949
 10
2630.224561986977
 20
557.2651314303504
 10
2622.289781575098
 20
542.0691790757106
 10
2618.5946489081994
 20
546.315123414601
 10
2618.5946489081994
 20
595.6137217865274
 10
2616.5500464554484
 20
599.5293539582341
 10
2614.505444002698
 20
595.6137217865274
 10
2614.505444002698
 20
488.8770802985485
 10
2616.5500464554484
 20
484.96144812684184
 10
2618.5946489081994
 20
488.8770802985485
 10
2618.5946489081994
 20
529.948508869977
 10
2620.8487803637963
 20
534.2654114712215
 10
2633.091998593205
 20
505.3013824028576
 10
2633.091998593205
 20
499.7741902714027
 10
2614.5036780663354
 20
472.3906363851952
 10
2613.0773490612355
 20
447.8064842970204
 10
2623.083853813701
 20
431.3806050058966
 10
2623.083853813701
 20
428.5936344037761
 10
2615.9459428274326
 20
412.1897996970286
 10
2617.364913939699
 20
409.4723183937865
 10
2617.364913939699
 20
401.2089598817655
 10
2614.505444002698
 20
395.732769405575
 10
2614.505444002698
 20
387.51848369128925
 10
2613.075709034197
 20
384.78038845319406
 10
2613.075709034197
 20
368.40088982235795
 10
2615.191432031853
 20
364.3490542076191
 10
2629.479302928962
 20
358.87649430976256
 10
2633.717483367919
 20
353.465448703985
 10
2636.5261790205427
 20
356.1549248520617
 10
2665.100439765982
 20
356.1549248520617
 10
2666.530174734483
 20
358.893020090157
 10
2675.116952930241
 20
358.893020090157
 10
2680.835892804243
 20
367.1073058044427
 10
2687.9761992619906
 20
367.1073058044427
 10
2690.8170599688974
 20
372.54785761652545
 10
2700.9360915364114
 20
380.85315477985813
 10
2703.1490120497306
 20
376.6151755366437
 10
2703.1490120497306
 20
80.85181702462258
 10
2700.9644709935656
 20
76.66818747432707
 10
2537.8534987577664
 20
79.40831853529457
 10
2536.4242926009347
 20
82.14540104253804
  0
LWPOLYLINE
  5
3F
330
17
100
AcDbEntity
  8
M
100
AcDbPolyline
 90
7
 70
1
 10
2618.5946489081994
 20
160.30565172712
 10
2618.5946489081994
 20
277.9946741674797
 10
2616.5500464554484
 20
281.9103063391863
 10
2614.505444002698
 20
277.9946741674797
 10
2614.505444002698
 20
160.30565172712
 10
2616.5500464554484
 20
156.39001955541323
 10
2618.5946489081994
 20
160.30565172712
  0
LWPOLYLINE
  5
40
330
17
100
AcDbEntity
  8
M
100
AcDbPolyline
 90
66
 70
1
 10
3168.8825376643317
 20
282.0407898666776
 10
3168.2553239962062
 20
284.76444866158556
 10
3165.1026332825722
 20
284.76444866158556
 10
3164.1364149927276
 20
288.96022607632176
 10
3164.1364149927276
 20
327.3162902944684
 10
3165.0969922136524
 20
331.487571516348
 10
3172.6634499263737
 20
334.2256667544432
 10
3173.2996291380205
 20
336.988258185395
 10
3176.4523198516545
 20
336.988258185395
 10
3177.0828579943814
 20
339.7263534234902
 10
3180.866086850742
 20
339.7263534234902
 10
3181.4966249934687
 20
342.46444866158555
 10
3184.6493157071027
 20
342.46444866158555
 10
3185.276529375228
 20
345.1881074564933
 10
3199.3069854521427
 20
347.95751132463346
 10
3199.9414089810375
 20
345.20254389968073
 10
3203.0940996946715
 20
345.20254389968073
 10
3203.728261929915
 20
342.44871113551034
 10
3216.339024784451
 20
339.71061589741504
 10
3216.971216225564
 20
336.96534125472476
 10
3225.1682120810124
 20
334.2272460166296
 10
3225.793472832836
 20
331.5120677092046
 10
3231.468316117377
 20
331.5120677092046
 10
3232.0988542601035
 20
328.7739724711093
 10
3235.2515449737375
 20
328.7739724711093
 10
3235.8820831164644
 20
326.0358772330141
 10
3239.0347738300984
 20
326.0358772330141
 10
3239.658995861693
 20
323.32520954076205
 10
3248.486529859868
 20
326.06330477885723
 10
3249.123384113727
 20
323.29778199491886
 10
3255.428765540995
 20
323.29778199491886
 10
3256.0593036837217
 20
320.55968675682357
 10
3262.3646851109897
 20
320.55968675682357
 10
3262.9952232537166
 20
317.8215915187283
 10
3269.300604680984
 20
317.8215915187283
 10
3269.935125004861
 20
315.06620376411985
 10
3281.284811573944
 20
312.32810852602466
 10
3284.1386621108177
 20
299.93533791351604
 10
3284.1386621108177
 20
294.4591474373255
 10
3284.771817527351
 20
291.7096867568236
 10
3283.7233930394545
 20
287.1569310973516
 10
3283.0132659724813
 20
290.240639137776
 10
3264.7276598334047
 20
290.240639137776
 10
3264.097121690678
 20
292.9787343758713
 10
3245.811515551601
 20
292.9787343758713
 10
3245.1809774088742
 20
295.7168296139665
 10
3226.910920482987
 20
295.7168296139665
 10
3225.7069959364508
 20
298.3308348933622
 10
3221.3599059661005
 20
290.240639137776
 10
3219.9594516998027
 20
290.240639137776
 10
3219.328913557076
 20
292.9787343758713
 10
3209.8708414161742
 20
292.9787343758713
 10
3209.240303273447
 20
295.7168296139665
 10
3208.1166331032405
 20
295.7168296139665
 10
3204.896244110686
 20
290.12304794220603
 10
3203.6767616256307
 20
292.77083319024024
 10
3203.0940996946715
 20
290.240639137776
 10
3197.4037071969406
 20
290.240639137776
 10
3194.8175149149774
 20
284.6254032843035
 10
3193.5564386295237
 20
287.36349852239874
 10
3191.0742181740848
 20
281.97401012479963
 10
3187.2909893177243
 20
284.71210536289493
 10
3184.7289046313485
 20
279.149212808113
 10
3183.4995410583733
 20
281.81845223785916
 10
3182.9129937412463
 20
279.27138599853754
 10
3168.8825376643317
 20
282.0407898666776
  0
LWPOLYLINE
  5
41
330
17
100
AcDbEntity
  8
M
100
AcDbPolyline
 90
39
 70
1
 10
3165.1017845990855
 20
13.696705475791521
 10
3164.1364149927276
 20
17.888797504893223
 10
3164.1364149927276
 20
220.53057600875417
 10
3165.1026332825722
 20
224.72635342349025
 10
3174.6981115387202
 20
224.72635342349025
 10
3177.86007713241
 20
219.23405257858843
 10
3186.687611130585
 20
216.49595734049322
 10
3189.8310269641634
 20
211.0358772330141
 10
3194.8815546260334
 20
211.0358772330141
 10
3197.410951565174
 20
205.54395751792566
 10
3207.4995618488024
 20
202.80586227983048
 10
3210.0144700514766
 20
197.345401042538
 10
3216.965938834661
 20
197.345401042538
 10
3217.5964769773877
 20
194.60730580444266
 10
3235.2515449737375
 20
194.60730580444266
 10
3235.8820831164644
 20
191.86921056634745
 10
3240.2888703052345
 20
191.86921056634745
 10
3253.242293117205
 20
152.08269835081802
 10
3253.242293117205
 20
110.9796796209204
 10
3251.0155411407522
 20
104.07281414251504
 10
3243.459747871157
 20
101.33857807631367
 10
3242.524719940995
 20
94.57135457420468
 10
3245.3401552573664
 20
82.34540104253801
 10
3250.9994493287177
 20
82.34540104253801
 10
3253.521601899625
 20
76.86921056634749
 10
3257.320379969175
 20
76.86921056634749
 10
3257.950918111902
 20
74.13111532825228
 10
3260.473070682809
 20
74.13111532825228
 10
3261.103608825536
 20
71.39302009015702
 10
3264.25629953917
 20
71.39302009015702
 10
3264.886837681897
 20
68.65492485206175
 10
3270.546131753248
 20
68.65492485206175
 10
3273.0682843241552
 20
63.17873437587132
 10
3278.106366945914
 20
63.17873437587132
 10
3281.295343881624
 20
57.63951511512869
 10
3282.2470476826375
 20
53.50676648494468
 10
3282.2470476826375
 20
12.412607028702727
 10
3281.2799482352534
 20
8.21300321061258
 10
3165.1017845990855
 20
13.696705475791521
  0
LWPOLYLINE
  5
42
330
17
100
AcDbEntity
  8
M
100
AcDbPolyline
 90
147
 70
1
 10
3984.288465855691
 20
2.7431199286263586
 10
3982.8771689130745
 20
5.478734375871347
 10
3946.1501727195114
 20
5.478734375871347
 10
3944.737595942836
 20
8.216829613966581
 10
3936.2621352827828
 20
8.216829613966581
 10
3934.1042037032194
 20
12.399697603659193
 10
3934.1042037032194
 20
696.9720568623691
 10
3936.274141359015
 20
701.1781970597759
 10
3951.9320864805322
 20
695.6598556617266
 10
3953.3349237737875
 20
692.940639137776
 10
3958.958523372255
 20
692.940639137776
 10
3966.0214072556323
 20
687.4644486615855
 10
3970.2858450938934
 20
687.4644486615855
 10
3971.6984218705693
 20
684.7263534234903
 10
3977.3220214690364
 20
684.7263534234903
 10
3984.3849053524136
 20
679.2501629472998
 10
3988.649343190675
 20
679.2501629472998
 10
3990.0619199673506
 20
676.5120677092045
 10
3995.6855195658172
 20
676.5120677092045
 10
4002.7484034491954
 20
671.035877233014
 10
4007.012841287456
 20
671.035877233014
 10
4008.4254180641315
 20
668.2977819949189
 10
4014.0490176625995
 20
668.2977819949189
 10
4021.1119015459767
 20
662.8215915187284
 10
4026.762208652679
 20
662.8215915187284
 10
4033.8250925360553
 20
657.3454010425379
 10
4038.0895303743173
 20
657.3454010425379
 10
4039.5021071509927
 20
654.6073058044426
 10
4045.1257067494594
 20
654.6073058044426
 10
4052.188590632837
 20
649.1311153282522
 10
4056.4530284710986
 20
649.1311153282522
 10
4057.865605247774
 20
646.3930200901569
 10
4063.489204846241
 20
646.3930200901569
 10
4070.5520887296184
 20
640.9168296139665
 10
4074.8067226850067
 20
640.9168296139665
 10
4079.822967068126
 20
633.9715915187284
 10
4074.823581294063
 20
627.0496950003571
 10
4064.942525849735
 20
621.5773712894912
 10
4062.103335577801
 20
616.0739724711093
 10
4057.865605247774
 20
616.0739724711093
 10
4055.0531118593362
 20
610.6223220679504
 10
4049.402804752634
 20
607.8842268298553
 10
4047.3179678049514
 20
603.8430432192258
 10
4049.411898438489
 20
597.0783590013937
 10
4055.048856703583
 20
594.3467325089699
 10
4062.8468461309453
 20
581.9796017040842
 10
4064.2633722202063
 20
560.0135979940624
 10
4059.203007890228
 20
553.0072736533626
 10
4057.804671662325
 20
555.7177654511174
 10
4054.979518108974
 20
550.241574974927
 10
4053.5669413322985
 20
552.9796702130222
 10
4052.2152981410723
 20
550.3596867568236
 10
4046.56499103437
 20
550.3596867568236
 10
4044.485192283908
 20
546.3282690322307
 10
4044.485192283908
 20
538.1677057522795
 10
4051.548076167285
 20
527.2153247998987
 10
4051.548076167285
 20
518.9473166512782
 10
4048.7229226139343
 20
513.4711261750878
 10
4048.7229226139343
 20
491.56424193100236
 10
4033.1982712904687
 20
464.2074191092042
 10
4039.522533050122
 20
451.9486652527747
 10
4045.141510242266
 20
446.502839246423
 10
4056.4600272639886
 20
443.76040622692227
 10
4057.865605247774
 20
441.03587723301405
 10
4070.5787962378536
 20
441.03587723301405
 10
4071.991373014529
 20
438.29778199491886
 10
4079.0542568979067
 20
438.29778199491886
 10
4080.466833674582
 20
435.5596867568237
 10
4091.7674478879862
 20
435.5596867568237
 10
4093.1800246646617
 20
432.8215915187283
 10
4097.410490167344
 20
432.8215915187283
 10
4103.813416904278
 20
423.1684082578404
 10
4103.813416904278
 20
420.3758880798497
 10
4096.005178218013
 20
405.2406391377761
 10
4091.7674478879862
 20
405.2406391377761
 10
4090.321057354054
 20
402.4370003559564
 10
4087.495903800703
 20
405.17509559405175
 10
4086.0562071958348
 20
402.38443211778406
 10
4084.6436304191593
 20
405.1225273558794
 10
4083.291987227933
 20
402.50254389968075
 10
4063.5159123544763
 20
402.50254389968075
 10
4062.103335577801
 20
399.76444866158556
 10
4059.156314853551
 20
399.76444866158556
 10
4057.777551834132
 20
402.4370003559564
 10
4054.952398280781
 20
399.6989051178612
 10
4053.5669413322985
 20
402.38443211778406
 10
4051.548076167285
 20
398.4711261750877
 10
4051.548076167285
 20
393.0434854337976
 10
4052.9606529439607
 20
390.30539019570233
 10
4052.9606529439607
 20
379.35300924332137
 10
4054.385753066625
 20
376.590639137776
 10
4052.1814843838156
 20
372.3179527369088
 10
4049.3563308304647
 20
375.05604797500405
 10
4047.9775678110454
 20
372.38349628063315
 10
4045.1524142576945
 20
372.38349628063315
 10
4041.6600387305566
 20
365.6139833179449
 10
4041.6600387305566
 20
327.3291997195119
 10
4047.3228691832473
 20
316.3525438996808
 10
4045.8965253407423
 20
313.5877630059718
 10
4044.483948564067
 20
286.2068106250194
 10
4041.670714623776
 20
280.7537247589985
 10
4049.415432827386
 20
263.01212508810033
 10
4057.1983832739875
 20
253.41179627081624
 10
4057.1983832739875
 20
242.39969760365923
 10
4055.7858064973116
 20
239.66160236556402
 10
4055.7858064973116
 20
215.01874522270683
 10
4052.2152981410723
 20
208.09778199491893
 10
4049.3901445877214
 20
208.09778199491893
 10
4044.485192283908
 20
198.59017379413538
 10
4044.485192283908
 20
193.11398331794496
 10
4041.6600387305566
 20
187.63779284175445
 10
4041.6600387305566
 20
182.16916116510808
 10
4038.843344027363
 20
173.97947001203622
 10
4040.9216827205582
 20
169.95088241739833
 10
4052.2222969339623
 20
167.212787179303
 10
4053.6278749177477
 20
164.48825818539507
 10
4067.7536426845027
 20
164.48825818539507
 10
4069.166219461178
 20
161.75016294729986
 10
4076.229103344556
 20
161.75016294729986
 10
4077.6461400630888
 20
159.00342269552118
 10
4096.0096381598705
 20
156.26532745742585
 10
4098.163109797576
 20
152.09110448141675
 10
4098.163109797576
 20
132.8608925512678
 10
4091.710276733714
 20
125.91201893717222
 10
4088.9084805773787
 20
128.62747654643272
 10
4087.52971755796
 20
125.95492485206175
 10
4080.466833674582
 20
125.95492485206175
 10
4079.02044314065
 20
123.1512860702423
 10
4076.195289587299
 20
125.88938130833752
 10
4074.8165265678804
 20
123.21682961396654
 10
4064.9284891311518
 20
123.21682961396654
 10
4063.4820985972196
 20
120.41319083214711
 10
4060.6569450438687
 20
123.1512860702423
 10
4057.2074358737236
 20
116.46486393128455
 10
4064.273510204006
 20
97.28953929524292
 10
4059.2809875666126
 20
90.3771451285525
 10
4052.2258551707423
 20
87.64205493929894
 10
4050.802721364397
 20
84.88349628063324
 10
4046.577784733311
 20
84.88349628063324
 10
4044.490379340938
 20
78.13989260635462
 10
4050.149550717319
 20
61.68554783753169
 10
4043.722509432495
 20
54.76444866158561
 10
4039.5021071509927
 20
54.76444866158561
 10
4036.0192270638668
 20
48.013341366829835
 10
4052.9701483839726
 20
4.203817557306033
 10
4050.801408972643
 20
0.0
 10
3984.288465855691
 20
2.7431199286263586
  0
LWPOLYLINE
  5
43
330
17
100
AcDbEntity
  8
M
100
AcDbPolyline
 90
20
 70
1
 10
4907.951619223661
 20
550.3768826032962
 10
4903.396156891203
 20
560.0472411120223
 10
4912.055526512886
 20
575.3399572028671
 10
4913.062983866045
 20
572.59028289708
 10
4925.101562437181
 20
591.7569495637467
 10
4926.081020234112
 20
589.0836950290734
 10
4927.014373434015
 20
591.6311153282522
 10
4932.144322006476
 20
591.6311153282522
 10
4937.1603964111155
 20
586.1549248520616
 10
4945.195941750309
 20
586.1549248520616
 10
4949.756569935919
 20
579.239692989234
 10
4949.756569935919
 20
560.0252772309125
 10
4947.2183944146245
 20
553.0977819949189
 10
4932.170171200705
 20
553.0977819949189
 10
4931.1669563197775
 20
550.3596867568236
 10
4921.134807510498
 20
550.3596867568236
 10
4920.091406625994
 20
547.5119110234301
 10
4918.084976864137
 20
550.2500062615254
 10
4917.113478874429
 20
547.5984765942436
 10
4907.951619223661
 20
550.3768826032962
  0
LWPOLYLINE
  5
44
330
17
100
AcDbEntity
  8
M
100
AcDbPolyline
 90
41
 70
1
 10
5743.057726857243
 20
733.8120677092046
 10
5737.90864828725
 20
733.8120677092046
 10
5735.321527578793
 20
739.3181223001311
 10
5721.591881200914
 20
747.5363033267797
 10
5720.744760022617
 20
750.2406391377759
 10
5719.02936768491
 20
750.2406391377759
 10
5717.313975347204
 20
755.7168296139664
 10
5711.310102165229
 20
755.7168296139664
 10
5709.134537187364
 20
762.6620677092045
 10
5711.310102165229
 20
769.6073058044426
 10
5713.172428098696
 20
769.6073058044426
 10
5714.03012426755
 20
766.8692105663474
 10
5720.033997449523
 20
766.8692105663474
 10
5720.899443779287
 20
764.1063738411684
 10
5727.761013130115
 20
761.3682786030732
 10
5728.610959138057
 20
758.6549248520616
 10
5734.614832320031
 20
758.6549248520616
 10
5736.330224657739
 20
753.1787343758713
 10
5742.334097839712
 20
753.1787343758713
 10
5743.191794008566
 20
750.440639137776
 10
5746.62257868398
 20
750.440639137776
 10
5747.480274852833
 20
747.7025438996807
 10
5750.911059528246
 20
747.7025438996807
 10
5751.7687556971
 20
744.9644486615855
 10
5757.772628879075
 20
744.9644486615855
 10
5759.488021216781
 20
739.488258185395
 10
5765.4737823502255
 20
739.488258185395
 10
5768.913023130075
 20
733.9985701443734
 10
5779.22052333411
 20
731.2564455387313
 10
5780.531001614717
 20
727.0728960837375
 10
5779.165863846229
 20
719.8094902317548
 10
5778.210403335796
 20
722.8596867568236
 10
5776.641944593849
 20
722.8596867568236
 10
5775.784248424996
 20
720.1215915187283
 10
5773.0642263226755
 20
720.1215915187283
 10
5772.241435831282
 20
722.7482544423231
 10
5768.040219180663
 20
717.3834962806332
 10
5765.491894398755
 20
717.3834962806332
 10
5764.617086832456
 20
714.5907748968665
 10
5747.330508318185
 20
725.6278530678371
 10
5743.057726857243
 20
733.8120677092046
  0
LWPOLYLINE
  5
45
330
17
100
AcDbEntity
  8
M
100
AcDbPolyline
 90
5
 70
1
 10
5774.853085458262
 20
884.8418400098382
 10
5776.244421065155
 20
880.4001629472997
 10
5774.853085458262
 20
875.9584858847613
 10
5773.461749851371
 20
880.4001629472997
 10
5774.853085458262
 20
884.8418400098382
  0
LWPOLYLINE
  5
46
330
17
100
AcDbEntity
  8
M
100
AcDbPolyline
 90
104
 70
1
 10
5713.900318468699
 20
802.27419938598
 10
5701.0132521844625
 20
805.0168967114643
 10
5699.698045128969
 20
809.215542230156
 10
5702.790965666658
 20
816.2682486576334
 10
5704.577354361633
 20
813.4168296139665
 10
5713.043606551465
 20
813.4168296139665
 10
5714.844879920659
 20
816.2920074530439
 10
5715.745516605257
 20
813.4168296139665
 10
5717.313975347204
 20
813.4168296139665
 10
5718.171671516056
 20
816.1549248520616
 10
5720.891693618377
 20
816.1549248520616
 10
5721.74938978723
 20
813.4168296139665
 10
5723.317848529177
 20
813.4168296139665
 10
5724.570589151626
 20
817.4160583122617
 10
5717.305825364072
 20
832.4225904074209
 10
5711.301507294291
 20
837.8991866700594
 10
5706.173890039674
 20
848.8120677092046
 10
5704.448532814402
 20
848.8120677092046
 10
5701.8668209033385
 20
857.0538826391531
 10
5695.865965071702
 20
859.7906018001163
 10
5690.729618883927
 20
873.4549248520618
 10
5688.1704176547155
 20
873.4549248520618
 10
5684.739632979302
 20
878.9311153282522
 10
5680.44300497407
 20
878.9311153282522
 10
5677.86213472105
 20
884.4238673512941
 10
5668.43426416369
 20
887.1599928015954
 10
5665.012621095673
 20
892.6215915187283
 10
5661.563724371731
 20
892.6215915187283
 10
5659.848332034025
 20
898.0977819949187
 10
5658.132939696317
 20
898.0977819949187
 10
5655.962166072063
 20
905.0277242511581
 10
5655.962166072063
 20
913.2372617710289
 10
5652.53138139665
 20
921.4515474853147
 10
5652.53138139665
 20
932.4392683101079
 10
5653.887399367794
 20
936.7681979292341
 10
5655.6027917055
 20
934.0301026911391
 10
5657.3044233784985
 20
939.4623638461075
 10
5659.877511885059
 20
936.7242686080122
 10
5660.706028202878
 20
939.3692105663474
 10
5667.567597553705
 20
939.3692105663474
 10
5668.498760520438
 20
942.3418400098383
 10
5669.429923487171
 20
939.3692105663474
 10
5671.856078397972
 20
939.3692105663474
 10
5672.70407070255
 20
942.0763273466513
 10
5677.9928259936505
 20
944.8902833456569
 10
5678.864581344559
 20
942.1073058044427
 10
5683.143097301261
 20
942.1073058044427
 10
5685.7233897625565
 20
936.6157834699775
 10
5696.023994955328
 20
933.875493157779
 10
5696.8762008904805
 20
931.1549248520616
 10
5702.022377903601
 20
931.1549248520616
 10
5702.8800740724555
 20
928.4168296139663
 10
5708.0262510855755
 20
928.4168296139663
 10
5708.883947254429
 20
925.6787343758713
 10
5714.03012426755
 20
925.6787343758713
 10
5714.887820436403
 20
922.9406391377759
 10
5720.033997449523
 20
922.9406391377759
 10
5720.90031702288
 20
920.1750146840179
 10
5726.904190204854
 20
917.4369194459226
 10
5727.753262969203
 20
914.7263534234902
 10
5732.041743813471
 20
914.7263534234902
 10
5732.905872434678
 20
911.967723329582
 10
5750.059795811747
 20
906.4915328533914
 10
5750.911059528246
 20
903.7739724711093
 10
5756.057236541367
 20
903.7739724711093
 10
5756.9149327102205
 20
901.035877233014
 10
5762.0542484570415
 20
901.035877233014
 10
5765.496935433907
 20
892.7930939841906
 10
5770.647775276151
 20
890.0525178228418
 10
5772.811736095036
 20
883.144324655166
 10
5771.505256931494
 20
876.1930200901569
 10
5769.633441647262
 20
876.1930200901569
 10
5768.849212276288
 20
878.6965811228566
 10
5767.207286736461
 20
873.4549248520618
 10
5765.491894398755
 20
873.4549248520618
 10
5764.634198229901
 20
870.7168296139664
 10
5758.605561323275
 20
870.7168296139664
 10
5754.330483843426
 20
865.257754610421
 10
5747.488025013743
 20
862.5272853867644
 10
5746.62257868398
 20
859.7644486615854
 10
5744.760252750513
 20
859.7644486615854
 10
5743.97602337954
 20
862.2680096942852
 10
5742.334097839712
 20
857.0263534234903
 10
5740.6187055020055
 20
857.0263534234903
 10
5739.768759494062
 20
854.3129996724788
 10
5732.914097479886
 20
851.5776607929693
 10
5731.642319990072
 20
844.8109913218327
 10
5732.899439982325
 20
840.7977819949189
 10
5734.614832320031
 20
840.7977819949189
 10
5737.197624690867
 20
832.5525178228417
 10
5742.339138874865
 20
829.8169035080001
 10
5745.785466314022
 20
821.5654039449109
 10
5747.0779599705265
 20
817.4392683101081
 10
5747.0779599705265
 20
809.2297307902375
 10
5750.508744645939
 20
801.0154450759517
 10
5750.508744645939
 20
798.2310562502088
 10
5746.553636689525
 20
791.2164884561602
 10
5744.833719548392
 20
793.9618061485243
 10
5743.173681960036
 20
791.3120677092046
 10
5734.467898724271
 20
791.3120677092046
 10
5733.653143071162
 20
793.9130803463175
 10
5732.008717680771
 20
791.2882619698686
 10
5718.18303187629
 20
796.8053736580399
 10
5713.900318468699
 20
802.27419938598
  0
LWPOLYLINE
  5
47
330
17
100
AcDbEntity
  8
M
100
AcDbPolyline
 90
56
 70
1
 10
5629.841832568592
 20
345.00254389968075
 10
5624.682789111034
 20
345.00254389968075
 10
5623.82509294218
 20
347.740639137776
 10
5616.130591147152
 20
347.740639137776
 10
5611.842110302885
 20
353.2168296139665
 10
5604.0980810585515
 20
353.2168296139665
 10
5603.232634728788
 20
355.97966633914547
 10
5596.371065377961
 20
358.71776157724076
 10
5595.521119370018
 20
361.43111532825225
 10
5585.238730231341
 20
361.43111532825225
 10
5582.6656417247805
 20
366.90730580444273
 10
5574.936411317536
 20
366.90730580444273
 10
5574.078715148682
 20
369.64540104253797
 10
5569.814998029067
 20
369.64540104253797
 10
5565.5131138203815
 20
375.1387069913733
 10
5558.62552661176
 20
377.88718460249305
 10
5556.057606251994
 20
391.55016294729984
 10
5554.345940840392
 20
391.55016294729984
 10
5551.772852333833
 20
402.50254389968075
 10
5550.063222420787
 20
402.50254389968075
 10
5548.750144965386
 20
406.69439091782476
 10
5548.750144965386
 20
412.201173072013
 10
5550.063222420787
 20
416.393020090157
 10
5564.790990887054
 20
416.393020090157
 10
5565.648687055907
 20
413.6549248520617
 10
5577.656433419856
 20
413.6549248520617
 10
5578.514129588709
 20
410.91682961396646
 10
5586.962269730012
 20
410.91682961396646
 10
5588.763543099207
 20
413.7920074530439
 10
5589.664179783803
 20
410.91682961396646
 10
5600.814229978898
 20
410.91682961396646
 10
5601.671926147751
 20
408.1787343758713
 10
5612.821976342846
 20
408.1787343758713
 10
5613.679672511699
 20
405.4406391377761
 10
5635.979772901888
 20
405.4406391377761
 10
5636.8374690707415
 20
402.70254389968073
 10
5647.987519265836
 20
402.70254389968073
 10
5648.84521543469
 20
399.96444866158555
 10
5655.559851189757
 20
399.96444866158555
 10
5656.41754735861
 20
402.70254389968073
 10
5658.2699084045125
 20
402.70254389968073
 10
5660.842996911072
 20
397.2263534234903
 10
5662.568354136344
 20
397.2263534234903
 10
5663.881431591744
 20
393.0345064053463
 10
5663.881431591744
 20
384.7896290130629
 10
5662.588937935241
 20
380.66349337826045
 10
5659.130708194632
 20
372.38349628063315
 10
5656.558545245246
 20
372.38349628063315
 10
5652.727834472699
 20
362.87197523156345
 10
5651.427793292015
 20
355.9549248520617
 10
5649.702911603543
 20
355.9549248520617
 10
5647.129823096982
 20
347.740639137776
 10
5645.414430759276
 20
347.740639137776
 10
5642.838272031653
 20
339.5165520999276
 10
5631.9821986047455
 20
340.90282215844326
 10
5629.841832568592
 20
345.00254389968075
  0
LWPOLYLINE
  5
48
330
17
100
AcDbEntity
  8
M
100
AcDbPolyline
 90
86
 70
1
 10
5518.32846417321
 20
158.81206770920465
 10
5514.897679497796
 20
158.81206770920465
 10
5514.039983328943
 20
161.55016294729987
 10
5505.463021640408
 20
161.55016294729987
 10
5504.605325471555
 20
164.28825818539508
 10
5501.174540796141
 20
164.28825818539508
 10
5500.3168446272875
 20
167.0263534234903
 10
5496.886059951875
 20
167.0263534234903
 10
5496.028363783021
 20
169.76444866158562
 10
5490.042602649575
 20
169.76444866158562
 10
5486.6118179741625
 20
175.24063913777601
 10
5483.162921250219
 20
175.24063913777601
 10
5482.305225081366
 20
177.97873437587134
 10
5473.728263392832
 20
177.97873437587134
 10
5472.8705672239785
 20
180.71682961396655
 10
5469.439782548565
 20
180.71682961396655
 10
5468.582086379711
 20
183.45492485206174
 10
5465.161266591863
 20
183.45492485206174
 10
5462.588178085302
 20
188.93111532825228
 10
5456.548166217822
 20
188.93111532825228
 10
5456.118644708907
 20
308.22529333755557
 10
5466.1525825665985
 20
309.6179967854755
 10
5467.013627637764
 20
306.8692105663474
 10
5482.452158677126
 20
306.8692105663474
 10
5484.16952363238
 20
301.38672273812074
 10
5515.046585711104
 20
298.6486275000255
 10
5515.902309262409
 20
295.91682961396646
 10
5531.34084030177
 20
295.91682961396646
 10
5532.202340454316
 20
293.16659060047465
 10
5547.640871493678
 20
290.42849536237935
 10
5548.494763678839
 20
287.70254389968073
 10
5556.21402919852
 20
287.70254389968073
 10
5558.78711770508
 20
279.488258185395
 10
5560.5082724674485
 20
279.488258185395
 10
5563.081360974008
 20
268.5358772330141
 10
5564.796753311714
 20
268.5358772330141
 10
5567.369841818275
 20
257.58349628063314
 10
5569.085234155982
 20
257.58349628063314
 10
5571.658322662543
 20
246.63111532825224
 10
5573.367952575589
 20
246.63111532825224
 10
5574.685821384601
 20
242.42397247110938
 10
5573.367952575589
 20
238.21682961396652
 10
5571.505626642122
 20
238.21682961396652
 10
5570.721397271148
 20
240.7203906466662
 10
5569.937167900175
 20
238.21682961396652
 10
5566.506383224761
 20
238.21682961396652
 10
5565.648687055907
 20
235.47873437587134
 10
5562.217902380495
 20
235.47873437587134
 10
5560.502510042787
 20
230.0025438996808
 10
5558.64018410932
 20
230.0025438996808
 10
5557.8559547383475
 20
232.50610493238048
 10
5557.071725367373
 20
230.0025438996808
 10
5553.640940691959
 20
230.0025438996808
 10
5551.528024825558
 20
223.25730580444272
 10
5554.498636860812
 20
213.77397247110932
 10
5556.21402919852
 20
213.77397247110932
 10
5558.78711770508
 20
205.5596867568236
 10
5560.502510042787
 20
205.5596867568236
 10
5562.217902380495
 20
200.08349628063317
 10
5564.784129620755
 20
200.08349628063317
 10
5571.6456989715825
 20
183.65492485206173
 10
5573.377441926354
 20
183.65492485206173
 10
5574.683921089896
 20
176.7036202870527
 10
5573.294485777708
 20
172.26800969428527
 10
5572.363322810976
 20
175.24063913777601
 10
5570.794864069028
 20
175.24063913777601
 10
5569.937167900175
 20
172.5025438996808
 10
5566.506383224761
 20
172.5025438996808
 10
5565.648687055907
 20
169.76444866158562
 10
5562.217902380495
 20
169.76444866158562
 10
5561.360206211641
 20
167.0263534234903
 10
5549.352459847692
 20
167.0263534234903
 10
5548.494763678839
 20
164.28825818539508
 10
5545.063979003426
 20
164.28825818539508
 10
5544.2062828345715
 20
161.55016294729987
 10
5540.775498159159
 20
161.55016294729987
 10
5539.844335192425
 20
158.57753350380912
 10
5538.913172225692
 20
161.55016294729987
 10
5536.487017314891
 20
161.55016294729987
 10
5535.629321146038
 20
158.81206770920465
 10
5532.198536470624
 20
158.81206770920465
 10
5531.34084030177
 20
156.07397247110936
 10
5527.9100556263575
 20
156.07397247110936
 10
5527.047760856784
 20
153.32119673519975
 10
5519.610998502564
 20
154.717726067695
 10
5518.32846417321
 20
158.81206770920465
  0
LWPOLYLINE
  5
49
330
17
100
AcDbEntity
  8
M
100
AcDbPolyline
 90
140
 70
1
 10
8137.608052637494
 20
536.6692105663474
 10
8134.086578371962
 20
542.145401042538
 10
8128.816471726224
 20
542.145401042538
 10
8123.534260327928
 20
547.6215915187283
 10
8116.479207044302
 20
547.6215915187283
 10
8112.947884218394
 20
553.1130973397051
 10
8104.1441985545625
 20
555.8511925778002
 10
8100.632572849407
 20
561.3120677092046
 10
8091.828887185576
 20
561.3120677092046
 10
8088.307412920045
 20
566.788258185395
 10
8083.025201521746
 20
566.788258185395
 10
8079.503727256215
 20
572.2644486615856
 10
8072.46077872515
 20
572.2644486615856
 10
8068.000684406362
 20
579.2002727482538
 10
8071.5221586718935
 20
587.4145584625395
 10
8067.168718766477
 20
594.1845259111336
 10
8058.37228614702
 20
596.9203653296761
 10
8051.325292512121
 20
605.1393689030341
 10
8038.993424959404
 20
610.6185396426326
 10
8035.485298937063
 20
616.0739724711093
 10
8028.442350406
 20
616.0739724711093
 10
8024.9089323530425
 20
621.5687365474503
 10
8017.865983821977
 20
624.3068317855455
 10
8014.35645334387
 20
629.7644486615856
 10
8009.074241945573
 20
629.7644486615856
 10
8005.55276768004
 20
635.2406391377759
 10
8000.29083988862
 20
635.2406391377759
 10
7975.640520029895
 20
654.4073058044427
 10
7972.098762157486
 20
654.4073058044427
 10
7970.338025024719
 20
657.145401042538
 10
7961.539321823507
 20
657.145401042538
 10
7950.014434892299
 20
672.3103178713419
 10
7956.284111256358
 20
679.2745159406641
 10
7961.554080361904
 20
676.5427666363003
 10
7963.295076493656
 20
679.2501629472998
 10
7966.905439516075
 20
679.2501629472998
 10
7970.367654610349
 20
676.5581442221651
 10
7972.098762157486
 20
679.2501629472998
 10
7977.490145919549
 20
679.2501629472998
 10
7979.196296870432
 20
676.5969538412097
 10
7980.902447821316
 20
679.2501629472998
 10
7996.74908201621
 20
679.2501629472998
 10
7999.344773897241
 20
683.2866834742736
 10
7999.344773897241
 20
688.7041186108023
 10
7995.823299631709
 20
694.1803090869927
 10
7995.823299631709
 20
702.3945948012785
 10
7987.019613967879
 20
716.0850709917546
 10
7987.019613967879
 20
724.3581120457021
 10
7989.713268523245
 20
728.5469728210379
 10
8003.889143775494
 20
725.7913871204742
 10
8014.445342100758
 20
717.5834962806331
 10
8021.488290631823
 20
717.5834962806331
 10
8032.052713428418
 20
709.3692105663474
 10
8039.11594556636
 20
709.3692105663474
 10
8040.876682699127
 20
706.6311153282522
 10
8044.288984600893
 20
706.6311153282522
 10
8046.884676481925
 20
710.6676358552259
 10
8046.884676481925
 20
716.0850709917547
 10
8043.363202216394
 20
721.5612614679452
 10
8043.363202216394
 20
735.2517376584213
 10
8039.841727950861
 20
740.7279281346118
 10
8039.841727950861
 20
754.418404325088
 10
8036.320253685329
 20
759.8945948012785
 10
8036.320253685329
 20
768.1036636428802
 10
8026.68760502011
 20
780.3596867568236
 10
8021.399401874935
 20
780.3596867568236
 10
8017.877927609403
 20
785.8358772330141
 10
8012.595716211105
 20
785.8358772330141
 10
8007.301561025381
 20
794.0687365474503
 10
8000.258612494317
 20
796.8068317855455
 10
7997.565145400353
 20
800.9954010425379
 10
8000.300185867372
 20
805.2486204126412
 10
8003.8370427302625
 20
802.4985645542491
 10
8009.144587264856
 20
808.0010184775565
 10
8010.905324397622
 20
805.2629232394612
 10
8016.162202659624
 20
810.7128502685349
 10
8019.668294327799
 20
807.9867156507364
 10
8021.399401874935
 20
810.6787343758713
 10
8025.030048504233
 20
810.6787343758713
 10
8026.736199455116
 20
808.025525269781
 10
8028.435927974446
 20
810.668746951329
 10
8042.532770928002
 20
813.4089699128531
 10
8047.880804185709
 20
818.9533994299373
 10
8049.680368362957
 20
816.1549248520616
 10
8058.374881663022
 20
816.1549248520616
 10
8060.1998402930185
 20
818.9928899528846
 10
8067.3141090247
 20
805.1637775784067
 10
8071.722234877015
 20
801.0507723442231
 10
8075.248472925896
 20
790.08357521939
 10
8089.3423676683105
 20
765.4267263732071
 10
8089.3423676683105
 20
762.6914453790354
 10
8095.479817421751
 20
753.1471916507426
 10
8102.482198739061
 20
747.7025438996807
 10
8107.764410137358
 20
747.7025438996807
 10
8118.328832933955
 20
739.488258185395
 10
8125.366042973933
 20
739.488258185395
 10
8134.169728637763
 20
734.0120677092045
 10
8141.238699266792
 20
734.0120677092045
 10
8142.9994363995565
 20
731.2739724711092
 10
8150.016362832659
 20
731.2739724711092
 10
8158.820048496489
 20
725.7977819949189
 10
8165.889019125515
 20
725.7977819949189
 10
8167.630015257267
 20
723.0903856839194
 10
8172.912226655566
 20
725.8284809220146
 10
8174.692704789345
 20
723.0596867568237
 10
8181.735653320409
 20
723.0596867568237
 10
8183.496390453175
 20
720.3215915187283
 10
8190.539338984239
 20
720.3215915187283
 10
8192.300076117006
 20
717.5834962806331
 10
8206.359951081173
 20
717.5834962806331
 10
8215.163636745003
 20
712.1073058044426
 10
8222.232607374028
 20
712.1073058044426
 10
8223.963714921165
 20
709.4152870793079
 10
8227.485189186698
 20
712.1533823174032
 10
8230.201338289593
 20
707.9295406171307
 10
8230.201338289593
 20
699.6564995631833
 10
8226.679864024061
 20
694.1803090869928
 10
8226.679864024061
 20
672.275547182231
 10
8223.15838975853
 20
666.7993567060404
 10
8223.15838975853
 20
642.1564995631833
 10
8219.65580685712
 20
636.7096867568237
 10
8222.232607374028
 20
632.7025438996807
 10
8236.318504436158
 20
632.7025438996807
 10
8238.079241568923
 20
629.9644486615855
 10
8245.122190099988
 20
629.9644486615855
 10
8246.868259032455
 20
627.2491637162021
 10
8253.891134235051
 20
629.9794550231952
 10
8261.924027118297
 20
623.0395504727284
 10
8231.037925460738
 20
572.2644486615856
 10
8227.49453516545
 20
572.2644486615856
 10
8220.49215384814
 20
566.8198009105237
 10
8215.209942449843
 20
558.6055151962379
 10
8211.647900970554
 20
555.8358772330141
 10
8202.864498913603
 20
555.8358772330141
 10
8201.049175598953
 20
553.0128958629138
 10
8199.233852284306
 20
555.8358772330141
 10
8164.128281992749
 20
555.8358772330141
 10
8148.227061615973
 20
531.1081339581519
 10
8144.651001168559
 20
536.6692105663474
 10
8137.608052637494
 20
536.6692105663474
  0
LWPOLYLINE
  5
4A
330
17
100
AcDbEntity
  8
M
100
AcDbPolyline
 90
219
 70
1
 10
8067.178567326852
 20
84.88349628063324
 10
8033.724561804297
 20
84.88349628063324
 10
8031.963824671532
 20
87.62159151872845
 10
7998.509819148976
 20
87.62159151872845
 10
7996.74908201621
 20
90.3596867568237
 10
7965.055813626421
 20
90.3596867568237
 10
7963.295076493656
 20
93.09778199491898
 10
7929.841070971101
 20
93.09778199491898
 10
7928.080333838334
 20
95.83587723301417
 10
7894.62632831578
 20
95.83587723301417
 10
7892.865591183013
 20
98.57397247110936
 10
7859.4115856604585
 20
98.57397247110936
 10
7857.650848527693
 20
101.31206770920467
 10
7824.196843005138
 20
101.31206770920467
 10
7822.436105872372
 20
104.05016294729988
 10
7817.153894474074
 20
104.05016294729988
 10
7814.467374956807
 20
108.22792813461183
 10
7814.467374956807
 20
187.6914453790355
 10
7817.145526922734
 20
191.85619831593695
 10
7827.7278238026365
 20
194.5989261727116
 10
7841.824497939676
 20
205.5596867568236
 10
7848.956335227628
 20
205.5596867568236
 10
7850.678245315913
 20
202.88197085850905
 10
7855.902216147489
 20
208.29778199491892
 10
7859.425056374613
 20
208.29778199491892
 10
7869.029141583604
 20
217.8019780404499
 10
7863.753619726703
 20
228.7404885888931
 10
7866.434250584645
 20
232.90909641264736
 10
7873.517766329464
 20
238.4168296139665
 10
7877.03106174068
 20
238.4168296139665
 10
7882.304680197897
 20
243.88411158980253
 10
7894.63728048413
 20
246.62385973997627
 10
7908.766811559791
 20
257.61016798407144
 10
7912.288285825322
 20
254.87207274597623
 10
7929.8956571529825
 20
268.56254893645234
 10
7933.3722765970515
 20
265.85933021989194
 10
7935.939607319385
 20
272.5133577619365
 10
7928.093839137372
 20
279.2915985650496
 10
7898.144676210572
 20
282.031215194551
 10
7894.62632831578
 20
287.50254389968075
 10
7878.779694120885
 20
287.50254389968075
 10
7877.0189569881195
 20
290.240639137776
 10
7871.748850342383
 20
290.240639137776
 10
7866.4303246864
 20
295.75447744308406
 10
7863.768014674257
 20
299.89459480127846
 10
7863.768014674257
 20
308.1131530835789
 10
7854.964329010427
 20
324.54172451215027
 10
7854.964329010427
 20
330.01364242032605
 10
7851.442854744894
 20
335.4898328965166
 10
7851.442854744894
 20
341.0247787123688
 10
7857.7054347095755
 20
350.76362050787634
 10
7859.466171842341
 20
348.02552526978104
 10
7863.748137967851
 20
354.68434494238323
 10
7831.225898710485
 20
402.52540425809815
 10
7825.942475958052
 20
405.2641274155897
 10
7816.228112089574
 20
420.37078527746894
 10
7816.228112089574
 20
423.16763585522597
 10
7818.904783046465
 20
427.33008569775177
 10
7827.718726527972
 20
430.0713712907515
 10
7833.045540851956
 20
435.5938026494873
 10
7836.576589116383
 20
432.8482632221666
 10
7847.141011912979
 20
441.06254893645234
 10
7850.637529582258
 20
438.34385850787936
 10
7852.368637129395
 20
441.03587723301405
 10
7859.500474417346
 20
441.03587723301405
 10
7870.0648972139425
 20
432.8215915187283
 10
7875.367392219118
 20
432.8215915187283
 10
7878.88886648465
 20
427.34540104253796
 10
7887.69255214848
 20
427.34540104253796
 10
7891.214026414013
 20
421.8692105663474
 10
7898.236691338199
 20
421.8692105663474
 10
7908.801114134795
 20
413.6549248520617
 10
7917.625083405503
 20
413.6549248520617
 10
7921.146557671035
 20
408.1787343758713
 10
7928.189506202099
 20
408.1787343758713
 10
7931.720829028007
 20
402.6872285548946
 10
7940.524514691838
 20
399.94913331679936
 10
7949.318351795291
 20
386.2739724711094
 10
7958.101753852245
 20
386.2739724711094
 10
7961.563968946519
 20
383.5819537459746
 10
7963.295076493656
 20
386.2739724711094
 10
7973.968671654016
 20
386.2739724711094
 10
7975.729408786782
 20
383.5358772330141
 10
7982.663184954082
 20
383.5358772330141
 10
7984.423922086848
 20
386.2739724711094
 10
7988.054568716145
 20
386.2739724711094
 10
7989.815305848911
 20
383.5358772330141
 10
8017.987099973169
 20
383.5358772330141
 10
8019.739642085863
 20
380.81052594460664
 10
8032.064802015226
 20
383.5486211827018
 10
8033.833734168063
 20
380.79778199491886
 10
8042.528247468129
 20
380.79778199491886
 10
8046.884676481925
 20
387.5723977599878
 10
8046.884676481925
 20
395.7279281346119
 10
8043.363202216394
 20
401.2041186108024
 10
8043.363202216394
 20
425.8606724335032
 10
8041.58965675742
 20
431.3766989719213
 10
8047.8205178287235
 20
438.29778199491886
 10
8054.85340739749
 20
438.29778199491886
 10
8056.6141445302555
 20
441.03587723301405
 10
8063.766265425085
 20
441.03587723301405
 10
8067.287739690617
 20
435.5596867568237
 10
8077.840057734651
 20
435.5596867568237
 10
8083.128401919003
 20
430.07713827978034
 10
8100.7357732466635
 20
427.3390430416851
 10
8106.011851858908
 20
421.8692105663474
 10
8114.81553752274
 20
421.8692105663474
 10
8120.097748921036
 20
416.393020090157
 10
8130.662171717633
 20
416.393020090157
 10
8135.980697373617
 20
410.8791817848487
 10
8138.64300738576
 20
406.7390644266545
 10
8138.64300738576
 20
357.458069800598
 10
8149.207430182356
 20
343.76759361012176
 10
8149.207430182356
 20
324.59620728379724
 10
8152.728904447887
 20
319.1200168076068
 10
8152.728904447887
 20
297.22186297989003
 10
8160.605712185289
 20
287.69478319478145
 10
8176.459193217211
 20
284.9555049110232
 10
8181.6810671385265
 20
276.8350490793049
 10
8183.441804271293
 20
279.5731443174001
 10
8186.201801334565
 20
275.28111532825216
 10
8183.441804271293
 20
270.98908633910423
 10
8181.661728622374
 20
273.7572546062775
 10
8172.916789068092
 20
265.5977819949189
 10
8167.634577669793
 20
265.5977819949189
 10
8158.830892005963
 20
257.38349628063315
 10
8153.563859196152
 20
257.38349628063315
 10
8151.803122063387
 20
254.64540104253797
 10
8142.905442624279
 20
254.64540104253797
 10
8134.101756960449
 20
262.8596867568236
 10
8125.3920650718965
 20
262.8596867568236
 10
8119.274898925333
 20
253.3469757536595
 10
8119.274898925333
 20
245.13269003937378
 10
8116.588379408066
 20
240.95492485206174
 10
8109.436258513238
 20
240.95492485206174
 10
8107.675521380472
 20
243.69302009015695
 10
8090.068150052812
 20
243.69302009015695
 10
8086.544131354204
 20
249.17316737509302
 10
8049.568651566117
 20
251.9112626131882
 10
8047.865045048308
 20
254.56051491053287
 10
8046.158894097425
 20
251.90730580444264
 10
8037.355208433593
 20
251.90730580444264
 10
8035.579803100531
 20
249.1464002736357
 10
8028.507301093523
 20
251.89598505072098
 10
8019.721815007971
 20
246.43111532825228
 10
7993.227607750678
 20
246.43111532825228
 10
7991.466870617912
 20
249.16921056634746
 10
7981.011620185081
 20
249.16921056634746
 10
7979.250883052315
 20
246.43111532825228
 10
7975.729408786782
 20
246.43111532825228
 10
7972.2079345212505
 20
240.95492485206174
 10
7968.678948311096
 20
240.95492485206174
 10
7952.855303108261
 20
221.81606360718868
 10
7938.774212605574
 20
210.86741995814288
 10
7932.636762852132
 20
201.32316622984993
 10
7932.636762852132
 20
198.64382633141645
 10
7938.753928998696
 20
189.13111532825224
 10
7942.275403264228
 20
189.13111532825224
 10
7945.7968775297595
 20
183.65492485206173
 10
7949.318351795291
 20
183.65492485206173
 10
7951.079088928058
 20
180.9168296139665
 10
7961.615953386774
 20
180.9168296139665
 10
7975.701850448902
 20
172.7025438996808
 10
7986.266273245498
 20
172.7025438996808
 10
8000.359188078166
 20
164.48416572525383
 10
8017.9923063294855
 20
161.7420666226546
 10
8020.673619490434
 20
157.57239775998792
 10
8020.673619490434
 20
113.76287395046405
 10
8023.214725189584
 20
109.81123955549546
 10
8025.755830888732
 20
113.76287395046405
 10
8025.755830888732
 20
160.3104929980831
 10
8028.442350406
 20
164.48825818539507
 10
8031.975929424092
 20
164.48825818539507
 10
8042.528656725429
 20
175.4285141478942
 10
8051.322084571582
 20
178.16341903108503
 10
8053.097365551144
 20
180.92413118167443
 10
8074.226211144337
 20
178.1860359435792
 10
8075.982252990682
 20
180.9168296139665
 10
8086.655848151043
 20
180.9168296139665
 10
8088.41658528381
 20
178.1787343758713
 10
8097.111098583875
 20
178.1787343758713
 10
8098.871835716642
 20
180.9168296139665
 10
8109.545430877002
 20
180.9168296139665
 10
8111.306168009769
 20
178.1787343758713
 10
8118.239944177068
 20
178.1787343758713
 10
8122.596373190864
 20
184.9533501409403
 10
8122.596373190864
 20
228.76287395046404
 10
8125.282892708132
 20
232.940639137776
 10
8130.674276470195
 20
232.940639137776
 10
8132.435013602962
 20
230.2025438996808
 10
8150.042384930622
 20
230.2025438996808
 10
8151.803122063387
 20
227.46444866158558
 10
8169.4104933910485
 20
227.46444866158558
 10
8171.165565509549
 20
224.73516300005417
 10
8188.772936837211
 20
227.4732582381495
 10
8190.542296309699
 20
224.72175453214786
 10
8222.230807597423
 20
221.9840702771784
 10
8233.722812555126
 20
206.86242089180976
 10
8233.722812555126
 20
193.10888051556432
 10
8230.201338289593
 20
187.6326900393738
 10
8230.201338289593
 20
165.72792813461194
 10
8227.514818772328
 20
161.55016294729987
 10
8223.978165918306
 20
161.55016294729987
 10
8215.115734144929
 20
153.28106413008706
 10
8213.353421168371
 20
156.02160993862893
 10
8201.0871869274
 20
145.12159151872842
 10
8195.8049755291
 20
145.12159151872842
 10
8183.420889911348
 20
134.11684803386706
 10
8181.659266884404
 20
136.85632091237568
 10
8165.871647359474
 20
123.21682961396654
 10
8160.59023287378
 20
123.21682961396654
 10
8148.277360307221
 20
112.27536745526449
 10
8139.4878106944
 20
109.54166876827657
 10
8135.121533120227
 20
102.7517376584214
 10
8135.121533120227
 20
89.12001680760694
 10
8138.661898749882
 20
83.61444866158557
 10
8135.955035779009
 20
79.40504768241624
 10
8068.937884436
 20
82.14760929942932
 10
8067.178567326852
 20
84.88349628063324
  0
LWPOLYLINE
  5
4B
330
17
100
AcDbEntity
  8
M
100
AcDbPolyline
 90
67
 70
1
 10
8073.295733473416
 20
833.8231662298499
 10
8073.295733473416
 20
836.6290213750978
 10
8079.513786218513
 20
843.5358772330139
 10
8084.785938654512
 20
843.5358772330139
 10
8087.370055555406
 20
847.5543976863764
 10
8084.764639600532
 20
854.3071348274844
 10
8075.972404430307
 20
857.0416687682767
 10
8072.46077872515
 20
862.5025438996807
 10
8067.19374591534
 20
862.5025438996807
 10
8058.39006025151
 20
870.7168296139664
 10
8054.85340739749
 20
870.7168296139664
 10
8051.331933131959
 20
876.1930200901569
 10
8044.304163189382
 20
876.1930200901569
 10
8035.500477525552
 20
884.4073058044426
 10
8030.203087538765
 20
884.4073058044426
 10
8026.671764712859
 20
889.8988116254196
 10
8017.868079049027
 20
892.6369068635147
 10
8015.169903143029
 20
896.8327987216877
 10
8028.446614250994
 20
914.7263534234902
 10
8031.963824671532
 20
914.7263534234902
 10
8037.24603606983
 20
922.9406391377759
 10
8040.876682699127
 20
922.9406391377759
 10
8042.598592787412
 20
920.2629232394612
 10
8047.855471049413
 20
925.712850268535
 10
8051.361562717588
 20
922.9867156507365
 10
8055.6883621457555
 20
929.7152549028449
 10
8055.6883621457555
 20
935.1326900393738
 10
8052.166887880224
 20
940.6088805155641
 10
8052.166887880224
 20
954.2993567060405
 10
8050.387259383335
 20
957.0668296139664
 10
8053.092670264723
 20
961.2739724711092
 10
8058.484054026787
 20
961.2739724711092
 10
8060.225050158538
 20
958.5665761601099
 10
8065.507261556837
 20
961.304671398205
 10
8067.287739690617
 20
958.5358772330142
 10
8090.177322416575
 20
958.5358772330142
 10
8091.918318548327
 20
955.8284809220146
 10
8097.176515181889
 20
958.5541278296649
 10
8100.68715903129
 20
955.8244536983572
 10
8104.208633296821
 20
958.5625489364525
 10
8111.226625231632
 20
953.1057632697841
 10
8112.957732778769
 20
955.7977819949189
 10
8116.588379408066
 20
955.7977819949189
 10
8118.319486955203
 20
953.1057632697841
 10
8121.840961220736
 20
955.8438585078794
 10
8123.63132793913
 20
953.0596867568236
 10
8127.043629840899
 20
953.0596867568236
 10
8128.858953155546
 20
955.8826681269239
 10
8130.674276470195
 20
953.0596867568236
 10
8134.188686626123
 20
953.0596867568236
 10
8150.991507475858
 20
932.4308907263102
 10
8149.207430182356
 20
929.6564995631833
 10
8149.207430182356
 20
913.2279281346118
 10
8145.685955916823
 20
907.7517376584215
 10
8145.685955916823
 20
894.0612614679451
 10
8142.164481651291
 20
888.5850709917546
 10
8142.164481651291
 20
874.8945948012785
 10
8138.64300738576
 20
869.4184043250881
 10
8138.64300738576
 20
820.1260819623286
 10
8130.6095805398045
 20
810.4095697583001
 10
8128.858953155546
 20
813.1319434819613
 10
8127.152802204662
 20
810.4787343758712
 10
8123.522155575365
 20
810.4787343758712
 10
8121.791048028228
 20
813.170753101006
 10
8118.312753515151
 20
810.4662319474158
 10
8079.49271707483
 20
824.1863323301022
 10
8073.295733473416
 20
833.8231662298499
  0
LWPOLYLINE
  5
4C
330
17
100
AcDbEntity
  8
M
100
AcDbPolyline
 90
84
 70
1
 10
8893.416138372451
 20
342.26444866158556
 10
8888.125541054005
 20
342.26444866158556
 10
8882.857076632816
 20
350.4787343758713
 10
8879.344767018687
 20
350.4787343758713
 10
8874.89024217329
 20
357.4239724711094
 10
8877.588612211623
 20
361.6311153282522
 10
8881.10092182575
 20
361.6311153282522
 10
8888.105251132161
 20
372.55186140530327
 10
8902.154489588675
 20
383.50424235768423
 10
8909.254061840944
 20
394.57348574002225
 10
8911.035200989347
 20
391.79643635860793
 10
8914.447573238122
 20
394.45662331006514
 10
8922.325222893922
 20
406.73900008184637
 10
8922.325222893922
 20
409.4184686698961
 10
8917.95988285225
 20
416.2246549654869
 10
8910.971352698198
 20
421.67271144066854
 10
8884.609697159629
 20
424.41281625026437
 10
8882.865284761709
 20
427.13260340160843
 10
8870.57220111226
 20
424.3945081635132
 10
8868.807838176304
 20
427.14540104253797
 10
8856.514754526856
 20
427.14540104253797
 10
8854.758599719791
 20
429.88349628063315
 10
8842.485805992188
 20
429.88349628063315
 10
8831.908297306116
 20
438.12941687024875
 10
8829.249018119535
 20
442.27561152703896
 10
8829.249018119535
 20
464.23900008184637
 10
8831.005172926598
 20
466.97709531994155
 10
8831.005172926598
 20
486.14376198660824
 10
8833.684742035024
 20
490.3215915187283
 10
8853.02273483457
 20
490.3215915187283
 10
8867.071973291082
 20
501.2739724711094
 10
8872.429473994773
 20
501.2739724711094
 10
8874.191386955863
 20
498.52689945152264
 10
8889.985709350802
 20
495.7907221089326
 10
8895.247381685724
 20
490.3215915187283
 10
8898.771796100731
 20
490.3215915187283
 10
8904.010581761091
 20
482.1535792157509
 10
8907.463533853554
 20
484.8454010425379
 10
8912.821034557242
 20
484.8454010425379
 10
8914.522526262135
 20
482.19253335906996
 10
8916.224017967028
 20
484.8454010425379
 10
8925.11411820669
 20
484.8454010425379
 10
8926.815609911584
 20
482.19253335906996
 10
8928.517101616477
 20
484.8454010425379
 10
8946.078649687117
 20
484.8454010425379
 10
8947.864483255013
 20
487.62976969194125
 10
8954.948460004933
 20
482.1073058044427
 10
8958.468954740027
 20
482.1073058044427
 10
8963.737419161218
 20
476.6311153282522
 10
8972.518193196538
 20
476.6311153282522
 10
8977.78665761773
 20
471.1549248520617
 10
8986.56743165305
 20
471.1549248520617
 10
8991.83589607424
 20
465.6787343758713
 10
9000.61667010956
 20
465.6787343758713
 10
9005.885134530752
 20
460.20254389968073
 10
9014.670502671981
 20
460.20254389968073
 10
9022.626046896567
 20
450.5551240752088
 10
9022.626046896567
 20
439.5375162889438
 10
9019.11373728244
 20
434.06132581275324
 10
9019.11373728244
 20
412.15656390799137
 10
9012.944629157864
 20
402.538046502094
 10
9004.06706299736
 20
394.2332131700279
 10
9002.330266615332
 20
396.9411258688631
 10
9000.62877491044
 20
394.288258185395
 10
8983.046936917957
 20
394.288258185395
 10
8979.475269782164
 20
391.5038895359917
 10
8977.689436214267
 20
394.288258185395
 10
8972.530297997417
 20
394.288258185395
 10
8968.185247877585
 20
387.5137067651342
 10
8968.185247877585
 20
357.3946591460866
 10
8964.672938263458
 20
351.9184686698961
 10
8964.672938263458
 20
340.9660877175151
 10
8962.013659076876
 20
336.8198930607249
 10
8958.460769619061
 20
334.05016294729984
 10
8953.103268915373
 20
334.05016294729984
 10
8951.401777210478
 20
336.7030306307679
 10
8949.700285505585
 20
334.05016294729984
 10
8930.382582627883
 20
334.05016294729984
 10
8928.626427820818
 20
331.31206770920465
 10
8923.248637195284
 20
331.31206770920465
 10
8921.54714549039
 20
333.9649353926726
 10
8919.841913392946
 20
331.3062359049702
 10
8906.582741587727
 20
332.68443160977256
 10
8893.416138372451
 20
342.26444866158556
  0
LWPOLYLINE
  5
4D
330
17
100
AcDbEntity
  8
M
100
AcDbPolyline
 90
19
 70
1
 10
8935.552662266036
 20
961.0812602924068
 10
8923.254917351893
 20
963.8203937554939
 10
8914.474143316573
 20
972.0346794697796
 10
8902.167502648319
 20
974.7757943252218
 10
8899.476409472187
 20
978.9715915187282
 10
8903.922557821475
 20
985.9037694645951
 10
8914.45948666386
 20
988.6418647026904
 10
8916.247815235009
 20
991.4301234171947
 10
8925.08808244028
 20
985.9168296139665
 10
8930.382582627883
 20
985.9168296139665
 10
8933.902169104207
 20
980.4292934741396
 10
8946.18169573485
 20
977.6942178533914
 10
8954.963839559616
 20
969.4786507211071
 10
8965.514055265267
 20
966.7371027979284
 10
8969.9510138358
 20
959.8192530248117
 10
8968.176479471224
 20
954.2857498576211
 10
8963.737875147473
 20
947.3653341210558
 10
8946.086177345787
 20
952.8696358489767
 10
8935.552662266036
 20
961.0812602924068
  0
LWPOLYLINE
  5
4E
330
17
100
AcDbEntity
  8
M
100
AcDbPolyline
 90
25
 70
1
 10
8891.61613157887
 20
197.17926419324098
 10
8886.369386246943
 20
205.3596867568236
 10
8882.847557893736
 20
205.3596867568236
 10
8878.409626593218
 20
215.04679971343268
 10
8888.120697282391
 20
232.940639137776
 10
8889.881695861071
 20
232.940639137776
 10
8906.530158411584
 20
258.89796126439444
 10
8909.167990127125
 20
265.7525529269756
 10
8914.479967960844
 20
271.2739724711093
 10
8919.83354898462
 20
271.2739724711093
 10
8925.102013405813
 20
265.79778199491886
 10
8932.138737434945
 20
265.79778199491886
 10
8933.901322139045
 20
263.04966163239584
 10
8947.950560595556
 20
260.31156639430066
 10
8955.892164228138
 20
247.92947627232257
 10
8955.892164228138
 20
239.65656390799154
 10
8953.233888547722
 20
235.51193386010652
 10
8930.403876055889
 20
216.34526719343987
 10
8923.303300297455
 20
205.27445920219648
 10
8921.54714549039
 20
208.01255444029178
 10
8914.592303779875
 20
197.16896656712981
 10
8909.323839358683
 20
194.4308713290345
 10
8905.788207200092
 20
188.91831768732274
 10
8899.548823605333
 20
190.30804438215657
 10
8891.61613157887
 20
197.17926419324098
  0
LWPOLYLINE
  5
4F
330
17
100
AcDbEntity
  8
M
100
AcDbPolyline
 90
69
 70
1
 10
8853.002444912727
 20
706.4311153282522
 10
8845.977825684471
 20
706.4311153282522
 10
8844.221670877409
 20
709.1692105663474
 10
8830.179097627004
 20
709.1692105663474
 10
8821.38149243095
 20
720.1425852584025
 10
8816.108079548818
 20
722.8832522814154
 10
8809.072772734908
 20
733.8522967006311
 10
8802.065253643697
 20
742.0465862547151
 10
8796.794404305238
 20
744.7859209679386
 10
8786.263979968719
 20
758.4679459499071
 10
8738.843174373875
 20
772.1597577490603
 10
8734.411876463468
 20
779.0687817475493
 10
8736.176024343577
 20
790.0710120529739
 10
8746.721070168851
 20
814.7328524928427
 10
8753.734361415785
 20
825.6675715104176
 10
8753.734361415785
 20
831.143761986608
 10
8760.758980644041
 20
842.096142938989
 10
8760.758980644041
 20
844.7724201177598
 10
8745.864635229247
 20
865.26277650726
 10
8740.589235940244
 20
868.00447589393
 10
8732.661711539531
 20
883.1113119558003
 10
8730.902893056415
 20
918.7605397009966
 10
8733.58391803238
 20
922.9406391377759
 10
8737.096227646507
 20
922.9406391377759
 10
8746.70974218753
 20
937.9294762723225
 10
8746.70974218753
 20
940.664912851996
 10
8761.701956560913
 20
966.7899078683042
 10
8770.546459418652
 20
961.2739724711092
 10
8777.571078646908
 20
961.2739724711092
 10
8786.351852682228
 20
955.7977819949189
 10
8791.646352869831
 20
955.7977819949189
 10
8793.408937573931
 20
953.0496616323958
 10
8807.458176030443
 20
950.3115663943007
 10
8815.399779663023
 20
937.9294762723225
 10
8815.399779663023
 20
932.4504758490804
 10
8829.443567883798
 20
907.8171786109152
 10
8831.199162211096
 20
899.6055144997583
 10
8839.042758317255
 20
887.3762320575555
 10
8844.311222738448
 20
890.1143272956509
 10
8846.09358178585
 20
887.3353759181102
 10
8860.142820242361
 20
884.5972806800148
 10
8861.837882050217
 20
881.9544381209747
 10
8863.539373755111
 20
884.6073058044426
 10
8868.891128614232
 20
884.6073058044426
 10
8877.671902649552
 20
879.1311153282521
 10
8889.991022065411
 20
879.1311153282521
 10
8894.426745980902
 20
872.2151905580366
 10
8894.426745980902
 20
864.000904843751
 10
8897.938016853335
 20
858.5263339136689
 10
8899.696584336249
 20
809.1729089385947
 10
8893.435367128815
 20
802.1999599579988
 10
8891.637850668134
 20
805.0025438996807
 10
8884.72255764422
 20
805.0025438996807
 10
8881.210248030091
 20
799.5263534234904
 10
8877.588612211623
 20
799.5263534234904
 10
8875.887120506728
 20
802.1792211069583
 10
8872.429473994773
 20
796.788258185395
 10
8868.917164380644
 20
796.788258185395
 10
8866.347069997784
 20
792.7811153282521
 10
8873.34832446722
 20
781.8651633595822
 10
8875.104479274287
 20
770.9127824072013
 10
8883.889817138517
 20
757.2151905580369
 10
8883.889817138517
 20
749.0009048437512
 10
8889.175128440093
 20
740.7603524457036
 10
8875.109043103197
 20
716.0879452836143
 10
8875.109043103197
 20
705.1327543841818
 10
8872.423800176231
 20
700.9460785615976
 10
8854.753387030856
 20
703.7011474139514
 10
8853.002444912727
 20
706.4311153282522
  0
LWPOLYLINE
  5
50
330
17
100
AcDbEntity
  8
M
100
AcDbPolyline
 90
48
 70
1
 10
9714.612385384858
 20
109.52635342349029
 10
9708.74070013777
 20
119.1816674236306
 10
9708.74070013777
 20
135.61023885220206
 10
9705.410464908879
 20
141.08642932839246
 10
9705.410464908879
 20
157.51500075696393
 10
9703.745347294433
 20
160.25309599505914
 10
9703.745347294433
 20
179.4197626617258
 10
9700.415112065539
 20
184.8959531379163
 10
9700.415112065539
 20
204.062619804583
 10
9698.732955056481
 20
206.82873437587128
 10
9701.27392000179
 20
211.00706025300457
 10
9709.643319242768
 20
216.51206770920464
 10
9719.699796197849
 20
216.51206770920464
 10
9726.36657740782
 20
211.03068857836507
 10
9744.701834574054
 20
208.28975850829016
 10
9746.36207286629
 20
205.5596867568236
 10
9753.022543324076
 20
205.5596867568236
 10
9754.687660938522
 20
202.82159151872838
 10
9764.6783666252
 20
202.82159151872838
 10
9768.008601854091
 20
197.345401042538
 10
9776.334189926323
 20
197.345401042538
 10
9777.999307540771
 20
194.60730580444266
 10
9781.338905332643
 20
194.60730580444266
 10
9785.536110402305
 20
184.94475346532815
 10
9785.536110402305
 20
179.47580132811194
 10
9788.866345631197
 20
173.99961085192155
 10
9788.866345631197
 20
165.7803403316517
 10
9795.524514192242
 20
152.09459564816456
 10
9797.189140619601
 20
135.67087042509675
 10
9801.286335255676
 20
128.9335030311918
 10
9809.55037610955
 20
134.36921056634745
 10
9817.870072317834
 20
134.36921056634745
 10
9824.530542775618
 20
139.845401042538
 10
9829.525895618957
 20
139.845401042538
 10
9836.186366076741
 20
145.32159151872838
 10
9842.82644169723
 20
145.32159151872838
 10
9844.491559311677
 20
148.0596867568236
 10
9857.924953034199
 20
148.0596867568236
 10
9859.594231227127
 20
145.31474992385608
 10
9881.221574272695
 20
142.5790815384495
 10
9887.876675256935
 20
137.10730580444266
 10
9899.552893395357
 20
137.10730580444266
 10
9902.094343413552
 20
132.92818228049288
 10
9902.094343413552
 20
108.22928647124967
 10
9899.551933067358
 20
104.04858379787521
 10
9801.19755593733
 20
106.78981278536328
 10
9799.533383721624
 20
109.52635342349029
 10
9714.612385384858
 20
109.52635342349029
  0
LWPOLYLINE
  5
51
330
17
100
AcDbEntity
  8
M
100
AcDbPolyline
 90
66
 70
1
 10
9770.333012477677
 20
672.3049248520617
 10
9772.018508174562
 20
675.0765295131594
 10
9773.68362578901
 20
688.7670057036356
 10
9777.010522330072
 20
694.2377060900167
 10
9777.010522330072
 20
699.7138965662072
 10
9780.340757558966
 20
705.1900870423976
 10
9780.340757558966
 20
710.610238852202
 10
9776.216857797162
 20
717.3915197672619
 10
9757.900564038251
 20
720.1296150053571
 10
9754.56986820742
 20
725.6065628886915
 10
9737.918692062956
 20
728.3446581267867
 10
9734.587901017745
 20
733.821762579264
 10
9719.62048418365
 20
736.5564518024468
 10
9712.959109115125
 20
742.0333860430222
 10
9699.619747524119
 20
744.7752676175339
 10
9697.084876836647
 20
748.9435721855353
 10
9697.084876836647
 20
754.4758013281119
 10
9700.415112065539
 20
759.9519918043025
 10
9700.415112065539
 20
773.6424679947785
 10
9703.745347294433
 20
779.1186584709691
 10
9703.745347294433
 20
795.5472298995405
 10
9706.286797312627
 20
799.7263534234903
 10
9709.729485348471
 20
799.7263534234903
 10
9711.394602962915
 20
796.988258185395
 10
9733.041131950718
 20
796.988258185395
 10
9734.706249565166
 20
794.2501629472998
 10
9756.352778552968
 20
794.2501629472998
 10
9758.017896167416
 20
791.5120677092045
 10
9777.999307540771
 20
791.5120677092045
 10
9780.540757558965
 20
787.3329441852547
 10
9780.540757558965
 20
765.4281822804929
 10
9783.870992787859
 20
759.9519918043025
 10
9783.870992787859
 20
738.0472298995405
 10
9785.536110402305
 20
735.3091346614452
 10
9785.536110402305
 20
724.3567537090643
 10
9787.9953531516
 20
720.3128106249557
 10
9804.646529296064
 20
717.5747153868605
 10
9806.308151393823
 20
714.8423681256743
 10
9856.261679827216
 20
712.104272887579
 10
9857.924953034199
 20
709.3692105663474
 10
9866.25054110643
 20
709.3692105663474
 10
9867.915658720874
 20
706.6311153282522
 10
9879.571482022
 20
706.6311153282522
 10
9881.236599636446
 20
703.8930200901569
 10
9899.552893395357
 20
703.8930200901569
 10
9902.094343413552
 20
699.7138965662072
 10
9902.094343413552
 20
658.5864293283923
 10
9899.547039441759
 20
654.3976796481078
 10
9882.806633008518
 20
657.1504477853829
 10
9871.149107411056
 20
665.3659331702642
 10
9857.805920896526
 20
668.1086009508672
 10
9854.482264998354
 20
673.5739724711093
 10
9847.82179454057
 20
673.5739724711093
 10
9846.164054425224
 20
676.2999362567605
 10
9832.936347472789
 20
673.5810050906413
 10
9826.20595154265
 20
668.0473223985224
 10
9824.51014793832
 20
670.8358772330141
 10
9821.27197067908
 20
670.8358772330141
 10
9814.611500221294
 20
665.3596867568236
 10
9809.616147377956
 20
665.3596867568236
 10
9802.96686513888
 20
659.8926951528649
 10
9792.99392032573
 20
657.1594675352127
 10
9791.28010366196
 20
654.3412922872108
 10
9786.214306809137
 20
659.8947075012592
 10
9776.21318286443
 20
662.6356580114032
 10
9770.333012477677
 20
672.3049248520617
  0
LWPOLYLINE
  5
52
330
17
100
AcDbEntity
  8
M
100
AcDbPolyline
 90
19
 70
1
 10
9799.533383721624
 20
303.93111532825225
 10
9795.326816088982
 20
310.8483340902972
 10
9795.326816088982
 20
321.8007150426782
 10
9791.99658086009
 20
327.27690551886866
 10
9791.99658086009
 20
335.4911912331544
 10
9788.666345631198
 20
340.9673817093448
 10
9788.666345631198
 20
351.9758013281119
 10
9791.207795649392
 20
356.1549248520617
 10
9797.980718914127
 20
356.1549248520617
 10
9799.645836528574
 20
353.41682961396646
 10
9842.93889450418
 20
353.41682961396646
 10
9844.604012118627
 20
350.6787343758713
 10
9859.590070648643
 20
350.6787343758713
 10
9862.148560061449
 20
346.4715915187284
 10
9852.129480570497
 20
329.9963626182193
 10
9837.948709545935
 20
298.4475953651373
 10
9825.339080924934
 20
299.8299347178962
 10
9822.845030323873
 20
303.93111532825225
 10
9799.533383721624
 20
303.93111532825225
  0
LWPOLYLINE
  5
53
330
17
100
AcDbEntity
  8
M
100
AcDbPolyline
 90
28
 70
1
 10
9634.691487998662
 20
821.4311153282521
 10
9612.163878499881
 20
852.987178450225
 10
9612.163878499881
 20
869.4758013281119
 10
9615.494113728773
 20
874.9519918043022
 10
9615.494113728773
 20
880.4252973070041
 10
9628.018769908911
 20
903.766708528948
 10
9649.780785095174
 20
906.5194117538593
 10
9651.39414243937
 20
903.8664303529274
 10
9653.003033650342
 20
906.5120677092044
 10
9669.654209794808
 20
906.5120677092044
 10
9671.319327409252
 20
909.2501629472997
 10
9674.762015445096
 20
909.2501629472997
 10
9676.422666926317
 20
906.5194117538593
 10
9698.069195914119
 20
909.2575069919546
 10
9699.738779661791
 20
906.5120677092044
 10
9704.734132505131
 20
906.5120677092044
 10
9707.284276052145
 20
902.3186486726369
 10
9703.945347294431
 20
891.3376766950207
 10
9703.945347294431
 20
885.8568532452025
 10
9693.952306179639
 20
861.2082355862032
 10
9692.28677110219
 20
847.5143270451968
 10
9685.629053535522
 20
833.8295093724716
 10
9685.629053535522
 20
828.3568532452024
 10
9682.288456800794
 20
820.1170100662009
 10
9679.753759370205
 20
815.9489903993039
 10
9652.999626903873
 20
818.6986220946073
 10
9651.337916035896
 20
821.4311153282521
 10
9634.691487998662
 20
821.4311153282521
  0
LWPOLYLINE
  5
54
330
17
100
AcDbEntity
  8
M
100
AcDbPolyline
 90
16
 70
1
 10
9572.201997659302
 20
513.5249692325076
 10
9575.53129098206
 20
518.9996108519215
 10
9575.53129098206
 20
524.4758013281119
 10
9578.072741000255
 20
528.6549248520616
 10
9609.822428481686
 20
528.6549248520616
 10
9611.431319692658
 20
526.0092874957845
 10
9613.04021090363
 20
528.6549248520616
 10
9646.43048625928
 20
528.6549248520616
 10
9658.1292366058
 20
520.410386876169
 10
9660.652289318825
 20
516.2615156138263
 10
9660.652289318825
 20
513.4673817093447
 10
9648.145650789995
 20
492.90164683075466
 10
9609.809585731395
 20
446.30740453948556
 10
9581.404454553704
 20
449.0549919185225
 10
9570.5348443743
 20
464.17900125869903
 10
9572.201997659302
 20
513.5249692325076
  0
LWPOLYLINE
  5
55
330
17
100
AcDbEntity
  8
M
100
AcDbPolyline
 90
22
 70
1
 10
9624.67360409219
 20
150.63087632364727
 10
9613.017780791064
 20
158.845162037933
 10
9606.358062010539
 20
172.5340931694387
 10
9598.036627906113
 20
178.0075513558809
 10
9588.835192503022
 20
193.13825818539513
 10
9591.393681915826
 20
197.345401042538
 10
9599.71926998806
 20
197.345401042538
 10
9601.377808271784
 20
200.07267732468483
 10
9614.698749187355
 20
202.81077256278004
 10
9616.370446132523
 20
205.5596867568236
 10
9624.696034204755
 20
205.5596867568236
 10
9626.353712067197
 20
208.2855481747056
 10
9638.120951140409
 20
211.0498163383087
 10
9640.67087794547
 20
206.85675370906435
 10
9640.67087794547
 20
184.95199180430248
 10
9644.000171268228
 20
179.47735018488856
 10
9645.665288882676
 20
130.1916358991743
 10
9649.006886326317
 20
124.69676156195634
 10
9646.411957633762
 20
117.58498976213119
 10
9639.660414299467
 20
131.46266459801018
 10
9631.334826227236
 20
136.93885507420057
 10
9624.67360409219
 20
150.63087632364727
  0
LWPOLYLINE
  5
56
330
17
100
AcDbEntity
  8
M
100
AcDbPolyline
 90
50
 70
1
 10
9475.624234115277
 20
839.2846428619325
 10
9475.624234115277
 20
858.4673817093446
 10
9472.293998886385
 20
863.9435721855351
 10
9472.293998886385
 20
913.2424385997826
 10
9470.637726175382
 20
918.6895402142725
 10
9456.522852710637
 20
939.1692105663474
 10
9454.854037531224
 20
939.1692105663474
 10
9439.867979001207
 20
963.8120677092046
 10
9438.19653179515
 20
963.8120677092046
 10
9431.536061337367
 20
977.5025438996807
 10
9429.877273314527
 20
977.5025438996807
 10
9420.658313443937
 20
992.6620677092046
 10
9421.551685242295
 20
994.1311153282521
 10
9453.301372723727
 20
994.1311153282521
 10
9454.966490338173
 20
991.3930200901568
 10
9463.2768797209
 20
991.3930200901568
 10
9471.602467793131
 20
983.1787343758712
 10
9478.262938250917
 20
983.1787343758712
 10
9486.588526323148
 20
974.9644486615854
 10
9489.933960241548
 20
974.9644486615854
 10
9492.475410259742
 20
970.7853251376357
 10
9492.475410259742
 20
965.2580808010431
 10
9485.814939801956
 20
951.567604610567
 10
9485.814939801956
 20
946.0914141343766
 10
9479.15446934417
 20
932.4009379439002
 10
9479.15446934417
 20
924.1816674236305
 10
9475.836599506438
 20
918.7258104171949
 10
9479.952617117848
 20
909.2501629472997
 10
9483.27348978376
 20
909.2501629472997
 10
9484.938607398208
 20
906.5120677092044
 10
9504.920018771563
 20
906.5120677092044
 10
9506.585136386011
 20
903.7739724711093
 10
9523.236312530475
 20
903.7739724711093
 10
9526.584072226866
 20
898.2689650149092
 10
9534.909660299098
 20
892.7927745387187
 10
9539.905013142437
 20
884.5784888244331
 10
9548.226347788159
 20
879.1050960573707
 10
9565.761218759115
 20
855.7632158395401
 10
9559.884208726266
 20
846.0991458389768
 10
9554.888855882926
 20
843.3610506008815
 10
9546.547959132724
 20
829.6454010425379
 10
9533.114565410204
 20
829.6454010425379
 10
9530.57311539201
 20
833.8245245664875
 10
9530.57311539201
 20
877.6340483760115
 10
9528.175438970338
 20
881.5767526845295
 10
9525.777762548669
 20
877.6340483760115
 10
9525.777762548669
 20
833.8245245664875
 10
9523.23392660266
 20
829.641477657465
 10
9483.175594142673
 20
832.3861168449895
 10
9475.624234115277
 20
839.2846428619325
  0
LWPOLYLINE
  5
57
330
17
100
AcDbEntity
  8
M
100
AcDbPolyline
 90
31
 70
1
 10
9392.365803051167
 20
614.8198346032422
 10
9396.562111398389
 20
624.4803225620459
 10
9418.217289434919
 20
627.2195118286179
 10
9419.88656762785
 20
629.9644486615855
 10
9428.212155700081
 20
629.9644486615855
 10
9429.887227819132
 20
632.7189129425753
 10
9439.87793350581
 20
629.9808177044802
 10
9441.533096615653
 20
632.7025438996807
 10
9453.188919916776
 20
632.7025438996807
 10
9454.84869760707
 20
635.4318582440033
 10
9471.608240615767
 20
638.1877731719718
 10
9487.491558270704
 20
614.8187705704051
 10
9484.966968983998
 20
607.8997739340662
 10
9481.599165550728
 20
605.1307903909602
 10
9471.615802479553
 20
602.3947075012592
 10
9466.610222818304
 20
596.9073058044427
 10
9461.626960795958
 20
596.9073058044427
 10
9454.935804348288
 20
585.9044652556653
 10
9451.605569119396
 20
588.6425604937605
 10
9449.981188658936
 20
585.9714528404326
 10
9441.655600586704
 20
583.2333576023374
 10
9439.20034012628
 20
579.1959629362482
 10
9440.865457740725
 20
573.7197724600578
 10
9438.275169399325
 20
569.4603399062585
 10
9433.279816555987
 20
574.9365303824488
 10
9428.34213297453
 20
566.8170751654046
 10
9420.016544902297
 20
561.3408846892141
 10
9414.991626233037
 20
553.0779813598936
 10
9410.706958864748
 20
554.4871103266582
 10
9394.035551349203
 20
601.0912852683315
 10
9392.365803051167
 20
614.8198346032422
  0
LWPOLYLINE
  5
58
330
17
100
AcDbEntity
  8
M
100
AcDbPolyline
 90
28
 70
1
 10
9413.238187991055
 20
826.9073058044424
 10
9408.242835147717
 20
832.3834962806332
 10
9404.900509097832
 20
832.3834962806332
 10
9401.57027386894
 20
837.8596867568235
 10
9396.5749210256
 20
837.8596867568235
 10
9393.244685796708
 20
843.335877233014
 10
9389.923018530026
 20
843.335877233014
 10
9383.26254807224
 20
851.5501629472999
 10
9378.264583302544
 20
851.5501629472999
 10
9369.02896966576
 20
863.9758157826169
 10
9374.938423042198
 20
870.9168296139665
 10
9379.944139718435
 20
870.9168296139665
 10
9393.22429095941
 20
881.8356735919004
 10
9396.554526188302
 20
887.3118640680908
 10
9423.23719769404
 20
909.2501629472997
 10
9428.224246521075
 20
909.2501629472997
 10
9438.275169399325
 20
920.2685574169127
 10
9440.856764211905
 20
916.0234203757311
 10
9440.856764211905
 20
899.5388102807733
 10
9437.525119941398
 20
894.0603027970049
 10
9435.862692451774
 20
861.2562431664177
 10
9448.309621681152
 20
838.0596867568236
 10
9449.971137494835
 20
838.0596867568236
 10
9459.190097365425
 20
822.9001629472998
 10
9456.628874515174
 20
818.6885252652942
 10
9421.549069383138
 20
821.4354168090847
 10
9418.221450013403
 20
826.9073058044424
 10
9413.238187991055
 20
826.9073058044424
  0
ENDSEC
  0
SECTION
  2
OBJECTS
  0
DICTIONARY
  5
A
330
0
100
AcDbDictionary
281
1
  3
ACAD_COLOR
350
B
  3
ACAD_GROUP
350
C
  3
ACAD_LAYOUT
350
D
  3
ACAD_MATERIAL
350
E
  3
ACAD_MLEADERSTYLE
350
F
  3
ACAD_MLINESTYLE
350
10
  3
ACAD_PLOTSETTINGS
350
11
  3
ACAD_PLOTSTYLENAME
350
12
  3
ACAD_SCALELIST
350
14
  3
ACAD_TABLESTYLE
350
15
  3
ACAD_VISUALSTYLE
350
16
  3
EZDXF_META
350
2D
  0
DICTIONARY
  5
B
330
A
100
AcDbDictionary
281
1
  0
DICTIONARY
  5
C
330
A
100
AcDbDictionary
281
1
  0
DICTIONARY
  5
D
330
A
100
AcDbDictionary
281
1
  3
Model
350
1A
  3
Layout1
350
1E
  0
DICTIONARY
  5
E
330
A
100
AcDbDictionary
281
1
  3
ByBlock
350
1F
  3
ByLayer
350
20
  3
Global
350
21
  0
DICTIONARY
  5
F
330
A
100
AcDbDictionary
281
1
  3
Standard
350
2C
  0
DICTIONARY
  5
10
330
A
100
AcDbDictionary
281
1
  3
Standard
350
22
  0
DICTIONARY
  5
11
330
A
100
AcDbDictionary
281
1
  0
ACDBDICTIONARYWDFLT
  5
12
330
A
100
AcDbDictionary
281
1
  3
Normal
350
13
100
AcDbDictionaryWithDefault
340
13
  0
ACDBPLACEHOLDER
  5
13
330
12
  0
DICTIONARY
  5
14
330
A
100
AcDbDictionary
281
1
  0
DICTIONARY
  5
15
330
A
100
AcDbDictionary
281
1
  0
DICTIONARY
  5
16
330
A
100
AcDbDictionary
281
1
  0
LAYOUT
  5
1A
330
D
100
AcDbPlotSettings
  1

  4
A3
  6

 40
7.5
 41
20.0
 42
7.5
 43
20.0
 44
420.0
 45
297.0
 46
0.0
 47
0.0
 48
0.0
 49
0.0
140
0.0
141
0.0
142
1.0
143
1.0
 70
1024
 72
1
 73
0
 74
5
  7

 75
16
 76
0
 77
2
 78
300
147
1.0
148
0.0
149
0.0
100
AcDbLayout
  1
Model
 70
1
 71
0
 10
0.0
 20
0.0
 11
420.0
 21
297.0
 12
0.0
 22
0.0
 32
0.0
 14
1e+20
 24
1e+20
 34
1e+20
 15
-1e+20
 25
-1e+20
 35
-1e+20
146
0.0
 13
0.0
 23
0.0
 33
0.0
 16
1.0
 26
0.0
 36
0.0
 17
0.0
 27
1.0
 37
0.0
 76
1
330
17
  0
LAYOUT
  5
1E
330
D
100
AcDbPlotSettings
  1

  4
A3
  6

 40
7.5
 41
20.0
 42
7.5
 43
20.0
 44
420.0
 45
297.0
 46
0.0
 47
0.0
 48
0.0
 49
0.0
140
0.0
141
0.0
142
1.0
143
1.0
 70
0
 72
1
 73
0
 74
5
  7

 75
16
 76
0
 77
2
 78
300
147
1.0
148
0.0
149
0.0
100
AcDbLayout
  1
Layout1
 70
1
 71
1
 10
0.0
 20
0.0
 11
420.0
 21
297.0
 12
0.0
 22
0.0
 32
0.0
 14
1e+20
 24
1e+20
 34
1e+20
 15
-1e+20
 25
-1e+20
 35
-1e+20
146
0.0
 13
0.0
 23
0.0
 33
0.0
 16
1.0
 26
0.0
 36
0.0
 17
0.0
 27
1.0
 37
0.0
 76
1
330
1B
  0
MATERIAL
  5
1F
102
{ACAD_REACTORS
330
E
102
}
330
E
100
AcDbMaterial
  1
ByBlock
  2

 70
0
 40
1.0
 71
1
 41
1.0
 91
-1023410177
 42
1.0
 72
1
  3

 73
1
 74
1
 75
1
 44
0.5
 73
0
 45
1.0
 46
1.0
 77
1
  4

 78
1
 79
1
170
1
 48
1.0
171
1
  6

172
1
173
1
174
1
140
1.0
141
1.0
175
1
  7

176
1
177
1
178
1
143
1.0
179
1
  8

270
1
271
1
272
1
145
1.0
146
1.0
273
1
  9

274
1
275
1
276
1
 42
1.0
 72
1
  3

 73
1
 74
1
 75
1
 94
63
  0
MATERIAL
  5
20
102
{ACAD_REACTORS
330
E
102
}
330
E
100
AcDbMaterial
  1
ByLayer
  2

 70
0
 40
1.0
 71
1
 41
1.0
 91
-1023410177
 42
1.0
 72
1
  3

 73
1
 74
1
 75
1
 44
0.5
 73
0
 45
1.0
 46
1.0
 77
1
  4

 78
1
 79
1
170
1
 48
1.0
171
1
  6

172
1
173
1
174
1
140
1.0
141
1.0
175
1
  7

176
1
177
1
178
1
143
1.0
179
1
  8

270
1
271
1
272
1
145
1.0
146
1.0
273
1
  9

274
1
275
1
276
1
 42
1.0
 72
1
  3

 73
1
 74
1
 75
1
 94
63
  0
MATERIAL
  5
21
102
{ACAD_REACTORS
330
E
102
}
330
E
100
AcDbMaterial
  1
Global
  2

 70
0
 40
1.0
 71
1
 41
1.0
 91
-1023410177
 42
1.0
 72
1
  3

 73
1
 74
1
 75
1
 44
0.5
 73
0
 45
1.0
 46
1.0
 77
1
  4

 78
1
 79
1
170
1
 48
1.0
171
1
  6

172
1
173
1
174
1
140
1.0
141
1.0
175
1
  7

176
1
177
1
178
1
143
1.0
179
1
  8

270
1
271
1
272
1
145
1.0
146
1.0
273
1
  9

274
1
275
1
276
1
 42
1.0
 72
1
  3

 73
1
 74
1
 75
1
 94
63
  0
MLINESTYLE
  5
22
102
{ACAD_REACTORS
330
10
102
}
330
10
100
AcDbMlineStyle
  2
Standard
 70
0
  3

 62
256
 51
90.0
 52
90.0
 71
2
 49
0.5
 62
256
  6
BYLAYER
 49
-0.5
 62
256
  6
BYLAYER
  0
MLEADERSTYLE
  5
2C
102
{ACAD_REACTORS
330
F
102
}
330
F
100
AcDbMLeaderStyle
179
2
170
2
171
1
172
0
 90
2
 40
0.0
 41
0.0
173
1
 91
-1056964608
 92
-2
290
1
 42
2.0
291
1
 43
8.0
  3
Standard
 44
4.0
300

342
29
174
1
175
1
176
0
178
1
 93
-1056964608
 45
4.0
292
0
297
0
 46
4.0
 94
-1056964608
 47
1.0
 49
1.0
140
1.0
294
1
141
0.0
177
0
142
1.0
295
0
296
0
143
3.75
271
0
272
9
273
9
  0
DICTIONARY
  5
2D
330
A
100
AcDbDictionary
280
1
281
1
  3
CREATED_BY_EZDXF
350
2E
  3
WRITTEN_BY_EZDXF
350
5B
  0
DICTIONARYVAR
  5
2E
330
2D
100
DictionaryVariables
280
0
  1
1.4.4 @ 2026-07-14T08:49:52.804709+00:00
  0
DICTIONARYVAR
  5
5B
330
2D
100
DictionaryVariables
280
0
  1
1.4.4 @ 2026-07-14T08:49:52.817365+00:00
  0
ENDSEC
  0
EOF
