  0
SECTION
  2
HEADER
  9
$ACADVER
  1
AC1027
  9
$ACADMAINTVER
 70
105
  9
$DWGCODEPAGE
  3
ANSI_1252
  9
$LASTSAVEDBY
  1
ezdxf
  9
$REQUIREDVERSIONS
160
0
  9
$INSBASE
 10
0.0
 20
0.0
 30
0.0
  9
$EXTMIN
 10
1e+20
 20
1e+20
 30
1e+20
  9
$EXTMAX
 10
-1e+20
 20
-1e+20
 30
-1e+20
  9
$LIMMIN
 10
0.0
 20
0.0
  9
$LIMMAX
 10
420.0
 20
297.0
  9
$ORTHOMODE
 70
0
  9
$REGENMODE
 70
1
  9
$FILLMODE
 70
1
  9
$QTEXTMODE
 70
0
  9
$MIRRTEXT
 70
1
  9
$LTSCALE
 40
1.0
  9
$ATTMODE
 70
1
  9
$TEXTSIZE
 40
2.5
  9
$TRACEWID
 40
1.0
  9
$TEXTSTYLE
  7
Standard
  9
$CLAYER
  8
0
  9
$CELTYPE
  6
ByLayer
  9
$CECOLOR
 62
256
  9
$CELTSCALE
 40
1.0
  9
$DISPSILH
 70
0
  9
$DIMSCALE
 40
1.0
  9
$DIMASZ
 40
2.5
  9
$DIMEXO
 40
0.625
  9
$DIMDLI
 40
3.75
  9
$DIMRND
 40
0.0
  9
$DIMDLE
 40
0.0
  9
$DIMEXE
 40
1.25
  9
$DIMTP
 40
0.0
  9
$DIMTM
 40
0.0
  9
$DIMTXT
 40
2.5
  9
$DIMCEN
 40
2.5
  9
$DIMTSZ
 40
0.0
  9
$DIMTOL
 70
0
  9
$DIMLIM
 70
0
  9
$DIMTIH
 70
0
  9
$DIMTOH
 70
0
  9
$DIMSE1
 70
0
  9
$DIMSE2
 70
0
  9
$DIMTAD
 70
1
  9
$DIMZIN
 70
8
  9
$DIMBLK
  1

  9
$DIMASO
 70
1
  9
$DIMSHO
 70
1
  9
$DIMPOST
  1

  9
$DIMAPOST
  1

  9
$DIMALT
 70
0
  9
$DIMALTD
 70
3
  9
$DIMALTF
 40
0.03937007874
  9
$DIMLFAC
 40
1.0
  9
$DIMTOFL
 70
1
  9
$DIMTVP
 40
0.0
  9
$DIMTIX
 70
0
  9
$DIMSOXD
 70
0
  9
$DIMSAH
 70
0
  9
$DIMBLK1
  1

  9
$DIMBLK2
  1

  9
$DIMSTYLE
  2
ISO-25
  9
$DIMCLRD
 70
0
  9
$DIMCLRE
 70
0
  9
$DIMCLRT
 70
0
  9
$DIMTFAC
 40
1.0
  9
$DIMGAP
 40
0.625
  9
$DIMJUST
 70
0
  9
$DIMSD1
 70
0
  9
$DIMSD2
 70
0
  9
$DIMTOLJ
 70
0
  9
$DIMTZIN
 70
8
  9
$DIMALTZ
 70
0
  9
$DIMALTTZ
 70
0
  9
$DIMUPT
 70
0
  9
$DIMDEC
 70
2
  9
$DIMTDEC
 70
2
  9
$DIMALTU
 70
2
  9
$DIMALTTD
 70
3
  9
$DIMTXSTY
  7
Standard
  9
$DIMAUNIT
 70
0
  9
$DIMADEC
 70
0
  9
$DIMALTRND
 40
0.0
  9
$DIMAZIN
 70
0
  9
$DIMDSEP
 70
44
  9
$DIMATFIT
 70
3
  9
$DIMFRAC
 70
0
  9
$DIMLDRBLK
  1

  9
$DIMLUNIT
 70
2
  9
$DIMLWD
 70
-2
  9
$DIMLWE
 70
-2
  9
$DIMTMOVE
 70
0
  9
$DIMFXL
 40
1.0
  9
$DIMFXLON
 70
0
  9
$DIMJOGANG
 40
0.785398163397
  9
$DIMTFILL
 70
0
  9
$DIMTFILLCLR
 70
0
  9
$DIMARCSYM
 70
0
  9
$DIMLTYPE
  6

  9
$DIMLTEX1
  6

  9
$DIMLTEX2
  6

  9
$DIMTXTDIRECTION
 70
0
  9
$LUNITS
 70
2
  9
$LUPREC
 70
4
  9
$SKETCHINC
 40
1.0
  9
$FILLETRAD
 40
10.0
  9
$AUNITS
 70
0
  9
$AUPREC
 70
2
  9
$MENU
  1
.
  9
$ELEVATION
 40
0.0
  9
$PELEVATION
 40
0.0
  9
$THICKNESS
 40
0.0
  9
$LIMCHECK
 70
0
  9
$CHAMFERA
 40
0.0
  9
$CHAMFERB
 40
0.0
  9
$CHAMFERC
 40
0.0
  9
$CHAMFERD
 40
0.0
  9
$SKPOLY
 70
0
  9
$TDCREATE
 40
2461236.492962963
  9
$TDUCREATE
 40
2458532.153996898
  9
$TDUPDATE
 40
2461236.492962963
  9
$TDUUPDATE
 40
2458532.1544311
  9
$TDINDWG
 40
0.0
  9
$TDUSRTIMER
 40
0.0
  9
$USRTIMER
 70
1
  9
$ANGBASE
 50
0.0
  9
$ANGDIR
 70
0
  9
$PDMODE
 70
0
  9
$PDSIZE
 40
0.0
  9
$PLINEWID
 40
0.0
  9
$SPLFRAME
 70
0
  9
$SPLINETYPE
 70
6
  9
$SPLINESEGS
 70
8
  9
$HANDSEED
  5
5B
  9
$SURFTAB1
 70
6
  9
$SURFTAB2
 70
6
  9
$SURFTYPE
 70
6
  9
$SURFU
 70
6
  9
$SURFV
 70
6
  9
$UCSBASE
  2

  9
$UCSNAME
  2

  9
$UCSORG
 10
0.0
 20
0.0
 30
0.0
  9
$UCSXDIR
 10
1.0
 20
0.0
 30
0.0
  9
$UCSYDIR
 10
0.0
 20
1.0
 30
0.0
  9
$UCSORTHOREF
  2

  9
$UCSORTHOVIEW
 70
0
  9
$UCSORGTOP
 10
0.0
 20
0.0
 30
0.0
  9
$UCSORGBOTTOM
 10
0.0
 20
0.0
 30
0.0
  9
$UCSORGLEFT
 10
0.0
 20
0.0
 30
0.0
  9
$UCSORGRIGHT
 10
0.0
 20
0.0
 30
0.0
  9
$UCSORGFRONT
 10
0.0
 20
0.0
 30
0.0
  9
$UCSORGBACK
 10
0.0
 20
0.0
 30
0.0
  9
$PUCSBASE
  2

  9
$PUCSNAME
  2

  9
$PUCSORG
 10
0.0
 20
0.0
 30
0.0
  9
$PUCSXDIR
 10
1.0
 20
0.0
 30
0.0
  9
$PUCSYDIR
 10
0.0
 20
1.0
 30
0.0
  9
$PUCSORTHOREF
  2

  9
$PUCSORTHOVIEW
 70
0
  9
$PUCSORGTOP
 10
0.0
 20
0.0
 30
0.0
  9
$PUCSORGBOTTOM
 10
0.0
 20
0.0
 30
0.0
  9
$PUCSORGLEFT
 10
0.0
 20
0.0
 30
0.0
  9
$PUCSORGRIGHT
 10
0.0
 20
0.0
 30
0.0
  9
$PUCSORGFRONT
 10
0.0
 20
0.0
 30
0.0
  9
$PUCSORGBACK
 10
0.0
 20
0.0
 30
0.0
  9
$USERI1
 70
0
  9
$USERI2
 70
0
  9
$USERI3
 70
0
  9
$USERI4
 70
0
  9
$USERI5
 70
0
  9
$USERR1
 40
0.0
  9
$USERR2
 40
0.0
  9
$USERR3
 40
0.0
  9
$USERR4
 40
0.0
  9
$USERR5
 40
0.0
  9
$WORLDVIEW
 70
1
  9
$SHADEDGE
 70
3
  9
$SHADEDIF
 70
70
  9
$TILEMODE
 70
1
  9
$MAXACTVP
 70
64
  9
$PINSBASE
 10
0.0
 20
0.0
 30
0.0
  9
$PLIMCHECK
 70
0
  9
$PEXTMIN
 10
1e+20
 20
1e+20
 30
1e+20
  9
$PEXTMAX
 10
-1e+20
 20
-1e+20
 30
-1e+20
  9
$PLIMMIN
 10
0.0
 20
0.0
  9
$PLIMMAX
 10
420.0
 20
297.0
  9
$UNITMODE
 70
0
  9
$VISRETAIN
 70
1
  9
$PLINEGEN
 70
0
  9
$PSLTSCALE
 70
1
  9
$TREEDEPTH
 70
3020
  9
$CMLSTYLE
  2
Standard
  9
$CMLJUST
 70
0
  9
$CMLSCALE
 40
20.0
  9
$PROXYGRAPHICS
 70
1
  9
$MEASUREMENT
 70
1
  9
$CELWEIGHT
370
-1
  9
$ENDCAPS
280
0
  9
$JOINSTYLE
280
0
  9
$LWDISPLAY
290
0
  9
$INSUNITS
 70
4
  9
$HYPERLINKBASE
  1

  9
$STYLESHEET
  1

  9
$XEDIT
290
1
  9
$CEPSNTYPE
380
0
  9
$PSTYLEMODE
290
1
  9
$FINGERPRINTGUID
  2
{8FA5D93A-8E12-4228-88F5-BC78CAE68A45}
  9
$VERSIONGUID
  2
{DDB54F22-C85F-4F0C-8E43-32B5EF115BFC}
  9
$EXTNAMES
290
1
  9
$PSVPSCALE
 40
0.0
  9
$OLESTARTUP
290
0
  9
$SORTENTS
280
127
  9
$INDEXCTL
280
0
  9
$HIDETEXT
280
1
  9
$XCLIPFRAME
280
1
  9
$HALOGAP
280
0
  9
$OBSCOLOR
 70
257
  9
$OBSLTYPE
280
0
  9
$INTERSECTIONDISPLAY
280
0
  9
$INTERSECTIONCOLOR
 70
257
  9
$DIMASSOC
280
2
  9
$PROJECTNAME
  1

  9
$CAMERADISPLAY
290
0
  9
$LENSLENGTH
 40
50.0
  9
$CAMERAHEIGHT
 40
0.0
  9
$STEPSPERSEC
 40
24.0
  9
$STEPSIZE
 40
100.0
  9
$3DDWFPREC
 40
2.0
  9
$PSOLWIDTH
 40
0.005
  9
$PSOLHEIGHT
 40
0.08
  9
$LOFTANG1
 40
1.570796326795
  9
$LOFTANG2
 40
1.570796326795
  9
$LOFTMAG1
 40
0.0
  9
$LOFTMAG2
 40
0.0
  9
$LOFTPARAM
 70
7
  9
$LOFTNORMALS
280
1
  9
$LATITUDE
 40
37.795
  9
$LONGITUDE
 40
-122.394
  9
$NORTHDIRECTION
 40
0.0
  9
$TIMEZONE
 70
-8000
  9
$LIGHTGLYPHDISPLAY
280
1
  9
$TILEMODELIGHTSYNCH
280
1
  9
$CMATERIAL
347
20
  9
$SOLIDHIST
280
0
  9
$SHOWHIST
280
1
  9
$DWFFRAME
280
2
  9
$DGNFRAME
280
2
  9
$REALWORLDSCALE
290
1
  9
$INTERFERECOLOR
 62
256
  9
$CSHADOW
280
0
  9
$SHADOWPLANELOCATION
 40
0.0
  0
ENDSEC
  0
SECTION
  2
CLASSES
  0
CLASS
  1
ACDBDICTIONARYWDFLT
  2
AcDbDictionaryWithDefault
  3
ObjectDBX Classes
 90
0
 91
0
280
0
281
0
  0
CLASS
  1
SUN
  2
AcDbSun
  3
SCENEOE
 90
1153
 91
0
280
0
281
0
  0
CLASS
  1
VISUALSTYLE
  2
AcDbVisualStyle
  3
ObjectDBX Classes
 90
4095
 91
0
280
0
281
0
  0
CLASS
  1
MATERIAL
  2
AcDbMaterial
  3
ObjectDBX Classes
 90
1153
 91
0
280
0
281
0
  0
CLASS
  1
SCALE
  2
AcDbScale
  3
ObjectDBX Classes
 90
1153
 91
0
280
0
281
0
  0
CLASS
  1
TABLESTYLE
  2
AcDbTableStyle
  3
ObjectDBX Classes
 90
4095
 91
0
280
0
281
0
  0
CLASS
  1
MLEADERSTYLE
  2
AcDbMLeaderStyle
  3
ACDB_MLEADERSTYLE_CLASS
 90
4095
 91
0
280
0
281
0
  0
CLASS
  1
DICTIONARYVAR
  2
AcDbDictionaryVar
  3
ObjectDBX Classes
 90
0
 91
0
280
0
281
0
  0
CLASS
  1
CELLSTYLEMAP
  2
AcDbCellStyleMap
  3
ObjectDBX Classes
 90
1152
 91
0
280
0
281
0
  0
CLASS
  1
MENTALRAYRENDERSETTINGS
  2
AcDbMentalRayRenderSettings
  3
SCENEOE
 90
1024
 91
0
280
0
281
0
  0
CLASS
  1
ACDBDETAILVIEWSTYLE
  2
AcDbDetailViewStyle
  3
ObjectDBX Classes
 90
1025
 91
0
280
0
281
0
  0
CLASS
  1
ACDBSECTIONVIEWSTYLE
  2
AcDbSectionViewStyle
  3
ObjectDBX Classes
 90
1025
 91
0
280
0
281
0
  0
CLASS
  1
RASTERVARIABLES
  2
AcDbRasterVariables
  3
ISM
 90
0
 91
0
280
0
281
0
  0
CLASS
  1
LAYOUT
  2
AcDbLayout
  3
ObjectDBX Classes
 90
0
 91
0
280
0
281
0
  0
CLASS
  1
ACDBPLACEHOLDER
  2
AcDbPlaceHolder
  3
ObjectDBX Classes
 90
0
 91
0
280
0
281
0
  0
ENDSEC
  0
SECTION
  2
TABLES
  0
TABLE
  2
VPORT
  5
8
330
0
100
AcDbSymbolTable
 70
1
  0
VPORT
  5
23
330
8
100
AcDbSymbolTableRecord
100
AcDbViewportTableRecord
  2
*Active
 70
0
 10
0.0
 20
0.0
 11
1.0
 21
1.0
 12
0.0
 22
0.0
 13
0.0
 23
0.0
 14
0.5
 24
0.5
 15
0.5
 25
0.5
 16
0.0
 26
0.0
 36
1.0
 17
0.0
 27
0.0
 37
0.0
 40
1000.0
 41
1.34
 42
50.0
 43
0.0
 44
0.0
 50
0.0
 51
0.0
 71
0
 72
1000
 73
1
 74
3
 75
0
 76
0
 77
0
 78
0
281
0
 65
0
146
0.0
  0
ENDTAB
  0
TABLE
  2
LTYPE
  5
2
330
0
100
AcDbSymbolTable
 70
3
  0
LTYPE
  5
24
330
2
100
AcDbSymbolTableRecord
100
AcDbLinetypeTableRecord
  2
ByBlock
 70
0
  3

 72
65
 73
0
 40
0.0
  0
LTYPE
  5
25
330
2
100
AcDbSymbolTableRecord
100
AcDbLinetypeTableRecord
  2
ByLayer
 70
0
  3

 72
65
 73
0
 40
0.0
  0
LTYPE
  5
26
330
2
100
AcDbSymbolTableRecord
100
AcDbLinetypeTableRecord
  2
Continuous
 70
0
  3

 72
65
 73
0
 40
0.0
  0
ENDTAB
  0
TABLE
  2
LAYER
  5
1
330
0
100
AcDbSymbolTable
 70
3
  0
LAYER
  5
27
330
1
100
AcDbSymbolTableRecord
100
AcDbLayerTableRecord
  2
0
 70
0
 62
7
  6
Continuous
370
-3
390
13
347
21
  0
LAYER
  5
28
330
1
100
AcDbSymbolTableRecord
100
AcDbLayerTableRecord
  2
Defpoints
 70
0
 62
7
  6
Continuous
290
0
370
-3
390
13
347
21
  0
LAYER
  5
2F
330
1
100
AcDbSymbolTableRecord
100
AcDbLayerTableRecord
  2
Y
 70
0
 62
7
  6
Continuous
370
-3
390
13
347
21
  0
ENDTAB
  0
TABLE
  2
STYLE
  5
5
330
0
100
AcDbSymbolTable
 70
1
  0
STYLE
  5
29
330
5
100
AcDbSymbolTableRecord
100
AcDbTextStyleTableRecord
  2
Standard
 70
0
 40
0.0
 41
1.0
 50
0.0
 71
0
 42
2.5
  3
txt
  4

  0
ENDTAB
  0
TABLE
  2
VIEW
  5
7
330
0
100
AcDbSymbolTable
 70
0
  0
ENDTAB
  0
TABLE
  2
UCS
  5
6
330
0
100
AcDbSymbolTable
 70
0
  0
ENDTAB
  0
TABLE
  2
APPID
  5
3
330
0
100
AcDbSymbolTable
 70
3
  0
APPID
  5
2A
330
3
100
AcDbSymbolTableRecord
100
AcDbRegAppTableRecord
  2
ACAD
 70
0
  0
APPID
  5
58
330
3
100
AcDbSymbolTableRecord
100
AcDbRegAppTableRecord
  2
HATCHBACKGROUNDCOLOR
 70
0
  0
APPID
  5
59
330
3
100
AcDbSymbolTableRecord
100
AcDbRegAppTableRecord
  2
EZDXF
 70
0
  0
ENDTAB
  0
TABLE
  2
DIMSTYLE
  5
4
330
0
100
AcDbSymbolTable
 70
1
100
AcDbDimStyleTable
  0
DIMSTYLE
105
2B
330
4
100
AcDbSymbolTableRecord
100
AcDbDimStyleTableRecord
  2
Standard
 70
0
 40
1.0
 41
2.5
 42
0.625
 43
3.75
 44
1.25
 45
0.0
 46
0.0
 47
0.0
 48
0.0
 49
2.5
140
2.5
141
2.5
142
0.0
143
0.03937007874
144
1.0
145
0.0
146
1.0
147
0.625
148
0.0
 69
0
 70
0
 71
0
 72
0
 73
0
 74
0
 75
0
 76
0
 77
1
 78
8
 79
3
170
0
171
3
172
1
173
0
174
0
175
0
176
0
177
0
178
0
179
2
271
2
272
2
273
2
274
3
275
0
276
0
277
2
278
44
279
0
280
0
281
0
282
0
283
0
284
8
285
0
286
0
288
0
289
3
290
0
371
-2
372
-2
  0
ENDTAB
  0
TABLE
  2
BLOCK_RECORD
  5
9
330
0
100
AcDbSymbolTable
 70
2
  0
BLOCK_RECORD
  5
17
330
9
100
AcDbSymbolTableRecord
100
AcDbBlockTableRecord
  2
*Model_Space
340
1A
 70
0
280
1
281
0
  0
BLOCK_RECORD
  5
1B
330
9
100
AcDbSymbolTableRecord
100
AcDbBlockTableRecord
  2
*Paper_Space
340
1E
 70
0
280
1
281
0
  0
ENDTAB
  0
ENDSEC
  0
SECTION
  2
BLOCKS
  0
BLOCK
  5
18
330
17
100
AcDbEntity
  8
0
100
AcDbBlockBegin
  2
*Model_Space
 70
0
 10
0.0
 20
0.0
 30
0.0
  3
*Model_Space
  1

  0
ENDBLK
  5
19
330
17
100
AcDbEntity
  8
0
100
AcDbBlockEnd
  0
BLOCK
  5
1C
330
1B
100
AcDbEntity
  8
0
100
AcDbBlockBegin
  2
*Paper_Space
 70
0
 10
0.0
 20
0.0
 30
0.0
  3
*Paper_Space
  1

  0
ENDBLK
  5
1D
330
1B
100
AcDbEntity
  8
0
100
AcDbBlockEnd
  0
ENDSEC
  0
SECTION
  2
ENTITIES
  0
LWPOLYLINE
  5
30
330
17
100
AcDbEntity
  8
Y
100
AcDbPolyline
 90
19
 70
1
 10
429.74214388372195
 20
332.7662892429174
 10
444.7069533200221
 20
364.3701041754348
 10
451.7580682480721
 20
364.3701041754348
 10
460.52866512168174
 20
369.8462946516252
 10
465.76498143758045
 20
369.8462946516252
 10
467.5191008123024
 20
372.5843898897204
 10
476.315739494179
 20
372.5843898897204
 10
485.12723936448896
 20
378.0861194032429
 10
489.60029031942696
 20
373.89679009214694
 10
489.60029031942696
 20
340.96700993228336
 10
486.9321890501788
 20
336.80223330113625
 10
476.40747280184723
 20
334.0641380630409
 10
474.64497295739125
 20
331.3129613182919
 10
467.62849545850355
 20
331.3129613182919
 10
465.8743760837816
 20
328.5748660801967
 10
453.56949865246116
 20
328.5748660801967
 10
444.7908010799716
 20
323.0936176848365
 10
436.82409201785293
 20
324.4753561647843
 10
429.74214388372195
 20
332.7662892429174
  0
LWPOLYLINE
  5
31
330
17
100
AcDbEntity
  8
Y
100
AcDbPolyline
 90
16
 70
1
 10
371.87429221305837
 20
316.32415278942614
 10
371.87429221305837
 20
365.6684365138243
 10
374.6054712751412
 20
369.93167451919675
 10
376.41428797296373
 20
367.10819941353003
 10
379.83917388447344
 20
367.10819941353003
 10
388.609770758083
 20
372.5843898897204
 10
393.8460870739817
 20
372.5843898897204
 10
395.5958227540638
 20
375.3156423931698
 10
416.6698442186941
 20
378.0569361467647
 10
425.5058153686249
 20
383.5739450523663
 10
428.22040627325464
 20
379.336600355959
 10
407.1676237184318
 20
335.52010417543477
 10
412.4360904289484
 20
324.55500961382853
 10
402.7200887799258
 20
312.1462946516252
 10
374.55077395204063
 20
312.1462946516252
 10
371.87429221305837
 20
316.32415278942614
  0
LWPOLYLINE
  5
32
330
17
100
AcDbEntity
  8
Y
100
AcDbPolyline
 90
38
 70
1
 10
224.52826473641707
 20
894.1208174662053
 10
226.28238411113898
 20
896.8589127043005
 10
226.28238411113898
 20
902.335103180491
 10
229.79062286058283
 20
907.8112936566814
 10
229.79062286058283
 20
918.7636746090623
 10
232.46710459956515
 20
922.9415327468632
 10
246.50005959734054
 20
922.9415327468632
 10
249.08593598252392
 20
926.977960323348
 10
249.08593598252392
 20
946.0997174039635
 10
247.32222639171468
 20
951.605847604188
 10
250.00829834678433
 20
955.7986756040061
 10
253.51653709622818
 20
955.7986756040061
 10
257.0544764953993
 20
961.3212273534134
 10
260.6221165442977
 20
958.5367708421014
 10
278.18360298853617
 20
958.5367708421014
 10
279.9377223632581
 20
955.7986756040061
 10
299.2330354851992
 20
955.7986756040061
 10
300.98715485992113
 20
953.0605803659108
 10
309.7577517335307
 20
953.0605803659108
 10
311.51187110825265
 20
950.3224851278158
 10
315.02010985769647
 20
950.3224851278158
 10
317.7108856657736
 20
946.1223146416731
 10
312.43067309724745
 20
935.1327737941054
 10
310.6747714838065
 20
924.1692648890437
 10
300.9903519735623
 20
911.8008848065734
 10
290.452950740396
 20
909.0594894608312
 10
283.42566841568265
 20
903.5748660801967
 10
272.91580599663524
 20
903.5748660801967
 10
262.39900231366636
 20
889.8946824985802
 10
250.12497348192792
 20
887.1576591416318
 10
248.308876295163
 20
884.3228195459586
 10
246.50005959734054
 20
887.1462946516252
 10
243.08092279707856
 20
887.1462946516252
 10
236.06444529819083
 20
881.6701041754347
 10
230.82237987104432
 20
881.6701041754347
 10
229.03293044528453
 20
878.8768604418024
 10
224.52826473641707
 20
883.0957992111033
 10
224.52826473641707
 20
894.1208174662053
  0
LWPOLYLINE
  5
33
330
17
100
AcDbEntity
  8
Y
100
AcDbPolyline
 90
17
 70
1
 10
196.46235474086635
 20
184.8955813608548
 10
196.46235474086635
 20
204.1208174662052
 10
199.13883647984864
 20
208.29867560400615
 10
206.23712716546092
 20
208.29867560400615
 10
220.28153887459132
 20
200.07768362575592
 10
230.83076034077843
 20
197.33321314497152
 10
232.5837797347088
 20
194.5968349235234
 10
244.86261535776228
 20
191.85873968542808
 10
249.30941905229625
 20
184.91749486696858
 10
241.35302273606007
 20
175.25784593753443
 10
234.33565665822977
 20
172.51940394228467
 10
213.2959710127987
 20
147.88795757083625
 10
206.23432281335684
 20
142.37651245865254
 10
200.0086156782671
 20
143.7648019987748
 10
198.21647411558826
 20
146.56224802752146
 10
198.21647411558826
 20
182.1574861227596
 10
196.46235474086635
 20
184.8955813608548
  0
LWPOLYLINE
  5
34
330
17
100
AcDbEntity
  8
Y
100
AcDbPolyline
 90
11
 70
1
 10
180.66378691681987
 20
962.5325697001349
 10
183.32306864110146
 20
969.4509192823987
 10
186.88029355381448
 20
972.2272470325776
 10
225.54996385290926
 20
972.2272470325776
 10
231.77360306045685
 20
965.2881049995109
 10
218.56114209314026
 20
947.413962538702
 10
211.55236087960128
 20
941.9437788265232
 10
206.2932115655974
 20
930.9980762701136
 10
200.91898556601424
 20
925.405472243287
 10
191.21226713167832
 20
946.0669038727879
 10
180.66378691681987
 20
962.5325697001349
  0
LWPOLYLINE
  5
35
330
17
100
AcDbEntity
  8
Y
100
AcDbPolyline
 90
26
 70
1
 10
125.46582274152802
 20
240.95581846114897
 10
123.71170336680612
 20
243.6939136992443
 10
118.44934524264033
 20
243.6939136992443
 10
114.02329850652593
 20
250.60275791269083
 10
112.26917913180401
 20
261.55513886507174
 10
108.76238442847192
 20
267.02907525534357
 10
106.9943914097623
 20
275.30832922507165
 10
114.94861661847972
 20
284.9653422706728
 10
118.45600985123986
 20
284.9653422706728
 10
127.22660672484945
 20
295.91772322305377
 10
134.31977245307178
 20
295.91772322305377
 10
143.09036932668138
 20
290.44153274686334
 10
150.10684682556905
 20
290.44153274686334
 10
158.87744369917863
 20
284.9653422706728
 10
164.16584363161138
 20
284.9653422706728
 10
165.9199630063333
 20
282.2272470325776
 10
172.91039869695402
 20
282.2272470325776
 10
181.6809955705636
 20
276.7510565563871
 10
186.96567091483539
 20
276.7510565563871
 10
201.94573174577738
 20
256.1188670043866
 10
198.41647411558824
 20
250.60986707514056
 10
198.41647411558824
 20
242.39558136085478
 10
193.98345271865904
 20
235.475850040271
 10
153.52940056213322
 20
238.221363634992
 10
151.77761336235682
 20
240.95581846114897
 10
125.46582274152802
 20
240.95581846114897
  0
LWPOLYLINE
  5
36
330
17
100
AcDbEntity
  8
Y
100
AcDbPolyline
 90
24
 70
1
 10
29.01529894008942
 20
197.14629465162523
 10
20.21866025821284
 20
197.14629465162523
 10
18.494241533218215
 20
199.83802861650344
 10
14.976065436481667
 20
197.09217751991488
 10
8.771581645620918
 20
209.54418945305727
 10
8.771581645620918
 20
220.4908194560929
 10
5.263342896177081
 20
225.96700993228333
 10
5.263342896177081
 20
250.6684365138243
 10
16.710421508769002
 20
268.53677084210136
 10
43.131606775798915
 20
268.53677084210136
 10
44.88572615052083
 20
265.7986756040062
 10
58.91868114829618
 20
265.7986756040062
 10
63.34621218264497
 20
258.8875144730306
 10
65.10033155736689
 20
242.45894304445912
 10
68.60900115213386
 20
236.98208003962293
 10
70.36312052685578
 20
217.81541337295627
 10
73.87135927629961
 20
212.33922289676573
 10
75.62547865102154
 20
193.17255623009908
 10
77.4009980730836
 20
190.40105655638715
 10
72.94595840889406
 20
183.4469557888858
 10
55.3201236512576
 20
186.1982630780484
 10
46.55649268730866
 20
191.67010417543472
 10
37.785895813699064
 20
191.67010417543472
 10
29.01529894008942
 20
197.14629465162523
  0
LWPOLYLINE
  5
37
330
17
100
AcDbEntity
  8
Y
100
AcDbPolyline
 90
13
 70
1
 10
3.513777899045001
 20
168.53268853341683
 10
5.266657858977897
 20
179.4773308203894
 10
13.240822084721493
 20
197.45674027451574
 10
21.24010863494791
 20
184.97024207663424
 10
31.775133517005838
 20
157.5624709005223
 10
31.775133517005838
 20
152.09700794239575
 10
37.03749164117165
 20
143.88272222811003
 10
37.03749164117165
 20
138.34796231323574
 10
34.35771663993054
 20
134.16496355283033
 10
4.442969807180564
 20
136.91175581230527
 10
0.0009847720113254077
 20
141.07198968729404
 10
0.0009847720113254077
 20
163.04938889477668
 10
3.513777899045001
 20
168.53268853341683
  0
LWPOLYLINE
  5
38
330
17
100
AcDbEntity
  8
Y
100
AcDbPolyline
 90
9
 70
1
 10
0.8797609166560361
 20
668.2986756040061
 10
18.573935529692054
 20
668.2986756040061
 10
21.25252106918152
 20
664.1175335356851
 10
19.494237441259386
 20
639.416174617979
 10
15.985419910476251
 20
633.9390806921988
 10
14.231300535754333
 20
614.7724140255322
 10
11.534566307408955
 20
610.5629427344397
 10
0.0
 20
617.4879036479722
 10
0.8797609166560361
 20
668.2986756040061
  0
LWPOLYLINE
  5
39
330
17
100
AcDbEntity
  8
Y
100
AcDbPolyline
 90
25
 70
1
 10
1047.806832633534
 20
476.44156638051595
 10
1045.6921350546968
 20
480.6152637995249
 10
1045.6921350546968
 20
505.305896932297
 10
1048.4667700075106
 20
510.7820874084874
 10
1048.4667700075106
 20
532.6868493132494
 10
1052.007784143332
 20
539.675612958347
 10
1054.809698651341
 20
536.9105974148965
 10
1060.386248112164
 20
542.4137081964421
 10
1061.814762597398
 20
539.5943040037555
 10
1072.9133024086523
 20
536.8562087656602
 10
1074.299319697703
 20
534.1206796574303
 10
1088.1483479853157
 20
531.3873501166843
 10
1095.0766214008863
 20
525.9177232230537
 10
1102.0399289916081
 20
525.9177232230537
 10
1104.1594690637828
 20
521.7344683608684
 10
1104.1594690637828
 20
513.5201826465827
 10
1106.9341040165966
 20
508.0439921703922
 10
1106.9341040165966
 20
499.82970645610646
 10
1109.70873896941
 20
494.35351597991604
 10
1109.70873896941
 20
488.87732550372556
 10
1113.8706913986305
 20
480.6630397894398
 10
1113.8706913986305
 20
475.1868493132494
 10
1116.657429740844
 20
469.6867708421014
 10
1114.5204320594114
 20
465.46906056679603
 10
1047.806832633534
 20
476.44156638051595
  0
LWPOLYLINE
  5
3A
330
17
100
AcDbEntity
  8
Y
100
AcDbPolyline
 90
23
 70
1
 10
830.00100481802
 20
90.36418528445708
 10
827.8711878694278
 20
94.56772322305382
 10
829.2706087352346
 20
97.32970645610648
 10
829.2706087352346
 20
113.75827788467794
 10
833.432561164455
 20
121.97256359896366
 10
833.432561164455
 20
132.9249445513446
 10
837.5945135936755
 20
141.13923026563032
 10
837.5945135936755
 20
149.3460609884165
 10
840.3791003932006
 20
157.5898090693428
 10
845.2730902176564
 20
164.4891517944823
 10
853.5872284299182
 20
164.4891517944823
 10
854.9745459063251
 20
167.2272470325776
 10
857.8516506208582
 20
167.2272470325776
 10
863.4417255727884
 20
161.71078887978382
 10
868.9846665960048
 20
150.7708989996241
 10
878.6958889308524
 20
145.2947085234336
 10
885.6324763128864
 20
131.60423233295745
 10
895.3400630549066
 20
126.13009197961763
 10
903.6681873042112
 20
112.43267608101901
 10
917.5445181019608
 20
101.47780355163657
 10
923.8203005202977
 20
89.0915327468633
 10
921.6867622390339
 20
84.8806501568505
 10
830.00100481802
 20
90.36418528445708
  0
LWPOLYLINE
  5
3B
330
17
100
AcDbEntity
  8
Y
100
AcDbPolyline
 90
11
 70
1
 10
1683.5475354234172
 20
383.3487997529929
 10
1682.3116587611298
 20
386.07486608019667
 10
1677.3558279371034
 20
386.07486608019667
 10
1672.9527459384283
 20
393.01215887623306
 10
1674.8586470391472
 20
397.21614862067423
 10
1689.8829015951767
 20
399.9778262005339
 10
1691.13922368917
 20
397.2066618432275
 10
1698.5872038871125
 20
394.4685666051323
 10
1700.482469598796
 20
390.28803614009297
 10
1697.3397701499273
 20
380.58311139500023
 10
1683.5475354234172
 20
383.3487997529929
  0
LWPOLYLINE
  5
3C
330
17
100
AcDbEntity
  8
Y
100
AcDbPolyline
 90
18
 70
1
 10
1640.7256288946162
 20
1.3757359142961834
 10
1639.4502337689971
 20
4.188971095382188
 10
1639.4502337689971
 20
9.665161571572655
 10
1636.9699856155692
 20
15.136031910410324
 10
1635.722815914824
 20
26.139936844473937
 10
1643.9108687009527
 20
38.6437097657126
 10
1645.1461322039731
 20
35.91899593013059
 10
1651.2763127398507
 20
46.73643702177288
 10
1661.2017728355195
 20
49.47310397391136
 10
1662.464634722156
 20
52.258693644888055
 10
1668.6712848871084
 20
49.52059840679279
 10
1669.8983584312252
 20
52.22724703257764
 10
1674.8636785631872
 20
52.22724703257764
 10
1676.1050085961774
 20
54.96534227067285
 10
1687.4059011851677
 20
54.96534227067285
 10
1689.312723552085
 20
50.75932041992348
 10
1667.5446080948786
 20
0.0
 10
1640.7256288946162
 20
1.3757359142961834
  0
LWPOLYLINE
  5
3D
330
17
100
AcDbEntity
  8
Y
100
AcDbPolyline
 90
148
 70
1
 10
2522.127927687941
 20
607.860580365911
 10
2504.971108065935
 20
607.860580365911
 10
2503.541373097434
 20
610.5986756040062
 10
2494.9558117085676
 20
610.5986756040062
 10
2485.6302816096622
 20
633.9532580978837
 10
2485.6302816096622
 20
639.4241392051384
 10
2482.7739510832635
 20
644.8943173745653
 10
2481.344216114763
 20
655.8466983269462
 10
2477.798283147189
 20
662.6375388582521
 10
2467.9099366051955
 20
665.3428588926623
 10
2466.4894551533894
 20
662.6224851278157
 10
2452.1921054683844
 20
662.6224851278157
 10
2450.7623704998837
 20
659.8843898897204
 10
2443.492504420412
 20
659.8843898897204
 10
2442.0627694519117
 20
662.6224851278157
 10
2436.4650208148782
 20
662.6224851278157
 10
2435.0352858463775
 20
659.8843898897204
 10
2420.737936161373
 20
659.8843898897204
 10
2419.3082011928723
 20
657.1462946516252
 10
2414.897805050401
 20
657.1462946516252
 10
2412.7009861901056
 20
661.353437508768
 10
2414.1435331846355
 20
664.1160691457311
 10
2414.1435331846355
 20
691.4970215266835
 10
2417.003003121637
 20
696.973212002874
 10
2417.003003121637
 20
724.3541643838264
 10
2419.862473058638
 20
729.8303548600168
 10
2419.862473058638
 20
738.0446405743025
 10
2422.055733409599
 20
742.2449685058263
 10
2432.1836764266122
 20
739.474098064046
 10
2433.6055508778777
 20
736.7510565563871
 10
2440.733787095809
 20
736.7510565563871
 10
2449.3121969068116
 20
728.5367708421013
 10
2456.4813103738857
 20
728.5367708421013
 10
2457.9110453423864
 20
725.7986756040061
 10
2463.6299852163884
 20
725.7986756040061
 10
2465.0597201848886
 20
723.0605803659109
 10
2472.1879564028204
 20
723.0605803659109
 10
2477.842664706622
 20
717.645895049899
 10
2498.4978963261665
 20
754.4748034164927
 10
2498.4978963261665
 20
765.3765201575193
 10
2495.638426389166
 20
770.8527106337098
 10
2495.638426389166
 20
781.8050915860908
 10
2494.208691420665
 20
784.543186824186
 10
2494.208691420665
 20
798.2336630146622
 10
2487.0600165781625
 20
811.9241392051383
 10
2487.0600165781625
 20
814.7113072409692
 10
2494.211830831268
 20
828.4077957382088
 10
2495.641565799768
 20
839.3601766905899
 10
2501.357366263168
 20
850.3065453362073
 10
2501.357366263168
 20
855.7336630146623
 10
2493.509433088457
 20
870.7632936301194
 10
2484.9667161216644
 20
881.6701041754347
 10
2482.0953485699265
 20
881.6701041754347
 10
2480.665613601426
 20
884.4081994135299
 10
2470.6779074464935
 20
884.4081994135299
 10
2462.09949763549
 20
892.6224851278156
 10
2452.070914231415
 20
892.6224851278156
 10
2450.6411792629146
 20
895.3605803659109
 10
2444.934137003649
 20
895.3605803659109
 10
2440.6338901709078
 20
900.85086848913
 10
2432.0456199931164
 20
903.5921110032291
 10
2429.8706178381417
 20
907.7574725384717
 10
2429.8706178381417
 20
926.9241392051383
 10
2428.440882869641
 20
929.6622344432336
 10
2428.440882869641
 20
935.138424919424
 10
2424.887340599811
 20
941.9438380776376
 10
2414.8791958203074
 20
950.1581237919233
 10
2409.8543282791343
 20
959.7812820622812
 10
2409.8543282791343
 20
965.3065453362071
 10
2412.0178964888296
 20
969.4500096444724
 10
2414.918243674973
 20
972.2272470325776
 10
2480.816309770279
 20
972.2272470325776
 10
2481.5385534875004
 20
965.311377565728
 10
2483.646274775396
 20
961.2748660801965
 10
2487.9235820661606
 20
961.2748660801965
 10
2496.5116097377118
 20
950.310205640709
 10
2506.515006867035
 20
947.5734092965283
 10
2513.0139381933227
 20
940.6588826693088
 10
2503.6888064247055
 20
920.0527783217319
 10
2498.687431861266
 20
913.2112306733953
 10
2495.847082676144
 20
905.0518723835864
 10
2497.9436244604008
 20
901.0367708421013
 10
2503.6358690471047
 20
901.0367708421013
 10
2510.784543889607
 20
895.5605803659109
 10
2519.389648987909
 20
895.5605803659109
 10
2520.819383956409
 20
892.8224851278156
 10
2533.686998672914
 20
892.8224851278156
 10
2536.5464686099153
 20
887.3462946516252
 10
2540.848540987082
 20
887.3462946516252
 10
2543.0274804436167
 20
880.3914581708768
 10
2540.1602104126823
 20
874.9003296813288
 10
2540.1602104126823
 20
863.9970215266835
 10
2542.2654084839173
 20
859.9653422706729
 10
2546.5546133894186
 20
859.9653422706729
 10
2547.9843483579193
 20
857.2272470325776
 10
2555.011831963453
 20
857.2272470325776
 10
2556.4415669319537
 20
859.9653422706729
 10
2586.466001270465
 20
859.9653422706729
 10
2587.908918160847
 20
862.728682297717
 10
2595.1761272448566
 20
859.9451859119446
 10
2600.207491983793
 20
850.3095848136159
 10
2601.6372269522935
 20
828.4048229088539
 10
2603.74401212944
 20
824.3701041754347
 10
2609.453124493768
 20
824.3701041754347
 10
2614.5064287747095
 20
817.4575201285746
 10
2614.5064287747095
 20
710.66368819335
 10
2616.55103122746
 20
706.7480560216434
 10
2618.595633680211
 20
710.66368819335
 10
2618.595633680211
 20
817.4494024790642
 10
2620.7796405144773
 20
821.6320089373394
 10
2629.4792415624497
 20
821.6320089373394
 10
2630.90897653095
 20
818.8939136992442
 10
2636.627916404952
 20
818.8939136992442
 10
2638.0576513734522
 20
816.1558184611489
 10
2656.617510676661
 20
816.1558184611489
 10
2663.7661855191636
 20
810.6796279849585
 10
2685.218466709399
 20
810.6796279849585
 10
2690.9374065834013
 20
805.2034375087679
 10
2695.146297501076
 20
805.2034375087679
 10
2700.9324057833433
 20
810.743945324491
 10
2703.149996821742
 20
806.4970215266835
 10
2703.149996821742
 20
691.447948728948
 10
2700.9053943689914
 20
687.1492951863689
 10
2697.9834705574203
 20
692.7450915058296
 10
2652.231951565404
 20
695.4831867439248
 10
2650.8040748529884
 20
698.2177232230538
 10
2623.6595490760496
 20
698.2177232230538
 10
2620.867247547314
 20
700.8915011216166
 10
2617.37871073774
 20
694.2105803659109
 10
2620.2253686487115
 20
688.7589262885881
 10
2620.2253686487115
 20
683.2751073009758
 10
2623.0916689531796
 20
675.0412002613597
 10
2618.048085804058
 20
662.6224851278157
 10
2610.8926869719426
 20
662.6224851278157
 10
2609.462952003442
 20
659.8843898897204
 10
2589.3254712074654
 20
659.8843898897204
 10
2587.9563318574496
 20
662.5064380435118
 10
2586.587192507434
 20
659.8843898897204
 10
2565.136370193694
 20
659.8843898897204
 10
2555.878140188016
 20
644.881659337845
 10
2553.027825129187
 20
636.693672478465
 10
2553.027825129187
 20
631.2098534908528
 10
2548.730653554458
 20
622.9803107537234
 10
2545.8791502866843
 20
614.7889105737031
 10
2545.8791502866843
 20
609.305091586091
 10
2542.2605569211432
 20
602.375098628597
 10
2523.5532235432643
 20
605.1309865038891
 10
2522.127927687941
 20
607.860580365911
  0
LWPOLYLINE
  5
3E
330
17
100
AcDbEntity
  8
Y
100
AcDbPolyline
 90
41
 70
1
 10
2615.0607006404753
 20
342.2653422706728
 10
2612.876693806209
 20
346.447948728948
 10
2612.876693806209
 20
362.92559295525484
 10
2614.3064287747097
 20
365.66368819335
 10
2614.3064287747097
 20
371.13987866954056
 10
2617.1658987117103
 20
376.616069145731
 10
2617.1658987117103
 20
384.8303548600167
 10
2620.0253686487117
 20
390.30654533620725
 10
2620.0253686487117
 20
398.520831050493
 10
2622.8848385857123
 20
403.9970215266834
 10
2622.8848385857123
 20
409.42061449779044
 10
2612.8750537791707
 20
425.8518780638093
 10
2614.3078410930607
 20
450.5473453148572
 10
2617.899731952905
 20
457.4262001206627
 10
2626.4781417639083
 20
465.64048583494844
 10
2632.8929833652164
 20
477.92559295525484
 10
2632.8929833652164
 20
486.09487578690226
 10
2620.015624429748
 20
516.2367315643714
 10
2635.7541300337616
 20
549.1177351567139
 10
2637.1836705434903
 20
568.281794958098
 10
2642.9011281447197
 20
581.9687227601406
 10
2642.9011281447197
 20
587.4494024790642
 10
2645.0931792343686
 20
591.6474145459599
 10
2656.6275550635837
 20
588.8862192695465
 10
2663.766185519163
 20
583.4177232230537
 10
2668.082085711964
 20
583.4177232230537
 10
2670.9520805753846
 20
577.9213763881351
 10
2699.546779945395
 20
566.9689954357541
 10
2703.149996821742
 20
560.068450098112
 10
2703.149996821742
 20
362.87652015751945
 10
2699.536255018975
 20
355.9558184611491
 10
2696.656346457403
 20
355.9558184611491
 10
2690.9782838325436
 20
350.5187701349687
 10
2688.098375270971
 20
345.0034375087682
 10
2680.9413320437134
 20
345.0034375087682
 10
2675.222392169711
 20
336.78915179448245
 10
2666.652350743463
 20
336.78915179448245
 10
2665.2239446087037
 20
334.05360141499295
 10
2632.963182062074
 20
332.68065013766034
 10
2619.37877403115
 20
342.2653422706728
 10
2615.0607006404753
 20
342.2653422706728
  0
LWPOLYLINE
  5
3F
330
17
100
AcDbEntity
  8
Y
100
AcDbPolyline
 90
15
 70
1
 10
2672.925562483231
 20
669.6073416124133
 10
2679.4161222356934
 20
676.5129613182919
 10
2692.3875801764725
 20
676.5129613182919
 10
2693.817315144973
 20
673.7748660801966
 10
2699.4150637820067
 20
673.7748660801966
 10
2700.9053943689914
 20
676.6290084025958
 10
2703.149996821742
 20
672.3303548600167
 10
2703.149996821742
 20
642.1622344432337
 10
2698.106520050475
 20
632.503437508768
 10
2690.9578452079722
 20
632.503437508768
 10
2688.108900197391
 20
627.0474033913059
 10
2680.9602253548883
 20
624.3093081532107
 10
2678.043828938428
 20
618.724097386013
 10
2672.925562483231
 20
625.7255453651518
 10
2672.925562483231
 20
669.6073416124133
  0
LWPOLYLINE
  5
40
330
17
100
AcDbEntity
  8
Y
100
AcDbPolyline
 90
68
 70
1
 10
2349.805459602112
 20
403.9970215266834
 10
2355.5243994761145
 20
414.9494024790643
 10
2355.5243994761145
 20
491.616069145731
 10
2358.383869413115
 20
497.09225962192147
 10
2358.383869413115
 20
532.6818442737725
 10
2366.9727275259297
 20
554.6132856644222
 10
2374.871011931816
 20
566.9891517944824
 10
2390.5923105858924
 20
566.9891517944824
 10
2392.015075134603
 20
569.7138979338599
 10
2403.458533879554
 20
572.4533287188669
 10
2417.763724871024
 20
594.3701041754347
 10
2439.3244907518797
 20
594.3701041754347
 10
2440.75422572038
 20
591.6320089373395
 10
2443.492504420412
 20
591.6320089373395
 10
2444.9222393889127
 20
594.3701041754347
 10
2470.778660058891
 20
594.3701041754347
 10
2472.2083950273914
 20
591.6320089373395
 10
2476.504323922506
 20
591.6320089373395
 10
2481.5410767041603
 20
579.2301120826501
 10
2481.5410767041603
 20
573.7670439380986
 10
2486.495917202723
 20
566.9891517944824
 10
2493.6544195548995
 20
566.9891517944824
 10
2495.0841545234002
 20
564.2510565563871
 10
2500.803094397402
 20
564.2510565563871
 10
2502.2328293659025
 20
561.5129613182919
 10
2509.3610655838343
 20
561.5129613182919
 10
2515.0800054578363
 20
556.0367708421013
 10
2522.228680300339
 20
556.0367708421013
 10
2530.807090111342
 20
547.8224851278158
 10
2537.9557649538447
 20
547.8224851278158
 10
2543.6747048278467
 20
542.3462946516252
 10
2550.8438182949208
 20
542.3462946516252
 10
2552.273553263421
 20
539.60819941353
 10
2562.2816980429247
 20
539.60819941353
 10
2564.4744763559484
 20
535.4087946361644
 10
2546.5647777937334
 20
484.6462946516252
 10
2543.6867750676624
 20
484.6462946516252
 10
2537.9678351936604
 20
476.4320089373395
 10
2533.6751010581775
 20
476.4320089373395
 10
2529.39281533402
 20
470.96465244222827
 10
2515.100373688129
 20
468.22749714606783
 10
2507.9453193562836
 20
457.2653422706728
 10
2505.08705347224
 20
457.2653422706728
 10
2487.953023041096
 20
429.9207596694077
 10
2482.189770081755
 20
424.4021370464822
 10
2463.504354866242
 20
427.1547960276986
 10
2462.079059010919
 20
429.88438988972047
 10
2452.070914231415
 20
429.88438988972047
 10
2450.6411792629146
 20
432.62248512781576
 10
2442.0627694519117
 20
432.62248512781576
 10
2439.236883719043
 20
438.03435826447367
 10
2433.6242509054064
 20
432.65996247826934
 10
2420.072056919463
 20
409.4380523151163
 10
2422.921942995639
 20
401.2512977771665
 10
2422.921942995639
 20
379.3541643838264
 10
2425.78141293264
 20
373.87797390763586
 10
2425.78141293264
 20
368.35271063370976
 10
2419.325998051071
 20
355.98990134627263
 10
2412.1773232085684
 20
350.5137108700821
 10
2409.300056413368
 20
345.0034375087682
 10
2399.1911590214672
 20
345.0034375087682
 10
2396.398857492731
 20
347.6772154073309
 10
2395.002706728363
 20
345.0034375087682
 10
2367.837742326853
 20
345.0034375087682
 10
2366.40382276439
 20
342.25732832609225
 10
2355.567697183964
 20
343.6408175510117
 10
2349.805459602112
 20
351.9172930681088
 10
2349.805459602112
 20
403.9970215266834
  0
LWPOLYLINE
  5
41
330
17
100
AcDbEntity
  8
Y
100
AcDbPolyline
 90
21
 70
1
 10
2494.962963286431
 20
213.57486608019667
 10
2491.349221483664
 20
220.49556777656696
 10
2491.349221483664
 20
234.1860439670431
 10
2488.4897515466632
 20
239.66223444323361
 10
2488.4897515466632
 20
250.6787701838419
 10
2494.980311299126
 20
257.58438988972046
 10
2500.708598447732
 20
257.58438988972046
 10
2507.8572732902344
 20
263.06058036591094
 10
2516.435683101238
 20
263.06058036591094
 10
2523.5743135568173
 20
268.5290764124035
 10
2534.9885719846557
 20
271.261516981479
 10
2536.4858729914304
 20
274.1290084025958
 10
2538.7283666073276
 20
269.83439350793105
 10
2540.1587524460915
 20
253.39834316273968
 10
2545.8791502866843
 20
236.96558349145212
 10
2545.8791502866843
 20
231.49253228395025
 10
2551.6055953041864
 20
217.78408965377415
 10
2547.991697856885
 20
208.09468997257449
 10
2499.250417236927
 20
210.84012410803396
 10
2497.822433223432
 20
213.57486608019667
 10
2494.962963286431
 20
213.57486608019667
  0
LWPOLYLINE
  5
42
330
17
100
AcDbEntity
  8
Y
100
AcDbPolyline
 90
127
 70
1
 10
3164.7822925051787
 20
310.80354712857826
 10
3164.1373997647393
 20
313.60397682826624
 10
3164.1373997647393
 20
549.1028981892699
 10
3165.103618054584
 20
553.2986756040061
 10
3166.5238721885294
 20
553.2986756040061
 10
3167.1544103312563
 20
550.5605803659109
 10
3170.937639187617
 20
550.5605803659109
 10
3171.5681773303436
 20
547.8224851278158
 10
3174.720868043977
 20
547.8224851278158
 10
3175.3514061867045
 20
545.0843898897205
 10
3181.0262494712456
 20
545.0843898897205
 10
3181.656787613972
 20
542.3462946516252
 10
3186.7010927557862
 20
542.3462946516252
 10
3187.331630898513
 20
539.60819941353
 10
3193.0064741830543
 20
539.60819941353
 10
3193.637012325781
 20
536.8701041754347
 10
3196.789703039415
 20
536.8701041754347
 10
3197.420241182142
 20
534.1320089373395
 10
3203.0950844666827
 20
534.1320089373395
 10
3203.7256226094096
 20
531.3939136992443
 10
3208.139389608497
 20
531.3939136992443
 10
3208.7699277512243
 20
528.655818461149
 10
3212.5531566075847
 20
528.655818461149
 10
3213.1836947503116
 20
525.9177232230537
 10
3216.966923606672
 20
525.9177232230537
 10
3217.5974617493994
 20
523.1796279849585
 10
3221.3806906057603
 20
523.1796279849585
 10
3222.016340867689
 20
520.4193335041904
 10
3239.0408707213123
 20
514.9431430279998
 10
3239.666296744837
 20
512.2272470325776
 10
3240.7681951817985
 20
512.2272470325776
 10
3241.398733324525
 20
514.9653422706729
 10
3250.856805465427
 20
514.9653422706729
 10
3251.4873436081534
 20
517.7034375087682
 10
3252.9075977420994
 20
517.7034375087682
 10
3253.538135884826
 20
514.9653422706729
 10
3258.4232631781483
 20
514.9653422706729
 10
3259.053801320875
 20
517.7034375087682
 10
3260.4740554548207
 20
517.7034375087682
 10
3261.1045935975476
 20
514.9653422706729
 10
3280.020737879351
 20
514.9653422706729
 10
3280.651276022078
 20
512.2272470325776
 10
3284.4345048784385
 20
512.2272470325776
 10
3285.065043021166
 20
509.4891517944824
 10
3288.8265001442805
 20
509.4891517944824
 10
3291.979190857915
 20
504.0129613182919
 10
3295.1318815715485
 20
504.0129613182919
 10
3298.3208585072584
 20
498.4737420575494
 10
3299.272562308272
 20
494.3409934273653
 10
3299.272562308272
 20
469.6754053996948
 10
3298.3063440184283
 20
465.47962798495854
 10
3293.8925770193405
 20
465.47962798495854
 10
3293.262038876614
 20
462.74153274686336
 10
3288.2021845216095
 20
462.74153274686336
 10
3286.845355812621
 20
459.79553632313707
 10
3286.166941458127
 20
462.74153274686336
 10
3274.1867167463183
 20
462.74153274686336
 10
3273.556178603591
 20
465.47962798495854
 10
3271.193203881176
 20
465.47962798495854
 10
3270.562665738449
 20
462.74153274686336
 10
3265.98972089087
 20
462.74153274686336
 10
3265.3591827481428
 20
465.47962798495854
 10
3253.378958036334
 20
465.47962798495854
 10
3252.7484198936068
 20
468.2177232230538
 10
3245.3411400293776
 20
468.2177232230538
 10
3244.710601886651
 20
465.47962798495854
 10
3243.44334899998
 20
465.47962798495854
 10
3238.744447525878
 20
450.5160672140849
 10
3239.676853288204
 20
446.4671198074207
 10
3242.829544001838
 20
443.7290245693255
 10
3243.4495256011974
 20
441.0367708421015
 10
3247.2327544575583
 20
441.0367708421015
 10
3247.863292600285
 20
438.2986756040061
 10
3250.385445171192
 20
438.2986756040061
 10
3251.0220397919607
 20
435.53428026991025
 10
3257.9579593619555
 20
432.79618503181507
 10
3258.9181211737578
 20
428.62670771307955
 10
3258.9181211737578
 20
420.3865635692041
 10
3256.0553827194453
 20
410.7177232230538
 10
3253.518336017178
 20
410.7177232230538
 10
3249.104569018091
 20
402.5034375087682
 10
3247.863292600285
 20
402.5034375087682
 10
3246.554340103064
 20
396.81934584694653
 10
3245.2932638176103
 20
399.5574410850418
 10
3244.0945782327544
 20
394.35218057903455
 10
3240.9056012970445
 20
388.8129613182919
 10
3235.723890039984
 20
388.8129613182919
 10
3235.093351897257
 20
391.5510565563871
 10
3221.2215127572676
 20
391.5510565563871
 10
3220.590974614541
 20
394.28915179448245
 10
3208.139389608497
 20
394.28915179448245
 10
3207.2166107439675
 20
390.2820089373395
 10
3208.151304014445
 20
386.2231280869176
 10
3213.193037775979
 20
380.74972914847206
 10
3215.7001615990494
 20
372.5843898897204
 10
3218.219666297902
 20
372.5843898897204
 10
3220.127726500255
 20
367.0605891867562
 10
3225.1758338680684
 20
361.58027094406043
 10
3225.7842123397595
 20
358.93840349240514
 10
3231.4590556243006
 20
361.6764987305003
 10
3232.099839032115
 20
358.8939136992443
 10
3236.9849663254377
 20
358.8939136992443
 10
3237.6155044681645
 20
361.6320089373395
 10
3239.03575860211
 20
361.6320089373395
 10
3240.0034355934417
 20
357.42989714990335
 10
3238.413653057803
 20
345.0034375087682
 10
3221.8520508999945
 20
345.0034375087682
 10
3221.2215127572676
 20
347.74153274686336
 10
3215.7058473212187
 20
347.74153274686336
 10
3215.075309178492
 20
345.0034375087682
 10
3211.763440616366
 20
345.0034375087682
 10
3211.132902473639
 20
347.74153274686336
 10
3198.0507793248685
 20
347.74153274686336
 10
3195.233768758352
 20
335.5087387330281
 10
3195.233768758352
 20
330.0325482568376
 10
3194.267550468508
 20
325.8367708421014
 10
3191.745397897601
 20
325.8367708421014
 10
3191.114859754874
 20
323.0986756040062
 10
3185.440016470333
 20
323.0986756040062
 10
3184.809478327606
 20
320.36058036591095
 10
3181.656787613972
 20
320.36058036591095
 10
3181.0318905401655
 20
317.64698132067224
 10
3173.4654328274437
 20
314.90888608257706
 10
3172.829253615797
 20
312.1462946516252
 10
3169.0460247594365
 20
312.1462946516252
 10
3168.4072688610368
 20
309.3725140264758
 10
3164.7822925051787
 20
310.80354712857826
  0
LWPOLYLINE
  5
43
330
17
100
AcDbEntity
  8
Y
100
AcDbPolyline
 90
74
 70
1
 10
3209.8824646413746
 20
175.25219516969113
 10
3207.3579784622348
 20
180.73345246195169
 10
3197.2693681786063
 20
183.4715477000469
 10
3194.7544599759326
 20
188.9320089373395
 10
3189.716377354174
 20
188.9320089373395
 10
3186.56368664054
 20
194.40819941353
 10
3183.3892241936605
 20
194.40819941353
 10
3182.7586860509336
 20
197.14629465162523
 10
3177.7361526423647
 20
197.14629465162523
 10
3174.583461928731
 20
202.62248512781565
 10
3165.103618054584
 20
202.62248512781565
 10
3164.1373997647393
 20
206.81826254255185
 10
3164.1373997647393
 20
258.86480295117474
 10
3165.103618054584
 20
263.06058036591094
 10
3168.4154866167096
 20
263.06058036591094
 10
3169.0460247594365
 20
260.32248512781564
 10
3181.0262494712456
 20
260.32248512781564
 10
3181.656787613972
 20
257.58438988972046
 10
3182.7586860509336
 20
257.58438988972046
 10
3183.437100405428
 20
260.53038631344674
 10
3184.72988940336
 20
257.72343526700246
 10
3187.2121098587986
 20
263.11292366460157
 10
3190.9953387151595
 20
260.37482842650627
 10
3193.557423401535
 20
265.9377209812882
 10
3194.8184996869886
 20
263.199625743193
 10
3197.2766125468393
 20
268.53677084210136
 10
3202.935906618191
 20
268.53677084210136
 10
3203.614320972685
 20
271.48276726582776
 10
3204.9169910585374
 20
268.65436203767143
 10
3208.001983493251
 20
274.0129613182919
 10
3209.400465893951
 20
274.0129613182919
 10
3210.0310040366776
 20
271.27486608019666
 10
3219.4890761775796
 20
271.27486608019666
 10
3220.119614320306
 20
268.53677084210136
 10
3221.2413126249157
 20
268.53677084210136
 10
3225.72175665274
 20
276.8751465150866
 10
3227.0399846771115
 20
274.0129613182919
 10
3245.3411400293776
 20
274.0129613182919
 10
3245.9716781721045
 20
271.27486608019666
 10
3264.2572843111816
 20
271.27486608019666
 10
3264.8878224539085
 20
268.53677084210136
 10
3283.173428592985
 20
268.53677084210136
 10
3284.7728022993624
 20
261.5915327468633
 10
3283.8039667357116
 20
257.38438988972047
 10
3281.753174459039
 20
257.38438988972047
 10
3281.1226363163128
 20
260.12248512781565
 10
3276.868047165717
 20
260.12248512781565
 10
3276.2375090229907
 20
257.38438988972047
 10
3270.4034878899574
 20
257.38438988972047
 10
3269.7729497472305
 20
260.12248512781565
 10
3268.671051310269
 20
260.12248512781565
 10
3268.0405131675425
 20
257.38438988972047
 10
3245.3411400293776
 20
257.38438988972047
 10
3244.710601886651
 20
254.64629465162525
 10
3241.398733324525
 20
254.64629465162525
 10
3240.7681951817985
 20
257.38438988972047
 10
3237.7746823166563
 20
257.38438988972047
 10
3237.1441441739294
 20
254.64629465162525
 10
3232.730377174842
 20
254.64629465162525
 10
3231.807598310312
 20
250.63915179448236
 10
3233.696595464686
 20
242.43623152260338
 10
3233.696595464686
 20
234.22194580831766
 10
3234.6219916030227
 20
230.20343750876802
 10
3239.02020938892
 20
230.20343750876802
 10
3241.5541265268057
 20
224.7017033718228
 10
3247.230949038712
 20
221.96265316232964
 10
3250.0952163440493
 20
215.05265029869068
 10
3249.460049032856
 20
212.29445301874236
 10
3249.460049032856
 20
206.82105581037067
 10
3247.566197009758
 20
195.85571926218455
 10
3243.1528688215953
 20
179.42878114063174
 10
3242.205890552777
 20
172.57506758832815
 10
3240.9063269588287
 20
169.75340728971054
 10
3209.8824646413746
 20
175.25219516969113
  0
LWPOLYLINE
  5
44
330
17
100
AcDbEntity
  8
Y
100
AcDbPolyline
 90
30
 70
1
 10
4937.068038972399
 20
564.0568615347457
 10
4932.043278031419
 20
569.542535348652
 10
4925.005316442584
 20
572.28665748164
 10
4920.464323161021
 20
581.926301015859
 10
4920.464323161021
 20
587.4426089394411
 10
4922.470752922876
 20
592.9187994156316
 10
4922.470752922876
 20
598.3949898918221
 10
4925.00892844417
 20
605.3224851278158
 10
4927.015358206027
 20
605.3224851278158
 10
4928.018573086954
 20
608.0605803659109
 10
4933.034647491594
 20
608.0605803659109
 10
4934.037862372522
 20
610.7986756040061
 10
4938.050721896234
 20
610.7986756040061
 10
4939.123798458187
 20
613.7274457810178
 10
4940.156689016564
 20
610.9083560993043
 10
4944.0891765331235
 20
616.2748660801967
 10
4950.10846581869
 20
616.2748660801967
 10
4952.195267587699
 20
619.1226418135901
 10
4957.7832737553545
 20
603.8711803680126
 10
4957.7832737553545
 20
601.1330851299174
 10
4962.7961757003
 20
587.4512675996606
 10
4964.802605462156
 20
576.4988866472796
 10
4967.821923397832
 20
568.25819941353
 10
4966.280461924267
 20
564.0510565563872
 10
4963.270817281484
 20
564.0510565563872
 10
4962.227416396979
 20
561.2032808229936
 10
4960.14061462797
 20
564.0510565563872
 10
4958.254742876844
 20
564.0510565563872
 10
4957.247877828874
 20
561.3029988414745
 10
4937.068038972399
 20
564.0568615347457
  0
LWPOLYLINE
  5
45
330
17
100
AcDbEntity
  8
Y
100
AcDbPolyline
 90
222
 70
1
 10
5539.771853166557
 20
271.0748660801967
 10
5532.052587646876
 20
271.0748660801967
 10
5531.194891478022
 20
273.8129613182919
 10
5515.7563604386605
 20
273.8129613182919
 10
5514.8966916522595
 20
276.5573539084233
 10
5484.019629573537
 20
279.2954491465185
 10
5482.306209853377
 20
284.7653422706729
 10
5466.8676788140165
 20
284.7653422706729
 10
5466.006957193332
 20
287.51309591176823
 10
5456.119749860066
 20
288.8854332671151
 10
5456.549881506576
 20
482.4989123433896
 10
5456.597599925224
 20
482.50615703941514
 10
5457.579954552388
 20
479.3701041754348
 10
5467.87230857863
 20
479.3701041754348
 10
5468.72269772132
 20
476.655335768292
 10
5478.157355578708
 20
479.3934310063873
 10
5479.022358773724
 20
476.6320089373395
 10
5489.314712799965
 20
476.6320089373395
 10
5490.172408968818
 20
473.89391369924425
 10
5491.740867710765
 20
473.89391369924425
 10
5492.598563879618
 20
476.6320089373395
 10
5499.607066826206
 20
476.6320089373395
 10
5500.46476299506
 20
473.89391369924425
 10
5508.894791087833
 20
473.89391369924425
 10
5509.825954054567
 20
476.8665431427351
 10
5510.7571170213005
 20
473.89391369924425
 10
5521.049471047541
 20
473.89391369924425
 10
5521.899072532342
 20
471.18165979828285
 10
5530.4760342208765
 20
473.9197550363781
 10
5531.268358275902
 20
471.39035266654474
 10
5532.450111175571
 20
475.16296131829193
 10
5531.597206360329
 20
477.8857607173883
 10
5531.597206360329
 20
486.0908095434946
 10
5527.308725516062
 20
494.30509525778035
 10
5527.308725516062
 20
502.51938097206596
 10
5523.020244671795
 20
510.7336666863517
 10
5523.020244671795
 20
516.2190940507217
 10
5521.7602336206355
 20
520.2415327468633
 10
5520.044841282928
 20
520.2415327468633
 10
5519.187145114075
 20
522.9796279849586
 10
5509.752487256687
 20
522.9796279849586
 10
5508.894791087833
 20
525.7177232230538
 10
5505.46400641242
 20
525.7177232230538
 10
5504.601524866399
 20
528.4710952210422
 10
5492.61518713068
 20
531.204308705207
 10
5488.3348467600035
 20
536.6701041754347
 10
5478.875425177964
 20
536.6701041754347
 10
5478.017729009111
 20
539.40819941353
 10
5473.729248164843
 20
539.40819941353
 10
5472.87155199599
 20
542.1462946516252
 10
5468.583071151723
 20
542.1462946516252
 10
5467.72537498287
 20
544.8843898897204
 10
5460.024221511717
 20
544.8843898897204
 10
5456.548791585655
 20
550.4318427503339
 10
5456.548791585655
 20
597.1497749464543
 10
5464.303658003128
 20
594.3990517389664
 10
5465.152286476309
 20
597.10819941353
 10
5469.587700916336
 20
597.10819941353
 10
5470.445397085189
 20
594.3701041754347
 10
5472.87155199599
 20
594.3701041754347
 10
5473.729248164843
 20
597.10819941353
 10
5479.022358773724
 20
597.10819941353
 10
5479.880054942577
 20
594.3701041754347
 10
5482.306209853377
 20
594.3701041754347
 10
5483.163906022231
 20
597.10819941353
 10
5513.33020552786
 20
597.10819941353
 10
5514.114434898834
 20
594.6046383808304
 10
5514.898664269807
 20
597.10819941353
 10
5521.907167216395
 20
597.10819941353
 10
5522.691396587368
 20
594.6046383808304
 10
5523.475625958342
 20
597.10819941353
 10
5530.484128904929
 20
597.10819941353
 10
5532.206553322516
 20
591.6095598404052
 10
5539.925818842197
 20
588.87146460231
 10
5541.2342740713675
 20
584.6943735036715
 10
5540.374168048864
 20
579.2027966726232
 10
5540.374168048864
 20
540.8527143053992
 10
5536.085687204596
 20
532.6384285911137
 10
5536.085687204596
 20
527.2077343956705
 10
5539.043026073011
 20
520.4641913297115
 10
5547.629957597945
 20
523.2054693220923
 10
5548.49574845085
 20
520.4415327468633
 10
5557.072710139384
 20
520.4415327468633
 10
5557.930406308238
 20
517.7034375087682
 10
5567.365064165626
 20
517.7034375087682
 10
5568.222760334479
 20
514.9653422706729
 10
5569.791219076426
 20
514.9653422706729
 10
5570.64891524528
 20
517.7034375087682
 10
5575.94202585416
 20
517.7034375087682
 10
5576.802876745722
 20
514.955271185435
 10
5595.672192460497
 20
512.2171759473397
 10
5596.51863922259
 20
509.51499313161617
 10
5605.095600911124
 20
512.2530883697113
 10
5605.96139176403
 20
509.4891517944824
 10
5614.538353452564
 20
509.4891517944824
 10
5615.396049621418
 20
506.7510565563871
 10
5628.114558558459
 20
506.7510565563871
 10
5628.972254727312
 20
509.4891517944824
 10
5635.8338240781395
 20
509.4891517944824
 10
5636.691520246993
 20
512.2272470325776
 10
5643.553089597821
 20
512.2272470325776
 10
5644.410785766674
 20
514.9653422706729
 10
5647.841570442088
 20
514.9653422706729
 10
5648.699266610941
 20
517.7034375087682
 10
5652.148163334884
 20
517.7034375087682
 10
5653.931473763828
 20
520.5499430493412
 10
5656.555500838817
 20
514.9653422706729
 10
5659.971486677143
 20
514.9653422706729
 10
5664.25996752141
 20
509.4891517944824
 10
5666.847854865058
 20
509.4891517944824
 10
5669.420943371619
 20
504.0129613182919
 10
5672.003996765743
 20
504.0129613182919
 10
5672.861692934597
 20
501.27486608019666
 10
5678.847454068042
 20
501.27486608019666
 10
5684.005677440443
 20
493.04135206562063
 10
5690.867246791271
 20
490.3032568275254
 10
5696.014828796505
 20
482.0867284763036
 10
5702.031986080116
 20
479.34257495977204
 10
5702.881058844467
 20
476.6320089373395
 10
5706.31184351988
 20
476.6320089373395
 10
5707.1695396887335
 20
473.89391369924425
 10
5708.884932026441
 20
473.89391369924425
 10
5710.610899354703
 20
468.3839637959548
 10
5724.327530380134
 20
460.1735733940321
 10
5726.886586684798
 20
454.7272470325776
 10
5731.185032416629
 20
454.7272470325776
 10
5732.498109872029
 20
450.5354000144336
 10
5732.498109872029
 20
423.1238559554835
 10
5731.185032416629
 20
418.9320089373395
 10
5727.607314145456
 20
418.9320089373395
 10
5726.757712660655
 20
421.644262838301
 10
5718.18075097212
 20
418.9061676002057
 10
5717.314960119215
 20
421.6701041754348
 10
5710.582212315618
 20
421.6701041754348
 10
5708.780938946425
 20
418.79492633635726
 10
5707.880302261828
 20
421.6701041754348
 10
5678.71863252081
 20
421.6701041754348
 10
5677.860936351957
 20
424.40819941353004
 10
5676.29247761001
 20
424.40819941353004
 10
5675.434781441158
 20
421.6701041754348
 10
5668.4262784945695
 20
421.6701041754348
 10
5667.568582325716
 20
424.40819941353004
 10
5660.707012974889
 20
424.40819941353004
 10
5659.849316806036
 20
427.1462946516252
 10
5656.443295855274
 20
427.1462946516252
 10
5652.1548150110075
 20
432.62248512781576
 10
5644.410785766674
 20
432.62248512781576
 10
5643.550293437481
 20
435.369506782501
 10
5622.107889216146
 20
438.1076020205962
 10
5621.252989207632
 20
440.8367708421015
 10
5610.960635181391
 20
440.8367708421015
 10
5610.102939012538
 20
443.57486608019667
 10
5600.66828115515
 20
443.57486608019667
 10
5599.884051784176
 20
446.07842711289624
 10
5599.099822413203
 20
443.57486608019667
 10
5590.375927128908
 20
443.57486608019667
 10
5589.518230960056
 20
446.3129613182919
 10
5579.225876933814
 20
446.3129613182919
 10
5578.368180764961
 20
449.0510565563871
 10
5568.07582673872
 20
449.0510565563871
 10
5567.218130569867
 20
451.78915179448245
 10
5556.925776543626
 20
451.78915179448245
 10
5556.068080374772
 20
454.52724703257763
 10
5553.641925463971
 20
454.52724703257763
 10
5551.926533126264
 20
449.0510565563871
 10
5550.211140788558
 20
449.0510565563871
 10
5547.638052281997
 20
440.8367708421015
 10
5545.928422368951
 20
440.8367708421015
 10
5543.318629142785
 20
429.72815582670285
 10
5541.603236805077
 20
432.4662510647982
 10
5539.066853018124
 20
421.6701041754348
 10
5537.345698255756
 20
421.6701041754348
 10
5534.772609749196
 20
413.4558184611491
 10
5533.05721741149
 20
413.4558184611491
 10
5531.80199771394
 20
409.4486756040062
 10
5533.0649675724
 20
405.4167912597796
 10
5539.919041776016
 20
402.68168694487395
 10
5545.054998887872
 20
391.7510565563871
 10
5547.643814706657
 20
391.7510565563871
 10
5550.216903213218
 20
380.7986756040062
 10
5551.932295550925
 20
380.7986756040062
 10
5554.505384057486
 20
369.8462946516252
 10
5556.215013970531
 20
369.8462946516252
 10
5557.528091425931
 20
365.6544476334812
 10
5557.528091425931
 20
357.4401619191955
 10
5558.390578948397
 20
354.68677084210145
 10
5556.9992433415055
 20
350.2450937795629
 10
5556.068080374772
 20
353.2177232230538
 10
5553.641925463971
 20
353.2177232230538
 10
5552.784229295118
 20
350.4796279849586
 10
5549.353444619704
 20
350.4796279849586
 10
5548.49574845085
 20
347.74153274686336
 10
5540.77648293117
 20
347.74153274686336
 10
5539.918786762317
 20
345.0034375087682
 10
5536.488002086902
 20
345.0034375087682
 10
5535.608609985626
 20
342.19608053042816
 10
5532.177825310212
 20
344.93417576852346
 10
5531.341825073782
 20
342.2653422706728
 10
5527.911040398369
 20
342.2653422706728
 10
5525.798124531967
 20
335.52010417543477
 10
5527.911040398369
 20
328.77486608019666
 10
5530.484128904929
 20
328.77486608019666
 10
5532.199521242636
 20
323.2986756040062
 10
5535.630305918049
 20
323.2986756040062
 10
5536.488002086902
 20
320.56058036591094
 10
5539.061090593463
 20
320.56058036591094
 10
5540.77648293117
 20
315.08438988972046
 10
5543.3414436978555
 20
315.08438988972046
 10
5549.345316879829
 20
301.3939136992443
 10
5551.926533126264
 20
301.3939136992443
 10
5553.641925463971
 20
295.91772322305377
 10
5556.215013970531
 20
295.91772322305377
 10
5557.930406308238
 20
290.44153274686334
 10
5560.503494814799
 20
290.44153274686334
 10
5562.218887152506
 20
284.9653422706728
 10
5564.791975659066
 20
284.9653422706728
 10
5566.965640342227
 20
278.02617064520575
 10
5565.663857320814
 20
271.09985255922544
 10
5557.937438388119
 20
268.35921993903565
 10
5557.0686196724755
 20
265.58561726426586
 10
5540.6259313211
 20
268.34832093187833
 10
5539.771853166557
 20
271.0748660801967
  0
LWPOLYLINE
  5
46
330
17
100
AcDbEntity
  8
Y
100
AcDbPolyline
 90
145
 70
1
 10
5643.553089597821
 20
731.0748660801967
 10
5642.695393428968
 20
733.8129613182919
 10
5636.7014851345575
 20
733.8129613182919
 10
5634.128396627998
 20
739.2891517944824
 10
5628.139322283111
 20
739.2891517944824
 10
5623.850841438844
 20
744.7653422706728
 10
5620.395293038779
 20
744.7653422706728
 10
5619.537596869925
 20
747.503437508768
 10
5613.53372368795
 20
747.503437508768
 10
5611.818331350244
 20
752.9796279849586
 10
5604.956761999417
 20
752.9796279849586
 10
5604.099065830563
 20
755.7177232230538
 10
5599.828697034825
 20
755.7177232230538
 10
5596.397912359412
 20
761.1939136992443
 10
5590.394039177437
 20
761.1939136992443
 10
5586.955389760357
 20
766.6826578118439
 10
5575.789978247759
 20
769.4245252975588
 10
5574.079699920693
 20
774.8843898897204
 10
5567.218130569867
 20
774.8843898897204
 10
5566.360434401013
 20
777.6224851278157
 10
5562.929649725599
 20
777.6224851278157
 10
5561.616572270199
 20
781.8143321459597
 10
5561.616572270199
 20
825.6544476334809
 10
5563.003116523479
 20
830.0808288570208
 10
5563.920220308158
 20
827.1530817166491
 10
5569.066397321279
 20
829.8911769547444
 10
5569.938152672186
 20
827.10819941353
 10
5574.079699920693
 20
827.10819941353
 10
5575.010862887427
 20
830.0808288570208
 10
5575.94202585416
 20
827.10819941353
 10
5581.945899036134
 20
827.10819941353
 10
5582.730128407108
 20
824.6046383808302
 10
5583.5234254737525
 20
827.1371469770618
 10
5591.242690993434
 20
824.3990517389665
 10
5592.0913194666155
 20
827.10819941353
 10
5594.811341568936
 20
827.10819941353
 10
5595.595570939909
 20
824.6046383808302
 10
5596.379800310882
 20
827.10819941353
 10
5600.815214750909
 20
827.10819941353
 10
5601.672910919762
 20
824.3701041754347
 10
5603.2413696617095
 20
824.3701041754347
 10
5604.099065830563
 20
827.10819941353
 10
5606.819087932883
 20
827.10819941353
 10
5607.676784101737
 20
824.3701041754347
 10
5611.818331350244
 20
824.3701041754347
 10
5612.749494316978
 20
827.3427336189255
 10
5613.68065728371
 20
824.3701041754347
 10
5616.106812194511
 20
824.3701041754347
 10
5616.964508363365
 20
827.10819941353
 10
5618.826834296831
 20
827.10819941353
 10
5619.611063667805
 20
824.6046383808302
 10
5621.252989207632
 20
829.8462946516253
 10
5622.968381545339
 20
829.8462946516253
 10
5624.228392596498
 20
833.8687333477667
 10
5624.228392596498
 20
855.7734952525287
 10
5625.541470051899
 20
859.9653422706729
 10
5627.251099964945
 20
859.9653422706729
 10
5629.824188471505
 20
870.9177232230537
 10
5631.692276829633
 20
870.9177232230537
 10
5632.549972998486
 20
868.1796279849586
 10
5635.8338240781395
 20
868.1796279849586
 10
5636.764987044873
 20
871.1522574284493
 10
5637.696150011607
 20
868.1796279849586
 10
5640.122304922407
 20
868.1796279849586
 10
5640.98000109126
 20
870.9177232230537
 10
5642.842327024728
 20
870.9177232230537
 10
5643.6265563957
 20
868.4141621903542
 10
5644.410785766674
 20
870.9177232230537
 10
5652.130051286355
 20
870.9177232230537
 10
5653.061214253088
 20
873.8903526665446
 10
5653.992377219822
 20
870.9177232230537
 10
5655.560835961769
 20
870.9177232230537
 10
5656.418532130621
 20
873.655818461149
 10
5658.2808580640885
 20
873.655818461149
 10
5659.138554232942
 20
870.9177232230537
 10
5665.124315366387
 20
870.9177232230537
 10
5668.5551000418
 20
865.4415327468633
 10
5672.003996765743
 20
865.4415327468633
 10
5672.861692934597
 20
862.7034375087679
 10
5677.997905060152
 20
862.7034375087679
 10
5680.570993566713
 20
857.2272470325776
 10
5684.851327250016
 20
857.2272470325776
 10
5688.282111925429
 20
851.7510565563872
 10
5690.015616311664
 20
851.7510565563872
 10
5691.731008649372
 20
846.2748660801965
 10
5693.446400987079
 20
846.2748660801965
 10
5696.029193357915
 20
838.0296019081194
 10
5701.169831856907
 20
835.2944535136951
 10
5707.161411948859
 20
821.6320089373394
 10
5708.884932026441
 20
821.6320089373394
 10
5710.600324364147
 20
816.1558184611489
 10
5713.158362473751
 20
816.1558184611489
 10
5724.787210437257
 20
795.5315160892284
 10
5723.451707714895
 20
791.2680790151727
 10
5718.305530701773
 20
794.0061742532679
 10
5717.461893714974
 20
791.3129613182919
 10
5715.617679830037
 20
791.3129613182919
 10
5713.988168523818
 20
793.9139739554049
 10
5713.173412870708
 20
791.3129613182919
 10
5704.467629634943
 20
791.3129613182919
 10
5702.823233654503
 20
793.9377327508153
 10
5699.912281010219
 20
787.2999629878166
 10
5701.170162461286
 20
783.2843227922226
 10
5714.013981242652
 20
780.5508296415164
 10
5718.2948261591755
 20
775.0843898897203
 10
5721.750374559241
 20
775.0843898897203
 10
5722.608070728094
 20
772.3462946516252
 10
5727.754247741216
 20
772.3462946516252
 10
5729.072116550227
 20
768.1391517944824
 10
5727.762871145718
 20
763.9595381530022
 10
5721.758997963745
 20
761.221442914907
 10
5720.034982221534
 20
755.7177232230538
 10
5718.3195898838285
 20
755.7177232230538
 10
5717.461893714974
 20
752.9796279849586
 10
5714.021144151997
 20
752.9796279849586
 10
5708.824028570447
 20
741.9188367300998
 10
5707.12659917299
 20
744.6282596696906
 10
5705.454147351027
 20
739.2891517944824
 10
5703.59182141756
 20
739.2891517944824
 10
5702.807592046587
 20
741.792712827182
 10
5702.023362675613
 20
739.2891517944824
 10
5697.587948235587
 20
739.2891517944824
 10
5696.730252066733
 20
742.0272470325776
 10
5695.161793324786
 20
742.0272470325776
 10
5694.304097155932
 20
739.2891517944824
 10
5691.584075053612
 20
739.2891517944824
 10
5690.726378884759
 20
742.0272470325776
 10
5688.300223973958
 20
742.0272470325776
 10
5687.442527805104
 20
739.2891517944824
 10
5685.598313920167
 20
739.2891517944824
 10
5683.968802613947
 20
741.8901644315954
 10
5683.154046960838
 20
739.2891517944824
 10
5678.71863252081
 20
739.2891517944824
 10
5677.860936351957
 20
742.0272470325776
 10
5676.267713885358
 20
742.0272470325776
 10
5671.979233041091
 20
736.551056556387
 10
5664.284731246063
 20
736.551056556387
 10
5663.427035077209
 20
733.8129613182919
 10
5661.564709143742
 20
733.8129613182919
 10
5660.780479772769
 20
736.3165223509915
 10
5659.138554232942
 20
731.0748660801967
 10
5653.1346810509685
 20
731.0748660801967
 10
5651.3763481975175
 20
725.461593003024
 10
5647.859682490616
 20
731.0748660801967
 10
5643.553089597821
 20
731.0748660801967
  0
LWPOLYLINE
  5
47
330
17
100
AcDbEntity
  8
Y
100
AcDbPolyline
 90
63
 70
1
 10
5456.119246528351
 20
716.1793273478437
 10
5459.139789889832
 20
717.5568606740577
 10
5460.006109463188
 20
720.3224851278158
 10
5462.726131565509
 20
720.3224851278158
 10
5463.510360936481
 20
717.818924095116
 10
5466.009982645162
 20
725.7986756040061
 10
5467.72537498287
 20
725.7986756040061
 10
5468.98538603403
 20
729.8211143001479
 10
5468.98538603403
 20
743.4809988126265
 10
5466.8676788140165
 20
750.2415327468633
 10
5460.8638056320415
 20
750.2415327468633
 10
5459.139789889832
 20
755.7452524387165
 10
5456.119943501229
 20
757.1224679070982
 10
5456.119943501229
 20
803.8094943805963
 10
5461.00343220164
 20
805.2267643397203
 10
5461.872674593864
 20
802.4518091267562
 10
5475.595813295518
 20
799.7137138886609
 10
5476.453509464372
 20
796.9756186505658
 10
5490.176648166027
 20
794.2375234124704
 10
5491.030105137671
 20
791.5129613182919
 10
5496.029348555032
 20
791.5129613182919
 10
5496.9605115217655
 20
794.4855907617828
 10
5497.891674488499
 20
791.5129613182919
 10
5503.895547670472
 20
791.5129613182919
 10
5504.753243839326
 20
788.7748660801966
 10
5511.614813190154
 20
788.7748660801966
 10
5512.472509359007
 20
786.0367708421013
 10
5518.476382540981
 20
786.0367708421013
 10
5519.338317907043
 20
783.2851424600896
 10
5533.054407774734
 20
780.5484536333939
 10
5536.085687204596
 20
773.636305824242
 10
5536.085687204596
 20
768.1544476334811
 10
5537.345698255756
 20
764.1320089373395
 10
5539.061090593463
 20
764.1320089373395
 10
5540.374168048864
 20
759.9401619191955
 10
5540.374168048864
 20
748.9970178549939
 10
5544.66264889313
 20
740.7827321407083
 10
5544.66264889313
 20
729.8136021544367
 10
5545.522754915635
 20
724.3220253233885
 10
5544.133800808703
 20
719.88795092242
 10
5543.2026378419705
 20
722.8605803659109
 10
5540.77648293117
 20
722.8605803659109
 10
5539.918786762317
 20
720.1224851278157
 10
5537.198764659996
 20
720.1224851278157
 10
5536.414535289023
 20
722.6260461605153
 10
5534.772609749196
 20
717.3843898897204
 10
5532.199521242636
 20
717.3843898897204
 10
5531.268358275902
 20
714.4117604462296
 10
5530.337195309169
 20
717.3843898897204
 10
5527.911040398369
 20
717.3843898897204
 10
5527.0533442295155
 20
714.6462946516252
 10
5519.334078709834
 20
714.6462946516252
 10
5517.221162843433
 20
707.9010565563872
 10
5518.931763827528
 20
702.4401619191955
 10
5518.931763827528
 20
666.8143321459597
 10
5517.618686372128
 20
662.6224851278157
 10
5515.045597865567
 20
662.6224851278157
 10
5514.187901696713
 20
659.8843898897204
 10
5510.6101834255405
 20
659.8843898897204
 10
5509.825954054567
 20
662.38795092242
 10
5509.033772622375
 20
659.8590038593933
 10
5456.5495814130545
 20
676.3392997249528
 10
5456.119246528351
 20
716.1793273478437
  0
LWPOLYLINE
  5
48
330
17
100
AcDbEntity
  8
Y
100
AcDbPolyline
 90
116
 70
1
 10
8287.283798447179
 20
654.40819941353
 10
8282.00158704888
 20
659.8843898897204
 10
8276.707270898021
 20
659.8843898897204
 10
8273.185796632488
 20
665.3605803659109
 10
8267.903585234191
 20
665.3605803659109
 10
8264.382110968658
 20
670.8367708421014
 10
8259.099899570361
 20
670.8367708421014
 10
8255.578425304828
 20
676.3129613182919
 10
8248.535476773764
 20
676.3129613182919
 10
8245.014002508231
 20
681.7891517944824
 10
8239.752074716811
 20
681.7891517944824
 10
8229.211124079087
 20
689.9851869121172
 10
8223.904897916054
 20
687.2346433435771
 10
8222.11799735072
 20
690.0134249333103
 10
8208.032100288592
 20
692.7515201714057
 10
8206.27778558738
 20
695.4796279849586
 10
8192.19188852525
 20
695.4796279849586
 10
8190.431151392485
 20
698.2177232230538
 10
8183.388202861421
 20
698.2177232230538
 10
8181.627465728655
 20
700.9558184611491
 10
8174.584517197591
 20
700.9558184611491
 10
8172.84352106584
 20
703.6632147721485
 10
8167.561309667541
 20
700.9251195340534
 10
8165.780831533761
 20
703.6939136992443
 10
8158.763905100658
 20
703.6939136992443
 10
8149.960219436828
 20
709.1701041754347
 10
8144.651985940568
 20
709.1701041754347
 10
8141.976843536012
 20
713.3301769897288
 10
8138.44399215777
 20
721.5710012635413
 10
8138.44399215777
 20
735.2526312675087
 10
8134.922517892237
 20
740.7288217436991
 10
8134.922517892237
 20
751.6812026960799
 10
8131.401043626704
 20
757.1573931722706
 10
8131.401043626704
 20
768.1097741246515
 10
8127.879569361174
 20
773.5859646008421
 10
8127.879569361174
 20
784.6037089699296
 10
8135.85581222136
 20
794.2510565563871
 10
8143.000421171566
 20
794.2510565563871
 10
8146.5218954370985
 20
788.7748660801966
 10
8150.043369702631
 20
788.7748660801966
 10
8151.81137553593
 20
786.0254673976833
 10
8164.136535465291
 20
783.2873721595881
 10
8167.659790104157
 20
777.8084130522071
 10
8187.027898564584
 20
772.3322225760166
 10
8190.477090726197
 20
766.9684368880537
 10
8198.309054671814
 20
781.8543295090041
 10
8198.309054671814
 20
787.3351961309799
 10
8201.830528937346
 20
792.8113866071703
 10
8201.830528937346
 20
798.2875770833607
 10
8205.35200320288
 20
803.7637675595512
 10
8205.35200320288
 20
809.2399580357416
 10
8208.87347746841
 20
814.7161485119321
 10
8208.87347746841
 20
820.1923389881226
 10
8212.383376753804
 20
825.6505293907019
 10
8209.779841363603
 20
832.3983924698074
 10
8197.466831223017
 20
835.1337885722337
 10
8195.713362790784
 20
837.8605803659108
 10
8192.301060889014
 20
837.8605803659108
 10
8190.516566537449
 20
835.0855406422037
 10
8181.6534878266175
 20
840.5986756040062
 10
8176.345254330357
 20
840.5986756040062
 10
8174.6391033794725
 20
843.2518847100964
 10
8172.932952428589
 20
840.5986756040062
 10
8169.328327897254
 20
840.5986756040062
 10
8160.559568155049
 20
846.053140974749
 10
8157.006775455558
 20
843.2906943291408
 10
8155.216408737165
 20
846.0748660801966
 10
8148.193743812976
 20
846.0748660801966
 10
8144.631702333691
 20
848.8445040434201
 10
8141.9654664233
 20
852.9907265056039
 10
8141.9654664233
 20
864.0018627976466
 10
8145.486940688834
 20
869.478053273837
 10
8145.486940688834
 20
883.1685294643131
 10
8149.0084149543645
 20
888.6447199405036
 10
8149.0084149543645
 20
905.073291369075
 10
8151.703129491704
 20
909.2638005060749
 10
8164.136535465291
 20
906.5016578738737
 10
8165.860374311896
 20
903.8209425931573
 10
8169.381848577428
 20
906.5590378312523
 10
8171.172215295823
 20
903.7748660801966
 10
8183.477091618308
 20
903.7748660801966
 10
8190.460780978114
 20
898.3447521169669
 10
8192.19188852525
 20
901.0367708421013
 10
8195.796513056584
 20
901.0367708421013
 10
8204.56527279879
 20
895.5823054713584
 10
8208.118065498282
 20
898.3447521169669
 10
8209.918280777052
 20
895.5452650211246
 10
8218.721966440882
 20
892.8071697830292
 10
8224.009433458657
 20
884.5847111357162
 10
8229.291644856956
 20
881.8466158976212
 10
8239.006008725433
 20
866.7399580357417
 10
8239.006008725433
 20
861.2637675595513
 10
8242.527482990965
 20
855.7875770833608
 10
8242.527482990965
 20
839.3590056547894
 10
8245.14738437712
 20
835.2848372986982
 10
8250.404977012993
 20
829.8341696617434
 10
8259.2189204945
 20
827.0928840687436
 10
8262.730546199657
 20
821.6320089373394
 10
8268.012757597955
 20
821.6320089373394
 10
8271.542599414828
 20
816.1428062107382
 10
8282.0964609089
 20
813.4074482591659
 10
8292.659565645201
 20
802.4564337703183
 10
8304.991598106944
 20
799.716811765163
 10
8330.578964478402
 20
765.4146393900415
 10
8323.50857729399
 20
748.9220638196745
 10
8311.19623116884
 20
732.5105722909997
 10
8311.19623116884
 20
729.83519613098
 10
8321.75878441889
 20
713.4095320054932
 10
8323.520080820253
 20
686.0198825245803
 10
8327.05570303249
 20
677.7725949287698
 10
8317.330745380714
 20
662.6494628373941
 10
8308.527059716882
 20
657.1732723612035
 10
8303.221184052978
 20
648.9221867113883
 10
8295.189259496965
 20
650.3100003069495
 10
8292.553905092915
 20
654.40819941353
 10
8287.283798447179
 20
654.40819941353
  0
LWPOLYLINE
  5
49
330
17
100
AcDbEntity
  8
Y
100
AcDbPolyline
 90
48
 70
1
 10
8285.535272807352
 20
895.3605803659109
 10
8280.228745163553
 20
895.3605803659109
 10
8278.468008030786
 20
898.0986756040063
 10
8273.185796632488
 20
898.0986756040063
 10
8271.45468908535
 20
900.7906943291407
 10
8267.93321481982
 20
898.0525990910456
 10
8266.142848101425
 20
900.8367708421014
 10
8260.880920310003
 20
900.8367708421014
 10
8253.897230950199
 20
906.2668848053311
 10
8252.166123403062
 20
903.5748660801967
 10
8248.535476773764
 20
903.5748660801967
 10
8246.804369226627
 20
906.2668848053311
 10
8243.307851557349
 20
903.5481943767584
 10
8239.811333888068
 20
906.2668848053311
 10
8238.050596755304
 20
903.528789567236
 10
8234.529122489772
 20
906.2668848053311
 10
8232.743428760752
 20
903.4899799481916
 10
8230.928105446104
 20
906.3129613182917
 10
8227.515803544335
 20
906.3129613182917
 10
8225.700480229689
 20
903.4899799481916
 10
8223.914786500667
 20
906.2668848053311
 10
8220.393312235137
 20
903.528789567236
 10
8218.60294551674
 20
906.3129613182917
 10
8215.08147125121
 20
906.3129613182917
 10
8212.394951733942
 20
910.4907265056038
 10
8212.394951733942
 20
918.7050122198896
 10
8208.87347746841
 20
924.1812026960802
 10
8208.87347746841
 20
929.6573931722705
 10
8205.35200320288
 20
935.133583648461
 10
8205.35200320288
 20
946.099661280686
 10
8203.581607719008
 20
951.6058908634215
 10
8206.297526588394
 20
955.8293745311018
 10
8211.603752751427
 20
953.0788309625616
 10
8215.136057433092
 20
955.8253473074444
 10
8222.21330853916
 20
950.3224851278158
 10
8227.49551993746
 20
950.3224851278158
 10
8234.549245543434
 20
944.8379150198939
 10
8245.118249809744
 20
942.0986323529495
 10
8253.923789773846
 20
933.882616482362
 10
8271.526688679693
 20
928.4078170050482
 10
8285.599845318739
 20
917.4653422706727
 10
8290.894828379292
 20
917.4653422706727
 10
8298.871071239479
 20
907.8179946842155
 10
8298.871071239479
 20
899.5971008928846
 10
8302.411436869132
 20
894.0915327468633
 10
8299.699709787445
 20
889.8745676637693
 10
8291.690259831685
 20
891.2584979365269
 10
8285.535272807352
 20
895.3605803659109
  0
LWPOLYLINE
  5
4A
330
17
100
AcDbEntity
  8
Y
100
AcDbPolyline
 90
58
 70
1
 10
7961.562882470781
 20
158.81296131829188
 10
7950.991184943182
 20
158.81296131829188
 10
7940.386194932831
 20
167.05878975770636
 10
7932.413757634424
 20
179.45660439826435
 10
7947.514766808941
 20
197.41445809362122
 10
7949.276234876832
 20
194.67522618955354
 10
7970.347611549395
 20
219.25105655638708
 10
7973.8690858149275
 20
219.25105655638708
 10
7980.912034345992
 20
227.4653422706728
 10
7991.5770277536885
 20
227.4653422706728
 10
7993.337764886454
 20
224.7272470325776
 10
8019.6656716121415
 20
224.7272470325776
 10
8028.487556854252
 20
230.2147582624898
 10
8035.500951909372
 20
227.48815256338457
 10
8037.247020841839
 20
230.20343750876802
 10
8046.050706505669
 20
230.20343750876802
 10
8047.866029820318
 20
233.0264188788684
 10
8049.681353134966
 20
230.20343750876802
 10
8067.288724462626
 20
230.20343750876802
 10
8069.049461595393
 20
227.4653422706728
 10
8086.656832923053
 20
227.4653422706728
 10
8090.178307188586
 20
221.98915179448227
 10
8107.785678516246
 20
221.98915179448227
 10
8109.546415649012
 20
219.25105655638708
 10
8116.467194456797
 20
219.25105655638708
 10
8125.270880120627
 20
241.15581846114895
 10
8134.181556919249
 20
241.15581846114895
 10
8142.985242583079
 20
232.94153274686332
 10
8148.282632569865
 20
232.94153274686332
 10
8163.313203380616
 20
209.5677232230538
 10
8160.607792499228
 20
205.36058036591095
 10
8151.694934471631
 20
205.36058036591095
 10
8149.9341973388655
 20
208.09867560400616
 10
8132.326826011205
 20
208.09867560400616
 10
8130.566088878439
 20
210.83677084210137
 10
8125.393049843906
 20
210.83677084210137
 10
8122.797357962874
 20
206.8002503151277
 10
8122.797357962874
 20
162.99072650560396
 10
8118.3501013128425
 20
156.0748660801967
 10
8111.197980418012
 20
156.0748660801967
 10
8109.441938571667
 20
158.8056597505841
 10
8088.313092978476
 20
156.0675645124889
 10
8086.5476605592885
 20
158.81296131829188
 10
8076.092410126456
 20
158.81296131829188
 10
8074.331672993691
 20
156.0748660801967
 10
8065.418814966096
 20
156.0748660801967
 10
8063.658077833329
 20
158.81296131829188
 10
8053.182543793621
 20
158.81296131829188
 10
8046.139595262558
 20
153.33677084210137
 10
8040.8710009493025
 20
153.33677084210137
 10
8032.067315285472
 20
142.38438988972044
 10
8028.455439930572
 20
142.38438988972044
 10
8023.231469098995
 20
147.80020102613042
 10
8017.9824197309135
 20
139.63748507506145
 10
8000.2920816210935
 20
142.38848234986176
 10
7986.213202329505
 20
150.59867560400616
 10
7975.6487795329085
 20
150.59867560400616
 10
7961.562882470781
 20
158.81296131829188
  0
LWPOLYLINE
  5
4B
330
17
100
AcDbEntity
  8
Y
100
AcDbPolyline
 90
122
 70
1
 10
7973.860484062262
 20
364.1701041754348
 10
7963.384950022554
 20
364.1701041754348
 10
7959.804216585763
 20
361.385932424379
 10
7958.013849867369
 20
364.1701041754348
 10
7949.204367421755
 20
364.1701041754348
 10
7941.225784212094
 20
379.3346700175452
 10
7943.002170420739
 20
382.0971008928847
 10
7943.002170420739
 20
387.5681276476574
 10
7950.045118951804
 20
401.2586038381336
 10
7950.045118951804
 20
406.73995803574184
 10
7958.848804615634
 20
420.43043422621804
 10
7958.848804615634
 20
425.9014609809907
 10
7965.876436618797
 20
439.5621640502203
 10
7958.0285180676665
 20
451.7663415017706
 10
7950.985569536602
 20
449.0282462636753
 10
7949.210164203539
 20
451.78915179448245
 10
7938.645741406942
 20
451.78915179448245
 10
7936.885004274176
 20
454.52724703257763
 10
7926.320581477579
 20
454.52724703257763
 10
7924.568039364885
 20
457.2525983209851
 10
7912.242879435523
 20
454.51450308288986
 10
7910.473947282686
 20
457.2653422706728
 10
7899.909524486089
 20
457.2653422706728
 10
7898.148787353323
 20
460.0034375087682
 10
7887.584364556727
 20
460.0034375087682
 10
7885.831822444033
 20
462.7287887971756
 10
7873.50666251467
 20
459.9906935590804
 10
7871.737730361833
 20
462.74153274686336
 10
7861.173307565236
 20
462.74153274686336
 10
7859.41257043247
 20
465.47962798495854
 10
7848.848147635875
 20
465.47962798495854
 10
7847.14199668499
 20
468.1328370910487
 10
7845.435845734107
 20
465.47962798495854
 10
7838.296707606731
 20
465.47962798495854
 10
7823.244474719546
 20
480.62565473455953
 10
7828.565633903659
 20
488.90050755161695
 10
7832.075731056479
 20
497.0882547063757
 10
7832.075731056479
 20
502.5690188010604
 10
7840.87941672031
 20
518.9975902296319
 10
7840.87941672031
 20
524.484661350882
 10
7848.912843566264
 20
534.2011735549106
 10
7850.718057132405
 20
531.3939136992443
 10
7859.521742796235
 20
531.3939136992443
 10
7861.286855714483
 20
528.6490137444392
 10
7882.415701307675
 20
525.9109185063438
 10
7884.1720626549595
 20
523.1796279849585
 10
7907.061645380918
 20
523.1796279849585
 10
7908.822382513685
 20
520.4415327468633
 10
7917.626068177515
 20
520.4415327468633
 10
7919.391181095762
 20
517.6966327920583
 10
7940.520026688954
 20
514.958537553963
 10
7942.276388036239
 20
512.2272470325776
 10
7949.3072318147415
 20
512.2272470325776
 10
7954.601138708299
 20
506.7389315665054
 10
7963.415082189807
 20
503.9976459735057
 10
7965.1659707621975
 20
501.27486608019666
 10
7973.860484062262
 20
501.27486608019666
 10
7975.6758073769115
 20
504.09784745029697
 10
7977.49113069156
 20
501.27486608019666
 10
8009.184399081347
 20
501.27486608019666
 10
8010.890550032231
 20
498.62165697410654
 10
8012.596700983116
 20
501.27486608019666
 10
8021.509559010709
 20
501.27486608019666
 10
8023.215709961594
 20
498.62165697410654
 10
8024.921860912476
 20
501.27486608019666
 10
8032.073981807306
 20
501.27486608019666
 10
8033.78013275819
 20
498.62165697410654
 10
8036.321238457338
 20
502.57329136907515
 10
8036.321238457338
 20
535.430434226218
 10
8039.007757974606
 20
539.60819941353
 10
8042.541336992698
 20
539.60819941353
 10
8047.856455821423
 20
545.1185057823841
 10
8051.362547489596
 20
542.3923711645857
 10
8056.615129302266
 20
550.5605803659109
 10
8061.909445453125
 20
550.5605803659109
 10
8067.234138280744
 20
556.0808123203989
 10
8072.558831108363
 20
550.5605803659109
 10
8079.613884391989
 20
550.5605803659109
 10
8083.1353586575215
 20
545.0843898897205
 10
8088.417570055819
 20
545.0843898897205
 10
8091.9390443213515
 20
539.60819941353
 10
8100.7427299851815
 20
539.60819941353
 10
8104.274052811089
 20
534.1166935925534
 10
8113.077738474919
 20
531.3785983544581
 10
8116.589364180076
 20
525.9177232230537
 10
8123.620207958579
 20
525.9177232230537
 10
8128.902419356877
 20
520.4415327468633
 10
8134.196735507736
 20
520.4415327468633
 10
8137.718209773268
 20
514.9653422706729
 10
8144.761158304333
 20
514.9653422706729
 10
8149.208414954366
 20
508.0494818452656
 10
8149.208414954366
 20
477.87167888655625
 10
8145.686940688833
 20
472.3954884103657
 10
8145.686940688833
 20
395.72882174369903
 10
8141.239684038801
 20
388.8129613182919
 10
8134.087563143971
 20
388.8129613182919
 10
8130.566088878439
 20
394.28915179448245
 10
8120.013770834405
 20
394.28915179448245
 10
8114.731559436107
 20
399.7653422706728
 10
8105.927873772277
 20
399.7653422706728
 10
8100.639529587925
 20
405.24789074771616
 10
8083.032158260265
 20
407.9859859858114
 10
8077.75607964802
 20
413.4558184611491
 10
8068.940289231628
 20
413.4558184611491
 10
8065.418814966096
 20
418.9320089373395
 10
8056.7243016660295
 20
418.9320089373395
 10
8054.9635645332655
 20
416.1939136992443
 10
8047.910557039902
 20
416.1939136992443
 10
8041.816258181843
 20
409.4245205317657
 10
8043.564186988403
 20
403.98816611780273
 10
8043.564186988403
 20
379.3590056547894
 10
8047.085661253935
 20
373.8828151785989
 10
8047.085661253935
 20
365.60977412465155
 10
8042.638404603903
 20
358.6939136992443
 10
8033.725546576306
 20
358.6939136992443
 10
8031.9648094435415
 20
361.4320089373395
 10
8025.031033276243
 20
361.4320089373395
 10
8023.267362559515
 20
358.68935172794056
 10
7989.704312663571
 20
361.43637187278034
 10
7987.954576144462
 20
364.1573602257471
 10
7975.6294162151
 20
361.41926498765173
 10
7973.860484062262
 20
364.1701041754348
  0
LWPOLYLINE
  5
4C
330
17
100
AcDbEntity
  8
Y
100
AcDbPolyline
 90
7
 70
1
 10
8023.215709961594
 20
413.370932329144
 10
8020.6746042624445
 20
409.4192979341753
 10
8020.6746042624445
 20
384.83519613097997
 10
8023.215709961594
 20
380.88356173601125
 10
8025.756815660742
 20
384.83519613097997
 10
8025.756815660742
 20
409.4192979341753
 10
8023.215709961594
 20
413.370932329144
  0
LWPOLYLINE
  5
4D
330
17
100
AcDbEntity
  8
Y
100
AcDbPolyline
 90
170
 70
1
 10
7896.497222584323
 20
599.6462946516252
 10
7894.6818992696735
 20
596.823313281525
 10
7892.866575955025
 20
599.6462946516252
 10
7884.062890291195
 20
599.6462946516252
 10
7882.302153158429
 20
602.3843898897204
 10
7873.498467494598
 20
602.3843898897204
 10
7871.737730361833
 20
605.1224851278157
 10
7864.803954194534
 20
605.1224851278157
 10
7862.988630879885
 20
602.2995037577153
 10
7861.173307565236
 20
605.1224851278157
 10
7852.369621901406
 20
605.1224851278157
 10
7850.60888476864
 20
607.860580365911
 10
7841.80519910481
 20
607.860580365911
 10
7840.056091659088
 20
610.5805904565286
 10
7831.2524059952575
 20
607.8424952184333
 10
7828.554256790947
 20
612.0383455532229
 10
7828.554256790947
 20
623.0494818452656
 10
7832.075731056479
 20
628.5256723214562
 10
7832.075731056479
 20
669.5882547063758
 10
7835.584367653255
 20
677.7725949287698
 10
7831.225672128361
 20
684.5507353103912
 10
7825.949054543225
 20
687.2859309308775
 10
7817.989833994351
 20
696.9126898571304
 10
7817.989833994351
 20
702.3954884103657
 10
7814.4683597288185
 20
707.8716788865562
 10
7814.4683597288185
 20
716.085964600842
 10
7809.186148330521
 20
724.3002503151276
 10
7809.186148330521
 20
732.5145360294133
 10
7805.6646740649885
 20
737.9907265056038
 10
7805.6646740649885
 20
746.2050122198896
 10
7800.382462666691
 20
754.4192979341752
 10
7800.382462666691
 20
759.960074611594
 10
7809.186148330521
 20
770.912455563975
 10
7809.186148330521
 20
817.4091850902096
 10
7807.415752846651
 20
822.9154146729453
 10
7810.111930715021
 20
827.10819941353
 10
7817.175162852963
 20
827.10819941353
 10
7824.252413959032
 20
832.6110615931586
 10
7827.748931628311
 20
829.8923711645859
 10
7833.031143026609
 20
838.1066568788714
 10
7836.552617292141
 20
835.3685616407763
 10
7840.860525356187
 20
842.0677232230537
 10
7837.357942454777
 20
847.5145360294135
 10
7837.357942454777
 20
858.4669169817944
 10
7832.075731056479
 20
866.68120269608
 10
7832.075731056479
 20
883.1097741246515
 10
7828.554256790947
 20
888.585964600842
 10
7828.554256790947
 20
896.8590056547893
 10
7831.240776308215
 20
901.0367708421013
 10
7834.871422937511
 20
901.0367708421013
 10
7836.593333025796
 20
898.3590549437866
 10
7841.850211287797
 20
903.8089819728605
 10
7845.356302955971
 20
901.082847355062
 10
7847.087410503108
 20
903.7748660801966
 10
7850.692035034443
 20
903.7748660801966
 10
7859.495720698273
 20
898.2986756040062
 10
7864.791849441972
 20
898.2986756040062
 10
7870.085756335529
 20
892.8103601379337
 10
7878.899699817038
 20
890.0690745449341
 10
7882.419693073534
 20
884.5951871631191
 10
7892.98411587013
 20
881.8570919250241
 10
7896.505590135663
 20
876.3809014488334
 10
7907.070012932259
 20
873.6428062107383
 10
7910.5831196464505
 20
868.1796279849586
 10
7917.626068177515
 20
868.1796279849586
 10
7921.155909994387
 20
862.6904252583572
 10
7931.720332790983
 20
859.9523300202621
 10
7935.241807056515
 20
854.4761395440715
 10
7945.806229853111
 20
851.7380443059765
 10
7949.2647503854205
 20
846.3597522122016
 10
7952.73163846907
 20
851.7510565563872
 10
7958.013849867369
 20
851.7510565563872
 10
7963.325690851296
 20
860.0114187836335
 10
7966.866218741687
 20
857.258508546035
 10
7975.653506375576
 20
865.4574940658083
 10
7982.678837926392
 20
862.7262478014798
 10
7984.4794930407415
 20
865.5264188788684
 10
7986.240230173507
 20
862.7883236407731
 10
7987.946381124391
 20
865.4415327468633
 10
7991.556744146811
 20
865.4415327468633
 10
7995.018959241084
 20
862.7495140217286
 10
7996.750066788221
 20
865.4415327468633
 10
8000.360429810641
 20
865.4415327468633
 10
8003.847601501167
 20
862.7301092122062
 10
8007.374978738094
 20
865.4727942603207
 10
8016.212169023923
 20
857.2272470325776
 10
8019.748821877944
 20
857.2272470325776
 10
8025.05131688312
 20
848.9814185931635
 10
8032.053698200429
 20
843.5367708421014
 10
8035.595456072839
 20
843.5367708421014
 10
8040.877667471136
 20
835.3224851278158
 10
8044.399141736669
 20
835.3224851278158
 10
8047.9206160021995
 20
829.8462946516253
 10
8051.442090267733
 20
829.8462946516253
 10
8056.7243016660295
 20
821.6320089373394
 10
8060.245775931563
 20
821.6320089373394
 10
8063.787533803971
 20
816.1242757360206
 10
8070.789915121281
 20
810.6796279849585
 10
8074.331672993691
 20
810.6796279849585
 10
8077.029767491096
 20
806.4838627240352
 10
8074.3603886230985
 20
799.5653460119895
 10
8070.755612546277
 20
796.7624800910442
 10
8067.227776443038
 20
799.50552192713
 10
8058.459016700834
 20
794.051056556387
 10
8049.572180771202
 20
794.051056556387
 10
8047.850270682917
 20
796.7287724547019
 10
8042.62629985134
 20
791.3129613182919
 10
8037.356193205604
 20
791.3129613182919
 10
8035.595456072839
 20
788.5748660801967
 10
8028.552507541774
 20
788.5748660801967
 10
8026.737184227125
 20
785.7518847100963
 10
8024.921860912476
 20
788.5748660801967
 10
8021.489275403832
 20
788.5748660801967
 10
8017.908541967042
 20
785.7906943291408
 10
8016.157002293129
 20
788.5144867404161
 10
8010.87479089483
 20
783.0382962642257
 10
8009.114053762063
 20
785.7763915023208
 10
8003.857175500062
 20
780.3264644732473
 10
8000.351083831889
 20
783.0525990910456
 10
7997.810439196692
 20
779.101681689538
 10
8003.892128720752
 20
772.3462946516252
 10
8007.423661948583
 20
772.3462946516252
 10
8012.705873346879
 20
764.1320089373395
 10
8017.975979992617
 20
764.1320089373395
 10
8028.540402789213
 20
753.1796279849585
 10
8032.073981807306
 20
753.1796279849585
 10
8036.52123845734
 20
746.2637675595514
 10
8036.52123845734
 20
735.3113866071704
 10
8040.04271272287
 20
729.8351961309799
 10
8040.04271272287
 20
716.1447199405037
 10
8043.564186988403
 20
710.6685294643131
 10
8043.564186988403
 20
696.978053273837
 10
8047.0972362340735
 20
691.4838627240355
 10
8044.406875277893
 20
684.5109644742158
 10
8031.975761611891
 20
687.2725978589488
 10
8021.420670253823
 20
695.4796279849586
 10
8014.377721722758
 20
695.4796279849586
 10
8003.805074454832
 20
703.700308573689
 10
7989.700695825604
 20
706.4419963618818
 10
7986.262636630555
 20
711.7884693447435
 10
7983.710699454497
 20
705.1743389145117
 10
7987.22059873989
 20
699.7161485119323
 10
7987.22059873989
 20
694.2356854677271
 10
7996.024284403721
 20
677.8071140391557
 10
7996.024284403721
 20
669.5882547063758
 10
7999.558596338008
 20
661.3440235001983
 10
7996.859239151987
 20
657.1462946516252
 10
7981.012604957092
 20
657.1462946516252
 10
7979.197281642444
 20
654.323313281525
 10
7977.393588014839
 20
657.1282095041477
 10
7968.589902351008
 20
654.3901142660525
 10
7966.817535531199
 20
657.1462946516252
 10
7963.384950022554
 20
657.1462946516252
 10
7959.829173182017
 20
654.3815277100917
 10
7956.307698916486
 20
657.1196229481869
 10
7952.861094439713
 20
654.4397421386586
 10
7950.268192437583
 20
650.4075601094609
 10
7959.048804615633
 20
639.4838841354037
 10
7959.048804615633
 20
625.7288217436991
 10
7955.527330350102
 20
620.2526312675086
 10
7955.527330350102
 20
614.7764407913181
 10
7952.85952407114
 20
610.6277762731177
 10
7936.9113983713705
 20
599.6052495969727
 10
7935.153896727039
 20
602.33831337676
 10
7928.170207367233
 20
596.90819941353
 10
7921.147542443046
 20
596.90819941353
 10
7919.379670272181
 20
594.1590085874109
 10
7905.185313452835
 20
596.9181868380723
 10
7903.430998751621
 20
599.6462946516252
 10
7896.497222584323
 20
599.6462946516252
  0
LWPOLYLINE
  5
4E
330
17
100
AcDbEntity
  8
Y
100
AcDbPolyline
 90
37
 70
1
 10
8946.069776129974
 20
821.4473794752867
 10
8942.567324844997
 20
826.90819941353
 10
8935.568741383155
 20
826.90819941353
 10
8909.226419277195
 20
843.3367708421015
 10
8903.931919089591
 20
843.3367708421015
 10
8900.419609475462
 20
848.8129613182919
 10
8895.141626315195
 20
848.8129613182919
 10
8890.704294063167
 20
858.4987666723206
 10
8897.743079691929
 20
872.2168521555596
 10
8899.499871187441
 20
885.9122917854786
 10
8905.742736998827
 20
895.6458079205381
 10
8907.49889180589
 20
892.9077126824428
 10
8909.230062271616
 20
895.6068537772192
 10
8912.778206426865
 20
892.8408229647637
 10
8918.070709407142
 20
895.5914113809285
 10
8919.846638557507
 20
892.8224851278156
 10
8923.249621967294
 20
892.8224851278156
 10
8925.035455535191
 20
895.6068537772192
 10
8928.572749490657
 20
892.8492814674644
 10
8932.110043446122
 20
895.6068537772192
 10
8933.89587701402
 20
892.8224851278156
 10
8937.298860423805
 20
892.8224851278156
 10
8939.109678333041
 20
895.6458079205381
 10
8940.920496242275
 20
892.8224851278156
 10
8944.323479652061
 20
892.8224851278156
 10
8946.109313219958
 20
895.6068537772192
 10
8953.233869813566
 20
890.0527550143905
 10
8958.482044312914
 20
881.8701041754348
 10
8961.994353927043
 20
881.8701041754348
 10
8969.03926307714
 20
870.8860883477238
 10
8979.576191919525
 20
862.671802633438
 10
8985.768844124197
 20
853.0165766564413
 10
8970.715302276129
 20
832.307211538264
 10
8968.964310053128
 20
835.0372575731885
 10
8962.014643848885
 20
824.2017390507647
 10
8954.935272500974
 20
818.6828654017964
 10
8946.069776129974
 20
821.4473794752867
  0
LWPOLYLINE
  5
4F
330
17
100
AcDbEntity
  8
Y
100
AcDbPolyline
 90
95
 70
1
 10
8716.043644655594
 20
136.90819941353
 10
8707.24258069843
 20
136.90819941353
 10
8705.480667737338
 20
139.65527243311666
 10
8689.686345342401
 20
142.3914497757067
 10
8684.419066712835
 20
147.86640770664647
 10
8665.10136383513
 20
150.60450294474168
 10
8659.838505708583
 20
156.0748660801967
 10
8654.652082292201
 20
156.0748660801967
 10
8645.871308256883
 20
147.86058036591095
 10
8633.484078801745
 20
147.86058036591095
 10
8629.971769187618
 20
153.33677084210137
 10
8608.89070757571
 20
153.33677084210137
 10
8602.706032780297
 20
165.73464120599888
 10
8602.706032780297
 20
171.20507656469783
 10
8595.690181958404
 20
182.1437863238513
 10
8592.177872344277
 20
193.09616727623222
 10
8583.397098308955
 20
206.78664346670837
 10
8579.884788694828
 20
217.73902441908942
 10
8574.607555867275
 20
225.9669813266025
 10
8574.607555867275
 20
231.58102726816074
 10
8591.448498913232
 20
230.199057446675
 10
8594.962760384042
 20
224.71982374817554
 10
8614.280463261746
 20
221.98172851008022
 10
8617.788011742512
 20
216.51296131829187
 10
8628.324940584895
 20
216.51296131829187
 10
8630.081095391959
 20
213.77486608019666
 10
8638.8497646264
 20
213.77486608019666
 10
8644.118229047592
 20
208.29867560400615
 10
8652.816962078101
 20
208.29867560400615
 10
8661.620563604332
 20
216.53431610224803
 10
8666.870794479262
 20
213.80569709521444
 10
8668.601416788997
 20
216.50398353680052
 10
8684.406810052571
 20
219.24207877489573
 10
8686.223386115835
 20
222.07437934910942
 10
8688.034204025069
 20
219.25105655638708
 10
8694.975532815395
 20
219.25105655638708
 10
8703.770925891156
 20
224.73636429829
 10
8712.522693934245
 20
222.00731395405967
 10
8714.258823430582
 20
224.7141868832064
 10
8724.783915997192
 20
227.44920638160423
 10
8727.384177648639
 20
234.20616958419703
 10
8716.847248806256
 20
256.110931488959
 10
8719.521661101242
 20
263.06058036591094
 10
8724.913454973412
 20
263.06058036591094
 10
8726.672419057157
 20
260.3181050657226
 10
8760.014232198859
 20
257.58207185014146
 10
8768.794505828315
 20
252.10619345553064
 10
8807.455165383282
 20
249.36630847802473
 10
8810.965040519544
 20
243.89391369924425
 10
8814.368023929332
 20
243.89391369924425
 10
8818.713074049161
 20
250.66846511950513
 10
8818.713074049161
 20
256.14465559569567
 10
8823.14879796465
 20
263.06058036591094
 10
8837.198036421161
 20
263.06058036591094
 10
8838.983869989057
 20
265.8449490153143
 10
8842.55553712485
 20
263.06058036591094
 10
8860.137375117334
 20
263.06058036591094
 10
8861.893529924399
 20
260.32248512781564
 10
8874.077287369504
 20
260.32248512781564
 10
8875.833442176568
 20
263.06058036591094
 10
8879.455077995039
 20
263.06058036591094
 10
8881.211232802101
 20
260.32248512781564
 10
8898.77278087274
 20
260.32248512781564
 10
8900.53731217591
 20
257.57132974034926
 10
8911.074241018294
 20
254.83323450225404
 10
8913.762563287728
 20
250.6417575465828
 10
8897.019551053474
 20
221.7891517944823
 10
8895.260471258613
 20
221.7891517944823
 10
8875.913089620077
 20
191.62383076412655
 10
8868.829112870155
 20
197.14629465162523
 10
8861.810239486469
 20
197.14629465162523
 10
8853.029465451149
 20
202.62248512781565
 10
8847.734965263544
 20
202.62248512781565
 10
8844.216225752381
 20
208.1087007284339
 10
8830.16698729587
 20
210.84679596652907
 10
8828.417262385843
 20
213.57486608019667
 10
8821.392643157587
 20
213.57486608019667
 10
8817.934996645628
 20
218.96582900175994
 10
8815.400764435033
 20
215.01460037422157
 10
8815.400764435033
 20
193.1684651195051
 10
8818.913074049162
 20
187.6922746433146
 10
8818.913074049162
 20
149.35894130998125
 10
8822.425383663289
 20
143.88275083379085
 10
8822.425383663289
 20
135.6098384694597
 10
8819.745814554864
 20
131.4320089373395
 10
8807.343404701076
 20
131.4320089373395
 10
8803.831095086947
 20
136.90819941353
 10
8788.025701823371
 20
136.90819941353
 10
8786.264334327374
 20
139.65442197541952
 10
8768.702786256734
 20
142.39251721351474
 10
8766.951844138604
 20
145.12248512781565
 10
8745.877986453837
 20
145.12248512781565
 10
8744.151510407606
 20
147.8143069546028
 10
8723.102637064176
 20
131.40521259769085
 10
8716.043644655594
 20
136.90819941353
  0
LWPOLYLINE
  5
50
330
17
100
AcDbEntity
  8
Y
100
AcDbPolyline
 90
21
 70
1
 10
8865.28455910644
 20
928.2363615651482
 10
8863.540358527121
 20
930.955818461149
 10
8858.271894105928
 20
930.955818461149
 10
8856.515739298866
 20
933.6939136992443
 10
8851.247274877673
 20
933.6939136992443
 10
8849.49112007061
 20
936.4320089373396
 10
8842.492536608765
 20
936.4320089373396
 10
8833.711762573445
 20
941.90819941353
 10
8828.417262385843
 20
941.90819941353
 10
8825.71889234751
 20
946.1153422706728
 10
8831.909282078126
 20
955.7670407286761
 10
8839.033838671736
 20
961.3211394915048
 10
8840.76500913746
 20
958.6219983967287
 10
8844.202365727573
 20
963.9813264429619
 10
8854.779874413643
 20
972.2272470325776
 10
8863.639626495798
 20
972.2272470325776
 10
8875.971550011554
 20
958.4935159290068
 10
8882.134647103463
 20
946.1389004782038
 10
8882.134647103463
 20
926.9193622789834
 10
8879.440385290816
 20
922.7186247302691
 10
8865.28455910644
 20
928.2363615651482
  0
LWPOLYLINE
  5
51
330
17
100
AcDbEntity
  8
Y
100
AcDbPolyline
 90
47
 70
1
 10
8748.518544761644
 20
491.48166946113105
 10
8742.35056242414
 20
501.0984316047884
 10
8737.082098002951
 20
503.8365268428836
 10
8732.665164516367
 20
510.7231546606289
 10
8730.901517394888
 20
524.4720387726069
 10
8733.57504447524
 20
528.6404479232016
 10
8742.440540846237
 20
531.4049619966921
 10
8745.939022506964
 20
528.6776466321052
 10
8754.744289425518
 20
534.1691122643772
 10
8756.500444232583
 20
531.431017026282
 10
8765.256725384666
 20
536.8919323463907
 10
8768.753074381528
 20
534.1662795450223
 10
8773.988568167737
 20
539.60819941353
 10
8777.59809918533
 20
539.60819941353
 10
8779.330456724412
 20
536.9072075024725
 10
8788.111230759734
 20
542.383397978663
 10
8789.861504073944
 20
539.6544728248382
 10
8796.85028876108
 20
545.1027277266686
 10
8802.109375938206
 20
542.3695059745222
 10
8807.380582434838
 20
547.8485466412467
 10
8821.51851398253
 20
539.5824039957755
 10
8825.014278976056
 20
534.1320089373395
 10
8828.526588590183
 20
534.1320089373395
 10
8831.206157698607
 20
529.9541794052194
 10
8831.206157698607
 20
521.7398936909336
 10
8834.718467312736
 20
516.2637032147433
 10
8834.718467312736
 20
510.78235730200106
 10
8841.752484056642
 20
497.0735660313679
 10
8839.068531807663
 20
490.0991269114624
 10
8830.271094582624
 20
492.84241820633355
 10
8828.526588590183
 20
490.12248512781576
 10
8821.392643157587
 20
490.12248512781576
 10
8819.636488350521
 20
492.86058036591095
 10
8816.233504940737
 20
492.86058036591095
 10
8814.477350133671
 20
490.12248512781576
 10
8810.855714315203
 20
490.12248512781576
 10
8809.099559508139
 20
492.86058036591095
 10
8784.513392209243
 20
492.86058036591095
 10
8782.766872219867
 20
495.583653552235
 10
8772.229943377484
 20
492.8455583141398
 10
8770.464153752731
 20
495.5986756040062
 10
8765.305015535881
 20
495.5986756040062
 10
8763.548860728819
 20
492.86058036591095
 10
8759.927224910349
 20
492.86058036591095
 10
8758.225733205454
 20
495.5134480493789
 10
8756.52999965459
 20
492.8695581474024
 10
8748.518544761644
 20
491.48166946113105
  0
LWPOLYLINE
  5
52
330
17
100
AcDbEntity
  8
Y
100
AcDbPolyline
 90
18
 70
1
 10
9530.574100164018
 20
97.27779912795594
 10
9530.574100164018
 20
179.47669493719928
 10
9533.115550182212
 20
183.65581846114895
 10
9544.871735469294
 20
183.65581846114895
 10
9549.867088312634
 20
178.17962798495853
 10
9559.849489983008
 20
178.17962798495853
 10
9569.88098534428
 20
169.93180529622595
 10
9572.402040525178
 20
165.78621874672302
 10
9572.402040525178
 20
157.51589436605116
 10
9570.736922910732
 20
154.77779912795594
 10
9570.736922910732
 20
143.825418175575
 10
9567.406687681838
 20
138.3492276993845
 10
9567.406687681838
 20
124.65875150890834
 10
9564.076452452946
 20
119.18256103271781
 10
9564.076452452946
 20
102.75398960414647
 10
9558.202927306638
 20
93.09565010043083
 10
9532.28120550726
 20
94.47065987802803
 10
9530.574100164018
 20
97.27779912795594
  0
LWPOLYLINE
  5
53
330
17
100
AcDbEntity
  8
Y
100
AcDbPolyline
 90
28
 70
1
 10
9481.486852970273
 20
525.7342512114247
 10
9473.16126489804
 20
528.47234644952
 10
9470.612826649336
 20
532.662961318292
 10
9473.16126489804
 20
536.8535761870637
 10
9498.138029114736
 20
545.0678619013495
 10
9501.478315507733
 20
550.5605803659109
 10
9506.473668351071
 20
550.5605803659109
 10
9508.128734801414
 20
553.2821476156353
 10
9524.792657816035
 20
558.7625302454815
 10
9533.123483591206
 20
566.9819836413858
 10
9548.095712971759
 20
569.7175521625181
 10
9551.437697894722
 20
575.2130636651028
 10
9568.200812816687
 20
572.4565613769001
 10
9570.736922910732
 20
568.2862187467231
 10
9570.736922910732
 20
549.0635134136702
 10
9567.406687681838
 20
543.5873229374798
 10
9567.406687681838
 20
524.4206562708131
 10
9564.865237663644
 20
520.2415327468633
 10
9558.09231439891
 20
520.2415327468633
 10
9556.427196784462
 20
522.9796279849586
 10
9546.548943904734
 20
522.9796279849586
 10
9544.883826290288
 20
520.2415327468633
 10
9521.459726881088
 20
520.2415327468633
 10
9519.794609266643
 20
522.9796279849586
 10
9511.581474001361
 20
522.9796279849586
 10
9509.914516487692
 20
520.2385072432879
 10
9483.992794688316
 20
521.613517020885
 10
9481.486852970273
 20
525.7342512114247
  0
LWPOLYLINE
  5
54
330
17
100
AcDbEntity
  8
Y
100
AcDbPolyline
 90
13
 70
1
 10
9530.574100164018
 20
721.6333488441192
 10
9534.834245521337
 20
725.8365415610539
 10
9542.429923465143
 20
718.8975290227066
 10
9542.429923465143
 20
710.6671711276754
 10
9545.760158694035
 20
705.190980651485
 10
9545.760158694035
 20
686.0243139848184
 10
9549.090393922928
 20
680.5481235086278
 10
9549.090393922928
 20
666.7951745405486
 10
9541.546115030867
 20
657.1462946516252
 10
9536.558238218056
 20
657.1462946516252
 10
9534.856650309568
 20
654.348228191329
 10
9530.574100164018
 20
658.573526173417
 10
9530.574100164018
 20
721.6333488441192
  0
LWPOLYLINE
  5
55
330
17
100
AcDbEntity
  8
Y
100
AcDbPolyline
 90
49
 70
1
 10
9387.373985321628
 20
622.9956056862133
 10
9387.373985321628
 20
628.4682753184322
 10
9380.713514863844
 20
639.4206562708131
 10
9380.713514863844
 20
642.1587515089084
 10
9370.722809177165
 20
658.5873229374798
 10
9370.722809177165
 20
664.0635134136702
 10
9369.034696254752
 20
666.8394218024381
 10
9374.939407814207
 20
673.7748660801966
 10
9379.93992834265
 20
673.7748660801966
 10
9388.265516414884
 20
681.9891517944824
 10
9393.25423853093
 20
681.9891517944824
 10
9399.914708988714
 20
690.203437508768
 10
9404.916692559347
 20
690.203437508768
 10
9413.242280631579
 20
698.4177232230537
 10
9416.557317170966
 20
698.4177232230537
 10
9419.006892843863
 20
702.4457699070356
 10
9417.341775229415
 20
713.3981508594165
 10
9423.202478950781
 20
723.0354069980432
 10
9428.201738976857
 20
725.7756438743324
 10
9448.17591853258
 20
753.1466863419906
 10
9463.158828220108
 20
766.8342859153051
 10
9468.163805358636
 20
775.064397680915
 10
9474.909963516528
 20
777.8377188216112
 10
9478.29951654973
 20
775.0508529152735
 10
9486.622234252163
 20
761.3650967192347
 10
9494.947822324395
 20
755.8889062430442
 10
9508.257134512936
 20
734.0032664482325
 10
9523.243193042956
 20
731.2651712101373
 10
9525.778747320679
 20
727.0957425562468
 10
9525.778747320679
 20
655.8492276993845
 10
9523.247348466586
 20
651.6866321638056
 10
9514.911667195867
 20
648.9452175038901
 10
9509.91449238383
 20
643.4670296817752
 10
9499.92378669715
 20
640.7289344436798
 10
9494.929271990028
 20
635.2536627801746
 10
9476.628491469495
 20
629.7821104392633
 10
9469.959863231808
 20
616.0748660801967
 10
9464.95818079686
 20
616.0748660801967
 10
9463.2972237609
 20
613.3436124369738
 10
9441.650694773096
 20
610.6055171988786
 10
9439.971462075562
 20
607.8442113230163
 10
9429.980756388883
 20
610.5823065611115
 10
9428.325593279042
 20
607.860580365911
 10
9420.00000520681
 20
607.860580365911
 10
9418.334887592362
 20
605.1224851278157
 10
9406.679064291238
 20
605.1224851278157
 10
9405.007417988472
 20
602.3736542094043
 10
9397.3986165897
 20
603.763854496949
 10
9387.373985321628
 20
622.9956056862133
  0
LWPOLYLINE
  5
56
330
17
100
AcDbEntity
  8
Y
100
AcDbPolyline
 90
34
 70
1
 10
9426.548022857645
 20
98.5748660801967
 10
9354.91072081374
 20
98.5748660801967
 10
9354.068299878485
 20
111.04224891340084
 10
9373.244445626047
 20
126.123237315341
 10
9377.393641140787
 20
132.94611419939093
 10
9384.043750092736
 20
149.34912816324638
 10
9384.043750092736
 20
154.8338377943422
 10
9387.373985321628
 20
160.31002827053274
 10
9387.373985321628
 20
165.78123394073893
 10
9394.034455779416
 20
179.4717101312152
 10
9394.034455779416
 20
184.96496485193111
 10
9403.249846232442
 20
194.60819941353
 10
9411.674417134578
 20
194.60819941353
 10
9413.339534749022
 20
191.87010417543468
 10
9420.00000520681
 20
191.87010417543468
 10
9423.330240435702
 20
186.39391369924428
 10
9431.655828507934
 20
186.39391369924428
 10
9433.320946122381
 20
183.65581846114895
 10
9439.981416580165
 20
183.65581846114895
 10
9441.651874118763
 20
180.9089423292811
 10
9458.303050263226
 20
178.1708470911859
 10
9461.627945567969
 20
172.70343750876802
 10
9466.510845604358
 20
172.70343750876802
 10
9473.171316062142
 20
183.65581846114895
 10
9478.181867594989
 20
183.65581846114895
 10
9486.50745566722
 20
191.87010417543468
 10
9504.921003543574
 20
191.87010417543468
 10
9508.251238772466
 20
186.39391369924428
 10
9523.237297302485
 20
186.39391369924428
 10
9525.778747320679
 20
182.2147901752945
 10
9525.778747320679
 20
97.27779912795594
 10
9523.236303017193
 20
93.0970406157042
 10
9428.212162181733
 20
95.83837952856786
 10
9426.548022857645
 20
98.5748660801967
  0
LWPOLYLINE
  5
57
330
17
100
AcDbEntity
  8
Y
100
AcDbPolyline
 90
24
 70
1
 10
9402.360043851648
 20
387.52441352095644
 10
9402.360043851648
 20
395.7301800803369
 10
9399.029808622756
 20
401.2063705565274
 10
9399.029808622756
 20
406.6888521475163
 10
9394.034455779416
 20
417.6412330998973
 10
9394.034455779416
 20
425.84922769938447
 10
9390.704220550522
 20
431.325418175575
 10
9390.704220550522
 20
436.80160865176555
 10
9387.373985321628
 20
442.277799127956
 10
9387.373985321628
 20
447.75398960414645
 10
9385.691828312572
 20
450.52010417543477
 10
9388.22992288808
 20
454.69371005813076
 10
9391.600947791569
 20
457.4653422706728
 10
9408.344181905684
 20
457.4653422706728
 10
9410.00929952013
 20
454.7272470325776
 10
9418.334887592362
 20
454.7272470325776
 10
9420.001912118643
 20
451.98601609633994
 10
9468.290322937588
 20
449.2479208582446
 10
9470.82905809142
 20
445.07326161785045
 10
9472.49579819197
 20
387.51723377323856
 10
9469.973928477499
 20
383.37030781654835
 10
9446.623226919823
 20
364.1715304489476
 10
9412.384495664239
 20
362.79831891859857
 10
9402.360043851648
 20
387.52441352095644
  0
ENDSEC
  0
SECTION
  2
OBJECTS
  0
DICTIONARY
  5
A
330
0
100
AcDbDictionary
281
1
  3
ACAD_COLOR
350
B
  3
ACAD_GROUP
350
C
  3
ACAD_LAYOUT
350
D
  3
ACAD_MATERIAL
350
E
  3
ACAD_MLEADERSTYLE
350
F
  3
ACAD_MLINESTYLE
350
10
  3
ACAD_PLOTSETTINGS
350
11
  3
ACAD_PLOTSTYLENAME
350
12
  3
ACAD_SCALELIST
350
14
  3
ACAD_TABLESTYLE
350
15
  3
ACAD_VISUALSTYLE
350
16
  3
EZDXF_META
350
2D
  0
DICTIONARY
  5
B
330
A
100
AcDbDictionary
281
1
  0
DICTIONARY
  5
C
330
A
100
AcDbDictionary
281
1
  0
DICTIONARY
  5
D
330
A
100
AcDbDictionary
281
1
  3
Model
350
1A
  3
Layout1
350
1E
  0
DICTIONARY
  5
E
330
A
100
AcDbDictionary
281
1
  3
ByBlock
350
1F
  3
ByLayer
350
20
  3
Global
350
21
  0
DICTIONARY
  5
F
330
A
100
AcDbDictionary
281
1
  3
Standard
350
2C
  0
DICTIONARY
  5
10
330
A
100
AcDbDictionary
281
1
  3
Standard
350
22
  0
DICTIONARY
  5
11
330
A
100
AcDbDictionary
281
1
  0
ACDBDICTIONARYWDFLT
  5
12
330
A
100
AcDbDictionary
281
1
  3
Normal
350
13
100
AcDbDictionaryWithDefault
340
13
  0
ACDBPLACEHOLDER
  5
13
330
12
  0
DICTIONARY
  5
14
330
A
100
AcDbDictionary
281
1
  0
DICTIONARY
  5
15
330
A
100
AcDbDictionary
281
1
  0
DICTIONARY
  5
16
330
A
100
AcDbDictionary
281
1
  0
LAYOUT
  5
1A
330
D
100
AcDbPlotSettings
  1

  4
A3
  6

 40
7.5
 41
20.0
 42
7.5
 43
20.0
 44
420.0
 45
297.0
 46
0.0
 47
0.0
 48
0.0
 49
0.0
140
0.0
141
0.0
142
1.0
143
1.0
 70
1024
 72
1
 73
0
 74
5
  7

 75
16
 76
0
 77
2
 78
300
147
1.0
148
0.0
149
0.0
100
AcDbLayout
  1
Model
 70
1
 71
0
 10
0.0
 20
0.0
 11
420.0
 21
297.0
 12
0.0
 22
0.0
 32
0.0
 14
1e+20
 24
1e+20
 34
1e+20
 15
-1e+20
 25
-1e+20
 35
-1e+20
146
0.0
 13
0.0
 23
0.0
 33
0.0
 16
1.0
 26
0.0
 36
0.0
 17
0.0
 27
1.0
 37
0.0
 76
1
330
17
  0
LAYOUT
  5
1E
330
D
100
AcDbPlotSettings
  1

  4
A3
  6

 40
7.5
 41
20.0
 42
7.5
 43
20.0
 44
420.0
 45
297.0
 46
0.0
 47
0.0
 48
0.0
 49
0.0
140
0.0
141
0.0
142
1.0
143
1.0
 70
0
 72
1
 73
0
 74
5
  7

 75
16
 76
0
 77
2
 78
300
147
1.0
148
0.0
149
0.0
100
AcDbLayout
  1
Layout1
 70
1
 71
1
 10
0.0
 20
0.0
 11
420.0
 21
297.0
 12
0.0
 22
0.0
 32
0.0
 14
1e+20
 24
1e+20
 34
1e+20
 15
-1e+20
 25
-1e+20
 35
-1e+20
146
0.0
 13
0.0
 23
0.0
 33
0.0
 16
1.0
 26
0.0
 36
0.0
 17
0.0
 27
1.0
 37
0.0
 76
1
330
1B
  0
MATERIAL
  5
1F
102
{ACAD_REACTORS
330
E
102
}
330
E
100
AcDbMaterial
  1
ByBlock
  2

 70
0
 40
1.0
 71
1
 41
1.0
 91
-1023410177
 42
1.0
 72
1
  3

 73
1
 74
1
 75
1
 44
0.5
 73
0
 45
1.0
 46
1.0
 77
1
  4

 78
1
 79
1
170
1
 48
1.0
171
1
  6

172
1
173
1
174
1
140
1.0
141
1.0
175
1
  7

176
1
177
1
178
1
143
1.0
179
1
  8

270
1
271
1
272
1
145
1.0
146
1.0
273
1
  9

274
1
275
1
276
1
 42
1.0
 72
1
  3

 73
1
 74
1
 75
1
 94
63
  0
MATERIAL
  5
20
102
{ACAD_REACTORS
330
E
102
}
330
E
100
AcDbMaterial
  1
ByLayer
  2

 70
0
 40
1.0
 71
1
 41
1.0
 91
-1023410177
 42
1.0
 72
1
  3

 73
1
 74
1
 75
1
 44
0.5
 73
0
 45
1.0
 46
1.0
 77
1
  4

 78
1
 79
1
170
1
 48
1.0
171
1
  6

172
1
173
1
174
1
140
1.0
141
1.0
175
1
  7

176
1
177
1
178
1
143
1.0
179
1
  8

270
1
271
1
272
1
145
1.0
146
1.0
273
1
  9

274
1
275
1
276
1
 42
1.0
 72
1
  3

 73
1
 74
1
 75
1
 94
63
  0
MATERIAL
  5
21
102
{ACAD_REACTORS
330
E
102
}
330
E
100
AcDbMaterial
  1
Global
  2

 70
0
 40
1.0
 71
1
 41
1.0
 91
-1023410177
 42
1.0
 72
1
  3

 73
1
 74
1
 75
1
 44
0.5
 73
0
 45
1.0
 46
1.0
 77
1
  4

 78
1
 79
1
170
1
 48
1.0
171
1
  6

172
1
173
1
174
1
140
1.0
141
1.0
175
1
  7

176
1
177
1
178
1
143
1.0
179
1
  8

270
1
271
1
272
1
145
1.0
146
1.0
273
1
  9

274
1
275
1
276
1
 42
1.0
 72
1
  3

 73
1
 74
1
 75
1
 94
63
  0
MLINESTYLE
  5
22
102
{ACAD_REACTORS
330
10
102
}
330
10
100
AcDbMlineStyle
  2
Standard
 70
0
  3

 62
256
 51
90.0
 52
90.0
 71
2
 49
0.5
 62
256
  6
BYLAYER
 49
-0.5
 62
256
  6
BYLAYER
  0
MLEADERSTYLE
  5
2C
102
{ACAD_REACTORS
330
F
102
}
330
F
100
AcDbMLeaderStyle
179
2
170
2
171
1
172
0
 90
2
 40
0.0
 41
0.0
173
1
 91
-1056964608
 92
-2
290
1
 42
2.0
291
1
 43
8.0
  3
Standard
 44
4.0
300

342
29
174
1
175
1
176
0
178
1
 93
-1056964608
 45
4.0
292
0
297
0
 46
4.0
 94
-1056964608
 47
1.0
 49
1.0
140
1.0
294
1
141
0.0
177
0
142
1.0
295
0
296
0
143
3.75
271
0
272
9
273
9
  0
DICTIONARY
  5
2D
330
A
100
AcDbDictionary
280
1
281
1
  3
CREATED_BY_EZDXF
350
2E
  3
WRITTEN_BY_EZDXF
350
5A
  0
DICTIONARYVAR
  5
2E
330
2D
100
DictionaryVariables
280
0
  1
1.4.4 @ 2026-07-14T08:49:52.844426+00:00
  0
DICTIONARYVAR
  5
5A
330
2D
100
DictionaryVariables
280
0
  1
1.4.4 @ 2026-07-14T08:49:52.858045+00:00
  0
ENDSEC
  0
EOF
