  0
SECTION
  2
HEADER
  9
$ACADVER
  1
AC1027
  9
$ACADMAINTVER
 70
105
  9
$DWGCODEPAGE
  3
ANSI_1252
  9
$LASTSAVEDBY
  1
ezdxf
  9
$REQUIREDVERSIONS
160
0
  9
$INSBASE
 10
0.0
 20
0.0
 30
0.0
  9
$EXTMIN
 10
1e+20
 20
1e+20
 30
1e+20
  9
$EXTMAX
 10
-1e+20
 20
-1e+20
 30
-1e+20
  9
$LIMMIN
 10
0.0
 20
0.0
  9
$LIMMAX
 10
420.0
 20
297.0
  9
$ORTHOMODE
 70
0
  9
$REGENMODE
 70
1
  9
$FILLMODE
 70
1
  9
$QTEXTMODE
 70
0
  9
$MIRRTEXT
 70
1
  9
$LTSCALE
 40
1.0
  9
$ATTMODE
 70
1
  9
$TEXTSIZE
 40
2.5
  9
$TRACEWID
 40
1.0
  9
$TEXTSTYLE
  7
Standard
  9
$CLAYER
  8
0
  9
$CELTYPE
  6
ByLayer
  9
$CECOLOR
 62
256
  9
$CELTSCALE
 40
1.0
  9
$DISPSILH
 70
0
  9
$DIMSCALE
 40
1.0
  9
$DIMASZ
 40
2.5
  9
$DIMEXO
 40
0.625
  9
$DIMDLI
 40
3.75
  9
$DIMRND
 40
0.0
  9
$DIMDLE
 40
0.0
  9
$DIMEXE
 40
1.25
  9
$DIMTP
 40
0.0
  9
$DIMTM
 40
0.0
  9
$DIMTXT
 40
2.5
  9
$DIMCEN
 40
2.5
  9
$DIMTSZ
 40
0.0
  9
$DIMTOL
 70
0
  9
$DIMLIM
 70
0
  9
$DIMTIH
 70
0
  9
$DIMTOH
 70
0
  9
$DIMSE1
 70
0
  9
$DIMSE2
 70
0
  9
$DIMTAD
 70
1
  9
$DIMZIN
 70
8
  9
$DIMBLK
  1

  9
$DIMASO
 70
1
  9
$DIMSHO
 70
1
  9
$DIMPOST
  1

  9
$DIMAPOST
  1

  9
$DIMALT
 70
0
  9
$DIMALTD
 70
3
  9
$DIMALTF
 40
0.03937007874
  9
$DIMLFAC
 40
1.0
  9
$DIMTOFL
 70
1
  9
$DIMTVP
 40
0.0
  9
$DIMTIX
 70
0
  9
$DIMSOXD
 70
0
  9
$DIMSAH
 70
0
  9
$DIMBLK1
  1

  9
$DIMBLK2
  1

  9
$DIMSTYLE
  2
ISO-25
  9
$DIMCLRD
 70
0
  9
$DIMCLRE
 70
0
  9
$DIMCLRT
 70
0
  9
$DIMTFAC
 40
1.0
  9
$DIMGAP
 40
0.625
  9
$DIMJUST
 70
0
  9
$DIMSD1
 70
0
  9
$DIMSD2
 70
0
  9
$DIMTOLJ
 70
0
  9
$DIMTZIN
 70
8
  9
$DIMALTZ
 70
0
  9
$DIMALTTZ
 70
0
  9
$DIMUPT
 70
0
  9
$DIMDEC
 70
2
  9
$DIMTDEC
 70
2
  9
$DIMALTU
 70
2
  9
$DIMALTTD
 70
3
  9
$DIMTXSTY
  7
Standard
  9
$DIMAUNIT
 70
0
  9
$DIMADEC
 70
0
  9
$DIMALTRND
 40
0.0
  9
$DIMAZIN
 70
0
  9
$DIMDSEP
 70
44
  9
$DIMATFIT
 70
3
  9
$DIMFRAC
 70
0
  9
$DIMLDRBLK
  1

  9
$DIMLUNIT
 70
2
  9
$DIMLWD
 70
-2
  9
$DIMLWE
 70
-2
  9
$DIMTMOVE
 70
0
  9
$DIMFXL
 40
1.0
  9
$DIMFXLON
 70
0
  9
$DIMJOGANG
 40
0.785398163397
  9
$DIMTFILL
 70
0
  9
$DIMTFILLCLR
 70
0
  9
$DIMARCSYM
 70
0
  9
$DIMLTYPE
  6

  9
$DIMLTEX1
  6

  9
$DIMLTEX2
  6

  9
$DIMTXTDIRECTION
 70
0
  9
$LUNITS
 70
2
  9
$LUPREC
 70
4
  9
$SKETCHINC
 40
1.0
  9
$FILLETRAD
 40
10.0
  9
$AUNITS
 70
0
  9
$AUPREC
 70
2
  9
$MENU
  1
.
  9
$ELEVATION
 40
0.0
  9
$PELEVATION
 40
0.0
  9
$THICKNESS
 40
0.0
  9
$LIMCHECK
 70
0
  9
$CHAMFERA
 40
0.0
  9
$CHAMFERB
 40
0.0
  9
$CHAMFERC
 40
0.0
  9
$CHAMFERD
 40
0.0
  9
$SKPOLY
 70
0
  9
$TDCREATE
 40
2461239.645972222
  9
$TDUCREATE
 40
2458532.153996898
  9
$TDUPDATE
 40
2461239.645972222
  9
$TDUUPDATE
 40
2458532.1544311
  9
$TDINDWG
 40
0.0
  9
$TDUSRTIMER
 40
0.0
  9
$USRTIMER
 70
1
  9
$ANGBASE
 50
0.0
  9
$ANGDIR
 70
0
  9
$PDMODE
 70
0
  9
$PDSIZE
 40
0.0
  9
$PLINEWID
 40
0.0
  9
$SPLFRAME
 70
0
  9
$SPLINETYPE
 70
6
  9
$SPLINESEGS
 70
8
  9
$HANDSEED
  5
71
  9
$SURFTAB1
 70
6
  9
$SURFTAB2
 70
6
  9
$SURFTYPE
 70
6
  9
$SURFU
 70
6
  9
$SURFV
 70
6
  9
$UCSBASE
  2

  9
$UCSNAME
  2

  9
$UCSORG
 10
0.0
 20
0.0
 30
0.0
  9
$UCSXDIR
 10
1.0
 20
0.0
 30
0.0
  9
$UCSYDIR
 10
0.0
 20
1.0
 30
0.0
  9
$UCSORTHOREF
  2

  9
$UCSORTHOVIEW
 70
0
  9
$UCSORGTOP
 10
0.0
 20
0.0
 30
0.0
  9
$UCSORGBOTTOM
 10
0.0
 20
0.0
 30
0.0
  9
$UCSORGLEFT
 10
0.0
 20
0.0
 30
0.0
  9
$UCSORGRIGHT
 10
0.0
 20
0.0
 30
0.0
  9
$UCSORGFRONT
 10
0.0
 20
0.0
 30
0.0
  9
$UCSORGBACK
 10
0.0
 20
0.0
 30
0.0
  9
$PUCSBASE
  2

  9
$PUCSNAME
  2

  9
$PUCSORG
 10
0.0
 20
0.0
 30
0.0
  9
$PUCSXDIR
 10
1.0
 20
0.0
 30
0.0
  9
$PUCSYDIR
 10
0.0
 20
1.0
 30
0.0
  9
$PUCSORTHOREF
  2

  9
$PUCSORTHOVIEW
 70
0
  9
$PUCSORGTOP
 10
0.0
 20
0.0
 30
0.0
  9
$PUCSORGBOTTOM
 10
0.0
 20
0.0
 30
0.0
  9
$PUCSORGLEFT
 10
0.0
 20
0.0
 30
0.0
  9
$PUCSORGRIGHT
 10
0.0
 20
0.0
 30
0.0
  9
$PUCSORGFRONT
 10
0.0
 20
0.0
 30
0.0
  9
$PUCSORGBACK
 10
0.0
 20
0.0
 30
0.0
  9
$USERI1
 70
0
  9
$USERI2
 70
0
  9
$USERI3
 70
0
  9
$USERI4
 70
0
  9
$USERI5
 70
0
  9
$USERR1
 40
0.0
  9
$USERR2
 40
0.0
  9
$USERR3
 40
0.0
  9
$USERR4
 40
0.0
  9
$USERR5
 40
0.0
  9
$WORLDVIEW
 70
1
  9
$SHADEDGE
 70
3
  9
$SHADEDIF
 70
70
  9
$TILEMODE
 70
1
  9
$MAXACTVP
 70
64
  9
$PINSBASE
 10
0.0
 20
0.0
 30
0.0
  9
$PLIMCHECK
 70
0
  9
$PEXTMIN
 10
1e+20
 20
1e+20
 30
1e+20
  9
$PEXTMAX
 10
-1e+20
 20
-1e+20
 30
-1e+20
  9
$PLIMMIN
 10
0.0
 20
0.0
  9
$PLIMMAX
 10
420.0
 20
297.0
  9
$UNITMODE
 70
0
  9
$VISRETAIN
 70
1
  9
$PLINEGEN
 70
0
  9
$PSLTSCALE
 70
1
  9
$TREEDEPTH
 70
3020
  9
$CMLSTYLE
  2
Standard
  9
$CMLJUST
 70
0
  9
$CMLSCALE
 40
20.0
  9
$PROXYGRAPHICS
 70
1
  9
$MEASUREMENT
 70
1
  9
$CELWEIGHT
370
-1
  9
$ENDCAPS
280
0
  9
$JOINSTYLE
280
0
  9
$LWDISPLAY
290
0
  9
$INSUNITS
 70
4
  9
$HYPERLINKBASE
  1

  9
$STYLESHEET
  1

  9
$XEDIT
290
1
  9
$CEPSNTYPE
380
0
  9
$PSTYLEMODE
290
1
  9
$FINGERPRINTGUID
  2
{B9AA9D57-FCF3-48AA-A91B-D07F1C3895DC}
  9
$VERSIONGUID
  2
{A6AD8AD3-EB88-47AB-B34B-2DE636C11A89}
  9
$EXTNAMES
290
1
  9
$PSVPSCALE
 40
0.0
  9
$OLESTARTUP
290
0
  9
$SORTENTS
280
127
  9
$INDEXCTL
280
0
  9
$HIDETEXT
280
1
  9
$XCLIPFRAME
280
1
  9
$HALOGAP
280
0
  9
$OBSCOLOR
 70
257
  9
$OBSLTYPE
280
0
  9
$INTERSECTIONDISPLAY
280
0
  9
$INTERSECTIONCOLOR
 70
257
  9
$DIMASSOC
280
2
  9
$PROJECTNAME
  1

  9
$CAMERADISPLAY
290
0
  9
$LENSLENGTH
 40
50.0
  9
$CAMERAHEIGHT
 40
0.0
  9
$STEPSPERSEC
 40
24.0
  9
$STEPSIZE
 40
100.0
  9
$3DDWFPREC
 40
2.0
  9
$PSOLWIDTH
 40
0.005
  9
$PSOLHEIGHT
 40
0.08
  9
$LOFTANG1
 40
1.570796326795
  9
$LOFTANG2
 40
1.570796326795
  9
$LOFTMAG1
 40
0.0
  9
$LOFTMAG2
 40
0.0
  9
$LOFTPARAM
 70
7
  9
$LOFTNORMALS
280
1
  9
$LATITUDE
 40
37.795
  9
$LONGITUDE
 40
-122.394
  9
$NORTHDIRECTION
 40
0.0
  9
$TIMEZONE
 70
-8000
  9
$LIGHTGLYPHDISPLAY
280
1
  9
$TILEMODELIGHTSYNCH
280
1
  9
$CMATERIAL
347
20
  9
$SOLIDHIST
280
0
  9
$SHOWHIST
280
1
  9
$DWFFRAME
280
2
  9
$DGNFRAME
280
2
  9
$REALWORLDSCALE
290
1
  9
$INTERFERECOLOR
 62
256
  9
$CSHADOW
280
0
  9
$SHADOWPLANELOCATION
 40
0.0
  0
ENDSEC
  0
SECTION
  2
CLASSES
  0
CLASS
  1
ACDBDICTIONARYWDFLT
  2
AcDbDictionaryWithDefault
  3
ObjectDBX Classes
 90
0
 91
0
280
0
281
0
  0
CLASS
  1
SUN
  2
AcDbSun
  3
SCENEOE
 90
1153
 91
0
280
0
281
0
  0
CLASS
  1
VISUALSTYLE
  2
AcDbVisualStyle
  3
ObjectDBX Classes
 90
4095
 91
0
280
0
281
0
  0
CLASS
  1
MATERIAL
  2
AcDbMaterial
  3
ObjectDBX Classes
 90
1153
 91
0
280
0
281
0
  0
CLASS
  1
SCALE
  2
AcDbScale
  3
ObjectDBX Classes
 90
1153
 91
0
280
0
281
0
  0
CLASS
  1
TABLESTYLE
  2
AcDbTableStyle
  3
ObjectDBX Classes
 90
4095
 91
0
280
0
281
0
  0
CLASS
  1
MLEADERSTYLE
  2
AcDbMLeaderStyle
  3
ACDB_MLEADERSTYLE_CLASS
 90
4095
 91
0
280
0
281
0
  0
CLASS
  1
DICTIONARYVAR
  2
AcDbDictionaryVar
  3
ObjectDBX Classes
 90
0
 91
0
280
0
281
0
  0
CLASS
  1
CELLSTYLEMAP
  2
AcDbCellStyleMap
  3
ObjectDBX Classes
 90
1152
 91
0
280
0
281
0
  0
CLASS
  1
MENTALRAYRENDERSETTINGS
  2
AcDbMentalRayRenderSettings
  3
SCENEOE
 90
1024
 91
0
280
0
281
0
  0
CLASS
  1
ACDBDETAILVIEWSTYLE
  2
AcDbDetailViewStyle
  3
ObjectDBX Classes
 90
1025
 91
0
280
0
281
0
  0
CLASS
  1
ACDBSECTIONVIEWSTYLE
  2
AcDbSectionViewStyle
  3
ObjectDBX Classes
 90
1025
 91
0
280
0
281
0
  0
CLASS
  1
RASTERVARIABLES
  2
AcDbRasterVariables
  3
ISM
 90
0
 91
0
280
0
281
0
  0
CLASS
  1
LAYOUT
  2
AcDbLayout
  3
ObjectDBX Classes
 90
0
 91
0
280
0
281
0
  0
CLASS
  1
ACDBPLACEHOLDER
  2
AcDbPlaceHolder
  3
ObjectDBX Classes
 90
0
 91
0
280
0
281
0
  0
ENDSEC
  0
SECTION
  2
TABLES
  0
TABLE
  2
VPORT
  5
8
330
0
100
AcDbSymbolTable
 70
1
  0
VPORT
  5
23
330
8
100
AcDbSymbolTableRecord
100
AcDbViewportTableRecord
  2
*Active
 70
0
 10
0.0
 20
0.0
 11
1.0
 21
1.0
 12
0.0
 22
0.0
 13
0.0
 23
0.0
 14
0.5
 24
0.5
 15
0.5
 25
0.5
 16
0.0
 26
0.0
 36
1.0
 17
0.0
 27
0.0
 37
0.0
 40
1000.0
 41
1.34
 42
50.0
 43
0.0
 44
0.0
 50
0.0
 51
0.0
 71
0
 72
1000
 73
1
 74
3
 75
0
 76
0
 77
0
 78
0
281
0
 65
0
146
0.0
  0
ENDTAB
  0
TABLE
  2
LTYPE
  5
2
330
0
100
AcDbSymbolTable
 70
3
  0
LTYPE
  5
24
330
2
100
AcDbSymbolTableRecord
100
AcDbLinetypeTableRecord
  2
ByBlock
 70
0
  3

 72
65
 73
0
 40
0.0
  0
LTYPE
  5
25
330
2
100
AcDbSymbolTableRecord
100
AcDbLinetypeTableRecord
  2
ByLayer
 70
0
  3

 72
65
 73
0
 40
0.0
  0
LTYPE
  5
26
330
2
100
AcDbSymbolTableRecord
100
AcDbLinetypeTableRecord
  2
Continuous
 70
0
  3

 72
65
 73
0
 40
0.0
  0
ENDTAB
  0
TABLE
  2
LAYER
  5
1
330
0
100
AcDbSymbolTable
 70
3
  0
LAYER
  5
27
330
1
100
AcDbSymbolTableRecord
100
AcDbLayerTableRecord
  2
0
 70
0
 62
7
  6
Continuous
370
-3
390
13
347
21
  0
LAYER
  5
28
330
1
100
AcDbSymbolTableRecord
100
AcDbLayerTableRecord
  2
Defpoints
 70
0
 62
7
  6
Continuous
290
0
370
-3
390
13
347
21
  0
LAYER
  5
2F
330
1
100
AcDbSymbolTableRecord
100
AcDbLayerTableRecord
  2
M
 70
0
 62
7
  6
Continuous
370
-3
390
13
347
21
  0
ENDTAB
  0
TABLE
  2
STYLE
  5
5
330
0
100
AcDbSymbolTable
 70
1
  0
STYLE
  5
29
330
5
100
AcDbSymbolTableRecord
100
AcDbTextStyleTableRecord
  2
Standard
 70
0
 40
0.0
 41
1.0
 50
0.0
 71
0
 42
2.5
  3
txt
  4

  0
ENDTAB
  0
TABLE
  2
VIEW
  5
7
330
0
100
AcDbSymbolTable
 70
0
  0
ENDTAB
  0
TABLE
  2
UCS
  5
6
330
0
100
AcDbSymbolTable
 70
0
  0
ENDTAB
  0
TABLE
  2
APPID
  5
3
330
0
100
AcDbSymbolTable
 70
3
  0
APPID
  5
2A
330
3
100
AcDbSymbolTableRecord
100
AcDbRegAppTableRecord
  2
ACAD
 70
0
  0
APPID
  5
6E
330
3
100
AcDbSymbolTableRecord
100
AcDbRegAppTableRecord
  2
HATCHBACKGROUNDCOLOR
 70
0
  0
APPID
  5
6F
330
3
100
AcDbSymbolTableRecord
100
AcDbRegAppTableRecord
  2
EZDXF
 70
0
  0
ENDTAB
  0
TABLE
  2
DIMSTYLE
  5
4
330
0
100
AcDbSymbolTable
 70
1
100
AcDbDimStyleTable
  0
DIMSTYLE
105
2B
330
4
100
AcDbSymbolTableRecord
100
AcDbDimStyleTableRecord
  2
Standard
 70
0
 40
1.0
 41
2.5
 42
0.625
 43
3.75
 44
1.25
 45
0.0
 46
0.0
 47
0.0
 48
0.0
 49
2.5
140
2.5
141
2.5
142
0.0
143
0.03937007874
144
1.0
145
0.0
146
1.0
147
0.625
148
0.0
 69
0
 70
0
 71
0
 72
0
 73
0
 74
0
 75
0
 76
0
 77
1
 78
8
 79
3
170
0
171
3
172
1
173
0
174
0
175
0
176
0
177
0
178
0
179
2
271
2
272
2
273
2
274
3
275
0
276
0
277
2
278
44
279
0
280
0
281
0
282
0
283
0
284
8
285
0
286
0
288
0
289
3
290
0
371
-2
372
-2
  0
ENDTAB
  0
TABLE
  2
BLOCK_RECORD
  5
9
330
0
100
AcDbSymbolTable
 70
2
  0
BLOCK_RECORD
  5
17
330
9
100
AcDbSymbolTableRecord
100
AcDbBlockTableRecord
  2
*Model_Space
340
1A
 70
0
280
1
281
0
  0
BLOCK_RECORD
  5
1B
330
9
100
AcDbSymbolTableRecord
100
AcDbBlockTableRecord
  2
*Paper_Space
340
1E
 70
0
280
1
281
0
  0
ENDTAB
  0
ENDSEC
  0
SECTION
  2
BLOCKS
  0
BLOCK
  5
18
330
17
100
AcDbEntity
  8
0
100
AcDbBlockBegin
  2
*Model_Space
 70
0
 10
0.0
 20
0.0
 30
0.0
  3
*Model_Space
  1

  0
ENDBLK
  5
19
330
17
100
AcDbEntity
  8
0
100
AcDbBlockEnd
  0
BLOCK
  5
1C
330
1B
100
AcDbEntity
  8
0
100
AcDbBlockBegin
  2
*Paper_Space
 70
0
 10
0.0
 20
0.0
 30
0.0
  3
*Paper_Space
  1

  0
ENDBLK
  5
1D
330
1B
100
AcDbEntity
  8
0
100
AcDbBlockEnd
  0
ENDSEC
  0
SECTION
  2
ENTITIES
  0
LWPOLYLINE
  5
30
330
17
100
AcDbEntity
  8
M
100
AcDbPolyline
 90
35
 70
1
 10
48.98424406704205
 20
237.8682072349111
 10
46.81479576026737
 20
238.59135667050256
 10
46.09836763745933
 20
240.0242129161193
 10
41.098367637459
 20
242.16707005897652
 10
40.382607257893
 20
243.5985908181092
 10
36.09689297217855
 20
245.7414479609664
 10
35.38408192317321
 20
247.16707005897644
 10
30.384081923173323
 20
249.30992720183366
 10
29.671938617410465
 20
250.73421381335982
 10
28.600510045981853
 20
251.09135667050253
 10
27.835466805813613
 20
252.62144315083856
 10
28.57142857142847
 20
253.35740491645342
 10
28.57142857142847
 20
260.4865390995684
 10
29.67443995836838
 20
262.324891411135
 10
36.866456045357765
 20
265.2016978459307
 10
40.415721500905555
 20
265.2016978459307
 10
41.125959015844145
 20
265.9119353608691
 10
48.279545209042766
 20
266.62729398018894
 10
50.4268652933697
 20
268.0588407030734
 10
52.558578643762566
 20
268.0588407030734
 10
53.268816158701604
 20
268.769078218012
 10
60.41167330155872
 20
269.48336393229766
 10
61.130007215191014
 20
270.2016978459306
 10
64.00496463082162
 20
270.2016978459306
 10
65.46627329650522
 20
270.9323521787724
 10
68.03547786353681
 20
269.097206059464
 10
68.77860676168757
 20
267.6109482631633
 10
66.62187399298114
 20
260.42183903414275
 10
63.04255305376793
 20
253.26319715571654
 10
60.908916339935004
 20
250.4183482039396
 10
60.19580086909792
 20
246.13965537891625
 10
56.622388682999954
 20
239.70751344394003
 10
55.902370123469765
 20
236.82743920581885
 10
53.31624473798557
 20
234.98020678761554
 10
48.98424406704205
 20
237.8682072349111
  0
LWPOLYLINE
  5
31
330
17
100
AcDbEntity
  8
M
100
AcDbPolyline
 90
26
 70
1
 10
11.841739636007098
 20
47.14710828225777
 10
11.130007215191196
 20
47.85884070307345
 10
1.858015889219633
 20
47.85884070307345
 10
0.0
 20
48.97365023660538
 10
0.0
 20
70.48911826684656
 10
1.435758229055839
 20
72.64275561043054
 10
2.1500439433412843
 20
75.49989846757343
 10
5.007186800484398
 20
79.78561275328767
 10
5.725643657803925
 20
82.65944018256732
 10
8.991834873766091
 20
85.19981112831543
 10
21.906682839915703
 20
85.91730268199049
 10
23.383781272807713
 20
85.17875346554426
 10
25.907364152926604
 20
81.21312322535779
 10
26.621384628087164
 20
78.35704132471622
 10
29.478527485229833
 20
74.07132703900187
 10
30.192813199515722
 20
71.21418418185898
 10
33.04995605665839
 20
66.92846989614476
 10
33.76354503238943
 20
64.07411399322083
 10
35.9228439447663
 20
61.19504877671855
 10
35.18763765601385
 20
58.2542236217104
 10
33.034709173568544
 20
56.818937966746866
 10
31.60898307088633
 20
53.96748576138211
 10
26.602879610585717
 20
49.67653993826704
 10
24.8097939278189
 20
47.1662199823939
 10
23.33492265070891
 20
46.4287843438389
 10
11.841739636007098
 20
47.14710828225777
  0
LWPOLYLINE
  5
32
330
17
100
AcDbEntity
  8
M
100
AcDbPolyline
 90
35
 70
1
 10
454.3016959756416
 20
181.10895358155855
 10
453.5840253665384
 20
183.2619654088691
 10
452.15763255344353
 20
184.6883582219636
 10
449.30440163234573
 20
191.8214355247082
 10
447.165290826431
 20
193.24750939531833
 10
444.29028256784477
 20
198.99752591249074
 10
443.565582878398
 20
202.62102435972318
 10
447.17296966670574
 20
208.3928432210157
 10
448.59270115068693
 20
209.1027089630063
 10
450.01694367317134
 20
212.66331526921633
 10
453.5918083105939
 20
215.5232069791544
 10
455.7142857142851
 20
219.76816178653758
 10
455.7142857142851
 20
221.91444704577955
 10
460.7195000942612
 20
230.49481455430941
 10
461.43313971070165
 20
234.0630126365134
 10
465.023580171533
 20
241.24389355817587
 10
466.8580158892195
 20
242.34455498878782
 10
470.48074965489263
 20
242.34455498878782
 10
473.3850528551029
 20
240.89240338868245
 10
474.4791194997431
 20
239.06895898094905
 10
475.907098913801
 20
233.35704132471625
 10
477.3379679626921
 20
231.21073775138
 10
478.0517734827918
 20
226.92790463077895
 10
480.1879356345915
 20
224.07968842837965
 10
481.62587110431065
 20
220.48484975408178
 10
482.34665102900556
 20
215.43939028121883
 10
475.91693329951215
 20
204.0087809843424
 10
476.63095429189275
 20
196.86857106053824
 10
475.19543171786927
 20
193.99752591249074
 10
473.75944090878
 20
186.81757186704485
 10
469.76451806232865
 20
185.0016978459307
 10
468.339497472289
 20
185.0016978459307
 10
459.0603210948694
 20
180.00521825808934
 10
456.50489110214386
 20
179.64015683055723
 10
454.3016959756416
 20
181.10895358155855
  0
LWPOLYLINE
  5
33
330
17
100
AcDbEntity
  8
M
100
AcDbPolyline
 90
44
 70
1
 10
397.14285714285677
 20
135.50026205931064
 10
397.85714285714266
 20
136.2145477735963
 10
397.85714285714266
 20
139.04952751485865
 10
399.285714285714
 20
142.6209560862872
 10
399.285714285714
 20
144.78597634502478
 10
400.00502794020053
 20
145.50528999951163
 10
400.7164555662737
 20
151.19671100809373
 10
403.5880538375567
 20
159.09360625412285
 10
406.1393820660877
 20
160.9159835602164
 10
407.5723016035053
 20
160.9159835602164
 10
411.14373017493386
 20
163.0588407030735
 10
412.5723016035052
 20
163.0588407030735
 10
416.1437301749338
 20
165.20169784593065
 10
417.57639320225024
 20
165.20169784593065
 10
421.8093275088921
 20
167.31816499925156
 10
423.5914868493511
 20
171.23891554826164
 10
426.1393820660877
 20
173.05884070307354
 10
438.3378925120356
 20
173.05884070307354
 10
439.8136242836745
 20
172.32097481725395
 10
440.9142857142858
 20
170.48653909956823
 10
440.9142857142858
 20
166.14951961960955
 10
438.78323197030335
 20
161.88741213164494
 10
440.2118033988747
 20
159.03026927450205
 10
438.7503140096287
 20
156.10729049600945
 10
435.8857142857144
 20
153.95884070307363
 10
433.7568387680535
 20
151.12034001285934
 10
432.3645331941863
 20
148.33572886512448
 10
433.0571428571428
 20
147.64311920216755
 10
433.0571428571428
 20
145.43523390532377
 10
432.3192769713238
 20
143.95950213368525
 10
430.4848412536373
 20
142.85884070307353
 10
426.9159918494871
 20
142.85884070307353
 10
424.7731347066299
 20
141.43026927450208
 10
421.90624005590973
 20
141.43026927450208
 10
416.9062400559098
 20
139.28741213164497
 10
415.48074965489246
 20
139.28741213164497
 10
411.23990273632717
 20
137.16698867236232
 10
409.8088337497936
 20
135.02038519256266
 10
406.2346036112752
 20
133.59069313715523
 10
404.09440734992154
 20
130.73709812201673
 10
401.1791015436712
 20
129.27944521889157
 10
397.8862243316961
 20
130.37707095621664
 10
397.14285714285677
 20
131.8638053338952
 10
397.14285714285677
 20
135.50026205931064
  0
LWPOLYLINE
  5
34
330
17
100
AcDbEntity
  8
M
100
AcDbPolyline
 90
27
 70
1
 10
423.98442923530587
 20
266.43299011153067
 10
423.27286435804854
 20
267.1445549887878
 10
417.55857864376236
 20
267.1445549887878
 10
416.84429292947686
 20
267.85884070307344
 10
409.7014357866193
 20
267.85884070307344
 10
408.98715007233386
 20
268.57312641735933
 10
406.1437301749335
 20
268.57312641735933
 10
404.3025439823307
 20
269.67783813292135
 10
403.5570162908644
 20
271.91442120731847
 10
404.28571428571394
 20
272.64311920216755
 10
404.28571428571394
 20
276.928833487882
 10
405.00404819934755
 20
277.6471674015154
 10
405.7172610085988
 20
284.77929549403126
 10
407.1464130954867
 20
286.92302362436305
 10
408.2255682877891
 20
295.91598356021643
 10
421.9049725260708
 20
295.91598356021643
 10
425.5295825456473
 20
294.46613955238564
 10
426.24784839989485
 20
293.02960784389023
 10
428.03529403312757
 20
291.95714046395085
 10
431.62240904400437
 20
284.0654874400218
 10
433.76361566370923
 20
276.92813204100565
 10
435.91428571428594
 20
273.34368195671135
 10
435.91428571428594
 20
271.2034039811323
 10
437.35319166058815
 20
269.0450450616785
 10
436.6117417319546
 20
266.82069527577846
 10
434.7674527359184
 20
265.71412187815656
 10
423.98442923530587
 20
266.43299011153067
  0
LWPOLYLINE
  5
35
330
17
100
AcDbEntity
  8
M
100
AcDbPolyline
 90
16
 70
1
 10
402.1428571428567
 20
199.72094819103813
 10
402.1428571428567
 20
219.7722533852827
 10
403.24351857346795
 20
221.60668910296832
 10
404.7192503451069
 20
222.3445549887878
 10
407.55857864376253
 20
222.3445549887878
 10
408.27014352101986
 20
223.0561198660449
 10
418.9844292353055
 20
223.77040558033056
 10
419.70143578662
 20
224.48741213164502
 10
422.6276983964943
 20
224.48741213164502
 10
424.46213411418074
 20
223.3867507010331
 10
425.1999999999998
 20
221.91101892939457
 10
425.1999999999998
 20
196.85171579382776
 10
421.9495660473269
 20
192.8789631850051
 10
420.4641752801046
 20
192.1362678013937
 10
402.88590567075033
 20
198.2348511352513
 10
402.1428571428567
 20
199.72094819103813
  0
LWPOLYLINE
  5
36
330
17
100
AcDbEntity
  8
M
100
AcDbPolyline
 90
14
 70
1
 10
395.02546440074934
 20
7.52716224668093
 10
393.5714285714282
 20
10.435233905323749
 10
393.5714285714282
 20
12.633744351270959
 10
395.40568106761367
 20
15.201697845930617
 10
396.1338550598179
 20
15.201697845930617
 10
401.87748177967507
 20
20.227371225805534
 10
410.5246802652731
 20
14.462572235406924
 10
414.0971603779606
 20
10.175596100181483
 10
416.60690643496514
 20
8.38292034517818
 10
417.34027595943735
 20
6.916181296234281
 10
418.0688693586774
 20
0.3588407030734597
 10
399.3207269768053
 20
0.3588407030734597
 10
396.45176111647373
 20
6.8140138888187485
 10
395.02546440074934
 20
7.52716224668093
  0
LWPOLYLINE
  5
37
330
17
100
AcDbEntity
  8
M
100
AcDbPolyline
 90
33
 70
1
 10
388.27286435804797
 20
164.287412131645
 10
386.1300072151912
 20
164.287412131645
 10
385.4157215009053
 20
165.00169784593066
 10
382.58074175964293
 20
165.00169784593066
 10
379.009313188214
 20
166.4302692745021
 10
376.8621074879648
 20
166.4302692745021
 10
374.0049646308217
 20
167.85884070307355
 10
372.6302775637729
 20
167.85884070307355
 10
370.46754085544984
 20
166.41701623085802
 10
367.8694010962387
 20
167.53050469909127
 10
367.13430325825766
 20
171.20599388899714
 10
367.85714285714243
 20
171.928833487882
 10
367.85714285714243
 20
177.62530464368032
 10
369.30929445724735
 20
180.52960784389026
 10
371.15313026189733
 20
181.63590932668018
 10
374.7245588333259
 20
180.9216236123944
 10
376.4465563923447
 20
181.95482214780577
 10
379.66232858377236
 20
190.8875226795488
 10
381.14782177367834
 20
191.6302692745021
 10
386.84429292947664
 20
191.6302692745021
 10
387.55857864376253
 20
192.34455498878776
 10
389.7705555393518
 20
192.34455498878776
 10
391.61349352322674
 20
191.2387921984625
 10
395.19232836909833
 20
179.07075372249938
 10
397.33626235688615
 20
175.49753040952032
 10
398.7617249735367
 20
169.79567994291668
 10
399.48571428571444
 20
169.0716906307391
 10
399.48571428571444
 20
166.91101892939463
 10
400.92827803998875
 20
164.02589142084568
 10
399.8058466925545
 20
162.15517250845545
 10
397.9571428571429
 20
161.78543174137306
 10
388.97927022111435
 20
163.58100626857873
 10
388.27286435804797
 20
164.287412131645
  0
LWPOLYLINE
  5
38
330
17
100
AcDbEntity
  8
M
100
AcDbPolyline
 90
17
 70
1
 10
872.5701189489936
 20
180.71729315292308
 10
870.7273176187955
 20
181.8229739510422
 10
869.9922567043023
 20
184.76321760901493
 10
872.8684452133477
 20
189.07750037258276
 10
875.3807657755874
 20
195.17885030945138
 10
882.5807417596427
 20
198.05884070307357
 10
883.9982938647981
 20
198.05884070307357
 10
886.1411510076554
 20
199.4874121316449
 10
890.4335360593928
 20
199.4874121316449
 10
893.3186635679419
 20
200.92997588591933
 10
895.18696809549
 20
199.8089931693907
 10
895.9202719410044
 20
196.87577778733234
 10
890.9142857142858
 20
186.86380533389524
 10
890.9142857142858
 20
184.0043566716829
 10
889.1009631239133
 20
180.7403760090125
 10
887.6213471106264
 20
180.0005680023692
 10
872.5701189489936
 20
180.71729315292308
  0
LWPOLYLINE
  5
39
330
17
100
AcDbEntity
  8
M
100
AcDbPolyline
 90
22
 70
1
 10
826.4311160463385
 20
166.1482073118019
 10
825.7175857175987
 20
171.14291961298312
 10
824.2739108868393
 20
174.03026927450205
 10
825.017814558487
 20
175.51807661779796
 10
826.8286212399458
 20
177.32888329925655
 10
831.8651885155186
 20
179.48741213164487
 10
833.2840081505124
 20
179.48741213164487
 10
835.4195315231217
 20
180.91109438005105
 10
839.7052458088361
 20
181.62538009433683
 10
841.8709384985375
 20
183.06917522080457
 10
844.1036132133693
 20
182.32495031586072
 10
846.6166481082513
 20
176.22186557114762
 10
850.1859338206821
 20
171.22486557374427
 10
851.6285714285716
 20
168.33959035796607
 10
851.6285714285716
 20
166.91768969541798
 10
853.0571428571429
 20
164.77483255256087
 10
853.0571428571429
 20
163.29237676246666
 10
851.604991257038
 20
160.3880735622567
 10
849.7697141448725
 20
159.28690729495742
 10
830.0755366821761
 20
159.6449832488247
 10
828.591583928673
 20
160.38695962557603
 10
826.4311160463385
 20
166.1482073118019
  0
LWPOLYLINE
  5
3A
330
17
100
AcDbEntity
  8
M
100
AcDbPolyline
 90
28
 70
1
 10
803.5714285714282
 20
79.716856592293
 10
803.5714285714282
 20
81.14284885358613
 10
802.1500439433413
 20
83.2749257957165
 10
801.4416033330812
 20
86.10868823675644
 10
799.7106165794861
 20
87.14728028891372
 10
792.567759436629
 20
87.86156600319939
 10
790.7378658858188
 20
88.9595021336853
 10
789.9892219720901
 20
90.45678996114358
 10
793.5844105537642
 20
98.36620484082647
 10
795.3902060721807
 20
100.89431856661024
 10
796.8900921393705
 20
101.64426160020501
 10
804.0905772244222
 20
97.32397054917385
 10
806.9419110525382
 20
94.472636721058
 10
810.5133396239672
 20
93.04406529248655
 10
813.3735216290104
 20
90.1838832874431
 10
816.2421957122461
 20
88.74954624582543
 10
817.3428571428574
 20
86.9151105281396
 10
817.3428571428574
 20
85.43523390532381
 10
815.896471155798
 20
82.54246193120618
 10
814.4678997272267
 20
81.11389050263473
 10
812.342857142857
 20
76.86380533389526
 10
812.342857142857
 20
74.72094819103803
 10
810.8907055427521
 20
71.81664499082818
 10
809.0285714285715
 20
70.69936452231961
 10
807.1664373143904
 20
71.81664499082818
 10
805.7142857142854
 20
74.72094819103803
 10
805.7142857142854
 20
76.14542802086444
 10
803.5714285714282
 20
79.716856592293
  0
LWPOLYLINE
  5
3B
330
17
100
AcDbEntity
  8
M
100
AcDbPolyline
 90
21
 70
1
 10
794.0008730320767
 20
132.14455498878775
 10
792.1636801819154
 20
133.2468706988843
 10
789.9999999999998
 20
138.29545779002183
 10
789.9999999999998
 20
140.4364870252227
 10
784.2725137386337
 20
152.60739533062528
 10
785.3904260012758
 20
154.47058243502832
 10
787.607672972243
 20
155.20966475868403
 10
790.4873496615174
 20
153.7698264140467
 10
795.4815614068165
 20
153.05636759328968
 10
803.3319032120538
 20
150.20169784593062
 10
805.4788037766148
 20
150.20169784593062
 10
809.4667928867441
 20
148.38897552314455
 10
810.20689128804
 20
146.1686803192571
 10
808.0538020797345
 20
141.14480549987806
 10
807.3362281222159
 20
136.83936175476651
 10
806.6285714285717
 20
136.13170506112226
 10
806.6285714285717
 20
131.85971373515017
 10
805.5201324068404
 20
130.0123153655983
 10
803.6461613086268
 20
129.63752114595562
 10
800.422832082128
 20
132.14455498878775
 10
794.0008730320767
 20
132.14455498878775
  0
LWPOLYLINE
  5
3C
330
17
100
AcDbEntity
  8
M
100
AcDbPolyline
 90
23
 70
1
 10
802.1441590903582
 20
179.71834429603538
 10
801.4308447061304
 20
192.55800321213434
 10
800.7142857142854
 20
193.27456220397943
 10
800.7142857142854
 20
198.2923767624667
 10
800.0235801715332
 20
199.67378784797108
 10
798.2865873177911
 20
200.71598356021636
 10
794.0049646308214
 20
200.71598356021636
 10
792.5325135396231
 20
201.45220910581563
 10
784.2633292137042
 20
213.31669096474292
 10
786.1044917864664
 20
215.89431856661034
 10
787.5763932022502
 20
216.630269274502
 10
789.7178571428569
 20
216.630269274502
 10
800.4194568892158
 20
222.33778913922697
 10
805.4713883855864
 20
223.78119813818975
 10
807.3192769713236
 20
222.67246498674743
 10
808.057142857143
 20
221.1967332151089
 10
808.057142857143
 20
200.48911826684656
 10
809.4857142857144
 20
198.34626112398945
 10
809.4857142857144
 20
181.14542802086441
 10
808.3871726129714
 20
179.31452523295965
 10
804.742857142857
 20
177.12793595089104
 10
802.8807230286764
 20
178.2452164193996
 10
802.1441590903582
 20
179.71834429603538
  0
LWPOLYLINE
  5
3D
330
17
100
AcDbEntity
  8
M
100
AcDbPolyline
 90
12
 70
1
 10
785.0096972955727
 20
70.51722913229774
 10
787.5908695606378
 20
72.3609236073438
 10
790.5279099979603
 20
70.89240338868252
 10
791.6406274702441
 20
69.03787426820962
 10
789.4857142857144
 20
64.00974350430755
 10
789.4857142857144
 20
62.577092944274156
 10
785.5307439236332
 20
55.0266949803011
 10
784.0391198947507
 20
54.28088296585975
 10
780.0171892496805
 20
55.377773141787934
 10
779.278828827292
 20
58.331214831342294
 10
784.2909286656899
 20
66.92338598288106
 10
785.0096972955727
 20
70.51722913229774
  0
LWPOLYLINE
  5
3E
330
17
100
AcDbEntity
  8
M
100
AcDbPolyline
 90
9
 70
1
 10
781.4413066529056
 20
171.9609902046749
 10
786.1650249957444
 20
173.77780495192064
 10
789.0930096091748
 20
173.04580879856312
 10
790.2112695928445
 20
171.18204215911337
 10
788.7533945838918
 20
167.5373546367328
 10
786.1928687807567
 20
165.70840763449334
 10
781.4601922127305
 20
166.80056376557638
 10
780.7094987501275
 20
168.30195069078292
 10
781.4413066529056
 20
171.9609902046749
  0
LWPOLYLINE
  5
3F
330
17
100
AcDbEntity
  8
M
100
AcDbPolyline
 90
12
 70
1
 10
1261.4521516001048
 20
213.24521641939964
 10
1260.7142857142853
 20
214.72094819103805
 10
1260.7142857142853
 20
221.91101892939457
 10
1261.4521516001048
 20
223.3867507010331
 10
1263.2865873177907
 20
224.48741213164502
 10
1264.7842784990946
 20
224.48741213164502
 10
1265.506444064599
 20
223.7652465661396
 10
1269.0997645754103
 20
223.04658246397747
 10
1270.2101844387564
 20
220.45560278283648
 10
1267.3199127624714
 20
214.6750594302659
 10
1263.3158321160631
 20
212.12700810982454
 10
1261.4521516001048
 20
213.24521641939964
  0
LWPOLYLINE
  5
40
330
17
100
AcDbEntity
  8
M
100
AcDbPolyline
 90
13
 70
1
 10
1242.5292328591825
 20
145.17811767439682
 10
1244.0049646308219
 20
145.9159835602163
 10
1246.913412682209
 20
145.9159835602163
 10
1248.747848399895
 20
144.81532212960457
 10
1250.2
 20
141.91101892939463
 10
1250.2
 20
139.77225338528254
 10
1252.348497195035
 20
136.19142472689094
 10
1251.6179539089035
 20
132.53870829623327
 10
1249.7472349965135
 20
131.4162769487991
 10
1243.9635620407573
 20
134.30811342667693
 10
1241.428571428571
 20
137.56738707091677
 10
1241.428571428571
 20
143.3436819567111
 10
1242.5292328591825
 20
145.17811767439682
  0
LWPOLYLINE
  5
41
330
17
100
AcDbEntity
  8
M
100
AcDbPolyline
 90
30
 70
1
 10
1229.7337267034948
 20
54.27104351308887
 10
1228.337892512035
 20
53.57312641735923
 10
1225.4874204209157
 20
53.57312641735923
 10
1223.3445632780588
 20
52.14455498878778
 10
1220.4874204209157
 20
52.14455498878778
 10
1218.3290615014619
 20
50.7056490424852
 10
1216.1081830182252
 20
51.44594187023088
 10
1212.8412202761804
 20
56.16488805318431
 10
1213.571428571428
 20
57.62530464368032
 10
1213.571428571428
 20
62.643119202167696
 10
1214.293594136934
 20
63.365284767673444
 10
1215.009697295573
 20
66.94580056086919
 10
1217.5704664328193
 20
68.77492137318775
 10
1230.487384392287
 20
68.05731481988386
 10
1232.3192769713237
 20
66.95817927246172
 10
1233.0571428571432
 20
65.48244750082321
 10
1233.0571428571432
 20
62.62761044874976
 10
1234.8078147756994
 20
59.476400995348236
 10
1238.3451858229887
 20
58.76892678589041
 10
1246.241156903735
 20
55.17984902191486
 10
1247.3428571428574
 20
53.34368195671113
 10
1247.3428571428574
 20
49.714277425014664
 10
1245.914285714286
 20
47.57142028215755
 10
1245.914285714286
 20
46.14951961960945
 10
1244.4621341141806
 20
43.245216419399604
 10
1242.6142455284435
 20
42.13648326795705
 10
1237.5476122990535
 20
43.584092762068536
 10
1235.7321002727729
 20
45.39960478834904
 10
1232.164522136463
 20
52.53476106096877
 10
1229.7337267034948
 20
54.27104351308887
  0
LWPOLYLINE
  5
42
330
17
100
AcDbEntity
  8
M
100
AcDbPolyline
 90
19
 70
1
 10
1215.7142857142853
 20
179.72094819103813
 10
1215.7142857142853
 20
193.3395903579661
 10
1216.4521516001048
 20
194.8153221296045
 10
1218.329787163248
 20
195.94190346749085
 10
1219.0699927848088
 20
195.20169784593065
 10
1223.333543954643
 20
195.20169784593065
 10
1226.9049725260716
 20
193.7731264173592
 10
1231.1950353691782
 20
193.7731264173592
 10
1232.673037738305
 20
193.03412523279573
 10
1235.2000000000003
 20
188.34119531821923
 10
1235.2000000000003
 20
183.2923767624667
 10
1233.7470361226322
 20
180.38644900773127
 10
1230.4830554599628
 20
178.57312641735922
 10
1224.0699927848086
 20
178.57312641735922
 10
1223.3557070705233
 20
177.85884070307355
 10
1220.4985642133802
 20
177.85884070307355
 10
1219.769866218531
 20
177.13014270822424
 10
1216.4576529031247
 20
178.2342138133596
 10
1215.7142857142853
 20
179.72094819103813
  0
LWPOLYLINE
  5
43
330
17
100
AcDbEntity
  8
M
100
AcDbPolyline
 90
18
 70
1
 10
1213.571428571428
 20
145.42856313930042
 10
1212.1428571428567
 20
147.57142028215753
 10
1212.1428571428567
 20
149.72529674843128
 10
1209.2744446928698
 20
156.89632787339914
 10
1210.3851706017074
 20
158.74753772146167
 10
1216.883258241059
 20
162.35758640999032
 10
1221.195035369178
 20
160.20169784593062
 10
1223.3394974722894
 20
160.20169784593062
 10
1228.0353008302786
 20
157.6731883454745
 10
1230.2
 20
152.6222236161252
 10
1230.2
 20
149.0605468382753
 10
1231.6409553796043
 20
146.89911376886943
 10
1230.1852245894129
 20
143.25978679339235
 10
1228.3723850749655
 20
141.44694727894435
 10
1219.0243841997783
 20
137.13248533655053
 10
1215.7386781630817
 20
138.95787757915988
 10
1213.571428571428
 20
143.29237676246663
 10
1213.571428571428
 20
145.42856313930042
  0
LWPOLYLINE
  5
44
330
17
100
AcDbEntity
  8
M
100
AcDbPolyline
 90
17
 70
1
 10
1203.9982938647981
 20
75.00169784593058
 10
1202.5747882419964
 20
75.00169784593058
 10
1197.88185832742
 20
77.52866010762548
 10
1197.1428571428567
 20
79.00666247675237
 10
1197.1428571428567
 20
83.34119531821915
 10
1199.6698194045518
 20
88.03412523279574
 10
1201.1478217736785
 20
88.77312641735924
 10
1208.3419841107802
 20
88.77312641735924
 10
1210.1781511759846
 20
87.67142617823653
 10
1213.7714285714285
 20
79.76621590825961
 10
1213.7714285714285
 20
77.62939624242537
 10
1215.9263417559582
 20
74.03787426820962
 10
1214.814050289696
 20
71.44252751359792
 10
1212.9445839889784
 20
71.06863425345445
 10
1207.5778150663252
 20
73.57312641735925
 10
1206.1411510076555
 20
73.57312641735925
 10
1203.9982938647981
 20
75.00169784593058
  0
LWPOLYLINE
  5
45
330
17
100
AcDbEntity
  8
M
100
AcDbPolyline
 90
21
 70
1
 10
1183.5714285714282
 20
45.4824475008232
 10
1183.5714285714282
 20
46.91101892939464
 10
1190.7359507078916
 20
61.240063202321004
 10
1193.2822392089452
 20
63.058840703073436
 10
1196.1300072151912
 20
63.058840703073436
 10
1196.868340771997
 20
63.79717425987963
 10
1203.3825561792812
 20
60.17816570027756
 10
1205.2194820332072
 20
57.60646950478099
 10
1204.0993385693887
 20
55.73956373175015
 10
1202.6236067977493
 20
55.00169784593068
 10
1198.34198411078
 20
55.00169784593068
 10
1196.604991257038
 20
53.95950213368528
 10
1195.92164639247
 20
52.592812404549164
 10
1198.7627195422542
 20
43.35932466775172
 10
1200.2077432956971
 20
41.19178903758636
 10
1199.472682381204
 20
38.25154537961362
 10
1197.6265687977689
 20
37.143877229552366
 10
1182.9323879841688
 20
37.502271883542605
 10
1181.454035829321
 20
38.241447960966624
 10
1180.7024823154109
 20
39.74455498878782
 10
1183.5714285714282
 20
45.4824475008232
  0
LWPOLYLINE
  5
46
330
17
100
AcDbEntity
  8
M
100
AcDbPolyline
 90
20
 70
1
 10
1186.4285714285709
 20
135.44070724489666
 10
1186.4285714285709
 20
137.62939624242543
 10
1187.5292328591827
 20
139.46383196011126
 10
1189.0049646308216
 20
140.20169784593062
 10
1192.5585786437628
 20
140.20169784593062
 10
1193.272864358048
 20
140.9159835602164
 10
1195.4848412536373
 20
140.9159835602164
 10
1197.3192769713235
 20
139.81532212960457
 10
1198.7714285714287
 20
136.9110189293946
 10
1198.7714285714287
 20
135.48911826684662
 10
1200.2
 20
133.3462611239894
 10
1200.2
 20
131.20082481385398
 10
1202.3428571428574
 20
127.62939624242541
 10
1202.3428571428574
 20
126.14542802086449
 10
1201.242195712246
 20
124.31099230317876
 10
1199.7596387008432
 20
123.56971379747739
 10
1197.211466848009
 20
123.93373834788213
 10
1191.1113504901953
 20
127.16321171378364
 10
1188.5854013102644
 20
129.68916089371461
 10
1186.4285714285709
 20
135.44070724489666
  0
LWPOLYLINE
  5
47
330
17
100
AcDbEntity
  8
M
100
AcDbPolyline
 90
23
 70
1
 10
1191.1484581217703
 20
171.4214490214472
 10
1188.3026513699733
 20
170.7099973334978
 10
1185.390206072181
 20
172.1662199823939
 10
1183.5550599528726
 20
174.7354245494257
 10
1184.2739108868395
 20
176.17312641735927
 10
1183.598367637459
 20
177.5242129161194
 10
1181.1023157100965
 20
178.5939494564177
 10
1179.9999999999998
 20
180.43114230657875
 10
1179.9999999999998
 20
182.633744351271
 10
1181.818777500752
 20
185.18003285232453
 10
1189.0208984563287
 20
188.7810933301126
 10
1191.2339009933048
 20
188.0434258177871
 10
1193.0526893349725
 20
185.497122139453
 10
1193.7657094755862
 20
180.50598115515282
 10
1194.5143938537183
 20
179.7572967770209
 10
1193.057142857143
 20
177.57142028215756
 10
1193.057142857143
 20
176.200824813854
 10
1194.0976842899036
 20
174.4665890925865
 10
1196.6016323625408
 20
173.39346849002757
 10
1197.3530415816133
 20
171.89065005188198
 10
1196.2426217182679
 20
169.29967037074078
 10
1194.3604470229125
 20
168.92323543166987
 10
1191.1484581217703
 20
171.4214490214472
  0
LWPOLYLINE
  5
48
330
17
100
AcDbEntity
  8
M
100
AcDbPolyline
 90
28
 70
1
 10
1359.9999999999998
 20
268.2745622039794
 10
1359.9999999999998
 20
277.65315963545976
 10
1362.5647890923726
 20
279.48515184429743
 10
1372.5690405884063
 20
280.19974123687143
 10
1374.3092944572477
 20
281.2438935581759
 10
1374.9999999999995
 20
282.6253046436803
 10
1374.9999999999995
 20
288.9888479182651
 10
1374.2832498416683
 20
289.7055980765967
 10
1374.6486196956776
 20
295.9168855947579
 10
1412.3428571428574
 20
295.5578928571657
 10
1412.3428571428574
 20
291.1428488535862
 10
1410.9142857142856
 20
288.999991710729
 10
1410.9142857142856
 20
282.57399944943575
 10
1409.8136242836747
 20
280.73956373175014
 10
1408.3378925120353
 20
280.00169784593066
 10
1405.4985642133797
 20
280.00169784593066
 10
1404.788326698441
 20
279.29146033099227
 10
1397.6347405052425
 20
278.57610171167244
 10
1395.4961528262356
 20
277.15037659233457
 10
1391.9350154931703
 20
276.4381491257216
 10
1391.2173352829686
 20
275.7204689155192
 10
1384.771626307445
 20
275.0042790293498
 10
1380.4807496548929
 20
272.85884070307355
 10
1374.766463940607
 20
272.85884070307355
 10
1367.634903032938
 20
269.29306024923903
 10
1361.936839239843
 20
267.8685443009653
 10
1361.1714285714284
 20
267.10313363255057
 10
1359.9999999999998
 20
268.2745622039794
  0
LWPOLYLINE
  5
49
330
17
100
AcDbEntity
  8
M
100
AcDbPolyline
 90
23
 70
1
 10
1887.8688450094367
 20
115.41100991085918
 10
1885.704101275529
 20
120.46207862331049
 10
1887.1428571428567
 20
123.33959035796605
 10
1887.1428571428567
 20
125.50026205931064
 10
1887.8650227083624
 20
126.22242762481628
 10
1889.2910532192548
 20
133.35258017927987
 10
1890.3904260012755
 20
135.18486814931396
 10
1892.612010481311
 20
135.92539630932586
 10
1894.4564459811324
 20
134.81873500943354
 10
1895.9009441822388
 20
132.65198770777374
 10
1899.4811460035833
 20
125.49158406508487
 10
1900.1921201487798
 20
121.93671333910171
 10
1900.9142857142854
 20
121.2145477735962
 10
1900.9142857142854
 20
119.0716906307392
 10
1901.6285714285711
 20
118.35740491645342
 10
1901.6285714285711
 20
115.4311423065788
 10
1900.52790999796
 20
113.5967065888931
 10
1899.052178226321
 20
112.8588407030735
 10
1896.2128499276657
 20
112.8588407030735
 10
1895.495331225003
 20
112.14132200041082
 10
1890.7870850407703
 20
112.50349478381327
 10
1889.3172401208153
 20
113.2384172437908
 10
1887.8688450094367
 20
115.41100991085918
  0
LWPOLYLINE
  5
4A
330
17
100
AcDbEntity
  8
M
100
AcDbPolyline
 90
14
 70
1
 10
1822.1428571428567
 20
273.29237676246674
 10
1822.1428571428567
 20
278.35740491645333
 10
1822.8571428571424
 20
279.071690630739
 10
1822.8571428571424
 20
294.7859763450248
 10
1823.9871500723334
 20
295.91598356021643
 10
1837.6236067977495
 20
295.91598356021643
 10
1839.0993385693885
 20
295.17811767439673
 10
1840.2150150438436
 20
293.318656883638
 10
1835.1931787961062
 20
283.9923895664106
 10
1833.765027702571
 20
278.99386073903685
 10
1830.8913413338992
 20
273.2464880016944
 10
1826.902080791308
 20
270.70786765640884
 10
1822.8876955229243
 20
271.80270000233185
 10
1822.1428571428567
 20
273.29237676246674
  0
LWPOLYLINE
  5
4B
330
17
100
AcDbEntity
  8
M
100
AcDbPolyline
 90
74
 70
1
 10
1763.5759968535588
 20
61.85466876963363
 10
1761.436451279791
 20
72.55239663847357
 10
1760.7142857142853
 20
73.27456220397922
 10
1760.7142857142853
 20
76.15499295918227
 10
1758.571428571428
 20
81.86927867346805
 10
1758.571428571428
 20
84.71250848344735
 10
1756.8273258564902
 20
87.1542522843608
 10
1753.3471531859232
 20
87.85028681847406
 10
1752.641421356237
 20
87.14455498878782
 10
1749.7842784990944
 20
87.14455498878782
 10
1749.0699927848086
 20
86.43026927450204
 10
1746.212849927666
 20
86.43026927450204
 10
1745.5026124127273
 20
85.72003175956355
 10
1738.3490262195282
 20
85.00467314024363
 10
1736.2017061352012
 20
83.57312641735926
 10
1734.7151587463622
 20
83.57312641735926
 10
1732.880723028676
 20
84.67378784797097
 10
1732.1428571428567
 20
86.14951961960948
 10
1732.1428571428567
 20
118.34510362893613
 10
1734.677552255126
 20
122.32819594821642
 10
1736.8876777560351
 20
123.06490444851958
 10
1742.6181334581772
 20
120.91598356021638
 10
1745.477668627338
 20
120.91598356021638
 10
1750.477668627338
 20
118.77312641735915
 10
1752.6236067977493
 20
118.77312641735915
 10
1756.9541884506127
 20
116.60783559092769
 10
1758.385017409704
 20
114.46159215229068
 10
1765.4848412536373
 20
110.2016978459306
 10
1767.5763932022498
 20
110.2016978459306
 10
1770.4269360527678
 20
111.62696927118954
 10
1775.410002405063
 20
112.33883589294614
 10
1776.130007215191
 20
113.05884070307349
 10
1778.998293864798
 20
113.05884070307349
 10
1781.141151007655
 20
114.48741213164493
 10
1798.3557070705228
 20
114.48741213164493
 10
1799.0699927848084
 20
113.77312641735926
 10
1829.0562698250658
 20
113.77312641735926
 10
1830.8934626752266
 20
112.6708107072627
 10
1833.0571428571427
 20
107.62222361612517
 10
1833.0571428571427
 20
105.48911826684659
 10
1834.4798926821668
 20
103.35499352931043
 10
1835.19212014878
 20
99.79385619624459
 10
1835.9142857142854
 20
99.07169063073906
 10
1835.9142857142854
 20
97.63197540970381
 10
1837.3428571428572
 20
95.4891182668467
 10
1837.3428571428572
 20
92.56965134059026
 10
1835.5224882575185
 20
90.02113490111651
 10
1824.1018227823447
 20
85.0245937557279
 10
1823.3888213135358
 20
83.5985908181095
 10
1819.0634744615086
 20
81.43591739209599
 10
1816.1508820466547
 20
80.70776928838252
 10
1813.5930935650345
 20
82.5347610609688
 10
1810.7359507078913
 20
88.24904677525447
 10
1808.282239208945
 20
90.0016978459307
 10
1788.3463322196258
 20
90.0016978459307
 10
1785.8926207206794
 20
88.24904677525447
 10
1784.4857142857143
 20
85.43523390532381
 10
1784.4857142857143
 20
83.99999171072903
 10
1783.057142857143
 20
81.85713456787191
 10
1783.057142857143
 20
78.33524180057294
 10
1784.4857142857143
 20
74.76381322914428
 10
1784.4857142857143
 20
71.92883348788193
 10
1785.1999999999996
 20
71.21454777359615
 10
1785.1999999999996
 20
67.56836451259751
 10
1783.0468795167528
 20
64.69753720160153
 10
1782.3239357438868
 20
62.52870588300241
 10
1778.3359466337574
 20
60.715983560216344
 10
1775.4764010974995
 20
60.715983560216344
 10
1771.9049725260709
 20
59.2874121316449
 10
1769.784278499094
 20
59.2874121316449
 10
1769.0639267676302
 20
58.56706040018123
 10
1766.4919745604561
 20
58.93448214406316
 10
1764.3081479692883
 20
60.390366538175314
 10
1763.5759968535588
 20
61.85466876963363
  0
LWPOLYLINE
  5
4C
330
17
100
AcDbEntity
  8
M
100
AcDbPolyline
 90
18
 70
1
 10
1816.4401971240104
 20
201.22144889631534
 10
1818.251813292409
 20
203.7577115320728
 10
1819.3147957602673
 20
204.1120390213589
 10
1820.7378658858188
 20
206.95817927246173
 10
1822.572301603505
 20
208.05884070307357
 10
1824.047829668928
 20
208.05884070307357
 10
1831.2398457559166
 20
205.18203426827796
 10
1832.342857142857
 20
203.34368195671115
 10
1832.342857142857
 20
201.1317050611222
 10
1831.6285714285714
 20
200.41741934683654
 10
1831.6285714285714
 20
194.00666247675235
 10
1830.8913413338996
 20
192.53220228740875
 10
1826.9627699053283
 20
190.0322022874088
 10
1826.245964170678
 20
188.59859081810947
 10
1823.2992665756997
 20
187.12524202062008
 10
1817.8766041134882
 20
191.82488282120323
 10
1814.9904744359758
 20
197.59714217622815
 10
1816.4401971240104
 20
201.22144889631534
  0
LWPOLYLINE
  5
4D
330
17
100
AcDbEntity
  8
M
100
AcDbPolyline
 90
44
 70
1
 10
1756.4285714285709
 20
196.85078134650058
 10
1756.4285714285709
 20
199.00666247675235
 10
1752.1466897790367
 20
207.57042577582098
 10
1751.432404064751
 20
211.8561400615353
 10
1749.9999999999995
 20
214.72094819103805
 10
1749.9999999999995
 20
216.91511052813973
 10
1751.100661430611
 20
218.74954624582543
 10
1752.6197453049076
 20
219.50908818297387
 10
1753.3557070705226
 20
218.77312641735924
 10
1756.1950353691782
 20
218.77312641735924
 10
1759.061314790581
 20
217.33998670665767
 10
1769.7703980373972
 20
215.19817005729448
 10
1775.4752763153197
 20
213.05884070307346
 10
1776.8602148842785
 20
213.05884070307346
 10
1784.7083276387452
 20
217.33962947823738
 10
1788.2815423522754
 20
218.05427242094333
 10
1791.0968929721785
 20
219.46194773089488
 10
1791.8111786864638
 20
220.89051915946624
 10
1793.2906789165352
 20
221.63026927450213
 10
1796.9093210834637
 20
221.63026927450213
 10
1801.1950353691782
 20
219.4874121316449
 10
1803.34198411078
 20
219.4874121316449
 10
1805.1764198284661
 20
218.38675070103298
 10
1805.9142857142856
 20
216.9110189293947
 10
1805.9142857142856
 20
212.56027648969356
 10
1805.1999999999996
 20
211.8459907754079
 10
1805.1999999999996
 20
206.84599077540798
 10
1804.4857142857143
 20
206.1317050611222
 10
1804.4857142857143
 20
201.1317050611221
 10
1803.7714285714283
 20
200.41741934683643
 10
1803.7714285714283
 20
195.4297206343537
 10
1801.2409241299504
 20
191.45321365488843
 10
1799.7664639406069
 20
190.71598356021636
 10
1796.864053366242
 20
190.71598356021636
 10
1789.0069105090993
 20
194.2874121316449
 10
1786.8554367219408
 20
194.2874121316449
 10
1784.7125795790837
 20
195.71598356021636
 10
1782.6315222230814
 20
195.71598356021636
 10
1775.4457570923896
 20
190.68594796873205
 10
1774.7231118379484
 20
191.40859322317317
 10
1773.3359957714138
 20
190.71503518990562
 10
1764.370364372895
 20
191.0736604458463
 10
1760.4008665359934
 20
192.15625076500132
 10
1756.4285714285709
 20
196.85078134650058
  0
LWPOLYLINE
  5
4E
330
17
100
AcDbEntity
  8
M
100
AcDbPolyline
 90
19
 70
1
 10
1777.5585786437628
 20
229.28741213164494
 10
1775.4335360593925
 20
229.28741213164494
 10
1769.683621228132
 20
232.1623695472751
 10
1767.8650227083624
 20
233.98096806704515
 10
1767.1507369940764
 20
237.5523966384737
 10
1766.411234400973
 20
238.29189923157756
 10
1767.8788694295417
 20
241.96098680300025
 10
1774.7203705201725
 20
245.2016978459307
 10
1776.855436721941
 20
245.2016978459307
 10
1779.0099088083439
 20
246.63801257019935
 10
1781.9570944949605
 20
245.90121614854533
 10
1786.6052205632843
 20
235.53231953459186
 10
1788.0256170220412
 20
234.82212130521341
 10
1789.4746949622977
 20
232.6485043948282
 10
1790.9225168888825
 20
229.0289495783665
 10
1789.8203420726677
 20
226.45720834053262
 10
1788.3242153148667
 20
225.7091449616321
 10
1778.2618980133389
 20
228.5840927620687
 10
1777.5585786437628
 20
229.28741213164494
  0
LWPOLYLINE
  5
4F
330
17
100
AcDbEntity
  8
M
100
AcDbPolyline
 90
12
 70
1
 10
1770.0207012950316
 20
147.6667072337442
 10
1773.2777893589655
 20
150.19999795013717
 10
1787.621233594368
 20
150.9171701619073
 10
1789.0993385693887
 20
150.17811767439682
 10
1790.2259199072744
 20
148.30048211125367
 10
1789.485714285714
 20
147.5602764896935
 10
1789.485714285714
 20
144.72094819103808
 10
1788.747468546141
 20
143.24445671189144
 10
1781.8920091852829
 20
139.27550655560506
 10
1770.387816615231
 20
144.3085908050027
 10
1769.2717219600106
 20
146.16874856370288
 10
1770.0207012950316
 20
147.6667072337442
  0
LWPOLYLINE
  5
50
330
17
100
AcDbEntity
  8
M
100
AcDbPolyline
 90
36
 70
1
 10
1749.30737927932
 20
258.2490467752544
 10
1748.5680159515468
 20
259.7277734308009
 10
1749.2914333815559
 20
264.791695440867
 10
1749.9999999999995
 20
265.50026205931044
 10
1749.9999999999995
 20
267.5602764896937
 10
1749.2597943784394
 20
268.3004821112539
 10
1751.4285714285709
 20
271.9151105281398
 10
1751.4285714285709
 20
274.05387607225185
 10
1753.585494750746
 20
278.3677227166018
 10
1755.3878585228376
 20
280.8910319975301
 10
1757.1625207205095
 20
281.9558293161332
 10
1758.5877022030134
 20
285.5187830223936
 10
1763.5940283955924
 20
289.80991975889003
 10
1764.6761402869897
 20
291.61343957788523
 10
1766.8215414499132
 20
292.32857329885974
 10
1768.2458115493866
 20
294.4649784480705
 10
1771.1478217736785
 20
295.91598356021643
 10
1784.8371476508914
 20
295.91598356021643
 10
1785.2024644440453
 20
289.7055980765967
 10
1784.4857142857143
 20
288.9888479182651
 10
1784.4857142857143
 20
280.4174193468366
 10
1783.7635487202083
 20
279.69525378133073
 10
1783.0468320443074
 20
276.1116704018239
 10
1779.052539545833
 20
273.5698479027952
 10
1772.6225051292586
 20
274.28429617130354
 10
1770.8956636595824
 20
273.24819128949804
 10
1768.7714285714287
 20
267.58356438775365
 10
1768.7714285714287
 20
265.43523390532374
 10
1767.342857142857
 20
262.5780910481811
 10
1767.342857142857
 20
261.1428488535862
 10
1765.9142857142856
 20
258.999991710729
 10
1765.9142857142856
 20
256.8553656263045
 10
1764.0955082135333
 20
254.3090771252511
 10
1762.6108376968252
 20
253.5667418668971
 10
1751.8423831024545
 20
256.43832975872925
 10
1749.30737927932
 20
258.2490467752544
  0
LWPOLYLINE
  5
51
330
17
100
AcDbEntity
  8
M
100
AcDbPolyline
 90
26
 70
1
 10
1747.5311261959373
 20
12.158695799162956
 10
1744.707954109919
 20
12.864488820667486
 10
1734.6720900020393
 20
17.88242087460734
 10
1733.571428571428
 20
19.716856592293052
 10
1733.571428571428
 20
24.776601494128194
 10
1735.3902060721805
 20
27.32288999518162
 10
1738.290678916536
 20
28.773126417359187
 10
1739.7169445400368
 20
28.773126417359187
 10
1752.565081405733
 20
35.91098023163486
 10
1756.1324186023346
 20
36.6244476709553
 10
1758.3114704474813
 20
38.07714890105274
 10
1760.1764198284661
 20
36.9581792724617
 10
1760.9142857142856
 20
35.48244750082319
 10
1760.9142857142856
 20
30.417419346836393
 10
1760.1999999999998
 20
29.703133632550728
 10
1760.1999999999998
 20
24.703133632550834
 10
1759.4857142857143
 20
23.988847918265055
 10
1759.4857142857143
 20
18.274562203979272
 10
1758.7714285714285
 20
17.560276489693493
 10
1758.7714285714285
 20
12.5602764896936
 10
1758.057142857143
 20
11.845990775407934
 10
1758.057142857143
 20
9.716856592293045
 10
1756.9487038354116
 20
7.86945822274121
 10
1755.0871287352345
 20
7.4971432027057805
 10
1748.240280557282
 20
10.740387076472512
 10
1747.5311261959373
 20
12.158695799162956
  0
LWPOLYLINE
  5
52
330
17
100
AcDbEntity
  8
M
100
AcDbPolyline
 90
14
 70
1
 10
1701.8952524621654
 20
35.91987158577847
 10
1705.5194416236104
 20
34.470195921200485
 10
1708.0516203827822
 20
31.214537516550678
 10
1708.7680877940202
 20
26.91573304912609
 10
1710.9142857142858
 20
21.907937901839425
 10
1710.9142857142858
 20
19.768161786537508
 10
1712.3428571428572
 20
16.911018929394615
 10
1712.3428571428572
 20
14.765080758982307
 10
1716.6285714285711
 20
4.7650807589822985
 10
1716.6285714285711
 20
1.859713735150148
 10
1715.512966734424
 20
0.00037257823748415575
 10
1699.9999999999998
 20
0.36113924647984685
 10
1699.9999999999998
 20
35.54082109334533
 10
1701.8952524621654
 20
35.91987158577847
  0
LWPOLYLINE
  5
53
330
17
100
AcDbEntity
  8
M
100
AcDbPolyline
 90
23
 70
1
 10
2252.8571428571427
 20
103.98884791826512
 10
2252.8571428571427
 20
108.33959035796603
 10
2253.5930935650345
 20
109.81149177374961
 10
2256.130770295095
 20
111.62411800950723
 10
2266.836413078258
 20
113.76524656613974
 10
2267.5585786437623
 20
114.48741213164493
 10
2270.480749654893
 20
114.48741213164493
 10
2271.952058510572
 20
113.7517577038052
 10
2275.945660423608
 20
108.30593691330148
 10
2275.2000000000003
 20
107.56027648969368
 10
2275.2000000000003
 20
99.70313363255067
 10
2274.4857142857145
 20
98.98884791826501
 10
2274.4857142857145
 20
96.14951961960949
 10
2273.7470361226324
 20
94.67216329344552
 10
2270.4872378188743
 20
92.86116423580182
 10
2262.645109881689
 20
92.14824351423967
 10
2261.9271356419513
 20
91.43026927450204
 10
2259.0699927848086
 20
91.43026927450204
 10
2258.3439613923933
 20
90.70423788208703
 10
2254.316266951496
 20
91.80270000233193
 10
2253.571428571428
 20
93.2923767624666
 10
2253.571428571428
 20
103.27456220397934
 10
2252.8571428571427
 20
103.98884791826512
  0
LWPOLYLINE
  5
54
330
17
100
AcDbEntity
  8
M
100
AcDbPolyline
 90
49
 70
1
 10
2227.121181091528
 20
244.76430029369578
 10
2227.8571428571427
 20
245.50026205931042
 10
2227.8571428571427
 20
248.33959035796605
 10
2228.5892431299153
 20
249.80379090351212
 10
2230.0147754105865
 20
251.22932318418302
 10
2231.4406357939797
 20
254.79397414266535
 10
2233.5567397250115
 20
257.61544605070816
 10
2232.5225150701885
 20
260.0286369119612
 10
2231.1478217736785
 20
260.71598356021633
 10
2223.2728643580485
 20
260.71598356021633
 10
2222.5585786437623
 20
261.43026927450217
 10
2218.9871500723343
 20
261.43026927450217
 10
2218.268816158701
 20
262.14860318813516
 10
2211.194457545265
 20
262.8560390494786
 10
2209.462134114181
 20
261.81664499082825
 10
2208.768128568115
 20
260.4286338986975
 10
2208.0532819292725
 20
255.4247074267938
 10
2206.948703835412
 20
253.58374393702687
 10
2203.3635869217424
 20
252.86672055429304
 10
2202.646449296438
 20
252.1495829289887
 10
2196.8593679072073
 20
251.4261977553348
 10
2194.3073792793202
 20
253.2490467752545
 10
2193.575261207608
 20
254.71328291867812
 10
2192.8609754933227
 20
258.99899720439237
 10
2191.428571428571
 20
261.8638053338952
 10
2191.428571428571
 20
263.98884791826515
 10
2190.6926096629563
 20
264.7248096838798
 10
2191.4515158089575
 20
266.24262197588143
 10
2195.3916770388087
 20
268.74999730396877
 10
2201.1094821180527
 20
275.1825280181176
 10
2204.004964630821
 20
276.6302692745021
 10
2211.195035369178
 20
276.6302692745021
 10
2214.0521782263213
 20
275.20169784593054
 10
2219.047829668928
 20
275.20169784593054
 10
2229.7945011190563
 20
270.90302926587907
 10
2238.0371306190027
 20
264.0939005485324
 10
2239.4857142857145
 20
261.19673321510896
 10
2239.4857142857145
 20
259.7711114324949
 10
2242.3428571428576
 20
254.771111432495
 10
2242.3428571428576
 20
252.62530464368027
 10
2244.5020829042705
 20
248.3068531208542
 10
2242.6669367849618
 20
245.7376485538224
 10
2241.1950353691786
 20
245.00169784593072
 10
2239.7842784990944
 20
245.00169784593072
 10
2239.069992784808
 20
244.28741213164486
 10
2234.7633829130523
 20
244.28741213164486
 10
2229.73525214915
 20
242.1324989471153
 10
2227.880723028676
 20
243.24521641939978
 10
2227.121181091528
 20
244.76430029369578
  0
LWPOLYLINE
  5
55
330
17
100
AcDbEntity
  8
M
100
AcDbPolyline
 90
24
 70
1
 10
2218.987150072334
 20
70.71598356021636
 10
2215.4335360593927
 20
70.71598356021636
 10
2212.5292328591827
 20
72.16813516032161
 10
2211.4026515212972
 20
74.04577072346463
 10
2212.142857142857
 20
74.78597634502471
 10
2212.142857142857
 20
79.05387607225178
 10
2213.5915510533596
 20
81.95126389325735
 10
2217.545305813505
 20
85.18615415155794
 10
2223.290678916536
 20
88.05884070307346
 10
2224.7169445400373
 20
88.05884070307346
 10
2231.1733524490214
 20
91.64573398584275
 10
2233.0335626856095
 20
90.5296078438903
 10
2233.7714285714287
 20
89.0538760722518
 10
2233.7714285714287
 20
84.70313363255077
 10
2233.057142857143
 20
83.98884791826511
 10
2233.057142857143
 20
79.70313363255066
 10
2232.3394696975515
 20
78.98546047295929
 10
2231.6262934667698
 20
70.42734570357545
 10
2230.5279099979603
 20
68.59670658889306
 10
2229.041536989209
 20
67.8535200845174
 10
2222.5498803199416
 20
69.29611045546558
 10
2221.8442929294765
 20
70.00169784593069
 10
2219.7014357866196
 20
70.00169784593069
 10
2218.987150072334
 20
70.71598356021636
  0
LWPOLYLINE
  5
56
330
17
100
AcDbEntity
  8
M
100
AcDbPolyline
 90
63
 70
1
 10
2166.4285714285716
 20
123.3408211609014
 10
2172.8852888022743
 20
135.53684286678524
 10
2175.46754085545
 20
136.64352231814613
 10
2181.924724254808
 20
132.33873338524094
 10
2185.438844547612
 20
131.63590932668012
 10
2190.733949291938
 20
134.81297217327602
 10
2192.1315875500127
 20
138.30706781846214
 10
2191.1006614306107
 20
140.02527801746444
 10
2189.7229099822794
 20
140.71415374163033
 10
2180.4330284240045
 20
139.99954746791687
 10
2178.595008742962
 20
141.10235927654247
 10
2177.8571428571427
 20
142.57809104818097
 10
2177.8571428571427
 20
156.200824813854
 10
2178.957804287754
 20
158.0352605315397
 10
2180.433536059393
 20
158.77312641735918
 10
2184.052178226321
 20
158.77312641735918
 10
2186.944950200439
 20
157.32674043030016
 10
2193.3735216290106
 20
150.8981690017288
 10
2194.747412812559
 20
150.2112234099543
 10
2198.245868529797
 20
151.61060569684938
 10
2199.2857142857138
 20
153.34368195671112
 10
2199.2857142857138
 20
171.91511052813968
 10
2200.3904260012755
 20
173.75629672074254
 10
2202.6176617725573
 20
174.49870864450313
 10
2210.893005935632
 20
168.382149915274
 10
2212.342857142857
 20
165.48244750082318
 10
2212.342857142857
 20
161.91511052813968
 10
2213.385052855103
 20
160.17811767439682
 10
2217.63274336201
 20
158.0542724209434
 10
2221.2104385405223
 20
157.33873338524097
 10
2223.350882582401
 20
155.9117706906552
 10
2228.342617280471
 20
155.19866573378792
 10
2232.3164671533214
 20
153.39237033703802
 10
2233.0689462560176
 20
151.8874121316449
 10
2230.914285714286
 20
147.57809104818088
 10
2230.914285714286
 20
146.1454280208645
 10
2228.7669465383215
 20
142.56652939425706
 10
2228.0526608240357
 20
138.28081510854273
 10
2226.952431141581
 20
136.44709897111872
 10
2224.7397289053974
 20
135.7095315590574
 10
2221.1462464831047
 20
137.14692452797462
 10
2215.4747831403765
 20
137.85585744581553
 10
2212.663851761613
 20
136.4503917564337
 10
2209.470170591342
 20
132.54700365943606
 10
2208.7714285714287
 20
131.14951961960952
 10
2208.7714285714287
 20
127.64311920216775
 10
2209.4857142857145
 20
126.92883348788197
 10
2209.4857142857145
 20
121.2145477735962
 10
2210.2
 20
120.50026205931042
 10
2210.2
 20
114.07169063073918
 10
2210.9328698522154
 20
113.33882077852397
 10
2209.820342072668
 20
110.74292262624708
 10
2208.3378925120355
 20
110.00169784593061
 10
2199.7014357866196
 20
110.00169784593061
 10
2198.987150072334
 20
110.71598356021639
 10
2184.7842784990944
 20
110.71598356021639
 10
2184.07502072501
 20
110.00672578613168
 10
2178.340699717867
 20
109.28993566023892
 10
2173.311047794049
 20
107.13437055003116
 10
2166.107576809816
 20
110.73610604214801
 10
2162.836757545903
 20
114.73377403137496
 10
2166.4285714285716
 20
121.19903902017836
 10
2166.4285714285716
 20
123.3408211609014
  0
LWPOLYLINE
  5
57
330
17
100
AcDbEntity
  8
M
100
AcDbPolyline
 90
21
 70
1
 10
2211.428571428571
 20
206.21454777359617
 10
2212.142857142857
 20
206.92883348788195
 10
2212.142857142857
 20
209.78597634502495
 10
2212.8571428571427
 20
210.50026205931061
 10
2212.8571428571427
 20
212.62095608628718
 10
2214.3053778633666
 20
216.24154360184744
 10
2216.1437301749343
 20
217.3445549887878
 10
2220.4157215009054
 20
217.3445549887878
 10
2221.130007215191
 20
218.05884070307346
 10
2222.6276983964945
 20
218.05884070307346
 10
2224.4726823812043
 20
216.95185031224784
 10
2225.2048567389106
 20
214.02315288142182
 10
2223.7690590322422
 20
210.43365861474982
 10
2223.0521149169417
 20
204.6981056923496
 10
2222.3428571428576
 20
203.9888479182651
 10
2222.3428571428576
 20
198.28828516372167
 10
2221.242195712246
 20
196.45384944603583
 10
2219.7417974897476
 20
195.70365033478677
 10
2212.167854277227
 20
199.6709539222975
 10
2211.428571428571
 20
201.14951961960946
 10
2211.428571428571
 20
206.21454777359617
  0
LWPOLYLINE
  5
58
330
17
100
AcDbEntity
  8
M
100
AcDbPolyline
 90
14
 70
1
 10
2204.28291263212
 20
183.29295458637918
 10
2205.0027253001263
 20
190.49108126644566
 10
2206.1006614306107
 20
192.32097481725395
 10
2207.5962144739547
 20
193.06875133892564
 10
2216.2402539552913
 20
189.46706822170222
 10
2217.342857142857
 20
187.62939624242537
 10
2217.342857142857
 20
186.14951961960958
 10
2215.888821313536
 20
183.24144796096664
 10
2214.4674840325715
 20
182.5307793204842
 10
2213.7545988748116
 20
180.39212384720693
 10
2211.9040125952456
 20
179.28177207946683
 10
2208.2815423522757
 20
180.00626612806082
 10
2205.3863757163253
 20
181.45384944603592
 10
2204.28291263212
 20
183.29295458637918
  0
LWPOLYLINE
  5
59
330
17
100
AcDbEntity
  8
M
100
AcDbPolyline
 90
33
 70
1
 10
2159.285714285714
 20
215.43831493287902
 10
2157.142857142857
 20
220.4383149328789
 10
2157.142857142857
 20
226.19673321510902
 10
2157.884081923173
 20
227.67918277574196
 10
2160.4675408554494
 20
228.78637946100332
 10
2162.630277563773
 20
227.3445549887877
 10
2166.195035369178
 20
227.3445549887877
 10
2169.0362444008147
 20
225.92395047296964
 10
2171.1047117155613
 20
226.61343957788526
 10
2172.142857142857
 20
228.34368195671118
 10
2172.142857142857
 20
230.48244750082324
 10
2173.5714285714284
 20
233.33959035796613
 10
2173.5714285714284
 20
234.78597634502475
 10
2174.2857142857138
 20
235.50026205931042
 10
2174.2857142857138
 20
237.62530464368038
 10
2176.4521516001046
 20
241.95817927246154
 10
2178.2983546586897
 20
243.06590110761294
 10
2181.242496919547
 20
242.32986554239855
 10
2183.055710725765
 20
238.34079516871964
 10
2183.7730130676396
 20
227.58126004060253
 10
2183.033562685609
 20
226.10235927654264
 10
2181.204163304896
 20
225.0047196481143
 10
2174.771626307446
 20
224.28999331506427
 10
2173.385052855103
 20
223.59670658889297
 10
2172.342857142857
 20
221.85971373515002
 10
2172.342857142857
 20
216.86380533389527
 10
2171.604611403284
 20
215.38731385474864
 10
2164.7697162192217
 20
211.43026927450214
 10
2163.3557070705233
 20
211.43026927450214
 10
2162.6228372183073
 20
210.69739942228648
 10
2160.0269390660305
 20
211.80992720183377
 10
2159.285714285714
 20
213.29237676246672
 10
2159.285714285714
 20
215.43831493287902
  0
LWPOLYLINE
  5
5A
330
17
100
AcDbEntity
  8
M
100
AcDbPolyline
 90
14
 70
1
 10
2132.8764939903954
 20
19.806864053042993
 10
2138.5851457745543
 20
24.80193436418199
 10
2138.949514487067
 20
25.895040501720533
 10
2141.1128181042986
 20
26.6161417074644
 10
2144.6794262933663
 20
30.896071534345815
 10
2146.1714285714284
 20
31.64207267337693
 10
2164.809201367715
 20
22.323186275233663
 10
2168.791372267985
 20
16.892953229410757
 10
2167.670767140817
 20
15.02527801746445
 10
2166.1945158803237
 20
14.287152387217894
 10
2133.6473036306725
 20
14.644814060290944
 10
2132.1683215436074
 20
15.384305103823714
 10
2131.4167680296964
 20
16.887412131644908
 10
2132.8764939903954
 20
19.806864053042993
  0
LWPOLYLINE
  5
5B
330
17
100
AcDbEntity
  8
M
100
AcDbPolyline
 90
56
 70
1
 10
2123.9952380952386
 20
42.858840703073554
 10
2121.124410784242
 20
45.011961186320335
 10
2118.9618545727044
 20
45.73281325683298
 10
2117.8515028049646
 20
47.58339953639889
 10
2118.576767504969
 20
51.20972303642268
 10
2120.7196246478265
 20
54.78115160785124
 10
2121.436451279791
 20
58.365284767673444
 10
2122.142857142857
 20
59.07169063073914
 10
2122.142857142857
 20
61.19673321510888
 10
2124.285714285714
 20
65.48244750082321
 10
2124.285714285714
 20
66.91396857535214
 10
2127.142857142857
 20
71.91396857535214
 10
2127.142857142857
 20
74.76816178653745
 10
2129.3101067345106
 20
79.10266096984431
 10
2132.5280277445645
 20
80.89039486431882
 10
2133.5574362457255
 20
82.606075699587
 10
2132.1211810915283
 20
85.47858600798163
 10
2132.8571428571427
 20
86.21454777359617
 10
2132.8571428571427
 20
88.33833723806706
 10
2138.5714285714284
 20
100.4811943809243
 10
2138.5714285714284
 20
102.62530464368037
 10
2140.0235801715335
 20
105.52960784389032
 10
2141.8857142857146
 20
106.64688831239877
 10
2143.7478483998952
 20
105.52960784389032
 10
2144.4857142857145
 20
104.05387607225181
 10
2144.4857142857145
 20
86.85971373515011
 10
2143.3850528551034
 20
85.0252780174644
 10
2141.909321083464
 20
84.28741213164493
 10
2139.7842784990944
 20
84.28741213164493
 10
2139.077872636028
 20
83.58100626857879
 10
2135.5155312863667
 20
82.86853799864646
 10
2133.790910604636
 20
80.45406904422315
 10
2135.888465734932
 20
76.9581438270629
 10
2138.038455510511
 20
75.52481731001015
 10
2139.4670269390826
 20
71.9533887385816
 10
2141.601604878587
 20
70.53033677891185
 10
2144.0980669870937
 20
66.6073248941158
 10
2146.9093210834644
 20
65.20169784593067
 10
2149.7664639406066
 20
65.20169784593067
 10
2152.6236067977497
 20
63.773126417359215
 10
2154.052178226321
 20
63.773126417359215
 10
2161.1950353691786
 20
60.20169784593066
 10
2164.052178226321
 20
60.20169784593066
 10
2165.5279099979607
 20
59.463831960111065
 10
2166.628571428572
 20
57.62939624242536
 10
2166.628571428572
 20
52.643119202167576
 10
2167.342857142857
 20
51.92883348788191
 10
2167.342857142857
 20
49.71250848344732
 10
2165.524079642105
 20
47.1662199823939
 10
2156.9093210834635
 20
42.858840703073554
 10
2155.4826422585784
 20
42.858840703073554
 10
2147.6096718551603
 20
38.564493210300085
 10
2144.31148936162
 20
39.66388737481375
 10
2143.236800784475
 20
42.17149405481846
 10
2141.8621074879643
 20
42.858840703073554
 10
2123.9952380952386
 20
42.858840703073554
  0
LWPOLYLINE
  5
5C
330
17
100
AcDbEntity
  8
M
100
AcDbPolyline
 90
26
 70
1
 10
2646.8514035106996
 20
53.57312641735923
 10
2643.5921298664603
 20
56.10811702954555
 10
2642.857142857142
 20
57.5780910481809
 10
2642.857142857142
 20
61.84599077540787
 10
2642.1428571428564
 20
62.560276489693535
 10
2642.1428571428564
 20
71.9151105281397
 10
2643.243518573468
 20
73.74954624582553
 10
2644.719250345107
 20
74.48741213164489
 10
2648.355707070523
 20
74.48741213164489
 10
2649.0699927848086
 20
73.77312641735922
 10
2659.056269825066
 20
73.77312641735922
 10
2660.890705542752
 20
72.6724649867474
 10
2662.3428571428567
 20
69.76816178653745
 10
2662.3428571428567
 20
63.357404916453476
 10
2663.057142857143
 20
62.643119202167696
 10
2663.057142857143
 20
59.05387607225177
 10
2663.7868241032925
 20
57.59451357995293
 10
2662.3428571428567
 20
55.42856313930034
 10
2662.3428571428567
 20
53.35740491645347
 10
2663.078818908472
 20
52.62144315083872
 10
2662.3192769713232
 20
51.10235927654239
 10
2660.46474785085
 20
49.989641804258135
 10
2655.436617086947
 20
52.14455498878778
 10
2652.5763932022496
 20
52.14455498878778
 10
2649.719250345107
 20
53.57312641735923
 10
2646.8514035106996
 20
53.57312641735923
  0
LWPOLYLINE
  5
5D
330
17
100
AcDbEntity
  8
M
100
AcDbPolyline
 90
16
 70
1
 10
2617.129702079857
 20
175.44521128593203
 10
2618.571428571428
 20
179.0495275148586
 10
2618.571428571428
 20
183.35740491645348
 10
2619.2857142857138
 20
184.07169063073914
 10
2619.2857142857138
 20
185.4824475008232
 10
2620.737865885819
 20
188.38675070103318
 10
2622.6
 20
189.50403116954163
 10
2624.466050708061
 20
188.38440074470464
 10
2625.914285714286
 20
184.76381322914438
 10
2625.914285714286
 20
180.48911826684656
 10
2627.342857142857
 20
178.34626112398945
 10
2627.342857142857
 20
174.71685659229308
 10
2626.239845755917
 20
172.87850428072628
 10
2622.6
 20
171.42256597835936
 10
2618.964228219373
 20
172.87687469060998
 10
2617.129702079857
 20
175.44521128593203
  0
LWPOLYLINE
  5
5E
330
17
100
AcDbEntity
  8
M
100
AcDbPolyline
 90
11
 70
1
 10
2589.9833703173003
 20
144.75420755643563
 10
2595.7453833356244
 20
152.67697545663094
 10
2597.6
 20
153.7897454552559
 10
2599.4621341141806
 20
152.67246498674746
 10
2600.2000000000003
 20
151.19673321510896
 10
2600.2000000000003
 20
141.1454280208645
 10
2599.0993385693887
 20
139.31099230317878
 10
2597.614032869433
 20
138.5683394532008
 10
2595.7690483851925
 20
138.9373363500489
 10
2590.7338740719706
 20
143.2532000470964
 10
2589.9833703173003
 20
144.75420755643563
  0
LWPOLYLINE
  5
5F
330
17
100
AcDbEntity
  8
M
100
AcDbPolyline
 90
20
 70
1
 10
2567.142857142857
 20
178.283937054876
 10
2567.142857142857
 20
183.3395903579661
 10
2567.8800872375286
 20
184.8140505473096
 10
2571.844278637971
 20
187.33671780213658
 10
2576.904603076825
 20
188.7825247846663
 10
2579.4666067443604
 20
186.95252216499782
 10
2580.5295179593286
 20
184.47239599673892
 10
2583.355343478786
 20
183.7659396168746
 10
2585.4874204209154
 20
182.34455498878776
 10
2587.6276983964945
 20
182.34455498878776
 10
2591.199126967923
 20
180.20169784593065
 10
2593.3419841107802
 20
180.20169784593065
 10
2595.176419828467
 20
179.10103641531882
 10
2595.9282780399885
 20
177.59731999227424
 10
2594.8136242836745
 20
175.73956373175014
 10
2590.480749654893
 20
173.57312641735922
 10
2589.0562698250656
 20
173.57312641735922
 10
2585.47256028173
 20
171.42290069135757
 10
2568.968262392005
 20
175.7283697060682
 10
2567.142857142857
 20
178.283937054876
  0
LWPOLYLINE
  5
60
330
17
100
AcDbEntity
  8
M
100
AcDbPolyline
 90
22
 70
1
 10
2573.571428571428
 20
44.07169063073913
 10
2574.2857142857138
 20
44.785976345024906
 10
2574.2857142857138
 20
48.35740491645346
 10
2575.005719095842
 20
49.077409726581365
 10
2575.7181466421557
 20
54.06440255078149
 10
2576.818997429847
 20
55.89915386359967
 10
2579.036244400814
 20
56.6382361872555
 10
2581.9169863558236
 20
55.19786520975056
 10
2586.204899609873
 20
54.48321300074244
 10
2589.461321836918
 20
52.67408954127284
 10
2590.2
 20
51.19673321510887
 10
2590.2
 20
45.50026205931057
 10
2590.9142857142856
 20
44.785976345024906
 10
2590.9142857142856
 20
39.07169063073912
 10
2591.628571428572
 20
38.357404916453454
 10
2591.628571428572
 20
33.28828516372162
 10
2590.5279099979603
 20
31.45384944603591
 10
2589.0505440054526
 20
30.715166449782117
 10
2578.636571878692
 20
31.0742689369119
 10
2575.7386147362904
 20
33.24773679371251
 10
2573.571428571428
 20
36.85971373515018
 10
2573.571428571428
 20
44.07169063073913
  0
LWPOLYLINE
  5
61
330
17
100
AcDbEntity
  8
M
100
AcDbPolyline
 90
19
 70
1
 10
2565.0240162637824
 20
123.38551277858711
 10
2567.164083023039
 20
124.81222395142466
 10
2572.1596890125984
 20
135.51709392905263
 10
2574.3035288442015
 20
137.66093376065513
 10
2575.7142857142853
 20
140.48244750082318
 10
2575.7142857142853
 20
141.91101892939463
 10
2577.16643731439
 20
144.81532212960457
 10
2579.0008730320765
 20
145.9159835602163
 10
2580.484841253637
 20
145.9159835602163
 10
2582.3192769713237
 20
144.81532212960457
 10
2583.057142857143
 20
143.33959035796607
 10
2583.057142857143
 20
130.4311423065787
 10
2581.954827147046
 20
128.59394945641768
 10
2579.4607182474656
 20
127.52504564231182
 10
2572.322798864934
 20
111.82162300074239
 10
2569.7610840542766
 20
109.99182670741558
 10
2562.5323269748465
 20
112.16045383124474
 10
2560.700135621372
 20
115.45839826749959
 10
2565.0240162637824
 20
123.38551277858711
  0
LWPOLYLINE
  5
62
330
17
100
AcDbEntity
  8
M
100
AcDbPolyline
 90
24
 70
1
 10
2561.862107487964
 20
70.00169784593069
 10
2556.1073330965205
 20
72.87908504165263
 10
2550.015425819651
 20
80.4043822660201
 10
2548.5596251725533
 20
83.3159835602163
 10
2549.3121042752496
 20
84.82094176560939
 10
2553.2874087223945
 20
86.6278983324934
 10
2559.7183220845986
 20
87.34244426162729
 10
2563.2950274739287
 20
88.77312641735924
 10
2567.57639320225
 20
88.77312641735924
 10
2570.4494698849
 20
90.20966475868408
 10
2572.672991962928
 20
89.46849073267438
 10
2574.4857142857145
 20
85.48050162254539
 10
2574.4857142857145
 20
84.06054683827513
 10
2575.9142857142856
 20
81.91768969541802
 10
2575.9142857142856
 20
79.05387607225178
 10
2577.3399603057037
 20
76.20252688941586
 10
2578.060652254176
 20
70.4369913016346
 10
2576.95989430636
 20
68.6023947219413
 10
2574.7931470047006
 20
67.15789652083481
 10
2573.317523634522
 20
66.42008483574546
 10
2568.29375994409
 20
68.57312641735925
 10
2566.1411510076555
 20
68.57312641735925
 10
2563.998293864798
 20
70.00169784593069
 10
2561.862107487964
 20
70.00169784593069
  0
LWPOLYLINE
  5
63
330
17
100
AcDbEntity
  8
M
100
AcDbPolyline
 90
15
 70
1
 10
2541.4207241063546
 20
51.18774594349318
 10
2542.5292328591822
 20
53.03526053153962
 10
2544.004964630821
 20
53.77312641735921
 10
2554.060617933912
 20
53.77312641735921
 10
2556.6069064349654
 20
51.954348916606776
 10
2557.3395571395436
 20
50.489047507449534
 10
2558.0625893805345
 20
45.42782182051586
 10
2553.3719066209783
 20
40.01549555948913
 10
2552.321914084361
 20
39.665498047283585
 10
2551.9707044039437
 20
38.61186900603175
 10
2549.0704252644405
 20
36.43665965140408
 10
2547.2288242734244
 20
36.06833945320076
 10
2545.739750115036
 20
36.81287653239518
 10
2545.0062349774403
 20
38.27990680758586
 10
2541.4207241063546
 20
51.18774594349318
  0
LWPOLYLINE
  5
64
330
17
100
AcDbEntity
  8
M
100
AcDbPolyline
 90
31
 70
1
 10
2845.383948861372
 20
98.59896300692594
 10
2843.599036876086
 20
101.81180458044115
 10
2842.168321543607
 20
102.52716224668067
 10
2841.4140474229066
 20
104.03571048808047
 10
2845.0301125238484
 20
109.82141464958717
 10
2846.4540358293207
 20
110.53337630232329
 10
2848.596892972178
 20
114.81909058803774
 10
2850.0182302531425
 20
115.52975922852005
 10
2850.729700599572
 20
117.6641702678074
 10
2853.325095461532
 20
119.51802374063591
 10
2854.0699927848086
 20
118.77312641735915
 10
2858.3557070705224
 20
118.77312641735915
 10
2859.0740409841555
 20
118.0547925037263
 10
2866.1996901780876
 20
117.3422275843331
 10
2867.6707671408167
 20
116.60668910296846
 10
2868.785420897131
 20
114.74893284244403
 10
2868.036763117977
 20
113.25161728413514
 10
2864.465334546548
 20
110.39447442699225
 10
2863.036763117977
 20
107.53733156984946
 10
2859.4622172608056
 20
104.67769488411238
 10
2858.3810025701523
 20
102.87567039969015
 10
2857.3219140843607
 20
102.52264090442642
 10
2856.964771227218
 20
101.45121233299781
 10
2855.8810025701523
 20
101.08995611397586
 10
2854.8095739987234
 20
99.30424182826158
 10
2853.7504855129323
 20
98.95121233299787
 10
2853.3933426557896
 20
97.87978376156926
 10
2852.321914084361
 20
97.52264090442641
 10
2851.962231205623
 20
96.44359226821197
 10
2850.0842982049485
 20
96.06800566807716
 10
2845.383948861372
 20
98.59896300692594
  0
LWPOLYLINE
  5
65
330
17
100
AcDbEntity
  8
M
100
AcDbPolyline
 90
115
 70
1
 10
2805.010409233367
 20
223.27009214639136
 10
2802.869103784972
 20
228.98024000877913
 10
2800.0126558924626
 20
232.5507998744155
 10
2798.5927011506874
 20
236.10068672885475
 10
2797.166760971549
 20
236.8136568184237
 10
2792.8792632955524
 20
246.1032351164164
 10
2787.5685050005027
 20
249.28969009344638
 10
2778.997076429074
 20
250.00397580773205
 10
2771.858015889219
 20
254.28741213164508
 10
2770.4985642133797
 20
254.28741213164508
 10
2769.784278499094
 20
253.5731264173592
 10
2768.2728643580485
 20
253.5731264173592
 10
2767.563872769437
 20
254.28211800597077
 10
2761.849587055151
 20
253.56783229168488
 10
2761.1300072151907
 20
254.28741213164508
 10
2757.641421356237
 20
254.28741213164508
 10
2756.9271356419513
 20
253.5731264173592
 10
2755.4157215009054
 20
253.5731264173592
 10
2754.7014357866196
 20
254.28741213164508
 10
2751.9271356419513
 20
254.28741213164508
 10
2751.2128499276655
 20
253.5731264173592
 10
2748.987150072334
 20
253.5731264173592
 10
2748.272864358048
 20
254.28741213164508
 10
2744.784278499094
 20
254.28741213164508
 10
2744.069992784808
 20
253.5731264173592
 10
2742.5585786437623
 20
253.5731264173592
 10
2741.8442929294765
 20
254.28741213164508
 10
2739.069992784808
 20
254.28741213164508
 10
2738.3557070705224
 20
253.5731264173592
 10
2736.1300072151907
 20
253.5731264173592
 10
2735.4157215009054
 20
254.28741213164508
 10
2732.641421356237
 20
254.28741213164508
 10
2731.9271356419513
 20
253.5731264173592
 10
2729.7014357866196
 20
253.5731264173592
 10
2728.987150072334
 20
254.28741213164508
 10
2725.49856421338
 20
254.28741213164508
 10
2724.784278499094
 20
253.5731264173592
 10
2722.5585786437623
 20
253.5731264173592
 10
2721.8442929294765
 20
254.28741213164508
 10
2720.3583698045445
 20
254.28741213164508
 10
2719.999052611532
 20
283.39210476564324
 10
2723.963494889244
 20
284.47331629592844
 10
2724.9849849561556
 20
286.1757997407807
 10
2719.9333843523737
 20
295.5573437192328
 10
2759.7939870127516
 20
295.9164482477047
 10
2761.628571428571
 20
293.34803006555745
 10
2761.628571428571
 20
291.20340398113234
 10
2763.0513212535957
 20
289.0692792435955
 10
2763.7617312758553
 20
285.5172291322977
 10
2766.2034750767693
 20
283.7731264173592
 10
2768.2728643580485
 20
283.7731264173592
 10
2769.028571428571
 20
284.528833487882
 10
2769.784278499094
 20
283.7731264173592
 10
2773.3557070705224
 20
283.7731264173592
 10
2774.028571428571
 20
283.1002620593107
 10
2774.7014357866196
 20
283.7731264173592
 10
2778.272864358048
 20
283.7731264173592
 10
2779.028571428571
 20
284.528833487882
 10
2779.7842784990944
 20
283.7731264173592
 10
2783.2906789165354
 20
283.7731264173592
 10
2784.762602447765
 20
284.50908818297404
 10
2785.4985642133797
 20
283.7731264173592
 10
2787.5585786437623
 20
283.7731264173592
 10
2788.2728643580485
 20
284.4874121316449
 10
2789.784278499094
 20
284.4874121316449
 10
2790.4985642133797
 20
283.7731264173592
 10
2793.2906789165354
 20
283.7731264173592
 10
2794.762602447765
 20
284.50908818297404
 10
2795.4985642133797
 20
283.7731264173592
 10
2796.844292929477
 20
283.7731264173592
 10
2797.5585786437623
 20
284.4874121316449
 10
2799.779487928002
 20
284.4874121316449
 10
2804.4683296155044
 20
280.5199307037581
 10
2805.533925853288
 20
278.03353948226226
 10
2814.764820827245
 20
273.7731264173592
 10
2816.201706135201
 20
273.7731264173592
 10
2818.3445632780586
 20
272.3445549887878
 10
2819.7664639406066
 20
272.3445549887878
 10
2828.3735216290097
 20
268.04102614458634
 10
2830.1821854415125
 20
266.2323623320838
 10
2831.6271082254593
 20
263.34251676418927
 10
2832.3409843421955
 20
251.92049889640955
 10
2833.7714285714283
 20
249.77483255256095
 10
2833.7714285714283
 20
247.63197540970373
 10
2835.1999999999994
 20
245.4891182668465
 10
2835.1999999999994
 20
243.3395903579664
 10
2836.606137744997
 20
240.52731486797174
 10
2838.7470705364026
 20
239.10002634036786
 10
2840.5256678667884
 20
235.89855114567314
 10
2841.602796352666
 20
235.5395083170474
 10
2843.7489135012393
 20
230.53190163704295
 10
2845.178727420741
 20
229.81699467729243
 10
2846.639841021415
 20
226.1642106756051
 10
2845.5201324068403
 20
224.29802965131273
 10
2841.935015493171
 20
223.58100626857868
 10
2841.2128499276655
 20
222.8588407030735
 10
2838.272864358048
 20
222.8588407030735
 10
2837.5999999999995
 20
223.53170506112195
 10
2836.9271356419513
 20
222.8588407030735
 10
2832.6414213562366
 20
222.8588407030735
 10
2831.9163892581914
 20
222.13380860502807
 10
2829.0592464010483
 20
222.84809431931373
 10
2828.355707070523
 20
222.14455498878783
 10
2825.4985642133797
 20
222.14455498878783
 10
2824.7757246144943
 20
221.42171538990263
 10
2821.204296043066
 20
222.1360011041883
 10
2820.4985642133797
 20
221.43026927450217
 10
2817.641421356237
 20
221.43026927450217
 10
2816.918581757352
 20
220.70742967561674
 10
2813.347153185923
 20
221.42171538990263
 10
2812.6414213562366
 20
220.71598356021627
 10
2809.784278499094
 20
220.71598356021627
 10
2809.0514086468784
 20
219.98311370800073
 10
2806.461856010461
 20
221.09292198075104
 10
2805.010409233367
 20
223.27009214639136
  0
LWPOLYLINE
  5
66
330
17
100
AcDbEntity
  8
M
100
AcDbPolyline
 90
36
 70
1
 10
2742.558578643762
 20
30.71598356021632
 10
2738.987150072334
 20
30.71598356021632
 10
2738.294540409377
 20
31.40859322317302
 10
2736.9093210834635
 20
30.71598356021632
 10
2733.9871500723334
 20
30.71598356021632
 10
2733.272864358048
 20
31.4302692745021
 10
2729.7014357866196
 20
31.4302692745021
 10
2728.982664717031
 20
32.14904034409072
 10
2722.5742286900704
 20
32.861088791530825
 10
2719.9999999999995
 20
33.964329658703996
 10
2719.9999999999995
 20
59.07169063073936
 10
2721.1121926567034
 20
60.18388328744317
 10
2724.0092943076625
 20
61.63243411292274
 10
2731.8481227176394
 20
60.91981334837937
 10
2732.5585786437623
 20
61.63026927450199
 10
2738.355707070523
 20
61.63026927450199
 10
2739.069992784808
 20
60.915983560216326
 10
2748.355707070523
 20
60.915983560216326
 10
2749.0699927848086
 20
60.20169784593066
 10
2752.6343107750135
 20
60.20169784593066
 10
2755.899579437738
 20
57.66204444158962
 10
2756.2504855129328
 20
56.60932621600634
 10
2758.385204239732
 20
55.89775330707314
 10
2759.099489954018
 20
54.46918187850169
 10
2761.242347096875
 20
53.75489616421603
 10
2761.9621341141806
 20
52.31532212960466
 10
2763.758396666918
 20
51.23756459796225
 10
2764.4934575814113
 20
48.29732093998918
 10
2763.0571428571425
 20
46.142848853585996
 10
2763.0571428571425
 20
37.57809104818055
 10
2762.3204234592827
 20
36.10465225246096
 10
2760.1840183100717
 20
34.680382152986965
 10
2759.8246268897137
 20
33.602207891912705
 10
2751.190705692337
 20
29.285247293224124
 10
2743.2691758325964
 20
30.005386371382503
 10
2742.558578643762
 20
30.71598356021632
  0
LWPOLYLINE
  5
67
330
17
100
AcDbEntity
  8
M
100
AcDbPolyline
 90
22
 70
1
 10
2720.3590894736767
 20
238.82754200960366
 10
2728.3721741011605
 20
235.18523081529295
 10
2729.8020930575813
 20
233.75531185887212
 10
2734.0521782263213
 20
231.63026927450215
 10
2735.480749654893
 20
231.63026927450215
 10
2748.3850528551025
 20
225.17811767439733
 10
2749.4977703273867
 20
223.32358855392366
 10
2748.3885106383805
 20
220.73531594624228
 10
2746.232685982756
 20
220.01670772770098
 10
2744.089828839899
 20
217.15956487055797
 10
2741.9566328111605
 20
216.44849952764523
 10
2741.242347096875
 20
215.0199280990739
 10
2739.099489954018
 20
214.30564238478811
 10
2738.3888213135356
 20
212.8843051038235
 10
2735.485404463802
 20
211.43259667895686
 10
2728.3597552698698
 20
210.72003175956354
 10
2727.6197453049076
 20
209.9800217946016
 10
2726.1478217736785
 20
210.71598356021636
 10
2724.0699927848086
 20
210.71598356021636
 10
2723.3510110835177
 20
209.99700185892556
 10
2719.9988606257184
 20
210.3694630209032
 10
2720.3590894736767
 20
238.82754200960366
  0
LWPOLYLINE
  5
68
330
17
100
AcDbEntity
  8
M
100
AcDbPolyline
 90
14
 70
1
 10
2719.9999999999995
 20
7.643119202168092
 10
2721.1300072151907
 20
8.773126417359167
 10
2723.355707070523
 20
8.773126417359167
 10
2724.0699927848086
 20
8.0588407030735
 10
2730.4985642133797
 20
8.0588407030735
 10
2731.212849927666
 20
7.3445549887877215
 10
2734.7014357866196
 20
7.3445549887877215
 10
2735.415721500905
 20
8.0588407030735
 10
2736.9177607910547
 20
8.0588407030735
 10
2739.464049292108
 20
6.240063202321289
 10
2740.201829818586
 20
4.764502149365746
 10
2739.83532965325
 20
0.0
 10
2719.9999999999995
 20
0.3606423573317974
 10
2719.9999999999995
 20
7.643119202168092
  0
LWPOLYLINE
  5
69
330
17
100
AcDbEntity
  8
M
100
AcDbPolyline
 90
51
 70
1
 10
3188.99503777561
 20
64.28847437994489
 10
3186.450236422177
 20
66.10618963239712
 10
3184.9999999999995
 20
69.00666247675203
 10
3184.9999999999995
 20
76.8571345678718
 10
3183.5714285714284
 20
78.9999917107289
 10
3183.5714285714284
 20
86.9110189293949
 10
3184.30737927932
 20
88.38292034517836
 10
3186.853667780373
 20
90.20169784593068
 10
3193.2728643580476
 20
90.20169784593068
 10
3193.9871500723334
 20
90.91598356021635
 10
3200.415721500905
 20
90.91598356021635
 10
3201.1300072151907
 20
91.63026927450201
 10
3204.064776422089
 20
91.63026927450201
 10
3208.323740451519
 20
88.08113258331052
 10
3210.020823039058
 20
89.09938213583402
 10
3211.093943641617
 20
91.60333020847133
 10
3212.5721552697983
 20
92.3424360225622
 10
3220.42530833658
 20
93.05635902863318
 10
3222.16643731439
 20
94.10103641531909
 10
3222.857142857142
 20
95.48244750082358
 10
3222.857142857142
 20
99.06054683827526
 10
3224.2857142857138
 20
101.20340398113237
 10
3224.2857142857138
 20
108.34803006555715
 10
3226.104491786466
 20
110.89431856661025
 10
3227.5763932022496
 20
111.63026927450204
 10
3231.8442929294765
 20
111.63026927450204
 10
3232.5585786437623
 20
112.34455498878782
 10
3240.4807496548924
 20
112.34455498878782
 10
3241.955209844236
 20
111.60732489411596
 10
3244.4857142857136
 20
107.63081791465068
 10
3244.4857142857136
 20
106.19673321510925
 10
3248.0425530537677
 20
99.08305567900189
 10
3250.1999999999994
 20
96.20645975069253
 10
3250.1999999999994
 20
94.06054683827524
 10
3251.6439669604347
 20
91.89459639762254
 10
3250.8907055427517
 20
90.38807356225654
 10
3249.0591275509155
 20
89.28912676715473
 10
3237.6348200924376
 20
88.57510755099985
 10
3235.1880844091834
 20
86.82743920581848
 10
3234.4791194997424
 20
83.99157956805514
 10
3232.3428571428567
 20
80.43114230657878
 10
3232.3428571428567
 20
78.29237676246636
 10
3228.7714285714283
 20
71.14951961960914
 10
3228.7714285714283
 20
68.99903162671495
 10
3225.5247791206966
 20
64.30942686454699
 10
3224.052178226321
 20
63.57312641735924
 10
3213.9871500723334
 20
63.57312641735924
 10
3213.2728643580476
 20
64.2874121316449
 10
3211.2128499276655
 20
64.2874121316449
 10
3210.497174292083
 20
63.57173649606251
 10
3188.99503777561
 20
64.28847437994489
  0
LWPOLYLINE
  5
6A
330
17
100
AcDbEntity
  8
M
100
AcDbPolyline
 90
141
 70
1
 10
3123.644551579537
 20
211.7897830736535
 10
3119.721196223385
 20
213.57312641735925
 10
3117.5697224362266
 20
213.57312641735925
 10
3115.4268652933692
 20
215.0016978459307
 10
3112.5763932022496
 20
215.0016978459307
 10
3108.2906789165354
 20
217.14455498878783
 10
3106.141151007655
 20
217.14455498878783
 10
3103.9982938647977
 20
218.57312641735928
 10
3101.855436721941
 20
218.57312641735928
 10
3099.7125795790835
 20
220.0016978459306
 10
3096.1478217736776
 20
220.0016978459306
 10
3093.290678916535
 20
221.43026927450217
 10
3091.858015889219
 20
221.43026927450217
 10
3088.2865873177907
 20
223.57312641735916
 10
3085.4250963518016
 20
223.57312641735916
 10
3082.875176844679
 20
225.39449749387518
 10
3081.443346839158
 20
228.97407250767776
 10
3080.397906942418
 20
230.01951240441764
 10
3077.5763932022496
 20
231.43026927450217
 10
3072.5697224362266
 20
231.43026927450217
 10
3070.4268652933692
 20
232.8588407030735
 10
3066.855436721941
 20
232.8588407030735
 10
3064.7125795790835
 20
234.28741213164506
 10
3061.130007215191
 20
234.28741213164506
 10
3059.9999999999995
 20
235.41741934683625
 10
3059.9999999999995
 20
265.50026205931067
 10
3061.130007215191
 20
266.63026927450204
 10
3066.1300072151907
 20
266.63026927450204
 10
3066.865968980806
 20
267.36623104011693
 10
3068.3378925120355
 20
266.63026927450204
 10
3071.862107487964
 20
266.63026927450204
 10
3073.3340310191934
 20
267.36623104011693
 10
3074.069992784808
 20
266.63026927450204
 10
3078.290678916535
 20
266.63026927450204
 10
3079.7626024477645
 20
267.36623104011693
 10
3080.4985642133797
 20
266.63026927450204
 10
3084.0049646308207
 20
266.63026927450204
 10
3085.4768881620503
 20
267.36623104011693
 10
3086.186930020391
 20
266.6561891817766
 10
3087.8807230286757
 20
267.67246498674757
 10
3088.571428571428
 20
269.05387607225197
 10
3088.571428571428
 20
271.91768969541795
 10
3089.9999999999995
 20
274.0605468382752
 10
3089.9999999999995
 20
280.4352339053236
 10
3089.3060940248793
 20
281.82304585556386
 10
3085.740979013298
 20
284.675137864829
 10
3083.966099006694
 20
287.1599698740744
 10
3082.8904260012755
 20
287.5185275425475
 10
3081.817297101225
 20
289.3070757092978
 10
3078.2902705811807
 20
290.71788631731556
 10
3071.1366880661853
 20
291.43324456881516
 10
3068.998293864798
 20
292.85884070307355
 10
3066.1437301749334
 20
292.85884070307355
 10
3064.2963318053817
 20
293.96727972480465
 10
3063.906591038299
 20
295.91598356021643
 10
3112.6913214637925
 20
295.91598356021643
 10
3113.0599279503817
 20
291.8613122077308
 10
3111.628571428571
 20
289.71427742501487
 10
3111.628571428571
 20
283.3436819567111
 10
3112.6707671408167
 20
281.6066891029688
 10
3114.052178226321
 20
280.9159835602163
 10
3115.4157215009054
 20
280.9159835602163
 10
3116.15168326652
 20
281.6519453258314
 10
3117.6236067977497
 20
280.9159835602163
 10
3120.4335360593923
 20
280.9159835602163
 10
3121.905459590622
 20
281.6519453258314
 10
3122.6414213562366
 20
280.9159835602163
 10
3124.701435786619
 20
280.9159835602163
 10
3125.415721500905
 20
281.6302692745022
 10
3127.6414213562366
 20
281.6302692745022
 10
3128.3557070705224
 20
280.9159835602163
 10
3130.415721500905
 20
280.9159835602163
 10
3131.1300072151907
 20
281.6302692745022
 10
3132.6414213562366
 20
281.6302692745022
 10
3133.3557070705224
 20
280.9159835602163
 10
3135.4157215009054
 20
280.9159835602163
 10
3136.1300072151907
 20
281.6302692745022
 10
3137.641421356237
 20
281.6302692745022
 10
3138.3557070705224
 20
280.9159835602163
 10
3139.701435786619
 20
280.9159835602163
 10
3140.4157215009054
 20
281.6302692745022
 10
3142.6414213562366
 20
281.6302692745022
 10
3143.355707070523
 20
280.9159835602163
 10
3144.701435786619
 20
280.9159835602163
 10
3145.415721500905
 20
281.6302692745022
 10
3147.6414213562366
 20
281.6302692745022
 10
3148.3557070705224
 20
280.9159835602163
 10
3150.415721500905
 20
280.9159835602163
 10
3151.1300072151907
 20
281.6302692745022
 10
3152.6236067977497
 20
281.6302692745022
 10
3154.028571428571
 20
280.92778695909124
 10
3155.4615207107986
 20
281.64426160020537
 10
3157.3192769713232
 20
280.52960784389046
 10
3158.0711351828454
 20
279.02589142084577
 10
3156.9541314702024
 20
277.1642185664406
 10
3153.389883545692
 20
275.7385193966365
 10
3152.320342072668
 20
273.24292262624704
 10
3150.8960554611417
 20
272.530779320484
 10
3150.5361997986465
 20
271.45121233299784
 10
3148.3721854970245
 20
270.7298742324572
 10
3144.0864712113103
 20
265.7298742324573
 10
3143.0361997986465
 20
265.37978376156934
 10
3142.679056941504
 20
264.30835519014073
 10
3141.607628370075
 20
263.951212332998
 10
3141.2516302906106
 20
262.8832180946038
 10
3137.6599423193197
 20
261.4465429060876
 10
3133.3721854970245
 20
256.44415994674296
 10
3132.3219140843607
 20
256.094069475855
 10
3131.966381899688
 20
255.0274729218357
 10
3129.466381899688
 20
253.9560443504071
 10
3129.110341175428
 20
252.8879221776269
 10
3126.195035369178
 20
251.43026927450197
 10
3124.701435786619
 20
251.43026927450197
 10
3123.987150072334
 20
252.14455498878786
 10
3118.987150072334
 20
252.14455498878786
 10
3118.278930375226
 20
252.8527746858954
 10
3113.278930375226
 20
252.13848897160972
 10
3112.5554469041626
 20
252.8619724426734
 10
3103.3451628762546
 20
253.5704558294355
 10
3100.1792987049676
 20
251.10811702954584
 10
3098.7714285714283
 20
248.2923767624664
 10
3098.7714285714283
 20
246.1495196196094
 10
3095.914285714285
 20
240.43523390532363
 10
3095.914285714285
 20
238.28570599644328
 10
3094.49189574958
 20
236.15212104938587
 10
3095.189382480332
 20
232.66468739562808
 10
3100.484841253637
 20
229.48741213164493
 10
3102.6259126028194
 20
229.48741213164493
 10
3109.0544840313905
 20
225.91598356021635
 10
3111.199126967923
 20
225.91598356021635
 10
3114.7705555393513
 20
223.77312641735912
 10
3117.627698396494
 20
223.77312641735912
 10
3121.199126967923
 20
221.63026927450213
 10
3122.6302775637723
 20
221.63026927450213
 10
3124.7731347066297
 20
220.20169784593057
 10
3126.195035369178
 20
220.20169784593057
 10
3129.095508213533
 20
218.75146142375323
 10
3130.9306543328416
 20
216.18225685672144
 10
3129.4640492921076
 20
213.24904677525436
 10
3126.912701269245
 20
211.42665533035265
 10
3123.644551579537
 20
211.7897830736535
  0
LWPOLYLINE
  5
6B
330
17
100
AcDbEntity
  8
M
100
AcDbPolyline
 90
63
 70
1
 10
3138.276674380264
 20
168.5780155975244
 10
3136.1411510076546
 20
170.00169784593066
 10
3133.9871500723334
 20
170.00169784593066
 10
3133.272864358048
 20
170.71598356021633
 10
3129.7125795790835
 20
170.71598356021633
 10
3127.569722436226
 20
172.14455498878777
 10
3125.415721500905
 20
172.14455498878777
 10
3124.701435786619
 20
172.85884070307355
 10
3121.8554367219404
 20
172.85884070307355
 10
3119.712579579083
 20
174.287412131645
 10
3117.558578643762
 20
174.287412131645
 10
3116.8442929294765
 20
175.00169784593066
 10
3113.9982938647977
 20
175.00169784593066
 10
3111.849886309107
 20
176.43396954972422
 10
3106.1356005948214
 20
177.1482552640099
 10
3103.9982938647977
 20
178.57312641735922
 10
3100.4335360593927
 20
178.57312641735922
 10
3098.9616346436087
 20
179.309077125251
 10
3097.1428571428564
 20
181.85536562630412
 10
3097.1428571428564
 20
186.14951961960924
 10
3095.739750115035
 20
188.9557336752522
 10
3094.3039445388567
 20
189.67363646334135
 10
3093.9495144870666
 20
190.73692661871212
 10
3089.6969692406074
 20
192.15444170086516
 10
3084.6969692406074
 20
195.72587027229372
 10
3080.3862243316958
 20
197.16278524193098
 10
3079.6692471323922
 20
198.59673964053758
 10
3075.733207113256
 20
200.3858487401452
 10
3074.992033087246
 20
202.6093708181739
 10
3077.880723028676
 20
208.3867507010333
 10
3079.7151587463622
 20
209.4874121316449
 10
3081.2017061352017
 20
209.4874121316449
 10
3083.344563278058
 20
208.05884070307357
 10
3085.4874204209154
 20
208.05884070307357
 10
3087.630277563773
 20
206.630269274502
 10
3092.630277563773
 20
206.630269274502
 10
3094.7731347066297
 20
205.20169784593068
 10
3096.915991849487
 20
205.20169784593068
 10
3101.238965979558
 20
202.3197150925501
 10
3104.8014676099865
 20
198.044713136036
 10
3106.946971697041
 20
197.32954510701762
 10
3109.0944073499213
 20
194.46629756984478
 10
3111.900621405564
 20
193.06319054202336
 10
3119.7109133146064
 20
194.4832436163948
 10
3124.004964630821
 20
196.630269274502
 10
3125.4985642133797
 20
196.630269274502
 10
3126.1911738763365
 20
195.9376596115454
 10
3127.6197453049076
 20
196.6519453258311
 10
3128.3557070705224
 20
195.91598356021635
 10
3130.484841253637
 20
195.91598356021635
 10
3134.0562698250656
 20
193.7731264173592
 10
3135.4848412536376
 20
193.7731264173592
 10
3139.0627047048497
 20
191.6264083466319
 10
3144.0627047048497
 20
190.91212263234613
 10
3147.6276983964945
 20
188.7731264173592
 10
3149.052178226321
 20
188.7731264173592
 10
3151.956481426531
 20
187.32097481725418
 10
3153.064203261682
 20
185.47477175866933
 10
3152.334578036175
 20
182.55627085664307
 10
3149.4704192081326
 20
178.97607232158995
 10
3144.4621341141806
 20
168.95950213368516
 10
3142.6198778205107
 20
167.85414835748335
 10
3138.276674380264
 20
168.5780155975244
  0
LWPOLYLINE
  5
6C
330
17
100
AcDbEntity
  8
M
100
AcDbPolyline
 90
49
 70
1
 10
3059.9994007767923
 20
33.93771225466868
 10
3060.357785937289
 20
89.4874121316449
 10
3068.2728643580476
 20
89.4874121316449
 10
3068.9871500723334
 20
90.20169784593068
 10
3086.9200250607278
 20
90.20169784593068
 10
3090.185293723452
 20
87.66204444158964
 10
3090.5378104711162
 20
86.60449419859695
 10
3093.027956493512
 20
85.53728876042732
 10
3094.813670779227
 20
82.3230030461416
 10
3097.315918076826
 20
81.25061134717038
 10
3098.7714285714283
 20
78.33959035796644
 10
3098.7714285714283
 20
76.8571345678718
 10
3097.3428571428567
 20
74.71427742501457
 10
3097.3428571428567
 20
70.42856313930035
 10
3095.927538757929
 20
68.30558556190924
 10
3096.963199215525
 20
65.88904449418564
 10
3098.337892512035
 20
65.20169784593067
 10
3102.6414213562366
 20
65.20169784593067
 10
3103.3588388101225
 20
64.48428039204524
 10
3112.6445530958367
 20
63.76999467775957
 10
3113.3557070705224
 20
63.058840703073436
 10
3118.355707070523
 20
63.058840703073436
 10
3119.069992784808
 20
62.34455498878777
 10
3123.355707070523
 20
62.34455498878777
 10
3124.0729046672295
 20
61.6273573920808
 10
3134.0729046672295
 20
60.91307167779514
 10
3134.784278499094
 20
60.20169784593066
 10
3136.1300072151907
 20
60.20169784593066
 10
3136.8659689808055
 20
60.9376596115454
 10
3141.242195712245
 20
58.74954624582563
 10
3142.3594761807535
 20
56.88741213164494
 10
3141.238145427295
 20
55.018527542547325
 10
3140.1756226084694
 20
54.66435326960539
 10
3138.7587726789648
 20
51.12222844584424
 10
3135.9011743178194
 20
47.550230494412425
 10
3132.330014139639
 20
38.97944606677917
 10
3129.8078665306703
 20
35.73668485524817
 10
3128.337892512035
 20
35.00169784593066
 10
3116.927135641951
 20
35.00169784593066
 10
3116.2128499276655
 20
34.28741213164488
 10
3101.9271356419513
 20
34.28741213164488
 10
3101.2128499276655
 20
33.57312641735921
 10
3093.2865873177902
 20
33.57312641735921
 10
3089.715158746362
 20
35.71598356021632
 10
3079.784278499094
 20
35.71598356021632
 10
3079.069992784808
 20
35.00169784593066
 10
3066.9159918494875
 20
35.00169784593066
 10
3064.769605253718
 20
33.57077344875137
 10
3059.9994007767923
 20
33.93771225466868
  0
LWPOLYLINE
  5
6D
330
17
100
AcDbEntity
  8
M
100
AcDbPolyline
 90
31
 70
1
 10
3095.0749679123205
 20
115.35955334803828
 10
3093.585569381803
 20
116.10425261329671
 10
3092.864329657627
 20
118.98921151000219
 10
3091.4285714285706
 20
121.14284885358606
 10
3091.4285714285706
 20
128.28570599644317
 10
3089.9999999999995
 20
130.42856313930028
 10
3089.9999999999995
 20
136.85713456787175
 10
3088.571428571428
 20
138.99999171072898
 10
3088.571428571428
 20
142.62530464368072
 10
3089.303528844201
 20
144.08950518922668
 10
3090.4000498113737
 20
145.1860261563993
 10
3095.3840819231727
 20
147.32203991859893
 10
3096.1038583450513
 20
148.76159276235578
 10
3099.703847173763
 20
149.48159052809817
 10
3101.8554367219404
 20
150.9159835602164
 10
3104.069992784808
 20
150.9159835602164
 10
3104.784278499094
 20
150.20169784593062
 10
3109.784278499094
 20
150.20169784593062
 10
3110.4985642133797
 20
149.48741213164496
 10
3115.4807496548924
 20
149.48741213164496
 10
3119.813624283674
 20
147.32097481725415
 10
3120.919925766463
 20
145.47713901260474
 10
3120.1954317178693
 20
141.85466876963437
 10
3114.485714285714
 20
130.4352339053234
 10
3114.485714285714
 20
128.99999171072895
 10
3113.0571428571425
 20
126.85713456787173
 10
3113.0571428571425
 20
124.71799854508025
 10
3110.193668497268
 20
119.70691841530024
 10
3109.4737986948976
 20
116.82743920581851
 10
3106.9163949238205
 20
115.00072222647762
 10
3095.0749679123205
 20
115.35955334803828
  0
ENDSEC
  0
SECTION
  2
OBJECTS
  0
DICTIONARY
  5
A
330
0
100
AcDbDictionary
281
1
  3
ACAD_COLOR
350
B
  3
ACAD_GROUP
350
C
  3
ACAD_LAYOUT
350
D
  3
ACAD_MATERIAL
350
E
  3
ACAD_MLEADERSTYLE
350
F
  3
ACAD_MLINESTYLE
350
10
  3
ACAD_PLOTSETTINGS
350
11
  3
ACAD_PLOTSTYLENAME
350
12
  3
ACAD_SCALELIST
350
14
  3
ACAD_TABLESTYLE
350
15
  3
ACAD_VISUALSTYLE
350
16
  3
EZDXF_META
350
2D
  0
DICTIONARY
  5
B
330
A
100
AcDbDictionary
281
1
  0
DICTIONARY
  5
C
330
A
100
AcDbDictionary
281
1
  0
DICTIONARY
  5
D
330
A
100
AcDbDictionary
281
1
  3
Model
350
1A
  3
Layout1
350
1E
  0
DICTIONARY
  5
E
330
A
100
AcDbDictionary
281
1
  3
ByBlock
350
1F
  3
ByLayer
350
20
  3
Global
350
21
  0
DICTIONARY
  5
F
330
A
100
AcDbDictionary
281
1
  3
Standard
350
2C
  0
DICTIONARY
  5
10
330
A
100
AcDbDictionary
281
1
  3
Standard
350
22
  0
DICTIONARY
  5
11
330
A
100
AcDbDictionary
281
1
  0
ACDBDICTIONARYWDFLT
  5
12
330
A
100
AcDbDictionary
281
1
  3
Normal
350
13
100
AcDbDictionaryWithDefault
340
13
  0
ACDBPLACEHOLDER
  5
13
330
12
  0
DICTIONARY
  5
14
330
A
100
AcDbDictionary
281
1
  0
DICTIONARY
  5
15
330
A
100
AcDbDictionary
281
1
  0
DICTIONARY
  5
16
330
A
100
AcDbDictionary
281
1
  0
LAYOUT
  5
1A
330
D
100
AcDbPlotSettings
  1

  4
A3
  6

 40
7.5
 41
20.0
 42
7.5
 43
20.0
 44
420.0
 45
297.0
 46
0.0
 47
0.0
 48
0.0
 49
0.0
140
0.0
141
0.0
142
1.0
143
1.0
 70
1024
 72
1
 73
0
 74
5
  7

 75
16
 76
0
 77
2
 78
300
147
1.0
148
0.0
149
0.0
100
AcDbLayout
  1
Model
 70
1
 71
0
 10
0.0
 20
0.0
 11
420.0
 21
297.0
 12
0.0
 22
0.0
 32
0.0
 14
1e+20
 24
1e+20
 34
1e+20
 15
-1e+20
 25
-1e+20
 35
-1e+20
146
0.0
 13
0.0
 23
0.0
 33
0.0
 16
1.0
 26
0.0
 36
0.0
 17
0.0
 27
1.0
 37
0.0
 76
1
330
17
  0
LAYOUT
  5
1E
330
D
100
AcDbPlotSettings
  1

  4
A3
  6

 40
7.5
 41
20.0
 42
7.5
 43
20.0
 44
420.0
 45
297.0
 46
0.0
 47
0.0
 48
0.0
 49
0.0
140
0.0
141
0.0
142
1.0
143
1.0
 70
0
 72
1
 73
0
 74
5
  7

 75
16
 76
0
 77
2
 78
300
147
1.0
148
0.0
149
0.0
100
AcDbLayout
  1
Layout1
 70
1
 71
1
 10
0.0
 20
0.0
 11
420.0
 21
297.0
 12
0.0
 22
0.0
 32
0.0
 14
1e+20
 24
1e+20
 34
1e+20
 15
-1e+20
 25
-1e+20
 35
-1e+20
146
0.0
 13
0.0
 23
0.0
 33
0.0
 16
1.0
 26
0.0
 36
0.0
 17
0.0
 27
1.0
 37
0.0
 76
1
330
1B
  0
MATERIAL
  5
1F
102
{ACAD_REACTORS
330
E
102
}
330
E
100
AcDbMaterial
  1
ByBlock
  2

 70
0
 40
1.0
 71
1
 41
1.0
 91
-1023410177
 42
1.0
 72
1
  3

 73
1
 74
1
 75
1
 44
0.5
 73
0
 45
1.0
 46
1.0
 77
1
  4

 78
1
 79
1
170
1
 48
1.0
171
1
  6

172
1
173
1
174
1
140
1.0
141
1.0
175
1
  7

176
1
177
1
178
1
143
1.0
179
1
  8

270
1
271
1
272
1
145
1.0
146
1.0
273
1
  9

274
1
275
1
276
1
 42
1.0
 72
1
  3

 73
1
 74
1
 75
1
 94
63
  0
MATERIAL
  5
20
102
{ACAD_REACTORS
330
E
102
}
330
E
100
AcDbMaterial
  1
ByLayer
  2

 70
0
 40
1.0
 71
1
 41
1.0
 91
-1023410177
 42
1.0
 72
1
  3

 73
1
 74
1
 75
1
 44
0.5
 73
0
 45
1.0
 46
1.0
 77
1
  4

 78
1
 79
1
170
1
 48
1.0
171
1
  6

172
1
173
1
174
1
140
1.0
141
1.0
175
1
  7

176
1
177
1
178
1
143
1.0
179
1
  8

270
1
271
1
272
1
145
1.0
146
1.0
273
1
  9

274
1
275
1
276
1
 42
1.0
 72
1
  3

 73
1
 74
1
 75
1
 94
63
  0
MATERIAL
  5
21
102
{ACAD_REACTORS
330
E
102
}
330
E
100
AcDbMaterial
  1
Global
  2

 70
0
 40
1.0
 71
1
 41
1.0
 91
-1023410177
 42
1.0
 72
1
  3

 73
1
 74
1
 75
1
 44
0.5
 73
0
 45
1.0
 46
1.0
 77
1
  4

 78
1
 79
1
170
1
 48
1.0
171
1
  6

172
1
173
1
174
1
140
1.0
141
1.0
175
1
  7

176
1
177
1
178
1
143
1.0
179
1
  8

270
1
271
1
272
1
145
1.0
146
1.0
273
1
  9

274
1
275
1
276
1
 42
1.0
 72
1
  3

 73
1
 74
1
 75
1
 94
63
  0
MLINESTYLE
  5
22
102
{ACAD_REACTORS
330
10
102
}
330
10
100
AcDbMlineStyle
  2
Standard
 70
0
  3

 62
256
 51
90.0
 52
90.0
 71
2
 49
0.5
 62
256
  6
BYLAYER
 49
-0.5
 62
256
  6
BYLAYER
  0
MLEADERSTYLE
  5
2C
102
{ACAD_REACTORS
330
F
102
}
330
F
100
AcDbMLeaderStyle
179
2
170
2
171
1
172
0
 90
2
 40
0.0
 41
0.0
173
1
 91
-1056964608
 92
-2
290
1
 42
2.0
291
1
 43
8.0
  3
Standard
 44
4.0
300

342
29
174
1
175
1
176
0
178
1
 93
-1056964608
 45
4.0
292
0
297
0
 46
4.0
 94
-1056964608
 47
1.0
 49
1.0
140
1.0
294
1
141
0.0
177
0
142
1.0
295
0
296
0
143
3.75
271
0
272
9
273
9
  0
DICTIONARY
  5
2D
330
A
100
AcDbDictionary
280
1
281
1
  3
CREATED_BY_EZDXF
350
2E
  3
WRITTEN_BY_EZDXF
350
70
  0
DICTIONARYVAR
  5
2E
330
2D
100
DictionaryVariables
280
0
  1
1.4.4 @ 2026-07-17T12:30:12.380118+00:00
  0
DICTIONARYVAR
  5
70
330
2D
100
DictionaryVariables
280
0
  1
1.4.4 @ 2026-07-17T12:30:12.400932+00:00
  0
ENDSEC
  0
EOF
