  0
SECTION
  2
HEADER
  9
$ACADVER
  1
AC1027
  9
$ACADMAINTVER
 70
105
  9
$DWGCODEPAGE
  3
ANSI_1252
  9
$LASTSAVEDBY
  1
ezdxf
  9
$REQUIREDVERSIONS
160
0
  9
$INSBASE
 10
0.0
 20
0.0
 30
0.0
  9
$EXTMIN
 10
1e+20
 20
1e+20
 30
1e+20
  9
$EXTMAX
 10
-1e+20
 20
-1e+20
 30
-1e+20
  9
$LIMMIN
 10
0.0
 20
0.0
  9
$LIMMAX
 10
420.0
 20
297.0
  9
$ORTHOMODE
 70
0
  9
$REGENMODE
 70
1
  9
$FILLMODE
 70
1
  9
$QTEXTMODE
 70
0
  9
$MIRRTEXT
 70
1
  9
$LTSCALE
 40
1.0
  9
$ATTMODE
 70
1
  9
$TEXTSIZE
 40
2.5
  9
$TRACEWID
 40
1.0
  9
$TEXTSTYLE
  7
Standard
  9
$CLAYER
  8
0
  9
$CELTYPE
  6
ByLayer
  9
$CECOLOR
 62
256
  9
$CELTSCALE
 40
1.0
  9
$DISPSILH
 70
0
  9
$DIMSCALE
 40
1.0
  9
$DIMASZ
 40
2.5
  9
$DIMEXO
 40
0.625
  9
$DIMDLI
 40
3.75
  9
$DIMRND
 40
0.0
  9
$DIMDLE
 40
0.0
  9
$DIMEXE
 40
1.25
  9
$DIMTP
 40
0.0
  9
$DIMTM
 40
0.0
  9
$DIMTXT
 40
2.5
  9
$DIMCEN
 40
2.5
  9
$DIMTSZ
 40
0.0
  9
$DIMTOL
 70
0
  9
$DIMLIM
 70
0
  9
$DIMTIH
 70
0
  9
$DIMTOH
 70
0
  9
$DIMSE1
 70
0
  9
$DIMSE2
 70
0
  9
$DIMTAD
 70
1
  9
$DIMZIN
 70
8
  9
$DIMBLK
  1

  9
$DIMASO
 70
1
  9
$DIMSHO
 70
1
  9
$DIMPOST
  1

  9
$DIMAPOST
  1

  9
$DIMALT
 70
0
  9
$DIMALTD
 70
3
  9
$DIMALTF
 40
0.03937007874
  9
$DIMLFAC
 40
1.0
  9
$DIMTOFL
 70
1
  9
$DIMTVP
 40
0.0
  9
$DIMTIX
 70
0
  9
$DIMSOXD
 70
0
  9
$DIMSAH
 70
0
  9
$DIMBLK1
  1

  9
$DIMBLK2
  1

  9
$DIMSTYLE
  2
ISO-25
  9
$DIMCLRD
 70
0
  9
$DIMCLRE
 70
0
  9
$DIMCLRT
 70
0
  9
$DIMTFAC
 40
1.0
  9
$DIMGAP
 40
0.625
  9
$DIMJUST
 70
0
  9
$DIMSD1
 70
0
  9
$DIMSD2
 70
0
  9
$DIMTOLJ
 70
0
  9
$DIMTZIN
 70
8
  9
$DIMALTZ
 70
0
  9
$DIMALTTZ
 70
0
  9
$DIMUPT
 70
0
  9
$DIMDEC
 70
2
  9
$DIMTDEC
 70
2
  9
$DIMALTU
 70
2
  9
$DIMALTTD
 70
3
  9
$DIMTXSTY
  7
Standard
  9
$DIMAUNIT
 70
0
  9
$DIMADEC
 70
0
  9
$DIMALTRND
 40
0.0
  9
$DIMAZIN
 70
0
  9
$DIMDSEP
 70
44
  9
$DIMATFIT
 70
3
  9
$DIMFRAC
 70
0
  9
$DIMLDRBLK
  1

  9
$DIMLUNIT
 70
2
  9
$DIMLWD
 70
-2
  9
$DIMLWE
 70
-2
  9
$DIMTMOVE
 70
0
  9
$DIMFXL
 40
1.0
  9
$DIMFXLON
 70
0
  9
$DIMJOGANG
 40
0.785398163397
  9
$DIMTFILL
 70
0
  9
$DIMTFILLCLR
 70
0
  9
$DIMARCSYM
 70
0
  9
$DIMLTYPE
  6

  9
$DIMLTEX1
  6

  9
$DIMLTEX2
  6

  9
$DIMTXTDIRECTION
 70
0
  9
$LUNITS
 70
2
  9
$LUPREC
 70
4
  9
$SKETCHINC
 40
1.0
  9
$FILLETRAD
 40
10.0
  9
$AUNITS
 70
0
  9
$AUPREC
 70
2
  9
$MENU
  1
.
  9
$ELEVATION
 40
0.0
  9
$PELEVATION
 40
0.0
  9
$THICKNESS
 40
0.0
  9
$LIMCHECK
 70
0
  9
$CHAMFERA
 40
0.0
  9
$CHAMFERB
 40
0.0
  9
$CHAMFERC
 40
0.0
  9
$CHAMFERD
 40
0.0
  9
$SKPOLY
 70
0
  9
$TDCREATE
 40
2461230.7868981482
  9
$TDUCREATE
 40
2458532.153996898
  9
$TDUPDATE
 40
2461230.7868981482
  9
$TDUUPDATE
 40
2458532.1544311
  9
$TDINDWG
 40
0.0
  9
$TDUSRTIMER
 40
0.0
  9
$USRTIMER
 70
1
  9
$ANGBASE
 50
0.0
  9
$ANGDIR
 70
0
  9
$PDMODE
 70
0
  9
$PDSIZE
 40
0.0
  9
$PLINEWID
 40
0.0
  9
$SPLFRAME
 70
0
  9
$SPLINETYPE
 70
6
  9
$SPLINESEGS
 70
8
  9
$HANDSEED
  5
42
  9
$SURFTAB1
 70
6
  9
$SURFTAB2
 70
6
  9
$SURFTYPE
 70
6
  9
$SURFU
 70
6
  9
$SURFV
 70
6
  9
$UCSBASE
  2

  9
$UCSNAME
  2

  9
$UCSORG
 10
0.0
 20
0.0
 30
0.0
  9
$UCSXDIR
 10
1.0
 20
0.0
 30
0.0
  9
$UCSYDIR
 10
0.0
 20
1.0
 30
0.0
  9
$UCSORTHOREF
  2

  9
$UCSORTHOVIEW
 70
0
  9
$UCSORGTOP
 10
0.0
 20
0.0
 30
0.0
  9
$UCSORGBOTTOM
 10
0.0
 20
0.0
 30
0.0
  9
$UCSORGLEFT
 10
0.0
 20
0.0
 30
0.0
  9
$UCSORGRIGHT
 10
0.0
 20
0.0
 30
0.0
  9
$UCSORGFRONT
 10
0.0
 20
0.0
 30
0.0
  9
$UCSORGBACK
 10
0.0
 20
0.0
 30
0.0
  9
$PUCSBASE
  2

  9
$PUCSNAME
  2

  9
$PUCSORG
 10
0.0
 20
0.0
 30
0.0
  9
$PUCSXDIR
 10
1.0
 20
0.0
 30
0.0
  9
$PUCSYDIR
 10
0.0
 20
1.0
 30
0.0
  9
$PUCSORTHOREF
  2

  9
$PUCSORTHOVIEW
 70
0
  9
$PUCSORGTOP
 10
0.0
 20
0.0
 30
0.0
  9
$PUCSORGBOTTOM
 10
0.0
 20
0.0
 30
0.0
  9
$PUCSORGLEFT
 10
0.0
 20
0.0
 30
0.0
  9
$PUCSORGRIGHT
 10
0.0
 20
0.0
 30
0.0
  9
$PUCSORGFRONT
 10
0.0
 20
0.0
 30
0.0
  9
$PUCSORGBACK
 10
0.0
 20
0.0
 30
0.0
  9
$USERI1
 70
0
  9
$USERI2
 70
0
  9
$USERI3
 70
0
  9
$USERI4
 70
0
  9
$USERI5
 70
0
  9
$USERR1
 40
0.0
  9
$USERR2
 40
0.0
  9
$USERR3
 40
0.0
  9
$USERR4
 40
0.0
  9
$USERR5
 40
0.0
  9
$WORLDVIEW
 70
1
  9
$SHADEDGE
 70
3
  9
$SHADEDIF
 70
70
  9
$TILEMODE
 70
1
  9
$MAXACTVP
 70
64
  9
$PINSBASE
 10
0.0
 20
0.0
 30
0.0
  9
$PLIMCHECK
 70
0
  9
$PEXTMIN
 10
1e+20
 20
1e+20
 30
1e+20
  9
$PEXTMAX
 10
-1e+20
 20
-1e+20
 30
-1e+20
  9
$PLIMMIN
 10
0.0
 20
0.0
  9
$PLIMMAX
 10
420.0
 20
297.0
  9
$UNITMODE
 70
0
  9
$VISRETAIN
 70
1
  9
$PLINEGEN
 70
0
  9
$PSLTSCALE
 70
1
  9
$TREEDEPTH
 70
3020
  9
$CMLSTYLE
  2
Standard
  9
$CMLJUST
 70
0
  9
$CMLSCALE
 40
20.0
  9
$PROXYGRAPHICS
 70
1
  9
$MEASUREMENT
 70
1
  9
$CELWEIGHT
370
-1
  9
$ENDCAPS
280
0
  9
$JOINSTYLE
280
0
  9
$LWDISPLAY
290
0
  9
$INSUNITS
 70
4
  9
$HYPERLINKBASE
  1

  9
$STYLESHEET
  1

  9
$XEDIT
290
1
  9
$CEPSNTYPE
380
0
  9
$PSTYLEMODE
290
1
  9
$FINGERPRINTGUID
  2
{EC810DC6-1708-478B-8BBC-F044D2002150}
  9
$VERSIONGUID
  2
{A80B5C5F-18ED-4DB4-AE67-CEB33C592C5D}
  9
$EXTNAMES
290
1
  9
$PSVPSCALE
 40
0.0
  9
$OLESTARTUP
290
0
  9
$SORTENTS
280
127
  9
$INDEXCTL
280
0
  9
$HIDETEXT
280
1
  9
$XCLIPFRAME
280
1
  9
$HALOGAP
280
0
  9
$OBSCOLOR
 70
257
  9
$OBSLTYPE
280
0
  9
$INTERSECTIONDISPLAY
280
0
  9
$INTERSECTIONCOLOR
 70
257
  9
$DIMASSOC
280
2
  9
$PROJECTNAME
  1

  9
$CAMERADISPLAY
290
0
  9
$LENSLENGTH
 40
50.0
  9
$CAMERAHEIGHT
 40
0.0
  9
$STEPSPERSEC
 40
24.0
  9
$STEPSIZE
 40
100.0
  9
$3DDWFPREC
 40
2.0
  9
$PSOLWIDTH
 40
0.005
  9
$PSOLHEIGHT
 40
0.08
  9
$LOFTANG1
 40
1.570796326795
  9
$LOFTANG2
 40
1.570796326795
  9
$LOFTMAG1
 40
0.0
  9
$LOFTMAG2
 40
0.0
  9
$LOFTPARAM
 70
7
  9
$LOFTNORMALS
280
1
  9
$LATITUDE
 40
37.795
  9
$LONGITUDE
 40
-122.394
  9
$NORTHDIRECTION
 40
0.0
  9
$TIMEZONE
 70
-8000
  9
$LIGHTGLYPHDISPLAY
280
1
  9
$TILEMODELIGHTSYNCH
280
1
  9
$CMATERIAL
347
20
  9
$SOLIDHIST
280
0
  9
$SHOWHIST
280
1
  9
$DWFFRAME
280
2
  9
$DGNFRAME
280
2
  9
$REALWORLDSCALE
290
1
  9
$INTERFERECOLOR
 62
256
  9
$CSHADOW
280
0
  9
$SHADOWPLANELOCATION
 40
0.0
  0
ENDSEC
  0
SECTION
  2
CLASSES
  0
CLASS
  1
ACDBDICTIONARYWDFLT
  2
AcDbDictionaryWithDefault
  3
ObjectDBX Classes
 90
0
 91
0
280
0
281
0
  0
CLASS
  1
SUN
  2
AcDbSun
  3
SCENEOE
 90
1153
 91
0
280
0
281
0
  0
CLASS
  1
VISUALSTYLE
  2
AcDbVisualStyle
  3
ObjectDBX Classes
 90
4095
 91
0
280
0
281
0
  0
CLASS
  1
MATERIAL
  2
AcDbMaterial
  3
ObjectDBX Classes
 90
1153
 91
0
280
0
281
0
  0
CLASS
  1
SCALE
  2
AcDbScale
  3
ObjectDBX Classes
 90
1153
 91
0
280
0
281
0
  0
CLASS
  1
TABLESTYLE
  2
AcDbTableStyle
  3
ObjectDBX Classes
 90
4095
 91
0
280
0
281
0
  0
CLASS
  1
MLEADERSTYLE
  2
AcDbMLeaderStyle
  3
ACDB_MLEADERSTYLE_CLASS
 90
4095
 91
0
280
0
281
0
  0
CLASS
  1
DICTIONARYVAR
  2
AcDbDictionaryVar
  3
ObjectDBX Classes
 90
0
 91
0
280
0
281
0
  0
CLASS
  1
CELLSTYLEMAP
  2
AcDbCellStyleMap
  3
ObjectDBX Classes
 90
1152
 91
0
280
0
281
0
  0
CLASS
  1
MENTALRAYRENDERSETTINGS
  2
AcDbMentalRayRenderSettings
  3
SCENEOE
 90
1024
 91
0
280
0
281
0
  0
CLASS
  1
ACDBDETAILVIEWSTYLE
  2
AcDbDetailViewStyle
  3
ObjectDBX Classes
 90
1025
 91
0
280
0
281
0
  0
CLASS
  1
ACDBSECTIONVIEWSTYLE
  2
AcDbSectionViewStyle
  3
ObjectDBX Classes
 90
1025
 91
0
280
0
281
0
  0
CLASS
  1
RASTERVARIABLES
  2
AcDbRasterVariables
  3
ISM
 90
0
 91
0
280
0
281
0
  0
CLASS
  1
LAYOUT
  2
AcDbLayout
  3
ObjectDBX Classes
 90
0
 91
0
280
0
281
0
  0
CLASS
  1
ACDBPLACEHOLDER
  2
AcDbPlaceHolder
  3
ObjectDBX Classes
 90
0
 91
0
280
0
281
0
  0
ENDSEC
  0
SECTION
  2
TABLES
  0
TABLE
  2
VPORT
  5
8
330
0
100
AcDbSymbolTable
 70
1
  0
VPORT
  5
23
330
8
100
AcDbSymbolTableRecord
100
AcDbViewportTableRecord
  2
*Active
 70
0
 10
0.0
 20
0.0
 11
1.0
 21
1.0
 12
0.0
 22
0.0
 13
0.0
 23
0.0
 14
0.5
 24
0.5
 15
0.5
 25
0.5
 16
0.0
 26
0.0
 36
1.0
 17
0.0
 27
0.0
 37
0.0
 40
1000.0
 41
1.34
 42
50.0
 43
0.0
 44
0.0
 50
0.0
 51
0.0
 71
0
 72
1000
 73
1
 74
3
 75
0
 76
0
 77
0
 78
0
281
0
 65
0
146
0.0
  0
ENDTAB
  0
TABLE
  2
LTYPE
  5
2
330
0
100
AcDbSymbolTable
 70
3
  0
LTYPE
  5
24
330
2
100
AcDbSymbolTableRecord
100
AcDbLinetypeTableRecord
  2
ByBlock
 70
0
  3

 72
65
 73
0
 40
0.0
  0
LTYPE
  5
25
330
2
100
AcDbSymbolTableRecord
100
AcDbLinetypeTableRecord
  2
ByLayer
 70
0
  3

 72
65
 73
0
 40
0.0
  0
LTYPE
  5
26
330
2
100
AcDbSymbolTableRecord
100
AcDbLinetypeTableRecord
  2
Continuous
 70
0
  3

 72
65
 73
0
 40
0.0
  0
ENDTAB
  0
TABLE
  2
LAYER
  5
1
330
0
100
AcDbSymbolTable
 70
3
  0
LAYER
  5
27
330
1
100
AcDbSymbolTableRecord
100
AcDbLayerTableRecord
  2
0
 70
0
 62
7
  6
Continuous
370
-3
390
13
347
21
  0
LAYER
  5
28
330
1
100
AcDbSymbolTableRecord
100
AcDbLayerTableRecord
  2
Defpoints
 70
0
 62
7
  6
Continuous
290
0
370
-3
390
13
347
21
  0
LAYER
  5
2F
330
1
100
AcDbSymbolTableRecord
100
AcDbLayerTableRecord
  2
C
 70
0
 62
7
  6
Continuous
370
-3
390
13
347
21
  0
ENDTAB
  0
TABLE
  2
STYLE
  5
5
330
0
100
AcDbSymbolTable
 70
1
  0
STYLE
  5
29
330
5
100
AcDbSymbolTableRecord
100
AcDbTextStyleTableRecord
  2
Standard
 70
0
 40
0.0
 41
1.0
 50
0.0
 71
0
 42
2.5
  3
txt
  4

  0
ENDTAB
  0
TABLE
  2
VIEW
  5
7
330
0
100
AcDbSymbolTable
 70
0
  0
ENDTAB
  0
TABLE
  2
UCS
  5
6
330
0
100
AcDbSymbolTable
 70
0
  0
ENDTAB
  0
TABLE
  2
APPID
  5
3
330
0
100
AcDbSymbolTable
 70
3
  0
APPID
  5
2A
330
3
100
AcDbSymbolTableRecord
100
AcDbRegAppTableRecord
  2
ACAD
 70
0
  0
APPID
  5
3F
330
3
100
AcDbSymbolTableRecord
100
AcDbRegAppTableRecord
  2
HATCHBACKGROUNDCOLOR
 70
0
  0
APPID
  5
40
330
3
100
AcDbSymbolTableRecord
100
AcDbRegAppTableRecord
  2
EZDXF
 70
0
  0
ENDTAB
  0
TABLE
  2
DIMSTYLE
  5
4
330
0
100
AcDbSymbolTable
 70
1
100
AcDbDimStyleTable
  0
DIMSTYLE
105
2B
330
4
100
AcDbSymbolTableRecord
100
AcDbDimStyleTableRecord
  2
Standard
 70
0
 40
1.0
 41
2.5
 42
0.625
 43
3.75
 44
1.25
 45
0.0
 46
0.0
 47
0.0
 48
0.0
 49
2.5
140
2.5
141
2.5
142
0.0
143
0.03937007874
144
1.0
145
0.0
146
1.0
147
0.625
148
0.0
 69
0
 70
0
 71
0
 72
0
 73
0
 74
0
 75
0
 76
0
 77
1
 78
8
 79
3
170
0
171
3
172
1
173
0
174
0
175
0
176
0
177
0
178
0
179
2
271
2
272
2
273
2
274
3
275
0
276
0
277
2
278
44
279
0
280
0
281
0
282
0
283
0
284
8
285
0
286
0
288
0
289
3
290
0
371
-2
372
-2
  0
ENDTAB
  0
TABLE
  2
BLOCK_RECORD
  5
9
330
0
100
AcDbSymbolTable
 70
2
  0
BLOCK_RECORD
  5
17
330
9
100
AcDbSymbolTableRecord
100
AcDbBlockTableRecord
  2
*Model_Space
340
1A
 70
0
280
1
281
0
  0
BLOCK_RECORD
  5
1B
330
9
100
AcDbSymbolTableRecord
100
AcDbBlockTableRecord
  2
*Paper_Space
340
1E
 70
0
280
1
281
0
  0
ENDTAB
  0
ENDSEC
  0
SECTION
  2
BLOCKS
  0
BLOCK
  5
18
330
17
100
AcDbEntity
  8
0
100
AcDbBlockBegin
  2
*Model_Space
 70
0
 10
0.0
 20
0.0
 30
0.0
  3
*Model_Space
  1

  0
ENDBLK
  5
19
330
17
100
AcDbEntity
  8
0
100
AcDbBlockEnd
  0
BLOCK
  5
1C
330
1B
100
AcDbEntity
  8
0
100
AcDbBlockBegin
  2
*Paper_Space
 70
0
 10
0.0
 20
0.0
 30
0.0
  3
*Paper_Space
  1

  0
ENDBLK
  5
1D
330
1B
100
AcDbEntity
  8
0
100
AcDbBlockEnd
  0
ENDSEC
  0
SECTION
  2
ENTITIES
  0
LWPOLYLINE
  5
30
330
17
100
AcDbEntity
  8
C
100
AcDbPolyline
 90
83
 70
1
 10
167.17788642289477
 20
328.014663427458
 10
151.4261657702791
 20
360.89041372894
 10
178.64278933814148
 20
393.77716720677404
 10
224.43243580666206
 20
390.3190949474326
 10
230.09103432745715
 20
386.9003583411188
 10
274.27294575718355
 20
443.7311234462907
 10
270.05958831821795
 20
448.8222636850412
 10
255.77387403250373
 20
452.27464463742217
 10
252.92551446450685
 20
455.71641244875104
 10
244.36004390957498
 20
455.71641244875104
 10
228.5975479346325
 20
471.2997891512508
 10
225.73900133476954
 20
481.66202057575526
 10
220.02252735292504
 20
488.5694266371505
 10
217.16538449578238
 20
502.37895044667425
 10
211.41418441524618
 20
509.3283172106559
 10
215.78265732164948
 20
514.6068886392272
 10
221.50872015015642
 20
514.6068886392272
 10
230.08014872158532
 20
521.5116505439892
 10
238.6398001787926
 20
521.5116505439892
 10
244.35408589307795
 20
528.4164124487511
 10
252.92551446450685
 20
528.4164124487511
 10
258.6398001787922
 20
535.321174353513
 10
284.44817596514315
 20
535.321174353513
 10
287.3053188222867
 20
531.868793401132
 10
295.8767473937147
 20
531.868793401132
 10
300.2154166433968
 20
526.6262347244333
 10
300.2154166433968
 20
509.2923044587832
 10
297.35827378625413
 20
505.83992350640216
 10
297.35827378625413
 20
478.2208758873545
 10
294.49697617943383
 20
474.7634746124476
 10
291.64832292389065
 20
450.66861582597875
 10
304.471730193586
 20
435.17366537509736
 10
321.5792559937798
 20
421.3926029249415
 10
330.06837160736427
 20
421.3926029249415
 10
335.7826573216496
 20
428.2973648297035
 10
341.49694303593583
 20
428.2973648297035
 10
345.72970235768264
 20
433.41194901014757
 10
345.72970235768264
 20
440.31671091490955
 10
348.5868452148253
 20
443.7690918672904
 10
348.5868452148253
 20
464.4833775815762
 10
351.44398807196796
 20
467.9357585339571
 10
351.44398807196796
 20
488.65004424824286
 10
354.3011309291106
 20
492.10242520062377
 10
354.3011309291106
 20
502.4595680577666
 10
358.61624595035033
 20
507.6736653750974
 10
367.22300586444237
 20
514.6068886392272
 10
375.85756545965233
 20
514.6068886392272
 10
398.71470831679454
 20
500.7973648297035
 10
407.3053188222859
 20
500.7973648297035
 10
411.643988071968
 20
495.55480615300473
 10
411.643988071968
 20
488.65004424824286
 10
414.5011309291107
 20
485.1976632958619
 10
414.5011309291107
 20
450.601828268307
 10
411.643988071968
 20
447.149447315926
 10
411.643988071968
 20
423.044549590653
 10
417.3724840977133
 20
412.6616505439892
 10
411.643988071968
 20
402.2787514973254
 10
411.643988071968
 20
391.9274922492622
 10
405.91634497442897
 20
378.0856880968756
 10
398.7089208715231
 20
369.3767173058652
 10
387.22362614870497
 20
376.3157495342347
 10
364.36648329156185
 20
379.76813048661575
 10
352.9446963985698
 20
386.668793401132
 10
344.3732678271409
 20
386.668793401132
 10
332.94469639856936
 20
393.573555305894
 10
327.30531882228587
 20
393.573555305894
 10
315.88416252772333
 20
379.7729914499638
 10
298.7236551847845
 20
376.3170559433997
 10
287.2861368882234
 20
369.4068886392273
 10
278.7221131366362
 20
369.4068886392273
 10
270.15068456520817
 20
362.5021267344654
 10
261.59103310800094
 20
362.5021267344654
 10
257.3582737862541
 20
357.38754255402125
 10
257.3582737862541
 20
347.0303996968783
 10
254.50113092911053
 20
343.57801874449746
 10
254.50113092911053
 20
319.41135207783077
 10
251.64398807196787
 20
315.9589711254498
 10
251.64398807196787
 20
309.05420922068794
 10
244.4673578992065
 20
300.38244776193403
 10
232.99414149644804
 20
293.4507128519344
 10
220.08432073255423
 20
295.18397582486455
 10
184.34579727547984
 20
314.18495746287533
 10
167.17788642289477
 20
328.014663427458
  0
LWPOLYLINE
  5
31
330
17
100
AcDbEntity
  8
C
100
AcDbPolyline
 90
14
 70
1
 10
327.21122875022155
 20
535.1211743535131
 10
320.00931558187597
 20
543.8234860985968
 10
322.8783097366197
 20
561.1569924501728
 10
325.7297023576822
 20
564.6024252006238
 10
325.7297023576822
 20
574.9595680577665
 10
330.1154166433964
 20
580.2589728196714
 10
337.3582737862533
 20
571.5071871053857
 10
337.3582737862533
 20
564.592168638272
 10
343.0725595005395
 20
554.2350257811291
 10
343.0725595005395
 20
536.9833775815762
 10
345.95950601440427
 20
533.4949838773225
 10
341.55810792486284
 20
528.1766278524598
 10
332.93729157872764
 20
535.1211743535131
 10
327.21122875022155
 20
535.1211743535131
  0
LWPOLYLINE
  5
32
330
17
100
AcDbEntity
  8
C
100
AcDbPolyline
 90
19
 70
1
 10
74.30113092911128
 20
547.2684949349737
 10
71.44398807196772
 20
550.7208758873545
 10
71.44398807196772
 20
567.9827806492593
 10
68.55704155810294
 20
571.471174353513
 10
72.92704550266471
 20
576.7515957865256
 10
161.59253633636706
 20
573.2955484287604
 10
165.92970235768246
 20
568.0548061530047
 10
165.92970235768246
 20
557.697663295862
 10
168.78684521482512
 20
554.2452823434809
 10
168.78684521482512
 20
530.0065901730688
 10
164.4673578992064
 20
524.7872096666958
 10
158.71470831679522
 20
521.3116505439892
 10
147.29354170806542
 20
521.3116505439892
 10
138.73212286907855
 20
514.4149520348055
 10
110.15391389371575
 20
507.5085515324261
 10
98.70957923116652
 20
500.5942660071363
 10
82.92135755636477
 20
502.3285782365652
 10
74.30113092911128
 20
512.7446854111641
 10
74.30113092911128
 20
547.2684949349737
  0
LWPOLYLINE
  5
33
330
17
100
AcDbEntity
  8
C
100
AcDbPolyline
 90
26
 70
1
 10
31.443988071967688
 20
402.2684949349736
 10
27.258273786253895
 20
407.32623303021165
 10
18.678834572426695
 20
396.9594106468378
 10
5.741192257288752
 20
416.0663916585471
 10
0.0
 20
429.94093961366184
 10
4.354085893078619
 20
435.20212673446537
 10
15.782657321649296
 20
435.20212673446537
 10
18.65640701838789
 20
438.67457428469095
 10
27.235434204575526
 20
435.21913277914314
 10
41.50355603027833
 20
449.01165054398916
 10
52.944696398569135
 20
449.01165054398916
 10
64.3732678271407
 20
455.91641244875103
 10
72.93729157872787
 20
455.91641244875103
 10
81.50872015015676
 20
462.821174353513
 10
87.32026822712857
 20
462.821174353513
 10
91.66244545154444
 20
454.0765118876756
 10
88.78684521482505
 20
450.601828268307
 10
88.78684521482505
 20
436.7923044587831
 10
85.92970235768237
 20
433.33992350640216
 10
85.92970235768237
 20
405.7208758873546
 10
83.07255950053971
 20
402.2684949349736
 10
83.07255950053971
 20
388.4589711254498
 10
78.73235921269917
 20
383.2145624443098
 10
34.352582664711306
 20
384.9444193258846
 10
31.443988071967688
 20
388.4589711254498
 10
31.443988071967688
 20
402.2684949349736
  0
LWPOLYLINE
  5
34
330
17
100
AcDbEntity
  8
C
100
AcDbPolyline
 90
45
 70
1
 10
1437.1582737862543
 20
322.9196183625257
 10
1437.1582737862543
 20
336.7452823434809
 10
1440.015416643397
 20
340.1976632958619
 10
1440.015416643397
 20
367.81671091490955
 10
1442.8725595005396
 20
371.2690918672904
 10
1442.8725595005396
 20
385.07861567681425
 10
1445.6998987009601
 20
388.4949838773225
 10
1440.0173825287545
 20
395.36135758540445
 10
1437.1602396716119
 20
447.1470718711188
 10
1434.3011309291107
 20
450.601828268307
 10
1434.3011309291107
 20
461.0309966291952
 10
1438.6398001787927
 20
466.27355530589386
 10
1610.1704738618307
 20
466.27355530589386
 10
1628.786845214825
 20
436.8573018538864
 10
1628.786845214825
 20
429.9595680577666
 10
1634.4940202195826
 20
423.0633982603517
 10
1637.3511630767252
 20
409.2538744508278
 10
1643.0725595005392
 20
402.34052043871907
 10
1643.0725595005392
 20
388.51485645776376
 10
1648.8022618582222
 20
374.6680757600307
 10
1644.4232065858096
 20
369.3767173058652
 10
1632.9446963985702
 20
376.3116505439892
 10
1627.2112287502214
 20
376.3116505439892
 10
1621.4861861791298
 20
383.22941031739146
 10
1598.6239451434399
 20
390.1357122969227
 10
1585.7297023576828
 20
409.1785986332963
 10
1585.7297023576828
 20
422.9969061625414
 10
1578.6624488148097
 20
438.3681826182887
 10
1574.4930699484448
 20
433.3301831547638
 10
1568.777242024889
 20
409.156994228059
 10
1555.860567929889
 20
397.0177125554435
 10
1521.582888193426
 20
403.92085639125906
 10
1518.733890250858
 20
400.47831721065586
 10
1513.0196045365726
 20
400.47831721065586
 10
1507.3160756790926
 20
393.5865531745344
 10
1484.4589328219495
 20
386.6817912697724
 10
1477.3787214358185
 20
378.12653584486446
 10
1483.0725595005392
 20
367.80645435255775
 10
1483.0725595005392
 20
360.91194901014757
 10
1488.7797345052966
 20
354.01577921273264
 10
1491.6537305395582
 20
340.12479838047096
 10
1450.1627820935967
 20
303.82021849025443
 10
1442.9257411210017
 20
302.07126692187745
 10
1434.2891182935089
 20
315.9858259217264
 10
1437.1582737862543
 20
322.9196183625257
  0
LWPOLYLINE
  5
35
330
17
100
AcDbEntity
  8
C
100
AcDbPolyline
 90
13
 70
1
 10
1575.7826573216498
 20
373.0592695916082
 10
1587.230410684284
 20
373.0592695916082
 10
1592.994635157238
 20
376.5418218773513
 10
1597.358273786254
 20
371.2690918672904
 10
1597.358273786254
 20
364.2923044587831
 10
1594.5011309291112
 20
360.83992350640216
 10
1594.5011309291112
 20
343.57801874449746
 10
1591.6439880719677
 20
340.12563779211644
 10
1591.6439880719677
 20
319.404114686326
 10
1578.6950836275703
 20
307.2345424538596
 10
1571.4439880719685
 20
312.4915867316712
 10
1571.4439880719685
 20
367.81671091490955
 10
1575.7826573216498
 20
373.0592695916082
  0
LWPOLYLINE
  5
36
330
17
100
AcDbEntity
  8
C
100
AcDbPolyline
 90
9
 70
1
 10
1542.87255950054
 20
336.72539112982435
 10
1548.5868452148254
 20
353.98729589172916
 10
1548.5868452148254
 20
364.37410361373367
 10
1558.6987935671175
 20
373.1016780844616
 10
1563.0725595005392
 20
367.81671091490955
 10
1563.0725595005392
 20
319.41135207783077
 10
1558.6942308258517
 20
314.12087159591664
 10
1542.87255950054
 20
329.76275120162336
 10
1542.87255950054
 20
336.72539112982435
  0
LWPOLYLINE
  5
37
330
17
100
AcDbEntity
  8
C
100
AcDbPolyline
 90
15
 70
1
 10
1362.883533963247
 20
219.37759077163295
 10
1368.5868452148259
 20
226.26909186729046
 10
1368.5868452148259
 20
233.17385377205233
 10
1374.3011309291112
 20
240.07861567681428
 10
1374.3011309291112
 20
246.98337758157615
 10
1384.3540858930785
 20
259.1306981630368
 10
1390.162461679429
 20
259.1306981630368
 10
1393.0196045365726
 20
255.67831721065582
 10
1421.591033108001
 20
255.67831721065582
 10
1428.7758707521184
 20
246.99663839068052
 10
1434.5134582489347
 20
229.66434282737998
 10
1384.4315691255479
 20
169.1487268032875
 10
1380.0517007308883
 20
170.91284046224771
 10
1357.1471005113472
 20
202.04878138568625
 10
1362.883533963247
 20
219.37759077163295
  0
LWPOLYLINE
  5
38
330
17
100
AcDbEntity
  8
C
100
AcDbPolyline
 90
13
 70
1
 10
1247.2052224291526
 20
324.5331938962325
 10
1242.8725595005394
 20
329.7684949349736
 10
1242.8725595005394
 20
367.824450975789
 10
1267.203888272319
 20
390.3070758457911
 10
1275.768825964808
 20
393.7568424163771
 10
1281.4969430359354
 20
400.67831721065585
 10
1287.2964286282738
 20
400.67831721065585
 10
1320.2457298073743
 20
371.25077104888703
 10
1300.2154166433968
 20
340.13224881199386
 10
1300.2154166433968
 20
333.23113244970637
 10
1294.4841545500462
 20
322.84321990550825
 10
1290.155985328239
 20
317.61334876249094
 10
1247.2052224291526
 20
324.5331938962325
  0
LWPOLYLINE
  5
39
330
17
100
AcDbEntity
  8
C
100
AcDbPolyline
 90
16
 70
1
 10
2742.8725595005394
 20
29.411352077830717
 10
2742.8725595005394
 20
53.650044248242686
 10
2745.69989870096
 20
57.06641244875107
 10
2741.4969430359342
 20
62.14498387732256
 10
2707.2112287502205
 20
62.14498387732256
 10
2702.864904463567
 20
67.3967923903622
 10
2705.7347102646227
 20
81.2675204287969
 10
2721.496063857118
 20
110.70065422084427
 10
2741.5947823531938
 20
103.7618109305328
 10
2751.6439880719677
 20
95.08838932801942
 10
2751.6439880719677
 20
63.95130177307159
 10
2748.802261858221
 20
57.083796756519064
 10
2751.6439880719677
 20
53.650044248242686
 10
2751.6439880719677
 20
29.411352077830717
 10
2747.2582737862535
 20
24.111947315926113
 10
2742.8725595005394
 20
29.411352077830717
  0
LWPOLYLINE
  5
3A
330
17
100
AcDbEntity
  8
C
100
AcDbPolyline
 90
40
 70
1
 10
2658.646004928122
 20
151.9100417693153
 10
2648.583345131198
 20
160.59507552261329
 10
2651.446657559242
 20
198.6532698786989
 10
2654.3011309291105
 20
202.1024252006238
 10
2654.3011309291105
 20
212.38754255402122
 10
2650.0865171537544
 20
217.48020086590944
 10
2618.7078459777586
 20
203.69260292494158
 10
2607.2861368882227
 20
203.69260292494158
 10
2595.824674970223
 20
196.7679696828167
 10
2588.564281148922
 20
202.03175520326042
 10
2597.1695631184143
 20
222.82785329620046
 10
2608.586845214825
 20
240.07270646265374
 10
2608.586845214825
 20
246.91135207783074
 10
2604.340254536236
 20
252.04264914779185
 10
2595.768825964807
 20
255.49503010017273
 10
2582.8725595005394
 20
271.07801874449746
 10
2582.8725595005394
 20
302.22147281967136
 10
2585.729702357682
 20
305.6738537720524
 10
2585.729702357682
 20
319.4833775815762
 10
2590.068371607363
 20
324.7259362582748
 10
2701.5910331080004
 20
324.7259362582748
 10
2705.9239521216023
 20
319.49032578350614
 10
2708.792946276345
 20
302.15681943193016
 10
2704.448175965143
 20
296.9068886392273
 10
2644.4481759651426
 20
296.9068886392273
 10
2640.218159346788
 20
291.79561855871515
 10
2643.0698900132647
 20
253.8913651167941
 10
2650.1526355268493
 20
245.33304762121364
 10
2692.9340622502204
 20
255.67189241269506
 10
2704.3732678271404
 20
262.5830791154178
 10
2710.1624616794284
 20
262.5830791154178
 10
2714.5011309291103
 20
257.340520438719
 10
2714.5011309291103
 20
243.47886233910629
 10
2708.786845214825
 20
226.21695757720158
 10
2708.786845214825
 20
205.49892082069073
 10
2705.9417149932833
 20
198.6231894519662
 10
2714.5011309291103
 20
184.83301933313388
 10
2714.5011309291103
 20
167.50659017306887
 10
2698.730466750513
 20
148.45037095726363
 10
2658.646004928122
 20
151.9100417693153
  0
LWPOLYLINE
  5
3B
330
17
100
AcDbEntity
  8
C
100
AcDbPolyline
 90
19
 70
1
 10
2465.729702357682
 20
191.68028494837782
 10
2465.729702357682
 20
202.0303996968784
 10
2462.872559500539
 20
205.48278064925938
 10
2462.872559500539
 20
233.17385377205233
 10
2465.735452593762
 20
236.63318292636325
 10
2468.591898075882
 20
253.89087438083803
 10
2484.372835896008
 20
276.4265317982146
 10
2495.8575654596516
 20
269.48784102017964
 10
2504.4289940310805
 20
269.48784102017964
 10
2515.857565459652
 20
262.5830791154178
 10
2521.591033108
 20
262.5830791154178
 10
2525.9645655068434
 20
257.29839413348265
 10
2508.7717030634494
 20
239.98613681200996
 10
2505.9297023576814
 20
233.1179684397384
 10
2505.9297023576814
 20
205.54730504741966
 10
2514.5269322086206
 20
191.6962125097955
 10
2493.0403748396507
 20
169.19501215395758
 10
2484.3765731086814
 20
162.21583853734307
 10
2465.729702357682
 20
191.68028494837782
  0
LWPOLYLINE
  5
3C
330
17
100
AcDbEntity
  8
C
100
AcDbPolyline
 90
9
 70
1
 10
4051.4942245614425
 20
160.5411258435255
 10
4048.5570415581024
 20
164.09022197256058
 10
4051.4439880719674
 20
167.57861567681428
 10
4051.4439880719674
 20
174.4931512327813
 10
4061.520272559389
 20
183.1899443915682
 10
4073.0190028164257
 20
179.7163696264223
 10
4088.8580588079567
 20
167.53709551172156
 10
4075.856899101443
 20
158.80946515318226
 10
4051.4942245614425
 20
160.5411258435255
  0
LWPOLYLINE
  5
3D
330
17
100
AcDbEntity
  8
C
100
AcDbPolyline
 90
10
 70
1
 10
3974.301130929111
 20
98.45897112544974
 10
3974.301130929111
 20
105.43575853395701
 10
3984.3349039590157
 20
117.55990094509191
 10
4001.4777611018717
 20
127.91704380223476
 10
4007.2112287502214
 20
134.84498387732245
 10
4015.863704339533
 20
134.84498387732245
 10
4031.682793264392
 20
122.68106322676772
 10
4007.3040250966646
 20
89.75777582378217
 10
3978.6352418162414
 20
93.22192047016661
 10
3974.301130929111
 20
98.45897112544974
  0
LWPOLYLINE
  5
3E
330
17
100
AcDbEntity
  8
C
100
AcDbPolyline
 90
37
 70
1
 10
3912.9401233718904
 20
6.906888639227226
 10
3907.2278215637734
 20
6.906888639227226
 10
3881.4762020189955
 20
24.19385546326755
 10
3859.991098008147
 20
50.15502280970982
 10
3871.4260466663245
 20
67.42655984549903
 10
3864.344078906485
 20
79.40688863922726
 10
3847.235374378232
 20
79.40688863922726
 10
3832.9496600925177
 20
86.31165054398923
 10
3815.80680294966
 20
86.31165054398923
 10
3801.5210886639456
 20
93.21641244875109
 10
3792.925514464506
 20
93.21641244875109
 10
3788.549946970485
 20
98.50355650402805
 10
3801.530776989021
 20
110.7031328640424
 10
3818.7147083167947
 20
100.32117435351293
 10
3827.2112287502214
 20
100.32117435351293
 10
3831.4439880719683
 20
105.43575853395701
 10
3831.4439880719683
 20
115.72087588735455
 10
3828.557041558102
 20
119.20926959160825
 10
3832.9255144645067
 20
124.4878410201796
 10
3841.591033108
 20
124.4878410201796
 10
3844.4481759651435
 20
121.03546006779872
 10
3864.4631253699845
 20
121.03546006779872
 10
3877.3426923343904
 20
95.09744326448119
 10
3884.4481759651426
 20
86.5116505439892
 10
3918.733890250857
 20
86.5116505439892
 10
3925.9297023576823
 20
77.81671091490935
 10
3925.9297023576823
 20
70.85606367783356
 10
3911.657358329367
 20
36.3645656094059
 10
3927.310328030349
 20
14.011650543989118
 10
3930.068371607365
 20
14.011650543989118
 10
3967.2582737862544
 20
58.94944901014751
 10
3977.3670415333154
 20
46.7346879824477
 10
3971.6394580263586
 20
22.511782734280533
 10
3965.9163449744287
 20
8.680926192113747
 10
3958.7321301947477
 20
0.0
 10
3920.0809936993783
 20
1.7297576517989466
 10
3912.9401233718904
 20
6.906888639227226
  0
ENDSEC
  0
SECTION
  2
OBJECTS
  0
DICTIONARY
  5
A
330
0
100
AcDbDictionary
281
1
  3
ACAD_COLOR
350
B
  3
ACAD_GROUP
350
C
  3
ACAD_LAYOUT
350
D
  3
ACAD_MATERIAL
350
E
  3
ACAD_MLEADERSTYLE
350
F
  3
ACAD_MLINESTYLE
350
10
  3
ACAD_PLOTSETTINGS
350
11
  3
ACAD_PLOTSTYLENAME
350
12
  3
ACAD_SCALELIST
350
14
  3
ACAD_TABLESTYLE
350
15
  3
ACAD_VISUALSTYLE
350
16
  3
EZDXF_META
350
2D
  0
DICTIONARY
  5
B
330
A
100
AcDbDictionary
281
1
  0
DICTIONARY
  5
C
330
A
100
AcDbDictionary
281
1
  0
DICTIONARY
  5
D
330
A
100
AcDbDictionary
281
1
  3
Model
350
1A
  3
Layout1
350
1E
  0
DICTIONARY
  5
E
330
A
100
AcDbDictionary
281
1
  3
ByBlock
350
1F
  3
ByLayer
350
20
  3
Global
350
21
  0
DICTIONARY
  5
F
330
A
100
AcDbDictionary
281
1
  3
Standard
350
2C
  0
DICTIONARY
  5
10
330
A
100
AcDbDictionary
281
1
  3
Standard
350
22
  0
DICTIONARY
  5
11
330
A
100
AcDbDictionary
281
1
  0
ACDBDICTIONARYWDFLT
  5
12
330
A
100
AcDbDictionary
281
1
  3
Normal
350
13
100
AcDbDictionaryWithDefault
340
13
  0
ACDBPLACEHOLDER
  5
13
330
12
  0
DICTIONARY
  5
14
330
A
100
AcDbDictionary
281
1
  0
DICTIONARY
  5
15
330
A
100
AcDbDictionary
281
1
  0
DICTIONARY
  5
16
330
A
100
AcDbDictionary
281
1
  0
LAYOUT
  5
1A
330
D
100
AcDbPlotSettings
  1

  4
A3
  6

 40
7.5
 41
20.0
 42
7.5
 43
20.0
 44
420.0
 45
297.0
 46
0.0
 47
0.0
 48
0.0
 49
0.0
140
0.0
141
0.0
142
1.0
143
1.0
 70
1024
 72
1
 73
0
 74
5
  7

 75
16
 76
0
 77
2
 78
300
147
1.0
148
0.0
149
0.0
100
AcDbLayout
  1
Model
 70
1
 71
0
 10
0.0
 20
0.0
 11
420.0
 21
297.0
 12
0.0
 22
0.0
 32
0.0
 14
1e+20
 24
1e+20
 34
1e+20
 15
-1e+20
 25
-1e+20
 35
-1e+20
146
0.0
 13
0.0
 23
0.0
 33
0.0
 16
1.0
 26
0.0
 36
0.0
 17
0.0
 27
1.0
 37
0.0
 76
1
330
17
  0
LAYOUT
  5
1E
330
D
100
AcDbPlotSettings
  1

  4
A3
  6

 40
7.5
 41
20.0
 42
7.5
 43
20.0
 44
420.0
 45
297.0
 46
0.0
 47
0.0
 48
0.0
 49
0.0
140
0.0
141
0.0
142
1.0
143
1.0
 70
0
 72
1
 73
0
 74
5
  7

 75
16
 76
0
 77
2
 78
300
147
1.0
148
0.0
149
0.0
100
AcDbLayout
  1
Layout1
 70
1
 71
1
 10
0.0
 20
0.0
 11
420.0
 21
297.0
 12
0.0
 22
0.0
 32
0.0
 14
1e+20
 24
1e+20
 34
1e+20
 15
-1e+20
 25
-1e+20
 35
-1e+20
146
0.0
 13
0.0
 23
0.0
 33
0.0
 16
1.0
 26
0.0
 36
0.0
 17
0.0
 27
1.0
 37
0.0
 76
1
330
1B
  0
MATERIAL
  5
1F
102
{ACAD_REACTORS
330
E
102
}
330
E
100
AcDbMaterial
  1
ByBlock
  2

 70
0
 40
1.0
 71
1
 41
1.0
 91
-1023410177
 42
1.0
 72
1
  3

 73
1
 74
1
 75
1
 44
0.5
 73
0
 45
1.0
 46
1.0
 77
1
  4

 78
1
 79
1
170
1
 48
1.0
171
1
  6

172
1
173
1
174
1
140
1.0
141
1.0
175
1
  7

176
1
177
1
178
1
143
1.0
179
1
  8

270
1
271
1
272
1
145
1.0
146
1.0
273
1
  9

274
1
275
1
276
1
 42
1.0
 72
1
  3

 73
1
 74
1
 75
1
 94
63
  0
MATERIAL
  5
20
102
{ACAD_REACTORS
330
E
102
}
330
E
100
AcDbMaterial
  1
ByLayer
  2

 70
0
 40
1.0
 71
1
 41
1.0
 91
-1023410177
 42
1.0
 72
1
  3

 73
1
 74
1
 75
1
 44
0.5
 73
0
 45
1.0
 46
1.0
 77
1
  4

 78
1
 79
1
170
1
 48
1.0
171
1
  6

172
1
173
1
174
1
140
1.0
141
1.0
175
1
  7

176
1
177
1
178
1
143
1.0
179
1
  8

270
1
271
1
272
1
145
1.0
146
1.0
273
1
  9

274
1
275
1
276
1
 42
1.0
 72
1
  3

 73
1
 74
1
 75
1
 94
63
  0
MATERIAL
  5
21
102
{ACAD_REACTORS
330
E
102
}
330
E
100
AcDbMaterial
  1
Global
  2

 70
0
 40
1.0
 71
1
 41
1.0
 91
-1023410177
 42
1.0
 72
1
  3

 73
1
 74
1
 75
1
 44
0.5
 73
0
 45
1.0
 46
1.0
 77
1
  4

 78
1
 79
1
170
1
 48
1.0
171
1
  6

172
1
173
1
174
1
140
1.0
141
1.0
175
1
  7

176
1
177
1
178
1
143
1.0
179
1
  8

270
1
271
1
272
1
145
1.0
146
1.0
273
1
  9

274
1
275
1
276
1
 42
1.0
 72
1
  3

 73
1
 74
1
 75
1
 94
63
  0
MLINESTYLE
  5
22
102
{ACAD_REACTORS
330
10
102
}
330
10
100
AcDbMlineStyle
  2
Standard
 70
0
  3

 62
256
 51
90.0
 52
90.0
 71
2
 49
0.5
 62
256
  6
BYLAYER
 49
-0.5
 62
256
  6
BYLAYER
  0
MLEADERSTYLE
  5
2C
102
{ACAD_REACTORS
330
F
102
}
330
F
100
AcDbMLeaderStyle
179
2
170
2
171
1
172
0
 90
2
 40
0.0
 41
0.0
173
1
 91
-1056964608
 92
-2
290
1
 42
2.0
291
1
 43
8.0
  3
Standard
 44
4.0
300

342
29
174
1
175
1
176
0
178
1
 93
-1056964608
 45
4.0
292
0
297
0
 46
4.0
 94
-1056964608
 47
1.0
 49
1.0
140
1.0
294
1
141
0.0
177
0
142
1.0
295
0
296
0
143
3.75
271
0
272
9
273
9
  0
DICTIONARY
  5
2D
330
A
100
AcDbDictionary
280
1
281
1
  3
CREATED_BY_EZDXF
350
2E
  3
WRITTEN_BY_EZDXF
350
41
  0
DICTIONARYVAR
  5
2E
330
2D
100
DictionaryVariables
280
0
  1
1.4.4 @ 2026-07-08T15:53:08.927193+00:00
  0
DICTIONARYVAR
  5
41
330
2D
100
DictionaryVariables
280
0
  1
1.4.4 @ 2026-07-08T15:53:08.929638+00:00
  0
ENDSEC
  0
EOF
