  0
SECTION
  2
HEADER
  9
$ACADVER
  1
AC1027
  9
$ACADMAINTVER
 70
105
  9
$DWGCODEPAGE
  3
ANSI_1252
  9
$LASTSAVEDBY
  1
ezdxf
  9
$REQUIREDVERSIONS
160
0
  9
$INSBASE
 10
0.0
 20
0.0
 30
0.0
  9
$EXTMIN
 10
1e+20
 20
1e+20
 30
1e+20
  9
$EXTMAX
 10
-1e+20
 20
-1e+20
 30
-1e+20
  9
$LIMMIN
 10
0.0
 20
0.0
  9
$LIMMAX
 10
420.0
 20
297.0
  9
$ORTHOMODE
 70
0
  9
$REGENMODE
 70
1
  9
$FILLMODE
 70
1
  9
$QTEXTMODE
 70
0
  9
$MIRRTEXT
 70
1
  9
$LTSCALE
 40
1.0
  9
$ATTMODE
 70
1
  9
$TEXTSIZE
 40
2.5
  9
$TRACEWID
 40
1.0
  9
$TEXTSTYLE
  7
Standard
  9
$CLAYER
  8
0
  9
$CELTYPE
  6
ByLayer
  9
$CECOLOR
 62
256
  9
$CELTSCALE
 40
1.0
  9
$DISPSILH
 70
0
  9
$DIMSCALE
 40
1.0
  9
$DIMASZ
 40
2.5
  9
$DIMEXO
 40
0.625
  9
$DIMDLI
 40
3.75
  9
$DIMRND
 40
0.0
  9
$DIMDLE
 40
0.0
  9
$DIMEXE
 40
1.25
  9
$DIMTP
 40
0.0
  9
$DIMTM
 40
0.0
  9
$DIMTXT
 40
2.5
  9
$DIMCEN
 40
2.5
  9
$DIMTSZ
 40
0.0
  9
$DIMTOL
 70
0
  9
$DIMLIM
 70
0
  9
$DIMTIH
 70
0
  9
$DIMTOH
 70
0
  9
$DIMSE1
 70
0
  9
$DIMSE2
 70
0
  9
$DIMTAD
 70
1
  9
$DIMZIN
 70
8
  9
$DIMBLK
  1

  9
$DIMASO
 70
1
  9
$DIMSHO
 70
1
  9
$DIMPOST
  1

  9
$DIMAPOST
  1

  9
$DIMALT
 70
0
  9
$DIMALTD
 70
3
  9
$DIMALTF
 40
0.03937007874
  9
$DIMLFAC
 40
1.0
  9
$DIMTOFL
 70
1
  9
$DIMTVP
 40
0.0
  9
$DIMTIX
 70
0
  9
$DIMSOXD
 70
0
  9
$DIMSAH
 70
0
  9
$DIMBLK1
  1

  9
$DIMBLK2
  1

  9
$DIMSTYLE
  2
ISO-25
  9
$DIMCLRD
 70
0
  9
$DIMCLRE
 70
0
  9
$DIMCLRT
 70
0
  9
$DIMTFAC
 40
1.0
  9
$DIMGAP
 40
0.625
  9
$DIMJUST
 70
0
  9
$DIMSD1
 70
0
  9
$DIMSD2
 70
0
  9
$DIMTOLJ
 70
0
  9
$DIMTZIN
 70
8
  9
$DIMALTZ
 70
0
  9
$DIMALTTZ
 70
0
  9
$DIMUPT
 70
0
  9
$DIMDEC
 70
2
  9
$DIMTDEC
 70
2
  9
$DIMALTU
 70
2
  9
$DIMALTTD
 70
3
  9
$DIMTXSTY
  7
Standard
  9
$DIMAUNIT
 70
0
  9
$DIMADEC
 70
0
  9
$DIMALTRND
 40
0.0
  9
$DIMAZIN
 70
0
  9
$DIMDSEP
 70
44
  9
$DIMATFIT
 70
3
  9
$DIMFRAC
 70
0
  9
$DIMLDRBLK
  1

  9
$DIMLUNIT
 70
2
  9
$DIMLWD
 70
-2
  9
$DIMLWE
 70
-2
  9
$DIMTMOVE
 70
0
  9
$DIMFXL
 40
1.0
  9
$DIMFXLON
 70
0
  9
$DIMJOGANG
 40
0.785398163397
  9
$DIMTFILL
 70
0
  9
$DIMTFILLCLR
 70
0
  9
$DIMARCSYM
 70
0
  9
$DIMLTYPE
  6

  9
$DIMLTEX1
  6

  9
$DIMLTEX2
  6

  9
$DIMTXTDIRECTION
 70
0
  9
$LUNITS
 70
2
  9
$LUPREC
 70
4
  9
$SKETCHINC
 40
1.0
  9
$FILLETRAD
 40
10.0
  9
$AUNITS
 70
0
  9
$AUPREC
 70
2
  9
$MENU
  1
.
  9
$ELEVATION
 40
0.0
  9
$PELEVATION
 40
0.0
  9
$THICKNESS
 40
0.0
  9
$LIMCHECK
 70
0
  9
$CHAMFERA
 40
0.0
  9
$CHAMFERB
 40
0.0
  9
$CHAMFERC
 40
0.0
  9
$CHAMFERD
 40
0.0
  9
$SKPOLY
 70
0
  9
$TDCREATE
 40
2461230.7868981482
  9
$TDUCREATE
 40
2458532.153996898
  9
$TDUPDATE
 40
2461230.7868981482
  9
$TDUUPDATE
 40
2458532.1544311
  9
$TDINDWG
 40
0.0
  9
$TDUSRTIMER
 40
0.0
  9
$USRTIMER
 70
1
  9
$ANGBASE
 50
0.0
  9
$ANGDIR
 70
0
  9
$PDMODE
 70
0
  9
$PDSIZE
 40
0.0
  9
$PLINEWID
 40
0.0
  9
$SPLFRAME
 70
0
  9
$SPLINETYPE
 70
6
  9
$SPLINESEGS
 70
8
  9
$HANDSEED
  5
49
  9
$SURFTAB1
 70
6
  9
$SURFTAB2
 70
6
  9
$SURFTYPE
 70
6
  9
$SURFU
 70
6
  9
$SURFV
 70
6
  9
$UCSBASE
  2

  9
$UCSNAME
  2

  9
$UCSORG
 10
0.0
 20
0.0
 30
0.0
  9
$UCSXDIR
 10
1.0
 20
0.0
 30
0.0
  9
$UCSYDIR
 10
0.0
 20
1.0
 30
0.0
  9
$UCSORTHOREF
  2

  9
$UCSORTHOVIEW
 70
0
  9
$UCSORGTOP
 10
0.0
 20
0.0
 30
0.0
  9
$UCSORGBOTTOM
 10
0.0
 20
0.0
 30
0.0
  9
$UCSORGLEFT
 10
0.0
 20
0.0
 30
0.0
  9
$UCSORGRIGHT
 10
0.0
 20
0.0
 30
0.0
  9
$UCSORGFRONT
 10
0.0
 20
0.0
 30
0.0
  9
$UCSORGBACK
 10
0.0
 20
0.0
 30
0.0
  9
$PUCSBASE
  2

  9
$PUCSNAME
  2

  9
$PUCSORG
 10
0.0
 20
0.0
 30
0.0
  9
$PUCSXDIR
 10
1.0
 20
0.0
 30
0.0
  9
$PUCSYDIR
 10
0.0
 20
1.0
 30
0.0
  9
$PUCSORTHOREF
  2

  9
$PUCSORTHOVIEW
 70
0
  9
$PUCSORGTOP
 10
0.0
 20
0.0
 30
0.0
  9
$PUCSORGBOTTOM
 10
0.0
 20
0.0
 30
0.0
  9
$PUCSORGLEFT
 10
0.0
 20
0.0
 30
0.0
  9
$PUCSORGRIGHT
 10
0.0
 20
0.0
 30
0.0
  9
$PUCSORGFRONT
 10
0.0
 20
0.0
 30
0.0
  9
$PUCSORGBACK
 10
0.0
 20
0.0
 30
0.0
  9
$USERI1
 70
0
  9
$USERI2
 70
0
  9
$USERI3
 70
0
  9
$USERI4
 70
0
  9
$USERI5
 70
0
  9
$USERR1
 40
0.0
  9
$USERR2
 40
0.0
  9
$USERR3
 40
0.0
  9
$USERR4
 40
0.0
  9
$USERR5
 40
0.0
  9
$WORLDVIEW
 70
1
  9
$SHADEDGE
 70
3
  9
$SHADEDIF
 70
70
  9
$TILEMODE
 70
1
  9
$MAXACTVP
 70
64
  9
$PINSBASE
 10
0.0
 20
0.0
 30
0.0
  9
$PLIMCHECK
 70
0
  9
$PEXTMIN
 10
1e+20
 20
1e+20
 30
1e+20
  9
$PEXTMAX
 10
-1e+20
 20
-1e+20
 30
-1e+20
  9
$PLIMMIN
 10
0.0
 20
0.0
  9
$PLIMMAX
 10
420.0
 20
297.0
  9
$UNITMODE
 70
0
  9
$VISRETAIN
 70
1
  9
$PLINEGEN
 70
0
  9
$PSLTSCALE
 70
1
  9
$TREEDEPTH
 70
3020
  9
$CMLSTYLE
  2
Standard
  9
$CMLJUST
 70
0
  9
$CMLSCALE
 40
20.0
  9
$PROXYGRAPHICS
 70
1
  9
$MEASUREMENT
 70
1
  9
$CELWEIGHT
370
-1
  9
$ENDCAPS
280
0
  9
$JOINSTYLE
280
0
  9
$LWDISPLAY
290
0
  9
$INSUNITS
 70
4
  9
$HYPERLINKBASE
  1

  9
$STYLESHEET
  1

  9
$XEDIT
290
1
  9
$CEPSNTYPE
380
0
  9
$PSTYLEMODE
290
1
  9
$FINGERPRINTGUID
  2
{9B183D96-F8A0-4848-B344-9F0870D624B4}
  9
$VERSIONGUID
  2
{67404218-FACE-465D-928B-363442AC7840}
  9
$EXTNAMES
290
1
  9
$PSVPSCALE
 40
0.0
  9
$OLESTARTUP
290
0
  9
$SORTENTS
280
127
  9
$INDEXCTL
280
0
  9
$HIDETEXT
280
1
  9
$XCLIPFRAME
280
1
  9
$HALOGAP
280
0
  9
$OBSCOLOR
 70
257
  9
$OBSLTYPE
280
0
  9
$INTERSECTIONDISPLAY
280
0
  9
$INTERSECTIONCOLOR
 70
257
  9
$DIMASSOC
280
2
  9
$PROJECTNAME
  1

  9
$CAMERADISPLAY
290
0
  9
$LENSLENGTH
 40
50.0
  9
$CAMERAHEIGHT
 40
0.0
  9
$STEPSPERSEC
 40
24.0
  9
$STEPSIZE
 40
100.0
  9
$3DDWFPREC
 40
2.0
  9
$PSOLWIDTH
 40
0.005
  9
$PSOLHEIGHT
 40
0.08
  9
$LOFTANG1
 40
1.570796326795
  9
$LOFTANG2
 40
1.570796326795
  9
$LOFTMAG1
 40
0.0
  9
$LOFTMAG2
 40
0.0
  9
$LOFTPARAM
 70
7
  9
$LOFTNORMALS
280
1
  9
$LATITUDE
 40
37.795
  9
$LONGITUDE
 40
-122.394
  9
$NORTHDIRECTION
 40
0.0
  9
$TIMEZONE
 70
-8000
  9
$LIGHTGLYPHDISPLAY
280
1
  9
$TILEMODELIGHTSYNCH
280
1
  9
$CMATERIAL
347
20
  9
$SOLIDHIST
280
0
  9
$SHOWHIST
280
1
  9
$DWFFRAME
280
2
  9
$DGNFRAME
280
2
  9
$REALWORLDSCALE
290
1
  9
$INTERFERECOLOR
 62
256
  9
$CSHADOW
280
0
  9
$SHADOWPLANELOCATION
 40
0.0
  0
ENDSEC
  0
SECTION
  2
CLASSES
  0
CLASS
  1
ACDBDICTIONARYWDFLT
  2
AcDbDictionaryWithDefault
  3
ObjectDBX Classes
 90
0
 91
0
280
0
281
0
  0
CLASS
  1
SUN
  2
AcDbSun
  3
SCENEOE
 90
1153
 91
0
280
0
281
0
  0
CLASS
  1
VISUALSTYLE
  2
AcDbVisualStyle
  3
ObjectDBX Classes
 90
4095
 91
0
280
0
281
0
  0
CLASS
  1
MATERIAL
  2
AcDbMaterial
  3
ObjectDBX Classes
 90
1153
 91
0
280
0
281
0
  0
CLASS
  1
SCALE
  2
AcDbScale
  3
ObjectDBX Classes
 90
1153
 91
0
280
0
281
0
  0
CLASS
  1
TABLESTYLE
  2
AcDbTableStyle
  3
ObjectDBX Classes
 90
4095
 91
0
280
0
281
0
  0
CLASS
  1
MLEADERSTYLE
  2
AcDbMLeaderStyle
  3
ACDB_MLEADERSTYLE_CLASS
 90
4095
 91
0
280
0
281
0
  0
CLASS
  1
DICTIONARYVAR
  2
AcDbDictionaryVar
  3
ObjectDBX Classes
 90
0
 91
0
280
0
281
0
  0
CLASS
  1
CELLSTYLEMAP
  2
AcDbCellStyleMap
  3
ObjectDBX Classes
 90
1152
 91
0
280
0
281
0
  0
CLASS
  1
MENTALRAYRENDERSETTINGS
  2
AcDbMentalRayRenderSettings
  3
SCENEOE
 90
1024
 91
0
280
0
281
0
  0
CLASS
  1
ACDBDETAILVIEWSTYLE
  2
AcDbDetailViewStyle
  3
ObjectDBX Classes
 90
1025
 91
0
280
0
281
0
  0
CLASS
  1
ACDBSECTIONVIEWSTYLE
  2
AcDbSectionViewStyle
  3
ObjectDBX Classes
 90
1025
 91
0
280
0
281
0
  0
CLASS
  1
RASTERVARIABLES
  2
AcDbRasterVariables
  3
ISM
 90
0
 91
0
280
0
281
0
  0
CLASS
  1
LAYOUT
  2
AcDbLayout
  3
ObjectDBX Classes
 90
0
 91
0
280
0
281
0
  0
CLASS
  1
ACDBPLACEHOLDER
  2
AcDbPlaceHolder
  3
ObjectDBX Classes
 90
0
 91
0
280
0
281
0
  0
ENDSEC
  0
SECTION
  2
TABLES
  0
TABLE
  2
VPORT
  5
8
330
0
100
AcDbSymbolTable
 70
1
  0
VPORT
  5
23
330
8
100
AcDbSymbolTableRecord
100
AcDbViewportTableRecord
  2
*Active
 70
0
 10
0.0
 20
0.0
 11
1.0
 21
1.0
 12
0.0
 22
0.0
 13
0.0
 23
0.0
 14
0.5
 24
0.5
 15
0.5
 25
0.5
 16
0.0
 26
0.0
 36
1.0
 17
0.0
 27
0.0
 37
0.0
 40
1000.0
 41
1.34
 42
50.0
 43
0.0
 44
0.0
 50
0.0
 51
0.0
 71
0
 72
1000
 73
1
 74
3
 75
0
 76
0
 77
0
 78
0
281
0
 65
0
146
0.0
  0
ENDTAB
  0
TABLE
  2
LTYPE
  5
2
330
0
100
AcDbSymbolTable
 70
3
  0
LTYPE
  5
24
330
2
100
AcDbSymbolTableRecord
100
AcDbLinetypeTableRecord
  2
ByBlock
 70
0
  3

 72
65
 73
0
 40
0.0
  0
LTYPE
  5
25
330
2
100
AcDbSymbolTableRecord
100
AcDbLinetypeTableRecord
  2
ByLayer
 70
0
  3

 72
65
 73
0
 40
0.0
  0
LTYPE
  5
26
330
2
100
AcDbSymbolTableRecord
100
AcDbLinetypeTableRecord
  2
Continuous
 70
0
  3

 72
65
 73
0
 40
0.0
  0
ENDTAB
  0
TABLE
  2
LAYER
  5
1
330
0
100
AcDbSymbolTable
 70
3
  0
LAYER
  5
27
330
1
100
AcDbSymbolTableRecord
100
AcDbLayerTableRecord
  2
0
 70
0
 62
7
  6
Continuous
370
-3
390
13
347
21
  0
LAYER
  5
28
330
1
100
AcDbSymbolTableRecord
100
AcDbLayerTableRecord
  2
Defpoints
 70
0
 62
7
  6
Continuous
290
0
370
-3
390
13
347
21
  0
LAYER
  5
2F
330
1
100
AcDbSymbolTableRecord
100
AcDbLayerTableRecord
  2
K
 70
0
 62
7
  6
Continuous
370
-3
390
13
347
21
  0
ENDTAB
  0
TABLE
  2
STYLE
  5
5
330
0
100
AcDbSymbolTable
 70
1
  0
STYLE
  5
29
330
5
100
AcDbSymbolTableRecord
100
AcDbTextStyleTableRecord
  2
Standard
 70
0
 40
0.0
 41
1.0
 50
0.0
 71
0
 42
2.5
  3
txt
  4

  0
ENDTAB
  0
TABLE
  2
VIEW
  5
7
330
0
100
AcDbSymbolTable
 70
0
  0
ENDTAB
  0
TABLE
  2
UCS
  5
6
330
0
100
AcDbSymbolTable
 70
0
  0
ENDTAB
  0
TABLE
  2
APPID
  5
3
330
0
100
AcDbSymbolTable
 70
3
  0
APPID
  5
2A
330
3
100
AcDbSymbolTableRecord
100
AcDbRegAppTableRecord
  2
ACAD
 70
0
  0
APPID
  5
46
330
3
100
AcDbSymbolTableRecord
100
AcDbRegAppTableRecord
  2
HATCHBACKGROUNDCOLOR
 70
0
  0
APPID
  5
47
330
3
100
AcDbSymbolTableRecord
100
AcDbRegAppTableRecord
  2
EZDXF
 70
0
  0
ENDTAB
  0
TABLE
  2
DIMSTYLE
  5
4
330
0
100
AcDbSymbolTable
 70
1
100
AcDbDimStyleTable
  0
DIMSTYLE
105
2B
330
4
100
AcDbSymbolTableRecord
100
AcDbDimStyleTableRecord
  2
Standard
 70
0
 40
1.0
 41
2.5
 42
0.625
 43
3.75
 44
1.25
 45
0.0
 46
0.0
 47
0.0
 48
0.0
 49
2.5
140
2.5
141
2.5
142
0.0
143
0.03937007874
144
1.0
145
0.0
146
1.0
147
0.625
148
0.0
 69
0
 70
0
 71
0
 72
0
 73
0
 74
0
 75
0
 76
0
 77
1
 78
8
 79
3
170
0
171
3
172
1
173
0
174
0
175
0
176
0
177
0
178
0
179
2
271
2
272
2
273
2
274
3
275
0
276
0
277
2
278
44
279
0
280
0
281
0
282
0
283
0
284
8
285
0
286
0
288
0
289
3
290
0
371
-2
372
-2
  0
ENDTAB
  0
TABLE
  2
BLOCK_RECORD
  5
9
330
0
100
AcDbSymbolTable
 70
2
  0
BLOCK_RECORD
  5
17
330
9
100
AcDbSymbolTableRecord
100
AcDbBlockTableRecord
  2
*Model_Space
340
1A
 70
0
280
1
281
0
  0
BLOCK_RECORD
  5
1B
330
9
100
AcDbSymbolTableRecord
100
AcDbBlockTableRecord
  2
*Paper_Space
340
1E
 70
0
280
1
281
0
  0
ENDTAB
  0
ENDSEC
  0
SECTION
  2
BLOCKS
  0
BLOCK
  5
18
330
17
100
AcDbEntity
  8
0
100
AcDbBlockBegin
  2
*Model_Space
 70
0
 10
0.0
 20
0.0
 30
0.0
  3
*Model_Space
  1

  0
ENDBLK
  5
19
330
17
100
AcDbEntity
  8
0
100
AcDbBlockEnd
  0
BLOCK
  5
1C
330
1B
100
AcDbEntity
  8
0
100
AcDbBlockBegin
  2
*Paper_Space
 70
0
 10
0.0
 20
0.0
 30
0.0
  3
*Paper_Space
  1

  0
ENDBLK
  5
1D
330
1B
100
AcDbEntity
  8
0
100
AcDbBlockEnd
  0
ENDSEC
  0
SECTION
  2
ENTITIES
  0
LWPOLYLINE
  5
30
330
17
100
AcDbEntity
  8
K
100
AcDbPolyline
 90
10
 70
1
 10
304.3861922217611
 20
617.990865078789
 10
300.0270753225146
 20
623.2581313320453
 10
305.76180868636504
 20
633.6523355540245
 10
305.76180868636504
 20
644.0071832484075
 10
318.7003472726825
 20
670.0639623458522
 10
360.2756023921082
 20
616.3625911499273
 10
355.9054302220533
 20
611.0819664444447
 10
315.81147614518625
 20
614.5424565284601
 10
312.9576207931897
 20
617.990865078789
 10
304.3861922217611
 20
617.990865078789
  0
LWPOLYLINE
  5
31
330
17
100
AcDbEntity
  8
K
100
AcDbPolyline
 90
16
 70
1
 10
248.618951543508
 20
681.9238999459641
 10
245.7618086863651
 20
685.376280898345
 10
245.7618086863651
 20
702.6381856602497
 10
242.9046658292222
 20
706.0905666126307
 10
242.9046658292222
 20
713.067354021138
 10
247.26640182631144
 20
718.337785017621
 10
284.4983211840617
 20
697.5738299911833
 10
290.20839936495344
 20
690.6741521892723
 10
298.77982793638205
 20
687.2217712368913
 10
308.84875520023013
 20
675.0551507930749
 10
304.4802822938263
 20
669.7765793645034
 10
284.4561366658148
 20
669.7765793645034
 10
270.16598095280887
 20
662.869670769884
 10
251.5255153983811
 20
664.6022781451353
 10
248.618951543508
 20
668.1143761364403
 10
248.618951543508
 20
681.9238999459641
  0
LWPOLYLINE
  5
32
330
17
100
AcDbEntity
  8
K
100
AcDbPolyline
 90
19
 70
1
 10
202.9046658292223
 20
854.5509895574892
 10
202.9046658292223
 20
864.9103469845065
 10
191.47609440065082
 20
885.6246326987922
 10
191.47609440065082
 20
895.981775555935
 10
185.74436950197915
 20
906.3705269347772
 10
200.05561443213716
 20
927.1218320835064
 10
202.91270157414476
 20
937.4787729732836
 10
230.09475297718052
 20
977.2384841264081
 10
244.48779469448024
 20
977.2384841264081
 10
254.53528327711817
 20
961.6289929355244
 10
251.67364410097693
 20
920.1352248814774
 10
248.81895154350798
 20
916.685804707869
 10
248.81895154350798
 20
895.9876591650144
 10
237.38639274227057
 20
868.3589753953573
 10
234.5261265482651
 20
854.534355457665
 10
225.96180868636506
 20
844.185804707869
 10
225.96180868636506
 20
837.2810428031072
 10
218.70638269206776
 20
828.5140697266644
 10
202.9046658292223
 20
854.5509895574892
  0
LWPOLYLINE
  5
33
330
17
100
AcDbEntity
  8
K
100
AcDbPolyline
 90
20
 70
1
 10
104.3831879578605
 20
76.16705555497963
 10
118.69605213548672
 20
76.16705555497963
 10
132.98176642120097
 20
83.07181745974154
 10
158.69605213548667
 20
83.07181745974154
 10
172.981766421201
 20
89.97657936450345
 10
192.9576207931898
 20
89.97657936450345
 10
195.81476365033257
 20
93.42896031688439
 10
207.243335078904
 20
93.42896031688439
 10
210.1004779360469
 20
96.88134126926532
 10
221.62313943668332
 20
96.88134126926532
 10
226.0002478037354
 20
91.59233532574414
 10
193.06433976407433
 20
62.176750790322224
 10
170.17538607404913
 20
48.348007935932024
 10
164.48028229382615
 20
48.348007935932024
 10
158.77240948588468
 20
41.45099495966947
 10
138.77240948588465
 20
37.99861400728849
 10
135.90763887715417
 20
34.53701618840571
 10
80.09928066598559
 20
36.266121303922674
 10
77.163137150701
 20
39.8139613848916
 10
104.3831879578605
 20
76.16705555497963
  0
LWPOLYLINE
  5
34
330
17
100
AcDbEntity
  8
K
100
AcDbPolyline
 90
17
 70
1
 10
111.46631377457372
 20
716.4874861542245
 10
115.79655356359098
 20
725.2081079515509
 10
147.23917817076227
 20
728.6620326243083
 10
150.10047793604676
 20
732.1194365073607
 10
193.05171086525485
 20
732.1194365073607
 10
195.90885372239762
 20
728.6670555549797
 10
210.194568008112
 20
728.6670555549797
 10
214.5758279547122
 20
723.3730331195043
 10
190.18197577187212
 20
704.300388888313
 10
178.74681464547783
 20
704.300388888313
 10
167.31824321690635
 20
697.3956269835511
 10
155.89707660817643
 20
697.3956269835511
 10
147.32564803674785
 20
690.490865078789
 10
135.90885372239768
 20
690.490865078789
 10
133.0447592860048
 20
687.0300843014811
 10
122.933339216031
 20
688.775508004036
 10
111.46631377457372
 20
716.4874861542245
  0
LWPOLYLINE
  5
35
330
17
100
AcDbEntity
  8
K
100
AcDbPolyline
 90
8
 70
1
 10
4.386192221761065
 20
745.7289603168844
 10
0.0
 20
751.0289425848455
 10
12.970064802604986
 20
759.7356990495572
 10
50.12027547671649
 20
763.1887635032408
 10
64.46029816695365
 20
770.1197744701886
 10
80.2773266288016
 20
751.0075317454558
 10
75.90885372239764
 20
745.7289603168844
 10
4.386192221761065
 20
745.7289603168844
  0
LWPOLYLINE
  5
36
330
17
100
AcDbEntity
  8
K
100
AcDbPolyline
 90
10
 70
1
 10
1565.8191403995531
 20
343.52129079252853
 10
1562.9046658292225
 20
347.0429475650117
 10
1562.9046658292225
 20
454.15378603396425
 10
1570.1647625713565
 20
459.4173561720116
 10
1577.3851329699228
 20
450.69274194041094
 10
1583.099418684208
 20
412.7165514642205
 10
1585.9618086863652
 20
409.25783021161425
 10
1585.9618086863652
 20
350.4953285173927
 10
1581.6272963448253
 20
345.2577927713652
 10
1565.8191403995531
 20
343.52129079252853
  0
LWPOLYLINE
  5
37
330
17
100
AcDbEntity
  8
K
100
AcDbPolyline
 90
13
 70
1
 10
1282.9342831295962
 20
692.2256078319682
 10
1280.0384282746497
 20
699.2239237314224
 10
1294.3478498577408
 20
730.3469156746454
 10
1310.075056404812
 20
749.3506235856895
 10
1333.0150181959746
 20
770.1399639589313
 10
1363.1200824726193
 20
733.7630112913191
 10
1357.3750555768402
 20
719.879196293186
 10
1341.6232363835854
 20
704.3063750453096
 10
1318.760625256068
 20
700.8531681562573
 10
1310.1827908938906
 20
693.9432460311701
 10
1298.7659965795406
 20
693.9432460311701
 10
1295.9034809206576
 20
690.4843729433534
 10
1282.9342831295962
 20
692.2256078319682
  0
LWPOLYLINE
  5
38
330
17
100
AcDbEntity
  8
K
100
AcDbPolyline
 90
16
 70
1
 10
1197.2200120528935
 20
1.7614010017213688
 10
1191.4760944006512
 20
12.172251746411094
 10
1191.4760944006512
 20
22.60093719615272
 10
1201.5389073957056
 20
31.286103174027247
 10
1207.2433350789042
 20
31.286103174027247
 10
1212.9488375040435
 20
38.18025193773711
 10
1227.2345517897577
 20
41.632632890118096
 10
1230.1044830945332
 20
45.10046655005503
 10
1264.4898081508709
 20
41.6380553464655
 10
1277.4152140483848
 20
22.549145710785286
 10
1273.0517108652548
 20
17.27657936450347
 10
1241.6231394366832
 20
17.27657936450347
 10
1238.7747798686871
 20
13.834811553174509
 10
1210.1928006263329
 20
6.9274999029389495
 10
1201.593145574409
 20
0.0
 10
1197.2200120528935
 20
1.7614010017213688
  0
LWPOLYLINE
  5
39
330
17
100
AcDbEntity
  8
K
100
AcDbPolyline
 90
19
 70
1
 10
2482.9046658292223
 20
474.7712691519018
 10
2482.9046658292223
 20
485.1543258316812
 10
2474.3115383712866
 20
505.92105052169177
 10
2490.077652591229
 20
518.0442368347533
 10
2501.5098674305555
 20
531.8581630989396
 10
2513.016663303807
 20
538.8101856056954
 10
2524.422884891041
 20
528.4732972922645
 10
2530.1475229720795
 20
535.3905683068523
 10
2534.5332372577936
 20
530.0911635449477
 10
2534.5332372577936
 20
523.1789005346006
 10
2543.1046658292225
 20
509.3693767250767
 10
2543.1046658292225
 20
502.4595642007885
 10
2551.6945517802274
 20
485.1604883272375
 10
2547.3424704078025
 20
479.90172333555785
 10
2521.6052308958465
 20
476.44626062330457
 10
2507.3132795229576
 20
469.53848412640826
 10
2495.908853722398
 20
469.53848412640826
 10
2493.016614181514
 20
466.04369468117386
 10
2482.9046658292223
 20
474.7712691519018
  0
LWPOLYLINE
  5
3A
330
17
100
AcDbEntity
  8
K
100
AcDbPolyline
 90
11
 70
1
 10
2501.5182925078125
 20
545.5038629474296
 10
2498.6719065074753
 20
548.94324603117
 10
2487.2433350789042
 20
548.94324603117
 10
2482.9046658292223
 20
554.1858047078689
 10
2482.9046658292223
 20
588.7816397354237
 10
2487.2841806964393
 20
594.0735535333108
 10
2505.951344852068
 20
574.9875747972679
 10
2511.666795423564
 20
554.2690664755945
 10
2517.4201837716587
 20
547.3170555549796
 10
2513.0393469649252
 20
542.02354441351
 10
2501.5182925078125
 20
545.5038629474296
  0
LWPOLYLINE
  5
3B
330
17
100
AcDbEntity
  8
K
100
AcDbPolyline
 90
6
 70
1
 10
3860.0219025460474
 20
505.8935388634922
 10
3864.3861922217607
 20
511.16705555497964
 10
3887.337425150969
 20
511.16705555497964
 10
3891.7017148266827
 20
505.8935388634922
 10
3875.8618086863644
 20
483.2736728979628
 10
3860.0219025460474
 20
505.8935388634922
  0
LWPOLYLINE
  5
3C
330
17
100
AcDbEntity
  8
K
100
AcDbPolyline
 90
9
 70
1
 10
3740.0582321291704
 20
353.921724865875
 10
3737.1827250779647
 20
367.82000894670193
 10
3744.395099981654
 20
376.5349619553265
 10
3775.9168958630107
 20
369.60971892078584
 10
3780.247522972079
 20
364.3768778306619
 10
3780.247522972079
 20
343.66259211637623
 10
3783.134469485944
 20
340.17419841212256
 10
3775.882903595516
 20
331.4118896278546
 10
3740.0582321291704
 20
353.921724865875
  0
LWPOLYLINE
  5
3D
330
17
100
AcDbEntity
  8
K
100
AcDbPolyline
 90
8
 70
1
 10
3705.777133224461
 20
443.6887201027099
 10
3700.0298888356324
 20
457.5778940423811
 10
3718.667543384231
 20
476.6337010968777
 10
3733.041884712675
 20
480.10750025125174
 10
3737.3903801149363
 20
474.8530683068523
 10
3737.3903801149363
 20
447.1619951840594
 10
3721.5834800116772
 20
428.0619908926214
 10
3705.777133224461
 20
443.6887201027099
  0
LWPOLYLINE
  5
3E
330
17
100
AcDbEntity
  8
K
100
AcDbPolyline
 90
7
 70
1
 10
3570.0930628020383
 20
317.6426821752399
 10
3565.7213488621
 20
322.92516985266525
 10
3584.4461817551096
 20
338.5892127535481
 10
3591.6760944006505
 20
329.8530683068524
 10
3591.6760944006505
 20
319.42389994596414
 10
3587.3292802363944
 20
314.1714994974876
 10
3570.0930628020383
 20
317.6426821752399
  0
LWPOLYLINE
  5
3F
330
17
100
AcDbEntity
  8
K
100
AcDbPolyline
 90
16
 70
1
 10
5245.817032725005
 20
509.2381232802261
 10
5242.889249185826
 20
512.7758617234022
 10
5254.335928676144
 20
540.4386704916722
 10
5257.1935498277235
 20
561.1564238406286
 10
5270.126418335045
 20
587.2017840289832
 10
5273.051710865256
 20
583.6670555549797
 10
5281.611362322463
 20
583.6670555549797
 10
5290.18279089389
 20
576.7622936502177
 10
5295.9051182679905
 20
576.7622936502177
 10
5320.247522972079
 20
550.8089945171821
 10
5320.247522972079
 20
543.9006873544714
 10
5323.1344694859445
 20
540.4122936502179
 10
5304.480282293826
 20
517.8718174597417
 10
5290.170422380101
 20
517.8718174597417
 10
5275.887414148609
 20
510.96836348118745
 10
5245.817032725005
 20
509.2381232802261
  0
LWPOLYLINE
  5
40
330
17
100
AcDbEntity
  8
K
100
AcDbPolyline
 90
21
 70
1
 10
4614.333237257794
 20
668.1143761364403
 10
4614.333237257794
 20
675.0750233735162
 10
4617.17496347154
 20
681.9425283900689
 10
4612.963682407774
 20
687.0311596754512
 10
4590.106539550632
 20
683.5787787230703
 10
4585.749481366541
 20
688.8435573621798
 10
4591.476094400651
 20
706.1427009027194
 10
4591.476094400651
 20
723.4142403159292
 10
4597.1903801149365
 20
733.7713831730721
 10
4597.1903801149365
 20
740.6864016401857
 10
4601.529049364618
 20
745.9289603168844
 10
4641.52504258141
 20
745.9289603168844
 10
4661.525042581409
 20
773.548007935932
 10
4664.480282293826
 20
773.548007935932
 10
4668.818951543508
 20
768.3054492592333
 10
4668.818951543508
 20
750.971518993583
 10
4665.959544345234
 20
747.5164019623348
 10
4663.102401488091
 20
702.6354495813824
 10
4653.075265093697
 20
690.519326438157
 10
4618.704831690613
 20
662.8320328634503
 10
4614.333237257794
 20
668.1143761364403
  0
LWPOLYLINE
  5
41
330
17
100
AcDbEntity
  8
K
100
AcDbPolyline
 90
25
 70
1
 10
5945.761808686365
 20
398.828661850726
 10
5945.761808686365
 20
405.7334237554879
 10
5941.5760944006515
 20
410.791161850726
 10
5933.051710865256
 20
400.4908650787892
 10
5901.529049364618
 20
400.4908650787892
 10
5898.671906507476
 20
403.9432460311702
 10
5890.124623564058
 20
403.9432460311702
 10
5861.512952279278
 20
417.77222048548083
 10
5855.80093229349
 20
424.67424463497275
 10
5847.217732644431
 20
428.13136671584425
 10
5842.880596377748
 20
436.8658772529153
 10
5852.967478824277
 20
445.57181745974157
 10
5858.765996579541
 20
445.57181745974157
 10
5861.623139436683
 20
442.11943650736055
 10
5875.908853722398
 20
442.11943650736055
 10
5878.765996579541
 20
438.6670555549796
 10
5895.889671788335
 20
438.6670555549796
 10
5907.324640389322
 20
431.75842869188324
 10
5955.896068960751
 20
424.85366678712137
 10
5967.318243216907
 20
417.9527698406939
 10
5973.051710865256
 20
417.9527698406939
 10
5977.405796758334
 20
412.69158271989056
 10
5974.521443814164
 20
405.7210631048141
 10
5958.725585284212
 20
383.1640984616619
 10
5945.761808686365
 20
398.828661850726
  0
LWPOLYLINE
  5
42
330
17
100
AcDbEntity
  8
K
100
AcDbPolyline
 90
13
 70
1
 10
5878.671387547979
 20
555.857913106427
 10
5870.104973143765
 20
562.7586358209325
 10
5850.0940650297025
 20
566.2128997215743
 10
5842.867767584882
 20
574.9446758007329
 10
5855.801037704814
 20
587.0995546634467
 10
5872.967855859262
 20
597.4711739650928
 10
5890.110713002119
 20
600.9235549174739
 10
5901.598170057349
 20
607.8638935550084
 10
5905.973358781838
 20
602.5772071795843
 10
5897.390380114936
 20
574.9209425862342
 10
5897.390380114936
 20
564.5516139786098
 10
5890.193692193457
 20
552.377216911439
 10
5878.671387547979
 20
555.857913106427
  0
LWPOLYLINE
  5
43
330
17
100
AcDbEntity
  8
K
100
AcDbPolyline
 90
8
 70
1
 10
7717.190380114936
 20
305.61437613644034
 10
7717.190380114936
 20
312.5911635449475
 10
7721.529049364618
 20
317.8337222216463
 10
7730.175386074048
 20
317.8337222216463
 10
7741.636499710746
 20
310.9092993994756
 10
7766.019278594891
 20
288.3791336168202
 10
7744.415997658516
 20
272.7167549379477
 10
7717.190380114936
 20
305.61437613644034
  0
LWPOLYLINE
  5
44
330
17
100
AcDbEntity
  8
K
100
AcDbPolyline
 90
10
 70
1
 10
7455.825993243282
 20
265.85160824605776
 10
7442.899009832592
 20
274.529444331938
 10
7445.765456462057
 20
302.23842841676634
 10
7452.947611683479
 20
310.91686597598374
 10
7490.183181813169
 20
321.2998614929165
 10
7494.5295894821
 20
316.0479522262902
 10
7497.387757616426
 20
288.41899359447837
 10
7503.132026168517
 20
278.0075068438142
 10
7484.464206269685
 20
262.39115750536763
 10
7455.825993243282
 20
265.85160824605776
  0
LWPOLYLINE
  5
45
330
17
100
AcDbEntity
  8
K
100
AcDbPolyline
 90
10
 70
1
 10
8860.077154910035
 20
150.21378195410236
 10
8854.333237257795
 20
160.62463269879206
 10
8854.333237257795
 20
167.59690727829786
 10
8870.154908583105
 20
183.23878688400447
 10
8874.533237257794
 20
177.9483064020904
 10
8874.533237257794
 20
170.9817755559349
 10
8868.818951543508
 20
160.62463269879206
 10
8868.818951543508
 20
153.70961423167842
 10
8864.46367545423
 20
148.44698895713512
 10
8860.077154910035
 20
150.21378195410236
  0
ENDSEC
  0
SECTION
  2
OBJECTS
  0
DICTIONARY
  5
A
330
0
100
AcDbDictionary
281
1
  3
ACAD_COLOR
350
B
  3
ACAD_GROUP
350
C
  3
ACAD_LAYOUT
350
D
  3
ACAD_MATERIAL
350
E
  3
ACAD_MLEADERSTYLE
350
F
  3
ACAD_MLINESTYLE
350
10
  3
ACAD_PLOTSETTINGS
350
11
  3
ACAD_PLOTSTYLENAME
350
12
  3
ACAD_SCALELIST
350
14
  3
ACAD_TABLESTYLE
350
15
  3
ACAD_VISUALSTYLE
350
16
  3
EZDXF_META
350
2D
  0
DICTIONARY
  5
B
330
A
100
AcDbDictionary
281
1
  0
DICTIONARY
  5
C
330
A
100
AcDbDictionary
281
1
  0
DICTIONARY
  5
D
330
A
100
AcDbDictionary
281
1
  3
Model
350
1A
  3
Layout1
350
1E
  0
DICTIONARY
  5
E
330
A
100
AcDbDictionary
281
1
  3
ByBlock
350
1F
  3
ByLayer
350
20
  3
Global
350
21
  0
DICTIONARY
  5
F
330
A
100
AcDbDictionary
281
1
  3
Standard
350
2C
  0
DICTIONARY
  5
10
330
A
100
AcDbDictionary
281
1
  3
Standard
350
22
  0
DICTIONARY
  5
11
330
A
100
AcDbDictionary
281
1
  0
ACDBDICTIONARYWDFLT
  5
12
330
A
100
AcDbDictionary
281
1
  3
Normal
350
13
100
AcDbDictionaryWithDefault
340
13
  0
ACDBPLACEHOLDER
  5
13
330
12
  0
DICTIONARY
  5
14
330
A
100
AcDbDictionary
281
1
  0
DICTIONARY
  5
15
330
A
100
AcDbDictionary
281
1
  0
DICTIONARY
  5
16
330
A
100
AcDbDictionary
281
1
  0
LAYOUT
  5
1A
330
D
100
AcDbPlotSettings
  1

  4
A3
  6

 40
7.5
 41
20.0
 42
7.5
 43
20.0
 44
420.0
 45
297.0
 46
0.0
 47
0.0
 48
0.0
 49
0.0
140
0.0
141
0.0
142
1.0
143
1.0
 70
1024
 72
1
 73
0
 74
5
  7

 75
16
 76
0
 77
2
 78
300
147
1.0
148
0.0
149
0.0
100
AcDbLayout
  1
Model
 70
1
 71
0
 10
0.0
 20
0.0
 11
420.0
 21
297.0
 12
0.0
 22
0.0
 32
0.0
 14
1e+20
 24
1e+20
 34
1e+20
 15
-1e+20
 25
-1e+20
 35
-1e+20
146
0.0
 13
0.0
 23
0.0
 33
0.0
 16
1.0
 26
0.0
 36
0.0
 17
0.0
 27
1.0
 37
0.0
 76
1
330
17
  0
LAYOUT
  5
1E
330
D
100
AcDbPlotSettings
  1

  4
A3
  6

 40
7.5
 41
20.0
 42
7.5
 43
20.0
 44
420.0
 45
297.0
 46
0.0
 47
0.0
 48
0.0
 49
0.0
140
0.0
141
0.0
142
1.0
143
1.0
 70
0
 72
1
 73
0
 74
5
  7

 75
16
 76
0
 77
2
 78
300
147
1.0
148
0.0
149
0.0
100
AcDbLayout
  1
Layout1
 70
1
 71
1
 10
0.0
 20
0.0
 11
420.0
 21
297.0
 12
0.0
 22
0.0
 32
0.0
 14
1e+20
 24
1e+20
 34
1e+20
 15
-1e+20
 25
-1e+20
 35
-1e+20
146
0.0
 13
0.0
 23
0.0
 33
0.0
 16
1.0
 26
0.0
 36
0.0
 17
0.0
 27
1.0
 37
0.0
 76
1
330
1B
  0
MATERIAL
  5
1F
102
{ACAD_REACTORS
330
E
102
}
330
E
100
AcDbMaterial
  1
ByBlock
  2

 70
0
 40
1.0
 71
1
 41
1.0
 91
-1023410177
 42
1.0
 72
1
  3

 73
1
 74
1
 75
1
 44
0.5
 73
0
 45
1.0
 46
1.0
 77
1
  4

 78
1
 79
1
170
1
 48
1.0
171
1
  6

172
1
173
1
174
1
140
1.0
141
1.0
175
1
  7

176
1
177
1
178
1
143
1.0
179
1
  8

270
1
271
1
272
1
145
1.0
146
1.0
273
1
  9

274
1
275
1
276
1
 42
1.0
 72
1
  3

 73
1
 74
1
 75
1
 94
63
  0
MATERIAL
  5
20
102
{ACAD_REACTORS
330
E
102
}
330
E
100
AcDbMaterial
  1
ByLayer
  2

 70
0
 40
1.0
 71
1
 41
1.0
 91
-1023410177
 42
1.0
 72
1
  3

 73
1
 74
1
 75
1
 44
0.5
 73
0
 45
1.0
 46
1.0
 77
1
  4

 78
1
 79
1
170
1
 48
1.0
171
1
  6

172
1
173
1
174
1
140
1.0
141
1.0
175
1
  7

176
1
177
1
178
1
143
1.0
179
1
  8

270
1
271
1
272
1
145
1.0
146
1.0
273
1
  9

274
1
275
1
276
1
 42
1.0
 72
1
  3

 73
1
 74
1
 75
1
 94
63
  0
MATERIAL
  5
21
102
{ACAD_REACTORS
330
E
102
}
330
E
100
AcDbMaterial
  1
Global
  2

 70
0
 40
1.0
 71
1
 41
1.0
 91
-1023410177
 42
1.0
 72
1
  3

 73
1
 74
1
 75
1
 44
0.5
 73
0
 45
1.0
 46
1.0
 77
1
  4

 78
1
 79
1
170
1
 48
1.0
171
1
  6

172
1
173
1
174
1
140
1.0
141
1.0
175
1
  7

176
1
177
1
178
1
143
1.0
179
1
  8

270
1
271
1
272
1
145
1.0
146
1.0
273
1
  9

274
1
275
1
276
1
 42
1.0
 72
1
  3

 73
1
 74
1
 75
1
 94
63
  0
MLINESTYLE
  5
22
102
{ACAD_REACTORS
330
10
102
}
330
10
100
AcDbMlineStyle
  2
Standard
 70
0
  3

 62
256
 51
90.0
 52
90.0
 71
2
 49
0.5
 62
256
  6
BYLAYER
 49
-0.5
 62
256
  6
BYLAYER
  0
MLEADERSTYLE
  5
2C
102
{ACAD_REACTORS
330
F
102
}
330
F
100
AcDbMLeaderStyle
179
2
170
2
171
1
172
0
 90
2
 40
0.0
 41
0.0
173
1
 91
-1056964608
 92
-2
290
1
 42
2.0
291
1
 43
8.0
  3
Standard
 44
4.0
300

342
29
174
1
175
1
176
0
178
1
 93
-1056964608
 45
4.0
292
0
297
0
 46
4.0
 94
-1056964608
 47
1.0
 49
1.0
140
1.0
294
1
141
0.0
177
0
142
1.0
295
0
296
0
143
3.75
271
0
272
9
273
9
  0
DICTIONARY
  5
2D
330
A
100
AcDbDictionary
280
1
281
1
  3
CREATED_BY_EZDXF
350
2E
  3
WRITTEN_BY_EZDXF
350
48
  0
DICTIONARYVAR
  5
2E
330
2D
100
DictionaryVariables
280
0
  1
1.4.4 @ 2026-07-08T15:53:08.938068+00:00
  0
DICTIONARYVAR
  5
48
330
2D
100
DictionaryVariables
280
0
  1
1.4.4 @ 2026-07-08T15:53:08.940876+00:00
  0
ENDSEC
  0
EOF
