  0
SECTION
  2
HEADER
  9
$ACADVER
  1
AC1027
  9
$ACADMAINTVER
 70
105
  9
$DWGCODEPAGE
  3
ANSI_1252
  9
$LASTSAVEDBY
  1
ezdxf
  9
$REQUIREDVERSIONS
160
0
  9
$INSBASE
 10
0.0
 20
0.0
 30
0.0
  9
$EXTMIN
 10
1e+20
 20
1e+20
 30
1e+20
  9
$EXTMAX
 10
-1e+20
 20
-1e+20
 30
-1e+20
  9
$LIMMIN
 10
0.0
 20
0.0
  9
$LIMMAX
 10
420.0
 20
297.0
  9
$ORTHOMODE
 70
0
  9
$REGENMODE
 70
1
  9
$FILLMODE
 70
1
  9
$QTEXTMODE
 70
0
  9
$MIRRTEXT
 70
1
  9
$LTSCALE
 40
1.0
  9
$ATTMODE
 70
1
  9
$TEXTSIZE
 40
2.5
  9
$TRACEWID
 40
1.0
  9
$TEXTSTYLE
  7
Standard
  9
$CLAYER
  8
0
  9
$CELTYPE
  6
ByLayer
  9
$CECOLOR
 62
256
  9
$CELTSCALE
 40
1.0
  9
$DISPSILH
 70
0
  9
$DIMSCALE
 40
1.0
  9
$DIMASZ
 40
2.5
  9
$DIMEXO
 40
0.625
  9
$DIMDLI
 40
3.75
  9
$DIMRND
 40
0.0
  9
$DIMDLE
 40
0.0
  9
$DIMEXE
 40
1.25
  9
$DIMTP
 40
0.0
  9
$DIMTM
 40
0.0
  9
$DIMTXT
 40
2.5
  9
$DIMCEN
 40
2.5
  9
$DIMTSZ
 40
0.0
  9
$DIMTOL
 70
0
  9
$DIMLIM
 70
0
  9
$DIMTIH
 70
0
  9
$DIMTOH
 70
0
  9
$DIMSE1
 70
0
  9
$DIMSE2
 70
0
  9
$DIMTAD
 70
1
  9
$DIMZIN
 70
8
  9
$DIMBLK
  1

  9
$DIMASO
 70
1
  9
$DIMSHO
 70
1
  9
$DIMPOST
  1

  9
$DIMAPOST
  1

  9
$DIMALT
 70
0
  9
$DIMALTD
 70
3
  9
$DIMALTF
 40
0.03937007874
  9
$DIMLFAC
 40
1.0
  9
$DIMTOFL
 70
1
  9
$DIMTVP
 40
0.0
  9
$DIMTIX
 70
0
  9
$DIMSOXD
 70
0
  9
$DIMSAH
 70
0
  9
$DIMBLK1
  1

  9
$DIMBLK2
  1

  9
$DIMSTYLE
  2
ISO-25
  9
$DIMCLRD
 70
0
  9
$DIMCLRE
 70
0
  9
$DIMCLRT
 70
0
  9
$DIMTFAC
 40
1.0
  9
$DIMGAP
 40
0.625
  9
$DIMJUST
 70
0
  9
$DIMSD1
 70
0
  9
$DIMSD2
 70
0
  9
$DIMTOLJ
 70
0
  9
$DIMTZIN
 70
8
  9
$DIMALTZ
 70
0
  9
$DIMALTTZ
 70
0
  9
$DIMUPT
 70
0
  9
$DIMDEC
 70
2
  9
$DIMTDEC
 70
2
  9
$DIMALTU
 70
2
  9
$DIMALTTD
 70
3
  9
$DIMTXSTY
  7
Standard
  9
$DIMAUNIT
 70
0
  9
$DIMADEC
 70
0
  9
$DIMALTRND
 40
0.0
  9
$DIMAZIN
 70
0
  9
$DIMDSEP
 70
44
  9
$DIMATFIT
 70
3
  9
$DIMFRAC
 70
0
  9
$DIMLDRBLK
  1

  9
$DIMLUNIT
 70
2
  9
$DIMLWD
 70
-2
  9
$DIMLWE
 70
-2
  9
$DIMTMOVE
 70
0
  9
$DIMFXL
 40
1.0
  9
$DIMFXLON
 70
0
  9
$DIMJOGANG
 40
0.785398163397
  9
$DIMTFILL
 70
0
  9
$DIMTFILLCLR
 70
0
  9
$DIMARCSYM
 70
0
  9
$DIMLTYPE
  6

  9
$DIMLTEX1
  6

  9
$DIMLTEX2
  6

  9
$DIMTXTDIRECTION
 70
0
  9
$LUNITS
 70
2
  9
$LUPREC
 70
4
  9
$SKETCHINC
 40
1.0
  9
$FILLETRAD
 40
10.0
  9
$AUNITS
 70
0
  9
$AUPREC
 70
2
  9
$MENU
  1
.
  9
$ELEVATION
 40
0.0
  9
$PELEVATION
 40
0.0
  9
$THICKNESS
 40
0.0
  9
$LIMCHECK
 70
0
  9
$CHAMFERA
 40
0.0
  9
$CHAMFERB
 40
0.0
  9
$CHAMFERC
 40
0.0
  9
$CHAMFERD
 40
0.0
  9
$SKPOLY
 70
0
  9
$TDCREATE
 40
2461230.7868981482
  9
$TDUCREATE
 40
2458532.153996898
  9
$TDUPDATE
 40
2461230.7869097223
  9
$TDUUPDATE
 40
2458532.1544311
  9
$TDINDWG
 40
0.0
  9
$TDUSRTIMER
 40
0.0
  9
$USRTIMER
 70
1
  9
$ANGBASE
 50
0.0
  9
$ANGDIR
 70
0
  9
$PDMODE
 70
0
  9
$PDSIZE
 40
0.0
  9
$PLINEWID
 40
0.0
  9
$SPLFRAME
 70
0
  9
$SPLINETYPE
 70
6
  9
$SPLINESEGS
 70
8
  9
$HANDSEED
  5
7B
  9
$SURFTAB1
 70
6
  9
$SURFTAB2
 70
6
  9
$SURFTYPE
 70
6
  9
$SURFU
 70
6
  9
$SURFV
 70
6
  9
$UCSBASE
  2

  9
$UCSNAME
  2

  9
$UCSORG
 10
0.0
 20
0.0
 30
0.0
  9
$UCSXDIR
 10
1.0
 20
0.0
 30
0.0
  9
$UCSYDIR
 10
0.0
 20
1.0
 30
0.0
  9
$UCSORTHOREF
  2

  9
$UCSORTHOVIEW
 70
0
  9
$UCSORGTOP
 10
0.0
 20
0.0
 30
0.0
  9
$UCSORGBOTTOM
 10
0.0
 20
0.0
 30
0.0
  9
$UCSORGLEFT
 10
0.0
 20
0.0
 30
0.0
  9
$UCSORGRIGHT
 10
0.0
 20
0.0
 30
0.0
  9
$UCSORGFRONT
 10
0.0
 20
0.0
 30
0.0
  9
$UCSORGBACK
 10
0.0
 20
0.0
 30
0.0
  9
$PUCSBASE
  2

  9
$PUCSNAME
  2

  9
$PUCSORG
 10
0.0
 20
0.0
 30
0.0
  9
$PUCSXDIR
 10
1.0
 20
0.0
 30
0.0
  9
$PUCSYDIR
 10
0.0
 20
1.0
 30
0.0
  9
$PUCSORTHOREF
  2

  9
$PUCSORTHOVIEW
 70
0
  9
$PUCSORGTOP
 10
0.0
 20
0.0
 30
0.0
  9
$PUCSORGBOTTOM
 10
0.0
 20
0.0
 30
0.0
  9
$PUCSORGLEFT
 10
0.0
 20
0.0
 30
0.0
  9
$PUCSORGRIGHT
 10
0.0
 20
0.0
 30
0.0
  9
$PUCSORGFRONT
 10
0.0
 20
0.0
 30
0.0
  9
$PUCSORGBACK
 10
0.0
 20
0.0
 30
0.0
  9
$USERI1
 70
0
  9
$USERI2
 70
0
  9
$USERI3
 70
0
  9
$USERI4
 70
0
  9
$USERI5
 70
0
  9
$USERR1
 40
0.0
  9
$USERR2
 40
0.0
  9
$USERR3
 40
0.0
  9
$USERR4
 40
0.0
  9
$USERR5
 40
0.0
  9
$WORLDVIEW
 70
1
  9
$SHADEDGE
 70
3
  9
$SHADEDIF
 70
70
  9
$TILEMODE
 70
1
  9
$MAXACTVP
 70
64
  9
$PINSBASE
 10
0.0
 20
0.0
 30
0.0
  9
$PLIMCHECK
 70
0
  9
$PEXTMIN
 10
1e+20
 20
1e+20
 30
1e+20
  9
$PEXTMAX
 10
-1e+20
 20
-1e+20
 30
-1e+20
  9
$PLIMMIN
 10
0.0
 20
0.0
  9
$PLIMMAX
 10
420.0
 20
297.0
  9
$UNITMODE
 70
0
  9
$VISRETAIN
 70
1
  9
$PLINEGEN
 70
0
  9
$PSLTSCALE
 70
1
  9
$TREEDEPTH
 70
3020
  9
$CMLSTYLE
  2
Standard
  9
$CMLJUST
 70
0
  9
$CMLSCALE
 40
20.0
  9
$PROXYGRAPHICS
 70
1
  9
$MEASUREMENT
 70
1
  9
$CELWEIGHT
370
-1
  9
$ENDCAPS
280
0
  9
$JOINSTYLE
280
0
  9
$LWDISPLAY
290
0
  9
$INSUNITS
 70
4
  9
$HYPERLINKBASE
  1

  9
$STYLESHEET
  1

  9
$XEDIT
290
1
  9
$CEPSNTYPE
380
0
  9
$PSTYLEMODE
290
1
  9
$FINGERPRINTGUID
  2
{FF09828C-C08B-4365-B1CE-E85F93557743}
  9
$VERSIONGUID
  2
{20F04E6F-C055-48EF-8231-04202A4AA2D5}
  9
$EXTNAMES
290
1
  9
$PSVPSCALE
 40
0.0
  9
$OLESTARTUP
290
0
  9
$SORTENTS
280
127
  9
$INDEXCTL
280
0
  9
$HIDETEXT
280
1
  9
$XCLIPFRAME
280
1
  9
$HALOGAP
280
0
  9
$OBSCOLOR
 70
257
  9
$OBSLTYPE
280
0
  9
$INTERSECTIONDISPLAY
280
0
  9
$INTERSECTIONCOLOR
 70
257
  9
$DIMASSOC
280
2
  9
$PROJECTNAME
  1

  9
$CAMERADISPLAY
290
0
  9
$LENSLENGTH
 40
50.0
  9
$CAMERAHEIGHT
 40
0.0
  9
$STEPSPERSEC
 40
24.0
  9
$STEPSIZE
 40
100.0
  9
$3DDWFPREC
 40
2.0
  9
$PSOLWIDTH
 40
0.005
  9
$PSOLHEIGHT
 40
0.08
  9
$LOFTANG1
 40
1.570796326795
  9
$LOFTANG2
 40
1.570796326795
  9
$LOFTMAG1
 40
0.0
  9
$LOFTMAG2
 40
0.0
  9
$LOFTPARAM
 70
7
  9
$LOFTNORMALS
280
1
  9
$LATITUDE
 40
37.795
  9
$LONGITUDE
 40
-122.394
  9
$NORTHDIRECTION
 40
0.0
  9
$TIMEZONE
 70
-8000
  9
$LIGHTGLYPHDISPLAY
280
1
  9
$TILEMODELIGHTSYNCH
280
1
  9
$CMATERIAL
347
20
  9
$SOLIDHIST
280
0
  9
$SHOWHIST
280
1
  9
$DWFFRAME
280
2
  9
$DGNFRAME
280
2
  9
$REALWORLDSCALE
290
1
  9
$INTERFERECOLOR
 62
256
  9
$CSHADOW
280
0
  9
$SHADOWPLANELOCATION
 40
0.0
  0
ENDSEC
  0
SECTION
  2
CLASSES
  0
CLASS
  1
ACDBDICTIONARYWDFLT
  2
AcDbDictionaryWithDefault
  3
ObjectDBX Classes
 90
0
 91
0
280
0
281
0
  0
CLASS
  1
SUN
  2
AcDbSun
  3
SCENEOE
 90
1153
 91
0
280
0
281
0
  0
CLASS
  1
VISUALSTYLE
  2
AcDbVisualStyle
  3
ObjectDBX Classes
 90
4095
 91
0
280
0
281
0
  0
CLASS
  1
MATERIAL
  2
AcDbMaterial
  3
ObjectDBX Classes
 90
1153
 91
0
280
0
281
0
  0
CLASS
  1
SCALE
  2
AcDbScale
  3
ObjectDBX Classes
 90
1153
 91
0
280
0
281
0
  0
CLASS
  1
TABLESTYLE
  2
AcDbTableStyle
  3
ObjectDBX Classes
 90
4095
 91
0
280
0
281
0
  0
CLASS
  1
MLEADERSTYLE
  2
AcDbMLeaderStyle
  3
ACDB_MLEADERSTYLE_CLASS
 90
4095
 91
0
280
0
281
0
  0
CLASS
  1
DICTIONARYVAR
  2
AcDbDictionaryVar
  3
ObjectDBX Classes
 90
0
 91
0
280
0
281
0
  0
CLASS
  1
CELLSTYLEMAP
  2
AcDbCellStyleMap
  3
ObjectDBX Classes
 90
1152
 91
0
280
0
281
0
  0
CLASS
  1
MENTALRAYRENDERSETTINGS
  2
AcDbMentalRayRenderSettings
  3
SCENEOE
 90
1024
 91
0
280
0
281
0
  0
CLASS
  1
ACDBDETAILVIEWSTYLE
  2
AcDbDetailViewStyle
  3
ObjectDBX Classes
 90
1025
 91
0
280
0
281
0
  0
CLASS
  1
ACDBSECTIONVIEWSTYLE
  2
AcDbSectionViewStyle
  3
ObjectDBX Classes
 90
1025
 91
0
280
0
281
0
  0
CLASS
  1
RASTERVARIABLES
  2
AcDbRasterVariables
  3
ISM
 90
0
 91
0
280
0
281
0
  0
CLASS
  1
LAYOUT
  2
AcDbLayout
  3
ObjectDBX Classes
 90
0
 91
0
280
0
281
0
  0
CLASS
  1
ACDBPLACEHOLDER
  2
AcDbPlaceHolder
  3
ObjectDBX Classes
 90
0
 91
0
280
0
281
0
  0
ENDSEC
  0
SECTION
  2
TABLES
  0
TABLE
  2
VPORT
  5
8
330
0
100
AcDbSymbolTable
 70
1
  0
VPORT
  5
23
330
8
100
AcDbSymbolTableRecord
100
AcDbViewportTableRecord
  2
*Active
 70
0
 10
0.0
 20
0.0
 11
1.0
 21
1.0
 12
0.0
 22
0.0
 13
0.0
 23
0.0
 14
0.5
 24
0.5
 15
0.5
 25
0.5
 16
0.0
 26
0.0
 36
1.0
 17
0.0
 27
0.0
 37
0.0
 40
1000.0
 41
1.34
 42
50.0
 43
0.0
 44
0.0
 50
0.0
 51
0.0
 71
0
 72
1000
 73
1
 74
3
 75
0
 76
0
 77
0
 78
0
281
0
 65
0
146
0.0
  0
ENDTAB
  0
TABLE
  2
LTYPE
  5
2
330
0
100
AcDbSymbolTable
 70
3
  0
LTYPE
  5
24
330
2
100
AcDbSymbolTableRecord
100
AcDbLinetypeTableRecord
  2
ByBlock
 70
0
  3

 72
65
 73
0
 40
0.0
  0
LTYPE
  5
25
330
2
100
AcDbSymbolTableRecord
100
AcDbLinetypeTableRecord
  2
ByLayer
 70
0
  3

 72
65
 73
0
 40
0.0
  0
LTYPE
  5
26
330
2
100
AcDbSymbolTableRecord
100
AcDbLinetypeTableRecord
  2
Continuous
 70
0
  3

 72
65
 73
0
 40
0.0
  0
ENDTAB
  0
TABLE
  2
LAYER
  5
1
330
0
100
AcDbSymbolTable
 70
3
  0
LAYER
  5
27
330
1
100
AcDbSymbolTableRecord
100
AcDbLayerTableRecord
  2
0
 70
0
 62
7
  6
Continuous
370
-3
390
13
347
21
  0
LAYER
  5
28
330
1
100
AcDbSymbolTableRecord
100
AcDbLayerTableRecord
  2
Defpoints
 70
0
 62
7
  6
Continuous
290
0
370
-3
390
13
347
21
  0
LAYER
  5
2F
330
1
100
AcDbSymbolTableRecord
100
AcDbLayerTableRecord
  2
M
 70
0
 62
7
  6
Continuous
370
-3
390
13
347
21
  0
ENDTAB
  0
TABLE
  2
STYLE
  5
5
330
0
100
AcDbSymbolTable
 70
1
  0
STYLE
  5
29
330
5
100
AcDbSymbolTableRecord
100
AcDbTextStyleTableRecord
  2
Standard
 70
0
 40
0.0
 41
1.0
 50
0.0
 71
0
 42
2.5
  3
txt
  4

  0
ENDTAB
  0
TABLE
  2
VIEW
  5
7
330
0
100
AcDbSymbolTable
 70
0
  0
ENDTAB
  0
TABLE
  2
UCS
  5
6
330
0
100
AcDbSymbolTable
 70
0
  0
ENDTAB
  0
TABLE
  2
APPID
  5
3
330
0
100
AcDbSymbolTable
 70
3
  0
APPID
  5
2A
330
3
100
AcDbSymbolTableRecord
100
AcDbRegAppTableRecord
  2
ACAD
 70
0
  0
APPID
  5
78
330
3
100
AcDbSymbolTableRecord
100
AcDbRegAppTableRecord
  2
HATCHBACKGROUNDCOLOR
 70
0
  0
APPID
  5
79
330
3
100
AcDbSymbolTableRecord
100
AcDbRegAppTableRecord
  2
EZDXF
 70
0
  0
ENDTAB
  0
TABLE
  2
DIMSTYLE
  5
4
330
0
100
AcDbSymbolTable
 70
1
100
AcDbDimStyleTable
  0
DIMSTYLE
105
2B
330
4
100
AcDbSymbolTableRecord
100
AcDbDimStyleTableRecord
  2
Standard
 70
0
 40
1.0
 41
2.5
 42
0.625
 43
3.75
 44
1.25
 45
0.0
 46
0.0
 47
0.0
 48
0.0
 49
2.5
140
2.5
141
2.5
142
0.0
143
0.03937007874
144
1.0
145
0.0
146
1.0
147
0.625
148
0.0
 69
0
 70
0
 71
0
 72
0
 73
0
 74
0
 75
0
 76
0
 77
1
 78
8
 79
3
170
0
171
3
172
1
173
0
174
0
175
0
176
0
177
0
178
0
179
2
271
2
272
2
273
2
274
3
275
0
276
0
277
2
278
44
279
0
280
0
281
0
282
0
283
0
284
8
285
0
286
0
288
0
289
3
290
0
371
-2
372
-2
  0
ENDTAB
  0
TABLE
  2
BLOCK_RECORD
  5
9
330
0
100
AcDbSymbolTable
 70
2
  0
BLOCK_RECORD
  5
17
330
9
100
AcDbSymbolTableRecord
100
AcDbBlockTableRecord
  2
*Model_Space
340
1A
 70
0
280
1
281
0
  0
BLOCK_RECORD
  5
1B
330
9
100
AcDbSymbolTableRecord
100
AcDbBlockTableRecord
  2
*Paper_Space
340
1E
 70
0
280
1
281
0
  0
ENDTAB
  0
ENDSEC
  0
SECTION
  2
BLOCKS
  0
BLOCK
  5
18
330
17
100
AcDbEntity
  8
0
100
AcDbBlockBegin
  2
*Model_Space
 70
0
 10
0.0
 20
0.0
 30
0.0
  3
*Model_Space
  1

  0
ENDBLK
  5
19
330
17
100
AcDbEntity
  8
0
100
AcDbBlockEnd
  0
BLOCK
  5
1C
330
1B
100
AcDbEntity
  8
0
100
AcDbBlockBegin
  2
*Paper_Space
 70
0
 10
0.0
 20
0.0
 30
0.0
  3
*Paper_Space
  1

  0
ENDBLK
  5
1D
330
1B
100
AcDbEntity
  8
0
100
AcDbBlockEnd
  0
ENDSEC
  0
SECTION
  2
ENTITIES
  0
LWPOLYLINE
  5
30
330
17
100
AcDbEntity
  8
M
100
AcDbPolyline
 90
10
 70
1
 10
671.455646751086
 20
664.6807987620982
 10
677.1903801149364
 20
675.0750029840771
 10
677.1903801149364
 20
685.4298506784602
 10
690.1289187012538
 20
711.486629775905
 10
731.7041738206796
 20
657.7852585799801
 10
727.3340016506247
 20
652.5046338744974
 10
687.2400475737577
 20
655.9651239585127
 10
684.3861922217611
 20
659.413532508842
 10
675.8147636503325
 20
659.413532508842
 10
671.455646751086
 20
664.6807987620982
  0
LWPOLYLINE
  5
31
330
17
100
AcDbEntity
  8
M
100
AcDbPolyline
 90
16
 70
1
 10
620.0475229720794
 20
709.5370435664929
 10
620.0475229720794
 20
723.3465673760169
 10
617.1903801149365
 20
726.7989483283978
 10
617.1903801149365
 20
744.0608530903025
 10
614.3332372577936
 20
747.5132340426835
 10
614.3332372577936
 20
754.4900214511907
 10
618.6949732548827
 20
759.7604524476735
 10
655.9268926126332
 20
738.996497421236
 10
661.6369707935248
 20
732.096819619325
 10
670.2083993649535
 20
728.6444386669442
 10
680.2773266288016
 20
716.4778182231278
 10
675.9088537223976
 20
711.1992467945563
 10
655.8847080943862
 20
711.1992467945563
 10
641.5945523813801
 20
704.2923381999367
 10
622.9540868269526
 20
706.0249455751879
 10
620.0475229720794
 20
709.5370435664929
  0
LWPOLYLINE
  5
32
330
17
100
AcDbEntity
  8
M
100
AcDbPolyline
 90
15
 70
1
 10
644.4644069151065
 20
231.51829441360377
 10
650.1945680081118
 20
231.51829441360377
 10
655.9088537223976
 20
224.61353250884193
 10
661.6231394366831
 20
224.61353250884193
 10
665.961808686365
 20
219.37097383214314
 10
665.961808686365
 20
215.8499551739621
 10
644.4680876444289
 20
186.41549830264378
 10
640.0841045628669
 20
188.18126926605063
 10
588.5918391051795
 20
257.3144034453533
 10
593.0046658292223
 20
262.64656907023834
 10
598.7747798686869
 20
255.67434793921845
 10
613.0604941544011
 20
252.22196698683757
 10
618.7659965795405
 20
245.3278182231276
 10
624.4644069151065
 20
245.3278182231276
 10
644.4644069151065
 20
231.51829441360377
  0
LWPOLYLINE
  5
33
330
17
100
AcDbEntity
  8
M
100
AcDbPolyline
 90
20
 70
1
 10
567.2433350789039
 20
134.8516277469371
 10
578.6719065074755
 20
134.8516277469371
 10
581.5290493646183
 20
138.30400869931805
 10
593.0517108652547
 20
138.30400869931805
 10
597.4288192323068
 20
133.0150027557969
 10
564.4929111926458
 20
103.59941822037497
 10
541.6039575026206
 20
89.77067536598476
 10
535.9088537223975
 20
89.77067536598476
 10
530.2009809144561
 20
82.87366238972221
 10
510.20098091445607
 20
79.42128143734124
 10
507.3362103057255
 20
75.95968361845846
 10
451.527852094557
 20
77.68878873397541
 10
448.5917085792724
 20
81.23662881494434
 10
475.8117593864319
 20
117.58972298503237
 10
490.12462356405814
 20
117.58972298503237
 10
504.4103378497724
 20
124.49448488979428
 10
530.124623564058
 20
124.49448488979428
 10
544.4103378497724
 20
131.3992467945562
 10
564.3861922217612
 20
131.3992467945562
 10
567.2433350789039
 20
134.8516277469371
  0
LWPOLYLINE
  5
34
330
17
100
AcDbEntity
  8
M
100
AcDbPolyline
 90
23
 70
1
 10
474.3332372577936
 20
688.8947833559527
 10
482.9156402919292
 20
699.2651870221999
 10
488.629926006215
 20
716.5270917841046
 10
494.3332372577936
 20
723.4185928797623
 10
494.3332372577936
 20
730.26746945221
 10
482.8948852031451
 20
757.9101535842774
 10
487.22512499216236
 20
766.6307753816037
 10
518.6677495993337
 20
770.0847000543612
 10
521.5290493646181
 20
773.5421039374133
 10
564.4802822938262
 20
773.5421039374133
 10
567.3374251509691
 20
770.0897229850323
 10
581.6231394366833
 20
770.0897229850323
 10
585.9998033558664
 20
764.8012540826861
 10
574.5219122300794
 20
754.3994152499414
 10
571.6686603150573
 20
744.0563770579873
 10
563.1000858839128
 20
730.2514515855876
 10
560.2429430267699
 20
712.9895468236829
 10
551.6760944006506
 20
699.1874018149354
 10
551.6760944006506
 20
692.2804805981491
 10
538.7709408603467
 20
673.2214806937185
 10
480.0993386415809
 20
674.9506234420357
 10
474.3332372577936
 20
681.9179959474453
 10
474.3332372577936
 20
688.8947833559527
  0
LWPOLYLINE
  5
35
330
17
100
AcDbEntity
  8
M
100
AcDbPolyline
 90
12
 70
1
 10
380.04585428000576
 20
374.6581075217961
 10
382.90649066251274
 20
436.8769488413222
 10
404.4279602366168
 20
459.41471003420327
 10
471.68987187003944
 20
398.89091543497983
 10
457.38047491432
 20
350.4774557347958
 10
453.0447592860048
 20
345.23846601724836
 10
442.95120788684534
 20
346.9808052468651
 10
438.66312321832885
 20
352.1622408879891
 10
410.1090257217607
 20
359.06281444965975
 10
392.9768027272524
 20
369.41353250884197
 10
384.3861922217611
 20
369.41353250884197
 10
380.04585428000576
 20
374.6581075217961
  0
LWPOLYLINE
  5
36
330
17
100
AcDbEntity
  8
M
100
AcDbPolyline
 90
20
 70
1
 10
335.80961232856924
 20
207.3671205709374
 10
350.19280062633266
 20
203.89118339897792
 10
358.75421946531924
 20
196.99448488979422
 10
367.3256480367478
 20
196.99448488979422
 10
375.9055094601168
 20
190.08292985430262
 10
393.05912599926313
 20
186.62838207905781
 10
400.26797062164405
 20
177.9176948270143
 10
394.5302481107885
 20
167.51807277608853
 10
391.6737801776893
 20
143.3571148419582
 10
385.94845130311154
 20
129.52090339506177
 10
381.61077553635374
 20
124.27954517689612
 10
370.08972107924103
 20
127.75986371081558
 10
367.243335078904
 20
131.19924679455622
 10
352.9576207931897
 20
131.19924679455622
 10
340.0475229720794
 20
146.7989483283978
 10
340.0475229720794
 20
153.70371023315974
 10
331.48945178390426
 20
164.04471291887126
 10
325.761808686365
 20
177.8865170712577
 10
325.761808686365
 20
188.288255321752
 10
335.80961232856924
 20
207.3671205709374
  0
LWPOLYLINE
  5
37
330
17
100
AcDbEntity
  8
M
100
AcDbPolyline
 90
14
 70
1
 10
344.3791613512392
 20
735.5818605095063
 10
352.97046063482924
 20
752.8837826778476
 10
370.20134366457586
 20
739.0033491261074
 10
384.49172112312607
 20
732.0963333544747
 10
400.27660389195046
 20
716.490824253478
 10
375.915181132701
 20
680.1278182231276
 10
367.31824321690635
 20
680.1278182231276
 10
355.8896717883349
 20
673.2230563183657
 10
344.46850517960485
 20
673.2230563183657
 10
335.8737452113482
 20
666.2994996772702
 10
325.761808686365
 20
671.5360382348507
 10
325.761808686365
 20
733.7757357369051
 10
330.11030408862655
 20
739.0301676813044
 10
344.3791613512392
 20
735.5818605095063
  0
LWPOLYLINE
  5
38
330
17
100
AcDbEntity
  8
M
100
AcDbPolyline
 90
87
 70
1
 10
207.24333507890393
 20
269.2944848897943
 10
194.3332372577936
 20
284.8941864236359
 10
194.3332372577936
 20
305.6293243020011
 10
185.7544326750974
 20
333.2721390684669
 10
190.0709008145313
 20
341.96502629371577
 10
230.08129600198407
 20
366.1379733861351
 10
237.1903801149365
 20
374.728116689286
 10
237.1903801149365
 20
422.9796508676688
 10
227.25319310999114
 20
431.55638965169913
 10
212.98176642120092
 20
431.55638965169913
 10
198.69605213548664
 20
438.461151556461
 10
184.386192221761
 20
438.461151556461
 10
177.19402789062894
 20
447.1516834565789
 10
174.33688503348606
 20
474.77073107562654
 10
171.47609440065077
 20
478.22751975696923
 10
171.47609440065077
 20
495.5658347305377
 10
191.45515446751975
 20
516.2584326569378
 10
182.90935632665523
 20
533.4687205795121
 10
180.05319459097936
 20
547.2735023019455
 10
171.47609440065077
 20
561.0921637196973
 10
171.47609440065077
 20
571.4418054712548
 10
165.7320050296428
 20
578.3825801278895
 10
170.14752297207932
 20
583.7179976416671
 10
173.0517108652548
 20
580.20877060408
 10
187.31824321690644
 20
580.20877060408
 10
198.74681464547783
 20
573.3040086993182
 10
215.88967178833497
 20
573.3040086993182
 10
227.3182432169064
 20
566.3992467945562
 10
241.60395750262072
 20
566.3992467945562
 10
247.24912203010297
 20
562.9886265592023
 10
251.46631377457373
 20
571.481582155706
 10
237.1903801149365
 20
605.9817551664959
 10
237.1903801149365
 20
616.336317358529
 10
225.76180868636501
 20
640.5029840251957
 10
225.76180868636501
 20
650.9185928797623
 10
232.93843885912696
 20
659.5903543385162
 10
255.84530986479982
 20
673.4299222377769
 10
270.20335129725834
 20
669.9600622249327
 10
273.05171086525473
 20
666.5182944136039
 10
281.611362322462
 20
666.5182944136039
 10
290.18279089389057
 20
659.6135325088419
 10
298.74681464547774
 20
659.6135325088419
 10
310.2137499421746
 20
652.6855924337542
 10
314.5290825081169
 20
647.4712322499072
 10
317.38806589197503
 20
623.2889977947731
 10
325.96733908156835
 20
602.555754253256
 10
323.0953668521351
 20
592.1448549215604
 10
313.0517108652548
 20
580.0087706040799
 10
307.337425150969
 20
580.0087706040799
 10
301.6319227258298
 20
573.1146218403702
 10
287.34620844011556
 20
569.6622408879892
 10
284.48028229382624
 20
566.1992467945562
 10
278.7542194653191
 20
566.1992467945562
 10
270.18279089389057
 20
559.2944848897943
 10
264.4802822938262
 20
559.2944848897943
 10
260.2404122625508
 20
554.1713086020033
 10
257.3856896175035
 20
540.3734824842741
 10
248.82736599253042
 20
523.1379696284257
 10
257.40359374413606
 20
498.95777193987107
 10
254.5332372577936
 20
495.48942451887393
 10
254.5332372577936
 20
485.1425382240829
 10
248.8163290449979
 20
474.7806420883907
 10
245.95918618785507
 20
447.1615944693431
 10
240.2679706216441
 20
436.8462662555857
 10
244.48239186010707
 20
431.753840592443
 10
307.3395347172499
 20
428.301459640062
 10
311.6703441645708
 20
423.0683982245493
 10
314.5274870217137
 20
405.8064934626446
 10
317.3903801149364
 20
402.3471643083337
 10
317.3903801149364
 20
381.632878594048
 10
320.24177273599935
 20
378.18744584359695
 10
325.957411814153
 20
343.65545974641805
 10
340.2475229720793
 20
319.48135503759283
 10
340.2475229720793
 20
312.58525954642886
 10
348.80797708080087
 20
302.24137749839025
 10
354.52226279508653
 20
284.97947273648555
 10
360.24752297207937
 20
278.06145002261934
 10
360.24752297207937
 20
274.5370435664931
 10
344.5038365222685
 20
255.5134224396383
 10
327.32151989574794
 20
241.67211182383025
 10
252.95408682695248
 20
248.58446938471172
 10
247.24333507890395
 20
255.48496108027047
 10
241.54082647883934
 20
255.48496108027047
 10
232.9593881749687
 20
262.3977863806108
 10
218.66312321832888
 20
265.8527170784654
 10
215.81476365033248
 20
269.2944848897943
 10
207.24333507890393
 20
269.2944848897943
  0
LWPOLYLINE
  5
39
330
17
100
AcDbEntity
  8
M
100
AcDbPolyline
 90
11
 70
1
 10
303.1090006811452
 20
81.20894817923336
 10
298.76478173429695
 20
75.95968361845846
 10
242.97085080079916
 20
77.68834173498776
 10
235.82937255771625
 20
82.86591346122287
 10
224.3992352759427
 20
82.86591346122287
 10
208.56998541915556
 20
95.03764725261601
 10
252.96174064893563
 20
141.75638965169904
 10
258.74681464547774
 20
141.75638965169904
 10
270.2091596950106
 20
134.83122285093955
 10
300.24268640306144
 20
105.45318978135812
 10
303.1090006811452
 20
81.20894817923336
  0
LWPOLYLINE
  5
3A
330
17
100
AcDbEntity
  8
M
100
AcDbPolyline
 90
47
 70
1
 10
50.11965987010936
 20
573.1040086993182
 10
38.685036978508556
 20
580.0124266963269
 10
12.968271296463051
 20
583.4651406073424
 10
0.0
 20
592.1706930980235
 10
2.904665829222192
 20
595.680497641667
 10
2.904665829222192
 20
609.4738812797593
 10
5.777638007977092
 20
616.4168973784169
 10
18.679335627401763
 20
628.5421039374132
 10
30.100477936046754
 20
628.5421039374132
 10
32.95762079318959
 20
631.9944848897943
 10
58.67190650747528
 20
631.9944848897943
 10
61.529049364618174
 20
635.4468658421753
 10
75.81476365033247
 20
635.4468658421753
 10
78.6719065074753
 20
638.8992467945562
 10
98.67190650747531
 20
638.8992467945562
 10
102.9046658292222
 20
644.0138309750004
 10
102.9046658292222
 20
713.0614500226193
 10
107.24333507890388
 20
718.3040086993179
 10
118.75421946531928
 20
718.3040086993179
 10
127.32564803674789
 20
711.3992467945562
 10
135.889671788335
 20
711.3992467945562
 10
147.3182432169064
 20
704.4944848897943
 10
158.76599657954048
 20
704.4944848897943
 10
171.67609440065073
 20
688.8947833559527
 10
171.67609440065073
 20
681.9900214511907
 10
183.0975551196937
 20
668.1890897490139
 10
185.96946372333684
 20
654.3081981647388
 10
181.62313943668335
 20
649.056389651699
 10
173.0517108652548
 20
649.056389651699
 10
170.1945680081119
 20
645.604008699318
 10
150.19456800811193
 20
645.604008699318
 10
147.33742515096904
 20
642.1516277469373
 10
135.90885372239765
 20
642.1516277469373
 10
133.05171086525473
 20
638.6992467945563
 10
110.19456800811189
 20
638.6992467945563
 10
105.96180868636502
 20
633.584662614112
 10
105.96180868636502
 20
626.732034999439
 10
111.67609440065074
 20
609.4701302375342
 10
111.67609440065074
 20
599.132878594048
 10
114.53323725779357
 20
595.680497641667
 10
114.53323725779357
 20
564.5370435664929
 10
107.32928023639438
 20
555.8322621656355
 10
90.11071300211954
 20
559.2998902892048
 10
78.69108844153794
 20
566.1992467945562
 10
70.11965987010937
 20
566.1992467945562
 10
58.69108844153792
 20
573.1040086993182
 10
50.11965987010936
 20
573.1040086993182
  0
LWPOLYLINE
  5
3B
330
17
100
AcDbEntity
  8
M
100
AcDbPolyline
 90
59
 70
1
 10
1891.4760944006505
 20
395.36060324862126
 10
1891.4760944006505
 20
402.27513880458827
 10
1888.6189515435078
 20
405.72751975696923
 10
1888.6189515435078
 20
422.98942451887393
 10
1885.7618086863647
 20
426.44180547125495
 10
1885.7618086863647
 20
464.41799594744543
 10
1881.5540187439524
 20
469.50240879452735
 10
1870.1424955846207
 20
462.6079468857647
 10
1841.5436582720022
 20
483.34210393741336
 10
1835.9003798786523
 20
483.34210393741336
 10
1824.489719060671
 20
473.00119257111777
 10
1810.2106650934527
 20
466.09964982029555
 10
1804.4941136506677
 20
459.19215016026357
 10
1795.9172762418693
 20
455.7375906483865
 10
1781.5723367552218
 20
441.8708158112939
 10
1755.8182803225293
 20
469.5325801278895
 10
1747.228385674062
 20
469.5325801278895
 10
1742.9202472810846
 20
478.208692169302
 10
1710.1004779360467
 20
517.8659134612229
 10
1698.7468146454778
 20
517.8659134612229
 10
1670.1753860740491
 20
500.60400869931823
 10
1664.386192221761
 20
500.60400869931823
 10
1654.3491468027871
 20
512.7321052472449
 10
1631.4607055982785
 20
557.6745132373475
 10
1652.9505496646946
 20
590.5659134612229
 10
1658.7501212008206
 20
590.5659134612229
 10
1678.7501212008208
 20
576.756389651699
 10
1684.4611003597636
 20
576.756389651699
 10
1707.3566070850318
 20
562.9236876718493
 10
1718.7659965795403
 20
549.1373420326515
 10
1770.1899756918776
 20
549.1373420326515
 10
1790.1899756918776
 20
528.4230563183656
 10
1830.100477936047
 20
528.4230563183656
 10
1840.0441629079512
 20
540.4383423260834
 10
1837.1870200508085
 20
571.5097708975121
 10
1841.529049364618
 20
576.756389651699
 10
1852.9576207931896
 20
576.756389651699
 10
1855.8147636503322
 20
580.20877060408
 10
1878.6719065074753
 20
580.20877060408
 10
1881.529049364618
 20
583.6611515564609
 10
1887.337425150969
 20
583.6611515564609
 10
1891.6760944006505
 20
578.4185928797623
 10
1891.6760944006505
 20
567.9894245188739
 10
1885.9618086863652
 20
561.0846626141122
 10
1885.9618086863652
 20
550.7377763193209
 10
1880.267970621644
 20
540.4176948270143
 10
1884.4802822938263
 20
535.3278182231276
 10
1915.908853722398
 20
535.3278182231276
 10
1918.7659965795406
 20
531.8754372707466
 10
1930.1945680081121
 20
531.8754372707466
 10
1937.3770227316827
 20
523.1966378130983
 10
1943.116678464824
 20
509.32580312467434
 10
1934.5332372577936
 20
495.4969256244591
 10
1934.5332372577936
 20
385.01323404268356
 10
1930.1876164288622
 20
379.76227554105776
 10
1920.1076279275926
 20
381.5022735561579
 10
1912.9722297005733
 20
386.67543727074667
 10
1901.5389073957053
 20
386.67543727074667
 10
1891.4760944006505
 20
395.36060324862126
  0
LWPOLYLINE
  5
3C
330
17
100
AcDbEntity
  8
M
100
AcDbPolyline
 90
60
 70
1
 10
1698.6527245734126
 20
127.77004401250106
 10
1687.2625170129666
 20
134.65162774693715
 10
1681.5375232083632
 20
134.65162774693715
 10
1670.1089517797918
 20
145.00877060408004
 10
1664.4736692994832
 20
145.00877060408004
 10
1650.187955013769
 20
131.19924679455622
 10
1644.4053741558237
 20
131.19924679455622
 10
1627.2518828646178
 20
141.56281444965975
 10
1598.6631232183288
 20
148.47176469751292
 10
1594.340347967322
 20
153.69511812581285
 10
1588.610600327801
 20
181.38889838349857
 10
1615.8437486575222
 20
210.83175392418406
 10
1621.6039575026205
 20
207.35162774693714
 10
1647.3182432169062
 20
207.35162774693714
 10
1652.974009280322
 20
203.93460241695686
 10
1697.1903801149365
 20
271.1506177582863
 10
1697.1903801149365
 20
278.06145002261934
 10
1702.9046658292223
 20
284.9662119273812
 10
1702.9046658292223
 20
295.3130982221724
 10
1708.6189515435078
 20
305.67024107931525
 10
1708.6189515435078
 20
312.58525954642886
 10
1715.7955817162695
 20
321.25702100518276
 10
1727.2625170129666
 20
328.18496108027045
 10
1735.9088537223975
 20
328.18496108027045
 10
1738.7659965795403
 20
324.7325801278896
 10
1747.3256480367477
 20
324.7325801278896
 10
1755.9043585146794
 20
317.8219522428889
 10
1775.9194915294383
 20
314.3669590439127
 10
1793.0741887827428
 20
290.18360111043467
 10
1810.2082939536308
 20
279.83174590302303
 10
1823.1327974926844
 20
267.68510600289414
 10
1805.9543746007719
 20
240.0087580103684
 10
1803.0969157946777
 20
229.65046983827835
 10
1781.6117268277665
 20
196.76619450281126
 10
1753.014967743203
 20
210.58796139368377
 10
1724.4656733864424
 20
189.8897229850324
 10
1718.7659965795403
 20
189.8897229850324
 10
1714.5332372577934
 20
184.77513880458827
 10
1714.5332372577934
 20
174.47976488883901
 10
1720.2475229720792
 20
164.12262203169618
 10
1720.2475229720792
 20
153.7644457979425
 10
1730.2078785600695
 20
134.8516277469371
 10
1750.1196598701094
 20
134.8516277469371
 10
1761.5482312986808
 20
141.75638965169904
 10
1781.5482312986808
 20
141.75638965169904
 10
1787.3184223621831
 20
145.242546752565
 10
1820.273302663522
 20
98.49676545555755
 10
1813.0547839917833
 20
89.77438872720683
 10
1770.1976411346402
 20
86.32200777482588
 10
1767.3374251509688
 20
82.86591346122287
 10
1750.1945680081117
 20
82.86591346122287
 10
1747.3374251509688
 20
79.4135325088419
 10
1730.194568008112
 20
79.4135325088419
 10
1727.3320523492291
 20
75.95465942102523
 10
1714.3811469649277
 20
77.69343838465825
 10
1711.476094400651
 20
81.20371023315973
 10
1711.476094400651
 20
105.3703768998264
 10
1708.6189515435078
 20
108.82275785220735
 10
1708.6189515435078
 20
115.72751975696924
 10
1698.6527245734126
 20
127.77004401250106
  0
LWPOLYLINE
  5
3D
330
17
100
AcDbEntity
  8
M
100
AcDbPolyline
 90
17
 70
1
 10
1657.1903801149363
 20
409.25192621309566
 10
1660.0475229720792
 20
412.7043071654765
 10
1660.0475229720792
 20
423.06145002261934
 10
1662.904665829222
 20
426.51383097500036
 10
1662.904665829222
 20
433.4185928797623
 10
1670.0940650297025
 20
442.10578358034263
 10
1690.0940650297025
 20
445.5581645327236
 10
1692.9576207931896
 20
449.0182944136038
 10
1707.2433350789038
 20
449.0182944136038
 10
1710.1004779360467
 20
452.4706753659848
 10
1718.7659965795403
 20
452.4706753659848
 10
1723.1068156686342
 20
447.2255189666631
 10
1720.245418378059
 20
398.8202148010995
 10
1715.907638877154
 20
393.57873123750613
 10
1660.0992806659856
 20
395.30783635302316
 10
1657.1903801149363
 20
398.8227578522073
 10
1657.1903801149363
 20
409.25192621309566
  0
LWPOLYLINE
  5
3E
330
17
100
AcDbEntity
  8
M
100
AcDbPolyline
 90
16
 70
1
 10
1584.3774089326146
 20
79.60291936778985
 10
1598.6631232183288
 20
83.05530032017083
 10
1601.5330545231043
 20
86.52313398010777
 10
1635.918379579442
 20
83.06072277651825
 10
1648.8437854769559
 20
63.97181314083802
 10
1644.4802822938261
 20
58.69924679455621
 10
1613.0517108652546
 20
58.69924679455621
 10
1610.2033512972585
 20
55.25747898322725
 10
1581.6213720549042
 20
48.35016733299169
 10
1573.02171700298
 20
41.42266743005274
 10
1568.6485834814648
 20
43.18406843177411
 10
1562.9046658292223
 20
53.59491917646383
 10
1562.9046658292223
 20
64.02360462620545
 10
1572.9674788242767
 20
72.70877060407999
 10
1578.6719065074756
 20
72.70877060407999
 10
1584.3774089326146
 20
79.60291936778985
  0
LWPOLYLINE
  5
3F
330
17
100
AcDbEntity
  8
M
100
AcDbPolyline
 90
12
 70
1
 10
1481.529049364618
 20
597.2706753659849
 10
1472.9576207931896
 20
597.2706753659849
 10
1468.5891478867857
 20
602.5492467945561
 10
1495.8147636503322
 20
635.4468658421753
 10
1504.4802822938261
 20
635.4468658421753
 10
1507.337425150969
 20
631.9944848897943
 10
1518.7659965795403
 20
631.9944848897943
 10
1525.961808686365
 20
623.2995452607146
 10
1525.961808686365
 20
595.6084721379216
 10
1521.6194478311675
 20
590.3614527712247
 10
1484.3826582555237
 20
593.822564622807
 10
1481.529049364618
 20
597.2706753659849
  0
LWPOLYLINE
  5
40
330
17
100
AcDbEntity
  8
M
100
AcDbPolyline
 90
12
 70
1
 10
1507.2433350789038
 20
110.68496108027045
 10
1510.1004779360467
 20
114.13734203265142
 10
1521.6231394366832
 20
114.13734203265142
 10
1525.961808686365
 20
108.89478335595265
 10
1525.961808686365
 20
98.46139671817741
 10
1484.449984845431
 20
55.219913550537626
 10
1461.5028263109944
 20
69.08382183175968
 10
1454.3113892956737
 20
81.24933611601026
 10
1470.0940650297025
 20
100.32006929462831
 10
1490.1049731437647
 20
103.77433319526999
 10
1498.6836836216964
 20
110.68496108027045
 10
1507.2433350789038
 20
110.68496108027045
  0
LWPOLYLINE
  5
41
330
17
100
AcDbEntity
  8
M
100
AcDbPolyline
 90
50
 70
1
 10
1392.9502056591812
 20
196.98552493620068
 10
1400.0475229720792
 20
205.5614500226193
 10
1400.0475229720792
 20
222.82335478452404
 10
1402.904665829222
 20
226.275735736905
 10
1402.904665829222
 20
240.08525954642883
 10
1405.761808686365
 20
243.5376404988097
 10
1405.761808686365
 20
260.7995452607145
 10
1410.0883703578438
 20
266.0274739470847
 10
1430.0883703578438
 20
272.9322358518465
 10
1434.3332372577936
 20
278.06145002261934
 10
1434.3332372577936
 20
322.8703768998264
 10
1431.4760944006507
 20
326.32275785220725
 10
1431.4760944006507
 20
333.22751975696923
 10
1424.3765200019284
 20
341.8061721554256
 10
1398.6536240952205
 20
348.7132460563009
 10
1391.4760944006505
 20
360.8552337896148
 10
1391.4760944006505
 20
371.2037102331597
 10
1385.761808686365
 20
378.1084721379216
 10
1385.761808686365
 20
395.43792165936526
 10
1401.547799367548
 20
417.98079471544844
 10
1413.0402471327932
 20
411.0374408572793
 10
1433.058123771599
 20
407.5819740565331
 10
1435.9088537223977
 20
404.1373420326515
 10
1447.337425150969
 20
404.1373420326515
 10
1454.5284126464628
 20
395.4482321422633
 10
1460.2426983607484
 20
354.0196607136917
 10
1464.4866952001705
 20
348.89149786605685
 10
1504.4866952001705
 20
341.98673596129487
 10
1508.818951543508
 20
336.75192621309554
 10
1508.818951543508
 20
312.58525954642886
 10
1511.6760944006508
 20
309.13287859404784
 10
1511.6760944006508
 20
295.25132928077875
 10
1504.499464227889
 20
286.57956782202496
 10
1493.0325289311918
 20
279.65162774693715
 10
1487.328311149419
 20
279.65162774693715
 10
1465.9814505105523
 20
260.7359373474968
 10
1471.6760944006505
 20
246.97388127975944
 10
1471.6760944006505
 20
229.70822547562935
 10
1477.4088630318067
 20
212.39048690234583
 10
1437.3903801149363
 20
184.75867726926873
 10
1437.3903801149363
 20
171.0376404988098
 10
1440.2475229720792
 20
167.58525954642886
 10
1440.2475229720792
 20
136.51383097500022
 10
1443.1308580933392
 20
133.02980103681125
 10
1424.4606309148223
 20
106.99919583599451
 10
1418.6527245734126
 20
110.50813925059624
 10
1397.2083106258283
 20
136.42013943726025
 10
1368.597103581388
 20
184.82076468743878
 10
1375.807348516324
 20
193.53314398381974
 10
1392.9502056591812
 20
196.98552493620068
  0
LWPOLYLINE
  5
42
330
17
100
AcDbEntity
  8
M
100
AcDbPolyline
 90
16
 70
1
 10
1300.0475229720794
 20
447.228116689286
 10
1302.9094904405529
 20
450.6863273803585
 10
1305.7666332976958
 20
471.40061309464414
 10
1310.1004779360467
 20
476.6373420326515
 10
1315.9088537223975
 20
476.6373420326515
 10
1318.773411713549
 20
473.17600112667685
 10
1335.9162688564058
 20
469.7236201742959
 10
1343.104665829222
 20
461.0376404988099
 10
1343.104665829222
 20
447.2119765178547
 10
1348.8189515435079
 20
433.40245270833094
 10
1348.8189515435079
 20
419.59292889880703
 10
1357.4057967583333
 20
398.841386296312
 10
1353.0503561232422
 20
393.5785621955767
 10
1302.956287870848
 20
395.308000266195
 10
1300.0475229720794
 20
398.8227578522073
 10
1300.0475229720794
 20
447.228116689286
  0
LWPOLYLINE
  5
43
330
17
100
AcDbEntity
  8
M
100
AcDbPolyline
 90
33
 70
1
 10
3080.064499351144
 20
167.49272091798014
 10
3067.231227500701
 20
182.99959107059925
 10
3047.2190301533
 20
189.90856396434478
 10
3042.887722408099
 20
198.6313365067636
 10
3070.1013347612984
 20
234.97583195215472
 10
3104.3796725411744
 20
231.52419377293103
 10
3111.476094400651
 20
243.52897408521184
 10
3111.476094400651
 20
250.4424024035717
 10
3121.5290493646185
 20
262.58972298503244
 10
3127.2433350789042
 20
262.58972298503244
 10
3130.100477936047
 20
266.0421039374134
 10
3144.4802822938263
 20
266.0421039374134
 10
3148.834368186905
 20
260.78091681660993
 10
3145.961808686365
 20
253.83889802363873
 10
3145.961808686365
 20
240.0293742141149
 10
3140.2475229720794
 20
226.21985040459109
 10
3140.2475229720794
 20
215.8465673760169
 10
3134.527487021714
 20
208.93485726932502
 10
3131.6715144553414
 20
191.68002301415908
 10
3123.0950019987845
 20
177.8623085008174
 10
3111.6640413424484
 20
146.78438421640297
 10
3105.9484513031116
 20
139.8780462522046
 10
3097.377022731683
 20
119.16376053791886
 10
3087.3275989983895
 20
107.02070686018888
 10
3080.0916946469006
 20
108.76938374513203
 10
3075.8059803611864
 20
113.94795517370346
 10
3061.537597150332
 20
117.39614778299315
 10
3050.0812960019844
 20
124.31766306012013
 10
3045.732005029643
 20
129.5730563183657
 10
3050.1036695798384
 20
134.85548431651858
 10
3092.9608124369815
 20
131.40310336413765
 10
3097.1699324653723
 20
136.48912339844279
 10
3080.064499351144
 20
167.49272091798014
  0
LWPOLYLINE
  5
44
330
17
100
AcDbEntity
  8
M
100
AcDbPolyline
 90
45
 70
1
 10
2957.1930496022105
 20
302.23134231974194
 10
2960.044780268687
 20
340.1355957616631
 10
2955.814763650333
 20
345.2468658421753
 10
2950.1945680081117
 20
345.2468658421753
 10
2947.3419835135196
 20
341.7999929112098
 10
2918.761212283874
 20
338.3464830542942
 10
2908.8189515435083
 20
329.765365153383
 10
2908.8189515435083
 20
319.42666236104327
 10
2901.628460025924
 20
307.26274754379693
 10
2875.8097183934997
 20
310.72915267037257
 10
2872.9576207931896
 20
314.17543727074667
 10
2864.37818003936
 20
314.17543727074667
 10
2845.7727012671708
 20
343.5744790485969
 10
2840.0475229720796
 20
357.41032659506726
 10
2840.0475229720796
 20
364.3709738321431
 10
2847.243335078904
 20
373.0659134612229
 10
2901.529049364618
 20
373.0659134612229
 10
2910.0812960019844
 20
383.39987814803993
 10
2932.9661685789038
 20
397.2261553299288
 10
2947.3275989983895
 20
400.69683434797116
 10
2981.6231394366832
 20
359.25638965169907
 10
2987.3328328347347
 20
359.25638965169907
 10
3007.3155190229336
 20
338.5600360996361
 10
3015.8009322934913
 20
341.9777720002773
 10
3024.369176013966
 20
352.3310664958505
 10
3044.3757134877515
 20
362.6915948304897
 10
3055.857059132515
 20
373.0965643210566
 10
3080.250938476613
 20
354.02389885348947
 10
3077.387929815263
 20
312.5102732639111
 10
3073.051710865255
 20
307.2706753659848
 10
3015.908853722398
 20
307.2706753659848
 10
3007.348182007775
 20
296.9265303774822
 10
2984.4846201767637
 20
290.01982940769784
 10
2971.676094400651
 20
277.9821871273692
 10
2971.676094400651
 20
267.64842183316244
 10
2965.961808686365
 20
253.83889802363873
 10
2965.961808686365
 20
246.91075855594053
 10
2953.0337419689654
 20
234.76076992801393
 10
2945.8160356774342
 20
236.5050489484673
 10
2910.076611672528
 20
265.8709423391648
 10
2902.9046658292223
 20
274.5370435664931
 10
2902.9046658292223
 20
284.9575455137833
 10
2910.090470949454
 20
297.1135325088419
 10
2952.95762079319
 20
297.1135325088419
 10
2957.1930496022105
 20
302.23134231974194
  0
LWPOLYLINE
  5
45
330
17
100
AcDbEntity
  8
M
100
AcDbPolyline
 90
13
 70
1
 10
3068.818951543508
 20
81.27200677968547
 10
3068.818951543508
 20
77.75132928077878
 10
3044.4298290226493
 20
48.28113956807456
 10
3012.9596839166807
 20
89.764512662306
 10
2984.484840656377
 20
86.3238024350193
 10
2981.6231394366832
 20
82.86591346122287
 10
2964.3861922217616
 20
82.86591346122287
 10
2960.055958882216
 20
88.09827874650664
 10
2951.4622902015044
 20
122.71166648826251
 10
2984.4232822240265
 20
145.22306864857208
 10
3007.311979386255
 20
134.8516277469371
 10
3030.1987130710063
 20
134.8516277469371
 10
3068.818951543508
 20
81.27200677968547
  0
LWPOLYLINE
  5
46
330
17
100
AcDbEntity
  8
M
100
AcDbPolyline
 90
11
 70
1
 10
2905.7392230864434
 20
464.4760325612878
 10
2918.6666114759555
 20
476.62538368661615
 10
2950.0888557997923
 20
486.9804414751532
 10
2953.004665829222
 20
490.50371192738123
 10
2957.3787087028522
 20
485.2184101217453
 10
2965.9750223155647
 20
460.9815814636806
 10
2957.3757675149895
 20
450.590815246319
 10
2950.1916201047275
 20
434.96529462899844
 10
2915.833945584395
 20
455.7230563183658
 10
2910.085528531205
 20
455.7230563183658
 10
2905.7392230864434
 20
464.4760325612878
  0
LWPOLYLINE
  5
47
330
17
100
AcDbEntity
  8
M
100
AcDbPolyline
 90
10
 70
1
 10
2907.238997195966
 20
13.829353217221563
 10
2894.353283379985
 20
25.939537960944726
 10
2888.6135357261755
 20
36.342830583473514
 10
2897.198578434762
 20
77.83720367497493
 10
2912.9920098223356
 20
93.45116425132541
 10
2944.512147507381
 20
72.67652804981792
 10
2951.676094400651
 20
57.09494355695627
 10
2951.676094400651
 20
32.87037689982639
 10
2930.1822041077826
 20
6.8985927959437365
 10
2907.238997195966
 20
13.829353217221563
  0
LWPOLYLINE
  5
48
330
17
100
AcDbEntity
  8
M
100
AcDbPolyline
 90
15
 70
1
 10
2881.54082647884
 20
214.25638965169904
 10
2890.182790893891
 20
214.25638965169904
 10
2898.768703065804
 20
207.33996040210243
 10
2927.350059133508
 20
196.97921882755955
 10
2931.676094400651
 20
191.75192621309554
 10
2931.676094400651
 20
184.77980774306542
 10
2901.6260188860533
 20
141.55301260797995
 10
2874.383755087306
 20
143.28552499868977
 10
2865.7711076634523
 20
153.69247396917953
 10
2862.913964806309
 20
164.0496168263224
 10
2854.346594641047
 20
174.40185577601412
 10
2848.6035349001113
 20
188.28091681660987
 10
2858.6719065074753
 20
200.4468658421752
 10
2864.3979693359825
 20
200.4468658421752
 10
2881.54082647884
 20
214.25638965169904
  0
LWPOLYLINE
  5
49
330
17
100
AcDbEntity
  8
M
100
AcDbPolyline
 90
11
 70
1
 10
2872.946863936384
 20
586.9265303774822
 10
2870.1004779360464
 20
590.3659134612229
 10
2858.6719065074753
 20
590.3659134612229
 10
2854.333237257794
 20
595.6084721379216
 10
2854.333237257794
 20
630.2043071654766
 10
2858.712752125011
 20
635.4962209633636
 10
2877.3799162806395
 20
616.4102422273205
 10
2883.095366852135
 20
595.6917339056473
 10
2888.8487552002302
 20
588.7397229850324
 10
2884.467918393497
 20
583.4462118435629
 10
2872.946863936384
 20
586.9265303774822
  0
LWPOLYLINE
  5
4A
330
17
100
AcDbEntity
  8
M
100
AcDbPolyline
 90
12
 70
1
 10
2797.1903801149365
 20
429.8844127724308
 10
2797.1903801149365
 20
481.6960408807816
 10
2794.3178206143966
 20
488.63805967375276
 10
2798.6900520538666
 20
493.92117266311215
 10
2830.1685237350134
 20
480.0897229850323
 10
2838.7659965795406
 20
480.0897229850323
 10
2845.961808686365
 20
471.3947833559527
 10
2845.961808686365
 20
422.98942451887393
 10
2835.8838843430635
 20
410.8119326040512
 10
2824.3964272878343
 20
417.7522712415858
 10
2807.244909480744
 20
421.2063963555137
 10
2797.1903801149365
 20
429.8844127724308
  0
LWPOLYLINE
  5
4B
330
17
100
AcDbEntity
  8
M
100
AcDbPolyline
 90
11
 70
1
 10
2807.337425150969
 20
304.01829441360377
 10
2810.199613264945
 20
300.55981710921617
 10
2835.9232028677197
 20
297.1061870236584
 10
2843.1014950624894
 20
284.962909394173
 10
2845.967352602665
 20
260.7225310335228
 10
2835.8954779122005
 20
252.02954394949077
 10
2792.9545476666613
 20
255.48867444149255
 10
2788.6134138264492
 20
260.73421116508183
 10
2794.338484402808
 20
298.7820760371303
 10
2798.6719065074753
 20
304.01829441360377
 10
2807.337425150969
 20
304.01829441360377
  0
LWPOLYLINE
  5
4C
330
17
100
AcDbEntity
  8
M
100
AcDbPolyline
 90
13
 70
1
 10
2707.243335078904
 20
455.7230563183658
 10
2695.8278067045144
 20
455.7230563183658
 10
2679.9834717291446
 20
467.9063896516991
 10
2695.8176820742456
 20
480.0819377579696
 10
2710.102245317826
 20
483.53404054183494
 10
2718.677966633608
 20
490.4422604906591
 10
2744.381146964928
 20
493.89315044254937
 10
2747.243335078904
 20
497.35162774693714
 10
2761.638088841525
 20
497.35162774693714
 10
2765.980266065941
 20
488.60696528109986
 10
2730.180385535544
 20
445.3487763068696
 10
2710.088370357844
 20
452.2853053563137
 10
2707.243335078904
 20
455.7230563183658
  0
LWPOLYLINE
  5
4D
330
17
100
AcDbEntity
  8
M
100
AcDbPolyline
 90
19
 70
1
 10
2691.476094400651
 20
319.4082222962402
 10
2691.476094400651
 20
343.65668811785736
 10
2697.1903801149365
 20
350.5614500226192
 10
2697.1903801149365
 20
360.8465673760169
 10
2694.336488091814
 20
364.2950202372899
 10
2691.471079731353
 20
395.45633615730776
 10
2704.3986362311766
 20
404.1345569558005
 10
2741.63514919967
 20
407.5956430971029
 10
2745.980266065941
 20
398.84506051919504
 10
2743.104665829222
 20
395.3703768998264
 10
2743.104665829222
 20
385.0340862067632
 10
2734.538247965408
 20
357.43118420113956
 10
2745.950834223658
 20
322.95566321267603
 10
2751.7129926449916
 20
315.99305512023153
 10
2738.7510907074306
 20
303.8112676511348
 10
2718.6654936011314
 20
307.2784242944841
 10
2715.8147636503327
 20
310.72305631836576
 10
2701.5389073957053
 20
310.72305631836576
 10
2691.476094400651
 20
319.4082222962402
  0
LWPOLYLINE
  5
4E
330
17
100
AcDbEntity
  8
M
100
AcDbPolyline
 90
10
 70
1
 10
2673.0604941544016
 20
131.20985993560822
 10
2670.154908583106
 20
127.69894403695989
 10
2654.34856179589
 20
143.32567324704846
 10
2640.0321063286824
 20
177.92377395946704
 10
2644.383307264219
 20
183.18147508990708
 10
2690.191578848763
 20
186.64095393353145
 10
2694.5357491052578
 20
181.39174820693358
 10
2691.673644100977
 20
139.89122564486343
 10
2687.346208440116
 20
134.66224088798916
 10
2673.0604941544016
 20
131.20985993560822
  0
LWPOLYLINE
  5
4F
330
17
100
AcDbEntity
  8
M
100
AcDbPolyline
 90
10
 70
1
 10
2683.097555119694
 20
274.6176611775853
 10
2688.818951543508
 20
267.7043071654764
 10
2688.818951543508
 20
264.1799007093502
 10
2675.869194297392
 20
248.5322773702932
 10
2660.0404142558323
 20
264.1811849113808
 10
2662.9090627014343
 20
281.5126026035609
 10
2670.0904709494544
 20
293.66115155646094
 10
2675.908853722398
 20
293.66115155646094
 10
2680.240412262551
 20
288.4271849871091
 10
2683.097555119694
 20
274.6176611775853
  0
LWPOLYLINE
  5
50
330
17
100
AcDbEntity
  8
M
100
AcDbPolyline
 90
36
 70
1
 10
4202.904665829221
 20
188.22751975696926
 10
4202.904665829221
 20
195.19405060312477
 10
4208.618951543507
 20
205.5511934602676
 10
4208.618951543507
 20
219.3807474833484
 10
4218.681764538563
 20
228.0659134612229
 10
4227.255112193125
 20
228.0659134612229
 10
4235.826540764553
 20
234.97067536598476
 10
4241.529049364618
 20
234.97067536598476
 10
4247.243335078903
 20
241.87543727074672
 10
4292.947613806597
 20
241.87543727074672
 10
4300.04752297208
 20
253.8861169423548
 10
4300.04752297208
 20
271.1480217042595
 10
4307.290380114936
 20
283.4005217042595
 10
4314.533237257793
 20
271.1480217042595
 10
4314.533237257793
 20
243.5376404988097
 10
4317.390380114935
 20
240.08525954642883
 10
4317.390380114935
 20
233.18049764166688
 10
4321.623139436682
 20
228.0659134612229
 10
4333.051710865254
 20
228.0659134612229
 10
4335.908853722397
 20
224.61353250884193
 10
4352.976802727252
 20
224.61353250884193
 10
4358.741027200206
 20
228.09608479458493
 10
4363.104665829222
 20
222.82335478452404
 10
4363.104665829222
 20
212.39418642363592
 10
4355.908853722397
 20
203.69924679455622
 10
4338.76599657954
 20
203.69924679455622
 10
4328.804338943561
 20
191.66224381774762
 10
4321.6401804873585
 20
176.08019917550857
 10
4290.1981030060215
 20
176.08019917550857
 10
4267.313423410772
 20
144.9713378507155
 10
4247.217663497242
 20
158.84698160053375
 10
4235.808084964845
 20
176.08019917550857
 10
4224.405374155824
 20
176.08019917550857
 10
4212.976802727252
 20
182.9849610802705
 10
4207.243335078903
 20
182.9849610802705
 10
4202.904665829221
 20
188.22751975696926
  0
LWPOLYLINE
  5
51
330
17
100
AcDbEntity
  8
M
100
AcDbPolyline
 90
11
 70
1
 10
4303.08970361535
 20
119.27000555485768
 10
4314.550832040717
 20
95.03449440538306
 10
4310.192298933439
 20
89.76793356742172
 10
4250.083789712554
 20
93.22655810592498
 10
4245.746610071026
 20
101.96115599511305
 10
4257.190380114936
 20
119.24601699893498
 10
4257.190380114936
 20
126.15134632429667
 10
4270.139512329681
 20
145.27529621551702
 10
4275.917637011544
 20
138.29339555826607
 10
4290.2033512972575
 20
134.84101460588514
 10
4303.08970361535
 20
119.27000555485768
  0
LWPOLYLINE
  5
52
330
17
100
AcDbEntity
  8
M
100
AcDbPolyline
 90
10
 70
1
 10
4231.47609440065
 20
343.5782577256847
 10
4231.47609440065
 20
347.0929288988071
 10
4248.632308926762
 20
388.5537806702412
 10
4258.671906507475
 20
400.68496108027045
 10
4264.472853173899
 20
400.68496108027045
 10
4277.388023805221
 20
388.54709238509304
 10
4280.249528279481
 20
336.682323789128
 10
4273.049199782661
 20
327.9819268554701
 10
4245.818753023136
 20
329.7136877239487
 10
4231.47609440065
 20
343.5782577256847
  0
LWPOLYLINE
  5
53
330
17
100
AcDbEntity
  8
M
100
AcDbPolyline
 90
11
 70
1
 10
4098.661149650669
 20
338.5291060687729
 10
4121.518292507812
 20
345.43386797353486
 10
4124.38619222176
 20
348.89924679455623
 10
4130.194568008111
 20
348.89924679455623
 10
4137.373403735871
 20
340.2248202901798
 10
4154.548391367985
 20
309.0951552069742
 10
4147.346184632954
 20
296.91142214688153
 10
4100.079678935973
 20
298.6421401585135
 10
4094.3364517781483
 20
312.52160578992255
 10
4091.4699933391294
 20
329.83979219232936
 10
4098.661149650669
 20
338.5291060687729
  0
LWPOLYLINE
  5
54
330
17
100
AcDbEntity
  8
M
100
AcDbPolyline
 90
28
 70
1
 10
4087.2433350789033
 20
234.77067536598477
 10
4070.1004779360464
 20
234.77067536598477
 10
4067.243335078904
 20
238.22305631836576
 10
4061.5290493646175
 20
238.22305631836576
 10
4054.3281680782516
 20
246.92412120605795
 10
4057.195204726267
 20
267.71013690416794
 10
4064.3754353649547
 20
276.3862489259158
 10
4087.232578222098
 20
283.2910108306777
 10
4090.130283372802
 20
286.7924045544453
 10
4097.369825070101
 20
281.5437368239037
 10
4108.803989329635
 20
257.36524365009575
 10
4115.916268856405
 20
248.77123922191495
 10
4133.0591259992625
 20
245.318858269534
 10
4135.908853722397
 20
241.87543727074672
 10
4147.337425150968
 20
241.87543727074672
 10
4151.681163580192
 20
236.62675333543532
 10
4148.814126932177
 20
215.8407376373254
 10
4134.530305590498
 20
198.58112018279658
 10
4131.673162733355
 20
164.05731065898706
 10
4124.499464227888
 20
155.38909163154872
 10
4107.2941417426255
 20
144.99420929670222
 10
4097.196464945759
 20
150.22336335222218
 10
4094.336885033486
 20
177.8659691708647
 10
4091.4760944006503
 20
181.32275785220733
 10
4091.4760944006503
 20
191.75192621309554
 10
4100.038755225018
 20
202.0984747092052
 10
4094.34129823846
 20
226.19396988152135
 10
4087.2433350789033
 20
234.77067536598477
  0
LWPOLYLINE
  5
55
330
17
100
AcDbEntity
  8
M
100
AcDbPolyline
 90
32
 70
1
 10
4018.7561385484523
 20
24.17543727074667
 10
4008.799551561329
 20
15.58195445447902
 10
4004.467442452186
 20
6.857568054121827
 10
3987.2197808504616
 20
20.751517677733478
 10
3982.8748621725
 20
26.00162774693712
 10
3997.1876374115445
 20
43.29623116078249
 10
3994.3300501452763
 20
81.27832857492604
 10
4010.106435952543
 20
96.87543727074666
 10
4015.814763650332
 20
96.87543727074666
 10
4018.6800514220495
 20
100.33765999490532
 10
4035.9055094601163
 20
96.86864414001684
 10
4044.468505179604
 20
89.97067536598475
 10
4050.194568008111
 20
89.97067536598475
 10
4055.9088537223975
 20
83.06591346122286
 10
4095.916366123051
 20
83.06591346122286
 10
4105.961808686365
 20
67.45960090750383
 10
4105.961808686365
 20
57.037043566493054
 10
4100.2475229720785
 20
50.13228166173114
 10
4100.2475229720785
 20
39.847164308333596
 10
4105.950834223658
 20
32.95566321267596
 10
4111.688421720473
 20
15.623367649375608
 10
4107.348182007774
 20
10.37891132986324
 10
4095.909372681894
 20
6.923437679336813
 10
4087.314760390303
 20
0.0
 10
4080.099257484213
 20
1.7437465356385518
 10
4057.1903801149365
 20
22.504916651545635
 10
4057.1903801149365
 20
29.41799594744543
 10
4052.977604920062
 20
34.508432641251915
 10
4038.7418509515287
 20
27.627818223127626
 10
4030.1945680081117
 20
27.627818223127626
 10
4027.337425150969
 20
24.17543727074667
 10
4018.7561385484523
 20
24.17543727074667
  0
LWPOLYLINE
  5
56
330
17
100
AcDbEntity
  8
M
100
AcDbPolyline
 90
8
 70
1
 10
4077.205704653032
 20
485.11138753276265
 10
4071.4584602642035
 20
499.00056147243384
 10
4090.0961148128017
 20
518.0563685269303
 10
4104.470456141245
 20
521.5301676813044
 10
4108.818951543507
 20
516.275735736905
 10
4108.818951543507
 20
488.5846626141121
 10
4093.0120514402483
 20
469.48465832267414
 10
4077.205704653032
 20
485.11138753276265
  0
LWPOLYLINE
  5
57
330
17
100
AcDbEntity
  8
M
100
AcDbPolyline
 90
20
 70
1
 10
4011.483205110179
 20
319.49861355853767
 10
4014.3332372577934
 20
322.9424024035717
 10
4014.3332372577934
 20
333.24365992840063
 10
4005.7751660696185
 20
353.92566529982366
 10
4000.0177193153563
 20
360.8825801278896
 10
4012.9576207931896
 20
376.51829441360377
 10
4050.194568008111
 20
376.51829441360377
 10
4057.390380114936
 20
367.82335478452404
 10
4057.390380114936
 20
343.58466261411206
 10
4053.051710865254
 20
338.3421039374133
 10
4047.3374251509686
 20
338.3421039374133
 10
4040.247522972079
 20
329.77513880458827
 10
4040.247522972079
 20
319.47388127975944
 10
4054.54301788387
 20
284.9264352429303
 10
4050.202975248693
 20
276.1860716026429
 10
4032.950205659181
 20
279.66058770053075
 10
4030.1004779360464
 20
283.1040086993181
 10
4015.8246216814196
 20
283.1040086993181
 10
4005.7519739570757
 20
291.79766298520923
 10
4011.483205110179
 20
319.49861355853767
  0
LWPOLYLINE
  5
58
330
17
100
AcDbEntity
  8
M
100
AcDbPolyline
 90
28
 70
1
 10
3901.5290493646175
 20
231.51829441360377
 10
3930.100477936047
 20
231.51829441360377
 10
3934.3255822208216
 20
236.623628757707
 10
3925.7541536493927
 20
278.05220018627847
 10
3930.100477936047
 20
283.3040086993181
 10
3935.8896717883354
 20
283.3040086993181
 10
3947.318243216906
 20
276.39924679455623
 10
3955.8989956913106
 20
276.39924679455623
 10
3965.9618086863647
 20
267.71408081668164
 10
3965.9618086863647
 20
246.91420897990352
 10
3943.0926069146594
 20
222.73479252336077
 10
3937.4048154462425
 20
205.55292246251898
 10
3952.9972802181956
 20
190.13764479024772
 10
3961.5414132649476
 20
200.4618055550734
 10
3984.499480053682
 20
193.52655621264321
 10
3991.6760944006505
 20
181.38611694235476
 10
3991.6760944006505
 20
150.25132928077875
 10
3987.346208440115
 20
145.01938374513205
 10
3973.0604941544007
 20
141.56700279275105
 10
3967.3359876441787
 20
134.64989075956578
 10
3920.0990649722594
 20
136.37952555437084
 10
3914.3332372577934
 20
143.34656737601688
 10
3914.3332372577934
 20
150.26158584313035
 10
3908.618951543508
 20
160.61872870027318
 10
3908.618951543508
 20
174.4367998891369
 10
3900.0492828333263
 20
198.59850472478692
 10
3897.186594238981
 20
226.27116113679241
 10
3901.5290493646175
 20
231.51829441360377
  0
LWPOLYLINE
  5
59
330
17
100
AcDbEntity
  8
M
100
AcDbPolyline
 90
12
 70
1
 10
3917.205961566799
 20
340.2231347531434
 10
3935.834747777205
 20
362.73291809071753
 10
3950.1704223801003
 20
355.8040086993181
 10
3958.7659965795406
 20
355.8040086993181
 10
3963.104665829222
 20
350.5614500226192
 10
3963.104665829222
 20
329.77513880458827
 10
3955.908853722397
 20
321.0801991755086
 10
3938.76599657954
 20
321.0801991755086
 10
3935.9060429179435
 20
317.62442183441215
 10
3911.526330890125
 20
319.357293522664
 10
3908.600494163931
 20
322.8926795668142
 10
3917.205961566799
 20
340.2231347531434
  0
LWPOLYLINE
  5
5A
330
17
100
AcDbEntity
  8
M
100
AcDbPolyline
 90
14
 70
1
 10
5737.190380114936
 20
367.75132928077863
 10
5734.333237257793
 20
371.2037102331596
 10
5734.333237257793
 20
385.0852595464291
 10
5787.243335078903
 20
449.0182944136038
 10
5790.194568008112
 20
449.0182944136038
 10
5794.533237257793
 20
443.7757357369053
 10
5794.533237257793
 20
436.8709738321433
 10
5800.236548509372
 20
429.9794727364861
 10
5805.96102739353
 20
412.6867761072601
 10
5808.820719147578
 20
353.9439413261734
 10
5804.479230394115
 20
348.6979757490722
 10
5740.099439238653
 20
350.42669236343175
 10
5737.190380114936
 20
353.94180547125484
 10
5737.190380114936
 20
367.75132928077863
  0
LWPOLYLINE
  5
5B
330
17
100
AcDbEntity
  8
M
100
AcDbPolyline
 90
133
 70
1
 10
5680.047522972079
 20
481.75192621309554
 10
5680.047522972079
 20
495.47212443621095
 10
5667.2599278924545
 20
504.05638965169896
 10
5652.976802727251
 20
504.05638965169896
 10
5641.548231298681
 20
510.96115155646095
 10
5632.940579742514
 20
510.96115155646095
 10
5625.761808686365
 20
526.5749786035844
 10
5625.761808686365
 20
547.2751388045882
 10
5621.54903349149
 20
552.3655754983947
 10
5607.313279522958
 20
545.4849610802705
 10
5593.051710865255
 20
545.4849610802705
 10
5585.958877019069
 20
536.9144535161299
 10
5583.101734161926
 20
502.39064399232024
 10
5578.76599657954
 20
497.15162774693715
 10
5564.4561366658145
 20
497.15162774693715
 10
5550.170422380101
 20
490.24686584217517
 10
5530.1704223801
 20
490.24686584217517
 10
5515.834747777205
 20
483.31795645077574
 10
5495.818187150676
 20
507.5046338744973
 10
5455.9121412275435
 20
504.06036205375074
 10
5453.051710865254
 20
500.60400869931823
 10
5435.833945584394
 20
500.60400869931823
 10
5430.074254882423
 20
504.08382183175956
 10
5422.891582194719
 20
516.2345097951246
 10
5434.333237257793
 20
540.4288428972501
 10
5434.333237257793
 20
550.7892886983627
 10
5445.729974745645
 20
571.4458753950937
 10
5432.96755281496
 20
580.0132419689332
 10
5410.119455354635
 20
583.4642566895031
 10
5378.697950780574
 20
597.2706753659849
 10
5373.051710865254
 20
597.2706753659849
 10
5361.630554570692
 20
583.4701115100547
 10
5344.470047227753
 20
580.0141760034904
 10
5333.032528931191
 20
573.1040086993182
 10
5324.468505179604
 20
573.1040086993182
 10
5315.897076608177
 20
566.1992467945562
 10
5307.3374251509695
 20
566.1992467945562
 10
5303.1046658292225
 20
561.0846626141122
 10
5303.1046658292225
 20
550.7275197569692
 10
5300.2475229720785
 20
547.2751388045882
 10
5300.2475229720785
 20
523.1084721379216
 10
5297.390380114936
 20
519.6560911855406
 10
5297.390380114936
 20
512.7513292807788
 10
5290.213749942174
 20
504.0795678220249
 10
5278.746814645478
 20
497.15162774693715
 10
5267.255112193125
 20
497.15162774693715
 10
5258.683683621696
 20
504.05638965169896
 10
5252.973496171909
 20
504.05638965169896
 10
5212.925970064366
 20
531.7082529164312
 10
5197.172557813247
 20
564.5875337890309
 10
5224.38918138111
 20
597.4742872668648
 10
5270.178827849631
 20
594.0162150075234
 10
5275.837426370425
 20
590.5974784012096
 10
5320.019337800151
 20
647.4282435063816
 10
5315.805980361186
 20
652.519383745132
 10
5301.520266075472
 20
655.971764697513
 10
5298.671906507475
 20
659.413532508842
 10
5290.1064359525435
 20
659.413532508842
 10
5274.343939977601
 20
674.9969092113417
 10
5271.485393377738
 20
685.3591406358462
 10
5265.768919395893
 20
692.2665466972413
 10
5262.911776538751
 20
706.0760705067651
 10
5257.160576458215
 20
713.0254372707467
 10
5261.529049364618
 20
718.3040086993179
 10
5267.255112193125
 20
718.3040086993179
 10
5275.826540764553
 20
725.20877060408
 10
5284.386192221761
 20
725.20877060408
 10
5290.100477936046
 20
732.1135325088419
 10
5298.671906507475
 20
732.1135325088419
 10
5304.38619222176
 20
739.0182944136039
 10
5330.194568008112
 20
739.0182944136039
 10
5333.051710865255
 20
735.5659134612229
 10
5341.623139436683
 20
735.5659134612229
 10
5345.961808686365
 20
730.323354784524
 10
5345.961808686365
 20
712.9894245188739
 10
5343.1046658292225
 20
709.5370435664929
 10
5343.1046658292225
 20
681.9179959474453
 10
5340.243368222402
 20
678.4605946725384
 10
5337.394714966858
 20
654.3657358860695
 10
5350.218122236554
 20
638.8707854351883
 10
5367.325648036748
 20
625.0897229850323
 10
5375.814763650333
 20
625.0897229850323
 10
5381.529049364618
 20
631.9944848897943
 10
5387.243335078904
 20
631.9944848897943
 10
5391.480450851234
 20
637.114333114694
 10
5400.05273212431
 20
706.1688211478012
 10
5412.965049913116
 20
718.3040086993179
 10
5421.603957502621
 20
718.3040086993179
 10
5444.461100359763
 20
704.4944848897943
 10
5453.06875191593
 20
704.4944848897943
 10
5460.248533834171
 20
688.8784592176187
 10
5457.391570728262
 20
626.7395116640897
 10
5463.118876140681
 20
616.3587706040801
 10
5457.390380114936
 20
605.9758715574162
 10
5457.390380114936
 20
595.6210238630331
 10
5448.837408923084
 20
578.3962902127744
 10
5453.051710865254
 20
573.3040086993182
 10
5458.754219465319
 20
573.3040086993182
 10
5467.325648036747
 20
566.3992467945562
 10
5475.908853722397
 20
566.3992467945562
 10
5481.623139436682
 20
559.4944848897943
 10
5490.194568008112
 20
559.4944848897943
 10
5495.9196105792025
 20
552.576725116392
 10
5507.255698979234
 20
549.1522817455497
 10
5515.814763650332
 20
559.4944848897943
 10
5521.529049364617
 20
559.4944848897943
 10
5532.957620793189
 20
573.3040086993182
 10
5547.318243216906
 20
573.3040086993182
 10
5558.746814645478
 20
566.3992467945562
 10
5567.243335078903
 20
566.3992467945562
 10
5582.920247281084
 20
585.3421823721914
 10
5591.4904633201095
 20
602.6016452285623
 10
5615.81810634628
 20
635.4558886291009
 10
5635.904358514679
 20
631.9886189095558
 10
5644.468505179605
 20
625.0897229850323
 10
5653.032528931191
 20
625.0897229850323
 10
5675.9280356564595
 20
611.2570210051827
 10
5691.67609440065
 20
592.228116689286
 10
5691.67609440065
 20
585.3233547845242
 10
5694.557555893043
 20
581.8415888145498
 10
5683.127562723998
 20
564.5775366321393
 10
5723.1046658292225
 20
512.8214656476986
 10
5723.1046658292225
 20
478.22751975696923
 10
5718.749389739945
 20
472.9648944824259
 10
5710.177961168516
 20
476.41727543480687
 10
5705.967909747886
 20
471.3301299682115
 10
5708.813201307427
 20
454.1398267959779
 10
5711.676094400651
 20
450.680497641667
 10
5711.676094400651
 20
440.25694051348813
 10
5687.311542009027
 20
403.8892630465795
 10
5668.61634210724
 20
419.52851681057507
 10
5671.478060286007
 20
471.3971588007599
 10
5680.047522972079
 20
481.75192621309554
  0
LWPOLYLINE
  5
5C
330
17
100
AcDbEntity
  8
M
100
AcDbPolyline
 90
14
 70
1
 10
5372.95762079319
 20
738.8182944136039
 10
5365.755707624844
 20
747.5206061586877
 10
5368.624701779588
 20
764.8541125102637
 10
5371.47609440065
 20
768.2995452607147
 10
5371.47609440065
 20
778.6566881178574
 10
5375.861808686364
 20
783.9560928797622
 10
5383.104665829222
 20
775.2043071654766
 10
5383.104665829222
 20
768.2892886983627
 10
5388.818951543508
 20
757.9321458412201
 10
5388.818951543508
 20
740.680497641667
 10
5391.705898057372
 20
737.1921039374134
 10
5387.304499967831
 20
731.8737479125506
 10
5378.683683621696
 20
738.8182944136039
 10
5372.95762079319
 20
738.8182944136039
  0
LWPOLYLINE
  5
5D
330
17
100
AcDbEntity
  8
M
100
AcDbPolyline
 90
19
 70
1
 10
5120.04752297208
 20
750.9656149950646
 10
5117.190380114936
 20
754.4179959474453
 10
5117.190380114936
 20
771.6799007093502
 10
5114.303433601071
 20
775.1682944136038
 10
5118.673437545633
 20
780.4487158466164
 10
5207.338928379335
 20
776.9926684888513
 10
5211.676094400651
 20
771.7519262130957
 10
5211.676094400651
 20
761.3947833559527
 10
5214.533237257793
 20
757.9424024035717
 10
5214.533237257793
 20
733.7037102331597
 10
5210.213749942174
 20
728.4843297267867
 10
5204.461100359764
 20
725.0087706040799
 10
5193.0399337510335
 20
725.0087706040799
 10
5184.478514912047
 20
718.1120720948963
 10
5155.900305936684
 20
711.205671592517
 10
5144.455971274135
 20
704.2913860672271
 10
5128.667749599333
 20
706.025698296656
 10
5120.04752297208
 20
716.441805471255
 10
5120.04752297208
 20
750.9656149950646
  0
LWPOLYLINE
  5
5E
330
17
100
AcDbEntity
  8
M
100
AcDbPolyline
 90
26
 70
1
 10
5077.190380114936
 20
605.9656149950645
 10
5073.004665829222
 20
611.0233530903024
 10
5064.425226615394
 20
600.6565307069287
 10
5051.4875843002565
 20
619.763511718638
 10
5045.746392042968
 20
633.6380596737528
 10
5050.100477936046
 20
638.8992467945562
 10
5061.529049364617
 20
638.8992467945562
 10
5064.402799061356
 20
642.3716943447816
 10
5072.981826247544
 20
638.9162528392341
 10
5087.249948073247
 20
652.70877060408
 10
5098.691088441537
 20
652.70877060408
 10
5110.119659870109
 20
659.6135325088419
 10
5118.683683621696
 20
659.6135325088419
 10
5127.255112193125
 20
666.5182944136039
 10
5133.066660270097
 20
666.5182944136039
 10
5137.408837494512
 20
657.7736319477665
 10
5134.533237257793
 20
654.2989483283978
 10
5134.533237257793
 20
640.4894245188739
 10
5131.676094400651
 20
637.0370435664929
 10
5131.676094400651
 20
609.4179959474455
 10
5128.818951543508
 20
605.9656149950645
 10
5128.818951543508
 20
592.1560911855406
 10
5124.478751255668
 20
586.9116825044007
 10
5080.098974707679
 20
588.6415393859754
 10
5077.190380114936
 20
592.1560911855406
 10
5077.190380114936
 20
605.9656149950645
  0
LWPOLYLINE
  5
5F
330
17
100
AcDbEntity
  8
M
100
AcDbPolyline
 90
18
 70
1
 10
6694.333237257793
 20
488.6566881178575
 10
6694.333237257793
 20
499.01383097500036
 10
6712.938438859127
 20
521.495116243278
 10
6724.405374155824
 20
528.4230563183656
 10
6738.76599657954
 20
528.4230563183656
 10
6743.096604848555
 20
523.1902379933053
 10
6748.813119412441
 20
499.0141451502067
 10
6754.533237257793
 20
488.6464315555057
 10
6754.533237257793
 20
478.2892886983629
 10
6760.267970621644
 20
467.8950844763839
 10
6747.351256507811
 20
452.2873882555017
 10
6738.7798279363815
 20
448.8350073031207
 10
6733.004665829222
 20
441.8566864236359
 10
6727.231712942649
 20
448.8323378282449
 10
6695.803141514078
 20
459.1894806853877
 10
6688.618951543508
 20
467.8703768998264
 10
6688.618951543508
 20
481.75192621309554
 10
6694.333237257793
 20
488.6566881178575
  0
LWPOLYLINE
  5
60
330
17
100
AcDbEntity
  8
M
100
AcDbPolyline
 90
45
 70
1
 10
6485.761808686365
 20
543.8947833559527
 10
6485.761808686365
 20
571.5138309750002
 10
6488.618951543508
 20
574.9662119273813
 10
6488.618951543508
 20
588.775735736905
 10
6491.446290743928
 20
592.1921039374134
 10
6485.763774571723
 20
599.0584776454953
 10
6482.90663171458
 20
650.8441919312096
 10
6480.047522972079
 20
654.2989483283978
 10
6480.047522972079
 20
664.728116689286
 10
6484.386192221761
 20
669.9706753659847
 10
6655.916865904799
 20
669.9706753659847
 10
6674.533237257793
 20
640.5544219139772
 10
6674.533237257793
 20
633.6566881178574
 10
6680.24041226255
 20
626.7605183204425
 10
6683.097555119693
 20
612.9509945109186
 10
6688.818951543508
 20
606.0376404988099
 10
6688.818951543508
 20
592.2119765178546
 10
6694.54865390119
 20
578.3651958201215
 10
6690.169598628778
 20
573.073837365956
 10
6678.691088441538
 20
580.0087706040799
 10
6672.95762079319
 20
580.0087706040799
 10
6667.232578222098
 20
586.9265303774822
 10
6644.370337186408
 20
593.8328323570134
 10
6631.476094400651
 20
612.8757186933871
 10
6631.476094400651
 20
626.6940262226321
 10
6624.408840857778
 20
642.0653026783796
 10
6620.239461991413
 20
637.0273032148546
 10
6614.523634067857
 20
612.8541142881498
 10
6601.606959972857
 20
600.7148326155343
 10
6567.329280236394
 20
607.6179764513498
 10
6564.480282293826
 20
604.1754372707467
 10
6558.765996579541
 20
604.1754372707467
 10
6553.062467722061
 20
597.2836732346252
 10
6530.205324864918
 20
590.3789113298632
 10
6523.125113478786
 20
581.8236559049552
 10
6528.818951543507
 20
571.5035744126486
 10
6528.818951543507
 20
564.6090690702383
 10
6534.526126548265
 20
557.7128992728235
 10
6537.400122582526
 20
543.8219184405617
 10
6495.909174136565
 20
507.5173385503453
 10
6488.67213316397
 20
505.76838698196826
 10
6480.035510336477
 20
519.6829459818173
 10
6482.904665829223
 20
526.6167384226165
 10
6482.904665829223
 20
540.4424024035717
 10
6485.761808686365
 20
543.8947833559527
  0
LWPOLYLINE
  5
61
330
17
100
AcDbEntity
  8
M
100
AcDbPolyline
 90
17
 70
1
 10
6608.618951543508
 20
367.75132928077875
 10
6608.618951543508
 20
402.3529080416839
 10
6624.392150238257
 20
417.94686584217527
 10
6644.480282293826
 20
417.94686584217527
 10
6647.344840284977
 20
414.48552493620065
 10
6664.487697427835
 20
411.0331439838197
 10
6674.535116230515
 20
398.89251293058186
 10
6671.675072443941
 20
343.5983330568278
 10
6668.805594160254
 20
336.66376053791896
 10
6664.480282293825
 20
331.4373420326515
 10
6633.032528931192
 20
331.4373420326515
 10
6621.571067013192
 20
324.5127087905267
 10
6614.333237257793
 20
329.76013536319056
 10
6614.333237257793
 20
343.58466261411206
 10
6611.47609440065
 20
347.0370435664931
 10
6611.47609440065
 20
364.2989483283978
 10
6608.618951543508
 20
367.75132928077875
  0
LWPOLYLINE
  5
62
330
17
100
AcDbEntity
  8
M
100
AcDbPolyline
 90
13
 70
1
 10
6632.976802727252
 20
576.756389651699
 10
6638.741027200206
 20
580.2389419374421
 10
6643.1046658292225
 20
574.9662119273813
 10
6643.1046658292225
 20
567.9894245188739
 10
6640.247522972079
 20
564.5370435664929
 10
6640.247522972079
 20
547.2751388045882
 10
6637.390380114936
 20
543.8227578522072
 10
6637.390380114936
 20
523.1012347464168
 10
6624.441475670538
 20
510.9316625139504
 10
6617.1903801149365
 20
516.1887067917621
 10
6617.1903801149365
 20
571.5138309750002
 10
6621.529049364618
 20
576.756389651699
 10
6632.976802727252
 20
576.756389651699
  0
LWPOLYLINE
  5
63
330
17
100
AcDbEntity
  8
M
100
AcDbPolyline
 90
9
 70
1
 10
6594.333237257793
 20
557.6844159518199
 10
6594.333237257793
 20
568.0712236738245
 10
6604.445185610086
 20
576.7987981445524
 10
6608.818951543507
 20
571.5138309750002
 10
6608.818951543507
 20
523.1084721379216
 10
6604.44062286882
 20
517.8179916560075
 10
6588.618951543508
 20
533.4598712617143
 10
6588.618951543508
 20
540.4225111899152
 10
6594.333237257793
 20
557.6844159518199
  0
LWPOLYLINE
  5
64
330
17
100
AcDbEntity
  8
M
100
AcDbPolyline
 90
15
 70
1
 10
6414.333237257794
 20
436.8709738321432
 10
6420.04752297208
 20
443.7757357369052
 10
6420.04752297208
 20
450.680497641667
 10
6430.100477936046
 20
462.8278182231276
 10
6435.908853722397
 20
462.8278182231276
 10
6438.765996579541
 20
459.37543727074666
 10
6467.3374251509695
 20
459.37543727074666
 10
6474.522262795086
 20
450.6937584507714
 10
6480.259850291903
 20
433.36146288747085
 10
6430.177961168516
 20
372.84584686337837
 10
6425.798092773856
 20
374.60996052233855
 10
6402.893492554315
 20
405.7459014457771
 10
6408.629926006215
 20
423.07471083172385
 10
6414.333237257794
 20
429.9662119273813
 10
6414.333237257794
 20
436.8709738321432
  0
LWPOLYLINE
  5
65
330
17
100
AcDbEntity
  8
M
100
AcDbPolyline
 90
13
 70
1
 10
6288.618951543507
 20
533.4656149950645
 10
6288.618951543507
 20
571.5215710358799
 10
6312.950280315287
 20
594.0041959058819
 10
6321.515218007776
 20
597.4539624764678
 10
6327.243335078903
 20
604.3754372707466
 10
6333.042820671242
 20
604.3754372707466
 10
6365.992121850342
 20
574.9478911089778
 10
6345.961808686365
 20
543.8293688720847
 10
6345.961808686365
 20
536.9282525097972
 10
6340.230546593015
 20
526.5403399655991
 10
6335.902377371207
 20
521.3104688225818
 10
6292.951614472121
 20
528.2303139563234
 10
6288.618951543507
 20
533.4656149950645
  0
LWPOLYLINE
  5
66
330
17
100
AcDbEntity
  8
M
100
AcDbPolyline
 90
25
 70
1
 10
6272.95762079319
 20
441.91353250884197
 10
6270.100477936046
 20
445.36591346122293
 10
6261.553194992629
 20
445.36591346122293
 10
6232.941523707849
 20
459.19488791553357
 10
6227.229503722062
 20
466.0969120650255
 10
6218.646304073002
 20
469.554034145897
 10
6214.309167806318
 20
478.28854468296805
 10
6224.396050252849
 20
486.9944848897943
 10
6230.194568008112
 20
486.9944848897943
 10
6233.051710865255
 20
483.5421039374133
 10
6247.337425150969
 20
483.5421039374133
 10
6250.194568008112
 20
480.0897229850323
 10
6267.318243216907
 20
480.0897229850323
 10
6278.753211817893
 20
473.181096121936
 10
6327.324640389322
 20
466.2763342171741
 10
6338.746814645478
 20
459.37543727074666
 10
6344.480282293826
 20
459.37543727074666
 10
6348.834368186905
 20
454.1142501499433
 10
6345.950015242735
 20
447.14373053486685
 10
6330.154156712782
 20
424.58676589171466
 10
6317.1903801149365
 20
440.25132928077875
 10
6317.1903801149365
 20
447.1560911855406
 10
6313.004665829222
 20
452.2138292807787
 10
6304.480282293826
 20
441.91353250884197
 10
6272.95762079319
 20
441.91353250884197
  0
LWPOLYLINE
  5
67
330
17
100
AcDbEntity
  8
M
100
AcDbPolyline
 90
17
 70
1
 10
8114.333237257794
 20
315.9656149950644
 10
8088.618951543507
 20
347.0370435664931
 10
8088.618951543507
 20
354.01383097500025
 10
8092.95762079319
 20
359.25638965169907
 10
8101.60395750262
 20
359.25638965169907
 10
8113.070892799317
 20
352.3284495766113
 10
8121.642321370747
 20
341.9713067194685
 10
8133.070892799317
 20
335.0665448147066
 10
8154.5146138232385
 20
309.1553819108031
 10
8163.098994210322
 20
295.32499128716677
 10
8165.969463723338
 20
281.4510553075959
 10
8161.618315363128
 20
276.1934177056769
 10
8132.953062430639
 20
279.65713576835265
 10
8130.100477936046
 20
283.1040086993181
 10
8118.671906507476
 20
283.1040086993181
 10
8114.333237257794
 20
288.3465673760169
 10
8114.333237257794
 20
315.9656149950644
  0
LWPOLYLINE
  5
68
330
17
100
AcDbEntity
  8
M
100
AcDbPolyline
 90
9
 70
1
 10
8137.427278359278
 20
240.05781942126185
 10
8121.59817005735
 20
220.9309802230989
 10
8104.405374155825
 20
231.3182944136038
 10
8098.671906507475
 20
231.3182944136038
 10
8094.333237257794
 20
236.56085309030257
 10
8094.333237257794
 20
243.53229870524902
 10
8107.260816617299
 20
262.6244182222955
 10
8124.494008239346
 20
252.21269828397547
 10
8137.427278359278
 20
240.05781942126185
  0
LWPOLYLINE
  5
69
330
17
100
AcDbEntity
  8
M
100
AcDbPolyline
 90
21
 70
1
 10
8025.7413610368
 20
288.37127495257437
 10
8017.1903801149365
 20
298.7037102331597
 10
8017.1903801149365
 20
329.84716430833356
 10
8021.522636458274
 20
335.081974056533
 10
8041.616187857434
 20
338.55050376234027
 10
8045.956984075034
 20
333.3053749994061
 10
8048.822551019142
 20
312.53001465462245
 10
8037.410827764502
 20
291.8462662555857
 10
8041.623139436684
 20
286.75638965169907
 10
8075.908853722398
 20
286.75638965169907
 10
8080.251308848034
 20
281.5092563748876
 10
8077.386732339244
 20
253.81835012324566
 10
8073.051710865254
 20
248.5801991755086
 10
8055.908853722398
 20
248.5801991755086
 10
8053.053570439385
 20
245.1300652085347
 10
8017.245237397864
 20
243.39932911152778
 10
8014.333237257794
 20
246.9179959474454
 10
8014.333237257794
 20
253.87864318452142
 10
8020.04752297208
 20
267.6881669940451
 10
8020.04752297208
 20
278.0511934602677
 10
8025.7413610368
 20
288.37127495257437
  0
LWPOLYLINE
  5
6A
330
17
100
AcDbEntity
  8
M
100
AcDbPolyline
 90
13
 70
1
 10
7977.1935498277235
 20
381.5670213660502
 10
7968.607301930219
 20
398.85877060408
 10
7972.942671388347
 20
407.58972298503244
 10
8021.623139436684
 20
407.58972298503244
 10
8024.480282293826
 20
404.1373420326515
 10
8033.051710865255
 20
404.1373420326515
 10
8037.41630740605
 20
398.8634545458583
 10
8020.239250369457
 20
374.6485755289963
 10
8017.381081137849
 20
364.28771206441763
 10
8004.466099821258
 20
348.6821096402029
 10
7984.374084643558
 20
355.6186386896469
 10
7980.052347583409
 20
360.84073763732545
 10
7977.1935498277235
 20
381.5670213660502
  0
LWPOLYLINE
  5
6B
330
17
100
AcDbEntity
  8
M
100
AcDbPolyline
 90
21
 70
1
 10
7911.47609440065
 20
298.775735736905
 10
7915.814763650333
 20
304.01829441360377
 10
7924.386192221759
 20
304.01829441360377
 10
7927.23828982207
 20
307.464579013978
 10
7953.046338063515
 20
310.92954845380143
 10
7965.961808686365
 20
295.32335478452404
 10
7965.961808686365
 20
278.06145002261934
 10
7970.19456800811
 20
272.94686584217527
 10
7990.175386074049
 20
272.94686584217527
 10
7995.9280356564595
 20
269.47130671946843
 10
8003.104665829222
 20
260.7995452607145
 10
8003.104665829222
 20
253.88452679360103
 10
8008.839399193073
 20
243.4903225716219
 10
8004.475458220271
 20
238.2172272294864
 10
7947.249950755112
 20
245.13197604819297
 10
7938.683683621696
 20
252.0325801278896
 10
7924.461100359763
 20
252.0325801278896
 10
7912.982590172523
 20
245.0976468897656
 10
7908.60353490011
 20
250.3890053439311
 10
7911.47609440065
 20
257.3310241369023
 10
7911.47609440065
 20
298.775735736905
  0
LWPOLYLINE
  5
6C
330
17
100
AcDbEntity
  8
M
100
AcDbPolyline
 90
17
 70
1
 10
7824.37618311205
 20
352.3395334060365
 10
7861.519040254907
 20
362.6966762631793
 10
7870.119199110777
 20
373.0885348806909
 10
7893.034284591834
 20
362.70513677208766
 10
7913.058123771598
 20
359.2486407231997
 10
7917.40270743476
 20
353.9989354635463
 10
7905.950834223657
 20
319.40473513834115
 10
7898.718951543507
 20
310.6662102331598
 10
7895.814763650331
 20
314.17543727074667
 10
7881.529049364617
 20
314.17543727074667
 10
7878.671906507475
 20
317.62781822312763
 10
7873.0399337510335
 20
317.62781822312763
 10
7855.891691256668
 20
303.8139562137787
 10
7827.254564671854
 20
307.2742756761105
 10
7814.327581261163
 20
315.95211176199075
 10
7817.194027890629
 20
343.6610958468191
 10
7824.37618311205
 20
352.3395334060365
  0
LWPOLYLINE
  5
6D
330
17
100
AcDbEntity
  8
M
100
AcDbPolyline
 90
16
 70
1
 10
7751.481102307591
 20
284.96464048888777
 10
7767.2424559000865
 20
314.39777428093515
 10
7787.341174396162
 20
307.4589309906237
 10
7797.390380114936
 20
298.78550938811026
 10
7797.390380114936
 20
267.64842183316244
 10
7794.548653901189
 20
260.78091681660993
 10
7797.390380114936
 20
257.34716430833356
 10
7797.390380114936
 20
233.10847213792158
 10
7793.004665829222
 20
227.80906737601697
 10
7788.618951543507
 20
233.10847213792158
 10
7788.618951543507
 20
257.34716430833356
 10
7791.446290743928
 20
260.76353250884193
 10
7787.243335078902
 20
265.8421039374134
 10
7752.957620793189
 20
265.8421039374134
 10
7748.611296506535
 20
271.09391245045305
 10
7751.481102307591
 20
284.96464048888777
  0
LWPOLYLINE
  5
6E
330
17
100
AcDbEntity
  8
M
100
AcDbPolyline
 90
40
 70
1
 10
7694.3297371741655
 20
364.29219558270415
 10
7697.19304960221
 20
402.35038993878976
 10
7700.047522972079
 20
405.79954526071464
 10
7700.047522972079
 20
416.08466261411206
 10
7695.8329091967225
 20
421.1773209260003
 10
7664.454238020727
 20
407.38972298503245
 10
7653.032528931191
 20
407.38972298503245
 10
7641.571067013191
 20
400.46508974290754
 10
7634.31067319189
 20
405.72887526335126
 10
7642.915955161382
 20
426.5249733562913
 10
7654.333237257793
 20
443.7698265227446
 10
7654.333237257793
 20
450.6084721379216
 10
7650.086646579204
 20
455.73976920788266
 10
7641.515218007776
 20
459.19215016026357
 10
7628.618951543507
 20
474.77513880458827
 10
7628.618951543507
 20
505.9185928797623
 10
7631.47609440065
 20
509.37097383214325
 10
7631.47609440065
 20
523.180497641667
 10
7635.814763650331
 20
528.4230563183656
 10
7747.337425150969
 20
528.4230563183656
 10
7751.67034416457
 20
523.187445843597
 10
7754.539338319313
 20
505.85393949202097
 10
7750.194568008112
 20
500.60400869931823
 10
7690.194568008111
 20
500.60400869931823
 10
7685.964551389757
 20
495.492738618806
 10
7688.816282056233
 20
457.58848517688494
 10
7695.899027569817
 20
449.0301676813045
 10
7738.680454293189
 20
459.36901247278587
 10
7750.119659870108
 20
466.28019917550864
 10
7755.908853722397
 20
466.28019917550864
 10
7760.2475229720785
 20
461.0376404988099
 10
7760.2475229720785
 20
447.17598239919715
 10
7754.533237257793
 20
429.91407763729245
 10
7754.533237257793
 20
409.1960408807816
 10
7751.6881070362515
 20
402.32030951205707
 10
7760.2475229720785
 20
388.5301393932247
 10
7760.2475229720785
 20
371.2037102331597
 10
7744.476858793481
 20
352.14749101735447
 10
7704.39239697109
 20
355.60716182940615
 10
7694.3297371741655
 20
364.29219558270415
  0
LWPOLYLINE
  5
6F
330
17
100
AcDbEntity
  8
M
100
AcDbPolyline
 90
19
 70
1
 10
7511.47609440065
 20
395.3774050084687
 10
7511.47609440065
 20
405.72751975696923
 10
7508.618951543507
 20
409.17990070935025
 10
7508.618951543507
 20
436.8709738321432
 10
7511.48184463673
 20
440.3303029864541
 10
7514.338290118851
 20
457.58799444092887
 10
7530.119227938976
 20
480.1236518583055
 10
7541.60395750262
 20
473.18496108027045
 10
7550.175386074048
 20
473.18496108027045
 10
7561.60395750262
 20
466.28019917550864
 10
7567.337425150968
 20
466.28019917550864
 10
7571.710957549812
 20
460.9955141935735
 10
7554.518095106418
 20
443.6832568721008
 10
7551.676094400649
 20
436.81508849982924
 10
7551.676094400649
 20
409.24442510751055
 10
7560.273324251589
 20
395.39333256988635
 10
7538.786766882618
 20
372.89213221404844
 10
7530.12296515165
 20
365.91295859743394
 10
7511.47609440065
 20
395.3774050084687
  0
LWPOLYLINE
  5
70
330
17
100
AcDbEntity
  8
M
100
AcDbPolyline
 90
21
 70
1
 10
9244.38619222176
 20
186.6373420326514
 10
9258.671906507476
 20
186.6373420326514
 10
9261.529049364619
 20
190.08972298503238
 10
9290.194568008112
 20
190.08972298503238
 10
9295.908853722398
 20
183.18496108027045
 10
9301.611362322463
 20
183.18496108027045
 10
9310.18279089389
 20
176.28019917550856
 10
9315.889671788336
 20
176.28019917550856
 10
9327.367893574652
 20
169.34544017960908
 10
9338.782279186724
 20
145.20877060408003
 10
9370.194568008112
 20
145.20877060408003
 10
9374.533237257794
 20
139.9662119273812
 10
9374.533237257794
 20
133.00556469030536
 10
9368.805594160256
 20
119.16376053791886
 10
9361.639236522024
 20
110.50441172505731
 10
9347.303612236485
 20
103.57552665371284
 10
9330.094811169345
 20
107.04118797973395
 10
9284.38812411048
 20
158.8182944136038
 10
9270.114260237751
 20
158.8182944136038
 10
9240.003516402317
 20
181.34160875082287
 10
9244.38619222176
 20
186.6373420326514
  0
LWPOLYLINE
  5
71
330
17
100
AcDbEntity
  8
M
100
AcDbPolyline
 90
11
 70
1
 10
9321.53342611384
 20
221.16644012843594
 10
9353.055867773397
 20
217.7037476734088
 10
9355.908853722398
 20
214.25638965169904
 10
9364.480282293825
 20
214.25638965169904
 10
9368.85217661977
 20
208.97368400785024
 10
9344.42854594879
 20
182.93378366011257
 10
9338.655809422136
 20
189.9091736298192
 10
9324.370095136419
 20
196.81393553458108
 10
9317.190380114936
 20
205.48942451887402
 10
9317.190380114936
 20
215.9185928797622
 10
9321.53342611384
 20
221.16644012843594
  0
LWPOLYLINE
  5
72
330
17
100
AcDbEntity
  8
M
100
AcDbPolyline
 90
10
 70
1
 10
9270.100477936048
 20
245.3278182231276
 10
9275.908853722398
 20
245.3278182231276
 10
9278.765996579541
 20
241.87543727074672
 10
9293.051710865255
 20
241.87543727074672
 10
9300.24752297208
 20
233.18049764166688
 10
9300.24752297208
 20
226.2037102331597
 10
9295.904476973177
 20
220.95586298448595
 10
9264.36798213502
 20
224.42009915988965
 10
9260.029065592504
 20
233.15819497467922
 10
9270.100477936048
 20
245.3278182231276
  0
LWPOLYLINE
  5
73
330
17
100
AcDbEntity
  8
M
100
AcDbPolyline
 90
14
 70
1
 10
9197.190380114936
 20
215.8465673760169
 10
9197.190380114936
 20
226.275735736905
 10
9201.524892456478
 20
231.5132714829326
 10
9232.971827805619
 20
234.9676696841641
 10
9238.741027200205
 20
238.4532276517278
 10
9248.81895154351
 20
226.275735736905
 10
9248.81895154351
 20
222.7674694522101
 10
9240.24752297208
 20
202.0531837379244
 10
9240.24752297208
 20
195.13228166173116
 10
9235.892246882802
 20
189.86965638718786
 10
9231.504707548835
 20
191.63685973003612
 10
9221.51573881266
 20
210.6040086993181
 10
9201.529049364619
 20
210.6040086993181
 10
9197.190380114936
 20
215.8465673760169
  0
LWPOLYLINE
  5
74
330
17
100
AcDbEntity
  8
M
100
AcDbPolyline
 90
9
 70
1
 10
9097.240616604411
 20
364.23824590361636
 10
9094.303433601071
 20
367.78734203265145
 10
9097.190380114936
 20
371.2757357369051
 10
9097.190380114936
 20
378.1902712928721
 10
9107.266664602359
 20
386.88706445165906
 10
9118.765394859394
 20
383.4134896865132
 10
9134.604450850926
 20
371.2342155718124
 10
9121.603291144413
 20
362.5065852132731
 10
9097.240616604411
 20
364.23824590361636
  0
LWPOLYLINE
  5
75
330
17
100
AcDbEntity
  8
M
100
AcDbPolyline
 90
14
 70
1
 10
9070.194568008112
 20
241.87543727074672
 10
9095.916366123052
 20
241.87543727074672
 10
9105.961808686365
 20
226.2691247170277
 10
9105.961808686365
 20
198.65668811785739
 10
9108.818951543508
 20
195.20430716547645
 10
9108.818951543508
 20
181.32275785220733
 10
9104.49238987203
 20
176.09482916583733
 10
9084.48237405307
 20
169.18660941881566
 10
9075.892948467177
 20
162.26734991906824
 10
9057.239801112666
 20
164.0011360513784
 10
9051.476094400652
 20
170.9656149950645
 10
9051.476094400652
 20
233.1937364137176
 10
9067.305906866237
 20
245.36590281717935
 10
9070.194568008112
 20
241.87543727074672
  0
LWPOLYLINE
  5
76
330
17
100
AcDbEntity
  8
M
100
AcDbPolyline
 90
10
 70
1
 10
9020.04752297208
 20
302.1560911855406
 10
9020.04752297208
 20
309.13287859404784
 10
9030.081296001985
 20
321.25702100518276
 10
9047.22415314484
 20
331.6141638623256
 10
9052.95762079319
 20
338.5421039374133
 10
9061.610096382501
 20
338.5421039374133
 10
9077.429185307361
 20
326.3781832868586
 10
9053.050417139633
 20
293.454895883873
 10
9024.38163385921
 20
296.91904053025746
 10
9020.04752297208
 20
302.1560911855406
  0
LWPOLYLINE
  5
77
330
17
100
AcDbEntity
  8
M
100
AcDbPolyline
 90
37
 70
1
 10
8952.974213606742
 20
210.6040086993181
 10
8927.222594061965
 20
227.8909755233584
 10
8905.737490051117
 20
253.85214286980067
 10
8917.172438709295
 20
271.1236799055899
 10
8910.090470949453
 20
283.1040086993181
 10
8892.9817664212
 20
283.1040086993181
 10
8878.696052135487
 20
290.0087706040801
 10
8861.553194992628
 20
290.0087706040801
 10
8847.267480706914
 20
296.91353250884197
 10
8838.671906507476
 20
296.91353250884197
 10
8834.296339013454
 20
302.2006765641189
 10
8847.27716903199
 20
314.40025292413327
 10
8864.461100359764
 20
304.01829441360377
 10
8872.957620793191
 20
304.01829441360377
 10
8877.190380114938
 20
309.13287859404784
 10
8877.190380114938
 20
319.41799594744543
 10
8874.303433601071
 20
322.9063896516991
 10
8878.671906507476
 20
328.18496108027045
 10
8887.337425150969
 20
328.18496108027045
 10
8890.194568008113
 20
324.7325801278896
 10
8910.209517412954
 20
324.7325801278896
 10
8923.08908437736
 20
298.79456332457204
 10
8930.194568008112
 20
290.2087706040801
 10
8964.480282293825
 20
290.2087706040801
 10
8971.676094400651
 20
281.5138309750002
 10
8971.676094400651
 20
274.5531837379244
 10
8957.403750372336
 20
240.06168566949677
 10
8973.056720073319
 20
217.70877060407997
 10
8975.814763650334
 20
217.70877060407997
 10
9013.004665829223
 20
262.64656907023834
 10
9023.113433576285
 20
250.43180804253856
 10
9017.385850069328
 20
226.2089027943714
 10
9011.662737017397
 20
212.3780462522046
 10
9004.478522237718
 20
203.69712006009087
 10
8965.827385742348
 20
205.4268777118898
 10
8958.68651541486
 20
210.6040086993181
 10
8952.974213606742
 20
210.6040086993181
  0
ENDSEC
  0
SECTION
  2
OBJECTS
  0
DICTIONARY
  5
A
330
0
100
AcDbDictionary
281
1
  3
ACAD_COLOR
350
B
  3
ACAD_GROUP
350
C
  3
ACAD_LAYOUT
350
D
  3
ACAD_MATERIAL
350
E
  3
ACAD_MLEADERSTYLE
350
F
  3
ACAD_MLINESTYLE
350
10
  3
ACAD_PLOTSETTINGS
350
11
  3
ACAD_PLOTSTYLENAME
350
12
  3
ACAD_SCALELIST
350
14
  3
ACAD_TABLESTYLE
350
15
  3
ACAD_VISUALSTYLE
350
16
  3
EZDXF_META
350
2D
  0
DICTIONARY
  5
B
330
A
100
AcDbDictionary
281
1
  0
DICTIONARY
  5
C
330
A
100
AcDbDictionary
281
1
  0
DICTIONARY
  5
D
330
A
100
AcDbDictionary
281
1
  3
Model
350
1A
  3
Layout1
350
1E
  0
DICTIONARY
  5
E
330
A
100
AcDbDictionary
281
1
  3
ByBlock
350
1F
  3
ByLayer
350
20
  3
Global
350
21
  0
DICTIONARY
  5
F
330
A
100
AcDbDictionary
281
1
  3
Standard
350
2C
  0
DICTIONARY
  5
10
330
A
100
AcDbDictionary
281
1
  3
Standard
350
22
  0
DICTIONARY
  5
11
330
A
100
AcDbDictionary
281
1
  0
ACDBDICTIONARYWDFLT
  5
12
330
A
100
AcDbDictionary
281
1
  3
Normal
350
13
100
AcDbDictionaryWithDefault
340
13
  0
ACDBPLACEHOLDER
  5
13
330
12
  0
DICTIONARY
  5
14
330
A
100
AcDbDictionary
281
1
  0
DICTIONARY
  5
15
330
A
100
AcDbDictionary
281
1
  0
DICTIONARY
  5
16
330
A
100
AcDbDictionary
281
1
  0
LAYOUT
  5
1A
330
D
100
AcDbPlotSettings
  1

  4
A3
  6

 40
7.5
 41
20.0
 42
7.5
 43
20.0
 44
420.0
 45
297.0
 46
0.0
 47
0.0
 48
0.0
 49
0.0
140
0.0
141
0.0
142
1.0
143
1.0
 70
1024
 72
1
 73
0
 74
5
  7

 75
16
 76
0
 77
2
 78
300
147
1.0
148
0.0
149
0.0
100
AcDbLayout
  1
Model
 70
1
 71
0
 10
0.0
 20
0.0
 11
420.0
 21
297.0
 12
0.0
 22
0.0
 32
0.0
 14
1e+20
 24
1e+20
 34
1e+20
 15
-1e+20
 25
-1e+20
 35
-1e+20
146
0.0
 13
0.0
 23
0.0
 33
0.0
 16
1.0
 26
0.0
 36
0.0
 17
0.0
 27
1.0
 37
0.0
 76
1
330
17
  0
LAYOUT
  5
1E
330
D
100
AcDbPlotSettings
  1

  4
A3
  6

 40
7.5
 41
20.0
 42
7.5
 43
20.0
 44
420.0
 45
297.0
 46
0.0
 47
0.0
 48
0.0
 49
0.0
140
0.0
141
0.0
142
1.0
143
1.0
 70
0
 72
1
 73
0
 74
5
  7

 75
16
 76
0
 77
2
 78
300
147
1.0
148
0.0
149
0.0
100
AcDbLayout
  1
Layout1
 70
1
 71
1
 10
0.0
 20
0.0
 11
420.0
 21
297.0
 12
0.0
 22
0.0
 32
0.0
 14
1e+20
 24
1e+20
 34
1e+20
 15
-1e+20
 25
-1e+20
 35
-1e+20
146
0.0
 13
0.0
 23
0.0
 33
0.0
 16
1.0
 26
0.0
 36
0.0
 17
0.0
 27
1.0
 37
0.0
 76
1
330
1B
  0
MATERIAL
  5
1F
102
{ACAD_REACTORS
330
E
102
}
330
E
100
AcDbMaterial
  1
ByBlock
  2

 70
0
 40
1.0
 71
1
 41
1.0
 91
-1023410177
 42
1.0
 72
1
  3

 73
1
 74
1
 75
1
 44
0.5
 73
0
 45
1.0
 46
1.0
 77
1
  4

 78
1
 79
1
170
1
 48
1.0
171
1
  6

172
1
173
1
174
1
140
1.0
141
1.0
175
1
  7

176
1
177
1
178
1
143
1.0
179
1
  8

270
1
271
1
272
1
145
1.0
146
1.0
273
1
  9

274
1
275
1
276
1
 42
1.0
 72
1
  3

 73
1
 74
1
 75
1
 94
63
  0
MATERIAL
  5
20
102
{ACAD_REACTORS
330
E
102
}
330
E
100
AcDbMaterial
  1
ByLayer
  2

 70
0
 40
1.0
 71
1
 41
1.0
 91
-1023410177
 42
1.0
 72
1
  3

 73
1
 74
1
 75
1
 44
0.5
 73
0
 45
1.0
 46
1.0
 77
1
  4

 78
1
 79
1
170
1
 48
1.0
171
1
  6

172
1
173
1
174
1
140
1.0
141
1.0
175
1
  7

176
1
177
1
178
1
143
1.0
179
1
  8

270
1
271
1
272
1
145
1.0
146
1.0
273
1
  9

274
1
275
1
276
1
 42
1.0
 72
1
  3

 73
1
 74
1
 75
1
 94
63
  0
MATERIAL
  5
21
102
{ACAD_REACTORS
330
E
102
}
330
E
100
AcDbMaterial
  1
Global
  2

 70
0
 40
1.0
 71
1
 41
1.0
 91
-1023410177
 42
1.0
 72
1
  3

 73
1
 74
1
 75
1
 44
0.5
 73
0
 45
1.0
 46
1.0
 77
1
  4

 78
1
 79
1
170
1
 48
1.0
171
1
  6

172
1
173
1
174
1
140
1.0
141
1.0
175
1
  7

176
1
177
1
178
1
143
1.0
179
1
  8

270
1
271
1
272
1
145
1.0
146
1.0
273
1
  9

274
1
275
1
276
1
 42
1.0
 72
1
  3

 73
1
 74
1
 75
1
 94
63
  0
MLINESTYLE
  5
22
102
{ACAD_REACTORS
330
10
102
}
330
10
100
AcDbMlineStyle
  2
Standard
 70
0
  3

 62
256
 51
90.0
 52
90.0
 71
2
 49
0.5
 62
256
  6
BYLAYER
 49
-0.5
 62
256
  6
BYLAYER
  0
MLEADERSTYLE
  5
2C
102
{ACAD_REACTORS
330
F
102
}
330
F
100
AcDbMLeaderStyle
179
2
170
2
171
1
172
0
 90
2
 40
0.0
 41
0.0
173
1
 91
-1056964608
 92
-2
290
1
 42
2.0
291
1
 43
8.0
  3
Standard
 44
4.0
300

342
29
174
1
175
1
176
0
178
1
 93
-1056964608
 45
4.0
292
0
297
0
 46
4.0
 94
-1056964608
 47
1.0
 49
1.0
140
1.0
294
1
141
0.0
177
0
142
1.0
295
0
296
0
143
3.75
271
0
272
9
273
9
  0
DICTIONARY
  5
2D
330
A
100
AcDbDictionary
280
1
281
1
  3
CREATED_BY_EZDXF
350
2E
  3
WRITTEN_BY_EZDXF
350
7A
  0
DICTIONARYVAR
  5
2E
330
2D
100
DictionaryVariables
280
0
  1
1.4.4 @ 2026-07-08T15:53:08.995633+00:00
  0
DICTIONARYVAR
  5
7A
330
2D
100
DictionaryVariables
280
0
  1
1.4.4 @ 2026-07-08T15:53:09.005943+00:00
  0
ENDSEC
  0
EOF
