  0
SECTION
  2
HEADER
  9
$ACADVER
  1
AC1027
  9
$ACADMAINTVER
 70
105
  9
$DWGCODEPAGE
  3
ANSI_1252
  9
$LASTSAVEDBY
  1
ezdxf
  9
$REQUIREDVERSIONS
160
0
  9
$INSBASE
 10
0.0
 20
0.0
 30
0.0
  9
$EXTMIN
 10
1e+20
 20
1e+20
 30
1e+20
  9
$EXTMAX
 10
-1e+20
 20
-1e+20
 30
-1e+20
  9
$LIMMIN
 10
0.0
 20
0.0
  9
$LIMMAX
 10
420.0
 20
297.0
  9
$ORTHOMODE
 70
0
  9
$REGENMODE
 70
1
  9
$FILLMODE
 70
1
  9
$QTEXTMODE
 70
0
  9
$MIRRTEXT
 70
1
  9
$LTSCALE
 40
1.0
  9
$ATTMODE
 70
1
  9
$TEXTSIZE
 40
2.5
  9
$TRACEWID
 40
1.0
  9
$TEXTSTYLE
  7
Standard
  9
$CLAYER
  8
0
  9
$CELTYPE
  6
ByLayer
  9
$CECOLOR
 62
256
  9
$CELTSCALE
 40
1.0
  9
$DISPSILH
 70
0
  9
$DIMSCALE
 40
1.0
  9
$DIMASZ
 40
2.5
  9
$DIMEXO
 40
0.625
  9
$DIMDLI
 40
3.75
  9
$DIMRND
 40
0.0
  9
$DIMDLE
 40
0.0
  9
$DIMEXE
 40
1.25
  9
$DIMTP
 40
0.0
  9
$DIMTM
 40
0.0
  9
$DIMTXT
 40
2.5
  9
$DIMCEN
 40
2.5
  9
$DIMTSZ
 40
0.0
  9
$DIMTOL
 70
0
  9
$DIMLIM
 70
0
  9
$DIMTIH
 70
0
  9
$DIMTOH
 70
0
  9
$DIMSE1
 70
0
  9
$DIMSE2
 70
0
  9
$DIMTAD
 70
1
  9
$DIMZIN
 70
8
  9
$DIMBLK
  1

  9
$DIMASO
 70
1
  9
$DIMSHO
 70
1
  9
$DIMPOST
  1

  9
$DIMAPOST
  1

  9
$DIMALT
 70
0
  9
$DIMALTD
 70
3
  9
$DIMALTF
 40
0.03937007874
  9
$DIMLFAC
 40
1.0
  9
$DIMTOFL
 70
1
  9
$DIMTVP
 40
0.0
  9
$DIMTIX
 70
0
  9
$DIMSOXD
 70
0
  9
$DIMSAH
 70
0
  9
$DIMBLK1
  1

  9
$DIMBLK2
  1

  9
$DIMSTYLE
  2
ISO-25
  9
$DIMCLRD
 70
0
  9
$DIMCLRE
 70
0
  9
$DIMCLRT
 70
0
  9
$DIMTFAC
 40
1.0
  9
$DIMGAP
 40
0.625
  9
$DIMJUST
 70
0
  9
$DIMSD1
 70
0
  9
$DIMSD2
 70
0
  9
$DIMTOLJ
 70
0
  9
$DIMTZIN
 70
8
  9
$DIMALTZ
 70
0
  9
$DIMALTTZ
 70
0
  9
$DIMUPT
 70
0
  9
$DIMDEC
 70
2
  9
$DIMTDEC
 70
2
  9
$DIMALTU
 70
2
  9
$DIMALTTD
 70
3
  9
$DIMTXSTY
  7
Standard
  9
$DIMAUNIT
 70
0
  9
$DIMADEC
 70
0
  9
$DIMALTRND
 40
0.0
  9
$DIMAZIN
 70
0
  9
$DIMDSEP
 70
44
  9
$DIMATFIT
 70
3
  9
$DIMFRAC
 70
0
  9
$DIMLDRBLK
  1

  9
$DIMLUNIT
 70
2
  9
$DIMLWD
 70
-2
  9
$DIMLWE
 70
-2
  9
$DIMTMOVE
 70
0
  9
$DIMFXL
 40
1.0
  9
$DIMFXLON
 70
0
  9
$DIMJOGANG
 40
0.785398163397
  9
$DIMTFILL
 70
0
  9
$DIMTFILLCLR
 70
0
  9
$DIMARCSYM
 70
0
  9
$DIMLTYPE
  6

  9
$DIMLTEX1
  6

  9
$DIMLTEX2
  6

  9
$DIMTXTDIRECTION
 70
0
  9
$LUNITS
 70
2
  9
$LUPREC
 70
4
  9
$SKETCHINC
 40
1.0
  9
$FILLETRAD
 40
10.0
  9
$AUNITS
 70
0
  9
$AUPREC
 70
2
  9
$MENU
  1
.
  9
$ELEVATION
 40
0.0
  9
$PELEVATION
 40
0.0
  9
$THICKNESS
 40
0.0
  9
$LIMCHECK
 70
0
  9
$CHAMFERA
 40
0.0
  9
$CHAMFERB
 40
0.0
  9
$CHAMFERC
 40
0.0
  9
$CHAMFERD
 40
0.0
  9
$SKPOLY
 70
0
  9
$TDCREATE
 40
2461230.7869097223
  9
$TDUCREATE
 40
2458532.153996898
  9
$TDUPDATE
 40
2461230.7869097223
  9
$TDUUPDATE
 40
2458532.1544311
  9
$TDINDWG
 40
0.0
  9
$TDUSRTIMER
 40
0.0
  9
$USRTIMER
 70
1
  9
$ANGBASE
 50
0.0
  9
$ANGDIR
 70
0
  9
$PDMODE
 70
0
  9
$PDSIZE
 40
0.0
  9
$PLINEWID
 40
0.0
  9
$SPLFRAME
 70
0
  9
$SPLINETYPE
 70
6
  9
$SPLINESEGS
 70
8
  9
$HANDSEED
  5
56
  9
$SURFTAB1
 70
6
  9
$SURFTAB2
 70
6
  9
$SURFTYPE
 70
6
  9
$SURFU
 70
6
  9
$SURFV
 70
6
  9
$UCSBASE
  2

  9
$UCSNAME
  2

  9
$UCSORG
 10
0.0
 20
0.0
 30
0.0
  9
$UCSXDIR
 10
1.0
 20
0.0
 30
0.0
  9
$UCSYDIR
 10
0.0
 20
1.0
 30
0.0
  9
$UCSORTHOREF
  2

  9
$UCSORTHOVIEW
 70
0
  9
$UCSORGTOP
 10
0.0
 20
0.0
 30
0.0
  9
$UCSORGBOTTOM
 10
0.0
 20
0.0
 30
0.0
  9
$UCSORGLEFT
 10
0.0
 20
0.0
 30
0.0
  9
$UCSORGRIGHT
 10
0.0
 20
0.0
 30
0.0
  9
$UCSORGFRONT
 10
0.0
 20
0.0
 30
0.0
  9
$UCSORGBACK
 10
0.0
 20
0.0
 30
0.0
  9
$PUCSBASE
  2

  9
$PUCSNAME
  2

  9
$PUCSORG
 10
0.0
 20
0.0
 30
0.0
  9
$PUCSXDIR
 10
1.0
 20
0.0
 30
0.0
  9
$PUCSYDIR
 10
0.0
 20
1.0
 30
0.0
  9
$PUCSORTHOREF
  2

  9
$PUCSORTHOVIEW
 70
0
  9
$PUCSORGTOP
 10
0.0
 20
0.0
 30
0.0
  9
$PUCSORGBOTTOM
 10
0.0
 20
0.0
 30
0.0
  9
$PUCSORGLEFT
 10
0.0
 20
0.0
 30
0.0
  9
$PUCSORGRIGHT
 10
0.0
 20
0.0
 30
0.0
  9
$PUCSORGFRONT
 10
0.0
 20
0.0
 30
0.0
  9
$PUCSORGBACK
 10
0.0
 20
0.0
 30
0.0
  9
$USERI1
 70
0
  9
$USERI2
 70
0
  9
$USERI3
 70
0
  9
$USERI4
 70
0
  9
$USERI5
 70
0
  9
$USERR1
 40
0.0
  9
$USERR2
 40
0.0
  9
$USERR3
 40
0.0
  9
$USERR4
 40
0.0
  9
$USERR5
 40
0.0
  9
$WORLDVIEW
 70
1
  9
$SHADEDGE
 70
3
  9
$SHADEDIF
 70
70
  9
$TILEMODE
 70
1
  9
$MAXACTVP
 70
64
  9
$PINSBASE
 10
0.0
 20
0.0
 30
0.0
  9
$PLIMCHECK
 70
0
  9
$PEXTMIN
 10
1e+20
 20
1e+20
 30
1e+20
  9
$PEXTMAX
 10
-1e+20
 20
-1e+20
 30
-1e+20
  9
$PLIMMIN
 10
0.0
 20
0.0
  9
$PLIMMAX
 10
420.0
 20
297.0
  9
$UNITMODE
 70
0
  9
$VISRETAIN
 70
1
  9
$PLINEGEN
 70
0
  9
$PSLTSCALE
 70
1
  9
$TREEDEPTH
 70
3020
  9
$CMLSTYLE
  2
Standard
  9
$CMLJUST
 70
0
  9
$CMLSCALE
 40
20.0
  9
$PROXYGRAPHICS
 70
1
  9
$MEASUREMENT
 70
1
  9
$CELWEIGHT
370
-1
  9
$ENDCAPS
280
0
  9
$JOINSTYLE
280
0
  9
$LWDISPLAY
290
0
  9
$INSUNITS
 70
4
  9
$HYPERLINKBASE
  1

  9
$STYLESHEET
  1

  9
$XEDIT
290
1
  9
$CEPSNTYPE
380
0
  9
$PSTYLEMODE
290
1
  9
$FINGERPRINTGUID
  2
{462ACBBE-B527-4E30-8D4C-6EA709896F46}
  9
$VERSIONGUID
  2
{934C3A5D-FE4B-4B61-86A8-DD20E3D64812}
  9
$EXTNAMES
290
1
  9
$PSVPSCALE
 40
0.0
  9
$OLESTARTUP
290
0
  9
$SORTENTS
280
127
  9
$INDEXCTL
280
0
  9
$HIDETEXT
280
1
  9
$XCLIPFRAME
280
1
  9
$HALOGAP
280
0
  9
$OBSCOLOR
 70
257
  9
$OBSLTYPE
280
0
  9
$INTERSECTIONDISPLAY
280
0
  9
$INTERSECTIONCOLOR
 70
257
  9
$DIMASSOC
280
2
  9
$PROJECTNAME
  1

  9
$CAMERADISPLAY
290
0
  9
$LENSLENGTH
 40
50.0
  9
$CAMERAHEIGHT
 40
0.0
  9
$STEPSPERSEC
 40
24.0
  9
$STEPSIZE
 40
100.0
  9
$3DDWFPREC
 40
2.0
  9
$PSOLWIDTH
 40
0.005
  9
$PSOLHEIGHT
 40
0.08
  9
$LOFTANG1
 40
1.570796326795
  9
$LOFTANG2
 40
1.570796326795
  9
$LOFTMAG1
 40
0.0
  9
$LOFTMAG2
 40
0.0
  9
$LOFTPARAM
 70
7
  9
$LOFTNORMALS
280
1
  9
$LATITUDE
 40
37.795
  9
$LONGITUDE
 40
-122.394
  9
$NORTHDIRECTION
 40
0.0
  9
$TIMEZONE
 70
-8000
  9
$LIGHTGLYPHDISPLAY
280
1
  9
$TILEMODELIGHTSYNCH
280
1
  9
$CMATERIAL
347
20
  9
$SOLIDHIST
280
0
  9
$SHOWHIST
280
1
  9
$DWFFRAME
280
2
  9
$DGNFRAME
280
2
  9
$REALWORLDSCALE
290
1
  9
$INTERFERECOLOR
 62
256
  9
$CSHADOW
280
0
  9
$SHADOWPLANELOCATION
 40
0.0
  0
ENDSEC
  0
SECTION
  2
CLASSES
  0
CLASS
  1
ACDBDICTIONARYWDFLT
  2
AcDbDictionaryWithDefault
  3
ObjectDBX Classes
 90
0
 91
0
280
0
281
0
  0
CLASS
  1
SUN
  2
AcDbSun
  3
SCENEOE
 90
1153
 91
0
280
0
281
0
  0
CLASS
  1
VISUALSTYLE
  2
AcDbVisualStyle
  3
ObjectDBX Classes
 90
4095
 91
0
280
0
281
0
  0
CLASS
  1
MATERIAL
  2
AcDbMaterial
  3
ObjectDBX Classes
 90
1153
 91
0
280
0
281
0
  0
CLASS
  1
SCALE
  2
AcDbScale
  3
ObjectDBX Classes
 90
1153
 91
0
280
0
281
0
  0
CLASS
  1
TABLESTYLE
  2
AcDbTableStyle
  3
ObjectDBX Classes
 90
4095
 91
0
280
0
281
0
  0
CLASS
  1
MLEADERSTYLE
  2
AcDbMLeaderStyle
  3
ACDB_MLEADERSTYLE_CLASS
 90
4095
 91
0
280
0
281
0
  0
CLASS
  1
DICTIONARYVAR
  2
AcDbDictionaryVar
  3
ObjectDBX Classes
 90
0
 91
0
280
0
281
0
  0
CLASS
  1
CELLSTYLEMAP
  2
AcDbCellStyleMap
  3
ObjectDBX Classes
 90
1152
 91
0
280
0
281
0
  0
CLASS
  1
MENTALRAYRENDERSETTINGS
  2
AcDbMentalRayRenderSettings
  3
SCENEOE
 90
1024
 91
0
280
0
281
0
  0
CLASS
  1
ACDBDETAILVIEWSTYLE
  2
AcDbDetailViewStyle
  3
ObjectDBX Classes
 90
1025
 91
0
280
0
281
0
  0
CLASS
  1
ACDBSECTIONVIEWSTYLE
  2
AcDbSectionViewStyle
  3
ObjectDBX Classes
 90
1025
 91
0
280
0
281
0
  0
CLASS
  1
RASTERVARIABLES
  2
AcDbRasterVariables
  3
ISM
 90
0
 91
0
280
0
281
0
  0
CLASS
  1
LAYOUT
  2
AcDbLayout
  3
ObjectDBX Classes
 90
0
 91
0
280
0
281
0
  0
CLASS
  1
ACDBPLACEHOLDER
  2
AcDbPlaceHolder
  3
ObjectDBX Classes
 90
0
 91
0
280
0
281
0
  0
ENDSEC
  0
SECTION
  2
TABLES
  0
TABLE
  2
VPORT
  5
8
330
0
100
AcDbSymbolTable
 70
1
  0
VPORT
  5
23
330
8
100
AcDbSymbolTableRecord
100
AcDbViewportTableRecord
  2
*Active
 70
0
 10
0.0
 20
0.0
 11
1.0
 21
1.0
 12
0.0
 22
0.0
 13
0.0
 23
0.0
 14
0.5
 24
0.5
 15
0.5
 25
0.5
 16
0.0
 26
0.0
 36
1.0
 17
0.0
 27
0.0
 37
0.0
 40
1000.0
 41
1.34
 42
50.0
 43
0.0
 44
0.0
 50
0.0
 51
0.0
 71
0
 72
1000
 73
1
 74
3
 75
0
 76
0
 77
0
 78
0
281
0
 65
0
146
0.0
  0
ENDTAB
  0
TABLE
  2
LTYPE
  5
2
330
0
100
AcDbSymbolTable
 70
3
  0
LTYPE
  5
24
330
2
100
AcDbSymbolTableRecord
100
AcDbLinetypeTableRecord
  2
ByBlock
 70
0
  3

 72
65
 73
0
 40
0.0
  0
LTYPE
  5
25
330
2
100
AcDbSymbolTableRecord
100
AcDbLinetypeTableRecord
  2
ByLayer
 70
0
  3

 72
65
 73
0
 40
0.0
  0
LTYPE
  5
26
330
2
100
AcDbSymbolTableRecord
100
AcDbLinetypeTableRecord
  2
Continuous
 70
0
  3

 72
65
 73
0
 40
0.0
  0
ENDTAB
  0
TABLE
  2
LAYER
  5
1
330
0
100
AcDbSymbolTable
 70
3
  0
LAYER
  5
27
330
1
100
AcDbSymbolTableRecord
100
AcDbLayerTableRecord
  2
0
 70
0
 62
7
  6
Continuous
370
-3
390
13
347
21
  0
LAYER
  5
28
330
1
100
AcDbSymbolTableRecord
100
AcDbLayerTableRecord
  2
Defpoints
 70
0
 62
7
  6
Continuous
290
0
370
-3
390
13
347
21
  0
LAYER
  5
2F
330
1
100
AcDbSymbolTableRecord
100
AcDbLayerTableRecord
  2
K
 70
0
 62
7
  6
Continuous
370
-3
390
13
347
21
  0
ENDTAB
  0
TABLE
  2
STYLE
  5
5
330
0
100
AcDbSymbolTable
 70
1
  0
STYLE
  5
29
330
5
100
AcDbSymbolTableRecord
100
AcDbTextStyleTableRecord
  2
Standard
 70
0
 40
0.0
 41
1.0
 50
0.0
 71
0
 42
2.5
  3
txt
  4

  0
ENDTAB
  0
TABLE
  2
VIEW
  5
7
330
0
100
AcDbSymbolTable
 70
0
  0
ENDTAB
  0
TABLE
  2
UCS
  5
6
330
0
100
AcDbSymbolTable
 70
0
  0
ENDTAB
  0
TABLE
  2
APPID
  5
3
330
0
100
AcDbSymbolTable
 70
3
  0
APPID
  5
2A
330
3
100
AcDbSymbolTableRecord
100
AcDbRegAppTableRecord
  2
ACAD
 70
0
  0
APPID
  5
53
330
3
100
AcDbSymbolTableRecord
100
AcDbRegAppTableRecord
  2
HATCHBACKGROUNDCOLOR
 70
0
  0
APPID
  5
54
330
3
100
AcDbSymbolTableRecord
100
AcDbRegAppTableRecord
  2
EZDXF
 70
0
  0
ENDTAB
  0
TABLE
  2
DIMSTYLE
  5
4
330
0
100
AcDbSymbolTable
 70
1
100
AcDbDimStyleTable
  0
DIMSTYLE
105
2B
330
4
100
AcDbSymbolTableRecord
100
AcDbDimStyleTableRecord
  2
Standard
 70
0
 40
1.0
 41
2.5
 42
0.625
 43
3.75
 44
1.25
 45
0.0
 46
0.0
 47
0.0
 48
0.0
 49
2.5
140
2.5
141
2.5
142
0.0
143
0.03937007874
144
1.0
145
0.0
146
1.0
147
0.625
148
0.0
 69
0
 70
0
 71
0
 72
0
 73
0
 74
0
 75
0
 76
0
 77
1
 78
8
 79
3
170
0
171
3
172
1
173
0
174
0
175
0
176
0
177
0
178
0
179
2
271
2
272
2
273
2
274
3
275
0
276
0
277
2
278
44
279
0
280
0
281
0
282
0
283
0
284
8
285
0
286
0
288
0
289
3
290
0
371
-2
372
-2
  0
ENDTAB
  0
TABLE
  2
BLOCK_RECORD
  5
9
330
0
100
AcDbSymbolTable
 70
2
  0
BLOCK_RECORD
  5
17
330
9
100
AcDbSymbolTableRecord
100
AcDbBlockTableRecord
  2
*Model_Space
340
1A
 70
0
280
1
281
0
  0
BLOCK_RECORD
  5
1B
330
9
100
AcDbSymbolTableRecord
100
AcDbBlockTableRecord
  2
*Paper_Space
340
1E
 70
0
280
1
281
0
  0
ENDTAB
  0
ENDSEC
  0
SECTION
  2
BLOCKS
  0
BLOCK
  5
18
330
17
100
AcDbEntity
  8
0
100
AcDbBlockBegin
  2
*Model_Space
 70
0
 10
0.0
 20
0.0
 30
0.0
  3
*Model_Space
  1

  0
ENDBLK
  5
19
330
17
100
AcDbEntity
  8
0
100
AcDbBlockEnd
  0
BLOCK
  5
1C
330
1B
100
AcDbEntity
  8
0
100
AcDbBlockBegin
  2
*Paper_Space
 70
0
 10
0.0
 20
0.0
 30
0.0
  3
*Paper_Space
  1

  0
ENDBLK
  5
1D
330
1B
100
AcDbEntity
  8
0
100
AcDbBlockEnd
  0
ENDSEC
  0
SECTION
  2
ENTITIES
  0
LWPOLYLINE
  5
30
330
17
100
AcDbEntity
  8
K
100
AcDbPolyline
 90
24
 70
1
 10
138.65054253825292
 20
756.0761010932245
 10
132.92164791658345
 20
756.0761010932245
 10
127.19444806350234
 20
762.996467582364
 10
90.05159092064507
 20
776.8059913918879
 10
84.3414360560083
 20
783.7057618533241
 10
70.04697471565113
 20
787.1602566772438
 10
62.86869295261599
 20
799.3035166597116
 10
62.86869295261599
 20
809.7240186070017
 10
74.29726438118745
 20
823.5335424165255
 10
74.29726438118745
 20
830.4383043212873
 10
78.63593363086908
 20
835.6808629979862
 10
95.80293640173765
 20
835.6808629979862
 10
110.08865068745189
 20
842.5856249027481
 10
127.22654413636036
 20
842.5856249027481
 10
133.0033988898217
 20
846.0758079829642
 10
140.21155009547314
 20
833.8820188600704
 10
140.21155009547314
 20
823.5232858541739
 10
151.64012152404462
 20
802.8090001398882
 10
151.64012152404462
 20
792.4518572827452
 10
163.06869295261595
 20
771.7375715684595
 10
163.06869295261595
 20
757.8662788175421
 10
155.8659292665414
 20
749.1629393635353
 10
145.78594076527207
 20
750.9029373786356
 10
138.65054253825292
 20
756.0761010932245
  0
LWPOLYLINE
  5
31
330
17
100
AcDbEntity
  8
K
100
AcDbPolyline
 90
16
 70
1
 10
8.59333284492736
 20
712.972815138142
 10
0.0
 20
740.6624431940194
 10
7.2073622022976735
 20
749.3713391884625
 10
27.22654413636039
 20
749.3713391884625
 10
38.65511556493184
 20
756.2761010932244
 10
55.77879077372627
 20
756.2761010932244
 10
58.63593363086916
 20
759.7284820456051
 10
64.44430941722001
 20
759.7284820456051
 10
68.78297866690164
 20
754.4859233689065
 10
68.78297866690164
 20
702.6840689117608
 10
71.65553816744152
 20
695.7420501187896
 10
67.3014522743629
 20
690.4808629979862
 10
52.99159236063711
 20
690.4808629979862
 10
38.69427431243366
 20
683.5704926080213
 10
31.484293198865476
 20
685.3129047104667
 10
8.59333284492736
 20
712.972815138142
  0
LWPOLYLINE
  5
32
330
17
100
AcDbEntity
  8
K
100
AcDbPolyline
 90
13
 70
1
 10
2545.785742352976
 20
412.5557965063925
 10
2540.011550095473
 20
419.53294548420877
 10
2540.011550095473
 20
467.93830432128755
 10
2544.350219345155
 20
473.1808629979862
 10
2552.9965560545857
 20
473.1808629979862
 10
2575.8536989117288
 20
459.37133918846234
 10
2581.574123505895
 20
459.37133918846234
 10
2597.3805362492844
 20
447.21716575320517
 10
2593.0498518696077
 20
438.49564859968933
 10
2581.5905910796682
 20
428.11069350880734
 10
2570.156601697717
 20
424.65667588300954
 10
2555.8657308542456
 20
414.2957945214926
 10
2545.785742352976
 20
412.5557965063925
  0
LWPOLYLINE
  5
33
330
17
100
AcDbEntity
  8
K
100
AcDbPolyline
 90
11
 70
1
 10
3782.9078165597416
 20
402.2237663636936
 10
3762.8388892958933
 20
426.47372014084334
 10
3767.196605345491
 20
431.7392937007744
 10
3778.6354146713725
 20
435.19476735130087
 10
3787.211857410016
 20
442.1035684463191
 10
3807.299145693829
 20
445.57101701912035
 10
3825.9520280738757
 20
419.56459447001686
 10
3815.8779261026243
 20
407.39172125475494
 10
3790.1636403883385
 20
403.9393403023739
 10
3787.2848454347672
 20
400.4607964001416
 10
3782.9078165597416
 20
402.2237663636936
  0
LWPOLYLINE
  5
34
330
17
100
AcDbEntity
  8
K
100
AcDbPolyline
 90
14
 70
1
 10
3734.3347708742913
 20
350.4276024801903
 10
3728.5829786669015
 20
360.85272585608436
 10
3728.5829786669015
 20
367.81925670223984
 10
3732.921647916583
 20
373.0618153789386
 10
3744.3694012792166
 20
373.0618153789386
 10
3755.797972707788
 20
379.9665772837005
 10
3767.2073622022976
 20
379.9665772837005
 10
3770.0943104961952
 20
383.45497313882765
 10
3777.35440723833
 20
378.1914030007803
 10
3777.35440723833
 20
360.8424692937326
 10
3773.0221508949926
 20
355.6076595455331
 10
3753.022150894992
 20
352.1552785931523
 10
3750.154218382285
 20
348.68986014029696
 10
3734.3347708742913
 20
350.4276024801903
  0
LWPOLYLINE
  5
35
330
17
100
AcDbEntity
  8
K
100
AcDbPolyline
 90
14
 70
1
 10
5311.440121524044
 20
267.6281835794468
 10
5311.440121524044
 20
281.5097328927163
 10
5364.350219345154
 20
345.44276775989096
 10
5367.301452274362
 20
345.44276775989096
 10
5371.640121524044
 20
340.2002090831924
 10
5371.640121524044
 20
333.29544717843044
 10
5377.343432775623
 20
326.4039460827733
 10
5383.06791165978
 20
309.11124945354726
 10
5385.927603413828
 20
250.36841467246057
 10
5381.586114660366
 20
245.12244909535934
 10
5317.206323504904
 20
246.85116570971894
 10
5314.297264381187
 20
250.36627881754197
 10
5314.297264381187
 20
264.1758026270658
 10
5311.440121524044
 20
267.6281835794468
  0
LWPOLYLINE
  5
36
330
17
100
AcDbEntity
  8
K
100
AcDbPolyline
 90
25
 70
1
 10
5257.15440723833
 20
391.89659778249813
 10
5244.366812158706
 20
400.4808629979862
 10
5230.083686993503
 20
400.4808629979862
 10
5218.655115564932
 20
407.38562490274813
 10
5210.047464008765
 20
407.38562490274813
 10
5202.868692952616
 20
422.9994519498717
 10
5202.868692952616
 20
443.77163765462086
 10
5207.207362202297
 20
449.0141963313195
 10
5224.374364973166
 20
449.0141963313195
 10
5238.660079258881
 20
455.9189582360815
 10
5255.797972707788
 20
455.9189582360815
 10
5261.564835978145
 20
459.40310479525544
 10
5300.211550095473
 20
409.2458724300207
 10
5300.211550095473
 20
374.6519931032564
 10
5295.856274006196
 20
369.3893678287131
 10
5287.284845434767
 20
372.84174878109405
 10
5283.074794014136
 20
367.75460331449864
 10
5285.920085573679
 20
350.5643001422651
 10
5288.782978666902
 20
347.1049709879542
 10
5288.782978666902
 20
336.6814138597753
 10
5264.418426275278
 20
300.3137363928667
 10
5245.72322637349
 20
315.95299015686226
 10
5248.584944552259
 20
367.82163214704707
 10
5257.15440723833
 20
378.17639955938273
 10
5257.15440723833
 20
391.89659778249813
  0
LWPOLYLINE
  5
37
330
17
100
AcDbEntity
  8
K
100
AcDbPolyline
 90
113
 70
1
 10
5030.1585951315055
 20
397.0284820456053
 10
5012.940829850645
 20
397.0284820456053
 10
5007.181139148674
 20
400.5082951780467
 10
4999.99846646097
 20
412.65898314141174
 10
5011.440121524044
 20
436.8533162435372
 10
5011.440121524044
 20
447.21376204464997
 10
5022.836859011896
 20
467.87034874138095
 10
5010.074437081211
 20
476.43771531522043
 10
4987.2263396208855
 20
479.8887300357904
 10
4955.804835046824
 20
493.695148712272
 10
4950.158595131505
 20
493.695148712272
 10
4938.737438836943
 20
479.8945848563418
 10
4921.5769314940035
 20
476.4386493497777
 10
4910.139413197442
 20
469.5284820456053
 10
4901.575389445856
 20
469.5284820456053
 10
4893.003960874427
 20
462.6237201408434
 10
4884.44430941722
 20
462.6237201408434
 10
4880.211550095473
 20
457.50913596039925
 10
4880.211550095473
 20
447.1519931032563
 10
4877.354407238329
 20
443.69961215087545
 10
4877.354407238329
 20
419.53294548420877
 10
4874.497264381187
 20
416.0805645318278
 10
4874.497264381187
 20
409.17580262706593
 10
4867.320634208426
 20
400.504041168312
 10
4855.853698911728
 20
393.57610109322434
 10
4844.361996459375
 20
393.57610109322434
 10
4835.790567887948
 20
400.4808629979862
 10
4830.080380438159
 20
400.4808629979862
 10
4790.032854330617
 20
428.13272626271845
 10
4774.279442079498
 20
461.012007135318
 10
4801.49606564736
 20
493.89876061315204
 10
4847.285712115881
 20
490.4406883538106
 10
4852.944310636676
 20
487.0219517474968
 10
4897.126222066403
 20
543.8527168526688
 10
4892.912864627438
 20
548.9438570914191
 10
4878.627150341723
 20
552.3962380438002
 10
4875.778790773726
 20
555.8380058551292
 10
4867.213320218794
 20
555.8380058551292
 10
4851.4508242438515
 20
571.4213825576288
 10
4848.592277643988
 20
581.7836139821333
 10
4842.875803662144
 20
588.6910200435285
 10
4840.018660805002
 20
602.5005438530521
 10
4834.267460724465
 20
609.4499106170339
 10
4838.635933630869
 20
614.7284820456051
 10
4844.361996459375
 20
614.7284820456051
 10
4852.933425030805
 20
621.6332439503672
 10
4861.493076488012
 20
621.6332439503672
 10
4867.207362202297
 20
628.5380058551291
 10
4875.778790773726
 20
628.5380058551291
 10
4881.493076488011
 20
635.442767759891
 10
4907.301452274362
 20
635.442767759891
 10
4910.1585951315055
 20
631.99038680751
 10
4918.730023702934
 20
631.99038680751
 10
4923.068692952616
 20
626.7478281308112
 10
4923.068692952616
 20
609.4138978651611
 10
4920.211550095473
 20
605.9615169127801
 10
4920.211550095473
 20
578.3424692937325
 10
4917.350252488653
 20
574.8850680188256
 10
4914.50159923311
 20
550.7902092323567
 10
4927.325006502805
 20
535.2952587814755
 10
4944.432532302999
 20
521.5141963313195
 10
4952.921647916583
 20
521.5141963313195
 10
4958.635933630869
 20
528.4189582360814
 10
4964.350219345155
 20
528.4189582360814
 10
4968.587335117485
 20
533.5388064609812
 10
4977.1596163905615
 20
602.5932944940884
 10
4990.071934179367
 20
614.7284820456051
 10
4998.710841768871
 20
614.7284820456051
 10
5021.567984626014
 20
600.9189582360814
 10
5030.175636182182
 20
600.9189582360814
 10
5037.355418100423
 20
585.3029325639059
 10
5034.498454994513
 20
523.1639850103769
 10
5040.225760406933
 20
512.7832439503673
 10
5034.497264381187
 20
502.40034490370334
 10
5034.497264381187
 20
492.0454972093203
 10
5025.944293189335
 20
474.8207635590616
 10
5030.1585951315055
 20
469.7284820456053
 10
5035.8611037315695
 20
469.7284820456053
 10
5044.432532302999
 20
462.8237201408433
 10
5053.015737988649
 20
462.8237201408433
 10
5058.730023702934
 20
455.9189582360815
 10
5067.301452274362
 20
455.9189582360815
 10
5073.026494845454
 20
449.0011984626791
 10
5084.3625832454845
 20
445.57675509183684
 10
5092.921647916583
 20
455.9189582360815
 10
5098.635933630869
 20
455.9189582360815
 10
5110.06450505944
 20
469.7284820456053
 10
5124.425127483157
 20
469.7284820456053
 10
5135.853698911728
 20
462.8237201408433
 10
5144.350219345155
 20
462.8237201408433
 10
5160.027131547336
 20
481.7666557184786
 10
5168.597347586361
 20
499.02611857484953
 10
5192.926141538748
 20
531.8819162899613
 10
5210.166010265514
 20
528.4099982824879
 10
5214.497264381187
 20
523.1763995593827
 10
5214.497264381187
 20
516.2121638759869
 10
5205.922666096971
 20
498.94387566471823
 10
5203.065218537699
 20
478.22738086000146
 10
5197.349269662709
 20
467.86722352408054
 10
5194.490153671659
 20
454.04816290067134
 10
5184.44430941722
 20
441.90943442655765
 10
5170.1585951315055
 20
441.90943442655765
 10
5163.06576128532
 20
433.3389268624171
 10
5160.208618428177
 20
398.8151173386075
 10
5155.872880845792
 20
393.57610109322434
 10
5141.563020932065
 20
393.57610109322434
 10
5127.2773066463515
 20
386.67133918846235
 10
5107.301452274362
 20
386.67133918846235
 10
5104.449354674052
 20
383.22505458808826
 10
5091.498449289752
 20
381.4862756244552
 10
5072.9250714169275
 20
403.9291072207845
 10
5033.019025493795
 20
400.4848354000379
 10
5030.1585951315055
 20
397.0284820456053
  0
LWPOLYLINE
  5
38
330
17
100
AcDbEntity
  8
K
100
AcDbPolyline
 90
14
 70
1
 10
4950.06450505944
 20
635.2427677598911
 10
4942.862591891095
 20
643.9450795049748
 10
4945.731586045838
 20
661.2785858565509
 10
4948.582978666901
 20
664.7240186070018
 10
4948.582978666901
 20
675.0811614641445
 10
4952.968692952615
 20
680.3805662260494
 10
4960.211550095472
 20
671.6287805117638
 10
4960.211550095472
 20
664.7137620446499
 10
4965.925835809759
 20
654.3566191875072
 10
4965.925835809759
 20
637.1049709879542
 10
4968.812782323624
 20
633.6165772837006
 10
4964.411384234082
 20
628.2982212588378
 10
4955.790567887947
 20
635.2427677598911
 10
4950.06450505944
 20
635.2427677598911
  0
LWPOLYLINE
  5
39
330
17
100
AcDbEntity
  8
K
100
AcDbPolyline
 90
19
 70
1
 10
4697.15440723833
 20
647.3900883413517
 10
4694.297264381187
 20
650.8424692937325
 10
4694.297264381187
 20
668.1043740556374
 10
4691.410317867322
 20
671.592767759891
 10
4695.780321811884
 20
676.8731891929036
 10
4784.445812645587
 20
673.4171418351384
 10
4788.782978666902
 20
668.1763995593828
 10
4788.782978666902
 20
657.8192567022398
 10
4791.640121524044
 20
654.3668757498589
 10
4791.640121524044
 20
630.1281835794467
 10
4787.320634208426
 20
624.9088030730738
 10
4781.567984626015
 20
621.4332439503671
 10
4770.146818017284
 20
621.4332439503671
 10
4761.585399178298
 20
614.5365454411835
 10
4733.007190202935
 20
607.6301449388042
 10
4721.5628555403855
 20
600.7158594135143
 10
4705.774633865584
 20
602.4501716429431
 10
4697.15440723833
 20
612.866278817542
 10
4697.15440723833
 20
647.3900883413517
  0
LWPOLYLINE
  5
3A
330
17
100
AcDbEntity
  8
K
100
AcDbPolyline
 90
26
 70
1
 10
4654.297264381187
 20
502.39008834135166
 10
4650.111550095473
 20
507.4478264365896
 10
4641.532110881646
 20
497.0810040532158
 10
4628.594468566508
 20
516.1879850649251
 10
4622.853276309219
 20
530.06253302004
 10
4627.207362202298
 20
535.3237201408434
 10
4638.635933630869
 20
535.3237201408434
 10
4641.5096833276075
 20
538.7961676910688
 10
4650.0887105137945
 20
535.3407261855212
 10
4664.3568323394975
 20
549.1332439503672
 10
4675.797972707788
 20
549.1332439503672
 10
4687.22654413636
 20
556.0380058551291
 10
4695.790567887947
 20
556.0380058551291
 10
4704.361996459376
 20
562.942767759891
 10
4710.173544536347
 20
562.942767759891
 10
4714.515721760764
 20
554.1981052940537
 10
4711.640121524044
 20
550.723421674685
 10
4711.640121524044
 20
536.9138978651611
 10
4708.782978666902
 20
533.4615169127801
 10
4708.782978666902
 20
505.8424692937327
 10
4705.925835809759
 20
502.39008834135166
 10
4705.925835809759
 20
488.5805645318278
 10
4701.585635521918
 20
483.3361558506878
 10
4657.205858973931
 20
485.0660127322626
 10
4654.297264381187
 20
488.5805645318278
 10
4654.297264381187
 20
502.39008834135166
  0
LWPOLYLINE
  5
3B
330
17
100
AcDbEntity
  8
K
100
AcDbPolyline
 90
18
 70
1
 10
6265.725835809759
 20
378.17639955938273
 10
6271.440121524044
 20
385.08116146414466
 10
6271.440121524044
 20
395.4383043212875
 10
6290.045323125378
 20
417.91958958956513
 10
6301.512258422074
 20
424.8475296646528
 10
6315.872880845792
 20
424.8475296646528
 10
6320.203489114807
 20
419.61471133959253
 10
6325.920003678692
 20
395.4386184964938
 10
6331.640121524044
 20
385.0709049017929
 10
6331.640121524044
 20
374.7137620446501
 10
6337.374854887895
 20
364.3195578226711
 10
6324.458140774062
 20
348.7118616017888
 10
6315.886712202633
 20
345.25948064940786
 10
6310.111550095473
 20
338.2811597699231
 10
6304.338597208901
 20
345.25681117453206
 10
6272.910025780328
 20
355.6139540316749
 10
6265.725835809759
 20
364.2948502461136
 10
6265.725835809759
 20
378.17639955938273
  0
LWPOLYLINE
  5
3C
330
17
100
AcDbEntity
  8
K
100
AcDbPolyline
 90
45
 70
1
 10
6060.0115500954735
 20
436.8668757498589
 10
6062.868692952616
 20
440.3192567022399
 10
6062.868692952616
 20
467.93830432128755
 10
6065.725835809759
 20
471.3906852736684
 10
6065.725835809759
 20
485.20020908319225
 10
6068.553175010179
 20
488.6165772837005
 10
6062.870658837974
 20
495.48295099178245
 10
6060.0135159808315
 20
547.2686652774968
 10
6057.154407238329
 20
550.723421674685
 10
6057.154407238329
 20
561.1525900355732
 10
6061.493076488012
 20
566.3951487122719
 10
6233.02375017105
 20
566.3951487122719
 10
6251.640121524044
 20
536.9788952602643
 10
6251.640121524044
 20
530.0811614641445
 10
6257.347296528802
 20
523.1849916667297
 10
6260.204439385944
 20
509.37546785720576
 10
6265.925835809759
 20
502.46211384509706
 10
6265.925835809759
 20
488.63644986414175
 10
6271.655538167442
 20
474.7896691664087
 10
6267.2764828950285
 20
469.4983107122432
 10
6255.797972707789
 20
476.43324395036717
 10
6250.06450505944
 20
476.43324395036717
 10
6244.339462488349
 20
483.35100372376945
 10
6221.477221452659
 20
490.2573057033007
 10
6208.582978666902
 20
509.30019203967424
 10
6208.582978666902
 20
523.1184995689193
 10
6201.515725124029
 20
538.4897760246668
 10
6197.346346257664
 20
533.4517765611417
 10
6191.630518334108
 20
509.27858763443703
 10
6178.713844239108
 20
497.1393059618215
 10
6144.436164502645
 20
504.042449797637
 10
6141.587166560077
 20
500.5999106170338
 10
6135.872880845792
 20
500.5999106170338
 10
6130.169351988312
 20
493.7081465809124
 10
6107.312209131169
 20
486.8033846761504
 10
6100.231997745038
 20
478.24812925124246
 10
6105.925835809759
 20
467.92804775893575
 10
6105.925835809759
 20
461.03354241652556
 10
6111.633010814516
 20
454.13737261911064
 10
6114.507006848778
 20
440.24639178684896
 10
6073.016058402816
 20
403.94181189663243
 10
6065.779017430221
 20
402.19286032825545
 10
6057.142394602728
 20
416.1074193281044
 10
6060.0115500954735
 20
423.0412117689037
 10
6060.0115500954735
 20
436.8668757498589
  0
LWPOLYLINE
  5
3D
330
17
100
AcDbEntity
  8
K
100
AcDbPolyline
 90
17
 70
1
 10
6188.582978666902
 20
260.7234216746849
 10
6185.725835809759
 20
264.17580262706593
 10
6185.725835809759
 20
298.7773813879711
 10
6201.499034504509
 20
314.37133918846246
 10
6221.587166560077
 20
314.37133918846246
 10
6224.451724551228
 20
310.90999828248783
 10
6241.594581694086
 20
307.45761733010687
 10
6251.642000496766
 20
295.31698627686905
 10
6248.781956710192
 20
240.02280640311497
 10
6245.912478426505
 20
233.08823388420612
 10
6241.587166560077
 20
227.86181537893862
 10
6210.139413197443
 20
227.86181537893862
 10
6198.677951279443
 20
220.93718213681385
 10
6191.440121524044
 20
226.18460870947771
 10
6191.440121524044
 20
240.00913596039925
 10
6188.582978666902
 20
243.46151691278024
 10
6188.582978666902
 20
260.7234216746849
  0
LWPOLYLINE
  5
3E
330
17
100
AcDbEntity
  8
K
100
AcDbPolyline
 90
13
 70
1
 10
6198.635933630869
 20
473.1808629979862
 10
6210.083686993503
 20
473.1808629979862
 10
6215.847911466457
 20
476.6634152837293
 10
6220.211550095473
 20
471.3906852736684
 10
6220.211550095473
 20
464.4138978651611
 10
6217.35440723833
 20
460.96151691278016
 10
6217.35440723833
 20
443.69961215087545
 10
6214.497264381187
 20
440.24723119849443
 10
6214.497264381187
 20
419.525708092704
 10
6201.54835993679
 20
407.3561358602376
 10
6194.297264381188
 20
412.6131801380492
 10
6194.297264381188
 20
467.93830432128755
 10
6198.635933630869
 20
473.1808629979862
  0
LWPOLYLINE
  5
3F
330
17
100
AcDbEntity
  8
K
100
AcDbPolyline
 90
9
 70
1
 10
6165.72583580976
 20
436.84698453620234
 10
6171.440121524045
 20
454.10888929810716
 10
6171.440121524045
 20
464.49569702011166
 10
6181.552069876337
 20
473.2232714908396
 10
6185.925835809759
 20
467.93830432128755
 10
6185.925835809759
 20
419.53294548420877
 10
6181.547507135071
 20
414.24246500229464
 10
6165.72583580976
 20
429.88434460800136
 10
6165.72583580976
 20
436.84698453620234
  0
LWPOLYLINE
  5
40
330
17
100
AcDbEntity
  8
K
100
AcDbPolyline
 90
15
 70
1
 10
5991.440121524045
 20
326.3906852736685
 10
5991.440121524045
 20
333.2954471784303
 10
5997.15440723833
 20
340.2002090831923
 10
5997.15440723833
 20
347.1049709879542
 10
6007.207362202298
 20
359.2522915694148
 10
6013.015737988648
 20
359.2522915694148
 10
6015.872880845792
 20
355.7999106170338
 10
6044.44430941722
 20
355.7999106170338
 10
6051.629147061338
 20
347.1182317970585
 10
6057.366734558153
 20
329.78593623375804
 10
6007.284845434767
 20
269.2703202096655
 10
6002.904977040108
 20
271.03443386862574
 10
5980.000376820566
 20
302.17037479206425
 10
5985.736810272466
 20
319.499184178011
 10
5991.440121524045
 20
326.3906852736685
  0
LWPOLYLINE
  5
41
330
17
100
AcDbEntity
  8
K
100
AcDbPolyline
 90
13
 70
1
 10
5870.058498738372
 20
424.6547873026105
 10
5865.725835809759
 20
429.8900883413516
 10
5865.725835809759
 20
467.946044382167
 10
5890.057164581538
 20
490.4286692521691
 10
5898.622102274027
 20
493.8784358227551
 10
5904.350219345154
 20
500.7999106170338
 10
5910.149704937493
 20
500.7999106170338
 10
5943.099006116594
 20
471.37236445526503
 10
5923.068692952616
 20
440.25384221837186
 10
5923.068692952616
 20
433.35272585608436
 10
5917.337430859266
 20
422.96481331188625
 10
5913.009261637458
 20
417.73494216886894
 10
5870.058498738372
 20
424.6547873026105
  0
LWPOLYLINE
  5
42
330
17
100
AcDbEntity
  8
K
100
AcDbPolyline
 90
13
 70
1
 10
7691.440121524044
 20
209.02473633411373
 10
7712.936256823966
 20
224.6094344265576
 10
7715.87288084579
 20
224.6094344265576
 10
7731.621498089488
 20
205.57985525709026
 10
7740.2115500954715
 20
191.7403270252261
 10
7740.2115500954715
 20
184.84306622604936
 10
7743.087150332192
 20
181.3683826066807
 10
7738.741123246608
 20
172.6159669482154
 10
7710.059946696889
 20
176.08160911463983
 10
7707.207362202297
 20
179.52848204560527
 10
7695.7787907737265
 20
179.52848204560527
 10
7691.440121524044
 20
184.77104072230404
 10
7691.440121524044
 20
209.02473633411373
  0
LWPOLYLINE
  5
43
330
17
100
AcDbEntity
  8
K
100
AcDbPolyline
 90
9
 70
1
 10
7714.534162625528
 20
136.48229276754904
 10
7698.7050543236
 20
117.35545356938609
 10
7681.512258422074
 20
127.74276775989097
 10
7675.778790773725
 20
127.74276775989097
 10
7671.440121524045
 20
132.98532643658973
 10
7671.440121524045
 20
139.95677205153618
 10
7684.367700883548
 20
159.04889156858266
 10
7701.600892505596
 20
148.63717163026263
 10
7714.534162625528
 20
136.48229276754904
  0
LWPOLYLINE
  5
44
330
17
100
AcDbEntity
  8
K
100
AcDbPolyline
 90
21
 70
1
 10
7602.84824530305
 20
184.79574829886153
 10
7594.297264381186
 20
195.1281835794469
 10
7594.297264381186
 20
226.27163765462072
 10
7598.629520724524
 20
231.50644740282016
 10
7618.723072123684
 20
234.97497710862743
 10
7623.0638683412835
 20
229.72984834569326
 10
7625.929435285393
 20
208.9544880009096
 10
7614.517712030752
 20
188.27073960187286
 10
7618.730023702934
 20
183.18086299798625
 10
7653.015737988648
 20
183.18086299798625
 10
7657.358193114284
 20
177.93372972117479
 10
7654.493616605494
 20
150.24282346953282
 10
7650.158595131505
 20
145.00467252179578
 10
7633.015737988649
 20
145.00467252179578
 10
7630.160454705635
 20
141.55453855482187
 10
7594.352121664114
 20
139.82380245781496
 10
7591.440121524045
 20
143.34246929373256
 10
7591.440121524045
 20
150.30311653080858
 10
7597.15440723833
 20
164.1126403403323
 10
7597.15440723833
 20
174.47566680655484
 10
7602.84824530305
 20
184.79574829886153
  0
LWPOLYLINE
  5
45
330
17
100
AcDbEntity
  8
K
100
AcDbPolyline
 90
13
 70
1
 10
7554.300434093974
 20
277.9914947123374
 10
7545.71418619647
 20
295.28324395036714
 10
7550.0495556545975
 20
304.0141963313196
 10
7598.730023702935
 20
304.0141963313196
 10
7601.587166560076
 20
300.5618153789386
 10
7610.1585951315055
 20
300.5618153789386
 10
7614.5231916723
 20
295.2879278921455
 10
7597.346134635707
 20
271.07304887528346
 10
7594.487965404099
 20
260.71218541070476
 10
7581.572984087508
 20
245.10658298649008
 10
7561.480968909809
 20
252.04311203593406
 10
7557.15923184966
 20
257.2652109836126
 10
7554.300434093974
 20
277.9914947123374
  0
LWPOLYLINE
  5
46
330
17
100
AcDbEntity
  8
K
100
AcDbPolyline
 90
21
 70
1
 10
7488.582978666901
 20
195.2002090831922
 10
7492.921647916583
 20
200.44276775989096
 10
7501.493076488011
 20
200.44276775989096
 10
7504.345174088321
 20
203.88905236026517
 10
7530.153222329765
 20
207.35402180008862
 10
7543.068692952616
 20
191.7478281308112
 10
7543.068692952616
 20
174.4859233689065
 10
7547.3014522743615
 20
169.37133918846243
 10
7567.2822703403
 20
169.37133918846243
 10
7573.03491992271
 20
165.89578006575562
 10
7580.2115500954715
 20
157.22401860700168
 10
7580.2115500954715
 20
150.30900013988818
 10
7585.946283459323
 20
139.91479591790906
 10
7581.582342486522
 20
134.64170057577357
 10
7524.356835021364
 20
141.55644939448015
 10
7515.790567887947
 20
148.45705347417675
 10
7501.567984626015
 20
148.45705347417675
 10
7490.089474438774
 20
141.52212023605276
 10
7485.710419166361
 20
146.81347869021826
 10
7488.582978666901
 20
153.75549748318946
 10
7488.582978666901
 20
195.2002090831922
  0
LWPOLYLINE
  5
47
330
17
100
AcDbEntity
  8
K
100
AcDbPolyline
 90
13
 70
1
 10
7442.868692952615
 20
240.00913596039925
 10
7442.868692952615
 20
253.81865976992307
 10
7439.989702133353
 20
257.29744034319884
 10
7447.213971686257
 20
269.5184963368598
 10
7470.141168858085
 20
259.12961011837484
 10
7490.165008037849
 20
255.67311406948684
 10
7494.50959170101
 20
250.42340880983343
 10
7483.057718489908
 20
215.82920848462834
 10
7475.864735931216
 20
207.13768789287516
 10
7458.637508032709
 20
210.60706017799131
 10
7448.59023287966
 20
219.27881551842083
 10
7445.731586045838
 20
236.54980680608833
 10
7442.868692952615
 20
240.00913596039925
  0
LWPOLYLINE
  5
48
330
17
100
AcDbEntity
  8
K
100
AcDbPolyline
 90
16
 70
1
 10
7328.587986573842
 20
181.38911383517492
 10
7344.349340166337
 20
210.82224762722228
 10
7364.448058662413
 20
203.88340433691081
 10
7374.497264381187
 20
195.20998273439744
 10
7374.497264381187
 20
164.07289517944963
 10
7371.65553816744
 20
157.2053901628971
 10
7374.497264381187
 20
153.77163765462072
 10
7374.497264381187
 20
129.53294548420874
 10
7370.111550095473
 20
124.23354072230414
 10
7365.725835809759
 20
129.53294548420874
 10
7365.725835809759
 20
153.77163765462072
 10
7368.553175010179
 20
157.1880058551291
 10
7364.350219345153
 20
162.2665772837006
 10
7330.064505059439
 20
162.2665772837006
 10
7325.718180772787
 20
167.51838579674023
 10
7328.587986573842
 20
181.38911383517492
  0
LWPOLYLINE
  5
49
330
17
100
AcDbEntity
  8
K
100
AcDbPolyline
 90
40
 70
1
 10
7271.436621440417
 20
260.71666892899134
 10
7274.299933868461
 20
298.7748632850769
 10
7277.154407238329
 20
302.2240186070018
 10
7277.154407238329
 20
312.50913596039925
 10
7272.939793462973
 20
317.60179427228746
 10
7241.5611222869775
 20
303.81419633131964
 10
7230.139413197442
 20
303.81419633131964
 10
7218.677951279442
 20
296.8895630891947
 10
7211.417557458141
 20
302.15334860963844
 10
7220.022839427634
 20
322.9494467025785
 10
7231.440121524044
 20
340.1942998690318
 10
7231.440121524044
 20
347.03294548420877
 10
7227.193530845455
 20
352.16424255416985
 10
7218.6221022740265
 20
355.6166235065507
 10
7205.725835809759
 20
371.19961215087545
 10
7205.725835809759
 20
402.34306622604936
 10
7208.582978666901
 20
405.7954471784304
 10
7208.582978666901
 20
419.6049709879542
 10
7212.9216479165825
 20
424.8475296646528
 10
7324.444309417219
 20
424.8475296646528
 10
7328.777228430821
 20
419.61191918988413
 10
7331.646222585564
 20
402.27841283830816
 10
7327.301452274362
 20
397.0284820456053
 10
7267.3014522743615
 20
397.0284820456053
 10
7263.071435656007
 20
391.91721196509314
 10
7265.923166322484
 20
354.01295852317213
 10
7273.005911836069
 20
345.45464102759166
 10
7315.787338559439
 20
355.79348581907306
 10
7327.22654413636
 20
362.70467252179577
 10
7333.015737988648
 20
362.70467252179577
 10
7337.354407238329
 20
357.462113845097
 10
7337.354407238329
 20
343.60045574548434
 10
7331.640121524044
 20
326.33855098357964
 10
7331.640121524044
 20
305.6205142270688
 10
7328.794991302502
 20
298.7447828583442
 10
7337.354407238329
 20
284.9546127395119
 10
7337.354407238329
 20
267.6281835794469
 10
7321.583743059732
 20
248.57196436364165
 10
7281.499281237341
 20
252.03163517569334
 10
7271.436621440417
 20
260.71666892899134
  0
LWPOLYLINE
  5
4A
330
17
100
AcDbEntity
  8
K
100
AcDbPolyline
 90
19
 70
1
 10
7088.582978666901
 20
291.80187835475584
 10
7088.582978666901
 20
302.1519931032564
 10
7085.725835809759
 20
305.6043740556374
 10
7085.725835809759
 20
333.2954471784303
 10
7088.5887289029815
 20
336.75477633274124
 10
7091.445174385101
 20
354.012467787216
 10
7107.226112205227
 20
376.5481252045926
 10
7118.7108417688705
 20
369.60943442655764
 10
7127.2822703403
 20
369.60943442655764
 10
7138.710841768871
 20
362.70467252179577
 10
7144.444309417219
 20
362.70467252179577
 10
7148.817841816062
 20
357.41998753986064
 10
7131.624979372668
 20
340.107730218388
 10
7128.782978666901
 20
333.23956184611643
 10
7128.782978666901
 20
305.6688984537977
 10
7137.3802085178395
 20
291.8178059161735
 10
7115.89365114887
 20
269.3166055603356
 10
7107.2298494179
 20
262.3374319437211
 10
7088.582978666901
 20
291.80187835475584
  0
LWPOLYLINE
  5
4B
330
17
100
AcDbEntity
  8
K
100
AcDbPolyline
 90
21
 70
1
 10
8821.49307648801
 20
83.06181537893856
 10
8835.778790773726
 20
83.06181537893856
 10
8838.635933630869
 20
86.51419633131954
 10
8867.301452274362
 20
86.51419633131954
 10
8873.015737988648
 20
79.60943442655763
 10
8878.718246588713
 20
79.60943442655763
 10
8887.28967516014
 20
72.70467252179571
 10
8892.996556054586
 20
72.70467252179571
 10
8904.474777840902
 20
65.76991352589626
 10
8915.889163452974
 20
41.63324395036719
 10
8947.301452274362
 20
41.63324395036719
 10
8951.640121524044
 20
36.390685273668375
 10
8951.640121524044
 20
29.430038036592528
 10
8945.912478426506
 20
15.588233884206021
 10
8938.746120788273
 20
6.928885071344482
 10
8924.410496502735
 20
0.0
 10
8907.201695435597
 20
3.4656613260211078
 10
8861.49500837673
 20
55.24276775989098
 10
8847.221144504001
 20
55.24276775989098
 10
8817.110400668567
 20
77.76608209711003
 10
8821.49307648801
 20
83.06181537893856
  0
LWPOLYLINE
  5
4C
330
17
100
AcDbEntity
  8
K
100
AcDbPolyline
 90
11
 70
1
 10
8898.64031038009
 20
117.59091347472311
 10
8930.162752039647
 20
114.12822101969597
 10
8933.015737988648
 20
110.68086299798621
 10
8941.587166560075
 20
110.68086299798621
 10
8945.95906088602
 20
105.39815735413741
 10
8921.535430215039
 20
79.35825700639973
 10
8915.762693688386
 20
86.33364697610638
 10
8901.47697940267
 20
93.23840888086823
 10
8894.297264381186
 20
101.91389786516118
 10
8894.297264381186
 20
112.34306622604936
 10
8898.64031038009
 20
117.59091347472311
  0
LWPOLYLINE
  5
4D
330
17
100
AcDbEntity
  8
K
100
AcDbPolyline
 90
10
 70
1
 10
8847.207362202298
 20
141.75229156941478
 10
8853.015737988648
 20
141.75229156941478
 10
8855.87288084579
 20
138.2999106170339
 10
8870.158595131505
 20
138.2999106170339
 10
8877.35440723833
 20
129.60497098795403
 10
8877.35440723833
 20
122.62818357944688
 10
8873.011361239427
 20
117.3803363307731
 10
8841.474866401271
 20
120.8445725061768
 10
8837.135949858754
 20
129.58266832096638
 10
8847.207362202298
 20
141.75229156941478
  0
LWPOLYLINE
  5
4E
330
17
100
AcDbEntity
  8
K
100
AcDbPolyline
 90
9
 70
1
 10
8778.631776722728
 20
127.93774482921977
 10
8810.078712071869
 20
131.39214303045128
 10
8815.847911466455
 20
134.87770099801494
 10
8823.103114162233
 20
126.11099774061756
 10
8804.436687322896
 20
107.02577286321748
 10
8777.204925067843
 20
108.75761739259596
 10
8774.297264381186
 20
112.27104072230406
 10
8774.297264381186
 20
122.70020908319218
 10
8778.631776722728
 20
127.93774482921977
  0
LWPOLYLINE
  5
4F
330
17
100
AcDbEntity
  8
K
100
AcDbPolyline
 90
9
 70
1
 10
8674.347500870661
 20
260.66271924990355
 10
8671.410317867321
 20
264.21181537893864
 10
8674.297264381186
 20
267.7002090831923
 10
8674.297264381186
 20
274.6147446391593
 10
8684.373548868609
 20
283.3115377979462
 10
8695.872279125644
 20
279.83796303280036
 10
8711.711335117176
 20
267.6586889180996
 10
8698.710175410662
 20
258.93105855956026
 10
8674.347500870661
 20
260.66271924990355
  0
LWPOLYLINE
  5
50
330
17
100
AcDbEntity
  8
K
100
AcDbPolyline
 90
14
 70
1
 10
8647.301452274363
 20
138.2999106170339
 10
8673.023250389302
 20
138.2999106170339
 10
8683.068692952615
 20
122.69359806331487
 10
8683.068692952615
 20
95.08116146414456
 10
8685.925835809758
 20
91.62878051176362
 10
8685.925835809758
 20
77.7472311984945
 10
8681.59927413828
 20
72.51930251212448
 10
8661.58925831932
 20
65.61108276510284
 10
8652.999832733427
 20
58.69182326535541
 10
8634.346685378918
 20
60.42560939766559
 10
8628.582978666902
 20
67.39008834135166
 10
8628.582978666902
 20
129.61820976000476
 10
8644.412791132487
 20
141.7903761634665
 10
8647.301452274363
 20
138.2999106170339
  0
LWPOLYLINE
  5
51
330
17
100
AcDbEntity
  8
K
100
AcDbPolyline
 90
10
 70
1
 10
8597.15440723833
 20
198.58056453182778
 10
8597.15440723833
 20
205.55735194033502
 10
8607.188180268235
 20
217.68149435146995
 10
8624.331037411092
 20
228.03863720861278
 10
8630.064505059441
 20
234.96657728370047
 10
8638.716980648753
 20
234.96657728370047
 10
8654.53606957361
 20
222.80265663314574
 10
8630.157301405883
 20
189.8793692301602
 10
8601.488518125461
 20
193.34351387654465
 10
8597.15440723833
 20
198.58056453182778
  0
LWPOLYLINE
  5
52
330
17
100
AcDbEntity
  8
K
100
AcDbPolyline
 90
37
 70
1
 10
8504.329478328214
 20
124.31544886964558
 10
8482.844374317367
 20
150.27661621608783
 10
8494.279322975544
 20
167.54815325187704
 10
8487.197355215703
 20
179.52848204560527
 10
8470.08865068745
 20
179.52848204560527
 10
8455.802936401737
 20
186.43324395036726
 10
8438.66007925888
 20
186.43324395036726
 10
8424.374364973164
 20
193.33800585512913
 10
8415.778790773726
 20
193.33800585512913
 10
8411.403223279704
 20
198.6251499104061
 10
8424.38405329824
 20
210.82472627042043
 10
8441.567984626014
 20
200.44276775989096
 10
8450.064505059441
 20
200.44276775989096
 10
8454.297264381188
 20
205.55735194033502
 10
8454.297264381188
 20
215.84246929373256
 10
8451.410317867321
 20
219.33086299798626
 10
8455.778790773726
 20
224.6094344265576
 10
8464.444309417218
 20
224.6094344265576
 10
8467.301452274363
 20
221.15705347417673
 10
8487.316401679203
 20
221.15705347417673
 10
8500.19596864361
 20
195.21903667085923
 10
8507.301452274362
 20
186.63324395036724
 10
8541.587166560075
 20
186.63324395036724
 10
8548.7829786669
 20
177.93830432128738
 10
8548.7829786669
 20
170.9776570842116
 10
8534.510634638586
 20
136.48615901578393
 10
8550.163604339568
 20
114.13324395036715
 10
8552.921647916584
 20
114.13324395036715
 10
8590.111550095473
 20
159.07104241652553
 10
8600.220317842535
 20
146.85628138882572
 10
8594.492734335578
 20
122.63337614065856
 10
8588.769621283647
 20
108.80251959849177
 10
8581.585406503968
 20
100.12159340637803
 10
8542.934270008598
 20
101.85135105817697
 10
8535.79339968111
 20
107.02848204560524
 10
8530.081097872993
 20
107.02848204560524
 10
8504.329478328214
 20
124.31544886964558
  0
ENDSEC
  0
SECTION
  2
OBJECTS
  0
DICTIONARY
  5
A
330
0
100
AcDbDictionary
281
1
  3
ACAD_COLOR
350
B
  3
ACAD_GROUP
350
C
  3
ACAD_LAYOUT
350
D
  3
ACAD_MATERIAL
350
E
  3
ACAD_MLEADERSTYLE
350
F
  3
ACAD_MLINESTYLE
350
10
  3
ACAD_PLOTSETTINGS
350
11
  3
ACAD_PLOTSTYLENAME
350
12
  3
ACAD_SCALELIST
350
14
  3
ACAD_TABLESTYLE
350
15
  3
ACAD_VISUALSTYLE
350
16
  3
EZDXF_META
350
2D
  0
DICTIONARY
  5
B
330
A
100
AcDbDictionary
281
1
  0
DICTIONARY
  5
C
330
A
100
AcDbDictionary
281
1
  0
DICTIONARY
  5
D
330
A
100
AcDbDictionary
281
1
  3
Model
350
1A
  3
Layout1
350
1E
  0
DICTIONARY
  5
E
330
A
100
AcDbDictionary
281
1
  3
ByBlock
350
1F
  3
ByLayer
350
20
  3
Global
350
21
  0
DICTIONARY
  5
F
330
A
100
AcDbDictionary
281
1
  3
Standard
350
2C
  0
DICTIONARY
  5
10
330
A
100
AcDbDictionary
281
1
  3
Standard
350
22
  0
DICTIONARY
  5
11
330
A
100
AcDbDictionary
281
1
  0
ACDBDICTIONARYWDFLT
  5
12
330
A
100
AcDbDictionary
281
1
  3
Normal
350
13
100
AcDbDictionaryWithDefault
340
13
  0
ACDBPLACEHOLDER
  5
13
330
12
  0
DICTIONARY
  5
14
330
A
100
AcDbDictionary
281
1
  0
DICTIONARY
  5
15
330
A
100
AcDbDictionary
281
1
  0
DICTIONARY
  5
16
330
A
100
AcDbDictionary
281
1
  0
LAYOUT
  5
1A
330
D
100
AcDbPlotSettings
  1

  4
A3
  6

 40
7.5
 41
20.0
 42
7.5
 43
20.0
 44
420.0
 45
297.0
 46
0.0
 47
0.0
 48
0.0
 49
0.0
140
0.0
141
0.0
142
1.0
143
1.0
 70
1024
 72
1
 73
0
 74
5
  7

 75
16
 76
0
 77
2
 78
300
147
1.0
148
0.0
149
0.0
100
AcDbLayout
  1
Model
 70
1
 71
0
 10
0.0
 20
0.0
 11
420.0
 21
297.0
 12
0.0
 22
0.0
 32
0.0
 14
1e+20
 24
1e+20
 34
1e+20
 15
-1e+20
 25
-1e+20
 35
-1e+20
146
0.0
 13
0.0
 23
0.0
 33
0.0
 16
1.0
 26
0.0
 36
0.0
 17
0.0
 27
1.0
 37
0.0
 76
1
330
17
  0
LAYOUT
  5
1E
330
D
100
AcDbPlotSettings
  1

  4
A3
  6

 40
7.5
 41
20.0
 42
7.5
 43
20.0
 44
420.0
 45
297.0
 46
0.0
 47
0.0
 48
0.0
 49
0.0
140
0.0
141
0.0
142
1.0
143
1.0
 70
0
 72
1
 73
0
 74
5
  7

 75
16
 76
0
 77
2
 78
300
147
1.0
148
0.0
149
0.0
100
AcDbLayout
  1
Layout1
 70
1
 71
1
 10
0.0
 20
0.0
 11
420.0
 21
297.0
 12
0.0
 22
0.0
 32
0.0
 14
1e+20
 24
1e+20
 34
1e+20
 15
-1e+20
 25
-1e+20
 35
-1e+20
146
0.0
 13
0.0
 23
0.0
 33
0.0
 16
1.0
 26
0.0
 36
0.0
 17
0.0
 27
1.0
 37
0.0
 76
1
330
1B
  0
MATERIAL
  5
1F
102
{ACAD_REACTORS
330
E
102
}
330
E
100
AcDbMaterial
  1
ByBlock
  2

 70
0
 40
1.0
 71
1
 41
1.0
 91
-1023410177
 42
1.0
 72
1
  3

 73
1
 74
1
 75
1
 44
0.5
 73
0
 45
1.0
 46
1.0
 77
1
  4

 78
1
 79
1
170
1
 48
1.0
171
1
  6

172
1
173
1
174
1
140
1.0
141
1.0
175
1
  7

176
1
177
1
178
1
143
1.0
179
1
  8

270
1
271
1
272
1
145
1.0
146
1.0
273
1
  9

274
1
275
1
276
1
 42
1.0
 72
1
  3

 73
1
 74
1
 75
1
 94
63
  0
MATERIAL
  5
20
102
{ACAD_REACTORS
330
E
102
}
330
E
100
AcDbMaterial
  1
ByLayer
  2

 70
0
 40
1.0
 71
1
 41
1.0
 91
-1023410177
 42
1.0
 72
1
  3

 73
1
 74
1
 75
1
 44
0.5
 73
0
 45
1.0
 46
1.0
 77
1
  4

 78
1
 79
1
170
1
 48
1.0
171
1
  6

172
1
173
1
174
1
140
1.0
141
1.0
175
1
  7

176
1
177
1
178
1
143
1.0
179
1
  8

270
1
271
1
272
1
145
1.0
146
1.0
273
1
  9

274
1
275
1
276
1
 42
1.0
 72
1
  3

 73
1
 74
1
 75
1
 94
63
  0
MATERIAL
  5
21
102
{ACAD_REACTORS
330
E
102
}
330
E
100
AcDbMaterial
  1
Global
  2

 70
0
 40
1.0
 71
1
 41
1.0
 91
-1023410177
 42
1.0
 72
1
  3

 73
1
 74
1
 75
1
 44
0.5
 73
0
 45
1.0
 46
1.0
 77
1
  4

 78
1
 79
1
170
1
 48
1.0
171
1
  6

172
1
173
1
174
1
140
1.0
141
1.0
175
1
  7

176
1
177
1
178
1
143
1.0
179
1
  8

270
1
271
1
272
1
145
1.0
146
1.0
273
1
  9

274
1
275
1
276
1
 42
1.0
 72
1
  3

 73
1
 74
1
 75
1
 94
63
  0
MLINESTYLE
  5
22
102
{ACAD_REACTORS
330
10
102
}
330
10
100
AcDbMlineStyle
  2
Standard
 70
0
  3

 62
256
 51
90.0
 52
90.0
 71
2
 49
0.5
 62
256
  6
BYLAYER
 49
-0.5
 62
256
  6
BYLAYER
  0
MLEADERSTYLE
  5
2C
102
{ACAD_REACTORS
330
F
102
}
330
F
100
AcDbMLeaderStyle
179
2
170
2
171
1
172
0
 90
2
 40
0.0
 41
0.0
173
1
 91
-1056964608
 92
-2
290
1
 42
2.0
291
1
 43
8.0
  3
Standard
 44
4.0
300

342
29
174
1
175
1
176
0
178
1
 93
-1056964608
 45
4.0
292
0
297
0
 46
4.0
 94
-1056964608
 47
1.0
 49
1.0
140
1.0
294
1
141
0.0
177
0
142
1.0
295
0
296
0
143
3.75
271
0
272
9
273
9
  0
DICTIONARY
  5
2D
330
A
100
AcDbDictionary
280
1
281
1
  3
CREATED_BY_EZDXF
350
2E
  3
WRITTEN_BY_EZDXF
350
55
  0
DICTIONARYVAR
  5
2E
330
2D
100
DictionaryVariables
280
0
  1
1.4.4 @ 2026-07-08T15:53:09.034761+00:00
  0
DICTIONARYVAR
  5
55
330
2D
100
DictionaryVariables
280
0
  1
1.4.4 @ 2026-07-08T15:53:09.041766+00:00
  0
ENDSEC
  0
EOF
