  0
SECTION
  2
HEADER
  9
$ACADVER
  1
AC1027
  9
$ACADMAINTVER
 70
105
  9
$DWGCODEPAGE
  3
ANSI_1252
  9
$LASTSAVEDBY
  1
ezdxf
  9
$REQUIREDVERSIONS
160
0
  9
$INSBASE
 10
0.0
 20
0.0
 30
0.0
  9
$EXTMIN
 10
1e+20
 20
1e+20
 30
1e+20
  9
$EXTMAX
 10
-1e+20
 20
-1e+20
 30
-1e+20
  9
$LIMMIN
 10
0.0
 20
0.0
  9
$LIMMAX
 10
420.0
 20
297.0
  9
$ORTHOMODE
 70
0
  9
$REGENMODE
 70
1
  9
$FILLMODE
 70
1
  9
$QTEXTMODE
 70
0
  9
$MIRRTEXT
 70
1
  9
$LTSCALE
 40
1.0
  9
$ATTMODE
 70
1
  9
$TEXTSIZE
 40
2.5
  9
$TRACEWID
 40
1.0
  9
$TEXTSTYLE
  7
Standard
  9
$CLAYER
  8
0
  9
$CELTYPE
  6
ByLayer
  9
$CECOLOR
 62
256
  9
$CELTSCALE
 40
1.0
  9
$DISPSILH
 70
0
  9
$DIMSCALE
 40
1.0
  9
$DIMASZ
 40
2.5
  9
$DIMEXO
 40
0.625
  9
$DIMDLI
 40
3.75
  9
$DIMRND
 40
0.0
  9
$DIMDLE
 40
0.0
  9
$DIMEXE
 40
1.25
  9
$DIMTP
 40
0.0
  9
$DIMTM
 40
0.0
  9
$DIMTXT
 40
2.5
  9
$DIMCEN
 40
2.5
  9
$DIMTSZ
 40
0.0
  9
$DIMTOL
 70
0
  9
$DIMLIM
 70
0
  9
$DIMTIH
 70
0
  9
$DIMTOH
 70
0
  9
$DIMSE1
 70
0
  9
$DIMSE2
 70
0
  9
$DIMTAD
 70
1
  9
$DIMZIN
 70
8
  9
$DIMBLK
  1

  9
$DIMASO
 70
1
  9
$DIMSHO
 70
1
  9
$DIMPOST
  1

  9
$DIMAPOST
  1

  9
$DIMALT
 70
0
  9
$DIMALTD
 70
3
  9
$DIMALTF
 40
0.03937007874
  9
$DIMLFAC
 40
1.0
  9
$DIMTOFL
 70
1
  9
$DIMTVP
 40
0.0
  9
$DIMTIX
 70
0
  9
$DIMSOXD
 70
0
  9
$DIMSAH
 70
0
  9
$DIMBLK1
  1

  9
$DIMBLK2
  1

  9
$DIMSTYLE
  2
ISO-25
  9
$DIMCLRD
 70
0
  9
$DIMCLRE
 70
0
  9
$DIMCLRT
 70
0
  9
$DIMTFAC
 40
1.0
  9
$DIMGAP
 40
0.625
  9
$DIMJUST
 70
0
  9
$DIMSD1
 70
0
  9
$DIMSD2
 70
0
  9
$DIMTOLJ
 70
0
  9
$DIMTZIN
 70
8
  9
$DIMALTZ
 70
0
  9
$DIMALTTZ
 70
0
  9
$DIMUPT
 70
0
  9
$DIMDEC
 70
2
  9
$DIMTDEC
 70
2
  9
$DIMALTU
 70
2
  9
$DIMALTTD
 70
3
  9
$DIMTXSTY
  7
Standard
  9
$DIMAUNIT
 70
0
  9
$DIMADEC
 70
0
  9
$DIMALTRND
 40
0.0
  9
$DIMAZIN
 70
0
  9
$DIMDSEP
 70
44
  9
$DIMATFIT
 70
3
  9
$DIMFRAC
 70
0
  9
$DIMLDRBLK
  1

  9
$DIMLUNIT
 70
2
  9
$DIMLWD
 70
-2
  9
$DIMLWE
 70
-2
  9
$DIMTMOVE
 70
0
  9
$DIMFXL
 40
1.0
  9
$DIMFXLON
 70
0
  9
$DIMJOGANG
 40
0.785398163397
  9
$DIMTFILL
 70
0
  9
$DIMTFILLCLR
 70
0
  9
$DIMARCSYM
 70
0
  9
$DIMLTYPE
  6

  9
$DIMLTEX1
  6

  9
$DIMLTEX2
  6

  9
$DIMTXTDIRECTION
 70
0
  9
$LUNITS
 70
2
  9
$LUPREC
 70
4
  9
$SKETCHINC
 40
1.0
  9
$FILLETRAD
 40
10.0
  9
$AUNITS
 70
0
  9
$AUPREC
 70
2
  9
$MENU
  1
.
  9
$ELEVATION
 40
0.0
  9
$PELEVATION
 40
0.0
  9
$THICKNESS
 40
0.0
  9
$LIMCHECK
 70
0
  9
$CHAMFERA
 40
0.0
  9
$CHAMFERB
 40
0.0
  9
$CHAMFERC
 40
0.0
  9
$CHAMFERD
 40
0.0
  9
$SKPOLY
 70
0
  9
$TDCREATE
 40
2461239.5889930557
  9
$TDUCREATE
 40
2458532.153996898
  9
$TDUPDATE
 40
2461239.5889930557
  9
$TDUUPDATE
 40
2458532.1544311
  9
$TDINDWG
 40
0.0
  9
$TDUSRTIMER
 40
0.0
  9
$USRTIMER
 70
1
  9
$ANGBASE
 50
0.0
  9
$ANGDIR
 70
0
  9
$PDMODE
 70
0
  9
$PDSIZE
 40
0.0
  9
$PLINEWID
 40
0.0
  9
$SPLFRAME
 70
0
  9
$SPLINETYPE
 70
6
  9
$SPLINESEGS
 70
8
  9
$HANDSEED
  5
55
  9
$SURFTAB1
 70
6
  9
$SURFTAB2
 70
6
  9
$SURFTYPE
 70
6
  9
$SURFU
 70
6
  9
$SURFV
 70
6
  9
$UCSBASE
  2

  9
$UCSNAME
  2

  9
$UCSORG
 10
0.0
 20
0.0
 30
0.0
  9
$UCSXDIR
 10
1.0
 20
0.0
 30
0.0
  9
$UCSYDIR
 10
0.0
 20
1.0
 30
0.0
  9
$UCSORTHOREF
  2

  9
$UCSORTHOVIEW
 70
0
  9
$UCSORGTOP
 10
0.0
 20
0.0
 30
0.0
  9
$UCSORGBOTTOM
 10
0.0
 20
0.0
 30
0.0
  9
$UCSORGLEFT
 10
0.0
 20
0.0
 30
0.0
  9
$UCSORGRIGHT
 10
0.0
 20
0.0
 30
0.0
  9
$UCSORGFRONT
 10
0.0
 20
0.0
 30
0.0
  9
$UCSORGBACK
 10
0.0
 20
0.0
 30
0.0
  9
$PUCSBASE
  2

  9
$PUCSNAME
  2

  9
$PUCSORG
 10
0.0
 20
0.0
 30
0.0
  9
$PUCSXDIR
 10
1.0
 20
0.0
 30
0.0
  9
$PUCSYDIR
 10
0.0
 20
1.0
 30
0.0
  9
$PUCSORTHOREF
  2

  9
$PUCSORTHOVIEW
 70
0
  9
$PUCSORGTOP
 10
0.0
 20
0.0
 30
0.0
  9
$PUCSORGBOTTOM
 10
0.0
 20
0.0
 30
0.0
  9
$PUCSORGLEFT
 10
0.0
 20
0.0
 30
0.0
  9
$PUCSORGRIGHT
 10
0.0
 20
0.0
 30
0.0
  9
$PUCSORGFRONT
 10
0.0
 20
0.0
 30
0.0
  9
$PUCSORGBACK
 10
0.0
 20
0.0
 30
0.0
  9
$USERI1
 70
0
  9
$USERI2
 70
0
  9
$USERI3
 70
0
  9
$USERI4
 70
0
  9
$USERI5
 70
0
  9
$USERR1
 40
0.0
  9
$USERR2
 40
0.0
  9
$USERR3
 40
0.0
  9
$USERR4
 40
0.0
  9
$USERR5
 40
0.0
  9
$WORLDVIEW
 70
1
  9
$SHADEDGE
 70
3
  9
$SHADEDIF
 70
70
  9
$TILEMODE
 70
1
  9
$MAXACTVP
 70
64
  9
$PINSBASE
 10
0.0
 20
0.0
 30
0.0
  9
$PLIMCHECK
 70
0
  9
$PEXTMIN
 10
1e+20
 20
1e+20
 30
1e+20
  9
$PEXTMAX
 10
-1e+20
 20
-1e+20
 30
-1e+20
  9
$PLIMMIN
 10
0.0
 20
0.0
  9
$PLIMMAX
 10
420.0
 20
297.0
  9
$UNITMODE
 70
0
  9
$VISRETAIN
 70
1
  9
$PLINEGEN
 70
0
  9
$PSLTSCALE
 70
1
  9
$TREEDEPTH
 70
3020
  9
$CMLSTYLE
  2
Standard
  9
$CMLJUST
 70
0
  9
$CMLSCALE
 40
20.0
  9
$PROXYGRAPHICS
 70
1
  9
$MEASUREMENT
 70
1
  9
$CELWEIGHT
370
-1
  9
$ENDCAPS
280
0
  9
$JOINSTYLE
280
0
  9
$LWDISPLAY
290
0
  9
$INSUNITS
 70
4
  9
$HYPERLINKBASE
  1

  9
$STYLESHEET
  1

  9
$XEDIT
290
1
  9
$CEPSNTYPE
380
0
  9
$PSTYLEMODE
290
1
  9
$FINGERPRINTGUID
  2
{5A7AAFB0-20CB-467E-9973-A3A1C389DBE5}
  9
$VERSIONGUID
  2
{6B483B18-839D-4143-BB8D-3EB80E741B81}
  9
$EXTNAMES
290
1
  9
$PSVPSCALE
 40
0.0
  9
$OLESTARTUP
290
0
  9
$SORTENTS
280
127
  9
$INDEXCTL
280
0
  9
$HIDETEXT
280
1
  9
$XCLIPFRAME
280
1
  9
$HALOGAP
280
0
  9
$OBSCOLOR
 70
257
  9
$OBSLTYPE
280
0
  9
$INTERSECTIONDISPLAY
280
0
  9
$INTERSECTIONCOLOR
 70
257
  9
$DIMASSOC
280
2
  9
$PROJECTNAME
  1

  9
$CAMERADISPLAY
290
0
  9
$LENSLENGTH
 40
50.0
  9
$CAMERAHEIGHT
 40
0.0
  9
$STEPSPERSEC
 40
24.0
  9
$STEPSIZE
 40
100.0
  9
$3DDWFPREC
 40
2.0
  9
$PSOLWIDTH
 40
0.005
  9
$PSOLHEIGHT
 40
0.08
  9
$LOFTANG1
 40
1.570796326795
  9
$LOFTANG2
 40
1.570796326795
  9
$LOFTMAG1
 40
0.0
  9
$LOFTMAG2
 40
0.0
  9
$LOFTPARAM
 70
7
  9
$LOFTNORMALS
280
1
  9
$LATITUDE
 40
37.795
  9
$LONGITUDE
 40
-122.394
  9
$NORTHDIRECTION
 40
0.0
  9
$TIMEZONE
 70
-8000
  9
$LIGHTGLYPHDISPLAY
280
1
  9
$TILEMODELIGHTSYNCH
280
1
  9
$CMATERIAL
347
20
  9
$SOLIDHIST
280
0
  9
$SHOWHIST
280
1
  9
$DWFFRAME
280
2
  9
$DGNFRAME
280
2
  9
$REALWORLDSCALE
290
1
  9
$INTERFERECOLOR
 62
256
  9
$CSHADOW
280
0
  9
$SHADOWPLANELOCATION
 40
0.0
  0
ENDSEC
  0
SECTION
  2
CLASSES
  0
CLASS
  1
ACDBDICTIONARYWDFLT
  2
AcDbDictionaryWithDefault
  3
ObjectDBX Classes
 90
0
 91
0
280
0
281
0
  0
CLASS
  1
SUN
  2
AcDbSun
  3
SCENEOE
 90
1153
 91
0
280
0
281
0
  0
CLASS
  1
VISUALSTYLE
  2
AcDbVisualStyle
  3
ObjectDBX Classes
 90
4095
 91
0
280
0
281
0
  0
CLASS
  1
MATERIAL
  2
AcDbMaterial
  3
ObjectDBX Classes
 90
1153
 91
0
280
0
281
0
  0
CLASS
  1
SCALE
  2
AcDbScale
  3
ObjectDBX Classes
 90
1153
 91
0
280
0
281
0
  0
CLASS
  1
TABLESTYLE
  2
AcDbTableStyle
  3
ObjectDBX Classes
 90
4095
 91
0
280
0
281
0
  0
CLASS
  1
MLEADERSTYLE
  2
AcDbMLeaderStyle
  3
ACDB_MLEADERSTYLE_CLASS
 90
4095
 91
0
280
0
281
0
  0
CLASS
  1
DICTIONARYVAR
  2
AcDbDictionaryVar
  3
ObjectDBX Classes
 90
0
 91
0
280
0
281
0
  0
CLASS
  1
CELLSTYLEMAP
  2
AcDbCellStyleMap
  3
ObjectDBX Classes
 90
1152
 91
0
280
0
281
0
  0
CLASS
  1
MENTALRAYRENDERSETTINGS
  2
AcDbMentalRayRenderSettings
  3
SCENEOE
 90
1024
 91
0
280
0
281
0
  0
CLASS
  1
ACDBDETAILVIEWSTYLE
  2
AcDbDetailViewStyle
  3
ObjectDBX Classes
 90
1025
 91
0
280
0
281
0
  0
CLASS
  1
ACDBSECTIONVIEWSTYLE
  2
AcDbSectionViewStyle
  3
ObjectDBX Classes
 90
1025
 91
0
280
0
281
0
  0
CLASS
  1
RASTERVARIABLES
  2
AcDbRasterVariables
  3
ISM
 90
0
 91
0
280
0
281
0
  0
CLASS
  1
LAYOUT
  2
AcDbLayout
  3
ObjectDBX Classes
 90
0
 91
0
280
0
281
0
  0
CLASS
  1
ACDBPLACEHOLDER
  2
AcDbPlaceHolder
  3
ObjectDBX Classes
 90
0
 91
0
280
0
281
0
  0
ENDSEC
  0
SECTION
  2
TABLES
  0
TABLE
  2
VPORT
  5
8
330
0
100
AcDbSymbolTable
 70
1
  0
VPORT
  5
23
330
8
100
AcDbSymbolTableRecord
100
AcDbViewportTableRecord
  2
*Active
 70
0
 10
0.0
 20
0.0
 11
1.0
 21
1.0
 12
0.0
 22
0.0
 13
0.0
 23
0.0
 14
0.5
 24
0.5
 15
0.5
 25
0.5
 16
0.0
 26
0.0
 36
1.0
 17
0.0
 27
0.0
 37
0.0
 40
1000.0
 41
1.34
 42
50.0
 43
0.0
 44
0.0
 50
0.0
 51
0.0
 71
0
 72
1000
 73
1
 74
3
 75
0
 76
0
 77
0
 78
0
281
0
 65
0
146
0.0
  0
ENDTAB
  0
TABLE
  2
LTYPE
  5
2
330
0
100
AcDbSymbolTable
 70
3
  0
LTYPE
  5
24
330
2
100
AcDbSymbolTableRecord
100
AcDbLinetypeTableRecord
  2
ByBlock
 70
0
  3

 72
65
 73
0
 40
0.0
  0
LTYPE
  5
25
330
2
100
AcDbSymbolTableRecord
100
AcDbLinetypeTableRecord
  2
ByLayer
 70
0
  3

 72
65
 73
0
 40
0.0
  0
LTYPE
  5
26
330
2
100
AcDbSymbolTableRecord
100
AcDbLinetypeTableRecord
  2
Continuous
 70
0
  3

 72
65
 73
0
 40
0.0
  0
ENDTAB
  0
TABLE
  2
LAYER
  5
1
330
0
100
AcDbSymbolTable
 70
3
  0
LAYER
  5
27
330
1
100
AcDbSymbolTableRecord
100
AcDbLayerTableRecord
  2
0
 70
0
 62
7
  6
Continuous
370
-3
390
13
347
21
  0
LAYER
  5
28
330
1
100
AcDbSymbolTableRecord
100
AcDbLayerTableRecord
  2
Defpoints
 70
0
 62
7
  6
Continuous
290
0
370
-3
390
13
347
21
  0
LAYER
  5
2F
330
1
100
AcDbSymbolTableRecord
100
AcDbLayerTableRecord
  2
K
 70
0
 62
7
  6
Continuous
370
-3
390
13
347
21
  0
ENDTAB
  0
TABLE
  2
STYLE
  5
5
330
0
100
AcDbSymbolTable
 70
1
  0
STYLE
  5
29
330
5
100
AcDbSymbolTableRecord
100
AcDbTextStyleTableRecord
  2
Standard
 70
0
 40
0.0
 41
1.0
 50
0.0
 71
0
 42
2.5
  3
txt
  4

  0
ENDTAB
  0
TABLE
  2
VIEW
  5
7
330
0
100
AcDbSymbolTable
 70
0
  0
ENDTAB
  0
TABLE
  2
UCS
  5
6
330
0
100
AcDbSymbolTable
 70
0
  0
ENDTAB
  0
TABLE
  2
APPID
  5
3
330
0
100
AcDbSymbolTable
 70
3
  0
APPID
  5
2A
330
3
100
AcDbSymbolTableRecord
100
AcDbRegAppTableRecord
  2
ACAD
 70
0
  0
APPID
  5
52
330
3
100
AcDbSymbolTableRecord
100
AcDbRegAppTableRecord
  2
HATCHBACKGROUNDCOLOR
 70
0
  0
APPID
  5
53
330
3
100
AcDbSymbolTableRecord
100
AcDbRegAppTableRecord
  2
EZDXF
 70
0
  0
ENDTAB
  0
TABLE
  2
DIMSTYLE
  5
4
330
0
100
AcDbSymbolTable
 70
1
100
AcDbDimStyleTable
  0
DIMSTYLE
105
2B
330
4
100
AcDbSymbolTableRecord
100
AcDbDimStyleTableRecord
  2
Standard
 70
0
 40
1.0
 41
2.5
 42
0.625
 43
3.75
 44
1.25
 45
0.0
 46
0.0
 47
0.0
 48
0.0
 49
2.5
140
2.5
141
2.5
142
0.0
143
0.03937007874
144
1.0
145
0.0
146
1.0
147
0.625
148
0.0
 69
0
 70
0
 71
0
 72
0
 73
0
 74
0
 75
0
 76
0
 77
1
 78
8
 79
3
170
0
171
3
172
1
173
0
174
0
175
0
176
0
177
0
178
0
179
2
271
2
272
2
273
2
274
3
275
0
276
0
277
2
278
44
279
0
280
0
281
0
282
0
283
0
284
8
285
0
286
0
288
0
289
3
290
0
371
-2
372
-2
  0
ENDTAB
  0
TABLE
  2
BLOCK_RECORD
  5
9
330
0
100
AcDbSymbolTable
 70
2
  0
BLOCK_RECORD
  5
17
330
9
100
AcDbSymbolTableRecord
100
AcDbBlockTableRecord
  2
*Model_Space
340
1A
 70
0
280
1
281
0
  0
BLOCK_RECORD
  5
1B
330
9
100
AcDbSymbolTableRecord
100
AcDbBlockTableRecord
  2
*Paper_Space
340
1E
 70
0
280
1
281
0
  0
ENDTAB
  0
ENDSEC
  0
SECTION
  2
BLOCKS
  0
BLOCK
  5
18
330
17
100
AcDbEntity
  8
0
100
AcDbBlockBegin
  2
*Model_Space
 70
0
 10
0.0
 20
0.0
 30
0.0
  3
*Model_Space
  1

  0
ENDBLK
  5
19
330
17
100
AcDbEntity
  8
0
100
AcDbBlockEnd
  0
BLOCK
  5
1C
330
1B
100
AcDbEntity
  8
0
100
AcDbBlockBegin
  2
*Paper_Space
 70
0
 10
0.0
 20
0.0
 30
0.0
  3
*Paper_Space
  1

  0
ENDBLK
  5
1D
330
1B
100
AcDbEntity
  8
0
100
AcDbBlockEnd
  0
ENDSEC
  0
SECTION
  2
ENTITIES
  0
LWPOLYLINE
  5
30
330
17
100
AcDbEntity
  8
K
100
AcDbPolyline
 90
18
 70
1
 10
10.893396148417335
 20
388.8218420762616
 10
4.1900740309825935
 20
394.3281423870116
 10
0.0
 20
401.2118354379116
 10
0.0
 20
409.49025767192813
 10
12.553043742727255
 20
424.61368656197584
 10
17.543800765062343
 20
424.61368656197584
 10
22.543800765062237
 20
432.82797227626156
 10
27.543800765062354
 20
432.82797227626156
 10
30.88405772962899
 20
438.315537289478
 10
59.32908243135893
 20
432.8177594059505
 10
61.87363018813541
 20
428.63743094838935
 10
58.52682314988667
 20
414.8916163270111
 10
53.52682314988666
 20
406.67733061272537
 10
50.19348981655336
 20
392.9868544222492
 10
47.6561992349378
 20
388.8184484667377
 10
40.98953256827098
 20
388.8184484667377
 10
39.31947590501028
 20
386.0747839485237
 10
10.893396148417335
 20
388.8218420762616
  0
LWPOLYLINE
  5
31
330
17
100
AcDbEntity
  8
K
100
AcDbPolyline
 90
51
 70
1
 10
553.3674264149738
 20
603.7624979663868
 10
548.3384192250084
 20
614.7784184777396
 10
545.0065101834467
 20
628.4630448984396
 10
538.33984351678
 20
639.4154258508207
 10
535.0045763810248
 20
653.1138444441007
 10
528.3144892540008
 20
669.6001305785526
 10
543.3333333333334
 20
683.3078057303244
 10
543.3333333333334
 20
699.7202995908019
 10
547.5438007650623
 20
706.6374960857853
 10
560.8771340983956
 20
706.6374960857853
 10
564.210467431729
 20
712.1136865619758
 10
574.2965831152873
 20
712.1136865619758
 10
582.6299164486206
 20
706.6374960857853
 10
595.9691391675245
 20
706.6374960857853
 10
602.5744691214386
 20
701.2116893379273
 10
606.6666666666667
 20
707.9345853050877
 10
606.6666666666667
 20
713.4107757812781
 10
608.336380172229
 20
716.1538765404163
 10
611.6697135055623
 20
746.2729241594639
 10
615.8771340983956
 20
753.1851151334043
 10
629.3228659016044
 20
753.1851151334043
 10
630.9895325682711
 20
750.4470198953092
 10
642.6561992349377
 20
750.4470198953092
 10
644.3228659016044
 20
747.7089246572139
 10
659.1967279087613
 20
747.7089246572139
 10
664.1967279087613
 20
761.3994008476901
 10
667.6507925008261
 20
761.3994008476901
 10
677.6507925008261
 20
747.7089246572139
 10
682.6469562572726
 20
747.7089246572139
 10
695.2181530578756
 20
732.5636256545827
 10
688.5333333333334
 20
718.8358708631121
 10
688.5333333333334
 20
713.3546925807686
 10
680.190280650489
 20
699.6482488875243
 10
669.2879091726641
 20
670.7150322732967
 10
667.5438007650622
 20
673.5803532286425
 10
662.5558920738923
 20
673.5803532286425
 10
657.5558920738921
 20
679.056543704833
 10
640.9895325682711
 20
679.056543704833
 10
639.3294426739641
 20
676.329253164186
 10
625.9961093406308
 20
673.5911579260907
 10
624.3228659016045
 20
670.8422579905472
 10
612.6561992349377
 20
670.8422579905472
 10
610.989532568271
 20
668.104162752452
 10
607.6561992349377
 20
668.104162752452
 10
603.5322023137965
 20
661.3290249534341
 10
601.8660015981525
 20
620.2690787464959
 10
597.6855699605475
 20
607.9069451895779
 10
594.302472500858
 20
605.1279722762615
 10
579.3228659016045
 20
605.1279722762615
 10
577.65423158566
 20
602.3866444714957
 10
553.3674264149738
 20
603.7624979663868
  0
LWPOLYLINE
  5
32
330
17
100
AcDbEntity
  8
K
100
AcDbPolyline
 90
20
 70
1
 10
610.9880749550582
 20
413.663700259873
 10
616.8666666666667
 20
404.00601387651625
 10
616.8666666666667
 20
393.0135926756908
 10
613.5333333333334
 20
379.32311648521454
 10
613.5333333333334
 20
371.092787818864
 10
610.989532568271
 20
366.91368656197585
 10
604.3228659016045
 20
366.91368656197585
 10
600.989532568271
 20
361.43749608578537
 10
585.9691391675246
 20
361.43749608578537
 10
579.302472500858
 20
355.96130560959494
 10
572.6441079261078
 20
355.96130560959494
 10
567.6441079261078
 20
350.4851151334044
 10
564.3107745927746
 20
350.4851151334044
 10
559.3253978437333
 20
345.02494059874
 10
552.6615778756119
 20
342.28801454040456
 10
545.9216325694263
 20
333.9834390738542
 10
543.3333333333334
 20
338.2356449617211
 10
543.3333333333334
 20
406.74410911461143
 10
545.875710573623
 20
410.92087172365865
 10
610.9880749550582
 20
413.663700259873
  0
LWPOLYLINE
  5
33
330
17
100
AcDbEntity
  8
K
100
AcDbPolyline
 90
20
 70
1
 10
522.5262789075177
 20
49.32342485175176
 10
518.3289985985257
 20
56.218956787952635
 10
521.6695766795175
 20
78.17132703446966
 10
528.3333333333334
 20
94.59272735994453
 10
528.3333333333334
 20
100.0895265791705
 10
537.6177271589162
 20
109.7959383059162
 10
539.3228659016044
 20
106.99463894292818
 10
564.3228659016044
 20
106.99463894292818
 10
565.9895325682711
 20
104.25654370483298
 10
572.6561992349377
 20
104.25654370483298
 10
575.211579482466
 20
100.05841901246507
 10
561.8628219920988
 20
67.16326662548872
 10
560.1945220470014
 20
58.94093118179489
 10
555.1919888568915
 20
50.722483798042674
 10
550.1919888568915
 20
34.29391236947124
 10
545.9333333333334
 20
27.297549723625856
 10
542.5438007650622
 20
32.866067514356864
 10
539.2170984404352
 20
32.866067514356864
 10
530.864113329491
 20
43.844276517312124
 10
522.5262789075177
 20
49.32342485175176
  0
LWPOLYLINE
  5
34
330
17
100
AcDbEntity
  8
K
100
AcDbPolyline
 90
32
 70
1
 10
471.6666666666667
 20
475.1964900669924
 10
473.3162645331783
 20
477.906543704833
 10
470.8771340983956
 20
481.91368656197585
 10
457.5438007650623
 20
481.91368656197585
 10
455.8771340983956
 20
484.6517818000711
 10
432.53443533735657
 20
484.6517818000711
 10
428.33512236442226
 20
494.3102016378201
 10
426.66761125115613
 20
513.4865794403811
 10
419.99367338585205
 20
543.6384772961302
 10
422.54380076506226
 20
547.8279722762614
 10
434.210467431729
 20
547.8279722762614
 10
435.8771340983957
 20
550.5660675143567
 10
450.9691391675247
 20
550.5660675143567
 10
454.24113578810534
 20
547.878356004594
 10
457.5438007650623
 20
553.3041627524519
 10
474.3228659016044
 20
553.3041627524519
 10
478.53333333333336
 20
546.3869662574687
 10
478.53333333333336
 20
491.62506149556384
 10
480.9929378194118
 20
487.5842826970065
 10
534.3175206682977
 20
482.10899070805846
 10
546.8666666666666
 20
466.99025767192813
 10
546.8666666666666
 20
461.44993067600683
 10
545.2
 20
458.7118354379116
 10
545.2
 20
445.0213592474353
 10
543.5333333333333
 20
442.28326400934014
 10
543.5333333333333
 20
428.592787818864
 10
540.2
 20
423.11659734267346
 10
540.2
 20
417.640406866483
 10
537.6531735103086
 20
413.45633477627564
 10
474.2075849885461
 20
418.9422315281573
 10
471.6666666666667
 20
423.11659734267346
 10
471.6666666666667
 20
475.1964900669924
  0
LWPOLYLINE
  5
35
330
17
100
AcDbEntity
  8
K
100
AcDbPolyline
 90
5
 70
1
 10
456.6495978665116
 20
540.8827341810234
 10
454.2666666666667
 20
544.7975497236258
 10
451.8837354668217
 20
540.8827341810234
 10
454.2666666666667
 20
536.967918638421
 10
456.6495978665116
 20
540.8827341810234
  0
LWPOLYLINE
  5
36
330
17
100
AcDbEntity
  8
K
100
AcDbPolyline
 90
24
 70
1
 10
473.33333333333337
 20
206.84999556998076
 10
476.67467780977535
 20
217.8286988497186
 10
490.00547795299855
 20
239.72929908501408
 10
491.67354647518204
 20
247.9504939443469
 10
498.34336117835034
 20
256.1686584893219
 10
501.67467780977535
 20
267.1144131354329
 10
505.94956490593336
 20
274.137441936264
 10
513.5284117377947
 20
256.1527181051011
 10
521.8599022917117
 20
223.3028410639424
 10
524.3228659016044
 20
219.25654370483298
 10
527.6561992349377
 20
219.25654370483298
 10
531.8666666666667
 20
212.33934720984973
 10
531.8666666666667
 20
198.59278781886383
 10
530.1972021765561
 20
195.8500961565394
 10
528.5296747672629
 20
179.41304026493546
 10
522.6461675537264
 20
172.50892465721392
 10
504.32286590160436
 20
172.50892465721392
 10
502.6561992349378
 20
169.7708294191187
 10
492.65619923493773
 20
169.7708294191187
 10
490.98680053040823
 20
167.02824583310607
 10
473.374519416551
 20
168.40607734881598
 10
471.6495978665116
 20
171.23987703816638
 10
473.33333333333337
 20
174.0060138765164
 10
473.33333333333337
 20
206.84999556998076
  0
LWPOLYLINE
  5
37
330
17
100
AcDbEntity
  8
K
100
AcDbPolyline
 90
15
 70
1
 10
459.210467431729
 20
366.91368656197585
 10
454.22393770612024
 20
366.91368656197585
 10
444.97464306983767
 20
376.5834036817257
 10
464.210467431729
 20
408.1851151334044
 10
467.65619923493773
 20
408.1851151334044
 10
477.65619923493773
 20
391.75654370483295
 10
480.9929261716782
 20
391.75654370483295
 10
494.32625950501154
 20
367.11368656197584
 10
497.65619923493773
 20
367.11368656197584
 10
501.88373546682175
 20
360.1684484667377
 10
499.3190122078034
 20
355.9549745412076
 10
474.206843191082
 20
358.7053549573247
 10
472.5438007650623
 20
361.43749608578537
 10
462.5438007650623
 20
361.43749608578537
 10
459.210467431729
 20
366.91368656197585
  0
LWPOLYLINE
  5
38
330
17
100
AcDbEntity
  8
K
100
AcDbPolyline
 90
14
 70
1
 10
1151.6893979684962
 20
1.3884032765312804
 10
1149.9954711714768
 20
6.954162752452087
 10
1151.6738317344832
 20
12.468776030901324
 10
1163.3382259292655
 20
34.369271253758136
 10
1165.0048062888764
 20
42.58313159755442
 10
1175.007040120062
 20
61.754079773993
 10
1178.3433611783503
 20
72.71627753694099
 10
1185.0
 20
80.91820751361661
 10
1185.0
 20
83.64887101937357
 10
1190.9469832889888
 20
93.41891499414038
 10
1200.206548375034
 20
72.6750841195583
 10
1196.8589506278763
 20
61.675834378898344
 10
1160.985663385271
 20
0.0
 10
1151.6893979684962
 20
1.3884032765312804
  0
LWPOLYLINE
  5
39
330
17
100
AcDbEntity
  8
K
100
AcDbPolyline
 90
22
 70
1
 10
2920.8790037876233
 20
427.1629769072546
 10
2915.8803534472886
 20
432.6376891847641
 10
2904.2118515760935
 20
435.376215134126
 10
2898.3353492329006
 20
442.27211074093407
 10
2896.665104029079
 20
472.4558276385741
 10
2899.210467431729
 20
476.6374960857853
 10
2905.989532568271
 20
476.6374960857853
 10
2907.656199234938
 20
473.8994008476901
 10
2920.9895325682714
 20
473.8994008476901
 10
2922.656199234938
 20
471.16130560959493
 10
2955.97856618408
 20
471.16130560959493
 10
2966.8903164124195
 20
458.75068859164816
 10
2964.322865901605
 20
454.53273418102344
 10
2960.9895325682714
 20
454.53273418102344
 10
2957.656199234938
 20
449.05654370483296
 10
2954.3228659016045
 20
449.05654370483296
 10
2949.3381714330403
 20
440.8674027921915
 10
2944.3381714330403
 20
438.1293075540963
 10
2941.001687032858
 20
432.64794032522593
 10
2934.335020366191
 20
429.9098450871306
 10
2930.9795836679514
 20
424.3973419400219
 10
2920.8790037876233
 20
427.1629769072546
  0
LWPOLYLINE
  5
3A
330
17
100
AcDbEntity
  8
K
100
AcDbPolyline
 90
11
 70
1
 10
2924.2223128305513
 20
501.08737480165155
 10
2917.5641941658087
 20
506.55654370483296
 10
2909.2104674317293
 20
506.55654370483296
 10
2904.981099831511
 20
513.5047904766202
 10
2920.880417031949
 20
536.8755913238805
 10
2942.646167553726
 20
536.8755913238805
 10
2948.5563671938535
 20
529.9401529706703
 10
2943.528607244071
 20
521.6802616245985
 10
2940.1952739107373
 20
502.5135949579319
 10
2937.648825783454
 20
498.3301444631091
 10
2924.2223128305513
 20
501.08737480165155
  0
LWPOLYLINE
  5
3B
330
17
100
AcDbEntity
  8
K
100
AcDbPolyline
 90
24
 70
1
 10
3622.5438007650628
 20
547.6279722762615
 10
3615.8945592880127
 20
547.6279722762615
 10
3608.305096510837
 20
554.5548629062237
 10
3610.0000000000005
 20
557.3393472098496
 10
3610.0000000000005
 20
565.5536329241353
 10
3613.334871928259
 20
571.0323510919889
 10
3615.001538594926
 20
601.1513987110367
 10
3616.666666666667
 20
603.8869662574687
 10
3616.666666666667
 20
614.8261860461712
 10
3618.3413444764424
 20
620.3286988497184
 10
3620.8771340983963
 20
624.4946389429281
 10
3645.9895325682714
 20
624.4946389429281
 10
3647.6561992349384
 20
621.7565437048329
 10
3660.989532568272
 20
621.7565437048329
 10
3663.5341902315126
 20
617.5760346866515
 10
3661.8675235648457
 20
562.8141299247468
 10
3663.550402133489
 20
560.0494008476901
 10
3659.322865901605
 20
553.104162752452
 10
3654.310774592775
 20
553.104162752452
 10
3649.310774592775
 20
547.6279722762615
 10
3640.969139167525
 20
547.6279722762615
 10
3634.2901602754855
 20
542.1416681863718
 10
3624.201916198202
 20
544.9039254932468
 10
3622.5438007650628
 20
547.6279722762615
  0
LWPOLYLINE
  5
3C
330
17
100
AcDbEntity
  8
K
100
AcDbPolyline
 90
17
 70
1
 10
3623.3755062332125
 20
702.3412077486117
 10
3615.0022522077584
 20
713.3460558963516
 10
3613.3352099280296
 20
737.9944667466253
 10
3610.0021080645747
 20
743.4702769508727
 10
3608.3354413979077
 20
765.3750388556348
 10
3606.6666666666674
 20
768.1165973426735
 10
3606.6666666666674
 20
779.1250614955638
 10
3609.2104674317293
 20
783.3041627524519
 10
3634.3228659016045
 20
783.3041627524519
 10
3636.8625120245765
 20
779.1318869789986
 10
3638.5300962615624
 20
768.1734762788034
 10
3643.5275968246174
 20
757.2265702835406
 10
3651.8745836118355
 20
727.0581751811651
 10
3647.6765926356843
 20
720.1614757203448
 10
3637.672505546299
 20
711.943832754064
 10
3629.3069704031154
 20
700.9491294230223
 10
3623.3755062332125
 20
702.3412077486117
  0
LWPOLYLINE
  5
3D
330
17
100
AcDbEntity
  8
K
100
AcDbPolyline
 90
21
 70
1
 10
3555.0009008522334
 20
631.2220366585384
 10
3553.3350242178867
 20
658.590009937099
 10
3551.666666666667
 20
661.3308830569592
 10
3551.666666666667
 20
666.863156733659
 10
3554.2163182345253
 20
671.051870023712
 10
3570.9948703059517
 20
668.2953936119777
 10
3572.656199234938
 20
665.5660675143567
 10
3589.322865901605
 20
665.5660675143567
 10
3590.989532568272
 20
662.8279722762614
 10
3599.3228659016045
 20
662.8279722762614
 10
3600.9895325682714
 20
660.0898770381663
 10
3610.9895325682714
 20
660.0898770381663
 10
3613.531456738638
 20
655.9138587582786
 10
3615.2025193679897
 20
631.2060041671483
 10
3609.312834220393
 20
624.2946389429281
 10
3587.6561992349384
 20
624.2946389429281
 10
3585.9895325682714
 20
621.556543704833
 10
3574.322865901605
 20
621.556543704833
 10
3572.652809238344
 20
618.8128791866188
 10
3558.357140095233
 20
620.1943934315415
 10
3555.0009008522334
 20
631.2220366585384
  0
LWPOLYLINE
  5
3E
330
17
100
AcDbEntity
  8
K
100
AcDbPolyline
 90
37
 70
1
 10
3490.0029100128513
 20
245.1951365582791
 10
3493.337487975424
 20
267.1080774551893
 10
3494.9829311998456
 20
269.81130560959485
 10
3492.5438007650628
 20
273.8184484667378
 10
3482.564194165809
 20
273.8184484667378
 10
3475.8975274991426
 20
279.29463894292815
 10
3464.2308608324756
 20
279.29463894292815
 10
3457.564194165809
 20
284.7708294191187
 10
3445.903416884713
 20
284.7708294191187
 10
3437.57008355138
 20
290.2470198953091
 10
3429.2104674317293
 20
290.2470198953091
 10
3426.6579578476
 20
294.4404284978076
 10
3430.0106264978203
 20
305.4563397771034
 10
3440.8513823300846
 20
317.7862104214916
 10
3462.5416535233603
 20
356.16130560959493
 10
3569.322865901605
 20
356.16130560959493
 10
3573.5333333333338
 20
349.24410911461143
 10
3573.5333333333338
 20
340.9869013634946
 10
3570.198211273307
 20
330.0286431662652
 10
3566.862785425322
 20
302.6305022720984
 10
3546.8868114572456
 20
275.28244267294656
 10
3551.8666666666672
 20
267.1012519717545
 10
3551.8666666666672
 20
261.6178186193889
 10
3560.212387038781
 20
242.42266176352715
 10
3557.6636362063714
 20
238.23542825313984
 10
3545.996969539705
 20
235.49733301504463
 10
3544.322865901605
 20
232.74701989530914
 10
3530.963249781954
 20
232.74701989530914
 10
3522.6299164486213
 20
227.2708294191187
 10
3509.3228659016045
 20
227.2708294191187
 10
3507.662776007298
 20
224.5435388784717
 10
3494.3294426739644
 20
221.80544364037638
 10
3492.6496740918874
 20
219.04582382696384
 10
3485.037907385142
 20
220.43527330517935
 10
3483.333333333334
 20
223.23564496172102
 10
3483.333333333334
 20
228.7593940266112
 10
3490.0029100128513
 20
245.1951365582791
  0
LWPOLYLINE
  5
3F
330
17
100
AcDbEntity
  8
K
100
AcDbPolyline
 90
25
 70
1
 10
3505.005477952999
 20
428.6578705135854
 10
3510.852951480737
 20
438.2644341662969
 10
3515.8892254072257
 20
443.7803532286425
 10
3519.2170984404356
 20
443.7803532286425
 10
3527.550431773769
 20
454.73273418102343
 10
3530.889225407226
 20
454.73273418102343
 10
3535.8892254072257
 20
460.20892465721386
 10
3540.877134098396
 20
460.20892465721386
 10
3543.3298732871467
 20
464.23842475301836
 10
3541.66320662048
 20
477.9289009434946
 10
3544.2531202603395
 20
482.1837590661208
 10
3550.2000000000003
 20
475.2052777389675
 10
3550.2000000000003
 20
417.640406866483
 10
3547.662092614859
 20
413.4709875908935
 10
3532.662092614859
 20
410.7328923527982
 10
3530.989532568271
 20
407.9851151334044
 10
3520.9895325682714
 20
407.9851151334044
 10
3519.322865901605
 20
405.2470198953092
 10
3512.656199234938
 20
405.2470198953092
 10
3510.9895325682714
 20
402.50892465721387
 10
3499.322865901605
 20
402.50892465721387
 10
3497.6298376914374
 20
399.7275211690816
 10
3491.6269993822816
 20
403.9540093663443
 10
3503.339540707577
 20
420.44717980400503
 10
3505.005477952999
 20
428.6578705135854
  0
LWPOLYLINE
  5
40
330
17
100
AcDbEntity
  8
K
100
AcDbPolyline
 90
16
 70
1
 10
3490.004154642091
 20
497.03834328781016
 10
3488.3374879754247
 20
507.99072424019107
 10
3483.3413444764424
 20
516.1986742742333
 10
3479.9912911809333
 20
527.2059922451916
 10
3485.877134098396
 20
536.8755913238805
 10
3489.2104674317293
 20
536.8755913238805
 10
3492.5375842353083
 20
542.3415689297599
 10
3520.982608937038
 20
547.8393468132875
 10
3531.8611887136685
 20
529.9673943231091
 10
3533.536367443575
 20
521.7111562971432
 10
3528.5333333333338
 20
505.272615649209
 10
3528.5333333333338
 20
497.0545193943723
 10
3522.6652721057435
 20
481.9053409190629
 10
3499.2179674637505
 20
484.65681034133746
 10
3494.1862848140695
 20
490.16770086241667
 10
3490.004154642091
 20
497.03834328781016
  0
LWPOLYLINE
  5
41
330
17
100
AcDbEntity
  8
K
100
AcDbPolyline
 90
11
 70
1
 10
3499.2104674317293
 20
178.18511513340442
 10
3500.877134098396
 20
180.92321037149964
 10
3519.322865901605
 20
180.92321037149964
 10
3526.883735466822
 20
168.50178180007106
 10
3519.322865901605
 20
156.08035322864248
 10
3515.9895325682714
 20
156.08035322864248
 10
3512.6533278314673
 20
150.5994454467501
 10
3445.878436937404
 20
156.08452577019096
 10
3433.313882208006
 20
173.97405845633455
 10
3435.877134098396
 20
178.18511513340442
 10
3499.2104674317293
 20
178.18511513340442
  0
LWPOLYLINE
  5
42
330
17
100
AcDbEntity
  8
K
100
AcDbPolyline
 90
17
 70
1
 10
3389.9829311998456
 20
212.3113056095949
 10
3396.674677809776
 20
223.3048893259091
 10
3403.3413444764424
 20
245.20965123067097
 10
3407.570162308564
 20
252.1569948120128
 10
3419.3412608952594
 20
243.86918050097188
 10
3422.6561992349384
 20
238.42321037149964
 10
3427.6441079261085
 20
238.42321037149964
 10
3437.644107926108
 20
227.4708294191187
 10
3440.9895325682714
 20
227.4708294191187
 10
3446.879053705448
 20
217.7951875509008
 10
3442.6655646626436
 20
208.10416275245205
 10
3430.9632497819543
 20
208.10416275245205
 10
3422.6266337688776
 20
202.62581508671587
 10
3403.3984875333153
 20
203.99925410354183
 10
3397.568327423269
 20
208.10416275245205
 10
3392.5438007650628
 20
208.10416275245205
 10
3389.9829311998456
 20
212.3113056095949
  0
LWPOLYLINE
  5
43
330
17
100
AcDbEntity
  8
K
100
AcDbPolyline
 90
79
 70
1
 10
5852.543800765063
 20
136.9136865619758
 10
5834.21046743173
 20
136.9136865619758
 10
5832.543800765063
 20
139.65178180007112
 10
5829.21046743173
 20
139.65178180007112
 10
5826.666666666667
 20
143.83088305695915
 10
5826.666666666667
 20
154.82330425778483
 10
5830.0
 20
168.51378044826095
 10
5830.0
 20
176.7441091146116
 10
5833.333333333333
 20
182.22029959080214
 10
5833.333333333333
 20
190.43458530508786
 10
5834.989561389294
 20
193.15553139702394
 10
5832.530061242095
 20
199.88987703816633
 10
5824.210467431729
 20
199.88987703816633
 10
5822.543800765063
 20
202.62797227626154
 10
5805.877134098396
 20
202.62797227626154
 10
5804.210467431729
 20
205.36606751435684
 10
5792.543800765063
 20
205.36606751435684
 10
5790.877134098396
 20
208.10416275245205
 10
5774.210467431729
 20
208.10416275245205
 10
5772.5389234764225
 20
210.8502706790271
 10
5754.2055901430895
 20
213.5883659171223
 10
5751.666666666667
 20
217.75945448553048
 10
5751.666666666667
 20
226.02982340032588
 10
5753.333333333334
 20
228.76791863842118
 10
5753.333333333334
 20
239.7202995908021
 10
5756.666666666667
 20
245.19649006699254
 10
5756.666666666667
 20
258.8148054888655
 10
5749.188685944709
 20
265.6399466239865
 10
5743.338811286332
 20
275.25045499131863
 10
5741.6709411693355
 20
283.4706719965152
 10
5736.666666666667
 20
294.4324161452183
 10
5736.666666666667
 20
299.9023116283877
 10
5731.666666666666
 20
308.1165973426735
 10
5731.666666666666
 20
313.6000306950388
 10
5723.333333333334
 20
332.7666973617055
 10
5723.333333333334
 20
343.76791863842107
 10
5729.289303677257
 20
353.5527270605796
 10
5731.877105277373
 20
346.46707982216594
 10
5728.550402133488
 20
341.001781800071
 10
5732.656199234937
 20
334.25654370483295
 10
5737.564194165809
 20
334.25654370483295
 10
5747.6
 20
342.5002413543472
 10
5754.3121638719995
 20
336.98667817377657
 10
5765.9788305386655
 20
334.2485829356814
 10
5775.9788305386655
 20
326.03429722139566
 10
5787.663636206371
 20
323.2919448708118
 10
5790.200000000001
 20
319.12506149556384
 10
5790.200000000001
 20
308.1165973426735
 10
5788.533333333334
 20
305.37850210457816
 10
5788.533333333334
 20
294.42612115219714
 10
5785.200000000001
 20
288.9499306760067
 10
5785.200000000001
 20
275.3155376860401
 10
5787.676592635685
 20
271.24684978455895
 10
5797.653810862906
 20
263.0512776693422
 10
5821.003091437185
 20
252.09141127733358
 10
5824.335020366191
 20
246.61752803682106
 10
5837.658731177066
 20
241.14528966806873
 10
5842.658731177066
 20
235.6690991918783
 10
5849.345464762819
 20
232.92276218344446
 10
5851.872073526332
 20
226.00466675953803
 10
5846.8753754857335
 20
209.58694462614417
 10
5849.322865901605
 20
205.56606751435683
 10
5854.310774592775
 20
205.56606751435683
 10
5859.310774592775
 20
200.0898770381663
 10
5862.656199234938
 20
200.0898770381663
 10
5865.99958047692
 20
194.59717928348212
 10
5874.332913810254
 20
191.8590840453869
 10
5877.667203823121
 20
186.3813218813897
 10
5892.667203823121
 20
180.90513140519917
 10
5895.989532568271
 20
175.44701989530913
 10
5899.310774592775
 20
175.44701989530913
 10
5904.347048519264
 20
169.9311008329636
 10
5906.866666666667
 20
165.79172816223067
 10
5906.866666666667
 20
132.87850210457822
 10
5904.319840176975
 20
128.69443001437088
 10
5872.54091832188
 20
131.4422315281574
 10
5870.877134098396
 20
134.1755913238806
 10
5854.210467431729
 20
134.1755913238806
 10
5852.543800765063
 20
136.9136865619758
  0
LWPOLYLINE
  5
44
330
17
100
AcDbEntity
  8
K
100
AcDbPolyline
 90
24
 70
1
 10
5859.266666666666
 20
706.3451687712449
 10
5857.656199234937
 20
703.6994008476901
 10
5852.543800765063
 20
703.6994008476901
 10
5850.933333333333
 20
706.3451687712449
 10
5849.266666666666
 20
703.6070735331497
 10
5846.666666666667
 20
707.8785021045783
 10
5846.666666666667
 20
713.4107757812781
 10
5850.000000000001
 20
718.8869662574687
 10
5850.000000000001
 20
743.5298234003257
 10
5852.543800765063
 20
747.7089246572139
 10
5865.989532568271
 20
747.7089246572139
 10
5867.6
 20
745.0631567336591
 10
5869.210467431729
 20
747.7089246572139
 10
5872.656199234938
 20
747.7089246572139
 10
5874.292197545228
 20
745.0212131474511
 10
5877.638888216108
 20
747.7702804842453
 10
5881.864877635578
 20
738.0505048194648
 10
5883.530928786445
 20
718.8909165845008
 10
5886.866666666667
 20
713.4107757812781
 10
5886.866666666667
 20
707.9345853050877
 10
5888.550402133489
 20
705.1684484667377
 10
5885.98567887447
 20
700.9549745412074
 10
5860.873509857749
 20
703.7053549573246
 10
5859.266666666666
 20
706.3451687712449
  0
LWPOLYLINE
  5
45
330
17
100
AcDbEntity
  8
K
100
AcDbPolyline
 90
30
 70
1
 10
5842.531646300476
 20
788.6003212776068
 10
5839.21046743173
 20
794.056543704833
 10
5832.555892073892
 20
794.056543704833
 10
5827.555892073892
 20
799.5327341810234
 10
5822.571053757426
 20
799.5327341810234
 10
5800.90438709076
 20
813.2232103714996
 10
5795.870035652476
 20
813.2232103714996
 10
5790.002248736475
 20
825.6174133471335
 10
5788.336131156777
 20
842.0405723470157
 10
5784.982931199845
 20
847.5494008476901
 10
5789.210467431729
 20
854.4946389429282
 10
5812.564194165809
 20
854.4946389429282
 10
5819.230860832476
 20
859.9708294191187
 10
5822.555892073892
 20
859.9708294191187
 10
5827.5480583590415
 20
865.438440112377
 10
5840.870557326036
 20
868.1743104359563
 10
5842.574469121439
 20
870.9735940998322
 10
5845.9078024547725
 20
868.2354988617369
 10
5847.543800765062
 20
870.9232103714996
 10
5862.656199234938
 20
870.9232103714996
 10
5865.200000000001
 20
866.7441091146115
 10
5865.200000000001
 20
853.0107108873042
 10
5861.866666666667
 20
842.0583299349233
 10
5861.866666666667
 20
836.5689782950543
 10
5858.530928786444
 20
831.0888374918317
 10
5856.864262119777
 20
811.9221708251652
 10
5853.53053550989
 20
806.4453342517776
 10
5851.863868843223
 20
790.0167628232061
 10
5849.307678886381
 20
785.8173078941095
 10
5842.531646300476
 20
788.6003212776068
  0
LWPOLYLINE
  5
46
330
17
100
AcDbEntity
  8
K
100
AcDbPolyline
 90
26
 70
1
 10
5809.195629540329
 20
336.8223547992837
 10
5797.519482946514
 20
345.0433151561537
 10
5793.3364314945
 20
354.6643334957826
 10
5791.66233193186
 20
365.6655591931419
 10
5795.907802454772
 20
372.6402607664988
 10
5799.241135788106
 20
369.9021655284036
 10
5800.871796360716
 20
372.58110789769205
 10
5817.5495482509
 20
375.321024279651
 10
5822.590140828306
 20
380.84167329300055
 10
5825.933333333333
 20
378.0954794495853
 10
5829.276525838361
 20
380.84167329300055
 10
5834.3107745927755
 20
375.32797227626156
 10
5837.656199234938
 20
375.32797227626156
 10
5840.989532568272
 20
369.8517818000711
 10
5844.322865901605
 20
369.8517818000711
 10
5847.656199234938
 20
364.37559132388054
 10
5850.989532568272
 20
364.37559132388054
 10
5853.535486794254
 20
360.19295223833626
 10
5851.865027959097
 20
338.23835040482555
 10
5846.866666666667
 20
327.2895590023612
 10
5846.866666666667
 20
316.34404422063756
 10
5845.191988856891
 20
310.8415314170904
 10
5840.951687626321
 20
303.8753222525815
 10
5827.535969202735
 20
317.65039027679944
 10
5819.196603963805
 20
323.1305445766678
 10
5809.195629540329
 20
336.8223547992837
  0
LWPOLYLINE
  5
47
330
17
100
AcDbEntity
  8
K
100
AcDbPolyline
 90
33
 70
1
 10
5730.892321113619
 20
651.6506412274429
 10
5724.225654446952
 20
648.9125459893477
 10
5722.543800765062
 20
651.6755913238806
 10
5712.543800765063
 20
651.6755913238806
 10
5710.892321113619
 20
654.3887364655382
 10
5704.225654446952
 20
651.6506412274429
 10
5702.538463027382
 20
654.4224557024501
 10
5685.871796360716
 20
657.1605509405452
 10
5680.000772709151
 20
666.8058040824021
 10
5678.332554606892
 20
727.0999726354582
 10
5680.933333333333
 20
731.3726805431829
 10
5684.327743190244
 20
725.7961500639722
 10
5702.649899754145
 20
723.0597240836493
 10
5707.6441079261085
 20
717.5898770381663
 10
5715.969139167525
 20
717.5898770381663
 10
5722.635805834192
 20
712.1136865619758
 10
5729.322865901604
 20
712.1136865619758
 10
5730.989532568271
 20
709.3755913238805
 10
5739.310774592775
 20
709.3755913238805
 10
5744.310774592775
 20
703.8994008476901
 10
5752.628331116166
 20
703.8994008476901
 10
5765.9616644495
 20
695.6851151334043
 10
5775.989532568271
 20
695.6851151334043
 10
5780.2
 20
688.7679186384211
 10
5780.2
 20
683.2391678657912
 10
5770.192245800938
 20
664.0576389842537
 10
5766.021337964276
 20
651.7236686672712
 10
5760.977441259441
 20
646.1994008476901
 10
5752.543800765063
 20
646.1994008476901
 10
5750.907802454772
 20
648.8871123574528
 10
5747.62764982878
 20
646.1927012718166
 10
5732.537907385142
 20
648.9471780670839
 10
5730.892321113619
 20
651.6506412274429
  0
LWPOLYLINE
  5
48
330
17
100
AcDbEntity
  8
K
100
AcDbPolyline
 90
26
 70
1
 10
5758.320345105293
 20
398.4950780030255
 10
5756.666666666667
 20
401.2118354379116
 10
5756.666666666667
 20
406.688025914102
 10
5750.852951480736
 20
416.2391294338452
 10
5740.889225407225
 20
427.1517818000711
 10
5732.555892073892
 20
427.1517818000711
 10
5727.567402272574
 20
432.6153658681815
 10
5717.558672484713
 20
429.8748803310288
 10
5668.306919753663
 20
499.817139354661
 10
5674.22049911294
 20
506.7565437048329
 10
5689.296583115287
 20
506.7565437048329
 10
5697.635540923773
 20
501.2766571449706
 10
5719.302207590441
 20
498.5385619068753
 10
5727.629916448621
 20
493.0660675143568
 10
5735.989532568271
 20
493.0660675143568
 10
5737.656199234938
 20
490.32797227626156
 10
5750.969139167525
 20
490.32797227626156
 10
5757.635805834192
 20
484.851781800071
 10
5767.656199234938
 20
484.851781800071
 10
5770.2
 20
480.6726805431829
 10
5770.2
 20
395.72920787457014
 10
5762.648722451013
 20
386.08035322864254
 10
5759.322865901605
 20
386.08035322864254
 10
5757.619749311998
 20
383.2823759742895
 10
5753.313312488731
 20
387.52729227150974
 10
5758.320345105293
 20
398.4950780030255
  0
LWPOLYLINE
  5
49
330
17
100
AcDbEntity
  8
K
100
AcDbPolyline
 90
38
 70
1
 10
5647.548750325874
 20
172.7089246572139
 10
5654.322865901604
 20
172.7089246572139
 10
5655.989532568271
 20
169.9708294191187
 10
5677.564194165809
 20
169.9708294191187
 10
5680.958864211894
 20
172.75930838554646
 10
5682.656199234938
 20
169.9708294191187
 10
5689.210467431729
 20
169.9708294191187
 10
5690.877134098396
 20
172.7089246572139
 10
5702.635805834191
 20
172.7089246572139
 10
5705.907802454772
 20
170.02121314745125
 10
5707.543800765063
 20
172.7089246572139
 10
5732.543800765062
 20
172.7089246572139
 10
5734.217840883213
 20
175.45913342274736
 10
5747.551174216546
 20
172.72103818465214
 10
5749.21046743173
 20
175.44701989530913
 10
5759.322865901605
 20
175.44701989530913
 10
5761.865128071741
 20
171.2704463300844
 10
5763.534895970922
 20
141.09535500918705
 10
5760.933333333333
 20
136.82135924743537
 10
5759.241135788106
 20
139.60139807173857
 10
5752.574469121439
 20
134.12520759554806
 10
5750.877134098396
 20
136.9136865619758
 10
5744.210467431729
 20
136.9136865619758
 10
5742.537223992703
 20
139.6625864975193
 10
5729.20389065937
 20
142.4006817356145
 10
5727.533752856414
 20
145.14447955475532
 10
5719.3008996961735
 20
147.84955987883444
 10
5705.994911208945
 20
131.4546812070713
 10
5699.328244542278
 20
128.7165859689761
 10
5692.656113618909
 20
120.49556750982396
 10
5680.996969539704
 20
117.75923777694933
 10
5677.656199234938
 20
112.27082941911873
 10
5670.969139167525
 20
112.27082941911873
 10
5664.2876686624195
 20
106.78247864706783
 10
5660.032117084083
 20
108.18073130852116
 10
5636.666666666667
 20
149.3086925024432
 10
5636.666666666667
 20
157.5816325375469
 10
5647.548750325874
 20
172.7089246572139
  0
LWPOLYLINE
  5
4A
330
17
100
AcDbEntity
  8
K
100
AcDbPolyline
 90
17
 70
1
 10
6695.897527499143
 20
465.4851151334044
 10
6689.230860832476
 20
470.96130560959494
 10
6677.555892073893
 20
470.96130560959494
 10
6672.555892073892
 20
476.4374960857853
 10
6664.201102004024
 20
476.4374960857853
 10
6660.0
 20
486.1000306950389
 10
6660.0
 20
491.6292515851658
 10
6670.868868180874
 20
506.73817273769885
 10
6677.6172919424025
 20
509.5098467826123
 10
6690.9788305386655
 20
498.53429722139566
 10
6702.640104805444
 20
495.7974675465395
 10
6711.007054425816
 20
490.2991863674382
 10
6728.550402133488
 20
461.47797227626154
 10
6725.981060488112
 20
457.2569110017137
 10
6714.221169461335
 20
460.01688542636543
 10
6707.56419416581
 20
465.4851151334044
 10
6695.897527499143
 20
465.4851151334044
  0
LWPOLYLINE
  5
4B
330
17
100
AcDbEntity
  8
K
100
AcDbPolyline
 90
12
 70
1
 10
6675.001411454418
 20
390.25713566755803
 10
6673.334744787752
 20
423.11427852470086
 10
6670.000000000001
 20
428.592787818864
 10
6670.000000000001
 20
434.13886330402573
 10
6674.257359570726
 20
438.3354034523123
 10
6707.6772381706605
 20
413.628564630218
 10
6721.887365242643
 20
387.53686072073765
 10
6715.975621345729
 20
380.59961022946254
 10
6687.540589606864
 20
383.34753346473104
 10
6685.892321113619
 20
386.0554031322049
 10
6679.225654446953
 20
383.31730789410955
 10
6675.001411454418
 20
390.25713566755803
  0
LWPOLYLINE
  5
4C
330
17
100
AcDbEntity
  8
K
100
AcDbPolyline
 90
23
 70
1
 10
6650.0
 20
694.188025914102
 10
6650.0
 20
705.140406866483
 10
6648.333333333333
 20
707.8785021045783
 10
6648.333333333333
 20
727.1086837040928
 10
6655.014053547816
 20
735.3402853969365
 10
6664.201793971244
 20
755.9232103714995
 10
6667.649568226232
 20
755.9232103714995
 10
6675.982901559565
 20
744.9708294191187
 10
6679.322865901605
 20
744.9708294191187
 10
6684.322865901605
 20
736.7565437048329
 10
6687.656199234938
 20
736.7565437048329
 10
6692.656199234938
 20
728.5422579905471
 10
6695.978566184081
 20
728.5422579905471
 10
6706.890316412419
 20
716.1316409726005
 10
6702.662776007298
 20
709.1863960213287
 10
6689.311020502782
 20
706.4445176587943
 10
6682.5744691214395
 20
700.9109218812622
 10
6680.900187830515
 20
703.6615268592087
 10
6667.591681430248
 20
695.462536309044
 10
6664.2765258383615
 20
698.1856998309511
 10
6659.317785738883
 20
692.7546987696172
 10
6651.71699257478
 20
691.3672523983922
 10
6650.0
 20
694.188025914102
  0
LWPOLYLINE
  5
4D
330
17
100
AcDbEntity
  8
K
100
AcDbPolyline
 90
24
 70
1
 10
6474.210467431729
 20
427.1517818000711
 10
6469.210467431729
 20
427.1517818000711
 10
6466.651488300273
 20
431.35581894460694
 10
6479.185003083412
 20
454.69202980273684
 10
6488.3465885241185
 20
464.27005094529386
 10
6490.910696322745
 20
471.2908222986749
 10
6492.646250334618
 20
468.43955499345356
 10
6502.6234936088185
 20
471.1714192232942
 10
6505.9078024547725
 20
468.47359409983216
 10
6507.543800765063
 20
471.16130560959493
 10
6512.656199234939
 20
471.16130560959493
 10
6514.266666666666
 20
468.51553768604003
 10
6515.877134098396
 20
471.16130560959493
 10
6540.877134098396
 20
471.16130560959493
 10
6542.6
 20
473.9917281622306
 10
6544.322865901605
 20
471.16130560959493
 10
6549.322865901605
 20
471.16130560959493
 10
6551.866666666667
 20
466.9822043527068
 10
6551.866666666667
 20
434.0689782950544
 10
6539.319012207803
 20
413.4549745412076
 10
6514.231858901498
 20
416.202615141422
 10
6505.899326171671
 20
421.67827950673666
 10
6475.874096145032
 20
424.41867748535856
 10
6474.210467431729
 20
427.1517818000711
  0
LWPOLYLINE
  5
4E
330
17
100
AcDbEntity
  8
K
100
AcDbPolyline
 90
28
 70
1
 10
6476.666666666668
 20
633.9562256690278
 10
6471.666666666667
 20
644.9086066214088
 10
6471.666666666667
 20
650.3785021045783
 10
6468.333333333334
 20
655.8546925807686
 10
6468.333333333334
 20
666.8070735331496
 10
6466.666666666667
 20
669.5451687712449
 10
6466.666666666667
 20
683.2917281622305
 10
6471.666666666667
 20
691.5060138765162
 10
6471.666666666667
 20
699.7202995908019
 10
6473.333333333334
 20
702.4583948288972
 10
6473.333333333334
 20
707.8785021045783
 10
6471.649597866512
 20
710.6446389429282
 10
6473.320345105293
 20
713.3894379780688
 10
6468.320345105293
 20
724.3418189304498
 10
6470.933333333334
 20
728.6345853050876
 10
6472.656199234938
 20
725.8041627524519
 10
6480.989532568271
 20
725.8041627524519
 10
6482.641012219715
 20
723.0910176107944
 10
6489.307678886382
 20
725.8291128488896
 10
6490.994870305952
 20
723.0572983738825
 10
6507.657208383997
 20
720.3199142610606
 10
6530.218745157362
 20
688.7457000993941
 10
6501.013730471107
 20
638.0243378585716
 10
6487.642197614133
 20
624.2946389429281
 10
6484.322865901604
 20
624.2946389429281
 10
6482.613546406328
 20
621.486471200688
 10
6476.666666666668
 20
628.4649525278412
 10
6476.666666666668
 20
633.9562256690278
  0
LWPOLYLINE
  5
4F
330
17
100
AcDbEntity
  8
K
100
AcDbPolyline
 90
56
 70
1
 10
6452.549651567859
 20
227.26121738595387
 10
6435.882984901192
 20
224.52312214785866
 10
6434.210467431729
 20
227.2708294191187
 10
6414.219036135867
 20
227.2708294191187
 10
6400.885702802533
 20
243.69940084769019
 10
6397.656199234938
 20
243.69940084769019
 10
6394.322865901605
 20
238.22321037149965
 10
6390.977441259442
 20
238.22321037149965
 10
6385.977441259442
 20
232.74701989530914
 10
6382.647630530801
 20
232.74701989530914
 10
6375.921632569427
 20
224.45962955004475
 10
6374.21046743173
 20
227.2708294191187
 10
6370.989532568271
 20
227.2708294191187
 10
6369.322865901605
 20
224.5327341810235
 10
6364.21046743173
 20
224.5327341810235
 10
6362.543800765063
 20
227.2708294191187
 10
6357.543800765063
 20
227.2708294191187
 10
6354.210467431729
 20
232.74701989530914
 10
6350.877134098396
 20
232.74701989530914
 10
6349.210467431729
 20
235.48511513340446
 10
6344.210467431729
 20
235.48511513340446
 10
6341.666666666667
 20
239.66421639029247
 10
6341.666666666667
 20
245.19391370827816
 10
6355.881971499557
 20
271.29512468295513
 10
6367.663636206372
 20
268.53004010890703
 10
6369.322865901605
 20
265.804162752452
 10
6375.969139167525
 20
265.804162752452
 10
6382.635805834192
 20
260.32797227626145
 10
6394.322865901605
 20
260.32797227626145
 10
6395.933333333333
 20
257.68220435270683
 10
6397.543800765063
 20
260.32797227626145
 10
6404.21046743173
 20
260.32797227626145
 10
6405.892321113619
 20
263.09101761079444
 10
6412.558987780286
 20
260.35292237269914
 10
6414.21046743173
 20
263.0660675143568
 10
6429.210467431729
 20
263.0660675143568
 10
6430.877134098396
 20
265.804162752452
 10
6445.877134098396
 20
265.804162752452
 10
6447.55583523761
 20
268.56202890973157
 10
6455.889168570943
 20
265.8239336716364
 10
6457.543800765063
 20
268.5422579905472
 10
6470.877134098396
 20
268.5422579905472
 10
6472.543800765062
 20
271.2803532286424
 10
6487.647630530801
 20
271.2803532286424
 10
6494.3319310844545
 20
263.044340046462
 10
6499.332557875756
 20
260.3059015655109
 10
6528.554893064541
 20
223.27106452013294
 10
6525.989532568271
 20
219.056543704833
 10
6522.543800765063
 20
219.056543704833
 10
6520.877134098396
 20
221.7946389429282
 10
6509.322865901605
 20
221.7946389429282
 10
6507.652809238344
 20
219.05097442471424
 10
6479.20725627353
 20
221.79991441711215
 10
6477.543800765063
 20
224.5327341810235
 10
6454.21046743173
 20
224.5327341810235
 10
6452.549651567859
 20
227.26121738595387
  0
LWPOLYLINE
  5
50
330
17
100
AcDbEntity
  8
K
100
AcDbPolyline
 90
35
 70
1
 10
6407.55043177377
 20
301.19940084769013
 10
6402.55043177377
 20
301.19940084769013
 10
6394.217098440436
 20
312.1517818000711
 10
6390.8906043727875
 20
312.1517818000711
 10
6381.642894184705
 20
321.81984245124784
 10
6405.883417927756
 20
364.3900233103506
 10
6417.650195294952
 20
361.628432703764
 10
6425.982955749208
 20
353.4147116845695
 10
6450.978223448141
 20
347.93955780766026
 10
6460.969139167525
 20
339.73273418102343
 10
6467.656199234939
 20
339.73273418102343
 10
6469.322865901605
 20
336.99463894292813
 10
6475.963249781955
 20
336.99463894292813
 10
6484.296583115287
 20
331.5184484667377
 10
6489.322865901605
 20
331.5184484667377
 10
6490.989532568271
 20
328.7803532286424
 10
6494.322865901605
 20
328.7803532286424
 10
6498.550402133489
 20
321.8351151334044
 10
6496.003091437184
 20
317.65024756090367
 10
6484.336424770518
 20
312.17405708471324
 10
6480.933333333333
 20
306.5832640093401
 10
6479.266666666666
 20
309.32135924743534
 10
6475.989532568272
 20
303.93749608578537
 10
6469.322865901605
 20
303.93749608578537
 10
6466.003091437184
 20
298.483580894237
 10
6454.336424770517
 20
293.00739041804655
 10
6450.989532568271
 20
287.50892465721387
 10
6447.6441079261085
 20
287.50892465721387
 10
6442.6441079261085
 20
282.0327341810235
 10
6439.322865901604
 20
282.0327341810235
 10
6437.650897102982
 20
279.2859282975713
 10
6428.384720604119
 20
280.66983777467414
 10
6419.2239377061205
 20
290.2470198953091
 10
6415.883765107102
 20
290.2470198953091
 10
6407.55043177377
 20
301.19940084769013
  0
LWPOLYLINE
  5
51
330
17
100
AcDbEntity
  8
K
100
AcDbPolyline
 90
7
 70
1
 10
6340.942568489007
 20
103.94904434883104
 10
6339.241135788106
 20
106.74425521459565
 10
6329.294316495447
 20
98.57365365276897
 10
6321.665831009416
 20
99.96615497164765
 10
6322.503346121571
 20
183.8971337111546
 10
6355.214665998957
 20
132.91300694255517
 10
6340.942568489007
 20
103.94904434883104
  0
ENDSEC
  0
SECTION
  2
OBJECTS
  0
DICTIONARY
  5
A
330
0
100
AcDbDictionary
281
1
  3
ACAD_COLOR
350
B
  3
ACAD_GROUP
350
C
  3
ACAD_LAYOUT
350
D
  3
ACAD_MATERIAL
350
E
  3
ACAD_MLEADERSTYLE
350
F
  3
ACAD_MLINESTYLE
350
10
  3
ACAD_PLOTSETTINGS
350
11
  3
ACAD_PLOTSTYLENAME
350
12
  3
ACAD_SCALELIST
350
14
  3
ACAD_TABLESTYLE
350
15
  3
ACAD_VISUALSTYLE
350
16
  3
EZDXF_META
350
2D
  0
DICTIONARY
  5
B
330
A
100
AcDbDictionary
281
1
  0
DICTIONARY
  5
C
330
A
100
AcDbDictionary
281
1
  0
DICTIONARY
  5
D
330
A
100
AcDbDictionary
281
1
  3
Model
350
1A
  3
Layout1
350
1E
  0
DICTIONARY
  5
E
330
A
100
AcDbDictionary
281
1
  3
ByBlock
350
1F
  3
ByLayer
350
20
  3
Global
350
21
  0
DICTIONARY
  5
F
330
A
100
AcDbDictionary
281
1
  3
Standard
350
2C
  0
DICTIONARY
  5
10
330
A
100
AcDbDictionary
281
1
  3
Standard
350
22
  0
DICTIONARY
  5
11
330
A
100
AcDbDictionary
281
1
  0
ACDBDICTIONARYWDFLT
  5
12
330
A
100
AcDbDictionary
281
1
  3
Normal
350
13
100
AcDbDictionaryWithDefault
340
13
  0
ACDBPLACEHOLDER
  5
13
330
12
  0
DICTIONARY
  5
14
330
A
100
AcDbDictionary
281
1
  0
DICTIONARY
  5
15
330
A
100
AcDbDictionary
281
1
  0
DICTIONARY
  5
16
330
A
100
AcDbDictionary
281
1
  0
LAYOUT
  5
1A
330
D
100
AcDbPlotSettings
  1

  4
A3
  6

 40
7.5
 41
20.0
 42
7.5
 43
20.0
 44
420.0
 45
297.0
 46
0.0
 47
0.0
 48
0.0
 49
0.0
140
0.0
141
0.0
142
1.0
143
1.0
 70
1024
 72
1
 73
0
 74
5
  7

 75
16
 76
0
 77
2
 78
300
147
1.0
148
0.0
149
0.0
100
AcDbLayout
  1
Model
 70
1
 71
0
 10
0.0
 20
0.0
 11
420.0
 21
297.0
 12
0.0
 22
0.0
 32
0.0
 14
1e+20
 24
1e+20
 34
1e+20
 15
-1e+20
 25
-1e+20
 35
-1e+20
146
0.0
 13
0.0
 23
0.0
 33
0.0
 16
1.0
 26
0.0
 36
0.0
 17
0.0
 27
1.0
 37
0.0
 76
1
330
17
  0
LAYOUT
  5
1E
330
D
100
AcDbPlotSettings
  1

  4
A3
  6

 40
7.5
 41
20.0
 42
7.5
 43
20.0
 44
420.0
 45
297.0
 46
0.0
 47
0.0
 48
0.0
 49
0.0
140
0.0
141
0.0
142
1.0
143
1.0
 70
0
 72
1
 73
0
 74
5
  7

 75
16
 76
0
 77
2
 78
300
147
1.0
148
0.0
149
0.0
100
AcDbLayout
  1
Layout1
 70
1
 71
1
 10
0.0
 20
0.0
 11
420.0
 21
297.0
 12
0.0
 22
0.0
 32
0.0
 14
1e+20
 24
1e+20
 34
1e+20
 15
-1e+20
 25
-1e+20
 35
-1e+20
146
0.0
 13
0.0
 23
0.0
 33
0.0
 16
1.0
 26
0.0
 36
0.0
 17
0.0
 27
1.0
 37
0.0
 76
1
330
1B
  0
MATERIAL
  5
1F
102
{ACAD_REACTORS
330
E
102
}
330
E
100
AcDbMaterial
  1
ByBlock
  2

 70
0
 40
1.0
 71
1
 41
1.0
 91
-1023410177
 42
1.0
 72
1
  3

 73
1
 74
1
 75
1
 44
0.5
 73
0
 45
1.0
 46
1.0
 77
1
  4

 78
1
 79
1
170
1
 48
1.0
171
1
  6

172
1
173
1
174
1
140
1.0
141
1.0
175
1
  7

176
1
177
1
178
1
143
1.0
179
1
  8

270
1
271
1
272
1
145
1.0
146
1.0
273
1
  9

274
1
275
1
276
1
 42
1.0
 72
1
  3

 73
1
 74
1
 75
1
 94
63
  0
MATERIAL
  5
20
102
{ACAD_REACTORS
330
E
102
}
330
E
100
AcDbMaterial
  1
ByLayer
  2

 70
0
 40
1.0
 71
1
 41
1.0
 91
-1023410177
 42
1.0
 72
1
  3

 73
1
 74
1
 75
1
 44
0.5
 73
0
 45
1.0
 46
1.0
 77
1
  4

 78
1
 79
1
170
1
 48
1.0
171
1
  6

172
1
173
1
174
1
140
1.0
141
1.0
175
1
  7

176
1
177
1
178
1
143
1.0
179
1
  8

270
1
271
1
272
1
145
1.0
146
1.0
273
1
  9

274
1
275
1
276
1
 42
1.0
 72
1
  3

 73
1
 74
1
 75
1
 94
63
  0
MATERIAL
  5
21
102
{ACAD_REACTORS
330
E
102
}
330
E
100
AcDbMaterial
  1
Global
  2

 70
0
 40
1.0
 71
1
 41
1.0
 91
-1023410177
 42
1.0
 72
1
  3

 73
1
 74
1
 75
1
 44
0.5
 73
0
 45
1.0
 46
1.0
 77
1
  4

 78
1
 79
1
170
1
 48
1.0
171
1
  6

172
1
173
1
174
1
140
1.0
141
1.0
175
1
  7

176
1
177
1
178
1
143
1.0
179
1
  8

270
1
271
1
272
1
145
1.0
146
1.0
273
1
  9

274
1
275
1
276
1
 42
1.0
 72
1
  3

 73
1
 74
1
 75
1
 94
63
  0
MLINESTYLE
  5
22
102
{ACAD_REACTORS
330
10
102
}
330
10
100
AcDbMlineStyle
  2
Standard
 70
0
  3

 62
256
 51
90.0
 52
90.0
 71
2
 49
0.5
 62
256
  6
BYLAYER
 49
-0.5
 62
256
  6
BYLAYER
  0
MLEADERSTYLE
  5
2C
102
{ACAD_REACTORS
330
F
102
}
330
F
100
AcDbMLeaderStyle
179
2
170
2
171
1
172
0
 90
2
 40
0.0
 41
0.0
173
1
 91
-1056964608
 92
-2
290
1
 42
2.0
291
1
 43
8.0
  3
Standard
 44
4.0
300

342
29
174
1
175
1
176
0
178
1
 93
-1056964608
 45
4.0
292
0
297
0
 46
4.0
 94
-1056964608
 47
1.0
 49
1.0
140
1.0
294
1
141
0.0
177
0
142
1.0
295
0
296
0
143
3.75
271
0
272
9
273
9
  0
DICTIONARY
  5
2D
330
A
100
AcDbDictionary
280
1
281
1
  3
CREATED_BY_EZDXF
350
2E
  3
WRITTEN_BY_EZDXF
350
54
  0
DICTIONARYVAR
  5
2E
330
2D
100
DictionaryVariables
280
0
  1
1.4.4 @ 2026-07-17T11:08:09.878313+00:00
  0
DICTIONARYVAR
  5
54
330
2D
100
DictionaryVariables
280
0
  1
1.4.4 @ 2026-07-17T11:08:09.884831+00:00
  0
ENDSEC
  0
EOF
