  0
SECTION
  2
HEADER
  9
$ACADVER
  1
AC1027
  9
$ACADMAINTVER
 70
105
  9
$DWGCODEPAGE
  3
ANSI_1252
  9
$LASTSAVEDBY
  1
ezdxf
  9
$REQUIREDVERSIONS
160
0
  9
$INSBASE
 10
0.0
 20
0.0
 30
0.0
  9
$EXTMIN
 10
1e+20
 20
1e+20
 30
1e+20
  9
$EXTMAX
 10
-1e+20
 20
-1e+20
 30
-1e+20
  9
$LIMMIN
 10
0.0
 20
0.0
  9
$LIMMAX
 10
420.0
 20
297.0
  9
$ORTHOMODE
 70
0
  9
$REGENMODE
 70
1
  9
$FILLMODE
 70
1
  9
$QTEXTMODE
 70
0
  9
$MIRRTEXT
 70
1
  9
$LTSCALE
 40
1.0
  9
$ATTMODE
 70
1
  9
$TEXTSIZE
 40
2.5
  9
$TRACEWID
 40
1.0
  9
$TEXTSTYLE
  7
Standard
  9
$CLAYER
  8
0
  9
$CELTYPE
  6
ByLayer
  9
$CECOLOR
 62
256
  9
$CELTSCALE
 40
1.0
  9
$DISPSILH
 70
0
  9
$DIMSCALE
 40
1.0
  9
$DIMASZ
 40
2.5
  9
$DIMEXO
 40
0.625
  9
$DIMDLI
 40
3.75
  9
$DIMRND
 40
0.0
  9
$DIMDLE
 40
0.0
  9
$DIMEXE
 40
1.25
  9
$DIMTP
 40
0.0
  9
$DIMTM
 40
0.0
  9
$DIMTXT
 40
2.5
  9
$DIMCEN
 40
2.5
  9
$DIMTSZ
 40
0.0
  9
$DIMTOL
 70
0
  9
$DIMLIM
 70
0
  9
$DIMTIH
 70
0
  9
$DIMTOH
 70
0
  9
$DIMSE1
 70
0
  9
$DIMSE2
 70
0
  9
$DIMTAD
 70
1
  9
$DIMZIN
 70
8
  9
$DIMBLK
  1

  9
$DIMASO
 70
1
  9
$DIMSHO
 70
1
  9
$DIMPOST
  1

  9
$DIMAPOST
  1

  9
$DIMALT
 70
0
  9
$DIMALTD
 70
3
  9
$DIMALTF
 40
0.03937007874
  9
$DIMLFAC
 40
1.0
  9
$DIMTOFL
 70
1
  9
$DIMTVP
 40
0.0
  9
$DIMTIX
 70
0
  9
$DIMSOXD
 70
0
  9
$DIMSAH
 70
0
  9
$DIMBLK1
  1

  9
$DIMBLK2
  1

  9
$DIMSTYLE
  2
ISO-25
  9
$DIMCLRD
 70
0
  9
$DIMCLRE
 70
0
  9
$DIMCLRT
 70
0
  9
$DIMTFAC
 40
1.0
  9
$DIMGAP
 40
0.625
  9
$DIMJUST
 70
0
  9
$DIMSD1
 70
0
  9
$DIMSD2
 70
0
  9
$DIMTOLJ
 70
0
  9
$DIMTZIN
 70
8
  9
$DIMALTZ
 70
0
  9
$DIMALTTZ
 70
0
  9
$DIMUPT
 70
0
  9
$DIMDEC
 70
2
  9
$DIMTDEC
 70
2
  9
$DIMALTU
 70
2
  9
$DIMALTTD
 70
3
  9
$DIMTXSTY
  7
Standard
  9
$DIMAUNIT
 70
0
  9
$DIMADEC
 70
0
  9
$DIMALTRND
 40
0.0
  9
$DIMAZIN
 70
0
  9
$DIMDSEP
 70
44
  9
$DIMATFIT
 70
3
  9
$DIMFRAC
 70
0
  9
$DIMLDRBLK
  1

  9
$DIMLUNIT
 70
2
  9
$DIMLWD
 70
-2
  9
$DIMLWE
 70
-2
  9
$DIMTMOVE
 70
0
  9
$DIMFXL
 40
1.0
  9
$DIMFXLON
 70
0
  9
$DIMJOGANG
 40
0.785398163397
  9
$DIMTFILL
 70
0
  9
$DIMTFILLCLR
 70
0
  9
$DIMARCSYM
 70
0
  9
$DIMLTYPE
  6

  9
$DIMLTEX1
  6

  9
$DIMLTEX2
  6

  9
$DIMTXTDIRECTION
 70
0
  9
$LUNITS
 70
2
  9
$LUPREC
 70
4
  9
$SKETCHINC
 40
1.0
  9
$FILLETRAD
 40
10.0
  9
$AUNITS
 70
0
  9
$AUPREC
 70
2
  9
$MENU
  1
.
  9
$ELEVATION
 40
0.0
  9
$PELEVATION
 40
0.0
  9
$THICKNESS
 40
0.0
  9
$LIMCHECK
 70
0
  9
$CHAMFERA
 40
0.0
  9
$CHAMFERB
 40
0.0
  9
$CHAMFERC
 40
0.0
  9
$CHAMFERD
 40
0.0
  9
$SKPOLY
 70
0
  9
$TDCREATE
 40
2461239.5889930557
  9
$TDUCREATE
 40
2458532.153996898
  9
$TDUPDATE
 40
2461239.5889930557
  9
$TDUUPDATE
 40
2458532.1544311
  9
$TDINDWG
 40
0.0
  9
$TDUSRTIMER
 40
0.0
  9
$USRTIMER
 70
1
  9
$ANGBASE
 50
0.0
  9
$ANGDIR
 70
0
  9
$PDMODE
 70
0
  9
$PDSIZE
 40
0.0
  9
$PLINEWID
 40
0.0
  9
$SPLFRAME
 70
0
  9
$SPLINETYPE
 70
6
  9
$SPLINESEGS
 70
8
  9
$HANDSEED
  5
58
  9
$SURFTAB1
 70
6
  9
$SURFTAB2
 70
6
  9
$SURFTYPE
 70
6
  9
$SURFU
 70
6
  9
$SURFV
 70
6
  9
$UCSBASE
  2

  9
$UCSNAME
  2

  9
$UCSORG
 10
0.0
 20
0.0
 30
0.0
  9
$UCSXDIR
 10
1.0
 20
0.0
 30
0.0
  9
$UCSYDIR
 10
0.0
 20
1.0
 30
0.0
  9
$UCSORTHOREF
  2

  9
$UCSORTHOVIEW
 70
0
  9
$UCSORGTOP
 10
0.0
 20
0.0
 30
0.0
  9
$UCSORGBOTTOM
 10
0.0
 20
0.0
 30
0.0
  9
$UCSORGLEFT
 10
0.0
 20
0.0
 30
0.0
  9
$UCSORGRIGHT
 10
0.0
 20
0.0
 30
0.0
  9
$UCSORGFRONT
 10
0.0
 20
0.0
 30
0.0
  9
$UCSORGBACK
 10
0.0
 20
0.0
 30
0.0
  9
$PUCSBASE
  2

  9
$PUCSNAME
  2

  9
$PUCSORG
 10
0.0
 20
0.0
 30
0.0
  9
$PUCSXDIR
 10
1.0
 20
0.0
 30
0.0
  9
$PUCSYDIR
 10
0.0
 20
1.0
 30
0.0
  9
$PUCSORTHOREF
  2

  9
$PUCSORTHOVIEW
 70
0
  9
$PUCSORGTOP
 10
0.0
 20
0.0
 30
0.0
  9
$PUCSORGBOTTOM
 10
0.0
 20
0.0
 30
0.0
  9
$PUCSORGLEFT
 10
0.0
 20
0.0
 30
0.0
  9
$PUCSORGRIGHT
 10
0.0
 20
0.0
 30
0.0
  9
$PUCSORGFRONT
 10
0.0
 20
0.0
 30
0.0
  9
$PUCSORGBACK
 10
0.0
 20
0.0
 30
0.0
  9
$USERI1
 70
0
  9
$USERI2
 70
0
  9
$USERI3
 70
0
  9
$USERI4
 70
0
  9
$USERI5
 70
0
  9
$USERR1
 40
0.0
  9
$USERR2
 40
0.0
  9
$USERR3
 40
0.0
  9
$USERR4
 40
0.0
  9
$USERR5
 40
0.0
  9
$WORLDVIEW
 70
1
  9
$SHADEDGE
 70
3
  9
$SHADEDIF
 70
70
  9
$TILEMODE
 70
1
  9
$MAXACTVP
 70
64
  9
$PINSBASE
 10
0.0
 20
0.0
 30
0.0
  9
$PLIMCHECK
 70
0
  9
$PEXTMIN
 10
1e+20
 20
1e+20
 30
1e+20
  9
$PEXTMAX
 10
-1e+20
 20
-1e+20
 30
-1e+20
  9
$PLIMMIN
 10
0.0
 20
0.0
  9
$PLIMMAX
 10
420.0
 20
297.0
  9
$UNITMODE
 70
0
  9
$VISRETAIN
 70
1
  9
$PLINEGEN
 70
0
  9
$PSLTSCALE
 70
1
  9
$TREEDEPTH
 70
3020
  9
$CMLSTYLE
  2
Standard
  9
$CMLJUST
 70
0
  9
$CMLSCALE
 40
20.0
  9
$PROXYGRAPHICS
 70
1
  9
$MEASUREMENT
 70
1
  9
$CELWEIGHT
370
-1
  9
$ENDCAPS
280
0
  9
$JOINSTYLE
280
0
  9
$LWDISPLAY
290
0
  9
$INSUNITS
 70
4
  9
$HYPERLINKBASE
  1

  9
$STYLESHEET
  1

  9
$XEDIT
290
1
  9
$CEPSNTYPE
380
0
  9
$PSTYLEMODE
290
1
  9
$FINGERPRINTGUID
  2
{DA832A42-1D0F-44E4-864A-E3F3EF585BDC}
  9
$VERSIONGUID
  2
{ACE8F450-6214-48C5-A355-6D7958332C06}
  9
$EXTNAMES
290
1
  9
$PSVPSCALE
 40
0.0
  9
$OLESTARTUP
290
0
  9
$SORTENTS
280
127
  9
$INDEXCTL
280
0
  9
$HIDETEXT
280
1
  9
$XCLIPFRAME
280
1
  9
$HALOGAP
280
0
  9
$OBSCOLOR
 70
257
  9
$OBSLTYPE
280
0
  9
$INTERSECTIONDISPLAY
280
0
  9
$INTERSECTIONCOLOR
 70
257
  9
$DIMASSOC
280
2
  9
$PROJECTNAME
  1

  9
$CAMERADISPLAY
290
0
  9
$LENSLENGTH
 40
50.0
  9
$CAMERAHEIGHT
 40
0.0
  9
$STEPSPERSEC
 40
24.0
  9
$STEPSIZE
 40
100.0
  9
$3DDWFPREC
 40
2.0
  9
$PSOLWIDTH
 40
0.005
  9
$PSOLHEIGHT
 40
0.08
  9
$LOFTANG1
 40
1.570796326795
  9
$LOFTANG2
 40
1.570796326795
  9
$LOFTMAG1
 40
0.0
  9
$LOFTMAG2
 40
0.0
  9
$LOFTPARAM
 70
7
  9
$LOFTNORMALS
280
1
  9
$LATITUDE
 40
37.795
  9
$LONGITUDE
 40
-122.394
  9
$NORTHDIRECTION
 40
0.0
  9
$TIMEZONE
 70
-8000
  9
$LIGHTGLYPHDISPLAY
280
1
  9
$TILEMODELIGHTSYNCH
280
1
  9
$CMATERIAL
347
20
  9
$SOLIDHIST
280
0
  9
$SHOWHIST
280
1
  9
$DWFFRAME
280
2
  9
$DGNFRAME
280
2
  9
$REALWORLDSCALE
290
1
  9
$INTERFERECOLOR
 62
256
  9
$CSHADOW
280
0
  9
$SHADOWPLANELOCATION
 40
0.0
  0
ENDSEC
  0
SECTION
  2
CLASSES
  0
CLASS
  1
ACDBDICTIONARYWDFLT
  2
AcDbDictionaryWithDefault
  3
ObjectDBX Classes
 90
0
 91
0
280
0
281
0
  0
CLASS
  1
SUN
  2
AcDbSun
  3
SCENEOE
 90
1153
 91
0
280
0
281
0
  0
CLASS
  1
VISUALSTYLE
  2
AcDbVisualStyle
  3
ObjectDBX Classes
 90
4095
 91
0
280
0
281
0
  0
CLASS
  1
MATERIAL
  2
AcDbMaterial
  3
ObjectDBX Classes
 90
1153
 91
0
280
0
281
0
  0
CLASS
  1
SCALE
  2
AcDbScale
  3
ObjectDBX Classes
 90
1153
 91
0
280
0
281
0
  0
CLASS
  1
TABLESTYLE
  2
AcDbTableStyle
  3
ObjectDBX Classes
 90
4095
 91
0
280
0
281
0
  0
CLASS
  1
MLEADERSTYLE
  2
AcDbMLeaderStyle
  3
ACDB_MLEADERSTYLE_CLASS
 90
4095
 91
0
280
0
281
0
  0
CLASS
  1
DICTIONARYVAR
  2
AcDbDictionaryVar
  3
ObjectDBX Classes
 90
0
 91
0
280
0
281
0
  0
CLASS
  1
CELLSTYLEMAP
  2
AcDbCellStyleMap
  3
ObjectDBX Classes
 90
1152
 91
0
280
0
281
0
  0
CLASS
  1
MENTALRAYRENDERSETTINGS
  2
AcDbMentalRayRenderSettings
  3
SCENEOE
 90
1024
 91
0
280
0
281
0
  0
CLASS
  1
ACDBDETAILVIEWSTYLE
  2
AcDbDetailViewStyle
  3
ObjectDBX Classes
 90
1025
 91
0
280
0
281
0
  0
CLASS
  1
ACDBSECTIONVIEWSTYLE
  2
AcDbSectionViewStyle
  3
ObjectDBX Classes
 90
1025
 91
0
280
0
281
0
  0
CLASS
  1
RASTERVARIABLES
  2
AcDbRasterVariables
  3
ISM
 90
0
 91
0
280
0
281
0
  0
CLASS
  1
LAYOUT
  2
AcDbLayout
  3
ObjectDBX Classes
 90
0
 91
0
280
0
281
0
  0
CLASS
  1
ACDBPLACEHOLDER
  2
AcDbPlaceHolder
  3
ObjectDBX Classes
 90
0
 91
0
280
0
281
0
  0
ENDSEC
  0
SECTION
  2
TABLES
  0
TABLE
  2
VPORT
  5
8
330
0
100
AcDbSymbolTable
 70
1
  0
VPORT
  5
23
330
8
100
AcDbSymbolTableRecord
100
AcDbViewportTableRecord
  2
*Active
 70
0
 10
0.0
 20
0.0
 11
1.0
 21
1.0
 12
0.0
 22
0.0
 13
0.0
 23
0.0
 14
0.5
 24
0.5
 15
0.5
 25
0.5
 16
0.0
 26
0.0
 36
1.0
 17
0.0
 27
0.0
 37
0.0
 40
1000.0
 41
1.34
 42
50.0
 43
0.0
 44
0.0
 50
0.0
 51
0.0
 71
0
 72
1000
 73
1
 74
3
 75
0
 76
0
 77
0
 78
0
281
0
 65
0
146
0.0
  0
ENDTAB
  0
TABLE
  2
LTYPE
  5
2
330
0
100
AcDbSymbolTable
 70
3
  0
LTYPE
  5
24
330
2
100
AcDbSymbolTableRecord
100
AcDbLinetypeTableRecord
  2
ByBlock
 70
0
  3

 72
65
 73
0
 40
0.0
  0
LTYPE
  5
25
330
2
100
AcDbSymbolTableRecord
100
AcDbLinetypeTableRecord
  2
ByLayer
 70
0
  3

 72
65
 73
0
 40
0.0
  0
LTYPE
  5
26
330
2
100
AcDbSymbolTableRecord
100
AcDbLinetypeTableRecord
  2
Continuous
 70
0
  3

 72
65
 73
0
 40
0.0
  0
ENDTAB
  0
TABLE
  2
LAYER
  5
1
330
0
100
AcDbSymbolTable
 70
3
  0
LAYER
  5
27
330
1
100
AcDbSymbolTableRecord
100
AcDbLayerTableRecord
  2
0
 70
0
 62
7
  6
Continuous
370
-3
390
13
347
21
  0
LAYER
  5
28
330
1
100
AcDbSymbolTableRecord
100
AcDbLayerTableRecord
  2
Defpoints
 70
0
 62
7
  6
Continuous
290
0
370
-3
390
13
347
21
  0
LAYER
  5
2F
330
1
100
AcDbSymbolTableRecord
100
AcDbLayerTableRecord
  2
Y
 70
0
 62
7
  6
Continuous
370
-3
390
13
347
21
  0
ENDTAB
  0
TABLE
  2
STYLE
  5
5
330
0
100
AcDbSymbolTable
 70
1
  0
STYLE
  5
29
330
5
100
AcDbSymbolTableRecord
100
AcDbTextStyleTableRecord
  2
Standard
 70
0
 40
0.0
 41
1.0
 50
0.0
 71
0
 42
2.5
  3
txt
  4

  0
ENDTAB
  0
TABLE
  2
VIEW
  5
7
330
0
100
AcDbSymbolTable
 70
0
  0
ENDTAB
  0
TABLE
  2
UCS
  5
6
330
0
100
AcDbSymbolTable
 70
0
  0
ENDTAB
  0
TABLE
  2
APPID
  5
3
330
0
100
AcDbSymbolTable
 70
3
  0
APPID
  5
2A
330
3
100
AcDbSymbolTableRecord
100
AcDbRegAppTableRecord
  2
ACAD
 70
0
  0
APPID
  5
55
330
3
100
AcDbSymbolTableRecord
100
AcDbRegAppTableRecord
  2
HATCHBACKGROUNDCOLOR
 70
0
  0
APPID
  5
56
330
3
100
AcDbSymbolTableRecord
100
AcDbRegAppTableRecord
  2
EZDXF
 70
0
  0
ENDTAB
  0
TABLE
  2
DIMSTYLE
  5
4
330
0
100
AcDbSymbolTable
 70
1
100
AcDbDimStyleTable
  0
DIMSTYLE
105
2B
330
4
100
AcDbSymbolTableRecord
100
AcDbDimStyleTableRecord
  2
Standard
 70
0
 40
1.0
 41
2.5
 42
0.625
 43
3.75
 44
1.25
 45
0.0
 46
0.0
 47
0.0
 48
0.0
 49
2.5
140
2.5
141
2.5
142
0.0
143
0.03937007874
144
1.0
145
0.0
146
1.0
147
0.625
148
0.0
 69
0
 70
0
 71
0
 72
0
 73
0
 74
0
 75
0
 76
0
 77
1
 78
8
 79
3
170
0
171
3
172
1
173
0
174
0
175
0
176
0
177
0
178
0
179
2
271
2
272
2
273
2
274
3
275
0
276
0
277
2
278
44
279
0
280
0
281
0
282
0
283
0
284
8
285
0
286
0
288
0
289
3
290
0
371
-2
372
-2
  0
ENDTAB
  0
TABLE
  2
BLOCK_RECORD
  5
9
330
0
100
AcDbSymbolTable
 70
2
  0
BLOCK_RECORD
  5
17
330
9
100
AcDbSymbolTableRecord
100
AcDbBlockTableRecord
  2
*Model_Space
340
1A
 70
0
280
1
281
0
  0
BLOCK_RECORD
  5
1B
330
9
100
AcDbSymbolTableRecord
100
AcDbBlockTableRecord
  2
*Paper_Space
340
1E
 70
0
280
1
281
0
  0
ENDTAB
  0
ENDSEC
  0
SECTION
  2
BLOCKS
  0
BLOCK
  5
18
330
17
100
AcDbEntity
  8
0
100
AcDbBlockBegin
  2
*Model_Space
 70
0
 10
0.0
 20
0.0
 30
0.0
  3
*Model_Space
  1

  0
ENDBLK
  5
19
330
17
100
AcDbEntity
  8
0
100
AcDbBlockEnd
  0
BLOCK
  5
1C
330
1B
100
AcDbEntity
  8
0
100
AcDbBlockBegin
  2
*Paper_Space
 70
0
 10
0.0
 20
0.0
 30
0.0
  3
*Paper_Space
  1

  0
ENDBLK
  5
1D
330
1B
100
AcDbEntity
  8
0
100
AcDbBlockEnd
  0
ENDSEC
  0
SECTION
  2
ENTITIES
  0
LWPOLYLINE
  5
30
330
17
100
AcDbEntity
  8
Y
100
AcDbPolyline
 90
45
 70
1
 10
60.001098985968056
 20
26.099557877492074
 10
61.68392711716486
 20
31.62885030856713
 10
80.00980780503531
 20
64.47263647643886
 10
80.00980780503531
 20
75.38700776966084
 10
76.67647447170201
 20
89.07748396013702
 10
76.67647447170201
 20
97.27572672235782
 10
73.34314113836871
 20
102.75191719854823
 10
73.34314113836871
 20
108.22810767473875
 10
71.676474471702
 20
110.96620291283396
 10
71.676474471702
 20
119.18048862711969
 10
67.55360857009762
 20
125.9537683226126
 10
62.5636402513089
 20
125.9537683226126
 10
56.69070448726998
 20
132.84547865796455
 10
48.346239299535966
 20
152.0377485897528
 10
46.68062911379267
 20
162.98318695320887
 10
41.68195242470052
 20
171.19529865671743
 10
40.00401238145701
 20
179.46514601270312
 10
45.86654850268446
 20
189.0964553547196
 10
55.866548502684466
 20
197.31074106900533
 10
64.20496970532864
 20
211.00957590192067
 10
69.29735036508511
 20
213.79826054893022
 10
74.32058239780982
 20
208.29662546546976
 10
77.66600703997307
 20
208.29662546546976
 10
81.0093882819547
 20
202.80392771078556
 10
89.342721615288
 20
200.06583247269035
 10
92.66600703997297
 20
194.6061492749935
 10
97.65391573114324
 20
194.6061492749935
 10
102.65391573114313
 20
189.1299587988031
 10
107.6660070399731
 20
189.1299587988031
 10
112.66600703997298
 20
180.91567308451735
 10
117.6660070399731
 20
180.91567308451735
 10
120.20179666192665
 20
176.74973299130778
 10
128.53610101830694
 20
149.3655901060583
 10
138.53610101830694
 20
130.19892343939162
 10
143.54314113836864
 20
113.74722018776049
 10
143.54314113836864
 20
105.5460956371532
 10
148.54314113836864
 20
97.33180992286746
 10
148.54314113836864
 20
91.85317450309724
 10
163.54314113836855
 20
64.47222212214487
 10
163.54314113836855
 20
53.52228611334364
 10
171.87313014090532
 20
39.837304180605244
 10
173.54660118455567
 20
26.09093489347475
 10
170.99890987137468
 20
21.905442021819958
 10
61.71984775818829
 20
23.27589918027323
 10
60.001098985968056
 20
26.099557877492074
  0
LWPOLYLINE
  5
31
330
17
100
AcDbEntity
  8
Y
100
AcDbPolyline
 90
17
 70
1
 10
139.20639781946863
 20
345.02418598436014
 10
136.67647447170194
 20
349.1804886271198
 10
136.67647447170194
 20
354.65667910331035
 10
133.3201072778487
 20
360.1707109217833
 10
139.23030691797555
 20
367.10614927499364
 10
145.89903321226083
 20
367.10614927499364
 10
150.89903321226072
 20
372.58233975118407
 10
157.56569987892743
 20
372.58233975118407
 10
162.55107662796874
 20
378.0425142858484
 10
169.31748669141666
 20
380.8215755619074
 10
171.87647447170207
 20
376.61752420858187
 10
171.87647447170207
 20
371.08525053188157
 10
170.20646347423852
 20
368.3416610360487
 10
166.8731301409051
 20
340.9607086550963
 10
164.3282099289314
 20
336.7797683068537
 10
153.4143686160312
 20
338.1589900112313
 10
139.20639781946863
 20
345.02418598436014
  0
LWPOLYLINE
  5
32
330
17
100
AcDbEntity
  8
Y
100
AcDbPolyline
 90
33
 70
1
 10
60.02601258435114
 20
414.854691230189
 10
56.67647447170199
 20
425.8603164574648
 10
56.67647447170199
 20
431.323345769977
 10
53.34554568525785
 20
436.79558591913525
 10
51.67401068183008
 20
456.0182384585539
 10
64.22027523676421
 20
476.6299587988031
 10
69.2172345641322
 20
476.6299587988031
 10
84.19806123136786
 20
503.9759122389953
 10
87.57400197084408
 20
506.7490064178507
 10
135.98724906447657
 20
506.7490064178507
 10
140.98724906447646
 20
501.27281594166027
 10
145.98414169793628
 20
501.27281594166027
 10
154.31747503126957
 20
493.05853022737455
 10
160.99186358938178
 20
493.05853022737455
 10
168.56454754120898
 20
483.38232295559544
 10
166.01289924221885
 20
479.1903293215405
 10
142.67027012873191
 20
468.2335850437813
 10
137.65391573114317
 20
462.73948260832697
 10
124.22027523676427
 20
462.73948260832697
 10
122.5477151901767
 20
465.4872598277208
 10
107.5477151901768
 20
468.22535506581596
 10
105.88694190343095
 20
470.9537683226127
 10
90.99934037330637
 20
470.9537683226127
 10
88.54314113836858
 20
466.9185838652151
 10
88.54314113836858
 20
461.49847658953405
 10
90.2098078050353
 20
458.7603813514388
 10
90.2098078050353
 20
436.7995362461674
 10
87.66600703997307
 20
432.6204349892794
 10
82.66600703997295
 20
432.6204349892794
 10
77.66600703997307
 20
424.40614927499365
 10
72.6539157311431
 20
424.40614927499365
 10
62.63068369841829
 20
413.4283237153428
 10
60.02601258435114
 20
414.854691230189
  0
LWPOLYLINE
  5
33
330
17
100
AcDbEntity
  8
Y
100
AcDbPolyline
 90
21
 70
1
 10
70.86516041641
 20
306.70383790843283
 10
65.88694190343092
 20
314.8823397511841
 10
62.55360857009751
 20
314.8823397511841
 10
60.00547307022763
 20
319.0685623581132
 10
61.68062911379268
 20
330.07673064439734
 10
65.88694190343092
 20
336.98710165594593
 10
77.55360857009764
 20
336.98710165594593
 10
79.22027523676434
 20
339.72519689404123
 10
100.99934037330627
 20
339.72519689404123
 10
102.66600703997297
 20
336.98710165594593
 10
105.99934037330638
 20
336.98710165594593
 10
110.99934037330628
 20
328.7728159416602
 10
115.99338362048329
 20
328.7728159416602
 10
125.23444642241543
 20
316.3513873702317
 10
115.99338362048329
 20
303.9299587988031
 10
102.66600703997297
 20
303.9299587988031
 10
100.99934037330627
 20
301.19186356070793
 10
89.33267370663967
 20
301.19186356070793
 10
87.6607049080167
 20
298.4450576772557
 10
78.39823384802503
 20
299.8284137446571
 10
70.86516041641
 20
306.70383790843283
  0
LWPOLYLINE
  5
34
330
17
100
AcDbEntity
  8
Y
100
AcDbPolyline
 90
20
 70
1
 10
94.2359445280181
 20
588.6980998700926
 10
82.5781352283036
 20
596.9061492749936
 10
72.56569987892736
 20
596.9061492749936
 10
67.56569987892746
 20
602.3823397511841
 10
59.22027523676432
 20
602.3823397511841
 10
57.553608570097616
 20
605.1204349892793
 10
54.2202752367642
 20
605.1204349892793
 10
51.66348624366157
 20
609.3208740493766
 10
56.68033696364194
 20
620.3101661026673
 10
61.68142735117155
 20
647.6970896534245
 10
65.88694190343092
 20
654.6061492749936
 10
79.33267370663977
 20
654.6061492749936
 10
80.99934037330637
 20
651.8680540368983
 10
92.66600703997297
 20
651.8680540368983
 10
94.33267370663967
 20
649.129958798803
 10
110.99934037330628
 20
649.129958798803
 10
113.5441499265668
 20
644.9492002470179
 10
111.87588736356969
 20
598.3570100947379
 10
107.67623566854434
 20
585.9380400823059
 10
94.2359445280181
 20
588.6980998700926
  0
LWPOLYLINE
  5
35
330
17
100
AcDbEntity
  8
Y
100
AcDbPolyline
 90
24
 70
1
 10
4.200947021783308
 20
725.6195398762031
 10
0.0
 20
735.2817180263047
 10
11.676474471701948
 20
759.9452916553079
 10
11.676474471701948
 20
765.4223065309524
 10
25.918199909082173
 20
794.3246316832826
 10
30.987249064476586
 20
788.7728159416603
 10
35.999340373306325
 20
788.7728159416603
 10
41.0184916080496
 20
780.527067484582
 10
59.35182494138302
 20
766.8365912941058
 10
64.33267370663964
 20
758.6537683226126
 10
67.66600703997305
 20
758.6537683226126
 10
70.99934037330635
 20
753.1775778464222
 10
75.99934037330635
 20
753.1775778464222
 10
78.56020993852364
 20
748.9704349892793
 10
76.00677734473949
 20
744.7755100137766
 10
64.32197167703413
 20
742.0331576631928
 10
57.6456136392266
 20
736.5490064178507
 10
44.31228030589318
 20
736.5490064178507
 10
37.64561363922658
 20
731.0728159416603
 10
24.312280305893164
 20
731.0728159416603
 10
17.645613639226564
 20
725.5966254654697
 10
12.666007039973003
 20
725.5966254654697
 10
10.984153358083448
 20
722.8335801309369
 10
4.200947021783308
 20
725.6195398762031
  0
LWPOLYLINE
  5
36
330
17
100
AcDbEntity
  8
Y
100
AcDbPolyline
 90
38
 70
1
 10
795.8805134582194
 20
695.4978613865628
 10
780.8990332122607
 20
711.9061492749936
 10
777.563640251309
 20
711.9061492749936
 10
765.8727962390606
 20
725.6249968403872
 10
759.2406686375108
 20
731.0728159416603
 10
755.8955106075684
 20
731.0728159416603
 10
742.5621772742351
 20
747.5013873702317
 10
737.5590153042091
 20
747.5013873702317
 10
727.5590153042091
 20
761.1918635607079
 10
724.2100984938835
 20
761.1918635607079
 10
716.6644593353387
 20
779.0977850559848
 10
719.2509435931406
 20
783.3470091938023
 10
722.5842769264741
 20
780.6089139557071
 10
724.276474471702
 20
783.3889527800102
 10
726.0046781109861
 20
780.5497610869003
 10
742.6525251988196
 20
777.8147576367562
 10
749.3122803058934
 20
772.3442445130888
 10
754.3326737066396
 20
772.3442445130888
 10
757.666007039973
 20
766.8680540368982
 10
762.6539157311431
 20
766.8680540368982
 10
767.653915731143
 20
761.3918635607079
 10
774.3326737066396
 20
761.3918635607079
 10
777.6781615045599
 20
755.8957050355531
 10
784.3448281712266
 20
753.1576097974578
 10
787.666007039973
 20
747.7013873702316
 10
790.9993403733063
 20
747.7013873702316
 10
794.3326737066396
 20
742.2251968940412
 10
797.6574383358356
 20
742.2251968940412
 10
804.324105002502
 20
734.0109111797555
 10
807.666007039973
 20
734.0109111797555
 10
813.5389864962779
 20
724.3624449301116
 10
815.2056531629446
 20
713.4100639777306
 10
823.5431411383687
 20
699.7127623038198
 10
823.5431411383687
 20
694.1804886271198
 10
820.9993403733065
 20
690.0013873702317
 10
812.6660070399729
 20
690.0013873702317
 10
810.9788935215554
 20
687.2297008756883
 10
795.8805134582194
 20
695.4978613865628
  0
LWPOLYLINE
  5
37
330
17
100
AcDbEntity
  8
Y
100
AcDbPolyline
 90
108
 70
1
 10
623.4045636598751
 20
12.323430211422181
 10
612.5269421573578
 20
21.94594154057203
 10
608.3350068605284
 20
31.587392723279734
 10
634.9986833151471
 20
100.0320979081267
 10
632.5536085700976
 20
104.04900641785072
 10
625.886941903431
 20
104.04900641785072
 10
624.2202752367642
 20
106.78710165594593
 10
599.2202752367642
 20
106.78710165594593
 10
596.676474471702
 20
110.96620291283396
 10
596.676474471702
 20
119.18048862711969
 10
595.0098078050353
 20
121.9185838652149
 10
595.0098078050353
 20
141.08525053188157
 10
593.3431411383687
 20
143.82334576997687
 10
593.3431411383687
 20
160.25191719854823
 10
591.676474471702
 20
162.99001243664355
 10
591.676474471702
 20
168.5222861133436
 10
594.2202752367642
 20
172.70138737023163
 10
604.3326737066396
 20
172.70138737023163
 10
605.9993403733064
 20
169.96329213213642
 10
627.666007039973
 20
169.96329213213642
 10
629.3326737066398
 20
167.22519689404123
 10
650.9993403733063
 20
167.22519689404123
 10
653.5501046598373
 20
163.034655566169
 10
650.2098078050353
 20
149.3155791982322
 10
650.2098078050353
 20
141.08525053188157
 10
646.876474471702
 20
135.60906005569115
 10
646.876474471702
 20
127.39477434140542
 10
645.2098078050352
 20
124.65667910331021
 10
645.2098078050352
 20
116.49847658953414
 10
647.666007039973
 20
112.46329213213643
 10
667.666007039973
 20
112.46329213213643
 10
669.3326737066396
 20
109.72519689404123
 10
707.5536085700975
 20
109.72519689404123
 10
710.0098078050353
 20
113.76038135143892
 10
710.0098078050353
 20
143.82334576997687
 10
705.886941903431
 20
150.5966254654698
 10
702.5536085700976
 20
150.5966254654698
 10
699.2202752367642
 20
156.0728159416602
 10
692.5536085700976
 20
156.0728159416602
 10
689.2202752367642
 20
161.54900641785073
 10
685.8990332122607
 20
161.54900641785073
 10
680.8990332122607
 20
167.02519689404124
 10
675.8990332122607
 20
167.02519689404124
 10
670.884409961302
 20
172.51740331175776
 10
664.2081207721774
 20
175.25945065729118
 10
661.6594056715469
 20
179.4466254654697
 10
663.3431411383687
 20
182.21276230381986
 10
663.3431411383687
 20
187.68895278001028
 10
666.676474471702
 20
193.1651432562008
 10
666.676474471702
 20
198.64133373239122
 10
669.1960926191045
 20
202.78070640312416
 10
679.232366545594
 20
213.77281594166018
 10
682.5536085700976
 20
213.77281594166018
 10
689.9993691943297
 20
226.00513696718446
 10
687.5226484925983
 20
232.78663412668752
 10
682.5656998789275
 20
238.2156730845174
 10
679.2288439409017
 20
238.2156730845174
 10
665.8955106075683
 20
254.64424451308886
 10
662.5536085700976
 20
254.64424451308886
 10
658.3361776169
 20
261.5728810790563
 10
661.6776812837161
 20
275.2969139963368
 10
663.3459389618126
 20
291.7411682518586
 10
666.676474471702
 20
297.2127623038199
 10
666.676474471702
 20
305.41980514193057
 10
670.9129547301611
 20
315.16370973638664
 10
675.9992920612324
 20
309.5929593261657
 10
684.342721615288
 20
306.85154675840465
 10
687.67816150456
 20
301.3718955117436
 10
701.0114948378932
 20
295.8957050355531
 10
704.342721615288
 20
290.4229753298332
 10
712.6588124617913
 20
287.6905454802679
 10
722.6864004407196
 20
279.4535982118624
 10
725.2098078050353
 20
275.3080003990579
 10
725.2098078050353
 20
269.77572672235783
 10
723.5431411383686
 20
267.03763148426265
 10
723.5431411383686
 20
256.1012934839465
 10
720.2190544450375
 20
242.44879456490796
 10
725.9934991893733
 20
235.6726604261464
 10
751.0029646139533
 20
232.9335284986924
 10
752.6660070399731
 20
230.20138737023163
 10
760.9993403733064
 20
230.20138737023163
 10
762.6660070399729
 20
227.46329213213642
 10
777.666007039973
 20
227.46329213213642
 10
779.3401106780728
 20
224.71297901240104
 10
791.0067773447396
 20
221.9748837743057
 10
793.5327633500782
 20
217.82504962267788
 10
796.8824566325752
 20
209.57044831938174
 10
795.2098078050353
 20
204.0746021717505
 10
795.2098078050353
 20
193.10595507675808
 10
781.021584851111
 20
172.53899323178388
 10
775.9872490644764
 20
167.02519689404124
 10
772.6660070399731
 20
167.02519689404124
 10
768.5523606792533
 20
160.26706358714446
 10
783.556601094163
 20
113.70628579167061
 10
774.3192034322484
 20
104.04900641785072
 10
767.650808364603
 20
104.04900641785072
 10
759.3174750312696
 20
95.834720703565
 10
750.9872490644765
 20
95.834720703565
 10
745.9872490644766
 20
90.35853022737459
 10
739.3205823978097
 20
90.35853022737459
 10
734.3205823978099
 20
84.88233975118409
 10
729.3326737066396
 20
84.88233975118409
 10
725.2046573431778
 20
78.1005985826394
 10
716.872220645975
 20
34.29578851734536
 10
710.2098078050353
 20
20.61404786184415
 10
710.2098078050353
 20
15.132869579500719
 10
707.6654480941223
 20
10.952850054429476
 10
623.4045636598751
 20
12.323430211422181
  0
LWPOLYLINE
  5
38
330
17
100
AcDbEntity
  8
Y
100
AcDbPolyline
 90
48
 70
1
 10
675.0499843294505
 20
368.28115100367575
 10
673.3431411383687
 20
371.0852505318818
 10
673.3431411383687
 20
379.33957649461195
 10
676.676474471702
 20
393.03005268508815
 10
676.676474471702
 20
403.9423933890246
 10
670.8883276633288
 20
413.45149171706606
 10
602.5549943299955
 20
410.71339647897076
 10
600.0098078050353
 20
414.89477434140554
 10
600.0098078050353
 20
420.4270480181055
 10
603.3431411383687
 20
425.9032384942959
 10
603.3431411383687
 20
442.33180992286736
 10
605.0098078050353
 20
445.06990516096255
 10
605.0098078050353
 20
458.7603813514388
 10
606.6764744717019
 20
461.49847658953405
 10
606.6764744717019
 20
466.9139928750531
 10
596.676474471702
 20
480.6044690655292
 10
596.676474471702
 20
483.395995618121
 10
600.8591533984185
 20
493.0161571495688
 10
605.0255488400206
 20
497.1230326562909
 10
616.6643290067092
 20
524.4385371291316
 10
604.9927390048803
 20
543.6132921321365
 10
607.5536085700977
 20
547.8204349892792
 10
620.8869419034309
 20
547.8204349892792
 10
622.5536085700976
 20
550.5585302273746
 10
651.013079896274
 20
550.5585302273746
 10
653.5535797490743
 20
543.6023996780409
 10
646.8971429697222
 20
532.6668249691053
 10
664.34343247645
 20
509.46444674757277
 10
669.3410520313673
 20
506.7276550865465
 10
687.6565152287178
 20
484.8442445130888
 10
702.5798913564147
 20
484.8442445130888
 10
710.9132246897481
 20
490.32043498927936
 10
715.9841416979363
 20
490.32043498927936
 10
724.3174750312695
 20
482.10614927499364
 10
727.666007039973
 20
482.10614927499364
 10
731.893543271857
 20
475.16091117975543
 10
730.2081169204828
 20
472.3919964596406
 10
728.5414502538159
 20
445.0110440786882
 10
725.2081169204827
 20
439.5348536024978
 10
723.5458084187374
 20
412.2254996452558
 10
735.204144676949
 20
401.2809390763227
 10
738.5469896695827
 20
376.5677635950666
 10
735.9993403733063
 20
372.3823397511841
 10
697.666007039973
 20
372.3823397511841
 10
695.9993403733064
 20
369.64424451308884
 10
689.3326737066396
 20
369.64424451308884
 10
687.662153346172
 20
366.8998182066063
 10
675.0499843294505
 20
368.28115100367575
  0
LWPOLYLINE
  5
39
330
17
100
AcDbEntity
  8
Y
100
AcDbPolyline
 90
19
 70
1
 10
553.3553106361643
 20
50.690234360545396
 10
546.676474471702
 20
80.86426203213381
 10
546.676474471702
 20
89.11752420858174
 10
550.8716363719954
 20
96.00957590192068
 10
555.8716363719954
 20
98.7476711400159
 10
564.2764744717019
 20
112.555619446677
 10
565.9993403733064
 20
109.72519689404123
 10
575.9789469725599
 20
109.72519689404123
 10
582.6456136392267
 20
104.24900641785071
 10
585.9993403733064
 20
104.24900641785071
 10
588.5518499574358
 20
100.05559781535231
 10
581.874685745009
 20
78.11634397452121
 10
580.2073165228268
 20
64.42009679231047
 10
576.0087058010121
 20
54.763292132136485
 10
565.9993403733064
 20
54.763292132136485
 10
564.3326737066396
 20
52.02519689404125
 10
557.666007039973
 20
52.02519689404125
 10
555.9788935215553
 20
49.25351039949788
 10
553.3553106361643
 20
50.690234360545396
  0
LWPOLYLINE
  5
3A
330
17
100
AcDbEntity
  8
Y
100
AcDbPolyline
 90
101
 70
1
 10
2958.3431411383685
 20
42.57558180089791
 10
2958.3431411383685
 20
50.728107674738816
 10
2956.676474471702
 20
53.46620291283405
 10
2956.676474471702
 20
91.79953624616729
 10
2953.343141138369
 20
97.27572672235782
 10
2953.343141138369
 20
121.98209879806285
 10
2960.0098078050355
 20
130.19638451234857
 10
2960.0098078050355
 20
193.1651432562008
 10
2962.553608570098
 20
197.34424451308882
 10
2967.553608570098
 20
197.34424451308882
 10
2969.215785620887
 20
200.0749639536705
 10
2989.215785620887
 20
202.81305919176572
 10
2990.8869419034313
 20
205.55853022737455
 10
2997.553608570098
 20
205.55853022737455
 10
2999.2128382653314
 20
208.28440758382956
 10
3010.879504931998
 20
211.02250282192477
 10
3013.343141138369
 20
215.06990516096266
 10
3013.343141138369
 20
228.76038135143892
 10
3016.6764744717025
 20
234.23657182762932
 10
3016.6764744717025
 20
253.40323849429603
 10
3018.314904315872
 20
256.09494466686056
 10
3010.9043670930478
 20
262.8585302273746
 10
3002.5656998789277
 20
262.8585302273746
 10
2997.5656998789277
 20
268.334720703565
 10
2992.553608570098
 20
268.334720703565
 10
2990.8869419034313
 20
271.0728159416602
 10
2982.5740019708446
 20
271.0728159416602
 10
2975.9073353041776
 20
276.54900641785076
 10
2967.553608570098
 20
276.54900641785076
 10
2965.886941903431
 20
279.28710165594595
 10
2962.553608570098
 20
279.28710165594595
 10
2960.0098078050355
 20
283.466202912834
 10
2960.0098078050355
 20
299.8947743414054
 10
2958.3431411383685
 20
302.63286957950066
 10
2958.3431411383685
 20
308.15957736959365
 10
2964.1925109011145
 20
320.51487880723016
 10
2969.2323665455942
 20
326.034720703565
 10
2985.9993403733065
 20
326.034720703565
 10
2987.666007039973
 20
323.2966254654698
 10
3027.6456136392267
 20
323.2966254654698
 10
3037.6098078050354
 20
315.1117516864126
 10
3040.9073353041776
 20
317.82043498927925
 10
3047.553608570098
 20
317.82043498927925
 10
3049.2202752367643
 20
320.55853022737455
 10
3070.9933836204837
 20
320.55853022737455
 10
3080.2098078050353
 20
308.1702197974896
 10
3080.2098078050353
 20
291.6804886271197
 10
3078.5417296839505
 20
288.940074571052
 10
3076.8779061333726
 20
256.1389817167904
 10
3082.676054948621
 20
246.6134515203094
 10
3090.898976375978
 20
243.91163447989226
 10
3092.553608570098
 20
246.6299587988031
 10
3107.553608570098
 20
246.6299587988031
 10
3109.2136984644044
 20
249.3572493394501
 10
3122.5470317977383
 20
252.09534457754535
 10
3124.2202752367643
 20
254.84424451308885
 10
3140.886941903431
 20
254.84424451308885
 10
3142.553608570098
 20
257.58233975118407
 10
3149.220275236765
 20
257.58233975118407
 10
3150.8869419034313
 20
260.32043498927925
 10
3157.5536085700974
 20
260.32043498927925
 10
3159.299111482291
 20
263.1880469164546
 10
3161.886913082408
 20
256.1023996780406
 10
3160.208396350617
 20
253.3448364758134
 10
3158.5417296839505
 20
220.48769361867056
 10
3156.8764744717023
 20
217.7519171985481
 10
3156.8764744717023
 20
201.32334576997675
 10
3153.560209938524
 20
195.87519689404118
 10
3155.9993403733065
 20
191.8680540368983
 10
3170.9993403733065
 20
191.8680540368983
 10
3172.6660070399735
 20
189.1299587988031
 10
3219.3420391343457
 20
189.1299587988031
 10
3223.543888392735
 20
179.46570550450798
 10
3221.8754757584056
 20
132.86932407432303
 10
3215.9993403733065
 20
123.21567308451739
 10
3209.2202752367643
 20
123.21567308451739
 10
3205.8869419034313
 20
128.6918635607079
 10
3194.33267370664
 20
128.6918635607079
 10
3189.33267370664
 20
120.47757784642218
 10
3170.9993403733065
 20
120.47757784642218
 10
3168.560209938524
 20
116.47043498927931
 10
3171.8935432718577
 20
110.99424451308879
 10
3166.8935432718577
 20
102.77995879880305
 10
3171.8822698952804
 20
94.58419363175094
 10
3170.2128419152764
 20
86.35629858744493
 10
3171.882456632575
 20
80.87042165917691
 10
3168.549123299242
 20
72.65613594489118
 10
3171.876474471702
 20
61.72341066395054
 10
3171.876474471702
 20
56.20429815092909
 10
3169.3326737066395
 20
52.02519689404125
 10
3162.6660070399735
 20
52.02519689404125
 10
3161.0038299891844
 20
49.294477453459606
 10
3141.0038299891844
 20
46.55638221536437
 10
3138.560209938524
 20
42.54186356070791
 10
3140.209807805036
 20
39.83180992286764
 10
3140.209807805036
 20
26.08525053188149
 10
3137.6657567554184
 20
21.90573809322463
 10
2950.053359310453
 20
23.275606392029136
 10
2948.334432319302
 20
26.099557877492074
 10
2950.0193632126657
 20
31.635759384259305
 10
2958.3431411383685
 20
42.57558180089791
  0
LWPOLYLINE
  5
3B
330
17
100
AcDbEntity
  8
Y
100
AcDbPolyline
 90
22
 70
1
 10
3148.343141138369
 20
165.7841908752486
 10
3150.009807805035
 20
168.52228611334382
 10
3150.009807805035
 20
182.1566791033101
 10
3147.553608570098
 20
186.1918635607079
 10
3142.553608570098
 20
186.1918635607079
 10
3140.886941903431
 20
188.9299587988031
 10
3127.579891356415
 20
188.9299587988031
 10
3119.2465580230814
 20
194.40614927499354
 10
3104.240668637511
 20
194.40614927499354
 10
3097.5670904112512
 20
199.88801710370706
 10
3080.9934895705105
 20
202.61082295611442
 10
3075.999340373307
 20
194.40614927499354
 10
3072.666007039973
 20
194.40614927499354
 10
3066.8764744717023
 20
184.89477434140542
 10
3066.8764744717023
 20
182.19960114014143
 10
3073.53512999526
 20
160.3211615627363
 10
3076.869529502603
 20
154.84321951495835
 10
3081.869529502603
 20
135.6765528482917
 10
3085.9993403733065
 20
128.8918635607079
 10
3145.8869419034313
 20
128.8918635607079
 10
3148.343141138369
 20
132.9270480181058
 10
3148.343141138369
 20
165.7841908752486
  0
LWPOLYLINE
  5
3C
330
17
100
AcDbEntity
  8
Y
100
AcDbPolyline
 90
21
 70
1
 10
3141.6813476374055
 20
346.4363746321958
 10
3140.015285758034
 20
354.64767960909813
 10
3131.686852259993
 20
368.3301060701656
 10
3124.9982283225695
 20
384.8127864873876
 10
3130.874787438844
 20
394.4671336069817
 10
3137.5414541055106
 20
397.20522884507693
 10
3140.886941903431
 20
402.70138737023166
 10
3145.8869419034313
 20
402.70138737023166
 10
3149.2764744717024
 20
408.2699051609628
 10
3152.666007039973
 20
402.70138737023166
 10
3156.0148877304837
 20
402.70138737023166
 10
3160.2004007316823
 20
390.3242274952604
 10
3181.8720356747253
 20
357.4595503288871
 10
3183.539904066597
 20
346.4992723251549
 10
3188.5399040665975
 20
335.5468913727739
 10
3191.8735644588514
 20
313.63998022367787
 10
3198.554720620835
 20
297.1757025387899
 10
3196.0025515315056
 20
292.9828533206061
 10
3181.7492062564083
 20
291.6054291973824
 10
3164.1993338948582
 20
303.9619719825554
 10
3141.6813476374055
 20
346.4363746321958
  0
LWPOLYLINE
  5
3D
330
17
100
AcDbEntity
  8
Y
100
AcDbPolyline
 90
108
 70
1
 10
3014.2012941809544
 20
470.9809259114146
 10
3005.8817364361435
 20
487.3823397511841
 10
3004.2202752367643
 20
487.3823397511841
 10
2998.3366154122027
 20
497.04835232010714
 10
3003.3479247904825
 20
519.0026600725719
 10
3008.3257282884574
 20
529.9064201157548
 10
3002.563640251309
 20
536.6680540368983
 10
2980.881228353324
 20
536.6680540368983
 10
2973.349905111088
 20
551.7904729280542
 10
2968.343141138369
 20
568.2412688384172
 10
2968.343141138369
 20
573.7603813514388
 10
2970.886941903431
 20
577.9394826083269
 10
2975.886941903431
 20
577.9394826083269
 10
2977.553608570098
 20
580.6775778464222
 10
3025.8869419034313
 20
580.6775778464222
 10
3027.5536085700974
 20
583.4156730845174
 10
3032.5536085700974
 20
583.4156730845174
 10
3034.9982283225695
 20
587.4318341064352
 10
3031.6788140228573
 20
595.611819345012
 10
3030.013152135832
 20
609.2940419884296
 10
3021.677605491239
 20
622.9881543331186
 10
3020.0111662289487
 20
664.0539790109941
 10
3011.6764744717025
 20
675.0081453205179
 10
3011.6764744717025
 20
680.546095637153
 10
3013.343141138369
 20
683.2841908752483
 10
3013.343141138369
 20
696.9746670657245
 10
3016.6764744717025
 20
702.450857541915
 10
3016.6764744717025
 20
707.8588806863703
 10
3007.567078844489
 20
717.3823397511841
 10
3004.2202752367643
 20
717.3823397511841
 10
3000.8747874388446
 20
722.8784982763389
 10
2994.2081207721776
 20
725.616593514434
 10
2990.8733830345186
 20
731.0950912263024
 10
2979.2067163678516
 20
736.5712817024929
 10
2975.886941903431
 20
742.0251968940412
 10
2972.5656998789277
 20
742.0251968940412
 10
2967.5656998789277
 20
747.5013873702317
 10
2964.227752020689
 20
747.5013873702317
 10
2956.6610242635234
 20
757.1699839488327
 10
2960.8650838224203
 20
766.8393209342961
 10
2965.8764443020195
 20
769.5836373874101
 10
2974.2269062454707
 20
780.5585302273745
 10
2977.553608570098
 20
780.5585302273745
 10
2981.667765652635
 20
787.317502577257
 10
2978.3431411383685
 20
798.2412688384172
 10
2978.3431411383685
 20
803.7105931439504
 10
2973.34637821014
 20
814.6558833676896
 10
2971.679384484553
 20
825.6104135644046
 10
2968.343141138369
 20
833.8318703817868
 10
2968.343141138369
 20
839.2995362461673
 10
2966.659405671547
 20
842.0656730845174
 10
2969.2202752367643
 20
846.2728159416603
 10
2980.9730575869894
 20
846.2728159416603
 10
2989.306390920323
 20
840.7966254654699
 10
3000.9789469725597
 20
840.7966254654699
 10
3010.97894697256
 20
832.5823397511839
 10
3015.9993403733065
 20
832.5823397511839
 10
3019.3427216152886
 20
827.0896419964998
 10
3027.6760549486216
 20
824.3515467584045
 10
3031.014645904742
 20
818.8667187590636
 10
3036.014645904742
 20
816.1286235209683
 10
3048.5327633500783
 20
795.5631448607728
 10
3051.8880539541683
 20
787.2947501578377
 10
3049.33267370664
 20
783.0966254654697
 10
3044.2202752367643
 20
783.0966254654697
 10
3042.553608570098
 20
785.8347207035649
 10
3012.6660070399735
 20
785.8347207035649
 10
3010.212686159763
 20
781.8042649717906
 10
3013.540343314925
 20
749.0030730137632
 10
3016.8736766482584
 20
743.5268825375728
 10
3018.5410584405467
 20
727.0912620135884
 10
3022.6319556156377
 20
717.682198510878
 10
3042.5590153042094
 20
744.9632921321364
 10
3045.8869419034313
 20
744.9632921321364
 10
3054.199881836018
 20
758.6202648785292
 10
3057.635338683597
 20
761.4422472890404
 10
3060.209807805036
 20
757.2127623038198
 10
3060.209807805036
 20
724.3506316405239
 10
3066.87416856406
 20
710.6648907960987
 10
3068.541646644841
 20
694.2283211426849
 10
3073.543141138369
 20
677.7948392353795
 10
3073.543141138369
 20
666.8556194466768
 10
3076.8764744717023
 20
661.3794289704864
 10
3076.8764744717023
 20
650.4270480181054
 10
3080.201796661927
 20
644.9640187055933
 10
3083.543141138369
 20
633.9853154258557
 10
3083.543141138369
 20
628.5159911203224
 10
3088.541271336054
 20
617.5677059253936
 10
3090.2078267223546
 20
598.4023189829344
 10
3096.8710910963014
 20
584.7188296435789
 10
3100.216771326504
 20
570.9776429838181
 10
3097.6660070399735
 20
566.7871016559459
 10
3079.2202752367643
 20
566.7871016559459
 10
3077.553608570098
 20
569.5251968940412
 10
3069.2202752367643
 20
569.5251968940412
 10
3067.553608570098
 20
572.2632921321365
 10
3057.553608570098
 20
572.2632921321365
 10
3055.886941903431
 20
575.0013873702317
 10
3041.013079896274
 20
575.0013873702317
 10
3038.547208759334
 20
568.2495973524179
 10
3043.5383574862553
 20
546.3836124535243
 10
3048.5539237605385
 20
535.3971339479505
 10
3033.5385254711796
 20
505.24716754153866
 10
3031.8709965187036
 20
497.02863199005077
 10
3028.5431411383684
 20
491.5614410080722
 10
3028.5431411383684
 20
486.0890527111883
 10
3019.318409084698
 20
468.17869632126894
 10
3014.2012941809544
 20
470.9809259114146
  0
LWPOLYLINE
  5
3E
330
17
100
AcDbEntity
  8
Y
100
AcDbPolyline
 90
36
 70
1
 10
3060.886941903431
 20
377.8585302273746
 10
3052.553608570098
 20
377.8585302273746
 10
3050.886941903431
 20
380.5966254654698
 10
3037.553608570098
 20
380.5966254654698
 10
3035.8869419034313
 20
383.334720703565
 10
3027.5536085700974
 20
383.334720703565
 10
3025.8869419034313
 20
386.07281594166034
 10
3019.220275236765
 20
386.07281594166034
 10
3017.553608570098
 20
388.8109111797555
 10
3010.886941903431
 20
388.8109111797555
 10
3008.326072338214
 20
393.0180540368984
 10
3009.991178401698
 20
395.7535854269082
 10
2991.676474471702
 20
423.10671467300597
 10
2991.676474471702
 20
425.9032384942959
 10
2994.2081207721776
 20
430.0623717022197
 10
3000.8747874388446
 20
432.80046694031506
 10
3004.204969705329
 20
438.2714806638255
 10
3009.204969705329
 20
441.0095759019207
 10
3014.2202752367643
 20
449.2490064178507
 10
3017.553608570098
 20
449.2490064178507
 10
3020.8869419034313
 20
454.72519689404123
 10
3025.8869419034313
 20
454.72519689404123
 10
3027.6098078050354
 20
457.55561944667687
 10
3032.66830184936
 20
449.2452363738586
 10
3072.66830184936
 20
446.5071411357634
 10
3078.5351299952604
 20
436.86878061035515
 10
3081.868463328594
 20
425.91639965797424
 10
3088.53766318537
 20
414.95985703612695
 10
3090.204329852037
 20
406.74557132184117
 10
3098.543141138369
 20
393.0460956371531
 10
3098.543141138369
 20
390.2381153900866
 10
3085.984141697936
 20
377.8585302273746
 10
3082.666007039973
 20
377.8585302273746
 10
3079.3268229038435
 20
372.37272771801923
 10
3062.548270832418
 20
375.1292041297536
 10
3060.886941903431
 20
377.8585302273746
  0
LWPOLYLINE
  5
3F
330
17
100
AcDbEntity
  8
Y
100
AcDbPolyline
 90
20
 70
1
 10
3679.2053567641965
 20
624.2903297322331
 10
3676.6611937985367
 20
631.2564902334454
 10
3685.9004121778225
 20
640.9156730845174
 10
3689.2354739121347
 20
640.9156730845174
 10
3697.568807245468
 20
649.129958798803
 10
3702.553608570098
 20
649.129958798803
 10
3705.8869419034313
 20
654.6061492749936
 10
3709.220275236765
 20
654.6061492749936
 10
3712.5536085700983
 20
660.082339751184
 10
3715.899033212261
 20
660.082339751184
 10
3720.899033212261
 20
665.5585302273745
 10
3729.33267370664
 20
665.5585302273745
 10
3732.666007039973
 20
660.082339751184
 10
3737.666007039973
 20
660.082339751184
 10
3743.5431411383693
 20
650.4270480181054
 10
3743.5431411383693
 20
644.8947743414055
 10
3741.8764744717023
 20
642.1566791033104
 10
3741.8764744717023
 20
628.4662029128341
 10
3737.664380793239
 20
621.5463347267882
 10
3679.2053567641965
 20
624.2903297322331
  0
LWPOLYLINE
  5
40
330
17
100
AcDbEntity
  8
Y
100
AcDbPolyline
 90
63
 70
1
 10
3681.7368847615644
 20
280.6617235832083
 10
3675.911468561638
 20
284.7632921321365
 10
3664.246558023082
 20
284.7632921321365
 10
3655.9132246897484
 20
290.2394826083269
 10
3644.246558023082
 20
290.2394826083269
 10
3635.9132246897484
 20
295.7156730845174
 10
3629.220275236765
 20
295.7156730845174
 10
3626.6764744717025
 20
299.8947743414054
 10
3626.6764744717025
 20
308.1651432562007
 10
3628.3464854691656
 20
310.9087327520337
 10
3631.679818802499
 20
338.28968513298605
 10
3633.343141138369
 20
341.0222861133435
 10
3633.343141138369
 20
349.1804886271198
 10
3629.220275236765
 20
355.95376832261275
 10
3589.220275236765
 20
355.95376832261275
 10
3586.662099922592
 20
360.15648491018214
 10
3595.009807805036
 20
376.6133947355712
 10
3595.009807805036
 20
406.7453594996043
 10
3600.8969735846426
 20
413.6537683226127
 10
3607.5536085700983
 20
413.6537683226127
 10
3610.009807805036
 20
417.6889527800102
 10
3610.009807805036
 20
475.1328695795007
 10
3605.8869419034318
 20
481.90614927499365
 10
3597.553608570098
 20
481.90614927499365
 10
3595.8869419034313
 20
484.64424451308884
 10
3592.6660070399735
 20
484.64424451308884
 10
3590.9993403733065
 20
481.90614927499365
 10
3587.5536085700983
 20
481.90614927499365
 10
3585.0010989859684
 20
486.09955787749215
 10
3588.344635631897
 20
497.08546399982777
 10
3590.0126056284794
 20
513.5268825375728
 10
3597.5782130511147
 20
525.9560947319019
 10
3605.97305758699
 20
520.4394826083269
 10
3617.645613639227
 20
520.4394826083269
 10
3624.3122803058936
 20
514.9632921321364
 10
3635.999340373307
 20
514.9632921321364
 10
3637.605688970937
 20
512.3242908646006
 10
3654.1946817736884
 20
542.3029707152871
 10
3659.225355399487
 20
547.8127561149712
 10
3674.3261485635894
 20
550.5692501052438
 10
3676.0059171456664
 20
547.809630291831
 10
3689.3392504789995
 20
545.0715350537358
 10
3695.202862835937
 20
535.4384576101963
 10
3700.2028628359367
 20
516.2717909435297
 10
3705.205081715773
 20
508.0538599266565
 10
3708.5483875348737
 20
488.82985146682825
 10
3681.8826053165653
 20
447.7597851038092
 10
3683.5376631853705
 20
439.6027141789841
 10
3688.5414502538165
 20
431.3822068522514
 10
3690.208116920483
 20
404.001254471299
 10
3691.8764744717027
 20
401.2603813514388
 10
3691.8764744717027
 20
387.56990516096255
 10
3693.543141138369
 20
384.83180992286736
 10
3693.543141138369
 20
371.1413337323912
 10
3695.2098078050353
 20
368.4032384942959
 10
3695.2098078050353
 20
357.45085754191496
 10
3696.88518329077
 20
354.6984549582094
 10
3695.2098078050353
 20
349.19364979079813
 10
3695.2098078050353
 20
332.8080003990578
 10
3696.8764744717023
 20
330.06990516096255
 10
3696.8764744717023
 20
291.6804886271197
 10
3689.3261485635894
 20
279.27638177807677
 10
3681.7368847615644
 20
280.6617235832083
  0
LWPOLYLINE
  5
41
330
17
100
AcDbEntity
  8
Y
100
AcDbPolyline
 90
115
 70
1
 10
3490.8580703516027
 20
21.951013360476946
 10
3485.899033212261
 20
27.38233975118409
 10
3480.899033212261
 20
27.38233975118409
 10
3455.899033212261
 20
54.763292132136485
 10
3452.553608570098
 20
54.763292132136485
 10
3447.553608570098
 20
62.977577846422214
 10
3444.2202752367643
 20
62.977577846422214
 10
3441.6764744717025
 20
67.15667910331024
 10
3441.6764744717025
 20
72.68112084140405
 10
3449.2067188631113
 20
90.55051030990721
 10
3470.882783104935
 20
93.28979315365402
 10
3472.553608570098
 20
96.03472070356497
 10
3494.220275236765
 20
96.03472070356497
 10
3495.8869419034313
 20
98.77281594166018
 10
3504.220275236765
 20
98.77281594166018
 10
3506.6764744717025
 20
102.80800039905787
 10
3506.6764744717025
 20
121.9185838652149
 10
3504.220275236765
 20
125.9537683226126
 10
3474.220275236765
 20
125.9537683226126
 10
3472.553608570098
 20
128.6918635607079
 10
3437.5536085700983
 20
128.6918635607079
 10
3435.8869419034313
 20
131.4299587988031
 10
3427.5442431423926
 20
131.4299587988031
 10
3423.333666568299
 20
141.11428491921725
 10
3428.348569362285
 20
152.0993100869957
 10
3433.3500861074676
 20
171.27179094352982
 10
3437.5536085700983
 20
178.17757784642217
 10
3444.32058239781
 20
178.17757784642217
 10
3449.3308040174124
 20
172.69019226304823
 10
3459.230224137085
 20
169.97963675409042
 10
3460.8869419034313
 20
172.70138737023163
 10
3464.220275236765
 20
172.70138737023163
 10
3467.553608570098
 20
178.17757784642217
 10
3470.8869419034313
 20
178.17757784642217
 10
3475.871636371996
 20
186.36671875906362
 10
3480.9706045415714
 20
189.15901085192675
 10
3505.9927093646006
 20
156.27281594166018
 10
3515.999340373307
 20
156.27281594166018
 10
3517.666007039973
 20
153.53472070356497
 10
3542.6660070399735
 20
153.53472070356497
 10
3544.33267370664
 20
150.79662546546976
 10
3572.553608570098
 20
150.79662546546976
 10
3575.8869419034313
 20
156.27281594166018
 10
3579.220275236765
 20
156.27281594166018
 10
3586.6764744717025
 20
168.5222861133436
 10
3586.6764744717025
 20
171.20429815092928
 10
3582.538303038662
 20
178.00272264806645
 10
3577.5383030386624
 20
180.74081788616166
 10
3567.533215169352
 20
197.17774795717233
 10
3560.866548502685
 20
202.65393843336275
 10
3551.6594056715476
 20
217.77995879880305
 10
3554.213698464405
 20
221.97629695849773
 10
3567.5470317977383
 20
224.71439219659302
 10
3569.2202752367643
 20
227.46329213213642
 10
3582.5798913564154
 20
227.46329213213642
 10
3590.913224689748
 20
232.93948260832684
 10
3604.220275236765
 20
232.93948260832684
 10
3605.8869419034318
 20
235.67757784642217
 10
3612.553608570098
 20
235.67757784642217
 10
3614.2202752367643
 20
238.41567308451735
 10
3620.999340373307
 20
238.41567308451735
 10
3624.33267370664
 20
232.93948260832684
 10
3627.6660070399735
 20
232.93948260832684
 10
3629.335415759113
 20
230.1968825697401
 10
3662.668749092447
 20
227.4587873316449
 10
3665.2028628359367
 20
223.29560046733928
 10
3670.204062663917
 20
204.12433446008424
 10
3676.8902973803206
 20
190.39367388175452
 10
3674.33267370664
 20
186.1918635607079
 10
3669.3241050025026
 20
186.1918635607079
 10
3662.6713856806477
 20
177.99476296770808
 10
3649.3448281712267
 20
172.52135541919597
 10
3646.0114948378937
 20
167.04516494300555
 10
3632.6702078193657
 20
161.56570777468147
 10
3626.8764744717023
 20
154.76693905038283
 10
3626.8764744717023
 20
152.09371468477227
 10
3631.8684633285934
 20
143.89259013416498
 10
3635.2024367576396
 20
132.9381060101576
 10
3651.0022307360114
 20
104.24900641785071
 10
3672.553608570098
 20
104.24900641785071
 10
3674.2202752367643
 20
106.9871016559459
 10
3682.6660070399735
 20
106.9871016559459
 10
3685.209807805036
 20
102.80800039905787
 10
3685.209807805036
 20
80.90323849429603
 10
3688.5431411383693
 20
75.42704801810557
 10
3688.5431411383693
 20
39.83180992286744
 10
3690.209807805036
 20
37.09371468477221
 10
3690.209807805036
 20
31.555764368136952
 10
3681.863367716228
 20
20.586157394275663
 10
3677.675372467679
 20
10.953768322612662
 10
3614.2202752367643
 20
10.953768322612662
 10
3611.679818802499
 20
15.127375321762921
 10
3610.0131521358326
 20
28.817851512239116
 10
3606.6819524247007
 20
34.29053675195548
 10
3605.004817792703
 20
42.556414581088085
 10
3623.3235365966048
 20
78.12327771333798
 10
3617.5636402513096
 20
84.88233975118409
 10
3610.9132246897484
 20
84.88233975118409
 10
3602.579891356415
 20
90.35853022737459
 10
3595.9073353041776
 20
90.35853022737459
 10
3589.2406686375107
 20
95.834720703565
 10
3582.5798913564154
 20
95.834720703565
 10
3574.308069225623
 20
101.27048953237103
 10
3570.999340373307
 20
95.834720703565
 10
3565.999340373307
 20
95.834720703565
 10
3560.209807805036
 20
86.32334576997691
 10
3560.209807805036
 20
75.38700776966084
 10
3556.8764744717023
 20
61.696531579184644
 10
3556.8764744717023
 20
50.728107674738816
 10
3555.2299525956146
 20
48.02310744973715
 10
3565.209807805036
 20
34.360210436838926
 10
3565.209807805036
 20
23.358746257357843
 10
3561.0143794465266
 20
10.952265254338094
 10
3495.043654410713
 20
12.324170024522296
 10
3490.8580703516027
 20
21.951013360476946
  0
LWPOLYLINE
  5
42
330
17
100
AcDbEntity
  8
Y
100
AcDbPolyline
 90
22
 70
1
 10
3652.5392259927353
 20
717.4059682711372
 10
3650.8869419034318
 20
720.1204349892793
 10
3645.899033212261
 20
720.1204349892793
 10
3640.899033212261
 20
725.5966254654697
 10
3634.2323665455947
 20
725.5966254654697
 10
3629.2323665455942
 20
731.0728159416603
 10
3625.881228353324
 20
731.0728159416603
 10
3618.3290168421768
 20
746.2371771505512
 10
3622.5536085700983
 20
753.1775778464222
 10
3630.8869419034313
 20
753.1775778464222
 10
3635.8869419034313
 20
761.3918635607079
 10
3642.558172152331
 20
761.3918635607079
 10
3654.224838818997
 20
777.8204349892792
 10
3657.574001970844
 20
777.8204349892792
 10
3664.3020053502637
 20
783.3470091938023
 10
3666.8740699248133
 20
779.1214745356137
 10
3670.2074032581463
 20
740.7881412022804
 10
3673.5410330737946
 20
735.3114636480013
 10
3675.2076997404615
 20
713.4067017432394
 10
3676.8935432718577
 20
710.6371016559459
 10
3674.3138413135084
 20
706.3990198672299
 10
3652.5392259927353
 20
717.4059682711372
  0
LWPOLYLINE
  5
43
330
17
100
AcDbEntity
  8
Y
100
AcDbPolyline
 90
17
 70
1
 10
3504.9893325871294
 20
220.5236502946327
 10
3514.2262319895876
 20
232.93948260832684
 10
3517.5621772742356
 20
232.93948260832684
 10
3530.8955106075687
 20
249.3680540368983
 10
3535.899033212261
 20
249.3680540368983
 10
3550.9592175088883
 20
265.86254159987124
 10
3553.551849957436
 20
261.6032168629714
 10
3550.209807805036
 20
250.6222212193696
 10
3550.209807805036
 20
245.1328695795006
 10
3545.209807805036
 20
236.91858386521488
 10
3545.209807805036
 20
231.44963626519962
 10
3541.0252384834857
 20
221.82512682563478
 10
3537.645613639227
 20
219.0490064178507
 10
3527.645613639227
 20
219.0490064178507
 10
3520.9740921843168
 20
213.56882807988873
 10
3508.3833176627845
 20
214.9478176703424
 10
3504.9893325871294
 20
220.5236502946327
  0
LWPOLYLINE
  5
44
330
17
100
AcDbEntity
  8
Y
100
AcDbPolyline
 90
14
 70
1
 10
4180.052775639698
 20
1.3718033749357539
 10
4175.017818948144
 20
9.643517939631835
 10
4166.664878244098
 20
37.08889453864037
 10
4172.551911380549
 20
43.99714770896604
 10
4180.886990215505
 20
46.735816469022886
 10
4185.89903321226
 20
52.22519689404123
 10
4190.984141697936
 20
52.22519689404123
 10
4199.317475031269
 20
44.0109111797555
 10
4202.657438335836
 20
44.0109111797555
 10
4216.014421062387
 20
27.55320032025463
 10
4232.686400440719
 20
13.858360116624391
 10
4238.560209938523
 20
4.208530227374579
 10
4235.998495887077
 20
0.0
 10
4180.052775639698
 20
1.3718033749357539
  0
LWPOLYLINE
  5
45
330
17
100
AcDbEntity
  8
Y
100
AcDbPolyline
 90
19
 70
1
 10
6105.876893994782
 20
413.4702756011065
 10
6089.210227328116
 20
418.9464660772968
 10
6086.676474471702
 20
423.10906005569126
 10
6086.676474471702
 20
439.5376314842627
 10
6085.009807805036
 20
442.27572672235794
 10
6085.009807805036
 20
447.8080003990579
 10
6087.553608570098
 20
451.98710165594605
 10
6092.666007039973
 20
451.98710165594605
 10
6094.33267370664
 20
449.2490064178507
 10
6099.32058239781
 20
449.2490064178507
 10
6104.326926220801
 20
443.7658679450497
 10
6120.985858532153
 20
441.029043351042
 10
6127.68640044072
 20
435.52502678329097
 10
6130.22687660519
 20
431.3513873702317
 10
6126.869964288256
 20
425.8364599924095
 10
6123.536630954922
 20
412.14598380193337
 10
6120.9919669218225
 20
407.96546431898406
 10
6107.547031797738
 20
410.7264777819657
 10
6105.876893994782
 20
413.4702756011065
  0
LWPOLYLINE
  5
46
330
17
100
AcDbEntity
  8
Y
100
AcDbPolyline
 90
25
 70
1
 10
6104.240478289307
 20
484.64823976671147
 10
6084.215785620887
 20
487.3897155486977
 10
6080.009807805036
 20
494.2995362461674
 10
6080.009807805036
 20
499.786078866443
 10
6074.99287761658
 20
513.5229115253077
 10
6082.606361071063
 20
520.4717257893191
 10
6085.917610259808
 20
517.7517710985642
 10
6087.553608570098
 20
520.4394826083269
 10
6090.999340373306
 20
520.4394826083269
 10
6092.6414025589565
 20
517.7418090176162
 10
6100.913224689748
 20
523.1775778464222
 10
6104.33267370664
 20
523.1775778464222
 10
6105.943141138368
 20
520.5318099228676
 10
6107.553608570098
 20
523.1775778464222
 10
6115.886941903432
 20
523.1775778464222
 10
6117.584276926474
 20
525.96605681285
 10
6120.943141138369
 20
523.2069897816507
 10
6124.302005350263
 20
525.96605681285
 10
6126.876474471702
 20
521.7365718276294
 10
6126.876474471702
 20
508.0460956371533
 10
6128.543141138369
 20
505.3080003990581
 10
6128.543141138369
 20
480.60906005569103
 10
6125.9919669218225
 20
476.41784527136497
 10
6112.570911983596
 20
479.17395476760794
 10
6104.240478289307
 20
484.64823976671147
  0
LWPOLYLINE
  5
47
330
17
100
AcDbEntity
  8
Y
100
AcDbPolyline
 90
33
 70
1
 10
6106.728212920318
 20
617.4490208240708
 10
6102.568807245469
 20
621.5490064178507
 10
6094.232366545594
 20
621.5490064178507
 10
6089.232366545594
 20
627.0251968940412
 10
6079.220275236765
 20
627.0251968940412
 10
6075.886941903432
 20
632.5013873702317
 10
6065.886941903431
 20
632.5013873702317
 10
6061.659405671547
 20
639.4466254654698
 10
6063.346485469166
 20
642.2182565615575
 10
6065.013152135833
 20
655.9087327520336
 10
6068.343141138369
 20
661.3794289704864
 10
6068.343141138369
 20
669.5937146847722
 10
6070.013152135833
 20
672.3373041806051
 10
6073.3464854691665
 20
699.7182565615575
 10
6076.676474471702
 20
705.1889527800101
 10
6076.676474471702
 20
713.4032384942959
 10
6080.886941903431
 20
720.3204349892792
 10
6096.0050539234135
 20
720.3204349892792
 10
6103.543141138369
 20
705.1844344703617
 10
6103.543141138369
 20
699.71276230382
 10
6105.209807805036
 20
696.9746670657247
 10
6105.209807805036
 20
683.2841908752484
 10
6106.876474471703
 20
680.5460956371533
 10
6106.876474471703
 20
666.855619446677
 10
6108.543141138369
 20
664.1175242085818
 10
6108.543141138369
 20
650.4270480181057
 10
6111.876474471703
 20
644.9508575419152
 10
6111.876474471703
 20
639.4746670657247
 10
6113.543141138369
 20
636.7365718276294
 10
6113.543141138369
 20
625.7841908752486
 10
6116.893543271857
 20
620.2799587988031
 10
6114.326148563589
 20
616.062096063791
 10
6106.728212920318
 20
617.4490208240708
  0
LWPOLYLINE
  5
48
330
17
100
AcDbEntity
  8
Y
100
AcDbPolyline
 90
29
 70
1
 10
5966.676474471702
 20
26.08525053188168
 10
5966.676474471702
 20
31.604363044903355
 10
5970.017818948144
 20
42.58306632464112
 10
5973.346485469166
 20
48.051589894890974
 10
5975.012411147301
 20
61.73597939385556
 10
5980.012411147301
 20
72.6883603462365
 10
5981.6798188024995
 20
86.38492322822432
 10
5990.886941903432
 20
101.5109111797555
 10
5994.220275236765
 20
101.5109111797555
 10
5995.886941903431
 20
104.24900641785071
 10
6002.574001970844
 20
104.24900641785071
 10
6009.302005350263
 20
109.77558062237378
 10
6010.96867201693
 20
107.03748538427845
 10
6017.567695418477
 20
112.45811174983486
 10
6035.893241384223
 20
115.19504393952425
 10
6040.933281966675
 20
120.71508838697073
 10
6044.266615300008
 20
117.97699314887541
 10
6049.240935454204
 20
123.42505807966117
 10
6062.672583812333
 20
120.66677314897397
 10
6068.539796807572
 20
111.02778037108138
 10
6071.873130140905
 20
83.64682799012907
 10
6073.543141138369
 20
80.90323849429603
 10
6073.543141138369
 20
72.68895278001031
 10
6076.876474471703
 20
67.2127623038199
 10
6076.876474471703
 20
61.68678362014085
 10
6071.864979267055
 20
50.70922269567546
 10
6052.6648728899945
 20
19.166190790504743
 10
5969.219161832255
 20
21.907978439544728
 10
5966.676474471702
 20
26.08525053188168
  0
LWPOLYLINE
  5
49
330
17
100
AcDbEntity
  8
Y
100
AcDbPolyline
 90
43
 70
1
 10
6001.677474702338
 20
392.9998871282291
 10
6000.011684399731
 20
417.6297866025003
 10
5996.679272295146
 20
423.104463631462
 10
5995.013838203382
 20
439.52088539313206
 10
5981.673690147896
 20
453.21835884296223
 10
5983.345017733065
 20
477.93013099510597
 10
5986.6780130666275
 20
483.4057661859591
 10
5988.3446797332945
 20
513.5248138050067
 10
5992.553608570098
 20
520.4394826083269
 10
5995.999340373307
 20
520.4394826083269
 10
5997.666007039973
 20
517.7013873702316
 10
6005.97894697256
 20
517.7013873702316
 10
6012.645613639226
 20
512.2251968940412
 10
6020.97894697256
 20
512.2251968940412
 10
6027.645613639227
 20
506.7490064178507
 10
6037.666007039974
 20
506.7490064178507
 10
6053.537663185371
 20
480.67414275041267
 10
6055.20292799652
 20
472.46676618117414
 10
6061.904344683622
 20
464.20966347742274
 10
6046.8791288309085
 20
445.01077655450973
 10
6048.541502430799
 20
423.16243781309623
 10
6053.543141138369
 20
412.2064673107987
 10
6053.543141138369
 20
401.2443383993739
 10
6056.88343799317
 20
387.52526203143725
 10
6054.353067107386
 20
383.3682241476484
 10
6050.978946972559
 20
380.5966254654698
 10
6045.886941903431
 20
380.5966254654698
 10
6044.220275236764
 20
383.334720703565
 10
6040.999340373307
 20
383.334720703565
 10
6039.33267370664
 20
380.5966254654698
 10
6035.886941903432
 20
380.5966254654698
 10
6034.220275236765
 20
383.334720703565
 10
6030.999340373306
 20
383.334720703565
 10
6029.33267370664
 20
380.5966254654698
 10
6024.220275236765
 20
380.5966254654698
 10
6022.553608570098
 20
383.334720703565
 10
6019.33267370664
 20
383.334720703565
 10
6017.666007039973
 20
380.5966254654698
 10
6012.553608570098
 20
380.5966254654698
 10
6010.917610259808
 20
383.28433697523246
 10
6007.621056036724
 20
380.57645314912804
 10
6005.0260125843515
 20
381.99754837304624
 10
6001.677474702338
 20
392.9998871282291
  0
LWPOLYLINE
  5
4A
330
17
100
AcDbEntity
  8
Y
100
AcDbPolyline
 90
18
 70
1
 10
5719.996354824703
 20
39.79782804719017
 10
5737.546510124179
 20
76.86805403689834
 10
5755.886941903431
 20
76.86805403689834
 10
5757.551313760711
 20
79.60237923100144
 10
5797.636579435952
 20
82.34631110758039
 10
5806.012361142211
 20
76.84222598632407
 10
5814.339602872959
 20
65.89785114019902
 10
5821.006269539625
 20
63.15975590210382
 10
5829.326042697934
 20
52.22519689404123
 10
5832.666007039974
 20
52.22519689404123
 10
5836.011494837893
 20
46.72903836888645
 10
5842.67816150456
 20
43.990943130791216
 10
5845.999340373306
 20
38.534720703565036
 10
5849.332673706639
 20
38.534720703565036
 10
5851.893543271857
 20
34.32757784642218
 10
5849.331177299462
 20
30.11797660605886
 10
5722.552148067667
 20
35.5990248623207
 10
5719.996354824703
 20
39.79782804719017
  0
LWPOLYLINE
  5
4B
330
17
100
AcDbEntity
  8
Y
100
AcDbPolyline
 90
61
 70
1
 10
6954.220275236765
 20
164.28710165594592
 10
6952.553608570098
 20
167.02519689404124
 10
6945.886941903432
 20
167.02519689404124
 10
6944.220275236765
 20
169.76329213213646
 10
6932.553608570098
 20
169.76329213213646
 10
6929.992739004881
 20
173.9704349892793
 10
6931.67788592612
 20
176.7388906456023
 10
6933.344552592787
 20
209.59603350274523
 10
6935.009807805035
 20
212.33180992286768
 10
6935.009807805035
 20
228.76038135143915
 10
6936.659405671547
 20
231.4704349892793
 10
6934.276474471702
 20
235.3852505318815
 10
6932.666007039973
 20
232.73948260832685
 10
6919.33267370664
 20
232.73948260832685
 10
6917.609807805036
 20
229.909060055691
 10
6915.8954139835905
 20
232.72556419092192
 10
6904.251198246518
 20
229.99273804854766
 10
6900.968672016931
 20
232.6890988799943
 10
6899.33267370664
 20
230.00138737023164
 10
6885.999340373306
 20
230.00138737023164
 10
6884.317486691417
 20
227.2383420356988
 10
6877.65082002475
 20
229.976437273794
 10
6875.999340373307
 20
227.26329213213646
 10
6864.220275236765
 20
227.26329213213646
 10
6862.553608570098
 20
230.00138737023164
 10
6859.220275236765
 20
230.00138737023164
 10
6853.341578500781
 20
239.6592462936334
 10
6855.0113463999605
 20
269.8343376145307
 10
6856.67475450449
 20
272.56707950054226
 10
6855.008087837823
 20
299.94803188149467
 10
6863.348619091368
 20
313.6503332266033
 10
6865.015285758034
 20
321.86461894088905
 10
6873.351152281478
 20
335.5592568008322
 10
6876.684485614812
 20
346.51163775321317
 10
6885.9176102598085
 20
361.6803425271357
 10
6889.312280305893
 20
358.8918635607079
 10
6897.658530256049
 20
358.8918635607079
 10
6905.200047411342
 20
349.25548052894453
 10
6908.535129995261
 20
338.2973520389274
 10
6916.868463328593
 20
324.6068758484513
 10
6921.868463328593
 20
308.1783044198798
 10
6930.201796661927
 20
294.48782822940376
 10
6933.53512999526
 20
283.53544727702285
 10
6939.347979238076
 20
273.9857663781111
 10
6944.3417388894895
 20
271.25108847376555
 10
6950.99077166917
 20
263.0585302273746
 10
6954.33267370664
 20
263.0585302273746
 10
6957.635338683597
 20
257.6327234795167
 10
6960.96867201693
 20
260.37081871761194
 10
6962.666007039974
 20
257.58233975118407
 10
6970.999340373307
 20
257.58233975118407
 10
6975.203681842415
 20
250.6752073376489
 10
6980.2090494650565
 20
228.74693013369492
 10
6981.87501607744
 20
204.1144237934703
 10
6986.876474471703
 20
193.15884826317972
 10
6986.876474471703
 20
184.93971083320756
 10
6993.549302506785
 20
165.75533023234453
 10
6991.006644409623
 20
158.793290204402
 10
6979.212838265331
 20
161.56122429949102
 10
6977.553608570098
 20
164.28710165594592
 10
6954.220275236765
 20
164.28710165594592
  0
LWPOLYLINE
  5
4C
330
17
100
AcDbEntity
  8
Y
100
AcDbPolyline
 90
15
 70
1
 10
6917.553608570098
 20
35.7966254654698
 10
6925.886941903431
 20
35.7966254654698
 10
6927.553608570098
 20
38.534720703565036
 10
6944.337879173928
 20
38.534720703565036
 10
6952.617756172186
 20
22.211534621282723
 10
6954.276474471702
 20
24.93657182762954
 10
6956.893543271858
 20
20.637101655945983
 10
6954.276474471702
 20
16.337631484262456
 10
6952.598107041128
 20
19.094949405919632
 10
6945.988825332552
 20
10.951370157851748
 10
6918.385263415999
 20
12.325573456727746
 10
6916.676474471703
 20
15.132869579500523
 10
6916.676474471703
 20
28.823345769976722
 10
6914.992739004881
 20
31.589482608326946
 10
6917.553608570098
 20
35.7966254654698
  0
LWPOLYLINE
  5
4D
330
17
100
AcDbEntity
  8
Y
100
AcDbPolyline
 90
21
 70
1
 10
6865.999340373307
 20
186.3918635607079
 10
6867.666007039974
 20
183.65376832261256
 10
6874.306390920324
 20
183.65376832261256
 10
6882.639724253656
 20
178.17757784642217
 10
6887.666007039973
 20
178.17757784642217
 10
6889.33267370664
 20
175.43948260832684
 10
6895.97305758699
 20
175.43948260832684
 10
6904.306390920323
 20
169.96329213213642
 10
6909.33267370664
 20
169.96329213213642
 10
6911.005917145666
 20
167.21439219659302
 10
6924.339250479
 20
164.47629695849773
 10
6926.876474471702
 20
160.3080003990581
 10
6926.876474471702
 20
152.0376314842625
 10
6923.543141138369
 20
146.56144100807197
 10
6923.543141138369
 20
116.44239338902437
 10
6920.997665693512
 20
112.26054087247469
 10
6864.213094607083
 20
115.00433317286937
 10
6856.6832384444215
 20
130.1238062613875
 10
6843.329861308367
 20
173.99918827985147
 10
6855.902140578802
 20
186.3918635607079
 10
6865.999340373307
 20
186.3918635607079
  0
LWPOLYLINE
  5
4E
330
17
100
AcDbEntity
  8
Y
100
AcDbPolyline
 90
23
 70
1
 10
6827.578135228304
 20
429.8823397511841
 10
6815.886941903432
 20
429.8823397511841
 10
6814.220275236765
 20
432.6204349892794
 10
6810.893970526284
 20
432.6204349892794
 10
6794.996445683839
 20
453.23940517966855
 10
6803.351719968944
 20
475.20184044337566
 10
6822.5490159063265
 20
512.2251968940412
 10
6832.653915731143
 20
512.2251968940412
 10
6837.653915731144
 20
506.7490064178507
 10
6847.648581850357
 20
506.7490064178507
 10
6855.209807805036
 20
499.8478874909612
 10
6855.209807805036
 20
494.2995362461672
 10
6853.543141138369
 20
491.561441008072
 10
6853.543141138369
 20
475.1328695795005
 10
6851.876474471703
 20
472.3947743414053
 10
6851.876474471703
 20
458.70429815092916
 10
6848.543141138369
 20
453.2281076747386
 10
6848.543141138369
 20
436.7995362461672
 10
6846.876474471703
 20
434.061441008072
 10
6846.876474471703
 20
428.58525053188157
 10
6844.328209928932
 20
424.3988159259013
 10
6833.405916922066
 20
425.77910570149425
 10
6827.578135228304
 20
429.8823397511841
  0
LWPOLYLINE
  5
4F
330
17
100
AcDbEntity
  8
Y
100
AcDbPolyline
 90
22
 70
1
 10
6796.697205085899
 20
699.6141175587067
 10
6793.34461307035
 20
707.8758621684533
 10
6791.678582536276
 20
729.7722634734143
 10
6788.343141138369
 20
735.2519171985484
 10
6788.343141138369
 20
740.7281076747388
 10
6786.678582536277
 20
743.4627396638905
 10
6785.007654344115
 20
765.4235101894493
 10
6787.609807805036
 20
769.698476589534
 10
6789.338567086561
 20
766.8583720555997
 10
6804.338567086561
 20
764.1202768175045
 10
6805.999340373306
 20
761.3918635607079
 10
6814.312280305893
 20
761.3918635607079
 10
6820.97894697256
 20
755.9156730845174
 10
6826.00412063946
 20
755.9156730845174
 10
6835.209807805036
 20
738.0422934578468
 10
6835.209807805036
 20
732.5041536700238
 10
6824.321707322449
 20
720.1204349892793
 10
6820.99077166917
 20
720.1204349892793
 10
6814.345382274593
 20
711.9323659138206
 10
6802.6844020336275
 20
703.722083907426
 10
6799.31222685489
 20
698.1820818280693
 10
6796.697205085899
 20
699.6141175587067
  0
LWPOLYLINE
  5
50
330
17
100
AcDbEntity
  8
Y
100
AcDbPolyline
 90
42
 70
1
 10
6785.886941903432
 20
569.5251968940412
 10
6775.886941903432
 20
569.5251968940412
 10
6774.276474471702
 20
572.170964817596
 10
6772.666007039973
 20
569.5251968940412
 10
6767.553608570098
 20
569.5251968940412
 10
6765.886941903432
 20
572.2632921321365
 10
6755.886941903431
 20
572.2632921321365
 10
6754.220275236765
 20
575.0013873702317
 10
6749.33267370664
 20
575.0013873702317
 10
6747.609807805036
 20
572.170964817596
 10
6745.886941903431
 20
575.0013873702317
 10
6737.553608570098
 20
575.0013873702317
 10
6735.009807805036
 20
579.1804886271198
 10
6735.009807805036
 20
584.6566791033104
 10
6733.326072338214
 20
587.4228159416602
 10
6735.886941903432
 20
591.629958798803
 10
6745.886941903431
 20
591.629958798803
 10
6747.584276926475
 20
594.4184377652308
 10
6750.917610259808
 20
591.6803425271356
 10
6752.553608570098
 20
594.3680540368983
 10
6765.886941903432
 20
594.3680540368983
 10
6768.326072338214
 20
598.3751968940412
 10
6765.009807805035
 20
603.823345769977
 10
6765.009807805035
 20
636.7365718276292
 10
6768.343141138369
 20
642.2127623038198
 10
6768.343141138369
 20
661.3794289704864
 10
6770.917610259808
 20
665.6089139557071
 10
6774.312280305893
 20
662.8204349892792
 10
6782.645613639227
 20
662.8204349892792
 10
6789.353067107387
 20
657.3107410690054
 10
6795.208676785498
 20
647.6908108835352
 10
6796.875509204945
 20
606.6152976900355
 10
6805.209807805036
 20
590.1848233069998
 10
6805.209807805036
 20
584.7064673107986
 10
6810.209807805036
 20
573.7540863584177
 10
6810.209807805036
 20
568.2281076747389
 10
6807.609807805035
 20
563.9566791033103
 10
6805.886941903431
 20
566.7871016559459
 10
6802.666007039973
 20
566.7871016559459
 10
6800.9919669218225
 20
564.0368928904126
 10
6787.547031797738
 20
566.7979063533941
 10
6785.886941903432
 20
569.5251968940412
  0
LWPOLYLINE
  5
51
330
17
100
AcDbEntity
  8
Y
100
AcDbPolyline
 90
85
 70
1
 10
6656.685926429345
 20
171.18876993480157
 10
6651.666035860996
 20
184.93370839575593
 10
6654.250943593141
 20
189.18034252713565
 10
6657.599948633342
 20
186.42937410125646
 10
6662.565699878928
 20
191.8680540368983
 10
6669.220275236764
 20
191.8680540368983
 10
6672.584276926475
 20
197.39462824142137
 10
6675.933281966674
 20
194.64365981554207
 10
6680.899033212261
 20
200.08233975118404
 10
6685.899033212261
 20
200.08233975118404
 10
6690.933281966675
 20
205.5960407679231
 10
6694.250943593141
 20
202.8708187176118
 10
6697.547031797738
 20
208.28582076802158
 10
6710.880365131072
 20
211.0239160061168
 10
6713.326072338214
 20
215.04186356070784
 10
6708.34729578046
 20
223.22128219130408
 10
6706.680629113793
 20
234.17366314368502
 10
6703.348619091367
 20
239.64767960909836
 10
6701.6819524247
 20
247.86196532338408
 10
6695.886941903432
 20
257.3823397511841
 10
6689.220275236765
 20
257.3823397511841
 10
6687.553608570098
 20
260.12043498927926
 10
6672.579891356415
 20
260.12043498927926
 10
6664.246558023081
 20
265.5966254654698
 10
6654.223973353305
 20
265.5966254654698
 10
6640.014411890482
 20
286.19451918258943
 10
6638.346484926108
 20
297.155182091324
 10
6626.663021491369
 20
321.8335181218446
 10
6629.210227328116
 20
326.01821342507134
 10
6637.54356066145
 20
328.7563086631665
 10
6640.886941903432
 20
334.2490064178507
 10
6644.220275236765
 20
334.2490064178507
 10
6647.609807805035
 20
339.8175242085817
 10
6649.276474471702
 20
337.0794289704864
 10
6650.886941903432
 20
339.72519689404123
 10
6655.999340373307
 20
339.72519689404123
 10
6657.666007039973
 20
336.98710165594593
 10
6664.304069958629
 20
336.98710165594593
 10
6682.646535208322
 20
326.0292652730118
 10
6695.982036959808
 20
323.29072473476026
 10
6704.306390920323
 20
317.82043498927925
 10
6712.645613639227
 20
317.82043498927925
 10
6719.312280305893
 20
312.3442445130888
 10
6722.655975358763
 20
312.3442445130888
 10
6728.543141138369
 20
305.4358356900807
 10
6728.543141138369
 20
283.5222861133436
 10
6731.00677734474
 20
279.47488377430574
 10
6742.6553050103685
 20
276.7410456486993
 10
6749.312280305894
 20
271.2728159416602
 10
6754.32058239781
 20
271.2728159416602
 10
6759.3205823978105
 20
265.7966254654698
 10
6764.33267370664
 20
265.7966254654698
 10
6765.999340373307
 20
263.0585302273746
 10
6770.973057586989
 20
263.0585302273746
 10
6787.639724253657
 20
252.10614927499353
 10
6790.999340373307
 20
252.10614927499353
 10
6793.560209938524
 20
247.89900641785076
 10
6791.876474471702
 20
245.1328695795006
 10
6791.876474471702
 20
228.70429815092928
 10
6788.543141138369
 20
223.22810767473874
 10
6788.543141138369
 20
206.7995362461673
 10
6785.999340373307
 20
202.62043498927926
 10
6772.666007039973
 20
202.62043498927926
 10
6770.943141138369
 20
199.7900124366436
 10
6769.220275236765
 20
202.62043498927926
 10
6764.33267370664
 20
202.62043498927926
 10
6762.666007039973
 20
199.88233975118405
 10
6749.33267370664
 20
199.88233975118405
 10
6747.666007039974
 20
197.14424451308884
 10
6730.999340373307
 20
197.14424451308884
 10
6728.543141138369
 20
193.10906005569115
 10
6728.543141138369
 20
130.13286957950064
 10
6726.019733774053
 20
125.98727176669608
 10
6722.609807805035
 20
123.18626114928885
 10
6719.240668637511
 20
125.9537683226126
 10
6709.332673706641
 20
125.9537683226126
 10
6707.666007039974
 20
123.21567308451739
 10
6697.553608570099
 20
123.21567308451739
 10
6695.886941903432
 20
125.9537683226126
 10
6687.666007039973
 20
125.9537683226126
 10
6685.98730590076
 20
123.19590216533302
 10
6681.710227328116
 20
124.60122798205883
 10
6670.015285758034
 20
143.81434627576502
 10
6668.348619091367
 20
152.02863199005077
 10
6656.685926429345
 20
171.18876993480157
  0
LWPOLYLINE
  5
52
330
17
100
AcDbEntity
  8
Y
100
AcDbPolyline
 90
27
 70
1
 10
6649.23097726637
 20
583.223633853669
 10
6637.546171598665
 20
585.9659862042528
 10
6634.220275236765
 20
591.4299587988031
 10
6627.553608570098
 20
591.4299587988031
 10
6625.886941903431
 20
594.1680540368983
 10
6620.899033212261
 20
594.1680540368983
 10
6615.899033212261
 20
599.6442445130889
 10
6612.553608570098
 20
599.6442445130889
 10
6600.009807805035
 20
620.2519171985484
 10
6600.009807805035
 20
623.046095637153
 10
6602.553608570098
 20
627.2251968940412
 10
6614.33267370664
 20
627.2251968940412
 10
6615.999340373307
 20
624.4871016559459
 10
6634.33267370664
 20
624.4871016559459
 10
6635.999340373306
 20
621.7490064178506
 10
6654.33267370664
 20
621.7490064178506
 10
6655.999340373307
 20
619.0109111797555
 10
6674.33267370664
 20
619.0109111797555
 10
6677.676054948622
 20
613.5182134250713
 10
6686.009388281956
 20
610.7801181869761
 10
6688.543141138369
 20
606.6175242085816
 10
6688.543141138369
 20
603.823345769977
 10
6679.356246686824
 20
588.7305905995825
 10
6670.196552614251
 20
579.1545467964374
 10
6667.670538024558
 20
572.2380782770376
 10
6659.227469814947
 20
575.0122292601955
 10
6649.23097726637
 20
583.223633853669
  0
LWPOLYLINE
  5
53
330
17
100
AcDbEntity
  8
Y
100
AcDbPolyline
 90
32
 70
1
 10
6569.20496970533
 20
63.0027226480665
 10
6564.195448067338
 20
65.74603211649055
 10
6561.666035860997
 20
72.67180363385111
 10
6563.343141138369
 20
75.42704801810557
 10
6563.343141138369
 20
83.6413337323913
 10
6566.678165356255
 20
89.12030209034668
 10
6568.344832022922
 20
116.50125447129908
 10
6572.543560661449
 20
123.3991658060237
 10
6589.3206392340935
 20
128.91163447989226
 10
6590.999340373306
 20
126.15376832261258
 10
6597.666007039973
 20
126.15376832261258
 10
6599.340110678073
 20
123.40345520287718
 10
6611.006777344739
 20
120.66535996478197
 10
6612.666007039973
 20
117.93948260832684
 10
6617.645613639227
 20
117.93948260832684
 10
6624.312280305894
 20
112.46329213213643
 10
6629.312280305894
 20
112.46329213213643
 10
6635.97894697256
 20
106.9871016559459
 10
6640.98191518369
 20
106.9871016559459
 10
6648.567668036557
 20
100.06359706801202
 10
6637.670115867486
 20
79.40614927499362
 10
6635.999340373306
 20
79.40614927499362
 10
6628.53512999526
 20
67.1435179396318
 10
6626.878751560191
 20
61.701131652973864
 10
6630.205653162945
 20
39.838635406302195
 10
6633.553579749075
 20
34.33847030051781
 10
6631.011861619779
 20
27.379003994113944
 10
6572.552024641055
 20
30.123037158421408
 10
6569.99822832257
 20
34.31855968164724
 10
6573.343141138369
 20
42.56138054915273
 10
6573.343141138369
 20
56.20429815092928
 10
6569.20496970533
 20
63.0027226480665
  0
LWPOLYLINE
  5
54
330
17
100
AcDbEntity
  8
Y
100
AcDbPolyline
 90
29
 70
1
 10
6404.215856021519
 20
147.8585302273746
 10
6394.1930388165865
 20
167.06892987016096
 10
6388.343141138369
 20
173.9336057170495
 10
6388.343141138369
 20
176.73657182762935
 10
6390.886941903432
 20
180.91567308451735
 10
6397.666007039973
 20
180.91567308451735
 10
6399.33267370664
 20
178.17757784642217
 10
6422.666007039974
 20
178.17757784642217
 10
6424.33267370664
 20
175.43948260832684
 10
6449.33267370664
 20
175.43948260832684
 10
6450.999340373307
 20
172.70138737023163
 10
6457.666007039974
 20
172.70138737023163
 10
6459.332673706641
 20
169.96329213213642
 10
6485.999340373307
 20
169.96329213213642
 10
6487.666007039973
 20
167.22519689404123
 10
6494.33267370664
 20
167.22519689404123
 10
6496.876474471702
 20
163.0460956371532
 10
6496.876474471702
 20
138.34715529378636
 10
6494.302005350263
 20
134.11767030856578
 10
6490.912541944207
 20
136.9018723921129
 10
6467.5577450048295
 20
134.16125846555346
 10
6465.886941903431
 20
136.90614927499354
 10
6462.666007039974
 20
136.90614927499354
 10
6460.999340373307
 20
134.16805403689833
 10
6429.33267370664
 20
134.16805403689833
 10
6427.6586335884895
 20
131.417845271365
 10
6414.213698464405
 20
134.1788587343465
 10
6405.886941903432
 20
147.8585302273746
 10
6404.215856021519
 20
147.8585302273746
  0
ENDSEC
  0
SECTION
  2
OBJECTS
  0
DICTIONARY
  5
A
330
0
100
AcDbDictionary
281
1
  3
ACAD_COLOR
350
B
  3
ACAD_GROUP
350
C
  3
ACAD_LAYOUT
350
D
  3
ACAD_MATERIAL
350
E
  3
ACAD_MLEADERSTYLE
350
F
  3
ACAD_MLINESTYLE
350
10
  3
ACAD_PLOTSETTINGS
350
11
  3
ACAD_PLOTSTYLENAME
350
12
  3
ACAD_SCALELIST
350
14
  3
ACAD_TABLESTYLE
350
15
  3
ACAD_VISUALSTYLE
350
16
  3
EZDXF_META
350
2D
  0
DICTIONARY
  5
B
330
A
100
AcDbDictionary
281
1
  0
DICTIONARY
  5
C
330
A
100
AcDbDictionary
281
1
  0
DICTIONARY
  5
D
330
A
100
AcDbDictionary
281
1
  3
Model
350
1A
  3
Layout1
350
1E
  0
DICTIONARY
  5
E
330
A
100
AcDbDictionary
281
1
  3
ByBlock
350
1F
  3
ByLayer
350
20
  3
Global
350
21
  0
DICTIONARY
  5
F
330
A
100
AcDbDictionary
281
1
  3
Standard
350
2C
  0
DICTIONARY
  5
10
330
A
100
AcDbDictionary
281
1
  3
Standard
350
22
  0
DICTIONARY
  5
11
330
A
100
AcDbDictionary
281
1
  0
ACDBDICTIONARYWDFLT
  5
12
330
A
100
AcDbDictionary
281
1
  3
Normal
350
13
100
AcDbDictionaryWithDefault
340
13
  0
ACDBPLACEHOLDER
  5
13
330
12
  0
DICTIONARY
  5
14
330
A
100
AcDbDictionary
281
1
  0
DICTIONARY
  5
15
330
A
100
AcDbDictionary
281
1
  0
DICTIONARY
  5
16
330
A
100
AcDbDictionary
281
1
  0
LAYOUT
  5
1A
330
D
100
AcDbPlotSettings
  1

  4
A3
  6

 40
7.5
 41
20.0
 42
7.5
 43
20.0
 44
420.0
 45
297.0
 46
0.0
 47
0.0
 48
0.0
 49
0.0
140
0.0
141
0.0
142
1.0
143
1.0
 70
1024
 72
1
 73
0
 74
5
  7

 75
16
 76
0
 77
2
 78
300
147
1.0
148
0.0
149
0.0
100
AcDbLayout
  1
Model
 70
1
 71
0
 10
0.0
 20
0.0
 11
420.0
 21
297.0
 12
0.0
 22
0.0
 32
0.0
 14
1e+20
 24
1e+20
 34
1e+20
 15
-1e+20
 25
-1e+20
 35
-1e+20
146
0.0
 13
0.0
 23
0.0
 33
0.0
 16
1.0
 26
0.0
 36
0.0
 17
0.0
 27
1.0
 37
0.0
 76
1
330
17
  0
LAYOUT
  5
1E
330
D
100
AcDbPlotSettings
  1

  4
A3
  6

 40
7.5
 41
20.0
 42
7.5
 43
20.0
 44
420.0
 45
297.0
 46
0.0
 47
0.0
 48
0.0
 49
0.0
140
0.0
141
0.0
142
1.0
143
1.0
 70
0
 72
1
 73
0
 74
5
  7

 75
16
 76
0
 77
2
 78
300
147
1.0
148
0.0
149
0.0
100
AcDbLayout
  1
Layout1
 70
1
 71
1
 10
0.0
 20
0.0
 11
420.0
 21
297.0
 12
0.0
 22
0.0
 32
0.0
 14
1e+20
 24
1e+20
 34
1e+20
 15
-1e+20
 25
-1e+20
 35
-1e+20
146
0.0
 13
0.0
 23
0.0
 33
0.0
 16
1.0
 26
0.0
 36
0.0
 17
0.0
 27
1.0
 37
0.0
 76
1
330
1B
  0
MATERIAL
  5
1F
102
{ACAD_REACTORS
330
E
102
}
330
E
100
AcDbMaterial
  1
ByBlock
  2

 70
0
 40
1.0
 71
1
 41
1.0
 91
-1023410177
 42
1.0
 72
1
  3

 73
1
 74
1
 75
1
 44
0.5
 73
0
 45
1.0
 46
1.0
 77
1
  4

 78
1
 79
1
170
1
 48
1.0
171
1
  6

172
1
173
1
174
1
140
1.0
141
1.0
175
1
  7

176
1
177
1
178
1
143
1.0
179
1
  8

270
1
271
1
272
1
145
1.0
146
1.0
273
1
  9

274
1
275
1
276
1
 42
1.0
 72
1
  3

 73
1
 74
1
 75
1
 94
63
  0
MATERIAL
  5
20
102
{ACAD_REACTORS
330
E
102
}
330
E
100
AcDbMaterial
  1
ByLayer
  2

 70
0
 40
1.0
 71
1
 41
1.0
 91
-1023410177
 42
1.0
 72
1
  3

 73
1
 74
1
 75
1
 44
0.5
 73
0
 45
1.0
 46
1.0
 77
1
  4

 78
1
 79
1
170
1
 48
1.0
171
1
  6

172
1
173
1
174
1
140
1.0
141
1.0
175
1
  7

176
1
177
1
178
1
143
1.0
179
1
  8

270
1
271
1
272
1
145
1.0
146
1.0
273
1
  9

274
1
275
1
276
1
 42
1.0
 72
1
  3

 73
1
 74
1
 75
1
 94
63
  0
MATERIAL
  5
21
102
{ACAD_REACTORS
330
E
102
}
330
E
100
AcDbMaterial
  1
Global
  2

 70
0
 40
1.0
 71
1
 41
1.0
 91
-1023410177
 42
1.0
 72
1
  3

 73
1
 74
1
 75
1
 44
0.5
 73
0
 45
1.0
 46
1.0
 77
1
  4

 78
1
 79
1
170
1
 48
1.0
171
1
  6

172
1
173
1
174
1
140
1.0
141
1.0
175
1
  7

176
1
177
1
178
1
143
1.0
179
1
  8

270
1
271
1
272
1
145
1.0
146
1.0
273
1
  9

274
1
275
1
276
1
 42
1.0
 72
1
  3

 73
1
 74
1
 75
1
 94
63
  0
MLINESTYLE
  5
22
102
{ACAD_REACTORS
330
10
102
}
330
10
100
AcDbMlineStyle
  2
Standard
 70
0
  3

 62
256
 51
90.0
 52
90.0
 71
2
 49
0.5
 62
256
  6
BYLAYER
 49
-0.5
 62
256
  6
BYLAYER
  0
MLEADERSTYLE
  5
2C
102
{ACAD_REACTORS
330
F
102
}
330
F
100
AcDbMLeaderStyle
179
2
170
2
171
1
172
0
 90
2
 40
0.0
 41
0.0
173
1
 91
-1056964608
 92
-2
290
1
 42
2.0
291
1
 43
8.0
  3
Standard
 44
4.0
300

342
29
174
1
175
1
176
0
178
1
 93
-1056964608
 45
4.0
292
0
297
0
 46
4.0
 94
-1056964608
 47
1.0
 49
1.0
140
1.0
294
1
141
0.0
177
0
142
1.0
295
0
296
0
143
3.75
271
0
272
9
273
9
  0
DICTIONARY
  5
2D
330
A
100
AcDbDictionary
280
1
281
1
  3
CREATED_BY_EZDXF
350
2E
  3
WRITTEN_BY_EZDXF
350
57
  0
DICTIONARYVAR
  5
2E
330
2D
100
DictionaryVariables
280
0
  1
1.4.4 @ 2026-07-17T11:08:09.912048+00:00
  0
DICTIONARYVAR
  5
57
330
2D
100
DictionaryVariables
280
0
  1
1.4.4 @ 2026-07-17T11:08:09.921483+00:00
  0
ENDSEC
  0
EOF
