  0
SECTION
  2
HEADER
  9
$ACADVER
  1
AC1027
  9
$ACADMAINTVER
 70
105
  9
$DWGCODEPAGE
  3
ANSI_1252
  9
$LASTSAVEDBY
  1
ezdxf
  9
$REQUIREDVERSIONS
160
0
  9
$INSBASE
 10
0.0
 20
0.0
 30
0.0
  9
$EXTMIN
 10
1e+20
 20
1e+20
 30
1e+20
  9
$EXTMAX
 10
-1e+20
 20
-1e+20
 30
-1e+20
  9
$LIMMIN
 10
0.0
 20
0.0
  9
$LIMMAX
 10
420.0
 20
297.0
  9
$ORTHOMODE
 70
0
  9
$REGENMODE
 70
1
  9
$FILLMODE
 70
1
  9
$QTEXTMODE
 70
0
  9
$MIRRTEXT
 70
1
  9
$LTSCALE
 40
1.0
  9
$ATTMODE
 70
1
  9
$TEXTSIZE
 40
2.5
  9
$TRACEWID
 40
1.0
  9
$TEXTSTYLE
  7
Standard
  9
$CLAYER
  8
0
  9
$CELTYPE
  6
ByLayer
  9
$CECOLOR
 62
256
  9
$CELTSCALE
 40
1.0
  9
$DISPSILH
 70
0
  9
$DIMSCALE
 40
1.0
  9
$DIMASZ
 40
2.5
  9
$DIMEXO
 40
0.625
  9
$DIMDLI
 40
3.75
  9
$DIMRND
 40
0.0
  9
$DIMDLE
 40
0.0
  9
$DIMEXE
 40
1.25
  9
$DIMTP
 40
0.0
  9
$DIMTM
 40
0.0
  9
$DIMTXT
 40
2.5
  9
$DIMCEN
 40
2.5
  9
$DIMTSZ
 40
0.0
  9
$DIMTOL
 70
0
  9
$DIMLIM
 70
0
  9
$DIMTIH
 70
0
  9
$DIMTOH
 70
0
  9
$DIMSE1
 70
0
  9
$DIMSE2
 70
0
  9
$DIMTAD
 70
1
  9
$DIMZIN
 70
8
  9
$DIMBLK
  1

  9
$DIMASO
 70
1
  9
$DIMSHO
 70
1
  9
$DIMPOST
  1

  9
$DIMAPOST
  1

  9
$DIMALT
 70
0
  9
$DIMALTD
 70
3
  9
$DIMALTF
 40
0.03937007874
  9
$DIMLFAC
 40
1.0
  9
$DIMTOFL
 70
1
  9
$DIMTVP
 40
0.0
  9
$DIMTIX
 70
0
  9
$DIMSOXD
 70
0
  9
$DIMSAH
 70
0
  9
$DIMBLK1
  1

  9
$DIMBLK2
  1

  9
$DIMSTYLE
  2
ISO-25
  9
$DIMCLRD
 70
0
  9
$DIMCLRE
 70
0
  9
$DIMCLRT
 70
0
  9
$DIMTFAC
 40
1.0
  9
$DIMGAP
 40
0.625
  9
$DIMJUST
 70
0
  9
$DIMSD1
 70
0
  9
$DIMSD2
 70
0
  9
$DIMTOLJ
 70
0
  9
$DIMTZIN
 70
8
  9
$DIMALTZ
 70
0
  9
$DIMALTTZ
 70
0
  9
$DIMUPT
 70
0
  9
$DIMDEC
 70
2
  9
$DIMTDEC
 70
2
  9
$DIMALTU
 70
2
  9
$DIMALTTD
 70
3
  9
$DIMTXSTY
  7
Standard
  9
$DIMAUNIT
 70
0
  9
$DIMADEC
 70
0
  9
$DIMALTRND
 40
0.0
  9
$DIMAZIN
 70
0
  9
$DIMDSEP
 70
44
  9
$DIMATFIT
 70
3
  9
$DIMFRAC
 70
0
  9
$DIMLDRBLK
  1

  9
$DIMLUNIT
 70
2
  9
$DIMLWD
 70
-2
  9
$DIMLWE
 70
-2
  9
$DIMTMOVE
 70
0
  9
$DIMFXL
 40
1.0
  9
$DIMFXLON
 70
0
  9
$DIMJOGANG
 40
0.785398163397
  9
$DIMTFILL
 70
0
  9
$DIMTFILLCLR
 70
0
  9
$DIMARCSYM
 70
0
  9
$DIMLTYPE
  6

  9
$DIMLTEX1
  6

  9
$DIMLTEX2
  6

  9
$DIMTXTDIRECTION
 70
0
  9
$LUNITS
 70
2
  9
$LUPREC
 70
4
  9
$SKETCHINC
 40
1.0
  9
$FILLETRAD
 40
10.0
  9
$AUNITS
 70
0
  9
$AUPREC
 70
2
  9
$MENU
  1
.
  9
$ELEVATION
 40
0.0
  9
$PELEVATION
 40
0.0
  9
$THICKNESS
 40
0.0
  9
$LIMCHECK
 70
0
  9
$CHAMFERA
 40
0.0
  9
$CHAMFERB
 40
0.0
  9
$CHAMFERC
 40
0.0
  9
$CHAMFERD
 40
0.0
  9
$SKPOLY
 70
0
  9
$TDCREATE
 40
2461239.645972222
  9
$TDUCREATE
 40
2458532.153996898
  9
$TDUPDATE
 40
2461239.645972222
  9
$TDUUPDATE
 40
2458532.1544311
  9
$TDINDWG
 40
0.0
  9
$TDUSRTIMER
 40
0.0
  9
$USRTIMER
 70
1
  9
$ANGBASE
 50
0.0
  9
$ANGDIR
 70
0
  9
$PDMODE
 70
0
  9
$PDSIZE
 40
0.0
  9
$PLINEWID
 40
0.0
  9
$SPLFRAME
 70
0
  9
$SPLINETYPE
 70
6
  9
$SPLINESEGS
 70
8
  9
$HANDSEED
  5
51
  9
$SURFTAB1
 70
6
  9
$SURFTAB2
 70
6
  9
$SURFTYPE
 70
6
  9
$SURFU
 70
6
  9
$SURFV
 70
6
  9
$UCSBASE
  2

  9
$UCSNAME
  2

  9
$UCSORG
 10
0.0
 20
0.0
 30
0.0
  9
$UCSXDIR
 10
1.0
 20
0.0
 30
0.0
  9
$UCSYDIR
 10
0.0
 20
1.0
 30
0.0
  9
$UCSORTHOREF
  2

  9
$UCSORTHOVIEW
 70
0
  9
$UCSORGTOP
 10
0.0
 20
0.0
 30
0.0
  9
$UCSORGBOTTOM
 10
0.0
 20
0.0
 30
0.0
  9
$UCSORGLEFT
 10
0.0
 20
0.0
 30
0.0
  9
$UCSORGRIGHT
 10
0.0
 20
0.0
 30
0.0
  9
$UCSORGFRONT
 10
0.0
 20
0.0
 30
0.0
  9
$UCSORGBACK
 10
0.0
 20
0.0
 30
0.0
  9
$PUCSBASE
  2

  9
$PUCSNAME
  2

  9
$PUCSORG
 10
0.0
 20
0.0
 30
0.0
  9
$PUCSXDIR
 10
1.0
 20
0.0
 30
0.0
  9
$PUCSYDIR
 10
0.0
 20
1.0
 30
0.0
  9
$PUCSORTHOREF
  2

  9
$PUCSORTHOVIEW
 70
0
  9
$PUCSORGTOP
 10
0.0
 20
0.0
 30
0.0
  9
$PUCSORGBOTTOM
 10
0.0
 20
0.0
 30
0.0
  9
$PUCSORGLEFT
 10
0.0
 20
0.0
 30
0.0
  9
$PUCSORGRIGHT
 10
0.0
 20
0.0
 30
0.0
  9
$PUCSORGFRONT
 10
0.0
 20
0.0
 30
0.0
  9
$PUCSORGBACK
 10
0.0
 20
0.0
 30
0.0
  9
$USERI1
 70
0
  9
$USERI2
 70
0
  9
$USERI3
 70
0
  9
$USERI4
 70
0
  9
$USERI5
 70
0
  9
$USERR1
 40
0.0
  9
$USERR2
 40
0.0
  9
$USERR3
 40
0.0
  9
$USERR4
 40
0.0
  9
$USERR5
 40
0.0
  9
$WORLDVIEW
 70
1
  9
$SHADEDGE
 70
3
  9
$SHADEDIF
 70
70
  9
$TILEMODE
 70
1
  9
$MAXACTVP
 70
64
  9
$PINSBASE
 10
0.0
 20
0.0
 30
0.0
  9
$PLIMCHECK
 70
0
  9
$PEXTMIN
 10
1e+20
 20
1e+20
 30
1e+20
  9
$PEXTMAX
 10
-1e+20
 20
-1e+20
 30
-1e+20
  9
$PLIMMIN
 10
0.0
 20
0.0
  9
$PLIMMAX
 10
420.0
 20
297.0
  9
$UNITMODE
 70
0
  9
$VISRETAIN
 70
1
  9
$PLINEGEN
 70
0
  9
$PSLTSCALE
 70
1
  9
$TREEDEPTH
 70
3020
  9
$CMLSTYLE
  2
Standard
  9
$CMLJUST
 70
0
  9
$CMLSCALE
 40
20.0
  9
$PROXYGRAPHICS
 70
1
  9
$MEASUREMENT
 70
1
  9
$CELWEIGHT
370
-1
  9
$ENDCAPS
280
0
  9
$JOINSTYLE
280
0
  9
$LWDISPLAY
290
0
  9
$INSUNITS
 70
4
  9
$HYPERLINKBASE
  1

  9
$STYLESHEET
  1

  9
$XEDIT
290
1
  9
$CEPSNTYPE
380
0
  9
$PSTYLEMODE
290
1
  9
$FINGERPRINTGUID
  2
{F43CFEF9-5098-4D9C-87B2-94DDAEAA72D6}
  9
$VERSIONGUID
  2
{61B90551-1BBC-4D0F-87D4-52091FE2F27F}
  9
$EXTNAMES
290
1
  9
$PSVPSCALE
 40
0.0
  9
$OLESTARTUP
290
0
  9
$SORTENTS
280
127
  9
$INDEXCTL
280
0
  9
$HIDETEXT
280
1
  9
$XCLIPFRAME
280
1
  9
$HALOGAP
280
0
  9
$OBSCOLOR
 70
257
  9
$OBSLTYPE
280
0
  9
$INTERSECTIONDISPLAY
280
0
  9
$INTERSECTIONCOLOR
 70
257
  9
$DIMASSOC
280
2
  9
$PROJECTNAME
  1

  9
$CAMERADISPLAY
290
0
  9
$LENSLENGTH
 40
50.0
  9
$CAMERAHEIGHT
 40
0.0
  9
$STEPSPERSEC
 40
24.0
  9
$STEPSIZE
 40
100.0
  9
$3DDWFPREC
 40
2.0
  9
$PSOLWIDTH
 40
0.005
  9
$PSOLHEIGHT
 40
0.08
  9
$LOFTANG1
 40
1.570796326795
  9
$LOFTANG2
 40
1.570796326795
  9
$LOFTMAG1
 40
0.0
  9
$LOFTMAG2
 40
0.0
  9
$LOFTPARAM
 70
7
  9
$LOFTNORMALS
280
1
  9
$LATITUDE
 40
37.795
  9
$LONGITUDE
 40
-122.394
  9
$NORTHDIRECTION
 40
0.0
  9
$TIMEZONE
 70
-8000
  9
$LIGHTGLYPHDISPLAY
280
1
  9
$TILEMODELIGHTSYNCH
280
1
  9
$CMATERIAL
347
20
  9
$SOLIDHIST
280
0
  9
$SHOWHIST
280
1
  9
$DWFFRAME
280
2
  9
$DGNFRAME
280
2
  9
$REALWORLDSCALE
290
1
  9
$INTERFERECOLOR
 62
256
  9
$CSHADOW
280
0
  9
$SHADOWPLANELOCATION
 40
0.0
  0
ENDSEC
  0
SECTION
  2
CLASSES
  0
CLASS
  1
ACDBDICTIONARYWDFLT
  2
AcDbDictionaryWithDefault
  3
ObjectDBX Classes
 90
0
 91
0
280
0
281
0
  0
CLASS
  1
SUN
  2
AcDbSun
  3
SCENEOE
 90
1153
 91
0
280
0
281
0
  0
CLASS
  1
VISUALSTYLE
  2
AcDbVisualStyle
  3
ObjectDBX Classes
 90
4095
 91
0
280
0
281
0
  0
CLASS
  1
MATERIAL
  2
AcDbMaterial
  3
ObjectDBX Classes
 90
1153
 91
0
280
0
281
0
  0
CLASS
  1
SCALE
  2
AcDbScale
  3
ObjectDBX Classes
 90
1153
 91
0
280
0
281
0
  0
CLASS
  1
TABLESTYLE
  2
AcDbTableStyle
  3
ObjectDBX Classes
 90
4095
 91
0
280
0
281
0
  0
CLASS
  1
MLEADERSTYLE
  2
AcDbMLeaderStyle
  3
ACDB_MLEADERSTYLE_CLASS
 90
4095
 91
0
280
0
281
0
  0
CLASS
  1
DICTIONARYVAR
  2
AcDbDictionaryVar
  3
ObjectDBX Classes
 90
0
 91
0
280
0
281
0
  0
CLASS
  1
CELLSTYLEMAP
  2
AcDbCellStyleMap
  3
ObjectDBX Classes
 90
1152
 91
0
280
0
281
0
  0
CLASS
  1
MENTALRAYRENDERSETTINGS
  2
AcDbMentalRayRenderSettings
  3
SCENEOE
 90
1024
 91
0
280
0
281
0
  0
CLASS
  1
ACDBDETAILVIEWSTYLE
  2
AcDbDetailViewStyle
  3
ObjectDBX Classes
 90
1025
 91
0
280
0
281
0
  0
CLASS
  1
ACDBSECTIONVIEWSTYLE
  2
AcDbSectionViewStyle
  3
ObjectDBX Classes
 90
1025
 91
0
280
0
281
0
  0
CLASS
  1
RASTERVARIABLES
  2
AcDbRasterVariables
  3
ISM
 90
0
 91
0
280
0
281
0
  0
CLASS
  1
LAYOUT
  2
AcDbLayout
  3
ObjectDBX Classes
 90
0
 91
0
280
0
281
0
  0
CLASS
  1
ACDBPLACEHOLDER
  2
AcDbPlaceHolder
  3
ObjectDBX Classes
 90
0
 91
0
280
0
281
0
  0
ENDSEC
  0
SECTION
  2
TABLES
  0
TABLE
  2
VPORT
  5
8
330
0
100
AcDbSymbolTable
 70
1
  0
VPORT
  5
23
330
8
100
AcDbSymbolTableRecord
100
AcDbViewportTableRecord
  2
*Active
 70
0
 10
0.0
 20
0.0
 11
1.0
 21
1.0
 12
0.0
 22
0.0
 13
0.0
 23
0.0
 14
0.5
 24
0.5
 15
0.5
 25
0.5
 16
0.0
 26
0.0
 36
1.0
 17
0.0
 27
0.0
 37
0.0
 40
1000.0
 41
1.34
 42
50.0
 43
0.0
 44
0.0
 50
0.0
 51
0.0
 71
0
 72
1000
 73
1
 74
3
 75
0
 76
0
 77
0
 78
0
281
0
 65
0
146
0.0
  0
ENDTAB
  0
TABLE
  2
LTYPE
  5
2
330
0
100
AcDbSymbolTable
 70
3
  0
LTYPE
  5
24
330
2
100
AcDbSymbolTableRecord
100
AcDbLinetypeTableRecord
  2
ByBlock
 70
0
  3

 72
65
 73
0
 40
0.0
  0
LTYPE
  5
25
330
2
100
AcDbSymbolTableRecord
100
AcDbLinetypeTableRecord
  2
ByLayer
 70
0
  3

 72
65
 73
0
 40
0.0
  0
LTYPE
  5
26
330
2
100
AcDbSymbolTableRecord
100
AcDbLinetypeTableRecord
  2
Continuous
 70
0
  3

 72
65
 73
0
 40
0.0
  0
ENDTAB
  0
TABLE
  2
LAYER
  5
1
330
0
100
AcDbSymbolTable
 70
3
  0
LAYER
  5
27
330
1
100
AcDbSymbolTableRecord
100
AcDbLayerTableRecord
  2
0
 70
0
 62
7
  6
Continuous
370
-3
390
13
347
21
  0
LAYER
  5
28
330
1
100
AcDbSymbolTableRecord
100
AcDbLayerTableRecord
  2
Defpoints
 70
0
 62
7
  6
Continuous
290
0
370
-3
390
13
347
21
  0
LAYER
  5
2F
330
1
100
AcDbSymbolTableRecord
100
AcDbLayerTableRecord
  2
K
 70
0
 62
7
  6
Continuous
370
-3
390
13
347
21
  0
ENDTAB
  0
TABLE
  2
STYLE
  5
5
330
0
100
AcDbSymbolTable
 70
1
  0
STYLE
  5
29
330
5
100
AcDbSymbolTableRecord
100
AcDbTextStyleTableRecord
  2
Standard
 70
0
 40
0.0
 41
1.0
 50
0.0
 71
0
 42
2.5
  3
txt
  4

  0
ENDTAB
  0
TABLE
  2
VIEW
  5
7
330
0
100
AcDbSymbolTable
 70
0
  0
ENDTAB
  0
TABLE
  2
UCS
  5
6
330
0
100
AcDbSymbolTable
 70
0
  0
ENDTAB
  0
TABLE
  2
APPID
  5
3
330
0
100
AcDbSymbolTable
 70
3
  0
APPID
  5
2A
330
3
100
AcDbSymbolTableRecord
100
AcDbRegAppTableRecord
  2
ACAD
 70
0
  0
APPID
  5
4E
330
3
100
AcDbSymbolTableRecord
100
AcDbRegAppTableRecord
  2
HATCHBACKGROUNDCOLOR
 70
0
  0
APPID
  5
4F
330
3
100
AcDbSymbolTableRecord
100
AcDbRegAppTableRecord
  2
EZDXF
 70
0
  0
ENDTAB
  0
TABLE
  2
DIMSTYLE
  5
4
330
0
100
AcDbSymbolTable
 70
1
100
AcDbDimStyleTable
  0
DIMSTYLE
105
2B
330
4
100
AcDbSymbolTableRecord
100
AcDbDimStyleTableRecord
  2
Standard
 70
0
 40
1.0
 41
2.5
 42
0.625
 43
3.75
 44
1.25
 45
0.0
 46
0.0
 47
0.0
 48
0.0
 49
2.5
140
2.5
141
2.5
142
0.0
143
0.03937007874
144
1.0
145
0.0
146
1.0
147
0.625
148
0.0
 69
0
 70
0
 71
0
 72
0
 73
0
 74
0
 75
0
 76
0
 77
1
 78
8
 79
3
170
0
171
3
172
1
173
0
174
0
175
0
176
0
177
0
178
0
179
2
271
2
272
2
273
2
274
3
275
0
276
0
277
2
278
44
279
0
280
0
281
0
282
0
283
0
284
8
285
0
286
0
288
0
289
3
290
0
371
-2
372
-2
  0
ENDTAB
  0
TABLE
  2
BLOCK_RECORD
  5
9
330
0
100
AcDbSymbolTable
 70
2
  0
BLOCK_RECORD
  5
17
330
9
100
AcDbSymbolTableRecord
100
AcDbBlockTableRecord
  2
*Model_Space
340
1A
 70
0
280
1
281
0
  0
BLOCK_RECORD
  5
1B
330
9
100
AcDbSymbolTableRecord
100
AcDbBlockTableRecord
  2
*Paper_Space
340
1E
 70
0
280
1
281
0
  0
ENDTAB
  0
ENDSEC
  0
SECTION
  2
BLOCKS
  0
BLOCK
  5
18
330
17
100
AcDbEntity
  8
0
100
AcDbBlockBegin
  2
*Model_Space
 70
0
 10
0.0
 20
0.0
 30
0.0
  3
*Model_Space
  1

  0
ENDBLK
  5
19
330
17
100
AcDbEntity
  8
0
100
AcDbBlockEnd
  0
BLOCK
  5
1C
330
1B
100
AcDbEntity
  8
0
100
AcDbBlockBegin
  2
*Paper_Space
 70
0
 10
0.0
 20
0.0
 30
0.0
  3
*Paper_Space
  1

  0
ENDBLK
  5
1D
330
1B
100
AcDbEntity
  8
0
100
AcDbBlockEnd
  0
ENDSEC
  0
SECTION
  2
ENTITIES
  0
LWPOLYLINE
  5
30
330
17
100
AcDbEntity
  8
K
100
AcDbPolyline
 90
26
 70
1
 10
11.841739636007098
 20
25.365634284103102
 10
11.130007215191196
 20
26.07736670491878
 10
1.858015889219633
 20
26.07736670491878
 10
0.0
 20
27.192176238450717
 10
0.0
 20
48.707644268691894
 10
1.435758229055839
 20
50.861281612275874
 10
2.1500439433412843
 20
53.71842446941877
 10
5.007186800484398
 20
58.00413875513299
 10
5.725643657803925
 20
60.87796618441266
 10
8.991834873766091
 20
63.418337130160765
 10
21.906682839915703
 20
64.13582868383583
 10
23.383781272807713
 20
63.3972794673896
 10
25.907364152926604
 20
59.431649227203124
 10
26.621384628087164
 20
56.57556732656155
 10
29.478527485229833
 20
52.28985304084721
 10
30.192813199515722
 20
49.43271018370432
 10
33.04995605665839
 20
45.146995897990095
 10
33.76354503238943
 20
42.29263999506616
 10
35.9228439447663
 20
39.413574778563884
 10
35.18763765601385
 20
36.472749623555735
 10
33.034709173568544
 20
35.0374639685922
 10
31.60898307088633
 20
32.18601176322744
 10
26.602879610585717
 20
27.895065940112374
 10
24.8097939278189
 20
25.38474598423923
 10
23.33492265070891
 20
24.647310345684236
 10
11.841739636007098
 20
25.365634284103102
  0
LWPOLYLINE
  5
31
330
17
100
AcDbEntity
  8
K
100
AcDbPolyline
 90
27
 70
1
 10
423.98442923530587
 20
244.65151611337598
 10
423.27286435804854
 20
245.36308099063308
 10
417.55857864376236
 20
245.36308099063308
 10
416.84429292947686
 20
246.07736670491875
 10
409.7014357866193
 20
246.07736670491875
 10
408.98715007233386
 20
246.79165241920464
 10
406.1437301749335
 20
246.79165241920464
 10
404.3025439823307
 20
247.89636413476669
 10
403.5570162908644
 20
250.1329472091638
 10
404.28571428571394
 20
250.8616452040129
 10
404.28571428571394
 20
255.14735948972734
 10
405.00404819934755
 20
255.86569340336075
 10
405.7172610085988
 20
262.99782149587656
 10
407.1464130954867
 20
265.1415496262084
 10
408.2255682877891
 20
274.13450956206174
 10
421.9049725260708
 20
274.13450956206174
 10
425.5295825456473
 20
272.684665554231
 10
426.24784839989485
 20
271.24813384573554
 10
428.03529403312757
 20
270.17566646579616
 10
431.62240904400437
 20
262.28401344186716
 10
433.76361566370923
 20
255.14665804285096
 10
435.91428571428594
 20
251.56220795855666
 10
435.91428571428594
 20
249.42192998297764
 10
437.35319166058815
 20
247.2635710635238
 10
436.6117417319546
 20
245.0392212776238
 10
434.7674527359184
 20
243.9326478800019
 10
423.98442923530587
 20
244.65151611337598
  0
LWPOLYLINE
  5
32
330
17
100
AcDbEntity
  8
K
100
AcDbPolyline
 90
28
 70
1
 10
397.14285714285677
 20
110.08233133574052
 10
397.14285714285677
 20
113.71878806115599
 10
397.85714285714266
 20
114.43307377544166
 10
397.85714285714266
 20
117.268053516704
 10
399.285714285714
 20
120.83948208813256
 10
399.285714285714
 20
123.0045023468701
 10
400.00502794020053
 20
123.72381600135695
 10
400.7164555662737
 20
129.41523700993906
 10
403.5880538375567
 20
137.31213225596818
 10
406.1393820660877
 20
139.13450956206174
 10
407.577646322149
 20
139.13450956206174
 10
419.7325298341288
 20
144.8544547441699
 10
422.6657738166621
 20
144.12114374853647
 10
433.0625204726881
 20
125.83720997414561
 10
432.3322396231895
 20
122.18580572664995
 10
430.4848412536373
 20
121.07736670491886
 10
426.9159918494871
 20
121.07736670491886
 10
424.7731347066299
 20
119.64879527634741
 10
421.90624005590973
 20
119.64879527634741
 10
416.9062400559098
 20
117.5059381334903
 10
415.48074965489246
 20
117.5059381334903
 10
411.23990273632717
 20
115.38551467420766
 10
409.8088337497936
 20
113.23891119440799
 10
406.2346036112752
 20
111.80921913900055
 10
404.09440734992154
 20
108.95562412386207
 10
401.1791015436712
 20
107.4979712207369
 10
397.8862243316961
 20
108.59559695806198
 10
397.14285714285677
 20
110.08233133574052
  0
LWPOLYLINE
  5
33
330
17
100
AcDbEntity
  8
K
100
AcDbPolyline
 90
33
 70
1
 10
388.97927022111435
 20
141.79953227042407
 10
388.27286435804797
 20
142.50593813349033
 10
386.1300072151912
 20
142.50593813349033
 10
385.4157215009053
 20
143.220223847776
 10
382.58074175964293
 20
143.220223847776
 10
379.009313188214
 20
144.64879527634744
 10
376.8621074879648
 20
144.64879527634744
 10
374.0049646308217
 20
146.0773667049189
 10
372.6302775637729
 20
146.0773667049189
 10
370.46754085544984
 20
144.63554223270336
 10
367.8694010962387
 20
145.7490307009366
 10
367.13430325825766
 20
149.42451989084248
 10
367.85714285714243
 20
150.14735948972736
 10
367.85714285714243
 20
155.84383064552566
 10
369.30929445724735
 20
158.7481338457356
 10
371.15313026189733
 20
159.8544353285255
 10
374.7245588333259
 20
159.14014961423973
 10
376.4465563923447
 20
160.1733481496511
 10
379.66232858377236
 20
169.10604868139413
 10
381.14782177367834
 20
169.84879527634743
 10
386.84429292947664
 20
169.84879527634743
 10
387.55857864376253
 20
170.5630809906331
 10
389.7705555393518
 20
170.5630809906331
 10
391.61349352322674
 20
169.45731820030784
 10
395.19232836909833
 20
157.2892797243447
 10
397.33626235688615
 20
153.71605641136566
 10
398.7617249735367
 20
148.014205944762
 10
399.48571428571444
 20
147.29021663258445
 10
399.48571428571444
 20
145.12954493123996
 10
400.92827803998875
 20
142.24441742269101
 10
399.8058466925545
 20
140.37369851030078
 10
397.9571428571429
 20
140.0039577432184
 10
388.97927022111435
 20
141.79953227042407
  0
LWPOLYLINE
  5
34
330
17
100
AcDbEntity
  8
K
100
AcDbPolyline
 90
20
 70
1
 10
820.3932212100431
 20
240.38052479123184
 10
818.5550599528722
 20
242.953950551271
 10
819.3060940248793
 20
244.45601869528534
 10
822.8751015840252
 20
247.31122474260192
 10
823.9529735971647
 20
249.8262594399274
 10
827.5505808461212
 20
251.26530233951016
 10
830.4166503580082
 20
253.41485447342492
 10
834.6948067659781
 20
254.1278805414202
 10
835.4157215009058
 20
254.8487952763474
 10
839.0521782263212
 20
254.8487952763474
 10
840.5279099979601
 20
254.11092939052793
 10
841.6258461284449
 20
252.2810358397196
 10
842.3388089435095
 20
245.15140768907506
 10
843.0678892409024
 20
244.4223273916819
 10
842.3331535449654
 20
241.48338460793295
 10
841.2276253382524
 20
240.3778564012202
 10
837.6192582403565
 20
238.93450956206163
 10
834.7633829130523
 20
238.93450956206163
 10
829.74489272723
 20
236.78372805385206
 10
820.3932212100431
 20
240.38052479123184
  0
LWPOLYLINE
  5
35
330
17
100
AcDbEntity
  8
K
100
AcDbPolyline
 90
28
 70
1
 10
805.7142857142854
 20
52.93947419288336
 10
805.7142857142854
 20
54.36395402270977
 10
803.5714285714282
 20
57.93538259413833
 10
803.5714285714282
 20
59.36137485543147
 10
802.1500439433413
 20
61.493451797561825
 10
801.4416033330812
 20
64.32721423860177
 10
799.7106165794861
 20
65.36580629075905
 10
792.567759436629
 20
66.08009200504472
 10
790.7378658858188
 20
67.17802813553064
 10
789.9892219720901
 20
68.67531596298892
 10
793.5844105537642
 20
76.58473084267182
 10
795.3902060721807
 20
79.11284456845557
 10
796.8900921393705
 20
79.86278760205035
 10
804.0905772244222
 20
75.54249655101918
 10
806.9419110525382
 20
72.69116272290333
 10
810.5133396239672
 20
71.26259129433188
 10
813.3735216290104
 20
68.40240928928843
 10
816.2421957122461
 20
66.96807224767076
 10
817.3428571428574
 20
65.13363652998494
 10
817.3428571428574
 20
63.653759907169146
 10
815.896471155798
 20
60.76098793305151
 10
814.4678997272267
 20
59.332416504480065
 10
812.342857142857
 20
55.082331335740584
 10
812.342857142857
 20
52.93947419288336
 10
810.8907055427521
 20
50.035170992673514
 10
809.0285714285715
 20
48.91789052416495
 10
807.1664373143904
 20
50.035170992673514
 10
805.7142857142854
 20
52.93947419288336
  0
LWPOLYLINE
  5
36
330
17
100
AcDbEntity
  8
K
100
AcDbPolyline
 90
21
 70
1
 10
803.6461613086268
 20
107.85604714780095
 10
800.422832082128
 20
110.36308099063308
 10
794.0008730320767
 20
110.36308099063308
 10
792.1636801819154
 20
111.46539670072964
 10
789.9999999999998
 20
116.51398379186718
 10
789.9999999999998
 20
118.65501302706805
 10
784.2725137386337
 20
130.8259213324706
 10
785.3904260012758
 20
132.68910843687365
 10
787.607672972243
 20
133.42819076052936
 10
790.4873496615174
 20
131.98835241589202
 10
795.4815614068165
 20
131.274893595135
 10
803.3319032120538
 20
128.42022384777596
 10
805.4788037766148
 20
128.42022384777596
 10
809.4667928867441
 20
126.6075015249899
 10
810.20689128804
 20
124.38720632110245
 10
808.0538020797345
 20
119.36333150172341
 10
807.3362281222159
 20
115.05788775661185
 10
806.6285714285717
 20
114.3502310629676
 10
806.6285714285717
 20
110.07823973699549
 10
805.5201324068404
 20
108.23084136744366
 10
803.6461613086268
 20
107.85604714780095
  0
LWPOLYLINE
  5
37
330
17
100
AcDbEntity
  8
K
100
AcDbPolyline
 90
23
 70
1
 10
802.8807230286764
 20
156.46374242124494
 10
802.1441590903582
 20
157.93687029788072
 10
801.4308447061304
 20
170.77652921397967
 10
800.7142857142854
 20
171.49308820582476
 10
800.7142857142854
 20
176.51090276431202
 10
800.0235801715332
 20
177.89231384981642
 10
798.2865873177911
 20
178.9345095620617
 10
794.0049646308214
 20
178.9345095620617
 10
792.5325135396231
 20
179.67073510766096
 10
784.2633292137042
 20
191.53521696658825
 10
786.1044917864664
 20
194.11284456845567
 10
787.5763932022502
 20
194.84879527634735
 10
789.7178571428569
 20
194.84879527634735
 10
800.4194568892158
 20
200.5563151410723
 10
805.4713883855864
 20
201.99972414003508
 10
807.3192769713236
 20
200.89099098859276
 10
808.057142857143
 20
199.41525921695424
 10
808.057142857143
 20
178.7076442686919
 10
809.4857142857144
 20
176.56478712583478
 10
809.4857142857144
 20
159.36395402270975
 10
808.3871726129714
 20
157.533051234805
 10
804.742857142857
 20
155.34646195273638
 10
802.8807230286764
 20
156.46374242124494
  0
LWPOLYLINE
  5
38
330
17
100
AcDbEntity
  8
K
100
AcDbPolyline
 90
12
 70
1
 10
779.278828827292
 20
36.54974083318763
 10
784.2909286656899
 20
45.14191198472639
 10
785.0096972955727
 20
48.735755134143076
 10
787.5908695606378
 20
50.57944960918914
 10
790.5279099979603
 20
49.11092939052786
 10
791.6406274702441
 20
47.256400270054954
 10
789.4857142857144
 20
42.228269506152884
 10
789.4857142857144
 20
40.7956189461195
 10
785.5307439236332
 20
33.24522098214644
 10
784.0391198947507
 20
32.499408967705094
 10
780.0171892496805
 20
33.59629914363327
 10
779.278828827292
 20
36.54974083318763
  0
LWPOLYLINE
  5
39
330
17
100
AcDbEntity
  8
K
100
AcDbPolyline
 90
15
 70
1
 10
1237.5476122990535
 20
21.802618763913873
 10
1235.7336716560576
 20
23.61655940690932
 10
1232.1470562737588
 20
30.072467095047074
 10
1231.42312240717
 20
34.41607029458294
 10
1233.2473489293236
 20
36.969987425598426
 10
1234.7336067256247
 20
37.71311632374896
 10
1241.9227159546424
 20
35.55638355504376
 10
1246.242195712246
 20
33.39664367624218
 10
1247.3428571428574
 20
31.562207958556463
 10
1247.3428571428574
 20
27.932803426859998
 10
1245.914285714286
 20
25.789946284002884
 10
1245.914285714286
 20
24.368045621454783
 10
1244.4621341141806
 20
21.463742421244937
 10
1242.6142455284435
 20
20.35500926980238
 10
1237.5476122990535
 20
21.802618763913873
  0
LWPOLYLINE
  5
3A
330
17
100
AcDbEntity
  8
K
100
AcDbPolyline
 90
17
 70
1
 10
1212.9445839889784
 20
49.28716025529978
 10
1207.5778150663252
 20
51.79165241920458
 10
1206.1411510076555
 20
51.79165241920458
 10
1203.9982938647981
 20
53.22022384777591
 10
1202.5747882419964
 20
53.22022384777591
 10
1197.88185832742
 20
55.747186109470825
 10
1197.1428571428567
 20
57.2251884785977
 10
1197.1428571428567
 20
61.55972132006448
 10
1199.6698194045518
 20
66.25265123464108
 10
1201.1478217736785
 20
66.99165241920457
 10
1208.3419841107802
 20
66.99165241920457
 10
1210.1781511759846
 20
65.88995218008186
 10
1213.7714285714285
 20
57.984741910104944
 10
1213.7714285714285
 20
55.847922244270706
 10
1215.9263417559582
 20
52.25640027005496
 10
1214.814050289696
 20
49.66105351544326
 10
1212.9445839889784
 20
49.28716025529978
  0
LWPOLYLINE
  5
3B
330
17
100
AcDbEntity
  8
K
100
AcDbPolyline
 90
21
 70
1
 10
1182.9323879841688
 20
15.720797885387938
 10
1181.454035829321
 20
16.459973962811958
 10
1180.7024823154109
 20
17.963080990633152
 10
1183.5714285714282
 20
23.700973502668532
 10
1183.5714285714282
 20
25.129544931239977
 10
1190.7359507078916
 20
39.45858920416634
 10
1193.2822392089452
 20
41.27736670491877
 10
1196.1300072151912
 20
41.27736670491877
 10
1196.868340771997
 20
42.015700261724966
 10
1203.3825561792812
 20
38.3966917021229
 10
1205.2194820332072
 20
35.82499550662632
 10
1204.0993385693887
 20
33.958089733595486
 10
1202.6236067977493
 20
33.22022384777601
 10
1198.34198411078
 20
33.22022384777601
 10
1196.604991257038
 20
32.17802813553061
 10
1195.92164639247
 20
30.811338406394494
 10
1198.7627195422542
 20
21.577850669597055
 10
1200.2077432956971
 20
19.41031503943169
 10
1199.472682381204
 20
16.47007138145895
 10
1197.6265687977689
 20
15.362403231397703
 10
1182.9323879841688
 20
15.720797885387938
  0
LWPOLYLINE
  5
3C
330
17
100
AcDbEntity
  8
K
100
AcDbPolyline
 90
20
 70
1
 10
1197.211466848009
 20
102.15226434972746
 10
1191.1113504901953
 20
105.38173771562897
 10
1188.5854013102644
 20
107.90768689555996
 10
1186.4285714285709
 20
113.65923324674199
 10
1186.4285714285709
 20
115.84792224427076
 10
1187.5292328591827
 20
117.68235796195658
 10
1189.0049646308216
 20
118.42022384777596
 10
1192.5585786437628
 20
118.42022384777596
 10
1193.272864358048
 20
119.13450956206174
 10
1195.4848412536373
 20
119.13450956206174
 10
1197.3192769713235
 20
118.0338481314499
 10
1198.7714285714287
 20
115.12954493123995
 10
1198.7714285714287
 20
113.70764426869195
 10
1200.2
 20
111.56478712583473
 10
1200.2
 20
109.41935081569932
 10
1202.3428571428574
 20
105.84792224427075
 10
1202.3428571428574
 20
104.36395402270982
 10
1201.242195712246
 20
102.5295183050241
 10
1199.7596387008432
 20
101.78823979932272
 10
1197.211466848009
 20
102.15226434972746
  0
LWPOLYLINE
  5
3D
330
17
100
AcDbEntity
  8
K
100
AcDbPolyline
 90
23
 70
1
 10
1194.3604470229125
 20
147.1417614335152
 10
1191.1484581217703
 20
149.63997502329252
 10
1188.3026513699733
 20
148.92852333534313
 10
1185.390206072181
 20
150.38474598423923
 10
1183.5550599528726
 20
152.95395055127102
 10
1184.2739108868395
 20
154.3916524192046
 10
1183.598367637459
 20
155.74273891796474
 10
1181.1023157100965
 20
156.81247545826304
 10
1179.9999999999998
 20
158.64966830842408
 10
1179.9999999999998
 20
160.85227035311632
 10
1181.818777500752
 20
163.39855885416986
 10
1189.0208984563287
 20
166.99961933195794
 10
1191.2339009933048
 20
166.26195181963243
 10
1193.0526893349725
 20
163.71564814129835
 10
1193.7657094755862
 20
158.72450715699816
 10
1194.5143938537183
 20
157.97582277886625
 10
1193.057142857143
 20
155.7899462840029
 10
1193.057142857143
 20
154.41935081569935
 10
1194.0976842899036
 20
152.68511509443184
 10
1196.6016323625408
 20
151.6119944918729
 10
1197.3530415816133
 20
150.1091760537273
 10
1196.2426217182679
 20
147.51819637258612
 10
1194.3604470229125
 20
147.1417614335152
  0
LWPOLYLINE
  5
3E
330
17
100
AcDbEntity
  8
K
100
AcDbPolyline
 90
33
 70
1
 10
1764.370364372895
 20
169.29218644769162
 10
1760.4008665359934
 20
170.37477676684665
 10
1756.4285714285709
 20
175.06930734834592
 10
1756.4285714285709
 20
177.2251884785977
 10
1752.1466897790367
 20
185.7889517776663
 10
1751.432404064751
 20
190.07466606338065
 10
1749.9952130358415
 20
192.9490481211996
 10
1750.724903233953
 20
196.59749911175916
 10
1752.6155014489623
 20
197.73185804076476
 10
1753.3614261663643
 20
196.985933323363
 10
1758.3614261663643
 20
196.27164760907712
 10
1759.0699927848084
 20
195.56308099063313
 10
1761.1950353691777
 20
195.56308099063313
 10
1764.0521782263208
 20
194.13450956206168
 10
1766.9271356419513
 20
194.13450956206168
 10
1767.6414213562373
 20
193.42022384777601
 10
1769.7664639406062
 20
193.42022384777601
 10
1772.6236067977493
 20
191.99165241920457
 10
1774.0521782263206
 20
191.99165241920457
 10
1776.9564814265318
 20
190.53950081909932
 10
1778.0571428571425
 20
188.7050651014136
 10
1778.0571428571425
 20
186.56478712583478
 10
1779.4857142857143
 20
184.42192998297767
 10
1779.4857142857143
 20
182.99335855440611
 10
1780.9084641107384
 20
180.85923381687007
 10
1781.6206915773512
 20
177.29809648380444
 10
1782.3536035266168
 20
176.56518453453907
 10
1781.6188678306792
 20
173.62624175079
 10
1779.090577224422
 20
171.09795114453286
 10
1775.4416414081797
 20
168.90858965478728
 10
1774.7231118379484
 20
169.6271192250185
 10
1773.3359957714138
 20
168.93356119175095
 10
1764.370364372895
 20
169.29218644769162
  0
LWPOLYLINE
  5
3F
330
17
100
AcDbEntity
  8
K
100
AcDbPolyline
 90
26
 70
1
 10
1732.8862243316955
 20
62.881311243776274
 10
1732.1428571428567
 20
64.36804562145481
 10
1732.1428571428567
 20
96.56362963078146
 10
1734.677552255126
 20
100.54672195006175
 10
1736.8876777560351
 20
101.28343045036492
 10
1742.6181334581772
 20
99.13450956206171
 10
1745.477668627338
 20
99.13450956206171
 10
1750.477668627338
 20
96.99165241920448
 10
1752.6236067977493
 20
96.99165241920448
 10
1756.9541884506127
 20
94.82636159277303
 10
1758.385017409704
 20
92.68011815413601
 10
1763.7608110517604
 20
89.45464196890197
 10
1764.494268170313
 20
85.78735637613799
 10
1763.7714285714283
 20
85.06451677725313
 10
1763.7714285714283
 20
83.64966830842413
 10
1761.6285714285716
 20
80.07823973699557
 10
1761.6285714285716
 20
78.64966830842413
 10
1759.4857142857143
 20
75.07823973699546
 10
1759.4857142857143
 20
72.93824338994803
 10
1756.2426381789571
 20
66.81243296607332
 10
1752.624535058258
 20
65.36519171779365
 10
1746.2173352829686
 20
64.65328063165032
 10
1745.5026124127273
 20
63.93855776140889
 10
1738.3490262195282
 20
63.22319914208896
 10
1736.1862043586048
 20
61.78131790147346
 10
1732.8862243316955
 20
62.881311243776274
  0
LWPOLYLINE
  5
40
330
17
100
AcDbEntity
  8
K
100
AcDbPolyline
 90
10
 70
1
 10
1707.2230684267647
 20
0.0
 10
1703.2513371048926
 20
2.527465386645611
 10
1699.998183573213
 20
5.780618918325597
 10
1700.3627428619427
 20
14.165482559108543
 10
1705.5160234908815
 20
12.69311666512596
 10
1708.0516203827822
 20
9.433063518396011
 10
1708.7675959352487
 20
5.137210203599918
 10
1710.213992325703
 20
2.244417422690992
 10
1709.0915609782687
 20
0.3736985103007795
 10
1707.2230684267647
 20
0.0
  0
LWPOLYLINE
  5
41
330
17
100
AcDbEntity
  8
K
100
AcDbPolyline
 90
23
 70
1
 10
2221.130007215191
 20
115.3630809906332
 10
2218.290678916536
 20
115.3630809906332
 10
2215.3863757163253
 20
116.81523259073833
 10
2214.291053219255
 20
118.64077008585528
 10
2212.8650227083626
 20
125.77092264031886
 10
2212.142857142857
 20
126.4930882058246
 10
2212.142857142857
 20
128.63594534868184
 10
2211.428571428571
 20
129.35023106296762
 10
2211.428571428571
 20
135.133636529985
 10
2212.5292328591827
 20
136.9680722476707
 10
2214.0193210113393
 20
137.71311632374895
 10
2221.208430240357
 20
135.55638355504362
 10
2225.4873496615173
 20
133.41692384446347
 10
2230.4912761334213
 20
132.7020772056201
 10
2232.3192769713237
 20
131.60527670287848
 10
2233.0689462560176
 20
130.10593813349024
 10
2230.914285714286
 20
125.7966170500262
 10
2230.914285714286
 20
124.36395402270983
 10
2228.7648337854575
 20
120.78153414132919
 10
2227.329825238347
 20
115.04149995288748
 10
2225.4754411666736
 20
113.92886950988357
 10
2221.8364130782575
 20
114.65667512756694
 10
2221.130007215191
 20
115.3630809906332
  0
LWPOLYLINE
  5
42
330
17
100
AcDbEntity
  8
K
100
AcDbPolyline
 90
21
 70
1
 10
2211.428571428571
 20
179.3680456214548
 10
2211.428571428571
 20
184.4330737754415
 10
2212.142857142857
 20
185.14735948972728
 10
2212.142857142857
 20
188.00450234687028
 10
2212.8571428571427
 20
188.71878806115595
 10
2212.8571428571427
 20
190.8394820881325
 10
2214.3053778633666
 20
194.46006960369277
 10
2216.1437301749343
 20
195.56308099063313
 10
2220.4157215009054
 20
195.56308099063313
 10
2221.130007215191
 20
196.2773667049188
 10
2222.6276983964945
 20
196.2773667049188
 10
2224.4726823812043
 20
195.17037631409318
 10
2225.2048567389106
 20
192.24167888326716
 10
2223.7690590322422
 20
188.65218461659515
 10
2223.0521149169417
 20
182.91663169419493
 10
2222.3428571428576
 20
182.20737392011043
 10
2222.3428571428576
 20
176.506811165567
 10
2221.242195712246
 20
174.67237544788117
 10
2219.7417974897476
 20
173.9221763366321
 10
2212.167854277227
 20
177.88947992414285
 10
2211.428571428571
 20
179.3680456214548
  0
LWPOLYLINE
  5
43
330
17
100
AcDbEntity
  8
K
100
AcDbPolyline
 90
24
 70
1
 10
2196.4919745604566
 20
230.01015100305122
 10
2194.3081479692883
 20
231.4660353971638
 10
2193.575261207608
 20
232.93180892052345
 10
2192.8609754933227
 20
237.21752320623767
 10
2191.428571428571
 20
240.08233133574052
 10
2191.428571428571
 20
242.20737392011048
 10
2190.688365807011
 20
242.94757954167068
 10
2191.8103308268824
 20
244.8175212414556
 10
2197.167473684025
 20
248.7460926700271
 10
2198.243518573468
 20
250.53950081909937
 10
2201.173884616084
 20
252.0046838404071
 10
2204.4641623430675
 20
250.17675176986032
 10
2206.6060563583824
 20
245.17899906745976
 10
2208.031678456393
 20
244.46618801845466
 10
2209.4857142857145
 20
241.5581163598113
 10
2209.4857142857145
 20
239.3723941788479
 10
2208.057142857143
 20
235.80096560741936
 10
2208.057142857143
 20
233.64966830842394
 10
2206.948703835412
 20
231.8022699388722
 10
2203.3635869217424
 20
231.08524655613837
 10
2202.641421356237
 20
230.3630809906332
 10
2199.784278499095
 20
230.3630809906332
 10
2199.0639267676306
 20
229.6427292591692
 10
2196.4919745604566
 20
230.01015100305122
  0
LWPOLYLINE
  5
44
330
17
100
AcDbEntity
  8
K
100
AcDbPolyline
 90
17
 70
1
 10
2162.836757545903
 20
92.9523000332203
 10
2166.4285714285716
 20
99.4175650220237
 10
2166.4285714285716
 20
101.55811635981138
 10
2170.7321002727726
 20
110.16517404821468
 10
2172.1585288323886
 20
111.59160260783064
 10
2173.240060790191
 20
114.1151771760357
 10
2175.4771310007395
 20
114.86086724621869
 10
2179.08044069113
 20
111.97821949390597
 10
2184.0976842899036
 20
109.8279722372889
 10
2185.2
 20
107.99077938712787
 10
2185.2
 20
90.79252545128125
 10
2184.0993385693887
 20
88.95808973359553
 10
2182.63127207011
 20
88.22405648395603
 10
2178.3426066317684
 20
87.50927891089921
 10
2173.311047794049
 20
85.3528965518765
 10
2166.107576809816
 20
88.95463204399334
 10
2162.836757545903
 20
92.9523000332203
  0
LWPOLYLINE
  5
45
330
17
100
AcDbEntity
  8
K
100
AcDbPolyline
 90
19
 70
1
 10
2159.285714285714
 20
191.51090276431205
 10
2159.285714285714
 20
193.65684093472436
 10
2157.142857142857
 20
198.65684093472424
 10
2157.142857142857
 20
204.41935081569952
 10
2158.2435185734685
 20
206.2537865333851
 10
2159.7428571428572
 20
207.00345581807954
 10
2162.6236067977497
 20
205.56308099063304
 10
2166.2128499276655
 20
205.56308099063304
 10
2166.9271356419513
 20
204.84879527634737
 10
2168.3378925120355
 20
204.84879527634737
 10
2171.242195712246
 20
203.3966436762422
 10
2172.342857142857
 20
201.56220795855663
 10
2172.342857142857
 20
195.0823313357406
 10
2171.604611403284
 20
193.60583985659397
 10
2164.7697162192217
 20
189.64879527634747
 10
2163.3557070705233
 20
189.64879527634747
 10
2162.6228372183073
 20
188.9159254241318
 10
2160.0269390660305
 20
190.0284532036791
 10
2159.285714285714
 20
191.51090276431205
  0
LWPOLYLINE
  5
46
330
17
100
AcDbEntity
  8
K
100
AcDbPolyline
 90
16
 70
1
 10
2132.1211810915283
 20
63.697112009826974
 10
2132.8571428571427
 20
64.4330737754415
 10
2132.8571428571427
 20
66.55686323991239
 10
2138.5714285714284
 20
78.69972038276963
 10
2138.5714285714284
 20
80.8438306455257
 10
2140.0235801715335
 20
83.74813384573565
 10
2141.8857142857146
 20
84.8654143142441
 10
2143.7478483998952
 20
83.74813384573565
 10
2144.4857142857145
 20
82.27240207409714
 10
2144.4857142857145
 20
65.07823973699544
 10
2143.3850528551034
 20
63.243804019309735
 10
2141.915921090089
 20
62.50923813680276
 10
2136.9328547377927
 20
61.79737151504627
 10
2136.1984376471023
 20
61.062954424355276
 10
2132.8862243316958
 20
62.1670255294906
 10
2132.1211810915283
 20
63.697112009826974
  0
LWPOLYLINE
  5
47
330
17
100
AcDbEntity
  8
K
100
AcDbPolyline
 90
20
 70
1
 10
2568.968262392005
 20
153.94689570791354
 10
2567.142857142857
 20
156.50246305672133
 10
2567.142857142857
 20
161.55811635981144
 10
2567.8800872375286
 20
163.03257654915492
 10
2571.844278637971
 20
165.5552438039819
 10
2576.904603076825
 20
167.00105078651163
 10
2579.4666067443604
 20
165.17104816684315
 10
2580.5295179593286
 20
162.69092199858426
 10
2583.355343478786
 20
161.98446561871992
 10
2585.4874204209154
 20
160.5630809906331
 10
2587.6276983964945
 20
160.5630809906331
 10
2591.199126967923
 20
158.420223847776
 10
2593.3419841107802
 20
158.420223847776
 10
2595.176419828467
 20
157.31956241716415
 10
2595.9282780399885
 20
155.81584599411957
 10
2594.8136242836745
 20
153.95808973359547
 10
2590.480749654893
 20
151.79165241920455
 10
2589.0562698250656
 20
151.79165241920455
 10
2585.47256028173
 20
149.6414266932029
 10
2568.968262392005
 20
153.94689570791354
  0
LWPOLYLINE
  5
48
330
17
100
AcDbEntity
  8
K
100
AcDbPolyline
 90
19
 70
1
 10
2562.5323269748465
 20
90.37897983309007
 10
2560.700135621372
 20
93.67692426934494
 10
2565.0240162637824
 20
101.60403878043245
 10
2567.164083023039
 20
103.03074995326999
 10
2572.1596890125984
 20
113.73561993089798
 10
2574.3035288442015
 20
115.87945976250047
 10
2575.7142857142853
 20
118.7009735026685
 10
2575.7142857142853
 20
120.12954493123995
 10
2577.16643731439
 20
123.0338481314499
 10
2579.0008730320765
 20
124.13450956206162
 10
2580.484841253637
 20
124.13450956206162
 10
2582.3192769713237
 20
123.0338481314499
 10
2583.057142857143
 20
121.5581163598114
 10
2583.057142857143
 20
108.64966830842404
 10
2581.954827147046
 20
106.812475458263
 10
2579.4607182474656
 20
105.74357164415716
 10
2572.322798864934
 20
90.04014900258773
 10
2569.7610840542766
 20
88.21035270926092
 10
2562.5323269748465
 20
90.37897983309007
  0
LWPOLYLINE
  5
49
330
17
100
AcDbEntity
  8
K
100
AcDbPolyline
 90
24
 70
1
 10
2568.29375994409
 20
46.791652419204574
 10
2566.1411510076555
 20
46.791652419204574
 10
2563.998293864798
 20
48.220223847776026
 10
2561.862107487964
 20
48.220223847776026
 10
2556.1073330965205
 20
51.09761104349797
 10
2550.015425819651
 20
58.62290826786543
 10
2548.5596251725533
 20
61.534509562061636
 10
2549.3121042752496
 20
63.039467767454724
 10
2553.2874087223945
 20
64.84642433433874
 10
2559.7183220845986
 20
65.56097026347263
 10
2563.2950274739287
 20
66.99165241920457
 10
2567.57639320225
 20
66.99165241920457
 10
2570.4494698849
 20
68.42819076052942
 10
2572.672991962928
 20
67.68701673451972
 10
2574.4857142857145
 20
63.69902762439072
 10
2574.4857142857145
 20
62.27907284012046
 10
2575.9142857142856
 20
60.13621569726335
 10
2575.9142857142856
 20
57.272402074097116
 10
2577.3399603057037
 20
54.4210528912612
 10
2578.060652254176
 20
48.65551730347995
 10
2576.95989430636
 20
46.82092072378663
 10
2574.7931470047006
 20
45.37642252268015
 10
2573.317523634522
 20
44.6386108375908
 10
2568.29375994409
 20
46.791652419204574
  0
LWPOLYLINE
  5
4A
330
17
100
AcDbEntity
  8
K
100
AcDbPolyline
 90
36
 70
1
 10
2743.2691758325964
 20
8.223912373227837
 10
2742.558578643762
 20
8.934509562061654
 10
2738.987150072334
 20
8.934509562061654
 10
2738.294540409377
 20
9.627119225018355
 10
2736.9093210834635
 20
8.934509562061654
 10
2733.9871500723334
 20
8.934509562061654
 10
2733.272864358048
 20
9.648795276347432
 10
2729.7014357866196
 20
9.648795276347432
 10
2728.982664717031
 20
10.367566345936051
 10
2722.5742286900704
 20
11.079614793376159
 10
2719.9999999999995
 20
12.182855660549329
 10
2719.9999999999995
 20
37.290216632584695
 10
2721.1121926567034
 20
38.40240928928851
 10
2724.0092943076625
 20
39.85096011476807
 10
2731.8481227176394
 20
39.138339350224705
 10
2732.5585786437623
 20
39.848795276347325
 10
2738.355707070523
 20
39.848795276347325
 10
2739.069992784808
 20
39.13450956206166
 10
2748.355707070523
 20
39.13450956206166
 10
2749.0699927848086
 20
38.42022384777599
 10
2752.6343107750135
 20
38.42022384777599
 10
2755.899579437738
 20
35.880570443434955
 10
2756.2504855129328
 20
34.82785221785167
 10
2758.385204239732
 20
34.11627930891847
 10
2759.099489954018
 20
32.68770788034703
 10
2761.242347096875
 20
31.97342216606136
 10
2761.9621341141806
 20
30.533848131449993
 10
2763.758396666918
 20
29.45609059980758
 10
2764.4934575814113
 20
26.51584694183451
 10
2763.0571428571425
 20
24.36137485543133
 10
2763.0571428571425
 20
15.796617050025885
 10
2762.3204234592827
 20
14.32317825430629
 10
2760.1840183100717
 20
12.8989081548323
 10
2759.8246268897137
 20
11.820733893758039
 10
2751.190705692337
 20
7.50377329506946
 10
2743.2691758325964
 20
8.223912373227837
  0
LWPOLYLINE
  5
4B
330
17
100
AcDbEntity
  8
K
100
AcDbPolyline
 90
50
 70
1
 10
3138.276674380264
 20
146.79654159936973
 10
3136.1411510076546
 20
148.220223847776
 10
3133.9871500723334
 20
148.220223847776
 10
3133.272864358048
 20
148.93450956206166
 10
3129.7125795790835
 20
148.93450956206166
 10
3127.569722436226
 20
150.3630809906331
 10
3125.415721500905
 20
150.3630809906331
 10
3124.701435786619
 20
151.0773667049189
 10
3121.8554367219404
 20
151.0773667049189
 10
3119.712579579083
 20
152.50593813349033
 10
3117.558578643762
 20
152.50593813349033
 10
3116.8442929294765
 20
153.220223847776
 10
3113.9982938647977
 20
153.220223847776
 10
3111.849886309107
 20
154.65249555156956
 10
3106.1356005948214
 20
155.36678126585522
 10
3103.9982938647977
 20
156.79165241920455
 10
3100.4250963518016
 20
156.79165241920455
 10
3097.878807850748
 20
158.61042991995677
 10
3097.1428571428564
 20
160.08233133574024
 10
3097.1428571428564
 20
165.1379846388311
 10
3098.9616346436087
 20
167.6842731398841
 10
3100.4335360593927
 20
168.420223847776
 10
3102.569722436226
 20
168.420223847776
 10
3104.7125795790835
 20
169.84879527634743
 10
3106.8442929294765
 20
169.84879527634743
 10
3107.572990924326
 20
170.57749327119666
 10
3109.715848067183
 20
169.86320755691096
 10
3110.415721500905
 20
170.5630809906331
 10
3112.569722436226
 20
170.5630809906331
 10
3114.7038471737633
 20
171.98583081565778
 10
3121.84670431662
 20
173.41440224422922
 10
3123.9982938647977
 20
174.84879527634735
 10
3125.4985642133797
 20
174.84879527634735
 10
3126.1911738763365
 20
174.15618561339073
 10
3127.6197453049076
 20
174.87047132767643
 10
3128.3557070705224
 20
174.13450956206168
 10
3130.4807496548924
 20
174.13450956206168
 10
3139.0587782329458
 20
169.84549527303483
 10
3144.0627047048497
 20
169.13064863419146
 10
3147.6276983964945
 20
166.99165241920454
 10
3149.052178226321
 20
166.99165241920454
 10
3151.956481426531
 20
165.53950081909952
 10
3153.0571428571425
 20
163.7050651014136
 10
3153.0571428571425
 20
162.21674877100656
 10
3149.474088590274
 20
157.20047279739035
 10
3148.042367446555
 20
153.62116993809437
 10
3146.6128997390397
 20
152.19170223057864
 10
3144.4648912466555
 20
147.17968241501544
 10
3142.6198778205107
 20
146.0726743593287
 10
3138.276674380264
 20
146.79654159936973
  0
LWPOLYLINE
  5
4C
330
17
100
AcDbEntity
  8
K
100
AcDbPolyline
 90
37
 70
1
 10
3123.644551579537
 20
190.00830907549883
 10
3119.721196223385
 20
191.79165241920458
 10
3117.5697224362266
 20
191.79165241920458
 10
3115.4268652933692
 20
193.22022384777603
 10
3112.5763932022496
 20
193.22022384777603
 10
3108.2906789165354
 20
195.36308099063316
 10
3106.141151007655
 20
195.36308099063316
 10
3103.9982938647977
 20
196.7916524192046
 10
3101.855436721941
 20
196.7916524192046
 10
3099.7125795790835
 20
198.22022384777594
 10
3096.1478217736776
 20
198.22022384777594
 10
3093.290678916535
 20
199.6487952763475
 10
3091.858015889219
 20
199.6487952763475
 10
3088.2865873177907
 20
201.7916524192045
 10
3085.4250963518016
 20
201.7916524192045
 10
3082.8725577424293
 20
203.6148942830418
 10
3082.133444393747
 20
205.83223432908815
 10
3083.243518573468
 20
207.68235796195688
 10
3086.1412217670527
 20
209.1312095587492
 10
3091.124288119349
 20
209.84307618050568
 10
3091.8503589466545
 20
210.56914700781127
 10
3096.9198475619924
 20
209.84493434847718
 10
3100.484841253637
 20
207.70593813349026
 10
3102.6259126028194
 20
207.70593813349026
 10
3109.0544840313905
 20
204.13450956206168
 10
3111.199126967923
 20
204.13450956206168
 10
3114.7705555393513
 20
201.99165241920446
 10
3117.627698396494
 20
201.99165241920446
 10
3121.199126967923
 20
199.84879527634746
 10
3122.6302775637723
 20
199.84879527634746
 10
3124.7731347066297
 20
198.4202238477759
 10
3126.195035369178
 20
198.4202238477759
 10
3129.095508213533
 20
196.96998742559856
 10
3130.9306543328416
 20
194.40078285856677
 10
3129.4640492921076
 20
191.4675727770997
 10
3126.912701269245
 20
189.64518133219798
 10
3123.644551579537
 20
190.00830907549883
  0
LWPOLYLINE
  5
4D
330
17
100
AcDbEntity
  8
K
100
AcDbPolyline
 90
24
 70
1
 10
3091.500239862385
 20
259.2946845313473
 10
3087.537810935202
 20
261.09578858915785
 10
3083.969960961441
 20
265.3772085576709
 10
3082.8862243316958
 20
265.73845410091934
 10
3081.4131758967073
 20
268.6845509708964
 10
3082.857142857142
 20
270.8505014115492
 10
3082.857142857142
 20
273.00450234687037
 10
3083.9876627383906
 20
274.1350222281187
 10
3113.0571428571425
 20
273.7761397575167
 10
3113.0571428571425
 20
270.07566056971723
 10
3111.628571428571
 20
267.93280342686023
 10
3111.628571428571
 20
261.5068111655667
 10
3110.5279099979593
 20
259.6723754478809
 10
3109.052178226321
 20
258.93450956206163
 10
3106.8442929294765
 20
258.93450956206163
 10
3106.171428571428
 20
259.6073739201104
 10
3105.4985642133797
 20
258.93450956206163
 10
3101.8442929294765
 20
258.93450956206163
 10
3101.15168326652
 20
259.62711922501836
 10
3099.7664639406066
 20
258.93450956206163
 10
3096.1300072151907
 20
258.93450956206163
 10
3095.4373975522344
 20
259.62711922501836
 10
3094.045352986557
 20
258.93109694217986
 10
3091.500239862385
 20
259.2946845313473
  0
ENDSEC
  0
SECTION
  2
OBJECTS
  0
DICTIONARY
  5
A
330
0
100
AcDbDictionary
281
1
  3
ACAD_COLOR
350
B
  3
ACAD_GROUP
350
C
  3
ACAD_LAYOUT
350
D
  3
ACAD_MATERIAL
350
E
  3
ACAD_MLEADERSTYLE
350
F
  3
ACAD_MLINESTYLE
350
10
  3
ACAD_PLOTSETTINGS
350
11
  3
ACAD_PLOTSTYLENAME
350
12
  3
ACAD_SCALELIST
350
14
  3
ACAD_TABLESTYLE
350
15
  3
ACAD_VISUALSTYLE
350
16
  3
EZDXF_META
350
2D
  0
DICTIONARY
  5
B
330
A
100
AcDbDictionary
281
1
  0
DICTIONARY
  5
C
330
A
100
AcDbDictionary
281
1
  0
DICTIONARY
  5
D
330
A
100
AcDbDictionary
281
1
  3
Model
350
1A
  3
Layout1
350
1E
  0
DICTIONARY
  5
E
330
A
100
AcDbDictionary
281
1
  3
ByBlock
350
1F
  3
ByLayer
350
20
  3
Global
350
21
  0
DICTIONARY
  5
F
330
A
100
AcDbDictionary
281
1
  3
Standard
350
2C
  0
DICTIONARY
  5
10
330
A
100
AcDbDictionary
281
1
  3
Standard
350
22
  0
DICTIONARY
  5
11
330
A
100
AcDbDictionary
281
1
  0
ACDBDICTIONARYWDFLT
  5
12
330
A
100
AcDbDictionary
281
1
  3
Normal
350
13
100
AcDbDictionaryWithDefault
340
13
  0
ACDBPLACEHOLDER
  5
13
330
12
  0
DICTIONARY
  5
14
330
A
100
AcDbDictionary
281
1
  0
DICTIONARY
  5
15
330
A
100
AcDbDictionary
281
1
  0
DICTIONARY
  5
16
330
A
100
AcDbDictionary
281
1
  0
LAYOUT
  5
1A
330
D
100
AcDbPlotSettings
  1

  4
A3
  6

 40
7.5
 41
20.0
 42
7.5
 43
20.0
 44
420.0
 45
297.0
 46
0.0
 47
0.0
 48
0.0
 49
0.0
140
0.0
141
0.0
142
1.0
143
1.0
 70
1024
 72
1
 73
0
 74
5
  7

 75
16
 76
0
 77
2
 78
300
147
1.0
148
0.0
149
0.0
100
AcDbLayout
  1
Model
 70
1
 71
0
 10
0.0
 20
0.0
 11
420.0
 21
297.0
 12
0.0
 22
0.0
 32
0.0
 14
1e+20
 24
1e+20
 34
1e+20
 15
-1e+20
 25
-1e+20
 35
-1e+20
146
0.0
 13
0.0
 23
0.0
 33
0.0
 16
1.0
 26
0.0
 36
0.0
 17
0.0
 27
1.0
 37
0.0
 76
1
330
17
  0
LAYOUT
  5
1E
330
D
100
AcDbPlotSettings
  1

  4
A3
  6

 40
7.5
 41
20.0
 42
7.5
 43
20.0
 44
420.0
 45
297.0
 46
0.0
 47
0.0
 48
0.0
 49
0.0
140
0.0
141
0.0
142
1.0
143
1.0
 70
0
 72
1
 73
0
 74
5
  7

 75
16
 76
0
 77
2
 78
300
147
1.0
148
0.0
149
0.0
100
AcDbLayout
  1
Layout1
 70
1
 71
1
 10
0.0
 20
0.0
 11
420.0
 21
297.0
 12
0.0
 22
0.0
 32
0.0
 14
1e+20
 24
1e+20
 34
1e+20
 15
-1e+20
 25
-1e+20
 35
-1e+20
146
0.0
 13
0.0
 23
0.0
 33
0.0
 16
1.0
 26
0.0
 36
0.0
 17
0.0
 27
1.0
 37
0.0
 76
1
330
1B
  0
MATERIAL
  5
1F
102
{ACAD_REACTORS
330
E
102
}
330
E
100
AcDbMaterial
  1
ByBlock
  2

 70
0
 40
1.0
 71
1
 41
1.0
 91
-1023410177
 42
1.0
 72
1
  3

 73
1
 74
1
 75
1
 44
0.5
 73
0
 45
1.0
 46
1.0
 77
1
  4

 78
1
 79
1
170
1
 48
1.0
171
1
  6

172
1
173
1
174
1
140
1.0
141
1.0
175
1
  7

176
1
177
1
178
1
143
1.0
179
1
  8

270
1
271
1
272
1
145
1.0
146
1.0
273
1
  9

274
1
275
1
276
1
 42
1.0
 72
1
  3

 73
1
 74
1
 75
1
 94
63
  0
MATERIAL
  5
20
102
{ACAD_REACTORS
330
E
102
}
330
E
100
AcDbMaterial
  1
ByLayer
  2

 70
0
 40
1.0
 71
1
 41
1.0
 91
-1023410177
 42
1.0
 72
1
  3

 73
1
 74
1
 75
1
 44
0.5
 73
0
 45
1.0
 46
1.0
 77
1
  4

 78
1
 79
1
170
1
 48
1.0
171
1
  6

172
1
173
1
174
1
140
1.0
141
1.0
175
1
  7

176
1
177
1
178
1
143
1.0
179
1
  8

270
1
271
1
272
1
145
1.0
146
1.0
273
1
  9

274
1
275
1
276
1
 42
1.0
 72
1
  3

 73
1
 74
1
 75
1
 94
63
  0
MATERIAL
  5
21
102
{ACAD_REACTORS
330
E
102
}
330
E
100
AcDbMaterial
  1
Global
  2

 70
0
 40
1.0
 71
1
 41
1.0
 91
-1023410177
 42
1.0
 72
1
  3

 73
1
 74
1
 75
1
 44
0.5
 73
0
 45
1.0
 46
1.0
 77
1
  4

 78
1
 79
1
170
1
 48
1.0
171
1
  6

172
1
173
1
174
1
140
1.0
141
1.0
175
1
  7

176
1
177
1
178
1
143
1.0
179
1
  8

270
1
271
1
272
1
145
1.0
146
1.0
273
1
  9

274
1
275
1
276
1
 42
1.0
 72
1
  3

 73
1
 74
1
 75
1
 94
63
  0
MLINESTYLE
  5
22
102
{ACAD_REACTORS
330
10
102
}
330
10
100
AcDbMlineStyle
  2
Standard
 70
0
  3

 62
256
 51
90.0
 52
90.0
 71
2
 49
0.5
 62
256
  6
BYLAYER
 49
-0.5
 62
256
  6
BYLAYER
  0
MLEADERSTYLE
  5
2C
102
{ACAD_REACTORS
330
F
102
}
330
F
100
AcDbMLeaderStyle
179
2
170
2
171
1
172
0
 90
2
 40
0.0
 41
0.0
173
1
 91
-1056964608
 92
-2
290
1
 42
2.0
291
1
 43
8.0
  3
Standard
 44
4.0
300

342
29
174
1
175
1
176
0
178
1
 93
-1056964608
 45
4.0
292
0
297
0
 46
4.0
 94
-1056964608
 47
1.0
 49
1.0
140
1.0
294
1
141
0.0
177
0
142
1.0
295
0
296
0
143
3.75
271
0
272
9
273
9
  0
DICTIONARY
  5
2D
330
A
100
AcDbDictionary
280
1
281
1
  3
CREATED_BY_EZDXF
350
2E
  3
WRITTEN_BY_EZDXF
350
50
  0
DICTIONARYVAR
  5
2E
330
2D
100
DictionaryVariables
280
0
  1
1.4.4 @ 2026-07-17T12:30:12.268621+00:00
  0
DICTIONARYVAR
  5
50
330
2D
100
DictionaryVariables
280
0
  1
1.4.4 @ 2026-07-17T12:30:12.275361+00:00
  0
ENDSEC
  0
EOF
