  0
SECTION
  2
HEADER
  9
$ACADVER
  1
AC1027
  9
$ACADMAINTVER
 70
105
  9
$DWGCODEPAGE
  3
ANSI_1252
  9
$LASTSAVEDBY
  1
ezdxf
  9
$REQUIREDVERSIONS
160
0
  9
$INSBASE
 10
0.0
 20
0.0
 30
0.0
  9
$EXTMIN
 10
1e+20
 20
1e+20
 30
1e+20
  9
$EXTMAX
 10
-1e+20
 20
-1e+20
 30
-1e+20
  9
$LIMMIN
 10
0.0
 20
0.0
  9
$LIMMAX
 10
420.0
 20
297.0
  9
$ORTHOMODE
 70
0
  9
$REGENMODE
 70
1
  9
$FILLMODE
 70
1
  9
$QTEXTMODE
 70
0
  9
$MIRRTEXT
 70
1
  9
$LTSCALE
 40
1.0
  9
$ATTMODE
 70
1
  9
$TEXTSIZE
 40
2.5
  9
$TRACEWID
 40
1.0
  9
$TEXTSTYLE
  7
Standard
  9
$CLAYER
  8
0
  9
$CELTYPE
  6
ByLayer
  9
$CECOLOR
 62
256
  9
$CELTSCALE
 40
1.0
  9
$DISPSILH
 70
0
  9
$DIMSCALE
 40
1.0
  9
$DIMASZ
 40
2.5
  9
$DIMEXO
 40
0.625
  9
$DIMDLI
 40
3.75
  9
$DIMRND
 40
0.0
  9
$DIMDLE
 40
0.0
  9
$DIMEXE
 40
1.25
  9
$DIMTP
 40
0.0
  9
$DIMTM
 40
0.0
  9
$DIMTXT
 40
2.5
  9
$DIMCEN
 40
2.5
  9
$DIMTSZ
 40
0.0
  9
$DIMTOL
 70
0
  9
$DIMLIM
 70
0
  9
$DIMTIH
 70
0
  9
$DIMTOH
 70
0
  9
$DIMSE1
 70
0
  9
$DIMSE2
 70
0
  9
$DIMTAD
 70
1
  9
$DIMZIN
 70
8
  9
$DIMBLK
  1

  9
$DIMASO
 70
1
  9
$DIMSHO
 70
1
  9
$DIMPOST
  1

  9
$DIMAPOST
  1

  9
$DIMALT
 70
0
  9
$DIMALTD
 70
3
  9
$DIMALTF
 40
0.03937007874
  9
$DIMLFAC
 40
1.0
  9
$DIMTOFL
 70
1
  9
$DIMTVP
 40
0.0
  9
$DIMTIX
 70
0
  9
$DIMSOXD
 70
0
  9
$DIMSAH
 70
0
  9
$DIMBLK1
  1

  9
$DIMBLK2
  1

  9
$DIMSTYLE
  2
ISO-25
  9
$DIMCLRD
 70
0
  9
$DIMCLRE
 70
0
  9
$DIMCLRT
 70
0
  9
$DIMTFAC
 40
1.0
  9
$DIMGAP
 40
0.625
  9
$DIMJUST
 70
0
  9
$DIMSD1
 70
0
  9
$DIMSD2
 70
0
  9
$DIMTOLJ
 70
0
  9
$DIMTZIN
 70
8
  9
$DIMALTZ
 70
0
  9
$DIMALTTZ
 70
0
  9
$DIMUPT
 70
0
  9
$DIMDEC
 70
2
  9
$DIMTDEC
 70
2
  9
$DIMALTU
 70
2
  9
$DIMALTTD
 70
3
  9
$DIMTXSTY
  7
Standard
  9
$DIMAUNIT
 70
0
  9
$DIMADEC
 70
0
  9
$DIMALTRND
 40
0.0
  9
$DIMAZIN
 70
0
  9
$DIMDSEP
 70
44
  9
$DIMATFIT
 70
3
  9
$DIMFRAC
 70
0
  9
$DIMLDRBLK
  1

  9
$DIMLUNIT
 70
2
  9
$DIMLWD
 70
-2
  9
$DIMLWE
 70
-2
  9
$DIMTMOVE
 70
0
  9
$DIMFXL
 40
1.0
  9
$DIMFXLON
 70
0
  9
$DIMJOGANG
 40
0.785398163397
  9
$DIMTFILL
 70
0
  9
$DIMTFILLCLR
 70
0
  9
$DIMARCSYM
 70
0
  9
$DIMLTYPE
  6

  9
$DIMLTEX1
  6

  9
$DIMLTEX2
  6

  9
$DIMTXTDIRECTION
 70
0
  9
$LUNITS
 70
2
  9
$LUPREC
 70
4
  9
$SKETCHINC
 40
1.0
  9
$FILLETRAD
 40
10.0
  9
$AUNITS
 70
0
  9
$AUPREC
 70
2
  9
$MENU
  1
.
  9
$ELEVATION
 40
0.0
  9
$PELEVATION
 40
0.0
  9
$THICKNESS
 40
0.0
  9
$LIMCHECK
 70
0
  9
$CHAMFERA
 40
0.0
  9
$CHAMFERB
 40
0.0
  9
$CHAMFERC
 40
0.0
  9
$CHAMFERD
 40
0.0
  9
$SKPOLY
 70
0
  9
$TDCREATE
 40
2461239.645972222
  9
$TDUCREATE
 40
2458532.153996898
  9
$TDUPDATE
 40
2461239.645972222
  9
$TDUUPDATE
 40
2458532.1544311
  9
$TDINDWG
 40
0.0
  9
$TDUSRTIMER
 40
0.0
  9
$USRTIMER
 70
1
  9
$ANGBASE
 50
0.0
  9
$ANGDIR
 70
0
  9
$PDMODE
 70
0
  9
$PDSIZE
 40
0.0
  9
$PLINEWID
 40
0.0
  9
$SPLFRAME
 70
0
  9
$SPLINETYPE
 70
6
  9
$SPLINESEGS
 70
8
  9
$HANDSEED
  5
6E
  9
$SURFTAB1
 70
6
  9
$SURFTAB2
 70
6
  9
$SURFTYPE
 70
6
  9
$SURFU
 70
6
  9
$SURFV
 70
6
  9
$UCSBASE
  2

  9
$UCSNAME
  2

  9
$UCSORG
 10
0.0
 20
0.0
 30
0.0
  9
$UCSXDIR
 10
1.0
 20
0.0
 30
0.0
  9
$UCSYDIR
 10
0.0
 20
1.0
 30
0.0
  9
$UCSORTHOREF
  2

  9
$UCSORTHOVIEW
 70
0
  9
$UCSORGTOP
 10
0.0
 20
0.0
 30
0.0
  9
$UCSORGBOTTOM
 10
0.0
 20
0.0
 30
0.0
  9
$UCSORGLEFT
 10
0.0
 20
0.0
 30
0.0
  9
$UCSORGRIGHT
 10
0.0
 20
0.0
 30
0.0
  9
$UCSORGFRONT
 10
0.0
 20
0.0
 30
0.0
  9
$UCSORGBACK
 10
0.0
 20
0.0
 30
0.0
  9
$PUCSBASE
  2

  9
$PUCSNAME
  2

  9
$PUCSORG
 10
0.0
 20
0.0
 30
0.0
  9
$PUCSXDIR
 10
1.0
 20
0.0
 30
0.0
  9
$PUCSYDIR
 10
0.0
 20
1.0
 30
0.0
  9
$PUCSORTHOREF
  2

  9
$PUCSORTHOVIEW
 70
0
  9
$PUCSORGTOP
 10
0.0
 20
0.0
 30
0.0
  9
$PUCSORGBOTTOM
 10
0.0
 20
0.0
 30
0.0
  9
$PUCSORGLEFT
 10
0.0
 20
0.0
 30
0.0
  9
$PUCSORGRIGHT
 10
0.0
 20
0.0
 30
0.0
  9
$PUCSORGFRONT
 10
0.0
 20
0.0
 30
0.0
  9
$PUCSORGBACK
 10
0.0
 20
0.0
 30
0.0
  9
$USERI1
 70
0
  9
$USERI2
 70
0
  9
$USERI3
 70
0
  9
$USERI4
 70
0
  9
$USERI5
 70
0
  9
$USERR1
 40
0.0
  9
$USERR2
 40
0.0
  9
$USERR3
 40
0.0
  9
$USERR4
 40
0.0
  9
$USERR5
 40
0.0
  9
$WORLDVIEW
 70
1
  9
$SHADEDGE
 70
3
  9
$SHADEDIF
 70
70
  9
$TILEMODE
 70
1
  9
$MAXACTVP
 70
64
  9
$PINSBASE
 10
0.0
 20
0.0
 30
0.0
  9
$PLIMCHECK
 70
0
  9
$PEXTMIN
 10
1e+20
 20
1e+20
 30
1e+20
  9
$PEXTMAX
 10
-1e+20
 20
-1e+20
 30
-1e+20
  9
$PLIMMIN
 10
0.0
 20
0.0
  9
$PLIMMAX
 10
420.0
 20
297.0
  9
$UNITMODE
 70
0
  9
$VISRETAIN
 70
1
  9
$PLINEGEN
 70
0
  9
$PSLTSCALE
 70
1
  9
$TREEDEPTH
 70
3020
  9
$CMLSTYLE
  2
Standard
  9
$CMLJUST
 70
0
  9
$CMLSCALE
 40
20.0
  9
$PROXYGRAPHICS
 70
1
  9
$MEASUREMENT
 70
1
  9
$CELWEIGHT
370
-1
  9
$ENDCAPS
280
0
  9
$JOINSTYLE
280
0
  9
$LWDISPLAY
290
0
  9
$INSUNITS
 70
4
  9
$HYPERLINKBASE
  1

  9
$STYLESHEET
  1

  9
$XEDIT
290
1
  9
$CEPSNTYPE
380
0
  9
$PSTYLEMODE
290
1
  9
$FINGERPRINTGUID
  2
{C2DE8E89-7425-4A7E-9D31-C35936848DE0}
  9
$VERSIONGUID
  2
{FE9E0D4A-B4D6-40E8-A3F6-6854B2B0C6C1}
  9
$EXTNAMES
290
1
  9
$PSVPSCALE
 40
0.0
  9
$OLESTARTUP
290
0
  9
$SORTENTS
280
127
  9
$INDEXCTL
280
0
  9
$HIDETEXT
280
1
  9
$XCLIPFRAME
280
1
  9
$HALOGAP
280
0
  9
$OBSCOLOR
 70
257
  9
$OBSLTYPE
280
0
  9
$INTERSECTIONDISPLAY
280
0
  9
$INTERSECTIONCOLOR
 70
257
  9
$DIMASSOC
280
2
  9
$PROJECTNAME
  1

  9
$CAMERADISPLAY
290
0
  9
$LENSLENGTH
 40
50.0
  9
$CAMERAHEIGHT
 40
0.0
  9
$STEPSPERSEC
 40
24.0
  9
$STEPSIZE
 40
100.0
  9
$3DDWFPREC
 40
2.0
  9
$PSOLWIDTH
 40
0.005
  9
$PSOLHEIGHT
 40
0.08
  9
$LOFTANG1
 40
1.570796326795
  9
$LOFTANG2
 40
1.570796326795
  9
$LOFTMAG1
 40
0.0
  9
$LOFTMAG2
 40
0.0
  9
$LOFTPARAM
 70
7
  9
$LOFTNORMALS
280
1
  9
$LATITUDE
 40
37.795
  9
$LONGITUDE
 40
-122.394
  9
$NORTHDIRECTION
 40
0.0
  9
$TIMEZONE
 70
-8000
  9
$LIGHTGLYPHDISPLAY
280
1
  9
$TILEMODELIGHTSYNCH
280
1
  9
$CMATERIAL
347
20
  9
$SOLIDHIST
280
0
  9
$SHOWHIST
280
1
  9
$DWFFRAME
280
2
  9
$DGNFRAME
280
2
  9
$REALWORLDSCALE
290
1
  9
$INTERFERECOLOR
 62
256
  9
$CSHADOW
280
0
  9
$SHADOWPLANELOCATION
 40
0.0
  0
ENDSEC
  0
SECTION
  2
CLASSES
  0
CLASS
  1
ACDBDICTIONARYWDFLT
  2
AcDbDictionaryWithDefault
  3
ObjectDBX Classes
 90
0
 91
0
280
0
281
0
  0
CLASS
  1
SUN
  2
AcDbSun
  3
SCENEOE
 90
1153
 91
0
280
0
281
0
  0
CLASS
  1
VISUALSTYLE
  2
AcDbVisualStyle
  3
ObjectDBX Classes
 90
4095
 91
0
280
0
281
0
  0
CLASS
  1
MATERIAL
  2
AcDbMaterial
  3
ObjectDBX Classes
 90
1153
 91
0
280
0
281
0
  0
CLASS
  1
SCALE
  2
AcDbScale
  3
ObjectDBX Classes
 90
1153
 91
0
280
0
281
0
  0
CLASS
  1
TABLESTYLE
  2
AcDbTableStyle
  3
ObjectDBX Classes
 90
4095
 91
0
280
0
281
0
  0
CLASS
  1
MLEADERSTYLE
  2
AcDbMLeaderStyle
  3
ACDB_MLEADERSTYLE_CLASS
 90
4095
 91
0
280
0
281
0
  0
CLASS
  1
DICTIONARYVAR
  2
AcDbDictionaryVar
  3
ObjectDBX Classes
 90
0
 91
0
280
0
281
0
  0
CLASS
  1
CELLSTYLEMAP
  2
AcDbCellStyleMap
  3
ObjectDBX Classes
 90
1152
 91
0
280
0
281
0
  0
CLASS
  1
MENTALRAYRENDERSETTINGS
  2
AcDbMentalRayRenderSettings
  3
SCENEOE
 90
1024
 91
0
280
0
281
0
  0
CLASS
  1
ACDBDETAILVIEWSTYLE
  2
AcDbDetailViewStyle
  3
ObjectDBX Classes
 90
1025
 91
0
280
0
281
0
  0
CLASS
  1
ACDBSECTIONVIEWSTYLE
  2
AcDbSectionViewStyle
  3
ObjectDBX Classes
 90
1025
 91
0
280
0
281
0
  0
CLASS
  1
RASTERVARIABLES
  2
AcDbRasterVariables
  3
ISM
 90
0
 91
0
280
0
281
0
  0
CLASS
  1
LAYOUT
  2
AcDbLayout
  3
ObjectDBX Classes
 90
0
 91
0
280
0
281
0
  0
CLASS
  1
ACDBPLACEHOLDER
  2
AcDbPlaceHolder
  3
ObjectDBX Classes
 90
0
 91
0
280
0
281
0
  0
ENDSEC
  0
SECTION
  2
TABLES
  0
TABLE
  2
VPORT
  5
8
330
0
100
AcDbSymbolTable
 70
1
  0
VPORT
  5
23
330
8
100
AcDbSymbolTableRecord
100
AcDbViewportTableRecord
  2
*Active
 70
0
 10
0.0
 20
0.0
 11
1.0
 21
1.0
 12
0.0
 22
0.0
 13
0.0
 23
0.0
 14
0.5
 24
0.5
 15
0.5
 25
0.5
 16
0.0
 26
0.0
 36
1.0
 17
0.0
 27
0.0
 37
0.0
 40
1000.0
 41
1.34
 42
50.0
 43
0.0
 44
0.0
 50
0.0
 51
0.0
 71
0
 72
1000
 73
1
 74
3
 75
0
 76
0
 77
0
 78
0
281
0
 65
0
146
0.0
  0
ENDTAB
  0
TABLE
  2
LTYPE
  5
2
330
0
100
AcDbSymbolTable
 70
3
  0
LTYPE
  5
24
330
2
100
AcDbSymbolTableRecord
100
AcDbLinetypeTableRecord
  2
ByBlock
 70
0
  3

 72
65
 73
0
 40
0.0
  0
LTYPE
  5
25
330
2
100
AcDbSymbolTableRecord
100
AcDbLinetypeTableRecord
  2
ByLayer
 70
0
  3

 72
65
 73
0
 40
0.0
  0
LTYPE
  5
26
330
2
100
AcDbSymbolTableRecord
100
AcDbLinetypeTableRecord
  2
Continuous
 70
0
  3

 72
65
 73
0
 40
0.0
  0
ENDTAB
  0
TABLE
  2
LAYER
  5
1
330
0
100
AcDbSymbolTable
 70
3
  0
LAYER
  5
27
330
1
100
AcDbSymbolTableRecord
100
AcDbLayerTableRecord
  2
0
 70
0
 62
7
  6
Continuous
370
-3
390
13
347
21
  0
LAYER
  5
28
330
1
100
AcDbSymbolTableRecord
100
AcDbLayerTableRecord
  2
Defpoints
 70
0
 62
7
  6
Continuous
290
0
370
-3
390
13
347
21
  0
LAYER
  5
2F
330
1
100
AcDbSymbolTableRecord
100
AcDbLayerTableRecord
  2
Y
 70
0
 62
7
  6
Continuous
370
-3
390
13
347
21
  0
ENDTAB
  0
TABLE
  2
STYLE
  5
5
330
0
100
AcDbSymbolTable
 70
1
  0
STYLE
  5
29
330
5
100
AcDbSymbolTableRecord
100
AcDbTextStyleTableRecord
  2
Standard
 70
0
 40
0.0
 41
1.0
 50
0.0
 71
0
 42
2.5
  3
txt
  4

  0
ENDTAB
  0
TABLE
  2
VIEW
  5
7
330
0
100
AcDbSymbolTable
 70
0
  0
ENDTAB
  0
TABLE
  2
UCS
  5
6
330
0
100
AcDbSymbolTable
 70
0
  0
ENDTAB
  0
TABLE
  2
APPID
  5
3
330
0
100
AcDbSymbolTable
 70
3
  0
APPID
  5
2A
330
3
100
AcDbSymbolTableRecord
100
AcDbRegAppTableRecord
  2
ACAD
 70
0
  0
APPID
  5
6B
330
3
100
AcDbSymbolTableRecord
100
AcDbRegAppTableRecord
  2
HATCHBACKGROUNDCOLOR
 70
0
  0
APPID
  5
6C
330
3
100
AcDbSymbolTableRecord
100
AcDbRegAppTableRecord
  2
EZDXF
 70
0
  0
ENDTAB
  0
TABLE
  2
DIMSTYLE
  5
4
330
0
100
AcDbSymbolTable
 70
1
100
AcDbDimStyleTable
  0
DIMSTYLE
105
2B
330
4
100
AcDbSymbolTableRecord
100
AcDbDimStyleTableRecord
  2
Standard
 70
0
 40
1.0
 41
2.5
 42
0.625
 43
3.75
 44
1.25
 45
0.0
 46
0.0
 47
0.0
 48
0.0
 49
2.5
140
2.5
141
2.5
142
0.0
143
0.03937007874
144
1.0
145
0.0
146
1.0
147
0.625
148
0.0
 69
0
 70
0
 71
0
 72
0
 73
0
 74
0
 75
0
 76
0
 77
1
 78
8
 79
3
170
0
171
3
172
1
173
0
174
0
175
0
176
0
177
0
178
0
179
2
271
2
272
2
273
2
274
3
275
0
276
0
277
2
278
44
279
0
280
0
281
0
282
0
283
0
284
8
285
0
286
0
288
0
289
3
290
0
371
-2
372
-2
  0
ENDTAB
  0
TABLE
  2
BLOCK_RECORD
  5
9
330
0
100
AcDbSymbolTable
 70
2
  0
BLOCK_RECORD
  5
17
330
9
100
AcDbSymbolTableRecord
100
AcDbBlockTableRecord
  2
*Model_Space
340
1A
 70
0
280
1
281
0
  0
BLOCK_RECORD
  5
1B
330
9
100
AcDbSymbolTableRecord
100
AcDbBlockTableRecord
  2
*Paper_Space
340
1E
 70
0
280
1
281
0
  0
ENDTAB
  0
ENDSEC
  0
SECTION
  2
BLOCKS
  0
BLOCK
  5
18
330
17
100
AcDbEntity
  8
0
100
AcDbBlockBegin
  2
*Model_Space
 70
0
 10
0.0
 20
0.0
 30
0.0
  3
*Model_Space
  1

  0
ENDBLK
  5
19
330
17
100
AcDbEntity
  8
0
100
AcDbBlockEnd
  0
BLOCK
  5
1C
330
1B
100
AcDbEntity
  8
0
100
AcDbBlockBegin
  2
*Paper_Space
 70
0
 10
0.0
 20
0.0
 30
0.0
  3
*Paper_Space
  1

  0
ENDBLK
  5
1D
330
1B
100
AcDbEntity
  8
0
100
AcDbBlockEnd
  0
ENDSEC
  0
SECTION
  2
ENTITIES
  0
LWPOLYLINE
  5
30
330
17
100
AcDbEntity
  8
Y
100
AcDbPolyline
 90
24
 70
1
 10
6.46098280593721
 20
88.96555031495812
 10
5.726702090794511
 20
90.43411174524351
 10
5.01288323808069
 20
100.4275756832368
 10
3.5848845827732845
 20
102.56957366619778
 10
2.871577766354605
 20
110.41594864680204
 10
2.153603526616976
 20
111.13392288654012
 10
2.153603526616976
 20
116.14506667900393
 10
0.7250320980451974
 20
118.28792382186104
 10
0.7250320980451974
 20
121.13392288654012
 10
0.0
 20
121.85895498458554
 10
0.7380640025553831
 20
124.81121099480852
 10
2.5830479872652745
 20
125.91820138563425
 10
11.926738233247303
 20
125.91820138563425
 10
14.069595376104527
 20
124.4896299570628
 10
26.920067467223863
 20
124.4896299570628
 10
28.395799238863262
 20
123.75176407124333
 10
29.496460669474533
 20
121.91732835355751
 10
29.496460669474533
 20
111.14506667900392
 10
28.067889240902755
 20
109.00220953614681
 10
28.067889240902755
 20
99.72316601645592
 10
27.33101117774428
 20
98.24940989013864
 10
14.803596137099362
 20
90.01710857771484
 10
9.03018737296879
 20
87.13040419564966
 10
6.46098280593721
 20
88.96555031495812
  0
LWPOLYLINE
  5
31
330
17
100
AcDbEntity
  8
Y
100
AcDbPolyline
 90
35
 70
1
 10
440.75766265420623
 20
55.38183513047645
 10
436.42606476868684
 20
61.879231958755334
 10
438.5956078804876
 20
66.941499219623
 10
441.4500894351421
 20
70.50960116294081
 10
442.1456366138634
 20
72.59624269910536
 10
440.7407798427556
 20
75.40595624132096
 10
433.5932734149108
 20
83.98296395473437
 10
432.88289912267254
 20
86.11408683144961
 10
430.039317812331
 20
88.24677281420578
 10
425.7396219014202
 20
93.97970069542005
 10
424.9967540580566
 20
95.46543638214777
 10
426.11140781437086
 20
97.32319264267187
 10
427.60081678317886
 20
98.06789712707564
 10
432.6559737717814
 20
96.62356655890336
 10
435.5206756454031
 20
94.47504015368746
 10
438.3486388957953
 20
93.06105852849133
 10
439.7838810903898
 20
93.06105852849133
 10
441.926738233247
 20
91.63248709991989
 10
444.06097873180306
 20
91.63248709991989
 10
451.9181215889456
 20
88.06105852849133
 10
454.0629246100809
 20
88.06105852849133
 10
459.82813912586676
 20
85.1784512705982
 10
460.5409501748721
 20
83.7528291725883
 10
465.5337294911419
 20
81.61306660847256
 10
468.76843942512147
 20
76.94070781494678
 10
473.04545555732824
 20
68.38667555053235
 10
475.18831270018546
 20
66.95810412196101
 10
475.9414007166014
 20
65.45192808912925
 10
474.1081276688348
 20
62.88534582225602
 10
460.49474831726747
 20
55.003915671348544
 10
456.93788202571153
 20
55.003915671348544
 10
456.22359631142564
 20
54.28962995706277
 10
445.5093105971399
 20
54.28962995706277
 10
444.77531167169457
 20
53.55563103161798
 10
440.75766265420623
 20
55.38183513047645
  0
LWPOLYLINE
  5
32
330
17
100
AcDbEntity
  8
Y
100
AcDbPolyline
 90
17
 70
1
 10
428.57580761182226
 20
0.36230298882578005
 10
429.29817530498315
 20
11.920186079407147
 10
430.39712210008486
 20
13.751764071243233
 10
431.8728538717247
 20
14.48962995706282
 10
433.3664534542829
 20
14.48962995706282
 10
434.08073916856836
 20
13.775344242777043
 10
438.3664534542828
 20
13.775344242777043
 10
439.0807391685687
 20
13.061058528491376
 10
444.795024882854
 20
13.061058528491376
 10
445.5093105971399
 20
12.346772814205597
 10
448.35530966181824
 20
12.346772814205597
 10
450.49816680467546
 20
10.918201385634152
 10
456.20987335168286
 20
10.918201385634152
 10
458.0443090693693
 20
9.817539955022436
 10
459.4977100293214
 20
6.910738035118547
 10
459.1341339888806
 20
0.0027932667426844304
 10
428.57580761182226
 20
0.36230298882578005
  0
LWPOLYLINE
  5
33
330
17
100
AcDbEntity
  8
Y
100
AcDbPolyline
 90
21
 70
1
 10
442.18054259264727
 20
272.5264307415371
 10
441.439317812331
 20
274.0088803021703
 10
441.439317812331
 20
277.5624943151116
 10
440.7250320980451
 20
278.2767800293973
 10
440.7250320980451
 20
281.1339228865402
 10
440.0107463837593
 20
281.84820860082584
 10
440.0107463837593
 20
286.1339228865403
 10
439.30050886882157
 20
286.84416040147795
 10
438.5793733015935
 20
294.05551607375725
 10
439.6969844887195
 20
295.9182013856343
 10
447.65216773999714
 20
295.9182013856343
 10
448.36645345428263
 20
295.2039156713484
 10
452.6384447802543
 20
295.2039156713484
 10
454.47288049794076
 20
294.1032542407367
 10
455.21182464843866
 20
292.6253659397402
 10
454.4952101690507
 20
276.85984739319537
 10
453.3957992388631
 20
275.0274958428822
 10
451.92920403148395
 20
274.2941982391931
 10
448.3616287171075
 20
273.5806831763177
 10
444.76120852032386
 20
271.4204310582473
 10
442.18054259264727
 20
272.5264307415371
  0
LWPOLYLINE
  5
34
330
17
100
AcDbEntity
  8
Y
100
AcDbPolyline
 90
19
 70
1
 10
416.5183124443579
 20
151.0691627789106
 10
414.3188943530482
 20
152.53544150645038
 10
412.17141808510416
 20
156.83039404233833
 10
410.7398075086324
 20
158.26200461881024
 10
409.30747999288997
 20
161.84282340816515
 10
406.4393178123309
 20
166.1450666790041
 10
406.4393178123309
 20
168.34180818338396
 10
407.88955423450847
 20
171.24228102773887
 10
410.4358427355619
 20
173.0610585284914
 10
422.6384447802545
 20
173.0610585284914
 10
424.47288049794054
 20
171.9603970978796
 10
425.21074638376
 20
170.48466532624107
 10
425.21074638376
 20
166.1476458462824
 10
423.07915883374704
 20
162.59499992959437
 10
424.5059862334979
 20
159.02793143021742
 10
423.0467746791029
 20
156.10950832142734
 10
420.1831256227457
 20
153.96177152915925
 10
418.3834205272694
 20
151.44218439549294
 10
416.5183124443579
 20
151.0691627789106
  0
LWPOLYLINE
  5
35
330
17
100
AcDbEntity
  8
Y
100
AcDbPolyline
 90
16
 70
1
 10
387.1823663402245
 20
198.23706896066918
 10
386.4393178123309
 20
199.72316601645602
 10
386.4393178123309
 20
219.7744712107006
 10
387.53997924294214
 20
221.6089069283862
 10
389.0157110145811
 20
222.34677281420568
 10
391.8550393132367
 20
222.34677281420568
 10
392.56660419049405
 20
223.05833769146278
 10
403.2808899047797
 20
223.77262340574845
 10
403.99789645609417
 20
224.4896299570629
 10
406.92415906596847
 20
224.4896299570629
 10
408.7585947836549
 20
223.38896852645095
 10
409.496460669474
 20
221.91323675481246
 10
409.496460669474
 20
196.85393361924562
 10
406.2460267168011
 20
192.88118101042295
 10
404.7606359495788
 20
192.1384856268116
 10
387.1823663402245
 20
198.23706896066918
  0
LWPOLYLINE
  5
36
330
17
100
AcDbEntity
  8
Y
100
AcDbPolyline
 90
38
 70
1
 10
383.6166249472819
 20
0.36232460123575283
 10
380.7482217859479
 20
6.81623171423662
 10
379.3240689741317
 20
7.528308120144711
 10
377.53835468841766
 20
10.742593834430325
 10
376.18532188621543
 20
11.419110235531438
 10
371.20873139889545
 20
8.57534424277706
 10
369.06701620882563
 20
8.57534424277706
 10
365.4631175820517
 20
6.413005066712718
 10
362.8895542345085
 20
8.251264600672382
 10
361.44315044851095
 20
11.14407217266744
 10
360.7299212782102
 20
15.42344719447053
 10
357.8678892409024
 20
19.71649525043262
 10
357.8678892409024
 20
21.859352393289733
 10
356.4451394158783
 20
23.99347713082578
 10
355.72960038017595
 20
27.571172309337143
 10
353.56818262948497
 20
31.89400781071916
 10
354.68283638579925
 20
33.75176407124325
 10
356.1585681574382
 20
34.48962995706273
 10
361.14075359895105
 20
34.48962995706273
 10
361.8550393132365
 20
35.203915671348504
 10
372.56932502752215
 20
35.203915671348504
 10
373.28361074180805
 20
35.91820138563418
 10
380.49993574624307
 20
35.91820138563418
 10
383.0462242472965
 20
34.099423884881745
 10
386.6393178123313
 20
26.913236754812498
 10
386.6393178123313
 20
23.29459458788452
 10
385.9368354969206
 20
21.889629957062784
 10
386.6215032538438
 20
20.520294443215793
 10
389.80762167796445
 20
17.33417601909548
 10
391.94347845666044
 20
16.622223759530264
 10
394.82294795665763
 20
14.462621634532159
 10
398.3936210474348
 20
10.177813925599356
 10
400.9033671044393
 20
8.38513817059605
 10
401.6393178123314
 20
6.91323675481248
 10
401.6393178123314
 20
3.359622741871182
 10
402.3596695437943
 20
2.639271010407951
 10
401.98294521009535
 20
0.0022006745139524497
 10
383.6166249472819
 20
0.36232460123575283
  0
LWPOLYLINE
  5
37
330
17
100
AcDbEntity
  8
Y
100
AcDbPolyline
 90
17
 70
1
 10
855.0237782882697
 20
181.82519177646006
 10
854.2887173737765
 20
184.7654354344328
 10
857.1649058828219
 20
189.07971819800062
 10
859.6772264450616
 20
195.18106813486924
 10
866.8772024291169
 20
198.06105852849143
 10
868.2947545342723
 20
198.06105852849143
 10
870.4376116771296
 20
199.48962995706276
 10
874.729996728867
 20
199.48962995706276
 10
877.6151242374161
 20
200.9321937113372
 10
879.4834287649642
 20
199.8112109948086
 10
880.2167326104786
 20
196.87799561275023
 10
875.2107463837599
 20
186.8660231593131
 10
875.2107463837599
 20
184.0065744971008
 10
873.3974237933875
 20
180.74259383443035
 10
871.9178077801006
 20
180.00278582778705
 10
856.8665796184678
 20
180.71951097834094
 10
855.0237782882697
 20
181.82519177646006
  0
LWPOLYLINE
  5
38
330
17
100
AcDbEntity
  8
Y
100
AcDbPolyline
 90
37
 70
1
 10
837.1581718087475
 20
149.71402945219435
 10
836.4471976635508
 20
153.2689001781774
 10
835.7250320980454
 20
153.99106574368292
 10
835.7250320980454
 20
156.86193156056805
 10
834.6828363857994
 20
158.5989244143109
 10
833.3014253002957
 20
159.28962995706274
 10
814.7259051301223
 20
159.28962995706274
 10
812.8865112956054
 20
160.39326625777284
 10
810.7275767158127
 20
166.15042513721977
 10
810.0140463870729
 20
171.14513743840098
 10
808.5645478678256
 20
174.04413447689592
 10
811.1209265081662
 20
177.33090701447696
 10
826.907058728511
 20
183.07131873096594
 10
828.7635529004855
 20
181.95742222778134
 10
830.9110593592093
 20
176.2307383378503
 10
832.334217584845
 20
174.8075801122152
 10
837.6831380791019
 20
165.17952322255235
 10
839.0321335463533
 20
164.50502548892655
 10
841.1518973914151
 20
165.91820138563418
 10
842.5804688199865
 20
165.91820138563418
 10
846.8486298772613
 20
168.763642090484
 10
851.9040656631811
 20
170.9302574273067
 10
853.7821749551886
 20
169.80339185210235
 10
853.7821749551886
 20
169.073908456157
 10
858.0552924457925
 20
164.800790965553
 10
858.7695781600784
 20
162.6579338226959
 10
863.0500746824155
 20
158.37743730035868
 10
864.5044275822278
 20
155.4687315007345
 10
863.7695781600783
 20
153.26418323428703
 10
861.9584664653253
 20
151.45307153953402
 10
858.3608528432881
 20
149.29450336631157
 10
850.5165115664425
 20
147.86825949779413
 10
849.795024882854
 20
147.14677281420563
 10
846.9157189098311
 20
147.14677281420563
 10
843.3330780057823
 20
145.71371645258614
 10
838.6137957393476
 20
146.80278159099424
 10
837.1581718087475
 20
149.71402945219435
  0
LWPOLYLINE
  5
39
330
17
100
AcDbEntity
  8
Y
100
AcDbPolyline
 90
17
 70
1
 10
840.0312774502867
 20
48.96781816911533
 10
839.296460669474
 20
50.43745173074166
 10
839.296460669474
 20
56.915542559881956
 10
841.1097832598459
 20
60.179523222552376
 10
842.58713958601
 20
60.9182013856342
 10
851.140753598951
 20
60.9182013856342
 10
851.8736234511664
 20
61.65107123784974
 10
854.4695216034432
 20
60.53854345830256
 10
855.9250320980458
 20
57.62752246909819
 10
855.9250320980458
 20
55.49133609226442
 10
857.3503049866223
 20
53.3534267593998
 10
858.0653080574828
 20
46.918399121652186
 10
858.7985435737442
 20
45.45192808912923
 10
856.9657450037787
 20
42.88601009117754
 10
853.3319135406933
 20
40.705711213326225
 10
846.8443612904404
 20
43.5890677689943
 10
840.0312774502867
 20
48.96781816911533
  0
LWPOLYLINE
  5
3A
330
17
100
AcDbEntity
  8
Y
100
AcDbPolyline
 90
19
 70
1
 10
800.4264678846653
 20
27.861058528491412
 10
799.7157930726336
 20
27.861058528491412
 10
793.6014297577143
 20
33.25608498283184
 10
792.8583636768784
 20
34.74221714450321
 10
794.3155826127477
 20
38.385264484175565
 10
798.2959120293256
 20
40.91820138563418
 10
800.4473634707073
 20
40.91820138563418
 10
805.4473634707072
 20
43.0610585284914
 10
808.9978964560937
 20
43.0610585284914
 10
809.7121821703796
 20
43.77534424277707
 10
811.2098733516831
 20
43.77534424277707
 10
813.0443090693691
 20
42.674682812165244
 10
818.7985435737442
 20
31.166213803414998
 10
816.9633974544362
 20
28.597009236383197
 10
812.6343531815093
 20
26.432487099919967
 10
811.2087313988956
 20
26.432487099919967
 10
806.1853218862159
 20
23.56196737838856
 10
803.2657961833205
 20
25.021730229836116
 10
800.4264678846653
 20
27.861058528491412
  0
LWPOLYLINE
  5
3B
330
17
100
AcDbEntity
  8
Y
100
AcDbPolyline
 90
11
 70
1
 10
776.464782213081
 20
15.386522929241476
 10
775.7250320980453
 20
16.86602315931307
 10
775.7250320980453
 20
20.484665326241046
 10
776.4643149467012
 20
21.96323102355313
 10
784.026639445268
 20
25.92444861804044
 10
786.9617896413483
 20
25.190661069020347
 10
790.9318712413504
 20
18.333247396290275
 10
790.1977144792498
 20
15.396620347888579
 10
788.3511314715938
 20
14.2886705432953
 10
777.9426614674463
 20
14.647583302059065
 10
776.464782213081
 20
15.386522929241476
  0
LWPOLYLINE
  5
3C
330
17
100
AcDbEntity
  8
Y
100
AcDbPolyline
 90
9
 70
1
 10
765.0059594196017
 20
168.30416851620078
 10
765.7377673223798
 20
171.9632080300928
 10
770.4614856652186
 20
173.7800227773385
 10
773.389470278649
 20
173.048026623981
 10
774.5077302623187
 20
171.18425998453125
 10
773.049855253366
 20
167.5395724621507
 10
770.4893294502308
 20
165.71062545991123
 10
765.7566528822047
 20
166.80278159099427
 10
765.0059594196017
 20
168.30416851620078
  0
LWPOLYLINE
  5
3D
330
17
100
AcDbEntity
  8
Y
100
AcDbPolyline
 90
20
 70
1
 10
1251.4393178123312
 20
57.580308873598774
 10
1251.4393178123312
 20
59.723166016455885
 10
1250.014046387073
 20
62.573708866972446
 10
1249.2930480495925
 20
67.62069722933516
 10
1250.0334221803823
 20
69.10144549091513
 10
1258.3086275314258
 20
74.49831854594369
 10
1263.3923318368013
 20
73.04583160155087
 10
1265.21074638376
 20
69.77268541702475
 10
1265.21074638376
 20
67.63419323512154
 10
1266.6393178123312
 20
65.49133609226443
 10
1266.6393178123312
 20
62.63419323512165
 10
1268.0782237586338
 20
60.47583431566794
 10
1267.3367738300003
 20
58.25148452976758
 10
1265.495587637397
 20
57.14677281420566
 10
1261.2014331955454
 20
57.14677281420566
 10
1257.630004624117
 20
55.71820138563422
 10
1255.50931059714
 20
55.71820138563422
 10
1254.7764407449247
 20
54.985331533418666
 10
1252.1805425926473
 20
56.097859312965845
 10
1251.4393178123312
 20
57.580308873598774
  0
LWPOLYLINE
  5
3E
330
17
100
AcDbEntity
  8
Y
100
AcDbPolyline
 90
12
 70
1
 10
1245.7486122695789
 20
213.24743424481753
 10
1245.0107463837594
 20
214.7231660164559
 10
1245.0107463837594
 20
221.91323675481246
 10
1245.7486122695789
 20
223.38896852645095
 10
1247.583047987265
 20
224.4896299570629
 10
1249.0807391685687
 20
224.4896299570629
 10
1249.8029047340733
 20
223.76746439155747
 10
1253.3962252448846
 20
223.04880028939533
 10
1254.5066451082305
 20
220.45782060825437
 10
1251.6163734319457
 20
214.67727725568375
 10
1247.6122927855374
 20
212.1292259352424
 10
1245.7486122695789
 20
213.24743424481753
  0
LWPOLYLINE
  5
3F
330
17
100
AcDbEntity
  8
Y
100
AcDbPolyline
 90
13
 70
1
 10
1225.7250320980452
 20
137.56960489633462
 10
1225.7250320980452
 20
143.34589978212898
 10
1226.8256935286565
 20
145.18033549981467
 10
1228.301425300296
 20
145.91820138563415
 10
1231.2098733516832
 20
145.91820138563415
 10
1233.0443090693693
 20
144.81753995502245
 10
1234.4964606694741
 20
141.9132367548125
 10
1234.4964606694741
 20
139.77447121070043
 10
1236.644957864509
 20
136.1936425523088
 10
1235.9144145783775
 20
132.54092612165113
 10
1234.0436956659878
 20
131.41849477421695
 10
1228.2600227102316
 20
134.31033125209478
 10
1225.7250320980452
 20
137.56960489633462
  0
LWPOLYLINE
  5
40
330
17
100
AcDbEntity
  8
Y
100
AcDbPolyline
 90
21
 70
1
 10
1197.1396112009138
 20
56.17096638912067
 10
1197.8678892409023
 20
57.62752246909819
 10
1197.8678892409023
 20
62.64533702758557
 10
1198.590054806408
 20
63.36750259309132
 10
1199.3061579650473
 20
66.94801838628706
 10
1201.8644141641337
 20
68.7753442427771
 10
1209.0807391685687
 20
68.7753442427771
 10
1209.7950248828542
 20
68.06105852849132
 10
1214.7772103243665
 20
68.06105852849132
 10
1216.2529420960059
 20
67.32319264267184
 10
1217.3497425987466
 20
65.49519180477081
 10
1218.0722873991328
 20
60.43737820206363
 10
1216.632131011847
 20
58.27714362113434
 10
1215.911523454464
 20
55.39471339160151
 10
1212.6366589865797
 20
53.5753442427771
 10
1209.7838810903897
 20
53.5753442427771
 10
1207.641023947533
 20
52.146772814205654
 10
1204.78388109039
 20
52.146772814205654
 10
1202.6154829627176
 20
50.70117406242414
 10
1199.3244884140388
 20
52.52950436724602
 10
1197.1396112009138
 20
56.17096638912067
  0
LWPOLYLINE
  5
41
330
17
100
AcDbEntity
  8
Y
100
AcDbPolyline
 90
18
 70
1
 10
1197.8678892409023
 20
143.29459458788452
 10
1197.8678892409023
 20
145.43078096471828
 10
1196.439317812331
 20
147.5736381075754
 10
1196.439317812331
 20
149.72751457384913
 10
1193.570905362344
 20
156.898545698817
 10
1194.6816312711817
 20
158.74975554687953
 10
1201.1797189105332
 20
162.35980423540818
 10
1205.4914960386523
 20
160.2039156713485
 10
1207.6359581417635
 20
160.2039156713485
 10
1212.331761499753
 20
157.6754061708924
 10
1214.4964606694741
 20
152.62444144154307
 10
1214.4964606694741
 20
149.06276466369317
 10
1215.9374160490786
 20
146.9013315942873
 10
1214.4816852588872
 20
143.26200461881024
 10
1212.6688457444397
 20
141.44916510436224
 10
1203.3208448692526
 20
137.13470316196842
 10
1200.035138832556
 20
138.96009540457777
 10
1197.8678892409023
 20
143.29459458788452
  0
LWPOLYLINE
  5
42
330
17
100
AcDbEntity
  8
Y
100
AcDbPolyline
 90
25
 70
1
 10
1436.1496450299835
 20
266.4339886742075
 10
1434.009040248558
 20
267.8610585284913
 10
1425.448631000546
 20
267.8610585284913
 10
1421.828043484985
 20
269.30929353471566
 10
1420.7129760563726
 20
271.1677392490694
 10
1422.8904043110915
 20
276.2484051767464
 10
1424.3227792831376
 20
276.96459266276975
 10
1432.8942078545665
 20
293.3931640913412
 10
1434.3256935286565
 20
294.1089069283862
 10
1435.4112702030054
 20
295.9182013856343
 10
1446.2641553454603
 20
295.9182013856343
 10
1446.6339788787902
 20
294.0690837189837
 10
1448.7821749551886
 20
290.4887569249863
 10
1448.7821749551886
 20
286.93105131329963
 10
1449.491432729273
 20
286.2217935392153
 10
1450.205718443559
 20
280.5075078249295
 10
1450.925032098046
 20
279.7881941704425
 10
1450.925032098046
 20
276.919907520836
 10
1452.3536035266172
 20
274.77705037797875
 10
1452.3536035266172
 20
270.5024798847284
 10
1453.0678892409026
 20
269.78819417044275
 10
1453.0678892409026
 20
268.2905029891394
 10
1451.9672278102917
 20
266.4560672714538
 10
1450.4891228352706
 20
265.7170147839434
 10
1436.1496450299835
 20
266.4339886742075
  0
LWPOLYLINE
  5
43
330
17
100
AcDbEntity
  8
Y
100
AcDbPolyline
 90
30
 70
1
 10
1436.5023882559199
 20
200.36454642211334
 10
1433.9875786559446
 20
202.16083899352398
 10
1431.1585681574384
 20
203.57534424277713
 10
1429.7202701932838
 20
203.57534424277713
 10
1426.8460505852904
 20
205.73100894877183
 10
1421.827347808142
 20
207.88188156754995
 10
1420.7250320980452
 20
209.71907441771097
 10
1420.7250320980452
 20
219.07390845615703
 10
1421.439317812331
 20
219.7881941704427
 10
1421.439317812331
 20
228.35962274187116
 10
1422.1536035266165
 20
229.07390845615683
 10
1422.1536035266165
 20
231.9173283535576
 10
1423.2559192367132
 20
233.7545212037184
 10
1428.30450632785
 20
235.91820138563423
 10
1429.723325962844
 20
235.91820138563423
 10
1431.866183105701
 20
237.34677281420556
 10
1434.7121821703795
 20
237.34677281420556
 10
1435.4264678846653
 20
238.06105852849146
 10
1446.209873351683
 20
238.06105852849146
 10
1448.04822566325
 20
236.9580471415511
 10
1449.4957229727038
 20
233.33930386791724
 10
1450.2091664241602
 20
214.7897741300423
 10
1450.925032098046
 20
214.07390845615703
 10
1450.925032098046
 20
206.21676559901402
 10
1451.6652377196056
 20
205.47655997745395
 10
1450.5363064253909
 20
203.59500782042983
 10
1446.915718909831
 20
202.1467728142057
 10
1444.0629246100807
 20
202.1467728142057
 10
1439.7719111768095
 20
200.00126609757007
 10
1436.5023882559199
 20
200.36454642211334
  0
LWPOLYLINE
  5
44
330
17
100
AcDbEntity
  8
Y
100
AcDbPolyline
 90
27
 70
1
 10
1362.9514569612477
 20
20.355791682288515
 10
1359.7194714386073
 20
22.15133919486645
 10
1351.8606399242317
 20
23.58021765202578
 10
1348.297333701551
 20
25.71820138563419
 10
1345.426467884665
 20
25.71820138563419
 10
1344.295875592437
 20
26.848793677862858
 10
1344.6550020591462
 20
52.346772814205636
 10
1347.5871395860102
 20
52.346772814205636
 10
1351.8728538717246
 20
54.489629957062746
 10
1354.7121821703793
 20
54.489629957062746
 10
1355.4214399444643
 20
55.19888773114745
 10
1361.2040243566273
 20
55.92171078266772
 10
1363.0510595442859
 20
54.81348967007238
 10
1363.7695781600785
 20
52.65793382269579
 10
1365.200235303308
 20
51.22727667946614
 10
1367.3464502325526
 20
43.3578219389037
 10
1369.4898658835034
 20
39.785462520652516
 10
1370.9193839804516
 20
34.06739013285753
 10
1373.081881566606
 20
29.742394960549312
 10
1371.9530797073714
 20
27.861058528491412
 10
1371.2235963114256
 20
27.861058528491412
 10
1368.7695781600785
 20
25.40704037714403
 10
1368.3971080200515
 20
24.289629957062743
 10
1367.6521677399971
 20
24.289629957062743
 10
1365.1981495886498
 20
21.835611805715473
 10
1364.830120446526
 20
20.731524379344112
 10
1362.9514569612477
 20
20.355791682288515
  0
LWPOLYLINE
  5
45
330
17
100
AcDbEntity
  8
Y
100
AcDbPolyline
 90
23
 70
1
 10
1872.165305678911
 20
115.41322773627705
 10
1870.000561945003
 20
120.46429644872836
 10
1871.4393178123307
 20
123.34180818338392
 10
1871.4393178123307
 20
125.50247988472852
 10
1872.1614833778367
 20
126.22464545023415
 10
1873.587513888729
 20
133.35479800469773
 10
1874.6868866707498
 20
135.18708597473184
 10
1876.9084711507853
 20
135.92761413474375
 10
1878.7529066506065
 20
134.8209528348514
 10
1880.197404851713
 20
132.65420553319163
 10
1883.7776066730573
 20
125.49380189050274
 10
1884.4885808182541
 20
121.93893116451959
 10
1885.2107463837594
 20
121.21676559901407
 10
1885.2107463837594
 20
119.07390845615706
 10
1885.9250320980454
 20
118.35962274187128
 10
1885.9250320980454
 20
115.43336013199668
 10
1884.824370667434
 20
113.59892441431097
 10
1883.3486388957951
 20
112.86105852849137
 10
1880.50931059714
 20
112.86105852849137
 10
1879.791791894477
 20
112.1435398258287
 10
1875.0835457102446
 20
112.50571260923114
 10
1873.6137007902896
 20
113.24063506920868
 10
1872.165305678911
 20
115.41322773627705
  0
LWPOLYLINE
  5
46
330
17
100
AcDbEntity
  8
Y
100
AcDbPolyline
 90
41
 70
1
 10
1824.7464577765884
 20
12.37172169007328
 10
1826.937518433974
 20
10.911014585149537
 10
1832.661871337889
 20
9.479926359170943
 10
1833.366453454283
 20
8.775344242777038
 10
1835.4871474812594
 20
8.775344242777038
 10
1842.6393609131137
 20
5.914458870035055
 10
1846.1681420857547
 20
5.20870263550699
 10
1847.5438095987977
 20
5.89653639202814
 10
1849.2964606694736
 20
8.350247890974604
 10
1849.2964606694736
 20
12.645337027585523
 10
1850.0107463837594
 20
13.359622741871302
 10
1850.0107463837594
 20
16.93105131329975
 10
1850.725032098045
 20
17.645337027585416
 10
1850.725032098045
 20
22.645337027585533
 10
1851.4433660116786
 20
23.36367094121905
 10
1852.156328826743
 20
30.49329909186349
 10
1853.2542649572279
 20
32.323192642671806
 10
1854.7607877925946
 20
33.07645406035509
 10
1856.933057537589
 20
31.628274230358855
 10
1861.9266674738485
 20
30.91490138232167
 10
1864.783003998673
 20
29.48673311990946
 10
1870.4972897129587
 20
28.77244740562379
 10
1873.348638895795
 20
27.34677281420561
 10
1876.205781752938
 20
27.34677281420561
 10
1879.1100849531483
 20
25.894621214100354
 10
1880.2247387094626
 20
24.036864953576263
 10
1879.518136720803
 20
22.623660976256566
 10
1880.2107463837597
 20
21.931051313299754
 10
1880.2107463837597
 20
20.430780964718288
 10
1878.7821749551883
 20
18.287923821861174
 10
1878.7821749551883
 20
16.908888197419316
 10
1880.2107463837597
 20
13.337459625990755
 10
1880.2107463837597
 20
6.198951040526812
 10
1881.6138534115807
 20
3.3927369848840705
 10
1883.0424248401525
 20
2.678451270598403
 10
1883.803851006517
 20
1.1555989378689846
 10
1882.6519360695318
 20
0.003684000883685812
 10
1818.570517589617
 20
0.36168075216813644
 10
1819.2990418528937
 20
6.918399121652152
 10
1820.0304830681487
 20
8.38128155216289
 10
1824.7464577765884
 20
12.37172169007328
  0
LWPOLYLINE
  5
47
330
17
100
AcDbEntity
  8
Y
100
AcDbPolyline
 90
14
 70
1
 10
1807.1841561923984
 20
271.80491782774976
 10
1806.4393178123307
 20
273.2945945878846
 10
1806.4393178123307
 20
278.3596227418712
 10
1807.1536035266167
 20
279.07390845615686
 10
1807.1536035266167
 20
294.78819417044264
 10
1808.2836107418077
 20
295.9182013856343
 10
1821.9200674672238
 20
295.9182013856343
 10
1823.3957992388628
 20
295.1803354998146
 10
1824.5114757133179
 20
293.3208747090559
 10
1819.4896394655805
 20
283.9946073918285
 10
1818.0614883720452
 20
278.99607856445476
 10
1815.1878020033735
 20
273.24870582711225
 10
1811.198541460782
 20
270.71008548182675
 10
1807.1841561923984
 20
271.80491782774976
  0
LWPOLYLINE
  5
48
330
17
100
AcDbEntity
  8
Y
100
AcDbPolyline
 90
59
 70
1
 10
1747.8724575230328
 20
61.856886595051506
 10
1745.7329119492654
 20
72.55461446389144
 10
1745.0107463837594
 20
73.27678002939709
 10
1745.0107463837594
 20
76.15721078460014
 10
1742.8678892409023
 20
81.87149649888592
 10
1742.8678892409023
 20
84.7231660164559
 10
1740.7132286991703
 20
89.03248709991996
 10
1743.582174955188
 20
94.77037961195533
 10
1743.582174955188
 20
96.91732835355748
 10
1745.7250320980454
 20
100.48875692498615
 10
1745.7250320980454
 20
101.91732835355761
 10
1747.867889240902
 20
105.48875692498616
 10
1747.867889240902
 20
106.92167646240314
 10
1749.6884934932643
 20
109.47052241570987
 10
1754.7263682619168
 20
111.62961160227525
 10
1759.7064630745374
 20
112.34105371836401
 10
1760.426467884665
 20
113.06105852849136
 10
1763.294754534272
 20
113.06105852849136
 10
1765.4376116771293
 20
114.4896299570628
 10
1782.6521677399971
 20
114.4896299570628
 10
1783.3664534542825
 20
113.77534424277714
 10
1813.35273049454
 20
113.77534424277714
 10
1815.189923344701
 20
112.67302853268058
 10
1817.353603526617
 20
107.62444144154304
 10
1817.353603526617
 20
105.49133609226446
 10
1818.776353351641
 20
103.3572113547283
 10
1819.4885808182541
 20
99.79607402166246
 10
1820.2107463837597
 20
99.07390845615693
 10
1820.2107463837597
 20
97.63419323512169
 10
1821.6393178123315
 20
95.49133609226456
 10
1821.6393178123315
 20
92.57186916600813
 10
1819.8189489269928
 20
90.02335272653438
 10
1808.3982834518188
 20
85.02681158114578
 10
1807.68528198301
 20
83.60080864352737
 10
1803.3599351309829
 20
81.43813521751386
 10
1800.447342716129
 20
80.7099871138004
 10
1797.8895542345085
 20
82.53697888638666
 10
1795.0324113773654
 20
88.25126460067234
 10
1792.578699878419
 20
90.00391567134858
 10
1772.6427928891
 20
90.00391567134858
 10
1770.1890813901534
 20
88.25126460067234
 10
1768.7821749551883
 20
85.43745173074169
 10
1768.7821749551883
 20
84.00220953614689
 10
1767.353603526617
 20
81.85935239328978
 10
1767.353603526617
 20
78.33745962599082
 10
1768.7821749551883
 20
74.76603105456215
 10
1768.7821749551883
 20
71.9310513132998
 10
1769.496460669474
 20
71.21676559901402
 10
1769.496460669474
 20
67.57058233801538
 10
1767.3433401862271
 20
64.6997550270194
 10
1766.6203964133608
 20
62.53092370842028
 10
1762.6324073032315
 20
60.71820138563422
 10
1759.7728617669736
 20
60.71820138563422
 10
1756.2014331955452
 20
59.28962995706277
 10
1754.0807391685682
 20
59.28962995706277
 10
1753.3603874371045
 20
58.5692782255991
 10
1750.7884352299304
 20
58.93669996948103
 10
1748.6046086387623
 20
60.39258436359318
 10
1747.8724575230328
 20
61.856886595051506
  0
LWPOLYLINE
  5
49
330
17
100
AcDbEntity
  8
Y
100
AcDbPolyline
 90
18
 70
1
 10
1799.2869351054499
 20
197.599360001646
 10
1800.7366577934847
 20
201.2236667217332
 10
1802.5482739618833
 20
203.75992935749065
 10
1803.6112564297416
 20
204.11425684677675
 10
1805.034326555293
 20
206.96039709787962
 10
1806.8687622729792
 20
208.06105852849143
 10
1808.344290338402
 20
208.06105852849143
 10
1815.5363064253906
 20
205.18425209369585
 10
1816.639317812331
 20
203.34589978212904
 10
1816.639317812331
 20
201.1339228865401
 10
1815.9250320980457
 20
200.41963717225443
 10
1815.9250320980457
 20
194.00888030217024
 10
1815.187802003374
 20
192.5344201128266
 10
1811.2592305748026
 20
190.03442011282667
 10
1810.5424248401523
 20
188.60080864352736
 10
1807.595727245174
 20
187.12745984603797
 10
1802.1730647829625
 20
191.82710064662112
 10
1799.2869351054499
 20
197.599360001646
  0
LWPOLYLINE
  5
4A
330
17
100
AcDbEntity
  8
Y
100
AcDbPolyline
 90
27
 70
1
 10
1776.874799750002
 20
192.86105852849133
 10
1775.4376116771296
 20
192.86105852849133
 10
1773.2947545342722
 20
194.28962995706277
 10
1771.1585681574381
 20
194.28962995706277
 10
1768.2657961833206
 20
195.73601594412182
 10
1766.453076464042
 20
197.54873566340027
 10
1761.429626866354
 20
211.1838131428384
 10
1763.2526404027028
 20
214.46523750826663
 10
1769.006574450321
 20
217.34220453207553
 10
1772.5780030217497
 20
218.0564902463612
 10
1775.3933536416525
 20
219.46416555631276
 10
1776.107639355938
 20
220.8927369848841
 10
1777.5871395860095
 20
221.63248709992
 10
1781.2057817529378
 20
221.63248709992
 10
1785.4914960386523
 20
219.4896299570628
 10
1787.6384447802543
 20
219.4896299570628
 10
1789.4728804979402
 20
218.38896852645084
 10
1790.2124447389167
 20
216.90984004449876
 10
1789.4935487870525
 20
206.84529671840457
 10
1788.7821749551883
 20
206.1339228865401
 10
1788.7821749551883
 20
201.13392288653998
 10
1788.0678892409026
 20
200.4196371722543
 10
1788.0678892409026
 20
195.43193845977157
 10
1785.5373847994244
 20
191.45543148030632
 10
1784.0576254625237
 20
190.71555181185573
 10
1780.7981551061544
 20
191.07771518478555
 10
1776.874799750002
 20
192.86105852849133
  0
LWPOLYLINE
  5
4B
330
17
100
AcDbEntity
  8
Y
100
AcDbPolyline
 90
18
 70
1
 10
1767.867889240902
 20
19.70535145796859
 10
1767.867889240902
 20
29.00888030217019
 10
1767.1418001277418
 20
30.461058528491346
 10
1768.5999895136754
 20
33.37743730035869
 10
1771.117316471709
 20
35.89476425839266
 10
1776.1501284498474
 20
39.48962995706273
 10
1778.3527304945399
 20
39.48962995706273
 10
1780.1960520584382
 20
38.383637018724045
 10
1781.631848956678
 20
33.358347874885006
 10
1783.7745623517724
 20
29.787158883060716
 10
1788.7932188156278
 20
12.580336721269237
 10
1784.8201198858749
 20
7.884856167925114
 10
1776.965524954556
 20
2.8864775752672767
 10
1774.8006667731056
 20
0.0
 10
1770.0661932879225
 20
0.3641902680909803
 10
1769.2981032592904
 20
1.132280296723076
 10
1768.583817545005
 20
18.98942315386587
 10
1767.867889240902
 20
19.70535145796859
  0
LWPOLYLINE
  5
4C
330
17
100
AcDbEntity
  8
Y
100
AcDbPolyline
 90
12
 70
1
 10
1753.568182629485
 20
146.17096638912074
 10
1754.3171619645057
 20
147.66892505916206
 10
1757.5742500284398
 20
150.20221577555503
 10
1771.9176942638421
 20
150.9193879873252
 10
1773.395799238863
 20
150.18033549981467
 10
1774.5223805767484
 20
148.30269993667156
 10
1773.7821749551883
 20
147.56249431511137
 10
1773.7821749551883
 20
144.72316601645596
 10
1773.043929215615
 20
143.24667453730933
 10
1766.188469854757
 20
139.27772438102292
 10
1754.684277284705
 20
144.31080863042055
 10
1753.568182629485
 20
146.17096638912074
  0
LWPOLYLINE
  5
4D
330
17
100
AcDbEntity
  8
Y
100
AcDbPolyline
 90
26
 70
1
 10
1729.0044147793933
 20
12.866706646085358
 10
1718.9685506715136
 20
17.884638700025214
 10
1717.8678892409023
 20
19.719074417710925
 10
1717.8678892409023
 20
24.778819319546063
 10
1719.6866667416546
 20
27.32510782059949
 10
1722.5871395860102
 20
28.775344242777056
 10
1724.0134052095111
 20
28.775344242777056
 10
1736.8615420752071
 20
35.91319805705273
 10
1740.4288792718087
 20
36.626665496373164
 10
1742.6079311169556
 20
38.07936672647061
 10
1744.4728804979404
 20
36.96039709787957
 10
1745.21074638376
 20
35.48466532624106
 10
1745.21074638376
 20
30.419637172254266
 10
1744.496460669474
 20
29.705351457968597
 10
1744.496460669474
 20
24.705351457968703
 10
1743.7821749551886
 20
23.991065743682928
 10
1743.7821749551886
 20
18.276780029397145
 10
1743.0678892409026
 20
17.562494315111365
 10
1743.0678892409026
 20
12.562494315111472
 10
1742.3536035266172
 20
11.848208600825805
 10
1742.3536035266172
 20
9.719074417710916
 10
1741.245164504886
 20
7.871676048159082
 10
1739.3835894047088
 20
7.499361028123652
 10
1732.536741226756
 20
10.742604901890385
 10
1731.8275868654114
 20
12.160913624580827
 10
1729.0044147793933
 20
12.866706646085358
  0
LWPOLYLINE
  5
4E
330
17
100
AcDbEntity
  8
Y
100
AcDbPolyline
 90
9
 70
1
 10
1696.6289586920134
 20
15.511320944066597
 10
1698.061488372045
 20
10.4974670639566
 10
1700.9250320980454
 20
4.7703796119553665
 10
1700.9250320980454
 20
1.8619315605680198
 10
1699.809427403898
 20
0.0025904036553558996
 10
1684.2951133403953
 20
0.3633884051321701
 10
1684.6559939361075
 20
26.70767189212231
 10
1688.3888552836406
 20
24.467955083602334
 10
1696.6289586920134
 20
15.511320944066597
  0
LWPOLYLINE
  5
4F
330
17
100
AcDbEntity
  8
Y
100
AcDbPolyline
 90
19
 70
1
 10
2262.1565788209305
 20
72.63865617659182
 10
2262.8702166453577
 20
79.77503442086575
 10
2264.300293305654
 20
82.63518774145817
 10
2265.0152284168666
 20
86.92479840873635
 10
2266.1114078143705
 20
88.7517640712433
 10
2267.580539579385
 20
89.48632995375027
 10
2272.6317514768543
 20
90.20793165338881
 10
2274.4728804979404
 20
89.10325424073673
 10
2275.9229131318193
 20
86.20318897297908
 10
2276.635629286879
 20
78.36331126732365
 10
2277.3536035266175
 20
77.64533702758558
 10
2277.3536035266175
 20
75.4791919866683
 10
2279.5070372513214
 20
69.73670205412307
 10
2278.3957992388628
 20
67.88463870002515
 10
2276.918853387303
 20
67.14616577424526
 10
2262.9430756887136
 20
67.50451904856814
 10
2261.457548065474
 20
68.24728286018788
 10
2260.7146975803144
 20
70.47583431566784
 10
2262.1565788209305
 20
72.63865617659182
  0
LWPOLYLINE
  5
50
330
17
100
AcDbEntity
  8
Y
100
AcDbPolyline
 90
23
 70
1
 10
2237.8678892409025
 20
103.27678002939722
 10
2237.1536035266167
 20
103.991065743683
 10
2237.1536035266167
 20
108.3418081833839
 10
2237.8895542345085
 20
109.81370959916748
 10
2240.4272309645694
 20
111.6263358349251
 10
2251.132873747732
 20
113.76746439155761
 10
2251.855039313237
 20
114.4896299570628
 10
2254.777210324367
 20
114.4896299570628
 10
2256.2485191800465
 20
113.75397552922306
 10
2260.242121093082
 20
108.30815473871935
 10
2259.4964606694743
 20
107.56249431511155
 10
2259.4964606694743
 20
99.70535145796855
 10
2258.7821749551886
 20
98.99106574368288
 10
2258.7821749551886
 20
96.15173744502736
 10
2258.0434967921065
 20
94.6743811188634
 10
2254.7836984883484
 20
92.8633820612197
 10
2246.9415705511633
 20
92.15046133965754
 10
2246.223596311426
 20
91.43248709991991
 10
2243.366453454283
 20
91.43248709991991
 10
2242.6404220618674
 20
90.7064557075049
 10
2238.61272762097
 20
91.8049178277498
 10
2237.8678892409025
 20
93.29459458788448
 10
2237.8678892409025
 20
103.27678002939722
  0
LWPOLYLINE
  5
51
330
17
100
AcDbEntity
  8
Y
100
AcDbPolyline
 90
39
 70
1
 10
2212.1771836981507
 20
243.24743424481764
 10
2211.417641761002
 20
244.76651811911364
 10
2212.1536035266167
 20
245.50247988472827
 10
2212.1536035266167
 20
248.34650560466497
 10
2217.8582607035946
 20
257.61657351725444
 10
2217.1704332232334
 20
259.680055958339
 10
2215.440190844408
 20
260.7182013856342
 10
2207.5693250275226
 20
260.7182013856342
 10
2206.851350787785
 20
261.4361756253718
 10
2198.994207930642
 20
262.15046133965745
 10
2198.2836107418084
 20
262.8610585284914
 10
2195.4442824431526
 20
262.8610585284914
 10
2193.973481890981
 20
263.59645880457714
 10
2191.835203258146
 20
266.44749698169034
 10
2190.7508071739508
 20
266.8089623430889
 10
2188.6046900253773
 20
271.8165690230934
 10
2187.1790679273668
 20
272.5293800720985
 10
2186.425325486628
 20
274.03686495357647
 10
2187.5399792429425
 20
275.8946212141005
 10
2189.0157110145815
 20
276.63248709991996
 10
2195.4914960386523
 20
276.63248709991996
 10
2198.3486388957954
 20
275.2039156713484
 10
2203.345557868241
 20
275.2039156713484
 10
2208.345557868241
 20
273.0610585284914
 10
2209.7795161294366
 20
273.0610585284914
 10
2216.2402117561496
 20
269.4717831803175
 10
2222.334348724091
 20
264.0946035027225
 10
2223.7821749551886
 20
261.1989510405268
 10
2223.7821749551886
 20
259.77332925791274
 10
2226.6393178123317
 20
254.77332925791285
 10
2226.6393178123317
 20
252.62752246909815
 10
2228.7985435737446
 20
248.30907094627207
 10
2226.963397454436
 20
245.73986637924028
 10
2225.4914960386527
 20
245.0039156713486
 10
2224.0807391685685
 20
245.0039156713486
 10
2223.3664534542827
 20
244.28962995706271
 10
2219.059843582527
 20
244.28962995706271
 10
2214.031712818624
 20
242.13471677253318
 10
2212.1771836981507
 20
243.24743424481764
  0
LWPOLYLINE
  5
52
330
17
100
AcDbEntity
  8
Y
100
AcDbPolyline
 90
24
 70
1
 10
2203.283610741808
 20
70.71820138563423
 10
2199.7299967288673
 20
70.71820138563423
 10
2196.8256935286568
 20
72.17035298573948
 10
2195.6991121907713
 20
74.0479885488825
 10
2196.439317812331
 20
74.78819417044258
 10
2196.439317812331
 20
79.05609389766965
 10
2197.8880117228337
 20
81.95348171867522
 10
2201.8417664829794
 20
85.18837197697582
 10
2207.58713958601
 20
88.06105852849133
 10
2209.0134052095113
 20
88.06105852849133
 10
2215.469813118496
 20
91.64795181126063
 10
2217.3300233550835
 20
90.53182566930818
 10
2218.067889240903
 20
89.05609389766967
 10
2218.067889240903
 20
84.70535145796865
 10
2217.3536035266175
 20
83.99106574368298
 10
2217.3536035266175
 20
79.70535145796853
 10
2216.6359303670256
 20
78.98767829837716
 10
2215.9227541362443
 20
70.42956352899333
 10
2214.824370667435
 20
68.59892441431093
 10
2213.337997658683
 20
67.85573790993527
 10
2206.8463409894157
 20
69.29832828088345
 10
2206.1407535989506
 20
70.00391567134857
 10
2203.997896456094
 20
70.00391567134857
 10
2203.283610741808
 20
70.71820138563423
  0
LWPOLYLINE
  5
53
330
17
100
AcDbEntity
  8
Y
100
AcDbPolyline
 90
21
 70
1
 10
2178.5999895136756
 20
18.37743730035868
 10
2180.4138710895554
 20
20.191318876238373
 10
2182.5567282324123
 20
20.905604590524042
 10
2187.5567282324123
 20
25.905604590524046
 10
2189.6826850011703
 20
26.61425684677676
 10
2190.3903229244765
 20
28.02953269338948
 10
2194.736610880315
 20
30.927057997281572
 10
2199.7927109195675
 20
29.482457986066525
 10
2204.780159970324
 20
26.632487099919942
 10
2206.9267382332473
 20
26.632487099919942
 10
2209.069595376104
 20
25.203915671348497
 10
2210.499935746243
 20
25.203915671348497
 10
2213.046224247297
 20
23.385138170596065
 10
2213.78558757507
 20
21.906411515049463
 10
2213.064028313032
 20
16.855496680783343
 10
2211.9672278102917
 20
15.02749584288232
 10
2210.4909398314644
 20
14.289351853468691
 10
2180.086584921364
 20
14.647050146528674
 10
2178.6076393559383
 20
15.386522929241586
 10
2177.8560858420274
 20
16.88962995706278
 10
2178.5999895136756
 20
18.37743730035868
  0
LWPOLYLINE
  5
54
330
17
100
AcDbEntity
  8
Y
100
AcDbPolyline
 90
14
 70
1
 10
2192.5780030217497
 20
180.00848395347867
 10
2189.6828363857994
 20
181.4560672714538
 10
2188.579373301594
 20
183.29517241179704
 10
2189.2991859696003
 20
190.49329909186352
 10
2190.397122100085
 20
192.32319264267184
 10
2191.8926751434287
 20
193.07096916434352
 10
2200.5367146247654
 20
189.4692860471201
 10
2201.6393178123312
 20
187.63161406784323
 10
2201.6393178123312
 20
186.15173744502744
 10
2200.18528198301
 20
183.24366578638453
 10
2198.7639447020456
 20
182.5329971459021
 10
2198.051059544286
 20
180.3943416726248
 10
2196.2004732647197
 20
179.2839899048847
 10
2192.5780030217497
 20
180.00848395347867
  0
LWPOLYLINE
  5
55
330
17
100
AcDbEntity
  8
Y
100
AcDbPolyline
 90
45
 70
1
 10
2170.0343265552933
 20
111.81886281624598
 10
2169.2964606694736
 20
113.29459458788449
 10
2169.2964606694736
 20
129.7744712107004
 10
2170.401172385036
 20
131.6156574033033
 10
2172.539827858313
 20
132.32854256106242
 10
2173.248612269579
 20
133.7461113835938
 10
2175.0304099614123
 20
134.8151899986939
 10
2176.4280482194868
 20
138.30928564388
 10
2175.3971221000847
 20
140.02749584288233
 10
2174.0193706517534
 20
140.71637156704818
 10
2164.7294890934786
 20
140.00176529333476
 10
2162.891469412436
 20
141.10457710196033
 10
2162.1536035266167
 20
142.58030887359885
 10
2162.1536035266167
 20
156.20304263927187
 10
2163.254264957228
 20
158.0374783569576
 10
2164.7299967288673
 20
158.77534424277707
 10
2168.348638895795
 20
158.77534424277707
 10
2171.2414108699136
 20
157.32895825571802
 10
2177.6699822984847
 20
150.9003868271467
 10
2179.0438734820336
 20
150.21344123537216
 10
2182.542329199271
 20
151.61282352226723
 10
2183.582174955188
 20
153.34589978212898
 10
2183.582174955188
 20
171.91732835355756
 10
2184.68688667075
 20
173.75851454616043
 10
2186.9136588330866
 20
174.50077193360602
 10
2194.8302892537477
 20
168.74322253676155
 10
2196.6406210711507
 20
165.48462526543562
 10
2195.9259990615924
 20
151.192185074267
 10
2197.3536035266175
 20
147.62317391170498
 10
2197.3536035266175
 20
145.5024798847283
 10
2198.067889240903
 20
144.78819417044264
 10
2198.067889240903
 20
142.64533702758564
 10
2198.7821749551886
 20
141.93105131329986
 10
2198.7821749551886
 20
138.29050298913947
 10
2197.6836332824455
 20
136.4596002012347
 10
2195.895763793464
 20
135.3868785078457
 10
2193.0700727537114
 20
131.148341948217
 10
2193.779263072767
 20
121.21967748143535
 10
2194.4964606694743
 20
120.50247988472829
 10
2194.4964606694743
 20
114.07390845615706
 10
2195.2251586643238
 20
113.34521046130786
 10
2194.479630972857
 20
111.10862738691051
 10
2192.6368457573085
 20
110.00295625758095
 10
2171.8671784454923
 20
110.71915168212642
 10
2170.0343265552933
 20
111.81886281624598
  0
LWPOLYLINE
  5
56
330
17
100
AcDbEntity
  8
Y
100
AcDbPolyline
 90
14
 70
1
 10
2117.1729546598694
 20
19.809081878460866
 10
2122.8816064440284
 20
24.80415218959986
 10
2123.245975156541
 20
25.897258327138406
 10
2125.4092787737727
 20
26.618359532882273
 10
2128.9758869628404
 20
30.898289359763687
 10
2130.4678892409024
 20
31.644290498794803
 10
2149.105662037189
 20
22.325404100651536
 10
2153.087832937459
 20
16.89517105482863
 10
2151.9672278102917
 20
15.02749584288232
 10
2150.490976549798
 20
14.289370212635767
 10
2117.9437643001465
 20
14.647031885708817
 10
2116.4647822130814
 20
15.386522929241586
 10
2115.7132286991705
 20
16.88962995706278
 10
2117.1729546598694
 20
19.809081878460866
  0
LWPOLYLINE
  5
57
330
17
100
AcDbEntity
  8
Y
100
AcDbPolyline
 90
38
 70
1
 10
2108.2916987647127
 20
42.86105852849143
 10
2105.4208714537162
 20
45.01417901173821
 10
2103.2583152421785
 20
45.735031082250856
 10
2102.1479634744387
 20
47.585617361816766
 10
2102.8732281744437
 20
51.21194086184055
 10
2105.0160853173006
 20
54.783369433269115
 10
2105.732911949265
 20
58.36750259309132
 10
2106.439317812331
 20
59.07390845615701
 10
2106.439317812331
 20
61.19895104052675
 10
2108.5821749551883
 20
65.48466532624109
 10
2108.5821749551883
 20
66.91618640077002
 10
2111.439317812331
 20
71.91618640077002
 10
2111.439317812331
 20
74.77037961195532
 10
2113.6038399487943
 20
79.09942388488179
 10
2116.188733611579
 20
80.94577650115686
 10
2122.3376120093926
 20
75.52029556191009
 10
2123.7634876085567
 20
71.95560656399947
 10
2125.898065548061
 20
70.53255460432972
 10
2128.394527656568
 20
66.60954271953368
 10
2131.2057817529385
 20
65.20391567134854
 10
2134.0629246100807
 20
65.20391567134854
 10
2136.920067467224
 20
63.77534424277709
 10
2138.348638895795
 20
63.77534424277709
 10
2145.4914960386527
 20
60.203915671348526
 10
2148.35273049454
 20
60.203915671348526
 10
2150.1871662122267
 20
59.1032542407367
 10
2150.925032098046
 20
57.62752246909819
 10
2150.925032098046
 20
52.64533702758545
 10
2151.6393178123312
 20
51.93105131329978
 10
2151.6393178123312
 20
49.714726308865195
 10
2149.820540311579
 20
47.16843780781177
 10
2141.2057817529376
 20
42.86105852849143
 10
2139.7791029280525
 20
42.86105852849143
 10
2131.906132524635
 20
38.56671103571796
 10
2128.607950031094
 20
39.66610520023161
 10
2127.533261453949
 20
42.17371188023633
 10
2126.158568157439
 20
42.86105852849143
 10
2108.2916987647127
 20
42.86105852849143
  0
LWPOLYLINE
  5
58
330
17
100
AcDbEntity
  8
Y
100
AcDbPolyline
 90
44
 70
1
 10
2639.7330777564216
 20
52.146772814205654
 10
2636.8728538717237
 20
52.146772814205654
 10
2634.015711014581
 20
53.5753442427771
 10
2631.1478641801737
 20
53.5753442427771
 10
2627.8885905359343
 20
56.11033485496342
 10
2627.1536035266167
 20
57.580308873598774
 10
2627.1536035266167
 20
61.848208600825735
 10
2626.4393178123305
 20
62.56249431511141
 10
2626.4393178123305
 20
69.00478870342519
 10
2625.3971221000847
 20
70.74178155716804
 10
2624.015711014581
 20
71.4324870999199
 10
2611.8687622729794
 20
71.4324870999199
 10
2610.0343265552933
 20
72.53314853053172
 10
2609.2747846181446
 20
74.05223240482806
 10
2610.01074638376
 20
74.7881941704427
 10
2610.01074638376
 20
81.9310513132998
 10
2610.7295174533483
 20
82.64982238288876
 10
2611.442339614515
 20
89.06522183338839
 10
2612.539979242942
 20
90.89462121410041
 10
2614.015711014581
 20
91.63248709991989
 10
2617.652167739997
 20
91.63248709991989
 10
2618.3664534542827
 20
90.91820138563422
 10
2622.6300046241167
 20
90.91820138563422
 10
2626.2505921396764
 20
89.46996637941007
 10
2627.353603526617
 20
87.63161406784326
 10
2627.353603526617
 20
83.35962274187125
 10
2628.067889240903
 20
82.64533702758558
 10
2628.067889240903
 20
76.91732835355758
 10
2629.1023073620286
 20
75.19329815168075
 10
2632.6600475912164
 20
74.48175010584323
 10
2633.3664534542827
 20
73.7753442427771
 10
2643.35273049454
 20
73.7753442427771
 10
2645.187166212226
 20
72.67468281216527
 10
2646.6393178123312
 20
69.77037961195532
 10
2646.6393178123312
 20
63.35962274187135
 10
2647.353603526617
 20
62.64533702758557
 10
2647.353603526617
 20
59.05609389766964
 10
2648.0832847727665
 20
57.596731405370804
 10
2646.6393178123312
 20
55.43078096471821
 10
2646.6393178123312
 20
53.359622741871334
 10
2647.375279577946
 20
52.623660976256595
 10
2646.6157376407973
 20
51.10457710196026
 10
2644.761208520324
 20
49.99185962967601
 10
2639.7330777564216
 20
52.146772814205654
  0
LWPOLYLINE
  5
59
330
17
100
AcDbEntity
  8
Y
100
AcDbPolyline
 90
16
 70
1
 10
2603.2606888888477
 20
172.87909251602784
 10
2601.4261627493315
 20
175.44742911134992
 10
2602.867889240902
 20
179.05174534027645
 10
2602.867889240902
 20
183.35962274187133
 10
2603.582174955188
 20
184.073908456157
 10
2603.582174955188
 20
185.48466532624107
 10
2605.034326555293
 20
188.38896852645104
 10
2606.896460669474
 20
189.5062489949595
 10
2608.7625113775352
 20
188.38661857012252
 10
2610.21074638376
 20
184.76603105456223
 10
2610.21074638376
 20
180.49133609226442
 10
2611.6393178123312
 20
178.3484789494073
 10
2611.6393178123312
 20
174.71907441771094
 10
2610.536306425391
 20
172.88072210614413
 10
2606.896460669474
 20
171.42478380377725
 10
2603.2606888888477
 20
172.87909251602784
  0
LWPOLYLINE
  5
5A
330
17
100
AcDbEntity
  8
Y
100
AcDbPolyline
 90
11
 70
1
 10
2580.0655090546666
 20
138.93955417546678
 10
2575.0303347414447
 20
143.25541787251427
 10
2574.279830986775
 20
144.75642538185352
 10
2580.041844005099
 20
152.67919328204883
 10
2581.896460669474
 20
153.7919632806738
 10
2583.7585947836546
 20
152.67468281216534
 10
2584.4964606694743
 20
151.19895104052682
 10
2584.4964606694743
 20
141.14764584628236
 10
2583.3957992388628
 20
139.31321012859667
 10
2581.910493538907
 20
138.57055727861868
 10
2580.0655090546666
 20
138.93955417546678
  0
LWPOLYLINE
  5
5B
330
17
100
AcDbEntity
  8
Y
100
AcDbPolyline
 90
22
 70
1
 10
2562.933032548166
 20
31.07648676232977
 10
2560.035075405765
 20
33.249954619130385
 10
2557.867889240902
 20
36.86193156056805
 10
2557.867889240902
 20
44.073908456157
 10
2558.582174955188
 20
44.78819417044277
 10
2558.582174955188
 20
48.359622741871334
 10
2559.302179765316
 20
49.07962755199924
 10
2560.0146073116302
 20
54.06662037619936
 10
2561.115458099321
 20
55.901371689017544
 10
2563.3327050702883
 20
56.640454012673366
 10
2566.213447025298
 20
55.20008303516843
 10
2570.501360279347
 20
54.48543082616031
 10
2573.7577825063922
 20
52.67630736669071
 10
2574.496460669474
 20
51.198951040526744
 10
2574.496460669474
 20
45.502479884728444
 10
2575.21074638376
 20
44.78819417044277
 10
2575.21074638376
 20
39.07390845615699
 10
2575.925032098046
 20
38.35962274187133
 10
2575.925032098046
 20
33.29050298913949
 10
2574.8243706674343
 20
31.45606727145378
 10
2573.3470046749267
 20
30.71738427519999
 10
2562.933032548166
 20
31.07648676232977
  0
LWPOLYLINE
  5
5C
330
17
100
AcDbEntity
  8
Y
100
AcDbPolyline
 90
15
 70
1
 10
2531.5252849428985
 20
36.07055727861863
 10
2530.03621078451
 20
36.81509435781305
 10
2529.3026956469143
 20
38.28212463300373
 10
2525.7171847758286
 20
51.18996376891105
 10
2526.8256935286563
 20
53.03747835695749
 10
2528.3014253002953
 20
53.77534424277708
 10
2538.357078603386
 20
53.77534424277708
 10
2540.9033671044394
 20
51.95656674202465
 10
2541.6360178090176
 20
50.49126533286741
 10
2542.359050050009
 20
45.43003964593373
 10
2537.6683672904524
 20
40.017713384907005
 10
2536.6183747538353
 20
39.66771587270146
 10
2536.2671650734183
 20
38.614086831449626
 10
2533.3668859339145
 20
36.43887747682195
 10
2531.5252849428985
 20
36.07055727861863
  0
LWPOLYLINE
  5
5D
330
17
100
AcDbEntity
  8
Y
100
AcDbPolyline
 90
72
 70
1
 10
2778.5821749551883
 20
0.3616854815586823
 10
2778.5821749551883
 20
3.29459458788417
 10
2777.88570379939
 20
4.687536899480982
 10
2776.8402639026494
 20
5.732976796221201
 10
2773.309232209979
 20
7.145389473289354
 10
2763.286609957874
 20
6.429487883853335
 10
2762.569325027522
 20
7.146772814205615
 10
2756.937882025711
 20
7.146772814205615
 10
2756.2235963114254
 20
6.432487099919948
 10
2753.283610741808
 20
6.432487099919948
 10
2752.569325027522
 20
7.146772814205615
 10
2745.5093105971396
 20
7.146772814205615
 10
2744.795024882854
 20
6.432487099919948
 10
2741.8550393132364
 20
6.432487099919948
 10
2741.140753598951
 20
7.146772814205615
 10
2734.080739168568
 20
7.146772814205615
 10
2733.3664534542827
 20
6.432487099919948
 10
2731.8550393132364
 20
6.432487099919948
 10
2731.132873747731
 20
7.154652665425032
 10
2727.5395532369203
 20
7.873316767587291
 10
2726.427261770659
 20
10.46866352219855
 10
2728.582174955188
 20
14.060185496414634
 10
2728.582174955188
 20
15.487614972198859
 10
2731.439317812331
 20
20.487614972198863
 10
2731.439317812331
 20
21.913236754812825
 10
2735.0358174815156
 20
29.10623609318175
 10
2743.9643889100867
 20
33.74909323603892
 10
2744.6790679273663
 20
35.17845127059849
 10
2746.168142085755
 20
35.92298834979268
 10
2749.8029047340738
 20
35.19603582012909
 10
2750.5093105971396
 20
34.48962995706273
 10
2752.641023947533
 20
34.48962995706273
 10
2754.790200394732
 20
33.056845658930186
 10
2759.7902003947315
 20
32.342559944644414
 10
2761.9340720034947
 20
30.913312205469
 10
2766.2197862892094
 20
30.199026491183332
 10
2768.36162896616
 20
28.77113137321585
 10
2773.3616289661604
 20
28.056845658930186
 10
2775.4981668046757
 20
26.632487099919942
 10
2778.3001944973603
 20
26.632487099919942
 10
2790.443051640217
 20
33.061058528491394
 10
2795.437611677129
 20
33.061058528491394
 10
2797.5804688199864
 20
34.48962995706273
 10
2804.729996728867
 20
34.48962995706273
 10
2807.5871395860095
 20
35.91820138563418
 10
2811.1407535989506
 20
35.91820138563418
 10
2811.855039313237
 20
36.632487099919956
 10
2819.0090402485575
 20
36.632487099919956
 10
2821.151897391415
 20
38.06105852849129
 10
2825.426467884665
 20
38.06105852849129
 10
2826.140753598951
 20
38.77534424277707
 10
2831.2164857302023
 20
38.77534424277707
 10
2834.475759374442
 20
36.240353630590526
 10
2836.651121211206
 20
31.889629957062795
 10
2835.925032098045
 20
30.437451730741305
 10
2835.925032098045
 20
21.19895104052716
 10
2836.6157376407973
 20
19.817539955022667
 10
2838.316858207437
 20
18.79686761503896
 10
2841.8839536803403
 20
21.650543993361747
 10
2843.3908680193954
 20
20.897086823834066
 10
2845.5361360074066
 20
18.036729506485717
 10
2847.333259616674
 20
16.958455340925216
 10
2850.9068502798636
 20
8.381837749270481
 10
2853.761060393388
 20
6.241180164127003
 10
2854.496460669474
 20
4.7703796119557
 10
2854.496460669474
 20
1.8619315605680198
 10
2853.3816511359423
 20
0.003915671348497796
 10
2840.434555907569
 20
0.003915671348497796
 10
2837.604538263683
 20
2.126428904262956
 10
2835.9082024014288
 20
1.1086273869101992
 10
2835.53981371859
 20
0.0034613383926851427
 10
2778.5821749551883
 20
0.3616854815586823
  0
LWPOLYLINE
  5
5E
330
17
100
AcDbEntity
  8
Y
100
AcDbPolyline
 90
31
 70
1
 10
2834.3807588744226
 20
96.07022349349504
 10
2829.680409530846
 20
98.60118083234381
 10
2827.89549754556
 20
101.81402240585902
 10
2826.464782213081
 20
102.52938007209855
 10
2825.710508092381
 20
104.03792831349834
 10
2829.3265731933225
 20
109.82363247500504
 10
2830.750496498795
 20
110.53559412774116
 10
2832.893353641652
 20
114.82130841345561
 10
2834.314690922617
 20
115.53197705393792
 10
2835.026161269046
 20
117.66638809322527
 10
2837.621556131006
 20
119.52024156605378
 10
2838.3664534542827
 20
118.77534424277702
 10
2842.652167739997
 20
118.77534424277702
 10
2843.37050165363
 20
118.05701032914418
 10
2850.4961508475617
 20
117.34444540975097
 10
2851.9672278102908
 20
116.60890692838632
 10
2853.0818815666053
 20
114.7511506678619
 10
2852.333223787451
 20
113.25383510955301
 10
2848.7617952160226
 20
110.3966922524101
 10
2847.333223787451
 20
107.53954939526733
 10
2843.7586779302796
 20
104.67991270953026
 10
2842.6774632396264
 20
102.87788822510802
 10
2841.6183747538353
 20
102.5248587298443
 10
2841.261231896692
 20
101.45343015841569
 10
2840.1774632396264
 20
101.09217393939373
 10
2839.106034668198
 20
99.30645965367945
 10
2838.0469461824064
 20
98.95343015841573
 10
2837.6898033252637
 20
97.88200158698712
 10
2836.6183747538353
 20
97.52485872984428
 10
2836.258691875097
 20
96.44581009362985
 10
2834.3807588744226
 20
96.07022349349504
  0
LWPOLYLINE
  5
5F
330
17
100
AcDbEntity
  8
Y
100
AcDbPolyline
 90
70
 70
1
 10
2790.758316679935
 20
221.0951398061689
 10
2789.3068699028418
 20
223.27230997180925
 10
2787.165564454446
 20
228.98245783419702
 10
2784.309116561937
 20
232.5530176998334
 10
2782.8891618201615
 20
236.10290455427264
 10
2781.463221641023
 20
236.81587464384157
 10
2777.140648201169
 20
246.18145043019268
 10
2778.2542649572283
 20
248.0374783569581
 10
2779.729996728867
 20
248.77534424277715
 10
2782.5871395860095
 20
248.77534424277715
 10
2784.039317812331
 20
249.50143335593776
 10
2785.4678892409024
 20
248.7871476416521
 10
2788.2542649572283
 20
250.1803354998151
 10
2789.296460669474
 20
251.91732835355762
 10
2789.296460669474
 20
279.00220953614684
 10
2786.439317812331
 20
283.28792382186106
 10
2786.439317812331
 20
284.7824691520229
 10
2789.6945305588283
 20
288.76106250885323
 10
2790.745975156541
 20
289.11154404142405
 10
2791.103118013684
 20
290.18297261285267
 10
2792.1745465851122
 20
290.5401154699956
 10
2792.5316894422554
 20
291.611544041424
 10
2793.603118013684
 20
291.96868689856694
 10
2793.960260870827
 20
293.04011546999556
 10
2796.111256429742
 20
293.75711398963375
 10
2796.825542144027
 20
295.18568541820514
 10
2799.05600432224
 20
295.92917281094276
 10
2801.6212838247943
 20
294.0968303091183
 10
2803.056263545462
 20
290.5093810074486
 10
2806.6276921168906
 20
285.5093810074485
 10
2808.046616661643
 20
281.96206964556734
 10
2809.470996268724
 20
281.2498798420271
 10
2813.0678892409023
 20
274.05609389766994
 10
2813.0678892409023
 20
271.91990752083586
 10
2814.496460669474
 20
269.7770503779788
 10
2814.496460669474
 20
265.49133609226436
 10
2815.9231592973842
 20
263.3512881503988
 10
2816.6374450116696
 20
251.9227167218274
 10
2818.0678892409023
 20
249.7770503779788
 10
2818.0678892409023
 20
247.6341932351216
 10
2819.496460669474
 20
245.49133609226436
 10
2819.496460669474
 20
243.34180818338425
 10
2820.902598414471
 20
240.52953269338963
 10
2823.0435312058767
 20
239.10224416578575
 10
2824.822128536263
 20
235.90076897109103
 10
2825.8992570221403
 20
235.54172614246528
 10
2828.0453741707133
 20
230.53411946246084
 10
2829.475188090215
 20
229.81921250271031
 10
2830.9363016908896
 20
226.16642850102298
 10
2829.8165930763143
 20
224.30024747673062
 10
2826.231476162645
 20
223.58322409399656
 10
2825.50931059714
 20
222.86105852849136
 10
2822.569325027522
 20
222.86105852849136
 10
2821.896460669474
 20
223.53392288653984
 10
2821.2235963114254
 20
222.86105852849136
 10
2816.937882025711
 20
222.86105852849136
 10
2816.212849927666
 20
222.13602643044595
 10
2813.355707070523
 20
222.85031214473162
 10
2812.652167739997
 20
222.1467728142057
 10
2809.795024882854
 20
222.1467728142057
 10
2809.072185283969
 20
221.4239332153205
 10
2805.50075671254
 20
222.13821892960618
 10
2804.795024882854
 20
221.43248709992002
 10
2801.937882025711
 20
221.43248709992002
 10
2801.215042426826
 20
220.70964750103462
 10
2797.6436138553977
 20
221.4239332153205
 10
2796.937882025711
 20
220.71820138563413
 10
2794.0807391685685
 20
220.71820138563413
 10
2793.3478693163524
 20
219.9853315334186
 10
2790.758316679935
 20
221.0951398061689
  0
LWPOLYLINE
  5
60
330
17
100
AcDbEntity
  8
Y
100
AcDbPolyline
 90
72
 70
1
 10
2704.296460669474
 20
123.22687992184156
 10
2704.296460669474
 20
140.55056280780397
 10
2707.5648396722195
 20
140.91371603033133
 10
2708.283610741808
 20
141.63248709991993
 10
2711.8550393132364
 20
141.63248709991993
 10
2712.569325027522
 20
142.3467728142056
 10
2715.50931059714
 20
142.3467728142056
 10
2716.197676404151
 20
141.65840700719446
 10
2719.718435074943
 20
143.77086220966973
 10
2724.0052342312856
 20
144.48532873572682
 10
2729.0222135451227
 20
147.35217405791923
 10
2732.577878912122
 20
146.64104098451946
 10
2733.283610741808
 20
147.3467728142056
 10
2735.437611677129
 20
147.3467728142056
 10
2737.5804688199864
 20
148.77534424277707
 10
2741.2235963114254
 20
148.77534424277707
 10
2741.9119621184363
 20
148.0869784357659
 10
2743.6057551267218
 20
149.1032542407369
 10
2744.290474442755
 20
150.47269287280406
 10
2743.5769902710686
 20
153.32662955955067
 10
2745.7432780618556
 20
158.38130107138636
 10
2749.005007037317
 20
160.9182013856343
 10
2756.8550393132364
 20
160.9182013856343
 10
2757.5693250275226
 20
161.63248709991996
 10
2761.937882025711
 20
161.63248709991996
 10
2762.652167739997
 20
160.9182013856343
 10
2763.9978964560937
 20
160.9182013856343
 10
2764.7121821703795
 20
161.63248709991996
 10
2770.426467884665
 20
161.63248709991996
 10
2771.1407535989506
 20
162.34677281420562
 10
2777.5693250275226
 20
162.34677281420562
 10
2778.283610741808
 20
163.0610585284914
 10
2779.795024882854
 20
163.0610585284914
 10
2780.50931059714
 20
162.34677281420562
 10
2784.015711014581
 20
162.34677281420562
 10
2785.4703452855574
 20
163.07408994969396
 10
2788.760623012542
 20
161.2461578791471
 10
2789.8297612576753
 20
158.7515019738357
 10
2794.826664460586
 20
156.60997202973115
 10
2795.5454555573283
 20
155.1723898362467
 10
2797.6575529326574
 20
153.76432491936066
 10
2801.2453499950348
 20
152.32920609440959
 10
2803.3908680193954
 20
149.46851539526273
 10
2807.6852819830096
 20
147.3213084134556
 10
2808.3995676972954
 20
145.89273698488415
 10
2814.098553727056
 20
143.04324397000389
 10
2815.907217539558
 20
141.2345801575018
 10
2817.36759585232
 20
138.31382353197796
 10
2816.252942096005
 20
136.45606727145355
 10
2814.7772103243665
 20
135.7182013856342
 10
2811.9200674672234
 20
135.7182013856342
 10
2809.0629246100807
 20
134.28962995706283
 10
2805.50931059714
 20
134.28962995706283
 10
2804.800052823055
 20
133.58037218297812
 10
2799.021677529097
 20
132.8580752712334
 10
2794.7233967222414
 20
135.00721567466113
 10
2789.723396722242
 20
135.7215013889468
 10
2784.015711014581
 20
138.57534424277708
 10
2770.426467884665
 20
138.57534424277708
 10
2769.7121821703795
 20
139.28962995706286
 10
2764.7121821703795
 20
139.28962995706286
 10
2763.9964786800033
 20
140.00533344743883
 10
2743.3555233999828
 20
140.7170905260603
 10
2740.903367104439
 20
138.96555031495794
 10
2738.782174955188
 20
134.72316601645562
 10
2738.782174955188
 20
132.5803088735985
 10
2737.3357889681292
 20
129.687536899481
 10
2735.5254705260936
 20
127.87721845744527
 10
2729.1127160551578
 20
125.02710535925132
 10
2728.3995676972954
 20
123.60080864352729
 10
2724.0585949332394
 20
121.43032226149919
 10
2704.296460669474
 20
123.22687992184156
  0
LWPOLYLINE
  5
61
330
17
100
AcDbEntity
  8
Y
100
AcDbPolyline
 90
37
 70
1
 10
2723.2814556530748
 20
60.72035647436724
 10
2722.569325027522
 20
61.43248709991988
 10
2716.937882025711
 20
61.43248709991988
 10
2716.2235963114254
 20
60.71820138563422
 10
2714.0090402485575
 20
60.71820138563422
 10
2711.909202457707
 20
62.11809324620143
 10
2711.2235963114254
 20
61.43248709991988
 10
2709.716972741472
 20
61.43248709991988
 10
2705.0304830681494
 20
65.39797836196226
 10
2704.296460669474
 20
66.86602315931279
 10
2704.296460669474
 20
91.93105131330026
 10
2705.426467884665
 20
93.06105852849133
 10
2707.584189940052
 20
93.06105852849133
 10
2712.584189940052
 20
95.91820138563423
 10
2714.781301923111
 20
95.91820138563423
 10
2716.622488115714
 20
94.81348967007253
 10
2716.9782304163305
 20
93.74626276822373
 10
2724.105153733681
 20
90.18280110954846
 10
2726.2434323665157
 20
87.3317629324355
 10
2728.379050249393
 20
86.61989030480966
 10
2730.1981495886494
 20
84.80079096555326
 10
2730.548556854876
 20
83.74956916687204
 10
2735.540950174872
 20
81.60997202973108
 10
2736.253093480635
 20
80.18568541820537
 10
2738.3862895093725
 20
79.4746200752926
 10
2740.531850718178
 20
76.6138717968855
 10
2745.540950174872
 20
74.46711488687396
 10
2746.2530934806346
 20
73.04282827534814
 10
2747.3326604681206
 20
72.68297261285272
 10
2748.075856153656
 20
70.45338555624814
 10
2747.3266644605865
 20
68.95500217010874
 10
2744.8150586458833
 20
67.87859967809328
 10
2741.250763904577
 20
63.60144598852568
 10
2738.766760069902
 20
61.82715753518608
 10
2738.406801844902
 20
60.74728286018771
 10
2736.917568747529
 20
60.00266631150131
 10
2723.2814556530748
 20
60.72035647436724
  0
LWPOLYLINE
  5
62
330
17
100
AcDbEntity
  8
Y
100
AcDbPolyline
 90
14
 70
1
 10
2704.296460669474
 20
0.36286018274966914
 10
2704.296460669474
 20
7.645337027585963
 10
2705.426467884665
 20
8.775344242777038
 10
2707.652167739997
 20
8.775344242777038
 10
2708.3664534542827
 20
8.061058528491372
 10
2714.7950248828542
 20
8.061058528491372
 10
2715.50931059714
 20
7.346772814205593
 10
2718.9978964560937
 20
7.346772814205593
 10
2719.712182170379
 20
8.061058528491372
 10
2721.2142214605287
 20
8.061058528491372
 10
2723.760509961582
 20
6.2422810277391605
 10
2724.49829048806
 20
4.7667199747836175
 10
2724.131790322724
 20
0.002217825417871744
 10
2704.296460669474
 20
0.36286018274966914
  0
LWPOLYLINE
  5
63
330
17
100
AcDbEntity
  8
Y
100
AcDbPolyline
 90
35
 70
1
 10
3215.725032098045
 20
48.28792382186109
 10
3214.2964606694736
 20
50.4307809647182
 10
3214.2964606694736
 20
53.28792382186109
 10
3212.8678892409025
 20
55.43078096471821
 10
3212.8678892409025
 20
58.991065743682626
 10
3212.1350193886865
 20
59.723935595898055
 10
3213.2475471682337
 20
62.31983374817496
 10
3214.729996728867
 20
63.06105852849131
 10
3222.569325027522
 20
63.06105852849131
 10
3223.2836107418075
 20
63.77534424277709
 10
3241.9285071748145
 20
63.77534424277709
 10
3244.474795675868
 20
61.956566742024876
 10
3245.210746383759
 20
60.48466532624141
 10
3245.210746383759
 20
51.13392288653973
 10
3244.4964606694734
 20
50.41963717225406
 10
3244.4964606694734
 20
47.645337027585775
 10
3245.252167739997
 20
46.88962995706281
 10
3244.488580818254
 20
46.126043035320194
 10
3243.7706413001847
 20
42.53634544497176
 10
3242.335373273473
 20
41.81871143161631
 10
3241.9782304163305
 20
40.747282860187696
 10
3240.4914960386523
 20
40.00391567134854
 10
3237.5830479872648
 20
40.00391567134854
 10
3234.0116194158363
 20
42.14677281420565
 10
3232.652167739997
 20
42.14677281420565
 10
3231.9457618769306
 20
41.440366951139396
 10
3228.385260693046
 20
40.72826671436247
 10
3226.964934834372
 20
38.59777792635122
 10
3225.4914960386523
 20
37.86105852849131
 10
3222.569325027522
 20
37.86105852849131
 10
3221.8597353002415
 20
38.57064825577194
 10
3218.663867304995
 20
38.21555181185576
 10
3217.1748761058757
 20
38.96004741141545
 10
3215.725032098045
 20
42.584657430991825
 10
3215.725032098045
 20
48.28792382186109
  0
LWPOLYLINE
  5
64
330
17
100
AcDbEntity
  8
Y
100
AcDbPolyline
 90
76
 70
1
 10
3169.2964606694736
 20
76.85935239328967
 10
3167.8678892409025
 20
79.00220953614678
 10
3167.8678892409025
 20
86.14764584628232
 10
3166.8256935286563
 20
87.88463870002494
 10
3165.4426614674458
 20
88.57615473063052
 10
3144.710764394289
 20
89.2910477331531
 10
3143.9978964560937
 20
90.00391567134858
 10
3132.569325027522
 20
90.00391567134858
 10
3131.8550393132364
 20
90.71820138563425
 10
3127.5871395860095
 20
90.71820138563425
 10
3124.6812118312746
 20
92.17116526300184
 10
3122.89549754556
 20
95.38545097728756
 10
3121.470843647433
 20
96.09777792635121
 10
3120.0240879158055
 20
98.26791152379167
 10
3115.0260414613404
 20
108.2640044327221
 10
3112.1643751494275
 20
111.84108732261345
 10
3111.4313508995774
 20
114.04016007216322
 10
3112.178492440393
 20
115.5344431537948
 10
3118.3001944973603
 20
118.77534424277702
 10
3138.3442903384016
 20
118.77534424277702
 10
3141.9157189098305
 20
117.34677281420569
 10
3162.645057158774
 20
117.34677281420569
 10
3165.904330803013
 20
114.81178220201915
 10
3166.639317812331
 20
113.34180818338425
 10
3166.639317812331
 20
106.20562180655024
 10
3168.0678892409023
 20
104.06276466369313
 10
3168.0678892409023
 20
91.9173283535576
 10
3169.110084953148
 20
90.18033549981497
 10
3170.4481439359943
 20
89.51130600839186
 10
3171.1407535989506
 20
90.20391567134855
 10
3177.5693250275217
 20
90.20391567134855
 10
3178.283610741808
 20
90.91820138563422
 10
3184.712182170379
 20
90.91820138563422
 10
3185.426467884665
 20
91.63248709991989
 10
3188.3612370915635
 20
91.63248709991989
 10
3192.620201120993
 20
88.08335040872839
 10
3194.317283708532
 20
89.10159996125189
 10
3195.390404311091
 20
91.6055480338892
 10
3196.8686159392723
 20
92.34465384798007
 10
3204.7217690060547
 20
93.05857685405105
 10
3206.4628979838644
 20
94.10325424073696
 10
3207.1536035266167
 20
95.48466532624144
 10
3207.1536035266167
 20
99.06276466369313
 10
3208.582174955188
 20
101.20562180655024
 10
3208.582174955188
 20
108.35024789097503
 10
3210.40095245594
 20
110.89653639202812
 10
3211.8728538717237
 20
111.63248709991991
 10
3216.1407535989506
 20
111.63248709991991
 10
3216.8550393132364
 20
112.34677281420569
 10
3224.7772103243665
 20
112.34677281420569
 10
3226.2516705137105
 20
111.60954271953383
 10
3228.782174955188
 20
107.63303574006855
 10
3228.782174955188
 20
106.19895104052712
 10
3232.339013723242
 20
99.08527350441976
 10
3234.496460669474
 20
96.2086775761104
 10
3234.496460669474
 20
94.06276466369312
 10
3235.940427629909
 20
91.89681422304041
 10
3235.187166212226
 20
90.39029138767441
 10
3233.3555882203896
 20
89.2913445925726
 10
3221.9312807619117
 20
88.57732537641772
 10
3219.484545078658
 20
86.82965703123635
 10
3218.7755801692165
 20
83.99379739347302
 10
3216.639317812331
 20
80.43336013199665
 10
3216.639317812331
 20
78.29459458788423
 10
3213.0678892409023
 20
71.15173744502701
 10
3213.0678892409023
 20
69.00124945213281
 10
3209.8212397901707
 20
64.31164468996487
 10
3208.348638895795
 20
63.575344242777106
 10
3198.283610741808
 20
63.575344242777106
 10
3197.5693250275217
 20
64.28962995706277
 10
3195.5093105971396
 20
64.28962995706277
 10
3194.7936349615575
 20
63.573954321480386
 10
3173.291498445084
 20
64.29069220536276
 10
3170.746697091651
 20
66.10840745781499
 10
3169.2964606694736
 20
69.0088803021699
 10
3169.2964606694736
 20
76.85935239328967
  0
LWPOLYLINE
  5
65
330
17
100
AcDbEntity
  8
Y
100
AcDbPolyline
 90
54
 70
1
 10
3115.4000211816697
 20
145.02688444893363
 10
3113.5658063366322
 20
147.5947852319862
 10
3115.0362107845094
 20
150.5355941277412
 10
3116.4594731695756
 20
151.24722532027457
 10
3118.593158939791
 20
156.93705404084744
 10
3120.4054168190255
 20
159.47421507177617
 10
3121.47514497653
 20
159.8307911242778
 10
3124.3074799928904
 20
164.07929364881778
 10
3125.746304677304
 20
167.67635535985292
 10
3128.6004052083313
 20
169.1034056253664
 10
3129.3067240098635
 20
171.22236202996345
 10
3133.595643125028
 20
176.94092085018286
 10
3137.1700705572543
 20
184.80466120108085
 10
3138.2688353312205
 20
185.90342597504716
 10
3141.877202429117
 20
187.34677281420565
 10
3145.5093105971396
 20
187.34677281420565
 10
3146.182174955188
 20
186.6739084561574
 10
3146.8550393132364
 20
187.34677281420565
 10
3151.1407535989506
 20
187.34677281420565
 10
3151.8550393132364
 20
188.06105852849143
 10
3157.652167739997
 20
188.06105852849143
 10
3158.3664534542827
 20
187.34677281420565
 10
3160.495587637397
 20
187.34677281420565
 10
3164.0759144313934
 20
185.19857673780794
 10
3167.647343002822
 20
184.48429102352227
 10
3171.220864661635
 20
182.34017802823433
 10
3176.931363702412
 20
180.9125532680401
 10
3181.24911174015
 20
178.75367924917097
 10
3183.06029849368
 20
176.21801779422975
 10
3183.775580169217
 20
173.35689109208118
 10
3185.9390244237484
 20
169.75115066786196
 10
3185.1828439810465
 20
168.23878978245864
 10
3180.5141347113517
 20
166.4431323710377
 10
3176.1893592211654
 20
163.5599487109133
 10
3174.759044740195
 20
164.2751059513987
 10
3169.067997434972
 20
160.7182013856343
 10
3167.6343531815096
 20
160.7182013856343
 10
3161.964934834372
 20
157.88349221206553
 10
3160.532062076703
 20
155.73418307556207
 10
3159.4673791949203
 20
155.37928878163453
 10
3158.0678892409023
 20
152.5803088735985
 10
3158.0678892409023
 20
151.14506667900395
 10
3156.639317812331
 20
149.00220953614684
 10
3156.639317812331
 20
146.85758345172195
 10
3154.8205403115785
 20
144.31129495066898
 10
3153.3486388957954
 20
143.57534424277708
 10
3146.937882025711
 20
143.57534424277708
 10
3146.219377318848
 20
142.8568395359141
 10
3139.076520175991
 20
143.57112525019977
 10
3138.3664534542827
 20
142.8610585284914
 10
3131.2235963114254
 20
142.8610585284914
 10
3130.5078724310747
 20
142.14533464814073
 10
3120.0839275430203
 20
142.504781023591
 10
3115.4000211816697
 20
145.02688444893363
  0
LWPOLYLINE
  5
66
330
17
100
AcDbEntity
  8
Y
100
AcDbPolyline
 90
99
 70
1
 10
3102.592612925582
 20
7.861058528491394
 10
3099.020059571974
 20
7.861058528491394
 10
3095.4486310005454
 20
9.28962995706284
 10
3091.8550393132364
 20
9.28962995706284
 10
3091.182174955188
 20
9.962494315111204
 10
3090.5093105971396
 20
9.28962995706284
 10
3088.9978964560933
 20
9.28962995706284
 10
3088.283610741808
 20
10.003915671348507
 10
3084.7343452862597
 20
10.003915671348507
 10
3081.162916714831
 20
11.432487099919953
 10
3078.9978964560937
 20
11.432487099919953
 10
3078.3041525921753
 20
12.126230963837802
 10
3064.73743015202
 20
5.699888755342886
 10
3059.3159219258196
 20
10.398529218049845
 10
3055.024087915806
 20
18.98219723807726
 10
3049.30747999289
 20
27.557109122450573
 10
3047.884832914074
 20
31.113726819490985
 10
3044.296150110667
 20
33.98467306221631
 10
3044.654246606763
 20
89.48962995706277
 10
3052.5693250275217
 20
89.48962995706277
 10
3053.283610741808
 20
90.20391567134855
 10
3071.205781752938
 20
90.20391567134855
 10
3072.6765823051096
 20
89.46851539526268
 10
3074.8175650038925
 20
86.6138717968855
 10
3077.3244171629863
 20
85.53950658584519
 10
3079.110131448701
 20
82.32522087155947
 10
3081.6123787463002
 20
81.25282917258825
 10
3083.0678892409023
 20
78.34180818338432
 10
3083.0678892409023
 20
76.85935239328967
 10
3081.639317812331
 20
74.71649525043244
 10
3081.639317812331
 20
70.43078096471822
 10
3080.2210809014905
 20
68.3034255984578
 10
3080.9082024014283
 20
66.24206109864394
 10
3082.6417057953536
 20
65.20195906228909
 10
3092.6550796224183
 20
64.48671807464157
 10
3093.3664534542827
 20
63.77534424277709
 10
3096.937882025711
 20
63.77534424277709
 10
3097.6521677399965
 20
63.06105852849131
 10
3102.652167739997
 20
63.06105852849131
 10
3103.3664534542822
 20
62.34677281420564
 10
3107.652167739997
 20
62.34677281420564
 10
3108.3664534542822
 20
61.632487099919864
 10
3113.3664534542827
 20
61.632487099919864
 10
3114.080739168568
 20
60.9182013856342
 10
3118.3664534542827
 20
60.9182013856342
 10
3119.080739168568
 20
60.203915671348526
 10
3120.426467884665
 20
60.203915671348526
 10
3121.1654727989308
 20
60.942920585614125
 10
3126.2087313988955
 20
58.0610585284913
 10
3128.9978964560933
 20
58.0610585284913
 10
3129.7121821703795
 20
58.77534424277708
 10
3152.569325027522
 20
58.77534424277708
 10
3153.283610741808
 20
59.48962995706275
 10
3162.569325027522
 20
59.48962995706275
 10
3163.3095306490823
 20
60.229835578623046
 10
3165.1871662122257
 20
59.10325424073692
 10
3165.925032098045
 20
57.62752246909852
 10
3165.925032098045
 20
53.35962274187156
 10
3166.639317812331
 20
52.64533702758578
 10
3166.639317812331
 20
46.20562180655019
 10
3168.0678892409023
 20
44.06276466369307
 10
3168.0678892409023
 20
39.05839970273961
 10
3169.8286971320836
 20
35.88894549861343
 10
3173.7718641423526
 20
33.379657401169325
 10
3174.50264213334
 20
29.725767446232343
 10
3173.0678892409023
 20
27.57363810757529
 10
3173.0678892409023
 20
24.716495250432512
 10
3171.639317812331
 20
22.573638107575288
 10
3171.639317812331
 20
17.562494315111145
 10
3170.925032098045
 20
16.848208600825476
 10
3170.925032098045
 20
15.433360131996587
 10
3169.8233318589228
 20
13.597193066792745
 10
3165.9118286116213
 20
11.819237045292086
 10
3164.482961134367
 20
5.389333397647578
 10
3161.873623451166
 20
4.271045819132957
 10
3161.1407535989506
 20
5.003915671348502
 10
3158.283610741808
 20
5.003915671348502
 10
3157.5693250275217
 20
5.71820138563417
 10
3154.712182170379
 20
5.71820138563417
 10
3154.006450340693
 20
6.423933215320421
 10
3150.4350217692645
 20
5.709647501034643
 10
3149.7121821703795
 20
6.432487099919948
 10
3146.8550393132364
 20
6.432487099919948
 10
3146.1407535989506
 20
7.146772814205615
 10
3143.2836107418075
 20
7.146772814205615
 10
3142.569325027522
 20
7.861058528491394
 10
3139.795024882854
 20
7.861058528491394
 10
3139.039317812331
 20
7.105351457968201
 10
3138.283610741808
 20
7.861058528491394
 10
3135.4264678846653
 20
7.861058528491394
 10
3134.7081339710317
 20
8.579392442124245
 10
3127.6295874548655
 20
9.287247093740959
 10
3121.970996268724
 20
6.457951500670078
 10
3121.256710554438
 20
5.029380072098522
 10
3119.7676363960495
 20
4.284842992904325
 10
3112.561445176302
 20
5.726081236853586
 10
3111.8635931978356
 20
6.423933215320421
 10
3108.3166500866637
 20
5.714544593085846
 10
3102.592612925582
 20
7.861058528491394
  0
LWPOLYLINE
  5
67
330
17
100
AcDbEntity
  8
Y
100
AcDbPolyline
 90
36
 70
1
 10
3144.708493644928
 20
218.57903276822887
 10
3143.9978964560937
 20
219.2896299570628
 10
3138.283610741808
 20
219.2896299570628
 10
3137.5740210145273
 20
219.99921968434322
 10
3131.163867304995
 20
219.2869803832842
 10
3129.6828363857994
 20
220.02749584288185
 10
3128.582174955188
 20
221.86193156056788
 10
3128.582174955188
 20
224.00220953614692
 10
3127.1536035266167
 20
226.14506667900415
 10
3127.1536035266167
 20
227.57363810757548
 10
3125.725032098045
 20
229.7164952504327
 10
3125.725032098045
 20
231.14506667900403
 10
3124.296460669474
 20
233.28792382186126
 10
3124.296460669474
 20
235.43745173074137
 10
3120.0047601570404
 20
244.02085275560714
 10
3120.7380640025553
 20
246.95406813766584
 10
3122.626247832722
 20
248.08697843576599
 10
3123.3664534542822
 20
247.3467728142056
 10
3128.3664534542822
 20
247.3467728142056
 10
3129.080739168568
 20
246.63248709991993
 10
3131.926738233247
 20
246.63248709991993
 10
3134.072589590097
 20
245.20191952868674
 10
3144.7868753043826
 20
244.48763381440085
 10
3146.9304693912313
 20
243.05857108983474
 10
3155.4911208450685
 20
242.34518346868182
 10
3159.1094673171
 20
240.8978448798691
 10
3164.496460669474
 20
231.2012568455968
 10
3164.496460669474
 20
229.7703796119557
 10
3166.653310138034
 20
225.45668067483504
 10
3165.538656381719
 20
223.5989244143104
 10
3162.6343531815096
 20
222.1467728142057
 10
3161.2098733516827
 20
222.1467728142057
 10
3157.6384447802543
 20
220.00391567134847
 10
3156.2098733516827
 20
220.00391567134847
 10
3152.63420339891
 20
217.858513699685
 10
3144.708493644928
 20
218.57903276822887
  0
LWPOLYLINE
  5
68
330
17
100
AcDbEntity
  8
Y
100
AcDbPolyline
 90
87
 70
1
 10
3103.2795625424606
 20
252.150821013553
 10
3102.5753910447
 20
252.85499251131327
 10
3097.5753910447
 20
252.1407067970276
 10
3096.8550393132364
 20
252.86105852849138
 10
3091.8550393132364
 20
252.86105852849138
 10
3091.1407535989506
 20
253.57534424277705
 10
3086.158568157438
 20
253.57534424277705
 10
3084.687767605267
 20
254.3107445188628
 10
3082.5400308129992
 20
257.1743935752193
 10
3080.0261612690465
 20
258.9700146780429
 10
3079.6745465851127
 20
260.02485872984437
 10
3078.603118013684
 20
260.3820015869873
 10
3078.2459751565407
 20
261.4534301584159
 10
3077.1745465851122
 20
261.81057301555865
 10
3076.8174037279696
 20
262.88200158698726
 10
3075.7459751565407
 20
263.23914444413
 10
3075.388832299398
 20
264.3105730155586
 10
3074.325542144027
 20
264.66500306734895
 10
3072.867889240902
 20
267.58030887359865
 10
3072.867889240902
 20
271.91990752083586
 10
3074.2964606694736
 20
274.0627646636931
 10
3074.2964606694736
 20
278.34180818338416
 10
3075.037136373295
 20
279.8231595910272
 10
3079.041368554261
 20
281.64326512783
 10
3080.4914960386523
 20
280.9182013856342
 10
3084.015711014581
 20
280.9182013856342
 10
3085.48763454581
 20
281.65416315124924
 10
3086.223596311425
 20
280.9182013856342
 10
3089.712182170379
 20
280.9182013856342
 10
3090.467889240902
 20
281.6739084561573
 10
3091.2235963114254
 20
280.9182013856342
 10
3093.9978964560937
 20
280.9182013856342
 10
3094.712182170379
 20
281.63248709992007
 10
3096.2235963114254
 20
281.63248709992007
 10
3096.937882025711
 20
280.9182013856342
 10
3099.7299967288664
 20
280.9182013856342
 10
3101.2019202600964
 20
281.65416315124924
 10
3101.937882025711
 20
280.9182013856342
 10
3104.7299967288664
 20
280.9182013856342
 10
3106.201920260096
 20
281.65416315124924
 10
3106.937882025711
 20
280.9182013856342
 10
3108.9978964560933
 20
280.9182013856342
 10
3109.712182170379
 20
281.63248709992007
 10
3111.9378820257107
 20
281.63248709992007
 10
3112.652167739997
 20
280.9182013856342
 10
3114.712182170379
 20
280.9182013856342
 10
3115.426467884665
 20
281.63248709992007
 10
3116.9378820257107
 20
281.63248709992007
 10
3117.6521677399965
 20
280.9182013856342
 10
3119.7121821703795
 20
280.9182013856342
 10
3120.426467884665
 20
281.63248709992007
 10
3121.937882025711
 20
281.63248709992007
 10
3122.6521677399965
 20
280.9182013856342
 10
3123.9978964560937
 20
280.9182013856342
 10
3124.7121821703795
 20
281.63248709992007
 10
3126.937882025711
 20
281.63248709992007
 10
3127.652167739997
 20
280.9182013856342
 10
3128.9978964560933
 20
280.9182013856342
 10
3129.7121821703795
 20
281.63248709992007
 10
3131.9378820257107
 20
281.63248709992007
 10
3132.652167739997
 20
280.9182013856342
 10
3134.712182170379
 20
280.9182013856342
 10
3135.4264678846653
 20
281.63248709992007
 10
3136.920067467224
 20
281.63248709992007
 10
3138.325032098045
 20
280.93000478450915
 10
3139.757981380273
 20
281.6464794256233
 10
3141.6157376407978
 20
280.5318256693083
 10
3142.3654069254912
 20
279.0324870999199
 10
3141.612927822795
 20
277.52752889452694
 10
3137.6873985873785
 20
275.7431974238831
 10
3136.616802742142
 20
273.24514045166495
 10
3135.192516130616
 20
272.53299714590185
 10
3134.832660468121
 20
271.4534301584157
 10
3132.6686461664985
 20
270.7320920578751
 10
3128.3829318807843
 20
265.7320920578752
 10
3127.3326604681206
 20
265.3820015869872
 10
3126.975517610978
 20
264.3105730155586
 10
3125.9040890395495
 20
263.95343015841587
 10
3125.5480909600847
 20
262.8854359200217
 10
3121.956402988794
 20
261.44876073150544
 10
3117.6686461664985
 20
256.4463777721608
 10
3116.618374753835
 20
256.09628730127287
 10
3116.262842569162
 20
255.02969074725357
 10
3113.762842569162
 20
253.95826217582496
 10
3113.406801844902
 20
252.89014000304476
 10
3110.4867303120086
 20
251.43010423659805
 10
3103.2795625424606
 20
252.150821013553
  0
LWPOLYLINE
  5
69
330
17
100
AcDbEntity
  8
Y
100
AcDbPolyline
 90
31
 70
1
 10
3077.160790327101
 20
118.99142933542007
 10
3075.7250320980447
 20
121.14506667900393
 10
3075.7250320980447
 20
128.28792382186106
 10
3074.2964606694736
 20
130.43078096471817
 10
3074.2964606694736
 20
136.8593523932896
 10
3072.867889240902
 20
139.00220953614684
 10
3072.867889240902
 20
142.6275224690986
 10
3073.599989513675
 20
144.09172301464457
 10
3074.696510480848
 20
145.18824398181718
 10
3079.680542592647
 20
147.32425774401682
 10
3080.4003190145254
 20
148.76381058777366
 10
3084.0003078432374
 20
149.48380835351605
 10
3086.1518973914144
 20
150.9182013856343
 10
3088.3664534542822
 20
150.9182013856343
 10
3089.080739168568
 20
150.2039156713485
 10
3094.080739168568
 20
150.2039156713485
 10
3094.795024882854
 20
149.48962995706282
 10
3099.7772103243665
 20
149.48962995706282
 10
3104.110084953148
 20
147.323192642672
 10
3105.2163864359372
 20
145.4793568380226
 10
3104.4918923873433
 20
141.85688659505223
 10
3098.782174955188
 20
130.4374517307413
 10
3098.782174955188
 20
129.00220953614684
 10
3097.3536035266166
 20
126.8593523932896
 10
3097.3536035266166
 20
124.72021637049812
 10
3094.490129166742
 20
119.70913624071811
 10
3093.7702593643717
 20
116.82965703123638
 10
3091.2128555932945
 20
115.00294005189548
 10
3079.3714285817946
 20
115.36177117345613
 10
3077.882030051277
 20
116.10647043871458
 10
3077.160790327101
 20
118.99142933542007
  0
LWPOLYLINE
  5
6A
330
17
100
AcDbEntity
  8
Y
100
AcDbPolyline
 90
27
 70
1
 10
3078.601507341214
 20
189.6725478901108
 10
3078.2459751565407
 20
190.73914444412998
 10
3073.9934299100814
 20
192.15665952628302
 10
3068.9934299100814
 20
195.72808809771158
 10
3064.68268500117
 20
197.16500306734886
 10
3063.9657078018663
 20
198.59895746595546
 10
3060.02966778273
 20
200.38806656556307
 10
3059.2880609353756
 20
202.61288710762614
 10
3062.5432318318676
 20
208.7615432454446
 10
3065.4865518611296
 20
209.49737325276007
 10
3067.6410239475326
 20
208.06105852849143
 10
3069.7838810903895
 20
208.06105852849143
 10
3071.926738233247
 20
206.63248709991987
 10
3076.926738233247
 20
206.63248709991987
 10
3079.069595376104
 20
205.20391567134854
 10
3081.212452518961
 20
205.20391567134854
 10
3085.535426649032
 20
202.32193291796796
 10
3089.0979282794606
 20
198.04693096145388
 10
3091.242521550847
 20
197.33206653765833
 10
3093.803178061667
 20
194.03979388088987
 10
3092.6815135245765
 20
192.17035298573927
 10
3091.205781752938
 20
191.43248709992
 10
3089.069595376104
 20
191.43248709992
 10
3086.9330575375884
 20
190.00812854090975
 10
3081.943601121553
 20
189.29534905290458
 10
3081.205012173495
 20
188.55676010484723
 10
3078.601507341214
 20
189.6725478901108
  0
ENDSEC
  0
SECTION
  2
OBJECTS
  0
DICTIONARY
  5
A
330
0
100
AcDbDictionary
281
1
  3
ACAD_COLOR
350
B
  3
ACAD_GROUP
350
C
  3
ACAD_LAYOUT
350
D
  3
ACAD_MATERIAL
350
E
  3
ACAD_MLEADERSTYLE
350
F
  3
ACAD_MLINESTYLE
350
10
  3
ACAD_PLOTSETTINGS
350
11
  3
ACAD_PLOTSTYLENAME
350
12
  3
ACAD_SCALELIST
350
14
  3
ACAD_TABLESTYLE
350
15
  3
ACAD_VISUALSTYLE
350
16
  3
EZDXF_META
350
2D
  0
DICTIONARY
  5
B
330
A
100
AcDbDictionary
281
1
  0
DICTIONARY
  5
C
330
A
100
AcDbDictionary
281
1
  0
DICTIONARY
  5
D
330
A
100
AcDbDictionary
281
1
  3
Model
350
1A
  3
Layout1
350
1E
  0
DICTIONARY
  5
E
330
A
100
AcDbDictionary
281
1
  3
ByBlock
350
1F
  3
ByLayer
350
20
  3
Global
350
21
  0
DICTIONARY
  5
F
330
A
100
AcDbDictionary
281
1
  3
Standard
350
2C
  0
DICTIONARY
  5
10
330
A
100
AcDbDictionary
281
1
  3
Standard
350
22
  0
DICTIONARY
  5
11
330
A
100
AcDbDictionary
281
1
  0
ACDBDICTIONARYWDFLT
  5
12
330
A
100
AcDbDictionary
281
1
  3
Normal
350
13
100
AcDbDictionaryWithDefault
340
13
  0
ACDBPLACEHOLDER
  5
13
330
12
  0
DICTIONARY
  5
14
330
A
100
AcDbDictionary
281
1
  0
DICTIONARY
  5
15
330
A
100
AcDbDictionary
281
1
  0
DICTIONARY
  5
16
330
A
100
AcDbDictionary
281
1
  0
LAYOUT
  5
1A
330
D
100
AcDbPlotSettings
  1

  4
A3
  6

 40
7.5
 41
20.0
 42
7.5
 43
20.0
 44
420.0
 45
297.0
 46
0.0
 47
0.0
 48
0.0
 49
0.0
140
0.0
141
0.0
142
1.0
143
1.0
 70
1024
 72
1
 73
0
 74
5
  7

 75
16
 76
0
 77
2
 78
300
147
1.0
148
0.0
149
0.0
100
AcDbLayout
  1
Model
 70
1
 71
0
 10
0.0
 20
0.0
 11
420.0
 21
297.0
 12
0.0
 22
0.0
 32
0.0
 14
1e+20
 24
1e+20
 34
1e+20
 15
-1e+20
 25
-1e+20
 35
-1e+20
146
0.0
 13
0.0
 23
0.0
 33
0.0
 16
1.0
 26
0.0
 36
0.0
 17
0.0
 27
1.0
 37
0.0
 76
1
330
17
  0
LAYOUT
  5
1E
330
D
100
AcDbPlotSettings
  1

  4
A3
  6

 40
7.5
 41
20.0
 42
7.5
 43
20.0
 44
420.0
 45
297.0
 46
0.0
 47
0.0
 48
0.0
 49
0.0
140
0.0
141
0.0
142
1.0
143
1.0
 70
0
 72
1
 73
0
 74
5
  7

 75
16
 76
0
 77
2
 78
300
147
1.0
148
0.0
149
0.0
100
AcDbLayout
  1
Layout1
 70
1
 71
1
 10
0.0
 20
0.0
 11
420.0
 21
297.0
 12
0.0
 22
0.0
 32
0.0
 14
1e+20
 24
1e+20
 34
1e+20
 15
-1e+20
 25
-1e+20
 35
-1e+20
146
0.0
 13
0.0
 23
0.0
 33
0.0
 16
1.0
 26
0.0
 36
0.0
 17
0.0
 27
1.0
 37
0.0
 76
1
330
1B
  0
MATERIAL
  5
1F
102
{ACAD_REACTORS
330
E
102
}
330
E
100
AcDbMaterial
  1
ByBlock
  2

 70
0
 40
1.0
 71
1
 41
1.0
 91
-1023410177
 42
1.0
 72
1
  3

 73
1
 74
1
 75
1
 44
0.5
 73
0
 45
1.0
 46
1.0
 77
1
  4

 78
1
 79
1
170
1
 48
1.0
171
1
  6

172
1
173
1
174
1
140
1.0
141
1.0
175
1
  7

176
1
177
1
178
1
143
1.0
179
1
  8

270
1
271
1
272
1
145
1.0
146
1.0
273
1
  9

274
1
275
1
276
1
 42
1.0
 72
1
  3

 73
1
 74
1
 75
1
 94
63
  0
MATERIAL
  5
20
102
{ACAD_REACTORS
330
E
102
}
330
E
100
AcDbMaterial
  1
ByLayer
  2

 70
0
 40
1.0
 71
1
 41
1.0
 91
-1023410177
 42
1.0
 72
1
  3

 73
1
 74
1
 75
1
 44
0.5
 73
0
 45
1.0
 46
1.0
 77
1
  4

 78
1
 79
1
170
1
 48
1.0
171
1
  6

172
1
173
1
174
1
140
1.0
141
1.0
175
1
  7

176
1
177
1
178
1
143
1.0
179
1
  8

270
1
271
1
272
1
145
1.0
146
1.0
273
1
  9

274
1
275
1
276
1
 42
1.0
 72
1
  3

 73
1
 74
1
 75
1
 94
63
  0
MATERIAL
  5
21
102
{ACAD_REACTORS
330
E
102
}
330
E
100
AcDbMaterial
  1
Global
  2

 70
0
 40
1.0
 71
1
 41
1.0
 91
-1023410177
 42
1.0
 72
1
  3

 73
1
 74
1
 75
1
 44
0.5
 73
0
 45
1.0
 46
1.0
 77
1
  4

 78
1
 79
1
170
1
 48
1.0
171
1
  6

172
1
173
1
174
1
140
1.0
141
1.0
175
1
  7

176
1
177
1
178
1
143
1.0
179
1
  8

270
1
271
1
272
1
145
1.0
146
1.0
273
1
  9

274
1
275
1
276
1
 42
1.0
 72
1
  3

 73
1
 74
1
 75
1
 94
63
  0
MLINESTYLE
  5
22
102
{ACAD_REACTORS
330
10
102
}
330
10
100
AcDbMlineStyle
  2
Standard
 70
0
  3

 62
256
 51
90.0
 52
90.0
 71
2
 49
0.5
 62
256
  6
BYLAYER
 49
-0.5
 62
256
  6
BYLAYER
  0
MLEADERSTYLE
  5
2C
102
{ACAD_REACTORS
330
F
102
}
330
F
100
AcDbMLeaderStyle
179
2
170
2
171
1
172
0
 90
2
 40
0.0
 41
0.0
173
1
 91
-1056964608
 92
-2
290
1
 42
2.0
291
1
 43
8.0
  3
Standard
 44
4.0
300

342
29
174
1
175
1
176
0
178
1
 93
-1056964608
 45
4.0
292
0
297
0
 46
4.0
 94
-1056964608
 47
1.0
 49
1.0
140
1.0
294
1
141
0.0
177
0
142
1.0
295
0
296
0
143
3.75
271
0
272
9
273
9
  0
DICTIONARY
  5
2D
330
A
100
AcDbDictionary
280
1
281
1
  3
CREATED_BY_EZDXF
350
2E
  3
WRITTEN_BY_EZDXF
350
6D
  0
DICTIONARYVAR
  5
2E
330
2D
100
DictionaryVariables
280
0
  1
1.4.4 @ 2026-07-17T12:30:12.315205+00:00
  0
DICTIONARYVAR
  5
6D
330
2D
100
DictionaryVariables
280
0
  1
1.4.4 @ 2026-07-17T12:30:12.330866+00:00
  0
ENDSEC
  0
EOF
