  0
SECTION
  2
HEADER
  9
$ACADVER
  1
AC1027
  9
$ACADMAINTVER
 70
105
  9
$DWGCODEPAGE
  3
ANSI_1252
  9
$LASTSAVEDBY
  1
ezdxf
  9
$REQUIREDVERSIONS
160
0
  9
$INSBASE
 10
0.0
 20
0.0
 30
0.0
  9
$EXTMIN
 10
1e+20
 20
1e+20
 30
1e+20
  9
$EXTMAX
 10
-1e+20
 20
-1e+20
 30
-1e+20
  9
$LIMMIN
 10
0.0
 20
0.0
  9
$LIMMAX
 10
420.0
 20
297.0
  9
$ORTHOMODE
 70
0
  9
$REGENMODE
 70
1
  9
$FILLMODE
 70
1
  9
$QTEXTMODE
 70
0
  9
$MIRRTEXT
 70
1
  9
$LTSCALE
 40
1.0
  9
$ATTMODE
 70
1
  9
$TEXTSIZE
 40
2.5
  9
$TRACEWID
 40
1.0
  9
$TEXTSTYLE
  7
Standard
  9
$CLAYER
  8
0
  9
$CELTYPE
  6
ByLayer
  9
$CECOLOR
 62
256
  9
$CELTSCALE
 40
1.0
  9
$DISPSILH
 70
0
  9
$DIMSCALE
 40
1.0
  9
$DIMASZ
 40
2.5
  9
$DIMEXO
 40
0.625
  9
$DIMDLI
 40
3.75
  9
$DIMRND
 40
0.0
  9
$DIMDLE
 40
0.0
  9
$DIMEXE
 40
1.25
  9
$DIMTP
 40
0.0
  9
$DIMTM
 40
0.0
  9
$DIMTXT
 40
2.5
  9
$DIMCEN
 40
2.5
  9
$DIMTSZ
 40
0.0
  9
$DIMTOL
 70
0
  9
$DIMLIM
 70
0
  9
$DIMTIH
 70
0
  9
$DIMTOH
 70
0
  9
$DIMSE1
 70
0
  9
$DIMSE2
 70
0
  9
$DIMTAD
 70
1
  9
$DIMZIN
 70
8
  9
$DIMBLK
  1

  9
$DIMASO
 70
1
  9
$DIMSHO
 70
1
  9
$DIMPOST
  1

  9
$DIMAPOST
  1

  9
$DIMALT
 70
0
  9
$DIMALTD
 70
3
  9
$DIMALTF
 40
0.03937007874
  9
$DIMLFAC
 40
1.0
  9
$DIMTOFL
 70
1
  9
$DIMTVP
 40
0.0
  9
$DIMTIX
 70
0
  9
$DIMSOXD
 70
0
  9
$DIMSAH
 70
0
  9
$DIMBLK1
  1

  9
$DIMBLK2
  1

  9
$DIMSTYLE
  2
ISO-25
  9
$DIMCLRD
 70
0
  9
$DIMCLRE
 70
0
  9
$DIMCLRT
 70
0
  9
$DIMTFAC
 40
1.0
  9
$DIMGAP
 40
0.625
  9
$DIMJUST
 70
0
  9
$DIMSD1
 70
0
  9
$DIMSD2
 70
0
  9
$DIMTOLJ
 70
0
  9
$DIMTZIN
 70
8
  9
$DIMALTZ
 70
0
  9
$DIMALTTZ
 70
0
  9
$DIMUPT
 70
0
  9
$DIMDEC
 70
2
  9
$DIMTDEC
 70
2
  9
$DIMALTU
 70
2
  9
$DIMALTTD
 70
3
  9
$DIMTXSTY
  7
Standard
  9
$DIMAUNIT
 70
0
  9
$DIMADEC
 70
0
  9
$DIMALTRND
 40
0.0
  9
$DIMAZIN
 70
0
  9
$DIMDSEP
 70
44
  9
$DIMATFIT
 70
3
  9
$DIMFRAC
 70
0
  9
$DIMLDRBLK
  1

  9
$DIMLUNIT
 70
2
  9
$DIMLWD
 70
-2
  9
$DIMLWE
 70
-2
  9
$DIMTMOVE
 70
0
  9
$DIMFXL
 40
1.0
  9
$DIMFXLON
 70
0
  9
$DIMJOGANG
 40
0.785398163397
  9
$DIMTFILL
 70
0
  9
$DIMTFILLCLR
 70
0
  9
$DIMARCSYM
 70
0
  9
$DIMLTYPE
  6

  9
$DIMLTEX1
  6

  9
$DIMLTEX2
  6

  9
$DIMTXTDIRECTION
 70
0
  9
$LUNITS
 70
2
  9
$LUPREC
 70
4
  9
$SKETCHINC
 40
1.0
  9
$FILLETRAD
 40
10.0
  9
$AUNITS
 70
0
  9
$AUPREC
 70
2
  9
$MENU
  1
.
  9
$ELEVATION
 40
0.0
  9
$PELEVATION
 40
0.0
  9
$THICKNESS
 40
0.0
  9
$LIMCHECK
 70
0
  9
$CHAMFERA
 40
0.0
  9
$CHAMFERB
 40
0.0
  9
$CHAMFERC
 40
0.0
  9
$CHAMFERD
 40
0.0
  9
$SKPOLY
 70
0
  9
$TDCREATE
 40
2461236.492962963
  9
$TDUCREATE
 40
2458532.153996898
  9
$TDUPDATE
 40
2461236.492962963
  9
$TDUUPDATE
 40
2458532.1544311
  9
$TDINDWG
 40
0.0
  9
$TDUSRTIMER
 40
0.0
  9
$USRTIMER
 70
1
  9
$ANGBASE
 50
0.0
  9
$ANGDIR
 70
0
  9
$PDMODE
 70
0
  9
$PDSIZE
 40
0.0
  9
$PLINEWID
 40
0.0
  9
$SPLFRAME
 70
0
  9
$SPLINETYPE
 70
6
  9
$SPLINESEGS
 70
8
  9
$HANDSEED
  5
4C
  9
$SURFTAB1
 70
6
  9
$SURFTAB2
 70
6
  9
$SURFTYPE
 70
6
  9
$SURFU
 70
6
  9
$SURFV
 70
6
  9
$UCSBASE
  2

  9
$UCSNAME
  2

  9
$UCSORG
 10
0.0
 20
0.0
 30
0.0
  9
$UCSXDIR
 10
1.0
 20
0.0
 30
0.0
  9
$UCSYDIR
 10
0.0
 20
1.0
 30
0.0
  9
$UCSORTHOREF
  2

  9
$UCSORTHOVIEW
 70
0
  9
$UCSORGTOP
 10
0.0
 20
0.0
 30
0.0
  9
$UCSORGBOTTOM
 10
0.0
 20
0.0
 30
0.0
  9
$UCSORGLEFT
 10
0.0
 20
0.0
 30
0.0
  9
$UCSORGRIGHT
 10
0.0
 20
0.0
 30
0.0
  9
$UCSORGFRONT
 10
0.0
 20
0.0
 30
0.0
  9
$UCSORGBACK
 10
0.0
 20
0.0
 30
0.0
  9
$PUCSBASE
  2

  9
$PUCSNAME
  2

  9
$PUCSORG
 10
0.0
 20
0.0
 30
0.0
  9
$PUCSXDIR
 10
1.0
 20
0.0
 30
0.0
  9
$PUCSYDIR
 10
0.0
 20
1.0
 30
0.0
  9
$PUCSORTHOREF
  2

  9
$PUCSORTHOVIEW
 70
0
  9
$PUCSORGTOP
 10
0.0
 20
0.0
 30
0.0
  9
$PUCSORGBOTTOM
 10
0.0
 20
0.0
 30
0.0
  9
$PUCSORGLEFT
 10
0.0
 20
0.0
 30
0.0
  9
$PUCSORGRIGHT
 10
0.0
 20
0.0
 30
0.0
  9
$PUCSORGFRONT
 10
0.0
 20
0.0
 30
0.0
  9
$PUCSORGBACK
 10
0.0
 20
0.0
 30
0.0
  9
$USERI1
 70
0
  9
$USERI2
 70
0
  9
$USERI3
 70
0
  9
$USERI4
 70
0
  9
$USERI5
 70
0
  9
$USERR1
 40
0.0
  9
$USERR2
 40
0.0
  9
$USERR3
 40
0.0
  9
$USERR4
 40
0.0
  9
$USERR5
 40
0.0
  9
$WORLDVIEW
 70
1
  9
$SHADEDGE
 70
3
  9
$SHADEDIF
 70
70
  9
$TILEMODE
 70
1
  9
$MAXACTVP
 70
64
  9
$PINSBASE
 10
0.0
 20
0.0
 30
0.0
  9
$PLIMCHECK
 70
0
  9
$PEXTMIN
 10
1e+20
 20
1e+20
 30
1e+20
  9
$PEXTMAX
 10
-1e+20
 20
-1e+20
 30
-1e+20
  9
$PLIMMIN
 10
0.0
 20
0.0
  9
$PLIMMAX
 10
420.0
 20
297.0
  9
$UNITMODE
 70
0
  9
$VISRETAIN
 70
1
  9
$PLINEGEN
 70
0
  9
$PSLTSCALE
 70
1
  9
$TREEDEPTH
 70
3020
  9
$CMLSTYLE
  2
Standard
  9
$CMLJUST
 70
0
  9
$CMLSCALE
 40
20.0
  9
$PROXYGRAPHICS
 70
1
  9
$MEASUREMENT
 70
1
  9
$CELWEIGHT
370
-1
  9
$ENDCAPS
280
0
  9
$JOINSTYLE
280
0
  9
$LWDISPLAY
290
0
  9
$INSUNITS
 70
4
  9
$HYPERLINKBASE
  1

  9
$STYLESHEET
  1

  9
$XEDIT
290
1
  9
$CEPSNTYPE
380
0
  9
$PSTYLEMODE
290
1
  9
$FINGERPRINTGUID
  2
{DC1CC9C7-A994-4AB6-B6C8-EA5C58E3E409}
  9
$VERSIONGUID
  2
{39135CFC-B6F8-417E-B3F6-818DE09BB8EC}
  9
$EXTNAMES
290
1
  9
$PSVPSCALE
 40
0.0
  9
$OLESTARTUP
290
0
  9
$SORTENTS
280
127
  9
$INDEXCTL
280
0
  9
$HIDETEXT
280
1
  9
$XCLIPFRAME
280
1
  9
$HALOGAP
280
0
  9
$OBSCOLOR
 70
257
  9
$OBSLTYPE
280
0
  9
$INTERSECTIONDISPLAY
280
0
  9
$INTERSECTIONCOLOR
 70
257
  9
$DIMASSOC
280
2
  9
$PROJECTNAME
  1

  9
$CAMERADISPLAY
290
0
  9
$LENSLENGTH
 40
50.0
  9
$CAMERAHEIGHT
 40
0.0
  9
$STEPSPERSEC
 40
24.0
  9
$STEPSIZE
 40
100.0
  9
$3DDWFPREC
 40
2.0
  9
$PSOLWIDTH
 40
0.005
  9
$PSOLHEIGHT
 40
0.08
  9
$LOFTANG1
 40
1.570796326795
  9
$LOFTANG2
 40
1.570796326795
  9
$LOFTMAG1
 40
0.0
  9
$LOFTMAG2
 40
0.0
  9
$LOFTPARAM
 70
7
  9
$LOFTNORMALS
280
1
  9
$LATITUDE
 40
37.795
  9
$LONGITUDE
 40
-122.394
  9
$NORTHDIRECTION
 40
0.0
  9
$TIMEZONE
 70
-8000
  9
$LIGHTGLYPHDISPLAY
280
1
  9
$TILEMODELIGHTSYNCH
280
1
  9
$CMATERIAL
347
20
  9
$SOLIDHIST
280
0
  9
$SHOWHIST
280
1
  9
$DWFFRAME
280
2
  9
$DGNFRAME
280
2
  9
$REALWORLDSCALE
290
1
  9
$INTERFERECOLOR
 62
256
  9
$CSHADOW
280
0
  9
$SHADOWPLANELOCATION
 40
0.0
  0
ENDSEC
  0
SECTION
  2
CLASSES
  0
CLASS
  1
ACDBDICTIONARYWDFLT
  2
AcDbDictionaryWithDefault
  3
ObjectDBX Classes
 90
0
 91
0
280
0
281
0
  0
CLASS
  1
SUN
  2
AcDbSun
  3
SCENEOE
 90
1153
 91
0
280
0
281
0
  0
CLASS
  1
VISUALSTYLE
  2
AcDbVisualStyle
  3
ObjectDBX Classes
 90
4095
 91
0
280
0
281
0
  0
CLASS
  1
MATERIAL
  2
AcDbMaterial
  3
ObjectDBX Classes
 90
1153
 91
0
280
0
281
0
  0
CLASS
  1
SCALE
  2
AcDbScale
  3
ObjectDBX Classes
 90
1153
 91
0
280
0
281
0
  0
CLASS
  1
TABLESTYLE
  2
AcDbTableStyle
  3
ObjectDBX Classes
 90
4095
 91
0
280
0
281
0
  0
CLASS
  1
MLEADERSTYLE
  2
AcDbMLeaderStyle
  3
ACDB_MLEADERSTYLE_CLASS
 90
4095
 91
0
280
0
281
0
  0
CLASS
  1
DICTIONARYVAR
  2
AcDbDictionaryVar
  3
ObjectDBX Classes
 90
0
 91
0
280
0
281
0
  0
CLASS
  1
CELLSTYLEMAP
  2
AcDbCellStyleMap
  3
ObjectDBX Classes
 90
1152
 91
0
280
0
281
0
  0
CLASS
  1
MENTALRAYRENDERSETTINGS
  2
AcDbMentalRayRenderSettings
  3
SCENEOE
 90
1024
 91
0
280
0
281
0
  0
CLASS
  1
ACDBDETAILVIEWSTYLE
  2
AcDbDetailViewStyle
  3
ObjectDBX Classes
 90
1025
 91
0
280
0
281
0
  0
CLASS
  1
ACDBSECTIONVIEWSTYLE
  2
AcDbSectionViewStyle
  3
ObjectDBX Classes
 90
1025
 91
0
280
0
281
0
  0
CLASS
  1
RASTERVARIABLES
  2
AcDbRasterVariables
  3
ISM
 90
0
 91
0
280
0
281
0
  0
CLASS
  1
LAYOUT
  2
AcDbLayout
  3
ObjectDBX Classes
 90
0
 91
0
280
0
281
0
  0
CLASS
  1
ACDBPLACEHOLDER
  2
AcDbPlaceHolder
  3
ObjectDBX Classes
 90
0
 91
0
280
0
281
0
  0
ENDSEC
  0
SECTION
  2
TABLES
  0
TABLE
  2
VPORT
  5
8
330
0
100
AcDbSymbolTable
 70
1
  0
VPORT
  5
23
330
8
100
AcDbSymbolTableRecord
100
AcDbViewportTableRecord
  2
*Active
 70
0
 10
0.0
 20
0.0
 11
1.0
 21
1.0
 12
0.0
 22
0.0
 13
0.0
 23
0.0
 14
0.5
 24
0.5
 15
0.5
 25
0.5
 16
0.0
 26
0.0
 36
1.0
 17
0.0
 27
0.0
 37
0.0
 40
1000.0
 41
1.34
 42
50.0
 43
0.0
 44
0.0
 50
0.0
 51
0.0
 71
0
 72
1000
 73
1
 74
3
 75
0
 76
0
 77
0
 78
0
281
0
 65
0
146
0.0
  0
ENDTAB
  0
TABLE
  2
LTYPE
  5
2
330
0
100
AcDbSymbolTable
 70
3
  0
LTYPE
  5
24
330
2
100
AcDbSymbolTableRecord
100
AcDbLinetypeTableRecord
  2
ByBlock
 70
0
  3

 72
65
 73
0
 40
0.0
  0
LTYPE
  5
25
330
2
100
AcDbSymbolTableRecord
100
AcDbLinetypeTableRecord
  2
ByLayer
 70
0
  3

 72
65
 73
0
 40
0.0
  0
LTYPE
  5
26
330
2
100
AcDbSymbolTableRecord
100
AcDbLinetypeTableRecord
  2
Continuous
 70
0
  3

 72
65
 73
0
 40
0.0
  0
ENDTAB
  0
TABLE
  2
LAYER
  5
1
330
0
100
AcDbSymbolTable
 70
3
  0
LAYER
  5
27
330
1
100
AcDbSymbolTableRecord
100
AcDbLayerTableRecord
  2
0
 70
0
 62
7
  6
Continuous
370
-3
390
13
347
21
  0
LAYER
  5
28
330
1
100
AcDbSymbolTableRecord
100
AcDbLayerTableRecord
  2
Defpoints
 70
0
 62
7
  6
Continuous
290
0
370
-3
390
13
347
21
  0
LAYER
  5
2F
330
1
100
AcDbSymbolTableRecord
100
AcDbLayerTableRecord
  2
Y
 70
0
 62
7
  6
Continuous
370
-3
390
13
347
21
  0
ENDTAB
  0
TABLE
  2
STYLE
  5
5
330
0
100
AcDbSymbolTable
 70
1
  0
STYLE
  5
29
330
5
100
AcDbSymbolTableRecord
100
AcDbTextStyleTableRecord
  2
Standard
 70
0
 40
0.0
 41
1.0
 50
0.0
 71
0
 42
2.5
  3
txt
  4

  0
ENDTAB
  0
TABLE
  2
VIEW
  5
7
330
0
100
AcDbSymbolTable
 70
0
  0
ENDTAB
  0
TABLE
  2
UCS
  5
6
330
0
100
AcDbSymbolTable
 70
0
  0
ENDTAB
  0
TABLE
  2
APPID
  5
3
330
0
100
AcDbSymbolTable
 70
3
  0
APPID
  5
2A
330
3
100
AcDbSymbolTableRecord
100
AcDbRegAppTableRecord
  2
ACAD
 70
0
  0
APPID
  5
49
330
3
100
AcDbSymbolTableRecord
100
AcDbRegAppTableRecord
  2
HATCHBACKGROUNDCOLOR
 70
0
  0
APPID
  5
4A
330
3
100
AcDbSymbolTableRecord
100
AcDbRegAppTableRecord
  2
EZDXF
 70
0
  0
ENDTAB
  0
TABLE
  2
DIMSTYLE
  5
4
330
0
100
AcDbSymbolTable
 70
1
100
AcDbDimStyleTable
  0
DIMSTYLE
105
2B
330
4
100
AcDbSymbolTableRecord
100
AcDbDimStyleTableRecord
  2
Standard
 70
0
 40
1.0
 41
2.5
 42
0.625
 43
3.75
 44
1.25
 45
0.0
 46
0.0
 47
0.0
 48
0.0
 49
2.5
140
2.5
141
2.5
142
0.0
143
0.03937007874
144
1.0
145
0.0
146
1.0
147
0.625
148
0.0
 69
0
 70
0
 71
0
 72
0
 73
0
 74
0
 75
0
 76
0
 77
1
 78
8
 79
3
170
0
171
3
172
1
173
0
174
0
175
0
176
0
177
0
178
0
179
2
271
2
272
2
273
2
274
3
275
0
276
0
277
2
278
44
279
0
280
0
281
0
282
0
283
0
284
8
285
0
286
0
288
0
289
3
290
0
371
-2
372
-2
  0
ENDTAB
  0
TABLE
  2
BLOCK_RECORD
  5
9
330
0
100
AcDbSymbolTable
 70
2
  0
BLOCK_RECORD
  5
17
330
9
100
AcDbSymbolTableRecord
100
AcDbBlockTableRecord
  2
*Model_Space
340
1A
 70
0
280
1
281
0
  0
BLOCK_RECORD
  5
1B
330
9
100
AcDbSymbolTableRecord
100
AcDbBlockTableRecord
  2
*Paper_Space
340
1E
 70
0
280
1
281
0
  0
ENDTAB
  0
ENDSEC
  0
SECTION
  2
BLOCKS
  0
BLOCK
  5
18
330
17
100
AcDbEntity
  8
0
100
AcDbBlockBegin
  2
*Model_Space
 70
0
 10
0.0
 20
0.0
 30
0.0
  3
*Model_Space
  1

  0
ENDBLK
  5
19
330
17
100
AcDbEntity
  8
0
100
AcDbBlockEnd
  0
BLOCK
  5
1C
330
1B
100
AcDbEntity
  8
0
100
AcDbBlockBegin
  2
*Paper_Space
 70
0
 10
0.0
 20
0.0
 30
0.0
  3
*Paper_Space
  1

  0
ENDBLK
  5
1D
330
1B
100
AcDbEntity
  8
0
100
AcDbBlockEnd
  0
ENDSEC
  0
SECTION
  2
ENTITIES
  0
LWPOLYLINE
  5
30
330
17
100
AcDbEntity
  8
Y
100
AcDbPolyline
 90
18
 70
1
 10
375.4439533930868
 20
371.0254023862496
 10
365.7711564827445
 20
380.6337084522485
 10
356.08301201636453
 20
395.7564319177361
 10
365.7947320675424
 20
410.9159557272599
 10
420.28182733012306
 20
410.9159557272599
 10
422.035946704845
 20
408.1778604891647
 10
427.3040962778027
 20
408.1778604891647
 10
435.2579513275092
 20
393.00326047496236
 10
429.05205810032464
 20
386.08390459500475
 10
418.5360884251353
 20
383.34808485296134
 10
416.77358858067925
 20
380.59690810821235
 10
404.4947529576258
 20
380.59690810821235
 10
402.74063358290385
 20
377.8588128701171
 10
395.69811427574916
 20
377.8588128701171
 10
386.92751740213953
 20
372.3826223939266
 10
381.6912010862408
 20
372.3826223939266
 10
379.92542438179123
 20
369.62633062971327
 10
375.4439533930868
 20
371.0254023862496
  0
LWPOLYLINE
  5
31
330
17
100
AcDbEntity
  8
Y
100
AcDbPolyline
 90
82
 70
1
 10
27.269898019539163
 20
531.1957904225967
 10
18.505137680869254
 20
536.6683366796409
 10
9.703656536925621
 20
536.6683366796409
 10
0.015539761122673745
 20
554.5405951472707
 10
0.015539761122673745
 20
565.5476213989829
 10
3.523778510566511
 20
571.0238118751732
 10
3.523778510566511
 20
584.7142880656495
 10
5.2778978852884295
 20
587.4523833037447
 10
5.2778978852884295
 20
592.924310940026
 10
14.048494758898023
 20
609.3528823685973
 10
14.048494758898023
 20
623.0476213989829
 10
15.80261413361994
 20
625.785716637078
 10
15.80261413361994
 20
634.0000023513638
 10
19.310852883063777
 20
639.4761928275542
 10
19.310852883063777
 20
653.1666690180305
 10
21.06339766924109
 20
655.9023063998029
 10
19.312403062657967
 20
688.7009179194494
 10
15.80261413361994
 20
694.1795281507751
 10
15.80261413361994
 20
705.1365745125977
 10
0.0
 20
735.2852693477286
 10
3.523778510566511
 20
740.785716637078
 10
3.523778510566511
 20
770.9047642561256
 10
6.211917579276527
 20
775.1008189200447
 10
14.98251445288612
 20
772.3627236819494
 10
16.71854328282768
 20
775.0725804573543
 10
30.75149828060303
 20
777.8106756954495
 10
32.50628966749186
 20
780.5498199119327
 10
48.29336403998913
 20
783.287915150028
 10
50.0532446175968
 20
786.0350033463075
 10
55.41289258766191
 20
786.0350033463075
 10
60.675250711827665
 20
780.5588128701171
 10
67.61877080838697
 20
780.5588128701171
 10
79.93248231907712
 20
788.7964298280467
 10
83.51395928127492
 20
786.0011739415721
 10
94.0200992747009
 20
766.8683366796408
 10
95.76974300656788
 20
766.8683366796408
 10
108.07135039477156
 20
747.6661243924084
 10
116.844289348561
 20
739.4496451540057
 10
128.2826677693871
 20
718.8480062104934
 10
125.58977237684054
 20
714.6445271558314
 10
121.9721389811955
 20
714.6445271558314
 10
120.21801960647355
 20
717.3826223939266
 10
113.20154210758588
 20
717.3826223939266
 10
111.44742273286396
 20
720.1207176320218
 10
102.77411570515372
 20
720.1207176320218
 10
97.52347723850208
 20
714.6567230336772
 10
88.75681172404937
 20
711.9198551277626
 10
72.90137096688332
 20
692.6701866537164
 10
70.16155393669166
 20
696.9469081082123
 10
73.6697926861355
 20
702.4230985844027
 10
69.34855773953791
 20
709.1683366796409
 10
58.93323613740758
 20
709.1683366796409
 10
56.35885320377337
 20
705.1498498233885
 10
58.94723375467675
 20
698.4159557272599
 10
62.441474886851424
 20
698.4159557272599
 10
66.89454774664411
 20
691.4649250459971
 10
57.18627712615859
 20
679.0660837059838
 10
50.174598123980616
 20
676.3298610230266
 10
45.84140431720041
 20
669.56595572726
 10
50.174598123980616
 20
662.8020504314932
 10
57.19107562286829
 20
660.063955193398
 10
60.68735551212951
 20
654.606431917736
 10
64.1834894612715
 20
654.606431917736
 10
69.45756724295138
 20
649.1180455636998
 10
78.23209547571786
 20
646.3787229934239
 10
86.19087219226901
 20
636.7161840833451
 10
75.63236424043879
 20
620.234865445108
 10
70.36844617537358
 20
606.5403309345331
 10
59.877711056024076
 20
592.8940571554357
 10
65.96167249647789
 20
583.3972885267314
 10
72.96834940302871
 20
580.66301785092
 10
78.25275885995231
 20
575.1638800010261
 10
86.16738912249672
 20
562.8095261608876
 10
86.16738912249672
 20
557.2747662460132
 10
83.50427083903995
 20
553.1177678139234
 10
71.21873834315778
 20
547.6385906252848
 10
64.18699409321849
 20
539.4064319177361
 10
60.67875534377465
 20
539.4064319177361
 10
53.66227784488697
 20
531.1921462034504
 10
50.16263926379799
 20
531.1921462034504
 10
48.40381419637119
 20
528.4467056073523
 10
27.269898019539163
 20
531.1957904225967
  0
LWPOLYLINE
  5
32
330
17
100
AcDbEntity
  8
Y
100
AcDbPolyline
 90
18
 70
1
 10
1692.2886040504525
 20
60.52471641784504
 10
1694.848290242617
 20
57.70167001297424
 10
1707.2817367021262
 20
57.70167001297424
 10
1708.5230667351168
 20
54.963574774879035
 10
1720.9363670650214
 20
54.963574774879035
 10
1722.1776970980118
 20
52.22547953678377
 10
1734.5815081199808
 20
52.22547953678377
 10
1738.9845901186561
 20
45.28818674074741
 10
1736.4885313313641
 20
39.782441694826474
 10
1736.4885313313641
 20
34.3093381108098
 10
1729.6299606543516
 20
16.4302414415457
 10
1727.1430172299736
 20
16.4302414415457
 10
1724.6712030037013
 20
10.97797445167234
 10
1718.449052355589
 20
8.233041096718491
 10
1710.9840664529722
 20
0.0
 10
1674.2677694028046
 20
1.3726763467577507
 10
1670.485224003727
 20
6.934973382915016
 10
1692.2886040504525
 20
60.52471641784504
  0
LWPOLYLINE
  5
33
330
17
100
AcDbEntity
  8
Y
100
AcDbPolyline
 90
40
 70
1
 10
1679.84355368426
 20
512.0254795367838
 10
1678.6022236512697
 20
514.763574774879
 10
1673.636903519308
 20
514.763574774879
 10
1672.3955734863173
 20
517.5016700129742
 10
1659.982273156413
 20
517.5016700129742
 10
1658.7409431234223
 20
520.2397652510696
 10
1653.7756229914608
 20
520.2397652510696
 10
1650.6269623773449
 20
527.1850033463076
 10
1652.5283414859666
 20
531.3790185918657
 10
1664.9416418158712
 20
534.1171138299609
 10
1666.1848413295222
 20
536.8593327224899
 10
1684.804791824379
 20
539.597427960585
 10
1687.8766600447361
 20
546.373279283503
 10
1687.8766600447361
 20
565.5399459501698
 10
1689.774193948184
 20
569.7254795367837
 10
1693.6069602096265
 20
569.7254795367837
 10
1698.5722803415883
 20
564.2492890605932
 10
1703.5376004735504
 20
564.2492890605932
 10
1708.502920605512
 20
558.7730985844028
 10
1712.2470568340882
 20
558.7730985844028
 10
1713.4992327067873
 20
556.0110798599904
 10
1725.9125330366917
 20
550.5348893838
 10
1729.0405511334213
 20
543.6351840454076
 10
1729.0405511334213
 20
538.1589935692173
 10
1731.523211199402
 20
532.6828030930268
 10
1731.523211199402
 20
524.468517378741
 10
1732.7645412323927
 20
521.7304221406458
 10
1732.7645412323927
 20
516.2035666877746
 10
1728.3748579550283
 20
509.2873842986885
 10
1724.5314348719164
 20
509.2873842986885
 10
1723.3545659849642
 20
511.88329272721825
 10
1722.1776970980118
 20
509.2873842986885
 10
1704.7990766361454
 20
509.2873842986885
 10
1703.5577466031548
 20
506.54928906059325
 10
1699.7048342121075
 20
506.54928906059325
 10
1698.4635041791169
 20
509.2873842986885
 10
1696.109766405212
 20
509.2873842986885
 10
1694.8392163078695
 20
506.48483616174025
 10
1688.5595159820368
 20
512.0254795367838
 10
1679.84355368426
 20
512.0254795367838
  0
LWPOLYLINE
  5
34
330
17
100
AcDbEntity
  8
Y
100
AcDbPolyline
 90
59
 70
1
 10
1666.179590916334
 20
369.6651123451815
 10
1660.5624424548703
 20
382.0552801855235
 10
1663.045102520851
 20
393.0076611379044
 10
1661.2154234514487
 20
397.04352220146365
 10
1652.5261132205155
 20
399.7816174395589
 10
1651.2929629254795
 20
402.5016700129742
 10
1646.3331887148795
 20
402.5016700129742
 10
1639.4721505065859
 20
414.88395938479863
 10
1636.9821286921274
 20
423.1226026445172
 10
1636.9821286921274
 20
431.3300607424454
 10
1635.7310019814593
 20
434.0897652510695
 10
1637.7027937086225
 20
438.4390949177779
 10
1639.0085848876513
 20
435.5588128701171
 10
1641.362322661556
 20
435.5588128701171
 10
1643.909443873575
 20
441.17719015587306
 10
1645.1507739065653
 20
438.4390949177779
 10
1646.327642793518
 20
441.0350033463075
 10
1648.8103028594987
 20
441.0350033463075
 10
1653.1194191210034
 20
450.5399459501698
 10
1653.1194191210034
 20
477.87141383808864
 10
1648.1412795273295
 20
486.10690719224567
 10
1650.0516328924894
 20
490.3207176320218
 10
1652.5342929584701
 20
490.3207176320218
 10
1653.7936641670087
 20
493.09860765115474
 10
1658.7589842989707
 20
490.36051241305944
 10
1659.982273156413
 20
493.0588128701171
 10
1677.3608936182793
 20
493.0588128701171
 10
1678.6022236512697
 20
495.79690810821234
 10
1682.4551360423172
 20
495.79690810821234
 10
1683.6320049292697
 20
493.2009996796827
 10
1684.8088738162219
 20
495.79690810821234
 10
1692.3857763062408
 20
495.79690810821234
 10
1694.2882670737645
 20
491.60044079280595
 10
1691.8061147901624
 20
480.65029994817456
 10
1704.2124247330319
 20
456.0213201066391
 10
1705.4566884091412
 20
436.8093567354072
 10
1703.493285457117
 20
432.47853082245626
 10
1702.1874942780883
 20
435.3588128701171
 10
1686.0502038492125
 20
435.3588128701171
 10
1684.8088738162219
 20
438.09690810821235
 10
1681.2138060093266
 20
438.09690810821235
 10
1679.387349813803
 20
434.0681559805406
 10
1679.387349813803
 20
428.63114891185063
 10
1684.3500635755804
 20
414.9478590553879
 10
1685.598463485533
 20
406.6867896592543
 10
1681.204316701391
 20
399.76357477487903
 10
1675.0071558443744
 20
399.76357477487903
 10
1673.1940983701618
 20
395.7643772169378
 10
1677.488228538286
 20
388.9987438970195
 10
1688.6683343986706
 20
386.2586547449587
 10
1689.9031162402598
 20
383.5350033463075
 10
1693.6271063392312
 20
383.5350033463075
 10
1695.5271117662182
 20
379.3440181338936
 10
1694.2816540490946
 20
368.355218205192
 10
1691.7944594713597
 20
360.1259293192542
 10
1689.8913647735567
 20
355.9281298693008
 10
1682.3368988381608
 20
358.70537237724596
 10
1673.6475886072278
 20
366.9196580915317
 10
1666.179590916334
 20
369.6651123451815
  0
LWPOLYLINE
  5
35
330
17
100
AcDbEntity
  8
Y
100
AcDbPolyline
 90
5
 70
1
 10
1666.238687064757
 20
484.534759515325
 10
1662.0221280732476
 20
477.8913437613916
 10
1663.7854218040684
 20
474.00191384395686
 10
1668.0019807955778
 20
480.64532959789017
 10
1666.238687064757
 20
484.534759515325
  0
LWPOLYLINE
  5
36
330
17
100
AcDbEntity
  8
Y
100
AcDbPolyline
 90
5
 70
1
 10
1647.6334339725463
 20
531.534333013016
 10
1649.6052256997098
 20
527.1850033463076
 10
1647.6334339725463
 20
522.8356736795992
 10
1645.6616422453828
 20
527.1850033463076
 10
1647.6334339725463
 20
531.534333013016
  0
LWPOLYLINE
  5
37
330
17
100
AcDbEntity
  8
Y
100
AcDbPolyline
 90
24
 70
1
 10
2663.7129398459033
 20
813.2159557272599
 10
2656.5642650034006
 20
818.6921462034503
 10
2637.951015125595
 20
818.6921462034503
 10
2636.5212801570947
 20
821.4302414415456
 10
2630.8023402830922
 20
821.4302414415456
 10
2629.372605314592
 20
824.1683366796408
 10
2620.7941955035885
 20
824.1683366796408
 10
2618.6101886693223
 20
828.3509431379158
 10
2618.6101886693223
 20
921.4952540308896
 10
2620.7941955035885
 20
925.6778604891646
 10
2630.9235315200613
 20
925.6778604891646
 10
2632.3532664885615
 20
922.9397652510695
 10
2653.7992910160697
 20
922.9397652510695
 10
2655.2290259845704
 20
920.2016700129742
 10
2662.270344222814
 20
920.2016700129742
 10
2673.708223970818
 20
933.8921462034502
 10
2690.9724001970835
 20
933.8921462034502
 10
2692.4021351655842
 20
931.1540509653552
 10
2700.9805449765868
 20
931.1540509653552
 10
2703.1645518108535
 20
926.9714445070802
 10
2703.1645518108535
 20
817.38732257053
 10
2695.2257310587975
 20
807.7122470919253
 10
2685.1672947998472
 20
813.2159557272599
 10
2663.7129398459033
 20
813.2159557272599
  0
LWPOLYLINE
  5
38
330
17
100
AcDbEntity
  8
Y
100
AcDbPolyline
 90
42
 70
1
 10
2601.4547813656673
 20
831.0863336354565
 10
2600.0250463971665
 20
855.7291907783136
 10
2596.4796963597882
 20
862.5189149360067
 10
2588.0206013449724
 20
865.2189267434344
 10
2586.601747496545
 20
862.5016700129743
 10
2556.577313158034
 20
862.5016700129743
 10
2555.1475781895333
 20
859.763574774879
 10
2547.8777121100616
 20
859.763574774879
 10
2546.4479771415613
 20
862.5016700129743
 10
2542.1587722360596
 20
862.5016700129743
 10
2539.9747654017933
 20
866.6842764712494
 10
2539.9747654017933
 20
872.2095397451753
 10
2542.8342353387943
 20
877.6857302213657
 10
2542.8342353387943
 20
885.8509431379159
 10
2540.729037267559
 20
889.8826223939266
 10
2536.4398323620576
 20
889.8826223939266
 10
2533.5767202788797
 20
895.365787969225
 10
2510.726124715355
 20
898.1008712310966
 10
2503.5826233738444
 20
903.5730985844027
 10
2499.2667231810437
 20
903.5730985844027
 10
2497.0762109970265
 20
907.7681634825764
 10
2498.519288664611
 20
913.2954593477089
 10
2509.9503310632826
 20
932.4506685416246
 10
2509.9503310632826
 20
935.1857302213658
 10
2515.027392038682
 20
944.9088444953638
 10
2517.9481597638883
 20
942.1120533500942
 10
2537.98626499519
 20
944.8531328270141
 10
2539.4204935360276
 20
942.106431917736
 10
2542.154858945743
 20
942.106431917736
 10
2551.4185947493315
 20
962.5768672267095
 10
2555.011869024214
 20
974.9635747748789
 10
2606.6528070950176
 20
974.9635747748789
 10
2607.371151583214
 20
959.8308037903588
 10
2610.2317788583196
 20
954.3523968880324
 10
2610.2317788583196
 20
940.6619206975563
 10
2613.09124879532
 20
935.1857302213658
 10
2613.09124879532
 20
926.9714445070802
 10
2614.520983763821
 20
924.2333492689849
 10
2614.520983763821
 20
828.3509431379158
 10
2612.326095809481
 20
824.1474981720057
 10
2603.6283712022905
 20
826.9236768407685
 10
2601.4547813656673
 20
831.0863336354565
  0
LWPOLYLINE
  5
39
330
17
100
AcDbEntity
  8
Y
100
AcDbPolyline
 90
28
 70
1
 10
2414.158088173747
 20
231.49525403088978
 10
2417.0175581107483
 20
236.97144450708018
 10
2417.0175581107483
 20
250.66192069755644
 10
2419.8770280477493
 20
256.13811117374684
 10
2419.8770280477493
 20
261.62021963974405
 10
2426.3575251172238
 20
271.27309858440276
 10
2429.2262216288445
 20
271.27309858440276
 10
2439.2343664083483
 20
282.22547953678367
 10
2443.51895702426
 20
282.22547953678367
 10
2447.808161929762
 20
287.7016700129742
 10
2453.615956801425
 20
287.7016700129742
 10
2476.491716297433
 20
265.79690810821234
 10
2480.7955738280766
 20
265.79690810821234
 10
2488.7043065357743
 20
253.40467047544823
 10
2488.7043065357743
 20
239.7095397451755
 10
2491.5637764727758
 20
234.23334926898497
 10
2491.5637764727758
 20
220.49380028077314
 10
2489.3797696385095
 20
216.31119382249807
 10
2483.660829764507
 20
216.31119382249807
 10
2482.231094796007
 20
213.57309858440277
 10
2457.9256003314977
 20
213.57309858440277
 10
2456.495865362997
 20
210.83500334630756
 10
2433.4989146300195
 20
210.83500334630756
 10
2432.1027638656515
 20
213.50878124487028
 10
2429.301248029485
 20
210.82618015464826
 10
2422.7742515675654
 20
212.2150574504943
 10
2414.158088173747
 20
225.96578542865865
 10
2414.158088173747
 20
231.49525403088978
  0
LWPOLYLINE
  5
3A
330
17
100
AcDbEntity
  8
Y
100
AcDbPolyline
 90
22
 70
1
 10
2428.4554378587522
 20
614.8240981214898
 10
2428.4554378587522
 20
620.3047778404134
 10
2438.469690641062
 20
639.48314198512
 10
2441.3309368131327
 20
650.4423262974152
 10
2452.0945089522097
 20
665.5588128701171
 10
2466.3828189055316
 20
665.5588128701171
 10
2467.8125538740323
 20
668.2969081082123
 10
2470.7932150480024
 20
668.2969081082123
 10
2472.2229500165026
 20
665.5588128701171
 10
2477.948613880118
 20
665.5588128701171
 10
2482.9853666617723
 20
653.1569160154277
 10
2482.9853666617723
 20
644.9476349832705
 10
2485.8448365987733
 20
639.47144450708
 10
2485.8448365987733
 20
633.9952540308897
 10
2491.5637764727758
 20
623.0428730785087
 10
2491.5637764727758
 20
617.5151008093776
 10
2477.9387183183308
 20
594.1683366796409
 10
2472.1017587795336
 20
594.1683366796409
 10
2470.6720238110333
 20
596.9064319177361
 10
2424.9205048190165
 20
596.9064319177361
 10
2422.726151348849
 20
601.1088532893455
 10
2428.4554378587522
 20
614.8240981214898
  0
LWPOLYLINE
  5
3B
330
17
100
AcDbEntity
  8
Y
100
AcDbPolyline
 90
140
 70
1
 10
3233.846830600915
 20
517.5016700129742
 10
3233.216292458188
 20
520.2397652510696
 10
3227.5414491736474
 20
520.2397652510696
 10
3226.91091103092
 20
522.9778604891648
 10
3221.866605889106
 20
522.9778604891648
 10
3221.236067746379
 20
525.7159557272599
 10
3217.4528388900185
 20
525.7159557272599
 10
3216.8223007472916
 20
528.4540509653551
 10
3213.0390718909307
 20
528.4540509653551
 10
3212.4085337482043
 20
531.1921462034504
 10
3208.6253048918434
 20
531.1921462034504
 10
3207.9947667491165
 20
533.9302414415456
 10
3203.580999750029
 20
533.9302414415456
 10
3202.9504616073023
 20
536.6683366796409
 10
3197.275618322761
 20
536.6683366796409
 10
3196.6450801800343
 20
539.4064319177361
 10
3193.4923894664003
 20
539.4064319177361
 10
3192.8618513236734
 20
542.1445271558314
 10
3187.1870080391327
 20
542.1445271558314
 10
3186.556469896406
 20
544.8826223939266
 10
3181.5121647545916
 20
544.8826223939266
 10
3180.8816266118642
 20
547.6207176320218
 10
3175.2067833273236
 20
547.6207176320218
 10
3174.5762451845967
 20
550.3588128701172
 10
3171.4235544709627
 20
550.3588128701172
 10
3170.793016328236
 20
553.0969081082123
 10
3167.0097874718754
 20
553.0969081082123
 10
3166.3792493291485
 20
555.8350033463075
 10
3165.118173043695
 20
555.8350033463075
 10
3164.1519547538505
 20
560.0307807610437
 10
3164.1519547538505
 20
716.1249402172856
 10
3165.118173043695
 20
720.3207176320218
 10
3167.7995034630944
 20
720.3207176320218
 10
3168.430041605821
 20
717.5826223939266
 10
3177.257575603996
 20
717.5826223939266
 10
3177.888113746723
 20
714.8445271558313
 10
3186.7156477448975
 20
714.8445271558313
 10
3187.3461858876244
 20
712.106431917736
 10
3196.1737198858
 20
712.106431917736
 10
3196.8042580285264
 20
709.3683366796408
 10
3205.6317920267015
 20
709.3683366796408
 10
3206.2623301694284
 20
706.6302414415456
 10
3215.089864167603
 20
706.6302414415456
 10
3215.72040231033
 20
703.8921462034505
 10
3224.547936308505
 20
703.8921462034505
 10
3225.181136695036
 20
701.1424902419211
 10
3242.8362046913862
 20
698.4043950038259
 10
3243.4666571405114
 20
695.6666718879328
 10
3261.7522632795885
 20
692.9285766498375
 10
3262.380224872112
 20
690.2016700129742
 10
3271.2077588702873
 20
690.2016700129742
 10
3271.838297013014
 20
687.4635747748789
 10
3280.6658310111893
 20
687.4635747748789
 10
3281.296369153916
 20
684.7254795367837
 10
3290.1239031520913
 20
684.7254795367837
 10
3290.7544412948178
 20
681.9873842986884
 10
3299.581975292993
 20
681.9873842986884
 10
3300.2125134357198
 20
679.2492890605932
 10
3309.0400474338944
 20
679.2492890605932
 10
3309.6705855766213
 20
676.5111938224981
 10
3318.498119574797
 20
676.5111938224981
 10
3319.1286577175233
 20
673.7730985844028
 10
3327.9561917156984
 20
673.7730985844028
 10
3328.5867298584253
 20
671.0350033463075
 10
3337.4142638566
 20
671.0350033463075
 10
3338.044801999327
 20
668.2969081082123
 10
3346.872335997502
 20
668.2969081082123
 10
3347.5028741402284
 20
665.5588128701171
 10
3356.330408138404
 20
665.5588128701171
 10
3356.960946281131
 20
662.8207176320218
 10
3365.7884802793055
 20
662.8207176320218
 10
3366.4190184220324
 20
660.0826223939266
 10
3375.2337630456077
 20
660.0826223939266
 10
3378.1090143066986
 20
653.146120898135
 10
3376.2127707100517
 20
644.911733141996
 10
3376.2127707100517
 20
639.4355426658055
 10
3374.951694424598
 20
633.9593521896151
 10
3374.951694424598
 20
623.0038436924578
 10
3372.1081142287094
 20
613.3997099707384
 10
3370.8172362079304
 20
610.5969081082123
 10
3365.7884802793055
 20
610.5969081082123
 10
3365.078353212333
 20
607.5132000677879
 10
3364.36822614536
 20
610.5969081082123
 10
3362.6357895656715
 20
610.5969081082123
 10
3362.005251422945
 20
607.8588128701172
 10
3359.323921003546
 20
607.8588128701172
 10
3358.772971785065
 20
610.2512953058832
 10
3358.222022566584
 20
607.8588128701172
 10
3353.17771742477
 20
607.8588128701172
 10
3352.547179282043
 20
605.1207176320218
 10
3351.142474361287
 20
605.1207176320218
 10
3349.9771504993687
 20
607.650911684486
 10
3349.102247846606
 20
603.8516700129743
 10
3350.99124500098
 20
595.6487497410951
 10
3350.99124500098
 20
587.4073771627853
 10
3348.7656641928506
 20
580.5041443754691
 10
3342.453835903176
 20
577.7632496043936
 10
3339.9208672143177
 20
572.263574774879
 10
3338.5161622935616
 20
572.263574774879
 10
3337.885624150835
 20
575.0016700129742
 10
3334.1023952944743
 20
575.0016700129742
 10
3333.4718571517474
 20
577.7397652510695
 10
3329.688628295387
 20
577.7397652510695
 10
3329.05809015266
 20
580.4778604891648
 10
3325.274861296299
 20
580.4778604891648
 10
3324.6443231535727
 20
583.2159557272599
 10
3320.2305561544845
 20
583.2159557272599
 10
3319.600018011758
 20
585.9540509653551
 10
3314.555712869944
 20
585.9540509653551
 10
3313.925174727217
 20
588.6921462034504
 10
3308.8808695854027
 20
588.6921462034504
 10
3308.2453748133294
 20
591.4517654736235
 10
3299.57565918186
 20
594.1409091337977
 10
3298.958527799968
 20
591.4610324006768
 10
3293.2836845154266
 20
588.7229371625816
 10
3292.3538150011955
 20
584.6850033463076
 10
3293.612274012842
 20
579.2201783125237
 10
3293.612274012842
 20
573.7439878363333
 10
3295.503888441023
 20
565.5297021220475
 10
3295.503888441023
 20
557.3154164077619
 10
3296.137043857556
 20
554.56595572726
 10
3295.1487163480683
 20
550.2741696099216
 10
3291.9960256344343
 20
553.0122648480168
 10
3291.3849794375446
 20
550.3588128701172
 10
3286.3406742957304
 20
550.3588128701172
 10
3285.7101361530035
 20
547.6207176320218
 10
3283.674893089521
 20
547.6207176320218
 10
3282.494327721225
 20
550.1840046040138
 10
3280.3709730155797
 20
543.5978533532615
 10
3280.3709730155797
 20
521.6974474277104
 10
3279.4047547257355
 20
517.5016700129742
 10
3260.9599707381667
 20
517.5016700129742
 10
3260.32943259544
 20
520.2397652510696
 10
3259.2275341584786
 20
520.2397652510696
 10
3258.5969960157513
 20
517.5016700129742
 10
3253.3935130254454
 20
517.5016700129742
 10
3252.7629748827185
 20
520.2397652510696
 10
3251.6610764457573
 20
520.2397652510696
 10
3251.0305383030304
 20
517.5016700129742
 10
3233.846830600915
 20
517.5016700129742
  0
LWPOLYLINE
  5
3C
330
17
100
AcDbEntity
  8
Y
100
AcDbPolyline
 90
85
 70
1
 10
3264.7407034225766
 20
271.0839381451977
 10
3264.1126614518007
 20
273.81119382249807
 10
3245.827055312724
 20
273.81119382249807
 10
3245.196517169997
 20
276.5492890605933
 10
3226.91091103092
 20
276.5492890605933
 10
3226.3173356533384
 20
279.1268744668928
 10
3221.3715978852433
 20
271.07309858440277
 10
3219.9749914609256
 20
271.07309858440277
 10
3219.3444533181987
 20
273.81119382249807
 10
3209.8863811772967
 20
273.81119382249807
 10
3209.25584303457
 20
276.5492890605933
 10
3205.4962618878367
 20
276.5492890605933
 10
3200.4519567460225
 20
284.76357477487903
 10
3197.291167535951
 20
284.76357477487903
 10
3194.7597144560577
 20
290.25995885843514
 10
3187.196609174597
 20
292.9968409428434
 10
3182.78284217551
 20
301.211126657129
 10
3175.2011422584037
 20
303.9547376344023
 10
3174.5762451845967
 20
306.6683366796409
 10
3173.3076247971767
 20
306.6683366796409
 10
3172.347375359154
 20
313.618099735117
 10
3173.3151688991434
 20
317.8207176320218
 10
3176.467859612777
 20
317.8207176320218
 10
3177.0983977555043
 20
320.558812870117
 10
3180.8816266118642
 20
320.558812870117
 10
3181.5121647545916
 20
323.29690810821234
 10
3184.664855468225
 20
323.29690810821234
 10
3185.2953936109525
 20
326.0350033463075
 10
3190.970236895493
 20
326.0350033463075
 10
3191.60077503822
 20
328.77309858440276
 10
3194.122927609127
 20
328.77309858440276
 10
3195.048323747463
 20
332.7916068839523
 10
3195.048323747463
 20
338.26779736014277
 10
3197.906156465488
 20
350.67786048916474
 10
3211.3066353112426
 20
350.67786048916474
 10
3211.93131266438
 20
347.9652155751317
 10
3221.3893848052817
 20
350.70331081322695
 10
3222.025783737598
 20
347.9397652510695
 10
3238.2565061161185
 20
347.9397652510695
 10
3240.445029833996
 20
360.1586878504185
 10
3239.5216738854556
 20
364.1683366796409
 10
3237.7892373057675
 20
364.1683366796409
 10
3237.1586991630406
 20
361.43024144154566
 10
3231.9552161727347
 20
361.43024144154566
 10
3231.3246780300074
 20
364.1683366796409
 10
3229.5922414503193
 20
364.1683366796409
 10
3228.9617033075924
 20
361.43024144154566
 10
3225.6696346131143
 20
361.43024144154566
 10
3221.255867614027
 20
369.6445271558314
 10
3219.983325055149
 20
369.6445271558314
 10
3218.0917106269685
 20
375.1207176320218
 10
3216.1917626045647
 20
375.1207176320218
 10
3214.9187719131633
 20
380.6486461014914
 10
3209.877534946357
 20
386.12150571043946
 10
3207.655447968322
 20
393.01390145136685
 10
3208.62727570099
 20
397.2340377234719
 10
3235.268900175231
 20
394.47950079680874
 10
3235.8976228775873
 20
391.74928906059324
 10
3240.9419280194015
 20
391.74928906059324
 10
3241.5724661621284
 20
389.01119382249806
 10
3246.616771303943
 20
389.01119382249806
 10
3247.2490088815393
 20
386.2657188333464
 10
3275.623225304245
 20
383.52762359525104
 10
3282.26258744376
 20
354.69636878871427
 10
3282.26258744376
 20
349.22017831252373
 10
3282.8957428602935
 20
346.4707176320219
 10
3281.9296610907886
 20
342.2755330532549
 10
3264.9051312371653
 20
339.53743781515965
 10
3264.2754633928093
 20
336.8031218247637
 10
3251.664700538274
 20
334.06502658666847
 10
3249.4746040219675
 20
324.55459028485325
 10
3249.4746040219675
 20
308.1487497410952
 10
3250.400000160303
 20
304.13024144154565
 10
3255.4443053021178
 20
304.13024144154565
 10
3256.0748434448446
 20
301.39214620345035
 10
3262.380224872112
 20
301.39214620345035
 10
3263.010763014839
 20
298.6540509653551
 10
3269.316144442107
 20
298.6540509653551
 10
3269.950664765984
 20
295.89866321074663
 10
3281.300351335067
 20
293.16056797265145
 10
3284.1542018719406
 20
280.76779736014277
 10
3284.1542018719406
 20
275.2916068839523
 10
3284.7873572884737
 20
272.5421462034504
 10
3283.8157220841163
 20
268.3228459804493
 10
3264.7407034225766
 20
271.0839381451977
  0
LWPOLYLINE
  5
3D
330
17
100
AcDbEntity
  8
Y
100
AcDbPolyline
 90
90
 70
1
 10
5055.441417953915
 20
509.2873842986885
 10
5052.431773311131
 20
509.2873842986885
 10
5051.428558430203
 20
512.0254795367838
 10
5048.418913787419
 20
512.0254795367838
 10
5047.41569890649
 20
514.763574774879
 10
5044.425219615029
 20
514.763574774879
 10
5040.412360091316
 20
520.2397652510696
 10
5038.3867649781405
 20
520.2397652510696
 10
5033.843768462962
 20
532.6390601193679
 10
5032.840553582034
 20
543.5914410717488
 10
5030.3610459307165
 20
550.3588128701172
 10
5021.332112002366
 20
550.3588128701172
 10
5020.328897121438
 20
553.0969081082123
 10
5016.316037597726
 20
553.0969081082123
 10
5015.312822716797
 20
555.8350033463075
 10
5008.290318550301
 20
555.8350033463075
 10
5007.287103669373
 20
558.5730985844027
 10
5001.267814383805
 20
558.5730985844027
 10
5000.264599502877
 20
561.311193822498
 10
4991.235665574527
 20
561.311193822498
 10
4990.272636697174
 20
563.939608565295
 10
4988.346578942473
 20
561.311193822498
 10
4978.193872122462
 20
561.311193822498
 10
4977.182147910453
 20
564.0725137548807
 10
4970.159643743958
 20
566.8106089929759
 10
4964.624114510581
 20
581.9188440504793
 10
4961.614469867797
 20
595.6093202409555
 10
4952.150471221913
 20
621.439608565295
 10
4950.224413467209
 20
618.811193822498
 10
4944.2051241816425
 20
618.811193822498
 10
4940.111892650778
 20
613.2253228510093
 10
4939.138353447298
 20
615.8824236454863
 10
4938.205000247397
 20
613.3350033463075
 10
4934.192140723685
 20
613.3350033463075
 10
4933.188925842756
 20
610.5969081082123
 10
4928.172851438117
 20
610.5969081082123
 10
4927.169636557189
 20
607.8588128701172
 10
4921.029789260892
 20
607.8588128701172
 10
4917.01692973718
 20
613.3350033463075
 10
4914.007285094396
 20
613.3350033463075
 10
4909.994425570684
 20
618.811193822498
 10
4907.9688304575075
 20
618.811193822498
 10
4906.955978385666
 20
621.5755920461746
 10
4900.936689100097
 20
624.3136872842698
 10
4899.404864817447
 20
628.4945271558313
 10
4901.418514831114
 20
633.9904240154492
 10
4902.421577186544
 20
658.629534539191
 10
4905.956778315223
 20
671.0350033463075
 10
4914.127843105126
 20
671.0350033463075
 10
4915.131057986054
 20
668.2969081082123
 10
4923.156777033476
 20
668.2969081082123
 10
4924.1634761328805
 20
665.5493033201707
 10
4943.224558870512
 20
662.8112080820754
 10
4944.224289532963
 20
660.0826223939266
 10
4952.250008580388
 20
660.0826223939266
 10
4953.253223461315
 20
657.3445271558313
 10
4962.282157389667
 20
657.3445271558313
 10
4963.285372270596
 20
654.606431917736
 10
4971.311091318018
 20
654.606431917736
 10
4972.314306198946
 20
651.8683366796408
 10
4981.3432401272985
 20
651.8683366796408
 10
4982.346455008226
 20
649.1302414415456
 10
4990.372174055648
 20
649.1302414415456
 10
4991.378873155053
 20
646.382636653504
 10
5010.439955892684
 20
643.6445414154088
 10
5011.44335263263
 20
640.905949825713
 10
5029.501220489333
 20
638.1678545876179
 10
5030.500769292767
 20
635.4397652510694
 10
5038.526488340191
 20
635.4397652510694
 10
5039.529703221118
 20
632.7016700129742
 10
5048.558637149471
 20
632.7016700129742
 10
5049.561852030399
 20
629.963574774879
 10
5057.587571077821
 20
629.963574774879
 10
5058.59078595875
 20
627.2254795367837
 10
5067.619719887101
 20
627.2254795367837
 10
5068.622934768029
 20
624.4873842986884
 10
5071.632579410813
 20
624.4873842986884
 10
5075.173160919388
 20
614.8240015548555
 10
5076.176635254649
 20
592.9135745772178
 10
5080.192984173145
 20
576.4707176320219
 10
5078.183614455819
 20
568.2443957953311
 10
5078.183614455819
 20
554.5568715282351
 10
5077.184117742794
 20
549.1009771980065
 10
5085.21426495418
 20
529.9237353863431
 10
5074.639754920694
 20
503.81119382249807
 10
5069.486426286906
 20
503.81119382249807
 10
5068.5233974095545
 20
506.43960856529503
 10
5066.586656681514
 20
503.79661519184725
 10
5056.438359482543
 20
506.5664110514917
 10
5055.441417953915
 20
509.2873842986885
  0
LWPOLYLINE
  5
3E
330
17
100
AcDbEntity
  8
Y
100
AcDbPolyline
 90
20
 70
1
 10
4903.411696652325
 20
540.8797005586491
 10
4912.071066274009
 20
556.1724166494939
 10
4913.078523627169
 20
553.4227423437068
 10
4925.117102198304
 20
572.5894090103735
 10
4926.096559995235
 20
569.9161544757002
 10
4927.029913195138
 20
572.463574774879
 10
4932.159861767598
 20
572.463574774879
 10
4937.175936172238
 20
566.9873842986884
 10
4945.211481511432
 20
566.9873842986884
 10
4949.772109697042
 20
560.0721524358607
 10
4949.772109697042
 20
540.8577366775393
 10
4947.233934175747
 20
533.9302414415456
 10
4932.185710961829
 20
533.9302414415456
 10
4931.182496080901
 20
531.1921462034504
 10
4921.15034727162
 20
531.1921462034504
 10
4920.106946387117
 20
528.3443704700569
 10
4918.100516625261
 20
531.0824657081522
 10
4917.129018635553
 20
528.4309360408704
 10
4907.967158984784
 20
531.209342049923
 10
4903.411696652325
 20
540.8797005586491
  0
LWPOLYLINE
  5
3F
330
17
100
AcDbEntity
  8
Y
100
AcDbPolyline
 90
41
 70
1
 10
5743.073266618366
 20
714.6445271558314
 10
5737.924188048373
 20
714.6445271558314
 10
5735.337067339916
 20
720.1505817467578
 10
5721.607420962037
 20
728.3687627734065
 10
5720.760299783739
 20
731.0730985844027
 10
5719.044907446033
 20
731.0730985844027
 10
5717.329515108327
 20
736.5492890605932
 10
5711.325641926353
 20
736.5492890605932
 10
5709.150076948486
 20
743.4945271558313
 10
5711.325641926353
 20
750.4397652510694
 10
5713.187967859819
 20
750.4397652510694
 10
5714.045664028673
 20
747.7016700129742
 10
5720.049537210645
 20
747.7016700129742
 10
5720.9149835404105
 20
744.9388332877952
 10
5727.776552891237
 20
742.2007380497
 10
5728.62649889918
 20
739.4873842986884
 10
5734.630372081155
 20
739.4873842986884
 10
5736.345764418861
 20
734.0111938224981
 10
5742.349637600835
 20
734.0111938224981
 10
5743.207333769689
 20
731.2730985844028
 10
5746.638118445102
 20
731.2730985844028
 10
5747.495814613956
 20
728.5350033463075
 10
5750.92659928937
 20
728.5350033463075
 10
5751.784295458222
 20
725.7969081082123
 10
5757.788168640197
 20
725.7969081082123
 10
5759.503560977902
 20
720.3207176320218
 10
5765.489322111348
 20
720.3207176320218
 10
5768.9285628911975
 20
714.8310295910002
 10
5779.2360630952335
 20
712.0889049853581
 10
5780.546541375839
 20
707.9053555303643
 10
5779.181403607351
 20
700.6419496783816
 10
5778.225943096919
 20
703.6921462034504
 10
5776.657484354972
 20
703.6921462034504
 10
5775.799788186118
 20
700.9540509653551
 10
5773.079766083798
 20
700.9540509653551
 10
5772.256975592404
 20
703.5807138889498
 10
5768.055758941786
 20
698.2159557272599
 10
5765.507434159877
 20
698.2159557272599
 10
5764.6326265935795
 20
695.4232343434933
 10
5747.346048079308
 20
706.4603125144639
 10
5743.073266618366
 20
714.6445271558314
  0
LWPOLYLINE
  5
40
330
17
100
AcDbEntity
  8
Y
100
AcDbPolyline
 90
5
 70
1
 10
5774.868625219386
 20
865.674299456465
 10
5776.259960826277
 20
861.2326223939265
 10
5774.868625219386
 20
856.7909453313881
 10
5773.477289612494
 20
861.2326223939265
 10
5774.868625219386
 20
865.674299456465
  0
LWPOLYLINE
  5
41
330
17
100
AcDbEntity
  8
Y
100
AcDbPolyline
 90
228
 70
1
 10
5713.915858229821
 20
783.1066588326067
 10
5701.028791945586
 20
785.849356158091
 10
5699.713584890091
 20
790.0480016767827
 10
5702.80650542778
 20
797.1007081042602
 10
5704.592894122756
 20
794.2492890605932
 10
5713.059146312588
 20
794.2492890605932
 10
5714.860419681782
 20
797.1244668996707
 10
5715.761056366378
 20
794.2492890605932
 10
5717.329515108327
 20
794.2492890605932
 10
5718.187211277179
 20
796.9873842986884
 10
5720.907233379499
 20
796.9873842986884
 10
5721.764929548353
 20
794.2492890605932
 10
5723.3333882903
 20
794.2492890605932
 10
5724.58612891275
 20
798.2485177588885
 10
5717.3213651251945
 20
813.2550498540477
 10
5711.317047055413
 20
818.7316461166862
 10
5706.1894298007965
 20
829.6445271558314
 10
5704.464072575524
 20
829.6445271558314
 10
5701.882360664461
 20
837.8863420857799
 10
5695.881504832824
 20
840.623061246743
 10
5690.745158645051
 20
854.2873842986886
 10
5688.185957415838
 20
854.2873842986886
 10
5684.755172740425
 20
859.763574774879
 10
5680.458544735194
 20
859.763574774879
 10
5677.885456228633
 20
865.2397652510693
 10
5672.7293143279485
 20
865.2397652510693
 10
5671.862994754592
 20
868.0053897048275
 10
5665.859121572618
 20
870.7434849429229
 10
5665.010048808268
 20
873.4540509653551
 10
5659.006175626294
 20
873.4540509653551
 10
5658.14847945744
 20
876.1921462034504
 10
5656.580020715493
 20
876.1921462034504
 10
5655.722324546639
 20
873.4540509653551
 10
5653.859998613173
 20
873.4540509653551
 10
5653.0757692422
 20
875.9576119980549
 10
5652.291539871225
 20
873.4540509653551
 10
5644.572274351544
 20
873.4540509653551
 10
5643.641111384812
 20
870.4814215218645
 10
5642.709948418078
 20
873.4540509653551
 10
5641.141489676132
 20
873.4540509653551
 10
5640.283793507278
 20
870.71595572726
 10
5637.563771404958
 20
870.71595572726
 10
5636.779542033984
 20
873.2195167599596
 10
5635.995312663012
 20
870.71595572726
 10
5632.417594391837
 20
870.71595572726
 10
5631.559898222983
 20
873.4540509653551
 10
5629.997201905697
 20
873.4540509653551
 10
5627.424113399136
 20
862.5016700129743
 10
5625.702958636771
 20
862.5016700129743
 10
5624.44294758561
 20
858.4792313168326
 10
5624.44294758561
 20
836.5744694120706
 10
5623.138493534712
 20
832.4101516095895
 10
5617.134620352738
 20
829.6720563714943
 10
5616.268300779382
 20
826.9064319177361
 10
5613.548278677062
 20
826.9064319177361
 10
5612.764049306088
 20
829.4099929504358
 10
5611.970752239444
 20
826.8774843542043
 10
5604.251486719762
 20
829.6155795922996
 10
5603.402858246581
 20
826.9064319177361
 10
5601.540532313114
 20
826.9064319177361
 10
5600.68283614426
 20
829.6445271558314
 10
5596.5412888957535
 20
829.6445271558314
 10
5595.610125929021
 20
826.6718977123405
 10
5594.678962962288
 20
829.6445271558314
 10
5592.252808051486
 20
829.6445271558314
 10
5591.3951118826335
 20
826.9064319177361
 10
5588.675089780313
 20
826.9064319177361
 10
5587.817393611459
 20
829.6445271558314
 10
5583.675846362952
 20
829.6445271558314
 10
5582.744683396219
 20
826.6718977123405
 10
5581.813520429487
 20
829.6445271558314
 10
5575.809647247512
 20
829.6445271558314
 10
5575.025417876539
 20
832.1480881885311
 10
5574.232120809892
 20
829.6155795922996
 10
5566.5128552902115
 20
832.3536748303949
 10
5565.664226817031
 20
829.6445271558314
 10
5563.801900883563
 20
829.6445271558314
 10
5562.944204714711
 20
832.3826223939267
 10
5557.79802770159
 20
832.3826223939267
 10
5556.082635363882
 20
837.858812870117
 10
5553.509546857322
 20
837.858812870117
 10
5552.64481860859
 20
840.6193572051465
 10
5544.9397987628845
 20
843.3523993702546
 10
5539.804520204197
 20
851.5492890605932
 10
5534.658343191076
 20
851.5492890605932
 10
5531.227558515663
 20
857.0254795367837
 10
5527.77866179172
 20
857.0254795367837
 10
5526.912342218363
 20
859.7911039905418
 10
5520.908469036391
 20
862.5291992286371
 10
5518.746318816639
 20
869.4316122692135
 10
5518.746318816639
 20
907.7955372805443
 10
5520.059396272039
 20
911.9873842986884
 10
5522.632484778599
 20
911.9873842986884
 10
5523.490180947453
 20
914.7254795367837
 10
5525.3525068809195
 20
914.7254795367837
 10
5526.210203049774
 20
911.9873842986884
 10
5537.3602532448685
 20
911.9873842986884
 10
5538.217949413721
 20
909.2492890605931
 10
5539.786408155669
 20
909.2492890605931
 10
5540.644104324521
 20
911.9873842986884
 10
5543.364126426841
 20
911.9873842986884
 10
5544.1483557978145
 20
909.4838232659887
 10
5544.932585168789
 20
911.9873842986884
 10
5549.367999608816
 20
911.9873842986884
 10
5550.22569577767
 20
909.2492890605931
 10
5552.6518506884695
 20
909.2492890605931
 10
5553.909451885978
 20
913.2640345793059
 10
5553.054165570776
 20
918.7248387006389
 10
5553.054165570776
 20
932.4042185971132
 10
5548.76568472651
 20
943.3565995494943
 10
5548.76568472651
 20
954.3089805018751
 10
5544.471256423491
 20
965.2765507103841
 10
5545.863748135522
 20
969.7219185040841
 10
5546.77779970481
 20
966.8039152062645
 10
5551.041120944809
 20
969.5259466224289
 10
5552.694791204212
 20
966.8863716615754
 10
5553.509546857322
 20
969.4873842986885
 10
5561.228812377003
 20
969.4873842986885
 10
5562.159975343738
 20
972.4600137421792
 10
5563.09113831047
 20
969.4873842986885
 10
5565.5354052698
 20
969.4873842986885
 10
5567.294563663204
 20
972.2953385574041
 10
5574.214487754958
 20
964.011193822498
 10
5579.362601794033
 20
964.011193822498
 10
5583.651082638299
 20
958.5350033463075
 10
5586.248934869513
 20
958.5350033463075
 10
5587.106631038365
 20
955.7969081082122
 10
5592.226107300881
 20
955.7969081082122
 10
5599.087676651708
 20
947.5826223939264
 10
5604.235790690781
 20
947.5826223939264
 10
5608.52427153505
 20
942.106431917736
 10
5611.122123766261
 20
942.106431917736
 10
5611.979819935115
 20
939.368336679641
 10
5617.09929619763
 20
939.368336679641
 10
5623.960865548456
 20
931.1540509653552
 10
5629.115631263655
 20
931.1540509653552
 10
5632.546415939068
 20
925.6778604891646
 10
5635.995312663012
 20
925.6778604891646
 10
5636.853008831864
 20
922.9397652510695
 10
5641.98922095742
 20
922.9397652510695
 10
5644.5623094639805
 20
917.4635747748788
 10
5648.860755195812
 20
917.4635747748788
 10
5649.7013399672205
 20
914.7801056824551
 10
5653.964661207221
 20
917.5021370986193
 10
5655.618331466623
 20
914.8625621377658
 10
5657.319963139621
 20
920.2948232927342
 10
5659.8930516461805
 20
917.5567280546389
 10
5660.721567964
 20
920.2016700129742
 10
5667.5831373148285
 20
920.2016700129742
 10
5668.514300281561
 20
923.1742994564651
 10
5669.445463248295
 20
920.2016700129742
 10
5671.871618159095
 20
920.2016700129742
 10
5672.7293143279485
 20
922.9397652510695
 10
5674.444706665655
 20
922.9397652510695
 10
5675.704717716815
 20
926.962203947211
 10
5675.704717716815
 20
943.3554355033701
 10
5672.2739330414015
 20
951.5697212176556
 10
5672.2739330414015
 20
954.352393216343
 10
5674.541365079669
 20
958.6955010152162
 10
5675.449336430269
 20
955.7969081082122
 10
5685.74169045651
 20
955.7969081082122
 10
5686.55644610962
 20
953.1958954710992
 10
5688.185957415838
 20
955.7969081082122
 10
5690.030171300777
 20
955.7969081082122
 10
5690.814400671749
 20
953.2933470755127
 10
5691.598630042723
 20
955.7969081082122
 10
5695.176348313897
 20
955.7969081082122
 10
5696.034044482751
 20
953.0588128701171
 10
5698.478311442081
 20
953.0588128701171
 10
5700.279584811274
 20
955.9339907091943
 10
5701.180221495872
 20
953.0588128701171
 10
5705.4687023401375
 20
953.0588128701171
 10
5706.252931711111
 20
950.5552518374172
 10
5707.037161082084
 20
953.0588128701171
 10
5715.742944317849
 20
953.0588128701171
 10
5717.3724556240695
 20
950.4578002330038
 10
5718.187211277179
 20
953.0588128701171
 10
5720.880532628893
 20
953.0588128701171
 10
5727.742101979722
 20
944.8445271558313
 10
5732.057283574594
 20
944.8445271558313
 10
5733.772675912301
 20
939.368336679641
 10
5738.918852925421
 20
939.368336679641
 10
5740.6445892826
 20
933.859124124672
 10
5750.067040237181
 20
928.3900189425007
 10
5753.481575747401
 20
922.9397652510695
 10
5757.778203752632
 20
922.9397652510695
 10
5760.351292259193
 20
917.4635747748788
 10
5764.639773103459
 20
917.4635747748788
 10
5767.242756272713
 20
911.9237608101404
 10
5768.535903952985
 20
907.7955372805443
 10
5768.535903952985
 20
896.807816455751
 10
5765.105119277571
 20
888.5935307414653
 10
5765.105119277571
 20
877.6764896614967
 10
5766.376196631503
 20
873.6187230811644
 10
5770.66467747577
 20
870.8806278430693
 10
5772.827275856159
 20
863.9767841017928
 10
5771.520796692616
 20
857.0254795367837
 10
5769.648981408384
 20
857.0254795367837
 10
5768.864752037411
 20
859.5290405694834
 10
5767.222826497584
 20
854.2873842986886
 10
5765.507434159877
 20
854.2873842986886
 10
5764.649737991023
 20
851.5492890605932
 10
5758.621101084397
 20
851.5492890605932
 10
5754.346023604549
 20
846.0902140570478
 10
5747.5035647748655
 20
843.3597448333912
 10
5746.638118445102
 20
840.5969081082122
 10
5744.775792511636
 20
840.5969081082122
 10
5743.991563140662
 20
843.100469140912
 10
5742.359981620306
 20
837.8918349488954
 10
5732.925323762918
 20
832.415644472705
 10
5731.657859751195
 20
828.3694130670126
 10
5732.924469094213
 20
821.6302414415456
 10
5734.630372081155
 20
821.6302414415456
 10
5737.21316445199
 20
813.3849772694684
 10
5742.3546786359875
 20
810.6493629546269
 10
5745.801006075146
 20
802.3978633915377
 10
5747.093499731649
 20
798.2717277567349
 10
5747.093499731649
 20
790.0621902368642
 10
5750.524284407062
 20
781.8479045225785
 10
5750.524284407062
 20
779.0635156968356
 10
5746.569176450647
 20
772.048947902787
 10
5744.849259309514
 20
774.794265595151
 10
5743.18922172116
 20
772.1445271558314
 10
5734.483438485395
 20
772.1445271558314
 10
5733.6686828322845
 20
774.7455397929443
 10
5732.024257441894
 20
772.1207214164954
 10
5718.198571637414
 20
777.6378331046667
 10
5713.915858229821
 20
783.1066588326067
  0
LWPOLYLINE
  5
42
330
17
100
AcDbEntity
  8
Y
100
AcDbPolyline
 90
59
 70
1
 10
5724.191802784034
 20
462.76303412612106
 10
5718.178587872677
 20
465.50538970482745
 10
5717.321764947415
 20
468.2406972143437
 10
5710.460195596589
 20
470.9787924524389
 10
5708.752553419792
 20
476.43024144154566
 10
5707.037161082084
 20
476.43024144154566
 10
5706.179464913232
 20
479.16833667964084
 10
5702.773443962471
 20
479.16833667964084
 10
5698.484963118202
 20
484.6445271558314
 10
5695.905222935518
 20
484.6445271558314
 10
5690.746999563117
 20
492.87804117040747
 10
5683.885430212291
 20
495.61613640850265
 10
5678.751299558451
 20
503.81119382249807
 10
5672.7293143279485
 20
503.81119382249807
 10
5671.871618159095
 20
506.54928906059325
 10
5669.308494540099
 20
506.54928906059325
 10
5666.721687333519
 20
512.054676439341
 10
5657.280439269115
 20
517.5346920917526
 10
5655.977705833186
 20
521.6935170311182
 10
5655.977705833186
 20
527.2095360734859
 10
5660.266186677454
 20
535.4238217877715
 10
5660.266186677454
 20
540.8907753757826
 10
5661.622204648598
 20
545.2197049949087
 10
5663.42347801779
 20
542.3445271558313
 10
5667.5831373148285
 20
542.3445271558313
 10
5668.440833483681
 20
545.0826223939266
 10
5670.293194529582
 20
545.0826223939266
 10
5672.866283036143
 20
539.606431917736
 10
5679.724950830097
 20
539.606431917736
 10
5684.013431674366
 20
531.3921462034505
 10
5690.869755421101
 20
531.3921462034505
 10
5694.309681703911
 20
525.9013639682025
 10
5703.744339561298
 20
523.1632687301073
 10
5707.165982629316
 20
517.7016700129742
 10
5713.169855811289
 20
517.7016700129742
 10
5718.316032824409
 20
509.4873842986884
 10
5724.31325433026
 20
509.4873842986884
 10
5728.601735174529
 20
504.01119382249806
 10
5732.057283574594
 20
504.01119382249806
 10
5732.914979743448
 20
501.2730985844028
 10
5738.918852925421
 20
501.2730985844028
 10
5740.634245263129
 20
495.79690810821234
 10
5746.611417694496
 20
495.79690810821234
 10
5753.482613279639
 20
487.5710984064866
 10
5763.797532055872
 20
484.82700022345347
 10
5765.110939804115
 20
480.63409878383044
 10
5760.356583185335
 20
468.21595572725994
 10
5758.64586480905
 20
468.21595572725994
 10
5757.758988789162
 20
465.38470720940484
 10
5755.185900282601
 20
468.1228024475
 10
5754.3573839647825
 20
465.47786048916475
 10
5750.90848724084
 20
465.47786048916475
 10
5749.137740153783
 20
462.65140845229405
 10
5747.452874098211
 20
465.3407778881825
 10
5745.78042227625
 20
460.0016700129742
 10
5740.634245263129
 20
460.0016700129742
 10
5739.774092774759
 20
457.2557332605819
 10
5726.345039909429
 20
458.63865871186704
 10
5724.191802784034
 20
462.76303412612106
  0
LWPOLYLINE
  5
43
330
17
100
AcDbEntity
  8
Y
100
AcDbPolyline
 90
47
 70
1
 10
6688.538269400455
 20
613.3527872755811
 10
6686.8940400175725
 20
616.0840738485854
 10
6673.693937164444
 20
618.8249675508548
 10
6669.550697639978
 20
631.2134300607106
 10
6667.903051959669
 20
658.5830450946589
 10
6663.813966120626
 20
665.3755676978375
 10
6630.85230810772
 20
676.3263188389946
 10
6621.748205894533
 20
688.6997975108039
 10
6621.748205894533
 20
691.4429401929772
 10
6615.146364615487
 20
702.4094881882196
 10
6616.803221335129
 20
707.9140127501332
 10
6616.803221335129
 20
721.6175426901141
 10
6620.099877708066
 20
727.0937331663047
 10
6620.099877708066
 20
737.9905592405962
 10
6616.804878179142
 20
743.4639974756113
 10
6615.156549992675
 20
770.8449498565637
 10
6611.858236775723
 20
776.3238925739296
 10
6611.858236775723
 20
787.2762735263104
 10
6610.193186623162
 20
790.0421462034503
 10
6612.737995183052
 20
794.2694161469593
 10
6629.308478361112
 20
788.7642550443043
 10
6642.480907067485
 20
780.5588128701171
 10
6647.45381493886
 20
780.5588128701171
 10
6649.102143125329
 20
777.8207176320218
 10
6654.026718108928
 20
777.8207176320218
 10
6660.629794786688
 20
772.3364175525319
 10
6672.186207636809
 20
769.5940234057023
 10
6673.827065922358
 20
766.8683366796408
 10
6678.751640905958
 20
766.8683366796408
 10
6685.357148433061
 20
761.3820176159861
 10
6703.488758484216
 20
755.9058271397956
 10
6710.08207123009
 20
750.429636663605
 10
6728.213681281245
 20
744.9534461874147
 10
6734.79479924589
 20
739.4873842986884
 10
6739.750170211871
 20
739.4873842986884
 10
6745.572819879678
 20
732.5786659207921
 10
6745.572819879678
 20
609.30008305012
 10
6743.056849754039
 20
605.1207176320218
 10
6739.647149072975
 20
605.1207176320218
 10
6737.998820886506
 20
607.8588128701172
 10
6731.405508140632
 20
607.8588128701172
 10
6729.74709357937
 20
610.6136629359327
 10
6721.606520827155
 20
613.3181806007022
 10
6714.967005484651
 20
605.0463333321437
 10
6713.33042024354
 20
607.7649219555781
 10
6711.725592557462
 20
605.0990869105381
 10
6688.538269400455
 20
613.3527872755811
  0
LWPOLYLINE
  5
44
330
17
100
AcDbEntity
  8
Y
100
AcDbPolyline
 90
247
 70
1
 10
8144.66654092968
 20
517.5016700129742
 10
8137.623592398617
 20
517.5016700129742
 10
8134.102118133084
 20
522.9778604891648
 10
8128.832011487347
 20
522.9778604891648
 10
8123.54980008905
 20
528.4540509653551
 10
8116.494746805424
 20
528.4540509653551
 10
8112.963423979517
 20
533.9455567863318
 10
8104.159738315685
 20
536.683652024427
 10
8100.648112610528
 20
542.1445271558314
 10
8091.844426946698
 20
542.1445271558314
 10
8088.322952681167
 20
547.6207176320218
 10
8083.040741282868
 20
547.6207176320218
 10
8079.519267017337
 20
553.0969081082123
 10
8072.476318486272
 20
553.0969081082123
 10
8068.016224167484
 20
560.0327321948806
 10
8071.537698433016
 20
568.2470179091663
 10
8067.184258527599
 20
575.0169853577604
 10
8058.387825908141
 20
577.7528247763029
 10
8051.340832273244
 20
585.9718283496609
 10
8039.008964720527
 20
591.4509990892594
 10
8035.500838698185
 20
596.9064319177361
 10
8028.457890167122
 20
596.9064319177361
 10
8024.924472114165
 20
602.401195994077
 10
8017.8815235831
 20
605.1392912321722
 10
8014.371993104993
 20
610.5969081082123
 10
8009.089781706695
 20
610.5969081082123
 10
8005.568307441163
 20
616.0730985844027
 10
8000.306379649743
 20
616.0730985844027
 10
7975.6560597910175
 20
635.2397652510693
 10
7972.114301918608
 20
635.2397652510693
 10
7970.3535647858425
 20
637.9778604891648
 10
7961.554861584629
 20
637.9778604891648
 10
7950.029974653422
 20
653.1427773179687
 10
7956.299651017482
 20
660.1069753872908
 10
7961.569620123028
 20
657.375226082927
 10
7963.310616254778
 20
660.0826223939266
 10
7966.920979277198
 20
660.0826223939266
 10
7970.383194371472
 20
657.3906036687919
 10
7972.114301918608
 20
660.0826223939266
 10
7977.505685680672
 20
660.0826223939266
 10
7979.211836631554
 20
657.4294132878365
 10
7980.917987582438
 20
660.0826223939266
 10
7996.764621777333
 20
660.0826223939266
 10
7999.360313658364
 20
664.1191429209003
 10
7999.360313658364
 20
669.5365780574291
 10
7995.838839392832
 20
675.0127685336195
 10
7995.838839392832
 20
683.2270542479052
 10
7987.035153729002
 20
696.9175304383814
 10
7987.035153729002
 20
705.1905714923289
 10
7989.728808284367
 20
709.3794322676647
 10
8003.904683536616
 20
706.6238465671009
 10
8014.460881861881
 20
698.4159557272599
 10
8021.503830392945
 20
698.4159557272599
 10
8032.077584628068
 20
690.1944144246982
 10
8044.312719382087
 20
687.4763187245667
 10
8046.900216243047
 20
691.5000953018526
 10
8046.900216243047
 20
696.9175304383815
 10
8043.378741977516
 20
702.393720914572
 10
8043.378741977516
 20
716.0841971050481
 10
8039.857267711984
 20
721.5603875812386
 10
8039.857267711984
 20
735.2508637717148
 10
8036.335793446451
 20
740.7270542479052
 10
8036.335793446451
 20
746.2620000637576
 10
8039.032843968544
 20
750.4561418547266
 10
8058.508642861774
 20
744.9495026992704
 10
8060.260330920675
 20
742.2254795367837
 10
8067.303279451739
 20
742.2254795367837
 10
8069.064016584505
 20
739.4873842986884
 10
8076.080943017606
 20
739.4873842986884
 10
8084.884628681437
 20
734.0111938224981
 10
8091.953599310465
 20
734.0111938224981
 10
8093.659750261347
 20
731.3579847164078
 10
8096.176464607195
 20
735.271688492955
 10
8089.157907429433
 20
743.4575262434248
 10
8089.157907429433
 20
748.9441542061146
 10
8075.072010367304
 20
773.5870113489717
 10
8075.072010367304
 20
776.3222923431434
 10
8062.72795907382
 20
795.5183366796409
 10
8067.223736673604
 20
802.5096512878395
 10
8070.770167535389
 20
799.752151240222
 10
8074.208339989632
 20
802.4254757954668
 10
8076.824796534592
 20
809.2068280230102
 10
8073.294164071443
 20
817.4424763957105
 10
8079.529325979635
 20
824.3683366796407
 10
8084.787462557113
 20
824.3683366796407
 10
8087.381774349426
 20
831.0922939666933
 10
8081.290063112401
 20
837.858812870117
 10
8075.997792751805
 20
837.858812870117
 10
8072.476318486272
 20
843.3350033463075
 10
8067.209285676462
 20
843.3350033463075
 10
8058.405600012632
 20
851.5492890605932
 10
8054.868947158612
 20
851.5492890605932
 10
8051.3474728930805
 20
857.0254795367837
 10
8044.3197029505045
 20
857.0254795367837
 10
8035.5160172866745
 20
865.2397652510693
 10
8030.218627299888
 20
865.2397652510693
 10
8026.687304473981
 20
870.7312710720464
 10
8017.8836188101495
 20
873.4693663101415
 10
8015.185442904151
 20
877.6652581683145
 10
8028.462154012116
 20
895.558812870117
 10
8031.979364432655
 20
895.558812870117
 10
8037.261575830952
 20
903.7730985844026
 10
8040.892222460248
 20
903.7730985844026
 10
8042.614132548534
 20
901.095382686088
 10
8047.871010810535
 20
906.5453097151618
 10
8051.37710247871
 20
903.8191750973633
 10
8055.703901906877
 20
910.5477143494717
 10
8055.703901906877
 20
915.9651494860005
 10
8052.182427641346
 20
921.4413399621909
 10
8052.182427641346
 20
935.1318161526673
 10
8050.402799144457
 20
937.8992890605932
 10
8053.108210025845
 20
942.106431917736
 10
8058.499593787909
 20
942.106431917736
 10
8060.24058991966
 20
939.3990356067367
 10
8065.522801317959
 20
942.1371308448317
 10
8067.303279451739
 20
939.368336679641
 10
8090.192862177698
 20
939.368336679641
 10
8091.9338583094495
 20
936.6609403686414
 10
8097.1920549430115
 20
939.3865872762917
 10
8100.702698792413
 20
936.656913144984
 10
8104.2241730579435
 20
939.3950083830792
 10
8111.242164992755
 20
933.9382227164109
 10
8112.973272539892
 20
936.6302414415456
 10
8116.603919169188
 20
936.6302414415456
 10
8118.335026716325
 20
933.9382227164109
 10
8121.856500981858
 20
936.6763179545062
 10
8123.646867700252
 20
933.8921462034502
 10
8127.05916960202
 20
933.8921462034502
 10
8131.41635130205
 20
940.6679324593044
 10
8132.298506313708
 20
974.9635747748789
 10
8171.186770284935
 20
974.9635747748789
 10
8172.955874969041
 20
972.2124672863729
 10
8183.507005152044
 20
969.4778172381081
 10
8192.300437289641
 20
961.2730985844028
 10
8195.827031181363
 20
961.2730985844028
 10
8202.030474341143
 20
954.3824706846683
 10
8205.566558191991
 20
946.1341062582009
 10
8205.566558191991
 20
937.928666730424
 10
8209.088032457523
 20
932.4524762542336
 10
8209.088032457523
 20
926.9762857780431
 10
8212.609506723054
 20
921.5000953018525
 10
8212.609506723054
 20
910.5388681629628
 10
8216.143818657343
 20
902.2946369567853
 10
8213.429793271023
 20
898.0740978155005
 10
8206.386844739958
 20
900.8121930535958
 10
8204.617018588691
 20
898.0599636226002
 10
8195.753939877859
 20
903.5730985844027
 10
8192.315615878128
 20
903.5730985844027
 10
8190.525249159734
 20
900.788926833347
 10
8183.423041457411
 20
906.311193822498
 10
8171.097881528049
 20
906.311193822498
 10
8167.6356664337745
 20
909.0032125476325
 10
8165.880801667838
 20
906.274249336886
 10
8157.017722957006
 20
911.7873842986885
 10
8151.818661824508
 20
911.7873842986885
 10
8149.222969943478
 20
907.7508637717148
 10
8149.222969943478
 20
894.0603875812386
 10
8145.701495677946
 20
888.5841971050482
 10
8145.701495677946
 20
874.8937209145719
 10
8142.180021412413
 20
869.4175304383814
 10
8142.180021412413
 20
855.7948141550579
 10
8148.287128596679
 20
849.011193822498
 10
8155.319852483163
 20
849.011193822498
 10
8158.782067577437
 20
846.3191750973634
 10
8160.536932343374
 20
849.04813830811
 10
8169.400011054207
 20
843.5350033463075
 10
8172.838335053937
 20
843.5350033463075
 10
8174.622829405504
 20
846.3100430700149
 10
8183.485908116335
 20
840.7969081082122
 10
8188.794141612597
 20
840.7969081082122
 10
8190.500292563479
 20
838.1436990021222
 10
8192.206443514364
 20
840.7969081082122
 10
8195.837090143661
 20
840.7969081082122
 10
8197.606194827767
 20
838.0458006197064
 10
8208.170617624362
 20
835.3077053816111
 10
8210.86766095441
 20
831.1135747748789
 10
8209.088032457523
 20
828.3461018669528
 10
8209.088032457523
 20
822.8699113907624
 10
8205.566558191991
 20
817.393720914572
 10
8205.566558191991
 20
809.1794352002862
 10
8202.04508392646
 20
803.7032447240958
 10
8202.04508392646
 20
798.2270542479052
 10
8198.523609660928
 20
792.7508637717148
 10
8198.523609660928
 20
787.2746732955244
 10
8195.002135395394
 20
781.7984828193337
 10
8195.002135395394
 20
776.3222923431433
 10
8190.500292563479
 20
769.321545785731
 10
8186.924232116065
 20
774.8826223939266
 10
8183.402757850534
 20
774.8826223939266
 10
8181.634752017235
 20
777.6320210764399
 10
8169.309592087872
 20
780.3701163145352
 10
8165.795386522874
 20
785.8350033463075
 10
8158.752437991808
 20
785.8350033463075
 10
8156.983333307702
 20
788.5861108348132
 10
8146.418910511107
 20
791.3242060729085
 10
8142.905803796914
 20
796.7873842986885
 10
8135.951744022737
 20
796.7873842986885
 10
8132.47083697096
 20
794.0808317857219
 10
8128.094124350286
 20
787.2746732955244
 10
8128.094124350286
 20
773.6429524447097
 10
8131.615598615818
 20
768.1667619685193
 10
8131.615598615818
 20
757.2143810161383
 10
8135.137072881349
 20
751.7381905399479
 10
8135.137072881349
 20
740.785809587567
 10
8138.658547146882
 20
735.3096191113765
 10
8138.658547146882
 20
721.6191429209003
 10
8144.782981993977
 20
712.095128473318
 10
8157.10814192334
 20
709.3570332352228
 10
8158.861610355574
 20
706.6302414415456
 10
8165.88427527976
 20
706.6302414415456
 10
8169.371446970286
 20
703.9188179068888
 10
8172.917877832072
 20
706.6763179545061
 10
8174.7082445504675
 20
703.8921462034505
 10
8181.751193081532
 20
703.8921462034505
 10
8183.5119302142975
 20
701.154050965355
 10
8190.554878745362
 20
701.154050965355
 10
8192.315615878128
 20
698.4159557272599
 10
8206.375490842294
 20
698.4159557272599
 10
8215.179176506124
 20
692.9397652510694
 10
8222.248147135151
 20
692.9397652510694
 10
8223.979254682288
 20
690.2477465259346
 10
8227.50072894782
 20
692.9858417640299
 10
8230.216878050715
 20
688.7620000637575
 10
8230.216878050715
 20
680.4889590098101
 10
8226.695403785185
 20
675.0127685336196
 10
8226.695403785185
 20
653.1080066288577
 10
8223.173929519651
 20
647.6318161526672
 10
8223.173929519651
 20
622.9889590098101
 10
8219.671346618241
 20
617.5421462034503
 10
8222.248147135151
 20
613.5350033463075
 10
8236.33404419728
 20
613.5350033463075
 10
8238.094781330044
 20
610.7969081082123
 10
8245.13772986111
 20
610.7969081082123
 10
8246.883798793577
 20
608.0816231628289
 10
8253.906673996173
 20
610.811914469822
 10
8261.93956687942
 20
603.8720099193552
 10
8231.053465221861
 20
553.0969081082123
 10
8227.510074926573
 20
553.0969081082123
 10
8220.507693609263
 20
547.6522603571505
 10
8215.225482210964
 20
539.4379746428647
 10
8211.663440731676
 20
536.6683366796409
 10
8202.880038674724
 20
536.6683366796409
 10
8201.064715360077
 20
533.8453553095405
 10
8199.249392045427
 20
536.6683366796409
 10
8164.143821753872
 20
536.6683366796409
 10
8148.2426013770955
 20
511.9405934047787
 10
8144.66654092968
 20
517.5016700129742
  0
LWPOLYLINE
  5
45
330
17
100
AcDbEntity
  8
Y
100
AcDbPolyline
 90
132
 70
1
 10
7908.748781315992
 20
186.1952600557566
 10
7899.950101573163
 20
191.6683366796409
 10
7882.328812900102
 20
191.6683366796409
 10
7877.046601501803
 20
197.1445271558314
 10
7871.752285350944
 20
197.1445271558314
 10
7863.792362110314
 20
209.52288137758524
 10
7860.270887844782
 20
220.47526232996628
 10
7846.180768238158
 20
242.3865906487387
 10
7844.410640507567
 20
253.39738429818226
 10
7847.088617249028
 20
257.5618647462129
 10
7859.424381407434
 20
263.0427667862637
 10
7869.037823040117
 20
272.5562219421743
 10
7863.783554435379
 20
280.72705424790524
 10
7863.783554435379
 20
288.94561253020566
 10
7854.979868771549
 20
305.374183958777
 10
7854.979868771549
 20
310.84610186695284
 10
7851.458394506017
 20
316.3222923431434
 10
7851.458394506017
 20
321.8572381589956
 10
7857.720974470699
 20
331.5960799545031
 10
7859.481711603465
 20
328.8579847164078
 10
7863.763677728974
 20
335.51680438901
 10
7831.241438471608
 20
383.35786370472493
 10
7825.958015719173
 20
386.0965868622165
 10
7816.232076870558
 20
401.22124479770685
 10
7818.908872313983
 20
408.1589838470754
 10
7827.734266289095
 20
410.90383073737826
 10
7833.061080613078
 20
416.4262620961141
 10
7836.592128877505
 20
413.6807226687934
 10
7847.156551674102
 20
421.89500838307913
 10
7850.653069343381
 20
419.17631795450615
 10
7852.384176890517
 20
421.86833667964083
 10
7859.516014178469
 20
421.86833667964083
 10
7870.080436975066
 20
413.6540509653551
 10
7875.382931980241
 20
413.6540509653551
 10
7878.904406245773
 20
408.1778604891647
 10
7887.708091909603
 20
408.1778604891647
 10
7891.229566175136
 20
402.7016700129742
 10
7898.252231099322
 20
402.7016700129742
 10
7908.8166538959185
 20
394.4873842986885
 10
7917.640623166626
 20
394.4873842986885
 10
7921.162097432158
 20
389.01119382249806
 10
7928.205045963223
 20
389.01119382249806
 10
7931.73636878913
 20
383.5196880015214
 10
7940.54005445296
 20
380.78159276342615
 10
7949.333891556414
 20
367.1064319177362
 10
7958.117293613368
 20
367.1064319177362
 10
7961.579508707642
 20
364.4144131926014
 10
7963.310616254778
 20
367.1064319177362
 10
7973.98421141514
 20
367.1064319177362
 10
7975.744948547906
 20
364.36833667964083
 10
7982.678724715205
 20
364.36833667964083
 10
7984.43946184797
 20
367.1064319177362
 10
7988.070108477266
 20
367.1064319177362
 10
7989.830845610033
 20
364.36833667964083
 10
8018.002639734292
 20
364.36833667964083
 10
8019.755181846986
 20
361.6429853912334
 10
8032.080341776348
 20
364.3810806293286
 10
8033.849273929185
 20
361.63024144154565
 10
8042.564070836127
 20
361.63024144154565
 10
8046.119847676664
 20
364.39500838307913
 10
8056.718573048267
 20
356.1540509653551
 10
8060.260330920675
 20
356.1540509653551
 10
8063.781805186208
 20
350.67786048916474
 10
8070.811283003119
 20
350.67786048916474
 10
8080.554221765603
 20
341.03625506363545
 10
8080.554221765603
 20
338.23044775741715
 10
8069.01556009433
 20
317.5262993107062
 10
8067.248693269857
 20
320.2739267381119
 10
8054.154739754251
 20
299.911720988183
 10
8056.757654098481
 20
293.1654675408074
 10
8070.817411558357
 20
290.43245346439704
 10
8079.613260792615
 20
282.22547953678367
 10
8084.895472190911
 20
282.22547953678367
 10
8093.712461418611
 20
273.99878092194587
 10
8109.571769108716
 20
268.51821081075445
 10
8113.088867335209
 20
263.0488254455747
 10
8127.174764397339
 20
260.31073020747954
 10
8128.9290790985515
 20
257.5826223939266
 10
8134.108784654918
 20
257.5826223939266
 10
8142.969418008709
 20
268.60585012783025
 10
8144.740465627717
 20
265.85172121113953
 10
8153.485405181998
 20
274.01119382249806
 10
8157.100873222807
 20
274.01119382249806
 10
8160.628098783437
 20
268.52605959574515
 10
8176.474732978333
 20
265.78796435764997
 10
8179.990455948767
 20
260.3207176320218
 10
8183.5119302142975
 20
260.3207176320218
 10
8185.272667347064
 20
257.5826223939266
 10
8194.061174422406
 20
257.5826223939266
 10
8202.871867307213
 20
249.3617985866916
 10
8218.732424164717
 20
246.62129769098328
 10
8222.248147135151
 20
241.15405096535514
 10
8225.769621400683
 20
241.15405096535514
 10
8230.235769414838
 20
234.20881287011707
 10
8226.695403785185
 20
228.70324472409575
 10
8226.695403785185
 20
217.75086377171482
 10
8223.173929519651
 20
212.2746732955244
 10
8223.173929519651
 20
206.79848281933388
 10
8220.484123867278
 20
202.6156074138531
 10
8190.442580010857
 20
205.36367464117777
 10
8188.690634263095
 20
208.08809853164857
 10
8171.1048867863865
 20
205.3533659853609
 10
8167.535840048762
 20
208.12845083334096
 10
8151.699640900368
 20
232.7550805958557
 10
8142.908874558895
 20
235.48915770604694
 10
8134.117296721572
 20
243.69214620345036
 10
8125.407604833018
 20
243.69214620345036
 10
8119.290438686456
 20
234.1794352002863
 10
8119.290438686456
 20
225.96514948600054
 10
8116.603919169188
 20
221.7873842986885
 10
8109.45179827436
 20
221.7873842986885
 10
8107.691061141594
 20
224.5254795367837
 10
8090.083689813934
 20
224.5254795367837
 10
8086.559671115327
 20
230.00562682171977
 10
8049.58419132724
 20
232.74372205981498
 10
8047.880584809431
 20
235.39297435715966
 10
8046.174433858548
 20
232.73976525106943
 10
8037.370748194716
 20
232.73976525106943
 10
8035.595342861653
 20
229.97885972026245
 10
8028.522840854645
 20
232.72844449734777
 10
8019.737354769093
 20
227.26357477487903
 10
7993.2431475118
 20
227.26357477487903
 10
7991.482410379035
 20
230.00167001297422
 10
7981.027159946203
 20
230.00167001297422
 10
7979.266422813436
 20
227.26357477487903
 10
7975.744948547906
 20
227.26357477487903
 10
7972.223474282373
 20
221.7873842986885
 10
7968.6944880722185
 20
221.7873842986885
 10
7952.8708428693835
 20
202.6485230538154
 10
7938.789752366697
 20
191.69987940476963
 10
7933.4832491595735
 20
183.44781787214714
 10
7908.748781315992
 20
186.1952600557566
  0
LWPOLYLINE
  5
46
330
17
100
AcDbEntity
  8
Y
100
AcDbPolyline
 90
35
 70
1
 10
8659.840955896816
 20
219.04928906059328
 10
8657.161386788392
 20
223.22711859271348
 10
8657.161386788392
 20
231.45023527440202
 10
8650.136767560136
 20
247.87880670297335
 10
8650.136767560136
 20
256.0842614498563
 10
8646.624457946009
 20
261.5604519260468
 10
8646.624457946009
 20
269.77473764033255
 10
8643.11214833188
 20
275.25092811652297
 10
8643.11214833188
 20
283.4652138308087
 10
8639.599838717753
 20
288.94140430699923
 10
8639.599838717753
 20
297.15569002128495
 10
8637.824882980782
 20
299.9230985844028
 10
8640.523253019113
 20
304.13024144154565
 10
8656.328646282689
 20
304.13024144154565
 10
8658.084801089753
 20
306.8683366796409
 10
8665.21874652235
 20
306.8683366796409
 10
8666.974901329415
 20
304.13024144154565
 10
8670.3778847392
 20
304.13024144154565
 10
8672.134039546265
 20
306.8683366796409
 10
8684.536449400053
 20
306.8683366796409
 10
8686.292604207118
 20
304.13024144154565
 10
8696.8295330495
 20
304.13024144154565
 10
8703.010083790734
 20
294.4938833680407
 10
8706.533721386182
 20
286.2531047515464
 10
8706.533721386182
 20
280.77801436739645
 10
8727.621086703071
 20
234.2005598656529
 10
8724.93638645863
 20
230.01473016234542
 10
8714.399457616246
 20
227.2766349242502
 10
8712.623277498453
 20
224.5073173772063
 10
8703.813497470905
 20
227.25445750916674
 10
8695.047342476026
 20
221.7873842986885
 10
8687.939432809839
 20
221.7873842986885
 10
8686.207075270757
 20
224.48837620974592
 10
8677.485794405387
 20
219.04928906059328
 10
8659.840955896816
 20
219.04928906059328
  0
LWPOLYLINE
  5
47
330
17
100
AcDbEntity
  8
Y
100
AcDbPolyline
 90
80
 70
1
 10
9544.798019293443
 20
364.1683366796409
 10
9536.480735237516
 20
364.1683366796409
 10
9533.109710334027
 20
366.93996889218306
 10
9530.588655153131
 20
371.08555544168587
 10
9530.588655153131
 20
379.2998411559716
 10
9528.21361949412
 20
383.20531532297707
 10
9523.26558695046
 20
369.6445271558314
 10
9519.809164255754
 20
369.6445271558314
 10
9516.478929026862
 20
375.1207176320218
 10
9508.15334095463
 20
375.1207176320218
 10
9506.488223340182
 20
377.8588128701171
 10
9499.827752882398
 20
377.8588128701171
 10
9498.16263526795
 20
380.59690810821235
 10
9491.502164810167
 20
380.59690810821235
 10
9488.171929581275
 20
386.0730985844029
 10
9479.846341509041
 20
386.0730985844029
 10
9478.181223894595
 20
388.81119382249807
 10
9474.850988665703
 20
388.81119382249807
 10
9472.310386808205
 20
392.988922643308
 10
9470.645269193757
 20
447.75082740521265
 10
9468.190518207917
 20
451.7873842986885
 10
9443.213753991222
 20
451.7873842986885
 10
9441.548636376774
 20
454.5254795367838
 10
9419.90210738897
 20
454.5254795367838
 10
9418.236989774527
 20
457.263574774879
 10
9409.911401702293
 20
457.263574774879
 10
9408.246284087847
 20
460.0016700129742
 10
9393.26022555783
 20
460.0016700129742
 10
9390.718775539635
 20
464.180793536924
 10
9390.718775539635
 20
480.60936496549544
 10
9387.388540310742
 20
486.08555544168587
 10
9387.388540310742
 20
502.5272789987902
 10
9385.71336440162
 20
508.036548902545
 10
9396.573098891526
 20
523.1468171777038
 10
9406.662933290467
 20
531.4426057998469
 10
9409.252108693156
 20
527.1850033463076
 10
9399.244363611868
 20
510.72841258454304
 10
9399.244363611868
 20
505.2522221083525
 10
9395.914128382974
 20
499.77603163216213
 10
9395.914128382974
 20
491.62656846188656
 10
9401.628489381123
 20
484.9147025414926
 10
9403.250931244507
 20
487.58262239392656
 10
9408.266678925145
 20
487.58262239392656
 10
9421.54683016612
 20
498.50146637186066
 10
9426.54218300946
 20
506.7157520861464
 10
9433.24344314184
 20
512.2254795367837
 10
9436.571600462294
 20
512.2254795367837
 10
9458.218129450097
 20
531.3921462034505
 10
9463.195165364577
 20
531.3921462034505
 10
9464.860282979023
 20
534.1302414415456
 10
9469.947693792015
 20
534.1302414415456
 10
9476.6081642498
 20
528.6540509653552
 10
9479.958794315991
 20
528.6540509653552
 10
9483.289029544883
 20
523.1778604891647
 10
9509.818458569078
 20
523.1778604891647
 10
9511.483576183522
 20
525.9159557272599
 10
9519.904191338417
 20
525.9159557272599
 10
9527.486610986214
 20
518.9890552719849
 10
9525.793302309792
 20
516.2046030607336
 10
9525.793302309792
 20
461.4987369652149
 10
9528.19097873146
 20
457.5560326566971
 10
9530.588655153131
 20
461.4987369652149
 10
9530.588655153131
 20
516.2046030607336
 10
9528.906498144073
 20
518.9707176320219
 10
9531.46136173627
 20
523.1718982423779
 10
9556.550348873125
 20
525.9222959965488
 10
9558.219322194971
 20
523.1778604891647
 10
9566.524515429905
 20
523.1778604891647
 10
9569.895540333393
 20
520.4062282766226
 10
9575.746830743183
 20
510.7844512509292
 10
9575.746830743183
 20
502.5141268702573
 10
9572.415702934959
 20
497.0364686495683
 10
9570.752378517907
 20
445.0686845733729
 10
9580.756533140702
 20
428.6179979094442
 10
9572.413047922164
 20
412.154110711715
 10
9570.747725472242
 20
401.2003824453991
 10
9557.423287379546
 20
376.55105575682313
 10
9554.092303552621
 20
365.5962128369624
 10
9549.853589328355
 20
358.62613268621857
 10
9544.798019293443
 20
364.1683366796409
  0
LWPOLYLINE
  5
48
330
17
100
AcDbEntity
  8
Y
100
AcDbPolyline
 90
43
 70
1
 10
9409.895091021694
 20
722.8889918805655
 10
9401.592443898147
 20
733.811193822498
 10
9396.590460786721
 20
733.811193822498
 10
9389.05365792519
 20
746.2046030607336
 10
9389.05365792519
 20
748.997463207242
 10
9419.025774985224
 20
801.0212727310513
 10
9419.025774985224
 20
803.7046030607335
 10
9416.558309935357
 20
807.7620667765623
 10
9404.902486634233
 20
813.2382572527529
 10
9401.585813630061
 20
818.6921462034503
 10
9396.590460786721
 20
818.6921462034503
 10
9393.26022555783
 20
824.1683366796408
 10
9389.938558291147
 20
824.1683366796408
 10
9383.278087833363
 20
832.3826223939267
 10
9378.280123063667
 20
832.3826223939267
 10
9369.044509426882
 20
844.8082752292437
 10
9374.953962803322
 20
851.7492890605932
 10
9379.959679479556
 20
851.7492890605932
 10
9393.239830720531
 20
862.6681330385272
 10
9396.570065949425
 20
868.1443235147176
 10
9423.252737455161
 20
890.0826223939265
 10
9428.239786282196
 20
890.0826223939265
 10
9438.230491968874
 20
901.0350033463076
 10
9444.97092957532
 20
901.0350033463076
 10
9451.631400033104
 20
895.558812870117
 10
9461.642500557082
 20
895.558812870117
 10
9464.972735785974
 20
890.0826223939265
 10
9469.968088629314
 20
890.0826223939265
 10
9472.509538647508
 20
885.9034988699768
 10
9472.509538647508
 20
842.0939750604531
 10
9475.8397738764
 20
836.6177845842625
 10
9475.8397738764
 20
814.6569840131143
 10
9472.509538647508
 20
809.1807935369238
 10
9472.509538647508
 20
803.7046030607335
 10
9467.53122519878
 20
795.5183366796409
 10
9470.84442103306
 20
790.0701655366435
 10
9470.84442103306
 20
784.5379363940668
 10
9459.999165097992
 20
766.7041549397704
 10
9445.013106567974
 20
753.0136787492944
 10
9435.015927403909
 20
736.5744624284611
 10
9430.014337435372
 20
733.8329484443151
 10
9416.642361001841
 20
717.3414354669819
 10
9409.895091021694
 20
722.8889918805655
  0
ENDSEC
  0
SECTION
  2
OBJECTS
  0
DICTIONARY
  5
A
330
0
100
AcDbDictionary
281
1
  3
ACAD_COLOR
350
B
  3
ACAD_GROUP
350
C
  3
ACAD_LAYOUT
350
D
  3
ACAD_MATERIAL
350
E
  3
ACAD_MLEADERSTYLE
350
F
  3
ACAD_MLINESTYLE
350
10
  3
ACAD_PLOTSETTINGS
350
11
  3
ACAD_PLOTSTYLENAME
350
12
  3
ACAD_SCALELIST
350
14
  3
ACAD_TABLESTYLE
350
15
  3
ACAD_VISUALSTYLE
350
16
  3
EZDXF_META
350
2D
  0
DICTIONARY
  5
B
330
A
100
AcDbDictionary
281
1
  0
DICTIONARY
  5
C
330
A
100
AcDbDictionary
281
1
  0
DICTIONARY
  5
D
330
A
100
AcDbDictionary
281
1
  3
Model
350
1A
  3
Layout1
350
1E
  0
DICTIONARY
  5
E
330
A
100
AcDbDictionary
281
1
  3
ByBlock
350
1F
  3
ByLayer
350
20
  3
Global
350
21
  0
DICTIONARY
  5
F
330
A
100
AcDbDictionary
281
1
  3
Standard
350
2C
  0
DICTIONARY
  5
10
330
A
100
AcDbDictionary
281
1
  3
Standard
350
22
  0
DICTIONARY
  5
11
330
A
100
AcDbDictionary
281
1
  0
ACDBDICTIONARYWDFLT
  5
12
330
A
100
AcDbDictionary
281
1
  3
Normal
350
13
100
AcDbDictionaryWithDefault
340
13
  0
ACDBPLACEHOLDER
  5
13
330
12
  0
DICTIONARY
  5
14
330
A
100
AcDbDictionary
281
1
  0
DICTIONARY
  5
15
330
A
100
AcDbDictionary
281
1
  0
DICTIONARY
  5
16
330
A
100
AcDbDictionary
281
1
  0
LAYOUT
  5
1A
330
D
100
AcDbPlotSettings
  1

  4
A3
  6

 40
7.5
 41
20.0
 42
7.5
 43
20.0
 44
420.0
 45
297.0
 46
0.0
 47
0.0
 48
0.0
 49
0.0
140
0.0
141
0.0
142
1.0
143
1.0
 70
1024
 72
1
 73
0
 74
5
  7

 75
16
 76
0
 77
2
 78
300
147
1.0
148
0.0
149
0.0
100
AcDbLayout
  1
Model
 70
1
 71
0
 10
0.0
 20
0.0
 11
420.0
 21
297.0
 12
0.0
 22
0.0
 32
0.0
 14
1e+20
 24
1e+20
 34
1e+20
 15
-1e+20
 25
-1e+20
 35
-1e+20
146
0.0
 13
0.0
 23
0.0
 33
0.0
 16
1.0
 26
0.0
 36
0.0
 17
0.0
 27
1.0
 37
0.0
 76
1
330
17
  0
LAYOUT
  5
1E
330
D
100
AcDbPlotSettings
  1

  4
A3
  6

 40
7.5
 41
20.0
 42
7.5
 43
20.0
 44
420.0
 45
297.0
 46
0.0
 47
0.0
 48
0.0
 49
0.0
140
0.0
141
0.0
142
1.0
143
1.0
 70
0
 72
1
 73
0
 74
5
  7

 75
16
 76
0
 77
2
 78
300
147
1.0
148
0.0
149
0.0
100
AcDbLayout
  1
Layout1
 70
1
 71
1
 10
0.0
 20
0.0
 11
420.0
 21
297.0
 12
0.0
 22
0.0
 32
0.0
 14
1e+20
 24
1e+20
 34
1e+20
 15
-1e+20
 25
-1e+20
 35
-1e+20
146
0.0
 13
0.0
 23
0.0
 33
0.0
 16
1.0
 26
0.0
 36
0.0
 17
0.0
 27
1.0
 37
0.0
 76
1
330
1B
  0
MATERIAL
  5
1F
102
{ACAD_REACTORS
330
E
102
}
330
E
100
AcDbMaterial
  1
ByBlock
  2

 70
0
 40
1.0
 71
1
 41
1.0
 91
-1023410177
 42
1.0
 72
1
  3

 73
1
 74
1
 75
1
 44
0.5
 73
0
 45
1.0
 46
1.0
 77
1
  4

 78
1
 79
1
170
1
 48
1.0
171
1
  6

172
1
173
1
174
1
140
1.0
141
1.0
175
1
  7

176
1
177
1
178
1
143
1.0
179
1
  8

270
1
271
1
272
1
145
1.0
146
1.0
273
1
  9

274
1
275
1
276
1
 42
1.0
 72
1
  3

 73
1
 74
1
 75
1
 94
63
  0
MATERIAL
  5
20
102
{ACAD_REACTORS
330
E
102
}
330
E
100
AcDbMaterial
  1
ByLayer
  2

 70
0
 40
1.0
 71
1
 41
1.0
 91
-1023410177
 42
1.0
 72
1
  3

 73
1
 74
1
 75
1
 44
0.5
 73
0
 45
1.0
 46
1.0
 77
1
  4

 78
1
 79
1
170
1
 48
1.0
171
1
  6

172
1
173
1
174
1
140
1.0
141
1.0
175
1
  7

176
1
177
1
178
1
143
1.0
179
1
  8

270
1
271
1
272
1
145
1.0
146
1.0
273
1
  9

274
1
275
1
276
1
 42
1.0
 72
1
  3

 73
1
 74
1
 75
1
 94
63
  0
MATERIAL
  5
21
102
{ACAD_REACTORS
330
E
102
}
330
E
100
AcDbMaterial
  1
Global
  2

 70
0
 40
1.0
 71
1
 41
1.0
 91
-1023410177
 42
1.0
 72
1
  3

 73
1
 74
1
 75
1
 44
0.5
 73
0
 45
1.0
 46
1.0
 77
1
  4

 78
1
 79
1
170
1
 48
1.0
171
1
  6

172
1
173
1
174
1
140
1.0
141
1.0
175
1
  7

176
1
177
1
178
1
143
1.0
179
1
  8

270
1
271
1
272
1
145
1.0
146
1.0
273
1
  9

274
1
275
1
276
1
 42
1.0
 72
1
  3

 73
1
 74
1
 75
1
 94
63
  0
MLINESTYLE
  5
22
102
{ACAD_REACTORS
330
10
102
}
330
10
100
AcDbMlineStyle
  2
Standard
 70
0
  3

 62
256
 51
90.0
 52
90.0
 71
2
 49
0.5
 62
256
  6
BYLAYER
 49
-0.5
 62
256
  6
BYLAYER
  0
MLEADERSTYLE
  5
2C
102
{ACAD_REACTORS
330
F
102
}
330
F
100
AcDbMLeaderStyle
179
2
170
2
171
1
172
0
 90
2
 40
0.0
 41
0.0
173
1
 91
-1056964608
 92
-2
290
1
 42
2.0
291
1
 43
8.0
  3
Standard
 44
4.0
300

342
29
174
1
175
1
176
0
178
1
 93
-1056964608
 45
4.0
292
0
297
0
 46
4.0
 94
-1056964608
 47
1.0
 49
1.0
140
1.0
294
1
141
0.0
177
0
142
1.0
295
0
296
0
143
3.75
271
0
272
9
273
9
  0
DICTIONARY
  5
2D
330
A
100
AcDbDictionary
280
1
281
1
  3
CREATED_BY_EZDXF
350
2E
  3
WRITTEN_BY_EZDXF
350
4B
  0
DICTIONARYVAR
  5
2E
330
2D
100
DictionaryVariables
280
0
  1
1.4.4 @ 2026-07-14T08:49:52.733052+00:00
  0
DICTIONARYVAR
  5
4B
330
2D
100
DictionaryVariables
280
0
  1
1.4.4 @ 2026-07-14T08:49:52.741392+00:00
  0
ENDSEC
  0
EOF
