  0
SECTION
  2
HEADER
  9
$ACADVER
  1
AC1027
  9
$ACADMAINTVER
 70
105
  9
$DWGCODEPAGE
  3
ANSI_1252
  9
$LASTSAVEDBY
  1
ezdxf
  9
$REQUIREDVERSIONS
160
0
  9
$INSBASE
 10
0.0
 20
0.0
 30
0.0
  9
$EXTMIN
 10
1e+20
 20
1e+20
 30
1e+20
  9
$EXTMAX
 10
-1e+20
 20
-1e+20
 30
-1e+20
  9
$LIMMIN
 10
0.0
 20
0.0
  9
$LIMMAX
 10
420.0
 20
297.0
  9
$ORTHOMODE
 70
0
  9
$REGENMODE
 70
1
  9
$FILLMODE
 70
1
  9
$QTEXTMODE
 70
0
  9
$MIRRTEXT
 70
1
  9
$LTSCALE
 40
1.0
  9
$ATTMODE
 70
1
  9
$TEXTSIZE
 40
2.5
  9
$TRACEWID
 40
1.0
  9
$TEXTSTYLE
  7
Standard
  9
$CLAYER
  8
0
  9
$CELTYPE
  6
ByLayer
  9
$CECOLOR
 62
256
  9
$CELTSCALE
 40
1.0
  9
$DISPSILH
 70
0
  9
$DIMSCALE
 40
1.0
  9
$DIMASZ
 40
2.5
  9
$DIMEXO
 40
0.625
  9
$DIMDLI
 40
3.75
  9
$DIMRND
 40
0.0
  9
$DIMDLE
 40
0.0
  9
$DIMEXE
 40
1.25
  9
$DIMTP
 40
0.0
  9
$DIMTM
 40
0.0
  9
$DIMTXT
 40
2.5
  9
$DIMCEN
 40
2.5
  9
$DIMTSZ
 40
0.0
  9
$DIMTOL
 70
0
  9
$DIMLIM
 70
0
  9
$DIMTIH
 70
0
  9
$DIMTOH
 70
0
  9
$DIMSE1
 70
0
  9
$DIMSE2
 70
0
  9
$DIMTAD
 70
1
  9
$DIMZIN
 70
8
  9
$DIMBLK
  1

  9
$DIMASO
 70
1
  9
$DIMSHO
 70
1
  9
$DIMPOST
  1

  9
$DIMAPOST
  1

  9
$DIMALT
 70
0
  9
$DIMALTD
 70
3
  9
$DIMALTF
 40
0.03937007874
  9
$DIMLFAC
 40
1.0
  9
$DIMTOFL
 70
1
  9
$DIMTVP
 40
0.0
  9
$DIMTIX
 70
0
  9
$DIMSOXD
 70
0
  9
$DIMSAH
 70
0
  9
$DIMBLK1
  1

  9
$DIMBLK2
  1

  9
$DIMSTYLE
  2
ISO-25
  9
$DIMCLRD
 70
0
  9
$DIMCLRE
 70
0
  9
$DIMCLRT
 70
0
  9
$DIMTFAC
 40
1.0
  9
$DIMGAP
 40
0.625
  9
$DIMJUST
 70
0
  9
$DIMSD1
 70
0
  9
$DIMSD2
 70
0
  9
$DIMTOLJ
 70
0
  9
$DIMTZIN
 70
8
  9
$DIMALTZ
 70
0
  9
$DIMALTTZ
 70
0
  9
$DIMUPT
 70
0
  9
$DIMDEC
 70
2
  9
$DIMTDEC
 70
2
  9
$DIMALTU
 70
2
  9
$DIMALTTD
 70
3
  9
$DIMTXSTY
  7
Standard
  9
$DIMAUNIT
 70
0
  9
$DIMADEC
 70
0
  9
$DIMALTRND
 40
0.0
  9
$DIMAZIN
 70
0
  9
$DIMDSEP
 70
44
  9
$DIMATFIT
 70
3
  9
$DIMFRAC
 70
0
  9
$DIMLDRBLK
  1

  9
$DIMLUNIT
 70
2
  9
$DIMLWD
 70
-2
  9
$DIMLWE
 70
-2
  9
$DIMTMOVE
 70
0
  9
$DIMFXL
 40
1.0
  9
$DIMFXLON
 70
0
  9
$DIMJOGANG
 40
0.785398163397
  9
$DIMTFILL
 70
0
  9
$DIMTFILLCLR
 70
0
  9
$DIMARCSYM
 70
0
  9
$DIMLTYPE
  6

  9
$DIMLTEX1
  6

  9
$DIMLTEX2
  6

  9
$DIMTXTDIRECTION
 70
0
  9
$LUNITS
 70
2
  9
$LUPREC
 70
4
  9
$SKETCHINC
 40
1.0
  9
$FILLETRAD
 40
10.0
  9
$AUNITS
 70
0
  9
$AUPREC
 70
2
  9
$MENU
  1
.
  9
$ELEVATION
 40
0.0
  9
$PELEVATION
 40
0.0
  9
$THICKNESS
 40
0.0
  9
$LIMCHECK
 70
0
  9
$CHAMFERA
 40
0.0
  9
$CHAMFERB
 40
0.0
  9
$CHAMFERC
 40
0.0
  9
$CHAMFERD
 40
0.0
  9
$SKPOLY
 70
0
  9
$TDCREATE
 40
2461243.537337963
  9
$TDUCREATE
 40
2458532.153996898
  9
$TDUPDATE
 40
2461243.537337963
  9
$TDUUPDATE
 40
2458532.1544311
  9
$TDINDWG
 40
0.0
  9
$TDUSRTIMER
 40
0.0
  9
$USRTIMER
 70
1
  9
$ANGBASE
 50
0.0
  9
$ANGDIR
 70
0
  9
$PDMODE
 70
0
  9
$PDSIZE
 40
0.0
  9
$PLINEWID
 40
0.0
  9
$SPLFRAME
 70
0
  9
$SPLINETYPE
 70
6
  9
$SPLINESEGS
 70
8
  9
$HANDSEED
  5
65
  9
$SURFTAB1
 70
6
  9
$SURFTAB2
 70
6
  9
$SURFTYPE
 70
6
  9
$SURFU
 70
6
  9
$SURFV
 70
6
  9
$UCSBASE
  2

  9
$UCSNAME
  2

  9
$UCSORG
 10
0.0
 20
0.0
 30
0.0
  9
$UCSXDIR
 10
1.0
 20
0.0
 30
0.0
  9
$UCSYDIR
 10
0.0
 20
1.0
 30
0.0
  9
$UCSORTHOREF
  2

  9
$UCSORTHOVIEW
 70
0
  9
$UCSORGTOP
 10
0.0
 20
0.0
 30
0.0
  9
$UCSORGBOTTOM
 10
0.0
 20
0.0
 30
0.0
  9
$UCSORGLEFT
 10
0.0
 20
0.0
 30
0.0
  9
$UCSORGRIGHT
 10
0.0
 20
0.0
 30
0.0
  9
$UCSORGFRONT
 10
0.0
 20
0.0
 30
0.0
  9
$UCSORGBACK
 10
0.0
 20
0.0
 30
0.0
  9
$PUCSBASE
  2

  9
$PUCSNAME
  2

  9
$PUCSORG
 10
0.0
 20
0.0
 30
0.0
  9
$PUCSXDIR
 10
1.0
 20
0.0
 30
0.0
  9
$PUCSYDIR
 10
0.0
 20
1.0
 30
0.0
  9
$PUCSORTHOREF
  2

  9
$PUCSORTHOVIEW
 70
0
  9
$PUCSORGTOP
 10
0.0
 20
0.0
 30
0.0
  9
$PUCSORGBOTTOM
 10
0.0
 20
0.0
 30
0.0
  9
$PUCSORGLEFT
 10
0.0
 20
0.0
 30
0.0
  9
$PUCSORGRIGHT
 10
0.0
 20
0.0
 30
0.0
  9
$PUCSORGFRONT
 10
0.0
 20
0.0
 30
0.0
  9
$PUCSORGBACK
 10
0.0
 20
0.0
 30
0.0
  9
$USERI1
 70
0
  9
$USERI2
 70
0
  9
$USERI3
 70
0
  9
$USERI4
 70
0
  9
$USERI5
 70
0
  9
$USERR1
 40
0.0
  9
$USERR2
 40
0.0
  9
$USERR3
 40
0.0
  9
$USERR4
 40
0.0
  9
$USERR5
 40
0.0
  9
$WORLDVIEW
 70
1
  9
$SHADEDGE
 70
3
  9
$SHADEDIF
 70
70
  9
$TILEMODE
 70
1
  9
$MAXACTVP
 70
64
  9
$PINSBASE
 10
0.0
 20
0.0
 30
0.0
  9
$PLIMCHECK
 70
0
  9
$PEXTMIN
 10
1e+20
 20
1e+20
 30
1e+20
  9
$PEXTMAX
 10
-1e+20
 20
-1e+20
 30
-1e+20
  9
$PLIMMIN
 10
0.0
 20
0.0
  9
$PLIMMAX
 10
420.0
 20
297.0
  9
$UNITMODE
 70
0
  9
$VISRETAIN
 70
1
  9
$PLINEGEN
 70
0
  9
$PSLTSCALE
 70
1
  9
$TREEDEPTH
 70
3020
  9
$CMLSTYLE
  2
Standard
  9
$CMLJUST
 70
0
  9
$CMLSCALE
 40
20.0
  9
$PROXYGRAPHICS
 70
1
  9
$MEASUREMENT
 70
1
  9
$CELWEIGHT
370
-1
  9
$ENDCAPS
280
0
  9
$JOINSTYLE
280
0
  9
$LWDISPLAY
290
0
  9
$INSUNITS
 70
4
  9
$HYPERLINKBASE
  1

  9
$STYLESHEET
  1

  9
$XEDIT
290
1
  9
$CEPSNTYPE
380
0
  9
$PSTYLEMODE
290
1
  9
$FINGERPRINTGUID
  2
{21A411DA-918B-4BA3-8DEC-E724D3E660DA}
  9
$VERSIONGUID
  2
{81C71B83-9419-488E-B70E-01699AD9BE81}
  9
$EXTNAMES
290
1
  9
$PSVPSCALE
 40
0.0
  9
$OLESTARTUP
290
0
  9
$SORTENTS
280
127
  9
$INDEXCTL
280
0
  9
$HIDETEXT
280
1
  9
$XCLIPFRAME
280
1
  9
$HALOGAP
280
0
  9
$OBSCOLOR
 70
257
  9
$OBSLTYPE
280
0
  9
$INTERSECTIONDISPLAY
280
0
  9
$INTERSECTIONCOLOR
 70
257
  9
$DIMASSOC
280
2
  9
$PROJECTNAME
  1

  9
$CAMERADISPLAY
290
0
  9
$LENSLENGTH
 40
50.0
  9
$CAMERAHEIGHT
 40
0.0
  9
$STEPSPERSEC
 40
24.0
  9
$STEPSIZE
 40
100.0
  9
$3DDWFPREC
 40
2.0
  9
$PSOLWIDTH
 40
0.005
  9
$PSOLHEIGHT
 40
0.08
  9
$LOFTANG1
 40
1.570796326795
  9
$LOFTANG2
 40
1.570796326795
  9
$LOFTMAG1
 40
0.0
  9
$LOFTMAG2
 40
0.0
  9
$LOFTPARAM
 70
7
  9
$LOFTNORMALS
280
1
  9
$LATITUDE
 40
37.795
  9
$LONGITUDE
 40
-122.394
  9
$NORTHDIRECTION
 40
0.0
  9
$TIMEZONE
 70
-8000
  9
$LIGHTGLYPHDISPLAY
280
1
  9
$TILEMODELIGHTSYNCH
280
1
  9
$CMATERIAL
347
20
  9
$SOLIDHIST
280
0
  9
$SHOWHIST
280
1
  9
$DWFFRAME
280
2
  9
$DGNFRAME
280
2
  9
$REALWORLDSCALE
290
1
  9
$INTERFERECOLOR
 62
256
  9
$CSHADOW
280
0
  9
$SHADOWPLANELOCATION
 40
0.0
  0
ENDSEC
  0
SECTION
  2
CLASSES
  0
CLASS
  1
ACDBDICTIONARYWDFLT
  2
AcDbDictionaryWithDefault
  3
ObjectDBX Classes
 90
0
 91
0
280
0
281
0
  0
CLASS
  1
SUN
  2
AcDbSun
  3
SCENEOE
 90
1153
 91
0
280
0
281
0
  0
CLASS
  1
VISUALSTYLE
  2
AcDbVisualStyle
  3
ObjectDBX Classes
 90
4095
 91
0
280
0
281
0
  0
CLASS
  1
MATERIAL
  2
AcDbMaterial
  3
ObjectDBX Classes
 90
1153
 91
0
280
0
281
0
  0
CLASS
  1
SCALE
  2
AcDbScale
  3
ObjectDBX Classes
 90
1153
 91
0
280
0
281
0
  0
CLASS
  1
TABLESTYLE
  2
AcDbTableStyle
  3
ObjectDBX Classes
 90
4095
 91
0
280
0
281
0
  0
CLASS
  1
MLEADERSTYLE
  2
AcDbMLeaderStyle
  3
ACDB_MLEADERSTYLE_CLASS
 90
4095
 91
0
280
0
281
0
  0
CLASS
  1
DICTIONARYVAR
  2
AcDbDictionaryVar
  3
ObjectDBX Classes
 90
0
 91
0
280
0
281
0
  0
CLASS
  1
CELLSTYLEMAP
  2
AcDbCellStyleMap
  3
ObjectDBX Classes
 90
1152
 91
0
280
0
281
0
  0
CLASS
  1
MENTALRAYRENDERSETTINGS
  2
AcDbMentalRayRenderSettings
  3
SCENEOE
 90
1024
 91
0
280
0
281
0
  0
CLASS
  1
ACDBDETAILVIEWSTYLE
  2
AcDbDetailViewStyle
  3
ObjectDBX Classes
 90
1025
 91
0
280
0
281
0
  0
CLASS
  1
ACDBSECTIONVIEWSTYLE
  2
AcDbSectionViewStyle
  3
ObjectDBX Classes
 90
1025
 91
0
280
0
281
0
  0
CLASS
  1
RASTERVARIABLES
  2
AcDbRasterVariables
  3
ISM
 90
0
 91
0
280
0
281
0
  0
CLASS
  1
ACDBPLACEHOLDER
  2
AcDbPlaceHolder
  3
ObjectDBX Classes
 90
0
 91
0
280
0
281
0
  0
CLASS
  1
LAYOUT
  2
AcDbLayout
  3
ObjectDBX Classes
 90
0
 91
0
280
0
281
0
  0
ENDSEC
  0
SECTION
  2
TABLES
  0
TABLE
  2
VPORT
  5
8
330
0
100
AcDbSymbolTable
 70
1
  0
VPORT
  5
23
330
8
100
AcDbSymbolTableRecord
100
AcDbViewportTableRecord
  2
*Active
 70
0
 10
0.0
 20
0.0
 11
1.0
 21
1.0
 12
0.0
 22
0.0
 13
0.0
 23
0.0
 14
0.5
 24
0.5
 15
0.5
 25
0.5
 16
0.0
 26
0.0
 36
1.0
 17
0.0
 27
0.0
 37
0.0
 40
1000.0
 41
1.34
 42
50.0
 43
0.0
 44
0.0
 50
0.0
 51
0.0
 71
0
 72
1000
 73
1
 74
3
 75
0
 76
0
 77
0
 78
0
281
0
 65
0
146
0.0
  0
ENDTAB
  0
TABLE
  2
LTYPE
  5
2
330
0
100
AcDbSymbolTable
 70
3
  0
LTYPE
  5
24
330
2
100
AcDbSymbolTableRecord
100
AcDbLinetypeTableRecord
  2
ByBlock
 70
0
  3

 72
65
 73
0
 40
0.0
  0
LTYPE
  5
25
330
2
100
AcDbSymbolTableRecord
100
AcDbLinetypeTableRecord
  2
ByLayer
 70
0
  3

 72
65
 73
0
 40
0.0
  0
LTYPE
  5
26
330
2
100
AcDbSymbolTableRecord
100
AcDbLinetypeTableRecord
  2
Continuous
 70
0
  3

 72
65
 73
0
 40
0.0
  0
ENDTAB
  0
TABLE
  2
LAYER
  5
1
330
0
100
AcDbSymbolTable
 70
3
  0
LAYER
  5
27
330
1
100
AcDbSymbolTableRecord
100
AcDbLayerTableRecord
  2
0
 70
0
 62
7
  6
Continuous
370
-3
390
13
347
21
  0
LAYER
  5
28
330
1
100
AcDbSymbolTableRecord
100
AcDbLayerTableRecord
  2
Defpoints
 70
0
 62
7
  6
Continuous
290
0
370
-3
390
13
347
21
  0
LAYER
  5
2F
330
1
100
AcDbSymbolTableRecord
100
AcDbLayerTableRecord
  2
C
 70
0
 62
7
  6
Continuous
370
-3
390
13
347
21
  0
ENDTAB
  0
TABLE
  2
STYLE
  5
5
330
0
100
AcDbSymbolTable
 70
1
  0
STYLE
  5
29
330
5
100
AcDbSymbolTableRecord
100
AcDbTextStyleTableRecord
  2
Standard
 70
0
 40
0.0
 41
1.0
 50
0.0
 71
0
 42
2.5
  3
txt
  4

  0
ENDTAB
  0
TABLE
  2
VIEW
  5
7
330
0
100
AcDbSymbolTable
 70
0
  0
ENDTAB
  0
TABLE
  2
UCS
  5
6
330
0
100
AcDbSymbolTable
 70
0
  0
ENDTAB
  0
TABLE
  2
APPID
  5
3
330
0
100
AcDbSymbolTable
 70
3
  0
APPID
  5
2A
330
3
100
AcDbSymbolTableRecord
100
AcDbRegAppTableRecord
  2
ACAD
 70
0
  0
APPID
  5
62
330
3
100
AcDbSymbolTableRecord
100
AcDbRegAppTableRecord
  2
HATCHBACKGROUNDCOLOR
 70
0
  0
APPID
  5
63
330
3
100
AcDbSymbolTableRecord
100
AcDbRegAppTableRecord
  2
EZDXF
 70
0
  0
ENDTAB
  0
TABLE
  2
DIMSTYLE
  5
4
330
0
100
AcDbSymbolTable
 70
1
100
AcDbDimStyleTable
  0
DIMSTYLE
105
2B
330
4
100
AcDbSymbolTableRecord
100
AcDbDimStyleTableRecord
  2
Standard
 70
0
 40
1.0
 41
2.5
 42
0.625
 43
3.75
 44
1.25
 45
0.0
 46
0.0
 47
0.0
 48
0.0
 49
2.5
140
2.5
141
2.5
142
0.0
143
0.03937007874
144
1.0
145
0.0
146
1.0
147
0.625
148
0.0
 69
0
 70
0
 71
0
 72
0
 73
0
 74
0
 75
0
 76
0
 77
1
 78
8
 79
3
170
0
171
3
172
1
173
0
174
0
175
0
176
0
177
0
178
0
179
2
271
2
272
2
273
2
274
3
275
0
276
0
277
2
278
44
279
0
280
0
281
0
282
0
283
0
284
8
285
0
286
0
288
0
289
3
290
0
371
-2
372
-2
  0
ENDTAB
  0
TABLE
  2
BLOCK_RECORD
  5
9
330
0
100
AcDbSymbolTable
 70
2
  0
BLOCK_RECORD
  5
17
330
9
100
AcDbSymbolTableRecord
100
AcDbBlockTableRecord
  2
*Model_Space
340
1A
 70
0
280
1
281
0
  0
BLOCK_RECORD
  5
1B
330
9
100
AcDbSymbolTableRecord
100
AcDbBlockTableRecord
  2
*Paper_Space
340
1E
 70
0
280
1
281
0
  0
ENDTAB
  0
ENDSEC
  0
SECTION
  2
BLOCKS
  0
BLOCK
  5
18
330
17
100
AcDbEntity
  8
0
100
AcDbBlockBegin
  2
*Model_Space
 70
0
 10
0.0
 20
0.0
 30
0.0
  3
*Model_Space
  1

  0
ENDBLK
  5
19
330
17
100
AcDbEntity
  8
0
100
AcDbBlockEnd
  0
BLOCK
  5
1C
330
1B
100
AcDbEntity
  8
0
100
AcDbBlockBegin
  2
*Paper_Space
 70
0
 10
0.0
 20
0.0
 30
0.0
  3
*Paper_Space
  1

  0
ENDBLK
  5
1D
330
1B
100
AcDbEntity
  8
0
100
AcDbBlockEnd
  0
ENDSEC
  0
SECTION
  2
ENTITIES
  0
LWPOLYLINE
  5
30
330
17
100
AcDbEntity
  8
C
100
AcDbPolyline
 90
64
 70
1
 10
0.0
 20
110.99468354068176
 10
2.591537921593723
 20
115.25221012615717
 10
5.924871254927022
 20
112.51411488806195
 10
9.227536231883992
 20
117.93992163591993
 10
19.339934701759432
 20
117.93992163591993
 10
20.975933012049918
 20
115.25221012615728
 10
37.596066804402525
 20
128.90446288416123
 10
45.90623737109756
 20
126.17397826938992
 10
50.89420289855073
 20
134.36849306449128
 10
54.227536231884145
 20
134.36849306449128
 10
57.55429279285751
 20
139.8338788432336
 10
70.99922791694213
 20
142.59489230621526
 10
72.67326803509266
 20
139.8446835406818
 10
75.89420289855065
 20
139.8446835406818
 10
77.56086956521735
 20
142.582778778777
 10
80.98620796767942
 20
142.582778778777
 10
84.25820458826017
 20
139.89506726901448
 10
92.59153792159347
 20
153.5855434594906
 10
99.31954130101295
 20
148.05896925496754
 10
105.89420289855067
 20
148.05896925496754
 10
109.23748513220366
 20
153.55150435311194
 10
119.22924410132707
 20
150.81566558775683
 10
125.00361581982256
 20
163.01255278906868
 10
123.33694915315563
 20
165.7506480271639
 10
129.2311134968952
 20
178.2005665899612
 10
137.57290403776412
 20
175.45969255510428
 10
142.5608695652173
 20
183.65420735020555
 10
146.00660136842615
 20
183.65420735020555
 10
147.61706880015512
 20
181.00843942665102
 10
150.89420289855082
 20
186.39230258830085
 10
154.3195413010129
 20
186.39230258830085
 10
164.36583281193828
 20
178.1399917043265
 10
168.55040213348838
 20
168.51548226476132
 10
168.55040213348838
 20
152.09415371236545
 10
171.00660136842606
 20
148.05896925496754
 10
176.00660136842617
 20
148.05896925496754
 10
179.33993470175957
 20
142.582778778777
 10
185.90629420738048
 20
142.582778778777
 10
190.89928306127314
 20
148.05129038065934
 10
205.89928306127302
 20
150.78938561875455
 10
210.96647850400785
 20
156.3391711036547
 10
213.57249428404435
 20
152.0578594650237
 10
206.91859647739597
 20
143.85930681040372
 10
210.94216319840731
 20
139.89321961397837
 10
217.56943826935483
 20
148.05896925496754
 10
220.90940157392092
 20
148.05896925496754
 10
229.3034847788199
 20
156.3331369855111
 10
231.8837354668216
 20
152.09415371236545
 10
231.8837354668216
 20
110.96664194042683
 10
229.3399347017594
 20
106.78754068353891
 10
170.89420289855062
 20
106.78754068353891
 10
167.56086956521742
 20
112.26373115972943
 10
161.00660136842603
 20
112.26373115972943
 10
157.67326803509263
 20
106.78754068353891
 10
75.89420289855065
 20
106.78754068353891
 10
70.93870136958114
 20
114.92872176684588
 10
64.27203470291431
 20
106.71443605256015
 10
60.894202898550745
 20
112.26373115972943
 10
46.00660136842605
 20
112.26373115972943
 10
44.33993470175934
 20
109.52563592163422
 10
31.006601368426146
 20
109.52563592163422
 10
29.338208617287865
 20
106.78470497333525
 10
1.7258577444516643
 20
108.15934581765407
 10
0.0
 20
110.99468354068176
  0
LWPOLYLINE
  5
31
330
17
100
AcDbEntity
  8
C
100
AcDbPolyline
 90
5
 70
1
 10
193.33333333333326
 20
130.16135020734842
 10
190.95040213348835
 20
134.07616574995063
 10
188.56747093364368
 20
130.16135020734842
 10
190.95040213348835
 20
126.24653466474622
 10
193.33333333333326
 20
130.16135020734842
  0
LWPOLYLINE
  5
32
330
17
100
AcDbEntity
  8
C
100
AcDbPolyline
 90
19
 70
1
 10
218.390044100054
 20
201.25865870964054
 10
214.2427232471068
 20
208.0721143966251
 10
207.60433616686348
 20
205.345633988668
 10
195.875807904896
 20
213.60347531597156
 10
193.33333333333326
 20
217.78039782639613
 10
195.89420289855076
 20
221.98754068353887
 10
200.89420289855065
 20
221.98754068353887
 10
203.33333333333303
 20
225.99468354068176
 10
199.99999999999963
 20
231.47087401687227
 10
204.22753623188405
 20
238.41611211211034
 10
207.55453825694048
 20
238.41611211211034
 10
214.27397371389688
 20
252.21495278264638
 10
215.9504021334885
 20
249.46082037903204
 10
217.56086956521725
 20
252.1065883025866
 10
222.66731128226957
 20
252.1065883025866
 10
231.8837354668216
 20
239.7182778727016
 10
231.8837354668216
 20
204.06188003566496
 10
229.33547092405104
 20
199.8754454296847
 10
218.390044100054
 20
201.25865870964054
  0
LWPOLYLINE
  5
33
330
17
100
AcDbEntity
  8
C
100
AcDbPolyline
 90
8
 70
1
 10
220.0029445039625
 20
269.809044749573
 10
222.6170688001551
 20
274.10367752188915
 10
225.97593301204978
 20
268.5855434594906
 10
229.30926634538318
 20
271.3236386975858
 10
231.8837354668216
 20
267.0941537123653
 10
231.8837354668216
 20
261.56188003566496
 10
227.60830642410247
 20
254.53796089405455
 10
220.0029445039625
 20
269.809044749573
  0
LWPOLYLINE
  5
34
330
17
100
AcDbEntity
  8
C
100
AcDbPolyline
 90
93
 70
1
 10
516.6666666666667
 20
308.13754068353893
 10
514.2047382188289
 20
312.18213741927246
 10
510.0170688001551
 20
316.30998298910805
 10
510.0170688001551
 20
330.07602082849075
 10
518.3504021334884
 20
341.0284017808718
 10
518.3504021334884
 20
351.9190228928081
 10
516.6666666666667
 20
354.685159731158
 10
518.3333333333333
 20
357.4232549692532
 10
514.2837354668217
 20
364.0761657499509
 10
511.9008042669768
 20
360.1613502073485
 10
513.5674709336434
 20
357.4232549692532
 10
511.9008042669768
 20
354.685159731158
 10
513.5674709336434
 20
351.9470644930628
 10
511.9008042669768
 20
349.2089692549675
 10
513.5674709336434
 20
346.47087401687224
 10
510.9664785040079
 20
342.1978150253281
 10
505.9664785040079
 20
347.6740055015186
 10
502.6732680350928
 20
342.2637311597294
 10
492.5608695652174
 20
342.2637311597294
 10
487.6170688001551
 20
350.3856895594747
 10
482.64259967871646
 20
342.21334743139687
 10
475.9759330120498
 20
347.6895379075874
 10
472.6732680350928
 20
342.2637311597294
 10
459.2137967089164
 20
342.2637311597294
 10
456.6757339467109
 20
349.21318872291073
 10
461.677047050126
 20
360.1684459970581
 10
460.01166194048983
 20
365.6404256430058
 10
465.00991698929096
 20
379.326123990914
 10
461.67215598435575
 20
387.55132075307574
 10
465.8841549899023
 20
394.4710334050453
 10
474.2275845439581
 20
397.21244597280634
 10
479.28373546682167
 20
402.7501350788
 10
489.2676590963022
 20
391.815361579845
 10
493.33741390544793
 20
398.50138733772735
 10
488.33741390544805
 20
409.45376829010826
 10
490.8942028985507
 20
413.65420735020564
 10
497.5608695652174
 20
413.65420735020564
 10
499.22753623188396
 20
416.3923025883008
 10
502.6732680350928
 20
416.3923025883008
 10
507.6580810198699
 20
408.2029669704528
 10
514.3247476865365
 20
410.941062208548
 10
516.9008042669768
 20
406.7089692549675
 10
511.9008042669768
 20
398.4946835406819
 10
514.2837354668217
 20
394.5798679980794
 10
517.5608695652173
 20
399.9637311597294
 10
524.3399347017595
 20
399.9637311597294
 10
527.6073070472303
 20
394.5959051635988
 10
534.2739737138969
 20
408.28638135407493
 10
536.9008042669768
 20
403.97087401687224
 10
535.2341376003101
 20
401.23277877877706
 10
536.9008042669768
 20
398.4946835406819
 10
530.9759330120498
 20
388.7609664790159
 10
527.6425996787164
 20
391.49906171711115
 10
524.2837354668217
 20
385.9809276547128
 10
522.6170688001552
 20
388.719022892808
 10
516.9008042669768
 20
379.3280168740152
 10
523.5619816159543
 20
368.38465408640906
 10
520.2286482826211
 20
360.17036837212345
 10
527.6287695640622
 20
348.0130262668987
 10
534.2472092265853
 20
356.1678894225075
 10
544.3599515236832
 20
353.3989242697306
 10
549.306372477411
 20
339.8551526107142
 10
554.2275362318841
 20
347.9399216359199
 10
562.5608695652173
 20
347.9399216359199
 10
565.9504021334883
 20
353.5084394266508
 10
568.5674709336434
 20
349.2089692549675
 10
566.9008042669768
 20
346.47087401687224
 10
570.228648282621
 20
341.0037017054568
 10
566.8953149492878
 20
332.78941599117104
 10
570.9504021334884
 20
326.1274870456985
 10
574.227536231884
 20
331.51135020734847
 10
579.3399347017595
 20
331.51135020734847
 10
581.9036081820395
 20
327.2996009183167
 10
570.9596298142912
 20
312.0862683521607
 10
565.9237061439127
 20
317.6018038006704
 10
559.3520891663463
 20
314.90274682774134
 10
553.5674709336434
 20
305.39944544544375
 10
556.9008042669767
 20
299.9232549692532
 10
554.3399347017595
 20
295.71611211211035
 10
549.3399347017595
 20
295.71611211211035
 10
547.617068800155
 20
292.8856895594747
 10
545.9343257629689
 20
295.650195977709
 10
540.9602613051824
 20
290.20241109537136
 10
537.6425996787165
 20
292.9276331456826
 10
534.2837354668218
 20
287.4094990832843
 10
531.6666666666666
 20
291.7089692549675
 10
533.3333333333334
 20
294.4470644930628
 10
530.9504021334884
 20
298.3618800356652
 10
527.617068800155
 20
292.8856895594747
 10
524.2837354668217
 20
298.3618800356652
 10
522.6273647974892
 20
295.64069965033326
 10
514.9956623973147
 20
305.39231938388946
 10
516.6666666666667
 20
308.13754068353893
  0
LWPOLYLINE
  5
35
330
17
100
AcDbEntity
  8
C
100
AcDbPolyline
 90
5
 70
1
 10
560.9504021334884
 20
326.1274870456985
 10
563.3333333333334
 20
330.0423025883008
 10
560.9504021334884
 20
333.9571181309032
 10
558.5674709336434
 20
330.0423025883008
 10
560.9504021334884
 20
326.1274870456985
  0
LWPOLYLINE
  5
36
330
17
100
AcDbEntity
  8
C
100
AcDbPolyline
 90
5
 70
1
 10
548.3333333333334
 20
327.3042073502056
 10
545.9504021334884
 20
331.219022892808
 10
543.5674709336434
 20
327.3042073502056
 10
545.9504021334884
 20
323.3893918076032
 10
548.3333333333334
 20
327.3042073502056
  0
LWPOLYLINE
  5
37
330
17
100
AcDbEntity
  8
C
100
AcDbPolyline
 90
6
 70
1
 10
515.0
 20
376.5899216359199
 10
507.5608695652174
 20
388.8113502073485
 10
506.0066013684261
 20
388.8113502073485
 10
503.5708773513947
 20
384.8098036079399
 10
512.608768337891
 20
372.66146961959777
 10
515.0
 20
376.5899216359199
  0
LWPOLYLINE
  5
38
330
17
100
AcDbEntity
  8
C
100
AcDbPolyline
 90
5
 70
1
 10
500.2341376003101
 20
354.685159731158
 10
502.6170688001551
 20
350.77034418855555
 10
505.0
 20
354.685159731158
 10
502.6170688001551
 20
358.59997527376044
 10
500.2341376003101
 20
354.685159731158
  0
LWPOLYLINE
  5
39
330
17
100
AcDbEntity
  8
C
100
AcDbPolyline
 90
6
 70
1
 10
491.6666666666667
 20
371.11373115972947
 10
487.6170688001551
 20
377.76664194042706
 10
483.5674709336435
 20
371.11373115972947
 10
486.0066013684261
 20
367.1065883025866
 10
489.22753623188396
 20
367.1065883025866
 10
491.6666666666667
 20
371.11373115972947
  0
LWPOLYLINE
  5
3A
330
17
100
AcDbEntity
  8
C
100
AcDbPolyline
 90
8
 70
1
 10
555.9146497503017
 20
98.80684622570146
 10
561.0219068998617
 20
96.01001492951366
 10
565.2341376003102
 20
89.0899216359199
 10
562.666742892042
 20
84.87205890090787
 10
555.0549761852965
 20
86.26150837912338
 10
553.3504021334884
 20
89.06188003566507
 10
553.3504021334884
 20
94.59415371236524
 10
555.9146497503017
 20
98.80684622570146
  0
LWPOLYLINE
  5
3B
330
17
100
AcDbEntity
  8
C
100
AcDbPolyline
 90
5
 70
1
 10
563.576988821684
 20
302.6769867377008
 10
560.9701514454866
 20
298.39432533394796
 10
556.657148778626
 20
302.6457136769962
 10
559.2639861548236
 20
306.9283750807491
 10
563.576988821684
 20
302.6769867377008
  0
LWPOLYLINE
  5
3C
330
17
100
AcDbEntity
  8
C
100
AcDbPolyline
 90
23
 70
1
 10
542.6732680350927
 20
123.41611211211034
 10
547.6732680350927
 20
123.41611211211034
 10
551.8961225056022
 20
116.47856548198776
 10
547.672436929925
 20
106.76408865792996
 10
539.3279002292124
 20
109.50586500244985
 10
536.9119722893188
 20
105.53684052976719
 10
544.3617161887804
 20
98.7374710977188
 10
550.2341376003102
 20
89.0899216359199
 10
547.6732680350927
 20
84.88277877877704
 10
535.8942028985507
 20
84.88277877877704
 10
534.2837354668218
 20
87.5285467023318
 10
532.6647959549333
 20
84.86886036137209
 10
526.720099260451
 20
86.26404427946488
 10
520.0040805721145
 20
97.29750355316025
 10
525.0040805721146
 20
108.24988450554119
 10
521.6750266477545
 20
113.71904452413273
 10
523.3416933144211
 20
119.19523500032314
 10
521.6666666666667
 20
121.94706449306281
 10
524.2479830836351
 20
126.18779860665374
 10
529.2479830836351
 20
123.44970336855854
 10
530.8942028985507
 20
126.15420735020555
 10
541.0066013684261
 20
126.15420735020555
 10
542.6732680350927
 20
123.41611211211034
  0
LWPOLYLINE
  5
3D
330
17
100
AcDbEntity
  8
C
100
AcDbPolyline
 90
11
 70
1
 10
515.9819968874094
 20
109.48521427424973
 10
507.54334770767275
 20
115.03061230664812
 10
500.8788973671151
 20
125.97935215184985
 10
495.8723448175397
 20
128.7210356909031
 10
491.67134842804126
 20
138.38332738674964
 10
494.2275362318841
 20
142.582778778777
 10
497.6732680350928
 20
142.582778778777
 10
507.69366143583926
 20
126.12070390612206
 10
514.3603281025058
 20
120.64451342993165
 10
518.5674709336434
 20
113.73277877877707
 10
515.9819968874094
 20
109.48521427424973
  0
LWPOLYLINE
  5
3E
330
17
100
AcDbEntity
  8
C
100
AcDbPolyline
 90
29
 70
1
 10
451.6666666666667
 20
113.73277877877707
 10
454.2275362318841
 20
117.93992163591993
 10
457.6813444251966
 20
117.93992163591993
 10
462.6813444251966
 20
106.98754068353888
 10
466.00660136842606
 20
106.98754068353888
 10
469.29981183734117
 20
101.5772663417499
 10
474.2396275407139
 20
106.98754068353888
 10
482.5608695652174
 20
106.98754068353888
 10
484.2720347029147
 20
109.79874055261295
 10
490.95486162574366
 20
101.5645430941271
 10
495.90629420738054
 20
106.98754068353888
 10
499.3447149679121
 20
106.98754068353888
 10
508.5649877807081
 20
89.08584217038317
 10
506.0066013684261
 20
84.88277877877704
 10
500.8942028985507
 20
84.88277877877704
 10
497.60099242963565
 20
90.29305312056624
 10
492.6599201000458
 20
84.88140247387254
 10
448.3756171870711
 20
86.2540964994769
 10
446.67502664775446
 20
91.84175112865955
 10
450.00000000000006
 20
97.30420735020562
 10
446.66666666666663
 20
102.78039782639614
 10
449.26398615482356
 20
107.04742269979661
 10
453.57698882168404
 20
102.79603435674845
 10
451.90080426697676
 20
100.04230258830083
 10
454.30348477882
 20
96.09504174741568
 10
458.31165627803006
 20
100.04595365377989
 10
453.32599594382185
 20
105.5064387817224
 10
454.99999999999994
 20
108.25658830258655
 10
451.6666666666667
 20
113.73277877877707
  0
LWPOLYLINE
  5
3F
330
17
100
AcDbEntity
  8
C
100
AcDbPolyline
 90
52
 70
1
 10
397.5915379215937
 20
96.0855434594905
 10
400.0
 20
100.04230258830083
 10
398.3333333333333
 20
102.78039782639614
 10
401.66666666666674
 20
108.25658830258655
 10
398.3238154452927
 20
113.74841530912938
 10
406.65714877862615
 20
121.96270102341511
 10
405.0
 20
124.68515973115801
 10
407.5915379215937
 20
128.94268631663343
 10
410.92487125492704
 20
126.2045910785381
 10
414.227536231884
 20
131.63039782639606
 10
420.8942028985507
 20
131.63039782639606
 10
423.3333333333333
 20
135.63754068353896
 10
421.661643316266
 20
138.3838885687211
 10
428.3283099829326
 20
146.5981742830068
 10
426.66666666666663
 20
149.32801687401508
 10
429.2701890604941
 20
153.605232235303
 10
435.2247501457035
 20
146.61773708429195
 10
433.55619755706664
 20
138.39415646886755
 10
435.23413760031013
 20
135.63754068353896
 10
431.9051418696621
 20
130.1684762689027
 10
439.3324579178349
 20
120.67801687401514
 10
442.67326803509275
 20
120.67801687401514
 10
446.8941740775273
 20
113.74367123287277
 10
444.3536742247272
 20
106.78754068353891
 10
439.3399347017595
 20
106.78754068353891
 10
436.0066013684262
 20
101.3113502073485
 10
432.67326803509275
 20
101.3113502073485
 10
430.23413760031013
 20
97.30420735020562
 10
435.23413760031013
 20
89.0899216359199
 10
432.67326803509275
 20
84.88277877877704
 10
429.227536231884
 20
84.88277877877704
 10
426.66666666666663
 20
89.0899216359199
 10
428.33333333333337
 20
91.82801687401509
 10
425.95040213348847
 20
95.74283241661752
 10
422.67326803509275
 20
90.35896925496756
 10
417.6611767262629
 20
90.35896925496756
 10
412.6611767262629
 20
84.88277877877704
 10
387.5729608740472
 20
84.88277877877704
 10
382.6170688001551
 20
90.31066057399228
 10
377.60918772581385
 20
84.82583844495184
 10
368.318228000991
 20
97.314336256889
 10
376.6571487786261
 20
105.53412959484365
 10
375.0
 20
108.25658830258655
 10
379.2582045882603
 20
115.25221012615717
 10
382.60281281535146
 20
112.5048533681895
 10
389.2954362307288
 20
120.7511215049939
 10
393.5504021334885
 20
113.7608203790319
 10
393.5504021334885
 20
105.49045146423653
 10
388.5674709336434
 20
97.30420735020562
 10
390.9504021334884
 20
93.3893918076033
 10
394.25820458826036
 20
98.8236386975858
 10
397.5915379215937
 20
96.0855434594905
  0
LWPOLYLINE
  5
40
330
17
100
AcDbEntity
  8
C
100
AcDbPolyline
 90
6
 70
1
 10
425.95040213348847
 20
109.81796323617476
 10
428.3504021334884
 20
113.7608203790319
 10
428.3504021334884
 20
119.18092765471266
 10
425.95040213348847
 20
123.12378479756991
 10
421.9008042669768
 20
116.47087401687229
 10
425.95040213348847
 20
109.81796323617476
  0
LWPOLYLINE
  5
41
330
17
100
AcDbEntity
  8
C
100
AcDbPolyline
 90
5
 70
1
 10
412.61706880015504
 20
112.55605847426997
 10
415.00000000000006
 20
116.47087401687229
 10
410.9504021334884
 20
123.12378479756991
 10
408.56747093364345
 20
119.20896925496749
 10
412.61706880015504
 20
112.55605847426997
  0
LWPOLYLINE
  5
42
330
17
100
AcDbEntity
  8
C
100
AcDbPolyline
 90
38
 70
1
 10
360.90629420738054
 20
271.0732549692533
 10
354.2275362318841
 20
271.0732549692533
 10
350.89420289855065
 20
276.54944544544367
 10
347.5608695652174
 20
276.54944544544367
 10
342.5608695652174
 20
284.7637311597294
 10
339.3399347017595
 20
284.7637311597294
 10
335.95040213348835
 20
279.19521336899857
 10
333.33694915315573
 20
283.4887432652594
 10
339.22043778596446
 20
295.91611211211034
 10
347.6732680350928
 20
295.91611211211034
 10
349.3399347017595
 20
293.1780168740151
 10
352.6666370263866
 20
293.1780168740151
 10
360.96713418263425
 20
282.2687920400896
 10
364.3092663453831
 20
285.01411488806195
 10
370.9504021334884
 20
274.1036775218889
 10
372.5608695652174
 20
276.74944544544365
 10
377.6732680350928
 20
276.74944544544365
 10
384.29981183734117
 20
265.862980627464
 10
389.23962754071385
 20
271.27325496925323
 10
394.33993470175943
 20
271.27325496925323
 10
395.9504021334884
 20
268.6274870456985
 10
400.9306528214902
 20
276.8093274617014
 10
405.21706880015506
 20
272.5841459970174
 10
405.21706880015506
 20
261.5618800356652
 10
400.97593301204984
 20
254.59429981234928
 10
397.58126296596384
 20
257.38277877877704
 10
394.33993470175943
 20
257.38277877877704
 10
392.6170688001551
 20
254.55235622614137
 10
390.9504021334884
 20
257.2904514642366
 10
389.2837354668217
 20
254.55235622614137
 10
385.9504021334884
 20
260.0285467023319
 10
384.33993470175943
 20
257.38277877877704
 10
380.8942028985507
 20
257.38277877877704
 10
375.8942028985507
 20
265.59706449306276
 10
369.2275362318841
 20
265.59706449306276
 10
367.6170688001551
 20
268.2428324166176
 10
365.96647850400785
 20
265.5311483586614
 10
360.90629420738054
 20
271.0732549692533
  0
LWPOLYLINE
  5
43
330
17
100
AcDbEntity
  8
C
100
AcDbPolyline
 90
62
 70
1
 10
1815.9504021334878
 20
131.33807051185565
 10
1812.6170688001548
 20
136.81426098804616
 10
1811.0066013684257
 20
134.16849306449132
 10
1807.5608695652172
 20
134.16849306449132
 10
1805.8942028985502
 20
136.9065883025866
 10
1800.8942028985505
 20
136.9065883025866
 10
1797.554976185296
 20
142.39246076007572
 10
1790.0170688001547
 20
143.76842798117295
 10
1790.0170688001547
 20
154.84299222165708
 10
1795.0048191102787
 20
160.3057663708407
 10
1793.3458733049647
 20
165.75658830258655
 10
1795.0048191102787
 20
171.2074102343326
 10
1790.0122512131684
 20
176.67546078831074
 10
1791.6802754206342
 20
190.37708820678202
 10
1790.0170688001547
 20
193.1094990832841
 10
1790.0170688001547
 20
201.3798679980794
 10
1791.6666666666665
 20
204.0899216359199
 10
1790.0170688001547
 20
206.79997527376037
 10
1790.0170688001547
 20
223.29341757481635
 10
1795.9536985184027
 20
230.25987081561738
 10
1803.5648315187634
 20
220.53453420404568
 10
1796.8953149492872
 20
204.09893980069484
 10
1799.283735466821
 20
200.17510609331757
 10
1800.9248712549265
 20
202.87125774520476
 10
1804.25820458826
 20
200.13316250710955
 10
1805.9368557271607
 20
202.89094652101713
 10
1811.9067693273414
 20
195.88543566366212
 10
1810.2341376003096
 20
193.13754068353893
 10
1811.9008042669766
 20
190.39944544544375
 10
1808.5674709336433
 20
184.9232549692532
 10
1812.625369262419
 20
178.25670771483593
 10
1821.6632602489149
 20
190.40504170317806
 10
1816.6666666666665
 20
198.61373115972947
 10
1818.3333333333328
 20
201.35182639782468
 10
1816.6666666666665
 20
204.0899216359199
 10
1819.227536231884
 20
208.29706449306272
 10
1822.6732680350924
 20
208.29706449306272
 10
1826.8924442858886
 20
201.36556065246901
 10
1825.225777619222
 20
195.88937017627862
 10
1827.6170688001546
 20
191.96082037903184
 10
1829.2837354668213
 20
194.69891561712714
 10
1831.0066013684257
 20
191.86849306449128
 10
1836.006601368426
 20
191.86849306449128
 10
1838.550402133488
 20
187.68939180760324
 10
1838.550402133488
 20
179.419022892808
 10
1835.9664785040075
 20
175.17400550151862
 10
1830.9664785040077
 20
180.65019597770905
 10
1828.5674709336433
 20
176.70896925496749
 10
1830.2257776192218
 20
173.98460827151675
 10
1828.540846725858
 20
168.44840676474936
 10
1820.2379537703534
 20
157.53603316608633
 10
1824.2739737138963
 20
150.90542897312253
 10
1830.92144924523
 20
164.5564947963959
 10
1835.2170688001545
 20
160.32224123511273
 10
1835.2170688001545
 20
154.7761657499508
 10
1831.8924442858884
 20
149.31428261937074
 10
1833.5591109525553
 20
143.83809214318032
 10
1831.8837354668217
 20
141.08568955947464
 10
1831.8837354668217
 20
135.5934215151905
 10
1824.2871822007944
 20
128.66005940730884
 10
1817.6425996787161
 20
134.11810933615885
 10
1815.9504021334878
 20
131.33807051185565
  0
LWPOLYLINE
  5
44
330
17
100
AcDbEntity
  8
C
100
AcDbPolyline
 90
7
 70
1
 10
1810.0046817613743
 20
165.76427976770202
 10
1805.93557242817
 20
175.12323123407148
 10
1803.5674709336429
 20
171.23277877877706
 10
1805.2341376003099
 20
168.49468354068176
 10
1801.894174077527
 20
163.00760061039577
 10
1804.3063724774106
 20
156.40277165833328
 10
1810.0046817613743
 20
165.76427976770202
  0
LWPOLYLINE
  5
45
330
17
100
AcDbEntity
  8
C
100
AcDbPolyline
 90
10
 70
1
 10
3150.0225467531536
 20
576.4338329224054
 10
3148.3546766361574
 20
584.6540499276022
 10
3143.337413905448
 20
595.6442444805843
 10
3145.8942028985507
 20
599.8446835406818
 10
3189.3399347017594
 20
599.8446835406818
 10
3191.8837354668217
 20
595.6655822837938
 10
3191.8837354668217
 20
560.0142609880459
 10
3189.3365447051656
 20
555.829590451039
 10
3160.8909917403516
 20
558.5785304434371
 10
3150.0225467531536
 20
576.4338329224054
  0
LWPOLYLINE
  5
46
330
17
100
AcDbEntity
  8
C
100
AcDbPolyline
 90
16
 70
1
 10
3060.0268291938487
 20
590.1143999057786
 10
3058.341693314421
 20
595.6512749381835
 10
3060.8942028985507
 20
599.8446835406818
 10
3139.33993470176
 20
599.8446835406818
 10
3141.906769327342
 20
595.6277409415111
 10
3136.0027570291995
 20
588.6995632447118
 10
3119.3341872159217
 20
585.9611553468162
 10
3114.3278433929295
 20
580.4780168740151
 10
3109.3399347017594
 20
580.4780168740151
 10
3107.673268035093
 20
577.7399216359199
 10
3097.652874634346
 20
577.7399216359199
 10
3090.98620796768
 20
572.2637311597294
 10
3081.006601368426
 20
572.2637311597294
 10
3079.3279002292124
 20
569.5058650024498
 10
3075.057021977756
 20
570.9091535707854
 10
3060.0268291938487
 20
590.1143999057786
  0
LWPOLYLINE
  5
47
330
17
100
AcDbEntity
  8
C
100
AcDbPolyline
 90
17
 70
1
 10
3116.6936959131967
 20
267.1105173028385
 10
3122.5305873469088
 20
282.17922682048214
 10
3127.572960874047
 20
287.70182639782473
 10
3134.2479296326305
 20
287.70182639782473
 10
3137.6425996787166
 20
290.4903053642525
 10
3140.217068800155
 20
286.260820379032
 10
3140.217068800155
 20
212.262363941489
 10
3127.6539781754973
 20
199.87874604004074
 10
3099.224325073685
 20
202.62614949105605
 10
3097.560869565217
 20
205.35896925496755
 10
3090.8942028985507
 20
205.35896925496755
 10
3088.3333333333335
 20
209.5661121121104
 10
3096.690245650269
 20
223.29532520421824
 10
3100.025233907774
 20
236.9925984046858
 10
3106.693763311839
 20
245.2091792775517
 10
3110.0250799432642
 20
256.1549339236633
 10
3116.6936959131967
 20
267.1105173028385
  0
LWPOLYLINE
  5
48
330
17
100
AcDbEntity
  8
C
100
AcDbPolyline
 90
115
 70
1
 10
2845.918729556757
 20
273.8113502073485
 10
2834.25206289009
 20
282.0256359216342
 10
2822.5729608740476
 20
282.0256359216342
 10
2817.572960874047
 20
287.50182639782474
 10
2812.5485639947856
 20
287.50182639782474
 10
2806.6799095269876
 20
302.65253640142555
 10
2808.3569527025998
 20
310.91796348122733
 10
2816.693290874452
 20
321.87429364994745
 10
2820.026624207785
 20
332.8266746023284
 10
2828.3504021334884
 20
343.766497018967
 10
2828.3504021334884
 20
346.49891561712695
 10
2834.227536231884
 20
356.15420735020564
 10
2837.5608695652177
 20
356.15420735020564
 10
2843.3333333333335
 20
365.63754068353893
 10
2839.2676590963024
 20
372.3168626443757
 10
2829.2935946385155
 20
361.3928872858475
 10
2822.540476164471
 20
366.94009174666996
 10
2818.3333333333335
 20
373.85182639782465
 10
2821.6732968561164
 20
379.3389093281108
 10
2819.2230052473005
 20
386.04804111415444
 10
2810.9062373710976
 20
383.31538881197366
 10
2808.3333333333335
 20
387.5423025883008
 10
2810.8942028985507
 20
391.74944544544365
 10
2815.894202898551
 20
391.74944544544365
 10
2817.5608695652177
 20
394.48754068353895
 10
2847.560869565217
 20
394.48754068353895
 10
2849.227536231884
 20
397.2256359216342
 10
2857.5608695652177
 20
397.2256359216342
 10
2859.227536231884
 20
399.9637311597294
 10
2880.889422632398
 20
399.9637311597294
 10
2890.0024831529354
 20
417.65727074181183
 10
2885.0000000000005
 20
425.8756359216341
 10
2887.560869565217
 20
430.08277877877697
 10
2899.227536231884
 20
430.08277877877697
 10
2900.894202898551
 20
432.8208740168723
 10
2904.3247360263895
 20
432.8208740168723
 10
2912.658069359723
 20
424.6065883025866
 10
2915.8942028985507
 20
424.6065883025866
 10
2917.6170688001553
 20
427.43701085522224
 10
2926.0066013684263
 20
413.65420735020564
 10
2931.0066013684263
 20
413.65420735020564
 10
2936.006601368426
 20
405.4399216359199
 10
2939.227536231884
 20
405.4399216359199
 10
2940.894202898551
 20
408.1780168740151
 10
2949.2361049360215
 20
408.1780168740151
 10
2955.902771602688
 20
416.3923025883008
 10
2974.33993470176
 20
416.3923025883008
 10
2977.6331451706747
 20
410.9820282465116
 10
2982.5729608740476
 20
416.3923025883008
 10
2989.3399347017594
 20
416.3923025883008
 10
2991.0066013684263
 20
413.65420735020564
 10
3020.907673172942
 20
413.65420735020564
 10
3029.9917118699927
 20
423.15115689712223
 10
3028.3333333333335
 20
425.8756359216341
 10
3032.560869565217
 20
432.8208740168723
 10
3039.3324579178347
 20
432.8208740168723
 10
3046.905141869662
 20
423.1446667450931
 10
3045.2341376003105
 20
420.39944544544375
 10
3047.6170688001553
 20
416.4846299028415
 10
3050.0
 20
420.39944544544375
 10
3046.6666666666665
 20
425.8756359216341
 10
3049.227536231884
 20
430.08277877877697
 10
3054.33993470176
 20
430.08277877877697
 10
3055.9504021334883
 20
427.43701085522247
 10
3057.5915379215935
 20
430.13316250710955
 10
3060.924871254927
 20
427.3950672690143
 10
3062.5608695652177
 20
430.08277877877697
 10
3067.6528746343465
 20
430.08277877877697
 10
3077.6936614358397
 20
421.8349896204078
 10
3081.006601368426
 20
416.3923025883008
 10
3086.006601368426
 20
416.3923025883008
 10
3091.0066013684263
 20
408.1780168740151
 10
3104.3399347017594
 20
408.1780168740151
 10
3107.673268035093
 20
402.7018263978247
 10
3127.572960874047
 20
402.7018263978247
 10
3132.633145170674
 20
408.24393300841643
 10
3138.550402133488
 20
398.52272514093676
 10
3138.550402133488
 20
357.39521336899827
 10
3129.337329144786
 20
342.2594506018446
 10
3092.5583709623843
 20
345.0059312453357
 10
3090.8942028985507
 20
347.7399216359199
 10
3080.9062942073806
 20
347.7399216359199
 10
3075.9664785040077
 20
353.150195977709
 10
3072.665894583609
 20
347.7278081084818
 10
3059.2209594595247
 20
350.48882157146346
 10
3057.600992429636
 20
353.150195977709
 10
3052.697450652753
 20
347.7796502220757
 10
3050.217068800155
 20
343.7047371785221
 10
3050.217068800155
 20
335.5465346647463
 10
3051.8837354668217
 20
332.80843942665103
 10
3051.8837354668217
 20
319.11796323617483
 10
3055.217068800155
 20
313.6417727599844
 10
3055.217068800155
 20
297.21320133141296
 10
3056.900804266977
 20
294.4470644930628
 10
3054.33993470176
 20
290.2399216359199
 10
3037.5608695652177
 20
290.2399216359199
 10
3035.8942028985507
 20
292.97801687401517
 10
2997.6666370263865
 20
292.97801687401517
 10
2980.9928215277923
 20
271.0638593615776
 10
2965.912460972156
 20
273.8166235899875
 10
2957.5871523515348
 20
279.287540683539
 10
2952.5608695652177
 20
279.287540683539
 10
2950.8942028985507
 20
282.0256359216342
 10
2940.894202898551
 20
282.0256359216342
 10
2939.266008307906
 20
284.70052703483674
 10
2920.9868616803997
 20
265.59051010608005
 10
2911.7388281764784
 20
266.97170991510734
 10
2904.236654648852
 20
273.8189317855598
 10
2890.8984604925295
 20
276.55802522837604
 10
2885.9062942073806
 20
282.0256359216342
 10
2879.227536231884
 20
282.0256359216342
 10
2877.5729040377646
 20
284.74396024054505
 10
2869.337232506001
 20
282.03795388010855
 10
2860.991402693056
 20
273.8113502073485
 10
2845.918729556757
 20
273.8113502073485
  0
LWPOLYLINE
  5
49
330
17
100
AcDbEntity
  8
C
100
AcDbPolyline
 90
5
 70
1
 10
3056.8961225056028
 20
371.10603969461386
 10
3060.9423236327902
 20
361.79977710208175
 10
3063.339963522783
 20
368.36474346753835
 10
3059.283735466822
 20
375.02854670233165
 10
3056.8961225056028
 20
371.10603969461386
  0
LWPOLYLINE
  5
4A
330
17
100
AcDbEntity
  8
C
100
AcDbPolyline
 90
5
 70
1
 10
3030.9504021334888
 20
413.36188003566497
 10
3028.567470933644
 20
409.4470644930628
 10
3032.617068800155
 20
402.79415371236536
 10
3034.9999999999995
 20
406.7089692549675
 10
3030.9504021334888
 20
413.36188003566497
  0
LWPOLYLINE
  5
4B
330
17
100
AcDbEntity
  8
C
100
AcDbPolyline
 90
7
 70
1
 10
3019.283735466822
 20
369.93701085522247
 10
3021.6666666666665
 20
373.85182639782465
 10
3015.9504021334883
 20
383.2428324166174
 10
3011.9008042669766
 20
376.5899216359199
 10
3014.283735466822
 20
372.67510609331765
 10
3015.9504021334883
 20
375.413201331413
 10
3019.283735466822
 20
369.93701085522247
  0
LWPOLYLINE
  5
4C
330
17
100
AcDbEntity
  8
C
100
AcDbPolyline
 90
10
 70
1
 10
2899.283735466822
 20
418.8380705118556
 10
2896.9008042669766
 20
414.9232549692532
 10
2900.2341376003105
 20
409.4470644930628
 10
2896.0066013684263
 20
402.50182639782474
 10
2892.6732680350924
 20
402.50182639782474
 10
2890.23413760031
 20
398.4946835406819
 10
2894.292035929086
 20
391.82813628626445
 10
2903.3597954664815
 20
404.01661826185466
 10
2905.008359981088
 20
409.4333302384184
 10
2899.283735466822
 20
418.8380705118556
  0
LWPOLYLINE
  5
4D
330
17
100
AcDbEntity
  8
C
100
AcDbPolyline
 90
7
 70
1
 10
2852.6732680350924
 20
386.07325496925324
 10
2850.23413760031
 20
382.0661121121104
 10
2852.6732680350924
 20
378.0589692549675
 10
2864.2275362318837
 20
378.0589692549675
 10
2866.6666666666665
 20
382.0661121121104
 10
2864.2275362318837
 20
386.07325496925324
 10
2852.6732680350924
 20
386.07325496925324
  0
LWPOLYLINE
  5
4E
330
17
100
AcDbEntity
  8
C
100
AcDbPolyline
 90
10
 70
1
 10
2839.33993470176
 20
386.07325496925324
 10
2837.6170688001553
 20
383.2428324166176
 10
2835.9504021334883
 20
385.9809276547128
 10
2833.5734359940084
 20
382.07591185413827
 10
2839.2701890604944
 20
375.3909465210172
 10
2840.8942028985507
 20
378.0589692549675
 10
2845.8942028985507
 20
378.0589692549675
 10
2848.333333333333
 20
382.0661121121104
 10
2845.8942028985507
 20
386.07325496925324
 10
2839.33993470176
 20
386.07325496925324
  0
LWPOLYLINE
  5
4F
330
17
100
AcDbEntity
  8
C
100
AcDbPolyline
 90
30
 70
1
 10
2829.283735466822
 20
544.7904514642365
 10
2826.683735466822
 20
549.0618800356651
 10
2826.683735466822
 20
554.5380705118556
 10
2825.0170688001554
 20
557.2761657499509
 10
2825.0170688001554
 20
595.6655822837936
 10
2827.5608695652177
 20
599.8446835406818
 10
3049.33993470176
 20
599.8446835406818
 10
3051.900804266977
 20
595.6375406835389
 10
3046.006601368426
 20
585.9542073502056
 10
3042.673268035093
 20
585.9542073502056
 10
3037.6885735665287
 20
577.7650664375642
 10
3032.6885735665282
 20
575.026971199469
 10
3026.007422136008
 20
564.0507938493276
 10
2912.6656277854318
 20
561.3124941959
 10
2906.0047419399807
 20
553.1053312791834
 10
2891.0124947483473
 20
550.3686512362661
 10
2889.33993470176
 20
547.6208740168723
 10
2875.9862079676795
 20
547.6208740168723
 10
2872.591537921594
 20
544.8323950504445
 10
2870.924871254927
 20
547.5704902885398
 10
2864.319541301013
 20
542.1446835406817
 10
2859.227536231884
 20
542.1446835406817
 10
2855.9504021334888
 20
547.5285467023318
 10
2852.6425996787166
 20
542.0942998123493
 10
2849.2479296326305
 20
544.882778778777
 10
2842.560869565217
 20
544.882778778777
 10
2840.924871254927
 20
547.5704902885398
 10
2834.2582045882605
 20
542.0942998123493
 10
2830.9504021334883
 20
547.5285467023318
 10
2829.283735466822
 20
544.7904514642365
  0
LWPOLYLINE
  5
50
330
17
100
AcDbEntity
  8
C
100
AcDbPolyline
 90
30
 70
1
 10
2834.227536231884
 20
164.2875406835389
 10
2830.8942028985507
 20
164.2875406835389
 10
2827.5608695652177
 20
169.76373115972942
 10
2822.560869565217
 20
169.76373115972942
 10
2820.0
 20
173.97087401687227
 10
2821.683735466822
 20
176.7370108552223
 10
2821.683735466822
 20
187.68939180760324
 10
2825.0170688001554
 20
193.16558228379378
 10
2825.0170688001554
 20
198.6417727599843
 10
2827.5608695652177
 20
202.8208740168722
 10
2834.2538190182013
 20
202.8208740168722
 10
2842.5819199248863
 20
208.2936260412651
 10
2866.0024649336947
 20
211.0419553025028
 10
2867.6732680350933
 20
208.29706449306272
 10
2876.0159667961316
 20
208.29706449306272
 10
2880.2139706389876
 20
198.6416556544942
 10
2881.879580824731
 20
187.69621729103804
 10
2886.876790497723
 20
179.48651568540853
 10
2891.876790497723
 20
160.31984901874185
 10
2895.23413760031
 20
154.80420735020562
 10
2877.628769564062
 20
125.88110271922682
 10
2870.902771602688
 20
134.16849306449132
 10
2867.5608695652177
 20
134.16849306449132
 10
2864.2275362318837
 20
139.64468354068183
 10
2859.227536231884
 20
139.64468354068183
 10
2854.227536231884
 20
147.85896925496755
 10
2850.9027716026885
 20
147.85896925496755
 10
2844.22215759121
 20
156.09044009053918
 10
2837.5487151006305
 20
158.8313182563128
 10
2834.227536231884
 20
164.2875406835389
  0
LWPOLYLINE
  5
51
330
17
100
AcDbEntity
  8
C
100
AcDbPolyline
 90
63
 70
1
 10
3276.683735466822
 20
108.29106698999225
 10
3284.225391365706
 20
117.92762730523243
 10
3294.218984998357
 20
120.66396841893456
 10
3295.924871254927
 20
123.46649584044289
 10
3299.3195413010135
 20
120.67801687401514
 10
3317.548563994786
 20
120.67801687401514
 10
3323.350402133489
 20
135.65623166066644
 10
3323.350402133489
 20
141.13142061589912
 10
3328.350402133489
 20
154.82189680637526
 10
3328.350402133489
 20
160.29527826297252
 10
3331.6902079638044
 20
171.26892599115317
 10
3337.6060510199586
 20
183.76463530364117
 10
3339.33993470176
 20
180.91611211211034
 10
3359.33993470176
 20
180.91611211211034
 10
3361.0066013684263
 20
178.17801687401513
 10
3394.3399347017594
 20
178.17801687401513
 10
3396.883735466822
 20
173.9989156171271
 10
3396.883735466822
 20
143.8798679980795
 10
3399.33993470176
 20
139.8446835406818
 10
3402.6732680350933
 20
139.8446835406818
 10
3404.33993470176
 20
137.1065883025866
 10
3415.98620796768
 20
137.1065883025866
 10
3422.6528746343465
 20
131.63039782639606
 10
3434.3399347017594
 20
131.63039782639606
 10
3436.0066013684263
 20
128.89230258830088
 10
3442.6732680350933
 20
128.89230258830088
 10
3444.33993470176
 20
126.15420735020555
 10
3452.6732680350933
 20
126.15420735020555
 10
3454.33993470176
 20
123.41611211211034
 10
3457.570901246429
 20
123.41611211211034
 10
3475.020727366226
 20
143.8929488853412
 10
3476.68569107195
 20
160.30473398461976
 10
3480.0194083513106
 20
168.51996585161567
 10
3481.687079797619
 20
182.2186955891506
 10
3484.227536231884
 20
186.39230258830085
 10
3489.227536231884
 20
186.39230258830085
 10
3490.8942028985507
 20
189.13039782639606
 10
3527.661176726263
 20
189.13039782639606
 10
3532.6611767262634
 20
183.65420735020555
 10
3537.6611767262634
 20
183.65420735020555
 10
3542.673219723019
 20
178.16482692518733
 10
3551.016649277075
 20
175.42341435742625
 10
3555.2257776192228
 20
168.5084177953262
 10
3553.5504021334887
 20
163.00361262791498
 10
3553.5504021334887
 20
149.29997527376025
 10
3545.2076168425124
 20
135.5939708671564
 10
3540.2058111257597
 20
121.89855045223862
 10
3531.8867054238763
 20
110.96486867262013
 10
3533.5479975865996
 20
91.86000880130207
 10
3536.883735466822
 20
86.3798679980795
 10
3536.883735466822
 20
80.90367752188898
 10
3539.338397380207
 20
76.87101866418556
 10
3601.005064046873
 20
79.60911390228087
 10
3612.6732680350933
 20
60.43992163591994
 10
3616.002367981843
 20
60.43992163591994
 10
3628.5698532588167
 20
42.54621640822786
 10
3626.006458200282
 20
38.33492452634923
 10
3298.3847184693
 20
39.704481053759785
 10
3294.1986646800556
 20
49.33240476902223
 10
3289.239627540714
 20
54.76373115972943
 10
3285.900159651374
 20
54.76373115972943
 10
3276.683735466822
 20
67.15204158961441
 10
3276.683735466822
 20
108.29106698999225
  0
LWPOLYLINE
  5
52
330
17
100
AcDbEntity
  8
C
100
AcDbPolyline
 90
42
 70
1
 10
3438.4616760283557
 20
475.05979484697747
 10
3424.2243250736856
 20
476.4356733005799
 10
3421.680275420635
 20
480.6151834448773
 10
3423.3537464642855
 20
494.3615527320077
 10
3425.0170688001554
 20
497.0941537123651
 10
3425.0170688001554
 20
505.2523562261414
 10
3419.2582045882605
 20
514.7133474313969
 10
3415.98620796768
 20
512.0256359216341
 10
3404.3195413010135
 20
512.0256359216341
 10
3397.6528746343465
 20
506.54944544544367
 10
3386.006601368427
 20
506.54944544544367
 10
3384.33993470176
 20
503.8113502073485
 10
3377.673268035093
 20
503.8113502073485
 10
3375.9504021334888
 20
500.9809276547128
 10
3372.6170688001553
 20
506.4571181309032
 10
3369.33993470176
 20
501.07325496925324
 10
3366.0066013684263
 20
501.07325496925324
 10
3364.347371673193
 20
498.34737761279814
 10
3352.5725019274737
 20
495.5838877745171
 10
3334.2303459217233
 20
522.9780168740151
 10
3332.5608695652177
 20
522.9780168740151
 10
3323.350402133489
 20
538.1094990832842
 10
3323.350402133489
 20
540.9036775218889
 10
3325.8942028985507
 20
545.082778778777
 10
3552.6732680350933
 20
545.082778778777
 10
3555.217068800155
 20
540.9036775218889
 10
3555.217068800155
 20
502.5703441885555
 10
3556.883735466822
 20
499.8322489504603
 10
3556.883735466822
 20
486.08568955947476
 10
3554.3465114741193
 20
481.9173930000348
 10
3540.9237898318197
 20
479.16094123420527
 10
3534.207142831138
 20
484.67818698476515
 10
3524.2275362318846
 20
501.07325496925324
 10
3510.98620796768
 20
501.07325496925324
 10
3504.319541301013
 20
495.59706449306276
 10
3492.646985248776
 20
495.59706449306276
 10
3484.3136519154427
 20
490.12087401687234
 10
3479.3247360263895
 20
490.12087401687234
 10
3470.9914026930564
 20
481.9065883025866
 10
3452.6732680350933
 20
481.9065883025866
 10
3451.016649277075
 20
479.18500034298495
 10
3438.4616760283557
 20
475.05979484697747
  0
LWPOLYLINE
  5
53
330
17
100
AcDbEntity
  8
C
100
AcDbPolyline
 90
7
 70
1
 10
3508.333333333334
 20
346.47087401687224
 10
3510.894202898551
 20
350.6780168740151
 10
3527.6732680350933
 20
350.6780168740151
 10
3530.2341376003105
 20
346.47087401687224
 10
3527.67053599723
 20
342.259242811812
 10
3510.058254883373
 20
343.6370743275219
 10
3508.333333333334
 20
346.47087401687224
  0
LWPOLYLINE
  5
54
330
17
100
AcDbEntity
  8
C
100
AcDbPolyline
 90
11
 70
1
 10
3484.2427232471073
 20
345.22677649426237
 10
3485.8942028985507
 20
347.9399216359199
 10
3491.0066013684263
 20
347.9399216359199
 10
3493.5674709336436
 20
343.73277877877706
 10
3491.0066013684263
 20
339.5256359216342
 10
3485.8942028985507
 20
339.5256359216342
 10
3484.2582045882605
 20
342.21334743139687
 10
3480.9550640857155
 20
339.5000534471634
 10
3474.983010171375
 20
343.70486691746424
 10
3477.5760565804403
 20
347.96487173235755
 10
3484.2427232471073
 20
345.22677649426237
  0
LWPOLYLINE
  5
55
330
17
100
AcDbEntity
  8
C
100
AcDbPolyline
 90
10
 70
1
 10
3444.227536231884
 20
347.9399216359199
 10
3445.9504021334888
 20
350.77034418855555
 10
3447.6732680350933
 20
347.9399216359199
 10
3452.6732680350933
 20
347.9399216359199
 10
3455.23413760031
 20
343.73277877877706
 10
3452.669878038499
 20
339.52006664151537
 10
3438.390991740352
 20
340.8999590148657
 10
3436.666666666667
 20
343.73277877877706
 10
3439.227536231884
 20
347.9399216359199
 10
3444.227536231884
 20
347.9399216359199
  0
LWPOLYLINE
  5
56
330
17
100
AcDbEntity
  8
C
100
AcDbPolyline
 90
40
 70
1
 10
3382.6170688001553
 20
353.5084394266508
 10
3384.227536231884
 20
356.15420735020564
 10
3390.894202898551
 20
356.15420735020564
 10
3392.5608695652177
 20
358.8923025883008
 10
3414.33993470176
 20
358.8923025883008
 10
3419.33993470176
 20
350.6780168740151
 10
3422.673268035093
 20
350.6780168740151
 10
3424.2837354668222
 20
348.03224895046037
 10
3426.666666666667
 20
351.9470644930628
 10
3423.333333333334
 20
357.4232549692532
 10
3425.8942028985507
 20
361.63039782639606
 10
3432.581262965964
 20
361.63039782639606
 10
3435.97593301205
 20
364.41887679282394
 10
3438.5608407441946
 20
360.1722426614441
 10
3436.0366186279593
 20
353.2606821050861
 10
3431.9103221550176
 20
349.1933327246152
 10
3435.2341376003105
 20
343.73277877877706
 10
3432.6732680350933
 20
339.5256359216342
 10
3425.914596299297
 20
339.5256359216342
 10
3422.6425996787166
 20
342.21334743139687
 10
3420.9504021334888
 20
339.43330860709375
 10
3419.2275362318846
 20
342.2637311597294
 10
3414.2275362318846
 20
342.2637311597294
 10
3410.8942028985507
 20
347.7399216359199
 10
3402.661176726263
 20
347.7399216359199
 10
3397.647303912466
 20
342.24853712557115
 10
3389.327900229213
 20
344.98205547864035
 10
3387.6732680350933
 20
342.2637311597294
 10
3384.227536231884
 20
342.2637311597294
 10
3382.6170688001553
 20
344.9094990832843
 10
3381.0066013684263
 20
342.2637311597294
 10
3374.2275362318846
 20
342.2637311597294
 10
3372.5608695652177
 20
345.00182639782474
 10
3369.33993470176
 20
345.00182639782474
 10
3367.6781453237327
 20
342.27174384820927
 10
3358.3873342820502
 20
340.88415518613976
 10
3355.0054893176894
 20
349.2179874197424
 10
3359.227536231884
 20
356.15420735020564
 10
3381.0066013684263
 20
356.15420735020564
 10
3382.6170688001553
 20
353.5084394266508
  0
LWPOLYLINE
  5
57
330
17
100
AcDbEntity
  8
C
100
AcDbPolyline
 90
64
 70
1
 10
3295.9504021334888
 20
292.8856895594747
 10
3293.3416933144213
 20
297.17142547651366
 10
3295.0083599810882
 20
302.6476159527042
 10
3292.536686947558
 20
306.70822165064646
 10
3287.5729608740476
 20
312.1446835406818
 10
3281.0066013684263
 20
312.1446835406818
 10
3279.2837354668222
 20
309.31426098804616
 10
3273.3504021334884
 20
319.0618800356652
 10
3273.3504021334884
 20
321.8560584742699
 10
3275.894202898551
 20
326.03515973115805
 10
3292.5608695652177
 20
326.03515973115805
 10
3294.2275362318846
 20
328.77325496925323
 10
3302.6732680350933
 20
328.77325496925323
 10
3305.2341376003105
 20
324.5661121121104
 10
3301.9103221550176
 20
319.10555816627215
 10
3305.953049517629
 20
315.1205840516981
 10
3313.3221653109917
 20
321.84636433929114
 10
3311.666666666667
 20
324.5661121121104
 10
3314.2275362318846
 20
328.77325496925323
 10
3319.3333036930535
 20
328.77325496925323
 10
3327.6078773257373
 20
317.89810105201167
 10
3329.2837354668222
 20
320.65129656950796
 10
3330.97593301205
 20
317.87125774520484
 10
3334.309266345383
 20
320.6093529833001
 10
3335.9504021334888
 20
317.9132013314128
 10
3338.333333333334
 20
321.8280168740152
 10
3336.6571487786264
 20
324.5817486424627
 10
3340.982005839169
 20
328.8448220307115
 10
3346.01467775853
 20
317.8208740168723
 10
3349.33993470176
 20
317.8208740168723
 10
3353.5608407441946
 20
310.8865283757297
 10
3351.0266181903503
 20
303.9475856687758
 10
3341.015152601954
 20
301.20635104338146
 10
3338.567470933644
 20
297.185159731158
 10
3341.900804266977
 20
291.7089692549675
 10
3337.673268035093
 20
284.7637311597294
 10
3332.5608695652177
 20
284.7637311597294
 10
3330.9504021334888
 20
287.4094990832843
 10
3329.2837354668222
 20
284.671403845189
 10
3327.591537921594
 20
287.45144266949217
 10
3324.2582045882605
 20
284.71334743139687
 10
3320.0000000000005
 20
291.7089692549675
 10
3322.5608695652177
 20
295.91611211211034
 10
3330.894202898551
 20
295.91611211211034
 10
3333.3333333333335
 20
299.9232549692532
 10
3327.5608695652177
 20
309.4065883025866
 10
3322.552793175114
 20
309.4065883025866
 10
3317.552793175114
 20
320.3589692549675
 10
3316.0066013684263
 20
320.3589692549675
 10
3313.5674709336436
 20
316.35182639782465
 10
3315.2341376003105
 20
313.61373115972947
 10
3312.673268035093
 20
309.4065883025866
 10
3307.5608695652177
 20
309.4065883025866
 10
3305.9504021334888
 20
312.05235622614134
 10
3303.5674709336436
 20
308.13754068353893
 10
3306.900804266977
 20
302.6613502073485
 10
3305.2391609507113
 20
299.9315076163401
 10
3311.9058276173782
 20
291.7172219020544
 10
3307.6469064915923
 20
284.72042290969233
 10
3301.649676838042
 20
288.9429621555595
 10
3303.3333333333335
 20
291.7089692549675
 10
3300.8942028985507
 20
295.71611211211035
 10
3297.673268035093
 20
295.71611211211035
 10
3295.9504021334888
 20
292.8856895594747
  0
LWPOLYLINE
  5
58
330
17
100
AcDbEntity
  8
C
100
AcDbPolyline
 90
5
 70
1
 10
3348.3333333333335
 20
343.73277877877706
 10
3350.9504021334888
 20
348.03224895046037
 10
3353.5674709336436
 20
343.73277877877706
 10
3350.9504021334888
 20
339.43330860709375
 10
3348.3333333333335
 20
343.73277877877706
  0
LWPOLYLINE
  5
59
330
17
100
AcDbEntity
  8
C
100
AcDbPolyline
 90
5
 70
1
 10
3305.9504021334888
 20
276.8417727599841
 10
3308.5674709336436
 20
272.5423025883008
 10
3305.9504021334888
 20
268.2428324166176
 10
3303.3333333333335
 20
272.5423025883008
 10
3305.9504021334888
 20
276.8417727599841
  0
LWPOLYLINE
  5
5A
330
17
100
AcDbEntity
  8
C
100
AcDbPolyline
 90
7
 70
1
 10
3294.3314626216
 20
268.32124131375315
 10
3288.3867659271177
 20
269.7164252318458
 10
3286.666666666667
 20
272.5423025883008
 10
3289.2275362318846
 20
276.74944544544365
 10
3294.33993470176
 20
276.74944544544365
 10
3296.900804266977
 20
272.5423025883008
 10
3294.3314626216
 20
268.32124131375315
  0
LWPOLYLINE
  5
5B
330
17
100
AcDbEntity
  8
C
100
AcDbPolyline
 90
14
 70
1
 10
4770.878897367115
 20
391.57459024708794
 10
4767.560869565217
 20
397.0256359216342
 10
4762.583146555186
 20
397.0256359216342
 10
4750.0154759205225
 20
406.66085007487607
 10
4750.853554490747
 20
432.8208740168723
 10
4814.33993470176
 20
432.8208740168723
 10
4816.900804266977
 20
428.61373115972947
 10
4812.673268035093
 20
421.6684930644914
 10
4809.3195413010135
 20
421.6684930644914
 10
4802.690341300934
 20
416.2230787787119
 10
4792.6846641868215
 20
402.5248303486769
 10
4782.682333217943
 20
397.0473633895289
 10
4775.9755038326375
 20
388.78359146834964
 10
4770.878897367115
 20
391.57459024708794
  0
LWPOLYLINE
  5
5C
330
17
100
AcDbEntity
  8
C
100
AcDbPolyline
 90
13
 70
1
 10
4787.682633462799
 20
82.34468354068181
 10
4791.900326370578
 20
72.64398985279075
 10
4785.996569687215
 20
65.71611211211037
 10
4781.006601368426
 20
65.71611211211037
 10
4776.883735466822
 20
58.94283241661746
 10
4776.883735466822
 20
23.415761653114544
 10
4795.242425730317
 20
4.222585468550921
 10
4792.672156314678
 20
0.0
 10
4750.017068800155
 20
1.374043435341754
 10
4750.017068800155
 20
83.70914738399871
 10
4779.338308455026
 20
85.08545046983951
 10
4781.006601368426
 20
82.34468354068181
 10
4787.682633462799
 20
82.34468354068181
  0
LWPOLYLINE
  5
5D
330
17
100
AcDbEntity
  8
C
100
AcDbPolyline
 90
5
 70
1
 10
4785.243655488351
 20
198.62936769008178
 10
4782.636818112153
 20
194.346706286329
 10
4778.323815445293
 20
198.59809462937716
 10
4780.930652821491
 20
202.88075603312984
 10
4785.243655488351
 20
198.62936769008178
  0
LWPOLYLINE
  5
5E
330
17
100
AcDbEntity
  8
C
100
AcDbPolyline
 90
18
 70
1
 10
4750.017068800155
 20
220.5572779359428
 10
4754.992662610489
 20
226.00673782345072
 10
4750.0
 20
234.20896925496749
 10
4752.560869565218
 20
238.41611211211034
 10
4759.3195413010135
 20
238.41611211211034
 10
4762.591537921594
 20
235.72840060234768
 10
4764.227536231885
 20
238.41611211211034
 10
4774.33993470176
 20
238.41611211211034
 10
4776.900804266977
 20
234.20896925496749
 10
4774.33993470176
 20
230.00182639782463
 10
4767.673268035093
 20
230.00182639782463
 10
4765.239160950711
 20
226.00293618776868
 10
4771.905827617377
 20
217.78865047348305
 10
4767.673268035093
 20
210.83515973115797
 10
4762.673268035093
 20
210.83515973115797
 10
4755.950402133489
 20
199.79045146423658
 10
4750.017068800155
 20
209.5380705118557
 10
4750.017068800155
 20
220.5572779359428
  0
LWPOLYLINE
  5
5F
330
17
100
AcDbEntity
  8
C
100
AcDbPolyline
 90
5
 70
1
 10
4774.283735466822
 20
191.57616574995083
 10
4771.666666666666
 20
195.87563592163414
 10
4774.283735466822
 20
200.17510609331757
 10
4776.900804266977
 20
195.87563592163414
 10
4774.283735466822
 20
191.57616574995083
  0
LWPOLYLINE
  5
60
330
17
100
AcDbEntity
  8
C
100
AcDbPolyline
 90
6
 70
1
 10
4767.646906491592
 20
191.62518481445434
 10
4761.649676838042
 20
195.84772406032147
 10
4764.227536231885
 20
200.082778778777
 10
4767.673268035093
 20
200.082778778777
 10
4770.2341376003105
 20
195.87563592163414
 10
4767.646906491592
 20
191.62518481445434
  0
LWPOLYLINE
  5
61
330
17
100
AcDbEntity
  8
C
100
AcDbPolyline
 90
5
 70
1
 10
4755.000000000001
 20
195.87563592163414
 10
4757.617068800156
 20
200.17510609331757
 10
4760.2341376003105
 20
195.87563592163414
 10
4757.617068800156
 20
191.57616574995083
 10
4755.000000000001
 20
195.87563592163414
  0
ENDSEC
  0
SECTION
  2
OBJECTS
  0
DICTIONARY
  5
A
330
0
100
AcDbDictionary
281
1
  3
ACAD_COLOR
350
B
  3
ACAD_GROUP
350
C
  3
ACAD_LAYOUT
350
D
  3
ACAD_MATERIAL
350
E
  3
ACAD_MLEADERSTYLE
350
F
  3
ACAD_MLINESTYLE
350
10
  3
ACAD_PLOTSETTINGS
350
11
  3
ACAD_PLOTSTYLENAME
350
12
  3
ACAD_SCALELIST
350
14
  3
ACAD_TABLESTYLE
350
15
  3
ACAD_VISUALSTYLE
350
16
  3
EZDXF_META
350
2D
  0
DICTIONARY
  5
B
330
A
100
AcDbDictionary
281
1
  0
DICTIONARY
  5
C
330
A
100
AcDbDictionary
281
1
  0
DICTIONARY
  5
D
330
A
100
AcDbDictionary
281
1
  3
Model
350
1A
  3
Layout1
350
1E
  0
DICTIONARY
  5
E
330
A
100
AcDbDictionary
281
1
  3
ByBlock
350
1F
  3
ByLayer
350
20
  3
Global
350
21
  0
DICTIONARY
  5
F
330
A
100
AcDbDictionary
281
1
  3
Standard
350
2C
  0
DICTIONARY
  5
10
330
A
100
AcDbDictionary
281
1
  3
Standard
350
22
  0
DICTIONARY
  5
11
330
A
100
AcDbDictionary
281
1
  0
ACDBDICTIONARYWDFLT
  5
12
330
A
100
AcDbDictionary
281
1
  3
Normal
350
13
100
AcDbDictionaryWithDefault
340
13
  0
ACDBPLACEHOLDER
  5
13
330
12
  0
DICTIONARY
  5
14
330
A
100
AcDbDictionary
281
1
  0
DICTIONARY
  5
15
330
A
100
AcDbDictionary
281
1
  0
DICTIONARY
  5
16
330
A
100
AcDbDictionary
281
1
  0
LAYOUT
  5
1A
330
D
100
AcDbPlotSettings
  1

  4
A3
  6

 40
7.5
 41
20.0
 42
7.5
 43
20.0
 44
420.0
 45
297.0
 46
0.0
 47
0.0
 48
0.0
 49
0.0
140
0.0
141
0.0
142
1.0
143
1.0
 70
1024
 72
1
 73
0
 74
5
  7

 75
16
 76
0
 77
2
 78
300
147
1.0
148
0.0
149
0.0
100
AcDbLayout
  1
Model
 70
1
 71
0
 10
0.0
 20
0.0
 11
420.0
 21
297.0
 12
0.0
 22
0.0
 32
0.0
 14
1e+20
 24
1e+20
 34
1e+20
 15
-1e+20
 25
-1e+20
 35
-1e+20
146
0.0
 13
0.0
 23
0.0
 33
0.0
 16
1.0
 26
0.0
 36
0.0
 17
0.0
 27
1.0
 37
0.0
 76
1
330
17
  0
LAYOUT
  5
1E
330
D
100
AcDbPlotSettings
  1

  4
A3
  6

 40
7.5
 41
20.0
 42
7.5
 43
20.0
 44
420.0
 45
297.0
 46
0.0
 47
0.0
 48
0.0
 49
0.0
140
0.0
141
0.0
142
1.0
143
1.0
 70
0
 72
1
 73
0
 74
5
  7

 75
16
 76
0
 77
2
 78
300
147
1.0
148
0.0
149
0.0
100
AcDbLayout
  1
Layout1
 70
1
 71
1
 10
0.0
 20
0.0
 11
420.0
 21
297.0
 12
0.0
 22
0.0
 32
0.0
 14
1e+20
 24
1e+20
 34
1e+20
 15
-1e+20
 25
-1e+20
 35
-1e+20
146
0.0
 13
0.0
 23
0.0
 33
0.0
 16
1.0
 26
0.0
 36
0.0
 17
0.0
 27
1.0
 37
0.0
 76
1
330
1B
  0
MATERIAL
  5
1F
102
{ACAD_REACTORS
330
E
102
}
330
E
100
AcDbMaterial
  1
ByBlock
  2

 70
0
 40
1.0
 71
1
 41
1.0
 91
-1023410177
 42
1.0
 72
1
  3

 73
1
 74
1
 75
1
 44
0.5
 73
0
 45
1.0
 46
1.0
 77
1
  4

 78
1
 79
1
170
1
 48
1.0
171
1
  6

172
1
173
1
174
1
140
1.0
141
1.0
175
1
  7

176
1
177
1
178
1
143
1.0
179
1
  8

270
1
271
1
272
1
145
1.0
146
1.0
273
1
  9

274
1
275
1
276
1
 42
1.0
 72
1
  3

 73
1
 74
1
 75
1
 94
63
  0
MATERIAL
  5
20
102
{ACAD_REACTORS
330
E
102
}
330
E
100
AcDbMaterial
  1
ByLayer
  2

 70
0
 40
1.0
 71
1
 41
1.0
 91
-1023410177
 42
1.0
 72
1
  3

 73
1
 74
1
 75
1
 44
0.5
 73
0
 45
1.0
 46
1.0
 77
1
  4

 78
1
 79
1
170
1
 48
1.0
171
1
  6

172
1
173
1
174
1
140
1.0
141
1.0
175
1
  7

176
1
177
1
178
1
143
1.0
179
1
  8

270
1
271
1
272
1
145
1.0
146
1.0
273
1
  9

274
1
275
1
276
1
 42
1.0
 72
1
  3

 73
1
 74
1
 75
1
 94
63
  0
MATERIAL
  5
21
102
{ACAD_REACTORS
330
E
102
}
330
E
100
AcDbMaterial
  1
Global
  2

 70
0
 40
1.0
 71
1
 41
1.0
 91
-1023410177
 42
1.0
 72
1
  3

 73
1
 74
1
 75
1
 44
0.5
 73
0
 45
1.0
 46
1.0
 77
1
  4

 78
1
 79
1
170
1
 48
1.0
171
1
  6

172
1
173
1
174
1
140
1.0
141
1.0
175
1
  7

176
1
177
1
178
1
143
1.0
179
1
  8

270
1
271
1
272
1
145
1.0
146
1.0
273
1
  9

274
1
275
1
276
1
 42
1.0
 72
1
  3

 73
1
 74
1
 75
1
 94
63
  0
MLINESTYLE
  5
22
102
{ACAD_REACTORS
330
10
102
}
330
10
100
AcDbMlineStyle
  2
Standard
 70
0
  3

 62
256
 51
90.0
 52
90.0
 71
2
 49
0.5
 62
256
  6
BYLAYER
 49
-0.5
 62
256
  6
BYLAYER
  0
MLEADERSTYLE
  5
2C
102
{ACAD_REACTORS
330
F
102
}
330
F
100
AcDbMLeaderStyle
179
2
170
2
171
1
172
0
 90
2
 40
0.0
 41
0.0
173
1
 91
-1056964608
 92
-2
290
1
 42
2.0
291
1
 43
8.0
  3
Standard
 44
4.0
300

342
29
174
1
175
1
176
0
178
1
 93
-1056964608
 45
4.0
292
0
297
0
 46
4.0
 94
-1056964608
 47
1.0
 49
1.0
140
1.0
294
1
141
0.0
177
0
142
1.0
295
0
296
0
143
3.75
271
0
272
9
273
9
  0
DICTIONARY
  5
2D
330
A
100
AcDbDictionary
280
1
281
1
  3
CREATED_BY_EZDXF
350
2E
  3
WRITTEN_BY_EZDXF
350
64
  0
DICTIONARYVAR
  5
2E
330
2D
100
DictionaryVariables
280
0
  1
1.4.4 @ 2026-07-21T09:53:46.259520+00:00
  0
DICTIONARYVAR
  5
64
330
2D
100
DictionaryVariables
280
0
  1
1.4.4 @ 2026-07-21T09:53:46.267291+00:00
  0
ENDSEC
  0
EOF
