  0
SECTION
  2
HEADER
  9
$ACADVER
  1
AC1027
  9
$ACADMAINTVER
 70
105
  9
$DWGCODEPAGE
  3
ANSI_1252
  9
$LASTSAVEDBY
  1
ezdxf
  9
$REQUIREDVERSIONS
160
0
  9
$INSBASE
 10
0.0
 20
0.0
 30
0.0
  9
$EXTMIN
 10
1e+20
 20
1e+20
 30
1e+20
  9
$EXTMAX
 10
-1e+20
 20
-1e+20
 30
-1e+20
  9
$LIMMIN
 10
0.0
 20
0.0
  9
$LIMMAX
 10
420.0
 20
297.0
  9
$ORTHOMODE
 70
0
  9
$REGENMODE
 70
1
  9
$FILLMODE
 70
1
  9
$QTEXTMODE
 70
0
  9
$MIRRTEXT
 70
1
  9
$LTSCALE
 40
1.0
  9
$ATTMODE
 70
1
  9
$TEXTSIZE
 40
2.5
  9
$TRACEWID
 40
1.0
  9
$TEXTSTYLE
  7
Standard
  9
$CLAYER
  8
0
  9
$CELTYPE
  6
ByLayer
  9
$CECOLOR
 62
256
  9
$CELTSCALE
 40
1.0
  9
$DISPSILH
 70
0
  9
$DIMSCALE
 40
1.0
  9
$DIMASZ
 40
2.5
  9
$DIMEXO
 40
0.625
  9
$DIMDLI
 40
3.75
  9
$DIMRND
 40
0.0
  9
$DIMDLE
 40
0.0
  9
$DIMEXE
 40
1.25
  9
$DIMTP
 40
0.0
  9
$DIMTM
 40
0.0
  9
$DIMTXT
 40
2.5
  9
$DIMCEN
 40
2.5
  9
$DIMTSZ
 40
0.0
  9
$DIMTOL
 70
0
  9
$DIMLIM
 70
0
  9
$DIMTIH
 70
0
  9
$DIMTOH
 70
0
  9
$DIMSE1
 70
0
  9
$DIMSE2
 70
0
  9
$DIMTAD
 70
1
  9
$DIMZIN
 70
8
  9
$DIMBLK
  1

  9
$DIMASO
 70
1
  9
$DIMSHO
 70
1
  9
$DIMPOST
  1

  9
$DIMAPOST
  1

  9
$DIMALT
 70
0
  9
$DIMALTD
 70
3
  9
$DIMALTF
 40
0.03937007874
  9
$DIMLFAC
 40
1.0
  9
$DIMTOFL
 70
1
  9
$DIMTVP
 40
0.0
  9
$DIMTIX
 70
0
  9
$DIMSOXD
 70
0
  9
$DIMSAH
 70
0
  9
$DIMBLK1
  1

  9
$DIMBLK2
  1

  9
$DIMSTYLE
  2
ISO-25
  9
$DIMCLRD
 70
0
  9
$DIMCLRE
 70
0
  9
$DIMCLRT
 70
0
  9
$DIMTFAC
 40
1.0
  9
$DIMGAP
 40
0.625
  9
$DIMJUST
 70
0
  9
$DIMSD1
 70
0
  9
$DIMSD2
 70
0
  9
$DIMTOLJ
 70
0
  9
$DIMTZIN
 70
8
  9
$DIMALTZ
 70
0
  9
$DIMALTTZ
 70
0
  9
$DIMUPT
 70
0
  9
$DIMDEC
 70
2
  9
$DIMTDEC
 70
2
  9
$DIMALTU
 70
2
  9
$DIMALTTD
 70
3
  9
$DIMTXSTY
  7
Standard
  9
$DIMAUNIT
 70
0
  9
$DIMADEC
 70
0
  9
$DIMALTRND
 40
0.0
  9
$DIMAZIN
 70
0
  9
$DIMDSEP
 70
44
  9
$DIMATFIT
 70
3
  9
$DIMFRAC
 70
0
  9
$DIMLDRBLK
  1

  9
$DIMLUNIT
 70
2
  9
$DIMLWD
 70
-2
  9
$DIMLWE
 70
-2
  9
$DIMTMOVE
 70
0
  9
$DIMFXL
 40
1.0
  9
$DIMFXLON
 70
0
  9
$DIMJOGANG
 40
0.785398163397
  9
$DIMTFILL
 70
0
  9
$DIMTFILLCLR
 70
0
  9
$DIMARCSYM
 70
0
  9
$DIMLTYPE
  6

  9
$DIMLTEX1
  6

  9
$DIMLTEX2
  6

  9
$DIMTXTDIRECTION
 70
0
  9
$LUNITS
 70
2
  9
$LUPREC
 70
4
  9
$SKETCHINC
 40
1.0
  9
$FILLETRAD
 40
10.0
  9
$AUNITS
 70
0
  9
$AUPREC
 70
2
  9
$MENU
  1
.
  9
$ELEVATION
 40
0.0
  9
$PELEVATION
 40
0.0
  9
$THICKNESS
 40
0.0
  9
$LIMCHECK
 70
0
  9
$CHAMFERA
 40
0.0
  9
$CHAMFERB
 40
0.0
  9
$CHAMFERC
 40
0.0
  9
$CHAMFERD
 40
0.0
  9
$SKPOLY
 70
0
  9
$TDCREATE
 40
2461243.537337963
  9
$TDUCREATE
 40
2458532.153996898
  9
$TDUPDATE
 40
2461243.537337963
  9
$TDUUPDATE
 40
2458532.1544311
  9
$TDINDWG
 40
0.0
  9
$TDUSRTIMER
 40
0.0
  9
$USRTIMER
 70
1
  9
$ANGBASE
 50
0.0
  9
$ANGDIR
 70
0
  9
$PDMODE
 70
0
  9
$PDSIZE
 40
0.0
  9
$PLINEWID
 40
0.0
  9
$SPLFRAME
 70
0
  9
$SPLINETYPE
 70
6
  9
$SPLINESEGS
 70
8
  9
$HANDSEED
  5
73
  9
$SURFTAB1
 70
6
  9
$SURFTAB2
 70
6
  9
$SURFTYPE
 70
6
  9
$SURFU
 70
6
  9
$SURFV
 70
6
  9
$UCSBASE
  2

  9
$UCSNAME
  2

  9
$UCSORG
 10
0.0
 20
0.0
 30
0.0
  9
$UCSXDIR
 10
1.0
 20
0.0
 30
0.0
  9
$UCSYDIR
 10
0.0
 20
1.0
 30
0.0
  9
$UCSORTHOREF
  2

  9
$UCSORTHOVIEW
 70
0
  9
$UCSORGTOP
 10
0.0
 20
0.0
 30
0.0
  9
$UCSORGBOTTOM
 10
0.0
 20
0.0
 30
0.0
  9
$UCSORGLEFT
 10
0.0
 20
0.0
 30
0.0
  9
$UCSORGRIGHT
 10
0.0
 20
0.0
 30
0.0
  9
$UCSORGFRONT
 10
0.0
 20
0.0
 30
0.0
  9
$UCSORGBACK
 10
0.0
 20
0.0
 30
0.0
  9
$PUCSBASE
  2

  9
$PUCSNAME
  2

  9
$PUCSORG
 10
0.0
 20
0.0
 30
0.0
  9
$PUCSXDIR
 10
1.0
 20
0.0
 30
0.0
  9
$PUCSYDIR
 10
0.0
 20
1.0
 30
0.0
  9
$PUCSORTHOREF
  2

  9
$PUCSORTHOVIEW
 70
0
  9
$PUCSORGTOP
 10
0.0
 20
0.0
 30
0.0
  9
$PUCSORGBOTTOM
 10
0.0
 20
0.0
 30
0.0
  9
$PUCSORGLEFT
 10
0.0
 20
0.0
 30
0.0
  9
$PUCSORGRIGHT
 10
0.0
 20
0.0
 30
0.0
  9
$PUCSORGFRONT
 10
0.0
 20
0.0
 30
0.0
  9
$PUCSORGBACK
 10
0.0
 20
0.0
 30
0.0
  9
$USERI1
 70
0
  9
$USERI2
 70
0
  9
$USERI3
 70
0
  9
$USERI4
 70
0
  9
$USERI5
 70
0
  9
$USERR1
 40
0.0
  9
$USERR2
 40
0.0
  9
$USERR3
 40
0.0
  9
$USERR4
 40
0.0
  9
$USERR5
 40
0.0
  9
$WORLDVIEW
 70
1
  9
$SHADEDGE
 70
3
  9
$SHADEDIF
 70
70
  9
$TILEMODE
 70
1
  9
$MAXACTVP
 70
64
  9
$PINSBASE
 10
0.0
 20
0.0
 30
0.0
  9
$PLIMCHECK
 70
0
  9
$PEXTMIN
 10
1e+20
 20
1e+20
 30
1e+20
  9
$PEXTMAX
 10
-1e+20
 20
-1e+20
 30
-1e+20
  9
$PLIMMIN
 10
0.0
 20
0.0
  9
$PLIMMAX
 10
420.0
 20
297.0
  9
$UNITMODE
 70
0
  9
$VISRETAIN
 70
1
  9
$PLINEGEN
 70
0
  9
$PSLTSCALE
 70
1
  9
$TREEDEPTH
 70
3020
  9
$CMLSTYLE
  2
Standard
  9
$CMLJUST
 70
0
  9
$CMLSCALE
 40
20.0
  9
$PROXYGRAPHICS
 70
1
  9
$MEASUREMENT
 70
1
  9
$CELWEIGHT
370
-1
  9
$ENDCAPS
280
0
  9
$JOINSTYLE
280
0
  9
$LWDISPLAY
290
0
  9
$INSUNITS
 70
4
  9
$HYPERLINKBASE
  1

  9
$STYLESHEET
  1

  9
$XEDIT
290
1
  9
$CEPSNTYPE
380
0
  9
$PSTYLEMODE
290
1
  9
$FINGERPRINTGUID
  2
{107D2E5E-DF54-4E61-8B26-821B0151750A}
  9
$VERSIONGUID
  2
{582D040E-F74E-4BF8-BAAF-817AF573B5D5}
  9
$EXTNAMES
290
1
  9
$PSVPSCALE
 40
0.0
  9
$OLESTARTUP
290
0
  9
$SORTENTS
280
127
  9
$INDEXCTL
280
0
  9
$HIDETEXT
280
1
  9
$XCLIPFRAME
280
1
  9
$HALOGAP
280
0
  9
$OBSCOLOR
 70
257
  9
$OBSLTYPE
280
0
  9
$INTERSECTIONDISPLAY
280
0
  9
$INTERSECTIONCOLOR
 70
257
  9
$DIMASSOC
280
2
  9
$PROJECTNAME
  1

  9
$CAMERADISPLAY
290
0
  9
$LENSLENGTH
 40
50.0
  9
$CAMERAHEIGHT
 40
0.0
  9
$STEPSPERSEC
 40
24.0
  9
$STEPSIZE
 40
100.0
  9
$3DDWFPREC
 40
2.0
  9
$PSOLWIDTH
 40
0.005
  9
$PSOLHEIGHT
 40
0.08
  9
$LOFTANG1
 40
1.570796326795
  9
$LOFTANG2
 40
1.570796326795
  9
$LOFTMAG1
 40
0.0
  9
$LOFTMAG2
 40
0.0
  9
$LOFTPARAM
 70
7
  9
$LOFTNORMALS
280
1
  9
$LATITUDE
 40
37.795
  9
$LONGITUDE
 40
-122.394
  9
$NORTHDIRECTION
 40
0.0
  9
$TIMEZONE
 70
-8000
  9
$LIGHTGLYPHDISPLAY
280
1
  9
$TILEMODELIGHTSYNCH
280
1
  9
$CMATERIAL
347
20
  9
$SOLIDHIST
280
0
  9
$SHOWHIST
280
1
  9
$DWFFRAME
280
2
  9
$DGNFRAME
280
2
  9
$REALWORLDSCALE
290
1
  9
$INTERFERECOLOR
 62
256
  9
$CSHADOW
280
0
  9
$SHADOWPLANELOCATION
 40
0.0
  0
ENDSEC
  0
SECTION
  2
CLASSES
  0
CLASS
  1
ACDBDICTIONARYWDFLT
  2
AcDbDictionaryWithDefault
  3
ObjectDBX Classes
 90
0
 91
0
280
0
281
0
  0
CLASS
  1
SUN
  2
AcDbSun
  3
SCENEOE
 90
1153
 91
0
280
0
281
0
  0
CLASS
  1
VISUALSTYLE
  2
AcDbVisualStyle
  3
ObjectDBX Classes
 90
4095
 91
0
280
0
281
0
  0
CLASS
  1
MATERIAL
  2
AcDbMaterial
  3
ObjectDBX Classes
 90
1153
 91
0
280
0
281
0
  0
CLASS
  1
SCALE
  2
AcDbScale
  3
ObjectDBX Classes
 90
1153
 91
0
280
0
281
0
  0
CLASS
  1
TABLESTYLE
  2
AcDbTableStyle
  3
ObjectDBX Classes
 90
4095
 91
0
280
0
281
0
  0
CLASS
  1
MLEADERSTYLE
  2
AcDbMLeaderStyle
  3
ACDB_MLEADERSTYLE_CLASS
 90
4095
 91
0
280
0
281
0
  0
CLASS
  1
DICTIONARYVAR
  2
AcDbDictionaryVar
  3
ObjectDBX Classes
 90
0
 91
0
280
0
281
0
  0
CLASS
  1
CELLSTYLEMAP
  2
AcDbCellStyleMap
  3
ObjectDBX Classes
 90
1152
 91
0
280
0
281
0
  0
CLASS
  1
MENTALRAYRENDERSETTINGS
  2
AcDbMentalRayRenderSettings
  3
SCENEOE
 90
1024
 91
0
280
0
281
0
  0
CLASS
  1
ACDBDETAILVIEWSTYLE
  2
AcDbDetailViewStyle
  3
ObjectDBX Classes
 90
1025
 91
0
280
0
281
0
  0
CLASS
  1
ACDBSECTIONVIEWSTYLE
  2
AcDbSectionViewStyle
  3
ObjectDBX Classes
 90
1025
 91
0
280
0
281
0
  0
CLASS
  1
RASTERVARIABLES
  2
AcDbRasterVariables
  3
ISM
 90
0
 91
0
280
0
281
0
  0
CLASS
  1
ACDBPLACEHOLDER
  2
AcDbPlaceHolder
  3
ObjectDBX Classes
 90
0
 91
0
280
0
281
0
  0
CLASS
  1
LAYOUT
  2
AcDbLayout
  3
ObjectDBX Classes
 90
0
 91
0
280
0
281
0
  0
ENDSEC
  0
SECTION
  2
TABLES
  0
TABLE
  2
VPORT
  5
8
330
0
100
AcDbSymbolTable
 70
1
  0
VPORT
  5
23
330
8
100
AcDbSymbolTableRecord
100
AcDbViewportTableRecord
  2
*Active
 70
0
 10
0.0
 20
0.0
 11
1.0
 21
1.0
 12
0.0
 22
0.0
 13
0.0
 23
0.0
 14
0.5
 24
0.5
 15
0.5
 25
0.5
 16
0.0
 26
0.0
 36
1.0
 17
0.0
 27
0.0
 37
0.0
 40
1000.0
 41
1.34
 42
50.0
 43
0.0
 44
0.0
 50
0.0
 51
0.0
 71
0
 72
1000
 73
1
 74
3
 75
0
 76
0
 77
0
 78
0
281
0
 65
0
146
0.0
  0
ENDTAB
  0
TABLE
  2
LTYPE
  5
2
330
0
100
AcDbSymbolTable
 70
3
  0
LTYPE
  5
24
330
2
100
AcDbSymbolTableRecord
100
AcDbLinetypeTableRecord
  2
ByBlock
 70
0
  3

 72
65
 73
0
 40
0.0
  0
LTYPE
  5
25
330
2
100
AcDbSymbolTableRecord
100
AcDbLinetypeTableRecord
  2
ByLayer
 70
0
  3

 72
65
 73
0
 40
0.0
  0
LTYPE
  5
26
330
2
100
AcDbSymbolTableRecord
100
AcDbLinetypeTableRecord
  2
Continuous
 70
0
  3

 72
65
 73
0
 40
0.0
  0
ENDTAB
  0
TABLE
  2
LAYER
  5
1
330
0
100
AcDbSymbolTable
 70
3
  0
LAYER
  5
27
330
1
100
AcDbSymbolTableRecord
100
AcDbLayerTableRecord
  2
0
 70
0
 62
7
  6
Continuous
370
-3
390
13
347
21
  0
LAYER
  5
28
330
1
100
AcDbSymbolTableRecord
100
AcDbLayerTableRecord
  2
Defpoints
 70
0
 62
7
  6
Continuous
290
0
370
-3
390
13
347
21
  0
LAYER
  5
2F
330
1
100
AcDbSymbolTableRecord
100
AcDbLayerTableRecord
  2
K
 70
0
 62
7
  6
Continuous
370
-3
390
13
347
21
  0
ENDTAB
  0
TABLE
  2
STYLE
  5
5
330
0
100
AcDbSymbolTable
 70
1
  0
STYLE
  5
29
330
5
100
AcDbSymbolTableRecord
100
AcDbTextStyleTableRecord
  2
Standard
 70
0
 40
0.0
 41
1.0
 50
0.0
 71
0
 42
2.5
  3
txt
  4

  0
ENDTAB
  0
TABLE
  2
VIEW
  5
7
330
0
100
AcDbSymbolTable
 70
0
  0
ENDTAB
  0
TABLE
  2
UCS
  5
6
330
0
100
AcDbSymbolTable
 70
0
  0
ENDTAB
  0
TABLE
  2
APPID
  5
3
330
0
100
AcDbSymbolTable
 70
3
  0
APPID
  5
2A
330
3
100
AcDbSymbolTableRecord
100
AcDbRegAppTableRecord
  2
ACAD
 70
0
  0
APPID
  5
70
330
3
100
AcDbSymbolTableRecord
100
AcDbRegAppTableRecord
  2
HATCHBACKGROUNDCOLOR
 70
0
  0
APPID
  5
71
330
3
100
AcDbSymbolTableRecord
100
AcDbRegAppTableRecord
  2
EZDXF
 70
0
  0
ENDTAB
  0
TABLE
  2
DIMSTYLE
  5
4
330
0
100
AcDbSymbolTable
 70
1
100
AcDbDimStyleTable
  0
DIMSTYLE
105
2B
330
4
100
AcDbSymbolTableRecord
100
AcDbDimStyleTableRecord
  2
Standard
 70
0
 40
1.0
 41
2.5
 42
0.625
 43
3.75
 44
1.25
 45
0.0
 46
0.0
 47
0.0
 48
0.0
 49
2.5
140
2.5
141
2.5
142
0.0
143
0.03937007874
144
1.0
145
0.0
146
1.0
147
0.625
148
0.0
 69
0
 70
0
 71
0
 72
0
 73
0
 74
0
 75
0
 76
0
 77
1
 78
8
 79
3
170
0
171
3
172
1
173
0
174
0
175
0
176
0
177
0
178
0
179
2
271
2
272
2
273
2
274
3
275
0
276
0
277
2
278
44
279
0
280
0
281
0
282
0
283
0
284
8
285
0
286
0
288
0
289
3
290
0
371
-2
372
-2
  0
ENDTAB
  0
TABLE
  2
BLOCK_RECORD
  5
9
330
0
100
AcDbSymbolTable
 70
2
  0
BLOCK_RECORD
  5
17
330
9
100
AcDbSymbolTableRecord
100
AcDbBlockTableRecord
  2
*Model_Space
340
1A
 70
0
280
1
281
0
  0
BLOCK_RECORD
  5
1B
330
9
100
AcDbSymbolTableRecord
100
AcDbBlockTableRecord
  2
*Paper_Space
340
1E
 70
0
280
1
281
0
  0
ENDTAB
  0
ENDSEC
  0
SECTION
  2
BLOCKS
  0
BLOCK
  5
18
330
17
100
AcDbEntity
  8
0
100
AcDbBlockBegin
  2
*Model_Space
 70
0
 10
0.0
 20
0.0
 30
0.0
  3
*Model_Space
  1

  0
ENDBLK
  5
19
330
17
100
AcDbEntity
  8
0
100
AcDbBlockEnd
  0
BLOCK
  5
1C
330
1B
100
AcDbEntity
  8
0
100
AcDbBlockBegin
  2
*Paper_Space
 70
0
 10
0.0
 20
0.0
 30
0.0
  3
*Paper_Space
  1

  0
ENDBLK
  5
1D
330
1B
100
AcDbEntity
  8
0
100
AcDbBlockEnd
  0
ENDSEC
  0
SECTION
  2
ENTITIES
  0
LWPOLYLINE
  5
30
330
17
100
AcDbEntity
  8
K
100
AcDbPolyline
 90
28
 70
1
 10
11.704574051808025
 20
84.8987630314858
 10
9.210467431729041
 20
88.99622390732998
 10
4.210467431728926
 20
88.99622390732998
 10
1.6666666666667052
 20
93.1753251642179
 10
1.6666666666667052
 20
109.60389659278924
 10
0.0
 20
112.34199183088455
 10
0.0
 20
123.34665380446886
 10
9.216830035520873
 20
141.24166796434335
 10
17.54619610000896
 20
138.50487625744012
 10
22.548989343308847
 20
149.46337574276382
 10
29.2256544469518
 20
146.7211740037676
 10
30.93333333333326
 20
149.52664645996583
 10
32.600000000000186
 20
146.78855122187062
 10
34.21046743172895
 20
149.43431914542515
 10
39.29499778283252
 20
149.43431914542515
 10
52.62833111616594
 20
141.22003343113943
 10
62.6561992349377
 20
141.22003343113943
 10
65.19999999999993
 20
137.04093217425162
 10
65.19999999999993
 20
109.59745950563848
 10
57.671972361292624
 20
99.97831307840133
 10
54.302472500857846
 20
97.2105096216157
 10
44.310774592774436
 20
97.2105096216157
 10
39.31077459277432
 20
91.73431914542518
 10
34.32286590160438
 20
91.73431914542518
 10
32.6561992349379
 20
88.99622390732998
 10
24.310774592774422
 20
88.99622390732998
 10
19.303180289677478
 20
83.51171586108097
 10
11.704574051808025
 20
84.8987630314858
  0
LWPOLYLINE
  5
31
330
17
100
AcDbEntity
  8
K
100
AcDbPolyline
 90
13
 70
1
 10
1623.333333333333
 20
0.0
 10
1623.333333333333
 20
13.82432018174562
 10
1639.2371346625462
 20
42.702275226895516
 10
1646.0071307319577
 20
37.14120702702151
 10
1657.6516356527052
 20
20.74384295494902
 10
1660.9895325682705
 20
20.74384295494902
 10
1663.5504021334882
 20
16.53670009780617
 10
1657.6255308785614
 20
6.802983036140242
 10
1654.2765258383602
 20
9.553951462019427
 10
1649.2765258383604
 20
4.077760985829015
 10
1645.943192505027
 20
6.8158562239242215
 10
1640.980533746215
 20
1.3805632976064963
 10
1623.333333333333
 20
0.0
  0
LWPOLYLINE
  5
32
330
17
100
AcDbEntity
  8
K
100
AcDbPolyline
 90
9
 70
1
 10
1624.1666666666665
 20
242.64111203303463
 10
1630.9691391675244
 20
237.05336676447274
 10
1634.3228659016042
 20
237.05336676447274
 10
1636.8666666666668
 20
232.8742655075846
 10
1636.8666666666668
 20
230.08008706897996
 10
1629.2666666666667
 20
217.59437278326567
 10
1627.5999999999997
 20
220.33246802136097
 10
1624.1666666666665
 20
214.69199183088472
 10
1624.1666666666665
 20
242.64111203303463
  0
LWPOLYLINE
  5
33
330
17
100
AcDbEntity
  8
K
100
AcDbPolyline
 90
233
 70
1
 10
2822.5438007650623
 20
88.99622390732998
 10
2805.903416884713
 20
88.99622390732998
 10
2797.57008355138
 20
94.47241438352039
 10
2730.877134098396
 20
94.47241438352039
 10
2723.3402783024326
 20
106.85439176260336
 10
2718.3402783024326
 20
126.02105842927003
 10
2713.3333333333335
 20
134.24675373564654
 10
2713.3333333333335
 20
139.7301870880122
 10
2709.2011020040236
 20
149.2343191454252
 10
2700.8945592880127
 20
149.2343191454252
 10
2693.3359808481678
 20
156.13302168972777
 10
2689.997422571685
 20
210.98076480337403
 10
2702.5589994404327
 20
223.3628905739966
 10
2707.5438007650623
 20
223.3628905739966
 10
2709.2411357881056
 20
226.15136954042435
 10
2712.6358058341916
 20
223.3628905739966
 10
2719.310774592775
 20
223.3628905739966
 10
2724.310774592775
 20
217.88670009780608
 10
2729.322865901605
 20
217.88670009780608
 10
2730.9895325682714
 20
215.14860485971087
 10
2737.641000559568
 20
215.14860485971087
 10
2745.974333892901
 20
206.93431914542515
 10
2754.2239377061205
 20
206.93431914542515
 10
2772.6177271589163
 20
226.1641899369845
 10
2774.322865901605
 20
223.3628905739966
 10
2784.2965831152874
 20
223.3628905739966
 10
2792.629916448621
 20
217.88670009780608
 10
2797.6561992349384
 20
217.88670009780608
 10
2799.3287592815254
 20
215.1389228784123
 10
2814.2242472723624
 20
212.41990522929132
 10
2830.883765107102
 20
234.31527152637756
 10
2869.3228659016045
 20
234.31527152637756
 10
2870.9895325682714
 20
231.57717628828235
 10
2887.5438007650628
 20
231.57717628828235
 10
2889.982931199845
 20
235.5843191454252
 10
2888.333333333333
 20
238.2943727832655
 10
2888.333333333333
 20
257.46956406174246
 10
2884.988420517534
 20
265.712384929248
 10
2889.9779078494444
 20
273.90939983167186
 10
2883.3199430057293
 20
282.1129636569637
 10
2885.8750912622654
 20
289.10920293081165
 10
2892.558987780286
 20
286.36403114662477
 10
2895.877134098396
 20
291.81527152637756
 10
2899.322865901605
 20
291.81527152637756
 10
2900.9895325682714
 20
289.0771762882823
 10
2924.322865901605
 20
289.0771762882823
 10
2925.989532568271
 20
286.33908105018713
 10
2939.322865901605
 20
286.33908105018713
 10
2940.9895325682714
 20
283.60098581209184
 10
2962.5438007650623
 20
283.60098581209184
 10
2971.666666666667
 20
298.58855122187055
 10
2971.666666666667
 20
339.6468186296203
 10
2973.3246245142664
 20
345.0943944145901
 10
2970.877134098396
 20
349.11527152637757
 10
2924.2104674317293
 20
349.11527152637757
 10
2919.210467431729
 20
357.3295572406633
 10
2914.2104674317293
 20
357.3295572406633
 10
2910.8567406976495
 20
362.8392511609374
 10
2900.897527499142
 20
371.02003343113944
 10
2885.877134098396
 20
371.02003343113944
 10
2884.266666666667
 20
373.66580135469405
 10
2882.6561992349384
 20
371.02003343113944
 10
2874.210467431729
 20
371.02003343113944
 10
2872.5438007650628
 20
373.75812866923474
 10
2867.5377941471675
 20
373.75812866923474
 10
2853.3333333333335
 20
402.5848285561329
 10
2853.3333333333335
 20
408.06257253819155
 10
2848.326644916638
 20
419.02960430809634
 10
2849.9912911809333
 20
424.499156319352
 10
2846.6495978665116
 20
429.98908105018705
 10
2848.3162645331786
 20
432.7271762882823
 10
2845.877134098396
 20
436.73431914542516
 10
2820.977441259441
 20
436.73431914542516
 10
2810.977441259441
 20
425.7819381930442
 10
2790.9895325682714
 20
425.7819381930442
 10
2788.5333333333338
 20
421.7467537356466
 10
2788.5333333333338
 20
402.58861168078977
 10
2785.2115794824663
 20
394.40286111972387
 10
2788.5333333333338
 20
388.94569407901326
 10
2788.5333333333338
 20
358.7705632594562
 10
2782.6477271547783
 20
349.1013531089726
 10
2759.2030304602963
 20
354.60367988420825
 10
2753.3333333333335
 20
364.2467537356466
 10
2753.3333333333335
 20
372.46103944993234
 10
2750.877134098396
 20
376.49622390733
 10
2730.9895325682714
 20
376.49622390733
 10
2729.322865901605
 20
373.75812866923474
 10
2719.3228659016045
 20
373.75812866923474
 10
2716.8837354668217
 20
369.75098581209187
 10
2721.883735466822
 20
361.53670009780615
 10
2716.8837354668217
 20
353.3224143835204
 10
2718.5504021334887
 20
350.5843191454252
 10
2714.292197545228
 20
343.5886973218546
 10
2710.958864211895
 20
346.3267925599498
 10
2709.3228659016045
 20
343.63908105018714
 10
2704.2204991129406
 20
343.63908105018714
 10
2698.3102994728133
 20
350.57451940339735
 10
2699.982931199845
 20
353.3224143835204
 10
2697.5438007650623
 20
357.3295572406633
 10
2695.9895325682714
 20
357.3295572406633
 10
2693.5504021334887
 20
353.3224143835204
 10
2695.217068800155
 20
350.5843191454252
 10
2690.9995804769196
 20
343.65558832868084
 10
2682.5558352376097
 20
340.88121489290745
 10
2680.877134098396
 20
343.63908105018714
 10
2672.6358058341916
 20
343.63908105018714
 10
2669.2411357881056
 20
340.85060208375927
 10
2667.5438007650623
 20
343.63908105018714
 10
2662.644107926108
 20
343.63908105018714
 10
2657.644107926108
 20
338.1628905739966
 10
2649.322865901605
 20
338.1628905739966
 10
2647.656199234938
 20
335.4247953359014
 10
2644.2239377061205
 20
335.4247953359014
 10
2634.9808795849594
 20
345.0879924625696
 10
2639.9870117719597
 20
356.05380582457013
 10
2638.3162645331786
 20
358.79860485971096
 10
2640.9135840213353
 20
363.0656297331115
 10
2645.2265866881958
 20
358.8142413900632
 10
2643.5504021334887
 20
356.0605096216156
 10
2645.9895325682714
 20
352.05336676447274
 10
2664.2104674317293
 20
352.05336676447274
 10
2665.877134098396
 20
354.79146200256804
 10
2675.877134098396
 20
354.79146200256804
 10
2678.3162645331786
 20
358.79860485971096
 10
2674.2104674317293
 20
365.543842954949
 10
2670.877134098396
 20
365.543842954949
 10
2669.210467431729
 20
368.2819381930442
 10
2652.5438007650623
 20
368.2819381930442
 10
2650.0000000000005
 20
372.46103944993234
 10
2650.0000000000005
 20
377.9933131266323
 10
2653.316264533178
 20
383.441462002568
 10
2644.9884205175345
 20
397.12292002826933
 10
2648.3184567247436
 20
405.3290806817494
 10
2641.666666666667
 20
413.52503628902247
 10
2641.666666666667
 20
421.75991489932494
 10
2638.3333333333335
 20
432.7122958517059
 10
2638.3333333333335
 20
443.7075988409179
 10
2641.6623319318596
 20
449.17666796706743
 10
2639.9956652651927
 20
460.1290489194484
 10
2641.666666666667
 20
462.8742655075846
 10
2641.666666666667
 20
468.35045598377513
 10
2644.210467431729
 20
472.5295572406633
 10
2649.2104674317293
 20
472.5295572406633
 10
2650.877134098396
 20
475.26765247875846
 10
2664.2104674317293
 20
475.26765247875846
 10
2665.870557326036
 20
477.99494301940547
 10
2679.20389065937
 20
480.7330382575008
 10
2680.9078024547725
 20
483.53232192137676
 10
2684.302472500858
 20
480.743842954949
 10
2697.6561992349375
 20
480.743842954949
 10
2699.266666666667
 20
478.0980750313941
 10
2700.8771340983963
 20
480.743842954949
 10
2704.2104674317293
 20
480.743842954949
 10
2709.2411357881056
 20
489.00851239756724
 10
2712.574469121439
 20
486.27041715947195
 10
2714.210467431729
 20
488.9581286692347
 10
2717.6358058341916
 20
488.9581286692347
 10
2720.9078024547725
 20
486.27041715947195
 10
2724.2104674317293
 20
491.6962239073299
 10
2730.877134098396
 20
491.6962239073299
 10
2732.5363637936293
 20
494.42210126378495
 10
2744.203030460296
 20
497.16019650188014
 10
2747.5429678346627
 20
502.6472364740544
 10
2859.2096345013297
 20
505.3853317121496
 10
2865.86182856696
 20
516.3139362485426
 10
2870.86182856696
 20
519.052031486638
 10
2875.877134098396
 20
527.2914620025681
 10
2879.210467431729
 20
527.2914620025681
 10
2885.877134098396
 20
538.243842954949
 10
2889.317459167493
 20
538.243842954949
 10
2909.317459167493
 20
510.8628905739966
 10
2912.5438007650628
 20
510.8628905739966
 10
2914.2104674317293
 20
513.6009858120918
 10
2924.2308608324756
 20
513.6009858120918
 10
2930.8975274991426
 20
519.0771762882823
 10
2940.877134098396
 20
519.0771762882823
 10
2942.5438007650623
 20
521.8152715263775
 10
2947.5558920738927
 20
521.8152715263775
 10
2952.5558920738927
 20
527.2914620025681
 10
2962.5716688838343
 20
527.2914620025681
 10
2975.966478836152
 20
535.5436217053352
 10
2981.8611887136685
 20
525.8594554779872
 10
2983.527855380335
 20
517.6451697637016
 10
2994.3228659016045
 20
499.91050962161563
 10
3002.656199234938
 20
499.91050962161563
 10
3004.3228659016045
 20
497.17241438352033
 10
3022.656199234938
 20
497.17241438352033
 10
3025.2000000000003
 20
492.99331312663253
 10
3025.2000000000003
 20
468.2943727832655
 10
3021.883735466822
 20
462.8462239073299
 10
3025.2000000000003
 20
457.3980750313944
 10
3025.2000000000003
 20
451.865801354694
 10
3021.878246149133
 20
446.4086343139834
 10
3025.2115794824663
 20
438.19434859969766
 10
3021.883735466822
 20
432.7271762882823
 10
3025.217068800155
 20
427.25098581209187
 10
3021.878246149133
 20
421.76577717112616
 10
3025.2115794824663
 20
413.55149145684044
 10
3021.883735466822
 20
408.0843191454252
 10
3025.2000000000003
 20
402.63617026948964
 10
3025.2000000000003
 20
386.15151564040826
 10
3021.883735466822
 20
380.70336676447283
 10
3025.217068800155
 20
375.2271762882823
 10
3021.883735466822
 20
369.75098581209187
 10
3025.217068800155
 20
364.27479533590133
 10
3021.883735466822
 20
358.79860485971096
 10
3025.2000000000003
 20
353.35045598377536
 10
3025.2000000000003
 20
101.38961087850362
 10
3020.991737445782
 20
94.4760366822871
 10
2979.325070779115
 20
91.73794144419189
 10
2977.656199234938
 20
88.99622390732998
 10
2942.656199234938
 20
88.99622390732998
 10
2940.9895325682714
 20
86.25812866923465
 10
2934.3228659016045
 20
86.25812866923465
 10
2932.656199234938
 20
83.52003343113945
 10
2924.322865901605
 20
83.52003343113945
 10
2922.644164762391
 20
80.76216727385987
 10
2914.2004195230807
 20
83.53654070963323
 10
2910.8771340983963
 20
88.99622390732998
 10
2905.8857028025336
 20
88.99622390732998
 10
2899.2190361358666
 20
97.2105096216157
 10
2892.5438007650628
 20
97.2105096216157
 10
2889.2104674317293
 20
102.68670009780611
 10
2885.877134098396
 20
102.68670009780611
 10
2884.2104674317293
 20
105.42479533590132
 10
2874.3024725008577
 20
105.42479533590132
 10
2864.313653884303
 20
97.21969432944566
 10
2854.320996212377
 20
94.48360949070388
 10
2849.3107745927746
 20
88.99622390732998
 10
2842.644107926108
 20
88.99622390732998
 10
2837.635539017498
 20
83.51064843599565
 10
2824.20389065937
 20
86.26893336668296
 10
2822.5438007650623
 20
88.99622390732998
  0
LWPOLYLINE
  5
34
330
17
100
AcDbEntity
  8
K
100
AcDbPolyline
 90
5
 70
1
 10
2996.640079978471
 20
361.55233662815846
 10
2994.2469173546688
 20
365.48396093869127
 10
2990.226586688196
 20
361.52106356745384
 10
2992.6197493119985
 20
357.58943925692097
 10
2996.640079978471
 20
361.55233662815846
  0
LWPOLYLINE
  5
35
330
17
100
AcDbEntity
  8
K
100
AcDbPolyline
 90
7
 70
1
 10
2986.6495978665116
 20
345.1081286692347
 10
2984.2104674317293
 20
349.11527152637757
 10
2979.3228659016045
 20
349.11527152637757
 10
2976.883735466822
 20
345.1081286692347
 10
2979.3228659016045
 20
341.1009858120918
 10
2984.2104674317293
 20
341.1009858120918
 10
2986.6495978665116
 20
345.1081286692347
  0
LWPOLYLINE
  5
36
330
17
100
AcDbEntity
  8
K
100
AcDbPolyline
 90
7
 70
1
 10
2975.989532568271
 20
401.13908105018703
 10
2971.883735466822
 20
394.3938429549489
 10
2974.3228659016045
 20
390.38670009780606
 10
2979.210467431729
 20
390.38670009780606
 10
2983.316264533178
 20
397.1319381930443
 10
2980.877134098396
 20
401.13908105018703
 10
2975.989532568271
 20
401.13908105018703
  0
LWPOLYLINE
  5
37
330
17
100
AcDbEntity
  8
K
100
AcDbPolyline
 90
5
 70
1
 10
2975.9530826453315
 20
368.54182020930193
 10
2979.9734133118045
 20
372.50471758053936
 10
2977.5802506880023
 20
376.43634189107223
 10
2973.5599200215293
 20
372.4734445198348
 10
2975.9530826453315
 20
368.54182020930193
  0
LWPOLYLINE
  5
38
330
17
100
AcDbEntity
  8
K
100
AcDbPolyline
 90
15
 70
1
 10
2960.892332773766
 20
141.22003343113943
 10
2973.3333333333335
 20
153.48330541128462
 10
2973.3333333333335
 20
227.34199183088455
 10
2970.907802454772
 20
231.3267925599498
 10
2967.6358058341916
 20
228.63908105018714
 10
2959.3228659016045
 20
228.63908105018714
 10
2953.5229555450433
 20
219.11065689297814
 10
2940.18704992359
 20
186.24717518296953
 10
2933.525168225715
 20
178.03878523380223
 10
2930.1934898165537
 20
164.35510605331726
 10
2921.883735466822
 20
150.70336676447283
 10
2924.328759281526
 20
146.68654192603137
 10
2939.328759281526
 20
143.94844668793604
 10
2940.9895325682714
 20
141.22003343113943
 10
2960.892332773766
 20
141.22003343113943
  0
LWPOLYLINE
  5
39
330
17
100
AcDbEntity
  8
K
100
AcDbPolyline
 90
10
 70
1
 10
2939.2900028530958
 20
425.7551462824398
 10
2933.556367193854
 20
419.02690035577825
 10
2935.9588642118947
 20
415.0799409689958
 10
2942.6255308785617
 20
420.5561314451862
 10
2945.9895325682714
 20
415.0295572406633
 10
2949.2278926213457
 20
415.0295572406633
 10
2956.6384298441694
 20
421.79314280117717
 10
2952.5684052460792
 20
428.4796117837548
 10
2944.271353742248
 20
423.02726365266585
 10
2939.2900028530958
 20
425.7551462824398
  0
LWPOLYLINE
  5
3A
330
17
100
AcDbEntity
  8
K
100
AcDbPolyline
 90
6
 70
1
 10
2950.989532568271
 20
450.4247953359014
 10
2946.883735466822
 20
443.6795572406632
 10
2949.2889468729404
 20
439.7281385020395
 10
2956.6384298441694
 20
446.4359999440344
 10
2954.2104674317293
 20
450.4247953359014
 10
2950.989532568271
 20
450.4247953359014
  0
LWPOLYLINE
  5
3B
330
17
100
AcDbEntity
  8
K
100
AcDbPolyline
 90
5
 70
1
 10
2925.9530826453315
 20
415.08943925692097
 10
2929.9734133118045
 20
419.05233662815846
 10
2927.5802506880023
 20
422.98396093869127
 10
2923.5599200215293
 20
419.02106356745384
 10
2925.9530826453315
 20
415.08943925692097
  0
LWPOLYLINE
  5
3C
330
17
100
AcDbEntity
  8
K
100
AcDbPolyline
 90
7
 70
1
 10
2878.5437719440392
 20
386.190449694759
 10
2884.2556488864698
 20
376.80665186076556
 10
2889.986547019668
 20
388.91171220333587
 10
2887.5642476168136
 20
392.8912040794532
 10
2882.5642476168136
 20
390.1531088413579
 10
2880.9559703439227
 20
392.7952786468214
 10
2878.5437719440392
 20
386.190449694759
  0
LWPOLYLINE
  5
3D
330
17
100
AcDbEntity
  8
K
100
AcDbPolyline
 90
5
 70
1
 10
2876.649597866512
 20
397.1319381930443
 10
2874.266666666667
 20
401.04675373564635
 10
2871.883735466822
 20
397.1319381930443
 10
2874.266666666667
 20
393.21712265044204
 10
2876.649597866512
 20
397.1319381930443
  0
LWPOLYLINE
  5
3E
330
17
100
AcDbEntity
  8
K
100
AcDbPolyline
 90
7
 70
1
 10
2709.3228659016045
 20
439.47241438352034
 10
2706.883735466822
 20
435.4652715263776
 10
2709.3228659016045
 20
431.4581286692347
 10
2712.5438007650623
 20
431.4581286692347
 10
2714.982931199845
 20
435.4652715263776
 10
2712.5438007650623
 20
439.47241438352034
 10
2709.3228659016045
 20
439.47241438352034
  0
LWPOLYLINE
  5
3F
330
17
100
AcDbEntity
  8
K
100
AcDbPolyline
 90
10
 70
1
 10
2699.2104674317293
 20
458.839081050187
 10
2701.649597866512
 20
462.8462239073299
 10
2699.991291180933
 20
465.5705848907808
 10
2701.6579578476
 20
471.04677536697125
 10
2699.253120260339
 20
474.9975799746136
 10
2693.5563671938535
 20
468.31261464149253
 10
2695.217068800155
 20
465.5843191454252
 10
2693.5504021334887
 20
462.8462239073299
 10
2695.9895325682714
 20
458.839081050187
 10
2699.2104674317293
 20
458.839081050187
  0
LWPOLYLINE
  5
40
330
17
100
AcDbEntity
  8
K
100
AcDbPolyline
 90
5
 70
1
 10
2693.306746645138
 20
435.4809080567299
 10
2690.9135840213353
 20
439.41253236726277
 10
2686.8932533548623
 20
435.4496349960253
 10
2689.2864159786654
 20
431.51801068549247
 10
2693.306746645138
 20
435.4809080567299
  0
LWPOLYLINE
  5
41
330
17
100
AcDbEntity
  8
K
100
AcDbPolyline
 90
8
 70
1
 10
2661.8837354668217
 20
435.4652715263776
 10
2664.3228659016045
 20
431.4581286692347
 10
2682.5438007650628
 20
431.4581286692347
 10
2684.9829311998456
 20
435.4652715263776
 10
2679.2411357881056
 20
444.89822113137836
 10
2672.617291942402
 20
439.45720654383626
 10
2665.9743455530484
 20
442.185559525178
 10
2661.8837354668217
 20
435.4652715263776
  0
LWPOLYLINE
  5
42
330
17
100
AcDbEntity
  8
K
100
AcDbPolyline
 90
9
 70
1
 10
2648.3162645331786
 20
454.6319381930443
 10
2653.316264533178
 20
462.8462239073299
 10
2650.9197869270056
 20
466.7832942603278
 10
2645.2115962276043
 20
460.08490721511174
 10
2646.8753754857344
 20
454.6182039383999
 10
2645.217068800155
 20
451.8938429549489
 10
2647.6000000000004
 20
447.9790274123465
 10
2649.982931199845
 20
451.8938429549489
 10
2648.3162645331786
 20
454.6319381930443
  0
LWPOLYLINE
  5
43
330
17
100
AcDbEntity
  8
K
100
AcDbPolyline
 90
480
 70
1
 10
3294.982931199845
 20
232.8462239073299
 10
3291.656228055962
 20
238.31152192942483
 10
3294.231559802251
 20
245.36302552045598
 10
3300.2230338605204
 20
238.3322141255483
 10
3296.883735466822
 20
232.8462239073299
 10
3299.322865901605
 20
228.83908105018713
 10
3302.5438007650628
 20
228.83908105018713
 10
3304.2104674317297
 20
231.57717628828235
 10
3315.8830908512195
 20
231.57717628828235
 10
3324.979524782094
 20
243.80420111744527
 10
3321.649597866512
 20
249.27479533590136
 10
3324.982931199845
 20
254.75098581209187
 10
3322.5438007650628
 20
258.75812866923474
 10
3317.6561992349384
 20
258.75812866923474
 10
3315.2170688001556
 20
254.75098581209187
 10
3318.5504021334887
 20
249.27479533590136
 10
3315.989532568272
 20
245.0676524787585
 10
3305.8771340983963
 20
245.0676524787585
 10
3303.3067466451384
 20
249.29043186625367
 10
3311.6400799784715
 20
257.50471758053936
 10
3309.2104674317297
 20
261.49622390733
 10
3305.9895325682714
 20
261.49622390733
 10
3304.292197545228
 20
258.7077449409022
 10
3300.8975274991426
 20
261.49622390733
 10
3289.322865901605
 20
261.49622390733
 10
3287.6561992349384
 20
258.75812866923474
 10
3282.5438007650628
 20
258.75812866923474
 10
3279.2225019042767
 20
264.2145482262408
 10
3270.8891685709427
 20
261.4764529881456
 10
3269.2104674317293
 20
264.23431914542516
 10
3264.322865901605
 20
264.23431914542516
 10
3260.9895325682714
 20
258.75812866923474
 10
3249.322865901605
 20
258.75812866923474
 10
3246.883735466822
 20
254.75098581209187
 10
3249.322865901605
 20
250.743842954949
 10
3257.6561992349384
 20
250.743842954949
 10
3259.3228659016045
 20
248.0057477168538
 10
3262.57008355138
 20
248.0057477168538
 10
3270.903416884713
 20
253.48193819304421
 10
3279.322865901605
 20
253.48193819304421
 10
3281.876338892089
 20
249.28694685153542
 10
3277.6717465921156
 20
236.85336676447278
 10
3265.8771340983963
 20
236.85336676447278
 10
3264.2104674317297
 20
239.59146200256808
 10
3259.3024725008586
 20
239.59146200256808
 10
3252.6358058341916
 20
234.11527152637757
 10
3240.8771340983963
 20
234.11527152637757
 10
3239.266666666667
 20
236.76103944993233
 10
3233.5504021334887
 20
227.3700334311395
 10
3236.883735466822
 20
221.89384295494895
 10
3234.2864159786654
 20
217.62681808154838
 10
3229.973413311805
 20
221.87820642459667
 10
3231.649597866512
 20
224.63193819304428
 10
3229.2104674317293
 20
228.63908105018714
 10
3227.656199234938
 20
228.63908105018714
 10
3225.2170688001556
 20
224.63193819304428
 10
3226.883735466822
 20
221.89384295494895
 10
3224.3108314290575
 20
217.66692917862173
 10
3215.994063552855
 20
220.39958148080262
 10
3213.5437719440392
 20
213.6904496947588
 10
3216.889700527187
 20
208.19356702244497
 10
3210.97950088706
 20
201.25812866923476
 10
3207.530061242095
 20
201.25812866923476
 10
3204.989561389295
 20
208.2142592185684
 10
3208.316264533179
 20
213.67955724066323
 10
3205.933333333334
 20
217.59437278326567
 10
3202.6410122197153
 20
212.18555952517804
 10
3195.9743455530484
 20
214.92365476327325
 10
3194.322865901605
 20
212.2105096216157
 10
3187.5438007650623
 20
212.2105096216157
 10
3184.989561389295
 20
216.40676002466296
 10
3187.530061242095
 20
223.3628905739966
 10
3194.2104674317293
 20
223.3628905739966
 10
3196.649597866512
 20
227.3700334311395
 10
3194.2104674317293
 20
231.37717628828236
 10
3187.5438007650623
 20
231.37717628828236
 10
3184.9829311998456
 20
235.5843191454252
 10
3189.98701177196
 20
243.80530865675644
 10
3184.9911351866067
 20
254.74865736753048
 10
3188.3217538508675
 20
262.95625336160265
 10
3185.9078024547725
 20
266.92203065518794
 10
3182.5744691214386
 20
264.18393541709264
 10
3179.2104674317297
 20
269.7105096216157
 10
3167.5438007650628
 20
269.7105096216157
 10
3164.2104674317297
 20
275.1867000978061
 10
3157.5438007650628
 20
275.1867000978061
 10
3154.982931199845
 20
279.393842954949
 10
3157.5438007650628
 20
283.60098581209184
 10
3162.543800765063
 20
283.60098581209184
 10
3164.2104674317297
 20
286.33908105018713
 10
3172.5438007650628
 20
286.33908105018713
 10
3178.3162645331786
 20
295.8224143835204
 10
3175.8771340983963
 20
299.8295572406633
 10
3154.2104674317293
 20
299.8295572406633
 10
3152.6000000000004
 20
302.475325164218
 10
3150.2220921505564
 20
298.5687622687025
 10
3156.8887588172233
 20
290.3544765544168
 10
3153.5504021334887
 20
284.87003343113946
 10
3155.2170688001556
 20
282.1319381930443
 10
3150.979583667952
 20
275.1703554758521
 10
3140.868582864869
 20
277.938843790982
 10
3138.3162645331786
 20
282.1319381930443
 10
3139.9829311998456
 20
284.87003343113946
 10
3137.574469121439
 20
288.8267925599498
 10
3134.241135788106
 20
286.0886973218546
 10
3132.6000000000004
 20
288.78484897374193
 10
3130.217068800155
 20
284.87003343113946
 10
3133.5504021334887
 20
279.393842954949
 10
3131.0099259690182
 20
275.2202035418895
 10
3127.611248231689
 20
272.4284325433691
 10
3122.635752383187
 20
275.153108841358
 10
3120.9895325682714
 20
272.4486048597109
 10
3115.8771340983963
 20
272.4486048597109
 10
3111.660871243089
 20
279.37532240771566
 10
3113.3275379097554
 20
287.5896081220014
 10
3110.0000000000005
 20
293.0562775451705
 10
3110.0000000000005
 20
304.0721734303993
 10
3116.6445745161113
 20
312.2592384591788
 10
3113.3102994728138
 20
317.73697603031013
 10
3119.220499112941
 20
324.67241438352045
 10
3132.5438007650628
 20
324.67241438352045
 10
3134.2104674317293
 20
327.4105096216157
 10
3169.2104674317293
 20
327.4105096216157
 10
3172.6000000000004
 20
332.9790274123465
 10
3174.322865901605
 20
330.1486048597109
 10
3182.5438007650628
 20
330.1486048597109
 10
3184.2666666666673
 20
332.9790274123465
 10
3185.9895325682714
 20
330.1486048597109
 10
3207.5558920738927
 20
330.1486048597109
 10
3212.5901408283066
 20
335.66230587645
 10
3215.9078024547725
 20
332.93708382613863
 10
3217.5438007650628
 20
335.6247953359014
 10
3225.8975274991426
 20
335.6247953359014
 10
3229.2921975452286
 20
338.41327430232917
 10
3230.933333333334
 20
335.71712265044187
 10
3233.3162645331786
 20
339.6319381930443
 10
3231.649597866512
 20
342.37003343113946
 10
3234.266666666667
 20
346.6695036028228
 10
3235.933333333334
 20
343.9314083647276
 10
3239.2104674317293
 20
349.31527152637756
 10
3252.6561992349384
 20
349.31527152637756
 10
3255.217068800155
 20
345.1081286692347
 10
3250.9895325682714
 20
338.1628905739966
 10
3242.656199234938
 20
338.1628905739966
 10
3240.2170688001556
 20
334.15574771685374
 10
3241.883735466822
 20
331.41765247875855
 10
3238.5504021334887
 20
325.941462002568
 10
3240.9931568089187
 20
321.9283650357906
 10
3265.880987792197
 20
319.20255497571725
 10
3269.9829311998456
 20
325.941462002568
 10
3267.574469121439
 20
329.89822113137836
 10
3264.241135788106
 20
327.1601258932831
 10
3262.5438007650628
 20
329.9486048597109
 10
3257.5438007650628
 20
329.9486048597109
 10
3254.973413311805
 20
334.17138424720605
 10
3263.306746645138
 20
342.38566996149177
 10
3261.6579578476
 20
345.09439441459034
 10
3263.3246245142664
 20
350.5705848907809
 10
3260.872256809756
 20
354.59947469104793
 10
3242.538923476423
 20
357.3375699291431
 10
3239.982931199845
 20
361.53670009780615
 10
3244.9829311998456
 20
369.75098581209187
 10
3243.3203451052937
 20
372.4823772531416
 10
3248.326644916638
 20
383.4485577922776
 10
3246.6579578476
 20
388.93138673340286
 10
3248.316264533179
 20
391.65574771685374
 10
3245.8771340983963
 20
395.6628905739966
 10
3234.322865901605
 20
395.6628905739966
 10
3230.9954259481924
 20
390.1963820791047
 10
3215.883659241447
 20
387.4378849818416
 10
3210.877134098396
 20
395.6628905739966
 10
3200.9895325682714
 20
395.6628905739966
 10
3197.6000000000004
 20
390.09437278326567
 10
3195.933333333334
 20
392.83246802136097
 10
3192.6561992349384
 20
387.4486048597109
 10
3187.5523694692
 20
387.4486048597109
 10
3180.9450340972408
 20
395.58978594301783
 10
3178.5504021334887
 20
391.65574771685374
 10
3180.208708819068
 20
388.93138673340286
 10
3178.542042152401
 20
383.4551962572124
 10
3181.883735466822
 20
377.9652715263776
 10
3176.883735466822
 20
369.75098581209187
 10
3178.5504021334887
 20
367.0128905739966
 10
3175.217068800155
 20
361.53670009780615
 10
3177.6000000000004
 20
357.62188455520374
 10
3179.9829311998456
 20
361.53670009780615
 10
3178.3162645331786
 20
364.27479533590133
 10
3180.8618285669604
 20
368.4567933913999
 10
3185.9690857165206
 20
371.2536246875875
 10
3188.550402133489
 20
367.0128905739966
 10
3186.883735466822
 20
364.27479533590133
 10
3189.2666666666673
 20
360.3599797932989
 10
3191.649597866512
 20
364.27479533590133
 10
3189.9829311998456
 20
367.0128905739966
 10
3192.6000000000004
 20
371.3123607456799
 10
3195.2170688001556
 20
367.0128905739966
 10
3193.5504021334887
 20
364.27479533590133
 10
3195.989532568272
 20
360.26765247875846
 10
3204.322865901605
 20
360.26765247875846
 10
3206.8753754857344
 20
356.07424387625997
 10
3205.208708819068
 20
350.59805340006955
 10
3208.550402133489
 20
345.1081286692347
 10
3205.958864211895
 20
340.85060208375927
 10
3202.6255308785617
 20
343.5886973218546
 10
3199.3154924501205
 20
338.1507770465585
 10
3185.9821591167874
 20
340.8888722846537
 10
3184.322865901605
 20
338.1628905739966
 10
3180.8771340983963
 20
338.1628905739966
 10
3179.2104674317297
 20
340.90098581209185
 10
3175.9895325682714
 20
340.90098581209185
 10
3170.9333333333334
 20
332.59437278326567
 10
3169.2104674317293
 20
335.4247953359014
 10
3154.2104674317293
 20
335.4247953359014
 10
3152.5522728452224
 20
338.1489721565917
 10
3140.885606178556
 20
335.41087691849646
 10
3139.2104674317297
 20
338.1628905739966
 10
3134.3228659016045
 20
338.1628905739966
 10
3132.6000000000004
 20
335.33246802136097
 10
3129.994204576422
 20
339.613417645811
 10
3131.6622012914136
 20
347.83425859826997
 10
3126.6536784386267
 20
358.80530865675644
 10
3129.2104674317293
 20
363.00574771685376
 10
3142.5438007650628
 20
363.00574771685376
 10
3144.9829311998456
 20
367.0128905739966
 10
3140.933333333334
 20
373.6658013546943
 10
3139.322865901605
 20
371.02003343113944
 10
3132.5438007650628
 20
371.02003343113944
 10
3130.9078024547725
 20
373.7077449409022
 10
3127.566457136669
 20
370.963068429603
 10
3119.985875703808
 20
386.1843946400304
 10
3121.649597866512
 20
388.91765247875855
 10
3119.2104674317297
 20
392.9247953359014
 10
3114.3228659016045
 20
392.9247953359014
 10
3109.2802130729947
 20
384.64043711747075
 10
3103.3102994728138
 20
391.6459479748259
 10
3106.649597866512
 20
397.1319381930443
 10
3105.0000000000005
 20
399.84199183088475
 10
3105.0000000000005
 20
405.35822255551966
 10
3108.333333333334
 20
419.0486987459959
 10
3108.333333333334
 20
427.2790274123466
 10
3113.3162645331786
 20
435.4652715263776
 10
3111.645260263827
 20
438.21049282602706
 10
3119.217944215654
 20
447.88670009780606
 10
3125.877134098396
 20
447.88670009780606
 10
3132.5438007650628
 20
458.839081050187
 10
3135.882540832508
 20
458.839081050187
 10
3145.8825408325074
 20
472.5295572406633
 10
3150.8771340983963
 20
472.5295572406633
 10
3154.2104674317293
 20
478.00574771685365
 10
3157.6523803934383
 20
478.00574771685365
 10
3185.2192096365648
 20
438.20688385285945
 10
3181.883735466822
 20
432.7271762882823
 10
3185.9895325682714
 20
425.9819381930442
 10
3192.6561992349384
 20
425.9819381930442
 10
3194.3154924501205
 20
423.2559564823871
 10
3207.537223992703
 20
425.971133495596
 10
3209.977907849445
 20
429.98082840310013
 10
3203.311241182778
 20
438.19511411738586
 10
3205.869697126963
 20
442.3982917399755
 10
3217.5363637936293
 20
445.1363869780707
 10
3219.2104674317297
 20
447.88670009780606
 10
3230.897527499142
 20
447.88670009780606
 10
3237.6000000000004
 20
453.39230250922515
 10
3240.9078024547725
 20
450.67517906423393
 10
3242.5438007650628
 20
453.3628905739966
 10
3249.2308608324756
 20
453.3628905739966
 10
3252.625530878562
 20
456.15136954042435
 10
3258.5333333333338
 20
446.44569407901326
 10
3258.5333333333338
 20
438.18848632789644
 10
3255.2000000000003
 20
427.2361053755155
 10
3255.2000000000003
 20
421.7467537356466
 10
3251.8837354668226
 20
416.2986048597109
 10
3254.315492450121
 20
412.3035755300062
 10
3267.657895271888
 20
415.0435332523335
 10
3272.6642756250417
 20
404.0771762882823
 10
3277.6561992349384
 20
404.0771762882823
 10
3280.2170688001556
 20
399.87003343113946
 10
3278.5504021334887
 20
397.1319381930443
 10
3280.9895325682714
 20
393.1247953359014
 10
3284.2104674317293
 20
393.1247953359014
 10
3286.6579578476
 20
397.14567244768864
 10
3284.9912911809333
 20
402.621862923879
 10
3288.316264533179
 20
408.0843191454252
 10
3285.9172569628145
 20
412.0255458681668
 10
3280.917256962814
 20
406.54935539197623
 10
3278.3162645331786
 20
410.8224143835204
 10
3282.5642476168136
 20
417.8012437352065
 10
3287.5887517683122
 20
415.04972955700504
 10
3290.933333333334
 20
417.797064413987
 10
3294.2411357881056
 20
415.0799409689958
 10
3295.877134098396
 20
417.76765247875846
 10
3300.9895325682714
 20
417.76765247875846
 10
3303.5504021334887
 20
413.5605096216156
 10
3301.883735466822
 20
410.8224143835204
 10
3304.322865901605
 20
406.81527152637756
 10
3307.5380872149553
 20
406.81527152637756
 10
3314.9858757038082
 20
421.7699579365342
 10
3311.649597866512
 20
427.25098581209187
 10
3314.1994628435464
 20
431.44004970293423
 10
3329.309432735926
 20
436.9563879176123
 10
3332.6561992349384
 20
431.4581286692347
 10
3342.535724374959
 20
431.4581286692347
 10
3347.5873564578073
 20
442.5236084697594
 10
3350.9494097038537
 20
437.0002352798264
 10
3355.933333333334
 20
442.45881830259094
 10
3361.01149225584
 20
436.8970251969886
 10
3373.5333333333338
 20
419.06830861522405
 10
3373.5333333333338
 20
413.5324680213609
 10
3370.958864211895
 20
409.30298303614023
 10
3367.6255308785617
 20
412.04107827423553
 10
3365.2170688001556
 20
408.0843191454252
 10
3366.883735466822
 20
405.3462239073299
 10
3363.5504021334887
 20
399.87003343113946
 10
3365.933333333334
 20
395.95521788853705
 10
3367.6000000000004
 20
398.69331312663223
 10
3370.2000000000007
 20
394.42188455520363
 10
3370.2000000000007
 20
383.45429081336835
 10
3375.2038922688625
 20
364.2727037827296
 10
3373.542042152401
 20
358.81233911435527
 10
3376.866666666667
 20
353.35045598377513
 10
3376.866666666667
 20
347.8742655075846
 10
3378.5391287569123
 20
345.12664921646797
 10
3376.8724620902453
 20
336.91236350218225
 10
3380.2104386107058
 20
331.4285449328541
 10
3377.6699387579056
 20
324.47241438352046
 10
3364.3228659016045
 20
324.47241438352046
 10
3361.883735466822
 20
320.4652715263776
 10
3365.208708819068
 20
315.0028153048314
 10
3363.542042152401
 20
309.52662482864093
 10
3366.8771052773727
 20
304.04759255190174
 10
3364.3366054245726
 20
297.0914620025681
 10
3352.656199234938
 20
297.0914620025681
 10
3350.9895325682714
 20
294.35336676447275
 10
3329.322865901605
 20
294.35336676447275
 10
3327.656199234938
 20
291.61527152637757
 10
3320.8771340983963
 20
291.61527152637757
 10
3317.5438007650628
 20
297.0914620025681
 10
3314.2104674317293
 20
297.0914620025681
 10
3312.6000000000004
 20
299.73722992612284
 10
3310.9895325682714
 20
297.0914620025681
 10
3304.230860832476
 20
297.0914620025681
 10
3300.958864211895
 20
299.7791735123308
 10
3299.322865901605
 20
297.0914620025681
 10
3285.8975274991426
 20
297.0914620025681
 10
3282.625530878562
 20
299.7791735123308
 10
3280.9895325682714
 20
297.0914620025681
 10
3274.2104674317293
 20
297.0914620025681
 10
3271.6445745161113
 20
301.3068575067979
 10
3278.311241182778
 20
309.5211432210835
 10
3275.887082998716
 20
313.50368880918546
 10
3265.9980838017987
 20
310.7959866481248
 10
3264.322865901605
 20
308.043842954949
 10
3247.5558920738927
 20
308.043842954949
 10
3242.583651214416
 20
313.4896305629473
 10
3234.296583115288
 20
308.043842954949
 10
3225.9895325682714
 20
308.043842954949
 10
3224.322865901605
 20
305.30574771685383
 10
3219.2104674317297
 20
305.30574771685383
 10
3217.6000000000004
 20
307.95151564040856
 10
3215.9895325682714
 20
305.30574771685383
 10
3210.9774412594415
 20
305.30574771685383
 10
3205.9774412594415
 20
299.8295572406633
 10
3202.5438007650628
 20
299.8295572406633
 10
3199.266666666667
 20
305.2134204023134
 10
3197.662092614859
 20
302.5773344600571
 10
3182.662092614859
 20
299.83923922196186
 10
3180.2170688001556
 20
295.8224143835204
 10
3183.550402133489
 20
290.3462239073299
 10
3178.556367193854
 20
282.1417379350721
 10
3184.2900028530958
 20
275.41349200841046
 10
3189.2779148983554
 20
278.14496765224317
 10
3192.574469121439
 20
275.43708382613863
 10
3194.2104674317293
 20
278.1247953359014
 10
3200.8771340983963
 20
278.1247953359014
 10
3202.5438007650628
 20
280.8628905739966
 10
3207.6561992349384
 20
280.8628905739966
 10
3209.2982614205885
 20
278.1652169832859
 10
3217.6315947539215
 20
283.6414074594763
 10
3220.2143745491107
 20
279.39826922452227
 10
3211.8810412157773
 20
262.96969779595094
 10
3213.5504021334887
 20
260.2271762882823
 10
3211.8837354668226
 20
257.4890810501871
 10
3214.322865901605
 20
253.48193819304421
 10
3217.5438007650628
 20
253.48193819304421
 10
3224.2104674317297
 20
264.43431914542515
 10
3229.322865901605
 20
264.43431914542515
 10
3231.883735466822
 20
260.2271762882823
 10
3230.2230338605204
 20
257.49888079221495
 10
3235.919786927006
 20
250.81391545909392
 10
3238.3162645331786
 20
254.75098581209187
 10
3234.9865470196673
 20
260.22123601285983
 10
3240.8700356524764
 20
272.6486048597109
 10
3295.877134098396
 20
272.6486048597109
 10
3297.5438007650628
 20
275.38670009780606
 10
3302.656199234938
 20
275.38670009780606
 10
3304.322865901605
 20
272.6486048597109
 10
3307.555892073892
 20
272.6486048597109
 10
3312.5558920738927
 20
278.1247953359014
 10
3347.5438007650628
 20
278.1247953359014
 10
3349.2030304602963
 20
280.8506726923564
 10
3360.8803534472886
 20
283.5912689035893
 10
3365.9494097038532
 20
289.14309242268365
 10
3368.5504021334887
 20
284.87003343113946
 10
3365.2170688001556
 20
279.393842954949
 10
3366.883735466822
 20
276.65574771685374
 10
3365.226586688196
 20
273.93328900911087
 10
3373.5599200215293
 20
265.71900329482514
 10
3370.9895325682714
 20
261.49622390733
 10
3365.8771340983963
 20
261.49622390733
 10
3363.3162645331786
 20
265.70336676447283
 10
3364.982931199845
 20
268.441462002568
 10
3362.6000000000004
 20
272.3562775451704
 10
3360.2170688001556
 20
268.441462002568
 10
3363.5504021334887
 20
262.9652715263776
 10
3361.883735466822
 20
260.2271762882823
 10
3367.6765926356843
 20
250.71033951086562
 10
3370.907802454772
 20
248.05613144518634
 10
3372.5438007650628
 20
250.743842954949
 10
3379.322865901605
 20
250.743842954949
 10
3380.9895325682714
 20
248.0057477168538
 10
3385.8690577082925
 20
248.0057477168538
 10
3390.901729627654
 20
259.029695730693
 10
3395.2233346977814
 20
254.7698278758528
 10
3371.8728438698486
 20
210.92808999483526
 10
3375.189944880646
 20
197.30428227191433
 10
3382.6387740453215
 20
190.5057477168538
 10
3390.969139167525
 20
190.5057477168538
 10
3397.6358058341916
 20
185.02955724066328
 10
3405.9691391675246
 20
185.02955724066328
 10
3412.6358058341916
 20
179.55336676447274
 10
3415.9895325682714
 20
179.55336676447274
 10
3418.5333333333338
 20
175.37426550758462
 10
3418.5333333333338
 20
164.4218845552037
 10
3420.198696288303
 20
161.6859311291824
 10
3421.867987599521
 20
126.034638125334
 10
3417.6561992349384
 20
119.11527152637757
 10
3405.9895325682714
 20
119.11527152637757
 10
3404.322865901605
 20
116.37717628828237
 10
3397.656199234938
 20
116.37717628828237
 10
3395.979583667952
 20
113.62273642823307
 10
3375.8790037876233
 20
119.12646663356108
 10
3370.8892254072257
 20
124.591462002568
 10
3365.8892254072257
 20
124.591462002568
 10
3360.889225407226
 20
130.0676524787585
 10
3324.3228659016045
 20
130.0676524787585
 10
3322.656199234938
 20
127.3295572406633
 10
3317.5523694692
 20
127.3295572406633
 10
3310.8930167027106
 20
135.53483118508825
 10
3295.9954259481924
 20
132.8154296981524
 10
3294.322865901605
 20
130.0676524787585
 10
3277.6561992349384
 20
130.0676524787585
 10
3275.989532568272
 20
127.3295572406633
 10
3267.656199234938
 20
127.3295572406633
 10
3265.9895325682714
 20
124.591462002568
 10
3249.322865901605
 20
124.591462002568
 10
3247.662092614859
 20
121.86304874577148
 10
3232.550325908114
 20
119.10455164850842
 10
3226.6679703783643
 20
128.7684214473822
 10
3225.001303711698
 20
164.36365954262033
 10
3223.3246245142664
 20
167.11820393839983
 10
3224.9912911809333
 20
172.59439441459034
 10
3223.333333333334
 20
175.31818230707518
 10
3223.333333333334
 20
183.58855122187035
 10
3224.977907849445
 20
186.29035221262401
 10
3218.3166151596106
 20
194.49801641974108
 10
3223.320345105293
 20
205.45856772933212
 10
3221.649597866512
 20
208.20336676447283
 10
3224.2104674317297
 20
212.41050962161566
 10
3230.897527499142
 20
212.41050962161566
 10
3234.276525838361
 20
215.18611540025944
 10
3239.2293126756226
 20
209.76163457849682
 10
3241.6562280559615
 20
216.40676002466296
 10
3238.3162645331786
 20
221.89384295494895
 10
3240.8771340983963
 20
226.1009858120918
 10
3260.8771340983963
 20
226.1009858120918
 10
3262.5438007650628
 20
228.83908105018713
 10
3279.2104674317293
 20
228.83908105018713
 10
3280.885606178556
 20
231.59109470568728
 10
3292.552272845222
 20
228.85299946759207
 10
3294.982931199845
 20
232.8462239073299
  0
LWPOLYLINE
  5
44
330
17
100
AcDbEntity
  8
K
100
AcDbPolyline
 90
5
 70
1
 10
3370.933333333334
 20
237.1456940790132
 10
3373.316264533179
 20
241.06050962161564
 10
3370.933333333334
 20
244.97532516421805
 10
3368.5504021334887
 20
241.06050962161564
 10
3370.933333333334
 20
237.1456940790132
  0
LWPOLYLINE
  5
45
330
17
100
AcDbEntity
  8
K
100
AcDbPolyline
 90
21
 70
1
 10
3355.933333333334
 20
253.18961087850377
 10
3350.9895325682714
 20
245.0676524787585
 10
3347.656199234938
 20
245.0676524787585
 10
3345.933333333334
 20
242.23722992612284
 10
3344.2104674317297
 20
245.0676524787585
 10
3335.9895325682714
 20
245.0676524787585
 10
3333.550402133489
 20
241.06050962161564
 10
3335.9895325682714
 20
237.05336676447274
 10
3344.2104674317297
 20
237.05336676447274
 10
3345.933333333334
 20
239.88378931710852
 10
3347.656199234938
 20
237.05336676447274
 10
3357.5438007650628
 20
237.05336676447274
 10
3359.266666666667
 20
239.88378931710852
 10
3360.989532568272
 20
237.05336676447274
 10
3364.2104674317293
 20
237.05336676447274
 10
3366.649597866512
 20
241.06050962161564
 10
3362.6000000000004
 20
247.71342040231337
 10
3359.266666666667
 20
242.23722992612284
 10
3356.649597866512
 20
246.53670009780615
 10
3358.3162645331786
 20
249.27479533590136
 10
3355.933333333334
 20
253.18961087850377
  0
LWPOLYLINE
  5
46
330
17
100
AcDbEntity
  8
K
100
AcDbPolyline
 90
5
 70
1
 10
3350.933333333334
 20
401.0467537356466
 10
3348.550402133489
 20
397.1319381930443
 10
3350.933333333334
 20
393.21712265044187
 10
3353.3162645331786
 20
397.1319381930443
 10
3350.933333333334
 20
401.0467537356466
  0
LWPOLYLINE
  5
47
330
17
100
AcDbEntity
  8
K
100
AcDbPolyline
 90
13
 70
1
 10
3328.5504021334887
 20
388.91765247875855
 10
3332.6561992349384
 20
382.17241438352033
 10
3335.877134098396
 20
382.17241438352033
 10
3338.3162645331786
 20
386.1795572406632
 10
3336.6445745161113
 20
388.9259051258455
 10
3343.3112411827783
 20
397.1401908401312
 10
3340.877134098396
 20
401.13908105018703
 10
3332.5438007650628
 20
401.13908105018703
 10
3330.8771340983963
 20
403.8771762882823
 10
3327.656199234938
 20
403.8771762882823
 10
3325.2170688001556
 20
399.87003343113946
 10
3330.2170688001556
 20
391.65574771685374
 10
3328.5504021334887
 20
388.91765247875855
  0
LWPOLYLINE
  5
48
330
17
100
AcDbEntity
  8
K
100
AcDbPolyline
 90
16
 70
1
 10
3341.649597866512
 20
213.67955724066323
 10
3339.2104674317293
 20
217.6867000978061
 10
3335.9895325682714
 20
217.6867000978061
 10
3334.322865901605
 20
214.9486048597109
 10
3325.9895325682714
 20
214.9486048597109
 10
3324.266666666667
 20
212.11818230707524
 10
3322.5438007650628
 20
214.9486048597109
 10
3314.312834220393
 20
214.9486048597109
 10
3308.556367193854
 20
208.19356702244497
 10
3310.933333333334
 20
204.2885512218704
 10
3312.5438007650623
 20
206.93431914542515
 10
3322.5438007650628
 20
206.93431914542515
 10
3324.266666666667
 20
209.76474169806093
 10
3325.9895325682714
 20
206.93431914542515
 10
3337.5438007650628
 20
206.93431914542515
 10
3341.649597866512
 20
213.67955724066323
  0
LWPOLYLINE
  5
49
330
17
100
AcDbEntity
  8
K
100
AcDbPolyline
 90
7
 70
1
 10
3330.2230338605204
 20
317.7173765462544
 10
3332.6410122197153
 20
313.74498352757706
 10
3339.1983129671426
 20
316.4381606202704
 10
3341.649597866512
 20
320.4652715263776
 10
3339.2104674317293
 20
324.47241438352046
 10
3335.97950088706
 20
324.47241438352046
 10
3330.2230338605204
 20
317.7173765462544
  0
LWPOLYLINE
  5
4A
330
17
100
AcDbEntity
  8
K
100
AcDbPolyline
 90
5
 70
1
 10
3334.2469173546688
 20
354.53157998631036
 10
3330.2265866881958
 20
350.56868261507293
 10
3332.619749311999
 20
346.63705830454006
 10
3336.6400799784715
 20
350.5999556757775
 10
3334.2469173546688
 20
354.53157998631036
  0
LWPOLYLINE
  5
4B
330
17
100
AcDbEntity
  8
K
100
AcDbPolyline
 90
5
 70
1
 10
3329.2864159786654
 20
417.8275344950162
 10
3333.306746645138
 20
421.79043186625364
 10
3330.9135840213357
 20
425.7220561767865
 10
3326.893253354863
 20
421.759158805549
 10
3329.2864159786654
 20
417.8275344950162
  0
LWPOLYLINE
  5
4C
330
17
100
AcDbEntity
  8
K
100
AcDbPolyline
 90
27
 70
1
 10
3299.266666666667
 20
395.63347863876805
 10
3295.958864211895
 20
398.35060208375927
 10
3291.8837354668226
 20
391.65574771685374
 10
3295.9333333333334
 20
385.0028369361561
 10
3300.933333333334
 20
393.21712265044187
 10
3303.5504021334887
 20
388.91765247875855
 10
3301.883735466822
 20
386.1795572406632
 10
3305.2170688001556
 20
380.70336676447283
 10
3302.625530878562
 20
376.4458401789974
 10
3299.2921975452286
 20
379.1839354170926
 10
3296.883735466822
 20
375.2271762882823
 10
3299.2921975452286
 20
371.27041715947195
 10
3302.625530878562
 20
374.00851239756724
 10
3304.322865901605
 20
371.2200334311394
 10
3317.5612259546792
 20
371.2200334311394
 10
3324.9717631775034
 20
377.98361899165354
 10
3322.574469121439
 20
381.9220306551878
 10
3319.2411357881056
 20
379.1839354170926
 10
3316.6579578476003
 20
383.42772774792365
 10
3318.3246245142664
 20
388.9039182241142
 10
3314.9829311998456
 20
394.3938429549489
 10
3316.649597866512
 20
397.1319381930443
 10
3314.2104674317293
 20
401.13908105018703
 10
3310.9895325682714
 20
401.13908105018703
 10
3307.635752383187
 20
395.62929931754854
 10
3302.611248231689
 20
398.38081349575003
 10
3299.266666666667
 20
395.63347863876805
  0
LWPOLYLINE
  5
4D
330
17
100
AcDbEntity
  8
K
100
AcDbPolyline
 90
7
 70
1
 10
3319.2104674317293
 20
346.5771762882823
 10
3321.649597866512
 20
350.5843191454252
 10
3319.2104674317293
 20
354.5914620025681
 10
3310.9895325682714
 20
354.5914620025681
 10
3308.550402133489
 20
350.5843191454252
 10
3310.9895325682714
 20
346.5771762882823
 10
3319.2104674317293
 20
346.5771762882823
  0
LWPOLYLINE
  5
4E
330
17
100
AcDbEntity
  8
K
100
AcDbPolyline
 90
5
 70
1
 10
3305.933333333334
 20
311.07426550758464
 10
3308.3162645331786
 20
314.98908105018705
 10
3305.933333333334
 20
318.9038965927895
 10
3303.5504021334887
 20
314.98908105018705
 10
3305.933333333334
 20
311.07426550758464
  0
LWPOLYLINE
  5
4F
330
17
100
AcDbEntity
  8
K
100
AcDbPolyline
 90
26
 70
1
 10
3292.5438007650628
 20
305.5057477168538
 10
3294.982931199845
 20
309.5128905739966
 10
3293.316264533179
 20
312.25098581209187
 10
3295.9078024547725
 20
316.5085123975673
 10
3299.241135788106
 20
313.77041715947195
 10
3303.3162645331786
 20
320.4652715263776
 10
3301.649597866512
 20
323.20336676447283
 10
3303.3246245142664
 20
325.9551962572124
 10
3301.6579578476
 20
331.43138673340286
 10
3304.9912911809333
 20
336.9075772095933
 10
3303.3246245142664
 20
342.3837676857838
 10
3306.649597866512
 20
347.8462239073299
 10
3302.583923629481
 20
354.5255458681668
 10
3297.583923629481
 20
349.04935539197623
 10
3295.9333333333334
 20
351.7610394499323
 10
3293.550402133489
 20
347.8462239073299
 10
3298.5504021334887
 20
339.6319381930443
 10
3295.2087088190674
 20
334.1420134622094
 10
3296.8753754857344
 20
328.6658229860189
 10
3295.2170688001556
 20
325.941462002568
 10
3296.8771052773723
 20
323.2142592185684
 10
3294.312202826396
 20
316.1913120313715
 10
3290.958864211895
 20
318.9458401789974
 10
3285.2170688001556
 20
309.5128905739966
 10
3287.6561992349384
 20
305.5057477168538
 10
3292.5438007650628
 20
305.5057477168538
  0
LWPOLYLINE
  5
50
330
17
100
AcDbEntity
  8
K
100
AcDbPolyline
 90
29
 70
1
 10
3278.3162645331786
 20
199.98908105018708
 10
3276.649597866512
 20
202.7271762882823
 10
3279.2104674317293
 20
206.93431914542515
 10
3282.656199234938
 20
206.93431914542515
 10
3285.2170688001556
 20
202.7271762882823
 10
3283.5504021334887
 20
199.98908105018708
 10
3285.9895325682714
 20
195.98193819304421
 10
3294.2104674317293
 20
195.98193819304421
 10
3296.6495978665116
 20
199.98908105018708
 10
3293.316264533179
 20
205.46527152637762
 10
3296.6495978665116
 20
210.94146200256802
 10
3292.5438007650628
 20
217.6867000978061
 10
3282.5438007650628
 20
217.6867000978061
 10
3280.933333333334
 20
220.33246802136097
 10
3279.322865901605
 20
217.6867000978061
 10
3259.3228659016045
 20
217.6867000978061
 10
3251.8837354668226
 20
205.46527152637762
 10
3253.550402133489
 20
202.7271762882823
 10
3250.2170688001556
 20
197.25098581209187
 10
3252.607566627773
 20
193.32373938100645
 10
3262.587632501199
 20
206.98692480295978
 10
3266.8932533548627
 20
202.7428128186346
 10
3263.550402133489
 20
197.25098581209187
 10
3265.933333333334
 20
193.33617026948946
 10
3267.6000000000004
 20
196.07426550758467
 10
3269.2666666666673
 20
193.33617026948946
 10
3270.877134098396
 20
195.98193819304421
 10
3275.8771340983963
 20
195.98193819304421
 10
3278.3162645331786
 20
199.98908105018708
  0
LWPOLYLINE
  5
51
330
17
100
AcDbEntity
  8
K
100
AcDbPolyline
 90
7
 70
1
 10
3286.649597866512
 20
380.70336676447283
 10
3284.2204163320494
 20
384.69416499966167
 10
3274.331417135132
 20
381.9864628386009
 10
3271.883735466822
 20
377.9652715263776
 10
3274.322865901605
 20
373.9581286692347
 10
3282.5438007650628
 20
373.9581286692347
 10
3286.649597866512
 20
380.70336676447283
  0
LWPOLYLINE
  5
52
330
17
100
AcDbEntity
  8
K
100
AcDbPolyline
 90
11
 70
1
 10
3279.2104674317293
 20
357.3295572406633
 10
3269.322865901605
 20
357.3295572406633
 10
3266.883735466822
 20
353.3224143835204
 10
3269.322865901605
 20
349.31527152637756
 10
3279.2104674317293
 20
349.31527152637756
 10
3280.933333333334
 20
352.1456940790132
 10
3282.6000000000004
 20
349.407598840918
 10
3284.9829311998456
 20
353.3224143835204
 10
3282.6000000000004
 20
357.23722992612284
 10
3280.933333333334
 20
354.49913468802765
 10
3279.2104674317293
 20
357.3295572406633
  0
LWPOLYLINE
  5
53
330
17
100
AcDbEntity
  8
K
100
AcDbPolyline
 90
9
 70
1
 10
3265.933333333334
 20
190.21342040231337
 10
3263.550402133489
 20
186.29860485971093
 10
3265.933333333334
 20
182.38378931710852
 10
3267.6000000000004
 20
185.12188455520374
 10
3269.2666666666673
 20
182.38378931710852
 10
3271.6495978665125
 20
186.29860485971093
 10
3269.2666666666673
 20
190.21342040231337
 10
3267.6000000000004
 20
187.47532516421805
 10
3265.933333333334
 20
190.21342040231337
  0
LWPOLYLINE
  5
54
330
17
100
AcDbEntity
  8
K
100
AcDbPolyline
 90
5
 70
1
 10
3263.550402133489
 20
394.3938429549489
 10
3265.933333333334
 20
390.4790274123465
 10
3268.3162645331786
 20
394.3938429549489
 10
3265.933333333334
 20
398.3086584975514
 10
3263.550402133489
 20
394.3938429549489
  0
LWPOLYLINE
  5
55
330
17
100
AcDbEntity
  8
K
100
AcDbPolyline
 90
7
 70
1
 10
3255.877134098396
 20
376.6962239073299
 10
3258.3162645331786
 20
380.70336676447283
 10
3255.877134098396
 20
384.7105096216157
 10
3252.6561992349384
 20
384.7105096216157
 10
3250.2170688001556
 20
380.70336676447283
 10
3252.6561992349384
 20
376.6962239073299
 10
3255.877134098396
 20
376.6962239073299
  0
LWPOLYLINE
  5
56
330
17
100
AcDbEntity
  8
K
100
AcDbPolyline
 90
9
 70
1
 10
3243.5504021334887
 20
189.03670009780615
 10
3247.6255308785617
 20
182.34184573090062
 10
3250.958864211895
 20
185.07994096899583
 10
3252.600000000001
 20
182.38378931710852
 10
3254.982931199845
 20
186.29860485971093
 10
3252.574469121439
 20
190.25536398852128
 10
3249.2411357881056
 20
187.51726875042596
 10
3245.933333333334
 20
192.9515156404086
 10
3243.5504021334887
 20
189.03670009780615
  0
LWPOLYLINE
  5
57
330
17
100
AcDbEntity
  8
K
100
AcDbPolyline
 90
12
 70
1
 10
3224.2666666666673
 20
420.21342040231326
 10
3222.656199234938
 20
417.5676524787585
 10
3212.6561992349384
 20
417.5676524787585
 10
3210.2170688001556
 20
413.5605096216156
 10
3212.6561992349384
 20
409.55336676447274
 10
3225.9895325682714
 20
409.55336676447274
 10
3227.6477271547787
 20
406.82918994378247
 10
3239.2030304602963
 20
409.54114888283254
 10
3241.649597866512
 20
413.5605096216156
 10
3239.2104674317293
 20
417.5676524787585
 10
3225.8771340983963
 20
417.5676524787585
 10
3224.2666666666673
 20
420.21342040231326
  0
LWPOLYLINE
  5
58
330
17
100
AcDbEntity
  8
K
100
AcDbPolyline
 90
13
 70
1
 10
3208.561570155831
 20
230.12647613451065
 10
3215.930685949193
 20
223.4006958469177
 10
3219.973413311805
 20
227.3856699614918
 10
3216.649597866512
 20
232.8462239073299
 10
3219.2104674317297
 20
237.05336676447274
 10
3229.2104674317293
 20
237.05336676447274
 10
3231.6384298441703
 20
241.04216215633966
 10
3224.263219932694
 20
247.77350453586166
 10
3220.969139167525
 20
245.0676524787585
 10
3210.9895325682714
 20
245.0676524787585
 10
3206.883735466822
 20
238.32241438352042
 10
3210.2170688001556
 20
232.8462239073299
 10
3208.561570155831
 20
230.12647613451065
  0
LWPOLYLINE
  5
59
330
17
100
AcDbEntity
  8
K
100
AcDbPolyline
 90
5
 70
1
 10
3218.3162645331786
 20
429.98908105018705
 10
3215.9333333333334
 20
433.9038965927895
 10
3213.5504021334887
 20
429.98908105018705
 10
3215.9333333333334
 20
426.07426550758464
 10
3218.3162645331786
 20
429.98908105018705
  0
LWPOLYLINE
  5
5A
330
17
100
AcDbEntity
  8
K
100
AcDbPolyline
 90
8
 70
1
 10
3198.3162645331786
 20
249.27479533590136
 10
3199.9829311998456
 20
252.01289057399657
 10
3197.6110177801975
 20
255.9096054777038
 10
3191.880119647
 20
243.8045451351334
 10
3194.322865901605
 20
239.79146200256807
 10
3199.2104674317293
 20
239.79146200256807
 10
3201.649597866512
 20
243.79860485971093
 10
3198.3162645331786
 20
249.27479533590136
  0
LWPOLYLINE
  5
5B
330
17
100
AcDbEntity
  8
K
100
AcDbPolyline
 90
5
 70
1
 10
3175.933333333334
 20
346.6695036028228
 10
3178.3162645331786
 20
350.5843191454252
 10
3175.933333333334
 20
354.49913468802765
 10
3173.5504021334887
 20
350.5843191454252
 10
3175.933333333334
 20
346.6695036028228
  0
LWPOLYLINE
  5
5C
330
17
100
AcDbEntity
  8
K
100
AcDbPolyline
 90
5
 70
1
 10
3170.9333333333334
 20
395.57056325945615
 10
3168.550402133489
 20
391.65574771685374
 10
3170.9333333333334
 20
387.7409321742513
 10
3173.3162645331786
 20
391.65574771685374
 10
3170.9333333333334
 20
395.57056325945615
  0
LWPOLYLINE
  5
5D
330
17
100
AcDbEntity
  8
K
100
AcDbPolyline
 90
12
 70
1
 10
3170.877134098396
 20
310.9819381930442
 10
3173.3162645331786
 20
314.98908105018705
 10
3170.877134098396
 20
318.99622390733
 10
3149.3024725008586
 20
318.99622390733
 10
3145.9078024547725
 20
316.2077449409022
 10
3144.2104674317293
 20
318.99622390733
 10
3140.9895325682714
 20
318.99622390733
 10
3136.883735466822
 20
312.25098581209187
 10
3139.292197545228
 20
308.2942266832815
 10
3145.933333333334
 20
313.749445366368
 10
3149.3024725008586
 20
310.9819381930442
 10
3170.877134098396
 20
310.9819381930442
  0
LWPOLYLINE
  5
5E
330
17
100
AcDbEntity
  8
K
100
AcDbPolyline
 90
10
 70
1
 10
3160.2170688001556
 20
361.53670009780615
 10
3158.5504021334887
 20
358.79860485971096
 10
3160.953082645332
 20
354.8513440188258
 10
3164.9867201699985
 20
358.827358150283
 10
3163.324624514267
 20
364.2885295905457
 10
3164.9829311998456
 20
367.0128905739966
 10
3162.543800765063
 20
371.02003343113944
 10
3159.3228659016045
 20
371.02003343113944
 10
3156.883735466822
 20
367.0128905739966
 10
3160.2170688001556
 20
361.53670009780615
  0
LWPOLYLINE
  5
5F
330
17
100
AcDbEntity
  8
K
100
AcDbPolyline
 90
5
 70
1
 10
3153.5563671938535
 20
424.5030908319687
 10
3155.946879739661
 20
420.5758202209986
 10
3161.6436328061473
 20
427.2607855541197
 10
3159.2531202603395
 20
431.1880561650898
 10
3153.5563671938535
 20
424.5030908319687
  0
LWPOLYLINE
  5
60
330
17
100
AcDbEntity
  8
K
100
AcDbPolyline
 90
5
 70
1
 10
3147.600000000001
 20
431.1658013546943
 10
3145.2170688001556
 20
427.25098581209187
 10
3147.600000000001
 20
423.33617026948946
 10
3149.982931199845
 20
427.25098581209187
 10
3147.600000000001
 20
431.1658013546943
  0
LWPOLYLINE
  5
61
330
17
100
AcDbEntity
  8
K
100
AcDbPolyline
 90
11
 70
1
 10
3142.6255308785617
 20
349.3656552547101
 10
3144.322865901605
 20
346.5771762882823
 10
3147.5438007650628
 20
346.5771762882823
 10
3149.982931199845
 20
350.5843191454252
 10
3147.5438007650628
 20
354.5914620025681
 10
3144.322865901605
 20
354.5914620025681
 10
3142.6255308785617
 20
351.80298303614023
 10
3139.292197545228
 20
354.54107827423553
 10
3136.883735466822
 20
350.5843191454252
 10
3139.292197545228
 20
346.6275600166149
 10
3142.6255308785617
 20
349.3656552547101
  0
LWPOLYLINE
  5
62
330
17
100
AcDbEntity
  8
K
100
AcDbPolyline
 90
5
 70
1
 10
3140.953082645332
 20
390.4465821140638
 10
3144.973413311805
 20
394.40947948530123
 10
3142.5802506880023
 20
398.3411037958341
 10
3138.5599200215297
 20
394.37820642459667
 10
3140.953082645332
 20
390.4465821140638
  0
LWPOLYLINE
  5
63
330
17
100
AcDbEntity
  8
K
100
AcDbPolyline
 90
5
 70
1
 10
3126.649597866512
 20
394.3938429549489
 10
3124.2666666666673
 20
398.3086584975514
 10
3121.883735466822
 20
394.3938429549489
 10
3124.2666666666673
 20
390.4790274123465
 10
3126.649597866512
 20
394.3938429549489
  0
LWPOLYLINE
  5
64
330
17
100
AcDbEntity
  8
K
100
AcDbPolyline
 90
5
 70
1
 10
3120.2265866881958
 20
287.5924921388824
 10
3122.619749311999
 20
283.6608678283495
 10
3126.6400799784715
 20
287.623765199587
 10
3124.2469173546688
 20
291.5553895101198
 10
3120.2265866881958
 20
287.5924921388824
  0
LWPOLYLINE
  5
65
330
17
100
AcDbEntity
  8
K
100
AcDbPolyline
 90
8
 70
1
 10
3382.609005604144
 20
272.6922132699361
 10
3388.556367193854
 20
265.71316650650067
 10
3385.9895325682714
 20
261.49622390733
 10
3382.5438007650628
 20
261.49622390733
 10
3380.9333333333334
 20
264.1419918308847
 10
3379.2864159786654
 20
261.43634189107235
 10
3374.954718709406
 20
265.7061577707708
 10
3382.609005604144
 20
272.6922132699361
  0
LWPOLYLINE
  5
66
330
17
100
AcDbEntity
  8
K
100
AcDbPolyline
 90
5
 70
1
 10
3306.640079978471
 20
383.4258254722157
 10
3309.246917354669
 20
387.7084868759686
 10
3313.5599200215293
 20
383.4570985329203
 10
3310.953082645332
 20
379.1744371291674
 10
3306.640079978471
 20
383.4258254722157
  0
LWPOLYLINE
  5
67
330
17
100
AcDbEntity
  8
K
100
AcDbPolyline
 90
5
 70
1
 10
3295.2170688001556
 20
249.27479533590136
 10
3292.600000000001
 20
244.97532516421805
 10
3289.9829311998456
 20
249.27479533590136
 10
3292.600000000001
 20
253.57426550758467
 10
3295.2170688001556
 20
249.27479533590136
  0
LWPOLYLINE
  5
68
330
17
100
AcDbEntity
  8
K
100
AcDbPolyline
 90
5
 70
1
 10
3290.2170688001556
 20
238.32241438352042
 10
3287.600000000001
 20
234.0229442118371
 10
3284.9829311998456
 20
238.32241438352042
 10
3287.600000000001
 20
242.62188455520374
 10
3290.2170688001556
 20
238.32241438352042
  0
LWPOLYLINE
  5
69
330
17
100
AcDbEntity
  8
K
100
AcDbPolyline
 90
5
 70
1
 10
3234.982931199845
 20
282.1319381930443
 10
3237.6000000000004
 20
286.4314083647276
 10
3240.2170688001556
 20
282.1319381930443
 10
3237.6000000000004
 20
277.83246802136097
 10
3234.982931199845
 20
282.1319381930443
  0
LWPOLYLINE
  5
6A
330
17
100
AcDbEntity
  8
K
100
AcDbPolyline
 90
5
 70
1
 10
3216.8932533548627
 20
342.38566996149177
 10
3214.2864159786654
 20
338.1030085577389
 10
3209.973413311805
 20
342.35439690078715
 10
3212.5802506880023
 20
346.63705830454006
 10
3216.8932533548627
 20
342.38566996149177
  0
LWPOLYLINE
  5
6B
330
17
100
AcDbEntity
  8
K
100
AcDbPolyline
 90
45
 70
1
 10
4592.599999999999
 20
239.49913468802762
 10
4589.982931199846
 20
243.79860485971093
 10
4592.599999999999
 20
248.09807503139425
 10
4594.266666666666
 20
245.35997979329892
 10
4596.649597866512
 20
249.27479533590136
 10
4594.266666666666
 20
253.18961087850377
 10
4592.599999999999
 20
250.45151564040856
 10
4590.883659241447
 20
253.27121831517496
 10
4583.3322699549335
 20
251.89279011208143
 10
4584.167974031937
 20
346.62581655517266
 10
4590.9920645104
 20
343.823065108661
 10
4595.977441259441
 20
338.3628905739966
 10
4600.989532568271
 20
338.3628905739966
 10
4605.189622211709
 20
331.46274330263304
 10
4608.533333333334
 20
323.22288375291777
 10
4608.533333333334
 20
317.7151776400925
 10
4605.2
 20
304.0247014496164
 10
4605.2
 20
295.7943727832657
 10
4603.5563671938535
 20
293.0941188874531
 10
4609.312834220394
 20
286.33908105018713
 10
4619.322865901605
 20
286.33908105018713
 10
4621.861188713668
 20
282.1689792875109
 10
4623.536367443574
 20
273.9127412615451
 10
4621.875375485734
 20
268.4551962572124
 10
4625.2087088190665
 20
262.97900578102195
 10
4623.542042152401
 20
257.5028153048314
 10
4628.545720372113
 20
249.28248680101672
 10
4624.33223132931
 20
239.59146200256808
 10
4622.543800765062
 20
239.59146200256808
 10
4619.991291180932
 20
243.7848706050666
 10
4621.657957847599
 20
249.261061081257
 10
4619.982931199845
 20
252.01289057399657
 10
4621.649597866512
 20
254.75098581209187
 10
4619.21046743173
 20
258.75812866923474
 10
4615.989532568271
 20
258.75812866923474
 10
4611.883735466822
 20
252.01289057399657
 10
4616.883735466821
 20
243.79860485971093
 10
4614.322865901604
 20
239.59146200256808
 10
4609.322865901603
 20
239.59146200256808
 10
4607.625530878561
 20
236.80298303614023
 10
4604.230860832475
 20
239.59146200256808
 10
4600.989532568271
 20
239.59146200256808
 10
4599.282743037186
 20
236.78745063007145
 10
4594.282743037185
 20
242.26364110626199
 10
4592.599999999999
 20
239.49913468802762
  0
LWPOLYLINE
  5
6C
330
17
100
AcDbEntity
  8
K
100
AcDbPolyline
 90
7
 70
1
 10
4607.543800765063
 20
267.17241438352045
 10
4609.982931199845
 20
271.1795572406632
 10
4607.543800765063
 20
275.1867000978061
 10
4602.656199234938
 20
275.1867000978061
 10
4600.217068800155
 20
271.1795572406632
 10
4602.656199234938
 20
267.17241438352045
 10
4607.543800765063
 20
267.17241438352045
  0
LWPOLYLINE
  5
6D
330
17
100
AcDbEntity
  8
K
100
AcDbPolyline
 90
27
 70
1
 10
4583.333333333334
 20
227.42192534740968
 10
4589.234994089935
 20
231.57717628828235
 10
4595.877134098396
 20
231.57717628828235
 10
4597.5839236294805
 20
234.38118766077886
 10
4602.6
 20
228.88738973116241
 10
4607.616076370519
 20
234.38118766077886
 10
4611.883735466822
 20
227.3700334311395
 10
4608.537668068141
 20
221.87292270473523
 10
4610.204334734808
 20
210.9205417523543
 10
4606.878246149133
 20
205.45625336160268
 10
4610.211579482465
 20
197.24196764731693
 10
4605.949409703852
 20
190.2398315824525
 10
4600.949409703853
 20
195.71602205864292
 10
4599.322865901604
 20
193.04384295494904
 10
4595.877134098396
 20
193.04384295494904
 10
4593.3162645331795
 20
197.25098581209187
 10
4596.649597866512
 20
202.7271762882823
 10
4594.266666666666
 20
206.6419918308847
 10
4592.599999999999
 20
203.90389659278952
 10
4590.955970343922
 20
206.60480245634517
 10
4588.543771944039
 20
199.99997350428268
 10
4591.883735466821
 20
194.51289057399657
 10
4584.18461549577
 20
181.8643363358422
 10
4583.331770695745
 20
197.2764602220235
 10
4584.982931199845
 20
199.98908105018708
 10
4583.333333333334
 20
202.69913468802758
 10
4583.333333333334
 20
227.42192534740968
  0
LWPOLYLINE
  5
6E
330
17
100
AcDbEntity
  8
K
100
AcDbPolyline
 90
5
 70
1
 10
4600.933333333333
 20
206.6419918308847
 10
4598.550402133488
 20
202.7271762882823
 10
4600.933333333333
 20
198.81236074567988
 10
4603.316264533179
 20
202.7271762882823
 10
4600.933333333333
 20
206.6419918308847
  0
LWPOLYLINE
  5
6F
330
17
100
AcDbEntity
  8
K
100
AcDbPolyline
 90
5
 70
1
 10
4605.953082645332
 20
179.29348474821504
 10
4601.6400799784715
 20
183.54487309126333
 10
4604.246917354669
 20
187.8275344950162
 10
4608.559920021529
 20
183.57614615196795
 10
4605.953082645332
 20
179.29348474821504
  0
ENDSEC
  0
SECTION
  2
OBJECTS
  0
DICTIONARY
  5
A
330
0
100
AcDbDictionary
281
1
  3
ACAD_COLOR
350
B
  3
ACAD_GROUP
350
C
  3
ACAD_LAYOUT
350
D
  3
ACAD_MATERIAL
350
E
  3
ACAD_MLEADERSTYLE
350
F
  3
ACAD_MLINESTYLE
350
10
  3
ACAD_PLOTSETTINGS
350
11
  3
ACAD_PLOTSTYLENAME
350
12
  3
ACAD_SCALELIST
350
14
  3
ACAD_TABLESTYLE
350
15
  3
ACAD_VISUALSTYLE
350
16
  3
EZDXF_META
350
2D
  0
DICTIONARY
  5
B
330
A
100
AcDbDictionary
281
1
  0
DICTIONARY
  5
C
330
A
100
AcDbDictionary
281
1
  0
DICTIONARY
  5
D
330
A
100
AcDbDictionary
281
1
  3
Model
350
1A
  3
Layout1
350
1E
  0
DICTIONARY
  5
E
330
A
100
AcDbDictionary
281
1
  3
ByBlock
350
1F
  3
ByLayer
350
20
  3
Global
350
21
  0
DICTIONARY
  5
F
330
A
100
AcDbDictionary
281
1
  3
Standard
350
2C
  0
DICTIONARY
  5
10
330
A
100
AcDbDictionary
281
1
  3
Standard
350
22
  0
DICTIONARY
  5
11
330
A
100
AcDbDictionary
281
1
  0
ACDBDICTIONARYWDFLT
  5
12
330
A
100
AcDbDictionary
281
1
  3
Normal
350
13
100
AcDbDictionaryWithDefault
340
13
  0
ACDBPLACEHOLDER
  5
13
330
12
  0
DICTIONARY
  5
14
330
A
100
AcDbDictionary
281
1
  0
DICTIONARY
  5
15
330
A
100
AcDbDictionary
281
1
  0
DICTIONARY
  5
16
330
A
100
AcDbDictionary
281
1
  0
LAYOUT
  5
1A
330
D
100
AcDbPlotSettings
  1

  4
A3
  6

 40
7.5
 41
20.0
 42
7.5
 43
20.0
 44
420.0
 45
297.0
 46
0.0
 47
0.0
 48
0.0
 49
0.0
140
0.0
141
0.0
142
1.0
143
1.0
 70
1024
 72
1
 73
0
 74
5
  7

 75
16
 76
0
 77
2
 78
300
147
1.0
148
0.0
149
0.0
100
AcDbLayout
  1
Model
 70
1
 71
0
 10
0.0
 20
0.0
 11
420.0
 21
297.0
 12
0.0
 22
0.0
 32
0.0
 14
1e+20
 24
1e+20
 34
1e+20
 15
-1e+20
 25
-1e+20
 35
-1e+20
146
0.0
 13
0.0
 23
0.0
 33
0.0
 16
1.0
 26
0.0
 36
0.0
 17
0.0
 27
1.0
 37
0.0
 76
1
330
17
  0
LAYOUT
  5
1E
330
D
100
AcDbPlotSettings
  1

  4
A3
  6

 40
7.5
 41
20.0
 42
7.5
 43
20.0
 44
420.0
 45
297.0
 46
0.0
 47
0.0
 48
0.0
 49
0.0
140
0.0
141
0.0
142
1.0
143
1.0
 70
0
 72
1
 73
0
 74
5
  7

 75
16
 76
0
 77
2
 78
300
147
1.0
148
0.0
149
0.0
100
AcDbLayout
  1
Layout1
 70
1
 71
1
 10
0.0
 20
0.0
 11
420.0
 21
297.0
 12
0.0
 22
0.0
 32
0.0
 14
1e+20
 24
1e+20
 34
1e+20
 15
-1e+20
 25
-1e+20
 35
-1e+20
146
0.0
 13
0.0
 23
0.0
 33
0.0
 16
1.0
 26
0.0
 36
0.0
 17
0.0
 27
1.0
 37
0.0
 76
1
330
1B
  0
MATERIAL
  5
1F
102
{ACAD_REACTORS
330
E
102
}
330
E
100
AcDbMaterial
  1
ByBlock
  2

 70
0
 40
1.0
 71
1
 41
1.0
 91
-1023410177
 42
1.0
 72
1
  3

 73
1
 74
1
 75
1
 44
0.5
 73
0
 45
1.0
 46
1.0
 77
1
  4

 78
1
 79
1
170
1
 48
1.0
171
1
  6

172
1
173
1
174
1
140
1.0
141
1.0
175
1
  7

176
1
177
1
178
1
143
1.0
179
1
  8

270
1
271
1
272
1
145
1.0
146
1.0
273
1
  9

274
1
275
1
276
1
 42
1.0
 72
1
  3

 73
1
 74
1
 75
1
 94
63
  0
MATERIAL
  5
20
102
{ACAD_REACTORS
330
E
102
}
330
E
100
AcDbMaterial
  1
ByLayer
  2

 70
0
 40
1.0
 71
1
 41
1.0
 91
-1023410177
 42
1.0
 72
1
  3

 73
1
 74
1
 75
1
 44
0.5
 73
0
 45
1.0
 46
1.0
 77
1
  4

 78
1
 79
1
170
1
 48
1.0
171
1
  6

172
1
173
1
174
1
140
1.0
141
1.0
175
1
  7

176
1
177
1
178
1
143
1.0
179
1
  8

270
1
271
1
272
1
145
1.0
146
1.0
273
1
  9

274
1
275
1
276
1
 42
1.0
 72
1
  3

 73
1
 74
1
 75
1
 94
63
  0
MATERIAL
  5
21
102
{ACAD_REACTORS
330
E
102
}
330
E
100
AcDbMaterial
  1
Global
  2

 70
0
 40
1.0
 71
1
 41
1.0
 91
-1023410177
 42
1.0
 72
1
  3

 73
1
 74
1
 75
1
 44
0.5
 73
0
 45
1.0
 46
1.0
 77
1
  4

 78
1
 79
1
170
1
 48
1.0
171
1
  6

172
1
173
1
174
1
140
1.0
141
1.0
175
1
  7

176
1
177
1
178
1
143
1.0
179
1
  8

270
1
271
1
272
1
145
1.0
146
1.0
273
1
  9

274
1
275
1
276
1
 42
1.0
 72
1
  3

 73
1
 74
1
 75
1
 94
63
  0
MLINESTYLE
  5
22
102
{ACAD_REACTORS
330
10
102
}
330
10
100
AcDbMlineStyle
  2
Standard
 70
0
  3

 62
256
 51
90.0
 52
90.0
 71
2
 49
0.5
 62
256
  6
BYLAYER
 49
-0.5
 62
256
  6
BYLAYER
  0
MLEADERSTYLE
  5
2C
102
{ACAD_REACTORS
330
F
102
}
330
F
100
AcDbMLeaderStyle
179
2
170
2
171
1
172
0
 90
2
 40
0.0
 41
0.0
173
1
 91
-1056964608
 92
-2
290
1
 42
2.0
291
1
 43
8.0
  3
Standard
 44
4.0
300

342
29
174
1
175
1
176
0
178
1
 93
-1056964608
 45
4.0
292
0
297
0
 46
4.0
 94
-1056964608
 47
1.0
 49
1.0
140
1.0
294
1
141
0.0
177
0
142
1.0
295
0
296
0
143
3.75
271
0
272
9
273
9
  0
DICTIONARY
  5
2D
330
A
100
AcDbDictionary
280
1
281
1
  3
CREATED_BY_EZDXF
350
2E
  3
WRITTEN_BY_EZDXF
350
72
  0
DICTIONARYVAR
  5
2E
330
2D
100
DictionaryVariables
280
0
  1
1.4.4 @ 2026-07-21T09:53:46.284905+00:00
  0
DICTIONARYVAR
  5
72
330
2D
100
DictionaryVariables
280
0
  1
1.4.4 @ 2026-07-21T09:53:46.293258+00:00
  0
ENDSEC
  0
EOF
