  0
SECTION
  2
HEADER
  9
$ACADVER
  1
AC1027
  9
$ACADMAINTVER
 70
105
  9
$DWGCODEPAGE
  3
ANSI_1252
  9
$LASTSAVEDBY
  1
ezdxf
  9
$REQUIREDVERSIONS
160
0
  9
$INSBASE
 10
0.0
 20
0.0
 30
0.0
  9
$EXTMIN
 10
1e+20
 20
1e+20
 30
1e+20
  9
$EXTMAX
 10
-1e+20
 20
-1e+20
 30
-1e+20
  9
$LIMMIN
 10
0.0
 20
0.0
  9
$LIMMAX
 10
420.0
 20
297.0
  9
$ORTHOMODE
 70
0
  9
$REGENMODE
 70
1
  9
$FILLMODE
 70
1
  9
$QTEXTMODE
 70
0
  9
$MIRRTEXT
 70
1
  9
$LTSCALE
 40
1.0
  9
$ATTMODE
 70
1
  9
$TEXTSIZE
 40
2.5
  9
$TRACEWID
 40
1.0
  9
$TEXTSTYLE
  7
Standard
  9
$CLAYER
  8
0
  9
$CELTYPE
  6
ByLayer
  9
$CECOLOR
 62
256
  9
$CELTSCALE
 40
1.0
  9
$DISPSILH
 70
0
  9
$DIMSCALE
 40
1.0
  9
$DIMASZ
 40
2.5
  9
$DIMEXO
 40
0.625
  9
$DIMDLI
 40
3.75
  9
$DIMRND
 40
0.0
  9
$DIMDLE
 40
0.0
  9
$DIMEXE
 40
1.25
  9
$DIMTP
 40
0.0
  9
$DIMTM
 40
0.0
  9
$DIMTXT
 40
2.5
  9
$DIMCEN
 40
2.5
  9
$DIMTSZ
 40
0.0
  9
$DIMTOL
 70
0
  9
$DIMLIM
 70
0
  9
$DIMTIH
 70
0
  9
$DIMTOH
 70
0
  9
$DIMSE1
 70
0
  9
$DIMSE2
 70
0
  9
$DIMTAD
 70
1
  9
$DIMZIN
 70
8
  9
$DIMBLK
  1

  9
$DIMASO
 70
1
  9
$DIMSHO
 70
1
  9
$DIMPOST
  1

  9
$DIMAPOST
  1

  9
$DIMALT
 70
0
  9
$DIMALTD
 70
3
  9
$DIMALTF
 40
0.03937007874
  9
$DIMLFAC
 40
1.0
  9
$DIMTOFL
 70
1
  9
$DIMTVP
 40
0.0
  9
$DIMTIX
 70
0
  9
$DIMSOXD
 70
0
  9
$DIMSAH
 70
0
  9
$DIMBLK1
  1

  9
$DIMBLK2
  1

  9
$DIMSTYLE
  2
ISO-25
  9
$DIMCLRD
 70
0
  9
$DIMCLRE
 70
0
  9
$DIMCLRT
 70
0
  9
$DIMTFAC
 40
1.0
  9
$DIMGAP
 40
0.625
  9
$DIMJUST
 70
0
  9
$DIMSD1
 70
0
  9
$DIMSD2
 70
0
  9
$DIMTOLJ
 70
0
  9
$DIMTZIN
 70
8
  9
$DIMALTZ
 70
0
  9
$DIMALTTZ
 70
0
  9
$DIMUPT
 70
0
  9
$DIMDEC
 70
2
  9
$DIMTDEC
 70
2
  9
$DIMALTU
 70
2
  9
$DIMALTTD
 70
3
  9
$DIMTXSTY
  7
Standard
  9
$DIMAUNIT
 70
0
  9
$DIMADEC
 70
0
  9
$DIMALTRND
 40
0.0
  9
$DIMAZIN
 70
0
  9
$DIMDSEP
 70
44
  9
$DIMATFIT
 70
3
  9
$DIMFRAC
 70
0
  9
$DIMLDRBLK
  1

  9
$DIMLUNIT
 70
2
  9
$DIMLWD
 70
-2
  9
$DIMLWE
 70
-2
  9
$DIMTMOVE
 70
0
  9
$DIMFXL
 40
1.0
  9
$DIMFXLON
 70
0
  9
$DIMJOGANG
 40
0.785398163397
  9
$DIMTFILL
 70
0
  9
$DIMTFILLCLR
 70
0
  9
$DIMARCSYM
 70
0
  9
$DIMLTYPE
  6

  9
$DIMLTEX1
  6

  9
$DIMLTEX2
  6

  9
$DIMTXTDIRECTION
 70
0
  9
$LUNITS
 70
2
  9
$LUPREC
 70
4
  9
$SKETCHINC
 40
1.0
  9
$FILLETRAD
 40
10.0
  9
$AUNITS
 70
0
  9
$AUPREC
 70
2
  9
$MENU
  1
.
  9
$ELEVATION
 40
0.0
  9
$PELEVATION
 40
0.0
  9
$THICKNESS
 40
0.0
  9
$LIMCHECK
 70
0
  9
$CHAMFERA
 40
0.0
  9
$CHAMFERB
 40
0.0
  9
$CHAMFERC
 40
0.0
  9
$CHAMFERD
 40
0.0
  9
$SKPOLY
 70
0
  9
$TDCREATE
 40
2461242.7713194443
  9
$TDUCREATE
 40
2458532.153996898
  9
$TDUPDATE
 40
2461242.7713194443
  9
$TDUUPDATE
 40
2458532.1544311
  9
$TDINDWG
 40
0.0
  9
$TDUSRTIMER
 40
0.0
  9
$USRTIMER
 70
1
  9
$ANGBASE
 50
0.0
  9
$ANGDIR
 70
0
  9
$PDMODE
 70
0
  9
$PDSIZE
 40
0.0
  9
$PLINEWID
 40
0.0
  9
$SPLFRAME
 70
0
  9
$SPLINETYPE
 70
6
  9
$SPLINESEGS
 70
8
  9
$HANDSEED
  5
62
  9
$SURFTAB1
 70
6
  9
$SURFTAB2
 70
6
  9
$SURFTYPE
 70
6
  9
$SURFU
 70
6
  9
$SURFV
 70
6
  9
$UCSBASE
  2

  9
$UCSNAME
  2

  9
$UCSORG
 10
0.0
 20
0.0
 30
0.0
  9
$UCSXDIR
 10
1.0
 20
0.0
 30
0.0
  9
$UCSYDIR
 10
0.0
 20
1.0
 30
0.0
  9
$UCSORTHOREF
  2

  9
$UCSORTHOVIEW
 70
0
  9
$UCSORGTOP
 10
0.0
 20
0.0
 30
0.0
  9
$UCSORGBOTTOM
 10
0.0
 20
0.0
 30
0.0
  9
$UCSORGLEFT
 10
0.0
 20
0.0
 30
0.0
  9
$UCSORGRIGHT
 10
0.0
 20
0.0
 30
0.0
  9
$UCSORGFRONT
 10
0.0
 20
0.0
 30
0.0
  9
$UCSORGBACK
 10
0.0
 20
0.0
 30
0.0
  9
$PUCSBASE
  2

  9
$PUCSNAME
  2

  9
$PUCSORG
 10
0.0
 20
0.0
 30
0.0
  9
$PUCSXDIR
 10
1.0
 20
0.0
 30
0.0
  9
$PUCSYDIR
 10
0.0
 20
1.0
 30
0.0
  9
$PUCSORTHOREF
  2

  9
$PUCSORTHOVIEW
 70
0
  9
$PUCSORGTOP
 10
0.0
 20
0.0
 30
0.0
  9
$PUCSORGBOTTOM
 10
0.0
 20
0.0
 30
0.0
  9
$PUCSORGLEFT
 10
0.0
 20
0.0
 30
0.0
  9
$PUCSORGRIGHT
 10
0.0
 20
0.0
 30
0.0
  9
$PUCSORGFRONT
 10
0.0
 20
0.0
 30
0.0
  9
$PUCSORGBACK
 10
0.0
 20
0.0
 30
0.0
  9
$USERI1
 70
0
  9
$USERI2
 70
0
  9
$USERI3
 70
0
  9
$USERI4
 70
0
  9
$USERI5
 70
0
  9
$USERR1
 40
0.0
  9
$USERR2
 40
0.0
  9
$USERR3
 40
0.0
  9
$USERR4
 40
0.0
  9
$USERR5
 40
0.0
  9
$WORLDVIEW
 70
1
  9
$SHADEDGE
 70
3
  9
$SHADEDIF
 70
70
  9
$TILEMODE
 70
1
  9
$MAXACTVP
 70
64
  9
$PINSBASE
 10
0.0
 20
0.0
 30
0.0
  9
$PLIMCHECK
 70
0
  9
$PEXTMIN
 10
1e+20
 20
1e+20
 30
1e+20
  9
$PEXTMAX
 10
-1e+20
 20
-1e+20
 30
-1e+20
  9
$PLIMMIN
 10
0.0
 20
0.0
  9
$PLIMMAX
 10
420.0
 20
297.0
  9
$UNITMODE
 70
0
  9
$VISRETAIN
 70
1
  9
$PLINEGEN
 70
0
  9
$PSLTSCALE
 70
1
  9
$TREEDEPTH
 70
3020
  9
$CMLSTYLE
  2
Standard
  9
$CMLJUST
 70
0
  9
$CMLSCALE
 40
20.0
  9
$PROXYGRAPHICS
 70
1
  9
$MEASUREMENT
 70
1
  9
$CELWEIGHT
370
-1
  9
$ENDCAPS
280
0
  9
$JOINSTYLE
280
0
  9
$LWDISPLAY
290
0
  9
$INSUNITS
 70
4
  9
$HYPERLINKBASE
  1

  9
$STYLESHEET
  1

  9
$XEDIT
290
1
  9
$CEPSNTYPE
380
0
  9
$PSTYLEMODE
290
1
  9
$FINGERPRINTGUID
  2
{FB374C11-F9DA-4B37-9867-D2A6427E4405}
  9
$VERSIONGUID
  2
{FB873261-A74E-4E01-BAE8-7CFB94DAF199}
  9
$EXTNAMES
290
1
  9
$PSVPSCALE
 40
0.0
  9
$OLESTARTUP
290
0
  9
$SORTENTS
280
127
  9
$INDEXCTL
280
0
  9
$HIDETEXT
280
1
  9
$XCLIPFRAME
280
1
  9
$HALOGAP
280
0
  9
$OBSCOLOR
 70
257
  9
$OBSLTYPE
280
0
  9
$INTERSECTIONDISPLAY
280
0
  9
$INTERSECTIONCOLOR
 70
257
  9
$DIMASSOC
280
2
  9
$PROJECTNAME
  1

  9
$CAMERADISPLAY
290
0
  9
$LENSLENGTH
 40
50.0
  9
$CAMERAHEIGHT
 40
0.0
  9
$STEPSPERSEC
 40
24.0
  9
$STEPSIZE
 40
100.0
  9
$3DDWFPREC
 40
2.0
  9
$PSOLWIDTH
 40
0.005
  9
$PSOLHEIGHT
 40
0.08
  9
$LOFTANG1
 40
1.570796326795
  9
$LOFTANG2
 40
1.570796326795
  9
$LOFTMAG1
 40
0.0
  9
$LOFTMAG2
 40
0.0
  9
$LOFTPARAM
 70
7
  9
$LOFTNORMALS
280
1
  9
$LATITUDE
 40
37.795
  9
$LONGITUDE
 40
-122.394
  9
$NORTHDIRECTION
 40
0.0
  9
$TIMEZONE
 70
-8000
  9
$LIGHTGLYPHDISPLAY
280
1
  9
$TILEMODELIGHTSYNCH
280
1
  9
$CMATERIAL
347
20
  9
$SOLIDHIST
280
0
  9
$SHOWHIST
280
1
  9
$DWFFRAME
280
2
  9
$DGNFRAME
280
2
  9
$REALWORLDSCALE
290
1
  9
$INTERFERECOLOR
 62
256
  9
$CSHADOW
280
0
  9
$SHADOWPLANELOCATION
 40
0.0
  0
ENDSEC
  0
SECTION
  2
CLASSES
  0
CLASS
  1
ACDBDICTIONARYWDFLT
  2
AcDbDictionaryWithDefault
  3
ObjectDBX Classes
 90
0
 91
0
280
0
281
0
  0
CLASS
  1
SUN
  2
AcDbSun
  3
SCENEOE
 90
1153
 91
0
280
0
281
0
  0
CLASS
  1
VISUALSTYLE
  2
AcDbVisualStyle
  3
ObjectDBX Classes
 90
4095
 91
0
280
0
281
0
  0
CLASS
  1
MATERIAL
  2
AcDbMaterial
  3
ObjectDBX Classes
 90
1153
 91
0
280
0
281
0
  0
CLASS
  1
SCALE
  2
AcDbScale
  3
ObjectDBX Classes
 90
1153
 91
0
280
0
281
0
  0
CLASS
  1
TABLESTYLE
  2
AcDbTableStyle
  3
ObjectDBX Classes
 90
4095
 91
0
280
0
281
0
  0
CLASS
  1
MLEADERSTYLE
  2
AcDbMLeaderStyle
  3
ACDB_MLEADERSTYLE_CLASS
 90
4095
 91
0
280
0
281
0
  0
CLASS
  1
DICTIONARYVAR
  2
AcDbDictionaryVar
  3
ObjectDBX Classes
 90
0
 91
0
280
0
281
0
  0
CLASS
  1
CELLSTYLEMAP
  2
AcDbCellStyleMap
  3
ObjectDBX Classes
 90
1152
 91
0
280
0
281
0
  0
CLASS
  1
MENTALRAYRENDERSETTINGS
  2
AcDbMentalRayRenderSettings
  3
SCENEOE
 90
1024
 91
0
280
0
281
0
  0
CLASS
  1
ACDBDETAILVIEWSTYLE
  2
AcDbDetailViewStyle
  3
ObjectDBX Classes
 90
1025
 91
0
280
0
281
0
  0
CLASS
  1
ACDBSECTIONVIEWSTYLE
  2
AcDbSectionViewStyle
  3
ObjectDBX Classes
 90
1025
 91
0
280
0
281
0
  0
CLASS
  1
RASTERVARIABLES
  2
AcDbRasterVariables
  3
ISM
 90
0
 91
0
280
0
281
0
  0
CLASS
  1
LAYOUT
  2
AcDbLayout
  3
ObjectDBX Classes
 90
0
 91
0
280
0
281
0
  0
CLASS
  1
ACDBPLACEHOLDER
  2
AcDbPlaceHolder
  3
ObjectDBX Classes
 90
0
 91
0
280
0
281
0
  0
ENDSEC
  0
SECTION
  2
TABLES
  0
TABLE
  2
VPORT
  5
8
330
0
100
AcDbSymbolTable
 70
1
  0
VPORT
  5
23
330
8
100
AcDbSymbolTableRecord
100
AcDbViewportTableRecord
  2
*Active
 70
0
 10
0.0
 20
0.0
 11
1.0
 21
1.0
 12
0.0
 22
0.0
 13
0.0
 23
0.0
 14
0.5
 24
0.5
 15
0.5
 25
0.5
 16
0.0
 26
0.0
 36
1.0
 17
0.0
 27
0.0
 37
0.0
 40
1000.0
 41
1.34
 42
50.0
 43
0.0
 44
0.0
 50
0.0
 51
0.0
 71
0
 72
1000
 73
1
 74
3
 75
0
 76
0
 77
0
 78
0
281
0
 65
0
146
0.0
  0
ENDTAB
  0
TABLE
  2
LTYPE
  5
2
330
0
100
AcDbSymbolTable
 70
3
  0
LTYPE
  5
24
330
2
100
AcDbSymbolTableRecord
100
AcDbLinetypeTableRecord
  2
ByBlock
 70
0
  3

 72
65
 73
0
 40
0.0
  0
LTYPE
  5
25
330
2
100
AcDbSymbolTableRecord
100
AcDbLinetypeTableRecord
  2
ByLayer
 70
0
  3

 72
65
 73
0
 40
0.0
  0
LTYPE
  5
26
330
2
100
AcDbSymbolTableRecord
100
AcDbLinetypeTableRecord
  2
Continuous
 70
0
  3

 72
65
 73
0
 40
0.0
  0
ENDTAB
  0
TABLE
  2
LAYER
  5
1
330
0
100
AcDbSymbolTable
 70
3
  0
LAYER
  5
27
330
1
100
AcDbSymbolTableRecord
100
AcDbLayerTableRecord
  2
0
 70
0
 62
7
  6
Continuous
370
-3
390
13
347
21
  0
LAYER
  5
28
330
1
100
AcDbSymbolTableRecord
100
AcDbLayerTableRecord
  2
Defpoints
 70
0
 62
7
  6
Continuous
290
0
370
-3
390
13
347
21
  0
LAYER
  5
2F
330
1
100
AcDbSymbolTableRecord
100
AcDbLayerTableRecord
  2
C
 70
0
 62
7
  6
Continuous
370
-3
390
13
347
21
  0
ENDTAB
  0
TABLE
  2
STYLE
  5
5
330
0
100
AcDbSymbolTable
 70
1
  0
STYLE
  5
29
330
5
100
AcDbSymbolTableRecord
100
AcDbTextStyleTableRecord
  2
Standard
 70
0
 40
0.0
 41
1.0
 50
0.0
 71
0
 42
2.5
  3
txt
  4

  0
ENDTAB
  0
TABLE
  2
VIEW
  5
7
330
0
100
AcDbSymbolTable
 70
0
  0
ENDTAB
  0
TABLE
  2
UCS
  5
6
330
0
100
AcDbSymbolTable
 70
0
  0
ENDTAB
  0
TABLE
  2
APPID
  5
3
330
0
100
AcDbSymbolTable
 70
3
  0
APPID
  5
2A
330
3
100
AcDbSymbolTableRecord
100
AcDbRegAppTableRecord
  2
ACAD
 70
0
  0
APPID
  5
5F
330
3
100
AcDbSymbolTableRecord
100
AcDbRegAppTableRecord
  2
HATCHBACKGROUNDCOLOR
 70
0
  0
APPID
  5
60
330
3
100
AcDbSymbolTableRecord
100
AcDbRegAppTableRecord
  2
EZDXF
 70
0
  0
ENDTAB
  0
TABLE
  2
DIMSTYLE
  5
4
330
0
100
AcDbSymbolTable
 70
1
100
AcDbDimStyleTable
  0
DIMSTYLE
105
2B
330
4
100
AcDbSymbolTableRecord
100
AcDbDimStyleTableRecord
  2
Standard
 70
0
 40
1.0
 41
2.5
 42
0.625
 43
3.75
 44
1.25
 45
0.0
 46
0.0
 47
0.0
 48
0.0
 49
2.5
140
2.5
141
2.5
142
0.0
143
0.03937007874
144
1.0
145
0.0
146
1.0
147
0.625
148
0.0
 69
0
 70
0
 71
0
 72
0
 73
0
 74
0
 75
0
 76
0
 77
1
 78
8
 79
3
170
0
171
3
172
1
173
0
174
0
175
0
176
0
177
0
178
0
179
2
271
2
272
2
273
2
274
3
275
0
276
0
277
2
278
44
279
0
280
0
281
0
282
0
283
0
284
8
285
0
286
0
288
0
289
3
290
0
371
-2
372
-2
  0
ENDTAB
  0
TABLE
  2
BLOCK_RECORD
  5
9
330
0
100
AcDbSymbolTable
 70
2
  0
BLOCK_RECORD
  5
17
330
9
100
AcDbSymbolTableRecord
100
AcDbBlockTableRecord
  2
*Model_Space
340
1A
 70
0
280
1
281
0
  0
BLOCK_RECORD
  5
1B
330
9
100
AcDbSymbolTableRecord
100
AcDbBlockTableRecord
  2
*Paper_Space
340
1E
 70
0
280
1
281
0
  0
ENDTAB
  0
ENDSEC
  0
SECTION
  2
BLOCKS
  0
BLOCK
  5
18
330
17
100
AcDbEntity
  8
0
100
AcDbBlockBegin
  2
*Model_Space
 70
0
 10
0.0
 20
0.0
 30
0.0
  3
*Model_Space
  1

  0
ENDBLK
  5
19
330
17
100
AcDbEntity
  8
0
100
AcDbBlockEnd
  0
BLOCK
  5
1C
330
1B
100
AcDbEntity
  8
0
100
AcDbBlockBegin
  2
*Paper_Space
 70
0
 10
0.0
 20
0.0
 30
0.0
  3
*Paper_Space
  1

  0
ENDBLK
  5
1D
330
1B
100
AcDbEntity
  8
0
100
AcDbBlockEnd
  0
ENDSEC
  0
SECTION
  2
ENTITIES
  0
LWPOLYLINE
  5
30
330
17
100
AcDbEntity
  8
C
100
AcDbPolyline
 90
13
 70
1
 10
172.41680578455225
 20
88.63673869540779
 10
172.41680578455225
 20
95.84897559030637
 10
176.40286397085708
 20
100.90287218726934
 10
187.68070080746995
 20
103.76269101307022
 10
191.07122311199538
 20
106.6285714285714
 10
196.78995569169754
 20
106.6285714285714
 10
200.78501583954335
 20
101.56326130459215
 10
200.78501583954335
 20
100.0737698249945
 10
195.14481539713574
 20
90.06212827695748
 10
194.01606255632515
 20
85.76871367459337
 10
191.15250266420176
 20
82.1380251804501
 10
176.40823057500316
 20
83.57603781683042
 10
172.41680578455225
 20
88.63673869540779
  0
LWPOLYLINE
  5
31
330
17
100
AcDbEntity
  8
C
100
AcDbPolyline
 90
12
 70
1
 10
139.25523455978777
 20
137.85714285714278
 10
135.9466219729168
 20
137.85714285714278
 10
133.64467590866457
 20
134.93852079073943
 10
130.72785490316545
 20
138.63673869540781
 10
130.72785490316545
 20
151.5632613045921
 10
134.72291505101126
 20
156.62857142857135
 10
148.34063439711286
 20
156.62857142857135
 10
153.45587008007666
 20
150.14299821250165
 10
155.72289213051138
 20
138.64562964392758
 10
151.7152697531529
 20
133.56439195290915
 10
146.5724390652166
 20
134.2888987016737
 10
139.25523455978777
 20
137.85714285714278
  0
LWPOLYLINE
  5
32
330
17
100
AcDbEntity
  8
C
100
AcDbPolyline
 90
48
 70
1
 10
85.14686535422705
 20
230.71428571428555
 10
78.38649494102917
 20
230.71428571428555
 10
77.2597665388295
 20
232.14285714285708
 10
70.49939612563166
 20
232.14285714285708
 10
69.37266772343203
 20
233.57142857142844
 10
62.612297310234155
 20
233.57142857142844
 10
61.48556890803453
 20
235.0
 10
55.8519268970363
 20
235.0
 10
54.725198494836675
 20
236.42857142857133
 10
49.09155648383845
 20
236.42857142857133
 10
42.311723491083555
 20
245.0246764748517
 10
37.80160037724845
 20
247.88385398701263
 10
31.035621115288652
 20
257.8921506459514
 10
22.024473675256672
 20
266.46103096329966
 10
19.1817430854008
 20
270.06531012397926
 10
19.1817430854008
 20
272.92245298112215
 10
18.027654435194272
 20
274.38571428571413
 10
20.933508207771123
 20
278.07002690888527
 10
26.56715021876932
 20
276.64145548031394
 10
28.801443282704064
 20
279.47430075869806
 10
34.52487190168621
 20
280.92564015558963
 10
41.268963059843735
 20
273.7999833118342
 10
43.477377052397266
 20
275.2
 10
48.04234402178756
 20
275.2
 10
50.33144180005769
 20
273.74883409486296
 10
58.197750047363854
 20
265.2
 10
60.44393107453863
 20
265.2
 10
63.85978013414362
 20
262.31271183523455
 10
69.46964624313779
 20
255.2
 10
71.70832731711135
 20
255.2
 10
77.34196932810956
 20
250.91428571428554
 10
79.6102018629346
 20
250.91428571428554
 10
82.99799484385173
 20
246.61892558223897
 10
89.75836525704956
 20
245.19035415366764
 10
90.87748588493105
 20
243.77142857142843
 10
96.41414937622345
 20
243.77142857142843
 10
97.54087777842308
 20
245.19999999999996
 10
103.17451978942132
 20
245.19999999999996
 10
104.30124819162096
 20
246.62857142857132
 10
120.17242434212177
 20
246.62857142857132
 10
123.0681163357748
 20
242.95714285714277
 10
119.0456959399221
 20
237.8571428571429
 10
116.79223913552283
 20
237.8571428571429
 10
114.53878233112353
 20
235.0
 10
112.26586294716722
 20
235.0
 10
100.99406003831629
 20
227.85427812388647
 10
86.26995839903168
 20
229.29032353111623
 10
85.14686535422705
 20
230.71428571428555
  0
LWPOLYLINE
  5
33
330
17
100
AcDbEntity
  8
C
100
AcDbPolyline
 90
18
 70
1
 10
67.63106437998545
 20
180.0653101239792
 10
62.003975236068904
 20
187.1998589303555
 10
60.87724683386927
 20
192.91414464464117
 10
57.463148512181704
 20
197.24285714285705
 10
60.34783388726891
 20
200.90033049599376
 10
64.86749832700811
 20
202.33294359794817
 10
70.51417185605757
 20
206.62857142857138
 10
73.96802613333958
 20
206.62857142857138
 10
83.00371107285758
 20
198.03635791222916
 10
92.02558395640904
 20
192.3169716748343
 10
103.9115749030246
 20
175.81154884562588
 10
101.01804150472788
 20
172.14285714285705
 10
98.75269674932657
 20
172.14285714285705
 10
88.6121411295298
 20
163.57142857142858
 10
86.37057227613248
 20
163.57142857142858
 10
84.07727530759229
 20
160.66377263580978
 10
67.63106437998545
 20
177.2015983979177
 10
67.63106437998545
 20
180.0653101239792
  0
LWPOLYLINE
  5
34
330
17
100
AcDbEntity
  8
C
100
AcDbPolyline
 90
32
 70
1
 10
43.4809894114411
 20
333.5714285714285
 10
41.20445766844094
 20
333.5714285714285
 10
38.95100086404166
 20
336.4285714285714
 10
33.31735885304346
 20
336.4285714285714
 10
32.190630450843805
 20
337.8571428571427
 10
29.949061597446537
 20
337.8571428571427
 10
19.808505977649745
 20
346.42857142857144
 10
17.543161222248443
 20
346.42857142857144
 10
7.92304193342469
 20
358.6258565317363
 10
6.796313531225034
 20
362.9115708174505
 10
0.0
 20
371.5285714285713
 10
2.944181253505956
 20
375.26147920926024
 10
4.119398915558486
 20
373.77142857142854
 10
7.48012154260036
 20
373.77142857142854
 10
11.987035151398928
 20
370.91428571428565
 10
14.248066584353236
 20
370.91428571428565
 10
17.628251790952177
 20
368.05714285714276
 10
20.99574407228946
 20
368.05714285714276
 10
32.263028094285886
 20
362.342857142857
 10
35.644719238547644
 20
362.342857142857
 10
43.53181805394515
 20
358.05714285714276
 10
46.9156156195879
 20
358.05714285714276
 10
53.67598603278573
 20
353.7714285714285
 10
55.94890541674205
 20
353.7714285714285
 10
59.940143739219074
 20
348.7109641143519
 10
61.066872141418706
 20
338.71096411435207
 10
62.22478261699405
 20
337.2428571428571
 10
59.34855320289803
 20
333.59610504628023
 10
54.80271443498541
 20
330.7142857142856
 10
52.56872021014314
 20
330.7142857142856
 10
51.419820733612006
 20
329.25760372839727
 10
43.4809894114411
 20
333.5714285714285
  0
LWPOLYLINE
  5
35
330
17
100
AcDbEntity
  8
C
100
AcDbPolyline
 90
18
 70
1
 10
7.914459063404378
 20
195.79528019176374
 10
7.914459063404378
 20
205.78692347246786
 10
4.513299091729844
 20
211.53666753980417
 10
6.790719530044425
 20
214.42419372860832
 10
7.917447932244082
 20
227.28133658575078
 10
10.797467220640067
 20
230.93289383868333
 10
18.776629075545948
 20
228.0424006632683
 10
30.0481319156983
 20
215.18044369585598
 10
35.643213300884604
 20
212.34285714285704
 10
39.04797938374749
 20
212.34285714285704
 10
40.17470778594714
 20
210.9142857142856
 10
44.68162139474571
 20
210.9142857142856
 10
48.701419985033745
 20
205.81760988407993
 10
29.52229870519757
 20
178.63969695191096
 10
29.52229870519757
 20
177.20816726683643
 10
23.213909792395654
 20
169.20980302612665
 10
9.051155510049757
 20
192.91286050044133
 10
7.914459063404378
 20
195.79528019176374
  0
LWPOLYLINE
  5
36
330
17
100
AcDbEntity
  8
C
100
AcDbPolyline
 90
44
 70
1
 10
898.7908356961066
 20
92.15236587255072
 10
897.5297648497083
 20
93.57142857142853
 10
893.7399153596119
 20
93.57142857142853
 10
888.6618316865131
 20
96.42857142857142
 10
884.8345556669615
 20
96.42857142857142
 10
883.6099488826776
 20
97.80660170604038
 10
881.0709070461282
 20
94.94945884889749
 10
879.0328450704463
 20
97.24285714285708
 10
880.3128951208749
 20
98.68327683414446
 10
877.7738532843256
 20
102.9689911198588
 10
879.0666256687163
 20
104.42372704850833
 10
879.0666256687163
 20
108.70944133422267
 10
881.0709070461282
 20
110.9648268653881
 10
882.3616370973091
 20
109.51238914138328
 10
884.8158424022339
 20
110.89322797908785
 10
886.6499705800943
 20
112.95714285714287
 10
885.4142302600895
 20
114.34770152292006
 10
885.4142302600895
 20
117.27025563025862
 10
890.4923139331884
 20
125.84168420168717
 10
890.4923139331884
 20
132.91913009434865
 10
889.2282400667328
 20
134.34157204329756
 10
887.9475112484328
 20
142.9886730302975
 10
891.1634469936074
 20
146.60751369337356
 10
896.2789571961614
 20
149.4857142857142
 10
897.61959311769
 20
149.4857142857142
 10
902.7061268626653
 20
143.7619198417349
 10
909.0537314540386
 20
142.33334841316346
 10
912.2828761969998
 20
138.69964387776656
 10
911.0133552787252
 20
132.98535816348078
 10
912.3079501421281
 20
131.52857142857133
 10
909.7689083055786
 20
128.67142857142855
 10
911.0384292238533
 20
127.2428571428571
 10
909.7351277073087
 20
125.77627295149152
 10
909.7351277073087
 20
121.54581617685656
 10
912.2741695438581
 20
114.40295903399944
 10
912.2741695438581
 20
110.13801276279412
 10
914.8307563798872
 20
107.26112680050792
 10
911.0221936250631
 20
98.68969822907935
 10
914.1233650552609
 20
95.19999999999995
 10
917.9319278100849
 20
95.19999999999995
 10
919.891295053506
 20
92.99515561993698
 10
919.891295053506
 20
90.06198723720583
 10
917.922589813339
 20
87.8466349599044
 10
898.7908356961066
 20
92.15236587255072
  0
LWPOLYLINE
  5
37
330
17
100
AcDbEntity
  8
C
100
AcDbPolyline
 90
23
 70
1
 10
773.1139547281489
 20
302.1459630733817
 10
769.8629918881701
 20
305.8042191617122
 10
776.2416121637385
 20
315.8530811910788
 10
777.511722017316
 20
321.57001778298246
 10
782.58303587984
 20
328.70335247742554
 10
782.58303587984
 20
335.85229847707984
 10
783.8187761998447
 20
337.2428571428571
 10
782.58303587984
 20
338.63341580863425
 10
782.58303587984
 20
341.5559699159726
 10
785.1220777163894
 20
345.84168420168703
 10
785.1220777163894
 20
348.7193497469964
 10
789.6769311976268
 20
352.3804234700262
 10
793.5322660148927
 20
348.0420773362677
 10
797.3370404822452
 20
346.6149268739752
 10
806.2293741392828
 20
338.03801280489307
 10
811.3108839397391
 20
335.17894226480183
 10
815.7905797549818
 20
330.1380127627943
 10
815.7905797549818
 20
328.646434136597
 10
811.963067111176
 20
321.4680369859774
 10
801.8258496539605
 20
311.4866954900529
 10
801.8258496539605
 20
310.0619872372056
 10
793.5160292127907
 20
300.7110802234424
 10
773.1139547281489
 20
302.1459630733817
  0
LWPOLYLINE
  5
38
330
17
100
AcDbEntity
  8
C
100
AcDbPolyline
 90
136
 70
1
 10
1422.5773381963202
 20
130.69917625954497
 10
1418.4043988794044
 20
129.27060483097353
 10
1416.9987072449585
 20
130.71428571428567
 10
1411.4347881557374
 20
130.71428571428567
 10
1410.0860128668378
 20
132.0995120703038
 10
1408.7372375779382
 20
130.71428571428567
 10
1404.4979187152715
 20
130.71428571428567
 10
1401.6753212109063
 20
132.16372524941644
 10
1395.3887759492125
 20
140.05493101554455
 10
1393.9982578860543
 20
145.7673199819147
 10
1383.6198863929174
 20
157.84735018084916
 10
1376.7527128979866
 20
156.43679798660082
 10
1375.355809285271
 20
155.0021426240098
 10
1347.5141166752505
 20
153.57243647811003
 10
1340.556764352563
 20
150.7142857142857
 10
1336.333130910842
 20
150.7142857142857
 10
1332.1601915939264
 20
153.57142857142858
 10
1327.97600181742
 20
153.57142857142858
 10
1326.595989529046
 20
154.9887361164415
 10
1321.044240768229
 20
153.56328949668864
 10
1316.859414098568
 20
156.42857142857136
 10
1314.150613061178
 20
156.42857142857136
 10
1312.7344038797391
 20
154.97408875832252
 10
1302.997545473602
 20
160.6883744726083
 10
1301.6025317075423
 20
159.2556600303603
 10
1297.385697286294
 20
162.14285714285703
 10
1293.2127579693781
 20
162.14285714285703
 10
1289.0837137567949
 20
164.96994574464597
 10
1287.6797929039724
 20
163.52808349887528
 10
1286.2466086482614
 20
164.99999999999991
 10
1276.5097502421243
 20
164.99999999999991
 10
1275.118770469819
 20
166.42857142857136
 10
1266.846050343208
 20
166.42857142857136
 10
1262.6731110262922
 20
163.57142857142858
 10
1255.729462624356
 20
163.57142857142858
 10
1254.3163563368005
 20
162.1201326517252
 10
1251.4901437616895
 20
163.57142857142858
 10
1241.735255934492
 20
163.57142857142858
 10
1240.3442761621868
 20
164.99999999999991
 10
1237.6467255843872
 20
164.99999999999991
 10
1236.255745812082
 20
163.57142857142858
 10
1229.3008469505555
 20
163.57142857142858
 10
1227.9098671782501
 20
162.14285714285703
 10
1205.6541908213655
 20
162.14285714285703
 10
1204.2632110490604
 20
160.7142857142857
 10
1198.614882993028
 20
160.7142857142857
 10
1197.2239032207228
 20
162.14285714285703
 10
1183.31410549767
 20
162.14285714285703
 10
1181.1698403226176
 20
164.34507174392476
 10
1181.1698403226176
 20
175.85492825607508
 10
1183.31410549767
 20
178.0571428571428
 10
1187.4982952741761
 20
178.0571428571428
 10
1191.6948613423035
 20
180.9304625619067
 10
1194.508323221863
 20
179.48571428571424
 10
1202.872231276755
 20
179.48571428571424
 10
1204.221006565655
 20
178.10048792969613
 10
1205.5697818545545
 20
179.48571428571424
 10
1209.8271301382815
 20
179.48571428571424
 10
1211.2181099105867
 20
178.0571428571428
 10
1216.6896070949188
 20
178.0571428571428
 10
1225.681193036387
 20
190.1331403495178
 10
1225.681193036387
 20
194.42635682750375
 10
1227.8254582114391
 20
196.62857142857138
 10
1230.691826722861
 20
196.62857142857138
 10
1232.082806495166
 20
195.19999999999993
 10
1240.4286851289978
 20
195.19999999999993
 10
1241.8196649013032
 20
193.7714285714285
 10
1247.2991750237131
 20
193.7714285714285
 10
1248.7323592794241
 20
195.24334507255327
 10
1250.165543535135
 20
193.7714285714285
 10
1252.9422487636612
 20
193.7714285714285
 10
1261.2881273974929
 20
186.62857142857138
 10
1289.112977159683
 20
186.62857142857138
 10
1290.5039569319883
 20
185.19999999999993
 10
1293.285916476599
 20
185.19999999999993
 10
1298.84983556582
 20
179.48571428571424
 10
1307.1293346539012
 20
179.48571428571424
 10
1312.693253743122
 20
182.34285714285704
 10
1318.3123019185036
 20
182.34285714285704
 10
1322.4413461310871
 20
179.5157685410682
 10
1325.1760128517492
 20
182.32434047114597
 10
1336.3399098723123
 20
188.05714285714282
 10
1340.508687507209
 20
188.05714285714282
 10
1347.4635863687354
 20
192.34285714285704
 10
1350.3010590494234
 20
192.34285714285704
 10
1360.0379174555603
 20
186.62857142857138
 10
1365.5988352154136
 20
186.62857142857138
 10
1379.5145604004279
 20
179.48267045899223
 10
1390.6489180816143
 20
178.05326206863182
 10
1394.816189395295
 20
175.1999999999999
 10
1400.383203026878
 20
175.1999999999999
 10
1405.947122116099
 20
170.91428571428568
 10
1410.1282173502434
 20
170.91428571428568
 10
1412.910176894854
 20
168.0571428571428
 10
1417.0749602945414
 20
168.0571428571428
 10
1422.6388793837625
 20
163.77142857142857
 10
1425.410965424541
 20
163.77142857142857
 10
1431.016031427808
 20
160.8931562532575
 10
1436.5708630008676
 20
153.76196549675225
 10
1443.5093913714188
 20
152.3367566498869
 10
1447.6295256385633
 20
149.51576854106818
 10
1449.0133685232304
 20
150.9370102054175
 10
1454.6258777307314
 20
148.05491570768737
 10
1469.859843813455
 20
146.63258218926268
 10
1471.2469183648648
 20
148.05714285714276
 10
1478.219846647452
 20
148.05714285714276
 10
1481.033308527011
 20
149.50189113333522
 10
1485.206247843927
 20
146.64474827619233
 10
1487.980880115934
 20
148.06955705756386
 10
1493.5768134207035
 20
145.19597449563483
 10
1501.9396238678858
 20
143.76450483359426
 10
1504.7228519500732
 20
140.9060591562562
 10
1511.6777508115997
 20
139.47748772768475
 10
1513.0185160174292
 20
138.1004879296961
 10
1514.3894178215794
 20
139.50843877684605
 10
1519.997589941301
 20
136.62857142857143
 10
1525.570080236876
 20
136.62857142857143
 10
1530.5576234132616
 20
132.96976209636424
 10
1528.3695080792631
 20
130.72251227231513
 10
1521.4146092177368
 20
129.29394084374368
 10
1518.624639590056
 20
126.42857142857144
 10
1511.6697407285296
 20
126.42857142857144
 10
1510.2787609562242
 20
125.0
 10
1503.257482548947
 20
125.0
 10
1500.519776034837
 20
126.40584693743962
 10
1499.150922777782
 20
125.0
 10
1483.8501452824237
 20
125.0
 10
1482.416961026713
 20
123.52808349887523
 10
1480.9870730878918
 20
124.99661459913203
 10
1462.9228183541468
 20
123.56950330873251
 10
1460.1813626379835
 20
124.97727550886817
 10
1458.8133333348867
 20
123.57227479299593
 10
1423.258947206273
 20
122.85628941355165
 10
1421.781979176279
 20
124.37317295892892
 10
1424.5639387208896
 20
128.65888724464324
 10
1422.5773381963202
 20
130.69917625954497
  0
LWPOLYLINE
  5
39
330
17
100
AcDbEntity
  8
C
100
AcDbPolyline
 90
22
 70
1
 10
1433.674961663179
 20
323.5886478166433
 10
1420.3749067294696
 20
335.8102994570874
 10
1423.9386298515412
 20
339.47033329287314
 10
1430.9507094514172
 20
342.3509665761738
 10
1444.8802472754599
 20
336.6285714285714
 10
1450.4486013260362
 20
336.6285714285714
 10
1456.0125204152573
 20
333.7714285714285
 10
1461.5732984430547
 20
333.7714285714285
 10
1471.317025431677
 20
329.4826910536971
 10
1481.0740036790555
 20
328.05116768424847
 10
1482.4591655101185
 20
326.6285714285714
 10
1488.0230845993397
 20
326.6285714285714
 10
1490.2069228418588
 20
324.3857142857142
 10
1488.0207132828452
 20
322.1404217408049
 10
1462.9830773813499
 20
323.56899316937626
 10
1461.594468925539
 20
322.14285714285717
 10
1458.7281004141173
 20
322.14285714285717
 10
1457.337120641812
 20
323.5714285714285
 10
1454.6395700640128
 20
323.5714285714285
 10
1453.2485902917074
 20
322.14285714285717
 10
1436.4904534782931
 20
322.14285714285717
 10
1433.674961663179
 20
323.5886478166433
  0
LWPOLYLINE
  5
3A
330
17
100
AcDbEntity
  8
C
100
AcDbPolyline
 90
37
 70
1
 10
1315.4571838666725
 20
329.2857142857143
 10
1314.066204094367
 20
330.7142857142856
 10
1309.8932647774513
 20
330.7142857142856
 10
1308.502285005146
 20
332.14285714285694
 10
1304.3473751092906
 20
332.14285714285694
 10
1293.1720820349458
 20
337.88151154667435
 10
1291.0325182844892
 20
341.5438217450505
 10
1292.4482221070407
 20
342.9977853989322
 10
1292.4482221070407
 20
345.8549282560751
 10
1295.1906085841845
 20
348.6714285714284
 10
1281.2808108611316
 20
362.9571428571426
 10
1284.8375994548958
 20
366.6100547568604
 10
1290.4818304167381
 20
369.5084387768463
 10
1291.8772382516092
 20
368.0753196159557
 10
1298.7878909814249
 20
370.91428571428565
 10
1311.302273970817
 20
370.91428571428565
 10
1314.128486545928
 20
372.36558163398894
 10
1315.5415928334835
 20
370.91428571428565
 10
1323.8210919215644
 20
370.91428571428565
 10
1326.6473044966756
 20
372.36558163398894
 10
1328.0604107842314
 20
370.91428571428565
 10
1337.712860223557
 20
370.91428571428565
 10
1339.1259665111127
 20
372.36558163398894
 10
1341.9882379283445
 20
370.8957690425746
 10
1348.2874129992524
 20
364.4263568275036
 10
1348.2874129992524
 20
361.5731524909459
 10
1359.391928571652
 20
351.5941112842612
 10
1362.2245724774589
 20
347.23031581607177
 10
1355.8378017469315
 20
340.6709406417322
 10
1354.4405968779147
 20
342.105905402169
 10
1346.1547459195979
 20
335.0144232109057
 10
1336.422167279926
 20
330.7305926802503
 10
1333.6243298734526
 20
327.8571428571427
 10
1330.842370328842
 20
327.8571428571427
 10
1329.4388187002587
 20
326.4156598140101
 10
1319.6579587971491
 20
329.2857142857143
 10
1315.4571838666725
 20
329.2857142857143
  0
LWPOLYLINE
  5
3B
330
17
100
AcDbEntity
  8
C
100
AcDbPolyline
 90
18
 70
1
 10
1280.6826895590402
 20
202.14285714285708
 10
1277.9851389812407
 20
202.14285714285708
 10
1276.5941592089355
 20
200.71428571428572
 10
1269.5473469487542
 20
200.71428571428572
 10
1264.638720135559
 20
207.19593652373726
 10
1263.2239022421134
 20
211.55509787054405
 10
1265.381912063682
 20
213.7714285714285
 10
1275.118770469819
 20
213.7714285714285
 10
1276.5097502421243
 20
215.19999999999996
 10
1289.028568192872
 20
215.19999999999996
 10
1290.4195479651771
 20
216.6285714285714
 10
1294.6811529554911
 20
216.6285714285714
 10
1303.776060285483
 20
205.8508406610332
 10
1303.776060285483
 20
202.9977853989322
 10
1305.2066131252552
 20
201.52857142857138
 10
1303.0199233890921
 20
199.28278572957737
 10
1282.070898969309
 20
200.71713094620847
 10
1280.6826895590402
 20
202.14285714285708
  0
LWPOLYLINE
  5
3C
330
17
100
AcDbEntity
  8
C
100
AcDbPolyline
 90
16
 70
1
 10
1228.4631525809975
 20
101.56921397036089
 10
1238.9511017367397
 20
112.34060317853877
 10
1265.4640757699804
 20
113.77373451079742
 10
1267.655590790782
 20
111.52299312236302
 10
1257.8501213787665
 20
102.89116577428892
 10
1249.5278491655768
 20
90.07038950427904
 10
1249.5278491655768
 20
87.20221460106758
 10
1246.7458896209662
 20
84.3450717439248
 10
1246.7458896209662
 20
81.48792888678192
 10
1241.8196649013032
 20
76.4285714285714
 10
1234.8423016573608
 20
76.4285714285714
 10
1227.8486176408478
 20
73.55549523713567
 10
1218.7262941748604
 20
81.48298967593703
 10
1218.7262941748604
 20
91.5737676044922
 10
1228.4631525809975
 20
100.14519617592077
 10
1228.4631525809975
 20
101.56921397036089
  0
LWPOLYLINE
  5
3D
330
17
100
AcDbEntity
  8
C
100
AcDbPolyline
 90
12
 70
1
 10
1222.919056493192
 20
240.03899873408307
 10
1215.9047615627828
 20
247.242857142857
 10
1218.0885998053022
 20
249.4857142857142
 10
1251.55652330744
 20
249.4857142857142
 10
1253.7319197369957
 20
247.25152709841313
 10
1244.609637383992
 20
235.0
 10
1241.8196649013032
 20
235.0
 10
1240.4286851289978
 20
233.57142857142844
 10
1232.082806495166
 20
233.57142857142844
 10
1230.6830986171058
 20
232.13389315735898
 10
1227.1083389548944
 20
232.86816688572253
 10
1222.919056493192
 20
240.03899873408307
  0
LWPOLYLINE
  5
3E
330
17
100
AcDbEntity
  8
C
100
AcDbPolyline
 90
17
 70
1
 10
1135.2846384594043
 20
150.04176387499646
 10
1131.069844469381
 20
154.37046396923503
 10
1133.2236446886081
 20
158.0571428571428
 10
1145.7576516454271
 20
158.0571428571428
 10
1147.1486314177323
 20
159.48571428571424
 10
1174.9682268638383
 20
159.48571428571424
 10
1176.401411119549
 20
160.957630786839
 10
1178.587880778007
 20
158.71207111321795
 10
1178.587880778007
 20
152.99778539893228
 10
1181.3698403226176
 20
150.1406425417895
 10
1181.3698403226176
 20
144.34507174392473
 10
1179.225575147565
 20
142.14285714285714
 10
1158.3608785629858
 20
142.14285714285714
 10
1156.9678693215287
 20
140.7122013981057
 10
1142.2892595830328
 20
141.43007300202902
 10
1138.071138997653
 20
144.31815072993436
 10
1135.2846384594043
 20
150.04176387499646
  0
LWPOLYLINE
  5
3F
330
17
100
AcDbEntity
  8
C
100
AcDbPolyline
 90
32
 70
1
 10
1101.8444202337491
 20
110.09999999999998
 10
1099.8553191593526
 20
112.1428571428571
 10
1097.0846100743324
 20
112.1428571428571
 10
1092.9006781048774
 20
115.0075264882372
 10
1087.3266440262198
 20
116.438695004343
 10
1085.1922360335527
 20
118.63078602963905
 10
1085.1922360335527
 20
124.4263568275037
 10
1089.3651753504685
 20
128.71207111321803
 10
1089.3651753504685
 20
131.576679079633
 10
1095.6946379320698
 20
136.63263772245637
 10
1108.2059869656491
 20
135.204918601324
 10
1109.5921775654895
 20
136.62857142857143
 10
1113.8270614668006
 20
136.62857142857143
 10
1120.7819603283272
 20
133.77142857142854
 10
1129.1503033445747
 20
133.77142857142854
 10
1131.294568519627
 20
131.5692139703608
 10
1131.294568519627
 20
127.29749666969259
 10
1142.3945547972687
 20
120.17251740620306
 10
1145.2043662426802
 20
115.84389621000656
 10
1145.2043662426802
 20
112.99778539893235
 10
1149.416878627063
 20
108.67142857142854
 10
1147.238156356964
 20
106.43382566172043
 10
1136.1103181785218
 20
105.00525423314899
 10
1133.3283586339112
 20
102.1481113760061
 10
1122.183302523949
 20
100.71732954100764
 10
1113.8367786627566
 20
96.43128392287915
 10
1101.335272553739
 20
95.0046880164831
 10
1098.4864996208069
 20
92.07892611864466
 10
1096.2953501617487
 20
95.82953603076483
 10
1100.4930135289108
 20
100.14064254178945
 10
1100.4930135289108
 20
108.71207111321802
 10
1101.8444202337491
 20
110.09999999999998
  0
LWPOLYLINE
  5
40
330
17
100
AcDbEntity
  8
C
100
AcDbPolyline
 90
11
 70
1
 10
2512.103435178877
 20
125.0
 10
2505.3443223872955
 20
125.0
 10
2503.259635873038
 20
127.20304327182275
 10
2503.259635873038
 20
130.14980704466862
 10
2508.0485447872666
 20
133.76466146409706
 10
2514.8093378003887
 20
135.1935880156796
 10
2518.922047557585
 20
138.09105884965035
 10
2533.2345213767726
 20
121.52552191430755
 10
2531.1047209963535
 20
119.27480346512253
 10
2513.4459487758777
 20
123.5812660431318
 10
2512.103435178877
 20
125.0
  0
LWPOLYLINE
  5
41
330
17
100
AcDbEntity
  8
C
100
AcDbPolyline
 90
18
 70
1
 10
2429.6400786009376
 20
313.5737328897558
 10
2428.2904365632685
 20
315.00000000000006
 10
2420.179501213371
 20
315.00000000000006
 10
2418.827678655055
 20
316.4285714285714
 10
2406.661275630209
 20
316.4285714285714
 10
2404.576589115951
 20
318.63161470039415
 10
2404.576589115951
 20
331.5683852996057
 10
2406.704322953425
 20
333.8169198791784
 10
2408.0991928349576
 20
332.34285714285693
 10
2428.376531209702
 20
332.34285714285693
 10
2429.728353768018
 20
330.9142857142856
 10
2464.7896456378076
 20
330.9142857142856
 10
2466.141468196124
 20
332.34285714285693
 10
2482.4494335423524
 20
332.34285714285693
 10
2484.5341200566104
 20
330.1398138710342
 10
2484.5341200566104
 20
312.9173289861086
 10
2482.4472015904275
 20
310.71192704470286
 10
2429.6400786009376
 20
313.5737328897558
  0
LWPOLYLINE
  5
42
330
17
100
AcDbEntity
  8
C
100
AcDbPolyline
 90
29
 70
1
 10
2393.7620086494203
 20
147.1991254649333
 10
2393.7620086494203
 20
148.6316147003941
 10
2387.0144482344244
 20
155.76226358779667
 10
2385.638012036666
 20
160.12601106324442
 10
2389.087582372097
 20
163.77142857142857
 10
2391.7912274887294
 20
163.77142857142857
 10
2395.828442944834
 20
168.0378543801241
 10
2401.272237615788
 20
170.91428571428568
 10
2403.957630513576
 20
170.91428571428568
 10
2409.3466685279964
 20
176.60928295155264
 10
2417.457603877894
 20
180.89499723726698
 10
2421.5313237716878
 20
185.19999999999993
 10
2424.23496888832
 20
185.19999999999993
 10
2428.2904365632685
 20
189.48571428571427
 10
2431.0023056443843
 20
189.48571428571427
 10
2441.8613836434574
 20
198.09241074598748
 10
2443.9794433071224
 20
195.85409958531997
 10
2443.9794433071224
 20
192.91732898610846
 10
2442.627620748806
 20
191.488757557537
 10
2442.627620748806
 20
168.63161470039412
 10
2441.2697464399384
 20
167.19664793696342
 10
2439.9179238816223
 20
158.62521936553475
 10
2437.2203305155413
 20
155.77447184325132
 10
2437.2203305155413
 20
152.91732898610843
 10
2435.8685079572247
 20
151.48875755753699
 10
2435.8685079572247
 20
140.06018612896565
 10
2432.430943268973
 20
136.42745588098148
 10
2404.636355364698
 20
137.14386095519825
 10
2393.7620086494203
 20
147.1991254649333
  0
LWPOLYLINE
  5
43
330
17
100
AcDbEntity
  8
C
100
AcDbPolyline
 90
26
 70
1
 10
2370.138789613478
 20
213.59507475844865
 10
2366.7255574830956
 20
215.75928449317283
 10
2366.7255574830956
 20
217.2030432718227
 10
2350.4660118810016
 20
234.3857142857143
 10
2352.588373297558
 20
236.6285714285713
 10
2355.378113060624
 20
236.6285714285713
 10
2356.72993561894
 20
235.19999999999996
 10
2363.4890484105213
 20
235.19999999999996
 10
2364.8408709688374
 20
233.7714285714284
 10
2371.5999837604186
 20
233.7714285714284
 10
2372.9518063187347
 20
232.34285714285707
 10
2379.7109191103164
 20
232.34285714285707
 10
2381.062741668633
 20
230.9142857142855
 10
2387.8218544602137
 20
230.9142857142855
 10
2389.1736770185303
 20
229.48571428571418
 10
2395.932789810112
 20
229.48571428571418
 10
2397.284612368428
 20
228.05714285714285
 10
2401.3400800433765
 20
228.05714285714285
 10
2403.455634567279
 20
225.82147906396267
 10
2398.0174763243695
 20
218.63784626940895
 10
2398.0174763243695
 20
215.7853788947287
 10
2395.307305920208
 20
211.48932097411566
 10
2393.9543371757677
 20
205.77019021936803
 10
2387.8173191051565
 20
197.8435371898436
 10
2382.315692409373
 20
199.29703170728453
 10
2370.138789613478
 20
213.59507475844865
  0
LWPOLYLINE
  5
44
330
17
100
AcDbEntity
  8
C
100
AcDbPolyline
 90
20
 70
1
 10
2322.1154130586588
 20
164.35383522780268
 10
2322.1154130586588
 20
167.26532032373987
 10
2324.8333900494345
 20
173.0098971524816
 10
2343.754624296812
 20
197.290117217396
 10
2345.110642010046
 20
201.58913149965997
 10
2349.943241164283
 20
205.23696500889955
 10
2360.8089449530817
 20
192.31904310815196
 10
2364.221912366463
 20
190.15500122111274
 10
2364.221912366463
 20
185.84616477219717
 10
2368.2773800414116
 20
180.1318790579115
 10
2368.2773800414116
 20
177.19305009818854
 10
2363.491997840431
 20
173.58085777887456
 10
2354.0276224999852
 20
170.72322656146798
 10
2349.9594640641794
 20
167.8571428571428
 10
2345.9039963892305
 20
167.8571428571428
 10
2341.8485287142817
 20
164.99999999999991
 10
2339.143238450416
 20
164.99999999999991
 10
2328.312260968244
 20
157.8463128910006
 10
2326.2077079343426
 20
158.58765879118297
 10
2322.1154130586588
 20
164.35383522780268
  0
LWPOLYLINE
  5
45
330
17
100
AcDbEntity
  8
C
100
AcDbPolyline
 90
26
 70
1
 10
3151.953610912669
 20
337.86725395039673
 10
3145.8523890730985
 20
339.29582537896806
 10
3144.640781308402
 20
340.7142857142856
 10
3139.771496394479
 20
340.7142857142856
 10
3136.110763290737
 20
343.57142857142856
 10
3131.237074619918
 20
343.57142857142856
 10
3126.3560971482616
 20
346.42857142857144
 10
3120.2358939501196
 20
346.42857142857144
 10
3115.8796215566667
 20
351.5285714285713
 10
3119.0156495822057
 20
355.1999999999999
 10
3125.1407140411734
 20
355.1999999999999
 10
3131.2419358807438
 20
358.05714285714276
 10
3142.2002925725737
 20
358.05714285714276
 10
3143.4205369404876
 20
359.4857142857141
 10
3148.325357031541
 20
359.4857142857141
 10
3154.4265788711114
 20
362.342857142857
 10
3158.063469355457
 20
362.342857142857
 10
3159.3298111869826
 20
363.82539605628375
 10
3162.4967525045327
 20
360.11777649976176
 10
3161.2601777388536
 20
357.222396810264
 10
3161.2601777388536
 20
351.49167651263224
 10
3158.819689003025
 20
348.63453365548935
 10
3158.819689003025
 20
341.5081110959782
 10
3157.5854066896745
 20
338.6180990721438
 10
3154.448833715326
 20
334.9460325151447
 10
3151.953610912669
 20
337.86725395039673
  0
LWPOLYLINE
  5
46
330
17
100
AcDbEntity
  8
C
100
AcDbPolyline
 90
95
 70
1
 10
2988.9794399595403
 20
61.53469744500906
 10
2991.4353511567515
 20
64.40989577388278
 10
2990.2151067888376
 20
68.69561005959702
 10
2993.3548842099385
 20
72.37142814472908
 10
2998.3226334445053
 20
69.46349232161985
 10
3001.9321842418803
 20
65.23769847679984
 10
3005.509538250729
 20
68.02976530172178
 10
3008.498117180227
 20
71.52857142857138
 10
3006.0576284443987
 20
74.38571428571427
 10
3008.507979755313
 20
77.25440351287216
 10
3006.0674910194853
 20
81.5401177985865
 10
3009.2397539335493
 20
85.25396748485514
 10
3010.506095765075
 20
83.7714285714285
 10
3015.3870732367313
 20
83.7714285714285
 10
3016.6073176046452
 20
82.34285714285706
 10
3021.4882950763017
 20
82.34285714285706
 10
3022.7085394442156
 20
80.91428571428561
 10
3027.589516915872
 20
80.91428571428561
 10
3028.809761283786
 20
79.48571428571427
 10
3031.1580550923914
 20
79.48571428571427
 10
3032.424396923917
 20
80.9682531991408
 10
3033.6907387554425
 20
79.48571428571427
 10
3038.571716227099
 20
79.48571428571427
 10
3039.791960595013
 20
78.05714285714282
 10
3044.6539567080986
 20
78.05714285714282
 10
3047.0331056064706
 20
76.66447749031069
 10
3049.9948090839925
 20
81.51875677304943
 10
3047.0212318752747
 20
84.99999999999997
 10
3043.3604987715325
 20
84.99999999999997
 10
3039.0090089162254
 20
90.09440095973243
 10
3045.136962787015
 20
98.70338458196682
 10
3045.136962787015
 20
101.56546634451047
 10
3049.461720611103
 20
106.6285714285714
 10
3053.1124203612353
 20
106.6285714285714
 10
3059.2562373178193
 20
116.69838550538047
 10
3060.5361148495526
 20
115.19999999999997
 10
3064.104653026072
 20
115.19999999999997
 10
3066.5315034918085
 20
118.0411761839909
 10
3070.189668774896
 20
119.46874554136056
 10
3081.1849128754016
 20
133.77142857142854
 10
3083.71233215152
 20
133.77142857142854
 10
3093.474287094833
 20
125.19999999999997
 10
3095.923201519061
 20
125.19999999999997
 10
3099.5743265370784
 20
120.92553414706796
 10
3105.6755483766487
 20
122.35410557563941
 10
3108.8005293605916
 20
118.69561005959706
 10
3107.575305515181
 20
114.39240696721286
 10
3108.798408230512
 20
111.52857142857142
 10
3107.5857559483984
 20
108.68920507119017
 10
3108.7896699185476
 20
107.27975205879613
 10
3108.7896699185476
 20
104.41870082045102
 10
3116.6624989211064
 20
93.78378948237054
 10
3122.6725753693186
 20
95.19101966071963
 10
3130.0032464718834
 20
102.34285714285707
 10
3132.5305325564836
 20
102.34285714285707
 10
3133.6911437605786
 20
100.98409979109468
 10
3139.7964030416756
 20
110.9907172222132
 10
3150.860682178312
 20
96.5982329807561
 10
3155.1891876394575
 20
92.97859545287157
 10
3152.0644757967193
 20
87.85714285714286
 10
3150.830229323076
 20
87.85714285714286
 10
3141.021220419708
 20
77.80894148730621
 10
3137.365412564529
 20
82.08888965800188
 10
3129.5501545708516
 20
72.93936635738119
 10
3130.770398938766
 20
70.0822235002383
 10
3127.603457621216
 20
66.3746039437162
 10
3125.1168714217765
 20
69.28571428571428
 10
3122.768577613171
 20
69.28571428571428
 10
3120.2819914137312
 20
66.3746039437162
 10
3119.0617470458174
 20
67.80317537228764
 10
3117.8876001415147
 20
66.42857142857139
 10
3115.4471114056864
 20
66.42857142857139
 10
3110.574770537248
 20
60.724396807539826
 10
3104.4735486976774
 20
59.29582537896838
 10
3100.758081527106
 20
54.946032515144736
 10
3099.4917396955802
 20
56.42857142857138
 10
3093.482712783233
 20
56.42857142857138
 10
3092.262468415319
 20
54.999999999999936
 10
3089.748766110839
 20
54.999999999999936
 10
3084.894904744223
 20
57.84127009676243
 10
3082.442659385284
 20
56.40581677784429
 10
3077.5616819136276
 20
60.69153106355862
 10
3072.7248977695585
 20
57.86025733836375
 10
3060.5405886002545
 20
56.43380896344497
 10
3056.8753817458105
 20
52.14285714285716
 10
3053.122453714845
 20
52.14285714285716
 10
3051.902209346931
 20
53.57142857142849
 10
3033.6907387554425
 20
53.57142857142849
 10
3032.4704943875286
 20
52.14285714285716
 10
3026.277077620735
 20
52.14285714285716
 10
3025.0568332528205
 20
53.57142857142849
 10
3009.285851397161
 20
53.57142857142849
 10
3008.0613233659706
 20
52.13784214821593
 10
2994.5409463002266
 20
53.57681058076258
 10
2988.9794399595403
 20
61.53469744500906
  0
LWPOLYLINE
  5
47
330
17
100
AcDbEntity
  8
C
100
AcDbPolyline
 90
8
 70
1
 10
3139.0642645470343
 20
70.09999999999994
 10
3142.232493520369
 20
73.80912704822839
 10
3145.8932266241113
 20
70.95198419108561
 10
3147.1373619367764
 20
72.40852536241505
 10
3151.5232924726706
 20
65.80674051338153
 10
3148.3841012536413
 20
62.131608710074836
 10
3145.2422668891413
 20
62.86725395039694
 10
3139.0642645470343
 20
70.09999999999994
  0
LWPOLYLINE
  5
48
330
17
100
AcDbEntity
  8
C
100
AcDbPolyline
 90
31
 70
1
 10
3984.4983666849475
 20
191.48901046849454
 10
3984.4983666849475
 20
195.87007908558374
 10
3997.3003571771624
 20
203.7714285714285
 10
3999.965502772475
 20
203.7714285714285
 10
4005.314290831814
 20
209.47359746715156
 10
4014.701757129485
 20
212.33293242241237
 10
4020.0633412338316
 20
216.61979017959544
 10
4025.4161643242173
 20
218.04640780734985
 10
4028.10631107097
 20
220.91428571428574
 10
4030.804706996785
 20
220.91428571428574
 10
4038.8083000492
 20
225.1804707688433
 10
4042.84673446542
 20
229.48571428571418
 10
4045.6134245504813
 20
229.48571428571418
 10
4047.680175733962
 20
227.28241810293392
 10
4047.680175733962
 20
210.0604390399231
 10
4045.000098753153
 20
207.2032961827802
 10
4045.000098753153
 20
201.48901046849454
 10
4042.312925175036
 20
198.6243021598919
 10
4040.9728866846317
 20
191.4814450170348
 10
4039.639944791535
 20
190.0604390399231
 10
4039.639944791535
 20
187.282418102934
 10
4040.9799832819394
 20
185.85384667436244
 10
4040.9799832819394
 20
178.61668541877827
 10
4037.5282687503695
 20
176.40882909463772
 10
4022.7587443198213
 20
186.4285714285714
 10
4017.4630493492714
 20
186.4285714285714
 10
4008.08277991644
 20
179.28571428571428
 10
4005.400879137242
 20
179.28571428571428
 10
4001.3643784762785
 20
176.4169262835018
 10
3997.272392374716
 20
177.87103735883315
 10
3984.4983666849475
 20
191.48901046849454
  0
LWPOLYLINE
  5
49
330
17
100
AcDbEntity
  8
C
100
AcDbPolyline
 90
87
 70
1
 10
3952.3198578350243
 20
95.8350997925801
 10
3955.009881212101
 20
98.7028461791195
 10
3953.6698427216966
 20
105.84570332197663
 10
3956.320449139998
 20
108.67142857142854
 10
3954.426958818468
 20
110.69001698734616
 10
3951.7598950153597
 20
109.26838202141786
 10
3947.739779544146
 20
112.12552487856075
 10
3945.046689385636
 20
110.69001698734616
 10
3940.990775777725
 20
115.0138945016903
 10
3936.9706603065115
 20
116.44246593026175
 10
3930.2835012714377
 20
123.57142857142856
 10
3927.69003739488
 20
123.57142857142856
 10
3924.3783717869815
 20
120.0409696314032
 10
3916.9923203366725
 20
106.44037390896133
 10
3910.211394232164
 20
104.99458897643588
 10
3907.566695319064
 20
106.40430270163192
 10
3905.636095751079
 20
104.34615332563735
 10
3905.636095751079
 20
98.63186761135168
 10
3903.5693445675984
 20
96.42857142857142
 10
3899.5643911798047
 20
96.42857142857142
 10
3895.52105701485
 20
89.24445979598138
 10
3892.042756715064
 20
91.46932145354437
 10
3890.7008143982466
 20
101.48352870525356
 10
3889.3556338662247
 20
102.91758189706601
 10
3889.3556338662247
 20
108.71098953150538
 10
3890.658563110175
 20
110.09999999999998
 10
3889.31852461977
 20
111.52857142857142
 10
3892.026118700077
 20
114.4150493700573
 10
3890.6903796363245
 20
120.11100116895702
 10
3892.0163728203825
 20
122.93819753800206
 10
3887.402269578492
 20
127.85714285714278
 10
3880.7020771264692
 20
127.85714285714278
 10
3878.6557142762817
 20
130.03870370125327
 10
3875.955248962179
 20
134.35702099497226
 10
3875.955248962179
 20
141.5530645774995
 10
3879.3446937774725
 20
148.05714285714276
 10
3882.0462973949247
 20
148.05714285714276
 10
3892.0357108470334
 20
157.28661299175596
 10
3892.0357108470334
 20
161.4998781378294
 10
3889.326039118031
 20
165.83291742055872
 10
3897.4038847627526
 20
173.00919107183265
 10
3898.7429998963644
 20
180.14712641153642
 10
3900.7925847165943
 20
182.33212209306404
 10
3906.227711744733
 20
183.78067510826713
 10
3910.9962497126976
 20
180.14954428314934
 10
3910.9962497126976
 20
170.13956096007675
 10
3912.9063074483047
 20
168.10331056313032
 10
3914.816365183912
 20
170.13956096007675
 10
3914.816365183912
 20
175.85384667436244
 10
3916.892091158436
 20
178.06671058982704
 10
3930.3560057340155
 20
175.1960223495822
 10
3941.066363941884
 20
170.91428571428568
 10
3946.4322573155373
 20
170.91428571428568
 10
3951.7924112771557
 20
168.0571428571428
 10
3954.490807202972
 20
168.0571428571428
 10
3957.176123176706
 20
165.1944148801242
 10
3967.878991163833
 20
163.7681674700997
 10
3973.2330271236283
 20
160.91428571428568
 10
3978.5162777319724
 20
160.91428571428568
 10
3982.514725021544
 20
166.5977717707766
 10
3987.9134001949697
 20
170.91428571428568
 10
3992.011884934299
 20
170.91428571428568
 10
3994.0715395204725
 20
168.71855498296506
 10
3996.752697427907
 20
154.4270789937462
 10
4002.1128513895255
 20
147.28422185088908
 10
4003.450676706314
 20
140.15316166989544
 10
4010.1590980026344
 20
134.4318579531044
 10
4010.1590980026344
 20
131.56813238864817
 10
4011.536245739493
 20
130.1
 10
4010.1590980026344
 20
128.6318676113517
 10
4010.1590980026344
 20
118.6318676113517
 10
4008.100537908651
 20
116.4373036825388
 10
4001.400345456628
 20
115.00873225396735
 10
4000.052115876726
 20
113.57142857142854
 10
3996.0320004055125
 20
113.57142857142854
 10
3993.3619931906474
 20
110.72502076407864
 10
3988.001839229028
 20
109.29644933550719
 10
3984.698366684948
 20
105.77472475420879
 10
3984.698366684948
 20
101.49412465641538
 10
3977.9981742329255
 20
92.92269608498682
 10
3977.9981742329255
 20
90.06043903992311
 10
3975.9314230494447
 20
87.85714285714286
 10
3971.9060049920845
 20
87.85714285714286
 10
3963.8852985879485
 20
80.73163111005732
 10
3961.1557897798484
 20
79.27671085022669
 10
3959.0628422905684
 20
80.02045192087404
 10
3952.3198578350243
 20
95.8350997925801
  0
LWPOLYLINE
  5
4A
330
17
100
AcDbEntity
  8
C
100
AcDbPolyline
 90
42
 70
1
 10
3800.9205070070593
 20
237.1876676460355
 10
3798.2389807300474
 20
254.33979507401682
 10
3795.515830291452
 20
257.242857142857
 10
3800.2791194483725
 20
262.32084471136864
 10
3816.3949783397816
 20
272.3428571428571
 10
3819.0603065678592
 20
272.3428571428571
 10
3821.7303137827257
 20
275.1892649502069
 10
3827.0904677443436
 20
276.61783637877824
 10
3829.7806144910965
 20
279.4857142857142
 10
3832.468935308042
 20
279.4857142857142
 10
3843.1892432312784
 20
288.0571428571429
 10
3845.8693202120876
 20
288.0571428571429
 10
3851.2294741737055
 20
292.3428571428571
 10
3853.9013073183783
 20
292.3428571428571
 10
3856.5813842991874
 20
295.20000000000005
 10
3859.269705116133
 20
295.20000000000005
 10
3864.629859077751
 20
299.48571428571427
 10
3867.3016922224238
 20
299.48571428571427
 10
3870.013871787207
 20
302.3770806629854
 10
3874.877748542663
 20
298.6733515672001
 10
3869.4550565101567
 20
294.3376349297387
 10
3869.4550565101567
 20
291.4998781378296
 10
3866.774979529348
 20
287.2141638521152
 10
3866.774979529348
 20
281.48901046849426
 10
3863.376380944959
 20
277.8658751111099
 10
3856.676188492936
 20
276.4373036825386
 10
3854.7032399902
 20
274.33400748527725
 10
3853.363201499795
 20
270.04829319956303
 10
3850.6945176444924
 20
267.20329618278004
 10
3850.6945176444924
 20
264.3461533256374
 10
3847.287727970607
 20
260.7142857142858
 10
3844.607650989798
 20
260.7142857142858
 10
3835.9453416640017
 20
251.47967962133288
 10
3834.6053031735973
 20
245.7653939070471
 10
3831.230047487957
 20
242.16714365441982
 10
3827.15137271709
 20
239.26838202141798
 10
3824.438779474485
 20
240.71428571428578
 10
3816.4554519902003
 20
240.71428571428578
 10
3812.435336518987
 20
237.8571428571429
 10
3809.76665023928
 20
237.8571428571429
 10
3805.714432184092
 20
233.53720505130016
 10
3800.9205070070593
 20
237.1876676460355
  0
LWPOLYLINE
  5
4B
330
17
100
AcDbEntity
  8
C
100
AcDbPolyline
 90
5
 70
1
 10
3864.132011794992
 20
65.81428571428572
 10
3861.9848448129314
 20
63.525260865440856
 10
3859.8376778308702
 20
65.81428571428572
 10
3861.9848448129314
 20
68.10331056313035
 10
3864.132011794992
 20
65.81428571428572
  0
LWPOLYLINE
  5
4C
330
17
100
AcDbEntity
  8
C
100
AcDbPolyline
 90
68
 70
1
 10
3767.412131239411
 20
10.050455716850593
 10
3767.412131239411
 20
15.759542561635476
 10
3760.711938787388
 20
20.045256847349812
 10
3760.711938787388
 20
22.934856894411325
 10
3758.012523779928
 20
28.690373890569276
 10
3762.778689970869
 20
33.771428571428565
 10
3765.467010787814
 20
33.771428571428565
 10
3770.8271647494325
 20
38.05714285714279
 10
3773.4989978941053
 20
38.05714285714279
 10
3776.179074874914
 20
40.91428571428568
 10
3778.859151855723
 20
40.91428571428568
 10
3782.8662339099883
 20
45.1861054983097
 10
3786.886349381202
 20
46.61467692688104
 10
3789.5794597789595
 20
49.485714285714245
 10
3792.2595367597687
 20
49.485714285714245
 10
3794.9295439746343
 20
52.33212209306415
 10
3800.294008437902
 20
53.76184234302062
 10
3808.938755239537
 20
61.559897407012066
 10
3807.600427891073
 20
65.84013911450404
 10
3809.680037135028
 20
68.05714285714282
 10
3824.415009326551
 20
68.05714285714282
 10
3831.093116329103
 20
76.60031793376999
 10
3835.7053374306647
 20
80.11241709847172
 10
3833.0369080227797
 20
82.95714285714284
 10
3835.1635331724633
 20
85.22426872693944
 10
3837.843610153272
 20
83.795697298368
 10
3841.8409609047376
 20
88.05714285714284
 10
3852.647881932225
 20
88.05714285714284
 10
3854.714633115706
 20
85.85384667436257
 10
3854.714633115706
 20
82.917581897066
 10
3853.3939326519526
 20
81.50962610943068
 10
3854.733971142357
 20
78.6524832522878
 10
3853.3939326519526
 20
77.22391182371635
 10
3854.6984287027517
 20
74.44255024313651
 10
3857.9647293417174
 20
70.96045342027324
 10
3860.6651092626958
 20
73.83924058125413
 10
3862.777998933143
 20
70.08510237734112
 10
3860.6448063225266
 20
67.8109751511553
 10
3859.3047678321223
 20
69.23954657972675
 10
3857.4318193429694
 20
67.24285714285705
 10
3858.754086613571
 20
65.83323103342642
 10
3857.414048123166
 20
62.976088176283525
 10
3858.7718578333743
 20
61.528571428571375
 10
3856.616169795389
 20
59.23046255928921
 10
3851.256015833771
 20
66.37331970214633
 10
3849.373817180739
 20
64.36676896657356
 10
3850.7138556711434
 20
61.50962610943067
 10
3848.024032810641
 20
58.642093487085376
 10
3849.3640713010454
 20
52.92780777279971
 10
3848.014440663683
 20
51.48901046849452
 10
3848.014440663683
 20
47.28241810293399
 10
3849.354479154088
 20
45.85384667436254
 10
3849.354479154088
 20
42.91758189706596
 10
3847.287727970607
 20
40.7142857142857
 10
3844.5994071536616
 20
40.7142857142857
 10
3839.239253192043
 20
36.42857142857137
 10
3836.5591762112344
 20
36.42857142857137
 10
3831.199022249616
 20
32.14285714285714
 10
3828.5271891049433
 20
32.14285714285714
 10
3827.187150614539
 20
30.714285714285694
 10
3819.146919672112
 20
30.714285714285694
 10
3814.51347840357
 20
25.774724754208833
 10
3814.51347840357
 20
17.20329618278027
 10
3813.1734399131656
 20
15.774724754208824
 10
3813.1734399131656
 20
0.0
 10
3776.841572949208
 20
0.0
 10
3772.130078140765
 20
6.457848813043898
 10
3767.412131239411
 20
10.050455716850593
  0
LWPOLYLINE
  5
4D
330
17
100
AcDbEntity
  8
C
100
AcDbPolyline
 90
49
 70
1
 10
4365.465570822692
 20
271.4498191785787
 10
4363.113351817882
 20
275.830348035956
 10
4371.208173855438
 20
284.44460946517216
 10
4373.4791390646515
 20
288.6738196759219
 10
4370.025773123448
 20
295.8195872018162
 10
4373.491360103306
 20
301.55643161864776
 10
4373.491360103306
 20
305.779021145992
 10
4370.655970191484
 20
309.2992453272895
 10
4366.063586266513
 20
310.72464196101845
 10
4362.588612386418
 20
313.60083358721636
 10
4358.5368334709265
 20
318.63124229965234
 10
4357.378088247837
 20
328.7015682752606
 10
4358.532869249421
 20
330.1352645682937
 10
4358.532869249421
 20
337.2781217111508
 10
4361.476846047594
 20
340.9331598668887
 10
4384.584904596238
 20
332.3263492677618
 10
4400.681638631669
 20
310.9142857142856
 10
4401.734503716718
 20
310.9142857142856
 10
4406.337116287144
 20
316.6285714285714
 10
4409.80841949109
 20
316.6285714285714
 10
4416.769522161958
 20
320.9497834510001
 10
4423.169445235387
 20
311.5594080815033
 10
4423.169445235387
 20
307.2781217111508
 10
4424.320098377993
 20
305.84955028257946
 10
4424.320098377993
 20
295.779021145992
 10
4421.402222576783
 20
292.15638818443233
 10
4416.799610006357
 20
290.7278167558608
 10
4414.45003054213
 20
287.8107412554635
 10
4409.824730659591
 20
292.1175807904007
 10
4407.51322709134
 20
290.68267924084955
 10
4404.544323632551
 20
294.36866461590904
 10
4405.694976775158
 20
297.22580747305193
 10
4404.530590853251
 20
298.6714285714286
 10
4405.681243995858
 20
300.0999999999999
 10
4404.5589949536825
 20
301.4933068602775
 10
4404.5589949536825
 20
305.769309167934
 10
4400.643812448013
 20
309.241323488782
 10
4397.846186324393
 20
305.76798421733565
 10
4396.695533181786
 20
301.4822699316212
 10
4391.426483813708
 20
294.94058234198053
 10
4385.673218100675
 20
302.08343948483764
 10
4380.623683059376
 20
295.8142857142857
 10
4384.058969538727
 20
291.5492714092441
 10
4381.757663253514
 20
284.406414266387
 10
4382.928268358312
 20
282.95307186029294
 10
4373.011287289449
 20
272.0893320916139
 10
4370.71472724679
 20
274.9405823419805
 10
4367.293692898632
 20
270.6932624981663
 10
4365.465570822692
 20
271.4498191785787
  0
LWPOLYLINE
  5
4E
330
17
100
AcDbEntity
  8
C
100
AcDbPolyline
 90
54
 70
1
 10
4349.961748300944
 20
539.2857142857142
 10
4347.66564825505
 20
539.2857142857142
 10
4344.21368882723
 20
542.1428571428569
 10
4339.5992340159655
 20
542.1428571428569
 10
4338.448580873359
 20
543.5714285714284
 10
4335.092338206437
 20
543.5714285714284
 10
4332.791031921223
 20
540.7142857142856
 10
4320.133847352551
 20
540.7142857142856
 10
4318.957736548355
 20
539.2541078122782
 10
4314.304208654748
 20
542.1428571428569
 10
4300.477027167344
 20
542.1428571428569
 10
4295.922272977366
 20
547.7977251991232
 10
4291.367518787389
 20
542.1428571428569
 10
4286.764906216963
 20
542.1428571428569
 10
4285.614253074356
 20
540.7142857142856
 10
4283.312946789143
 20
540.7142857142856
 10
4281.011640503929
 20
537.8571428571429
 10
4277.547838835271
 20
537.8571428571429
 10
4274.095879407451
 20
534.9999999999998
 10
4267.184459016525
 20
534.9999999999998
 10
4262.581846446098
 20
532.1428571428571
 10
4260.204167176115
 20
532.1428571428571
 10
4257.260721378915
 20
535.7972360444805
 10
4258.411374521522
 20
538.6543789016233
 10
4257.246988599617
 20
540.0999999999999
 10
4259.576698985261
 20
542.9924074254366
 10
4259.576698985261
 20
548.7066931397223
 10
4263.02865841308
 20
552.9924074254363
 10
4263.02865841308
 20
555.8555596434414
 10
4275.168947473281
 20
568.0571428571427
 10
4279.7652706004255
 20
568.0571428571427
 10
4280.963782123481
 20
569.5451319437336
 10
4282.143203765175
 20
568.0808435346775
 10
4291.3385136538145
 20
572.3619415359005
 10
4295.911789101074
 20
568.1035444588222
 10
4300.477027167344
 20
573.7714285714285
 10
4302.860439155834
 20
573.7714285714285
 10
4312.037770106842
 20
566.6502161151626
 10
4314.355123977928
 20
568.0887493305787
 10
4315.5312347821255
 20
566.6285714285714
 10
4327.037766208191
 20
566.6285714285714
 10
4328.19230108759
 20
565.1951807038367
 10
4342.000138798868
 20
563.7666092752652
 10
4343.146910204682
 20
562.3428571428569
 10
4345.448216489895
 20
562.3428571428569
 10
4348.9001759177145
 20
558.0571428571427
 10
4351.198756972363
 20
558.0571428571427
 10
4364.486134962454
 20
542.9949473491974
 10
4364.486134962454
 20
541.5638359968652
 10
4369.0759532954135
 20
535.865434723701
 10
4370.239400675487
 20
532.976522984315
 10
4370.239400675487
 20
525.7790211459917
 10
4367.271034750807
 20
522.0937031361381
 10
4349.961748300944
 20
539.2857142857142
  0
LWPOLYLINE
  5
4F
330
17
100
AcDbEntity
  8
C
100
AcDbPolyline
 90
27
 70
1
 10
4250.420852234272
 20
108.57485920646181
 10
4248.070167559195
 20
111.49330686027747
 10
4248.070167559195
 20
114.42097885400815
 10
4249.192416601371
 20
115.81428571428565
 10
4246.904843095457
 20
118.65437890162333
 10
4248.070167559195
 20
121.5479515557435
 10
4248.070167559195
 20
131.56383599686527
 10
4251.046800415711
 20
135.2594176580194
 10
4252.197453558318
 20
133.83084622944807
 10
4254.974086414834
 20
137.27812171115104
 10
4254.974086414834
 20
145.84955028257963
 10
4259.039522254634
 20
150.89691448850473
 10
4262.584256921438
 20
152.36388035897642
 10
4266.053149650044
 20
148.05714285714276
 10
4268.354455935258
 20
148.05714285714276
 10
4271.283230411326
 20
144.42097885400818
 10
4271.283230411326
 20
140.13526456829396
 10
4273.584536696539
 20
137.27812171115104
 10
4273.584536696539
 20
134.42097885400815
 10
4274.735189839145
 20
132.9924074254367
 10
4274.735189839145
 20
125.7848575788587
 10
4270.13257726872
 20
118.6420004360016
 10
4270.13257726872
 20
114.35044971742026
 10
4266.0052912695965
 20
109.22629662769468
 10
4263.703984984383
 20
112.08343948483757
 10
4260.297022543352
 20
107.8535903485035
 10
4250.420852234272
 20
108.57485920646181
  0
LWPOLYLINE
  5
50
330
17
100
AcDbEntity
  8
C
100
AcDbPolyline
 90
36
 70
1
 10
5160.6972748164235
 20
230.11748492898832
 10
5159.505362865388
 20
232.9746277861312
 10
5160.695553169059
 20
234.40113572651268
 10
5154.75336190559
 20
247.2208078327419
 10
5154.75336190559
 20
250.13623852463917
 10
5155.915038665203
 20
251.52857142857144
 10
5154.737715061244
 20
252.9396579281543
 10
5155.9296270122795
 20
255.7968007852972
 10
5154.75336190559
 20
257.2066186182177
 10
5154.75336190559
 20
265.7780471896464
 10
5153.5614499545545
 20
267.2066186182177
 10
5153.5614499545545
 20
270.0637614753606
 10
5149.985714101446
 20
274.3494757610748
 10
5149.985714101446
 20
278.63519004678926
 10
5144.675308966933
 20
284.99999999999983
 10
5138.715749211752
 20
284.99999999999983
 10
5134.4783472725685
 20
290.07875714848694
 10
5139.269626711399
 20
304.4352809392442
 10
5147.609098974633
 20
314.4305929203558
 10
5148.801010925669
 20
320.1448786346416
 10
5151.848075527481
 20
323.79695161484455
 10
5160.241147178175
 20
319.48571428571427
 10
5163.839502893213
 20
319.48571428571427
 10
5168.064393366987
 20
314.42195281035345
 10
5168.064393366987
 20
310.07406008432025
 10
5165.680569464916
 20
305.78834579860603
 10
5165.680569464916
 20
235.77804718964634
 10
5164.504304358225
 20
234.36822935672586
 10
5165.696216309262
 20
231.51108649958297
 10
5164.518892705302
 20
230.09999999999985
 10
5165.680569464916
 20
228.70766709606784
 10
5165.680569464916
 20
218.6351900467892
 10
5162.6007895873245
 20
214.9439060256917
 10
5159.521009709735
 20
218.6351900467892
 10
5159.521009709735
 20
228.70766709606784
 10
5160.6972748164235
 20
230.11748492898832
  0
LWPOLYLINE
  5
51
330
17
100
AcDbEntity
  8
C
100
AcDbPolyline
 90
72
 70
1
 10
5041.538911606302
 20
332.9003071145845
 10
5039.137902655092
 20
337.2169172271772
 10
5039.137902655092
 20
340.1362385246393
 10
5045.737871228378
 20
348.0466605361562
 10
5057.667538388803
 20
350.90633177998177
 10
5061.240997560659
 20
353.76165548608975
 10
5065.998406396402
 20
355.18715892425644
 10
5068.91353006479
 20
358.68109350540686
 10
5065.999105659909
 20
363.57142857142856
 10
5064.817208247517
 20
363.57142857142856
 10
5058.178258680245
 20
371.5285714285713
 10
5060.576670929395
 20
374.4031992147027
 10
5058.222023721476
 20
380.0475452130349
 10
5054.090000688191
 20
384.9999999999999
 10
5051.70617678612
 20
384.9999999999999
 10
5050.5610661899345
 20
386.37247745426305
 10
5049.41595559375
 20
384.9999999999999
 10
5046.938528981976
 20
384.9999999999999
 10
5043.875315267813
 20
388.67142857142846
 10
5051.687045210407
 20
398.03421262104285
 10
5054.158779686564
 20
399.5154668565529
 10
5055.37551534893
 20
398.05714285714276
 10
5060.143163153075
 20
398.05714285714276
 10
5061.335075104111
 20
396.62857142857143
 10
5067.29463485929
 20
396.62857142857143
 10
5068.486546810327
 20
395.1999999999999
 10
5073.254194614472
 20
395.1999999999999
 10
5074.450643226751
 20
393.7659911356951
 10
5086.369762737112
 20
392.33741970712356
 10
5087.557138026904
 20
390.91428571428565
 10
5095.806918974455
 20
390.91428571428565
 10
5102.309236060004
 20
398.7076670960678
 10
5102.309236060004
 20
410.1362385246391
 10
5105.323083007029
 20
413.74849833532846
 10
5107.745170060528
 20
415.1999999999999
 10
5125.623849326069
 20
415.1999999999999
 10
5130.4056070393935
 20
418.0655986046905
 10
5140.0119776746415
 20
415.1871589242565
 10
5141.193175823527
 20
413.7714285714284
 10
5144.749780100921
 20
413.7714285714284
 10
5149.517427905066
 20
410.91428571428565
 10
5155.421648101971
 20
410.91428571428565
 10
5157.855119426702
 20
412.37260971369585
 10
5160.905712885512
 20
408.7163072060701
 10
5162.097624836548
 20
403.0020214917843
 10
5165.680569464916
 20
398.7076670960678
 10
5165.680569464916
 20
394.3494757610749
 10
5160.263767040104
 20
387.8571428571428
 10
5156.688031186996
 20
387.8571428571428
 10
5155.456034048358
 20
386.38052714671966
 10
5148.304562342141
 20
393.523384289577
 10
5145.953911050773
 20
390.70600061415996
 10
5137.590270830377
 20
392.138040413423
 10
5132.781013167902
 20
389.2559617148755
 10
5131.564277505536
 20
390.71428571428567
 10
5124.506408509023
 20
390.71428571428567
 10
5121.579827276581
 20
387.2066186182178
 10
5121.579827276581
 20
335.7780471896462
 10
5118.514110172491
 20
332.1036181689635
 10
5114.882898208224
 20
335.0050884544321
 10
5105.354606030616
 20
336.43261063383676
 10
5093.432569388398
 20
343.57721594744606
 10
5080.396809254607
 20
346.4179557521937
 10
5075.12207123829
 20
340.0958947838809
 10
5083.465454895543
 20
328.66732335530935
 10
5079.213754369652
 20
323.5714285714285
 10
5076.8253423994665
 20
323.5714285714285
 10
5068.4819587422135
 20
315.00000000000006
 10
5062.526987055147
 20
315.00000000000006
 10
5060.118339441745
 20
312.11310457201813
 10
5057.646604965586
 20
313.5943588075284
 10
5041.538911606302
 20
332.9003071145845
  0
LWPOLYLINE
  5
52
330
17
100
AcDbEntity
  8
C
100
AcDbPolyline
 90
17
 70
1
 10
5071.315683757749
 20
234.41734847298358
 10
5072.511437284102
 20
235.85052423892495
 10
5072.511437284102
 20
240.13623852463917
 10
5074.895261186174
 20
242.99338138178206
 10
5074.895261186174
 20
252.98308277282266
 10
5077.279085088247
 20
257.2687970585369
 10
5077.279085088247
 20
260.13623852463917
 10
5080.3218335275615
 20
263.7831383488735
 10
5086.3608503671485
 20
262.33552019114023
 10
5092.324367141821
 20
258.0469602833223
 10
5100.680230960792
 20
255.18554366790903
 10
5104.894509596969
 20
250.13450105821912
 10
5103.69971909028
 20
220.0620488359587
 10
5100.663605115622
 20
216.4231007791716
 10
5075.540088183274
 20
219.29090117840045
 10
5072.515136741959
 20
222.91647033065377
 10
5071.315683757749
 20
234.41734847298358
  0
LWPOLYLINE
  5
53
330
17
100
AcDbEntity
  8
C
100
AcDbPolyline
 90
120
 70
1
 10
4970.656164115667
 20
72.14285714285718
 10
4963.591689817409
 20
72.14285714285718
 10
4957.621727222686
 20
66.41859673248129
 10
4951.576827096529
 20
67.86762517812939
 10
4950.393660948053
 20
69.28571428571428
 10
4939.760056098432
 20
69.28571428571428
 10
4938.573765855857
 20
67.86388078109896
 10
4928.937202853699
 20
66.4201375412411
 10
4924.71435535563
 20
72.92753978678113
 10
4924.71435535563
 20
91.5648099532107
 10
4925.906267306666
 20
92.99338138178214
 10
4925.906267306666
 20
98.63519004678922
 10
4924.71435535563
 20
100.06376147536066
 10
4924.71435535563
 20
110.13623852463927
 10
4928.939245829404
 20
115.19999999999997
 10
4931.334825987802
 20
115.19999999999997
 10
4934.91056184091
 20
118.05714285714275
 10
4939.685584964443
 20
118.05714285714275
 10
4942.031145715088
 20
119.46278404961441
 10
4944.970667089698
 20
122.9859606112651
 10
4943.790777017601
 20
130.0567733688165
 10
4942.555616346447
 20
131.53718074536013
 10
4948.017256808889
 20
136.62857142857143
 10
4955.161308752198
 20
136.62857142857143
 10
4958.087889984639
 20
140.1362385246393
 10
4958.087889984639
 20
145.85052423892498
 10
4959.279801935676
 20
147.27909566749642
 10
4959.279801935676
 20
160.06376147536062
 10
4958.087889984639
 20
161.49233290393207
 10
4958.087889984639
 20
164.34947576107496
 10
4955.163200947891
 20
167.85487495748652
 10
4925.365402171989
 20
166.42630352891507
 10
4922.318019988149
 20
170.07875714848709
 10
4924.71435535563
 20
177.25910347416064
 10
4924.71435535563
 20
188.70766709606778
 10
4927.755432679752
 20
192.3525639976721
 10
4934.994866948072
 20
190.90642124837575
 10
4942.1384647035275
 20
183.7714285714285
 10
4951.679175608793
 20
183.7714285714285
 10
4952.871087559829
 20
182.34285714285704
 10
4956.446823412937
 20
182.34285714285704
 10
4959.479801935676
 20
178.70766709606778
 10
4959.479801935676
 20
172.99338138178211
 10
4962.411404665932
 20
169.47969574692834
 10
4973.138612225257
 20
168.0511243183569
 10
4976.183937741892
 20
164.4011357265127
 10
4970.224377986711
 20
151.54399286936982
 10
4981.484356604699
 20
138.0482948641606
 10
4988.6182042773535
 20
136.62324399636861
 10
4993.376962319342
 20
133.77142857142854
 10
4996.878227038461
 20
133.77142857142854
 10
4999.804808270902
 20
137.27909566749642
 10
4999.804808270902
 20
138.63519004678926
 10
4990.269512662613
 20
150.0637614753607
 10
4990.269512662613
 20
164.42920525694703
 10
4995.699486220867
 20
169.4910757653938
 10
5006.4940053255405
 20
168.0535402751161
 10
5011.293904736309
 20
165.17706976390022
 10
5016.05313476689
 20
159.47287320997094
 10
5020.820782571034
 20
158.0443017813995
 10
5024.360980910663
 20
153.8011811422675
 10
5026.735971268125
 20
155.22445882853197
 10
5032.186430948876
 20
150.1434909712328
 10
5032.186430948876
 20
147.27909566749642
 10
5033.378342899912
 20
145.85052423892498
 10
5033.378342899912
 20
138.70766709606787
 10
5034.570254850948
 20
137.27909566749642
 10
5034.570254850948
 20
131.5648099532106
 10
5035.762166801984
 20
130.13623852463928
 10
5035.762166801984
 20
122.99338138178206
 10
5036.9540787530195
 20
121.56480995321061
 10
5036.9540787530195
 20
115.85052423892495
 10
5038.145990704056
 20
114.4219528103535
 10
5038.145990704056
 20
107.27909566749638
 10
5039.368137846516
 20
105.81428571428563
 10
5036.307553279009
 20
102.14600831840347
 10
4994.497117827734
 20
99.28246058019529
 10
4991.461424613649
 20
102.92090433250355
 10
4991.461424613649
 20
105.83053204558901
 10
4993.856368684998
 20
113.00670951067282
 10
4996.1988372263695
 20
115.81428571428565
 10
4993.302491185353
 20
119.28571428571422
 10
4983.786327152777
 20
119.28571428571422
 10
4981.3642400992785
 20
120.73721595038545
 10
4977.158481201217
 20
125.77804718964636
 10
4977.158481201217
 20
128.63519004678926
 10
4973.039988017739
 20
133.57142857142856
 10
4962.406383168117
 20
133.57142857142856
 10
4959.470377311132
 20
130.05246554923454
 10
4957.08655340906
 20
121.48103697780587
 10
4954.742389322955
 20
118.67142857142854
 10
4958.28788998464
 20
114.4219528103535
 10
4958.28788998464
 20
107.20661861821779
 10
4954.073713313015
 20
102.15569821860038
 10
4949.30606550887
 20
100.72712679002893
 10
4945.176858523243
 20
95.77804718964633
 10
4945.176858523243
 20
90.14349097123275
 10
4950.479843894849
 20
85.19999999999995
 10
4958.737044605306
 20
85.19999999999995
 10
4961.6636258377475
 20
88.70766709606781
 10
4961.6636258377475
 20
98.70766709606782
 10
4964.696604360487
 20
102.34285714285707
 10
4969.538723298621
 20
102.34285714285707
 10
4971.960810352119
 20
100.89135547818584
 10
4974.974657299144
 20
97.27909566749638
 10
4974.974657299144
 20
91.55887936671125
 10
4979.742305103289
 20
84.41602222385414
 10
4979.742305103289
 20
75.85052423892502
 10
4982.66888633573
 20
72.34285714285716
 10
4987.436534139874
 20
72.34285714285716
 10
4991.66142461365
 20
67.27909566749635
 10
4991.66142461365
 20
64.42195281035356
 10
4994.075483707146
 20
61.528571428571375
 10
4986.270008570319
 20
52.17328410453459
 10
4981.419860496081
 20
47.81340901654685
 10
4977.158481201217
 20
52.92090433250352
 10
4977.158481201217
 20
60.063761475360636
 10
4974.774657299145
 20
62.920904332503525
 10
4974.774657299145
 20
67.20661861821775
 10
4970.656164115667
 20
72.14285714285718
  0
LWPOLYLINE
  5
54
330
17
100
AcDbEntity
  8
C
100
AcDbPolyline
 90
14
 70
1
 10
4991.461424613649
 20
197.28485236573957
 10
4998.0803270508
 20
203.7755830487149
 10
5012.470486908989
 20
202.33830048153968
 10
5013.633773351338
 20
200.94403828512463
 10
5016.025067605021
 20
202.37708652545362
 10
5021.455039589598
 20
194.4227208888878
 10
5022.656279400661
 20
185.78421262597888
 10
5019.618156817849
 20
182.14285714285705
 10
5016.04242096474
 20
182.14285714285705
 10
5014.810423826102
 20
180.66624143243425
 10
5007.610849894762
 20
187.85714285714283
 10
4995.686315087425
 20
187.85714285714283
 10
4991.461424613649
 20
192.92090433250354
 10
4991.461424613649
 20
197.28485236573957
  0
LWPOLYLINE
  5
55
330
17
100
AcDbEntity
  8
C
100
AcDbPolyline
 90
11
 70
1
 10
4937.299139000032
 20
52.36264469434959
 10
4940.965750377572
 20
50.89776684296232
 10
4944.0151817636315
 20
47.24285714285714
 10
4940.951968049469
 20
43.5714285714286
 10
4936.184320245325
 20
43.5714285714286
 10
4934.975898780915
 20
42.12306959136469
 10
4933.087627643681
 20
42.8774682121974
 10
4930.653163967499
 20
47.25422429136883
 10
4933.706893633549
 20
50.91428571428569
 10
4936.0907175356215
 20
50.91428571428569
 10
4937.299139000032
 20
52.36264469434959
  0
LWPOLYLINE
  5
56
330
17
100
AcDbEntity
  8
C
100
AcDbPolyline
 90
25
 70
1
 10
6346.644998453957
 20
77.15116992724236
 10
6337.536130155233
 20
87.82480338318565
 10
6335.380035657788
 20
86.39313208101585
 10
6332.613947507969
 20
90.0665601502023
 10
6332.613947507969
 20
95.78084586448799
 10
6330.02466489149
 20
99.21947215810678
 10
6326.797525751715
 20
94.93375787239245
 10
6315.377358584608
 20
110.09999999999998
 10
6317.553964855683
 20
112.99058270694051
 10
6317.553964855683
 20
115.84772556408329
 10
6321.3559259947815
 20
120.89681655824936
 10
6332.1130564607
 20
125.18253084396369
 10
6334.277636813226
 20
128.05714285714276
 10
6338.580488999593
 20
128.05714285714276
 10
6339.662660268398
 20
129.49429095191877
 10
6348.360694710273
 20
128.05039246898198
 10
6353.283803498187
 20
122.96528088388881
 10
6348.949643206846
 20
117.20941729305945
 10
6348.949643206846
 20
110.08179867131496
 10
6347.880782952611
 20
107.24285714285709
 10
6348.9596929593245
 20
104.37722301398978
 10
6345.737349259731
 20
98.67142857142852
 10
6355.427734664843
 20
81.51269184270937
 10
6350.497551462961
 20
76.42027304870102
 10
6346.644998453957
 20
77.15116992724236
  0
LWPOLYLINE
  5
57
330
17
100
AcDbEntity
  8
C
100
AcDbPolyline
 90
19
 70
1
 10
6195.506267239398
 20
10.720111170510528
 10
6190.635361684994
 20
17.188784696724248
 10
6185.256796452035
 20
27.188784696724255
 10
6172.348863328825
 20
44.33081390251581
 10
6169.086289953968
 20
50.10784291188541
 10
6171.8390187022405
 20
53.76352939151785
 10
6180.543973457645
 20
55.20857666620449
 10
6181.62614472645
 20
53.77142857142847
 10
6204.216118704879
 20
53.77142857142847
 10
6205.24195148684
 20
52.409099270464665
 10
6206.2677842688
 20
53.77142857142847
 10
6230.025724252621
 20
53.77142857142847
 10
6234.955368373088
 20
48.67956659817463
 10
6233.848347221523
 20
47.209417293059495
 10
6233.848347221523
 20
32.92545788973123
 10
6218.202385670192
 20
10.714285714285676
 10
6208.518970891246
 20
10.714285714285676
 10
6207.438599936785
 20
9.27952847796698
 10
6195.506267239398
 20
10.720111170510528
  0
LWPOLYLINE
  5
58
330
17
100
AcDbEntity
  8
C
100
AcDbPolyline
 90
11
 70
1
 10
7071.624448310502
 20
118.57272508171567
 10
7067.444507848654
 20
121.4762764308145
 10
7067.444507848654
 20
130.14022288246986
 10
7073.671574259777
 20
136.62857142857143
 10
7090.209358364675
 20
136.62857142857143
 10
7092.323293786207
 20
134.42593716818408
 10
7092.323293786207
 20
131.48834854610146
 10
7090.952250123009
 20
130.05977711753013
 10
7090.952250123009
 20
120.05977711753013
 10
7088.836594967352
 20
117.85535096451171
 10
7071.624448310502
 20
118.57272508171567
  0
LWPOLYLINE
  5
59
330
17
100
AcDbEntity
  8
C
100
AcDbPolyline
 90
26
 70
1
 10
7047.6127559306315
 20
227.86095944772978
 10
7041.409261392825
 20
235.76114431426078
 10
7031.814140599222
 20
255.75659126810447
 10
7029.798177037464
 20
257.85714285714266
 10
7027.060250231854
 20
257.85714285714266
 10
7016.646997263024
 20
267.2606354371848
 10
7022.958732978571
 20
270.91428571428554
 10
7028.449758264782
 20
270.91428571428554
 10
7035.304976580768
 20
273.77142857142843
 10
7042.137570006239
 20
273.77142857142843
 10
7043.504454298113
 20
275.19566610517785
 10
7057.214890930087
 20
276.6242375337494
 10
7058.590093964607
 20
278.05714285714265
 10
7064.092411649308
 20
278.05714285714265
 10
7066.87924371878
 20
279.50902538194555
 10
7069.015551511851
 20
277.28308002532685
 10
7069.015551511851
 20
260.14022288246974
 10
7071.757638838246
 20
257.28308002532685
 10
7071.757638838246
 20
252.9863962157558
 10
7074.49972616464
 20
248.70068193004158
 10
7074.49972616464
 20
245.83990659978593
 10
7080.010723747057
 20
235.79099690721438
 10
7072.380001061561
 20
229.2857142857142
 10
7069.63239742037
 20
229.2857142857142
 10
7065.515612100127
 20
226.42603298650766
 10
7047.6127559306315
 20
227.86095944772978
  0
LWPOLYLINE
  5
5A
330
17
100
AcDbEntity
  8
C
100
AcDbPolyline
 90
31
 70
1
 10
6945.473120370255
 20
128.5775463098756
 10
6944.050578160894
 20
130.05977711753013
 10
6944.050578160894
 20
140.0772486812416
 10
6941.308490834499
 20
145.79153439552726
 10
6941.308490834499
 20
148.63746709280568
 10
6935.779727017555
 20
155.83839934264608
 10
6943.4213376200005
 20
160.90528299921402
 10
6961.251796910165
 20
166.62177820176026
 10
6976.372224233209
 20
173.78308134930643
 10
6981.915052003996
 20
170.89538141698912
 10
6985.359724046318
 20
167.3061740178725
 10
6992.214942362304
 20
157.3061740178725
 10
6999.0755566950875
 20
150.15769444618132
 10
7001.815155214025
 20
144.44859520307807
 10
7008.665533252584
 20
138.73834418570297
 10
7011.4583890463855
 20
134.37328189967758
 10
7009.317782236032
 20
132.1428571428571
 10
6988.752127288071
 20
132.1428571428571
 10
6987.381083624874
 20
130.71428571428567
 10
6983.182692488754
 20
130.71428571428567
 10
6981.068757067222
 20
132.9169199746729
 10
6981.068757067222
 20
148.6312056889586
 10
6979.112191572425
 20
150.66986692129026
 10
6977.15562607763
 20
148.6312056889586
 10
6977.15562607763
 20
132.9169199746729
 10
6975.041690656098
 20
130.71428571428567
 10
6962.702297687322
 20
130.71428571428567
 10
6961.331254024125
 20
129.28571428571422
 10
6951.733948381743
 20
129.28571428571422
 10
6950.356650735658
 20
127.85062646272927
 10
6945.473120370255
 20
128.5775463098756
  0
LWPOLYLINE
  5
5B
330
17
100
AcDbEntity
  8
C
100
AcDbPolyline
 90
142
 70
1
 10
7942.3924777307775
 20
169.28571428571425
 10
7940.500238654628
 20
169.28571428571425
 10
7938.094937249719
 20
172.90890806295656
 10
7936.172571091266
 20
177.25250410169434
 10
7938.657132986937
 20
180.99509086491307
 10
7940.553882139984
 20
178.13794800777018
 10
7947.1325305646005
 20
188.0476075565024
 10
7954.7195271767905
 20
189.47617898507386
 10
7958.5193556085815
 20
195.19999999999993
 10
7960.416104761629
 20
195.19999999999993
 10
7964.2166004111505
 20
200.92482606948258
 10
7971.812977192256
 20
199.4944884293266
 10
7975.598709068601
 20
203.7714285714285
 10
7977.486847139056
 20
203.7714285714285
 10
7979.371783515836
 20
206.61077741016697
 10
7983.165281821931
 20
208.03934883873842
 10
7987.024236389649
 20
213.85223372205587
 10
7988.026254451528
 20
212.34285714285704
 10
7991.712465786913
 20
212.34285714285704
 10
7992.660840363436
 20
213.7714285714285
 10
7996.561625640244
 20
213.7714285714285
 10
7998.420299446765
 20
210.9716400060665
 10
8001.1968207454665
 20
213.7598906237249
 10
8005.928357627207
 20
215.18534815280853
 10
8007.82766597193
 20
218.04634601429075
 10
8014.460595492683
 20
219.47369246513006
 10
8029.691534465426
 20
248.15234537478904
 10
8032.546216062792
 20
243.852233722056
 10
8034.817152504101
 20
247.27302862363143
 10
8034.817152504101
 20
260.1301714807743
 10
8037.224718652492
 20
263.75677672423694
 10
8056.192210182969
 20
269.4710624385227
 10
8059.985708489064
 20
275.1853481528085
 10
8069.476775363489
 20
278.0446966210398
 10
8073.267876827445
 20
282.32770306829815
 10
8080.847863203882
 20
285.1822059815955
 10
8081.827385412486
 20
286.6576962314421
 10
8084.782434157798
 20
285.17393010777147
 10
8087.1893227240325
 20
280.09811170053956
 10
8083.819352978644
 20
273.57142857142844
 10
8082.863712103908
 20
273.57142857142844
 10
8079.61078730643
 20
268.6714285714286
 10
8081.861694042029
 20
265.2808051506276
 10
8083.716196333132
 20
268.07431000922435
 10
8088.458069215751
 20
266.6457385806528
 10
8092.240170898435
 20
272.3428571428571
 10
8095.192581598717
 20
272.3428571428571
 10
8096.09730978481
 20
270.9800318739503
 10
8100.269461124384
 20
275.86810439865917
 10
8102.138121982931
 20
280.0903530411626
 10
8099.88081099598
 20
283.4906234208009
 10
8098.932436419456
 20
282.06205199222956
 10
8096.441470272436
 20
285.8142857142857
 10
8099.88081099598
 20
290.99509086491315
 10
8103.727952787431
 20
285.19999999999976
 10
8105.521404512132
 20
285.19999999999976
 10
8113.150304137653
 20
295.25523004091605
 10
8116.577366085147
 20
291.56786634116725
 10
8116.577366085147
 20
288.70160005220305
 10
8120.822892373651
 20
282.3064079992516
 10
8123.620939112664
 20
279.49654100779884
 10
8129.218522886971
 20
280.9018486515219
 10
8131.123528535911
 20
283.77142857142843
 10
8134.075939236192
 20
283.77142857142843
 10
8136.491251240692
 20
280.1331554606498
 10
8137.4396258172155
 20
265.8474411749355
 10
8139.338355921717
 20
262.9873143379172
 10
8139.338355921717
 20
258.6875915547441
 10
8141.235105074767
 20
252.9733058404583
 10
8141.235105074767
 20
234.35554280493986
 10
8138.817812118811
 20
230.71428571428555
 10
8136.921062965764
 20
230.71428571428555
 10
8135.024313812716
 20
227.85714285714286
 10
8133.127564659669
 20
227.85714285714286
 10
8132.179190083145
 20
226.4285714285713
 10
8127.437317200526
 20
226.4285714285713
 10
8125.5477356633655
 20
223.58222541428063
 10
8118.895501480932
 20
222.15072477482056
 10
8114.144923559159
 20
217.85714285714286
 10
8109.418200246575
 20
217.85714285714286
 10
8107.533263869794
 20
215.01779401840437
 10
8096.152768951509
 20
210.73207973269004
 10
8092.8880313777645
 20
205.8142857142856
 10
8097.1011435280325
 20
199.46792026730975
 10
8100.8946418341275
 20
198.03934883873842
 10
8102.779578210907
 20
195.19999999999993
 10
8108.388383538473
 20
195.19999999999993
 10
8117.872129303711
 20
200.9142857142857
 10
8125.540568047479
 20
200.9142857142857
 10
8126.488942624002
 20
199.48571428571415
 10
8128.38569177705
 20
199.48571428571415
 10
8130.282440930097
 20
196.62857142857138
 10
8135.024313812716
 20
196.62857142857138
 10
8137.44160676867
 20
192.98731433791716
 10
8137.44160676867
 20
187.21268566208283
 10
8135.024313812716
 20
183.5714285714285
 10
8120.79869516486
 20
183.5714285714285
 10
8119.850320588336
 20
182.14285714285705
 10
8105.604504307667
 20
182.14285714285705
 10
8103.649695596021
 20
180.670557092377
 10
8097.930418357578
 20
189.28571428571428
 10
8093.283733841274
 20
189.28571428571428
 10
8087.593486382131
 20
183.5714285714285
 10
8078.962926827103
 20
183.5714285714285
 10
8078.014552250579
 20
184.99999999999994
 10
8074.221053944484
 20
184.99999999999994
 10
8073.27267936796
 20
186.4285714285714
 10
8069.479181061865
 20
186.4285714285714
 10
8068.530806485342
 20
187.85714285714283
 10
8060.94380987315
 20
187.85714285714283
 10
8059.995435296626
 20
189.28571428571428
 10
8055.253562414007
 20
189.28571428571428
 10
8054.305187837484
 20
190.71428571428572
 10
8047.666565801817
 20
190.71428571428572
 10
8046.718191225294
 20
192.14285714285705
 10
8042.924692919199
 20
192.14285714285705
 10
8041.971635512439
 20
193.57848249046606
 10
8031.548899650623
 20
195.00576881117027
 10
8024.977878717861
 20
202.0758902239086
 10
8018.350459267007
 20
190.66660435490513
 10
8016.448461967943
 20
192.09912852094834
 10
8012.276192373242
 20
185.8142857142856
 10
8015.121316102814
 20
181.52857142857138
 10
8012.683993441147
 20
177.85714285714283
 10
8010.7872442881
 20
177.85714285714283
 10
8008.890495135052
 20
174.99999999999994
 10
8006.993745982005
 20
174.99999999999994
 10
8005.043353343602
 20
172.06205199222967
 10
8004.10737146048
 20
173.47195585193666
 10
7998.474977648174
 20
162.15958051853264
 10
7993.726228718234
 20
160.72893756147698
 10
7992.768127334147
 20
159.28571428571425
 10
7989.827815238263
 20
159.28571428571425
 10
7986.97120209761
 20
162.15439509056063
 10
7982.218993214114
 20
163.58608041861987
 10
7981.305280827856
 20
164.96243891794072
 10
7974.724841351833
 20
160.7142857142857
 10
7972.835728634464
 20
160.7142857142857
 10
7966.194481871166
 20
154.99774072939675
 10
7954.275667720872
 20
155.71589061569912
 10
7948.067342611056
 20
159.31274751928558
 10
7942.3924777307775
 20
169.28571428571425
  0
LWPOLYLINE
  5
5C
330
17
100
AcDbEntity
  8
C
100
AcDbPolyline
 90
97
 70
1
 10
8059.995953529164
 20
313.58057148920335
 10
8056.199531292156
 20
317.86958909324557
 10
8051.4576584095375
 20
319.2981605218171
 10
8047.67517688441
 20
323.5714285714285
 10
8037.234445460056
 20
323.5714285714285
 10
8034.389321730485
 20
327.8571428571427
 10
8033.548234124672
 20
327.8571428571427
 10
8029.754735818575
 20
322.14285714285717
 10
8023.957201388722
 20
322.14285714285717
 10
8021.539908432768
 20
325.7841142335113
 10
8021.539908432768
 20
328.6975924007626
 10
8026.7898655573845
 20
338.0436505891987
 10
8032.484316081545
 20
339.4732772229504
 10
8034.418351509784
 20
342.386585764766
 10
8036.326073268246
 20
340.9497501170869
 10
8040.08818027222
 20
345.1999999999998
 10
8043.873067495722
 20
345.1999999999998
 10
8045.761560152878
 20
348.04470579437907
 10
8051.460625818969
 20
349.4754910877408
 10
8058.0950858491215
 20
356.6138701008511
 10
8061.8803716734055
 20
358.0393488387384
 10
8063.788933602721
 20
360.91428571428565
 10
8065.691688051405
 20
360.91428571428565
 10
8070.831420467293
 20
367.2487864441164
 10
8068.518993709072
 20
370.73207973268995
 10
8064.725495402977
 20
372.1606511612613
 10
8061.8803716734055
 20
376.44636544697573
 10
8058.086873367311
 20
377.87493687554706
 10
8056.184707097776
 20
380.7402397340557
 10
8051.451543360201
 20
383.59213502928094
 10
8045.7456194399765
 20
389.3221634293199
 10
8033.848748221866
 20
407.24285714285713
 10
8037.234445460056
 20
412.342857142857
 10
8039.131194613104
 20
412.342857142857
 10
8040.133212674982
 20
413.8522337220559
 10
8042.083605313385
 20
410.91428571428565
 10
8043.873067495722
 20
410.91428571428565
 10
8046.177617716675
 20
414.38571428571424
 10
8043.873067495722
 20
417.85714285714283
 10
8042.083605313385
 20
417.85714285714283
 10
8041.081587251506
 20
416.3477662779439
 10
8037.642246527961
 20
421.52857142857135
 10
8040.079569189627
 20
425.19999999999993
 10
8043.95618543807
 20
425.19999999999993
 10
8050.560927307064
 20
420.9361578307479
 10
8052.428636317249
 20
422.34285714285704
 10
8056.3092239612415
 20
422.34285714285704
 10
8059.697171198603
 20
417.23946788653154
 10
8051.139520305005
 20
405.7810646916494
 10
8051.139520305005
 20
404.4111194472947
 10
8055.377303288333
 20
396.60902963505583
 10
8059.166160467081
 20
395.1822059815956
 10
8064.864792782768
 20
386.59814699304275
 10
8066.663087111593
 20
385.2437286219087
 10
8069.532824547218
 20
389.56651943634193
 10
8072.02379069424
 20
385.8142857142856
 10
8070.133912901385
 20
382.96749343916747
 10
8076.731614747283
 20
375.86866457028077
 10
8079.590757600719
 20
368.6906115594916
 10
8079.590757600719
 20
362.9873143379171
 10
8081.501132208126
 20
360.1096469588373
 10
8079.604383055079
 20
355.82393267312284
 10
8081.487506753767
 20
352.9873143379173
 10
8081.487506753767
 20
347.27302862363155
 10
8083.758443195076
 20
343.8522337220561
 10
8087.912503335073
 20
350.1096469588373
 10
8086.018916135032
 20
354.3882167957738
 10
8088.85922806766
 20
360.09283826163187
 10
8087.906099083721
 20
361.5285714285713
 10
8090.343421745388
 20
365.1999999999999
 10
8096.140956175241
 20
365.1999999999999
 10
8097.0893307517645
 20
363.77142857142854
 10
8100.870730453464
 20
363.77142857142854
 10
8103.729858017679
 20
360.9002227209216
 10
8107.533263869794
 20
359.4679202673098
 10
8110.3867724559095
 20
355.16957556447136
 10
8114.183344355629
 20
352.31011777389176
 10
8119.439630969476
 20
342.9527917268348
 10
8116.056822282241
 20
337.8571428571427
 10
8114.052786158483
 20
337.8571428571427
 10
8113.127680762409
 20
339.25066306525684
 10
8108.443980830916
 20
336.4285714285714
 10
8099.9086096422025
 20
336.4285714285714
 10
8095.166736759584
 20
333.5714285714285
 10
8092.347457869146
 20
333.5714285714285
 10
8091.345439807266
 20
332.0620519922294
 10
8090.343421745388
 20
333.5714285714285
 10
8086.657210410003
 20
333.5714285714285
 10
8085.717092329372
 20
332.15529420562063
 10
8079.930347651429
 20
330.7024965600519
 10
8076.182800401904
 20
334.93629752362864
 10
8071.0754161177165
 20
327.2428571428571
 10
8073.900510141577
 20
322.98731433791727
 10
8073.900510141577
 20
318.64125709065416
 10
8071.4919127134835
 20
315.01309839272983
 10
8063.370850563803
 20
312.85432416676883
 10
8059.995953529164
 20
313.58057148920335
  0
LWPOLYLINE
  5
5D
330
17
100
AcDbEntity
  8
C
100
AcDbPolyline
 90
8
 70
1
 10
8019.62312957401
 20
410.0999999999998
 10
8023.037856591499
 20
415.2437286219087
 10
8024.992665303143
 20
413.7714285714284
 10
8028.806361242051
 20
413.7714285714284
 10
8032.186600462298
 20
408.67965018415777
 10
8029.752004354698
 20
403.54540013598785
 10
8022.048639459406
 20
406.44636544697556
 10
8019.62312957401
 20
410.0999999999998
  0
LWPOLYLINE
  5
5E
330
17
100
AcDbEntity
  8
C
100
AcDbPolyline
 90
34
 70
1
 10
7965.157977644248
 20
235.0
 10
7962.312853914676
 20
235.0
 10
7959.873630464632
 20
238.67429179871914
 10
7969.902836890318
 20
252.3428571428571
 10
7971.796599679914
 20
252.3428571428571
 10
7973.693348832961
 20
255.2
 10
7975.590097986009
 20
255.2
 10
7976.538472562533
 20
256.6285714285713
 10
7978.430711638682
 20
256.6285714285713
 10
7984.120959097824
 20
266.6285714285713
 10
7986.02221832777
 20
266.6285714285713
 10
7986.970592904294
 20
268.0571428571429
 10
7995.61325106372
 20
268.0571428571429
 10
7996.567955765938
 20
266.61903612793094
 10
8004.154952378128
 20
265.1904646993596
 10
8005.096996828957
 20
263.77142857142843
 10
8006.998626537222
 20
263.77142857142843
 10
8012.25616266753
 20
254.4118781150483
 10
8012.25616266753
 20
248.6412570906541
 10
8008.890495135052
 20
243.57142857142844
 10
8006.981647377609
 20
243.57142857142844
 10
8004.136523648038
 20
240.71428571428578
 10
8001.303498522862
 20
240.71428571428578
 10
7999.353105884459
 20
237.7763377065153
 10
7993.597402163694
 20
246.44636544697562
 10
7989.908633876195
 20
247.8354972079345
 10
7986.650049101387
 20
242.92697137636833
 10
7986.650049101387
 20
240.06982851922544
 10
7983.804925371815
 20
235.7841142335112
 10
7983.804925371815
 20
232.9269713763683
 10
7981.383388289377
 20
229.27932120223605
 10
7975.144953816473
 20
230.00218141669095
 10
7966.094014318244
 20
233.59001360678667
 10
7965.157977644248
 20
235.0
  0
ENDSEC
  0
SECTION
  2
OBJECTS
  0
DICTIONARY
  5
A
330
0
100
AcDbDictionary
281
1
  3
ACAD_COLOR
350
B
  3
ACAD_GROUP
350
C
  3
ACAD_LAYOUT
350
D
  3
ACAD_MATERIAL
350
E
  3
ACAD_MLEADERSTYLE
350
F
  3
ACAD_MLINESTYLE
350
10
  3
ACAD_PLOTSETTINGS
350
11
  3
ACAD_PLOTSTYLENAME
350
12
  3
ACAD_SCALELIST
350
14
  3
ACAD_TABLESTYLE
350
15
  3
ACAD_VISUALSTYLE
350
16
  3
EZDXF_META
350
2D
  0
DICTIONARY
  5
B
330
A
100
AcDbDictionary
281
1
  0
DICTIONARY
  5
C
330
A
100
AcDbDictionary
281
1
  0
DICTIONARY
  5
D
330
A
100
AcDbDictionary
281
1
  3
Model
350
1A
  3
Layout1
350
1E
  0
DICTIONARY
  5
E
330
A
100
AcDbDictionary
281
1
  3
ByBlock
350
1F
  3
ByLayer
350
20
  3
Global
350
21
  0
DICTIONARY
  5
F
330
A
100
AcDbDictionary
281
1
  3
Standard
350
2C
  0
DICTIONARY
  5
10
330
A
100
AcDbDictionary
281
1
  3
Standard
350
22
  0
DICTIONARY
  5
11
330
A
100
AcDbDictionary
281
1
  0
ACDBDICTIONARYWDFLT
  5
12
330
A
100
AcDbDictionary
281
1
  3
Normal
350
13
100
AcDbDictionaryWithDefault
340
13
  0
ACDBPLACEHOLDER
  5
13
330
12
  0
DICTIONARY
  5
14
330
A
100
AcDbDictionary
281
1
  0
DICTIONARY
  5
15
330
A
100
AcDbDictionary
281
1
  0
DICTIONARY
  5
16
330
A
100
AcDbDictionary
281
1
  0
LAYOUT
  5
1A
330
D
100
AcDbPlotSettings
  1

  4
A3
  6

 40
7.5
 41
20.0
 42
7.5
 43
20.0
 44
420.0
 45
297.0
 46
0.0
 47
0.0
 48
0.0
 49
0.0
140
0.0
141
0.0
142
1.0
143
1.0
 70
1024
 72
1
 73
0
 74
5
  7

 75
16
 76
0
 77
2
 78
300
147
1.0
148
0.0
149
0.0
100
AcDbLayout
  1
Model
 70
1
 71
0
 10
0.0
 20
0.0
 11
420.0
 21
297.0
 12
0.0
 22
0.0
 32
0.0
 14
1e+20
 24
1e+20
 34
1e+20
 15
-1e+20
 25
-1e+20
 35
-1e+20
146
0.0
 13
0.0
 23
0.0
 33
0.0
 16
1.0
 26
0.0
 36
0.0
 17
0.0
 27
1.0
 37
0.0
 76
1
330
17
  0
LAYOUT
  5
1E
330
D
100
AcDbPlotSettings
  1

  4
A3
  6

 40
7.5
 41
20.0
 42
7.5
 43
20.0
 44
420.0
 45
297.0
 46
0.0
 47
0.0
 48
0.0
 49
0.0
140
0.0
141
0.0
142
1.0
143
1.0
 70
0
 72
1
 73
0
 74
5
  7

 75
16
 76
0
 77
2
 78
300
147
1.0
148
0.0
149
0.0
100
AcDbLayout
  1
Layout1
 70
1
 71
1
 10
0.0
 20
0.0
 11
420.0
 21
297.0
 12
0.0
 22
0.0
 32
0.0
 14
1e+20
 24
1e+20
 34
1e+20
 15
-1e+20
 25
-1e+20
 35
-1e+20
146
0.0
 13
0.0
 23
0.0
 33
0.0
 16
1.0
 26
0.0
 36
0.0
 17
0.0
 27
1.0
 37
0.0
 76
1
330
1B
  0
MATERIAL
  5
1F
102
{ACAD_REACTORS
330
E
102
}
330
E
100
AcDbMaterial
  1
ByBlock
  2

 70
0
 40
1.0
 71
1
 41
1.0
 91
-1023410177
 42
1.0
 72
1
  3

 73
1
 74
1
 75
1
 44
0.5
 73
0
 45
1.0
 46
1.0
 77
1
  4

 78
1
 79
1
170
1
 48
1.0
171
1
  6

172
1
173
1
174
1
140
1.0
141
1.0
175
1
  7

176
1
177
1
178
1
143
1.0
179
1
  8

270
1
271
1
272
1
145
1.0
146
1.0
273
1
  9

274
1
275
1
276
1
 42
1.0
 72
1
  3

 73
1
 74
1
 75
1
 94
63
  0
MATERIAL
  5
20
102
{ACAD_REACTORS
330
E
102
}
330
E
100
AcDbMaterial
  1
ByLayer
  2

 70
0
 40
1.0
 71
1
 41
1.0
 91
-1023410177
 42
1.0
 72
1
  3

 73
1
 74
1
 75
1
 44
0.5
 73
0
 45
1.0
 46
1.0
 77
1
  4

 78
1
 79
1
170
1
 48
1.0
171
1
  6

172
1
173
1
174
1
140
1.0
141
1.0
175
1
  7

176
1
177
1
178
1
143
1.0
179
1
  8

270
1
271
1
272
1
145
1.0
146
1.0
273
1
  9

274
1
275
1
276
1
 42
1.0
 72
1
  3

 73
1
 74
1
 75
1
 94
63
  0
MATERIAL
  5
21
102
{ACAD_REACTORS
330
E
102
}
330
E
100
AcDbMaterial
  1
Global
  2

 70
0
 40
1.0
 71
1
 41
1.0
 91
-1023410177
 42
1.0
 72
1
  3

 73
1
 74
1
 75
1
 44
0.5
 73
0
 45
1.0
 46
1.0
 77
1
  4

 78
1
 79
1
170
1
 48
1.0
171
1
  6

172
1
173
1
174
1
140
1.0
141
1.0
175
1
  7

176
1
177
1
178
1
143
1.0
179
1
  8

270
1
271
1
272
1
145
1.0
146
1.0
273
1
  9

274
1
275
1
276
1
 42
1.0
 72
1
  3

 73
1
 74
1
 75
1
 94
63
  0
MLINESTYLE
  5
22
102
{ACAD_REACTORS
330
10
102
}
330
10
100
AcDbMlineStyle
  2
Standard
 70
0
  3

 62
256
 51
90.0
 52
90.0
 71
2
 49
0.5
 62
256
  6
BYLAYER
 49
-0.5
 62
256
  6
BYLAYER
  0
MLEADERSTYLE
  5
2C
102
{ACAD_REACTORS
330
F
102
}
330
F
100
AcDbMLeaderStyle
179
2
170
2
171
1
172
0
 90
2
 40
0.0
 41
0.0
173
1
 91
-1056964608
 92
-2
290
1
 42
2.0
291
1
 43
8.0
  3
Standard
 44
4.0
300

342
29
174
1
175
1
176
0
178
1
 93
-1056964608
 45
4.0
292
0
297
0
 46
4.0
 94
-1056964608
 47
1.0
 49
1.0
140
1.0
294
1
141
0.0
177
0
142
1.0
295
0
296
0
143
3.75
271
0
272
9
273
9
  0
DICTIONARY
  5
2D
330
A
100
AcDbDictionary
280
1
281
1
  3
CREATED_BY_EZDXF
350
2E
  3
WRITTEN_BY_EZDXF
350
61
  0
DICTIONARYVAR
  5
2E
330
2D
100
DictionaryVariables
280
0
  1
1.4.4 @ 2026-07-20T15:30:42.975700+00:00
  0
DICTIONARYVAR
  5
61
330
2D
100
DictionaryVariables
280
0
  1
1.4.4 @ 2026-07-20T15:30:42.985013+00:00
  0
ENDSEC
  0
EOF
