  0
SECTION
  2
HEADER
  9
$ACADVER
  1
AC1027
  9
$ACADMAINTVER
 70
105
  9
$DWGCODEPAGE
  3
ANSI_1252
  9
$LASTSAVEDBY
  1
ezdxf
  9
$REQUIREDVERSIONS
160
0
  9
$INSBASE
 10
0.0
 20
0.0
 30
0.0
  9
$EXTMIN
 10
1e+20
 20
1e+20
 30
1e+20
  9
$EXTMAX
 10
-1e+20
 20
-1e+20
 30
-1e+20
  9
$LIMMIN
 10
0.0
 20
0.0
  9
$LIMMAX
 10
420.0
 20
297.0
  9
$ORTHOMODE
 70
0
  9
$REGENMODE
 70
1
  9
$FILLMODE
 70
1
  9
$QTEXTMODE
 70
0
  9
$MIRRTEXT
 70
1
  9
$LTSCALE
 40
1.0
  9
$ATTMODE
 70
1
  9
$TEXTSIZE
 40
2.5
  9
$TRACEWID
 40
1.0
  9
$TEXTSTYLE
  7
Standard
  9
$CLAYER
  8
0
  9
$CELTYPE
  6
ByLayer
  9
$CECOLOR
 62
256
  9
$CELTSCALE
 40
1.0
  9
$DISPSILH
 70
0
  9
$DIMSCALE
 40
1.0
  9
$DIMASZ
 40
2.5
  9
$DIMEXO
 40
0.625
  9
$DIMDLI
 40
3.75
  9
$DIMRND
 40
0.0
  9
$DIMDLE
 40
0.0
  9
$DIMEXE
 40
1.25
  9
$DIMTP
 40
0.0
  9
$DIMTM
 40
0.0
  9
$DIMTXT
 40
2.5
  9
$DIMCEN
 40
2.5
  9
$DIMTSZ
 40
0.0
  9
$DIMTOL
 70
0
  9
$DIMLIM
 70
0
  9
$DIMTIH
 70
0
  9
$DIMTOH
 70
0
  9
$DIMSE1
 70
0
  9
$DIMSE2
 70
0
  9
$DIMTAD
 70
1
  9
$DIMZIN
 70
8
  9
$DIMBLK
  1

  9
$DIMASO
 70
1
  9
$DIMSHO
 70
1
  9
$DIMPOST
  1

  9
$DIMAPOST
  1

  9
$DIMALT
 70
0
  9
$DIMALTD
 70
3
  9
$DIMALTF
 40
0.03937007874
  9
$DIMLFAC
 40
1.0
  9
$DIMTOFL
 70
1
  9
$DIMTVP
 40
0.0
  9
$DIMTIX
 70
0
  9
$DIMSOXD
 70
0
  9
$DIMSAH
 70
0
  9
$DIMBLK1
  1

  9
$DIMBLK2
  1

  9
$DIMSTYLE
  2
ISO-25
  9
$DIMCLRD
 70
0
  9
$DIMCLRE
 70
0
  9
$DIMCLRT
 70
0
  9
$DIMTFAC
 40
1.0
  9
$DIMGAP
 40
0.625
  9
$DIMJUST
 70
0
  9
$DIMSD1
 70
0
  9
$DIMSD2
 70
0
  9
$DIMTOLJ
 70
0
  9
$DIMTZIN
 70
8
  9
$DIMALTZ
 70
0
  9
$DIMALTTZ
 70
0
  9
$DIMUPT
 70
0
  9
$DIMDEC
 70
2
  9
$DIMTDEC
 70
2
  9
$DIMALTU
 70
2
  9
$DIMALTTD
 70
3
  9
$DIMTXSTY
  7
Standard
  9
$DIMAUNIT
 70
0
  9
$DIMADEC
 70
0
  9
$DIMALTRND
 40
0.0
  9
$DIMAZIN
 70
0
  9
$DIMDSEP
 70
44
  9
$DIMATFIT
 70
3
  9
$DIMFRAC
 70
0
  9
$DIMLDRBLK
  1

  9
$DIMLUNIT
 70
2
  9
$DIMLWD
 70
-2
  9
$DIMLWE
 70
-2
  9
$DIMTMOVE
 70
0
  9
$DIMFXL
 40
1.0
  9
$DIMFXLON
 70
0
  9
$DIMJOGANG
 40
0.785398163397
  9
$DIMTFILL
 70
0
  9
$DIMTFILLCLR
 70
0
  9
$DIMARCSYM
 70
0
  9
$DIMLTYPE
  6

  9
$DIMLTEX1
  6

  9
$DIMLTEX2
  6

  9
$DIMTXTDIRECTION
 70
0
  9
$LUNITS
 70
2
  9
$LUPREC
 70
4
  9
$SKETCHINC
 40
1.0
  9
$FILLETRAD
 40
10.0
  9
$AUNITS
 70
0
  9
$AUPREC
 70
2
  9
$MENU
  1
.
  9
$ELEVATION
 40
0.0
  9
$PELEVATION
 40
0.0
  9
$THICKNESS
 40
0.0
  9
$LIMCHECK
 70
0
  9
$CHAMFERA
 40
0.0
  9
$CHAMFERB
 40
0.0
  9
$CHAMFERC
 40
0.0
  9
$CHAMFERD
 40
0.0
  9
$SKPOLY
 70
0
  9
$TDCREATE
 40
2461256.6428935183
  9
$TDUCREATE
 40
2458532.153996898
  9
$TDUPDATE
 40
2461256.6428935183
  9
$TDUUPDATE
 40
2458532.1544311
  9
$TDINDWG
 40
0.0
  9
$TDUSRTIMER
 40
0.0
  9
$USRTIMER
 70
1
  9
$ANGBASE
 50
0.0
  9
$ANGDIR
 70
0
  9
$PDMODE
 70
0
  9
$PDSIZE
 40
0.0
  9
$PLINEWID
 40
0.0
  9
$SPLFRAME
 70
0
  9
$SPLINETYPE
 70
6
  9
$SPLINESEGS
 70
8
  9
$HANDSEED
  5
113
  9
$SURFTAB1
 70
6
  9
$SURFTAB2
 70
6
  9
$SURFTYPE
 70
6
  9
$SURFU
 70
6
  9
$SURFV
 70
6
  9
$UCSBASE
  2

  9
$UCSNAME
  2

  9
$UCSORG
 10
0.0
 20
0.0
 30
0.0
  9
$UCSXDIR
 10
1.0
 20
0.0
 30
0.0
  9
$UCSYDIR
 10
0.0
 20
1.0
 30
0.0
  9
$UCSORTHOREF
  2

  9
$UCSORTHOVIEW
 70
0
  9
$UCSORGTOP
 10
0.0
 20
0.0
 30
0.0
  9
$UCSORGBOTTOM
 10
0.0
 20
0.0
 30
0.0
  9
$UCSORGLEFT
 10
0.0
 20
0.0
 30
0.0
  9
$UCSORGRIGHT
 10
0.0
 20
0.0
 30
0.0
  9
$UCSORGFRONT
 10
0.0
 20
0.0
 30
0.0
  9
$UCSORGBACK
 10
0.0
 20
0.0
 30
0.0
  9
$PUCSBASE
  2

  9
$PUCSNAME
  2

  9
$PUCSORG
 10
0.0
 20
0.0
 30
0.0
  9
$PUCSXDIR
 10
1.0
 20
0.0
 30
0.0
  9
$PUCSYDIR
 10
0.0
 20
1.0
 30
0.0
  9
$PUCSORTHOREF
  2

  9
$PUCSORTHOVIEW
 70
0
  9
$PUCSORGTOP
 10
0.0
 20
0.0
 30
0.0
  9
$PUCSORGBOTTOM
 10
0.0
 20
0.0
 30
0.0
  9
$PUCSORGLEFT
 10
0.0
 20
0.0
 30
0.0
  9
$PUCSORGRIGHT
 10
0.0
 20
0.0
 30
0.0
  9
$PUCSORGFRONT
 10
0.0
 20
0.0
 30
0.0
  9
$PUCSORGBACK
 10
0.0
 20
0.0
 30
0.0
  9
$USERI1
 70
0
  9
$USERI2
 70
0
  9
$USERI3
 70
0
  9
$USERI4
 70
0
  9
$USERI5
 70
0
  9
$USERR1
 40
0.0
  9
$USERR2
 40
0.0
  9
$USERR3
 40
0.0
  9
$USERR4
 40
0.0
  9
$USERR5
 40
0.0
  9
$WORLDVIEW
 70
1
  9
$SHADEDGE
 70
3
  9
$SHADEDIF
 70
70
  9
$TILEMODE
 70
1
  9
$MAXACTVP
 70
64
  9
$PINSBASE
 10
0.0
 20
0.0
 30
0.0
  9
$PLIMCHECK
 70
0
  9
$PEXTMIN
 10
1e+20
 20
1e+20
 30
1e+20
  9
$PEXTMAX
 10
-1e+20
 20
-1e+20
 30
-1e+20
  9
$PLIMMIN
 10
0.0
 20
0.0
  9
$PLIMMAX
 10
420.0
 20
297.0
  9
$UNITMODE
 70
0
  9
$VISRETAIN
 70
1
  9
$PLINEGEN
 70
0
  9
$PSLTSCALE
 70
1
  9
$TREEDEPTH
 70
3020
  9
$CMLSTYLE
  2
Standard
  9
$CMLJUST
 70
0
  9
$CMLSCALE
 40
20.0
  9
$PROXYGRAPHICS
 70
1
  9
$MEASUREMENT
 70
1
  9
$CELWEIGHT
370
-1
  9
$ENDCAPS
280
0
  9
$JOINSTYLE
280
0
  9
$LWDISPLAY
290
0
  9
$INSUNITS
 70
4
  9
$HYPERLINKBASE
  1

  9
$STYLESHEET
  1

  9
$XEDIT
290
1
  9
$CEPSNTYPE
380
0
  9
$PSTYLEMODE
290
1
  9
$FINGERPRINTGUID
  2
{DC78952E-AD9B-443F-858D-CFB028C40B98}
  9
$VERSIONGUID
  2
{94E119E6-6AE5-4324-8CF3-2848F4EC6204}
  9
$EXTNAMES
290
1
  9
$PSVPSCALE
 40
0.0
  9
$OLESTARTUP
290
0
  9
$SORTENTS
280
127
  9
$INDEXCTL
280
0
  9
$HIDETEXT
280
1
  9
$XCLIPFRAME
280
1
  9
$HALOGAP
280
0
  9
$OBSCOLOR
 70
257
  9
$OBSLTYPE
280
0
  9
$INTERSECTIONDISPLAY
280
0
  9
$INTERSECTIONCOLOR
 70
257
  9
$DIMASSOC
280
2
  9
$PROJECTNAME
  1

  9
$CAMERADISPLAY
290
0
  9
$LENSLENGTH
 40
50.0
  9
$CAMERAHEIGHT
 40
0.0
  9
$STEPSPERSEC
 40
24.0
  9
$STEPSIZE
 40
100.0
  9
$3DDWFPREC
 40
2.0
  9
$PSOLWIDTH
 40
0.005
  9
$PSOLHEIGHT
 40
0.08
  9
$LOFTANG1
 40
1.570796326795
  9
$LOFTANG2
 40
1.570796326795
  9
$LOFTMAG1
 40
0.0
  9
$LOFTMAG2
 40
0.0
  9
$LOFTPARAM
 70
7
  9
$LOFTNORMALS
280
1
  9
$LATITUDE
 40
37.795
  9
$LONGITUDE
 40
-122.394
  9
$NORTHDIRECTION
 40
0.0
  9
$TIMEZONE
 70
-8000
  9
$LIGHTGLYPHDISPLAY
280
1
  9
$TILEMODELIGHTSYNCH
280
1
  9
$CMATERIAL
347
20
  9
$SOLIDHIST
280
0
  9
$SHOWHIST
280
1
  9
$DWFFRAME
280
2
  9
$DGNFRAME
280
2
  9
$REALWORLDSCALE
290
1
  9
$INTERFERECOLOR
 62
256
  9
$CSHADOW
280
0
  9
$SHADOWPLANELOCATION
 40
0.0
  0
ENDSEC
  0
SECTION
  2
CLASSES
  0
CLASS
  1
ACDBDICTIONARYWDFLT
  2
AcDbDictionaryWithDefault
  3
ObjectDBX Classes
 90
0
 91
0
280
0
281
0
  0
CLASS
  1
SUN
  2
AcDbSun
  3
SCENEOE
 90
1153
 91
0
280
0
281
0
  0
CLASS
  1
VISUALSTYLE
  2
AcDbVisualStyle
  3
ObjectDBX Classes
 90
4095
 91
0
280
0
281
0
  0
CLASS
  1
MATERIAL
  2
AcDbMaterial
  3
ObjectDBX Classes
 90
1153
 91
0
280
0
281
0
  0
CLASS
  1
SCALE
  2
AcDbScale
  3
ObjectDBX Classes
 90
1153
 91
0
280
0
281
0
  0
CLASS
  1
TABLESTYLE
  2
AcDbTableStyle
  3
ObjectDBX Classes
 90
4095
 91
0
280
0
281
0
  0
CLASS
  1
MLEADERSTYLE
  2
AcDbMLeaderStyle
  3
ACDB_MLEADERSTYLE_CLASS
 90
4095
 91
0
280
0
281
0
  0
CLASS
  1
DICTIONARYVAR
  2
AcDbDictionaryVar
  3
ObjectDBX Classes
 90
0
 91
0
280
0
281
0
  0
CLASS
  1
CELLSTYLEMAP
  2
AcDbCellStyleMap
  3
ObjectDBX Classes
 90
1152
 91
0
280
0
281
0
  0
CLASS
  1
MENTALRAYRENDERSETTINGS
  2
AcDbMentalRayRenderSettings
  3
SCENEOE
 90
1024
 91
0
280
0
281
0
  0
CLASS
  1
ACDBDETAILVIEWSTYLE
  2
AcDbDetailViewStyle
  3
ObjectDBX Classes
 90
1025
 91
0
280
0
281
0
  0
CLASS
  1
ACDBSECTIONVIEWSTYLE
  2
AcDbSectionViewStyle
  3
ObjectDBX Classes
 90
1025
 91
0
280
0
281
0
  0
CLASS
  1
RASTERVARIABLES
  2
AcDbRasterVariables
  3
ISM
 90
0
 91
0
280
0
281
0
  0
CLASS
  1
LAYOUT
  2
AcDbLayout
  3
ObjectDBX Classes
 90
0
 91
0
280
0
281
0
  0
CLASS
  1
ACDBPLACEHOLDER
  2
AcDbPlaceHolder
  3
ObjectDBX Classes
 90
0
 91
0
280
0
281
0
  0
ENDSEC
  0
SECTION
  2
TABLES
  0
TABLE
  2
VPORT
  5
8
330
0
100
AcDbSymbolTable
 70
1
  0
VPORT
  5
23
330
8
100
AcDbSymbolTableRecord
100
AcDbViewportTableRecord
  2
*Active
 70
0
 10
0.0
 20
0.0
 11
1.0
 21
1.0
 12
0.0
 22
0.0
 13
0.0
 23
0.0
 14
0.5
 24
0.5
 15
0.5
 25
0.5
 16
0.0
 26
0.0
 36
1.0
 17
0.0
 27
0.0
 37
0.0
 40
1000.0
 41
1.34
 42
50.0
 43
0.0
 44
0.0
 50
0.0
 51
0.0
 71
0
 72
1000
 73
1
 74
3
 75
0
 76
0
 77
0
 78
0
281
0
 65
0
146
0.0
  0
ENDTAB
  0
TABLE
  2
LTYPE
  5
2
330
0
100
AcDbSymbolTable
 70
3
  0
LTYPE
  5
24
330
2
100
AcDbSymbolTableRecord
100
AcDbLinetypeTableRecord
  2
ByBlock
 70
0
  3

 72
65
 73
0
 40
0.0
  0
LTYPE
  5
25
330
2
100
AcDbSymbolTableRecord
100
AcDbLinetypeTableRecord
  2
ByLayer
 70
0
  3

 72
65
 73
0
 40
0.0
  0
LTYPE
  5
26
330
2
100
AcDbSymbolTableRecord
100
AcDbLinetypeTableRecord
  2
Continuous
 70
0
  3

 72
65
 73
0
 40
0.0
  0
ENDTAB
  0
TABLE
  2
LAYER
  5
1
330
0
100
AcDbSymbolTable
 70
7
  0
LAYER
  5
27
330
1
100
AcDbSymbolTableRecord
100
AcDbLayerTableRecord
  2
0
 70
0
 62
7
  6
Continuous
370
-3
390
13
347
21
  0
LAYER
  5
28
330
1
100
AcDbSymbolTableRecord
100
AcDbLayerTableRecord
  2
Defpoints
 70
0
 62
7
  6
Continuous
290
0
370
-3
390
13
347
21
  0
LAYER
  5
2F
330
1
100
AcDbSymbolTableRecord
100
AcDbLayerTableRecord
  2
ENG_L
 70
0
 62
4
  6
Continuous
370
-3
390
13
347
21
  0
LAYER
  5
30
330
1
100
AcDbSymbolTableRecord
100
AcDbLayerTableRecord
  2
ENG_D
 70
0
 62
3
  6
Continuous
370
-3
390
13
347
21
  0
LAYER
  5
31
330
1
100
AcDbSymbolTableRecord
100
AcDbLayerTableRecord
  2
ENG_K
 70
0
 62
2
  6
Continuous
370
-3
390
13
347
21
  0
LAYER
  5
32
330
1
100
AcDbSymbolTableRecord
100
AcDbLayerTableRecord
  2
CUT_OUTLINE
 70
0
 62
5
  6
Continuous
370
-3
390
13
347
21
  0
LAYER
  5
33
330
1
100
AcDbSymbolTableRecord
100
AcDbLayerTableRecord
  2
CUT_SLOT
 70
0
 62
1
  6
Continuous
370
-3
390
13
347
21
  0
ENDTAB
  0
TABLE
  2
STYLE
  5
5
330
0
100
AcDbSymbolTable
 70
1
  0
STYLE
  5
29
330
5
100
AcDbSymbolTableRecord
100
AcDbTextStyleTableRecord
  2
Standard
 70
0
 40
0.0
 41
1.0
 50
0.0
 71
0
 42
2.5
  3
txt
  4

  0
ENDTAB
  0
TABLE
  2
VIEW
  5
7
330
0
100
AcDbSymbolTable
 70
0
  0
ENDTAB
  0
TABLE
  2
UCS
  5
6
330
0
100
AcDbSymbolTable
 70
0
  0
ENDTAB
  0
TABLE
  2
APPID
  5
3
330
0
100
AcDbSymbolTable
 70
3
  0
APPID
  5
2A
330
3
100
AcDbSymbolTableRecord
100
AcDbRegAppTableRecord
  2
ACAD
 70
0
  0
APPID
  5
110
330
3
100
AcDbSymbolTableRecord
100
AcDbRegAppTableRecord
  2
HATCHBACKGROUNDCOLOR
 70
0
  0
APPID
  5
111
330
3
100
AcDbSymbolTableRecord
100
AcDbRegAppTableRecord
  2
EZDXF
 70
0
  0
ENDTAB
  0
TABLE
  2
DIMSTYLE
  5
4
330
0
100
AcDbSymbolTable
 70
1
100
AcDbDimStyleTable
  0
DIMSTYLE
105
2B
330
4
100
AcDbSymbolTableRecord
100
AcDbDimStyleTableRecord
  2
Standard
 70
0
 40
1.0
 41
2.5
 42
0.625
 43
3.75
 44
1.25
 45
0.0
 46
0.0
 47
0.0
 48
0.0
 49
2.5
140
2.5
141
2.5
142
0.0
143
0.03937007874
144
1.0
145
0.0
146
1.0
147
0.625
148
0.0
 69
0
 70
0
 71
0
 72
0
 73
0
 74
0
 75
0
 76
0
 77
1
 78
8
 79
3
170
0
171
3
172
1
173
0
174
0
175
0
176
0
177
0
178
0
179
2
271
2
272
2
273
2
274
3
275
0
276
0
277
2
278
44
279
0
280
0
281
0
282
0
283
0
284
8
285
0
286
0
288
0
289
3
290
0
371
-2
372
-2
  0
ENDTAB
  0
TABLE
  2
BLOCK_RECORD
  5
9
330
0
100
AcDbSymbolTable
 70
2
  0
BLOCK_RECORD
  5
17
330
9
100
AcDbSymbolTableRecord
100
AcDbBlockTableRecord
  2
*Model_Space
340
1A
 70
0
280
1
281
0
  0
BLOCK_RECORD
  5
1B
330
9
100
AcDbSymbolTableRecord
100
AcDbBlockTableRecord
  2
*Paper_Space
340
1E
 70
0
280
1
281
0
  0
ENDTAB
  0
ENDSEC
  0
SECTION
  2
BLOCKS
  0
BLOCK
  5
18
330
17
100
AcDbEntity
  8
0
100
AcDbBlockBegin
  2
*Model_Space
 70
0
 10
0.0
 20
0.0
 30
0.0
  3
*Model_Space
  1

  0
ENDBLK
  5
19
330
17
100
AcDbEntity
  8
0
100
AcDbBlockEnd
  0
BLOCK
  5
1C
330
1B
100
AcDbEntity
  8
0
100
AcDbBlockBegin
  2
*Paper_Space
 70
0
 10
0.0
 20
0.0
 30
0.0
  3
*Paper_Space
  1

  0
ENDBLK
  5
1D
330
1B
100
AcDbEntity
  8
0
100
AcDbBlockEnd
  0
ENDSEC
  0
SECTION
  2
ENTITIES
  0
LWPOLYLINE
  5
34
330
17
100
AcDbEntity
  8
ENG_L
100
AcDbPolyline
 90
6
 70
1
 10
242.41148192538316
 20
4.949747468305898
 10
241.34454479494926
 20
6.550153163956685
 10
241.65175696061402
 20
8.0862139922806
 10
242.74192561005464
 20
7.722824442466858
 10
243.29654100488688
 20
4.949747468305898
 10
242.41148192538316
 20
4.949747468305898
  0
LWPOLYLINE
  5
35
330
17
100
AcDbEntity
  8
ENG_L
100
AcDbPolyline
 90
5
 70
1
 10
241.46212030979984
 20
10.100131674341316
 10
241.92183632303554
 20
8.720983634634138
 10
240.8877101242172
 20
8.720983634634138
 10
240.8877101242172
 20
9.52572148875841
 10
241.46212030979984
 20
10.100131674341316
  0
LWPOLYLINE
  5
36
330
17
100
AcDbEntity
  8
ENG_L
100
AcDbPolyline
 90
14
 70
1
 10
238.059282999471
 20
15.484984283897884
 10
238.059282999471
 20
16.914920992573414
 10
237.09769576444552
 20
18.83809546262438
 10
237.48487281388836
 20
19.99962661095267
 10
238.53068752026203
 20
18.95381190457912
 10
238.53068752026203
 20
17.96901354596292
 10
240.41630560342617
 20
14.19777737963468
 10
240.41630560342617
 20
12.783563817261534
 10
241.35911464500822
 20
10.897945734097414
 10
241.35911464500822
 20
9.663792676216199
 10
240.4965866988895
 20
9.663792676216199
 10
239.0020920410531
 20
13.150946877834468
 10
239.0020920410531
 20
14.07077072152485
 10
238.059282999471
 20
15.484984283897884
  0
LWPOLYLINE
  5
37
330
17
100
AcDbEntity
  8
ENG_L
100
AcDbPolyline
 90
7
 70
1
 10
233.4261348090121
 20
6.111524714797034
 10
230.33808036815805
 20
6.626200454939335
 10
229.98296600941902
 20
7.6915435311565306
 10
232.52182629820496
 20
8.537830294085168
 10
233.033097821694
 20
7.515287247107039
 10
234.5304307547174
 20
7.215820660502414
 10
233.4261348090121
 20
6.111524714797034
  0
LWPOLYLINE
  5
38
330
17
100
AcDbEntity
  8
ENG_L
100
AcDbPolyline
 90
4
 70
1
 10
231.6953219687921
 20
30.30796051808382
 10
231.6953219687921
 20
31.917436226332363
 10
232.50005982291643
 20
31.112698372208094
 10
231.6953219687921
 20
30.30796051808382
  0
LWPOLYLINE
  5
39
330
17
100
AcDbEntity
  8
ENG_L
100
AcDbPolyline
 90
4
 70
1
 10
232.02865530212537
 20
8.48528137423854
 10
231.22391744800106
 20
7.680543520114269
 10
231.22391744800106
 20
9.290019228363144
 10
232.02865530212537
 20
8.48528137423854
  0
LWPOLYLINE
  5
3A
330
17
100
AcDbEntity
  8
ENG_L
100
AcDbPolyline
 90
5
 70
1
 10
230.38256907506664
 20
34.90380328178133
 10
231.95171710458067
 20
32.07933682865605
 10
231.5626253731882
 20
30.912061634478572
 10
230.03110840641898
 20
32.443578601247914
 10
230.38256907506664
 20
34.90380328178133
  0
LWPOLYLINE
  5
3B
330
17
100
AcDbEntity
  8
ENG_L
100
AcDbPolyline
 90
5
 70
1
 10
230.2877900675981
 20
7.3977194840195715
 10
228.55372321006504
 20
7.050906112513022
 10
227.91740414128466
 20
7.687225181293278
 10
229.65147099881779
 20
8.034038552800048
 10
230.2877900675981
 20
7.3977194840195715
  0
LWPOLYLINE
  5
3C
330
17
100
AcDbEntity
  8
ENG_L
100
AcDbPolyline
 90
11
 70
1
 10
210.15016423966375
 20
2.355643564153742
 10
209.71391794467053
 20
2.791889859146912
 10
210.5429768081665
 20
4.173654631640211
 10
212.06066945375815
 20
5.185449728701275
 10
215.05809255364827
 20
5.185449728701275
 10
215.53687865546553
 20
4.7066636268841
 10
221.66513742574892
 20
4.2352591060930145
 10
222.14264040368704
 20
3.7577561281549876
 10
228.1665991681075
 20
2.897190590380516
 10
228.14816547125167
 20
2.609136539246548
 10
210.15016423966375
 20
2.355643564153742
  0
LWPOLYLINE
  5
3D
330
17
100
AcDbEntity
  8
ENG_L
100
AcDbPolyline
 90
4
 70
1
 10
226.0384677192997
 20
40.87412212136199
 10
226.84320557342406
 20
40.069384267237716
 10
226.0384677192997
 20
39.26464641311345
 10
226.0384677192997
 20
40.87412212136199
  0
LWPOLYLINE
  5
3E
330
17
100
AcDbEntity
  8
ENG_L
100
AcDbPolyline
 90
5
 70
1
 10
226.33783098157016
 20
8.519251445301412
 10
226.94621123821574
 20
7.910871188655855
 10
225.7391044570292
 20
7.508502261593719
 10
225.13072420038367
 20
8.116882518239276
 10
226.33783098157016
 20
8.519251445301412
  0
LWPOLYLINE
  5
3F
330
17
100
AcDbEntity
  8
ENG_L
100
AcDbPolyline
 90
5
 70
1
 10
226.32597825640974
 20
37.94806392367811
 10
225.33136093811316
 20
37.94806392367811
 10
225.33136093811316
 20
39.224206298593465
 10
225.9475183075411
 20
39.840363668021354
 10
226.32597825640974
 20
37.94806392367811
  0
LWPOLYLINE
  5
40
330
17
100
AcDbEntity
  8
ENG_L
100
AcDbPolyline
 90
4
 70
1
 10
224.95758749025993
 20
32.99831645537221
 10
224.15284963613558
 20
32.19357860124794
 10
224.15284963613558
 20
33.80305430949648
 10
224.95758749025993
 20
32.99831645537221
  0
LWPOLYLINE
  5
41
330
17
100
AcDbEntity
  8
ENG_L
100
AcDbPolyline
 90
4
 70
1
 10
222.73863607376248
 20
7.680543520114269
 10
222.73863607376248
 20
9.290019228363144
 10
223.54337392788682
 20
8.48528137423854
 10
222.73863607376248
 20
7.680543520114269
  0
LWPOLYLINE
  5
42
330
17
100
AcDbEntity
  8
ENG_L
100
AcDbPolyline
 90
4
 70
1
 10
219.43880442822524
 20
25.59391531017352
 10
219.43880442822524
 20
27.203391018422064
 10
220.2435422823496
 20
26.39865316429779
 10
219.43880442822524
 20
25.59391531017352
  0
LWPOLYLINE
  5
43
330
17
100
AcDbEntity
  8
ENG_L
100
AcDbPolyline
 90
4
 70
1
 10
218.02459086585216
 20
10.232828269945205
 10
218.82932871997647
 20
9.4280904158206
 10
218.02459086585216
 20
8.62335256169633
 10
218.02459086585216
 20
10.232828269945205
  0
LWPOLYLINE
  5
44
330
17
100
AcDbEntity
  8
ENG_L
100
AcDbPolyline
 90
4
 70
1
 10
196.33998290946468
 20
136.84538221685705
 10
196.33998290946468
 20
138.45485792510559
 10
197.14472076358905
 20
137.65012007098133
 10
196.33998290946468
 20
136.84538221685705
  0
LWPOLYLINE
  5
45
330
17
100
AcDbEntity
  8
ENG_L
100
AcDbPolyline
 90
4
 70
1
 10
195.86857838867365
 20
137.51204888352353
 10
196.673316242798
 20
136.70731102939925
 10
195.86857838867365
 20
135.90257317527465
 10
195.86857838867365
 20
137.51204888352353
  0
LWPOLYLINE
  5
46
330
17
100
AcDbEntity
  8
ENG_L
100
AcDbPolyline
 90
10
 70
1
 10
195.1836576699039
 20
132.90776588713405
 10
193.69874005565487
 20
130.43290319671885
 10
192.39670548461592
 20
129.1308686256799
 10
191.25864481593652
 20
129.51022218190633
 10
192.26544609268336
 20
131.02042409702662
 10
191.7640088890121
 20
131.52186130069788
 10
192.80444900353194
 20
132.56230141521775
 10
193.25035190975476
 20
132.11639850899505
 10
194.77141760019782
 20
134.1444860962524
 10
195.1836576699039
 20
132.90776588713405
  0
LWPOLYLINE
  5
47
330
17
100
AcDbEntity
  8
ENG_L
100
AcDbPolyline
 90
5
 70
1
 10
190.98249192224284
 20
128.18805958409786
 10
189.77538514105626
 20
128.59042851115998
 10
190.85516991849286
 20
129.6702132885966
 10
192.06227669967942
 20
129.2678443615345
 10
190.98249192224284
 20
128.18805958409786
  0
LWPOLYLINE
  5
48
330
17
100
AcDbEntity
  8
ENG_L
100
AcDbPolyline
 90
4
 70
1
 10
189.74031961839026
 20
129.0267675092852
 10
190.54505747251457
 20
128.2220296551606
 10
189.74031961839026
 20
127.41729180103634
 10
189.74031961839026
 20
129.0267675092852
  0
LWPOLYLINE
  5
49
330
17
100
AcDbEntity
  8
ENG_L
100
AcDbPolyline
 90
4
 70
1
 10
186.91189249364407
 20
129.77431440499154
 10
186.91189249364407
 20
131.38379011324008
 10
187.71663034776842
 20
130.57905225911583
 10
186.91189249364407
 20
129.77431440499154
  0
LWPOLYLINE
  5
4A
330
17
100
AcDbEntity
  8
ENG_L
100
AcDbPolyline
 90
19
 70
1
 10
184.3191676292934
 20
142.2665342059538
 10
183.77546150499722
 20
142.81024033025002
 10
180.00422533866893
 20
141.86743128866797
 10
178.63698391036837
 20
143.23467271696856
 10
179.1506573517843
 20
145.28936648263235
 10
180.0765269421741
 20
146.6781708682171
 10
180.0765269421741
 20
147.6648931661113
 10
182.38841441893598
 20
149.46302787025934
 10
183.29458142384632
 20
149.1609722019559
 10
184.96271364261614
 20
146.5396215724606
 10
186.1747530295773
 20
145.73159531448644
 10
186.61252923137357
 20
146.16937151628272
 10
187.75058990005297
 20
145.7900179600563
 10
186.67619023324855
 20
144.17841845984958
 10
186.67619023324855
 20
142.30852352298794
 10
186.16279639542344
 20
141.28173584733773
 10
185.32563767275045
 20
140.44457712466462
 10
184.3191676292934
 20
140.78006713915025
 10
184.3191676292934
 20
142.2665342059538
  0
LWPOLYLINE
  5
4B
330
17
100
AcDbEntity
  8
ENG_L
100
AcDbPolyline
 90
5
 70
1
 10
187.20884477133853
 20
128.28143489875708
 10
185.7333811916665
 20
129.01916668859326
 10
185.7333811916665
 20
130.27753231569295
 10
186.86958314268037
 20
130.65626629936432
 10
187.20884477133853
 20
128.28143489875708
  0
LWPOLYLINE
  5
4C
330
17
100
AcDbEntity
  8
ENG_L
100
AcDbPolyline
 90
5
 70
1
 10
185.40672951951237
 20
149.67761701233172
 10
185.78518946838102
 20
147.7853172679885
 10
184.79057215008444
 20
147.7853172679885
 10
184.79057215008444
 20
149.06145964290386
 10
185.40672951951237
 20
149.67761701233172
  0
LWPOLYLINE
  5
4D
330
17
100
AcDbEntity
  8
ENG_L
100
AcDbPolyline
 90
10
 70
1
 10
177.2480998174279
 20
131.9219009192828
 10
177.2480998174279
 20
129.40054095713828
 10
176.30529077584586
 20
129.40054095713828
 10
176.30529077584586
 20
139.95150091903275
 10
175.80317090071873
 20
140.95574066928697
 10
177.40078815877288
 20
143.83145173378452
 10
177.70893225438314
 20
141.0581548732921
 10
178.19090885901
 20
140.5761782686653
 10
178.19090885901
 20
133.33611448165584
 10
177.2480998174279
 20
131.9219009192828
  0
LWPOLYLINE
  5
4E
330
17
100
AcDbEntity
  8
ENG_L
100
AcDbPolyline
 90
30
 70
1
 10
171.59124556793554
 20
143.37833922267984
 10
172.5340546095176
 20
141.96412566030682
 10
172.5340546095176
 20
140.0785075771427
 10
173.47686365109965
 20
138.66429401476955
 10
173.47686365109965
 20
137.27634662312803
 10
173.94826817189067
 20
136.80494210233707
 10
173.94826817189067
 20
134.58599068583965
 10
172.5857261060601
 20
134.58599068583965
 10
172.08123176844146
 20
136.60396803631426
 10
170.64843652635346
 20
138.51436169243158
 10
170.64843652635346
 20
139.47314401604626
 10
168.76281844318936
 20
142.77297566158342
 10
168.76281844318936
 20
143.87600991420257
 10
169.13659189104257
 20
144.24978336205575
 10
168.7162783131987
 20
144.67009693989962
 10
167.77346927161662
 20
144.19869241910854
 10
166.900071959596
 20
145.07208973112918
 10
166.38046636980152
 20
147.15051209030705
 10
167.69950672909872
 20
148.46955244960435
 10
169.58512481226285
 20
148.94095697039532
 10
170.5428211682615
 20
149.89865332639397
 10
176.43192139996506
 20
150.38941167903596
 10
177.3091936247665
 20
148.92729130436678
 10
176.7766952966369
 20
148.39479297623726
 10
176.7766952966369
 20
144.04535987544566
 10
174.8277607155857
 20
143.7669406495812
 10
172.92689171017682
 20
145.1925924036378
 10
172.16028116166441
 20
145.1925924036378
 10
171.59124556793554
 20
144.6235568099089
 10
171.59124556793554
 20
143.37833922267984
  0
LWPOLYLINE
  5
4F
330
17
100
AcDbEntity
  8
ENG_L
100
AcDbPolyline
 90
4
 70
1
 10
176.06958851545033
 20
128.36010084261818
 10
176.06958851545033
 20
129.96957655086706
 10
176.87432636957467
 20
129.16483869674278
 10
176.06958851545033
 20
128.36010084261818
  0
LWPOLYLINE
  5
50
330
17
100
AcDbEntity
  8
ENG_L
100
AcDbPolyline
 90
43
 70
1
 10
124.95188894043561
 20
272.34449101346627
 10
124.40595897076436
 20
273.98228092248013
 10
125.91788375047966
 20
274.99023077562356
 10
126.31763337855307
 20
275.78973003177043
 10
126.2334059072048
 20
276.04241244581516
 10
125.86500705120551
 20
275.6740135898159
 10
125.36827306098178
 20
276.17074758003946
 10
125.89099159921496
 20
278.2616217329725
 10
128.58962717521177
 20
280.4695962951516
 10
130.93425271952896
 20
280.93852140401475
 10
131.42423022776015
 20
281.42849891224597
 10
133.35183762795833
 20
281.42849891224597
 10
136.18026475270452
 20
282.84271247461913
 10
137.27634662312792
 20
282.84271247461913
 10
137.76123118209236
 20
282.3578279156547
 10
139.53573815414538
 20
282.1043269196473
 10
139.53573815414538
 20
280.8594633185173
 10
139.31523753513352
 20
280.6389626995054
 10
141.82864815578222
 20
281.8956680098299
 10
148.0778577923729
 20
282.37637644341373
 10
149.4102073569025
 20
281.5769667046959
 10
149.92679931090058
 20
278.9940069347057
 10
148.58102822484423
 20
277.64823584864916
 10
146.40637903842583
 20
277.84593122923275
 10
147.54961500759293
 20
276.3216166036766
 10
147.54961500759293
 20
275.20260906902496
 10
146.70443703894858
 20
274.3574311003805
 10
145.29022347657548
 20
274.3574311003805
 10
144.81881895578445
 20
273.8860265795895
 10
141.56702824545908
 20
273.8860265795895
 10
141.09562372466806
 20
272.94321753800733
 10
140.3524031741249
 20
272.94321753800733
 10
139.40959413254285
 20
274.3574311003805
 10
138.2023958640397
 20
274.3574311003805
 10
133.98431807072964
 20
271.0767039278059
 10
132.09660881457364
 20
270.60477661376694
 10
130.13253148804233
 20
269.13171861886843
 10
129.1648386967427
 20
269.6155650145182
 10
128.24011502417758
 20
269.15320317823574
 10
127.31763924170836
 20
269.4606951057257
 10
126.85103013455765
 20
271.32713153432843
 10
125.74880299082764
 20
271.5475769630746
 10
124.95188894043561
 20
272.34449101346627
  0
LWPOLYLINE
  5
51
330
17
100
AcDbEntity
  8
ENG_L
100
AcDbPolyline
 90
4
 70
1
 10
138.49063942267097
 20
279.8143645870428
 10
137.85075680871066
 20
279.1744819730824
 10
138.02527024888164
 20
279.1163108263588
 10
138.49063942267097
 20
279.8143645870428
  0
LWPOLYLINE
  5
52
330
17
100
AcDbEntity
  8
ENG_L
100
AcDbPolyline
 90
5
 70
1
 10
136.7073110293992
 20
277.5919769992861
 10
136.37535387238228
 20
278.14523892764754
 10
136.27197123779294
 20
277.4215604855224
 10
136.7073110293992
 20
277.4215604855224
 10
136.7073110293992
 20
277.5919769992861
  0
LWPOLYLINE
  5
53
330
17
100
AcDbEntity
  8
ENG_L
100
AcDbPolyline
 90
11
 70
1
 10
135.36861110691305
 20
78.27526788436212
 10
133.878883904653
 20
76.2889649480154
 10
133.878883904653
 20
73.7748075037965
 10
132.97854749051461
 20
73.7748075037965
 10
132.47839199343107
 20
76.27558498921428
 10
131.51382136694
 20
77.72244092895086
 10
131.79120266988411
 20
80.21887265544825
 10
133.55873620840433
 20
79.62969480927472
 10
134.38692240923046
 20
78.38741550803552
 10
134.82169294623503
 20
78.8221860450401
 10
135.36861110691305
 20
78.27526788436212
  0
LWPOLYLINE
  5
54
330
17
100
AcDbEntity
  8
ENG_L
100
AcDbPolyline
 90
6
 70
1
 10
132.1604223890057
 20
81.98141749890509
 10
133.1367116008004
 20
81.65598776164018
 10
132.05692682336385
 20
80.57620298420365
 10
131.0250064951887
 20
80.92017642692872
 10
131.3952368129232
 20
83.51178865107023
 10
132.1604223890057
 20
81.98141749890509
  0
LWPOLYLINE
  5
55
330
17
100
AcDbEntity
  8
ENG_L
100
AcDbPolyline
 90
18
 70
1
 10
107.33584563719583
 20
277.6926413765333
 10
106.38254308576296
 20
278.01040889367766
 10
108.3077616234192
 20
280.48568987066403
 10
108.79681322979062
 20
280.48568987066403
 10
111.15383583374577
 20
282.84271247461913
 10
117.47735674990457
 20
282.84271247461913
 10
118.31068374984369
 20
282.00938547468013
 10
118.77647287718682
 20
278.2830724559351
 10
119.71928191876889
 20
277.8116679351439
 10
120.21915431346028
 20
273.8126887776129
 10
117.44000191144133
 20
270.5282359388632
 10
116.4961094992165
 20
271.00018214497544
 10
113.64704580454001
 20
267.67627450118624
 10
111.79189548913573
 20
269.0013818693324
 10
110.2986676816586
 20
270.99235227930166
 10
110.76213692326313
 20
274.70010621213794
 10
108.73603992994161
 20
275.8257156528723
 10
107.33584563719583
 20
277.6926413765333
  0
LWPOLYLINE
  5
56
330
17
100
AcDbEntity
  8
ENG_L
100
AcDbPolyline
 90
4
 70
1
 10
116.67261889578035
 20
269.7814570799284
 10
116.67261889578035
 20
271.3909327881767
 10
117.4773567499047
 20
270.58619493405223
 10
116.67261889578035
 20
269.7814570799284
  0
LWPOLYLINE
  5
57
330
17
100
AcDbEntity
  8
ENG_L
100
AcDbPolyline
 90
4
 70
1
 10
115.6947443315322
 20
268.33217799488887
 10
114.31559629182519
 20
266.95302995518165
 10
114.31559629182519
 20
268.7918940081242
 10
115.6947443315322
 20
268.33217799488887
  0
LWPOLYLINE
  5
58
330
17
100
AcDbEntity
  8
ENG_L
100
AcDbPolyline
 90
44
 70
1
 10
107.0088262195642
 20
180.1478918443803
 10
107.0088262195642
 20
182.48701319491812
 10
109.9297033770146
 20
188.59430179685975
 10
110.29008487766123
 20
186.79239429362647
 10
111.22177597587127
 20
185.8607031954166
 10
111.74164962091793
 20
184.30108226027653
 10
110.79134536861828
 20
182.40047375567724
 10
111.27162860603597
 20
179.9990575685888
 10
110.78006238589244
 20
179.50749134844534
 10
110.78006238589244
 20
177.15046874449015
 10
110.30865786510141
 20
176.67906422369916
 10
110.30865786510141
 20
174.79344614053505
 10
109.83725334431038
 20
174.32204161974397
 10
109.83725334431038
 20
172.38838260136814
 10
108.83442413456443
 20
171.88696799649506
 10
108.42303978193729
 20
171.06419929124084
 10
108.42303978193729
 20
170.1056671033563
 10
107.48023074035522
 20
168.69145354098325
 10
107.48023074035522
 20
167.27723997861023
 10
106.54953799446295
 20
165.88120085977175
 10
106.98588718453107
 20
163.2631057193632
 10
107.96309630624049
 20
162.77450115850846
 10
107.47526894806029
 20
156.43274550216603
 10
106.58421776650724
 20
154.9476601995775
 10
105.96838610504427
 20
155.56349186104057
 10
105.22083920933792
 20
155.56349186104057
 10
104.75584776292487
 20
155.09850041462747
 10
100.93538449984786
 20
154.84380286375577
 10
100.3838334590571
 20
157.05000702691873
 10
101.35197197007182
 20
158.01814553793346
 10
101.35197197007182
 20
158.92440009715114
 10
103.72078753258833
 20
163.1882681096809
 10
104.19897208225818
 20
165.57919085803007
 10
104.65180361560904
 20
166.03202239138105
 10
104.65180361560904
 20
167.44623595375418
 10
105.12320813640007
 20
167.91764047454515
 10
105.12320813640007
 20
168.6651873702516
 10
104.64073506809011
 20
169.14766043856167
 10
105.11213958888115
 20
173.39030112568088
 10
104.65180361560904
 20
173.85063709895297
 10
104.65180361560904
 20
176.0695885154504
 10
106.06601717798213
 20
176.0695885154504
 10
106.06601717798213
 20
178.73367828200725
 10
107.0088262195642
 20
180.1478918443803
  0
LWPOLYLINE
  5
59
330
17
100
AcDbEntity
  8
ENG_L
100
AcDbPolyline
 90
7
 70
1
 10
108.42303978193729
 20
198.83507670087764
 10
106.35731755752539
 20
196.7693544764657
 10
106.06059652152044
 20
199.43984380051018
 10
106.99237113451593
 20
201.61398456416634
 10
107.64738730787207
 20
200.303952217454
 10
108.42303978193729
 20
200.0454013927657
 10
108.42303978193729
 20
198.83507670087764
  0
LWPOLYLINE
  5
5A
330
17
100
AcDbEntity
  8
ENG_L
100
AcDbPolyline
 90
11
 70
1
 10
106.53742169877316
 20
189.13084391014158
 10
107.67593417981458
 20
190.26935639118304
 10
107.95594818491467
 20
186.6291743248817
 10
106.53742169877316
 20
183.7921213525987
 10
106.53742169877316
 20
181.72644276494287
 10
105.26127932385778
 20
181.72644276494287
 10
104.59070980827047
 20
182.39701228053008
 10
106.06601717798213
 20
184.8558578967161
 10
106.06601717798213
 20
187.24522582697745
 10
106.53742169877316
 20
187.71663034776853
 10
106.53742169877316
 20
189.13084391014158
  0
LWPOLYLINE
  5
5B
330
17
100
AcDbEntity
  8
ENG_L
100
AcDbPolyline
 90
25
 70
1
 10
100.54161997816391
 20
132.49949631901626
 10
97.84603879338488
 20
131.42126384510476
 10
97.5765814480311
 20
134.3852946439962
 10
98.52354484532562
 20
136.75270313723243
 10
98.52354484532562
 20
141.00559347242225
 10
99.4663538869077
 20
142.89121155558638
 10
99.4663538869077
 20
144.19414160615196
 10
98.52354484532562
 20
146.0797596893161
 10
98.52354484532562
 20
147.20435450840452
 10
99.97542761210838
 20
148.1722763529263
 10
100.3061572636981
 20
149.16446530769545
 10
100.97819852221859
 20
148.49242404917507
 10
102.36614591386
 20
148.49242404917507
 10
103.7803594762331
 20
147.5496150075929
 10
104.74943468854684
 20
147.5496150075929
 10
105.63547642312568
 20
146.66357327301415
 10
104.65180361560904
 20
144.20439125422257
 10
104.65180361560904
 20
142.2665342059538
 10
104.18039909481801
 20
141.79512968516283
 10
104.18039909481801
 20
139.0189415255212
 10
103.23759005323593
 20
136.6619189215661
 10
103.23759005323593
 20
133.70899932728486
 10
102.2311200097789
 20
133.37350931279923
 10
101.82337649086286
 20
133.78125283171528
 10
100.54161997816391
 20
132.49949631901626
  0
LWPOLYLINE
  5
5C
330
17
100
AcDbEntity
  8
ENG_L
100
AcDbPolyline
 90
8
 70
1
 10
102.29478101165387
 20
170.34691658293067
 10
103.45949669043023
 20
170.7351551425229
 10
103.71110646536582
 20
164.94813031900412
 10
102.89739790034635
 20
163.04947700062533
 10
101.82337649086284
 20
163.4074841371198
 10
101.82337649086284
 20
168.38904499533612
 10
102.29478101165387
 20
168.86044951612723
 10
102.29478101165387
 20
170.34691658293067
  0
LWPOLYLINE
  5
5D
330
17
100
AcDbEntity
  8
ENG_L
100
AcDbPolyline
 90
26
 70
1
 10
93.83163000717153
 20
149.55499453345112
 10
94.65467760605951
 20
150.37804213233917
 10
96.2641533143083
 20
150.37804213233917
 10
97.06734196591844
 20
149.57485348072896
 10
97.58073580374356
 20
148.54806580507883
 10
97.58073580374356
 20
146.03777037228204
 10
96.4931739135246
 20
144.9502084820631
 10
96.18509522881065
 20
146.490601905633
 10
95.67300028752862
 20
147.00269684691492
 10
93.78738220436448
 20
145.5884832845419
 10
92.88526358327343
 20
146.490601905633
 10
92.66638219164079
 20
147.5850088637961
 10
91.48787088966321
 20
147.8207111241916
 10
90.9996455001093
 20
150.26183807196125
 10
90.52024007571389
 20
150.74124349635653
 10
90.02719492356815
 20
155.17864986566832
 10
91.81277044314007
 20
156.96422538524035
 10
93.29380794249897
 20
157.17580217086302
 10
93.02731602605542
 20
158.50826175308075
 10
94.24248553007651
 20
158.1032052517405
 10
94.77763814843001
 20
155.9625947783264
 10
94.26742412003304
 20
155.4523807499294
 10
94.01783297074864
 20
153.70524270493868
 10
92.39528607504222
 20
153.47345029126623
 10
92.39528607504222
 20
151.40172244618887
 10
93.83163000717153
 20
149.55499453345112
  0
LWPOLYLINE
  5
5E
330
17
100
AcDbEntity
  8
ENG_L
100
AcDbPolyline
 90
17
 70
1
 10
90.98107251266912
 20
179.19900364722375
 10
91.79042920211396
 20
180.5479314629651
 10
92.52873842717945
 20
180.5479314629651
 10
93.33809511662427
 20
179.19900364722375
 10
93.33809511662427
 20
177.19245806152418
 10
92.9348602623981
 20
176.38598835307184
 10
94.28090415820634
 20
175.48862575586634
 10
94.28090415820634
 20
172.00157349815314
 10
92.97773215604512
 20
169.655863894263
 10
91.92388155425118
 20
170.00714742819423
 10
91.92388155425118
 20
172.58969636542142
 10
92.27392229520241
 20
173.2897778473238
 10
90.86996140155799
 20
173.49034368927298
 10
90.03826347108705
 20
174.32204161974397
 10
90.03826347108705
 20
175.93151732799274
 10
90.98107251266912
 20
176.8743263695748
 10
90.98107251266912
 20
179.19900364722375
  0
LWPOLYLINE
  5
5F
330
17
100
AcDbEntity
  8
ENG_L
100
AcDbPolyline
 90
7
 70
1
 10
91.92388155425118
 20
160.2218953130471
 10
90.93908319563502
 20
158.25229859581492
 10
89.76656358402889
 20
157.07977898420867
 10
90.04393251109107
 20
161.7950507442657
 10
90.9810725126691
 20
162.73219074584378
 10
91.92388155425118
 20
161.7893817042617
 10
91.92388155425118
 20
160.2218953130471
  0
LWPOLYLINE
  5
60
330
17
100
AcDbEntity
  8
ENG_L
100
AcDbPolyline
 90
7
 70
1
 10
87.98597872125626
 20
149.64233987194376
 10
87.67025453601711
 20
151.85240916861764
 10
89.17269045006861
 20
153.95581944828984
 10
89.6008290213588
 20
152.67140373441933
 10
89.095454429505
 20
152.1660291425655
 10
89.095454429505
 20
150.75181558019236
 10
87.98597872125626
 20
149.64233987194376
  0
LWPOLYLINE
  5
61
330
17
100
AcDbEntity
  8
ENG_L
100
AcDbPolyline
 90
32
 70
1
 10
81.12837364379152
 20
169.37865010465237
 10
81.56167603471378
 20
169.81195249557456
 10
81.85891193800278
 20
173.08154743175365
 10
83.4386001800126
 20
170.23810859613587
 10
83.4386001800126
 20
169.33185403691832
 10
85.42184933611458
 20
167.34860488081625
 10
86.36465837769663
 20
167.34860488081625
 10
87.20983634634086
 20
166.50342691217202
 10
87.20983634634086
 20
165.36535572471433
 10
86.83606289848764
 20
164.99158227686118
 10
87.20983634634086
 20
164.61780882900788
 10
87.20983634634086
 20
163.52172695858425
 10
86.65386636960501
 20
162.40978700511266
 10
83.69230527422162
 20
162.1819746131601
 10
84.38140922159468
 20
161.83742263947343
 10
84.38140922159468
 20
161.14898120832677
 10
83.50619857007018
 20
159.83616523103993
 10
84.24333803413688
 20
159.0990257669732
 10
82.6338623258882
 20
159.0990257669732
 10
81.45535102391068
 20
160.27753706895086
 10
81.9267555447017
 20
160.74894158974183
 10
81.45535102391068
 20
161.22034611053294
 10
82.02438661763951
 20
161.7893817042617
 10
82.02438661763951
 20
162.53692859996815
 10
81.08157757605746
 20
163.47973764155023
 10
81.08157757605746
 20
165.1372542850108
 10
81.82518940909756
 20
165.5090602015309
 10
79.66736401368436
 20
167.2353205178615
 10
79.66736401368436
 20
171.3555433075401
 10
80.61017305526643
 20
171.3555433075401
 10
80.61017305526643
 20
170.2423177521941
 10
81.12837364379152
 20
169.37865010465237
  0
LWPOLYLINE
  5
62
330
17
100
AcDbEntity
  8
ENG_L
100
AcDbPolyline
 90
13
 70
1
 10
77.24679197469669
 20
155.7301809157954
 10
78.25315045131126
 20
154.22064320087358
 10
78.25315045131126
 20
149.06145964290386
 10
79.4736947070789
 20
147.84091538713616
 10
76.94714004571176
 20
147.5601870914287
 10
76.45997196736262
 20
147.07301901307957
 10
71.54809975534074
 20
147.33153860318603
 10
72.59629620181889
 20
149.95202971938127
 10
72.59629620181889
 20
151.41848224685904
 10
73.07955169131516
 20
151.9017377363553
 10
73.55373967799142
 20
155.69524162976535
 10
75.42472332656507
 20
157.03165852160384
 10
77.24679197469669
 20
155.7301809157954
  0
LWPOLYLINE
  5
63
330
17
100
AcDbEntity
  8
ENG_L
100
AcDbPolyline
 90
6
 70
1
 10
69.94822118688306
 20
159.3661306246955
 10
68.51188840150978
 20
159.07886406762074
 10
67.78461992097077
 20
159.80613254815978
 10
68.74759066190529
 20
160.76910328909432
 10
70.3116107366966
 20
160.4562992741361
 10
69.94822118688306
 20
159.3661306246955
  0
LWPOLYLINE
  5
64
330
17
100
AcDbEntity
  8
ENG_L
100
AcDbPolyline
 90
7
 70
1
 10
67.52240560979709
 20
169.1711709245507
 10
67.90241269326104
 20
167.27113550723104
 10
67.41084647311753
 20
166.77956928708747
 10
67.41084647311753
 20
165.69868905804773
 10
66.46803743153546
 20
165.69868905804773
 10
66.46803743153546
 20
167.41389062744804
 10
67.52240560979709
 20
169.1711709245507
  0
LWPOLYLINE
  5
65
330
17
100
AcDbEntity
  8
ENG_L
100
AcDbPolyline
 90
13
 70
1
 10
65.99663291074444
 20
158.7656924336399
 10
65.99663291074444
 20
156.43493600041646
 10
65.05382386916237
 20
155.02072243804332
 10
65.05382386916237
 20
153.62223202197256
 10
64.1110148275803
 20
151.73661393880843
 10
64.1110148275803
 20
149.84135186491642
 10
62.86809292713306
 20
147.7698153641711
 10
63.171034943227944
 20
152.3139456055942
 10
64.58768185064834
 20
156.09167069204855
 10
65.07671557954068
 20
160.00394052318723
 10
66.5455068051208
 20
160.29769876830323
 10
67.0370730252643
 20
159.80613254815978
 10
65.99663291074444
 20
158.7656924336399
  0
LWPOLYLINE
  5
66
330
17
100
AcDbEntity
  8
ENG_L
100
AcDbPolyline
 90
5
 70
1
 10
66.97550668151129
 20
162.87026193330155
 10
65.99663291074444
 20
162.87026193330155
 10
65.99663291074444
 20
164.61780882900788
 10
66.63470409820212
 20
165.25588001646574
 10
66.97550668151129
 20
162.87026193330155
  0
LWPOLYLINE
  5
67
330
17
100
AcDbEntity
  8
ENG_L
100
AcDbPolyline
 90
5
 70
1
 10
65.52522838995341
 20
161.45604837092841
 10
65.52522838995341
 20
162.73219074584378
 10
66.14138575938132
 20
163.34834811527188
 10
66.51984570824997
 20
161.45604837092841
 10
65.52522838995341
 20
161.45604837092841
  0
LWPOLYLINE
  5
68
330
17
100
AcDbEntity
  8
ENG_D
100
AcDbPolyline
 90
20
 70
1
 10
241.83051916579925
 20
8.547875512337711
 10
241.83051916579925
 20
6.682343179669092
 10
243.71613724896338
 20
4.325320575713998
 10
243.71613724896338
 20
3.2022005725994562
 10
242.7478265928131
 20
2.2338899164491277
 10
241.28857975647452
 20
4.1795523649005295
 10
239.5252864222213
 20
3.297905697773884
 10
231.78144757412454
 20
3.564934623570326
 10
234.68636921627993
 20
5.178779980323234
 10
236.6450694370979
 20
5.396413338191963
 10
236.6450694370979
 20
6.6972943640122296
 10
237.11647395788893
 20
7.168698884803315
 10
237.11647395788893
 20
9.801863863673876
 10
236.6424163934881
 20
10.275921428074653
 10
236.89566251353276
 20
19.646027869726357
 10
238.04365824797694
 20
18.498032135282116
 10
238.51916361209788
 20
15.64499995055646
 10
239.45977491069294
 20
14.234083002663933
 10
239.93282261650526
 20
11.868844473602259
 10
241.83051916579925
 20
8.547875512337711
  0
LWPOLYLINE
  5
69
330
17
100
AcDbEntity
  8
ENG_D
100
AcDbPolyline
 90
4
 70
1
 10
233.5809400519562
 20
7.404401145198691
 10
234.38567790608056
 20
6.59966329107442
 10
233.5809400519562
 20
5.794925436950149
 10
233.5809400519562
 20
7.404401145198691
  0
LWPOLYLINE
  5
6A
330
17
100
AcDbEntity
  8
ENG_D
100
AcDbPolyline
 90
24
 70
1
 10
214.48905695991942
 20
9.054316967967434
 10
216.2770439701457
 20
10.842303978193746
 10
217.44362810626825
 20
10.842303978193746
 10
218.3864371478503
 20
9.4280904158206
 10
221.14436200689772
 20
9.4280904158206
 10
223.0399689926438
 20
8.480286922947556
 10
228.26611307366247
 20
8.005182915582276
 10
228.7473966440284
 20
7.523899345216245
 10
233.3452377915607
 20
6.604331115709794
 10
233.3452377915607
 20
6.594995466439046
 10
231.10441924798354
 20
6.146831757723681
 10
230.06556784537597
 20
5.10798035511606
 10
230.3269502454192
 20
3.8010683548997948
 10
225.91096861567777
 20
3.3104037293729682
 10
225.4146942714465
 20
2.814129385141695
 10
221.92041818146484
 20
3.313311683710518
 10
221.46249369884708
 20
3.77123616632824
 10
218.63406657410087
 20
3.77123616632824
 10
218.16266205330984
 20
4.242640687119326
 10
215.3342349285637
 20
4.242640687119326
 10
214.85544882674643
 20
4.7214267889365
 10
211.36729532277607
 20
4.989746289242092
 10
214.48905695991942
 20
8.111507926385375
 10
214.48905695991942
 20
9.054316967967434
  0
LWPOLYLINE
  5
6B
330
17
100
AcDbEntity
  8
ENG_D
100
AcDbPolyline
 90
7
 70
1
 10
229.1025971044414
 20
31.957876340852344
 10
229.1025971044414
 20
33.53500672279497
 10
230.20255476150976
 20
35.3682694845755
 10
230.50623858297868
 20
32.63511509135486
 10
232.26435756252087
 20
30.876996111812606
 10
230.18347733348116
 20
30.876996111812606
 10
229.1025971044414
 20
31.957876340852344
  0
LWPOLYLINE
  5
6C
330
17
100
AcDbEntity
  8
ENG_D
100
AcDbPolyline
 90
5
 70
1
 10
226.50319057891156
 20
2.973179973383089
 10
228.23725743644465
 20
3.319993344889638
 10
228.87357650522506
 20
2.6836742761092713
 10
227.13950964769194
 20
2.336860904602722
 10
226.50319057891156
 20
2.973179973383089
  0
LWPOLYLINE
  5
6D
330
17
100
AcDbEntity
  8
ENG_D
100
AcDbPolyline
 90
27
 70
1
 10
219.43880442822524
 20
26.870057685088877
 10
219.43880442822524
 20
25.899609014323755
 10
214.85225832393687
 20
26.409225248133495
 10
213.99232296969575
 20
27.26916060237472
 10
214.51192855949023
 20
29.347582961552597
 10
215.9452598393266
 20
30.780914241388956
 10
216.84607956387458
 20
32.58255369048491
 10
216.84607956387458
 20
33.55691291710205
 10
219.67450668862077
 20
36.85674456263921
 10
219.67450668862077
 20
37.833658264442846
 10
221.5386041198239
 20
39.16515642958795
 10
222.4563936833763
 20
38.70626164781177
 10
223.7898253719901
 20
40.03969333642565
 10
225.1801041135708
 20
40.503119583619075
 10
226.14802595809257
 20
41.95500235040184
 10
226.93880413343808
 20
41.95500235040184
 10
227.24770831788214
 20
40.41048142818149
 10
226.21414981153126
 20
39.8937021750061
 10
225.8027654589042
 20
39.07093346975188
 10
225.8027654589042
 20
35.77110182421461
 10
224.41637277448297
 20
32.99831645537221
 10
226.39553375953503
 20
29.03999448526806
 10
224.48166439342384
 20
28.766584575823707
 10
222.5815012334988
 20
27.34146220587985
 10
221.6577558447227
 20
27.34146220587985
 10
221.18635132393166
 20
26.870057685088877
 10
219.43880442822524
 20
26.870057685088877
  0
LWPOLYLINE
  5
6E
330
17
100
AcDbEntity
  8
ENG_D
100
AcDbPolyline
 90
4
 70
1
 10
215.667568261897
 20
25.122510789382435
 10
215.667568261897
 20
26.73198649763131
 10
216.47230611602134
 20
25.927248643506708
 10
215.667568261897
 20
25.122510789382435
  0
LWPOLYLINE
  5
6F
330
17
100
AcDbEntity
  8
ENG_D
100
AcDbPolyline
 90
6
 70
1
 10
196.59787123227701
 20
137.15040657425325
 10
195.52131699159858
 20
135.3561495064558
 10
195.1800445949273
 20
137.0625114898123
 10
194.44768316512142
 20
137.79487291961823
 10
196.26208874515325
 20
138.15775403562446
 10
196.59787123227701
 20
137.15040657425325
  0
LWPOLYLINE
  5
70
330
17
100
AcDbEntity
  8
ENG_D
100
AcDbPolyline
 90
6
 70
1
 10
193.3190675660931
 20
134.08075634595895
 10
194.7675364602814
 20
134.37045012479655
 10
195.2369852473741
 20
133.9010013377039
 10
193.62940691491627
 20
131.75756356109346
 10
192.73826936987672
 20
131.75756356109346
 10
193.3190675660931
 20
134.08075634595895
  0
LWPOLYLINE
  5
71
330
17
100
AcDbEntity
  8
ENG_D
100
AcDbPolyline
 90
7
 70
1
 10
189.2689150975992
 20
127.51492287397414
 10
189.2689150975992
 20
129.63624321753375
 10
189.8783908058479
 20
129.63624321753375
 10
191.79797896007491
 20
131.55583137176075
 10
192.94603683901332
 20
131.17314541211468
 10
191.56083494350577
 20
129.2338627584041
 10
189.2689150975992
 20
127.51492287397414
  0
LWPOLYLINE
  5
72
330
17
100
AcDbEntity
  8
ENG_D
100
AcDbPolyline
 90
52
 70
1
 10
187.6189992748306
 20
130.9243127583043
 10
186.20478571245752
 20
129.98150371672213
 10
186.20478571245752
 20
129.23620359894895
 10
187.21519314409716
 20
127.72059245148937
 10
186.29134823787638
 20
126.7967475452686
 10
181.85394186856468
 20
127.28979269741436
 10
181.38850831700256
 20
127.7552262489765
 10
176.30529077584586
 20
127.99728422712676
 10
176.30529077584586
 20
129.2624697696806
 10
176.7766952966369
 20
129.73387429047156
 10
176.7766952966369
 20
132.06463072369513
 10
177.71950433821894
 20
133.47884428606815
 10
177.71950433821894
 20
140.3809161227897
 10
177.2480998174279
 20
140.85232064358067
 10
177.2480998174279
 20
142.73793872674477
 10
176.80217411523972
 20
142.29201302455664
 10
174.6131315430592
 20
143.8556148618284
 10
176.3119869548839
 20
144.42189999910326
 10
176.55221519401968
 20
150.42760597749805
 10
179.0562485270067
 20
149.92679931090058
 10
179.50749134844523
 20
150.37804213233917
 10
181.4193756023411
 20
150.37804213233917
 10
182.83358916471417
 20
151.32085117392114
 10
184.38445337592503
 20
151.32085117392114
 10
185.6778021943569
 20
150.5448418828621
 10
186.28531121807882
 20
149.32982383541827
 10
185.26197667087547
 20
148.81815656181652
 10
185.26197667087547
 20
148.11865060132178
 10
185.75354289101898
 20
147.62708438117832
 10
185.42750822744335
 20
145.99691106330027
 10
183.90807624313882
 20
146.90857025388294
 10
182.7939125067084
 20
148.91406497945758
 10
181.61806250829716
 20
148.52211497998712
 10
180.54793146296512
 20
147.4519839346552
 10
180.54793146296512
 20
146.55116421010717
 10
179.17229910452434
 20
143.7998994932257
 10
180.1750488652456
 20
142.39604982821587
 10
183.92006471200753
 20
143.33230378990635
 10
184.77709211191114
 20
142.47527639000268
 10
184.97765795386033
 20
141.07131549635832
 10
185.8710477214244
 20
141.51801038014034
 10
186.37467028982567
 20
140.0071426749364
 10
187.24522582697742
 20
140.0071426749364
 10
188.15800218567924
 20
139.0943663162346
 10
187.14759475403957
 20
137.57875516877516
 10
187.14759475403957
 20
136.60967995646146
 10
185.8310122646043
 20
135.29309746702612
 10
186.32098977283553
 20
134.80311995879478
 10
187.67191496701568
 20
134.53293491995888
 10
187.17292422347222
 20
132.53697194578507
 10
187.6189992748306
 20
132.09089689442678
 10
187.6189992748306
 20
130.9243127583043
  0
LWPOLYLINE
  5
73
330
17
100
AcDbEntity
  8
ENG_D
100
AcDbPolyline
 90
5
 70
1
 10
173.47686365109965
 20
135.39072853996393
 10
174.0277736654618
 20
135.9416385543263
 10
175.01282662691983
 20
133.6431816442576
 10
173.47686365109965
 20
133.6431816442576
 10
173.47686365109965
 20
135.39072853996393
  0
LWPOLYLINE
  5
74
330
17
100
AcDbEntity
  8
ENG_D
100
AcDbPolyline
 90
5
 70
1
 10
173.57986931589133
 20
138.3221613295017
 10
174.03958532912696
 20
136.94301328979475
 10
173.00545913030862
 20
136.94301328979475
 10
173.00545913030862
 20
137.74775114391912
 10
173.57986931589133
 20
138.3221613295017
  0
LWPOLYLINE
  5
75
330
17
100
AcDbEntity
  8
ENG_D
100
AcDbPolyline
 90
5
 70
1
 10
172.06265008872657
 20
139.77144041454105
 10
172.06265008872657
 20
141.51898731024738
 10
172.70072127618428
 20
142.15705849770498
 10
173.04152385949342
 20
139.77144041454105
 10
172.06265008872657
 20
139.77144041454105
  0
LWPOLYLINE
  5
76
330
17
100
AcDbEntity
  8
ENG_D
100
AcDbPolyline
 90
4
 70
1
 10
171.82694782833104
 20
149.10189975742384
 10
171.82694782833104
 20
150.71137546567272
 10
172.63168568245538
 20
149.9066376115481
 10
171.82694782833104
 20
149.10189975742384
  0
LWPOLYLINE
  5
77
330
17
100
AcDbEntity
  8
ENG_D
100
AcDbPolyline
 90
4
 70
1
 10
171.82694782833104
 20
144.38785454951352
 10
171.82694782833104
 20
145.99733025776206
 10
172.6316856824554
 20
145.1925924036378
 10
171.82694782833104
 20
144.38785454951352
  0
LWPOLYLINE
  5
78
330
17
100
AcDbEntity
  8
ENG_D
100
AcDbPolyline
 90
4
 70
1
 10
171.35554330754002
 20
145.52592573697132
 10
172.16028116166436
 20
144.72118788284672
 10
171.35554330754002
 20
143.91645002872244
 10
171.35554330754002
 20
145.52592573697132
  0
LWPOLYLINE
  5
79
330
17
100
AcDbEntity
  8
ENG_D
100
AcDbPolyline
 90
4
 70
1
 10
171.35554330754002
 20
142.50223646634942
 10
171.35554330754002
 20
144.11171217459795
 10
172.1602811616644
 20
143.30697432047367
 10
171.35554330754002
 20
142.50223646634942
  0
LWPOLYLINE
  5
7A
330
17
100
AcDbEntity
  8
ENG_D
100
AcDbPolyline
 90
4
 70
1
 10
170.41273426595797
 20
138.73100030002118
 10
170.41273426595797
 20
140.34047600826972
 10
171.2174721200823
 20
139.53573815414543
 10
170.41273426595797
 20
138.73100030002118
  0
LWPOLYLINE
  5
7B
330
17
100
AcDbEntity
  8
ENG_D
100
AcDbPolyline
 90
5
 70
1
 10
170.84907326408296
 20
149.53823875554883
 10
169.76928848664642
 20
148.4584539781122
 10
168.56218170545986
 20
148.86082290517433
 10
169.64196648289644
 20
149.94060768261096
 10
170.84907326408296
 20
149.53823875554883
  0
LWPOLYLINE
  5
7C
330
17
100
AcDbEntity
  8
ENG_D
100
AcDbPolyline
 90
4
 70
1
 10
169.94132974516694
 20
141.28328504985177
 10
170.74606759929128
 20
140.4785471957275
 10
169.94132974516694
 20
139.67380934160323
 10
169.94132974516694
 20
141.28328504985177
  0
LWPOLYLINE
  5
7D
330
17
100
AcDbEntity
  8
ENG_D
100
AcDbPolyline
 90
5
 70
1
 10
168.79935570878862
 20
145.25368621097635
 10
169.80325855770923
 20
144.24978336205575
 10
168.79935570878862
 20
143.24588051313515
 10
167.12618429392094
 20
144.24978336205575
 10
168.79935570878862
 20
145.25368621097635
  0
LWPOLYLINE
  5
7E
330
17
100
AcDbEntity
  8
ENG_D
100
AcDbPolyline
 90
5
 70
1
 10
150.44048226894355
 20
275.92071586125354
 10
150.05570881004806
 20
274.76639548456717
 10
148.90138843336157
 20
275.1511689434627
 10
149.28616189225704
 20
276.3054893201491
 10
150.44048226894355
 20
275.92071586125354
  0
LWPOLYLINE
  5
7F
330
17
100
AcDbEntity
  8
ENG_D
100
AcDbPolyline
 90
4
 70
1
 10
149.19953083036154
 20
277.79533393337516
 10
149.19953083036154
 20
279.40480964162373
 10
150.00426868448588
 20
278.6000717874999
 10
149.19953083036154
 20
277.79533393337516
  0
LWPOLYLINE
  5
80
330
17
100
AcDbEntity
  8
ENG_D
100
AcDbPolyline
 90
11
 70
1
 10
147.07821048680188
 20
275.39787121490053
 10
147.07821048680188
 20
276.1644817634126
 10
145.3930193312228
 20
278.4114033041851
 10
148.40381987350577
 20
278.13769416397747
 10
149.0668342347577
 20
278.8007085252293
 10
149.46920316181982
 20
277.5936017440428
 10
148.49242404917499
 20
276.61682263139807
 10
148.49242404917499
 20
275.20260906902496
 10
147.61327600946802
 20
274.3234610293179
 10
146.40616922828144
 20
274.72582995637976
 10
147.07821048680188
 20
275.39787121490053
  0
LWPOLYLINE
  5
81
330
17
100
AcDbEntity
  8
ENG_D
100
AcDbPolyline
 90
4
 70
1
 10
148.5900551221128
 20
282.37130795382814
 10
147.78531726798843
 20
281.5665700997034
 10
147.78531726798843
 20
283.176045807952
 10
148.5900551221128
 20
282.37130795382814
  0
LWPOLYLINE
  5
82
330
17
100
AcDbEntity
  8
ENG_D
100
AcDbPolyline
 90
11
 70
1
 10
139.06433363335435
 20
281.6954799464271
 10
137.41441781058575
 20
281.9311822068224
 10
137.41441781058575
 20
282.84271247461913
 10
139.7056227315135
 20
282.84271247461913
 10
140.11014833972803
 20
281.6291356499754
 10
140.40107782214216
 20
281.92006513238965
 10
142.33206350677938
 20
281.533867995462
 10
139.5595675690113
 20
279.99359247447984
 10
138.39229237483394
 20
280.3826842058725
 10
139.06433363335435
 20
281.0547254643927
 10
139.06433363335435
 20
281.6954799464271
  0
LWPOLYLINE
  5
83
330
17
100
AcDbEntity
  8
ENG_D
100
AcDbPolyline
 90
9
 70
1
 10
138.59292911256333
 20
82.81177449428955
 10
138.59292911256333
 20
85.22658719023902
 10
138.1215245917723
 20
85.69799171102999
 10
138.1215245917723
 20
86.94939543504054
 10
140.69485447221953
 20
87.23532097731234
 10
140.9457162933111
 20
83.97411730312221
 10
141.47244718025667
 20
82.920655529231
 10
140.53237503548965
 20
81.9805833844639
 10
138.59292911256333
 20
82.81177449428955
  0
LWPOLYLINE
  5
84
330
17
100
AcDbEntity
  8
ENG_D
100
AcDbPolyline
 90
4
 70
1
 10
138.3572268521678
 20
280.8190232039975
 10
139.16196470629217
 20
280.0142853498728
 10
138.3572268521678
 20
279.209547495749
 10
138.3572268521678
 20
280.8190232039975
  0
LWPOLYLINE
  5
85
330
17
100
AcDbEntity
  8
ENG_D
100
AcDbPolyline
 90
5
 70
1
 10
136.97807881246086
 20
278.9684706434994
 10
138.12152459177233
 20
280.11191642281074
 10
138.6268991836261
 20
279.6065418309568
 10
138.2705957902723
 20
278.5376316508954
 10
136.97807881246086
 20
278.9684706434994
  0
LWPOLYLINE
  5
86
330
17
100
AcDbEntity
  8
ENG_D
100
AcDbPolyline
 90
5
 70
1
 10
137.30046496363732
 20
276.95015596473115
 10
135.7645019878171
 20
276.95015596473115
 10
135.7645019878171
 20
278.69770286043763
 10
136.31541200217933
 20
279.2486128747995
 10
137.30046496363732
 20
276.95015596473115
  0
LWPOLYLINE
  5
87
330
17
100
AcDbEntity
  8
ENG_D
100
AcDbPolyline
 90
16
 70
1
 10
130.12622072576494
 20
81.6691861572264
 10
131.15346244469845
 20
82.69642787616004
 10
131.6709324991978
 20
81.14401771266199
 10
133.01563847470476
 20
81.59225303783091
 10
135.37489313364927
 20
78.70871956578762
 10
134.31365444165758
 20
77.64748087379591
 10
133.24608422940983
 20
79.2488361921676
 10
132.44658497326316
 20
79.64858582024104
 10
131.99326582148888
 20
79.49747943631613
 10
131.99326582148888
 20
77.83738768642401
 10
133.41876236658777
 20
74.98639459622613
 10
133.09240629724323
 20
73.35461424950329
 10
130.59488700610834
 20
75.29712925371935
 10
130.12112777649804
 20
78.61344386099123
 10
129.61608151818123
 20
79.11849011930805
 10
130.12622072576494
 20
81.6691861572264
  0
LWPOLYLINE
  5
88
330
17
100
AcDbEntity
  8
ENG_D
100
AcDbPolyline
 90
5
 70
1
 10
129.2186665365048
 20
270.15859364643677
 10
130.3853829525104
 20
268.9918772304316
 10
127.66406260895066
 20
268.6895083033691
 10
127.10208404706955
 20
269.25148686525046
 10
129.2186665365048
 20
270.15859364643677
  0
LWPOLYLINE
  5
89
330
17
100
AcDbEntity
  8
ENG_D
100
AcDbPolyline
 90
5
 70
1
 10
124.69988615400788
 20
274.5931333607758
 10
126.41364759256012
 20
276.9923993747492
 10
126.82659428623094
 20
275.75355929373677
 10
126.24638131975055
 20
274.5931333607758
 10
124.69988615400788
 20
274.5931333607758
  0
LWPOLYLINE
  5
8A
330
17
100
AcDbEntity
  8
ENG_D
100
AcDbPolyline
 90
8
 70
1
 10
113.16604065154283
 20
266.2581332982954
 10
110.76693746490469
 20
268.1241024434584
 10
111.08293100553979
 20
270.96804430917445
 10
112.82085722383084
 20
268.6508093514528
 10
113.54929664680697
 20
268.28658963996486
 10
116.36109935945133
 20
271.5670261380498
 10
117.558872176704
 20
271.16776853229885
 10
113.16604065154283
 20
266.2581332982954
  0
LWPOLYLINE
  5
8B
330
17
100
AcDbEntity
  8
ENG_D
100
AcDbPolyline
 90
14
 70
1
 10
112.18649776586442
 20
182.50474766683533
 10
113.6595804535858
 20
179.55858229139255
 10
113.13708498984761
 20
179.03608682765426
 10
113.13708498984761
 20
178.0932777860722
 10
110.78006238589244
 20
175.7362551821171
 10
110.78006238589244
 20
174.65537495307737
 10
109.81250753860715
 20
174.65537495307737
 10
110.3181995624682
 20
179.71229519168773
 10
110.75990068653998
 20
180.15399631575946
 10
110.28849616574892
 20
182.51101891971467
 10
110.78006238589245
 20
183.00258513985813
 10
110.78006238589245
 20
184.0176476858707
 10
111.91626433690634
 20
184.39638166954185
 10
112.18649776586442
 20
182.50474766683533
  0
LWPOLYLINE
  5
8C
330
17
100
AcDbEntity
  8
ENG_D
100
AcDbPolyline
 90
4
 70
1
 10
111.01576464628798
 20
184.45723881675124
 10
111.01576464628798
 20
186.06671452499978
 10
111.82050250041233
 20
185.26197667087553
 10
111.01576464628798
 20
184.45723881675124
  0
LWPOLYLINE
  5
8D
330
17
100
AcDbEntity
  8
ENG_D
100
AcDbPolyline
 90
11
 70
1
 10
110.90872909763159
 20
155.08411127291933
 10
106.40244820021418
 20
155.3491866198262
 10
107.0088262195642
 20
156.5619426585263
 10
107.0088262195642
 20
159.4323591003065
 10
107.48892467822054
 20
159.91245755896287
 10
107.77735539987937
 20
163.08519549721024
 10
109.0457011272707
 20
161.1826769061233
 10
109.80585074698372
 20
160.92929369955223
 10
110.29359560229557
 20
158.490569422993
 10
111.77082248306236
 20
156.52093358197072
 10
110.90872909763159
 20
155.08411127291933
  0
LWPOLYLINE
  5
8E
330
17
100
AcDbEntity
  8
ENG_D
100
AcDbPolyline
 90
6
 70
1
 10
110.16390501646454
 20
276.01402858432846
 10
111.25146690668349
 20
274.92646669410914
 10
111.25146690668349
 20
273.17891979840294
 10
110.39868811734736
 20
273.17891979840294
 10
109.82597036158457
 20
274.32435530992836
 10
110.16390501646454
 20
276.01402858432846
  0
LWPOLYLINE
  5
8F
330
17
100
AcDbEntity
  8
ENG_D
100
AcDbPolyline
 90
190
 70
1
 10
65.01985379809959
 20
160.8126025916169
 10
65.99663291074444
 20
161.7893817042617
 10
65.99663291074444
 20
162.73219074584378
 10
66.46803743153546
 20
163.20359526663486
 10
66.46803743153546
 20
165.5186285535558
 10
67.41084647311753
 20
167.40424663672005
 10
67.41084647311753
 20
168.86044951612723
 10
67.94682197502905
 20
169.39642501803866
 10
68.49932752284923
 20
168.29141392239833
 10
75.83084210072441
 20
168.29141392239833
 10
78.09229128001397
 20
169.64828342997208
 10
79.86487461871734
 20
172.0117278815766
 10
80.13220323014939
 20
167.46714148723208
 10
82.6949883469725
 20
165.4169133937734
 10
81.55298209684848
 20
164.84591026871155
 10
81.55298209684848
 20
163.67499978742583
 10
82.49579113843055
 20
162.73219074584378
 10
82.49579113843055
 20
162.30023513575497
 10
86.34714054436994
 20
162.85042790803195
 10
86.73843182554982
 20
163.6330104703918
 10
86.73843182554982
 20
164.42254668313228
 10
86.16939623182098
 20
164.99158227686118
 10
86.73843182554982
 20
165.56061787058997
 10
86.73843182554982
 20
166.3081647662964
 10
86.16939623182095
 20
166.87720036002528
 10
85.2265871902389
 20
166.87720036002528
 10
82.99304358158417
 20
169.11074396868008
 10
81.95330533385162
 20
172.749827835744
 10
85.69157863665193
 20
172.99904605593065
 10
86.2918021589752
 20
173.59926957825388
 10
87.01016794272078
 20
176.2332774519878
 10
91.15167747390679
 20
178.30403221758073
 10
91.47263873281263
 20
176.69922592305164
 10
90.50966799187808
 20
175.7362551821171
 10
90.50966799187808
 20
174.51730376561957
 10
91.09218362378024
 20
173.93478813371743
 10
92.98805437567304
 20
173.66394945487562
 10
92.39528607504222
 20
172.47841285361397
 10
92.39528607504222
 20
170.34691658293067
 10
92.80302959395826
 20
170.2110020766253
 10
93.33809511662427
 20
170.74606759929134
 10
93.33809511662427
 20
171.6888766408734
 10
93.8094996374153
 20
172.1602811616644
 10
93.8094996374153
 20
175.23633771266134
 10
92.32711640847737
 20
176.22459319861994
 10
92.86669059583325
 20
177.30374157333162
 10
92.86669059583325
 20
179.0684321539604
 10
92.29045065014678
 20
180.0288320634378
 10
91.87451829198062
 20
179.8901879440491
 10
91.55548269825178
 20
178.93308116286278
 10
90.98107251266912
 20
179.50749134844534
 10
90.98107251266912
 20
181.68397013749905
 10
92.27908201466421
 20
181.943572037898
 10
93.24046404368646
 20
182.9049540669203
 10
94.47413379115817
 20
182.9049540669203
 10
94.73373569155719
 20
181.60694456492521
 10
95.30118257337375
 20
181.03949768310866
 10
96.23442064541929
 20
181.2261452975178
 10
97.61767433021116
 20
184.45373722869886
 10
98.87874530573865
 20
185.71480820422624
 10
99.93775840769872
 20
185.92661082461836
 10
99.93775840769872
 20
188.1880348685595
 10
100.40916292848975
 20
188.65943938935058
 10
100.40916292848975
 20
189.60224843093266
 10
101.82337649086284
 20
191.01646199330568
 10
101.82337649086284
 20
192.23541340980321
 10
101.254340897134
 20
192.804449003532
 10
101.82337649086284
 20
193.3734845972609
 10
101.82337649086284
 20
194.7727469752908
 10
103.69846979774636
 20
197.11661360889522
 10
103.22278534368311
 20
200.9220892414012
 10
105.51374138492345
 20
202.7039439401437
 10
106.91119514662635
 20
202.7039439401437
 10
107.41656973848026
 20
203.20931853199764
 10
108.62367651966674
 20
202.8069496049354
 10
107.44540476361884
 20
201.6286778488875
 10
106.5425040039979
 20
199.37142594983504
 10
106.71752584002093
 20
197.7962294256279
 10
107.95163526114627
 20
199.03033884675324
 10
107.95163526114627
 20
200.39797661300628
 10
109.29201541215856
 20
203.34681294523338
 10
110.84766077595005
 20
201.79116758144178
 10
109.85182319436935
 20
200.29741120907084
 10
110.3288195644539
 20
197.91242935864807
 10
109.83725334431038
 20
197.4208631385045
 10
109.83725334431038
 20
195.95860864091975
 10
108.86725921717888
 20
195.4736115773539
 10
108.40931813078612
 20
193.18390614539015
 10
107.54782913041282
 20
191.8916726448301
 10
108.40016818236651
 20
191.0393335928764
 10
108.8611140930357
 20
189.1955499501997
 10
109.83725334431038
 20
188.70748032456243
 10
109.83725334431038
 20
187.09195299813598
 10
107.48023074035522
 20
182.37790779022566
 10
107.48023074035522
 20
180.00516203996796
 10
106.53742169877316
 20
178.59094847759494
 10
106.53742169877316
 20
175.59818399465942
 10
105.15450520544964
 20
175.59818399465942
 10
105.6070910310732
 20
171.97749738967082
 10
105.12320813640007
 20
171.4936144949978
 10
105.12320813640007
 20
169.33185403691832
 10
105.59461265719109
 20
168.86044951612723
 10
105.59461265719109
 20
167.72237832866955
 10
105.12320813640007
 20
167.25097380787858
 10
105.12320813640007
 20
165.87874956253955
 10
104.18039909481801
 20
163.99313147937534
 10
104.18039909481801
 20
163.04488760312364
 10
101.82337649086284
 20
158.80224691600432
 10
101.82337649086284
 20
157.82288339205786
 10
100.90072914863326
 20
156.90023604982827
 10
101.40153581523067
 20
154.3962027168413
 10
95.28378361611013
 20
154.15149262887638
 10
94.09381835443044
 20
153.5565099980366
 10
93.79520189781083
 20
155.64682519437378
 10
94.28090415820634
 20
156.13252745476936
 10
94.28090415820634
 20
156.91241967678192
 10
93.70466421251987
 20
157.8728195862593
 10
93.53873185435376
 20
157.81750880020397
 10
93.8434697084781
 20
157.51277094607963
 10
93.50797969399241
 20
156.50630090262263
 10
92.02151262718901
 20
156.50630090262263
 10
90.52508878967966
 20
155.00987706511327
 10
91.44269892944821
 20
149.04541115661763
 10
92.07234934670116
 20
147.99599379452943
 10
93.33809511662427
 20
147.74284464054477
 10
93.33809511662427
 20
146.68234030347705
 10
94.43867567339807
 20
145.14152752399377
 10
95.26326771129168
 20
144.7292315050469
 10
96.6379267621615
 20
144.92561136945682
 10
96.6379267621615
 20
145.7616279973667
 10
97.10273883891607
 20
146.22644007412123
 10
96.85303635813031
 20
149.97197728590783
 10
100.40916292848975
 20
149.15133269274793
 10
100.40916292848975
 20
147.89487550678137
 10
99.02132874460717
 20
146.96965271752637
 10
99.4477808994675
 20
144.83739194322465
 10
99.93775840769872
 20
144.34741443499354
 10
99.93775840769872
 20
142.77992804377882
 10
98.99494936611664
 20
140.8943099606147
 10
98.99494936611664
 20
136.6619189215661
 10
98.05214032453459
 20
134.30489631761088
 10
98.05214032453459
 20
131.61189155294383
 10
96.64809452365337
 20
132.31391445338437
 10
96.15945302130733
 20
139.15489548622907
 10
97.10933128295252
 20
140.10477374787433
 10
97.10933128295252
 20
140.81126371713526
 10
95.21792424701988
 20
141.86204540376457
 10
94.28090415820634
 20
141.3935353593577
 10
93.38463524661496
 20
141.84166981515344
 10
92.86669059583325
 20
141.32372516437175
 10
92.39528607504222
 20
141.79512968516283
 10
91.74377741300343
 20
141.14362102312396
 10
91.45856094112479
 20
143.71056927003178
 10
90.09828363925101
 20
146.4311238737793
 10
89.12263951505444
 20
146.9189459358775
 10
88.91280793499018
 20
147.96810383619896
 10
87.18241393381362
 20
147.53550533590476
 10
86.28396078206073
 20
147.9847319117813
 10
84.82278105950546
 20
147.01061209674438
 10
84.28377814865682
 20
147.549615007593
 10
82.54118324626391
 20
147.549615007593
 10
80.1799440771672
 20
146.60511933995434
 10
72.60706369104322
 20
146.88559639129218
 10
72.5915369711799
 20
147.1026368793693
 10
78.47549584402547
 20
148.172447583523
 10
77.78174593052023
 20
148.86619749702822
 10
77.78174593052023
 20
154.0684070263998
 10
76.21430377160137
 20
156.0836898021526
 10
75.44624397852604
 20
156.46771969869033
 10
73.99125233176358
 20
155.42843995100276
 10
73.05866711250083
 20
149.83292863542619
 10
72.13617466375368
 20
147.9879437379319
 10
72.4124022181379
 20
146.60680596601094
 10
71.08445156650797
 20
146.60680596601094
 10
70.61304704571694
 20
147.0782104868019
 10
68.25602444176177
 20
147.0782104868019
 10
67.78461992097073
 20
147.549615007593
 10
64.95619279622453
 20
147.549615007593
 10
64.51875834649637
 20
147.9870494573212
 10
63.01913458749828
 20
147.4871748709885
 10
62.67244257331399
 20
148.52725091354137
 10
63.63961030678927
 20
149.97800251375426
 10
63.63961030678927
 20
151.847897450616
 10
64.58241934837135
 20
153.73351553378012
 10
64.58241934837135
 20
155.16345224245563
 10
65.52522838995341
 20
156.5776658048288
 10
65.52522838995341
 20
158.96095457951554
 10
66.2256535099608
 20
159.66137969952288
 10
65.34487628014304
 20
159.8375351454865
 10
65.01985379809959
 20
160.8126025916169
  0
LWPOLYLINE
  5
90
330
17
100
AcDbEntity
  8
ENG_D
100
AcDbPolyline
 90
8
 70
1
 10
82.49579113843055
 20
162.25318540436095
 10
82.49579113843055
 20
161.5941195583861
 10
82.12201769057732
 20
161.22034611053294
 10
82.59342221136835
 20
160.74894158974183
 10
82.15209442753007
 20
160.30761380590363
 10
82.9169519936649
 20
159.7612869729501
 10
83.82947919518234
 20
161.58634137598506
 10
82.49579113843055
 20
162.25318540436095
  0
LWPOLYLINE
  5
91
330
17
100
AcDbEntity
  8
ENG_D
100
AcDbPolyline
 90
6
 70
1
 10
105.18430194373862
 20
182.4700868117286
 10
105.65827365906607
 20
181.99611509640113
 10
106.06601717798213
 20
182.13202960270658
 10
106.06601717798213
 20
183.90340486440627
 10
106.17463919116658
 20
184.1206488907752
 10
105.18430194373862
 20
182.4700868117286
  0
LWPOLYLINE
  5
92
330
17
100
AcDbEntity
  8
ENG_D
100
AcDbPolyline
 90
7
 70
1
 10
106.53742169877316
 20
184.8462139059882
 10
107.47591781658681
 20
186.7232061416154
 10
107.28452730089589
 20
189.21128284559762
 10
107.00882621956418
 20
188.93558176426595
 10
107.00882621956418
 20
187.52136820189293
 10
106.53742169877316
 20
187.04996368110181
 10
106.53742169877316
 20
184.8462139059882
  0
LWPOLYLINE
  5
93
330
17
100
AcDbEntity
  8
ENG_D
100
AcDbPolyline
 90
9
 70
1
 10
102.29947373227834
 20
168.19847557008495
 10
102.51541714844792
 20
163.6636638305239
 10
102.76618553244491
 20
163.74725329185625
 10
102.76618553244491
 20
164.61780882900788
 10
103.23330869424119
 20
165.0849319908042
 10
103.01568341604167
 20
170.09031338939317
 10
102.76618553244491
 20
170.00714742819423
 10
102.76618553244491
 20
168.6651873702516
 10
102.29947373227834
 20
168.19847557008495
  0
LWPOLYLINE
  5
94
330
17
100
AcDbEntity
  8
ENG_D
100
AcDbPolyline
 90
8
 70
1
 10
96.23506793424914
 20
158.11324760665667
 10
96.6379267621615
 20
158.91896526248138
 10
96.6379267621615
 20
159.9037636210976
 10
97.10933128295252
 20
160.37516814188868
 10
97.10933128295252
 20
163.05032243779328
 10
95.70022029367087
 20
160.23210045922997
 10
95.90290871126786
 20
158.00252786566304
 10
96.23506793424914
 20
158.11324760665667
  0
LWPOLYLINE
  5
95
330
17
100
AcDbEntity
  8
ENG_D
100
AcDbPolyline
 90
7
 70
1
 10
97.10933128295252
 20
163.16160594960084
 10
98.05214032453459
 20
165.04722403276483
 10
98.05214032453459
 20
166.03202239138105
 10
98.96726453726697
 20
166.94714660411336
 10
98.45137563638494
 20
168.83873924068084
 10
97.10933128295252
 20
166.3463711557348
 10
97.10933128295252
 20
163.16160594960084
  0
LWPOLYLINE
  5
96
330
17
100
AcDbEntity
  8
ENG_D
100
AcDbPolyline
 90
8
 70
1
 10
90.19863430534262
 20
158.37584944211102
 10
91.45247703346016
 20
160.34617372915284
 10
91.45247703346016
 20
161.5941195583861
 10
90.98107251266913
 20
162.06552407917718
 10
90.50966799187808
 20
161.5941195583861
 10
90.50966799187808
 20
160.17990599601305
 10
90.04933201860598
 20
159.71957002274095
 10
90.19863430534262
 20
158.37584944211102
  0
LWPOLYLINE
  5
97
330
17
100
AcDbEntity
  8
ENG_D
100
AcDbPolyline
 90
7
 70
1
 10
88.62404990871396
 20
150.94707772606796
 10
88.62404990871396
 20
152.36129128844112
 10
89.0614843584422
 20
152.79872573816945
 10
89.01821840894137
 20
152.92852358667187
 10
88.16363171903772
 20
151.7321022208068
 10
88.3193120545896
 20
150.64233987194365
 10
88.62404990871396
 20
150.94707772606796
  0
LWPOLYLINE
  5
98
330
17
100
AcDbEntity
  8
ENG_D
100
AcDbPolyline
 90
8
 70
1
 10
74.59302539609413
 20
162.17663519028824
 10
73.33199846221436
 20
161.99648848544834
 10
73.99993768035617
 20
161.32854926730656
 10
74.21257291579673
 20
159.4148321483415
 10
74.5393723478453
 20
159.52376529235767
 10
75.39816064149349
 20
161.67073602647818
 10
74.90652273803995
 20
162.4901325322341
 10
74.59302539609413
 20
162.17663519028824
  0
LWPOLYLINE
  5
99
330
17
100
AcDbEntity
  8
ENG_D
100
AcDbPolyline
 90
6
 70
1
 10
69.72017419833642
 20
159.91096797305525
 10
69.59798449970455
 20
160.27753706895086
 10
68.92269110842845
 20
160.27753706895086
 10
68.45128658763738
 20
159.80613254815978
 10
68.86159730108989
 20
159.39582183470725
 10
69.72017419833642
 20
159.91096797305525
  0
LWPOLYLINE
  5
9A
330
17
100
AcDbEntity
  8
ENG_D
100
AcDbPolyline
 90
5
 70
1
 10
109.36584882351936
 20
174.51730376561957
 10
109.94025900910202
 20
175.09171395120217
 10
110.39997502233771
 20
173.71256591149532
 10
109.36584882351936
 20
173.71256591149532
 10
109.36584882351936
 20
174.51730376561957
  0
LWPOLYLINE
  5
9B
330
17
100
AcDbEntity
  8
ENG_D
100
AcDbPolyline
 90
23
 70
1
 10
102.76618553244491
 20
134.18040384807583
 10
102.76618553244491
 20
136.75270313723243
 10
103.70899457402697
 20
139.1097257411875
 10
103.70899457402697
 20
141.99039183103847
 10
104.19225006352326
 20
142.4736473205347
 10
104.66365458431429
 20
146.24488348686293
 10
105.0721171934529
 20
146.65334609600157
 10
104.55514947277823
 20
147.68728153735088
 10
105.6582736590661
 20
148.05498959944686
 10
106.16364825091998
 20
147.5496150075929
 10
107.55576507782146
 20
147.5496150075929
 10
109.31478394387537
 20
146.29317296041157
 10
109.83725334431038
 20
145.24823415954157
 10
109.83725334431038
 20
142.9332008726204
 10
110.376256255159
 20
142.39419796177188
 10
109.43344721357695
 20
140.97998439939875
 10
110.30865786510141
 20
140.10477374787433
 10
110.30865786510141
 20
138.02389351883448
 10
108.99207537566615
 20
136.70731102939925
 10
107.598081870553
 20
136.70731102939925
 10
106.2149221749075
 20
134.8630981018719
 10
103.71636790042992
 20
133.86367639208086
 10
102.76618553244491
 20
134.18040384807583
  0
LWPOLYLINE
  5
9C
330
17
100
AcDbEntity
  8
ENG_D
100
AcDbPolyline
 90
4
 70
1
 10
108.18733752154178
 20
277.5191915584596
 10
108.99207537566613
 20
276.71445370433577
 10
108.18733752154178
 20
275.9097158502113
 10
108.18733752154178
 20
277.5191915584596
  0
LWPOLYLINE
  5
9D
330
17
100
AcDbEntity
  8
ENG_D
100
AcDbPolyline
 90
4
 70
1
 10
107.71593300075075
 20
276.3811203710023
 10
107.71593300075075
 20
277.99059607925057
 10
108.5206708548751
 20
277.18585822512676
 10
107.71593300075075
 20
276.3811203710023
  0
LWPOLYLINE
  5
9E
330
17
100
AcDbEntity
  8
ENG_D
100
AcDbPolyline
 90
4
 70
1
 10
107.24452847995971
 20
278.46200060004224
 10
108.04926633408402
 20
277.6572627459177
 10
107.24452847995971
 20
276.8525248917932
 10
107.24452847995971
 20
278.46200060004224
  0
LWPOLYLINE
  5
9F
330
17
100
AcDbEntity
  8
ENG_D
100
AcDbPolyline
 90
4
 70
1
 10
103.00188779284044
 20
155.89682519437375
 10
103.80662564696479
 20
155.0920873402495
 10
103.00188779284044
 20
154.2873494861252
 10
103.00188779284044
 20
155.89682519437375
  0
LWPOLYLINE
  5
A0
330
17
100
AcDbEntity
  8
ENG_D
100
AcDbPolyline
 90
4
 70
1
 10
98.62117591826343
 20
187.14759475403963
 10
97.81643806413908
 20
186.34285689991538
 10
97.81643806413908
 20
187.9523326081639
 10
98.62117591826343
 20
187.14759475403963
  0
LWPOLYLINE
  5
A1
330
17
100
AcDbEntity
  8
ENG_D
100
AcDbPolyline
 90
4
 70
1
 10
97.81643806413908
 20
186.06671452499978
 10
98.62117591826343
 20
185.26197667087553
 10
97.81643806413908
 20
184.45723881675124
 10
97.81643806413908
 20
186.06671452499978
  0
LWPOLYLINE
  5
A2
330
17
100
AcDbEntity
  8
ENG_D
100
AcDbPolyline
 90
4
 70
1
 10
97.34503354334804
 20
188.423737128955
 10
98.14977139747239
 20
187.6189992748307
 10
97.34503354334804
 20
186.81426142070612
 10
97.34503354334804
 20
188.423737128955
  0
LWPOLYLINE
  5
A3
330
17
100
AcDbEntity
  8
ENG_D
100
AcDbPolyline
 90
7
 70
1
 10
96.23885938020332
 20
192.04040216713514
 10
95.79812338537108
 20
190.71819418263834
 10
95.20159576673755
 20
191.31472180127196
 10
93.38071895784982
 20
189.94906419460622
 10
92.1386396127444
 20
190.36309064297464
 10
94.69275316943433
 20
192.34962340928908
 10
96.23885938020332
 20
192.04040216713514
  0
LWPOLYLINE
  5
A4
330
17
100
AcDbEntity
  8
ENG_D
100
AcDbPolyline
 90
6
 70
1
 10
94.81340248633592
 20
149.87010034594883
 10
93.8094996374153
 20
148.86619749702822
 10
92.36131600397943
 20
150.31438113046414
 10
92.69680601846511
 20
151.32085117392114
 10
93.94295198955254
 20
151.32085117392114
 10
94.81340248633592
 20
149.87010034594883
  0
LWPOLYLINE
  5
A5
330
17
100
AcDbEntity
  8
ENG_D
100
AcDbPolyline
 90
4
 70
1
 10
85.42184933611455
 20
165.46298679765215
 10
84.6171114819902
 20
164.65824894352787
 10
84.6171114819902
 20
166.2677246517764
 10
85.42184933611455
 20
165.46298679765215
  0
LWPOLYLINE
  5
A6
330
17
100
AcDbEntity
  8
ENG_K
100
AcDbPolyline
 90
4
 70
1
 10
243.00903046777682
 20
2.023689270621909
 10
243.00903046777682
 20
3.633164978870451
 10
243.8137683219012
 20
2.82842712474618
 10
243.00903046777682
 20
2.023689270621909
  0
LWPOLYLINE
  5
A7
330
17
100
AcDbEntity
  8
ENG_K
100
AcDbPolyline
 90
19
 70
1
 10
242.47084263524658
 20
2.3541257178195663
 10
228.37400074566085
 20
2.5930552413717667
 10
224.38835950263987
 20
3.257328781875346
 10
224.3887658123033
 20
3.3524069794476086
 10
229.76613082376988
 20
4.2014646128369915
 10
229.55383992587997
 20
5.262919102286712
 10
230.61981633160616
 20
6.328895508012744
 10
231.15809976497368
 20
4.7140452079103
 10
232.33106384777253
 20
4.7140452079103
 10
233.7452774101456
 20
5.65685424949236
 10
235.1594909725187
 20
5.65685424949236
 10
236.8807716974934
 20
6.8043747328088156
 10
236.8807716974934
 20
4.7140452079103
 10
234.82052794450726
 20
4.7140452079103
 10
233.49481444662374
 20
3.977537709086154
 10
239.4217067014669
 20
3.7731621140916216
 10
241.40565477499885
 20
4.765136150857496
 10
242.8072982784441
 20
3.363492647412314
 10
242.47084263524658
 20
2.3541257178195663
  0
LWPOLYLINE
  5
A8
330
17
100
AcDbEntity
  8
ENG_K
100
AcDbPolyline
 90
4
 70
1
 10
237.68550955161777
 20
19.327585352432287
 10
236.8807716974934
 20
18.522847498308014
 10
236.8807716974934
 20
20.132323206556556
 10
237.68550955161777
 20
19.327585352432287
  0
LWPOLYLINE
  5
A9
330
17
100
AcDbEntity
  8
ENG_K
100
AcDbPolyline
 90
5
 70
1
 10
236.6450694370979
 20
18.01100286299706
 10
237.2194796226806
 20
18.585413048579635
 10
237.67919563591624
 20
17.206265008872677
 10
236.6450694370979
 20
17.206265008872677
 10
236.6450694370979
 20
18.01100286299706
  0
LWPOLYLINE
  5
AA
330
17
100
AcDbEntity
  8
ENG_K
100
AcDbPolyline
 90
5
 70
1
 10
234.5813813455399
 20
5.932555330824152
 10
230.89820434135055
 20
5.6492340228094795
 10
230.22347615441743
 20
6.3239622097428505
 10
233.90665315860662
 20
6.607283517757301
 10
234.5813813455399
 20
5.932555330824152
  0
LWPOLYLINE
  5
AB
330
17
100
AcDbEntity
  8
ENG_K
100
AcDbPolyline
 90
4
 70
1
 10
232.07577707782448
 20
17.684351190842882
 10
232.49236505925026
 20
15.601411283714173
 10
230.82601313354724
 20
16.434587246565545
 10
232.07577707782448
 20
17.684351190842882
  0
LWPOLYLINE
  5
AC
330
17
100
AcDbEntity
  8
ENG_K
100
AcDbPolyline
 90
4
 70
1
 10
229.80970388562795
 20
31.70585230644607
 10
232.29367361402916
 20
30.641293851417117
 10
229.80970388562795
 20
29.576735396388052
 10
229.80970388562795
 20
31.70585230644607
  0
LWPOLYLINE
  5
AD
330
17
100
AcDbEntity
  8
ENG_K
100
AcDbPolyline
 90
4
 70
1
 10
230.1430372189613
 20
31.584102892999177
 10
229.3382993648369
 20
30.779365038874683
 10
229.3382993648369
 20
32.38884074712334
 10
230.1430372189613
 20
31.584102892999177
  0
LWPOLYLINE
  5
AE
330
17
100
AcDbEntity
  8
ENG_K
100
AcDbPolyline
 90
5
 70
1
 10
229.1025971044414
 20
33.70542323655879
 10
229.1025971044414
 20
34.51016109068317
 10
229.67700729002408
 20
35.08457127626574
 10
230.13672330325977
 20
33.70542323655879
 10
229.1025971044414
 20
33.70542323655879
  0
LWPOLYLINE
  5
AF
330
17
100
AcDbEntity
  8
ENG_K
100
AcDbPolyline
 90
5
 70
1
 10
222.56598585279679
 20
28.172712110782317
 10
224.33904241730897
 20
29.236546049489665
 10
226.9038981198941
 20
28.87013809197758
 10
224.4141119739163
 20
27.803086886558525
 10
222.56598585279679
 20
28.172712110782317
  0
LWPOLYLINE
  5
B0
330
17
100
AcDbEntity
  8
ENG_K
100
AcDbPolyline
 90
5
 70
1
 10
226.00340219663366
 20
40.43778312323698
 10
224.79629541544716
 20
40.03541419617485
 10
224.18791515880162
 20
40.6437944528204
 10
225.39502193998817
 20
41.04616337988265
 10
226.00340219663366
 20
40.43778312323698
  0
LWPOLYLINE
  5
B1
330
17
100
AcDbEntity
  8
ENG_K
100
AcDbPolyline
 90
4
 70
1
 10
224.15284963613558
 20
40.87412212136199
 10
224.95758749025993
 20
40.069384267237716
 10
224.15284963613558
 20
39.26464641311345
 10
224.15284963613558
 20
40.87412212136199
  0
LWPOLYLINE
  5
B2
330
17
100
AcDbEntity
  8
ENG_K
100
AcDbPolyline
 90
4
 70
1
 10
224.01477844867784
 20
39.59797974644663
 10
223.2100405945535
 20
38.793241892322364
 10
223.2100405945535
 20
40.402717600571236
 10
224.01477844867784
 20
39.59797974644663
  0
LWPOLYLINE
  5
B3
330
17
100
AcDbEntity
  8
ENG_K
100
AcDbPolyline
 90
4
 70
1
 10
222.73863607376248
 20
38.32183737153139
 10
222.73863607376248
 20
39.931313079779926
 10
223.54337392788685
 20
39.12657522565566
 10
222.73863607376248
 20
38.32183737153139
  0
LWPOLYLINE
  5
B4
330
17
100
AcDbEntity
  8
ENG_K
100
AcDbPolyline
 90
7
 70
1
 10
221.64872894745417
 20
26.389626267029232
 10
217.79480731577118
 20
26.73998277900036
 10
217.78779611278736
 20
26.84937544943411
 10
223.56529145058954
 20
28.133263302278944
 10
223.1442229115261
 20
26.870057685088877
 10
222.12916036551377
 20
26.870057685088877
 10
221.64872894745417
 20
26.389626267029232
  0
LWPOLYLINE
  5
B5
330
17
100
AcDbEntity
  8
ENG_K
100
AcDbPolyline
 90
5
 70
1
 10
222.56659481524198
 20
39.16054529671853
 10
223.17497507188747
 20
38.552165040072865
 10
221.967868290701
 20
38.14979611301072
 10
221.3594880340554
 20
38.75817636965617
 10
222.56659481524198
 20
39.16054529671853
  0
LWPOLYLINE
  5
B6
330
17
100
AcDbEntity
  8
ENG_K
100
AcDbPolyline
 90
4
 70
1
 10
219.43880442822524
 20
37.57429047582506
 10
220.24354228234958
 20
36.769552621700456
 10
219.43880442822524
 20
35.96481476757618
 10
219.43880442822524
 20
37.57429047582506
  0
LWPOLYLINE
  5
B7
330
17
100
AcDbEntity
  8
ENG_K
100
AcDbPolyline
 90
4
 70
1
 10
219.87514342635026
 20
36.40115376570119
 10
218.4959953866432
 20
35.022005725994006
 10
218.4959953866432
 20
36.86086977893677
 10
219.87514342635026
 20
36.40115376570119
  0
LWPOLYLINE
  5
B8
330
17
100
AcDbEntity
  8
ENG_K
100
AcDbPolyline
 90
5
 70
1
 10
218.82301480427498
 20
34.648232278140846
 10
217.78888860545663
 20
34.648232278140846
 10
217.78888860545663
 20
35.45297013226523
 10
218.36329879103937
 20
36.0273803178478
 10
218.82301480427498
 20
34.648232278140846
  0
LWPOLYLINE
  5
B9
330
17
100
AcDbEntity
  8
ENG_K
100
AcDbPolyline
 90
6
 70
1
 10
219.67352251552893
 20
26.544472730211545
 10
219.6754340351775
 20
26.269200627015877
 10
216.00959553309565
 20
25.935942581372107
 10
215.19616374110598
 20
25.122510789382325
 10
215.19616374110598
 20
26.88888494362862
 10
219.67352251552893
 20
26.544472730211545
  0
LWPOLYLINE
  5
BA
330
17
100
AcDbEntity
  8
ENG_K
100
AcDbPolyline
 90
4
 70
1
 10
217.0817818242701
 20
34.97525169577265
 10
218.46092986397716
 20
34.51553568253707
 10
217.0817818242701
 20
33.13638764282989
 10
217.0817818242701
 20
34.97525169577265
  0
LWPOLYLINE
  5
BB
330
17
100
AcDbEntity
  8
ENG_K
100
AcDbPolyline
 90
5
 70
1
 10
216.37467504308356
 20
33.5673520491011
 10
216.99083241251148
 20
34.18350941852899
 10
217.36929236138013
 20
32.29120967418575
 10
216.37467504308356
 20
32.29120967418575
 10
216.37467504308356
 20
33.5673520491011
  0
LWPOLYLINE
  5
BC
330
17
100
AcDbEntity
  8
ENG_K
100
AcDbPolyline
 90
4
 70
1
 10
217.41511515760342
 20
10.842303978193746
 10
216.61037730347905
 20
10.037566124069475
 10
216.61037730347905
 20
11.647041832318017
 10
217.41511515760342
 20
10.842303978193746
  0
LWPOLYLINE
  5
BD
330
17
100
AcDbEntity
  8
ENG_K
100
AcDbPolyline
 90
5
 70
1
 10
216.47768070787518
 20
32.72754867231053
 10
216.93739672111087
 20
31.348400632603692
 10
215.90327052229253
 20
31.348400632603692
 10
215.90327052229253
 20
32.15313848672796
 10
216.47768070787518
 20
32.72754867231053
  0
LWPOLYLINE
  5
BE
330
17
100
AcDbEntity
  8
ENG_K
100
AcDbPolyline
 90
5
 70
1
 10
216.46599220031985
 20
30.40559159102163
 10
215.4318660015015
 20
30.40559159102163
 10
215.4318660015015
 20
31.210329445145902
 10
216.00627618708415
 20
31.784739630728474
 10
216.46599220031985
 20
30.40559159102163
  0
LWPOLYLINE
  5
BF
330
17
100
AcDbEntity
  8
ENG_K
100
AcDbPolyline
 90
4
 70
1
 10
215.19616374110598
 20
30.974627184750304
 10
216.00090159523035
 20
30.16988933062603
 10
215.19616374110598
 20
29.36515147650176
 10
215.19616374110598
 20
30.974627184750304
  0
LWPOLYLINE
  5
C0
330
17
100
AcDbEntity
  8
ENG_K
100
AcDbPolyline
 90
4
 70
1
 10
211.89633209556874
 20
4.852116395368089
 10
211.89633209556874
 20
6.461592103616631
 10
212.7010699496931
 20
5.65685424949236
 10
211.89633209556874
 20
4.852116395368089
  0
LWPOLYLINE
  5
C1
330
17
100
AcDbEntity
  8
ENG_K
100
AcDbPolyline
 90
5
 70
1
 10
196.16794165094416
 20
138.62689918362614
 10
196.7763219075897
 20
138.0185189269806
 10
195.56921512640318
 20
137.61614999991843
 10
194.96083486975763
 20
138.224530256564
 10
196.16794165094416
 20
138.62689918362614
  0
LWPOLYLINE
  5
C2
330
17
100
AcDbEntity
  8
ENG_K
100
AcDbPolyline
 90
5
 70
1
 10
194.69006708669608
 20
137.27634662312803
 10
195.306224456124
 20
137.89250399255616
 10
195.68468440499265
 20
136.0002042482127
 10
194.69006708669608
 20
136.0002042482127
 10
194.69006708669608
 20
137.27634662312803
  0
LWPOLYLINE
  5
C3
330
17
100
AcDbEntity
  8
ENG_K
100
AcDbPolyline
 90
4
 70
1
 10
188.1880348685594
 20
138.59292911256338
 10
187.3832970144351
 20
137.7881912584388
 10
187.3832970144351
 20
139.39766696668764
 10
188.1880348685594
 20
138.59292911256338
  0
LWPOLYLINE
  5
C4
330
17
100
AcDbEntity
  8
ENG_K
100
AcDbPolyline
 90
4
 70
1
 10
187.3832970144351
 20
140.34047600826972
 10
188.18803486855944
 20
139.53573815414543
 10
187.3832970144351
 20
138.73100030002118
 10
187.3832970144351
 20
140.34047600826972
  0
LWPOLYLINE
  5
C5
330
17
100
AcDbEntity
  8
ENG_K
100
AcDbPolyline
 90
7
 70
1
 10
187.63782653337046
 20
134.58599068583965
 10
185.8714523791242
 20
134.58599068583965
 10
185.16434559793765
 20
135.29309746702612
 10
186.69476322068874
 20
136.8235150897772
 10
187.14340684308638
 20
139.06673320176554
 10
187.29385285467114
 20
139.05764850893044
 10
187.63782653337046
 20
134.58599068583965
  0
LWPOLYLINE
  5
C6
330
17
100
AcDbEntity
  8
ENG_K
100
AcDbPolyline
 90
4
 70
1
 10
185.49767893127097
 20
150.71137546567272
 10
186.3024167853953
 20
149.9066376115481
 10
185.49767893127097
 20
149.10189975742384
 10
185.49767893127097
 20
150.71137546567272
  0
LWPOLYLINE
  5
C7
330
17
100
AcDbEntity
  8
ENG_K
100
AcDbPolyline
 90
5
 70
1
 10
184.11853089156392
 20
150.95245231792188
 10
185.32563767275042
 20
151.354821244984
 10
185.934017929396
 20
150.74644098833843
 10
184.72691114820947
 20
150.3440720612763
 10
184.11853089156392
 20
150.95245231792188
  0
LWPOLYLINE
  5
C8
330
17
100
AcDbEntity
  8
ENG_K
100
AcDbPolyline
 90
5
 70
1
 10
184.24169825570803
 20
126.78765439343509
 10
183.60537918692776
 20
127.42397346221557
 10
185.3394460444608
 20
127.77078683372211
 10
185.97576511324115
 20
127.13446776494186
 10
184.24169825570803
 20
126.78765439343509
  0
LWPOLYLINE
  5
C9
330
17
100
AcDbEntity
  8
ENG_K
100
AcDbPolyline
 90
5
 70
1
 10
181.2901037668177
 20
150.95245231792188
 10
182.4972105480042
 20
151.354821244984
 10
183.10559080464978
 20
150.74644098833843
 10
181.89848402346325
 20
150.3440720612763
 10
181.2901037668177
 20
150.95245231792188
  0
LWPOLYLINE
  5
CA
330
17
100
AcDbEntity
  8
ENG_K
100
AcDbPolyline
 90
4
 70
1
 10
181.25503824415168
 20
126.94588728024536
 10
181.25503824415168
 20
128.5553629884939
 10
182.05977609827605
 20
127.75062513436963
 10
181.25503824415168
 20
126.94588728024536
  0
LWPOLYLINE
  5
CB
330
17
100
AcDbEntity
  8
ENG_K
100
AcDbPolyline
 90
5
 70
1
 10
179.19737890246705
 20
150.41201220340207
 10
179.80575915911254
 20
149.80363194675638
 10
178.59865237792604
 20
149.40126301969426
 10
177.99027212128053
 20
150.0096432763398
 10
179.19737890246705
 20
150.41201220340207
  0
LWPOLYLINE
  5
CC
330
17
100
AcDbEntity
  8
ENG_K
100
AcDbPolyline
 90
4
 70
1
 10
174.9887082864105
 20
133.40747938386198
 10
174.1839704322862
 20
132.60274152973773
 10
174.1839704322862
 20
134.2122172379866
 10
174.9887082864105
 20
133.40747938386198
  0
LWPOLYLINE
  5
CD
330
17
100
AcDbEntity
  8
ENG_K
100
AcDbPolyline
 90
7
 70
1
 10
148.02101952838396
 20
276.7899880418019
 10
149.5124691113207
 20
278.8780174579133
 10
150.4305910521857
 20
276.12365163531825
 10
149.39226397202253
 20
275.60448809523666
 10
149.112899768466
 20
274.76639548456717
 10
148.02101952838396
 20
275.13035556459454
 10
148.02101952838396
 20
276.7899880418019
  0
LWPOLYLINE
  5
CE
330
17
100
AcDbEntity
  8
ENG_K
100
AcDbPolyline
 90
4
 70
1
 10
148.5900551221128
 20
274.82883562117144
 10
147.78531726798843
 20
274.02409776704764
 10
147.78531726798843
 20
275.63357347529615
 10
148.5900551221128
 20
274.82883562117144
  0
LWPOLYLINE
  5
CF
330
17
100
AcDbEntity
  8
ENG_K
100
AcDbPolyline
 90
12
 70
1
 10
140.57617826866527
 20
88.62404990871397
 10
141.89276075810054
 20
87.30746741927875
 10
141.89276075810054
 20
81.78868435724407
 10
138.13910023645755
 20
81.78868435724407
 10
138.11541980613643
 20
82.02783348514775
 10
140.36234313534942
 20
82.4772181509903
 10
140.8988607735713
 20
83.01373578921223
 10
140.47854719572743
 20
83.8543629449
 10
140.47854719572743
 20
86.55440106169688
 10
138.46285093318
 20
87.0583251273338
 10
139.40228580200815
 20
88.62404990871397
 10
140.57617826866527
 20
88.62404990871397
  0
LWPOLYLINE
  5
D0
330
17
100
AcDbEntity
  8
ENG_K
100
AcDbPolyline
 90
4
 70
1
 10
132.6653070800094
 20
73.90750409940028
 10
131.28615904030232
 20
73.4477880861647
 10
131.28615904030232
 20
75.28665213910746
 10
132.6653070800094
 20
73.90750409940028
  0
LWPOLYLINE
  5
D1
330
17
100
AcDbEntity
  8
ENG_K
100
AcDbPolyline
 90
4
 70
1
 10
130.8147545195113
 20
83.30052899255513
 10
131.61949237363564
 20
82.49579113843053
 10
130.8147545195113
 20
81.69105328430626
 10
130.8147545195113
 20
83.30052899255513
  0
LWPOLYLINE
  5
D2
330
17
100
AcDbEntity
  8
ENG_K
100
AcDbPolyline
 90
4
 70
1
 10
131.1480878528446
 20
82.02438661763955
 10
130.34334999872027
 20
81.21964876351528
 10
130.34334999872027
 20
82.82912447176383
 10
131.1480878528446
 20
82.02438661763955
  0
LWPOLYLINE
  5
D3
330
17
100
AcDbEntity
  8
ENG_K
100
AcDbPolyline
 90
5
 70
1
 10
127.75062513436957
 20
268.798207923826
 10
128.32503531995224
 20
269.37261810940873
 10
128.78475133318798
 20
267.9934700697015
 10
127.75062513436957
 20
267.9934700697015
 10
127.75062513436957
 20
268.798207923826
  0
LWPOLYLINE
  5
D4
330
17
100
AcDbEntity
  8
ENG_K
100
AcDbPolyline
 90
7
 70
1
 10
112.75328905022562
 20
177.7094818464502
 10
113.12580200712178
 20
179.57204663093108
 10
111.7040932340311
 20
182.4154641771124
 10
112.12726624633633
 20
183.68498321402816
 10
114.07989403142966
 20
180.61656812316718
 10
114.07989403142966
 20
179.03608682765426
 10
112.75328905022562
 20
177.7094818464502
  0
LWPOLYLINE
  5
D5
330
17
100
AcDbEntity
  8
ENG_K
100
AcDbPolyline
 90
5
 70
1
 10
111.55620476080786
 20
268.0220655489105
 10
113.2347160627854
 20
266.343554246933
 10
112.25793695014059
 20
265.3667751342881
 10
111.22601662196539
 20
265.71074857701336
 10
111.55620476080786
 20
268.0220655489105
  0
LWPOLYLINE
  5
D6
330
17
100
AcDbEntity
  8
ENG_K
100
AcDbPolyline
 90
5
 70
1
 10
110.88306805068409
 20
157.24847320647518
 10
109.8170916449579
 20
158.31444961220143
 10
110.19709872842185
 20
160.21448502952106
 10
111.27365296910028
 20
158.42022796172373
 10
110.88306805068409
 20
157.24847320647518
  0
LWPOLYLINE
  5
D7
330
17
100
AcDbEntity
  8
ENG_K
100
AcDbPolyline
 90
5
 70
1
 10
108.84960978466033
 20
203.07909411804425
 10
109.2080407274353
 20
204.1543869463689
 10
110.78006238589244
 20
203.8399826146775
 10
110.78006238589244
 20
201.79212571722283
 10
108.84960978466033
 20
203.07909411804425
  0
LWPOLYLINE
  5
D8
330
17
100
AcDbEntity
  8
ENG_K
100
AcDbPolyline
 90
4
 70
1
 10
109.60155108391487
 20
159.00139469403553
 10
109.60155108391487
 20
160.61087040228406
 10
110.40628893803922
 20
159.80613254815978
 10
109.60155108391487
 20
159.00139469403553
  0
LWPOLYLINE
  5
D9
330
17
100
AcDbEntity
  8
ENG_K
100
AcDbPolyline
 90
4
 70
1
 10
109.60155108391487
 20
142.03083194555833
 10
109.60155108391487
 20
143.64030765380718
 10
110.40628893803921
 20
142.8355697996826
 10
109.60155108391487
 20
142.03083194555833
  0
LWPOLYLINE
  5
DA
330
17
100
AcDbEntity
  8
ENG_K
100
AcDbPolyline
 90
4
 70
1
 10
109.60155108391487
 20
138.45485792510559
 10
110.40628893803922
 20
137.65012007098133
 10
109.60155108391487
 20
136.84538221685705
 10
109.60155108391487
 20
138.45485792510559
  0
LWPOLYLINE
  5
DB
330
17
100
AcDbEntity
  8
ENG_K
100
AcDbPolyline
 90
4
 70
1
 10
108.79707918513692
 20
140.8529622671645
 10
109.97670070808451
 20
142.81899813874398
 10
110.36990788240037
 20
140.0665479185329
 10
108.79707918513692
 20
140.8529622671645
  0
LWPOLYLINE
  5
DC
330
17
100
AcDbEntity
  8
ENG_K
100
AcDbPolyline
 90
4
 70
1
 10
109.93488441724817
 20
137.17871555019025
 10
109.13014656312383
 20
136.37397769606596
 10
109.13014656312383
 20
137.98345340431484
 10
109.93488441724817
 20
137.17871555019025
  0
LWPOLYLINE
  5
DD
330
17
100
AcDbEntity
  8
ENG_K
100
AcDbPolyline
 90
5
 70
1
 10
108.83078330085335
 20
195.12750153642432
 10
108.22240304420781
 20
195.73588179306978
 10
109.42950982539436
 20
196.13825072013213
 10
110.03789008203982
 20
195.52987046348647
 10
108.83078330085335
 20
195.12750153642432
  0
LWPOLYLINE
  5
DE
330
17
100
AcDbEntity
  8
ENG_K
100
AcDbPolyline
 90
7
 70
1
 10
107.27959400262573
 20
146.9752048220102
 10
107.86830192781294
 20
147.56391274719738
 10
109.83725334431038
 20
147.282633973412
 10
109.83725334431038
 20
145.4282946640334
 10
108.9966942109866
 20
145.4282946640334
 10
108.26578664459414
 20
146.64647394135412
 10
107.27959400262573
 20
146.9752048220102
  0
LWPOLYLINE
  5
DF
330
17
100
AcDbEntity
  8
ENG_K
100
AcDbPolyline
 90
5
 70
1
 10
107.95163526114627
 20
193.04015126392758
 10
107.95163526114627
 20
194.78769815963392
 10
108.58970644860396
 20
195.42576934709155
 10
108.93050903191312
 20
193.04015126392758
 10
107.95163526114627
 20
193.04015126392758
  0
LWPOLYLINE
  5
E0
330
17
100
AcDbEntity
  8
ENG_K
100
AcDbPolyline
 90
5
 70
1
 10
106.7664422979896
 20
136.85206387803618
 10
108.50050915552262
 20
137.1988772495427
 10
109.136828224303
 20
136.56255818076247
 10
107.40276136676985
 20
136.21574480925568
 10
106.7664422979896
 20
136.85206387803618
  0
LWPOLYLINE
  5
E1
330
17
100
AcDbEntity
  8
ENG_K
100
AcDbPolyline
 90
5
 70
1
 10
108.6236765196668
 20
203.07234279614306
 10
107.41656973848026
 20
202.66997386908093
 10
106.80818948183469
 20
203.27835412572648
 10
108.01529626302123
 20
203.6807230527886
 10
108.6236765196668
 20
203.07234279614306
  0
LWPOLYLINE
  5
E2
330
17
100
AcDbEntity
  8
ENG_K
100
AcDbPolyline
 90
4
 70
1
 10
108.5206708548751
 20
192.804449003532
 10
107.71593300075075
 20
191.99971114940772
 10
107.71593300075075
 20
193.60918685765625
 10
108.5206708548751
 20
192.804449003532
  0
LWPOLYLINE
  5
E3
330
17
100
AcDbEntity
  8
ENG_K
100
AcDbPolyline
 90
5
 70
1
 10
108.04295241838254
 20
191.62593770155445
 10
107.0088262195642
 20
191.62593770155445
 10
107.0088262195642
 20
192.43067555567882
 10
107.58323640514689
 20
193.0050857412614
 10
108.04295241838254
 20
191.62593770155445
  0
LWPOLYLINE
  5
E4
330
17
100
AcDbEntity
  8
ENG_K
100
AcDbPolyline
 90
5
 70
1
 10
107.11183188435582
 20
136.90794776712855
 10
107.57154789759153
 20
135.5287997274217
 10
106.53742169877316
 20
135.5287997274217
 10
106.53742169877316
 20
136.33353758154598
 10
107.11183188435582
 20
136.90794776712855
  0
LWPOLYLINE
  5
E5
330
17
100
AcDbEntity
  8
ENG_K
100
AcDbPolyline
 90
5
 70
1
 10
105.98854780439675
 20
147.05804878744942
 10
105.35222873561649
 20
147.69436785622992
 10
107.0862955931495
 20
148.04118122773647
 10
107.72261466192991
 20
147.4048621589562
 10
105.98854780439675
 20
147.05804878744942
  0
LWPOLYLINE
  5
E6
330
17
100
AcDbEntity
  8
ENG_K
100
AcDbPolyline
 90
5
 70
1
 10
105.51127932385778
 20
202.21824167974822
 10
104.85891039679561
 20
202.87061060681032
 10
107.09215955289757
 20
203.18964620053924
 10
107.74452847995963
 20
202.53727727347703
 10
105.51127932385778
 20
202.21824167974822
  0
LWPOLYLINE
  5
E7
330
17
100
AcDbEntity
  8
ENG_K
100
AcDbPolyline
 90
5
 70
1
 10
105.18686913827503
 20
202.73791401120656
 10
105.79524939492057
 20
202.1295337545611
 10
104.58814261373404
 20
201.72716482749874
 10
103.97976235708857
 20
202.33554508414443
 10
105.18686913827503
 20
202.73791401120656
  0
LWPOLYLINE
  5
E8
330
17
100
AcDbEntity
  8
ENG_K
100
AcDbPolyline
 90
4
 70
1
 10
103.94469683442249
 20
202.5658727526859
 10
104.74943468854684
 20
201.76113489856164
 10
103.94469683442249
 20
200.95639704443735
 10
103.94469683442249
 20
202.5658727526859
  0
LWPOLYLINE
  5
E9
330
17
100
AcDbEntity
  8
ENG_K
100
AcDbPolyline
 90
4
 70
1
 10
103.47329231363146
 20
202.09446823189515
 10
104.2780301677558
 20
201.28973037777052
 10
103.47329231363146
 20
200.48499252364627
 10
103.47329231363146
 20
202.09446823189515
  0
LWPOLYLINE
  5
EA
330
17
100
AcDbEntity
  8
ENG_K
100
AcDbPolyline
 90
4
 70
1
 10
103.33522112617374
 20
195.63287612827818
 10
102.5304832720494
 20
194.8281382741539
 10
102.5304832720494
 20
196.43761398240278
 10
103.33522112617374
 20
195.63287612827818
  0
LWPOLYLINE
  5
EB
330
17
100
AcDbEntity
  8
ENG_K
100
AcDbPolyline
 90
4
 70
1
 10
101.58767423046733
 20
194.08059137844737
 10
102.39241208459167
 20
193.27585352432308
 10
101.58767423046733
 20
192.4711156701985
 10
101.58767423046733
 20
194.08059137844737
  0
LWPOLYLINE
  5
EC
330
17
100
AcDbEntity
  8
ENG_K
100
AcDbPolyline
 90
14
 70
1
 10
98.50497185788544
 20
165.8181872580653
 10
98.03356733709441
 20
163.4611646541101
 10
97.58073580374356
 20
163.00833312075923
 10
97.58073580374356
 20
160.17990599601305
 10
97.10933128295252
 20
159.70850147522196
 10
97.10933128295252
 20
158.79803775994606
 10
96.2713576662659
 20
157.40141506546834
 10
95.2237131997884
 20
157.75062988762744
 10
95.2237131997884
 20
160.33317882485454
 10
96.6379267621615
 20
163.16160594960084
 10
96.6379267621615
 20
166.4652205227336
 10
98.5957140542663
 20
170.10111120807113
 10
99.49403871575737
 20
166.8072541159372
 10
98.50497185788544
 20
165.8181872580653
  0
LWPOLYLINE
  5
ED
330
17
100
AcDbEntity
  8
ENG_K
100
AcDbPolyline
 90
5
 70
1
 10
97.21233694774419
 20
132.66530708000934
 10
97.67205296097983
 20
131.28615904030238
 10
96.6379267621615
 20
131.28615904030238
 10
96.6379267621615
 20
132.09089689442678
 10
97.21233694774419
 20
132.66530708000934
  0
LWPOLYLINE
  5
EE
330
17
100
AcDbEntity
  8
ENG_K
100
AcDbPolyline
 90
5
 70
1
 10
95.14037986645508
 20
153.66357603827197
 10
94.48801093939288
 20
154.31594496533407
 10
96.72126009549483
 20
154.63498055906288
 10
97.37362902255701
 20
153.98261163200078
 10
95.14037986645508
 20
153.66357603827197
  0
LWPOLYLINE
  5
EF
330
17
100
AcDbEntity
  8
ENG_K
100
AcDbPolyline
 90
5
 70
1
 10
96.68973503887601
 20
136.94301328979475
 10
95.69511772057945
 20
136.94301328979475
 10
95.69511772057945
 20
138.21915566471012
 10
96.31127509000737
 20
138.83531303413798
 10
96.68973503887601
 20
136.94301328979475
  0
LWPOLYLINE
  5
F0
330
17
100
AcDbEntity
  8
ENG_K
100
AcDbPolyline
 90
5
 70
1
 10
94.68864767712236
 20
141.3873861662467
 10
94.0802674204769
 20
141.99576642289236
 10
95.28737420166334
 20
142.3981353499545
 10
95.89575445830891
 20
141.78975509330905
 10
94.68864767712236
 20
141.3873861662467
  0
LWPOLYLINE
  5
F1
330
17
100
AcDbEntity
  8
ENG_K
100
AcDbPolyline
 90
4
 70
1
 10
94.04520189781083
 20
191.05690210782566
 10
94.04520189781083
 20
192.66637781607454
 10
94.84993975193517
 20
191.86163996194995
 10
94.04520189781083
 20
191.05690210782566
  0
LWPOLYLINE
  5
F2
330
17
100
AcDbEntity
  8
ENG_K
100
AcDbPolyline
 90
4
 70
1
 10
92.1595838146467
 20
142.6974986122249
 10
92.96432166877103
 20
141.89276075810065
 10
92.1595838146467
 20
141.08802290397605
 10
92.1595838146467
 20
142.6974986122249
  0
LWPOLYLINE
  5
F3
330
17
100
AcDbEntity
  8
ENG_K
100
AcDbPolyline
 90
5
 70
1
 10
91.5554826982518
 20
144.45042009978516
 10
92.01519871148747
 20
143.0712720600782
 10
90.98107251266912
 20
143.0712720600782
 10
90.98107251266912
 20
143.87600991420257
 10
91.5554826982518
 20
144.45042009978516
  0
LWPOLYLINE
  5
F4
330
17
100
AcDbEntity
  8
ENG_K
100
AcDbPolyline
 90
5
 70
1
 10
91.08407817746074
 20
145.39322914136733
 10
91.54379419069642
 20
144.01408110166025
 10
90.50966799187808
 20
144.01408110166025
 10
90.50966799187808
 20
144.81881895578454
 10
91.08407817746074
 20
145.39322914136733
  0
LWPOLYLINE
  5
F5
330
17
100
AcDbEntity
  8
ENG_K
100
AcDbPolyline
 90
4
 70
1
 10
90.27396573148256
 20
144.8592590703043
 10
90.27396573148256
 20
146.46873477855314
 10
91.0787035856069
 20
145.6639969244289
 10
90.27396573148256
 20
144.8592590703043
  0
LWPOLYLINE
  5
F6
330
17
100
AcDbEntity
  8
ENG_K
100
AcDbPolyline
 90
5
 70
1
 10
88.15264538792293
 20
160.51323932934636
 10
88.15264538792293
 20
161.31797718347073
 10
88.72705557350562
 20
161.89238736905332
 10
89.18677158674126
 20
160.51323932934636
 10
88.15264538792293
 20
160.51323932934636
  0
LWPOLYLINE
  5
F7
330
17
100
AcDbEntity
  8
ENG_K
100
AcDbPolyline
 90
8
 70
1
 10
87.25573654286246
 20
175.51706624612484
 10
86.71556022597905
 20
173.35636097859108
 10
85.8856336302227
 20
172.52643438283476
 10
82.06661967616435
 20
172.8202046869932
 10
84.30587488412846
 20
174.41967269268176
 10
85.19807424157409
 20
174.41967269268176
 10
86.17077296186821
 20
175.87872077312306
 10
87.25573654286246
 20
175.51706624612484
  0
LWPOLYLINE
  5
F8
330
17
100
AcDbEntity
  8
ENG_K
100
AcDbPolyline
 90
5
 70
1
 10
87.41047308407029
 20
147.91801386359228
 10
86.20336630288384
 20
147.51564493653012
 10
85.59498604623829
 20
148.12402519317558
 10
86.80209282742483
 20
148.52639412023794
 10
87.41047308407029
 20
147.91801386359228
  0
LWPOLYLINE
  5
F9
330
17
100
AcDbEntity
  8
ENG_K
100
AcDbPolyline
 90
5
 70
1
 10
81.74665140345401
 20
147.72971914884081
 10
84.46797174701352
 20
148.03208807590295
 10
85.13054895657132
 20
147.3695108663452
 10
82.40922861301165
 20
147.06714193928295
 10
81.74665140345401
 20
147.72971914884081
  0
LWPOLYLINE
  5
FA
330
17
100
AcDbEntity
  8
ENG_K
100
AcDbPolyline
 90
5
 70
1
 10
81.63045147043381
 20
147.5697767069454
 10
82.26677053921422
 20
146.933457638165
 10
80.5327036816811
 20
146.58664426665845
 10
79.89638461290069
 20
147.22296333543883
 10
81.63045147043381
 20
147.5697767069454
  0
LWPOLYLINE
  5
FB
330
17
100
AcDbEntity
  8
ENG_K
100
AcDbPolyline
 90
4
 70
1
 10
78.96025723249781
 20
171.9245789012689
 10
79.76499508662215
 20
171.1198410471446
 10
78.96025723249781
 20
170.31510319302
 10
78.96025723249781
 20
171.9245789012689
  0
LWPOLYLINE
  5
FC
330
17
100
AcDbEntity
  8
ENG_K
100
AcDbPolyline
 90
5
 70
1
 10
78.80788830543561
 20
147.0925082264064
 10
79.46025723249781
 20
146.4401392993443
 10
77.22700807639588
 20
146.1211037056155
 10
76.57463914933368
 20
146.7734726326776
 10
78.80788830543561
 20
147.0925082264064
  0
LWPOLYLINE
  5
FD
330
17
100
AcDbEntity
  8
ENG_K
100
AcDbPolyline
 90
5
 70
1
 10
78.25315045131126
 20
169.94132974516697
 10
78.25315045131126
 20
170.74606759929134
 10
78.82756063689395
 20
171.3204777848739
 10
79.2872766501296
 20
169.94132974516697
 10
78.25315045131126
 20
169.94132974516697
  0
LWPOLYLINE
  5
FE
330
17
100
AcDbEntity
  8
ENG_K
100
AcDbPolyline
 90
5
 70
1
 10
78.31681145318622
 20
170.2110020766253
 10
78.9251917098318
 20
169.60262181997976
 10
77.71808492864527
 20
169.20025289291763
 10
77.1097046719997
 20
169.80863314956318
 10
78.31681145318622
 20
170.2110020766253
  0
LWPOLYLINE
  5
FF
330
17
100
AcDbEntity
  8
ENG_K
100
AcDbPolyline
 90
4
 70
1
 10
77.07463914933369
 20
168.4294851098559
 10
77.07463914933369
 20
170.03896081810475
 10
77.87937700345803
 20
169.2342229639805
 10
77.07463914933369
 20
168.4294851098559
  0
LWPOLYLINE
  5
100
330
17
100
AcDbEntity
  8
ENG_K
100
AcDbPolyline
 90
8
 70
1
 10
68.25064984990794
 20
169.4348597017098
 10
68.92269110842844
 20
168.76281844318942
 10
73.91287869125416
 20
168.76281844318942
 10
74.39331010931377
 20
169.24324986124896
 10
77.81503748495933
 20
168.93218373619035
 10
75.95810320102947
 20
167.8180231658324
 10
67.79416832657958
 20
168.0654151317248
 10
68.25064984990794
 20
169.4348597017098
  0
LWPOLYLINE
  5
101
330
17
100
AcDbEntity
  8
ENG_K
100
AcDbPolyline
 90
9
 70
1
 10
72.33199846221444
 20
162.32982181878162
 10
74.37080317387188
 20
162.62107963473272
 10
74.95331880577403
 20
163.20359526663486
 10
75.92145731678875
 20
162.23545675562013
 10
75.40917926696238
 20
160.18634455631476
 10
74.58674970987846
 20
158.81562862784136
 10
73.53910524340094
 20
159.1648434500005
 10
73.53910524340094
 20
161.12271503759513
 10
72.33199846221444
 20
162.32982181878162
  0
LWPOLYLINE
  5
102
330
17
100
AcDbEntity
  8
ENG_K
100
AcDbPolyline
 90
9
 70
1
 10
68.45998052550271
 20
147.5409210697276
 10
72.12827104100847
 20
147.20744011377263
 10
72.12085571776828
 20
146.89334969578826
 10
65.49870796639593
 20
146.60543022833727
 10
62.218475024883226
 20
147.50003921238618
 10
64.63624718813355
 20
148.53622728235072
 10
65.15145494210023
 20
148.021019528384
 10
67.9798820668464
 20
148.021019528384
 10
68.45998052550271
 20
147.5409210697276
  0
LWPOLYLINE
  5
103
330
17
100
AcDbEntity
  8
CUT_SLOT
100
AcDbPolyline
 90
5
 70
1
 10
168.5068188892219
 20
141.42135623730957
 10
172.07092050435966
 20
141.42135623730957
 10
172.07092050435966
 20
282.84271247461913
 10
168.5068188892219
 20
282.84271247461913
 10
168.5068188892219
 20
141.42135623730957
  0
LWPOLYLINE
  5
104
330
17
100
AcDbEntity
  8
CUT_SLOT
100
AcDbPolyline
 90
5
 70
1
 10
145.41280812163689
 20
141.42135623730957
 10
148.97690973677467
 20
141.42135623730957
 10
148.97690973677467
 20
282.84271247461913
 10
145.41280812163689
 20
282.84271247461913
 10
145.41280812163689
 20
141.42135623730957
  0
LWPOLYLINE
  5
105
330
17
100
AcDbEntity
  8
CUT_SLOT
100
AcDbPolyline
 90
5
 70
1
 10
122.31879735405185
 20
141.42135623730957
 10
125.88289896918961
 20
141.42135623730957
 10
125.88289896918961
 20
282.84271247461913
 10
122.31879735405185
 20
282.84271247461913
 10
122.31879735405185
 20
141.42135623730957
  0
LWPOLYLINE
  5
106
330
17
100
AcDbEntity
  8
CUT_SLOT
100
AcDbPolyline
 90
5
 70
1
 10
99.22478658646679
 20
141.42135623730957
 10
102.78888820160455
 20
141.42135623730957
 10
102.78888820160455
 20
282.84271247461913
 10
99.22478658646679
 20
282.84271247461913
 10
99.22478658646679
 20
141.42135623730957
  0
LWPOLYLINE
  5
107
330
17
100
AcDbEntity
  8
CUT_SLOT
100
AcDbPolyline
 90
5
 70
1
 10
76.1307758188818
 20
141.42135623730957
 10
79.69487743401957
 20
141.42135623730957
 10
79.69487743401957
 20
282.84271247461913
 10
76.1307758188818
 20
282.84271247461913
 10
76.1307758188818
 20
141.42135623730957
  0
LWPOLYLINE
  5
108
330
17
100
AcDbEntity
  8
CUT_SLOT
100
AcDbPolyline
 90
5
 70
1
 10
53.036765051296726
 20
141.42135623730957
 10
56.600866666434484
 20
141.42135623730957
 10
56.600866666434484
 20
282.84271247461913
 10
53.036765051296726
 20
282.84271247461913
 10
53.036765051296726
 20
141.42135623730957
  0
LWPOLYLINE
  5
109
330
17
100
AcDbEntity
  8
CUT_SLOT
100
AcDbPolyline
 90
5
 70
1
 10
110.77179197025932
 20
141.42135623730957
 10
114.33589358539707
 20
141.42135623730957
 10
114.33589358539707
 20
282.84271247461913
 10
110.77179197025932
 20
282.84271247461913
 10
110.77179197025932
 20
141.42135623730957
  0
LWPOLYLINE
  5
10A
330
17
100
AcDbEntity
  8
CUT_SLOT
100
AcDbPolyline
 90
5
 70
1
 10
133.86580273784435
 20
141.42135623730957
 10
137.4299043529821
 20
141.42135623730957
 10
137.4299043529821
 20
282.84271247461913
 10
133.86580273784435
 20
282.84271247461913
 10
133.86580273784435
 20
141.42135623730957
  0
LWPOLYLINE
  5
10B
330
17
100
AcDbEntity
  8
CUT_SLOT
100
AcDbPolyline
 90
5
 70
1
 10
156.95981350542937
 20
141.42135623730957
 10
160.52391512056712
 20
141.42135623730957
 10
160.52391512056712
 20
282.84271247461913
 10
156.95981350542937
 20
282.84271247461913
 10
156.95981350542937
 20
141.42135623730957
  0
LWPOLYLINE
  5
10C
330
17
100
AcDbEntity
  8
CUT_SLOT
100
AcDbPolyline
 90
5
 70
1
 10
180.05382427301438
 20
141.42135623730957
 10
183.61792588815214
 20
141.42135623730957
 10
183.61792588815214
 20
282.84271247461913
 10
180.05382427301438
 20
282.84271247461913
 10
180.05382427301438
 20
141.42135623730957
  0
LWPOLYLINE
  5
10D
330
17
100
AcDbEntity
  8
CUT_SLOT
100
AcDbPolyline
 90
5
 70
1
 10
203.1478350405994
 20
141.42135623730957
 10
206.71193665573716
 20
141.42135623730957
 10
206.71193665573716
 20
282.84271247461913
 10
203.1478350405994
 20
282.84271247461913
 10
203.1478350405994
 20
141.42135623730957
  0
LWPOLYLINE
  5
10E
330
17
100
AcDbEntity
  8
CUT_SLOT
100
AcDbPolyline
 90
5
 70
1
 10
226.24184580818442
 20
141.42135623730957
 10
229.80594742332218
 20
141.42135623730957
 10
229.80594742332218
 20
282.84271247461913
 10
226.24184580818442
 20
282.84271247461913
 10
226.24184580818442
 20
141.42135623730957
  0
LWPOLYLINE
  5
10F
330
17
100
AcDbEntity
  8
CUT_OUTLINE
100
AcDbPolyline
 90
5
 70
1
 10
0.0
 20
0.0
 10
282.842712474619
 20
0.0
 10
282.842712474619
 20
282.84271247461913
 10
0.0
 20
282.84271247461913
 10
0.0
 20
0.0
  0
ENDSEC
  0
SECTION
  2
OBJECTS
  0
DICTIONARY
  5
A
330
0
100
AcDbDictionary
281
1
  3
ACAD_COLOR
350
B
  3
ACAD_GROUP
350
C
  3
ACAD_LAYOUT
350
D
  3
ACAD_MATERIAL
350
E
  3
ACAD_MLEADERSTYLE
350
F
  3
ACAD_MLINESTYLE
350
10
  3
ACAD_PLOTSETTINGS
350
11
  3
ACAD_PLOTSTYLENAME
350
12
  3
ACAD_SCALELIST
350
14
  3
ACAD_TABLESTYLE
350
15
  3
ACAD_VISUALSTYLE
350
16
  3
EZDXF_META
350
2D
  0
DICTIONARY
  5
B
330
A
100
AcDbDictionary
281
1
  0
DICTIONARY
  5
C
330
A
100
AcDbDictionary
281
1
  0
DICTIONARY
  5
D
330
A
100
AcDbDictionary
281
1
  3
Model
350
1A
  3
Layout1
350
1E
  0
DICTIONARY
  5
E
330
A
100
AcDbDictionary
281
1
  3
ByBlock
350
1F
  3
ByLayer
350
20
  3
Global
350
21
  0
DICTIONARY
  5
F
330
A
100
AcDbDictionary
281
1
  3
Standard
350
2C
  0
DICTIONARY
  5
10
330
A
100
AcDbDictionary
281
1
  3
Standard
350
22
  0
DICTIONARY
  5
11
330
A
100
AcDbDictionary
281
1
  0
ACDBDICTIONARYWDFLT
  5
12
330
A
100
AcDbDictionary
281
1
  3
Normal
350
13
100
AcDbDictionaryWithDefault
340
13
  0
ACDBPLACEHOLDER
  5
13
330
12
  0
DICTIONARY
  5
14
330
A
100
AcDbDictionary
281
1
  0
DICTIONARY
  5
15
330
A
100
AcDbDictionary
281
1
  0
DICTIONARY
  5
16
330
A
100
AcDbDictionary
281
1
  0
LAYOUT
  5
1A
330
D
100
AcDbPlotSettings
  1

  4
A3
  6

 40
7.5
 41
20.0
 42
7.5
 43
20.0
 44
420.0
 45
297.0
 46
0.0
 47
0.0
 48
0.0
 49
0.0
140
0.0
141
0.0
142
1.0
143
1.0
 70
1024
 72
1
 73
0
 74
5
  7

 75
16
 76
0
 77
2
 78
300
147
1.0
148
0.0
149
0.0
100
AcDbLayout
  1
Model
 70
1
 71
0
 10
0.0
 20
0.0
 11
420.0
 21
297.0
 12
0.0
 22
0.0
 32
0.0
 14
1e+20
 24
1e+20
 34
1e+20
 15
-1e+20
 25
-1e+20
 35
-1e+20
146
0.0
 13
0.0
 23
0.0
 33
0.0
 16
1.0
 26
0.0
 36
0.0
 17
0.0
 27
1.0
 37
0.0
 76
1
330
17
  0
LAYOUT
  5
1E
330
D
100
AcDbPlotSettings
  1

  4
A3
  6

 40
7.5
 41
20.0
 42
7.5
 43
20.0
 44
420.0
 45
297.0
 46
0.0
 47
0.0
 48
0.0
 49
0.0
140
0.0
141
0.0
142
1.0
143
1.0
 70
0
 72
1
 73
0
 74
5
  7

 75
16
 76
0
 77
2
 78
300
147
1.0
148
0.0
149
0.0
100
AcDbLayout
  1
Layout1
 70
1
 71
1
 10
0.0
 20
0.0
 11
420.0
 21
297.0
 12
0.0
 22
0.0
 32
0.0
 14
1e+20
 24
1e+20
 34
1e+20
 15
-1e+20
 25
-1e+20
 35
-1e+20
146
0.0
 13
0.0
 23
0.0
 33
0.0
 16
1.0
 26
0.0
 36
0.0
 17
0.0
 27
1.0
 37
0.0
 76
1
330
1B
  0
MATERIAL
  5
1F
102
{ACAD_REACTORS
330
E
102
}
330
E
100
AcDbMaterial
  1
ByBlock
  2

 70
0
 40
1.0
 71
1
 41
1.0
 91
-1023410177
 42
1.0
 72
1
  3

 73
1
 74
1
 75
1
 44
0.5
 73
0
 45
1.0
 46
1.0
 77
1
  4

 78
1
 79
1
170
1
 48
1.0
171
1
  6

172
1
173
1
174
1
140
1.0
141
1.0
175
1
  7

176
1
177
1
178
1
143
1.0
179
1
  8

270
1
271
1
272
1
145
1.0
146
1.0
273
1
  9

274
1
275
1
276
1
 42
1.0
 72
1
  3

 73
1
 74
1
 75
1
 94
63
  0
MATERIAL
  5
20
102
{ACAD_REACTORS
330
E
102
}
330
E
100
AcDbMaterial
  1
ByLayer
  2

 70
0
 40
1.0
 71
1
 41
1.0
 91
-1023410177
 42
1.0
 72
1
  3

 73
1
 74
1
 75
1
 44
0.5
 73
0
 45
1.0
 46
1.0
 77
1
  4

 78
1
 79
1
170
1
 48
1.0
171
1
  6

172
1
173
1
174
1
140
1.0
141
1.0
175
1
  7

176
1
177
1
178
1
143
1.0
179
1
  8

270
1
271
1
272
1
145
1.0
146
1.0
273
1
  9

274
1
275
1
276
1
 42
1.0
 72
1
  3

 73
1
 74
1
 75
1
 94
63
  0
MATERIAL
  5
21
102
{ACAD_REACTORS
330
E
102
}
330
E
100
AcDbMaterial
  1
Global
  2

 70
0
 40
1.0
 71
1
 41
1.0
 91
-1023410177
 42
1.0
 72
1
  3

 73
1
 74
1
 75
1
 44
0.5
 73
0
 45
1.0
 46
1.0
 77
1
  4

 78
1
 79
1
170
1
 48
1.0
171
1
  6

172
1
173
1
174
1
140
1.0
141
1.0
175
1
  7

176
1
177
1
178
1
143
1.0
179
1
  8

270
1
271
1
272
1
145
1.0
146
1.0
273
1
  9

274
1
275
1
276
1
 42
1.0
 72
1
  3

 73
1
 74
1
 75
1
 94
63
  0
MLINESTYLE
  5
22
102
{ACAD_REACTORS
330
10
102
}
330
10
100
AcDbMlineStyle
  2
Standard
 70
0
  3

 62
256
 51
90.0
 52
90.0
 71
2
 49
0.5
 62
256
  6
BYLAYER
 49
-0.5
 62
256
  6
BYLAYER
  0
MLEADERSTYLE
  5
2C
102
{ACAD_REACTORS
330
F
102
}
330
F
100
AcDbMLeaderStyle
179
2
170
2
171
1
172
0
 90
2
 40
0.0
 41
0.0
173
1
 91
-1056964608
 92
-2
290
1
 42
2.0
291
1
 43
8.0
  3
Standard
 44
4.0
300

342
29
174
1
175
1
176
0
178
1
 93
-1056964608
 45
4.0
292
0
297
0
 46
4.0
 94
-1056964608
 47
1.0
 49
1.0
140
1.0
294
1
141
0.0
177
0
142
1.0
295
0
296
0
143
3.75
271
0
272
9
273
9
  0
DICTIONARY
  5
2D
330
A
100
AcDbDictionary
280
1
281
1
  3
CREATED_BY_EZDXF
350
2E
  3
WRITTEN_BY_EZDXF
350
112
  0
DICTIONARYVAR
  5
2E
330
2D
100
DictionaryVariables
280
0
  1
1.4.4 @ 2026-08-03T12:25:46.360033+00:00
  0
DICTIONARYVAR
  5
112
330
2D
100
DictionaryVariables
280
0
  1
1.4.4 @ 2026-08-03T12:25:46.390555+00:00
  0
ENDSEC
  0
EOF
