  0
SECTION
  2
HEADER
  9
$ACADVER
  1
AC1027
  9
$ACADMAINTVER
 70
105
  9
$DWGCODEPAGE
  3
ANSI_1252
  9
$LASTSAVEDBY
  1
ezdxf
  9
$REQUIREDVERSIONS
160
0
  9
$INSBASE
 10
0.0
 20
0.0
 30
0.0
  9
$EXTMIN
 10
1e+20
 20
1e+20
 30
1e+20
  9
$EXTMAX
 10
-1e+20
 20
-1e+20
 30
-1e+20
  9
$LIMMIN
 10
0.0
 20
0.0
  9
$LIMMAX
 10
420.0
 20
297.0
  9
$ORTHOMODE
 70
0
  9
$REGENMODE
 70
1
  9
$FILLMODE
 70
1
  9
$QTEXTMODE
 70
0
  9
$MIRRTEXT
 70
1
  9
$LTSCALE
 40
1.0
  9
$ATTMODE
 70
1
  9
$TEXTSIZE
 40
2.5
  9
$TRACEWID
 40
1.0
  9
$TEXTSTYLE
  7
Standard
  9
$CLAYER
  8
0
  9
$CELTYPE
  6
ByLayer
  9
$CECOLOR
 62
256
  9
$CELTSCALE
 40
1.0
  9
$DISPSILH
 70
0
  9
$DIMSCALE
 40
1.0
  9
$DIMASZ
 40
2.5
  9
$DIMEXO
 40
0.625
  9
$DIMDLI
 40
3.75
  9
$DIMRND
 40
0.0
  9
$DIMDLE
 40
0.0
  9
$DIMEXE
 40
1.25
  9
$DIMTP
 40
0.0
  9
$DIMTM
 40
0.0
  9
$DIMTXT
 40
2.5
  9
$DIMCEN
 40
2.5
  9
$DIMTSZ
 40
0.0
  9
$DIMTOL
 70
0
  9
$DIMLIM
 70
0
  9
$DIMTIH
 70
0
  9
$DIMTOH
 70
0
  9
$DIMSE1
 70
0
  9
$DIMSE2
 70
0
  9
$DIMTAD
 70
1
  9
$DIMZIN
 70
8
  9
$DIMBLK
  1

  9
$DIMASO
 70
1
  9
$DIMSHO
 70
1
  9
$DIMPOST
  1

  9
$DIMAPOST
  1

  9
$DIMALT
 70
0
  9
$DIMALTD
 70
3
  9
$DIMALTF
 40
0.03937007874
  9
$DIMLFAC
 40
1.0
  9
$DIMTOFL
 70
1
  9
$DIMTVP
 40
0.0
  9
$DIMTIX
 70
0
  9
$DIMSOXD
 70
0
  9
$DIMSAH
 70
0
  9
$DIMBLK1
  1

  9
$DIMBLK2
  1

  9
$DIMSTYLE
  2
ISO-25
  9
$DIMCLRD
 70
0
  9
$DIMCLRE
 70
0
  9
$DIMCLRT
 70
0
  9
$DIMTFAC
 40
1.0
  9
$DIMGAP
 40
0.625
  9
$DIMJUST
 70
0
  9
$DIMSD1
 70
0
  9
$DIMSD2
 70
0
  9
$DIMTOLJ
 70
0
  9
$DIMTZIN
 70
8
  9
$DIMALTZ
 70
0
  9
$DIMALTTZ
 70
0
  9
$DIMUPT
 70
0
  9
$DIMDEC
 70
2
  9
$DIMTDEC
 70
2
  9
$DIMALTU
 70
2
  9
$DIMALTTD
 70
3
  9
$DIMTXSTY
  7
Standard
  9
$DIMAUNIT
 70
0
  9
$DIMADEC
 70
0
  9
$DIMALTRND
 40
0.0
  9
$DIMAZIN
 70
0
  9
$DIMDSEP
 70
44
  9
$DIMATFIT
 70
3
  9
$DIMFRAC
 70
0
  9
$DIMLDRBLK
  1

  9
$DIMLUNIT
 70
2
  9
$DIMLWD
 70
-2
  9
$DIMLWE
 70
-2
  9
$DIMTMOVE
 70
0
  9
$DIMFXL
 40
1.0
  9
$DIMFXLON
 70
0
  9
$DIMJOGANG
 40
0.785398163397
  9
$DIMTFILL
 70
0
  9
$DIMTFILLCLR
 70
0
  9
$DIMARCSYM
 70
0
  9
$DIMLTYPE
  6

  9
$DIMLTEX1
  6

  9
$DIMLTEX2
  6

  9
$DIMTXTDIRECTION
 70
0
  9
$LUNITS
 70
2
  9
$LUPREC
 70
4
  9
$SKETCHINC
 40
1.0
  9
$FILLETRAD
 40
10.0
  9
$AUNITS
 70
0
  9
$AUPREC
 70
2
  9
$MENU
  1
.
  9
$ELEVATION
 40
0.0
  9
$PELEVATION
 40
0.0
  9
$THICKNESS
 40
0.0
  9
$LIMCHECK
 70
0
  9
$CHAMFERA
 40
0.0
  9
$CHAMFERB
 40
0.0
  9
$CHAMFERC
 40
0.0
  9
$CHAMFERD
 40
0.0
  9
$SKPOLY
 70
0
  9
$TDCREATE
 40
2461256.6428935183
  9
$TDUCREATE
 40
2458532.153996898
  9
$TDUPDATE
 40
2461256.6428935183
  9
$TDUUPDATE
 40
2458532.1544311
  9
$TDINDWG
 40
0.0
  9
$TDUSRTIMER
 40
0.0
  9
$USRTIMER
 70
1
  9
$ANGBASE
 50
0.0
  9
$ANGDIR
 70
0
  9
$PDMODE
 70
0
  9
$PDSIZE
 40
0.0
  9
$PLINEWID
 40
0.0
  9
$SPLFRAME
 70
0
  9
$SPLINETYPE
 70
6
  9
$SPLINESEGS
 70
8
  9
$HANDSEED
  5
1C8
  9
$SURFTAB1
 70
6
  9
$SURFTAB2
 70
6
  9
$SURFTYPE
 70
6
  9
$SURFU
 70
6
  9
$SURFV
 70
6
  9
$UCSBASE
  2

  9
$UCSNAME
  2

  9
$UCSORG
 10
0.0
 20
0.0
 30
0.0
  9
$UCSXDIR
 10
1.0
 20
0.0
 30
0.0
  9
$UCSYDIR
 10
0.0
 20
1.0
 30
0.0
  9
$UCSORTHOREF
  2

  9
$UCSORTHOVIEW
 70
0
  9
$UCSORGTOP
 10
0.0
 20
0.0
 30
0.0
  9
$UCSORGBOTTOM
 10
0.0
 20
0.0
 30
0.0
  9
$UCSORGLEFT
 10
0.0
 20
0.0
 30
0.0
  9
$UCSORGRIGHT
 10
0.0
 20
0.0
 30
0.0
  9
$UCSORGFRONT
 10
0.0
 20
0.0
 30
0.0
  9
$UCSORGBACK
 10
0.0
 20
0.0
 30
0.0
  9
$PUCSBASE
  2

  9
$PUCSNAME
  2

  9
$PUCSORG
 10
0.0
 20
0.0
 30
0.0
  9
$PUCSXDIR
 10
1.0
 20
0.0
 30
0.0
  9
$PUCSYDIR
 10
0.0
 20
1.0
 30
0.0
  9
$PUCSORTHOREF
  2

  9
$PUCSORTHOVIEW
 70
0
  9
$PUCSORGTOP
 10
0.0
 20
0.0
 30
0.0
  9
$PUCSORGBOTTOM
 10
0.0
 20
0.0
 30
0.0
  9
$PUCSORGLEFT
 10
0.0
 20
0.0
 30
0.0
  9
$PUCSORGRIGHT
 10
0.0
 20
0.0
 30
0.0
  9
$PUCSORGFRONT
 10
0.0
 20
0.0
 30
0.0
  9
$PUCSORGBACK
 10
0.0
 20
0.0
 30
0.0
  9
$USERI1
 70
0
  9
$USERI2
 70
0
  9
$USERI3
 70
0
  9
$USERI4
 70
0
  9
$USERI5
 70
0
  9
$USERR1
 40
0.0
  9
$USERR2
 40
0.0
  9
$USERR3
 40
0.0
  9
$USERR4
 40
0.0
  9
$USERR5
 40
0.0
  9
$WORLDVIEW
 70
1
  9
$SHADEDGE
 70
3
  9
$SHADEDIF
 70
70
  9
$TILEMODE
 70
1
  9
$MAXACTVP
 70
64
  9
$PINSBASE
 10
0.0
 20
0.0
 30
0.0
  9
$PLIMCHECK
 70
0
  9
$PEXTMIN
 10
1e+20
 20
1e+20
 30
1e+20
  9
$PEXTMAX
 10
-1e+20
 20
-1e+20
 30
-1e+20
  9
$PLIMMIN
 10
0.0
 20
0.0
  9
$PLIMMAX
 10
420.0
 20
297.0
  9
$UNITMODE
 70
0
  9
$VISRETAIN
 70
1
  9
$PLINEGEN
 70
0
  9
$PSLTSCALE
 70
1
  9
$TREEDEPTH
 70
3020
  9
$CMLSTYLE
  2
Standard
  9
$CMLJUST
 70
0
  9
$CMLSCALE
 40
20.0
  9
$PROXYGRAPHICS
 70
1
  9
$MEASUREMENT
 70
1
  9
$CELWEIGHT
370
-1
  9
$ENDCAPS
280
0
  9
$JOINSTYLE
280
0
  9
$LWDISPLAY
290
0
  9
$INSUNITS
 70
4
  9
$HYPERLINKBASE
  1

  9
$STYLESHEET
  1

  9
$XEDIT
290
1
  9
$CEPSNTYPE
380
0
  9
$PSTYLEMODE
290
1
  9
$FINGERPRINTGUID
  2
{37C3D030-A4E8-4B7D-9D65-BC399AB3F2B5}
  9
$VERSIONGUID
  2
{85A72D44-C43E-46A1-814C-5DFCFD8F8672}
  9
$EXTNAMES
290
1
  9
$PSVPSCALE
 40
0.0
  9
$OLESTARTUP
290
0
  9
$SORTENTS
280
127
  9
$INDEXCTL
280
0
  9
$HIDETEXT
280
1
  9
$XCLIPFRAME
280
1
  9
$HALOGAP
280
0
  9
$OBSCOLOR
 70
257
  9
$OBSLTYPE
280
0
  9
$INTERSECTIONDISPLAY
280
0
  9
$INTERSECTIONCOLOR
 70
257
  9
$DIMASSOC
280
2
  9
$PROJECTNAME
  1

  9
$CAMERADISPLAY
290
0
  9
$LENSLENGTH
 40
50.0
  9
$CAMERAHEIGHT
 40
0.0
  9
$STEPSPERSEC
 40
24.0
  9
$STEPSIZE
 40
100.0
  9
$3DDWFPREC
 40
2.0
  9
$PSOLWIDTH
 40
0.005
  9
$PSOLHEIGHT
 40
0.08
  9
$LOFTANG1
 40
1.570796326795
  9
$LOFTANG2
 40
1.570796326795
  9
$LOFTMAG1
 40
0.0
  9
$LOFTMAG2
 40
0.0
  9
$LOFTPARAM
 70
7
  9
$LOFTNORMALS
280
1
  9
$LATITUDE
 40
37.795
  9
$LONGITUDE
 40
-122.394
  9
$NORTHDIRECTION
 40
0.0
  9
$TIMEZONE
 70
-8000
  9
$LIGHTGLYPHDISPLAY
280
1
  9
$TILEMODELIGHTSYNCH
280
1
  9
$CMATERIAL
347
20
  9
$SOLIDHIST
280
0
  9
$SHOWHIST
280
1
  9
$DWFFRAME
280
2
  9
$DGNFRAME
280
2
  9
$REALWORLDSCALE
290
1
  9
$INTERFERECOLOR
 62
256
  9
$CSHADOW
280
0
  9
$SHADOWPLANELOCATION
 40
0.0
  0
ENDSEC
  0
SECTION
  2
CLASSES
  0
CLASS
  1
ACDBDICTIONARYWDFLT
  2
AcDbDictionaryWithDefault
  3
ObjectDBX Classes
 90
0
 91
0
280
0
281
0
  0
CLASS
  1
SUN
  2
AcDbSun
  3
SCENEOE
 90
1153
 91
0
280
0
281
0
  0
CLASS
  1
VISUALSTYLE
  2
AcDbVisualStyle
  3
ObjectDBX Classes
 90
4095
 91
0
280
0
281
0
  0
CLASS
  1
MATERIAL
  2
AcDbMaterial
  3
ObjectDBX Classes
 90
1153
 91
0
280
0
281
0
  0
CLASS
  1
SCALE
  2
AcDbScale
  3
ObjectDBX Classes
 90
1153
 91
0
280
0
281
0
  0
CLASS
  1
TABLESTYLE
  2
AcDbTableStyle
  3
ObjectDBX Classes
 90
4095
 91
0
280
0
281
0
  0
CLASS
  1
MLEADERSTYLE
  2
AcDbMLeaderStyle
  3
ACDB_MLEADERSTYLE_CLASS
 90
4095
 91
0
280
0
281
0
  0
CLASS
  1
DICTIONARYVAR
  2
AcDbDictionaryVar
  3
ObjectDBX Classes
 90
0
 91
0
280
0
281
0
  0
CLASS
  1
CELLSTYLEMAP
  2
AcDbCellStyleMap
  3
ObjectDBX Classes
 90
1152
 91
0
280
0
281
0
  0
CLASS
  1
MENTALRAYRENDERSETTINGS
  2
AcDbMentalRayRenderSettings
  3
SCENEOE
 90
1024
 91
0
280
0
281
0
  0
CLASS
  1
ACDBDETAILVIEWSTYLE
  2
AcDbDetailViewStyle
  3
ObjectDBX Classes
 90
1025
 91
0
280
0
281
0
  0
CLASS
  1
ACDBSECTIONVIEWSTYLE
  2
AcDbSectionViewStyle
  3
ObjectDBX Classes
 90
1025
 91
0
280
0
281
0
  0
CLASS
  1
RASTERVARIABLES
  2
AcDbRasterVariables
  3
ISM
 90
0
 91
0
280
0
281
0
  0
CLASS
  1
LAYOUT
  2
AcDbLayout
  3
ObjectDBX Classes
 90
0
 91
0
280
0
281
0
  0
CLASS
  1
ACDBPLACEHOLDER
  2
AcDbPlaceHolder
  3
ObjectDBX Classes
 90
0
 91
0
280
0
281
0
  0
ENDSEC
  0
SECTION
  2
TABLES
  0
TABLE
  2
VPORT
  5
8
330
0
100
AcDbSymbolTable
 70
1
  0
VPORT
  5
23
330
8
100
AcDbSymbolTableRecord
100
AcDbViewportTableRecord
  2
*Active
 70
0
 10
0.0
 20
0.0
 11
1.0
 21
1.0
 12
0.0
 22
0.0
 13
0.0
 23
0.0
 14
0.5
 24
0.5
 15
0.5
 25
0.5
 16
0.0
 26
0.0
 36
1.0
 17
0.0
 27
0.0
 37
0.0
 40
1000.0
 41
1.34
 42
50.0
 43
0.0
 44
0.0
 50
0.0
 51
0.0
 71
0
 72
1000
 73
1
 74
3
 75
0
 76
0
 77
0
 78
0
281
0
 65
0
146
0.0
  0
ENDTAB
  0
TABLE
  2
LTYPE
  5
2
330
0
100
AcDbSymbolTable
 70
3
  0
LTYPE
  5
24
330
2
100
AcDbSymbolTableRecord
100
AcDbLinetypeTableRecord
  2
ByBlock
 70
0
  3

 72
65
 73
0
 40
0.0
  0
LTYPE
  5
25
330
2
100
AcDbSymbolTableRecord
100
AcDbLinetypeTableRecord
  2
ByLayer
 70
0
  3

 72
65
 73
0
 40
0.0
  0
LTYPE
  5
26
330
2
100
AcDbSymbolTableRecord
100
AcDbLinetypeTableRecord
  2
Continuous
 70
0
  3

 72
65
 73
0
 40
0.0
  0
ENDTAB
  0
TABLE
  2
LAYER
  5
1
330
0
100
AcDbSymbolTable
 70
7
  0
LAYER
  5
27
330
1
100
AcDbSymbolTableRecord
100
AcDbLayerTableRecord
  2
0
 70
0
 62
7
  6
Continuous
370
-3
390
13
347
21
  0
LAYER
  5
28
330
1
100
AcDbSymbolTableRecord
100
AcDbLayerTableRecord
  2
Defpoints
 70
0
 62
7
  6
Continuous
290
0
370
-3
390
13
347
21
  0
LAYER
  5
2F
330
1
100
AcDbSymbolTableRecord
100
AcDbLayerTableRecord
  2
ENG_L
 70
0
 62
4
  6
Continuous
370
-3
390
13
347
21
  0
LAYER
  5
30
330
1
100
AcDbSymbolTableRecord
100
AcDbLayerTableRecord
  2
ENG_D
 70
0
 62
3
  6
Continuous
370
-3
390
13
347
21
  0
LAYER
  5
31
330
1
100
AcDbSymbolTableRecord
100
AcDbLayerTableRecord
  2
ENG_K
 70
0
 62
2
  6
Continuous
370
-3
390
13
347
21
  0
LAYER
  5
32
330
1
100
AcDbSymbolTableRecord
100
AcDbLayerTableRecord
  2
CUT_OUTLINE
 70
0
 62
5
  6
Continuous
370
-3
390
13
347
21
  0
LAYER
  5
33
330
1
100
AcDbSymbolTableRecord
100
AcDbLayerTableRecord
  2
CUT_SLOT
 70
0
 62
1
  6
Continuous
370
-3
390
13
347
21
  0
ENDTAB
  0
TABLE
  2
STYLE
  5
5
330
0
100
AcDbSymbolTable
 70
1
  0
STYLE
  5
29
330
5
100
AcDbSymbolTableRecord
100
AcDbTextStyleTableRecord
  2
Standard
 70
0
 40
0.0
 41
1.0
 50
0.0
 71
0
 42
2.5
  3
txt
  4

  0
ENDTAB
  0
TABLE
  2
VIEW
  5
7
330
0
100
AcDbSymbolTable
 70
0
  0
ENDTAB
  0
TABLE
  2
UCS
  5
6
330
0
100
AcDbSymbolTable
 70
0
  0
ENDTAB
  0
TABLE
  2
APPID
  5
3
330
0
100
AcDbSymbolTable
 70
3
  0
APPID
  5
2A
330
3
100
AcDbSymbolTableRecord
100
AcDbRegAppTableRecord
  2
ACAD
 70
0
  0
APPID
  5
1C5
330
3
100
AcDbSymbolTableRecord
100
AcDbRegAppTableRecord
  2
HATCHBACKGROUNDCOLOR
 70
0
  0
APPID
  5
1C6
330
3
100
AcDbSymbolTableRecord
100
AcDbRegAppTableRecord
  2
EZDXF
 70
0
  0
ENDTAB
  0
TABLE
  2
DIMSTYLE
  5
4
330
0
100
AcDbSymbolTable
 70
1
100
AcDbDimStyleTable
  0
DIMSTYLE
105
2B
330
4
100
AcDbSymbolTableRecord
100
AcDbDimStyleTableRecord
  2
Standard
 70
0
 40
1.0
 41
2.5
 42
0.625
 43
3.75
 44
1.25
 45
0.0
 46
0.0
 47
0.0
 48
0.0
 49
2.5
140
2.5
141
2.5
142
0.0
143
0.03937007874
144
1.0
145
0.0
146
1.0
147
0.625
148
0.0
 69
0
 70
0
 71
0
 72
0
 73
0
 74
0
 75
0
 76
0
 77
1
 78
8
 79
3
170
0
171
3
172
1
173
0
174
0
175
0
176
0
177
0
178
0
179
2
271
2
272
2
273
2
274
3
275
0
276
0
277
2
278
44
279
0
280
0
281
0
282
0
283
0
284
8
285
0
286
0
288
0
289
3
290
0
371
-2
372
-2
  0
ENDTAB
  0
TABLE
  2
BLOCK_RECORD
  5
9
330
0
100
AcDbSymbolTable
 70
2
  0
BLOCK_RECORD
  5
17
330
9
100
AcDbSymbolTableRecord
100
AcDbBlockTableRecord
  2
*Model_Space
340
1A
 70
0
280
1
281
0
  0
BLOCK_RECORD
  5
1B
330
9
100
AcDbSymbolTableRecord
100
AcDbBlockTableRecord
  2
*Paper_Space
340
1E
 70
0
280
1
281
0
  0
ENDTAB
  0
ENDSEC
  0
SECTION
  2
BLOCKS
  0
BLOCK
  5
18
330
17
100
AcDbEntity
  8
0
100
AcDbBlockBegin
  2
*Model_Space
 70
0
 10
0.0
 20
0.0
 30
0.0
  3
*Model_Space
  1

  0
ENDBLK
  5
19
330
17
100
AcDbEntity
  8
0
100
AcDbBlockEnd
  0
BLOCK
  5
1C
330
1B
100
AcDbEntity
  8
0
100
AcDbBlockBegin
  2
*Paper_Space
 70
0
 10
0.0
 20
0.0
 30
0.0
  3
*Paper_Space
  1

  0
ENDBLK
  5
1D
330
1B
100
AcDbEntity
  8
0
100
AcDbBlockEnd
  0
ENDSEC
  0
SECTION
  2
ENTITIES
  0
LWPOLYLINE
  5
34
330
17
100
AcDbEntity
  8
ENG_L
100
AcDbPolyline
 90
6
 70
1
 10
222.48836396330802
 20
33.891615369836536
 10
222.8499113149182
 20
35.69935212788755
 10
224.38855189653108
 20
33.5452553136294
 10
224.38855189653108
 20
32.29120967418575
 10
223.55530109374192
 20
32.29120967418575
 10
222.48836396330802
 20
33.891615369836536
  0
LWPOLYLINE
  5
35
330
17
100
AcDbEntity
  8
ENG_L
100
AcDbPolyline
 90
5
 70
1
 10
222.03152929257595
 20
35.11963679893193
 10
222.03152929257595
 20
35.924374653056205
 10
222.6059394781586
 20
36.49878483863878
 10
223.0656554913943
 20
35.11963679893193
 10
222.03152929257595
 20
35.11963679893193
  0
LWPOLYLINE
  5
36
330
17
100
AcDbEntity
  8
ENG_L
100
AcDbPolyline
 90
5
 70
1
 10
221.56012477178487
 20
36.867183694638264
 10
222.1345349573676
 20
37.441593880221056
 10
222.59425097060327
 20
36.06244584051399
 10
221.56012477178487
 20
36.06244584051399
 10
221.56012477178487
 20
36.867183694638264
  0
LWPOLYLINE
  5
37
330
17
100
AcDbEntity
  8
ENG_L
100
AcDbPolyline
 90
6
 70
1
 10
199.87551681539745
 20
220.38161346980735
 10
199.02273802606132
 20
220.38161346980735
 10
198.44252505958093
 20
221.54203940276807
 10
198.82970210902374
 20
222.70357055109648
 10
199.87551681539745
 20
221.65775584472257
 10
199.87551681539745
 20
220.38161346980735
  0
LWPOLYLINE
  5
38
330
17
100
AcDbEntity
  8
ENG_L
100
AcDbPolyline
 90
20
 70
1
 10
196.53874664339256
 20
227.35154862068296
 10
197.47650489440818
 20
226.41379036966725
 10
199.07837978196505
 20
223.2100405945534
 10
197.6207441197006
 20
223.2100405945534
 10
196.89520744241202
 20
224.41926839003457
 10
194.99913449449127
 20
224.8932866270148
 10
194.5229105191792
 20
225.84573457763878
 10
193.61566741989176
 20
226.148148944068
 10
194.69006708669608
 20
227.7597484442746
 10
194.69006708669608
 20
228.53356151071247
 10
192.84643832056605
 20
230.37719027684255
 10
191.90781016378762
 20
232.2544465903995
 10
188.56180831641268
 20
235.12244817386386
 10
188.56180831641268
 20
236.27129598924478
 10
188.93558176426592
 20
236.64506943709807
 10
187.58502920376782
 20
237.99562199759606
 10
187.98739813082997
 20
239.20272877878256
 10
190.8616399619502
 20
236.3284869476623
 10
195.13128389166943
 20
230.63562837470332
 10
196.53874664339256
 20
227.35154862068296
  0
LWPOLYLINE
  5
39
330
17
100
AcDbEntity
  8
ENG_L
100
AcDbPolyline
 90
5
 70
1
 10
191.86163996194992
 20
225.868051205536
 10
192.9438963673061
 20
227.67181188112963
 10
193.3119182535078
 20
225.09565867771752
 10
191.86163996194992
 20
225.09565867771752
 10
191.86163996194992
 20
225.868051205536
  0
LWPOLYLINE
  5
3A
330
17
100
AcDbEntity
  8
ENG_L
100
AcDbPolyline
 90
4
 70
1
 10
192.09734222234542
 20
223.58381404240646
 10
192.09734222234542
 20
225.19328975065588
 10
192.90208007646976
 20
224.38855189653117
 10
192.09734222234542
 20
223.58381404240646
  0
LWPOLYLINE
  5
3B
330
17
100
AcDbEntity
  8
ENG_L
100
AcDbPolyline
 90
4
 70
1
 10
187.3832970144351
 20
238.19735418692844
 10
187.3832970144351
 20
239.80682989517788
 10
188.1880348685594
 20
239.00209204105317
 10
187.3832970144351
 20
238.19735418692844
  0
LWPOLYLINE
  5
3C
330
17
100
AcDbEntity
  8
ENG_L
100
AcDbPolyline
 90
10
 70
1
 10
185.55293930408382
 20
40.3729175948363
 10
184.19314659366606
 20
39.466389121224466
 10
183.81379303743958
 20
40.60444978990374
 10
185.16434559793763
 20
41.95500235040184
 10
186.84607481061673
 20
41.95500235040184
 10
187.18156482510236
 20
40.94853230694473
 10
186.67619023324855
 20
40.443157715090884
 10
186.67619023324855
 20
38.89087296526017
 10
185.76465996545184
 20
38.89087296526017
 10
185.55293930408382
 20
40.3729175948363
  0
LWPOLYLINE
  5
3D
330
17
100
AcDbEntity
  8
ENG_L
100
AcDbPolyline
 90
16
 70
1
 10
187.19868569698676
 20
32.10204754378076
 10
186.67619023324855
 20
31.057056616304422
 10
186.67619023324855
 20
28.1866401745241
 10
186.20478571245752
 20
27.715235653733018
 10
186.20478571245752
 20
25.082070674862457
 10
187.00952356658186
 20
24.277332820738184
 10
185.26197667087547
 20
24.277332820738184
 10
185.26197667087547
 20
28.853306841190808
 10
185.7333811916665
 20
29.32471136198178
 10
185.7333811916665
 20
30.58565209551345
 10
185.2108857279283
 20
31.63064302298979
 10
185.74207512953177
 20
32.16183242459325
 10
186.07513637535797
 20
35.8255061286813
 10
186.31086835813838
 20
35.827863212824276
 10
186.66561814941275
 20
32.63511509135486
 10
187.19868569698676
 20
32.10204754378076
  0
LWPOLYLINE
  5
3E
330
17
100
AcDbEntity
  8
ENG_L
100
AcDbPolyline
 90
5
 70
1
 10
186.3703172690254
 20
37.37944752441125
 10
186.72799850996304
 20
35.591041319722905
 10
185.40004785833315
 20
35.591041319722905
 10
184.64614500941258
 20
36.344944168643536
 10
186.3703172690254
 20
37.37944752441125
  0
LWPOLYLINE
  5
3F
330
17
100
AcDbEntity
  8
ENG_L
100
AcDbPolyline
 90
5
 70
1
 10
184.51980436702286
 20
39.494974081654924
 10
183.3126975858364
 20
39.09260515459279
 10
182.70431732919084
 20
39.70098541123834
 10
183.9114241103774
 20
40.10335433830059
 10
184.51980436702286
 20
39.494974081654924
  0
LWPOLYLINE
  5
40
330
17
100
AcDbEntity
  8
ENG_L
100
AcDbPolyline
 90
5
 70
1
 10
181.76150828760873
 20
39.229580890447366
 10
182.96861506879523
 20
39.63194981750951
 10
183.57699532544086
 20
39.02356956086395
 10
182.36988854425428
 20
38.62120063380181
 10
181.76150828760873
 20
39.229580890447366
  0
LWPOLYLINE
  5
41
330
17
100
AcDbEntity
  8
ENG_L
100
AcDbPolyline
 90
9
 70
1
 10
180.37224937073356
 20
236.11364474814312
 10
182.60415450736696
 20
237.22959731645977
 10
182.91952391697927
 20
235.65275026839828
 10
181.83500053421824
 20
234.02596519425666
 10
179.13371790059205
 20
234.56622172098207
 10
179.13371790059205
 20
235.3284869476626
 10
179.60512242138313
 20
235.79989146845358
 10
180.0119559610536
 20
235.39305792878307
 10
180.37224937073356
 20
236.11364474814312
  0
LWPOLYLINE
  5
42
330
17
100
AcDbEntity
  8
ENG_L
100
AcDbPolyline
 90
5
 70
1
 10
181.4907405045472
 20
37.94806392367811
 10
181.4907405045472
 20
38.75280177780238
 10
182.06515069012985
 20
39.32721196338529
 10
182.52486670336555
 20
37.94806392367811
 10
181.4907405045472
 20
37.94806392367811
  0
LWPOLYLINE
  5
43
330
17
100
AcDbEntity
  8
ENG_L
100
AcDbPolyline
 90
15
 70
1
 10
170.64843652635346
 20
237.44220647053038
 10
170.64843652635346
 20
236.07603384336917
 10
169.78309685835666
 20
235.21069417537223
 10
168.36785163186954
 20
235.49374322066984
 10
167.76891845866012
 20
236.6916095670888
 10
168.29141392239833
 20
237.21410503082674
 10
168.29141392239833
 20
238.43305644732447
 10
167.34860488081625
 20
239.37586548890644
 10
167.34860488081625
 20
240.53760220458665
 10
169.1586886265143
 20
241.83051916579944
 10
170.27466307850017
 20
241.83051916579944
 10
171.11984104714452
 20
240.98534119715498
 10
171.11984104714452
 20
239.05773379695682
 10
171.6717710735569
 20
237.953873744132
 10
170.64843652635346
 20
237.44220647053038
  0
LWPOLYLINE
  5
44
330
17
100
AcDbEntity
  8
ENG_L
100
AcDbPolyline
 90
17
 70
1
 10
165.82328020733198
 20
251.7434941405843
 10
165.36535572471433
 20
252.201418623202
 10
163.00833312075923
 20
252.201418623202
 10
162.06552407917707
 20
253.14422766478418
 10
162.5536626554547
 20
253.63236624106156
 10
168.41391997802575
 20
252.6556566872997
 10
171.59124556793554
 20
248.98951177586537
 10
171.59124556793554
 20
247.3612293936891
 10
170.13936280115277
 20
246.3933075491671
 10
169.87551206213953
 20
245.60175533212748
 10
168.86044951612706
 20
245.60175533212748
 10
168.3168927410011
 20
245.0581985570015
 10
166.40579583923417
 20
246.4232677725493
 10
166.40579583923417
 20
247.5430151711955
 10
167.34860488081625
 20
249.4286332543596
 10
167.34860488081625
 20
251.52559061580092
 10
165.82328020733198
 20
251.7434941405843
  0
LWPOLYLINE
  5
45
330
17
100
AcDbEntity
  8
ENG_L
100
AcDbPolyline
 90
5
 70
1
 10
167.34860488081625
 20
24.277332820738184
 10
167.34860488081625
 20
25.082070674862457
 10
167.92301506639893
 20
25.656480860445363
 10
168.38273107963462
 20
24.277332820738184
 10
167.34860488081625
 20
24.277332820738184
  0
LWPOLYLINE
  5
46
330
17
100
AcDbEntity
  8
ENG_L
100
AcDbPolyline
 90
4
 70
1
 10
167.9176404745451
 20
25.45584412271573
 10
167.11290262042073
 20
24.651106268591573
 10
167.11290262042073
 20
26.26058197683989
 10
167.9176404745451
 20
25.45584412271573
  0
LWPOLYLINE
  5
47
330
17
100
AcDbEntity
  8
ENG_L
100
AcDbPolyline
 90
23
 70
1
 10
166.8772003600252
 20
231.36198863545897
 10
166.8772003600252
 20
227.1456141190713
 10
165.92066966729203
 20
225.7108180799714
 10
165.44441381021196
 20
223.32953879457108
 10
164.5838387579451
 20
222.46896374230408
 10
160.7489415897418
 20
223.7472627983721
 10
160.7489415897418
 20
225.4289920110508
 10
161.69175063132388
 20
226.371801052633
 10
161.69175063132388
 20
227.78601461500614
 10
162.1631551521149
 20
228.2574191357971
 10
162.1631551521149
 20
232.02865530212534
 10
162.58346872995878
 20
232.44896887996936
 10
161.69175063132388
 20
234.2324050772391
 10
161.69175063132388
 20
235.31499294983837
 10
163.93707885375065
 20
238.0592829994712
 10
166.03202239138093
 20
238.0592829994712
 10
166.50342691217196
 20
237.58787847868
 10
166.03202239138096
 20
237.11647395788904
 10
166.40579583923417
 20
236.74270051003577
 10
166.40579583923417
 20
235.35699989632764
 10
167.84638878009787
 20
234.3966046024184
 10
167.3300318933761
 20
231.81482016880972
 10
166.8772003600252
 20
231.36198863545897
  0
LWPOLYLINE
  5
48
330
17
100
AcDbEntity
  8
ENG_L
100
AcDbPolyline
 90
4
 70
1
 10
165.69868905804762
 20
26.73198649763131
 10
166.50342691217196
 20
25.927248643506708
 10
165.69868905804762
 20
25.122510789382435
 10
165.69868905804762
 20
26.73198649763131
  0
LWPOLYLINE
  5
49
330
17
100
AcDbEntity
  8
ENG_L
100
AcDbPolyline
 90
9
 70
1
 10
164.95940064314172
 20
249.49646168144878
 10
166.41557567934663
 20
246.09871993030373
 10
166.0975043414279
 20
244.50836324071014
 10
161.69175063132388
 20
247.3591450531305
 10
161.69175063132388
 20
248.80395590472682
 10
161.2113192132643
 20
249.28438732278659
 10
161.47650387693844
 20
252.201418623202
 10
162.74625405443433
 20
252.201418623202
 10
164.95940064314172
 20
249.49646168144878
  0
LWPOLYLINE
  5
4A
330
17
100
AcDbEntity
  8
ENG_L
100
AcDbPolyline
 90
7
 70
1
 10
164.26215642346824
 20
23.08216017691178
 10
161.61122512570253
 20
24.4076258257947
 10
162.1673905753223
 20
25.519956725034266
 10
162.42270496128614
 20
28.839043742563963
 10
163.61359815834024
 20
28.442079343546034
 10
163.11512835783168
 20
25.94973034100323
 10
164.26215642346824
 20
23.08216017691178
  0
LWPOLYLINE
  5
4B
330
17
100
AcDbEntity
  8
ENG_L
100
AcDbPolyline
 90
4
 70
1
 10
162.73219074584372
 20
253.61563218557515
 10
161.92745289171938
 20
252.81089433145044
 10
161.92745289171938
 20
254.42037003969986
 10
162.73219074584372
 20
253.61563218557515
  0
LWPOLYLINE
  5
4C
330
17
100
AcDbEntity
  8
ENG_L
100
AcDbPolyline
 90
4
 70
1
 10
162.73219074584375
 20
124.92219800962346
 10
161.92745289171938
 20
124.11746015549919
 10
161.92745289171938
 20
125.72693586374773
 10
162.73219074584375
 20
124.92219800962346
  0
LWPOLYLINE
  5
4D
330
17
100
AcDbEntity
  8
ENG_L
100
AcDbPolyline
 90
5
 70
1
 10
161.22034611053286
 20
112.42997820866118
 10
161.22034611053286
 20
113.23471606278545
 10
161.7947562961155
 20
113.80912624836803
 10
162.2544723093512
 20
112.42997820866118
 10
161.22034611053286
 20
112.42997820866118
  0
LWPOLYLINE
  5
4E
330
17
100
AcDbEntity
  8
ENG_L
100
AcDbPolyline
 90
9
 70
1
 10
161.22034611053286
 20
117.62870961086247
 10
160.27753706895078
 20
119.20005801349942
 10
160.27753706895078
 20
123.36231243910079
 10
159.17252597331043
 20
123.91481798692095
 10
159.70850147522196
 20
124.45079348883237
 10
160.84657266267965
 20
124.45079348883237
 10
162.1631551521149
 20
123.13421099939714
 10
162.1631551521149
 20
119.20005801349942
 10
161.22034611053286
 20
117.62870961086247
  0
LWPOLYLINE
  5
4F
330
17
100
AcDbEntity
  8
ENG_L
100
AcDbPolyline
 90
4
 70
1
 10
160.98464385013733
 20
111.38953809414132
 10
160.98464385013733
 20
112.99901380238985
 10
161.7893817042617
 20
112.19427594826558
 10
160.98464385013733
 20
111.38953809414132
  0
LWPOLYLINE
  5
50
330
17
100
AcDbEntity
  8
ENG_L
100
AcDbPolyline
 90
14
 70
1
 10
158.39191898578665
 20
231.05958008981187
 10
158.39191898578665
 20
233.91427338528948
 10
160.30761380590351
 20
235.82996820540637
 10
161.76390288565884
 20
233.79116349374885
 10
161.31797718347065
 20
233.3452377915608
 10
161.78938170426167
 20
232.87383327076984
 10
161.22034611053286
 20
232.3047976770407
 10
161.22034611053286
 20
229.5256219209183
 10
159.80613254815972
 20
226.22579027538103
 10
159.80613254815972
 20
225.2337298651752
 10
158.39191898578665
 20
223.81951630280227
 10
156.96663687589466
 20
225.2447984126942
 10
157.45688467753192
 20
229.65702862742975
 10
158.39191898578665
 20
231.05958008981187
  0
LWPOLYLINE
  5
51
330
17
100
AcDbEntity
  8
ENG_L
100
AcDbPolyline
 90
5
 70
1
 10
158.19128224805718
 20
124.55379915362408
 10
159.39838902924373
 20
124.95616808068633
 10
160.0067692858892
 20
124.34778782404065
 10
158.7996625047027
 20
123.94541889697852
 10
158.19128224805718
 20
124.55379915362408
  0
LWPOLYLINE
  5
52
330
17
100
AcDbEntity
  8
ENG_L
100
AcDbPolyline
 90
5
 70
1
 10
155.95742700824616
 20
124.43063178947999
 10
155.32110793946578
 20
125.06695085826036
 10
157.05517479699887
 20
125.41376422976691
 10
157.69149386577928
 20
124.77744516098655
 10
155.95742700824616
 20
124.43063178947999
  0
LWPOLYLINE
  5
53
330
17
100
AcDbEntity
  8
ENG_L
100
AcDbPolyline
 90
32
 70
1
 10
146.07011569858815
 20
125.39360253041443
 10
148.09238443059004
 20
125.39360253041443
 10
149.50659799296315
 20
124.45079348883237
 10
151.67897133175734
 20
124.45079348883237
 10
153.7395604563363
 20
127.02652989455609
 10
154.57402422908547
 20
125.07944775814128
 10
156.0348963818315
 20
124.10553298964389
 10
156.0348963818315
 20
122.14941264078094
 10
156.5573918455697
 20
121.1044217133046
 10
156.1691614385557
 20
120.71619130629053
 10
157.44910994420457
 20
119.86289230252467
 10
157.44910994420457
 20
119.13189140799396
 10
155.95405117348602
 20
118.23485614556273
 10
154.4722150270084
 20
120.70458305635879
 10
152.30678974468273
 20
121.13766811282389
 10
151.57460059236377
 20
120.69835462143253
 10
152.26366021550325
 20
120.35382480986279
 10
152.26366021550325
 20
119.16771268719329
 10
151.85985408476978
 20
118.76390655645974
 10
152.89070858050485
 20
117.21762481285725
 10
151.19054381407395
 20
116.87759185957103
 10
150.82026722916004
 20
117.61814502939882
 10
149.98733518877407
 20
116.36874696881993
 10
146.93859009683007
 20
117.89311951479186
 10
145.12044014930282
 20
119.71126946231925
 10
146.45955705552353
 20
121.58603313102823
 10
147.0157703501974
 20
121.77143756258624
 10
146.90066922276023
 20
122.11674094489777
 10
143.8179333527679
 20
122.55713178346817
 10
142.69790326992472
 20
121.9971167420465
 10
142.3164704001553
 20
123.14141535135481
 10
146.07011569858815
 20
125.39360253041443
  0
LWPOLYLINE
  5
54
330
17
100
AcDbEntity
  8
ENG_L
100
AcDbPolyline
 90
5
 70
1
 10
154.6063850798539
 20
122.95324659312601
 10
154.25228396345904
 20
123.3073477095209
 10
154.16552122034759
 20
123.04705948018658
 10
154.50622049573383
 20
122.25209450428531
 10
154.6063850798539
 20
122.95324659312601
  0
LWPOLYLINE
  5
55
330
17
100
AcDbEntity
  8
ENG_L
100
AcDbPolyline
 90
4
 70
1
 10
149.99795476878435
 20
119.02964149973549
 10
150.04470879900583
 20
119.02964149973549
 10
150.00964327633972
 20
119.06470702240158
 10
149.99795476878435
 20
119.02964149973549
  0
LWPOLYLINE
  5
56
330
17
100
AcDbEntity
  8
ENG_L
100
AcDbPolyline
 90
10
 70
1
 10
151.79225569471222
 20
254.7102130404717
 10
154.48423858308703
 20
255.93384162609678
 10
155.61028792877457
 20
257.0598909717843
 10
156.5063009026225
 20
255.56653601537093
 10
156.5063009026225
 20
254.388556649789
 10
155.12831678410166
 20
253.9292286102821
 10
155.3885467415068
 20
252.62807882325666
 10
153.3559118720996
 20
252.918455233172
 10
151.79225569471222
 20
253.9608926847634
 10
151.79225569471222
 20
254.7102130404717
  0
LWPOLYLINE
  5
57
330
17
100
AcDbEntity
  8
ENG_L
100
AcDbPolyline
 90
13
 70
1
 10
154.43174715440708
 20
113.02367143992964
 10
154.98667808491047
 20
112.74620597467788
 10
155.49892087991995
 20
113.77069156469688
 10
156.05505808118397
 20
113.21455436343297
 10
155.7720090358865
 20
111.7993091369457
 10
153.72228260835666
 20
110.77444592318075
 10
148.8779116793416
 20
111.25888301608222
 10
147.07821048680188
 20
112.54438386789633
 10
147.07821048680188
 20
113.27053734198478
 10
148.4271383025433
 20
114.0798940314297
 10
152.80035048292595
 20
114.0798940314297
 10
154.52278784689113
 20
113.04643161305061
 10
154.43174715440708
 20
113.02367143992964
  0
LWPOLYLINE
  5
58
330
17
100
AcDbEntity
  8
ENG_L
100
AcDbPolyline
 90
5
 70
1
 10
153.85068086166183
 20
112.87840486674328
 10
152.70326391150667
 20
112.59155062920445
 10
153.16350013835086
 20
112.36143251578234
 10
153.27767763479653
 20
112.01890002644532
 10
153.85068086166183
 20
112.87840486674328
  0
LWPOLYLINE
  5
59
330
17
100
AcDbEntity
  8
ENG_L
100
AcDbPolyline
 90
23
 70
1
 10
140.57470076752105
 20
252.41465459291
 10
147.44839671495882
 20
252.6692359242968
 10
148.39479297623728
 20
253.61563218557515
 10
150.48973651386748
 20
253.61563218557515
 10
152.70925281290664
 20
250.90289004230516
 10
153.17677832627305
 20
249.50031350220604
 10
154.6206828194584
 20
248.05640900902048
 10
154.6206828194584
 20
246.91833782156291
 10
154.14927829866738
 20
246.44693330077195
 10
154.14927829866738
 20
242.6756971344437
 10
153.66224902638226
 20
242.18866786215852
 10
153.19084450559123
 20
239.36024073741225
 10
152.3565985678167
 20
238.52599479963766
 10
147.23748968180595
 20
238.76976188944775
 10
144.24978336205572
 20
240.76156610261455
 10
144.24978336205572
 20
242.6756971344437
 10
143.68074776832685
 20
243.24473272817238
 10
144.24978336205572
 20
243.81376832190148
 10
144.24978336205572
 20
245.07470905543283
 10
143.22644881485226
 20
247.1213781498396
 10
144.24978336205572
 20
247.63304542344144
 10
144.24978336205572
 20
249.26458379759487
 10
140.57470076752105
 20
252.41465459291
  0
LWPOLYLINE
  5
5A
330
17
100
AcDbEntity
  8
ENG_L
100
AcDbPolyline
 90
5
 70
1
 10
152.05061745043534
 20
27.924904927834614
 10
154.14927829866738
 20
27.025478850020825
 10
154.14927829866738
 20
23.805928299947098
 10
151.77601900857616
 20
23.805928299947098
 10
152.05061745043534
 20
27.924904927834614
  0
LWPOLYLINE
  5
5B
330
17
100
AcDbEntity
  8
ENG_L
100
AcDbPolyline
 90
5
 70
1
 10
142.57127206007814
 20
159.50139469403535
 10
144.80452121618012
 20
159.82043028776428
 10
145.45689014324213
 20
159.16806136070204
 10
143.2236409871403
 20
158.84902576697323
 10
142.57127206007814
 20
159.50139469403535
  0
LWPOLYLINE
  5
5C
330
17
100
AcDbEntity
  8
ENG_L
100
AcDbPolyline
 90
10
 70
1
 10
137.62576137908803
 20
25.421017258349444
 10
138.01851892698065
 20
26.599289902027312
 10
138.69056018550117
 20
25.927248643506708
 10
140.85232064358064
 20
25.927248643506708
 10
141.8927607581005
 20
26.967688758026576
 10
142.36416527889156
 20
26.4962842372356
 10
142.36416527889156
 20
22.391714737574063
 10
140.63568203599115
 20
22.391714737574063
 10
138.6549107498854
 20
23.87729320215326
 10
137.62576137908803
 20
25.421017258349444
  0
LWPOLYLINE
  5
5D
330
17
100
AcDbEntity
  8
ENG_L
100
AcDbPolyline
 90
5
 70
1
 10
134.35028842544403
 20
22.725048070907363
 10
134.92469861102674
 20
23.299458256489935
 10
135.38441462426238
 20
21.92031021678298
 10
134.35028842544403
 20
21.92031021678298
 10
134.35028842544403
 20
22.725048070907363
  0
LWPOLYLINE
  5
5E
330
17
100
AcDbEntity
  8
ENG_L
100
AcDbPolyline
 90
8
 70
1
 10
131.99326582148888
 20
24.56867683703734
 10
131.99326582148888
 20
25.55347519565354
 10
132.93607486307093
 20
26.4962842372356
 10
133.8654038664797
 20
25.566955233826793
 10
134.38635315462884
 20
21.92031021678298
 10
131.65993248815553
 20
21.92031021678298
 10
130.99936583695964
 20
22.580876867978937
 10
131.99326582148888
 20
24.56867683703734
  0
LWPOLYLINE
  5
5F
330
17
100
AcDbEntity
  8
ENG_L
100
AcDbPolyline
 90
68
 70
1
 10
122.47335308305338
 20
252.67863189431594
 10
127.10992113940672
 20
252.40589259688352
 10
125.46120092047202
 20
250.7571723779487
 10
126.32590510370389
 20
249.46011610310114
 10
126.71018501984982
 20
249.84439601924691
 10
127.8482562073073
 20
249.84439601924691
 10
129.22593250408127
 20
248.46671972247302
 10
128.39687364058517
 20
247.08495494997962
 10
126.87918099499362
 20
246.07315985291868
 10
125.74715592100769
 20
246.07315985291868
 10
124.33294235863463
 20
247.95877793608256
 10
123.60561552018802
 20
247.95877793608256
 10
122.66280647860604
 20
247.01596889450062
 10
123.58349808713734
 20
246.09527728596947
 10
122.16007462930547
 20
244.19737934219364
 10
125.0075009391049
 20
240.87538198076098
 10
124.04304996991638
 20
239.91093101157236
 10
123.03657992645928
 20
240.2464210260582
 10
123.03657992645928
 20
241.26148357207055
 10
122.45885039486514
 20
241.83921310366463
 10
119.73674828092206
 20
242.08667693220497
 10
119.73674828092206
 20
243.81376832190128
 10
120.69813030994426
 20
244.77515035092347
 10
120.85286448368241
 20
245.54882121961418
 10
118.4191287673614
 20
245.14319860022727
 10
114.50205048485702
 20
242.1477857959593
 10
114.14298235364836
 20
241.42964953354195
 10
116.07121083961178
 20
239.9834781690695
 10
113.26391776061219
 20
236.66576816661532
 10
112.43665986984028
 20
236.50031658846115
 10
112.76331154199438
 20
236.17366491630688
 10
112.33389633823721
 20
235.74424971254993
 10
111.23453342938157
 20
235.1945682581218
 10
109.82031986700842
 20
236.13737729970418
 10
108.95008605863195
 20
235.7022603955159
 10
106.48177994286954
 20
235.7022603955159
 10
105.59461265719112
 20
236.14584403835502
 10
103.76463632993064
 20
235.2308558747247
 10
102.66855445950713
 20
235.2308558747247
 10
102.19714993871611
 20
235.7022603955159
 10
101.46236900355292
 20
235.7022603955159
 10
99.01078816940733
 20
232.7603633945412
 10
98.47700471533501
 20
233.2941468486136
 10
97.72035619371533
 20
232.91582258780363
 10
95.83473811055124
 20
231.03020450463953
 10
93.94912002738712
 20
230.08739546305756
 10
92.37404985238196
 20
228.51232528805232
 10
90.96665673170858
 20
222.41362176513445
 10
89.88111485560081
 20
220.60438530495486
 10
89.56061384500921
 20
223.4888944002791
 10
90.51870160198717
 20
225.40506991423493
 10
90.9901061227782
 20
228.23349703898123
 10
98.09412964156866
 20
242.44154407656237
 10
99.03693868315072
 20
243.38435311814433
 10
100.92255676631486
 20
247.15558928447257
 10
105.59461265719109
 20
251.82764517534872
 10
105.59461265719109
 20
252.29147210427593
 10
109.80241032959147
 20
256.9943047969587
 10
111.72287142747452
 20
255.6225468698996
 10
111.72287142747452
 20
254.63700864728912
 10
113.13708498984761
 20
252.75139056412522
 10
113.13708498984761
 20
251.8013790046172
 10
114.07989403142966
 20
250.38716544224405
 10
114.07989403142966
 20
248.9729518798709
 10
115.0149283396844
 20
247.570400417489
 10
115.23366668250233
 20
245.60175533212768
 10
115.39647652086505
 20
245.60175533212768
 10
122.47335308305338
 20
252.67863189431594
  0
LWPOLYLINE
  5
60
330
17
100
AcDbEntity
  8
ENG_L
100
AcDbPolyline
 90
7
 70
1
 10
111.66705636281607
 20
241.36948120337354
 10
112.97699523313244
 20
242.2427737835844
 10
114.85940343927356
 20
244.5434949244236
 10
114.58612541658711
 20
244.63458759865242
 10
111.87303484187548
 20
242.8258605488447
 10
110.57295560470588
 20
241.5257813116749
 10
111.66705636281607
 20
241.36948120337354
  0
LWPOLYLINE
  5
61
330
17
100
AcDbEntity
  8
ENG_L
100
AcDbPolyline
 90
10
 70
1
 10
111.6252403545368
 20
237.58787847868024
 10
113.13708498984761
 20
239.09972311399085
 10
113.13708498984761
 20
239.84727000969764
 10
112.62914320345732
 20
240.35521179608764
 10
111.86729856814637
 20
239.89810501490118
 10
112.19427594826554
 20
239.57112763478185
 10
112.19427594826554
 20
238.38501551211255
 10
111.30401582653008
 20
237.93988545124466
 10
111.42135148405158
 20
237.58787847868024
 10
111.6252403545368
 20
237.58787847868024
  0
LWPOLYLINE
  5
62
330
17
100
AcDbEntity
  8
ENG_L
100
AcDbPolyline
 90
5
 70
1
 10
127.82809450795482
 20
239.92473938328263
 10
126.26407443316359
 20
240.2375433982409
 10
126.64641494365874
 20
241.3845649297266
 10
128.95773191555608
 20
241.05437679088394
 10
127.82809450795482
 20
239.92473938328263
  0
LWPOLYLINE
  5
63
330
17
100
AcDbEntity
  8
ENG_L
100
AcDbPolyline
 90
9
 70
1
 10
126.37523119030206
 20
27.46772440487666
 10
128.0419691506685
 20
26.63435542469328
 10
125.54662490221521
 20
26.63435542469328
 10
122.96418663878906
 20
28.700306035434274
 10
123.84593661590411
 20
30.16988933062603
 10
124.82456693668559
 20
30.16988933062603
 10
125.39360253041446
 20
30.738924924354816
 10
126.83314556222017
 20
29.299381892549103
 10
126.37523119030206
 20
27.46772440487666
  0
LWPOLYLINE
  5
64
330
17
100
AcDbEntity
  8
ENG_L
100
AcDbPolyline
 90
17
 70
1
 10
112.66568046905658
 20
21.268845191500183
 10
113.08599404690044
 20
22.109472347187854
 10
112.58758569302921
 20
22.607880701059123
 10
114.39806995567491
 20
24.935646181603598
 10
115.54064772379343
 20
25.50693506566293
 10
117.47735674990469
 20
23.570226039551613
 10
116.90832115617586
 20
23.001190445822715
 10
116.90832115617586
 20
21.7822390293253
 10
117.85113019775793
 20
20.83942998774313
 10
118.42554038334059
 20
21.413840173325926
 10
118.86627637817284
 20
20.091632188829145
 10
117.30225630338157
 20
19.778828173870888
 10
116.81069008323804
 20
20.270394394014346
 10
115.54974934970663
 20
20.270394394014346
 10
113.56194938064802
 20
19.27649440948509
 10
112.66568046905658
 20
20.172763321076538
 10
112.66568046905658
 20
21.268845191500183
  0
LWPOLYLINE
  5
65
330
17
100
AcDbEntity
  8
ENG_L
100
AcDbPolyline
 90
7
 70
1
 10
110.1011729509327
 20
14.277667073781641
 10
113.22364751526648
 20
14.624608692040963
 10
113.71481452144175
 20
14.133441685865611
 10
117.38136984255102
 20
13.800118474855738
 10
117.37791050817918
 20
13.51295204931402
 10
112.62486988304464
 20
13.196082674305053
 10
110.1011729509327
 20
14.277667073781641
  0
LWPOLYLINE
  5
66
330
17
100
AcDbEntity
  8
ENG_L
100
AcDbPolyline
 90
4
 70
1
 10
107.106457292502
 20
35.35533905932742
 10
106.30171943837765
 20
34.550601205203144
 10
106.30171943837765
 20
36.16007691345169
 10
107.106457292502
 20
35.35533905932742
  0
LWPOLYLINE
  5
67
330
17
100
AcDbEntity
  8
ENG_L
100
AcDbPolyline
 90
4
 70
1
 10
103.47329231363146
 20
35.02200572599412
 10
103.47329231363146
 20
36.631481434242666
 10
104.27803016775582
 20
35.82674358011839
 10
103.47329231363146
 20
35.02200572599412
  0
LWPOLYLINE
  5
68
330
17
100
AcDbEntity
  8
ENG_L
100
AcDbPolyline
 90
4
 70
1
 10
103.80662564696479
 20
104.18039909481803
 10
103.00188779284044
 20
103.37566124069374
 10
103.00188779284044
 20
104.9851369489423
 10
103.80662564696479
 20
104.18039909481803
  0
LWPOLYLINE
  5
69
330
17
100
AcDbEntity
  8
ENG_L
100
AcDbPolyline
 90
5
 70
1
 10
101.72672234803203
 20
47.27811860886111
 10
102.94494773763014
 20
47.68419373872712
 10
103.28939832995044
 20
45.961940777125676
 10
102.38481126389975
 20
45.961940777125676
 10
101.72672234803203
 20
47.27811860886111
  0
LWPOLYLINE
  5
6A
330
17
100
AcDbEntity
  8
ENG_L
100
AcDbPolyline
 90
5
 70
1
 10
100.86339350925557
 20
95.70839032934175
 10
102.46767529583354
 20
99.23781025981326
 10
102.77057355914152
 20
94.69433631019342
 10
101.7618265311752
 20
93.01309126358292
 10
100.86339350925557
 20
95.70839032934175
  0
LWPOLYLINE
  5
6B
330
17
100
AcDbEntity
  8
ENG_L
100
AcDbPolyline
 90
12
 70
1
 10
100.88056744928079
 20
34.98156561147414
 10
100.88056744928079
 20
34.00371963505344
 10
102.76618553244491
 20
30.70388798951629
 10
102.76618553244491
 20
29.60085373689725
 10
101.44198281632674
 20
28.27665102077903
 10
98.18282993096604
 20
28.52735508888371
 10
97.1279042703927
 20
29.582280749457123
 10
96.61776506280901
 20
32.132976787375476
 10
97.10933128295252
 20
32.624543007519044
 10
97.10933128295252
 20
35.476635660487645
 10
99.02042818471945
 20
36.84170487603544
 10
100.88056744928079
 20
34.98156561147414
  0
LWPOLYLINE
  5
6C
330
17
100
AcDbEntity
  8
ENG_L
100
AcDbPolyline
 90
29
 70
1
 10
99.40269288503275
 20
93.30412504556152
 10
98.52995791970365
 20
94.17686001089054
 10
98.35065056114594
 20
96.866470389256
 10
97.5735890468853
 20
95.15693505788248
 10
97.09585124477924
 20
91.81277044314018
 10
96.6379267621615
 20
91.35484596052245
 10
96.23109322249095
 20
91.76167950019298
 10
95.51160095305825
 20
90.3226949613275
 10
95.22938223979243
 20
95.1204130868466
 10
94.75230867899737
 20
95.59748664764167
 10
94.75230867899737
 20
96.73555783509936
 10
95.69511772057945
 20
97.67836687668141
 10
95.69511772057945
 20
98.62117591826348
 10
96.16652224137047
 20
99.09258043905444
 10
96.16652224137047
 20
102.39241208459171
 10
96.64977773086675
 20
102.87566757408806
 10
97.12118225165779
 20
106.64690374041629
 10
97.58073580374356
 20
107.10645729250201
 10
97.58073580374356
 20
109.90253909094206
 10
98.48716144384775
 20
111.4132484911159
 10
102.29478101165387
 20
107.09794631426884
 10
102.29478101165387
 20
105.69224373012898
 10
102.86381660538271
 20
105.12320813640008
 10
102.29478101165387
 20
104.5541725426713
 10
102.29478101165387
 20
102.24938890382074
 10
101.34788956847788
 20
99.88216029588082
 10
100.87557299798979
 20
94.68667802051168
 10
100.34061723561108
 20
93.61676649575435
 10
99.40269288503275
 20
93.30412504556152
  0
LWPOLYLINE
  5
6D
330
17
100
AcDbEntity
  8
ENG_L
100
AcDbPolyline
 90
5
 70
1
 10
101.35197197007182
 20
48.31896338108077
 10
101.35197197007182
 20
49.123701235205154
 10
101.9263821556545
 20
49.698111420787725
 10
102.38609816889014
 20
48.31896338108077
 10
101.35197197007182
 20
48.31896338108077
  0
LWPOLYLINE
  5
6E
330
17
100
AcDbEntity
  8
ENG_L
100
AcDbPolyline
 90
54
 70
1
 10
96.18214699286456
 20
223.08759415858992
 10
96.6509433590585
 20
225.90037235575377
 10
98.40826668680752
 20
228.1597880628594
 10
99.09258043905436
 20
228.1597880628594
 10
100.39731195978449
 20
226.85505654212923
 10
100.87184581694152
 20
223.05878568487313
 10
101.82337649086284
 20
221.63148967399104
 10
101.82337649086284
 20
218.65313022690702
 10
100.40916292848975
 20
216.7675121437429
 10
100.40916292848975
 20
216.00090159523035
 10
100.97819852221859
 20
215.43186600150156
 10
100.39058994104957
 20
214.84425742033264
 10
99.91918542025854
 20
212.48723481637742
 10
99.07584638356803
 20
211.6438957796869
 10
96.26107728107745
 20
212.11302396343535
 10
93.96500795774598
 20
209.35774077543755
 10
92.95436916881951
 20
208.75135750208173
 10
93.49534825396744
 20
207.8497256935018
 10
94.48154089593584
 20
207.5209948128457
 10
93.8094996374153
 20
206.8489535543252
 10
93.8094996374153
 20
203.6013608738926
 10
92.89587984834309
 20
201.3173114012119
 10
93.8094996374153
 20
199.94688171760367
 10
93.8094996374153
 20
196.93181153213303
 10
91.49761216065343
 20
195.13367682798489
 10
88.49672790496403
 20
196.13397157988132
 10
87.55391886338195
 20
197.0767806214634
 10
86.0542951043838
 20
197.57665520779622
 10
85.80910282214106
 20
199.29300118349536
 10
85.22658719023894
 20
199.8755168153975
 10
85.79562278396777
 20
200.4445524091264
 10
85.79562278396777
 20
203.23099021683853
 10
86.73843182554982
 20
205.11660830000255
 10
86.73843182554982
 20
207.04421570020082
 10
87.11220527340305
 20
207.41798914805398
 10
86.64080075261202
 20
207.88939366884506
 10
87.20983634634086
 20
208.45842926257384
 10
87.20983634634086
 20
210.34404734573798
 10
87.67017231961297
 20
210.80438331901007
 10
87.56548930435598
 20
211.7465304563232
 10
87.14401866331347
 20
210.48211853319577
 10
86.230962575574
 20
210.48211853319577
 10
86.7445713253665
 20
214.07737978174313
 10
89.095454429505
 20
220.18967585250348
 10
89.095454429505
 20
221.3244225113895
 10
90.03826347108705
 20
221.3244225113895
 10
90.03826347108705
 20
219.6291145807877
 10
89.17143443604667
 20
217.46204199318663
 10
89.4376229968271
 20
217.37331247292647
 10
91.9740335331345
 20
223.13788187362516
 10
93.37463238222354
 20
223.97824118307864
 10
94.8499397519351
 20
222.50293381336706
 10
95.59748664764172
 20
222.50293381336706
 10
96.18214699286456
 20
223.08759415858992
  0
LWPOLYLINE
  5
6F
330
17
100
AcDbEntity
  8
ENG_L
100
AcDbPolyline
 90
8
 70
1
 10
96.6292328242962
 20
216.9524045746778
 10
96.85317351654696
 20
214.48905695991948
 10
98.4259137723878
 20
214.48905695991948
 10
99.45528533938878
 20
215.5184285269204
 10
99.25177789451098
 20
217.34999553082068
 10
96.7188237796129
 20
217.77215454997034
 10
96.26415331430827
 20
217.31748408466567
 10
96.6292328242962
 20
216.9524045746778
  0
LWPOLYLINE
  5
70
330
17
100
AcDbEntity
  8
ENG_L
100
AcDbPolyline
 90
10
 70
1
 10
94.75230867899737
 20
216.2770439701458
 10
94.28090415820634
 20
216.74844849093688
 10
94.28090415820634
 20
220.51968465726523
 10
93.74583863554024
 20
221.05475017993115
 10
91.92388155425118
 20
220.44743115283484
 10
91.92388155425118
 20
216.43575163365702
 10
93.0053785952165
 20
214.48905695991948
 10
93.71186856447748
 20
214.48905695991948
 10
94.75230867899737
 20
215.52949707443935
 10
94.75230867899737
 20
216.2770439701458
  0
LWPOLYLINE
  5
71
330
17
100
AcDbEntity
  8
ENG_L
100
AcDbPolyline
 90
5
 70
1
 10
89.92798690170203
 20
212.02669696635434
 10
89.12345290723968
 20
211.54397656967694
 10
89.28285127143322
 20
210.74698474870934
 10
90.4075743955432
 20
210.907659480725
 10
89.92798690170203
 20
212.02669696635434
  0
LWPOLYLINE
  5
72
330
17
100
AcDbEntity
  8
ENG_L
100
AcDbPolyline
 90
4
 70
1
 10
89.33115668990051
 20
197.5184942114423
 10
89.81584288419174
 20
197.5184942114423
 10
89.33115668990051
 20
197.80930592801704
 10
89.33115668990051
 20
197.5184942114423
  0
LWPOLYLINE
  5
73
330
17
100
AcDbEntity
  8
ENG_L
100
AcDbPolyline
 90
7
 70
1
 10
98.58720584720061
 20
46.16367296645829
 10
97.58073580374356
 20
46.49916298094392
 10
97.58073580374356
 20
47.98563004774748
 10
96.90869454522303
 20
48.65767130626797
 10
98.14275503868065
 20
49.06902480408715
 10
99.53850614124265
 20
47.114973260500406
 10
98.58720584720061
 20
46.16367296645829
  0
LWPOLYLINE
  5
74
330
17
100
AcDbEntity
  8
ENG_L
100
AcDbPolyline
 90
17
 70
1
 10
87.13564908261716
 20
104.92859447112401
 10
85.93431078335102
 20
102.766185532445
 10
84.95044481532354
 20
102.766185532445
 10
82.8005289925549
 20
100.6162697096764
 10
82.48435294674695
 20
102.82950203033204
 10
83.91000470080365
 20
104.7303710357409
 10
83.91000470080365
 20
105.65568924776458
 10
86.2670273047588
 20
109.8983299348838
 10
86.2670273047588
 20
110.87769345883025
 10
87.59355405506454
 20
112.20422020913612
 10
92.45029706959038
 20
111.71854590768338
 10
95.80586107076067
 20
110.42794436877179
 10
94.88576103113459
 20
108.89444430272843
 10
93.38083608743602
 20
108.89444430272843
 10
89.71037619559792
 20
107.51802184328906
 10
87.82181073977449
 20
105.15731502350978
 10
87.13564908261716
 20
104.92859447112401
  0
LWPOLYLINE
  5
75
330
17
100
AcDbEntity
  8
ENG_L
100
AcDbPolyline
 90
10
 70
1
 10
93.50797969399241
 20
84.85281374238573
 10
90.13589454402488
 20
84.85281374238573
 10
88.68771091058895
 20
83.40463010894983
 10
85.91988315591345
 20
84.32723936050823
 10
88.54515791452353
 20
85.78572533751394
 10
91.33922120902818
 20
86.25140255326468
 10
91.82625048131335
 20
86.73843182554985
 10
92.96432166877108
 20
86.73843182554985
 10
93.8434697084781
 20
85.85928378584285
 10
93.50797969399241
 20
84.85281374238573
  0
LWPOLYLINE
  5
76
330
17
100
AcDbEntity
  8
ENG_L
100
AcDbPolyline
 90
5
 70
1
 10
86.79024010226433
 20
208.59650045003164
 10
85.79562278396777
 20
208.59650045003164
 10
85.79562278396777
 20
209.872642824947
 10
86.4117801533957
 20
210.48880019437487
 10
86.79024010226433
 20
208.59650045003164
  0
LWPOLYLINE
  5
77
330
17
100
AcDbEntity
  8
ENG_L
100
AcDbPolyline
 90
5
 70
1
 10
85.32421826317673
 20
207.6536914084496
 10
85.32421826317673
 20
208.45842926257384
 10
85.8986284487594
 20
209.03283944815664
 10
86.35834446199507
 20
207.6536914084496
 10
85.32421826317673
 20
207.6536914084496
  0
LWPOLYLINE
  5
78
330
17
100
AcDbEntity
  8
ENG_L
100
AcDbPolyline
 90
12
 70
1
 10
81.10705639466025
 20
132.39251808794495
 10
79.19595949289332
 20
133.75758730349276
 10
79.19595949289332
 20
134.72406187329733
 10
78.73803501027558
 20
135.18198635591506
 10
78.23885271170677
 20
138.6762624458967
 10
80.09222840448474
 20
140.5296381386747
 10
81.1372193319611
 20
140.0071426749364
 10
86.00658639345838
 20
140.0071426749364
 10
86.27210960998354
 20
137.61743372620992
 10
85.26676020031444
 20
135.10406020203715
 10
83.09451766297151
 20
134.37997935625611
 10
81.10705639466025
 20
132.39251808794495
  0
LWPOLYLINE
  5
79
330
17
100
AcDbEntity
  8
ENG_L
100
AcDbPolyline
 90
5
 70
1
 10
84.8528137423857
 20
206.57281117940974
 10
85.46897111181362
 20
207.18896854883783
 10
85.84743106068228
 20
205.29666880449437
 10
84.8528137423857
 20
205.29666880449437
 10
84.8528137423857
 20
206.57281117940974
  0
LWPOLYLINE
  5
7A
330
17
100
AcDbEntity
  8
ENG_L
100
AcDbPolyline
 90
5
 70
1
 10
84.99756659102259
 20
205.30335046567373
 10
85.37602653989126
 20
203.41105072133024
 10
84.38140922159468
 20
203.41105072133024
 10
84.38140922159468
 20
204.6871930962456
 10
84.99756659102259
 20
205.30335046567373
  0
LWPOLYLINE
  5
7B
330
17
100
AcDbEntity
  8
ENG_L
100
AcDbPolyline
 90
7
 70
1
 10
84.86388228990462
 20
200.26035881076976
 10
84.38140922159468
 20
199.7778857424597
 10
84.38140922159468
 20
198.69700551341995
 10
83.38679190329809
 20
198.69700551341995
 10
84.37700149112612
 20
203.6480534525601
 10
84.4880070228507
 20
203.64323621425496
 10
84.86388228990462
 20
200.26035881076976
  0
LWPOLYLINE
  5
7C
330
17
100
AcDbEntity
  8
ENG_L
100
AcDbPolyline
 90
8
 70
1
 10
84.38140922159468
 20
131.42423022776006
 10
84.38140922159468
 20
129.87194547792924
 10
82.6338623258882
 20
129.87194547792924
 10
81.41871704012428
 20
131.08709076369328
 10
83.03620886486212
 20
132.16541864685183
 10
84.53154602690978
 20
134.25889067371867
 10
84.8671114819902
 20
131.90993248815565
 10
84.38140922159468
 20
131.42423022776006
  0
LWPOLYLINE
  5
7D
330
17
100
AcDbEntity
  8
ENG_L
100
AcDbPolyline
 90
5
 70
1
 10
82.6448623369305
 20
128.7558743125562
 10
83.00116573028436
 20
127.68696413249458
 10
81.87963376900264
 20
126.56543217121285
 10
81.51675265299625
 20
128.37983775124474
 10
82.6448623369305
 20
128.7558743125562
  0
LWPOLYLINE
  5
7E
330
17
100
AcDbEntity
  8
ENG_L
100
AcDbPolyline
 90
10
 70
1
 10
74.481914284983
 20
96.46804218479332
 10
74.481914284983
 20
97.66487287885728
 10
76.72724250740958
 20
100.40916292848978
 10
81.01021267385134
 20
100.40916292848978
 10
82.52582382131084
 20
101.4195703601295
 10
83.02387696761842
 20
100.9215172138217
 10
81.70218191998045
 20
98.54246612807339
 10
78.33941009669228
 20
98.06207015331792
 10
75.45955019093128
 20
96.14216354947736
 10
74.481914284983
 20
96.46804218479332
  0
LWPOLYLINE
  5
7F
330
17
100
AcDbEntity
  8
ENG_L
100
AcDbPolyline
 90
8
 70
1
 10
74.94084043189193
 20
138.6780818116191
 10
75.8961278473561
 20
139.63336922708325
 10
77.3103414097292
 20
138.21915566471012
 10
77.3103414097292
 20
136.76295278530293
 10
78.28613067927546
 20
134.81137424621048
 10
77.38109775498539
 20
133.30298603906044
 10
75.43935776115553
 20
134.68994317751026
 10
74.94084043189193
 20
138.6780818116191
  0
LWPOLYLINE
  5
80
330
17
100
AcDbEntity
  8
ENG_L
100
AcDbPolyline
 90
5
 70
1
 10
74.98728887683683
 20
96.2301832432455
 10
74.63098548348297
 20
95.161273063184
 10
73.33846850567146
 20
95.59211205578777
 10
74.48191428498303
 20
96.73555783509946
 10
74.98728887683683
 20
96.2301832432455
  0
LWPOLYLINE
  5
81
330
17
100
AcDbEntity
  8
ENG_L
100
AcDbPolyline
 90
4
 70
1
 10
73.30340298300543
 20
94.41897534566412
 10
73.30340298300543
 20
96.028451053913
 10
74.10814083712977
 20
95.22371319978839
 10
73.30340298300543
 20
94.41897534566412
  0
LWPOLYLINE
  5
82
330
17
100
AcDbEntity
  8
ENG_L
100
AcDbPolyline
 90
10
 70
1
 10
71.18208263944578
 20
140.10477374787433
 10
72.26964452966475
 20
141.1923356380932
 10
72.61645790117137
 20
139.4582687805601
 10
72.12489168102785
 20
138.96670256041654
 10
72.12489168102785
 20
135.70886023191343
 10
71.0920523871999
 20
133.6431816442576
 10
70.21163396868074
 20
133.6431816442576
 10
70.72125020249055
 20
138.2297277485459
 10
71.18208263944578
 20
138.6905601855012
 10
71.18208263944578
 20
140.10477374787433
  0
LWPOLYLINE
  5
83
330
17
100
AcDbEntity
  8
ENG_L
100
AcDbPolyline
 90
4
 70
1
 10
70.80830919159254
 20
133.40747938386198
 10
70.0035713374682
 20
132.60274152973773
 10
70.0035713374682
 20
134.2122172379866
 10
70.80830919159254
 20
133.40747938386198
  0
LWPOLYLINE
  5
84
330
17
100
AcDbEntity
  8
ENG_L
100
AcDbPolyline
 90
5
 70
1
 10
69.29646455628166
 20
132.56230141521775
 10
69.87087474186433
 20
133.1367116008003
 10
70.33059075510002
 20
131.75756356109346
 10
69.29646455628166
 20
131.75756356109346
 10
69.29646455628166
 20
132.56230141521775
  0
LWPOLYLINE
  5
85
330
17
100
AcDbEntity
  8
ENG_L
100
AcDbPolyline
 90
5
 70
1
 10
59.93203514233599
 20
86.30099737582164
 10
60.540415398981565
 20
85.69261711917608
 10
59.33330861779504
 20
85.29024819211395
 10
58.724928361149445
 20
85.89862844875951
 10
59.93203514233599
 20
86.30099737582164
  0
LWPOLYLINE
  5
86
330
17
100
AcDbEntity
  8
ENG_L
100
AcDbPolyline
 90
5
 70
1
 10
59.02857076367062
 20
85.9962595216972
 10
59.48828677690627
 20
84.61711148199025
 10
58.45416057808793
 20
84.61711148199025
 10
58.45416057808793
 20
85.42184933611463
 10
59.02857076367062
 20
85.9962595216972
  0
LWPOLYLINE
  5
87
330
17
100
AcDbEntity
  8
ENG_L
100
AcDbPolyline
 90
5
 70
1
 10
59.01688225611524
 20
83.67430244040818
 10
57.982756057296896
 20
83.67430244040818
 10
57.982756057296896
 20
84.47904029453245
 10
58.55716624287955
 20
85.05345048011526
 10
59.01688225611524
 20
83.67430244040818
  0
LWPOLYLINE
  5
88
330
17
100
AcDbEntity
  8
ENG_L
100
AcDbPolyline
 90
5
 70
1
 10
58.50596885480244
 20
81.31727983645298
 10
57.51135153650587
 20
81.31727983645298
 10
57.51135153650587
 20
82.59342221136833
 10
58.12750890593377
 20
83.20957958079644
 10
58.50596885480244
 20
81.31727983645298
  0
LWPOLYLINE
  5
89
330
17
100
AcDbEntity
  8
ENG_L
100
AcDbPolyline
 90
5
 70
1
 10
58.07407321453318
 20
79.90306627407995
 10
57.03994701571483
 20
79.90306627407995
 10
57.03994701571483
 20
80.70780412820422
 10
57.61435720129749
 20
81.28221431378702
 10
58.07407321453318
 20
79.90306627407995
  0
LWPOLYLINE
  5
8A
330
17
100
AcDbEntity
  8
ENG_L
100
AcDbPolyline
 90
5
 70
1
 10
57.56315981322038
 20
78.01744819091583
 10
56.568542494923804
 20
78.01744819091583
 10
56.568542494923804
 20
79.29359056583118
 10
57.18469986435173
 20
79.90974793525906
 10
57.56315981322038
 20
78.01744819091583
  0
LWPOLYLINE
  5
8B
330
17
100
AcDbEntity
  8
ENG_L
100
AcDbPolyline
 90
6
 70
1
 10
56.52610307609481
 20
79.19653255578218
 10
56.63838359674826
 20
79.19522714481108
 10
57.04941277616057
 20
76.31802288892509
 10
55.70510436117292
 20
74.07750886394548
 10
55.674792529989624
 20
74.08866927915103
 10
56.52610307609481
 20
79.19653255578218
  0
LWPOLYLINE
  5
8C
330
17
100
AcDbEntity
  8
ENG_D
100
AcDbPolyline
 90
15
 70
1
 10
224.09749948555043
 20
31.144100969534794
 10
222.89790062468683
 20
30.904181197362046
 10
222.50293381336698
 20
30.114247574722253
 10
222.50293381336698
 20
26.488683416543644
 10
221.08872025099384
 20
27.19579019773033
 10
221.08872025099384
 20
29.129449216106163
 10
220.61731573020282
 20
29.60085373689725
 10
220.61731573020282
 20
33.84349442401646
 10
220.1459112094118
 20
34.314898944807545
 10
220.1459112094118
 20
35.416415649900834
 10
221.5811896693855
 20
37.999916877853536
 10
222.974338334158
 20
34.93498981535404
 10
222.974338334158
 20
34.01969291708606
 10
224.41550958071076
 20
32.0981312550157
 10
224.09749948555043
 20
31.144100969534794
  0
LWPOLYLINE
  5
8D
330
17
100
AcDbEntity
  8
ENG_D
100
AcDbPolyline
 90
12
 70
1
 10
213.01920164164244
 20
34.88393453853633
 10
215.37622424559785
 20
34.88393453853633
 10
216.42121517307422
 20
35.40643000227461
 10
217.76601700588586
 20
34.0616281694629
 10
218.79787728069394
 20
29.934187070230543
 10
216.0413417097502
 20
29.934187070230543
 10
214.82084109073864
 20
31.15468768924201
 10
213.03798890948522
 20
32.04611377986877
 10
210.08649968979174
 20
31.55419890991995
 10
209.74104168094632
 20
32.59057293645628
 10
211.04960492441037
 20
33.899136179920355
 10
213.01920164164244
 20
34.88393453853633
  0
LWPOLYLINE
  5
8E
330
17
100
AcDbEntity
  8
ENG_D
100
AcDbPolyline
 90
75
 70
1
 10
184.6090600180117
 20
41.87112129126691
 10
185.6634349475784
 20
42.92549622083364
 10
188.56180831641268
 20
42.13503075660607
 10
188.56180831641268
 20
41.10982438175759
 10
189.52994682742738
 20
40.14168587074285
 10
189.05854230663635
 20
38.25606778757873
 10
190.0736529517236
 20
37.24095714249154
 10
190.80843388688666
 20
37.24095714249154
 10
193.1654564908418
 20
40.069384267237716
 10
194.78769815963392
 20
40.069384267237716
 10
195.25910268042495
 20
39.59797974644663
 10
205.607905402356
 20
39.59797974644663
 10
207.41798914805395
 20
38.30506278523382
 10
207.41798914805395
 20
37.14332606955373
 10
206.47518010647187
 20
36.20051702797167
 10
206.47518010647187
 20
35.257707986389605
 10
205.64857512526783
 20
34.43110300518559
 10
203.25907991476106
 20
33.9532039630841
 10
199.88293420296185
 20
32.02397784205602
 10
196.99144793474738
 20
33.469720976163295
 10
196.00664957613134
 20
33.469720976163295
 10
195.06384053454929
 20
34.412530017745354
 10
193.42152553247263
 20
34.412530017745354
 10
192.50378646596963
 20
32.57705188473936
 10
190.10847892845993
 20
31.618928869735498
 10
189.0797529671943
 20
30.59020290846992
 10
188.09040379562165
 20
31.084877494256148
 10
187.029419986902
 20
30.554385589896427
 10
186.23731445076464
 20
32.40263184088366
 10
186.19609177459222
 20
31.949182402987052
 10
185.78447213461365
 20
31.537562763008566
 10
186.20478571245752
 20
30.696935607320786
 10
186.20478571245752
 20
29.129449216106163
 10
185.73807391229093
 20
28.66273741593961
 10
185.98317572696152
 20
23.515599307857183
 10
184.3025255334579
 20
23.85172934655788
 10
184.7823079186091
 20
29.609117968372622
 10
184.33101859799865
 20
30.060407288983072
 10
183.8596140772076
 20
33.8316434553112
 10
182.80732299398244
 20
34.883934538536444
 10
182.05977609827607
 20
34.883934538536444
 10
181.4907405045472
 20
34.314898944807545
 10
181.4907405045472
 20
33.372089903225486
 10
180.54793146296512
 20
32.42928086164343
 10
180.54793146296512
 20
27.667194718521195
 10
179.60512242138307
 20
27.19579019773022
 10
179.60512242138307
 20
25.57369525291342
 10
181.45536187393188
 20
24.18601566350176
 10
181.996115096401
 20
22.563755996094503
 10
180.63653563863437
 20
21.204176538327847
 10
177.91086133144668
 20
21.45196511170866
 10
173.8409109669843
 20
22.649009336550453
 10
170.17363617450283
 20
25.39946543091154
 10
168.72648521013133
 20
24.36578617064622
 10
168.2343521183165
 20
22.88938689520159
 10
167.83858238904747
 20
24.868235541546714
 10
166.79386702669186
 20
25.91295090390233
 10
164.91360143068923
 20
25.644341533044734
 10
165.43765732821947
 20
27.740565123165695
 10
164.74919835528644
 20
28.42902409609882
 10
166.48326521281953
 20
28.77583746760537
 10
167.44623595375407
 20
27.812866726670826
 10
169.15335169171271
 20
27.812866726670826
 10
173.36402583311644
 20
31.087835503318175
 10
174.7311093807965
 20
31.54353001921151
 10
176.61672746396064
 20
34.84336166474877
 10
178.0752238775337
 20
35.32952713593984
 10
180.54793146296512
 20
37.35265152402012
 10
180.54793146296512
 20
38.08613511113579
 10
180.02543599922694
 20
38.608630574873956
 10
180.6164771558438
 20
39.79071288810765
 10
182.73779749940346
 20
40.49781966929422
 10
183.2006764954797
 20
41.42357766144678
 10
184.30108226027667
 20
41.973780543845265
 10
184.6090600180117
 20
41.87112129126691
  0
LWPOLYLINE
  5
8F
330
17
100
AcDbEntity
  8
ENG_D
100
AcDbPolyline
 90
14
 70
1
 10
185.26632007840908
 20
41.652034604467644
 10
185.4035645063568
 20
41.60628646181841
 10
184.00867813768028
 20
39.6534455456714
 10
181.96214502533823
 20
38.51648270548136
 10
181.96214502533823
 20
37.80999273622032
 10
183.00258513985813
 20
36.769552621700456
 10
184.86193705229053
 20
36.769552621700456
 10
186.0426848483478
 20
35.98238742432891
 10
186.18462401310504
 20
36.692083248115125
 10
185.7333811916665
 20
37.14332606955373
 10
185.7333811916665
 20
38.75280177780238
 10
186.2233586998977
 20
39.24277928603359
 10
186.63669120714758
 20
41.30944182228302
 10
185.26632007840908
 20
41.652034604467644
  0
LWPOLYLINE
  5
90
330
17
100
AcDbEntity
  8
ENG_D
100
AcDbPolyline
 90
5
 70
1
 10
197.98989873223329
 20
220.38161346980735
 10
197.98989873223329
 20
221.6577558447228
 10
198.5080993207584
 20
222.17595643324793
 10
199.5847050988228
 20
220.38161346980735
 10
197.98989873223329
 20
220.38161346980735
  0
LWPOLYLINE
  5
91
330
17
100
AcDbEntity
  8
ENG_D
100
AcDbPolyline
 90
5
 70
1
 10
197.9262377303582
 20
222.46896374230408
 10
197.31785747371293
 20
223.07734399894952
 10
198.52496425489937
 20
223.47971292601198
 10
199.13334451154475
 20
222.87133266936655
 10
197.9262377303582
 20
222.46896374230408
  0
LWPOLYLINE
  5
92
330
17
100
AcDbEntity
  8
ENG_D
100
AcDbPolyline
 90
6
 70
1
 10
195.49907923340086
 20
225.43962398558583
 10
198.03966232274172
 20
224.0281889359521
 10
197.6763023075263
 20
222.93810889030573
 10
196.2237788490868
 20
223.22861358199364
 10
195.12750153642432
 20
224.32489089465625
 10
195.49907923340086
 20
225.43962398558583
  0
LWPOLYLINE
  5
93
330
17
100
AcDbEntity
  8
ENG_D
100
AcDbPolyline
 90
27
 70
1
 10
193.44433419467083
 20
224.92138809029782
 10
193.56719754062237
 20
224.85995641732214
 10
193.32966173844943
 20
224.74118851623558
 10
193.13262877130796
 20
224.43156528215624
 10
193.10448120457346
 20
224.6285982492977
 10
192.33304448274095
 20
224.24287988838154
 10
192.33304448274095
 20
222.26723155297145
 10
191.4924853494172
 20
222.26723155297145
 10
189.97602187878576
 20
224.79467067069046
 10
189.97602187878576
 20
226.6899327445826
 10
189.02192985447786
 20
228.5981167931983
 10
189.31971729258632
 20
230.08705398374053
 10
190.44742639957678
 20
229.86151216234262
 10
190.44742639957678
 20
230.90734391533817
 10
188.87419131828483
 20
232.93007473414207
 10
187.64402500868516
 20
233.66817451990184
 10
187.16616774147974
 20
236.05746085592892
 10
186.66716333597998
 20
236.5564652614287
 10
186.96504211324552
 20
239.83313181134957
 10
189.58641302461785
 20
236.6292340307834
 10
189.0332128372037
 20
236.07603384336895
 10
189.0332128372037
 20
235.339263575586
 10
192.28687428090325
 20
232.55041090955774
 10
193.23386420728892
 20
230.65643105678646
 10
195.16147160748713
 20
228.7288236565883
 10
195.16147160748713
 20
227.61974688186638
 10
193.44433419467083
 20
224.92138809029782
  0
LWPOLYLINE
  5
94
330
17
100
AcDbEntity
  8
ENG_D
100
AcDbPolyline
 90
5
 70
1
 10
193.03329407595058
 20
225.12690814965808
 10
192.83572777731735
 20
226.50987224009066
 10
192.73863132050457
 20
226.50987224009066
 10
192.38559340258755
 20
225.45075848633945
 10
193.03329407595058
 20
225.12690814965808
  0
LWPOLYLINE
  5
95
330
17
100
AcDbEntity
  8
ENG_D
100
AcDbPolyline
 90
12
 70
1
 10
178.15693878794718
 20
245.19401181321143
 10
179.0927681360511
 20
246.12984116131554
 10
183.53287706966574
 20
243.66311397597394
 10
185.2785555974235
 20
241.4186701545711
 10
184.98380178303628
 20
239.9449010826351
 10
183.27872751477364
 20
239.9449010826351
 10
182.90495406692028
 20
240.31867453048838
 10
182.45902836473203
 20
239.87274882830013
 10
180.59296836984063
 20
241.20564882465123
 10
179.88990505552258
 20
242.8461298913933
 10
178.70198135514428
 20
243.55888411162053
 10
178.15693878794718
 20
245.19401181321143
  0
LWPOLYLINE
  5
96
330
17
100
AcDbEntity
  8
ENG_D
100
AcDbPolyline
 90
14
 70
1
 10
180.60357321886877
 20
234.28804683314297
 10
181.36944390338704
 20
234.28804683314297
 10
182.43354954612926
 20
235.777794732982
 10
182.43354954612926
 20
236.7785217892353
 10
183.88430037410163
 20
237.64897228601868
 10
185.26197667087547
 20
236.27129598924458
 10
185.26197667087547
 20
233.74110797488567
 10
183.9562775388239
 20
231.91312919001362
 10
182.1230126046004
 20
232.17502418061687
 10
178.92433939443043
 20
233.89738667840066
 10
178.6421516804485
 20
235.30832524831013
 10
179.19828888171259
 20
235.86446244957403
 10
179.7808045136146
 20
234.69943118576998
 10
180.60357321886877
 20
234.28804683314297
  0
LWPOLYLINE
  5
97
330
17
100
AcDbEntity
  8
ENG_D
100
AcDbPolyline
 90
8
 70
1
 10
170.64843652635346
 20
238.85642003290351
 10
170.64843652635346
 20
240.76156610261455
 10
169.09995790725614
 20
241.79388518201273
 10
169.60799641183362
 20
242.3019236865904
 10
170.7460675992912
 20
242.3019236865904
 10
171.57562081644144
 20
241.47237046944014
 10
172.1355376494561
 20
238.11286947135235
 10
170.64843652635346
 20
238.85642003290351
  0
LWPOLYLINE
  5
98
330
17
100
AcDbEntity
  8
ENG_D
100
AcDbPolyline
 90
5
 70
1
 10
170.14080256171022
 20
237.74568657476402
 10
171.2689122456445
 20
238.1217231360755
 10
171.62521563899833
 20
237.0528129560141
 10
170.50368367771657
 20
235.93128099473228
 10
170.14080256171022
 20
237.74568657476402
  0
LWPOLYLINE
  5
99
330
17
100
AcDbEntity
  8
ENG_D
100
AcDbPolyline
 90
6
 70
1
 10
169.7056274847714
 20
245.4318707547596
 10
169.7056274847714
 20
246.67801672584687
 10
171.2853726037124
 20
247.6258637972115
 10
171.61140726728806
 20
245.99569047933346
 10
170.71209752822853
 20
245.09638074027373
 10
169.7056274847714
 20
245.4318707547596
  0
LWPOLYLINE
  5
9A
330
17
100
AcDbEntity
  8
ENG_D
100
AcDbPolyline
 90
8
 70
1
 10
168.78298014254187
 20
238.6081568938474
 10
168.3177933008889
 20
236.28222268558252
 10
169.7056274847714
 20
235.35699989632764
 10
169.7056274847714
 20
234.66182028099604
 10
168.35507492427342
 20
233.31126772049825
 10
167.3411046185175
 20
233.64925782241653
 10
167.6078035599948
 20
239.78333347639457
 10
168.78298014254187
 20
238.6081568938474
  0
LWPOLYLINE
  5
9B
330
17
100
AcDbEntity
  8
ENG_D
100
AcDbPolyline
 90
18
 70
1
 10
167.8200094016073
 20
249.31734974255227
 10
166.8772003600252
 20
247.43173165938813
 10
166.8772003600252
 20
246.64219544664755
 10
167.917640474545
 20
245.60175533212768
 10
168.93270302055745
 20
245.60175533212768
 10
169.32554012121673
 20
244.42324403014993
 10
167.05726086451708
 20
244.42324403014993
 10
165.96157640399258
 20
244.9710862604122
 10
165.47600426696417
 20
247.39894694555443
 10
163.15601845052973
 20
251.11092425184944
 10
162.51835561252813
 20
251.74858708985104
 10
161.08185572861305
 20
252.03588706663416
 10
162.1163590843808
 20
253.76005932624702
 10
163.20359526663466
 20
252.67282314399318
 10
165.5606178705899
 20
252.67282314399318
 10
166.04550242955432
 20
252.18793858502852
 10
167.8200094016073
 20
251.93443758902112
 10
167.8200094016073
 20
249.31734974255227
  0
LWPOLYLINE
  5
9C
330
17
100
AcDbEntity
  8
ENG_D
100
AcDbPolyline
 90
7
 70
1
 10
167.34860488081623
 20
230.890584114668
 10
167.34860488081623
 20
226.98127676088185
 10
166.40579583923417
 20
226.98127676088185
 10
166.40579583923417
 20
231.52490545502835
 10
167.4601640174958
 20
233.282185752131
 10
167.8401711009598
 20
231.38215033481146
 10
167.34860488081623
 20
230.890584114668
  0
LWPOLYLINE
  5
9D
330
17
100
AcDbEntity
  8
ENG_D
100
AcDbPolyline
 90
4
 70
1
 10
168.02064613933678
 20
113.50548384584691
 10
166.6414980996297
 20
113.04576783261133
 10
166.6414980996297
 20
114.88463188555409
 10
168.02064613933678
 20
113.50548384584691
  0
LWPOLYLINE
  5
9E
330
17
100
AcDbEntity
  8
ENG_D
100
AcDbPolyline
 90
7
 70
1
 10
166.8841540722632
 20
224.32275275619818
 10
165.55360151179823
 20
222.45997917154713
 10
164.38858713084778
 20
222.84831729853073
 10
165.46298679765212
 20
224.45991679873734
 10
165.46298679765212
 20
225.868051205536
 10
166.57516113223505
 20
227.72167509650765
 10
166.8841540722632
 20
224.32275275619818
  0
LWPOLYLINE
  5
9F
330
17
100
AcDbEntity
  8
ENG_D
100
AcDbPolyline
 90
5
 70
1
 10
166.0921994145272
 20
237.55164903482773
 10
164.27779383449524
 20
237.91453015083408
 10
165.399325795777
 20
239.0360621121157
 10
166.46823597583864
 20
238.67975871876212
 10
166.0921994145272
 20
237.55164903482773
  0
LWPOLYLINE
  5
A0
330
17
100
AcDbEntity
  8
ENG_D
100
AcDbPolyline
 90
4
 70
1
 10
165.0892133497989
 20
222.50293381336706
 10
164.28447549567454
 20
221.69819595924233
 10
164.28447549567454
 20
223.3076716674909
 10
165.0892133497989
 20
222.50293381336706
  0
LWPOLYLINE
  5
A1
330
17
100
AcDbEntity
  8
ENG_D
100
AcDbPolyline
 90
4
 70
1
 10
163.81307097488352
 20
246.8778977070434
 10
164.61780882900783
 20
246.07315985291868
 10
163.81307097488352
 20
245.26842199879394
 10
163.81307097488352
 20
246.8778977070434
  0
LWPOLYLINE
  5
A2
330
17
100
AcDbEntity
  8
ENG_D
100
AcDbPolyline
 90
4
 70
1
 10
162.87026193330146
 20
222.16960048003332
 10
162.87026193330146
 20
223.77907618828274
 10
163.67499978742578
 20
222.97433833415803
 10
162.87026193330146
 20
222.16960048003332
  0
LWPOLYLINE
  5
A3
330
17
100
AcDbEntity
  8
ENG_D
100
AcDbPolyline
 90
4
 70
1
 10
162.87026193330146
 20
22.76548818542734
 10
162.87026193330146
 20
24.374963893675883
 10
163.6749997874258
 20
23.570226039551613
 10
162.87026193330146
 20
22.76548818542734
  0
LWPOLYLINE
  5
A4
330
17
100
AcDbEntity
  8
ENG_D
100
AcDbPolyline
 90
25
 70
1
 10
162.1631551521149
 20
235.1332248017872
 10
162.1631551521149
 20
234.34368858904642
 10
163.15705513664415
 20
232.3558886199879
 10
162.63455967290594
 20
231.83339315624997
 10
162.63455967290594
 20
228.0621569899217
 10
162.1631551521149
 20
227.59075246913073
 10
162.1631551521149
 20
226.1765389067576
 10
161.22034611053286
 20
225.23372986517543
 10
161.22034611053286
 20
224.06281938388983
 10
162.92590368920514
 20
223.2100405945534
 10
160.41560825640858
 20
223.2100405945534
 10
159.75959241816915
 20
223.8660564327928
 10
158.72565697681978
 20
223.34908871211834
 10
158.35794891472386
 20
224.45221289840612
 10
159.35759962693948
 20
225.45186361062176
 10
160.30040866852158
 20
229.22309977695
 10
160.7489415897418
 20
229.67163269817047
 10
160.7489415897418
 20
232.50005982291654
 10
161.12271503759507
 20
232.87383327076984
 10
160.65131051680402
 20
233.3452377915608
 10
161.15274772047528
 20
233.84667499523192
 10
160.19052864807563
 20
235.29000360383145
 10
162.2858437843226
 20
236.78665727257942
 10
162.66852974396872
 20
235.63859939364096
 10
162.1631551521149
 20
235.1332248017872
  0
LWPOLYLINE
  5
A5
330
17
100
AcDbEntity
  8
ENG_D
100
AcDbPolyline
 90
10
 70
1
 10
162.2436806577362
 20
24.618444336472535
 10
163.2681662477552
 20
24.106201541463037
 10
162.19969241771418
 20
23.037727711422097
 10
160.7489415897418
 20
23.908178208205456
 10
160.7489415897418
 20
25.082070674862457
 10
161.22034611053286
 20
25.55347519565354
 10
161.22034611053286
 20
27.439093278817662
 10
162.35232875422344
 20
28.571075922508292
 10
162.63966224599736
 20
25.410407512994837
 10
162.2436806577362
 20
24.618444336472535
  0
LWPOLYLINE
  5
A6
330
17
100
AcDbEntity
  8
ENG_D
100
AcDbPolyline
 90
9
 70
1
 10
161.2840071124078
 20
126.37038164305936
 10
161.7893817042617
 20
125.86500705120551
 10
162.82778930585778
 20
125.86500705120551
 10
163.15777247041146
 20
124.21509122843688
 10
162.22897283514226
 20
124.21509122843688
 10
161.99327057474673
 20
124.92219800962346
 10
161.12271503759501
 20
124.92219800962346
 10
160.07690033122128
 20
125.96801271599722
 10
161.2840071124078
 20
126.37038164305936
  0
LWPOLYLINE
  5
A7
330
17
100
AcDbEntity
  8
ENG_D
100
AcDbPolyline
 90
4
 70
1
 10
162.2607862250527
 20
115.49410759380285
 10
161.45604837092836
 20
114.68936973967826
 10
161.45604837092836
 20
116.29884544792712
 10
162.2607862250527
 20
115.49410759380285
  0
LWPOLYLINE
  5
A8
330
17
100
AcDbEntity
  8
ENG_D
100
AcDbPolyline
 90
5
 70
1
 10
161.22034611053286
 20
118.89157031227782
 10
161.7947562961155
 20
119.46598049786073
 10
162.2544723093512
 20
118.08683245815355
 10
161.22034611053286
 20
118.08683245815355
 10
161.22034611053286
 20
118.89157031227782
  0
LWPOLYLINE
  5
A9
330
17
100
AcDbEntity
  8
ENG_D
100
AcDbPolyline
 90
4
 70
1
 10
161.78938170426167
 20
112.66568046905667
 10
160.98464385013733
 20
111.86094261493207
 10
160.98464385013733
 20
113.47041832318095
 10
161.78938170426167
 20
112.66568046905667
  0
LWPOLYLINE
  5
AA
330
17
100
AcDbEntity
  8
ENG_D
100
AcDbPolyline
 90
5
 70
1
 10
160.7489415897418
 20
113.37278725024314
 10
160.7489415897418
 20
114.17752510436752
 10
161.32335177532454
 20
114.7519352899501
 10
161.78306778856017
 20
113.37278725024314
 10
160.7489415897418
 20
113.37278725024314
  0
LWPOLYLINE
  5
AB
330
17
100
AcDbEntity
  8
ENG_D
100
AcDbPolyline
 90
5
 70
1
 10
160.68528058786686
 20
117.3457556059041
 10
160.07690033122128
 20
117.95413586254966
 10
161.2840071124078
 20
118.35650478961179
 10
161.89238736905338
 20
117.74812453296623
 10
160.68528058786686
 20
117.3457556059041
  0
LWPOLYLINE
  5
AC
330
17
100
AcDbEntity
  8
ENG_D
100
AcDbPolyline
 90
15
 70
1
 10
158.27141631327805
 20
118.34540631811974
 10
157.92051446499562
 20
118.6963081664023
 10
157.51277094607957
 20
118.28856464748615
 10
156.40964675979168
 20
118.65627270958213
 10
156.9095357568487
 20
119.65605070369611
 10
155.49532219447562
 20
120.59885974527818
 10
155.98380543888433
 20
121.57582623409557
 10
155.57218579890574
 20
121.98744587407417
 10
155.30539015021947
 20
124.92219800962346
 10
158.4529955763601
 20
124.92219800962346
 10
160.7489415897418
 20
123.64667244663352
 10
160.7489415897418
 20
119.3629748330689
 10
161.31797718347065
 20
118.79393923934
 10
160.34983867245595
 20
117.82580072832528
 10
158.27141631327805
 20
118.34540631811974
  0
LWPOLYLINE
  5
AD
330
17
100
AcDbEntity
  8
ENG_D
100
AcDbPolyline
 90
4
 70
1
 10
160.5132393293463
 20
111.38953809414132
 10
160.5132393293463
 20
112.99901380238985
 10
161.31797718347065
 20
112.19427594826558
 10
160.5132393293463
 20
111.38953809414132
  0
LWPOLYLINE
  5
AE
330
17
100
AcDbEntity
  8
ENG_D
100
AcDbPolyline
 90
9
 70
1
 10
160.7489415897418
 20
116.06314318753164
 10
160.7489415897418
 20
115.12033414594957
 10
161.55367944386617
 20
114.3155962918253
 10
159.44913368660397
 20
114.3155962918253
 10
158.2446700752993
 20
116.0018453476518
 10
157.38666980760013
 20
116.28784543688487
 10
157.7659299531347
 20
117.42562587348849
 10
159.92663522066832
 20
116.88544955660518
 10
160.7489415897418
 20
116.06314318753164
  0
LWPOLYLINE
  5
AF
330
17
100
AcDbEntity
  8
ENG_D
100
AcDbPolyline
 90
4
 70
1
 10
159.57043028776425
 20
236.03559372884874
 10
160.3751681418886
 20
235.2308558747249
 10
159.57043028776425
 20
234.4261180206002
 10
159.57043028776425
 20
236.03559372884874
  0
LWPOLYLINE
  5
B0
330
17
100
AcDbEntity
  8
ENG_D
100
AcDbPolyline
 90
5
 70
1
 10
159.28793195963462
 20
17.768944649387276
 10
158.33082517844807
 20
19.364122618031555
 10
159.97279921482644
 20
21.006096654409777
 10
160.29183480855528
 20
18.77284749830799
 10
159.28793195963462
 20
17.768944649387276
  0
LWPOLYLINE
  5
B1
330
17
100
AcDbEntity
  8
ENG_D
100
AcDbPolyline
 90
4
 70
1
 10
158.62762124618214
 20
233.4833089790185
 10
158.62762124618214
 20
235.322173031961
 10
160.00676928588916
 20
234.86245701872565
 10
158.62762124618214
 20
233.4833089790185
  0
LWPOLYLINE
  5
B2
330
17
100
AcDbEntity
  8
ENG_D
100
AcDbPolyline
 90
5
 70
1
 10
157.92051446499562
 20
230.75251292721012
 10
157.92051446499562
 20
233.9142733852897
 10
158.587622425246
 20
234.5813813455402
 10
158.88215076511753
 20
230.75251292721012
 10
157.92051446499562
 20
230.75251292721012
  0
LWPOLYLINE
  5
B3
330
17
100
AcDbEntity
  8
ENG_D
100
AcDbPolyline
 90
5
 70
1
 10
157.44910994420457
 20
230.61444173975244
 10
158.02352012978724
 20
231.18885192533511
 10
158.483236143023
 20
229.80970388562793
 10
157.44910994420457
 20
229.80970388562793
 10
157.44910994420457
 20
230.61444173975244
  0
LWPOLYLINE
  5
B4
330
17
100
AcDbEntity
  8
ENG_D
100
AcDbPolyline
 90
4
 70
1
 10
157.21340768380907
 20
225.66469427144665
 10
158.59255572351603
 20
224.2855462317397
 10
157.21340768380907
 20
223.82583021850388
 10
157.21340768380907
 20
225.66469427144665
  0
LWPOLYLINE
  5
B5
330
17
100
AcDbEntity
  8
ENG_D
100
AcDbPolyline
 90
7
 70
1
 10
157.52657931778992
 20
16.950401049124707
 10
156.0348963818315
 20
17.248737636316402
 10
156.0348963818315
 20
18.95381190457912
 10
156.94116815781427
 20
19.8600836805618
 10
158.39191898578665
 20
18.989633183778444
 10
158.39191898578665
 20
17.815740717121443
 10
157.52657931778992
 20
16.950401049124707
  0
LWPOLYLINE
  5
B6
330
17
100
AcDbEntity
  8
ENG_D
100
AcDbPolyline
 90
4
 70
1
 10
157.21340768380907
 20
226.41224116715276
 10
157.21340768380907
 20
228.0217168754013
 10
158.0181455379334
 20
227.21697902127747
 10
157.21340768380907
 20
226.41224116715276
  0
LWPOLYLINE
  5
B7
330
17
100
AcDbEntity
  8
ENG_D
100
AcDbPolyline
 90
4
 70
1
 10
155.799194121436
 20
118.88525639657632
 10
157.17834216114304
 20
118.42554038334075
 10
155.799194121436
 20
117.04639234363357
 10
155.799194121436
 20
118.88525639657632
  0
LWPOLYLINE
  5
B8
330
17
100
AcDbEntity
  8
ENG_D
100
AcDbPolyline
 90
5
 70
1
 10
155.50105172443602
 20
255.8235835910303
 10
155.88582518333146
 20
256.9779039677167
 10
157.040145560018
 20
256.5931305088214
 10
156.65537210112254
 20
255.438810132135
 10
155.50105172443602
 20
255.8235835910303
  0
LWPOLYLINE
  5
B9
330
17
100
AcDbEntity
  8
ENG_D
100
AcDbPolyline
 90
5
 70
1
 10
155.56349186104046
 20
111.9585736878701
 10
155.56349186104046
 20
113.70612058357644
 10
156.20156304849814
 20
114.34419177103439
 10
156.54236563180731
 20
111.9585736878701
 10
155.56349186104046
 20
111.9585736878701
  0
LWPOLYLINE
  5
BA
330
17
100
AcDbEntity
  8
ENG_D
100
AcDbPolyline
 90
19
 70
1
 10
153.67787377787633
 20
242.8160691781931
 10
153.67787377787633
 20
246.64219544664735
 10
154.14927829866738
 20
247.11359996743832
 10
154.14927829866738
 20
247.86114686314508
 10
152.78075783924962
 20
249.2296673225629
 10
150.2969884062096
 20
253.70045230203476
 10
151.80688837406026
 20
254.60639228274508
 10
153.75644119800805
 20
253.14422766478418
 10
154.80457680313935
 20
253.14422766478418
 10
154.57903498174127
 20
254.2719367717745
 10
156.2197964472399
 20
254.6000890648745
 10
156.51758388534836
 20
253.11115187433208
 10
155.10337032297528
 20
250.28272474958578
 10
155.5747748437663
 20
247.9257021456307
 10
154.6167466088005
 20
246.00964567569926
 10
154.14241492598055
 20
239.36900211621958
 10
153.27013025896036
 20
238.4967174491992
 10
152.19278503277667
 20
238.85583252459398
 10
153.67787377787633
 20
242.8160691781931
  0
LWPOLYLINE
  5
BB
330
17
100
AcDbEntity
  8
ENG_D
100
AcDbPolyline
 90
5
 70
1
 10
155.66649752583214
 20
115.22333981074118
 10
156.12621353906778
 20
113.84419177103422
 10
155.09208734024944
 20
113.84419177103422
 10
155.09208734024944
 20
114.6489296251586
 10
155.66649752583214
 20
115.22333981074118
  0
LWPOLYLINE
  5
BC
330
17
100
AcDbEntity
  8
ENG_D
100
AcDbPolyline
 90
8
 70
1
 10
155.09208734024944
 20
26.4962842372356
 10
155.09208734024944
 20
23.667857112489422
 10
155.66112293397828
 20
23.098821518760527
 10
154.6616325839993
 20
22.09933116878171
 10
151.91651606665786
 20
23.624395900638028
 10
153.69057107867204
 20
24.2157475713094
 10
153.95357485920803
 20
27.634796718277066
 10
155.09208734024944
 20
26.4962842372356
  0
LWPOLYLINE
  5
BD
330
17
100
AcDbEntity
  8
ENG_D
100
AcDbPolyline
 90
15
 70
1
 10
155.1014809741708
 20
17.007417236538092
 10
155.61458280398762
 20
15.98121357690452
 10
155.1431782831966
 20
15.509809056113433
 10
155.61458280398762
 20
14.567000014531374
 10
154.6745106592206
 20
13.626927869764272
 10
151.2724714696069
 20
15.08494466531307
 10
149.2653485133889
 20
15.08494466531307
 10
148.90138843336155
 20
16.176824905395183
 10
149.97029861342307
 20
16.533128298748977
 10
150.49129795677106
 20
16.01212895540094
 10
153.010727561496
 20
15.592224021280131
 10
153.68790068391192
 20
19.880987129914374
 10
154.6206828194584
 20
21.435624022491773
 10
155.57455182566207
 20
19.8458423454857
 10
155.1014809741708
 20
17.007417236538092
  0
LWPOLYLINE
  5
BE
330
17
100
AcDbEntity
  8
ENG_D
100
AcDbPolyline
 90
6
 70
1
 10
151.0062087603579
 20
112.75781153647335
 10
153.8392749270051
 20
113.16253527456577
 10
154.18324836973017
 20
112.13061494639054
 10
153.14189827596482
 20
111.08926485262516
 10
152.56790816877745
 20
112.23724506700006
 10
151.0062087603579
 20
112.75781153647335
  0
LWPOLYLINE
  5
BF
330
17
100
AcDbEntity
  8
ENG_D
100
AcDbPolyline
 90
7
 70
1
 10
152.30662933423775
 20
117.54688224448373
 10
152.63205907150265
 20
118.52317145627833
 10
153.67787377787633
 20
117.47735674990479
 10
153.67787377787633
 20
116.20121437498942
 10
151.93032688216994
 20
116.20121437498942
 10
151.15864911986293
 20
116.97289213729634
 10
152.30662933423775
 20
117.54688224448373
  0
LWPOLYLINE
  5
C0
330
17
100
AcDbEntity
  8
ENG_D
100
AcDbPolyline
 90
4
 70
1
 10
152.36129128844107
 20
24.984439601924645
 10
151.55655343431667
 20
24.179701747800486
 10
151.55655343431667
 20
25.78917745604914
 10
152.36129128844107
 20
24.984439601924645
  0
LWPOLYLINE
  5
C1
330
17
100
AcDbEntity
  8
ENG_D
100
AcDbPolyline
 90
5
 70
1
 10
151.88085987038147
 20
124.93122490689201
 10
152.5504648905495
 20
124.26161988672379
 10
149.34662891508782
 20
123.97036207077284
 10
148.6770238949197
 20
124.63996709094083
 10
151.88085987038147
 20
124.93122490689201
  0
LWPOLYLINE
  5
C2
330
17
100
AcDbEntity
  8
ENG_D
100
AcDbPolyline
 90
5
 70
1
 10
151.93700854334904
 20
27.58384612745468
 10
152.31546849221778
 20
25.69154638311122
 10
151.32085117392117
 20
25.69154638311122
 10
151.32085117392117
 20
26.967688758026576
 10
151.93700854334904
 20
27.58384612745468
  0
LWPOLYLINE
  5
C3
330
17
100
AcDbEntity
  8
ENG_D
100
AcDbPolyline
 90
5
 70
1
 10
150.53585022842316
 20
115.92928267074154
 10
148.5554760886048
 20
116.32535749870543
 10
150.41457939793838
 20
117.44081948430541
 10
150.88341672419293
 20
116.97198215805093
 10
150.53585022842316
 20
115.92928267074154
  0
LWPOLYLINE
  5
C4
330
17
100
AcDbEntity
  8
ENG_D
100
AcDbPolyline
 90
5
 70
1
 10
148.76319183223652
 20
111.35447257147524
 10
149.97029861342304
 20
111.75684149853737
 10
150.5786788700686
 20
111.14846124189182
 10
149.3715720888821
 20
110.74609231482968
 10
148.76319183223652
 20
111.35447257147524
  0
LWPOLYLINE
  5
C5
330
17
100
AcDbEntity
  8
ENG_D
100
AcDbPolyline
 90
4
 70
1
 10
150.00426868448588
 20
21.213203435596405
 10
149.19953083036154
 20
20.408465581472136
 10
149.19953083036154
 20
22.017941289720678
 10
150.00426868448588
 20
21.213203435596405
  0
LWPOLYLINE
  5
C6
330
17
100
AcDbEntity
  8
ENG_D
100
AcDbPolyline
 90
4
 70
1
 10
149.53286416369485
 20
116.90832115617589
 10
148.72812630957048
 20
116.10358330205162
 10
148.72812630957048
 20
117.71305901030016
 10
149.53286416369485
 20
116.90832115617589
  0
LWPOLYLINE
  5
C7
330
17
100
AcDbEntity
  8
ENG_D
100
AcDbPolyline
 90
5
 70
1
 10
148.49242404917499
 20
22.253643550116276
 10
149.06683423475764
 20
22.828053735699182
 10
149.52655024799333
 20
21.448905695992003
 10
148.49242404917499
 20
21.448905695992003
 10
148.49242404917499
 20
22.253643550116276
  0
LWPOLYLINE
  5
C8
330
17
100
AcDbEntity
  8
ENG_D
100
AcDbPolyline
 90
5
 70
1
 10
149.16446530769548
 20
238.4276818554707
 10
147.95735852650884
 20
238.02531292840823
 10
147.34897826986352
 20
238.6336931850539
 10
148.55608505105
 20
239.0360621121157
 10
149.16446530769548
 20
238.4276818554707
  0
LWPOLYLINE
  5
C9
330
17
100
AcDbEntity
  8
ENG_D
100
AcDbPolyline
 90
5
 70
1
 10
147.95735852650898
 20
111.21749683562065
 10
147.34897826986347
 20
111.82587709226621
 10
148.55608505105
 20
112.22824601932845
 10
149.16446530769548
 20
111.61986576268279
 10
147.95735852650898
 20
111.21749683562065
  0
LWPOLYLINE
  5
CA
330
17
100
AcDbEntity
  8
ENG_D
100
AcDbPolyline
 90
126
 70
1
 10
121.18724945989798
 20
16.04468718419705
 10
122.16136927493478
 20
14.58350746164172
 10
121.22326344680029
 20
13.645401633507248
 10
119.11977418905299
 20
14.171273947944151
 10
118.17696514747092
 20
15.585487510317186
 10
116.31641396287627
 20
16.05062530646584
 10
114.45366747928287
 20
17.91337179005925
 10
113.51085843770082
 20
17.91337179005925
 10
112.19427594826554
 20
19.22995427949448
 10
112.19427594826554
 20
23.615618147384776
 10
113.10789573733776
 20
25.899667620065348
 10
112.19427594826554
 20
27.27009730367369
 10
112.19427594826554
 20
29.32471136198178
 10
112.56804939611878
 20
29.69848480983506
 10
111.58642719110334
 20
30.680107014850467
 10
108.9226994945586
 20
31.890892331461696
 10
108.44899327908367
 20
34.25942340883636
 10
106.57837146331408
 20
35.29865775093055
 10
106.16364825091993
 20
34.883934538536444
 10
105.05184323419398
 20
34.883934538536444
 10
103.92462891497652
 20
35.63541075134802
 10
103.70590783441502
 20
31.042268059556456
 10
102.75335059877946
 20
29.45467266683055
 10
100.40916292848975
 20
33.8825827107111
 10
100.40916292848975
 20
34.78630346559852
 10
98.99494936611666
 20
36.20051702797167
 10
98.5872058472006
 20
35.79277350905552
 10
97.56731555289426
 20
36.13273694049113
 10
97.84917487776116
 20
39.79690816376069
 10
101.40040059339572
 20
37.260318366878934
 10
103.26501246576333
 20
37.72647133497075
 10
105.17884989230393
 20
36.769552621700456
 10
107.53587249625909
 20
36.769552621700456
 10
109.42149057942322
 20
35.82674358011839
 10
110.87769345883027
 20
35.82674358011839
 10
112.6428088694858
 20
34.061628169462786
 10
113.12014553865532
 20
32.152281492784816
 10
114.1161816480325
 20
30.658227328719036
 10
113.60848951063863
 20
29.64284305393128
 10
113.60848951063863
 20
27.946319078807957
 10
114.59442808140017
 20
27.35475593635117
 10
116.98579052976122
 20
27.83302842602331
 10
117.85113019775793
 20
26.967688758026576
 10
117.85113019775793
 20
25.40746441840136
 10
116.98782664974702
 20
23.39308947304264
 10
115.47457129689232
 20
24.906344825897374
 10
113.55969609031764
 20
23.41699744300596
 10
113.16490586779946
 20
22.62741699796955
 10
113.6595804535858
 20
21.638067826396878
 10
113.13708498984761
 20
21.115572362658597
 10
113.13708498984761
 20
20.368025466952155
 10
113.65502964062925
 20
19.850080816170458
 10
115.4384658378989
 20
20.741798914805322
 10
117.00595222911367
 20
20.741798914805322
 10
117.45719505055222
 20
20.29055609336683
 10
118.32253471854895
 20
20.46362402696611
 10
118.32253471854895
 20
22.28215649878107
 10
119.73674828092206
 20
23.22496554036313
 10
119.73674828092206
 20
25.55347519565354
 10
120.20815280171308
 20
26.024879716444516
 10
120.20815280171308
 20
27.26289478574806
 10
118.718425599453
 20
29.249197722094777
 10
119.16771268719322
 20
29.698484809834945
 10
121.99613981193936
 20
29.698484809834945
 10
122.46754433273038
 20
30.16988933062603
 10
123.79549498436033
 20
30.16988933062603
 10
123.5281461466028
 20
28.833145141838322
 10
124.13421099939715
 20
28.227080289043972
 10
125.9435744713373
 20
26.870057685088767
 10
127.4724502465304
 20
26.870057685088767
 10
127.77078683372206
 20
25.378374749130405
 10
126.82797779214
 20
24.435565707548346
 10
127.25698249427958
 20
22.29054219685045
 10
129.0997359386941
 20
20.908477113539604
 10
130.10095781046974
 20
19.506766493053718
 10
131.86079250686032
 20
22.146518537639604
 10
134.82169294623506
 20
22.374280109899168
 10
134.82169294623506
 20
24.139261633280395
 10
136.25447949604836
 20
25.572048183093663
 10
136.52241096399078
 20
26.91170552280586
 10
138.1215245917723
 20
26.591882797249554
 10
138.1215245917723
 20
25.53137846018183
 10
139.23493313570125
 20
23.97260649868127
 10
141.0285191366503
 20
22.62741699796955
 10
141.67329385716118
 20
22.62741699796955
 10
142.15418488336059
 20
29.359891364761246
 10
143.26043419048295
 20
28.806766711200083
 10
144.18612236018072
 20
29.73245488089782
 10
145.60033592255382
 20
29.261050360106843
 10
146.13540144521986
 20
29.796115882772757
 10
148.00244654094377
 20
27.929070787048758
 10
148.50938709105847
 20
25.394368036475434
 10
146.62376900789434
 20
23.03734543252023
 10
147.09837218615436
 20
20.664329541220106
 10
146.13540144521983
 20
19.70135880028556
 10
146.13540144521983
 20
18.287145237912416
 10
145.19259240363778
 20
17.344336196330357
 10
145.19259240363778
 20
15.930122633957321
 10
143.40460539341146
 20
14.142135623731011
 10
139.39006614599575
 20
14.142135623731011
 10
138.89717706583752
 20
15.127913784047431
 10
138.14806175563714
 20
15.377618887447596
 10
137.63800377529145
 20
18.437966769521697
 10
138.59292911256333
 20
19.870354775429533
 10
138.59292911256333
 20
21.115572362658597
 10
138.1215245917723
 20
21.586976883449683
 10
138.1215245917723
 20
23.001190445822715
 10
137.1532367315874
 20
23.96947830600771
 10
135.7645019878171
 20
22.97752491760019
 10
135.7645019878171
 20
19.22995427949448
 10
134.41788681550162
 20
17.883339107178987
 10
135.2930974670261
 20
16.570523129892266
 10
135.2930974670261
 20
14.95149231317594
 10
133.8135620078303
 20
14.063771037658434
 10
131.41864416507977
 20
17.41665601750908
 10
129.2810427571207
 20
16.989135735917426
 10
128.72997144155093
 20
16.438064420347565
 10
127.30993710708199
 20
17.29008502102891
 10
125.88787865077624
 20
22.9783188462519
 10
124.35316241589454
 20
24.513035081133673
 10
124.07702004097916
 20
24.513035081133673
 10
122.05178156784314
 20
22.487796607997712
 10
121.15096184329515
 20
20.68615715890165
 10
121.15096184329515
 20
17.539598342205977
 10
121.67345730703336
 20
17.017102878467803
 10
121.18724945989798
 20
16.04468718419705
  0
LWPOLYLINE
  5
CB
330
17
100
AcDbEntity
  8
ENG_D
100
AcDbPolyline
 90
6
 70
1
 10
144.47880396127206
 20
22.77216984660646
 10
143.79695182870483
 20
23.454021979173568
 10
143.63362599262777
 20
24.270651159558952
 10
143.35077755364927
 20
23.987802720580433
 10
143.9196873518724
 20
22.66034652472648
 10
144.47880396127206
 20
22.77216984660646
  0
LWPOLYLINE
  5
CC
330
17
100
AcDbEntity
  8
ENG_D
100
AcDbPolyline
 90
5
 70
1
 10
141.78975509330888
 20
15.756985923833566
 10
141.85879068703775
 20
15.964092705020082
 10
141.52436190210113
 20
16.2985214899567
 10
141.4553263083723
 20
16.09141470877018
 10
141.78975509330888
 20
15.756985923833566
  0
LWPOLYLINE
  5
CD
330
17
100
AcDbEntity
  8
ENG_D
100
AcDbPolyline
 90
4
 70
1
 10
148.5900551221128
 20
253.14422766478418
 10
147.78531726798843
 20
252.33948981065944
 10
147.78531726798843
 20
253.948965518908
 10
148.5900551221128
 20
253.14422766478418
  0
LWPOLYLINE
  5
CE
330
17
100
AcDbEntity
  8
ENG_D
100
AcDbPolyline
 90
4
 70
1
 10
147.78531726798843
 20
114.41322736476323
 10
148.59005512211277
 20
113.60848951063862
 10
147.78531726798843
 20
112.80375165651435
 10
147.78531726798843
 20
114.41322736476323
  0
LWPOLYLINE
  5
CF
330
17
100
AcDbEntity
  8
ENG_D
100
AcDbPolyline
 90
5
 70
1
 10
148.31435404078135
 20
252.4771197045337
 10
144.63117703659188
 20
252.193798396519
 10
143.95644884965853
 20
252.8685265834527
 10
147.63962585384766
 20
253.15184789146716
 10
148.31435404078135
 20
252.4771197045337
  0
LWPOLYLINE
  5
D0
330
17
100
AcDbEntity
  8
ENG_D
100
AcDbPolyline
 90
5
 70
1
 10
147.62708438117824
 20
112.68584216840904
 10
148.26340344995864
 20
112.04952309962867
 10
146.52933659242552
 20
111.70270972812213
 10
145.89301752364514
 20
112.3390287969025
 10
147.62708438117824
 20
112.68584216840904
  0
LWPOLYLINE
  5
D1
330
17
100
AcDbEntity
  8
ENG_D
100
AcDbPolyline
 90
5
 70
1
 10
147.13001876351643
 20
163.81307097488363
 10
146.13540144521983
 20
163.81307097488363
 10
146.13540144521983
 20
165.08921334979897
 10
146.75155881464778
 20
165.70537071922686
 10
147.13001876351643
 20
163.81307097488363
  0
LWPOLYLINE
  5
D2
330
17
100
AcDbEntity
  8
ENG_D
100
AcDbPolyline
 90
4
 70
1
 10
145.89969918482433
 20
117.98920138521574
 10
145.89969918482433
 20
119.59867709346462
 10
146.70443703894864
 20
118.79393923934
 10
145.89969918482433
 20
117.98920138521574
  0
LWPOLYLINE
  5
D3
330
17
100
AcDbEntity
  8
ENG_D
100
AcDbPolyline
 90
4
 70
1
 10
146.23303251815764
 20
119.26534376013109
 10
145.42829466403327
 20
118.46060590600682
 10
145.42829466403327
 20
120.07008161425536
 10
146.23303251815764
 20
119.26534376013109
  0
LWPOLYLINE
  5
D4
330
17
100
AcDbEntity
  8
ENG_D
100
AcDbPolyline
 90
5
 70
1
 10
145.1289314017628
 20
124.4168234177696
 10
144.52055114511725
 20
125.02520367441517
 10
145.72765792630378
 20
125.4275726014773
 10
146.33603818294932
 20
124.81919234483175
 10
145.1289314017628
 20
124.4168234177696
  0
LWPOLYLINE
  5
D5
330
17
100
AcDbEntity
  8
ENG_D
100
AcDbPolyline
 90
5
 70
1
 10
145.29559806842946
 20
120.88019406023353
 10
145.7553140816651
 20
119.50104602052659
 10
144.72118788284675
 20
119.50104602052659
 10
144.72118788284675
 20
120.30578387465096
 10
145.29559806842946
 20
120.88019406023353
  0
LWPOLYLINE
  5
D6
330
17
100
AcDbEntity
  8
ENG_D
100
AcDbPolyline
 90
12
 70
1
 10
138.4586640558391
 20
159.2980940435823
 10
138.92471324338246
 20
159.76414323112576
 10
139.95150091903255
 20
160.27753706895075
 10
142.4617963518294
 20
160.27753706895075
 10
143.39353684589247
 20
159.3457965748877
 10
145.6639969244288
 20
159.59806991694725
 10
145.6639969244288
 20
157.82288339205786
 10
144.83444370727872
 20
156.9933301749077
 10
141.96646973422273
 20
156.5153345127318
 10
139.73410079903329
 20
155.39915004513705
 10
139.99541389928893
 20
158.27359414794918
 10
138.4586640558391
 20
159.2980940435823
  0
LWPOLYLINE
  5
D7
330
17
100
AcDbEntity
  8
ENG_D
100
AcDbPolyline
 90
4
 70
1
 10
144.48548562245122
 20
154.75875400691618
 10
144.48548562245122
 20
156.36822971516506
 10
145.29022347657556
 20
155.56349186104046
 10
144.48548562245122
 20
154.75875400691618
  0
LWPOLYLINE
  5
D8
330
17
100
AcDbEntity
  8
ENG_D
100
AcDbPolyline
 90
4
 70
1
 10
144.48548562245122
 20
123.64605563470809
 10
144.48548562245122
 20
125.25553134295697
 10
145.29022347657556
 20
124.45079348883237
 10
144.48548562245122
 20
123.64605563470809
  0
LWPOLYLINE
  5
D9
330
17
100
AcDbEntity
  8
ENG_D
100
AcDbPolyline
 90
7
 70
1
 10
142.6349330619532
 20
249.9474016840384
 10
143.8420398431397
 20
250.34977061110087
 10
144.72118788284675
 20
249.47062257139385
 10
144.72118788284675
 20
247.2516711548962
 10
143.3069743204736
 20
247.2516711548962
 10
143.3069743204736
 20
249.27536042551824
 10
142.6349330619532
 20
249.9474016840384
  0
LWPOLYLINE
  5
DA
330
17
100
AcDbEntity
  8
ENG_D
100
AcDbPolyline
 90
5
 70
1
 10
143.7147178393897
 20
123.47401437618754
 10
143.10633758274412
 20
124.0823946328331
 10
144.31344436393067
 20
124.48476355989524
 10
144.92182462057625
 20
123.87638330324968
 10
143.7147178393897
 20
123.47401437618754
  0
LWPOLYLINE
  5
DB
330
17
100
AcDbEntity
  8
ENG_D
100
AcDbPolyline
 90
5
 70
1
 10
143.84203984313962
 20
122.59914547673112
 10
144.45042009978516
 20
121.99076522008556
 10
143.2433133185986
 20
121.58839629302332
 10
142.63493306195312
 20
122.19677654966898
 10
143.84203984313962
 20
122.59914547673112
  0
LWPOLYLINE
  5
DC
330
17
100
AcDbEntity
  8
ENG_D
100
AcDbPolyline
 90
4
 70
1
 10
142.93320087262038
 20
122.56517540566824
 10
142.12846301849603
 20
121.76043755154397
 10
142.12846301849603
 20
123.36991325979285
 10
142.93320087262038
 20
122.56517540566824
  0
LWPOLYLINE
  5
DD
330
17
100
AcDbEntity
  8
ENG_D
100
AcDbPolyline
 90
4
 70
1
 10
141.99039183103835
 20
251.73001410241102
 10
141.18565397691398
 20
250.9252762482863
 10
141.18565397691398
 20
252.53475195653485
 10
141.99039183103835
 20
251.73001410241102
  0
LWPOLYLINE
  5
DE
330
17
100
AcDbEntity
  8
ENG_D
100
AcDbPolyline
 90
4
 70
1
 10
140.71424945612296
 20
253.00615647732673
 10
141.5189873102473
 20
252.201418623202
 10
140.71424945612296
 20
251.39668076907728
 10
140.71424945612296
 20
253.00615647732673
  0
LWPOLYLINE
  5
DF
330
17
100
AcDbEntity
  8
ENG_D
100
AcDbPolyline
 90
4
 70
1
 10
133.17177712346646
 20
26.73198649763131
 10
133.97651497759077
 20
25.927248643506708
 10
133.17177712346646
 20
25.122510789382435
 10
133.17177712346646
 20
26.73198649763131
  0
LWPOLYLINE
  5
E0
330
17
100
AcDbEntity
  8
ENG_D
100
AcDbPolyline
 90
4
 70
1
 10
133.50511045679977
 20
26.39865316429779
 10
132.70037260267543
 20
25.59391531017352
 10
132.70037260267543
 20
27.203391018422064
 10
133.50511045679977
 20
26.39865316429779
  0
LWPOLYLINE
  5
E1
330
17
100
AcDbEntity
  8
ENG_D
100
AcDbPolyline
 90
9
 70
1
 10
115.86788104165599
 20
13.670731102939925
 10
116.33928556244702
 20
14.142135623730901
 10
117.89950990207218
 20
14.142135623730901
 10
120.56925300191779
 20
12.997960009511367
 10
112.13251501834436
 20
12.725807171331539
 10
110.37170990453122
 20
13.78229023961952
 10
112.27174532185087
 20
14.162297323083383
 10
112.76331154199438
 20
13.670731102939925
 10
115.86788104165599
 20
13.670731102939925
  0
LWPOLYLINE
  5
E2
330
17
100
AcDbEntity
  8
ENG_D
100
AcDbPolyline
 90
7
 70
1
 10
116.03079786122548
 20
15.556349186104047
 10
117.66057492967312
 20
14.578482945035386
 10
115.52983909970635
 20
13.66531044647823
 10
113.26458409346955
 20
13.917005447171228
 10
112.63171039799379
 20
14.549879142646937
 10
112.96720041247947
 20
15.556349186104047
 10
116.03079786122548
 20
15.556349186104047
  0
LWPOLYLINE
  5
E3
330
17
100
AcDbEntity
  8
ENG_D
100
AcDbPolyline
 90
4
 70
1
 10
115.25840533340725
 20
240.27823441596863
 10
116.06314318753161
 20
239.47349656184414
 10
115.25840533340725
 20
238.66875870772031
 10
115.25840533340725
 20
240.27823441596863
  0
LWPOLYLINE
  5
E4
330
17
100
AcDbEntity
  8
ENG_D
100
AcDbPolyline
 90
4
 70
1
 10
114.78700081261623
 20
238.19735418692866
 10
114.78700081261623
 20
239.80682989517766
 10
115.59173866674054
 20
239.00209204105317
 10
114.78700081261623
 20
238.19735418692866
  0
LWPOLYLINE
  5
E5
330
17
100
AcDbEntity
  8
ENG_D
100
AcDbPolyline
 90
4
 70
1
 10
112.29190702120331
 20
235.7022603955159
 10
111.487169167079
 20
234.8975225413914
 10
111.487169167079
 20
236.5069982496404
 10
112.29190702120331
 20
235.7022603955159
  0
LWPOLYLINE
  5
E6
330
17
100
AcDbEntity
  8
ENG_D
100
AcDbPolyline
 90
5
 70
1
 10
111.78653242934948
 20
15.118914736375832
 10
112.39491268599505
 20
14.510534479730275
 10
111.18780590480851
 20
14.10816555266814
 10
110.57942564816295
 20
14.716545809313697
 10
111.78653242934948
 20
15.118914736375832
  0
LWPOLYLINE
  5
E7
330
17
100
AcDbEntity
  8
ENG_D
100
AcDbPolyline
 90
4
 70
1
 10
111.82050250041233
 20
235.2308558747249
 10
111.01576464628798
 20
234.42611802060043
 10
111.01576464628798
 20
236.03559372884874
 10
111.82050250041233
 20
235.2308558747249
  0
LWPOLYLINE
  5
E8
330
17
100
AcDbEntity
  8
ENG_D
100
AcDbPolyline
 90
5
 70
1
 10
108.3813919442202
 20
37.52746159787412
 10
108.72891274616043
 20
39.265065607575366
 10
110.35635274383768
 20
38.288601608969074
 10
109.99506144039445
 20
37.20472769863936
 10
108.3813919442202
 20
37.52746159787412
  0
LWPOLYLINE
  5
E9
330
17
100
AcDbEntity
  8
ENG_D
100
AcDbPolyline
 90
7
 70
1
 10
106.12967817985717
 20
236.67903950816083
 10
106.64853280988426
 20
236.1601848781336
 10
109.36974536541103
 20
235.7714402273441
 10
109.35991597053479
 20
235.5351259007743
 10
104.0885767722031
 20
235.22504712440173
 10
103.50835783629763
 20
235.80526606030762
 10
106.12967817985717
 20
236.67903950816083
  0
LWPOLYLINE
  5
EA
330
17
100
AcDbEntity
  8
ENG_D
100
AcDbPolyline
 90
25
 70
1
 10
102.15296971847536
 20
49.50519611300053
 10
102.27598371272555
 20
49.7512241015009
 10
103.25977611565274
 20
48.11157009662226
 10
103.19935736353014
 20
47.93031384025448
 10
104.65180361560904
 20
45.31591058651252
 10
104.65180361560904
 20
42.328775798255
 10
103.78129617753211
 20
41.45826836017819
 10
101.895678094368
 20
41.92967288096916
 10
100.95803682286612
 20
40.9920316094673
 10
99.50174774311076
 20
41.28328942541837
 10
99.27312425395586
 20
42.426406871192924
 10
97.93686216601631
 20
42.426406871192924
 10
96.17953883826749
 20
44.68582257829856
 10
95.70415133068853
 20
47.53814762377229
 10
94.75230867899737
 20
49.441832927154536
 10
94.75230867899737
 20
50.814057172493655
 10
94.18327308526852
 20
51.38309276622244
 10
94.7012177360502
 20
51.90103741700413
 10
93.31931692318086
 20
54.66483904274278
 10
93.60917600763506
 20
55.53441629610545
 10
95.6165503004476
 20
57.0399470157148
 10
98.14977139747239
 20
57.0399470157148
 10
98.95037524510512
 20
56.239343168082215
 10
102.31489034293884
 20
49.990957986390974
 10
102.15296971847536
 20
49.50519611300053
  0
LWPOLYLINE
  5
EB
330
17
100
AcDbEntity
  8
ENG_D
100
AcDbPolyline
 90
6
 70
1
 10
102.97109362559522
 20
47.245522626449656
 10
102.95252453056987
 20
47.189815341373674
 10
102.3914351544847
 20
47.00278554934534
 10
102.67615528019903
 20
46.43334529791665
 10
102.80865815988858
 20
46.43334529791665
 10
102.97109362559522
 20
47.245522626449656
  0
LWPOLYLINE
  5
EC
330
17
100
AcDbEntity
  8
ENG_D
100
AcDbPolyline
 90
5
 70
1
 10
98.04196120073993
 20
48.17126583114584
 10
98.23527097694146
 20
46.81809739773524
 10
98.99494936611664
 20
47.273904431240354
 10
98.99494936611664
 20
47.49055999873397
 10
98.04196120073993
 20
48.17126583114584
  0
LWPOLYLINE
  5
ED
330
17
100
AcDbEntity
  8
ENG_D
100
AcDbPolyline
 90
13
 70
1
 10
101.35197197007182
 20
94.82367358120358
 10
102.49949245338831
 20
93.10239285622879
 10
99.26164244517325
 20
93.10239285622879
 10
100.40916292848975
 20
94.82367358120358
 10
100.40916292848975
 20
97.67836687668141
 10
100.89241841798604
 20
98.16162236617775
 10
101.36382293877706
 20
101.932858532506
 10
101.82337649086284
 20
102.39241208459171
 10
101.82337649086284
 20
104.78525596774635
 10
103.49397387468107
 20
105.78761439803708
 10
103.23543960312605
 20
100.35839469538188
 10
101.35197197007182
 20
95.64972561274632
 10
101.35197197007182
 20
94.82367358120358
  0
LWPOLYLINE
  5
EE
330
17
100
AcDbEntity
  8
ENG_D
100
AcDbPolyline
 90
4
 70
1
 10
102.86381660538271
 20
29.227080289043972
 10
102.05907875125835
 20
28.4223424349197
 10
102.05907875125835
 20
30.031818143168245
 10
102.86381660538271
 20
29.227080289043972
  0
LWPOLYLINE
  5
EF
330
17
100
AcDbEntity
  8
ENG_D
100
AcDbPolyline
 90
5
 70
1
 10
101.82337649086284
 20
106.16364825091995
 10
102.3977866764455
 20
106.73805843650274
 10
102.85750268968118
 20
105.35891039679568
 10
101.82337649086284
 20
105.35891039679568
 10
101.82337649086284
 20
106.16364825091995
  0
LWPOLYLINE
  5
F0
330
17
100
AcDbEntity
  8
ENG_D
100
AcDbPolyline
 90
30
 70
1
 10
101.35197197007182
 20
227.59075246913073
 10
101.35197197007182
 20
225.09565867771752
 10
99.93775840769872
 20
225.09565867771752
 10
99.93775840769872
 20
226.62427789932593
 10
98.57067568384937
 20
227.60076555921827
 10
97.09631468605552
 20
225.70515856205486
 10
96.62230201066741
 20
222.86108250972615
 10
95.79274879351716
 20
222.03152929257587
 10
94.67374125886568
 20
222.03152929257587
 10
92.92889285474426
 20
223.34016559566706
 10
91.45247703346014
 20
221.02008359079184
 10
91.45247703346014
 20
220.09026945350828
 10
89.94823321884117
 20
217.0817818242702
 10
88.51161216142249
 20
217.0817818242702
 10
89.56685895029602
 20
219.71989879645403
 10
89.56685895029602
 20
221.14436200689758
 10
90.99184005691129
 20
223.99432422012833
 10
91.94488709163991
 20
228.75955939377124
 10
97.45131684535461
 20
233.30834919031807
 10
98.57008497531623
 20
233.86773325529919
 10
98.97911056282597
 20
233.4587076677892
 10
101.24157493659071
 20
236.1736649163071
 10
102.48801064460571
 20
236.1736649163071
 10
102.77534969657962
 20
234.73696965643765
 10
101.82337649086284
 20
232.35703664214546
 10
101.82337649086284
 20
230.890584114668
 10
101.4496030430096
 20
230.5168106668145
 10
101.82337649086284
 20
230.14303721896124
 10
101.82337649086284
 20
228.0621569899217
 10
101.35197197007182
 20
227.59075246913073
  0
LWPOLYLINE
  5
F1
330
17
100
AcDbEntity
  8
ENG_D
100
AcDbPolyline
 90
4
 70
1
 10
101.58767423046733
 20
27.950937914128392
 10
101.58767423046733
 20
29.56041362237727
 10
102.39241208459167
 20
28.755675768253
 10
101.58767423046733
 20
27.950937914128392
  0
LWPOLYLINE
  5
F2
330
17
100
AcDbEntity
  8
ENG_D
100
AcDbPolyline
 90
10
 70
1
 10
100.31153185555195
 20
215.43186600150156
 10
99.93775840769872
 20
215.80563944935471
 10
99.93775840769872
 20
216.9216139013408
 10
101.23067536891156
 20
218.73169764703871
 10
102.04562134963942
 20
218.73169764703871
 10
102.2992625752593
 20
214.41979681150093
 10
101.01819029677159
 20
212.62629562161806
 10
99.40159354101455
 20
212.3029762704668
 10
99.9563313951389
 20
215.07666554108852
 10
100.31153185555195
 20
215.43186600150156
  0
LWPOLYLINE
  5
F3
330
17
100
AcDbEntity
  8
ENG_D
100
AcDbPolyline
 90
4
 70
1
 10
99.23065162651218
 20
212.9367722100889
 10
100.03538948063652
 20
212.1320343559643
 10
99.23065162651218
 20
211.32729650184
 10
99.23065162651218
 20
212.9367722100889
  0
LWPOLYLINE
  5
F4
330
17
100
AcDbEntity
  8
ENG_D
100
AcDbPolyline
 90
6
 70
1
 10
97.61877801330292
 20
210.7133904386963
 10
94.46550400395105
 20
211.0000517122739
 10
96.06889116843264
 20
212.60343887675538
 10
97.62911550805782
 20
212.60343887675538
 10
99.8290032717492
 20
211.6606298351733
 10
97.61877801330292
 20
210.7133904386963
  0
LWPOLYLINE
  5
F5
330
17
100
AcDbEntity
  8
ENG_D
100
AcDbPolyline
 90
5
 70
1
 10
97.10933128295252
 20
93.57379737701987
 10
97.10933128295252
 20
95.2747684766061
 10
98.70293362709174
 20
98.78069363371245
 10
99.00922164219129
 20
93.57379737701987
 10
97.10933128295252
 20
93.57379737701987
  0
LWPOLYLINE
  5
F6
330
17
100
AcDbEntity
  8
ENG_D
100
AcDbPolyline
 90
4
 70
1
 10
96.87362902255701
 20
30.503222663959328
 10
98.76592876690027
 20
28.6109229196162
 10
96.87362902255701
 20
28.232462970747328
 10
96.87362902255701
 20
30.503222663959328
  0
LWPOLYLINE
  5
F7
330
17
100
AcDbEntity
  8
ENG_D
100
AcDbPolyline
 90
73
 70
1
 10
84.64343844168381
 20
89.69426553540049
 10
84.86826272061121
 20
88.57014414076359
 10
83.5762230275034
 20
86.76128857041255
 10
81.83374645485411
 20
86.4127932558828
 10
82.44470019548338
 20
87.6347007371413
 10
82.02438661763951
 20
88.05501431498519
 10
82.02438661763951
 20
89.6225007061997
 10
82.97087209954914
 20
91.51547167001894
 10
83.44501325439063
 20
98.62758899264146
 10
83.88984300145117
 20
99.07241873970196
 10
83.78226575483066
 20
99.61030497280443
 10
82.63203778218367
 20
98.0766676759418
 10
78.35111223557213
 20
97.12535088780594
 10
76.81085157204497
 20
96.02516469957212
 10
76.35059291695485
 20
94.18413007921167
 10
74.481914284983
 20
91.381112131254
 10
74.481914284983
 20
89.94063239814932
 10
74.10814083712978
 20
89.56685895029604
 10
74.60962209487357
 20
89.06537769255229
 10
72.43666206516932
 20
87.5132633856206
 10
72.11360869830202
 20
89.12853021995714
 10
73.06770072260991
 20
91.03671426857285
 10
73.06770072260991
 20
92.76905952289549
 10
72.0165187378621
 20
93.82024150764335
 10
76.23463290731819
 20
97.54210695128107
 10
78.18195233060509
 20
98.51576666292449
 10
81.40378227371652
 20
98.97602808336892
 10
82.54148424138603
 20
101.02389162517412
 10
84.73660968200768
 20
103.21901706579573
 10
85.87206049343892
 20
103.44610722808201
 10
86.79130852482395
 20
105.28460329085209
 10
88.22165859356348
 20
106.238170003345
 10
89.4168224843741
 20
107.91139945047989
 10
93.29535414581252
 20
109.3658488235194
 10
94.62616465739474
 20
109.3658488235194
 10
95.53960936669709
 20
110.73601588747283
 10
98.22769427298383
 20
111.81124984998758
 10
98.5437065446781
 20
110.23118849151614
 10
98.05214032453459
 20
109.73962227137257
 10
98.05214032453459
 20
106.96343411173103
 10
97.10933128295252
 20
104.60641150777595
 10
97.10933128295252
 20
102.66855445950718
 10
96.6379267621615
 20
102.1971499387161
 10
96.6379267621615
 20
98.89731829317883
 10
96.16652224137047
 20
98.42591377238786
 10
96.16652224137047
 20
97.48310473080579
 10
95.22371319978839
 20
96.54029568922373
 10
95.22371319978839
 20
95.79274879351729
 10
95.69511772057945
 20
95.32134427272621
 10
95.69511772057945
 20
89.46922787735822
 10
95.22371319978839
 20
88.99782335656725
 10
95.22371319978839
 20
88.0265013663205
 10
93.87766930398014
 20
87.12913876911499
 10
94.37755830103714
 20
86.12936077500089
 10
93.27443411474928
 20
85.76165271290492
 10
92.76905952289539
 20
86.26702730475888
 10
92.02151262718903
 20
86.26702730475888
 10
91.5657328578921
 20
85.81124753546187
 10
88.71270067316637
 20
85.335742171341
 10
87.27288224825432
 20
84.37586322139967
 10
83.61667018840649
 20
84.65711030292633
 10
85.22658719023892
 20
86.26702730475877
 10
87.11220527340303
 20
86.26702730475877
 10
87.7181793935995
 20
86.87300142495525
 10
89.095454429505
 20
90.08664317540149
 10
89.095454429505
 20
92.225401497674
 10
88.64213527773083
 20
92.37650788159868
 10
86.79407358145367
 20
91.45247703346027
 10
85.8932538569056
 20
91.45247703346027
 10
85.42184933611453
 20
90.98107251266919
 10
85.89325385690556
 20
90.50966799187809
 10
84.78824276126524
 20
89.40465689623767
 10
84.64343844168381
 20
89.69426553540049
  0
LWPOLYLINE
  5
F8
330
17
100
AcDbEntity
  8
ENG_D
100
AcDbPolyline
 90
4
 70
1
 10
83.4386001800126
 20
89.46922787735822
 10
83.4386001800126
 20
88.72168098165179
 10
83.81237362786585
 20
89.09545442950505
 10
83.4386001800126
 20
89.46922787735822
  0
LWPOLYLINE
  5
F9
330
17
100
AcDbEntity
  8
ENG_D
100
AcDbPolyline
 90
6
 70
1
 10
83.68297540936678
 20
89.9088652525879
 10
83.81237362786585
 20
90.038263471087
 10
84.47143947384058
 20
90.038263471087
 10
84.23573721344505
 20
90.50966799187809
 10
84.04345705294088
 20
90.50966799187809
 10
83.68297540936678
 20
89.9088652525879
  0
LWPOLYLINE
  5
FA
330
17
100
AcDbEntity
  8
ENG_D
100
AcDbPolyline
 90
14
 70
1
 10
90.03826347108705
 20
96.68630646647591
 10
91.45247703346016
 20
99.98613811201318
 10
91.45247703346016
 20
102.39241208459171
 10
91.9037198548987
 20
102.84365490603031
 10
91.7791287056143
 20
103.46661065245233
 10
91.43390404601996
 20
103.12138599285802
 10
91.18294495397495
 20
101.86659053263303
 10
89.23681197130321
 20
101.38005728696497
 10
88.15264538792293
 20
99.86222407023271
 10
88.15264538792293
 20
95.16807144388461
 10
87.76814912865252
 20
94.39907892534383
 10
89.04162658974278
 20
93.85330287059102
 10
90.03826347108705
 20
94.84993975193522
 10
90.03826347108705
 20
96.68630646647591
  0
LWPOLYLINE
  5
FB
330
17
100
AcDbEntity
  8
ENG_D
100
AcDbPolyline
 90
5
 70
1
 10
97.67205296097983
 20
92.63098833543782
 10
96.6379267621615
 20
92.63098833543782
 10
96.6379267621615
 20
93.43572618956209
 10
97.21233694774416
 20
94.01013637514488
 10
97.67205296097983
 20
92.63098833543782
  0
LWPOLYLINE
  5
FC
330
17
100
AcDbEntity
  8
ENG_D
100
AcDbPolyline
 90
10
 70
1
 10
91.45247703346016
 20
216.31903328717982
 10
91.45247703346016
 20
220.78720030757103
 10
93.87316063929036
 20
221.59409484284788
 10
94.75230867899737
 20
220.71494680314063
 10
94.75230867899737
 20
216.9437106368125
 10
95.22371319978839
 20
216.47230611602143
 10
95.22371319978839
 20
215.33423492856375
 10
93.88696901100064
 20
213.99749073977603
 10
92.47172378451337
 20
214.28053978507344
 10
91.45247703346016
 20
216.31903328717982
  0
LWPOLYLINE
  5
FD
330
17
100
AcDbEntity
  8
ENG_D
100
AcDbPolyline
 90
5
 70
1
 10
93.99263028982217
 20
209.9240615914323
 10
94.31696888739113
 20
207.6536914084496
 10
92.95672084807913
 20
207.6536914084496
 10
92.32255757194956
 20
208.92201796070876
 10
93.99263028982217
 20
209.9240615914323
  0
LWPOLYLINE
  5
FE
330
17
100
AcDbEntity
  8
ENG_D
100
AcDbPolyline
 90
4
 70
1
 10
93.57379737701979
 20
207.7513224813873
 10
94.37853523114414
 20
206.946584627263
 10
93.57379737701979
 20
206.14184677313872
 10
93.57379737701979
 20
207.7513224813873
  0
LWPOLYLINE
  5
FF
330
17
100
AcDbEntity
  8
ENG_D
100
AcDbPolyline
 90
4
 70
1
 10
93.9071307103531
 20
196.57568516986035
 10
93.10239285622876
 20
195.77094731573575
 10
93.10239285622876
 20
197.38042302398463
 10
93.9071307103531
 20
196.57568516986035
  0
LWPOLYLINE
  5
100
330
17
100
AcDbEntity
  8
ENG_D
100
AcDbPolyline
 90
7
 70
1
 10
92.88017063400655
 20
201.8722460096727
 10
93.26877053058439
 20
204.59244528571784
 10
93.48415688100289
 20
204.58542927017243
 10
93.82832689595514
 20
200.1112190757931
 10
92.95672084807914
 20
200.1112190757931
 10
92.34419513209504
 20
201.33627050776116
 10
92.88017063400655
 20
201.8722460096727
  0
LWPOLYLINE
  5
101
330
17
100
AcDbEntity
  8
ENG_D
100
AcDbPolyline
 90
5
 70
1
 10
92.45894707691721
 20
195.12750153642432
 10
91.25184029573066
 20
195.52987046348647
 10
92.33162507316722
 20
196.6096552409231
 10
93.53873185435377
 20
196.20728631386098
 10
92.45894707691721
 20
195.12750153642432
  0
LWPOLYLINE
  5
102
330
17
100
AcDbEntity
  8
ENG_D
100
AcDbPolyline
 90
5
 70
1
 10
88.35328212565246
 20
196.9440840258596
 10
87.14617534446589
 20
196.54171509879748
 10
86.53779508782031
 20
197.15009535544303
 10
87.74490186900687
 20
197.55246428250516
 10
88.35328212565246
 20
196.9440840258596
  0
LWPOLYLINE
  5
103
330
17
100
AcDbEntity
  8
ENG_D
100
AcDbPolyline
 90
13
 70
1
 10
88.25027646086075
 20
112.19427594826558
 10
86.73843182554982
 20
110.68243131295463
 10
86.73843182554982
 20
109.77617675373696
 10
84.36683635052742
 20
105.50730489869676
 10
83.88713310123286
 20
103.58849190151842
 10
82.96719565922159
 20
102.66855445950718
 10
82.44470019548336
 20
103.19104992324534
 10
83.4386001800126
 20
105.17884989230386
 10
83.4386001800126
 20
106.12709376855555
 10
85.79562278396777
 20
110.36973445567489
 10
85.79562278396777
 20
111.37276350784387
 10
87.7067196857347
 20
112.73783272339155
 10
88.25027646086075
 20
112.19427594826558
  0
LWPOLYLINE
  5
104
330
17
100
AcDbEntity
  8
ENG_D
100
AcDbPolyline
 90
21
 70
1
 10
87.77887194006969
 20
207.41798914805398
 10
87.19635630816757
 20
206.83547351615195
 10
86.72495178737654
 20
203.53564187061468
 10
86.2670273047588
 20
203.07771738799696
 10
86.2670273047588
 20
200.24929026325077
 10
85.89325385690556
 20
199.8755168153975
 10
86.2670273047588
 20
199.50174336754424
 10
86.2670273047588
 20
197.70238819512332
 10
83.32547682144191
 20
198.2906982917868
 10
84.38140922159468
 20
200.40256309209238
 10
84.38140922159468
 20
203.22074056876792
 10
85.32421826317673
 20
205.57776317272302
 10
85.32421826317673
 20
207.48935405026015
 10
86.2670273047588
 20
208.90356761263328
 10
86.2670273047588
 20
210.29747154961785
 10
87.82095287571433
 20
213.71610780572004
 10
88.16371393544185
 20
210.63125826817242
 10
87.68124086713189
 20
210.14878519986235
 10
87.68124086713189
 20
208.26316711669824
 10
87.30746741927867
 20
207.88939366884506
 10
87.77887194006969
 20
207.41798914805398
  0
LWPOLYLINE
  5
105
330
17
100
AcDbEntity
  8
ENG_D
100
AcDbPolyline
 90
5
 70
1
 10
86.80209282742483
 20
198.02386880329627
 10
87.41047308407029
 20
197.41548854665058
 10
86.20336630288384
 20
197.01311961958845
 10
85.59498604623829
 20
197.62149987623388
 10
86.80209282742483
 20
198.02386880329627
  0
LWPOLYLINE
  5
106
330
17
100
AcDbEntity
  8
ENG_D
100
AcDbPolyline
 90
5
 70
1
 10
84.38140922159468
 20
134.44791949838185
 10
84.95581940717734
 20
135.02232968396444
 10
85.41553542041304
 20
133.6431816442576
 10
84.38140922159468
 20
133.6431816442576
 10
84.38140922159468
 20
134.44791949838185
  0
LWPOLYLINE
  5
107
330
17
100
AcDbEntity
  8
ENG_D
100
AcDbPolyline
 90
21
 70
1
 10
82.06045134682431
 20
127.98632739476513
 10
82.30074750063648
 20
126.30425431808013
 10
79.829984136426
 20
126.57878358077012
 10
73.53331629063244
 20
130.07693238398878
 10
72.56517868329797
 20
129.5928635803214
 10
69.76786907707269
 20
131.88157143996037
 10
69.76786907707269
 20
133.00743976527718
 10
71.6534871602368
 20
135.83586689002337
 10
71.6534871602368
 20
139.11271333766874
 10
72.47812143468131
 20
141.03685997803916
 10
73.59884927091014
 20
140.47649605992484
 10
80.45193500234826
 20
140.22267806987153
 10
78.73885271170677
 20
138.50959577923007
 10
79.18247945472002
 20
135.40420857813717
 10
79.66736401368435
 20
134.91932401917296
 10
79.66736401368435
 20
133.99216826760795
 10
82.02438661763951
 20
132.10655018444385
 10
82.02438661763951
 20
131.16830791010457
 10
83.91000470080364
 20
129.75409434773144
 10
83.91000470080364
 20
127.98632739476513
 10
82.06045134682431
 20
127.98632739476513
  0
LWPOLYLINE
  5
108
330
17
100
AcDbEntity
  8
ENG_D
100
AcDbPolyline
 90
8
 70
1
 10
76.83893688893816
 20
136.6516692734955
 10
76.83893688893816
 20
138.02389351883448
 10
75.8961278473561
 20
138.96670256041665
 10
75.43720170044716
 20
138.50777641350766
 10
75.88149341276562
 20
134.95344271496
 10
77.239585064473
 20
133.98337724945475
 10
77.74876570255603
 20
134.8320116462598
 10
76.83893688893816
 20
136.6516692734955
  0
LWPOLYLINE
  5
109
330
17
100
AcDbEntity
  8
ENG_D
100
AcDbPolyline
 90
5
 70
1
 10
81.87963376900262
 20
100.16677900691506
 10
81.53968836637716
 20
101.86650602004244
 10
82.63523850220469
 20
103.69242291308822
 10
82.98149339882606
 20
101.26863863673852
 10
81.87963376900262
 20
100.16677900691506
  0
LWPOLYLINE
  5
10A
330
17
100
AcDbEntity
  8
ENG_D
100
AcDbPolyline
 90
41
 70
1
 10
58.98114409618857
 20
85.49101801369974
 10
60.311469685315124
 20
86.28921336717565
 10
61.48322444056361
 20
85.89862844875951
 10
60.373748732314844
 20
84.78915274051069
 10
60.829961375486505
 20
83.42051481099577
 10
60.39086960419923
 20
82.54233126842114
 10
60.908814254980896
 20
82.02438661763955
 10
62.41862637736802
 20
82.02438661763955
 10
62.67822827776703
 20
80.72637711564434
 10
63.661727739840096
 20
79.74287765357136
 10
65.48260454872786
 20
81.1085352602372
 10
66.4186741692649
 20
80.79651205339144
 10
66.55784154866093
 20
80.37900991520341
 10
68.9148641526161
 20
83.2074370399496
 10
69.44553575478163
 20
81.61542223345297
 10
70.55342498131161
 20
81.9847186422964
 10
71.18208263944578
 20
83.03248140585329
 10
71.18208263944578
 20
84.14570696119917
 10
72.62104200752212
 20
84.14570696119917
 10
72.11814310399468
 20
79.116717925925
 10
70.2803762729988
 20
76.22879862007426
 10
69.28246811727031
 20
77.2267067758028
 10
68.85804026345484
 20
76.37785106817185
 10
69.4682606240158
 20
75.36081713390352
 10
70.71067811865476
 20
74.6153666371202
 10
70.71067811865476
 20
73.46547740147236
 10
68.471357779402
 20
70.23090357810725
 10
64.77888374323348
 20
70.47706851385183
 10
62.102990817262004
 20
71.20685749366218
 10
61.155265699084175
 20
72.15458261183994
 10
59.72398903730188
 20
72.63167483243416
 10
58.289823219898516
 20
74.54389592230525
 10
57.0699796985951
 20
75.35712493650759
 10
56.568542494923776
 20
74.85568773283613
 10
56.07697627478029
 20
75.34725395297981
 10
56.587115482363984
 20
77.89794999089817
 10
57.03994701571483
 20
78.35078152424913
 10
57.03994701571483
 20
79.72300576958813
 10
57.982756057296896
 20
81.60862385275225
 10
57.982756057296896
 20
83.49424193591636
 10
58.98114409618857
 20
85.49101801369974
  0
LWPOLYLINE
  5
10B
330
17
100
AcDbEntity
  8
ENG_D
100
AcDbPolyline
 90
5
 70
1
 10
69.29646455628166
 20
77.40797248266706
 10
70.21394412843107
 20
78.32545205481645
 10
69.8195405736152
 20
79.90306627407995
 10
69.29646455628166
 20
79.90306627407995
 10
69.29646455628166
 20
77.40797248266706
  0
LWPOLYLINE
  5
10C
330
17
100
AcDbEntity
  8
ENG_D
100
AcDbPolyline
 90
4
 70
1
 10
65.62823405474505
 20
76.09676458508562
 10
65.8310616956809
 20
76.29959222602145
 10
65.58766852655786
 20
76.21846116964714
 10
65.62823405474505
 20
76.09676458508562
  0
LWPOLYLINE
  5
10D
330
17
100
AcDbEntity
  8
ENG_D
100
AcDbPolyline
 90
13
 70
1
 10
65.92433130723929
 20
85.29888879374414
 10
63.95643031571937
 20
84.80691354586412
 10
63.59665566496944
 20
85.88623749811397
 10
65.4311590502759
 20
87.19659705904704
 10
70.9093882699188
 20
88.19263873534578
 10
71.19638037905027
 20
86.18369397142544
 10
70.80830919159256
 20
85.7956227839678
 10
71.18208263944578
 20
85.42184933611463
 10
71.18208263944578
 20
84.14570696119917
 10
68.41947319772699
 20
84.14570696119917
 10
68.18377093733147
 20
84.85281374238573
 10
66.37040635859762
 20
84.85281374238573
 10
65.92433130723929
 20
85.29888879374414
  0
LWPOLYLINE
  5
10E
330
17
100
AcDbEntity
  8
ENG_D
100
AcDbPolyline
 90
4
 70
1
 10
61.85162329656295
 20
86.26702730475877
 10
61.0468854424386
 20
85.4622894506345
 10
61.0468854424386
 20
87.07176515888338
 10
61.85162329656295
 20
86.26702730475877
  0
LWPOLYLINE
  5
10F
330
17
100
AcDbEntity
  8
ENG_D
100
AcDbPolyline
 90
4
 70
1
 10
55.86143571373726
 20
74.14858095164978
 10
55.86143571373726
 20
75.75805665989832
 10
56.66617356786161
 20
74.95331880577405
 10
55.86143571373726
 20
74.14858095164978
  0
LWPOLYLINE
  5
110
330
17
100
AcDbEntity
  8
ENG_K
100
AcDbPolyline
 90
5
 70
1
 10
220.85301799059835
 20
24.651106268591462
 10
220.85301799059835
 20
30.62371820673182
 10
221.0921671185021
 20
30.647398637052902
 10
222.0516909919284
 20
25.84977926992138
 10
220.85301799059835
 20
24.651106268591462
  0
LWPOLYLINE
  5
111
330
17
100
AcDbEntity
  8
ENG_K
100
AcDbPolyline
 90
6
 70
1
 10
221.61121571473205
 20
36.816092751691066
 10
220.52728547795695
 20
34.648232278140846
 10
219.67450668862077
 20
34.648232278140846
 10
219.67450668862077
 20
36.96278225465222
 10
221.16618962457923
 20
37.261118841844024
 10
221.61121571473205
 20
36.816092751691066
  0
LWPOLYLINE
  5
112
330
17
100
AcDbEntity
  8
ENG_K
100
AcDbPolyline
 90
6
 70
1
 10
220.1459112094118
 20
33.372089903225486
 10
219.47386995089127
 20
34.04413116174598
 10
220.83642380010926
 20
34.49831577815188
 10
221.10145186477834
 20
29.46278254943957
 10
220.1459112094118
 20
29.46278254943957
 10
220.1459112094118
 20
33.372089903225486
  0
LWPOLYLINE
  5
113
330
17
100
AcDbEntity
  8
ENG_K
100
AcDbPolyline
 90
5
 70
1
 10
219.29441932506603
 20
29.934187070230543
 10
218.26029312624766
 20
29.934187070230543
 10
218.26029312624766
 20
30.738924924354926
 10
218.8347033118304
 20
31.3133351099375
 10
219.29441932506603
 20
29.934187070230543
  0
LWPOLYLINE
  5
114
330
17
100
AcDbEntity
  8
ENG_K
100
AcDbPolyline
 90
5
 70
1
 10
217.78888860545663
 20
31.348400632603692
 10
217.78888860545663
 20
32.15313848672796
 10
218.3632987910393
 20
32.72754867231053
 10
218.82301480427498
 20
31.348400632603692
 10
217.78888860545663
 20
31.348400632603692
  0
LWPOLYLINE
  5
115
330
17
100
AcDbEntity
  8
ENG_K
100
AcDbPolyline
 90
5
 70
1
 10
217.24001471108022
 20
29.20691858969149
 10
216.60369564229998
 20
29.843237658471967
 10
218.337762499833
 20
30.190051029978516
 10
218.97408156861337
 20
29.55373196119826
 10
217.24001471108022
 20
29.20691858969149
  0
LWPOLYLINE
  5
116
330
17
100
AcDbEntity
  8
ENG_K
100
AcDbPolyline
 90
4
 70
1
 10
217.55318634506114
 20
33.80305430949648
 10
218.35792419918548
 20
32.99831645537221
 10
217.55318634506114
 20
32.19357860124794
 10
217.55318634506114
 20
33.80305430949648
  0
LWPOLYLINE
  5
117
330
17
100
AcDbEntity
  8
ENG_K
100
AcDbPolyline
 90
4
 70
1
 10
216.61037730347905
 20
35.68867239266093
 10
217.4151151576034
 20
34.88393453853633
 10
216.61037730347905
 20
34.07919668441206
 10
216.61037730347905
 20
35.68867239266093
  0
LWPOLYLINE
  5
118
330
17
100
AcDbEntity
  8
ENG_K
100
AcDbPolyline
 90
4
 70
1
 10
216.00090159523032
 20
34.88393453853633
 10
215.19616374110598
 20
34.07919668441206
 10
215.19616374110598
 20
35.68867239266093
 10
216.00090159523032
 20
34.88393453853633
  0
LWPOLYLINE
  5
119
330
17
100
AcDbEntity
  8
ENG_K
100
AcDbPolyline
 90
5
 70
1
 10
211.73809920875854
 20
32.07566911314264
 10
212.37441827753892
 20
31.439350044362378
 10
210.64035142000577
 20
31.09253667285561
 10
210.00403235122553
 20
31.728855741636085
 10
211.73809920875854
 20
32.07566911314264
  0
LWPOLYLINE
  5
11A
330
17
100
AcDbEntity
  8
ENG_K
100
AcDbPolyline
 90
4
 70
1
 10
212.22966542890205
 20
33.94112549695427
 10
211.4249275747777
 20
33.13638764283
 10
211.4249275747777
 20
34.74586335107854
 10
212.22966542890205
 20
33.94112549695427
  0
LWPOLYLINE
  5
11B
330
17
100
AcDbEntity
  8
ENG_K
100
AcDbPolyline
 90
6
 70
1
 10
209.1639868412461
 20
33.427731659129044
 10
210.22833090378336
 20
33.959903690397695
 10
211.38986205211168
 20
33.57272664095501
 10
209.7750117520091
 20
31.957876340852344
 10
208.73457163748924
 20
32.99831645537221
 10
209.1639868412461
 20
33.427731659129044
  0
LWPOLYLINE
  5
11C
330
17
100
AcDbEntity
  8
ENG_K
100
AcDbPolyline
 90
4
 70
1
 10
208.4584292625738
 20
32.526911934581236
 10
207.65369140844948
 20
31.722174080456632
 10
207.65369140844948
 20
33.331649788705505
 10
208.4584292625738
 20
32.526911934581236
  0
LWPOLYLINE
  5
11D
330
17
100
AcDbEntity
  8
ENG_K
100
AcDbPolyline
 90
4
 70
1
 10
208.0572430607884
 20
37.71846721955674
 10
206.0965122038505
 20
38.69883264802554
 10
207.56706034655392
 20
39.18901536226016
 10
208.0572430607884
 20
37.71846721955674
  0
LWPOLYLINE
  5
11E
330
17
100
AcDbEntity
  8
ENG_K
100
AcDbPolyline
 90
4
 70
1
 10
207.0442157002007
 20
36.29814810090948
 10
206.23947784607637
 20
35.493410246784876
 10
206.23947784607637
 20
37.10288595503375
 10
207.0442157002007
 20
36.29814810090948
  0
LWPOLYLINE
  5
11F
330
17
100
AcDbEntity
  8
ENG_K
100
AcDbPolyline
 90
4
 70
1
 10
205.76807332528531
 20
39.931313079779926
 10
206.57281117940968
 20
39.12657522565566
 10
205.76807332528531
 20
38.32183737153139
 10
205.76807332528531
 20
39.931313079779926
  0
LWPOLYLINE
  5
120
330
17
100
AcDbEntity
  8
ENG_K
100
AcDbPolyline
 90
4
 70
1
 10
202.93964620053913
 20
33.13638764283
 10
202.93964620053913
 20
34.74586335107854
 10
203.7443840546635
 20
33.94112549695427
 10
202.93964620053913
 20
33.13638764283
  0
LWPOLYLINE
  5
121
330
17
100
AcDbEntity
  8
ENG_K
100
AcDbPolyline
 90
4
 70
1
 10
202.80157501308142
 20
33.469720976163295
 10
201.99683715895708
 20
32.66498312203869
 10
201.99683715895708
 20
34.27445883028757
 10
202.80157501308142
 20
33.469720976163295
  0
LWPOLYLINE
  5
122
330
17
100
AcDbEntity
  8
ENG_K
100
AcDbPolyline
 90
4
 70
1
 10
201.85876597149937
 20
32.99831645537221
 10
201.05402811737503
 20
32.19357860124794
 10
201.05402811737503
 20
33.80305430949648
 10
201.85876597149937
 20
32.99831645537221
  0
LWPOLYLINE
  5
123
330
17
100
AcDbEntity
  8
ENG_K
100
AcDbPolyline
 90
4
 70
1
 10
200.11121907579297
 20
31.722174080456632
 10
200.11121907579297
 20
33.331649788705505
 10
200.9159569299173
 20
32.526911934581236
 10
200.11121907579297
 20
31.722174080456632
  0
LWPOLYLINE
  5
124
330
17
100
AcDbEntity
  8
ENG_K
100
AcDbPolyline
 90
4
 70
1
 10
199.0303388467532
 20
220.14591120941196
 10
198.2256009926288
 20
219.34117335528748
 10
198.2256009926288
 20
220.9506490635358
 10
199.0303388467532
 20
220.14591120941196
  0
LWPOLYLINE
  5
125
330
17
100
AcDbEntity
  8
ENG_K
100
AcDbPolyline
 90
4
 70
1
 10
197.7541964718378
 20
32.19357860124794
 10
197.7541964718378
 20
33.80305430949648
 10
198.55893432596213
 20
32.99831645537221
 10
197.7541964718378
 20
32.19357860124794
  0
LWPOLYLINE
  5
126
330
17
100
AcDbEntity
  8
ENG_K
100
AcDbPolyline
 90
5
 70
1
 10
195.9036439113397
 20
33.57272664095501
 10
197.1107506925262
 20
33.975095568017146
 10
197.71913094917173
 20
33.366715311371586
 10
196.5120241679852
 20
32.96434638430934
 10
195.9036439113397
 20
33.57272664095501
  0
LWPOLYLINE
  5
127
330
17
100
AcDbEntity
  8
ENG_K
100
AcDbPolyline
 90
4
 70
1
 10
195.39717386788263
 20
34.74586335107854
 10
196.201911722007
 20
33.94112549695427
 10
195.39717386788263
 20
33.13638764283
 10
195.39717386788263
 20
34.74586335107854
  0
LWPOLYLINE
  5
128
330
17
100
AcDbEntity
  8
ENG_K
100
AcDbPolyline
 90
5
 70
1
 10
195.83351286600762
 20
34.309524352953645
 10
194.62640608482107
 20
33.9071554258914
 10
194.01802582817558
 20
34.51553568253707
 10
195.22513260936208
 20
34.917904609599205
 10
195.83351286600762
 20
34.309524352953645
  0
LWPOLYLINE
  5
129
330
17
100
AcDbEntity
  8
ENG_K
100
AcDbPolyline
 90
4
 70
1
 10
193.0401512639275
 20
35.21726787186963
 10
193.8448891180518
 20
34.412530017745354
 10
193.0401512639275
 20
33.60779216362075
 10
193.0401512639275
 20
35.21726787186963
  0
LWPOLYLINE
  5
12A
330
17
100
AcDbEntity
  8
ENG_K
100
AcDbPolyline
 90
5
 70
1
 10
191.86163996194992
 20
222.56821955999874
 10
191.86163996194992
 20
221.17875050323966
 10
190.42577001930374
 20
221.896685474563
 10
190.77938355659373
 20
224.37198023559236
 10
191.86163996194992
 20
222.56821955999874
  0
LWPOLYLINE
  5
12B
330
17
100
AcDbEntity
  8
ENG_K
100
AcDbPolyline
 90
9
 70
1
 10
188.439119684205
 20
233.48682562704215
 10
190.39636151993278
 20
232.08879574437935
 10
190.9188309203678
 20
231.04385694350938
 10
190.9188309203678
 20
229.24698220760087
 10
189.1017585300823
 20
229.85267300436263
 10
188.56180831641268
 20
230.93257343170202
 10
188.56180831641268
 20
231.83339315624997
 10
188.05643372455884
 20
232.3387677481037
 10
188.439119684205
 20
233.48682562704215
  0
LWPOLYLINE
  5
12C
330
17
100
AcDbEntity
  8
ENG_K
100
AcDbPolyline
 90
4
 70
1
 10
189.60224843093252
 20
40.54078878802869
 10
188.79751057680818
 20
39.73605093390442
 10
188.79751057680818
 20
41.345526642153295
 10
189.60224843093252
 20
40.54078878802869
  0
LWPOLYLINE
  5
12D
330
17
100
AcDbEntity
  8
ENG_K
100
AcDbPolyline
 90
5
 70
1
 10
187.04996368110176
 20
30.641293851417117
 10
188.05386653002236
 20
31.645196700337607
 10
189.72703794489004
 20
30.641293851417117
 10
188.05386653002236
 20
29.637391002496514
 10
187.04996368110176
 20
30.641293851417117
  0
LWPOLYLINE
  5
12E
330
17
100
AcDbEntity
  8
ENG_K
100
AcDbPolyline
 90
5
 70
1
 10
188.09040379562165
 20
40.77649104842429
 10
188.09040379562165
 20
41.58122890254856
 10
188.6648139812043
 20
42.155639088131466
 10
189.12452999444
 20
40.77649104842429
 10
188.09040379562165
 20
40.77649104842429
  0
LWPOLYLINE
  5
12F
330
17
100
AcDbEntity
  8
ENG_K
100
AcDbPolyline
 90
5
 70
1
 10
186.47555349551908
 20
42.52941253598452
 10
187.68266027670563
 20
42.93178146304677
 10
188.2910405333511
 20
42.3234012064011
 10
187.08393375216463
 20
41.92103227933897
 10
186.47555349551908
 20
42.52941253598452
  0
LWPOLYLINE
  5
130
330
17
100
AcDbEntity
  8
ENG_K
100
AcDbPolyline
 90
5
 70
1
 10
186.82094308188545
 20
240.18728500421017
 10
187.19940303075413
 20
238.2949852598666
 10
186.20478571245752
 20
238.2949852598666
 10
186.20478571245752
 20
239.57112763478204
 10
186.82094308188545
 20
240.18728500421017
  0
LWPOLYLINE
  5
131
330
17
100
AcDbEntity
  8
ENG_K
100
AcDbPolyline
 90
4
 70
1
 10
185.02627441047994
 20
43.231144725317414
 10
185.83101226460428
 20
42.42640687119281
 10
185.02627441047994
 20
41.62166901706854
 10
185.02627441047994
 20
43.231144725317414
  0
LWPOLYLINE
  5
132
330
17
100
AcDbEntity
  8
ENG_K
100
AcDbPolyline
 90
23
 70
1
 10
184.79057215008444
 20
26.77242661215096
 10
184.79057215008444
 20
24.18730256849222
 10
185.95323769345117
 20
23.605969796808957
 10
180.5787945550425
 20
19.76708184080278
 10
175.73141373058192
 20
21.763062180286564
 10
177.7969737118043
 20
22.17617417653095
 10
178.2885399319478
 20
21.68460795638738
 10
180.4503003900273
 20
21.68460795638738
 10
181.4567704334844
 20
22.6910779998446
 10
181.05471461437148
 20
23.897245457183413
 10
179.13371790059205
 20
25.337992992518043
 10
179.13371790059205
 20
27.487134214029485
 10
180.0765269421741
 20
27.958538734820458
 10
180.0765269421741
 20
32.624543007519044
 10
181.01933598375615
 20
33.5673520491011
 10
181.01933598375615
 20
34.51016109068317
 10
181.8645139524004
 20
35.35533905932742
 10
183.00258513985813
 20
35.35533905932742
 10
184.3191676292934
 20
34.03875656989208
 10
184.3191676292934
 20
32.624543007519044
 10
184.78103045271766
 20
32.16268018409474
 10
185.27192093174588
 20
27.25377539381246
 10
184.79057215008444
 20
26.77242661215096
  0
LWPOLYLINE
  5
133
330
17
100
AcDbEntity
  8
ENG_K
100
AcDbPolyline
 90
5
 70
1
 10
183.1339746661366
 20
240.08965393127224
 10
184.86804152366963
 20
240.4364673027788
 10
185.50436059245033
 20
239.8001482339984
 10
183.77029373491706
 20
239.45333486249166
 10
183.1339746661366
 20
240.08965393127224
  0
LWPOLYLINE
  5
134
330
17
100
AcDbEntity
  8
ENG_K
100
AcDbPolyline
 90
4
 70
1
 10
185.35960774381326
 20
41.95500235040184
 10
184.55486988968892
 20
41.150264496277565
 10
184.55486988968892
 20
42.75974020452611
 10
185.35960774381326
 20
41.95500235040184
  0
LWPOLYLINE
  5
135
330
17
100
AcDbEntity
  8
ENG_K
100
AcDbPolyline
 90
4
 70
1
 10
184.55486988968892
 20
237.4498072912219
 10
185.35960774381326
 20
236.64506943709807
 10
184.55486988968892
 20
235.84033158297336
 10
184.55486988968892
 20
237.4498072912219
  0
LWPOLYLINE
  5
136
330
17
100
AcDbEntity
  8
ENG_K
100
AcDbPolyline
 90
4
 70
1
 10
184.55486988968892
 20
232.5404999374361
 10
184.55486988968892
 20
234.14997564568552
 10
185.35960774381326
 20
233.3452377915608
 10
184.55486988968892
 20
232.5404999374361
  0
LWPOLYLINE
  5
137
330
17
100
AcDbEntity
  8
ENG_K
100
AcDbPolyline
 90
4
 70
1
 10
184.0834653688979
 20
237.92121181201375
 10
184.8882032230222
 20
237.11647395788904
 10
184.0834653688979
 20
236.31173610376433
 10
184.0834653688979
 20
237.92121181201375
  0
LWPOLYLINE
  5
138
330
17
100
AcDbEntity
  8
ENG_K
100
AcDbPolyline
 90
4
 70
1
 10
184.0834653688979
 20
231.5976908958548
 10
184.0834653688979
 20
233.20716660410335
 10
184.88820322302223
 20
232.40242874997864
 10
184.0834653688979
 20
231.5976908958548
  0
LWPOLYLINE
  5
139
330
17
100
AcDbEntity
  8
ENG_K
100
AcDbPolyline
 90
4
 70
1
 10
183.61206084810686
 20
236.78314062455618
 10
183.61206084810686
 20
238.39261633280472
 10
184.4167987022312
 20
237.58787847868
 10
183.61206084810686
 20
236.78314062455618
  0
LWPOLYLINE
  5
13A
330
17
100
AcDbEntity
  8
ENG_K
100
AcDbPolyline
 90
4
 70
1
 10
183.61206084810686
 20
40.67885997548648
 10
183.61206084810686
 20
42.288335683735355
 10
184.41679870223118
 20
41.48359782961075
 10
183.61206084810686
 20
40.67885997548648
  0
LWPOLYLINE
  5
13B
330
17
100
AcDbEntity
  8
ENG_K
100
AcDbPolyline
 90
6
 70
1
 10
181.9952208157904
 20
39.58669676372084
 10
180.10862871428637
 20
39.964015184021704
 10
182.9459038314612
 20
41.54027913800762
 10
183.41032865877412
 20
41.07585431069482
 10
183.09768720858125
 20
40.137929960116224
 10
181.9952208157904
 20
39.58669676372084
  0
LWPOLYLINE
  5
13C
330
17
100
AcDbEntity
  8
ENG_K
100
AcDbPolyline
 90
5
 70
1
 10
180.888646460388
 20
241.47669980700837
 10
182.4812444248655
 20
240.52114102832167
 10
182.0928345487064
 20
239.35591139984425
 10
180.50023658422887
 20
240.31147017853095
 10
180.888646460388
 20
241.47669980700837
  0
LWPOLYLINE
  5
13D
330
17
100
AcDbEntity
  8
ENG_K
100
AcDbPolyline
 90
4
 70
1
 10
181.11696705669397
 20
241.35911464500825
 10
180.31222920256963
 20
240.55437679088442
 10
180.31222920256963
 20
242.16385249913296
 10
181.11696705669397
 20
241.35911464500825
  0
LWPOLYLINE
  5
13E
330
17
100
AcDbEntity
  8
ENG_K
100
AcDbPolyline
 90
5
 70
1
 10
180.69268431160205
 20
38.89755462643929
 10
181.0711442604707
 20
37.005254882096054
 10
180.0765269421741
 20
37.005254882096054
 10
180.0765269421741
 20
38.281397257011406
 10
180.69268431160205
 20
38.89755462643929
  0
LWPOLYLINE
  5
13F
330
17
100
AcDbEntity
  8
ENG_K
100
AcDbPolyline
 90
5
 70
1
 10
179.5440286140445
 20
38.6186334392653
 10
180.60948142265278
 20
40.39438812027929
 10
181.05330605481896
 20
39.06291422378061
 10
180.07652694217413
 20
38.08613511113579
 10
179.5440286140445
 20
38.6186334392653
  0
LWPOLYLINE
  5
140
330
17
100
AcDbEntity
  8
ENG_K
100
AcDbPolyline
 90
5
 70
1
 10
178.58484400621566
 20
36.789714321052934
 10
180.42054001073424
 20
36.42257512014923
 10
178.23023934004627
 20
34.858074641086475
 10
177.0474630796984
 20
35.252333394535704
 10
178.58484400621566
 20
36.789714321052934
  0
LWPOLYLINE
  5
141
330
17
100
AcDbEntity
  8
ENG_K
100
AcDbPolyline
 90
5
 70
1
 10
178.19090885901
 20
234.52374909353836
 10
178.19090885901
 20
235.3284869476626
 10
178.76531904459267
 20
235.9028971332451
 10
179.2250350578284
 20
234.52374909353836
 10
178.19090885901
 20
234.52374909353836
  0
LWPOLYLINE
  5
142
330
17
100
AcDbEntity
  8
ENG_K
100
AcDbPolyline
 90
4
 70
1
 10
176.40292184878365
 20
22.156012477178464
 10
175.5981839946593
 20
21.351274623054195
 10
175.5981839946593
 20
22.96075033130307
 10
176.40292184878365
 20
22.156012477178464
  0
LWPOLYLINE
  5
143
330
17
100
AcDbEntity
  8
ENG_K
100
AcDbPolyline
 90
4
 70
1
 10
174.1839704322862
 20
21.82267914384528
 10
174.1839704322862
 20
23.432154852093824
 10
174.98870828641054
 20
22.62741699796955
 10
174.1839704322862
 20
21.82267914384528
  0
LWPOLYLINE
  5
144
330
17
100
AcDbEntity
  8
ENG_K
100
AcDbPolyline
 90
4
 70
1
 10
172.76975686991312
 20
24.374963893675883
 10
173.57449472403746
 20
23.570226039551613
 10
172.76975686991312
 20
22.76548818542734
 10
172.76975686991312
 20
24.374963893675883
  0
LWPOLYLINE
  5
145
330
17
100
AcDbEntity
  8
ENG_K
100
AcDbPolyline
 90
4
 70
1
 10
172.29835234912207
 20
30.974627184750304
 10
173.10309020324644
 20
30.16988933062603
 10
172.29835234912207
 20
29.36515147650176
 10
172.29835234912207
 20
30.974627184750304
  0
LWPOLYLINE
  5
146
330
17
100
AcDbEntity
  8
ENG_K
100
AcDbPolyline
 90
4
 70
1
 10
172.63168568245538
 20
24.041630560342586
 10
171.82694782833104
 20
23.236892706218313
 10
171.82694782833104
 20
24.84636841446719
 10
172.63168568245538
 20
24.041630560342586
  0
LWPOLYLINE
  5
147
330
17
100
AcDbEntity
  8
ENG_K
100
AcDbPolyline
 90
17
 70
1
 10
168.8184601990932
 20
29.698484809834945
 10
169.6886940074696
 20
29.263367905646763
 10
171.0850141827783
 20
30.194248022519243
 10
172.30717918461062
 20
29.786859688575195
 10
169.31836003909413
 20
27.34146220587985
 10
167.2509738078784
 20
27.34146220587985
 10
166.30816476629633
 20
28.284271247461913
 10
165.75049733476217
 20
28.284271247461913
 10
165.95455301779563
 20
27.263992832294527
 10
165.46298679765212
 20
26.77242661215096
 10
165.46298679765212
 20
25.545874374961585
 10
164.04877323527901
 20
26.25298115614827
 10
164.04877323527901
 20
28.38190232039972
 10
164.89395120392325
 20
29.227080289043972
 10
165.83676024550533
 20
29.227080289043972
 10
166.30816476629636
 20
29.698484809834945
 10
168.8184601990932
 20
29.698484809834945
  0
LWPOLYLINE
  5
148
330
17
100
AcDbEntity
  8
ENG_K
100
AcDbPolyline
 90
5
 70
1
 10
169.16582912546767
 20
24.817507297699827
 10
169.58293885256373
 20
26.068836478988054
 10
172.4322528453884
 20
24.033612198399055
 10
172.41871074928122
 20
24.004286891746496
 10
169.16582912546767
 20
24.817507297699827
  0
LWPOLYLINE
  5
149
330
17
100
AcDbEntity
  8
ENG_K
100
AcDbPolyline
 90
5
 70
1
 10
171.6825627251719
 20
244.8946485509409
 10
170.64843652635346
 20
244.8946485509409
 10
170.64843652635346
 20
245.69938640506538
 10
171.22284671193623
 20
246.27379659064786
 10
171.6825627251719
 20
244.8946485509409
  0
LWPOLYLINE
  5
14A
330
17
100
AcDbEntity
  8
ENG_K
100
AcDbPolyline
 90
5
 70
1
 10
170.2238280732965
 20
243.86056438963544
 10
171.3004338513609
 20
242.06622142619483
 10
169.7056274847714
 20
242.06622142619483
 10
169.7056274847714
 20
243.3423638011103
 10
170.2238280732965
 20
243.86056438963544
  0
LWPOLYLINE
  5
14B
330
17
100
AcDbEntity
  8
ENG_K
100
AcDbPolyline
 90
6
 70
1
 10
168.9008896306471
 20
228.86689484404576
 10
168.23032011505975
 20
229.5374643596333
 10
169.1007706118432
 20
230.9882151876057
 10
169.91005097138157
 20
230.9882151876057
 10
170.21309673474724
 20
228.86689484404576
 10
168.9008896306471
 20
228.86689484404576
  0
LWPOLYLINE
  5
14C
330
17
100
AcDbEntity
  8
ENG_K
100
AcDbPolyline
 90
7
 70
1
 10
167.78997671872702
 20
113.06948659979011
 10
166.8772003600252
 20
113.9822629584919
 10
166.8772003600252
 20
115.12033414594957
 10
167.73344687618842
 20
115.97658066211281
 10
170.33242226838124
 20
115.68780561853586
 10
169.40906694940506
 20
114.1488800869087
 10
167.78997671872702
 20
113.06948659979011
  0
LWPOLYLINE
  5
14D
330
17
100
AcDbEntity
  8
ENG_K
100
AcDbPolyline
 90
5
 70
1
 10
169.31755629731364
 20
244.6732440301498
 10
169.96992522437597
 20
244.0208751030879
 10
167.7366760682739
 20
243.70183950935888
 10
167.08430714121187
 20
244.3542084364212
 10
169.31755629731364
 20
244.6732440301498
  0
LWPOLYLINE
  5
14E
330
17
100
AcDbEntity
  8
ENG_K
100
AcDbPolyline
 90
4
 70
1
 10
169.3318540369182
 20
233.81664231235177
 10
168.52711618279383
 20
233.01190445822795
 10
168.52711618279383
 20
234.62138016647648
 10
169.3318540369182
 20
233.81664231235177
  0
LWPOLYLINE
  5
14F
330
17
100
AcDbEntity
  8
ENG_K
100
AcDbPolyline
 90
5
 70
1
 10
168.29141392239833
 20
23.334523779156125
 10
168.29141392239833
 20
24.61066615407148
 10
168.90757129182626
 20
25.226823523499363
 10
169.2860312406949
 20
23.334523779156125
 10
168.29141392239833
 20
23.334523779156125
  0
LWPOLYLINE
  5
150
330
17
100
AcDbEntity
  8
ENG_K
100
AcDbPolyline
 90
4
 70
1
 10
168.0557116620028
 20
234.14997564568552
 10
168.86044951612715
 20
233.3452377915608
 10
168.0557116620028
 20
232.5404999374361
 10
168.0557116620028
 20
234.14997564568552
  0
LWPOLYLINE
  5
151
330
17
100
AcDbEntity
  8
ENG_K
100
AcDbPolyline
 90
5
 70
1
 10
165.73375458071382
 20
244.761951955337
 10
166.94086136190032
 20
245.16432088239947
 10
167.54924161854555
 20
244.55594062575403
 10
166.34213483735908
 20
244.15357169869156
 10
165.73375458071382
 20
244.761951955337
  0
LWPOLYLINE
  5
152
330
17
100
AcDbEntity
  8
ENG_K
100
AcDbPolyline
 90
5
 70
1
 10
166.13502805617262
 20
222.39992814857555
 10
164.92792127498598
 20
221.9975592215131
 10
164.31954101834066
 20
222.60593947815877
 10
165.52664779952713
 20
223.00830840522056
 10
166.13502805617262
 20
222.39992814857555
  0
LWPOLYLINE
  5
153
330
17
100
AcDbEntity
  8
ENG_K
100
AcDbPolyline
 90
4
 70
1
 10
164.2494099730085
 20
125.02520367441517
 10
162.87026193330146
 20
123.64605563470799
 10
162.87026193330146
 20
125.48491968765074
 10
164.2494099730085
 20
125.02520367441517
  0
LWPOLYLINE
  5
154
330
17
100
AcDbEntity
  8
ENG_K
100
AcDbPolyline
 90
108
 70
1
 10
127.71990864086614
 20
17.593849517507422
 10
128.70375287597628
 20
17.003542976441356
 10
130.52341050321192
 20
17.91337179005914
 10
131.6194923736357
 20
17.91337179005914
 10
132.89408554603685
 20
16.638778617658055
 10
133.8103382117743
 20
14.806273286183114
 10
134.28662742356903
 20
14.647510215584859
 10
134.82169294623506
 20
15.18257573825088
 10
134.82169294623506
 20
16.427793325479946
 10
133.8112855145954
 20
17.943404472939516
 10
135.2930974670261
 20
19.425216425370095
 10
135.2930974670261
 20
23.220118119920862
 10
137.20419436879305
 20
24.58518733546866
 10
138.59292911256333
 20
23.196452591698336
 10
138.59292911256333
 20
21.7822390293253
 10
139.06433363335435
 20
21.310834508534214
 10
139.06433363335435
 20
19.72762497101721
 10
138.1336408874621
 20
18.331585852178755
 10
138.56999007753018
 20
15.713490711770305
 10
139.49276903541087
 20
15.25210123282994
 10
139.70562273151356
 20
14.613540144521986
 10
143.2093432475358
 20
14.613540144521986
 10
144.72118788284675
 20
16.12538477983294
 10
144.72118788284675
 20
17.539598342205977
 10
145.6639969244288
 20
18.482407383788036
 10
145.6639969244288
 20
19.896620946161182
 10
146.58664426665837
 20
20.81926828839076
 10
146.11843840333634
 20
23.160297605000824
 10
148.00405648650047
 20
25.51732020895603
 10
147.5681879950331
 20
27.696662666292895
 10
145.89301752364517
 20
29.37183313768088
 10
147.5751750849781
 20
29.70826464994736
 10
149.43523309075704
 20
28.911096933185053
 10
149.43523309075704
 20
24.139261633280395
 10
149.90663761154806
 20
23.667857112489422
 10
149.90663761154806
 20
21.586976883449683
 10
149.5328641636949
 20
21.213203435596405
 10
149.90663761154806
 20
20.83942998774324
 10
149.90663761154806
 20
16.443516471782438
 10
149.56151984278597
 20
15.753280934258097
 10
151.39800768063918
 20
15.549226730052212
 10
153.743159524508
 20
14.142135623730901
 10
154.52305174652057
 20
14.142135623730901
 10
155.04099639730225
 20
14.660080274512598
 10
154.59286194150653
 20
15.556349186104047
 10
155.04099639730225
 20
16.452618097695492
 10
154.6206828194584
 20
16.872931675539384
 10
154.6206828194584
 20
18.482407383788036
 10
155.09208734024944
 20
18.95381190457912
 10
155.09208734024944
 20
19.7337041265917
 10
154.6206828194584
 20
20.519378327910065
 10
154.14927829866738
 20
19.7337041265917
 10
154.14927829866738
 20
18.14907405045474
 10
153.2064692570853
 20
18.14907405045474
 10
153.2064692570853
 20
20.64416784186762
 10
152.68397379334712
 20
21.166663305605795
 10
153.15537831413815
 20
22.109472347187854
 10
152.06302347777378
 20
23.201827183552236
 10
153.24129612145148
 20
23.594584731444932
 10
154.59065013657815
 20
22.695015388027095
 10
154.99445626731162
 20
23.098821518760527
 10
154.6206828194584
 20
23.4725949666138
 10
154.6206828194584
 20
26.301022091359982
 10
154.05164722572957
 20
26.870057685088767
 10
154.98576232944632
 20
27.804172788805538
 10
160.17121205814772
 20
28.27557730959662
 10
160.6656082564085
 20
28.769973507857372
 10
162.89885741251038
 20
28.45093791412856
 10
161.69175063132388
 20
27.24383113294204
 10
161.69175063132388
 20
25.358213049777923
 10
161.22034611053286
 20
24.886808528986837
 10
161.22034611053286
 20
24.16777458194508
 10
162.76882472963015
 20
23.135455502546918
 10
162.1631551521149
 20
22.529785925031742
 10
162.1631551521149
 20
19.70135880028556
 10
161.69175063132388
 20
19.22995427949448
 10
161.69175063132388
 20
16.401527154748297
 10
161.21296452950656
 20
15.922741052931123
 10
160.96711302691668
 20
12.726671519262434
 10
119.4520216368233
 20
12.963900612920076
 10
117.80275049344365
 20
13.670731102939925
 10
115.72980985419828
 20
13.670731102939925
 10
115.72980985419828
 20
14.571067517078262
 10
116.49996867481461
 20
14.725099281201581
 10
115.90022636796212
 20
15.08494466531307
 10
113.28275699799724
 20
15.08494466531307
 10
112.77710805735963
 20
14.073646784037885
 10
110.75376601523354
 20
14.9407933735205
 10
112.1460975734856
 20
23.573249034683386
 10
112.34040898595872
 20
23.565166733326983
 10
112.6582988880303
 20
19.432598006396407
 10
113.70612058357646
 20
18.384776310850228
 10
114.636634540319
 20
18.384776310850228
 10
117.46506166506519
 20
16.02775370689502
 10
118.44867874015158
 20
16.02775370689502
 10
119.39148778173366
 20
14.613540144521986
 10
120.77718839544197
 20
14.613540144521986
 10
121.10416577556106
 20
14.286562764402877
 10
121.56127255674762
 20
15.048407399713803
 10
120.62846637955694
 20
15.98121357690452
 10
121.09987090034797
 20
16.92402261848658
 10
120.67955732250411
 20
17.344336196330357
 10
120.67955732250411
 20
20.7974406707091
 10
121.66435568112024
 20
22.767037387941393
 10
123.88175789510352
 20
24.984439601924645
 10
124.54842456177019
 20
24.984439601924645
 10
126.3135399724257
 20
23.219324191269152
 10
127.71990864086614
 20
17.593849517507422
  0
LWPOLYLINE
  5
155
330
17
100
AcDbEntity
  8
ENG_K
100
AcDbPolyline
 90
4
 70
1
 10
149.04625800151987
 20
21.699809597771402
 10
149.00749051312704
 20
21.777344574557155
 10
148.9977986410288
 20
21.74826895826254
 10
149.04625800151987
 20
21.699809597771402
  0
LWPOLYLINE
  5
156
330
17
100
AcDbEntity
  8
ENG_K
100
AcDbPolyline
 90
5
 70
1
 10
158.92441731391625
 20
19.29104808683302
 10
159.38152409510278
 20
18.529203451522203
 10
159.79183480855528
 20
18.939514164974636
 10
159.6394658814931
 20
20.006096654409887
 10
158.92441731391625
 20
19.29104808683302
  0
LWPOLYLINE
  5
157
330
17
100
AcDbEntity
  8
ENG_K
100
AcDbPolyline
 90
7
 70
1
 10
156.7107243892327
 20
17.441967269268165
 10
157.35147887126675
 20
17.441967269268165
 10
157.92051446499562
 20
18.01100286299706
 10
157.92051446499562
 20
18.72272847950418
 10
157.0142426890128
 20
19.266491545093743
 10
156.52059864222701
 20
18.77284749830799
 10
156.7107243892327
 20
17.441967269268165
  0
LWPOLYLINE
  5
158
330
17
100
AcDbEntity
  8
ENG_K
100
AcDbPolyline
 90
4
 70
1
 10
161.45604837092836
 20
116.7702499687181
 10
162.26078622505273
 20
115.96551211459382
 10
161.45604837092836
 20
115.16077426046955
 10
161.45604837092836
 20
116.7702499687181
  0
LWPOLYLINE
  5
159
330
17
100
AcDbEntity
  8
ENG_K
100
AcDbPolyline
 90
5
 70
1
 10
161.22034611053286
 20
252.90852540438857
 10
161.22034611053286
 20
253.71326325851305
 10
161.7947562961155
 20
254.28767344409576
 10
162.25447230935126
 20
252.90852540438857
 10
161.22034611053286
 20
252.90852540438857
  0
LWPOLYLINE
  5
15A
330
17
100
AcDbEntity
  8
ENG_K
100
AcDbPolyline
 90
4
 70
1
 10
161.31797718347065
 20
116.90832115617589
 10
160.5132393293463
 20
116.10358330205162
 10
160.5132393293463
 20
117.71305901030016
 10
161.31797718347065
 20
116.90832115617589
  0
LWPOLYLINE
  5
15B
330
17
100
AcDbEntity
  8
ENG_K
100
AcDbPolyline
 90
10
 70
1
 10
161.23464385013733
 20
112.58234713572335
 10
160.36268976800653
 20
111.71039305359254
 10
156.32966805197754
 20
112.21452076809601
 10
155.52952178997768
 20
114.61495955409585
 10
156.01740351401926
 20
115.1028412781373
 10
158.47459887438137
 20
113.13708498984765
 10
160.179905996013
 20
113.13708498984765
 10
159.092344105794
 20
114.22464688006662
 10
160.94703833719123
 20
114.59558572634599
 10
161.23464385013733
 20
112.58234713572335
  0
LWPOLYLINE
  5
15C
330
17
100
AcDbEntity
  8
ENG_K
100
AcDbPolyline
 90
4
 70
1
 10
160.04183480855528
 20
118.65586805188222
 10
160.84657266267962
 20
117.85113019775795
 10
160.04183480855528
 20
117.04639234363367
 10
160.04183480855528
 20
118.65586805188222
  0
LWPOLYLINE
  5
15D
330
17
100
AcDbEntity
  8
ENG_K
100
AcDbPolyline
 90
4
 70
1
 10
159.57043028776425
 20
224.72188522986403
 10
160.3751681418886
 20
223.9171473757402
 10
159.57043028776425
 20
223.1124095216155
 10
159.57043028776425
 20
224.72188522986403
  0
LWPOLYLINE
  5
15E
330
17
100
AcDbEntity
  8
ENG_K
100
AcDbPolyline
 90
5
 70
1
 10
160.00676928588922
 20
116.80531549138418
 10
158.7996625047027
 20
116.40294656432204
 10
158.19128224805715
 20
117.0113268209676
 10
159.39838902924367
 20
117.41369574802974
 10
160.00676928588922
 20
116.80531549138418
  0
LWPOLYLINE
  5
15F
330
17
100
AcDbEntity
  8
ENG_K
100
AcDbPolyline
 90
4
 70
1
 10
159.09902576697317
 20
114.2179652188875
 10
159.09902576697317
 20
115.82744092713604
 10
159.90376362109754
 20
115.02270307301177
 10
159.09902576697317
 20
114.2179652188875
  0
LWPOLYLINE
  5
160
330
17
100
AcDbEntity
  8
ENG_K
100
AcDbPolyline
 90
4
 70
1
 10
158.62762124618214
 20
116.29884544792712
 10
159.43235910030648
 20
115.49410759380285
 10
158.62762124618214
 20
114.68936973967826
 10
158.62762124618214
 20
116.29884544792712
  0
LWPOLYLINE
  5
161
330
17
100
AcDbEntity
  8
ENG_K
100
AcDbPolyline
 90
5
 70
1
 10
157.84304509141023
 20
117.83096849840547
 10
157.20672602262997
 20
118.46728756718593
 10
158.940792880163
 20
118.81410093869249
 10
159.57711194894335
 20
118.17778186991224
 10
157.84304509141023
 20
117.83096849840547
  0
LWPOLYLINE
  5
162
330
17
100
AcDbEntity
  8
ENG_K
100
AcDbPolyline
 90
6
 70
1
 10
159.11707292502015
 20
115.98430941352211
 10
157.31842042083642
 20
114.90511791101187
 10
156.44386076601805
 20
117.52879687546702
 10
157.62787214938984
 20
117.92346733659087
 10
157.89332937944616
 20
116.59618118630921
 10
159.11707292502015
 20
115.98430941352211
  0
LWPOLYLINE
  5
163
330
17
100
AcDbEntity
  8
ENG_K
100
AcDbPolyline
 90
4
 70
1
 10
159.06396024430717
 20
113.976888366638
 10
157.6848122046001
 20
113.51717235340242
 10
157.6848122046001
 20
115.35603640634517
 10
159.06396024430717
 20
113.976888366638
  0
LWPOLYLINE
  5
164
330
17
100
AcDbEntity
  8
ENG_K
100
AcDbPolyline
 90
5
 70
1
 10
155.05811726918665
 20
116.37325563350987
 10
155.46048619624884
 20
117.58036241469627
 10
156.5402709736853
 20
116.50057763725997
 10
156.13790204662314
 20
115.29347085607333
 10
155.05811726918665
 20
116.37325563350987
  0
LWPOLYLINE
  5
165
330
17
100
AcDbEntity
  8
ENG_K
100
AcDbPolyline
 90
5
 70
1
 10
155.09208734024944
 20
251.35624065455775
 10
155.66649752583217
 20
251.9306508401402
 10
156.12621353906783
 20
250.55150280043327
 10
155.09208734024944
 20
250.55150280043327
 10
155.09208734024944
 20
251.35624065455775
  0
LWPOLYLINE
  5
166
330
17
100
AcDbEntity
  8
ENG_K
100
AcDbPolyline
 90
4
 70
1
 10
155.32778960064493
 20
115.82744092713604
 10
156.1325274547693
 20
115.02270307301177
 10
155.32778960064493
 20
114.2179652188875
 10
155.32778960064493
 20
115.82744092713604
  0
LWPOLYLINE
  5
167
330
17
100
AcDbEntity
  8
ENG_K
100
AcDbPolyline
 90
5
 70
1
 10
154.6206828194584
 20
250.4134316129758
 10
155.25875400691606
 20
251.05150280043364
 10
155.59955659022526
 20
248.66588471726914
 10
154.6206828194584
 20
248.66588471726914
 10
154.6206828194584
 20
250.4134316129758
  0
LWPOLYLINE
  5
168
330
17
100
AcDbEntity
  8
ENG_K
100
AcDbPolyline
 90
5
 70
1
 10
155.14389561696393
 20
244.8946485509409
 10
154.14927829866738
 20
244.8946485509409
 10
154.14927829866738
 20
246.17079092585658
 10
154.76543566809525
 20
246.7869482952847
 10
155.14389561696393
 20
244.8946485509409
  0
LWPOLYLINE
  5
169
330
17
100
AcDbEntity
  8
ENG_K
100
AcDbPolyline
 90
5
 70
1
 10
153.87851051560583
 20
119.63374261613036
 10
152.6714037344193
 20
119.23137368906822
 10
152.06302347777375
 20
119.83975394571378
 10
153.27013025896028
 20
120.24212287277591
 10
153.87851051560583
 20
119.63374261613036
  0
LWPOLYLINE
  5
16A
330
17
100
AcDbEntity
  8
ENG_K
100
AcDbPolyline
 90
4
 70
1
 10
151.55655343431667
 20
28.146200060004013
 10
152.36129128844107
 20
27.34146220587985
 10
151.55655343431667
 20
26.53672435175569
 10
151.55655343431667
 20
28.146200060004013
  0
LWPOLYLINE
  5
16B
330
17
100
AcDbEntity
  8
ENG_K
100
AcDbPolyline
 90
4
 70
1
 10
150.61374439273462
 20
115.16077426046955
 10
150.61374439273462
 20
116.7702499687181
 10
151.41848224685896
 20
115.96551211459382
 10
150.61374439273462
 20
115.16077426046955
  0
LWPOLYLINE
  5
16C
330
17
100
AcDbEntity
  8
ENG_K
100
AcDbPolyline
 90
4
 70
1
 10
150.9470777260679
 20
16.027753706895133
 10
150.1423398719436
 20
15.223015852770526
 10
150.1423398719436
 20
16.832491561019403
 10
150.9470777260679
 20
16.027753706895133
  0
LWPOLYLINE
  5
16D
330
17
100
AcDbEntity
  8
ENG_K
100
AcDbPolyline
 90
5
 70
1
 10
148.05498959944674
 20
164.45651675419504
 10
146.933457638165
 20
163.3349847929133
 10
146.57057652215863
 20
165.1493903729453
 10
147.69868620609293
 20
165.52542693425664
 10
148.05498959944674
 20
164.45651675419504
  0
LWPOLYLINE
  5
16E
330
17
100
AcDbEntity
  8
ENG_K
100
AcDbPolyline
 90
4
 70
1
 10
146.70443703894867
 20
112.19427594826558
 10
145.89969918482433
 20
111.38953809414132
 10
145.89969918482433
 20
112.99901380238985
 10
146.70443703894867
 20
112.19427594826558
  0
LWPOLYLINE
  5
16F
330
17
100
AcDbEntity
  8
ENG_K
100
AcDbPolyline
 90
16
 70
1
 10
138.0315778626263
 20
154.09888721532917
 10
139.38407975565437
 20
155.99238986556853
 10
141.8288795128628
 20
156.97030976845184
 10
144.60793205841478
 20
157.4334851927105
 10
145.1925924036378
 20
158.01814553793358
 10
145.6220076073947
 20
157.58873033417652
 10
146.13540144521983
 20
156.56194265852642
 10
146.13540144521983
 20
154.05164722572962
 10
145.29022347657562
 20
153.20646925708536
 10
143.68074776832682
 20
153.20646925708536
 10
143.3069743204736
 20
153.58024270493866
 10
142.93320087262043
 20
153.20646925708536
 10
142.03843276625017
 20
153.20646925708536
 10
141.5516635971567
 20
152.23293091889843
 10
140.14419449812564
 20
152.5144247387047
 10
138.0315778626263
 20
154.09888721532917
  0
LWPOLYLINE
  5
170
330
17
100
AcDbEntity
  8
ENG_K
100
AcDbPolyline
 90
4
 70
1
 10
144.48548562245122
 20
121.01289065583742
 10
145.29022347657556
 20
120.20815280171315
 10
144.48548562245122
 20
119.40341494758854
 10
144.48548562245122
 20
121.01289065583742
  0
LWPOLYLINE
  5
171
330
17
100
AcDbEntity
  8
ENG_K
100
AcDbPolyline
 90
7
 70
1
 10
143.3069743204736
 20
22.391714737574063
 10
143.3069743204736
 20
23.4725949666138
 10
142.73793872674477
 20
24.041630560342586
 10
143.92313168990154
 20
25.226823523499363
 10
144.2312103746155
 20
23.686430099929655
 10
145.52592573697106
 20
22.391714737574063
 10
143.3069743204736
 20
22.391714737574063
  0
LWPOLYLINE
  5
172
330
17
100
AcDbEntity
  8
ENG_K
100
AcDbPolyline
 90
5
 70
1
 10
144.51408110166014
 20
29.39374695571062
 10
143.34351158607288
 20
28.223177440123372
 10
141.74833361742867
 20
29.180284221309915
 10
142.28083194555825
 20
29.71278254943943
 10
144.51408110166014
 20
29.39374695571062
  0
LWPOLYLINE
  5
173
330
17
100
AcDbEntity
  8
ENG_K
100
AcDbPolyline
 90
4
 70
1
 10
143.54267658086914
 20
120.81762850996192
 10
143.54267658086914
 20
122.42710421821046
 10
144.34741443499348
 20
121.62236636408619
 10
143.54267658086914
 20
120.81762850996192
  0
LWPOLYLINE
  5
174
330
17
100
AcDbEntity
  8
ENG_K
100
AcDbPolyline
 90
5
 70
1
 10
142.77190879780758
 20
150.81547658206728
 10
142.1635285411621
 20
151.42385683871296
 10
143.3706353223486
 20
151.8262257657751
 10
143.9790155789941
 20
151.21784550912955
 10
142.77190879780758
 20
150.81547658206728
  0
LWPOLYLINE
  5
175
330
17
100
AcDbEntity
  8
ENG_K
100
AcDbPolyline
 90
5
 70
1
 10
142.39813534995434
 20
16.09141470877018
 10
141.9957664228922
 20
14.884307927583551
 10
140.91598164545567
 20
15.964092705020082
 10
141.3183505725179
 20
17.17119948620649
 10
142.39813534995434
 20
16.09141470877018
  0
LWPOLYLINE
  5
176
330
17
100
AcDbEntity
  8
ENG_K
100
AcDbPolyline
 90
5
 70
1
 10
139.92380934160303
 20
159.7918348085553
 10
139.43810708120756
 20
160.27753706895086
 10
140.99674778425256
 20
161.8361777719959
 10
142.04181059752366
 20
160.09440641654405
 10
139.92380934160303
 20
159.7918348085553
  0
LWPOLYLINE
  5
177
330
17
100
AcDbEntity
  8
ENG_K
100
AcDbPolyline
 90
5
 70
1
 10
140.49870889507991
 20
120.13068342812782
 10
139.3909853055085
 20
119.02295983855637
 10
139.04417193400187
 20
120.75702669608945
 10
140.1518955235733
 20
121.8647502856609
 10
140.49870889507991
 20
120.13068342812782
  0
LWPOLYLINE
  5
178
330
17
100
AcDbEntity
  8
ENG_K
100
AcDbPolyline
 90
5
 70
1
 10
139.53573815414538
 20
157.2134076838091
 10
139.53573815414538
 20
158.48955005872455
 10
140.15189552357333
 20
159.10570742815244
 10
140.53035547244195
 20
157.2134076838091
 10
139.53573815414538
 20
157.2134076838091
  0
LWPOLYLINE
  5
179
330
17
100
AcDbEntity
  8
ENG_K
100
AcDbPolyline
 90
4
 70
1
 10
139.30003589374988
 20
159.00139469403553
 10
139.30003589374988
 20
160.61087040228406
 10
140.10477374787422
 20
159.80613254815978
 10
139.30003589374988
 20
159.00139469403553
  0
LWPOLYLINE
  5
17A
330
17
100
AcDbEntity
  8
ENG_K
100
AcDbPolyline
 90
4
 70
1
 10
139.30003589374988
 20
159.66806136070198
 10
140.10477374787422
 20
158.86332350657773
 10
139.30003589374988
 20
158.05858565245344
 10
139.30003589374988
 20
159.66806136070198
  0
LWPOLYLINE
  5
17B
330
17
100
AcDbEntity
  8
ENG_K
100
AcDbPolyline
 90
4
 70
1
 10
139.16196470629217
 20
158.86332350657773
 10
138.3572268521678
 20
158.05858565245344
 10
138.3572268521678
 20
159.66806136070198
 10
139.16196470629217
 20
158.86332350657773
  0
LWPOLYLINE
  5
17C
330
17
100
AcDbEntity
  8
ENG_K
100
AcDbPolyline
 90
4
 70
1
 10
137.88582233137677
 20
157.58718113166213
 10
137.88582233137677
 20
159.19665683991101
 10
138.6905601855011
 20
158.39191898578676
 10
137.88582233137677
 20
157.58718113166213
  0
LWPOLYLINE
  5
17D
330
17
100
AcDbEntity
  8
ENG_K
100
AcDbPolyline
 90
4
 70
1
 10
138.21915566471012
 20
29.227080289043972
 10
137.41441781058575
 20
28.4223424349197
 10
137.41441781058575
 20
30.031818143168245
 10
138.21915566471012
 20
29.227080289043972
  0
LWPOLYLINE
  5
17E
330
17
100
AcDbEntity
  8
ENG_K
100
AcDbPolyline
 90
5
 70
1
 10
137.02964435169025
 20
27.875306863275327
 10
138.18396472837676
 20
27.490533404379903
 10
137.79919126948127
 20
26.33621302769329
 10
136.64487089279473
 20
26.720986486588714
 10
137.02964435169025
 20
27.875306863275327
  0
LWPOLYLINE
  5
17F
330
17
100
AcDbEntity
  8
ENG_K
100
AcDbPolyline
 90
4
 70
1
 10
136.94301328979472
 20
158.72525231911993
 10
137.74775114391906
 20
157.92051446499568
 10
136.94301328979472
 20
157.1157766108714
 10
136.94301328979472
 20
158.72525231911993
  0
LWPOLYLINE
  5
180
330
17
100
AcDbEntity
  8
ENG_K
100
AcDbPolyline
 90
4
 70
1
 10
136.4716087690037
 20
156.6443720900803
 10
136.4716087690037
 20
158.2538477983292
 10
137.276346623128
 20
157.44910994420457
 10
136.4716087690037
 20
156.6443720900803
  0
LWPOLYLINE
  5
181
330
17
100
AcDbEntity
  8
ENG_K
100
AcDbPolyline
 90
4
 70
1
 10
136.00020424821264
 20
157.78244327753777
 10
136.804942102337
 20
156.9777054234136
 10
136.00020424821264
 20
156.17296756928945
 10
136.00020424821264
 20
157.78244327753777
  0
LWPOLYLINE
  5
182
330
17
100
AcDbEntity
  8
ENG_K
100
AcDbPolyline
 90
4
 70
1
 10
133.17177712346646
 20
25.59391531017352
 10
133.17177712346646
 20
27.203391018422064
 10
133.9765149775908
 20
26.39865316429779
 10
133.17177712346646
 20
25.59391531017352
  0
LWPOLYLINE
  5
183
330
17
100
AcDbEntity
  8
ENG_K
100
AcDbPolyline
 90
4
 70
1
 10
133.50511045679974
 20
18.85618083164131
 10
132.70037260267543
 20
18.051442977516707
 10
132.70037260267543
 20
19.660918685765584
 10
133.50511045679974
 20
18.85618083164131
  0
LWPOLYLINE
  5
184
330
17
100
AcDbEntity
  8
ENG_K
100
AcDbPolyline
 90
5
 70
1
 10
132.54213971586523
 20
19.819151572575745
 10
133.1784587846456
 20
19.182832503795378
 10
131.44439192711252
 20
18.83601913228883
 10
130.80807285833214
 20
19.472338201069196
 10
132.54213971586523
 20
19.819151572575745
  0
LWPOLYLINE
  5
185
330
17
100
AcDbEntity
  8
ENG_K
100
AcDbPolyline
 90
5
 70
1
 10
130.60145170954127
 20
241.12341238461266
 10
129.68791471407627
 20
241.12341238461266
 10
129.13950922731004
 20
243.31703433167752
 10
130.29682134043327
 20
244.47434644480072
 10
130.60145170954127
 20
241.12341238461266
  0
LWPOLYLINE
  5
186
330
17
100
AcDbEntity
  8
ENG_K
100
AcDbPolyline
 90
5
 70
1
 10
130.2106534031164
 20
247.68801015302122
 10
130.67036941635212
 20
246.30886211331404
 10
129.63624321753372
 20
246.30886211331404
 10
129.63624321753372
 20
247.11359996743855
 10
130.2106534031164
 20
247.68801015302122
  0
LWPOLYLINE
  5
187
330
17
100
AcDbEntity
  8
ENG_K
100
AcDbPolyline
 90
4
 70
1
 10
129.40054095713822
 20
246.6826355611671
 10
129.40054095713822
 20
248.29211126941564
 10
130.20527881126256
 20
247.4873734152918
 10
129.40054095713822
 20
246.6826355611671
  0
LWPOLYLINE
  5
188
330
17
100
AcDbEntity
  8
ENG_K
100
AcDbPolyline
 90
5
 70
1
 10
129.40722261831743
 20
239.32874371320722
 10
127.6731557607844
 20
238.9819303417007
 10
127.03683669200369
 20
239.61824941048104
 10
128.77090354953697
 20
239.96506278198783
 10
129.40722261831743
 20
239.32874371320722
  0
LWPOLYLINE
  5
189
330
17
100
AcDbEntity
  8
ENG_K
100
AcDbPolyline
 90
8
 70
1
 10
126.80781609278752
 20
23.001190445822715
 10
126.31624987264401
 20
23.492756665966287
 10
126.72000356841711
 20
25.511525144831904
 10
128.18321649172717
 20
22.292456713549736
 10
129.498172030076
 20
20.97750117520092
 10
127.88869632182725
 20
20.97750117520092
 10
126.80781609278752
 20
22.058381404240656
 10
126.80781609278752
 20
23.001190445822715
  0
LWPOLYLINE
  5
18A
330
17
100
AcDbEntity
  8
ENG_K
100
AcDbPolyline
 90
4
 70
1
 10
127.84825620730739
 20
251.25860958162005
 10
127.04351835318303
 20
250.45387172749534
 10
127.04351835318303
 20
252.06334743574388
 10
127.84825620730739
 20
251.25860958162005
  0
LWPOLYLINE
  5
18B
330
17
100
AcDbEntity
  8
ENG_K
100
AcDbPolyline
 90
4
 70
1
 10
120.77718839544191
 20
25.927248643506708
 10
119.97245054131757
 20
25.122510789382435
 10
119.97245054131757
 20
26.73198649763131
 10
120.77718839544191
 20
25.927248643506708
  0
LWPOLYLINE
  5
18C
330
17
100
AcDbEntity
  8
ENG_K
100
AcDbPolyline
 90
4
 70
1
 10
117.6154279373624
 20
27.67479553921337
 10
118.42016579148674
 20
26.870057685088767
 10
117.6154279373624
 20
26.065319830964494
 10
117.6154279373624
 20
27.67479553921337
  0
LWPOLYLINE
  5
18D
330
17
100
AcDbEntity
  8
ENG_K
100
AcDbPolyline
 90
4
 70
1
 10
117.94876127069573
 20
27.34146220587985
 10
117.14402341657137
 20
26.53672435175558
 10
117.14402341657137
 20
28.146200060004123
 10
117.94876127069573
 20
27.34146220587985
  0
LWPOLYLINE
  5
18E
330
17
100
AcDbEntity
  8
ENG_K
100
AcDbPolyline
 90
5
 70
1
 10
112.93644825211813
 20
29.595479145043456
 10
114.07989403142966
 20
30.738924924354816
 10
114.58526862328348
 20
30.233550332501082
 10
114.22896522992961
 20
29.164640152439468
 10
112.93644825211813
 20
29.595479145043456
  0
LWPOLYLINE
  5
18F
330
17
100
AcDbEntity
  8
ENG_K
100
AcDbPolyline
 90
4
 70
1
 10
113.37278725024312
 20
31.917436226332363
 10
114.17752510436748
 20
31.112698372208094
 10
113.37278725024312
 20
30.30796051808382
 10
113.37278725024312
 20
31.917436226332363
  0
LWPOLYLINE
  5
190
330
17
100
AcDbEntity
  8
ENG_K
100
AcDbPolyline
 90
5
 70
1
 10
113.69980666787491
 20
25.69154638311122
 10
112.66568046905658
 20
25.69154638311122
 10
112.66568046905658
 20
26.4962842372356
 10
113.24009065463926
 20
27.070694422818175
 10
113.69980666787491
 20
25.69154638311122
  0
LWPOLYLINE
  5
191
330
17
100
AcDbEntity
  8
ENG_K
100
AcDbPolyline
 90
4
 70
1
 10
112.9013827294521
 20
32.86024526791442
 10
113.70612058357645
 20
32.05550741379015
 10
112.9013827294521
 20
31.25076955966588
 10
112.9013827294521
 20
32.86024526791442
  0
LWPOLYLINE
  5
192
330
17
100
AcDbEntity
  8
ENG_K
100
AcDbPolyline
 90
6
 70
1
 10
113.47041832318087
 20
26.63435542469328
 10
111.69523179829153
 20
26.63435542469328
 10
112.08790023977494
 20
30.16837139804407
 10
112.26383665706092
 20
30.17111973374753
 10
112.65220043088328
 20
27.452573316990915
 10
113.47041832318087
 20
26.63435542469328
  0
LWPOLYLINE
  5
193
330
17
100
AcDbEntity
  8
ENG_K
100
AcDbPolyline
 90
5
 70
1
 10
112.83234713572325
 20
26.191546383111163
 10
113.17314971903241
 20
23.805928299947098
 10
112.19427594826554
 20
23.805928299947098
 10
112.19427594826554
 20
25.55347519565354
 10
112.83234713572325
 20
26.191546383111163
  0
LWPOLYLINE
  5
194
330
17
100
AcDbEntity
  8
ENG_K
100
AcDbPolyline
 90
5
 70
1
 10
110.70259301230712
 20
12.707760362005383
 10
110.06627394352674
 20
13.344079430785637
 10
111.8003408010599
 20
13.69089280229241
 10
112.43665986984016
 20
13.054573733511932
 10
110.70259301230712
 20
12.707760362005383
  0
LWPOLYLINE
  5
195
330
17
100
AcDbEntity
  8
ENG_K
100
AcDbPolyline
 90
4
 70
1
 10
111.82050250041233
 20
35.35533905932742
 10
111.01576464628798
 20
34.550601205203144
 10
111.01576464628798
 20
36.16007691345169
 10
111.82050250041233
 20
35.35533905932742
  0
LWPOLYLINE
  5
196
330
17
100
AcDbEntity
  8
ENG_K
100
AcDbPolyline
 90
28
 70
1
 10
110.50205077453323
 20
35.2781250190789
 10
107.44198152904164
 20
36.29814810090948
 10
105.0675663804962
 20
36.29814810090948
 10
103.21016764070856
 20
37.22684747080329
 10
101.32454955754446
 20
36.755442950012316
 10
100.28024749461765
 20
37.277593981475675
 10
97.58073580374356
 20
39.48628536491805
 10
97.58073580374356
 20
40.956551552916
 10
96.6379267621615
 20
42.842169636080115
 10
96.6379267621615
 20
44.076322693961444
 10
97.47848589548528
 20
44.076322693961444
 10
98.18559267667182
 20
42.8978113919839
 10
99.63623846427583
 20
42.8978113919839
 10
100.10764298506686
 20
41.48359782961075
 10
100.78293637634296
 20
41.48359782961075
 10
101.7510748873577
 20
42.45173634062549
 10
103.63669297052185
 20
41.98033181983452
 10
104.19097117865381
 20
42.53461002796644
 10
104.49465500012278
 20
45.26776442118718
 10
106.178277970159
 20
42.46172613779342
 10
108.0239368646514
 20
42.92314086141658
 10
108.89444430272832
 20
42.05263342333965
 10
108.89444430272832
 20
40.612153690234855
 10
109.94577179948826
 20
39.03516244509508
 10
108.89444430272832
 20
38.50949869671505
 10
108.89444430272832
 20
37.896392427135495
 10
110.80775640075466
 20
37.41806440262896
 10
110.50205077453323
 20
35.2781250190789
  0
LWPOLYLINE
  5
197
330
17
100
AcDbEntity
  8
ENG_K
100
AcDbPolyline
 90
4
 70
1
 10
102.5304832720494
 20
106.39935051131543
 10
103.33522112617374
 20
105.59461265719116
 10
102.5304832720494
 20
104.78987480306657
 10
102.5304832720494
 20
106.39935051131543
  0
LWPOLYLINE
  5
198
330
17
100
AcDbEntity
  8
ENG_K
100
AcDbPolyline
 90
5
 70
1
 10
101.82337649086284
 20
232.63813101037422
 10
101.82337649086284
 20
234.38567790608045
 10
102.46144767832052
 20
235.02374909353853
 10
102.80225026162971
 20
232.63813101037422
 10
101.82337649086284
 20
232.63813101037422
  0
LWPOLYLINE
  5
199
330
17
100
AcDbEntity
  8
ENG_K
100
AcDbPolyline
 90
4
 70
1
 10
102.39241208459167
 20
214.0176524391284
 10
101.58767423046733
 20
213.21291458500414
 10
101.58767423046733
 20
214.822390293253
 10
102.39241208459167
 20
214.0176524391284
  0
LWPOLYLINE
  5
19A
330
17
100
AcDbEntity
  8
ENG_K
100
AcDbPolyline
 90
5
 70
1
 10
101.9900431575295
 20
233.1381310103744
 10
102.33084574083868
 20
230.75251292721012
 10
101.35197197007182
 20
230.75251292721012
 10
101.35197197007182
 20
232.50005982291634
 10
101.9900431575295
 20
233.1381310103744
  0
LWPOLYLINE
  5
19B
330
17
100
AcDbEntity
  8
ENG_K
100
AcDbPolyline
 90
4
 70
1
 10
101.92100756380066
 20
230.5168106668145
 10
101.1162697096763
 20
229.71207281269068
 10
101.1162697096763
 20
231.321548520939
 10
101.92100756380066
 20
230.5168106668145
  0
LWPOLYLINE
  5
19C
330
17
100
AcDbEntity
  8
ENG_K
100
AcDbPolyline
 90
4
 70
1
 10
99.56398495984548
 20
55.625733453341766
 10
98.75924710572113
 20
54.82099559921749
 10
98.75924710572113
 20
56.430471307466036
 10
99.56398495984548
 20
55.625733453341766
  0
LWPOLYLINE
  5
19D
330
17
100
AcDbEntity
  8
ENG_K
100
AcDbPolyline
 90
4
 70
1
 10
99.09258043905446
 20
56.568542494923825
 10
98.2878425849301
 20
55.76380464079955
 10
98.2878425849301
 20
57.373280349048095
 10
99.09258043905446
 20
56.568542494923825
  0
LWPOLYLINE
  5
19E
330
17
100
AcDbEntity
  8
ENG_K
100
AcDbPolyline
 90
4
 70
1
 10
98.62117591826343
 20
93.80949963741536
 10
97.81643806413908
 20
93.00476178329109
 10
97.81643806413908
 20
94.61423749153963
 10
98.62117591826343
 20
93.80949963741536
  0
LWPOLYLINE
  5
19F
330
17
100
AcDbEntity
  8
ENG_K
100
AcDbPolyline
 90
5
 70
1
 10
96.07995971595162
 20
56.557473947404844
 10
95.56740991068888
 20
57.070023752667566
 10
97.65149214899976
 20
58.558653922889725
 10
98.67893510814443
 20
56.846248990981785
 10
96.07995971595162
 20
56.557473947404844
  0
LWPOLYLINE
  5
1A0
330
17
100
AcDbEntity
  8
ENG_K
100
AcDbPolyline
 90
4
 70
1
 10
97.34503354334804
 20
112.52760928159911
 10
98.14977139747239
 20
111.7228714274745
 10
97.34503354334804
 20
110.91813357335023
 10
97.34503354334804
 20
112.52760928159911
  0
LWPOLYLINE
  5
1A1
330
17
100
AcDbEntity
  8
ENG_K
100
AcDbPolyline
 90
4
 70
1
 10
96.87362902255701
 20
112.0562047608078
 10
97.67836687668137
 20
111.25146690668353
 10
96.87362902255701
 20
110.44672905255925
 10
96.87362902255701
 20
112.0562047608078
  0
LWPOLYLINE
  5
1A2
330
17
100
AcDbEntity
  8
ENG_K
100
AcDbPolyline
 90
4
 70
1
 10
94.98801093939288
 20
55.76380464079955
 10
94.98801093939288
 20
57.373280349048095
 10
95.79274879351725
 20
56.568542494923825
 10
94.98801093939288
 20
55.76380464079955
  0
LWPOLYLINE
  5
1A3
330
17
100
AcDbEntity
  8
ENG_K
100
AcDbPolyline
 90
4
 70
1
 10
94.51660641860185
 20
56.90187582825712
 10
95.3213442727262
 20
56.09713797413285
 10
94.51660641860185
 20
55.292400120008246
 10
94.51660641860185
 20
56.90187582825712
  0
LWPOLYLINE
  5
1A4
330
17
100
AcDbEntity
  8
ENG_K
100
AcDbPolyline
 90
4
 70
1
 10
95.32134427272621
 20
51.85449728701352
 10
94.51660641860185
 20
51.04975943288925
 10
94.51660641860185
 20
52.65923514113779
 10
95.32134427272621
 20
51.85449728701352
  0
LWPOLYLINE
  5
1A5
330
17
100
AcDbEntity
  8
ENG_K
100
AcDbPolyline
 90
4
 70
1
 10
94.84993975193518
 20
55.625733453341766
 10
94.04520189781083
 20
54.82099559921749
 10
94.04520189781083
 20
56.430471307466036
 10
94.84993975193518
 20
55.625733453341766
  0
LWPOLYLINE
  5
1A6
330
17
100
AcDbEntity
  8
ENG_K
100
AcDbPolyline
 90
4
 70
1
 10
94.84993975193518
 20
52.79730632859558
 10
94.04520189781083
 20
51.99256847447131
 10
94.04520189781083
 20
53.60204418271985
 10
94.84993975193518
 20
52.79730632859558
  0
LWPOLYLINE
  5
1A7
330
17
100
AcDbEntity
  8
ENG_K
100
AcDbPolyline
 90
5
 70
1
 10
94.28090415820634
 20
88.2502764608607
 10
94.78627875006015
 20
87.74490186900697
 10
94.4299753567063
 20
86.67599168894536
 10
93.13745837889479
 20
87.10683068154934
 10
94.28090415820634
 20
88.2502764608607
  0
LWPOLYLINE
  5
1A8
330
17
100
AcDbEntity
  8
ENG_K
100
AcDbPolyline
 90
5
 70
1
 10
93.8434697084781
 20
195.56921512640312
 10
92.86669059583322
 20
194.5924360137582
 10
92.33419226770366
 20
195.12493434188792
 10
93.39964507631193
 20
196.9006890229017
 10
93.8434697084781
 20
195.56921512640312
  0
LWPOLYLINE
  5
1A9
330
17
100
AcDbEntity
  8
ENG_K
100
AcDbPolyline
 90
14
 70
1
 10
87.6812408671319
 20
95.27935495569217
 10
87.6812408671319
 20
100.0132927451649
 10
88.94820551901765
 20
101.78704325780485
 10
90.98107251266912
 20
102.46466558902212
 10
90.98107251266912
 20
103.33522112617376
 10
92.06863440288808
 20
104.42278301639274
 10
92.41544777439469
 20
102.68871615885966
 10
91.92388155425118
 20
102.1971499387161
 10
91.92388155425118
 20
99.88937870338444
 10
90.50966799187808
 20
96.58954705784717
 10
90.50966799187808
 20
94.65467760605961
 10
89.1492822692672
 20
93.29429188344874
 10
87.12292808482022
 20
94.16272939106885
 10
87.6812408671319
 20
95.27935495569217
  0
LWPOLYLINE
  5
1AA
330
17
100
AcDbEntity
  8
ENG_K
100
AcDbPolyline
 90
86
 70
1
 10
83.3223961196346
 20
87.1912633589006
 10
83.93287630037442
 20
87.80174353964043
 10
84.40428082116546
 20
89.68736162280466
 10
85.22658719023894
 20
90.50966799187809
 10
84.75518266944792
 20
90.98107251266919
 10
85.67214378866727
 20
91.89803363188854
 10
89.30441617069003
 20
92.93582574103787
 10
89.57128930519096
 20
90.00022126152763
 10
88.11570686145534
 20
86.60386222614447
 10
87.30746741927868
 20
85.7956227839678
 10
85.42184933611456
 20
85.7956227839678
 10
84.4790402945325
 20
84.85281374238573
 10
82.45039903059717
 20
84.85281374238573
 10
80.09337642664202
 20
85.7956227839678
 10
78.62692389916444
 20
85.7956227839678
 10
78.15551937837341
 20
86.26702730475888
 10
76.74130581600036
 20
86.26702730475888
 10
76.26990129520934
 20
86.73843182554985
 10
74.85568773283619
 20
86.73843182554985
 10
74.38428321204515
 20
87.20983634634094
 10
73.299441882547
 20
87.20983634634094
 10
73.06588367341591
 20
73.42990200760636
 10
69.34934101850605
 20
70.20889837335109
 10
68.22206488947724
 20
70.58465708302752
 10
70.23927359786371
 20
73.61047014560718
 10
70.23927359786371
 20
74.35577026338058
 10
68.87793673476475
 20
75.26332817211312
 10
68.32583463674774
 20
76.3675323681472
 10
68.82506003549064
 20
77.36598316563304
 10
68.82506003549064
 20
80.37447079487092
 10
70.23927359786371
 20
80.37447079487092
 10
70.23927359786371
 20
79.29359056583118
 10
70.77827650871235
 20
78.75458765498244
 10
69.83546746713029
 20
77.34037409260941
 10
70.19817092272865
 20
76.9776706370111
 10
71.66023573726997
 20
79.27520105986174
 10
72.10014587532463
 20
83.67430244040818
 10
71.6534871602368
 20
83.67430244040818
 10
71.6534871602368
 20
82.90190991258994
 10
70.8679312559979
 20
81.59265007219174
 10
69.1473933577817
 20
81.01913743945299
 10
68.73525591836516
 20
82.25554975770267
 10
66.41839131399739
 20
79.4753122324614
 10
65.8509609025948
 20
80.61017305526651
 10
65.60379581008526
 20
80.61017305526651
 10
63.617492873738456
 20
79.12044585300637
 10
62.24396973185635
 20
80.49396899488848
 10
62.03216711146435
 20
81.55298209684858
 10
60.71355210910528
 20
81.55298209684858
 10
59.83440406939824
 20
82.43213013655549
 10
60.32100046780864
 20
83.89191933178675
 10
59.81728319751385
 20
84.89935387237635
 10
61.63348955111658
 20
86.71556022597915
 10
65.40472571744485
 20
87.65836926756121
 10
65.89900183780662
 20
88.15264538792289
 10
67.31321540017967
 20
88.15264538792289
 10
67.78461992097071
 20
88.62404990871397
 10
69.19883348334385
 20
88.62404990871397
 10
69.67023800413489
 20
89.09545442950495
 10
71.08445156650795
 20
89.09545442950495
 10
71.66998571549581
 20
89.68098857849283
 10
72.44285360822332
 20
94.06057330394879
 10
73.53910524340094
 20
92.9643216687711
 10
73.53910524340094
 20
90.92543075676541
 10
72.59629620181889
 20
89.03981267360128
 10
72.59629620181889
 20
88.44015592503295
 10
73.42290118302292
 20
88.60547692127373
 10
73.91287869125416
 20
89.09545442950505
 10
73.44147417046314
 20
89.56685895029604
 10
74.01050976419198
 20
90.13589454402494
 10
74.01050976419198
 20
91.52384193566631
 10
75.9130672985484
 20
94.377678237201
 10
76.39561768504035
 20
96.30787978316879
 10
78.15518866705038
 20
97.5647161988903
 10
82.35954449467742
 20
98.49901749391854
 10
84.03774364677663
 20
100.73661636338416
 10
84.40157092094717
 20
98.91747999253131
 10
83.91000470080364
 20
98.42591377238786
 10
83.91000470080364
 20
95.12608212685059
 10
83.4386001800126
 20
94.65467760605961
 10
83.4386001800126
 20
91.39683527755649
 10
82.49579113843055
 20
89.51121719439237
 10
82.49579113843055
 20
88.25027646086082
 10
83.01828660216874
 20
87.72778099712252
 10
82.68643130121595
 20
87.0640703952169
 10
83.3223961196346
 20
87.1912633589006
  0
LWPOLYLINE
  5
1AB
330
17
100
AcDbEntity
  8
ENG_K
100
AcDbPolyline
 90
13
 70
1
 10
66.56566850447332
 20
85.3242182631767
 10
68.49932752284923
 20
85.3242182631767
 10
68.9623780220402
 20
84.39811726479485
 10
70.71067811865476
 20
84.59237283108534
 10
70.71067811865476
 20
85.22658719023902
 10
70.14164252492591
 20
85.7956227839678
 10
70.69638037905027
 20
86.3503606380921
 10
70.5119679673907
 20
87.64124751970903
 10
65.61929772963092
 20
86.75167111284365
 10
64.15396946940014
 20
85.70500806982162
 10
64.26559933944124
 20
85.37011845969833
 10
66.06893451424959
 20
85.82095225340048
 10
66.56566850447332
 20
85.3242182631767
  0
LWPOLYLINE
  5
1AC
330
17
100
AcDbEntity
  8
ENG_K
100
AcDbPolyline
 90
4
 70
1
 10
86.50272956515431
 20
111.38953809414132
 10
86.50272956515431
 20
112.99901380238985
 10
87.30746741927867
 20
112.19427594826558
 10
86.50272956515431
 20
111.38953809414132
  0
LWPOLYLINE
  5
1AD
330
17
100
AcDbEntity
  8
ENG_K
100
AcDbPolyline
 90
4
 70
1
 10
85.42184933611455
 20
197.98989873223337
 10
84.6171114819902
 20
197.18516087810912
 10
84.6171114819902
 20
198.79463658635765
 10
85.42184933611455
 20
197.98989873223337
  0
LWPOLYLINE
  5
1AE
330
17
100
AcDbEntity
  8
ENG_K
100
AcDbPolyline
 90
5
 70
1
 10
84.53048042009463
 20
89.50441881369153
 10
83.37616004340813
 20
89.88919227258707
 10
83.7609335023037
 20
91.04351264927357
 10
84.91525387899017
 20
90.65873919037814
 10
84.53048042009463
 20
89.50441881369153
  0
LWPOLYLINE
  5
1AF
330
17
100
AcDbEntity
  8
ENG_K
100
AcDbPolyline
 90
4
 70
1
 10
84.14570696119917
 20
92.72861940837551
 10
84.95044481532352
 20
91.92388155425124
 10
84.14570696119917
 20
91.11914370012697
 10
84.14570696119917
 20
92.72861940837551
  0
LWPOLYLINE
  5
1B0
330
17
100
AcDbEntity
  8
ENG_K
100
AcDbPolyline
 90
4
 70
1
 10
83.20289791961709
 20
87.8193120545897
 10
83.20289791961709
 20
90.3715968044203
 10
84.47904029453247
 20
89.09545442950505
 10
83.20289791961709
 20
87.8193120545897
  0
LWPOLYLINE
  5
1B1
330
17
100
AcDbEntity
  8
ENG_K
100
AcDbPolyline
 90
8
 70
1
 10
76.50715275811892
 20
129.12284937970875
 10
77.40797248266702
 20
128.2220296551606
 10
78.31843619794292
 20
128.2220296551606
 10
80.38997269868838
 20
126.97910775471344
 10
75.8154906813809
 20
127.28407322253399
 10
72.4656296760402
 20
129.6032077646929
 10
73.49256511341035
 20
130.630143202063
 10
76.50715275811892
 20
129.12284937970875
  0
LWPOLYLINE
  5
1B2
330
17
100
AcDbEntity
  8
ENG_K
100
AcDbPolyline
 90
4
 70
1
 10
74.10814083712978
 20
140.4785471957275
 10
73.30340298300543
 20
139.67380934160323
 10
73.30340298300543
 20
141.28328504985177
 10
74.10814083712978
 20
140.4785471957275
  0
LWPOLYLINE
  5
1B3
330
17
100
AcDbEntity
  8
ENG_K
100
AcDbPolyline
 90
4
 70
1
 10
71.27971371238358
 20
131.52186130069788
 10
70.47497585825924
 20
130.7171234465736
 10
70.47497585825924
 20
132.32659915482247
 10
71.27971371238358
 20
131.52186130069788
  0
LWPOLYLINE
  5
1B4
330
17
100
AcDbEntity
  8
ENG_K
100
AcDbPolyline
 90
4
 70
1
 10
65.2895261295579
 20
75.09138999323173
 10
65.2895261295579
 20
76.93025404617448
 10
66.66867416926496
 20
76.4705380329389
 10
65.2895261295579
 20
75.09138999323173
  0
LWPOLYLINE
  5
1B5
330
17
100
AcDbEntity
  8
ENG_K
100
AcDbPolyline
 90
5
 70
1
 10
63.36884252372775
 20
71.0790769746541
 10
62.16173574254122
 20
70.67670804759196
 10
61.55335548589565
 20
71.28508830423752
 10
62.760462267082175
 20
71.68745723129966
 10
63.36884252372775
 20
71.0790769746541
  0
LWPOLYLINE
  5
1B6
330
17
100
AcDbEntity
  8
ENG_K
100
AcDbPolyline
 90
5
 70
1
 10
59.10094102069928
 20
72.6675045795302
 10
60.37910914228836
 20
73.09356062005989
 10
62.72519515059423
 20
71.4177848998413
 10
60.97552054023247
 20
71.4177848998413
 10
59.10094102069928
 20
72.6675045795302
  0
LWPOLYLINE
  5
1B7
330
17
100
AcDbEntity
  8
ENG_K
100
AcDbPolyline
 90
6
 70
1
 10
58.60718294988872
 20
72.83199846221444
 10
55.97996273197019
 20
74.93377463654926
 10
57.020410718804406
 20
75.9742226233835
 10
59.348176199349
 20
74.16373836073764
 10
60.01404614861063
 20
72.83199846221444
 10
58.60718294988872
 20
72.83199846221444
  0
LWPOLYLINE
  5
1B8
330
17
100
AcDbEntity
  8
CUT_SLOT
100
AcDbPolyline
 90
5
 70
1
 10
203.14783504059943
 20
141.42135623730957
 10
206.7119366557372
 20
141.42135623730957
 10
206.7119366557372
 20
282.84271247461913
 10
203.14783504059943
 20
282.84271247461913
 10
203.14783504059943
 20
141.42135623730957
  0
LWPOLYLINE
  5
1B9
330
17
100
AcDbEntity
  8
CUT_SLOT
100
AcDbPolyline
 90
5
 70
1
 10
180.05382427301438
 20
141.42135623730957
 10
183.61792588815214
 20
141.42135623730957
 10
183.61792588815214
 20
282.84271247461913
 10
180.05382427301438
 20
282.84271247461913
 10
180.05382427301438
 20
141.42135623730957
  0
LWPOLYLINE
  5
1BA
330
17
100
AcDbEntity
  8
CUT_SLOT
100
AcDbPolyline
 90
5
 70
1
 10
156.95981350542942
 20
141.42135623730957
 10
160.52391512056718
 20
141.42135623730957
 10
160.52391512056718
 20
282.84271247461913
 10
156.95981350542942
 20
282.84271247461913
 10
156.95981350542942
 20
141.42135623730957
  0
LWPOLYLINE
  5
1BB
330
17
100
AcDbEntity
  8
CUT_SLOT
100
AcDbPolyline
 90
5
 70
1
 10
133.86580273784435
 20
141.42135623730957
 10
137.4299043529821
 20
141.42135623730957
 10
137.4299043529821
 20
282.84271247461913
 10
133.86580273784435
 20
282.84271247461913
 10
133.86580273784435
 20
141.42135623730957
  0
LWPOLYLINE
  5
1BC
330
17
100
AcDbEntity
  8
CUT_SLOT
100
AcDbPolyline
 90
5
 70
1
 10
110.77179197025934
 20
141.42135623730957
 10
114.3358935853971
 20
141.42135623730957
 10
114.3358935853971
 20
282.84271247461913
 10
110.77179197025934
 20
282.84271247461913
 10
110.77179197025934
 20
141.42135623730957
  0
LWPOLYLINE
  5
1BD
330
17
100
AcDbEntity
  8
CUT_SLOT
100
AcDbPolyline
 90
5
 70
1
 10
87.67778120267428
 20
141.42135623730957
 10
91.24188281781204
 20
141.42135623730957
 10
91.24188281781204
 20
282.84271247461913
 10
87.67778120267428
 20
282.84271247461913
 10
87.67778120267428
 20
141.42135623730957
  0
LWPOLYLINE
  5
1BE
330
17
100
AcDbEntity
  8
CUT_SLOT
100
AcDbPolyline
 90
5
 70
1
 10
76.13077581888176
 20
141.42135623730957
 10
79.69487743401953
 20
141.42135623730957
 10
79.69487743401953
 20
282.84271247461913
 10
76.13077581888176
 20
282.84271247461913
 10
76.13077581888176
 20
141.42135623730957
  0
LWPOLYLINE
  5
1BF
330
17
100
AcDbEntity
  8
CUT_SLOT
100
AcDbPolyline
 90
5
 70
1
 10
99.2247865864668
 20
141.42135623730957
 10
102.78888820160456
 20
141.42135623730957
 10
102.78888820160456
 20
282.84271247461913
 10
99.2247865864668
 20
282.84271247461913
 10
99.2247865864668
 20
141.42135623730957
  0
LWPOLYLINE
  5
1C0
330
17
100
AcDbEntity
  8
CUT_SLOT
100
AcDbPolyline
 90
5
 70
1
 10
122.31879735405182
 20
141.42135623730957
 10
125.88289896918958
 20
141.42135623730957
 10
125.88289896918958
 20
282.84271247461913
 10
122.31879735405182
 20
282.84271247461913
 10
122.31879735405182
 20
141.42135623730957
  0
LWPOLYLINE
  5
1C1
330
17
100
AcDbEntity
  8
CUT_SLOT
100
AcDbPolyline
 90
5
 70
1
 10
145.41280812163689
 20
141.42135623730957
 10
148.97690973677464
 20
141.42135623730957
 10
148.97690973677464
 20
282.84271247461913
 10
145.41280812163689
 20
282.84271247461913
 10
145.41280812163689
 20
141.42135623730957
  0
LWPOLYLINE
  5
1C2
330
17
100
AcDbEntity
  8
CUT_SLOT
100
AcDbPolyline
 90
5
 70
1
 10
168.5068188892219
 20
141.42135623730957
 10
172.07092050435966
 20
141.42135623730957
 10
172.07092050435966
 20
282.84271247461913
 10
168.5068188892219
 20
282.84271247461913
 10
168.5068188892219
 20
141.42135623730957
  0
LWPOLYLINE
  5
1C3
330
17
100
AcDbEntity
  8
CUT_SLOT
100
AcDbPolyline
 90
5
 70
1
 10
191.60082965680692
 20
141.42135623730957
 10
195.16493127194468
 20
141.42135623730957
 10
195.16493127194468
 20
282.84271247461913
 10
191.60082965680692
 20
282.84271247461913
 10
191.60082965680692
 20
141.42135623730957
  0
LWPOLYLINE
  5
1C4
330
17
100
AcDbEntity
  8
CUT_OUTLINE
100
AcDbPolyline
 90
5
 70
1
 10
0.0
 20
0.0
 10
282.842712474619
 20
0.0
 10
282.842712474619
 20
282.84271247461913
 10
0.0
 20
282.84271247461913
 10
0.0
 20
0.0
  0
ENDSEC
  0
SECTION
  2
OBJECTS
  0
DICTIONARY
  5
A
330
0
100
AcDbDictionary
281
1
  3
ACAD_COLOR
350
B
  3
ACAD_GROUP
350
C
  3
ACAD_LAYOUT
350
D
  3
ACAD_MATERIAL
350
E
  3
ACAD_MLEADERSTYLE
350
F
  3
ACAD_MLINESTYLE
350
10
  3
ACAD_PLOTSETTINGS
350
11
  3
ACAD_PLOTSTYLENAME
350
12
  3
ACAD_SCALELIST
350
14
  3
ACAD_TABLESTYLE
350
15
  3
ACAD_VISUALSTYLE
350
16
  3
EZDXF_META
350
2D
  0
DICTIONARY
  5
B
330
A
100
AcDbDictionary
281
1
  0
DICTIONARY
  5
C
330
A
100
AcDbDictionary
281
1
  0
DICTIONARY
  5
D
330
A
100
AcDbDictionary
281
1
  3
Model
350
1A
  3
Layout1
350
1E
  0
DICTIONARY
  5
E
330
A
100
AcDbDictionary
281
1
  3
ByBlock
350
1F
  3
ByLayer
350
20
  3
Global
350
21
  0
DICTIONARY
  5
F
330
A
100
AcDbDictionary
281
1
  3
Standard
350
2C
  0
DICTIONARY
  5
10
330
A
100
AcDbDictionary
281
1
  3
Standard
350
22
  0
DICTIONARY
  5
11
330
A
100
AcDbDictionary
281
1
  0
ACDBDICTIONARYWDFLT
  5
12
330
A
100
AcDbDictionary
281
1
  3
Normal
350
13
100
AcDbDictionaryWithDefault
340
13
  0
ACDBPLACEHOLDER
  5
13
330
12
  0
DICTIONARY
  5
14
330
A
100
AcDbDictionary
281
1
  0
DICTIONARY
  5
15
330
A
100
AcDbDictionary
281
1
  0
DICTIONARY
  5
16
330
A
100
AcDbDictionary
281
1
  0
LAYOUT
  5
1A
330
D
100
AcDbPlotSettings
  1

  4
A3
  6

 40
7.5
 41
20.0
 42
7.5
 43
20.0
 44
420.0
 45
297.0
 46
0.0
 47
0.0
 48
0.0
 49
0.0
140
0.0
141
0.0
142
1.0
143
1.0
 70
1024
 72
1
 73
0
 74
5
  7

 75
16
 76
0
 77
2
 78
300
147
1.0
148
0.0
149
0.0
100
AcDbLayout
  1
Model
 70
1
 71
0
 10
0.0
 20
0.0
 11
420.0
 21
297.0
 12
0.0
 22
0.0
 32
0.0
 14
1e+20
 24
1e+20
 34
1e+20
 15
-1e+20
 25
-1e+20
 35
-1e+20
146
0.0
 13
0.0
 23
0.0
 33
0.0
 16
1.0
 26
0.0
 36
0.0
 17
0.0
 27
1.0
 37
0.0
 76
1
330
17
  0
LAYOUT
  5
1E
330
D
100
AcDbPlotSettings
  1

  4
A3
  6

 40
7.5
 41
20.0
 42
7.5
 43
20.0
 44
420.0
 45
297.0
 46
0.0
 47
0.0
 48
0.0
 49
0.0
140
0.0
141
0.0
142
1.0
143
1.0
 70
0
 72
1
 73
0
 74
5
  7

 75
16
 76
0
 77
2
 78
300
147
1.0
148
0.0
149
0.0
100
AcDbLayout
  1
Layout1
 70
1
 71
1
 10
0.0
 20
0.0
 11
420.0
 21
297.0
 12
0.0
 22
0.0
 32
0.0
 14
1e+20
 24
1e+20
 34
1e+20
 15
-1e+20
 25
-1e+20
 35
-1e+20
146
0.0
 13
0.0
 23
0.0
 33
0.0
 16
1.0
 26
0.0
 36
0.0
 17
0.0
 27
1.0
 37
0.0
 76
1
330
1B
  0
MATERIAL
  5
1F
102
{ACAD_REACTORS
330
E
102
}
330
E
100
AcDbMaterial
  1
ByBlock
  2

 70
0
 40
1.0
 71
1
 41
1.0
 91
-1023410177
 42
1.0
 72
1
  3

 73
1
 74
1
 75
1
 44
0.5
 73
0
 45
1.0
 46
1.0
 77
1
  4

 78
1
 79
1
170
1
 48
1.0
171
1
  6

172
1
173
1
174
1
140
1.0
141
1.0
175
1
  7

176
1
177
1
178
1
143
1.0
179
1
  8

270
1
271
1
272
1
145
1.0
146
1.0
273
1
  9

274
1
275
1
276
1
 42
1.0
 72
1
  3

 73
1
 74
1
 75
1
 94
63
  0
MATERIAL
  5
20
102
{ACAD_REACTORS
330
E
102
}
330
E
100
AcDbMaterial
  1
ByLayer
  2

 70
0
 40
1.0
 71
1
 41
1.0
 91
-1023410177
 42
1.0
 72
1
  3

 73
1
 74
1
 75
1
 44
0.5
 73
0
 45
1.0
 46
1.0
 77
1
  4

 78
1
 79
1
170
1
 48
1.0
171
1
  6

172
1
173
1
174
1
140
1.0
141
1.0
175
1
  7

176
1
177
1
178
1
143
1.0
179
1
  8

270
1
271
1
272
1
145
1.0
146
1.0
273
1
  9

274
1
275
1
276
1
 42
1.0
 72
1
  3

 73
1
 74
1
 75
1
 94
63
  0
MATERIAL
  5
21
102
{ACAD_REACTORS
330
E
102
}
330
E
100
AcDbMaterial
  1
Global
  2

 70
0
 40
1.0
 71
1
 41
1.0
 91
-1023410177
 42
1.0
 72
1
  3

 73
1
 74
1
 75
1
 44
0.5
 73
0
 45
1.0
 46
1.0
 77
1
  4

 78
1
 79
1
170
1
 48
1.0
171
1
  6

172
1
173
1
174
1
140
1.0
141
1.0
175
1
  7

176
1
177
1
178
1
143
1.0
179
1
  8

270
1
271
1
272
1
145
1.0
146
1.0
273
1
  9

274
1
275
1
276
1
 42
1.0
 72
1
  3

 73
1
 74
1
 75
1
 94
63
  0
MLINESTYLE
  5
22
102
{ACAD_REACTORS
330
10
102
}
330
10
100
AcDbMlineStyle
  2
Standard
 70
0
  3

 62
256
 51
90.0
 52
90.0
 71
2
 49
0.5
 62
256
  6
BYLAYER
 49
-0.5
 62
256
  6
BYLAYER
  0
MLEADERSTYLE
  5
2C
102
{ACAD_REACTORS
330
F
102
}
330
F
100
AcDbMLeaderStyle
179
2
170
2
171
1
172
0
 90
2
 40
0.0
 41
0.0
173
1
 91
-1056964608
 92
-2
290
1
 42
2.0
291
1
 43
8.0
  3
Standard
 44
4.0
300

342
29
174
1
175
1
176
0
178
1
 93
-1056964608
 45
4.0
292
0
297
0
 46
4.0
 94
-1056964608
 47
1.0
 49
1.0
140
1.0
294
1
141
0.0
177
0
142
1.0
295
0
296
0
143
3.75
271
0
272
9
273
9
  0
DICTIONARY
  5
2D
330
A
100
AcDbDictionary
280
1
281
1
  3
CREATED_BY_EZDXF
350
2E
  3
WRITTEN_BY_EZDXF
350
1C7
  0
DICTIONARYVAR
  5
2E
330
2D
100
DictionaryVariables
280
0
  1
1.4.4 @ 2026-08-03T12:25:46.787353+00:00
  0
DICTIONARYVAR
  5
1C7
330
2D
100
DictionaryVariables
280
0
  1
1.4.4 @ 2026-08-03T12:25:46.832130+00:00
  0
ENDSEC
  0
EOF
