  0
SECTION
  2
HEADER
  9
$ACADVER
  1
AC1027
  9
$ACADMAINTVER
 70
105
  9
$DWGCODEPAGE
  3
ANSI_1252
  9
$LASTSAVEDBY
  1
ezdxf
  9
$REQUIREDVERSIONS
160
0
  9
$INSBASE
 10
0.0
 20
0.0
 30
0.0
  9
$EXTMIN
 10
1e+20
 20
1e+20
 30
1e+20
  9
$EXTMAX
 10
-1e+20
 20
-1e+20
 30
-1e+20
  9
$LIMMIN
 10
0.0
 20
0.0
  9
$LIMMAX
 10
420.0
 20
297.0
  9
$ORTHOMODE
 70
0
  9
$REGENMODE
 70
1
  9
$FILLMODE
 70
1
  9
$QTEXTMODE
 70
0
  9
$MIRRTEXT
 70
1
  9
$LTSCALE
 40
1.0
  9
$ATTMODE
 70
1
  9
$TEXTSIZE
 40
2.5
  9
$TRACEWID
 40
1.0
  9
$TEXTSTYLE
  7
Standard
  9
$CLAYER
  8
0
  9
$CELTYPE
  6
ByLayer
  9
$CECOLOR
 62
256
  9
$CELTSCALE
 40
1.0
  9
$DISPSILH
 70
0
  9
$DIMSCALE
 40
1.0
  9
$DIMASZ
 40
2.5
  9
$DIMEXO
 40
0.625
  9
$DIMDLI
 40
3.75
  9
$DIMRND
 40
0.0
  9
$DIMDLE
 40
0.0
  9
$DIMEXE
 40
1.25
  9
$DIMTP
 40
0.0
  9
$DIMTM
 40
0.0
  9
$DIMTXT
 40
2.5
  9
$DIMCEN
 40
2.5
  9
$DIMTSZ
 40
0.0
  9
$DIMTOL
 70
0
  9
$DIMLIM
 70
0
  9
$DIMTIH
 70
0
  9
$DIMTOH
 70
0
  9
$DIMSE1
 70
0
  9
$DIMSE2
 70
0
  9
$DIMTAD
 70
1
  9
$DIMZIN
 70
8
  9
$DIMBLK
  1

  9
$DIMASO
 70
1
  9
$DIMSHO
 70
1
  9
$DIMPOST
  1

  9
$DIMAPOST
  1

  9
$DIMALT
 70
0
  9
$DIMALTD
 70
3
  9
$DIMALTF
 40
0.03937007874
  9
$DIMLFAC
 40
1.0
  9
$DIMTOFL
 70
1
  9
$DIMTVP
 40
0.0
  9
$DIMTIX
 70
0
  9
$DIMSOXD
 70
0
  9
$DIMSAH
 70
0
  9
$DIMBLK1
  1

  9
$DIMBLK2
  1

  9
$DIMSTYLE
  2
ISO-25
  9
$DIMCLRD
 70
0
  9
$DIMCLRE
 70
0
  9
$DIMCLRT
 70
0
  9
$DIMTFAC
 40
1.0
  9
$DIMGAP
 40
0.625
  9
$DIMJUST
 70
0
  9
$DIMSD1
 70
0
  9
$DIMSD2
 70
0
  9
$DIMTOLJ
 70
0
  9
$DIMTZIN
 70
8
  9
$DIMALTZ
 70
0
  9
$DIMALTTZ
 70
0
  9
$DIMUPT
 70
0
  9
$DIMDEC
 70
2
  9
$DIMTDEC
 70
2
  9
$DIMALTU
 70
2
  9
$DIMALTTD
 70
3
  9
$DIMTXSTY
  7
Standard
  9
$DIMAUNIT
 70
0
  9
$DIMADEC
 70
0
  9
$DIMALTRND
 40
0.0
  9
$DIMAZIN
 70
0
  9
$DIMDSEP
 70
44
  9
$DIMATFIT
 70
3
  9
$DIMFRAC
 70
0
  9
$DIMLDRBLK
  1

  9
$DIMLUNIT
 70
2
  9
$DIMLWD
 70
-2
  9
$DIMLWE
 70
-2
  9
$DIMTMOVE
 70
0
  9
$DIMFXL
 40
1.0
  9
$DIMFXLON
 70
0
  9
$DIMJOGANG
 40
0.785398163397
  9
$DIMTFILL
 70
0
  9
$DIMTFILLCLR
 70
0
  9
$DIMARCSYM
 70
0
  9
$DIMLTYPE
  6

  9
$DIMLTEX1
  6

  9
$DIMLTEX2
  6

  9
$DIMTXTDIRECTION
 70
0
  9
$LUNITS
 70
2
  9
$LUPREC
 70
4
  9
$SKETCHINC
 40
1.0
  9
$FILLETRAD
 40
10.0
  9
$AUNITS
 70
0
  9
$AUPREC
 70
2
  9
$MENU
  1
.
  9
$ELEVATION
 40
0.0
  9
$PELEVATION
 40
0.0
  9
$THICKNESS
 40
0.0
  9
$LIMCHECK
 70
0
  9
$CHAMFERA
 40
0.0
  9
$CHAMFERB
 40
0.0
  9
$CHAMFERC
 40
0.0
  9
$CHAMFERD
 40
0.0
  9
$SKPOLY
 70
0
  9
$TDCREATE
 40
2461256.642916667
  9
$TDUCREATE
 40
2458532.153996898
  9
$TDUPDATE
 40
2461256.642916667
  9
$TDUUPDATE
 40
2458532.1544311
  9
$TDINDWG
 40
0.0
  9
$TDUSRTIMER
 40
0.0
  9
$USRTIMER
 70
1
  9
$ANGBASE
 50
0.0
  9
$ANGDIR
 70
0
  9
$PDMODE
 70
0
  9
$PDSIZE
 40
0.0
  9
$PLINEWID
 40
0.0
  9
$SPLFRAME
 70
0
  9
$SPLINETYPE
 70
6
  9
$SPLINESEGS
 70
8
  9
$HANDSEED
  5
5F
  9
$SURFTAB1
 70
6
  9
$SURFTAB2
 70
6
  9
$SURFTYPE
 70
6
  9
$SURFU
 70
6
  9
$SURFV
 70
6
  9
$UCSBASE
  2

  9
$UCSNAME
  2

  9
$UCSORG
 10
0.0
 20
0.0
 30
0.0
  9
$UCSXDIR
 10
1.0
 20
0.0
 30
0.0
  9
$UCSYDIR
 10
0.0
 20
1.0
 30
0.0
  9
$UCSORTHOREF
  2

  9
$UCSORTHOVIEW
 70
0
  9
$UCSORGTOP
 10
0.0
 20
0.0
 30
0.0
  9
$UCSORGBOTTOM
 10
0.0
 20
0.0
 30
0.0
  9
$UCSORGLEFT
 10
0.0
 20
0.0
 30
0.0
  9
$UCSORGRIGHT
 10
0.0
 20
0.0
 30
0.0
  9
$UCSORGFRONT
 10
0.0
 20
0.0
 30
0.0
  9
$UCSORGBACK
 10
0.0
 20
0.0
 30
0.0
  9
$PUCSBASE
  2

  9
$PUCSNAME
  2

  9
$PUCSORG
 10
0.0
 20
0.0
 30
0.0
  9
$PUCSXDIR
 10
1.0
 20
0.0
 30
0.0
  9
$PUCSYDIR
 10
0.0
 20
1.0
 30
0.0
  9
$PUCSORTHOREF
  2

  9
$PUCSORTHOVIEW
 70
0
  9
$PUCSORGTOP
 10
0.0
 20
0.0
 30
0.0
  9
$PUCSORGBOTTOM
 10
0.0
 20
0.0
 30
0.0
  9
$PUCSORGLEFT
 10
0.0
 20
0.0
 30
0.0
  9
$PUCSORGRIGHT
 10
0.0
 20
0.0
 30
0.0
  9
$PUCSORGFRONT
 10
0.0
 20
0.0
 30
0.0
  9
$PUCSORGBACK
 10
0.0
 20
0.0
 30
0.0
  9
$USERI1
 70
0
  9
$USERI2
 70
0
  9
$USERI3
 70
0
  9
$USERI4
 70
0
  9
$USERI5
 70
0
  9
$USERR1
 40
0.0
  9
$USERR2
 40
0.0
  9
$USERR3
 40
0.0
  9
$USERR4
 40
0.0
  9
$USERR5
 40
0.0
  9
$WORLDVIEW
 70
1
  9
$SHADEDGE
 70
3
  9
$SHADEDIF
 70
70
  9
$TILEMODE
 70
1
  9
$MAXACTVP
 70
64
  9
$PINSBASE
 10
0.0
 20
0.0
 30
0.0
  9
$PLIMCHECK
 70
0
  9
$PEXTMIN
 10
1e+20
 20
1e+20
 30
1e+20
  9
$PEXTMAX
 10
-1e+20
 20
-1e+20
 30
-1e+20
  9
$PLIMMIN
 10
0.0
 20
0.0
  9
$PLIMMAX
 10
420.0
 20
297.0
  9
$UNITMODE
 70
0
  9
$VISRETAIN
 70
1
  9
$PLINEGEN
 70
0
  9
$PSLTSCALE
 70
1
  9
$TREEDEPTH
 70
3020
  9
$CMLSTYLE
  2
Standard
  9
$CMLJUST
 70
0
  9
$CMLSCALE
 40
20.0
  9
$PROXYGRAPHICS
 70
1
  9
$MEASUREMENT
 70
1
  9
$CELWEIGHT
370
-1
  9
$ENDCAPS
280
0
  9
$JOINSTYLE
280
0
  9
$LWDISPLAY
290
0
  9
$INSUNITS
 70
4
  9
$HYPERLINKBASE
  1

  9
$STYLESHEET
  1

  9
$XEDIT
290
1
  9
$CEPSNTYPE
380
0
  9
$PSTYLEMODE
290
1
  9
$FINGERPRINTGUID
  2
{37335A7E-CCC4-4524-A601-3B6876EFD221}
  9
$VERSIONGUID
  2
{00F53337-B2E9-454C-971E-23326F395FE4}
  9
$EXTNAMES
290
1
  9
$PSVPSCALE
 40
0.0
  9
$OLESTARTUP
290
0
  9
$SORTENTS
280
127
  9
$INDEXCTL
280
0
  9
$HIDETEXT
280
1
  9
$XCLIPFRAME
280
1
  9
$HALOGAP
280
0
  9
$OBSCOLOR
 70
257
  9
$OBSLTYPE
280
0
  9
$INTERSECTIONDISPLAY
280
0
  9
$INTERSECTIONCOLOR
 70
257
  9
$DIMASSOC
280
2
  9
$PROJECTNAME
  1

  9
$CAMERADISPLAY
290
0
  9
$LENSLENGTH
 40
50.0
  9
$CAMERAHEIGHT
 40
0.0
  9
$STEPSPERSEC
 40
24.0
  9
$STEPSIZE
 40
100.0
  9
$3DDWFPREC
 40
2.0
  9
$PSOLWIDTH
 40
0.005
  9
$PSOLHEIGHT
 40
0.08
  9
$LOFTANG1
 40
1.570796326795
  9
$LOFTANG2
 40
1.570796326795
  9
$LOFTMAG1
 40
0.0
  9
$LOFTMAG2
 40
0.0
  9
$LOFTPARAM
 70
7
  9
$LOFTNORMALS
280
1
  9
$LATITUDE
 40
37.795
  9
$LONGITUDE
 40
-122.394
  9
$NORTHDIRECTION
 40
0.0
  9
$TIMEZONE
 70
-8000
  9
$LIGHTGLYPHDISPLAY
280
1
  9
$TILEMODELIGHTSYNCH
280
1
  9
$CMATERIAL
347
20
  9
$SOLIDHIST
280
0
  9
$SHOWHIST
280
1
  9
$DWFFRAME
280
2
  9
$DGNFRAME
280
2
  9
$REALWORLDSCALE
290
1
  9
$INTERFERECOLOR
 62
256
  9
$CSHADOW
280
0
  9
$SHADOWPLANELOCATION
 40
0.0
  0
ENDSEC
  0
SECTION
  2
CLASSES
  0
CLASS
  1
ACDBDICTIONARYWDFLT
  2
AcDbDictionaryWithDefault
  3
ObjectDBX Classes
 90
0
 91
0
280
0
281
0
  0
CLASS
  1
SUN
  2
AcDbSun
  3
SCENEOE
 90
1153
 91
0
280
0
281
0
  0
CLASS
  1
VISUALSTYLE
  2
AcDbVisualStyle
  3
ObjectDBX Classes
 90
4095
 91
0
280
0
281
0
  0
CLASS
  1
MATERIAL
  2
AcDbMaterial
  3
ObjectDBX Classes
 90
1153
 91
0
280
0
281
0
  0
CLASS
  1
SCALE
  2
AcDbScale
  3
ObjectDBX Classes
 90
1153
 91
0
280
0
281
0
  0
CLASS
  1
TABLESTYLE
  2
AcDbTableStyle
  3
ObjectDBX Classes
 90
4095
 91
0
280
0
281
0
  0
CLASS
  1
MLEADERSTYLE
  2
AcDbMLeaderStyle
  3
ACDB_MLEADERSTYLE_CLASS
 90
4095
 91
0
280
0
281
0
  0
CLASS
  1
DICTIONARYVAR
  2
AcDbDictionaryVar
  3
ObjectDBX Classes
 90
0
 91
0
280
0
281
0
  0
CLASS
  1
CELLSTYLEMAP
  2
AcDbCellStyleMap
  3
ObjectDBX Classes
 90
1152
 91
0
280
0
281
0
  0
CLASS
  1
MENTALRAYRENDERSETTINGS
  2
AcDbMentalRayRenderSettings
  3
SCENEOE
 90
1024
 91
0
280
0
281
0
  0
CLASS
  1
ACDBDETAILVIEWSTYLE
  2
AcDbDetailViewStyle
  3
ObjectDBX Classes
 90
1025
 91
0
280
0
281
0
  0
CLASS
  1
ACDBSECTIONVIEWSTYLE
  2
AcDbSectionViewStyle
  3
ObjectDBX Classes
 90
1025
 91
0
280
0
281
0
  0
CLASS
  1
RASTERVARIABLES
  2
AcDbRasterVariables
  3
ISM
 90
0
 91
0
280
0
281
0
  0
CLASS
  1
LAYOUT
  2
AcDbLayout
  3
ObjectDBX Classes
 90
0
 91
0
280
0
281
0
  0
CLASS
  1
ACDBPLACEHOLDER
  2
AcDbPlaceHolder
  3
ObjectDBX Classes
 90
0
 91
0
280
0
281
0
  0
ENDSEC
  0
SECTION
  2
TABLES
  0
TABLE
  2
VPORT
  5
8
330
0
100
AcDbSymbolTable
 70
1
  0
VPORT
  5
23
330
8
100
AcDbSymbolTableRecord
100
AcDbViewportTableRecord
  2
*Active
 70
0
 10
0.0
 20
0.0
 11
1.0
 21
1.0
 12
0.0
 22
0.0
 13
0.0
 23
0.0
 14
0.5
 24
0.5
 15
0.5
 25
0.5
 16
0.0
 26
0.0
 36
1.0
 17
0.0
 27
0.0
 37
0.0
 40
1000.0
 41
1.34
 42
50.0
 43
0.0
 44
0.0
 50
0.0
 51
0.0
 71
0
 72
1000
 73
1
 74
3
 75
0
 76
0
 77
0
 78
0
281
0
 65
0
146
0.0
  0
ENDTAB
  0
TABLE
  2
LTYPE
  5
2
330
0
100
AcDbSymbolTable
 70
3
  0
LTYPE
  5
24
330
2
100
AcDbSymbolTableRecord
100
AcDbLinetypeTableRecord
  2
ByBlock
 70
0
  3

 72
65
 73
0
 40
0.0
  0
LTYPE
  5
25
330
2
100
AcDbSymbolTableRecord
100
AcDbLinetypeTableRecord
  2
ByLayer
 70
0
  3

 72
65
 73
0
 40
0.0
  0
LTYPE
  5
26
330
2
100
AcDbSymbolTableRecord
100
AcDbLinetypeTableRecord
  2
Continuous
 70
0
  3

 72
65
 73
0
 40
0.0
  0
ENDTAB
  0
TABLE
  2
LAYER
  5
1
330
0
100
AcDbSymbolTable
 70
7
  0
LAYER
  5
27
330
1
100
AcDbSymbolTableRecord
100
AcDbLayerTableRecord
  2
0
 70
0
 62
7
  6
Continuous
370
-3
390
13
347
21
  0
LAYER
  5
28
330
1
100
AcDbSymbolTableRecord
100
AcDbLayerTableRecord
  2
Defpoints
 70
0
 62
7
  6
Continuous
290
0
370
-3
390
13
347
21
  0
LAYER
  5
2F
330
1
100
AcDbSymbolTableRecord
100
AcDbLayerTableRecord
  2
ENG_L
 70
0
 62
4
  6
Continuous
370
-3
390
13
347
21
  0
LAYER
  5
30
330
1
100
AcDbSymbolTableRecord
100
AcDbLayerTableRecord
  2
ENG_D
 70
0
 62
3
  6
Continuous
370
-3
390
13
347
21
  0
LAYER
  5
31
330
1
100
AcDbSymbolTableRecord
100
AcDbLayerTableRecord
  2
ENG_K
 70
0
 62
2
  6
Continuous
370
-3
390
13
347
21
  0
LAYER
  5
32
330
1
100
AcDbSymbolTableRecord
100
AcDbLayerTableRecord
  2
CUT_OUTLINE
 70
0
 62
5
  6
Continuous
370
-3
390
13
347
21
  0
LAYER
  5
33
330
1
100
AcDbSymbolTableRecord
100
AcDbLayerTableRecord
  2
CUT_SLOT
 70
0
 62
1
  6
Continuous
370
-3
390
13
347
21
  0
ENDTAB
  0
TABLE
  2
STYLE
  5
5
330
0
100
AcDbSymbolTable
 70
1
  0
STYLE
  5
29
330
5
100
AcDbSymbolTableRecord
100
AcDbTextStyleTableRecord
  2
Standard
 70
0
 40
0.0
 41
1.0
 50
0.0
 71
0
 42
2.5
  3
txt
  4

  0
ENDTAB
  0
TABLE
  2
VIEW
  5
7
330
0
100
AcDbSymbolTable
 70
0
  0
ENDTAB
  0
TABLE
  2
UCS
  5
6
330
0
100
AcDbSymbolTable
 70
0
  0
ENDTAB
  0
TABLE
  2
APPID
  5
3
330
0
100
AcDbSymbolTable
 70
3
  0
APPID
  5
2A
330
3
100
AcDbSymbolTableRecord
100
AcDbRegAppTableRecord
  2
ACAD
 70
0
  0
APPID
  5
5C
330
3
100
AcDbSymbolTableRecord
100
AcDbRegAppTableRecord
  2
HATCHBACKGROUNDCOLOR
 70
0
  0
APPID
  5
5D
330
3
100
AcDbSymbolTableRecord
100
AcDbRegAppTableRecord
  2
EZDXF
 70
0
  0
ENDTAB
  0
TABLE
  2
DIMSTYLE
  5
4
330
0
100
AcDbSymbolTable
 70
1
100
AcDbDimStyleTable
  0
DIMSTYLE
105
2B
330
4
100
AcDbSymbolTableRecord
100
AcDbDimStyleTableRecord
  2
Standard
 70
0
 40
1.0
 41
2.5
 42
0.625
 43
3.75
 44
1.25
 45
0.0
 46
0.0
 47
0.0
 48
0.0
 49
2.5
140
2.5
141
2.5
142
0.0
143
0.03937007874
144
1.0
145
0.0
146
1.0
147
0.625
148
0.0
 69
0
 70
0
 71
0
 72
0
 73
0
 74
0
 75
0
 76
0
 77
1
 78
8
 79
3
170
0
171
3
172
1
173
0
174
0
175
0
176
0
177
0
178
0
179
2
271
2
272
2
273
2
274
3
275
0
276
0
277
2
278
44
279
0
280
0
281
0
282
0
283
0
284
8
285
0
286
0
288
0
289
3
290
0
371
-2
372
-2
  0
ENDTAB
  0
TABLE
  2
BLOCK_RECORD
  5
9
330
0
100
AcDbSymbolTable
 70
2
  0
BLOCK_RECORD
  5
17
330
9
100
AcDbSymbolTableRecord
100
AcDbBlockTableRecord
  2
*Model_Space
340
1A
 70
0
280
1
281
0
  0
BLOCK_RECORD
  5
1B
330
9
100
AcDbSymbolTableRecord
100
AcDbBlockTableRecord
  2
*Paper_Space
340
1E
 70
0
280
1
281
0
  0
ENDTAB
  0
ENDSEC
  0
SECTION
  2
BLOCKS
  0
BLOCK
  5
18
330
17
100
AcDbEntity
  8
0
100
AcDbBlockBegin
  2
*Model_Space
 70
0
 10
0.0
 20
0.0
 30
0.0
  3
*Model_Space
  1

  0
ENDBLK
  5
19
330
17
100
AcDbEntity
  8
0
100
AcDbBlockEnd
  0
BLOCK
  5
1C
330
1B
100
AcDbEntity
  8
0
100
AcDbBlockBegin
  2
*Paper_Space
 70
0
 10
0.0
 20
0.0
 30
0.0
  3
*Paper_Space
  1

  0
ENDBLK
  5
1D
330
1B
100
AcDbEntity
  8
0
100
AcDbBlockEnd
  0
ENDSEC
  0
SECTION
  2
ENTITIES
  0
LWPOLYLINE
  5
34
330
17
100
AcDbEntity
  8
ENG_L
100
AcDbPolyline
 90
5
 70
1
 10
245.21368414466977
 20
3.31412938514164
 10
245.86605307173204
 20
2.6617604580795318
 10
243.63280391563006
 20
2.3427248643507204
 10
242.98043498856788
 20
2.9950937914128284
 10
245.21368414466977
 20
3.31412938514164
  0
LWPOLYLINE
  5
35
330
17
100
AcDbEntity
  8
ENG_L
100
AcDbPolyline
 90
6
 70
1
 10
243.0515030952205
 20
23.098821518760527
 10
244.28517284269225
 20
23.098821518760527
 10
245.27477795200832
 20
22.10921640944441
 10
243.7444462249003
 20
21.19101737317952
 10
242.73709876352908
 20
21.52679986030337
 10
243.0515030952205
 20
23.098821518760527
  0
LWPOLYLINE
  5
36
330
17
100
AcDbEntity
  8
ENG_L
100
AcDbPolyline
 90
5
 70
1
 10
243.14807858534152
 20
5.323116258459271
 10
244.36630397493965
 20
5.729191388325283
 10
244.71075456725995
 20
4.006938426723838
 10
243.80616750120925
 20
4.006938426723838
 10
243.14807858534152
 20
5.323116258459271
  0
LWPOLYLINE
  5
37
330
17
100
AcDbEntity
  8
ENG_L
100
AcDbPolyline
 90
14
 70
1
 10
235.37480696062158
 20
6.727402237047375
 10
237.1659840850066
 20
7.085637661924382
 10
238.50065483738175
 20
6.1958571603409895
 10
238.53068752026203
 20
6.225889843221255
 10
238.53068752026203
 20
6.973436738927696
 10
237.61756940949223
 20
7.886554849697469
 10
237.09061406043904
 20
9.467420896856925
 10
238.40939091910178
 20
11.31370849898472
 10
239.0776263785193
 20
11.31370849898472
 10
240.83664524457322
 20
10.057266451803383
 10
241.3522867343578
 20
9.025983472234156
 10
241.86181623484885
 20
4.949747468305898
 10
237.74501331894368
 20
4.949747468305898
 10
235.37480696062158
 20
6.727402237047375
  0
LWPOLYLINE
  5
38
330
17
100
AcDbEntity
  8
ENG_L
100
AcDbPolyline
 90
24
 70
1
 10
223.3000708467994
 20
101.82337649086293
 10
221.0433281431605
 20
101.82337649086293
 10
218.68630553920534
 20
102.766185532445
 10
216.30938929645188
 20
102.766185532445
 10
214.96046148071045
 20
103.57554222188992
 10
214.96046148071045
 20
104.82168819297732
 10
218.56454107952186
 20
106.02304805924778
 10
219.04596064216352
 20
106.98588718453107
 10
221.91827346814398
 20
107.4646059888611
 10
222.87670726122016
 20
108.42303978193735
 10
223.8615056198362
 20
108.42303978193735
 10
226.79211463047682
 20
109.88834428725758
 10
227.31461009421508
 20
109.3658488235194
 10
226.37180105263303
 20
108.42303978193735
 10
226.74557450048624
 20
108.04926633408407
 10
226.74557450048624
 20
107.06446797546798
 10
228.56264689077167
 20
103.43032319489708
 10
229.03893610256642
 20
103.27156012429883
 10
229.62079769296653
 20
103.8534217146988
 10
230.5168106668145
 20
102.36006675828557
 10
230.5168106668145
 20
100.78293637634295
 10
229.6548986426838
 20
99.9210243522124
 10
223.76000585007387
 20
100.90350648431401
 10
223.3000708467994
 20
101.82337649086293
  0
LWPOLYLINE
  5
39
330
17
100
AcDbEntity
  8
ENG_L
100
AcDbPolyline
 90
44
 70
1
 10
121.95171867917672
 20
152.24932712623118
 10
123.85310221601242
 20
152.46059196365735
 10
123.08764480610327
 20
153.99150678347573
 10
121.56221289018067
 20
155.08110100913464
 10
118.43364582966008
 20
154.63416285763176
 10
117.85113019775793
 20
154.05164722572962
 10
117.85113019775793
 20
153.30410033002318
 10
118.46585889444226
 20
152.68937163333885
 10
120.70872220456496
 20
151.44333646104846
 10
120.40138243466491
 20
149.9066376115482
 10
112.94385535689577
 20
149.9066376115482
 10
112.67826445609296
 20
151.23459211556224
 10
111.25146690668349
 20
153.61258803124466
 10
111.25146690668349
 20
155.92161201887666
 10
108.91001422515684
 20
157.79477416409804
 10
108.43651982011059
 20
161.10923499942186
 10
107.38259966741741
 20
162.163155152115
 10
106.40396934663593
 20
162.163155152115
 10
105.54666160160325
 20
163.5920013938361
 10
107.0817423988963
 20
165.6387757902268
 10
109.76861668410832
 20
167.34860488081625
 10
112.56804939611872
 20
167.34860488081625
 10
113.03945391690975
 20
167.82000940160736
 10
120.80085392366439
 20
167.82000940160736
 10
122.0937708848772
 20
166.00992565590934
 10
122.0937708848772
 20
165.04722403276494
 10
123.43943875437164
 20
162.35588829377602
 10
124.9221980096234
 20
161.86163520869212
 10
124.9221980096234
 20
160.84657266267965
 10
125.53322292038624
 20
160.23554775191673
 10
127.33486236948241
 20
159.3347280273687
 10
129.87194547792924
 20
159.3347280273687
 10
129.87194547792924
 20
158.49416889404512
 10
128.69343417595164
 20
157.78706211285854
 10
128.69343417595164
 20
154.05164722572962
 10
128.25206233804084
 20
153.61027538781892
 10
126.83784877566778
 20
154.55308442940097
 10
126.38750251494366
 20
154.1027381686768
 10
126.84807884559818
 20
153.1815855073677
 10
125.44155358600229
 20
151.30621849457327
 10
126.86890990012608
 20
148.92729130436678
 10
125.90362733235813
 20
147.96200873659893
 10
121.06137365844192
 20
150.76541875833982
 10
121.95171867917672
 20
152.24932712623118
  0
LWPOLYLINE
  5
3A
330
17
100
AcDbEntity
  8
ENG_L
100
AcDbPolyline
 90
6
 70
1
 10
126.7426282770271
 20
149.98137148716518
 10
128.7641905212079
 20
151.4253445187228
 10
129.6973370248723
 20
149.87010034594883
 10
128.2856906570356
 20
148.4584539781122
 10
127.34776630645722
 20
148.7710954283049
 10
126.7426282770271
 20
149.98137148716518
  0
LWPOLYLINE
  5
3B
330
17
100
AcDbEntity
  8
ENG_D
100
AcDbPolyline
 90
43
 70
1
 10
236.15154748325605
 20
6.675176930961424
 10
238.13079609700875
 20
5.190740470646826
 10
241.31098613810246
 20
5.402753140053118
 10
240.44225910057253
 20
9.746388327702693
 10
238.336073854986
 20
10.916491241917402
 10
238.03709693705423
 20
11.81342199571278
 10
238.86863968891583
 20
13.19932658214884
 10
240.51393667636398
 20
13.19932658214884
 10
240.8877101242172
 20
12.825553134295674
 10
241.33378517557557
 20
13.271628185653972
 10
240.87360045252902
 20
15.11236707784036
 10
241.83051916579925
 20
17.02620450438097
 10
241.83051916579925
 20
20.33568014064602
 10
242.63987585524407
 20
21.68460795638738
 10
243.66049549305973
 20
21.68460795638738
 10
245.7723602933652
 20
22.740540356540272
 10
246.05458686547837
 20
21.32940749597434
 10
246.64219544664743
 20
20.741798914805322
 10
250.3810862866695
 20
20.741798914805322
 10
252.01086335511718
 20
19.76393267373677
 10
249.90292249549196
 20
18.860529448183172
 10
247.77417809033798
 20
18.66700722953274
 10
248.90158697766475
 20
17.539598342205977
 10
248.90158697766475
 20
15.702021194253678
 10
249.81106580955418
 20
15.24728177830903
 10
250.3411300094705
 20
13.127024978643709
 10
249.94202709218462
 20
12.727922061357866
 10
251.3738877401382
 20
12.727922061357866
 10
253.13543658904115
 20
10.463073541339686
 10
253.60785745224774
 20
6.211285772480646
 10
254.66062912522764
 20
4.632128263010737
 10
252.26249521377537
 20
3.2998316455372656
 10
246.7802666341051
 20
3.2998316455372656
 10
246.7802666341051
 20
2.3570226039552056
 10
245.50412425918972
 20
2.3570226039552056
 10
245.03271973839867
 20
2.82842712474618
 10
243.8137683219012
 20
2.82842712474618
 10
243.32220210175768
 20
2.336860904602722
 10
241.5881352442246
 20
2.6836742761092713
 10
242.20429261365248
 20
3.2998316455372656
 10
236.4650410308937
 20
3.2998316455372656
 10
235.67457556666616
 20
6.198205014371516
 10
236.15154748325605
 20
6.675176930961424
  0
LWPOLYLINE
  5
3C
330
17
100
AcDbEntity
  8
ENG_D
100
AcDbPolyline
 90
13
 70
1
 10
249.74676494630896
 20
12.727922061357866
 10
248.3325513839359
 20
14.142135623731011
 10
248.75715983699286
 20
14.56674407678793
 10
247.95877793608267
 20
15.045773217334023
 10
247.1256342939501
 20
14.545887032054505
 10
248.5325381777409
 20
12.670015187000061
 10
246.99224468717165
 20
11.643152859953986
 10
246.56987562546863
 20
9.531307551438717
 10
247.93329911747986
 20
8.55743362857353
 10
248.4301824568737
 20
9.054316967967434
 10
248.4301824568737
 20
11.882744092713615
 10
249.27536042551793
 20
12.727922061357866
 10
249.74676494630896
 20
12.727922061357866
  0
LWPOLYLINE
  5
3D
330
17
100
AcDbEntity
  8
ENG_D
100
AcDbPolyline
 90
5
 70
1
 10
244.04278892111753
 20
4.485024608693933
 10
244.15131232590218
 20
5.0276416326172635
 10
243.86520844746337
 20
5.123009592096883
 10
243.75010732002616
 20
4.777706209785348
 10
244.04278892111753
 20
4.485024608693933
  0
LWPOLYLINE
  5
3E
330
17
100
AcDbEntity
  8
ENG_D
100
AcDbPolyline
 90
4
 70
1
 10
252.43712088359743
 20
20.603727727347643
 10
253.24185873772188
 20
19.79898987322337
 10
252.43712088359743
 20
18.994252019098766
 10
252.43712088359743
 20
20.603727727347643
  0
LWPOLYLINE
  5
3F
330
17
100
AcDbEntity
  8
ENG_D
100
AcDbPolyline
 90
5
 70
1
 10
244.90133021212006
 20
22.95406867012362
 10
243.16726335458702
 20
22.60725529861707
 10
242.53094428580664
 20
23.243574367397322
 10
244.2650111433398
 20
23.590387738904095
 10
244.90133021212006
 20
22.95406867012362
  0
LWPOLYLINE
  5
40
330
17
100
AcDbEntity
  8
ENG_D
100
AcDbPolyline
 90
5
 70
1
 10
237.19980729122224
 20
3.31412938514164
 10
237.85217621828443
 20
2.6617604580795318
 10
235.6189270621825
 20
2.3427248643507204
 10
234.96655813512035
 20
2.9950937914128284
 10
237.19980729122224
 20
3.31412938514164
  0
LWPOLYLINE
  5
41
330
17
100
AcDbEntity
  8
ENG_D
100
AcDbPolyline
 90
4
 70
1
 10
230.28110840641898
 20
100.07582959515648
 10
230.28110840641898
 20
101.68530530340536
 10
231.08584626054332
 20
100.88056744928076
 10
230.28110840641898
 20
100.07582959515648
  0
LWPOLYLINE
  5
42
330
17
100
AcDbEntity
  8
ENG_D
100
AcDbPolyline
 90
4
 70
1
 10
229.80970388562795
 20
99.60442507436551
 10
229.80970388562795
 20
101.21390078261405
 10
230.61444173975232
 20
100.40916292848978
 10
229.80970388562795
 20
99.60442507436551
  0
LWPOLYLINE
  5
43
330
17
100
AcDbEntity
  8
ENG_D
100
AcDbPolyline
 90
5
 70
1
 10
222.0951902944509
 20
107.98560533220913
 10
222.70357055109645
 20
107.37722507556357
 10
221.49646376990987
 20
106.97485614850133
 10
220.8880835132644
 20
107.583236405147
 10
222.0951902944509
 20
107.98560533220913
  0
LWPOLYLINE
  5
44
330
17
100
AcDbEntity
  8
ENG_D
100
AcDbPolyline
 90
19
 70
1
 10
124.87110706667622
 20
151.83879582470283
 10
126.28532062904932
 20
153.253009387076
 10
125.81391610825828
 20
154.19581842865804
 10
126.77778340990726
 20
155.15968573030702
 10
128.19199697228038
 20
154.21687668872497
 10
128.2220296551606
 20
154.24690937160523
 10
128.2220296551606
 20
158.0539668171328
 10
129.8878795091962
 20
159.05347672955418
 10
129.63988587588275
 20
152.35764863009206
 10
131.05045677990682
 20
150.94707772606796
 10
131.05045677990682
 20
149.26534851338891
 10
128.62977317407672
 20
148.4584539781122
 10
128.154431265103
 20
148.93379588708578
 10
129.06730667086492
 20
150.30310899572862
 10
128.2585669207599
 20
150.78835284579162
 10
127.33031155652571
 20
149.8600974815575
 10
127.89629714251919
 20
148.72812630957054
 10
126.42644182424237
 20
148.72812630957054
 10
124.87110706667622
 20
151.83879582470283
  0
LWPOLYLINE
  5
45
330
17
100
AcDbEntity
  8
ENG_D
100
AcDbPolyline
 90
4
 70
1
 10
126.90544716572532
 20
148.49242404917507
 10
126.10070931160097
 20
147.6876861950508
 10
126.10070931160097
 20
149.29716190329933
 10
126.90544716572532
 20
148.49242404917507
  0
LWPOLYLINE
  5
46
330
17
100
AcDbEntity
  8
ENG_D
100
AcDbPolyline
 90
14
 70
1
 10
120.24543487653753
 20
150.16829263503985
 10
119.99675336023525
 20
151.41170021655125
 10
117.37972567696688
 20
153.07708146954025
 10
117.37972567696688
 20
154.24690937160523
 10
118.21142360743782
 20
155.07860730207622
 10
121.68251983799168
 20
155.5744781921553
 10
123.45691956760632
 20
154.30704981385912
 10
124.57708024086128
 20
152.06672846734926
 10
122.20197404165079
 20
151.80282777854802
 10
121.65633643514896
 20
151.2571901720462
 10
121.80870536221114
 20
150.8000833908597
 10
122.76581214339774
 20
150.48104779713088
 10
122.17710421821053
 20
149.89233987194373
 10
120.24543487653753
 20
150.16829263503985
  0
LWPOLYLINE
  5
47
330
17
100
AcDbEntity
  8
ENG_D
100
AcDbPolyline
 90
4
 70
1
 10
111.487169167079
 20
154.01120711120964
 10
112.29190702120336
 20
153.20646925708536
 10
111.487169167079
 20
152.4017314029611
 10
111.487169167079
 20
154.01120711120964
  0
LWPOLYLINE
  5
48
330
17
100
AcDbEntity
  8
ENG_D
100
AcDbPolyline
 90
7
 70
1
 10
110.83173388243496
 20
153.91357603827194
 10
110.33152946467219
 20
155.91439370932292
 10
109.26821775058154
 20
156.9777054234136
 10
109.81177452570759
 20
157.52126219853957
 10
111.72287142747452
 20
156.15619298299188
 10
111.72287142747452
 20
153.91357603827194
 10
110.83173388243496
 20
153.91357603827194
  0
LWPOLYLINE
  5
49
330
17
100
AcDbEntity
  8
ENG_K
100
AcDbPolyline
 90
46
 70
1
 10
245.97552877998075
 20
3.2998316455372656
 10
246.44693330077178
 20
3.77123616632824
 10
252.14034203262852
 20
3.77123616632824
 10
253.9848488082956
 20
4.795962152809863
 10
253.15200239811136
 20
6.0452317680862455
 10
252.6816142197359
 20
10.278725373465637
 10
251.14333142310159
 20
12.256517540566891
 10
249.4706225713936
 20
12.256517540566891
 10
248.90158697766475
 20
11.687481946837996
 10
248.90158697766475
 20
8.859054822091817
 10
247.9842567546855
 20
7.941724599112576
 10
246.04784860115953
 20
9.324873280202484
 10
246.56828858103856
 20
11.927073179597624
 10
247.82451287935848
 20
12.76455604514426
 10
246.483470566371
 20
14.105598358131743
 10
247.38253799039623
 20
15.604044064840394
 10
249.02890898141465
 20
15.055253734500894
 10
249.47062257139356
 20
14.613540144521986
 10
248.99921805060254
 20
14.142135623731011
 10
249.80218023685907
 20
13.339173437474372
 10
249.4063217081484
 20
14.922607552317114
 10
248.4301824568737
 20
15.410677177954412
 10
248.4301824568737
 20
17.344336196330357
 10
246.72916421945428
 20
19.045354433749885
 10
249.78586954300164
 20
19.323236735890426
 10
250.97776032891366
 20
19.83404707270997
 10
250.25051479340615
 20
20.270394394014346
 10
246.44693330077175
 20
20.270394394014346
 10
245.56778526106473
 20
21.149542433721358
 10
245.90327527555039
 20
22.156012477178464
 10
248.0564090090205
 20
22.156012477178464
 10
248.52781352981154
 20
21.68460795638738
 10
249.88978812708015
 20
21.68460795638738
 10
252.36267947354034
 20
20.69545141780327
 10
253.1316436777476
 20
19.413844410791302
 10
254.53986823971692
 20
12.372721600944825
 10
255.02984574794817
 20
11.882744092713615
 10
255.02984574794817
 20
10.46853053034047
 10
255.5012502687392
 20
9.997126009549495
 10
255.5012502687392
 20
8.059268961280619
 10
256.4440593103213
 20
5.702246357325413
 10
256.4440593103213
 20
4.388312695268848
 10
257.38686835190333
 20
3.9169081744777623
 10
257.38686835190333
 20
2.592724864350693
 10
246.68263556116727
 20
2.592724864350693
 10
245.97552877998075
 20
3.2998316455372656
  0
LWPOLYLINE
  5
4A
330
17
100
AcDbEntity
  8
ENG_K
100
AcDbPolyline
 90
11
 70
1
 10
235.6124667325196
 20
6.315683506217362
 10
236.63158939892463
 20
5.2965608398124475
 10
236.85064068994666
 20
3.7632018026582115
 10
243.0849567933057
 20
3.513829158523829
 10
241.9281502387371
 20
2.3570226039552056
 10
237.49024740574217
 20
2.3570226039552056
 10
237.0188428849511
 20
2.82842712474618
 10
235.79989146845364
 20
2.82842712474618
 10
235.29451687659977
 20
2.3230525328923335
 10
234.21521187162244
 20
2.6828208678847387
 10
235.6124667325196
 20
6.315683506217362
  0
LWPOLYLINE
  5
4B
330
17
100
AcDbEntity
  8
ENG_K
100
AcDbPolyline
 90
9
 70
1
 10
240.8877101242172
 20
17.96901354596292
 10
240.8877101242172
 20
19.392871099063957
 10
242.01563471121648
 20
21.27274541072943
 10
242.30565837997554
 20
16.922390379343955
 10
241.37322431669642
 20
15.057522252785782
 10
241.8558486352319
 20
13.127024978643709
 10
240.95137112609217
 20
12.222547469504018
 10
238.43403337743123
 20
13.061660052390955
 10
240.8877101242172
 20
17.96901354596292
  0
LWPOLYLINE
  5
4C
330
17
100
AcDbEntity
  8
ENG_K
100
AcDbPolyline
 90
4
 70
1
 10
230.28110840641898
 20
101.21390078261405
 10
231.66025644612603
 20
99.8347527429071
 10
230.28110840641898
 20
99.3750367296713
 10
230.28110840641898
 20
101.21390078261405
  0
LWPOLYLINE
  5
4D
330
17
100
AcDbEntity
  8
ENG_K
100
AcDbPolyline
 90
5
 70
1
 10
128.9642019590132
 20
149.06683423475775
 10
130.17130874019972
 20
149.46920316181988
 10
130.77968899684527
 20
148.86082290517433
 10
129.57258221565877
 20
148.4584539781122
 10
128.9642019590132
 20
149.06683423475775
  0
LWPOLYLINE
  5
4E
330
17
100
AcDbEntity
  8
ENG_K
100
AcDbPolyline
 90
7
 70
1
 10
129.15894127834088
 20
152.1209369165547
 10
129.4473618942235
 20
159.33145231361945
 10
129.78176577970476
 20
159.33760490293193
 10
130.10026615729848
 20
155.1970999942135
 10
130.5790522591158
 20
154.7183138923963
 10
130.5790522591158
 20
151.4108814261671
 10
129.15894127834088
 20
152.1209369165547
  0
LWPOLYLINE
  5
4F
330
17
100
AcDbEntity
  8
CUT_SLOT
100
AcDbPolyline
 90
5
 70
1
 10
226.24184580818445
 20
0.0
 10
229.8059474233222
 20
0.0
 10
229.8059474233222
 20
141.42135623730957
 10
226.24184580818445
 20
141.42135623730957
 10
226.24184580818445
 20
0.0
  0
LWPOLYLINE
  5
50
330
17
100
AcDbEntity
  8
CUT_SLOT
100
AcDbPolyline
 90
5
 70
1
 10
203.1478350405994
 20
0.0
 10
206.71193665573716
 20
0.0
 10
206.71193665573716
 20
141.42135623730957
 10
203.1478350405994
 20
141.42135623730957
 10
203.1478350405994
 20
0.0
  0
LWPOLYLINE
  5
51
330
17
100
AcDbEntity
  8
CUT_SLOT
100
AcDbPolyline
 90
5
 70
1
 10
180.0538242730144
 20
0.0
 10
183.61792588815217
 20
0.0
 10
183.61792588815217
 20
141.42135623730957
 10
180.0538242730144
 20
141.42135623730957
 10
180.0538242730144
 20
0.0
  0
LWPOLYLINE
  5
52
330
17
100
AcDbEntity
  8
CUT_SLOT
100
AcDbPolyline
 90
5
 70
1
 10
156.95981350542937
 20
0.0
 10
160.52391512056712
 20
0.0
 10
160.52391512056712
 20
141.42135623730957
 10
156.95981350542937
 20
141.42135623730957
 10
156.95981350542937
 20
0.0
  0
LWPOLYLINE
  5
53
330
17
100
AcDbEntity
  8
CUT_SLOT
100
AcDbPolyline
 90
5
 70
1
 10
133.86580273784438
 20
0.0
 10
137.42990435298213
 20
0.0
 10
137.42990435298213
 20
141.42135623730957
 10
133.86580273784438
 20
141.42135623730957
 10
133.86580273784438
 20
0.0
  0
LWPOLYLINE
  5
54
330
17
100
AcDbEntity
  8
CUT_SLOT
100
AcDbPolyline
 90
5
 70
1
 10
110.77179197025933
 20
0.0
 10
114.33589358539709
 20
0.0
 10
114.33589358539709
 20
141.42135623730957
 10
110.77179197025933
 20
141.42135623730957
 10
110.77179197025933
 20
0.0
  0
LWPOLYLINE
  5
55
330
17
100
AcDbEntity
  8
CUT_SLOT
100
AcDbPolyline
 90
5
 70
1
 10
168.5068188892219
 20
0.0
 10
172.07092050435966
 20
0.0
 10
172.07092050435966
 20
141.42135623730957
 10
168.5068188892219
 20
141.42135623730957
 10
168.5068188892219
 20
0.0
  0
LWPOLYLINE
  5
56
330
17
100
AcDbEntity
  8
CUT_SLOT
100
AcDbPolyline
 90
5
 70
1
 10
145.41280812163686
 20
0.0
 10
148.97690973677462
 20
0.0
 10
148.97690973677462
 20
141.42135623730957
 10
145.41280812163686
 20
141.42135623730957
 10
145.41280812163686
 20
0.0
  0
LWPOLYLINE
  5
57
330
17
100
AcDbEntity
  8
CUT_SLOT
100
AcDbPolyline
 90
5
 70
1
 10
122.31879735405188
 20
0.0
 10
125.88289896918964
 20
0.0
 10
125.88289896918964
 20
141.42135623730957
 10
122.31879735405188
 20
141.42135623730957
 10
122.31879735405188
 20
0.0
  0
LWPOLYLINE
  5
58
330
17
100
AcDbEntity
  8
CUT_SLOT
100
AcDbPolyline
 90
5
 70
1
 10
99.22478658646682
 20
0.0
 10
102.78888820160458
 20
0.0
 10
102.78888820160458
 20
141.42135623730957
 10
99.22478658646682
 20
141.42135623730957
 10
99.22478658646682
 20
0.0
  0
LWPOLYLINE
  5
59
330
17
100
AcDbEntity
  8
CUT_SLOT
100
AcDbPolyline
 90
5
 70
1
 10
76.13077581888177
 20
0.0
 10
79.69487743401955
 20
0.0
 10
79.69487743401955
 20
141.42135623730957
 10
76.13077581888177
 20
141.42135623730957
 10
76.13077581888177
 20
0.0
  0
LWPOLYLINE
  5
5A
330
17
100
AcDbEntity
  8
CUT_SLOT
100
AcDbPolyline
 90
5
 70
1
 10
53.03676505129677
 20
0.0
 10
56.600866666434534
 20
0.0
 10
56.600866666434534
 20
141.42135623730957
 10
53.03676505129677
 20
141.42135623730957
 10
53.03676505129677
 20
0.0
  0
LWPOLYLINE
  5
5B
330
17
100
AcDbEntity
  8
CUT_OUTLINE
100
AcDbPolyline
 90
5
 70
1
 10
0.0
 20
0.0
 10
282.842712474619
 20
0.0
 10
282.842712474619
 20
282.84271247461913
 10
0.0
 20
282.84271247461913
 10
0.0
 20
0.0
  0
ENDSEC
  0
SECTION
  2
OBJECTS
  0
DICTIONARY
  5
A
330
0
100
AcDbDictionary
281
1
  3
ACAD_COLOR
350
B
  3
ACAD_GROUP
350
C
  3
ACAD_LAYOUT
350
D
  3
ACAD_MATERIAL
350
E
  3
ACAD_MLEADERSTYLE
350
F
  3
ACAD_MLINESTYLE
350
10
  3
ACAD_PLOTSETTINGS
350
11
  3
ACAD_PLOTSTYLENAME
350
12
  3
ACAD_SCALELIST
350
14
  3
ACAD_TABLESTYLE
350
15
  3
ACAD_VISUALSTYLE
350
16
  3
EZDXF_META
350
2D
  0
DICTIONARY
  5
B
330
A
100
AcDbDictionary
281
1
  0
DICTIONARY
  5
C
330
A
100
AcDbDictionary
281
1
  0
DICTIONARY
  5
D
330
A
100
AcDbDictionary
281
1
  3
Model
350
1A
  3
Layout1
350
1E
  0
DICTIONARY
  5
E
330
A
100
AcDbDictionary
281
1
  3
ByBlock
350
1F
  3
ByLayer
350
20
  3
Global
350
21
  0
DICTIONARY
  5
F
330
A
100
AcDbDictionary
281
1
  3
Standard
350
2C
  0
DICTIONARY
  5
10
330
A
100
AcDbDictionary
281
1
  3
Standard
350
22
  0
DICTIONARY
  5
11
330
A
100
AcDbDictionary
281
1
  0
ACDBDICTIONARYWDFLT
  5
12
330
A
100
AcDbDictionary
281
1
  3
Normal
350
13
100
AcDbDictionaryWithDefault
340
13
  0
ACDBPLACEHOLDER
  5
13
330
12
  0
DICTIONARY
  5
14
330
A
100
AcDbDictionary
281
1
  0
DICTIONARY
  5
15
330
A
100
AcDbDictionary
281
1
  0
DICTIONARY
  5
16
330
A
100
AcDbDictionary
281
1
  0
LAYOUT
  5
1A
330
D
100
AcDbPlotSettings
  1

  4
A3
  6

 40
7.5
 41
20.0
 42
7.5
 43
20.0
 44
420.0
 45
297.0
 46
0.0
 47
0.0
 48
0.0
 49
0.0
140
0.0
141
0.0
142
1.0
143
1.0
 70
1024
 72
1
 73
0
 74
5
  7

 75
16
 76
0
 77
2
 78
300
147
1.0
148
0.0
149
0.0
100
AcDbLayout
  1
Model
 70
1
 71
0
 10
0.0
 20
0.0
 11
420.0
 21
297.0
 12
0.0
 22
0.0
 32
0.0
 14
1e+20
 24
1e+20
 34
1e+20
 15
-1e+20
 25
-1e+20
 35
-1e+20
146
0.0
 13
0.0
 23
0.0
 33
0.0
 16
1.0
 26
0.0
 36
0.0
 17
0.0
 27
1.0
 37
0.0
 76
1
330
17
  0
LAYOUT
  5
1E
330
D
100
AcDbPlotSettings
  1

  4
A3
  6

 40
7.5
 41
20.0
 42
7.5
 43
20.0
 44
420.0
 45
297.0
 46
0.0
 47
0.0
 48
0.0
 49
0.0
140
0.0
141
0.0
142
1.0
143
1.0
 70
0
 72
1
 73
0
 74
5
  7

 75
16
 76
0
 77
2
 78
300
147
1.0
148
0.0
149
0.0
100
AcDbLayout
  1
Layout1
 70
1
 71
1
 10
0.0
 20
0.0
 11
420.0
 21
297.0
 12
0.0
 22
0.0
 32
0.0
 14
1e+20
 24
1e+20
 34
1e+20
 15
-1e+20
 25
-1e+20
 35
-1e+20
146
0.0
 13
0.0
 23
0.0
 33
0.0
 16
1.0
 26
0.0
 36
0.0
 17
0.0
 27
1.0
 37
0.0
 76
1
330
1B
  0
MATERIAL
  5
1F
102
{ACAD_REACTORS
330
E
102
}
330
E
100
AcDbMaterial
  1
ByBlock
  2

 70
0
 40
1.0
 71
1
 41
1.0
 91
-1023410177
 42
1.0
 72
1
  3

 73
1
 74
1
 75
1
 44
0.5
 73
0
 45
1.0
 46
1.0
 77
1
  4

 78
1
 79
1
170
1
 48
1.0
171
1
  6

172
1
173
1
174
1
140
1.0
141
1.0
175
1
  7

176
1
177
1
178
1
143
1.0
179
1
  8

270
1
271
1
272
1
145
1.0
146
1.0
273
1
  9

274
1
275
1
276
1
 42
1.0
 72
1
  3

 73
1
 74
1
 75
1
 94
63
  0
MATERIAL
  5
20
102
{ACAD_REACTORS
330
E
102
}
330
E
100
AcDbMaterial
  1
ByLayer
  2

 70
0
 40
1.0
 71
1
 41
1.0
 91
-1023410177
 42
1.0
 72
1
  3

 73
1
 74
1
 75
1
 44
0.5
 73
0
 45
1.0
 46
1.0
 77
1
  4

 78
1
 79
1
170
1
 48
1.0
171
1
  6

172
1
173
1
174
1
140
1.0
141
1.0
175
1
  7

176
1
177
1
178
1
143
1.0
179
1
  8

270
1
271
1
272
1
145
1.0
146
1.0
273
1
  9

274
1
275
1
276
1
 42
1.0
 72
1
  3

 73
1
 74
1
 75
1
 94
63
  0
MATERIAL
  5
21
102
{ACAD_REACTORS
330
E
102
}
330
E
100
AcDbMaterial
  1
Global
  2

 70
0
 40
1.0
 71
1
 41
1.0
 91
-1023410177
 42
1.0
 72
1
  3

 73
1
 74
1
 75
1
 44
0.5
 73
0
 45
1.0
 46
1.0
 77
1
  4

 78
1
 79
1
170
1
 48
1.0
171
1
  6

172
1
173
1
174
1
140
1.0
141
1.0
175
1
  7

176
1
177
1
178
1
143
1.0
179
1
  8

270
1
271
1
272
1
145
1.0
146
1.0
273
1
  9

274
1
275
1
276
1
 42
1.0
 72
1
  3

 73
1
 74
1
 75
1
 94
63
  0
MLINESTYLE
  5
22
102
{ACAD_REACTORS
330
10
102
}
330
10
100
AcDbMlineStyle
  2
Standard
 70
0
  3

 62
256
 51
90.0
 52
90.0
 71
2
 49
0.5
 62
256
  6
BYLAYER
 49
-0.5
 62
256
  6
BYLAYER
  0
MLEADERSTYLE
  5
2C
102
{ACAD_REACTORS
330
F
102
}
330
F
100
AcDbMLeaderStyle
179
2
170
2
171
1
172
0
 90
2
 40
0.0
 41
0.0
173
1
 91
-1056964608
 92
-2
290
1
 42
2.0
291
1
 43
8.0
  3
Standard
 44
4.0
300

342
29
174
1
175
1
176
0
178
1
 93
-1056964608
 45
4.0
292
0
297
0
 46
4.0
 94
-1056964608
 47
1.0
 49
1.0
140
1.0
294
1
141
0.0
177
0
142
1.0
295
0
296
0
143
3.75
271
0
272
9
273
9
  0
DICTIONARY
  5
2D
330
A
100
AcDbDictionary
280
1
281
1
  3
CREATED_BY_EZDXF
350
2E
  3
WRITTEN_BY_EZDXF
350
5E
  0
DICTIONARYVAR
  5
2E
330
2D
100
DictionaryVariables
280
0
  1
1.4.4 @ 2026-08-03T12:25:48.380172+00:00
  0
DICTIONARYVAR
  5
5E
330
2D
100
DictionaryVariables
280
0
  1
1.4.4 @ 2026-08-03T12:25:48.385193+00:00
  0
ENDSEC
  0
EOF
