  0
SECTION
  2
HEADER
  9
$ACADVER
  1
AC1027
  9
$ACADMAINTVER
 70
105
  9
$DWGCODEPAGE
  3
ANSI_1252
  9
$LASTSAVEDBY
  1
ezdxf
  9
$REQUIREDVERSIONS
160
0
  9
$INSBASE
 10
0.0
 20
0.0
 30
0.0
  9
$EXTMIN
 10
1e+20
 20
1e+20
 30
1e+20
  9
$EXTMAX
 10
-1e+20
 20
-1e+20
 30
-1e+20
  9
$LIMMIN
 10
0.0
 20
0.0
  9
$LIMMAX
 10
420.0
 20
297.0
  9
$ORTHOMODE
 70
0
  9
$REGENMODE
 70
1
  9
$FILLMODE
 70
1
  9
$QTEXTMODE
 70
0
  9
$MIRRTEXT
 70
1
  9
$LTSCALE
 40
1.0
  9
$ATTMODE
 70
1
  9
$TEXTSIZE
 40
2.5
  9
$TRACEWID
 40
1.0
  9
$TEXTSTYLE
  7
Standard
  9
$CLAYER
  8
0
  9
$CELTYPE
  6
ByLayer
  9
$CECOLOR
 62
256
  9
$CELTSCALE
 40
1.0
  9
$DISPSILH
 70
0
  9
$DIMSCALE
 40
1.0
  9
$DIMASZ
 40
2.5
  9
$DIMEXO
 40
0.625
  9
$DIMDLI
 40
3.75
  9
$DIMRND
 40
0.0
  9
$DIMDLE
 40
0.0
  9
$DIMEXE
 40
1.25
  9
$DIMTP
 40
0.0
  9
$DIMTM
 40
0.0
  9
$DIMTXT
 40
2.5
  9
$DIMCEN
 40
2.5
  9
$DIMTSZ
 40
0.0
  9
$DIMTOL
 70
0
  9
$DIMLIM
 70
0
  9
$DIMTIH
 70
0
  9
$DIMTOH
 70
0
  9
$DIMSE1
 70
0
  9
$DIMSE2
 70
0
  9
$DIMTAD
 70
1
  9
$DIMZIN
 70
8
  9
$DIMBLK
  1

  9
$DIMASO
 70
1
  9
$DIMSHO
 70
1
  9
$DIMPOST
  1

  9
$DIMAPOST
  1

  9
$DIMALT
 70
0
  9
$DIMALTD
 70
3
  9
$DIMALTF
 40
0.03937007874
  9
$DIMLFAC
 40
1.0
  9
$DIMTOFL
 70
1
  9
$DIMTVP
 40
0.0
  9
$DIMTIX
 70
0
  9
$DIMSOXD
 70
0
  9
$DIMSAH
 70
0
  9
$DIMBLK1
  1

  9
$DIMBLK2
  1

  9
$DIMSTYLE
  2
ISO-25
  9
$DIMCLRD
 70
0
  9
$DIMCLRE
 70
0
  9
$DIMCLRT
 70
0
  9
$DIMTFAC
 40
1.0
  9
$DIMGAP
 40
0.625
  9
$DIMJUST
 70
0
  9
$DIMSD1
 70
0
  9
$DIMSD2
 70
0
  9
$DIMTOLJ
 70
0
  9
$DIMTZIN
 70
8
  9
$DIMALTZ
 70
0
  9
$DIMALTTZ
 70
0
  9
$DIMUPT
 70
0
  9
$DIMDEC
 70
2
  9
$DIMTDEC
 70
2
  9
$DIMALTU
 70
2
  9
$DIMALTTD
 70
3
  9
$DIMTXSTY
  7
Standard
  9
$DIMAUNIT
 70
0
  9
$DIMADEC
 70
0
  9
$DIMALTRND
 40
0.0
  9
$DIMAZIN
 70
0
  9
$DIMDSEP
 70
44
  9
$DIMATFIT
 70
3
  9
$DIMFRAC
 70
0
  9
$DIMLDRBLK
  1

  9
$DIMLUNIT
 70
2
  9
$DIMLWD
 70
-2
  9
$DIMLWE
 70
-2
  9
$DIMTMOVE
 70
0
  9
$DIMFXL
 40
1.0
  9
$DIMFXLON
 70
0
  9
$DIMJOGANG
 40
0.785398163397
  9
$DIMTFILL
 70
0
  9
$DIMTFILLCLR
 70
0
  9
$DIMARCSYM
 70
0
  9
$DIMLTYPE
  6

  9
$DIMLTEX1
  6

  9
$DIMLTEX2
  6

  9
$DIMTXTDIRECTION
 70
0
  9
$LUNITS
 70
2
  9
$LUPREC
 70
4
  9
$SKETCHINC
 40
1.0
  9
$FILLETRAD
 40
10.0
  9
$AUNITS
 70
0
  9
$AUPREC
 70
2
  9
$MENU
  1
.
  9
$ELEVATION
 40
0.0
  9
$PELEVATION
 40
0.0
  9
$THICKNESS
 40
0.0
  9
$LIMCHECK
 70
0
  9
$CHAMFERA
 40
0.0
  9
$CHAMFERB
 40
0.0
  9
$CHAMFERC
 40
0.0
  9
$CHAMFERD
 40
0.0
  9
$SKPOLY
 70
0
  9
$TDCREATE
 40
2461256.642905093
  9
$TDUCREATE
 40
2458532.153996898
  9
$TDUPDATE
 40
2461256.642905093
  9
$TDUUPDATE
 40
2458532.1544311
  9
$TDINDWG
 40
0.0
  9
$TDUSRTIMER
 40
0.0
  9
$USRTIMER
 70
1
  9
$ANGBASE
 50
0.0
  9
$ANGDIR
 70
0
  9
$PDMODE
 70
0
  9
$PDSIZE
 40
0.0
  9
$PLINEWID
 40
0.0
  9
$SPLFRAME
 70
0
  9
$SPLINETYPE
 70
6
  9
$SPLINESEGS
 70
8
  9
$HANDSEED
  5
17F
  9
$SURFTAB1
 70
6
  9
$SURFTAB2
 70
6
  9
$SURFTYPE
 70
6
  9
$SURFU
 70
6
  9
$SURFV
 70
6
  9
$UCSBASE
  2

  9
$UCSNAME
  2

  9
$UCSORG
 10
0.0
 20
0.0
 30
0.0
  9
$UCSXDIR
 10
1.0
 20
0.0
 30
0.0
  9
$UCSYDIR
 10
0.0
 20
1.0
 30
0.0
  9
$UCSORTHOREF
  2

  9
$UCSORTHOVIEW
 70
0
  9
$UCSORGTOP
 10
0.0
 20
0.0
 30
0.0
  9
$UCSORGBOTTOM
 10
0.0
 20
0.0
 30
0.0
  9
$UCSORGLEFT
 10
0.0
 20
0.0
 30
0.0
  9
$UCSORGRIGHT
 10
0.0
 20
0.0
 30
0.0
  9
$UCSORGFRONT
 10
0.0
 20
0.0
 30
0.0
  9
$UCSORGBACK
 10
0.0
 20
0.0
 30
0.0
  9
$PUCSBASE
  2

  9
$PUCSNAME
  2

  9
$PUCSORG
 10
0.0
 20
0.0
 30
0.0
  9
$PUCSXDIR
 10
1.0
 20
0.0
 30
0.0
  9
$PUCSYDIR
 10
0.0
 20
1.0
 30
0.0
  9
$PUCSORTHOREF
  2

  9
$PUCSORTHOVIEW
 70
0
  9
$PUCSORGTOP
 10
0.0
 20
0.0
 30
0.0
  9
$PUCSORGBOTTOM
 10
0.0
 20
0.0
 30
0.0
  9
$PUCSORGLEFT
 10
0.0
 20
0.0
 30
0.0
  9
$PUCSORGRIGHT
 10
0.0
 20
0.0
 30
0.0
  9
$PUCSORGFRONT
 10
0.0
 20
0.0
 30
0.0
  9
$PUCSORGBACK
 10
0.0
 20
0.0
 30
0.0
  9
$USERI1
 70
0
  9
$USERI2
 70
0
  9
$USERI3
 70
0
  9
$USERI4
 70
0
  9
$USERI5
 70
0
  9
$USERR1
 40
0.0
  9
$USERR2
 40
0.0
  9
$USERR3
 40
0.0
  9
$USERR4
 40
0.0
  9
$USERR5
 40
0.0
  9
$WORLDVIEW
 70
1
  9
$SHADEDGE
 70
3
  9
$SHADEDIF
 70
70
  9
$TILEMODE
 70
1
  9
$MAXACTVP
 70
64
  9
$PINSBASE
 10
0.0
 20
0.0
 30
0.0
  9
$PLIMCHECK
 70
0
  9
$PEXTMIN
 10
1e+20
 20
1e+20
 30
1e+20
  9
$PEXTMAX
 10
-1e+20
 20
-1e+20
 30
-1e+20
  9
$PLIMMIN
 10
0.0
 20
0.0
  9
$PLIMMAX
 10
420.0
 20
297.0
  9
$UNITMODE
 70
0
  9
$VISRETAIN
 70
1
  9
$PLINEGEN
 70
0
  9
$PSLTSCALE
 70
1
  9
$TREEDEPTH
 70
3020
  9
$CMLSTYLE
  2
Standard
  9
$CMLJUST
 70
0
  9
$CMLSCALE
 40
20.0
  9
$PROXYGRAPHICS
 70
1
  9
$MEASUREMENT
 70
1
  9
$CELWEIGHT
370
-1
  9
$ENDCAPS
280
0
  9
$JOINSTYLE
280
0
  9
$LWDISPLAY
290
0
  9
$INSUNITS
 70
4
  9
$HYPERLINKBASE
  1

  9
$STYLESHEET
  1

  9
$XEDIT
290
1
  9
$CEPSNTYPE
380
0
  9
$PSTYLEMODE
290
1
  9
$FINGERPRINTGUID
  2
{86C019E5-5FCC-4083-B769-778C5981439B}
  9
$VERSIONGUID
  2
{37B8663B-2A95-48BA-9A10-90FB5723DC34}
  9
$EXTNAMES
290
1
  9
$PSVPSCALE
 40
0.0
  9
$OLESTARTUP
290
0
  9
$SORTENTS
280
127
  9
$INDEXCTL
280
0
  9
$HIDETEXT
280
1
  9
$XCLIPFRAME
280
1
  9
$HALOGAP
280
0
  9
$OBSCOLOR
 70
257
  9
$OBSLTYPE
280
0
  9
$INTERSECTIONDISPLAY
280
0
  9
$INTERSECTIONCOLOR
 70
257
  9
$DIMASSOC
280
2
  9
$PROJECTNAME
  1

  9
$CAMERADISPLAY
290
0
  9
$LENSLENGTH
 40
50.0
  9
$CAMERAHEIGHT
 40
0.0
  9
$STEPSPERSEC
 40
24.0
  9
$STEPSIZE
 40
100.0
  9
$3DDWFPREC
 40
2.0
  9
$PSOLWIDTH
 40
0.005
  9
$PSOLHEIGHT
 40
0.08
  9
$LOFTANG1
 40
1.570796326795
  9
$LOFTANG2
 40
1.570796326795
  9
$LOFTMAG1
 40
0.0
  9
$LOFTMAG2
 40
0.0
  9
$LOFTPARAM
 70
7
  9
$LOFTNORMALS
280
1
  9
$LATITUDE
 40
37.795
  9
$LONGITUDE
 40
-122.394
  9
$NORTHDIRECTION
 40
0.0
  9
$TIMEZONE
 70
-8000
  9
$LIGHTGLYPHDISPLAY
280
1
  9
$TILEMODELIGHTSYNCH
280
1
  9
$CMATERIAL
347
20
  9
$SOLIDHIST
280
0
  9
$SHOWHIST
280
1
  9
$DWFFRAME
280
2
  9
$DGNFRAME
280
2
  9
$REALWORLDSCALE
290
1
  9
$INTERFERECOLOR
 62
256
  9
$CSHADOW
280
0
  9
$SHADOWPLANELOCATION
 40
0.0
  0
ENDSEC
  0
SECTION
  2
CLASSES
  0
CLASS
  1
ACDBDICTIONARYWDFLT
  2
AcDbDictionaryWithDefault
  3
ObjectDBX Classes
 90
0
 91
0
280
0
281
0
  0
CLASS
  1
SUN
  2
AcDbSun
  3
SCENEOE
 90
1153
 91
0
280
0
281
0
  0
CLASS
  1
VISUALSTYLE
  2
AcDbVisualStyle
  3
ObjectDBX Classes
 90
4095
 91
0
280
0
281
0
  0
CLASS
  1
MATERIAL
  2
AcDbMaterial
  3
ObjectDBX Classes
 90
1153
 91
0
280
0
281
0
  0
CLASS
  1
SCALE
  2
AcDbScale
  3
ObjectDBX Classes
 90
1153
 91
0
280
0
281
0
  0
CLASS
  1
TABLESTYLE
  2
AcDbTableStyle
  3
ObjectDBX Classes
 90
4095
 91
0
280
0
281
0
  0
CLASS
  1
MLEADERSTYLE
  2
AcDbMLeaderStyle
  3
ACDB_MLEADERSTYLE_CLASS
 90
4095
 91
0
280
0
281
0
  0
CLASS
  1
DICTIONARYVAR
  2
AcDbDictionaryVar
  3
ObjectDBX Classes
 90
0
 91
0
280
0
281
0
  0
CLASS
  1
CELLSTYLEMAP
  2
AcDbCellStyleMap
  3
ObjectDBX Classes
 90
1152
 91
0
280
0
281
0
  0
CLASS
  1
MENTALRAYRENDERSETTINGS
  2
AcDbMentalRayRenderSettings
  3
SCENEOE
 90
1024
 91
0
280
0
281
0
  0
CLASS
  1
ACDBDETAILVIEWSTYLE
  2
AcDbDetailViewStyle
  3
ObjectDBX Classes
 90
1025
 91
0
280
0
281
0
  0
CLASS
  1
ACDBSECTIONVIEWSTYLE
  2
AcDbSectionViewStyle
  3
ObjectDBX Classes
 90
1025
 91
0
280
0
281
0
  0
CLASS
  1
RASTERVARIABLES
  2
AcDbRasterVariables
  3
ISM
 90
0
 91
0
280
0
281
0
  0
CLASS
  1
LAYOUT
  2
AcDbLayout
  3
ObjectDBX Classes
 90
0
 91
0
280
0
281
0
  0
CLASS
  1
ACDBPLACEHOLDER
  2
AcDbPlaceHolder
  3
ObjectDBX Classes
 90
0
 91
0
280
0
281
0
  0
ENDSEC
  0
SECTION
  2
TABLES
  0
TABLE
  2
VPORT
  5
8
330
0
100
AcDbSymbolTable
 70
1
  0
VPORT
  5
23
330
8
100
AcDbSymbolTableRecord
100
AcDbViewportTableRecord
  2
*Active
 70
0
 10
0.0
 20
0.0
 11
1.0
 21
1.0
 12
0.0
 22
0.0
 13
0.0
 23
0.0
 14
0.5
 24
0.5
 15
0.5
 25
0.5
 16
0.0
 26
0.0
 36
1.0
 17
0.0
 27
0.0
 37
0.0
 40
1000.0
 41
1.34
 42
50.0
 43
0.0
 44
0.0
 50
0.0
 51
0.0
 71
0
 72
1000
 73
1
 74
3
 75
0
 76
0
 77
0
 78
0
281
0
 65
0
146
0.0
  0
ENDTAB
  0
TABLE
  2
LTYPE
  5
2
330
0
100
AcDbSymbolTable
 70
3
  0
LTYPE
  5
24
330
2
100
AcDbSymbolTableRecord
100
AcDbLinetypeTableRecord
  2
ByBlock
 70
0
  3

 72
65
 73
0
 40
0.0
  0
LTYPE
  5
25
330
2
100
AcDbSymbolTableRecord
100
AcDbLinetypeTableRecord
  2
ByLayer
 70
0
  3

 72
65
 73
0
 40
0.0
  0
LTYPE
  5
26
330
2
100
AcDbSymbolTableRecord
100
AcDbLinetypeTableRecord
  2
Continuous
 70
0
  3

 72
65
 73
0
 40
0.0
  0
ENDTAB
  0
TABLE
  2
LAYER
  5
1
330
0
100
AcDbSymbolTable
 70
7
  0
LAYER
  5
27
330
1
100
AcDbSymbolTableRecord
100
AcDbLayerTableRecord
  2
0
 70
0
 62
7
  6
Continuous
370
-3
390
13
347
21
  0
LAYER
  5
28
330
1
100
AcDbSymbolTableRecord
100
AcDbLayerTableRecord
  2
Defpoints
 70
0
 62
7
  6
Continuous
290
0
370
-3
390
13
347
21
  0
LAYER
  5
2F
330
1
100
AcDbSymbolTableRecord
100
AcDbLayerTableRecord
  2
ENG_L
 70
0
 62
4
  6
Continuous
370
-3
390
13
347
21
  0
LAYER
  5
30
330
1
100
AcDbSymbolTableRecord
100
AcDbLayerTableRecord
  2
ENG_D
 70
0
 62
3
  6
Continuous
370
-3
390
13
347
21
  0
LAYER
  5
31
330
1
100
AcDbSymbolTableRecord
100
AcDbLayerTableRecord
  2
ENG_K
 70
0
 62
2
  6
Continuous
370
-3
390
13
347
21
  0
LAYER
  5
32
330
1
100
AcDbSymbolTableRecord
100
AcDbLayerTableRecord
  2
CUT_OUTLINE
 70
0
 62
5
  6
Continuous
370
-3
390
13
347
21
  0
LAYER
  5
33
330
1
100
AcDbSymbolTableRecord
100
AcDbLayerTableRecord
  2
CUT_SLOT
 70
0
 62
1
  6
Continuous
370
-3
390
13
347
21
  0
ENDTAB
  0
TABLE
  2
STYLE
  5
5
330
0
100
AcDbSymbolTable
 70
1
  0
STYLE
  5
29
330
5
100
AcDbSymbolTableRecord
100
AcDbTextStyleTableRecord
  2
Standard
 70
0
 40
0.0
 41
1.0
 50
0.0
 71
0
 42
2.5
  3
txt
  4

  0
ENDTAB
  0
TABLE
  2
VIEW
  5
7
330
0
100
AcDbSymbolTable
 70
0
  0
ENDTAB
  0
TABLE
  2
UCS
  5
6
330
0
100
AcDbSymbolTable
 70
0
  0
ENDTAB
  0
TABLE
  2
APPID
  5
3
330
0
100
AcDbSymbolTable
 70
3
  0
APPID
  5
2A
330
3
100
AcDbSymbolTableRecord
100
AcDbRegAppTableRecord
  2
ACAD
 70
0
  0
APPID
  5
17C
330
3
100
AcDbSymbolTableRecord
100
AcDbRegAppTableRecord
  2
HATCHBACKGROUNDCOLOR
 70
0
  0
APPID
  5
17D
330
3
100
AcDbSymbolTableRecord
100
AcDbRegAppTableRecord
  2
EZDXF
 70
0
  0
ENDTAB
  0
TABLE
  2
DIMSTYLE
  5
4
330
0
100
AcDbSymbolTable
 70
1
100
AcDbDimStyleTable
  0
DIMSTYLE
105
2B
330
4
100
AcDbSymbolTableRecord
100
AcDbDimStyleTableRecord
  2
Standard
 70
0
 40
1.0
 41
2.5
 42
0.625
 43
3.75
 44
1.25
 45
0.0
 46
0.0
 47
0.0
 48
0.0
 49
2.5
140
2.5
141
2.5
142
0.0
143
0.03937007874
144
1.0
145
0.0
146
1.0
147
0.625
148
0.0
 69
0
 70
0
 71
0
 72
0
 73
0
 74
0
 75
0
 76
0
 77
1
 78
8
 79
3
170
0
171
3
172
1
173
0
174
0
175
0
176
0
177
0
178
0
179
2
271
2
272
2
273
2
274
3
275
0
276
0
277
2
278
44
279
0
280
0
281
0
282
0
283
0
284
8
285
0
286
0
288
0
289
3
290
0
371
-2
372
-2
  0
ENDTAB
  0
TABLE
  2
BLOCK_RECORD
  5
9
330
0
100
AcDbSymbolTable
 70
2
  0
BLOCK_RECORD
  5
17
330
9
100
AcDbSymbolTableRecord
100
AcDbBlockTableRecord
  2
*Model_Space
340
1A
 70
0
280
1
281
0
  0
BLOCK_RECORD
  5
1B
330
9
100
AcDbSymbolTableRecord
100
AcDbBlockTableRecord
  2
*Paper_Space
340
1E
 70
0
280
1
281
0
  0
ENDTAB
  0
ENDSEC
  0
SECTION
  2
BLOCKS
  0
BLOCK
  5
18
330
17
100
AcDbEntity
  8
0
100
AcDbBlockBegin
  2
*Model_Space
 70
0
 10
0.0
 20
0.0
 30
0.0
  3
*Model_Space
  1

  0
ENDBLK
  5
19
330
17
100
AcDbEntity
  8
0
100
AcDbBlockEnd
  0
BLOCK
  5
1C
330
1B
100
AcDbEntity
  8
0
100
AcDbBlockBegin
  2
*Paper_Space
 70
0
 10
0.0
 20
0.0
 30
0.0
  3
*Paper_Space
  1

  0
ENDBLK
  5
1D
330
1B
100
AcDbEntity
  8
0
100
AcDbBlockEnd
  0
ENDSEC
  0
SECTION
  2
ENTITIES
  0
LWPOLYLINE
  5
34
330
17
100
AcDbEntity
  8
ENG_L
100
AcDbPolyline
 90
18
 70
1
 10
227.21697902127727
 20
79.29359056583118
 10
227.21697902127727
 20
76.91030179114433
 10
228.15978806285932
 20
75.4960882287713
 10
228.15978806285932
 20
74.1081408371298
 10
228.63119258365037
 20
73.63673631633883
 10
228.63119258365037
 20
71.88918942063238
 10
227.74005503861082
 20
71.88918942063238
 10
226.76844610005702
 20
75.77562517484748
 10
226.27416997969522
 20
76.26990129520938
 10
226.27416997969522
 20
77.73798128742881
 10
223.91714737574006
 20
83.86624005771226
 10
223.91714737574006
 20
85.22658719023902
 10
223.43144511534456
 20
85.71228945063447
 10
223.8372112480871
 20
88.55265237983245
 10
225.31166533365268
 20
83.53950848890956
 10
226.26044832854404
 20
82.11633399657248
 10
226.72700151304605
 20
79.78356807406229
 10
227.21697902127727
 20
79.29359056583118
  0
LWPOLYLINE
  5
35
330
17
100
AcDbEntity
  8
ENG_L
100
AcDbPolyline
 90
12
 70
1
 10
220.71205726921113
 20
100.05006686276884
 10
221.55230762669936
 20
95.28864817033545
 10
223.44574285494903
 20
90.55506009971137
 10
223.44574285494903
 20
89.19308550244287
 10
223.91714737574006
 20
88.72168098165179
 10
223.91714737574006
 20
87.44553860673643
 10
223.03225004654777
 20
87.44553860673643
 10
221.11456817335645
 20
94.15742516290592
 10
220.61731573020282
 20
94.65467760605961
 10
220.61731573020282
 20
96.09515733916429
 10
219.64326896518062
 20
97.55622748669768
 10
220.71205726921113
 20
100.05006686276884
  0
LWPOLYLINE
  5
36
330
17
100
AcDbEntity
  8
ENG_L
100
AcDbPolyline
 90
5
 70
1
 10
222.2102914977612
 20
77.85408306935315
 10
222.5547420900815
 20
76.13183010775171
 10
221.08872025099384
 20
76.13183010775171
 10
221.08872025099384
 20
77.48022598709747
 10
222.2102914977612
 20
77.85408306935315
  0
LWPOLYLINE
  5
37
330
17
100
AcDbEntity
  8
ENG_L
100
AcDbPolyline
 90
20
 70
1
 10
214.96046148071045
 20
77.58851629756846
 10
214.96046148071045
 20
79.56973294074655
 10
214.0176524391284
 20
80.5125419823286
 10
214.0176524391284
 20
82.59342221136833
 10
214.87956446325907
 20
83.455334235499
 10
217.70799158800529
 20
82.98392971470803
 10
218.16266205330987
 20
83.43860018001259
 10
219.77213776155858
 20
83.43860018001259
 10
220.10927722562533
 20
83.10146071594582
 10
221.05208626720741
 20
84.51567427831885
 10
222.03152929257593
 20
83.53623125295051
 10
222.03152929257593
 20
82.39816006549272
 10
221.08872025099384
 20
81.45535102391077
 10
220.65394971398928
 20
81.89012156091535
 10
219.8200762596988
 20
80.63931137947966
 10
217.90939127796526
 20
80.16164013404614
 10
217.3174840846656
 20
79.56973294074655
 10
217.3174840846656
 20
78.15551937837351
 10
216.45214441666892
 20
77.29017971037678
 10
214.96046148071045
 20
77.58851629756846
  0
LWPOLYLINE
  5
38
330
17
100
AcDbEntity
  8
ENG_L
100
AcDbPolyline
 90
5
 70
1
 10
219.2931324200756
 20
99.70205614730332
 10
218.63504350420786
 20
101.01823397903864
 10
219.853268893806
 20
101.42430910890488
 10
220.19771948612632
 20
99.70205614730332
 10
219.2931324200756
 20
99.70205614730332
  0
LWPOLYLINE
  5
39
330
17
100
AcDbEntity
  8
ENG_L
100
AcDbPolyline
 90
26
 70
1
 10
214.48905695991942
 20
108.50571967053202
 10
214.48905695991942
 20
107.10645729250201
 10
214.98062318006293
 20
106.61489107235855
 10
214.5092186592719
 20
104.25786846840334
 10
214.96046148071045
 20
103.80662564696486
 10
214.96046148071045
 20
102.89232955404759
 10
217.2317443924115
 20
101.37814094624686
 10
217.1816965830078
 20
101.27100744986417
 10
212.09809110223293
 20
102.766185532445
 10
210.65253504695949
 20
102.766185532445
 10
208.27790535409494
 20
104.19096334816369
 10
205.41911524045784
 20
104.66742836710318
 10
204.02052642957892
 20
106.06601717798215
 10
204.60304206148103
 20
106.64853280988429
 10
204.8805246565161
 20
108.59091097512984
 10
207.95091177947214
 20
106.54398622649252
 10
210.30725917823116
 20
106.75819962637966
 10
210.68385072252838
 20
107.88797425927122
 10
210.24641627280013
 20
108.32540870899953
 10
210.24641627280013
 20
109.27865688258065
 10
207.36417349361733
 20
112.641273458294
 10
208.19399843911305
 20
114.02431503412014
 10
211.15614952393003
 20
115.50539057652864
 10
212.6034388767553
 20
115.21593270596352
 10
212.6034388767553
 20
110.86274227448712
 10
214.48905695991942
 20
108.50571967053202
  0
LWPOLYLINE
  5
3A
330
17
100
AcDbEntity
  8
ENG_L
100
AcDbPolyline
 90
5
 70
1
 10
214.06946071584287
 20
75.66042558696063
 10
213.07484339754632
 20
75.66042558696063
 10
213.07484339754632
 20
76.93656796187598
 10
213.6910007669742
 20
77.55272533130409
 10
214.06946071584287
 20
75.66042558696063
  0
LWPOLYLINE
  5
3B
330
17
100
AcDbEntity
  8
ENG_L
100
AcDbPolyline
 90
4
 70
1
 10
212.8391411371508
 20
76.50560355560498
 10
212.8391411371508
 20
78.11507926385353
 10
213.64387899127516
 20
77.31034140972926
 10
212.8391411371508
 20
76.50560355560498
  0
LWPOLYLINE
  5
3C
330
17
100
AcDbEntity
  8
ENG_L
100
AcDbPolyline
 90
5
 70
1
 10
210.18275527092516
 20
23.53625596848874
 10
209.57437501427964
 20
24.1446362251343
 10
210.7814817954662
 20
24.547005152196544
 10
211.38986205211165
 20
23.938624895550873
 10
210.18275527092516
 20
23.53625596848874
  0
LWPOLYLINE
  5
3D
330
17
100
AcDbEntity
  8
ENG_L
100
AcDbPolyline
 90
13
 70
1
 10
208.83220271042705
 20
148.11865060132178
 10
208.83220271042705
 20
146.23303251815767
 10
209.30360723121808
 20
145.7616279973667
 10
209.30360723121808
 20
144.01408110166025
 10
207.93186629628866
 20
144.01408110166025
 10
207.43656213549414
 20
146.490601905633
 10
206.94658462726292
 20
146.98057941386412
 10
206.94658462726292
 20
150.3224003764354
 10
205.99946266191245
 20
152.21664430713645
 10
206.320270429187
 20
156.3871452817054
 10
207.88400656679124
 20
152.32143132393438
 10
208.34894722093077
 20
148.60190609081815
 10
208.83220271042705
 20
148.11865060132178
  0
LWPOLYLINE
  5
3E
330
17
100
AcDbEntity
  8
ENG_L
100
AcDbPolyline
 90
13
 70
1
 10
207.4456500826733
 20
143.6319205490161
 10
203.1197929053791
 20
141.85068524071843
 10
202.0982743626284
 20
142.872203783469
 10
203.6019184636577
 20
143.87463318415539
 10
203.45071869667345
 20
144.32823248510806
 10
202.08811227868074
 20
145.14579633590375
 10
203.17534846093466
 20
146.23303251815767
 10
203.17534846093466
 20
147.6472460805308
 10
203.6467529817257
 20
148.11865060132178
 10
204.5529280395213
 20
147.21247554352624
 10
205.52568113703478
 20
148.6716051897965
 10
206.9344048398719
 20
146.69939200582448
 10
207.4456500826733
 20
143.6319205490161
  0
LWPOLYLINE
  5
3F
330
17
100
AcDbEntity
  8
ENG_L
100
AcDbPolyline
 90
5
 70
1
 10
205.93143844684798
 20
145.0138301984526
 10
205.2966688044943
 20
145.14078412692334
 10
205.2966688044943
 20
144.72118788284672
 10
205.83389100831266
 20
144.72118788284672
 10
205.93143844684798
 20
145.0138301984526
  0
LWPOLYLINE
  5
40
330
17
100
AcDbEntity
  8
ENG_L
100
AcDbPolyline
 90
5
 70
1
 10
204.52712188670327
 20
109.68818214581033
 10
204.9118953455988
 20
110.84250252249694
 10
206.0662157222853
 20
110.45772906360152
 10
205.6814422633898
 20
109.3034086869149
 10
204.52712188670327
 20
109.68818214581033
  0
LWPOLYLINE
  5
41
330
17
100
AcDbEntity
  8
ENG_L
100
AcDbPolyline
 90
135
 70
1
 10
201.3573287678281
 20
96.1364895584903
 10
202.2325394193526
 20
94.82367358120358
 10
202.2325394193526
 20
93.43572618956209
 10
202.70394394014363
 20
92.9643216687711
 10
202.70394394014363
 20
91.35484596052234
 10
202.29363322669116
 20
90.94453524706991
 10
203.64675298172568
 20
88.68933565534564
 10
203.64675298172568
 20
85.8932538569056
 10
204.23436156289475
 20
85.30564527573648
 10
206.47576033224297
 20
84.85736552186695
 10
206.4736924604546
 20
84.78286474085628
 10
203.75786409283683
 20
84.39488925976801
 10
203.2729795338725
 20
83.91000470080368
 10
199.30648122166858
 20
83.91000470080368
 10
198.47692800451844
 20
84.73955791795385
 10
197.96892793613983
 20
87.78755832822537
 10
200.11121907579297
 20
89.31776628512044
 10
200.11121907579297
 20
87.39042915055717
 10
200.79032737924481
 20
87.79789413262829
 10
200.36549432362867
 20
89.92205941070918
 10
199.84154674433466
 20
90.44600699000304
 10
200.32814314274506
 20
91.90579618523431
 10
199.8476959374456
 20
92.8666905958333
 10
200.30834013225618
 20
93.78797898545443
 10
199.28281569344617
 20
95.2237131997885
 10
198.55893432596216
 20
95.2237131997885
 10
197.55503147704155
 20
94.2198103508679
 10
196.10428064906918
 20
95.09026084765127
 10
196.10428064906918
 20
96.54029568922373
 10
195.16147160748713
 20
97.48310473080579
 10
195.16147160748713
 20
102.66855445950718
 10
194.69006708669608
 20
103.13995898029815
 10
194.69006708669608
 20
105.0778160285668
 10
193.74725804511402
 20
107.43483863252202
 10
193.74725804511402
 20
109.31479354670171
 10
192.6853105898307
 20
111.65107794832507
 10
189.63918695740026
 20
110.34559639156916
 10
189.0332128372037
 20
109.73962227137257
 10
189.0332128372037
 20
107.05421832739748
 10
189.97602187878576
 20
104.69719572344238
 10
189.97602187878576
 20
103.33522112617376
 10
190.44742639957678
 20
102.8638166053828
 10
190.44742639957678
 20
100.93620920518454
 10
191.3902354411589
 20
99.05059112202042
 10
191.3902354411589
 20
98.14977139747249
 10
192.37390824867555
 20
97.16609858995572
 10
191.41268741087822
 20
94.76304649546252
 10
191.86163996194992
 20
93.86514139331913
 10
191.86163996194992
 20
91.07870358560699
 10
191.8916726448302
 20
91.04867090272673
 10
193.38087778544667
 20
92.04147432980447
 10
194.21866256590505
 20
90.08664317540149
 10
194.21866256590505
 20
88.52641883577617
 10
193.392057584701
 20
87.69981385457216
 10
192.57542840431563
 20
87.536488018495
 10
192.80444900353197
 20
87.30746741927875
 10
192.80444900353197
 20
85.26857650727315
 10
192.23466020889498
 20
84.12899891799897
 10
189.84539405358166
 20
84.39447293525615
 10
188.56180831641268
 20
86.19149296729267
 10
188.56180831641268
 20
89.19308550244287
 10
188.96561444714612
 20
89.5968916331763
 10
188.09040379562165
 20
90.90970761046302
 10
188.09040379562165
 20
92.2976550021044
 10
187.6189992748306
 20
92.76905952289549
 10
187.21125575591455
 20
92.36131600397934
 10
186.22775577247805
 20
92.68914933179163
 10
185.74686122983977
 20
96.05541113025939
 10
185.2108857279283
 20
96.59138663217092
 10
185.6822902487193
 20
97.53419567375299
 10
185.26197667087547
 20
97.95450925159687
 10
185.26197667087547
 20
100.32648303989511
 10
183.37635858771134
 20
102.68350564385031
 10
183.37635858771134
 20
104.5541725426713
 10
182.9049540669203
 20
105.02557706346226
 10
182.9049540669203
 20
109.2682177505816
 10
182.43354954612926
 20
109.73962227137257
 10
182.43354954612926
 20
114.62266345442696
 10
183.3581074647238
 20
116.00950033231861
 10
182.87962459748766
 20
117.92343180126308
 10
183.37635858771134
 20
118.42016579148684
 10
183.37635858771134
 20
119.11967175198146
 10
182.43354954612926
 20
119.59107627277244
 10
182.43354954612926
 20
120.58192624956632
 10
181.96214502533823
 20
121.0533307703574
 10
181.96214502533823
 20
123.41035337431249
 10
181.4907405045472
 20
123.88175789510359
 10
181.4907405045472
 20
126.4340426449343
 10
182.34698702071037
 20
127.29028916109752
 10
186.7468158714895
 20
126.80141928878874
 10
191.12186413290638
 20
124.48521726803851
 10
189.15634552470974
 20
123.01107831189107
 10
189.50461735799473
 20
122.66280647860606
 10
189.50461735799473
 20
121.45248178671797
 10
188.09040379562165
 20
120.981077265927
 10
188.09040379562165
 20
120.27678946191511
 10
189.63400514553982
 20
117.85113019775795
 10
191.01646199330568
 20
117.85113019775795
 10
191.3434393734248
 20
117.52415281763884
 10
191.86163996194992
 20
118.38782046518071
 10
191.86163996194992
 20
120.58192624956632
 10
190.91883092036784
 20
121.52473529114837
 10
190.91883092036784
 20
122.63046115229992
 10
191.78670682533934
 20
124.0769209939192
 10
194.7868411656905
 20
122.07683143368497
 10
196.69618784236877
 20
121.59949476451548
 10
197.53279195104676
 20
120.76289065583745
 10
197.06138743025573
 20
117.4630590103003
 10
197.55935797737686
 20
116.9650884631791
 10
196.60487442237007
 20
114.57887957566216
 10
197.51849421144226
 20
113.2084498920538
 10
197.51849421144226
 20
112.09664487532778
 10
197.14472076358905
 20
111.7228714274745
 10
197.58215521331724
 20
111.2854369777464
 10
198.00482306502238
 20
111.42632626164806
 10
198.33128777776162
 20
115.01743810177989
 10
198.4655892338225
 20
115.02461229219807
 10
199.12593740676724
 20
111.7228714274745
 10
200.44455240912632
 20
111.7228714274745
 10
201.28973037777052
 20
110.87769345883025
 10
201.7611348985616
 20
111.34909797962145
 10
202.30469167368756
 20
110.80554120449526
 10
200.8484025939322
 20
108.76673649283785
 10
199.87551681539745
 20
109.73962227137268
 10
199.40411229460642
 20
109.2682177505816
 10
199.40411229460642
 20
107.42458898445162
 10
198.9689953904182
 20
106.55435517607515
 10
199.87551681539745
 20
105.19457303860624
 10
199.87551681539745
 20
103.76463632993071
 10
200.84614673493138
 20
101.82337649086293
 10
200.3832089527913
 20
100.89750092658267
 10
201.28973037777052
 20
99.53771878911388
 10
201.28973037777052
 20
97.63637755964739
 10
201.81222584150873
 20
96.59138663217092
 10
201.3573287678281
 20
96.1364895584903
  0
LWPOLYLINE
  5
42
330
17
100
AcDbEntity
  8
ENG_L
100
AcDbPolyline
 90
11
 70
1
 10
193.58505599105573
 20
116.37234565426435
 10
194.18469249484227
 20
116.97198215805093
 10
194.1156569011134
 20
117.17908893923746
 10
193.275853524323
 20
116.3392855624471
 10
193.275853524323
 20
114.63216982448843
 10
194.7866852265246
 20
112.68967192165769
 10
195.3904922067035
 20
112.81043331769347
 10
194.5924360137583
 20
113.60848951063862
 10
195.63287612827816
 20
114.6489296251586
 10
195.63287612827816
 20
115.34843558565322
 10
193.58505599105573
 20
116.37234565426435
  0
LWPOLYLINE
  5
43
330
17
100
AcDbEntity
  8
ENG_L
100
AcDbPolyline
 90
5
 70
1
 10
192.81774273400328
 20
120.25128233089266
 10
193.24079632483642
 20
119.54619301283742
 10
193.685269844051
 20
120.58329789100475
 10
192.96998056009983
 20
121.0124714613755
 10
192.81774273400328
 20
120.25128233089266
  0
LWPOLYLINE
  5
44
330
17
100
AcDbEntity
  8
ENG_L
100
AcDbPolyline
 90
13
 70
1
 10
185.8310122646043
 20
115.49410759380285
 10
186.30241678539534
 20
115.02270307301177
 10
185.7333811916665
 20
114.45366747928298
 10
185.7333811916665
 20
113.25838159100799
 10
187.12211593543677
 20
112.26642820260058
 10
187.6189992748306
 20
112.76331154199448
 10
187.6189992748306
 20
115.86788104165602
 10
187.14759475403957
 20
116.3392855624471
 10
187.14759475403957
 20
117.24627332482984
 10
186.2413229780568
 20
117.7900363904194
 10
185.76735126272928
 20
117.31606467509192
 10
186.2387557835203
 20
115.90185111271877
 10
185.8310122646043
 20
115.49410759380285
  0
LWPOLYLINE
  5
45
330
17
100
AcDbEntity
  8
ENG_L
100
AcDbPolyline
 90
8
 70
1
 10
199.87551681539745
 20
143.4404266726108
 10
201.32626764336982
 20
144.31087716939427
 10
202.3301704922904
 20
143.30697432047367
 10
201.76113489856158
 20
142.73793872674477
 10
201.76113489856158
 20
141.65705849770515
 10
200.48499252364618
 20
141.65705849770515
 10
199.87551681539745
 20
142.2665342059538
 10
199.87551681539745
 20
143.4404266726108
  0
LWPOLYLINE
  5
46
330
17
100
AcDbEntity
  8
ENG_L
100
AcDbPolyline
 90
5
 70
1
 10
201.38104753500681
 20
180.31222920256974
 10
200.34692133618847
 20
180.31222920256974
 10
200.34692133618847
 20
181.116967056694
 10
200.92133152177112
 20
181.6913772422769
 10
201.38104753500681
 20
180.31222920256974
  0
LWPOLYLINE
  5
47
330
17
100
AcDbEntity
  8
ENG_L
100
AcDbPolyline
 90
34
 70
1
 10
200.8183258569795
 20
153.3763538344536
 10
200.8183258569795
 20
152.1660291425655
 10
199.40411229460642
 20
150.75181558019236
 10
198.81945194938342
 20
151.33647592541533
 10
196.2158595369648
 20
151.77040799415187
 10
195.27002937676272
 20
150.3516627538487
 10
193.0025457509814
 20
150.80515947900486
 10
192.81874674313644
 20
149.51856642409044
 10
193.275853524323
 20
149.06145964290386
 10
193.275853524323
 20
146.03777037228204
 10
192.80444900353197
 20
145.56636585149107
 10
192.80444900353197
 20
143.54267658086928
 10
191.52830662861658
 20
143.54267658086928
 10
190.91883092036784
 20
144.15215228911794
 10
190.4939665295674
 20
143.72728789831757
 10
189.38266699688293
 20
144.28293766465973
 10
187.43981813420928
 20
145.6706868522839
 10
189.0332128372037
 20
146.73294998761355
 10
189.0332128372037
 20
152.20801845959963
 10
188.5107173734655
 20
153.253009387076
 10
189.0332128372037
 20
153.77550485081414
 10
189.0332128372037
 20
155.46586078810265
 10
188.56180831641268
 20
155.93726530889373
 10
188.56180831641268
 20
160.4329582338829
 10
190.39904669526254
 20
161.22034611053294
 10
192.1873724745913
 20
161.22034611053294
 10
192.65877699538234
 20
162.16315515211488
 10
194.31629363884286
 20
162.16315515211488
 10
194.69006708669608
 20
161.7893817042617
 10
195.24097710105832
 20
162.34029171862386
 10
197.4815556849747
 20
157.112275022819
 10
198.9098361742446
 20
155.68399453354908
 10
199.36569366647657
 20
153.86056456462117
 10
200.8183258569795
 20
153.3763538344536
  0
LWPOLYLINE
  5
48
330
17
100
AcDbEntity
  8
ENG_L
100
AcDbPolyline
 90
10
 70
1
 10
193.275853524323
 20
156.13252745476936
 10
193.73668596127823
 20
155.67169501781407
 10
193.94932119671878
 20
153.75797789884916
 10
194.26802582817558
 20
153.86421277600138
 10
194.6560970156333
 20
155.02842633837443
 10
194.21866256590505
 20
155.46586078810265
 10
194.21866256590505
 20
157.4007302398902
 10
193.66775255154283
 20
158.68618694006875
 10
193.275853524323
 20
158.29428791284894
 10
193.275853524323
 20
156.13252745476936
  0
LWPOLYLINE
  5
49
330
17
100
AcDbEntity
  8
ENG_L
100
AcDbPolyline
 90
5
 70
1
 10
200.49167418482534
 20
183.61874250928622
 10
200.87013413369402
 20
181.72644276494287
 10
199.87551681539745
 20
181.72644276494287
 10
199.87551681539745
 20
183.00258513985813
 10
200.49167418482534
 20
183.61874250928622
  0
LWPOLYLINE
  5
4A
330
17
100
AcDbEntity
  8
ENG_L
100
AcDbPolyline
 90
4
 70
1
 10
199.63981455500192
 20
142.22609409143382
 10
200.4445524091263
 20
141.42135623730957
 10
199.63981455500192
 20
140.61661838318528
 10
199.63981455500192
 20
142.22609409143382
  0
LWPOLYLINE
  5
4B
330
17
100
AcDbEntity
  8
ENG_L
100
AcDbPolyline
 90
9
 70
1
 10
198.94833252530947
 20
186.0915298880257
 10
198.45368302634148
 20
186.58617938699362
 10
198.77130582769405
 20
190.71527580457737
 10
199.87551681539745
 20
188.13878349993607
 10
199.87551681539745
 20
185.83101226460442
 10
200.34692133618847
 20
185.3596077438133
 10
200.34692133618847
 20
183.14065632731592
 10
199.44014478542778
 20
183.14065632731592
 10
198.94833252530947
 20
186.0915298880257
  0
LWPOLYLINE
  5
4C
330
17
100
AcDbEntity
  8
ENG_L
100
AcDbPolyline
 90
5
 70
1
 10
198.564308917816
 20
191.11946765809728
 10
199.02402493105168
 20
189.74031961839032
 10
197.98989873223329
 20
189.74031961839032
 10
197.98989873223329
 20
190.5450574725147
 10
198.564308917816
 20
191.11946765809728
  0
LWPOLYLINE
  5
4D
330
17
100
AcDbEntity
  8
ENG_L
100
AcDbPolyline
 90
5
 70
1
 10
196.47903102702938
 20
93.00435712559118
 10
197.69725641662754
 20
93.4104322554572
 10
198.04170700894784
 20
91.68817929385575
 10
197.13711994289713
 20
91.68817929385575
 10
196.47903102702938
 20
93.00435712559118
  0
LWPOLYLINE
  5
4E
330
17
100
AcDbEntity
  8
ENG_L
100
AcDbPolyline
 90
14
 70
1
 10
191.86163996194992
 20
40.336365301418596
 10
191.86163996194992
 20
42.05263342333965
 10
192.70681793059413
 20
42.8978113919839
 10
195.25910268042495
 20
42.8978113919839
 10
195.71034550186351
 20
42.446568570545296
 10
196.99142224922795
 20
42.70278392001814
 10
198.00468132289043
 20
38.1431180885371
 10
197.16374295614767
 20
36.74155414396585
 10
195.63287612827816
 20
37.047727509539776
 10
195.63287612827816
 20
39.97175319429991
 10
195.06384053454929
 20
40.540788788028806
 10
194.3162936388429
 20
40.540788788028806
 10
193.8305913784474
 20
40.055086527633236
 10
191.86163996194992
 20
40.336365301418596
  0
LWPOLYLINE
  5
4F
330
17
100
AcDbEntity
  8
ENG_L
100
AcDbPolyline
 90
5
 70
1
 10
189.69828666460015
 20
185.55327705041879
 10
190.832268394949
 20
186.68725878076754
 10
193.55358873850858
 20
186.38488985370537
 10
192.4196070081598
 20
185.25090812335654
 10
189.69828666460015
 20
185.55327705041879
  0
LWPOLYLINE
  5
50
330
17
100
AcDbEntity
  8
ENG_L
100
AcDbPolyline
 90
4
 70
1
 10
191.15453318076337
 20
123.17465111391712
 10
191.15453318076337
 20
124.78412682216566
 10
191.9592710348877
 20
123.97938896804139
 10
191.15453318076337
 20
123.17465111391712
  0
LWPOLYLINE
  5
51
330
17
100
AcDbEntity
  8
ENG_L
100
AcDbPolyline
 90
4
 70
1
 10
187.85470153522613
 20
88.0145742004652
 10
188.65943938935044
 20
87.20983634634094
 10
187.85470153522613
 20
86.40509849221634
 10
187.85470153522613
 20
88.0145742004652
  0
LWPOLYLINE
  5
52
330
17
100
AcDbEntity
  8
ENG_L
100
AcDbPolyline
 90
14
 70
1
 10
178.19090885901
 20
29.075308475729255
 10
178.19090885901
 20
30.267520403563843
 10
179.97889586923625
 20
32.05550741379015
 10
184.44531165089603
 20
32.05550741379015
 10
185.38812069247808
 20
30.641293851417007
 10
187.75245162696785
 20
30.641293851417007
 10
188.7002986983324
 20
29.061548732476126
 10
187.2637988144176
 20
28.774248755693232
 10
186.30241678539537
 20
27.812866726670936
 10
184.2215365563556
 20
27.812866726670936
 10
182.80732299398247
 20
29.227080289043972
 10
182.08828904694084
 20
29.227080289043972
 10
181.10427086619123
 20
27.75105301791958
 10
178.19090885901
 20
29.075308475729255
  0
LWPOLYLINE
  5
53
330
17
100
AcDbEntity
  8
ENG_L
100
AcDbPolyline
 90
5
 70
1
 10
187.2506004188312
 20
92.12451829198088
 10
187.7103164320669
 20
90.74537025227369
 10
186.67619023324855
 20
90.74537025227369
 10
186.67619023324855
 20
91.55010810639797
 10
187.2506004188312
 20
92.12451829198088
  0
LWPOLYLINE
  5
54
330
17
100
AcDbEntity
  8
ENG_L
100
AcDbPolyline
 90
22
 70
1
 10
179.60512242138307
 20
176.67906422369916
 10
179.60512242138307
 20
174.0458992448286
 10
180.0765269421741
 20
173.57449472403752
 10
180.0765269421741
 20
172.43642353657984
 10
179.60512242138307
 20
171.96501901578876
 10
179.60512242138307
 20
171.02220997420682
 10
178.60802504910387
 20
170.02511260192753
 10
177.2480998174279
 20
172.47297801894425
 10
177.2480998174279
 20
174.98870828641066
 10
177.69934263886648
 20
175.43995110784917
 10
177.22793811807543
 20
177.79697371180436
 10
177.71950433821894
 20
178.2885399319478
 10
177.71950433821894
 20
184.88820322302223
 10
178.19090885901
 20
185.3596077438133
 10
178.19090885901
 20
186.33823806459472
 10
179.78825307378992
 20
187.29664459346273
 10
180.0908246817786
 20
185.17864333754218
 10
179.60512242138307
 20
184.69294107714663
 10
179.60512242138307
 20
179.2313489735299
 10
180.0765269421741
 20
178.7599444527389
 10
180.0765269421741
 20
177.15046874449015
 10
179.60512242138307
 20
176.67906422369916
  0
LWPOLYLINE
  5
55
330
17
100
AcDbEntity
  8
ENG_L
100
AcDbPolyline
 90
12
 70
1
 10
176.92927170154167
 20
34.388340410773544
 10
175.00251903588858
 20
34.6635907915811
 10
172.86622280994942
 20
37.274619512173366
 10
172.06265008872657
 20
37.54247708591429
 10
172.06265008872657
 20
39.69561081938444
 10
173.0054591303086
 20
40.6384198609665
 10
173.57449472403746
 20
40.069384267237716
 10
174.81971231126664
 20
40.069384267237716
 10
176.33532345872612
 20
41.07979169887732
 10
178.19090885901
 20
39.224206298593465
 10
178.19090885901
 20
37.6685970201911
 10
176.92927170154167
 20
34.388340410773544
  0
LWPOLYLINE
  5
56
330
17
100
AcDbEntity
  8
ENG_L
100
AcDbPolyline
 90
14
 70
1
 10
175.83388625505484
 20
178.15173741103095
 10
175.83388625505484
 20
176.22441950357825
 10
173.8181424053759
 20
173.63274883970547
 10
173.49543663853984
 20
175.24627767388588
 10
173.00545913030862
 20
175.7362551821171
 10
173.00545913030862
 20
181.1454800053588
 10
174.41967269268173
 20
182.08828904694096
 10
174.41967269268173
 20
185.3272624175072
 10
175.3156856665297
 20
186.8206173739204
 10
176.30529077584586
 20
185.83101226460442
 10
176.30529077584586
 20
184.41679870223126
 10
176.7671535992701
 20
183.95493587880708
 10
177.26179869938775
 20
179.00848487763076
 10
175.83388625505484
 20
178.15173741103095
  0
LWPOLYLINE
  5
57
330
17
100
AcDbEntity
  8
ENG_L
100
AcDbPolyline
 90
10
 70
1
 10
150.0042686844859
 20
122.56517540566824
 10
150.94707772606796
 20
121.62236636408619
 10
152.85034289481257
 20
121.62236636408619
 10
154.6206828194584
 20
119.34621503239873
 10
154.6206828194584
 20
118.1890823664119
 10
153.26599015306044
 20
117.3762667665731
 10
148.64409707671243
 20
117.61952429690714
 10
146.5783414163188
 20
119.16884104220237
 10
147.36211088481093
 20
122.56517540566824
 10
150.0042686844859
 20
122.56517540566824
  0
LWPOLYLINE
  5
58
330
17
100
AcDbEntity
  8
ENG_L
100
AcDbPolyline
 90
15
 70
1
 10
151.32085117392117
 20
139.16196470629217
 10
152.3147511584504
 20
138.1680647217629
 10
151.82007657266405
 20
137.17871555019025
 10
152.26366021550325
 20
136.29154826451196
 10
152.26366021550325
 20
134.25265735250625
 10
151.7922556947122
 20
133.78125283171528
 10
151.7922556947122
 20
133.03370593600883
 10
152.26366021550325
 20
132.56230141521775
 10
152.26366021550325
 20
131.42423022776006
 10
151.38451217579612
 20
130.54508218805293
 10
150.3780421323391
 20
130.88057220253867
 10
150.3780421323391
 20
131.89563474855115
 10
149.90663761154806
 20
132.36703926934211
 10
149.90663761154806
 20
137.74775114391912
 10
151.32085117392117
 20
139.16196470629217
  0
LWPOLYLINE
  5
59
330
17
100
AcDbEntity
  8
ENG_L
100
AcDbPolyline
 90
6
 70
1
 10
152.34376433647594
 20
124.18145211964615
 10
151.97260780452254
 20
123.06798252378593
 10
150.53627501914926
 20
122.78071596671137
 10
149.33760201781922
 20
123.97938896804139
 10
149.82007508612924
 20
124.46186203635135
 10
152.34376433647594
 20
124.18145211964615
  0
LWPOLYLINE
  5
5A
330
17
100
AcDbEntity
  8
ENG_L
100
AcDbPolyline
 90
4
 70
1
 10
147.64724608053072
 20
117.85113019775795
 10
146.84250822640638
 20
117.04639234363367
 10
146.84250822640638
 20
118.65586805188222
 10
147.64724608053072
 20
117.85113019775795
  0
LWPOLYLINE
  5
5B
330
17
100
AcDbEntity
  8
ENG_L
100
AcDbPolyline
 90
18
 70
1
 10
140.94995171651848
 20
116.73843657880767
 10
140.94995171651848
 20
117.75349912482014
 10
140.47854719572743
 20
118.22490364561122
 10
140.47854719572743
 20
120.77718839544194
 10
140.85232064358067
 20
121.1509618432952
 10
140.38091612278964
 20
121.62236636408619
 10
140.94995171651848
 20
122.19140195781509
 10
140.94995171651848
 20
123.13421099939714
 10
142.73793872674474
 20
124.92219800962346
 10
143.40460539341146
 20
124.92219800962346
 10
144.2497833620557
 20
124.0770200409792
 10
144.2497833620557
 20
122.19140195781509
 10
145.7315953144864
 20
120.7095900053844
 10
144.7394390058343
 20
119.22135554240631
 10
145.2523011439649
 20
117.16990698988394
 10
142.47049028969462
 20
116.91701509404118
 10
141.9564217599755
 20
116.40294656432204
 10
140.94995171651848
 20
116.73843657880767
  0
LWPOLYLINE
  5
5C
330
17
100
AcDbEntity
  8
ENG_L
100
AcDbPolyline
 90
5
 70
1
 10
144.14677769726407
 20
142.56480201662114
 10
145.22656247470056
 20
141.4850172391846
 10
144.8241935476384
 20
140.277910457998
 10
143.74440877020186
 20
141.3576952354345
 10
144.14677769726407
 20
142.56480201662114
  0
LWPOLYLINE
  5
5D
330
17
100
AcDbEntity
  8
ENG_L
100
AcDbPolyline
 90
4
 70
1
 10
140.10477374787422
 20
137.65012007098133
 10
139.30003589374988
 20
136.84538221685705
 10
139.30003589374988
 20
138.45485792510559
 10
140.10477374787422
 20
137.65012007098133
  0
LWPOLYLINE
  5
5E
330
17
100
AcDbEntity
  8
ENG_L
100
AcDbPolyline
 90
37
 70
1
 10
130.9651734708875
 20
108.70613064006895
 10
130.0387452284522
 20
108.24291651885143
 10
129.21163476447677
 20
106.86439907889222
 10
128.41120325726914
 20
107.6648305861
 10
128.22859418287987
 20
105.65613076781844
 10
129.1648386967427
 20
104.25176399702418
 10
129.1648386967427
 20
101.70207988970259
 10
127.27922061357854
 20
100.35520983029956
 10
125.39360253041443
 20
101.70207988970259
 10
125.39360253041443
 20
104.72316851781527
 10
126.30012395539367
 20
106.08295065528407
 10
125.32263903409985
 20
108.03792049787175
 10
129.11824928067776
 20
110.41017690198296
 10
128.18805958409783
 20
113.2007459917227
 10
129.10117769486774
 20
114.11386410249258
 10
130.79178445949077
 20
113.55032851428481
 10
131.03509826646658
 20
111.84713186545414
 10
133.43127838999095
 20
109.88662085529788
 10
136.49722520356315
 20
111.63859046305336
 10
136.67438150264223
 20
112.524371958449
 10
135.24471776271184
 20
113.13708498984765
 10
133.78125283171516
 20
113.13708498984765
 10
132.69369094149627
 20
114.22464688006662
 10
134.25445594908754
 20
114.53679988158483
 10
135.80083522087517
 20
115.6413565042903
 10
136.06602193124004
 20
116.4369166353848
 10
136.80494210233704
 20
116.4369166353848
 10
138.59292911256333
 20
114.6489296251586
 10
138.59292911256333
 20
112.1386341923618
 10
138.06403103859415
 20
111.08083804442359
 10
135.9078261637104
 20
109.88294644726592
 10
134.4013793683912
 20
108.37649965194673
 10
134.87278388918222
 20
107.43369061036468
 10
133.97651497759082
 20
106.53742169877323
 10
132.8605405256047
 20
106.53742169877323
 10
131.06352049356823
 20
107.82100743594214
 10
130.9651734708875
 20
108.70613064006895
  0
LWPOLYLINE
  5
5F
330
17
100
AcDbEntity
  8
ENG_L
100
AcDbPolyline
 90
5
 70
1
 10
138.18396472837676
 20
140.62761839422754
 10
137.83047218079165
 20
139.56714075147215
 10
135.99536358787518
 20
139.20011903288886
 10
137.07388012529478
 20
140.99764659525482
 10
138.18396472837676
 20
140.62761839422754
  0
LWPOLYLINE
  5
60
330
17
100
AcDbEntity
  8
ENG_L
100
AcDbPolyline
 90
13
 70
1
 10
130.2623003027122
 20
243.48437453038363
 10
128.6084436196882
 20
244.66570073254368
 10
125.86500705120545
 20
244.91510405695104
 10
125.86500705120545
 20
247.11359996743855
 10
127.13960022360676
 20
248.38819313983973
 10
128.4577319155561
 20
249.04725898581458
 10
128.4577319155561
 20
247.4873734152918
 10
131.17660080150935
 20
247.4873734152918
 10
132.11940984309143
 20
246.07315985291868
 10
133.46690406736124
 20
246.07315985291868
 10
137.01361364800053
 20
244.1633931556515
 10
134.86410317022484
 20
243.24217437946194
 10
130.2623003027122
 20
243.48437453038363
  0
LWPOLYLINE
  5
61
330
17
100
AcDbEntity
  8
ENG_L
100
AcDbPolyline
 90
5
 70
1
 10
136.4782904301828
 20
118.46728756718593
 10
135.2930974670261
 20
117.28209460402917
 10
134.25265735250622
 20
118.32253471854904
 10
134.74422357264973
 20
118.81410093869249
 10
136.4782904301828
 20
118.46728756718593
  0
LWPOLYLINE
  5
62
330
17
100
AcDbEntity
  8
ENG_L
100
AcDbPolyline
 90
5
 70
1
 10
134.87350122294959
 20
132.70037260267554
 10
133.878883904653
 20
132.70037260267554
 10
133.878883904653
 20
133.97651497759088
 10
134.49504127408093
 20
134.59267234701878
 10
134.87350122294959
 20
132.70037260267554
  0
LWPOLYLINE
  5
63
330
17
100
AcDbEntity
  8
ENG_L
100
AcDbPolyline
 90
5
 70
1
 10
133.40747938386195
 20
136.80494210233707
 10
134.04555057131967
 20
137.4430132897947
 10
134.38635315462884
 20
135.05739520663062
 10
133.40747938386195
 20
135.05739520663062
 10
133.40747938386195
 20
136.80494210233707
  0
LWPOLYLINE
  5
64
330
17
100
AcDbEntity
  8
ENG_L
100
AcDbPolyline
 90
8
 70
1
 10
130.3986103715331
 20
138.4250579193709
 10
130.09334999872027
 20
140.56188052906083
 10
132.02989980527533
 20
142.49843033561592
 10
133.10279106798757
 20
140.88909344154754
 10
134.4379669984303
 20
140.08798788328193
 10
133.48241252047254
 20
138.49539708668556
 10
131.99326582148888
 20
139.48816155267474
 10
130.3986103715331
 20
138.4250579193709
  0
LWPOLYLINE
  5
65
330
17
100
AcDbEntity
  8
ENG_L
100
AcDbPolyline
 90
6
 70
1
 10
133.5301680160696
 20
122.42358757018701
 10
131.3941534908073
 20
123.94931223108863
 10
132.40100934040495
 20
124.95616808068633
 10
133.33893369098328
 20
124.64352663049338
 10
133.8976620980964
 20
123.52606981626724
 10
133.5301680160696
 20
122.42358757018701
  0
LWPOLYLINE
  5
66
330
17
100
AcDbEntity
  8
ENG_L
100
AcDbPolyline
 90
4
 70
1
 10
131.28615904030232
 20
126.0030782386633
 10
131.28615904030232
 20
127.61255394691185
 10
132.0908968944267
 20
126.80781609278758
 10
131.28615904030232
 20
126.0030782386633
  0
LWPOLYLINE
  5
67
330
17
100
AcDbEntity
  8
ENG_L
100
AcDbPolyline
 90
6
 70
1
 10
131.54426075112332
 20
130.34334999872033
 10
130.5790522591158
 20
130.34334999872033
 10
130.5790522591158
 20
131.89563474855115
 10
130.01001666538696
 20
132.46467034227993
 10
131.23963038201532
 20
133.69428405890838
 10
131.54426075112332
 20
130.34334999872033
  0
LWPOLYLINE
  5
68
330
17
100
AcDbEntity
  8
ENG_L
100
AcDbPolyline
 90
5
 70
1
 10
130.34334999872027
 20
127.25817660025218
 10
130.5018994822502
 20
127.27940924325243
 10
131.54954612954754
 20
123.43803820316224
 10
130.34334999872027
 20
122.23184207233506
 10
130.34334999872027
 20
127.25817660025218
  0
LWPOLYLINE
  5
69
330
17
100
AcDbEntity
  8
ENG_L
100
AcDbPolyline
 90
4
 70
1
 10
130.8147545195113
 20
127.14114942612109
 10
131.61949237363564
 20
126.33641157199649
 10
130.8147545195113
 20
125.53167371787222
 10
130.8147545195113
 20
127.14114942612109
  0
LWPOLYLINE
  5
6A
330
17
100
AcDbEntity
  8
ENG_L
100
AcDbPolyline
 90
4
 70
1
 10
130.67668333205356
 20
122.56517540566824
 10
129.87194547792924
 20
121.76043755154397
 10
129.87194547792924
 20
123.36991325979285
 10
130.67668333205356
 20
122.56517540566824
  0
LWPOLYLINE
  5
6B
330
17
100
AcDbEntity
  8
ENG_L
100
AcDbPolyline
 90
4
 70
1
 10
129.40054095713822
 20
136.0978353211507
 10
130.20527881126253
 20
135.29309746702612
 10
129.40054095713822
 20
134.48835961290183
 10
129.40054095713822
 20
136.0978353211507
  0
LWPOLYLINE
  5
6C
330
17
100
AcDbEntity
  8
ENG_L
100
AcDbPolyline
 90
10
 70
1
 10
127.75062513436957
 20
157.82288339205786
 10
127.75062513436957
 20
156.8800743504758
 10
126.40007257387148
 20
155.5295217899777
 10
125.39360253041443
 20
155.86501180446334
 10
125.39360253041443
 20
160.47076670190265
 10
126.88528546637288
 20
160.76910328909432
 10
127.37685168651639
 20
160.27753706895075
 10
128.86331875331982
 20
160.27753706895075
 10
129.19880876780547
 20
159.27106702549375
 10
127.75062513436957
 20
157.82288339205786
  0
LWPOLYLINE
  5
6D
330
17
100
AcDbEntity
  8
ENG_L
100
AcDbPolyline
 90
11
 70
1
 10
125.39360253041443
 20
130.8147545195114
 10
125.39360253041443
 20
136.36205053021078
 10
126.80781609278752
 20
137.30485957179283
 10
126.80781609278752
 20
138.02389351883448
 10
125.86500705120545
 20
137.08108447725255
 10
125.39360253041443
 20
137.55248899804351
 10
125.39360253041443
 20
140.12843927609686
 10
127.34997695883473
 20
141.52584958211133
 10
128.2186207698651
 20
140.0781098970607
 10
128.70616578973613
 20
130.8147545195114
 10
125.39360253041443
 20
130.8147545195114
  0
LWPOLYLINE
  5
6E
330
17
100
AcDbEntity
  8
ENG_L
100
AcDbPolyline
 90
11
 70
1
 10
124.6129955428906
 20
112.73025145017712
 10
125.55580458447265
 20
112.25884692938604
 10
125.00553134295671
 20
111.70857368787013
 10
123.19182928311888
 20
111.9676739821327
 10
120.65979374407843
 20
113.48689530555689
 10
121.16679659028767
 20
117.03591522902168
 10
123.3951466292671
 20
118.7690763704501
 10
124.95050698556032
 20
119.28752982254798
 10
126.35167269224529
 20
118.44683039853699
 10
125.85443496736964
 20
113.97169087465609
 10
124.6129955428906
 20
112.73025145017712
  0
LWPOLYLINE
  5
6F
330
17
100
AcDbEntity
  8
ENG_L
100
AcDbPolyline
 90
4
 70
1
 10
126.4340426449343
 20
100.40916292848978
 10
125.62930479080994
 20
99.60442507436551
 10
125.62930479080994
 20
101.21390078261405
 10
126.4340426449343
 20
100.40916292848978
  0
LWPOLYLINE
  5
70
330
17
100
AcDbEntity
  8
ENG_L
100
AcDbPolyline
 90
8
 70
1
 10
123.0164182271068
 20
26.00471801709203
 10
123.89605563470799
 20
26.88435542469325
 10
125.8959714574766
 20
26.59865316429777
 10
125.5602691970811
 20
24.248737341529214
 10
124.38713248695738
 20
25.42187405165286
 10
123.93002570577079
 20
25.269505124590697
 10
123.45092264316847
 20
23.832195936783652
 10
123.0164182271068
 20
26.00471801709203
  0
LWPOLYLINE
  5
71
330
17
100
AcDbEntity
  8
ENG_L
100
AcDbPolyline
 90
11
 70
1
 10
122.60140484952048
 20
131.20826487599103
 10
121.64792470956918
 20
126.44086417623457
 10
120.99945062428796
 20
129.03476051735942
 10
120.14424660905168
 20
128.5216381082177
 10
119.37930065083764
 20
127.24672817786097
 10
115.5506808287968
 20
128.1302558291011
 10
118.26145812797547
 20
129.63624321753375
 10
119.11967175198139
 20
129.63624321753375
 10
119.5610661886905
 20
130.51903209095195
 10
121.60428099506929
 20
131.5406394941414
 10
122.60140484952048
 20
131.20826487599103
  0
LWPOLYLINE
  5
72
330
17
100
AcDbEntity
  8
ENG_L
100
AcDbPolyline
 90
5
 70
1
 10
121.62236636408618
 20
125.15790027001906
 10
121.62236636408618
 20
126.90544716572538
 10
122.26043755154387
 20
127.543518353183
 10
122.60124013485303
 20
125.15790027001906
 10
121.62236636408618
 20
125.15790027001906
  0
LWPOLYLINE
  5
73
330
17
100
AcDbEntity
  8
ENG_L
100
AcDbPolyline
 90
5
 70
1
 10
121.7253720288778
 20
125.12283474735297
 10
122.18508804211348
 20
123.7436867076459
 10
121.15096184329515
 20
123.7436867076459
 10
121.15096184329515
 20
124.54842456177018
 10
121.7253720288778
 20
125.12283474735297
  0
LWPOLYLINE
  5
74
330
17
100
AcDbEntity
  8
ENG_L
100
AcDbPolyline
 90
5
 70
1
 10
121.67417464080069
 20
110.54436012549695
 10
120.67955732250411
 20
110.54436012549695
 10
120.67955732250411
 20
111.82050250041232
 10
121.29571469193202
 20
112.43665986984041
 10
121.67417464080069
 20
110.54436012549695
  0
LWPOLYLINE
  5
75
330
17
100
AcDbEntity
  8
ENG_L
100
AcDbPolyline
 90
4
 70
1
 10
120.91525958289962
 20
108.08970644860405
 10
120.91525958289962
 20
109.69918215685293
 10
121.71999743702396
 20
108.89444430272832
 10
120.91525958289962
 20
108.08970644860405
  0
LWPOLYLINE
  5
76
330
17
100
AcDbEntity
  8
ENG_L
100
AcDbPolyline
 90
39
 70
1
 10
118.33601475672225
 20
122.67628651677931
 10
118.59584249189058
 20
124.49508066295766
 10
121.2671659036732
 20
123.96081598060115
 10
121.73954160624874
 20
123.48844027802552
 10
119.2099607412966
 20
121.46477558606384
 10
118.45598707068618
 20
120.20815280171315
 10
116.52105371049855
 20
120.20815280171315
 10
114.07989403142966
 20
118.21084033702046
 10
114.07989403142966
 20
117.45109057917314
 10
115.05899068961456
 20
115.98244559189574
 10
114.07989403142966
 20
114.02425227552592
 10
114.07989403142966
 20
112.99141298169802
 10
113.21761049546896
 20
112.5602712137177
 10
113.63094148035795
 20
111.7336092439396
 10
112.57767403345365
 20
109.1004406266789
 10
108.3089101537405
 20
109.85375189956947
 10
107.85400418820845
 20
110.30865786510147
 10
106.4817799428693
 20
110.30865786510147
 10
104.59616185970518
 20
111.25146690668353
 10
103.13995898029812
 20
111.25146690668353
 10
102.24369006870671
 20
112.14773581827498
 10
102.71509458949772
 20
113.09054485985703
 10
102.29478101165387
 20
113.51085843770082
 10
102.29478101165387
 20
120.77718839544194
 10
102.78475851988509
 20
121.26716590367315
 10
103.26261578709052
 20
123.65645223970023
 10
104.59651490067694
 20
124.45679170785206
 10
107.76703541540154
 20
124.16856257014996
 10
106.06601717798213
 20
122.46754433273044
 10
106.06601717798213
 20
120.77718839544194
 10
106.5532571050878
 20
120.28994846833629
 10
108.94599946018265
 20
122.24764675886846
 10
110.16996986571816
 20
124.45079348883237
 10
113.03945391690975
 20
124.45079348883237
 10
113.57845682775837
 20
124.989796399681
 10
115.11947715200614
 20
123.9624495168492
 10
117.05389072725391
 20
123.47884612303717
 10
117.88776418154437
 20
122.22803594160148
 10
118.33601475672225
 20
122.67628651677931
  0
LWPOLYLINE
  5
77
330
17
100
AcDbEntity
  8
ENG_L
100
AcDbPolyline
 90
7
 70
1
 10
103.70899457402697
 20
113.70612058357644
 10
104.180399094818
 20
113.23471606278545
 10
105.49698158425329
 20
114.5512985522208
 10
105.13378022023586
 20
114.91449991623814
 10
104.95302474791058
 20
116.54129916716593
 10
103.70899457402697
 20
114.94183180074413
 10
103.70899457402697
 20
113.70612058357644
  0
LWPOLYLINE
  5
78
330
17
100
AcDbEntity
  8
ENG_L
100
AcDbPolyline
 90
4
 70
1
 10
120.4438550621086
 20
108.28496859447955
 10
121.24859291623294
 20
107.48023074035528
 10
120.4438550621086
 20
106.67549288623069
 10
120.4438550621086
 20
108.28496859447955
  0
LWPOLYLINE
  5
79
330
17
100
AcDbEntity
  8
ENG_L
100
AcDbPolyline
 90
5
 70
1
 10
120.20815280171308
 20
103.47329231363156
 10
120.20815280171308
 20
106.63505277171103
 10
120.87526076196346
 20
107.30216073196131
 10
121.16978910183498
 20
103.47329231363156
 10
120.20815280171308
 20
103.47329231363156
  0
LWPOLYLINE
  5
7A
330
17
100
AcDbEntity
  8
ENG_L
100
AcDbPolyline
 90
14
 70
1
 10
119.3675936683893
 20
26.63435542469328
 10
117.85113019775793
 20
29.161794542412302
 10
117.85113019775793
 20
30.54366277847931
 10
117.37972567696688
 20
31.01506729927028
 10
117.37972567696688
 20
33.09594752831002
 10
118.2249036456111
 20
33.94112549695427
 10
119.39879611226826
 20
33.94112549695427
 10
120.20815280171308
 20
32.59219768121291
 10
120.20815280171308
 20
30.072258257688222
 10
119.73674828092206
 20
29.60085373689725
 10
119.73674828092206
 20
28.853306841190808
 10
120.20815280171308
 20
28.38190232039972
 10
120.20815280171308
 20
26.63435542469328
 10
119.3675936683893
 20
26.63435542469328
  0
LWPOLYLINE
  5
7B
330
17
100
AcDbEntity
  8
ENG_L
100
AcDbPolyline
 90
4
 70
1
 10
119.83437935385986
 20
26.39865316429779
 10
119.0296414997355
 20
25.59391531017352
 10
119.0296414997355
 20
27.203391018422064
 10
119.83437935385986
 20
26.39865316429779
  0
LWPOLYLINE
  5
7C
330
17
100
AcDbEntity
  8
ENG_L
100
AcDbPolyline
 90
4
 70
1
 10
115.25840533340725
 20
128.5553629884939
 10
116.06314318753161
 20
127.75062513436963
 10
115.25840533340725
 20
126.94588728024536
 10
115.25840533340725
 20
128.5553629884939
  0
LWPOLYLINE
  5
7D
330
17
100
AcDbEntity
  8
ENG_L
100
AcDbPolyline
 90
4
 70
1
 10
115.59173866674057
 20
127.27922061357866
 10
114.78700081261623
 20
126.47448275945405
 10
114.78700081261623
 20
128.08395846770293
 10
115.59173866674057
 20
127.27922061357866
  0
LWPOLYLINE
  5
7E
330
17
100
AcDbEntity
  8
ENG_L
100
AcDbPolyline
 90
5
 70
1
 10
114.5512985522207
 20
231.55725078133437
 10
115.1674559216487
 20
232.17340815076204
 10
115.54591587051732
 20
230.28110840641892
 10
114.5512985522207
 20
230.28110840641892
 10
114.5512985522207
 20
231.55725078133437
  0
LWPOLYLINE
  5
7F
330
17
100
AcDbEntity
  8
ENG_L
100
AcDbPolyline
 90
11
 70
1
 10
110.30865786510141
 20
235.1332248017872
 10
109.7651010899754
 20
235.67678157691296
 10
111.27641164332898
 20
237.7926163516082
 10
112.61998736610124
 20
235.37418005061795
 10
115.156968129736
 20
232.83719928698332
 10
113.60848951063863
 20
231.80488020758494
 10
113.60848951063863
 20
230.890584114668
 10
112.78188452943446
 20
230.06397913346376
 10
111.35686180723185
 20
229.77897458902308
 10
110.30865786510141
 20
231.875382473284
 10
110.30865786510141
 20
235.1332248017872
  0
LWPOLYLINE
  5
80
330
17
100
AcDbEntity
  8
ENG_L
100
AcDbPolyline
 90
27
 70
1
 10
106.67087405091038
 20
32.05550741379015
 10
107.40043764624623
 20
32.05550741379015
 10
111.21036759641277
 20
34.9689832580351
 10
111.07111479687312
 20
35.38674165665412
 10
109.73546796523974
 20
35.653871022980674
 10
111.17763349532268
 20
38.826635189163184
 10
112.82788252311481
 20
37.17638616137109
 10
111.72287142747452
 20
36.62388061355093
 10
111.72287142747452
 20
36.443820109059
 10
112.6056603008927
 20
36.0024256723499
 10
113.19861615903952
 20
34.81651395605623
 10
110.89290020387564
 20
33.02317932426213
 10
109.49317082726931
 20
32.556602865393415
 10
108.06783932152429
 20
31.131271359648327
 10
106.72361383205099
 20
30.86242626175362
 10
105.17608483567419
 20
31.894112259338137
 10
104.65180361560904
 20
32.94267469946854
 10
104.65180361560904
 20
36.34354020874264
 10
105.59461265719109
 20
38.70056281269774
 10
105.59461265719109
 20
40.167015340175524
 10
106.6404273635648
 20
41.2128300465493
 10
107.04279629062698
 20
40.00572326536267
 10
106.53742169877316
 20
39.500348673508825
 10
106.53742169877316
 20
37.614730590344706
 10
106.06601717798213
 20
37.14332606955373
 10
106.06601717798213
 20
33.063602202003885
 10
106.67087405091038
 20
32.05550741379015
  0
LWPOLYLINE
  5
81
330
17
100
AcDbEntity
  8
ENG_L
100
AcDbPolyline
 90
19
 70
1
 10
103.06770547586784
 20
229.57400162523234
 10
99.67077737351785
 20
229.57400162523234
 10
99.45287384873438
 20
228.04867695174823
 10
98.52354484532559
 20
227.11934794833954
 10
98.09412964156867
 20
227.54876315209648
 10
97.10128766075233
 20
229.53444711372927
 10
97.59421584191685
 20
232.984944381881
 10
98.42591377238789
 20
233.816642312352
 10
101.25434089713411
 20
233.816642312352
 10
101.72574541792514
 20
234.28804683314297
 10
102.66855445950719
 20
234.28804683314297
 10
104.55417254267132
 20
236.1736649163071
 10
105.80060566312761
 20
236.1736649163071
 10
107.02748948575622
 20
227.0947246288555
 10
105.65145092118006
 20
226.2691014901097
 10
102.29478101165387
 20
226.52730686776556
 10
102.29478101165387
 20
228.77686459180003
 10
103.18504113338938
 20
229.2219946526677
 10
103.06770547586784
 20
229.57400162523234
  0
LWPOLYLINE
  5
82
330
17
100
AcDbEntity
  8
ENG_L
100
AcDbPolyline
 90
5
 70
1
 10
99.93332805280379
 20
35.86478578967789
 10
101.05047304306969
 20
38.47145743363167
 10
101.35856441410827
 20
33.85008686805291
 10
100.21998932638124
 20
32.71151178032583
 10
99.93332805280379
 20
35.86478578967789
  0
LWPOLYLINE
  5
83
330
17
100
AcDbEntity
  8
ENG_L
100
AcDbPolyline
 90
7
 70
1
 10
99.48659870673819
 20
32.232140264435216
 10
100.60255583792157
 20
32.604125974829536
 10
100.890934007646
 20
30.58547878675877
 10
99.93775840769872
 20
29.155715386837812
 10
99.93775840769872
 20
28.048568987066425
 10
98.96365229706709
 20
28.048568987066425
 10
99.48659870673819
 20
32.232140264435216
  0
LWPOLYLINE
  5
84
330
17
100
AcDbEntity
  8
ENG_L
100
AcDbPolyline
 90
5
 70
1
 10
99.93775840769872
 20
38.281397257011406
 10
100.51216859328142
 20
38.855807442593985
 10
100.97188460651705
 20
37.47665940288702
 10
99.93775840769872
 20
37.47665940288702
 10
99.93775840769872
 20
38.281397257011406
  0
LWPOLYLINE
  5
85
330
17
100
AcDbEntity
  8
ENG_L
100
AcDbPolyline
 90
5
 70
1
 10
98.93250922951219
 20
38.50609950636452
 10
99.31728268840773
 20
39.660419883051134
 10
100.47160306509421
 20
39.27564642415571
 10
100.08682960619869
 20
38.1213260474691
 10
98.93250922951219
 20
38.50609950636452
  0
LWPOLYLINE
  5
86
330
17
100
AcDbEntity
  8
ENG_L
100
AcDbPolyline
 90
5
 70
1
 10
99.46635388690768
 20
113.51085843770082
 10
98.2878425849301
 20
112.33234713572338
 10
98.2878425849301
 20
115.82744092713604
 10
99.46635388690768
 20
114.6489296251586
 10
99.46635388690768
 20
113.51085843770082
  0
LWPOLYLINE
  5
87
330
17
100
AcDbEntity
  8
ENG_L
100
AcDbPolyline
 90
5
 70
1
 10
98.25277706226409
 20
38.28677184886531
 10
97.17299228482753
 20
37.206987071428664
 10
95.96588550364098
 20
37.6093559984908
 10
97.04567028107753
 20
38.68914077592744
 10
98.25277706226409
 20
38.28677184886531
  0
LWPOLYLINE
  5
88
330
17
100
AcDbEntity
  8
ENG_L
100
AcDbPolyline
 90
4
 70
1
 10
95.93081998097496
 20
38.04569499661581
 10
96.73555783509931
 20
37.24095714249154
 10
95.93081998097496
 20
36.43621928836727
 10
95.93081998097496
 20
38.04569499661581
  0
LWPOLYLINE
  5
89
330
17
100
AcDbEntity
  8
ENG_L
100
AcDbPolyline
 90
4
 70
1
 10
96.26415331430826
 20
36.769552621700456
 10
95.45941546018392
 20
35.96481476757618
 10
95.45941546018392
 20
37.57429047582506
 10
96.26415331430826
 20
36.769552621700456
  0
LWPOLYLINE
  5
8A
330
17
100
AcDbEntity
  8
ENG_L
100
AcDbPolyline
 90
7
 70
1
 10
93.21650091154245
 20
36.78931620012615
 10
96.16503459535318
 20
36.36809710243894
 10
96.16710246714153
 20
36.29359632142837
 10
93.92570369779331
 20
35.845316567558626
 10
92.86669059583325
 20
34.786303465598635
 10
92.33419226770364
 20
35.31880179372815
 10
93.21650091154245
 20
36.78931620012615
  0
LWPOLYLINE
  5
8B
330
17
100
AcDbEntity
  8
ENG_L
100
AcDbPolyline
 90
5
 70
1
 10
91.45247703346016
 20
32.624543007519044
 10
92.5400389236791
 20
33.7121048977379
 10
92.91849887254776
 20
31.819805153394665
 10
91.45247703346016
 20
31.819805153394665
 10
91.45247703346016
 20
32.624543007519044
  0
LWPOLYLINE
  5
8C
330
17
100
AcDbEntity
  8
ENG_L
100
AcDbPolyline
 90
5
 70
1
 10
91.94265974769459
 20
31.094613003191164
 10
91.36244678121426
 20
29.934187070230543
 10
89.81595161547159
 20
29.934187070230543
 10
91.52971305402379
 20
32.333453084203654
 10
91.94265974769459
 20
31.094613003191164
  0
LWPOLYLINE
  5
8D
330
17
100
AcDbEntity
  8
ENG_L
100
AcDbPolyline
 90
14
 70
1
 10
83.40530862557357
 20
49.66683997605914
 10
86.78386843527059
 20
49.9739817769409
 10
88.48638337895608
 20
49.12272430509801
 10
88.59969121682073
 20
49.46264781869203
 10
87.61364247707432
 20
50.94172092831162
 10
88.62404990871396
 20
51.95212835995133
 10
88.62404990871396
 20
52.967190905963804
 10
89.63051995217101
 20
53.30268092044943
 10
90.50966799187808
 20
52.42353288074231
 10
90.50966799187808
 20
51.28546169328463
 10
90.03826347108705
 20
50.814057172493655
 10
90.03826347108705
 20
47.80742268468008
 10
85.24222100648582
 20
48.56469254751183
 10
83.40530862557357
 20
49.66683997605914
  0
LWPOLYLINE
  5
8E
330
17
100
AcDbEntity
  8
ENG_L
100
AcDbPolyline
 90
111
 70
1
 10
52.27481086485734
 20
190.87229079037726
 10
52.797306328595546
 20
191.9172817178536
 10
52.797306328595546
 20
194.12103149296735
 10
52.32590180780452
 20
194.59243601375832
 10
52.32590180780452
 20
196.9494586177135
 10
51.85449728701349
 20
197.4208631385045
 10
51.85449728701349
 20
199.97314788833532
 10
52.339381845977805
 20
200.45803244729964
 10
52.80603838463386
 20
203.72462821789193
 10
54.69306248767306
 20
207.0269203982106
 10
55.1699536840448
 20
209.88826757644108
 10
55.625733453341745
 20
210.34404734573798
 10
55.625733453341745
 20
215.05809255364838
 10
56.09713797413277
 20
215.52949707443935
 10
56.09713797413277
 20
218.35792419918553
 10
56.568542494923804
 20
218.82932871997662
 10
56.568542494923804
 20
219.74813453054952
 10
60.82863988244871
 20
225.90160853475228
 10
61.31591791252675
 20
227.8507206550644
 10
62.278465273780974
 20
228.3319943356914
 10
63.01278462106619
 20
230.04540614602354
 10
63.90295219636777
 20
230.04540614602354
 10
63.65067885430818
 20
227.77494606748738
 10
64.1110148275803
 20
227.31461009421517
 10
64.1110148275803
 20
221.9662435459444
 10
63.32545892334147
 20
220.6569837055463
 10
60.467100665002
 20
219.70419761943293
 10
58.42122651681226
 20
217.65832347124325
 10
57.03994701571483
 20
213.97491146831672
 10
57.03994701571483
 20
210.62018972065343
 10
56.666173567861605
 20
210.24641627280016
 10
57.03994701571483
 20
209.872642824947
 10
57.079620113163706
 20
209.9123159223959
 10
60.37945175870093
 20
216.9833837342614
 10
62.098074740666256
 20
218.70200671622663
 10
63.84167345839402
 20
219.2832062888026
 10
64.12208337509922
 20
216.75951703845587
 10
63.68341353996492
 20
216.32084720332145
 10
64.26643599251247
 20
214.96046148071045
 10
68.25602444176177
 20
214.96046148071045
 10
69.63329947766717
 20
216.3377365166159
 10
71.00494607293685
 20
216.92558505744586
 10
70.61304704571695
 20
217.31748408466567
 10
71.11266010051277
 20
217.81709713946162
 10
79.79018850564266
 20
215.40667258248104
 10
80.59320020784948
 20
214.60366088027428
 10
81.54315681217929
 20
209.37889955646028
 10
82.49579113843055
 20
207.47363090395777
 10
82.49579113843055
 20
205.73200859610063
 10
77.19923029861809
 20
206.48866014464528
 10
76.74130581600036
 20
206.946584627263
 10
74.85568773283623
 20
206.946584627263
 10
74.38428321204519
 20
207.41798914805398
 10
72.49866512888103
 20
207.41798914805398
 10
72.02726060809
 20
207.88939366884506
 10
70.14164252492587
 20
207.88939366884506
 10
69.68453574373935
 20
208.34650045003167
 10
68.35365551469958
 20
208.15637470302596
 10
68.35365551469958
 20
207.32035807511616
 10
67.50847754605533
 20
206.47518010647192
 10
67.88744246763093
 20
206.0962151848964
 10
67.4160379468399
 20
197.13952928986677
 10
67.88225099390856
 20
196.67331624279817
 10
67.88225099390856
 20
192.43067555567882
 10
68.36795325430407
 20
191.94497329528326
 10
68.03058283650725
 20
189.58338037070556
 10
65.52522838995341
 20
193.2022256823944
 10
65.52522838995341
 20
194.60738719810143
 10
63.65912434837807
 20
196.9400172500707
 10
63.19107738556902
 20
198.8122051013068
 10
62.61023873978834
 20
199.39304374708755
 10
60.81118318204309
 20
199.19314868511583
 10
60.81118318204309
 20
198.57458761597934
 10
63.285381028160835
 20
196.59522933908514
 10
62.25542942729644
 20
195.56527773822074
 10
60.739818279836975
 20
196.57568516986035
 10
57.566993292409734
 20
196.57568516986035
 10
55.76535384331354
 20
195.6748654453122
 10
54.68292441175968
 20
194.59243601375832
 10
54.68292441175968
 20
193.64962697217624
 10
54.211519890968646
 20
193.17822245138527
 10
54.211519890968646
 20
188.65943938935058
 10
54.68292441175968
 20
188.1880348685595
 10
54.68292441175968
 20
189.61393581916775
 10
57.95932485247088
 20
192.3862746536157
 10
59.39696961966999
 20
191.5236877932961
 10
59.39696961966999
 20
190.34979532663908
 10
58.92556509887896
 20
189.878390805848
 10
58.92556509887896
 20
187.7031363499444
 10
60.9339304851634
 20
185.24846754448566
 10
64.54084080204866
 20
184.79760375487487
 10
67.23516438088589
 20
186.1447655442936
 10
67.76285344568225
 20
187.20014367388626
 10
68.85051032020876
 20
186.83759138237733
 10
68.56577672682081
 20
184.84445622866187
 10
63.175017298791936
 20
183.2037903157835
 10
63.649082740982784
 20
170.87808881882128
 10
53.64011537017771
 20
171.1222099742067
 10
53.1623858385835
 20
171.59993950580088
 10
50.42644949876057
 20
171.84866099123929
 10
50.914505548486474
 20
179.657557786854
 10
51.85449728701349
 20
182.00753713317164
 10
51.85449728701349
 20
183.4739896606492
 10
52.32590180780452
 20
183.9453941814403
 10
52.32590180780452
 20
185.3596077438133
 10
52.797306328595546
 20
185.83101226460442
 10
52.797306328595546
 20
187.71663034776853
 10
53.17107977644878
 20
188.09040379562168
 10
52.797306328595546
 20
188.46417724347498
 10
52.797306328595546
 20
190.34979532663908
 10
52.27481086485734
 20
190.87229079037726
  0
LWPOLYLINE
  5
8F
330
17
100
AcDbEntity
  8
ENG_L
100
AcDbPolyline
 90
5
 70
1
 10
54.68292441175968
 20
187.52136820189293
 10
54.68292441175968
 20
185.8089155291327
 10
55.625733453341745
 20
184.48898287091785
 10
56.49639024058883
 20
185.70790237306377
 10
54.68292441175968
 20
187.52136820189293
  0
LWPOLYLINE
  5
90
330
17
100
AcDbEntity
  8
ENG_L
100
AcDbPolyline
 90
59
 70
1
 10
65.62285946289123
 20
148.96382856996604
 10
64.12850769539256
 20
147.46947680246748
 10
61.77148509143741
 20
149.35509488563147
 10
61.38021877577196
 20
148.96382856996604
 10
60.001826492598255
 20
148.96382856996604
 10
59.39696961966999
 20
147.95573378175231
 10
59.39696961966999
 20
146.70443703894875
 10
59.96600521339886
 20
146.13540144521986
 10
60.8825480842492
 20
146.13540144521986
 10
62.274906871533865
 20
145.2071622536968
 10
63.203599642201304
 20
145.3929008078302
 10
63.47750944267955
 20
146.76244981022157
 10
65.1251887713685
 20
145.66399692442877
 10
67.35520471721388
 20
145.66399692442877
 10
69.30678325630636
 20
146.6397861939751
 10
70.8551052593266
 20
145.71079299216294
 10
69.74929608963251
 20
144.60498382246877
 10
69.48969418923349
 20
143.30697432047367
 10
66.37040635859762
 20
143.30697432047367
 10
65.99663291074442
 20
143.68074776832697
 10
65.1649349802735
 20
142.84904983785594
 10
63.788660146212386
 20
142.65243914727577
 10
64.28937303317649
 20
141.81791766900233
 10
66.07520033087627
 20
140.4785471957275
 10
67.64654873351304
 20
140.4785471957275
 10
67.64654873351304
 20
139.10036612417588
 10
64.65612832449354
 20
138.60196272267257
 10
62.75244302111108
 20
137.65012007098133
 10
60.908814254980896
 20
137.65012007098133
 10
60.42311199458538
 20
137.16441781058586
 10
58.521628435750856
 20
137.43605831899075
 10
57.54617751324224
 20
139.8746856252624
 10
56.59507908625983
 20
140.82578405224467
 10
54.238056482304685
 20
148.83966090569223
 10
53.75068745401342
 20
149.3270299339835
 10
53.27368588101456
 20
153.62004409097318
 10
52.32590180780452
 20
155.98950427399828
 10
52.32590180780452
 20
158.29428791284894
 10
51.86187886803976
 20
158.7583108526137
 10
51.39047434724873
 20
164.88656962289716
 10
50.90699552480696
 20
165.37004844533877
 10
51.17646314691915
 20
171.0288685096949
 10
53.850512403658804
 20
167.82000940160736
 10
54.309150963906475
 20
167.82000940160736
 10
58.8770471094198
 20
163.25211325609402
 10
59.568765687404124
 20
162.09924895945338
 10
60.81118318204309
 20
161.35379846267006
 10
60.81118318204309
 20
159.9037636210976
 10
61.41504475250825
 20
159.29990205063237
 10
63.7720673564634
 20
158.35709300905032
 10
64.65793298825832
 20
157.4712273772554
 10
63.168205785998246
 20
155.48492444090866
 10
63.168205785998246
 20
154.7183138923963
 10
63.73724137972711
 20
154.1492782986674
 10
65.64170599377691
 20
154.1492782986674
 10
68.83668106506556
 20
149.97123397467448
 10
68.53409740228227
 20
147.85314833519158
 10
66.8680770501204
 20
148.96382856996604
 10
65.62285946289123
 20
148.96382856996604
  0
LWPOLYLINE
  5
91
330
17
100
AcDbEntity
  8
ENG_L
100
AcDbPolyline
 90
5
 70
1
 10
64.54844927730856
 20
149.97029861342315
 10
64.4794136835797
 20
150.17740539460965
 10
64.14498489864309
 20
149.84297660967306
 10
64.21402049237196
 20
149.63586982848653
 10
64.54844927730856
 20
149.97029861342315
  0
LWPOLYLINE
  5
92
330
17
100
AcDbEntity
  8
ENG_L
100
AcDbPolyline
 90
5
 70
1
 10
62.59917019226943
 20
195.63287612827818
 10
63.13166852039893
 20
196.1653744564078
 10
64.90742320141275
 20
195.09992164779953
 10
63.57594930491431
 20
194.65609701563324
 10
62.59917019226943
 20
195.63287612827818
  0
LWPOLYLINE
  5
93
330
17
100
AcDbEntity
  8
ENG_L
100
AcDbPolyline
 90
8
 70
1
 10
62.717698686814785
 20
194.81959819405114
 10
62.427499844208604
 20
192.78820629580773
 10
55.923020963166074
 20
193.28855082511876
 10
55.58509385544514
 20
194.30233214828164
 10
57.90188478502924
 20
196.10428064906927
 10
58.82793402594115
 20
196.10428064906927
 10
59.35430806148518
 20
196.63065468461326
 10
62.717698686814785
 20
194.81959819405114
  0
LWPOLYLINE
  5
94
330
17
100
AcDbEntity
  8
ENG_L
100
AcDbPolyline
 90
6
 70
1
 10
60.914188846834726
 20
189.30398062026532
 10
60.339778661252055
 20
189.8783908058481
 10
59.63267188006551
 20
189.17128402466145
 10
59.63267188006551
 20
190.97063919708233
 10
61.35492484166698
 20
190.6261886047621
 10
60.914188846834726
 20
189.30398062026532
  0
LWPOLYLINE
  5
95
330
17
100
AcDbEntity
  8
ENG_D
100
AcDbPolyline
 90
4
 70
1
 10
227.92408580246382
 20
70.84874930611251
 10
227.92408580246382
 20
72.45822501436139
 10
228.72882365658813
 20
71.65348716023678
 10
227.92408580246382
 20
70.84874930611251
  0
LWPOLYLINE
  5
96
330
17
100
AcDbEntity
  8
ENG_D
100
AcDbPolyline
 90
80
 70
1
 10
211.14341260540942
 20
83.97914436540232
 10
214.48905695991942
 20
86.84683952641092
 10
214.48905695991942
 20
87.63286116281755
 10
213.11178192401388
 20
90.84650291326379
 10
211.212096913953
 20
92.74618792332467
 10
210.70371112190298
 20
94.77973109152471
 10
211.13813437143503
 20
95.64857759058887
 10
210.57820040361935
 20
96.20851155840448
 10
209.8215518819997
 20
96.58683581921434
 10
209.30360723121808
 20
96.06889116843264
 10
209.30360723121808
 20
95.29507810199456
 10
210.2939928742709
 20
93.80949963741536
 10
209.30360723121808
 20
92.32392117283605
 10
209.30360723121808
 20
87.27512209297261
 10
210.8870056454794
 20
84.63612473587034
 10
205.47655910889856
 20
84.37848442460461
 10
203.17534846093466
 20
85.65693478458458
 10
203.17534846093466
 20
88.5587641620823
 10
201.700041091223
 20
91.01760977826845
 10
202.2325394193526
 20
91.55010810639797
 10
202.2325394193526
 20
92.76905952289549
 10
201.76113489856158
 20
93.24046404368647
 10
201.76113489856158
 20
94.68094377679125
 10
200.7820382403767
 20
96.14958876406854
 10
201.23863943482337
 20
97.0627911529619
 10
200.8183258569795
 20
97.48310473080579
 10
200.8183258569795
 20
99.39498898470156
 10
199.83922919879464
 20
100.86363397197884
 10
200.31910045823662
 20
101.82337649086293
 10
199.40411229460642
 20
103.65335281812338
 10
199.40411229460642
 20
105.05184323419392
 10
198.42501563642153
 20
106.52048822147131
 10
198.9327077738154
 20
107.53587249625896
 10
198.9327077738154
 20
109.46347989645722
 10
199.87551681539745
 20
110.40628893803928
 10
200.79282424241129
 20
109.48898151102549
 10
202.0773626645785
 20
111.20169940724844
 10
208.02706019860284
 20
114.17654817426059
 10
208.3947682606988
 20
113.0734239879726
 10
207.97469659832646
 20
112.65335232560037
 10
210.69728820533942
 20
109.47699545075184
 10
211.20586684747462
 20
107.44268088221098
 10
210.3798686249374
 20
106.06601717798225
 10
207.8180287666389
 20
106.06601717798225
 10
205.24140843168146
 20
107.78376406795387
 10
205.0474865059255
 20
106.42631058766216
 10
204.68719309624555
 20
106.06601717798215
 10
205.6456268893218
 20
105.10758338490601
 10
208.4436910251771
 20
104.64123936226332
 10
210.78310654022283
 20
103.23759005323596
 10
212.1804140602785
 20
103.23759005323596
 10
215.48684054445405
 20
101.82055013144642
 10
219.80948018717976
 20
101.56627721128608
 10
219.2541931107769
 20
100.4557030584804
 10
220.61731573020282
 20
99.09258043905444
 10
220.61731573020282
 20
97.95450925159687
 10
220.21350959946938
 20
97.55070312086333
 10
221.08872025099384
 20
96.23788714357661
 10
221.08872025099384
 20
94.8006883833118
 10
222.50293381336698
 20
91.50085673777453
 10
222.50293381336698
 20
90.0939052269909
 10
223.90936919333893
 20
87.28103446704694
 10
224.38241239671441
 20
83.9697320434184
 10
226.74557450048624
 20
77.82551057361164
 10
226.74557450048624
 20
76.42317412405097
 10
227.6883835420683
 20
74.53755604088674
 10
227.6883835420683
 20
73.63673631633883
 10
228.15978806285932
 20
73.16533179554774
 10
228.15978806285932
 20
71.86812210921545
 10
219.5686679875453
 20
72.60450382995664
 10
219.10547109489193
 20
73.06770072260993
 10
217.72360285882496
 20
73.06770072260993
 10
215.36658025486983
 20
74.48191428498308
 10
213.92002136619053
 20
74.48191428498308
 10
212.9772123246085
 20
75.42472332656513
 10
213.54624791833734
 20
75.99375892029391
 10
213.54624791833734
 20
76.74130581600036
 10
212.61528984546052
 20
77.67226388887715
 10
212.13761941338828
 20
81.49362734545518
 10
211.14341260540942
 20
83.97914436540232
  0
LWPOLYLINE
  5
97
330
17
100
AcDbEntity
  8
ENG_D
100
AcDbPolyline
 90
5
 70
1
 10
222.4404936767625
 20
86.41609850325882
 10
222.35386261486698
 20
86.67599168894536
 10
222.09396942918036
 20
86.5893606270498
 10
222.1806004910759
 20
86.32946744136328
 10
222.4404936767625
 20
86.41609850325882
  0
LWPOLYLINE
  5
98
330
17
100
AcDbEntity
  8
ENG_D
100
AcDbPolyline
 90
5
 70
1
 10
221.9952998487237
 20
76.52534046423132
 10
221.85276708739067
 20
77.23800427089633
 10
221.59635421563712
 20
77.15253331364514
 10
221.73888697697015
 20
76.43986950698012
 10
221.9952998487237
 20
76.52534046423132
  0
LWPOLYLINE
  5
99
330
17
100
AcDbEntity
  8
ENG_D
100
AcDbPolyline
 90
20
 70
1
 10
219.5936096711694
 20
82.9504616037352
 10
216.7651825464232
 20
82.47905708294422
 10
216.27704397014574
 20
82.96719565922162
 10
215.0580925536483
 20
82.96719565922162
 10
214.48905695991942
 20
82.39816006549272
 10
214.48905695991942
 20
80.70780412820422
 10
215.42129391766568
 20
79.77556717045798
 10
215.6428296109921
 20
77.78174593052023
 10
216.2770439701457
 20
77.78174593052023
 10
216.84607956387458
 20
78.35078152424913
 10
216.84607956387458
 20
79.76499508662216
 10
217.66838593294804
 20
80.58730145569571
 10
219.52893711754274
 20
81.05243925184436
 10
220.58068174641636
 20
82.63005619515474
 10
221.08872025099384
 20
82.12201769057737
 10
221.56012477178487
 20
82.59342221136833
 10
221.56012477178487
 20
83.3409691070749
 10
221.1253542347803
 20
83.77573964407947
 10
220.18254519319825
 20
82.36152608170644
 10
219.5936096711694
 20
82.9504616037352
  0
LWPOLYLINE
  5
9A
330
17
100
AcDbEntity
  8
ENG_D
100
AcDbPolyline
 90
5
 70
1
 10
219.67450668862077
 20
94.5619985264351
 10
219.67450668862077
 20
95.6467380162651
 10
219.31756449155432
 20
96.4796031427535
 10
219.20964353116986
 20
95.72415642006237
 10
219.67450668862077
 20
94.5619985264351
  0
LWPOLYLINE
  5
9B
330
17
100
AcDbEntity
  8
ENG_D
100
AcDbPolyline
 90
8
 70
1
 10
219.92699031606517
 20
93.93078945782408
 10
220.1459112094118
 20
93.38348722445755
 10
220.1459112094118
 20
91.98495814482466
 10
220.95447865924598
 20
90.52953673512309
 10
221.07442251138937
 20
91.36914370012683
 10
220.61731573020282
 20
91.82625048131344
 10
220.61731573020282
 20
93.24046404368647
 10
219.92699031606517
 20
93.93078945782408
  0
LWPOLYLINE
  5
9C
330
17
100
AcDbEntity
  8
ENG_D
100
AcDbPolyline
 90
7
 70
1
 10
217.44191110390543
 20
89.69425040252699
 10
216.86624126322707
 20
86.81590119913518
 10
217.78888860545663
 20
85.8932538569056
 10
218.6340665741009
 20
86.73843182554985
 10
218.26029312624766
 20
87.11220527340313
 10
218.26029312624766
 20
88.54851557124788
 10
217.44191110390543
 20
89.69425040252699
  0
LWPOLYLINE
  5
9D
330
17
100
AcDbEntity
  8
ENG_D
100
AcDbPolyline
 90
9
 70
1
 10
204.60972372266022
 20
95.7725870941648
 10
205.0535849630725
 20
95.32872585375252
 10
205.27557346839674
 20
92.44287528453721
 10
205.96212774796373
 20
92.5801861404506
 10
205.51220936553733
 20
94.82977805258275
 10
205.9316233313459
 20
95.24919201839121
 10
204.93966994293854
 20
96.63792676216154
 10
204.7827916562596
 20
96.63792676216154
 10
204.60972372266022
 20
95.7725870941648
  0
LWPOLYLINE
  5
9E
330
17
100
AcDbEntity
  8
ENG_D
100
AcDbPolyline
 90
5
 70
1
 10
205.2100377425988
 20
109.89969348091489
 10
205.46993092828532
 20
109.98632454281044
 10
205.38329986638982
 20
110.24621772849696
 10
205.12340668070325
 20
110.15958666660141
 10
205.2100377425988
 20
109.89969348091489
  0
LWPOLYLINE
  5
9F
330
17
100
AcDbEntity
  8
ENG_D
100
AcDbPolyline
 90
5
 70
1
 10
215.97616153740785
 20
102.5304832720495
 10
214.5315295873631
 20
102.5304832720495
 10
213.98142299527618
 20
105.2810162324842
 10
215.12230008545487
 20
105.66130859587707
 10
215.97616153740785
 20
102.5304832720495
  0
LWPOLYLINE
  5
A0
330
17
100
AcDbEntity
  8
ENG_D
100
AcDbPolyline
 90
17
 70
1
 10
205.93702254300936
 20
24.99231388979217
 10
203.08669769648225
 20
25.4673680308799
 10
201.68976999635547
 20
26.39865316429779
 10
200.68487350484227
 20
26.39865316429779
 10
198.30591299020554
 20
30.363587355359044
 10
200.7411693502615
 20
30.634171395365172
 10
203.11006271430298
 20
32.05550741379015
 10
204.68719309624558
 20
32.05550741379015
 10
206.1310975894308
 20
30.61160292060494
 10
207.5453111518039
 20
30.14019839981397
 10
211.13203435596427
 20
26.55347519565354
 10
212.6034388767553
 20
24.591602501265463
 10
212.6034388767553
 20
23.334523779156125
 10
210.7836384766185
 20
23.334523779156125
 10
210.5687495950912
 20
23.979190423738196
 10
209.29312767749101
 20
23.55398311787138
 10
205.93702254300936
 20
24.99231388979217
  0
LWPOLYLINE
  5
A1
330
17
100
AcDbEntity
  8
ENG_D
100
AcDbPolyline
 90
42
 70
1
 10
200.96275299765136
 20
141.8459646903666
 10
199.43242127054336
 20
140.9277656541017
 10
198.5397523760767
 20
141.22532195225722
 10
197.8478465265328
 20
142.37849836816375
 10
193.67010153839604
 20
142.84269225573453
 10
192.3206182718425
 20
143.65238221566668
 10
192.7954221062634
 20
148.8752243942968
 10
192.33304448274095
 20
149.3376020178193
 10
192.33304448274095
 20
151.01933123049838
 10
193.33951452619797
 20
151.354821244984
 10
193.84488911805184
 20
150.84944665313017
 10
195.0353275858845
 20
150.84944665313017
 10
195.99270176117352
 20
152.28550791606378
 10
199.04596359824737
 20
151.77663094321815
 10
199.40411229460642
 20
151.41848224685896
 10
200.36040137436177
 20
152.37477132661436
 10
200.60497641715588
 20
154.0867966261732
 10
206.21808550927346
 20
156.12792720512502
 10
206.47150366614432
 20
152.3266548520621
 10
207.41798914805395
 20
150.43368388824297
 10
207.41798914805395
 20
147.1338522427057
 10
208.36079818963603
 20
145.24823415954157
 10
208.36079818963603
 20
144.15215228911794
 10
207.41798914805392
 20
143.20934324753577
 10
206.962209378757
 20
143.66512301683287
 10
206.48735989386293
 20
146.5142199261974
 10
205.53906099274482
 20
147.84183838776266
 10
204.6261960070942
 20
146.47254090928664
 10
203.81341964839237
 20
147.28531726798855
 10
203.6332729435524
 20
146.0242903341088
 10
202.83820899686782
 20
145.2292263874242
 10
204.16299202058468
 20
144.34603770494624
 10
203.84278726677795
 20
143.385423443526
 10
202.8483710808155
 20
142.78877373194854
 10
203.41773238250934
 20
142.21941243025472
 10
201.60332680247754
 20
141.85653131424846
 10
201.25576030670774
 20
142.89923080155765
 10
201.6167077578897
 20
143.26017825273962
 10
200.85486312257876
 20
143.71728503392623
 10
200.34692133618847
 20
143.20934324753586
 10
200.34692133618847
 20
142.46179635182943
 10
200.96275299765136
 20
141.8459646903666
  0
LWPOLYLINE
  5
A2
330
17
100
AcDbEntity
  8
ENG_D
100
AcDbPolyline
 90
5
 70
1
 10
206.54751724530473
 20
145.371354608823
 10
206.1615836817649
 20
144.21355391820356
 10
204.51722488447487
 20
144.54242567766153
 10
204.90315844801472
 20
145.70022636828094
 10
206.54751724530473
 20
145.371354608823
  0
LWPOLYLINE
  5
A3
330
17
100
AcDbEntity
  8
ENG_D
100
AcDbPolyline
 90
52
 70
1
 10
200.84614673493138
 20
91.45247703346016
 10
200.39801227913566
 20
90.5562081218687
 10
200.79975286953933
 20
90.15446753146506
 10
201.31772885550524
 20
87.56458760163555
 10
199.74482729202927
 20
86.62084666354997
 10
199.38533410116298
 20
87.69932623614885
 10
199.77886267256662
 20
88.48638337895609
 10
199.52350984283274
 20
88.57150098886734
 10
199.09986434133222
 20
87.72420998586638
 10
198.49753269687656
 20
87.5234327710478
 10
199.22021831092542
 20
83.91000470080368
 10
197.89226765929547
 20
83.91000470080368
 10
197.42086313850444
 20
84.38140922159477
 10
195.730507201216
 20
84.38140922159477
 10
195.25148245374206
 20
83.9023844741208
 10
191.72975766372335
 20
84.17328638104526
 10
192.33304448274095
 20
85.3798600190805
 10
192.33304448274095
 20
87.11220527340313
 10
191.6192560403752
 20
87.82599371576882
 10
193.159649463945
 20
88.13407240048265
 10
193.74725804511402
 20
88.72168098165179
 10
193.74725804511402
 20
89.98988376677275
 10
193.17082926319935
 20
91.33488425790704
 10
191.83160727906963
 20
90.44206960182044
 10
191.3902354411589
 20
90.88344143973137
 10
191.3902354411589
 20
93.75385788151158
 10
190.8963789506485
 20
94.74157086253231
 10
191.82077619601532
 20
97.0525639759493
 10
190.93740390780803
 20
97.93593626415675
 10
190.46599938701698
 20
100.29295886811185
 10
189.97602187878576
 20
100.78293637634295
 10
189.97602187878576
 20
102.72079342461171
 10
189.0332128372037
 20
105.0778160285668
 10
189.0332128372037
 20
106.43979062583541
 10
188.56180831641268
 20
106.9111951466264
 10
188.56180831641268
 20
109.93488441724818
 10
189.3700477585892
 20
110.74312385942476
 10
192.92358741723325
 20
112.26606942741513
 10
194.21866256590505
 20
109.4169041003371
 10
194.21866256590505
 20
107.52562284818856
 10
195.16147160748713
 20
105.16860024423336
 10
195.16147160748713
 20
103.33522112617376
 10
195.63287612827816
 20
102.8638166053828
 10
195.63287612827816
 20
97.67836687668141
 10
196.5756851698602
 20
96.73555783509936
 10
196.5756851698602
 20
95.32134427272621
 10
197.07712237353147
 20
94.81990706905496
 10
198.38993835081823
 20
95.69511772057947
 10
199.52540889576667
 20
95.69511772057947
 10
200.8441857544294
 20
93.84883011845169
 10
200.3656995296319
 20
92.41337144405915
 10
200.84614673493138
 20
91.45247703346016
  0
LWPOLYLINE
  5
A4
330
17
100
AcDbEntity
  8
ENG_D
100
AcDbPolyline
 90
5
 70
1
 10
197.08105976171402
 20
92.45894707691727
 10
197.37374136280536
 20
92.16626547582595
 10
197.48226476759004
 20
92.70888249974918
 10
197.19616088915123
 20
92.8042504592288
 10
197.08105976171402
 20
92.45894707691727
  0
LWPOLYLINE
  5
A5
330
17
100
AcDbEntity
  8
ENG_D
100
AcDbPolyline
 90
72
 70
1
 10
173.73102627903705
 20
173.65268239832997
 10
173.74615662299354
 20
173.21390242359203
 10
172.06265008872657
 20
176.24421418527248
 10
172.06265008872657
 20
181.07497773965986
 10
173.00545913030862
 20
182.9605958228241
 10
173.00545913030862
 20
185.34284794314314
 10
174.7890019551961
 20
187.6359744322842
 10
178.10757552567665
 20
187.16189249364413
 10
178.5646823068632
 20
187.6189992748306
 10
180.22219895032373
 20
187.6189992748306
 10
180.69360347111476
 20
186.67619023324855
 10
182.53118061906707
 20
186.67619023324855
 10
183.47398966064915
 20
185.7333811916666
 10
182.90495406692028
 20
185.1643455979377
 10
182.90495406692028
 20
183.42175069554466
 10
183.87021507822172
 20
181.0085981672911
 10
183.42744953065852
 20
180.12306707216476
 10
184.36011739383434
 20
179.19039920898894
 10
186.10259781438702
 20
180.15844388707382
 10
185.19437828081786
 20
181.52077318742755
 10
186.0705206557333
 20
182.39691556234294
 10
184.8563070933601
 20
183.2063912705917
 10
183.84776310850236
 20
184.71920724787827
 10
183.84776310850236
 20
185.83101226460442
 10
184.69294107714663
 20
186.67619023324855
 10
187.54763437262451
 20
186.67619023324855
 10
188.9618479349976
 20
187.6189992748306
 10
191.29260436822105
 20
187.6189992748306
 10
192.2555751091556
 20
188.58197001576528
 10
194.61259771311074
 20
188.11056549497417
 10
196.4255217554589
 20
189.9234895373223
 10
198.01993141511355
 20
190.98642931042542
 10
198.41931393599026
 20
190.58704678954874
 10
198.92722202890704
 20
189.5712306037153
 10
199.39933526317023
 20
184.85009826108322
 10
200.8183258569795
 20
181.53912020886165
 10
200.8183258569795
 20
179.46643442199994
 10
198.53772337129314
 20
178.199433041063
 10
195.27258271859822
 20
177.7329843763923
 10
194.7623686902012
 20
177.22277034799538
 10
192.8212225028811
 20
177.70805689482538
 10
190.49281850741016
 20
176.77669529663697
 10
189.13084391014155
 20
176.77669529663697
 10
188.6594393893505
 20
176.3052907758459
 10
186.28032004992374
 20
176.3052907758459
 10
184.79057215008444
 20
175.2411851331035
 10
184.79057215008444
 20
174.79344614053505
 10
182.57316993610107
 20
172.57604392655156
 10
179.46745589162524
 20
171.02318690431372
 10
179.09974782952926
 20
172.1263110906016
 10
179.60512242138307
 20
172.63168568245547
 10
179.60512242138307
 20
173.3792325781619
 10
179.13371790059205
 20
173.85063709895297
 10
179.13371790059205
 20
176.8743263695748
 10
179.60512242138307
 20
177.34573089036576
 10
179.60512242138307
 20
178.5646823068633
 10
179.13371790059205
 20
179.03608682765426
 10
179.13371790059205
 20
184.88820322302223
 10
179.60512242138307
 20
185.3596077438133
 10
179.60512242138307
 20
186.50630565588034
 10
179.24475946080392
 20
186.62642664274009
 10
178.19090885901
 20
184.729495559511
 10
178.19090885901
 20
178.0932777860722
 10
177.71950433821894
 20
177.62187326528124
 10
177.71950433821894
 20
176.8743263695748
 10
178.19090885901
 20
176.4029218487837
 10
178.19090885901
 20
175.26485066132602
 10
177.71950433821894
 20
174.79344614053505
 10
177.71950433821894
 20
172.63168568245547
 10
178.19090885901
 20
172.1602811616644
 10
178.19090885901
 20
170.67942734501474
 10
173.73102627903705
 20
173.65268239832997
  0
LWPOLYLINE
  5
A6
330
17
100
AcDbEntity
  8
ENG_D
100
AcDbPolyline
 90
12
 70
1
 10
173.70801904111713
 20
174.31989229800726
 10
175.3624817342638
 20
176.38797066444056
 10
175.3624817342638
 20
178.3170528806126
 10
176.76376718867695
 20
179.25124318355466
 10
176.31483247321265
 20
183.7405903381979
 10
175.83388625505484
 20
184.22153655635566
 10
175.83388625505484
 20
185.6357501187288
 10
175.40927780199792
 20
186.0603585717857
 10
174.89107721347276
 20
185.19669092424385
 10
174.89107721347276
 20
181.83600100373576
 10
173.48125263917922
 20
180.8961179542067
 10
173.70801904111713
 20
174.31989229800726
  0
LWPOLYLINE
  5
A7
330
17
100
AcDbEntity
  8
ENG_D
100
AcDbPolyline
 90
12
 70
1
 10
193.38086617828708
 20
184.32654921031966
 10
190.4950156090718
 20
184.1045607049955
 10
190.64584658514786
 20
183.35040582461525
 10
192.3640088890121
 20
183.1049540669203
 10
192.16500564555008
 20
181.71193136268639
 10
192.84411697887523
 20
182.11939816268153
 10
193.1059689469549
 20
182.9049540669203
 10
194.15337681927338
 20
182.9049540669203
 10
195.19218810099056
 20
183.52824083595064
 10
195.61623459518572
 20
185.22442681273122
 10
195.11467553975302
 20
186.0603585717856
 10
193.38086617828708
 20
184.32654921031966
  0
LWPOLYLINE
  5
A8
330
17
100
AcDbEntity
  8
ENG_D
100
AcDbPolyline
 90
5
 70
1
 10
192.5267137893464
 20
186.02468157120978
 10
191.0053934457867
 20
186.1937171649386
 10
190.7251616137624
 20
185.9134853329144
 10
192.2464819573221
 20
185.74444973918546
 10
192.5267137893464
 20
186.02468157120978
  0
LWPOLYLINE
  5
A9
330
17
100
AcDbEntity
  8
ENG_D
100
AcDbPolyline
 90
5
 70
1
 10
188.09040379562165
 20
183.27872751477358
 10
187.78566594149729
 20
183.58346536889792
 10
187.6550640040154
 20
182.6692518065248
 10
188.09040379562165
 20
182.6692518065248
 10
188.09040379562165
 20
183.27872751477358
  0
LWPOLYLINE
  5
AA
330
17
100
AcDbEntity
  8
ENG_D
100
AcDbPolyline
 90
5
 70
1
 10
200.51179847561565
 20
111.48716916707902
 10
198.46130325302437
 20
111.48716916707902
 10
198.46130325302437
 20
113.70612058357644
 10
198.9869961045125
 20
114.23181343506472
 10
200.51179847561565
 20
111.48716916707902
  0
LWPOLYLINE
  5
AB
330
17
100
AcDbEntity
  8
ENG_D
100
AcDbPolyline
 90
4
 70
1
 10
200.4445524091263
 20
84.85281374238573
 10
199.63981455500192
 20
84.04807588826147
 10
199.63981455500192
 20
85.65755159651
 10
200.4445524091263
 20
84.85281374238573
  0
LWPOLYLINE
  5
AC
330
17
100
AcDbEntity
  8
ENG_D
100
AcDbPolyline
 90
4
 70
1
 10
199.63981455500192
 20
84.99088492984353
 10
199.63981455500192
 20
86.60036063809207
 10
200.4445524091263
 20
85.7956227839678
 10
199.63981455500192
 20
84.99088492984353
  0
LWPOLYLINE
  5
AD
330
17
100
AcDbEntity
  8
ENG_D
100
AcDbPolyline
 90
4
 70
1
 10
198.2256009926288
 20
113.27515617730555
 10
198.2256009926288
 20
114.88463188555387
 10
199.0303388467532
 20
114.0798940314297
 10
198.2256009926288
 20
113.27515617730555
  0
LWPOLYLINE
  5
AE
330
17
100
AcDbEntity
  8
ENG_D
100
AcDbPolyline
 90
5
 70
1
 10
196.84645295292177
 20
120.78256298729583
 10
198.05355973410832
 20
121.18493191435809
 10
198.6619399907538
 20
120.57655165771241
 10
197.4548332095673
 20
120.17418273065029
 10
196.84645295292177
 20
120.78256298729583
  0
LWPOLYLINE
  5
AF
330
17
100
AcDbEntity
  8
ENG_D
100
AcDbPolyline
 90
32
 70
1
 10
194.69006708669608
 20
34.27907766560823
 10
194.69006708669608
 20
35.229195037724814
 10
193.22168422029065
 20
36.20811694866188
 10
194.16097080462427
 20
38.55633340949582
 10
193.21056777769132
 20
39.12657522565566
 10
191.29260436822105
 20
39.12657522565566
 10
190.46090643775008
 20
39.95827315612666
 10
190.2430029129666
 20
41.483597829610865
 10
187.5213682018928
 20
41.483597829610865
 10
187.04996368110176
 20
41.95500235040184
 10
187.9927727226838
 20
42.8978113919839
 10
190.0316636346894
 20
42.8978113919839
 10
190.91883092036772
 20
42.45422774914465
 10
192.85098913352255
 20
43.42030685572207
 10
193.3734845972608
 20
42.8978113919839
 10
192.33304448274095
 20
41.857371277464026
 10
192.33304448274095
 20
40.74521227463879
 10
193.66392471178068
 20
40.55508652763318
 10
194.12103149296723
 20
41.012193308819775
 10
195.25910268042495
 20
41.012193308819775
 10
196.0968990680429
 20
40.17439692120184
 10
196.32254828178986
 20
37.24095714249154
 10
196.913637338514
 20
37.24095714249154
 10
197.48551398347806
 20
38.19408488409826
 10
197.04708969065123
 20
39.07093346975199
 10
197.04708969065123
 20
41.58122890254856
 10
197.51849421144223
 20
42.052633423339756
 10
198.46130325302434
 20
41.10982438175759
 10
198.46130325302434
 20
36.71391086579667
 10
197.47650489440818
 20
34.744314148564385
 10
196.14081791466845
 20
33.40862716882476
 10
194.69006708669608
 20
34.27907766560823
  0
LWPOLYLINE
  5
B0
330
17
100
AcDbEntity
  8
ENG_D
100
AcDbPolyline
 90
5
 70
1
 10
197.15009535544286
 20
43.09844812971353
 10
197.60981136867855
 20
41.71930009000635
 10
196.5756851698602
 20
41.71930009000635
 10
196.5756851698602
 20
42.52403794413062
 10
197.15009535544286
 20
43.09844812971353
  0
LWPOLYLINE
  5
B1
330
17
100
AcDbEntity
  8
ENG_D
100
AcDbPolyline
 90
5
 70
1
 10
194.21866256590505
 20
161.45604837092841
 10
194.21866256590505
 20
162.2607862250528
 10
194.79307275148778
 20
162.83519641063538
 10
195.25278876472342
 20
161.45604837092841
 10
194.21866256590505
 20
161.45604837092841
  0
LWPOLYLINE
  5
B2
330
17
100
AcDbEntity
  8
ENG_D
100
AcDbPolyline
 90
5
 70
1
 10
193.06874674313642
 20
161.0536794438663
 10
190.83549758703455
 20
160.73464385013747
 10
190.18312865997228
 20
161.38701277719957
 10
192.41637781607426
 20
161.7060483709284
 10
193.06874674313642
 20
161.0536794438663
  0
LWPOLYLINE
  5
B3
330
17
100
AcDbEntity
  8
ENG_D
100
AcDbPolyline
 90
13
 70
1
 10
192.33304448274095
 20
120.77718839544194
 10
192.33304448274095
 20
118.25724897191736
 10
191.50249623333576
 20
116.87300188957528
 10
189.35624036522702
 20
117.40956585660246
 10
187.60500295996857
 20
120.16151035058009
 10
187.8900953914292
 20
121.58697250788309
 10
189.0332128372037
 20
121.81559599703795
 10
189.0332128372037
 20
122.46754433273044
 10
188.43410050652213
 20
123.0666566634121
 10
190.43617949180745
 20
124.49671308147303
 10
191.8969592285505
 20
123.62024523942716
 10
191.41556491059154
 20
121.69466796759131
 10
192.33304448274095
 20
120.77718839544194
  0
LWPOLYLINE
  5
B4
330
17
100
AcDbEntity
  8
ENG_D
100
AcDbPolyline
 90
4
 70
1
 10
189.2689150975992
 20
84.04807588826147
 10
189.2689150975992
 20
85.65755159651
 10
190.07365295172357
 20
84.85281374238573
 10
189.2689150975992
 20
84.04807588826147
  0
LWPOLYLINE
  5
B5
330
17
100
AcDbEntity
  8
ENG_D
100
AcDbPolyline
 90
12
 70
1
 10
189.57221574805232
 20
89.53682626741578
 10
189.0332128372037
 20
88.99782335656725
 10
189.0332128372037
 20
86.32266906066255
 10
189.65028936614436
 20
85.08851600278133
 10
188.6341688000066
 20
85.08851600278133
 10
187.14759475403957
 20
89.05271345869336
 10
187.14759475403957
 20
91.35484596052234
 10
186.61509642590997
 20
91.88734428865197
 10
187.57220320709652
 20
93.48252225729625
 10
188.56180831641268
 20
92.49291714798002
 10
188.56180831641268
 20
91.05243741487534
 10
189.57221574805232
 20
89.53682626741578
  0
LWPOLYLINE
  5
B6
330
17
100
AcDbEntity
  8
ENG_D
100
AcDbPolyline
 90
18
 70
1
 10
185.7333811916665
 20
152.319301971407
 10
186.15369476951037
 20
153.15992912709476
 10
185.7333811916665
 20
153.58024270493854
 10
185.7333811916665
 20
155.50785010513678
 10
185.23797171851743
 20
156.49866905143494
 10
186.71312875971614
 20
159.94070214756516
 10
187.52136820189278
 20
160.74894158974183
 10
188.78543142634052
 20
160.74894158974183
 10
189.02813324434658
 20
156.13760704762646
 10
189.50461735799473
 20
155.66112293397828
 10
189.50461735799473
 20
153.62223202197256
 10
189.08430378015086
 20
152.781604866285
 10
189.50461735799473
 20
152.36129128844112
 10
189.50461735799473
 20
146.50917489307312
 10
188.62546931828766
 20
145.63002685336602
 10
187.70344471068378
 20
145.937368389234
 10
185.7333811916665
 20
148.89246366775987
 10
185.7333811916665
 20
152.319301971407
  0
LWPOLYLINE
  5
B7
330
17
100
AcDbEntity
  8
ENG_D
100
AcDbPolyline
 90
31
 70
1
 10
178.30419322196482
 20
29.227080289043972
 10
177.6368244496242
 20
29.227080289043972
 10
175.23819051438366
 20
31.1459874372364
 10
172.59625641137177
 20
32.34686657496921
 10
171.58185193401414
 20
34.375675529684344
 10
172.08918725259142
 20
37.419687441147985
 10
173.08354176274747
 20
37.7511389445333
 10
175.45935239781102
 20
34.900166182457056
 10
176.81397737146133
 20
35.09368403583568
 10
177.2666728048681
 20
37.35716120286947
 10
177.71950433821894
 20
37.80999273622032
 10
177.71950433821894
 20
39.048007805523866
 10
176.24891208404173
 20
41.0087974777601
 10
177.72251693370026
 20
43.07184426728205
 10
180.0765269421741
 20
39.67160758837529
 10
180.0765269421741
 20
36.67192154876264
 10
179.60512242138307
 20
36.20051702797167
 10
179.60512242138307
 20
35.426703961533576
 10
180.4789454074862
 20
34.11596948237883
 10
181.5769995629062
 20
33.45713698912678
 10
186.3209897728355
 20
32.508338947141
 10
186.77382130618636
 20
32.05550741379015
 10
188.18803486855947
 20
32.05550741379015
 10
189.0332128372037
 20
31.210329445145902
 10
189.0332128372037
 20
28.991378028648484
 10
188.19265370387993
 20
28.991378028648484
 10
187.48554692269337
 20
30.16988933062603
 10
185.13583264927283
 20
30.16988933062603
 10
184.19302360769078
 20
31.584102892999177
 10
180.18981130512896
 20
31.584102892999177
 10
178.30419322196482
 20
29.227080289043972
  0
LWPOLYLINE
  5
B8
330
17
100
AcDbEntity
  8
ENG_D
100
AcDbPolyline
 90
9
 70
1
 10
185.8538838641751
 20
43.34634431320416
 10
186.77382130618636
 20
42.42640687119281
 10
185.80568279517163
 20
41.45826836017819
 10
183.92006471200753
 20
41.92967288096916
 10
183.0160651780314
 20
41.02567334699303
 10
180.79814512561703
 20
40.708827625219655
 10
181.78378681974203
 20
42.351563782094594
 10
183.7960916119599
 20
43.86079237625795
 10
185.8538838641751
 20
43.34634431320416
  0
LWPOLYLINE
  5
B9
330
17
100
AcDbEntity
  8
ENG_D
100
AcDbPolyline
 90
6
 70
1
 10
186.73863036985298
 20
40.689859986528745
 10
186.40281876844335
 20
39.682425182299916
 10
184.76053946720418
 20
38.58757231480714
 10
184.24701537495844
 20
39.101096407052836
 10
185.64276647752047
 20
41.05514795063969
 10
186.73863036985298
 20
40.689859986528745
  0
LWPOLYLINE
  5
BA
330
17
100
AcDbEntity
  8
ENG_D
100
AcDbPolyline
 90
4
 70
1
 10
186.30241678539534
 20
97.58073580374361
 10
185.49767893127097
 20
96.77599794961932
 10
185.49767893127097
 20
98.38547365786788
 10
186.30241678539534
 20
97.58073580374361
  0
LWPOLYLINE
  5
BB
330
17
100
AcDbEntity
  8
ENG_D
100
AcDbPolyline
 90
4
 70
1
 10
185.02627441047994
 20
99.60442507436551
 10
185.02627441047994
 20
101.21390078261405
 10
185.8310122646043
 20
100.40916292848978
 10
185.02627441047994
 20
99.60442507436551
  0
LWPOLYLINE
  5
BC
330
17
100
AcDbEntity
  8
ENG_D
100
AcDbPolyline
 90
5
 70
1
 10
183.8995713852169
 20
118.08683245815355
 10
182.9949843191662
 20
118.08683245815355
 10
182.33689540329843
 20
119.40301028988898
 10
183.5551207928966
 20
119.809085419755
 10
183.8995713852169
 20
118.08683245815355
  0
LWPOLYLINE
  5
BD
330
17
100
AcDbEntity
  8
ENG_D
100
AcDbPolyline
 90
4
 70
1
 10
177.95520659861447
 20
171.4531743804778
 10
178.75994445273884
 20
170.64843652635352
 10
177.95520659861447
 20
169.84369867222927
 10
177.95520659861447
 20
171.4531743804778
  0
LWPOLYLINE
  5
BE
330
17
100
AcDbEntity
  8
ENG_D
100
AcDbPolyline
 90
5
 70
1
 10
174.89107721347276
 20
179.2313489735299
 10
175.46548739905546
 20
179.80575915911268
 10
175.92520341229113
 20
178.4266111194056
 10
174.89107721347276
 20
178.4266111194056
 10
174.89107721347276
 20
179.2313489735299
  0
LWPOLYLINE
  5
BF
330
17
100
AcDbEntity
  8
ENG_D
100
AcDbPolyline
 90
40
 70
1
 10
152.63743366335643
 20
121.1509618432952
 10
150.7518155801923
 20
121.1509618432952
 10
149.80900653861025
 20
122.09377088487727
 10
147.7371191303749
 20
122.09377088487727
 10
147.1060169303518
 20
119.35899468477717
 10
149.04469984223368
 20
117.85113019775795
 10
153.15082750118145
 20
117.85113019775795
 10
154.33636410244327
 20
118.44389849838876
 10
154.6072027812851
 20
116.54802774649598
 10
155.159685730307
 20
115.99554479747398
 10
154.21687668872494
 20
114.58133123510095
 10
154.6206828194584
 20
114.17752510436752
 10
154.6206828194584
 20
112.91140797803733
 10
143.36067971278806
 20
112.42184262557342
 10
142.8629036015202
 20
114.41294707064486
 10
140.94995171651848
 20
115.84766098439614
 10
140.94995171651848
 20
116.57036898752204
 10
142.2891305943409
 20
117.37387631421548
 10
144.66147914251962
 20
117.58954436405
 10
144.23153223906814
 20
119.30933197785588
 10
145.12499401358016
 20
120.64952463962386
 10
143.77837884126464
 20
121.99613981193946
 10
143.77837884126464
 20
123.88175789510359
 10
143.2093432475358
 20
124.45079348883247
 10
142.93320087262043
 20
124.45079348883247
 10
140.7698475752707
 20
122.28744019148274
 10
140.46471694537624
 20
125.03361586053285
 10
142.2683328025351
 20
126.32191290136063
 10
144.57272009039673
 20
126.78279035893303
 10
146.0019490930826
 20
129.16483869674266
 10
149.06145964290386
 20
129.16483869674266
 10
150.94707772606796
 20
127.27922061357854
 10
152.32894596213492
 20
127.27922061357854
 10
153.67787377787633
 20
126.46986392413362
 10
153.67787377787633
 20
125.29597145747672
 10
153.2473330230199
 20
124.86543070262024
 10
154.14927829866738
 20
122.61056751350152
 10
154.14927829866738
 20
120.58192624956632
 10
153.6778737778763
 20
120.11052172877534
 10
152.63743366335643
 20
121.1509618432952
  0
LWPOLYLINE
  5
C0
330
17
100
AcDbEntity
  8
ENG_D
100
AcDbPolyline
 90
5
 70
1
 10
150.0181043688846
 20
123.96555328364268
 10
150.88598391872944
 20
123.09767373379788
 10
151.79225569471222
 20
123.64143679938744
 10
151.79225569471222
 20
123.7684253585507
 10
150.0181043688846
 20
123.96555328364268
  0
LWPOLYLINE
  5
C1
330
17
100
AcDbEntity
  8
ENG_D
100
AcDbPolyline
 90
106
 70
1
 10
130.0939247785823
 20
137.09480743699498
 10
129.66157268696637
 20
135.36539907053125
 10
131.61949237363567
 20
133.40747938386198
 10
130.61991602505037
 20
132.40790303527672
 10
131.56272506663245
 20
130.0508804313215
 10
131.05045677990682
 20
129.53861214459593
 10
131.05045677990682
 20
128.7910652488895
 10
131.85519463403108
 20
127.98632739476513
 10
130.26781566125402
 20
127.98632739476513
 10
128.78089398788657
 20
129.04841430431335
 10
128.36770166331024
 20
128.22202965516072
 10
127.20368627611231
 20
128.22202965516072
 10
125.36829127865539
 20
129.53302608191564
 10
125.66839708605609
 20
131.0335551189191
 10
128.2220296551606
 20
131.26570353429236
 10
128.2220296551606
 20
135.1954663940883
 10
127.75062513436957
 20
135.66687091487938
 10
127.75062513436957
 20
139.95150091903275
 10
127.32120993061267
 20
140.81033132654653
 10
127.24918793069826
 20
140.88235332646093
 10
125.73898601557812
 20
139.87555204971426
 10
125.36715413670949
 20
140.99104768631997
 10
128.08229121754005
 20
144.69350734199793
 10
130.01337435778495
 20
145.17627812705925
 10
132.4646703422799
 20
146.73619375355605
 10
132.4646703422799
 20
148.86619749702822
 10
129.63624321753372
 20
151.6946246217744
 10
129.63624321753372
 20
153.30410033002318
 10
130.8882547258485
 20
154.55611183833796
 10
130.10764773832474
 20
154.94641533209986
 10
130.10764773832474
 20
156.2281260147833
 10
131.56499082987733
 20
156.51959463309385
 10
132.91104912921637
 20
155.7119596534904
 10
133.12930449602277
 20
154.6206828194584
 10
134.44791949838182
 20
154.6206828194584
 10
134.75712196511455
 20
154.31148035272568
 10
135.14742545887646
 20
155.0920873402495
 10
136.36205053021078
 20
155.0920873402495
 10
137.33596529870823
 20
153.63121518750333
 10
139.01876676250262
 20
152.91001456016295
 10
139.241874897396
 20
152.2406901554828
 10
140.98640556801945
 20
151.99147148825077
 10
140.46292244423336
 20
148.85057274553415
 10
140.0071426749364
 20
148.39479297623726
 10
140.0071426749364
 20
143.68074776832697
 10
139.53573815414538
 20
143.20934324753586
 10
139.53573815414538
 20
142.46179635182943
 10
140.07080367681138
 20
141.9267308291634
 10
140.3818930528966
 20
142.03042728785852
 10
139.95605173198925
 20
142.88210992967322
 10
140.48592877675372
 20
143.4119869744378
 10
140.9549135088134
 20
149.50878849121375
 10
141.75930840596328
 20
150.84944665313017
 10
142.4617963518294
 20
150.84944665313017
 10
143.77837884126464
 20
149.53286416369494
 10
143.77837884126464
 20
146.98057941386412
 10
143.3745727105312
 20
146.57677328313068
 10
144.31738175211325
 20
145.16255972075754
 10
143.87600991420243
 20
144.72118788284672
 10
145.3130950761463
 20
143.28410272090298
 10
147.24054759979782
 20
142.80223958999005
 10
147.71677157510976
 20
141.84979163936617
 10
148.641495247675
 20
141.5415504151778
 10
147.07821048680188
 20
139.45717073401366
 10
147.07821048680188
 20
137.74775114391912
 10
148.11865060132178
 20
136.70731102939914
 10
148.7528649604754
 20
136.70731102939914
 10
148.97440065380184
 20
138.701132269337
 10
150.34150486673983
 20
140.06823648227495
 10
151.93668283538406
 20
139.1111297010884
 10
150.3780421323391
 20
137.55248899804351
 10
150.3780421323391
 20
132.56230141521775
 10
150.84944665313014
 20
132.09089689442678
 10
150.84944665313014
 20
131.19612878805643
 10
151.9544577487704
 20
130.64362324023625
 10
150.84944665313014
 20
129.53861214459593
 10
148.97440065380184
 20
131.41365814392424
 10
148.76176541836125
 20
133.3273752628893
 10
147.5315296385762
 20
132.9172966696276
 10
146.681539841628
 20
133.34229156810173
 10
145.6639969244288
 20
131.91773148402285
 10
145.6639969244288
 20
130.38582262616404
 10
144.17231398847036
 20
130.08748603897234
 10
141.9062407962738
 20
132.35355923116887
 10
141.70567495432462
 20
133.75752012481323
 10
140.81228518676065
 20
133.3108252410312
 10
140.32073909964342
 20
134.78546350238295
 10
139.06433363335435
 20
134.53418240912518
 10
139.06433363335435
 20
137.27634662312803
 10
139.46567768897276
 20
137.67769067874647
 10
137.5820267782025
 20
140.3985197720813
 10
136.69125994019163
 20
139.86405966927484
 10
136.24293811339862
 20
136.27748505493088
 10
136.7421089859088
 20
135.27914330991064
 10
134.78089001827544
 20
132.19722778934394
 10
133.878883904653
 20
134.30190872112968
 10
133.878883904653
 20
136.60967995646146
 10
133.40747938386195
 20
137.08108447725243
 10
133.40747938386195
 20
139.11997538925803
 10
133.81579558243428
 20
139.93660778640282
 10
132.02864445210415
 20
141.2769711341504
 10
131.89026015669722
 20
141.69212402037112
 10
130.59921395846825
 20
140.40107782214218
 10
131.0706184792593
 20
138.04405521818697
 10
130.10764773832474
 20
137.08108447725255
 10
130.0939247785823
 20
137.09480743699498
  0
LWPOLYLINE
  5
C2
330
17
100
AcDbEntity
  8
ENG_D
100
AcDbPolyline
 90
4
 70
1
 10
129.77431440499154
 20
137.41441781058572
 10
129.63624321753375
 20
137.55248899804351
 10
129.49817203007598
 20
137.41441781058572
 10
129.77431440499154
 20
137.41441781058572
  0
LWPOLYLINE
  5
C3
330
17
100
AcDbEntity
  8
ENG_D
100
AcDbPolyline
 90
5
 70
1
 10
144.6181822180551
 20
141.15058845424798
 10
144.68721781178397
 20
141.3576952354345
 10
144.35278902684735
 20
141.69212402037112
 10
144.28375343311848
 20
141.4850172391846
 10
144.6181822180551
 20
141.15058845424798
  0
LWPOLYLINE
  5
C4
330
17
100
AcDbEntity
  8
ENG_D
100
AcDbPolyline
 90
4
 70
1
 10
139.86907148747872
 20
140.24284493533202
 10
139.9158255177001
 20
140.24284493533202
 10
139.90413701014478
 20
140.27791045799808
 10
139.86907148747872
 20
140.24284493533202
  0
LWPOLYLINE
  5
C5
330
17
100
AcDbEntity
  8
ENG_D
100
AcDbPolyline
 90
6
 70
1
 10
135.26302073007338
 20
147.2059182966925
 10
136.16375425427321
 20
148.46694523057224
 10
135.72796472221785
 20
148.9027347626275
 10
134.82169294623506
 20
148.35897169703793
 10
134.82169294623506
 20
147.6472460805308
 10
135.26302073007338
 20
147.2059182966925
  0
LWPOLYLINE
  5
C6
330
17
100
AcDbEntity
  8
ENG_D
100
AcDbPolyline
 90
4
 70
1
 10
140.71424945612296
 20
121.95569969741949
 10
141.51898731024733
 20
121.1509618432952
 10
140.71424945612296
 20
120.34622398917094
 10
140.71424945612296
 20
121.95569969741949
  0
LWPOLYLINE
  5
C7
330
17
100
AcDbEntity
  8
ENG_D
100
AcDbPolyline
 90
5
 70
1
 10
141.0529573813101
 20
118.52317145627833
 10
141.5126733945458
 20
117.14402341657149
 10
140.47854719572743
 20
117.14402341657149
 10
140.47854719572743
 20
117.94876127069575
 10
141.0529573813101
 20
118.52317145627833
  0
LWPOLYLINE
  5
C8
330
17
100
AcDbEntity
  8
ENG_D
100
AcDbPolyline
 90
11
 70
1
 10
132.95416023208767
 20
156.01611818838813
 10
132.06181151436755
 20
156.3135677609615
 10
131.49785634833984
 20
157.44147809301688
 10
132.33863648555732
 20
159.40329841319112
 10
134.8670850540684
 20
158.39191898578665
 10
136.3693588607454
 20
158.39191898578665
 10
137.20090161260703
 20
157.0060143993507
 10
136.87719560676737
 20
156.03489638183154
 10
134.2526573525062
 20
156.03489638183154
 10
133.83234377466232
 20
156.45520995967544
 10
132.95416023208767
 20
156.01611818838813
  0
LWPOLYLINE
  5
C9
330
17
100
AcDbEntity
  8
ENG_D
100
AcDbPolyline
 90
6
 70
1
 10
133.36811202402848
 20
109.30758511041505
 10
130.97236200387943
 20
111.70333513056407
 10
132.84857728662038
 20
114.11561192265962
 10
137.21643675560594
 20
112.83094737295806
 10
136.91739685523527
 20
111.33574787110467
 10
133.36811202402848
 20
109.30758511041505
  0
LWPOLYLINE
  5
CA
330
17
100
AcDbEntity
  8
ENG_D
100
AcDbPolyline
 90
19
 70
1
 10
133.91616597947746
 20
118.58418974204066
 10
133.42605237130215
 20
121.03475778291728
 10
132.91074539363828
 20
121.55006476058105
 10
133.39336971217378
 20
123.48056203472302
 10
132.86790519650606
 20
124.53149106605832
 10
134.30545390737606
 20
125.48985687330516
 10
134.1639494273191
 20
125.91437031347597
 10
133.37124994000973
 20
126.17860347591237
 10
133.78248331201587
 20
128.2347703359432
 10
134.5304116885299
 20
126.738913582915
 10
135.83723049090975
 20
125.95482230148714
 10
135.36126713359096
 20
125.0028955868494
 10
136.8415760861234
 20
124.0160229518278
 10
136.23590650860814
 20
123.41035337431249
 10
136.23590650860814
 20
122.19140195781509
 10
136.7073110293992
 20
121.71999743702399
 10
136.7073110293992
 20
119.6714625342904
 10
135.88609619289892
 20
118.30277114012333
 10
133.91616597947746
 20
118.58418974204066
  0
LWPOLYLINE
  5
CB
330
17
100
AcDbEntity
  8
ENG_D
100
AcDbPolyline
 90
5
 70
1
 10
135.91357318631708
 20
116.84588101957138
 10
134.6210562085056
 20
117.27672001217526
 10
135.7645019878171
 20
118.42016579148674
 10
136.26987657967092
 20
117.914791199633
 10
135.91357318631708
 20
116.84588101957138
  0
LWPOLYLINE
  5
CC
330
17
100
AcDbEntity
  8
ENG_D
100
AcDbPolyline
 90
4
 70
1
 10
134.1145861650485
 20
133.2694081964042
 10
134.91932401917288
 20
132.46467034227993
 10
134.1145861650485
 20
131.65993248815568
 10
134.1145861650485
 20
133.2694081964042
  0
LWPOLYLINE
  5
CD
330
17
100
AcDbEntity
  8
ENG_D
100
AcDbPolyline
 90
4
 70
1
 10
131.75756356109335
 20
247.19656169871706
 10
133.8158318652233
 20
245.96160071623908
 10
131.75756356109335
 20
245.54994705541299
 10
131.75756356109335
 20
247.19656169871706
  0
LWPOLYLINE
  5
CE
330
17
100
AcDbEntity
  8
ENG_D
100
AcDbPolyline
 90
4
 70
1
 10
131.28615904030232
 20
126.47448275945405
 10
131.28615904030232
 20
128.08395846770293
 10
132.09089689442666
 20
127.27922061357866
 10
131.28615904030232
 20
126.47448275945405
  0
LWPOLYLINE
  5
CF
330
17
100
AcDbEntity
  8
ENG_D
100
AcDbPolyline
 90
9
 70
1
 10
130.46973379794295
 20
127.27922061357854
 10
131.1480878528446
 20
127.27922061357854
 10
131.61949237363567
 20
126.80781609278758
 10
130.5790522591158
 20
125.76737597826771
 10
130.5790522591158
 20
122.93894885352152
 10
129.69990421940872
 20
122.0598008138144
 10
128.77787961180485
 20
122.36714234968238
 10
127.69182007000607
 20
123.9962316623805
 10
130.46973379794295
 20
127.27922061357854
  0
LWPOLYLINE
  5
D0
330
17
100
AcDbEntity
  8
ENG_D
100
AcDbPolyline
 90
5
 70
1
 10
130.21065340311645
 20
109.09508104045773
 10
130.67036941635206
 20
107.71593300075078
 10
129.63624321753372
 20
107.71593300075078
 10
129.63624321753372
 20
108.52067085487516
 10
130.21065340311645
 20
109.09508104045773
  0
LWPOLYLINE
  5
D1
330
17
100
AcDbEntity
  8
ENG_D
100
AcDbPolyline
 90
15
 70
1
 10
127.75062513436957
 20
105.52324775498501
 10
127.75062513436957
 20
106.63505277171103
 10
128.2220296551606
 20
107.10645729250201
 10
128.65680019216518
 20
106.67168675549743
 10
129.70745159524498
 20
108.24766386011709
 10
130.12642593176818
 20
106.99074085054727
 10
129.6873341604809
 20
106.11255730797275
 10
130.10764773832474
 20
105.69224373012898
 10
130.10764773832474
 20
102.39241208459171
 10
130.72347939978766
 20
101.77658042312888
 10
129.19314767267963
 20
100.85838138686398
 10
128.02139291743111
 20
101.24896630528013
 10
128.69343417595167
 20
101.92100756380074
 10
128.69343417595167
 20
104.10903419261186
 10
127.75062513436957
 20
105.52324775498501
  0
LWPOLYLINE
  5
D2
330
17
100
AcDbEntity
  8
ENG_D
100
AcDbPolyline
 90
5
 70
1
 10
126.23311145905475
 20
243.72180628896746
 10
125.10026801801719
 20
244.85464973000504
 10
128.76074483193688
 20
245.13622486953724
 10
131.14547873832134
 20
243.43284350783412
 10
126.23311145905475
 20
243.72180628896746
  0
LWPOLYLINE
  5
D3
330
17
100
AcDbEntity
  8
ENG_D
100
AcDbPolyline
 90
10
 70
1
 10
129.06720762380485
 20
159.80613254815978
 10
129.82947285048556
 20
159.80613254815978
 10
130.11893072105056
 20
158.35884319533466
 10
128.18004033812653
 20
154.48106242948668
 10
126.88528546637288
 20
153.18630755773287
 10
125.39360253041443
 20
153.48464414492457
 10
125.39360253041443
 20
155.68134299123815
 10
127.27922061357854
 20
157.0955565536113
 10
127.27922061357854
 20
158.01814553793346
 10
129.06720762380485
 20
159.80613254815978
  0
LWPOLYLINE
  5
D4
330
17
100
AcDbEntity
  8
ENG_D
100
AcDbPolyline
 90
13
 70
1
 10
125.38779378009157
 20
28.663853445638043
 10
125.68149028368428
 20
33.65669400671389
 10
126.48208358014612
 20
32.05550741379015
 10
127.37685168651639
 20
32.05550741379015
 10
128.2220296551606
 20
31.210329445145902
 10
128.2220296551606
 20
29.60085373689725
 10
127.7350003828755
 20
29.11382446461208
 10
127.26359586208447
 20
26.285397339865902
 10
125.69834038453878
 20
24.7201418623203
 10
125.37930479080994
 20
26.95339101842209
 10
125.86500705120545
 20
27.439093278817662
 10
125.86500705120545
 20
28.1866401745241
 10
125.38779378009157
 20
28.663853445638043
  0
LWPOLYLINE
  5
D5
330
17
100
AcDbEntity
  8
ENG_D
100
AcDbPolyline
 90
4
 70
1
 10
127.95126187209907
 20
126.23340590720477
 10
126.572113832392
 20
125.77368989396919
 10
126.572113832392
 20
127.61255394691196
 10
127.95126187209907
 20
126.23340590720477
  0
LWPOLYLINE
  5
D6
330
17
100
AcDbEntity
  8
ENG_D
100
AcDbPolyline
 90
23
 70
1
 10
123.93284883805066
 20
121.2020527862424
 10
124.87565787963271
 20
120.73064826545132
 10
125.31026919708107
 20
121.1652595828997
 10
127.30300725767277
 20
120.88058271710078
 10
126.80069363673566
 20
116.35976012866678
 10
125.55342137475941
 20
114.28097302537287
 10
125.85452878262018
 20
118.19536932756303
 10
124.89388903368646
 20
118.77175317692323
 10
123.61880643443675
 20
118.34672564383996
 10
121.69278313112456
 20
116.90220816635576
 10
115.58411844005768
 20
117.3721054502841
 10
114.55129855222069
 20
116.3392855624471
 10
113.60848951063863
 20
117.28209460402917
 10
113.60848951063863
 20
118.43422910007762
 10
116.35277956027112
 20
120.67955732250412
 10
118.21213768506777
 20
120.67955732250412
 10
120.53004937646755
 20
123.46105135218389
 10
121.79297132532388
 20
124.09251232661211
 10
122.10505386760303
 20
122.53209961521617
 10
121.67345730703335
 20
121.6689064940768
 10
122.66280647860606
 20
120.67955732250412
 10
123.41035337431245
 20
120.67955732250412
 10
123.93284883805066
 20
121.2020527862424
  0
LWPOLYLINE
  5
D7
330
17
100
AcDbEntity
  8
ENG_D
100
AcDbPolyline
 90
4
 70
1
 10
124.07702004097915
 20
26.39865316429779
 10
123.2722821868548
 20
25.59391531017352
 10
123.2722821868548
 20
27.203391018422064
 10
124.07702004097915
 20
26.39865316429779
  0
LWPOLYLINE
  5
D8
330
17
100
AcDbEntity
  8
ENG_D
100
AcDbPolyline
 90
5
 70
1
 10
123.55979272396482
 20
24.748737341529157
 10
122.0937708848772
 20
24.748737341529157
 10
122.0937708848772
 20
26.097133220874923
 10
123.21534213164452
 20
26.470990303130826
 10
123.55979272396482
 20
24.748737341529157
  0
LWPOLYLINE
  5
D9
330
17
100
AcDbEntity
  8
ENG_D
100
AcDbPolyline
 90
5
 70
1
 10
122.6564925629045
 20
124.21509122843688
 10
121.62236636408618
 20
124.21509122843688
 10
121.62236636408618
 20
125.01982908256126
 10
122.19677654966885
 20
125.59423926814384
 10
122.6564925629045
 20
124.21509122843688
  0
LWPOLYLINE
  5
DA
330
17
100
AcDbEntity
  8
ENG_D
100
AcDbPolyline
 90
5
 70
1
 10
121.62236636408618
 20
130.20527881126253
 10
122.28947432433654
 20
130.87238677151313
 10
122.58400266420807
 20
127.04351835318317
 10
121.62236636408618
 20
127.04351835318317
 10
121.62236636408618
 20
130.20527881126253
  0
LWPOLYLINE
  5
DB
330
17
100
AcDbEntity
  8
ENG_D
100
AcDbPolyline
 90
13
 70
1
 10
119.24860970464456
 20
29.779381827286457
 10
119.73674828092206
 20
30.267520403563843
 10
119.73674828092206
 20
32.47127017867757
 10
119.21425281718385
 20
33.51626110615391
 10
120.17161553611382
 20
34.47362382508379
 10
121.60126543136954
 20
33.615833887930435
 10
122.1031645187986
 20
30.604439363356217
 10
121.65865398068901
 20
29.715418287136973
 10
122.61982428881267
 20
28.273662824951472
 10
120.77617546233263
 20
25.90325719090569
 10
119.02295983855632
 20
26.253900315660882
 10
119.7200142254356
 20
26.950954702540166
 10
119.24860970464456
 20
29.779381827286457
  0
LWPOLYLINE
  5
DC
330
17
100
AcDbEntity
  8
ENG_D
100
AcDbPolyline
 90
4
 70
1
 10
119.0296414997355
 20
25.122510789382435
 10
119.0296414997355
 20
26.73198649763131
 10
119.83437935385984
 20
25.927248643506708
 10
119.0296414997355
 20
25.122510789382435
  0
LWPOLYLINE
  5
DD
330
17
100
AcDbEntity
  8
ENG_D
100
AcDbPolyline
 90
4
 70
1
 10
118.42016579148674
 20
33.469720976163295
 10
117.6154279373624
 20
32.66498312203869
 10
117.6154279373624
 20
34.27445883028757
 10
118.42016579148674
 20
33.469720976163295
  0
LWPOLYLINE
  5
DE
330
17
100
AcDbEntity
  8
ENG_D
100
AcDbPolyline
 90
4
 70
1
 10
114.78700081261623
 20
231.12628637506316
 10
114.78700081261623
 20
232.73576208331215
 10
115.59173866674054
 20
231.93102422918764
 10
114.78700081261623
 20
231.12628637506316
  0
LWPOLYLINE
  5
DF
330
17
100
AcDbEntity
  8
ENG_D
100
AcDbPolyline
 90
7
 70
1
 10
112.624816703122
 20
124.39402618182915
 10
113.64331548737503
 20
126.94027314246182
 10
114.65430421701234
 20
127.95126187209915
 10
115.04148126645514
 20
126.78973072377065
 10
114.03790471439558
 20
124.78257761965162
 10
113.13708498984762
 20
123.88175789510359
 10
112.624816703122
 20
124.39402618182915
  0
LWPOLYLINE
  5
E0
330
17
100
AcDbEntity
  8
ENG_D
100
AcDbPolyline
 90
4
 70
1
 10
113.84419177103415
 20
234.62138016647626
 10
114.6489296251585
 20
233.81664231235177
 10
113.84419177103415
 20
233.01190445822795
 10
113.84419177103415
 20
234.62138016647626
  0
LWPOLYLINE
  5
E1
330
17
100
AcDbEntity
  8
ENG_D
100
AcDbPolyline
 90
4
 70
1
 10
113.37278725024312
 20
233.48330897901891
 10
113.37278725024312
 20
235.09278468726725
 10
114.17752510436748
 20
234.28804683314274
 10
113.37278725024312
 20
233.48330897901891
  0
LWPOLYLINE
  5
E2
330
17
100
AcDbEntity
  8
ENG_D
100
AcDbPolyline
 90
4
 70
1
 10
112.9013827294521
 20
113.47041832318095
 10
113.70612058357644
 20
112.66568046905667
 10
112.9013827294521
 20
111.86094261493207
 10
112.9013827294521
 20
113.47041832318095
  0
LWPOLYLINE
  5
E3
330
17
100
AcDbEntity
  8
ENG_D
100
AcDbPolyline
 90
7
 70
1
 10
111.57380022897452
 20
238.1217231360755
 10
112.66568046905658
 20
237.75776305604813
 10
112.66568046905658
 20
236.71643433930421
 10
113.63284820253186
 20
235.26568273909132
 10
113.20409469177682
 20
233.97942220682611
 10
111.2280856222895
 20
237.08457931602032
 10
111.57380022897452
 20
238.1217231360755
  0
LWPOLYLINE
  5
E4
330
17
100
AcDbEntity
  8
ENG_D
100
AcDbPolyline
 90
68
 70
1
 10
84.82748427295306
 20
48.010959517180154
 10
83.70936796307416
 20
49.129075827059054
 10
84.8708991114026
 20
49.51625287650185
 10
86.81214080167202
 20
48.54563203136708
 10
89.35160112704608
 20
48.12238864380469
 10
89.57424053132229
 20
51.01670089939559
 10
90.03826347108705
 20
51.48072383916025
 10
90.03826347108705
 20
52.22827073486669
 10
89.53288887923323
 20
52.733645326720534
 10
89.86837889371891
 20
53.74011537017764
 10
92.8110488399294
 20
53.74011537017764
 10
93.81691702497973
 20
54.24304946270275
 10
97.17192542105168
 20
52.3259018078045
 10
98.1497713974724
 20
52.3259018078045
 10
100.39568289031648
 20
50.07999031496047
 10
100.87063762049749
 20
46.75530720369325
 10
101.80965483971167
 20
45.34678137487202
 10
102.27620802421369
 20
43.01401545236183
 10
103.35379411361394
 20
41.936429362961604
 10
105.71081671756913
 20
41.465024842170514
 10
106.57828546470773
 20
40.597556095031905
 10
105.59461265719109
 20
38.13837407624043
 10
105.59461265719109
 20
36.67192154876264
 10
105.12320813640007
 20
36.20051702797167
 10
105.12320813640007
 20
33.073850792838314
 10
106.22378869317376
 20
31.533038013355164
 10
106.9886694389977
 20
31.150597640443255
 10
111.62818904748195
 20
34.39826136638213
 10
113.20184533574076
 20
34.712992624034044
 10
112.68584216840905
 20
32.132976787375476
 10
113.13708498984761
 20
31.681733965936985
 10
113.13708498984761
 20
30.576008104785444
 10
112.36107569878853
 20
29.282659286353542
 10
111.31709756516926
 20
28.760670219543982
 10
106.17234218878522
 20
28.2929651853272
 10
105.23431924751118
 20
27.354942244053106
 10
101.93448760197397
 20
26.88353772326213
 10
101.43853449549069
 20
26.387584616778813
 10
98.94910752711644
 20
26.664187613264833
 10
99.48007553805886
 20
29.319027667976894
 10
100.39459307843079
 20
30.690803978534852
 10
99.91759670834624
 20
33.075785828957535
 10
100.88056744928079
 20
34.03875656989208
 10
100.88056744928079
 20
37.17988055191812
 10
99.85584146279908
 20
39.024387327585174
 10
98.59490974753173
 20
38.1837661840736
 10
97.20696235589035
 20
38.1837661840736
 10
95.32134427272622
 20
36.29814810090948
 10
93.43572618956212
 20
36.29814810090948
 10
92.88685229518573
 20
35.749274206533066
 10
93.3644744951148
 20
33.36116320688775
 10
91.8603207863874
 20
32.35839406773622
 10
90.07936614622213
 20
29.559751061762118
 10
88.03644132754494
 20
31.602675880439413
 10
85.67941872358973
 20
32.07408040123039
 10
84.83265204303322
 20
32.92084708178689
 10
85.1309886302249
 20
34.41253001774525
 10
86.16939623182095
 20
34.41253001774525
 10
86.64080075261204
 20
34.88393453853633
 10
85.79562278396777
 20
35.72911250718058
 10
85.79562278396777
 20
38.281397257011406
 10
86.73843182554982
 20
39.224206298593465
 10
86.73843182554982
 20
39.99801936503155
 10
84.92712084832908
 20
42.71498583086264
 10
83.93718978635309
 20
43.209951361850685
 10
83.40787088340775
 20
45.85654587657717
 10
84.41473943128727
 20
46.35998015051701
 10
84.82748427295306
 20
48.010959517180154
  0
LWPOLYLINE
  5
E5
330
17
100
AcDbEntity
  8
ENG_D
100
AcDbPolyline
 90
4
 70
1
 10
110.87769345883025
 20
232.40242874997864
 10
110.0729556047059
 20
231.5976908958548
 10
110.0729556047059
 20
233.20716660410312
 10
110.87769345883025
 20
232.40242874997864
  0
LWPOLYLINE
  5
E6
330
17
100
AcDbEntity
  8
ENG_D
100
AcDbPolyline
 90
9
 70
1
 10
110.3597488080486
 20
124.02592909803201
 10
109.32385950648528
 20
121.95415049490543
 10
107.59643480073323
 20
120.22672578915339
 10
106.22425006479232
 20
119.95228884196518
 10
105.59461265719109
 20
120.58192624956632
 10
105.59461265719109
 20
122.66280647860606
 10
107.38259966741741
 20
124.45079348883237
 10
109.93488441724818
 20
124.45079348883237
 10
110.3597488080486
 20
124.02592909803201
  0
LWPOLYLINE
  5
E7
330
17
100
AcDbEntity
  8
ENG_D
100
AcDbPolyline
 90
7
 70
1
 10
105.5840405733553
 20
115.1309062297854
 10
106.16364825091993
 20
114.5512985522208
 10
104.18039909481803
 20
112.56804939611887
 10
103.23759005323595
 20
113.51085843770082
 10
103.23759005323595
 20
115.1035743452794
 10
105.29339152488956
 20
117.74674766597681
 10
105.5840405733553
 20
115.1309062297854
  0
LWPOLYLINE
  5
E8
330
17
100
AcDbEntity
  8
ENG_D
100
AcDbPolyline
 90
13
 70
1
 10
104.42278301639281
 20
235.37560872336184
 10
102.86381660538261
 20
233.81664231235177
 10
101.92100756380054
 20
233.81664231235177
 10
101.44960304300952
 20
233.3452377915608
 10
98.62117591826335
 20
233.3452377915608
 10
98.05214032453459
 20
232.77620219783213
 10
98.05214032453459
 20
231.2239174480011
 10
97.10933128295252
 20
231.2239174480011
 10
97.10933128295252
 20
233.91427338528948
 10
97.95450925159686
 20
234.75945135393394
 10
100.36377082065695
 20
234.75945135393394
 10
102.74370383494872
 20
235.71142455965054
 10
104.42278301639281
 20
235.37560872336184
  0
LWPOLYLINE
  5
E9
330
17
100
AcDbEntity
  8
ENG_D
100
AcDbPolyline
 90
5
 70
1
 10
103.77143471063141
 20
229.7230728237325
 10
103.38666125173597
 20
228.5687524470461
 10
102.23234087504945
 20
228.95352590594143
 10
102.61711433394488
 20
230.1078462826278
 10
103.77143471063141
 20
229.7230728237325
  0
LWPOLYLINE
  5
EA
330
17
100
AcDbEntity
  8
ENG_D
100
AcDbPolyline
 90
4
 70
1
 10
103.33522112617375
 20
113.13708498984765
 10
102.5304832720494
 20
112.33234713572338
 10
102.5304832720494
 20
113.94182284397192
 10
103.33522112617375
 20
113.13708498984765
  0
LWPOLYLINE
  5
EB
330
17
100
AcDbEntity
  8
ENG_D
100
AcDbPolyline
 90
4
 70
1
 10
98.75924710572113
 20
25.59391531017352
 10
98.75924710572113
 20
27.203391018422064
 10
99.56398495984548
 20
26.39865316429779
 10
98.75924710572113
 20
25.59391531017352
  0
LWPOLYLINE
  5
EC
330
17
100
AcDbEntity
  8
ENG_D
100
AcDbPolyline
 90
5
 70
1
 10
98.52354484532562
 20
115.59173866674067
 10
99.09795503090831
 20
116.16614885232323
 10
99.55767104414396
 20
114.78700081261628
 10
98.52354484532562
 20
114.78700081261628
 10
98.52354484532562
 20
115.59173866674067
  0
LWPOLYLINE
  5
ED
330
17
100
AcDbEntity
  8
ENG_D
100
AcDbPolyline
 90
5
 70
1
 10
99.55767104414402
 20
226.98127676088185
 10
98.52354484532562
 20
226.98127676088185
 10
98.52354484532562
 20
227.78601461500614
 10
99.09795503090832
 20
228.3604248005886
 10
99.55767104414402
 20
226.98127676088185
  0
LWPOLYLINE
  5
EE
330
17
100
AcDbEntity
  8
ENG_D
100
AcDbPolyline
 90
16
 70
1
 10
72.18955135502665
 20
142.80259840074362
 10
71.6534871602368
 20
142.2665342059538
 10
71.6534871602368
 20
140.82865511535826
 10
69.85491287628894
 20
139.54395919825257
 10
67.48319769113132
 20
139.28043528879064
 10
67.2409618957494
 20
140.00714267493652
 10
65.9180654906126
 20
140.00714267493652
 10
63.93265662198412
 20
141.49619932640778
 10
63.01915594657513
 20
143.01870045208943
 10
64.94271275805126
 20
143.29349428230043
 10
65.99663291074445
 20
144.34741443499354
 10
66.56566850447332
 20
143.77837884126464
 10
69.10323492332982
 20
143.77837884126464
 10
69.31503754372184
 20
144.83739194322465
 10
70.2803762729988
 20
145.80273067250172
 10
72.18955135502665
 20
142.80259840074362
  0
LWPOLYLINE
  5
EF
330
17
100
AcDbEntity
  8
ENG_D
100
AcDbPolyline
 90
21
 70
1
 10
64.98245896695626
 20
145.1925924036378
 10
63.76563134241664
 20
146.00381081999757
 10
63.31276369451914
 20
144.64520787630508
 10
60.765791074209716
 20
145.6639969244289
 10
59.7707430675232
 20
145.6639969244289
 10
58.92556509887896
 20
146.50917489307312
 10
58.92556509887896
 20
148.08630527501566
 10
59.734921788323796
 20
149.435233090757
 10
61.18495662989627
 20
149.435233090757
 10
61.736499355812896
 20
149.98677581667374
 10
64.09352195976805
 20
148.10115773350952
 10
65.42759731701558
 20
149.435233090757
 10
67.01080685453259
 20
149.435233090757
 10
68.22763447907224
 20
148.62401467439733
 10
68.88212183957248
 20
150.587476755898
 10
69.28388056924528
 20
148.5786831075341
 10
70.82826328065468
 20
146.0047119218516
 10
69.7042080751977
 20
145.63002685336602
 10
69.24992442629097
 20
146.08431050227279
 10
67.46648822902118
 20
145.1925924036378
 10
64.98245896695626
 20
145.1925924036378
  0
LWPOLYLINE
  5
F0
330
17
100
AcDbEntity
  8
ENG_D
100
AcDbPolyline
 90
4
 70
1
 10
68.92269110842844
 20
150.37804213233917
 10
68.11795325430408
 20
149.57330427821492
 10
68.11795325430408
 20
151.18277998646346
 10
68.92269110842844
 20
150.37804213233917
  0
LWPOLYLINE
  5
F1
330
17
100
AcDbEntity
  8
ENG_D
100
AcDbPolyline
 90
33
 70
1
 10
65.99663291074444
 20
194.7727469752908
 10
65.99663291074444
 20
193.3513878617892
 10
68.35365551469958
 20
190.05155621625192
 10
68.35365551469958
 20
187.08230900740796
 10
67.57764622364058
 20
185.7889601889763
 10
64.62399789469403
 20
184.31213602450302
 10
60.688435878922775
 20
184.80408127647442
 10
58.45416057808793
 20
187.53486219971705
 10
58.45416057808793
 20
190.07365295172363
 10
58.92556509887896
 20
190.5450574725147
 10
58.92556509887896
 20
191.25678308902184
 10
58.00618726212292
 20
191.80840979107538
 10
55.154328932550705
 20
189.39529889682194
 10
55.154328932550705
 20
187.71663034776853
 10
57.11209927004981
 20
185.75886001026942
 10
55.625733453341745
 20
183.67794786687807
 10
54.211519890968646
 20
185.6578468542005
 10
54.211519890968646
 20
187.9927727226839
 10
53.74011537017761
 20
188.46417724347498
 10
53.74011537017761
 20
193.3734845972609
 10
54.211519890968646
 20
193.84488911805187
 10
54.211519890968646
 20
194.78769815963392
 10
55.48611306336994
 20
196.06229133203533
 10
57.45570978060201
 20
197.04708969065132
 10
60.8825480842492
 20
197.04708969065132
 10
62.195364061535926
 20
196.1718790391268
 10
62.57962602304462
 20
196.55614100063556
 10
60.339778661252055
 20
198.3480188900696
 10
60.339778661252055
 20
199.61507590409698
 10
62.78336379062609
 20
199.8865853629165
 10
63.616738707218495
 20
199.05321044632407
 10
64.0915007859915
 20
197.15416213123194
 10
65.99663291074444
 20
194.7727469752908
  0
LWPOLYLINE
  5
F2
330
17
100
AcDbEntity
  8
ENG_D
100
AcDbPolyline
 90
19
 70
1
 10
59.88899071967308
 20
187.73724692698056
 10
60.81118318204309
 20
188.65943938935058
 10
62.32302781735402
 20
187.14759475403963
 10
63.52433214827099
 20
187.14759475403963
 10
65.05382386916237
 20
189.11408410947138
 10
65.05382386916237
 20
189.40698628505703
 10
63.499989916817285
 20
190.960820237402
 10
61.71084067829523
 20
191.85539485666314
 10
60.99463749207044
 20
191.77581672486033
 10
61.77415392297764
 20
190.9963002939532
 10
61.505544971624694
 20
189.65325553718858
 10
61.524971624408785
 20
189.64937020663174
 10
61.49971697578946
 20
189.6241155580124
 10
61.37898829547124
 20
189.02047215642136
 10
61.21801672171363
 20
189.34241530393658
 10
60.339778661252076
 20
188.46417724347498
 10
59.86837414046103
 20
188.93558176426595
 10
59.45365092806686
 20
188.52085855187184
 10
59.88899071967308
 20
187.73724692698056
  0
LWPOLYLINE
  5
F3
330
17
100
AcDbEntity
  8
ENG_D
100
AcDbPolyline
 90
4
 70
1
 10
60.18460985004777
 20
187.2051324923061
 10
60.28560880016569
 20
187.02333438209385
 10
60.305808590189265
 20
187.0839337521646
 10
60.18460985004777
 20
187.2051324923061
  0
LWPOLYLINE
  5
F4
330
17
100
AcDbEntity
  8
ENG_D
100
AcDbPolyline
 90
5
 70
1
 10
61.01338011991687
 20
189.7516885075301
 10
60.68087582219588
 20
190.41669710297205
 10
59.940711279293886
 20
190.2686641943917
 10
60.048726250271386
 20
189.94461928145913
 10
61.01338011991687
 20
189.7516885075301
  0
LWPOLYLINE
  5
F5
330
17
100
AcDbEntity
  8
ENG_D
100
AcDbPolyline
 90
4
 70
1
 10
63.5102120882899
 20
195.38850089892435
 10
63.70327130866424
 20
195.19544167854997
 10
63.78601097453891
 20
195.22302156717487
 10
63.5102120882899
 20
195.38850089892435
  0
LWPOLYLINE
  5
F6
330
17
100
AcDbEntity
  8
ENG_D
100
AcDbPolyline
 90
10
 70
1
 10
58.55179165102577
 20
193.27585352432297
 10
62.02097325780601
 20
193.27585352432297
 10
62.2044993228086
 20
194.5605359793411
 10
59.439631177854814
 20
196.04931113431624
 10
59.02319617181677
 20
195.6328761282783
 10
58.06362732956456
 20
195.6328761282783
 10
56.13777757202938
 20
194.13499298352866
 10
56.267022551500915
 20
193.74725804511405
 10
58.08038713023474
 20
193.74725804511405
 10
58.55179165102577
 20
193.27585352432297
  0
LWPOLYLINE
  5
F7
330
17
100
AcDbEntity
  8
ENG_D
100
AcDbPolyline
 90
5
 70
1
 10
67.41084647311753
 20
151.41848224685904
 10
67.98525665870021
 20
151.99289243244164
 10
68.44497267193586
 20
150.61374439273467
 10
67.41084647311753
 20
150.61374439273467
 10
67.41084647311753
 20
151.41848224685904
  0
LWPOLYLINE
  5
F8
330
17
100
AcDbEntity
  8
ENG_D
100
AcDbPolyline
 90
4
 70
1
 10
67.17514421272202
 20
183.98583429596016
 10
67.17514421272202
 20
185.59531000420904
 10
67.97988206684636
 20
184.79057215008444
 10
67.17514421272202
 20
183.98583429596016
  0
LWPOLYLINE
  5
F9
330
17
100
AcDbEntity
  8
ENG_D
100
AcDbPolyline
 90
5
 70
1
 10
65.49125831889062
 20
153.14280825521033
 10
65.89362724595279
 20
154.34991503639694
 10
67.91622106497135
 20
152.32732121737834
 10
67.51385213790918
 20
151.12021443619173
 10
65.49125831889062
 20
153.14280825521033
  0
LWPOLYLINE
  5
FA
330
17
100
AcDbEntity
  8
ENG_D
100
AcDbPolyline
 90
6
 70
1
 10
66.93705767714738
 20
154.07282722312544
 10
66.9346969582386
 20
154.04254402778727
 10
63.5530477813704
 20
153.66680523035748
 10
62.599170192269405
 20
154.62068281945852
 10
63.09825954191016
 20
155.11977216909924
 10
66.93705767714738
 20
154.07282722312544
  0
LWPOLYLINE
  5
FB
330
17
100
AcDbEntity
  8
ENG_D
100
AcDbPolyline
 90
4
 70
1
 10
64.68005042130916
 20
157.92051446499568
 10
63.875312567184785
 20
157.1157766108714
 10
63.875312567184785
 20
158.72525231911993
 10
64.68005042130916
 20
157.92051446499568
  0
LWPOLYLINE
  5
FC
330
17
100
AcDbEntity
  8
ENG_D
100
AcDbPolyline
 90
12
 70
1
 10
64.12554970276179
 20
219.05391023511834
 10
62.35996634382168
 20
218.29723165271542
 10
60.77151008459421
 20
216.708775393488
 10
57.38683331224411
 20
209.45589659559494
 10
55.934935920074466
 20
210.1818452916796
 10
56.568542494923804
 20
210.81545186652906
 10
56.568542494923804
 20
214.0603934099401
 10
58.01569011857257
 20
217.91945373967025
 10
60.21245665750195
 20
220.11622027859957
 10
63.001049218481334
 20
221.04575113225943
 10
63.7993310977078
 20
222.64231489071219
 10
64.12554970276179
 20
219.05391023511834
  0
LWPOLYLINE
  5
FD
330
17
100
AcDbEntity
  8
ENG_D
100
AcDbPolyline
 90
6
 70
1
 10
60.63268171618073
 20
161.87320477655865
 10
62.62777720354587
 20
160.44813657129785
 10
64.34671708797579
 20
158.15621672539126
 10
62.867217778971074
 20
158.15621672539126
 10
60.320015082826366
 20
159.68453834307806
 10
60.63268171618073
 20
161.87320477655865
  0
LWPOLYLINE
  5
FE
330
17
100
AcDbEntity
  8
ENG_D
100
AcDbPolyline
 90
5
 70
1
 10
64.14707955676512
 20
227.45268128167285
 10
63.168205785998246
 20
227.45268128167285
 10
63.168205785998246
 20
229.20022817737907
 10
63.80627697345592
 20
229.83829936483713
 10
64.14707955676512
 20
227.45268128167285
  0
LWPOLYLINE
  5
FF
330
17
100
AcDbEntity
  8
ENG_D
100
AcDbPolyline
 90
4
 70
1
 10
60.908814254980896
 20
161.6917506313239
 10
60.10407640085654
 20
160.88701277719963
 10
60.10407640085654
 20
162.49648848544817
 10
60.908814254980896
 20
161.6917506313239
  0
LWPOLYLINE
  5
100
330
17
100
AcDbEntity
  8
ENG_D
100
AcDbPolyline
 90
4
 70
1
 10
59.16126735927448
 20
161.3584172979904
 10
59.16126735927448
 20
162.96789300623925
 10
59.966005213398816
 20
162.163155152115
 10
59.16126735927448
 20
161.3584172979904
  0
LWPOLYLINE
  5
101
330
17
100
AcDbEntity
  8
ENG_D
100
AcDbPolyline
 90
4
 70
1
 10
59.494600692607776
 20
162.63455967290597
 10
58.68986283848344
 20
161.82982181878168
 10
58.68986283848344
 20
163.43929752703056
 10
59.494600692607776
 20
162.63455967290597
  0
LWPOLYLINE
  5
102
330
17
100
AcDbEntity
  8
ENG_K
100
AcDbPolyline
 90
5
 70
1
 10
227.30801765017864
 20
72.60288864585529
 10
228.56588264569018
 20
71.34502365034368
 10
222.5003121587852
 20
72.01897592666661
 10
222.50612815557642
 20
72.28276267954858
 10
227.30801765017864
 20
72.60288864585529
  0
LWPOLYLINE
  5
103
330
17
100
AcDbEntity
  8
ENG_K
100
AcDbPolyline
 90
5
 70
1
 10
221.49768463518043
 20
86.11795610625872
 10
221.88245809407601
 20
87.27227648294533
 10
223.03677847076247
 20
86.8875030240499
 10
222.65200501186698
 20
85.7331826473633
 10
221.49768463518043
 20
86.11795610625872
  0
LWPOLYLINE
  5
104
330
17
100
AcDbEntity
  8
ENG_K
100
AcDbPolyline
 90
12
 70
1
 10
218.7173999074342
 20
95.61178438724616
 10
219.08863984410516
 20
98.21046394394273
 10
220.1459112094118
 20
95.74349742489386
 10
220.1459112094118
 20
94.37853523114414
 10
221.08872025099384
 20
93.43572618956209
 10
221.08872025099384
 20
92.02151262718905
 10
221.56012477178487
 20
91.55010810639797
 10
221.56012477178487
 20
89.80256121069164
 10
220.70734598244871
 20
89.80256121069164
 10
219.6822848710219
 20
91.85268343354525
 10
219.216582206003
 20
95.11260208867733
 10
218.7173999074342
 20
95.61178438724616
  0
LWPOLYLINE
  5
105
330
17
100
AcDbEntity
  8
ENG_K
100
AcDbPolyline
 90
4
 70
1
 10
219.77213776155858
 20
73.06770072260993
 10
218.9673999074342
 20
72.26296286848566
 10
218.9673999074342
 20
73.8724385767342
 10
219.77213776155858
 20
73.06770072260993
  0
LWPOLYLINE
  5
106
330
17
100
AcDbEntity
  8
ENG_K
100
AcDbPolyline
 90
4
 70
1
 10
218.4959953866432
 20
98.66161603278346
 10
218.4959953866432
 20
100.271091741032
 10
219.30073324076756
 20
99.46635388690773
 10
218.4959953866432
 20
98.66161603278346
  0
LWPOLYLINE
  5
107
330
17
100
AcDbEntity
  8
ENG_K
100
AcDbPolyline
 90
7
 70
1
 10
217.1930570654258
 20
90.85368106043823
 10
218.73169764703871
 20
88.69958424618008
 10
218.73169764703871
 20
87.30746741927875
 10
219.30073324076756
 20
86.73843182554985
 10
217.78888860545663
 20
85.22658719023902
 10
216.35451334373107
 20
86.66096245196454
 10
217.1930570654258
 20
90.85368106043823
  0
LWPOLYLINE
  5
108
330
17
100
AcDbEntity
  8
ENG_K
100
AcDbPolyline
 90
5
 70
1
 10
216.1740383053541
 20
73.64211090819272
 10
217.38114508654058
 20
74.04447983525486
 10
217.9895253431861
 20
73.4360995786093
 10
216.78241856199955
 20
73.03373065154706
 10
216.1740383053541
 20
73.64211090819272
  0
LWPOLYLINE
  5
109
330
17
100
AcDbEntity
  8
ENG_K
100
AcDbPolyline
 90
4
 70
1
 10
216.61037730347905
 20
94.14283297074888
 10
217.4151151576034
 20
93.33809511662427
 10
216.61037730347905
 20
92.5333572625
 10
216.61037730347905
 20
94.14283297074888
  0
LWPOLYLINE
  5
10A
330
17
100
AcDbEntity
  8
ENG_K
100
AcDbPolyline
 90
6
 70
1
 10
214.39142588698164
 20
74.95331880577405
 10
215.49715174813318
 20
74.95331880577405
 10
217.30091242372677
 20
73.87106240041786
 10
214.8771281473771
 20
73.52480750379652
 10
213.92002136619058
 20
74.48191428498308
 10
214.39142588698164
 20
74.95331880577405
  0
LWPOLYLINE
  5
10B
330
17
100
AcDbEntity
  8
ENG_K
100
AcDbPolyline
 90
19
 70
1
 10
209.74953293340627
 20
97.1814835372875
 10
211.70358447699306
 20
95.78573243472566
 10
211.223195385445
 20
94.34456516008139
 10
211.66062983517324
 20
93.90713071035317
 10
211.66062983517324
 20
92.9643216687711
 10
213.50930939186978
 20
91.11564211207457
 10
214.96046148071045
 20
87.72962057144629
 10
214.96046148071045
 20
86.64080075261205
 10
213.70106994969314
 20
85.38140922159477
 10
211.70325367639882
 20
83.88304701662396
 10
210.8022662294443
 20
84.18337616560878
 10
209.7855182203018
 20
85.70849817932258
 10
209.72821568427503
 20
85.65119564329582
 10
208.83220271042705
 20
87.14455059970928
 10
208.83220271042705
 20
92.46665097724838
 10
209.72743515053833
 20
93.80949963741536
 10
208.83220271042705
 20
95.15234829758224
 10
208.83220271042705
 20
96.26415331430826
 10
209.74953293340627
 20
97.1814835372875
  0
LWPOLYLINE
  5
10C
330
17
100
AcDbEntity
  8
ENG_K
100
AcDbPolyline
 90
4
 70
1
 10
213.74688465606684
 20
22.995815853968814
 10
212.36773661635976
 20
22.536099840733236
 10
212.36773661635976
 20
24.374963893675993
 10
213.74688465606684
 20
22.995815853968814
  0
LWPOLYLINE
  5
10D
330
17
100
AcDbEntity
  8
ENG_K
100
AcDbPolyline
 90
4
 70
1
 10
209.87264282494692
 20
28.284271247461913
 10
209.06790497082255
 20
27.47953339333764
 10
209.06790497082255
 20
29.089009101586182
 10
209.87264282494692
 20
28.284271247461913
  0
LWPOLYLINE
  5
10E
330
17
100
AcDbEntity
  8
ENG_K
100
AcDbPolyline
 90
4
 70
1
 10
208.59650045003153
 20
27.950937914128392
 10
208.59650045003153
 20
29.56041362237727
 10
209.40123830415587
 20
28.755675768253
 10
208.59650045003153
 20
27.950937914128392
  0
LWPOLYLINE
  5
10F
330
17
100
AcDbEntity
  8
ENG_K
100
AcDbPolyline
 90
4
 70
1
 10
208.92983378336484
 20
29.227080289043972
 10
208.1250959292405
 20
28.4223424349197
 10
208.1250959292405
 20
30.031818143168245
 10
208.92983378336484
 20
29.227080289043972
  0
LWPOLYLINE
  5
110
330
17
100
AcDbEntity
  8
ENG_K
100
AcDbPolyline
 90
16
 70
1
 10
201.11404828553898
 20
32.938296287208345
 10
203.09308122335253
 20
33.92781275611512
 10
205.1332681476039
 20
34.437859487177924
 10
206.94658462726292
 20
32.624543007519044
 10
206.94658462726292
 20
31.681733965936985
 10
208.3947682606988
 20
30.233550332501082
 10
208.02706019860284
 20
29.130426146213082
 10
205.86415519570903
 20
30.21187864766006
 10
204.49193095036992
 20
31.584102892999177
 10
203.24063420756633
 20
31.584102892999177
 10
200.88361160361117
 20
30.16988933062603
 10
198.76282319644721
 20
30.16988933062603
 10
198.4136083742881
 20
31.217533797103457
 10
199.81023106876577
 20
32.05550741379015
 10
200.67265384882987
 20
32.05550741379015
 10
201.11404828553898
 20
32.938296287208345
  0
LWPOLYLINE
  5
111
330
17
100
AcDbEntity
  8
ENG_K
100
AcDbPolyline
 90
11
 70
1
 10
206.00377558568084
 20
94.65467760605961
 10
206.00377558568084
 20
93.90713071035317
 10
206.47518010647187
 20
93.43572618956209
 10
206.47518010647187
 20
92.15958381464672
 10
204.58956202330774
 20
92.15958381464672
 10
204.58956202330774
 20
95.12608212685059
 10
204.1181575025167
 20
95.59748664764167
 10
204.1181575025167
 20
96.80781133952976
 10
205.15158125824485
 20
97.15228592477243
 10
206.54733236080682
 20
95.19823438118557
 10
206.00377558568084
 20
94.65467760605961
  0
LWPOLYLINE
  5
112
330
17
100
AcDbEntity
  8
ENG_K
100
AcDbPolyline
 90
5
 70
1
 10
203.17534846093466
 20
101.58767423046744
 10
203.17534846093466
 20
103.80662564696486
 10
203.82685712297348
 20
104.45813430900353
 10
204.1457971316997
 20
101.58767423046744
 10
203.17534846093466
 20
101.58767423046744
  0
LWPOLYLINE
  5
113
330
17
100
AcDbEntity
  8
ENG_K
100
AcDbPolyline
 90
5
 70
1
 10
202.4331761570821
 20
26.29564749950608
 10
201.22606937589558
 20
25.893278572443947
 10
200.61768911925
 20
26.501658829089504
 10
201.82479590043653
 20
26.90402775615164
 10
202.4331761570821
 20
26.29564749950608
  0
LWPOLYLINE
  5
114
330
17
100
AcDbEntity
  8
ENG_K
100
AcDbPolyline
 90
4
 70
1
 10
199.63981455500192
 20
178.3289800464678
 10
199.63981455500192
 20
179.93845575471667
 10
200.44455240912626
 20
179.13371790059207
 10
199.63981455500192
 20
178.3289800464678
  0
LWPOLYLINE
  5
115
330
17
100
AcDbEntity
  8
ENG_K
100
AcDbPolyline
 90
5
 70
1
 10
198.2606665152949
 20
178.76531904459281
 10
199.46777329648137
 20
179.16768797165494
 10
200.07615355312691
 20
178.5593077150094
 10
198.86904677194036
 20
178.15693878794713
 10
198.2606665152949
 20
178.76531904459281
  0
LWPOLYLINE
  5
116
330
17
100
AcDbEntity
  8
ENG_K
100
AcDbPolyline
 90
50
 70
1
 10
189.9203801228821
 20
42.426406871192924
 10
188.18803486855947
 20
42.426406871192924
 10
187.91233378722777
 20
42.15070578986124
 10
190.6540206793646
 20
41.939806798158344
 10
190.90535088219454
 20
40.18049537834878
 10
191.4878665140967
 20
39.59797974644663
 10
193.34113927095467
 20
39.59797974644663
 10
194.74775884797688
 20
38.75400800023332
 10
193.80142734914637
 20
36.38817925315707
 10
195.16147160748713
 20
35.48148308093002
 10
195.16147160748713
 20
34.51016109068317
 10
195.65835494688096
 20
34.01327775128926
 10
197.09815457029524
 20
35.04170605372803
 10
197.98989873223329
 20
36.82519437760412
 10
197.98989873223329
 20
40.94082840661362
 10
196.8423782489168
 20
42.6621091315883
 10
198.35905334476607
 20
42.6621091315883
 10
199.90207950046903
 20
40.09039887208343
 10
198.9277327421874
 20
37.65453197637936
 10
198.44570118174218
 20
33.31624793237265
 10
197.51849421144226
 20
32.85264444722269
 10
197.51849421144226
 20
31.46280629183884
 10
195.72310633913642
 20
30.180386383048873
 10
192.4441555938521
 20
29.71196484800831
 10
191.95927103488773
 20
29.227080289043972
 10
190.07365295172357
 20
29.227080289043972
 10
189.5682783598697
 20
28.721705697190124
 10
188.56180831641268
 20
29.057195711675753
 10
188.56180831641268
 20
31.01506729927028
 10
187.9927727226838
 20
31.584102892999177
 10
186.6334492624368
 20
31.584102892999177
 10
182.86221309610855
 20
32.99831645537221
 10
181.42545475791553
 20
32.99831645537221
 10
180.14551299765301
 20
33.76628151152972
 10
179.13371790059205
 20
35.28397415712126
 10
179.13371790059205
 20
36.39577917384729
 10
179.60512242138307
 20
36.867183694638264
 10
179.60512242138307
 20
39.51529985785196
 10
177.6687732632842
 20
41.93573630547564
 10
178.513845587351
 20
43.34419017892033
 10
180.9206855465499
 20
43.82555817076017
 10
182.82638664678845
 20
45.254833995938995
 10
185.35960774381326
 20
45.254833995938995
 10
185.8310122646043
 20
44.78342947514802
 10
187.71663034776844
 20
44.78342947514802
 10
188.19860695239524
 20
44.30145287052123
 10
192.44124763951447
 20
43.830048349730255
 10
192.93215681342252
 20
43.33913917582222
 10
190.94035157232884
 20
41.91642114646954
 10
189.9203801228821
 20
42.426406871192924
  0
LWPOLYLINE
  5
117
330
17
100
AcDbEntity
  8
ENG_K
100
AcDbPolyline
 90
5
 70
1
 10
184.83352679190426
 20
39.507365032300456
 10
184.9132607822921
 20
39.26816306113701
 10
186.1618310706377
 20
40.15999898138389
 10
186.08209708024984
 20
40.39920095254745
 10
184.83352679190426
 20
39.507365032300456
  0
LWPOLYLINE
  5
118
330
17
100
AcDbEntity
  8
ENG_K
100
AcDbPolyline
 90
10
 70
1
 10
181.5300114455296
 20
41.40403421797689
 10
181.59374616933883
 20
41.212830046549186
 10
181.86451395240042
 20
41.48359782961075
 10
182.80732299398244
 20
41.48359782961075
 10
183.77546150499722
 20
42.45173634062549
 10
185.66107958816136
 20
41.98033181983452
 10
186.1071546395197
 20
42.42640687119281
 10
185.6128785191579
 20
42.92068299155461
 10
183.90541748483454
 20
43.34754825013554
 10
181.5300114455296
 20
41.40403421797689
  0
LWPOLYLINE
  5
119
330
17
100
AcDbEntity
  8
ENG_K
100
AcDbPolyline
 90
5
 70
1
 10
198.54463658635763
 20
178.67661111940546
 10
199.1970055134199
 20
178.02424219234337
 10
196.96375635731792
 20
177.70520659861455
 10
196.31138743025576
 20
178.35757552567665
 10
198.54463658635763
 20
178.67661111940546
  0
LWPOLYLINE
  5
11A
330
17
100
AcDbEntity
  8
ENG_K
100
AcDbPolyline
 90
5
 70
1
 10
198.05355973410826
 20
142.86953987074546
 10
198.6619399907538
 20
142.2611596140999
 10
197.4548332095673
 20
141.85879068703778
 10
196.84645295292174
 20
142.46717094368333
 10
198.05355973410826
 20
142.86953987074546
  0
LWPOLYLINE
  5
11B
330
17
100
AcDbEntity
  8
ENG_K
100
AcDbPolyline
 90
4
 70
1
 10
197.28279195104676
 20
191.25216425370118
 10
198.0875298051711
 20
190.4474263995769
 10
197.28279195104676
 20
189.64268854545264
 10
197.28279195104676
 20
191.25216425370118
  0
LWPOLYLINE
  5
11C
330
17
100
AcDbEntity
  8
ENG_K
100
AcDbPolyline
 90
7
 70
1
 10
191.8614012609154
 20
83.94012698016407
 10
191.86585174493197
 20
84.01667972600546
 10
195.05326845071352
 20
84.37083713775894
 10
195.5463136028593
 20
84.86388228990471
 10
198.39244475667576
 20
84.54764549503612
 10
196.1548157070905
 20
82.94933903104662
 10
191.8614012609154
 20
83.94012698016407
  0
LWPOLYLINE
  5
11D
330
17
100
AcDbEntity
  8
ENG_K
100
AcDbPolyline
 90
28
 70
1
 10
192.4105138563263
 20
188.0702420962693
 10
191.4878665140967
 20
187.14759475403963
 10
189.10457773940982
 20
187.14759475403963
 10
187.6903641770367
 20
186.20478571245758
 10
184.88820322302223
 20
186.20478571245758
 10
184.3191676292934
 20
185.6357501187288
 10
184.3191676292934
 20
184.87144342235206
 10
185.8756194817064
 20
182.8702910406782
 10
186.80778085847092
 20
182.55957058175676
 10
185.80097958172408
 20
181.04936866663647
 10
186.77382130618636
 20
180.07652694217413
 10
185.84449230277758
 20
179.14719793876543
 10
184.00013203556455
 20
178.8837179005921
 10
182.85386312397316
 20
180.02998681218352
 10
183.353906617992
 20
181.0300738002213
 10
182.43354954612926
 20
183.33096647987813
 10
182.43354954612926
 20
185.3596077438133
 10
182.8073229939825
 20
185.7333811916666
 10
182.33591847319144
 20
186.20478571245758
 10
180.31222920256963
 20
186.20478571245758
 10
180.31222920256963
 20
187.6189992748306
 10
187.09921504972533
 20
187.6189992748306
 10
190.3771361867675
 20
189.0238226192773
 10
195.04526754710906
 20
189.9574488913456
 10
195.54954279494478
 20
190.4617241391814
 10
197.84742766882982
 20
190.13345487148348
 10
194.75309276571696
 20
187.6017263143911
 10
192.4105138563263
 20
188.0702420962693
  0
LWPOLYLINE
  5
11E
330
17
100
AcDbEntity
  8
ENG_K
100
AcDbPolyline
 90
12
 70
1
 10
192.92384655175826
 20
181.43819158470066
 10
191.89304255927658
 20
181.78179291552797
 10
191.66321977637884
 20
182.93090683001657
 10
189.97602187878576
 20
183.1719351011013
 10
189.97602187878576
 20
184.53743526201416
 10
193.17084087035892
 20
184.78319056905823
 10
195.2082676752212
 20
186.82061737392053
 10
196.12092218216162
 20
185.29952652901983
 10
195.6021596347747
 20
183.22447633947215
 10
194.28394831253672
 20
182.43354954612934
 10
193.42152553247263
 20
182.43354954612934
 10
192.92384655175826
 20
181.43819158470066
  0
LWPOLYLINE
  5
11F
330
17
100
AcDbEntity
  8
ENG_K
100
AcDbPolyline
 90
5
 70
1
 10
193.94789478284352
 20
177.61649867342732
 10
192.740788001657
 20
177.2141297463652
 10
192.13240774501145
 20
177.82251000301073
 10
193.33951452619797
 20
178.2248789300729
 10
193.94789478284352
 20
177.61649867342732
  0
LWPOLYLINE
  5
120
330
17
100
AcDbEntity
  8
ENG_K
100
AcDbPolyline
 90
4
 70
1
 10
191.6259377015544
 20
180.686002650423
 10
191.6259377015544
 20
182.29547835867155
 10
192.43067555567876
 20
181.4907405045473
 10
191.6259377015544
 20
180.686002650423
  0
LWPOLYLINE
  5
121
330
17
100
AcDbEntity
  8
ENG_K
100
AcDbPolyline
 90
5
 70
1
 10
190.84136154678254
 20
176.7565335972845
 10
190.2050424780021
 20
177.39285266606475
 10
191.93910933553528
 20
177.7396660375715
 10
192.57542840431555
 20
177.10334696879104
 10
190.84136154678254
 20
176.7565335972845
  0
LWPOLYLINE
  5
122
330
17
100
AcDbEntity
  8
ENG_K
100
AcDbPolyline
 90
4
 70
1
 10
190.68312865997234
 20
182.29547835867155
 10
191.48786651409668
 20
181.4907405045473
 10
190.68312865997234
 20
180.686002650423
 10
190.68312865997234
 20
182.29547835867155
  0
LWPOLYLINE
  5
123
330
17
100
AcDbEntity
  8
ENG_K
100
AcDbPolyline
 90
4
 70
1
 10
189.1308439101415
 20
180.5479314629652
 10
188.32610605601715
 20
179.7431936088406
 10
188.32610605601715
 20
181.3526693170895
 10
189.1308439101415
 20
180.5479314629652
  0
LWPOLYLINE
  5
124
330
17
100
AcDbEntity
  8
ENG_K
100
AcDbPolyline
 90
5
 70
1
 10
187.45233260816394
 20
184.58346536889803
 10
188.56180831641268
 20
183.4739896606492
 10
188.56180831641268
 20
182.19784728573384
 10
187.11153002485477
 20
182.19784728573384
 10
187.45233260816394
 20
184.58346536889803
  0
LWPOLYLINE
  5
125
330
17
100
AcDbEntity
  8
ENG_K
100
AcDbPolyline
 90
7
 70
1
 10
188.72013193582063
 20
176.41975309957047
 10
186.33935531186305
 20
175.39942026073163
 10
185.32563767275042
 20
174.3857026216189
 10
184.20158246729346
 20
174.76038769010472
 10
185.0951769203525
 20
176.24971177853632
 10
186.1652312009541
 20
176.78473891883706
 10
188.72013193582063
 20
176.41975309957047
  0
LWPOLYLINE
  5
126
330
17
100
AcDbEntity
  8
ENG_K
100
AcDbPolyline
 90
10
 70
1
 10
186.1942136286217
 20
153.78607693464997
 10
186.72728117619573
 20
153.253009387076
 10
186.20478571245752
 20
152.20801845959951
 10
186.20478571245752
 20
149.04239599009784
 10
187.8547015352261
 20
146.84250822640644
 10
186.3428568999152
 20
146.84250822640644
 10
185.25900015617432
 20
147.92636497014732
 10
185.53306801145274
 20
156.9706041943346
 10
185.83901060827594
 20
156.98290411776216
 10
186.1942136286217
 20
153.78607693464997
  0
LWPOLYLINE
  5
127
330
17
100
AcDbEntity
  8
ENG_K
100
AcDbPolyline
 90
4
 70
1
 10
184.88820322302223
 20
174.41967269268176
 10
184.0834653688979
 20
173.6149348385575
 10
184.0834653688979
 20
175.22441054680604
 10
184.88820322302223
 20
174.41967269268176
  0
LWPOLYLINE
  5
128
330
17
100
AcDbEntity
  8
ENG_K
100
AcDbPolyline
 90
4
 70
1
 10
184.41679870223118
 20
173.9482681718908
 10
183.61206084810686
 20
173.1435303177662
 10
183.61206084810686
 20
174.75300602601507
 10
184.41679870223118
 20
173.9482681718908
  0
LWPOLYLINE
  5
129
330
17
100
AcDbEntity
  8
ENG_K
100
AcDbPolyline
 90
4
 70
1
 10
180.31222920256963
 20
183.5144297751692
 10
180.31222920256963
 20
185.12390548341773
 10
181.11696705669397
 20
184.31916762929345
 10
180.31222920256963
 20
183.5144297751692
  0
LWPOLYLINE
  5
12A
330
17
100
AcDbEntity
  8
ENG_K
100
AcDbPolyline
 90
4
 70
1
 10
179.8408246817786
 20
172.39598342205986
 10
180.64556253590294
 20
171.5912455679356
 10
179.8408246817786
 20
170.78650771381132
 10
179.8408246817786
 20
172.39598342205986
  0
LWPOLYLINE
  5
12B
330
17
100
AcDbEntity
  8
ENG_K
100
AcDbPolyline
 90
5
 70
1
 10
176.04099303624142
 20
187.3142614207063
 10
178.2742421923433
 20
187.6332970144351
 10
178.92661111940546
 20
186.980928087373
 10
176.69336196330357
 20
186.6618924936442
 10
176.04099303624142
 20
187.3142614207063
  0
LWPOLYLINE
  5
12C
330
17
100
AcDbEntity
  8
ENG_K
100
AcDbPolyline
 90
4
 70
1
 10
177.48380207782344
 20
169.84369867222927
 10
177.48380207782344
 20
171.4531743804778
 10
178.28853993194778
 20
170.64843652635352
 10
177.48380207782344
 20
169.84369867222927
  0
LWPOLYLINE
  5
12D
330
17
100
AcDbEntity
  8
ENG_K
100
AcDbPolyline
 90
4
 70
1
 10
177.01239755703241
 20
170.31510319302
 10
177.01239755703241
 20
171.9245789012689
 10
177.81713541115673
 20
171.1198410471446
 10
177.01239755703241
 20
170.31510319302
  0
LWPOLYLINE
  5
12E
330
17
100
AcDbEntity
  8
ENG_K
100
AcDbPolyline
 90
5
 70
1
 10
176.24162977397089
 20
29.664514738772183
 10
175.63324951732534
 20
30.272894995417744
 10
176.84035629851186
 20
30.67526392247988
 10
177.4487365551574
 20
30.06688366583432
 10
176.24162977397089
 20
29.664514738772183
  0
LWPOLYLINE
  5
12F
330
17
100
AcDbEntity
  8
ENG_K
100
AcDbPolyline
 90
4
 70
1
 10
177.34573089036573
 20
171.5912455679356
 10
176.5409930362414
 20
170.78650771381132
 10
176.5409930362414
 20
172.39598342205986
 10
177.34573089036573
 20
171.5912455679356
  0
LWPOLYLINE
  5
130
330
17
100
AcDbEntity
  8
ENG_K
100
AcDbPolyline
 90
4
 70
1
 10
176.06958851545033
 20
171.2579122346023
 10
176.06958851545033
 20
172.86738794285117
 10
176.87432636957467
 20
172.06265008872657
 10
176.06958851545033
 20
171.2579122346023
  0
LWPOLYLINE
  5
131
330
17
100
AcDbEntity
  8
ENG_K
100
AcDbPolyline
 90
7
 70
1
 10
174.59973319717338
 20
30.40559159102163
 10
171.57453752473543
 20
31.918189427240563
 10
171.9165293188069
 20
34.99611557388383
 10
173.17620111353733
 20
32.476771984423
 10
175.4949387839379
 20
31.549276916262748
 10
176.63862410917918
 20
30.40559159102163
 10
174.59973319717338
 20
30.40559159102163
  0
LWPOLYLINE
  5
132
330
17
100
AcDbEntity
  8
ENG_K
100
AcDbPolyline
 90
4
 70
1
 10
174.51730376561952
 20
186.20478571245758
 10
173.71256591149518
 20
185.4000478583333
 10
173.71256591149518
 20
187.00952356658183
 10
174.51730376561952
 20
186.20478571245758
  0
LWPOLYLINE
  5
133
330
17
100
AcDbEntity
  8
ENG_K
100
AcDbPolyline
 90
9
 70
1
 10
173.48310875638649
 20
182.86180252159022
 10
172.5340546095176
 20
180.96369422785253
 10
172.5340546095176
 20
176.36093253174957
 10
173.15113113845823
 20
175.12677947386834
 10
172.18994464826093
 20
175.12677947386834
 10
169.2342229639804
 20
178.57512143886234
 10
169.2342229639804
 20
181.58837157748508
 10
173.1855632715564
 20
185.53971188506114
 10
173.48310875638649
 20
182.86180252159022
  0
LWPOLYLINE
  5
134
330
17
100
AcDbEntity
  8
ENG_K
100
AcDbPolyline
 90
9
 70
1
 10
154.80078696070618
 20
115.77184280798825
 10
155.0815152564136
 20
113.24528814662128
 10
155.88502251923651
 20
112.44178088379842
 10
144.1542385028695
 20
112.19218973451395
 10
143.45791585430052
 20
112.88851238308307
 10
153.95515852889562
 20
113.13263430574804
 10
154.1291165993149
 20
114.00242465784439
 10
153.58024270493854
 20
114.5512985522208
 10
154.80078696070618
 20
115.77184280798825
  0
LWPOLYLINE
  5
135
330
17
100
AcDbEntity
  8
ENG_K
100
AcDbPolyline
 90
4
 70
1
 10
152.9707669966898
 20
125.72693586374773
 10
153.77550485081414
 20
124.92219800962346
 10
152.9707669966898
 20
124.11746015549919
 10
152.9707669966898
 20
125.72693586374773
  0
LWPOLYLINE
  5
136
330
17
100
AcDbEntity
  8
ENG_K
100
AcDbPolyline
 90
26
 70
1
 10
148.00293415936721
 20
133.42625757730542
 10
149.16076031812008
 20
134.00517065668194
 10
149.42542270520508
 20
131.6232091729168
 10
153.85810363870442
 20
126.69800813569543
 10
152.6714037344193
 20
126.30244150093372
 10
152.16602914256543
 20
126.80781609278758
 10
150.7518155801923
 20
126.80781609278758
 10
148.86619749702817
 20
128.6934341759517
 10
146.26885379735708
 20
128.6934341759517
 10
144.86965567529674
 20
126.36143730585114
 10
142.4561126578244
 20
125.87872870235661
 10
140.98477858088467
 20
124.89783931773013
 10
140.02350082466725
 20
125.21826523646939
 10
139.54022299563823
 20
130.05104352675934
 10
138.59292911256333
 20
132.41927823444667
 10
138.59292911256333
 20
133.4830137213281
 10
139.91652796079035
 20
135.33605210884602
 10
140.9185491191918
 20
135.00204505604552
 10
141.1348517819269
 20
133.92053174237017
 10
142.36416527889156
 20
134.16639444176303
 10
142.36416527889156
 20
132.56230141521775
 10
144.32725273564105
 20
130.59921395846828
 10
145.19259240363778
 20
130.77228189206758
 10
145.19259240363778
 20
132.06880015895507
 10
146.5161912518648
 20
133.921838546473
 10
148.00293415936721
 20
133.42625757730542
  0
LWPOLYLINE
  5
137
330
17
100
AcDbEntity
  8
ENG_K
100
AcDbPolyline
 90
71
 70
1
 10
130.5790522591158
 20
155.8416667488798
 10
130.5790522591158
 20
155.23775934839912
 10
131.68406335475615
 20
154.68525380057906
 10
130.10764773832474
 20
153.10883818414754
 10
130.10764773832474
 20
151.88988676765004
 10
132.93607486307093
 20
149.06145964290386
 10
132.93607486307093
 20
146.47741817846583
 10
130.20192111886456
 20
144.7375021594254
 10
128.34253232766918
 20
144.27265496162644
 10
127.2495296827663
 20
143.17965231672358
 10
126.77812516197525
 20
141.76543875435055
 10
125.86500705120548
 20
140.85232064358078
 10
125.39360253041443
 20
141.32372516437175
 10
125.39360253041443
 20
153.39969889003712
 10
126.6916120324095
 20
153.6593007904361
 10
127.78756366083715
 20
154.7552524188639
 10
129.95222657339258
 20
159.80613254815978
 10
131.1157425265385
 20
159.80613254815978
 10
132.4999896088805
 20
158.97558429875457
 10
132.01859529092152
 20
157.05000702691873
 10
132.52833134415488
 20
156.54027097368538
 10
133.94254490652798
 20
157.01167549447646
 10
134.44791949838185
 20
156.5063009026225
 10
136.53742645203104
 20
156.5063009026225
 10
136.6733409583364
 20
156.91404442153856
 10
135.9935225870335
 20
157.59386279284138
 10
137.7275894445666
 20
157.94067616434816
 10
138.21915566471014
 20
157.44910994420457
 10
139.1619647062922
 20
157.44910994420457
 10
142.8866607426298
 20
153.72441390786696
 10
142.40442803170222
 20
152.75994848601204
 10
146.5724174696687
 20
147.20262923538996
 10
148.45530625893176
 20
143.4368516568638
 10
150.91414536690516
 20
140.48624472729577
 10
149.43523309075704
 20
138.51436169243158
 10
149.43523309075704
 20
136.47160876900378
 10
147.6876861950506
 20
136.47160876900378
 10
146.60680596601085
 20
137.55248899804351
 10
146.60680596601085
 20
139.61430557427724
 10
147.89870711295774
 20
141.3368404368731
 10
147.12117960553638
 20
141.72560419058388
 10
146.89551970005718
 20
142.40258390702144
 10
145.07208973112924
 20
142.85844139925342
 10
143.20934324753586
 20
144.72118788284672
 10
143.71078045120709
 20
145.22262508651806
 10
142.76797140962503
 20
146.6368386488912
 10
143.3069743204736
 20
147.17584155973972
 10
143.3069743204736
 20
149.31393648959678
 10
141.96351710335674
 20
150.2735487875374
 10
141.4163944450146
 20
149.3616776903005
 10
140.9425701354922
 20
143.20196166650956
 10
140.5296381386746
 20
142.78902966969198
 10
141.0466058593493
 20
141.75509422834276
 10
139.94348167306146
 20
141.3873861662467
 10
139.06433363335435
 20
142.2665342059538
 10
139.06433363335435
 20
143.4046053934115
 10
139.53573815414538
 20
143.87600991420257
 10
139.53573815414538
 20
148.5900551221129
 10
140.0227674264305
 20
149.07708439439793
 10
140.44209334422646
 20
151.59303990117368
 10
138.90874461257
 20
151.81208971998183
 10
138.4207228397313
 20
152.7881332656591
 10
136.78011271341103
 20
153.49125189122492
 10
136.1024541564709
 20
154.62068281945852
 10
135.43876947517572
 20
154.62068281945852
 10
134.88626392735557
 20
153.5156717238182
 10
134.25265735250622
 20
154.1492782986674
 10
132.7428452301191
 20
154.1492782986674
 10
132.48969607613446
 20
155.41502406859053
 10
131.47873177151837
 20
156.0216026513602
 10
130.5790522591158
 20
155.8416667488798
  0
LWPOLYLINE
  5
138
330
17
100
AcDbEntity
  8
ENG_K
100
AcDbPolyline
 90
4
 70
1
 10
142.46179635182935
 20
115.49410759380285
 10
141.657058497705
 20
114.68936973967826
 10
141.657058497705
 20
116.29884544792712
 10
142.46179635182935
 20
115.49410759380285
  0
LWPOLYLINE
  5
139
330
17
100
AcDbEntity
  8
ENG_K
100
AcDbPolyline
 90
5
 70
1
 10
140.15621387343637
 20
139.47329801754094
 10
138.86369689562488
 20
139.9041370101448
 10
140.0071426749364
 20
141.04758278945627
 10
140.51251726679024
 20
140.54220819760255
 10
140.15621387343637
 20
139.47329801754094
  0
LWPOLYLINE
  5
13A
330
17
100
AcDbEntity
  8
ENG_K
100
AcDbPolyline
 90
8
 70
1
 10
133.878883904653
 20
127.37685168651647
 10
135.19546639408824
 20
128.6934341759517
 10
136.33353758154598
 20
128.6934341759517
 10
137.17871555019025
 20
127.84825620730744
 10
137.17871555019025
 20
126.71018501984976
 10
136.29956751048312
 20
125.83103698014264
 10
133.878883904653
 20
126.63793151541935
 10
133.878883904653
 20
127.37685168651647
  0
LWPOLYLINE
  5
13B
330
17
100
AcDbEntity
  8
ENG_K
100
AcDbPolyline
 90
5
 70
1
 10
136.40257317527482
 20
138.38582233137674
 10
136.743375758584
 20
136.0002042482127
 10
135.7645019878171
 20
136.0002042482127
 10
135.7645019878171
 20
137.74775114391912
 10
136.40257317527482
 20
138.38582233137674
  0
LWPOLYLINE
  5
13C
330
17
100
AcDbEntity
  8
ENG_K
100
AcDbPolyline
 90
5
 70
1
 10
134.72406187329725
 20
124.92219800962346
 10
135.25656020142685
 20
125.45469633775296
 10
137.0323148824407
 20
124.38924352914471
 10
135.70084098594214
 20
123.94541889697852
 10
134.72406187329725
 20
124.92219800962346
  0
LWPOLYLINE
  5
13D
330
17
100
AcDbEntity
  8
ENG_K
100
AcDbPolyline
 90
6
 70
1
 10
136.77946328373417
 20
148.51790286777788
 10
135.3231742039788
 20
146.47909815612036
 10
134.35028842544403
 20
147.4519839346552
 10
134.35028842544403
 20
148.62587640131218
 10
135.80103925341638
 20
149.49632689809556
 10
136.77946328373417
 20
148.51790286777788
  0
LWPOLYLINE
  5
13E
330
17
100
AcDbEntity
  8
ENG_K
100
AcDbPolyline
 90
5
 70
1
 10
136.43654324633764
 20
116.80531549138418
 10
135.2294364651511
 20
116.40294656432204
 10
134.62105620850556
 20
117.0113268209676
 10
135.8281629896921
 20
117.41369574802974
 10
136.43654324633764
 20
116.80531549138418
  0
LWPOLYLINE
  5
13F
330
17
100
AcDbEntity
  8
ENG_K
100
AcDbPolyline
 90
5
 70
1
 10
134.970764144735
 20
131.45942116409347
 10
133.6782471669235
 20
131.89026015669725
 10
134.82169294623506
 20
133.03370593600872
 10
135.32706753808887
 20
132.528331344155
 10
134.970764144735
 20
131.45942116409347
  0
LWPOLYLINE
  5
140
330
17
100
AcDbEntity
  8
ENG_K
100
AcDbPolyline
 90
14
 70
1
 10
125.83497436832522
 20
129.7038416075913
 10
127.35058551578466
 20
128.6934341759517
 10
128.07635764701098
 20
128.6934341759517
 10
128.59644472659772
 20
129.73360833512515
 10
131.24649106495906
 20
128.14358053210827
 10
131.56173855708423
 20
127.19783805573293
 10
129.104953752816
 20
125.23241021231834
 10
128.2696062566314
 20
123.97938896804139
 10
129.32048254095326
 20
122.40307454155852
 10
127.8925852941915
 20
122.11749509220627
 10
126.91637386206311
 20
120.65317794401376
 10
125.39360253041443
 20
120.95773221034345
 10
125.39360253041443
 20
129.2624697696806
 10
125.83497436832522
 20
129.7038416075913
  0
LWPOLYLINE
  5
141
330
17
100
AcDbEntity
  8
ENG_K
100
AcDbPolyline
 90
4
 70
1
 10
126.91082175757917
 20
126.60717935505805
 10
126.89913325002381
 20
126.57211383239198
 10
126.94588728024527
 20
126.57211383239198
 10
126.91082175757917
 20
126.60717935505805
  0
LWPOLYLINE
  5
142
330
17
100
AcDbEntity
  8
ENG_K
100
AcDbPolyline
 90
5
 70
1
 10
129.63624321753372
 20
104.8875058760046
 10
129.63624321753372
 20
105.69224373012898
 10
130.21065340311645
 20
106.26665391571154
 10
130.67036941635206
 20
104.8875058760046
 10
129.63624321753372
 20
104.8875058760046
  0
LWPOLYLINE
  5
143
330
17
100
AcDbEntity
  8
ENG_K
100
AcDbPolyline
 90
4
 70
1
 10
129.40054095713822
 20
136.84538221685705
 10
129.40054095713822
 20
138.45485792510559
 10
130.20527881126256
 20
137.65012007098133
 10
129.40054095713822
 20
136.84538221685705
  0
LWPOLYLINE
  5
144
330
17
100
AcDbEntity
  8
ENG_K
100
AcDbPolyline
 90
5
 70
1
 10
129.1648386967427
 20
105.83031491758665
 10
129.1648386967427
 20
106.63505277171103
 10
129.7392488823254
 20
107.20946295729361
 10
130.19896489556103
 20
105.83031491758665
 10
129.1648386967427
 20
105.83031491758665
  0
LWPOLYLINE
  5
145
330
17
100
AcDbEntity
  8
ENG_K
100
AcDbPolyline
 90
4
 70
1
 10
128.9291364363472
 20
137.98345340431484
 10
129.7338742904715
 20
137.17871555019025
 10
128.9291364363472
 20
136.37397769606596
 10
128.9291364363472
 20
137.98345340431484
  0
LWPOLYLINE
  5
146
330
17
100
AcDbEntity
  8
ENG_K
100
AcDbPolyline
 90
8
 70
1
 10
128.09043558435965
 20
31.813328036737754
 10
129.2057024626773
 20
30.69806115842033
 10
128.2220296551606
 20
28.238879139628636
 10
128.2220296551606
 20
26.79452334762267
 10
126.89843080693358
 20
24.941484960104845
 10
125.66437031347597
 20
25.352838457924022
 10
126.8296779881315
 20
26.518146132579634
 10
128.09043558435965
 20
31.813328036737754
  0
LWPOLYLINE
  5
147
330
17
100
AcDbEntity
  8
ENG_K
100
AcDbPolyline
 90
5
 70
1
 10
125.86500705120545
 20
32.624543007519044
 10
126.43941723678817
 20
33.19895319310162
 10
126.89913325002381
 20
31.819805153394665
 10
125.86500705120545
 20
31.819805153394665
 10
125.86500705120545
 20
32.624543007519044
  0
LWPOLYLINE
  5
148
330
17
100
AcDbEntity
  8
ENG_K
100
AcDbPolyline
 90
4
 70
1
 10
125.62930479080994
 20
244.99227962387837
 10
126.4340426449343
 20
244.18754176975455
 10
125.62930479080994
 20
243.38280391562984
 10
125.62930479080994
 20
244.99227962387837
  0
LWPOLYLINE
  5
149
330
17
100
AcDbEntity
  8
ENG_K
100
AcDbPolyline
 90
5
 70
1
 10
125.39360253041443
 20
28.38190232039972
 10
126.00975989984236
 20
28.998059689827606
 10
126.38821984871102
 20
27.105759945484365
 10
125.39360253041443
 20
27.105759945484365
 10
125.39360253041443
 20
28.38190232039972
  0
LWPOLYLINE
  5
14A
330
17
100
AcDbEntity
  8
ENG_K
100
AcDbPolyline
 90
4
 70
1
 10
124.68649574922789
 20
121.48429517662873
 10
125.49123360335221
 20
120.67955732250412
 10
124.68649574922789
 20
119.87481946837985
 10
124.68649574922789
 20
121.48429517662873
  0
LWPOLYLINE
  5
14B
330
17
100
AcDbEntity
  8
ENG_K
100
AcDbPolyline
 90
5
 70
1
 10
124.22177288961595
 20
120.53480447386721
 10
122.48770603208291
 20
120.18799110236067
 10
121.85138696330253
 20
120.82431017114092
 10
123.5854538208357
 20
121.17112354264769
 10
124.22177288961595
 20
120.53480447386721
  0
LWPOLYLINE
  5
14C
330
17
100
AcDbEntity
  8
ENG_K
100
AcDbPolyline
 90
8
 70
1
 10
122.22150983085018
 20
28.61172468235629
 10
122.53799032011878
 20
27.029322236013176
 10
123.79932846354951
 20
26.398653164297905
 10
122.5379903201188
 20
25.76798409258241
 10
122.26664344201491
 20
24.41124970206299
 10
118.73825821722392
 20
26.015061167876997
 10
120.5450276028321
 20
26.37641504499877
 10
122.22150983085018
 20
28.61172468235629
  0
LWPOLYLINE
  5
14D
330
17
100
AcDbEntity
  8
ENG_K
100
AcDbPolyline
 90
11
 70
1
 10
121.62236636408618
 20
30.738924924354926
 10
121.62236636408618
 20
31.957876340852344
 10
121.15096184329515
 20
32.42928086164343
 10
121.15096184329515
 20
33.32404896801366
 10
120.15560388186651
 20
33.82172794872784
 10
120.51815617337535
 20
34.909384823254456
 10
122.56517540566823
 20
34.61695350435545
 10
122.56517540566823
 20
28.991378028648484
 10
121.71239661633206
 20
28.991378028648484
 10
121.09987090034798
 20
30.216429460616645
 10
121.62236636408618
 20
30.738924924354926
  0
LWPOLYLINE
  5
14E
330
17
100
AcDbEntity
  8
ENG_K
100
AcDbPolyline
 90
7
 70
1
 10
121.09987090034797
 20
122.14031101486789
 10
121.63584640225947
 20
122.67628651677931
 10
122.02444629883732
 20
125.39648579282448
 10
122.23983264925582
 20
125.38946977727905
 10
122.58400266420807
 20
120.91525958289972
 10
121.71239661633206
 20
120.91525958289972
 10
121.09987090034797
 20
122.14031101486789
  0
LWPOLYLINE
  5
14F
330
17
100
AcDbEntity
  8
ENG_K
100
AcDbPolyline
 90
7
 70
1
 10
112.19427594826554
 20
33.063602202003885
 10
113.33191169154439
 20
34.95966177413523
 10
113.62122112442312
 20
29.46278254943957
 10
112.1280963146103
 20
29.46278254943957
 10
112.64035099962392
 20
31.511801289494045
 10
112.19427594826554
 20
31.957876340852344
 10
112.19427594826554
 20
33.063602202003885
  0
LWPOLYLINE
  5
150
330
17
100
AcDbEntity
  8
ENG_K
100
AcDbPolyline
 90
4
 70
1
 10
112.29190702120336
 20
29.227080289043972
 10
111.487169167079
 20
28.4223424349197
 10
111.487169167079
 20
30.031818143168245
 10
112.29190702120336
 20
29.227080289043972
  0
LWPOLYLINE
  5
151
330
17
100
AcDbEntity
  8
ENG_K
100
AcDbPolyline
 90
5
 70
1
 10
108.3397064486039
 20
28.269973507857426
 10
107.68733752154189
 20
28.922342434919646
 10
109.92058667764371
 20
29.241378028648455
 10
110.57295560470587
 20
28.58900910158635
 10
108.3397064486039
 20
28.269973507857426
  0
LWPOLYLINE
  5
152
330
17
100
AcDbEntity
  8
ENG_K
100
AcDbPolyline
 90
5
 70
1
 10
105.31687744300547
 20
28.46437538870972
 10
108.0381977865651
 20
28.766744315771863
 10
108.70077499612292
 20
28.104167106214106
 10
105.97945465256328
 20
27.80179817915196
 10
105.31687744300547
 20
28.46437538870972
  0
LWPOLYLINE
  5
153
330
17
100
AcDbEntity
  8
ENG_K
100
AcDbPolyline
 90
4
 70
1
 10
105.22083920933787
 20
41.48359782961075
 10
104.41610135521353
 20
40.67885997548648
 10
104.41610135521353
 20
42.288335683735355
 10
105.22083920933787
 20
41.48359782961075
  0
LWPOLYLINE
  5
154
330
17
100
AcDbEntity
  8
ENG_K
100
AcDbPolyline
 90
5
 70
1
 10
103.17392905136099
 20
41.44962775854799
 10
102.1971499387161
 20
42.42640687119281
 10
102.7296482668456
 20
42.95890519932244
 10
104.50540294785948
 20
41.89345239071418
 10
103.17392905136099
 20
41.44962775854799
  0
LWPOLYLINE
  5
155
330
17
100
AcDbEntity
  8
ENG_K
100
AcDbPolyline
 90
11
 70
1
 10
102.76618553244491
 20
43.88336140437765
 10
102.76618553244491
 20
42.66210913158841
 10
101.86584911830653
 20
42.66210913158841
 10
101.36569362122299
 20
45.16288661700618
 10
100.41909275727305
 20
46.582787912931025
 10
99.95123844587202
 20
49.85776809273834
 10
98.42591377238784
 20
51.38309276622244
 10
98.9411215263544
 20
51.89830052018918
 10
100.85946544390605
 20
51.07615312695268
 10
101.34597424847637
 20
47.670591494960334
 10
102.76618553244491
 20
43.88336140437765
  0
LWPOLYLINE
  5
156
330
17
100
AcDbEntity
  8
ENG_K
100
AcDbPolyline
 90
4
 70
1
 10
100.17346066809424
 20
235.56418920805777
 10
100.97819852221859
 20
234.75945135393394
 10
100.17346066809424
 20
233.95471349980946
 10
100.17346066809424
 20
235.56418920805777
  0
LWPOLYLINE
  5
157
330
17
100
AcDbEntity
  8
ENG_K
100
AcDbPolyline
 90
4
 70
1
 10
98.75924710572113
 20
112.33234713572338
 10
98.75924710572113
 20
113.94182284397192
 10
99.56398495984548
 20
113.13708498984765
 10
98.75924710572113
 20
112.33234713572338
  0
LWPOLYLINE
  5
158
330
17
100
AcDbEntity
  8
ENG_K
100
AcDbPolyline
 90
4
 70
1
 10
96.87362902255701
 20
51.52116395368023
 10
96.87362902255701
 20
53.1306396619291
 10
97.67836687668135
 20
52.3259018078045
 10
96.87362902255701
 20
51.52116395368023
  0
LWPOLYLINE
  5
159
330
17
100
AcDbEntity
  8
ENG_K
100
AcDbPolyline
 90
4
 70
1
 10
95.93081998097496
 20
51.99256847447131
 10
95.93081998097496
 20
53.60204418271985
 10
96.73555783509931
 20
52.79730632859558
 10
95.93081998097496
 20
51.99256847447131
  0
LWPOLYLINE
  5
15A
330
17
100
AcDbEntity
  8
ENG_K
100
AcDbPolyline
 90
4
 70
1
 10
95.79274879351723
 20
53.26871084938656
 10
94.98801093939288
 20
52.46397299526229
 10
94.98801093939288
 20
54.07344870351116
 10
95.79274879351723
 20
53.26871084938656
  0
LWPOLYLINE
  5
15B
330
17
100
AcDbEntity
  8
ENG_K
100
AcDbPolyline
 90
4
 70
1
 10
94.04520189781083
 20
52.93537751605337
 10
94.04520189781083
 20
54.54485322430192
 10
94.84993975193518
 20
53.74011537017764
 10
94.04520189781083
 20
52.93537751605337
  0
LWPOLYLINE
  5
15C
330
17
100
AcDbEntity
  8
ENG_K
100
AcDbPolyline
 90
5
 70
1
 10
94.01013637514478
 20
54.31452555576022
 10
92.95002392916658
 20
53.254413109782185
 10
90.35134437247021
 20
53.62565304645306
 10
92.85621104210618
 20
54.69916733343994
 10
94.01013637514478
 20
54.31452555576022
  0
LWPOLYLINE
  5
15D
330
17
100
AcDbEntity
  8
ENG_K
100
AcDbPolyline
 90
4
 70
1
 10
88.85975216910947
 20
31.446031705541387
 10
89.66449002323381
 20
30.641293851417117
 10
88.85975216910947
 20
29.836555997292514
 10
88.85975216910947
 20
31.446031705541387
  0
LWPOLYLINE
  5
15E
330
17
100
AcDbEntity
  8
ENG_K
100
AcDbPolyline
 90
5
 70
1
 10
89.98752742984871
 20
30.755790260289295
 10
89.9095818498309
 20
30.56761298388333
 10
84.56035318473481
 20
32.09596403105364
 10
86.77716308013049
 20
32.539326010132655
 10
89.98752742984871
 20
30.755790260289295
  0
LWPOLYLINE
  5
15F
330
17
100
AcDbEntity
  8
ENG_K
100
AcDbPolyline
 90
14
 70
1
 10
86.34449667834414
 20
33.920963797601786
 10
84.73969038381503
 20
34.2419250565077
 10
85.32421826317673
 20
35.4109808152312
 10
85.32421826317673
 20
38.75280177780238
 10
85.79562278396777
 20
39.224206298593465
 10
85.79562278396777
 20
39.97175319429991
 10
85.30405656382426
 20
40.46331941444337
 10
85.67119576472795
 20
42.29901541896197
 10
87.20983634634086
 20
40.14491860470382
 10
87.20983634634086
 20
39.02894415271785
 10
86.2670273047588
 20
38.08613511113579
 10
86.2670273047588
 20
35.924374653056205
 10
87.30746741927865
 20
34.88393453853633
 10
86.34449667834414
 20
33.920963797601786
  0
LWPOLYLINE
  5
160
330
17
100
AcDbEntity
  8
ENG_K
100
AcDbPolyline
 90
4
 70
1
 10
85.08851600278122
 20
42.75974020452611
 10
85.89325385690557
 20
41.95500235040184
 10
85.08851600278122
 20
41.150264496277565
 10
85.08851600278122
 20
42.75974020452611
  0
LWPOLYLINE
  5
161
330
17
100
AcDbEntity
  8
ENG_K
100
AcDbPolyline
 90
7
 70
1
 10
85.32421826317673
 20
48.180892193623094
 10
85.32421826317673
 20
47.075166332471554
 10
84.4862446464901
 20
45.67854363799373
 10
83.4386001800126
 20
46.027758460152945
 10
83.4386001800126
 20
48.180892193623094
 10
84.3814092215947
 20
49.12370123520504
 10
85.32421826317673
 20
48.180892193623094
  0
LWPOLYLINE
  5
162
330
17
100
AcDbEntity
  8
ENG_K
100
AcDbPolyline
 90
4
 70
1
 10
71.4177848998413
 20
143.1689031330159
 10
72.69392727475669
 20
141.89276075810065
 10
71.4177848998413
 20
140.61661838318528
 10
71.4177848998413
 20
143.1689031330159
  0
LWPOLYLINE
  5
163
330
17
100
AcDbEntity
  8
ENG_K
100
AcDbPolyline
 90
4
 70
1
 10
70.47497585825924
 20
141.28328504985177
 10
71.2797137123836
 20
140.4785471957275
 10
70.47497585825924
 20
139.67380934160323
 10
70.47497585825924
 20
141.28328504985177
  0
LWPOLYLINE
  5
164
330
17
100
AcDbEntity
  8
ENG_K
100
AcDbPolyline
 90
4
 70
1
 10
66.70373969193098
 20
152.4017314029611
 10
66.70373969193098
 20
154.01120711120964
 10
67.50847754605533
 20
153.20646925708536
 10
66.70373969193098
 20
152.4017314029611
  0
LWPOLYLINE
  5
165
330
17
100
AcDbEntity
  8
ENG_K
100
AcDbPolyline
 90
4
 70
1
 10
66.23233517113995
 20
186.34285689991538
 10
66.23233517113995
 20
187.9523326081639
 10
67.0370730252643
 20
187.14759475403963
 10
66.23233517113995
 20
186.34285689991538
  0
LWPOLYLINE
  5
166
330
17
100
AcDbEntity
  8
ENG_K
100
AcDbPolyline
 90
4
 70
1
 10
66.23233517113995
 20
152.87313592375207
 10
66.23233517113995
 20
154.48261163200095
 10
67.03707302526429
 20
153.67787377787633
 10
66.23233517113995
 20
152.87313592375207
  0
LWPOLYLINE
  5
167
330
17
100
AcDbEntity
  8
ENG_K
100
AcDbPolyline
 90
18
 70
1
 10
60.71355210910526
 20
191.39023544115895
 10
59.63267188006551
 20
191.39023544115895
 10
59.63267188006551
 20
192.33304448274103
 10
61.80963397952881
 20
192.33304448274103
 10
63.77923069676127
 20
191.3482461241247
 10
65.58988806395222
 20
189.53758875693381
 10
63.76899809433438
 20
186.67619023324866
 10
62.12776567147835
 20
186.67619023324866
 10
60.81118318204309
 20
187.992772722684
 10
60.39086960419923
 20
187.5724591448401
 10
60.95685519019268
 20
186.44048797285308
 10
59.9584043927069
 20
186.44048797285308
 10
58.874474155931786
 20
188.6083484464034
 10
59.86837414046103
 20
189.60224843093255
 10
60.33977866125204
 20
189.13084391014158
 10
61.28258770283412
 20
190.07365295172363
 10
61.28258770283412
 20
190.82119984743008
 10
60.71355210910526
 20
191.39023544115895
  0
LWPOLYLINE
  5
168
330
17
100
AcDbEntity
  8
ENG_K
100
AcDbPolyline
 90
4
 70
1
 10
63.875312567184785
 20
157.58718113166213
 10
63.875312567184785
 20
159.19665683991101
 10
64.68005042130915
 20
158.39191898578676
 10
63.875312567184785
 20
157.58718113166213
  0
LWPOLYLINE
  5
169
330
17
100
AcDbEntity
  8
ENG_K
100
AcDbPolyline
 90
4
 70
1
 10
63.40390804639376
 20
158.05858565245344
 10
63.40390804639376
 20
159.66806136070198
 10
64.2086459005181
 20
158.86332350657773
 10
63.40390804639376
 20
158.05858565245344
  0
LWPOLYLINE
  5
16A
330
17
100
AcDbEntity
  8
ENG_K
100
AcDbPolyline
 90
4
 70
1
 10
62.932503525602726
 20
158.5299901732444
 10
62.932503525602726
 20
160.1394658814933
 10
63.73724137972707
 20
159.3347280273687
 10
62.932503525602726
 20
158.5299901732444
  0
LWPOLYLINE
  5
16B
330
17
100
AcDbEntity
  8
ENG_K
100
AcDbPolyline
 90
4
 70
1
 10
62.4610990048117
 20
159.00139469403553
 10
62.4610990048117
 20
160.61087040228406
 10
63.265836858936055
 20
159.80613254815978
 10
62.4610990048117
 20
159.00139469403553
  0
LWPOLYLINE
  5
16C
330
17
100
AcDbEntity
  8
ENG_K
100
AcDbPolyline
 90
4
 70
1
 10
56.66617356786161
 20
192.33304448274103
 10
55.86143571373726
 20
191.52830662861675
 10
55.86143571373726
 20
193.13778233686529
 10
56.66617356786161
 20
192.33304448274103
  0
LWPOLYLINE
  5
16D
330
17
100
AcDbEntity
  8
ENG_K
100
AcDbPolyline
 90
4
 70
1
 10
55.390031192946225
 20
191.05690210782566
 10
55.390031192946225
 20
192.66637781607454
 10
56.19476904707056
 20
191.86163996194995
 10
55.390031192946225
 20
191.05690210782566
  0
LWPOLYLINE
  5
16E
330
17
100
AcDbEntity
  8
ENG_K
100
AcDbPolyline
 90
4
 70
1
 10
54.91862667215519
 20
190.58549758703435
 10
54.91862667215519
 20
192.19497329528323
 10
55.723364526279525
 20
191.39023544115895
 10
54.91862667215519
 20
190.58549758703435
  0
LWPOLYLINE
  5
16F
330
17
100
AcDbEntity
  8
CUT_SLOT
100
AcDbPolyline
 90
5
 70
1
 10
76.13077581888177
 20
0.0
 10
79.69487743401955
 20
0.0
 10
79.69487743401955
 20
141.42135623730957
 10
76.13077581888177
 20
141.42135623730957
 10
76.13077581888177
 20
0.0
  0
LWPOLYLINE
  5
170
330
17
100
AcDbEntity
  8
CUT_SLOT
100
AcDbPolyline
 90
5
 70
1
 10
99.2247865864668
 20
0.0
 10
102.78888820160456
 20
0.0
 10
102.78888820160456
 20
141.42135623730957
 10
99.2247865864668
 20
141.42135623730957
 10
99.2247865864668
 20
0.0
  0
LWPOLYLINE
  5
171
330
17
100
AcDbEntity
  8
CUT_SLOT
100
AcDbPolyline
 90
5
 70
1
 10
122.31879735405185
 20
0.0
 10
125.88289896918961
 20
0.0
 10
125.88289896918961
 20
141.42135623730957
 10
122.31879735405185
 20
141.42135623730957
 10
122.31879735405185
 20
0.0
  0
LWPOLYLINE
  5
172
330
17
100
AcDbEntity
  8
CUT_SLOT
100
AcDbPolyline
 90
5
 70
1
 10
145.41280812163689
 20
0.0
 10
148.97690973677464
 20
0.0
 10
148.97690973677464
 20
141.42135623730957
 10
145.41280812163689
 20
141.42135623730957
 10
145.41280812163689
 20
0.0
  0
LWPOLYLINE
  5
173
330
17
100
AcDbEntity
  8
CUT_SLOT
100
AcDbPolyline
 90
5
 70
1
 10
168.50681888922193
 20
0.0
 10
172.0709205043597
 20
0.0
 10
172.0709205043597
 20
141.42135623730957
 10
168.50681888922193
 20
141.42135623730957
 10
168.50681888922193
 20
0.0
  0
LWPOLYLINE
  5
174
330
17
100
AcDbEntity
  8
CUT_SLOT
100
AcDbPolyline
 90
5
 70
1
 10
191.60082965680695
 20
0.0
 10
195.1649312719447
 20
0.0
 10
195.1649312719447
 20
141.42135623730957
 10
191.60082965680695
 20
141.42135623730957
 10
191.60082965680695
 20
0.0
  0
LWPOLYLINE
  5
175
330
17
100
AcDbEntity
  8
CUT_SLOT
100
AcDbPolyline
 90
5
 70
1
 10
87.67778120267431
 20
141.42135623730957
 10
91.24188281781207
 20
141.42135623730957
 10
91.24188281781207
 20
282.84271247461913
 10
87.67778120267431
 20
282.84271247461913
 10
87.67778120267431
 20
141.42135623730957
  0
LWPOLYLINE
  5
176
330
17
100
AcDbEntity
  8
CUT_SLOT
100
AcDbPolyline
 90
5
 70
1
 10
110.77179197025933
 20
141.42135623730957
 10
114.33589358539709
 20
141.42135623730957
 10
114.33589358539709
 20
282.84271247461913
 10
110.77179197025933
 20
282.84271247461913
 10
110.77179197025933
 20
141.42135623730957
  0
LWPOLYLINE
  5
177
330
17
100
AcDbEntity
  8
CUT_SLOT
100
AcDbPolyline
 90
5
 70
1
 10
133.86580273784435
 20
141.42135623730957
 10
137.4299043529821
 20
141.42135623730957
 10
137.4299043529821
 20
282.84271247461913
 10
133.86580273784435
 20
282.84271247461913
 10
133.86580273784435
 20
141.42135623730957
  0
LWPOLYLINE
  5
178
330
17
100
AcDbEntity
  8
CUT_SLOT
100
AcDbPolyline
 90
5
 70
1
 10
156.95981350542937
 20
141.42135623730957
 10
160.52391512056712
 20
141.42135623730957
 10
160.52391512056712
 20
282.84271247461913
 10
156.95981350542937
 20
282.84271247461913
 10
156.95981350542937
 20
141.42135623730957
  0
LWPOLYLINE
  5
179
330
17
100
AcDbEntity
  8
CUT_SLOT
100
AcDbPolyline
 90
5
 70
1
 10
180.05382427301438
 20
141.42135623730957
 10
183.61792588815214
 20
141.42135623730957
 10
183.61792588815214
 20
282.84271247461913
 10
180.05382427301438
 20
282.84271247461913
 10
180.05382427301438
 20
141.42135623730957
  0
LWPOLYLINE
  5
17A
330
17
100
AcDbEntity
  8
CUT_SLOT
100
AcDbPolyline
 90
5
 70
1
 10
203.14783504059943
 20
141.42135623730957
 10
206.7119366557372
 20
141.42135623730957
 10
206.7119366557372
 20
282.84271247461913
 10
203.14783504059943
 20
282.84271247461913
 10
203.14783504059943
 20
141.42135623730957
  0
LWPOLYLINE
  5
17B
330
17
100
AcDbEntity
  8
CUT_OUTLINE
100
AcDbPolyline
 90
5
 70
1
 10
0.0
 20
0.0
 10
282.842712474619
 20
0.0
 10
282.842712474619
 20
282.84271247461913
 10
0.0
 20
282.84271247461913
 10
0.0
 20
0.0
  0
ENDSEC
  0
SECTION
  2
OBJECTS
  0
DICTIONARY
  5
A
330
0
100
AcDbDictionary
281
1
  3
ACAD_COLOR
350
B
  3
ACAD_GROUP
350
C
  3
ACAD_LAYOUT
350
D
  3
ACAD_MATERIAL
350
E
  3
ACAD_MLEADERSTYLE
350
F
  3
ACAD_MLINESTYLE
350
10
  3
ACAD_PLOTSETTINGS
350
11
  3
ACAD_PLOTSTYLENAME
350
12
  3
ACAD_SCALELIST
350
14
  3
ACAD_TABLESTYLE
350
15
  3
ACAD_VISUALSTYLE
350
16
  3
EZDXF_META
350
2D
  0
DICTIONARY
  5
B
330
A
100
AcDbDictionary
281
1
  0
DICTIONARY
  5
C
330
A
100
AcDbDictionary
281
1
  0
DICTIONARY
  5
D
330
A
100
AcDbDictionary
281
1
  3
Model
350
1A
  3
Layout1
350
1E
  0
DICTIONARY
  5
E
330
A
100
AcDbDictionary
281
1
  3
ByBlock
350
1F
  3
ByLayer
350
20
  3
Global
350
21
  0
DICTIONARY
  5
F
330
A
100
AcDbDictionary
281
1
  3
Standard
350
2C
  0
DICTIONARY
  5
10
330
A
100
AcDbDictionary
281
1
  3
Standard
350
22
  0
DICTIONARY
  5
11
330
A
100
AcDbDictionary
281
1
  0
ACDBDICTIONARYWDFLT
  5
12
330
A
100
AcDbDictionary
281
1
  3
Normal
350
13
100
AcDbDictionaryWithDefault
340
13
  0
ACDBPLACEHOLDER
  5
13
330
12
  0
DICTIONARY
  5
14
330
A
100
AcDbDictionary
281
1
  0
DICTIONARY
  5
15
330
A
100
AcDbDictionary
281
1
  0
DICTIONARY
  5
16
330
A
100
AcDbDictionary
281
1
  0
LAYOUT
  5
1A
330
D
100
AcDbPlotSettings
  1

  4
A3
  6

 40
7.5
 41
20.0
 42
7.5
 43
20.0
 44
420.0
 45
297.0
 46
0.0
 47
0.0
 48
0.0
 49
0.0
140
0.0
141
0.0
142
1.0
143
1.0
 70
1024
 72
1
 73
0
 74
5
  7

 75
16
 76
0
 77
2
 78
300
147
1.0
148
0.0
149
0.0
100
AcDbLayout
  1
Model
 70
1
 71
0
 10
0.0
 20
0.0
 11
420.0
 21
297.0
 12
0.0
 22
0.0
 32
0.0
 14
1e+20
 24
1e+20
 34
1e+20
 15
-1e+20
 25
-1e+20
 35
-1e+20
146
0.0
 13
0.0
 23
0.0
 33
0.0
 16
1.0
 26
0.0
 36
0.0
 17
0.0
 27
1.0
 37
0.0
 76
1
330
17
  0
LAYOUT
  5
1E
330
D
100
AcDbPlotSettings
  1

  4
A3
  6

 40
7.5
 41
20.0
 42
7.5
 43
20.0
 44
420.0
 45
297.0
 46
0.0
 47
0.0
 48
0.0
 49
0.0
140
0.0
141
0.0
142
1.0
143
1.0
 70
0
 72
1
 73
0
 74
5
  7

 75
16
 76
0
 77
2
 78
300
147
1.0
148
0.0
149
0.0
100
AcDbLayout
  1
Layout1
 70
1
 71
1
 10
0.0
 20
0.0
 11
420.0
 21
297.0
 12
0.0
 22
0.0
 32
0.0
 14
1e+20
 24
1e+20
 34
1e+20
 15
-1e+20
 25
-1e+20
 35
-1e+20
146
0.0
 13
0.0
 23
0.0
 33
0.0
 16
1.0
 26
0.0
 36
0.0
 17
0.0
 27
1.0
 37
0.0
 76
1
330
1B
  0
MATERIAL
  5
1F
102
{ACAD_REACTORS
330
E
102
}
330
E
100
AcDbMaterial
  1
ByBlock
  2

 70
0
 40
1.0
 71
1
 41
1.0
 91
-1023410177
 42
1.0
 72
1
  3

 73
1
 74
1
 75
1
 44
0.5
 73
0
 45
1.0
 46
1.0
 77
1
  4

 78
1
 79
1
170
1
 48
1.0
171
1
  6

172
1
173
1
174
1
140
1.0
141
1.0
175
1
  7

176
1
177
1
178
1
143
1.0
179
1
  8

270
1
271
1
272
1
145
1.0
146
1.0
273
1
  9

274
1
275
1
276
1
 42
1.0
 72
1
  3

 73
1
 74
1
 75
1
 94
63
  0
MATERIAL
  5
20
102
{ACAD_REACTORS
330
E
102
}
330
E
100
AcDbMaterial
  1
ByLayer
  2

 70
0
 40
1.0
 71
1
 41
1.0
 91
-1023410177
 42
1.0
 72
1
  3

 73
1
 74
1
 75
1
 44
0.5
 73
0
 45
1.0
 46
1.0
 77
1
  4

 78
1
 79
1
170
1
 48
1.0
171
1
  6

172
1
173
1
174
1
140
1.0
141
1.0
175
1
  7

176
1
177
1
178
1
143
1.0
179
1
  8

270
1
271
1
272
1
145
1.0
146
1.0
273
1
  9

274
1
275
1
276
1
 42
1.0
 72
1
  3

 73
1
 74
1
 75
1
 94
63
  0
MATERIAL
  5
21
102
{ACAD_REACTORS
330
E
102
}
330
E
100
AcDbMaterial
  1
Global
  2

 70
0
 40
1.0
 71
1
 41
1.0
 91
-1023410177
 42
1.0
 72
1
  3

 73
1
 74
1
 75
1
 44
0.5
 73
0
 45
1.0
 46
1.0
 77
1
  4

 78
1
 79
1
170
1
 48
1.0
171
1
  6

172
1
173
1
174
1
140
1.0
141
1.0
175
1
  7

176
1
177
1
178
1
143
1.0
179
1
  8

270
1
271
1
272
1
145
1.0
146
1.0
273
1
  9

274
1
275
1
276
1
 42
1.0
 72
1
  3

 73
1
 74
1
 75
1
 94
63
  0
MLINESTYLE
  5
22
102
{ACAD_REACTORS
330
10
102
}
330
10
100
AcDbMlineStyle
  2
Standard
 70
0
  3

 62
256
 51
90.0
 52
90.0
 71
2
 49
0.5
 62
256
  6
BYLAYER
 49
-0.5
 62
256
  6
BYLAYER
  0
MLEADERSTYLE
  5
2C
102
{ACAD_REACTORS
330
F
102
}
330
F
100
AcDbMLeaderStyle
179
2
170
2
171
1
172
0
 90
2
 40
0.0
 41
0.0
173
1
 91
-1056964608
 92
-2
290
1
 42
2.0
291
1
 43
8.0
  3
Standard
 44
4.0
300

342
29
174
1
175
1
176
0
178
1
 93
-1056964608
 45
4.0
292
0
297
0
 46
4.0
 94
-1056964608
 47
1.0
 49
1.0
140
1.0
294
1
141
0.0
177
0
142
1.0
295
0
296
0
143
3.75
271
0
272
9
273
9
  0
DICTIONARY
  5
2D
330
A
100
AcDbDictionary
280
1
281
1
  3
CREATED_BY_EZDXF
350
2E
  3
WRITTEN_BY_EZDXF
350
17E
  0
DICTIONARYVAR
  5
2E
330
2D
100
DictionaryVariables
280
0
  1
1.4.4 @ 2026-08-03T12:25:47.563411+00:00
  0
DICTIONARYVAR
  5
17E
330
2D
100
DictionaryVariables
280
0
  1
1.4.4 @ 2026-08-03T12:25:47.608095+00:00
  0
ENDSEC
  0
EOF
