  0
SECTION
  2
HEADER
  9
$ACADVER
  1
AC1027
  9
$ACADMAINTVER
 70
105
  9
$DWGCODEPAGE
  3
ANSI_1252
  9
$LASTSAVEDBY
  1
ezdxf
  9
$REQUIREDVERSIONS
160
0
  9
$INSBASE
 10
0.0
 20
0.0
 30
0.0
  9
$EXTMIN
 10
1e+20
 20
1e+20
 30
1e+20
  9
$EXTMAX
 10
-1e+20
 20
-1e+20
 30
-1e+20
  9
$LIMMIN
 10
0.0
 20
0.0
  9
$LIMMAX
 10
420.0
 20
297.0
  9
$ORTHOMODE
 70
0
  9
$REGENMODE
 70
1
  9
$FILLMODE
 70
1
  9
$QTEXTMODE
 70
0
  9
$MIRRTEXT
 70
1
  9
$LTSCALE
 40
1.0
  9
$ATTMODE
 70
1
  9
$TEXTSIZE
 40
2.5
  9
$TRACEWID
 40
1.0
  9
$TEXTSTYLE
  7
Standard
  9
$CLAYER
  8
0
  9
$CELTYPE
  6
ByLayer
  9
$CECOLOR
 62
256
  9
$CELTSCALE
 40
1.0
  9
$DISPSILH
 70
0
  9
$DIMSCALE
 40
1.0
  9
$DIMASZ
 40
2.5
  9
$DIMEXO
 40
0.625
  9
$DIMDLI
 40
3.75
  9
$DIMRND
 40
0.0
  9
$DIMDLE
 40
0.0
  9
$DIMEXE
 40
1.25
  9
$DIMTP
 40
0.0
  9
$DIMTM
 40
0.0
  9
$DIMTXT
 40
2.5
  9
$DIMCEN
 40
2.5
  9
$DIMTSZ
 40
0.0
  9
$DIMTOL
 70
0
  9
$DIMLIM
 70
0
  9
$DIMTIH
 70
0
  9
$DIMTOH
 70
0
  9
$DIMSE1
 70
0
  9
$DIMSE2
 70
0
  9
$DIMTAD
 70
1
  9
$DIMZIN
 70
8
  9
$DIMBLK
  1

  9
$DIMASO
 70
1
  9
$DIMSHO
 70
1
  9
$DIMPOST
  1

  9
$DIMAPOST
  1

  9
$DIMALT
 70
0
  9
$DIMALTD
 70
3
  9
$DIMALTF
 40
0.03937007874
  9
$DIMLFAC
 40
1.0
  9
$DIMTOFL
 70
1
  9
$DIMTVP
 40
0.0
  9
$DIMTIX
 70
0
  9
$DIMSOXD
 70
0
  9
$DIMSAH
 70
0
  9
$DIMBLK1
  1

  9
$DIMBLK2
  1

  9
$DIMSTYLE
  2
ISO-25
  9
$DIMCLRD
 70
0
  9
$DIMCLRE
 70
0
  9
$DIMCLRT
 70
0
  9
$DIMTFAC
 40
1.0
  9
$DIMGAP
 40
0.625
  9
$DIMJUST
 70
0
  9
$DIMSD1
 70
0
  9
$DIMSD2
 70
0
  9
$DIMTOLJ
 70
0
  9
$DIMTZIN
 70
8
  9
$DIMALTZ
 70
0
  9
$DIMALTTZ
 70
0
  9
$DIMUPT
 70
0
  9
$DIMDEC
 70
2
  9
$DIMTDEC
 70
2
  9
$DIMALTU
 70
2
  9
$DIMALTTD
 70
3
  9
$DIMTXSTY
  7
Standard
  9
$DIMAUNIT
 70
0
  9
$DIMADEC
 70
0
  9
$DIMALTRND
 40
0.0
  9
$DIMAZIN
 70
0
  9
$DIMDSEP
 70
44
  9
$DIMATFIT
 70
3
  9
$DIMFRAC
 70
0
  9
$DIMLDRBLK
  1

  9
$DIMLUNIT
 70
2
  9
$DIMLWD
 70
-2
  9
$DIMLWE
 70
-2
  9
$DIMTMOVE
 70
0
  9
$DIMFXL
 40
1.0
  9
$DIMFXLON
 70
0
  9
$DIMJOGANG
 40
0.785398163397
  9
$DIMTFILL
 70
0
  9
$DIMTFILLCLR
 70
0
  9
$DIMARCSYM
 70
0
  9
$DIMLTYPE
  6

  9
$DIMLTEX1
  6

  9
$DIMLTEX2
  6

  9
$DIMTXTDIRECTION
 70
0
  9
$LUNITS
 70
2
  9
$LUPREC
 70
4
  9
$SKETCHINC
 40
1.0
  9
$FILLETRAD
 40
10.0
  9
$AUNITS
 70
0
  9
$AUPREC
 70
2
  9
$MENU
  1
.
  9
$ELEVATION
 40
0.0
  9
$PELEVATION
 40
0.0
  9
$THICKNESS
 40
0.0
  9
$LIMCHECK
 70
0
  9
$CHAMFERA
 40
0.0
  9
$CHAMFERB
 40
0.0
  9
$CHAMFERC
 40
0.0
  9
$CHAMFERD
 40
0.0
  9
$SKPOLY
 70
0
  9
$TDCREATE
 40
2461256.642905093
  9
$TDUCREATE
 40
2458532.153996898
  9
$TDUPDATE
 40
2461256.642905093
  9
$TDUUPDATE
 40
2458532.1544311
  9
$TDINDWG
 40
0.0
  9
$TDUSRTIMER
 40
0.0
  9
$USRTIMER
 70
1
  9
$ANGBASE
 50
0.0
  9
$ANGDIR
 70
0
  9
$PDMODE
 70
0
  9
$PDSIZE
 40
0.0
  9
$PLINEWID
 40
0.0
  9
$SPLFRAME
 70
0
  9
$SPLINETYPE
 70
6
  9
$SPLINESEGS
 70
8
  9
$HANDSEED
  5
9C
  9
$SURFTAB1
 70
6
  9
$SURFTAB2
 70
6
  9
$SURFTYPE
 70
6
  9
$SURFU
 70
6
  9
$SURFV
 70
6
  9
$UCSBASE
  2

  9
$UCSNAME
  2

  9
$UCSORG
 10
0.0
 20
0.0
 30
0.0
  9
$UCSXDIR
 10
1.0
 20
0.0
 30
0.0
  9
$UCSYDIR
 10
0.0
 20
1.0
 30
0.0
  9
$UCSORTHOREF
  2

  9
$UCSORTHOVIEW
 70
0
  9
$UCSORGTOP
 10
0.0
 20
0.0
 30
0.0
  9
$UCSORGBOTTOM
 10
0.0
 20
0.0
 30
0.0
  9
$UCSORGLEFT
 10
0.0
 20
0.0
 30
0.0
  9
$UCSORGRIGHT
 10
0.0
 20
0.0
 30
0.0
  9
$UCSORGFRONT
 10
0.0
 20
0.0
 30
0.0
  9
$UCSORGBACK
 10
0.0
 20
0.0
 30
0.0
  9
$PUCSBASE
  2

  9
$PUCSNAME
  2

  9
$PUCSORG
 10
0.0
 20
0.0
 30
0.0
  9
$PUCSXDIR
 10
1.0
 20
0.0
 30
0.0
  9
$PUCSYDIR
 10
0.0
 20
1.0
 30
0.0
  9
$PUCSORTHOREF
  2

  9
$PUCSORTHOVIEW
 70
0
  9
$PUCSORGTOP
 10
0.0
 20
0.0
 30
0.0
  9
$PUCSORGBOTTOM
 10
0.0
 20
0.0
 30
0.0
  9
$PUCSORGLEFT
 10
0.0
 20
0.0
 30
0.0
  9
$PUCSORGRIGHT
 10
0.0
 20
0.0
 30
0.0
  9
$PUCSORGFRONT
 10
0.0
 20
0.0
 30
0.0
  9
$PUCSORGBACK
 10
0.0
 20
0.0
 30
0.0
  9
$USERI1
 70
0
  9
$USERI2
 70
0
  9
$USERI3
 70
0
  9
$USERI4
 70
0
  9
$USERI5
 70
0
  9
$USERR1
 40
0.0
  9
$USERR2
 40
0.0
  9
$USERR3
 40
0.0
  9
$USERR4
 40
0.0
  9
$USERR5
 40
0.0
  9
$WORLDVIEW
 70
1
  9
$SHADEDGE
 70
3
  9
$SHADEDIF
 70
70
  9
$TILEMODE
 70
1
  9
$MAXACTVP
 70
64
  9
$PINSBASE
 10
0.0
 20
0.0
 30
0.0
  9
$PLIMCHECK
 70
0
  9
$PEXTMIN
 10
1e+20
 20
1e+20
 30
1e+20
  9
$PEXTMAX
 10
-1e+20
 20
-1e+20
 30
-1e+20
  9
$PLIMMIN
 10
0.0
 20
0.0
  9
$PLIMMAX
 10
420.0
 20
297.0
  9
$UNITMODE
 70
0
  9
$VISRETAIN
 70
1
  9
$PLINEGEN
 70
0
  9
$PSLTSCALE
 70
1
  9
$TREEDEPTH
 70
3020
  9
$CMLSTYLE
  2
Standard
  9
$CMLJUST
 70
0
  9
$CMLSCALE
 40
20.0
  9
$PROXYGRAPHICS
 70
1
  9
$MEASUREMENT
 70
1
  9
$CELWEIGHT
370
-1
  9
$ENDCAPS
280
0
  9
$JOINSTYLE
280
0
  9
$LWDISPLAY
290
0
  9
$INSUNITS
 70
4
  9
$HYPERLINKBASE
  1

  9
$STYLESHEET
  1

  9
$XEDIT
290
1
  9
$CEPSNTYPE
380
0
  9
$PSTYLEMODE
290
1
  9
$FINGERPRINTGUID
  2
{84EC779A-8BC1-4F5C-94FB-AF8381A5A682}
  9
$VERSIONGUID
  2
{7A6CAB71-0C38-4B41-BF20-AEC4BF773BD9}
  9
$EXTNAMES
290
1
  9
$PSVPSCALE
 40
0.0
  9
$OLESTARTUP
290
0
  9
$SORTENTS
280
127
  9
$INDEXCTL
280
0
  9
$HIDETEXT
280
1
  9
$XCLIPFRAME
280
1
  9
$HALOGAP
280
0
  9
$OBSCOLOR
 70
257
  9
$OBSLTYPE
280
0
  9
$INTERSECTIONDISPLAY
280
0
  9
$INTERSECTIONCOLOR
 70
257
  9
$DIMASSOC
280
2
  9
$PROJECTNAME
  1

  9
$CAMERADISPLAY
290
0
  9
$LENSLENGTH
 40
50.0
  9
$CAMERAHEIGHT
 40
0.0
  9
$STEPSPERSEC
 40
24.0
  9
$STEPSIZE
 40
100.0
  9
$3DDWFPREC
 40
2.0
  9
$PSOLWIDTH
 40
0.005
  9
$PSOLHEIGHT
 40
0.08
  9
$LOFTANG1
 40
1.570796326795
  9
$LOFTANG2
 40
1.570796326795
  9
$LOFTMAG1
 40
0.0
  9
$LOFTMAG2
 40
0.0
  9
$LOFTPARAM
 70
7
  9
$LOFTNORMALS
280
1
  9
$LATITUDE
 40
37.795
  9
$LONGITUDE
 40
-122.394
  9
$NORTHDIRECTION
 40
0.0
  9
$TIMEZONE
 70
-8000
  9
$LIGHTGLYPHDISPLAY
280
1
  9
$TILEMODELIGHTSYNCH
280
1
  9
$CMATERIAL
347
20
  9
$SOLIDHIST
280
0
  9
$SHOWHIST
280
1
  9
$DWFFRAME
280
2
  9
$DGNFRAME
280
2
  9
$REALWORLDSCALE
290
1
  9
$INTERFERECOLOR
 62
256
  9
$CSHADOW
280
0
  9
$SHADOWPLANELOCATION
 40
0.0
  0
ENDSEC
  0
SECTION
  2
CLASSES
  0
CLASS
  1
ACDBDICTIONARYWDFLT
  2
AcDbDictionaryWithDefault
  3
ObjectDBX Classes
 90
0
 91
0
280
0
281
0
  0
CLASS
  1
SUN
  2
AcDbSun
  3
SCENEOE
 90
1153
 91
0
280
0
281
0
  0
CLASS
  1
VISUALSTYLE
  2
AcDbVisualStyle
  3
ObjectDBX Classes
 90
4095
 91
0
280
0
281
0
  0
CLASS
  1
MATERIAL
  2
AcDbMaterial
  3
ObjectDBX Classes
 90
1153
 91
0
280
0
281
0
  0
CLASS
  1
SCALE
  2
AcDbScale
  3
ObjectDBX Classes
 90
1153
 91
0
280
0
281
0
  0
CLASS
  1
TABLESTYLE
  2
AcDbTableStyle
  3
ObjectDBX Classes
 90
4095
 91
0
280
0
281
0
  0
CLASS
  1
MLEADERSTYLE
  2
AcDbMLeaderStyle
  3
ACDB_MLEADERSTYLE_CLASS
 90
4095
 91
0
280
0
281
0
  0
CLASS
  1
DICTIONARYVAR
  2
AcDbDictionaryVar
  3
ObjectDBX Classes
 90
0
 91
0
280
0
281
0
  0
CLASS
  1
CELLSTYLEMAP
  2
AcDbCellStyleMap
  3
ObjectDBX Classes
 90
1152
 91
0
280
0
281
0
  0
CLASS
  1
MENTALRAYRENDERSETTINGS
  2
AcDbMentalRayRenderSettings
  3
SCENEOE
 90
1024
 91
0
280
0
281
0
  0
CLASS
  1
ACDBDETAILVIEWSTYLE
  2
AcDbDetailViewStyle
  3
ObjectDBX Classes
 90
1025
 91
0
280
0
281
0
  0
CLASS
  1
ACDBSECTIONVIEWSTYLE
  2
AcDbSectionViewStyle
  3
ObjectDBX Classes
 90
1025
 91
0
280
0
281
0
  0
CLASS
  1
RASTERVARIABLES
  2
AcDbRasterVariables
  3
ISM
 90
0
 91
0
280
0
281
0
  0
CLASS
  1
LAYOUT
  2
AcDbLayout
  3
ObjectDBX Classes
 90
0
 91
0
280
0
281
0
  0
CLASS
  1
ACDBPLACEHOLDER
  2
AcDbPlaceHolder
  3
ObjectDBX Classes
 90
0
 91
0
280
0
281
0
  0
ENDSEC
  0
SECTION
  2
TABLES
  0
TABLE
  2
VPORT
  5
8
330
0
100
AcDbSymbolTable
 70
1
  0
VPORT
  5
23
330
8
100
AcDbSymbolTableRecord
100
AcDbViewportTableRecord
  2
*Active
 70
0
 10
0.0
 20
0.0
 11
1.0
 21
1.0
 12
0.0
 22
0.0
 13
0.0
 23
0.0
 14
0.5
 24
0.5
 15
0.5
 25
0.5
 16
0.0
 26
0.0
 36
1.0
 17
0.0
 27
0.0
 37
0.0
 40
1000.0
 41
1.34
 42
50.0
 43
0.0
 44
0.0
 50
0.0
 51
0.0
 71
0
 72
1000
 73
1
 74
3
 75
0
 76
0
 77
0
 78
0
281
0
 65
0
146
0.0
  0
ENDTAB
  0
TABLE
  2
LTYPE
  5
2
330
0
100
AcDbSymbolTable
 70
3
  0
LTYPE
  5
24
330
2
100
AcDbSymbolTableRecord
100
AcDbLinetypeTableRecord
  2
ByBlock
 70
0
  3

 72
65
 73
0
 40
0.0
  0
LTYPE
  5
25
330
2
100
AcDbSymbolTableRecord
100
AcDbLinetypeTableRecord
  2
ByLayer
 70
0
  3

 72
65
 73
0
 40
0.0
  0
LTYPE
  5
26
330
2
100
AcDbSymbolTableRecord
100
AcDbLinetypeTableRecord
  2
Continuous
 70
0
  3

 72
65
 73
0
 40
0.0
  0
ENDTAB
  0
TABLE
  2
LAYER
  5
1
330
0
100
AcDbSymbolTable
 70
7
  0
LAYER
  5
27
330
1
100
AcDbSymbolTableRecord
100
AcDbLayerTableRecord
  2
0
 70
0
 62
7
  6
Continuous
370
-3
390
13
347
21
  0
LAYER
  5
28
330
1
100
AcDbSymbolTableRecord
100
AcDbLayerTableRecord
  2
Defpoints
 70
0
 62
7
  6
Continuous
290
0
370
-3
390
13
347
21
  0
LAYER
  5
2F
330
1
100
AcDbSymbolTableRecord
100
AcDbLayerTableRecord
  2
ENG_L
 70
0
 62
4
  6
Continuous
370
-3
390
13
347
21
  0
LAYER
  5
30
330
1
100
AcDbSymbolTableRecord
100
AcDbLayerTableRecord
  2
ENG_D
 70
0
 62
3
  6
Continuous
370
-3
390
13
347
21
  0
LAYER
  5
31
330
1
100
AcDbSymbolTableRecord
100
AcDbLayerTableRecord
  2
ENG_K
 70
0
 62
2
  6
Continuous
370
-3
390
13
347
21
  0
LAYER
  5
32
330
1
100
AcDbSymbolTableRecord
100
AcDbLayerTableRecord
  2
CUT_OUTLINE
 70
0
 62
5
  6
Continuous
370
-3
390
13
347
21
  0
LAYER
  5
33
330
1
100
AcDbSymbolTableRecord
100
AcDbLayerTableRecord
  2
CUT_SLOT
 70
0
 62
1
  6
Continuous
370
-3
390
13
347
21
  0
ENDTAB
  0
TABLE
  2
STYLE
  5
5
330
0
100
AcDbSymbolTable
 70
1
  0
STYLE
  5
29
330
5
100
AcDbSymbolTableRecord
100
AcDbTextStyleTableRecord
  2
Standard
 70
0
 40
0.0
 41
1.0
 50
0.0
 71
0
 42
2.5
  3
txt
  4

  0
ENDTAB
  0
TABLE
  2
VIEW
  5
7
330
0
100
AcDbSymbolTable
 70
0
  0
ENDTAB
  0
TABLE
  2
UCS
  5
6
330
0
100
AcDbSymbolTable
 70
0
  0
ENDTAB
  0
TABLE
  2
APPID
  5
3
330
0
100
AcDbSymbolTable
 70
3
  0
APPID
  5
2A
330
3
100
AcDbSymbolTableRecord
100
AcDbRegAppTableRecord
  2
ACAD
 70
0
  0
APPID
  5
99
330
3
100
AcDbSymbolTableRecord
100
AcDbRegAppTableRecord
  2
HATCHBACKGROUNDCOLOR
 70
0
  0
APPID
  5
9A
330
3
100
AcDbSymbolTableRecord
100
AcDbRegAppTableRecord
  2
EZDXF
 70
0
  0
ENDTAB
  0
TABLE
  2
DIMSTYLE
  5
4
330
0
100
AcDbSymbolTable
 70
1
100
AcDbDimStyleTable
  0
DIMSTYLE
105
2B
330
4
100
AcDbSymbolTableRecord
100
AcDbDimStyleTableRecord
  2
Standard
 70
0
 40
1.0
 41
2.5
 42
0.625
 43
3.75
 44
1.25
 45
0.0
 46
0.0
 47
0.0
 48
0.0
 49
2.5
140
2.5
141
2.5
142
0.0
143
0.03937007874
144
1.0
145
0.0
146
1.0
147
0.625
148
0.0
 69
0
 70
0
 71
0
 72
0
 73
0
 74
0
 75
0
 76
0
 77
1
 78
8
 79
3
170
0
171
3
172
1
173
0
174
0
175
0
176
0
177
0
178
0
179
2
271
2
272
2
273
2
274
3
275
0
276
0
277
2
278
44
279
0
280
0
281
0
282
0
283
0
284
8
285
0
286
0
288
0
289
3
290
0
371
-2
372
-2
  0
ENDTAB
  0
TABLE
  2
BLOCK_RECORD
  5
9
330
0
100
AcDbSymbolTable
 70
2
  0
BLOCK_RECORD
  5
17
330
9
100
AcDbSymbolTableRecord
100
AcDbBlockTableRecord
  2
*Model_Space
340
1A
 70
0
280
1
281
0
  0
BLOCK_RECORD
  5
1B
330
9
100
AcDbSymbolTableRecord
100
AcDbBlockTableRecord
  2
*Paper_Space
340
1E
 70
0
280
1
281
0
  0
ENDTAB
  0
ENDSEC
  0
SECTION
  2
BLOCKS
  0
BLOCK
  5
18
330
17
100
AcDbEntity
  8
0
100
AcDbBlockBegin
  2
*Model_Space
 70
0
 10
0.0
 20
0.0
 30
0.0
  3
*Model_Space
  1

  0
ENDBLK
  5
19
330
17
100
AcDbEntity
  8
0
100
AcDbBlockEnd
  0
BLOCK
  5
1C
330
1B
100
AcDbEntity
  8
0
100
AcDbBlockBegin
  2
*Paper_Space
 70
0
 10
0.0
 20
0.0
 30
0.0
  3
*Paper_Space
  1

  0
ENDBLK
  5
1D
330
1B
100
AcDbEntity
  8
0
100
AcDbBlockEnd
  0
ENDSEC
  0
SECTION
  2
ENTITIES
  0
LWPOLYLINE
  5
34
330
17
100
AcDbEntity
  8
ENG_L
100
AcDbPolyline
 90
10
 70
1
 10
236.53680839876418
 20
51.834032367222285
 10
239.01958490886537
 20
53.82025357530329
 10
239.54564881617907
 20
53.29418966798938
 10
238.21705451466275
 20
51.43415764586656
 10
237.19365080227695
 20
50.92245578967369
 10
234.8756554143118
 20
50.458856712080724
 10
234.37460935856163
 20
49.95781065633042
 10
230.9928797683348
 20
50.333558388577785
 10
230.9898855240886
 20
50.37431582125495
 10
236.53680839876418
 20
51.834032367222285
  0
LWPOLYLINE
  5
35
330
17
100
AcDbEntity
  8
ENG_L
100
AcDbPolyline
 90
7
 70
1
 10
239.47349656184412
 20
56.1871682263787
 10
238.04937848077458
 20
56.89922726691332
 10
238.37281652174138
 20
61.750797881415686
 10
238.63660327462333
 20
61.75661387820697
 10
238.99151995721726
 20
58.56236373486156
 10
239.47349656184412
 20
58.080387130234776
 10
239.47349656184412
 20
56.1871682263787
  0
LWPOLYLINE
  5
36
330
17
100
AcDbEntity
  8
ENG_L
100
AcDbPolyline
 90
9
 70
1
 10
237.58787847867995
 20
66.16651748811265
 10
237.58787847867995
 20
64.16665658348408
 10
238.53068752026203
 20
62.281038500319966
 10
238.53068752026203
 20
61.04688544243864
 10
237.63954997522248
 20
61.04688544243864
 10
237.13341340908121
 20
63.07143170700369
 10
236.16329835794167
 20
64.52660428371304
 10
236.45167652766608
 20
66.54525147178403
 10
237.58787847867995
 20
66.16651748811265
  0
LWPOLYLINE
  5
37
330
17
100
AcDbEntity
  8
ENG_L
100
AcDbPolyline
 90
5
 70
1
 10
235.70226039551585
 20
67.17514421272209
 10
235.70226039551585
 20
68.45128658763744
 10
236.31841776494377
 20
69.06744395706532
 10
236.69687771381243
 20
67.17514421272209
 10
235.70226039551585
 20
67.17514421272209
  0
LWPOLYLINE
  5
38
330
17
100
AcDbEntity
  8
ENG_L
100
AcDbPolyline
 90
5
 70
1
 10
236.22135979504313
 20
69.40129998117706
 10
235.8052660603075
 20
68.15301877697011
 10
234.19041576020493
 20
69.76786907707266
 10
234.72291408833445
 20
70.30036740520241
 10
236.22135979504313
 20
69.40129998117706
  0
LWPOLYLINE
  5
39
330
17
100
AcDbEntity
  8
ENG_L
100
AcDbPolyline
 90
7
 70
1
 10
234.2889741796995
 20
70.36872613514566
 10
234.2870626600509
 20
70.09345403195
 10
230.00576606419966
 20
69.76412352457683
 10
227.53005992266043
 20
70.82514044237942
 10
230.12873947935682
 20
71.1963803790503
 10
230.62313567761763
 20
70.70198418078944
 10
234.2889741796995
 20
70.36872613514566
  0
LWPOLYLINE
  5
3A
330
17
100
AcDbEntity
  8
ENG_L
100
AcDbPolyline
 90
5
 70
1
 10
232.62547477860147
 20
50.074095469114674
 10
228.65200067512353
 20
48.54583619854624
 10
226.68989347837015
 20
48.93825763789705
 10
230.0105653763334
 20
50.44765395515294
 10
232.62547477860147
 20
50.074095469114674
  0
LWPOLYLINE
  5
3B
330
17
100
AcDbEntity
  8
ENG_L
100
AcDbPolyline
 90
5
 70
1
 10
227.01634228354777
 20
71.28508830423752
 10
228.2234490647343
 20
71.68745723129966
 10
228.83182932137984
 20
71.0790769746541
 10
227.62472254019335
 20
70.67670804759196
 10
227.01634228354777
 20
71.28508830423752
  0
LWPOLYLINE
  5
3C
330
17
100
AcDbEntity
  8
ENG_L
100
AcDbPolyline
 90
5
 70
1
 10
227.93076746364298
 20
48.40991279283935
 10
226.19670060610989
 20
48.0630994213328
 10
225.56038153732948
 20
48.69941849011317
 10
227.2944483948626
 20
49.04623186161972
 10
227.93076746364298
 20
48.40991279283935
  0
LWPOLYLINE
  5
3D
330
17
100
AcDbEntity
  8
ENG_L
100
AcDbPolyline
 90
4
 70
1
 10
225.09565867771764
 20
70.84874930611251
 10
225.09565867771764
 20
72.45822501436139
 10
225.90039653184195
 20
71.65348716023678
 10
225.09565867771764
 20
70.84874930611251
  0
LWPOLYLINE
  5
3E
330
17
100
AcDbEntity
  8
ENG_L
100
AcDbPolyline
 90
5
 70
1
 10
225.60909615229878
 20
71.94478753978007
 10
222.88777580873918
 20
71.64241861271792
 10
222.22519859918137
 20
72.30499582227567
 10
224.94651894274097
 20
72.60736474933782
 10
225.60909615229878
 20
71.94478753978007
  0
LWPOLYLINE
  5
3F
330
17
100
AcDbEntity
  8
ENG_L
100
AcDbPolyline
 90
5
 70
1
 10
224.67535657157742
 20
47.894087518576825
 10
221.47152059611557
 20
47.60282970262564
 10
220.80191557594762
 20
48.272434722793854
 10
224.00575155140928
 20
48.56369253874482
 10
224.67535657157742
 20
47.894087518576825
  0
LWPOLYLINE
  5
40
330
17
100
AcDbEntity
  8
ENG_L
100
AcDbPolyline
 90
5
 70
1
 10
222.10899866616126
 20
73.08786242196241
 10
222.74531773494164
 20
72.45154335318216
 10
221.0112508774085
 20
72.10472998167539
 10
220.37493180862822
 20
72.74104905045587
 10
222.10899866616126
 20
73.08786242196241
  0
LWPOLYLINE
  5
41
330
17
100
AcDbEntity
  8
ENG_L
100
AcDbPolyline
 90
4
 70
1
 10
220.38161346980732
 20
72.26296286848566
 10
220.38161346980732
 20
73.8724385767342
 10
221.18635132393166
 20
73.06770072260993
 10
220.38161346980732
 20
72.26296286848566
  0
LWPOLYLINE
  5
42
330
17
100
AcDbEntity
  8
ENG_L
100
AcDbPolyline
 90
4
 70
1
 10
220.7149468031406
 20
73.53910524340101
 10
219.91020894901627
 20
72.73436738927641
 10
219.91020894901627
 20
74.34384309752528
 10
220.7149468031406
 20
73.53910524340101
  0
LWPOLYLINE
  5
43
330
17
100
AcDbEntity
  8
ENG_L
100
AcDbPolyline
 90
7
 70
1
 10
218.30598622920314
 20
45.86956269262332
 10
219.7286765497071
 20
48.43040526953046
 10
220.1646894028552
 20
47.1223667100863
 10
219.16111285079566
 20
45.11521360596726
 10
217.8525496073316
 20
43.806650362503085
 10
216.6454428261451
 20
44.20901928956533
 10
218.30598622920314
 20
45.86956269262332
  0
LWPOLYLINE
  5
44
330
17
100
AcDbEntity
  8
ENG_L
100
AcDbPolyline
 90
4
 70
1
 10
216.61037730347905
 20
39.26464641311345
 10
216.61037730347905
 20
40.87412212136199
 10
217.41511515760342
 20
40.069384267237716
 10
216.61037730347905
 20
39.26464641311345
  0
LWPOLYLINE
  5
45
330
17
100
AcDbEntity
  8
ENG_L
100
AcDbPolyline
 90
5
 70
1
 10
215.90327052229253
 20
40.77649104842429
 10
215.90327052229253
 20
44.010505010934175
 10
217.10831378623755
 20
44.412186098915726
 10
216.82864493619974
 20
40.77649104842429
 10
215.90327052229253
 20
40.77649104842429
  0
LWPOLYLINE
  5
46
330
17
100
AcDbEntity
  8
ENG_L
100
AcDbPolyline
 90
33
 70
1
 10
209.31992150779664
 20
49.874605823309714
 10
208.87062133855687
 20
51.6718065002687
 10
208.5502215651566
 20
51.778606424735415
 10
207.87455537738145
 20
47.499387235492854
 10
206.69178782504667
 20
46.31661968315803
 10
206.94341488558075
 20
54.11705855971305
 10
206.4751801064719
 20
54.58529333882189
 10
206.4751801064719
 20
55.81896308629353
 10
207.7090415590346
 20
56.06573537680604
 10
207.87061547540156
 20
56.550457125906895
 10
206.94658462726292
 20
58.398518822184165
 10
206.94658462726292
 20
59.270825598067404
 10
205.58524776416394
 20
60.178383506800046
 10
205.06596099538976
 20
61.216957044348376
 10
204.58356380428802
 20
66.52332614646772
 10
205.39891871275256
 20
67.88225099390854
 10
206.37754903353405
 20
67.88225099390854
 10
207.3203580751161
 20
68.82506003549061
 10
208.26316711669818
 20
68.82506003549061
 10
208.7956654448278
 20
69.35755836362023
 10
210.24641627280013
 20
68.48710786683677
 10
210.24641627280013
 20
62.154031842210024
 10
209.31817708127704
 20
60.76167305492541
 10
209.78629473473492
 20
58.421084787635856
 10
209.35469817416524
 20
57.557891666496495
 10
210.24641627280013
 20
56.666173567861634
 10
210.24641627280013
 20
55.22569383475684
 10
211.18922531438218
 20
53.811480272383804
 10
211.18922531438218
 20
51.980641308616015
 10
212.6034388767553
 20
51.037832267033956
 10
212.6034388767553
 20
49.917823927031705
 10
211.2238472940053
 20
46.88272244498171
 10
209.31992150779664
 20
49.874605823309714
  0
LWPOLYLINE
  5
47
330
17
100
AcDbEntity
  8
ENG_L
100
AcDbPolyline
 90
15
 70
1
 10
200.69213167952307
 20
41.455034725092155
 10
200.8183258569795
 20
41.58122890254856
 10
201.76113489856158
 20
40.6384198609665
 10
201.76113489856158
 20
38.87660068918552
 10
197.44686506114124
 20
39.13038126785728
 10
196.0762821713345
 20
39.95273100174135
 10
197.0608113418024
 20
44.87537685408094
 10
198.00142264039746
 20
46.28629380197358
 10
198.47186750636996
 20
49.108962997808426
 10
199.29927686971098
 20
50.487978603376725
 10
200.2783756433098
 20
50.161612345510534
 10
200.8183258569795
 20
49.08171191817101
 10
200.8183258569795
 20
43.896262189469624
 10
201.31373533012857
 20
42.90544324317158
 10
200.69213167952307
 20
41.455034725092155
  0
LWPOLYLINE
  5
48
330
17
100
AcDbEntity
  8
ENG_L
100
AcDbPolyline
 90
7
 70
1
 10
197.51849421144226
 20
40.87350530943657
 10
197.51849421144226
 20
40.75603554241414
 10
199.7869126397282
 20
40.549815685297254
 10
200.1801705105185
 20
40.94307355608762
 10
199.8013869755453
 20
42.45820769598041
 10
199.5823210018238
 20
42.02007574853739
 10
197.51849421144226
 20
40.87350530943657
  0
LWPOLYLINE
  5
49
330
17
100
AcDbEntity
  8
ENG_L
100
AcDbPolyline
 90
5
 70
1
 10
199.5707789612731
 20
45.933345297916595
 10
199.44017702379122
 20
45.0191317355435
 10
199.87551681539745
 20
45.0191317355435
 10
199.87551681539745
 20
45.62860744379227
 10
199.5707789612731
 20
45.933345297916595
  0
LWPOLYLINE
  5
4A
330
17
100
AcDbEntity
  8
ENG_L
100
AcDbPolyline
 90
13
 70
1
 10
199.5017433675442
 20
68.82506003549061
 10
197.98989873223329
 20
67.31321540017976
 10
197.98989873223329
 20
65.89900183780661
 10
197.61612528438008
 20
65.52522838995345
 10
197.98989873223329
 20
65.15145494210017
 10
197.98989873223329
 20
63.875312567184814
 10
196.7137563573179
 20
63.875312567184814
 10
196.10428064906918
 20
64.48478827543357
 10
196.10428064906918
 20
66.56566850447332
 10
196.5756851698602
 20
67.03707302526429
 10
196.5756851698602
 20
68.52354009206785
 10
198.9963687756904
 20
69.33043462734456
 10
199.5017433675442
 20
68.82506003549061
  0
LWPOLYLINE
  5
4B
330
17
100
AcDbEntity
  8
ENG_L
100
AcDbPolyline
 90
4
 70
1
 10
193.51155578471852
 20
65.66329957741124
 10
193.51155578471852
 20
67.27277528565978
 10
194.31629363884286
 20
66.4680374315355
 10
193.51155578471852
 20
65.66329957741124
  0
LWPOLYLINE
  5
4C
330
17
100
AcDbEntity
  8
ENG_L
100
AcDbPolyline
 90
5
 70
1
 10
186.67619023324855
 20
60.90881425498096
 10
187.2923476026765
 20
61.52497162440884
 10
187.67080755154512
 20
59.6326718800656
 10
186.67619023324855
 20
59.6326718800656
 10
186.67619023324855
 20
60.90881425498096
  0
LWPOLYLINE
  5
4D
330
17
100
AcDbEntity
  8
ENG_L
100
AcDbPolyline
 90
17
 70
1
 10
185.32729856769814
 20
67.96061557998112
 10
186.6687741238498
 20
66.08254980136886
 10
187.1723405597428
 20
61.04688544243864
 10
186.24725833990118
 20
61.04688544243864
 10
186.1477239083757
 20
61.54455760006628
 10
185.32441680747993
 20
59.07463629737908
 10
185.66972018979152
 20
58.95953516994179
 10
186.77919589804017
 20
60.06901087819039
 10
187.17345465148946
 20
58.8862346178427
 10
185.84189562198802
 20
57.022051976540645
 10
183.82397646440816
 20
57.31032614190923
 10
184.31292252400658
 20
61.71084067829513
 10
183.37635858771134
 20
63.58396855088566
 10
183.37635858771134
 20
65.15145494210017
 10
183.84776310850236
 20
65.62285946289126
 10
183.84776310850236
 20
67.07289430446362
 10
185.32729856769814
 20
67.96061557998112
  0
LWPOLYLINE
  5
4E
330
17
100
AcDbEntity
  8
ENG_L
100
AcDbPolyline
 90
4
 70
1
 10
183.14065632731584
 20
81.88631543018177
 10
183.94539418144018
 20
81.0815775760575
 10
183.14065632731584
 20
80.27683972193323
 10
183.14065632731584
 20
81.88631543018177
  0
LWPOLYLINE
  5
4F
330
17
100
AcDbEntity
  8
ENG_L
100
AcDbPolyline
 90
4
 70
1
 10
181.7264427649427
 20
81.21964876351528
 10
181.7264427649427
 20
82.82912447176383
 10
182.53118061906707
 20
82.02438661763955
 10
181.7264427649427
 20
81.21964876351528
  0
LWPOLYLINE
  5
50
330
17
100
AcDbEntity
  8
ENG_L
100
AcDbPolyline
 90
17
 70
1
 10
174.81020594120508
 20
40.540788788028806
 10
173.5744947240375
 20
40.540788788028806
 10
173.00545913030862
 20
39.97175319429991
 10
172.06265008872657
 20
40.91456223588197
 10
172.06265008872657
 20
44.88106054808583
 10
172.95891900031802
 20
45.777329459677276
 10
174.89107721347276
 20
44.811250353099965
 10
176.82323542662752
 20
45.777329459677276
 10
177.70093135077877
 20
44.89963353552595
 10
178.1723358715698
 20
42.542610931570856
 10
179.24992196097006
 20
41.465024842170514
 10
180.5703536407046
 20
41.200938506223636
 10
180.2566310834219
 20
38.377435490679176
 10
179.5585822913925
 20
39.07548428270846
 10
178.70186789130443
 20
38.64712708266449
 10
176.91709918838157
 20
38.902094040224824
 10
174.81020594120508
 20
40.540788788028806
  0
LWPOLYLINE
  5
51
330
17
100
AcDbEntity
  8
ENG_L
100
AcDbPolyline
 90
4
 70
1
 10
180.17415801511189
 20
51.38309276622244
 10
179.36942016098754
 20
50.57835491209816
 10
179.36942016098754
 20
52.18783062034704
 10
180.17415801511189
 20
51.38309276622244
  0
LWPOLYLINE
  5
52
330
17
100
AcDbEntity
  8
ENG_L
100
AcDbPolyline
 90
4
 70
1
 10
178.89801564019652
 20
83.30052899255513
 10
179.70275349432086
 20
82.49579113843053
 10
178.89801564019652
 20
81.69105328430626
 10
178.89801564019652
 20
83.30052899255513
  0
LWPOLYLINE
  5
53
330
17
100
AcDbEntity
  8
ENG_L
100
AcDbPolyline
 90
13
 70
1
 10
178.66231337980102
 20
57.2756492761104
 10
177.79186482181288
 20
57.2756492761104
 10
176.30529077584586
 20
61.23984673202243
 10
176.30529077584586
 20
64.95619279622456
 10
174.85710714240994
 20
66.40437642966046
 10
175.25947606947219
 20
67.61148321084698
 10
176.3052907758459
 20
66.56566850447332
 10
176.67906422369907
 20
66.93944195232649
 10
178.2885399319478
 20
66.93944195232649
 10
179.13371790059205
 20
66.09426398368224
 10
179.13371790059205
 20
58.82793402594122
 10
178.66231337980102
 20
58.356529505150135
 10
178.66231337980102
 20
57.2756492761104
  0
LWPOLYLINE
  5
54
330
17
100
AcDbEntity
  8
ENG_L
100
AcDbPolyline
 90
8
 70
1
 10
176.71963349255503
 20
78.98652486933454
 10
176.28512907649338
 20
81.15904694964283
 10
176.67906422369907
 20
81.55298209684847
 10
176.20765970290805
 20
82.02438661763955
 10
177.19427197766572
 20
83.01099889239727
 10
179.3655853025204
 20
82.08043603888804
 10
177.21272118681262
 20
80.46578795210723
 10
176.71963349255503
 20
78.98652486933454
  0
LWPOLYLINE
  5
55
330
17
100
AcDbEntity
  8
ENG_L
100
AcDbPolyline
 90
17
 70
1
 10
174.12703037707595
 20
68.2813183758667
 10
173.05482239257915
 20
68.63872103736557
 10
172.82510702049825
 20
69.3278671536084
 10
171.59124556793554
 20
69.5746394441209
 10
171.59124556793554
 20
70.80830919159264
 10
172.06265008872657
 20
71.27971371238363
 10
172.06265008872657
 20
72.23817604398275
 10
174.41967269268173
 20
74.12379412714687
 10
174.41967269268173
 20
75.47310303087951
 10
175.32742453477724
 20
77.5911906624357
 10
176.88153072153233
 20
75.0010136845104
 10
178.29574428390544
 20
75.47241820530137
 10
179.1685446754631
 20
74.01775088603857
 10
176.89862862351197
 20
69.73013167679764
 10
174.9633788169779
 20
70.21394412843107
 10
174.40109970524153
 20
69.65166501669474
 10
174.12703037707595
 20
68.2813183758667
  0
LWPOLYLINE
  5
56
330
17
100
AcDbEntity
  8
ENG_L
100
AcDbPolyline
 90
4
 70
1
 10
176.06958851545033
 20
80.00069734701765
 10
176.8743263695747
 20
79.19595949289338
 10
176.06958851545033
 20
78.39122163876911
 10
176.06958851545033
 20
80.00069734701765
  0
LWPOLYLINE
  5
57
330
17
100
AcDbEntity
  8
ENG_L
100
AcDbPolyline
 90
5
 70
1
 10
175.93689191984652
 20
78.9251917098317
 10
176.39660793308215
 20
77.54604367012475
 10
175.3624817342638
 20
77.54604367012475
 10
175.3624817342638
 20
78.35078152424913
 10
175.93689191984652
 20
78.9251917098317
  0
LWPOLYLINE
  5
58
330
17
100
AcDbEntity
  8
ENG_L
100
AcDbPolyline
 90
4
 70
1
 10
175.12677947386828
 20
82.16245780509735
 10
175.12677947386828
 20
83.77193351334589
 10
175.93151732799265
 20
82.96719565922162
 10
175.12677947386828
 20
82.16245780509735
  0
LWPOLYLINE
  5
59
330
17
100
AcDbEntity
  8
ENG_L
100
AcDbPolyline
 90
10
 70
1
 10
172.5154816220774
 20
38.29997024445164
 10
173.62018782699295
 20
37.1952640395361
 10
176.5077887226565
 20
35.591041319722905
 10
174.60431967625942
 20
35.591041319722905
 10
171.98981783404818
 20
36.77945124800086
 10
169.55715969232145
 20
37.26598287634608
 10
168.67513987020308
 20
38.73601591320997
 10
170.11174625893076
 20
39.59797974644663
 10
172.2558797216784
 20
39.59797974644663
 10
172.5154816220774
 20
38.29997024445164
  0
LWPOLYLINE
  5
5A
330
17
100
AcDbEntity
  8
ENG_L
100
AcDbPolyline
 90
5
 70
1
 10
171.82694782833104
 20
83.43860018001259
 10
174.01355391852235
 20
83.43860018001259
 10
175.88206807553107
 20
82.31749168580737
 10
171.82694782833104
 20
82.0055593590997
 10
171.82694782833104
 20
83.43860018001259
  0
LWPOLYLINE
  5
5B
330
17
100
AcDbEntity
  8
ENG_L
100
AcDbPolyline
 90
5
 70
1
 10
174.9547382153477
 20
83.94397477186655
 10
175.56311847199325
 20
83.33559451522099
 10
174.3560116908067
 20
82.93322558815875
 10
173.7476314341612
 20
83.54160584480441
 10
174.9547382153477
 20
83.94397477186655
  0
LWPOLYLINE
  5
5C
330
17
100
AcDbEntity
  8
ENG_L
100
AcDbPolyline
 90
5
 70
1
 10
174.9547382153477
 20
32.560882005644
 10
175.56311847199328
 20
31.95250174899844
 10
174.35601169080675
 20
31.550132821936305
 10
173.7476314341612
 20
32.15851307858186
 10
174.9547382153477
 20
32.560882005644
  0
LWPOLYLINE
  5
5D
330
17
100
AcDbEntity
  8
ENG_L
100
AcDbPolyline
 90
6
 70
1
 10
173.00545913030862
 20
46.10001196458335
 10
172.06265008872657
 20
47.04282100616541
 10
172.06265008872657
 20
50.610168302008596
 10
173.18422133549385
 20
50.9840253842645
 10
173.96842987124316
 20
47.062982705517896
 10
173.00545913030862
 20
46.10001196458335
  0
LWPOLYLINE
  5
5E
330
17
100
AcDbEntity
  8
ENG_D
100
AcDbPolyline
 90
63
 70
1
 10
225.24606324813968
 20
69.02337717618335
 10
222.42314071925796
 20
71.18208263944581
 10
221.03307849509
 20
71.18208263944581
 10
219.14746041192586
 20
72.12489168102788
 10
218.19500737961602
 20
72.12489168102788
 10
216.84607956387458
 20
72.9342483704728
 10
216.84607956387458
 20
73.7500688528917
 10
219.09489901105619
 20
73.99993768035628
 10
219.700008303189
 20
74.60504697248905
 10
221.217244847212
 20
72.58206491379171
 10
224.9694384589652
 20
72.1130407123226
 10
225.42899201105098
 20
71.65348716023678
 10
227.27262077718115
 20
71.65348716023678
 10
230.10104790192733
 20
70.23927359786374
 10
234.3856779060806
 20
70.23927359786374
 10
236.17366491630688
 20
68.45128658763744
 10
236.17366491630688
 20
67.50847754605537
 10
236.6450694370979
 20
67.03707302526429
 10
236.6450694370979
 20
64.63806110427517
 10
238.53068752026203
 20
60.86682493794693
 10
238.53068752026203
 20
57.13757808865261
 10
239.47349656184412
 20
56.19476904707066
 10
239.47349656184412
 20
53.64248429723983
 10
237.72033552835416
 20
51.889323263749844
 10
235.27624798255817
 20
50.91168824543146
 10
233.8722840682556
 20
50.91168824543146
 10
231.98666598509146
 20
49.968879203849404
 10
230.09542557168294
 20
49.968879203849404
 10
225.85278488456365
 20
48.083261120685286
 10
221.65775584472271
 20
48.083261120685286
 10
221.1863513239317
 20
47.611856599894196
 10
219.81319468800405
 20
47.611856599894196
 10
218.6794898746573
 20
45.571187935870114
 10
216.37467504308356
 20
43.72733607061108
 10
216.37467504308356
 20
41.08355821102594
 10
217.34184277655882
 20
39.63280661081292
 10
216.9490852286662
 20
38.454533967135276
 10
215.4318660015015
 20
39.97175319429991
 10
215.4318660015015
 20
40.91456223588197
 10
214.96046148071045
 20
41.38596675667294
 10
214.96046148071045
 20
43.95390479652084
 10
217.35159097177535
 20
45.866808389372736
 10
217.81857953626886
 20
47.26777408285321
 10
219.1054710948919
 20
48.554665641476255
 10
220.04828013647398
 20
48.554665641476255
 10
220.519684657265
 20
49.02607016226723
 10
225.26272427791108
 20
49.02607016226723
 10
227.6883835420683
 20
50.5696715121855
 10
227.6883835420683
 20
51.70882527886389
 10
226.8055946686502
 20
52.150219715572874
 10
225.751674515957
 20
54.258060020959235
 10
227.21697902127727
 20
55.723364526279575
 10
227.21697902127727
 20
57.413720463568076
 10
226.139904922971
 20
58.49079456187434
 10
227.74126024134242
 20
59.55836477412202
 10
228.1485050801335
 20
60.37285445170415
 10
227.71124028693103
 20
62.55917841771641
 10
226.17833750333875
 20
63.65410897742518
 10
224.8953502735252
 20
63.91070642338792
 10
224.40712488397128
 20
66.35183337115758
 10
223.90607882822113
 20
66.85287942690765
 10
224.18648874492635
 20
69.3765686772545
 10
225.24606324813968
 20
69.02337717618335
  0
LWPOLYLINE
  5
5F
330
17
100
AcDbEntity
  8
ENG_D
100
AcDbPolyline
 90
5
 70
1
 10
225.35849651480837
 20
68.93739879578963
 10
225.14746695443216
 20
67.88225099390854
 10
225.70513438596635
 20
67.88225099390854
 10
226.15284172953048
 20
68.32995833747269
 10
225.35849651480837
 20
68.93739879578963
  0
LWPOLYLINE
  5
60
330
17
100
AcDbEntity
  8
ENG_D
100
AcDbPolyline
 90
7
 70
1
 10
233.52558990137106
 20
61.251185105507425
 10
235.84422055533778
 20
60.78745897471405
 10
236.49898139311352
 20
59.80531771805053
 10
236.63328745756064
 20
60.74546016918059
 10
235.1687882008463
 20
62.62838778495616
 10
233.39500138206913
 20
61.6429506634133
 10
233.52558990137106
 20
61.251185105507425
  0
LWPOLYLINE
  5
61
330
17
100
AcDbEntity
  8
ENG_D
100
AcDbPolyline
 90
10
 70
1
 10
233.8368040117042
 20
64.97635449557704
 10
233.99540451753697
 20
64.18335196641323
 10
234.33741009541328
 20
64.29735382570534
 10
234.71578941077274
 20
65.43249177178367
 10
235.2308558747248
 20
64.40235884387957
 10
235.2308558747248
 20
66.8910622480121
 10
234.6356544618157
 20
68.27986554480003
 10
233.413808177383
 20
67.75621713718604
 10
234.32891059907735
 20
65.46846108295024
 10
233.8368040117042
 20
64.97635449557704
  0
LWPOLYLINE
  5
62
330
17
100
AcDbEntity
  8
ENG_D
100
AcDbPolyline
 90
159
 70
1
 10
178.6293331518368
 20
74.00019106416732
 10
178.08607343411452
 20
74.9056239270377
 10
176.68608058249083
 20
74.43895964316316
 10
175.3470327560383
 20
76.3136266001968
 10
175.84465379929702
 20
78.80173181649042
 10
176.81868461367097
 20
80.74979344523825
 10
178.0407454446087
 20
81.97185427617603
 10
179.53375751917696
 20
82.96719565922162
 10
180.6132172095968
 20
82.96719565922162
 10
182.37049750669945
 20
81.91282748095996
 10
180.66413552334316
 20
81.57155508428882
 10
179.60512242138307
 20
80.5125419823286
 10
179.60512242138307
 20
79.76499508662216
 10
180.1741580151119
 20
79.19595949289338
 10
179.60512242138307
 20
78.62692389916448
 10
179.60512242138307
 20
76.42317412405086
 10
180.54793146296512
 20
74.53755604088674
 10
180.54793146296512
 20
72.5406544459153
 10
180.12761788512128
 20
71.7000272902274
 10
180.52935847552496
 20
71.29828669982375
 10
181.472167517107
 20
66.58424149191345
 10
181.4907405045472
 20
66.56566850447332
 10
181.9807180127784
 20
67.05564601270441
 10
182.45212253356942
 20
69.41266861665963
 10
184.24686602578825
 20
71.20741210887849
 10
188.21090646813025
 20
70.21640199829304
 10
188.65117515787512
 20
69.77613330854804
 10
194.26495493721643
 20
70.24394829015989
 10
195.11493147749644
 20
69.81896002001986
 10
196.02094731573584
 20
70.72497585825921
 10
199.63981455500192
 20
70.20799482407836
 10
199.63981455500192
 20
68.88073388968196
 10
199.11932752536114
 20
68.73878288159807
 10
200.34692133618847
 20
66.52911402210893
 10
200.34692133618847
 20
65.62285946289126
 10
201.78646436799423
 20
64.18331643108543
 10
201.27279092657827
 20
62.12862266542163
 10
200.55163277792292
 20
61.04688544243864
 10
201.67110464631568
 20
61.04688544243864
 10
202.28363036229976
 20
59.821834010470475
 10
201.85876597149937
 20
59.39696961967
 10
203.15247686136388
 20
58.103258729805596
 10
203.61941917988807
 20
56.23548945570877
 10
205.3980719023845
 20
54.90149991383642
 10
205.52130251737088
 20
56.010575448714015
 10
205.07050824146555
 20
56.46136972461924
 10
204.59910372067452
 20
61.175414932529534
 10
204.1181575025167
 20
61.6563611506874
 10
204.1181575025167
 20
64.01338375464249
 10
203.62142351229303
 20
64.51011774486626
 10
204.16982899905923
 20
66.70373969193099
 10
205.0405110380887
 20
66.70373969193099
 10
205.52652170213835
 20
61.35762238738496
 10
206.17557165341498
 20
60.27587246859056
 10
207.3929634141994
 20
59.54543741211993
 10
207.8708206814048
 20
57.15615107609273
 10
208.3947682606988
 20
56.63220349679887
 10
208.06974577865537
 20
55.65713605066846
 10
206.94658462726292
 20
55.43250382039
 10
206.94658462726292
 20
54.780555484697516
 10
207.41798914805395
 20
54.309150963906426
 10
207.41798914805395
 20
51.28546169328463
 10
206.9523933775858
 20
50.81986592281651
 10
207.13427208472632
 20
47.7279279014271
 10
207.8940387125906
 20
49.09550783158289
 10
208.1489434780162
 20
52.40926978211557
 10
209.26518860308823
 20
52.037188073758344
 10
209.75869747543055
 20
50.063152584389094
 10
211.1546033347591
 20
47.86958623401571
 10
212.13203435596427
 20
50.019934480667104
 10
212.13203435596427
 20
50.78554422382897
 10
210.71782079359116
 20
51.72835326541092
 10
210.71782079359116
 20
53.668750467971485
 10
209.7750117520091
 20
55.08296403034451
 10
209.7750117520091
 20
56.47091142198602
 10
208.79823263936424
 20
57.44769053463084
 10
209.2696371601553
 20
58.86190409700398
 10
208.83220271042705
 20
59.299338546732194
 10
208.83220271042705
 20
60.88254808424931
 10
209.7750117520091
 20
62.29676164662234
 10
209.7750117520091
 20
68.20798350655
 10
208.67000065636873
 20
68.76048905437004
 10
209.67738067907126
 20
69.76786907707266
 10
210.76620049790543
 20
69.76786907707266
 10
212.57454593012136
 20
68.99286389183723
 10
212.7883389421637
 20
67.92389883162564
 10
213.98004692618227
 20
68.16224042842933
 10
214.50335469952392
 20
64.49908601503806
 10
214.01765243912837
 20
64.01338375464249
 10
214.01765243912837
 20
62.61823384507548
 10
212.65635616699223
 20
60.80317214889386
 10
213.54624791833734
 20
59.468334521876166
 10
213.54624791833734
 20
57.13757808865261
 10
214.96046148071045
 20
55.723364526279575
 10
214.96046148071045
 20
53.811480272383804
 10
215.9508471237633
 20
52.3259018078045
 10
214.96046148071045
 20
50.8403233432253
 10
214.96046148071045
 20
49.08171191817101
 10
215.90327052229253
 20
47.19609383500689
 10
215.90327052229253
 20
46.10001196458335
 10
215.07859469951026
 20
45.27533614180101
 10
210.81857510118024
 20
44.32866511994993
 10
208.9107701305589
 20
42.8978113919839
 10
207.3203580751161
 20
42.8978113919839
 10
206.51000608320828
 20
43.70816338389183
 10
205.53474644103062
 20
46.14631248933587
 10
205.3302276128212
 20
50.032170225314474
 10
204.1181575025167
 20
48.47379436920862
 10
204.1181575025167
 20
47.709487672832005
 10
205.08629601353144
 20
46.74134916181727
 10
204.56099811507497
 20
44.640157567991444
 10
201.2170515608483
 20
42.325117645834574
 10
200.34692133618847
 20
43.775334686934286
 10
200.34692133618847
 20
48.96078441563567
 10
199.7420644632602
 20
49.968879203849404
 10
199.53756464674365
 20
49.968879203849404
 10
198.92214352046977
 20
48.943177326726264
 10
198.44977934486016
 20
46.10899227306875
 10
197.51849421144226
 20
44.712064572941856
 10
197.51849421144226
 20
43.271584839837175
 10
197.04708969065123
 20
42.80018031904609
 10
197.04708969065123
 20
41.43521812529638
 10
196.18378614264034
 20
39.42084317993777
 10
194.66473761726343
 20
40.93989170531464
 10
195.14211038309978
 20
42.849382768660014
 10
194.12014064283355
 20
44.28014040503281
 10
192.22906621768522
 20
43.807371798745606
 10
191.26409141955625
 20
45.2548339959391
 10
190.51606305977887
 20
45.2548339959391
 10
188.0727037044771
 20
43.699968951656174
 10
187.8153731145154
 20
41.89865482192423
 10
185.80568279517166
 20
42.40107740176025
 10
185.35960774381329
 20
41.95500235040184
 10
183.93410269708932
 20
41.95500235040184
 10
180.98633954632137
 20
39.46074122282894
 10
180.4321799001892
 20
37.79826228443262
 10
180.09700140020823
 20
40.81486878426111
 10
179.01751384021404
 20
41.03076629626001
 10
177.73807732565913
 20
42.310202810814765
 10
177.2666728048681
 20
44.66722541477009
 10
176.20765970290805
 20
45.72623851673008
 10
177.2666728048681
 20
46.78525161869007
 10
177.7353285423303
 20
49.128530306001174
 10
179.60512242138307
 20
51.46577265481711
 10
179.60512242138307
 20
55.07879459508458
 10
178.51506446931367
 20
56.604875727981785
 10
177.62285019538814
 20
56.902280485956915
 10
178.66231337980102
 20
58.9812068547827
 10
178.66231337980102
 20
65.89900183780661
 10
178.09327778607215
 20
66.4680374315355
 10
176.8743263695747
 20
66.4680374315355
 10
176.28779284882714
 20
65.88150391078807
 10
173.94826817189067
 20
68.74092296037692
 10
173.94826817189067
 20
69.86550015001048
 10
174.7934461405349
 20
70.71067811865473
 10
175.93151732799265
 20
70.71067811865473
 10
176.36895177772084
 20
70.27324366892663
 10
176.84524098951556
 20
70.43200673952488
 10
178.6293331518368
 20
74.00019106416732
  0
LWPOLYLINE
  5
63
330
17
100
AcDbEntity
  8
ENG_D
100
AcDbPolyline
 90
10
 70
1
 10
198.60985155509397
 20
68.59983488970711
 10
197.02569092293083
 20
68.16779108093529
 10
196.58816354374233
 20
64.66757204742713
 10
197.11075069252624
 20
64.14498489864317
 10
197.51849421144226
 20
64.28089940494853
 10
197.51849421144226
 20
64.95619279622456
 10
196.94945861771342
 20
65.52522838995345
 10
197.51849421144226
 20
66.09426398368224
 10
197.51849421144226
 20
67.50847754605537
 10
198.60985155509397
 20
68.59983488970711
  0
LWPOLYLINE
  5
64
330
17
100
AcDbEntity
  8
ENG_D
100
AcDbPolyline
 90
8
 70
1
 10
191.93239630720612
 20
46.302136382322836
 10
193.275853524323
 20
47.26174868026356
 10
193.275853524323
 20
47.46618459174468
 10
192.40194699261338
 20
47.903137857599475
 10
191.8148438942158
 20
48.881643021595366
 10
191.3902354411589
 20
48.45703456853845
 10
191.3902354411589
 20
47.20573782573489
 10
191.93239630720612
 20
46.302136382322836
  0
LWPOLYLINE
  5
65
330
17
100
AcDbEntity
  8
ENG_D
100
AcDbPolyline
 90
17
 70
1
 10
183.84776310850236
 20
64.95619279622456
 10
183.84776310850236
 20
63.695252062693
 10
184.79057215008444
 20
61.809633979528876
 10
184.79057215008444
 20
60.24214758831425
 10
184.32819452656196
 20
59.77976996479184
 10
184.53441438367884
 20
57.511351536505884
 10
185.6039934041214
 20
57.511351536505884
 10
187.14759475403957
 20
59.937010800663046
 10
187.14759475403957
 20
60.713552109105336
 10
186.67619023324855
 20
61.18495662989631
 10
186.67619023324855
 20
63.54197923385152
 10
186.20478571245752
 20
64.01338375464249
 10
186.20478571245752
 20
65.92109857327833
 10
185.19665477405277
 20
67.33248188704499
 10
184.3191676292934
 20
66.80598960018935
 10
184.3191676292934
 20
65.42759731701564
 10
183.84776310850236
 20
64.95619279622456
  0
LWPOLYLINE
  5
66
330
17
100
AcDbEntity
  8
ENG_D
100
AcDbPolyline
 90
6
 70
1
 10
209.3427786791971
 20
32.99831645537221
 10
208.4416433979815
 20
31.49642432001287
 10
206.94658462726292
 20
32.39345958244411
 10
206.94658462726292
 20
33.60317332830043
 10
208.4416433979815
 20
34.50020859073155
 10
209.3427786791971
 20
32.99831645537221
  0
LWPOLYLINE
  5
67
330
17
100
AcDbEntity
  8
ENG_D
100
AcDbPolyline
 90
4
 70
1
 10
206.23947784607637
 20
67.07751313978427
 10
206.23947784607637
 20
68.68698884803315
 10
207.0442157002007
 20
67.88225099390854
 10
206.23947784607637
 20
67.07751313978427
  0
LWPOLYLINE
  5
68
330
17
100
AcDbEntity
  8
ENG_D
100
AcDbPolyline
 90
6
 70
1
 10
200.61768911925
 20
41.11519897361149
 10
201.82479590043656
 20
41.517567900673626
 10
203.27297953387247
 20
40.069384267237716
 10
201.5944682318949
 20
38.39087296526023
 10
201.30321041594382
 20
40.42967767691763
 10
200.61768911925
 20
41.11519897361149
  0
LWPOLYLINE
  5
69
330
17
100
AcDbEntity
  8
ENG_D
100
AcDbPolyline
 90
5
 70
1
 10
201.34153865448505
 20
41.24789556921527
 10
200.34692133618847
 20
41.24789556921527
 10
200.34692133618847
 20
42.52403794413062
 10
200.9630787056164
 20
43.14019531355873
 10
201.34153865448505
 20
41.24789556921527
  0
LWPOLYLINE
  5
6A
330
17
100
AcDbEntity
  8
ENG_D
100
AcDbPolyline
 90
4
 70
1
 10
192.56874674313644
 20
42.56447805865038
 10
192.56874674313644
 20
44.17395376689925
 10
193.37348459726078
 20
43.36921591277498
 10
192.56874674313644
 20
42.56447805865038
  0
LWPOLYLINE
  5
6B
330
17
100
AcDbEntity
  8
ENG_D
100
AcDbPolyline
 90
4
 70
1
 10
192.09734222234542
 20
43.70254924610817
 10
192.9020800764698
 20
42.8978113919839
 10
192.09734222234542
 20
42.093073537859624
 10
192.09734222234542
 20
43.70254924610817
  0
LWPOLYLINE
  5
6C
330
17
100
AcDbEntity
  8
ENG_D
100
AcDbPolyline
 90
4
 70
1
 10
183.94539418144015
 20
80.61017305526642
 10
183.14065632731584
 20
79.80543520114213
 10
183.14065632731584
 20
81.41491090939101
 10
183.94539418144015
 20
80.61017305526642
  0
LWPOLYLINE
  5
6D
330
17
100
AcDbEntity
  8
ENG_D
100
AcDbPolyline
 90
4
 70
1
 10
182.66925180652476
 20
81.88631543018165
 10
183.47398966064915
 20
81.0815775760575
 10
182.66925180652476
 20
80.27683972193333
 10
182.66925180652476
 20
81.88631543018165
  0
LWPOLYLINE
  5
6E
330
17
100
AcDbEntity
  8
ENG_D
100
AcDbPolyline
 90
4
 70
1
 10
181.7264427649427
 20
80.7482442427242
 10
181.7264427649427
 20
82.35771995097308
 10
182.53118061906704
 20
81.55298209684847
 10
181.7264427649427
 20
80.7482442427242
  0
LWPOLYLINE
  5
6F
330
17
100
AcDbEntity
  8
ENG_D
100
AcDbPolyline
 90
4
 70
1
 10
177.48380207782344
 20
58.316089390630154
 10
178.28853993194778
 20
57.511351536505884
 10
177.48380207782344
 20
56.706613682381615
 10
177.48380207782344
 20
58.316089390630154
  0
LWPOLYLINE
  5
70
330
17
100
AcDbEntity
  8
ENG_D
100
AcDbPolyline
 90
33
 70
1
 10
170.0794009326246
 20
31.112698372208094
 10
169.6488601777682
 20
31.54323912706458
 10
167.3939969886496
 20
30.641293851417117
 10
165.8787495625393
 20
30.641293851417117
 10
163.99313147937517
 20
31.584102892999177
 10
163.2035952666348
 20
31.584102892999177
 10
162.73219074584378
 20
31.112698372208094
 10
160.3751681418886
 20
31.112698372208094
 10
159.87607879224782
 20
30.613609022567378
 10
156.97770542341354
 20
31.40407448679494
 10
156.97770542341354
 20
33.84349442401646
 10
155.54919412143596
 20
35.27200572599409
 10
156.02059864222701
 20
38.571837371531245
 10
155.05811726918665
 20
39.534318744571586
 10
155.3936072836723
 20
40.54078878802869
 10
156.60393197556033
 20
40.54078878802869
 10
156.97770542341354
 20
40.167015340175524
 10
157.44910994420457
 20
40.6384198609665
 10
158.0181455379334
 20
40.069384267237716
 10
163.2035952666348
 20
40.069384267237716
 10
163.67499978742583
 20
39.59797974644663
 10
165.8367602455053
 20
39.59797974644663
 10
166.30816476629633
 20
40.069384267237716
 10
171.82694782833104
 20
40.069384267237716
 10
171.82694782833104
 20
39.16904785309938
 10
169.41457507379076
 20
38.686573302191384
 10
169.2771776058002
 20
38.274380898219775
 10
170.74102256616723
 20
37.22877735510044
 10
173.56944969091342
 20
36.75737283430935
 10
175.36248173426378
 20
35.47663566048775
 10
175.36248173426378
 20
32.37514012126652
 10
172.5851098863354
 20
31.112698372208094
 10
170.0794009326246
 20
31.112698372208094
  0
LWPOLYLINE
  5
71
330
17
100
AcDbEntity
  8
ENG_D
100
AcDbPolyline
 90
17
 70
1
 10
164.1140589819107
 20
38.1837661840736
 10
163.12572777212267
 20
37.59076745820078
 10
163.31571369099635
 20
36.26086602608491
 10
165.5791908580301
 20
35.808170592678266
 10
166.03202239138096
 20
35.35533905932742
 10
167.44623595375407
 20
35.35533905932742
 10
168.27284093495814
 20
34.52873407812329
 10
168.48464355535017
 20
33.46972097616319
 10
170.74606759929128
 20
33.46972097616319
 10
171.2174721200823
 20
32.99831645537221
 10
172.94981737440477
 20
32.99831645537221
 10
173.73239993676464
 20
33.38960773655209
 10
173.92769538380935
 20
34.75667586586495
 10
172.0015734981531
 20
35.82674358011839
 10
168.6872841057231
 20
35.82674358011839
 10
165.38745246018587
 20
38.1837661840736
 10
164.1140589819107
 20
38.1837661840736
  0
LWPOLYLINE
  5
72
330
17
100
AcDbEntity
  8
ENG_D
100
AcDbPolyline
 90
5
 70
1
 10
174.9547382153477
 20
83.47257025107547
 10
175.56311847199328
 20
82.8641899944299
 10
174.35601169080675
 20
82.46182106736777
 10
173.7476314341612
 20
83.07020132401333
 10
174.9547382153477
 20
83.47257025107547
  0
LWPOLYLINE
  5
73
330
17
100
AcDbEntity
  8
ENG_D
100
AcDbPolyline
 90
8
 70
1
 10
171.59124556793554
 20
51.0451405975686
 10
173.1361486536768
 20
51.97208244901341
 10
173.5294125709462
 20
50.79229069720525
 10
172.5340546095176
 20
50.294611716490856
 10
172.5340546095176
 20
47.19609383500689
 10
173.29680314660786
 20
45.67059676082641
 10
171.59124556793554
 20
46.523375550162505
 10
171.59124556793554
 20
51.0451405975686
  0
LWPOLYLINE
  5
74
330
17
100
AcDbEntity
  8
ENG_D
100
AcDbPolyline
 90
7
 70
1
 10
172.5340546095176
 20
67.31321540017976
 10
171.57108386858306
 20
68.27618614111431
 10
171.87775002331816
 20
69.80951691478975
 10
173.47686365109965
 20
69.48969418923345
 10
173.47686365109965
 20
66.23233517114002
 10
172.5340546095176
 20
66.23233517114002
 10
172.5340546095176
 20
67.31321540017976
  0
LWPOLYLINE
  5
75
330
17
100
AcDbEntity
  8
ENG_D
100
AcDbPolyline
 90
4
 70
1
 10
172.29835234912207
 20
65.19189505662015
 10
172.29835234912207
 20
66.80137076486903
 10
173.1030902032464
 20
65.99663291074442
 10
172.29835234912207
 20
65.19189505662015
  0
LWPOLYLINE
  5
76
330
17
100
AcDbEntity
  8
ENG_D
100
AcDbPolyline
 90
4
 70
1
 10
173.1030902032464
 20
45.2548339959391
 10
172.29835234912207
 20
44.4500961418145
 10
172.29835234912207
 20
46.05957185006338
 10
173.1030902032464
 20
45.2548339959391
  0
LWPOLYLINE
  5
77
330
17
100
AcDbEntity
  8
ENG_K
100
AcDbPolyline
 90
8
 70
1
 10
236.27591482456515
 20
59.16126735927452
 10
235.55379260306583
 20
60.36480439510661
 10
233.16488568175032
 20
60.84258577936985
 10
232.82406968026123
 20
61.86503378383712
 10
235.2929235486033
 20
63.23661926624935
 10
237.11647395788893
 20
60.89205445431078
 10
237.11647395788893
 20
59.16126735927452
 10
236.27591482456515
 20
59.16126735927452
  0
LWPOLYLINE
  5
78
330
17
100
AcDbEntity
  8
ENG_K
100
AcDbPolyline
 90
11
 70
1
 10
235.1662848936043
 20
63.477408252731074
 10
234.75945135393377
 20
64.29107533207213
 10
234.40744438136906
 20
63.5870613869427
 10
233.3452377915607
 20
63.94113025021208
 10
233.3452377915607
 20
65.15145494210017
 10
233.77577854641711
 20
65.58199569695667
 10
232.80526288494735
 20
68.00828485063104
 10
234.88324824605186
 20
68.8988500053902
 10
235.70226039551585
 20
66.98782165664086
 10
235.70226039551585
 20
64.01338375464249
 10
235.1662848936043
 20
63.477408252731074
  0
LWPOLYLINE
  5
79
330
17
100
AcDbEntity
  8
ENG_K
100
AcDbPolyline
 90
89
 70
1
 10
207.5156202209918
 20
43.36921591277487
 10
208.7536352902952
 20
43.36921591277487
 10
210.6170664860021
 20
44.766789309555136
 10
214.84232826191067
 20
45.705736370868166
 10
215.41170430214902
 20
46.27511241110649
 10
214.97903446815064
 20
48.43846158109832
 10
214.48905695991942
 20
48.92843908932954
 10
214.48905695991942
 20
50.98305314763763
 10
215.3842894000307
 20
52.3259018078045
 10
214.48905695991942
 20
53.668750467971485
 10
214.48905695991942
 20
55.52810238040395
 10
213.07484339754632
 20
56.942315942776986
 10
213.07484339754632
 20
59.32560471746384
 10
212.07911706572733
 20
60.81919421519244
 10
213.54624791833734
 20
62.77536868533906
 10
213.54624791833734
 20
64.2086459005181
 10
214.00335469952392
 20
64.66575268170472
 10
213.58385343128344
 20
67.60226155938776
 10
212.44563078067122
 20
67.3746170292654
 10
211.96214977859609
 20
68.82506003549071
 10
211.0915942414444
 20
68.82506003549071
 10
210.11870846290958
 20
69.79794581402543
 10
212.03145183059922
 20
71.16419107666094
 10
213.85531532613246
 20
71.62015695054424
 10
214.31337486768786
 20
72.53627603365499
 10
216.36393722661845
 20
73.5615572131203
 10
221.13411235882722
 20
71.65348716023678
 10
222.582726907476
 20
71.65348716023678
 10
226.86690275065098
 20
68.37735269192657
 10
225.900396531842
 20
67.41084647311757
 10
224.5724458802121
 20
67.41084647311757
 10
224.80814814060759
 20
68.58935777509512
 10
224.41984896558068
 20
68.58935777509512
 10
224.85196513501205
 20
65.13242841964417
 10
225.4648132902504
 20
64.1110148275803
 10
226.34970431716144
 20
64.1110148275803
 10
228.15978806285932
 20
62.81809786636761
 10
228.15978806285932
 20
61.85162329656302
 10
228.65652205308302
 20
61.35488930633925
 10
228.1306497386462
 20
59.25140004859208
 10
226.87983955721043
 20
58.41752659430155
 10
227.6883835420683
 20
57.60898260944369
 10
227.6883835420683
 20
55.52810238040395
 10
226.32526092264237
 20
54.16497976097801
 10
227.1569588531133
 20
52.50158390003612
 10
228.15978806285932
 20
52.000169295163154
 10
228.15978806285932
 20
50.31089593709525
 10
225.39999759831522
 20
48.554665641476255
 10
220.71494680314063
 20
48.554665641476255
 10
220.2435422823496
 20
48.083261120685286
 10
219.30073324076756
 20
48.083261120685286
 10
218.23060219543547
 20
47.01313007535324
 10
217.7547817183469
 20
45.58566864408742
 10
215.4318660015015
 20
43.72733607061108
 10
215.4318660015015
 20
41.58122890254856
 10
215.90327052229253
 20
41.10982438175759
 10
215.90327052229253
 20
40.167015340175524
 10
217.46191122533747
 20
38.60837463713052
 10
215.98042702901049
 20
37.71948411933445
 10
213.9578666859132
 20
37.49475519232348
 10
213.0318742788118
 20
34.71677797101946
 10
212.09283026360757
 20
34.24725596341738
 10
210.67711683353014
 20
29.528211196492627
 10
207.9404489456628
 20
28.284271247461913
 10
207.0118703738946
 20
28.284271247461913
 10
205.96410761033758
 20
27.655613589327665
 10
205.7022556422579
 20
26.870057685088877
 10
204.66092692551385
 20
26.870057685088877
 10
203.22485858805234
 20
25.91267879344783
 10
201.76113489856158
 20
26.205423531346028
 10
201.76113489856158
 20
28.429943255611434
 10
202.71804038346076
 20
28.908395998061053
 10
203.1798333024275
 20
33.52632518772869
 10
204.09570553279738
 20
35.816005763653294
 10
202.76396410830753
 20
38.47948861263306
 10
201.59893284450334
 20
39.06200424453521
 10
202.5808112526376
 20
40.04388265266956
 10
200.8183258569795
 20
41.365746699413066
 10
200.8183258569795
 20
42.54770347235315
 10
204.14624281940993
 20
44.924787016946354
 10
204.5642325538751
 20
46.596745954807005
 10
203.64675298172568
 20
47.51422552695639
 10
203.64675298172568
 20
48.62603054368242
 10
204.64209436477105
 20
50.11904261825051
 10
205.53237106488984
 20
51.009319318369386
 10
206.00377558568084
 20
50.53791479757819
 10
206.00377558568084
 20
46.24303514535444
 10
206.91175865052654
 20
43.97307748324009
 10
207.5156202209918
 20
43.36921591277487
  0
LWPOLYLINE
  5
7A
330
17
100
AcDbEntity
  8
ENG_K
100
AcDbPolyline
 90
6
 70
1
 10
207.41798914805395
 20
33.372089903225486
 10
207.41798914805395
 20
32.66036428671837
 10
208.250521620251
 20
32.1608448034002
 10
208.77021450936402
 20
33.37346154466392
 10
207.92593093444427
 20
33.880031689615734
 10
207.41798914805395
 20
33.372089903225486
  0
LWPOLYLINE
  5
7B
330
17
100
AcDbEntity
  8
ENG_K
100
AcDbPolyline
 90
5
 70
1
 10
219.2031021678297
 20
75.05094987871186
 10
219.70847675968355
 20
74.54557528685812
 10
219.35217336632974
 20
73.47666510679652
 10
218.0596563885182
 20
73.90750409940028
 10
219.2031021678297
 20
75.05094987871186
  0
LWPOLYLINE
  5
7C
330
17
100
AcDbEntity
  8
ENG_K
100
AcDbPolyline
 90
23
 70
1
 10
201.2494676249599
 20
63.61472655707168
 10
199.84855913121777
 20
65.48260454872789
 10
200.2209003005611
 20
66.5996280567579
 10
201.8324998007677
 20
65.52522838995334
 10
202.6063128672058
 20
65.52522838995334
 10
203.58309197985074
 20
66.50200750259839
 10
204.6520021599122
 20
66.14570410924448
 10
204.15212757357952
 20
64.64608035024644
 10
204.58002032594098
 20
64.21818759788489
 10
205.051424846732
 20
59.50414238997459
 10
205.53237106488982
 20
59.023196171816835
 10
205.53237106488982
 20
56.666173567861634
 10
206.00377558568084
 20
56.19476904707066
 10
206.00377558568084
 20
53.97581763057313
 10
205.12678422712614
 20
53.97581763057313
 10
204.8615975167613
 20
54.771377761667736
 10
203.20343377782788
 20
55.955780432334514
 10
202.7268155397144
 20
57.862253384788346
 10
201.19209930483274
 20
59.39696961967
 10
201.7100439556144
 20
59.9149142704517
 10
201.37976063001642
 20
60.57548092164766
 10
199.72984480724784
 20
60.57548092164766
 10
201.2494676249599
 20
63.61472655707168
  0
LWPOLYLINE
  5
7D
330
17
100
AcDbEntity
  8
ENG_K
100
AcDbPolyline
 90
7
 70
1
 10
199.4041122946064
 20
71.27971371238363
 10
199.90948688646023
 20
70.77433912052989
 10
199.56746333698814
 20
69.74826847211347
 10
196.10579858165116
 20
70.13289788937315
 10
196.10305024594777
 20
70.30883430665912
 10
198.82159666270425
 20
70.69719808048147
 10
199.4041122946064
 20
71.27971371238363
  0
LWPOLYLINE
  5
7E
330
17
100
AcDbEntity
  8
ENG_K
100
AcDbPolyline
 90
23
 70
1
 10
191.75833984900805
 20
40.0750533072417
 10
191.29260436822105
 20
40.540788788028806
 10
189.40698628505692
 20
40.540788788028806
 10
188.9355817642659
 20
41.012193308819775
 10
186.28335313258935
 20
41.012193308819775
 10
184.41781806649968
 20
39.61304200925253
 10
180.54793146296512
 20
38.8390646885457
 10
180.54793146296512
 20
39.69561081938444
 10
182.76533367694847
 20
41.91301303336792
 10
183.770586264114
 20
42.41563932695058
 10
186.28225508604288
 20
42.91797309133638
 10
186.7738213061864
 20
42.42640687119281
 10
187.41457578822045
 20
42.42640687119281
 10
187.63669936597515
 20
43.98127191547574
 10
190.37878973937472
 20
45.72623851673008
 10
191.5163794627615
 20
45.72623851673008
 10
192.43702274779668
 20
44.34527358917728
 10
194.29096416941022
 20
44.808758944580696
 10
195.13860000791632
 20
43.96112310607458
 10
195.64698579996633
 20
41.92757993787455
 10
195.21256255043428
 20
41.05873343881039
 10
196.47361160906513
 20
39.79768438017961
 10
191.75833984900805
 20
40.0750533072417
  0
LWPOLYLINE
  5
7F
330
17
100
AcDbEntity
  8
ENG_K
100
AcDbPolyline
 90
4
 70
1
 10
195.39717386788263
 20
71.04401145198803
 10
196.201911722007
 20
70.23927359786374
 10
195.39717386788263
 20
69.43453574373947
 10
195.39717386788263
 20
71.04401145198803
  0
LWPOLYLINE
  5
80
330
17
100
AcDbEntity
  8
ENG_K
100
AcDbPolyline
 90
5
 70
1
 10
194.01802582817558
 20
69.87087474186437
 10
195.22513260936213
 20
70.27324366892663
 10
195.83351286600762
 20
69.66486341228095
 10
194.62640608482113
 20
69.26249448521882
 10
194.01802582817558
 20
69.87087474186437
  0
LWPOLYLINE
  5
81
330
17
100
AcDbEntity
  8
ENG_K
100
AcDbPolyline
 90
4
 70
1
 10
195.73050720121597
 20
47.611856599894196
 10
194.9257693470916
 20
46.80711874576993
 10
194.9257693470916
 20
48.416594454018465
 10
195.73050720121597
 20
47.611856599894196
  0
LWPOLYLINE
  5
82
330
17
100
AcDbEntity
  8
ENG_K
100
AcDbPolyline
 90
8
 70
1
 10
193.74725804511402
 20
47.78174117726242
 10
193.74725804511402
 20
47.04282100616541
 10
192.3967054846159
 20
45.6922684456672
 10
191.42163803848555
 20
46.01729092771079
 10
190.89866922101535
 20
48.632135015061586
 10
191.89827394573635
 20
49.63173973978263
 10
192.95570582807434
 20
48.045591916275555
 10
193.74725804511402
 20
47.78174117726242
  0
LWPOLYLINE
  5
83
330
17
100
AcDbEntity
  8
ENG_K
100
AcDbPolyline
 90
23
 70
1
 10
179.13371790059205
 20
78.8221860450401
 10
179.50749134844526
 20
79.19595949289338
 10
179.13371790059205
 20
79.56973294074655
 10
179.13371790059205
 20
80.70780412820422
 10
180.47562985945999
 20
82.04971608707223
 10
182.55405221863782
 20
81.53011049727776
 10
183.84135003412436
 20
80.24281268179124
 10
184.31091442069174
 20
73.19934688328023
 10
185.69571198725686
 20
72.27614850557018
 10
185.92287479482937
 20
71.59466008285264
 10
190.5498989240497
 20
69.68941485317359
 10
188.53624823902746
 20
69.28668471616928
 10
185.2135969665612
 20
70.71067811865484
 10
184.41679870223123
 20
70.71067811865484
 10
182.88638107948012
 20
69.18026049590375
 10
182.41497655868906
 20
66.82323789194855
 10
181.35914643374622
 20
65.76740776700585
 10
180.0983888375181
 20
71.06258967116408
 10
179.55403147843592
 20
71.60694703024618
 10
180.0765269421741
 20
72.65193795772262
 10
180.0765269421741
 20
74.4262725290793
 10
179.13371790059205
 20
76.31189061224342
 10
179.13371790059205
 20
78.8221860450401
  0
LWPOLYLINE
  5
84
330
17
100
AcDbEntity
  8
ENG_K
100
AcDbPolyline
 90
15
 70
1
 10
165.83676024550533
 20
34.883934538536444
 10
165.34678273727414
 20
35.37391204676754
 10
162.89621469639758
 20
35.86402565494284
 10
162.61479609448023
 20
37.83395586836424
 10
163.98348748864737
 20
38.655170704864574
 10
165.53852113511834
 20
38.655170704864574
 10
168.83835278065558
 20
36.298148100909366
 10
172.12372667930003
 20
36.298148100909366
 10
174.44024548076305
 20
35.01119321120771
 10
174.1641364070167
 20
33.07842969498331
 10
173.04986796078896
 20
32.521295471869436
 10
168.0944807417666
 20
33.01683419377166
 10
167.83858238904747
 20
34.29632595736742
 10
167.2509738078784
 20
34.883934538536444
 10
165.83676024550533
 20
34.883934538536444
  0
LWPOLYLINE
  5
85
330
17
100
AcDbEntity
  8
ENG_K
100
AcDbPolyline
 90
5
 70
1
 10
173.00545913030862
 20
67.50847754605537
 10
173.00545913030862
 20
66.23233517114002
 10
171.55518083875074
 20
66.23233517114002
 10
171.89598342205989
 20
68.6179532543042
 10
173.00545913030862
 20
67.50847754605537
  0
LWPOLYLINE
  5
86
330
17
100
AcDbEntity
  8
ENG_K
100
AcDbPolyline
 90
5
 70
1
 10
171.59124556793554
 20
45.49053625633459
 10
171.59124556793554
 20
46.295274110458976
 10
172.16565575351825
 20
46.86968429604155
 10
172.6253717667539
 20
45.49053625633459
 10
171.59124556793554
 20
45.49053625633459
  0
LWPOLYLINE
  5
87
330
17
100
AcDbEntity
  8
ENG_K
100
AcDbPolyline
 90
5
 70
1
 10
171.59124556793554
 20
51.95212835995133
 10
172.16565575351825
 20
52.52653854553391
 10
172.6253717667539
 20
51.14739050582695
 10
171.59124556793554
 20
51.14739050582695
 10
171.59124556793554
 20
51.95212835995133
  0
LWPOLYLINE
  5
88
330
17
100
AcDbEntity
  8
ENG_K
100
AcDbPolyline
 90
4
 70
1
 10
170.27466307850023
 20
31.584102892999177
 10
169.4699252243759
 20
30.779365038874573
 10
169.4699252243759
 20
32.388840747123446
 10
170.27466307850023
 20
31.584102892999177
  0
LWPOLYLINE
  5
89
330
17
100
AcDbEntity
  8
ENG_K
100
AcDbPolyline
 90
5
 70
1
 10
163.48876453881877
 20
39.117548328387095
 10
162.81915951865065
 20
39.787153348555094
 10
166.02299549411245
 20
40.07841116450628
 10
166.69260051428043
 20
39.40880614433806
 10
163.48876453881877
 20
39.117548328387095
  0
LWPOLYLINE
  5
8A
330
17
100
AcDbEntity
  8
ENG_K
100
AcDbPolyline
 90
15
 70
1
 10
157.6679105436124
 20
31.545010597752942
 10
159.72866317457442
 20
31.132860071560575
 10
160.179905996013
 20
31.584102892999066
 10
162.5369285999681
 20
31.584102892999066
 10
163.00833312075912
 20
32.05550741379015
 10
164.0971529395933
 20
32.05550741379015
 10
166.69348708879215
 20
30.94279277841916
 10
162.26719929943076
 20
30.647706925795106
 10
161.7927234345538
 20
30.17323106091807
 10
154.60116781585555
 20
29.925246384411295
 10
155.3677884215811
 20
39.89131425884385
 10
156.52059864222701
 20
38.738504038197895
 10
156.049194121436
 20
35.43867239266074
 10
157.4404160063393
 20
34.04745050775737
 10
157.6679105436124
 20
31.545010597752942
  0
LWPOLYLINE
  5
8B
330
17
100
AcDbEntity
  8
ENG_K
100
AcDbPolyline
 90
4
 70
1
 10
156.74200316301804
 20
39.26464641311345
 10
156.74200316301804
 20
40.87412212136199
 10
157.54674101714238
 20
40.069384267237716
 10
156.74200316301804
 20
39.26464641311345
  0
LWPOLYLINE
  5
8C
330
17
100
AcDbEntity
  8
CUT_SLOT
100
AcDbPolyline
 90
5
 70
1
 10
53.036765051296754
 20
0.0
 10
56.60086666643451
 20
0.0
 10
56.60086666643451
 20
141.42135623730957
 10
53.036765051296754
 20
141.42135623730957
 10
53.036765051296754
 20
0.0
  0
LWPOLYLINE
  5
8D
330
17
100
AcDbEntity
  8
CUT_SLOT
100
AcDbPolyline
 90
5
 70
1
 10
76.13077581888179
 20
0.0
 10
79.69487743401956
 20
0.0
 10
79.69487743401956
 20
141.42135623730957
 10
76.13077581888179
 20
141.42135623730957
 10
76.13077581888179
 20
0.0
  0
LWPOLYLINE
  5
8E
330
17
100
AcDbEntity
  8
CUT_SLOT
100
AcDbPolyline
 90
5
 70
1
 10
99.2247865864668
 20
0.0
 10
102.78888820160456
 20
0.0
 10
102.78888820160456
 20
141.42135623730957
 10
99.2247865864668
 20
141.42135623730957
 10
99.2247865864668
 20
0.0
  0
LWPOLYLINE
  5
8F
330
17
100
AcDbEntity
  8
CUT_SLOT
100
AcDbPolyline
 90
5
 70
1
 10
122.31879735405185
 20
0.0
 10
125.88289896918961
 20
0.0
 10
125.88289896918961
 20
141.42135623730957
 10
122.31879735405185
 20
141.42135623730957
 10
122.31879735405185
 20
0.0
  0
LWPOLYLINE
  5
90
330
17
100
AcDbEntity
  8
CUT_SLOT
100
AcDbPolyline
 90
5
 70
1
 10
145.41280812163689
 20
0.0
 10
148.97690973677464
 20
0.0
 10
148.97690973677464
 20
141.42135623730957
 10
145.41280812163689
 20
141.42135623730957
 10
145.41280812163689
 20
0.0
  0
LWPOLYLINE
  5
91
330
17
100
AcDbEntity
  8
CUT_SLOT
100
AcDbPolyline
 90
5
 70
1
 10
168.50681888922193
 20
0.0
 10
172.0709205043597
 20
0.0
 10
172.0709205043597
 20
141.42135623730957
 10
168.50681888922193
 20
141.42135623730957
 10
168.50681888922193
 20
0.0
  0
LWPOLYLINE
  5
92
330
17
100
AcDbEntity
  8
CUT_SLOT
100
AcDbPolyline
 90
5
 70
1
 10
110.77179197025936
 20
141.42135623730957
 10
114.33589358539712
 20
141.42135623730957
 10
114.33589358539712
 20
282.84271247461913
 10
110.77179197025936
 20
282.84271247461913
 10
110.77179197025936
 20
141.42135623730957
  0
LWPOLYLINE
  5
93
330
17
100
AcDbEntity
  8
CUT_SLOT
100
AcDbPolyline
 90
5
 70
1
 10
133.86580273784438
 20
141.42135623730957
 10
137.42990435298213
 20
141.42135623730957
 10
137.42990435298213
 20
282.84271247461913
 10
133.86580273784438
 20
282.84271247461913
 10
133.86580273784438
 20
141.42135623730957
  0
LWPOLYLINE
  5
94
330
17
100
AcDbEntity
  8
CUT_SLOT
100
AcDbPolyline
 90
5
 70
1
 10
156.95981350542937
 20
141.42135623730957
 10
160.52391512056712
 20
141.42135623730957
 10
160.52391512056712
 20
282.84271247461913
 10
156.95981350542937
 20
282.84271247461913
 10
156.95981350542937
 20
141.42135623730957
  0
LWPOLYLINE
  5
95
330
17
100
AcDbEntity
  8
CUT_SLOT
100
AcDbPolyline
 90
5
 70
1
 10
180.0538242730144
 20
141.42135623730957
 10
183.61792588815217
 20
141.42135623730957
 10
183.61792588815217
 20
282.84271247461913
 10
180.0538242730144
 20
282.84271247461913
 10
180.0538242730144
 20
141.42135623730957
  0
LWPOLYLINE
  5
96
330
17
100
AcDbEntity
  8
CUT_SLOT
100
AcDbPolyline
 90
5
 70
1
 10
203.14783504059943
 20
141.42135623730957
 10
206.7119366557372
 20
141.42135623730957
 10
206.7119366557372
 20
282.84271247461913
 10
203.14783504059943
 20
282.84271247461913
 10
203.14783504059943
 20
141.42135623730957
  0
LWPOLYLINE
  5
97
330
17
100
AcDbEntity
  8
CUT_SLOT
100
AcDbPolyline
 90
5
 70
1
 10
226.24184580818445
 20
141.42135623730957
 10
229.8059474233222
 20
141.42135623730957
 10
229.8059474233222
 20
282.84271247461913
 10
226.24184580818445
 20
282.84271247461913
 10
226.24184580818445
 20
141.42135623730957
  0
LWPOLYLINE
  5
98
330
17
100
AcDbEntity
  8
CUT_OUTLINE
100
AcDbPolyline
 90
5
 70
1
 10
0.0
 20
0.0
 10
282.842712474619
 20
0.0
 10
282.842712474619
 20
282.84271247461913
 10
0.0
 20
282.84271247461913
 10
0.0
 20
0.0
  0
ENDSEC
  0
SECTION
  2
OBJECTS
  0
DICTIONARY
  5
A
330
0
100
AcDbDictionary
281
1
  3
ACAD_COLOR
350
B
  3
ACAD_GROUP
350
C
  3
ACAD_LAYOUT
350
D
  3
ACAD_MATERIAL
350
E
  3
ACAD_MLEADERSTYLE
350
F
  3
ACAD_MLINESTYLE
350
10
  3
ACAD_PLOTSETTINGS
350
11
  3
ACAD_PLOTSTYLENAME
350
12
  3
ACAD_SCALELIST
350
14
  3
ACAD_TABLESTYLE
350
15
  3
ACAD_VISUALSTYLE
350
16
  3
EZDXF_META
350
2D
  0
DICTIONARY
  5
B
330
A
100
AcDbDictionary
281
1
  0
DICTIONARY
  5
C
330
A
100
AcDbDictionary
281
1
  0
DICTIONARY
  5
D
330
A
100
AcDbDictionary
281
1
  3
Model
350
1A
  3
Layout1
350
1E
  0
DICTIONARY
  5
E
330
A
100
AcDbDictionary
281
1
  3
ByBlock
350
1F
  3
ByLayer
350
20
  3
Global
350
21
  0
DICTIONARY
  5
F
330
A
100
AcDbDictionary
281
1
  3
Standard
350
2C
  0
DICTIONARY
  5
10
330
A
100
AcDbDictionary
281
1
  3
Standard
350
22
  0
DICTIONARY
  5
11
330
A
100
AcDbDictionary
281
1
  0
ACDBDICTIONARYWDFLT
  5
12
330
A
100
AcDbDictionary
281
1
  3
Normal
350
13
100
AcDbDictionaryWithDefault
340
13
  0
ACDBPLACEHOLDER
  5
13
330
12
  0
DICTIONARY
  5
14
330
A
100
AcDbDictionary
281
1
  0
DICTIONARY
  5
15
330
A
100
AcDbDictionary
281
1
  0
DICTIONARY
  5
16
330
A
100
AcDbDictionary
281
1
  0
LAYOUT
  5
1A
330
D
100
AcDbPlotSettings
  1

  4
A3
  6

 40
7.5
 41
20.0
 42
7.5
 43
20.0
 44
420.0
 45
297.0
 46
0.0
 47
0.0
 48
0.0
 49
0.0
140
0.0
141
0.0
142
1.0
143
1.0
 70
1024
 72
1
 73
0
 74
5
  7

 75
16
 76
0
 77
2
 78
300
147
1.0
148
0.0
149
0.0
100
AcDbLayout
  1
Model
 70
1
 71
0
 10
0.0
 20
0.0
 11
420.0
 21
297.0
 12
0.0
 22
0.0
 32
0.0
 14
1e+20
 24
1e+20
 34
1e+20
 15
-1e+20
 25
-1e+20
 35
-1e+20
146
0.0
 13
0.0
 23
0.0
 33
0.0
 16
1.0
 26
0.0
 36
0.0
 17
0.0
 27
1.0
 37
0.0
 76
1
330
17
  0
LAYOUT
  5
1E
330
D
100
AcDbPlotSettings
  1

  4
A3
  6

 40
7.5
 41
20.0
 42
7.5
 43
20.0
 44
420.0
 45
297.0
 46
0.0
 47
0.0
 48
0.0
 49
0.0
140
0.0
141
0.0
142
1.0
143
1.0
 70
0
 72
1
 73
0
 74
5
  7

 75
16
 76
0
 77
2
 78
300
147
1.0
148
0.0
149
0.0
100
AcDbLayout
  1
Layout1
 70
1
 71
1
 10
0.0
 20
0.0
 11
420.0
 21
297.0
 12
0.0
 22
0.0
 32
0.0
 14
1e+20
 24
1e+20
 34
1e+20
 15
-1e+20
 25
-1e+20
 35
-1e+20
146
0.0
 13
0.0
 23
0.0
 33
0.0
 16
1.0
 26
0.0
 36
0.0
 17
0.0
 27
1.0
 37
0.0
 76
1
330
1B
  0
MATERIAL
  5
1F
102
{ACAD_REACTORS
330
E
102
}
330
E
100
AcDbMaterial
  1
ByBlock
  2

 70
0
 40
1.0
 71
1
 41
1.0
 91
-1023410177
 42
1.0
 72
1
  3

 73
1
 74
1
 75
1
 44
0.5
 73
0
 45
1.0
 46
1.0
 77
1
  4

 78
1
 79
1
170
1
 48
1.0
171
1
  6

172
1
173
1
174
1
140
1.0
141
1.0
175
1
  7

176
1
177
1
178
1
143
1.0
179
1
  8

270
1
271
1
272
1
145
1.0
146
1.0
273
1
  9

274
1
275
1
276
1
 42
1.0
 72
1
  3

 73
1
 74
1
 75
1
 94
63
  0
MATERIAL
  5
20
102
{ACAD_REACTORS
330
E
102
}
330
E
100
AcDbMaterial
  1
ByLayer
  2

 70
0
 40
1.0
 71
1
 41
1.0
 91
-1023410177
 42
1.0
 72
1
  3

 73
1
 74
1
 75
1
 44
0.5
 73
0
 45
1.0
 46
1.0
 77
1
  4

 78
1
 79
1
170
1
 48
1.0
171
1
  6

172
1
173
1
174
1
140
1.0
141
1.0
175
1
  7

176
1
177
1
178
1
143
1.0
179
1
  8

270
1
271
1
272
1
145
1.0
146
1.0
273
1
  9

274
1
275
1
276
1
 42
1.0
 72
1
  3

 73
1
 74
1
 75
1
 94
63
  0
MATERIAL
  5
21
102
{ACAD_REACTORS
330
E
102
}
330
E
100
AcDbMaterial
  1
Global
  2

 70
0
 40
1.0
 71
1
 41
1.0
 91
-1023410177
 42
1.0
 72
1
  3

 73
1
 74
1
 75
1
 44
0.5
 73
0
 45
1.0
 46
1.0
 77
1
  4

 78
1
 79
1
170
1
 48
1.0
171
1
  6

172
1
173
1
174
1
140
1.0
141
1.0
175
1
  7

176
1
177
1
178
1
143
1.0
179
1
  8

270
1
271
1
272
1
145
1.0
146
1.0
273
1
  9

274
1
275
1
276
1
 42
1.0
 72
1
  3

 73
1
 74
1
 75
1
 94
63
  0
MLINESTYLE
  5
22
102
{ACAD_REACTORS
330
10
102
}
330
10
100
AcDbMlineStyle
  2
Standard
 70
0
  3

 62
256
 51
90.0
 52
90.0
 71
2
 49
0.5
 62
256
  6
BYLAYER
 49
-0.5
 62
256
  6
BYLAYER
  0
MLEADERSTYLE
  5
2C
102
{ACAD_REACTORS
330
F
102
}
330
F
100
AcDbMLeaderStyle
179
2
170
2
171
1
172
0
 90
2
 40
0.0
 41
0.0
173
1
 91
-1056964608
 92
-2
290
1
 42
2.0
291
1
 43
8.0
  3
Standard
 44
4.0
300

342
29
174
1
175
1
176
0
178
1
 93
-1056964608
 45
4.0
292
0
297
0
 46
4.0
 94
-1056964608
 47
1.0
 49
1.0
140
1.0
294
1
141
0.0
177
0
142
1.0
295
0
296
0
143
3.75
271
0
272
9
273
9
  0
DICTIONARY
  5
2D
330
A
100
AcDbDictionary
280
1
281
1
  3
CREATED_BY_EZDXF
350
2E
  3
WRITTEN_BY_EZDXF
350
9B
  0
DICTIONARYVAR
  5
2E
330
2D
100
DictionaryVariables
280
0
  1
1.4.4 @ 2026-08-03T12:25:47.743336+00:00
  0
DICTIONARYVAR
  5
9B
330
2D
100
DictionaryVariables
280
0
  1
1.4.4 @ 2026-08-03T12:25:47.760047+00:00
  0
ENDSEC
  0
EOF
