  0
SECTION
  2
HEADER
  9
$ACADVER
  1
AC1027
  9
$ACADMAINTVER
 70
105
  9
$DWGCODEPAGE
  3
ANSI_1252
  9
$LASTSAVEDBY
  1
ezdxf
  9
$REQUIREDVERSIONS
160
0
  9
$INSBASE
 10
0.0
 20
0.0
 30
0.0
  9
$EXTMIN
 10
1e+20
 20
1e+20
 30
1e+20
  9
$EXTMAX
 10
-1e+20
 20
-1e+20
 30
-1e+20
  9
$LIMMIN
 10
0.0
 20
0.0
  9
$LIMMAX
 10
420.0
 20
297.0
  9
$ORTHOMODE
 70
0
  9
$REGENMODE
 70
1
  9
$FILLMODE
 70
1
  9
$QTEXTMODE
 70
0
  9
$MIRRTEXT
 70
1
  9
$LTSCALE
 40
1.0
  9
$ATTMODE
 70
1
  9
$TEXTSIZE
 40
2.5
  9
$TRACEWID
 40
1.0
  9
$TEXTSTYLE
  7
Standard
  9
$CLAYER
  8
0
  9
$CELTYPE
  6
ByLayer
  9
$CECOLOR
 62
256
  9
$CELTSCALE
 40
1.0
  9
$DISPSILH
 70
0
  9
$DIMSCALE
 40
1.0
  9
$DIMASZ
 40
2.5
  9
$DIMEXO
 40
0.625
  9
$DIMDLI
 40
3.75
  9
$DIMRND
 40
0.0
  9
$DIMDLE
 40
0.0
  9
$DIMEXE
 40
1.25
  9
$DIMTP
 40
0.0
  9
$DIMTM
 40
0.0
  9
$DIMTXT
 40
2.5
  9
$DIMCEN
 40
2.5
  9
$DIMTSZ
 40
0.0
  9
$DIMTOL
 70
0
  9
$DIMLIM
 70
0
  9
$DIMTIH
 70
0
  9
$DIMTOH
 70
0
  9
$DIMSE1
 70
0
  9
$DIMSE2
 70
0
  9
$DIMTAD
 70
1
  9
$DIMZIN
 70
8
  9
$DIMBLK
  1

  9
$DIMASO
 70
1
  9
$DIMSHO
 70
1
  9
$DIMPOST
  1

  9
$DIMAPOST
  1

  9
$DIMALT
 70
0
  9
$DIMALTD
 70
3
  9
$DIMALTF
 40
0.03937007874
  9
$DIMLFAC
 40
1.0
  9
$DIMTOFL
 70
1
  9
$DIMTVP
 40
0.0
  9
$DIMTIX
 70
0
  9
$DIMSOXD
 70
0
  9
$DIMSAH
 70
0
  9
$DIMBLK1
  1

  9
$DIMBLK2
  1

  9
$DIMSTYLE
  2
ISO-25
  9
$DIMCLRD
 70
0
  9
$DIMCLRE
 70
0
  9
$DIMCLRT
 70
0
  9
$DIMTFAC
 40
1.0
  9
$DIMGAP
 40
0.625
  9
$DIMJUST
 70
0
  9
$DIMSD1
 70
0
  9
$DIMSD2
 70
0
  9
$DIMTOLJ
 70
0
  9
$DIMTZIN
 70
8
  9
$DIMALTZ
 70
0
  9
$DIMALTTZ
 70
0
  9
$DIMUPT
 70
0
  9
$DIMDEC
 70
2
  9
$DIMTDEC
 70
2
  9
$DIMALTU
 70
2
  9
$DIMALTTD
 70
3
  9
$DIMTXSTY
  7
Standard
  9
$DIMAUNIT
 70
0
  9
$DIMADEC
 70
0
  9
$DIMALTRND
 40
0.0
  9
$DIMAZIN
 70
0
  9
$DIMDSEP
 70
44
  9
$DIMATFIT
 70
3
  9
$DIMFRAC
 70
0
  9
$DIMLDRBLK
  1

  9
$DIMLUNIT
 70
2
  9
$DIMLWD
 70
-2
  9
$DIMLWE
 70
-2
  9
$DIMTMOVE
 70
0
  9
$DIMFXL
 40
1.0
  9
$DIMFXLON
 70
0
  9
$DIMJOGANG
 40
0.785398163397
  9
$DIMTFILL
 70
0
  9
$DIMTFILLCLR
 70
0
  9
$DIMARCSYM
 70
0
  9
$DIMLTYPE
  6

  9
$DIMLTEX1
  6

  9
$DIMLTEX2
  6

  9
$DIMTXTDIRECTION
 70
0
  9
$LUNITS
 70
2
  9
$LUPREC
 70
4
  9
$SKETCHINC
 40
1.0
  9
$FILLETRAD
 40
10.0
  9
$AUNITS
 70
0
  9
$AUPREC
 70
2
  9
$MENU
  1
.
  9
$ELEVATION
 40
0.0
  9
$PELEVATION
 40
0.0
  9
$THICKNESS
 40
0.0
  9
$LIMCHECK
 70
0
  9
$CHAMFERA
 40
0.0
  9
$CHAMFERB
 40
0.0
  9
$CHAMFERC
 40
0.0
  9
$CHAMFERD
 40
0.0
  9
$SKPOLY
 70
0
  9
$TDCREATE
 40
2461230.4125925926
  9
$TDUCREATE
 40
2458532.153996898
  9
$TDUPDATE
 40
2461230.4125925926
  9
$TDUUPDATE
 40
2458532.1544311
  9
$TDINDWG
 40
0.0
  9
$TDUSRTIMER
 40
0.0
  9
$USRTIMER
 70
1
  9
$ANGBASE
 50
0.0
  9
$ANGDIR
 70
0
  9
$PDMODE
 70
0
  9
$PDSIZE
 40
0.0
  9
$PLINEWID
 40
0.0
  9
$SPLFRAME
 70
0
  9
$SPLINETYPE
 70
6
  9
$SPLINESEGS
 70
8
  9
$HANDSEED
  5
44
  9
$SURFTAB1
 70
6
  9
$SURFTAB2
 70
6
  9
$SURFTYPE
 70
6
  9
$SURFU
 70
6
  9
$SURFV
 70
6
  9
$UCSBASE
  2

  9
$UCSNAME
  2

  9
$UCSORG
 10
0.0
 20
0.0
 30
0.0
  9
$UCSXDIR
 10
1.0
 20
0.0
 30
0.0
  9
$UCSYDIR
 10
0.0
 20
1.0
 30
0.0
  9
$UCSORTHOREF
  2

  9
$UCSORTHOVIEW
 70
0
  9
$UCSORGTOP
 10
0.0
 20
0.0
 30
0.0
  9
$UCSORGBOTTOM
 10
0.0
 20
0.0
 30
0.0
  9
$UCSORGLEFT
 10
0.0
 20
0.0
 30
0.0
  9
$UCSORGRIGHT
 10
0.0
 20
0.0
 30
0.0
  9
$UCSORGFRONT
 10
0.0
 20
0.0
 30
0.0
  9
$UCSORGBACK
 10
0.0
 20
0.0
 30
0.0
  9
$PUCSBASE
  2

  9
$PUCSNAME
  2

  9
$PUCSORG
 10
0.0
 20
0.0
 30
0.0
  9
$PUCSXDIR
 10
1.0
 20
0.0
 30
0.0
  9
$PUCSYDIR
 10
0.0
 20
1.0
 30
0.0
  9
$PUCSORTHOREF
  2

  9
$PUCSORTHOVIEW
 70
0
  9
$PUCSORGTOP
 10
0.0
 20
0.0
 30
0.0
  9
$PUCSORGBOTTOM
 10
0.0
 20
0.0
 30
0.0
  9
$PUCSORGLEFT
 10
0.0
 20
0.0
 30
0.0
  9
$PUCSORGRIGHT
 10
0.0
 20
0.0
 30
0.0
  9
$PUCSORGFRONT
 10
0.0
 20
0.0
 30
0.0
  9
$PUCSORGBACK
 10
0.0
 20
0.0
 30
0.0
  9
$USERI1
 70
0
  9
$USERI2
 70
0
  9
$USERI3
 70
0
  9
$USERI4
 70
0
  9
$USERI5
 70
0
  9
$USERR1
 40
0.0
  9
$USERR2
 40
0.0
  9
$USERR3
 40
0.0
  9
$USERR4
 40
0.0
  9
$USERR5
 40
0.0
  9
$WORLDVIEW
 70
1
  9
$SHADEDGE
 70
3
  9
$SHADEDIF
 70
70
  9
$TILEMODE
 70
1
  9
$MAXACTVP
 70
64
  9
$PINSBASE
 10
0.0
 20
0.0
 30
0.0
  9
$PLIMCHECK
 70
0
  9
$PEXTMIN
 10
1e+20
 20
1e+20
 30
1e+20
  9
$PEXTMAX
 10
-1e+20
 20
-1e+20
 30
-1e+20
  9
$PLIMMIN
 10
0.0
 20
0.0
  9
$PLIMMAX
 10
420.0
 20
297.0
  9
$UNITMODE
 70
0
  9
$VISRETAIN
 70
1
  9
$PLINEGEN
 70
0
  9
$PSLTSCALE
 70
1
  9
$TREEDEPTH
 70
3020
  9
$CMLSTYLE
  2
Standard
  9
$CMLJUST
 70
0
  9
$CMLSCALE
 40
20.0
  9
$PROXYGRAPHICS
 70
1
  9
$MEASUREMENT
 70
1
  9
$CELWEIGHT
370
-1
  9
$ENDCAPS
280
0
  9
$JOINSTYLE
280
0
  9
$LWDISPLAY
290
0
  9
$INSUNITS
 70
4
  9
$HYPERLINKBASE
  1

  9
$STYLESHEET
  1

  9
$XEDIT
290
1
  9
$CEPSNTYPE
380
0
  9
$PSTYLEMODE
290
1
  9
$FINGERPRINTGUID
  2
{E73A4333-F183-4325-A572-3C9AC2D49F06}
  9
$VERSIONGUID
  2
{488A283A-4FA7-483D-835A-083DE6217799}
  9
$EXTNAMES
290
1
  9
$PSVPSCALE
 40
0.0
  9
$OLESTARTUP
290
0
  9
$SORTENTS
280
127
  9
$INDEXCTL
280
0
  9
$HIDETEXT
280
1
  9
$XCLIPFRAME
280
1
  9
$HALOGAP
280
0
  9
$OBSCOLOR
 70
257
  9
$OBSLTYPE
280
0
  9
$INTERSECTIONDISPLAY
280
0
  9
$INTERSECTIONCOLOR
 70
257
  9
$DIMASSOC
280
2
  9
$PROJECTNAME
  1

  9
$CAMERADISPLAY
290
0
  9
$LENSLENGTH
 40
50.0
  9
$CAMERAHEIGHT
 40
0.0
  9
$STEPSPERSEC
 40
24.0
  9
$STEPSIZE
 40
100.0
  9
$3DDWFPREC
 40
2.0
  9
$PSOLWIDTH
 40
0.005
  9
$PSOLHEIGHT
 40
0.08
  9
$LOFTANG1
 40
1.570796326795
  9
$LOFTANG2
 40
1.570796326795
  9
$LOFTMAG1
 40
0.0
  9
$LOFTMAG2
 40
0.0
  9
$LOFTPARAM
 70
7
  9
$LOFTNORMALS
280
1
  9
$LATITUDE
 40
37.795
  9
$LONGITUDE
 40
-122.394
  9
$NORTHDIRECTION
 40
0.0
  9
$TIMEZONE
 70
-8000
  9
$LIGHTGLYPHDISPLAY
280
1
  9
$TILEMODELIGHTSYNCH
280
1
  9
$CMATERIAL
347
20
  9
$SOLIDHIST
280
0
  9
$SHOWHIST
280
1
  9
$DWFFRAME
280
2
  9
$DGNFRAME
280
2
  9
$REALWORLDSCALE
290
1
  9
$INTERFERECOLOR
 62
256
  9
$CSHADOW
280
0
  9
$SHADOWPLANELOCATION
 40
0.0
  0
ENDSEC
  0
SECTION
  2
CLASSES
  0
CLASS
  1
ACDBDICTIONARYWDFLT
  2
AcDbDictionaryWithDefault
  3
ObjectDBX Classes
 90
0
 91
0
280
0
281
0
  0
CLASS
  1
SUN
  2
AcDbSun
  3
SCENEOE
 90
1153
 91
0
280
0
281
0
  0
CLASS
  1
VISUALSTYLE
  2
AcDbVisualStyle
  3
ObjectDBX Classes
 90
4095
 91
0
280
0
281
0
  0
CLASS
  1
MATERIAL
  2
AcDbMaterial
  3
ObjectDBX Classes
 90
1153
 91
0
280
0
281
0
  0
CLASS
  1
SCALE
  2
AcDbScale
  3
ObjectDBX Classes
 90
1153
 91
0
280
0
281
0
  0
CLASS
  1
TABLESTYLE
  2
AcDbTableStyle
  3
ObjectDBX Classes
 90
4095
 91
0
280
0
281
0
  0
CLASS
  1
MLEADERSTYLE
  2
AcDbMLeaderStyle
  3
ACDB_MLEADERSTYLE_CLASS
 90
4095
 91
0
280
0
281
0
  0
CLASS
  1
DICTIONARYVAR
  2
AcDbDictionaryVar
  3
ObjectDBX Classes
 90
0
 91
0
280
0
281
0
  0
CLASS
  1
CELLSTYLEMAP
  2
AcDbCellStyleMap
  3
ObjectDBX Classes
 90
1152
 91
0
280
0
281
0
  0
CLASS
  1
MENTALRAYRENDERSETTINGS
  2
AcDbMentalRayRenderSettings
  3
SCENEOE
 90
1024
 91
0
280
0
281
0
  0
CLASS
  1
ACDBDETAILVIEWSTYLE
  2
AcDbDetailViewStyle
  3
ObjectDBX Classes
 90
1025
 91
0
280
0
281
0
  0
CLASS
  1
ACDBSECTIONVIEWSTYLE
  2
AcDbSectionViewStyle
  3
ObjectDBX Classes
 90
1025
 91
0
280
0
281
0
  0
CLASS
  1
RASTERVARIABLES
  2
AcDbRasterVariables
  3
ISM
 90
0
 91
0
280
0
281
0
  0
CLASS
  1
ACDBPLACEHOLDER
  2
AcDbPlaceHolder
  3
ObjectDBX Classes
 90
0
 91
0
280
0
281
0
  0
CLASS
  1
LAYOUT
  2
AcDbLayout
  3
ObjectDBX Classes
 90
0
 91
0
280
0
281
0
  0
ENDSEC
  0
SECTION
  2
TABLES
  0
TABLE
  2
VPORT
  5
8
330
0
100
AcDbSymbolTable
 70
1
  0
VPORT
  5
23
330
8
100
AcDbSymbolTableRecord
100
AcDbViewportTableRecord
  2
*Active
 70
0
 10
0.0
 20
0.0
 11
1.0
 21
1.0
 12
0.0
 22
0.0
 13
0.0
 23
0.0
 14
0.5
 24
0.5
 15
0.5
 25
0.5
 16
0.0
 26
0.0
 36
1.0
 17
0.0
 27
0.0
 37
0.0
 40
1000.0
 41
1.34
 42
50.0
 43
0.0
 44
0.0
 50
0.0
 51
0.0
 71
0
 72
1000
 73
1
 74
3
 75
0
 76
0
 77
0
 78
0
281
0
 65
0
146
0.0
  0
ENDTAB
  0
TABLE
  2
LTYPE
  5
2
330
0
100
AcDbSymbolTable
 70
3
  0
LTYPE
  5
24
330
2
100
AcDbSymbolTableRecord
100
AcDbLinetypeTableRecord
  2
ByBlock
 70
0
  3

 72
65
 73
0
 40
0.0
  0
LTYPE
  5
25
330
2
100
AcDbSymbolTableRecord
100
AcDbLinetypeTableRecord
  2
ByLayer
 70
0
  3

 72
65
 73
0
 40
0.0
  0
LTYPE
  5
26
330
2
100
AcDbSymbolTableRecord
100
AcDbLinetypeTableRecord
  2
Continuous
 70
0
  3

 72
65
 73
0
 40
0.0
  0
ENDTAB
  0
TABLE
  2
LAYER
  5
1
330
0
100
AcDbSymbolTable
 70
3
  0
LAYER
  5
27
330
1
100
AcDbSymbolTableRecord
100
AcDbLayerTableRecord
  2
0
 70
0
 62
7
  6
Continuous
370
-3
390
13
347
21
  0
LAYER
  5
28
330
1
100
AcDbSymbolTableRecord
100
AcDbLayerTableRecord
  2
Defpoints
 70
0
 62
7
  6
Continuous
290
0
370
-3
390
13
347
21
  0
LAYER
  5
2F
330
1
100
AcDbSymbolTableRecord
100
AcDbLayerTableRecord
  2
C
 70
0
 62
7
  6
Continuous
370
-3
390
13
347
21
  0
ENDTAB
  0
TABLE
  2
STYLE
  5
5
330
0
100
AcDbSymbolTable
 70
1
  0
STYLE
  5
29
330
5
100
AcDbSymbolTableRecord
100
AcDbTextStyleTableRecord
  2
Standard
 70
0
 40
0.0
 41
1.0
 50
0.0
 71
0
 42
2.5
  3
txt
  4

  0
ENDTAB
  0
TABLE
  2
VIEW
  5
7
330
0
100
AcDbSymbolTable
 70
0
  0
ENDTAB
  0
TABLE
  2
UCS
  5
6
330
0
100
AcDbSymbolTable
 70
0
  0
ENDTAB
  0
TABLE
  2
APPID
  5
3
330
0
100
AcDbSymbolTable
 70
3
  0
APPID
  5
2A
330
3
100
AcDbSymbolTableRecord
100
AcDbRegAppTableRecord
  2
ACAD
 70
0
  0
APPID
  5
41
330
3
100
AcDbSymbolTableRecord
100
AcDbRegAppTableRecord
  2
HATCHBACKGROUNDCOLOR
 70
0
  0
APPID
  5
42
330
3
100
AcDbSymbolTableRecord
100
AcDbRegAppTableRecord
  2
EZDXF
 70
0
  0
ENDTAB
  0
TABLE
  2
DIMSTYLE
  5
4
330
0
100
AcDbSymbolTable
 70
1
100
AcDbDimStyleTable
  0
DIMSTYLE
105
2B
330
4
100
AcDbSymbolTableRecord
100
AcDbDimStyleTableRecord
  2
Standard
 70
0
 40
1.0
 41
2.5
 42
0.625
 43
3.75
 44
1.25
 45
0.0
 46
0.0
 47
0.0
 48
0.0
 49
2.5
140
2.5
141
2.5
142
0.0
143
0.03937007874
144
1.0
145
0.0
146
1.0
147
0.625
148
0.0
 69
0
 70
0
 71
0
 72
0
 73
0
 74
0
 75
0
 76
0
 77
1
 78
8
 79
3
170
0
171
3
172
1
173
0
174
0
175
0
176
0
177
0
178
0
179
2
271
2
272
2
273
2
274
3
275
0
276
0
277
2
278
44
279
0
280
0
281
0
282
0
283
0
284
8
285
0
286
0
288
0
289
3
290
0
371
-2
372
-2
  0
ENDTAB
  0
TABLE
  2
BLOCK_RECORD
  5
9
330
0
100
AcDbSymbolTable
 70
2
  0
BLOCK_RECORD
  5
17
330
9
100
AcDbSymbolTableRecord
100
AcDbBlockTableRecord
  2
*Model_Space
340
1A
 70
0
280
1
281
0
  0
BLOCK_RECORD
  5
1B
330
9
100
AcDbSymbolTableRecord
100
AcDbBlockTableRecord
  2
*Paper_Space
340
1E
 70
0
280
1
281
0
  0
ENDTAB
  0
ENDSEC
  0
SECTION
  2
BLOCKS
  0
BLOCK
  5
18
330
17
100
AcDbEntity
  8
0
100
AcDbBlockBegin
  2
*Model_Space
 70
0
 10
0.0
 20
0.0
 30
0.0
  3
*Model_Space
  1

  0
ENDBLK
  5
19
330
17
100
AcDbEntity
  8
0
100
AcDbBlockEnd
  0
BLOCK
  5
1C
330
1B
100
AcDbEntity
  8
0
100
AcDbBlockBegin
  2
*Paper_Space
 70
0
 10
0.0
 20
0.0
 30
0.0
  3
*Paper_Space
  1

  0
ENDBLK
  5
1D
330
1B
100
AcDbEntity
  8
0
100
AcDbBlockEnd
  0
ENDSEC
  0
SECTION
  2
ENTITIES
  0
LWPOLYLINE
  5
30
330
17
100
AcDbEntity
  8
C
100
AcDbPolyline
 90
15
 70
1
 10
42.89574867578827
 20
551.5324903175501
 10
32.16511239348152
 20
569.6851500284521
 10
17.142857142857125
 20
582.6507870007173
 10
17.142857142857125
 20
598.2065314999885
 10
0.0
 20
629.277960071417
 10
0.0
 20
644.8985969366477
 10
23.645773902747468
 20
657.8858591180809
 10
49.35785118374436
 20
657.8858591180809
 10
66.50070832660148
 20
668.2430019752237
 10
75.16199444087468
 20
668.2430019752237
 10
81.62736604652832
 20
655.2224619360601
 10
85.91326375757579
 20
572.3617728558091
 10
90.22903786571179
 20
561.9319854278137
 10
62.25850736974192
 20
548.9328606780841
 10
42.89574867578827
 20
551.5324903175501
  0
LWPOLYLINE
  5
31
330
17
100
AcDbEntity
  8
C
100
AcDbPolyline
 90
30
 70
1
 10
1390.0
 20
499.81208420837754
 10
1390.0
 20
515.3391320804939
 10
1381.4285714285716
 20
525.6962749376368
 10
1381.4285714285716
 20
541.231989223351
 10
1375.0618627238603
 20
548.9250955748769
 10
1328.017090893129
 20
538.5895017635798
 10
1306.5857573886015
 20
507.5140681820152
 10
1268.0092331500086
 20
502.33481261294475
 10
1263.7140968582405
 20
497.1448562603915
 10
1239.9566639221584
 20
499.75457427230975
 10
1252.8705002403965
 20
530.963012041385
 10
1285.0337730299045
 20
569.8269666620407
 10
1302.2149940408874
 20
580.2072876895094
 10
1310.767240678253
 20
580.2072876895094
 10
1319.3322563433373
 20
590.556681618153
 10
1349.3322563433373
 20
595.7352530467243
 10
1353.624383535396
 20
600.9215734037952
 10
1379.3386692496817
 20
600.9215734037952
 10
1383.624383535396
 20
606.1001448323665
 10
1426.5905658694462
 20
606.1001448323665
 10
1433.0571428571425
 20
593.0771772876991
 10
1433.0571428571425
 20
582.6605606519224
 10
1428.7714285714285
 20
577.481989223351
 10
1428.7714285714285
 20
536.0636743571313
 10
1420.2
 20
520.527960071417
 10
1420.2
 20
510.16056065192237
 10
1411.6285714285711
 20
499.80341779477953
 10
1411.6285714285711
 20
489.4312714962391
 10
1400.7840801370423
 20
481.5690153098806
 10
1390.0
 20
499.81208420837754
  0
LWPOLYLINE
  5
32
330
17
100
AcDbEntity
  8
C
100
AcDbPolyline
 90
9
 70
1
 10
2550.7299444378823
 20
347.0012703068468
 10
2548.565898176225
 20
354.84593800535225
 10
2552.8705002403963
 20
365.24872632709923
 10
2563.6193382785627
 20
378.236905623217
 10
2602.3073204322536
 20
383.4311254494068
 10
2621.6285714285714
 20
334.14404536157747
 10
2621.6285714285714
 20
323.731989223351
 10
2615.12706090916
 20
315.87599734572905
 10
2550.7299444378823
 20
347.0012703068468
  0
LWPOLYLINE
  5
33
330
17
100
AcDbEntity
  8
C
100
AcDbPolyline
 90
11
 70
1
 10
3797.202763686075
 20
183.83817357886812
 10
3792.8571428571427
 20
189.08913208049393
 10
3792.8571428571427
 20
214.9819892233511
 10
3788.5670937195055
 20
220.16579859799612
 10
3790.7254119231466
 20
238.4215734037951
 10
3799.4209822075254
 20
238.4215734037951
 10
3812.278125064669
 20
228.06443054665226
 10
3820.8399403829667
 20
228.06443054665226
 10
3844.5582862252604
 20
215.03730877721063
 10
3812.2878922345612
 20
186.44215410211885
 10
3797.202763686075
 20
183.83817357886812
  0
LWPOLYLINE
  5
34
330
17
100
AcDbEntity
  8
C
100
AcDbPolyline
 90
26
 70
1
 10
4955.7699438575955
 20
390.9956058651223
 10
4925.6747964670685
 20
416.97058426766097
 10
4930.0
 20
422.1968718699536
 10
4930.0
 20
437.7325861556678
 10
4934.285714285714
 20
442.9111575842393
 10
4934.285714285714
 20
458.4468718699536
 10
4938.571428571428
 20
463.62544329852494
 10
4938.571428571428
 20
479.1423536425476
 10
4945.023859010611
 20
497.3346227974637
 10
4966.545070250137
 20
502.5355821803491
 10
4992.279667112817
 20
486.98759657581314
 10
5018.000843630894
 20
481.8076374159225
 10
5030.849553636097
 20
471.4572876895094
 10
5043.7184736074605
 20
471.4572876895094
 10
5050.2
 20
463.62544329852494
 10
5050.2
 20
437.66056065192237
 10
5043.7184736074605
 20
429.828716260938
 10
5035.147045036033
 20
429.828716260938
 10
5026.575616464604
 20
419.47157340379516
 10
5018.004187893176
 20
419.47157340379516
 10
5009.432759321747
 20
409.11443054665233
 10
4996.595415254961
 20
409.11443054665233
 10
4992.3097009692465
 20
398.75728768950944
 10
4979.432759321747
 20
398.75728768950944
 10
4970.854379171069
 20
388.39174500743957
 10
4955.7699438575955
 20
390.9956058651223
  0
LWPOLYLINE
  5
35
330
17
100
AcDbEntity
  8
C
100
AcDbPolyline
 90
64
 70
1
 10
4732.857142857143
 20
230.48618726999172
 10
4732.857142857143
 20
235.67587039873607
 10
4724.285714285714
 20
240.85444182730743
 10
4724.285714285714
 20
246.05341779477962
 10
4707.142857142857
 20
266.7677035090653
 10
4707.142857142857
 20
277.19687186995355
 10
4720.010974462707
 20
292.74584696477234
 10
4728.582403034136
 20
318.6387041076295
 10
4737.13260480304
 20
328.97019791172164
 10
4735.023850972714
 20
336.6144305466523
 10
4726.461727602183
 20
336.6144305466523
 10
4722.16652101566
 20
346.9945131307478
 10
4715.683286142168
 20
349.60581606590426
 10
4720.000000000001
 20
360.03787455566504
 10
4720.000000000001
 20
380.7683004413821
 10
4724.285714285714
 20
385.94687186995355
 10
4724.285714285714
 20
422.1968718699536
 10
4728.5670937195055
 20
427.3702053524513
 10
4724.281379433792
 20
463.6202053524513
 10
4730.767240678253
 20
471.4572876895094
 10
4747.921874935332
 20
471.4572876895094
 10
4760.773300804385
 20
481.8098251951363
 10
4799.3336239928485
 20
486.9869056232169
 10
4805.714285714286
 20
494.6968718699536
 10
4805.714285714286
 20
546.4105606519224
 10
4801.42582872518
 20
551.5924461804259
 10
4803.5786694656745
 20
580.2072876895094
 10
4863.718473607461
 20
580.2072876895094
 10
4874.478603576186
 20
567.2054639773005
 10
4878.765756952529
 20
546.4842226583105
 10
4891.628571428572
 20
525.760799335797
 10
4891.628571428572
 20
515.4111575842393
 10
4900.229803656723
 20
505.01800197522374
 10
4893.718473607461
 20
497.15014483236655
 10
4885.12786310197
 20
497.15014483236655
 10
4859.413577387684
 20
481.61443054665233
 10
4825.052954963968
 20
481.61443054665233
 10
4820.767240678253
 20
486.79300197522366
 10
4812.334083627732
 20
486.79300197522366
 10
4810.196749165981
 20
463.5494897036716
 10
4805.921940751258
 20
458.3840962025492
 10
4810.207655036972
 20
437.66981048826335
 10
4805.914285714285
 20
432.48198922335104
 10
4805.914285714285
 20
411.7838436804967
 10
4801.640064877346
 20
401.4544766578927
 10
4812.266552230048
 20
383.4780022195723
 10
4863.632857379141
 20
430.028716260938
 10
4876.554822884122
 20
430.028716260938
 10
4908.806847944548
 20
411.8421576851969
 10
4891.608076031617
 20
380.6693835930092
 10
4874.469521692565
 20
365.13756872324296
 10
4870.2154166433975
 20
354.85681485442035
 10
4891.628571428572
 20
328.9825861556679
 10
4891.628571428572
 20
292.6605606519225
 10
4887.342857142858
 20
287.481989223351
 10
4887.342857142858
 20
271.90357565197644
 10
4876.58439975375
 20
269.30361511627575
 10
4868.004187893176
 20
258.93585911808094
 10
4859.357851183745
 20
258.93585911808094
 10
4825.07213689803
 20
279.6501448323666
 10
4816.481526392539
 20
279.6501448323666
 10
4799.385714285714
 20
300.30758446144625
 10
4739.416152482152
 20
227.84436394880768
 10
4732.857142857143
 20
230.48618726999172
  0
LWPOLYLINE
  5
36
330
17
100
AcDbEntity
  8
C
100
AcDbPolyline
 90
33
 70
1
 10
4617.174033338895
 20
292.616487333889
 10
4606.471519405945
 20
310.72157340379516
 10
4546.481526392539
 20
310.72157340379516
 10
4542.195812106825
 20
315.9001448323666
 10
4529.3386692496815
 20
315.9001448323666
 10
4520.767240678253
 20
326.25728768950944
 10
4507.890299030753
 20
326.25728768950944
 10
4503.592997363016
 20
336.6424333865414
 10
4488.571428571428
 20
344.42146008218486
 10
4488.571428571428
 20
354.9181425841853
 10
4499.333966527549
 20
357.5190892569141
 10
4529.369167394989
 20
388.62697586962025
 10
4563.699291673399
 20
367.8858591180808
 10
4580.696373447667
 20
367.8858591180808
 10
4574.291464521794
 20
406.5821838785639
 10
4570.0
 20
411.7677035090653
 10
4570.0
 20
453.2557487162706
 10
4576.448759308322
 20
466.24283343441806
 10
4589.3318935932175
 20
476.62091383058436
 10
4610.751143592912
 20
486.97355133043675
 10
4619.338669249682
 20
497.3501448323665
 10
4627.995714049431
 20
497.3501448323665
 10
4645.148265487866
 20
481.8056450912842
 10
4655.914285714286
 20
479.20385686989954
 10
4655.914285714286
 20
442.83913208049387
 10
4643.046168394436
 20
427.2901569856751
 10
4634.498041605539
 20
401.467690644214
 10
4638.771428571428
 20
396.30401472709644
 10
4638.771428571428
 20
385.94687186995355
 10
4655.914285714286
 20
365.2325861556679
 10
4655.914285714286
 20
339.2739440202305
 10
4623.71023255119
 20
289.98385154004814
 10
4617.174033338895
 20
292.616487333889
  0
LWPOLYLINE
  5
37
330
17
100
AcDbEntity
  8
C
100
AcDbPolyline
 90
16
 70
1
 10
6227.910097821111
 20
243.4001448323666
 10
6210.723059229412
 20
243.4001448323666
 10
6208.568068507301
 20
266.83566893532253
 10
6215.042198107162
 20
274.65857553515474
 10
6232.185055250019
 20
279.8371469637262
 10
6240.767240678253
 20
290.2072876895094
 10
6249.357851183745
 20
290.2072876895094
 10
6283.756387183312
 20
310.989736522581
 10
6285.917645778414
 20
287.4860493008392
 10
6281.628571428571
 20
282.30341779477965
 10
6281.628571428571
 20
272.03870498028283
 10
6290.230510550995
 20
266.8417000938188
 10
6277.339073149934
 20
240.87977755001543
 10
6275.181088791504
 20
227.8419553845058
 10
6232.187028817679
 20
238.23218654484714
 10
6227.910097821111
 20
243.4001448323666
  0
LWPOLYLINE
  5
38
330
17
100
AcDbEntity
  8
C
100
AcDbPolyline
 90
11
 70
1
 10
6131.411659002632
 20
246.08816669771215
 10
6142.1858051202325
 20
264.31443054665226
 10
6146.481526392539
 20
264.31443054665226
 10
6161.437870405659
 20
282.3866795625053
 10
6163.589700038537
 20
290.1870619816861
 10
6180.84896684999
 20
295.4007988309791
 10
6195.914285714286
 20
277.19687186995355
 10
6195.914285714286
 20
235.66849026586434
 10
6167.973972635571
 20
222.68340886710268
 10
6144.326416711444
 20
225.281057055738
 10
6131.411659002632
 20
246.08816669771215
  0
LWPOLYLINE
  5
39
330
17
100
AcDbEntity
  8
C
100
AcDbPolyline
 90
10
 70
1
 10
6071.419907071108
 20
287.50794993360415
 10
6080.0
 20
313.426980656297
 10
6080.0
 20
354.9181425841853
 10
6090.828461715484
 20
357.53502083209366
 10
6114.459266630766
 20
344.5559802536238
 10
6123.052005281523
 20
328.9816414491294
 10
6127.352022934023
 20
308.1982227953766
 10
6086.550975778265
 20
269.27617123231784
 10
6080.029631937958
 20
271.9028236124416
 10
6071.419907071108
 20
287.50794993360415
  0
LWPOLYLINE
  5
3A
330
17
100
AcDbEntity
  8
C
100
AcDbPolyline
 90
50
 70
1
 10
6112.148222300123
 20
113.93585911808091
 10
6009.360059617034
 20
113.93585911808091
 10
5962.163898858319
 20
139.85799286813284
 10
5957.880806729945
 20
150.20879884503358
 10
5945.043991001149
 20
155.37918295802135
 10
5921.428571428572
 20
178.72624549000082
 10
5921.428571428572
 20
189.1509010218876
 10
5930.021946121649
 20
204.72639265309056
 10
5942.864712362411
 20
215.07195434703786
 10
5945.010517860515
 20
228.03619589808378
 10
5951.428571428572
 20
230.62124525188432
 10
5951.428571428572
 20
246.0582913971142
 10
5930.000000000001
 20
277.12971996854276
 10
5930.000000000001
 20
292.72597513579046
 10
5959.962822703747
 20
339.27536040768325
 10
5921.428571428572
 20
365.1432605692595
 10
5921.428571428572
 20
406.6611575842393
 10
5925.717536548307
 20
411.8436571039187
 10
5927.866068902323
 20
435.208946453851
 10
6071.628571428571
 20
432.61621475406173
 10
6071.628571428571
 20
411.8397290128107
 10
6075.914285714286
 20
406.6611575842393
 10
6075.914285714286
 20
365.1605606519225
 10
6069.432759321748
 20
357.328716260938
 10
6056.563839350383
 20
357.328716260938
 10
6043.713978399744
 20
346.9774393840337
 10
6013.724886513806
 20
341.8007509037231
 10
6007.358273786254
 20
334.1077605245986
 10
6011.628571428572
 20
323.78787455566504
 10
6011.628571428572
 20
303.03384368049666
 10
6003.057142857143
 20
282.319557966211
 10
6003.057142857143
 20
251.24812939478235
 10
5998.790749767201
 20
240.93767942742272
 10
6015.914285714286
 20
225.41947497537717
 10
6015.914285714286
 20
214.9819892233511
 10
6003.057142857143
 20
199.4462749376368
 10
6003.057142857143
 20
189.09663318607906
 10
5990.222885500826
 20
168.41921855645626
 10
6018.004187893176
 20
134.85014483236657
 10
6022.166708115572
 20
134.85014483236657
 10
6024.29628647688
 20
142.56986639211078
 10
6050.020259995956
 20
168.47247861617964
 10
6060.745461910324
 20
186.61594518798708
 10
6067.159612277454
 20
189.1994224191922
 10
6069.340363774259
 20
197.1046465951063
 10
6082.305999264231
 20
181.4378370447225
 10
6125.198606749713
 20
160.70641009340648
 10
6127.347642353644
 20
64.62660996761483
 10
6114.288318190844
 20
75.14662109875991
 10
6112.148222300123
 20
113.93585911808091
  0
LWPOLYLINE
  5
3B
330
17
100
AcDbEntity
  8
C
100
AcDbPolyline
 90
21
 70
1
 10
5788.584785954683
 20
256.39442048049096
 10
5775.714285714286
 20
287.4981293947825
 10
5775.714285714286
 20
328.97232959331615
 10
5784.285714285715
 20
344.5080438790303
 10
5784.285714285715
 20
354.88184818695254
 10
5805.725148692238
 20
375.60663477992483
 10
5807.8693135140065
 20
383.3792322588392
 10
5833.629754858869
 20
404.13069889775545
 10
5867.998126278591
 20
409.3217549976093
 10
5870.2154166433975
 20
406.64252914013457
 10
5857.342857142858
 20
375.5338436804967
 10
5857.342857142858
 20
359.97678316749636
 10
5831.628571428572
 20
334.0839260246392
 10
5831.628571428572
 20
318.55341779477965
 10
5827.347926322399
 20
313.3809716248208
 10
5831.621115142825
 20
282.40035267673113
 10
5840.200000000001
 20
277.2172764088543
 10
5840.200000000001
 20
271.93728768950945
 10
5807.984393267213
 20
243.39068061240033
 10
5797.187028817678
 20
246.00004368770433
 10
5788.584785954683
 20
256.39442048049096
  0
LWPOLYLINE
  5
3C
330
17
100
AcDbEntity
  8
C
100
AcDbPolyline
 90
10
 70
1
 10
7480.790782496767
 20
227.86443054665227
 10
7472.205670137912
 20
227.86443054665227
 10
7457.142857142857
 20
240.865072715003
 10
7457.142857142857
 20
266.82560349952865
 10
7467.893056770434
 20
290.2072876895094
 10
7485.153056197477
 20
290.2072876895094
 10
7504.47682770738
 20
261.66893995034815
 10
7517.342857142858
 20
220.21173399158835
 10
7517.342857142858
 20
209.67798164185737
 10
7480.790782496767
 20
227.86443054665227
  0
LWPOLYLINE
  5
3D
330
17
100
AcDbEntity
  8
C
100
AcDbPolyline
 90
10
 70
1
 10
7395.042198107161
 20
181.27028555814982
 10
7388.588404950493
 20
189.0686189557903
 10
7379.999999999999
 20
204.63510292855992
 10
7379.999999999999
 20
220.25851250466866
 10
7416.555039890652
 20
238.4464367639878
 10
7420.867743656663
 20
233.23525304672444
 10
7435.914285714286
 20
230.6379332867775
 10
7435.914285714286
 20
178.7319892233511
 10
7429.420395421417
 20
170.88520511946837
 10
7395.042198107161
 20
181.27028555814982
  0
LWPOLYLINE
  5
3E
330
17
100
AcDbEntity
  8
C
100
AcDbPolyline
 90
10
 70
1
 10
8658.577178807509
 20
33.8109629290263
 10
8665.046542057624
 20
41.628110189581456
 10
8695.046542057624
 20
46.806681618152936
 10
8699.421045720881
 20
52.09254021125553
 10
8705.914285714285
 20
33.78521078540475
 10
8705.914285714285
 20
18.268300441382056
 10
8710.239489247218
 20
13.042012839089567
 10
8695.1287433371
 20
0.0
 10
8654.271122163751
 20
7.7952040396521705
 10
8658.577178807509
 20
33.8109629290263
  0
LWPOLYLINE
  5
3F
330
17
100
AcDbEntity
  8
C
100
AcDbPolyline
 90
8
 70
1
 10
8658.578862657021
 20
163.19179890532155
 10
8645.706254587882
 20
183.9310007944921
 10
8647.881882823687
 20
191.81765314929177
 10
8710.305546282494
 20
189.2166671718415
 10
8705.908535478206
 20
183.90361244999255
 10
8699.4694956824
 20
145.00108035033298
 10
8662.879541838194
 20
147.6018368735732
 10
8658.578862657021
 20
163.19179890532155
  0
LWPOLYLINE
  5
40
330
17
100
AcDbEntity
  8
C
100
AcDbPolyline
 90
11
 70
1
 10
8467.836398880343
 20
139.81160801192493
 10
8448.54066229559
 20
137.22097671119414
 10
8457.161781343566
 20
173.6811260182599
 10
8480.77114966163
 20
176.27457935622903
 10
8498.02585863062
 20
191.91165935937715
 10
8500.20610106152
 20
178.7393613393553
 10
8495.914285714285
 20
173.55341779477962
 10
8495.914285714285
 20
147.65481691857218
 10
8472.266439879215
 20
124.27569660435522
 10
8465.702531569184
 20
126.91949300700689
 10
8467.836398880343
 20
139.81160801192493
  0
ENDSEC
  0
SECTION
  2
OBJECTS
  0
DICTIONARY
  5
A
330
0
100
AcDbDictionary
281
1
  3
ACAD_COLOR
350
B
  3
ACAD_GROUP
350
C
  3
ACAD_LAYOUT
350
D
  3
ACAD_MATERIAL
350
E
  3
ACAD_MLEADERSTYLE
350
F
  3
ACAD_MLINESTYLE
350
10
  3
ACAD_PLOTSETTINGS
350
11
  3
ACAD_PLOTSTYLENAME
350
12
  3
ACAD_SCALELIST
350
14
  3
ACAD_TABLESTYLE
350
15
  3
ACAD_VISUALSTYLE
350
16
  3
EZDXF_META
350
2D
  0
DICTIONARY
  5
B
330
A
100
AcDbDictionary
281
1
  0
DICTIONARY
  5
C
330
A
100
AcDbDictionary
281
1
  0
DICTIONARY
  5
D
330
A
100
AcDbDictionary
281
1
  3
Model
350
1A
  3
Layout1
350
1E
  0
DICTIONARY
  5
E
330
A
100
AcDbDictionary
281
1
  3
ByBlock
350
1F
  3
ByLayer
350
20
  3
Global
350
21
  0
DICTIONARY
  5
F
330
A
100
AcDbDictionary
281
1
  3
Standard
350
2C
  0
DICTIONARY
  5
10
330
A
100
AcDbDictionary
281
1
  3
Standard
350
22
  0
DICTIONARY
  5
11
330
A
100
AcDbDictionary
281
1
  0
ACDBDICTIONARYWDFLT
  5
12
330
A
100
AcDbDictionary
281
1
  3
Normal
350
13
100
AcDbDictionaryWithDefault
340
13
  0
ACDBPLACEHOLDER
  5
13
330
12
  0
DICTIONARY
  5
14
330
A
100
AcDbDictionary
281
1
  0
DICTIONARY
  5
15
330
A
100
AcDbDictionary
281
1
  0
DICTIONARY
  5
16
330
A
100
AcDbDictionary
281
1
  0
LAYOUT
  5
1A
330
D
100
AcDbPlotSettings
  1

  4
A3
  6

 40
7.5
 41
20.0
 42
7.5
 43
20.0
 44
420.0
 45
297.0
 46
0.0
 47
0.0
 48
0.0
 49
0.0
140
0.0
141
0.0
142
1.0
143
1.0
 70
1024
 72
1
 73
0
 74
5
  7

 75
16
 76
0
 77
2
 78
300
147
1.0
148
0.0
149
0.0
100
AcDbLayout
  1
Model
 70
1
 71
0
 10
0.0
 20
0.0
 11
420.0
 21
297.0
 12
0.0
 22
0.0
 32
0.0
 14
1e+20
 24
1e+20
 34
1e+20
 15
-1e+20
 25
-1e+20
 35
-1e+20
146
0.0
 13
0.0
 23
0.0
 33
0.0
 16
1.0
 26
0.0
 36
0.0
 17
0.0
 27
1.0
 37
0.0
 76
1
330
17
  0
LAYOUT
  5
1E
330
D
100
AcDbPlotSettings
  1

  4
A3
  6

 40
7.5
 41
20.0
 42
7.5
 43
20.0
 44
420.0
 45
297.0
 46
0.0
 47
0.0
 48
0.0
 49
0.0
140
0.0
141
0.0
142
1.0
143
1.0
 70
0
 72
1
 73
0
 74
5
  7

 75
16
 76
0
 77
2
 78
300
147
1.0
148
0.0
149
0.0
100
AcDbLayout
  1
Layout1
 70
1
 71
1
 10
0.0
 20
0.0
 11
420.0
 21
297.0
 12
0.0
 22
0.0
 32
0.0
 14
1e+20
 24
1e+20
 34
1e+20
 15
-1e+20
 25
-1e+20
 35
-1e+20
146
0.0
 13
0.0
 23
0.0
 33
0.0
 16
1.0
 26
0.0
 36
0.0
 17
0.0
 27
1.0
 37
0.0
 76
1
330
1B
  0
MATERIAL
  5
1F
102
{ACAD_REACTORS
330
E
102
}
330
E
100
AcDbMaterial
  1
ByBlock
  2

 70
0
 40
1.0
 71
1
 41
1.0
 91
-1023410177
 42
1.0
 72
1
  3

 73
1
 74
1
 75
1
 44
0.5
 73
0
 45
1.0
 46
1.0
 77
1
  4

 78
1
 79
1
170
1
 48
1.0
171
1
  6

172
1
173
1
174
1
140
1.0
141
1.0
175
1
  7

176
1
177
1
178
1
143
1.0
179
1
  8

270
1
271
1
272
1
145
1.0
146
1.0
273
1
  9

274
1
275
1
276
1
 42
1.0
 72
1
  3

 73
1
 74
1
 75
1
 94
63
  0
MATERIAL
  5
20
102
{ACAD_REACTORS
330
E
102
}
330
E
100
AcDbMaterial
  1
ByLayer
  2

 70
0
 40
1.0
 71
1
 41
1.0
 91
-1023410177
 42
1.0
 72
1
  3

 73
1
 74
1
 75
1
 44
0.5
 73
0
 45
1.0
 46
1.0
 77
1
  4

 78
1
 79
1
170
1
 48
1.0
171
1
  6

172
1
173
1
174
1
140
1.0
141
1.0
175
1
  7

176
1
177
1
178
1
143
1.0
179
1
  8

270
1
271
1
272
1
145
1.0
146
1.0
273
1
  9

274
1
275
1
276
1
 42
1.0
 72
1
  3

 73
1
 74
1
 75
1
 94
63
  0
MATERIAL
  5
21
102
{ACAD_REACTORS
330
E
102
}
330
E
100
AcDbMaterial
  1
Global
  2

 70
0
 40
1.0
 71
1
 41
1.0
 91
-1023410177
 42
1.0
 72
1
  3

 73
1
 74
1
 75
1
 44
0.5
 73
0
 45
1.0
 46
1.0
 77
1
  4

 78
1
 79
1
170
1
 48
1.0
171
1
  6

172
1
173
1
174
1
140
1.0
141
1.0
175
1
  7

176
1
177
1
178
1
143
1.0
179
1
  8

270
1
271
1
272
1
145
1.0
146
1.0
273
1
  9

274
1
275
1
276
1
 42
1.0
 72
1
  3

 73
1
 74
1
 75
1
 94
63
  0
MLINESTYLE
  5
22
102
{ACAD_REACTORS
330
10
102
}
330
10
100
AcDbMlineStyle
  2
Standard
 70
0
  3

 62
256
 51
90.0
 52
90.0
 71
2
 49
0.5
 62
256
  6
BYLAYER
 49
-0.5
 62
256
  6
BYLAYER
  0
MLEADERSTYLE
  5
2C
102
{ACAD_REACTORS
330
F
102
}
330
F
100
AcDbMLeaderStyle
179
2
170
2
171
1
172
0
 90
2
 40
0.0
 41
0.0
173
1
 91
-1056964608
 92
-2
290
1
 42
2.0
291
1
 43
8.0
  3
Standard
 44
4.0
300

342
29
174
1
175
1
176
0
178
1
 93
-1056964608
 45
4.0
292
0
297
0
 46
4.0
 94
-1056964608
 47
1.0
 49
1.0
140
1.0
294
1
141
0.0
177
0
142
1.0
295
0
296
0
143
3.75
271
0
272
9
273
9
  0
DICTIONARY
  5
2D
330
A
100
AcDbDictionary
280
1
281
1
  3
CREATED_BY_EZDXF
350
2E
  3
WRITTEN_BY_EZDXF
350
43
  0
DICTIONARYVAR
  5
2E
330
2D
100
DictionaryVariables
280
0
  1
1.4.4 @ 2026-07-08T06:54:08.540519+00:00
  0
DICTIONARYVAR
  5
43
330
2D
100
DictionaryVariables
280
0
  1
1.4.4 @ 2026-07-08T06:54:08.543537+00:00
  0
ENDSEC
  0
EOF
