  0
SECTION
  2
HEADER
  9
$ACADVER
  1
AC1027
  9
$ACADMAINTVER
 70
105
  9
$DWGCODEPAGE
  3
ANSI_1252
  9
$LASTSAVEDBY
  1
ezdxf
  9
$REQUIREDVERSIONS
160
0
  9
$INSBASE
 10
0.0
 20
0.0
 30
0.0
  9
$EXTMIN
 10
1e+20
 20
1e+20
 30
1e+20
  9
$EXTMAX
 10
-1e+20
 20
-1e+20
 30
-1e+20
  9
$LIMMIN
 10
0.0
 20
0.0
  9
$LIMMAX
 10
420.0
 20
297.0
  9
$ORTHOMODE
 70
0
  9
$REGENMODE
 70
1
  9
$FILLMODE
 70
1
  9
$QTEXTMODE
 70
0
  9
$MIRRTEXT
 70
1
  9
$LTSCALE
 40
1.0
  9
$ATTMODE
 70
1
  9
$TEXTSIZE
 40
2.5
  9
$TRACEWID
 40
1.0
  9
$TEXTSTYLE
  7
Standard
  9
$CLAYER
  8
0
  9
$CELTYPE
  6
ByLayer
  9
$CECOLOR
 62
256
  9
$CELTSCALE
 40
1.0
  9
$DISPSILH
 70
0
  9
$DIMSCALE
 40
1.0
  9
$DIMASZ
 40
2.5
  9
$DIMEXO
 40
0.625
  9
$DIMDLI
 40
3.75
  9
$DIMRND
 40
0.0
  9
$DIMDLE
 40
0.0
  9
$DIMEXE
 40
1.25
  9
$DIMTP
 40
0.0
  9
$DIMTM
 40
0.0
  9
$DIMTXT
 40
2.5
  9
$DIMCEN
 40
2.5
  9
$DIMTSZ
 40
0.0
  9
$DIMTOL
 70
0
  9
$DIMLIM
 70
0
  9
$DIMTIH
 70
0
  9
$DIMTOH
 70
0
  9
$DIMSE1
 70
0
  9
$DIMSE2
 70
0
  9
$DIMTAD
 70
1
  9
$DIMZIN
 70
8
  9
$DIMBLK
  1

  9
$DIMASO
 70
1
  9
$DIMSHO
 70
1
  9
$DIMPOST
  1

  9
$DIMAPOST
  1

  9
$DIMALT
 70
0
  9
$DIMALTD
 70
3
  9
$DIMALTF
 40
0.03937007874
  9
$DIMLFAC
 40
1.0
  9
$DIMTOFL
 70
1
  9
$DIMTVP
 40
0.0
  9
$DIMTIX
 70
0
  9
$DIMSOXD
 70
0
  9
$DIMSAH
 70
0
  9
$DIMBLK1
  1

  9
$DIMBLK2
  1

  9
$DIMSTYLE
  2
ISO-25
  9
$DIMCLRD
 70
0
  9
$DIMCLRE
 70
0
  9
$DIMCLRT
 70
0
  9
$DIMTFAC
 40
1.0
  9
$DIMGAP
 40
0.625
  9
$DIMJUST
 70
0
  9
$DIMSD1
 70
0
  9
$DIMSD2
 70
0
  9
$DIMTOLJ
 70
0
  9
$DIMTZIN
 70
8
  9
$DIMALTZ
 70
0
  9
$DIMALTTZ
 70
0
  9
$DIMUPT
 70
0
  9
$DIMDEC
 70
2
  9
$DIMTDEC
 70
2
  9
$DIMALTU
 70
2
  9
$DIMALTTD
 70
3
  9
$DIMTXSTY
  7
Standard
  9
$DIMAUNIT
 70
0
  9
$DIMADEC
 70
0
  9
$DIMALTRND
 40
0.0
  9
$DIMAZIN
 70
0
  9
$DIMDSEP
 70
44
  9
$DIMATFIT
 70
3
  9
$DIMFRAC
 70
0
  9
$DIMLDRBLK
  1

  9
$DIMLUNIT
 70
2
  9
$DIMLWD
 70
-2
  9
$DIMLWE
 70
-2
  9
$DIMTMOVE
 70
0
  9
$DIMFXL
 40
1.0
  9
$DIMFXLON
 70
0
  9
$DIMJOGANG
 40
0.785398163397
  9
$DIMTFILL
 70
0
  9
$DIMTFILLCLR
 70
0
  9
$DIMARCSYM
 70
0
  9
$DIMLTYPE
  6

  9
$DIMLTEX1
  6

  9
$DIMLTEX2
  6

  9
$DIMTXTDIRECTION
 70
0
  9
$LUNITS
 70
2
  9
$LUPREC
 70
4
  9
$SKETCHINC
 40
1.0
  9
$FILLETRAD
 40
10.0
  9
$AUNITS
 70
0
  9
$AUPREC
 70
2
  9
$MENU
  1
.
  9
$ELEVATION
 40
0.0
  9
$PELEVATION
 40
0.0
  9
$THICKNESS
 40
0.0
  9
$LIMCHECK
 70
0
  9
$CHAMFERA
 40
0.0
  9
$CHAMFERB
 40
0.0
  9
$CHAMFERC
 40
0.0
  9
$CHAMFERD
 40
0.0
  9
$SKPOLY
 70
0
  9
$TDCREATE
 40
2461230.4125925926
  9
$TDUCREATE
 40
2458532.153996898
  9
$TDUPDATE
 40
2461230.4125925926
  9
$TDUUPDATE
 40
2458532.1544311
  9
$TDINDWG
 40
0.0
  9
$TDUSRTIMER
 40
0.0
  9
$USRTIMER
 70
1
  9
$ANGBASE
 50
0.0
  9
$ANGDIR
 70
0
  9
$PDMODE
 70
0
  9
$PDSIZE
 40
0.0
  9
$PLINEWID
 40
0.0
  9
$SPLFRAME
 70
0
  9
$SPLINETYPE
 70
6
  9
$SPLINESEGS
 70
8
  9
$HANDSEED
  5
66
  9
$SURFTAB1
 70
6
  9
$SURFTAB2
 70
6
  9
$SURFTYPE
 70
6
  9
$SURFU
 70
6
  9
$SURFV
 70
6
  9
$UCSBASE
  2

  9
$UCSNAME
  2

  9
$UCSORG
 10
0.0
 20
0.0
 30
0.0
  9
$UCSXDIR
 10
1.0
 20
0.0
 30
0.0
  9
$UCSYDIR
 10
0.0
 20
1.0
 30
0.0
  9
$UCSORTHOREF
  2

  9
$UCSORTHOVIEW
 70
0
  9
$UCSORGTOP
 10
0.0
 20
0.0
 30
0.0
  9
$UCSORGBOTTOM
 10
0.0
 20
0.0
 30
0.0
  9
$UCSORGLEFT
 10
0.0
 20
0.0
 30
0.0
  9
$UCSORGRIGHT
 10
0.0
 20
0.0
 30
0.0
  9
$UCSORGFRONT
 10
0.0
 20
0.0
 30
0.0
  9
$UCSORGBACK
 10
0.0
 20
0.0
 30
0.0
  9
$PUCSBASE
  2

  9
$PUCSNAME
  2

  9
$PUCSORG
 10
0.0
 20
0.0
 30
0.0
  9
$PUCSXDIR
 10
1.0
 20
0.0
 30
0.0
  9
$PUCSYDIR
 10
0.0
 20
1.0
 30
0.0
  9
$PUCSORTHOREF
  2

  9
$PUCSORTHOVIEW
 70
0
  9
$PUCSORGTOP
 10
0.0
 20
0.0
 30
0.0
  9
$PUCSORGBOTTOM
 10
0.0
 20
0.0
 30
0.0
  9
$PUCSORGLEFT
 10
0.0
 20
0.0
 30
0.0
  9
$PUCSORGRIGHT
 10
0.0
 20
0.0
 30
0.0
  9
$PUCSORGFRONT
 10
0.0
 20
0.0
 30
0.0
  9
$PUCSORGBACK
 10
0.0
 20
0.0
 30
0.0
  9
$USERI1
 70
0
  9
$USERI2
 70
0
  9
$USERI3
 70
0
  9
$USERI4
 70
0
  9
$USERI5
 70
0
  9
$USERR1
 40
0.0
  9
$USERR2
 40
0.0
  9
$USERR3
 40
0.0
  9
$USERR4
 40
0.0
  9
$USERR5
 40
0.0
  9
$WORLDVIEW
 70
1
  9
$SHADEDGE
 70
3
  9
$SHADEDIF
 70
70
  9
$TILEMODE
 70
1
  9
$MAXACTVP
 70
64
  9
$PINSBASE
 10
0.0
 20
0.0
 30
0.0
  9
$PLIMCHECK
 70
0
  9
$PEXTMIN
 10
1e+20
 20
1e+20
 30
1e+20
  9
$PEXTMAX
 10
-1e+20
 20
-1e+20
 30
-1e+20
  9
$PLIMMIN
 10
0.0
 20
0.0
  9
$PLIMMAX
 10
420.0
 20
297.0
  9
$UNITMODE
 70
0
  9
$VISRETAIN
 70
1
  9
$PLINEGEN
 70
0
  9
$PSLTSCALE
 70
1
  9
$TREEDEPTH
 70
3020
  9
$CMLSTYLE
  2
Standard
  9
$CMLJUST
 70
0
  9
$CMLSCALE
 40
20.0
  9
$PROXYGRAPHICS
 70
1
  9
$MEASUREMENT
 70
1
  9
$CELWEIGHT
370
-1
  9
$ENDCAPS
280
0
  9
$JOINSTYLE
280
0
  9
$LWDISPLAY
290
0
  9
$INSUNITS
 70
4
  9
$HYPERLINKBASE
  1

  9
$STYLESHEET
  1

  9
$XEDIT
290
1
  9
$CEPSNTYPE
380
0
  9
$PSTYLEMODE
290
1
  9
$FINGERPRINTGUID
  2
{E9B8DA64-4933-452A-AA15-75F4897BEDFE}
  9
$VERSIONGUID
  2
{785E88DE-4087-469B-A5E7-DB4ABD14E3A8}
  9
$EXTNAMES
290
1
  9
$PSVPSCALE
 40
0.0
  9
$OLESTARTUP
290
0
  9
$SORTENTS
280
127
  9
$INDEXCTL
280
0
  9
$HIDETEXT
280
1
  9
$XCLIPFRAME
280
1
  9
$HALOGAP
280
0
  9
$OBSCOLOR
 70
257
  9
$OBSLTYPE
280
0
  9
$INTERSECTIONDISPLAY
280
0
  9
$INTERSECTIONCOLOR
 70
257
  9
$DIMASSOC
280
2
  9
$PROJECTNAME
  1

  9
$CAMERADISPLAY
290
0
  9
$LENSLENGTH
 40
50.0
  9
$CAMERAHEIGHT
 40
0.0
  9
$STEPSPERSEC
 40
24.0
  9
$STEPSIZE
 40
100.0
  9
$3DDWFPREC
 40
2.0
  9
$PSOLWIDTH
 40
0.005
  9
$PSOLHEIGHT
 40
0.08
  9
$LOFTANG1
 40
1.570796326795
  9
$LOFTANG2
 40
1.570796326795
  9
$LOFTMAG1
 40
0.0
  9
$LOFTMAG2
 40
0.0
  9
$LOFTPARAM
 70
7
  9
$LOFTNORMALS
280
1
  9
$LATITUDE
 40
37.795
  9
$LONGITUDE
 40
-122.394
  9
$NORTHDIRECTION
 40
0.0
  9
$TIMEZONE
 70
-8000
  9
$LIGHTGLYPHDISPLAY
280
1
  9
$TILEMODELIGHTSYNCH
280
1
  9
$CMATERIAL
347
20
  9
$SOLIDHIST
280
0
  9
$SHOWHIST
280
1
  9
$DWFFRAME
280
2
  9
$DGNFRAME
280
2
  9
$REALWORLDSCALE
290
1
  9
$INTERFERECOLOR
 62
256
  9
$CSHADOW
280
0
  9
$SHADOWPLANELOCATION
 40
0.0
  0
ENDSEC
  0
SECTION
  2
CLASSES
  0
CLASS
  1
ACDBDICTIONARYWDFLT
  2
AcDbDictionaryWithDefault
  3
ObjectDBX Classes
 90
0
 91
0
280
0
281
0
  0
CLASS
  1
SUN
  2
AcDbSun
  3
SCENEOE
 90
1153
 91
0
280
0
281
0
  0
CLASS
  1
VISUALSTYLE
  2
AcDbVisualStyle
  3
ObjectDBX Classes
 90
4095
 91
0
280
0
281
0
  0
CLASS
  1
MATERIAL
  2
AcDbMaterial
  3
ObjectDBX Classes
 90
1153
 91
0
280
0
281
0
  0
CLASS
  1
SCALE
  2
AcDbScale
  3
ObjectDBX Classes
 90
1153
 91
0
280
0
281
0
  0
CLASS
  1
TABLESTYLE
  2
AcDbTableStyle
  3
ObjectDBX Classes
 90
4095
 91
0
280
0
281
0
  0
CLASS
  1
MLEADERSTYLE
  2
AcDbMLeaderStyle
  3
ACDB_MLEADERSTYLE_CLASS
 90
4095
 91
0
280
0
281
0
  0
CLASS
  1
DICTIONARYVAR
  2
AcDbDictionaryVar
  3
ObjectDBX Classes
 90
0
 91
0
280
0
281
0
  0
CLASS
  1
CELLSTYLEMAP
  2
AcDbCellStyleMap
  3
ObjectDBX Classes
 90
1152
 91
0
280
0
281
0
  0
CLASS
  1
MENTALRAYRENDERSETTINGS
  2
AcDbMentalRayRenderSettings
  3
SCENEOE
 90
1024
 91
0
280
0
281
0
  0
CLASS
  1
ACDBDETAILVIEWSTYLE
  2
AcDbDetailViewStyle
  3
ObjectDBX Classes
 90
1025
 91
0
280
0
281
0
  0
CLASS
  1
ACDBSECTIONVIEWSTYLE
  2
AcDbSectionViewStyle
  3
ObjectDBX Classes
 90
1025
 91
0
280
0
281
0
  0
CLASS
  1
RASTERVARIABLES
  2
AcDbRasterVariables
  3
ISM
 90
0
 91
0
280
0
281
0
  0
CLASS
  1
ACDBPLACEHOLDER
  2
AcDbPlaceHolder
  3
ObjectDBX Classes
 90
0
 91
0
280
0
281
0
  0
CLASS
  1
LAYOUT
  2
AcDbLayout
  3
ObjectDBX Classes
 90
0
 91
0
280
0
281
0
  0
ENDSEC
  0
SECTION
  2
TABLES
  0
TABLE
  2
VPORT
  5
8
330
0
100
AcDbSymbolTable
 70
1
  0
VPORT
  5
23
330
8
100
AcDbSymbolTableRecord
100
AcDbViewportTableRecord
  2
*Active
 70
0
 10
0.0
 20
0.0
 11
1.0
 21
1.0
 12
0.0
 22
0.0
 13
0.0
 23
0.0
 14
0.5
 24
0.5
 15
0.5
 25
0.5
 16
0.0
 26
0.0
 36
1.0
 17
0.0
 27
0.0
 37
0.0
 40
1000.0
 41
1.34
 42
50.0
 43
0.0
 44
0.0
 50
0.0
 51
0.0
 71
0
 72
1000
 73
1
 74
3
 75
0
 76
0
 77
0
 78
0
281
0
 65
0
146
0.0
  0
ENDTAB
  0
TABLE
  2
LTYPE
  5
2
330
0
100
AcDbSymbolTable
 70
3
  0
LTYPE
  5
24
330
2
100
AcDbSymbolTableRecord
100
AcDbLinetypeTableRecord
  2
ByBlock
 70
0
  3

 72
65
 73
0
 40
0.0
  0
LTYPE
  5
25
330
2
100
AcDbSymbolTableRecord
100
AcDbLinetypeTableRecord
  2
ByLayer
 70
0
  3

 72
65
 73
0
 40
0.0
  0
LTYPE
  5
26
330
2
100
AcDbSymbolTableRecord
100
AcDbLinetypeTableRecord
  2
Continuous
 70
0
  3

 72
65
 73
0
 40
0.0
  0
ENDTAB
  0
TABLE
  2
LAYER
  5
1
330
0
100
AcDbSymbolTable
 70
3
  0
LAYER
  5
27
330
1
100
AcDbSymbolTableRecord
100
AcDbLayerTableRecord
  2
0
 70
0
 62
7
  6
Continuous
370
-3
390
13
347
21
  0
LAYER
  5
28
330
1
100
AcDbSymbolTableRecord
100
AcDbLayerTableRecord
  2
Defpoints
 70
0
 62
7
  6
Continuous
290
0
370
-3
390
13
347
21
  0
LAYER
  5
2F
330
1
100
AcDbSymbolTableRecord
100
AcDbLayerTableRecord
  2
M
 70
0
 62
7
  6
Continuous
370
-3
390
13
347
21
  0
ENDTAB
  0
TABLE
  2
STYLE
  5
5
330
0
100
AcDbSymbolTable
 70
1
  0
STYLE
  5
29
330
5
100
AcDbSymbolTableRecord
100
AcDbTextStyleTableRecord
  2
Standard
 70
0
 40
0.0
 41
1.0
 50
0.0
 71
0
 42
2.5
  3
txt
  4

  0
ENDTAB
  0
TABLE
  2
VIEW
  5
7
330
0
100
AcDbSymbolTable
 70
0
  0
ENDTAB
  0
TABLE
  2
UCS
  5
6
330
0
100
AcDbSymbolTable
 70
0
  0
ENDTAB
  0
TABLE
  2
APPID
  5
3
330
0
100
AcDbSymbolTable
 70
3
  0
APPID
  5
2A
330
3
100
AcDbSymbolTableRecord
100
AcDbRegAppTableRecord
  2
ACAD
 70
0
  0
APPID
  5
63
330
3
100
AcDbSymbolTableRecord
100
AcDbRegAppTableRecord
  2
HATCHBACKGROUNDCOLOR
 70
0
  0
APPID
  5
64
330
3
100
AcDbSymbolTableRecord
100
AcDbRegAppTableRecord
  2
EZDXF
 70
0
  0
ENDTAB
  0
TABLE
  2
DIMSTYLE
  5
4
330
0
100
AcDbSymbolTable
 70
1
100
AcDbDimStyleTable
  0
DIMSTYLE
105
2B
330
4
100
AcDbSymbolTableRecord
100
AcDbDimStyleTableRecord
  2
Standard
 70
0
 40
1.0
 41
2.5
 42
0.625
 43
3.75
 44
1.25
 45
0.0
 46
0.0
 47
0.0
 48
0.0
 49
2.5
140
2.5
141
2.5
142
0.0
143
0.03937007874
144
1.0
145
0.0
146
1.0
147
0.625
148
0.0
 69
0
 70
0
 71
0
 72
0
 73
0
 74
0
 75
0
 76
0
 77
1
 78
8
 79
3
170
0
171
3
172
1
173
0
174
0
175
0
176
0
177
0
178
0
179
2
271
2
272
2
273
2
274
3
275
0
276
0
277
2
278
44
279
0
280
0
281
0
282
0
283
0
284
8
285
0
286
0
288
0
289
3
290
0
371
-2
372
-2
  0
ENDTAB
  0
TABLE
  2
BLOCK_RECORD
  5
9
330
0
100
AcDbSymbolTable
 70
2
  0
BLOCK_RECORD
  5
17
330
9
100
AcDbSymbolTableRecord
100
AcDbBlockTableRecord
  2
*Model_Space
340
1A
 70
0
280
1
281
0
  0
BLOCK_RECORD
  5
1B
330
9
100
AcDbSymbolTableRecord
100
AcDbBlockTableRecord
  2
*Paper_Space
340
1E
 70
0
280
1
281
0
  0
ENDTAB
  0
ENDSEC
  0
SECTION
  2
BLOCKS
  0
BLOCK
  5
18
330
17
100
AcDbEntity
  8
0
100
AcDbBlockBegin
  2
*Model_Space
 70
0
 10
0.0
 20
0.0
 30
0.0
  3
*Model_Space
  1

  0
ENDBLK
  5
19
330
17
100
AcDbEntity
  8
0
100
AcDbBlockEnd
  0
BLOCK
  5
1C
330
1B
100
AcDbEntity
  8
0
100
AcDbBlockBegin
  2
*Paper_Space
 70
0
 10
0.0
 20
0.0
 30
0.0
  3
*Paper_Space
  1

  0
ENDBLK
  5
1D
330
1B
100
AcDbEntity
  8
0
100
AcDbBlockEnd
  0
ENDSEC
  0
SECTION
  2
ENTITIES
  0
LWPOLYLINE
  5
30
330
17
100
AcDbEntity
  8
M
100
AcDbPolyline
 90
207
 70
1
 10
126.46086164484069
 20
196.81569590350966
 10
120.01675513459678
 20
199.41123880346905
 10
115.72561074200003
 20
214.96663722663223
 10
98.57142857142856
 20
230.51261481871254
 10
98.57142857142856
 20
235.6995036384219
 10
81.42423657664847
 20
256.41902729878126
 10
83.58255478028973
 20
274.67480210458024
 10
96.49811920609066
 20
274.67480210458024
 10
115.7208252140616
 20
287.57893345252364
 10
124.27443237481975
 20
354.7603896943118
 10
109.42580774249691
 20
357.32354513679604
 10
105.14704503603254
 20
352.15337353315175
 10
58.00418789317538
 20
352.15337353315175
 10
53.7184736074611
 20
346.97480210458025
 10
40.75019962757745
 20
346.97480210458025
 10
30.0
 20
370.35648629456114
 10
30.0
 20
385.8906267921047
 10
17.086930380162762
 20
411.89611422094356
 10
53.645192962738314
 20
414.49461817901886
 10
75.13263005752572
 20
424.8802127748327
 10
100.88882032963245
 20
388.5711389884601
 10
115.90261037355334
 20
375.6128082957902
 10
118.0449722002789
 20
367.84674667391
 10
130.80016586139072
 20
357.5717295580142
 10
139.33866924968177
 20
367.889087818866
 10
152.21042101420844
 20
367.889087818866
 10
162.85283729592206
 20
375.6048396231084
 10
158.57284028310872
 20
427.3214701946024
 10
152.16055626889255
 20
445.4005487346842
 10
135.06608543500067
 20
455.7284581968272
 10
115.71428571428574
 20
458.32661649266396
 10
115.71428571428574
 20
468.74776964924763
 10
96.46575736485627
 20
507.5121670196262
 10
0.0
 20
510.10245124516405
 10
0.0
 20
582.7358148564529
 10
4.285714285714281
 20
587.9143862850243
 10
4.285714285714281
 20
603.4501005707385
 10
10.777066830832988
 20
611.2938182294238
 10
32.28813479711065
 20
606.0953101375733
 10
45.13526792181141
 20
595.7462306760087
 10
62.27812506466854
 20
595.7462306760087
 10
75.13526792181138
 20
585.3890878188658
 10
92.27812506466856
 20
585.3890878188658
 10
105.1352679218114
 20
575.0319449617231
 10
117.91009782111026
 20
575.0319449617231
 10
128.57142857142858
 20
587.9143862850243
 10
128.57142857142858
 20
603.3989272310728
 10
115.71176187875335
 20
644.835631018582
 10
117.87009164996573
 20
657.8755400529905
 10
147.90368491476605
 20
663.0599103189379
 10
152.19581210682458
 20
668.2462306760087
 10
182.19581210682455
 20
668.2462306760087
 10
186.48152639253888
 20
673.4248021045801
 10
199.46186331300044
 20
673.4248021045801
 10
201.63410182377476
 20
665.5504375030231
 10
184.4857142857143
 20
624.1085009527103
 10
184.4857142857143
 20
608.5566464955647
 10
175.93473336385054
 20
598.2242112149793
 10
184.4857142857143
 20
582.7255582941011
 10
184.4857142857143
 20
572.3727627851495
 10
201.6285714285714
 20
546.4799056422924
 10
201.6285714285714
 20
536.0566464955646
 10
195.1558283251791
 20
528.2354152456322
 10
184.4857142857143
 20
525.6568043527615
 10
184.4857142857143
 20
473.9732631313415
 10
190.87628015516026
 20
461.10337353315174
 10
203.71847360746116
 20
461.10337353315174
 10
208.00418789317547
 20
455.92480210458024
 10
238.00418789317544
 20
455.92480210458024
 10
242.28007602630987
 20
450.75810394370956
 10
252.8649469301818
 20
453.3161144121452
 10
257.14488665062277
 20
494.68886504307414
 10
269.98458335660314
 20
525.7181320825265
 10
261.42857142857144
 20
536.0566464955646
 10
261.42857142857144
 20
551.648246113593
 10
270.0166801616971
 20
572.4028422186466
 10
285.0628129950546
 20
585.3890878188658
 10
293.6361606496173
 20
585.3890878188658
 10
306.4810074330424
 20
595.736325505514
 10
323.7258975176097
 20
600.945719385227
 10
334.47110168576734
 20
577.5749003194841
 10
351.6285714285715
 20
556.8429577135958
 10
351.6285714285715
 20
546.4858148564529
 10
355.9327430938618
 20
541.2849407608937
 10
349.45836175622014
 20
528.2462561225877
 10
336.5894478214456
 20
523.0629435655256
 10
325.9297023576827
 20
510.18241779681216
 10
334.48571428571427
 20
489.50538897073585
 10
334.48571428571427
 20
468.80724342788153
 10
340.8651510241134
 20
461.0987573689826
 10
392.19981726531074
 20
455.92964167108425
 10
409.33866924968174
 20
476.63908781886596
 10
417.9924107789542
 20
476.63908781886596
 10
469.4683460643928
 20
435.1723621722627
 10
473.74437594747843
 20
424.83862328813933
 10
484.5310126886033
 20
422.2318527423674
 10
471.6285714285715
 20
396.24776964924763
 10
471.6285714285715
 20
375.5370723812818
 10
467.3309461021935
 20
365.1511445092018
 10
415.92330439666256
 20
292.68064960487675
 10
420.190701022913
 20
277.21133683471885
 10
433.05714285714294
 20
261.66438628502425
 10
433.05714285714294
 20
225.43117347570586
 10
482.23291462267724
 20
191.84554674453474
 10
501.4124887512701
 20
209.8707946524253
 10
488.57142857142867
 20
246.07545043725636
 10
488.57142857142867
 20
266.84295771359575
 10
495.05295496396764
 20
274.67480210458024
 10
503.6045847450391
 20
274.67480210458024
 10
507.89029903075334
 20
285.0319449617232
 10
516.481526392539
 20
285.0319449617232
 10
527.1224094932925
 20
297.8896787084669
 10
501.40446954063043
 20
344.50344487266665
 10
525.0589129804641
 20
367.889087818866
 10
533.6243835353961
 20
367.889087818866
 10
542.1958121068246
 20
378.24623067600885
 10
550.7672406782533
 20
378.24623067600885
 10
559.3386692496819
 20
388.60337353315174
 10
567.9100978211104
 20
388.60337353315174
 10
574.2559106289922
 20
396.2712306760088
 10
570.0000000000001
 20
401.4137893527076
 10
570.0000000000001
 20
427.3684154369583
 10
587.1428571428572
 20
458.43984400838696
 10
587.1428571428572
 20
468.7540218658278
 10
574.2857142857144
 20
505.0040218658277
 10
574.2857142857144
 20
520.5929577135958
 10
578.5560119280316
 20
525.7529006980625
 10
570.0000000000001
 20
546.4299295241389
 10
570.0000000000001
 20
572.3973993839036
 10
606.4662594228427
 20
595.7250800441043
 10
627.916710815453
 20
616.4605163902944
 10
636.5756164646041
 20
616.4605163902944
 10
645.1470450360326
 20
606.1033735331516
 10
653.7382723978182
 20
606.1033735331516
 10
658.0239866835324
 20
595.7462306760087
 10
679.3386692496817
 20
595.7462306760087
 10
687.8979902429072
 20
606.0887435428227
 10
717.8979902429072
 20
616.4458863999655
 10
726.481526392539
 20
626.8176592474373
 10
735.0529549639675
 20
626.8176592474373
 10
743.631335114646
 20
637.1832019295073
 10
758.7584797786058
 20
634.5719686244189
 10
763.051392621063
 20
608.6356202012399
 10
767.3428571428573
 20
603.4501005707385
 10
767.3428571428573
 20
587.9143862850243
 10
771.6285714285715
 20
582.7358148564529
 10
771.6285714285715
 20
510.14648927004447
 10
752.273309365338
 20
497.15337353315164
 10
726.5007083266016
 20
497.15337353315164
 10
717.8713366447936
 20
502.36695225757734
 10
715.7040333744682
 20
510.2234266125066
 10
724.2857142857143
 20
520.5929577135958
 10
724.2857142857143
 20
536.12867199931
 10
728.5611762316111
 20
541.2948551839353
 10
724.3011897886926
 20
556.7373060395149
 10
687.9002280433981
 20
574.8485688686687
 10
670.8246380810383
 20
590.3233222720572
 10
668.7666039600977
 20
587.8365310425874
 10
660.2067926752947
 20
525.7778992277662
 10
673.0571428571429
 20
515.4262282479441
 10
673.0571428571429
 20
510.169698566868
 10
655.9142857142858
 20
484.276841424011
 10
655.9142857142858
 20
468.74271902972123
 10
643.0571428571429
 20
448.02843331543556
 10
643.0571428571429
 20
437.7232631313415
 10
649.4623364432623
 20
424.8239149370733
 10
657.9850059591128
 20
419.67480210458024
 10
688.0041878931755
 20
419.67480210458024
 10
692.2899021788897
 20
414.4962306760089
 10
705.1761490272862
 20
414.4962306760089
 10
711.6093088235605
 20
391.1760264145147
 10
722.2986854680362
 20
388.5927603920997
 10
730.8613307503182
 20
378.24623067600885
 10
739.4705231040568
 20
378.24623067600885
 10
741.6346724900923
 20
365.17116146871194
 10
733.0437854738893
 20
354.7905063241335
 10
724.4857142857143
 20
334.10850095271036
 10
724.4857142857143
 20
323.7411271382967
 10
707.3428571428572
 20
297.8482699954395
 10
707.3428571428572
 20
287.4852179241361
 10
694.4764153086273
 20
271.93826737444175
 10
690.191623562869
 20
256.40589729606785
 10
632.294047241784
 20
176.08194496172314
 10
628.0041878931754
 20
176.08194496172314
 10
610.8613307503182
 20
155.3676592474374
 10
572.2899021788896
 20
155.3676592474374
 10
568.0041878931754
 20
150.18908781886597
 10
550.8613307503183
 20
150.18908781886597
 10
546.575616464604
 20
145.0105163902945
 10
507.9800422651641
 20
145.0105163902945
 10
486.55147083659267
 20
134.65337353315172
 10
477.91009782111036
 20
134.65337353315172
 10
473.62438353539613
 20
139.83194496172314
 10
443.62438353539613
 20
139.83194496172314
 10
439.3386692496819
 20
145.0105163902945
 10
400.88651905107463
 20
145.0105163902945
 10
392.3178493781341
 20
119.12599341995337
 10
349.4261436455378
 20
113.94324564393136
 10
336.5638393503829
 20
103.58194496172314
 10
319.41357738768403
 20
103.58194496172314
 10
302.26776408122635
 20
93.22301608907159
 10
261.51353981212134
 20
95.81484175530854
 10
229.34417505570417
 20
103.58910490477604
 10
169.3046007916941
 20
145.045001420402
 10
165.01736822132142
 20
155.40581346546927
 10
139.309726370755
 20
176.11474717842563
 10
126.46086164484069
 20
196.81569590350966
  0
LWPOLYLINE
  5
31
330
17
100
AcDbEntity
  8
M
100
AcDbPolyline
 90
35
 70
1
 10
285.1470450360325
 20
269.49623067600885
 10
289.43275932174686
 20
264.3176592474374
 10
345.04437208161465
 20
264.3176592474374
 10
357.88253983806385
 20
285.0013739661613
 10
368.57142857142867
 20
292.7508182978506
 10
368.57142857142867
 20
303.02843331543556
 10
355.71995733318573
 20
323.7335814214935
 10
351.4337090041927
 20
344.45044834496014
 10
342.89584012463837
 20
359.92533568915223
 10
306.55312794674006
 20
362.5085186625813
 10
297.9350672004445
 20
357.30177362836105
 10
289.322572164341
 20
367.70853846365287
 10
267.9006610542656
 20
378.06246216685594
 10
250.82463808103827
 20
393.537607986343
 10
246.575616464604
 20
388.40337353315175
 10
238.00418789317538
 20
388.40337353315175
 10
229.4327593217468
 20
378.0462306760089
 10
220.86133075031825
 20
378.0462306760089
 10
212.2899021788897
 20
367.689087818866
 10
203.7184736074611
 20
367.689087818866
 10
197.34285714285713
 20
359.9852179241361
 10
197.34285714285713
 20
349.7001005707386
 10
201.6285714285714
 20
344.5215291421671
 10
201.6285714285714
 20
313.4501005707386
 10
205.91428571428568
 20
308.2715291421672
 10
205.91428571428568
 20
297.82735733988125
 10
163.05714285714288
 20
266.75592876845275
 10
163.05714285714288
 20
256.48581485645286
 10
167.34112024034616
 20
251.30934218508222
 10
169.4809645560588
 20
207.35337353315165
 10
246.4815263925389
 20
207.35337353315165
 10
252.8571428571429
 20
215.05724342788147
 10
252.8571428571429
 20
235.75104760721894
 10
263.59831518673116
 20
269.49623067600885
 10
285.1470450360325
 20
269.49623067600885
  0
LWPOLYLINE
  5
32
330
17
100
AcDbEntity
  8
M
100
AcDbPolyline
 90
18
 70
1
 10
636.4579357914629
 20
683.5819449617231
 10
630.0000000000001
 20
701.7897361515419
 10
630.0000000000001
 20
727.6637893527075
 10
625.7179334899781
 20
732.8379530523172
 10
621.4194878753974
 20
774.3895939932647
 10
636.5483388194442
 20
777.0011218347967
 10
670.8805126843811
 20
756.2587667913972
 10
679.432759321747
 20
745.9248021045801
 10
687.9957140494305
 20
745.9248021045801
 10
705.1886749722858
 20
730.3436812682427
 10
707.3315321151429
 20
722.5758241253855
 10
724.4857142857143
 20
707.029846533305
 10
724.4857142857143
 20
701.8429577135958
 10
741.6388237683891
 20
681.1162837553638
 10
739.4605654915415
 20
673.2200975017913
 10
653.622066327274
 20
678.406173492966
 10
649.3386692496817
 20
683.5819449617231
 10
636.4579357914629
 20
683.5819449617231
  0
LWPOLYLINE
  5
33
330
17
100
AcDbEntity
  8
M
100
AcDbPolyline
 90
17
 70
1
 10
469.3386692496817
 20
719.8319449617231
 10
456.4815263925389
 20
719.8319449617231
 10
447.91009782111036
 20
730.1890878188659
 10
439.3386692496818
 20
730.1890878188659
 10
430.76724067825313
 20
740.5462306760088
 10
422.166708115571
 20
740.5462306760088
 10
419.98755910818
 20
748.4456458278014
 10
439.3460983696082
 20
766.639087818866
 10
452.20758922104585
 20
766.639087818866
 10
465.0647320781888
 20
776.9962306760087
 10
477.9218749353316
 20
776.9962306760087
 10
490.8582223041499
 20
787.4171771675568
 10
505.92617511030255
 20
748.4019422230541
 10
488.7665990887121
 20
722.4838326071101
 10
486.6096602200759
 20
709.4523269424336
 10
475.7584573891067
 20
712.0747009599179
 10
469.3386692496817
 20
719.8319449617231
  0
LWPOLYLINE
  5
34
330
17
100
AcDbEntity
  8
M
100
AcDbPolyline
 90
16
 70
1
 10
270.0
 20
701.7709322098503
 10
265.71428571428567
 20
706.9495036384218
 10
265.71428571428567
 20
753.6286719993101
 10
270.0
 20
758.8072434278814
 10
270.0
 20
774.2709322098503
 10
265.7040333744681
 20
779.461891882368
 10
267.8864976365275
 20
787.3733248323332
 10
310.87011403946474
 20
776.9856175349568
 10
319.43917222809114
 20
766.6313388903666
 10
334.48571428571427
 20
764.0340191304197
 10
334.48571428571427
 20
686.2254442729309
 10
319.40942979829214
 20
673.2131749236677
 10
302.1952931473281
 20
678.4132787036465
 10
289.3447293758141
 20
688.7651217418105
 10
270.0
 20
691.3623307783781
 10
270.0
 20
701.7709322098503
  0
LWPOLYLINE
  5
35
330
17
100
AcDbEntity
  8
M
100
AcDbPolyline
 90
31
 70
1
 10
53.603718787697844
 20
709.6553368770793
 10
66.45101343377443
 20
730.3537560290918
 10
83.63285737914103
 20
745.9248021045801
 10
92.20758922104574
 20
745.9248021045801
 10
117.92187493533143
 20
766.639087818866
 10
126.48152639253881
 20
766.639087818866
 10
135.05295496396744
 20
776.9962306760087
 10
147.92187493533146
 20
776.9962306760087
 10
160.7790177924743
 20
787.3533735331516
 10
182.19581210682455
 20
787.3533735331516
 10
186.48379546721176
 20
792.534686760286
 10
231.98037304509418
 20
789.9168281298128
 10
225.16409220031423
 20
787.171381678443
 10
195.1716270562117
 20
745.7532155270633
 10
184.47279153765976
 20
737.9965597761131
 10
182.32610200826036
 20
730.2148102320403
 10
175.89753057968895
 20
727.6255245177547
 10
173.71677908288498
 20
719.7203003418406
 10
165.0529549639674
 20
730.1890878188659
 10
147.92187493533146
 20
730.1890878188659
 10
135.06473207818863
 20
740.5462306760088
 10
117.9292797551729
 20
740.5462306760088
 10
109.48571428571427
 20
745.6475514804733
 10
109.48571428571427
 20
657.6890878188659
 10
79.40861369373556
 20
657.6890878188659
 10
57.9770101693666
 20
647.3304794487543
 10
17.040764148524012
 20
649.9338810597288
 10
25.725260176992865
 20
660.4276470941288
 10
34.29450332789316
 20
686.3139024458067
 10
47.1751473591264
 20
707.0660511627937
 10
53.603718787697844
 20
709.6553368770793
  0
LWPOLYLINE
  5
36
330
17
100
AcDbEntity
  8
M
100
AcDbPolyline
 90
197
 70
1
 10
1452.161267160293
 20
108.79615293438317
 10
1430.7396826952067
 20
124.32680167157069
 10
1417.889433073412
 20
145.02998161779536
 10
1411.4522353013738
 20
147.622741831533
 10
1402.8773054559467
 20
168.3454889579818
 10
1394.3118268169676
 20
173.5204656356984
 10
1355.7142857142856
 20
240.88747024547192
 10
1355.7142857142856
 20
251.23521792413612
 10
1347.142857142857
 20
261.59236078127896
 10
1347.142857142857
 20
271.9495036384219
 10
1338.5714285714284
 20
282.30664649556473
 10
1338.5714285714284
 20
297.84236078127896
 10
1329.9999999999998
 20
308.1995036384219
 10
1329.9999999999998
 20
323.7477696492475
 10
1317.1428571428569
 20
349.6406267921047
 10
1317.1428571428569
 20
375.5408234235071
 10
1308.5714285714284
 20
401.4336805663643
 10
1308.5714285714284
 20
473.96798877249887
 10
1319.340790867009
 20
502.5965435415837
 10
1332.287279759121
 20
492.1674274896047
 10
1379.4301369019781
 20
481.81028463246184
 10
1392.2781250646685
 20
471.4605163902946
 10
1405.1470450360323
 20
471.4605163902946
 10
1411.6285714285711
 20
463.6286719993101
 10
1411.6285714285711
 20
437.66969856686814
 10
1394.502524736543
 20
411.802232209117
 10
1403.0571428571427
 20
396.2969868655298
 10
1403.0571428571427
 20
380.7715291421671
 10
1413.7235188642942
 20
367.88299146685927
 10
1452.213582207214
 20
362.7153440735968
 10
1465.0647320781884
 20
373.0676592474374
 10
1482.2899021788896
 20
373.0676592474374
 10
1486.5756164646039
 20
367.889087818866
 10
1512.2899021788896
 20
367.889087818866
 10
1518.7714285714285
 20
360.0572434278814
 10
1518.7714285714285
 20
318.62867199931003
 10
1529.4488564070875
 20
305.72678003122206
 10
1550.8774278356589
 20
295.36963717407923
 10
1559.4299485172926
 20
285.03534135043856
 10
1595.7142857142856
 20
287.6143751217934
 10
1595.7142857142856
 20
297.84236078127896
 10
1591.4285714285713
 20
303.02093220985046
 10
1591.4285714285713
 20
328.92992952413897
 10
1582.8571428571427
 20
349.64421523842464
 10
1582.8571428571427
 20
359.9256058928055
 10
1525.0229270665604
 20
362.5138655501001
 10
1522.8468905173254
 20
370.40199804107806
 10
1527.1470118925336
 20
375.5979780361218
 10
1531.432726178248
 20
411.8479780361219
 10
1535.7142857142856
 20
417.0215291421672
 10
1535.7142857142856
 20
432.4852179241361
 10
1529.3386692496817
 20
440.18908781886597
 10
1495.1278631019698
 20
440.18908781886597
 10
1486.506495771873
 20
434.98034505693244
 10
1475.7142857142858
 20
448.02093220985046
 10
1475.7142857142858
 20
458.3780750669933
 10
1462.857142857143
 20
473.9137893527076
 10
1462.857142857143
 20
484.27093220985046
 10
1458.476123487583
 20
489.56466394806847
 10
1482.2605018540937
 20
492.1773418746928
 10
1503.6943279794498
 20
481.8176592474374
 10
1516.556434530541
 20
481.8176592474374
 10
1533.6101384197505
 20
471.51437981437357
 10
1535.7087553190822
 20
479.12186607445176
 10
1518.5714285714284
 20
520.5370723812816
 10
1518.5714285714284
 20
530.8780750669931
 10
1510.0
 20
541.2352179241361
 10
1510.0
 20
551.6892011404761
 10
1525.0359387561716
 20
559.4756694249222
 10
1533.6243835353957
 20
569.8533735331516
 10
1546.5638393503828
 20
569.8533735331516
 10
1559.4209822075256
 20
559.4962306760087
 10
1572.2899021788896
 20
559.4962306760087
 10
1576.5632525642743
 20
554.3325989603356
 10
1593.5738561598848
 20
559.4712187965096
 10
1595.7170345187867
 20
624.2130650550063
 10
1610.7347576155335
 20
626.8054101133732
 10
1615.0334041076774
 20
642.3880036473945
 10
1621.6118162939745
 20
639.7383654056914
 10
1623.757234783778
 20
631.9612233801545
 10
1657.9451453825582
 20
611.3060273933913
 10
1675.0614288077124
 20
626.8176592474373
 10
1683.6389924427797
 20
626.8176592474373
 10
1705.0675638713512
 20
642.3533735331516
 10
1717.9100978211102
 20
642.3533735331516
 10
1722.22561754358
 20
647.5679598644692
 10
1733.0442201090882
 20
639.7244730044757
 10
1739.4470044373923
 20
616.5143798143735
 10
1747.929279755173
 20
621.6390878188658
 10
1765.0529549639673
 20
621.6390878188658
 10
1769.3386692496815
 20
626.8176592474373
 10
1786.4815263925389
 20
626.8176592474373
 10
1790.7770668308328
 20
632.0081039437094
 10
1801.6285714285714
 20
629.385656999256
 10
1801.6285714285714
 20
618.9137893527075
 10
1793.057142857143
 20
608.5566464955647
 10
1793.057142857143
 20
598.2107935773845
 10
1778.017498445133
 20
569.6533735331516
 10
1726.5905658694458
 20
569.6533735331516
 10
1720.1972735880966
 20
556.7779932443227
 10
1718.0460166482817
 20
538.581944961723
 10
1705.1352679218112
 20
538.581944961723
 10
1692.2781250646683
 20
528.2248021045802
 10
1683.7110444875345
 20
528.2248021045802
 10
1664.4857142857143
 20
510.1565519612027
 10
1664.4857142857143
 20
489.50370305821326
 10
1675.164480445478
 20
461.1159830168416
 10
1705.0465420576231
 20
466.2741960332238
 10
1709.3386692496815
 20
471.4605163902946
 10
1730.767240678253
 20
471.4605163902946
 10
1739.3386692496817
 20
481.8176592474374
 10
1747.9218749353313
 20
481.8176592474374
 10
1760.8284055671807
 20
492.21458670087156
 10
1765.1
 20
487.05307676121487
 10
1775.7276430975394
 20
499.89481217074143
 10
1784.3058768845183
 20
520.6255438226071
 10
1792.8791248532273
 20
525.805214470369
 10
1803.6073424847202
 20
549.1390878188658
 10
1838.0357218275226
 20
549.1390878188658
 10
1848.7823722703324
 20
504.9882655829899
 10
1829.4370972046845
 20
486.80728947962655
 10
1812.317139449357
 20
481.63563557437146
 10
1808.0355740655552
 20
471.28851923018374
 10
1793.057142857143
 20
463.53183164011284
 10
1793.057142857143
 20
453.25370305821326
 10
1803.740652396351
 20
424.85337353315174
 10
1872.1482223001221
 20
424.85337353315174
 10
1874.2866585366799
 20
463.61253032075683
 10
1880.7610322076027
 20
481.86666719849853
 10
1923.737655541524
 20
455.9016239342544
 10
1932.2532095096096
 20
445.6119962228175
 10
1949.3471430934267
 20
461.10337353315174
 10
1957.9100978211102
 20
461.10337353315174
 10
1962.21241894642
 20
466.3020115595677
 10
1968.7741246405171
 20
463.65910232166743
 10
1966.6251839825295
 20
409.1297331252391
 10
1927.9154706228503
 20
403.9325956834302
 10
1923.624383535396
 20
409.1176592474374
 10
1906.4815263925386
 20
409.1176592474374
 10
1902.1958121068246
 20
414.2962306760089
 10
1880.8613307503183
 20
414.2962306760089
 10
1874.4776533050479
 20
406.5826204296406
 10
1865.9062247336194
 20
370.3326204296406
 10
1855.1372188834525
 20
357.32007169402243
 10
1833.6156002462494
 20
362.52112953134656
 10
1829.3386692496815
 20
367.689087818866
 10
1808.0041878931754
 20
367.689087818866
 10
1801.6285714285714
 20
359.9852179241361
 10
1801.6285714285714
 20
349.6280750669933
 10
1793.057142857143
 20
339.27093220985046
 10
1793.057142857143
 20
328.977148442855
 10
1803.7469425145366
 20
310.89357068909726
 10
1825.1324361286486
 20
295.389087818866
 10
1833.6208485374852
 20
295.389087818866
 10
1867.9525040326002
 20
342.05868200753736
 10
1872.2949474357226
 20
336.81156289543065
 10
1910.893106512569
 20
331.62940264900226
 10
1917.3563642830563
 20
308.2000932309846
 10
1889.4439928315826
 20
284.85032095907854
 10
1872.270720244827
 20
274.47480210458025
 10
1859.3578511837443
 20
274.47480210458025
 10
1842.2149940408874
 20
284.8319449617232
 10
1833.7184736074607
 20
284.8319449617232
 10
1818.7528051368724
 20
266.7484288930952
 10
1805.9068516286925
 20
246.0521704632496
 10
1801.6143776409208
 20
230.49195225757745
 10
1793.0429490694924
 20
225.31338082900604
 10
1790.8755758659638
 20
217.45665296621553
 10
1773.6435654694587
 20
227.86765924743736
 10
1756.5756164646039
 20
227.86765924743736
 10
1748.0041878931754
 20
217.5105163902945
 10
1739.4209822075254
 20
217.5105163902945
 10
1726.568543345203
 20
207.1571628623125
 10
1679.3360041015594
 20
201.96873999085167
 10
1662.1891334213371
 20
227.86765924743736
 10
1632.1958121068244
 20
227.86765924743736
 10
1627.9509434386455
 20
232.99687555482035
 10
1600.1999999999998
 20
204.62331479543582
 10
1600.1999999999998
 20
178.80724342788145
 10
1604.506161935279
 20
173.6039644227526
 10
1595.9142857142856
 20
158.0311887722021
 10
1595.9142857142856
 20
147.72990564229238
 10
1613.0523133744264
 20
121.84434303062167
 10
1615.2179122666184
 20
108.76051639029457
 10
1606.5756164646039
 20
108.76051639029457
 10
1598.0041878931752
 20
98.4033735331517
 10
1589.4327593217465
 20
98.4033735331517
 10
1585.1470450360325
 20
93.22480210458028
 10
1567.9247067284941
 20
93.22480210458028
 10
1557.1557798909114
 20
101.03227406182751
 10
1555.015658723596
 20
108.79021329334611
 10
1533.6943414198602
 20
119.09551665681843
 10
1495.1333454620083
 20
77.67815062801444
 10
1484.3298859605352
 20
80.28898667420374
 10
1477.8940007357694
 20
88.0656813207956
 10
1456.45074149759
 20
98.42992328591578
 10
1452.161267160293
 20
108.79615293438317
  0
LWPOLYLINE
  5
37
330
17
100
AcDbEntity
  8
M
100
AcDbPolyline
 90
23
 70
1
 10
1726.4961352999226
 20
341.99623067600885
 10
1737.161267160293
 20
349.7284512747773
 10
1749.9999999999998
 20
380.75538897073585
 10
1749.9999999999998
 20
401.4137893527076
 10
1743.624383535396
 20
409.1176592474374
 10
1735.0529549639673
 20
409.1176592474374
 10
1730.767240678253
 20
414.2962306760089
 10
1687.9361420942087
 20
414.2962306760089
 10
1640.7932849513516
 20
435.0105163902946
 10
1619.3386692496815
 20
435.0105163902946
 10
1615.0938005815026
 20
440.1397326976775
 10
1587.3772783524755
 20
411.8013654186403
 10
1591.6285714285714
 20
406.66438628502436
 10
1591.6285714285714
 20
391.1098680576184
 10
1598.0277784942512
 20
373.0676592474374
 10
1628.0041878931752
 20
373.0676592474374
 10
1632.2899021788896
 20
367.889087818866
 10
1645.0529549639675
 20
367.889087818866
 10
1662.242857142857
 20
388.66021961835764
 10
1670.8805126843808
 20
378.22305250568303
 10
1696.5947983986666
 20
362.68733821996875
 10
1713.7184736074612
 20
341.99623067600885
 10
1726.4961352999226
 20
341.99623067600885
  0
LWPOLYLINE
  5
38
330
17
100
AcDbEntity
  8
M
100
AcDbPolyline
 90
15
 70
1
 10
1792.857142857143
 20
178.75135809556747
 10
1792.857142857143
 20
215.1176360745569
 10
1863.717036100671
 20
217.71225337766586
 10
1868.0041878931754
 20
212.53194496172313
 10
1902.2899021788896
 20
212.53194496172313
 10
1904.5061619352787
 20
209.85396442275263
 10
1895.8988790629141
 20
194.25326421659116
 10
1865.9142857142858
 20
152.84596863991385
 10
1865.9142857142858
 20
147.6554719615697
 10
1848.7601035437142
 20
132.1094943694893
 10
1846.6164007717077
 20
124.33857182096482
 10
1833.645205253196
 20
113.88955320883083
 10
1810.0272591081084
 20
152.80548719789616
 10
1801.4487340273752
 20
157.98834610083895
 10
1792.857142857143
 20
178.75135809556747
  0
LWPOLYLINE
  5
39
330
17
100
AcDbEntity
  8
M
100
AcDbPolyline
 90
19
 70
1
 10
1649.2944878008398
 20
77.68908781886599
 10
1647.1328385387285
 20
101.19702354432671
 10
1713.701078909049
 20
98.60229374494592
 10
1722.2207814861588
 20
93.45497343794227
 10
1726.4815263925389
 20
98.60337353315167
 10
1756.50567202055
 20
98.60337353315167
 10
1777.9342434491216
 20
108.96051639029454
 10
1807.9100978211102
 20
108.96051639029454
 10
1812.2011849085645
 20
114.14557995430171
 10
1831.8234299945068
 20
111.51111186405947
 10
1823.0429490694921
 20
106.20623797186317
 10
1820.900692189394
 20
98.44055678150708
 10
1773.7014190835148
 20
67.33194496172314
 10
1760.8613307503183
 20
67.33194496172314
 10
1756.5739788824064
 20
62.151394787996374
 10
1694.3699953028754
 20
64.74322743714346
 10
1666.471517282828
 20
72.52261073119521
 10
1662.1958121068246
 20
77.68908781886599
 10
1649.2944878008398
 20
77.68908781886599
  0
LWPOLYLINE
  5
3A
330
17
100
AcDbEntity
  8
M
100
AcDbPolyline
 90
137
 70
1
 10
3122.8810018677536
 20
230.47246699662594
 10
3116.457935791463
 20
248.5819449617232
 10
3107.910097821111
 20
248.5819449617232
 10
3103.624383535396
 20
253.76051639029455
 10
3082.195812106825
 20
253.76051639029455
 10
3075.714285714286
 20
261.59236078127896
 10
3075.714285714286
 20
277.1839603993073
 10
3092.841726213746
 20
318.5752749396695
 10
3084.2857142857147
 20
328.9137893527076
 10
3084.2857142857147
 20
339.34295771359575
 10
3088.571428571429
 20
344.5215291421671
 10
3088.571428571429
 20
375.5090902469306
 10
3062.857142857143
 20
396.22337596121633
 10
3062.857142857143
 20
411.78348393496196
 10
3056.466576987697
 20
424.65337353315175
 10
3026.5836286470058
 20
424.65337353315175
 10
2998.7994647059136
 20
380.750832433926
 10
3020.193261537705
 20
360.07016216319414
 10
3024.4799640496344
 20
334.1713344869542
 10
3028.801232228151
 20
328.94980210458033
 10
3024.4857142857145
 20
323.7352179241361
 10
3024.4857142857145
 20
313.4501005707386
 10
3028.7656783353486
 20
308.27847734409715
 10
3033.059828813818
 20
282.33465153667754
 10
3024.4747398230074
 20
256.40052854360334
 10
3017.985466718443
 20
248.55932354225524
 10
2983.64982930011
 20
264.1176592474374
 10
2970.8495536360974
 20
264.1176592474374
 10
2957.943023004248
 20
253.72073179400329
 10
2940.7534093214117
 20
274.49151499409714
 10
2927.903220568905
 20
279.66728546385684
 10
2910.8246380810388
 20
295.14475084348595
 10
2898.0041878931756
 20
279.65337353315175
 10
2859.312600901017
 20
279.65337353315175
 10
2848.5595793831994
 20
313.43578280162825
 10
2863.61362667859
 20
331.6260899502256
 10
2880.8489668499888
 20
336.83259896033553
 10
2885.1470450360325
 20
331.639087818866
 10
2906.5564345305415
 20
331.639087818866
 10
2932.2707202448273
 20
316.1033735331517
 10
2966.4407884407547
 20
316.1033735331517
 10
2972.846348182637
 20
365.12369878005296
 10
2962.28007602631
 20
367.6772145511654
 10
2958.0098358275754
 20
362.51734097769446
 10
2923.630445149981
 20
357.324620510766
 10
2917.1428571428573
 20
365.1637893527076
 10
2917.1428571428573
 20
375.53348393496185
 10
2910.749515934717
 20
388.40896275691154
 10
2855.0158798449083
 20
393.58933277807967
 10
2848.578020097094
 20
427.2986817353857
 10
2842.187028817678
 20
435.02112953134656
 10
2820.7584573891068
 20
440.19970095991795
 10
2816.481526392539
 20
445.3676592474374
 10
2803.7018807939094
 20
445.3676592474374
 10
2784.5094145100547
 20
432.48382771429425
 10
2797.3396426225017
 20
401.4774431092139
 10
2801.6228211924918
 20
375.59990591552565
 10
2810.2
 20
365.2358148564529
 10
2810.2
 20
354.80664649556473
 10
2801.6346724900923
 20
344.4568757544261
 10
2805.9203867758065
 20
318.56401861156905
 10
2801.6228211924918
 20
313.37112686506333
 10
2795.1745659164962
 20
274.41291790592385
 10
2786.500708326602
 20
279.65337353315175
 10
2739.432759321747
 20
279.65337353315175
 10
2735.1470450360325
 20
274.47480210458025
 10
2717.9100978211104
 20
274.47480210458025
 10
2713.624383535396
 20
279.65337353315175
 10
2700.7450618893636
 20
279.65337353315175
 10
2690.0
 20
308.21732972237606
 10
2690.0
 20
318.62867199931003
 10
2702.8571428571427
 20
334.16438628502425
 10
2702.8571428571427
 20
359.9562867576486
 10
2662.212282270334
 20
378.05038039607456
 10
2636.487494237362
 20
383.23106687493697
 10
2625.714285714286
 20
391.0416430541671
 10
2625.714285714286
 20
401.47168934317097
 10
2647.157469742804
 20
448.11061460519846
 10
2675.031041602892
 20
481.79118060280416
 10
2696.485873175322
 20
497.3459334928158
 10
2717.911865202889
 20
502.52388156614467
 10
2730.7790177924744
 20
512.8890878188658
 10
2747.9100978211104
 20
512.8890878188658
 10
2752.1958121068246
 20
518.0676592474374
 10
2795.1470450360325
 20
518.0676592474374
 10
2799.432759321747
 20
512.8890878188658
 10
2816.5529281875433
 20
512.8890878188658
 10
2846.5638174571277
 20
497.3477344471168
 10
2867.864908723312
 20
492.19997072445557
 10
2870.0022643411316
 20
525.7742652210343
 10
2876.481526392539
 20
533.6033735331516
 10
2897.934243449122
 20
533.6033735331516
 10
2919.3628148776934
 20
543.9605163902944
 10
2932.2800441478025
 20
543.9605163902944
 10
2947.4728361254465
 20
530.8476899810184
 10
2913.0571428571434
 20
525.6494863102853
 10
2913.0571428571434
 20
494.7001005707387
 10
2917.342857142857
 20
489.52152914216725
 10
2917.342857142857
 20
479.2070855706846
 10
2928.012971182322
 20
476.6284746778139
 10
2936.584399753751
 20
466.2713318206711
 10
2958.023430911459
 20
461.09023262422494
 10
2966.587609326238
 20
445.5676592474374
 10
3005.0454425633134
 20
445.5676592474374
 10
3020.0
 20
468.8006324080041
 10
3020.0
 20
479.1541297226726
 10
3028.5132665181677
 20
494.5844252868518
 10
3009.402182739521
 20
497.15026523861445
 10
2987.9800422651642
 20
486.7962306760088
 10
2975.038005559126
 20
486.7962306760088
 10
2968.571428571429
 20
499.8191982206762
 10
2968.571428571429
 20
510.28401913041967
 10
2983.617970629052
 20
512.8813388903666
 10
2987.9100978211104
 20
518.0676592474374
 10
3030.8613307503183
 20
518.0676592474374
 10
3035.147045036033
 20
512.8890878188658
 10
3047.989578985792
 20
512.8890878188658
 10
3058.7714285714287
 20
505.07224686927907
 10
3058.7714285714287
 20
494.7001005707387
 10
3063.057142857143
 20
489.52152914216725
 10
3063.057142857143
 20
453.25897741705575
 10
3069.4477087265886
 20
440.38908781886596
 10
3078.0041878931756
 20
440.38908781886596
 10
3082.2899021788903
 20
435.2105163902946
 10
3133.7110444875348
 20
435.2105163902946
 10
3153.050276683792
 20
417.0352194651082
 10
3157.337106906777
 20
391.13562020124
 10
3161.6285714285714
 20
385.9501005707386
 10
3161.6285714285714
 20
359.9648133852354
 10
3135.8941231154818
 20
344.41691752941045
 10
3123.1067453042224
 20
313.51408781886596
 10
3161.637189155747
 20
313.51408781886596
 10
3157.3412286900566
 20
261.60456552510817
 10
3144.4857142857145
 20
230.53707238128175
 10
3144.4857142857145
 20
220.00378591130993
 10
3133.628730318179
 20
227.8750992877731
 10
3122.8810018677536
 20
230.47246699662594
  0
LWPOLYLINE
  5
3B
330
17
100
AcDbEntity
  8
M
100
AcDbPolyline
 90
8
 70
1
 10
3056.5458110278487
 20
212.56795986446932
 10
3060.870114039465
 20
207.34276039209965
 10
3082.3189981322466
 20
202.15928006967738
 10
3088.7612563155085
 20
183.99569102520223
 10
3110.298429032436
 20
152.76679058565773
 10
3019.9357406014697
 20
157.9662309914077
 10
3045.7375133039404
 20
204.73194401463584
 10
3056.5458110278487
 20
212.56795986446932
  0
LWPOLYLINE
  5
3C
330
17
100
AcDbEntity
  8
M
100
AcDbPolyline
 90
17
 70
1
 10
2910.84714827775
 20
98.38623637879836
 10
2880.7693528814984
 20
108.77023717036137
 10
2861.4285714285716
 20
121.75363212718739
 10
2861.4285714285716
 20
147.74305224795782
 10
2880.7821465503634
 20
165.9318288670492
 10
2910.878636275079
 20
160.73660147409237
 10
2919.4603395812296
 20
145.18226423169412
 10
2927.978724853052
 20
140.03573979663508
 10
2966.4875865186714
 20
145.20591103877845
 10
2992.2285782324166
 20
165.94170991929553
 10
3020.1969435163574
 20
152.94359143797698
 10
3022.3472649682694
 20
108.77240494661854
 10
2979.4190382199076
 20
103.58524421452485
 10
2962.256507722299
 20
93.21621537221942
 10
2945.0549483977557
 20
98.41251975150843
 10
2923.6886681707056
 20
113.90307291611977
 10
2910.84714827775
 20
98.38623637879836
  0
LWPOLYLINE
  5
3D
330
17
100
AcDbEntity
  8
M
100
AcDbPolyline
 90
12
 70
1
 10
2732.8371234211513
 20
142.5497383992132
 10
2762.8523046611153
 20
168.4556983979914
 10
2758.5660228127363
 20
209.88975626565582
 10
2790.809258326827
 20
233.26610201337172
 10
2825.1662269700955
 20
212.5087667913973
 10
2827.3582737862544
 20
209.86004355520538
 10
2810.1866426167467
 20
168.36193489556194
 10
2801.625639761276
 20
158.01738977853492
 10
2797.335554502253
 20
106.17885956534721
 10
2737.142857142857
 20
100.98365651944695
 10
2737.142857142857
 20
132.1442152384247
 10
2732.8371234211513
 20
142.5497383992132
  0
LWPOLYLINE
  5
3E
330
17
100
AcDbEntity
  8
M
100
AcDbPolyline
 90
6
 70
1
 10
2705.204450533275
 20
207.35337353315165
 10
2703.054403383457
 20
157.99187438524325
 10
2675.0548777557156
 20
144.97927433388895
 10
2647.108460355136
 20
199.528531375406
 10
2662.218500383886
 20
207.35337353315165
 10
2705.204450533275
 20
207.35337353315165
  0
LWPOLYLINE
  5
3F
330
17
100
AcDbEntity
  8
M
100
AcDbPolyline
 90
9
 70
1
 10
4105.745461910324
 20
473.8697160346741
 10
4084.2857142857147
 20
510.17245576630546
 10
4084.2857142857147
 20
525.7847679142177
 10
4107.923140875291
 20
543.9605163902944
 10
4125.147045036033
 20
543.9605163902944
 10
4135.9009283310315
 20
530.9662407421699
 10
4148.792883326949
 20
499.8106828353714
 10
4112.259006001122
 20
471.2462052203252
 10
4105.745461910324
 20
473.8697160346741
  0
LWPOLYLINE
  5
40
330
17
100
AcDbEntity
  8
M
100
AcDbPolyline
 90
7
 70
1
 10
4086.591713549945
 20
31.26249431693627
 10
4093.060502921271
 20
23.446040493250457
 10
4090.904545174765
 20
0.0
 10
4043.6202266272544
 20
5.194110749537156
 10
4037.108435933239
 20
13.062524504806092
 10
4065.0787825615566
 20
41.66041096132374
 10
4086.591713549945
 20
31.26249431693627
  0
LWPOLYLINE
  5
41
330
17
100
AcDbEntity
  8
M
100
AcDbPolyline
 90
15
 70
1
 10
3949.3857142857146
 20
201.9179560193743
 10
3945.154460170041
 20
196.80519062960238
 10
3919.346814164256
 20
191.6078174756597
 10
3912.860790632835
 20
199.44509590946018
 10
3908.5750763471206
 20
240.87366733803157
 10
3904.1801680032195
 20
246.18418158691242
 10
3966.6038314620255
 20
248.7851675643627
 10
3973.044220109088
 20
225.4387587187615
 10
3983.7038647000772
 20
217.7105163902945
 10
3992.2999091654824
 20
217.7105163902945
 10
4003.057142857143
 20
199.51286272856933
 10
4003.057142857143
 20
173.54687284435948
 10
3987.9763305306765
 20
160.53069553877825
 10
3981.467695035697
 20
163.15222927981148
 10
3949.3857142857146
 20
201.9179560193743
  0
LWPOLYLINE
  5
42
330
17
100
AcDbEntity
  8
M
100
AcDbPolyline
 90
28
 70
1
 10
4204.266393089942
 20
256.4229817952384
 10
4208.571428571428
 20
266.82681754216446
 10
4208.571428571428
 20
292.7358148564529
 10
4219.3386692496815
 20
305.74623067600885
 10
4236.575616464604
 20
305.74623067600885
 10
4247.33226324547
 20
292.7486158157955
 10
4258.03025624184
 20
259.139087818866
 10
4305.029364362891
 20
259.139087818866
 10
4311.429856004336
 20
277.1849184190503
 10
4313.57557917978
 20
305.70515562599473
 10
4330.786422612316
 20
316.1033735331517
 10
4339.350446363903
 20
316.1033735331517
 10
4352.200307314542
 20
326.4546504100559
 10
4367.325072171858
 20
329.0654729151877
 10
4371.622821192491
 20
303.09990591552565
 10
4375.915865972699
 20
297.9124768061084
 10
4373.767926695137
 20
248.5993708920971
 10
4347.943910735596
 20
243.3987010113559
 10
4326.50567202055
 20
253.76051639029455
 10
4313.738272397818
 20
253.76051639029455
 10
4296.58634655585
 20
212.31002893887003
 10
4262.294838248103
 20
222.66892207350188
 10
4249.441166562328
 20
196.78305548409548
 10
4223.6303513802195
 20
201.98106687493694
 10
4212.848388748163
 20
209.79798978317666
 10
4217.148607378937
 20
235.77847734409713
 10
4221.39057675907
 20
240.90419034509102
 10
4204.266393089942
 20
256.4229817952384
  0
LWPOLYLINE
  5
43
330
17
100
AcDbEntity
  8
M
100
AcDbPolyline
 90
22
 70
1
 10
5737.904449886711
 20
305.55305526340874
 10
5727.129643513658
 20
318.5726129641809
 10
5740.011671412084
 20
354.8927749555788
 10
5748.571428571429
 20
365.23581485645303
 10
5748.571428571429
 20
391.0566464955647
 10
5744.285714285715
 20
396.235217924136
 10
5744.285714285715
 20
406.670791173452
 10
5765.73507371708
 20
427.4051719571051
 10
5776.45974762461
 20
445.5477453173436
 10
5782.87389799174
 20
448.1312225485487
 10
5785.016755134598
 20
455.8990796914058
 10
5791.445326563169
 20
458.4883654056915
 10
5793.595279544143
 20
466.28194496172307
 10
5802.307774494568
 20
466.28194496172307
 10
5817.342857142857
 20
432.54250354264497
 10
5817.342857142857
 20
354.8141476011499
 10
5804.478280200121
 20
334.08788474896386
 10
5800.188324659268
 20
318.53679591337044
 10
5785.137187004945
 20
305.5462306760089
 10
5776.575616464604
 20
305.5462306760089
 10
5772.283840564305
 20
300.36033479648034
 10
5737.904449886711
 20
305.55305526340874
  0
LWPOLYLINE
  5
44
330
17
100
AcDbEntity
  8
M
100
AcDbPolyline
 90
17
 70
1
 10
5598.63559494033
 20
567.0616069040387
 10
5581.428571428572
 20
582.6554719615697
 10
5581.428571428572
 20
593.1012751047335
 10
5598.571428571428
 20
608.6369893904479
 10
5598.571428571428
 20
618.9819563990635
 10
5626.477233175977
 20
657.8890878188658
 10
5639.420982207525
 20
657.8890878188658
 10
5652.2781250646685
 20
647.5319449617231
 10
5665.134452799793
 20
647.5319449617231
 10
5701.628571428571
 20
618.9985531906926
 10
5701.628571428571
 20
608.6286719993101
 10
5705.929702357683
 20
603.4314721266338
 10
5701.61274210696
 20
592.9988181873861
 10
5682.282473058964
 20
574.831944961723
 10
5643.718473607461
 20
574.831944961723
 10
5639.435196456202
 20
569.6563184039518
 10
5598.63559494033
 20
567.0616069040387
  0
LWPOLYLINE
  5
45
330
17
100
AcDbEntity
  8
M
100
AcDbPolyline
 90
32
 70
1
 10
5645.780799471528
 20
390.99696068016937
 10
5622.177986800699
 20
403.96062673043537
 10
5613.624383535396
 20
414.2962306760089
 10
5600.7474418878965
 20
414.2962306760089
 10
5596.461727602182
 20
424.65337353315175
 10
5553.648529163407
 20
424.65337353315175
 10
5532.219957734836
 20
435.0105163902946
 10
5519.309565258428
 20
435.0105163902946
 10
5517.13260480304
 20
442.9019980410782
 10
5521.428571428572
 20
448.09295771359587
 10
5521.428571428572
 20
484.34295771359587
 10
5525.714285714286
 20
489.52152914216725
 10
5525.714285714286
 20
505.10215533927817
 10
5562.187990295197
 20
512.8796364631489
 10
5566.481526392539
 20
518.0676592474374
 10
5596.585623451197
 20
518.0676592474374
 10
5607.358011253049
 20
499.8443698826383
 10
5598.771428571428
 20
484.2811887722022
 10
5598.771428571428
 20
463.5669030579164
 10
5590.204325873784
 20
448.0390294184346
 10
5592.3276659612
 20
435.2105163902946
 10
5630.767240678253
 20
435.2105163902946
 10
5635.052954963968
 20
440.38908781886596
 10
5656.481526392538
 20
440.38908781886596
 10
5660.767240678253
 20
445.5676592474374
 10
5682.331730933996
 20
445.5676592474374
 10
5684.48851711427
 20
427.3248428059603
 10
5678.035763848644
 20
414.32971470157713
 10
5667.342857142858
 20
406.57735733988136
 10
5667.342857142858
 20
396.2352179241361
 10
5660.854379171068
 20
388.39497370822477
 10
5645.780799471528
 20
390.99696068016937
  0
LWPOLYLINE
  5
46
330
17
100
AcDbEntity
  8
M
100
AcDbPolyline
 90
9
 70
1
 10
5388.571428571428
 20
437.5998021045803
 10
5388.571428571428
 20
536.1849276270882
 10
5420.833339311928
 20
538.783803770073
 10
5442.30599926423
 20
528.4053514597933
 10
5448.771428571429
 20
520.5929577135958
 10
5448.771428571429
 20
494.6280750669933
 10
5444.4857142857145
 20
489.44950363842185
 10
5444.4857142857145
 20
437.5998021045803
 10
5388.571428571428
 20
437.5998021045803
  0
LWPOLYLINE
  5
47
330
17
100
AcDbEntity
  8
M
100
AcDbPolyline
 90
7
 70
1
 10
5371.428571428572
 20
473.8498021045803
 10
5371.428571428572
 20
504.98521792413607
 10
5367.142857142858
 20
510.16378935270745
 10
5367.142857142858
 20
520.5929577135958
 10
5373.7610570451725
 20
528.5899492622264
 10
5375.918304223798
 20
473.8498021045803
 10
5371.428571428572
 20
473.8498021045803
  0
LWPOLYLINE
  5
48
330
17
100
AcDbEntity
  8
M
100
AcDbPolyline
 90
18
 70
1
 10
5230.0403157832325
 20
644.7253568575188
 10
5221.413154785175
 20
665.574329269491
 10
5225.714285714286
 20
670.7715291421672
 10
5225.714285714286
 20
691.4858148564529
 10
5229.992344963028
 20
696.6551364486833
 10
5225.706630677314
 20
717.369422162969
 10
5230.0
 20
722.5572434278814
 10
5230.0
 20
743.3142284278275
 10
5240.851504597739
 20
745.9366753722808
 10
5245.147045036033
 20
740.7462306760087
 10
5266.5856234511975
 20
740.7462306760087
 10
5277.342857142857
 20
722.5485770142834
 10
5277.342857142857
 20
712.1839603993072
 10
5285.931592659585
 20
691.4278495672173
 10
5253.714207435694
 20
657.6890878188659
 10
5245.16684382639
 20
657.6890878188659
 10
5240.887233090335
 20
647.3466952067355
 10
5230.0403157832325
 20
644.7253568575188
  0
LWPOLYLINE
  5
49
330
17
100
AcDbEntity
  8
M
100
AcDbPolyline
 90
15
 70
1
 10
5088.577129226727
 20
732.7856459340461
 10
5086.436337294741
 20
766.4139191989906
 10
5075.907314803829
 20
763.8694054303535
 10
5073.762655056303
 20
740.5462306760088
 10
5065.052954963967
 20
740.5462306760088
 10
5056.464510184744
 20
750.9239347842382
 10
5041.401071161747
 20
758.7246442782899
 10
5045.714285714286
 20
769.1482461135929
 10
5045.714285714286
 20
805.4143862850243
 10
5050.002669487274
 20
810.5961833440518
 10
5052.150357897819
 20
839.1425418008813
 10
5123.04909763032
 20
836.546502088454
 10
5131.633107885594
 20
738.0092176997937
 10
5120.843076103607
 20
730.1864446578531
 10
5088.577129226727
 20
732.7856459340461
  0
LWPOLYLINE
  5
4A
330
17
100
AcDbEntity
  8
M
100
AcDbPolyline
 90
11
 70
1
 10
4945.077100591979
 20
756.081944961723
 10
4927.929279755173
 20
756.081944961723
 10
4910.728479501937
 20
766.4740951147202
 10
4908.557921431229
 20
774.3423681210331
 10
4936.482347109679
 20
797.7022242174284
 10
4957.901314531964
 20
802.8784746778139
 10
4962.195812106825
 20
808.0676592474373
 10
4979.499631574801
 20
808.0676592474373
 10
4973.054136040296
 20
758.7417142542081
 10
4966.574134801917
 20
745.6917117602525
 10
4945.077100591979
 20
756.081944961723
  0
LWPOLYLINE
  5
4B
330
17
100
AcDbEntity
  8
M
100
AcDbPolyline
 90
4
 70
1
 10
5393.086946513865
 20
541.2712306760088
 10
5390.714285714286
 20
538.4042655431838
 10
5390.714285714286
 20
544.1381958088338
 10
5393.086946513865
 20
541.2712306760088
  0
LWPOLYLINE
  5
4C
330
17
100
AcDbEntity
  8
M
100
AcDbPolyline
 90
24
 70
1
 10
6680.000000000001
 20
354.77513025649114
 10
6680.000000000001
 20
396.30724342788153
 10
6684.285714285714
 20
401.48581485645303
 10
6684.285714285714
 20
422.13833162934503
 10
6675.703496645527
 20
437.6936011021861
 10
6688.571428571428
 20
468.7911032564502
 10
6688.571428571428
 20
479.16438628502436
 10
6695.062781116548
 20
487.00810394370944
 10
6716.584399753751
 20
481.8070461063854
 10
6725.147045036033
 20
471.4605163902946
 10
6733.703864700078
 20
471.4605163902946
 10
6744.508278351618
 20
463.62731649292806
 10
6735.914285714286
 20
442.85850095271036
 10
6735.914285714286
 20
427.3786719993101
 10
6753.057142857143
 20
406.66438628502436
 10
6753.057142857143
 20
396.2352179241361
 10
6748.771428571428
 20
391.0566464955648
 10
6748.771428571428
 20
359.9977696492475
 10
6742.296933049412
 20
346.9588550562967
 10
6720.741338338236
 20
352.16812377816416
 10
6716.461727602182
 20
362.5105163902946
 10
6699.420982207526
 20
362.5105163902946
 10
6686.54562260233
 20
352.138698930553
 10
6680.000000000001
 20
354.77513025649114
  0
LWPOLYLINE
  5
4D
330
17
100
AcDbEntity
  8
M
100
AcDbPolyline
 90
11
 70
1
 10
6673.727256896608
 20
606.0927603920995
 10
6695.14269825325
 20
600.9173620642443
 10
6705.919079181207
 20
593.1044858914759
 10
6703.766382314122
 20
569.6939074619214
 10
6669.413577387685
 20
548.9390878188659
 10
6660.852856906574
 20
548.9390878188659
 10
6643.717059432968
 20
533.409771358411
 10
6628.5687372694665
 20
530.7948824135209
 10
6630.717252877071
 20
626.8514343701673
 10
6665.157801892839
 20
616.447518521654
 10
6673.727256896608
 20
606.0927603920995
  0
LWPOLYLINE
  5
4E
330
17
100
AcDbEntity
  8
M
100
AcDbPolyline
 90
5
 70
1
 10
6628.571428571429
 20
437.5998021045803
 10
6628.571428571429
 20
468.80724342788153
 10
6630.898059136173
 20
471.61858869361447
 10
6633.063711332823
 20
437.5998021045803
 10
6628.571428571429
 20
437.5998021045803
  0
LWPOLYLINE
  5
4F
330
17
100
AcDbEntity
  8
M
100
AcDbPolyline
 90
7
 70
1
 10
6607.142857142858
 20
608.6161202741986
 10
6613.760663932351
 20
621.9436478363731
 10
6615.920023353215
 20
541.0576428631905
 10
6602.857142857143
 20
551.5805188183591
 10
6602.857142857143
 20
572.37867199931
 10
6607.142857142858
 20
577.5572434278815
 10
6607.142857142858
 20
608.6161202741986
  0
LWPOLYLINE
  5
50
330
17
100
AcDbEntity
  8
M
100
AcDbPolyline
 90
6
 70
1
 10
6615.917650836025
 20
427.24265924743736
 10
6581.513796962956
 20
427.24265924743736
 10
6564.271188192172
 20
432.4513639802785
 10
6572.869647305076
 20
479.2054854066901
 10
6613.767003620465
 20
492.2101272175045
 10
6615.917650836025
 20
427.24265924743736
  0
LWPOLYLINE
  5
51
330
17
100
AcDbEntity
  8
M
100
AcDbPolyline
 90
13
 70
1
 10
6495.714285714285
 20
665.5209322098503
 10
6491.425211364443
 20
670.70356371591
 10
6493.580202086554
 20
694.139087818866
 10
6545.154557436687
 20
694.139087818866
 10
6560.2
 20
670.7649181222898
 10
6560.2
 20
660.4041297226726
 10
6577.378814738675
 20
629.2675280088246
 10
6553.697083240109
 20
616.2605163902945
 10
6545.147045036033
 20
616.2605163902945
 10
6536.563252564274
 20
605.8884338202533
 10
6502.185055250019
 20
616.2735142589348
 10
6495.714285714285
 20
624.0923607812789
 10
6495.714285714285
 20
665.5209322098503
  0
LWPOLYLINE
  5
52
330
17
100
AcDbEntity
  8
M
100
AcDbPolyline
 90
8
 70
1
 10
6339.3286622630885
 20
694.139087818866
 10
6343.762655056304
 20
694.139087818866
 10
6345.917645778414
 20
670.70356371591
 10
6341.628571428572
 20
665.5209322098503
 10
6341.628571428572
 20
624.0773573398814
 10
6330.721096386692
 20
616.1694379345183
 10
6328.570440051696
 20
675.93976191126
 10
6339.3286622630885
 20
694.139087818866
  0
LWPOLYLINE
  5
53
330
17
100
AcDbEntity
  8
M
100
AcDbPolyline
 90
12
 70
1
 10
6296.559009625009
 20
621.4190212210214
 10
6292.28990217889
 20
616.2605163902945
 10
6279.296840494576
 20
616.2605163902945
 10
6277.140939551139
 20
634.4958452035283
 10
6285.725260176993
 20
660.4276470941288
 10
6292.195812106825
 20
668.2462306760087
 10
6313.7678950848385
 20
668.2462306760087
 10
6315.915589551196
 20
608.5582219651635
 10
6305.130438196437
 20
595.5261640781641
 10
6298.55657681998
 20
598.1739693547927
 10
6302.842291105695
 20
618.8882550690784
 10
6296.559009625009
 20
621.4190212210214
  0
LWPOLYLINE
  5
54
330
17
100
AcDbEntity
  8
M
100
AcDbPolyline
 90
10
 70
1
 10
8089.337282750847
 20
259.15367081065824
 10
8110.850738288793
 20
253.95458572232138
 10
8134.4857142857145
 20
240.9732542088611
 10
8134.4857142857145
 20
209.81919822067613
 10
8121.590565869445
 20
183.84980210458025
 10
8117.190802898762
 20
183.84980210458025
 10
8093.596660489743
 20
217.5429524386711
 10
8078.5714285714275
 20
230.51115855864518
 10
8078.5714285714275
 20
240.9414341571407
 10
8089.337282750847
 20
259.15367081065824
  0
LWPOLYLINE
  5
55
330
17
100
AcDbEntity
  8
M
100
AcDbPolyline
 90
11
 70
1
 10
8059.3386692496815
 20
357.53194496172307
 10
8063.624383535396
 20
362.7105163902946
 10
8085.072136898029
 20
362.7105163902946
 10
8093.764681590377
 20
367.96226214192114
 10
8095.915714520459
 20
313.3798015411188
 10
8089.428754163259
 20
305.5413911095048
 10
8037.9202850987585
 20
310.7280077861387
 10
8027.142857142858
 20
318.541643054167
 10
8027.142857142858
 20
349.7151040121363
 10
8037.924706728495
 20
357.53194496172307
 10
8059.3386692496815
 20
357.53194496172307
  0
LWPOLYLINE
  5
56
330
17
100
AcDbEntity
  8
M
100
AcDbPolyline
 90
13
 70
1
 10
7875.147045036032
 20
388.40337353315175
 10
7870.730512292399
 20
383.0667298012604
 10
7868.5635808060415
 20
417.1056118994449
 10
7883.653599351096
 20
414.50078726964387
 10
7939.467482502302
 20
445.6277605655088
 10
7941.630940476585
 20
427.3285118663644
 10
7937.358273786253
 20
417.0029006980625
 10
7941.628571428571
 20
411.84295771359587
 10
7941.628571428571
 20
401.4279148659897
 10
7930.8720959151715
 20
378.0325806243462
 10
7905.045539829958
 20
383.2337620581739
 10
7900.767240678252
 20
388.40337353315175
 10
7875.147045036032
 20
388.40337353315175
  0
LWPOLYLINE
  5
57
330
17
100
AcDbEntity
  8
M
100
AcDbPolyline
 90
13
 70
1
 10
7838.643565469459
 20
494.564087818866
 10
7830.025374704485
 20
499.7709114060376
 10
7821.438309816013
 20
515.3349665163919
 10
7808.556011928032
 20
546.4671864123482
 10
7810.768595420265
 20
549.1407247987978
 10
7885.961805389947
 20
546.5447687403208
 10
7877.341375199581
 20
525.7120624469354
 10
7875.1894608284565
 20
497.10953393074357
 10
7868.571428571428
 20
499.7751302564911
 10
7868.571428571428
 20
520.47823292419
 10
7858.048032838161
 20
523.0213868930631
 10
7855.907044820039
 20
494.564087818866
 10
7838.643565469459
 20
494.564087818866
  0
LWPOLYLINE
  5
58
330
17
100
AcDbEntity
  8
M
100
AcDbPolyline
 90
12
 70
1
 10
7866.620919793149
 20
305.5756197763511
 10
7853.732304964302
 20
300.3843721369543
 10
7845.147045036033
 20
290.0105163902946
 10
7836.575616464604
 20
290.0105163902946
 10
7828.004187893175
 20
279.65337353315175
 10
7819.432759321746
 20
279.65337353315175
 10
7815.130438196437
 20
274.45473550673563
 10
7808.5714285714275
 20
277.0965588279197
 10
7808.5714285714275
 20
318.62867199931003
 10
7819.345001226322
 20
331.64673895730607
 10
7868.782032676364
 20
323.85503291354917
 10
7866.620919793149
 20
305.5756197763511
  0
LWPOLYLINE
  5
59
330
17
100
AcDbEntity
  8
M
100
AcDbPolyline
 90
14
 70
1
 10
7789.333623992848
 20
393.5880413137299
 10
7770.0
 20
396.1837593498068
 10
7770.0
 20
406.66438628502436
 10
7785.0391236071255
 20
424.83666064363484
 10
7797.896266464269
 20
430.01523207220623
 10
7810.792210057587
 20
445.59783058079955
 10
7836.56248599357
 20
430.0282888694761
 10
7855.914285714286
 20
427.43013057363936
 10
7855.914285714286
 20
380.6845001970241
 10
7845.12744769664
 20
372.86404263423117
 10
7821.463316305797
 20
375.46351161277084
 10
7815.038005559126
 20
388.40337353315175
 10
7793.624383535397
 20
388.40337353315175
 10
7789.333623992848
 20
393.5880413137299
  0
LWPOLYLINE
  5
5A
330
17
100
AcDbEntity
  8
M
100
AcDbPolyline
 90
11
 70
1
 10
7714.285714285714
 20
360.05133421372096
 10
7714.285714285714
 20
370.4715179789362
 10
7750.876231436093
 20
373.0723145410955
 10
7761.6474175726935
 20
349.6449846939894
 10
7723.047026900618
 20
308.1853058239822
 10
7720.880881606608
 20
300.33302913319454
 10
7714.313066815208
 20
302.9783989797306
 10
7707.884495386636
 20
315.9248275511592
 10
7701.445326563168
 20
318.5183816606119
 10
7697.134358560471
 20
334.14564067038606
 10
7714.285714285714
 20
360.05133421372096
  0
LWPOLYLINE
  5
5B
330
17
100
AcDbEntity
  8
M
100
AcDbPolyline
 90
18
 70
1
 10
7656.455923958065
 20
403.9605418368734
 10
7650.020822143764
 20
406.5524578454112
 10
7643.6007929343195
 20
424.65337353315175
 10
7617.932786098171
 20
424.65337353315175
 10
7602.857142857142
 20
432.46040306868434
 10
7602.857142857142
 20
463.63765924743734
 10
7635.083538533459
 20
492.1938265272849
 10
7656.591713549944
 20
481.7982086026505
 10
7665.147045036032
 20
471.4605163902946
 10
7690.786422612315
 20
471.4605163902946
 10
7699.407789942413
 20
476.66925915222805
 10
7714.485714285714
 20
458.4501005707387
 10
7714.485714285714
 20
442.85850095271036
 10
7705.914285714285
 20
422.14421523842464
 10
7705.914285714285
 20
396.2352179241361
 10
7699.429948517292
 20
388.39997714443626
 10
7662.89301018468
 20
390.9969654082739
 10
7656.455923958065
 20
403.9605418368734
  0
LWPOLYLINE
  5
5C
330
17
100
AcDbEntity
  8
M
100
AcDbPolyline
 90
17
 70
1
 10
9254.291464521793
 20
235.77847734409713
 10
9260.765221585776
 20
243.60093379640952
 10
9310.0
 20
246.18754353193944
 10
9310.0
 20
292.7232631313415
 10
9316.466576987697
 20
305.74623067600885
 10
9329.420982207525
 20
305.74623067600885
 10
9342.315585311448
 20
295.35891150895924
 10
9378.771428571428
 20
246.1256525965853
 10
9378.771428571428
 20
230.51452732142297
 10
9357.322069140062
 20
209.78014653777015
 10
9346.576000945823
 20
191.60138117584336
 10
9307.883592585782
 20
201.99100934659464
 10
9303.604584745039
 20
212.33194496172314
 10
9278.004187893175
 20
212.33194496172314
 10
9273.71409685824
 20
207.14808496117664
 10
9249.984095524667
 20
209.75478965312223
 10
9254.291464521793
 20
235.77847734409713
  0
LWPOLYLINE
  5
5D
330
17
100
AcDbEntity
  8
M
100
AcDbPolyline
 90
16
 70
1
 10
9177.150638994193
 20
334.18360882912486
 10
9200.780283732434
 20
352.35337353315174
 10
9248.004187893175
 20
352.35337353315174
 10
9252.289902178889
 20
347.17480210458024
 10
9265.184808818341
 20
347.17480210458024
 10
9267.348236848762
 20
334.10409108745205
 10
9241.672408815988
 20
297.90830573569343
 10
9250.179837401196
 20
292.76840096546437
 10
9254.489867252649
 20
282.35249549112103
 10
9250.190073891252
 20
261.5701609110392
 10
9239.421702272364
 20
253.76309148734606
 10
9207.1865026138
 20
251.1663670704059
 10
9198.566012754096
 20
266.79100494111657
 10
9202.845790054922
 20
287.47659522844464
 10
9172.848127268402
 20
308.18926715247113
 10
9177.150638994193
 20
334.18360882912486
  0
LWPOLYLINE
  5
5E
330
17
100
AcDbEntity
  8
M
100
AcDbPolyline
 90
9
 70
1
 10
9121.420896625523
 20
406.56934830741494
 10
9125.718440463963
 20
442.9194066075504
 10
9132.195812106824
 20
450.7462306760089
 10
9145.147045036034
 20
450.7462306760089
 10
9160.186642616747
 20
432.57338359931293
 10
9173.057142857144
 20
401.4696746850215
 10
9173.057142857144
 20
385.814087818866
 10
9164.362814877693
 20
385.814087818866
 10
9121.420896625523
 20
406.56934830741494
  0
LWPOLYLINE
  5
5F
330
17
100
AcDbEntity
  8
M
100
AcDbPolyline
 90
9
 70
1
 10
9121.42423657665
 20
297.8475987273526
 10
9123.585942042351
 20
316.13202412476954
 10
9168.819539550152
 20
303.1183899211371
 10
9160.194862424378
 20
287.48616263067447
 10
9155.893782737116
 20
266.6976108088977
 10
9132.191655198683
 20
269.30125360668006
 10
9125.714285714286
 20
277.1280750669933
 10
9125.714285714286
 20
292.66378935270757
 10
9121.42423657665
 20
297.8475987273526
  0
LWPOLYLINE
  5
60
330
17
100
AcDbEntity
  8
M
100
AcDbPolyline
 90
66
 70
1
 10
8900.767240678253
 20
290.0105163902946
 10
8892.289902178889
 20
290.0105163902946
 10
8887.957142857143
 20
284.77509887651723
 10
8883.624383535396
 20
290.0105163902946
 10
8862.214994040887
 20
290.0105163902946
 10
8836.45807385728
 20
305.5719890012237
 10
8817.142857142857
 20
334.09770257483956
 10
8817.142857142857
 20
344.4495036384218
 10
8812.857142857143
 20
349.6280750669933
 10
8812.857142857143
 20
375.57681754216446
 10
8825.741338338237
 20
406.7136232881393
 10
8836.565790312025
 20
409.3295325151381
 10
8840.861330750318
 20
404.1390878188659
 10
8853.6957853304
 20
404.1390878188659
 10
8868.845269750347
 20
396.29381910139335
 10
8851.628571428571
 20
380.691186247284
 10
8851.628571428571
 20
370.34236078127896
 10
8847.350512179828
 20
365.1730391890486
 10
8851.621460719043
 20
344.530121249514
 10
8862.309084112952
 20
331.6159096485402
 10
8870.842148816255
 20
326.4605163902946
 10
8887.880993829856
 20
326.4605163902946
 10
8889.989747660182
 20
334.1047490252252
 10
8885.714285714286
 20
339.27093220985046
 10
8885.714285714286
 20
349.74279985639885
 10
8896.565790312025
 20
352.3652468008523
 10
8900.870114039466
 20
347.16418896352826
 10
8922.309145197174
 20
341.9830897670821
 10
8939.44475218338
 20
310.92480210458024
 10
8969.338669249682
 20
310.92480210458024
 10
8975.71673601396
 20
318.6316327780825
 10
8979.997488152536
 20
380.7025387874409
 10
8971.42857142857
 20
391.0566464955648
 10
8971.42857142857
 20
401.4137893527076
 10
8967.142857142857
 20
406.59236078127896
 10
8967.142857142857
 20
437.6799295241391
 10
8962.810219790283
 20
448.1504697928602
 10
9020.883782723704
 20
450.7494409735226
 10
9027.342857142858
 20
432.53843948618993
 10
9027.342857142858
 20
401.48581485645303
 10
9031.628571428571
 20
396.30724342788153
 10
9031.628571428571
 20
385.8780750669933
 10
9027.342857142858
 20
380.6995036384218
 10
9027.342857142858
 20
349.6280750669933
 10
9023.077590506708
 20
344.4742112149793
 10
9031.628571428571
 20
328.97555829410123
 10
9031.628571428571
 20
318.68492762708837
 10
9063.721546733988
 20
316.09966017192966
 10
9078.771428571428
 20
297.91438628502425
 10
9078.771428571428
 20
277.14421523842464
 10
9074.468346064392
 20
266.745099179755
 10
9061.628571428571
 20
256.4019473897878
 10
9061.628571428571
 20
215.05724342788147
 10
9063.691284590477
 20
212.5647983572444
 10
9110.803022829055
 20
243.6157167417606
 10
9117.339202270146
 20
240.9830889113207
 10
9119.488387806796
 20
202.02910105954797
 10
9106.573849082824
 20
191.6257226430157
 10
9085.15582832518
 20
186.44970095991798
 10
9080.854379171069
 20
181.25211656536754
 10
9065.760827771908
 20
183.8575510330796
 10
9052.860393691164
 20
199.44557554731395
 10
9050.72305922941
 20
222.68908781886597
 10
8977.927152345057
 20
222.68908781886597
 10
8930.746775249518
 20
253.78524545001662
 10
8900.767240678253
 20
290.0105163902946
  0
LWPOLYLINE
  5
61
330
17
100
AcDbEntity
  8
M
100
AcDbPolyline
 90
8
 70
1
 10
8975.909148138664
 20
277.1290197735316
 10
8967.359243581079
 20
261.63231776290866
 10
8982.297414579543
 20
238.42480210458024
 10
8986.48152639254
 20
238.42480210458024
 10
9022.835294895023
 20
282.35227237841525
 10
9012.188581178743
 20
300.3629630817884
 10
8980.182740209273
 20
297.7847147814699
 10
8975.909148138664
 20
277.1290197735316
  0
LWPOLYLINE
  5
62
330
17
100
AcDbEntity
  8
M
100
AcDbPolyline
 90
9
 70
1
 10
9052.836054249134
 20
391.1402428792463
 10
9076.502916759891
 20
404.1390878188659
 10
9106.61744521971
 20
404.1390878188659
 10
9108.775763423351
 20
385.8833130130669
 10
9104.485714285714
 20
380.6995036384218
 10
9104.485714285714
 20
354.7426592474375
 10
9078.64356546946
 20
354.7426592474375
 10
9061.445245533077
 20
365.1333108756675
 10
9052.836054249134
 20
391.1402428792463
  0
ENDSEC
  0
SECTION
  2
OBJECTS
  0
DICTIONARY
  5
A
330
0
100
AcDbDictionary
281
1
  3
ACAD_COLOR
350
B
  3
ACAD_GROUP
350
C
  3
ACAD_LAYOUT
350
D
  3
ACAD_MATERIAL
350
E
  3
ACAD_MLEADERSTYLE
350
F
  3
ACAD_MLINESTYLE
350
10
  3
ACAD_PLOTSETTINGS
350
11
  3
ACAD_PLOTSTYLENAME
350
12
  3
ACAD_SCALELIST
350
14
  3
ACAD_TABLESTYLE
350
15
  3
ACAD_VISUALSTYLE
350
16
  3
EZDXF_META
350
2D
  0
DICTIONARY
  5
B
330
A
100
AcDbDictionary
281
1
  0
DICTIONARY
  5
C
330
A
100
AcDbDictionary
281
1
  0
DICTIONARY
  5
D
330
A
100
AcDbDictionary
281
1
  3
Model
350
1A
  3
Layout1
350
1E
  0
DICTIONARY
  5
E
330
A
100
AcDbDictionary
281
1
  3
ByBlock
350
1F
  3
ByLayer
350
20
  3
Global
350
21
  0
DICTIONARY
  5
F
330
A
100
AcDbDictionary
281
1
  3
Standard
350
2C
  0
DICTIONARY
  5
10
330
A
100
AcDbDictionary
281
1
  3
Standard
350
22
  0
DICTIONARY
  5
11
330
A
100
AcDbDictionary
281
1
  0
ACDBDICTIONARYWDFLT
  5
12
330
A
100
AcDbDictionary
281
1
  3
Normal
350
13
100
AcDbDictionaryWithDefault
340
13
  0
ACDBPLACEHOLDER
  5
13
330
12
  0
DICTIONARY
  5
14
330
A
100
AcDbDictionary
281
1
  0
DICTIONARY
  5
15
330
A
100
AcDbDictionary
281
1
  0
DICTIONARY
  5
16
330
A
100
AcDbDictionary
281
1
  0
LAYOUT
  5
1A
330
D
100
AcDbPlotSettings
  1

  4
A3
  6

 40
7.5
 41
20.0
 42
7.5
 43
20.0
 44
420.0
 45
297.0
 46
0.0
 47
0.0
 48
0.0
 49
0.0
140
0.0
141
0.0
142
1.0
143
1.0
 70
1024
 72
1
 73
0
 74
5
  7

 75
16
 76
0
 77
2
 78
300
147
1.0
148
0.0
149
0.0
100
AcDbLayout
  1
Model
 70
1
 71
0
 10
0.0
 20
0.0
 11
420.0
 21
297.0
 12
0.0
 22
0.0
 32
0.0
 14
1e+20
 24
1e+20
 34
1e+20
 15
-1e+20
 25
-1e+20
 35
-1e+20
146
0.0
 13
0.0
 23
0.0
 33
0.0
 16
1.0
 26
0.0
 36
0.0
 17
0.0
 27
1.0
 37
0.0
 76
1
330
17
  0
LAYOUT
  5
1E
330
D
100
AcDbPlotSettings
  1

  4
A3
  6

 40
7.5
 41
20.0
 42
7.5
 43
20.0
 44
420.0
 45
297.0
 46
0.0
 47
0.0
 48
0.0
 49
0.0
140
0.0
141
0.0
142
1.0
143
1.0
 70
0
 72
1
 73
0
 74
5
  7

 75
16
 76
0
 77
2
 78
300
147
1.0
148
0.0
149
0.0
100
AcDbLayout
  1
Layout1
 70
1
 71
1
 10
0.0
 20
0.0
 11
420.0
 21
297.0
 12
0.0
 22
0.0
 32
0.0
 14
1e+20
 24
1e+20
 34
1e+20
 15
-1e+20
 25
-1e+20
 35
-1e+20
146
0.0
 13
0.0
 23
0.0
 33
0.0
 16
1.0
 26
0.0
 36
0.0
 17
0.0
 27
1.0
 37
0.0
 76
1
330
1B
  0
MATERIAL
  5
1F
102
{ACAD_REACTORS
330
E
102
}
330
E
100
AcDbMaterial
  1
ByBlock
  2

 70
0
 40
1.0
 71
1
 41
1.0
 91
-1023410177
 42
1.0
 72
1
  3

 73
1
 74
1
 75
1
 44
0.5
 73
0
 45
1.0
 46
1.0
 77
1
  4

 78
1
 79
1
170
1
 48
1.0
171
1
  6

172
1
173
1
174
1
140
1.0
141
1.0
175
1
  7

176
1
177
1
178
1
143
1.0
179
1
  8

270
1
271
1
272
1
145
1.0
146
1.0
273
1
  9

274
1
275
1
276
1
 42
1.0
 72
1
  3

 73
1
 74
1
 75
1
 94
63
  0
MATERIAL
  5
20
102
{ACAD_REACTORS
330
E
102
}
330
E
100
AcDbMaterial
  1
ByLayer
  2

 70
0
 40
1.0
 71
1
 41
1.0
 91
-1023410177
 42
1.0
 72
1
  3

 73
1
 74
1
 75
1
 44
0.5
 73
0
 45
1.0
 46
1.0
 77
1
  4

 78
1
 79
1
170
1
 48
1.0
171
1
  6

172
1
173
1
174
1
140
1.0
141
1.0
175
1
  7

176
1
177
1
178
1
143
1.0
179
1
  8

270
1
271
1
272
1
145
1.0
146
1.0
273
1
  9

274
1
275
1
276
1
 42
1.0
 72
1
  3

 73
1
 74
1
 75
1
 94
63
  0
MATERIAL
  5
21
102
{ACAD_REACTORS
330
E
102
}
330
E
100
AcDbMaterial
  1
Global
  2

 70
0
 40
1.0
 71
1
 41
1.0
 91
-1023410177
 42
1.0
 72
1
  3

 73
1
 74
1
 75
1
 44
0.5
 73
0
 45
1.0
 46
1.0
 77
1
  4

 78
1
 79
1
170
1
 48
1.0
171
1
  6

172
1
173
1
174
1
140
1.0
141
1.0
175
1
  7

176
1
177
1
178
1
143
1.0
179
1
  8

270
1
271
1
272
1
145
1.0
146
1.0
273
1
  9

274
1
275
1
276
1
 42
1.0
 72
1
  3

 73
1
 74
1
 75
1
 94
63
  0
MLINESTYLE
  5
22
102
{ACAD_REACTORS
330
10
102
}
330
10
100
AcDbMlineStyle
  2
Standard
 70
0
  3

 62
256
 51
90.0
 52
90.0
 71
2
 49
0.5
 62
256
  6
BYLAYER
 49
-0.5
 62
256
  6
BYLAYER
  0
MLEADERSTYLE
  5
2C
102
{ACAD_REACTORS
330
F
102
}
330
F
100
AcDbMLeaderStyle
179
2
170
2
171
1
172
0
 90
2
 40
0.0
 41
0.0
173
1
 91
-1056964608
 92
-2
290
1
 42
2.0
291
1
 43
8.0
  3
Standard
 44
4.0
300

342
29
174
1
175
1
176
0
178
1
 93
-1056964608
 45
4.0
292
0
297
0
 46
4.0
 94
-1056964608
 47
1.0
 49
1.0
140
1.0
294
1
141
0.0
177
0
142
1.0
295
0
296
0
143
3.75
271
0
272
9
273
9
  0
DICTIONARY
  5
2D
330
A
100
AcDbDictionary
280
1
281
1
  3
CREATED_BY_EZDXF
350
2E
  3
WRITTEN_BY_EZDXF
350
65
  0
DICTIONARYVAR
  5
2E
330
2D
100
DictionaryVariables
280
0
  1
1.4.4 @ 2026-07-08T06:54:08.576277+00:00
  0
DICTIONARYVAR
  5
65
330
2D
100
DictionaryVariables
280
0
  1
1.4.4 @ 2026-07-08T06:54:08.583291+00:00
  0
ENDSEC
  0
EOF
