  0
SECTION
  2
HEADER
  9
$ACADVER
  1
AC1027
  9
$ACADMAINTVER
 70
105
  9
$DWGCODEPAGE
  3
ANSI_1252
  9
$LASTSAVEDBY
  1
ezdxf
  9
$REQUIREDVERSIONS
160
0
  9
$INSBASE
 10
0.0
 20
0.0
 30
0.0
  9
$EXTMIN
 10
1e+20
 20
1e+20
 30
1e+20
  9
$EXTMAX
 10
-1e+20
 20
-1e+20
 30
-1e+20
  9
$LIMMIN
 10
0.0
 20
0.0
  9
$LIMMAX
 10
420.0
 20
297.0
  9
$ORTHOMODE
 70
0
  9
$REGENMODE
 70
1
  9
$FILLMODE
 70
1
  9
$QTEXTMODE
 70
0
  9
$MIRRTEXT
 70
1
  9
$LTSCALE
 40
1.0
  9
$ATTMODE
 70
1
  9
$TEXTSIZE
 40
2.5
  9
$TRACEWID
 40
1.0
  9
$TEXTSTYLE
  7
Standard
  9
$CLAYER
  8
0
  9
$CELTYPE
  6
ByLayer
  9
$CECOLOR
 62
256
  9
$CELTSCALE
 40
1.0
  9
$DISPSILH
 70
0
  9
$DIMSCALE
 40
1.0
  9
$DIMASZ
 40
2.5
  9
$DIMEXO
 40
0.625
  9
$DIMDLI
 40
3.75
  9
$DIMRND
 40
0.0
  9
$DIMDLE
 40
0.0
  9
$DIMEXE
 40
1.25
  9
$DIMTP
 40
0.0
  9
$DIMTM
 40
0.0
  9
$DIMTXT
 40
2.5
  9
$DIMCEN
 40
2.5
  9
$DIMTSZ
 40
0.0
  9
$DIMTOL
 70
0
  9
$DIMLIM
 70
0
  9
$DIMTIH
 70
0
  9
$DIMTOH
 70
0
  9
$DIMSE1
 70
0
  9
$DIMSE2
 70
0
  9
$DIMTAD
 70
1
  9
$DIMZIN
 70
8
  9
$DIMBLK
  1

  9
$DIMASO
 70
1
  9
$DIMSHO
 70
1
  9
$DIMPOST
  1

  9
$DIMAPOST
  1

  9
$DIMALT
 70
0
  9
$DIMALTD
 70
3
  9
$DIMALTF
 40
0.03937007874
  9
$DIMLFAC
 40
1.0
  9
$DIMTOFL
 70
1
  9
$DIMTVP
 40
0.0
  9
$DIMTIX
 70
0
  9
$DIMSOXD
 70
0
  9
$DIMSAH
 70
0
  9
$DIMBLK1
  1

  9
$DIMBLK2
  1

  9
$DIMSTYLE
  2
ISO-25
  9
$DIMCLRD
 70
0
  9
$DIMCLRE
 70
0
  9
$DIMCLRT
 70
0
  9
$DIMTFAC
 40
1.0
  9
$DIMGAP
 40
0.625
  9
$DIMJUST
 70
0
  9
$DIMSD1
 70
0
  9
$DIMSD2
 70
0
  9
$DIMTOLJ
 70
0
  9
$DIMTZIN
 70
8
  9
$DIMALTZ
 70
0
  9
$DIMALTTZ
 70
0
  9
$DIMUPT
 70
0
  9
$DIMDEC
 70
2
  9
$DIMTDEC
 70
2
  9
$DIMALTU
 70
2
  9
$DIMALTTD
 70
3
  9
$DIMTXSTY
  7
Standard
  9
$DIMAUNIT
 70
0
  9
$DIMADEC
 70
0
  9
$DIMALTRND
 40
0.0
  9
$DIMAZIN
 70
0
  9
$DIMDSEP
 70
44
  9
$DIMATFIT
 70
3
  9
$DIMFRAC
 70
0
  9
$DIMLDRBLK
  1

  9
$DIMLUNIT
 70
2
  9
$DIMLWD
 70
-2
  9
$DIMLWE
 70
-2
  9
$DIMTMOVE
 70
0
  9
$DIMFXL
 40
1.0
  9
$DIMFXLON
 70
0
  9
$DIMJOGANG
 40
0.785398163397
  9
$DIMTFILL
 70
0
  9
$DIMTFILLCLR
 70
0
  9
$DIMARCSYM
 70
0
  9
$DIMLTYPE
  6

  9
$DIMLTEX1
  6

  9
$DIMLTEX2
  6

  9
$DIMTXTDIRECTION
 70
0
  9
$LUNITS
 70
2
  9
$LUPREC
 70
4
  9
$SKETCHINC
 40
1.0
  9
$FILLETRAD
 40
10.0
  9
$AUNITS
 70
0
  9
$AUPREC
 70
2
  9
$MENU
  1
.
  9
$ELEVATION
 40
0.0
  9
$PELEVATION
 40
0.0
  9
$THICKNESS
 40
0.0
  9
$LIMCHECK
 70
0
  9
$CHAMFERA
 40
0.0
  9
$CHAMFERB
 40
0.0
  9
$CHAMFERC
 40
0.0
  9
$CHAMFERD
 40
0.0
  9
$SKPOLY
 70
0
  9
$TDCREATE
 40
2461246.7782291668
  9
$TDUCREATE
 40
2458532.153996898
  9
$TDUPDATE
 40
2461246.7782291668
  9
$TDUUPDATE
 40
2458532.1544311
  9
$TDINDWG
 40
0.0
  9
$TDUSRTIMER
 40
0.0
  9
$USRTIMER
 70
1
  9
$ANGBASE
 50
0.0
  9
$ANGDIR
 70
0
  9
$PDMODE
 70
0
  9
$PDSIZE
 40
0.0
  9
$PLINEWID
 40
0.0
  9
$SPLFRAME
 70
0
  9
$SPLINETYPE
 70
6
  9
$SPLINESEGS
 70
8
  9
$HANDSEED
  5
51
  9
$SURFTAB1
 70
6
  9
$SURFTAB2
 70
6
  9
$SURFTYPE
 70
6
  9
$SURFU
 70
6
  9
$SURFV
 70
6
  9
$UCSBASE
  2

  9
$UCSNAME
  2

  9
$UCSORG
 10
0.0
 20
0.0
 30
0.0
  9
$UCSXDIR
 10
1.0
 20
0.0
 30
0.0
  9
$UCSYDIR
 10
0.0
 20
1.0
 30
0.0
  9
$UCSORTHOREF
  2

  9
$UCSORTHOVIEW
 70
0
  9
$UCSORGTOP
 10
0.0
 20
0.0
 30
0.0
  9
$UCSORGBOTTOM
 10
0.0
 20
0.0
 30
0.0
  9
$UCSORGLEFT
 10
0.0
 20
0.0
 30
0.0
  9
$UCSORGRIGHT
 10
0.0
 20
0.0
 30
0.0
  9
$UCSORGFRONT
 10
0.0
 20
0.0
 30
0.0
  9
$UCSORGBACK
 10
0.0
 20
0.0
 30
0.0
  9
$PUCSBASE
  2

  9
$PUCSNAME
  2

  9
$PUCSORG
 10
0.0
 20
0.0
 30
0.0
  9
$PUCSXDIR
 10
1.0
 20
0.0
 30
0.0
  9
$PUCSYDIR
 10
0.0
 20
1.0
 30
0.0
  9
$PUCSORTHOREF
  2

  9
$PUCSORTHOVIEW
 70
0
  9
$PUCSORGTOP
 10
0.0
 20
0.0
 30
0.0
  9
$PUCSORGBOTTOM
 10
0.0
 20
0.0
 30
0.0
  9
$PUCSORGLEFT
 10
0.0
 20
0.0
 30
0.0
  9
$PUCSORGRIGHT
 10
0.0
 20
0.0
 30
0.0
  9
$PUCSORGFRONT
 10
0.0
 20
0.0
 30
0.0
  9
$PUCSORGBACK
 10
0.0
 20
0.0
 30
0.0
  9
$USERI1
 70
0
  9
$USERI2
 70
0
  9
$USERI3
 70
0
  9
$USERI4
 70
0
  9
$USERI5
 70
0
  9
$USERR1
 40
0.0
  9
$USERR2
 40
0.0
  9
$USERR3
 40
0.0
  9
$USERR4
 40
0.0
  9
$USERR5
 40
0.0
  9
$WORLDVIEW
 70
1
  9
$SHADEDGE
 70
3
  9
$SHADEDIF
 70
70
  9
$TILEMODE
 70
1
  9
$MAXACTVP
 70
64
  9
$PINSBASE
 10
0.0
 20
0.0
 30
0.0
  9
$PLIMCHECK
 70
0
  9
$PEXTMIN
 10
1e+20
 20
1e+20
 30
1e+20
  9
$PEXTMAX
 10
-1e+20
 20
-1e+20
 30
-1e+20
  9
$PLIMMIN
 10
0.0
 20
0.0
  9
$PLIMMAX
 10
420.0
 20
297.0
  9
$UNITMODE
 70
0
  9
$VISRETAIN
 70
1
  9
$PLINEGEN
 70
0
  9
$PSLTSCALE
 70
1
  9
$TREEDEPTH
 70
3020
  9
$CMLSTYLE
  2
Standard
  9
$CMLJUST
 70
0
  9
$CMLSCALE
 40
20.0
  9
$PROXYGRAPHICS
 70
1
  9
$MEASUREMENT
 70
1
  9
$CELWEIGHT
370
-1
  9
$ENDCAPS
280
0
  9
$JOINSTYLE
280
0
  9
$LWDISPLAY
290
0
  9
$INSUNITS
 70
4
  9
$HYPERLINKBASE
  1

  9
$STYLESHEET
  1

  9
$XEDIT
290
1
  9
$CEPSNTYPE
380
0
  9
$PSTYLEMODE
290
1
  9
$FINGERPRINTGUID
  2
{0E780C2D-C595-4C58-8C1D-0B8B9BC548C8}
  9
$VERSIONGUID
  2
{4EC46F1F-89C6-40E0-A812-B6FDE50CDD25}
  9
$EXTNAMES
290
1
  9
$PSVPSCALE
 40
0.0
  9
$OLESTARTUP
290
0
  9
$SORTENTS
280
127
  9
$INDEXCTL
280
0
  9
$HIDETEXT
280
1
  9
$XCLIPFRAME
280
1
  9
$HALOGAP
280
0
  9
$OBSCOLOR
 70
257
  9
$OBSLTYPE
280
0
  9
$INTERSECTIONDISPLAY
280
0
  9
$INTERSECTIONCOLOR
 70
257
  9
$DIMASSOC
280
2
  9
$PROJECTNAME
  1

  9
$CAMERADISPLAY
290
0
  9
$LENSLENGTH
 40
50.0
  9
$CAMERAHEIGHT
 40
0.0
  9
$STEPSPERSEC
 40
24.0
  9
$STEPSIZE
 40
100.0
  9
$3DDWFPREC
 40
2.0
  9
$PSOLWIDTH
 40
0.005
  9
$PSOLHEIGHT
 40
0.08
  9
$LOFTANG1
 40
1.570796326795
  9
$LOFTANG2
 40
1.570796326795
  9
$LOFTMAG1
 40
0.0
  9
$LOFTMAG2
 40
0.0
  9
$LOFTPARAM
 70
7
  9
$LOFTNORMALS
280
1
  9
$LATITUDE
 40
37.795
  9
$LONGITUDE
 40
-122.394
  9
$NORTHDIRECTION
 40
0.0
  9
$TIMEZONE
 70
-8000
  9
$LIGHTGLYPHDISPLAY
280
1
  9
$TILEMODELIGHTSYNCH
280
1
  9
$CMATERIAL
347
20
  9
$SOLIDHIST
280
0
  9
$SHOWHIST
280
1
  9
$DWFFRAME
280
2
  9
$DGNFRAME
280
2
  9
$REALWORLDSCALE
290
1
  9
$INTERFERECOLOR
 62
256
  9
$CSHADOW
280
0
  9
$SHADOWPLANELOCATION
 40
0.0
  0
ENDSEC
  0
SECTION
  2
CLASSES
  0
CLASS
  1
ACDBDICTIONARYWDFLT
  2
AcDbDictionaryWithDefault
  3
ObjectDBX Classes
 90
0
 91
0
280
0
281
0
  0
CLASS
  1
SUN
  2
AcDbSun
  3
SCENEOE
 90
1153
 91
0
280
0
281
0
  0
CLASS
  1
VISUALSTYLE
  2
AcDbVisualStyle
  3
ObjectDBX Classes
 90
4095
 91
0
280
0
281
0
  0
CLASS
  1
MATERIAL
  2
AcDbMaterial
  3
ObjectDBX Classes
 90
1153
 91
0
280
0
281
0
  0
CLASS
  1
SCALE
  2
AcDbScale
  3
ObjectDBX Classes
 90
1153
 91
0
280
0
281
0
  0
CLASS
  1
TABLESTYLE
  2
AcDbTableStyle
  3
ObjectDBX Classes
 90
4095
 91
0
280
0
281
0
  0
CLASS
  1
MLEADERSTYLE
  2
AcDbMLeaderStyle
  3
ACDB_MLEADERSTYLE_CLASS
 90
4095
 91
0
280
0
281
0
  0
CLASS
  1
DICTIONARYVAR
  2
AcDbDictionaryVar
  3
ObjectDBX Classes
 90
0
 91
0
280
0
281
0
  0
CLASS
  1
CELLSTYLEMAP
  2
AcDbCellStyleMap
  3
ObjectDBX Classes
 90
1152
 91
0
280
0
281
0
  0
CLASS
  1
MENTALRAYRENDERSETTINGS
  2
AcDbMentalRayRenderSettings
  3
SCENEOE
 90
1024
 91
0
280
0
281
0
  0
CLASS
  1
ACDBDETAILVIEWSTYLE
  2
AcDbDetailViewStyle
  3
ObjectDBX Classes
 90
1025
 91
0
280
0
281
0
  0
CLASS
  1
ACDBSECTIONVIEWSTYLE
  2
AcDbSectionViewStyle
  3
ObjectDBX Classes
 90
1025
 91
0
280
0
281
0
  0
CLASS
  1
RASTERVARIABLES
  2
AcDbRasterVariables
  3
ISM
 90
0
 91
0
280
0
281
0
  0
CLASS
  1
ACDBPLACEHOLDER
  2
AcDbPlaceHolder
  3
ObjectDBX Classes
 90
0
 91
0
280
0
281
0
  0
CLASS
  1
LAYOUT
  2
AcDbLayout
  3
ObjectDBX Classes
 90
0
 91
0
280
0
281
0
  0
ENDSEC
  0
SECTION
  2
TABLES
  0
TABLE
  2
VPORT
  5
8
330
0
100
AcDbSymbolTable
 70
1
  0
VPORT
  5
23
330
8
100
AcDbSymbolTableRecord
100
AcDbViewportTableRecord
  2
*Active
 70
0
 10
0.0
 20
0.0
 11
1.0
 21
1.0
 12
0.0
 22
0.0
 13
0.0
 23
0.0
 14
0.5
 24
0.5
 15
0.5
 25
0.5
 16
0.0
 26
0.0
 36
1.0
 17
0.0
 27
0.0
 37
0.0
 40
1000.0
 41
1.34
 42
50.0
 43
0.0
 44
0.0
 50
0.0
 51
0.0
 71
0
 72
1000
 73
1
 74
3
 75
0
 76
0
 77
0
 78
0
281
0
 65
0
146
0.0
  0
ENDTAB
  0
TABLE
  2
LTYPE
  5
2
330
0
100
AcDbSymbolTable
 70
3
  0
LTYPE
  5
24
330
2
100
AcDbSymbolTableRecord
100
AcDbLinetypeTableRecord
  2
ByBlock
 70
0
  3

 72
65
 73
0
 40
0.0
  0
LTYPE
  5
25
330
2
100
AcDbSymbolTableRecord
100
AcDbLinetypeTableRecord
  2
ByLayer
 70
0
  3

 72
65
 73
0
 40
0.0
  0
LTYPE
  5
26
330
2
100
AcDbSymbolTableRecord
100
AcDbLinetypeTableRecord
  2
Continuous
 70
0
  3

 72
65
 73
0
 40
0.0
  0
ENDTAB
  0
TABLE
  2
LAYER
  5
1
330
0
100
AcDbSymbolTable
 70
3
  0
LAYER
  5
27
330
1
100
AcDbSymbolTableRecord
100
AcDbLayerTableRecord
  2
0
 70
0
 62
7
  6
Continuous
370
-3
390
13
347
21
  0
LAYER
  5
28
330
1
100
AcDbSymbolTableRecord
100
AcDbLayerTableRecord
  2
Defpoints
 70
0
 62
7
  6
Continuous
290
0
370
-3
390
13
347
21
  0
LAYER
  5
2F
330
1
100
AcDbSymbolTableRecord
100
AcDbLayerTableRecord
  2
K
 70
0
 62
7
  6
Continuous
370
-3
390
13
347
21
  0
ENDTAB
  0
TABLE
  2
STYLE
  5
5
330
0
100
AcDbSymbolTable
 70
1
  0
STYLE
  5
29
330
5
100
AcDbSymbolTableRecord
100
AcDbTextStyleTableRecord
  2
Standard
 70
0
 40
0.0
 41
1.0
 50
0.0
 71
0
 42
2.5
  3
txt
  4

  0
ENDTAB
  0
TABLE
  2
VIEW
  5
7
330
0
100
AcDbSymbolTable
 70
0
  0
ENDTAB
  0
TABLE
  2
UCS
  5
6
330
0
100
AcDbSymbolTable
 70
0
  0
ENDTAB
  0
TABLE
  2
APPID
  5
3
330
0
100
AcDbSymbolTable
 70
3
  0
APPID
  5
2A
330
3
100
AcDbSymbolTableRecord
100
AcDbRegAppTableRecord
  2
ACAD
 70
0
  0
APPID
  5
4E
330
3
100
AcDbSymbolTableRecord
100
AcDbRegAppTableRecord
  2
HATCHBACKGROUNDCOLOR
 70
0
  0
APPID
  5
4F
330
3
100
AcDbSymbolTableRecord
100
AcDbRegAppTableRecord
  2
EZDXF
 70
0
  0
ENDTAB
  0
TABLE
  2
DIMSTYLE
  5
4
330
0
100
AcDbSymbolTable
 70
1
100
AcDbDimStyleTable
  0
DIMSTYLE
105
2B
330
4
100
AcDbSymbolTableRecord
100
AcDbDimStyleTableRecord
  2
Standard
 70
0
 40
1.0
 41
2.5
 42
0.625
 43
3.75
 44
1.25
 45
0.0
 46
0.0
 47
0.0
 48
0.0
 49
2.5
140
2.5
141
2.5
142
0.0
143
0.03937007874
144
1.0
145
0.0
146
1.0
147
0.625
148
0.0
 69
0
 70
0
 71
0
 72
0
 73
0
 74
0
 75
0
 76
0
 77
1
 78
8
 79
3
170
0
171
3
172
1
173
0
174
0
175
0
176
0
177
0
178
0
179
2
271
2
272
2
273
2
274
3
275
0
276
0
277
2
278
44
279
0
280
0
281
0
282
0
283
0
284
8
285
0
286
0
288
0
289
3
290
0
371
-2
372
-2
  0
ENDTAB
  0
TABLE
  2
BLOCK_RECORD
  5
9
330
0
100
AcDbSymbolTable
 70
2
  0
BLOCK_RECORD
  5
17
330
9
100
AcDbSymbolTableRecord
100
AcDbBlockTableRecord
  2
*Model_Space
340
1A
 70
0
280
1
281
0
  0
BLOCK_RECORD
  5
1B
330
9
100
AcDbSymbolTableRecord
100
AcDbBlockTableRecord
  2
*Paper_Space
340
1E
 70
0
280
1
281
0
  0
ENDTAB
  0
ENDSEC
  0
SECTION
  2
BLOCKS
  0
BLOCK
  5
18
330
17
100
AcDbEntity
  8
0
100
AcDbBlockBegin
  2
*Model_Space
 70
0
 10
0.0
 20
0.0
 30
0.0
  3
*Model_Space
  1

  0
ENDBLK
  5
19
330
17
100
AcDbEntity
  8
0
100
AcDbBlockEnd
  0
BLOCK
  5
1C
330
1B
100
AcDbEntity
  8
0
100
AcDbBlockBegin
  2
*Paper_Space
 70
0
 10
0.0
 20
0.0
 30
0.0
  3
*Paper_Space
  1

  0
ENDBLK
  5
1D
330
1B
100
AcDbEntity
  8
0
100
AcDbBlockEnd
  0
ENDSEC
  0
SECTION
  2
ENTITIES
  0
LWPOLYLINE
  5
30
330
17
100
AcDbEntity
  8
K
100
AcDbPolyline
 90
13
 70
1
 10
32.675124042216396
 20
146.5519020413344
 10
33.848620129938
 20
149.42626289781026
 10
32.675124042216396
 20
152.3006237542861
 10
35.70633295813202
 20
156.01294471848504
 10
38.73250317612239
 20
152.30679464664587
 10
37.56603656586188
 20
148.02108036093142
 10
38.751600828969835
 20
146.56912004066734
 10
36.418667608448835
 20
143.71197718352445
 10
38.751600828969835
 20
140.85483432638156
 10
35.70633295813202
 20
137.12529536284967
 10
32.66106508729422
 20
140.85483432638156
 10
34.99399830781525
 20
143.71197718352445
 10
32.675124042216396
 20
146.5519020413344
  0
LWPOLYLINE
  5
31
330
17
100
AcDbEntity
  8
K
100
AcDbPolyline
 90
9
 70
1
 10
22.176924549871803
 20
189.4090448984771
 10
23.350420637593405
 20
192.28340575495318
 10
22.176924549871803
 20
195.1577666114288
 10
25.196107809986433
 20
198.85535975732927
 10
29.429359181949224
 20
195.1521725258145
 10
27.086934726364753
 20
192.28340575495318
 10
30.5785552130699
 20
188.00721883040183
 10
27.554804233096476
 20
182.82275670628144
 10
22.176924549871803
 20
189.4090448984771
  0
LWPOLYLINE
  5
32
330
17
100
AcDbEntity
  8
K
100
AcDbPolyline
 90
18
 70
1
 10
5.378201091358808
 20
118.87008757562789
 10
6.544667701619322
 20
117.44151614705633
 10
7.663685629411512
 20
118.81197718352455
 10
15.90458580455048
 20
118.81197718352455
 10
18.187096422861202
 20
117.41428203046667
 10
20.49481834227712
 20
120.24054861209588
 10
22.92264892773474
 20
120.24054861209588
 10
24.041666855526945
 20
118.87008757562789
 10
26.374600076047972
 20
121.72723043277078
 10
29.41986794688578
 20
117.99769146923889
 10
26.374600076047972
 20
114.268152505707
 10
25.20813346578746
 20
115.69672393427832
 10
22.910166017928503
 20
112.88240365204993
 10
18.244299576886448
 20
114.31097508062149
 10
15.921315854372258
 20
111.4660173717339
 10
4.74506192992985
 20
112.18641505526072
 10
2.3329332205210274
 20
115.140548612096
 10
5.378201091358808
 20
118.87008757562789
  0
LWPOLYLINE
  5
33
330
17
100
AcDbEntity
  8
K
100
AcDbPolyline
 90
5
 70
1
 10
22.87520024526643
 20
157.44151614705638
 10
25.92046811610424
 20
153.71197718352448
 10
22.87520024526643
 20
149.9824382199926
 10
19.829932374428623
 20
153.71197718352448
 10
22.87520024526643
 20
157.44151614705638
  0
LWPOLYLINE
  5
34
330
17
100
AcDbEntity
  8
K
100
AcDbPolyline
 90
5
 70
1
 10
6.090535741675618
 20
139.42626289781023
 10
3.0452678708377814
 20
135.69672393427834
 10
0.0
 20
139.42626289781023
 10
3.0452678708377814
 20
143.15580186134213
 10
6.090535741675618
 20
139.42626289781023
  0
LWPOLYLINE
  5
35
330
17
100
AcDbEntity
  8
K
100
AcDbPolyline
 90
5
 70
1
 10
6.090535741675618
 20
152.28340575495315
 10
3.0452678708377814
 20
148.55386679142123
 10
0.0
 20
152.28340575495315
 10
3.0452678708377814
 20
156.01294471848504
 10
6.090535741675618
 20
152.28340575495315
  0
LWPOLYLINE
  5
36
330
17
100
AcDbEntity
  8
K
100
AcDbPolyline
 90
13
 70
1
 10
1480.616587674958
 20
3.7001188902137105
 10
1483.7628476586451
 20
7.402576538646066
 10
1487.4143435523572
 20
5.97024005342317
 10
1492.3007916199201
 20
10.282947946735899
 10
1493.5507874035115
 20
8.811977183524444
 10
1495.8862152128825
 20
8.811977183524444
 10
1497.1464329937658
 20
10.294976994638327
 10
1500.3125771478212
 20
6.569120040667453
 10
1495.9787190890806
 20
1.4691200406673488
 10
1489.835400923655
 20
1.4691200406673488
 10
1487.4564618724214
 20
2.86886467891434
 10
1485.01856926298
 20
0.0
 10
1480.616587674958
 20
3.7001188902137105
  0
LWPOLYLINE
  5
37
330
17
100
AcDbEntity
  8
K
100
AcDbPolyline
 90
5
 70
1
 10
6978.36145982132
 20
100.84217367530024
 10
6982.031403280312
 20
104.58214413824885
 10
6985.65271364144
 20
99.41557099760479
 10
6983.431294326901
 20
97.15176428912575
 10
6978.36145982132
 20
100.84217367530024
  0
LWPOLYLINE
  5
38
330
17
100
AcDbEntity
  8
K
100
AcDbPolyline
 90
21
 70
1
 10
6975.83130096225
 20
106.54961091070115
 10
6973.615105570669
 20
104.29112780401061
 10
6966.605990897268
 20
110.00541351829641
 10
6964.635861326886
 20
107.99769146923866
 10
6966.037684261566
 20
106.56912004066731
 10
6963.787360048672
 20
104.2758568930664
 10
6957.353063576229
 20
112.29005442567419
 10
6959.576494246214
 20
114.5559108687173
 10
6963.7819630502545
 20
111.69876801157419
 10
6968.561122872297
 20
116.56912004066733
 10
6967.159299937617
 20
117.99769146923889
 10
6969.374786224977
 20
120.25545194113118
 10
6973.580255029016
 20
118.82688051255985
 10
6975.610341175013
 20
120.89570318192867
 10
6975.610341175013
 20
125.18141746764312
 10
6977.771099553146
 20
127.38340575495299
 10
6980.658697470279
 20
127.38340575495299
 10
6982.819455848413
 20
125.18141746764312
 10
6982.819455848413
 20
122.242536899406
 10
6973.02765509289
 20
112.26389662498693
 10
6975.83130096225
 20
106.54961091070115
  0
LWPOLYLINE
  5
39
330
17
100
AcDbEntity
  8
K
100
AcDbPolyline
 90
13
 70
1
 10
6964.3661457739045
 20
99.41557099760479
 10
6967.980838477298
 20
104.57270263523056
 10
6975.857667514745
 20
98.0050519977953
 10
6973.037689721095
 20
95.1312655832972
 10
6977.257285237546
 20
89.39778484589178
 10
6973.591927946629
 20
87.15660677477999
 10
6969.394639171275
 20
91.43398494686794
 10
6962.385524497876
 20
85.71969923258216
 10
6960.144691328685
 20
88.00329023577191
 10
6969.957451871445
 20
96.57471880720037
 10
6968.000315034272
 20
98.56920020582938
 10
6966.598492099592
 20
97.14062877725782
 10
6964.3661457739045
 20
99.41557099760479
  0
LWPOLYLINE
  5
3A
330
17
100
AcDbEntity
  8
K
100
AcDbPolyline
 90
17
 70
1
 10
6965.738129921972
 20
136.58883628756914
 10
6964.3556540682575
 20
137.9976914692389
 10
6966.590993301916
 20
140.27568370589537
 10
6973.600107975316
 20
134.5613979916096
 10
6975.009429707672
 20
135.99761130407683
 10
6977.237231116355
 20
133.7273007233022
 10
6975.041476875859
 20
129.99788086751352
 10
6970.81684408361
 20
132.86804349833182
 10
6966.618473278046
 20
128.58956264957433
 10
6963.780579327279
 20
130.03558486646227
 10
6960.2497577715485
 20
129.3159460776945
 10
6954.55851408163
 20
136.5657455417679
 10
6958.174695592273
 20
141.72500128110622
 10
6961.832215457526
 20
137.9976914692389
 10
6960.430392522846
 20
136.56912004066734
 10
6962.408702121915
 20
134.55306187798334
 10
6965.738129921972
 20
136.58883628756914
  0
LWPOLYLINE
  5
3B
330
17
100
AcDbEntity
  8
K
100
AcDbPolyline
 90
9
 70
1
 10
6953.141070590818
 20
123.71197718352445
 10
6955.363927443698
 20
125.9772488603319
 10
6958.167573313059
 20
124.54867743176035
 10
6959.589377426192
 20
125.99761130407683
 10
6961.832215457526
 20
123.71197718352445
 10
6955.363919337474
 20
117.12025807261183
 10
6953.156107213468
 20
120.87015786615929
 10
6954.542893525498
 20
122.28340575495311
 10
6953.141070590818
 20
123.71197718352445
  0
LWPOLYLINE
  5
3C
330
17
100
AcDbEntity
  8
K
100
AcDbPolyline
 90
5
 70
1
 10
6954.542893525498
 20
93.71197718352443
 10
6956.785731556832
 20
95.9976113040768
 10
6959.028569588166
 20
93.71197718352443
 10
6956.785731556832
 20
91.42634306297226
 10
6954.542893525498
 20
93.71197718352443
  0
LWPOLYLINE
  5
3D
330
17
100
AcDbEntity
  8
K
100
AcDbPolyline
 90
6
 70
1
 10
6952.538286728905
 20
104.52626289781008
 10
6955.425884646038
 20
104.52626289781008
 10
6957.639170247224
 20
102.2707451038718
 10
6952.5850973964325
 20
98.59180886513653
 10
6948.916254705812
 20
100.83511807947976
 10
6952.538286728905
 20
104.52626289781008
  0
LWPOLYLINE
  5
3E
330
17
100
AcDbEntity
  8
K
100
AcDbPolyline
 90
5
 70
1
 10
6951.194118644476
 20
125.72803534620847
 10
6947.494021196482
 20
127.9904552423441
 10
6952.59118976394
 20
131.70076150649444
 10
6954.823100784126
 20
129.42626289781023
 10
6951.194118644476
 20
125.72803534620847
  0
LWPOLYLINE
  5
3F
330
17
100
AcDbEntity
  8
K
100
AcDbPolyline
 90
11
 70
1
 10
6941.9456309554525
 20
118.01720059920507
 10
6940.543808020773
 20
120.87434345634773
 10
6941.926487113377
 20
122.28340575495311
 10
6940.524664178698
 20
123.71197718352445
 10
6942.767502210032
 20
125.99761130407683
 10
6947.79484226865
 20
120.87434345634773
 10
6946.39301933397
 20
118.01720059920507
 10
6947.823123342125
 20
116.55980845973258
 10
6941.3377813486
 20
111.41940493936598
 10
6939.137877866668
 20
115.15587215187372
 10
6941.9456309554525
 20
118.01720059920507
  0
LWPOLYLINE
  5
40
330
17
100
AcDbEntity
  8
K
100
AcDbPolyline
 90
5
 70
1
 10
6942.767502210032
 20
102.85491449154361
 10
6940.524664178698
 20
105.14054861209598
 10
6942.767502210032
 20
107.42618273264814
 10
6945.010340241366
 20
105.14054861209598
 10
6942.767502210032
 20
102.85491449154361
  0
LWPOLYLINE
  5
41
330
17
100
AcDbEntity
  8
K
100
AcDbPolyline
 90
12
 70
1
 10
6935.759504362989
 20
154.55298036241504
 10
6942.240951925899
 20
149.41566364068714
 10
6938.559180125292
 20
147.16444893842495
 10
6934.369447781929
 20
150.01090064118893
 10
6932.393933829246
 20
147.9976914692387
 10
6933.795756763926
 20
146.56912004066734
 10
6930.178447541887
 20
142.8827881402035
 10
6927.988055375061
 20
143.62685064849921
 10
6922.320273013207
 20
150.84676386399587
 10
6924.514879426965
 20
154.57423417199422
 10
6930.151095797912
 20
150.26641247412488
 10
6935.759504362989
 20
154.55298036241504
  0
LWPOLYLINE
  5
42
330
17
100
AcDbEntity
  8
K
100
AcDbPolyline
 90
13
 70
1
 10
6937.198645791383
 20
124.29444522926936
 10
6934.376545780405
 20
125.73241979243144
 10
6931.56384574374
 20
122.86605000341156
 10
6926.510775797459
 20
126.54425621275145
 10
6929.322444592175
 20
130.8422345173228
 10
6925.104611897217
 20
135.14054861209578
 10
6928.749272863231
 20
138.85475416121972
 10
6931.572899911045
 20
135.9772488603319
 10
6934.376545780405
 20
137.40582028890324
 10
6936.599402633286
 20
135.14054861209578
 10
6933.8062878907385
 20
132.29413782852896
 10
6939.394082355689
 20
128.02332552199113
 10
6937.198645791383
 20
124.29444522926936
  0
LWPOLYLINE
  5
43
330
17
100
AcDbEntity
  8
K
100
AcDbPolyline
 90
5
 70
1
 10
6932.943814656123
 20
164.55790436363736
 10
6937.993329538088
 20
160.88228593950137
 10
6935.778376821309
 20
157.12025807261188
 10
6930.711903635937
 20
162.28340575495292
 10
6932.943814656123
 20
164.55790436363736
  0
LWPOLYLINE
  5
44
330
17
100
AcDbEntity
  8
K
100
AcDbPolyline
 90
6
 70
1
 10
6934.356564601952
 20
104.56903987550525
 10
6936.559299003971
 20
102.3242746105002
 10
6936.559299003971
 20
99.3853940422631
 10
6934.356564601952
 20
97.14062877725782
 10
6930.711903635937
 20
100.85483432638154
 10
6934.356564601952
 20
104.56903987550525
  0
LWPOLYLINE
  5
45
330
17
100
AcDbEntity
  8
K
100
AcDbPolyline
 90
7
 70
1
 10
6930.711903635937
 20
112.28340575495311
 10
6929.2907336202925
 20
113.73169343042622
 10
6932.970420493635
 20
115.98163330655487
 10
6935.189532402298
 20
113.72017803207535
 10
6930.160561455268
 20
107.13098250359687
 10
6927.908257766578
 20
109.4262628978102
 10
6930.711903635937
 20
112.28340575495311
  0
LWPOLYLINE
  5
46
330
17
100
AcDbEntity
  8
K
100
AcDbPolyline
 90
16
 70
1
 10
6918.375704482446
 20
113.71197718352444
 10
6921.179350351806
 20
110.85483432638176
 10
6918.9521911468355
 20
108.58517820335135
 10
6915.302034507028
 20
110.8170618556028
 10
6916.712818131213
 20
113.69246805355826
 10
6915.310995196533
 20
115.12103948212982
 10
6916.712818131213
 20
117.9781823392727
 10
6913.890028419777
 20
120.85483432638155
 10
6917.534689385792
 20
124.56903987550527
 10
6923.203498014052
 20
118.79206345428628
 10
6929.612741314107
 20
115.16343040374211
 10
6927.347449928551
 20
112.85491449154361
 10
6925.945626993872
 20
114.28348592011517
 10
6924.556687239169
 20
112.86804349833179
 10
6920.351218435128
 20
115.72518635547469
 10
6918.375704482446
 20
113.71197718352444
  0
LWPOLYLINE
  5
47
330
17
100
AcDbEntity
  8
K
100
AcDbPolyline
 90
7
 70
1
 10
6925.945626993872
 20
105.99761130407681
 10
6928.200888618943
 20
103.69931653244313
 10
6923.154487773759
 20
100.02596486288252
 10
6918.062573504868
 20
102.24985381122953
 10
6921.720177011378
 20
105.97724886033188
 10
6924.523822880738
 20
104.54867743176032
 10
6925.945626993872
 20
105.99761130407681
  0
LWPOLYLINE
  5
48
330
17
100
AcDbEntity
  8
K
100
AcDbPolyline
 90
5
 70
1
 10
6925.384819155845
 20
156.56912004066737
 10
6923.141981124511
 20
154.28348592011497
 10
6920.899143093177
 20
156.56912004066737
 10
6923.141981124511
 20
158.85475416121952
 10
6925.384819155845
 20
156.56912004066737
  0
LWPOLYLINE
  5
49
330
17
100
AcDbEntity
  8
K
100
AcDbPolyline
 90
5
 70
1
 10
6916.701721585446
 20
127.98949062068776
 10
6921.730692532475
 20
134.57868614916623
 10
6923.974948924858
 20
132.29160660350402
 10
6918.945977977828
 20
125.70241107502555
 10
6916.701721585446
 20
127.98949062068776
  0
LWPOLYLINE
  5
4A
330
17
100
AcDbEntity
  8
K
100
AcDbPolyline
 90
6
 70
1
 10
6909.7246632450515
 20
142.24253689940602
 10
6909.7246632450515
 20
145.18141746764312
 10
6914.751032801109
 20
150.30369629443706
 10
6916.954069917262
 20
146.56190670228142
 10
6911.936863304428
 20
139.9881253607398
 10
6909.7246632450515
 20
142.24253689940602
  0
LWPOLYLINE
  5
4B
330
17
100
AcDbEntity
  8
K
100
AcDbPolyline
 90
6
 70
1
 10
6916.965834251458
 20
153.70377633497355
 10
6914.758395260406
 20
151.45421671163194
 10
6912.556824457379
 20
152.20207653267303
 10
6909.703703457813
 20
158.01720059920487
 10
6911.936863304428
 20
160.29297186345204
 10
6916.965834251458
 20
153.70377633497355
  0
LWPOLYLINE
  5
4C
330
17
100
AcDbEntity
  8
K
100
AcDbPolyline
 90
9
 70
1
 10
6906.292754164376
 20
117.3983090839883
 10
6909.123751777712
 20
120.28332558979105
 10
6911.351553186395
 20
118.01301500901661
 10
6909.198528503482
 20
114.35616996945264
 10
6904.933279999009
 20
111.45841353221874
 10
6902.750739075083
 20
112.19980902244653
 10
6899.884162963895
 20
116.5817198497261
 10
6902.087285360336
 20
118.82688051255985
 10
6906.292754164376
 20
117.3983090839883
  0
LWPOLYLINE
  5
4D
330
17
100
AcDbEntity
  8
K
100
AcDbPolyline
 90
5
 70
1
 10
6904.077267877017
 20
177.9976914692387
 10
6906.320105908351
 20
180.2833255897911
 10
6908.562943939685
 20
177.9976914692387
 10
6906.320105908351
 20
175.71205734868656
 10
6904.077267877017
 20
177.9976914692387
  0
ENDSEC
  0
SECTION
  2
OBJECTS
  0
DICTIONARY
  5
A
330
0
100
AcDbDictionary
281
1
  3
ACAD_COLOR
350
B
  3
ACAD_GROUP
350
C
  3
ACAD_LAYOUT
350
D
  3
ACAD_MATERIAL
350
E
  3
ACAD_MLEADERSTYLE
350
F
  3
ACAD_MLINESTYLE
350
10
  3
ACAD_PLOTSETTINGS
350
11
  3
ACAD_PLOTSTYLENAME
350
12
  3
ACAD_SCALELIST
350
14
  3
ACAD_TABLESTYLE
350
15
  3
ACAD_VISUALSTYLE
350
16
  3
EZDXF_META
350
2D
  0
DICTIONARY
  5
B
330
A
100
AcDbDictionary
281
1
  0
DICTIONARY
  5
C
330
A
100
AcDbDictionary
281
1
  0
DICTIONARY
  5
D
330
A
100
AcDbDictionary
281
1
  3
Model
350
1A
  3
Layout1
350
1E
  0
DICTIONARY
  5
E
330
A
100
AcDbDictionary
281
1
  3
ByBlock
350
1F
  3
ByLayer
350
20
  3
Global
350
21
  0
DICTIONARY
  5
F
330
A
100
AcDbDictionary
281
1
  3
Standard
350
2C
  0
DICTIONARY
  5
10
330
A
100
AcDbDictionary
281
1
  3
Standard
350
22
  0
DICTIONARY
  5
11
330
A
100
AcDbDictionary
281
1
  0
ACDBDICTIONARYWDFLT
  5
12
330
A
100
AcDbDictionary
281
1
  3
Normal
350
13
100
AcDbDictionaryWithDefault
340
13
  0
ACDBPLACEHOLDER
  5
13
330
12
  0
DICTIONARY
  5
14
330
A
100
AcDbDictionary
281
1
  0
DICTIONARY
  5
15
330
A
100
AcDbDictionary
281
1
  0
DICTIONARY
  5
16
330
A
100
AcDbDictionary
281
1
  0
LAYOUT
  5
1A
330
D
100
AcDbPlotSettings
  1

  4
A3
  6

 40
7.5
 41
20.0
 42
7.5
 43
20.0
 44
420.0
 45
297.0
 46
0.0
 47
0.0
 48
0.0
 49
0.0
140
0.0
141
0.0
142
1.0
143
1.0
 70
1024
 72
1
 73
0
 74
5
  7

 75
16
 76
0
 77
2
 78
300
147
1.0
148
0.0
149
0.0
100
AcDbLayout
  1
Model
 70
1
 71
0
 10
0.0
 20
0.0
 11
420.0
 21
297.0
 12
0.0
 22
0.0
 32
0.0
 14
1e+20
 24
1e+20
 34
1e+20
 15
-1e+20
 25
-1e+20
 35
-1e+20
146
0.0
 13
0.0
 23
0.0
 33
0.0
 16
1.0
 26
0.0
 36
0.0
 17
0.0
 27
1.0
 37
0.0
 76
1
330
17
  0
LAYOUT
  5
1E
330
D
100
AcDbPlotSettings
  1

  4
A3
  6

 40
7.5
 41
20.0
 42
7.5
 43
20.0
 44
420.0
 45
297.0
 46
0.0
 47
0.0
 48
0.0
 49
0.0
140
0.0
141
0.0
142
1.0
143
1.0
 70
0
 72
1
 73
0
 74
5
  7

 75
16
 76
0
 77
2
 78
300
147
1.0
148
0.0
149
0.0
100
AcDbLayout
  1
Layout1
 70
1
 71
1
 10
0.0
 20
0.0
 11
420.0
 21
297.0
 12
0.0
 22
0.0
 32
0.0
 14
1e+20
 24
1e+20
 34
1e+20
 15
-1e+20
 25
-1e+20
 35
-1e+20
146
0.0
 13
0.0
 23
0.0
 33
0.0
 16
1.0
 26
0.0
 36
0.0
 17
0.0
 27
1.0
 37
0.0
 76
1
330
1B
  0
MATERIAL
  5
1F
102
{ACAD_REACTORS
330
E
102
}
330
E
100
AcDbMaterial
  1
ByBlock
  2

 70
0
 40
1.0
 71
1
 41
1.0
 91
-1023410177
 42
1.0
 72
1
  3

 73
1
 74
1
 75
1
 44
0.5
 73
0
 45
1.0
 46
1.0
 77
1
  4

 78
1
 79
1
170
1
 48
1.0
171
1
  6

172
1
173
1
174
1
140
1.0
141
1.0
175
1
  7

176
1
177
1
178
1
143
1.0
179
1
  8

270
1
271
1
272
1
145
1.0
146
1.0
273
1
  9

274
1
275
1
276
1
 42
1.0
 72
1
  3

 73
1
 74
1
 75
1
 94
63
  0
MATERIAL
  5
20
102
{ACAD_REACTORS
330
E
102
}
330
E
100
AcDbMaterial
  1
ByLayer
  2

 70
0
 40
1.0
 71
1
 41
1.0
 91
-1023410177
 42
1.0
 72
1
  3

 73
1
 74
1
 75
1
 44
0.5
 73
0
 45
1.0
 46
1.0
 77
1
  4

 78
1
 79
1
170
1
 48
1.0
171
1
  6

172
1
173
1
174
1
140
1.0
141
1.0
175
1
  7

176
1
177
1
178
1
143
1.0
179
1
  8

270
1
271
1
272
1
145
1.0
146
1.0
273
1
  9

274
1
275
1
276
1
 42
1.0
 72
1
  3

 73
1
 74
1
 75
1
 94
63
  0
MATERIAL
  5
21
102
{ACAD_REACTORS
330
E
102
}
330
E
100
AcDbMaterial
  1
Global
  2

 70
0
 40
1.0
 71
1
 41
1.0
 91
-1023410177
 42
1.0
 72
1
  3

 73
1
 74
1
 75
1
 44
0.5
 73
0
 45
1.0
 46
1.0
 77
1
  4

 78
1
 79
1
170
1
 48
1.0
171
1
  6

172
1
173
1
174
1
140
1.0
141
1.0
175
1
  7

176
1
177
1
178
1
143
1.0
179
1
  8

270
1
271
1
272
1
145
1.0
146
1.0
273
1
  9

274
1
275
1
276
1
 42
1.0
 72
1
  3

 73
1
 74
1
 75
1
 94
63
  0
MLINESTYLE
  5
22
102
{ACAD_REACTORS
330
10
102
}
330
10
100
AcDbMlineStyle
  2
Standard
 70
0
  3

 62
256
 51
90.0
 52
90.0
 71
2
 49
0.5
 62
256
  6
BYLAYER
 49
-0.5
 62
256
  6
BYLAYER
  0
MLEADERSTYLE
  5
2C
102
{ACAD_REACTORS
330
F
102
}
330
F
100
AcDbMLeaderStyle
179
2
170
2
171
1
172
0
 90
2
 40
0.0
 41
0.0
173
1
 91
-1056964608
 92
-2
290
1
 42
2.0
291
1
 43
8.0
  3
Standard
 44
4.0
300

342
29
174
1
175
1
176
0
178
1
 93
-1056964608
 45
4.0
292
0
297
0
 46
4.0
 94
-1056964608
 47
1.0
 49
1.0
140
1.0
294
1
141
0.0
177
0
142
1.0
295
0
296
0
143
3.75
271
0
272
9
273
9
  0
DICTIONARY
  5
2D
330
A
100
AcDbDictionary
280
1
281
1
  3
CREATED_BY_EZDXF
350
2E
  3
WRITTEN_BY_EZDXF
350
50
  0
DICTIONARYVAR
  5
2E
330
2D
100
DictionaryVariables
280
0
  1
1.4.4 @ 2026-07-24T15:40:39.792067+00:00
  0
DICTIONARYVAR
  5
50
330
2D
100
DictionaryVariables
280
0
  1
1.4.4 @ 2026-07-24T15:40:39.796918+00:00
  0
ENDSEC
  0
EOF
