  0
SECTION
  2
HEADER
  9
$ACADVER
  1
AC1027
  9
$ACADMAINTVER
 70
105
  9
$DWGCODEPAGE
  3
ANSI_1252
  9
$LASTSAVEDBY
  1
ezdxf
  9
$REQUIREDVERSIONS
160
0
  9
$INSBASE
 10
0.0
 20
0.0
 30
0.0
  9
$EXTMIN
 10
1e+20
 20
1e+20
 30
1e+20
  9
$EXTMAX
 10
-1e+20
 20
-1e+20
 30
-1e+20
  9
$LIMMIN
 10
0.0
 20
0.0
  9
$LIMMAX
 10
420.0
 20
297.0
  9
$ORTHOMODE
 70
0
  9
$REGENMODE
 70
1
  9
$FILLMODE
 70
1
  9
$QTEXTMODE
 70
0
  9
$MIRRTEXT
 70
1
  9
$LTSCALE
 40
1.0
  9
$ATTMODE
 70
1
  9
$TEXTSIZE
 40
2.5
  9
$TRACEWID
 40
1.0
  9
$TEXTSTYLE
  7
Standard
  9
$CLAYER
  8
0
  9
$CELTYPE
  6
ByLayer
  9
$CECOLOR
 62
256
  9
$CELTSCALE
 40
1.0
  9
$DISPSILH
 70
0
  9
$DIMSCALE
 40
1.0
  9
$DIMASZ
 40
2.5
  9
$DIMEXO
 40
0.625
  9
$DIMDLI
 40
3.75
  9
$DIMRND
 40
0.0
  9
$DIMDLE
 40
0.0
  9
$DIMEXE
 40
1.25
  9
$DIMTP
 40
0.0
  9
$DIMTM
 40
0.0
  9
$DIMTXT
 40
2.5
  9
$DIMCEN
 40
2.5
  9
$DIMTSZ
 40
0.0
  9
$DIMTOL
 70
0
  9
$DIMLIM
 70
0
  9
$DIMTIH
 70
0
  9
$DIMTOH
 70
0
  9
$DIMSE1
 70
0
  9
$DIMSE2
 70
0
  9
$DIMTAD
 70
1
  9
$DIMZIN
 70
8
  9
$DIMBLK
  1

  9
$DIMASO
 70
1
  9
$DIMSHO
 70
1
  9
$DIMPOST
  1

  9
$DIMAPOST
  1

  9
$DIMALT
 70
0
  9
$DIMALTD
 70
3
  9
$DIMALTF
 40
0.03937007874
  9
$DIMLFAC
 40
1.0
  9
$DIMTOFL
 70
1
  9
$DIMTVP
 40
0.0
  9
$DIMTIX
 70
0
  9
$DIMSOXD
 70
0
  9
$DIMSAH
 70
0
  9
$DIMBLK1
  1

  9
$DIMBLK2
  1

  9
$DIMSTYLE
  2
ISO-25
  9
$DIMCLRD
 70
0
  9
$DIMCLRE
 70
0
  9
$DIMCLRT
 70
0
  9
$DIMTFAC
 40
1.0
  9
$DIMGAP
 40
0.625
  9
$DIMJUST
 70
0
  9
$DIMSD1
 70
0
  9
$DIMSD2
 70
0
  9
$DIMTOLJ
 70
0
  9
$DIMTZIN
 70
8
  9
$DIMALTZ
 70
0
  9
$DIMALTTZ
 70
0
  9
$DIMUPT
 70
0
  9
$DIMDEC
 70
2
  9
$DIMTDEC
 70
2
  9
$DIMALTU
 70
2
  9
$DIMALTTD
 70
3
  9
$DIMTXSTY
  7
Standard
  9
$DIMAUNIT
 70
0
  9
$DIMADEC
 70
0
  9
$DIMALTRND
 40
0.0
  9
$DIMAZIN
 70
0
  9
$DIMDSEP
 70
44
  9
$DIMATFIT
 70
3
  9
$DIMFRAC
 70
0
  9
$DIMLDRBLK
  1

  9
$DIMLUNIT
 70
2
  9
$DIMLWD
 70
-2
  9
$DIMLWE
 70
-2
  9
$DIMTMOVE
 70
0
  9
$DIMFXL
 40
1.0
  9
$DIMFXLON
 70
0
  9
$DIMJOGANG
 40
0.785398163397
  9
$DIMTFILL
 70
0
  9
$DIMTFILLCLR
 70
0
  9
$DIMARCSYM
 70
0
  9
$DIMLTYPE
  6

  9
$DIMLTEX1
  6

  9
$DIMLTEX2
  6

  9
$DIMTXTDIRECTION
 70
0
  9
$LUNITS
 70
2
  9
$LUPREC
 70
4
  9
$SKETCHINC
 40
1.0
  9
$FILLETRAD
 40
10.0
  9
$AUNITS
 70
0
  9
$AUPREC
 70
2
  9
$MENU
  1
.
  9
$ELEVATION
 40
0.0
  9
$PELEVATION
 40
0.0
  9
$THICKNESS
 40
0.0
  9
$LIMCHECK
 70
0
  9
$CHAMFERA
 40
0.0
  9
$CHAMFERB
 40
0.0
  9
$CHAMFERC
 40
0.0
  9
$CHAMFERD
 40
0.0
  9
$SKPOLY
 70
0
  9
$TDCREATE
 40
2461245.8428587965
  9
$TDUCREATE
 40
2458532.153996898
  9
$TDUPDATE
 40
2461245.8428587965
  9
$TDUUPDATE
 40
2458532.1544311
  9
$TDINDWG
 40
0.0
  9
$TDUSRTIMER
 40
0.0
  9
$USRTIMER
 70
1
  9
$ANGBASE
 50
0.0
  9
$ANGDIR
 70
0
  9
$PDMODE
 70
0
  9
$PDSIZE
 40
0.0
  9
$PLINEWID
 40
0.0
  9
$SPLFRAME
 70
0
  9
$SPLINETYPE
 70
6
  9
$SPLINESEGS
 70
8
  9
$HANDSEED
  5
59
  9
$SURFTAB1
 70
6
  9
$SURFTAB2
 70
6
  9
$SURFTYPE
 70
6
  9
$SURFU
 70
6
  9
$SURFV
 70
6
  9
$UCSBASE
  2

  9
$UCSNAME
  2

  9
$UCSORG
 10
0.0
 20
0.0
 30
0.0
  9
$UCSXDIR
 10
1.0
 20
0.0
 30
0.0
  9
$UCSYDIR
 10
0.0
 20
1.0
 30
0.0
  9
$UCSORTHOREF
  2

  9
$UCSORTHOVIEW
 70
0
  9
$UCSORGTOP
 10
0.0
 20
0.0
 30
0.0
  9
$UCSORGBOTTOM
 10
0.0
 20
0.0
 30
0.0
  9
$UCSORGLEFT
 10
0.0
 20
0.0
 30
0.0
  9
$UCSORGRIGHT
 10
0.0
 20
0.0
 30
0.0
  9
$UCSORGFRONT
 10
0.0
 20
0.0
 30
0.0
  9
$UCSORGBACK
 10
0.0
 20
0.0
 30
0.0
  9
$PUCSBASE
  2

  9
$PUCSNAME
  2

  9
$PUCSORG
 10
0.0
 20
0.0
 30
0.0
  9
$PUCSXDIR
 10
1.0
 20
0.0
 30
0.0
  9
$PUCSYDIR
 10
0.0
 20
1.0
 30
0.0
  9
$PUCSORTHOREF
  2

  9
$PUCSORTHOVIEW
 70
0
  9
$PUCSORGTOP
 10
0.0
 20
0.0
 30
0.0
  9
$PUCSORGBOTTOM
 10
0.0
 20
0.0
 30
0.0
  9
$PUCSORGLEFT
 10
0.0
 20
0.0
 30
0.0
  9
$PUCSORGRIGHT
 10
0.0
 20
0.0
 30
0.0
  9
$PUCSORGFRONT
 10
0.0
 20
0.0
 30
0.0
  9
$PUCSORGBACK
 10
0.0
 20
0.0
 30
0.0
  9
$USERI1
 70
0
  9
$USERI2
 70
0
  9
$USERI3
 70
0
  9
$USERI4
 70
0
  9
$USERI5
 70
0
  9
$USERR1
 40
0.0
  9
$USERR2
 40
0.0
  9
$USERR3
 40
0.0
  9
$USERR4
 40
0.0
  9
$USERR5
 40
0.0
  9
$WORLDVIEW
 70
1
  9
$SHADEDGE
 70
3
  9
$SHADEDIF
 70
70
  9
$TILEMODE
 70
1
  9
$MAXACTVP
 70
64
  9
$PINSBASE
 10
0.0
 20
0.0
 30
0.0
  9
$PLIMCHECK
 70
0
  9
$PEXTMIN
 10
1e+20
 20
1e+20
 30
1e+20
  9
$PEXTMAX
 10
-1e+20
 20
-1e+20
 30
-1e+20
  9
$PLIMMIN
 10
0.0
 20
0.0
  9
$PLIMMAX
 10
420.0
 20
297.0
  9
$UNITMODE
 70
0
  9
$VISRETAIN
 70
1
  9
$PLINEGEN
 70
0
  9
$PSLTSCALE
 70
1
  9
$TREEDEPTH
 70
3020
  9
$CMLSTYLE
  2
Standard
  9
$CMLJUST
 70
0
  9
$CMLSCALE
 40
20.0
  9
$PROXYGRAPHICS
 70
1
  9
$MEASUREMENT
 70
1
  9
$CELWEIGHT
370
-1
  9
$ENDCAPS
280
0
  9
$JOINSTYLE
280
0
  9
$LWDISPLAY
290
0
  9
$INSUNITS
 70
4
  9
$HYPERLINKBASE
  1

  9
$STYLESHEET
  1

  9
$XEDIT
290
1
  9
$CEPSNTYPE
380
0
  9
$PSTYLEMODE
290
1
  9
$FINGERPRINTGUID
  2
{0CFF5F87-BDA2-4D33-8F64-42B3503FEB6A}
  9
$VERSIONGUID
  2
{2EC825C7-EF9F-4D1F-83E0-2362993B9F0C}
  9
$EXTNAMES
290
1
  9
$PSVPSCALE
 40
0.0
  9
$OLESTARTUP
290
0
  9
$SORTENTS
280
127
  9
$INDEXCTL
280
0
  9
$HIDETEXT
280
1
  9
$XCLIPFRAME
280
1
  9
$HALOGAP
280
0
  9
$OBSCOLOR
 70
257
  9
$OBSLTYPE
280
0
  9
$INTERSECTIONDISPLAY
280
0
  9
$INTERSECTIONCOLOR
 70
257
  9
$DIMASSOC
280
2
  9
$PROJECTNAME
  1

  9
$CAMERADISPLAY
290
0
  9
$LENSLENGTH
 40
50.0
  9
$CAMERAHEIGHT
 40
0.0
  9
$STEPSPERSEC
 40
24.0
  9
$STEPSIZE
 40
100.0
  9
$3DDWFPREC
 40
2.0
  9
$PSOLWIDTH
 40
0.005
  9
$PSOLHEIGHT
 40
0.08
  9
$LOFTANG1
 40
1.570796326795
  9
$LOFTANG2
 40
1.570796326795
  9
$LOFTMAG1
 40
0.0
  9
$LOFTMAG2
 40
0.0
  9
$LOFTPARAM
 70
7
  9
$LOFTNORMALS
280
1
  9
$LATITUDE
 40
37.795
  9
$LONGITUDE
 40
-122.394
  9
$NORTHDIRECTION
 40
0.0
  9
$TIMEZONE
 70
-8000
  9
$LIGHTGLYPHDISPLAY
280
1
  9
$TILEMODELIGHTSYNCH
280
1
  9
$CMATERIAL
347
20
  9
$SOLIDHIST
280
0
  9
$SHOWHIST
280
1
  9
$DWFFRAME
280
2
  9
$DGNFRAME
280
2
  9
$REALWORLDSCALE
290
1
  9
$INTERFERECOLOR
 62
256
  9
$CSHADOW
280
0
  9
$SHADOWPLANELOCATION
 40
0.0
  0
ENDSEC
  0
SECTION
  2
CLASSES
  0
CLASS
  1
ACDBDICTIONARYWDFLT
  2
AcDbDictionaryWithDefault
  3
ObjectDBX Classes
 90
0
 91
0
280
0
281
0
  0
CLASS
  1
SUN
  2
AcDbSun
  3
SCENEOE
 90
1153
 91
0
280
0
281
0
  0
CLASS
  1
VISUALSTYLE
  2
AcDbVisualStyle
  3
ObjectDBX Classes
 90
4095
 91
0
280
0
281
0
  0
CLASS
  1
MATERIAL
  2
AcDbMaterial
  3
ObjectDBX Classes
 90
1153
 91
0
280
0
281
0
  0
CLASS
  1
SCALE
  2
AcDbScale
  3
ObjectDBX Classes
 90
1153
 91
0
280
0
281
0
  0
CLASS
  1
TABLESTYLE
  2
AcDbTableStyle
  3
ObjectDBX Classes
 90
4095
 91
0
280
0
281
0
  0
CLASS
  1
MLEADERSTYLE
  2
AcDbMLeaderStyle
  3
ACDB_MLEADERSTYLE_CLASS
 90
4095
 91
0
280
0
281
0
  0
CLASS
  1
DICTIONARYVAR
  2
AcDbDictionaryVar
  3
ObjectDBX Classes
 90
0
 91
0
280
0
281
0
  0
CLASS
  1
CELLSTYLEMAP
  2
AcDbCellStyleMap
  3
ObjectDBX Classes
 90
1152
 91
0
280
0
281
0
  0
CLASS
  1
MENTALRAYRENDERSETTINGS
  2
AcDbMentalRayRenderSettings
  3
SCENEOE
 90
1024
 91
0
280
0
281
0
  0
CLASS
  1
ACDBDETAILVIEWSTYLE
  2
AcDbDetailViewStyle
  3
ObjectDBX Classes
 90
1025
 91
0
280
0
281
0
  0
CLASS
  1
ACDBSECTIONVIEWSTYLE
  2
AcDbSectionViewStyle
  3
ObjectDBX Classes
 90
1025
 91
0
280
0
281
0
  0
CLASS
  1
RASTERVARIABLES
  2
AcDbRasterVariables
  3
ISM
 90
0
 91
0
280
0
281
0
  0
CLASS
  1
LAYOUT
  2
AcDbLayout
  3
ObjectDBX Classes
 90
0
 91
0
280
0
281
0
  0
CLASS
  1
ACDBPLACEHOLDER
  2
AcDbPlaceHolder
  3
ObjectDBX Classes
 90
0
 91
0
280
0
281
0
  0
ENDSEC
  0
SECTION
  2
TABLES
  0
TABLE
  2
VPORT
  5
8
330
0
100
AcDbSymbolTable
 70
1
  0
VPORT
  5
23
330
8
100
AcDbSymbolTableRecord
100
AcDbViewportTableRecord
  2
*Active
 70
0
 10
0.0
 20
0.0
 11
1.0
 21
1.0
 12
0.0
 22
0.0
 13
0.0
 23
0.0
 14
0.5
 24
0.5
 15
0.5
 25
0.5
 16
0.0
 26
0.0
 36
1.0
 17
0.0
 27
0.0
 37
0.0
 40
1000.0
 41
1.34
 42
50.0
 43
0.0
 44
0.0
 50
0.0
 51
0.0
 71
0
 72
1000
 73
1
 74
3
 75
0
 76
0
 77
0
 78
0
281
0
 65
0
146
0.0
  0
ENDTAB
  0
TABLE
  2
LTYPE
  5
2
330
0
100
AcDbSymbolTable
 70
3
  0
LTYPE
  5
24
330
2
100
AcDbSymbolTableRecord
100
AcDbLinetypeTableRecord
  2
ByBlock
 70
0
  3

 72
65
 73
0
 40
0.0
  0
LTYPE
  5
25
330
2
100
AcDbSymbolTableRecord
100
AcDbLinetypeTableRecord
  2
ByLayer
 70
0
  3

 72
65
 73
0
 40
0.0
  0
LTYPE
  5
26
330
2
100
AcDbSymbolTableRecord
100
AcDbLinetypeTableRecord
  2
Continuous
 70
0
  3

 72
65
 73
0
 40
0.0
  0
ENDTAB
  0
TABLE
  2
LAYER
  5
1
330
0
100
AcDbSymbolTable
 70
3
  0
LAYER
  5
27
330
1
100
AcDbSymbolTableRecord
100
AcDbLayerTableRecord
  2
0
 70
0
 62
7
  6
Continuous
370
-3
390
13
347
21
  0
LAYER
  5
28
330
1
100
AcDbSymbolTableRecord
100
AcDbLayerTableRecord
  2
Defpoints
 70
0
 62
7
  6
Continuous
290
0
370
-3
390
13
347
21
  0
LAYER
  5
2F
330
1
100
AcDbSymbolTableRecord
100
AcDbLayerTableRecord
  2
K
 70
0
 62
7
  6
Continuous
370
-3
390
13
347
21
  0
ENDTAB
  0
TABLE
  2
STYLE
  5
5
330
0
100
AcDbSymbolTable
 70
1
  0
STYLE
  5
29
330
5
100
AcDbSymbolTableRecord
100
AcDbTextStyleTableRecord
  2
Standard
 70
0
 40
0.0
 41
1.0
 50
0.0
 71
0
 42
2.5
  3
txt
  4

  0
ENDTAB
  0
TABLE
  2
VIEW
  5
7
330
0
100
AcDbSymbolTable
 70
0
  0
ENDTAB
  0
TABLE
  2
UCS
  5
6
330
0
100
AcDbSymbolTable
 70
0
  0
ENDTAB
  0
TABLE
  2
APPID
  5
3
330
0
100
AcDbSymbolTable
 70
3
  0
APPID
  5
2A
330
3
100
AcDbSymbolTableRecord
100
AcDbRegAppTableRecord
  2
ACAD
 70
0
  0
APPID
  5
56
330
3
100
AcDbSymbolTableRecord
100
AcDbRegAppTableRecord
  2
HATCHBACKGROUNDCOLOR
 70
0
  0
APPID
  5
57
330
3
100
AcDbSymbolTableRecord
100
AcDbRegAppTableRecord
  2
EZDXF
 70
0
  0
ENDTAB
  0
TABLE
  2
DIMSTYLE
  5
4
330
0
100
AcDbSymbolTable
 70
1
100
AcDbDimStyleTable
  0
DIMSTYLE
105
2B
330
4
100
AcDbSymbolTableRecord
100
AcDbDimStyleTableRecord
  2
Standard
 70
0
 40
1.0
 41
2.5
 42
0.625
 43
3.75
 44
1.25
 45
0.0
 46
0.0
 47
0.0
 48
0.0
 49
2.5
140
2.5
141
2.5
142
0.0
143
0.03937007874
144
1.0
145
0.0
146
1.0
147
0.625
148
0.0
 69
0
 70
0
 71
0
 72
0
 73
0
 74
0
 75
0
 76
0
 77
1
 78
8
 79
3
170
0
171
3
172
1
173
0
174
0
175
0
176
0
177
0
178
0
179
2
271
2
272
2
273
2
274
3
275
0
276
0
277
2
278
44
279
0
280
0
281
0
282
0
283
0
284
8
285
0
286
0
288
0
289
3
290
0
371
-2
372
-2
  0
ENDTAB
  0
TABLE
  2
BLOCK_RECORD
  5
9
330
0
100
AcDbSymbolTable
 70
2
  0
BLOCK_RECORD
  5
17
330
9
100
AcDbSymbolTableRecord
100
AcDbBlockTableRecord
  2
*Model_Space
340
1A
 70
0
280
1
281
0
  0
BLOCK_RECORD
  5
1B
330
9
100
AcDbSymbolTableRecord
100
AcDbBlockTableRecord
  2
*Paper_Space
340
1E
 70
0
280
1
281
0
  0
ENDTAB
  0
ENDSEC
  0
SECTION
  2
BLOCKS
  0
BLOCK
  5
18
330
17
100
AcDbEntity
  8
0
100
AcDbBlockBegin
  2
*Model_Space
 70
0
 10
0.0
 20
0.0
 30
0.0
  3
*Model_Space
  1

  0
ENDBLK
  5
19
330
17
100
AcDbEntity
  8
0
100
AcDbBlockEnd
  0
BLOCK
  5
1C
330
1B
100
AcDbEntity
  8
0
100
AcDbBlockBegin
  2
*Paper_Space
 70
0
 10
0.0
 20
0.0
 30
0.0
  3
*Paper_Space
  1

  0
ENDBLK
  5
1D
330
1B
100
AcDbEntity
  8
0
100
AcDbBlockEnd
  0
ENDSEC
  0
SECTION
  2
ENTITIES
  0
LWPOLYLINE
  5
30
330
17
100
AcDbEntity
  8
K
100
AcDbPolyline
 90
5
 70
1
 10
40.06087281188875
 20
5.1080313729818805
 10
43.22701696594411
 20
8.833888326952755
 10
46.39316111999925
 20
5.1080313729818805
 10
43.22701696594411
 20
1.3821744190110063
 10
40.06087281188875
 20
5.1080313729818805
  0
LWPOLYLINE
  5
31
330
17
100
AcDbEntity
  8
K
100
AcDbPolyline
 90
7
 70
1
 10
2.5065918068369886
 20
0.7297513841392211
 10
0.0
 20
3.679459944410435
 10
3.1198922159563214
 20
7.3508885158389825
 10
6.854293620507823
 20
7.3508885158389825
 10
9.974185836464144
 20
3.679459944410435
 10
6.8474687517783295
 20
0.0
 10
2.5065918068369886
 20
0.7297513841392211
  0
LWPOLYLINE
  5
32
330
17
100
AcDbEntity
  8
K
100
AcDbPolyline
 90
5
 70
1
 10
2654.921919276984
 20
93.67945994441041
 10
2651.301964425887
 20
89.96474709787306
 10
2649.074139811132
 20
92.25088851583907
 10
2652.6940946622294
 20
95.96560136237642
 10
2654.921919276984
 20
93.67945994441041
  0
LWPOLYLINE
  5
33
330
17
100
AcDbEntity
  8
K
100
AcDbPolyline
 90
5
 70
1
 10
2647.125573716858
 20
113.10845850523354
 10
2650.7455285679553
 20
109.39374565869619
 10
2648.5177039532014
 20
107.10760424073018
 10
2644.897749102104
 20
110.82231708726754
 10
2647.125573716858
 20
113.10845850523354
  0
LWPOLYLINE
  5
34
330
17
100
AcDbEntity
  8
K
100
AcDbPolyline
 90
29
 70
1
 10
2632.408206235259
 20
103.72012656268814
 10
2633.760707211362
 20
105.10803137298174
 10
2630.369824681872
 20
108.58767557063764
 10
2623.409173500158
 20
110.0162469992092
 10
2618.447274611591
 20
115.10803137298198
 10
2620.6329190826496
 20
117.35088851583897
 10
2623.4171795553348
 20
117.35088851583897
 10
2626.8259203775733
 20
120.84885847506376
 10
2625.433790141231
 20
125.134572760778
 10
2627.5935702643637
 20
127.35088851583897
 10
2630.477380432368
 20
127.35088851583897
 10
2632.6329665963176
 20
123.66420182847348
 10
2628.4197160906187
 20
119.34066288310396
 10
2627.056185746949
 20
115.14299421654073
 10
2633.2276982330204
 20
110.2172797132417
 10
2638.804011848974
 20
111.64785030580227
 10
2640.9816899758816
 20
109.41316803864764
 10
2639.5895597395393
 20
106.55602518150475
 10
2640.9609876533164
 20
105.14869799125948
 10
2640.9609876533164
 20
102.22782241913775
 10
2639.592633637702
 20
99.41947676318507
 10
2647.967739295857
 20
92.25752911024986
 10
2645.7334434805152
 20
89.96474709787306
 10
2642.94918300783
 20
92.82188995501595
 10
2638.7652833953625
 20
88.52847020853893
 10
2632.390649656706
 20
96.52363659919239
 10
2633.779634149036
 20
99.37432327874474
 10
2632.408206235259
 20
100.7816504689898
 10
2632.408206235259
 20
103.72012656268814
  0
LWPOLYLINE
  5
35
330
17
100
AcDbEntity
  8
K
100
AcDbPolyline
 90
5
 70
1
 10
2631.812141117088
 20
87.10760424073017
 10
2629.584316502334
 20
89.39374565869618
 10
2631.812141117088
 20
91.6798870766622
 10
2634.0399657318417
 20
89.39374565869618
 10
2631.812141117088
 20
87.10760424073017
  0
LWPOLYLINE
  5
36
330
17
100
AcDbEntity
  8
K
100
AcDbPolyline
 90
5
 70
1
 10
2628.471444786471
 20
103.67945994441041
 10
2626.2436201717164
 20
101.3933185264444
 10
2624.0157955569625
 20
103.67945994441041
 10
2626.2436201717164
 20
105.96560136237643
 10
2628.471444786471
 20
103.67945994441041
  0
LWPOLYLINE
  5
37
330
17
100
AcDbEntity
  8
K
100
AcDbPolyline
 90
20
 70
1
 10
3057.9495158274062
 20
183.6794599444105
 10
3054.9865836462145
 20
188.51425001549637
 10
3052.360144733701
 20
185.6571071583537
 10
3050.070199089864
 20
189.39374565869628
 10
3052.696638002379
 20
193.6794599444105
 10
3050.0786626288123
 20
197.95136377765155
 10
3050.954142266317
 20
200.80850663479444
 10
3048.3192398148553
 20
205.10803137298183
 10
3049.19471945236
 20
206.53660280155316
 10
3044.817321264837
 20
213.6794599444103
 10
3047.0673039332237
 20
217.35088851583905
 10
3053.295568834379
 20
217.35088851583905
 10
3055.862063283719
 20
214.55895558761017
 10
3058.448539220784
 20
218.7794599444104
 10
3060.311500539054
 20
218.7794599444104
 10
3062.544198611185
 20
215.13623566158824
 10
3062.544198611185
 20
182.22268422723255
 10
3060.269014854579
 20
178.510133563345
 10
3057.068004094347
 20
182.2410455920358
 10
3057.9495158274062
 20
183.6794599444105
  0
LWPOLYLINE
  5
38
330
17
100
AcDbEntity
  8
K
100
AcDbPolyline
 90
26
 70
1
 10
3026.449533473495
 20
182.22268422723255
 10
3026.449533473495
 20
215.13623566158824
 10
3028.682231545627
 20
218.7794599444104
 10
3030.5451928638963
 20
218.7794599444104
 10
3032.7778909360272
 20
215.13623566158824
 10
3032.7778909360272
 20
203.69443716420398
 10
3033.6621916308404
 20
200.80850663479444
 10
3032.786711993336
 20
199.37993520622288
 10
3033.6621916308404
 20
196.52279234908022
 10
3032.795175532283
 20
195.10803137298183
 10
3034.8665900297897
 20
191.72798295026806
 10
3037.8219477037474
 20
196.55041325402655
 10
3036.943549220519
 20
199.41708181439967
 10
3040.132983191972
 20
203.13450061119
 10
3042.4198952009338
 20
199.40281227064727
 10
3040.6689359259235
 20
195.11709798493305
 10
3043.300931182339
 20
190.8223170872676
 10
3042.4254515448342
 20
189.39374565869628
 10
3043.300931182339
 20
187.96517423012472
 10
3040.135505900999
 20
182.7999643012106
 10
3034.8826280759704
 20
188.51425001549637
 10
3032.795175532283
 20
185.10803137298183
 10
3034.546134807293
 20
182.25088851583894
 10
3032.289652834095
 20
178.56885464788454
 10
3028.23861560248
 20
179.3033340752175
 10
3026.449533473495
 20
182.22268422723255
  0
LWPOLYLINE
  5
39
330
17
100
AcDbEntity
  8
K
100
AcDbPolyline
 90
6
 70
1
 10
3009.8154203609074
 20
217.99337851873113
 10
3011.2286398171645
 20
220.29941152169675
 10
3013.534623507182
 20
216.5366028015534
 10
3011.2286398171645
 20
212.77379408141007
 10
3009.8154203609074
 20
215.07982708437544
 10
3009.8154203609074
 20
217.99337851873113
  0
LWPOLYLINE
  5
3A
330
17
100
AcDbEntity
  8
K
100
AcDbPolyline
 90
7
 70
1
 10
3010.265170198779
 20
204.72870421552147
 10
3012.641859273421
 20
200.850521375874
 10
3012.641859273421
 20
196.56480709015977
 10
3013.534623507182
 20
195.10803137298183
 10
3011.264281490286
 20
191.40338125951152
 10
3009.813254979127
 20
192.19262292283923
 10
3010.265170198779
 20
204.72870421552147
  0
LWPOLYLINE
  5
3B
330
17
100
AcDbEntity
  8
K
100
AcDbPolyline
 90
14
 70
1
 10
3911.060467960116
 20
137.08268856104988
 10
3908.9501047294675
 20
140.84596756546784
 10
3915.094948740388
 20
145.95956870013538
 10
3917.2260059355945
 20
143.67945994441044
 10
3915.8823889205873
 20
142.24186693792018
 10
3919.837353459586
 20
136.59975384698586
 10
3921.76227702432
 20
134.5401962321444
 10
3923.097462205325
 20
135.96876766071574
 10
3925.22322537659
 20
133.69432320643182
 10
3923.1291595079165
 20
129.96010627021914
 10
3914.269147472181
 20
136.52297814055925
 10
3915.617066665004
 20
137.96517423012466
 10
3913.7511659382894
 20
139.96158079953358
 10
3911.060467960116
 20
137.08268856104988
  0
LWPOLYLINE
  5
3C
330
17
100
AcDbEntity
  8
K
100
AcDbPolyline
 90
9
 70
1
 10
3907.054653215293
 20
134.5181695197617
 10
3909.7659380114383
 20
137.4190884706281
 10
3911.87137356654
 20
133.66459668238906
 10
3905.7561876864784
 20
127.1216991480677
 10
3902.247128427975
 20
129.37439422101127
 10
3903.618064469917
 20
130.8412170166653
 10
3902.282879288912
 20
133.6983598738082
 10
3904.3842828532834
 20
135.94674094833303
 10
3907.054653215293
 20
134.5181695197617
  0
LWPOLYLINE
  5
3D
330
17
100
AcDbEntity
  8
K
100
AcDbPolyline
 90
9
 70
1
 10
3905.740054852259
 20
119.96158079953356
 10
3904.4048696712543
 20
121.3901522281049
 10
3903.0696844902495
 20
119.96158079953356
 10
3900.9300296739493
 20
122.2508885158391
 10
3903.0696844902495
 20
124.54019623214441
 10
3904.4048696712543
 20
123.11162480357308
 10
3905.740054852259
 20
124.54019623214441
 10
3907.87970966856
 20
122.2508885158391
 10
3905.740054852259
 20
119.96158079953356
  0
LWPOLYLINE
  5
3E
330
17
100
AcDbEntity
  8
K
100
AcDbPolyline
 90
5
 70
1
 10
3900.39931412824
 20
130.2544819464302
 10
3902.5389689445396
 20
127.96517423012466
 10
3900.39931412824
 20
125.67586651381934
 10
3898.2596593119397
 20
127.96517423012466
 10
3900.39931412824
 20
130.2544819464302
  0
LWPOLYLINE
  5
3F
330
17
100
AcDbEntity
  8
K
100
AcDbPolyline
 90
11
 70
1
 10
3891.801039580682
 20
130.88271311389167
 10
3897.180563786562
 20
125.1269313023795
 10
3895.845378605557
 20
122.26978844523684
 10
3897.1982282205204
 20
120.82231708726754
 10
3895.0585734042197
 20
118.53300937096223
 10
3892.9365830218776
 20
120.8034171578698
 10
3894.268870340045
 20
123.6543589215413
 10
3886.302595282688
 20
130.75723941893293
 10
3883.5840544740163
 20
135.12026311998036
 10
3887.0653354579617
 20
138.84503375048652
 10
3891.801039580682
 20
130.88271311389167
  0
LWPOLYLINE
  5
40
330
17
100
AcDbEntity
  8
K
100
AcDbPolyline
 90
5
 70
1
 10
3881.7270492103335
 20
148.84765989919947
 10
3883.8324847654358
 20
145.0931681109604
 10
3881.7228544283885
 20
142.83598486235348
 10
3878.213795169885
 20
145.08867993529685
 10
3881.7270492103335
 20
148.84765989919947
  0
LWPOLYLINE
  5
41
330
17
100
AcDbEntity
  8
K
100
AcDbPolyline
 90
5
 70
1
 10
3870.2207705108344
 20
129.39374565869622
 10
3872.360425327135
 20
131.68305337500152
 10
3874.5000801434353
 20
129.39374565869622
 10
3872.360425327135
 20
127.10443794239067
 10
3870.2207705108344
 20
129.39374565869622
  0
LWPOLYLINE
  5
42
330
17
100
AcDbEntity
  8
K
100
AcDbPolyline
 90
9
 70
1
 10
3867.568064582783
 20
145.12693130237952
 10
3869.690054965125
 20
147.39733908928733
 10
3871.8120453474676
 20
145.12693130237952
 10
3870.4768601664628
 20
142.26978844523686
 10
3871.8297097814248
 20
140.82231708726755
 10
3869.690054965125
 20
138.53300937096225
 10
3867.550400148825
 20
140.82231708726755
 10
3868.9032497637877
 20
142.26978844523686
 10
3867.568064582783
 20
145.12693130237952
  0
LWPOLYLINE
  5
43
330
17
100
AcDbEntity
  8
K
100
AcDbPolyline
 90
17
 70
1
 10
4789.400127230306
 20
7.868150159325071
 10
4787.954191351824
 20
9.393745658696107
 10
4794.15306405112
 20
15.934127173505841
 10
4799.568975895108
 20
14.505555744934394
 10
4800.9117604385665
 20
15.922317087267546
 10
4806.339025169137
 20
15.922317087267546
 10
4810.445747549568
 20
18.810963937145875
 10
4813.140562278698
 20
15.967686248568702
 10
4815.8485182006925
 20
18.824829105711594
 10
4817.979485142188
 20
16.57646275445357
 10
4817.979485142188
 20
13.63959999151021
 10
4815.89151839185
 20
11.436602801553342
 10
4813.183562469856
 20
11.436602801553342
 10
4811.829584508859
 20
10.008031372981897
 10
4805.041454708668
 20
10.008031372981897
 10
4799.622216649373
 20
7.149133784118633
 10
4789.400127230306
 20
7.868150159325071
  0
LWPOLYLINE
  5
44
330
17
100
AcDbEntity
  8
K
100
AcDbPolyline
 90
5
 70
1
 10
4808.263860766781
 20
22.25088851583901
 10
4810.432606356704
 20
24.539114819997376
 10
4812.601351946627
 20
22.25088851583901
 10
4810.432606356704
 20
19.962662211680637
 10
4808.263860766781
 20
22.25088851583901
  0
LWPOLYLINE
  5
45
330
17
100
AcDbEntity
  8
K
100
AcDbPolyline
 90
14
 70
1
 10
5047.790595709952
 20
131.39185649861383
 10
5046.425493057197
 20
129.9632850700425
 10
5042.874420931827
 20
133.67945994441044
 10
5045.060390404443
 20
135.96706339020682
 10
5047.810907419768
 20
133.0886644551783
 10
5050.52080101546
 20
134.5066078448065
 10
5053.230694611152
 20
133.0886644551783
 10
5055.9812116264775
 20
135.96706339020682
 10
5062.262489057355
 20
129.39374565869622
 10
5058.74532339271
 20
125.71305368441355
 10
5055.238764474973
 20
126.44697210034717
 10
5051.85345377242
 20
131.40676130846617
 10
5049.135386652889
 20
129.98454114792835
 10
5047.790595709952
 20
131.39185649861383
  0
LWPOLYLINE
  5
46
330
17
100
AcDbEntity
  8
K
100
AcDbPolyline
 90
6
 70
1
 10
5041.547633772557
 20
113.6241710496
 10
5041.547633772557
 20
118.00527115554726
 10
5045.083774867965
 20
121.70582080000503
 10
5048.5953282809105
 20
115.09114698194045
 10
5045.0763172679435
 20
111.40852386212585
 10
5041.547633772557
 20
113.6241710496
  0
LWPOLYLINE
  5
47
330
17
100
AcDbEntity
  8
K
100
AcDbPolyline
 90
14
 70
1
 10
5041.78594926604
 20
130.82231708726755
 10
5043.695287751689
 20
128.8242062473497
 10
5045.060390404443
 20
130.25277767592124
 10
5045.826281771302
 20
129.4512771280487
 10
5047.228034726058
 20
126.51742564510249
 10
5045.103148712233
 20
124.29374565869611
 10
5042.3729434067245
 20
124.29374565869611
 10
5039.615906656927
 20
121.40852386212563
 10
5036.048802177147
 20
123.64829544220113
 10
5038.790961647518
 20
127.95277466658872
 10
5036.048907668056
 20
130.82231708726755
 10
5039.584052929924
 20
134.5218245981237
 10
5043.169703928665
 20
132.27040772806185
 10
5041.78594926604
 20
130.82231708726755
  0
LWPOLYLINE
  5
48
330
17
100
AcDbEntity
  8
K
100
AcDbPolyline
 90
10
 70
1
 10
5030.044261224145
 20
117.39563481877835
 10
5032.7585396661525
 20
120.23611031240944
 10
5036.344190664892
 20
117.98469344234763
 10
5030.080745537266
 20
111.43003710518573
 10
5025.199074648094
 20
112.15984256203315
 10
5023.790471519768
 20
115.10803137298198
 10
5025.146411597022
 20
117.94599707367381
 10
5023.762983793268
 20
119.3937456586962
 10
5025.948953265882
 20
121.68134910449257
 10
5030.044261224145
 20
117.39563481877835
  0
LWPOLYLINE
  5
49
330
17
100
AcDbEntity
  8
K
100
AcDbPolyline
 90
6
 70
1
 10
5032.7585396661525
 20
122.83709529069719
 10
5030.626812550523
 20
125.06793444755915
 10
5030.626812550523
 20
128.00527115554726
 10
5032.787461211855
 20
130.26637652995566
 10
5036.328390782864
 20
125.07859147384393
 10
5032.7585396661525
 20
122.83709529069719
  0
LWPOLYLINE
  5
4A
330
17
100
AcDbEntity
  8
K
100
AcDbPolyline
 90
14
 70
1
 10
5012.255168430548
 20
130.0080313729819
 10
5009.52496312504
 20
130.0080313729819
 10
5007.381751960215
 20
132.25088851583888
 10
5010.932824085585
 20
135.96706339020682
 10
5013.663029391093
 20
133.10992053306416
 10
5014.985373736057
 20
134.4937456586961
 10
5019.166198309901
 20
134.4937456586961
 10
5021.309409474726
 20
132.25088851583888
 10
5019.944306821971
 20
130.82231708726755
 10
5021.309409474726
 20
129.39374565869622
 10
5019.136520620159
 20
127.11983099826263
 10
5015.041212661896
 20
129.97697385540553
 10
5013.663029391093
 20
128.53471364147094
 10
5012.255168430548
 20
130.0080313729819
  0
LWPOLYLINE
  5
4B
330
17
100
AcDbEntity
  8
K
100
AcDbPolyline
 90
7
 70
1
 10
5017.796240392899
 20
117.14580751202686
 10
5011.567996607534
 20
117.87000955109428
 10
5010.099995278408
 20
119.40626380396213
 10
5014.994887840773
 20
123.06517423012475
 10
5019.166198309901
 20
123.06517423012475
 10
5021.309409474726
 20
120.82231708726754
 10
5017.796240392899
 20
117.14580751202686
  0
LWPOLYLINE
  5
4C
330
17
100
AcDbEntity
  8
K
100
AcDbPolyline
 90
9
 70
1
 10
5003.304769152953
 20
140.8414942437184
 10
5001.939666500199
 20
143.69863710086128
 10
5004.107310821813
 20
145.96706339020704
 10
5010.388588252691
 20
139.39374565869622
 10
5008.222930489892
 20
137.12739829078546
 10
5005.492725184384
 20
138.55596971935702
 10
5002.742208169058
 20
135.67757078432808
 10
5000.556238696445
 20
137.96517423012466
 10
5003.304769152953
 20
140.8414942437184
  0
LWPOLYLINE
  5
4D
330
17
100
AcDbEntity
  8
K
100
AcDbPolyline
 90
5
 70
1
 10
4997.26587069454
 20
138.80753888383813
 10
5000.85152169328
 20
136.5561220137763
 10
4998.662827074297
 20
134.26566671926855
 10
4995.077176075557
 20
136.51708358933035
 10
4997.26587069454
 20
138.80753888383813
  0
LWPOLYLINE
  5
4E
330
17
100
AcDbEntity
  8
K
100
AcDbPolyline
 90
7
 70
1
 10
5693.285306263355
 20
155.9650940649626
 10
5694.707118482712
 20
157.41403619818018
 10
5696.9149306067175
 20
153.66413640463273
 10
5694.698056209183
 20
151.404961335726
 10
5689.628221703603
 20
155.0953707219005
 10
5691.883483328675
 20
157.39366549353417
 10
5693.285306263355
 20
155.9650940649626
  0
LWPOLYLINE
  5
4F
330
17
100
AcDbEntity
  8
K
100
AcDbPolyline
 90
9
 70
1
 10
5683.472545720594
 20
154.53652263639128
 10
5686.276191589954
 20
157.39366549353417
 10
5688.519029621289
 20
155.1080313729818
 10
5685.715383751928
 20
152.2508885158389
 10
5687.117206686608
 20
150.82231708726758
 10
5684.874368655274
 20
148.53668296671518
 10
5679.82788475458
 20
153.67945994441047
 10
5682.070722785914
 20
155.9650940649626
 10
5683.472545720594
 20
154.53652263639128
  0
LWPOLYLINE
  5
50
330
17
100
AcDbEntity
  8
K
100
AcDbPolyline
 90
9
 70
1
 10
5671.4169471465
 20
159.39374565869602
 10
5673.659785177834
 20
161.6793797792484
 10
5675.883479367092
 20
159.4132547886622
 10
5674.481656432413
 20
156.55611193151952
 10
5675.902623209168
 20
155.1080313729818
 10
5673.659785177834
 20
152.82239725242962
 10
5671.436090988575
 20
155.0885222430156
 10
5672.837913923256
 20
157.9456651001585
 10
5671.4169471465
 20
159.39374565869602
  0
LWPOLYLINE
  5
51
330
17
100
AcDbEntity
  8
K
100
AcDbPolyline
 90
6
 70
1
 10
5652.645300056874
 20
177.40676975627778
 10
5656.266610418002
 20
172.2401966156335
 10
5654.0499429186775
 20
169.98123239280872
 10
5650.429706755614
 20
172.19482120746775
 10
5650.429706755614
 20
175.1489002285289
 10
5652.645300056874
 20
177.40676975627778
  0
LWPOLYLINE
  5
52
330
17
100
AcDbEntity
  8
K
100
AcDbPolyline
 90
5
 70
1
 10
5649.2529508275975
 20
156.52127926177562
 10
5647.005160134237
 20
154.23059797635497
 10
5644.797348010231
 20
157.98049776990243
 10
5647.045138703592
 20
160.27117905532307
 10
5649.2529508275975
 20
156.52127926177562
  0
LWPOLYLINE
  5
53
330
17
100
AcDbEntity
  8
K
100
AcDbPolyline
 90
5
 70
1
 10
5645.623326484234
 20
177.3936654935342
 10
5647.866164515568
 20
175.1080313729818
 10
5645.623326484234
 20
172.82239725242965
 10
5643.3804884529
 20
175.1080313729818
 10
5645.623326484234
 20
177.3936654935342
  0
LWPOLYLINE
  5
54
330
17
100
AcDbEntity
  8
K
100
AcDbPolyline
 90
12
 70
1
 10
5639.17501964886
 20
169.39374565869625
 10
5637.77319671418
 20
170.82231708726758
 10
5639.99605356706
 20
173.08758876407504
 10
5642.799699436421
 20
171.65901733550348
 10
5644.221503549554
 20
173.10795120781995
 10
5646.464341580888
 20
170.82231708726758
 10
5645.062518646208
 20
169.39374565869625
 10
5646.464341580888
 20
167.9651742301247
 10
5644.257327447252
 20
165.71604757099624
 10
5639.267358081244
 20
166.44250243908965
 10
5637.77319671418
 20
167.9651742301247
 10
5639.17501964886
 20
169.39374565869625
  0
LWPOLYLINE
  5
55
330
17
100
AcDbEntity
  8
K
100
AcDbPolyline
 90
11
 70
1
 10
7009.627716507961
 20
181.45076497091674
 10
7006.842571983785
 20
186.54571776322925
 10
7016.205138823757
 20
198.77945994441038
 10
7020.581854414985
 20
198.77945994441038
 10
7030.471942572092
 20
210.26660308759548
 10
7033.300613020584
 20
206.5704772736121
 10
7033.300613020584
 20
199.35987118663712
 10
7027.253438935936
 20
191.45823801907036
 10
7021.7869613497705
 20
188.60109516192747
 10
7015.200256575136
 20
179.994475907429
 10
7009.627716507961
 20
181.45076497091674
  0
ENDSEC
  0
SECTION
  2
OBJECTS
  0
DICTIONARY
  5
A
330
0
100
AcDbDictionary
281
1
  3
ACAD_COLOR
350
B
  3
ACAD_GROUP
350
C
  3
ACAD_LAYOUT
350
D
  3
ACAD_MATERIAL
350
E
  3
ACAD_MLEADERSTYLE
350
F
  3
ACAD_MLINESTYLE
350
10
  3
ACAD_PLOTSETTINGS
350
11
  3
ACAD_PLOTSTYLENAME
350
12
  3
ACAD_SCALELIST
350
14
  3
ACAD_TABLESTYLE
350
15
  3
ACAD_VISUALSTYLE
350
16
  3
EZDXF_META
350
2D
  0
DICTIONARY
  5
B
330
A
100
AcDbDictionary
281
1
  0
DICTIONARY
  5
C
330
A
100
AcDbDictionary
281
1
  0
DICTIONARY
  5
D
330
A
100
AcDbDictionary
281
1
  3
Model
350
1A
  3
Layout1
350
1E
  0
DICTIONARY
  5
E
330
A
100
AcDbDictionary
281
1
  3
ByBlock
350
1F
  3
ByLayer
350
20
  3
Global
350
21
  0
DICTIONARY
  5
F
330
A
100
AcDbDictionary
281
1
  3
Standard
350
2C
  0
DICTIONARY
  5
10
330
A
100
AcDbDictionary
281
1
  3
Standard
350
22
  0
DICTIONARY
  5
11
330
A
100
AcDbDictionary
281
1
  0
ACDBDICTIONARYWDFLT
  5
12
330
A
100
AcDbDictionary
281
1
  3
Normal
350
13
100
AcDbDictionaryWithDefault
340
13
  0
ACDBPLACEHOLDER
  5
13
330
12
  0
DICTIONARY
  5
14
330
A
100
AcDbDictionary
281
1
  0
DICTIONARY
  5
15
330
A
100
AcDbDictionary
281
1
  0
DICTIONARY
  5
16
330
A
100
AcDbDictionary
281
1
  0
LAYOUT
  5
1A
330
D
100
AcDbPlotSettings
  1

  4
A3
  6

 40
7.5
 41
20.0
 42
7.5
 43
20.0
 44
420.0
 45
297.0
 46
0.0
 47
0.0
 48
0.0
 49
0.0
140
0.0
141
0.0
142
1.0
143
1.0
 70
1024
 72
1
 73
0
 74
5
  7

 75
16
 76
0
 77
2
 78
300
147
1.0
148
0.0
149
0.0
100
AcDbLayout
  1
Model
 70
1
 71
0
 10
0.0
 20
0.0
 11
420.0
 21
297.0
 12
0.0
 22
0.0
 32
0.0
 14
1e+20
 24
1e+20
 34
1e+20
 15
-1e+20
 25
-1e+20
 35
-1e+20
146
0.0
 13
0.0
 23
0.0
 33
0.0
 16
1.0
 26
0.0
 36
0.0
 17
0.0
 27
1.0
 37
0.0
 76
1
330
17
  0
LAYOUT
  5
1E
330
D
100
AcDbPlotSettings
  1

  4
A3
  6

 40
7.5
 41
20.0
 42
7.5
 43
20.0
 44
420.0
 45
297.0
 46
0.0
 47
0.0
 48
0.0
 49
0.0
140
0.0
141
0.0
142
1.0
143
1.0
 70
0
 72
1
 73
0
 74
5
  7

 75
16
 76
0
 77
2
 78
300
147
1.0
148
0.0
149
0.0
100
AcDbLayout
  1
Layout1
 70
1
 71
1
 10
0.0
 20
0.0
 11
420.0
 21
297.0
 12
0.0
 22
0.0
 32
0.0
 14
1e+20
 24
1e+20
 34
1e+20
 15
-1e+20
 25
-1e+20
 35
-1e+20
146
0.0
 13
0.0
 23
0.0
 33
0.0
 16
1.0
 26
0.0
 36
0.0
 17
0.0
 27
1.0
 37
0.0
 76
1
330
1B
  0
MATERIAL
  5
1F
102
{ACAD_REACTORS
330
E
102
}
330
E
100
AcDbMaterial
  1
ByBlock
  2

 70
0
 40
1.0
 71
1
 41
1.0
 91
-1023410177
 42
1.0
 72
1
  3

 73
1
 74
1
 75
1
 44
0.5
 73
0
 45
1.0
 46
1.0
 77
1
  4

 78
1
 79
1
170
1
 48
1.0
171
1
  6

172
1
173
1
174
1
140
1.0
141
1.0
175
1
  7

176
1
177
1
178
1
143
1.0
179
1
  8

270
1
271
1
272
1
145
1.0
146
1.0
273
1
  9

274
1
275
1
276
1
 42
1.0
 72
1
  3

 73
1
 74
1
 75
1
 94
63
  0
MATERIAL
  5
20
102
{ACAD_REACTORS
330
E
102
}
330
E
100
AcDbMaterial
  1
ByLayer
  2

 70
0
 40
1.0
 71
1
 41
1.0
 91
-1023410177
 42
1.0
 72
1
  3

 73
1
 74
1
 75
1
 44
0.5
 73
0
 45
1.0
 46
1.0
 77
1
  4

 78
1
 79
1
170
1
 48
1.0
171
1
  6

172
1
173
1
174
1
140
1.0
141
1.0
175
1
  7

176
1
177
1
178
1
143
1.0
179
1
  8

270
1
271
1
272
1
145
1.0
146
1.0
273
1
  9

274
1
275
1
276
1
 42
1.0
 72
1
  3

 73
1
 74
1
 75
1
 94
63
  0
MATERIAL
  5
21
102
{ACAD_REACTORS
330
E
102
}
330
E
100
AcDbMaterial
  1
Global
  2

 70
0
 40
1.0
 71
1
 41
1.0
 91
-1023410177
 42
1.0
 72
1
  3

 73
1
 74
1
 75
1
 44
0.5
 73
0
 45
1.0
 46
1.0
 77
1
  4

 78
1
 79
1
170
1
 48
1.0
171
1
  6

172
1
173
1
174
1
140
1.0
141
1.0
175
1
  7

176
1
177
1
178
1
143
1.0
179
1
  8

270
1
271
1
272
1
145
1.0
146
1.0
273
1
  9

274
1
275
1
276
1
 42
1.0
 72
1
  3

 73
1
 74
1
 75
1
 94
63
  0
MLINESTYLE
  5
22
102
{ACAD_REACTORS
330
10
102
}
330
10
100
AcDbMlineStyle
  2
Standard
 70
0
  3

 62
256
 51
90.0
 52
90.0
 71
2
 49
0.5
 62
256
  6
BYLAYER
 49
-0.5
 62
256
  6
BYLAYER
  0
MLEADERSTYLE
  5
2C
102
{ACAD_REACTORS
330
F
102
}
330
F
100
AcDbMLeaderStyle
179
2
170
2
171
1
172
0
 90
2
 40
0.0
 41
0.0
173
1
 91
-1056964608
 92
-2
290
1
 42
2.0
291
1
 43
8.0
  3
Standard
 44
4.0
300

342
29
174
1
175
1
176
0
178
1
 93
-1056964608
 45
4.0
292
0
297
0
 46
4.0
 94
-1056964608
 47
1.0
 49
1.0
140
1.0
294
1
141
0.0
177
0
142
1.0
295
0
296
0
143
3.75
271
0
272
9
273
9
  0
DICTIONARY
  5
2D
330
A
100
AcDbDictionary
280
1
281
1
  3
CREATED_BY_EZDXF
350
2E
  3
WRITTEN_BY_EZDXF
350
58
  0
DICTIONARYVAR
  5
2E
330
2D
100
DictionaryVariables
280
0
  1
1.4.4 @ 2026-07-23T17:13:43.171228+00:00
  0
DICTIONARYVAR
  5
58
330
2D
100
DictionaryVariables
280
0
  1
1.4.4 @ 2026-07-23T17:13:43.175601+00:00
  0
ENDSEC
  0
EOF
