  0
SECTION
  2
HEADER
  9
$ACADVER
  1
AC1027
  9
$ACADMAINTVER
 70
105
  9
$DWGCODEPAGE
  3
ANSI_1252
  9
$LASTSAVEDBY
  1
ezdxf
  9
$REQUIREDVERSIONS
160
0
  9
$INSBASE
 10
0.0
 20
0.0
 30
0.0
  9
$EXTMIN
 10
1e+20
 20
1e+20
 30
1e+20
  9
$EXTMAX
 10
-1e+20
 20
-1e+20
 30
-1e+20
  9
$LIMMIN
 10
0.0
 20
0.0
  9
$LIMMAX
 10
420.0
 20
297.0
  9
$ORTHOMODE
 70
0
  9
$REGENMODE
 70
1
  9
$FILLMODE
 70
1
  9
$QTEXTMODE
 70
0
  9
$MIRRTEXT
 70
1
  9
$LTSCALE
 40
1.0
  9
$ATTMODE
 70
1
  9
$TEXTSIZE
 40
2.5
  9
$TRACEWID
 40
1.0
  9
$TEXTSTYLE
  7
Standard
  9
$CLAYER
  8
0
  9
$CELTYPE
  6
ByLayer
  9
$CECOLOR
 62
256
  9
$CELTSCALE
 40
1.0
  9
$DISPSILH
 70
0
  9
$DIMSCALE
 40
1.0
  9
$DIMASZ
 40
2.5
  9
$DIMEXO
 40
0.625
  9
$DIMDLI
 40
3.75
  9
$DIMRND
 40
0.0
  9
$DIMDLE
 40
0.0
  9
$DIMEXE
 40
1.25
  9
$DIMTP
 40
0.0
  9
$DIMTM
 40
0.0
  9
$DIMTXT
 40
2.5
  9
$DIMCEN
 40
2.5
  9
$DIMTSZ
 40
0.0
  9
$DIMTOL
 70
0
  9
$DIMLIM
 70
0
  9
$DIMTIH
 70
0
  9
$DIMTOH
 70
0
  9
$DIMSE1
 70
0
  9
$DIMSE2
 70
0
  9
$DIMTAD
 70
1
  9
$DIMZIN
 70
8
  9
$DIMBLK
  1

  9
$DIMASO
 70
1
  9
$DIMSHO
 70
1
  9
$DIMPOST
  1

  9
$DIMAPOST
  1

  9
$DIMALT
 70
0
  9
$DIMALTD
 70
3
  9
$DIMALTF
 40
0.03937007874
  9
$DIMLFAC
 40
1.0
  9
$DIMTOFL
 70
1
  9
$DIMTVP
 40
0.0
  9
$DIMTIX
 70
0
  9
$DIMSOXD
 70
0
  9
$DIMSAH
 70
0
  9
$DIMBLK1
  1

  9
$DIMBLK2
  1

  9
$DIMSTYLE
  2
ISO-25
  9
$DIMCLRD
 70
0
  9
$DIMCLRE
 70
0
  9
$DIMCLRT
 70
0
  9
$DIMTFAC
 40
1.0
  9
$DIMGAP
 40
0.625
  9
$DIMJUST
 70
0
  9
$DIMSD1
 70
0
  9
$DIMSD2
 70
0
  9
$DIMTOLJ
 70
0
  9
$DIMTZIN
 70
8
  9
$DIMALTZ
 70
0
  9
$DIMALTTZ
 70
0
  9
$DIMUPT
 70
0
  9
$DIMDEC
 70
2
  9
$DIMTDEC
 70
2
  9
$DIMALTU
 70
2
  9
$DIMALTTD
 70
3
  9
$DIMTXSTY
  7
Standard
  9
$DIMAUNIT
 70
0
  9
$DIMADEC
 70
0
  9
$DIMALTRND
 40
0.0
  9
$DIMAZIN
 70
0
  9
$DIMDSEP
 70
44
  9
$DIMATFIT
 70
3
  9
$DIMFRAC
 70
0
  9
$DIMLDRBLK
  1

  9
$DIMLUNIT
 70
2
  9
$DIMLWD
 70
-2
  9
$DIMLWE
 70
-2
  9
$DIMTMOVE
 70
0
  9
$DIMFXL
 40
1.0
  9
$DIMFXLON
 70
0
  9
$DIMJOGANG
 40
0.785398163397
  9
$DIMTFILL
 70
0
  9
$DIMTFILLCLR
 70
0
  9
$DIMARCSYM
 70
0
  9
$DIMLTYPE
  6

  9
$DIMLTEX1
  6

  9
$DIMLTEX2
  6

  9
$DIMTXTDIRECTION
 70
0
  9
$LUNITS
 70
2
  9
$LUPREC
 70
4
  9
$SKETCHINC
 40
1.0
  9
$FILLETRAD
 40
10.0
  9
$AUNITS
 70
0
  9
$AUPREC
 70
2
  9
$MENU
  1
.
  9
$ELEVATION
 40
0.0
  9
$PELEVATION
 40
0.0
  9
$THICKNESS
 40
0.0
  9
$LIMCHECK
 70
0
  9
$CHAMFERA
 40
0.0
  9
$CHAMFERB
 40
0.0
  9
$CHAMFERC
 40
0.0
  9
$CHAMFERD
 40
0.0
  9
$SKPOLY
 70
0
  9
$TDCREATE
 40
2461244.770439815
  9
$TDUCREATE
 40
2458532.153996898
  9
$TDUPDATE
 40
2461244.770439815
  9
$TDUUPDATE
 40
2458532.1544311
  9
$TDINDWG
 40
0.0
  9
$TDUSRTIMER
 40
0.0
  9
$USRTIMER
 70
1
  9
$ANGBASE
 50
0.0
  9
$ANGDIR
 70
0
  9
$PDMODE
 70
0
  9
$PDSIZE
 40
0.0
  9
$PLINEWID
 40
0.0
  9
$SPLFRAME
 70
0
  9
$SPLINETYPE
 70
6
  9
$SPLINESEGS
 70
8
  9
$HANDSEED
  5
5D
  9
$SURFTAB1
 70
6
  9
$SURFTAB2
 70
6
  9
$SURFTYPE
 70
6
  9
$SURFU
 70
6
  9
$SURFV
 70
6
  9
$UCSBASE
  2

  9
$UCSNAME
  2

  9
$UCSORG
 10
0.0
 20
0.0
 30
0.0
  9
$UCSXDIR
 10
1.0
 20
0.0
 30
0.0
  9
$UCSYDIR
 10
0.0
 20
1.0
 30
0.0
  9
$UCSORTHOREF
  2

  9
$UCSORTHOVIEW
 70
0
  9
$UCSORGTOP
 10
0.0
 20
0.0
 30
0.0
  9
$UCSORGBOTTOM
 10
0.0
 20
0.0
 30
0.0
  9
$UCSORGLEFT
 10
0.0
 20
0.0
 30
0.0
  9
$UCSORGRIGHT
 10
0.0
 20
0.0
 30
0.0
  9
$UCSORGFRONT
 10
0.0
 20
0.0
 30
0.0
  9
$UCSORGBACK
 10
0.0
 20
0.0
 30
0.0
  9
$PUCSBASE
  2

  9
$PUCSNAME
  2

  9
$PUCSORG
 10
0.0
 20
0.0
 30
0.0
  9
$PUCSXDIR
 10
1.0
 20
0.0
 30
0.0
  9
$PUCSYDIR
 10
0.0
 20
1.0
 30
0.0
  9
$PUCSORTHOREF
  2

  9
$PUCSORTHOVIEW
 70
0
  9
$PUCSORGTOP
 10
0.0
 20
0.0
 30
0.0
  9
$PUCSORGBOTTOM
 10
0.0
 20
0.0
 30
0.0
  9
$PUCSORGLEFT
 10
0.0
 20
0.0
 30
0.0
  9
$PUCSORGRIGHT
 10
0.0
 20
0.0
 30
0.0
  9
$PUCSORGFRONT
 10
0.0
 20
0.0
 30
0.0
  9
$PUCSORGBACK
 10
0.0
 20
0.0
 30
0.0
  9
$USERI1
 70
0
  9
$USERI2
 70
0
  9
$USERI3
 70
0
  9
$USERI4
 70
0
  9
$USERI5
 70
0
  9
$USERR1
 40
0.0
  9
$USERR2
 40
0.0
  9
$USERR3
 40
0.0
  9
$USERR4
 40
0.0
  9
$USERR5
 40
0.0
  9
$WORLDVIEW
 70
1
  9
$SHADEDGE
 70
3
  9
$SHADEDIF
 70
70
  9
$TILEMODE
 70
1
  9
$MAXACTVP
 70
64
  9
$PINSBASE
 10
0.0
 20
0.0
 30
0.0
  9
$PLIMCHECK
 70
0
  9
$PEXTMIN
 10
1e+20
 20
1e+20
 30
1e+20
  9
$PEXTMAX
 10
-1e+20
 20
-1e+20
 30
-1e+20
  9
$PLIMMIN
 10
0.0
 20
0.0
  9
$PLIMMAX
 10
420.0
 20
297.0
  9
$UNITMODE
 70
0
  9
$VISRETAIN
 70
1
  9
$PLINEGEN
 70
0
  9
$PSLTSCALE
 70
1
  9
$TREEDEPTH
 70
3020
  9
$CMLSTYLE
  2
Standard
  9
$CMLJUST
 70
0
  9
$CMLSCALE
 40
20.0
  9
$PROXYGRAPHICS
 70
1
  9
$MEASUREMENT
 70
1
  9
$CELWEIGHT
370
-1
  9
$ENDCAPS
280
0
  9
$JOINSTYLE
280
0
  9
$LWDISPLAY
290
0
  9
$INSUNITS
 70
4
  9
$HYPERLINKBASE
  1

  9
$STYLESHEET
  1

  9
$XEDIT
290
1
  9
$CEPSNTYPE
380
0
  9
$PSTYLEMODE
290
1
  9
$FINGERPRINTGUID
  2
{52CE53E7-DE92-42CA-BBD2-ADD527E1AD61}
  9
$VERSIONGUID
  2
{1995E4FC-D2DF-4B68-AF79-F1BD5684A5C9}
  9
$EXTNAMES
290
1
  9
$PSVPSCALE
 40
0.0
  9
$OLESTARTUP
290
0
  9
$SORTENTS
280
127
  9
$INDEXCTL
280
0
  9
$HIDETEXT
280
1
  9
$XCLIPFRAME
280
1
  9
$HALOGAP
280
0
  9
$OBSCOLOR
 70
257
  9
$OBSLTYPE
280
0
  9
$INTERSECTIONDISPLAY
280
0
  9
$INTERSECTIONCOLOR
 70
257
  9
$DIMASSOC
280
2
  9
$PROJECTNAME
  1

  9
$CAMERADISPLAY
290
0
  9
$LENSLENGTH
 40
50.0
  9
$CAMERAHEIGHT
 40
0.0
  9
$STEPSPERSEC
 40
24.0
  9
$STEPSIZE
 40
100.0
  9
$3DDWFPREC
 40
2.0
  9
$PSOLWIDTH
 40
0.005
  9
$PSOLHEIGHT
 40
0.08
  9
$LOFTANG1
 40
1.570796326795
  9
$LOFTANG2
 40
1.570796326795
  9
$LOFTMAG1
 40
0.0
  9
$LOFTMAG2
 40
0.0
  9
$LOFTPARAM
 70
7
  9
$LOFTNORMALS
280
1
  9
$LATITUDE
 40
37.795
  9
$LONGITUDE
 40
-122.394
  9
$NORTHDIRECTION
 40
0.0
  9
$TIMEZONE
 70
-8000
  9
$LIGHTGLYPHDISPLAY
280
1
  9
$TILEMODELIGHTSYNCH
280
1
  9
$CMATERIAL
347
20
  9
$SOLIDHIST
280
0
  9
$SHOWHIST
280
1
  9
$DWFFRAME
280
2
  9
$DGNFRAME
280
2
  9
$REALWORLDSCALE
290
1
  9
$INTERFERECOLOR
 62
256
  9
$CSHADOW
280
0
  9
$SHADOWPLANELOCATION
 40
0.0
  0
ENDSEC
  0
SECTION
  2
CLASSES
  0
CLASS
  1
ACDBDICTIONARYWDFLT
  2
AcDbDictionaryWithDefault
  3
ObjectDBX Classes
 90
0
 91
0
280
0
281
0
  0
CLASS
  1
SUN
  2
AcDbSun
  3
SCENEOE
 90
1153
 91
0
280
0
281
0
  0
CLASS
  1
VISUALSTYLE
  2
AcDbVisualStyle
  3
ObjectDBX Classes
 90
4095
 91
0
280
0
281
0
  0
CLASS
  1
MATERIAL
  2
AcDbMaterial
  3
ObjectDBX Classes
 90
1153
 91
0
280
0
281
0
  0
CLASS
  1
SCALE
  2
AcDbScale
  3
ObjectDBX Classes
 90
1153
 91
0
280
0
281
0
  0
CLASS
  1
TABLESTYLE
  2
AcDbTableStyle
  3
ObjectDBX Classes
 90
4095
 91
0
280
0
281
0
  0
CLASS
  1
MLEADERSTYLE
  2
AcDbMLeaderStyle
  3
ACDB_MLEADERSTYLE_CLASS
 90
4095
 91
0
280
0
281
0
  0
CLASS
  1
DICTIONARYVAR
  2
AcDbDictionaryVar
  3
ObjectDBX Classes
 90
0
 91
0
280
0
281
0
  0
CLASS
  1
CELLSTYLEMAP
  2
AcDbCellStyleMap
  3
ObjectDBX Classes
 90
1152
 91
0
280
0
281
0
  0
CLASS
  1
MENTALRAYRENDERSETTINGS
  2
AcDbMentalRayRenderSettings
  3
SCENEOE
 90
1024
 91
0
280
0
281
0
  0
CLASS
  1
ACDBDETAILVIEWSTYLE
  2
AcDbDetailViewStyle
  3
ObjectDBX Classes
 90
1025
 91
0
280
0
281
0
  0
CLASS
  1
ACDBSECTIONVIEWSTYLE
  2
AcDbSectionViewStyle
  3
ObjectDBX Classes
 90
1025
 91
0
280
0
281
0
  0
CLASS
  1
RASTERVARIABLES
  2
AcDbRasterVariables
  3
ISM
 90
0
 91
0
280
0
281
0
  0
CLASS
  1
LAYOUT
  2
AcDbLayout
  3
ObjectDBX Classes
 90
0
 91
0
280
0
281
0
  0
CLASS
  1
ACDBPLACEHOLDER
  2
AcDbPlaceHolder
  3
ObjectDBX Classes
 90
0
 91
0
280
0
281
0
  0
ENDSEC
  0
SECTION
  2
TABLES
  0
TABLE
  2
VPORT
  5
8
330
0
100
AcDbSymbolTable
 70
1
  0
VPORT
  5
23
330
8
100
AcDbSymbolTableRecord
100
AcDbViewportTableRecord
  2
*Active
 70
0
 10
0.0
 20
0.0
 11
1.0
 21
1.0
 12
0.0
 22
0.0
 13
0.0
 23
0.0
 14
0.5
 24
0.5
 15
0.5
 25
0.5
 16
0.0
 26
0.0
 36
1.0
 17
0.0
 27
0.0
 37
0.0
 40
1000.0
 41
1.34
 42
50.0
 43
0.0
 44
0.0
 50
0.0
 51
0.0
 71
0
 72
1000
 73
1
 74
3
 75
0
 76
0
 77
0
 78
0
281
0
 65
0
146
0.0
  0
ENDTAB
  0
TABLE
  2
LTYPE
  5
2
330
0
100
AcDbSymbolTable
 70
3
  0
LTYPE
  5
24
330
2
100
AcDbSymbolTableRecord
100
AcDbLinetypeTableRecord
  2
ByBlock
 70
0
  3

 72
65
 73
0
 40
0.0
  0
LTYPE
  5
25
330
2
100
AcDbSymbolTableRecord
100
AcDbLinetypeTableRecord
  2
ByLayer
 70
0
  3

 72
65
 73
0
 40
0.0
  0
LTYPE
  5
26
330
2
100
AcDbSymbolTableRecord
100
AcDbLinetypeTableRecord
  2
Continuous
 70
0
  3

 72
65
 73
0
 40
0.0
  0
ENDTAB
  0
TABLE
  2
LAYER
  5
1
330
0
100
AcDbSymbolTable
 70
3
  0
LAYER
  5
27
330
1
100
AcDbSymbolTableRecord
100
AcDbLayerTableRecord
  2
0
 70
0
 62
7
  6
Continuous
370
-3
390
13
347
21
  0
LAYER
  5
28
330
1
100
AcDbSymbolTableRecord
100
AcDbLayerTableRecord
  2
Defpoints
 70
0
 62
7
  6
Continuous
290
0
370
-3
390
13
347
21
  0
LAYER
  5
2F
330
1
100
AcDbSymbolTableRecord
100
AcDbLayerTableRecord
  2
Y
 70
0
 62
7
  6
Continuous
370
-3
390
13
347
21
  0
ENDTAB
  0
TABLE
  2
STYLE
  5
5
330
0
100
AcDbSymbolTable
 70
1
  0
STYLE
  5
29
330
5
100
AcDbSymbolTableRecord
100
AcDbTextStyleTableRecord
  2
Standard
 70
0
 40
0.0
 41
1.0
 50
0.0
 71
0
 42
2.5
  3
txt
  4

  0
ENDTAB
  0
TABLE
  2
VIEW
  5
7
330
0
100
AcDbSymbolTable
 70
0
  0
ENDTAB
  0
TABLE
  2
UCS
  5
6
330
0
100
AcDbSymbolTable
 70
0
  0
ENDTAB
  0
TABLE
  2
APPID
  5
3
330
0
100
AcDbSymbolTable
 70
3
  0
APPID
  5
2A
330
3
100
AcDbSymbolTableRecord
100
AcDbRegAppTableRecord
  2
ACAD
 70
0
  0
APPID
  5
5A
330
3
100
AcDbSymbolTableRecord
100
AcDbRegAppTableRecord
  2
HATCHBACKGROUNDCOLOR
 70
0
  0
APPID
  5
5B
330
3
100
AcDbSymbolTableRecord
100
AcDbRegAppTableRecord
  2
EZDXF
 70
0
  0
ENDTAB
  0
TABLE
  2
DIMSTYLE
  5
4
330
0
100
AcDbSymbolTable
 70
1
100
AcDbDimStyleTable
  0
DIMSTYLE
105
2B
330
4
100
AcDbSymbolTableRecord
100
AcDbDimStyleTableRecord
  2
Standard
 70
0
 40
1.0
 41
2.5
 42
0.625
 43
3.75
 44
1.25
 45
0.0
 46
0.0
 47
0.0
 48
0.0
 49
2.5
140
2.5
141
2.5
142
0.0
143
0.03937007874
144
1.0
145
0.0
146
1.0
147
0.625
148
0.0
 69
0
 70
0
 71
0
 72
0
 73
0
 74
0
 75
0
 76
0
 77
1
 78
8
 79
3
170
0
171
3
172
1
173
0
174
0
175
0
176
0
177
0
178
0
179
2
271
2
272
2
273
2
274
3
275
0
276
0
277
2
278
44
279
0
280
0
281
0
282
0
283
0
284
8
285
0
286
0
288
0
289
3
290
0
371
-2
372
-2
  0
ENDTAB
  0
TABLE
  2
BLOCK_RECORD
  5
9
330
0
100
AcDbSymbolTable
 70
2
  0
BLOCK_RECORD
  5
17
330
9
100
AcDbSymbolTableRecord
100
AcDbBlockTableRecord
  2
*Model_Space
340
1A
 70
0
280
1
281
0
  0
BLOCK_RECORD
  5
1B
330
9
100
AcDbSymbolTableRecord
100
AcDbBlockTableRecord
  2
*Paper_Space
340
1E
 70
0
280
1
281
0
  0
ENDTAB
  0
ENDSEC
  0
SECTION
  2
BLOCKS
  0
BLOCK
  5
18
330
17
100
AcDbEntity
  8
0
100
AcDbBlockBegin
  2
*Model_Space
 70
0
 10
0.0
 20
0.0
 30
0.0
  3
*Model_Space
  1

  0
ENDBLK
  5
19
330
17
100
AcDbEntity
  8
0
100
AcDbBlockEnd
  0
BLOCK
  5
1C
330
1B
100
AcDbEntity
  8
0
100
AcDbBlockBegin
  2
*Paper_Space
 70
0
 10
0.0
 20
0.0
 30
0.0
  3
*Paper_Space
  1

  0
ENDBLK
  5
1D
330
1B
100
AcDbEntity
  8
0
100
AcDbBlockEnd
  0
ENDSEC
  0
SECTION
  2
ENTITIES
  0
LWPOLYLINE
  5
30
330
17
100
AcDbEntity
  8
Y
100
AcDbPolyline
 90
31
 70
1
 10
501.1857773145194
 20
145.72262452982122
 10
497.0236570096922
 20
149.98805098126533
 10
492.85219025721005
 20
148.56304935355158
 10
487.88299701287553
 20
152.20057177591218
 10
489.288527820199
 20
162.28348983536122
 10
496.2248039066799
 20
172.23530349227778
 10
493.4264607068872
 20
175.10310313054646
 10
494.8601522475853
 20
176.5723796946602
 10
494.8601522475853
 20
179.42952255180333
 10
497.64809676729004
 20
182.286665408946
 10
497.64809676729004
 20
186.57237969466044
 10
501.1828865826578
 20
190.19490496411927
 10
508.2275880978271
 20
191.63881595104948
 10
513.823460358168
 20
187.33774225362254
 10
519.40665286985
 20
185.9072996379193
 10
522.1847525373624
 20
183.06024598768943
 10
524.9726970570672
 20
183.06024598768943
 10
528.5154864840417
 20
179.42952255180333
 10
528.5154864840417
 20
172.286665408946
 10
531.3431502845924
 20
169.38881741626065
 10
528.5461768312285
 20
166.52242152229124
 10
532.6949831579284
 20
160.85337883835004
 10
534.0883703303059
 20
142.28974519266092
 10
535.5250670641494
 20
140.81738884483218
 10
533.323979396066
 20
138.56166895357836
 10
523.5222443066963
 20
141.43167455911788
 10
519.3125255723454
 20
141.43167455911788
 10
517.918553312493
 20
142.86024598768944
 10
513.7366365329359
 20
142.86024598768944
 10
512.3375553933382
 20
144.2940531012499
 10
501.1857773145194
 20
145.72262452982122
  0
LWPOLYLINE
  5
31
330
17
100
AcDbEntity
  8
Y
100
AcDbPolyline
 90
5
 70
1
 10
520.1809735256854
 20
157.97090276881508
 10
522.1297234479867
 20
155.97378378688853
 10
525.4982213635794
 20
160.80673206370645
 10
523.549471441278
 20
162.80385104563322
 10
520.1809735256854
 20
157.97090276881508
  0
LWPOLYLINE
  5
32
330
17
100
AcDbEntity
  8
Y
100
AcDbPolyline
 90
44
 70
1
 10
411.98790362125413
 20
137.34596027340362
 10
416.1698204008113
 20
140.2031031305465
 10
421.7457094402206
 20
140.2031031305465
 10
425.9187306245402
 20
143.05416839510843
 10
432.88481173157
 20
144.48196501993772
 10
439.0524791783679
 20
149.39810576903778
 10
437.11030346371274
 20
151.38848736781895
 10
435.6963021275597
 20
149.9393897301057
 10
433.495317330755
 20
153.6987471745267
 10
439.9066494992454
 20
158.8091088471385
 10
446.26179334573334
 20
152.29622678697797
 10
447.6557656055855
 20
146.5819410726924
 10
451.8867314730082
 20
142.24596027340354
 10
450.4927592131558
 20
140.81738884483218
 10
454.67467599271293
 20
136.53167455911796
 10
452.4861395447448
 20
134.28881741626074
 10
446.8372101175631
 20
134.28881741626074
 10
442.686192503122
 20
137.124849540322
 10
438.54407048391874
 20
134.29489500884173
 10
431.56786737395225
 20
132.86502373667386
 10
423.23073443022065
 20
128.5929911207312
 10
417.6076168933269
 20
122.83030467132072
 10
413.40545932913386
 20
125.70127630992778
 10
407.86101488709403
 20
122.86024598768941
 10
405.0798406522247
 20
122.86024598768941
 10
396.72348055604203
 20
117.1510662457026
 10
388.3701480808033
 20
115.72428843823646
 10
386.3406058072283
 20
113.64437179383047
 10
387.7345780670807
 20
107.93008607954468
 10
385.5682396434061
 20
105.70997792832115
 10
377.1206225781385
 20
107.15285986680779
 10
374.95778673455595
 20
109.36937850194894
 10
376.3517589944083
 20
112.22652135909172
 10
373.58456564043064
 20
115.06239799500395
 10
373.58456564043064
 20
128.00095112323174
 10
378.5213273272576
 20
133.0602459876894
 10
385.57547107183177
 20
133.0602459876894
 10
386.92730210902806
 20
131.67486175041677
 10
389.67310540607644
 20
134.48881741626073
 10
396.64935507950804
 20
134.48881741626073
 10
403.61921637876975
 20
140.2031031305465
 10
406.48505496961707
 20
140.2031031305465
 10
409.2729994893218
 20
137.34596027340362
 10
411.98790362125413
 20
137.34596027340362
  0
LWPOLYLINE
  5
33
330
17
100
AcDbEntity
  8
Y
100
AcDbPolyline
 90
37
 70
1
 10
271.2146794737353
 20
135.94733016120097
 10
273.1788436502154
 20
137.9602459876893
 10
270.3908991305106
 20
140.81738884483218
 10
272.57143596687183
 20
143.05204782126214
 10
279.60577507881777
 20
144.4938348874224
 10
282.3593314317576
 20
143.08288430896988
 10
285.76431326973227
 20
146.5723796946604
 10
285.76431326973227
 20
149.43374789940955
 10
296.29627645553455
 20
158.78800396582326
 10
304.7304926409605
 20
155.90681792123405
 10
320.81361976604114
 20
143.72423408510272
 10
320.81361976604114
 20
139.34811228071842
 10
311.0955332279205
 20
129.38881741626085
 10
312.4895054877729
 20
127.96024598768929
 10
306.12705187185463
 20
121.43987272554513
 10
299.1571905725928
 20
120.0113012969738
 10
297.71307747847743
 20
118.53134451067604
 10
296.31910521862494
 20
119.9599159392476
 10
293.5733019215765
 20
117.14596027340363
 10
290.77411534433173
 20
117.14596027340363
 10
286.5921985647746
 20
114.28881741626074
 10
283.8154961026099
 20
114.28881741626074
 10
282.4105742650105
 20
112.84902463531743
 10
276.7515075058437
 20
114.29890662317355
 10
273.97340783833124
 20
117.14596027340363
 10
271.19670537616656
 20
117.14596027340363
 10
267.0058930013719
 20
120.0091807231275
 10
260.0337216650811
 20
121.43822562638584
 10
249.4435758713188
 20
129.39709164555856
 10
253.12169657771167
 20
131.6587398734278
 10
255.92987308560822
 20
128.78086285886548
 10
265.6876789045747
 20
130.20943428743703
 10
267.02565868542507
 20
128.8382451024158
 10
269.0118276145692
 20
132.23068968472086
 10
264.8150100911013
 20
136.53167455911796
 10
267.0327626941783
 20
138.80447301834366
 10
271.2146794737353
 20
135.94733016120097
  0
LWPOLYLINE
  5
34
330
17
100
AcDbEntity
  8
Y
100
AcDbPolyline
 90
9
 70
1
 10
306.6531460017905
 20
135.1225420448582
 10
308.0281501465242
 20
136.53167455911796
 10
306.0769110375915
 20
138.53134451067606
 10
302.7316996688064
 20
135.1031031305464
 10
304.1256719286588
 20
133.67453170197507
 10
302.7316996688064
 20
132.24596027340374
 10
304.6986701922487
 20
130.23016844485647
 10
308.03822202969076
 20
132.2836332704943
 10
306.6531460017905
 20
135.1225420448582
  0
LWPOLYLINE
  5
35
330
17
100
AcDbEntity
  8
Y
100
AcDbPolyline
 90
5
 70
1
 10
301.89499425803444
 20
145.67420165353317
 10
298.53488214533854
 20
142.23068968472063
 10
300.5083524297064
 20
138.85993482278224
 10
303.85663204705526
 20
143.6638749208493
 10
301.89499425803444
 20
145.67420165353317
  0
LWPOLYLINE
  5
36
330
17
100
AcDbEntity
  8
Y
100
AcDbPolyline
 90
5
 70
1
 10
296.29907614232445
 20
123.12395938813026
 10
298.2852450714686
 20
126.51640397043506
 10
296.33913429492554
 20
128.5108183015341
 10
294.35296536578136
 20
125.1183737192293
 10
296.29907614232445
 20
123.12395938813026
  0
LWPOLYLINE
  5
37
330
17
100
AcDbEntity
  8
Y
100
AcDbPolyline
 90
6
 70
1
 10
288.552257789437
 20
129.4295225518033
 10
288.552257789437
 20
132.2052551378613
 10
285.1673271398062
 20
135.6742016535334
 10
281.8221157710211
 20
132.24596027340374
 10
286.5612993996585
 20
127.38914746470253
 10
288.552257789437
 20
129.4295225518033
  0
LWPOLYLINE
  5
38
330
17
100
AcDbEntity
  8
Y
100
AcDbPolyline
 90
56
 70
1
 10
246.10520469882425
 20
35.917388844832196
 10
248.8819071609889
 20
35.917388844832196
 10
254.45779620039832
 20
41.63167455911787
 10
257.25389131901545
 20
41.63167455911787
 10
262.82978035842484
 20
45.91738884483221
 10
265.60957427921704
 20
45.91738884483221
 10
269.7914910587742
 20
50.20310313054643
 10
274.05769028364347
 20
50.20310313054643
 10
275.45166254349584
 20
48.7745317019751
 10
283.8154961026099
 20
48.7745317019751
 10
285.2094683624623
 20
47.345960273403655
 10
293.5733019215765
 20
47.345960273403655
 10
294.96727418142876
 20
45.91738884483221
 10
304.7250800003952
 20
45.91738884483221
 10
306.1190522602476
 20
44.48881741626076
 10
310.3009690398046
 20
44.48881741626076
 10
315.2301590327413
 20
39.437282179357716
 10
316.6398949508391
 20
32.21365043133906
 10
312.4376616905572
 20
27.90711539852053
 10
311.04596117838446
 20
23.628385513977168
 10
306.8477076760174
 20
17.891776853853013
 10
298.5100636084036
 20
10.771285985397228
 10
298.5100636084036
 20
6.490969423575521
 10
296.36124644128114
 20
4.288817416260748
 10
280.94326913759295
 20
4.288817416260748
 10
276.7613523580359
 20
8.574531701975086
 10
274.05769028364347
 20
8.574531701975086
 10
269.8336322814303
 20
4.245630224961827
 10
267.0035465390694
 20
7.14596027340364
 10
261.51193994497237
 20
7.14596027340364
 10
260.11796768512
 20
5.717388844832194
 10
254.54207864571055
 20
5.717388844832194
 10
253.14810638585817
 20
4.288817416260748
 10
230.84455022822058
 20
4.288817416260748
 10
228.05660570851583
 20
1.431674559117968
 10
223.79040648364645
 20
1.431674559117968
 10
221.0024619639418
 20
4.288817416260748
 10
208.5409940705829
 20
4.288817416260748
 10
205.75304955087825
 20
1.431674559117968
 10
202.88897318477362
 20
1.431674559117968
 10
197.3673086106723
 20
5.675711084754176
 10
193.21362211195324
 20
0.0
 10
181.27180694702204
 20
0.7198951573915702
 10
179.77469951105095
 20
2.2541616346575255
 10
186.74456081031278
 20
7.968447348943308
 10
185.39831056036294
 20
9.3481122807183
 10
185.39831056036294
 20
13.71523683751752
 10
188.191082269746
 20
16.577326697878036
 10
189.5850545295984
 20
28.00589812644949
 10
192.37574355351518
 20
30.86585360792915
 10
193.76971581336744
 20
38.008710750786264
 10
195.89600106733107
 20
40.18777159029452
 10
202.89524711659868
 20
43.05696008579141
 10
211.296494350944
 20
44.491921898281326
 10
241.9405561680653
 20
33.072043891930306
 10
246.10520469882425
 20
35.917388844832196
  0
LWPOLYLINE
  5
39
330
17
100
AcDbEntity
  8
Y
100
AcDbPolyline
 90
106
 70
1
 10
71.84743015974004
 20
124.28881741626074
 10
66.27154112033051
 20
130.00310313054652
 10
56.59801774667639
 20
130.00310313054652
 10
53.81007322697173
 20
127.14596027340363
 10
45.369120337964915
 20
127.14596027340363
 10
39.01892983371602
 20
132.20758698589708
 10
40.434525342737835
 20
138.0105125012635
 10
43.17342077457709
 20
140.81738884483218
 10
38.99150399502005
 20
145.10310313054643
 10
40.38547625487243
 20
146.531674559118
 10
38.43423714593963
 20
148.53134451067606
 10
37.060316074431164
 20
147.12332195212318
 10
31.484427035021746
 20
149.98046480926607
 10
29.51313673774514
 20
147.96024598768932
 10
35.04930649630877
 20
142.28666540894596
 10
35.04930649630877
 20
140.77668370928976
 10
32.900489329186435
 20
138.574531701975
 10
28.718572549629286
 20
138.574531701975
 10
26.725192218040483
 20
136.53167455911796
 10
30.090454775169473
 20
133.08288430896985
 10
32.87839929487413
 20
134.51145573754118
 10
35.08902577715456
 20
132.24596027340374
 10
32.87839929487413
 20
129.98046480926607
 10
30.090454775169473
 20
131.4090362378374
 10
28.676431326973173
 20
129.9599159392476
 10
25.896867753042898
 20
132.80846983086903
 10
20.330350459279444
 20
125.67761813500955
 10
14.702718104705914
 20
130.00310313054652
 10
9.194810312783908
 20
130.00310313054652
 10
3.5754173611459716
 20
125.68395106714247
 10
0.0
 20
129.3481122807184
 10
0.0
 20
132.2866654089462
 10
2.1709072014346464
 20
134.51145573754118
 10
4.958851721139301
 20
133.08288430896985
 10
8.32411427826829
 20
136.53167455911796
 10
6.359950101788359
 20
138.5445903856065
 10
2.17803332223121
 20
135.68744752846385
 10
0.0
 20
137.91954085214687
 10
0.0
 20
163.71523683751755
 10
2.787944519704655
 20
166.57237969466044
 10
2.787944519704655
 20
185.14380826608888
 10
6.330733946679379
 20
188.774531701975
 10
11.990905431401133
 20
188.774531701975
 10
13.390687672199197
 20
187.34000608549138
 10
23.148493491165656
 20
185.91143465691985
 10
25.938627641531543
 20
183.05204782126216
 10
32.89814286688397
 20
181.6255969665369
 10
37.02733981854011
 20
178.80447301834369
 10
41.175925942572576
 20
183.0560293630793
 10
55.19974985577214
 20
184.4932196672705
 10
60.779934526233426
 20
178.77453170197498
 10
62.089624340773476
 20
178.77453170197498
 10
65.47697693221477
 20
182.24596027340357
 10
63.48359660062586
 20
184.2888174162608
 10
59.30167982106882
 20
184.2888174162608
 10
57.113143373100584
 20
186.53167455911802
 10
59.295869840123025
 20
188.76857751406274
 10
69.07502621517591
 20
190.2002747267476
 10
76.0959602084923
 20
193.07835372260917
 10
78.26244655173164
 20
190.8580939803747
 10
78.26244655173164
 20
183.64486780013334
 10
75.49806171911766
 20
179.39537019190965
 10
82.47817468428431
 20
170.8113342789187
 10
81.05039107143641
 20
169.34811228071823
 10
81.05039107143641
 20
166.57237969466044
 10
88.01092256367849
 20
159.4390839298353
 10
89.41993530990433
 20
153.66314301702445
 10
88.0410035364253
 20
150.83682775914397
 10
92.84129650283757
 20
145.91738884483206
 10
95.61682628238843
 20
145.91738884483206
 10
103.4105225683466
 20
140.83466328002737
 10
97.81777747051046
 20
135.1031031305464
 10
99.81115780209937
 20
133.0602459876894
 10
105.30276439619645
 20
133.0602459876894
 10
106.73887787870495
 20
134.53200460755966
 10
108.13285013855733
 20
133.10343317898833
 10
110.09634263223734
 20
135.11566065113513
 10
104.5204535928279
 20
143.6870892225638
 10
106.74458929318232
 20
145.96642921110015
 10
115.16148691973494
 20
135.90298453939164
 10
119.33953547271958
 20
134.47573452352424
 10
122.11471395973695
 20
131.63167455911784
 10
126.29663073929409
 20
131.63167455911784
 10
128.44544790641643
 20
129.4295225518033
 10
128.44544790641643
 20
125.04720017588389
 10
124.8556638812115
 20
122.83986949613579
 10
119.9091024831116
 20
126.46082507472734
 10
116.48379583095192
 20
131.37527961706164
 10
114.53830116997477
 20
129.38149669386013
 10
120.11419020938408
 20
122.23863955100278
 10
117.9327971801799
 20
120.00310313054652
 10
110.96293588091821
 20
120.00310313054652
 10
109.55129444494882
 20
118.55642396705501
 10
102.53726020539466
 20
121.43167455911785
 10
95.55134695139978
 20
121.43167455911785
 10
88.59688624206974
 20
127.1333340004751
 10
84.40786809339562
 20
125.70233669555087
 10
82.20464405044292
 20
127.96024598768929
 10
84.99258857014769
 20
130.81738884483218
 10
83.02842439366765
 20
132.83030467132073
 10
78.89033184677396
 20
130.00310313054652
 10
76.11362938460941
 20
130.00310313054652
 10
74.1202490530205
 20
127.96024598768929
 10
75.51422131287278
 20
126.53167455911796
 10
73.32568486490464
 20
124.28881741626074
 10
71.84743015974004
 20
124.28881741626074
  0
LWPOLYLINE
  5
3A
330
17
100
AcDbEntity
  8
Y
100
AcDbPolyline
 90
5
 70
1
 10
96.13539652028868
 20
133.70049591194842
 10
90.02392638360412
 20
141.3554695300795
 10
88.04033739837624
 20
137.96743158037904
 10
92.82400399672719
 20
131.66434603256138
 10
96.13539652028868
 20
133.70049591194842
  0
LWPOLYLINE
  5
3B
330
17
100
AcDbEntity
  8
Y
100
AcDbPolyline
 90
5
 70
1
 10
79.6883231257176
 20
140.79001550591684
 10
81.66740627766322
 20
137.40967367384448
 10
86.38656083000006
 20
142.24596027340354
 10
84.42435998879839
 20
144.25686403353743
 10
79.6883231257176
 20
140.79001550591684
  0
LWPOLYLINE
  5
3C
330
17
100
AcDbEntity
  8
Y
100
AcDbPolyline
 90
6
 70
1
 10
62.968470974201665
 20
159.38881741626088
 10
66.35582356564296
 20
155.91738884483232
 10
69.05948564003528
 20
155.91738884483232
 10
71.03058256929162
 20
157.93740949888647
 10
64.93734647532912
 20
161.40656150510156
 10
62.968470974201665
 20
159.38881741626088
  0
LWPOLYLINE
  5
3D
330
17
100
AcDbEntity
  8
Y
100
AcDbPolyline
 90
9
 70
1
 10
52.3217653853324
 20
170.20310313054654
 10
55.72956979333632
 20
175.09244634942067
 10
53.747880815971705
 20
177.1233219521232
 10
50.97998748461086
 20
175.70502495856067
 10
48.21209415325001
 20
177.1233219521232
 10
46.20108457512762
 20
175.062397995004
 10
46.20108457512762
 20
172.286665408946
 10
48.23418418756231
 20
170.20310313054654
 10
52.3217653853324
 20
170.20310313054654
  0
LWPOLYLINE
  5
3E
330
17
100
AcDbEntity
  8
Y
100
AcDbPolyline
 90
5
 70
1
 10
40.38547625487243
 20
152.24596027340354
 10
38.43423714593963
 20
154.24563022496184
 10
36.48299803700694
 20
152.24596027340354
 10
38.43423714593963
 20
150.24629032184544
 10
40.38547625487243
 20
152.24596027340354
  0
LWPOLYLINE
  5
3F
330
17
100
AcDbEntity
  8
Y
100
AcDbPolyline
 90
5
 70
1
 10
37.009939873397066
 20
177.099832685082
 10
32.29927044319214
 20
173.6515534908213
 10
35.646292626234974
 20
168.84941749509153
 10
39.012599261098345
 20
173.67922183455542
 10
37.009939873397066
 20
177.099832685082
  0
LWPOLYLINE
  5
40
330
17
100
AcDbEntity
  8
Y
100
AcDbPolyline
 90
13
 70
1
 10
16.150732176645867
 20
148.5518933806945
 10
12.785469619516876
 20
145.10310313054643
 10
14.179441879369259
 20
143.67453170197507
 10
11.391497359664493
 20
140.81738884483218
 10
16.14641240281167
 20
135.94445415914225
 10
19.470901010232744
 20
137.98865672010663
 10
15.303004511189044
 20
143.68378473880185
 10
17.497199620482682
 20
145.93244099411328
 10
21.67911640003972
 20
144.50386956554195
 10
25.05178139649655
 20
147.96024598768932
 10
23.08761722001651
 20
149.97316181417787
 10
18.92594122509561
 20
147.12984773849936
 10
16.150732176645867
 20
148.5518933806945
  0
LWPOLYLINE
  5
41
330
17
100
AcDbEntity
  8
Y
100
AcDbPolyline
 90
70
 70
1
 10
690.3917029459603
 20
95.08539073404742
 10
687.4512106941211
 20
98.54570491165072
 10
685.0197817655754
 20
97.11507573927003
 10
672.8801233377304
 20
112.82936145355582
 10
668.0767498439042
 20
110.0031031305465
 10
660.8119697118924
 20
110.0031031305465
 10
655.9751212654496
 20
104.31119381037223
 10
651.0733204837786
 20
101.4270218269242
 10
642.5036607061995
 20
102.86768028456095
 10
639.4213155250645
 20
106.49492423457562
 10
639.4213155250645
 20
112.2092099488613
 10
638.1858985200226
 20
113.66302468859557
 10
640.6138302055917
 20
117.94873897430979
 10
636.9967871737821
 20
122.20520497116539
 10
635.7818707281442
 20
135.0724156871038
 10
633.3300351488847
 20
139.40032442964034
 10
636.4363889420332
 20
143.05582124802518
 10
651.09916345565
 20
144.493726939403
 10
663.9006323807546
 20
127.99449071987101
 10
663.9006323807546
 20
123.7112820265175
 10
666.8817989258149
 20
120.2031031305465
 10
669.2172267351857
 20
120.2031031305465
 10
672.167163733152
 20
123.67453170197507
 10
670.9531978903675
 20
125.1031031305464
 10
674.105408867326
 20
128.81256379229177
 10
681.389203924033
 20
123.09827807800622
 10
684.9851125005011
 20
127.3298734582472
 10
688.6237655226898
 20
128.7571721962032
 10
697.1262357329105
 20
140.19207713953008
 10
703.1996096503144
 20
141.62148283574504
 10
704.4222361759365
 20
143.0602459876894
 10
708.0669754952376
 20
143.0602459876894
 10
721.4116302698561
 20
157.33636470184166
 10
727.4894645521103
 20
158.766820172204
 10
731.1896698323916
 20
161.6697066494347
 10
734.3106512622559
 20
157.99699631223174
 10
734.3106512622559
 20
155.066352806004
 10
733.0966854194713
 20
153.63778137743267
 10
733.0966854194713
 20
139.35206709171842
 10
727.058085752643
 20
132.24596027340374
 10
734.8393898045797
 20
123.08907277801373
 10
737.2673214901487
 20
124.51764420658506
 10
740.3966584522319
 20
120.83510124133123
 10
739.1826926094474
 20
117.97795838418834
 10
740.3804804761785
 20
116.56842488366037
 10
740.3804804761785
 20
112.2092099488613
 10
736.091522155415
 20
107.16204708855992
 10
732.4496246270616
 20
105.73347565998847
 10
729.9617708125102
 20
102.80581760514707
 10
728.7478049697256
 20
104.2343890337184
 10
725.8441199098584
 20
100.81738884483215
 10
731.1896698323916
 20
94.52684950657763
 10
734.8315673607451
 20
97.38399236372052
 10
737.9837783377035
 20
93.67453170197504
 10
731.2326043916855
 20
85.72988131010328
 10
726.3767410205475
 20
84.30130988153184
 10
722.7432426185974
 20
80.025479524658
 10
717.8493493980689
 20
77.14596027340359
 10
716.5618946037815
 20
77.14596027340359
 10
709.3243514851735
 20
85.66296046228994
 10
706.4056148542657
 20
82.22824787690463
 10
708.8335465398345
 20
76.51396216261885
 10
705.7124150213112
 20
72.8410752039963
 10
703.7961945229123
 20
73.59273222716712
 10
698.8896773541728
 20
80.8100998766751
 10
702.5281732241883
 20
87.94628534374583
 10
697.1846930573284
 20
94.23438903371839
 10
692.3288296861905
 20
88.52010331943272
 10
689.177737103176
 20
92.22824787690453
 10
690.3917029459603
 20
95.08539073404742
  0
LWPOLYLINE
  5
42
330
17
100
AcDbEntity
  8
Y
100
AcDbPolyline
 90
6
 70
1
 10
730.4375241868084
 20
119.38881741626084
 10
723.8919415985877
 20
127.0915318908613
 10
720.9570269916263
 20
123.63778137743265
 10
720.9570269916263
 20
117.9969963122317
 10
725.1059074413722
 20
113.11467437023171
 10
730.4375241868084
 20
119.38881741626084
  0
LWPOLYLINE
  5
43
330
17
100
AcDbEntity
  8
Y
100
AcDbPolyline
 90
12
 70
1
 10
710.0475123826191
 20
110.7996764483331
 10
711.2614782254036
 20
107.94253359119021
 10
706.4134398119157
 20
102.23745613510637
 10
710.0553373402691
 20
96.5231704208207
 10
708.8485981108752
 20
95.10310313054649
 10
711.7569198510996
 20
91.68064658626041
 10
721.9361981209806
 20
102.25015569191265
 10
717.0936783010155
 20
107.94873897430979
 10
719.5216099865844
 20
112.23445326002413
 10
716.5618946037815
 20
115.71738884483229
 10
714.2264667944107
 20
115.71738884483229
 10
710.0475123826191
 20
110.7996764483331
  0
LWPOLYLINE
  5
44
330
17
100
AcDbEntity
  8
Y
100
AcDbPolyline
 90
6
 70
1
 10
703.30077420935
 20
117.14596027340363
 10
699.1368713685993
 20
112.24596027340361
 10
702.0495741797066
 20
108.8183481699827
 10
707.3647872317563
 20
113.68322333525815
 10
704.4222361759365
 20
117.14596027340363
 10
703.30077420935
 20
117.14596027340363
  0
LWPOLYLINE
  5
45
330
17
100
AcDbEntity
  8
Y
100
AcDbPolyline
 90
5
 70
1
 10
703.7302756455492
 20
102.2459602734036
 10
700.8265905856821
 20
105.66296046228985
 10
695.4949738402456
 20
99.38881741626082
 10
698.398658900113
 20
95.97181722737457
 10
703.7302756455492
 20
102.2459602734036
  0
LWPOLYLINE
  5
46
330
17
100
AcDbEntity
  8
Y
100
AcDbPolyline
 90
5
 70
1
 10
695.9707272145439
 20
119.9486747480042
 10
693.0670421546768
 20
116.53167455911795
 10
695.9707272145439
 20
113.11467437023171
 10
698.8744122744113
 20
116.53167455911795
 10
695.9707272145439
 20
119.9486747480042
  0
LWPOLYLINE
  5
47
330
17
100
AcDbEntity
  8
Y
100
AcDbPolyline
 90
6
 70
1
 10
686.9972129407543
 20
105.10310313054649
 10
691.1266585404652
 20
100.2436517426426
 10
695.2637442931517
 20
103.72111043660969
 10
695.2637442931517
 20
105.06635280600418
 10
691.1148638434059
 20
109.94867474800418
 10
686.9972129407543
 20
105.10310313054649
  0
LWPOLYLINE
  5
48
330
17
100
AcDbEntity
  8
Y
100
AcDbPolyline
 90
22
 70
1
 10
661.927869332703
 20
237.15250593389158
 10
656.4361940706877
 20
243.61500273389424
 10
649.1389861737838
 20
255.0646194556213
 10
647.9110451389307
 20
260.84468810841844
 10
651.0198703896828
 20
264.50309329011526
 10
655.8964979081275
 20
263.06841315021603
 10
658.3595417091557
 20
264.5176442065852
 10
659.5517519310088
 20
263.1146743702316
 10
661.9334316784789
 20
265.9173888448322
 10
668.0032608924014
 20
265.9173888448322
 10
669.2085660523481
 20
267.3357685500307
 10
675.3699163011651
 20
268.7858800139072
 10
679.682188336953
 20
263.7112820265174
 10
679.682188336953
 20
262.22942919913396
 10
677.2542566513841
 20
255.08657205627682
 10
677.2542566513841
 20
250.78063852028964
 10
676.0402908085996
 20
249.3520670917183
 10
676.0402908085996
 20
245.0663528060041
 10
674.826324965815
 20
243.63778137743253
 10
674.826324965815
 20
239.3520670917183
 10
671.7317103574229
 20
235.7103847179801
 10
661.927869332703
 20
237.15250593389158
  0
LWPOLYLINE
  5
49
330
17
100
AcDbEntity
  8
Y
100
AcDbPolyline
 90
29
 70
1
 10
3406.906838010018
 20
289.3801433420283
 10
3416.0366683714383
 20
301.63167455911776
 10
3418.913301614159
 20
301.63167455911776
 10
3420.272771959248
 20
300.2366179456751
 10
3425.841292904619
 20
304.5223322313894
 10
3427.2144093929587
 20
303.1132722654947
 10
3431.964689617449
 20
309.38064888456864
 10
3430.564599219137
 20
310.8173888448321
 10
3432.761204283719
 20
313.0714934919382
 10
3438.349047528659
 20
311.63796504060105
 10
3441.1652729184566
 20
313.0829372936467
 10
3442.5373354882913
 20
311.6749588342268
 10
3444.4859015825655
 20
313.674531701975
 10
3443.112698283897
 20
315.08368075059514
 10
3444.542682395588
 20
318.0185131275434
 10
3446.713726197319
 20
320.24638740565524
 10
3448.922623874399
 20
317.97966836764067
 10
3447.530493638056
 20
315.122525510498
 10
3448.9019215518333
 20
313.71519832025274
 10
3448.9019215518333
 20
305.0624365122686
 10
3447.5097913154905
 20
303.6338650836973
 10
3447.5097913154905
 20
290.7767222265544
 10
3443.9424006459208
 20
287.11594951143246
 10
3439.7660099368927
 20
289.9730923685754
 10
3435.618864450273
 20
285.7173888448322
 10
3416.044680854082
 20
285.7173888448322
 10
3413.3026005250927
 20
288.5312474268663
 10
3410.5183400524074
 20
285.6741045697234
 10
3406.906838010018
 20
289.3801433420283
  0
LWPOLYLINE
  5
4A
330
17
100
AcDbEntity
  8
Y
100
AcDbPolyline
 90
13
 70
1
 10
3381.25528828477
 20
147.14596027340366
 10
3374.259978754913
 20
151.45301390997423
 10
3370.742628316638
 20
155.0624365122687
 10
3370.742628316638
 20
159.43950555953558
 10
3375.6885785156737
 20
163.06480427545088
 10
3396.6392149440853
 20
160.19826398291391
 10
3404.327337528941
 20
153.74332386855937
 10
3408.5698056689757
 20
147.93862867241614
 10
3403.590413314471
 20
144.28881741626077
 10
3398.0133252131886
 20
144.28881741626077
 10
3392.413324153422
 20
141.41552248123733
 10
3384.0369326495675
 20
147.14596027340366
 10
3381.25528828477
 20
147.14596027340366
  0
LWPOLYLINE
  5
4B
330
17
100
AcDbEntity
  8
Y
100
AcDbPolyline
 90
29
 70
1
 10
3347.8966367048483
 20
92.86024598768938
 10
3342.261778327914
 20
92.86024598768938
 10
3340.115763117097
 20
95.06243651226853
 10
3340.115763117097
 20
98.00091260596733
 10
3357.575210927685
 20
115.91738884483227
 10
3360.3594714003702
 20
115.91738884483227
 10
3368.7434630632074
 20
124.52084463814595
 10
3373.778819694021
 20
120.8300125041265
 10
3372.3743878132204
 20
119.38881741626084
 10
3374.3229539074946
 20
117.38924454851241
 10
3375.672904000141
 20
118.77453170197494
 10
3378.5415247602186
 20
118.77453170197494
 10
3383.5114297039627
 20
113.67453170197506
 10
3382.11929946762
 20
112.24596027340361
 10
3384.067865561894
 20
110.2463874056554
 10
3385.459995798237
 20
111.67495883422684
 10
3387.681366390406
 20
109.39544038300907
 10
3381.2911139926473
 20
101.38068482324624
 10
3377.0962444812644
 20
105.68536162294694
 10
3372.3612380259747
 20
102.21468114064902
 10
3373.747591111889
 20
99.36939503630937
 10
3370.9822575768776
 20
96.53167455911793
 10
3376.5507785222494
 20
90.81738884483215
 10
3374.3651340511906
 20
88.57453170197505
 10
3371.5808735785054
 20
88.57453170197505
 10
3370.183957070639
 20
87.14104871371609
 10
3363.8536484538513
 20
87.86282808846279
 10
3350.6579477036416
 20
94.27704231007917
 10
3347.8966367048483
 20
92.86024598768938
  0
LWPOLYLINE
  5
4C
330
17
100
AcDbEntity
  8
Y
100
AcDbPolyline
 90
5
 70
1
 10
3379.891474852866
 20
111.38839028400905
 10
3377.942908758592
 20
109.38881741626084
 10
3379.891474852866
 20
107.38924454851262
 10
3381.8400409471396
 20
109.38881741626084
 10
3379.891474852866
 20
111.38839028400905
  0
LWPOLYLINE
  5
4D
330
17
100
AcDbEntity
  8
Y
100
AcDbPolyline
 90
17
 70
1
 10
3310.881028153898
 20
138.00091260596702
 10
3312.23352913
 20
139.38881741626085
 10
3310.881028153898
 20
140.77672222655445
 10
3310.881028153898
 20
153.71519832025282
 10
3313.0582536094967
 20
155.94941606671753
 10
3318.0416793356117
 20
152.29664841667824
 10
3318.0416793356117
 20
150.85805546310993
 10
3323.598100845371
 20
145.15618590613866
 10
3324.9902310817142
 20
140.87047162042444
 10
3329.233341417355
 20
136.51629121723386
 10
3320.825939808297
 20
130.76463886284017
 10
3320.825939808297
 20
123.7151983202528
 10
3322.2125902584667
 20
122.29225011985146
 10
3323.615997756413
 20
112.21124288856754
 10
3321.422004926468
 20
109.95981885543759
 10
3310.881028153898
 20
120.77672222655444
 10
3310.881028153898
 20
138.00091260596702
  0
LWPOLYLINE
  5
4E
330
17
100
AcDbEntity
  8
Y
100
AcDbPolyline
 90
29
 70
1
 10
4489.393469287298
 20
290.8568451639332
 10
4492.0269626045165
 20
293.674531701975
 10
4490.728654468304
 20
295.0636468114455
 10
4490.728654468304
 20
303.7139880210761
 10
4492.06383964931
 20
305.1425594496474
 10
4492.06383964931
 20
317.9997023067903
 10
4494.146030602845
 20
320.2275269916121
 10
4496.8294394735285
 20
318.79198033547385
 10
4504.816088544838
 20
324.4888174162607
 10
4508.8787221222
 20
324.4888174162607
 10
4514.21946284622
 20
321.6316745591178
 10
4516.908179580024
 20
321.6316745591178
 10
4519.5785499420335
 20
318.7745317019751
 10
4522.230573932251
 20
318.7745317019751
 10
4530.27025052047
 20
314.47353569322655
 10
4539.044932041095
 20
307.97387064868354
 10
4536.324950622474
 20
305.06364681144527
 10
4536.324950622474
 20
302.2065039543026
 10
4535.008978052303
 20
300.79848891543435
 10
4536.333900618779
 20
297.96330687407715
 10
4532.319395079458
 20
287.9409629165196
 10
4532.319395079458
 20
283.64067867272115
 10
4526.269807070678
 20
275.72958674029434
 10
4520.923825401142
 20
274.29961343407905
 10
4518.214992084563
 20
271.4013174254958
 10
4507.476639934929
 20
278.5822048077983
 10
4502.137622725077
 20
280.0103152210868
 10
4489.393469287298
 20
287.9045589779202
 10
4489.393469287298
 20
290.8568451639332
  0
LWPOLYLINE
  5
4F
330
17
100
AcDbEntity
  8
Y
100
AcDbPolyline
 90
5
 70
1
 10
4524.071406948636
 20
306.5316745591179
 10
4522.205506221921
 20
308.5280811285266
 10
4520.339605495205
 20
306.5316745591179
 10
4522.205506221921
 20
304.535267989709
 10
4524.071406948636
 20
306.5316745591179
  0
LWPOLYLINE
  5
50
330
17
100
AcDbEntity
  8
Y
100
AcDbPolyline
 90
20
 70
1
 10
4455.411832047811
 20
283.0698743559804
 10
4458.0732034515595
 20
285.9173888448322
 10
4467.419499718594
 20
285.9173888448322
 10
4468.754684899599
 20
287.34596027340353
 10
4472.847068606859
 20
287.34596027340353
 10
4474.182253787863
 20
285.9173888448322
 10
4478.100981166634
 20
285.9173888448322
 10
4479.436166347639
 20
287.34596027340353
 10
4486.198920416909
 20
287.34596027340353
 10
4490.972255478251
 20
282.2387660170237
 10
4483.522722652427
 20
275.7173888448322
 10
4478.1648948480715
 20
275.7173888448322
 10
4471.4889689430465
 20
272.8602459876893
 10
4464.767475728377
 20
272.8602459876893
 10
4462.142759894668
 20
274.26439355519506
 10
4459.498492285462
 20
271.4351791437791
 10
4450.704286950421
 20
270.71138726501033
 10
4446.653148541759
 20
282.27001481947224
 10
4448.735906142786
 20
284.49844578455196
 10
4455.411832047811
 20
283.0698743559804
  0
LWPOLYLINE
  5
51
330
17
100
AcDbEntity
  8
Y
100
AcDbPolyline
 90
5
 70
1
 10
4455.430114337453
 20
281.4024851913465
 10
4452.263247690931
 20
279.3694659785758
 10
4454.127194824885
 20
277.3751496411748
 10
4457.294061471407
 20
279.4081688539457
 10
4455.430114337453
 20
281.4024851913465
  0
LWPOLYLINE
  5
52
330
17
100
AcDbEntity
  8
Y
100
AcDbPolyline
 90
25
 70
1
 10
5510.173888884522
 20
62.83981143195272
 10
5500.650852191962
 20
67.14596027340359
 10
5495.224851374499
 20
67.14596027340359
 10
5491.162917491508
 20
70.00310313054648
 10
5488.426248010491
 20
70.00310313054648
 10
5484.987136635177
 20
76.53454566916373
 10
5491.771553776581
 20
87.98764138198578
 10
5491.771553776581
 20
90.85724879773238
 10
5495.198323423272
 20
94.47280632568011
 10
5501.974988820309
 20
97.33280873223794
 10
5507.451966197287
 20
101.66684533829995
 10
5508.796278289045
 20
100.24847229184763
 10
5510.129842854588
 20
101.65550570846771
 10
5512.919452358399
 20
100.18385825599363
 10
5517.693435345295
 20
95.14686659732308
 10
5519.053263194078
 20
80.79943060865868
 10
5517.716834896438
 20
77.97932077328595
 10
5521.759068918518
 20
73.71439165487526
 10
5521.759068918518
 20
69.34895746336056
 10
5520.4428696059485
 20
67.96024598768935
 10
5523.150825527942
 20
65.10310313054646
 10
5519.628101977022
 20
61.386305397816756
 10
5515.523167902874
 20
65.71738884483224
 10
5512.901212363194
 20
65.71738884483224
 10
5510.173888884522
 20
62.83981143195272
  0
LWPOLYLINE
  5
53
330
17
100
AcDbEntity
  8
Y
100
AcDbPolyline
 90
20
 70
1
 10
5292.123255948111
 20
290.0086133639298
 10
5285.348264084376
 20
291.43826142086135
 10
5276.430181993691
 20
297.9524599105431
 10
5285.382526312609
 20
305.94484636180476
 10
5289.438707414646
 20
303.09174998042477
 10
5290.762826377351
 20
304.48881741626064
 10
5296.1851764277535
 20
304.48881741626064
 10
5302.959285301883
 20
310.2066643357103
 10
5317.865170990777
 20
308.7769296088464
 10
5320.613755105899
 20
310.22693427989634
 10
5323.321711027894
 20
307.36979142275345
 10
5326.0296669498875
 20
308.7983628513248
 10
5328.166305703644
 20
306.5440122158484
 10
5325.426970090957
 20
302.2086352352612
 10
5324.071067870941
 20
295.0556267401082
 10
5320.659047674767
 20
291.45563124064546
 10
5316.570695735719
 20
288.5799060622881
 10
5308.457395192158
 20
287.15319286583787
 10
5304.3635534242785
 20
282.8338128233602
 10
5292.123255948111
 20
290.0086133639298
  0
LWPOLYLINE
  5
54
330
17
100
AcDbEntity
  8
Y
100
AcDbPolyline
 90
30
 70
1
 10
5260.993551230619
 20
221.43167455911794
 10
5255.6228129780375
 20
224.26498626691094
 10
5254.248421621586
 20
222.81487682638812
 10
5251.5200523041385
 20
225.69355769548227
 10
5248.823021340308
 20
224.27074968534967
 10
5243.943985902219
 20
227.94777230558572
 10
5245.354783617103
 20
229.43629380669904
 10
5248.062739539097
 20
243.7220080924133
 10
5252.097754819179
 20
247.979320773286
 10
5250.743776858182
 20
250.83646363042865
 10
5252.11745468009
 20
252.28582022630374
 10
5252.11745468009
 20
256.5659045589209
 10
5258.3027566967885
 20
264.54220401950835
 10
5259.707333656732
 20
263.0602459876893
 10
5263.757914653141
 20
263.0602459876893
 10
5271.881782419124
 20
257.34596027340353
 10
5274.582851232496
 20
257.34596027340353
 10
5280.035243066894
 20
254.46957254170778
 10
5283.470144323985
 20
250.84543541599714
 10
5280.738898191443
 20
240.75942880725376
 10
5275.359510675793
 20
236.5026169188177
 10
5276.70875783895
 20
233.65545691637857
 10
5274.000801916956
 20
230.79831405923545
 10
5276.70875783895
 20
225.0840283449499
 10
5275.372858665469
 20
223.67453170197493
 10
5276.726836626466
 20
222.2459602734036
 10
5274.5580910365425
 20
219.95773396924523
 10
5270.496157153552
 20
224.24344825495967
 10
5267.831201422715
 20
221.43167455911794
 10
5260.993551230619
 20
221.43167455911794
  0
LWPOLYLINE
  5
55
330
17
100
AcDbEntity
  8
Y
100
AcDbPolyline
 90
82
 70
1
 10
5119.427614502372
 20
202.20610032050345
 10
5119.427614502372
 20
239.42867736916085
 10
5121.51558125271
 20
241.63167455911793
 10
5125.663515518017
 20
241.63167455911793
 10
5127.017493479015
 20
240.20310313054637
 10
5133.787383284
 20
240.20310313054637
 10
5135.144606978784
 20
238.77110715394946
 10
5152.683754530014
 20
237.34761363536637
 10
5159.449726757597
 20
240.20310313054637
 10
5164.928876386934
 20
240.20310313054637
 10
5166.239854156773
 20
238.8199008632762
 10
5168.9160033051485
 20
241.64348464535624
 10
5174.331915149138
 20
240.21491321678468
 10
5175.674699692595
 20
241.63167455911793
 10
5178.3826556145905
 20
241.63167455911793
 10
5183.064578669237
 20
246.57153451201796
 10
5183.064578669237
 20
249.42867736916085
 10
5186.529110176276
 20
253.08407713703917
 10
5189.237066098271
 20
251.65550570846784
 10
5192.542424396217
 20
255.14296308344663
 10
5192.542424396217
 20
258.0001059405893
 10
5194.630391146556
 20
260.2031031305464
 10
5197.424347450864
 20
260.2031031305464
 10
5198.735325220704
 20
258.81990086327625
 10
5200.646592301288
 20
260.8364636304289
 10
5199.292614340291
 20
263.69360648757157
 10
5201.443281142699
 20
265.96275800613336
 10
5202.797259103695
 20
264.534186577562
 10
5204.151237064692
 20
265.96275800613336
 10
5205.518356218554
 20
264.52032140899627
 10
5209.580290101545
 20
267.37746426613893
 10
5213.039577136476
 20
263.727597899268
 10
5218.468005655162
 20
247.9769950129024
 10
5218.468005655162
 20
243.71439165487507
 10
5221.195661438068
 20
240.83646363042888
 10
5219.838668871345
 20
237.9729594000114
 10
5225.868716465192
 20
230.19686936588369
 10
5236.685875945147
 20
228.7702319485375
 10
5241.521726683033
 20
225.12575492496956
 10
5234.693956931033
 20
215.0402587814849
 10
5223.883917499151
 20
203.63467174907478
 10
5223.883917499151
 20
202.1951683297022
 10
5214.97100144535
 20
195.6847433632213
 10
5212.852093811174
 20
197.92038603478923
 10
5212.852093811174
 20
203.71439165487504
 10
5215.560049733168
 20
206.57153451201816
 10
5215.560049733168
 20
212.20610032050345
 10
5212.852093811174
 20
215.06324317764637
 10
5212.852093811174
 20
220.85724879773238
 10
5214.168293123744
 20
222.2459602734036
 10
5212.232104639517
 20
224.28881741626083
 10
5201.4002809515405
 20
224.28881741626083
 10
5200.089303181701
 20
225.672019683531
 10
5197.424347450864
 20
222.86024598768927
 10
5193.276413185557
 20
222.86024598768927
 10
5191.965435415718
 20
224.24344825495967
 10
5190.654457645879
 20
222.86024598768927
 10
5187.86050134157
 20
222.86024598768927
 10
5186.5266103205395
 20
224.26762384490962
 10
5174.340808671565
 20
218.55333813062384
 10
5172.966743770601
 20
220.00310313054638
 10
5163.488898043622
 20
220.00310313054638
 10
5162.134920082624
 20
221.43167455911794
 10
5154.011052316641
 20
221.43167455911794
 10
5152.657074355645
 20
222.86024598768927
 10
5144.533206589662
 20
222.86024598768927
 10
5142.407461190896
 20
225.1031031305465
 10
5143.761439151893
 20
226.53167455911782
 10
5141.868250858825
 20
228.5291625406739
 10
5138.62108460476
 20
225.1031031305465
 10
5139.937283917329
 20
223.71439165487504
 10
5139.937283917329
 20
212.20610032050345
 10
5137.267106643762
 20
209.3888174162607
 10
5138.62108460476
 20
207.96024598768938
 10
5135.913128682765
 20
205.10310313054646
 10
5138.603005817244
 20
202.26503505900018
 10
5137.229327995336
 20
199.36632186724978
 10
5137.229327995336
 20
193.634671749075
 10
5135.114364099272
 20
191.40319008437345
 10
5128.299479051413
 20
195.71738884483213
 10
5125.577515135702
 20
195.71738884483213
 10
5119.427614502372
 20
202.20610032050345
  0
LWPOLYLINE
  5
56
330
17
100
AcDbEntity
  8
Y
100
AcDbPolyline
 90
11
 70
1
 10
5215.522271084741
 20
236.53167455911785
 10
5212.8323939502625
 20
239.36974263066412
 10
5214.18637191126
 20
242.226885487807
 10
5210.941358959838
 20
245.6506729653608
 10
5209.013726004662
 20
242.26095584555873
 10
5211.7358944986045
 20
239.38881741626074
 10
5210.381916537606
 20
237.96024598768938
 10
5211.7358944986045
 20
236.53167455911785
 10
5210.381916537606
 20
235.1031031305465
 10
5212.275104830675
 20
233.1056151489904
 10
5215.522271084741
 20
236.53167455911785
  0
LWPOLYLINE
  5
57
330
17
100
AcDbEntity
  8
Y
100
AcDbPolyline
 90
37
 70
1
 10
5120.76849390913
 20
67.93420621567947
 10
5119.427614502372
 20
69.34895746336056
 10
5119.427614502372
 20
89.42867736916105
 10
5121.558581443868
 20
91.67704372041908
 10
5122.912559404865
 20
90.24847229184762
 10
5124.805747697934
 20
92.2459602734036
 10
5122.912559404865
 20
94.24344825495956
 10
5121.558581443868
 20
92.81487682638823
 10
5119.427614502372
 20
95.06324317764626
 10
5119.427614502372
 20
118.01529412545942
 10
5122.92471281479
 20
120.22915057332007
 10
5135.903871169001
 20
107.9764388352793
 10
5133.193479320059
 20
103.68686935870552
 10
5135.09836105384
 20
101.67704372041908
 10
5136.452339014837
 20
103.10561514899052
 10
5138.609391164046
 20
100.82972650156263
 10
5135.901435242053
 20
96.54401221584841
 10
5138.583305956332
 20
93.71439165487527
 10
5138.583305956332
 20
89.3337692784909
 10
5135.082358008406
 20
87.11747579865914
 10
5132.347404940688
 20
90.00310313054649
 10
5128.386642707804
 20
90.00310313054649
 10
5126.421070383838
 20
86.54667013127293
 10
5128.371471440011
 20
84.4888174162608
 10
5133.787383284
 20
84.4888174162608
 10
5136.495339205994
 20
81.63167455911791
 10
5139.203295127988
 20
81.63167455911791
 10
5141.291261878327
 20
79.42867736916104
 10
5141.291261878327
 20
69.34895746336056
 10
5137.849317166992
 20
65.71738884483224
 10
5135.130008358415
 20
65.71738884483224
 10
5131.068074475423
 20
62.86024598768935
 10
5127.017493479015
 20
62.86024598768935
 10
5125.657203738222
 20
61.42501505022013
 10
5120.832674581553
 20
62.15220398197374
 10
5119.414515948133
 20
63.64849192996513
 10
5120.76849390913
 20
67.93420621567947
  0
LWPOLYLINE
  5
58
330
17
100
AcDbEntity
  8
Y
100
AcDbPolyline
 90
53
 70
1
 10
6074.585593585023
 20
180.00310313054635
 10
6071.859505221422
 20
180.00310313054635
 10
6067.730230089482
 20
182.88394361156512
 10
6062.86080639173
 20
187.97976519991232
 10
6073.192336336737
 20
194.46689426515317
 10
6078.716454401758
 20
200.24784943348573
 10
6080.091180193382
 20
198.80920744999088
 10
6085.471977494944
 20
203.03243561113226
 10
6095.079749650979
 20
214.5232627591468
 10
6099.179913575025
 20
211.66273207669428
 10
6102.467435331476
 20
215.1031031305465
 10
6099.737230025967
 20
217.96024598768938
 10
6101.902887788765
 20
220.2265933555999
 10
6104.633093094273
 20
218.79802192702857
 10
6106.562743289738
 20
220.81738884483227
 10
6103.83253798423
 20
223.67453170197493
 10
6107.3836101095985
 20
227.39070657634286
 10
6108.7487127623535
 20
225.96213514777153
 10
6111.478918067862
 20
228.81927800491442
 10
6114.209123373371
 20
225.96213514777153
 10
6117.5018896627735
 20
229.40799457271154
 10
6116.136787010019
 20
232.26513742985443
 10
6118.304431331634
 20
234.53356371919998
 10
6120.472075653248
 20
232.26513742985443
 10
6119.106973000493
 20
229.40799457271154
 10
6120.452085310765
 20
228.000342913112
 10
6120.452085310765
 20
222.205863347981
 10
6118.304431331634
 20
219.958356827607
 10
6116.939328678879
 20
221.38692825617855
 10
6113.664887540476
 20
217.96024598768938
 10
6116.939328678879
 20
214.53356371920017
 10
6118.304431331634
 20
215.9621351477715
 10
6120.46537694348
 20
213.70071901649956
 10
6119.100274290726
 20
209.4150047307851
 10
6120.490400804248
 20
207.96024598768938
 10
6119.1252981514945
 20
206.53167455911802
 10
6120.452085310765
 20
205.1432000559691
 10
6120.452085310765
 20
199.34872049083808
 10
6119.1252981514945
 20
197.96024598768935
 10
6120.490400804248
 20
196.5316745591178
 10
6119.1252981514945
 20
195.10310313054646
 10
6120.452085310765
 20
193.71462862739776
 10
6120.452085310765
 20
182.20586334798094
 10
6118.338337792357
 20
179.99383972769223
 10
6111.512824528585
 20
181.4224111562638
 10
6108.791471070143
 20
178.57453170197502
 10
6104.6106464962995
 20
178.57453170197502
 10
6103.26799044152
 20
179.97961290549281
 10
6100.55066838756
 20
178.5577825981971
 10
6096.4758695056125
 20
181.40061704154152
 10
6091.0479418864525
 20
175.72032457603225
 10
6080.7316373858375
 20
175.0005946798575
 10
6074.585593585023
 20
180.00310313054635
  0
LWPOLYLINE
  5
59
330
17
100
AcDbEntity
  8
Y
100
AcDbPolyline
 90
8
 70
1
 10
6056.072270288829
 20
193.69370885842596
 10
6059.605017263198
 20
197.39070657634306
 10
6061.772661584812
 20
195.1222802869973
 10
6060.407558932057
 20
192.2651374298544
 10
6063.156089388567
 20
189.38881741626068
 10
6060.997953398103
 20
187.13034153627672
 10
6058.85019512681
 20
187.87954675676744
 10
6056.072270288829
 20
193.69370885842596
  0
ENDSEC
  0
SECTION
  2
OBJECTS
  0
DICTIONARY
  5
A
330
0
100
AcDbDictionary
281
1
  3
ACAD_COLOR
350
B
  3
ACAD_GROUP
350
C
  3
ACAD_LAYOUT
350
D
  3
ACAD_MATERIAL
350
E
  3
ACAD_MLEADERSTYLE
350
F
  3
ACAD_MLINESTYLE
350
10
  3
ACAD_PLOTSETTINGS
350
11
  3
ACAD_PLOTSTYLENAME
350
12
  3
ACAD_SCALELIST
350
14
  3
ACAD_TABLESTYLE
350
15
  3
ACAD_VISUALSTYLE
350
16
  3
EZDXF_META
350
2D
  0
DICTIONARY
  5
B
330
A
100
AcDbDictionary
281
1
  0
DICTIONARY
  5
C
330
A
100
AcDbDictionary
281
1
  0
DICTIONARY
  5
D
330
A
100
AcDbDictionary
281
1
  3
Model
350
1A
  3
Layout1
350
1E
  0
DICTIONARY
  5
E
330
A
100
AcDbDictionary
281
1
  3
ByBlock
350
1F
  3
ByLayer
350
20
  3
Global
350
21
  0
DICTIONARY
  5
F
330
A
100
AcDbDictionary
281
1
  3
Standard
350
2C
  0
DICTIONARY
  5
10
330
A
100
AcDbDictionary
281
1
  3
Standard
350
22
  0
DICTIONARY
  5
11
330
A
100
AcDbDictionary
281
1
  0
ACDBDICTIONARYWDFLT
  5
12
330
A
100
AcDbDictionary
281
1
  3
Normal
350
13
100
AcDbDictionaryWithDefault
340
13
  0
ACDBPLACEHOLDER
  5
13
330
12
  0
DICTIONARY
  5
14
330
A
100
AcDbDictionary
281
1
  0
DICTIONARY
  5
15
330
A
100
AcDbDictionary
281
1
  0
DICTIONARY
  5
16
330
A
100
AcDbDictionary
281
1
  0
LAYOUT
  5
1A
330
D
100
AcDbPlotSettings
  1

  4
A3
  6

 40
7.5
 41
20.0
 42
7.5
 43
20.0
 44
420.0
 45
297.0
 46
0.0
 47
0.0
 48
0.0
 49
0.0
140
0.0
141
0.0
142
1.0
143
1.0
 70
1024
 72
1
 73
0
 74
5
  7

 75
16
 76
0
 77
2
 78
300
147
1.0
148
0.0
149
0.0
100
AcDbLayout
  1
Model
 70
1
 71
0
 10
0.0
 20
0.0
 11
420.0
 21
297.0
 12
0.0
 22
0.0
 32
0.0
 14
1e+20
 24
1e+20
 34
1e+20
 15
-1e+20
 25
-1e+20
 35
-1e+20
146
0.0
 13
0.0
 23
0.0
 33
0.0
 16
1.0
 26
0.0
 36
0.0
 17
0.0
 27
1.0
 37
0.0
 76
1
330
17
  0
LAYOUT
  5
1E
330
D
100
AcDbPlotSettings
  1

  4
A3
  6

 40
7.5
 41
20.0
 42
7.5
 43
20.0
 44
420.0
 45
297.0
 46
0.0
 47
0.0
 48
0.0
 49
0.0
140
0.0
141
0.0
142
1.0
143
1.0
 70
0
 72
1
 73
0
 74
5
  7

 75
16
 76
0
 77
2
 78
300
147
1.0
148
0.0
149
0.0
100
AcDbLayout
  1
Layout1
 70
1
 71
1
 10
0.0
 20
0.0
 11
420.0
 21
297.0
 12
0.0
 22
0.0
 32
0.0
 14
1e+20
 24
1e+20
 34
1e+20
 15
-1e+20
 25
-1e+20
 35
-1e+20
146
0.0
 13
0.0
 23
0.0
 33
0.0
 16
1.0
 26
0.0
 36
0.0
 17
0.0
 27
1.0
 37
0.0
 76
1
330
1B
  0
MATERIAL
  5
1F
102
{ACAD_REACTORS
330
E
102
}
330
E
100
AcDbMaterial
  1
ByBlock
  2

 70
0
 40
1.0
 71
1
 41
1.0
 91
-1023410177
 42
1.0
 72
1
  3

 73
1
 74
1
 75
1
 44
0.5
 73
0
 45
1.0
 46
1.0
 77
1
  4

 78
1
 79
1
170
1
 48
1.0
171
1
  6

172
1
173
1
174
1
140
1.0
141
1.0
175
1
  7

176
1
177
1
178
1
143
1.0
179
1
  8

270
1
271
1
272
1
145
1.0
146
1.0
273
1
  9

274
1
275
1
276
1
 42
1.0
 72
1
  3

 73
1
 74
1
 75
1
 94
63
  0
MATERIAL
  5
20
102
{ACAD_REACTORS
330
E
102
}
330
E
100
AcDbMaterial
  1
ByLayer
  2

 70
0
 40
1.0
 71
1
 41
1.0
 91
-1023410177
 42
1.0
 72
1
  3

 73
1
 74
1
 75
1
 44
0.5
 73
0
 45
1.0
 46
1.0
 77
1
  4

 78
1
 79
1
170
1
 48
1.0
171
1
  6

172
1
173
1
174
1
140
1.0
141
1.0
175
1
  7

176
1
177
1
178
1
143
1.0
179
1
  8

270
1
271
1
272
1
145
1.0
146
1.0
273
1
  9

274
1
275
1
276
1
 42
1.0
 72
1
  3

 73
1
 74
1
 75
1
 94
63
  0
MATERIAL
  5
21
102
{ACAD_REACTORS
330
E
102
}
330
E
100
AcDbMaterial
  1
Global
  2

 70
0
 40
1.0
 71
1
 41
1.0
 91
-1023410177
 42
1.0
 72
1
  3

 73
1
 74
1
 75
1
 44
0.5
 73
0
 45
1.0
 46
1.0
 77
1
  4

 78
1
 79
1
170
1
 48
1.0
171
1
  6

172
1
173
1
174
1
140
1.0
141
1.0
175
1
  7

176
1
177
1
178
1
143
1.0
179
1
  8

270
1
271
1
272
1
145
1.0
146
1.0
273
1
  9

274
1
275
1
276
1
 42
1.0
 72
1
  3

 73
1
 74
1
 75
1
 94
63
  0
MLINESTYLE
  5
22
102
{ACAD_REACTORS
330
10
102
}
330
10
100
AcDbMlineStyle
  2
Standard
 70
0
  3

 62
256
 51
90.0
 52
90.0
 71
2
 49
0.5
 62
256
  6
BYLAYER
 49
-0.5
 62
256
  6
BYLAYER
  0
MLEADERSTYLE
  5
2C
102
{ACAD_REACTORS
330
F
102
}
330
F
100
AcDbMLeaderStyle
179
2
170
2
171
1
172
0
 90
2
 40
0.0
 41
0.0
173
1
 91
-1056964608
 92
-2
290
1
 42
2.0
291
1
 43
8.0
  3
Standard
 44
4.0
300

342
29
174
1
175
1
176
0
178
1
 93
-1056964608
 45
4.0
292
0
297
0
 46
4.0
 94
-1056964608
 47
1.0
 49
1.0
140
1.0
294
1
141
0.0
177
0
142
1.0
295
0
296
0
143
3.75
271
0
272
9
273
9
  0
DICTIONARY
  5
2D
330
A
100
AcDbDictionary
280
1
281
1
  3
CREATED_BY_EZDXF
350
2E
  3
WRITTEN_BY_EZDXF
350
5C
  0
DICTIONARYVAR
  5
2E
330
2D
100
DictionaryVariables
280
0
  1
1.4.4 @ 2026-07-22T15:29:26.557335+00:00
  0
DICTIONARYVAR
  5
5C
330
2D
100
DictionaryVariables
280
0
  1
1.4.4 @ 2026-07-22T15:29:26.562957+00:00
  0
ENDSEC
  0
EOF
