0
SECTION
2
ENTITIES
0
LWPOLYLINE
8
SHEET
90
4
70
1
10
0.000
20
0.000
10
600.000
20
0.000
10
600.000
20
600.000
10
0.000
20
600.000
0
LWPOLYLINE
8
LIGHT
90
19
70
1
10
519.286
20
280.000
10
520.000
20
296.429
10
524.286
20
296.429
10
525.714
20
290.714
10
530.714
20
290.000
10
531.429
20
285.000
10
541.429
20
285.000
10
542.857
20
290.714
10
547.143
20
290.714
10
548.571
20
285.000
10
559.286
20
284.286
10
558.571
20
279.286
10
548.571
20
279.286
10
547.143
20
273.571
10
537.143
20
273.571
10
535.714
20
267.857
10
530.714
20
268.571
10
530.000
20
279.286
10
519.286
20
280.000
0
LWPOLYLINE
8
LIGHT
90
15
70
1
10
508.571
20
256.429
10
513.571
20
257.143
10
514.286
20
262.143
10
519.286
20
262.857
10
520.000
20
267.857
10
524.286
20
267.857
10
525.000
20
257.143
10
519.286
20
255.714
10
518.571
20
250.714
10
513.571
20
250.000
10
513.571
20
240.000
10
502.143
20
240.000
10
502.143
20
250.000
10
507.857
20
251.429
10
508.571
20
256.429
0
LWPOLYLINE
8
LIGHT
90
27
70
1
10
519.286
20
364.286
10
519.286
20
348.571
10
525.000
20
347.143
10
525.000
20
337.143
10
520.000
20
336.429
10
518.571
20
342.143
10
513.571
20
342.857
10
512.857
20
347.857
10
508.571
20
347.857
10
507.143
20
342.143
10
502.143
20
341.429
10
501.429
20
336.429
10
496.429
20
337.143
10
495.714
20
342.143
10
490.714
20
342.857
10
490.714
20
347.143
10
502.143
20
348.571
10
502.143
20
358.571
10
496.429
20
360.000
10
496.429
20
375.714
10
501.429
20
376.429
10
502.857
20
365.000
10
507.857
20
365.714
10
508.571
20
370.714
10
512.857
20
370.714
10
514.286
20
365.000
10
519.286
20
364.286
0
LWPOLYLINE
8
LIGHT
90
5
70
1
10
512.857
20
336.429
10
507.857
20
337.143
10
508.571
20
342.143
10
513.571
20
341.429
10
512.857
20
336.429
0
LWPOLYLINE
8
LIGHT
90
15
70
1
10
513.571
20
400.000
10
507.857
20
398.571
10
507.857
20
377.143
10
502.143
20
377.143
10
501.429
20
382.143
10
496.429
20
382.857
10
496.429
20
392.857
10
502.143
20
394.286
10
502.143
20
404.286
10
496.429
20
405.714
10
496.429
20
410.000
10
507.143
20
410.714
10
508.571
20
405.000
10
513.571
20
404.286
10
513.571
20
400.000
0
LWPOLYLINE
8
LIGHT
90
5
70
1
10
507.857
20
290.000
10
507.143
20
285.000
10
502.143
20
285.714
10
502.857
20
290.714
10
507.857
20
290.000
0
LWPOLYLINE
8
LIGHT
90
5
70
1
10
485.000
20
411.429
10
485.714
20
416.429
10
496.429
20
415.714
10
495.714
20
410.714
10
485.000
20
411.429
0
LWPOLYLINE
8
LIGHT
90
7
70
1
10
490.714
20
422.857
10
485.000
20
421.429
10
484.286
20
416.429
10
479.286
20
417.143
10
480.000
20
427.857
10
490.714
20
427.143
10
490.714
20
422.857
0
LWPOLYLINE
8
LIGHT
90
5
70
1
10
480.000
20
216.429
10
490.714
20
215.714
10
490.000
20
210.714
10
479.286
20
211.429
10
480.000
20
216.429
0
LWPOLYLINE
8
LIGHT
90
5
70
1
10
474.286
20
433.571
10
479.286
20
432.857
10
478.571
20
427.857
10
473.571
20
428.571
10
474.286
20
433.571
0
LWPOLYLINE
8
LIGHT
90
5
70
1
10
472.857
20
433.571
10
462.143
20
434.286
10
462.857
20
439.286
10
473.571
20
438.571
10
472.857
20
433.571
0
LWPOLYLINE
8
LIGHT
90
5
70
1
10
462.143
20
444.286
10
461.429
20
439.286
10
456.429
20
440.000
10
457.143
20
445.000
10
462.143
20
444.286
0
LWPOLYLINE
8
LIGHT
90
5
70
1
10
456.429
20
342.857
10
457.143
20
347.857
10
462.143
20
347.143
10
461.429
20
342.143
10
456.429
20
342.857
0
LWPOLYLINE
8
LIGHT
90
7
70
1
10
456.429
20
325.714
10
457.143
20
330.714
10
462.143
20
330.000
10
461.429
20
319.286
10
450.714
20
320.000
10
450.714
20
324.286
10
456.429
20
325.714
0
LWPOLYLINE
8
LIGHT
90
5
70
1
10
451.429
20
342.143
10
456.429
20
341.429
10
455.714
20
336.429
10
450.714
20
337.143
10
451.429
20
342.143
0
LWPOLYLINE
8
LIGHT
90
7
70
1
10
440.000
20
353.571
10
450.714
20
352.857
10
450.714
20
348.571
10
445.000
20
347.143
10
444.286
20
342.143
10
439.286
20
342.857
10
440.000
20
353.571
0
LWPOLYLINE
8
LIGHT
90
5
70
1
10
439.286
20
325.714
10
440.000
20
330.714
10
445.000
20
330.000
10
444.286
20
325.000
10
439.286
20
325.714
0
LWPOLYLINE
8
LIGHT
90
5
70
1
10
445.000
20
261.429
10
444.286
20
256.429
10
439.286
20
257.143
10
440.000
20
262.143
10
445.000
20
261.429
0
LWPOLYLINE
8
LIGHT
90
5
70
1
10
433.571
20
245.714
10
433.571
20
255.714
10
438.571
20
256.429
10
439.286
20
245.714
10
433.571
20
245.714
0
LWPOLYLINE
8
LIGHT
90
7
70
1
10
427.857
20
352.857
10
427.143
20
347.857
10
422.143
20
348.571
10
422.857
20
359.286
10
433.571
20
358.571
10
433.571
20
354.286
10
427.857
20
352.857
0
LWPOLYLINE
8
LIGHT
90
19
70
1
10
427.857
20
342.857
10
428.571
20
347.857
10
433.571
20
347.143
10
433.571
20
337.143
10
422.857
20
336.429
10
421.429
20
330.714
10
410.714
20
331.429
10
411.429
20
336.429
10
416.429
20
337.143
10
416.429
20
341.429
10
410.714
20
342.857
10
410.714
20
352.857
10
405.000
20
354.286
10
405.000
20
358.571
10
415.714
20
359.286
10
416.429
20
348.571
10
422.143
20
347.143
10
422.857
20
342.143
10
427.857
20
342.857
0
LWPOLYLINE
8
LIGHT
90
5
70
1
10
422.143
20
284.286
10
427.143
20
285.000
10
427.857
20
274.286
10
422.143
20
274.286
10
422.143
20
284.286
0
LWPOLYLINE
8
LIGHT
90
5
70
1
10
421.429
20
285.000
10
416.429
20
285.714
10
417.143
20
290.714
10
422.143
20
290.000
10
421.429
20
285.000
0
LWPOLYLINE
8
LIGHT
90
5
70
1
10
410.714
20
341.429
10
410.000
20
336.429
10
405.000
20
337.143
10
405.714
20
342.143
10
410.714
20
341.429
0
LWPOLYLINE
8
LIGHT
90
5
70
1
10
400.000
20
285.000
10
405.000
20
284.286
10
404.286
20
279.286
10
399.286
20
280.000
10
400.000
20
285.000
0
LWPOLYLINE
8
LIGHT
90
5
70
1
10
399.286
20
364.286
10
398.571
20
359.286
10
393.571
20
360.000
10
394.286
20
365.000
10
399.286
20
364.286
0
LWPOLYLINE
8
LIGHT
90
5
70
1
10
398.571
20
467.857
10
393.571
20
468.571
10
394.286
20
473.571
10
399.286
20
472.857
10
398.571
20
467.857
0
LWPOLYLINE
8
LIGHT
90
5
70
1
10
398.571
20
347.857
10
387.857
20
348.571
10
388.571
20
353.571
10
399.286
20
352.857
10
398.571
20
347.857
0
LWPOLYLINE
8
LIGHT
90
5
70
1
10
398.571
20
336.429
10
387.857
20
337.143
10
388.571
20
342.143
10
399.286
20
341.429
10
398.571
20
336.429
0
LWPOLYLINE
8
LIGHT
90
5
70
1
10
388.571
20
479.286
10
393.571
20
478.571
10
392.857
20
473.571
10
387.857
20
474.286
10
388.571
20
479.286
0
LWPOLYLINE
8
LIGHT
90
5
70
1
10
388.571
20
467.857
10
393.571
20
467.143
10
392.857
20
462.143
10
387.857
20
462.857
10
388.571
20
467.857
0
LWPOLYLINE
8
LIGHT
90
7
70
1
10
382.857
20
233.571
10
387.857
20
232.857
10
387.143
20
222.143
10
370.714
20
222.857
10
371.429
20
227.857
10
381.429
20
227.857
10
382.857
20
233.571
0
LWPOLYLINE
8
LIGHT
90
11
70
1
10
382.143
20
257.143
10
370.714
20
257.143
10
370.000
20
262.143
10
365.000
20
262.857
10
365.000
20
267.143
10
370.714
20
268.571
10
371.429
20
273.571
10
375.714
20
273.571
10
377.143
20
267.857
10
382.143
20
267.143
10
382.143
20
257.143
0
LWPOLYLINE
8
LIGHT
90
7
70
1
10
370.714
20
462.857
10
371.429
20
473.571
10
375.714
20
473.571
10
377.143
20
467.857
10
382.143
20
467.143
10
381.429
20
462.143
10
370.714
20
462.857
0
LWPOLYLINE
8
LIGHT
90
5
70
1
10
359.286
20
240.000
10
360.000
20
245.000
10
382.143
20
244.286
10
381.429
20
239.286
10
359.286
20
240.000
0
LWPOLYLINE
8
LIGHT
90
5
70
1
10
370.000
20
359.286
10
365.000
20
360.000
10
365.714
20
365.000
10
370.714
20
364.286
10
370.000
20
359.286
0
LWPOLYLINE
8
LIGHT
90
5
70
1
10
365.714
20
325.000
10
370.714
20
324.286
10
370.000
20
319.286
10
365.000
20
320.000
10
365.714
20
325.000
0
LWPOLYLINE
8
LIGHT
90
5
70
1
10
370.714
20
284.286
10
370.000
20
279.286
10
365.000
20
280.000
10
365.714
20
285.000
10
370.714
20
284.286
0
LWPOLYLINE
8
LIGHT
90
7
70
1
10
358.571
20
467.857
10
360.000
20
462.143
10
365.000
20
461.429
10
364.286
20
456.429
10
353.571
20
457.143
10
354.286
20
467.857
10
358.571
20
467.857
0
LWPOLYLINE
8
LIGHT
90
5
70
1
10
353.571
20
217.143
10
354.286
20
222.143
10
365.000
20
221.429
10
364.286
20
216.429
10
353.571
20
217.143
0
LWPOLYLINE
8
LIGHT
90
5
70
1
10
364.286
20
365.000
10
359.286
20
365.714
10
360.000
20
370.714
10
365.000
20
370.000
10
364.286
20
365.000
0
LWPOLYLINE
8
LIGHT
90
5
70
1
10
359.286
20
347.143
10
364.286
20
347.857
10
365.000
20
331.429
10
359.286
20
331.429
10
359.286
20
347.143
0
LWPOLYLINE
8
LIGHT
90
5
70
1
10
365.000
20
478.571
10
364.286
20
473.571
10
353.571
20
474.286
10
354.286
20
479.286
10
365.000
20
478.571
0
LWPOLYLINE
8
LIGHT
90
5
70
1
10
358.571
20
330.714
10
359.286
20
314.286
10
353.571
20
314.286
10
353.571
20
330.000
10
358.571
20
330.714
0
LWPOLYLINE
8
LIGHT
90
7
70
1
10
353.571
20
307.143
10
352.857
20
296.429
10
342.143
20
297.143
10
342.143
20
301.429
10
347.857
20
302.857
10
348.571
20
307.857
10
353.571
20
307.143
0
LWPOLYLINE
8
LIGHT
90
5
70
1
10
347.857
20
337.143
10
348.571
20
342.143
10
353.571
20
341.429
10
352.857
20
336.429
10
347.857
20
337.143
0
LWPOLYLINE
8
LIGHT
90
19
70
1
10
336.429
20
114.286
10
336.429
20
118.571
10
347.143
20
119.286
10
347.857
20
124.286
10
337.143
20
125.000
10
335.714
20
119.286
10
325.714
20
119.286
10
325.000
20
124.286
10
330.714
20
125.714
10
331.429
20
130.714
10
336.429
20
131.429
10
337.143
20
136.429
10
347.143
20
136.429
10
348.571
20
130.714
10
353.571
20
130.000
10
353.571
20
102.857
10
342.143
20
102.857
10
342.143
20
112.857
10
336.429
20
114.286
0
LWPOLYLINE
8
LIGHT
90
5
70
1
10
347.857
20
280.000
10
342.143
20
280.000
10
342.143
20
290.000
10
347.143
20
290.714
10
347.857
20
280.000
0
LWPOLYLINE
8
LIGHT
90
5
70
1
10
342.143
20
257.143
10
342.857
20
262.143
10
347.857
20
261.429
10
347.143
20
256.429
10
342.143
20
257.143
0
LWPOLYLINE
8
LIGHT
90
5
70
1
10
336.429
20
468.571
10
337.143
20
473.571
10
347.857
20
472.857
10
347.143
20
467.857
10
336.429
20
468.571
0
LWPOLYLINE
8
LIGHT
90
5
70
1
10
342.143
20
238.571
10
341.429
20
233.571
10
336.429
20
234.286
10
337.143
20
239.286
10
342.143
20
238.571
0
LWPOLYLINE
8
LIGHT
90
5
70
1
10
342.143
20
227.143
10
341.429
20
222.143
10
336.429
20
222.857
10
337.143
20
227.857
10
342.143
20
227.143
0
LWPOLYLINE
8
LIGHT
90
5
70
1
10
336.429
20
188.571
10
337.143
20
193.571
10
342.143
20
192.857
10
341.429
20
187.857
10
336.429
20
188.571
0
LWPOLYLINE
8
LIGHT
90
5
70
1
10
336.429
20
255.714
10
335.714
20
250.714
10
330.714
20
251.429
10
331.429
20
256.429
10
336.429
20
255.714
0
LWPOLYLINE
8
LIGHT
90
5
70
1
10
335.714
20
462.143
10
325.000
20
462.857
10
325.714
20
467.857
10
336.429
20
467.143
10
335.714
20
462.143
0
LWPOLYLINE
8
LIGHT
90
5
70
1
10
335.714
20
227.857
10
330.714
20
228.571
10
331.429
20
233.571
10
336.429
20
232.857
10
335.714
20
227.857
0
LWPOLYLINE
8
LIGHT
90
5
70
1
10
330.714
20
365.714
10
331.429
20
370.714
10
336.429
20
370.000
10
335.714
20
365.000
10
330.714
20
365.714
0
LWPOLYLINE
8
LIGHT
90
7
70
1
10
319.286
20
142.857
10
319.286
20
147.143
10
325.000
20
148.571
10
325.714
20
153.571
10
330.714
20
152.857
10
330.000
20
142.143
10
319.286
20
142.857
0
LWPOLYLINE
8
LIGHT
90
7
70
1
10
325.000
20
291.429
10
325.714
20
296.429
10
330.714
20
295.714
10
330.000
20
285.000
10
319.286
20
285.714
10
319.286
20
290.000
10
325.000
20
291.429
0
LWPOLYLINE
8
LIGHT
90
5
70
1
10
320.000
20
250.714
10
330.714
20
250.000
10
330.000
20
245.000
10
319.286
20
245.714
10
320.000
20
250.714
0
LWPOLYLINE
8
LIGHT
90
9
70
1
10
325.000
20
130.000
10
324.286
20
125.000
10
313.571
20
125.714
10
313.571
20
130.000
10
319.286
20
131.429
10
320.000
20
136.429
10
330.714
20
135.714
10
330.714
20
131.429
10
325.000
20
130.000
0
LWPOLYLINE
8
LIGHT
90
5
70
1
10
325.714
20
330.714
10
330.714
20
330.000
10
330.000
20
325.000
10
325.000
20
325.714
10
325.714
20
330.714
0
LWPOLYLINE
8
LIGHT
90
5
70
1
10
325.000
20
158.571
10
324.286
20
153.571
10
319.286
20
154.286
10
320.000
20
159.286
10
325.000
20
158.571
0
LWPOLYLINE
8
LIGHT
90
5
70
1
10
320.000
20
262.143
10
325.000
20
261.429
10
324.286
20
256.429
10
319.286
20
257.143
10
320.000
20
262.143
0
LWPOLYLINE
8
LIGHT
90
5
70
1
10
313.571
20
200.000
10
314.286
20
205.000
10
319.286
20
204.286
10
318.571
20
199.286
10
313.571
20
200.000
0
LWPOLYLINE
8
LIGHT
90
5
70
1
10
314.286
20
142.143
10
319.286
20
141.429
10
318.571
20
136.429
10
313.571
20
137.143
10
314.286
20
142.143
0
LWPOLYLINE
8
LIGHT
90
5
70
1
10
319.286
20
330.000
10
318.571
20
325.000
10
307.857
20
325.714
10
308.571
20
330.714
10
319.286
20
330.000
0
LWPOLYLINE
8
LIGHT
90
5
70
1
10
318.571
20
250.714
10
313.571
20
251.429
10
314.286
20
256.429
10
319.286
20
255.714
10
318.571
20
250.714
0
LWPOLYLINE
8
LIGHT
90
5
70
1
10
313.571
20
210.000
10
312.857
20
205.000
10
307.857
20
205.714
10
308.571
20
210.714
10
313.571
20
210.000
0
LWPOLYLINE
8
LIGHT
90
5
70
1
10
307.857
20
360.000
10
308.571
20
365.000
10
313.571
20
364.286
10
312.857
20
359.286
10
307.857
20
360.000
0
LWPOLYLINE
8
LIGHT
90
5
70
1
10
307.857
20
130.000
10
307.143
20
125.000
10
302.143
20
125.714
10
302.857
20
130.714
10
307.857
20
130.000
0
LWPOLYLINE
8
LIGHT
90
5
70
1
10
301.429
20
222.143
10
296.429
20
222.857
10
297.143
20
227.857
10
302.143
20
227.143
10
301.429
20
222.143
0
LWPOLYLINE
8
LIGHT
90
7
70
1
10
301.429
20
147.857
10
290.714
20
148.571
10
291.429
20
159.286
10
295.714
20
159.286
10
297.143
20
153.571
10
302.143
20
152.857
10
301.429
20
147.857
0
LWPOLYLINE
8
LIGHT
90
5
70
1
10
297.143
20
205.000
10
302.143
20
204.286
10
301.429
20
199.286
10
296.429
20
200.000
10
297.143
20
205.000
0
LWPOLYLINE
8
LIGHT
90
5
70
1
10
291.429
20
187.857
10
296.429
20
187.143
10
295.714
20
182.143
10
290.714
20
182.857
10
291.429
20
187.857
0
LWPOLYLINE
8
LIGHT
90
5
70
1
10
290.714
20
262.857
10
291.429
20
267.857
10
296.429
20
267.143
10
295.714
20
262.143
10
290.714
20
262.857
0
LWPOLYLINE
8
LIGHT
90
5
70
1
10
291.429
20
370.714
10
296.429
20
370.000
10
295.714
20
365.000
10
290.714
20
365.714
10
291.429
20
370.714
0
LWPOLYLINE
8
LIGHT
90
5
70
1
10
290.000
20
193.571
10
285.000
20
194.286
10
285.714
20
199.286
10
290.714
20
198.571
10
290.000
20
193.571
0
LWPOLYLINE
8
LIGHT
90
5
70
1
10
285.000
20
228.571
10
285.714
20
233.571
10
290.714
20
232.857
10
290.000
20
227.857
10
285.000
20
228.571
0
LWPOLYLINE
8
LIGHT
90
7
70
1
10
285.000
20
171.429
10
290.714
20
170.000
10
290.714
20
165.714
10
279.286
20
165.714
10
279.286
20
192.857
10
284.286
20
193.571
10
285.000
20
171.429
0
LWPOLYLINE
8
LIGHT
90
7
70
1
10
273.571
20
200.000
10
273.571
20
204.286
10
279.286
20
205.714
10
280.000
20
210.714
10
285.000
20
210.000
10
284.286
20
199.286
10
273.571
20
200.000
0
LWPOLYLINE
8
LIGHT
90
7
70
1
10
279.286
20
262.857
10
273.571
20
262.857
10
273.571
20
272.857
10
267.857
20
274.286
10
267.857
20
284.286
10
278.571
20
285.000
10
279.286
20
262.857
0
LWPOLYLINE
8
LIGHT
90
7
70
1
10
279.286
20
222.857
10
267.857
20
222.857
10
267.857
20
232.857
10
273.571
20
234.286
10
274.286
20
239.286
10
278.571
20
239.286
10
279.286
20
222.857
0
LWPOLYLINE
8
LIGHT
90
11
70
1
10
272.857
20
445.000
10
262.143
20
445.714
10
262.143
20
450.000
10
267.857
20
451.429
10
268.571
20
456.429
10
273.571
20
457.143
10
274.286
20
462.143
10
279.286
20
461.429
10
279.286
20
451.429
10
273.571
20
450.000
10
272.857
20
445.000
0
LWPOLYLINE
8
LIGHT
90
5
70
1
10
268.571
20
399.286
10
273.571
20
398.571
10
272.857
20
393.571
10
267.857
20
394.286
10
268.571
20
399.286
0
LWPOLYLINE
8
LIGHT
90
7
70
1
10
268.571
20
210.714
10
273.571
20
210.000
10
272.857
20
205.000
10
256.429
20
205.714
10
257.143
20
216.429
10
267.143
20
216.429
10
268.571
20
210.714
0
LWPOLYLINE
8
LIGHT
90
5
70
1
10
267.857
20
392.857
10
267.143
20
387.857
10
262.143
20
388.571
10
262.857
20
393.571
10
267.857
20
392.857
0
LWPOLYLINE
8
LIGHT
90
11
70
1
10
262.143
20
267.143
10
262.143
20
257.143
10
256.429
20
255.714
10
255.714
20
245.000
10
245.000
20
245.714
10
245.714
20
250.714
10
250.714
20
251.429
10
250.714
20
272.857
10
255.714
20
273.571
10
257.143
20
267.857
10
262.143
20
267.143
0
LWPOLYLINE
8
LIGHT
90
5
70
1
10
257.143
20
245.000
10
262.143
20
244.286
10
261.429
20
239.286
10
256.429
20
240.000
10
257.143
20
245.000
0
LWPOLYLINE
8
LIGHT
90
5
70
1
10
256.429
20
280.000
10
256.429
20
290.000
10
261.429
20
290.714
10
262.143
20
280.000
10
256.429
20
280.000
0
LWPOLYLINE
8
LIGHT
90
5
70
1
10
256.429
20
427.143
10
261.429
20
427.857
10
262.143
20
411.429
10
256.429
20
411.429
10
256.429
20
427.143
0
LWPOLYLINE
8
LIGHT
90
5
70
1
10
256.429
20
400.000
10
257.143
20
405.000
10
262.143
20
404.286
10
261.429
20
399.286
10
256.429
20
400.000
0
LWPOLYLINE
8
LIGHT
90
5
70
1
10
256.429
20
382.857
10
257.143
20
387.857
10
262.143
20
387.143
10
261.429
20
382.143
10
256.429
20
382.857
0
LWPOLYLINE
8
LIGHT
90
5
70
1
10
256.429
20
434.286
10
257.143
20
439.286
10
262.143
20
438.571
10
261.429
20
433.571
10
256.429
20
434.286
0
LWPOLYLINE
8
LIGHT
90
5
70
1
10
245.714
20
222.143
10
256.429
20
221.429
10
255.714
20
216.429
10
245.000
20
217.143
10
245.714
20
222.143
0
LWPOLYLINE
8
LIGHT
90
9
70
1
10
245.000
20
370.000
10
250.714
20
371.429
10
251.429
20
376.429
10
255.714
20
376.429
10
256.429
20
365.714
10
250.714
20
364.286
10
250.000
20
353.571
10
245.000
20
354.286
10
245.000
20
370.000
0
LWPOLYLINE
8
LIGHT
90
5
70
1
10
256.429
20
432.857
10
255.714
20
427.857
10
250.714
20
428.571
10
251.429
20
433.571
10
256.429
20
432.857
0
LWPOLYLINE
8
LIGHT
90
5
70
1
10
255.714
20
313.571
10
250.714
20
314.286
10
251.429
20
319.286
10
256.429
20
318.571
10
255.714
20
313.571
0
LWPOLYLINE
8
LIGHT
90
5
70
1
10
255.714
20
302.143
10
250.714
20
302.857
10
251.429
20
307.857
10
256.429
20
307.143
10
255.714
20
302.143
0
LWPOLYLINE
8
LIGHT
90
5
70
1
10
250.714
20
415.714
10
250.000
20
410.714
10
245.000
20
411.429
10
245.714
20
416.429
10
250.714
20
415.714
0
LWPOLYLINE
8
LIGHT
90
5
70
1
10
244.286
20
405.000
10
239.286
20
405.714
10
240.000
20
410.714
10
245.000
20
410.000
10
244.286
20
405.000
0
LWPOLYLINE
8
LIGHT
90
5
70
1
10
238.571
20
245.000
10
233.571
20
245.714
10
234.286
20
250.714
10
239.286
20
250.000
10
238.571
20
245.000
0
LWPOLYLINE
8
LIGHT
90
5
70
1
10
227.857
20
228.571
10
228.571
20
239.286
10
239.286
20
238.571
10
238.571
20
227.857
10
227.857
20
228.571
0
LWPOLYLINE
8
LIGHT
90
5
70
1
10
238.571
20
387.857
10
233.571
20
388.571
10
234.286
20
393.571
10
239.286
20
392.857
10
238.571
20
387.857
0
LWPOLYLINE
8
LIGHT
90
5
70
1
10
233.571
20
312.857
10
232.857
20
307.857
10
222.143
20
308.571
10
222.857
20
313.571
10
233.571
20
312.857
0
LWPOLYLINE
8
LIGHT
90
5
70
1
10
205.000
20
314.286
10
205.714
20
319.286
10
210.714
20
318.571
10
210.000
20
313.571
10
205.000
20
314.286
0
LWPOLYLINE
8
LIGHT
90
5
70
1
10
200.000
20
262.143
10
210.714
20
261.429
10
210.000
20
256.429
10
199.286
20
257.143
10
200.000
20
262.143
0
LWPOLYLINE
8
LIGHT
90
7
70
1
10
193.571
20
352.857
10
204.286
20
353.571
10
205.000
20
337.143
10
199.286
20
337.143
10
199.286
20
347.143
10
193.571
20
348.571
10
193.571
20
352.857
0
LWPOLYLINE
8
LIGHT
90
5
70
1
10
199.286
20
335.714
10
198.571
20
330.714
10
193.571
20
331.429
10
194.286
20
336.429
10
199.286
20
335.714
0
LWPOLYLINE
8
LIGHT
90
5
70
1
10
198.571
20
267.857
10
193.571
20
268.571
10
194.286
20
273.571
10
199.286
20
272.857
10
198.571
20
267.857
0
LWPOLYLINE
8
LIGHT
90
5
70
1
10
193.571
20
347.143
10
192.857
20
342.143
10
187.857
20
342.857
10
188.571
20
347.857
10
193.571
20
347.143
0
LWPOLYLINE
8
LIGHT
90
5
70
1
10
187.857
20
301.429
10
192.857
20
302.143
10
193.571
20
291.429
10
187.857
20
291.429
10
187.857
20
301.429
0
LWPOLYLINE
8
LIGHT
90
7
70
1
10
182.857
20
325.000
10
193.571
20
324.286
10
193.571
20
320.000
10
187.857
20
318.571
10
187.143
20
313.571
10
182.143
20
314.286
10
182.857
20
325.000
0
LWPOLYLINE
8
LIGHT
90
17
70
1
10
170.714
20
341.429
10
170.000
20
336.429
10
165.000
20
337.143
10
165.000
20
347.143
10
154.286
20
347.857
10
153.571
20
352.857
10
164.286
20
353.571
10
165.000
20
364.286
10
170.000
20
365.000
10
171.429
20
359.286
10
176.429
20
358.571
10
175.714
20
353.571
10
170.714
20
352.857
10
170.714
20
348.571
10
176.429
20
347.143
10
176.429
20
342.857
10
170.714
20
341.429
0
LWPOLYLINE
8
LIGHT
90
5
70
1
10
170.000
20
319.286
10
170.714
20
308.571
10
165.000
20
308.571
10
165.000
20
318.571
10
170.000
20
319.286
0
LWPOLYLINE
8
LIGHT
90
7
70
1
10
165.000
20
377.143
10
165.714
20
382.143
10
170.714
20
381.429
10
170.000
20
370.714
10
159.286
20
371.429
10
159.286
20
375.714
10
165.000
20
377.143
0
LWPOLYLINE
8
LIGHT
90
5
70
1
10
164.286
20
325.000
10
159.286
20
325.714
10
160.000
20
330.714
10
165.000
20
330.000
10
164.286
20
325.000
0
LWPOLYLINE
8
LIGHT
90
5
70
1
10
158.571
20
330.714
10
147.857
20
331.429
10
148.571
20
336.429
10
159.286
20
335.714
10
158.571
20
330.714
0
LWPOLYLINE
8
LIGHT
90
5
70
1
10
142.857
20
319.286
10
147.857
20
318.571
10
147.143
20
313.571
10
142.143
20
314.286
10
142.857
20
319.286
0
LWPOLYLINE
8
LIGHT
90
7
70
1
10
147.857
20
337.143
10
142.143
20
337.143
10
142.143
20
352.857
10
136.429
20
354.286
10
136.429
20
358.571
10
147.143
20
359.286
10
147.857
20
337.143
0
LWPOLYLINE
8
MEDIUM
90
5
70
1
10
531.429
20
290.714
10
542.143
20
290.000
10
541.429
20
285.000
10
530.714
20
285.714
10
531.429
20
290.714
0
LWPOLYLINE
8
MEDIUM
90
5
70
1
10
512.857
20
342.143
10
507.857
20
342.857
10
508.571
20
347.857
10
513.571
20
347.143
10
512.857
20
342.143
0
LWPOLYLINE
8
MEDIUM
90
5
70
1
10
507.857
20
365.714
10
502.143
20
365.714
10
502.143
20
375.714
10
507.143
20
376.429
10
507.857
20
365.714
0
LWPOLYLINE
8
MEDIUM
90
5
70
1
10
507.857
20
341.429
10
507.143
20
336.429
10
502.143
20
337.143
10
502.857
20
342.143
10
507.857
20
341.429
0
LWPOLYLINE
8
MEDIUM
90
5
70
1
10
485.000
20
417.143
10
485.714
20
422.143
10
490.714
20
421.429
10
490.000
20
416.429
10
485.000
20
417.143
0
LWPOLYLINE
8
MEDIUM
90
5
70
1
10
461.429
20
336.429
10
456.429
20
337.143
10
457.143
20
342.143
10
462.143
20
341.429
10
461.429
20
336.429
0
LWPOLYLINE
8
MEDIUM
90
15
70
1
10
451.429
20
330.714
10
456.429
20
330.000
10
455.714
20
325.000
10
445.000
20
325.714
10
445.000
20
330.000
10
439.286
20
331.429
10
438.571
20
336.429
10
433.571
20
337.143
10
434.286
20
353.571
10
439.286
20
352.857
10
439.286
20
342.857
10
445.000
20
341.429
10
445.714
20
336.429
10
450.714
20
335.714
10
451.429
20
330.714
0
LWPOLYLINE
8
MEDIUM
90
5
70
1
10
445.000
20
342.857
10
445.714
20
347.857
10
456.429
20
347.143
10
455.714
20
342.143
10
445.000
20
342.857
0
LWPOLYLINE
8
MEDIUM
90
5
70
1
10
428.571
20
336.429
10
433.571
20
335.714
10
432.857
20
330.714
10
427.857
20
331.429
10
428.571
20
336.429
0
LWPOLYLINE
8
MEDIUM
90
5
70
1
10
416.429
20
358.571
10
421.429
20
359.286
10
422.143
20
348.571
10
416.429
20
348.571
10
416.429
20
358.571
0
LWPOLYLINE
8
MEDIUM
90
5
70
1
10
422.143
20
284.286
10
421.429
20
279.286
10
416.429
20
280.000
10
417.143
20
285.000
10
422.143
20
284.286
0
LWPOLYLINE
8
MEDIUM
90
5
70
1
10
416.429
20
290.000
10
415.714
20
285.000
10
410.714
20
285.714
10
411.429
20
290.714
10
416.429
20
290.000
0
LWPOLYLINE
8
MEDIUM
90
5
70
1
10
410.714
20
335.714
10
410.000
20
330.714
10
405.000
20
331.429
10
405.714
20
336.429
10
410.714
20
335.714
0
LWPOLYLINE
8
MEDIUM
90
7
70
1
10
404.286
20
342.143
10
399.286
20
342.857
10
400.000
20
353.571
10
410.714
20
352.857
10
410.714
20
348.571
10
405.000
20
347.143
10
404.286
20
342.143
0
LWPOLYLINE
8
MEDIUM
90
5
70
1
10
399.286
20
274.286
10
400.000
20
279.286
10
405.000
20
278.571
10
404.286
20
273.571
10
399.286
20
274.286
0
LWPOLYLINE
8
MEDIUM
90
5
70
1
10
393.571
20
354.286
10
394.286
20
359.286
10
399.286
20
358.571
10
398.571
20
353.571
10
393.571
20
354.286
0
LWPOLYLINE
8
MEDIUM
90
5
70
1
10
388.571
20
473.571
10
393.571
20
472.857
10
392.857
20
467.857
10
387.857
20
468.571
10
388.571
20
473.571
0
LWPOLYLINE
8
MEDIUM
90
5
70
1
10
382.143
20
245.714
10
382.857
20
250.714
10
387.857
20
250.000
10
387.143
20
245.000
10
382.143
20
245.714
0
LWPOLYLINE
8
MEDIUM
90
7
70
1
10
382.143
20
232.857
10
381.429
20
227.857
10
371.429
20
227.857
10
370.000
20
222.143
10
365.000
20
222.857
10
365.714
20
233.571
10
382.143
20
232.857
0
LWPOLYLINE
8
MEDIUM
90
5
70
1
10
370.714
20
352.857
10
370.000
20
347.857
10
365.000
20
348.571
10
365.714
20
353.571
10
370.714
20
352.857
0
LWPOLYLINE
8
MEDIUM
90
5
70
1
10
370.000
20
473.571
10
370.714
20
462.857
10
365.000
20
462.857
10
365.000
20
472.857
10
370.000
20
473.571
0
LWPOLYLINE
8
MEDIUM
90
9
70
1
10
365.000
20
268.571
10
364.286
20
273.571
10
359.286
20
274.286
10
360.000
20
296.429
10
365.000
20
295.714
10
365.000
20
280.000
10
370.714
20
278.571
10
370.714
20
268.571
10
365.000
20
268.571
0
LWPOLYLINE
8
MEDIUM
90
5
70
1
10
360.000
20
330.714
10
370.714
20
330.000
10
370.000
20
325.000
10
359.286
20
325.714
10
360.000
20
330.714
0
LWPOLYLINE
8
MEDIUM
90
5
70
1
10
370.714
20
261.429
10
370.000
20
256.429
10
365.000
20
257.143
10
365.714
20
262.143
10
370.714
20
261.429
0
LWPOLYLINE
8
MEDIUM
90
5
70
1
10
359.286
20
297.143
10
353.571
20
297.143
10
353.571
20
312.857
10
358.571
20
313.571
10
359.286
20
297.143
0
LWPOLYLINE
8
MEDIUM
90
5
70
1
10
353.571
20
472.857
10
352.857
20
467.857
10
347.857
20
468.571
10
348.571
20
473.571
10
353.571
20
472.857
0
LWPOLYLINE
8
MEDIUM
90
5
70
1
10
353.571
20
280.000
10
347.857
20
280.000
10
347.857
20
290.000
10
352.857
20
290.714
10
353.571
20
280.000
0
LWPOLYLINE
8
MEDIUM
90
5
70
1
10
352.857
20
222.143
10
342.143
20
222.857
10
342.857
20
233.571
10
353.571
20
232.857
10
352.857
20
222.143
0
LWPOLYLINE
8
MEDIUM
90
5
70
1
10
342.857
20
267.857
10
347.857
20
267.143
10
347.143
20
262.143
10
342.143
20
262.857
10
342.857
20
267.857
0
LWPOLYLINE
8
MEDIUM
90
5
70
1
10
347.143
20
119.286
10
336.429
20
120.000
10
337.143
20
125.000
10
347.857
20
124.286
10
347.143
20
119.286
0
LWPOLYLINE
8
MEDIUM
90
5
70
1
10
331.429
20
250.714
10
342.143
20
250.000
10
341.429
20
245.000
10
330.714
20
245.714
10
331.429
20
250.714
0
LWPOLYLINE
8
MEDIUM
90
5
70
1
10
335.714
20
233.571
10
330.714
20
234.286
10
331.429
20
239.286
10
336.429
20
238.571
10
335.714
20
233.571
0
LWPOLYLINE
8
MEDIUM
90
5
70
1
10
330.714
20
291.429
10
331.429
20
296.429
10
336.429
20
295.714
10
335.714
20
290.714
10
330.714
20
291.429
0
LWPOLYLINE
8
MEDIUM
90
5
70
1
10
330.714
20
154.286
10
325.000
20
154.286
10
325.000
20
164.286
10
330.000
20
165.000
10
330.714
20
154.286
0
LWPOLYLINE
8
MEDIUM
90
5
70
1
10
330.000
20
125.000
10
325.000
20
125.714
10
325.714
20
130.714
10
330.714
20
130.000
10
330.000
20
125.000
0
LWPOLYLINE
8
MEDIUM
90
7
70
1
10
319.286
20
182.857
10
320.000
20
193.571
10
330.714
20
192.857
10
330.714
20
188.571
10
325.000
20
187.143
10
324.286
20
182.143
10
319.286
20
182.857
0
LWPOLYLINE
8
MEDIUM
90
5
70
1
10
324.286
20
250.714
10
319.286
20
251.429
10
320.000
20
256.429
10
325.000
20
255.714
10
324.286
20
250.714
0
LWPOLYLINE
8
MEDIUM
90
23
70
1
10
296.429
20
192.857
10
307.143
20
193.571
10
307.857
20
204.286
10
312.857
20
205.000
10
314.286
20
199.286
10
319.286
20
198.571
10
318.571
20
193.571
10
313.571
20
192.857
10
313.571
20
137.143
10
319.286
20
135.714
10
319.286
20
131.429
10
302.143
20
131.429
10
302.857
20
136.429
10
307.857
20
137.143
10
307.143
20
142.143
10
302.143
20
142.857
10
302.143
20
147.143
10
307.857
20
148.571
10
307.857
20
187.143
10
302.143
20
187.143
10
302.143
20
154.286
10
297.143
20
153.571
10
296.429
20
192.857
0
LWPOLYLINE
8
MEDIUM
90
5
70
1
10
308.571
20
279.286
10
319.286
20
278.571
10
318.571
20
273.571
10
307.857
20
274.286
10
308.571
20
279.286
0
LWPOLYLINE
8
MEDIUM
90
5
70
1
10
312.857
20
365.000
10
307.857
20
365.714
10
308.571
20
370.714
10
313.571
20
370.000
10
312.857
20
365.000
0
LWPOLYLINE
8
MEDIUM
90
5
70
1
10
290.714
20
222.857
10
290.714
20
232.857
10
295.714
20
233.571
10
296.429
20
222.857
10
290.714
20
222.857
0
LWPOLYLINE
8
MEDIUM
90
5
70
1
10
291.429
20
199.286
10
296.429
20
198.571
10
295.714
20
193.571
10
290.714
20
194.286
10
291.429
20
199.286
0
LWPOLYLINE
8
MEDIUM
90
5
70
1
10
290.714
20
181.429
10
290.000
20
176.429
10
285.000
20
177.143
10
285.714
20
182.143
10
290.714
20
181.429
0
LWPOLYLINE
8
MEDIUM
90
5
70
1
10
285.000
20
234.286
10
285.714
20
239.286
10
290.714
20
238.571
10
290.000
20
233.571
10
285.000
20
234.286
0
LWPOLYLINE
8
MEDIUM
90
5
70
1
10
285.000
20
244.286
10
284.286
20
239.286
10
273.571
20
240.000
10
274.286
20
245.000
10
285.000
20
244.286
0
LWPOLYLINE
8
MEDIUM
90
5
70
1
10
285.000
20
232.857
10
284.286
20
227.857
10
279.286
20
228.571
10
280.000
20
233.571
10
285.000
20
232.857
0
LWPOLYLINE
8
MEDIUM
90
5
70
1
10
262.143
20
222.857
10
262.857
20
227.857
10
267.857
20
227.143
10
267.143
20
222.143
10
262.143
20
222.857
0
LWPOLYLINE
8
MEDIUM
90
5
70
1
10
262.143
20
200.000
10
262.857
20
205.000
10
267.857
20
204.286
10
267.143
20
199.286
10
262.143
20
200.000
0
LWPOLYLINE
8
MEDIUM
90
5
70
1
10
267.857
20
398.571
10
267.143
20
393.571
10
262.143
20
394.286
10
262.857
20
399.286
10
267.857
20
398.571
0
LWPOLYLINE
8
MEDIUM
90
5
70
1
10
261.429
20
427.857
10
256.429
20
428.571
10
257.143
20
433.571
10
262.143
20
432.857
10
261.429
20
427.857
0
LWPOLYLINE
8
MEDIUM
90
5
70
1
10
257.143
20
239.286
10
262.143
20
238.571
10
261.429
20
233.571
10
256.429
20
234.286
10
257.143
20
239.286
0
LWPOLYLINE
8
MEDIUM
90
9
70
1
10
256.429
20
411.429
10
262.143
20
410.000
10
262.143
20
405.714
10
245.000
20
405.714
10
245.714
20
410.714
10
250.714
20
411.429
10
250.714
20
427.143
10
255.714
20
427.857
10
256.429
20
411.429
0
LWPOLYLINE
8
MEDIUM
90
5
70
1
10
255.714
20
285.000
10
256.429
20
274.286
10
250.714
20
274.286
10
250.714
20
284.286
10
255.714
20
285.000
0
LWPOLYLINE
8
MEDIUM
90
5
70
1
10
250.714
20
377.143
10
251.429
20
382.143
10
256.429
20
381.429
10
255.714
20
376.429
10
250.714
20
377.143
0
LWPOLYLINE
8
MEDIUM
90
5
70
1
10
250.714
20
301.429
10
255.714
20
302.143
10
256.429
20
291.429
10
250.714
20
291.429
10
250.714
20
301.429
0
LWPOLYLINE
8
MEDIUM
90
5
70
1
10
250.714
20
375.714
10
250.000
20
370.714
10
245.000
20
371.429
10
245.714
20
376.429
10
250.714
20
375.714
0
LWPOLYLINE
8
MEDIUM
90
5
70
1
10
245.714
20
307.857
10
250.714
20
307.143
10
250.000
20
302.143
10
245.000
20
302.857
10
245.714
20
307.857
0
LWPOLYLINE
8
MEDIUM
90
11
70
1
10
245.000
20
272.857
10
250.000
20
273.571
10
250.714
20
251.429
10
245.000
20
250.000
10
244.286
20
245.000
10
239.286
20
245.714
10
238.571
20
250.714
10
233.571
20
251.429
10
233.571
20
255.714
10
245.000
20
257.143
10
245.000
20
272.857
0
LWPOLYLINE
8
MEDIUM
90
5
70
1
10
244.286
20
307.857
10
233.571
20
308.571
10
234.286
20
313.571
10
245.000
20
312.857
10
244.286
20
307.857
0
LWPOLYLINE
8
MEDIUM
90
5
70
1
10
240.000
20
382.143
10
245.000
20
381.429
10
244.286
20
376.429
10
239.286
20
377.143
10
240.000
20
382.143
0
LWPOLYLINE
8
MEDIUM
90
5
70
1
10
238.571
20
382.143
10
233.571
20
382.857
10
234.286
20
387.857
10
239.286
20
387.143
10
238.571
20
382.143
0
LWPOLYLINE
8
MEDIUM
90
5
70
1
10
234.286
20
410.714
10
239.286
20
410.000
10
238.571
20
405.000
10
233.571
20
405.714
10
234.286
20
410.714
0
LWPOLYLINE
8
MEDIUM
90
5
70
1
10
239.286
20
398.571
10
238.571
20
393.571
10
233.571
20
394.286
10
234.286
20
399.286
10
239.286
20
398.571
0
LWPOLYLINE
8
MEDIUM
90
5
70
1
10
227.857
20
251.429
10
222.143
20
251.429
10
222.143
20
261.429
10
227.143
20
262.143
10
227.857
20
251.429
0
LWPOLYLINE
8
MEDIUM
90
5
70
1
10
216.429
20
308.571
10
217.143
20
313.571
10
222.143
20
312.857
10
221.429
20
307.857
10
216.429
20
308.571
0
LWPOLYLINE
8
MEDIUM
90
5
70
1
10
215.714
20
267.857
10
216.429
20
257.143
10
210.714
20
257.143
10
210.714
20
267.143
10
215.714
20
267.857
0
LWPOLYLINE
8
MEDIUM
90
5
70
1
10
204.286
20
330.714
10
199.286
20
331.429
10
200.000
20
336.429
10
205.000
20
335.714
10
204.286
20
330.714
0
LWPOLYLINE
8
MEDIUM
90
5
70
1
10
205.000
20
318.571
10
204.286
20
313.571
10
199.286
20
314.286
10
200.000
20
319.286
10
205.000
20
318.571
0
LWPOLYLINE
8
MEDIUM
90
5
70
1
10
199.286
20
268.571
10
200.000
20
273.571
10
205.000
20
272.857
10
204.286
20
267.857
10
199.286
20
268.571
0
LWPOLYLINE
8
MEDIUM
90
5
70
1
10
198.571
20
313.571
10
199.286
20
302.857
10
193.571
20
302.857
10
193.571
20
312.857
10
198.571
20
313.571
0
LWPOLYLINE
8
MEDIUM
90
5
70
1
10
198.571
20
273.571
10
193.571
20
274.286
10
194.286
20
279.286
10
199.286
20
278.571
10
198.571
20
273.571
0
LWPOLYLINE
8
MEDIUM
90
5
70
1
10
193.571
20
337.143
10
193.571
20
347.143
10
198.571
20
347.857
10
199.286
20
337.143
10
193.571
20
337.143
0
LWPOLYLINE
8
MEDIUM
90
5
70
1
10
187.857
20
280.000
10
187.857
20
290.000
10
192.857
20
290.714
10
193.571
20
280.000
10
187.857
20
280.000
0
LWPOLYLINE
8
MEDIUM
90
5
70
1
10
170.714
20
308.571
10
170.714
20
318.571
10
175.714
20
319.286
10
176.429
20
308.571
10
170.714
20
308.571
0
LWPOLYLINE
8
MEDIUM
90
9
70
1
10
159.286
20
331.429
10
158.571
20
336.429
10
147.857
20
337.143
10
148.571
20
353.571
10
153.571
20
352.857
10
154.286
20
347.857
10
165.000
20
347.143
10
165.000
20
331.429
10
159.286
20
331.429
0
LWPOLYLINE
8
MEDIUM
90
5
70
1
10
153.571
20
318.571
10
152.857
20
313.571
10
147.857
20
314.286
10
148.571
20
319.286
10
153.571
20
318.571
0
LWPOLYLINE
8
BLACK
90
5
70
1
10
434.286
20
336.429
10
439.286
20
335.714
10
438.571
20
330.714
10
433.571
20
331.429
10
434.286
20
336.429
0
LWPOLYLINE
8
BLACK
90
5
70
1
10
428.571
20
353.571
10
433.571
20
352.857
10
432.857
20
347.857
10
427.857
20
348.571
10
428.571
20
353.571
0
LWPOLYLINE
8
BLACK
90
15
70
1
10
347.857
20
257.143
10
347.857
20
278.571
10
353.571
20
280.000
10
353.571
20
295.714
10
358.571
20
296.429
10
359.286
20
274.286
10
365.000
20
272.857
10
365.000
20
257.143
10
381.429
20
256.429
10
382.143
20
245.714
10
342.143
20
245.714
10
341.429
20
250.714
10
336.429
20
251.429
10
336.429
20
255.714
10
347.857
20
257.143
0
LWPOLYLINE
8
BLACK
90
5
70
1
10
365.714
20
359.286
10
370.714
20
358.571
10
370.000
20
353.571
10
365.000
20
354.286
10
365.714
20
359.286
0
LWPOLYLINE
8
BLACK
90
5
70
1
10
359.286
20
324.286
10
364.286
20
325.000
10
365.000
20
314.286
10
359.286
20
314.286
10
359.286
20
324.286
0
LWPOLYLINE
8
BLACK
90
7
70
1
10
359.286
20
462.857
10
358.571
20
467.857
10
353.571
20
468.571
10
353.571
20
472.857
10
364.286
20
473.571
10
365.000
20
462.857
10
359.286
20
462.857
0
LWPOLYLINE
8
BLACK
90
5
70
1
10
365.000
20
232.857
10
364.286
20
222.143
10
353.571
20
222.857
10
354.286
20
233.571
10
365.000
20
232.857
0
LWPOLYLINE
8
BLACK
90
5
70
1
10
342.143
20
232.857
10
341.429
20
227.857
10
336.429
20
228.571
10
337.143
20
233.571
10
342.143
20
232.857
0
LWPOLYLINE
8
BLACK
90
13
70
1
10
324.286
20
159.286
10
319.286
20
158.571
10
319.286
20
142.857
10
313.571
20
142.857
10
313.571
20
192.857
10
318.571
20
193.571
10
320.000
20
182.143
10
325.000
20
182.857
10
325.714
20
187.857
10
330.714
20
187.143
10
330.714
20
165.714
10
325.000
20
164.286
10
324.286
20
159.286
0
LWPOLYLINE
8
BLACK
90
5
70
1
10
330.714
20
255.714
10
330.000
20
250.714
10
325.000
20
251.429
10
325.714
20
256.429
10
330.714
20
255.714
0
LWPOLYLINE
8
BLACK
90
5
70
1
10
302.143
20
187.143
10
307.143
20
187.857
10
307.857
20
148.571
10
302.143
20
148.571
10
302.143
20
187.143
0
LWPOLYLINE
8
BLACK
90
5
70
1
10
307.143
20
199.286
10
302.143
20
200.000
10
302.857
20
205.000
10
307.857
20
204.286
10
307.143
20
199.286
0
LWPOLYLINE
8
BLACK
90
9
70
1
10
290.714
20
170.000
10
285.000
20
171.429
10
285.000
20
175.714
10
290.714
20
177.143
10
291.429
20
182.143
10
295.714
20
182.143
10
296.429
20
160.000
10
290.714
20
160.000
10
290.714
20
170.000
0
LWPOLYLINE
8
BLACK
90
5
70
1
10
291.429
20
193.571
10
296.429
20
192.857
10
295.714
20
187.857
10
290.714
20
188.571
10
291.429
20
193.571
0
LWPOLYLINE
8
BLACK
90
5
70
1
10
279.286
20
194.286
10
280.000
20
199.286
10
285.000
20
198.571
10
284.286
20
193.571
10
279.286
20
194.286
0
LWPOLYLINE
8
BLACK
90
5
70
1
10
280.000
20
239.286
10
285.000
20
238.571
10
284.286
20
233.571
10
279.286
20
234.286
10
280.000
20
239.286
0
LWPOLYLINE
8
BLACK
90
5
70
1
10
273.571
20
245.714
10
274.286
20
250.714
10
279.286
20
250.000
10
278.571
20
245.000
10
273.571
20
245.714
0
LWPOLYLINE
8
BLACK
90
5
70
1
10
267.857
20
221.429
10
267.143
20
216.429
10
256.429
20
217.143
10
257.143
20
222.143
10
267.857
20
221.429
0
LWPOLYLINE
8
BLACK
90
15
70
1
10
245.000
20
377.143
10
244.286
20
382.143
10
239.286
20
382.857
10
239.286
20
398.571
10
233.571
20
400.000
10
233.571
20
404.286
10
255.714
20
405.000
10
257.143
20
399.286
10
262.143
20
398.571
10
262.143
20
388.571
10
256.429
20
387.143
10
255.714
20
382.143
10
250.714
20
381.429
10
250.000
20
376.429
10
245.000
20
377.143
0
LWPOLYLINE
8
BLACK
90
31
70
1
10
210.000
20
262.143
10
200.000
20
262.143
10
199.286
20
267.143
10
205.000
20
268.571
10
205.000
20
272.857
10
199.286
20
274.286
10
198.571
20
279.286
10
193.571
20
280.000
10
193.571
20
301.429
10
199.286
20
302.857
10
200.000
20
313.571
10
215.714
20
313.571
10
217.143
20
307.857
10
244.286
20
307.857
10
245.714
20
302.143
10
250.714
20
301.429
10
250.714
20
291.429
10
256.429
20
290.000
10
255.714
20
285.000
10
250.714
20
284.286
10
250.714
20
274.286
10
245.000
20
272.857
10
244.286
20
256.429
10
228.571
20
256.429
10
227.143
20
262.143
10
222.857
20
262.143
10
222.143
20
251.429
10
216.429
20
251.429
10
216.429
20
267.143
10
211.429
20
267.857
10
210.000
20
262.143
0
ENDSEC
0
EOF