  0
SECTION
  2
HEADER
  9
$ACADVER
  1
AC1027
  9
$ACADMAINTVER
 70
105
  9
$DWGCODEPAGE
  3
ANSI_1252
  9
$LASTSAVEDBY
  1
ezdxf
  9
$REQUIREDVERSIONS
160
0
  9
$INSBASE
 10
0.0
 20
0.0
 30
0.0
  9
$EXTMIN
 10
1e+20
 20
1e+20
 30
1e+20
  9
$EXTMAX
 10
-1e+20
 20
-1e+20
 30
-1e+20
  9
$LIMMIN
 10
0.0
 20
0.0
  9
$LIMMAX
 10
420.0
 20
297.0
  9
$ORTHOMODE
 70
0
  9
$REGENMODE
 70
1
  9
$FILLMODE
 70
1
  9
$QTEXTMODE
 70
0
  9
$MIRRTEXT
 70
1
  9
$LTSCALE
 40
1.0
  9
$ATTMODE
 70
1
  9
$TEXTSIZE
 40
2.5
  9
$TRACEWID
 40
1.0
  9
$TEXTSTYLE
  7
Standard
  9
$CLAYER
  8
0
  9
$CELTYPE
  6
ByLayer
  9
$CECOLOR
 62
256
  9
$CELTSCALE
 40
1.0
  9
$DISPSILH
 70
0
  9
$DIMSCALE
 40
1.0
  9
$DIMASZ
 40
2.5
  9
$DIMEXO
 40
0.625
  9
$DIMDLI
 40
3.75
  9
$DIMRND
 40
0.0
  9
$DIMDLE
 40
0.0
  9
$DIMEXE
 40
1.25
  9
$DIMTP
 40
0.0
  9
$DIMTM
 40
0.0
  9
$DIMTXT
 40
2.5
  9
$DIMCEN
 40
2.5
  9
$DIMTSZ
 40
0.0
  9
$DIMTOL
 70
0
  9
$DIMLIM
 70
0
  9
$DIMTIH
 70
0
  9
$DIMTOH
 70
0
  9
$DIMSE1
 70
0
  9
$DIMSE2
 70
0
  9
$DIMTAD
 70
1
  9
$DIMZIN
 70
8
  9
$DIMBLK
  1

  9
$DIMASO
 70
1
  9
$DIMSHO
 70
1
  9
$DIMPOST
  1

  9
$DIMAPOST
  1

  9
$DIMALT
 70
0
  9
$DIMALTD
 70
3
  9
$DIMALTF
 40
0.03937007874
  9
$DIMLFAC
 40
1.0
  9
$DIMTOFL
 70
1
  9
$DIMTVP
 40
0.0
  9
$DIMTIX
 70
0
  9
$DIMSOXD
 70
0
  9
$DIMSAH
 70
0
  9
$DIMBLK1
  1

  9
$DIMBLK2
  1

  9
$DIMSTYLE
  2
ISO-25
  9
$DIMCLRD
 70
0
  9
$DIMCLRE
 70
0
  9
$DIMCLRT
 70
0
  9
$DIMTFAC
 40
1.0
  9
$DIMGAP
 40
0.625
  9
$DIMJUST
 70
0
  9
$DIMSD1
 70
0
  9
$DIMSD2
 70
0
  9
$DIMTOLJ
 70
0
  9
$DIMTZIN
 70
8
  9
$DIMALTZ
 70
0
  9
$DIMALTTZ
 70
0
  9
$DIMUPT
 70
0
  9
$DIMDEC
 70
2
  9
$DIMTDEC
 70
2
  9
$DIMALTU
 70
2
  9
$DIMALTTD
 70
3
  9
$DIMTXSTY
  7
Standard
  9
$DIMAUNIT
 70
0
  9
$DIMADEC
 70
0
  9
$DIMALTRND
 40
0.0
  9
$DIMAZIN
 70
0
  9
$DIMDSEP
 70
44
  9
$DIMATFIT
 70
3
  9
$DIMFRAC
 70
0
  9
$DIMLDRBLK
  1

  9
$DIMLUNIT
 70
2
  9
$DIMLWD
 70
-2
  9
$DIMLWE
 70
-2
  9
$DIMTMOVE
 70
0
  9
$DIMFXL
 40
1.0
  9
$DIMFXLON
 70
0
  9
$DIMJOGANG
 40
0.785398163397
  9
$DIMTFILL
 70
0
  9
$DIMTFILLCLR
 70
0
  9
$DIMARCSYM
 70
0
  9
$DIMLTYPE
  6

  9
$DIMLTEX1
  6

  9
$DIMLTEX2
  6

  9
$DIMTXTDIRECTION
 70
0
  9
$LUNITS
 70
2
  9
$LUPREC
 70
4
  9
$SKETCHINC
 40
1.0
  9
$FILLETRAD
 40
10.0
  9
$AUNITS
 70
0
  9
$AUPREC
 70
2
  9
$MENU
  1
.
  9
$ELEVATION
 40
0.0
  9
$PELEVATION
 40
0.0
  9
$THICKNESS
 40
0.0
  9
$LIMCHECK
 70
0
  9
$CHAMFERA
 40
0.0
  9
$CHAMFERB
 40
0.0
  9
$CHAMFERC
 40
0.0
  9
$CHAMFERD
 40
0.0
  9
$SKPOLY
 70
0
  9
$TDCREATE
 40
2461242.7855208335
  9
$TDUCREATE
 40
2458532.153996898
  9
$TDUPDATE
 40
2461242.7855208335
  9
$TDUUPDATE
 40
2458532.1544311
  9
$TDINDWG
 40
0.0
  9
$TDUSRTIMER
 40
0.0
  9
$USRTIMER
 70
1
  9
$ANGBASE
 50
0.0
  9
$ANGDIR
 70
0
  9
$PDMODE
 70
0
  9
$PDSIZE
 40
0.0
  9
$PLINEWID
 40
0.0
  9
$SPLFRAME
 70
0
  9
$SPLINETYPE
 70
6
  9
$SPLINESEGS
 70
8
  9
$HANDSEED
  5
58
  9
$SURFTAB1
 70
6
  9
$SURFTAB2
 70
6
  9
$SURFTYPE
 70
6
  9
$SURFU
 70
6
  9
$SURFV
 70
6
  9
$UCSBASE
  2

  9
$UCSNAME
  2

  9
$UCSORG
 10
0.0
 20
0.0
 30
0.0
  9
$UCSXDIR
 10
1.0
 20
0.0
 30
0.0
  9
$UCSYDIR
 10
0.0
 20
1.0
 30
0.0
  9
$UCSORTHOREF
  2

  9
$UCSORTHOVIEW
 70
0
  9
$UCSORGTOP
 10
0.0
 20
0.0
 30
0.0
  9
$UCSORGBOTTOM
 10
0.0
 20
0.0
 30
0.0
  9
$UCSORGLEFT
 10
0.0
 20
0.0
 30
0.0
  9
$UCSORGRIGHT
 10
0.0
 20
0.0
 30
0.0
  9
$UCSORGFRONT
 10
0.0
 20
0.0
 30
0.0
  9
$UCSORGBACK
 10
0.0
 20
0.0
 30
0.0
  9
$PUCSBASE
  2

  9
$PUCSNAME
  2

  9
$PUCSORG
 10
0.0
 20
0.0
 30
0.0
  9
$PUCSXDIR
 10
1.0
 20
0.0
 30
0.0
  9
$PUCSYDIR
 10
0.0
 20
1.0
 30
0.0
  9
$PUCSORTHOREF
  2

  9
$PUCSORTHOVIEW
 70
0
  9
$PUCSORGTOP
 10
0.0
 20
0.0
 30
0.0
  9
$PUCSORGBOTTOM
 10
0.0
 20
0.0
 30
0.0
  9
$PUCSORGLEFT
 10
0.0
 20
0.0
 30
0.0
  9
$PUCSORGRIGHT
 10
0.0
 20
0.0
 30
0.0
  9
$PUCSORGFRONT
 10
0.0
 20
0.0
 30
0.0
  9
$PUCSORGBACK
 10
0.0
 20
0.0
 30
0.0
  9
$USERI1
 70
0
  9
$USERI2
 70
0
  9
$USERI3
 70
0
  9
$USERI4
 70
0
  9
$USERI5
 70
0
  9
$USERR1
 40
0.0
  9
$USERR2
 40
0.0
  9
$USERR3
 40
0.0
  9
$USERR4
 40
0.0
  9
$USERR5
 40
0.0
  9
$WORLDVIEW
 70
1
  9
$SHADEDGE
 70
3
  9
$SHADEDIF
 70
70
  9
$TILEMODE
 70
1
  9
$MAXACTVP
 70
64
  9
$PINSBASE
 10
0.0
 20
0.0
 30
0.0
  9
$PLIMCHECK
 70
0
  9
$PEXTMIN
 10
1e+20
 20
1e+20
 30
1e+20
  9
$PEXTMAX
 10
-1e+20
 20
-1e+20
 30
-1e+20
  9
$PLIMMIN
 10
0.0
 20
0.0
  9
$PLIMMAX
 10
420.0
 20
297.0
  9
$UNITMODE
 70
0
  9
$VISRETAIN
 70
1
  9
$PLINEGEN
 70
0
  9
$PSLTSCALE
 70
1
  9
$TREEDEPTH
 70
3020
  9
$CMLSTYLE
  2
Standard
  9
$CMLJUST
 70
0
  9
$CMLSCALE
 40
20.0
  9
$PROXYGRAPHICS
 70
1
  9
$MEASUREMENT
 70
1
  9
$CELWEIGHT
370
-1
  9
$ENDCAPS
280
0
  9
$JOINSTYLE
280
0
  9
$LWDISPLAY
290
0
  9
$INSUNITS
 70
4
  9
$HYPERLINKBASE
  1

  9
$STYLESHEET
  1

  9
$XEDIT
290
1
  9
$CEPSNTYPE
380
0
  9
$PSTYLEMODE
290
1
  9
$FINGERPRINTGUID
  2
{C3D21C70-3AFF-487D-BE8B-EF1016B3B70B}
  9
$VERSIONGUID
  2
{7DF64322-67CA-461C-B57A-8D15D5C39877}
  9
$EXTNAMES
290
1
  9
$PSVPSCALE
 40
0.0
  9
$OLESTARTUP
290
0
  9
$SORTENTS
280
127
  9
$INDEXCTL
280
0
  9
$HIDETEXT
280
1
  9
$XCLIPFRAME
280
1
  9
$HALOGAP
280
0
  9
$OBSCOLOR
 70
257
  9
$OBSLTYPE
280
0
  9
$INTERSECTIONDISPLAY
280
0
  9
$INTERSECTIONCOLOR
 70
257
  9
$DIMASSOC
280
2
  9
$PROJECTNAME
  1

  9
$CAMERADISPLAY
290
0
  9
$LENSLENGTH
 40
50.0
  9
$CAMERAHEIGHT
 40
0.0
  9
$STEPSPERSEC
 40
24.0
  9
$STEPSIZE
 40
100.0
  9
$3DDWFPREC
 40
2.0
  9
$PSOLWIDTH
 40
0.005
  9
$PSOLHEIGHT
 40
0.08
  9
$LOFTANG1
 40
1.570796326795
  9
$LOFTANG2
 40
1.570796326795
  9
$LOFTMAG1
 40
0.0
  9
$LOFTMAG2
 40
0.0
  9
$LOFTPARAM
 70
7
  9
$LOFTNORMALS
280
1
  9
$LATITUDE
 40
37.795
  9
$LONGITUDE
 40
-122.394
  9
$NORTHDIRECTION
 40
0.0
  9
$TIMEZONE
 70
-8000
  9
$LIGHTGLYPHDISPLAY
280
1
  9
$TILEMODELIGHTSYNCH
280
1
  9
$CMATERIAL
347
20
  9
$SOLIDHIST
280
0
  9
$SHOWHIST
280
1
  9
$DWFFRAME
280
2
  9
$DGNFRAME
280
2
  9
$REALWORLDSCALE
290
1
  9
$INTERFERECOLOR
 62
256
  9
$CSHADOW
280
0
  9
$SHADOWPLANELOCATION
 40
0.0
  0
ENDSEC
  0
SECTION
  2
CLASSES
  0
CLASS
  1
ACDBDICTIONARYWDFLT
  2
AcDbDictionaryWithDefault
  3
ObjectDBX Classes
 90
0
 91
0
280
0
281
0
  0
CLASS
  1
SUN
  2
AcDbSun
  3
SCENEOE
 90
1153
 91
0
280
0
281
0
  0
CLASS
  1
VISUALSTYLE
  2
AcDbVisualStyle
  3
ObjectDBX Classes
 90
4095
 91
0
280
0
281
0
  0
CLASS
  1
MATERIAL
  2
AcDbMaterial
  3
ObjectDBX Classes
 90
1153
 91
0
280
0
281
0
  0
CLASS
  1
SCALE
  2
AcDbScale
  3
ObjectDBX Classes
 90
1153
 91
0
280
0
281
0
  0
CLASS
  1
TABLESTYLE
  2
AcDbTableStyle
  3
ObjectDBX Classes
 90
4095
 91
0
280
0
281
0
  0
CLASS
  1
MLEADERSTYLE
  2
AcDbMLeaderStyle
  3
ACDB_MLEADERSTYLE_CLASS
 90
4095
 91
0
280
0
281
0
  0
CLASS
  1
DICTIONARYVAR
  2
AcDbDictionaryVar
  3
ObjectDBX Classes
 90
0
 91
0
280
0
281
0
  0
CLASS
  1
CELLSTYLEMAP
  2
AcDbCellStyleMap
  3
ObjectDBX Classes
 90
1152
 91
0
280
0
281
0
  0
CLASS
  1
MENTALRAYRENDERSETTINGS
  2
AcDbMentalRayRenderSettings
  3
SCENEOE
 90
1024
 91
0
280
0
281
0
  0
CLASS
  1
ACDBDETAILVIEWSTYLE
  2
AcDbDetailViewStyle
  3
ObjectDBX Classes
 90
1025
 91
0
280
0
281
0
  0
CLASS
  1
ACDBSECTIONVIEWSTYLE
  2
AcDbSectionViewStyle
  3
ObjectDBX Classes
 90
1025
 91
0
280
0
281
0
  0
CLASS
  1
RASTERVARIABLES
  2
AcDbRasterVariables
  3
ISM
 90
0
 91
0
280
0
281
0
  0
CLASS
  1
ACDBPLACEHOLDER
  2
AcDbPlaceHolder
  3
ObjectDBX Classes
 90
0
 91
0
280
0
281
0
  0
CLASS
  1
LAYOUT
  2
AcDbLayout
  3
ObjectDBX Classes
 90
0
 91
0
280
0
281
0
  0
ENDSEC
  0
SECTION
  2
TABLES
  0
TABLE
  2
VPORT
  5
8
330
0
100
AcDbSymbolTable
 70
1
  0
VPORT
  5
23
330
8
100
AcDbSymbolTableRecord
100
AcDbViewportTableRecord
  2
*Active
 70
0
 10
0.0
 20
0.0
 11
1.0
 21
1.0
 12
0.0
 22
0.0
 13
0.0
 23
0.0
 14
0.5
 24
0.5
 15
0.5
 25
0.5
 16
0.0
 26
0.0
 36
1.0
 17
0.0
 27
0.0
 37
0.0
 40
1000.0
 41
1.34
 42
50.0
 43
0.0
 44
0.0
 50
0.0
 51
0.0
 71
0
 72
1000
 73
1
 74
3
 75
0
 76
0
 77
0
 78
0
281
0
 65
0
146
0.0
  0
ENDTAB
  0
TABLE
  2
LTYPE
  5
2
330
0
100
AcDbSymbolTable
 70
3
  0
LTYPE
  5
24
330
2
100
AcDbSymbolTableRecord
100
AcDbLinetypeTableRecord
  2
ByBlock
 70
0
  3

 72
65
 73
0
 40
0.0
  0
LTYPE
  5
25
330
2
100
AcDbSymbolTableRecord
100
AcDbLinetypeTableRecord
  2
ByLayer
 70
0
  3

 72
65
 73
0
 40
0.0
  0
LTYPE
  5
26
330
2
100
AcDbSymbolTableRecord
100
AcDbLinetypeTableRecord
  2
Continuous
 70
0
  3

 72
65
 73
0
 40
0.0
  0
ENDTAB
  0
TABLE
  2
LAYER
  5
1
330
0
100
AcDbSymbolTable
 70
3
  0
LAYER
  5
27
330
1
100
AcDbSymbolTableRecord
100
AcDbLayerTableRecord
  2
0
 70
0
 62
7
  6
Continuous
370
-3
390
13
347
21
  0
LAYER
  5
28
330
1
100
AcDbSymbolTableRecord
100
AcDbLayerTableRecord
  2
Defpoints
 70
0
 62
7
  6
Continuous
290
0
370
-3
390
13
347
21
  0
LAYER
  5
2F
330
1
100
AcDbSymbolTableRecord
100
AcDbLayerTableRecord
  2
Y
 70
0
 62
7
  6
Continuous
370
-3
390
13
347
21
  0
ENDTAB
  0
TABLE
  2
STYLE
  5
5
330
0
100
AcDbSymbolTable
 70
1
  0
STYLE
  5
29
330
5
100
AcDbSymbolTableRecord
100
AcDbTextStyleTableRecord
  2
Standard
 70
0
 40
0.0
 41
1.0
 50
0.0
 71
0
 42
2.5
  3
txt
  4

  0
ENDTAB
  0
TABLE
  2
VIEW
  5
7
330
0
100
AcDbSymbolTable
 70
0
  0
ENDTAB
  0
TABLE
  2
UCS
  5
6
330
0
100
AcDbSymbolTable
 70
0
  0
ENDTAB
  0
TABLE
  2
APPID
  5
3
330
0
100
AcDbSymbolTable
 70
3
  0
APPID
  5
2A
330
3
100
AcDbSymbolTableRecord
100
AcDbRegAppTableRecord
  2
ACAD
 70
0
  0
APPID
  5
55
330
3
100
AcDbSymbolTableRecord
100
AcDbRegAppTableRecord
  2
HATCHBACKGROUNDCOLOR
 70
0
  0
APPID
  5
56
330
3
100
AcDbSymbolTableRecord
100
AcDbRegAppTableRecord
  2
EZDXF
 70
0
  0
ENDTAB
  0
TABLE
  2
DIMSTYLE
  5
4
330
0
100
AcDbSymbolTable
 70
1
100
AcDbDimStyleTable
  0
DIMSTYLE
105
2B
330
4
100
AcDbSymbolTableRecord
100
AcDbDimStyleTableRecord
  2
Standard
 70
0
 40
1.0
 41
2.5
 42
0.625
 43
3.75
 44
1.25
 45
0.0
 46
0.0
 47
0.0
 48
0.0
 49
2.5
140
2.5
141
2.5
142
0.0
143
0.03937007874
144
1.0
145
0.0
146
1.0
147
0.625
148
0.0
 69
0
 70
0
 71
0
 72
0
 73
0
 74
0
 75
0
 76
0
 77
1
 78
8
 79
3
170
0
171
3
172
1
173
0
174
0
175
0
176
0
177
0
178
0
179
2
271
2
272
2
273
2
274
3
275
0
276
0
277
2
278
44
279
0
280
0
281
0
282
0
283
0
284
8
285
0
286
0
288
0
289
3
290
0
371
-2
372
-2
  0
ENDTAB
  0
TABLE
  2
BLOCK_RECORD
  5
9
330
0
100
AcDbSymbolTable
 70
2
  0
BLOCK_RECORD
  5
17
330
9
100
AcDbSymbolTableRecord
100
AcDbBlockTableRecord
  2
*Model_Space
340
1A
 70
0
280
1
281
0
  0
BLOCK_RECORD
  5
1B
330
9
100
AcDbSymbolTableRecord
100
AcDbBlockTableRecord
  2
*Paper_Space
340
1E
 70
0
280
1
281
0
  0
ENDTAB
  0
ENDSEC
  0
SECTION
  2
BLOCKS
  0
BLOCK
  5
18
330
17
100
AcDbEntity
  8
0
100
AcDbBlockBegin
  2
*Model_Space
 70
0
 10
0.0
 20
0.0
 30
0.0
  3
*Model_Space
  1

  0
ENDBLK
  5
19
330
17
100
AcDbEntity
  8
0
100
AcDbBlockEnd
  0
BLOCK
  5
1C
330
1B
100
AcDbEntity
  8
0
100
AcDbBlockBegin
  2
*Paper_Space
 70
0
 10
0.0
 20
0.0
 30
0.0
  3
*Paper_Space
  1

  0
ENDBLK
  5
1D
330
1B
100
AcDbEntity
  8
0
100
AcDbBlockEnd
  0
ENDSEC
  0
SECTION
  2
ENTITIES
  0
LWPOLYLINE
  5
30
330
17
100
AcDbEntity
  8
Y
100
AcDbPolyline
 90
79
 70
1
 10
153.2397086857781
 20
32.302768364636634
 10
153.2397086857781
 20
46.598484578777246
 10
154.36643708797774
 20
48.027056007348804
 10
154.36643708797774
 20
53.74134172163436
 10
158.84599044876944
 20
59.42093755989952
 10
156.10804043142437
 20
62.89236613132809
 10
147.09421321382717
 20
62.89236613132809
 10
145.9674848116275
 20
64.32093755989965
 10
141.460571202829
 20
64.32093755989965
 10
140.33384280062936
 20
65.74950898847098
 10
131.3200155830322
 20
65.74950898847098
 10
130.18935799599535
 20
67.18306220429926
 10
116.66295180999134
 20
68.61223222217671
 10
111.52798823991688
 20
76.56961519979855
 10
114.41908955003751
 20
80.2352232741852
 10
136.95365759403035
 20
80.2352232741852
 10
138.08038599622998
 20
81.66379470275653
 10
149.34767001822644
 20
81.66379470275653
 10
150.49508346140954
 20
83.11859255687138
 10
156.1843759937757
 20
80.23322612973382
 10
173.01226071747496
 20
78.81082860709876
 10
175.7469164817641
 20
82.27808041704243
 10
170.14063471877276
 20
89.38624768387893
 10
170.14063471877276
 20
93.67196196959316
 10
167.8924723737322
 20
96.5223920170164
 10
166.76574397153252
 20
103.66524915987353
 10
165.61960441283293
 20
105.11843186434544
 10
166.74633281503256
 20
107.97557472148856
 10
163.36153155508313
 20
112.26714167046748
 10
165.61498835948242
 20
116.55285595618193
 10
160.0053735583347
 20
123.66524915987354
 10
158.878645156135
 20
130.80810630273066
 10
157.74662229457667
 20
132.24339054102163
 10
157.74662229457667
 20
136.53643246093884
 10
154.34546232290216
 20
142.28617652827523
 10
157.234768833624
 20
145.94950898847102
 10
161.83866096212833
 20
145.94950898847102
 10
166.29708531107397
 20
140.2967024834456
 10
170.75550966001964
 20
145.94950898847102
 10
171.97921658192507
 20
145.94950898847102
 10
173.10594498412476
 20
144.52093755989947
 10
179.84173452105892
 20
144.52093755989947
 10
185.47537653205717
 20
141.66379470275658
 10
188.86068003536275
 20
141.66379470275658
 10
193.3675936441613
 20
138.8066518456139
 10
195.55542245941385
 20
138.8066518456139
 10
198.98666200723505
 20
141.70694900864024
 10
204.65434024571474
 20
134.52093755989947
 10
206.90779705011406
 20
134.52093755989947
 10
209.7761287957602
 20
130.88419886449154
 10
209.7761287957602
 20
119.3962496123051
 10
207.54140474185272
 20
115.14616202076012
 10
210.9028571979599
 20
110.88419886449152
 10
210.9028571979599
 20
102.31277029306307
 10
213.15631400235915
 20
99.45562743592018
 10
213.15631400235915
 20
88.02705600734883
 10
214.3104026525657
 20
86.56379470275665
 10
210.92383196303547
 20
82.26998430580967
 10
214.30253638235433
 20
76.55820189861595
 10
201.27665665985674
 20
58.60665184561387
 10
193.2900777040126
 20
58.60665184561387
 10
192.16334930181293
 20
60.0352232741852
 10
177.61285859292335
 20
60.0352232741852
 10
176.45209396324222
 20
58.56349753973022
 10
173.07190875664327
 20
61.4206403968729
 10
170.3679949667796
 20
57.99236613132797
 10
173.08010633740847
 20
54.55369820778899
 10
175.33356314180773
 20
55.98226963636055
 10
177.61285859292335
 20
53.09236613132806
 10
187.75341421272003
 20
53.09236613132806
 10
188.88014261491972
 20
51.663794702756725
 10
191.1435508809428
 20
51.663794702756725
 10
194.02105445665356
 20
46.55608006612688
 10
173.0984854067335
 20
18.59457071462711
 10
160.60670689540672
 20
21.474251202680428
 10
159.48822563802327
 20
22.892366131328057
 10
156.11551654495406
 20
22.892366131328057
 10
150.96321892666413
 20
27.973249084360276
 10
153.2397086857781
 20
32.302768364636634
  0
LWPOLYLINE
  5
31
330
17
100
AcDbEntity
  8
Y
100
AcDbPolyline
 90
112
 70
1
 10
93.05973916809718
 20
92.83088692206776
 10
91.88452150604468
 20
94.32093755989945
 10
85.1241510928468
 20
94.32093755989945
 10
83.99742269064717
 20
95.7495089884708
 10
77.23705227744928
 20
95.7495089884708
 10
76.10563775658044
 20
97.1840219156579
 10
64.83835373458402
 20
98.61259334422945
 10
61.97470810760699
 20
102.24339054102182
 10
61.97470810760699
 20
116.52910482673606
 10
59.209397842255015
 20
120.03522327418526
 10
54.72841072561096
 20
120.03522327418526
 10
45.707659804059695
 20
124.3242295041791
 10
26.528797899191463
 20
127.18502375502005
 10
25.403616591428506
 20
128.61163363287065
 10
11.882875765032802
 20
130.0402050614422
 10
9.633348145470706
 20
132.89236613132815
 10
5.1264345366721225
 20
132.89236613132815
 10
2.2349395598302566
 20
136.55847333312576
 10
7.875792769118151
 20
145.1408735408304
 10
5.61955524713309
 20
149.43187630647435
 10
7.859690573819411
 20
152.27212895084708
 10
1.136453907275764
 20
159.37575140221273
 10
0.0
 20
168.0211653918824
 10
2.9070139597543316
 20
171.70694900864027
 10
6.287199166353258
 20
168.84980615149738
 10
9.633348145470706
 20
173.09236613132816
 10
11.886804949870017
 20
173.09236613132816
 10
13.039371998785882
 20
174.5536982077891
 10
15.344506096617666
 20
173.09236613132816
 10
22.027360569666783
 20
173.09236613132816
 10
23.154088971866464
 20
174.5209375598995
 10
40.15199352456686
 20
174.5209375598995
 10
42.40545032896612
 20
171.6637947027566
 10
73.85686707085034
 20
171.6637947027566
 10
75.0320847329029
 20
173.15384534058853
 10
76.2073023949554
 20
171.6637947027566
 10
96.39143511484325
 20
171.6637947027566
 10
97.51816351704286
 20
173.09236613132816
 10
100.99532724334756
 20
173.09236613132816
 10
102.12205564554722
 20
171.6637947027566
 10
108.88242605874507
 20
171.6637947027566
 10
109.96066520109183
 20
170.29670248344542
 10
111.0389043434386
 20
171.6637947027566
 10
132.44674398523182
 20
171.6637947027566
 10
133.59066066350465
 20
173.11415903195672
 10
136.99283638348166
 20
171.67629372828918
 10
141.48003378238596
 20
174.5209375598995
 10
144.93773492913368
 20
174.5209375598995
 10
146.0644633313333
 20
173.09236613132816
 10
152.8248337445312
 20
173.09236613132816
 10
155.07829054893043
 20
170.23522327418505
 10
157.3317473533297
 20
170.23522327418505
 10
160.20007909897595
 20
166.59848457877712
 10
160.20007909897595
 20
163.6719619695932
 10
156.20501895113006
 20
158.60665184561395
 10
153.95156214673082
 20
158.60665184561395
 10
152.8248337445312
 20
157.1780804170424
 10
148.2209416160268
 20
157.1780804170424
 10
147.09421321382717
 20
158.60665184561395
 10
131.41699410273793
 20
158.60665184561395
 10
130.2417764406854
 20
157.11660120778203
 10
129.06655877863287
 20
158.60665184561395
 10
126.91008049393935
 20
158.60665184561395
 10
125.78335209173972
 20
157.1780804170424
 10
114.41908955003751
 20
157.1780804170424
 10
113.2923611478379
 20
158.60665184561395
 10
97.61514203674862
 20
158.60665184561395
 10
96.48841363454899
 20
157.1780804170424
 10
85.22112961255255
 20
157.1780804170424
 10
84.09440121035291
 20
155.74950898847084
 10
79.4905090818486
 20
155.74950898847084
 10
78.36378067964891
 20
157.1780804170424
 10
75.08057399275577
 20
157.1780804170424
 10
73.96284755209695
 20
155.760922515487
 10
62.69556353010053
 20
152.90377965834435
 10
58.8218831490149
 20
147.99236613132805
 10
61.51134390650717
 20
144.58241676915983
 10
62.58958304885395
 20
145.94950898847102
 10
64.94001837295902
 20
145.94950898847102
 10
67.15943894987677
 20
143.13552043721157
 10
70.48856981525346
 20
145.94950898847102
 10
72.82711718835647
 20
145.94950898847102
 10
75.72280918200954
 20
142.27808041704247
 10
74.59608077980992
 20
140.84950898847092
 10
77.30819215043883
 20
137.41084106493196
 10
81.76342846580489
 20
140.23522327418524
 10
84.08251325935088
 20
140.23522327418524
 10
87.41164412472757
 20
137.421234722926
 10
89.63106470164539
 20
140.23522327418524
 10
93.01124990824431
 20
140.23522327418524
 10
94.13797831044396
 20
141.66379470275658
 10
105.42833727104123
 20
141.66379470275658
 10
113.31543608643874
 20
145.94950898847102
 10
117.87679069678519
 20
145.94950898847102
 10
120.07857020775198
 20
144.55369820778907
 10
121.1794599632354
 20
145.94950898847102
 10
129.06655877863287
 20
145.94950898847102
 10
130.19328718083253
 20
147.37808041704236
 10
146.0644633313333
 20
147.37808041704236
 10
148.96267358576367
 20
143.70345895956515
 10
137.0476355060932
 20
130.03522327418526
 10
135.92390771153654
 20
130.03522327418526
 10
121.91867367219494
 20
112.27808041704223
 10
123.0403364618952
 20
110.85593164478324
 10
118.50392354677841
 20
103.66632203468717
 10
117.37686115245066
 20
99.37933734979597
 10
111.1356817758486
 20
90.02743313774597
 10
100.89316372187723
 20
91.47036873192249
 10
99.77162032144216
 20
92.89236613132812
 10
95.26470671264359
 20
92.89236613132812
 10
94.18646757029683
 20
94.2594583506391
 10
93.05973916809718
 20
92.83088692206776
  0
LWPOLYLINE
  5
32
330
17
100
AcDbEntity
  8
Y
100
AcDbPolyline
 90
6
 70
1
 10
116.76952487414258
 20
122.89236613132792
 10
114.03157485679743
 20
119.42093755989936
 10
117.85998613066693
 20
114.56692043208628
 10
121.6549485823577
 20
118.00378299579783
 10
117.79927475663646
 20
122.89236613132792
 10
116.76952487414258
 20
122.89236613132792
  0
LWPOLYLINE
  5
33
330
17
100
AcDbEntity
  8
Y
100
AcDbPolyline
 90
7
 70
1
 10
52.44902742905713
 20
144.52093755989947
 10
55.1869774464023
 20
147.99236613132805
 10
52.44902742905713
 20
151.46379470275662
 10
50.292549144363626
 20
151.46379470275662
 10
47.554599127018456
 20
147.99236613132805
 10
50.292549144363626
 20
144.52093755989947
 10
52.44902742905713
 20
144.52093755989947
  0
LWPOLYLINE
  5
34
330
17
100
AcDbEntity
  8
Y
100
AcDbPolyline
 90
14
 70
1
 10
31.113585430706024
 20
141.66379470275658
 10
35.548101396062485
 20
141.66379470275658
 10
39.41277981560729
 20
146.5637947027565
 10
36.67482979826212
 20
150.03522327418506
 10
26.6312526981711
 20
150.03522327418506
 10
25.47369824999146
 20
148.5675677074514
 10
19.788679495693213
 20
152.89236613132817
 10
17.61742548057396
 20
152.89236613132817
 10
13.752747061029163
 20
147.99236613132805
 10
16.490697078374332
 20
144.52093755989947
 10
18.744153882773645
 20
144.52093755989947
 10
22.075849829519655
 20
140.2967024834456
 10
25.42823081724918
 20
144.54716398544275
 10
31.113585430706024
 20
141.66379470275658
  0
LWPOLYLINE
  5
35
330
17
100
AcDbEntity
  8
Y
100
AcDbPolyline
 90
35
 70
1
 10
992.9059269351027
 20
2.2400676542480014
 10
992.9059269351027
 20
12.24006765424801
 10
990.3668850985533
 20
15.097210511390902
 10
990.3668850985533
 20
30.81149622567647
 10
987.2377967051851
 20
34.33260896347634
 10
977.0816293589878
 20
37.189751820619456
 10
967.4648799312392
 20
48.011324959313924
 10
973.8631131609824
 20
52.33122219949627
 10
973.8631131609824
 20
59.39972100726365
 10
972.576047243228
 20
62.296350074693365
 10
973.8455681615025
 20
63.724921503264696
 10
972.576047243228
 20
66.58206436040759
 10
975.0988534809871
 20
69.42093755989953
 10
973.8631131609824
 20
70.8114962256765
 10
973.8631131609824
 20
82.30142076920477
 10
977.074762522537
 20
88.80665184561364
 10
983.5240720752246
 20
88.80665184561364
 10
991.1554737746359
 20
81.65040739754636
 10
994.9657724127998
 20
80.22118484845997
 10
1007.0545720207025
 20
68.04978310119103
 10
1008.340177954399
 20
65.15643982682118
 10
1008.340177954399
 20
55.15643982682117
 10
1009.594772674573
 20
52.33288938999503
 10
1012.7387872660419
 20
48.794980442036895
 10
1017.8041825503523
 20
47.36997852331682
 10
1027.4238538202173
 20
40.875061898994815
 10
1022.3049080554207
 20
33.67472793961657
 10
1022.3049080554207
 20
29.3935390724982
 10
1014.6689174832715
 20
16.504553389176557
 10
1012.7284153023512
 20
14.320937559899605
 10
1008.9082784754748
 20
14.320937559899605
 10
1005.1380558960552
 20
11.492557090394984
 10
998.7904513046816
 20
2.9211285189663094
 10
994.8965958568955
 20
0.0
 10
992.9059269351027
 20
2.2400676542480014
  0
LWPOLYLINE
  5
36
330
17
100
AcDbEntity
  8
Y
100
AcDbPolyline
 90
18
 70
1
 10
1445.7585547546882
 20
41.66883288008205
 10
1448.5060724726468
 20
40.257947765317105
 10
1449.874925729702
 20
41.66379470275672
 10
1452.7412942411238
 20
41.66379470275672
 10
1454.132274013429
 20
40.23522327418516
 10
1456.8298245912283
 20
40.23522327418516
 10
1458.2630088469393
 20
41.707139775310154
 10
1461.8923185197186
 20
37.97974689210659
 10
1456.904775343333
 20
34.3209375598994
 10
1437.3561077789543
 20
34.3209375598994
 10
1434.5828763400987
 20
37.16911643154441
 10
1427.6112986853818
 20
35.737119094431335
 10
1425.4502601475187
 20
39.4361878763787
 10
1427.6369478255017
 20
41.68197146156971
 10
1434.5918466870282
 20
38.82482860442682
 10
1437.39831226236
 20
41.707139775310154
 10
1438.8227684123158
 20
40.24418725968326
 10
1445.7585547546882
 20
41.66883288008205
  0
LWPOLYLINE
  5
37
330
17
100
AcDbEntity
  8
Y
100
AcDbPolyline
 90
165
 70
1
 10
1398.4196416383372
 20
55.73824510491265
 10
1392.855722549116
 20
54.3096736763411
 10
1389.2699370503606
 20
57.99236613132797
 10
1390.6609168226657
 20
59.42093755989952
 10
1388.7140202316748
 20
61.4204496302031
 10
1386.7671236406838
 20
59.42093755989952
 10
1389.5490831852944
 20
56.56379470275663
 10
1387.365244942775
 20
54.32093755989942
 10
1380.392316660188
 20
54.32093755989942
 10
1377.5861820532325
 20
52.879951930906884
 10
1374.8115497812255
 20
54.30476071227841
 10
1370.618342111189
 20
51.43374044740278
 10
1369.2020041568903
 20
52.888355370636745
 10
1353.9012266615323
 20
51.45978394206541
 10
1352.5485461517374
 20
52.849021058774866
 10
1351.1997708628373
 20
51.46379470275675
 10
1345.5514428068052
 20
51.46379470275675
 10
1344.2026675179054
 20
52.849021058774866
 10
1342.8538922290056
 20
51.46379470275675
 10
1337.2235935940337
 20
51.46379470275675
 10
1334.4858870799237
 20
52.86964164019614
 10
1333.1170338228685
 20
51.46379470275675
 10
1328.8596855391418
 20
51.46379470275675
 10
1327.4687057668364
 20
52.89236613132808
 10
1323.3621459956712
 20
52.89236613132808
 10
1320.5359334205602
 20
51.441070211624805
 10
1319.1228271330046
 20
52.89236613132808
 10
1315.0342967829
 20
52.89236613132808
 10
1313.6433170105945
 20
51.46379470275675
 10
1310.776948499173
 20
51.46379470275675
 10
1309.3859687268675
 20
52.89236613132808
 10
1292.694211459204
 20
52.89236613132808
 10
1291.310474721091
 20
54.31349878048009
 10
1282.964596087259
 20
52.88492735190875
 10
1281.5663732807618
 20
54.32093755989942
 10
1277.4028921785523
 20
54.32093755989942
 10
1272.467209244183
 20
57.94170276281307
 10
1272.467209244183
 20
73.74729438740313
 10
1274.6407378221236
 20
75.97956324382493
 10
1278.8136771390396
 20
73.12242038668204
 10
1282.1522074083039
 20
76.55117546353529
 10
1277.4263303736884
 20
80.01802926020662
 10
1274.6336009344857
 20
78.58392735448194
 10
1272.4398474890295
 20
80.83696766168558
 10
1275.22180703364
 20
85.1226819473998
 10
1271.8559678350384
 20
88.57948398580673
 10
1268.4942699272672
 20
86.50795468905592
 10
1268.4942699272672
 20
82.23743787525306
 10
1266.3598619345998
 20
80.0453468499569
 10
1260.7126441801136
 20
78.59538796205557
 10
1257.930684635503
 20
81.45253081919823
 10
1252.3667655462818
 20
80.0239593906269
 10
1251.0070227734511
 20
81.42044963020334
 10
1249.0691614434418
 20
79.43021700158882
 10
1255.2149990034275
 20
74.52093755989941
 10
1257.9309676111623
 20
74.52093755989941
 10
1262.13003229096
 20
77.3959680229428
 10
1268.4942699272672
 20
73.76472740276729
 10
1268.4942699272672
 20
59.380295018110154
 10
1266.3278782369644
 20
57.15535592591037
 10
1260.7197061172428
 20
60.0352232741852
 10
1252.3670485219411
 20
60.0352232741852
 10
1248.1890558485109
 20
62.89582608134725
 10
1235.6767879811473
 20
64.32365005420748
 10
1230.1181511265265
 20
67.17808041704232
 10
1223.15647330353
 20
67.17808041704232
 10
1218.9835339866142
 20
70.03522327418521
 10
1212.0286351250877
 20
70.03522327418521
 10
1207.8515438308334
 20
72.89520892186374
 10
1192.5399132216166
 20
74.32479366158051
 10
1189.7617083086127
 20
77.17808041704232
 10
1182.8068094470864
 20
77.17808041704232
 10
1180.662544272034
 20
79.38029501811017
 10
1180.662544272034
 20
82.3187229588318
 10
1183.4049307491775
 20
85.13522327418511
 10
1176.489604955118
 20
92.23743787525306
 10
1176.489604955118
 20
103.66600930382441
 10
1173.7076454105074
 20
106.5231521609673
 10
1173.7076454105074
 20
116.60443724454606
 10
1175.0486377107209
 20
117.98167027421403
 10
1169.5347060935917
 20
122.228880760751
 10
1169.5347060935917
 20
135.17586581597473
 10
1171.6789712686439
 20
137.37808041704236
 10
1174.5453397800657
 20
137.37808041704236
 10
1177.3331172659186
 20
134.51496238700523
 10
1187.0699756720558
 20
133.0863909584339
 10
1189.8461172754237
 20
130.23522327418524
 10
1198.1807454496652
 20
130.23522327418524
 10
1202.353684766581
 20
127.37808041704236
 10
1206.5297186258588
 20
127.37808041704236
 10
1212.09363771508
 20
123.0923661313279
 10
1214.883753176919
 20
123.0923661313279
 10
1216.2747329492242
 20
121.66379470275656
 10
1223.2296318107508
 20
121.66379470275656
 10
1224.620611583056
 20
120.23522327418523
 10
1230.184530672277
 20
120.23522327418523
 10
1231.5755104445825
 20
118.8066518456139
 10
1238.5304093061088
 20
118.8066518456139
 10
1239.910421594483
 20
117.38934430060067
 10
1245.4743406837044
 20
118.81791572917221
 10
1246.8762879399405
 20
117.37808041704234
 10
1253.831186801467
 20
117.37808041704234
 10
1255.226286887884
 20
115.94527732160276
 10
1269.136084610937
 20
114.51670589303143
 10
1270.4807395857251
 20
113.13571120388133
 10
1271.829514874625
 20
114.52093755989945
 10
1277.477842930657
 20
114.52093755989945
 10
1278.8688227029622
 20
113.09236613132812
 10
1284.4327417921834
 20
113.09236613132812
 10
1285.8274761960954
 20
111.65993860107571
 10
1301.1282536914537
 20
110.23136717250415
 10
1302.5045113482213
 20
108.81791572917199
 10
1308.0684304374424
 20
110.24648715774354
 10
1309.4703776936788
 20
108.80665184561367
 10
1315.0342967829
 20
108.80665184561367
 10
1316.425276555205
 20
107.37808041704233
 10
1323.3801754167316
 20
107.37808041704233
 10
1324.7711551890368
 20
105.949508988471
 10
1333.1170338228685
 20
105.949508988471
 10
1334.508013595174
 20
104.52093755989944
 10
1337.2055641729735
 20
104.52093755989944
 10
1338.6387484286843
 20
105.99285406102443
 10
1341.467032770812
 20
103.08813446446008
 10
1355.3768304938649
 20
101.65956303588852
 10
1356.7415634368083
 20
100.25794776531716
 10
1359.5107722858672
 20
101.67997155037756
 10
1363.6763843301796
 20
98.8278455561682
 10
1367.8622647276127
 20
101.69384895811051
 10
1372.0644674474167
 20
97.37808041704233
 10
1376.2261563047425
 20
97.37808041704233
 10
1380.383229958668
 20
94.531800518175
 10
1384.5685735360241
 20
95.96461844321125
 10
1385.9521386552194
 20
94.54366205103138
 10
1388.7213475042784
 20
95.96568583609178
 10
1392.894286821194
 20
93.1085429789491
 10
1395.6086851887353
 20
94.50242088818838
 10
1397.5966739403175
 20
96.54413564736485
 10
1390.6648744354843
 20
100.81561575873033
 10
1392.8669152989446
 20
104.58486858411197
 10
1394.3201438043013
 20
103.0923661313281
 10
1399.872812433932
 20
103.0923661313281
 10
1404.0457517508482
 20
100.23522327418522
 10
1413.7814361564863
 20
100.23522327418522
 10
1421.5584236769616
 20
95.15248318281766
 10
1417.3686786314001
 20
90.84950898847089
 10
1419.365789788867
 20
88.7984252875842
 10
1426.3206886503933
 20
87.36985385901286
 10
1436.8028223762074
 20
76.60443724454602
 10
1436.8028223762074
 20
73.73626234133468
 10
1442.3452579713287
 20
65.1979299081118
 10
1449.3216403269548
 20
58.03300867311734
 10
1449.3216403269548
 20
55.17586581597467
 10
1452.1283239218117
 20
52.2933307335216
 10
1449.9371744627535
 20
48.54272082140132
 10
1448.5261504408022
 20
49.991878201631756
 10
1447.1773751519027
 20
48.606651845613854
 10
1444.3110066404806
 20
48.606651845613854
 10
1442.962231351581
 20
49.991878201631756
 10
1440.2170766059464
 20
47.1725348044798
 10
1429.0128538844083
 20
48.61091234041015
 10
1423.45446597313
 20
52.89236613132808
 10
1409.5365123328486
 20
52.89236613132808
 10
1408.1455325605432
 20
54.32093755989942
 10
1399.7996539267115
 20
54.32093755989942
 10
1398.4196416383372
 20
55.73824510491265
  0
LWPOLYLINE
  5
38
330
17
100
AcDbEntity
  8
Y
100
AcDbPolyline
 90
12
 70
1
 10
1408.1455325605432
 20
88.80665184561364
 10
1411.5256134072451
 20
92.27808041704245
 10
1409.5787168162542
 20
94.27759248734601
 10
1408.1877370439488
 20
92.84902105877468
 10
1406.754552788238
 20
94.32093755989945
 10
1401.1906336990166
 20
94.32093755989945
 10
1399.841858410117
 20
95.70616391591736
 10
1397.8949618191261
 20
93.70665184561378
 10
1401.275042665828
 20
90.2352232741852
 10
1404.0570022104387
 20
90.2352232741852
 10
1405.4479819827438
 20
88.80665184561364
 10
1408.1455325605432
 20
88.80665184561364
  0
LWPOLYLINE
  5
39
330
17
100
AcDbEntity
  8
Y
100
AcDbPolyline
 90
13
 70
1
 10
1355.3104277281925
 20
64.29821306876771
 10
1353.9395259240425
 20
65.70616391591777
 10
1352.5485461517374
 20
64.27759248734644
 10
1349.7665866071268
 20
67.1347353444891
 10
1347.8196900161356
 20
65.13522327418531
 10
1349.7665866071268
 20
63.135711203881506
 10
1351.157566379432
 20
64.56428263245306
 10
1353.9596038921977
 20
61.68651919388846
 10
1356.7415634368083
 20
63.115090622460016
 10
1358.1124652409585
 20
61.70713977530995
 10
1360.0593618319494
 20
63.70665184561375
 10
1358.092387272803
 20
65.72678449733904
 10
1355.3104277281925
 20
64.29821306876771
  0
LWPOLYLINE
  5
3A
330
17
100
AcDbEntity
  8
Y
100
AcDbPolyline
 90
5
 70
1
 10
1303.864254121052
 20
81.42044963020334
 10
1301.917357530061
 20
79.42093755989954
 10
1303.864254121052
 20
77.42142548959575
 10
1305.8111507120432
 20
79.42093755989954
 10
1303.864254121052
 20
81.42044963020334
  0
LWPOLYLINE
  5
3B
330
17
100
AcDbEntity
  8
Y
100
AcDbPolyline
 90
9
 70
1
 10
1297.4652720782115
 20
80.84950898847087
 10
1295.5183754872203
 20
82.84902105877467
 10
1293.5714788962293
 20
80.84950898847087
 10
1294.9624586685347
 20
79.42093755989954
 10
1292.1804991239242
 20
76.56379470275665
 10
1294.127395714915
 20
74.56428263245284
 10
1296.074292305906
 20
76.56379470275665
 10
1294.6833125336009
 20
77.99236613132798
 10
1297.4652720782115
 20
80.84950898847087
  0
LWPOLYLINE
  5
3C
330
17
100
AcDbEntity
  8
Y
100
AcDbPolyline
 90
5
 70
1
 10
1288.563476625694
 20
74.56428263245284
 10
1290.510373216685
 20
76.56379470275665
 10
1287.1724968533886
 20
79.99187820163178
 10
1285.2256002623976
 20
77.99236613132798
 10
1288.563476625694
 20
74.56428263245284
  0
LWPOLYLINE
  5
3D
330
17
100
AcDbEntity
  8
Y
100
AcDbPolyline
 90
94
 70
1
 10
1286.377006967236
 20
36.52315216096724
 10
1283.5950474226254
 20
39.38029501811013
 10
1283.5950474226254
 20
42.333920430743134
 10
1287.168029112074
 20
44.53564600201987
 10
1292.760591004955
 20
41.66379470275672
 10
1298.3425395152365
 20
41.66379470275672
 10
1299.7335192875416
 20
40.23522327418516
 10
1309.4703776936788
 20
40.23522327418516
 10
1310.861357465984
 20
38.80665184561383
 10
1328.9440945059528
 20
38.80665184561383
 10
1330.2928697948525
 20
37.421425489595705
 10
1332.2397663858437
 20
39.42093755989951
 10
1329.4578068412332
 20
42.278080417042396
 10
1331.6416450837523
 20
44.52093755989961
 10
1342.8358628079452
 20
44.52093755989961
 10
1345.5735693220554
 20
43.115090622459995
 10
1346.9424225791104
 20
44.52093755989961
 10
1351.1997708628373
 20
44.52093755989961
 10
1353.3836091053568
 20
42.278080417042396
 10
1349.7795276876438
 20
38.57659759025989
 10
1345.5785589293857
 20
41.45293174448117
 10
1341.4756932158255
 20
40.048349437257436
 10
1339.473811382304
 20
37.99236613132795
 10
1341.4629124567005
 20
35.94950898847094
 10
1348.351431772476
 20
35.94950898847094
 10
1351.157566379432
 20
37.39049461746369
 10
1353.919447955887
 20
35.97223347960288
 10
1355.8864225150335
 20
37.99236613132795
 10
1353.104462970423
 20
40.84950898847106
 10
1355.330505696348
 20
43.135711203881264
 10
1356.721485468653
 20
41.70713977530993
 10
1358.0702607575527
 20
43.09236613132805
 10
1367.8071191636898
 20
43.09236613132805
 10
1369.2403034194008
 20
44.56428263245304
 10
1370.631283191706
 20
43.135711203881485
 10
1371.9800584806057
 20
44.52093755989961
 10
1377.628386536638
 20
44.52093755989961
 10
1379.8122247791573
 20
42.278080417042396
 10
1377.0302652345467
 20
39.42093755989951
 10
1378.9771618255377
 20
37.421425489595926
 10
1380.9240584165289
 20
39.42093755989951
 10
1379.5330786442235
 20
40.84950898847106
 10
1380.307907693377
 20
41.64527803104568
 10
1385.9521386552194
 20
44.54366205103155
 10
1391.5234723975504
 20
38.82176130035431
 10
1395.6139338506705
 20
40.22209711111291
 10
1398.450878637812
 20
43.135711203881485
 10
1401.2603308036878
 20
40.25033272892564
 10
1405.4332701206035
 20
41.6789041574972
 10
1407.631820225263
 20
39.42093755989951
 10
1406.2012673854908
 20
37.951723589538574
 10
1406.2012673854908
 20
32.318722958831756
 10
1408.9832269301014
 20
29.461580101688867
 10
1408.9832269301014
 20
23.753044783654698
 10
1432.6763562413498
 20
3.713738437924885
 10
1430.4856178842392
 20
1.4637947027567044
 10
1424.8372898282066
 20
1.4637947027567044
 10
1423.4684365711516
 20
2.8696416401960967
 10
1420.7307300570415
 20
1.4637947027567044
 10
1415.1004314220697
 20
1.4637947027567044
 10
1413.7094516497643
 20
2.892366131328039
 10
1406.8389617550492
 20
2.892366131328039
 10
1405.4057774993382
 20
1.4204496302032688
 10
1403.9725932436274
 20
2.892366131328039
 10
1401.275042665828
 20
2.892366131328039
 10
1399.8840628935225
 20
1.4637947027567044
 10
1395.6267146097955
 20
1.4637947027567044
 10
1394.2357348374903
 20
2.892366131328039
 10
1391.5381842596908
 20
2.892366131328039
 10
1390.1472044873856
 20
1.4637947027567044
 10
1384.4988764313532
 20
1.4637947027567044
 10
1383.1501011424537
 20
2.8490210587746034
 10
1381.8013258535539
 20
1.4637947027567044
 10
1377.543977569827
 20
1.4637947027567044
 10
1373.4132427363165
 20
5.706163915917495
 10
1369.2825079028062
 20
1.4637947027567044
 10
1366.4161393913846
 20
1.4637947027567044
 10
1362.2432000744686
 20
5.7495089884709305
 10
1359.461240529858
 20
5.7495089884709305
 10
1358.0764484224724
 20
7.171725528574591
 10
1348.3395900163353
 20
5.743154100003256
 10
1346.984627062516
 20
7.134735344489052
 10
1345.6358517736162
 20
5.7495089884709305
 10
1341.4629124567005
 20
5.7495089884709305
 10
1337.2873019257636
 20
1.4610512983550539
 10
1314.9472879275252
 20
2.8950362826800635
 10
1313.5589080437835
 20
4.320937559899596
 10
1305.2130294099518
 20
4.320937559899596
 10
1303.8513130405347
 20
5.719454733116969
 10
1299.7032585311495
 20
2.8793500940471617
 10
1292.71667584162
 20
5.7495089884709305
 10
1288.5212721422884
 20
5.7495089884709305
 10
1286.377006967236
 20
7.951723589538773
 10
1286.377006967236
 20
36.52315216096724
  0
LWPOLYLINE
  5
3E
330
17
100
AcDbEntity
  8
Y
100
AcDbPolyline
 90
5
 70
1
 10
1424.3235774929267
 20
39.42093755989951
 10
1422.0975347670017
 20
37.13473534448908
 10
1419.8714920410769
 20
39.42093755989951
 10
1422.0975347670017
 20
41.707139775310154
 10
1424.3235774929267
 20
39.42093755989951
  0
LWPOLYLINE
  5
3F
330
17
100
AcDbEntity
  8
Y
100
AcDbPolyline
 90
5
 70
1
 10
1413.7674076561618
 20
37.15091255723557
 10
1410.115491891065
 20
39.4012785045077
 10
1412.3449248378727
 20
41.69096256256366
 10
1415.9968406029698
 20
39.44059661529131
 10
1413.7674076561618
 20
37.15091255723557
  0
LWPOLYLINE
  5
40
330
17
100
AcDbEntity
  8
Y
100
AcDbPolyline
 90
192
 70
1
 10
1447.1150927003416
 20
40.01249878305324
 10
1445.701986412786
 20
41.46379470275674
 10
1443.0044358349867
 20
41.46379470275674
 10
1441.6134560626815
 20
40.035223274185185
 10
1438.7651169723201
 20
40.035223274185185
 10
1436.02741045821
 20
41.4410702116248
 10
1434.658557201155
 20
40.035223274185185
 10
1430.4192383384884
 20
40.035223274185185
 10
1427.6815318243782
 20
41.4410702116248
 10
1426.3126785673232
 20
40.035223274185185
 10
1423.4643394769619
 20
40.035223274185185
 10
1420.726632962852
 20
41.4410702116248
 10
1419.3577797057967
 20
40.035223274185185
 10
1415.1004314220697
 20
40.035223274185185
 10
1413.7094516497643
 20
41.46379470275674
 10
1411.011901071965
 20
41.46379470275674
 10
1408.1877370439488
 20
38.56330677306041
 10
1402.6037399865722
 20
44.29821306876769
 10
1399.8660334724623
 20
42.892366131328075
 10
1395.6267146097955
 20
42.892366131328075
 10
1394.277939320896
 20
44.2775924873462
 10
1392.9291640319962
 20
42.892366131328075
 10
1387.2808359759638
 20
42.892366131328075
 10
1385.9320606870642
 20
44.2775924873462
 10
1384.5410809147588
 20
42.84902105877464
 10
1381.7390434019928
 20
45.726784497339025
 10
1379.0013368878829
 20
44.32093755989963
 10
1372.064467447417
 20
44.32093755989963
 10
1370.631283191706
 20
42.84902105877464
 10
1369.2403034194008
 20
44.2775924873462
 10
1367.891528130501
 20
42.892366131328075
 10
1352.5063416683315
 20
42.892366131328075
 10
1351.1153618960263
 20
44.32093755989963
 10
1347.0088021248612
 20
44.32093755989963
 10
1344.1825895497502
 20
42.869641640196136
 10
1342.7694832621946
 20
44.32093755989963
 10
1331.7260540505633
 20
44.32093755989963
 10
1326.1199304779368
 20
38.56330677306041
 10
1323.8938877520118
 20
40.84950898847106
 10
1325.2848675243172
 20
42.278080417042396
 10
1323.3304405713802
 20
44.28532635964055
 10
1316.4188843616782
 20
38.60665184561385
 10
1310.776948499173
 20
38.60665184561385
 10
1309.3859687268675
 20
40.035223274185185
 10
1303.8220496376464
 20
40.035223274185185
 10
1301.0400900930358
 20
42.892366131328075
 10
1298.2581305484252
 20
42.892366131328075
 10
1296.9093552595257
 20
44.2775924873462
 10
1294.1519017456362
 20
41.445617943943745
 10
1287.1610617103188
 20
44.317525799114634
 10
1278.80817764437
 20
42.88775524453037
 10
1272.467209244183
 20
46.50571914560309
 10
1272.467209244183
 20
50.90017235698574
 10
1277.4028921785523
 20
54.520937559899394
 10
1281.6507822475728
 20
54.520937559899394
 10
1283.0345189856862
 20
53.099804910747395
 10
1291.380397619518
 20
54.528376339318726
 10
1292.7786204260153
 20
53.09236613132806
 10
1309.4703776936788
 20
53.09236613132806
 10
1310.861357465984
 20
51.663794702756725
 10
1313.5589080437835
 20
51.663794702756725
 10
1314.949887816089
 20
53.09236613132806
 10
1319.2072360998156
 20
53.09236613132806
 10
1320.589487766366
 20
51.67275868825483
 10
1327.5443866278924
 20
53.10133011682616
 10
1328.9440945059528
 20
51.663794702756725
 10
1333.050654277118
 20
51.663794702756725
 10
1335.8768668522289
 20
53.11509062246
 10
1337.2899731397845
 20
51.663794702756725
 10
1342.7694832621946
 20
51.663794702756725
 10
1344.2026675179054
 20
53.13571120388127
 10
1345.6358517736162
 20
51.663794702756725
 10
1351.1153618960263
 20
51.663794702756725
 10
1352.5485461517374
 20
53.13571120388127
 10
1353.981730407448
 20
51.663794702756725
 10
1359.461240529858
 20
51.663794702756725
 10
1360.894424785569
 20
53.13571120388127
 10
1362.2854045578742
 20
51.70713977530994
 10
1363.634179846774
 20
53.09236613132806
 10
1369.2825079028062
 20
53.09236613132806
 10
1370.6442242722233
 20
51.69384895811069
 10
1374.7891341477969
 20
54.53180051817497
 10
1378.9496692042724
 20
53.107475586068546
 10
1380.3259371144375
 20
54.520937559899394
 10
1387.2808359759638
 20
54.520937559899394
 10
1388.6718157482692
 20
55.94950898847095
 10
1391.5381842596908
 20
55.94950898847095
 10
1394.2908804014132
 20
53.12242038668202
 10
1398.463819718329
 20
55.97956324382491
 10
1399.8840628935225
 20
54.520937559899394
 10
1408.2299415273544
 20
54.520937559899394
 10
1409.6209212996598
 20
53.09236613132806
 10
1417.9667999334915
 20
53.09236613132806
 10
1420.7377919941707
 20
50.24648715774349
 10
1426.301711083392
 20
51.675058586315046
 10
1429.0946381119338
 20
48.806651845613835
 10
1437.4405167457655
 20
48.806651845613835
 10
1438.824253483879
 20
47.385519196461615
 10
1447.086224639598
 20
48.79972810777944
 10
1448.5261504408022
 20
50.27856834673861
 10
1449.9171302131076
 20
48.84999691816727
 10
1451.9035998715656
 20
50.89015153026022
 10
1451.9035998715656
 20
53.66600930382437
 10
1449.1337241013894
 20
56.510741818811326
 10
1447.742744329084
 20
60.796456104525774
 10
1442.1858203170386
 20
66.50355769752304
 10
1436.6219012278175
 20
76.50355769752304
 10
1432.4051590090453
 20
80.83425867199168
 10
1434.5589592282724
 20
84.52093755989942
 10
1438.7470875512595
 20
84.52093755989942
 10
1440.7361886256563
 20
86.56379470275665
 10
1437.3561077789543
 20
90.03522327418523
 10
1430.416891626309
 20
90.03522327418523
 10
1424.0039983652537
 20
93.69422531545824
 10
1429.6223426225718
 20
98.02186161992866
 10
1428.2362719050182
 20
100.86892103013878
 10
1430.4304723203163
 20
103.12242038668207
 10
1434.5842013749273
 20
100.27843047990802
 10
1436.578098325961
 20
103.69140152913458
 10
1434.596274749594
 20
105.72678449733908
 10
1431.8236340583708
 20
104.30299841790091
 10
1426.2364255177406
 20
108.60665184561368
 10
1420.6643505112909
 20
108.60665184561368
 10
1419.2653606559154
 20
110.0434498322147
 10
1412.3050484312803
 20
111.47313319296859
 10
1406.001267385491
 20
119.38597423144004
 10
1406.001267385491
 20
122.2374378752531
 10
1404.5707145457186
 20
123.7066518456138
 10
1407.3526740903292
 20
126.5637947027567
 10
1404.5707145457186
 20
129.42093755989958
 10
1406.754552788238
 20
131.6637947027568
 10
1412.4129348507447
 20
131.6637947027568
 10
1415.9673355988616
 20
126.55315137222733
 10
1413.75165613317
 20
124.27759248734604
 10
1412.3606763608648
 20
125.7061639159176
 10
1410.4137797698736
 20
123.7066518456138
 10
1412.3807543290202
 20
121.68651919388851
 10
1415.1627138736308
 20
123.11509062245985
 10
1417.9667999334915
 20
120.23522327418523
 10
1420.6643505112909
 20
120.23522327418523
 10
1422.0975347670017
 20
121.70713977531
 10
1426.3126785673232
 20
117.37808041704234
 10
1429.0102291451226
 20
117.37808041704234
 10
1430.4233354326782
 20
118.82937633674584
 10
1433.214613830676
 20
117.3960195590409
 10
1438.7988166396783
 20
121.6973577649163
 10
1444.3532111238865
 20
115.99285406102422
 10
1447.135170668497
 20
118.84999691816734
 10
1448.5683549242078
 20
117.37808041704234
 10
1452.7310168039705
 20
117.37808041704234
 10
1461.8404582777025
 20
110.90110792567232
 10
1461.8404582777025
 20
99.38029501811019
 10
1456.3265266605733
 20
93.71734770272778
 10
1461.8404582777025
 20
89.47013721619102
 10
1461.8404582777025
 20
80.8088664466815
 10
1459.0980718005587
 20
77.99236613132798
 10
1461.8404582777025
 20
75.17586581597469
 10
1461.8404582777025
 20
49.46158010168888
 10
1463.8269279361605
 20
47.42142548959571
 10
1466.608887480771
 20
50.27856834673861
 10
1472.2002991912575
 20
44.53604701464009
 10
1476.2907606443775
 20
45.936382825398695
 10
1479.085500948113
 20
48.806651845613835
 10
1481.951869459535
 20
48.806651845613835
 10
1483.34284923184
 20
47.37808041704228
 10
1490.2977480933666
 20
47.37808041704228
 10
1491.6945458069142
 20
45.9435338155767
 10
1501.431404213051
 20
44.51496238700536
 10
1502.816566044114
 20
43.09236613132805
 10
1508.3710269186288
 20
43.09236613132805
 10
1513.3585700950143
 20
39.433556799120865
 10
1511.1477328158055
 20
37.16297096230203
 10
1506.9747934988898
 20
38.59154239087337
 10
1504.1653413330139
 20
35.70616391591752
 10
1501.3411773049977
 20
38.60665184561385
 10
1498.6436267271984
 20
38.60665184561385
 10
1497.2416794709618
 20
37.166816533484194
 10
1491.6584291117463
 20
38.60035138793361
 10
1488.8645638376556
 20
37.16566621662132
 10
1486.1026822612005
 20
38.58392735448191
 10
1484.7338290041455
 20
37.178080417042516
 10
1480.4764807204183
 20
37.178080417042516
 10
1479.1277054315185
 20
38.56330677306041
 10
1477.778930142619
 20
37.178080417042516
 10
1473.5215818588918
 20
37.178080417042516
 10
1472.1728065699922
 20
38.56330677306041
 10
1470.8240312810924
 20
37.178080417042516
 10
1463.7928793699834
 20
37.178080417042516
 10
1458.2725334519523
 20
41.430231640597
 10
1456.9055054522846
 20
40.026259288687086
 10
1449.9314940716042
 20
41.458756525431404
 10
1447.1150927003416
 20
40.01249878305324
  0
LWPOLYLINE
  5
41
330
17
100
AcDbEntity
  8
Y
100
AcDbPolyline
 90
13
 70
1
 10
2310.9815878054956
 20
167.99236613132805
 10
2313.1592772591516
 20
170.23522327418505
 10
2317.405042337932
 20
170.23522327418505
 10
2318.79210568421
 20
168.80665184561371
 10
2332.6627391469874
 20
168.80665184561371
 10
2335.394578319569
 20
165.99306196893272
 10
2336.754097879402
 20
167.39326535904664
 10
2338.976986122288
 20
166.6301291881289
 10
2338.2414555174946
 20
162.8424218362341
 10
2335.414691414171
 20
164.29809956146445
 10
2334.0482241327127
 20
162.89074053809483
 10
2315.2383191653194
 20
163.60825143601377
 10
2310.9815878054956
 20
167.99236613132805
  0
LWPOLYLINE
  5
42
330
17
100
AcDbEntity
  8
Y
100
AcDbPolyline
 90
32
 70
1
 10
2286.0538295267093
 20
170.80894852326844
 10
2286.0538295267093
 20
172.23751995183977
 10
2280.5148316225627
 20
177.94227321348166
 10
2279.1277682762848
 20
183.65655892776743
 10
2274.943647019473
 20
187.96589065165747
 10
2275.6781122430907
 20
190.23522327418507
 10
2309.082662260266
 20
190.23522327418507
 10
2310.4697256065438
 20
188.80665184561374
 10
2313.1592772591516
 20
188.80665184561374
 10
2314.5463406054296
 20
190.23522327418507
 10
2317.405042337932
 20
190.23522327418507
 10
2318.7498181642363
 20
188.85020482607538
 10
2320.0945939905405
 20
190.23522327418507
 10
2324.3403590693206
 20
190.23522327418507
 10
2325.7274224155985
 20
188.80665184561374
 10
2332.6627391469874
 20
188.80665184561374
 10
2334.80104664643
 20
186.60435516795903
 10
2334.80104664643
 20
177.93437175310035
 10
2328.4858483707253
 20
174.32093755989953
 10
2320.1126457543714
 20
174.32093755989953
 10
2311.834614527449
 20
178.5838138471787
 10
2310.42743808657
 20
177.13452743658075
 10
2308.998087220318
 20
178.60665184561375
 10
2303.534408875155
 20
178.60665184561375
 10
2300.7179946626256
 20
175.7059560080092
 10
2297.94386797007
 20
178.56309886515209
 10
2294.6259638262377
 20
175.14590593352608
 10
2300.124462989487
 20
170.89862399121935
 10
2300.124462989487
 20
169.38037709469734
 10
2296.584348410238
 20
165.7343240464668
 10
2288.1793369732354
 20
168.61983494206711
 10
2286.0538295267093
 20
170.80894852326844
  0
LWPOLYLINE
  5
43
330
17
100
AcDbEntity
  8
Y
100
AcDbPolyline
 90
6
 70
1
 10
1880.3955132204962
 20
103.0923661313281
 10
1883.254214952999
 20
103.0923661313281
 10
1885.4319044066551
 20
100.84950898847089
 10
1883.235202195094
 20
98.58707012802714
 10
1878.1853457472232
 20
100.81605905916113
 10
1880.3955132204962
 20
103.0923661313281
  0
LWPOLYLINE
  5
44
330
17
100
AcDbEntity
  8
Y
100
AcDbPolyline
 90
58
 70
1
 10
2788.7104094102874
 20
105.09540940315088
 10
2788.7104094102874
 20
130.80969511743666
 10
2787.3585868519713
 20
132.23826654600802
 10
2787.3585868519713
 20
139.38112368886513
 10
2785.39331942448
 20
141.45796793084386
 10
2774.57873895795
 20
140.02939650227253
 10
2773.2644499896505
 20
141.41830339500672
 10
2771.9625363801806
 20
140.04247446426766
 10
2763.7660428322606
 20
138.59883375060144
 10
2762.406822199904
 20
140.03522327418528
 10
2752.94406429169
 20
140.03522327418528
 10
2750.2404191750575
 20
142.89236613132795
 10
2747.536774058425
 20
142.89236613132795
 10
2746.184951500109
 20
144.3209375598995
 10
2742.2155784715933
 20
144.3209375598995
 10
2740.8207085900603
 20
142.84687482357805
 10
2739.4258387085274
 20
144.3209375598995
 10
2736.8082882383283
 20
144.3209375598995
 10
2735.4134183567953
 20
142.84687482357805
 10
2733.285684519321
 20
145.0954094031509
 10
2733.285684519321
 20
152.33308163815497
 10
2736.7681674638766
 20
154.5412008640732
 10
2740.8553340191233
 20
151.66172563081926
 10
2762.4844949521835
 20
150.2331542022477
 10
2766.5370257581067
 20
147.37808041704236
 10
2775.9250477830665
 20
147.37808041704236
 10
2777.2994844839122
 20
148.8305498917739
 10
2780.0031296005445
 20
147.40197846320257
 10
2781.3323380163315
 20
148.80665184561371
 10
2784.1107190162184
 20
148.80665184561371
 10
2788.121345161215
 20
145.98110057476288
 10
2790.0544735511535
 20
148.02398110567094
 10
2788.7026509928373
 20
155.16683824852805
 10
2790.0245570663055
 20
156.56379470275672
 10
2788.672734507989
 20
157.99236613132805
 10
2790.7950959245454
 20
160.23522327418527
 10
2797.622051143715
 20
160.23522327418527
 10
2800.2804679752885
 20
158.83054989177415
 10
2801.6637914907656
 20
160.29241072441346
 10
2805.7320646033886
 20
154.56008173240133
 10
2809.7768120341048
 20
157.4096720033342
 10
2813.2432154599805
 20
153.7464657166483
 10
2813.2432154599805
 20
150.8893228595054
 10
2814.5950380182967
 20
149.46075143093407
 10
2814.5950380182967
 20
138.0321800023625
 10
2817.298683134929
 20
135.17503714521985
 10
2817.298683134929
 20
132.2382665460078
 10
2814.5950380182967
 20
129.38112368886513
 10
2814.5950380182967
 20
125.1750371452196
 10
2815.9665043321306
 20
123.72570669934247
 10
2813.262859215498
 20
118.01142098505667
 10
2814.6327129205956
 20
116.56379470275668
 10
2811.9290678039624
 20
113.70665184561379
 10
2817.298683134929
 20
108.0321800023627
 10
2817.298683134929
 20
106.52398083172221
 10
2812.5076252599597
 20
101.46091367789545
 10
2790.792446024739
 20
102.89516647751907
 10
2788.7104094102874
 20
105.09540940315088
  0
LWPOLYLINE
  5
45
330
17
100
AcDbEntity
  8
Y
100
AcDbPolyline
 90
5
 70
1
 10
2796.7836698578867
 20
150.84950898847094
 10
2793.5417883643945
 20
154.2754462521496
 10
2791.651729429219
 20
152.27808041704228
 10
2794.8936109227106
 20
148.85214315336358
 10
2796.7836698578867
 20
150.84950898847094
  0
LWPOLYLINE
  5
46
330
17
100
AcDbEntity
  8
Y
100
AcDbPolyline
 90
41
 70
1
 10
2506.9984533245633
 20
8.606651845613822
 10
2502.8568910031813
 20
8.606651845613822
 10
2500.175860029078
 20
11.439896656596504
 10
2497.472214912446
 20
10.01132522802517
 10
2496.0977782116
 20
11.463794702756713
 10
2486.7028627309746
 20
11.463794702756713
 10
2483.9623196927296
 20
10.015726885304499
 10
2477.7674723632285
 20
15.107492559061741
 10
2484.569214141218
 20
29.483305285043613
 10
2491.32278414327
 20
35.19290501701211
 10
2492.671706979186
 20
39.4694262458144
 10
2501.5078734388503
 20
50.24385034407586
 10
2509.7089600668255
 20
48.79940065553146
 10
2511.0520316891957
 20
47.3800769917565
 10
2542.1439505304697
 20
48.80864842032806
 10
2543.4976623991024
 20
47.37808041704228
 10
2551.522503102567
 20
47.37808041704228
 10
2552.874325660883
 20
48.806651845613835
 10
2562.34530753358
 20
48.806651845613835
 10
2567.797095299388
 20
53.127634020172735
 10
2569.915154963053
 20
50.88932285950509
 10
2569.915154963053
 20
48.03218000236242
 10
2571.2669775213694
 20
46.603608573790865
 10
2571.2669775213694
 20
16.52398083172235
 10
2567.834666017882
 20
12.896802014742859
 10
2554.230540630532
 20
11.45915291505073
 10
2552.9173729841
 20
12.846874823578158
 10
2550.2567751906836
 20
10.035223274185379
 10
2547.5531300740513
 20
10.035223274185379
 10
2546.1969151044027
 20
8.602010057907838
 10
2532.6786895212404
 20
10.030581486479395
 10
2531.331259374256
 20
8.606651845613822
 10
2527.1896970528746
 20
8.606651845613822
 10
2525.8809218177744
 20
9.989731966435489
 10
2524.572146582675
 20
8.606651845613822
 10
2521.8006590384543
 20
8.606651845613822
 10
2519.1422422068804
 20
10.01132522802517
 10
2516.4563214133755
 20
7.172912981238344
 10
2510.2872655173687
 20
7.897279663510837
 10
2508.307228559663
 20
9.989731966435489
 10
2506.9984533245633
 20
8.606651845613822
  0
LWPOLYLINE
  5
47
330
17
100
AcDbEntity
  8
Y
100
AcDbPolyline
 90
5
 70
1
 10
2488.0138723234854
 20
20.006659231815107
 10
2484.806409555568
 20
17.972920569770512
 10
2486.6940854880368
 20
15.978073030840978
 10
2489.901548255954
 20
18.011811692885793
 10
2488.0138723234854
 20
20.006659231815107
  0
LWPOLYLINE
  5
48
330
17
100
AcDbEntity
  8
Y
100
AcDbPolyline
 90
23
 70
1
 10
2442.036234642129
 20
30.035223274185174
 10
2437.98076696718
 20
32.89236613132807
 10
2433.9252992922316
 20
32.89236613132807
 10
2429.8586106129646
 20
35.75741436829571
 10
2419.0338722418924
 20
38.617240878724644
 10
2417.6920698292574
 20
40.035223274185185
 10
2413.636602154308
 20
40.035223274185185
 10
2411.5491910233527
 20
42.24114585109451
 10
2412.905930568123
 20
62.31389188456493
 10
2417.725507338139
 20
68.86229855882587
 10
2419.1299870340063
 20
67.3780804170423
 10
2428.524902514632
 20
67.3780804170423
 10
2431.2737759163233
 20
68.83054989177407
 10
2435.3406508919234
 20
64.53278066313305
 10
2440.7479411251884
 20
65.9613520917044
 10
2446.123390877115
 20
60.28071458193507
 10
2447.432166112215
 20
61.66379470275651
 10
2450.206043939682
 20
61.66379470275651
 10
2456.3651136312596
 20
58.047824160765146
 10
2455.008641433999
 20
32.245093299934965
 10
2451.563289151443
 20
27.147749330697522
 10
2446.0985957727435
 20
30.035223274185174
 10
2442.036234642129
 20
30.035223274185174
  0
LWPOLYLINE
  5
49
330
17
100
AcDbEntity
  8
Y
100
AcDbPolyline
 90
30
 70
1
 10
3127.5517843659563
 20
105.75600136297881
 10
3126.3370855964413
 20
107.17808041704235
 10
3111.6941531814723
 20
107.17808041704235
 10
3110.4739088135584
 20
108.60665184561368
 10
3105.592931341902
 20
108.60665184561368
 10
3102.4884178857283
 20
112.24118550110317
 10
3102.4884178857283
 20
119.45783247583842
 10
3106.813175709816
 20
124.52093755989947
 10
3109.2536644456445
 20
124.52093755989947
 10
3110.5200062771696
 20
126.00347647332599
 10
3111.7504470063427
 20
124.56296790269295
 10
3116.583556341529
 20
128.8066518456137
 10
3119.0156193889566
 20
128.8066518456137
 10
3121.9808132029884
 20
132.27808041704247
 10
3119.54032446716
 20
135.1352232741856
 10
3122.676352492699
 20
138.8066518456139
 10
3125.1168412285274
 20
138.8066518456139
 10
3126.383183060053
 20
140.28919075904045
 10
3127.655823693236
 20
138.79927767670264
 10
3136.197534268634
 20
137.37070624813109
 10
3137.411479834891
 20
135.9495089884708
 10
3141.0662819498807
 20
135.9495089884708
 10
3147.8374594985494
 20
129.46362503220809
 10
3147.8374594985494
 20
126.52689978681786
 10
3146.6172151306355
 20
125.0983283582463
 10
3146.6172151306355
 20
122.24717665369434
 10
3141.731130062131
 20
115.0968450172869
 10
3140.509925551734
 20
107.94836755707892
 10
3137.405549197288
 20
104.31399441010436
 10
3127.5517843659563
 20
105.75600136297881
  0
LWPOLYLINE
  5
4A
330
17
100
AcDbEntity
  8
Y
100
AcDbPolyline
 90
30
 70
1
 10
3112.933378907958
 20
14.320937559899605
 10
3110.4739088135584
 20
14.320937559899605
 10
3106.1491509894704
 20
19.38404264396043
 10
3106.1491509894704
 20
22.241185501103324
 10
3103.1985400696854
 20
25.69554150361575
 10
3099.537806965943
 20
21.409827217901523
 10
3094.5970937605834
 20
27.194047090193905
 10
3090.9363606568413
 20
28.622618518765464
 10
3078.0835305274463
 20
43.669756929674676
 10
3078.0835305274463
 20
49.45783247583857
 10
3082.964507999103
 20
55.17211819012435
 10
3082.964507999103
 20
59.38404264396047
 10
3080.0138970793178
 20
62.838398646472896
 10
3076.3531639755756
 20
58.55268436075867
 10
3071.982308687876
 20
63.66975692967469
 10
3071.982308687876
 20
66.6006896186957
 10
3076.307066511964
 20
71.66379470275675
 10
3081.261257552272
 20
71.66379470275675
 10
3086.142235023928
 20
68.80665184561386
 10
3088.604866419795
 20
68.80665184561386
 10
3099.587065731022
 20
54.520937559899394
 10
3102.0243931653827
 20
54.520937559899394
 10
3106.893284460582
 20
48.820801442875926
 10
3111.7742619322385
 20
50.249372871447264
 10
3113.0065924766095
 20
48.806651845613835
 10
3117.887569948266
 20
48.806651845613835
 10
3122.210838866108
 20
43.745289862343164
 10
3123.434083549987
 20
13.671526375859777
 10
3120.3036541612105
 20
10.006652272313454
 10
3112.933378907958
 20
14.320937559899605
  0
LWPOLYLINE
  5
4B
330
17
100
AcDbEntity
  8
Y
100
AcDbPolyline
 90
28
 70
1
 10
4007.5029984653643
 20
77.19433811517362
 10
4003.498133153034
 20
81.46379470275656
 10
4000.8306433826942
 20
81.46379470275656
 10
3993.412278484507
 20
86.49646215041007
 10
3992.0511125367216
 20
89.39865159716831
 10
3992.0511125367216
 20
102.23851945696549
 10
3990.6623172269387
 20
103.71906894408566
 10
3995.467469113321
 20
107.37808041704233
 10
3999.4995618413795
 20
107.37808041704233
 10
4008.8798312742106
 20
111.66379470275677
 10
4012.889793286968
 20
111.66379470275677
 10
4016.9099087581817
 20
114.52093755989945
 10
4020.9300242293953
 20
114.52093755989945
 10
4024.950139700609
 20
117.37808041704234
 10
4028.9771834157264
 20
117.37808041704234
 10
4034.382866816842
 20
120.25949200112463
 10
4036.4723827200714
 20
118.03192709140475
 10
4036.4723827200714
 20
115.0956623141084
 10
4031.1122287584535
 20
109.38137659982262
 10
4031.1122287584535
 20
106.53758676305203
 10
4027.0921132872395
 20
99.39472962019491
 10
4027.0921132872395
 20
96.52423374267971
 10
4024.4120363064308
 20
93.66709088553682
 10
4024.4120363064308
 20
90.82081569772905
 10
4021.7319593256216
 20
86.53510141201481
 10
4021.7319593256216
 20
82.23851945696548
 10
4014.2868433616854
 20
74.30152359853426
 10
4007.5029984653643
 20
77.19433811517362
  0
LWPOLYLINE
  5
4C
330
17
100
AcDbEntity
  8
Y
100
AcDbPolyline
 90
89
 70
1
 10
5104.009150879436
 20
29.40091529758604
 10
5102.8015920840535
 20
32.29556534603084
 10
5105.850217451139
 20
35.94950898847094
 10
5111.809777206319
 20
35.94950898847094
 10
5113.001689157355
 20
37.37808041704249
 10
5127.304632569787
 20
37.37808041704249
 10
5132.0658966915125
 20
43.08471494005972
 10
5140.409280348766
 20
44.51328636863128
 10
5141.607575982221
 20
45.949508988470946
 10
5146.375223786365
 20
45.949508988470946
 10
5147.5671357374
 20
47.37808041704228
 10
5149.950959639474
 20
47.37808041704228
 10
5152.381584896396
 20
50.29131724849334
 10
5154.765408798468
 20
47.434174391350446
 10
5155.957320749504
 20
48.862745819922004
 10
5157.149232700541
 20
47.434174391350446
 10
5159.998777386707
 20
50.849508988470845
 10
5157.149232700541
 20
54.26484358559125
 10
5155.957320749504
 20
52.83627215701991
 10
5154.743431154947
 20
54.2911849890606
 10
5152.359607252875
 20
52.862613560489265
 10
5149.950959639474
 20
55.74950898847098
 10
5138.106311263102
 20
55.74950898847098
 10
5135.67283993837
 20
54.2911849890606
 10
5131.423125753266
 20
59.384699035260226
 10
5131.423125753266
 20
79.45717608453884
 10
5134.9686264149495
 20
83.70665184561376
 10
5131.423125753266
 20
87.95612760668891
 10
5131.423125753266
 20
95.17146179882462
 10
5134.456104276004
 20
98.80665184561389
 10
5136.933530887779
 20
98.80665184561389
 10
5138.125442838815
 20
97.37808041704233
 10
5147.6607384471035
 20
97.37808041704233
 10
5148.852650398139
 20
95.94950898847077
 10
5159.579857957464
 20
95.94950898847077
 10
5160.7717699085
 20
94.52093755989944
 10
5163.155593810572
 20
94.52093755989944
 10
5166.68452830883
 20
90.29131724849337
 10
5170.246201388437
 20
94.5601765337929
 10
5173.850710518466
 20
91.6800427830251
 10
5183.349855735455
 20
95.94950898847077
 10
5185.801920880258
 20
95.94950898847077
 10
5188.1857447823295
 20
93.09236613132809
 10
5190.4759659747
 20
93.09236613132809
 10
5191.7247571869275
 20
94.58911045416984
 10
5196.0030065712335
 20
87.99633397736307
 10
5193.623298350452
 20
83.71801899412534
 10
5199.557214569855
 20
76.60589702638609
 10
5200.751285885226
 20
68.01893975995377
 10
5203.1378428154285
 20
62.29810267935587
 10
5203.1378428154285
 20
58.028604655967264
 10
5204.329754766466
 20
56.600033227395926
 10
5204.329754766466
 20
52.314318941681705
 10
5205.521666717502
 20
50.88574751311015
 10
5205.521666717502
 20
46.58381696507008
 10
5207.905490619573
 20
40.86953125078452
 10
5207.905490619573
 20
36.58004103405999
 10
5210.278194352369
 20
29.47050421342956
 10
5213.211098230587
 20
25.955259081835933
 10
5225.135517547008
 20
27.384465721045803
 10
5231.743729640295
 20
18.024108434383955
 10
5231.743729640295
 20
16.527556178117297
 10
5223.918279602082
 20
7.1483278462034505
 10
5219.100984375278
 20
10.035223274185379
 10
5203.595459563256
 20
10.035223274185379
 10
5198.876463520564
 20
14.277203719303744
 10
5194.14530453751
 20
8.606651845613822
 10
5188.092142072626
 20
8.606651845613822
 10
5186.947031476443
 20
9.97912929987721
 10
5185.801920880258
 20
8.606651845613822
 10
5176.266625271969
 20
8.606651845613822
 10
5175.049889609603
 20
7.1483278462034505
 10
5172.666065707532
 20
8.576899274775007
 10
5171.498977467824
 20
7.178080417042265
 10
5160.678167198797
 20
7.178080417042265
 10
5159.533056602613
 20
8.550557871305653
 10
5158.387946006428
 20
7.178080417042265
 10
5151.236474300212
 20
7.178080417042265
 10
5150.044562349175
 20
5.7495089884709305
 10
5142.893090642959
 20
5.7495089884709305
 10
5141.676354980594
 20
4.291184989060781
 10
5139.242883655862
 20
5.7495089884709305
 10
5130.973971132598
 20
5.7495089884709305
 10
5129.7820591815625
 20
4.320937559899596
 10
5122.630587475347
 20
4.320937559899596
 10
5121.428905607733
 20
2.8806563538830154
 10
5118.354425615068
 20
3.617642717920866
 10
5104.009150879436
 20
22.24403572026823
 10
5104.009150879436
 20
29.40091529758604
  0
LWPOLYLINE
  5
4D
330
17
100
AcDbEntity
  8
Y
100
AcDbPolyline
 90
5
 70
1
 10
5166.68452830883
 20
88.5505578713055
 10
5163.834983622663
 20
85.13522327418511
 10
5166.68452830883
 20
81.7198886770647
 10
5169.534072994996
 20
85.13522327418511
 10
5166.68452830883
 20
88.5505578713055
  0
LWPOLYLINE
  5
4E
330
17
100
AcDbEntity
  8
Y
100
AcDbPolyline
 90
5
 70
1
 10
5222.716291397354
 20
98.84848135562407
 10
5225.814405076539
 20
95.13522327418534
 10
5222.716291397354
 20
91.4219651927466
 10
5218.378932246497
 20
95.13522327418534
 10
5222.716291397354
 20
98.84848135562407
  0
LWPOLYLINE
  5
4F
330
17
100
AcDbEntity
  8
Y
100
AcDbPolyline
 90
115
 70
1
 10
7064.666216422798
 20
20.022466026335948
 10
7056.4117426891735
 20
24.32287805925748
 10
7038.591286321759
 20
25.751200118629303
 10
7028.997767747747
 20
30.035223274185174
 10
7018.008101800824
 20
30.035223274185174
 10
7015.308644547694
 20
32.84794733833274
 10
7013.957858586221
 20
31.440483606525405
 10
7011.195513558102
 20
32.87960888347885
 10
7008.433168529982
 20
31.440483606525405
 10
7007.062124866785
 20
32.869055035096736
 10
7004.320037540389
 20
31.440483606525405
 10
7002.145126617631
 20
33.70665184561372
 10
7003.516170280828
 20
35.13522327418528
 10
7001.555577842456
 20
37.178080417042516
 10
6998.89875066259
 20
37.178080417042516
 10
6994.742989599733
 20
32.84794733833274
 10
6991.969360362212
 20
35.73795557697057
 10
6986.485185709423
 20
34.30938414839901
 10
6985.103053884088
 20
35.74950898847096
 10
6978.247835568101
 20
35.74950898847096
 10
6976.133900146569
 20
37.95214324885809
 10
6976.133900146569
 20
43.66642896314388
 10
6974.765573206766
 20
45.09216967703811
 10
6973.395422001233
 20
65.07915101559104
 10
6965.92093139029
 20
70.03522327418521
 10
6961.806617606077
 20
70.03522327418521
 10
6957.693486616485
 20
72.8923661313281
 10
6953.576246488832
 20
72.8923661313281
 10
6947.294532083183
 20
77.98314687033536
 10
6950.849334675693
 20
81.68710579898786
 10
6953.591422002088
 20
80.25853437041653
 10
6955.544147442732
 20
82.29319442335891
 10
6953.553869006076
 20
85.749508988471
 10
6942.60070032497
 20
85.749508988471
 10
6941.2237852812
 20
87.1841981554895
 10
6931.62647963882
 20
88.61276958406083
 10
6930.3039374294585
 20
89.9908044811899
 10
6928.3859750643505
 20
87.99236613132821
 10
6931.146826796099
 20
85.11567153117228
 10
6927.5663667842255
 20
82.87725578494775
 10
6913.818992157358
 20
90.03935686786035
 10
6905.575719103307
 20
91.47088243715618
 10
6902.862806463786
 20
94.29762646366812
 10
6900.1207191373915
 20
92.86905503509679
 10
6896.613367681124
 20
96.52357182028682
 10
6896.613367681124
 20
108.03258901379809
 10
6900.1207191373915
 20
111.68710579898811
 10
6902.862806463786
 20
110.25853437041656
 10
6904.801026530619
 20
112.27808041704223
 10
6903.4685859971105
 20
113.66642896314394
 10
6903.4685859971105
 20
116.51502850346685
 10
6897.98712491356
 20
120.7986222180486
 10
6896.611072678817
 20
145.17305485810562
 10
6898.7699331759195
 20
147.4224992100377
 10
6900.183606912381
 20
145.94950898847102
 10
6905.667781565171
 20
145.94950898847102
 10
6908.409868891566
 20
143.0923661313279
 10
6915.265087207552
 20
143.0923661313279
 10
6916.640738455706
 20
141.658993787658
 10
6928.980131424482
 20
140.23042235908667
 10
6931.721401613122
 20
137.37413092606744
 10
6946.793732185775
 20
135.94642619174024
 10
6956.3631715908305
 20
128.8243086772487
 10
6961.858199384722
 20
131.6871057989881
 10
6965.365550840991
 20
128.0325890137979
 10
6965.365550840991
 20
112.23785753457238
 10
6963.251615419459
 20
110.03522327418524
 10
6953.56904963055
 20
110.03522327418524
 10
6952.198005967352
 20
111.4637947027568
 10
6941.229656661772
 20
111.4637947027568
 10
6939.914215736757
 20
112.8344303520028
 10
6936.602109186837
 20
108.00291894383074
 10
6939.901243071839
 20
104.56535635289477
 10
6941.272286735038
 20
105.99392778146633
 10
6943.473783059299
 20
103.70005864121445
 10
6935.247521080116
 20
96.55720149835733
 10
6937.206393403666
 20
94.51613664480085
 10
6949.545786372442
 20
93.08756521622952
 10
6950.912222450683
 20
91.66379470275676
 10
6960.432458879085
 20
91.66379470275676
 10
6965.960673082719
 20
95.98392454671689
 10
6967.364746409051
 20
94.52093755989944
 10
6971.477877398643
 20
94.52093755989944
 10
6974.219964725037
 20
91.66379470275676
 10
6986.536732803297
 20
91.66379470275676
 10
6993.379329611525
 20
88.81191228358642
 10
6998.887662500451
 20
90.24677668568559
 10
7000.269794325787
 20
88.80665184561364
 10
7015.351274620958
 20
88.80665184561364
 10
7021.578341032082
 20
82.31830329951228
 10
7021.578341032082
 20
77.95214324885814
 10
7020.245900498573
 20
76.56379470275665
 10
7022.969530783838
 20
73.72588332767415
 10
7021.576677639
 20
70.82329129457898
 10
7020.204375259084
 20
52.23481281566045
 10
7018.874856835375
 20
50.849508988470845
 10
7022.206492936944
 20
47.37808041704228
 10
7026.308317930193
 20
47.37808041704228
 10
7030.421448919785
 20
44.52093755989961
 10
7034.534579909377
 20
44.52093755989961
 10
7042.7698484103685
 20
38.800395560677494
 10
7049.635446504365
 20
37.3696610712646
 10
7050.998409864088
 20
35.94950898847094
 10
7055.1002348573365
 20
35.94950898847094
 10
7059.213365846928
 20
33.09236613132804
 10
7063.32649683652
 20
33.09236613132804
 10
7067.439627826112
 20
30.235223274185152
 10
7071.5558738795
 20
30.235223274185152
 10
7077.040048532289
 20
25.949508988470924
 10
7079.777838000268
 20
25.949508988470924
 10
7087.421947089604
 20
20.880968672979392
 10
7085.283643050829
 20
17.167593067968667
 10
7068.729915023791
 20
20.042311008584555
 10
7067.3880460474675
 20
21.440483606525397
 10
7064.666216422798
 20
20.022466026335948
  0
LWPOLYLINE
  5
50
330
17
100
AcDbEntity
  8
Y
100
AcDbPolyline
 90
5
 70
1
 10
6930.850856131369
 20
100.84950898847089
 10
6928.932893766261
 20
102.8479473383328
 10
6927.014931401153
 20
100.84950898847089
 10
6928.932893766261
 20
98.8510706386092
 10
6930.850856131369
 20
100.84950898847089
  0
LWPOLYLINE
  5
51
330
17
100
AcDbEntity
  8
Y
100
AcDbPolyline
 90
32
 70
1
 10
7055.023943168153
 20
97.18051603708643
 10
7030.3451572306
 20
98.60908746565799
 10
7028.976451106403
 20
100.03522327418524
 10
7023.492276453613
 20
100.03522327418524
 10
7021.368349918712
 20
102.24826786612029
 10
7022.758468259454
 20
108.04205371619857
 10
7026.876391921898
 20
112.33276177102903
 10
7029.618479248293
 20
119.47561891388614
 10
7035.088777664055
 20
125.17544615665498
 10
7035.088777664055
 20
128.0151174500863
 10
7037.847632984149
 20
133.76434629179502
 10
7044.04505219365
 20
140.2218036662213
 10
7048.1526049079075
 20
141.64843764986722
 10
7053.648570467125
 20
148.80665184561371
 10
7055.026280707152
 20
148.80665184561371
 10
7061.908242719334
 20
155.97737482623032
 10
7065.43310870059
 20
153.77371510384518
 10
7068.193825580791
 20
146.5823298779507
 10
7068.193825580791
 20
142.31830329951234
 10
7070.928544003767
 20
139.46883853838267
 10
7073.670631330161
 20
125.18312425266842
 10
7075.049043896778
 20
123.74687472808365
 10
7075.049043896778
 20
119.4611604423692
 10
7076.458690689663
 20
117.99236613132803
 10
7075.0757152855995
 20
116.55136231672003
 10
7080.52930458398
 20
108.0277367780631
 10
7081.898919779756
 20
98.0381556105152
 10
7083.2994036318405
 20
96.57890870907315
 10
7081.174876355911
 20
92.88945780987578
 10
7066.710026330302
 20
93.60716172370131
 10
7056.389244066875
 20
95.75792833424867
 10
7055.023943168153
 20
97.18051603708643
  0
LWPOLYLINE
  5
52
330
17
100
AcDbEntity
  8
Y
100
AcDbPolyline
 90
6
 70
1
 10
6899.355455007519
 20
116.60401758522654
 10
6901.535371999588
 20
118.8754019438154
 10
6905.061983393073
 20
112.26114920996389
 10
6902.883064165511
 20
109.99080448118991
 10
6899.355455007519
 20
113.66642896314394
 10
6899.355455007519
 20
116.60401758522654
  0
LWPOLYLINE
  5
53
330
17
100
AcDbEntity
  8
Y
100
AcDbPolyline
 90
37
 70
1
 10
8105.752271825011
 20
38.512928171638315
 10
8102.931292353645
 20
34.2635832681184
 10
8097.183931874715
 20
40.035223274185185
 10
8095.27508411727
 20
40.035223274185185
 10
8092.837761455606
 20
43.706651845613735
 10
8095.27508411727
 20
47.37808041704228
 10
8102.969367700171
 20
47.37808041704228
 10
8105.760847944389
 20
43.17317128195563
 10
8108.035694842927
 20
46.59985664876509
 10
8108.983220265909
 20
53.73631823590919
 10
8111.825282691793
 20
59.44445547807309
 10
8111.825282691793
 20
62.30825189781686
 10
8115.190950224271
 20
67.3780804170423
 10
8117.087699377318
 20
67.3780804170423
 10
8118.089717439198
 20
68.88745699624144
 10
8119.091735501076
 20
67.3780804170423
 10
8120.901395316226
 20
67.3780804170423
 10
8124.694893622321
 20
70.23522327418519
 10
8132.3689795724085
 20
70.23522327418519
 10
8134.806302234076
 20
66.56379470275664
 10
8131.9611785045045
 20
62.27808041704242
 10
8134.27545553302
 20
58.79199999842233
 10
8139.017328415639
 20
57.36342856985077
 10
8142.369995486767
 20
52.31318312265398
 10
8143.318370063291
 20
43.74175455122531
 10
8145.238422575837
 20
40.84950898847106
 10
8141.852725337648
 20
35.74950898847096
 10
8138.900314637364
 20
35.74950898847096
 10
8137.990015407367
 20
37.12072612526151
 10
8135.202004697584
 20
34.3209375598994
 10
8128.54963642718
 20
34.3209375598994
 10
8123.807763544561
 20
31.46379470275673
 10
8121.829572259937
 20
31.46379470275673
 10
8120.910227462712
 20
32.84863750941924
 10
8117.170264670602
 20
30.03181590697146
 10
8109.965907708002
 20
30.75529505911012
 10
8105.752271825011
 20
38.512928171638315
  0
LWPOLYLINE
  5
54
330
17
100
AcDbEntity
  8
Y
100
AcDbPolyline
 90
43
 70
1
 10
8057.767931829936
 20
23.67648036483927
 10
8057.767931829936
 20
30.833346005155306
 10
8056.828856965405
 20
33.66247186738036
 10
8053.546602750223
 20
38.60665184561385
 10
8050.701479020652
 20
38.60665184561385
 10
8043.522283476367
 20
49.420937559899514
 10
8045.959606138033
 20
53.09236613132806
 10
8047.856355291081
 20
53.09236613132806
 10
8049.748421613894
 20
55.94245506943318
 10
8060.180541955655
 20
57.37102649800452
 10
8061.162629141714
 20
58.85038046752267
 10
8063.083992000817
 20
57.40327077459173
 10
8064.905122936141
 20
58.77488895494643
 10
8074.40803795828
 20
74.52093755989941
 10
8077.2591116915255
 20
74.52093755989941
 10
8086.742857456763
 20
87.37808041704231
 10
8091.501783443988
 20
87.37808041704231
 10
8093.431978449578
 20
88.83184220316309
 10
8097.269465031541
 20
85.94156876889869
 10
8102.977624196063
 20
84.50850049713577
 10
8105.386660656127
 20
80.87968046924532
 10
8105.386660656127
 20
75.10505179341087
 10
8102.915724214816
 20
71.38298955212919
 10
8101.913706152936
 20
72.8923661313281
 10
8098.120207846841
 20
72.8923661313281
 10
8097.225476755673
 20
74.24013240927185
 10
8095.382371087981
 20
71.46379470275677
 10
8092.533730329107
 20
71.46379470275677
 10
8083.998359140393
 20
60.0352232741852
 10
8081.156752440124
 20
60.0352232741852
 10
8077.883797936936
 20
55.10505179341085
 10
8077.883797936936
 20
50.879680469245294
 10
8078.840370751188
 20
49.43875973432088
 10
8076.935423360413
 20
42.265029325581516
 10
8076.935423360413
 20
32.24790893626795
 10
8075.048927440509
 20
29.40621090048845
 10
8075.997302017033
 20
26.549068043345557
 10
8075.058703913076
 20
25.13522327418527
 10
8076.935423360413
 20
22.308251897816824
 10
8076.935423360413
 20
19.390766079125044
 10
8074.506733781048
 20
15.732341836389496
 10
8060.175497978328
 20
20.04987512137668
 10
8057.767931829936
 20
23.67648036483927
  0
ENDSEC
  0
SECTION
  2
OBJECTS
  0
DICTIONARY
  5
A
330
0
100
AcDbDictionary
281
1
  3
ACAD_COLOR
350
B
  3
ACAD_GROUP
350
C
  3
ACAD_LAYOUT
350
D
  3
ACAD_MATERIAL
350
E
  3
ACAD_MLEADERSTYLE
350
F
  3
ACAD_MLINESTYLE
350
10
  3
ACAD_PLOTSETTINGS
350
11
  3
ACAD_PLOTSTYLENAME
350
12
  3
ACAD_SCALELIST
350
14
  3
ACAD_TABLESTYLE
350
15
  3
ACAD_VISUALSTYLE
350
16
  3
EZDXF_META
350
2D
  0
DICTIONARY
  5
B
330
A
100
AcDbDictionary
281
1
  0
DICTIONARY
  5
C
330
A
100
AcDbDictionary
281
1
  0
DICTIONARY
  5
D
330
A
100
AcDbDictionary
281
1
  3
Model
350
1A
  3
Layout1
350
1E
  0
DICTIONARY
  5
E
330
A
100
AcDbDictionary
281
1
  3
ByBlock
350
1F
  3
ByLayer
350
20
  3
Global
350
21
  0
DICTIONARY
  5
F
330
A
100
AcDbDictionary
281
1
  3
Standard
350
2C
  0
DICTIONARY
  5
10
330
A
100
AcDbDictionary
281
1
  3
Standard
350
22
  0
DICTIONARY
  5
11
330
A
100
AcDbDictionary
281
1
  0
ACDBDICTIONARYWDFLT
  5
12
330
A
100
AcDbDictionary
281
1
  3
Normal
350
13
100
AcDbDictionaryWithDefault
340
13
  0
ACDBPLACEHOLDER
  5
13
330
12
  0
DICTIONARY
  5
14
330
A
100
AcDbDictionary
281
1
  0
DICTIONARY
  5
15
330
A
100
AcDbDictionary
281
1
  0
DICTIONARY
  5
16
330
A
100
AcDbDictionary
281
1
  0
LAYOUT
  5
1A
330
D
100
AcDbPlotSettings
  1

  4
A3
  6

 40
7.5
 41
20.0
 42
7.5
 43
20.0
 44
420.0
 45
297.0
 46
0.0
 47
0.0
 48
0.0
 49
0.0
140
0.0
141
0.0
142
1.0
143
1.0
 70
1024
 72
1
 73
0
 74
5
  7

 75
16
 76
0
 77
2
 78
300
147
1.0
148
0.0
149
0.0
100
AcDbLayout
  1
Model
 70
1
 71
0
 10
0.0
 20
0.0
 11
420.0
 21
297.0
 12
0.0
 22
0.0
 32
0.0
 14
1e+20
 24
1e+20
 34
1e+20
 15
-1e+20
 25
-1e+20
 35
-1e+20
146
0.0
 13
0.0
 23
0.0
 33
0.0
 16
1.0
 26
0.0
 36
0.0
 17
0.0
 27
1.0
 37
0.0
 76
1
330
17
  0
LAYOUT
  5
1E
330
D
100
AcDbPlotSettings
  1

  4
A3
  6

 40
7.5
 41
20.0
 42
7.5
 43
20.0
 44
420.0
 45
297.0
 46
0.0
 47
0.0
 48
0.0
 49
0.0
140
0.0
141
0.0
142
1.0
143
1.0
 70
0
 72
1
 73
0
 74
5
  7

 75
16
 76
0
 77
2
 78
300
147
1.0
148
0.0
149
0.0
100
AcDbLayout
  1
Layout1
 70
1
 71
1
 10
0.0
 20
0.0
 11
420.0
 21
297.0
 12
0.0
 22
0.0
 32
0.0
 14
1e+20
 24
1e+20
 34
1e+20
 15
-1e+20
 25
-1e+20
 35
-1e+20
146
0.0
 13
0.0
 23
0.0
 33
0.0
 16
1.0
 26
0.0
 36
0.0
 17
0.0
 27
1.0
 37
0.0
 76
1
330
1B
  0
MATERIAL
  5
1F
102
{ACAD_REACTORS
330
E
102
}
330
E
100
AcDbMaterial
  1
ByBlock
  2

 70
0
 40
1.0
 71
1
 41
1.0
 91
-1023410177
 42
1.0
 72
1
  3

 73
1
 74
1
 75
1
 44
0.5
 73
0
 45
1.0
 46
1.0
 77
1
  4

 78
1
 79
1
170
1
 48
1.0
171
1
  6

172
1
173
1
174
1
140
1.0
141
1.0
175
1
  7

176
1
177
1
178
1
143
1.0
179
1
  8

270
1
271
1
272
1
145
1.0
146
1.0
273
1
  9

274
1
275
1
276
1
 42
1.0
 72
1
  3

 73
1
 74
1
 75
1
 94
63
  0
MATERIAL
  5
20
102
{ACAD_REACTORS
330
E
102
}
330
E
100
AcDbMaterial
  1
ByLayer
  2

 70
0
 40
1.0
 71
1
 41
1.0
 91
-1023410177
 42
1.0
 72
1
  3

 73
1
 74
1
 75
1
 44
0.5
 73
0
 45
1.0
 46
1.0
 77
1
  4

 78
1
 79
1
170
1
 48
1.0
171
1
  6

172
1
173
1
174
1
140
1.0
141
1.0
175
1
  7

176
1
177
1
178
1
143
1.0
179
1
  8

270
1
271
1
272
1
145
1.0
146
1.0
273
1
  9

274
1
275
1
276
1
 42
1.0
 72
1
  3

 73
1
 74
1
 75
1
 94
63
  0
MATERIAL
  5
21
102
{ACAD_REACTORS
330
E
102
}
330
E
100
AcDbMaterial
  1
Global
  2

 70
0
 40
1.0
 71
1
 41
1.0
 91
-1023410177
 42
1.0
 72
1
  3

 73
1
 74
1
 75
1
 44
0.5
 73
0
 45
1.0
 46
1.0
 77
1
  4

 78
1
 79
1
170
1
 48
1.0
171
1
  6

172
1
173
1
174
1
140
1.0
141
1.0
175
1
  7

176
1
177
1
178
1
143
1.0
179
1
  8

270
1
271
1
272
1
145
1.0
146
1.0
273
1
  9

274
1
275
1
276
1
 42
1.0
 72
1
  3

 73
1
 74
1
 75
1
 94
63
  0
MLINESTYLE
  5
22
102
{ACAD_REACTORS
330
10
102
}
330
10
100
AcDbMlineStyle
  2
Standard
 70
0
  3

 62
256
 51
90.0
 52
90.0
 71
2
 49
0.5
 62
256
  6
BYLAYER
 49
-0.5
 62
256
  6
BYLAYER
  0
MLEADERSTYLE
  5
2C
102
{ACAD_REACTORS
330
F
102
}
330
F
100
AcDbMLeaderStyle
179
2
170
2
171
1
172
0
 90
2
 40
0.0
 41
0.0
173
1
 91
-1056964608
 92
-2
290
1
 42
2.0
291
1
 43
8.0
  3
Standard
 44
4.0
300

342
29
174
1
175
1
176
0
178
1
 93
-1056964608
 45
4.0
292
0
297
0
 46
4.0
 94
-1056964608
 47
1.0
 49
1.0
140
1.0
294
1
141
0.0
177
0
142
1.0
295
0
296
0
143
3.75
271
0
272
9
273
9
  0
DICTIONARY
  5
2D
330
A
100
AcDbDictionary
280
1
281
1
  3
CREATED_BY_EZDXF
350
2E
  3
WRITTEN_BY_EZDXF
350
57
  0
DICTIONARYVAR
  5
2E
330
2D
100
DictionaryVariables
280
0
  1
1.4.4 @ 2026-07-20T15:51:09.974358+00:00
  0
DICTIONARYVAR
  5
57
330
2D
100
DictionaryVariables
280
0
  1
1.4.4 @ 2026-07-20T15:51:09.993908+00:00
  0
ENDSEC
  0
EOF
