  0
SECTION
  2
HEADER
  9
$ACADVER
  1
AC1027
  9
$ACADMAINTVER
 70
105
  9
$DWGCODEPAGE
  3
ANSI_1252
  9
$LASTSAVEDBY
  1
ezdxf
  9
$REQUIREDVERSIONS
160
0
  9
$INSBASE
 10
0.0
 20
0.0
 30
0.0
  9
$EXTMIN
 10
1e+20
 20
1e+20
 30
1e+20
  9
$EXTMAX
 10
-1e+20
 20
-1e+20
 30
-1e+20
  9
$LIMMIN
 10
0.0
 20
0.0
  9
$LIMMAX
 10
420.0
 20
297.0
  9
$ORTHOMODE
 70
0
  9
$REGENMODE
 70
1
  9
$FILLMODE
 70
1
  9
$QTEXTMODE
 70
0
  9
$MIRRTEXT
 70
1
  9
$LTSCALE
 40
1.0
  9
$ATTMODE
 70
1
  9
$TEXTSIZE
 40
2.5
  9
$TRACEWID
 40
1.0
  9
$TEXTSTYLE
  7
Standard
  9
$CLAYER
  8
0
  9
$CELTYPE
  6
ByLayer
  9
$CECOLOR
 62
256
  9
$CELTSCALE
 40
1.0
  9
$DISPSILH
 70
0
  9
$DIMSCALE
 40
1.0
  9
$DIMASZ
 40
2.5
  9
$DIMEXO
 40
0.625
  9
$DIMDLI
 40
3.75
  9
$DIMRND
 40
0.0
  9
$DIMDLE
 40
0.0
  9
$DIMEXE
 40
1.25
  9
$DIMTP
 40
0.0
  9
$DIMTM
 40
0.0
  9
$DIMTXT
 40
2.5
  9
$DIMCEN
 40
2.5
  9
$DIMTSZ
 40
0.0
  9
$DIMTOL
 70
0
  9
$DIMLIM
 70
0
  9
$DIMTIH
 70
0
  9
$DIMTOH
 70
0
  9
$DIMSE1
 70
0
  9
$DIMSE2
 70
0
  9
$DIMTAD
 70
1
  9
$DIMZIN
 70
8
  9
$DIMBLK
  1

  9
$DIMASO
 70
1
  9
$DIMSHO
 70
1
  9
$DIMPOST
  1

  9
$DIMAPOST
  1

  9
$DIMALT
 70
0
  9
$DIMALTD
 70
3
  9
$DIMALTF
 40
0.03937007874
  9
$DIMLFAC
 40
1.0
  9
$DIMTOFL
 70
1
  9
$DIMTVP
 40
0.0
  9
$DIMTIX
 70
0
  9
$DIMSOXD
 70
0
  9
$DIMSAH
 70
0
  9
$DIMBLK1
  1

  9
$DIMBLK2
  1

  9
$DIMSTYLE
  2
ISO-25
  9
$DIMCLRD
 70
0
  9
$DIMCLRE
 70
0
  9
$DIMCLRT
 70
0
  9
$DIMTFAC
 40
1.0
  9
$DIMGAP
 40
0.625
  9
$DIMJUST
 70
0
  9
$DIMSD1
 70
0
  9
$DIMSD2
 70
0
  9
$DIMTOLJ
 70
0
  9
$DIMTZIN
 70
8
  9
$DIMALTZ
 70
0
  9
$DIMALTTZ
 70
0
  9
$DIMUPT
 70
0
  9
$DIMDEC
 70
2
  9
$DIMTDEC
 70
2
  9
$DIMALTU
 70
2
  9
$DIMALTTD
 70
3
  9
$DIMTXSTY
  7
Standard
  9
$DIMAUNIT
 70
0
  9
$DIMADEC
 70
0
  9
$DIMALTRND
 40
0.0
  9
$DIMAZIN
 70
0
  9
$DIMDSEP
 70
44
  9
$DIMATFIT
 70
3
  9
$DIMFRAC
 70
0
  9
$DIMLDRBLK
  1

  9
$DIMLUNIT
 70
2
  9
$DIMLWD
 70
-2
  9
$DIMLWE
 70
-2
  9
$DIMTMOVE
 70
0
  9
$DIMFXL
 40
1.0
  9
$DIMFXLON
 70
0
  9
$DIMJOGANG
 40
0.785398163397
  9
$DIMTFILL
 70
0
  9
$DIMTFILLCLR
 70
0
  9
$DIMARCSYM
 70
0
  9
$DIMLTYPE
  6

  9
$DIMLTEX1
  6

  9
$DIMLTEX2
  6

  9
$DIMTXTDIRECTION
 70
0
  9
$LUNITS
 70
2
  9
$LUPREC
 70
4
  9
$SKETCHINC
 40
1.0
  9
$FILLETRAD
 40
10.0
  9
$AUNITS
 70
0
  9
$AUPREC
 70
2
  9
$MENU
  1
.
  9
$ELEVATION
 40
0.0
  9
$PELEVATION
 40
0.0
  9
$THICKNESS
 40
0.0
  9
$LIMCHECK
 70
0
  9
$CHAMFERA
 40
0.0
  9
$CHAMFERB
 40
0.0
  9
$CHAMFERC
 40
0.0
  9
$CHAMFERD
 40
0.0
  9
$SKPOLY
 70
0
  9
$TDCREATE
 40
2461243.485625
  9
$TDUCREATE
 40
2458532.153996898
  9
$TDUPDATE
 40
2461243.485625
  9
$TDUUPDATE
 40
2458532.1544311
  9
$TDINDWG
 40
0.0
  9
$TDUSRTIMER
 40
0.0
  9
$USRTIMER
 70
1
  9
$ANGBASE
 50
0.0
  9
$ANGDIR
 70
0
  9
$PDMODE
 70
0
  9
$PDSIZE
 40
0.0
  9
$PLINEWID
 40
0.0
  9
$SPLFRAME
 70
0
  9
$SPLINETYPE
 70
6
  9
$SPLINESEGS
 70
8
  9
$HANDSEED
  5
4B
  9
$SURFTAB1
 70
6
  9
$SURFTAB2
 70
6
  9
$SURFTYPE
 70
6
  9
$SURFU
 70
6
  9
$SURFV
 70
6
  9
$UCSBASE
  2

  9
$UCSNAME
  2

  9
$UCSORG
 10
0.0
 20
0.0
 30
0.0
  9
$UCSXDIR
 10
1.0
 20
0.0
 30
0.0
  9
$UCSYDIR
 10
0.0
 20
1.0
 30
0.0
  9
$UCSORTHOREF
  2

  9
$UCSORTHOVIEW
 70
0
  9
$UCSORGTOP
 10
0.0
 20
0.0
 30
0.0
  9
$UCSORGBOTTOM
 10
0.0
 20
0.0
 30
0.0
  9
$UCSORGLEFT
 10
0.0
 20
0.0
 30
0.0
  9
$UCSORGRIGHT
 10
0.0
 20
0.0
 30
0.0
  9
$UCSORGFRONT
 10
0.0
 20
0.0
 30
0.0
  9
$UCSORGBACK
 10
0.0
 20
0.0
 30
0.0
  9
$PUCSBASE
  2

  9
$PUCSNAME
  2

  9
$PUCSORG
 10
0.0
 20
0.0
 30
0.0
  9
$PUCSXDIR
 10
1.0
 20
0.0
 30
0.0
  9
$PUCSYDIR
 10
0.0
 20
1.0
 30
0.0
  9
$PUCSORTHOREF
  2

  9
$PUCSORTHOVIEW
 70
0
  9
$PUCSORGTOP
 10
0.0
 20
0.0
 30
0.0
  9
$PUCSORGBOTTOM
 10
0.0
 20
0.0
 30
0.0
  9
$PUCSORGLEFT
 10
0.0
 20
0.0
 30
0.0
  9
$PUCSORGRIGHT
 10
0.0
 20
0.0
 30
0.0
  9
$PUCSORGFRONT
 10
0.0
 20
0.0
 30
0.0
  9
$PUCSORGBACK
 10
0.0
 20
0.0
 30
0.0
  9
$USERI1
 70
0
  9
$USERI2
 70
0
  9
$USERI3
 70
0
  9
$USERI4
 70
0
  9
$USERI5
 70
0
  9
$USERR1
 40
0.0
  9
$USERR2
 40
0.0
  9
$USERR3
 40
0.0
  9
$USERR4
 40
0.0
  9
$USERR5
 40
0.0
  9
$WORLDVIEW
 70
1
  9
$SHADEDGE
 70
3
  9
$SHADEDIF
 70
70
  9
$TILEMODE
 70
1
  9
$MAXACTVP
 70
64
  9
$PINSBASE
 10
0.0
 20
0.0
 30
0.0
  9
$PLIMCHECK
 70
0
  9
$PEXTMIN
 10
1e+20
 20
1e+20
 30
1e+20
  9
$PEXTMAX
 10
-1e+20
 20
-1e+20
 30
-1e+20
  9
$PLIMMIN
 10
0.0
 20
0.0
  9
$PLIMMAX
 10
420.0
 20
297.0
  9
$UNITMODE
 70
0
  9
$VISRETAIN
 70
1
  9
$PLINEGEN
 70
0
  9
$PSLTSCALE
 70
1
  9
$TREEDEPTH
 70
3020
  9
$CMLSTYLE
  2
Standard
  9
$CMLJUST
 70
0
  9
$CMLSCALE
 40
20.0
  9
$PROXYGRAPHICS
 70
1
  9
$MEASUREMENT
 70
1
  9
$CELWEIGHT
370
-1
  9
$ENDCAPS
280
0
  9
$JOINSTYLE
280
0
  9
$LWDISPLAY
290
0
  9
$INSUNITS
 70
4
  9
$HYPERLINKBASE
  1

  9
$STYLESHEET
  1

  9
$XEDIT
290
1
  9
$CEPSNTYPE
380
0
  9
$PSTYLEMODE
290
1
  9
$FINGERPRINTGUID
  2
{9CF895CC-E614-4877-8274-D7B3E5C7FE83}
  9
$VERSIONGUID
  2
{2F4B4CBD-B959-49B1-AF2C-952C330DAA0B}
  9
$EXTNAMES
290
1
  9
$PSVPSCALE
 40
0.0
  9
$OLESTARTUP
290
0
  9
$SORTENTS
280
127
  9
$INDEXCTL
280
0
  9
$HIDETEXT
280
1
  9
$XCLIPFRAME
280
1
  9
$HALOGAP
280
0
  9
$OBSCOLOR
 70
257
  9
$OBSLTYPE
280
0
  9
$INTERSECTIONDISPLAY
280
0
  9
$INTERSECTIONCOLOR
 70
257
  9
$DIMASSOC
280
2
  9
$PROJECTNAME
  1

  9
$CAMERADISPLAY
290
0
  9
$LENSLENGTH
 40
50.0
  9
$CAMERAHEIGHT
 40
0.0
  9
$STEPSPERSEC
 40
24.0
  9
$STEPSIZE
 40
100.0
  9
$3DDWFPREC
 40
2.0
  9
$PSOLWIDTH
 40
0.005
  9
$PSOLHEIGHT
 40
0.08
  9
$LOFTANG1
 40
1.570796326795
  9
$LOFTANG2
 40
1.570796326795
  9
$LOFTMAG1
 40
0.0
  9
$LOFTMAG2
 40
0.0
  9
$LOFTPARAM
 70
7
  9
$LOFTNORMALS
280
1
  9
$LATITUDE
 40
37.795
  9
$LONGITUDE
 40
-122.394
  9
$NORTHDIRECTION
 40
0.0
  9
$TIMEZONE
 70
-8000
  9
$LIGHTGLYPHDISPLAY
280
1
  9
$TILEMODELIGHTSYNCH
280
1
  9
$CMATERIAL
347
20
  9
$SOLIDHIST
280
0
  9
$SHOWHIST
280
1
  9
$DWFFRAME
280
2
  9
$DGNFRAME
280
2
  9
$REALWORLDSCALE
290
1
  9
$INTERFERECOLOR
 62
256
  9
$CSHADOW
280
0
  9
$SHADOWPLANELOCATION
 40
0.0
  0
ENDSEC
  0
SECTION
  2
CLASSES
  0
CLASS
  1
ACDBDICTIONARYWDFLT
  2
AcDbDictionaryWithDefault
  3
ObjectDBX Classes
 90
0
 91
0
280
0
281
0
  0
CLASS
  1
SUN
  2
AcDbSun
  3
SCENEOE
 90
1153
 91
0
280
0
281
0
  0
CLASS
  1
VISUALSTYLE
  2
AcDbVisualStyle
  3
ObjectDBX Classes
 90
4095
 91
0
280
0
281
0
  0
CLASS
  1
MATERIAL
  2
AcDbMaterial
  3
ObjectDBX Classes
 90
1153
 91
0
280
0
281
0
  0
CLASS
  1
SCALE
  2
AcDbScale
  3
ObjectDBX Classes
 90
1153
 91
0
280
0
281
0
  0
CLASS
  1
TABLESTYLE
  2
AcDbTableStyle
  3
ObjectDBX Classes
 90
4095
 91
0
280
0
281
0
  0
CLASS
  1
MLEADERSTYLE
  2
AcDbMLeaderStyle
  3
ACDB_MLEADERSTYLE_CLASS
 90
4095
 91
0
280
0
281
0
  0
CLASS
  1
DICTIONARYVAR
  2
AcDbDictionaryVar
  3
ObjectDBX Classes
 90
0
 91
0
280
0
281
0
  0
CLASS
  1
CELLSTYLEMAP
  2
AcDbCellStyleMap
  3
ObjectDBX Classes
 90
1152
 91
0
280
0
281
0
  0
CLASS
  1
MENTALRAYRENDERSETTINGS
  2
AcDbMentalRayRenderSettings
  3
SCENEOE
 90
1024
 91
0
280
0
281
0
  0
CLASS
  1
ACDBDETAILVIEWSTYLE
  2
AcDbDetailViewStyle
  3
ObjectDBX Classes
 90
1025
 91
0
280
0
281
0
  0
CLASS
  1
ACDBSECTIONVIEWSTYLE
  2
AcDbSectionViewStyle
  3
ObjectDBX Classes
 90
1025
 91
0
280
0
281
0
  0
CLASS
  1
RASTERVARIABLES
  2
AcDbRasterVariables
  3
ISM
 90
0
 91
0
280
0
281
0
  0
CLASS
  1
ACDBPLACEHOLDER
  2
AcDbPlaceHolder
  3
ObjectDBX Classes
 90
0
 91
0
280
0
281
0
  0
CLASS
  1
LAYOUT
  2
AcDbLayout
  3
ObjectDBX Classes
 90
0
 91
0
280
0
281
0
  0
ENDSEC
  0
SECTION
  2
TABLES
  0
TABLE
  2
VPORT
  5
8
330
0
100
AcDbSymbolTable
 70
1
  0
VPORT
  5
23
330
8
100
AcDbSymbolTableRecord
100
AcDbViewportTableRecord
  2
*Active
 70
0
 10
0.0
 20
0.0
 11
1.0
 21
1.0
 12
0.0
 22
0.0
 13
0.0
 23
0.0
 14
0.5
 24
0.5
 15
0.5
 25
0.5
 16
0.0
 26
0.0
 36
1.0
 17
0.0
 27
0.0
 37
0.0
 40
1000.0
 41
1.34
 42
50.0
 43
0.0
 44
0.0
 50
0.0
 51
0.0
 71
0
 72
1000
 73
1
 74
3
 75
0
 76
0
 77
0
 78
0
281
0
 65
0
146
0.0
  0
ENDTAB
  0
TABLE
  2
LTYPE
  5
2
330
0
100
AcDbSymbolTable
 70
3
  0
LTYPE
  5
24
330
2
100
AcDbSymbolTableRecord
100
AcDbLinetypeTableRecord
  2
ByBlock
 70
0
  3

 72
65
 73
0
 40
0.0
  0
LTYPE
  5
25
330
2
100
AcDbSymbolTableRecord
100
AcDbLinetypeTableRecord
  2
ByLayer
 70
0
  3

 72
65
 73
0
 40
0.0
  0
LTYPE
  5
26
330
2
100
AcDbSymbolTableRecord
100
AcDbLinetypeTableRecord
  2
Continuous
 70
0
  3

 72
65
 73
0
 40
0.0
  0
ENDTAB
  0
TABLE
  2
LAYER
  5
1
330
0
100
AcDbSymbolTable
 70
3
  0
LAYER
  5
27
330
1
100
AcDbSymbolTableRecord
100
AcDbLayerTableRecord
  2
0
 70
0
 62
7
  6
Continuous
370
-3
390
13
347
21
  0
LAYER
  5
28
330
1
100
AcDbSymbolTableRecord
100
AcDbLayerTableRecord
  2
Defpoints
 70
0
 62
7
  6
Continuous
290
0
370
-3
390
13
347
21
  0
LAYER
  5
2F
330
1
100
AcDbSymbolTableRecord
100
AcDbLayerTableRecord
  2
C
 70
0
 62
7
  6
Continuous
370
-3
390
13
347
21
  0
ENDTAB
  0
TABLE
  2
STYLE
  5
5
330
0
100
AcDbSymbolTable
 70
1
  0
STYLE
  5
29
330
5
100
AcDbSymbolTableRecord
100
AcDbTextStyleTableRecord
  2
Standard
 70
0
 40
0.0
 41
1.0
 50
0.0
 71
0
 42
2.5
  3
txt
  4

  0
ENDTAB
  0
TABLE
  2
VIEW
  5
7
330
0
100
AcDbSymbolTable
 70
0
  0
ENDTAB
  0
TABLE
  2
UCS
  5
6
330
0
100
AcDbSymbolTable
 70
0
  0
ENDTAB
  0
TABLE
  2
APPID
  5
3
330
0
100
AcDbSymbolTable
 70
3
  0
APPID
  5
2A
330
3
100
AcDbSymbolTableRecord
100
AcDbRegAppTableRecord
  2
ACAD
 70
0
  0
APPID
  5
48
330
3
100
AcDbSymbolTableRecord
100
AcDbRegAppTableRecord
  2
HATCHBACKGROUNDCOLOR
 70
0
  0
APPID
  5
49
330
3
100
AcDbSymbolTableRecord
100
AcDbRegAppTableRecord
  2
EZDXF
 70
0
  0
ENDTAB
  0
TABLE
  2
DIMSTYLE
  5
4
330
0
100
AcDbSymbolTable
 70
1
100
AcDbDimStyleTable
  0
DIMSTYLE
105
2B
330
4
100
AcDbSymbolTableRecord
100
AcDbDimStyleTableRecord
  2
Standard
 70
0
 40
1.0
 41
2.5
 42
0.625
 43
3.75
 44
1.25
 45
0.0
 46
0.0
 47
0.0
 48
0.0
 49
2.5
140
2.5
141
2.5
142
0.0
143
0.03937007874
144
1.0
145
0.0
146
1.0
147
0.625
148
0.0
 69
0
 70
0
 71
0
 72
0
 73
0
 74
0
 75
0
 76
0
 77
1
 78
8
 79
3
170
0
171
3
172
1
173
0
174
0
175
0
176
0
177
0
178
0
179
2
271
2
272
2
273
2
274
3
275
0
276
0
277
2
278
44
279
0
280
0
281
0
282
0
283
0
284
8
285
0
286
0
288
0
289
3
290
0
371
-2
372
-2
  0
ENDTAB
  0
TABLE
  2
BLOCK_RECORD
  5
9
330
0
100
AcDbSymbolTable
 70
2
  0
BLOCK_RECORD
  5
17
330
9
100
AcDbSymbolTableRecord
100
AcDbBlockTableRecord
  2
*Model_Space
340
1A
 70
0
280
1
281
0
  0
BLOCK_RECORD
  5
1B
330
9
100
AcDbSymbolTableRecord
100
AcDbBlockTableRecord
  2
*Paper_Space
340
1E
 70
0
280
1
281
0
  0
ENDTAB
  0
ENDSEC
  0
SECTION
  2
BLOCKS
  0
BLOCK
  5
18
330
17
100
AcDbEntity
  8
0
100
AcDbBlockBegin
  2
*Model_Space
 70
0
 10
0.0
 20
0.0
 30
0.0
  3
*Model_Space
  1

  0
ENDBLK
  5
19
330
17
100
AcDbEntity
  8
0
100
AcDbBlockEnd
  0
BLOCK
  5
1C
330
1B
100
AcDbEntity
  8
0
100
AcDbBlockBegin
  2
*Paper_Space
 70
0
 10
0.0
 20
0.0
 30
0.0
  3
*Paper_Space
  1

  0
ENDBLK
  5
1D
330
1B
100
AcDbEntity
  8
0
100
AcDbBlockEnd
  0
ENDSEC
  0
SECTION
  2
ENTITIES
  0
LWPOLYLINE
  5
30
330
17
100
AcDbEntity
  8
C
100
AcDbPolyline
 90
50
 70
1
 10
7.552211511147489
 20
106.79020263363171
 10
0.0
 20
121.95456384252302
 10
4.224591727921334
 20
128.89496453839357
 10
7.557925061254744
 20
128.89496453839357
 10
10.891258394587933
 20
134.37115501458408
 10
17.55792506125453
 20
134.37115501458408
 10
19.234540628241035
 20
137.12559487463326
 10
29.234540628241046
 20
134.38749963653805
 10
30.89125839458795
 20
137.1092502526793
 10
34.31659679705001
 20
137.1092502526793
 10
37.58859341763077
 20
134.42153874291674
 10
45.92192675096407
 20
148.11201493339289
 10
52.64993013038355
 20
142.5854407288698
 10
59.22459172792127
 20
142.5854407288698
 10
62.55792506125446
 20
148.06163120506022
 10
67.65823222230006
 20
148.06163120506022
 10
72.65823222230017
 20
142.5854407288698
 10
77.67032353113001
 20
142.5854407288698
 10
83.56452642968092
 20
132.90210739553643
 10
81.89785976301422
 20
130.16401215744122
 10
84.32704129747704
 20
126.17321392225233
 10
94.30428457167706
 20
128.90507815209284
 10
97.58859341763082
 20
126.207253028631
 10
99.21604049439381
 20
128.88091608331285
 10
109.22646141714898
 20
131.62186466930547
 10
114.23668303675116
 20
137.1092502526793
 10
117.57312373662488
 20
137.1092502526793
 10
125.90645706995818
 20
145.323535966965
 10
129.33699019779675
 20
145.323535966965
 10
130.963534000045
 20
142.65135686327125
 10
135.9033497034179
 20
148.06163120506022
 10
147.55792506125465
 20
148.06163120506022
 10
149.22459172792136
 20
150.79972644315552
 10
164.3369901977967
 20
150.79972644315552
 10
166.90288311341496
 20
146.58433093892597
 10
160.23621644674813
 20
138.37004522464025
 10
162.63965517475376
 20
134.42153874291674
 10
182.63965517475378
 20
150.85011017148818
 10
185.2141242961922
 20
146.62062518626772
 10
185.2141242961922
 20
105.4931134143291
 10
182.67032353113
 20
101.31401215744118
 10
124.22459172792122
 20
101.31401215744118
 10
120.89125839458804
 20
106.79020263363171
 10
114.33699019779664
 20
106.79020263363171
 10
111.00365686446322
 20
101.31401215744118
 10
29.224591727921243
 20
101.31401215744118
 10
24.269090198951737
 20
109.45519324074814
 10
17.602423532284917
 20
101.24090752646242
 10
14.224591727921343
 20
106.79020263363171
 10
7.552211511147489
 20
106.79020263363171
  0
LWPOLYLINE
  5
31
330
17
100
AcDbEntity
  8
C
100
AcDbPolyline
 90
5
 70
1
 10
146.66372216270383
 20
124.6878216812507
 10
144.28079096285896
 20
128.6026372238529
 10
141.89785976301428
 20
124.6878216812507
 10
144.28079096285896
 20
120.7730061386485
 10
146.66372216270383
 20
124.6878216812507
  0
LWPOLYLINE
  5
32
330
17
100
AcDbEntity
  8
C
100
AcDbPolyline
 90
25
 70
1
 10
145.8728634009332
 20
183.48708964701677
 10
140.0141242961923
 20
193.1121610333768
 10
140.0141242961923
 20
198.6444347100771
 10
142.57311207647726
 20
202.84848606340267
 10
149.2397787431441
 20
200.11039082530746
 10
151.66372216270375
 20
204.09258358601267
 10
146.66372216270383
 20
212.30686930029842
 10
149.22459172792136
 20
216.51401215744116
 10
154.22459172792125
 20
216.51401215744116
 10
156.66372216270364
 20
220.52115501458402
 10
153.33038882937024
 20
225.99734549077453
 10
157.55792506125465
 20
232.9425835860126
 10
160.88492708631108
 20
232.9425835860126
 10
167.60436254326748
 20
246.74142425654867
 10
169.28079096285907
 20
243.98729185293433
 10
170.89125839458785
 20
246.63305977648886
 10
175.99770011164017
 20
246.63305977648886
 10
185.2141242961922
 20
234.2447493466039
 10
185.2141242961922
 20
195.850256271472
 10
179.33699019779658
 20
186.19496453839358
 10
172.67032353112998
 20
186.19496453839358
 10
169.3369901977968
 20
180.71877406220315
 10
162.65823222230003
 20
180.71877406220315
 10
157.62857898205863
 20
175.21010622765297
 10
145.8728634009332
 20
183.48708964701677
  0
LWPOLYLINE
  5
33
330
17
100
AcDbEntity
  8
C
100
AcDbPolyline
 90
8
 70
1
 10
173.33333333333312
 20
264.3355162234753
 10
175.94745762952567
 20
268.6301489957914
 10
179.30632184142036
 20
263.11201493339286
 10
182.63965517475378
 20
265.8501101714881
 10
185.2141242961922
 20
261.6206251862676
 10
185.2141242961922
 20
256.0883515095672
 10
180.93869525347307
 20
249.06443236795684
 10
173.33333333333312
 20
264.3355162234753
  0
LWPOLYLINE
  5
34
330
17
100
AcDbEntity
  8
C
100
AcDbPolyline
 90
39
 70
1
 10
463.32698241161927
 20
310.8838941294613
 10
472.62242475845653
 20
323.3784172839763
 10
475.94745762952573
 20
317.91586328150544
 10
478.33038882937063
 20
321.83067882410785
 10
474.9989459297981
 20
327.30376358769144
 10
487.56371277948574
 20
350.69816281734813
 10
497.69034035305384
 20
347.9253957436329
 10
502.6367613067816
 20
334.3816240846165
 10
507.55792506125465
 20
342.4663931098222
 10
514.3248988889669
 20
342.4663931098222
 10
519.2647145923395
 20
337.056118768033
 10
520.9700946401149
 20
339.857814560807
 10
523.5578962402312
 20
332.7721673223932
 10
520.2311930963475
 20
327.3068693002984
 10
522.6302006667119
 20
323.36564257755686
 10
527.5700163700843
 20
328.77591691934595
 10
532.6703235311301
 20
328.77591691934595
 10
534.3369901977968
 20
326.0378216812507
 10
539.3369901977967
 20
326.0378216812507
 10
541.9044407086116
 20
321.81986727062605
 10
530.992690480272
 20
309.40925025267927
 10
527.67032353113
 20
309.40925025267927
 10
526.0036568644634
 20
306.6711550145841
 10
522.5579250612547
 20
306.6711550145841
 10
519.2366262004683
 20
312.12757457159023
 10
510.903292867135
 20
309.38947933349493
 10
509.28079096285893
 20
312.05501817623417
 10
506.0036568644634
 20
306.6711550145841
 10
502.67032353113007
 20
306.6711550145841
 10
501.0036568644634
 20
303.9330597764889
 10
494.2449851286678
 20
303.9330597764889
 10
490.97298850808704
 20
306.6207712862515
 10
487.66379838807916
 20
301.1842446605244
 10
480.0520316813338
 20
302.5736941387398
 10
477.5783719130057
 20
306.637563758136
 10
472.57837191300564
 20
303.8994685200408
 10
470.8912583945879
 20
306.6711550145841
 10
465.891258394588
 20
306.6711550145841
 10
463.32698241161927
 20
310.8838941294613
  0
LWPOLYLINE
  5
35
330
17
100
AcDbEntity
  8
C
100
AcDbPolyline
 90
5
 70
1
 10
514.2807909628591
 20
320.6539585196008
 10
516.663722162704
 20
324.5687740622031
 10
514.2807909628591
 20
328.4835896048055
 10
511.897859763014
 20
324.5687740622031
 10
514.2807909628591
 20
320.6539585196008
  0
LWPOLYLINE
  5
36
330
17
100
AcDbEntity
  8
C
100
AcDbPolyline
 90
5
 70
1
 10
501.66372216270395
 20
321.83067882410785
 10
499.28079096285904
 20
325.7454943667103
 10
496.897859763014
 20
321.83067882410785
 10
499.28079096285904
 20
317.91586328150544
 10
501.66372216270395
 20
321.83067882410785
  0
LWPOLYLINE
  5
37
330
17
100
AcDbEntity
  8
C
100
AcDbPolyline
 90
66
 70
1
 10
364.23122273662756
 20
372.3854407288698
 10
360.891258394588
 20
372.3854407288698
 10
358.33038882937063
 20
376.59258358601267
 10
360.92192675096436
 20
380.85011017148804
 10
364.2552600842977
 20
378.11201493339286
 10
366.669211480393
 20
382.07779222697803
 10
363.3286135501932
 20
390.3099799835418
 10
370.9268418248419
 20
397.24487086913393
 10
377.57311207647757
 20
394.5151527300693
 10
380.8912583945879
 20
399.9663931098222
 10
385.99156555563354
 20
399.9663931098222
 10
390.9193098548673
 20
394.569339829709
 10
395.8641387690964
 20
405.40086983230606
 10
399.98753760799667
 20
409.46536297350775
 10
398.3303888293707
 20
412.1878216812508
 10
402.55792506125465
 20
419.13305977648884
 10
406.0036568644634
 20
419.13305977648884
 10
407.61412429619236
 20
416.4872918529341
 10
414.25526008429756
 20
427.39772921910713
 10
417.64993013038367
 20
424.60925025267926
 10
426.0036568644634
 20
424.60925025267926
 10
427.6141242961924
 20
421.96348232912453
 10
429.2245917279213
 20
424.60925025267926
 10
436.01739638743106
 20
424.60925025267926
 10
438.55789624023123
 20
417.6531197033456
 10
436.0036568644634
 20
413.45686930029837
 10
432.6760370812374
 20
413.45686930029837
 10
425.2282485923847
 20
398.50218289014174
 10
427.65513651590715
 20
394.5151527300693
 10
434.3218031825737
 20
397.25324796816466
 10
440.96100403585336
 20
386.34598942349083
 10
446.6534708456441
 20
393.0259249655924
 10
436.6606461722804
 20
406.7065777922214
 10
440.89125839458796
 20
413.6568693002983
 10
445.9915655556336
 20
413.6568693002983
 10
450.93138125900623
 20
408.24659495850926
 10
454.2245917279213
 20
413.6568693002983
 10
457.67032353113
 20
413.6568693002983
 10
460.2311930963474
 20
409.4497264431555
 10
458.5645264296807
 20
406.71163120506026
 10
460.9832100127124
 20
402.73807960436545
 10
465.9832100127124
 20
405.4761748424607
 10
468.5645264296807
 20
401.2354407288697
 10
465.2141242961924
 20
395.73120865242464
 10
465.2141242961924
 20
390.3111013767435
 10
470.2061131530838
 20
382.1099768261361
 10
475.2228331152596
 20
365.6264683789874
 10
472.6551365159071
 20
361.4081096800512
 10
465.98846984924046
 20
364.1462049181464
 10
464.33699019779675
 20
361.43305977648885
 10
457.5579250612546
 20
361.43305977648885
 10
455.891258394588
 20
364.1711550145841
 10
445.89125839458796
 20
364.1711550145841
 10
440.9474576295257
 20
372.29311341432935
 10
437.6703235311301
 20
366.90925025267927
 10
427.5700163700845
 20
366.90925025267927
 10
422.63020066671174
 20
372.3195245944685
 10
420.9474576295257
 20
369.55501817623417
 10
414.280790962859
 20
380.5073991286151
 10
406.0036568644634
 20
366.90925025267927
 10
402.66175482699265
 20
366.90925025267927
 10
389.311579900665
 20
350.4599275755972
 10
382.5457705966677
 20
353.2387421111675
 10
375.92192675096425
 20
364.1207712862515
 10
372.59739224704646
 20
361.38990365803346
 10
364.23122273662756
 20
372.3854407288698
  0
LWPOLYLINE
  5
38
330
17
100
AcDbEntity
  8
C
100
AcDbPolyline
 90
6
 70
1
 10
460.891258394588
 20
383.3378216812508
 10
459.33699019779675
 20
383.3378216812508
 10
456.90126618076533
 20
379.3362750818422
 10
465.93915716726156
 20
367.18794109350006
 10
468.33038882937063
 20
371.1163931098221
 10
460.891258394588
 20
383.3378216812508
  0
LWPOLYLINE
  5
39
330
17
100
AcDbEntity
  8
C
100
AcDbPolyline
 90
9
 70
1
 10
409.99705549603726
 20
387.5449645383936
 10
404.280790962859
 20
396.9359705571865
 10
402.61412429619236
 20
394.1978753190912
 10
400.9474576295257
 20
396.9359705571865
 10
398.56452642968077
 20
393.0211550145841
 10
400.9474576295257
 20
389.1063394719817
 10
402.61412429619236
 20
391.8444347100769
 10
407.61412429619236
 20
383.63014899579116
 10
409.99705549603726
 20
387.5449645383936
  0
LWPOLYLINE
  5
3A
330
17
100
AcDbEntity
  8
C
100
AcDbPolyline
 90
29
 70
1
 10
411.64204510740063
 20
94.57242512768215
 10
406.6563847731924
 20
100.03291025562466
 10
408.3303888293706
 20
102.78305977648883
 10
404.99705549603726
 20
108.25925025267935
 10
407.55792506125465
 20
112.4663931098222
 10
411.0117332545672
 20
112.4663931098222
 10
416.0117332545672
 20
101.51401215744116
 10
419.3284214936592
 20
101.51401215744116
 10
425.9357568656186
 20
93.3728310741343
 10
430.89125839458796
 20
101.51401215744116
 10
435.89125839458796
 20
101.51401215744116
 10
437.6024235322853
 20
104.32521202651523
 10
444.28525045511424
 20
96.09101456802938
 10
449.2366830367511
 20
101.51401215744116
 10
452.6751037972827
 20
101.51401215744116
 10
461.89537661007876
 20
83.61231364428545
 10
459.33699019779675
 20
79.40925025267931
 10
454.2245917279213
 20
79.40925025267931
 10
450.93138125900623
 20
84.8195245944685
 10
445.99030892941636
 20
79.40787394777482
 10
401.7060060164417
 20
80.78056797337918
 10
400.0054154771251
 20
86.36822260256183
 10
403.3303888293707
 20
91.83067882410789
 10
399.99705549603726
 20
97.30686930029842
 10
402.59437498419413
 20
101.57389417369889
 10
406.9073776510547
 20
97.32250583065071
 10
405.23119309634734
 20
94.5687740622031
 10
407.6338736081906
 20
90.62151322131795
 10
411.64204510740063
 20
94.57242512768215
  0
LWPOLYLINE
  5
3B
330
17
100
AcDbEntity
  8
C
100
AcDbPolyline
 90
52
 70
1
 10
341.897859763014
 20
91.83067882410789
 10
344.28079096285904
 20
87.91586328150558
 10
347.58859341763093
 20
93.35011017148808
 10
350.92192675096436
 20
90.61201493339277
 10
353.33038882937063
 20
94.5687740622031
 10
351.6637221627039
 20
97.30686930029842
 10
354.9970554960373
 20
102.78305977648883
 10
351.6542042746633
 20
108.27488678303166
 10
359.9875376079967
 20
116.48917249731738
 10
358.33038882937063
 20
119.21163120506029
 10
360.92192675096436
 20
123.46915779053569
 10
364.2552600842977
 20
120.73106255244038
 10
367.5579250612546
 20
126.15686930029835
 10
374.22459172792134
 20
126.15686930029835
 10
376.66372216270395
 20
130.16401215744122
 10
374.9920321456366
 20
132.91036004262335
 10
381.6586988123032
 20
141.12464575690908
 10
379.99705549603726
 20
143.85448834791737
 10
382.60057788986467
 20
148.13170370920525
 10
388.5551389750741
 20
141.1442085581942
 10
386.8865863864373
 20
132.9206279427698
 10
388.56452642968077
 20
130.16401215744122
 10
385.2355306990327
 20
124.69494774280498
 10
392.66284674720555
 20
115.2044883479174
 10
396.0036568644634
 20
115.2044883479174
 10
400.2245629068979
 20
108.27014270677505
 10
397.68406305409775
 20
101.31401215744118
 10
392.67032353113007
 20
101.31401215744118
 10
389.33699019779675
 20
95.83782168125077
 10
384.33699019779675
 20
95.83782168125077
 10
381.9028831134148
 20
91.83893147119481
 10
388.5695497800815
 20
83.62464575690909
 10
386.0036568644634
 20
79.40925025267931
 10
382.55792506125465
 20
79.40925025267931
 10
379.99705549603726
 20
83.61639310982216
 10
381.66372216270395
 20
86.35448834791737
 10
379.28079096285904
 20
90.2693038905198
 10
376.0036568644634
 20
84.88544072886984
 10
370.9915655556335
 20
84.88544072886984
 10
365.9915655556335
 20
79.40925025267931
 10
340.90334970341786
 20
79.40925025267931
 10
335.94745762952573
 20
84.83713204789456
 10
330.9395765551845
 20
79.35230991885412
 10
321.6486168303616
 20
91.84080773079128
 10
329.9875376079967
 20
100.06060106874592
 10
328.3303888293706
 20
102.78305977648883
 10
332.58859341763093
 20
109.77868160005943
 10
335.9332016447221
 20
107.03132484209176
 10
342.62582506009943
 20
115.27759297889617
 10
346.88079096285907
 20
108.28729185293417
 10
346.88079096285907
 20
100.01692293813879
 10
341.897859763014
 20
91.83067882410789
  0
LWPOLYLINE
  5
3C
330
17
100
AcDbEntity
  8
C
100
AcDbPolyline
 90
6
 70
1
 10
381.680790962859
 20
113.70739912861494
 10
379.28079096285904
 20
117.65025627147219
 10
375.23119309634745
 20
110.99734549077456
 10
379.28079096285904
 20
104.34443471007704
 10
381.680790962859
 20
108.28729185293417
 10
381.680790962859
 20
113.70739912861494
  0
LWPOLYLINE
  5
3D
330
17
100
AcDbEntity
  8
C
100
AcDbPolyline
 90
5
 70
1
 10
364.28079096285904
 20
117.65025627147219
 10
361.897859763014
 20
113.73544072886976
 10
365.9474576295256
 20
107.08252994817225
 10
368.33038882937063
 20
110.99734549077456
 10
364.28079096285904
 20
117.65025627147219
  0
LWPOLYLINE
  5
3E
330
17
100
AcDbEntity
  8
C
100
AcDbPolyline
 90
8
 70
1
 10
303.3303888293706
 20
83.61639310982216
 10
307.6141242961924
 20
90.65395851960079
 10
309.3369901977967
 20
87.82353596696501
 10
316.00365686446344
 20
87.82353596696501
 10
318.5645264296807
 20
83.61639310982216
 10
315.99919308675504
 20
79.401916903587
 10
305.053766262758
 20
80.78513018354272
 10
303.3303888293706
 20
83.61639310982216
  0
LWPOLYLINE
  5
3F
330
17
100
AcDbEntity
  8
C
100
AcDbPolyline
 90
10
 70
1
 10
1016.6542042746634
 20
190.38647086518412
 10
1022.5579250612547
 20
200.0854407288698
 10
1025.891258394588
 20
200.0854407288698
 10
1029.2807909628589
 20
205.65395851960068
 10
1031.880790962859
 20
201.38252994817208
 10
1031.880790962859
 20
195.85025627147223
 10
1027.67032353113
 20
188.93305977648888
 10
1022.6703235311301
 20
188.93305977648888
 10
1020.9672069415238
 20
186.13508252213595
 10
1016.6542042746634
 20
190.38647086518412
  0
LWPOLYLINE
  5
40
330
17
100
AcDbEntity
  8
C
100
AcDbPolyline
 90
53
 70
1
 10
1743.3433583513524
 20
171.20783265603902
 10
1745.010664250005
 20
184.90355968068428
 10
1743.3474576295253
 20
187.6359705571864
 10
1743.3474576295253
 20
195.90633947198165
 10
1744.9970554960373
 20
198.61639310982216
 10
1743.3474576295253
 20
201.32644674766266
 10
1743.3474576295253
 20
217.81988904871864
 10
1749.2840873477733
 20
224.78634228951967
 10
1756.895220348134
 20
215.06100567794795
 10
1750.225703778658
 20
198.6254112745971
 10
1752.614124296192
 20
194.70157756721983
 10
1754.2552600842973
 20
197.39772921910702
 10
1757.5885934176308
 20
194.65963398101184
 10
1759.2672445565313
 20
197.41741799491942
 10
1765.2371581567122
 20
190.41190713756438
 10
1763.5645264296804
 20
187.66401215744122
 10
1765.2311930963474
 20
184.925916919346
 10
1761.897859763014
 20
179.4497264431555
 10
1765.9557580917897
 20
172.7831791887382
 10
1774.9936490782857
 20
184.93151317708035
 10
1769.997055496037
 20
193.14020263363173
 10
1771.6637221627036
 20
195.87829787172694
 10
1769.997055496037
 20
198.61639310982216
 10
1772.5579250612545
 20
202.823535966965
 10
1776.003656864463
 20
202.823535966965
 10
1780.2228331152592
 20
195.8920321263713
 10
1778.5561664485926
 20
190.41584165018088
 10
1780.9474576295252
 20
186.4872918529341
 10
1782.6141242961921
 20
189.22538709102943
 10
1784.2807909628586
 20
186.4872918529341
 10
1786.6720821437916
 20
190.41584165018088
 10
1785.0074358794964
 20
195.88539366143652
 10
1790.0011360681515
 20
206.8239750270624
 10
1788.3303888293701
 20
209.5687740622031
 10
1790.8912583945878
 20
213.77591691934595
 10
1795.9936251832517
 20
213.77591691934595
 10
1801.8923871904628
 20
206.8539002782308
 10
1800.214124296192
 20
201.33960791134098
 10
1800.214124296192
 20
190.3740657952816
 10
1792.6907169318765
 20
178.01418226819132
 10
1789.31659679705
 20
175.24258358601264
 10
1782.67032353113
 20
175.24258358601264
 10
1779.2807909628586
 20
169.67406579528176
 10
1775.9554059966765
 20
175.13719823972363
 10
1767.6755289984176
 20
158.81401215744117
 10
1764.216515337817
 20
158.81401215744117
 10
1759.2681474206654
 20
169.65329426167852
 10
1756.8978597630137
 20
165.75925025267935
 10
1758.5645264296804
 20
163.02115501458402
 10
1755.9474576295254
 20
158.72168484290071
 10
1754.2807909628589
 20
161.45978008099604
 10
1752.6224247584562
 20
158.73532131662037
 10
1743.3433583513524
 20
171.20783265603902
  0
LWPOLYLINE
  5
41
330
17
100
AcDbEntity
  8
C
100
AcDbPolyline
 90
29
 70
1
 10
3114.218014955562
 20
273.82481685488955
 10
3112.557925061255
 20
276.5521073955365
 10
3095.891258394588
 20
276.5521073955365
 10
3094.2245917279215
 20
279.2902026336317
 10
3085.891258394588
 20
279.2902026336317
 10
3084.224591727921
 20
282.02829787172703
 10
3080.891258394588
 20
282.02829787172703
 10
3075.8912583945885
 20
290.24258358601264
 10
3064.2245917279215
 20
290.24258358601264
 10
3062.5504880898216
 20
292.99289670574814
 10
3050.8838214231546
 20
295.7309919438433
 10
3049.2245917279215
 20
298.45686930029837
 10
3035.9175411809056
 20
298.45686930029837
 10
3027.5842078475716
 20
303.9330597764889
 10
3022.5579250612545
 20
303.9330597764889
 10
3020.014124296192
 20
308.1121610333768
 10
3020.014124296192
 20
338.2872918529343
 10
3022.5579250612545
 20
342.4663931098222
 10
3052.557925061255
 20
342.4663931098222
 10
3054.221553774558
 20
345.1994974245347
 10
3084.221553774558
 20
347.9375926626299
 10
3085.891258394588
 20
350.68067882410793
 10
3094.328421493659
 20
350.68067882410793
 10
3100.995088160326
 20
342.4663931098222
 10
3141.0036568644637
 20
342.4663931098222
 10
3143.5474576295255
 20
338.2872918529343
 10
3143.5474576295255
 20
272.5169229381387
 10
3140.9962834129797
 20
268.3257081538126
 10
3114.218014955562
 20
273.82481685488955
  0
LWPOLYLINE
  5
42
330
17
100
AcDbEntity
  8
C
100
AcDbPolyline
 90
21
 70
1
 10
3514.239992037309
 20
240.96097076820033
 10
3504.244985128668
 20
249.1711550145841
 10
3499.244985128668
 20
249.1711550145841
 10
3485.911651795335
 20
260.12353596696505
 10
3482.567956742467
 20
260.12353596696505
 10
3476.680790962859
 20
267.0319447899733
 10
3476.680790962859
 20
269.78189927842953
 10
3464.99143297661
 20
291.729265293428
 10
3495.9401210309034
 20
323.33516487010974
 10
3499.316596797051
 20
320.56163120506034
 10
3507.6582322223007
 20
320.56163120506034
 10
3512.667104182238
 20
315.07572382036733
 10
3524.3262881681912
 20
312.33938472162305
 10
3530.992954834858
 20
306.8631942454325
 10
3542.677760502564
 20
304.1208418948487
 10
3546.88079096286
 20
297.2158632815055
 10
3546.88079096286
 20
261.6206251862674
 10
3548.547457629526
 20
258.8825299481722
 10
3548.547457629526
 20
253.34606618187027
 10
3537.6609292967732
 20
238.21259547754903
 10
3514.239992037309
 20
240.96097076820033
  0
LWPOLYLINE
  5
43
330
17
100
AcDbEntity
  8
C
100
AcDbPolyline
 90
28
 70
1
 10
3392.584207847572
 20
265.59972644315553
 10
3387.570016370085
 20
265.59972644315553
 10
3382.570016370085
 20
271.07591691934596
 10
3377.5731237366253
 20
271.07591691934596
 10
3369.22729392368
 20
279.302520592106
 10
3360.8812104859403
 20
282.04480515022067
 10
3359.2245917279215
 20
284.7663931098222
 10
3354.2245917279215
 20
284.7663931098222
 10
3350.891258394588
 20
290.24258358601264
 10
3344.2380620023127
 20
290.24258358601264
 10
3334.9794430696043
 20
299.9220488338444
 10
3340.9012900758
 20
306.8711550145841
 10
3344.224591727922
 20
306.8711550145841
 10
3347.557925061255
 20
312.3473454907746
 10
3352.5664937653924
 20
312.3473454907746
 10
3359.2331604320593
 20
320.56163120506034
 10
3367.661754826993
 20
320.56163120506034
 10
3374.3423688384714
 20
312.3301603694887
 10
3387.6824779957174
 20
306.8511869656198
 10
3391.0036568644637
 20
301.39496453839365
 10
3397.6703235311306
 20
301.39496453839365
 10
3401.003656864464
 20
295.9187740622031
 10
3404.3369901977967
 20
295.9187740622031
 10
3408.55492092198
 20
288.98931644390336
 10
3403.547457629526
 20
269.79404048949806
 10
3403.547457629526
 20
264.30263722385314
 10
3400.9790523834467
 20
260.08311431958055
 10
3392.584207847572
 20
265.59972644315553
  0
LWPOLYLINE
  5
44
330
17
100
AcDbEntity
  8
C
100
AcDbPolyline
 90
13
 70
1
 10
3254.2219770460765
 20
282.0325934204718
 10
3249.997055496038
 20
288.9735359669651
 10
3251.6807909628596
 20
291.73967280531497
 10
3251.6807909628596
 20
299.94671564342576
 10
3255.908569413418
 20
309.67060607971075
 10
3259.3242406937993
 20
306.86487609939763
 10
3274.342883577718
 20
304.12337779519027
 10
3276.003656864464
 20
301.39496453839365
 10
3287.6602918499193
 20
301.39496453839365
 10
3293.547457629526
 20
294.4865557153853
 10
3293.547457629526
 20
288.9527372428853
 10
3289.3440704195596
 20
279.2849466599613
 10
3254.2219770460765
 20
282.0325934204718
  0
LWPOLYLINE
  5
45
330
17
100
AcDbEntity
  8
C
100
AcDbPolyline
 90
9
 70
1
 10
4705.88121048594
 20
377.878138483554
 10
4703.347457629527
 20
382.0407324619484
 10
4703.347457629527
 20
420.4966027048912
 10
4727.683470823875
 20
421.875243846443
 10
4736.896208757774
 20
395.73260438466417
 10
4724.321791522426
 20
383.3378216812508
 10
4720.995088160325
 20
383.3378216812508
 10
4714.315023992366
 20
375.1070283314426
 10
4705.88121048594
 20
377.878138483554
  0
LWPOLYLINE
  5
46
330
17
100
AcDbEntity
  8
C
100
AcDbPolyline
 90
9
 70
1
 10
4703.347457629527
 20
1.3810535562338577
 10
4703.347457629527
 20
42.628362955045354
 10
4710.997131721413
 20
44.024732035310436
 10
4712.67032353113
 20
41.27591691934596
 10
4721.003656864463
 20
41.27591691934596
 10
4723.5474576295255
 20
37.09681566245793
 10
4723.5474576295255
 20
4.183589604805471
 10
4721.0009248266015
 20
0.0
 10
4703.347457629527
 20
1.3810535562338577
  0
LWPOLYLINE
  5
47
330
17
100
AcDbEntity
  8
C
100
AcDbPolyline
 90
6
 70
1
 10
4703.345541746772
 20
97.36507079206558
 10
4705.983210012713
 20
98.80950817579415
 10
4711.891229573565
 20
89.10347604010838
 10
4706.871339005216
 20
75.35853757915389
 10
4704.191595664001
 20
70.95610209001535
 10
4703.345541746772
 20
97.36507079206558
  0
ENDSEC
  0
SECTION
  2
OBJECTS
  0
DICTIONARY
  5
A
330
0
100
AcDbDictionary
281
1
  3
ACAD_COLOR
350
B
  3
ACAD_GROUP
350
C
  3
ACAD_LAYOUT
350
D
  3
ACAD_MATERIAL
350
E
  3
ACAD_MLEADERSTYLE
350
F
  3
ACAD_MLINESTYLE
350
10
  3
ACAD_PLOTSETTINGS
350
11
  3
ACAD_PLOTSTYLENAME
350
12
  3
ACAD_SCALELIST
350
14
  3
ACAD_TABLESTYLE
350
15
  3
ACAD_VISUALSTYLE
350
16
  3
EZDXF_META
350
2D
  0
DICTIONARY
  5
B
330
A
100
AcDbDictionary
281
1
  0
DICTIONARY
  5
C
330
A
100
AcDbDictionary
281
1
  0
DICTIONARY
  5
D
330
A
100
AcDbDictionary
281
1
  3
Model
350
1A
  3
Layout1
350
1E
  0
DICTIONARY
  5
E
330
A
100
AcDbDictionary
281
1
  3
ByBlock
350
1F
  3
ByLayer
350
20
  3
Global
350
21
  0
DICTIONARY
  5
F
330
A
100
AcDbDictionary
281
1
  3
Standard
350
2C
  0
DICTIONARY
  5
10
330
A
100
AcDbDictionary
281
1
  3
Standard
350
22
  0
DICTIONARY
  5
11
330
A
100
AcDbDictionary
281
1
  0
ACDBDICTIONARYWDFLT
  5
12
330
A
100
AcDbDictionary
281
1
  3
Normal
350
13
100
AcDbDictionaryWithDefault
340
13
  0
ACDBPLACEHOLDER
  5
13
330
12
  0
DICTIONARY
  5
14
330
A
100
AcDbDictionary
281
1
  0
DICTIONARY
  5
15
330
A
100
AcDbDictionary
281
1
  0
DICTIONARY
  5
16
330
A
100
AcDbDictionary
281
1
  0
LAYOUT
  5
1A
330
D
100
AcDbPlotSettings
  1

  4
A3
  6

 40
7.5
 41
20.0
 42
7.5
 43
20.0
 44
420.0
 45
297.0
 46
0.0
 47
0.0
 48
0.0
 49
0.0
140
0.0
141
0.0
142
1.0
143
1.0
 70
1024
 72
1
 73
0
 74
5
  7

 75
16
 76
0
 77
2
 78
300
147
1.0
148
0.0
149
0.0
100
AcDbLayout
  1
Model
 70
1
 71
0
 10
0.0
 20
0.0
 11
420.0
 21
297.0
 12
0.0
 22
0.0
 32
0.0
 14
1e+20
 24
1e+20
 34
1e+20
 15
-1e+20
 25
-1e+20
 35
-1e+20
146
0.0
 13
0.0
 23
0.0
 33
0.0
 16
1.0
 26
0.0
 36
0.0
 17
0.0
 27
1.0
 37
0.0
 76
1
330
17
  0
LAYOUT
  5
1E
330
D
100
AcDbPlotSettings
  1

  4
A3
  6

 40
7.5
 41
20.0
 42
7.5
 43
20.0
 44
420.0
 45
297.0
 46
0.0
 47
0.0
 48
0.0
 49
0.0
140
0.0
141
0.0
142
1.0
143
1.0
 70
0
 72
1
 73
0
 74
5
  7

 75
16
 76
0
 77
2
 78
300
147
1.0
148
0.0
149
0.0
100
AcDbLayout
  1
Layout1
 70
1
 71
1
 10
0.0
 20
0.0
 11
420.0
 21
297.0
 12
0.0
 22
0.0
 32
0.0
 14
1e+20
 24
1e+20
 34
1e+20
 15
-1e+20
 25
-1e+20
 35
-1e+20
146
0.0
 13
0.0
 23
0.0
 33
0.0
 16
1.0
 26
0.0
 36
0.0
 17
0.0
 27
1.0
 37
0.0
 76
1
330
1B
  0
MATERIAL
  5
1F
102
{ACAD_REACTORS
330
E
102
}
330
E
100
AcDbMaterial
  1
ByBlock
  2

 70
0
 40
1.0
 71
1
 41
1.0
 91
-1023410177
 42
1.0
 72
1
  3

 73
1
 74
1
 75
1
 44
0.5
 73
0
 45
1.0
 46
1.0
 77
1
  4

 78
1
 79
1
170
1
 48
1.0
171
1
  6

172
1
173
1
174
1
140
1.0
141
1.0
175
1
  7

176
1
177
1
178
1
143
1.0
179
1
  8

270
1
271
1
272
1
145
1.0
146
1.0
273
1
  9

274
1
275
1
276
1
 42
1.0
 72
1
  3

 73
1
 74
1
 75
1
 94
63
  0
MATERIAL
  5
20
102
{ACAD_REACTORS
330
E
102
}
330
E
100
AcDbMaterial
  1
ByLayer
  2

 70
0
 40
1.0
 71
1
 41
1.0
 91
-1023410177
 42
1.0
 72
1
  3

 73
1
 74
1
 75
1
 44
0.5
 73
0
 45
1.0
 46
1.0
 77
1
  4

 78
1
 79
1
170
1
 48
1.0
171
1
  6

172
1
173
1
174
1
140
1.0
141
1.0
175
1
  7

176
1
177
1
178
1
143
1.0
179
1
  8

270
1
271
1
272
1
145
1.0
146
1.0
273
1
  9

274
1
275
1
276
1
 42
1.0
 72
1
  3

 73
1
 74
1
 75
1
 94
63
  0
MATERIAL
  5
21
102
{ACAD_REACTORS
330
E
102
}
330
E
100
AcDbMaterial
  1
Global
  2

 70
0
 40
1.0
 71
1
 41
1.0
 91
-1023410177
 42
1.0
 72
1
  3

 73
1
 74
1
 75
1
 44
0.5
 73
0
 45
1.0
 46
1.0
 77
1
  4

 78
1
 79
1
170
1
 48
1.0
171
1
  6

172
1
173
1
174
1
140
1.0
141
1.0
175
1
  7

176
1
177
1
178
1
143
1.0
179
1
  8

270
1
271
1
272
1
145
1.0
146
1.0
273
1
  9

274
1
275
1
276
1
 42
1.0
 72
1
  3

 73
1
 74
1
 75
1
 94
63
  0
MLINESTYLE
  5
22
102
{ACAD_REACTORS
330
10
102
}
330
10
100
AcDbMlineStyle
  2
Standard
 70
0
  3

 62
256
 51
90.0
 52
90.0
 71
2
 49
0.5
 62
256
  6
BYLAYER
 49
-0.5
 62
256
  6
BYLAYER
  0
MLEADERSTYLE
  5
2C
102
{ACAD_REACTORS
330
F
102
}
330
F
100
AcDbMLeaderStyle
179
2
170
2
171
1
172
0
 90
2
 40
0.0
 41
0.0
173
1
 91
-1056964608
 92
-2
290
1
 42
2.0
291
1
 43
8.0
  3
Standard
 44
4.0
300

342
29
174
1
175
1
176
0
178
1
 93
-1056964608
 45
4.0
292
0
297
0
 46
4.0
 94
-1056964608
 47
1.0
 49
1.0
140
1.0
294
1
141
0.0
177
0
142
1.0
295
0
296
0
143
3.75
271
0
272
9
273
9
  0
DICTIONARY
  5
2D
330
A
100
AcDbDictionary
280
1
281
1
  3
CREATED_BY_EZDXF
350
2E
  3
WRITTEN_BY_EZDXF
350
4A
  0
DICTIONARYVAR
  5
2E
330
2D
100
DictionaryVariables
280
0
  1
1.4.4 @ 2026-07-21T08:39:18.237360+00:00
  0
DICTIONARYVAR
  5
4A
330
2D
100
DictionaryVariables
280
0
  1
1.4.4 @ 2026-07-21T08:39:18.255297+00:00
  0
ENDSEC
  0
EOF
