  0
SECTION
  2
HEADER
  9
$ACADVER
  1
AC1027
  9
$ACADMAINTVER
 70
105
  9
$DWGCODEPAGE
  3
ANSI_1252
  9
$LASTSAVEDBY
  1
ezdxf
  9
$REQUIREDVERSIONS
160
0
  9
$INSBASE
 10
0.0
 20
0.0
 30
0.0
  9
$EXTMIN
 10
1e+20
 20
1e+20
 30
1e+20
  9
$EXTMAX
 10
-1e+20
 20
-1e+20
 30
-1e+20
  9
$LIMMIN
 10
0.0
 20
0.0
  9
$LIMMAX
 10
420.0
 20
297.0
  9
$ORTHOMODE
 70
0
  9
$REGENMODE
 70
1
  9
$FILLMODE
 70
1
  9
$QTEXTMODE
 70
0
  9
$MIRRTEXT
 70
1
  9
$LTSCALE
 40
1.0
  9
$ATTMODE
 70
1
  9
$TEXTSIZE
 40
2.5
  9
$TRACEWID
 40
1.0
  9
$TEXTSTYLE
  7
Standard
  9
$CLAYER
  8
0
  9
$CELTYPE
  6
ByLayer
  9
$CECOLOR
 62
256
  9
$CELTSCALE
 40
1.0
  9
$DISPSILH
 70
0
  9
$DIMSCALE
 40
1.0
  9
$DIMASZ
 40
2.5
  9
$DIMEXO
 40
0.625
  9
$DIMDLI
 40
3.75
  9
$DIMRND
 40
0.0
  9
$DIMDLE
 40
0.0
  9
$DIMEXE
 40
1.25
  9
$DIMTP
 40
0.0
  9
$DIMTM
 40
0.0
  9
$DIMTXT
 40
2.5
  9
$DIMCEN
 40
2.5
  9
$DIMTSZ
 40
0.0
  9
$DIMTOL
 70
0
  9
$DIMLIM
 70
0
  9
$DIMTIH
 70
0
  9
$DIMTOH
 70
0
  9
$DIMSE1
 70
0
  9
$DIMSE2
 70
0
  9
$DIMTAD
 70
1
  9
$DIMZIN
 70
8
  9
$DIMBLK
  1

  9
$DIMASO
 70
1
  9
$DIMSHO
 70
1
  9
$DIMPOST
  1

  9
$DIMAPOST
  1

  9
$DIMALT
 70
0
  9
$DIMALTD
 70
3
  9
$DIMALTF
 40
0.03937007874
  9
$DIMLFAC
 40
1.0
  9
$DIMTOFL
 70
1
  9
$DIMTVP
 40
0.0
  9
$DIMTIX
 70
0
  9
$DIMSOXD
 70
0
  9
$DIMSAH
 70
0
  9
$DIMBLK1
  1

  9
$DIMBLK2
  1

  9
$DIMSTYLE
  2
ISO-25
  9
$DIMCLRD
 70
0
  9
$DIMCLRE
 70
0
  9
$DIMCLRT
 70
0
  9
$DIMTFAC
 40
1.0
  9
$DIMGAP
 40
0.625
  9
$DIMJUST
 70
0
  9
$DIMSD1
 70
0
  9
$DIMSD2
 70
0
  9
$DIMTOLJ
 70
0
  9
$DIMTZIN
 70
8
  9
$DIMALTZ
 70
0
  9
$DIMALTTZ
 70
0
  9
$DIMUPT
 70
0
  9
$DIMDEC
 70
2
  9
$DIMTDEC
 70
2
  9
$DIMALTU
 70
2
  9
$DIMALTTD
 70
3
  9
$DIMTXSTY
  7
Standard
  9
$DIMAUNIT
 70
0
  9
$DIMADEC
 70
0
  9
$DIMALTRND
 40
0.0
  9
$DIMAZIN
 70
0
  9
$DIMDSEP
 70
44
  9
$DIMATFIT
 70
3
  9
$DIMFRAC
 70
0
  9
$DIMLDRBLK
  1

  9
$DIMLUNIT
 70
2
  9
$DIMLWD
 70
-2
  9
$DIMLWE
 70
-2
  9
$DIMTMOVE
 70
0
  9
$DIMFXL
 40
1.0
  9
$DIMFXLON
 70
0
  9
$DIMJOGANG
 40
0.785398163397
  9
$DIMTFILL
 70
0
  9
$DIMTFILLCLR
 70
0
  9
$DIMARCSYM
 70
0
  9
$DIMLTYPE
  6

  9
$DIMLTEX1
  6

  9
$DIMLTEX2
  6

  9
$DIMTXTDIRECTION
 70
0
  9
$LUNITS
 70
2
  9
$LUPREC
 70
4
  9
$SKETCHINC
 40
1.0
  9
$FILLETRAD
 40
10.0
  9
$AUNITS
 70
0
  9
$AUPREC
 70
2
  9
$MENU
  1
.
  9
$ELEVATION
 40
0.0
  9
$PELEVATION
 40
0.0
  9
$THICKNESS
 40
0.0
  9
$LIMCHECK
 70
0
  9
$CHAMFERA
 40
0.0
  9
$CHAMFERB
 40
0.0
  9
$CHAMFERC
 40
0.0
  9
$CHAMFERD
 40
0.0
  9
$SKPOLY
 70
0
  9
$TDCREATE
 40
2461243.485625
  9
$TDUCREATE
 40
2458532.153996898
  9
$TDUPDATE
 40
2461243.485625
  9
$TDUUPDATE
 40
2458532.1544311
  9
$TDINDWG
 40
0.0
  9
$TDUSRTIMER
 40
0.0
  9
$USRTIMER
 70
1
  9
$ANGBASE
 50
0.0
  9
$ANGDIR
 70
0
  9
$PDMODE
 70
0
  9
$PDSIZE
 40
0.0
  9
$PLINEWID
 40
0.0
  9
$SPLFRAME
 70
0
  9
$SPLINETYPE
 70
6
  9
$SPLINESEGS
 70
8
  9
$HANDSEED
  5
3C
  9
$SURFTAB1
 70
6
  9
$SURFTAB2
 70
6
  9
$SURFTYPE
 70
6
  9
$SURFU
 70
6
  9
$SURFV
 70
6
  9
$UCSBASE
  2

  9
$UCSNAME
  2

  9
$UCSORG
 10
0.0
 20
0.0
 30
0.0
  9
$UCSXDIR
 10
1.0
 20
0.0
 30
0.0
  9
$UCSYDIR
 10
0.0
 20
1.0
 30
0.0
  9
$UCSORTHOREF
  2

  9
$UCSORTHOVIEW
 70
0
  9
$UCSORGTOP
 10
0.0
 20
0.0
 30
0.0
  9
$UCSORGBOTTOM
 10
0.0
 20
0.0
 30
0.0
  9
$UCSORGLEFT
 10
0.0
 20
0.0
 30
0.0
  9
$UCSORGRIGHT
 10
0.0
 20
0.0
 30
0.0
  9
$UCSORGFRONT
 10
0.0
 20
0.0
 30
0.0
  9
$UCSORGBACK
 10
0.0
 20
0.0
 30
0.0
  9
$PUCSBASE
  2

  9
$PUCSNAME
  2

  9
$PUCSORG
 10
0.0
 20
0.0
 30
0.0
  9
$PUCSXDIR
 10
1.0
 20
0.0
 30
0.0
  9
$PUCSYDIR
 10
0.0
 20
1.0
 30
0.0
  9
$PUCSORTHOREF
  2

  9
$PUCSORTHOVIEW
 70
0
  9
$PUCSORGTOP
 10
0.0
 20
0.0
 30
0.0
  9
$PUCSORGBOTTOM
 10
0.0
 20
0.0
 30
0.0
  9
$PUCSORGLEFT
 10
0.0
 20
0.0
 30
0.0
  9
$PUCSORGRIGHT
 10
0.0
 20
0.0
 30
0.0
  9
$PUCSORGFRONT
 10
0.0
 20
0.0
 30
0.0
  9
$PUCSORGBACK
 10
0.0
 20
0.0
 30
0.0
  9
$USERI1
 70
0
  9
$USERI2
 70
0
  9
$USERI3
 70
0
  9
$USERI4
 70
0
  9
$USERI5
 70
0
  9
$USERR1
 40
0.0
  9
$USERR2
 40
0.0
  9
$USERR3
 40
0.0
  9
$USERR4
 40
0.0
  9
$USERR5
 40
0.0
  9
$WORLDVIEW
 70
1
  9
$SHADEDGE
 70
3
  9
$SHADEDIF
 70
70
  9
$TILEMODE
 70
1
  9
$MAXACTVP
 70
64
  9
$PINSBASE
 10
0.0
 20
0.0
 30
0.0
  9
$PLIMCHECK
 70
0
  9
$PEXTMIN
 10
1e+20
 20
1e+20
 30
1e+20
  9
$PEXTMAX
 10
-1e+20
 20
-1e+20
 30
-1e+20
  9
$PLIMMIN
 10
0.0
 20
0.0
  9
$PLIMMAX
 10
420.0
 20
297.0
  9
$UNITMODE
 70
0
  9
$VISRETAIN
 70
1
  9
$PLINEGEN
 70
0
  9
$PSLTSCALE
 70
1
  9
$TREEDEPTH
 70
3020
  9
$CMLSTYLE
  2
Standard
  9
$CMLJUST
 70
0
  9
$CMLSCALE
 40
20.0
  9
$PROXYGRAPHICS
 70
1
  9
$MEASUREMENT
 70
1
  9
$CELWEIGHT
370
-1
  9
$ENDCAPS
280
0
  9
$JOINSTYLE
280
0
  9
$LWDISPLAY
290
0
  9
$INSUNITS
 70
4
  9
$HYPERLINKBASE
  1

  9
$STYLESHEET
  1

  9
$XEDIT
290
1
  9
$CEPSNTYPE
380
0
  9
$PSTYLEMODE
290
1
  9
$FINGERPRINTGUID
  2
{EDF0002E-D10F-4F6E-8AFA-FA1C261A4267}
  9
$VERSIONGUID
  2
{06EFFB78-C2D4-46CA-AA30-95DE361D6DDA}
  9
$EXTNAMES
290
1
  9
$PSVPSCALE
 40
0.0
  9
$OLESTARTUP
290
0
  9
$SORTENTS
280
127
  9
$INDEXCTL
280
0
  9
$HIDETEXT
280
1
  9
$XCLIPFRAME
280
1
  9
$HALOGAP
280
0
  9
$OBSCOLOR
 70
257
  9
$OBSLTYPE
280
0
  9
$INTERSECTIONDISPLAY
280
0
  9
$INTERSECTIONCOLOR
 70
257
  9
$DIMASSOC
280
2
  9
$PROJECTNAME
  1

  9
$CAMERADISPLAY
290
0
  9
$LENSLENGTH
 40
50.0
  9
$CAMERAHEIGHT
 40
0.0
  9
$STEPSPERSEC
 40
24.0
  9
$STEPSIZE
 40
100.0
  9
$3DDWFPREC
 40
2.0
  9
$PSOLWIDTH
 40
0.005
  9
$PSOLHEIGHT
 40
0.08
  9
$LOFTANG1
 40
1.570796326795
  9
$LOFTANG2
 40
1.570796326795
  9
$LOFTMAG1
 40
0.0
  9
$LOFTMAG2
 40
0.0
  9
$LOFTPARAM
 70
7
  9
$LOFTNORMALS
280
1
  9
$LATITUDE
 40
37.795
  9
$LONGITUDE
 40
-122.394
  9
$NORTHDIRECTION
 40
0.0
  9
$TIMEZONE
 70
-8000
  9
$LIGHTGLYPHDISPLAY
280
1
  9
$TILEMODELIGHTSYNCH
280
1
  9
$CMATERIAL
347
20
  9
$SOLIDHIST
280
0
  9
$SHOWHIST
280
1
  9
$DWFFRAME
280
2
  9
$DGNFRAME
280
2
  9
$REALWORLDSCALE
290
1
  9
$INTERFERECOLOR
 62
256
  9
$CSHADOW
280
0
  9
$SHADOWPLANELOCATION
 40
0.0
  0
ENDSEC
  0
SECTION
  2
CLASSES
  0
CLASS
  1
ACDBDICTIONARYWDFLT
  2
AcDbDictionaryWithDefault
  3
ObjectDBX Classes
 90
0
 91
0
280
0
281
0
  0
CLASS
  1
SUN
  2
AcDbSun
  3
SCENEOE
 90
1153
 91
0
280
0
281
0
  0
CLASS
  1
VISUALSTYLE
  2
AcDbVisualStyle
  3
ObjectDBX Classes
 90
4095
 91
0
280
0
281
0
  0
CLASS
  1
MATERIAL
  2
AcDbMaterial
  3
ObjectDBX Classes
 90
1153
 91
0
280
0
281
0
  0
CLASS
  1
SCALE
  2
AcDbScale
  3
ObjectDBX Classes
 90
1153
 91
0
280
0
281
0
  0
CLASS
  1
TABLESTYLE
  2
AcDbTableStyle
  3
ObjectDBX Classes
 90
4095
 91
0
280
0
281
0
  0
CLASS
  1
MLEADERSTYLE
  2
AcDbMLeaderStyle
  3
ACDB_MLEADERSTYLE_CLASS
 90
4095
 91
0
280
0
281
0
  0
CLASS
  1
DICTIONARYVAR
  2
AcDbDictionaryVar
  3
ObjectDBX Classes
 90
0
 91
0
280
0
281
0
  0
CLASS
  1
CELLSTYLEMAP
  2
AcDbCellStyleMap
  3
ObjectDBX Classes
 90
1152
 91
0
280
0
281
0
  0
CLASS
  1
MENTALRAYRENDERSETTINGS
  2
AcDbMentalRayRenderSettings
  3
SCENEOE
 90
1024
 91
0
280
0
281
0
  0
CLASS
  1
ACDBDETAILVIEWSTYLE
  2
AcDbDetailViewStyle
  3
ObjectDBX Classes
 90
1025
 91
0
280
0
281
0
  0
CLASS
  1
ACDBSECTIONVIEWSTYLE
  2
AcDbSectionViewStyle
  3
ObjectDBX Classes
 90
1025
 91
0
280
0
281
0
  0
CLASS
  1
RASTERVARIABLES
  2
AcDbRasterVariables
  3
ISM
 90
0
 91
0
280
0
281
0
  0
CLASS
  1
ACDBPLACEHOLDER
  2
AcDbPlaceHolder
  3
ObjectDBX Classes
 90
0
 91
0
280
0
281
0
  0
CLASS
  1
LAYOUT
  2
AcDbLayout
  3
ObjectDBX Classes
 90
0
 91
0
280
0
281
0
  0
ENDSEC
  0
SECTION
  2
TABLES
  0
TABLE
  2
VPORT
  5
8
330
0
100
AcDbSymbolTable
 70
1
  0
VPORT
  5
23
330
8
100
AcDbSymbolTableRecord
100
AcDbViewportTableRecord
  2
*Active
 70
0
 10
0.0
 20
0.0
 11
1.0
 21
1.0
 12
0.0
 22
0.0
 13
0.0
 23
0.0
 14
0.5
 24
0.5
 15
0.5
 25
0.5
 16
0.0
 26
0.0
 36
1.0
 17
0.0
 27
0.0
 37
0.0
 40
1000.0
 41
1.34
 42
50.0
 43
0.0
 44
0.0
 50
0.0
 51
0.0
 71
0
 72
1000
 73
1
 74
3
 75
0
 76
0
 77
0
 78
0
281
0
 65
0
146
0.0
  0
ENDTAB
  0
TABLE
  2
LTYPE
  5
2
330
0
100
AcDbSymbolTable
 70
3
  0
LTYPE
  5
24
330
2
100
AcDbSymbolTableRecord
100
AcDbLinetypeTableRecord
  2
ByBlock
 70
0
  3

 72
65
 73
0
 40
0.0
  0
LTYPE
  5
25
330
2
100
AcDbSymbolTableRecord
100
AcDbLinetypeTableRecord
  2
ByLayer
 70
0
  3

 72
65
 73
0
 40
0.0
  0
LTYPE
  5
26
330
2
100
AcDbSymbolTableRecord
100
AcDbLinetypeTableRecord
  2
Continuous
 70
0
  3

 72
65
 73
0
 40
0.0
  0
ENDTAB
  0
TABLE
  2
LAYER
  5
1
330
0
100
AcDbSymbolTable
 70
3
  0
LAYER
  5
27
330
1
100
AcDbSymbolTableRecord
100
AcDbLayerTableRecord
  2
0
 70
0
 62
7
  6
Continuous
370
-3
390
13
347
21
  0
LAYER
  5
28
330
1
100
AcDbSymbolTableRecord
100
AcDbLayerTableRecord
  2
Defpoints
 70
0
 62
7
  6
Continuous
290
0
370
-3
390
13
347
21
  0
LAYER
  5
2F
330
1
100
AcDbSymbolTableRecord
100
AcDbLayerTableRecord
  2
K
 70
0
 62
7
  6
Continuous
370
-3
390
13
347
21
  0
ENDTAB
  0
TABLE
  2
STYLE
  5
5
330
0
100
AcDbSymbolTable
 70
1
  0
STYLE
  5
29
330
5
100
AcDbSymbolTableRecord
100
AcDbTextStyleTableRecord
  2
Standard
 70
0
 40
0.0
 41
1.0
 50
0.0
 71
0
 42
2.5
  3
txt
  4

  0
ENDTAB
  0
TABLE
  2
VIEW
  5
7
330
0
100
AcDbSymbolTable
 70
0
  0
ENDTAB
  0
TABLE
  2
UCS
  5
6
330
0
100
AcDbSymbolTable
 70
0
  0
ENDTAB
  0
TABLE
  2
APPID
  5
3
330
0
100
AcDbSymbolTable
 70
3
  0
APPID
  5
2A
330
3
100
AcDbSymbolTableRecord
100
AcDbRegAppTableRecord
  2
ACAD
 70
0
  0
APPID
  5
39
330
3
100
AcDbSymbolTableRecord
100
AcDbRegAppTableRecord
  2
HATCHBACKGROUNDCOLOR
 70
0
  0
APPID
  5
3A
330
3
100
AcDbSymbolTableRecord
100
AcDbRegAppTableRecord
  2
EZDXF
 70
0
  0
ENDTAB
  0
TABLE
  2
DIMSTYLE
  5
4
330
0
100
AcDbSymbolTable
 70
1
100
AcDbDimStyleTable
  0
DIMSTYLE
105
2B
330
4
100
AcDbSymbolTableRecord
100
AcDbDimStyleTableRecord
  2
Standard
 70
0
 40
1.0
 41
2.5
 42
0.625
 43
3.75
 44
1.25
 45
0.0
 46
0.0
 47
0.0
 48
0.0
 49
2.5
140
2.5
141
2.5
142
0.0
143
0.03937007874
144
1.0
145
0.0
146
1.0
147
0.625
148
0.0
 69
0
 70
0
 71
0
 72
0
 73
0
 74
0
 75
0
 76
0
 77
1
 78
8
 79
3
170
0
171
3
172
1
173
0
174
0
175
0
176
0
177
0
178
0
179
2
271
2
272
2
273
2
274
3
275
0
276
0
277
2
278
44
279
0
280
0
281
0
282
0
283
0
284
8
285
0
286
0
288
0
289
3
290
0
371
-2
372
-2
  0
ENDTAB
  0
TABLE
  2
BLOCK_RECORD
  5
9
330
0
100
AcDbSymbolTable
 70
2
  0
BLOCK_RECORD
  5
17
330
9
100
AcDbSymbolTableRecord
100
AcDbBlockTableRecord
  2
*Model_Space
340
1A
 70
0
280
1
281
0
  0
BLOCK_RECORD
  5
1B
330
9
100
AcDbSymbolTableRecord
100
AcDbBlockTableRecord
  2
*Paper_Space
340
1E
 70
0
280
1
281
0
  0
ENDTAB
  0
ENDSEC
  0
SECTION
  2
BLOCKS
  0
BLOCK
  5
18
330
17
100
AcDbEntity
  8
0
100
AcDbBlockBegin
  2
*Model_Space
 70
0
 10
0.0
 20
0.0
 30
0.0
  3
*Model_Space
  1

  0
ENDBLK
  5
19
330
17
100
AcDbEntity
  8
0
100
AcDbBlockEnd
  0
BLOCK
  5
1C
330
1B
100
AcDbEntity
  8
0
100
AcDbBlockBegin
  2
*Paper_Space
 70
0
 10
0.0
 20
0.0
 30
0.0
  3
*Paper_Space
  1

  0
ENDBLK
  5
1D
330
1B
100
AcDbEntity
  8
0
100
AcDbBlockEnd
  0
ENDSEC
  0
SECTION
  2
ENTITIES
  0
LWPOLYLINE
  5
30
330
17
100
AcDbEntity
  8
K
100
AcDbPolyline
 90
37
 70
1
 10
95.04087022176155
 20
94.47898038498359
 10
81.64994849294338
 20
110.97850894370576
 10
86.65367843862626
 20
121.93906025329659
 10
84.98654701966734
 20
124.67791901301462
 10
90.88071136340692
 20
137.12783757581192
 10
99.22250190427584
 20
134.38696354095504
 10
104.21046743172901
 20
142.58147833605628
 10
107.65619923493786
 20
142.58147833605628
 10
109.26666666666685
 20
139.93571041250175
 10
112.54380076506254
 20
145.3195735741516
 10
115.9691391675246
 20
145.3195735741516
 10
125.90246493072188
 20
137.16005598295388
 10
137.5493138031436
 20
159.02760896790903
 10
147.65432954571
 20
156.26075941934914
 10
162.64410792610784
 20
139.84338309796107
 10
165.88922540722572
 20
139.84338309796107
 10
170.8892254072256
 20
145.3195735741516
 10
177.54380076506249
 20
145.3195735741516
 10
180.8771340983957
 20
150.795764050342
 10
187.5438007650623
 20
150.795764050342
 10
190.9333333333334
 20
156.3642818410732
 10
193.53333333333333
 20
152.09285326964473
 10
193.53333333333333
 20
127.38424463584852
 10
182.6452328507464
 20
115.00052595510401
 10
167.54380076506226
 20
115.00052595510401
 10
162.5839236294806
 20
123.14889553498831
 10
157.64410792610795
 20
117.73862119319922
 10
154.3228659016045
 20
117.73862119319922
 10
150.97434555304835
 20
112.23748062057103
 10
144.29336265624238
 20
114.98145573890217
 10
139.32183406113307
 20
109.53644822997299
 10
120.99152851063467
 20
104.06116215644734
 10
114.28092265147028
 20
95.79273707997737
 10
110.89752749914217
 20
98.57195452653255
 10
104.3107745927745
 20
98.57195452653255
 10
99.29690177897777
 20
93.08057001618386
 10
95.04087022176155
 20
94.47898038498359
  0
LWPOLYLINE
  5
31
330
17
100
AcDbEntity
  8
K
100
AcDbPolyline
 90
15
 70
1
 10
1.6666666666669272
 20
108.22080917246014
 10
1.6666666666669272
 20
113.7034367358014
 10
0.0
 20
116.44153197389662
 10
0.0
 20
121.97380565059713
 10
2.543800765062443
 20
126.15290690748493
 10
42.65619923493769
 20
126.15290690748493
 10
45.223033860520175
 20
121.93596430831421
 10
39.312834220393
 20
115.00052595510401
 10
34.30247250085783
 20
115.00052595510401
 10
27.67659263568456
 20
109.55783892299719
 10
24.26666666666688
 20
103.9558176881823
 10
22.54380076506246
 20
106.78624024081829
 10
19.302472500857924
 20
106.78624024081829
 10
9.251020501168439
 20
98.52969038393033
 10
1.6666666666669272
 20
108.22080917246014
  0
LWPOLYLINE
  5
32
330
17
100
AcDbEntity
  8
K
100
AcDbPolyline
 90
57
 70
1
 10
2987.5432182004015
 20
16.430054454190213
 10
2985.877134098396
 20
19.16719262177069
 10
2804.2104674317293
 20
19.16719262177069
 10
2801.649597866512
 20
23.374335478913544
 10
2803.3333333333335
 20
26.140472317263573
 10
2803.3333333333335
 20
37.09285326964451
 10
2806.666666666667
 20
42.56904374583503
 10
2806.666666666667
 20
53.52142469821597
 10
2812.5438007650623
 20
63.17671643129441
 10
2817.5438007650628
 20
63.17671643129441
 10
2822.5438007650628
 20
71.39100214558015
 10
2825.8884516604635
 20
71.39100214558015
 10
2841.6506256618327
 20
89.10863382381051
 10
2838.3245907332675
 20
97.30493418348762
 10
2852.5867027975405
 20
129.0051748641613
 10
2854.3228659016045
 20
126.15290690748493
 10
2865.989532568271
 20
126.15290690748493
 10
2867.656199234938
 20
123.41481166938961
 10
2887.656199234938
 20
123.41481166938961
 10
2889.3228659016045
 20
120.67671643129441
 10
2897.656199234938
 20
120.67671643129441
 10
2901.001687032858
 20
115.18055790613968
 10
2907.658731177067
 20
112.44641477548257
 10
2912.644107926108
 20
106.98624024081826
 10
2920.969139167525
 20
106.98624024081826
 10
2930.9691391675246
 20
98.77195452653254
 10
2937.644107926108
 20
98.77195452653254
 10
2942.644107926108
 20
93.29576405034202
 10
2949.302472500858
 20
93.29576405034202
 10
2959.302472500858
 20
85.08147833605628
 10
2964.2104674317293
 20
85.08147833605628
 10
2969.1900740309825
 20
93.26226060625842
 10
2975.8536437253697
 20
98.73590714093339
 10
2984.2052619644414
 20
115.200525955104
 10
3000.9895325682714
 20
115.200525955104
 10
3002.656199234938
 20
112.46243071700867
 10
3010.8771340983963
 20
112.46243071700867
 10
3012.5438007650628
 20
115.200525955104
 10
3019.210467431729
 20
115.200525955104
 10
3022.5337528564137
 20
120.66020915280062
 10
3030.8670861897476
 20
123.39830439089583
 10
3032.54529717224
 20
126.15536529070548
 10
3095.8786305055733
 20
123.41727005261016
 10
3099.266666666667
 20
128.9833294601208
 10
3100.9895325682714
 20
126.15290690748493
 10
3107.656199234938
 20
126.15290690748493
 10
3109.322865901605
 20
123.41481166938961
 10
3125.963249781955
 20
123.41481166938961
 10
3134.3046078279995
 20
117.93334781056008
 10
3149.328759281526
 20
115.19084397380541
 10
3151.866666666667
 20
111.02142469821618
 10
3151.866666666667
 20
72.68809136488285
 10
3153.5420421524004
 20
69.93568878117718
 10
3150.2000000000003
 20
58.95469313757562
 10
3150.2000000000003
 20
17.870103402468086
 10
3147.6556110408446
 20
13.690035826712354
 10
2987.5432182004015
 20
16.430054454190213
  0
LWPOLYLINE
  5
33
330
17
100
AcDbEntity
  8
K
100
AcDbPolyline
 90
41
 70
1
 10
3043.353766040574
 20
488.78008594976905
 10
3027.5352863030116
 20
528.445221231552
 10
3002.659823475585
 20
525.7207657790243
 10
3000.9895325682714
 20
522.9767164312944
 10
2972.656199234938
 20
522.9767164312944
 10
2970.9895325682714
 20
520.2386211931992
 10
2954.2170984404356
 20
520.2386211931992
 10
2945.8837651071026
 20
531.1910021455801
 10
2940.877134098396
 20
531.1910021455801
 10
2937.5438007650623
 20
536.6671926217706
 10
2934.2104674317293
 20
536.6671926217706
 10
2929.982931199845
 20
543.6124307170087
 10
2932.5438007650628
 20
547.8195735741516
 10
3062.5438007650623
 20
547.8195735741516
 10
3064.991291180933
 20
551.840450685939
 10
3063.324624514267
 20
557.3166411621294
 10
3065.877134098396
 20
561.5100497646278
 10
3094.336605424572
 20
561.5100497646278
 10
3099.336605424572
 20
547.8195735741516
 10
3147.646167553726
 20
547.8195735741516
 10
3153.5333333333338
 20
540.9111647511434
 10
3153.5333333333338
 20
513.4653414977062
 10
3151.8753754857344
 20
510.7415536052213
 10
3153.5420421524004
 20
505.2653631290308
 10
3150.949409703853
 20
501.0060383921312
 10
3145.8892254072257
 20
506.54814500272306
 10
3140.8771340983963
 20
506.54814500272306
 10
3137.5316463004756
 20
512.0443035278778
 10
3124.198312967142
 20
517.5204940040683
 10
3120.867086189747
 20
522.9932237097881
 10
3112.533752856414
 20
525.7313189478836
 10
3110.9333333333334
 20
528.3605795929442
 10
3107.656199234938
 20
522.9767164312944
 10
3104.3228659016045
 20
522.9767164312944
 10
3096.009925969018
 20
509.3197436849018
 10
3089.3101163976075
 20
503.8163286798142
 10
3074.3031152230838
 20
501.076955449544
 10
3060.9616644494995
 20
492.8576688122468
 10
3050.977441259441
 20
492.8576688122468
 10
3045.954209226717
 20
487.35603372878643
 10
3043.353766040574
 20
488.78008594976905
  0
LWPOLYLINE
  5
34
330
17
100
AcDbEntity
  8
K
100
AcDbPolyline
 90
13
 70
1
 10
2823.353162796174
 20
209.4713705845357
 10
2816.6580356507716
 20
236.96921421743698
 10
2824.1946943053745
 20
246.59938916498504
 10
2827.564194165809
 20
249.36719262177064
 10
2849.2104674317293
 20
249.36719262177064
 10
2850.8771340983963
 20
252.10528785986585
 10
2865.989532568271
 20
252.10528785986585
 10
2868.5333333333338
 20
247.9261866029777
 10
2868.5333333333338
 20
215.01296054532548
 10
2865.989532568271
 20
210.83385928843734
 10
2840.9895325682714
 20
210.83385928843734
 10
2839.3198401769755
 20
208.09079321702285
 10
2823.353162796174
 20
209.4713705845357
  0
LWPOLYLINE
  5
35
330
17
100
AcDbEntity
  8
K
100
AcDbPolyline
 90
25
 70
1
 10
3500.0023395511553
 20
431.32524364417003
 10
3498.3366776641305
 20
445.0074662875877
 10
3493.338059422597
 20
453.2194819701078
 10
3490.0033131645064
 20
472.3942729541263
 10
3486.669576679518
 20
480.6095521492767
 10
3484.9956652651927
 20
491.609541443413
 10
3487.5438007650628
 20
495.795764050342
 10
3587.656199234939
 20
495.795764050342
 10
3590.2132345916266
 20
491.5949202500688
 10
3579.340826485947
 20
468.2371643746823
 10
3572.668353699525
 20
465.4966844802587
 10
3569.3228659016054
 20
460.00052595510397
 10
3565.9895325682714
 20
460.00052595510397
 10
3562.6561992349384
 20
454.5243354789135
 10
3557.6561992349384
 20
454.5243354789135
 10
3554.3228659016045
 20
449.04814500272306
 10
3550.9895325682714
 20
449.04814500272306
 10
3545.989532568272
 20
440.83385928843734
 10
3540.977441259442
 20
440.83385928843734
 10
3530.9774412594415
 20
429.8814783360564
 10
3525.9895325682714
 20
429.8814783360564
 10
3522.6765926356848
 20
424.43879130394924
 10
3512.645497205333
 20
416.1989629147317
 10
3506.706188842388
 20
414.8050436050611
 10
3500.0023395511553
 20
431.32524364417003
  0
LWPOLYLINE
  5
36
330
17
100
AcDbEntity
  8
K
100
AcDbPolyline
 90
42
 70
1
 10
3231.6666666666674
 20
6.903920641625594
 10
3231.6666666666674
 20
53.52474466953772
 10
3245.0000000000005
 20
72.69141133620438
 10
3245.0000000000005
 20
78.1081986405634
 10
3243.3162645331786
 20
80.87433547891354
 10
3245.8696971269633
 20
85.0692604544161
 10
3257.53636379363
 20
87.80735569251141
 10
3259.2104674317293
 20
90.5576688122468
 10
3279.2104674317297
 20
90.5576688122468
 10
3280.8771340983963
 20
93.29576405034202
 10
3289.2104674317297
 20
93.29576405034202
 10
3290.8771340983963
 20
96.03385928843733
 10
3300.977441259442
 20
96.03385928843733
 10
3315.9774412594415
 20
79.60528785986587
 10
3327.5641941658096
 20
79.60528785986587
 10
3334.2308608324756
 20
85.08147833605628
 10
3342.555892073893
 20
85.08147833605628
 10
3347.5558920738927
 20
90.5576688122468
 10
3354.2104674317293
 20
90.5576688122468
 10
3355.933333333334
 20
93.38809136488257
 10
3361.8625120245765
 20
83.64729780069835
 10
3363.5300396194402
 20
72.68925932016535
 10
3374.339043002642
 20
49.46771908482539
 10
3382.6662471435866
 20
46.73163772422928
 10
3384.3228659016045
 20
44.010049764627745
 10
3394.3024725008586
 20
44.010049764627745
 10
3400.969139167525
 20
38.533859288437334
 10
3410.9650059100654
 20
38.533859288437334
 10
3422.631672576732
 20
30.319573574151605
 10
3469.2104674317293
 20
30.319573574151605
 10
3474.2104674317297
 20
38.533859288437334
 10
3494.2104674317297
 20
38.533859288437334
 10
3500.9078024547725
 20
49.53662396915082
 10
3507.6454972053325
 20
44.002088995476306
 10
3519.330302873038
 20
41.25973664489236
 10
3520.9895325682714
 20
38.533859288437334
 10
3529.3128342203936
 20
38.533859288437334
 10
3535.2025193679897
 20
31.622494064217243
 10
3533.531456738638
 20
6.914639473086903
 10
3529.3225457550197
 20
0.0
 10
3235.89194526087
 20
2.7390031701970408
 10
3231.6666666666674
 20
6.903920641625594
  0
LWPOLYLINE
  5
37
330
17
100
AcDbEntity
  8
K
100
AcDbPolyline
 90
33
 70
1
 10
3347.5558920738927
 20
454.5243354789135
 10
3339.230860832476
 20
454.5243354789135
 10
3332.564194165809
 20
460.00052595510397
 10
3324.222558740559
 20
460.00052595510397
 10
3319.2225587405596
 20
465.4767164312944
 10
3312.57008355138
 20
465.4767164312944
 10
3304.236750218047
 20
470.95290690748493
 10
3272.6561992349384
 20
470.95290690748493
 10
3270.9895325682714
 20
468.21481166938975
 10
3259.3228659016045
 20
468.21481166938975
 10
3257.6561992349384
 20
465.4767164312944
 10
3245.86776867069
 20
465.4767164312944
 10
3241.666666666667
 20
475.139251040548
 10
3241.666666666667
 20
480.6213598042418
 10
3238.3246245142664
 20
491.6023554478436
 10
3240.8771340983963
 20
495.795764050342
 10
3257.5438007650628
 20
495.795764050342
 10
3259.266666666667
 20
498.6261866029777
 10
3260.9895325682714
 20
495.795764050342
 10
3459.322865901605
 20
495.795764050342
 10
3461.8837354668226
 20
491.58862119319923
 10
3456.0132388722022
 20
481.94423393060856
 10
3432.643029066088
 20
457.26243071700867
 10
3427.656199234938
 20
457.26243071700867
 10
3425.9895325682714
 20
454.5243354789135
 10
3405.9895325682714
 20
454.5243354789135
 10
3404.322865901605
 20
451.78624024081824
 10
3395.9895325682714
 20
451.78624024081824
 10
3394.322865901605
 20
449.04814500272306
 10
3374.322865901605
 20
449.04814500272306
 10
3372.6513521045367
 20
446.30208662182537
 10
3352.5505642930602
 20
449.05398019125374
 10
3347.5558920738927
 20
454.5243354789135
  0
LWPOLYLINE
  5
38
330
17
100
AcDbEntity
  8
K
100
AcDbPolyline
 90
7
 70
1
 10
4711.662810573682
 20
9.603844015053653
 10
4712.504182701826
 20
27.573148751851907
 10
4742.653001694796
 20
30.324826675813487
 10
4745.21238703878
 20
26.120122182124227
 10
4741.018404120099
 20
16.473961469158695
 10
4730.96849002937
 20
5.466912703120497
 10
4711.662810573682
 20
9.603844015053653
  0
ENDSEC
  0
SECTION
  2
OBJECTS
  0
DICTIONARY
  5
A
330
0
100
AcDbDictionary
281
1
  3
ACAD_COLOR
350
B
  3
ACAD_GROUP
350
C
  3
ACAD_LAYOUT
350
D
  3
ACAD_MATERIAL
350
E
  3
ACAD_MLEADERSTYLE
350
F
  3
ACAD_MLINESTYLE
350
10
  3
ACAD_PLOTSETTINGS
350
11
  3
ACAD_PLOTSTYLENAME
350
12
  3
ACAD_SCALELIST
350
14
  3
ACAD_TABLESTYLE
350
15
  3
ACAD_VISUALSTYLE
350
16
  3
EZDXF_META
350
2D
  0
DICTIONARY
  5
B
330
A
100
AcDbDictionary
281
1
  0
DICTIONARY
  5
C
330
A
100
AcDbDictionary
281
1
  0
DICTIONARY
  5
D
330
A
100
AcDbDictionary
281
1
  3
Model
350
1A
  3
Layout1
350
1E
  0
DICTIONARY
  5
E
330
A
100
AcDbDictionary
281
1
  3
ByBlock
350
1F
  3
ByLayer
350
20
  3
Global
350
21
  0
DICTIONARY
  5
F
330
A
100
AcDbDictionary
281
1
  3
Standard
350
2C
  0
DICTIONARY
  5
10
330
A
100
AcDbDictionary
281
1
  3
Standard
350
22
  0
DICTIONARY
  5
11
330
A
100
AcDbDictionary
281
1
  0
ACDBDICTIONARYWDFLT
  5
12
330
A
100
AcDbDictionary
281
1
  3
Normal
350
13
100
AcDbDictionaryWithDefault
340
13
  0
ACDBPLACEHOLDER
  5
13
330
12
  0
DICTIONARY
  5
14
330
A
100
AcDbDictionary
281
1
  0
DICTIONARY
  5
15
330
A
100
AcDbDictionary
281
1
  0
DICTIONARY
  5
16
330
A
100
AcDbDictionary
281
1
  0
LAYOUT
  5
1A
330
D
100
AcDbPlotSettings
  1

  4
A3
  6

 40
7.5
 41
20.0
 42
7.5
 43
20.0
 44
420.0
 45
297.0
 46
0.0
 47
0.0
 48
0.0
 49
0.0
140
0.0
141
0.0
142
1.0
143
1.0
 70
1024
 72
1
 73
0
 74
5
  7

 75
16
 76
0
 77
2
 78
300
147
1.0
148
0.0
149
0.0
100
AcDbLayout
  1
Model
 70
1
 71
0
 10
0.0
 20
0.0
 11
420.0
 21
297.0
 12
0.0
 22
0.0
 32
0.0
 14
1e+20
 24
1e+20
 34
1e+20
 15
-1e+20
 25
-1e+20
 35
-1e+20
146
0.0
 13
0.0
 23
0.0
 33
0.0
 16
1.0
 26
0.0
 36
0.0
 17
0.0
 27
1.0
 37
0.0
 76
1
330
17
  0
LAYOUT
  5
1E
330
D
100
AcDbPlotSettings
  1

  4
A3
  6

 40
7.5
 41
20.0
 42
7.5
 43
20.0
 44
420.0
 45
297.0
 46
0.0
 47
0.0
 48
0.0
 49
0.0
140
0.0
141
0.0
142
1.0
143
1.0
 70
0
 72
1
 73
0
 74
5
  7

 75
16
 76
0
 77
2
 78
300
147
1.0
148
0.0
149
0.0
100
AcDbLayout
  1
Layout1
 70
1
 71
1
 10
0.0
 20
0.0
 11
420.0
 21
297.0
 12
0.0
 22
0.0
 32
0.0
 14
1e+20
 24
1e+20
 34
1e+20
 15
-1e+20
 25
-1e+20
 35
-1e+20
146
0.0
 13
0.0
 23
0.0
 33
0.0
 16
1.0
 26
0.0
 36
0.0
 17
0.0
 27
1.0
 37
0.0
 76
1
330
1B
  0
MATERIAL
  5
1F
102
{ACAD_REACTORS
330
E
102
}
330
E
100
AcDbMaterial
  1
ByBlock
  2

 70
0
 40
1.0
 71
1
 41
1.0
 91
-1023410177
 42
1.0
 72
1
  3

 73
1
 74
1
 75
1
 44
0.5
 73
0
 45
1.0
 46
1.0
 77
1
  4

 78
1
 79
1
170
1
 48
1.0
171
1
  6

172
1
173
1
174
1
140
1.0
141
1.0
175
1
  7

176
1
177
1
178
1
143
1.0
179
1
  8

270
1
271
1
272
1
145
1.0
146
1.0
273
1
  9

274
1
275
1
276
1
 42
1.0
 72
1
  3

 73
1
 74
1
 75
1
 94
63
  0
MATERIAL
  5
20
102
{ACAD_REACTORS
330
E
102
}
330
E
100
AcDbMaterial
  1
ByLayer
  2

 70
0
 40
1.0
 71
1
 41
1.0
 91
-1023410177
 42
1.0
 72
1
  3

 73
1
 74
1
 75
1
 44
0.5
 73
0
 45
1.0
 46
1.0
 77
1
  4

 78
1
 79
1
170
1
 48
1.0
171
1
  6

172
1
173
1
174
1
140
1.0
141
1.0
175
1
  7

176
1
177
1
178
1
143
1.0
179
1
  8

270
1
271
1
272
1
145
1.0
146
1.0
273
1
  9

274
1
275
1
276
1
 42
1.0
 72
1
  3

 73
1
 74
1
 75
1
 94
63
  0
MATERIAL
  5
21
102
{ACAD_REACTORS
330
E
102
}
330
E
100
AcDbMaterial
  1
Global
  2

 70
0
 40
1.0
 71
1
 41
1.0
 91
-1023410177
 42
1.0
 72
1
  3

 73
1
 74
1
 75
1
 44
0.5
 73
0
 45
1.0
 46
1.0
 77
1
  4

 78
1
 79
1
170
1
 48
1.0
171
1
  6

172
1
173
1
174
1
140
1.0
141
1.0
175
1
  7

176
1
177
1
178
1
143
1.0
179
1
  8

270
1
271
1
272
1
145
1.0
146
1.0
273
1
  9

274
1
275
1
276
1
 42
1.0
 72
1
  3

 73
1
 74
1
 75
1
 94
63
  0
MLINESTYLE
  5
22
102
{ACAD_REACTORS
330
10
102
}
330
10
100
AcDbMlineStyle
  2
Standard
 70
0
  3

 62
256
 51
90.0
 52
90.0
 71
2
 49
0.5
 62
256
  6
BYLAYER
 49
-0.5
 62
256
  6
BYLAYER
  0
MLEADERSTYLE
  5
2C
102
{ACAD_REACTORS
330
F
102
}
330
F
100
AcDbMLeaderStyle
179
2
170
2
171
1
172
0
 90
2
 40
0.0
 41
0.0
173
1
 91
-1056964608
 92
-2
290
1
 42
2.0
291
1
 43
8.0
  3
Standard
 44
4.0
300

342
29
174
1
175
1
176
0
178
1
 93
-1056964608
 45
4.0
292
0
297
0
 46
4.0
 94
-1056964608
 47
1.0
 49
1.0
140
1.0
294
1
141
0.0
177
0
142
1.0
295
0
296
0
143
3.75
271
0
272
9
273
9
  0
DICTIONARY
  5
2D
330
A
100
AcDbDictionary
280
1
281
1
  3
CREATED_BY_EZDXF
350
2E
  3
WRITTEN_BY_EZDXF
350
3B
  0
DICTIONARYVAR
  5
2E
330
2D
100
DictionaryVariables
280
0
  1
1.4.4 @ 2026-07-21T08:39:18.288837+00:00
  0
DICTIONARYVAR
  5
3B
330
2D
100
DictionaryVariables
280
0
  1
1.4.4 @ 2026-07-21T08:39:18.301445+00:00
  0
ENDSEC
  0
EOF
