  0
SECTION
  2
HEADER
  9
$ACADVER
  1
AC1027
  9
$ACADMAINTVER
 70
105
  9
$DWGCODEPAGE
  3
ANSI_1252
  9
$LASTSAVEDBY
  1
ezdxf
  9
$REQUIREDVERSIONS
160
0
  9
$INSBASE
 10
0.0
 20
0.0
 30
0.0
  9
$EXTMIN
 10
1e+20
 20
1e+20
 30
1e+20
  9
$EXTMAX
 10
-1e+20
 20
-1e+20
 30
-1e+20
  9
$LIMMIN
 10
0.0
 20
0.0
  9
$LIMMAX
 10
420.0
 20
297.0
  9
$ORTHOMODE
 70
0
  9
$REGENMODE
 70
1
  9
$FILLMODE
 70
1
  9
$QTEXTMODE
 70
0
  9
$MIRRTEXT
 70
1
  9
$LTSCALE
 40
1.0
  9
$ATTMODE
 70
1
  9
$TEXTSIZE
 40
2.5
  9
$TRACEWID
 40
1.0
  9
$TEXTSTYLE
  7
Standard
  9
$CLAYER
  8
0
  9
$CELTYPE
  6
ByLayer
  9
$CECOLOR
 62
256
  9
$CELTSCALE
 40
1.0
  9
$DISPSILH
 70
0
  9
$DIMSCALE
 40
1.0
  9
$DIMASZ
 40
2.5
  9
$DIMEXO
 40
0.625
  9
$DIMDLI
 40
3.75
  9
$DIMRND
 40
0.0
  9
$DIMDLE
 40
0.0
  9
$DIMEXE
 40
1.25
  9
$DIMTP
 40
0.0
  9
$DIMTM
 40
0.0
  9
$DIMTXT
 40
2.5
  9
$DIMCEN
 40
2.5
  9
$DIMTSZ
 40
0.0
  9
$DIMTOL
 70
0
  9
$DIMLIM
 70
0
  9
$DIMTIH
 70
0
  9
$DIMTOH
 70
0
  9
$DIMSE1
 70
0
  9
$DIMSE2
 70
0
  9
$DIMTAD
 70
1
  9
$DIMZIN
 70
8
  9
$DIMBLK
  1

  9
$DIMASO
 70
1
  9
$DIMSHO
 70
1
  9
$DIMPOST
  1

  9
$DIMAPOST
  1

  9
$DIMALT
 70
0
  9
$DIMALTD
 70
3
  9
$DIMALTF
 40
0.03937007874
  9
$DIMLFAC
 40
1.0
  9
$DIMTOFL
 70
1
  9
$DIMTVP
 40
0.0
  9
$DIMTIX
 70
0
  9
$DIMSOXD
 70
0
  9
$DIMSAH
 70
0
  9
$DIMBLK1
  1

  9
$DIMBLK2
  1

  9
$DIMSTYLE
  2
ISO-25
  9
$DIMCLRD
 70
0
  9
$DIMCLRE
 70
0
  9
$DIMCLRT
 70
0
  9
$DIMTFAC
 40
1.0
  9
$DIMGAP
 40
0.625
  9
$DIMJUST
 70
0
  9
$DIMSD1
 70
0
  9
$DIMSD2
 70
0
  9
$DIMTOLJ
 70
0
  9
$DIMTZIN
 70
8
  9
$DIMALTZ
 70
0
  9
$DIMALTTZ
 70
0
  9
$DIMUPT
 70
0
  9
$DIMDEC
 70
2
  9
$DIMTDEC
 70
2
  9
$DIMALTU
 70
2
  9
$DIMALTTD
 70
3
  9
$DIMTXSTY
  7
Standard
  9
$DIMAUNIT
 70
0
  9
$DIMADEC
 70
0
  9
$DIMALTRND
 40
0.0
  9
$DIMAZIN
 70
0
  9
$DIMDSEP
 70
44
  9
$DIMATFIT
 70
3
  9
$DIMFRAC
 70
0
  9
$DIMLDRBLK
  1

  9
$DIMLUNIT
 70
2
  9
$DIMLWD
 70
-2
  9
$DIMLWE
 70
-2
  9
$DIMTMOVE
 70
0
  9
$DIMFXL
 40
1.0
  9
$DIMFXLON
 70
0
  9
$DIMJOGANG
 40
0.785398163397
  9
$DIMTFILL
 70
0
  9
$DIMTFILLCLR
 70
0
  9
$DIMARCSYM
 70
0
  9
$DIMLTYPE
  6

  9
$DIMLTEX1
  6

  9
$DIMLTEX2
  6

  9
$DIMTXTDIRECTION
 70
0
  9
$LUNITS
 70
2
  9
$LUPREC
 70
4
  9
$SKETCHINC
 40
1.0
  9
$FILLETRAD
 40
10.0
  9
$AUNITS
 70
0
  9
$AUPREC
 70
2
  9
$MENU
  1
.
  9
$ELEVATION
 40
0.0
  9
$PELEVATION
 40
0.0
  9
$THICKNESS
 40
0.0
  9
$LIMCHECK
 70
0
  9
$CHAMFERA
 40
0.0
  9
$CHAMFERB
 40
0.0
  9
$CHAMFERC
 40
0.0
  9
$CHAMFERD
 40
0.0
  9
$SKPOLY
 70
0
  9
$TDCREATE
 40
2461243.485625
  9
$TDUCREATE
 40
2458532.153996898
  9
$TDUPDATE
 40
2461243.485625
  9
$TDUUPDATE
 40
2458532.1544311
  9
$TDINDWG
 40
0.0
  9
$TDUSRTIMER
 40
0.0
  9
$USRTIMER
 70
1
  9
$ANGBASE
 50
0.0
  9
$ANGDIR
 70
0
  9
$PDMODE
 70
0
  9
$PDSIZE
 40
0.0
  9
$PLINEWID
 40
0.0
  9
$SPLFRAME
 70
0
  9
$SPLINETYPE
 70
6
  9
$SPLINESEGS
 70
8
  9
$HANDSEED
  5
3C
  9
$SURFTAB1
 70
6
  9
$SURFTAB2
 70
6
  9
$SURFTYPE
 70
6
  9
$SURFU
 70
6
  9
$SURFV
 70
6
  9
$UCSBASE
  2

  9
$UCSNAME
  2

  9
$UCSORG
 10
0.0
 20
0.0
 30
0.0
  9
$UCSXDIR
 10
1.0
 20
0.0
 30
0.0
  9
$UCSYDIR
 10
0.0
 20
1.0
 30
0.0
  9
$UCSORTHOREF
  2

  9
$UCSORTHOVIEW
 70
0
  9
$UCSORGTOP
 10
0.0
 20
0.0
 30
0.0
  9
$UCSORGBOTTOM
 10
0.0
 20
0.0
 30
0.0
  9
$UCSORGLEFT
 10
0.0
 20
0.0
 30
0.0
  9
$UCSORGRIGHT
 10
0.0
 20
0.0
 30
0.0
  9
$UCSORGFRONT
 10
0.0
 20
0.0
 30
0.0
  9
$UCSORGBACK
 10
0.0
 20
0.0
 30
0.0
  9
$PUCSBASE
  2

  9
$PUCSNAME
  2

  9
$PUCSORG
 10
0.0
 20
0.0
 30
0.0
  9
$PUCSXDIR
 10
1.0
 20
0.0
 30
0.0
  9
$PUCSYDIR
 10
0.0
 20
1.0
 30
0.0
  9
$PUCSORTHOREF
  2

  9
$PUCSORTHOVIEW
 70
0
  9
$PUCSORGTOP
 10
0.0
 20
0.0
 30
0.0
  9
$PUCSORGBOTTOM
 10
0.0
 20
0.0
 30
0.0
  9
$PUCSORGLEFT
 10
0.0
 20
0.0
 30
0.0
  9
$PUCSORGRIGHT
 10
0.0
 20
0.0
 30
0.0
  9
$PUCSORGFRONT
 10
0.0
 20
0.0
 30
0.0
  9
$PUCSORGBACK
 10
0.0
 20
0.0
 30
0.0
  9
$USERI1
 70
0
  9
$USERI2
 70
0
  9
$USERI3
 70
0
  9
$USERI4
 70
0
  9
$USERI5
 70
0
  9
$USERR1
 40
0.0
  9
$USERR2
 40
0.0
  9
$USERR3
 40
0.0
  9
$USERR4
 40
0.0
  9
$USERR5
 40
0.0
  9
$WORLDVIEW
 70
1
  9
$SHADEDGE
 70
3
  9
$SHADEDIF
 70
70
  9
$TILEMODE
 70
1
  9
$MAXACTVP
 70
64
  9
$PINSBASE
 10
0.0
 20
0.0
 30
0.0
  9
$PLIMCHECK
 70
0
  9
$PEXTMIN
 10
1e+20
 20
1e+20
 30
1e+20
  9
$PEXTMAX
 10
-1e+20
 20
-1e+20
 30
-1e+20
  9
$PLIMMIN
 10
0.0
 20
0.0
  9
$PLIMMAX
 10
420.0
 20
297.0
  9
$UNITMODE
 70
0
  9
$VISRETAIN
 70
1
  9
$PLINEGEN
 70
0
  9
$PSLTSCALE
 70
1
  9
$TREEDEPTH
 70
3020
  9
$CMLSTYLE
  2
Standard
  9
$CMLJUST
 70
0
  9
$CMLSCALE
 40
20.0
  9
$PROXYGRAPHICS
 70
1
  9
$MEASUREMENT
 70
1
  9
$CELWEIGHT
370
-1
  9
$ENDCAPS
280
0
  9
$JOINSTYLE
280
0
  9
$LWDISPLAY
290
0
  9
$INSUNITS
 70
4
  9
$HYPERLINKBASE
  1

  9
$STYLESHEET
  1

  9
$XEDIT
290
1
  9
$CEPSNTYPE
380
0
  9
$PSTYLEMODE
290
1
  9
$FINGERPRINTGUID
  2
{292DA57A-7EA9-40F4-B5AD-168EFAF8AFCA}
  9
$VERSIONGUID
  2
{1B55204A-E850-4CD8-9CAF-A60CE9E59D3E}
  9
$EXTNAMES
290
1
  9
$PSVPSCALE
 40
0.0
  9
$OLESTARTUP
290
0
  9
$SORTENTS
280
127
  9
$INDEXCTL
280
0
  9
$HIDETEXT
280
1
  9
$XCLIPFRAME
280
1
  9
$HALOGAP
280
0
  9
$OBSCOLOR
 70
257
  9
$OBSLTYPE
280
0
  9
$INTERSECTIONDISPLAY
280
0
  9
$INTERSECTIONCOLOR
 70
257
  9
$DIMASSOC
280
2
  9
$PROJECTNAME
  1

  9
$CAMERADISPLAY
290
0
  9
$LENSLENGTH
 40
50.0
  9
$CAMERAHEIGHT
 40
0.0
  9
$STEPSPERSEC
 40
24.0
  9
$STEPSIZE
 40
100.0
  9
$3DDWFPREC
 40
2.0
  9
$PSOLWIDTH
 40
0.005
  9
$PSOLHEIGHT
 40
0.08
  9
$LOFTANG1
 40
1.570796326795
  9
$LOFTANG2
 40
1.570796326795
  9
$LOFTMAG1
 40
0.0
  9
$LOFTMAG2
 40
0.0
  9
$LOFTPARAM
 70
7
  9
$LOFTNORMALS
280
1
  9
$LATITUDE
 40
37.795
  9
$LONGITUDE
 40
-122.394
  9
$NORTHDIRECTION
 40
0.0
  9
$TIMEZONE
 70
-8000
  9
$LIGHTGLYPHDISPLAY
280
1
  9
$TILEMODELIGHTSYNCH
280
1
  9
$CMATERIAL
347
20
  9
$SOLIDHIST
280
0
  9
$SHOWHIST
280
1
  9
$DWFFRAME
280
2
  9
$DGNFRAME
280
2
  9
$REALWORLDSCALE
290
1
  9
$INTERFERECOLOR
 62
256
  9
$CSHADOW
280
0
  9
$SHADOWPLANELOCATION
 40
0.0
  0
ENDSEC
  0
SECTION
  2
CLASSES
  0
CLASS
  1
ACDBDICTIONARYWDFLT
  2
AcDbDictionaryWithDefault
  3
ObjectDBX Classes
 90
0
 91
0
280
0
281
0
  0
CLASS
  1
SUN
  2
AcDbSun
  3
SCENEOE
 90
1153
 91
0
280
0
281
0
  0
CLASS
  1
VISUALSTYLE
  2
AcDbVisualStyle
  3
ObjectDBX Classes
 90
4095
 91
0
280
0
281
0
  0
CLASS
  1
MATERIAL
  2
AcDbMaterial
  3
ObjectDBX Classes
 90
1153
 91
0
280
0
281
0
  0
CLASS
  1
SCALE
  2
AcDbScale
  3
ObjectDBX Classes
 90
1153
 91
0
280
0
281
0
  0
CLASS
  1
TABLESTYLE
  2
AcDbTableStyle
  3
ObjectDBX Classes
 90
4095
 91
0
280
0
281
0
  0
CLASS
  1
MLEADERSTYLE
  2
AcDbMLeaderStyle
  3
ACDB_MLEADERSTYLE_CLASS
 90
4095
 91
0
280
0
281
0
  0
CLASS
  1
DICTIONARYVAR
  2
AcDbDictionaryVar
  3
ObjectDBX Classes
 90
0
 91
0
280
0
281
0
  0
CLASS
  1
CELLSTYLEMAP
  2
AcDbCellStyleMap
  3
ObjectDBX Classes
 90
1152
 91
0
280
0
281
0
  0
CLASS
  1
MENTALRAYRENDERSETTINGS
  2
AcDbMentalRayRenderSettings
  3
SCENEOE
 90
1024
 91
0
280
0
281
0
  0
CLASS
  1
ACDBDETAILVIEWSTYLE
  2
AcDbDetailViewStyle
  3
ObjectDBX Classes
 90
1025
 91
0
280
0
281
0
  0
CLASS
  1
ACDBSECTIONVIEWSTYLE
  2
AcDbSectionViewStyle
  3
ObjectDBX Classes
 90
1025
 91
0
280
0
281
0
  0
CLASS
  1
RASTERVARIABLES
  2
AcDbRasterVariables
  3
ISM
 90
0
 91
0
280
0
281
0
  0
CLASS
  1
ACDBPLACEHOLDER
  2
AcDbPlaceHolder
  3
ObjectDBX Classes
 90
0
 91
0
280
0
281
0
  0
CLASS
  1
LAYOUT
  2
AcDbLayout
  3
ObjectDBX Classes
 90
0
 91
0
280
0
281
0
  0
ENDSEC
  0
SECTION
  2
TABLES
  0
TABLE
  2
VPORT
  5
8
330
0
100
AcDbSymbolTable
 70
1
  0
VPORT
  5
23
330
8
100
AcDbSymbolTableRecord
100
AcDbViewportTableRecord
  2
*Active
 70
0
 10
0.0
 20
0.0
 11
1.0
 21
1.0
 12
0.0
 22
0.0
 13
0.0
 23
0.0
 14
0.5
 24
0.5
 15
0.5
 25
0.5
 16
0.0
 26
0.0
 36
1.0
 17
0.0
 27
0.0
 37
0.0
 40
1000.0
 41
1.34
 42
50.0
 43
0.0
 44
0.0
 50
0.0
 51
0.0
 71
0
 72
1000
 73
1
 74
3
 75
0
 76
0
 77
0
 78
0
281
0
 65
0
146
0.0
  0
ENDTAB
  0
TABLE
  2
LTYPE
  5
2
330
0
100
AcDbSymbolTable
 70
3
  0
LTYPE
  5
24
330
2
100
AcDbSymbolTableRecord
100
AcDbLinetypeTableRecord
  2
ByBlock
 70
0
  3

 72
65
 73
0
 40
0.0
  0
LTYPE
  5
25
330
2
100
AcDbSymbolTableRecord
100
AcDbLinetypeTableRecord
  2
ByLayer
 70
0
  3

 72
65
 73
0
 40
0.0
  0
LTYPE
  5
26
330
2
100
AcDbSymbolTableRecord
100
AcDbLinetypeTableRecord
  2
Continuous
 70
0
  3

 72
65
 73
0
 40
0.0
  0
ENDTAB
  0
TABLE
  2
LAYER
  5
1
330
0
100
AcDbSymbolTable
 70
3
  0
LAYER
  5
27
330
1
100
AcDbSymbolTableRecord
100
AcDbLayerTableRecord
  2
0
 70
0
 62
7
  6
Continuous
370
-3
390
13
347
21
  0
LAYER
  5
28
330
1
100
AcDbSymbolTableRecord
100
AcDbLayerTableRecord
  2
Defpoints
 70
0
 62
7
  6
Continuous
290
0
370
-3
390
13
347
21
  0
LAYER
  5
2F
330
1
100
AcDbSymbolTableRecord
100
AcDbLayerTableRecord
  2
M
 70
0
 62
7
  6
Continuous
370
-3
390
13
347
21
  0
ENDTAB
  0
TABLE
  2
STYLE
  5
5
330
0
100
AcDbSymbolTable
 70
1
  0
STYLE
  5
29
330
5
100
AcDbSymbolTableRecord
100
AcDbTextStyleTableRecord
  2
Standard
 70
0
 40
0.0
 41
1.0
 50
0.0
 71
0
 42
2.5
  3
txt
  4

  0
ENDTAB
  0
TABLE
  2
VIEW
  5
7
330
0
100
AcDbSymbolTable
 70
0
  0
ENDTAB
  0
TABLE
  2
UCS
  5
6
330
0
100
AcDbSymbolTable
 70
0
  0
ENDTAB
  0
TABLE
  2
APPID
  5
3
330
0
100
AcDbSymbolTable
 70
3
  0
APPID
  5
2A
330
3
100
AcDbSymbolTableRecord
100
AcDbRegAppTableRecord
  2
ACAD
 70
0
  0
APPID
  5
39
330
3
100
AcDbSymbolTableRecord
100
AcDbRegAppTableRecord
  2
HATCHBACKGROUNDCOLOR
 70
0
  0
APPID
  5
3A
330
3
100
AcDbSymbolTableRecord
100
AcDbRegAppTableRecord
  2
EZDXF
 70
0
  0
ENDTAB
  0
TABLE
  2
DIMSTYLE
  5
4
330
0
100
AcDbSymbolTable
 70
1
100
AcDbDimStyleTable
  0
DIMSTYLE
105
2B
330
4
100
AcDbSymbolTableRecord
100
AcDbDimStyleTableRecord
  2
Standard
 70
0
 40
1.0
 41
2.5
 42
0.625
 43
3.75
 44
1.25
 45
0.0
 46
0.0
 47
0.0
 48
0.0
 49
2.5
140
2.5
141
2.5
142
0.0
143
0.03937007874
144
1.0
145
0.0
146
1.0
147
0.625
148
0.0
 69
0
 70
0
 71
0
 72
0
 73
0
 74
0
 75
0
 76
0
 77
1
 78
8
 79
3
170
0
171
3
172
1
173
0
174
0
175
0
176
0
177
0
178
0
179
2
271
2
272
2
273
2
274
3
275
0
276
0
277
2
278
44
279
0
280
0
281
0
282
0
283
0
284
8
285
0
286
0
288
0
289
3
290
0
371
-2
372
-2
  0
ENDTAB
  0
TABLE
  2
BLOCK_RECORD
  5
9
330
0
100
AcDbSymbolTable
 70
2
  0
BLOCK_RECORD
  5
17
330
9
100
AcDbSymbolTableRecord
100
AcDbBlockTableRecord
  2
*Model_Space
340
1A
 70
0
280
1
281
0
  0
BLOCK_RECORD
  5
1B
330
9
100
AcDbSymbolTableRecord
100
AcDbBlockTableRecord
  2
*Paper_Space
340
1E
 70
0
280
1
281
0
  0
ENDTAB
  0
ENDSEC
  0
SECTION
  2
BLOCKS
  0
BLOCK
  5
18
330
17
100
AcDbEntity
  8
0
100
AcDbBlockBegin
  2
*Model_Space
 70
0
 10
0.0
 20
0.0
 30
0.0
  3
*Model_Space
  1

  0
ENDBLK
  5
19
330
17
100
AcDbEntity
  8
0
100
AcDbBlockEnd
  0
BLOCK
  5
1C
330
1B
100
AcDbEntity
  8
0
100
AcDbBlockBegin
  2
*Paper_Space
 70
0
 10
0.0
 20
0.0
 30
0.0
  3
*Paper_Space
  1

  0
ENDBLK
  5
1D
330
1B
100
AcDbEntity
  8
0
100
AcDbBlockEnd
  0
ENDSEC
  0
SECTION
  2
ENTITIES
  0
LWPOLYLINE
  5
30
330
17
100
AcDbEntity
  8
M
100
AcDbPolyline
 90
162
 70
1
 10
6.668396458305081
 20
61.69973967088582
 10
3.344902963575924
 20
67.15976469794094
 10
1.678236296909219
 20
108.23119326936947
 10
0.0
 20
110.98829575714898
 10
2.564902450976403
 20
118.01124294434595
 10
5.979577778230216
 20
115.20633106838729
 10
15.973688392659557
 20
115.20633106838729
 10
24.30702172599286
 20
109.73014059219688
 10
34.31291111156354
 20
109.73014059219688
 10
40.97957777823025
 20
104.25395011600635
 10
50.97957777823026
 20
104.25395011600635
 10
57.58490773214431
 20
98.82814336814849
 10
59.99336981055059
 20
102.78490249695882
 10
58.34377194403895
 20
105.4949561347992
 10
58.34377194403895
 20
132.93199171626114
 10
60.001729791638425
 20
135.65577960874597
 10
58.339243115515636
 20
141.11823583029215
 10
60.001729791638425
 20
146.5806920518382
 10
55.943771944038986
 20
153.2473370871802
 10
54.28880604127939
 20
150.52846453264667
 10
47.56280807990543
 20
158.81585487791116
 10
44.220906042434564
 20
158.81585487791116
 10
42.57468622751903
 20
161.52035885955829
 10
37.68194337707897
 20
158.84099967955544
 10
34.33330451230998
 20
153.33966440172065
 10
20.887572709101242
 20
153.33966440172065
 10
18.322886973840326
 20
157.55307668107798
 10
26.66654034764049
 20
168.51902111521554
 10
23.3350631249718
 20
179.46530341826983
 10
27.554239375767953
 20
186.39680725886353
 10
32.554239375767956
 20
186.39680725886353
 10
35.94377194403897
 20
191.96532504959453
 10
37.61043861070568
 20
189.2272298114992
 10
39.286867030297046
 20
191.98136221511385
 10
45.95353369696375
 20
178.29088602463762
 10
49.232940514981614
 20
183.67848293995272
 10
57.676685754291746
 20
180.90410950417944
 10
60.99997117897671
 20
175.4444263064826
 10
67.65806914150585
 20
175.4444263064826
 10
74.32473580817256
 20
167.23014059219688
 10
79.32121320348018
 20
167.23014059219688
 10
84.32121320348018
 20
161.75395011600637
 10
100.8875727091012
 20
161.75395011600637
 10
105.00610387589803
 20
168.52010846145825
 10
103.33943720923133
 20
179.47248941383918
 10
106.66003647721722
 20
184.9277596398159
 10
105.00172979163847
 20
187.65212062326685
 10
106.66839645830505
 20
193.12831109945728
 10
103.34711627483584
 20
198.58469997229966
 10
101.68104313193271
 20
212.2703007890039
 10
92.54324629043298
 20
224.55292381621462
 10
87.5389338443323
 20
227.29338063193637
 10
82.58490773214422
 20
235.43213781624527
 10
72.60057943901165
 20
227.23072528974353
 10
67.62651498122507
 20
232.6785101720813
 10
64.26915691022106
 20
227.1628504840031
 10
55.91095857605377
 20
243.64044148564722
 10
52.64624444489685
 20
240.95871202076836
 10
42.55423937576796
 20
240.95871202076836
 10
40.88757270910126
 20
243.69680725886354
 10
35.891270825642586
 20
243.69680725886354
 10
21.673254732441414
 20
264.3069566376637
 10
23.340311897851905
 20
278.0006404963924
 10
21.66003647721726
 20
280.76109297314923
 10
24.220906042434542
 20
284.9682358302921
 10
34.22090604243455
 20
284.9682358302921
 10
38.32670314388387
 20
291.71347392553025
 10
35.00000000000003
 20
297.1787719476251
 10
37.5497083911841
 20
304.1601163520575
 10
45.899607181648314
 20
301.4165781780479
 10
49.99336981055058
 20
308.14204535410164
 10
48.326703143883876
 20
310.88014059219694
 10
50.943771944038986
 20
315.17961076388025
 10
52.61043861070558
 20
312.4415155257849
 10
55.92769557351951
 20
317.8912948218363
 10
60.927695573519514
 20
312.4151043456458
 10
63.335063124971725
 20
316.37006532303167
 10
61.66839645830513
 20
321.8462557992222
 10
64.22090604243458
 20
326.0396644017207
 10
67.65806914150585
 20
326.0396644017207
 10
74.2654045134652
 20
317.89848331841375
 10
77.56627384831494
 20
323.3213400828098
 10
86.01001908762507
 20
320.5469666470365
 10
88.55248076310617
 20
316.37006532303167
 10
86.88581409643947
 20
310.8938748468413
 10
90.95984831455839
 20
304.20081863136005
 10
95.89966401793116
 20
309.61109297314925
 10
99.33330451231004
 20
309.61109297314925
 10
107.61043861070563
 20
296.01294409721356
 10
109.22090604243462
 20
298.65871202076835
 10
112.66663784564335
 20
298.65871202076835
 10
117.66663784564335
 20
290.44442630648257
 10
120.99997117897665
 20
290.44442630648257
 10
122.64619099389229
 20
287.73992232483545
 10
127.53893384433235
 20
290.4192815048383
 10
132.53005675810837
 20
298.61898343461326
 10
137.56633068459777
 20
304.1349024969587
 10
140.88757270910125
 20
304.1349024969587
 10
144.22675684523068
 20
309.6207050063141
 10
160.9942236931391
 20
306.86604973844345
 10
165.95363111573292
 20
301.4343177994121
 10
169.30263615593367
 20
304.1852862252913
 10
172.6666378456434
 20
298.65871202076835
 10
179.33330451231
 20
298.65871202076835
 10
180.95984831455846
 20
295.98653291707444
 10
185.95984831455849
 20
301.46272339326487
 10
187.63596948926698
 20
298.70909574910087
 10
190.96930282260038
 20
301.44719098719605
 10
195.22087722141123
 20
294.46246161772103
 10
192.63307562129484
 20
287.3768143793074
 10
190.94377194403899
 20
290.1520989919422
 10
188.560840744194
 20
286.2372834493397
 10
195.2275074108607
 20
275.2849024969588
 10
193.55248076310616
 20
272.53307300421926
 10
195.21914742977287
 20
267.0568825280287
 10
191.87376094657537
 20
261.56089044849006
 10
190.20709427990877
 20
247.87041425801394
 10
187.62651498122506
 20
243.63089112446224
 10
182.62651498122517
 20
249.10708160065275
 10
179.3361869554929
 20
243.70154270123555
 10
147.6695202888263
 20
240.96344746314037
 10
145.99997117897666
 20
238.22061678267315
 10
135.99997117897666
 20
238.22061678267315
 10
133.54377194403898
 20
234.18543232527554
 10
133.54377194403898
 20
204.06638470622784
 10
131.8771052773723
 20
201.32828946813262
 10
131.8771052773723
 20
193.1140037538469
 10
128.5578962402314
 20
187.661017478544
 10
136.00568472908404
 20
172.70633106838739
 10
139.33330451230995
 20
172.70633106838739
 10
144.30263615593375
 20
164.5424290824342
 10
147.63596948926704
 20
167.28052432052942
 10
153.5437719440389
 20
157.57484885911822
 10
153.5437719440389
 20
146.62246790673728
 10
156.87710527737232
 20
141.14627743054686
 10
156.87710527737232
 20
130.1378132776564
 10
147.63596948926704
 20
114.95594734005476
 10
144.2412994431811
 20
117.74442630648264
 10
135.88757270910122
 20
117.74442630648264
 10
134.22090604243465
 20
120.48252154457784
 10
127.55423937576793
 20
120.48252154457784
 10
124.22090604243463
 20
125.95871202076836
 10
119.22090604243462
 20
125.95871202076836
 10
117.55423937576792
 20
128.69680725886357
 10
114.33330451231005
 20
128.69680725886357
 10
112.61043861070563
 20
125.8663847062279
 10
110.8875727091012
 20
128.69680725886357
 10
107.66315965763829
 20
128.69680725886357
 10
92.68490778830574
 20
106.82380452904472
 10
79.31291111156358
 20
95.83966440172065
 10
75.99540759674417
 20
95.83966440172065
 10
64.34340772510194
 20
79.43174621512262
 10
52.670900934402184
 20
73.95281445622271
 10
47.654546536813555
 20
68.45871202076836
 10
34.33330451230998
 20
68.45871202076836
 10
32.666637845643386
 20
65.72061678267305
 10
25.99140247483922
 20
65.72061678267305
 10
12.6246945955093
 20
49.250923145641615
 10
9.30263615593374
 20
51.97975686386436
 10
7.587801600116406
 20
49.16252866502169
 10
5.005031751040279
 20
56.23439848987288
 10
6.668396458305081
 20
61.69973967088582
  0
LWPOLYLINE
  5
31
330
17
100
AcDbEntity
  8
M
100
AcDbPolyline
 90
5
 70
1
 10
57.65101107869186
 20
328.85816733840454
 10
60.22087722141123
 20
321.8216290904823
 10
57.61043861070569
 20
317.53305137289453
 10
53.31718525584328
 20
324.5862533130254
 10
57.65101107869186
 20
328.85816733840454
  0
LWPOLYLINE
  5
32
330
17
100
AcDbEntity
  8
M
100
AcDbPolyline
 90
5
 70
1
 10
22.630187922703882
 20
27.647165465597425
 10
26.894174077527367
 20
20.642045354101633
 10
24.290651683699927
 20
16.364829992813746
 10
18.307335636228327
 20
23.386068211785684
 10
22.630187922703882
 20
27.647165465597425
  0
LWPOLYLINE
  5
33
330
17
100
AcDbEntity
  8
M
100
AcDbPolyline
 90
38
 70
1
 10
1520.887572709101
 20
52.03014059219691
 10
1515.899664017931
 20
52.03014059219691
 10
1510.9598483145583
 20
57.44041493398599
 10
1509.33330451231
 20
54.76823583029211
 10
1505.887572709101
 20
54.76823583029211
 10
1504.220906042434
 20
57.50633106838732
 10
1500.890681132839
 20
57.50633106838732
 10
1484.2653756309837
 20
82.08803277470145
 10
1479.197231363955
 20
76.53720810128861
 10
1478.3403480699376
 20
86.39136598248986
 10
1483.3193657543725
 20
91.84457582734684
 10
1481.660036477217
 20
94.57061678267308
 10
1484.2209060424345
 20
98.77775963981594
 10
1485.9999711789765
 20
98.77775963981594
 10
1492.6666378456432
 20
87.825378687435
 10
1500.9999711789765
 20
87.825378687435
 10
1504.277105277372
 20
82.44151552578505
 10
1507.594362240186
 20
87.89129482183644
 10
1512.6202977823993
 20
82.38669875179305
 10
1515.9437719440384
 20
85.11669538456823
 10
1519.2672461056782
 20
82.38669875179305
 10
1524.3052530520304
 20
87.90451588351233
 10
1529.3087089830522
 20
76.94456479651235
 10
1533.3575554495683
 20
80.93557059922108
 10
1535.8738331861334
 20
87.825378687435
 10
1539.3333045123097
 20
87.825378687435
 10
1540.9437719440389
 20
85.17961076388025
 10
1542.5542393757676
 20
87.825378687435
 10
1545.989939497765
 20
87.825378687435
 10
1551.8771052773718
 20
80.91696986442676
 10
1551.8771052773718
 20
75.3759085157516
 10
1550.2275074108604
 20
72.66585487791122
 10
1551.8771052773718
 20
69.95580124007073
 10
1551.8771052773718
 20
48.05103933530886
 10
1553.560840744194
 20
45.28490249695882
 10
1550.9894107887706
 20
41.06041042733466
 10
1522.5452402610888
 20
49.3068296139314
 10
1520.887572709101
 20
52.03014059219691
  0
LWPOLYLINE
  5
34
330
17
100
AcDbEntity
  8
M
100
AcDbPolyline
 90
5
 70
1
 10
1543.333333333333
 20
78.13115290000606
 10
1540.966408954628
 20
82.0196715221645
 10
1538.5542105547443
 20
75.41484257010211
 10
1540.9211349334494
 20
71.52632394794355
 10
1543.333333333333
 20
78.13115290000606
  0
LWPOLYLINE
  5
35
330
17
100
AcDbEntity
  8
M
100
AcDbPolyline
 90
109
 70
1
 10
2685.0673023651275
 20
58.882785353787106
 10
2675.9105541907934
 20
65.72061678267305
 10
2669.2329973512647
 20
65.72061678267305
 10
2664.2329973512647
 20
71.19680725886357
 10
2657.5746327765146
 20
71.19680725886357
 10
2647.5746327765146
 20
79.4110929731493
 10
2639.2329973512647
 20
79.4110929731493
 10
2634.218374100306
 20
84.90329939086583
 10
2627.542084911181
 20
87.64534673639935
 10
2624.2209060424348
 20
93.10156916362544
 10
2615.8875727091013
 20
93.10156916362544
 10
2614.2209060424348
 20
95.83966440172065
 10
2594.2209060424348
 20
95.83966440172065
 10
2592.554239375768
 20
98.57775963981597
 10
2580.8875727091013
 20
98.57775963981597
 10
2579.289748819566
 20
101.20275602976747
 10
2564.341380902414
 20
68.45871202076836
 10
2557.6666378456434
 20
68.45871202076836
 10
2555.999971178977
 20
65.72061678267305
 10
2520.999971178977
 20
65.72061678267305
 10
2519.33330451231
 20
62.98252154457784
 10
2500.8782072813956
 20
62.98252154457784
 10
2496.6802034385396
 20
72.63793038314658
 10
2493.3414948555514
 20
94.57801535707378
 10
2498.3535323377328
 20
111.04613851281442
 10
2505.895049493026
 20
120.68252154457781
 10
2509.2209060424348
 20
120.68252154457781
 10
2510.8875727091013
 20
123.42061678267302
 10
2519.245432700641
 20
123.42061678267302
 10
2530.9120993673077
 20
131.63490249695874
 10
2539.245432700641
 20
131.63490249695874
 10
2550.9120993673077
 20
139.84918821124447
 10
2555.873833186134
 20
139.84918821124447
 10
2558.3398270011053
 20
146.60131413318922
 10
2551.6707786632246
 20
176.7311218025418
 10
2554.2209060424348
 20
180.92061678267314
 10
2565.8875727091017
 20
180.92061678267314
 10
2567.554239375768
 20
183.65871202076832
 10
2595.999971178977
 20
183.65871202076832
 10
2599.345458976897
 20
178.1625534956135
 10
2606.0121256435636
 20
175.4244582575183
 10
2609.33330451231
 20
169.9682358302921
 10
2614.3333045123104
 20
169.9682358302921
 10
2617.5994208305083
 20
164.6024733075373
 10
2623.343771944039
 20
176.73594963917793
 10
2623.343771944039
 20
201.38437266864207
 10
2625.0104386107055
 20
204.12246790673726
 10
2625.0104386107055
 20
212.336753621023
 10
2627.5542393757682
 20
216.51585487791115
 10
2637.6666378456434
 20
216.51585487791115
 10
2639.3333045123104
 20
213.77775963981594
 10
2689.33330451231
 20
213.77775963981594
 10
2690.9437719440393
 20
211.1319917162614
 10
2693.343771944039
 20
215.07484885911853
 10
2693.343771944039
 20
223.2330513728943
 10
2689.9933698105506
 20
228.73728344933974
 10
2694.2209060424343
 20
235.6825215445778
 10
2719.2209060424348
 20
235.6825215445778
 10
2720.8841674579603
 20
238.41502244151337
 10
2747.5508341246277
 20
241.15311767960856
 10
2749.2209060424348
 20
243.89680725886353
 10
2755.9736883926603
 20
243.89680725886353
 10
2764.307021725993
 20
238.42061678267314
 10
2769.33330451231
 20
238.42061678267314
 10
2770.999971178977
 20
235.6825215445778
 10
2784.312911111564
 20
235.6825215445778
 10
2790.97957777823
 20
230.20633106838739
 10
2797.6666378456434
 20
230.20633106838739
 10
2799.3333045123104
 20
227.4682358302921
 10
2810.999971178977
 20
227.4682358302921
 10
2815.214773345513
 20
220.54391798526797
 10
2813.5396173019485
 20
209.53574969898315
 10
2810.2104386107058
 20
204.0663847062276
 10
2810.2104386107058
 20
195.8652601556209
 10
2806.8756107838444
 20
184.9079687245061
 10
2805.2133169654326
 20
168.5225010858761
 10
2809.33330451231
 20
161.75395011600637
 10
2812.655671461452
 20
161.75395011600637
 10
2823.5437719440392
 20
149.37023143526184
 10
2823.5437719440392
 20
127.44264007639194
 10
2825.219147429773
 20
121.9378349089808
 10
2822.6420333646265
 20
117.70400465909803
 10
2814.238209455933
 20
123.22651751338253
 10
2800.89183030308
 20
125.96729180370059
 10
2795.8996640179316
 20
131.43490249695878
 10
2787.566330684598
 20
131.43490249695878
 10
2782.566330684598
 20
136.9110929731493
 10
2777.5642710569796
 20
136.9110929731493
 10
2771.66785863737
 20
143.83035244513965
 10
2775.0061015658953
 20
157.5409930444378
 10
2772.5356530747345
 20
164.30531629404555
 10
2759.3259310608264
 20
167.01802706475877
 10
2756.0188324625915
 20
161.58493651051586
 10
2741.018832462591
 20
150.63255555813492
 10
2737.666637845644
 20
145.12537868743502
 10
2734.3129111115636
 20
145.12537868743502
 10
2727.68703124639
 20
139.68269165532809
 10
2722.666637845644
 20
131.43490249695878
 10
2717.6666378456434
 20
131.43490249695878
 10
2712.67879231023
 20
123.24058483163746
 10
2706.0121256435636
 20
120.50248959354226
 10
2703.5437719440392
 20
116.44733708718003
 10
2703.5437719440392
 20
111.01608310279187
 10
2710.210438610706
 20
91.84941643612521
 10
2710.210438610706
 20
86.33280777778118
 10
2702.672351395751
 20
71.19680725886357
 10
2699.3333045123104
 20
71.19680725886357
 10
2690.9914990988177
 20
57.492412650982374
 10
2685.0673023651275
 20
58.882785353787106
  0
LWPOLYLINE
  5
36
330
17
100
AcDbEntity
  8
M
100
AcDbPolyline
 90
36
 70
1
 10
2609.229474746572
 20
169.7682358302921
 10
2602.5628080799056
 20
177.98252154457782
 10
2599.2209060424348
 20
177.98252154457782
 10
2595.010438610706
 20
184.89971803956118
 10
2595.010438610706
 20
220.55103933530873
 10
2597.554239375768
 20
224.73014059219688
 10
2605.915440827873
 20
224.73014059219688
 10
2619.2487741612067
 20
232.9444263064826
 10
2629.2209060424348
 20
232.9444263064826
 10
2630.8875727091013
 20
235.6825215445778
 10
2652.5542393757682
 20
235.6825215445778
 10
2654.2209060424348
 20
238.42061678267314
 10
2659.3333045123104
 20
238.42061678267314
 10
2660.9999711789765
 20
235.6825215445778
 10
2677.554239375768
 20
235.6825215445778
 10
2679.2209060424348
 20
238.42061678267314
 10
2685.8875727091017
 20
238.42061678267314
 10
2687.610438610706
 20
241.251039335309
 10
2690.2104386107058
 20
236.9796107638804
 10
2690.2104386107058
 20
226.02722981149947
 10
2693.5437719440392
 20
220.55103933530896
 10
2693.5437719440392
 20
215.01876565860866
 10
2690.9437719440393
 20
210.74733708718009
 10
2689.2209060424348
 20
213.57775963981595
 10
2639.2209060424348
 20
213.57775963981595
 10
2637.554239375768
 20
216.31585487791116
 10
2627.6666378456434
 20
216.31585487791116
 10
2625.210438610706
 20
212.28067042051356
 10
2625.210438610706
 20
204.06638470622784
 10
2623.5437719440392
 20
201.32828946813262
 10
2623.5437719440392
 20
179.42352756337075
 10
2620.2104386107058
 20
173.94733708718024
 10
2620.2104386107058
 20
168.47114661098982
 10
2617.610438610706
 20
164.19971803956125
 10
2614.2209060424348
 20
169.7682358302921
 10
2609.229474746572
 20
169.7682358302921
  0
LWPOLYLINE
  5
37
330
17
100
AcDbEntity
  8
M
100
AcDbPolyline
 90
89
 70
1
 10
3148.413511103279
 20
4.1143045782303655
 10
3137.581492368132
 20
10.958712020768369
 10
3127.5746327765146
 20
10.958712020768369
 10
3120.907966109848
 20
16.43490249695878
 10
3110.9138554954184
 20
16.43490249695878
 10
3102.5367175182237
 20
21.939878881972795
 10
3093.35414973233
 20
37.025525958798376
 10
3090.013348623557
 20
45.25821440541744
 10
3088.34792658613
 20
56.202416365650265
 10
3082.610438610706
 20
65.62828946813259
 10
3080.999971178977
 20
62.98252154457784
 10
3074.3212132034805
 20
62.98252154457784
 10
3069.3212132034805
 20
57.50633106838732
 10
3060.9795777782306
 20
57.50633106838732
 10
3054.312911111564
 20
52.03014059219691
 10
3042.566330684598
 20
52.03014059219691
 10
3027.566330684598
 20
68.45871202076836
 10
3017.666637845644
 20
68.45871202076836
 10
3015.999971178977
 20
65.72061678267305
 10
3007.666637845644
 20
65.72061678267305
 10
3005.9999711789774
 20
62.98252154457784
 10
2985.999971178977
 20
62.98252154457784
 10
2984.3407414837434
 20
60.25664418812282
 10
2972.562711455928
 20
57.492412650982374
 10
2968.3437719440394
 20
64.42352756337067
 10
2968.3437719440394
 20
80.85209899194201
 10
2966.678796161925
 20
83.5874163482725
 10
2965.0087186434935
 20
111.02440415107895
 10
2969.2209060424348
 20
117.94442630648261
 10
2984.2209060424348
 20
117.94442630648261
 10
2985.8875727091013
 20
120.68252154457781
 10
3015.907966109848
 20
120.68252154457781
 10
3019.272443325146
 20
123.44619925714373
 10
3030.9139342526023
 20
115.24963931842436
 10
3032.5542393757682
 20
117.94442630648261
 10
3039.220906042435
 20
117.94442630648261
 10
3040.8875727091017
 20
120.68252154457781
 10
3055.913855495419
 20
120.68252154457781
 10
3064.2471888287523
 20
126.15871202076833
 10
3075.8875727091017
 20
126.15871202076833
 10
3080.8875727091017
 20
134.37299773505396
 10
3084.220906042435
 20
134.37299773505396
 10
3087.5542393757682
 20
139.84918821124447
 10
3094.3070217259933
 20
139.84918821124447
 10
3102.640355059327
 20
134.37299773505396
 10
3110.999971178977
 20
134.37299773505396
 10
3112.666637845644
 20
131.63490249695874
 10
3119.312911111564
 20
131.63490249695874
 10
3125.9795777782306
 20
126.15871202076833
 10
3135.9795777782306
 20
126.15871202076833
 10
3142.646244444897
 20
120.68252154457781
 10
3154.2294747465726
 20
120.68252154457781
 10
3160.896141413239
 20
128.89680725886353
 10
3165.999971178977
 20
128.89680725886353
 10
3167.6666378456434
 20
126.15871202076833
 10
3192.666637845644
 20
126.15871202076833
 10
3194.3333045123104
 20
123.42061678267302
 10
3202.646244444897
 20
123.42061678267302
 10
3205.9254538188447
 20
120.72698051121623
 10
3235.8929794432133
 20
161.75395011600637
 10
3242.654546536814
 20
161.75395011600637
 10
3252.6545465368135
 20
150.8015691636254
 10
3257.6666378456443
 20
150.8015691636254
 10
3260.9999711789774
 20
145.325378687435
 10
3264.3333045123104
 20
145.325378687435
 10
3267.666637845644
 20
139.84918821124447
 10
3272.661688284832
 20
139.84918821124447
 10
3283.5437719440392
 20
124.72189609157746
 10
3283.5437719440392
 20
119.24151552578499
 10
3286.8941740775276
 20
113.73728344933976
 10
3284.333304512311
 20
109.5301405921969
 10
3279.312911111564
 20
109.5301405921969
 10
3272.646244444897
 20
104.05395011600638
 10
3264.3212132034805
 20
104.05395011600638
 10
3259.3212132034805
 20
98.57775963981597
 10
3250.9795777782306
 20
98.57775963981597
 10
3244.312911111564
 20
93.10156916362544
 10
3235.999971178977
 20
93.10156916362544
 10
3230.2024274675978
 20
83.57703306635888
 10
3225.210438610706
 20
67.17478396514431
 10
3225.210438610706
 20
61.72835436210655
 10
3228.5437719440397
 20
50.775973409725616
 10
3228.5437719440397
 20
45.30441948540365
 10
3231.8830874382456
 20
37.0753920175374
 10
3228.535760800931
 20
26.07703306635889
 10
3219.3333045123104
 20
10.958712020768369
 10
3200.9999711789774
 20
10.958712020768369
 10
3195.998977385209
 20
2.7427936452926183
 10
3148.413511103279
 20
4.1143045782303655
  0
LWPOLYLINE
  5
38
330
17
100
AcDbEntity
  8
M
100
AcDbPolyline
 90
29
 70
1
 10
4438.343771944039
 20
1.3857330830768788
 10
4438.343771944039
 20
6.9723678877052775
 10
4446.662021532317
 20
26.104341940745734
 10
4438.343771944039
 20
37.03689854248316
 10
4438.343771944039
 20
61.741515525785
 10
4439.993369810551
 20
64.45156916362549
 10
4438.343771944039
 20
67.16162280146587
 10
4438.343771944039
 20
105.57488965132423
 10
4444.245432700641
 20
109.73014059219688
 10
4449.220906042435
 20
109.73014059219688
 10
4450.887572709102
 20
112.46823583029209
 10
4465.887572709101
 20
112.46823583029209
 10
4467.610438610705
 20
115.29865838292785
 10
4469.33330451231
 20
112.46823583029209
 10
4472.659161061719
 20
112.46823583029209
 10
4480.22486799598
 20
102.80094363651315
 10
4466.866727489082
 20
69.88266881594119
 10
4461.888684759838
 20
61.70445576075523
 10
4465.210438610706
 20
53.51870519968938
 10
4465.210438610706
 20
45.312944097213645
 10
4466.877105277372
 20
42.57484885911833
 10
4466.877105277372
 20
28.88437266864219
 10
4468.543771944039
 20
26.14627743054698
 10
4468.543771944039
 20
12.442640076392287
 10
4470.219147429772
 20
6.937834908981144
 10
4467.666637845643
 20
2.744426306482639
 10
4452.666637845644
 20
2.744426306482639
 10
4450.996117485175
 20
0.0
 10
4438.343771944039
 20
1.3857330830768788
  0
ENDSEC
  0
SECTION
  2
OBJECTS
  0
DICTIONARY
  5
A
330
0
100
AcDbDictionary
281
1
  3
ACAD_COLOR
350
B
  3
ACAD_GROUP
350
C
  3
ACAD_LAYOUT
350
D
  3
ACAD_MATERIAL
350
E
  3
ACAD_MLEADERSTYLE
350
F
  3
ACAD_MLINESTYLE
350
10
  3
ACAD_PLOTSETTINGS
350
11
  3
ACAD_PLOTSTYLENAME
350
12
  3
ACAD_SCALELIST
350
14
  3
ACAD_TABLESTYLE
350
15
  3
ACAD_VISUALSTYLE
350
16
  3
EZDXF_META
350
2D
  0
DICTIONARY
  5
B
330
A
100
AcDbDictionary
281
1
  0
DICTIONARY
  5
C
330
A
100
AcDbDictionary
281
1
  0
DICTIONARY
  5
D
330
A
100
AcDbDictionary
281
1
  3
Model
350
1A
  3
Layout1
350
1E
  0
DICTIONARY
  5
E
330
A
100
AcDbDictionary
281
1
  3
ByBlock
350
1F
  3
ByLayer
350
20
  3
Global
350
21
  0
DICTIONARY
  5
F
330
A
100
AcDbDictionary
281
1
  3
Standard
350
2C
  0
DICTIONARY
  5
10
330
A
100
AcDbDictionary
281
1
  3
Standard
350
22
  0
DICTIONARY
  5
11
330
A
100
AcDbDictionary
281
1
  0
ACDBDICTIONARYWDFLT
  5
12
330
A
100
AcDbDictionary
281
1
  3
Normal
350
13
100
AcDbDictionaryWithDefault
340
13
  0
ACDBPLACEHOLDER
  5
13
330
12
  0
DICTIONARY
  5
14
330
A
100
AcDbDictionary
281
1
  0
DICTIONARY
  5
15
330
A
100
AcDbDictionary
281
1
  0
DICTIONARY
  5
16
330
A
100
AcDbDictionary
281
1
  0
LAYOUT
  5
1A
330
D
100
AcDbPlotSettings
  1

  4
A3
  6

 40
7.5
 41
20.0
 42
7.5
 43
20.0
 44
420.0
 45
297.0
 46
0.0
 47
0.0
 48
0.0
 49
0.0
140
0.0
141
0.0
142
1.0
143
1.0
 70
1024
 72
1
 73
0
 74
5
  7

 75
16
 76
0
 77
2
 78
300
147
1.0
148
0.0
149
0.0
100
AcDbLayout
  1
Model
 70
1
 71
0
 10
0.0
 20
0.0
 11
420.0
 21
297.0
 12
0.0
 22
0.0
 32
0.0
 14
1e+20
 24
1e+20
 34
1e+20
 15
-1e+20
 25
-1e+20
 35
-1e+20
146
0.0
 13
0.0
 23
0.0
 33
0.0
 16
1.0
 26
0.0
 36
0.0
 17
0.0
 27
1.0
 37
0.0
 76
1
330
17
  0
LAYOUT
  5
1E
330
D
100
AcDbPlotSettings
  1

  4
A3
  6

 40
7.5
 41
20.0
 42
7.5
 43
20.0
 44
420.0
 45
297.0
 46
0.0
 47
0.0
 48
0.0
 49
0.0
140
0.0
141
0.0
142
1.0
143
1.0
 70
0
 72
1
 73
0
 74
5
  7

 75
16
 76
0
 77
2
 78
300
147
1.0
148
0.0
149
0.0
100
AcDbLayout
  1
Layout1
 70
1
 71
1
 10
0.0
 20
0.0
 11
420.0
 21
297.0
 12
0.0
 22
0.0
 32
0.0
 14
1e+20
 24
1e+20
 34
1e+20
 15
-1e+20
 25
-1e+20
 35
-1e+20
146
0.0
 13
0.0
 23
0.0
 33
0.0
 16
1.0
 26
0.0
 36
0.0
 17
0.0
 27
1.0
 37
0.0
 76
1
330
1B
  0
MATERIAL
  5
1F
102
{ACAD_REACTORS
330
E
102
}
330
E
100
AcDbMaterial
  1
ByBlock
  2

 70
0
 40
1.0
 71
1
 41
1.0
 91
-1023410177
 42
1.0
 72
1
  3

 73
1
 74
1
 75
1
 44
0.5
 73
0
 45
1.0
 46
1.0
 77
1
  4

 78
1
 79
1
170
1
 48
1.0
171
1
  6

172
1
173
1
174
1
140
1.0
141
1.0
175
1
  7

176
1
177
1
178
1
143
1.0
179
1
  8

270
1
271
1
272
1
145
1.0
146
1.0
273
1
  9

274
1
275
1
276
1
 42
1.0
 72
1
  3

 73
1
 74
1
 75
1
 94
63
  0
MATERIAL
  5
20
102
{ACAD_REACTORS
330
E
102
}
330
E
100
AcDbMaterial
  1
ByLayer
  2

 70
0
 40
1.0
 71
1
 41
1.0
 91
-1023410177
 42
1.0
 72
1
  3

 73
1
 74
1
 75
1
 44
0.5
 73
0
 45
1.0
 46
1.0
 77
1
  4

 78
1
 79
1
170
1
 48
1.0
171
1
  6

172
1
173
1
174
1
140
1.0
141
1.0
175
1
  7

176
1
177
1
178
1
143
1.0
179
1
  8

270
1
271
1
272
1
145
1.0
146
1.0
273
1
  9

274
1
275
1
276
1
 42
1.0
 72
1
  3

 73
1
 74
1
 75
1
 94
63
  0
MATERIAL
  5
21
102
{ACAD_REACTORS
330
E
102
}
330
E
100
AcDbMaterial
  1
Global
  2

 70
0
 40
1.0
 71
1
 41
1.0
 91
-1023410177
 42
1.0
 72
1
  3

 73
1
 74
1
 75
1
 44
0.5
 73
0
 45
1.0
 46
1.0
 77
1
  4

 78
1
 79
1
170
1
 48
1.0
171
1
  6

172
1
173
1
174
1
140
1.0
141
1.0
175
1
  7

176
1
177
1
178
1
143
1.0
179
1
  8

270
1
271
1
272
1
145
1.0
146
1.0
273
1
  9

274
1
275
1
276
1
 42
1.0
 72
1
  3

 73
1
 74
1
 75
1
 94
63
  0
MLINESTYLE
  5
22
102
{ACAD_REACTORS
330
10
102
}
330
10
100
AcDbMlineStyle
  2
Standard
 70
0
  3

 62
256
 51
90.0
 52
90.0
 71
2
 49
0.5
 62
256
  6
BYLAYER
 49
-0.5
 62
256
  6
BYLAYER
  0
MLEADERSTYLE
  5
2C
102
{ACAD_REACTORS
330
F
102
}
330
F
100
AcDbMLeaderStyle
179
2
170
2
171
1
172
0
 90
2
 40
0.0
 41
0.0
173
1
 91
-1056964608
 92
-2
290
1
 42
2.0
291
1
 43
8.0
  3
Standard
 44
4.0
300

342
29
174
1
175
1
176
0
178
1
 93
-1056964608
 45
4.0
292
0
297
0
 46
4.0
 94
-1056964608
 47
1.0
 49
1.0
140
1.0
294
1
141
0.0
177
0
142
1.0
295
0
296
0
143
3.75
271
0
272
9
273
9
  0
DICTIONARY
  5
2D
330
A
100
AcDbDictionary
280
1
281
1
  3
CREATED_BY_EZDXF
350
2E
  3
WRITTEN_BY_EZDXF
350
3B
  0
DICTIONARYVAR
  5
2E
330
2D
100
DictionaryVariables
280
0
  1
1.4.4 @ 2026-07-21T08:39:18.331738+00:00
  0
DICTIONARYVAR
  5
3B
330
2D
100
DictionaryVariables
280
0
  1
1.4.4 @ 2026-07-21T08:39:18.347299+00:00
  0
ENDSEC
  0
EOF
