0
SECTION
2
ENTITIES
0
LWPOLYLINE
8
SHEET
90
4
70
1
10
0.000
20
0.000
10
600.000
20
0.000
10
600.000
20
600.000
10
0.000
20
600.000
0
LWPOLYLINE
8
LIGHT
90
5
70
1
10
491.429
20
222.143
10
496.429
20
221.429
10
495.714
20
216.429
10
490.714
20
217.143
10
491.429
20
222.143
0
LWPOLYLINE
8
LIGHT
90
11
70
1
10
456.429
20
114.286
10
457.143
20
119.286
10
473.571
20
118.571
10
472.857
20
102.143
10
450.714
20
102.857
10
451.429
20
113.571
10
456.429
20
112.857
10
457.143
20
107.857
10
462.143
20
108.571
10
461.429
20
113.571
10
456.429
20
114.286
0
LWPOLYLINE
8
LIGHT
90
5
70
1
10
461.429
20
302.143
10
462.143
20
291.429
10
456.429
20
291.429
10
456.429
20
301.429
10
461.429
20
302.143
0
LWPOLYLINE
8
LIGHT
90
5
70
1
10
456.429
20
314.286
10
456.429
20
335.714
10
461.429
20
336.429
10
462.143
20
314.286
10
456.429
20
314.286
0
LWPOLYLINE
8
LIGHT
90
5
70
1
10
433.571
20
400.000
10
433.571
20
415.714
10
438.571
20
416.429
10
439.286
20
400.000
10
433.571
20
400.000
0
LWPOLYLINE
8
LIGHT
90
5
70
1
10
433.571
20
102.857
10
433.571
20
112.857
10
438.571
20
113.571
10
439.286
20
102.857
10
433.571
20
102.857
0
LWPOLYLINE
8
LIGHT
90
5
70
1
10
399.286
20
102.857
10
400.000
20
107.857
10
405.000
20
107.143
10
404.286
20
102.143
10
399.286
20
102.857
0
LWPOLYLINE
8
LIGHT
90
5
70
1
10
392.857
20
107.857
10
387.857
20
108.571
10
388.571
20
113.571
10
393.571
20
112.857
10
392.857
20
107.857
0
LWPOLYLINE
8
LIGHT
90
5
70
1
10
388.571
20
130.714
10
393.571
20
130.000
10
392.857
20
125.000
10
387.857
20
125.714
10
388.571
20
130.714
0
LWPOLYLINE
8
LIGHT
90
9
70
1
10
371.429
20
107.857
10
387.857
20
107.143
10
387.143
20
102.143
10
377.143
20
102.143
10
375.714
20
96.429
10
365.000
20
97.143
10
365.000
20
101.429
10
370.714
20
102.857
10
371.429
20
107.857
0
LWPOLYLINE
8
LIGHT
90
5
70
1
10
370.000
20
130.714
10
370.714
20
120.000
10
365.000
20
120.000
10
365.000
20
130.000
10
370.000
20
130.714
0
LWPOLYLINE
8
LIGHT
90
5
70
1
10
359.286
20
142.857
10
360.000
20
147.857
10
365.000
20
147.143
10
364.286
20
142.143
10
359.286
20
142.857
0
LWPOLYLINE
8
LIGHT
90
9
70
1
10
348.571
20
102.143
10
353.571
20
101.429
10
354.286
20
96.429
10
365.000
20
95.714
10
364.286
20
90.714
10
336.429
20
91.429
10
337.143
20
96.429
10
347.143
20
96.429
10
348.571
20
102.143
0
LWPOLYLINE
8
LIGHT
90
5
70
1
10
358.571
20
147.857
10
347.857
20
148.571
10
348.571
20
159.286
10
359.286
20
158.571
10
358.571
20
147.857
0
LWPOLYLINE
8
LIGHT
90
5
70
1
10
347.857
20
108.571
10
348.571
20
113.571
10
353.571
20
112.857
10
352.857
20
107.857
10
347.857
20
108.571
0
LWPOLYLINE
8
LIGHT
90
5
70
1
10
342.857
20
107.857
10
347.857
20
107.143
10
347.143
20
102.143
10
342.143
20
102.857
10
342.857
20
107.857
0
LWPOLYLINE
8
LIGHT
90
5
70
1
10
336.429
20
107.143
10
335.714
20
102.143
10
330.714
20
102.857
10
331.429
20
107.857
10
336.429
20
107.143
0
LWPOLYLINE
8
LIGHT
90
9
70
1
10
314.286
20
107.857
10
324.286
20
107.857
10
325.714
20
102.143
10
330.714
20
101.429
10
330.000
20
90.714
10
307.857
20
91.429
10
308.571
20
96.429
10
313.571
20
97.143
10
314.286
20
107.857
0
LWPOLYLINE
8
LIGHT
90
5
70
1
10
330.000
20
199.286
10
330.714
20
177.143
10
325.000
20
177.143
10
325.000
20
198.571
10
330.000
20
199.286
0
LWPOLYLINE
8
LIGHT
90
5
70
1
10
319.286
20
371.429
10
319.286
20
392.857
10
324.286
20
393.571
10
325.000
20
371.429
10
319.286
20
371.429
0
LWPOLYLINE
8
LIGHT
90
5
70
1
10
319.286
20
337.143
10
313.571
20
337.143
10
313.571
20
347.143
10
318.571
20
347.857
10
319.286
20
337.143
0
LWPOLYLINE
8
LIGHT
90
5
70
1
10
313.571
20
428.571
10
314.286
20
433.571
10
319.286
20
432.857
10
318.571
20
427.857
10
313.571
20
428.571
0
LWPOLYLINE
8
LIGHT
90
5
70
1
10
307.857
20
257.143
10
308.571
20
262.143
10
313.571
20
261.429
10
312.857
20
256.429
10
307.857
20
257.143
0
LWPOLYLINE
8
LIGHT
90
5
70
1
10
301.429
20
90.714
10
290.714
20
91.429
10
291.429
20
96.429
10
302.143
20
95.714
10
301.429
20
90.714
0
LWPOLYLINE
8
LIGHT
90
5
70
1
10
295.714
20
285.000
10
290.714
20
285.714
10
291.429
20
290.714
10
296.429
20
290.000
10
295.714
20
285.000
0
LWPOLYLINE
8
LIGHT
90
5
70
1
10
291.429
20
307.857
10
296.429
20
307.143
10
295.714
20
302.143
10
290.714
20
302.857
10
291.429
20
307.857
0
LWPOLYLINE
8
LIGHT
90
5
70
1
10
290.714
20
325.714
10
290.714
20
352.857
10
295.714
20
353.571
10
296.429
20
325.714
10
290.714
20
325.714
0
LWPOLYLINE
8
LIGHT
90
5
70
1
10
280.000
20
262.143
10
285.000
20
261.429
10
284.286
20
256.429
10
279.286
20
257.143
10
280.000
20
262.143
0
LWPOLYLINE
8
LIGHT
90
5
70
1
10
273.571
20
352.857
10
272.857
20
347.857
10
267.857
20
348.571
10
268.571
20
353.571
10
273.571
20
352.857
0
LWPOLYLINE
8
LIGHT
90
5
70
1
10
273.571
20
268.571
10
267.857
20
268.571
10
267.857
20
278.571
10
272.857
20
279.286
10
273.571
20
268.571
0
LWPOLYLINE
8
LIGHT
90
5
70
1
10
251.429
20
359.286
10
256.429
20
358.571
10
255.714
20
353.571
10
250.714
20
354.286
10
251.429
20
359.286
0
LWPOLYLINE
8
LIGHT
90
5
70
1
10
124.286
20
290.714
10
119.286
20
291.429
10
120.000
20
296.429
10
125.000
20
295.714
10
124.286
20
290.714
0
LWPOLYLINE
8
LIGHT
90
5
70
1
10
124.286
20
193.571
10
125.000
20
160.000
10
119.286
20
160.000
10
119.286
20
192.857
10
124.286
20
193.571
0
LWPOLYLINE
8
LIGHT
90
5
70
1
10
124.286
20
142.143
10
125.000
20
114.286
10
119.286
20
114.286
10
119.286
20
141.429
10
124.286
20
142.143
0
LWPOLYLINE
8
LIGHT
90
5
70
1
10
119.286
20
255.714
10
124.286
20
256.429
10
125.000
20
234.286
10
119.286
20
234.286
10
119.286
20
255.714
0
LWPOLYLINE
8
LIGHT
90
5
70
1
10
119.286
20
227.143
10
124.286
20
227.857
10
125.000
20
205.714
10
119.286
20
205.714
10
119.286
20
227.143
0
LWPOLYLINE
8
MEDIUM
90
5
70
1
10
456.429
20
108.571
10
457.143
20
113.571
10
462.143
20
112.857
10
461.429
20
107.857
10
456.429
20
108.571
0
LWPOLYLINE
8
MEDIUM
90
9
70
1
10
377.143
20
102.143
10
387.143
20
102.143
10
388.571
20
107.857
10
393.571
20
107.143
10
394.286
20
102.143
10
405.000
20
101.429
10
404.286
20
96.429
10
376.429
20
97.143
10
377.143
20
102.143
0
LWPOLYLINE
8
MEDIUM
90
5
70
1
10
394.286
20
113.571
10
399.286
20
112.857
10
398.571
20
107.857
10
393.571
20
108.571
10
394.286
20
113.571
0
LWPOLYLINE
8
MEDIUM
90
17
70
1
10
347.857
20
102.857
10
347.857
20
107.143
10
353.571
20
108.571
10
353.571
20
147.143
10
358.571
20
147.857
10
360.000
20
142.143
10
370.714
20
141.429
10
370.714
20
131.429
10
365.000
20
130.000
10
365.000
20
120.000
10
370.714
20
118.571
10
370.714
20
102.857
10
365.000
20
101.429
10
364.286
20
96.429
10
353.571
20
97.143
10
352.857
20
102.143
10
347.857
20
102.857
0
LWPOLYLINE
8
MEDIUM
90
5
70
1
10
347.857
20
101.429
10
347.143
20
96.429
10
342.143
20
97.143
10
342.857
20
102.143
10
347.857
20
101.429
0
LWPOLYLINE
8
BLACK
90
5
70
1
10
393.571
20
102.857
10
394.286
20
107.857
10
399.286
20
107.143
10
398.571
20
102.143
10
393.571
20
102.857
0
ENDSEC
0
EOF