  0
SECTION
  2
HEADER
  9
$ACADVER
  1
AC1027
  9
$ACADMAINTVER
 70
105
  9
$DWGCODEPAGE
  3
ANSI_1252
  9
$LASTSAVEDBY
  1
ezdxf
  9
$REQUIREDVERSIONS
160
0
  9
$INSBASE
 10
0.0
 20
0.0
 30
0.0
  9
$EXTMIN
 10
1e+20
 20
1e+20
 30
1e+20
  9
$EXTMAX
 10
-1e+20
 20
-1e+20
 30
-1e+20
  9
$LIMMIN
 10
0.0
 20
0.0
  9
$LIMMAX
 10
420.0
 20
297.0
  9
$ORTHOMODE
 70
0
  9
$REGENMODE
 70
1
  9
$FILLMODE
 70
1
  9
$QTEXTMODE
 70
0
  9
$MIRRTEXT
 70
1
  9
$LTSCALE
 40
1.0
  9
$ATTMODE
 70
1
  9
$TEXTSIZE
 40
2.5
  9
$TRACEWID
 40
1.0
  9
$TEXTSTYLE
  7
Standard
  9
$CLAYER
  8
0
  9
$CELTYPE
  6
ByLayer
  9
$CECOLOR
 62
256
  9
$CELTSCALE
 40
1.0
  9
$DISPSILH
 70
0
  9
$DIMSCALE
 40
1.0
  9
$DIMASZ
 40
2.5
  9
$DIMEXO
 40
0.625
  9
$DIMDLI
 40
3.75
  9
$DIMRND
 40
0.0
  9
$DIMDLE
 40
0.0
  9
$DIMEXE
 40
1.25
  9
$DIMTP
 40
0.0
  9
$DIMTM
 40
0.0
  9
$DIMTXT
 40
2.5
  9
$DIMCEN
 40
2.5
  9
$DIMTSZ
 40
0.0
  9
$DIMTOL
 70
0
  9
$DIMLIM
 70
0
  9
$DIMTIH
 70
0
  9
$DIMTOH
 70
0
  9
$DIMSE1
 70
0
  9
$DIMSE2
 70
0
  9
$DIMTAD
 70
1
  9
$DIMZIN
 70
8
  9
$DIMBLK
  1

  9
$DIMASO
 70
1
  9
$DIMSHO
 70
1
  9
$DIMPOST
  1

  9
$DIMAPOST
  1

  9
$DIMALT
 70
0
  9
$DIMALTD
 70
3
  9
$DIMALTF
 40
0.03937007874
  9
$DIMLFAC
 40
1.0
  9
$DIMTOFL
 70
1
  9
$DIMTVP
 40
0.0
  9
$DIMTIX
 70
0
  9
$DIMSOXD
 70
0
  9
$DIMSAH
 70
0
  9
$DIMBLK1
  1

  9
$DIMBLK2
  1

  9
$DIMSTYLE
  2
ISO-25
  9
$DIMCLRD
 70
0
  9
$DIMCLRE
 70
0
  9
$DIMCLRT
 70
0
  9
$DIMTFAC
 40
1.0
  9
$DIMGAP
 40
0.625
  9
$DIMJUST
 70
0
  9
$DIMSD1
 70
0
  9
$DIMSD2
 70
0
  9
$DIMTOLJ
 70
0
  9
$DIMTZIN
 70
8
  9
$DIMALTZ
 70
0
  9
$DIMALTTZ
 70
0
  9
$DIMUPT
 70
0
  9
$DIMDEC
 70
2
  9
$DIMTDEC
 70
2
  9
$DIMALTU
 70
2
  9
$DIMALTTD
 70
3
  9
$DIMTXSTY
  7
Standard
  9
$DIMAUNIT
 70
0
  9
$DIMADEC
 70
0
  9
$DIMALTRND
 40
0.0
  9
$DIMAZIN
 70
0
  9
$DIMDSEP
 70
44
  9
$DIMATFIT
 70
3
  9
$DIMFRAC
 70
0
  9
$DIMLDRBLK
  1

  9
$DIMLUNIT
 70
2
  9
$DIMLWD
 70
-2
  9
$DIMLWE
 70
-2
  9
$DIMTMOVE
 70
0
  9
$DIMFXL
 40
1.0
  9
$DIMFXLON
 70
0
  9
$DIMJOGANG
 40
0.785398163397
  9
$DIMTFILL
 70
0
  9
$DIMTFILLCLR
 70
0
  9
$DIMARCSYM
 70
0
  9
$DIMLTYPE
  6

  9
$DIMLTEX1
  6

  9
$DIMLTEX2
  6

  9
$DIMTXTDIRECTION
 70
0
  9
$LUNITS
 70
2
  9
$LUPREC
 70
4
  9
$SKETCHINC
 40
1.0
  9
$FILLETRAD
 40
10.0
  9
$AUNITS
 70
0
  9
$AUPREC
 70
2
  9
$MENU
  1
.
  9
$ELEVATION
 40
0.0
  9
$PELEVATION
 40
0.0
  9
$THICKNESS
 40
0.0
  9
$LIMCHECK
 70
0
  9
$CHAMFERA
 40
0.0
  9
$CHAMFERB
 40
0.0
  9
$CHAMFERC
 40
0.0
  9
$CHAMFERD
 40
0.0
  9
$SKPOLY
 70
0
  9
$TDCREATE
 40
2461239.5755208335
  9
$TDUCREATE
 40
2458532.153996898
  9
$TDUPDATE
 40
2461239.5755208335
  9
$TDUUPDATE
 40
2458532.1544311
  9
$TDINDWG
 40
0.0
  9
$TDUSRTIMER
 40
0.0
  9
$USRTIMER
 70
1
  9
$ANGBASE
 50
0.0
  9
$ANGDIR
 70
0
  9
$PDMODE
 70
0
  9
$PDSIZE
 40
0.0
  9
$PLINEWID
 40
0.0
  9
$SPLFRAME
 70
0
  9
$SPLINETYPE
 70
6
  9
$SPLINESEGS
 70
8
  9
$HANDSEED
  5
43
  9
$SURFTAB1
 70
6
  9
$SURFTAB2
 70
6
  9
$SURFTYPE
 70
6
  9
$SURFU
 70
6
  9
$SURFV
 70
6
  9
$UCSBASE
  2

  9
$UCSNAME
  2

  9
$UCSORG
 10
0.0
 20
0.0
 30
0.0
  9
$UCSXDIR
 10
1.0
 20
0.0
 30
0.0
  9
$UCSYDIR
 10
0.0
 20
1.0
 30
0.0
  9
$UCSORTHOREF
  2

  9
$UCSORTHOVIEW
 70
0
  9
$UCSORGTOP
 10
0.0
 20
0.0
 30
0.0
  9
$UCSORGBOTTOM
 10
0.0
 20
0.0
 30
0.0
  9
$UCSORGLEFT
 10
0.0
 20
0.0
 30
0.0
  9
$UCSORGRIGHT
 10
0.0
 20
0.0
 30
0.0
  9
$UCSORGFRONT
 10
0.0
 20
0.0
 30
0.0
  9
$UCSORGBACK
 10
0.0
 20
0.0
 30
0.0
  9
$PUCSBASE
  2

  9
$PUCSNAME
  2

  9
$PUCSORG
 10
0.0
 20
0.0
 30
0.0
  9
$PUCSXDIR
 10
1.0
 20
0.0
 30
0.0
  9
$PUCSYDIR
 10
0.0
 20
1.0
 30
0.0
  9
$PUCSORTHOREF
  2

  9
$PUCSORTHOVIEW
 70
0
  9
$PUCSORGTOP
 10
0.0
 20
0.0
 30
0.0
  9
$PUCSORGBOTTOM
 10
0.0
 20
0.0
 30
0.0
  9
$PUCSORGLEFT
 10
0.0
 20
0.0
 30
0.0
  9
$PUCSORGRIGHT
 10
0.0
 20
0.0
 30
0.0
  9
$PUCSORGFRONT
 10
0.0
 20
0.0
 30
0.0
  9
$PUCSORGBACK
 10
0.0
 20
0.0
 30
0.0
  9
$USERI1
 70
0
  9
$USERI2
 70
0
  9
$USERI3
 70
0
  9
$USERI4
 70
0
  9
$USERI5
 70
0
  9
$USERR1
 40
0.0
  9
$USERR2
 40
0.0
  9
$USERR3
 40
0.0
  9
$USERR4
 40
0.0
  9
$USERR5
 40
0.0
  9
$WORLDVIEW
 70
1
  9
$SHADEDGE
 70
3
  9
$SHADEDIF
 70
70
  9
$TILEMODE
 70
1
  9
$MAXACTVP
 70
64
  9
$PINSBASE
 10
0.0
 20
0.0
 30
0.0
  9
$PLIMCHECK
 70
0
  9
$PEXTMIN
 10
1e+20
 20
1e+20
 30
1e+20
  9
$PEXTMAX
 10
-1e+20
 20
-1e+20
 30
-1e+20
  9
$PLIMMIN
 10
0.0
 20
0.0
  9
$PLIMMAX
 10
420.0
 20
297.0
  9
$UNITMODE
 70
0
  9
$VISRETAIN
 70
1
  9
$PLINEGEN
 70
0
  9
$PSLTSCALE
 70
1
  9
$TREEDEPTH
 70
3020
  9
$CMLSTYLE
  2
Standard
  9
$CMLJUST
 70
0
  9
$CMLSCALE
 40
20.0
  9
$PROXYGRAPHICS
 70
1
  9
$MEASUREMENT
 70
1
  9
$CELWEIGHT
370
-1
  9
$ENDCAPS
280
0
  9
$JOINSTYLE
280
0
  9
$LWDISPLAY
290
0
  9
$INSUNITS
 70
4
  9
$HYPERLINKBASE
  1

  9
$STYLESHEET
  1

  9
$XEDIT
290
1
  9
$CEPSNTYPE
380
0
  9
$PSTYLEMODE
290
1
  9
$FINGERPRINTGUID
  2
{DA784F96-5D21-4A1A-A477-656374F90D39}
  9
$VERSIONGUID
  2
{321D8612-5891-4494-BE9F-570B8D6065C0}
  9
$EXTNAMES
290
1
  9
$PSVPSCALE
 40
0.0
  9
$OLESTARTUP
290
0
  9
$SORTENTS
280
127
  9
$INDEXCTL
280
0
  9
$HIDETEXT
280
1
  9
$XCLIPFRAME
280
1
  9
$HALOGAP
280
0
  9
$OBSCOLOR
 70
257
  9
$OBSLTYPE
280
0
  9
$INTERSECTIONDISPLAY
280
0
  9
$INTERSECTIONCOLOR
 70
257
  9
$DIMASSOC
280
2
  9
$PROJECTNAME
  1

  9
$CAMERADISPLAY
290
0
  9
$LENSLENGTH
 40
50.0
  9
$CAMERAHEIGHT
 40
0.0
  9
$STEPSPERSEC
 40
24.0
  9
$STEPSIZE
 40
100.0
  9
$3DDWFPREC
 40
2.0
  9
$PSOLWIDTH
 40
0.005
  9
$PSOLHEIGHT
 40
0.08
  9
$LOFTANG1
 40
1.570796326795
  9
$LOFTANG2
 40
1.570796326795
  9
$LOFTMAG1
 40
0.0
  9
$LOFTMAG2
 40
0.0
  9
$LOFTPARAM
 70
7
  9
$LOFTNORMALS
280
1
  9
$LATITUDE
 40
37.795
  9
$LONGITUDE
 40
-122.394
  9
$NORTHDIRECTION
 40
0.0
  9
$TIMEZONE
 70
-8000
  9
$LIGHTGLYPHDISPLAY
280
1
  9
$TILEMODELIGHTSYNCH
280
1
  9
$CMATERIAL
347
20
  9
$SOLIDHIST
280
0
  9
$SHOWHIST
280
1
  9
$DWFFRAME
280
2
  9
$DGNFRAME
280
2
  9
$REALWORLDSCALE
290
1
  9
$INTERFERECOLOR
 62
256
  9
$CSHADOW
280
0
  9
$SHADOWPLANELOCATION
 40
0.0
  0
ENDSEC
  0
SECTION
  2
CLASSES
  0
CLASS
  1
ACDBDICTIONARYWDFLT
  2
AcDbDictionaryWithDefault
  3
ObjectDBX Classes
 90
0
 91
0
280
0
281
0
  0
CLASS
  1
SUN
  2
AcDbSun
  3
SCENEOE
 90
1153
 91
0
280
0
281
0
  0
CLASS
  1
VISUALSTYLE
  2
AcDbVisualStyle
  3
ObjectDBX Classes
 90
4095
 91
0
280
0
281
0
  0
CLASS
  1
MATERIAL
  2
AcDbMaterial
  3
ObjectDBX Classes
 90
1153
 91
0
280
0
281
0
  0
CLASS
  1
SCALE
  2
AcDbScale
  3
ObjectDBX Classes
 90
1153
 91
0
280
0
281
0
  0
CLASS
  1
TABLESTYLE
  2
AcDbTableStyle
  3
ObjectDBX Classes
 90
4095
 91
0
280
0
281
0
  0
CLASS
  1
MLEADERSTYLE
  2
AcDbMLeaderStyle
  3
ACDB_MLEADERSTYLE_CLASS
 90
4095
 91
0
280
0
281
0
  0
CLASS
  1
DICTIONARYVAR
  2
AcDbDictionaryVar
  3
ObjectDBX Classes
 90
0
 91
0
280
0
281
0
  0
CLASS
  1
CELLSTYLEMAP
  2
AcDbCellStyleMap
  3
ObjectDBX Classes
 90
1152
 91
0
280
0
281
0
  0
CLASS
  1
MENTALRAYRENDERSETTINGS
  2
AcDbMentalRayRenderSettings
  3
SCENEOE
 90
1024
 91
0
280
0
281
0
  0
CLASS
  1
ACDBDETAILVIEWSTYLE
  2
AcDbDetailViewStyle
  3
ObjectDBX Classes
 90
1025
 91
0
280
0
281
0
  0
CLASS
  1
ACDBSECTIONVIEWSTYLE
  2
AcDbSectionViewStyle
  3
ObjectDBX Classes
 90
1025
 91
0
280
0
281
0
  0
CLASS
  1
RASTERVARIABLES
  2
AcDbRasterVariables
  3
ISM
 90
0
 91
0
280
0
281
0
  0
CLASS
  1
ACDBPLACEHOLDER
  2
AcDbPlaceHolder
  3
ObjectDBX Classes
 90
0
 91
0
280
0
281
0
  0
CLASS
  1
LAYOUT
  2
AcDbLayout
  3
ObjectDBX Classes
 90
0
 91
0
280
0
281
0
  0
ENDSEC
  0
SECTION
  2
TABLES
  0
TABLE
  2
VPORT
  5
8
330
0
100
AcDbSymbolTable
 70
1
  0
VPORT
  5
23
330
8
100
AcDbSymbolTableRecord
100
AcDbViewportTableRecord
  2
*Active
 70
0
 10
0.0
 20
0.0
 11
1.0
 21
1.0
 12
0.0
 22
0.0
 13
0.0
 23
0.0
 14
0.5
 24
0.5
 15
0.5
 25
0.5
 16
0.0
 26
0.0
 36
1.0
 17
0.0
 27
0.0
 37
0.0
 40
1000.0
 41
1.34
 42
50.0
 43
0.0
 44
0.0
 50
0.0
 51
0.0
 71
0
 72
1000
 73
1
 74
3
 75
0
 76
0
 77
0
 78
0
281
0
 65
0
146
0.0
  0
ENDTAB
  0
TABLE
  2
LTYPE
  5
2
330
0
100
AcDbSymbolTable
 70
3
  0
LTYPE
  5
24
330
2
100
AcDbSymbolTableRecord
100
AcDbLinetypeTableRecord
  2
ByBlock
 70
0
  3

 72
65
 73
0
 40
0.0
  0
LTYPE
  5
25
330
2
100
AcDbSymbolTableRecord
100
AcDbLinetypeTableRecord
  2
ByLayer
 70
0
  3

 72
65
 73
0
 40
0.0
  0
LTYPE
  5
26
330
2
100
AcDbSymbolTableRecord
100
AcDbLinetypeTableRecord
  2
Continuous
 70
0
  3

 72
65
 73
0
 40
0.0
  0
ENDTAB
  0
TABLE
  2
LAYER
  5
1
330
0
100
AcDbSymbolTable
 70
3
  0
LAYER
  5
27
330
1
100
AcDbSymbolTableRecord
100
AcDbLayerTableRecord
  2
0
 70
0
 62
7
  6
Continuous
370
-3
390
13
347
21
  0
LAYER
  5
28
330
1
100
AcDbSymbolTableRecord
100
AcDbLayerTableRecord
  2
Defpoints
 70
0
 62
7
  6
Continuous
290
0
370
-3
390
13
347
21
  0
LAYER
  5
2F
330
1
100
AcDbSymbolTableRecord
100
AcDbLayerTableRecord
  2
M
 70
0
 62
7
  6
Continuous
370
-3
390
13
347
21
  0
ENDTAB
  0
TABLE
  2
STYLE
  5
5
330
0
100
AcDbSymbolTable
 70
1
  0
STYLE
  5
29
330
5
100
AcDbSymbolTableRecord
100
AcDbTextStyleTableRecord
  2
Standard
 70
0
 40
0.0
 41
1.0
 50
0.0
 71
0
 42
2.5
  3
txt
  4

  0
ENDTAB
  0
TABLE
  2
VIEW
  5
7
330
0
100
AcDbSymbolTable
 70
0
  0
ENDTAB
  0
TABLE
  2
UCS
  5
6
330
0
100
AcDbSymbolTable
 70
0
  0
ENDTAB
  0
TABLE
  2
APPID
  5
3
330
0
100
AcDbSymbolTable
 70
3
  0
APPID
  5
2A
330
3
100
AcDbSymbolTableRecord
100
AcDbRegAppTableRecord
  2
ACAD
 70
0
  0
APPID
  5
40
330
3
100
AcDbSymbolTableRecord
100
AcDbRegAppTableRecord
  2
HATCHBACKGROUNDCOLOR
 70
0
  0
APPID
  5
41
330
3
100
AcDbSymbolTableRecord
100
AcDbRegAppTableRecord
  2
EZDXF
 70
0
  0
ENDTAB
  0
TABLE
  2
DIMSTYLE
  5
4
330
0
100
AcDbSymbolTable
 70
1
100
AcDbDimStyleTable
  0
DIMSTYLE
105
2B
330
4
100
AcDbSymbolTableRecord
100
AcDbDimStyleTableRecord
  2
Standard
 70
0
 40
1.0
 41
2.5
 42
0.625
 43
3.75
 44
1.25
 45
0.0
 46
0.0
 47
0.0
 48
0.0
 49
2.5
140
2.5
141
2.5
142
0.0
143
0.03937007874
144
1.0
145
0.0
146
1.0
147
0.625
148
0.0
 69
0
 70
0
 71
0
 72
0
 73
0
 74
0
 75
0
 76
0
 77
1
 78
8
 79
3
170
0
171
3
172
1
173
0
174
0
175
0
176
0
177
0
178
0
179
2
271
2
272
2
273
2
274
3
275
0
276
0
277
2
278
44
279
0
280
0
281
0
282
0
283
0
284
8
285
0
286
0
288
0
289
3
290
0
371
-2
372
-2
  0
ENDTAB
  0
TABLE
  2
BLOCK_RECORD
  5
9
330
0
100
AcDbSymbolTable
 70
2
  0
BLOCK_RECORD
  5
17
330
9
100
AcDbSymbolTableRecord
100
AcDbBlockTableRecord
  2
*Model_Space
340
1A
 70
0
280
1
281
0
  0
BLOCK_RECORD
  5
1B
330
9
100
AcDbSymbolTableRecord
100
AcDbBlockTableRecord
  2
*Paper_Space
340
1E
 70
0
280
1
281
0
  0
ENDTAB
  0
ENDSEC
  0
SECTION
  2
BLOCKS
  0
BLOCK
  5
18
330
17
100
AcDbEntity
  8
0
100
AcDbBlockBegin
  2
*Model_Space
 70
0
 10
0.0
 20
0.0
 30
0.0
  3
*Model_Space
  1

  0
ENDBLK
  5
19
330
17
100
AcDbEntity
  8
0
100
AcDbBlockEnd
  0
BLOCK
  5
1C
330
1B
100
AcDbEntity
  8
0
100
AcDbBlockBegin
  2
*Paper_Space
 70
0
 10
0.0
 20
0.0
 30
0.0
  3
*Paper_Space
  1

  0
ENDBLK
  5
1D
330
1B
100
AcDbEntity
  8
0
100
AcDbBlockEnd
  0
ENDSEC
  0
SECTION
  2
ENTITIES
  0
LWPOLYLINE
  5
30
330
17
100
AcDbEntity
  8
M
100
AcDbPolyline
 90
125
 70
1
 10
60.06707532224298
 20
466.8641333939485
 10
52.57450578468059
 20
473.70258971791424
 10
45.90561260376735
 20
473.70258971791424
 10
37.57227927043405
 20
481.91687543219996
 10
32.557080595064015
 20
481.91687543219996
 10
28.329544363180027
 20
488.8621135274381
 10
35.013279830001686
 20
499.8425360800738
 10
35.013279830001686
 20
505.3187265562642
 10
38.346613163334986
 20
510.79491703245475
 10
38.346613163334986
 20
532.6996789372166
 10
40.01327983000169
 20
535.4377741753118
 10
40.01327983000169
 20
557.3425360800737
 10
41.679946496668286
 20
560.080631318169
 10
41.679946496668286
 20
565.5007385938501
 10
39.223747261730615
 20
569.5359230512476
 10
35.8904139283972
 20
569.5359230512476
 10
30.013279830001682
 20
579.1912147843262
 10
30.013279830001682
 20
584.6674052605167
 10
23.35209111633352
 20
595.6107867186857
 10
21.68422099933709
 20
603.8310037238823
 10
11.67994649666837
 20
625.7451288249664
 10
11.67994649666837
 20
631.2756984988072
 10
21.67994649666827
 20
644.9661746892834
 10
21.67994649666827
 20
647.659638688772
 10
18.34661316333508
 20
661.3501148792483
 10
18.34661316333508
 20
669.548357641469
 10
15.013279830001668
 20
675.0245481176596
 10
15.013279830001668
 20
680.5007385938501
 10
13.349017710224121
 20
683.2348835049131
 10
11.681967516919745
 20
702.4059607279141
 10
4.197868351341616
 20
717.4335566714959
 10
0.0
 20
721.5714554749611
 10
3.354624306443621
 20
732.5937924818475
 10
8.346613163335071
 20
740.7949170324547
 10
8.346613163335071
 20
746.2638646324701
 10
12.547715167358309
 20
755.9263992417236
 10
66.01217782597834
 20
755.9263992417236
 10
70.21149079891265
 20
746.2679794039747
 10
71.87866326902304
 20
727.0954959977057
 10
75.2132798300017
 20
716.138898725919
 10
75.2132798300017
 20
707.9322082887047
 10
81.0099108441924
 20
695.6883040036286
 10
82.66947906493938
 20
695.6883040036286
 10
91.0028123982728
 20
681.9978278131523
 10
94.33614573160598
 20
681.9978278131523
 10
95.99751026631631
 20
679.2684432204139
 10
114.2434153127293
 20
681.9934809870861
 10
122.58336338138098
 20
687.4740182893429
 10
134.22374726173058
 20
687.4740182893429
 10
135.8904139283973
 20
690.2121135274381
 10
161.00281239827262
 20
690.2121135274381
 10
162.66947906493934
 20
687.4740182893429
 10
172.6490856641929
 20
687.4740182893429
 10
179.31575233085962
 20
681.9978278131523
 10
182.65738775610942
 20
681.9978278131523
 10
197.6936616825996
 20
665.5295277984251
 10
203.54113521033656
 20
655.9229641457144
 10
205.20900532733287
 20
647.7027471405177
 10
210.2132798300017
 20
636.7410029918145
 10
210.2132798300017
 20
587.4055004986118
 10
208.546613163335
 20
584.6674052605165
 10
208.546613163335
 20
579.191214784326
 10
205.2132798300016
 20
573.7150243081355
 10
205.2132798300016
 20
565.5159513833049
 10
200.2132798300017
 20
546.3492847166383
 10
200.2132798300017
 20
540.864176444014
 10
195.2132798300016
 20
529.911795491633
 10
195.2132798300016
 20
518.9647105098024
 10
190.97266481721687
 20
506.4246061148533
 10
189.22374726173052
 20
509.29782781315237
 10
175.91828204716907
 20
509.29782781315237
 10
162.58494871383567
 20
517.512113527438
 10
152.54153323788643
 20
517.512113527438
 10
148.35543237474803
 20
529.8910117941476
 10
143.35076780542576
 20
538.1129607294629
 10
141.68285650951918
 20
549.0735206739919
 10
138.33503368086897
 20
557.323512644594
 10
140.946613163335
 20
561.6139646515023
 10
144.33614573160602
 20
556.0454468607714
 10
147.65738775610959
 20
556.0454468607714
 10
152.60405214919894
 20
550.627671573102
 10
163.35971351828272
 20
565.5792228169383
 10
168.34661316333498
 20
576.5029077537193
 10
168.34661316333498
 20
581.9768686111211
 10
171.6799464966684
 20
590.1911543254068
 10
171.6799464966684
 20
601.1520598895975
 10
173.346613163335
 20
603.8901551276929
 10
173.346613163335
 20
628.4769290700405
 10
171.6799464966684
 20
631.2150243081358
 10
171.6799464966684
 20
636.6912147843262
 10
167.53137448265176
 20
643.5067259502106
 10
160.89898263253465
 20
651.6787801941048
 10
152.5570805950639
 20
651.6787801941048
 10
150.89041392839718
 20
654.4168754322
 10
146.00281239827274
 20
654.4168754322
 10
144.33614573160602
 20
651.6787801941048
 10
131.0028123982727
 20
651.6787801941048
 10
129.3361457316061
 20
648.9406849560096
 10
124.32405442277616
 20
648.9406849560096
 10
119.32405442277627
 20
643.464494479819
 10
114.32405442277616
 20
643.464494479819
 10
109.32405442277626
 20
637.9883040036286
 10
106.00801786556036
 20
637.9883040036286
 10
97.67468453222705
 20
621.5597325750572
 10
95.88702032499008
 20
621.5597325750572
 10
82.60817737908388
 20
646.1018798054373
 10
78.546613163335
 20
639.4293100224214
 10
78.546613163335
 20
628.4769290700405
 10
75.2132798300017
 20
623.0007385938501
 10
75.2132798300017
 20
612.048357641469
 10
73.546613163335
 20
609.3102624033738
 10
73.546613163335
 20
598.3578814509929
 10
71.87783843209405
 20
595.6163229639542
 10
70.21075041360336
 20
573.7060232923627
 10
61.89051142640012
 20
562.7708520520384
 10
65.20526868689313
 20
551.8795067675616
 10
70.20526868689304
 20
543.6652210532759
 10
73.546613163335
 20
532.6865177735383
 10
73.546613163335
 20
527.2234884610261
 10
80.20855374073865
 20
516.2788717981485
 10
83.55056961477447
 20
497.0622805224431
 10
77.69608749198764
 20
484.6961805283935
 10
73.5321058852293
 20
480.59168437316015
 10
67.67666294662978
 20
465.4750816847352
 10
60.06707532224298
 20
466.8641333939485
  0
LWPOLYLINE
  5
31
330
17
100
AcDbEntity
  8
M
100
AcDbPolyline
 90
95
 70
1
 10
62.54910531732294
 20
95.86657747586868
 10
52.541775063628336
 20
101.34678213860614
 10
47.557080595063915
 20
109.5359230512476
 10
44.223747261730615
 20
109.5359230512476
 10
39.223747261730615
 20
117.75020876553333
 10
34.22374726173061
 20
117.75020876553333
 10
26.665360849448703
 20
130.1675578714252
 10
35.88563366224451
 20
148.0692563845809
 10
37.56077871160524
 20
148.0692563845809
 10
51.67994649666829
 20
168.53611724948325
 10
51.67994649666829
 20
173.99954034116516
 10
60.0132798300016
 20
195.90430224592703
 10
60.0132798300016
 20
201.37699396401442
 10
63.337904344267784
 20
212.30076022517474
 10
57.55708059506392
 20
221.7978278131524
 10
54.23231596586808
 20
221.7978278131524
 10
47.565649299201375
 20
230.01211352743812
 10
44.233778942942
 20
230.01211352743812
 10
32.5528798156719
 20
243.719291074745
 10
25.88348476207869
 20
246.458506900328
 10
17.563711603770127
 20
257.3930659083905
 10
12.557080595063997
 20
257.3930659083905
 10
6.6734207705021475
 20
267.05907847731345
 10
11.67896369860555
 20
288.988123686147
 10
10.012297031938843
 20
308.1547903528137
 10
15.018444211568172
 20
330.08648275880915
 10
22.55136704495664
 20
345.2121135274381
 10
30.890413928397308
 20
345.2121135274381
 10
32.557080595064015
 20
347.95020876553326
 10
52.55708059506392
 20
347.95020876553326
 10
54.22374726173062
 20
350.6883040036286
 10
62.55708059506393
 20
350.6883040036286
 10
64.22374726173064
 20
353.4263992417238
 10
72.55708059506394
 20
353.4263992417238
 10
74.22374726173054
 20
356.16449447981904
 10
80.90250523722719
 20
356.16449447981904
 10
85.90250523722709
 20
361.6406849560095
 10
90.89041392839736
 20
361.6406849560095
 10
95.88036601974892
 20
369.8384633918016
 10
104.32411125905894
 20
372.6128368275748
 10
106.0028123982727
 20
369.85497067029524
 10
110.89171857414948
 20
369.85497067029524
 10
149.22505190748282
 20
430.0930659083905
 10
197.66947906493948
 20
430.0930659083905
 10
200.23034863015698
 20
425.88592305124763
 10
197.66947906493948
 20
421.6787801941048
 10
196.00281239827277
 20
421.6787801941048
 10
187.66947906493925
 20
407.9883040036286
 10
184.33219802472155
 20
407.9883040036286
 10
157.69066614285643
 20
369.6911019234472
 10
144.35948176628088
 20
356.00283225107063
 10
138.55007320952205
 20
346.4588039078241
 10
140.21673987618877
 20
332.76832771734786
 10
137.66947906493942
 20
328.58354209886664
 10
131.0028123982727
 20
328.58354209886664
 10
129.3361457316061
 20
325.84544686077146
 10
111.0028123982727
 20
325.84544686077146
 10
109.33614573160611
 20
323.1073516226762
 10
101.0028123982727
 20
323.1073516226762
 10
99.3361457316061
 20
320.36925638458104
 10
91.0028123982728
 20
320.36925638458104
 10
89.33614573160608
 20
317.6311611464857
 10
77.66947906493937
 20
317.6311611464857
 10
75.2132798300017
 20
313.5959766890881
 10
75.2132798300017
 20
297.1674052605168
 10
73.56964702385494
 20
294.467151364704
 10
79.33607367669804
 20
287.7004262108577
 10
89.33607367669805
 20
284.96233097276246
 10
95.21901191613303
 20
278.0588830387315
 10
91.8770364838175
 20
256.09733019780134
 10
85.2103698171509
 20
239.6687587692299
 10
83.55094789814265
 20
228.76398615860415
 10
86.00281239827268
 20
224.73592305124757
 10
91.0028123982728
 20
224.73592305124757
 10
92.67481680261925
 20
221.98905867267814
 10
109.31711522955645
 20
219.25496678825286
 10
117.68700092248407
 20
213.75475619004325
 10
120.23303376937989
 20
209.5719879415715
 10
97.66473031277789
 20
177.9883040036285
 10
94.33139697944448
 20
177.9883040036285
 10
71.89970043604654
 20
146.59579746538108
 10
76.01024936970579
 20
139.842752788655
 10
87.67110693012292
 20
137.10602091223066
 10
95.99618138956644
 20
126.16449447981904
 10
99.3361457316061
 20
126.16449447981904
 10
110.21327983000162
 20
108.29491703245486
 10
110.21327983000162
 20
105.5007385938499
 10
107.6694790649394
 20
101.32163733696187
 10
102.6694790649394
 20
101.32163733696187
 10
99.3361457316061
 20
95.84544686077146
 10
92.66947906493938
 20
95.84544686077146
 10
89.348300196193
 20
90.38922443354525
 10
76.01496686285958
 20
84.91303395735483
 10
74.29349290299592
 20
82.08489816615017
 10
62.54910531732294
 20
95.86657747586868
  0
LWPOLYLINE
  5
32
330
17
100
AcDbEntity
  8
M
100
AcDbPolyline
 90
41
 70
1
 10
654.2192576458527
 20
49.30520361066593
 10
651.6628776965133
 20
53.50497067029525
 10
654.2237472617306
 20
57.712113527438106
 10
669.336145731606
 20
57.712113527438106
 10
671.0051072076593
 20
54.970248245350795
 10
710.8927986425567
 20
52.23984079593802
 10
713.3326831769907
 20
56.24822253107975
 10
692.5509695041641
 20
98.58354209886666
 10
659.2237472617306
 20
98.58354209886666
 10
655.0174344720924
 20
105.49391311041522
 10
653.3492542866965
 20
116.4562400430168
 10
648.3361745526294
 20
130.1825297910576
 10
650.8904139283973
 20
134.37878019410476
 10
655.8904139283973
 20
134.37878019410476
 10
657.557080595064
 20
137.11687543219998
 10
679.309862945289
 20
137.11687543219998
 10
695.9765296119557
 20
126.16449447981904
 10
701.0028123982727
 20
126.16449447981904
 10
704.336145731606
 20
120.68830400362852
 10
710.9907210894428
 20
120.68830400362852
 10
715.9907210894428
 20
115.21211352743809
 10
720.9824189975262
 20
115.21211352743809
 10
727.649085664193
 20
109.73592305124757
 10
730.9907210894429
 20
109.73592305124757
 10
735.9907210894429
 20
104.25973257505716
 10
742.6573877561094
 20
104.25973257505716
 10
747.5972034594821
 20
98.84945823326807
 10
749.2136993530823
 20
101.50513005846817
 10
757.6497328909181
 20
104.27696964947143
 10
765.9961813895665
 20
93.30735162267622
 10
770.997405664161
 20
93.30735162267622
 10
781.0142085500008
 20
79.59387148134789
 10
791.0126863235583
 20
74.11851460535235
 10
798.560389792042
 20
64.47422684006754
 10
792.684768326768
 20
49.30553060828902
 10
769.3400189584444
 20
46.56609573343473
 10
765.9466131633349
 20
40.99121478432621
 10
764.2242848230512
 20
43.820754200506464
 10
676.7242848230512
 20
42.451706581458915
 10
674.2192576458527
 20
46.56710837257072
 10
654.2192576458527
 20
49.30520361066593
  0
LWPOLYLINE
  5
33
330
17
100
AcDbEntity
  8
M
100
AcDbPolyline
 90
130
 70
1
 10
705.9765296119556
 20
413.46449447981905
 10
697.6431962786222
 20
407.9883040036286
 10
687.649085664193
 20
407.9883040036286
 10
680.9824189975262
 20
402.5121135274381
 10
670.9961813895665
 20
402.5121135274381
 10
662.6628480562331
 20
391.5597325750572
 10
657.5774739958105
 20
391.5597325750572
 10
650.9108073291437
 20
397.03592305124766
 10
642.5774739958104
 20
397.03592305124766
 10
635.9108073291437
 20
402.5121135274381
 10
627.5833633813811
 20
402.5121135274381
 10
619.2062254041861
 20
408.017089912452
 10
616.6799464966683
 20
412.1674052605168
 10
616.6799464966683
 20
464.19121478432623
 10
614.2237472617305
 20
468.2263992417238
 10
569.2441406624771
 20
468.2263992417238
 10
565.8711028866275
 20
470.9971088433145
 10
537.5588625383809
 20
514.7740182893428
 10
535.8904139283973
 20
514.7740182893428
 10
522.557080595064
 20
536.6787801941048
 10
520.8933654493957
 20
536.6787801941048
 10
503.34661316333506
 20
562.7601772995758
 10
503.34661316333506
 20
571.0330122705499
 10
506.68410113875905
 20
576.5160282301753
 10
508.35029051263524
 20
587.4652726870753
 10
519.2196384342178
 20
608.0692563845809
 10
522.5637116037702
 20
608.0692563845809
 10
530.8834847620788
 20
619.0038153926434
 10
537.5545486529351
 20
621.743716633531
 10
542.5691719038938
 20
627.2359230512475
 10
579.336145731606
 20
627.2359230512475
 10
581.0028123982727
 20
624.4978278131523
 10
586.0028123982727
 20
624.4978278131523
 10
588.5449222787825
 20
620.3215044380291
 10
590.211588945449
 20
592.9405520570767
 10
591.890385107374
 20
590.1825297910575
 10
589.3025835072576
 20
583.0968825526438
 10
587.551742857384
 20
585.9732636202932
 10
570.8850761907175
 20
588.7113588583884
 10
569.2237472617306
 20
591.4406849560096
 10
555.9824189975263
 20
591.4406849560096
 10
549.3157523308596
 20
585.964494479819
 10
546.0028123982728
 20
585.964494479819
 10
540.2108752831125
 20
576.4491692191989
 10
538.5490769532068
 20
557.3384884252843
 10
540.2132798300016
 20
554.6044408419784
 10
540.2132798300016
 20
538.1627082497288
 10
543.546613163335
 20
527.2103272973478
 10
543.546613163335
 20
521.7369458407505
 10
548.5371612056921
 20
508.07235001048724
 10
556.0028123982728
 20
495.8073516226762
 10
560.8904139283974
 20
495.8073516226762
 10
565.8904139283973
 20
504.02163733696193
 10
569.2303782704369
 20
504.02163733696193
 10
577.5501514287454
 20
514.9561963450244
 10
584.2115927971438
 20
517.6921454784738
 10
589.2009492486754
 20
525.8889453631331
 10
601.6959587567181
 20
538.2054547353466
 10
610.0132798300017
 20
557.3352932038988
 10
610.0132798300017
 20
565.5614127845215
 10
620.0171610713469
 20
579.2572025792203
 10
625.0166241607985
 20
620.3242208140019
 10
626.6628776965133
 20
623.0287801941048
 10
622.557080595064
 20
629.7740182893428
 10
617.5507492867869
 20
629.7740182893428
 10
610.8840826201201
 20
643.464494479819
 10
597.557080595064
 20
643.464494479819
 10
593.3531233467817
 20
650.3709956734257
 10
590.0178562110265
 20
664.0694142667058
 10
583.3350336808691
 20
680.5377983588797
 10
585.8882090508871
 20
684.7323007524808
 10
627.5548757175538
 20
687.4703959905761
 10
629.2237472617306
 20
690.2121135274381
 10
739.3498852545736
 20
690.2121135274381
 10
741.8903851073738
 20
683.2559829781044
 10
736.8719353535599
 20
675.0113869539812
 10
731.8899117202723
 20
658.6418807303221
 10
743.5431548649692
 20
642.2322118122792
 10
746.8787109070227
 20
612.0930804322987
 10
751.8799464966685
 20
590.1829054681367
 10
751.8799464966685
 20
587.4055004986119
 10
743.5466131633349
 20
573.7150243081358
 10
743.5466131633349
 20
568.2869556604945
 10
761.8918800902215
 20
524.4489152118304
 10
759.3420391115268
 20
520.2598907468318
 10
744.3420391115271
 20
517.5217955087367
 10
742.6694790649394
 20
514.7740182893428
 10
727.6694790649394
 20
514.7740182893428
 10
726.0028123982727
 20
512.0359230512476
 10
719.3361457316059
 20
512.0359230512476
 10
717.6694790649394
 20
509.29782781315237
 10
702.6431962786222
 20
509.29782781315237
 10
694.309862945289
 20
503.82163733696194
 10
687.6694790649393
 20
503.82163733696194
 10
685.2132798300017
 20
499.78645287956437
 10
685.2132798300017
 20
486.0959766890881
 10
683.5680195661753
 20
483.3930491128019
 10
690.9953356143482
 20
473.9025897179142
 10
695.9824189975263
 20
473.9025897179142
 10
709.3157523308596
 20
462.95020876553326
 10
712.660910360802
 20
462.95020876553326
 10
719.3275770274686
 20
454.73592305124754
 10
724.3157523308596
 20
454.73592305124754
 10
734.3157523308596
 20
446.52163733696193
 10
739.2237472617305
 20
446.52163733696193
 10
740.9305367928155
 20
449.32564870945845
 10
746.0027640861987
 20
443.7703521500388
 10
754.3461936402543
 20
441.02893958227776
 10
756.0028123982728
 20
438.3073516226762
 10
760.990721089443
 20
438.3073516226762
 10
765.9907210894429
 20
432.83116114648567
 10
770.9907210894428
 20
432.83116114648567
 10
775.9907210894427
 20
427.35497067029524
 10
780.9824189975265
 20
427.35497067029524
 10
787.6490856641927
 20
421.87878019410476
 10
791.0028123982728
 20
421.87878019410476
 10
796.8799464966684
 20
412.2234884610262
 10
796.8799464966684
 20
403.9634716903161
 10
791.8799464966683
 20
390.27299549983985
 10
791.8799464966683
 20
384.78645287956437
 10
789.3461936402542
 20
380.6238589011699
 10
781.0027640861988
 20
377.88244633340884
 10
775.9907210894427
 20
372.3930659083905
 10
769.3240544227763
 20
372.3930659083905
 10
764.3240544227762
 20
366.91687543219996
 10
759.324054422776
 20
366.91687543219996
 10
754.3178703098187
 20
361.4339118799131
 10
745.0507261942518
 20
362.8179658711991
 10
715.8888002033896
 20
413.46449447981905
 10
705.9765296119556
 20
413.46449447981905
  0
LWPOLYLINE
  5
34
330
17
100
AcDbEntity
  8
M
100
AcDbPolyline
 90
20
 70
1
 10
634.2358385705604
 20
484.85497067029524
 10
639.2358385705604
 20
490.33116114648567
 10
645.9108073291437
 20
490.33116114648567
 10
652.5774739958104
 20
495.8073516226762
 10
657.5774739958105
 20
495.8073516226762
 10
667.5662926123653
 20
504.012452629132
 10
677.5485293615367
 20
506.74568411997654
 10
681.6675594578878
 20
513.5126621354106
 10
677.5477151673582
 20
522.9883040036286
 10
672.5570805950639
 20
522.9883040036286
 10
670.8904139283973
 20
525.7263992417238
 10
654.2237472617306
 20
525.7263992417238
 10
652.5570805950639
 20
528.464494479819
 10
642.5570805950639
 20
528.464494479819
 10
640.8904139283973
 20
531.2025897179142
 10
631.0028123982727
 20
531.2025897179142
 10
628.5466131633349
 20
527.1674052605167
 10
628.5466131633349
 20
488.8901551276928
 10
631.0028123982727
 20
484.85497067029524
 10
634.2358385705604
 20
484.85497067029524
  0
LWPOLYLINE
  5
35
330
17
100
AcDbEntity
  8
M
100
AcDbPolyline
 90
57
 70
1
 10
652.5691719038938
 20
284.7740182893429
 10
649.2237472617306
 20
284.7740182893429
 10
645.8904139283973
 20
290.25020876553333
 10
640.9907210894429
 20
290.25020876553333
 10
635.9907210894429
 20
284.7740182893429
 10
629.3240544227762
 20
284.7740182893429
 10
624.3240544227762
 20
279.29782781315237
 10
619.3240544227763
 20
279.29782781315237
 10
614.2638701261488
 20
273.75572120256066
 10
609.2237472617306
 20
282.0359230512477
 10
601.0028123982727
 20
282.0359230512477
 10
599.336145731606
 20
279.29782781315237
 10
562.5570805950639
 20
279.29782781315237
 10
558.3531233467817
 20
286.20432900675905
 10
555.0197900134484
 20
299.8948051972353
 10
548.3531233467817
 20
310.8471861496163
 10
545.0197900134483
 20
324.5376623400924
 10
541.6628776965133
 20
330.0525897179143
 10
544.2799464966683
 20
334.35205988959757
 10
546.0028123982728
 20
331.52163733696193
 10
559.336145731606
 20
331.52163733696193
 10
561.0028123982728
 20
328.78354209886663
 10
567.6694790649393
 20
328.78354209886663
 10
569.340635347484
 20
326.03807106325775
 10
589.340635347484
 20
323.29997582516256
 10
591.0066856251111
 20
320.56289322620347
 10
614.3286456995846
 20
317.8261326052193
 10
619.263870126149
 20
312.4208868046966
 10
620.8829769569642
 20
315.0808480267503
 10
632.5496436236308
 20
317.8189432648455
 10
634.2237472617306
 20
320.569256384581
 10
640.9108073291437
 20
320.569256384581
 10
647.5774739958105
 20
326.0454468607714
 10
652.5774739958104
 20
326.0454468607714
 10
659.2441406624771
 20
331.52163733696193
 10
664.3386627853974
 20
331.52163733696193
 10
682.6272783730002
 20
298.7446379721672
 10
697.5645573789885
 20
317.83116114648567
 10
704.2237472617306
 20
317.83116114648567
 10
705.8904139283973
 20
320.569256384581
 10
729.3397483933759
 20
320.569256384581
 10
741.8799464966683
 20
297.220601820832
 10
741.8799464966683
 20
291.74729798483565
 10
745.2176145648092
 20
286.26398615860415
 10
743.5424585212444
 20
275.25581787232
 10
739.3276736514464
 20
268.3315284433665
 10
727.5496436236308
 20
271.09575998050684
 10
725.8904139283973
 20
273.82163733696194
 10
714.2237472617306
 20
273.82163733696194
 10
712.557080595064
 20
276.5597325750572
 10
705.8904139283973
 20
276.5597325750572
 10
704.2237472617306
 20
279.29782781315237
 10
687.6573877561095
 20
279.29782781315237
 10
677.6266955334985
 20
268.31183156934037
 10
662.580657199582
 20
279.29782781315237
 10
657.5691719038939
 20
279.29782781315237
 10
652.5691719038938
 20
284.7740182893429
  0
LWPOLYLINE
  5
36
330
17
100
AcDbEntity
  8
M
100
AcDbPolyline
 90
16
 70
1
 10
532.544926130477
 20
410.7463672906881
 10
528.3238461746184
 20
417.68099864674144
 10
552.5318247083559
 20
446.48014552308433
 10
562.6132798300016
 20
463.0425360800737
 10
566.0181179297083
 20
457.44887348769856
 10
571.0181179297084
 20
454.71077824960327
 10
581.0028123982727
 20
438.3073516226762
 10
584.336145731606
 20
438.3073516226762
 10
594.361563920185
 20
421.83702174143957
 10
606.8935874615061
 20
406.73891718927644
 10
604.357239503332
 20
399.79415492284784
 10
596.0027640861987
 20
397.0491130000755
 10
590.9890094887139
 20
391.5578579647351
 10
558.4101867984941
 20
392.9302259535172
 10
539.2290953929142
 20
408.0010834864729
 10
532.544926130477
 20
410.7463672906881
  0
LWPOLYLINE
  5
37
330
17
100
AcDbEntity
  8
M
100
AcDbPolyline
 90
68
 70
1
 10
729.2201445999607
 20
320.36925638458104
 10
706.0028123982727
 20
320.36925638458104
 10
704.336145731606
 20
317.6311611464857
 10
697.6542803895692
 20
317.6311611464857
 10
689.3589437446612
 20
309.4543293107906
 10
682.609523139548
 20
298.3659954595332
 10
664.2212302079392
 20
331.32163733696194
 10
657.6573877561096
 20
331.32163733696194
 10
652.6573877561095
 20
325.84544686077146
 10
647.649085664193
 20
325.84544686077146
 10
640.9824189975263
 20
320.36925638458104
 10
634.3157523308596
 20
320.36925638458104
 10
627.649085664193
 20
314.8930659083905
 10
621.0028123982727
 20
314.8930659083905
 10
619.2960228671878
 20
312.089054535894
 10
614.2358385705604
 20
317.6311611464857
 10
605.8904139283973
 20
317.6311611464857
 10
604.2237472617305
 20
320.36925638458104
 10
590.8904139283973
 20
320.36925638458104
 10
589.2237472617306
 20
323.1073516226762
 10
582.5570805950639
 20
323.1073516226762
 10
580.8859243125194
 20
325.8528226582851
 10
560.8859243125195
 20
328.5909178963803
 10
559.2237472617306
 20
331.32163733696194
 10
547.5433410720963
 20
331.32163733696194
 10
545.0061280191376
 20
338.26876831530114
 10
548.346613163335
 20
346.5006781349307
 10
548.346613163335
 20
351.97573081735544
 10
556.682689189172
 20
373.88770208527
 10
558.3507678054257
 20
384.8493615635086
 10
562.5570805950639
 20
391.7597325750571
 10
590.902505237227
 20
391.7597325750571
 10
595.902505237227
 20
397.23592305124765
 10
600.9004456096086
 20
397.23592305124765
 10
606.6799464966683
 20
404.01799041871556
 10
606.6799464966683
 20
406.69121478432623
 10
599.2084417302951
 20
418.96582975765386
 10
594.2084417302951
 20
421.70392499574905
 10
584.2237472617306
 20
438.1073516226762
 10
580.8936968619502
 20
438.1073516226762
 10
564.9943796615123
 20
461.4781524699365
 10
569.2237472617306
 20
468.4263992417238
 10
614.336145731606
 20
468.4263992417238
 10
616.8799464966684
 20
464.24729798483565
 10
616.8799464966684
 20
412.2234884610262
 10
619.3536675891507
 20
408.1595180948052
 10
627.6431962786223
 20
402.7121135274381
 10
635.9824189975262
 20
402.7121135274381
 10
642.6490856641929
 20
397.23592305124765
 10
650.9824189975263
 20
397.23592305124765
 10
657.649085664193
 20
391.7597325750571
 10
662.5637116037701
 20
391.7597325750571
 10
670.8970449371036
 20
402.7121135274381
 10
680.9108073291436
 20
402.7121135274381
 10
687.5774739958104
 20
408.1883040036286
 10
697.5833633813811
 20
408.1883040036286
 10
705.9166967147144
 20
413.664494479819
 10
716.0043416797379
 20
413.664494479819
 10
746.8961982290168
 20
360.17029501127985
 10
736.8929347247088
 20
343.73636211134493
 10
741.8736773843292
 20
332.82616390455763
 10
750.2192619908749
 20
305.4049573401928
 10
746.8799464966684
 20
297.17592987232655
 10
746.8799464966684
 20
291.69121478432623
 10
744.2799464966683
 20
287.41978621289763
 10
741.6799464966682
 20
291.69121478432623
 10
741.6799464966682
 20
297.170291900711
 10
729.2201445999607
 20
320.36925638458104
  0
LWPOLYLINE
  5
38
330
17
100
AcDbEntity
  8
M
100
AcDbPolyline
 90
43
 70
1
 10
3027.5556200926326
 20
243.7049891147651
 10
3025.013279830002
 20
247.88169097480238
 10
3025.013279830002
 20
272.580631318169
 10
3028.3466131633354
 20
278.0568217943595
 10
3028.3466131633354
 20
299.90090950844996
 10
3018.346613163335
 20
313.5913856989261
 10
3018.346613163335
 20
316.3769939640145
 10
3023.354624306444
 20
332.83188771994253
 10
3028.3466131633354
 20
341.03301227054993
 10
3028.3466131633354
 20
346.50920274674047
 10
3031.685424449667
 20
351.99439271714283
 10
3033.3520911163337
 20
360.20867843142855
 10
3039.2501088052313
 20
369.89827892033236
 10
3050.978285740067
 20
361.6406849560095
 10
3057.649085664193
 20
361.6406849560095
 10
3064.3157523308596
 20
356.16449447981904
 10
3070.990721089443
 20
356.16449447981904
 10
3075.9995930493797
 20
350.6785870951261
 10
3087.6769160363724
 20
347.9379908838931
 10
3089.30547737523
 20
345.26249725577065
 10
3115.910807329144
 20
367.11687543219995
 10
3120.976529611956
 20
367.11687543219995
 10
3129.3098629452893
 20
361.6406849560095
 10
3139.3157523308596
 20
361.6406849560095
 10
3145.9824189975266
 20
356.16449447981904
 10
3149.331912345022
 20
356.16449447981904
 10
3161.8898177609135
 20
338.2844291495733
 10
3160.212378977769
 20
332.77284457638257
 10
3158.544922278783
 20
305.37891309303745
 10
3156.008705778194
 20
301.2122716992129
 10
3141.0087057781934
 20
298.4741764611176
 10
3139.336145731606
 20
295.7263992417238
 10
3121.002812398273
 20
295.7263992417238
 10
3119.336145731606
 20
292.9883040036286
 10
3111.002812398273
 20
292.9883040036286
 10
3109.3361457316064
 20
290.25020876553333
 10
3100.9927807170616
 20
290.25020876553333
 10
3095.2132798300017
 20
283.4681413980654
 10
3095.2132798300017
 20
256.0959766890881
 10
3093.546613163335
 20
253.35788145099292
 10
3093.546613163335
 20
245.1435957367072
 10
3091.001315991095
 20
240.9620360965986
 10
3027.5556200926326
 20
243.7049891147651
  0
LWPOLYLINE
  5
39
330
17
100
AcDbEntity
  8
M
100
AcDbPolyline
 90
18
 70
1
 10
3092.5876916579355
 20
421.6787801941048
 10
3087.5570805950642
 20
421.6787801941048
 10
3083.346613163335
 20
428.5959766890881
 10
3083.346613163335
 20
447.7626433557548
 10
3081.6813579510867
 20
450.49841977587744
 10
3080.0118481683317
 20
483.41161263590146
 10
3082.557080595064
 20
487.5930659083905
 10
3109.2237472617308
 20
487.5930659083905
 10
3110.8904139283973
 20
490.33116114648567
 10
3119.336145731606
 20
490.33116114648567
 10
3121.8799464966683
 20
486.1520598895975
 10
3121.8799464966683
 20
466.9293100224214
 10
3120.2132798300017
 20
464.19121478432623
 10
3120.2132798300017
 20
428.5959766890881
 10
3117.681633529526
 20
424.43684348116426
 10
3104.348300196193
 20
418.9606530049739
 10
3102.649032213188
 20
416.1689984614663
 10
3092.5876916579355
 20
421.6787801941048
  0
LWPOLYLINE
  5
3A
330
17
100
AcDbEntity
  8
M
100
AcDbPolyline
 90
31
 70
1
 10
2963.3898909888694
 20
36.97725835666199
 10
2960.013279830002
 20
42.52454811765949
 10
2960.013279830002
 20
48.05682179435955
 10
2961.6799464966684
 20
50.79491703245487
 10
2961.6799464966684
 20
64.48539322293101
 10
2963.346613163335
 20
67.22348846102622
 10
2963.346613163335
 20
78.17586941340726
 10
2965.013279830002
 20
80.91396465150247
 10
2965.013279830002
 20
91.8663456038834
 10
2968.346613163335
 20
97.34253608007393
 10
2968.346613163335
 20
108.29491703245486
 10
2970.946613163335
 20
112.56634560388346
 10
2972.6694790649394
 20
109.73592305124757
 10
2987.6490856641926
 20
109.73592305124757
 10
2994.3157523308596
 20
104.25973257505716
 10
3001.002812398273
 20
104.25973257505716
 10
3002.66947906494
 20
101.52163733696185
 10
3017.6694790649394
 20
101.52163733696185
 10
3019.3446969651336
 20
98.76949364378606
 10
3029.3446969651336
 20
96.03139840569087
 10
3031.9013528995088
 20
91.8311779420744
 10
3016.9013528995088
 20
72.66451127540773
 10
3021.002812398273
 20
65.92639924172383
 10
3031.002812398273
 20
65.92639924172383
 10
3034.346193640254
 20
60.433701487039635
 10
3042.679526973588
 20
57.69560624894443
 10
3046.0181179297083
 20
52.210778249603294
 10
3051.0246704792835
 20
49.469094710550166
 10
3055.2256668687824
 20
39.80680301470374
 10
3052.6689515938288
 20
35.606485062994466
 10
2963.3898909888694
 20
36.97725835666199
  0
LWPOLYLINE
  5
3B
330
17
100
AcDbEntity
  8
M
100
AcDbPolyline
 90
28
 70
1
 10
3010.8855366397574
 20
599.6629833587751
 10
3009.2237472617308
 20
602.3930659083904
 10
3000.8904139283973
 20
602.3930659083904
 10
2999.2237472617303
 20
605.1311611464857
 10
2990.8904139283977
 20
605.1311611464857
 10
2989.2237472617308
 20
607.8692563845809
 10
2972.5570805950642
 20
607.8692563845809
 10
2970.8904139283973
 20
610.6073516226762
 10
2964.2237472617308
 20
610.6073516226762
 10
2961.6799464966684
 20
614.7864528795643
 10
2961.6799464966684
 20
628.5330122705499
 10
2964.2237472617308
 20
632.7121135274381
 10
2969.244140662477
 20
632.7121135274381
 10
2975.9108073291436
 20
638.1883040036286
 10
2990.916696714715
 20
638.1883040036286
 10
2999.2500300480474
 20
643.664494479819
 10
3012.5833633813813
 20
643.664494479819
 10
3020.9166967147144
 20
649.1406849560095
 10
3027.557080595064
 20
649.1406849560095
 10
3029.2237472617308
 20
651.8787801941047
 10
3039.336145731606
 20
651.8787801941047
 10
3044.336145731606
 20
643.664494479819
 10
3047.66947906494
 20
643.664494479819
 10
3051.8953264825946
 20
636.722030865099
 10
3037.696130848907
 20
610.6503985461007
 10
3031.867713657708
 20
603.8109293931632
 10
3029.345883611137
 20
596.9059185513612
 10
3010.8855366397574
 20
599.6629833587751
  0
LWPOLYLINE
  5
3C
330
17
100
AcDbEntity
  8
M
100
AcDbPolyline
 90
87
 70
1
 10
3547.5570805950642
 20
345.0121135274381
 10
3542.5637116037706
 20
345.0121135274381
 10
3534.230378270437
 20
355.96449447981905
 10
3530.8904139283977
 20
355.96449447981905
 10
3527.5570805950642
 20
361.44068495600953
 10
3524.2237472617308
 20
361.44068495600953
 10
3520.8904139283977
 20
366.91687543219996
 10
3517.557080595064
 20
366.91687543219996
 10
3514.223747261731
 20
372.3930659083905
 10
3510.8904139283977
 20
372.3930659083905
 10
3506.6628776965135
 20
379.33830400362854
 10
3508.3466131633354
 20
382.1044408419785
 10
3508.3466131633354
 20
393.0568217943595
 10
3510.013279830002
 20
395.79491703245475
 10
3510.013279830002
 20
417.6435957367072
 10
3508.3466131633354
 20
420.3816909748024
 10
3508.3466131633354
 20
428.6520598895975
 10
3510.8728920708527
 20
432.8023752376623
 10
3519.250030048048
 20
438.3073516226762
 10
3529.2441406624775
 20
438.3073516226762
 10
3535.910807329144
 20
443.78354209886663
 10
3544.244140662477
 20
443.78354209886663
 10
3550.910807329144
 20
449.2597325750571
 10
3560.9108073291436
 20
449.2597325750571
 10
3567.5774739958106
 20
454.73592305124754
 10
3577.66947906494
 20
454.73592305124754
 10
3581.002812398273
 20
449.2597325750571
 10
3594.3157523308596
 20
449.2597325750571
 10
3600.9824189975266
 20
443.78354209886663
 10
3614.2358385705606
 20
443.78354209886663
 10
3619.2358385705606
 20
449.2597325750571
 10
3625.910807329144
 20
449.2597325750571
 10
3632.5774739958106
 20
454.73592305124754
 10
3639.2389459371007
 20
454.73592305124754
 10
3647.5722792704346
 20
462.95020876553326
 10
3669.3361457316064
 20
462.95020876553326
 10
3671.002812398273
 20
460.2121135274381
 10
3677.6694790649394
 20
460.2121135274381
 10
3679.3361457316064
 20
457.4740182893429
 10
3685.8904139283973
 20
457.4740182893429
 10
3689.2237472617308
 20
462.95020876553326
 10
3694.2237472617308
 20
462.95020876553326
 10
3697.5877489514405
 20
468.4767829700564
 10
3704.326933714305
 20
462.9410240577033
 10
3714.334276042379
 20
460.2009184202546
 10
3719.3351138911353
 20
454.72381030018795
 10
3737.6684472244683
 20
449.2476198239975
 10
3742.6573877561104
 20
443.78354209886663
 10
3746.002812398273
 20
443.78354209886663
 10
3748.546613163335
 20
439.6044408419785
 10
3748.546613163335
 20
434.07216716527864
 10
3746.8799464966683
 20
431.3340719271834
 10
3746.8799464966683
 20
417.6435957367072
 10
3743.5466131633357
 20
412.1674052605168
 10
3743.5466131633357
 20
395.7323967447943
 10
3735.9953356143487
 20
386.08354209886664
 10
3729.31575233086
 20
386.08354209886664
 10
3715.9956178200914
 20
375.1420030364495
 10
3707.6694307528655
 20
372.4062558572183
 10
3702.5972034594824
 20
366.8509592977986
 10
3699.2237472617308
 20
372.3930659083905
 10
3694.2237472617308
 20
372.3930659083905
 10
3689.2237472617308
 20
380.6073516226762
 10
3685.9108073291436
 20
380.6073516226762
 10
3679.2033538609844
 20
386.11704554295
 10
3675.8962647311937
 20
391.5501205418923
 10
3659.229598064527
 20
388.8120253037971
 10
3657.5496436236313
 20
391.5719504566973
 10
3645.8829769569643
 20
394.31004569479256
 10
3644.2237472617308
 20
397.03592305124766
 10
3635.902505237227
 20
397.03592305124766
 10
3630.9025052372276
 20
402.5121135274381
 10
3624.3361457316064
 20
402.5121135274381
 10
3621.002812398273
 20
397.03592305124766
 10
3617.649085664193
 20
397.03592305124766
 10
3611.0232057990193
 20
391.59323601914053
 10
3607.66947906494
 20
386.08354209886664
 10
3602.6594473837285
 20
386.08354209886664
 10
3590.9927807170616
 20
372.3930659083905
 10
3587.65738775611
 20
372.3930659083905
 10
3582.693661682599
 20
366.95660401835505
 10
3580.2132798300017
 20
362.8816909748024
 10
3580.2132798300017
 20
346.4500145672977
 10
3565.9413672190226
 20
325.7617378833155
 10
3562.5386856014097
 20
331.3518576836801
 10
3550.872018934743
 20
339.56614339796585
 10
3547.5570805950642
 20
345.0121135274381
  0
LWPOLYLINE
  5
3D
330
17
100
AcDbEntity
  8
M
100
AcDbPolyline
 90
94
 70
1
 10
3600.8904139283973
 20
8.226399241723858
 10
3599.223747261731
 20
10.964494479819065
 10
3587.5774739958106
 20
10.964494479819065
 10
3580.910807329144
 20
16.440684956009587
 10
3575.8904139283977
 20
16.440684956009587
 10
3573.3331601830027
 20
20.641887537729996
 10
3579.1959829260813
 20
33.02560496443652
 10
3584.2358385705606
 20
38.545446860771435
 10
3587.569171903894
 20
38.545446860771435
 10
3592.5589502842918
 20
44.010442229778455
 10
3602.557152649972
 20
46.74804525847676
 10
3608.3235793028152
 20
53.51477041232322
 10
3605.8904139283977
 20
57.512113527438125
 10
3602.569171903894
 20
57.512113527438125
 10
3597.5328979774044
 20
63.028032589783734
 10
3590.8904139283977
 20
73.94068495600959
 10
3587.569171903894
 20
73.94068495600959
 10
3582.5328979774044
 20
79.4566040183552
 10
3574.2033538609844
 20
93.14085506675973
 10
3567.536687194318
 20
98.61704554295014
 10
3559.2237472617308
 20
112.27401828934292
 10
3557.553686991657
 20
112.27401828934292
 10
3544.199105339721
 20
136.95614687818903
 10
3540.013279830002
 20
141.08217488062635
 10
3540.013279830002
 20
143.83664828589758
 10
3525.93018991879
 20
169.6950948875775
 10
3519.3415243722807
 20
161.5769176963431
 10
3512.681633529526
 20
158.8416053859262
 10
3507.6694790649394
 20
150.60735162267625
 10
3502.5570805950642
 20
150.60735162267625
 10
3500.0123273193894
 20
154.78801771842765
 10
3501.6808900201204
 20
204.1298004400298
 10
3504.2237472617308
 20
208.3073516226762
 10
3507.5570805950642
 20
208.3073516226762
 10
3510.875108396962
 20
213.75839729722236
 10
3515.875108396962
 20
216.49649253531754
 10
3520.013279830002
 20
223.29491703245475
 10
3520.013279830002
 20
236.92931002242145
 10
3512.5570805950642
 20
249.17878019410477
 10
3509.223747261731
 20
249.17878019410477
 10
3494.996211029847
 20
272.5525897179143
 10
3500.021290973111
 20
280.80807819613307
 10
3506.687162717176
 20
302.7102282123476
 10
3519.223770253438
 20
326.0521974822452
 10
3544.3397699722536
 20
323.30139751304165
 10
3546.002812398273
 20
320.569256384581
 10
3561.0099108441923
 20
320.569256384581
 10
3566.875531844574
 20
308.1796283531627
 10
3568.541135210337
 20
299.97058319333337
 10
3572.681633529527
 20
293.1683359546643
 10
3579.342399447078
 20
290.4326642385271
 10
3586.8907625829675
 20
280.78753356489074
 10
3583.538602020227
 20
269.77329171588605
 10
3578.5411352103365
 20
261.5631676710667
 10
3576.87446854367
 20
253.34888195678096
 10
3566.87446854367
 20
236.9203105282095
 10
3565.2078018770035
 20
228.70602481392376
 10
3556.8799464966687
 20
215.02454811765958
 10
3556.8799464966687
 20
212.34253608007393
 10
3559.3361457316064
 20
208.3073516226762
 10
3562.66947906494
 20
208.3073516226762
 10
3566.01496686286
 20
202.81119309752137
 10
3579.348300196193
 20
197.33500262133086
 10
3582.66100698478
 20
191.89269861150981
 10
3594.2163102902978
 20
194.60465755055978
 10
3595.8904139283977
 20
197.35497067029516
 10
3609.2237472617308
 20
197.35497067029516
 10
3610.8803660197495
 20
200.07655862989682
 10
3619.3241112590595
 20
202.85093206567007
 10
3623.5386020202263
 20
195.92712581518091
 10
3628.546613163335
 20
179.47223205925255
 10
3628.546613163335
 20
174.00067813493058
 10
3631.8776069455134
 20
165.79215774313394
 10
3633.5432688325386
 20
152.10993509971638
 10
3635.213279830002
 20
149.3663456038834
 10
3635.213279830002
 20
141.10010616209846
 10
3626.8799464966683
 20
124.67153473352698
 10
3626.8799464966683
 20
116.49604158306215
 10
3630.213279830002
 20
105.5436606306811
 10
3630.213279830002
 20
100.0733884419941
 10
3634.345511159312
 20
90.56925638458091
 10
3694.326114050395
 20
90.56925638458091
 10
3700.213279830002
 20
83.66084756157277
 10
3700.213279830002
 20
78.11978621289761
 10
3696.8775419497792
 20
72.63964540967494
 10
3693.5451954879113
 20
34.317661098191564
 10
3689.351693088784
 20
21.9168754322
 10
3645.9961813895666
 20
21.9168754322
 10
3637.6628480562335
 20
10.964494479819065
 10
3634.3361457316064
 20
10.964494479819065
 10
3627.662105613456
 20
0.0
 10
3614.241050675229
 20
2.756109496242831
 10
3605.916696714715
 20
8.226399241723858
 10
3600.8904139283973
 20
8.226399241723858
  0
LWPOLYLINE
  5
3E
330
17
100
AcDbEntity
  8
M
100
AcDbPolyline
 90
13
 70
1
 10
3669.2323159658686
 20
561.321637336962
 10
3665.8904139283973
 20
561.321637336962
 10
3660.0212909731104
 20
570.9637679063621
 10
3658.346613163335
 20
576.4662807099094
 10
3658.346613163335
 20
587.4055004986119
 10
3656.6628776965135
 20
590.1716373369619
 10
3659.227883696463
 20
594.3855757654496
 10
3682.6733522917784
 20
591.634321797632
 10
3693.5483331305477
 20
573.7682818482247
 10
3691.878255612116
 20
546.3312940454184
 10
3689.3209587163833
 20
542.1300205738576
 10
3682.55170195439
 20
544.9102510296764
 10
3669.2323159658686
 20
561.321637336962
  0
LWPOLYLINE
  5
3F
330
17
100
AcDbEntity
  8
M
100
AcDbPolyline
 90
22
 70
1
 10
3560.8904139283973
 20
514.7740182893428
 10
3557.5570805950642
 20
514.7740182893428
 10
3555.013279830002
 20
518.953119546231
 10
3555.013279830002
 20
554.6044408419784
 10
3557.5570805950642
 20
558.7835420988666
 10
3591.002812398273
 20
558.7835420988666
 10
3592.6694790649394
 20
556.0454468607714
 10
3614.336145731606
 20
556.0454468607714
 10
3616.8799464966687
 20
551.8663456038832
 10
3616.8799464966687
 20
538.1758694134071
 10
3618.5466131633357
 20
535.4377741753118
 10
3618.5466131633357
 20
529.905500498612
 10
3614.3565391323527
 20
523.021807447712
 10
3610.9824189975266
 20
520.2502087655333
 10
3602.6573877561095
 20
520.2502087655333
 10
3597.65738775611
 20
514.7740182893428
 10
3589.3240544227765
 20
514.7740182893428
 10
3584.3240544227765
 20
509.29782781315237
 10
3577.66947906494
 20
509.29782781315237
 10
3575.9943403181132
 20
506.5458141576522
 10
3564.2163102902973
 20
509.31004569479256
 10
3560.8904139283973
 20
514.7740182893428
  0
ENDSEC
  0
SECTION
  2
OBJECTS
  0
DICTIONARY
  5
A
330
0
100
AcDbDictionary
281
1
  3
ACAD_COLOR
350
B
  3
ACAD_GROUP
350
C
  3
ACAD_LAYOUT
350
D
  3
ACAD_MATERIAL
350
E
  3
ACAD_MLEADERSTYLE
350
F
  3
ACAD_MLINESTYLE
350
10
  3
ACAD_PLOTSETTINGS
350
11
  3
ACAD_PLOTSTYLENAME
350
12
  3
ACAD_SCALELIST
350
14
  3
ACAD_TABLESTYLE
350
15
  3
ACAD_VISUALSTYLE
350
16
  3
EZDXF_META
350
2D
  0
DICTIONARY
  5
B
330
A
100
AcDbDictionary
281
1
  0
DICTIONARY
  5
C
330
A
100
AcDbDictionary
281
1
  0
DICTIONARY
  5
D
330
A
100
AcDbDictionary
281
1
  3
Model
350
1A
  3
Layout1
350
1E
  0
DICTIONARY
  5
E
330
A
100
AcDbDictionary
281
1
  3
ByBlock
350
1F
  3
ByLayer
350
20
  3
Global
350
21
  0
DICTIONARY
  5
F
330
A
100
AcDbDictionary
281
1
  3
Standard
350
2C
  0
DICTIONARY
  5
10
330
A
100
AcDbDictionary
281
1
  3
Standard
350
22
  0
DICTIONARY
  5
11
330
A
100
AcDbDictionary
281
1
  0
ACDBDICTIONARYWDFLT
  5
12
330
A
100
AcDbDictionary
281
1
  3
Normal
350
13
100
AcDbDictionaryWithDefault
340
13
  0
ACDBPLACEHOLDER
  5
13
330
12
  0
DICTIONARY
  5
14
330
A
100
AcDbDictionary
281
1
  0
DICTIONARY
  5
15
330
A
100
AcDbDictionary
281
1
  0
DICTIONARY
  5
16
330
A
100
AcDbDictionary
281
1
  0
LAYOUT
  5
1A
330
D
100
AcDbPlotSettings
  1

  4
A3
  6

 40
7.5
 41
20.0
 42
7.5
 43
20.0
 44
420.0
 45
297.0
 46
0.0
 47
0.0
 48
0.0
 49
0.0
140
0.0
141
0.0
142
1.0
143
1.0
 70
1024
 72
1
 73
0
 74
5
  7

 75
16
 76
0
 77
2
 78
300
147
1.0
148
0.0
149
0.0
100
AcDbLayout
  1
Model
 70
1
 71
0
 10
0.0
 20
0.0
 11
420.0
 21
297.0
 12
0.0
 22
0.0
 32
0.0
 14
1e+20
 24
1e+20
 34
1e+20
 15
-1e+20
 25
-1e+20
 35
-1e+20
146
0.0
 13
0.0
 23
0.0
 33
0.0
 16
1.0
 26
0.0
 36
0.0
 17
0.0
 27
1.0
 37
0.0
 76
1
330
17
  0
LAYOUT
  5
1E
330
D
100
AcDbPlotSettings
  1

  4
A3
  6

 40
7.5
 41
20.0
 42
7.5
 43
20.0
 44
420.0
 45
297.0
 46
0.0
 47
0.0
 48
0.0
 49
0.0
140
0.0
141
0.0
142
1.0
143
1.0
 70
0
 72
1
 73
0
 74
5
  7

 75
16
 76
0
 77
2
 78
300
147
1.0
148
0.0
149
0.0
100
AcDbLayout
  1
Layout1
 70
1
 71
1
 10
0.0
 20
0.0
 11
420.0
 21
297.0
 12
0.0
 22
0.0
 32
0.0
 14
1e+20
 24
1e+20
 34
1e+20
 15
-1e+20
 25
-1e+20
 35
-1e+20
146
0.0
 13
0.0
 23
0.0
 33
0.0
 16
1.0
 26
0.0
 36
0.0
 17
0.0
 27
1.0
 37
0.0
 76
1
330
1B
  0
MATERIAL
  5
1F
102
{ACAD_REACTORS
330
E
102
}
330
E
100
AcDbMaterial
  1
ByBlock
  2

 70
0
 40
1.0
 71
1
 41
1.0
 91
-1023410177
 42
1.0
 72
1
  3

 73
1
 74
1
 75
1
 44
0.5
 73
0
 45
1.0
 46
1.0
 77
1
  4

 78
1
 79
1
170
1
 48
1.0
171
1
  6

172
1
173
1
174
1
140
1.0
141
1.0
175
1
  7

176
1
177
1
178
1
143
1.0
179
1
  8

270
1
271
1
272
1
145
1.0
146
1.0
273
1
  9

274
1
275
1
276
1
 42
1.0
 72
1
  3

 73
1
 74
1
 75
1
 94
63
  0
MATERIAL
  5
20
102
{ACAD_REACTORS
330
E
102
}
330
E
100
AcDbMaterial
  1
ByLayer
  2

 70
0
 40
1.0
 71
1
 41
1.0
 91
-1023410177
 42
1.0
 72
1
  3

 73
1
 74
1
 75
1
 44
0.5
 73
0
 45
1.0
 46
1.0
 77
1
  4

 78
1
 79
1
170
1
 48
1.0
171
1
  6

172
1
173
1
174
1
140
1.0
141
1.0
175
1
  7

176
1
177
1
178
1
143
1.0
179
1
  8

270
1
271
1
272
1
145
1.0
146
1.0
273
1
  9

274
1
275
1
276
1
 42
1.0
 72
1
  3

 73
1
 74
1
 75
1
 94
63
  0
MATERIAL
  5
21
102
{ACAD_REACTORS
330
E
102
}
330
E
100
AcDbMaterial
  1
Global
  2

 70
0
 40
1.0
 71
1
 41
1.0
 91
-1023410177
 42
1.0
 72
1
  3

 73
1
 74
1
 75
1
 44
0.5
 73
0
 45
1.0
 46
1.0
 77
1
  4

 78
1
 79
1
170
1
 48
1.0
171
1
  6

172
1
173
1
174
1
140
1.0
141
1.0
175
1
  7

176
1
177
1
178
1
143
1.0
179
1
  8

270
1
271
1
272
1
145
1.0
146
1.0
273
1
  9

274
1
275
1
276
1
 42
1.0
 72
1
  3

 73
1
 74
1
 75
1
 94
63
  0
MLINESTYLE
  5
22
102
{ACAD_REACTORS
330
10
102
}
330
10
100
AcDbMlineStyle
  2
Standard
 70
0
  3

 62
256
 51
90.0
 52
90.0
 71
2
 49
0.5
 62
256
  6
BYLAYER
 49
-0.5
 62
256
  6
BYLAYER
  0
MLEADERSTYLE
  5
2C
102
{ACAD_REACTORS
330
F
102
}
330
F
100
AcDbMLeaderStyle
179
2
170
2
171
1
172
0
 90
2
 40
0.0
 41
0.0
173
1
 91
-1056964608
 92
-2
290
1
 42
2.0
291
1
 43
8.0
  3
Standard
 44
4.0
300

342
29
174
1
175
1
176
0
178
1
 93
-1056964608
 45
4.0
292
0
297
0
 46
4.0
 94
-1056964608
 47
1.0
 49
1.0
140
1.0
294
1
141
0.0
177
0
142
1.0
295
0
296
0
143
3.75
271
0
272
9
273
9
  0
DICTIONARY
  5
2D
330
A
100
AcDbDictionary
280
1
281
1
  3
CREATED_BY_EZDXF
350
2E
  3
WRITTEN_BY_EZDXF
350
42
  0
DICTIONARYVAR
  5
2E
330
2D
100
DictionaryVariables
280
0
  1
1.4.4 @ 2026-07-17T10:48:45.487970+00:00
  0
DICTIONARYVAR
  5
42
330
2D
100
DictionaryVariables
280
0
  1
1.4.4 @ 2026-07-17T10:48:45.493450+00:00
  0
ENDSEC
  0
EOF
