0
SECTION
2
ENTITIES
0
LWPOLYLINE
8
SHEET
90
4
70
1
10
0.000
20
0.000
10
600.000
20
0.000
10
600.000
20
600.000
10
0.000
20
600.000
0
LWPOLYLINE
8
LIGHT
90
7
70
1
10
507.857
20
352.857
10
518.571
20
353.571
10
519.286
20
342.857
10
513.571
20
342.857
10
512.857
20
347.857
10
507.857
20
348.571
10
507.857
20
352.857
0
LWPOLYLINE
8
LIGHT
90
5
70
1
10
507.143
20
342.143
10
507.857
20
331.429
10
502.143
20
331.429
10
502.143
20
341.429
10
507.143
20
342.143
0
LWPOLYLINE
8
LIGHT
90
5
70
1
10
462.143
20
365.714
10
462.857
20
370.714
10
473.571
20
370.000
10
472.857
20
365.000
10
462.143
20
365.714
0
LWPOLYLINE
8
LIGHT
90
5
70
1
10
456.429
20
371.429
10
457.143
20
376.429
10
462.143
20
375.714
10
461.429
20
370.714
10
456.429
20
371.429
0
LWPOLYLINE
8
LIGHT
90
11
70
1
10
439.286
20
352.857
10
438.571
20
347.857
10
433.571
20
347.143
10
434.286
20
342.143
10
439.286
20
341.429
10
438.571
20
336.429
10
422.143
20
337.143
10
422.857
20
342.143
10
427.857
20
342.857
10
428.571
20
353.571
10
439.286
20
352.857
0
LWPOLYLINE
8
LIGHT
90
7
70
1
10
439.286
20
324.286
10
438.571
20
313.571
10
427.857
20
314.286
10
427.857
20
318.571
10
433.571
20
320.000
10
434.286
20
325.000
10
439.286
20
324.286
0
LWPOLYLINE
8
LIGHT
90
13
70
1
10
400.000
20
473.571
10
422.143
20
472.857
10
421.429
20
467.857
10
382.857
20
467.857
10
381.429
20
473.571
10
376.429
20
472.857
10
375.714
20
467.857
10
365.000
20
468.571
10
365.000
20
472.857
10
370.714
20
474.286
10
371.429
20
479.286
10
398.571
20
479.286
10
400.000
20
473.571
0
LWPOLYLINE
8
LIGHT
90
5
70
1
10
399.286
20
272.857
10
404.286
20
273.571
10
405.000
20
262.857
10
399.286
20
262.857
10
399.286
20
272.857
0
LWPOLYLINE
8
LIGHT
90
5
70
1
10
400.000
20
233.571
10
405.000
20
232.857
10
404.286
20
227.857
10
399.286
20
228.571
10
400.000
20
233.571
0
LWPOLYLINE
8
LIGHT
90
5
70
1
10
398.571
20
222.143
10
393.571
20
222.857
10
394.286
20
227.857
10
399.286
20
227.143
10
398.571
20
222.143
0
LWPOLYLINE
8
LIGHT
90
5
70
1
10
398.571
20
399.286
10
399.286
20
388.571
10
393.571
20
388.571
10
393.571
20
398.571
10
398.571
20
399.286
0
LWPOLYLINE
8
LIGHT
90
5
70
1
10
388.571
20
216.429
10
393.571
20
215.714
10
392.857
20
210.714
10
387.857
20
211.429
10
388.571
20
216.429
0
LWPOLYLINE
8
LIGHT
90
5
70
1
10
387.857
20
268.571
10
387.857
20
278.571
10
392.857
20
279.286
10
393.571
20
268.571
10
387.857
20
268.571
0
LWPOLYLINE
8
LIGHT
90
5
70
1
10
382.143
20
234.286
10
382.857
20
239.286
10
387.857
20
238.571
10
387.143
20
233.571
10
382.143
20
234.286
0
LWPOLYLINE
8
LIGHT
90
5
70
1
10
382.143
20
205.714
10
382.857
20
210.714
10
387.857
20
210.000
10
387.143
20
205.000
10
382.143
20
205.714
0
LWPOLYLINE
8
LIGHT
90
5
70
1
10
387.857
20
251.429
10
382.143
20
251.429
10
382.143
20
261.429
10
387.143
20
262.143
10
387.857
20
251.429
0
LWPOLYLINE
8
LIGHT
90
5
70
1
10
376.429
20
245.714
10
377.143
20
250.714
10
382.143
20
250.000
10
381.429
20
245.000
10
376.429
20
245.714
0
LWPOLYLINE
8
LIGHT
90
5
70
1
10
382.143
20
215.714
10
381.429
20
210.714
10
376.429
20
211.429
10
377.143
20
216.429
10
382.143
20
215.714
0
LWPOLYLINE
8
LIGHT
90
5
70
1
10
370.714
20
222.857
10
371.429
20
227.857
10
376.429
20
227.143
10
375.714
20
222.143
10
370.714
20
222.857
0
LWPOLYLINE
8
LIGHT
90
5
70
1
10
376.429
20
244.286
10
375.714
20
239.286
10
370.714
20
240.000
10
371.429
20
245.000
10
376.429
20
244.286
0
LWPOLYLINE
8
LIGHT
90
5
70
1
10
365.000
20
171.429
10
365.000
20
181.429
10
370.000
20
182.143
10
370.714
20
171.429
10
365.000
20
171.429
0
LWPOLYLINE
8
LIGHT
90
5
70
1
10
359.286
20
302.857
10
360.000
20
307.857
10
370.714
20
307.143
10
370.000
20
302.143
10
359.286
20
302.857
0
LWPOLYLINE
8
LIGHT
90
5
70
1
10
365.000
20
392.857
10
364.286
20
387.857
10
347.857
20
388.571
10
348.571
20
393.571
10
365.000
20
392.857
0
LWPOLYLINE
8
LIGHT
90
5
70
1
10
365.000
20
478.571
10
364.286
20
473.571
10
359.286
20
474.286
10
360.000
20
479.286
10
365.000
20
478.571
0
LWPOLYLINE
8
LIGHT
90
5
70
1
10
364.286
20
159.286
10
359.286
20
160.000
10
360.000
20
165.000
10
365.000
20
164.286
10
364.286
20
159.286
0
LWPOLYLINE
8
LIGHT
90
5
70
1
10
359.286
20
182.857
10
359.286
20
192.857
10
364.286
20
193.571
10
365.000
20
182.857
10
359.286
20
182.857
0
LWPOLYLINE
8
LIGHT
90
5
70
1
10
359.286
20
152.857
10
358.571
20
147.857
10
353.571
20
148.571
10
354.286
20
153.571
10
359.286
20
152.857
0
LWPOLYLINE
8
LIGHT
90
21
70
1
10
353.571
20
302.857
10
347.857
20
301.429
10
347.143
20
296.429
10
325.000
20
297.143
10
325.000
20
301.429
10
330.714
20
302.857
10
331.429
20
307.857
10
336.429
20
308.571
10
337.143
20
313.571
10
342.143
20
314.286
10
342.857
20
319.286
10
347.857
20
320.000
10
348.571
20
325.000
10
352.857
20
325.000
10
354.286
20
319.286
10
359.286
20
318.571
10
358.571
20
313.571
10
347.857
20
312.857
10
348.571
20
307.857
10
353.571
20
307.143
10
353.571
20
302.857
0
LWPOLYLINE
8
LIGHT
90
5
70
1
10
353.571
20
280.000
10
354.286
20
285.000
10
359.286
20
284.286
10
358.571
20
279.286
10
353.571
20
280.000
0
LWPOLYLINE
8
LIGHT
90
5
70
1
10
353.571
20
194.286
10
354.286
20
199.286
10
359.286
20
198.571
10
358.571
20
193.571
10
353.571
20
194.286
0
LWPOLYLINE
8
LIGHT
90
5
70
1
10
353.571
20
141.429
10
352.857
20
136.429
10
347.857
20
137.143
10
348.571
20
142.143
10
353.571
20
141.429
0
LWPOLYLINE
8
LIGHT
90
5
70
1
10
348.571
20
205.000
10
353.571
20
204.286
10
352.857
20
199.286
10
347.857
20
200.000
10
348.571
20
205.000
0
LWPOLYLINE
8
LIGHT
90
5
70
1
10
342.857
20
193.571
10
347.857
20
192.857
10
347.143
20
187.857
10
342.143
20
188.571
10
342.857
20
193.571
0
LWPOLYLINE
8
LIGHT
90
5
70
1
10
337.143
20
399.286
10
342.143
20
398.571
10
341.429
20
393.571
10
336.429
20
394.286
10
337.143
20
399.286
0
LWPOLYLINE
8
LIGHT
90
5
70
1
10
337.143
20
187.857
10
342.143
20
187.143
10
341.429
20
182.143
10
336.429
20
182.857
10
337.143
20
187.857
0
LWPOLYLINE
8
LIGHT
90
5
70
1
10
335.714
20
376.429
10
325.000
20
377.143
10
325.714
20
382.143
10
336.429
20
381.429
10
335.714
20
376.429
0
LWPOLYLINE
8
LIGHT
90
5
70
1
10
331.429
20
176.429
10
336.429
20
175.714
10
335.714
20
170.714
10
330.714
20
171.429
10
331.429
20
176.429
0
LWPOLYLINE
8
LIGHT
90
5
70
1
10
319.286
20
160.000
10
320.000
20
165.000
10
330.714
20
164.286
10
330.000
20
159.286
10
319.286
20
160.000
0
LWPOLYLINE
8
LIGHT
90
5
70
1
10
320.000
20
102.143
10
330.714
20
101.429
10
330.000
20
96.429
10
319.286
20
97.143
10
320.000
20
102.143
0
LWPOLYLINE
8
LIGHT
90
7
70
1
10
330.714
20
280.000
10
325.000
20
280.000
10
324.286
20
285.000
10
297.143
20
285.000
10
296.429
20
290.000
10
330.000
20
290.714
10
330.714
20
280.000
0
LWPOLYLINE
8
LIGHT
90
5
70
1
10
325.000
20
114.286
10
325.000
20
124.286
10
330.000
20
125.000
10
330.714
20
114.286
10
325.000
20
114.286
0
LWPOLYLINE
8
LIGHT
90
7
70
1
10
295.714
20
485.000
10
280.000
20
485.000
10
279.286
20
490.000
10
325.000
20
490.000
10
324.286
20
479.286
10
296.429
20
480.000
10
295.714
20
485.000
0
LWPOLYLINE
8
LIGHT
90
5
70
1
10
325.000
20
278.571
10
324.286
20
273.571
10
319.286
20
274.286
10
320.000
20
279.286
10
325.000
20
278.571
0
LWPOLYLINE
8
LIGHT
90
5
70
1
10
324.286
20
313.571
10
313.571
20
314.286
10
314.286
20
319.286
10
325.000
20
318.571
10
324.286
20
313.571
0
LWPOLYLINE
8
LIGHT
90
9
70
1
10
302.857
20
307.857
10
325.000
20
307.143
10
324.286
20
302.143
10
296.429
20
302.857
10
295.714
20
307.857
10
290.714
20
308.571
10
291.429
20
313.571
10
301.429
20
313.571
10
302.857
20
307.857
0
LWPOLYLINE
8
LIGHT
90
5
70
1
10
313.571
20
112.857
10
318.571
20
113.571
10
319.286
20
102.857
10
313.571
20
102.857
10
313.571
20
112.857
0
LWPOLYLINE
8
LIGHT
90
5
70
1
10
302.143
20
257.143
10
302.857
20
262.143
10
313.571
20
261.429
10
312.857
20
256.429
10
302.143
20
257.143
0
LWPOLYLINE
8
LIGHT
90
5
70
1
10
308.571
20
119.286
10
313.571
20
118.571
10
312.857
20
113.571
10
307.857
20
114.286
10
308.571
20
119.286
0
LWPOLYLINE
8
LIGHT
90
5
70
1
10
308.571
20
159.286
10
313.571
20
158.571
10
312.857
20
153.571
10
307.857
20
154.286
10
308.571
20
159.286
0
LWPOLYLINE
8
LIGHT
90
5
70
1
10
307.143
20
125.000
10
302.143
20
125.714
10
302.857
20
130.714
10
307.857
20
130.000
10
307.143
20
125.000
0
LWPOLYLINE
8
LIGHT
90
5
70
1
10
307.857
20
152.857
10
307.143
20
147.857
10
302.143
20
148.571
10
302.857
20
153.571
10
307.857
20
152.857
0
LWPOLYLINE
8
LIGHT
90
5
70
1
10
302.143
20
204.286
10
301.429
20
199.286
10
296.429
20
200.000
10
297.143
20
205.000
10
302.143
20
204.286
0
LWPOLYLINE
8
LIGHT
90
5
70
1
10
302.143
20
404.286
10
301.429
20
399.286
10
296.429
20
400.000
10
297.143
20
405.000
10
302.143
20
404.286
0
LWPOLYLINE
8
LIGHT
90
5
70
1
10
302.143
20
415.714
10
301.429
20
410.714
10
296.429
20
411.429
10
297.143
20
416.429
10
302.143
20
415.714
0
LWPOLYLINE
8
LIGHT
90
5
70
1
10
301.429
20
142.143
10
302.143
20
131.429
10
296.429
20
131.429
10
296.429
20
141.429
10
301.429
20
142.143
0
LWPOLYLINE
8
LIGHT
90
5
70
1
10
296.429
20
192.857
10
295.714
20
187.857
10
290.714
20
188.571
10
291.429
20
193.571
10
296.429
20
192.857
0
LWPOLYLINE
8
LIGHT
90
5
70
1
10
295.714
20
416.429
10
290.714
20
417.143
10
291.429
20
422.143
10
296.429
20
421.429
10
295.714
20
416.429
0
LWPOLYLINE
8
LIGHT
90
5
70
1
10
295.714
20
210.714
10
290.714
20
211.429
10
291.429
20
216.429
10
296.429
20
215.714
10
295.714
20
210.714
0
LWPOLYLINE
8
LIGHT
90
5
70
1
10
291.429
20
262.143
10
296.429
20
261.429
10
295.714
20
256.429
10
290.714
20
257.143
10
291.429
20
262.143
0
LWPOLYLINE
8
LIGHT
90
5
70
1
10
290.000
20
290.714
10
290.714
20
262.857
10
285.000
20
262.857
10
285.000
20
290.000
10
290.000
20
290.714
0
LWPOLYLINE
8
LIGHT
90
5
70
1
10
290.000
20
176.429
10
285.000
20
177.143
10
285.714
20
182.143
10
290.714
20
181.429
10
290.000
20
176.429
0
LWPOLYLINE
8
LIGHT
90
5
70
1
10
285.714
20
427.857
10
290.714
20
427.143
10
290.000
20
422.143
10
285.000
20
422.857
10
285.714
20
427.857
0
LWPOLYLINE
8
LIGHT
90
15
70
1
10
285.000
20
434.286
10
273.571
20
432.857
10
273.571
20
422.857
10
267.857
20
421.429
10
267.857
20
411.429
10
262.143
20
411.429
10
262.143
20
432.857
10
256.429
20
434.286
10
256.429
20
438.571
10
272.857
20
439.286
10
273.571
20
450.000
10
278.571
20
450.714
10
279.286
20
440.000
10
285.000
20
438.571
10
285.000
20
434.286
0
LWPOLYLINE
8
LIGHT
90
5
70
1
10
285.000
20
170.000
10
284.286
20
165.000
10
279.286
20
165.714
10
280.000
20
170.714
10
285.000
20
170.000
0
LWPOLYLINE
8
LIGHT
90
5
70
1
10
284.286
20
239.286
10
285.000
20
228.571
10
279.286
20
228.571
10
279.286
20
238.571
10
284.286
20
239.286
0
LWPOLYLINE
8
LIGHT
90
5
70
1
10
279.286
20
175.714
10
278.571
20
170.714
10
273.571
20
171.429
10
274.286
20
176.429
10
279.286
20
175.714
0
LWPOLYLINE
8
LIGHT
90
5
70
1
10
278.571
20
239.286
10
273.571
20
240.000
10
274.286
20
245.000
10
279.286
20
244.286
10
278.571
20
239.286
0
LWPOLYLINE
8
LIGHT
90
5
70
1
10
273.571
20
187.143
10
272.857
20
182.143
10
267.857
20
182.857
10
268.571
20
187.857
10
273.571
20
187.143
0
LWPOLYLINE
8
LIGHT
90
5
70
1
10
268.571
20
410.714
10
273.571
20
410.000
10
272.857
20
405.000
10
267.857
20
405.714
10
268.571
20
410.714
0
LWPOLYLINE
8
LIGHT
90
5
70
1
10
267.857
20
261.429
10
267.143
20
256.429
10
256.429
20
257.143
10
257.143
20
262.143
10
267.857
20
261.429
0
LWPOLYLINE
8
LIGHT
90
5
70
1
10
267.143
20
473.571
10
250.714
20
474.286
10
251.429
20
479.286
10
267.857
20
478.571
10
267.143
20
473.571
0
LWPOLYLINE
8
LIGHT
90
5
70
1
10
267.143
20
187.857
10
262.143
20
188.571
10
262.857
20
193.571
10
267.857
20
192.857
10
267.143
20
187.857
0
LWPOLYLINE
8
LIGHT
90
5
70
1
10
262.143
20
455.714
10
261.429
20
450.714
10
245.000
20
451.429
10
245.714
20
456.429
10
262.143
20
455.714
0
LWPOLYLINE
8
LIGHT
90
5
70
1
10
261.429
20
199.286
10
256.429
20
200.000
10
257.143
20
205.000
10
262.143
20
204.286
10
261.429
20
199.286
0
LWPOLYLINE
8
LIGHT
90
5
70
1
10
257.143
20
250.714
10
262.143
20
250.000
10
261.429
20
245.000
10
256.429
20
245.714
10
257.143
20
250.714
0
LWPOLYLINE
8
LIGHT
90
5
70
1
10
250.714
20
211.429
10
251.429
20
216.429
10
256.429
20
215.714
10
255.714
20
210.714
10
250.714
20
211.429
0
LWPOLYLINE
8
LIGHT
90
5
70
1
10
255.714
20
399.286
10
250.714
20
400.000
10
251.429
20
405.000
10
256.429
20
404.286
10
255.714
20
399.286
0
LWPOLYLINE
8
LIGHT
90
5
70
1
10
255.714
20
262.143
10
250.714
20
262.857
10
251.429
20
267.857
10
256.429
20
267.143
10
255.714
20
262.143
0
LWPOLYLINE
8
LIGHT
90
5
70
1
10
250.000
20
273.571
10
245.000
20
274.286
10
245.714
20
279.286
10
250.714
20
278.571
10
250.000
20
273.571
0
LWPOLYLINE
8
LIGHT
90
5
70
1
10
245.000
20
411.429
10
245.714
20
416.429
10
250.714
20
415.714
10
250.000
20
410.714
10
245.000
20
411.429
0
LWPOLYLINE
8
LIGHT
90
7
70
1
10
245.000
20
217.143
10
245.000
20
238.571
10
234.286
20
239.286
10
234.286
20
245.000
10
250.714
20
244.286
10
250.714
20
217.143
10
245.000
20
217.143
0
LWPOLYLINE
8
LIGHT
90
5
70
1
10
245.000
20
290.000
10
244.286
20
285.000
10
239.286
20
285.714
10
240.000
20
290.714
10
245.000
20
290.000
0
LWPOLYLINE
8
LIGHT
90
13
70
1
10
227.857
20
415.714
10
228.571
20
405.000
10
233.571
20
405.714
10
234.286
20
410.714
10
245.000
20
410.000
10
245.000
20
405.714
10
239.286
20
404.286
10
238.571
20
399.286
10
222.143
20
400.000
10
221.429
20
405.000
10
216.429
20
405.714
10
217.143
20
416.429
10
227.857
20
415.714
0
LWPOLYLINE
8
LIGHT
90
5
70
1
10
238.571
20
450.714
10
227.857
20
451.429
10
228.571
20
456.429
10
239.286
20
455.714
10
238.571
20
450.714
0
LWPOLYLINE
8
LIGHT
90
5
70
1
10
233.571
20
417.143
10
234.286
20
422.143
10
239.286
20
421.429
10
238.571
20
416.429
10
233.571
20
417.143
0
LWPOLYLINE
8
LIGHT
90
11
70
1
10
227.143
20
485.000
10
228.571
20
473.571
10
239.286
20
472.857
10
238.571
20
467.857
10
205.000
20
468.571
10
205.714
20
473.571
10
215.714
20
473.571
10
216.429
20
478.571
10
200.000
20
479.286
10
200.000
20
485.000
10
227.143
20
485.000
0
LWPOLYLINE
8
LIGHT
90
5
70
1
10
232.857
20
250.714
10
227.857
20
251.429
10
228.571
20
256.429
10
233.571
20
255.714
10
232.857
20
250.714
0
LWPOLYLINE
8
LIGHT
90
5
70
1
10
227.143
20
285.000
10
222.143
20
285.714
10
222.857
20
290.714
10
227.857
20
290.000
10
227.143
20
285.000
0
LWPOLYLINE
8
LIGHT
90
9
70
1
10
222.143
20
438.571
10
221.429
20
433.571
10
216.429
20
434.286
10
216.429
20
444.286
10
222.143
20
445.714
10
222.857
20
450.714
10
227.143
20
450.714
10
227.857
20
440.000
10
222.143
20
438.571
0
LWPOLYLINE
8
LIGHT
90
5
70
1
10
216.429
20
268.571
10
216.429
20
278.571
10
221.429
20
279.286
10
222.143
20
268.571
10
216.429
20
268.571
0
LWPOLYLINE
8
LIGHT
90
5
70
1
10
211.429
20
422.143
10
216.429
20
421.429
10
215.714
20
416.429
10
210.714
20
417.143
10
211.429
20
422.143
0
LWPOLYLINE
8
LIGHT
90
5
70
1
10
205.000
20
427.143
10
204.286
20
422.143
10
199.286
20
422.857
10
200.000
20
427.857
10
205.000
20
427.143
0
LWPOLYLINE
8
LIGHT
90
5
70
1
10
194.286
20
410.714
10
205.000
20
410.000
10
204.286
20
405.000
10
193.571
20
405.714
10
194.286
20
410.714
0
LWPOLYLINE
8
LIGHT
90
5
70
1
10
194.286
20
462.143
10
199.286
20
461.429
10
198.571
20
456.429
10
193.571
20
457.143
10
194.286
20
462.143
0
LWPOLYLINE
8
LIGHT
90
5
70
1
10
193.571
20
428.571
10
194.286
20
433.571
10
199.286
20
432.857
10
198.571
20
427.857
10
193.571
20
428.571
0
LWPOLYLINE
8
LIGHT
90
5
70
1
10
187.857
20
474.286
10
188.571
20
479.286
10
199.286
20
478.571
10
198.571
20
473.571
10
187.857
20
474.286
0
LWPOLYLINE
8
LIGHT
90
5
70
1
10
192.857
20
433.571
10
187.857
20
434.286
10
188.571
20
439.286
10
193.571
20
438.571
10
192.857
20
433.571
0
LWPOLYLINE
8
LIGHT
90
5
70
1
10
176.429
20
411.429
10
177.143
20
416.429
10
182.143
20
415.714
10
181.429
20
410.714
10
176.429
20
411.429
0
LWPOLYLINE
8
LIGHT
90
5
70
1
10
160.000
20
422.143
10
165.000
20
421.429
10
164.286
20
416.429
10
159.286
20
417.143
10
160.000
20
422.143
0
LWPOLYLINE
8
LIGHT
90
5
70
1
10
158.571
20
462.143
10
136.429
20
462.857
10
137.143
20
467.857
10
159.286
20
467.143
10
158.571
20
462.143
0
LWPOLYLINE
8
LIGHT
90
5
70
1
10
125.000
20
462.857
10
125.714
20
467.857
10
130.714
20
467.143
10
130.000
20
462.143
10
125.000
20
462.857
0
LWPOLYLINE
8
LIGHT
90
5
70
1
10
130.000
20
433.571
10
125.000
20
434.286
10
125.714
20
439.286
10
130.714
20
438.571
10
130.000
20
433.571
0
LWPOLYLINE
8
LIGHT
90
5
70
1
10
120.000
20
445.000
10
125.000
20
444.286
10
124.286
20
439.286
10
119.286
20
440.000
10
120.000
20
445.000
0
LWPOLYLINE
8
LIGHT
90
5
70
1
10
113.571
20
451.429
10
114.286
20
456.429
10
119.286
20
455.714
10
118.571
20
450.714
10
113.571
20
451.429
0
LWPOLYLINE
8
MEDIUM
90
5
70
1
10
513.571
20
337.143
10
507.857
20
337.143
10
507.857
20
347.143
10
512.857
20
347.857
10
513.571
20
337.143
0
LWPOLYLINE
8
MEDIUM
90
5
70
1
10
438.571
20
342.143
10
433.571
20
342.857
10
434.286
20
347.857
10
439.286
20
347.143
10
438.571
20
342.143
0
LWPOLYLINE
8
MEDIUM
90
5
70
1
10
400.000
20
479.286
10
422.143
20
478.571
10
421.429
20
473.571
10
399.286
20
474.286
10
400.000
20
479.286
0
LWPOLYLINE
8
MEDIUM
90
17
70
1
10
376.429
20
217.143
10
376.429
20
227.143
10
370.714
20
228.571
10
370.714
20
238.571
10
376.429
20
240.000
10
377.143
20
245.000
10
382.143
20
244.286
10
382.857
20
233.571
10
399.286
20
232.857
10
398.571
20
227.857
10
393.571
20
227.143
10
393.571
20
217.143
10
387.857
20
215.714
10
387.143
20
210.714
10
382.143
20
211.429
10
381.429
20
216.429
10
376.429
20
217.143
0
LWPOLYLINE
8
MEDIUM
90
5
70
1
10
376.429
20
468.571
10
377.143
20
473.571
10
382.143
20
472.857
10
381.429
20
467.857
10
376.429
20
468.571
0
LWPOLYLINE
8
MEDIUM
90
43
70
1
10
347.857
20
188.571
10
347.857
20
198.571
10
352.857
20
199.286
10
354.286
20
193.571
10
359.286
20
192.857
10
359.286
20
182.857
10
365.000
20
181.429
10
365.000
20
165.714
10
359.286
20
164.286
10
359.286
20
154.286
10
353.571
20
152.857
10
353.571
20
142.857
10
347.857
20
141.429
10
347.143
20
130.714
10
337.143
20
130.714
10
336.429
20
141.429
10
330.714
20
142.857
10
330.000
20
147.857
10
325.000
20
147.143
10
325.000
20
114.286
10
330.714
20
112.857
10
330.714
20
102.857
10
319.286
20
102.857
10
319.286
20
112.857
10
313.571
20
114.286
10
312.857
20
119.286
10
307.857
20
120.000
10
307.857
20
130.000
10
302.143
20
131.429
10
302.143
20
141.429
10
296.429
20
142.857
10
296.429
20
147.143
10
307.143
20
147.857
10
308.571
20
153.571
10
313.571
20
154.286
10
314.286
20
159.286
10
330.000
20
159.286
10
330.714
20
170.000
10
336.429
20
171.429
10
336.429
20
181.429
10
342.143
20
182.857
10
342.857
20
187.857
10
347.857
20
188.571
0
LWPOLYLINE
8
MEDIUM
90
5
70
1
10
360.000
20
473.571
10
365.000
20
472.857
10
364.286
20
467.857
10
359.286
20
468.571
10
360.000
20
473.571
0
LWPOLYLINE
8
MEDIUM
90
5
70
1
10
353.571
20
320.000
10
354.286
20
325.000
10
359.286
20
324.286
10
358.571
20
319.286
10
353.571
20
320.000
0
LWPOLYLINE
8
MEDIUM
90
9
70
1
10
302.857
20
313.571
10
324.286
20
313.571
10
325.714
20
319.286
10
342.143
20
318.571
10
342.143
20
314.286
10
336.429
20
312.857
10
335.714
20
307.857
10
302.143
20
308.571
10
302.857
20
313.571
0
LWPOLYLINE
8
MEDIUM
90
5
70
1
10
342.143
20
392.857
10
341.429
20
387.857
10
330.714
20
388.571
10
331.429
20
393.571
10
342.143
20
392.857
0
LWPOLYLINE
8
MEDIUM
90
5
70
1
10
330.714
20
125.714
10
331.429
20
130.714
10
336.429
20
130.000
10
335.714
20
125.000
10
330.714
20
125.714
0
LWPOLYLINE
8
MEDIUM
90
7
70
1
10
290.714
20
262.857
10
291.429
20
290.714
10
296.429
20
290.000
10
297.143
20
285.000
10
319.286
20
284.286
10
318.571
20
262.143
10
290.714
20
262.857
0
LWPOLYLINE
8
MEDIUM
90
5
70
1
10
301.429
20
405.000
10
296.429
20
405.714
10
297.143
20
410.714
10
302.143
20
410.000
10
301.429
20
405.000
0
LWPOLYLINE
8
MEDIUM
90
49
70
1
10
216.429
20
284.286
10
227.143
20
285.000
10
228.571
20
290.714
10
238.571
20
290.714
10
240.000
20
285.000
10
245.000
20
284.286
10
245.000
20
274.286
10
250.714
20
272.857
10
250.714
20
262.857
10
256.429
20
261.429
10
256.429
20
245.714
10
262.143
20
245.714
10
262.143
20
255.714
10
267.143
20
256.429
10
268.571
20
250.714
10
273.571
20
250.000
10
273.571
20
240.000
10
279.286
20
238.571
10
279.286
20
228.571
10
285.000
20
227.143
10
285.714
20
222.143
10
290.714
20
221.429
10
290.714
20
211.429
10
296.429
20
210.000
10
296.429
20
194.286
10
290.714
20
192.857
10
290.714
20
182.857
10
285.000
20
181.429
10
285.000
20
171.429
10
279.286
20
171.429
10
278.571
20
176.429
10
273.571
20
177.143
10
273.571
20
187.143
10
267.857
20
188.571
10
267.143
20
193.571
10
262.143
20
194.286
10
262.143
20
204.286
10
256.429
20
205.714
10
256.429
20
215.714
10
250.714
20
217.143
10
250.714
20
244.286
10
234.286
20
245.000
10
233.571
20
255.714
10
227.857
20
257.143
10
227.143
20
262.143
10
222.143
20
262.857
10
222.143
20
278.571
10
216.429
20
280.000
10
216.429
20
284.286
0
LWPOLYLINE
8
MEDIUM
90
13
70
1
10
279.286
20
405.714
10
280.000
20
433.571
10
285.000
20
432.857
10
285.000
20
422.857
10
290.714
20
421.429
10
291.429
20
416.429
10
296.429
20
415.714
10
295.714
20
410.714
10
290.714
20
410.000
10
290.714
20
400.000
10
285.000
20
400.000
10
284.286
20
405.000
10
279.286
20
405.714
0
LWPOLYLINE
8
MEDIUM
90
5
70
1
10
285.714
20
307.857
10
296.429
20
307.143
10
295.714
20
302.143
10
285.000
20
302.857
10
285.714
20
307.857
0
LWPOLYLINE
8
MEDIUM
90
7
70
1
10
296.429
20
484.286
10
295.714
20
479.286
10
251.429
20
479.286
10
250.000
20
473.571
10
227.857
20
474.286
10
228.571
20
485.000
10
296.429
20
484.286
0
LWPOLYLINE
8
MEDIUM
90
7
70
1
10
290.714
20
450.000
10
290.714
20
445.714
10
285.000
20
444.286
10
284.286
20
439.286
10
279.286
20
440.000
10
280.000
20
450.714
10
290.714
20
450.000
0
LWPOLYLINE
8
MEDIUM
90
5
70
1
10
267.857
20
421.429
10
272.857
20
422.143
10
273.571
20
411.429
10
267.857
20
411.429
10
267.857
20
421.429
0
LWPOLYLINE
8
MEDIUM
90
21
70
1
10
238.571
20
450.714
10
239.286
20
440.000
10
244.286
20
439.286
10
245.714
20
450.714
10
272.857
20
450.714
10
272.857
20
439.286
10
256.429
20
438.571
10
257.143
20
433.571
10
262.143
20
432.857
10
262.143
20
411.429
10
250.714
20
411.429
10
250.000
20
416.429
10
240.000
20
416.429
10
238.571
20
422.143
10
228.571
20
422.143
10
227.143
20
427.857
10
222.143
20
428.571
10
222.143
20
438.571
10
227.857
20
440.000
10
227.857
20
450.000
10
238.571
20
450.714
0
LWPOLYLINE
8
MEDIUM
90
5
70
1
10
250.714
20
404.286
10
250.000
20
399.286
10
239.286
20
400.000
10
240.000
20
405.000
10
250.714
20
404.286
0
LWPOLYLINE
8
MEDIUM
90
5
70
1
10
244.286
20
450.714
10
239.286
20
451.429
10
240.000
20
456.429
10
245.000
20
455.714
10
244.286
20
450.714
0
LWPOLYLINE
8
MEDIUM
90
5
70
1
10
227.857
20
405.714
10
228.571
20
410.714
10
233.571
20
410.000
10
232.857
20
405.000
10
227.857
20
405.714
0
LWPOLYLINE
8
MEDIUM
90
11
70
1
10
194.286
20
427.857
10
199.286
20
427.143
10
200.000
20
422.143
10
210.000
20
422.143
10
211.429
20
416.429
10
216.429
20
415.714
10
215.714
20
405.000
10
205.000
20
405.714
10
204.286
20
410.714
10
193.571
20
411.429
10
194.286
20
427.857
0
LWPOLYLINE
8
MEDIUM
90
5
70
1
10
215.714
20
473.571
10
199.286
20
474.286
10
200.000
20
479.286
10
216.429
20
478.571
10
215.714
20
473.571
0
LWPOLYLINE
8
MEDIUM
90
7
70
1
10
187.143
20
456.429
10
177.143
20
456.429
10
176.429
20
461.429
10
192.857
20
462.143
10
193.571
20
451.429
10
187.857
20
451.429
10
187.143
20
456.429
0
LWPOLYLINE
8
MEDIUM
90
5
70
1
10
187.857
20
415.714
10
187.143
20
410.714
10
182.143
20
411.429
10
182.857
20
416.429
10
187.857
20
415.714
0
LWPOLYLINE
8
MEDIUM
90
5
70
1
10
165.000
20
417.143
10
165.714
20
422.143
10
170.714
20
421.429
10
170.000
20
416.429
10
165.000
20
417.143
0
LWPOLYLINE
8
MEDIUM
90
5
70
1
10
147.857
20
422.857
10
148.571
20
427.857
10
153.571
20
427.143
10
152.857
20
422.143
10
147.857
20
422.857
0
LWPOLYLINE
8
MEDIUM
90
5
70
1
10
136.429
20
428.571
10
137.143
20
433.571
10
142.143
20
432.857
10
141.429
20
427.857
10
136.429
20
428.571
0
LWPOLYLINE
8
MEDIUM
90
5
70
1
10
136.429
20
467.143
10
135.714
20
462.143
10
130.714
20
462.857
10
131.429
20
467.857
10
136.429
20
467.143
0
LWPOLYLINE
8
MEDIUM
90
5
70
1
10
125.000
20
461.429
10
124.286
20
456.429
10
119.286
20
457.143
10
120.000
20
462.143
10
125.000
20
461.429
0
LWPOLYLINE
8
BLACK
90
5
70
1
10
398.571
20
279.286
10
399.286
20
262.857
10
393.571
20
262.857
10
393.571
20
278.571
10
398.571
20
279.286
0
LWPOLYLINE
8
BLACK
90
9
70
1
10
330.000
20
147.857
10
331.429
20
142.143
10
336.429
20
141.429
10
336.429
20
131.429
10
330.714
20
130.000
10
330.000
20
125.000
10
325.000
20
125.714
10
325.000
20
147.143
10
330.000
20
147.857
0
LWPOLYLINE
8
BLACK
90
5
70
1
10
325.000
20
284.286
10
324.286
20
279.286
10
319.286
20
280.000
10
320.000
20
285.000
10
325.000
20
284.286
0
LWPOLYLINE
8
BLACK
90
5
70
1
10
290.714
20
410.000
10
295.714
20
410.714
10
296.429
20
400.000
10
290.714
20
400.000
10
290.714
20
410.000
0
LWPOLYLINE
8
BLACK
90
5
70
1
10
239.286
20
450.000
10
244.286
20
450.714
10
245.000
20
440.000
10
239.286
20
440.000
10
239.286
20
450.000
0
LWPOLYLINE
8
BLACK
90
23
70
1
10
187.143
20
416.429
10
171.429
20
416.429
10
170.000
20
422.143
10
154.286
20
422.143
10
152.857
20
427.857
10
142.857
20
427.857
10
141.429
20
433.571
10
131.429
20
433.571
10
130.000
20
439.286
10
125.000
20
440.000
10
124.286
20
445.000
10
119.286
20
445.714
10
119.286
20
455.714
10
125.000
20
457.143
10
125.714
20
462.143
10
175.714
20
462.143
10
177.143
20
456.429
10
187.143
20
456.429
10
187.857
20
434.286
10
193.571
20
432.857
10
193.571
20
411.429
10
187.857
20
411.429
10
187.143
20
416.429
0
ENDSEC
0
EOF