  0
SECTION
  2
HEADER
  9
$ACADVER
  1
AC1027
  9
$ACADMAINTVER
 70
105
  9
$DWGCODEPAGE
  3
ANSI_1252
  9
$LASTSAVEDBY
  1
ezdxf
  9
$REQUIREDVERSIONS
160
0
  9
$INSBASE
 10
0.0
 20
0.0
 30
0.0
  9
$EXTMIN
 10
1e+20
 20
1e+20
 30
1e+20
  9
$EXTMAX
 10
-1e+20
 20
-1e+20
 30
-1e+20
  9
$LIMMIN
 10
0.0
 20
0.0
  9
$LIMMAX
 10
420.0
 20
297.0
  9
$ORTHOMODE
 70
0
  9
$REGENMODE
 70
1
  9
$FILLMODE
 70
1
  9
$QTEXTMODE
 70
0
  9
$MIRRTEXT
 70
1
  9
$LTSCALE
 40
1.0
  9
$ATTMODE
 70
1
  9
$TEXTSIZE
 40
2.5
  9
$TRACEWID
 40
1.0
  9
$TEXTSTYLE
  7
Standard
  9
$CLAYER
  8
0
  9
$CELTYPE
  6
ByLayer
  9
$CECOLOR
 62
256
  9
$CELTSCALE
 40
1.0
  9
$DISPSILH
 70
0
  9
$DIMSCALE
 40
1.0
  9
$DIMASZ
 40
2.5
  9
$DIMEXO
 40
0.625
  9
$DIMDLI
 40
3.75
  9
$DIMRND
 40
0.0
  9
$DIMDLE
 40
0.0
  9
$DIMEXE
 40
1.25
  9
$DIMTP
 40
0.0
  9
$DIMTM
 40
0.0
  9
$DIMTXT
 40
2.5
  9
$DIMCEN
 40
2.5
  9
$DIMTSZ
 40
0.0
  9
$DIMTOL
 70
0
  9
$DIMLIM
 70
0
  9
$DIMTIH
 70
0
  9
$DIMTOH
 70
0
  9
$DIMSE1
 70
0
  9
$DIMSE2
 70
0
  9
$DIMTAD
 70
1
  9
$DIMZIN
 70
8
  9
$DIMBLK
  1

  9
$DIMASO
 70
1
  9
$DIMSHO
 70
1
  9
$DIMPOST
  1

  9
$DIMAPOST
  1

  9
$DIMALT
 70
0
  9
$DIMALTD
 70
3
  9
$DIMALTF
 40
0.03937007874
  9
$DIMLFAC
 40
1.0
  9
$DIMTOFL
 70
1
  9
$DIMTVP
 40
0.0
  9
$DIMTIX
 70
0
  9
$DIMSOXD
 70
0
  9
$DIMSAH
 70
0
  9
$DIMBLK1
  1

  9
$DIMBLK2
  1

  9
$DIMSTYLE
  2
ISO-25
  9
$DIMCLRD
 70
0
  9
$DIMCLRE
 70
0
  9
$DIMCLRT
 70
0
  9
$DIMTFAC
 40
1.0
  9
$DIMGAP
 40
0.625
  9
$DIMJUST
 70
0
  9
$DIMSD1
 70
0
  9
$DIMSD2
 70
0
  9
$DIMTOLJ
 70
0
  9
$DIMTZIN
 70
8
  9
$DIMALTZ
 70
0
  9
$DIMALTTZ
 70
0
  9
$DIMUPT
 70
0
  9
$DIMDEC
 70
2
  9
$DIMTDEC
 70
2
  9
$DIMALTU
 70
2
  9
$DIMALTTD
 70
3
  9
$DIMTXSTY
  7
Standard
  9
$DIMAUNIT
 70
0
  9
$DIMADEC
 70
0
  9
$DIMALTRND
 40
0.0
  9
$DIMAZIN
 70
0
  9
$DIMDSEP
 70
44
  9
$DIMATFIT
 70
3
  9
$DIMFRAC
 70
0
  9
$DIMLDRBLK
  1

  9
$DIMLUNIT
 70
2
  9
$DIMLWD
 70
-2
  9
$DIMLWE
 70
-2
  9
$DIMTMOVE
 70
0
  9
$DIMFXL
 40
1.0
  9
$DIMFXLON
 70
0
  9
$DIMJOGANG
 40
0.785398163397
  9
$DIMTFILL
 70
0
  9
$DIMTFILLCLR
 70
0
  9
$DIMARCSYM
 70
0
  9
$DIMLTYPE
  6

  9
$DIMLTEX1
  6

  9
$DIMLTEX2
  6

  9
$DIMTXTDIRECTION
 70
0
  9
$LUNITS
 70
2
  9
$LUPREC
 70
4
  9
$SKETCHINC
 40
1.0
  9
$FILLETRAD
 40
10.0
  9
$AUNITS
 70
0
  9
$AUPREC
 70
2
  9
$MENU
  1
.
  9
$ELEVATION
 40
0.0
  9
$PELEVATION
 40
0.0
  9
$THICKNESS
 40
0.0
  9
$LIMCHECK
 70
0
  9
$CHAMFERA
 40
0.0
  9
$CHAMFERB
 40
0.0
  9
$CHAMFERC
 40
0.0
  9
$CHAMFERD
 40
0.0
  9
$SKPOLY
 70
0
  9
$TDCREATE
 40
2461242.7855324075
  9
$TDUCREATE
 40
2458532.153996898
  9
$TDUPDATE
 40
2461242.7855324075
  9
$TDUUPDATE
 40
2458532.1544311
  9
$TDINDWG
 40
0.0
  9
$TDUSRTIMER
 40
0.0
  9
$USRTIMER
 70
1
  9
$ANGBASE
 50
0.0
  9
$ANGDIR
 70
0
  9
$PDMODE
 70
0
  9
$PDSIZE
 40
0.0
  9
$PLINEWID
 40
0.0
  9
$SPLFRAME
 70
0
  9
$SPLINETYPE
 70
6
  9
$SPLINESEGS
 70
8
  9
$HANDSEED
  5
5E
  9
$SURFTAB1
 70
6
  9
$SURFTAB2
 70
6
  9
$SURFTYPE
 70
6
  9
$SURFU
 70
6
  9
$SURFV
 70
6
  9
$UCSBASE
  2

  9
$UCSNAME
  2

  9
$UCSORG
 10
0.0
 20
0.0
 30
0.0
  9
$UCSXDIR
 10
1.0
 20
0.0
 30
0.0
  9
$UCSYDIR
 10
0.0
 20
1.0
 30
0.0
  9
$UCSORTHOREF
  2

  9
$UCSORTHOVIEW
 70
0
  9
$UCSORGTOP
 10
0.0
 20
0.0
 30
0.0
  9
$UCSORGBOTTOM
 10
0.0
 20
0.0
 30
0.0
  9
$UCSORGLEFT
 10
0.0
 20
0.0
 30
0.0
  9
$UCSORGRIGHT
 10
0.0
 20
0.0
 30
0.0
  9
$UCSORGFRONT
 10
0.0
 20
0.0
 30
0.0
  9
$UCSORGBACK
 10
0.0
 20
0.0
 30
0.0
  9
$PUCSBASE
  2

  9
$PUCSNAME
  2

  9
$PUCSORG
 10
0.0
 20
0.0
 30
0.0
  9
$PUCSXDIR
 10
1.0
 20
0.0
 30
0.0
  9
$PUCSYDIR
 10
0.0
 20
1.0
 30
0.0
  9
$PUCSORTHOREF
  2

  9
$PUCSORTHOVIEW
 70
0
  9
$PUCSORGTOP
 10
0.0
 20
0.0
 30
0.0
  9
$PUCSORGBOTTOM
 10
0.0
 20
0.0
 30
0.0
  9
$PUCSORGLEFT
 10
0.0
 20
0.0
 30
0.0
  9
$PUCSORGRIGHT
 10
0.0
 20
0.0
 30
0.0
  9
$PUCSORGFRONT
 10
0.0
 20
0.0
 30
0.0
  9
$PUCSORGBACK
 10
0.0
 20
0.0
 30
0.0
  9
$USERI1
 70
0
  9
$USERI2
 70
0
  9
$USERI3
 70
0
  9
$USERI4
 70
0
  9
$USERI5
 70
0
  9
$USERR1
 40
0.0
  9
$USERR2
 40
0.0
  9
$USERR3
 40
0.0
  9
$USERR4
 40
0.0
  9
$USERR5
 40
0.0
  9
$WORLDVIEW
 70
1
  9
$SHADEDGE
 70
3
  9
$SHADEDIF
 70
70
  9
$TILEMODE
 70
1
  9
$MAXACTVP
 70
64
  9
$PINSBASE
 10
0.0
 20
0.0
 30
0.0
  9
$PLIMCHECK
 70
0
  9
$PEXTMIN
 10
1e+20
 20
1e+20
 30
1e+20
  9
$PEXTMAX
 10
-1e+20
 20
-1e+20
 30
-1e+20
  9
$PLIMMIN
 10
0.0
 20
0.0
  9
$PLIMMAX
 10
420.0
 20
297.0
  9
$UNITMODE
 70
0
  9
$VISRETAIN
 70
1
  9
$PLINEGEN
 70
0
  9
$PSLTSCALE
 70
1
  9
$TREEDEPTH
 70
3020
  9
$CMLSTYLE
  2
Standard
  9
$CMLJUST
 70
0
  9
$CMLSCALE
 40
20.0
  9
$PROXYGRAPHICS
 70
1
  9
$MEASUREMENT
 70
1
  9
$CELWEIGHT
370
-1
  9
$ENDCAPS
280
0
  9
$JOINSTYLE
280
0
  9
$LWDISPLAY
290
0
  9
$INSUNITS
 70
4
  9
$HYPERLINKBASE
  1

  9
$STYLESHEET
  1

  9
$XEDIT
290
1
  9
$CEPSNTYPE
380
0
  9
$PSTYLEMODE
290
1
  9
$FINGERPRINTGUID
  2
{4597EA42-FFCC-4806-AB89-09FFB6546FE9}
  9
$VERSIONGUID
  2
{4C9FC328-E684-4A98-B3DD-F560F4B7EF31}
  9
$EXTNAMES
290
1
  9
$PSVPSCALE
 40
0.0
  9
$OLESTARTUP
290
0
  9
$SORTENTS
280
127
  9
$INDEXCTL
280
0
  9
$HIDETEXT
280
1
  9
$XCLIPFRAME
280
1
  9
$HALOGAP
280
0
  9
$OBSCOLOR
 70
257
  9
$OBSLTYPE
280
0
  9
$INTERSECTIONDISPLAY
280
0
  9
$INTERSECTIONCOLOR
 70
257
  9
$DIMASSOC
280
2
  9
$PROJECTNAME
  1

  9
$CAMERADISPLAY
290
0
  9
$LENSLENGTH
 40
50.0
  9
$CAMERAHEIGHT
 40
0.0
  9
$STEPSPERSEC
 40
24.0
  9
$STEPSIZE
 40
100.0
  9
$3DDWFPREC
 40
2.0
  9
$PSOLWIDTH
 40
0.005
  9
$PSOLHEIGHT
 40
0.08
  9
$LOFTANG1
 40
1.570796326795
  9
$LOFTANG2
 40
1.570796326795
  9
$LOFTMAG1
 40
0.0
  9
$LOFTMAG2
 40
0.0
  9
$LOFTPARAM
 70
7
  9
$LOFTNORMALS
280
1
  9
$LATITUDE
 40
37.795
  9
$LONGITUDE
 40
-122.394
  9
$NORTHDIRECTION
 40
0.0
  9
$TIMEZONE
 70
-8000
  9
$LIGHTGLYPHDISPLAY
280
1
  9
$TILEMODELIGHTSYNCH
280
1
  9
$CMATERIAL
347
20
  9
$SOLIDHIST
280
0
  9
$SHOWHIST
280
1
  9
$DWFFRAME
280
2
  9
$DGNFRAME
280
2
  9
$REALWORLDSCALE
290
1
  9
$INTERFERECOLOR
 62
256
  9
$CSHADOW
280
0
  9
$SHADOWPLANELOCATION
 40
0.0
  0
ENDSEC
  0
SECTION
  2
CLASSES
  0
CLASS
  1
ACDBDICTIONARYWDFLT
  2
AcDbDictionaryWithDefault
  3
ObjectDBX Classes
 90
0
 91
0
280
0
281
0
  0
CLASS
  1
SUN
  2
AcDbSun
  3
SCENEOE
 90
1153
 91
0
280
0
281
0
  0
CLASS
  1
VISUALSTYLE
  2
AcDbVisualStyle
  3
ObjectDBX Classes
 90
4095
 91
0
280
0
281
0
  0
CLASS
  1
MATERIAL
  2
AcDbMaterial
  3
ObjectDBX Classes
 90
1153
 91
0
280
0
281
0
  0
CLASS
  1
SCALE
  2
AcDbScale
  3
ObjectDBX Classes
 90
1153
 91
0
280
0
281
0
  0
CLASS
  1
TABLESTYLE
  2
AcDbTableStyle
  3
ObjectDBX Classes
 90
4095
 91
0
280
0
281
0
  0
CLASS
  1
MLEADERSTYLE
  2
AcDbMLeaderStyle
  3
ACDB_MLEADERSTYLE_CLASS
 90
4095
 91
0
280
0
281
0
  0
CLASS
  1
DICTIONARYVAR
  2
AcDbDictionaryVar
  3
ObjectDBX Classes
 90
0
 91
0
280
0
281
0
  0
CLASS
  1
CELLSTYLEMAP
  2
AcDbCellStyleMap
  3
ObjectDBX Classes
 90
1152
 91
0
280
0
281
0
  0
CLASS
  1
MENTALRAYRENDERSETTINGS
  2
AcDbMentalRayRenderSettings
  3
SCENEOE
 90
1024
 91
0
280
0
281
0
  0
CLASS
  1
ACDBDETAILVIEWSTYLE
  2
AcDbDetailViewStyle
  3
ObjectDBX Classes
 90
1025
 91
0
280
0
281
0
  0
CLASS
  1
ACDBSECTIONVIEWSTYLE
  2
AcDbSectionViewStyle
  3
ObjectDBX Classes
 90
1025
 91
0
280
0
281
0
  0
CLASS
  1
RASTERVARIABLES
  2
AcDbRasterVariables
  3
ISM
 90
0
 91
0
280
0
281
0
  0
CLASS
  1
ACDBPLACEHOLDER
  2
AcDbPlaceHolder
  3
ObjectDBX Classes
 90
0
 91
0
280
0
281
0
  0
CLASS
  1
LAYOUT
  2
AcDbLayout
  3
ObjectDBX Classes
 90
0
 91
0
280
0
281
0
  0
ENDSEC
  0
SECTION
  2
TABLES
  0
TABLE
  2
VPORT
  5
8
330
0
100
AcDbSymbolTable
 70
1
  0
VPORT
  5
23
330
8
100
AcDbSymbolTableRecord
100
AcDbViewportTableRecord
  2
*Active
 70
0
 10
0.0
 20
0.0
 11
1.0
 21
1.0
 12
0.0
 22
0.0
 13
0.0
 23
0.0
 14
0.5
 24
0.5
 15
0.5
 25
0.5
 16
0.0
 26
0.0
 36
1.0
 17
0.0
 27
0.0
 37
0.0
 40
1000.0
 41
1.34
 42
50.0
 43
0.0
 44
0.0
 50
0.0
 51
0.0
 71
0
 72
1000
 73
1
 74
3
 75
0
 76
0
 77
0
 78
0
281
0
 65
0
146
0.0
  0
ENDTAB
  0
TABLE
  2
LTYPE
  5
2
330
0
100
AcDbSymbolTable
 70
3
  0
LTYPE
  5
24
330
2
100
AcDbSymbolTableRecord
100
AcDbLinetypeTableRecord
  2
ByBlock
 70
0
  3

 72
65
 73
0
 40
0.0
  0
LTYPE
  5
25
330
2
100
AcDbSymbolTableRecord
100
AcDbLinetypeTableRecord
  2
ByLayer
 70
0
  3

 72
65
 73
0
 40
0.0
  0
LTYPE
  5
26
330
2
100
AcDbSymbolTableRecord
100
AcDbLinetypeTableRecord
  2
Continuous
 70
0
  3

 72
65
 73
0
 40
0.0
  0
ENDTAB
  0
TABLE
  2
LAYER
  5
1
330
0
100
AcDbSymbolTable
 70
3
  0
LAYER
  5
27
330
1
100
AcDbSymbolTableRecord
100
AcDbLayerTableRecord
  2
0
 70
0
 62
7
  6
Continuous
370
-3
390
13
347
21
  0
LAYER
  5
28
330
1
100
AcDbSymbolTableRecord
100
AcDbLayerTableRecord
  2
Defpoints
 70
0
 62
7
  6
Continuous
290
0
370
-3
390
13
347
21
  0
LAYER
  5
2F
330
1
100
AcDbSymbolTableRecord
100
AcDbLayerTableRecord
  2
M
 70
0
 62
7
  6
Continuous
370
-3
390
13
347
21
  0
ENDTAB
  0
TABLE
  2
STYLE
  5
5
330
0
100
AcDbSymbolTable
 70
1
  0
STYLE
  5
29
330
5
100
AcDbSymbolTableRecord
100
AcDbTextStyleTableRecord
  2
Standard
 70
0
 40
0.0
 41
1.0
 50
0.0
 71
0
 42
2.5
  3
txt
  4

  0
ENDTAB
  0
TABLE
  2
VIEW
  5
7
330
0
100
AcDbSymbolTable
 70
0
  0
ENDTAB
  0
TABLE
  2
UCS
  5
6
330
0
100
AcDbSymbolTable
 70
0
  0
ENDTAB
  0
TABLE
  2
APPID
  5
3
330
0
100
AcDbSymbolTable
 70
3
  0
APPID
  5
2A
330
3
100
AcDbSymbolTableRecord
100
AcDbRegAppTableRecord
  2
ACAD
 70
0
  0
APPID
  5
5B
330
3
100
AcDbSymbolTableRecord
100
AcDbRegAppTableRecord
  2
HATCHBACKGROUNDCOLOR
 70
0
  0
APPID
  5
5C
330
3
100
AcDbSymbolTableRecord
100
AcDbRegAppTableRecord
  2
EZDXF
 70
0
  0
ENDTAB
  0
TABLE
  2
DIMSTYLE
  5
4
330
0
100
AcDbSymbolTable
 70
1
100
AcDbDimStyleTable
  0
DIMSTYLE
105
2B
330
4
100
AcDbSymbolTableRecord
100
AcDbDimStyleTableRecord
  2
Standard
 70
0
 40
1.0
 41
2.5
 42
0.625
 43
3.75
 44
1.25
 45
0.0
 46
0.0
 47
0.0
 48
0.0
 49
2.5
140
2.5
141
2.5
142
0.0
143
0.03937007874
144
1.0
145
0.0
146
1.0
147
0.625
148
0.0
 69
0
 70
0
 71
0
 72
0
 73
0
 74
0
 75
0
 76
0
 77
1
 78
8
 79
3
170
0
171
3
172
1
173
0
174
0
175
0
176
0
177
0
178
0
179
2
271
2
272
2
273
2
274
3
275
0
276
0
277
2
278
44
279
0
280
0
281
0
282
0
283
0
284
8
285
0
286
0
288
0
289
3
290
0
371
-2
372
-2
  0
ENDTAB
  0
TABLE
  2
BLOCK_RECORD
  5
9
330
0
100
AcDbSymbolTable
 70
2
  0
BLOCK_RECORD
  5
17
330
9
100
AcDbSymbolTableRecord
100
AcDbBlockTableRecord
  2
*Model_Space
340
1A
 70
0
280
1
281
0
  0
BLOCK_RECORD
  5
1B
330
9
100
AcDbSymbolTableRecord
100
AcDbBlockTableRecord
  2
*Paper_Space
340
1E
 70
0
280
1
281
0
  0
ENDTAB
  0
ENDSEC
  0
SECTION
  2
BLOCKS
  0
BLOCK
  5
18
330
17
100
AcDbEntity
  8
0
100
AcDbBlockBegin
  2
*Model_Space
 70
0
 10
0.0
 20
0.0
 30
0.0
  3
*Model_Space
  1

  0
ENDBLK
  5
19
330
17
100
AcDbEntity
  8
0
100
AcDbBlockEnd
  0
BLOCK
  5
1C
330
1B
100
AcDbEntity
  8
0
100
AcDbBlockBegin
  2
*Paper_Space
 70
0
 10
0.0
 20
0.0
 30
0.0
  3
*Paper_Space
  1

  0
ENDBLK
  5
1D
330
1B
100
AcDbEntity
  8
0
100
AcDbBlockEnd
  0
ENDSEC
  0
SECTION
  2
ENTITIES
  0
LWPOLYLINE
  5
30
330
17
100
AcDbEntity
  8
M
100
AcDbPolyline
 90
44
 70
1
 10
227.60378323095458
 20
65.06830365251237
 10
226.44969458074806
 20
66.53156495710432
 10
227.5764229829477
 20
67.96013638567588
 10
226.44969458074806
 20
69.38870781424723
 10
232.77406104085293
 20
77.40732988065035
 10
235.05016845838887
 20
74.52146846213692
 10
237.25194796935565
 20
75.91727924281867
 10
244.08983432270227
 20
75.91727924281867
 10
245.2165627249019
 20
74.48870781424732
 10
248.4997694117951
 20
74.48870781424732
 10
253.00668302059358
 20
80.20299352853289
 10
257.5135966293922
 20
80.20299352853289
 10
258.68881429144477
 20
81.6930441663648
 10
259.86403195349715
 20
80.20299352853289
 10
262.02051023819075
 20
80.20299352853289
 10
263.14723864039036
 20
81.63156495710444
 10
267.654152249189
 20
81.63156495710444
 10
268.7808806513886
 20
83.06013638567578
 10
273.3847727798929
 20
83.06013638567578
 10
277.3998530303339
 20
77.96944290710228
 10
274.4984349064078
 20
72.81927873575134
 10
272.23220573097706
 20
74.25594716635774
 10
269.5200943603482
 20
70.81727924281877
 10
272.23220573097706
 20
67.3786113192798
 10
274.4856625353763
 20
68.80718274785113
 10
279.66064998014497
 20
62.2458506713901
 10
276.76495798649194
 20
58.57442209996155
 10
266.62440236669505
 20
58.57442209996155
 10
265.4976739644954
 20
57.145850671389994
 10
258.71784097174054
 20
57.145850671389994
 10
256.4127068739088
 20
55.68451859492907
 10
250.80171547604724
 20
62.79865717641542
 10
249.72347633370043
 20
61.43156495710444
 10
247.47001952930117
 20
61.43156495710444
 10
242.9146166606497
 20
55.6558000335583
 10
240.66115985625044
 20
58.51294289070119
 10
234.5782703412936
 20
50.80048783297908
 10
235.7049987434933
 20
47.94334497583619
 10
231.67863362243304
 20
42.838343485047226
 10
229.88537201370642
 20
43.59623163069681
 10
227.58505048046283
 20
47.97107513225063
 10
230.95660818954664
 20
52.245850671390095
 10
227.60378323095458
 20
56.4968750810837
 10
227.60378323095458
 20
65.06830365251237
  0
LWPOLYLINE
  5
31
330
17
100
AcDbEntity
  8
M
100
AcDbPolyline
 90
79
 70
1
 10
153.2397086857781
 20
190.8419671904129
 10
153.2397086857781
 20
205.1376834045535
 10
154.36643708797774
 20
206.56625483312507
 10
154.36643708797774
 20
212.28054054741062
 10
158.84599044876944
 20
217.9601363856758
 10
156.10804043142437
 20
221.43156495710437
 10
147.09421321382717
 20
221.43156495710437
 10
145.9674848116275
 20
222.86013638567593
 10
141.460571202829
 20
222.86013638567593
 10
140.33384280062936
 20
224.28870781424726
 10
131.3200155830322
 20
224.28870781424726
 10
130.18935799599535
 20
225.72226103007554
 10
116.66295180999134
 20
227.151431047953
 10
111.52798823991688
 20
235.10881402557482
 10
114.41908955003751
 20
238.77442209996147
 10
136.95365759403035
 20
238.77442209996147
 10
138.08038599622998
 20
240.2029935285328
 10
149.34767001822644
 20
240.2029935285328
 10
150.49508346140954
 20
241.65779138264764
 10
156.1843759937757
 20
238.7724249555101
 10
173.01226071747496
 20
237.35002743287504
 10
175.7469164817641
 20
240.8172792428187
 10
170.14063471877276
 20
247.9254465096552
 10
170.14063471877276
 20
252.21116079536944
 10
167.8924723737322
 20
255.06159084279267
 10
166.76574397153252
 20
262.2044479856498
 10
165.61960441283293
 20
263.6576306901217
 10
166.74633281503256
 20
266.51477354726484
 10
163.36153155508313
 20
270.80634049624376
 10
165.61498835948242
 20
275.0920547819582
 10
160.0053735583347
 20
282.20444798564984
 10
158.878645156135
 20
289.34730512850695
 10
157.74662229457667
 20
290.7825893667979
 10
157.74662229457667
 20
295.0756312867151
 10
154.34546232290216
 20
300.8253753540515
 10
157.234768833624
 20
304.4887078142473
 10
161.83866096212833
 20
304.4887078142473
 10
166.29708531107397
 20
298.83590130922187
 10
170.75550966001964
 20
304.4887078142473
 10
171.97921658192507
 20
304.4887078142473
 10
173.10594498412476
 20
303.0601363856758
 10
179.84173452105892
 20
303.0601363856758
 10
185.47537653205717
 20
300.20299352853283
 10
188.86068003536275
 20
300.20299352853283
 10
193.3675936441613
 20
297.34585067139017
 10
195.55542245941385
 20
297.34585067139017
 10
198.98666200723505
 20
300.2461478344165
 10
204.65434024571474
 20
293.0601363856757
 10
206.90779705011406
 20
293.0601363856757
 10
209.7761287957602
 20
289.4233976902678
 10
209.7761287957602
 20
277.9354484380814
 10
207.54140474185272
 20
273.6853608465364
 10
210.9028571979599
 20
269.4233976902678
 10
210.9028571979599
 20
260.85196911883935
 10
213.15631400235915
 20
257.99482626169646
 10
213.15631400235915
 20
246.5662548331251
 10
214.3104026525657
 20
245.10299352853292
 10
210.92383196303547
 20
240.80918313158594
 10
214.30253638235433
 20
235.09740072439223
 10
201.27665665985674
 20
217.14585067139015
 10
193.2900777040126
 20
217.14585067139015
 10
192.16334930181293
 20
218.57442209996148
 10
177.61285859292335
 20
218.57442209996148
 10
176.45209396324222
 20
217.1026963655065
 10
173.07190875664327
 20
219.95983922264918
 10
170.3679949667796
 20
216.53156495710425
 10
173.08010633740847
 20
213.09289703356527
 10
175.33356314180773
 20
214.52146846213682
 10
177.61285859292335
 20
211.63156495710433
 10
187.75341421272003
 20
211.63156495710433
 10
188.88014261491972
 20
210.202993528533
 10
191.1435508809428
 20
210.202993528533
 10
194.02105445665356
 20
205.09527889190315
 10
173.0984854067335
 20
177.1337695404034
 10
160.60670689540672
 20
180.0134500284567
 10
159.48822563802327
 20
181.43156495710434
 10
156.11551654495406
 20
181.43156495710434
 10
150.96321892666413
 20
186.51244791013656
 10
153.2397086857781
 20
190.8419671904129
  0
LWPOLYLINE
  5
32
330
17
100
AcDbEntity
  8
M
100
AcDbPolyline
 90
112
 70
1
 10
93.05973916809718
 20
251.37008574784403
 10
91.88452150604468
 20
252.86013638567573
 10
85.1241510928468
 20
252.86013638567573
 10
83.99742269064717
 20
254.28870781424706
 10
77.23705227744928
 20
254.28870781424706
 10
76.10563775658044
 20
255.72322074143418
 10
64.83835373458402
 20
257.1517921700057
 10
61.97470810760699
 20
260.7825893667981
 10
61.97470810760699
 20
275.0683036525123
 10
59.209397842255015
 20
278.5744220999615
 10
54.72841072561096
 20
278.5744220999615
 10
45.707659804059695
 20
282.86342832995535
 10
26.528797899191463
 20
285.7242225807963
 10
25.403616591428506
 20
287.1508324586469
 10
11.882875765032802
 20
288.57940388721846
 10
9.633348145470706
 20
291.43156495710446
 10
5.1264345366721225
 20
291.43156495710446
 10
2.2349395598302566
 20
295.097672158902
 10
7.875792769118151
 20
303.6800723666067
 10
5.61955524713309
 20
307.97107513225063
 10
7.859690573819411
 20
310.81132777662333
 10
1.136453907275764
 20
317.914950227989
 10
0.0
 20
326.5603642176587
 10
2.9070139597543316
 20
330.24614783441655
 10
6.287199166353258
 20
327.38900497727366
 10
9.633348145470706
 20
331.63156495710444
 10
11.886804949870017
 20
331.63156495710444
 10
13.039371998785882
 20
333.09289703356535
 10
15.344506096617666
 20
331.63156495710444
 10
22.027360569666783
 20
331.63156495710444
 10
23.154088971866464
 20
333.0601363856758
 10
40.15199352456686
 20
333.0601363856758
 10
42.40545032896612
 20
330.2029935285329
 10
73.85686707085034
 20
330.2029935285329
 10
75.0320847329029
 20
331.6930441663648
 10
76.2073023949554
 20
330.2029935285329
 10
96.39143511484325
 20
330.2029935285329
 10
97.51816351704286
 20
331.63156495710444
 10
100.99532724334756
 20
331.63156495710444
 10
102.12205564554722
 20
330.2029935285329
 10
108.88242605874507
 20
330.2029935285329
 10
109.96066520109183
 20
328.8359013092217
 10
111.0389043434386
 20
330.2029935285329
 10
132.44674398523182
 20
330.2029935285329
 10
133.59066066350465
 20
331.653357857733
 10
136.99283638348166
 20
330.21549255406546
 10
141.48003378238596
 20
333.0601363856758
 10
144.93773492913368
 20
333.0601363856758
 10
146.0644633313333
 20
331.63156495710444
 10
152.8248337445312
 20
331.63156495710444
 10
155.07829054893043
 20
328.7744220999613
 10
157.3317473533297
 20
328.7744220999613
 10
160.20007909897595
 20
325.1376834045534
 10
160.20007909897595
 20
322.2111607953695
 10
156.20501895113006
 20
317.14585067139024
 10
153.95156214673082
 20
317.14585067139024
 10
152.8248337445312
 20
315.7172792428187
 10
148.2209416160268
 20
315.7172792428187
 10
147.09421321382717
 20
317.14585067139024
 10
131.41699410273793
 20
317.14585067139024
 10
130.2417764406854
 20
315.6558000335583
 10
129.06655877863287
 20
317.14585067139024
 10
126.91008049393935
 20
317.14585067139024
 10
125.78335209173972
 20
315.7172792428187
 10
114.41908955003751
 20
315.7172792428187
 10
113.2923611478379
 20
317.14585067139024
 10
97.61514203674862
 20
317.14585067139024
 10
96.48841363454899
 20
315.7172792428187
 10
85.22112961255255
 20
315.7172792428187
 10
84.09440121035291
 20
314.2887078142471
 10
79.4905090818486
 20
314.2887078142471
 10
78.36378067964891
 20
315.7172792428187
 10
75.08057399275577
 20
315.7172792428187
 10
73.96284755209695
 20
314.30012134126326
 10
62.69556353010053
 20
311.4429784841206
 10
58.8218831490149
 20
306.5315649571043
 10
61.51134390650717
 20
303.1216155949361
 10
62.58958304885395
 20
304.4887078142473
 10
64.94001837295902
 20
304.4887078142473
 10
67.15943894987677
 20
301.6747192629878
 10
70.48856981525346
 20
304.4887078142473
 10
72.82711718835647
 20
304.4887078142473
 10
75.72280918200954
 20
300.81727924281876
 10
74.59608077980992
 20
299.3887078142472
 10
77.30819215043883
 20
295.95003989070824
 10
81.76342846580489
 20
298.7744220999615
 10
84.08251325935088
 20
298.7744220999615
 10
87.41164412472757
 20
295.96043354870227
 10
89.63106470164539
 20
298.7744220999615
 10
93.01124990824431
 20
298.7744220999615
 10
94.13797831044396
 20
300.20299352853283
 10
105.42833727104123
 20
300.20299352853283
 10
113.31543608643874
 20
304.4887078142473
 10
117.87679069678519
 20
304.4887078142473
 10
120.07857020775198
 20
303.09289703356535
 10
121.1794599632354
 20
304.4887078142473
 10
129.06655877863287
 20
304.4887078142473
 10
130.19328718083253
 20
305.91727924281867
 10
146.0644633313333
 20
305.91727924281867
 10
148.96267358576367
 20
302.2426577853414
 10
137.0476355060932
 20
288.5744220999615
 10
135.92390771153654
 20
288.5744220999615
 10
121.91867367219494
 20
270.81727924281853
 10
123.0403364618952
 20
269.39513047055954
 10
118.50392354677841
 20
262.2055208604634
 10
117.37686115245066
 20
257.9185361755722
 10
111.1356817758486
 20
248.56663196352224
 10
100.89316372187723
 20
250.00956755769877
 10
99.77162032144216
 20
251.4315649571044
 10
95.26470671264359
 20
251.4315649571044
 10
94.18646757029683
 20
252.79865717641536
 10
93.05973916809718
 20
251.37008574784403
  0
LWPOLYLINE
  5
33
330
17
100
AcDbEntity
  8
M
100
AcDbPolyline
 90
6
 70
1
 10
116.76952487414258
 20
281.4315649571042
 10
114.03157485679743
 20
277.96013638567564
 10
117.85998613066693
 20
273.10611925786253
 10
121.6549485823577
 20
276.54298182157413
 10
117.79927475663646
 20
281.4315649571042
 10
116.76952487414258
 20
281.4315649571042
  0
LWPOLYLINE
  5
34
330
17
100
AcDbEntity
  8
M
100
AcDbPolyline
 90
7
 70
1
 10
52.44902742905713
 20
303.0601363856758
 10
55.1869774464023
 20
306.5315649571043
 10
52.44902742905713
 20
310.0029935285329
 10
50.292549144363626
 20
310.0029935285329
 10
47.554599127018456
 20
306.5315649571043
 10
50.292549144363626
 20
303.0601363856758
 10
52.44902742905713
 20
303.0601363856758
  0
LWPOLYLINE
  5
35
330
17
100
AcDbEntity
  8
M
100
AcDbPolyline
 90
14
 70
1
 10
31.113585430706024
 20
300.20299352853283
 10
35.548101396062485
 20
300.20299352853283
 10
39.41277981560729
 20
305.10299352853275
 10
36.67482979826212
 20
308.57442209996134
 10
26.6312526981711
 20
308.57442209996134
 10
25.47369824999146
 20
307.10676653322764
 10
19.788679495693213
 20
311.43156495710446
 10
17.61742548057396
 20
311.43156495710446
 10
13.752747061029163
 20
306.5315649571043
 10
16.490697078374332
 20
303.0601363856758
 10
18.744153882773645
 20
303.0601363856758
 10
22.075849829519655
 20
298.83590130922187
 10
25.42823081724918
 20
303.08636281121903
 10
31.113585430706024
 20
300.20299352853283
  0
LWPOLYLINE
  5
36
330
17
100
AcDbEntity
  8
M
100
AcDbPolyline
 90
67
 70
1
 10
876.814164981565
 20
74.28870781424735
 10
870.4665603901915
 20
78.57442209996157
 10
864.1046395962312
 20
78.57442209996157
 10
862.8351186779565
 20
80.00299352853291
 10
859.038129995185
 20
80.00299352853291
 10
855.229567240361
 20
82.8601363856758
 10
851.421004485537
 20
82.8601363856758
 10
847.6029162098043
 20
85.72442518625634
 10
841.2448129954105
 20
87.15535940108343
 10
838.0068299061112
 20
90.79900958516785
 10
839.2938958238657
 20
93.69563865259734
 10
839.2938958238657
 20
107.98135293831157
 10
841.8478638585158
 20
113.7292310729141
 10
845.6415004152391
 20
117.99814914847029
 10
845.6415004152391
 20
122.26706722402602
 10
848.1805422517886
 20
127.98135293831159
 10
848.1805422517886
 20
130.85529200561297
 10
851.4094304134844
 20
134.48870781424716
 10
853.9430062441288
 20
134.48870781424716
 10
860.2809840205084
 20
143.04713690596625
 10
865.367766578917
 20
144.4781555133976
 10
874.3112743623515
 20
153.10442851362117
 10
875.580795280626
 20
151.6758570850496
 10
884.4105803530372
 20
160.1924412276834
 10
889.4846859980345
 20
161.61989355352736
 10
892.0340997982744
 20
164.4887078142472
 10
894.6629699028053
 20
164.4887078142472
 10
896.6060385805354
 20
162.3022039474742
 10
902.9536431719087
 20
149.4450610903315
 10
907.3581790855524
 20
144.48870781424716
 10
909.80739265412
 20
144.48870781424716
 10
913.5928072648388
 20
148.74837386647675
 10
917.4360922358205
 20
151.63156495710427
 10
919.9689221071264
 20
151.63156495710427
 10
927.5860476167744
 20
158.77442209996138
 10
931.3892482647896
 20
158.77442209996138
 10
935.1821805354755
 20
163.04254765379045
 10
941.5297851268488
 20
165.8996905109331
 10
945.3405901700843
 20
170.18792800765792
 10
949.2570627705285
 20
171.65697583959673
 10
952.4812575503129
 20
165.1263338806952
 10
952.4812575503129
 20
137.99814914847008
 10
953.7507784685876
 20
136.56957771989875
 10
953.7507784685876
 20
132.2078379085958
 10
951.7914112251663
 20
130.00299352853295
 10
946.6288613908947
 20
130.00299352853295
 10
939.0117358812468
 20
137.14585067139006
 10
936.5455861338176
 20
137.14585067139006
 10
932.7370233789934
 20
134.28870781424718
 10
930.2141764706917
 20
134.28870781424718
 10
922.6186441987069
 20
124.31705609029441
 10
918.7467757360284
 20
121.41242197131463
 10
906.077352477621
 20
128.54077087163708
 10
902.9699417375999
 20
123.64536395822579
 10
902.9699417375999
 20
120.79606269018272
 10
900.4159737029502
 20
115.04818455558019
 10
897.8918580645013
 20
112.20783790859579
 10
897.8918580645013
 20
107.93891983303982
 10
895.352816227952
 20
102.22463411875427
 10
895.352816227952
 20
99.36130932684594
 10
892.809818229659
 20
95.06891733355837
 10
891.539891556057
 20
86.49474922254718
 10
887.730491144428
 20
80.77920670599181
 10
886.4596836124517
 20
73.62911053482368
 10
884.4755008782362
 20
71.39634168291931
 10
880.6199856058547
 20
74.28870781424735
 10
876.814164981565
 20
74.28870781424735
  0
LWPOLYLINE
  5
37
330
17
100
AcDbEntity
  8
M
100
AcDbPolyline
 90
51
 70
1
 10
895.1528162279519
 20
20.779266480024372
 10
895.1528162279519
 20
23.627964526238276
 10
890.0318378111801
 20
27.949880384745775
 10
892.6021079018466
 20
30.842163892943475
 10
891.3325869835719
 20
35.1278781786577
 10
896.3990856801108
 20
40.8291275055348
 10
893.8646032324685
 20
45.10714588096798
 10
898.4167688456047
 20
51.69318979215198
 10
901.7004208193255
 20
47.998149148470226
 10
901.7004208193255
 20
43.712434862756
 10
903.5183146523566
 20
41.66678823128955
 10
907.2799248896232
 20
44.4887078142473
 10
909.80739265412
 20
44.4887078142473
 10
911.6565881655229
 20
46.56957771989867
 10
911.6565881655229
 20
49.350695051452846
 10
910.3870672472482
 20
50.7792664800244
 10
910.3870672472482
 20
60.8552920056129
 10
911.6565881655229
 20
62.28386343418446
 10
911.6565881655229
 20
66.56957771989869
 10
915.4476059208671
 20
70.83554890046972
 10
914.1780850025923
 20
73.6926917576124
 10
916.7008912403514
 20
76.53156495710434
 10
914.1780850025923
 20
79.37043815659628
 10
916.7252446385369
 20
85.102993528533
 10
915.4476059208671
 20
87.97840604332663
 10
917.424518163768
 20
90.20299352853289
 10
921.3363264730275
 20
90.20299352853289
 10
925.8213182665444
 20
82.27216798695424
 10
925.8213182665444
 20
77.9327378982746
 10
923.3055278961108
 20
73.6862703626775
 10
925.0965551760427
 20
71.67085623040825
 10
930.1658266350524
 20
75.9491333342559
 10
936.0191661182334
 20
70.82616888109317
 10
930.8994019396432
 20
65.06498076573864
 10
930.8994019396432
 20
60.8552920056129
 10
934.0181183693207
 20
57.345850671389975
 10
944.1742857155181
 20
57.345850671389975
 10
946.1336529589394
 20
55.14100629132734
 10
946.1336529589394
 20
50.7792664800244
 10
943.5881249348125
 20
47.9148248205381
 10
942.3186040165377
 20
40.77196767768099
 10
940.3718775706473
 20
38.58134778334832
 10
931.4852311427243
 20
37.15277635477676
 10
925.131471941398
 20
30.002993528532862
 10
919.9822732650453
 20
30.002993528532862
 10
917.4906414306653
 20
31.404890101435434
 10
912.4362627586512
 20
25.717279242818634
 10
906.0821248306466
 20
25.717279242818634
 10
899.7436092228982
 20
20.0111756779624
 10
896.4867610089818
 20
19.27819991700863
 10
895.1528162279519
 20
20.779266480024372
  0
LWPOLYLINE
  5
38
330
17
100
AcDbEntity
  8
M
100
AcDbPolyline
 90
18
 70
1
 10
1445.7585547546882
 20
200.20803170585833
 10
1448.5060724726468
 20
198.79714659109337
 10
1449.874925729702
 20
200.202993528533
 10
1452.7412942411238
 20
200.202993528533
 10
1454.132274013429
 20
198.77442209996144
 10
1456.8298245912283
 20
198.77442209996144
 10
1458.2630088469393
 20
200.24633860108642
 10
1461.8923185197186
 20
196.51894571788287
 10
1456.904775343333
 20
192.86013638567567
 10
1437.3561077789543
 20
192.86013638567567
 10
1434.5828763400987
 20
195.7083152573207
 10
1427.6112986853818
 20
194.27631792020762
 10
1425.4502601475187
 20
197.97538670215496
 10
1427.6369478255017
 20
200.22117028734598
 10
1434.5918466870282
 20
197.3640274302031
 10
1437.39831226236
 20
200.24633860108642
 10
1438.8227684123158
 20
198.78338608545954
 10
1445.7585547546882
 20
200.20803170585833
  0
LWPOLYLINE
  5
39
330
17
100
AcDbEntity
  8
M
100
AcDbPolyline
 90
165
 70
1
 10
1398.4196416383372
 20
214.27744393068892
 10
1392.855722549116
 20
212.84887250211736
 10
1389.2699370503606
 20
216.53156495710425
 10
1390.6609168226657
 20
217.9601363856758
 10
1388.7140202316748
 20
219.95964845597936
 10
1386.7671236406838
 20
217.9601363856758
 10
1389.5490831852944
 20
215.1029935285329
 10
1387.365244942775
 20
212.8601363856757
 10
1380.392316660188
 20
212.8601363856757
 10
1377.5861820532325
 20
211.41915075668317
 10
1374.8115497812255
 20
212.8439595380547
 10
1370.618342111189
 20
209.97293927317907
 10
1369.2020041568903
 20
211.427554196413
 10
1353.9012266615323
 20
209.99898276784168
 10
1352.5485461517374
 20
211.38821988455115
 10
1351.1997708628373
 20
210.002993528533
 10
1345.5514428068052
 20
210.002993528533
 10
1344.2026675179054
 20
211.38821988455115
 10
1342.8538922290056
 20
210.002993528533
 10
1337.2235935940337
 20
210.002993528533
 10
1334.4858870799237
 20
211.40884046597242
 10
1333.1170338228685
 20
210.002993528533
 10
1328.8596855391418
 20
210.002993528533
 10
1327.4687057668364
 20
211.43156495710434
 10
1323.3621459956712
 20
211.43156495710434
 10
1320.5359334205602
 20
209.9802690374011
 10
1319.1228271330046
 20
211.43156495710434
 10
1315.0342967829
 20
211.43156495710434
 10
1313.6433170105945
 20
210.002993528533
 10
1310.776948499173
 20
210.002993528533
 10
1309.3859687268675
 20
211.43156495710434
 10
1292.694211459204
 20
211.43156495710434
 10
1291.310474721091
 20
212.85269760625636
 10
1282.964596087259
 20
211.42412617768503
 10
1281.5663732807618
 20
212.8601363856757
 10
1277.4028921785523
 20
212.8601363856757
 10
1272.467209244183
 20
216.48090158858935
 10
1272.467209244183
 20
232.2864932131794
 10
1274.6407378221236
 20
234.5187620696012
 10
1278.8136771390396
 20
231.6616192124583
 10
1282.1522074083039
 20
235.09037428931157
 10
1277.4263303736884
 20
238.5572280859829
 10
1274.6336009344857
 20
237.12312618025823
 10
1272.4398474890295
 20
239.37616648746186
 10
1275.22180703364
 20
243.66188077317608
 10
1271.8559678350384
 20
247.118682811583
 10
1268.4942699272672
 20
245.0471535148322
 10
1268.4942699272672
 20
240.77663670102933
 10
1266.3598619345998
 20
238.58454567573318
 10
1260.7126441801136
 20
237.13458678783184
 10
1257.930684635503
 20
239.9917296449745
 10
1252.3667655462818
 20
238.56315821640317
 10
1251.0070227734511
 20
239.95964845597962
 10
1249.0691614434418
 20
237.96941582736508
 10
1255.2149990034275
 20
233.0601363856757
 10
1257.9309676111623
 20
233.0601363856757
 10
1262.13003229096
 20
235.93516684871906
 10
1268.4942699272672
 20
232.30392622854356
 10
1268.4942699272672
 20
217.9194938438864
 10
1266.3278782369644
 20
215.69455475168664
 10
1260.7197061172428
 20
218.57442209996148
 10
1252.3670485219411
 20
218.57442209996148
 10
1248.1890558485109
 20
221.43502490712353
 10
1235.6767879811473
 20
222.86284887998374
 10
1230.1181511265265
 20
225.7172792428186
 10
1223.15647330353
 20
225.7172792428186
 10
1218.9835339866142
 20
228.57442209996148
 10
1212.0286351250877
 20
228.57442209996148
 10
1207.8515438308334
 20
231.43440774764002
 10
1192.5399132216166
 20
232.8639924873568
 10
1189.7617083086127
 20
235.7172792428186
 10
1182.8068094470864
 20
235.7172792428186
 10
1180.662544272034
 20
237.91949384388644
 10
1180.662544272034
 20
240.85792178460807
 10
1183.4049307491775
 20
243.67442209996136
 10
1176.489604955118
 20
250.77663670102933
 10
1176.489604955118
 20
262.2052081296007
 10
1173.7076454105074
 20
265.0623509867436
 10
1173.7076454105074
 20
275.1436360703223
 10
1175.0486377107209
 20
276.5208690999903
 10
1169.5347060935917
 20
280.7680795865273
 10
1169.5347060935917
 20
293.715064641751
 10
1171.6789712686439
 20
295.9172792428186
 10
1174.5453397800657
 20
295.9172792428186
 10
1177.3331172659186
 20
293.0541612127815
 10
1187.0699756720558
 20
291.62558978421015
 10
1189.8461172754237
 20
288.7744220999615
 10
1198.1807454496652
 20
288.7744220999615
 10
1202.353684766581
 20
285.9172792428186
 10
1206.5297186258588
 20
285.9172792428186
 10
1212.09363771508
 20
281.63156495710416
 10
1214.883753176919
 20
281.63156495710416
 10
1216.2747329492242
 20
280.20299352853283
 10
1223.2296318107508
 20
280.20299352853283
 10
1224.620611583056
 20
278.7744220999615
 10
1230.184530672277
 20
278.7744220999615
 10
1231.5755104445825
 20
277.34585067139017
 10
1238.5304093061088
 20
277.34585067139017
 10
1239.910421594483
 20
275.92854312637695
 10
1245.4743406837044
 20
277.3571145549485
 10
1246.8762879399405
 20
275.9172792428186
 10
1253.831186801467
 20
275.9172792428186
 10
1255.226286887884
 20
274.48447614737904
 10
1269.136084610937
 20
273.0559047188077
 10
1270.4807395857251
 20
271.6749100296576
 10
1271.829514874625
 20
273.0601363856757
 10
1277.477842930657
 20
273.0601363856757
 10
1278.8688227029622
 20
271.6315649571044
 10
1284.4327417921834
 20
271.6315649571044
 10
1285.8274761960954
 20
270.19913742685196
 10
1301.1282536914537
 20
268.7705659982804
 10
1302.5045113482213
 20
267.3571145549483
 10
1308.0684304374424
 20
268.78568598351984
 10
1309.4703776936788
 20
267.34585067138994
 10
1315.0342967829
 20
267.34585067138994
 10
1316.425276555205
 20
265.9172792428186
 10
1323.3801754167316
 20
265.9172792428186
 10
1324.7711551890368
 20
264.4887078142473
 10
1333.1170338228685
 20
264.4887078142473
 10
1334.508013595174
 20
263.0601363856757
 10
1337.2055641729735
 20
263.0601363856757
 10
1338.6387484286843
 20
264.5320528868007
 10
1341.467032770812
 20
261.6273332902364
 10
1355.3768304938649
 20
260.1987618616648
 10
1356.7415634368083
 20
258.79714659109345
 10
1359.5107722858672
 20
260.21917037615384
 10
1363.6763843301796
 20
257.3670443819445
 10
1367.8622647276127
 20
260.2330477838868
 10
1372.0644674474167
 20
255.9172792428186
 10
1376.2261563047425
 20
255.9172792428186
 10
1380.383229958668
 20
253.07099934395129
 10
1384.5685735360241
 20
254.50381726898752
 10
1385.9521386552194
 20
253.08286087680764
 10
1388.7213475042784
 20
254.50488466186806
 10
1392.894286821194
 20
251.64774180472537
 10
1395.6086851887353
 20
253.04161971396465
 10
1397.5966739403175
 20
255.08333447314112
 10
1390.6648744354843
 20
259.3548145845066
 10
1392.8669152989446
 20
263.12406740988826
 10
1394.3201438043013
 20
261.6315649571044
 10
1399.872812433932
 20
261.6315649571044
 10
1404.0457517508482
 20
258.7744220999615
 10
1413.7814361564863
 20
258.7744220999615
 10
1421.5584236769616
 20
253.69168200859394
 10
1417.3686786314001
 20
249.38870781424717
 10
1419.365789788867
 20
247.33762411336048
 10
1426.3206886503933
 20
245.90905268478912
 10
1436.8028223762074
 20
235.1436360703223
 10
1436.8028223762074
 20
232.27546116711096
 10
1442.3452579713287
 20
223.73712873388806
 10
1449.3216403269548
 20
216.57220749889362
 10
1449.3216403269548
 20
213.71506464175093
 10
1452.1283239218117
 20
210.83252955929788
 10
1449.9371744627535
 20
207.08191964717759
 10
1448.5261504408022
 20
208.53107702740803
 10
1447.1773751519027
 20
207.14585067139012
 10
1444.3110066404806
 20
207.14585067139012
 10
1442.962231351581
 20
208.53107702740803
 10
1440.2170766059464
 20
205.71173363025608
 10
1429.0128538844083
 20
207.15011116618643
 10
1423.45446597313
 20
211.43156495710434
 10
1409.5365123328486
 20
211.43156495710434
 10
1408.1455325605432
 20
212.8601363856757
 10
1399.7996539267115
 20
212.8601363856757
 10
1398.4196416383372
 20
214.27744393068892
  0
LWPOLYLINE
  5
3A
330
17
100
AcDbEntity
  8
M
100
AcDbPolyline
 90
12
 70
1
 10
1408.1455325605432
 20
247.3458506713899
 10
1411.5256134072451
 20
250.8172792428187
 10
1409.5787168162542
 20
252.81679131312228
 10
1408.1877370439488
 20
251.38821988455095
 10
1406.754552788238
 20
252.86013638567573
 10
1401.1906336990166
 20
252.86013638567573
 10
1399.841858410117
 20
254.2453627416936
 10
1397.8949618191261
 20
252.24585067139006
 10
1401.275042665828
 20
248.77442209996147
 10
1404.0570022104387
 20
248.77442209996147
 10
1405.4479819827438
 20
247.3458506713899
 10
1408.1455325605432
 20
247.3458506713899
  0
LWPOLYLINE
  5
3B
330
17
100
AcDbEntity
  8
M
100
AcDbPolyline
 90
13
 70
1
 10
1355.3104277281925
 20
222.83741189454398
 10
1353.9395259240425
 20
224.24536274169404
 10
1352.5485461517374
 20
222.8167913131227
 10
1349.7665866071268
 20
225.67393417026537
 10
1347.8196900161356
 20
223.6744220999616
 10
1349.7665866071268
 20
221.67491002965778
 10
1351.157566379432
 20
223.10348145822934
 10
1353.9596038921977
 20
220.22571801966473
 10
1356.7415634368083
 20
221.65428944823628
 10
1358.1124652409585
 20
220.24633860108622
 10
1360.0593618319494
 20
222.24585067139003
 10
1358.092387272803
 20
224.2659833231153
 10
1355.3104277281925
 20
222.83741189454398
  0
LWPOLYLINE
  5
3C
330
17
100
AcDbEntity
  8
M
100
AcDbPolyline
 90
5
 70
1
 10
1303.864254121052
 20
239.95964845597962
 10
1301.917357530061
 20
237.9601363856758
 10
1303.864254121052
 20
235.960624315372
 10
1305.8111507120432
 20
237.9601363856758
 10
1303.864254121052
 20
239.95964845597962
  0
LWPOLYLINE
  5
3D
330
17
100
AcDbEntity
  8
M
100
AcDbPolyline
 90
9
 70
1
 10
1297.4652720782115
 20
239.38870781424714
 10
1295.5183754872203
 20
241.38821988455095
 10
1293.5714788962293
 20
239.38870781424714
 10
1294.9624586685347
 20
237.9601363856758
 10
1292.1804991239242
 20
235.10299352853292
 10
1294.127395714915
 20
233.1034814582291
 10
1296.074292305906
 20
235.10299352853292
 10
1294.6833125336009
 20
236.53156495710425
 10
1297.4652720782115
 20
239.38870781424714
  0
LWPOLYLINE
  5
3E
330
17
100
AcDbEntity
  8
M
100
AcDbPolyline
 90
5
 70
1
 10
1288.563476625694
 20
233.1034814582291
 10
1290.510373216685
 20
235.10299352853292
 10
1287.1724968533886
 20
238.53107702740806
 10
1285.2256002623976
 20
236.53156495710425
 10
1288.563476625694
 20
233.1034814582291
  0
LWPOLYLINE
  5
3F
330
17
100
AcDbEntity
  8
M
100
AcDbPolyline
 90
94
 70
1
 10
1286.377006967236
 20
195.06235098674352
 10
1283.5950474226254
 20
197.9194938438864
 10
1283.5950474226254
 20
200.8731192565194
 10
1287.168029112074
 20
203.07484482779614
 10
1292.760591004955
 20
200.202993528533
 10
1298.3425395152365
 20
200.202993528533
 10
1299.7335192875416
 20
198.77442209996144
 10
1309.4703776936788
 20
198.77442209996144
 10
1310.861357465984
 20
197.3458506713901
 10
1328.9440945059528
 20
197.3458506713901
 10
1330.2928697948525
 20
195.96062431537197
 10
1332.2397663858437
 20
197.96013638567578
 10
1329.4578068412332
 20
200.81727924281867
 10
1331.6416450837523
 20
203.0601363856759
 10
1342.8358628079452
 20
203.0601363856759
 10
1345.5735693220554
 20
201.65428944823626
 10
1346.9424225791104
 20
203.0601363856759
 10
1351.1997708628373
 20
203.0601363856759
 10
1353.3836091053568
 20
200.81727924281867
 10
1349.7795276876438
 20
197.11579641603615
 10
1345.5785589293857
 20
199.99213057025744
 10
1341.4756932158255
 20
198.5875482630337
 10
1339.473811382304
 20
196.53156495710422
 10
1341.4629124567005
 20
194.48870781424722
 10
1348.351431772476
 20
194.48870781424722
 10
1351.157566379432
 20
195.92969344323996
 10
1353.919447955887
 20
194.51143230537915
 10
1355.8864225150335
 20
196.53156495710422
 10
1353.104462970423
 20
199.38870781424734
 10
1355.330505696348
 20
201.67491002965755
 10
1356.721485468653
 20
200.2463386010862
 10
1358.0702607575527
 20
201.63156495710433
 10
1367.8071191636898
 20
201.63156495710433
 10
1369.2403034194008
 20
203.1034814582293
 10
1370.631283191706
 20
201.67491002965775
 10
1371.9800584806057
 20
203.0601363856759
 10
1377.628386536638
 20
203.0601363856759
 10
1379.8122247791573
 20
200.81727924281867
 10
1377.0302652345467
 20
197.96013638567578
 10
1378.9771618255377
 20
195.9606243153722
 10
1380.9240584165289
 20
197.96013638567578
 10
1379.5330786442235
 20
199.38870781424734
 10
1380.307907693377
 20
200.18447685682196
 10
1385.9521386552194
 20
203.0828608768078
 10
1391.5234723975504
 20
197.36096012613058
 10
1395.6139338506705
 20
198.76129593688918
 10
1398.450878637812
 20
201.67491002965775
 10
1401.2603308036878
 20
198.7895315547019
 10
1405.4332701206035
 20
200.21810298327347
 10
1407.631820225263
 20
197.96013638567578
 10
1406.2012673854908
 20
196.49092241531486
 10
1406.2012673854908
 20
190.85792178460804
 10
1408.9832269301014
 20
188.00077892746515
 10
1408.9832269301014
 20
182.29224360943098
 10
1432.6763562413498
 20
162.25293726370117
 10
1430.4856178842392
 20
160.00299352853298
 10
1424.8372898282066
 20
160.00299352853298
 10
1423.4684365711516
 20
161.40884046597236
 10
1420.7307300570415
 20
160.00299352853298
 10
1415.1004314220697
 20
160.00299352853298
 10
1413.7094516497643
 20
161.4315649571043
 10
1406.8389617550492
 20
161.4315649571043
 10
1405.4057774993382
 20
159.95964845597953
 10
1403.9725932436274
 20
161.4315649571043
 10
1401.275042665828
 20
161.4315649571043
 10
1399.8840628935225
 20
160.00299352853298
 10
1395.6267146097955
 20
160.00299352853298
 10
1394.2357348374903
 20
161.4315649571043
 10
1391.5381842596908
 20
161.4315649571043
 10
1390.1472044873856
 20
160.00299352853298
 10
1384.4988764313532
 20
160.00299352853298
 10
1383.1501011424537
 20
161.38821988455086
 10
1381.8013258535539
 20
160.00299352853298
 10
1377.543977569827
 20
160.00299352853298
 10
1373.4132427363165
 20
164.24536274169378
 10
1369.2825079028062
 20
160.00299352853298
 10
1366.4161393913846
 20
160.00299352853298
 10
1362.2432000744686
 20
164.2887078142472
 10
1359.461240529858
 20
164.2887078142472
 10
1358.0764484224724
 20
165.71092435435085
 10
1348.3395900163353
 20
164.28235292577952
 10
1346.984627062516
 20
165.6739341702653
 10
1345.6358517736162
 20
164.2887078142472
 10
1341.4629124567005
 20
164.2887078142472
 10
1337.2873019257636
 20
160.00025012413133
 10
1314.9472879275252
 20
161.43423510845633
 10
1313.5589080437835
 20
162.86013638567587
 10
1305.2130294099518
 20
162.86013638567587
 10
1303.8513130405347
 20
164.25865355889323
 10
1299.7032585311495
 20
161.41854891982342
 10
1292.71667584162
 20
164.2887078142472
 10
1288.5212721422884
 20
164.2887078142472
 10
1286.377006967236
 20
166.49092241531505
 10
1286.377006967236
 20
195.06235098674352
  0
LWPOLYLINE
  5
40
330
17
100
AcDbEntity
  8
M
100
AcDbPolyline
 90
5
 70
1
 10
1424.3235774929267
 20
197.96013638567578
 10
1422.0975347670017
 20
195.67393417026534
 10
1419.8714920410769
 20
197.96013638567578
 10
1422.0975347670017
 20
200.24633860108642
 10
1424.3235774929267
 20
197.96013638567578
  0
LWPOLYLINE
  5
41
330
17
100
AcDbEntity
  8
M
100
AcDbPolyline
 90
5
 70
1
 10
1413.7674076561618
 20
195.69011138301184
 10
1410.115491891065
 20
197.94047733028398
 10
1412.3449248378727
 20
200.23016138833992
 10
1415.9968406029698
 20
197.97979544106758
 10
1413.7674076561618
 20
195.69011138301184
  0
LWPOLYLINE
  5
42
330
17
100
AcDbEntity
  8
M
100
AcDbPolyline
 90
192
 70
1
 10
1447.1150927003416
 20
198.5516976088295
 10
1445.701986412786
 20
200.002993528533
 10
1443.0044358349867
 20
200.002993528533
 10
1441.6134560626815
 20
198.57442209996145
 10
1438.7651169723201
 20
198.57442209996145
 10
1436.02741045821
 20
199.98026903740106
 10
1434.658557201155
 20
198.57442209996145
 10
1430.4192383384884
 20
198.57442209996145
 10
1427.6815318243782
 20
199.98026903740106
 10
1426.3126785673232
 20
198.57442209996145
 10
1423.4643394769619
 20
198.57442209996145
 10
1420.726632962852
 20
199.98026903740106
 10
1419.3577797057967
 20
198.57442209996145
 10
1415.1004314220697
 20
198.57442209996145
 10
1413.7094516497643
 20
200.002993528533
 10
1411.011901071965
 20
200.002993528533
 10
1408.1877370439488
 20
197.10250559883667
 10
1402.6037399865722
 20
202.83741189454395
 10
1399.8660334724623
 20
201.43156495710434
 10
1395.6267146097955
 20
201.43156495710434
 10
1394.277939320896
 20
202.81679131312248
 10
1392.9291640319962
 20
201.43156495710434
 10
1387.2808359759638
 20
201.43156495710434
 10
1385.9320606870642
 20
202.81679131312248
 10
1384.5410809147588
 20
201.38821988455092
 10
1381.7390434019928
 20
204.2659833231153
 10
1379.0013368878829
 20
202.8601363856759
 10
1372.064467447417
 20
202.8601363856759
 10
1370.631283191706
 20
201.38821988455092
 10
1369.2403034194008
 20
202.81679131312248
 10
1367.891528130501
 20
201.43156495710434
 10
1352.5063416683315
 20
201.43156495710434
 10
1351.1153618960263
 20
202.8601363856759
 10
1347.0088021248612
 20
202.8601363856759
 10
1344.1825895497502
 20
201.40884046597242
 10
1342.7694832621946
 20
202.8601363856759
 10
1331.7260540505633
 20
202.8601363856759
 10
1326.1199304779368
 20
197.10250559883667
 10
1323.8938877520118
 20
199.38870781424734
 10
1325.2848675243172
 20
200.81727924281867
 10
1323.3304405713802
 20
202.82452518541683
 10
1316.4188843616782
 20
197.14585067139012
 10
1310.776948499173
 20
197.14585067139012
 10
1309.3859687268675
 20
198.57442209996145
 10
1303.8220496376464
 20
198.57442209996145
 10
1301.0400900930358
 20
201.43156495710434
 10
1298.2581305484252
 20
201.43156495710434
 10
1296.9093552595257
 20
202.81679131312248
 10
1294.1519017456362
 20
199.98481676972003
 10
1287.1610617103188
 20
202.85672462489092
 10
1278.80817764437
 20
201.42695407030664
 10
1272.467209244183
 20
205.04491797137936
 10
1272.467209244183
 20
209.43937118276202
 10
1277.4028921785523
 20
213.06013638567566
 10
1281.6507822475728
 20
213.06013638567566
 10
1283.0345189856862
 20
211.63900373652368
 10
1291.380397619518
 20
213.067575165095
 10
1292.7786204260153
 20
211.63156495710433
 10
1309.4703776936788
 20
211.63156495710433
 10
1310.861357465984
 20
210.202993528533
 10
1313.5589080437835
 20
210.202993528533
 10
1314.949887816089
 20
211.63156495710433
 10
1319.2072360998156
 20
211.63156495710433
 10
1320.589487766366
 20
210.2119575140311
 10
1327.5443866278924
 20
211.64052894260243
 10
1328.9440945059528
 20
210.202993528533
 10
1333.050654277118
 20
210.202993528533
 10
1335.8768668522289
 20
211.65428944823628
 10
1337.2899731397845
 20
210.202993528533
 10
1342.7694832621946
 20
210.202993528533
 10
1344.2026675179054
 20
211.67491002965755
 10
1345.6358517736162
 20
210.202993528533
 10
1351.1153618960263
 20
210.202993528533
 10
1352.5485461517374
 20
211.67491002965755
 10
1353.981730407448
 20
210.202993528533
 10
1359.461240529858
 20
210.202993528533
 10
1360.894424785569
 20
211.67491002965755
 10
1362.2854045578742
 20
210.24633860108622
 10
1363.634179846774
 20
211.63156495710433
 10
1369.2825079028062
 20
211.63156495710433
 10
1370.6442242722233
 20
210.23304778388697
 10
1374.7891341477969
 20
213.07099934395123
 10
1378.9496692042724
 20
211.64667441184483
 10
1380.3259371144375
 20
213.06013638567566
 10
1387.2808359759638
 20
213.06013638567566
 10
1388.6718157482692
 20
214.48870781424722
 10
1391.5381842596908
 20
214.48870781424722
 10
1394.2908804014132
 20
211.6616192124583
 10
1398.463819718329
 20
214.5187620696012
 10
1399.8840628935225
 20
213.06013638567566
 10
1408.2299415273544
 20
213.06013638567566
 10
1409.6209212996598
 20
211.63156495710433
 10
1417.9667999334915
 20
211.63156495710433
 10
1420.7377919941707
 20
208.78568598351976
 10
1426.301711083392
 20
210.2142574120913
 10
1429.0946381119338
 20
207.3458506713901
 10
1437.4405167457655
 20
207.3458506713901
 10
1438.824253483879
 20
205.9247180222379
 10
1447.086224639598
 20
207.3389269335557
 10
1448.5261504408022
 20
208.8177671725149
 10
1449.9171302131076
 20
207.38919574394353
 10
1451.9035998715656
 20
209.42935035603648
 10
1451.9035998715656
 20
212.20520812960063
 10
1449.1337241013894
 20
215.0499406445876
 10
1447.742744329084
 20
219.33565493030204
 10
1442.1858203170386
 20
225.04275652329932
 10
1436.6219012278175
 20
235.04275652329932
 10
1432.4051590090453
 20
239.37345749776796
 10
1434.5589592282724
 20
243.0601363856757
 10
1438.7470875512595
 20
243.0601363856757
 10
1440.7361886256563
 20
245.10299352853292
 10
1437.3561077789543
 20
248.5744220999615
 10
1430.416891626309
 20
248.5744220999615
 10
1424.0039983652537
 20
252.2334241412345
 10
1429.6223426225718
 20
256.5610604457049
 10
1428.2362719050182
 20
259.40811985591506
 10
1430.4304723203163
 20
261.66161921245833
 10
1434.5842013749273
 20
258.8176293056843
 10
1436.578098325961
 20
262.23060035491085
 10
1434.596274749594
 20
264.26598332311534
 10
1431.8236340583708
 20
262.84219724367716
 10
1426.2364255177406
 20
267.14585067138995
 10
1420.6643505112909
 20
267.14585067138995
 10
1419.2653606559154
 20
268.582648657991
 10
1412.3050484312803
 20
270.01233201874487
 10
1406.001267385491
 20
277.9251730572163
 10
1406.001267385491
 20
280.77663670102936
 10
1404.5707145457186
 20
282.2458506713901
 10
1407.3526740903292
 20
285.102993528533
 10
1404.5707145457186
 20
287.96013638567587
 10
1406.754552788238
 20
290.20299352853306
 10
1412.4129348507447
 20
290.20299352853306
 10
1415.9673355988616
 20
285.0923501980036
 10
1413.75165613317
 20
282.81679131312234
 10
1412.3606763608648
 20
284.2453627416939
 10
1410.4137797698736
 20
282.2458506713901
 10
1412.3807543290202
 20
280.2257180196648
 10
1415.1627138736308
 20
281.6542894482361
 10
1417.9667999334915
 20
278.7744220999615
 10
1420.6643505112909
 20
278.7744220999615
 10
1422.0975347670017
 20
280.2463386010863
 10
1426.3126785673232
 20
275.9172792428186
 10
1429.0102291451226
 20
275.9172792428186
 10
1430.4233354326782
 20
277.3685751625221
 10
1433.214613830676
 20
275.9352183848172
 10
1438.7988166396783
 20
280.2365565906926
 10
1444.3532111238865
 20
274.5320528868005
 10
1447.135170668497
 20
277.3891957439436
 10
1448.5683549242078
 20
275.9172792428186
 10
1452.7310168039705
 20
275.9172792428186
 10
1461.8404582777025
 20
269.4403067514486
 10
1461.8404582777025
 20
257.91949384388647
 10
1456.3265266605733
 20
252.25654652850403
 10
1461.8404582777025
 20
248.0093360419673
 10
1461.8404582777025
 20
239.34806527245777
 10
1459.0980718005587
 20
236.53156495710425
 10
1461.8404582777025
 20
233.71506464175096
 10
1461.8404582777025
 20
208.00077892746515
 10
1463.8269279361605
 20
205.960624315372
 10
1466.608887480771
 20
208.8177671725149
 10
1472.2002991912575
 20
203.07524584041636
 10
1476.2907606443775
 20
204.47558165117496
 10
1479.085500948113
 20
207.3458506713901
 10
1481.951869459535
 20
207.3458506713901
 10
1483.34284923184
 20
205.91727924281855
 10
1490.2977480933666
 20
205.91727924281855
 10
1491.6945458069142
 20
204.48273264135298
 10
1501.431404213051
 20
203.05416121278165
 10
1502.816566044114
 20
201.63156495710433
 10
1508.3710269186288
 20
201.63156495710433
 10
1513.3585700950143
 20
197.97275562489713
 10
1511.1477328158055
 20
195.7021697880783
 10
1506.9747934988898
 20
197.13074121664965
 10
1504.1653413330139
 20
194.24536274169378
 10
1501.3411773049977
 20
197.14585067139012
 10
1498.6436267271984
 20
197.14585067139012
 10
1497.2416794709618
 20
195.70601535926048
 10
1491.6584291117463
 20
197.13955021370987
 10
1488.8645638376556
 20
195.70486504239759
 10
1486.1026822612005
 20
197.12312618025817
 10
1484.7338290041455
 20
195.7172792428188
 10
1480.4764807204183
 20
195.7172792428188
 10
1479.1277054315185
 20
197.10250559883667
 10
1477.778930142619
 20
195.7172792428188
 10
1473.5215818588918
 20
195.7172792428188
 10
1472.1728065699922
 20
197.10250559883667
 10
1470.8240312810924
 20
195.7172792428188
 10
1463.7928793699834
 20
195.7172792428188
 10
1458.2725334519523
 20
199.96943046637327
 10
1456.9055054522846
 20
198.56545811446335
 10
1449.9314940716042
 20
199.99795535120768
 10
1447.1150927003416
 20
198.5516976088295
  0
LWPOLYLINE
  5
43
330
17
100
AcDbEntity
  8
M
100
AcDbPolyline
 90
13
 70
1
 10
2310.9815878054956
 20
326.53156495710437
 10
2313.1592772591516
 20
328.7744220999613
 10
2317.405042337932
 20
328.7744220999613
 10
2318.79210568421
 20
327.34585067139
 10
2332.6627391469874
 20
327.34585067139
 10
2335.394578319569
 20
324.532260794709
 10
2336.754097879402
 20
325.9324641848229
 10
2338.976986122288
 20
325.1693280139052
 10
2338.2414555174946
 20
321.3816206620104
 10
2335.414691414171
 20
322.8372983872407
 10
2334.0482241327127
 20
321.4299393638711
 10
2315.2383191653194
 20
322.14745026179
 10
2310.9815878054956
 20
326.53156495710437
  0
LWPOLYLINE
  5
44
330
17
100
AcDbEntity
  8
M
100
AcDbPolyline
 90
32
 70
1
 10
2286.0538295267093
 20
329.3481473490447
 10
2286.0538295267093
 20
330.77671877761605
 10
2280.5148316225627
 20
336.48147203925794
 10
2279.1277682762848
 20
342.1957577535437
 10
2274.943647019473
 20
346.5050894774337
 10
2275.6781122430907
 20
348.7744220999613
 10
2309.082662260266
 20
348.7744220999613
 10
2310.4697256065438
 20
347.34585067139
 10
2313.1592772591516
 20
347.34585067139
 10
2314.5463406054296
 20
348.7744220999613
 10
2317.405042337932
 20
348.7744220999613
 10
2318.7498181642363
 20
347.3894036518517
 10
2320.0945939905405
 20
348.7744220999613
 10
2324.3403590693206
 20
348.7744220999613
 10
2325.7274224155985
 20
347.34585067139
 10
2332.6627391469874
 20
347.34585067139
 10
2334.80104664643
 20
345.1435539937353
 10
2334.80104664643
 20
336.4735705788766
 10
2328.4858483707253
 20
332.8601363856758
 10
2320.1126457543714
 20
332.8601363856758
 10
2311.834614527449
 20
337.123012672955
 10
2310.42743808657
 20
335.67372626235704
 10
2308.998087220318
 20
337.14585067139
 10
2303.534408875155
 20
337.14585067139
 10
2300.7179946626256
 20
334.2451548337855
 10
2297.94386797007
 20
337.10229769092837
 10
2294.6259638262377
 20
333.68510475930236
 10
2300.124462989487
 20
329.4378228169956
 10
2300.124462989487
 20
327.9195759204736
 10
2296.584348410238
 20
324.2735228722431
 10
2288.1793369732354
 20
327.15903376784337
 10
2286.0538295267093
 20
329.3481473490447
  0
LWPOLYLINE
  5
45
330
17
100
AcDbEntity
  8
M
100
AcDbPolyline
 90
6
 70
1
 10
1880.3955132204962
 20
261.6315649571044
 10
1883.254214952999
 20
261.6315649571044
 10
1885.4319044066551
 20
259.38870781424714
 10
1883.235202195094
 20
257.1262689538034
 10
1878.1853457472232
 20
259.35525788493743
 10
1880.3955132204962
 20
261.6315649571044
  0
LWPOLYLINE
  5
46
330
17
100
AcDbEntity
  8
M
100
AcDbPolyline
 90
58
 70
1
 10
2788.7104094102874
 20
263.63460822892716
 10
2788.7104094102874
 20
289.34889394321294
 10
2787.3585868519713
 20
290.7774653717843
 10
2787.3585868519713
 20
297.9203225146414
 10
2785.39331942448
 20
299.9971667566201
 10
2774.57873895795
 20
298.5685953280488
 10
2773.2644499896505
 20
299.957502220783
 10
2771.9625363801806
 20
298.5816732900439
 10
2763.7660428322606
 20
297.1380325763777
 10
2762.406822199904
 20
298.57442209996157
 10
2752.94406429169
 20
298.57442209996157
 10
2750.2404191750575
 20
301.43156495710423
 10
2747.536774058425
 20
301.43156495710423
 10
2746.184951500109
 20
302.8601363856758
 10
2742.2155784715933
 20
302.8601363856758
 10
2740.8207085900603
 20
301.38607364935433
 10
2739.4258387085274
 20
302.8601363856758
 10
2736.8082882383283
 20
302.8601363856758
 10
2735.4134183567953
 20
301.38607364935433
 10
2733.285684519321
 20
303.63460822892716
 10
2733.285684519321
 20
310.87228046393125
 10
2736.7681674638766
 20
313.08039968984946
 10
2740.8553340191233
 20
310.20092445659554
 10
2762.4844949521835
 20
308.772353028024
 10
2766.5370257581067
 20
305.91727924281867
 10
2775.9250477830665
 20
305.91727924281867
 10
2777.2994844839122
 20
307.3697487175502
 10
2780.0031296005445
 20
305.94117728897885
 10
2781.3323380163315
 20
307.34585067139
 10
2784.1107190162184
 20
307.34585067139
 10
2788.121345161215
 20
304.52029940053916
 10
2790.0544735511535
 20
306.5631799314472
 10
2788.7026509928373
 20
313.70603707430433
 10
2790.0245570663055
 20
315.102993528533
 10
2788.672734507989
 20
316.5315649571043
 10
2790.7950959245454
 20
318.77442209996155
 10
2797.622051143715
 20
318.77442209996155
 10
2800.2804679752885
 20
317.3697487175504
 10
2801.6637914907656
 20
318.83160955018974
 10
2805.7320646033886
 20
313.0992805581776
 10
2809.7768120341048
 20
315.9488708291105
 10
2813.2432154599805
 20
312.28566454242457
 10
2813.2432154599805
 20
309.4285216852817
 10
2814.5950380182967
 20
307.99995025671035
 10
2814.5950380182967
 20
296.5713788281388
 10
2817.298683134929
 20
293.7142359709961
 10
2817.298683134929
 20
290.77746537178405
 10
2814.5950380182967
 20
287.9203225146414
 10
2814.5950380182967
 20
283.7142359709959
 10
2815.9665043321306
 20
282.26490552511876
 10
2813.262859215498
 20
276.5506198108329
 10
2814.6327129205956
 20
275.102993528533
 10
2811.9290678039624
 20
272.2458506713901
 10
2817.298683134929
 20
266.57137882813896
 10
2817.298683134929
 20
265.0631796574985
 10
2812.5076252599597
 20
260.00011250367174
 10
2790.792446024739
 20
261.43436530329535
 10
2788.7104094102874
 20
263.63460822892716
  0
LWPOLYLINE
  5
47
330
17
100
AcDbEntity
  8
M
100
AcDbPolyline
 90
5
 70
1
 10
2796.7836698578867
 20
309.3887078142472
 10
2793.5417883643945
 20
312.8146450779259
 10
2791.651729429219
 20
310.81727924281853
 10
2794.8936109227106
 20
307.39134197913984
 10
2796.7836698578867
 20
309.3887078142472
  0
LWPOLYLINE
  5
48
330
17
100
AcDbEntity
  8
M
100
AcDbPolyline
 90
41
 70
1
 10
2506.9984533245633
 20
167.1458506713901
 10
2502.8568910031813
 20
167.1458506713901
 10
2500.175860029078
 20
169.97909548237277
 10
2497.472214912446
 20
168.55052405380144
 10
2496.0977782116
 20
170.00299352853298
 10
2486.7028627309746
 20
170.00299352853298
 10
2483.9623196927296
 20
168.55492571108078
 10
2477.7674723632285
 20
173.64669138483802
 10
2484.569214141218
 20
188.02250411081988
 10
2491.32278414327
 20
193.73210384278838
 10
2492.671706979186
 20
198.00862507159067
 10
2501.5078734388503
 20
208.78304916985212
 10
2509.7089600668255
 20
207.33859948130774
 10
2511.0520316891957
 20
205.91927581753276
 10
2542.1439505304697
 20
207.34784724610432
 10
2543.4976623991024
 20
205.91727924281855
 10
2551.522503102567
 20
205.91727924281855
 10
2552.874325660883
 20
207.3458506713901
 10
2562.34530753358
 20
207.3458506713901
 10
2567.797095299388
 20
211.66683284594902
 10
2569.915154963053
 20
209.42852168528137
 10
2569.915154963053
 20
206.5713788281387
 10
2571.2669775213694
 20
205.14280739956715
 10
2571.2669775213694
 20
175.06317965749864
 10
2567.834666017882
 20
171.43600084051914
 10
2554.230540630532
 20
169.998351740827
 10
2552.9173729841
 20
171.38607364935444
 10
2550.2567751906836
 20
168.57442209996165
 10
2547.5531300740513
 20
168.57442209996165
 10
2546.1969151044027
 20
167.1412088836841
 10
2532.6786895212404
 20
168.56978031225566
 10
2531.331259374256
 20
167.1458506713901
 10
2527.1896970528746
 20
167.1458506713901
 10
2525.8809218177744
 20
168.52893079221175
 10
2524.572146582675
 20
167.1458506713901
 10
2521.8006590384543
 20
167.1458506713901
 10
2519.1422422068804
 20
168.55052405380144
 10
2516.4563214133755
 20
165.71211180701462
 10
2510.2872655173687
 20
166.4364784892871
 10
2508.307228559663
 20
168.52893079221175
 10
2506.9984533245633
 20
167.1458506713901
  0
LWPOLYLINE
  5
49
330
17
100
AcDbEntity
  8
M
100
AcDbPolyline
 90
5
 70
1
 10
2488.0138723234854
 20
178.54585805759137
 10
2484.806409555568
 20
176.5121193955468
 10
2486.6940854880368
 20
174.51727185661724
 10
2489.901548255954
 20
176.55101051866205
 10
2488.0138723234854
 20
178.54585805759137
  0
LWPOLYLINE
  5
4A
330
17
100
AcDbEntity
  8
M
100
AcDbPolyline
 90
23
 70
1
 10
2442.036234642129
 20
188.57442209996145
 10
2437.98076696718
 20
191.43156495710434
 10
2433.9252992922316
 20
191.43156495710434
 10
2429.8586106129646
 20
194.296613194072
 10
2419.0338722418924
 20
197.1564397045009
 10
2417.6920698292574
 20
198.57442209996145
 10
2413.636602154308
 20
198.57442209996145
 10
2411.5491910233527
 20
200.78034467687078
 10
2412.905930568123
 20
220.8530907103412
 10
2417.725507338139
 20
227.40149738460212
 10
2419.1299870340063
 20
225.91727924281858
 10
2428.524902514632
 20
225.91727924281858
 10
2431.2737759163233
 20
227.36974871755032
 10
2435.3406508919234
 20
223.07197948890934
 10
2440.7479411251884
 20
224.50055091748067
 10
2446.123390877115
 20
218.81991340771134
 10
2447.432166112215
 20
220.20299352853277
 10
2450.206043939682
 20
220.20299352853277
 10
2456.3651136312596
 20
216.58702298654143
 10
2455.008641433999
 20
190.78429212571123
 10
2451.563289151443
 20
185.6869481564738
 10
2446.0985957727435
 20
188.57442209996145
 10
2442.036234642129
 20
188.57442209996145
  0
LWPOLYLINE
  5
4B
330
17
100
AcDbEntity
  8
M
100
AcDbPolyline
 90
30
 70
1
 10
3089.1276374991853
 20
29.29109424225573
 10
3077.5382952299233
 20
38.57442209996154
 10
3075.0948721075606
 20
38.57442209996154
 10
3059.752896591849
 20
52.22496819259437
 10
3062.2157600478904
 20
56.54997446792076
 10
3060.993649679748
 20
63.70375448279475
 10
3064.6608424803917
 20
67.99703130161494
 10
3064.6608424803917
 20
70.85417415875783
 10
3070.2058446723936
 20
77.34585067139
 10
3075.1600357127013
 20
77.34585067139
 10
3080.041013184358
 20
74.48870781424732
 10
3084.9409720145854
 20
74.48870781424732
 10
3086.1612163825
 20
73.06013638567576
 10
3088.601705118328
 20
73.06013638567576
 10
3091.0421938541563
 20
70.20299352853287
 10
3094.7029269578984
 20
70.20299352853287
 10
3101.978295701771
 20
61.68553244195962
 10
3105.592931341902
 20
65.91727924281865
 10
3108.1256150049535
 20
65.91727924281865
 10
3112.4766547324675
 20
60.823405259256226
 10
3106.8671919644253
 20
52.79689816877253
 10
3101.978295701771
 20
58.52045461510635
 10
3099.027684781986
 20
55.066098612593926
 10
3099.027684781986
 20
52.282745587329146
 10
3102.6884178857285
 20
47.997031301614925
 10
3102.6884178857285
 20
40.78038432687969
 10
3099.0591993513513
 20
36.5315649571043
 10
3102.7199324550934
 20
32.24585067138985
 10
3099.5811523905777
 20
28.57120021723336
 10
3089.1276374991853
 20
29.29109424225573
  0
LWPOLYLINE
  5
4C
330
17
100
AcDbEntity
  8
M
100
AcDbPolyline
 90
43
 70
1
 10
4352.335187773381
 20
285.0795494863001
 10
4353.491672417679
 20
287.9511723224988
 10
4350.027050834992
 20
293.6864186454424
 10
4360.385522609605
 20
305.11785220681253
 10
4358.081795811434
 20
309.4080742049621
 10
4363.384624643763
 20
314.52867207911737
 10
4369.128637927125
 20
308.8235761066802
 10
4372.541005906333
 20
313.0601363856758
 10
4374.842312191547
 20
313.0601363856758
 10
4375.992965334152
 20
314.4887078142471
 10
4378.378146139424
 20
314.4887078142471
 10
4381.779780855209
 20
311.6732180803625
 10
4384.095395712847
 20
314.54812547226663
 10
4387.100432669795
 20
310.81727924281853
 10
4385.949779527188
 20
309.3887078142472
 10
4388.745866663721
 20
305.91727924281867
 10
4392.1021093306435
 20
305.91727924281867
 10
4393.300620853699
 20
307.4052683294095
 10
4396.800438661967
 20
303.0601363856758
 10
4401.307334471496
 20
303.0601363856758
 10
4402.505845994551
 20
304.54812547226686
 10
4403.704357517606
 20
303.0601363856758
 10
4408.306970088032
 20
303.0601363856758
 10
4410.608276373245
 20
300.20299352853283
 10
4412.909582658458
 20
300.20299352853283
 10
4415.866761234957
 20
296.5315649571043
 10
4412.909582658458
 20
292.8601363856758
 10
4410.608276373245
 20
292.8601363856758
 10
4405.980206141229
 20
287.11424419795395
 10
4403.664859243654
 20
288.5515315535576
 10
4400.230449586964
 20
285.7089144184788
 10
4387.491338545967
 20
288.58455077502066
 10
4385.198190475005
 20
291.43156495710446
 10
4382.896884189792
 20
291.43156495710446
 10
4381.746231047186
 20
292.8601363856758
 10
4375.992965334152
 20
292.8601363856758
 10
4374.8677698531355
 20
294.25710134081106
 10
4372.580504180285
 20
292.8372458392718
 10
4369.151213431387
 20
295.67562611956055
 10
4365.199119413842
 20
290.76897928791556
 10
4362.897813128629
 20
283.62612214505845
 10
4358.788502152801
 20
278.5242856021322
 10
4352.335187773381
 20
285.0795494863001
  0
LWPOLYLINE
  5
4D
330
17
100
AcDbEntity
  8
M
100
AcDbPolyline
 90
38
 70
1
 10
4287.39267335345
 20
57.145850671389994
 10
4285.091367068238
 20
57.145850671389994
 10
4280.488754497811
 20
62.86013638567578
 10
4278.194084214118
 20
62.86013638567578
 10
4272.440818501085
 20
68.57442209996157
 10
4270.132876214353
 20
68.57442209996157
 10
4267.192370586323
 20
72.22515069071744
 10
4269.515907469495
 20
79.4370077691502
 10
4271.8135060300265
 20
82.28954737154326
 10
4274.11342481425
 20
93.71122829871825
 10
4277.56538424207
 20
99.42551401300403
 10
4278.717424885665
 20
105.14669022868617
 10
4281.011939449563
 20
107.99540095396942
 10
4281.011939449563
 20
112.26523079856254
 10
4283.3132457347765
 20
117.97951651284832
 10
4283.3132457347765
 20
120.85254381111233
 10
4288.543326496057
 20
127.34585067139004
 10
4292.091002684773
 20
127.34585067139004
 10
4295.542962112593
 20
123.0601363856758
 10
4298.994921540412
 20
123.0601363856758
 10
4301.952100116911
 20
119.38870781424727
 10
4300.773042873874
 20
117.92487181738221
 10
4300.773042873874
 20
115.0677289602391
 10
4298.471736588661
 20
112.21058610309642
 10
4298.471736588661
 20
109.42397238254098
 10
4300.773042873874
 20
106.56682952539809
 10
4300.773042873874
 20
100.83665936999076
 10
4301.935111032575
 20
97.95117232249883
 10
4298.476297575817
 20
92.22554062328147
 10
4299.6281980915555
 20
85.07494021900008
 10
4295.0344484819725
 20
79.37165814444214
 10
4296.178235234929
 20
76.53156495710434
 10
4295.027582092323
 20
73.67442209996145
 10
4296.18067811867
 20
70.81121341153617
 10
4293.86581839907
 20
66.50025861448961
 10
4292.713866496357
 20
57.919155338253645
 10
4289.741838019112
 20
54.22929015622779
 10
4287.39267335345
 20
57.145850671389994
  0
LWPOLYLINE
  5
4E
330
17
100
AcDbEntity
  8
M
100
AcDbPolyline
 90
26
 70
1
 10
5241.04879005716
 20
5.10299352853294
 10
5239.856878106123
 20
6.531564957104274
 10
5241.079025248584
 20
7.996374910315129
 10
5241.079025248584
 20
22.282089196029364
 10
5242.2407020081955
 20
23.674422099961625
 10
5241.079025248584
 20
25.06675500389366
 10
5241.079025248584
 20
32.282089196029375
 10
5242.2407020081955
 20
33.67442209996141
 10
5241.079025248584
 20
35.06675500389367
 10
5241.079025248584
 20
42.28208919602938
 10
5244.158805126173
 20
45.9733732171268
 10
5248.926452930318
 20
40.25908750284124
 10
5251.31027683239
 20
43.11623035998391
 10
5255.581968661016
 20
37.996374910315154
 10
5255.581968661016
 20
32.20961214675078
 10
5252.036467999332
 20
27.96013638567585
 10
5256.773880612052
 20
22.282089196029364
 10
5256.773880612052
 20
15.06675500389365
 10
5255.597615505363
 20
13.656937170972938
 10
5256.789527456399
 20
10.799794313830269
 10
5254.410807853292
 20
7.948769237164255
 10
5256.794631755364
 20
3.663054951450029
 10
5253.738404473609
 20
0.0
 10
5242.321710822788
 20
0.7201857638161613
 10
5239.856878106123
 20
3.674422099961605
 10
5241.04879005716
 20
5.10299352853294
  0
LWPOLYLINE
  5
4F
330
17
100
AcDbEntity
  8
M
100
AcDbPolyline
 90
5
 70
1
 10
5255.61220385244
 20
46.53156495710431
 10
5252.502188783426
 20
42.80404241136759
 10
5249.392173714412
 20
46.53156495710431
 10
5252.502188783426
 20
50.25908750284103
 10
5255.61220385244
 20
46.53156495710431
  0
LWPOLYLINE
  5
50
330
17
100
AcDbEntity
  8
M
100
AcDbPolyline
 90
79
 70
1
 10
5104.009150879436
 20
180.7832345460445
 10
5104.009150879436
 20
187.94011412336232
 10
5102.8015920840535
 20
190.8347641718071
 10
5105.850217451139
 20
194.48870781424722
 10
5111.809777206319
 20
194.48870781424722
 10
5113.001689157355
 20
195.91727924281878
 10
5127.304632569787
 20
195.91727924281878
 10
5132.0658966915125
 20
201.623913765836
 10
5140.409280348766
 20
203.05248519440755
 10
5141.607575982221
 20
204.48870781424722
 10
5146.375223786365
 20
204.48870781424722
 10
5147.5671357374
 20
205.91727924281855
 10
5149.950959639474
 20
205.91727924281855
 10
5152.381584896396
 20
208.8305160742696
 10
5154.765408798468
 20
205.97337321712672
 10
5155.957320749504
 20
207.40194464569828
 10
5157.149232700541
 20
205.97337321712672
 10
5159.998777386707
 20
209.3887078142471
 10
5157.149232700541
 20
212.80404241136753
 10
5155.957320749504
 20
211.37547098279617
 10
5154.743431154947
 20
212.83038381483686
 10
5152.359607252875
 20
211.40181238626553
 10
5149.950959639474
 20
214.28870781424726
 10
5138.106311263102
 20
214.28870781424726
 10
5135.67283993837
 20
212.83038381483686
 10
5131.423125753266
 20
217.9238978610365
 10
5131.423125753266
 20
237.99637491031513
 10
5134.9686264149495
 20
242.24585067139003
 10
5131.423125753266
 20
246.4953264324652
 10
5131.423125753266
 20
253.7106606246009
 10
5134.456104276004
 20
257.34585067139017
 10
5136.933530887779
 20
257.34585067139017
 10
5138.125442838815
 20
255.9172792428186
 10
5147.6607384471035
 20
255.9172792428186
 10
5148.852650398139
 20
254.48870781424705
 10
5153.626311204767
 20
254.48870781424705
 10
5159.062299586228
 20
246.52552875824486
 10
5157.872949397304
 20
245.1000277411739
 10
5169.751689318003
 20
229.43897887952946
 10
5173.32651418972
 20
220.8697340297838
 10
5181.034273076113
 20
211.63156495710433
 10
5184.590877353508
 20
211.63156495710433
 10
5191.7806122111515
 20
207.3229204352902
 10
5194.792465116626
 20
203.71305059206836
 10
5195.984739207406
 20
182.27796850021429
 10
5200.06814084418
 20
175.98545213708917
 10
5204.759777811419
 20
181.60863472100442
 10
5209.565688766989
 20
184.4887078142472
 10
5219.081852799564
 20
184.4887078142472
 10
5220.273764750601
 20
185.91727924281852
 10
5225.140025435098
 20
185.91727924281852
 10
5231.743729640295
 20
176.56330726016023
 10
5231.743729640295
 20
175.06675500389358
 10
5223.918279602082
 20
165.68752667197973
 10
5219.100984375278
 20
168.57442209996165
 10
5203.595459563256
 20
168.57442209996165
 10
5198.876463520564
 20
172.81640254508002
 10
5194.14530453751
 20
167.1458506713901
 10
5188.092142072626
 20
167.1458506713901
 10
5186.947031476443
 20
168.51832812565348
 10
5185.801920880258
 20
167.1458506713901
 10
5176.266625271969
 20
167.1458506713901
 10
5175.049889609603
 20
165.68752667197973
 10
5172.666065707532
 20
167.11609810055128
 10
5171.498977467824
 20
165.71727924281853
 10
5160.678167198797
 20
165.71727924281853
 10
5159.533056602613
 20
167.08975669708192
 10
5158.387946006428
 20
165.71727924281853
 10
5151.236474300212
 20
165.71727924281853
 10
5150.044562349175
 20
164.2887078142472
 10
5142.893090642959
 20
164.2887078142472
 10
5141.676354980594
 20
162.83038381483706
 10
5139.242883655862
 20
164.2887078142472
 10
5130.973971132598
 20
164.2887078142472
 10
5129.7820591815625
 20
162.86013638567587
 10
5122.630587475347
 20
162.86013638567587
 10
5121.428905607733
 20
161.4198551796593
 10
5118.354425615068
 20
162.15684154369714
 10
5104.009150879436
 20
180.7832345460445
  0
LWPOLYLINE
  5
51
330
17
100
AcDbEntity
  8
M
100
AcDbPolyline
 90
5
 70
1
 10
5222.716291397354
 20
257.38768018140036
 10
5225.814405076539
 20
253.67442209996162
 10
5222.716291397354
 20
249.96116401852285
 10
5218.378932246497
 20
253.67442209996162
 10
5222.716291397354
 20
257.38768018140036
  0
LWPOLYLINE
  5
52
330
17
100
AcDbEntity
  8
M
100
AcDbPolyline
 90
8
 70
1
 10
5092.090031369075
 20
273.62839252849926
 10
5092.090031369075
 20
279.42494633888646
 10
5095.16448932633
 20
283.1098517484347
 10
5104.243366664197
 20
273.6791930580058
 10
5101.129371001845
 20
269.9468995542249
 10
5098.745547099774
 20
272.80404241136756
 10
5096.373624587532
 20
269.9611640185229
 10
5092.090031369075
 20
273.62839252849926
  0
LWPOLYLINE
  5
53
330
17
100
AcDbEntity
  8
M
100
AcDbPolyline
 90
41
 70
1
 10
5195.788365150765
 20
182.2072221792832
 10
5194.596453199727
 20
203.63579360785477
 10
5191.648746350022
 20
207.16878090749003
 10
5184.535537795232
 20
211.43156495710434
 10
5180.940670366411
 20
211.43156495710434
 10
5173.149468664071
 20
220.76974479205336
 10
5171.95567230823
 20
225.06223476332443
 10
5164.7734368822785
 20
236.53996885139384
 10
5169.56430818642
 20
242.28208919602935
 10
5169.56430818642
 20
243.63818357532207
 10
5166.67046553533
 20
247.10661169749648
 10
5163.1087924557205
 20
244.26070550729696
 10
5159.4627427351115
 20
247.17403169915553
 10
5156.423041533599
 20
250.8172792428187
 10
5159.533056602613
 20
254.54480178855522
 10
5160.7717699085
 20
253.06013638567572
 10
5163.155593810572
 20
253.06013638567572
 10
5166.68452830883
 20
248.83051607426964
 10
5170.246201388437
 20
253.09937535956917
 10
5173.850710518466
 20
250.21924160880138
 10
5183.349855735455
 20
254.48870781424705
 10
5185.801920880258
 20
254.48870781424705
 10
5188.1857447823295
 20
251.63156495710436
 10
5190.4759659747
 20
251.63156495710436
 10
5191.714679280587
 20
253.1162303599839
 10
5194.785034533633
 20
249.43624226501248
 10
5195.996776392653
 20
245.07922630315028
 10
5193.632782398565
 20
242.24585067139003
 10
5199.557214569855
 20
235.14509585216237
 10
5200.751285885226
 20
226.55813858573003
 10
5203.1378428154285
 20
220.83730150513213
 10
5203.1378428154285
 20
216.56780348174354
 10
5204.329754766466
 20
215.1392320531722
 10
5204.329754766466
 20
210.853517767458
 10
5205.521666717502
 20
209.42494633888643
 10
5205.521666717502
 20
205.117829424192
 10
5210.289314521646
 20
189.4035437099062
 10
5210.289314521646
 20
186.49532643246513
 10
5206.086291361713
 20
181.45777412443942
 10
5200.040895770666
 20
177.11033248249274
 10
5195.788365150765
 20
182.2072221792832
  0
LWPOLYLINE
  5
54
330
17
100
AcDbEntity
  8
M
100
AcDbPolyline
 90
115
 70
1
 10
7064.666216422798
 20
178.56166485211222
 10
7056.4117426891735
 20
182.86207688503376
 10
7038.591286321759
 20
184.29039894440558
 10
7028.997767747747
 20
188.57442209996145
 10
7018.008101800824
 20
188.57442209996145
 10
7015.308644547694
 20
191.38714616410903
 10
7013.957858586221
 20
189.97968243230167
 10
7011.195513558102
 20
191.41880770925513
 10
7008.433168529982
 20
189.97968243230167
 10
7007.062124866785
 20
191.408253860873
 10
7004.320037540389
 20
189.97968243230167
 10
7002.145126617631
 20
192.24585067139
 10
7003.516170280828
 20
193.67442209996156
 10
7001.555577842456
 20
195.7172792428188
 10
6998.89875066259
 20
195.7172792428188
 10
6994.742989599733
 20
191.38714616410903
 10
6991.969360362212
 20
194.27715440274685
 10
6986.485185709423
 20
192.8485829741753
 10
6985.103053884088
 20
194.28870781424723
 10
6978.247835568101
 20
194.28870781424723
 10
6976.133900146569
 20
196.49134207463436
 10
6976.133900146569
 20
202.20562778892014
 10
6974.765573206766
 20
203.63136850281438
 10
6973.395422001233
 20
223.6183498413673
 10
6965.92093139029
 20
228.57442209996148
 10
6961.806617606077
 20
228.57442209996148
 10
6957.693486616485
 20
231.43156495710437
 10
6953.576246488832
 20
231.43156495710437
 10
6947.294532083183
 20
236.52234569611164
 10
6950.849334675693
 20
240.22630462476414
 10
6953.591422002088
 20
238.7977331961928
 10
6955.544147442732
 20
240.83239324913518
 10
6953.553869006076
 20
244.2887078142473
 10
6942.60070032497
 20
244.2887078142473
 10
6941.2237852812
 20
245.72339698126578
 10
6931.62647963882
 20
247.1519684098371
 10
6930.3039374294585
 20
248.53000330696617
 10
6928.3859750643505
 20
246.53156495710448
 10
6931.146826796099
 20
243.65487035694855
 10
6927.5663667842255
 20
241.41645461072403
 10
6913.818992157358
 20
248.57855569363662
 10
6905.575719103307
 20
250.01008126293246
 10
6902.862806463786
 20
252.8368252894444
 10
6900.1207191373915
 20
251.40825386087306
 10
6896.613367681124
 20
255.0627706460631
 10
6896.613367681124
 20
266.57178783957437
 10
6900.1207191373915
 20
270.2263046247644
 10
6902.862806463786
 20
268.79773319619284
 10
6904.801026530619
 20
270.81727924281853
 10
6903.4685859971105
 20
272.2056277889202
 10
6903.4685859971105
 20
275.05422732924313
 10
6897.98712491356
 20
279.3378210438249
 10
6896.611072678817
 20
303.7122536838819
 10
6898.7699331759195
 20
305.961698035814
 10
6900.183606912381
 20
304.4887078142473
 10
6905.667781565171
 20
304.4887078142473
 10
6908.409868891566
 20
301.6315649571042
 10
6915.265087207552
 20
301.6315649571042
 10
6916.640738455706
 20
300.1981926134343
 10
6928.980131424482
 20
298.76962118486296
 10
6931.721401613122
 20
295.9133297518437
 10
6946.793732185775
 20
294.4856250175165
 10
6956.3631715908305
 20
287.36350750302495
 10
6961.858199384722
 20
290.2263046247644
 10
6965.365550840991
 20
286.57178783957414
 10
6965.365550840991
 20
270.77705636034864
 10
6963.251615419459
 20
268.5744220999615
 10
6953.56904963055
 20
268.5744220999615
 10
6952.198005967352
 20
270.00299352853307
 10
6941.229656661772
 20
270.00299352853307
 10
6939.914215736757
 20
271.3736291777791
 10
6936.602109186837
 20
266.542117769607
 10
6939.901243071839
 20
263.10455517867103
 10
6941.272286735038
 20
264.5331266072426
 10
6943.473783059299
 20
262.23925746699075
 10
6935.247521080116
 20
255.0964003241336
 10
6937.206393403666
 20
253.05533547057712
 10
6949.545786372442
 20
251.6267640420058
 10
6950.912222450683
 20
250.20299352853303
 10
6960.432458879085
 20
250.20299352853303
 10
6965.960673082719
 20
254.52312337249316
 10
6967.364746409051
 20
253.06013638567572
 10
6971.477877398643
 20
253.06013638567572
 10
6974.219964725037
 20
250.20299352853303
 10
6986.536732803297
 20
250.20299352853303
 10
6993.379329611525
 20
247.3511111093627
 10
6998.887662500451
 20
248.78597551146186
 10
7000.269794325787
 20
247.3458506713899
 10
7015.351274620958
 20
247.3458506713899
 10
7021.578341032082
 20
240.85750212528856
 10
7021.578341032082
 20
236.49134207463442
 10
7020.245900498573
 20
235.10299352853292
 10
7022.969530783838
 20
232.26508215345044
 10
7021.576677639
 20
229.36249012035526
 10
7020.204375259084
 20
210.77401164143672
 10
7018.874856835375
 20
209.3887078142471
 10
7022.206492936944
 20
205.91727924281855
 10
7026.308317930193
 20
205.91727924281855
 10
7030.421448919785
 20
203.0601363856759
 10
7034.534579909377
 20
203.0601363856759
 10
7042.7698484103685
 20
197.33959438645377
 10
7049.635446504365
 20
195.90885989704088
 10
7050.998409864088
 20
194.48870781424722
 10
7055.1002348573365
 20
194.48870781424722
 10
7059.213365846928
 20
191.63156495710433
 10
7063.32649683652
 20
191.63156495710433
 10
7067.439627826112
 20
188.7744220999614
 10
7071.5558738795
 20
188.7744220999614
 10
7077.040048532289
 20
184.4887078142472
 10
7079.777838000268
 20
184.4887078142472
 10
7087.421947089604
 20
179.42016749875566
 10
7085.283643050829
 20
175.70679189374493
 10
7068.729915023791
 20
178.58150983436082
 10
7067.3880460474675
 20
179.97968243230167
 10
7064.666216422798
 20
178.56166485211222
  0
LWPOLYLINE
  5
55
330
17
100
AcDbEntity
  8
M
100
AcDbPolyline
 90
5
 70
1
 10
6930.850856131369
 20
259.38870781424714
 10
6928.932893766261
 20
261.3871461641091
 10
6927.014931401153
 20
259.38870781424714
 10
6928.932893766261
 20
257.3902694643855
 10
6930.850856131369
 20
259.38870781424714
  0
LWPOLYLINE
  5
56
330
17
100
AcDbEntity
  8
M
100
AcDbPolyline
 90
32
 70
1
 10
7055.023943168153
 20
255.7197148628627
 10
7030.3451572306
 20
257.14828629143426
 10
7028.976451106403
 20
258.5744220999615
 10
7023.492276453613
 20
258.5744220999615
 10
7021.368349918712
 20
260.78746669189655
 10
7022.758468259454
 20
266.58125254197483
 10
7026.876391921898
 20
270.8719605968053
 10
7029.618479248293
 20
278.0148177396624
 10
7035.088777664055
 20
283.71464498243125
 10
7035.088777664055
 20
286.55431627586256
 10
7037.847632984149
 20
292.3035451175713
 10
7044.04505219365
 20
298.76100249199754
 10
7048.1526049079075
 20
300.1876364756435
 10
7053.648570467125
 20
307.34585067139
 10
7055.026280707152
 20
307.34585067139
 10
7061.908242719334
 20
314.51657365200657
 10
7065.43310870059
 20
312.31291392962146
 10
7068.193825580791
 20
305.121528703727
 10
7068.193825580791
 20
300.8575021252886
 10
7070.928544003767
 20
298.00803736415895
 10
7073.670631330161
 20
283.7223230784447
 10
7075.049043896778
 20
282.2860735538599
 10
7075.049043896778
 20
278.0003592681455
 10
7076.458690689663
 20
276.5315649571043
 10
7075.0757152855995
 20
275.0905611424963
 10
7080.52930458398
 20
266.5669356038394
 10
7081.898919779756
 20
256.5773544362915
 10
7083.2994036318405
 20
255.11810753484943
 10
7081.174876355911
 20
251.42865663565206
 10
7066.710026330302
 20
252.14636054947758
 10
7056.389244066875
 20
254.29712716002496
 10
7055.023943168153
 20
255.7197148628627
  0
LWPOLYLINE
  5
57
330
17
100
AcDbEntity
  8
M
100
AcDbPolyline
 90
6
 70
1
 10
6899.355455007519
 20
275.1432164110028
 10
6901.535371999588
 20
277.4146007695917
 10
6905.061983393073
 20
270.80034803574017
 10
6902.883064165511
 20
268.5300033069662
 10
6899.355455007519
 20
272.2056277889202
 10
6899.355455007519
 20
275.1432164110028
  0
LWPOLYLINE
  5
58
330
17
100
AcDbEntity
  8
M
100
AcDbPolyline
 90
29
 70
1
 10
8083.914786831798
 20
48.574422099961545
 10
8080.115370599136
 20
51.43602215208753
 10
8069.683250257373
 20
52.86459358065887
 10
8065.885127454521
 20
55.72521946239095
 10
8060.176968289998
 20
57.15828773415366
 10
8057.747902124225
 20
60.81727924281854
 10
8059.644651277273
 20
63.67442209996166
 10
8058.696276700749
 20
65.10299352853299
 10
8061.109402153623
 20
68.73797295635597
 10
8066.799649612765
 20
74.45225867064175
 10
8071.565719704176
 20
81.63156495710444
 10
8073.47456746162
 20
81.63156495710444
 10
8076.283395378003
 20
84.45225867064154
 10
8081.049465469414
 20
91.63156495710423
 10
8082.946214622461
 20
91.63156495710423
 10
8083.894589198985
 20
93.06013638567579
 10
8088.6566597144165
 20
93.06013638567579
 10
8092.4501580205115
 20
95.91727924281868
 10
8097.279120241028
 20
95.91727924281868
 10
8099.696413196984
 20
92.27602215216457
 10
8099.696413196984
 20
80.78710776204412
 10
8094.00616573784
 20
72.21567919061567
 10
8094.00616573784
 20
69.35853633347277
 10
8092.104563846654
 20
66.49408361878307
 10
8091.166142247671
 20
60.83976804581126
 10
8092.105506127563
 20
59.42476976025568
 10
8093.0618607584
 20
52.22180937405119
 10
8090.640498205362
 20
48.574422099961545
 10
8083.914786831798
 20
48.574422099961545
  0
LWPOLYLINE
  5
59
330
17
100
AcDbEntity
  8
M
100
AcDbPolyline
 90
60
 70
1
 10
8060.644438300422
 20
107.88269193056178
 10
8054.922808100365
 20
116.50139347632992
 10
8054.922808100365
 20
137.92996490490128
 10
8051.649853597176
 20
142.86013638567584
 10
8048.903405755724
 20
142.86013638567584
 10
8045.109907449629
 20
138.5744220999614
 10
8043.114482408462
 20
138.5744220999614
 10
8042.219751317294
 20
139.92218837790537
 10
8040.388458425869
 20
137.16364468979435
 10
8032.791554267661
 20
134.3027708076112
 10
8029.932426703443
 20
131.43156495710429
 10
8026.142415919152
 20
131.43156495710429
 10
8022.358252297878
 20
127.15639655512479
 10
8016.664910590465
 20
125.72704829659997
 10
8013.75294588275
 20
122.80278209389506
 10
8012.820139445056
 20
124.20790266361959
 10
8011.925408353887
 20
122.86013638567583
 10
8008.9729976536055
 20
122.86013638567583
 10
8001.813831815033
 20
133.64425061918706
 10
8001.813831815033
 20
143.75907599978842
 10
8006.1333256996595
 20
144.48203290617667
 10
8008.985096258001
 20
147.34585067139005
 10
8010.869746806653
 20
147.34585067139005
 10
8012.760829366171
 20
150.19445773074148
 10
8021.304091854372
 20
151.62434993198138
 10
8025.1039765371015
 20
155.91727924281872
 10
8029.8493369415255
 20
155.91727924281872
 10
8032.694460671097
 20
158.77442209996138
 10
8037.42423494932
 20
158.77442209996138
 10
8038.3726095258435
 20
160.20299352853294
 10
8040.273967206255
 20
160.20299352853294
 10
8046.952217921463
 20
168.82558850079565
 10
8049.848292810443
 20
165.91727924281852
 10
8051.649853597176
 20
165.91727924281852
 10
8055.496995388627
 20
171.71237010773189
 10
8057.967931829936
 20
167.9903078664502
 10
8057.967931829936
 20
165.1331650093073
 10
8060.813055559507
 20
160.84745072359308
 10
8060.813055559507
 20
156.56173643787886
 10
8064.086010062695
 20
151.63156495710427
 10
8065.034384639219
 20
151.63156495710427
 10
8069.788070298107
 20
144.47091379584288
 10
8073.581568604202
 20
143.04234236727154
 10
8078.316756938145
 20
135.9095544053981
 10
8087.800502703382
 20
134.48098297682654
 10
8093.999779601581
 20
125.14278468071582
 10
8094.948154178105
 20
120.85707039500137
 10
8096.851289467411
 20
117.99030786645037
 10
8096.851289467411
 20
113.64425061918703
 10
8094.433996511457
 20
110.00299352853293
 10
8092.4501580205115
 20
110.00299352853293
 10
8088.6566597144165
 20
112.86013638567583
 10
8085.791338352033
 20
112.86013638567583
 10
8081.98602726967
 20
118.5922161183659
 10
8078.297258982172
 20
119.98134787932457
 10
8075.466504980982
 20
115.71727924281872
 10
8072.5140942807
 20
115.71727924281872
 10
8071.6055065798
 20
117.08591824051884
 10
8062.157090265757
 20
107.12317087473178
 10
8060.644438300422
 20
107.88269193056178
  0
LWPOLYLINE
  5
5A
330
17
100
AcDbEntity
  8
M
100
AcDbPolyline
 90
25
 70
1
 10
8042.635612289965
 20
212.1529045904278
 10
8040.697189452509
 20
215.07282204775845
 10
8040.697189452509
 20
217.99377803654107
 10
8048.261592397399
 20
227.96399857510917
 10
8046.3721616133535
 20
230.81011750445057
 10
8049.224657846011
 20
236.5392105146822
 10
8048.273932831554
 20
239.4034344736582
 10
8050.6812813878405
 20
243.02971195014723
 10
8052.618425806512
 20
244.48870781424725
 10
8064.086010062695
 20
244.48870781424725
 10
8067.841433022265
 20
238.83177639174224
 10
8070.686556751836
 20
241.68891924888513
 10
8074.090299630841
 20
236.5617364378787
 10
8074.090299630841
 20
233.64425061918715
 10
8069.348426748223
 20
226.50139347633004
 10
8069.348426748223
 20
223.64425061918715
 10
8065.054582272031
 20
217.1762751069186
 10
8063.083992000817
 20
215.69208888526913
 10
8061.211856553826
 20
217.10212204948132
 10
8060.2925117566
 20
215.7172792428186
 10
8055.550638873981
 20
215.7172792428186
 10
8054.602264297458
 20
214.28870781424726
 10
8049.860391414839
 20
214.28870781424726
 10
8047.95860403943
 20
211.42397569786442
 10
8042.635612289965
 20
212.1529045904278
  0
ENDSEC
  0
SECTION
  2
OBJECTS
  0
DICTIONARY
  5
A
330
0
100
AcDbDictionary
281
1
  3
ACAD_COLOR
350
B
  3
ACAD_GROUP
350
C
  3
ACAD_LAYOUT
350
D
  3
ACAD_MATERIAL
350
E
  3
ACAD_MLEADERSTYLE
350
F
  3
ACAD_MLINESTYLE
350
10
  3
ACAD_PLOTSETTINGS
350
11
  3
ACAD_PLOTSTYLENAME
350
12
  3
ACAD_SCALELIST
350
14
  3
ACAD_TABLESTYLE
350
15
  3
ACAD_VISUALSTYLE
350
16
  3
EZDXF_META
350
2D
  0
DICTIONARY
  5
B
330
A
100
AcDbDictionary
281
1
  0
DICTIONARY
  5
C
330
A
100
AcDbDictionary
281
1
  0
DICTIONARY
  5
D
330
A
100
AcDbDictionary
281
1
  3
Model
350
1A
  3
Layout1
350
1E
  0
DICTIONARY
  5
E
330
A
100
AcDbDictionary
281
1
  3
ByBlock
350
1F
  3
ByLayer
350
20
  3
Global
350
21
  0
DICTIONARY
  5
F
330
A
100
AcDbDictionary
281
1
  3
Standard
350
2C
  0
DICTIONARY
  5
10
330
A
100
AcDbDictionary
281
1
  3
Standard
350
22
  0
DICTIONARY
  5
11
330
A
100
AcDbDictionary
281
1
  0
ACDBDICTIONARYWDFLT
  5
12
330
A
100
AcDbDictionary
281
1
  3
Normal
350
13
100
AcDbDictionaryWithDefault
340
13
  0
ACDBPLACEHOLDER
  5
13
330
12
  0
DICTIONARY
  5
14
330
A
100
AcDbDictionary
281
1
  0
DICTIONARY
  5
15
330
A
100
AcDbDictionary
281
1
  0
DICTIONARY
  5
16
330
A
100
AcDbDictionary
281
1
  0
LAYOUT
  5
1A
330
D
100
AcDbPlotSettings
  1

  4
A3
  6

 40
7.5
 41
20.0
 42
7.5
 43
20.0
 44
420.0
 45
297.0
 46
0.0
 47
0.0
 48
0.0
 49
0.0
140
0.0
141
0.0
142
1.0
143
1.0
 70
1024
 72
1
 73
0
 74
5
  7

 75
16
 76
0
 77
2
 78
300
147
1.0
148
0.0
149
0.0
100
AcDbLayout
  1
Model
 70
1
 71
0
 10
0.0
 20
0.0
 11
420.0
 21
297.0
 12
0.0
 22
0.0
 32
0.0
 14
1e+20
 24
1e+20
 34
1e+20
 15
-1e+20
 25
-1e+20
 35
-1e+20
146
0.0
 13
0.0
 23
0.0
 33
0.0
 16
1.0
 26
0.0
 36
0.0
 17
0.0
 27
1.0
 37
0.0
 76
1
330
17
  0
LAYOUT
  5
1E
330
D
100
AcDbPlotSettings
  1

  4
A3
  6

 40
7.5
 41
20.0
 42
7.5
 43
20.0
 44
420.0
 45
297.0
 46
0.0
 47
0.0
 48
0.0
 49
0.0
140
0.0
141
0.0
142
1.0
143
1.0
 70
0
 72
1
 73
0
 74
5
  7

 75
16
 76
0
 77
2
 78
300
147
1.0
148
0.0
149
0.0
100
AcDbLayout
  1
Layout1
 70
1
 71
1
 10
0.0
 20
0.0
 11
420.0
 21
297.0
 12
0.0
 22
0.0
 32
0.0
 14
1e+20
 24
1e+20
 34
1e+20
 15
-1e+20
 25
-1e+20
 35
-1e+20
146
0.0
 13
0.0
 23
0.0
 33
0.0
 16
1.0
 26
0.0
 36
0.0
 17
0.0
 27
1.0
 37
0.0
 76
1
330
1B
  0
MATERIAL
  5
1F
102
{ACAD_REACTORS
330
E
102
}
330
E
100
AcDbMaterial
  1
ByBlock
  2

 70
0
 40
1.0
 71
1
 41
1.0
 91
-1023410177
 42
1.0
 72
1
  3

 73
1
 74
1
 75
1
 44
0.5
 73
0
 45
1.0
 46
1.0
 77
1
  4

 78
1
 79
1
170
1
 48
1.0
171
1
  6

172
1
173
1
174
1
140
1.0
141
1.0
175
1
  7

176
1
177
1
178
1
143
1.0
179
1
  8

270
1
271
1
272
1
145
1.0
146
1.0
273
1
  9

274
1
275
1
276
1
 42
1.0
 72
1
  3

 73
1
 74
1
 75
1
 94
63
  0
MATERIAL
  5
20
102
{ACAD_REACTORS
330
E
102
}
330
E
100
AcDbMaterial
  1
ByLayer
  2

 70
0
 40
1.0
 71
1
 41
1.0
 91
-1023410177
 42
1.0
 72
1
  3

 73
1
 74
1
 75
1
 44
0.5
 73
0
 45
1.0
 46
1.0
 77
1
  4

 78
1
 79
1
170
1
 48
1.0
171
1
  6

172
1
173
1
174
1
140
1.0
141
1.0
175
1
  7

176
1
177
1
178
1
143
1.0
179
1
  8

270
1
271
1
272
1
145
1.0
146
1.0
273
1
  9

274
1
275
1
276
1
 42
1.0
 72
1
  3

 73
1
 74
1
 75
1
 94
63
  0
MATERIAL
  5
21
102
{ACAD_REACTORS
330
E
102
}
330
E
100
AcDbMaterial
  1
Global
  2

 70
0
 40
1.0
 71
1
 41
1.0
 91
-1023410177
 42
1.0
 72
1
  3

 73
1
 74
1
 75
1
 44
0.5
 73
0
 45
1.0
 46
1.0
 77
1
  4

 78
1
 79
1
170
1
 48
1.0
171
1
  6

172
1
173
1
174
1
140
1.0
141
1.0
175
1
  7

176
1
177
1
178
1
143
1.0
179
1
  8

270
1
271
1
272
1
145
1.0
146
1.0
273
1
  9

274
1
275
1
276
1
 42
1.0
 72
1
  3

 73
1
 74
1
 75
1
 94
63
  0
MLINESTYLE
  5
22
102
{ACAD_REACTORS
330
10
102
}
330
10
100
AcDbMlineStyle
  2
Standard
 70
0
  3

 62
256
 51
90.0
 52
90.0
 71
2
 49
0.5
 62
256
  6
BYLAYER
 49
-0.5
 62
256
  6
BYLAYER
  0
MLEADERSTYLE
  5
2C
102
{ACAD_REACTORS
330
F
102
}
330
F
100
AcDbMLeaderStyle
179
2
170
2
171
1
172
0
 90
2
 40
0.0
 41
0.0
173
1
 91
-1056964608
 92
-2
290
1
 42
2.0
291
1
 43
8.0
  3
Standard
 44
4.0
300

342
29
174
1
175
1
176
0
178
1
 93
-1056964608
 45
4.0
292
0
297
0
 46
4.0
 94
-1056964608
 47
1.0
 49
1.0
140
1.0
294
1
141
0.0
177
0
142
1.0
295
0
296
0
143
3.75
271
0
272
9
273
9
  0
DICTIONARY
  5
2D
330
A
100
AcDbDictionary
280
1
281
1
  3
CREATED_BY_EZDXF
350
2E
  3
WRITTEN_BY_EZDXF
350
5D
  0
DICTIONARYVAR
  5
2E
330
2D
100
DictionaryVariables
280
0
  1
1.4.4 @ 2026-07-20T15:51:10.133759+00:00
  0
DICTIONARYVAR
  5
5D
330
2D
100
DictionaryVariables
280
0
  1
1.4.4 @ 2026-07-20T15:51:10.147237+00:00
  0
ENDSEC
  0
EOF
