  0
SECTION
  2
HEADER
  9
$ACADVER
  1
AC1027
  9
$ACADMAINTVER
 70
105
  9
$DWGCODEPAGE
  3
ANSI_1252
  9
$LASTSAVEDBY
  1
ezdxf
  9
$REQUIREDVERSIONS
160
0
  9
$INSBASE
 10
0.0
 20
0.0
 30
0.0
  9
$EXTMIN
 10
1e+20
 20
1e+20
 30
1e+20
  9
$EXTMAX
 10
-1e+20
 20
-1e+20
 30
-1e+20
  9
$LIMMIN
 10
0.0
 20
0.0
  9
$LIMMAX
 10
420.0
 20
297.0
  9
$ORTHOMODE
 70
0
  9
$REGENMODE
 70
1
  9
$FILLMODE
 70
1
  9
$QTEXTMODE
 70
0
  9
$MIRRTEXT
 70
1
  9
$LTSCALE
 40
1.0
  9
$ATTMODE
 70
1
  9
$TEXTSIZE
 40
2.5
  9
$TRACEWID
 40
1.0
  9
$TEXTSTYLE
  7
Standard
  9
$CLAYER
  8
0
  9
$CELTYPE
  6
ByLayer
  9
$CECOLOR
 62
256
  9
$CELTSCALE
 40
1.0
  9
$DISPSILH
 70
0
  9
$DIMSCALE
 40
1.0
  9
$DIMASZ
 40
2.5
  9
$DIMEXO
 40
0.625
  9
$DIMDLI
 40
3.75
  9
$DIMRND
 40
0.0
  9
$DIMDLE
 40
0.0
  9
$DIMEXE
 40
1.25
  9
$DIMTP
 40
0.0
  9
$DIMTM
 40
0.0
  9
$DIMTXT
 40
2.5
  9
$DIMCEN
 40
2.5
  9
$DIMTSZ
 40
0.0
  9
$DIMTOL
 70
0
  9
$DIMLIM
 70
0
  9
$DIMTIH
 70
0
  9
$DIMTOH
 70
0
  9
$DIMSE1
 70
0
  9
$DIMSE2
 70
0
  9
$DIMTAD
 70
1
  9
$DIMZIN
 70
8
  9
$DIMBLK
  1

  9
$DIMASO
 70
1
  9
$DIMSHO
 70
1
  9
$DIMPOST
  1

  9
$DIMAPOST
  1

  9
$DIMALT
 70
0
  9
$DIMALTD
 70
3
  9
$DIMALTF
 40
0.03937007874
  9
$DIMLFAC
 40
1.0
  9
$DIMTOFL
 70
1
  9
$DIMTVP
 40
0.0
  9
$DIMTIX
 70
0
  9
$DIMSOXD
 70
0
  9
$DIMSAH
 70
0
  9
$DIMBLK1
  1

  9
$DIMBLK2
  1

  9
$DIMSTYLE
  2
ISO-25
  9
$DIMCLRD
 70
0
  9
$DIMCLRE
 70
0
  9
$DIMCLRT
 70
0
  9
$DIMTFAC
 40
1.0
  9
$DIMGAP
 40
0.625
  9
$DIMJUST
 70
0
  9
$DIMSD1
 70
0
  9
$DIMSD2
 70
0
  9
$DIMTOLJ
 70
0
  9
$DIMTZIN
 70
8
  9
$DIMALTZ
 70
0
  9
$DIMALTTZ
 70
0
  9
$DIMUPT
 70
0
  9
$DIMDEC
 70
2
  9
$DIMTDEC
 70
2
  9
$DIMALTU
 70
2
  9
$DIMALTTD
 70
3
  9
$DIMTXSTY
  7
Standard
  9
$DIMAUNIT
 70
0
  9
$DIMADEC
 70
0
  9
$DIMALTRND
 40
0.0
  9
$DIMAZIN
 70
0
  9
$DIMDSEP
 70
44
  9
$DIMATFIT
 70
3
  9
$DIMFRAC
 70
0
  9
$DIMLDRBLK
  1

  9
$DIMLUNIT
 70
2
  9
$DIMLWD
 70
-2
  9
$DIMLWE
 70
-2
  9
$DIMTMOVE
 70
0
  9
$DIMFXL
 40
1.0
  9
$DIMFXLON
 70
0
  9
$DIMJOGANG
 40
0.785398163397
  9
$DIMTFILL
 70
0
  9
$DIMTFILLCLR
 70
0
  9
$DIMARCSYM
 70
0
  9
$DIMLTYPE
  6

  9
$DIMLTEX1
  6

  9
$DIMLTEX2
  6

  9
$DIMTXTDIRECTION
 70
0
  9
$LUNITS
 70
2
  9
$LUPREC
 70
4
  9
$SKETCHINC
 40
1.0
  9
$FILLETRAD
 40
10.0
  9
$AUNITS
 70
0
  9
$AUPREC
 70
2
  9
$MENU
  1
.
  9
$ELEVATION
 40
0.0
  9
$PELEVATION
 40
0.0
  9
$THICKNESS
 40
0.0
  9
$LIMCHECK
 70
0
  9
$CHAMFERA
 40
0.0
  9
$CHAMFERB
 40
0.0
  9
$CHAMFERC
 40
0.0
  9
$CHAMFERD
 40
0.0
  9
$SKPOLY
 70
0
  9
$TDCREATE
 40
2461230.628125
  9
$TDUCREATE
 40
2458532.153996898
  9
$TDUPDATE
 40
2461230.628125
  9
$TDUUPDATE
 40
2458532.1544311
  9
$TDINDWG
 40
0.0
  9
$TDUSRTIMER
 40
0.0
  9
$USRTIMER
 70
1
  9
$ANGBASE
 50
0.0
  9
$ANGDIR
 70
0
  9
$PDMODE
 70
0
  9
$PDSIZE
 40
0.0
  9
$PLINEWID
 40
0.0
  9
$SPLFRAME
 70
0
  9
$SPLINETYPE
 70
6
  9
$SPLINESEGS
 70
8
  9
$HANDSEED
  5
43
  9
$SURFTAB1
 70
6
  9
$SURFTAB2
 70
6
  9
$SURFTYPE
 70
6
  9
$SURFU
 70
6
  9
$SURFV
 70
6
  9
$UCSBASE
  2

  9
$UCSNAME
  2

  9
$UCSORG
 10
0.0
 20
0.0
 30
0.0
  9
$UCSXDIR
 10
1.0
 20
0.0
 30
0.0
  9
$UCSYDIR
 10
0.0
 20
1.0
 30
0.0
  9
$UCSORTHOREF
  2

  9
$UCSORTHOVIEW
 70
0
  9
$UCSORGTOP
 10
0.0
 20
0.0
 30
0.0
  9
$UCSORGBOTTOM
 10
0.0
 20
0.0
 30
0.0
  9
$UCSORGLEFT
 10
0.0
 20
0.0
 30
0.0
  9
$UCSORGRIGHT
 10
0.0
 20
0.0
 30
0.0
  9
$UCSORGFRONT
 10
0.0
 20
0.0
 30
0.0
  9
$UCSORGBACK
 10
0.0
 20
0.0
 30
0.0
  9
$PUCSBASE
  2

  9
$PUCSNAME
  2

  9
$PUCSORG
 10
0.0
 20
0.0
 30
0.0
  9
$PUCSXDIR
 10
1.0
 20
0.0
 30
0.0
  9
$PUCSYDIR
 10
0.0
 20
1.0
 30
0.0
  9
$PUCSORTHOREF
  2

  9
$PUCSORTHOVIEW
 70
0
  9
$PUCSORGTOP
 10
0.0
 20
0.0
 30
0.0
  9
$PUCSORGBOTTOM
 10
0.0
 20
0.0
 30
0.0
  9
$PUCSORGLEFT
 10
0.0
 20
0.0
 30
0.0
  9
$PUCSORGRIGHT
 10
0.0
 20
0.0
 30
0.0
  9
$PUCSORGFRONT
 10
0.0
 20
0.0
 30
0.0
  9
$PUCSORGBACK
 10
0.0
 20
0.0
 30
0.0
  9
$USERI1
 70
0
  9
$USERI2
 70
0
  9
$USERI3
 70
0
  9
$USERI4
 70
0
  9
$USERI5
 70
0
  9
$USERR1
 40
0.0
  9
$USERR2
 40
0.0
  9
$USERR3
 40
0.0
  9
$USERR4
 40
0.0
  9
$USERR5
 40
0.0
  9
$WORLDVIEW
 70
1
  9
$SHADEDGE
 70
3
  9
$SHADEDIF
 70
70
  9
$TILEMODE
 70
1
  9
$MAXACTVP
 70
64
  9
$PINSBASE
 10
0.0
 20
0.0
 30
0.0
  9
$PLIMCHECK
 70
0
  9
$PEXTMIN
 10
1e+20
 20
1e+20
 30
1e+20
  9
$PEXTMAX
 10
-1e+20
 20
-1e+20
 30
-1e+20
  9
$PLIMMIN
 10
0.0
 20
0.0
  9
$PLIMMAX
 10
420.0
 20
297.0
  9
$UNITMODE
 70
0
  9
$VISRETAIN
 70
1
  9
$PLINEGEN
 70
0
  9
$PSLTSCALE
 70
1
  9
$TREEDEPTH
 70
3020
  9
$CMLSTYLE
  2
Standard
  9
$CMLJUST
 70
0
  9
$CMLSCALE
 40
20.0
  9
$PROXYGRAPHICS
 70
1
  9
$MEASUREMENT
 70
1
  9
$CELWEIGHT
370
-1
  9
$ENDCAPS
280
0
  9
$JOINSTYLE
280
0
  9
$LWDISPLAY
290
0
  9
$INSUNITS
 70
4
  9
$HYPERLINKBASE
  1

  9
$STYLESHEET
  1

  9
$XEDIT
290
1
  9
$CEPSNTYPE
380
0
  9
$PSTYLEMODE
290
1
  9
$FINGERPRINTGUID
  2
{BDCC4444-F379-4911-B659-A36E6ADC21E6}
  9
$VERSIONGUID
  2
{2F169129-447D-402F-9A53-BF6C4D49593B}
  9
$EXTNAMES
290
1
  9
$PSVPSCALE
 40
0.0
  9
$OLESTARTUP
290
0
  9
$SORTENTS
280
127
  9
$INDEXCTL
280
0
  9
$HIDETEXT
280
1
  9
$XCLIPFRAME
280
1
  9
$HALOGAP
280
0
  9
$OBSCOLOR
 70
257
  9
$OBSLTYPE
280
0
  9
$INTERSECTIONDISPLAY
280
0
  9
$INTERSECTIONCOLOR
 70
257
  9
$DIMASSOC
280
2
  9
$PROJECTNAME
  1

  9
$CAMERADISPLAY
290
0
  9
$LENSLENGTH
 40
50.0
  9
$CAMERAHEIGHT
 40
0.0
  9
$STEPSPERSEC
 40
24.0
  9
$STEPSIZE
 40
100.0
  9
$3DDWFPREC
 40
2.0
  9
$PSOLWIDTH
 40
0.005
  9
$PSOLHEIGHT
 40
0.08
  9
$LOFTANG1
 40
1.570796326795
  9
$LOFTANG2
 40
1.570796326795
  9
$LOFTMAG1
 40
0.0
  9
$LOFTMAG2
 40
0.0
  9
$LOFTPARAM
 70
7
  9
$LOFTNORMALS
280
1
  9
$LATITUDE
 40
37.795
  9
$LONGITUDE
 40
-122.394
  9
$NORTHDIRECTION
 40
0.0
  9
$TIMEZONE
 70
-8000
  9
$LIGHTGLYPHDISPLAY
280
1
  9
$TILEMODELIGHTSYNCH
280
1
  9
$CMATERIAL
347
20
  9
$SOLIDHIST
280
0
  9
$SHOWHIST
280
1
  9
$DWFFRAME
280
2
  9
$DGNFRAME
280
2
  9
$REALWORLDSCALE
290
1
  9
$INTERFERECOLOR
 62
256
  9
$CSHADOW
280
0
  9
$SHADOWPLANELOCATION
 40
0.0
  0
ENDSEC
  0
SECTION
  2
CLASSES
  0
CLASS
  1
ACDBDICTIONARYWDFLT
  2
AcDbDictionaryWithDefault
  3
ObjectDBX Classes
 90
0
 91
0
280
0
281
0
  0
CLASS
  1
SUN
  2
AcDbSun
  3
SCENEOE
 90
1153
 91
0
280
0
281
0
  0
CLASS
  1
VISUALSTYLE
  2
AcDbVisualStyle
  3
ObjectDBX Classes
 90
4095
 91
0
280
0
281
0
  0
CLASS
  1
MATERIAL
  2
AcDbMaterial
  3
ObjectDBX Classes
 90
1153
 91
0
280
0
281
0
  0
CLASS
  1
SCALE
  2
AcDbScale
  3
ObjectDBX Classes
 90
1153
 91
0
280
0
281
0
  0
CLASS
  1
TABLESTYLE
  2
AcDbTableStyle
  3
ObjectDBX Classes
 90
4095
 91
0
280
0
281
0
  0
CLASS
  1
MLEADERSTYLE
  2
AcDbMLeaderStyle
  3
ACDB_MLEADERSTYLE_CLASS
 90
4095
 91
0
280
0
281
0
  0
CLASS
  1
DICTIONARYVAR
  2
AcDbDictionaryVar
  3
ObjectDBX Classes
 90
0
 91
0
280
0
281
0
  0
CLASS
  1
CELLSTYLEMAP
  2
AcDbCellStyleMap
  3
ObjectDBX Classes
 90
1152
 91
0
280
0
281
0
  0
CLASS
  1
MENTALRAYRENDERSETTINGS
  2
AcDbMentalRayRenderSettings
  3
SCENEOE
 90
1024
 91
0
280
0
281
0
  0
CLASS
  1
ACDBDETAILVIEWSTYLE
  2
AcDbDetailViewStyle
  3
ObjectDBX Classes
 90
1025
 91
0
280
0
281
0
  0
CLASS
  1
ACDBSECTIONVIEWSTYLE
  2
AcDbSectionViewStyle
  3
ObjectDBX Classes
 90
1025
 91
0
280
0
281
0
  0
CLASS
  1
RASTERVARIABLES
  2
AcDbRasterVariables
  3
ISM
 90
0
 91
0
280
0
281
0
  0
CLASS
  1
ACDBPLACEHOLDER
  2
AcDbPlaceHolder
  3
ObjectDBX Classes
 90
0
 91
0
280
0
281
0
  0
CLASS
  1
LAYOUT
  2
AcDbLayout
  3
ObjectDBX Classes
 90
0
 91
0
280
0
281
0
  0
ENDSEC
  0
SECTION
  2
TABLES
  0
TABLE
  2
VPORT
  5
8
330
0
100
AcDbSymbolTable
 70
1
  0
VPORT
  5
23
330
8
100
AcDbSymbolTableRecord
100
AcDbViewportTableRecord
  2
*Active
 70
0
 10
0.0
 20
0.0
 11
1.0
 21
1.0
 12
0.0
 22
0.0
 13
0.0
 23
0.0
 14
0.5
 24
0.5
 15
0.5
 25
0.5
 16
0.0
 26
0.0
 36
1.0
 17
0.0
 27
0.0
 37
0.0
 40
1000.0
 41
1.34
 42
50.0
 43
0.0
 44
0.0
 50
0.0
 51
0.0
 71
0
 72
1000
 73
1
 74
3
 75
0
 76
0
 77
0
 78
0
281
0
 65
0
146
0.0
  0
ENDTAB
  0
TABLE
  2
LTYPE
  5
2
330
0
100
AcDbSymbolTable
 70
3
  0
LTYPE
  5
24
330
2
100
AcDbSymbolTableRecord
100
AcDbLinetypeTableRecord
  2
ByBlock
 70
0
  3

 72
65
 73
0
 40
0.0
  0
LTYPE
  5
25
330
2
100
AcDbSymbolTableRecord
100
AcDbLinetypeTableRecord
  2
ByLayer
 70
0
  3

 72
65
 73
0
 40
0.0
  0
LTYPE
  5
26
330
2
100
AcDbSymbolTableRecord
100
AcDbLinetypeTableRecord
  2
Continuous
 70
0
  3

 72
65
 73
0
 40
0.0
  0
ENDTAB
  0
TABLE
  2
LAYER
  5
1
330
0
100
AcDbSymbolTable
 70
3
  0
LAYER
  5
27
330
1
100
AcDbSymbolTableRecord
100
AcDbLayerTableRecord
  2
0
 70
0
 62
7
  6
Continuous
370
-3
390
13
347
21
  0
LAYER
  5
28
330
1
100
AcDbSymbolTableRecord
100
AcDbLayerTableRecord
  2
Defpoints
 70
0
 62
7
  6
Continuous
290
0
370
-3
390
13
347
21
  0
LAYER
  5
2F
330
1
100
AcDbSymbolTableRecord
100
AcDbLayerTableRecord
  2
C
 70
0
 62
7
  6
Continuous
370
-3
390
13
347
21
  0
ENDTAB
  0
TABLE
  2
STYLE
  5
5
330
0
100
AcDbSymbolTable
 70
1
  0
STYLE
  5
29
330
5
100
AcDbSymbolTableRecord
100
AcDbTextStyleTableRecord
  2
Standard
 70
0
 40
0.0
 41
1.0
 50
0.0
 71
0
 42
2.5
  3
txt
  4

  0
ENDTAB
  0
TABLE
  2
VIEW
  5
7
330
0
100
AcDbSymbolTable
 70
0
  0
ENDTAB
  0
TABLE
  2
UCS
  5
6
330
0
100
AcDbSymbolTable
 70
0
  0
ENDTAB
  0
TABLE
  2
APPID
  5
3
330
0
100
AcDbSymbolTable
 70
3
  0
APPID
  5
2A
330
3
100
AcDbSymbolTableRecord
100
AcDbRegAppTableRecord
  2
ACAD
 70
0
  0
APPID
  5
40
330
3
100
AcDbSymbolTableRecord
100
AcDbRegAppTableRecord
  2
HATCHBACKGROUNDCOLOR
 70
0
  0
APPID
  5
41
330
3
100
AcDbSymbolTableRecord
100
AcDbRegAppTableRecord
  2
EZDXF
 70
0
  0
ENDTAB
  0
TABLE
  2
DIMSTYLE
  5
4
330
0
100
AcDbSymbolTable
 70
1
100
AcDbDimStyleTable
  0
DIMSTYLE
105
2B
330
4
100
AcDbSymbolTableRecord
100
AcDbDimStyleTableRecord
  2
Standard
 70
0
 40
1.0
 41
2.5
 42
0.625
 43
3.75
 44
1.25
 45
0.0
 46
0.0
 47
0.0
 48
0.0
 49
2.5
140
2.5
141
2.5
142
0.0
143
0.03937007874
144
1.0
145
0.0
146
1.0
147
0.625
148
0.0
 69
0
 70
0
 71
0
 72
0
 73
0
 74
0
 75
0
 76
0
 77
1
 78
8
 79
3
170
0
171
3
172
1
173
0
174
0
175
0
176
0
177
0
178
0
179
2
271
2
272
2
273
2
274
3
275
0
276
0
277
2
278
44
279
0
280
0
281
0
282
0
283
0
284
8
285
0
286
0
288
0
289
3
290
0
371
-2
372
-2
  0
ENDTAB
  0
TABLE
  2
BLOCK_RECORD
  5
9
330
0
100
AcDbSymbolTable
 70
2
  0
BLOCK_RECORD
  5
17
330
9
100
AcDbSymbolTableRecord
100
AcDbBlockTableRecord
  2
*Model_Space
340
1A
 70
0
280
1
281
0
  0
BLOCK_RECORD
  5
1B
330
9
100
AcDbSymbolTableRecord
100
AcDbBlockTableRecord
  2
*Paper_Space
340
1E
 70
0
280
1
281
0
  0
ENDTAB
  0
ENDSEC
  0
SECTION
  2
BLOCKS
  0
BLOCK
  5
18
330
17
100
AcDbEntity
  8
0
100
AcDbBlockBegin
  2
*Model_Space
 70
0
 10
0.0
 20
0.0
 30
0.0
  3
*Model_Space
  1

  0
ENDBLK
  5
19
330
17
100
AcDbEntity
  8
0
100
AcDbBlockEnd
  0
BLOCK
  5
1C
330
1B
100
AcDbEntity
  8
0
100
AcDbBlockBegin
  2
*Paper_Space
 70
0
 10
0.0
 20
0.0
 30
0.0
  3
*Paper_Space
  1

  0
ENDBLK
  5
1D
330
1B
100
AcDbEntity
  8
0
100
AcDbBlockEnd
  0
ENDSEC
  0
SECTION
  2
ENTITIES
  0
LWPOLYLINE
  5
30
330
17
100
AcDbEntity
  8
C
100
AcDbPolyline
 90
14
 70
1
 10
402.879331685579
 20
515.3305989327804
 10
398.59060733052854
 20
536.0594333155256
 10
385.7277928544853
 20
556.7828566380391
 10
385.7277928544853
 20
567.1324983895969
 10
377.0480285950768
 20
577.6205468697153
 10
482.3319904601187
 20
580.2168350449585
 10
484.5036846377697
 20
572.3444436509741
 10
475.92779285448563
 20
546.4381038889676
 10
475.92779285448563
 20
530.8824983895969
 10
471.6420785687712
 20
525.7039269610254
 10
471.6420785687712
 20
504.9746378053421
 10
460.8573569876109
 20
497.155714659001
 10
420.0722646591233
 20
499.74950342550574
 10
402.879331685579
 20
515.3305989327804
  0
LWPOLYLINE
  5
31
330
17
100
AcDbEntity
  8
C
100
AcDbPolyline
 90
15
 70
1
 10
385.7439854476343
 20
365.2632301077361
 10
402.87064999734224
 20
380.78426985590863
 10
402.87064999734224
 20
385.9545238933423
 10
422.1985623902187
 20
409.3090847014006
 10
439.42375275698174
 20
414.5125276246937
 10
471.6420785687712
 20
385.96351114146955
 10
471.6420785687712
 20
365.2402381790566
 10
475.94625023406144
 20
360.03936408349733
 10
469.47356166663656
 20
347.00408849632305
 10
447.9935494053633
 20
336.622082570041
 10
430.86306077629644
 20
336.622082570041
 10
417.9981822391925
 20
326.2587081929297
 10
402.91719205496526
 20
328.86197435568323
 10
381.42666192537433
 20
354.82969826227304
 10
385.7439854476343
 20
365.2632301077361
  0
LWPOLYLINE
  5
32
330
17
100
AcDbEntity
  8
C
100
AcDbPolyline
 90
22
 70
1
 10
285.06437034492296
 20
409.13325471811015
 10
272.22109636124526
 20
419.47922542718385
 10
263.64966778981636
 20
419.47922542718385
 10
250.7925249326739
 20
429.8363682843267
 10
242.1736550637146
 20
429.8363682843267
 10
235.72073618675572
 20
463.6245685150733
 10
242.20931924702427
 20
471.4649397128982
 10
259.3639535041028
 20
471.4649397128982
 10
272.2153793731561
 20
481.81747721852497
 10
310.77570256161914
 20
486.9945576466056
 10
315.08644623103964
 20
492.20337291382145
 10
336.5649779767921
 20
481.822082570041
 10
358.0277020199683
 20
481.822082570041
 10
368.78493571162795
 20
463.6244289083157
 10
368.78493571162795
 20
453.25981229333945
 10
377.3736712283551
 20
432.5037014612496
 10
345.1562860044648
 20
398.7649397128982
 10
336.6089223951603
 20
398.7649397128982
 10
332.32931165910617
 20
388.42254710076776
 10
321.4880026622167
 20
385.80256409318605
 10
315.04215717856266
 20
398.78378069221066
 10
285.06437034492296
 20
409.13325471811015
  0
LWPOLYLINE
  5
33
330
17
100
AcDbEntity
  8
C
100
AcDbPolyline
 90
29
 70
1
 10
235.72779285448496
 20
240.87418099845902
 10
235.72779285448496
 20
246.06106981816833
 10
216.49503353273846
 20
269.30065399861246
 10
182.18952045666725
 20
269.30065399861246
 10
177.9038061709528
 20
279.6577968557553
 10
169.466065252303
 20
279.6577968557553
 10
165.18035096658946
 20
269.30065399861246
 10
147.92360496130996
 20
269.30065399861246
 10
132.84084634062054
 20
287.5256539986124
 10
150.02985808628378
 20
308.2957098579555
 10
165.15494506030848
 20
337.01536905268114
 10
169.47620488580827
 20
316.1292798960961
 10
180.01925086358827
 20
318.6771826740595
 10
182.163605177303
 20
347.17922542718384
 10
233.75177953801796
 20
347.17922542718384
 10
238.03749382373152
 20
336.822082570041
 10
246.5891236048039
 20
336.822082570041
 10
250.88026962893917
 20
331.63694779087683
 10
304.4992214259139
 20
323.8621997803156
 10
304.4992214259139
 20
308.2759524647708
 10
325.92779285448523
 20
282.38309532191374
 10
325.92779285448523
 20
271.9539269610254
 10
321.6420785687708
 20
266.775355532454
 10
321.6420785687708
 20
251.24989780909146
 10
304.4992214259139
 20
220.17846923766294
 10
304.4992214259139
 20
209.74708257004104
 10
252.87064999734275
 20
209.74708257004104
 10
252.87064999734275
 20
225.33846671274483
 10
235.72779285448496
 20
240.87418099845902
  0
LWPOLYLINE
  5
34
330
17
100
AcDbEntity
  8
C
100
AcDbPolyline
 90
11
 70
1
 10
19.37135832394432
 20
497.15779685575524
 10
2.170558070707429
 20
507.54994700875244
 10
0.0
 20
515.4182200150653
 10
27.92442567844944
 20
538.7780761114606
 10
49.343393100734545
 20
543.9543265718462
 10
53.637890675595656
 20
549.1435111414695
 10
70.94171014357187
 20
549.1435111414695
 10
64.49621460906663
 20
499.81756614824036
 10
58.01621337068852
 20
486.76756365428474
 10
36.51917916074954
 20
497.15779685575524
 10
19.37135832394432
 20
497.15779685575524
  0
LWPOLYLINE
  5
35
330
17
100
AcDbEntity
  8
C
100
AcDbPolyline
 90
20
 70
1
 10
1726.4950335327383
 20
243.40779685575532
 10
1720.0135071401999
 20
251.2396412467397
 10
1720.0135071401999
 20
266.7701494765994
 10
1694.296075997684
 20
292.6661738909382
 10
1698.5866829157176
 20
349.69549084313246
 10
1705.1403192145713
 20
362.89378616721325
 10
1709.4698666465292
 20
347.19917672636547
 10
1720.0223697634226
 20
349.7493649796147
 10
1722.167490491918
 20
367.8935111414695
 10
1730.8516828664651
 20
367.8935111414695
 10
1797.3563642830568
 20
334.1942303698898
 10
1797.3563642830568
 20
287.4896412467397
 10
1793.0706499973423
 20
282.31106981816833
 10
1793.0706499973423
 20
272.0463570036715
 10
1801.6725891197655
 20
266.8493521172075
 10
1788.7811517187045
 20
240.88742957340415
 10
1786.6231673602756
 20
227.8496074078945
 10
1743.6291073864493
 20
238.23983856823583
 10
1739.3521763898816
 20
243.40779685575532
 10
1726.4950335327383
 20
243.40779685575532
  0
LWPOLYLINE
  5
36
330
17
100
AcDbEntity
  8
C
100
AcDbPolyline
 90
8
 70
1
 10
1610.7632339554182
 20
279.8349011700838
 10
1640.8193429153916
 20
310.9644425929131
 10
1653.7335064982183
 20
300.5613663734138
 10
1677.4190587199112
 20
292.755900300356
 10
1640.8739745000985
 20
243.40212234663926
 10
1593.594964580535
 20
248.59564995143978
 10
1591.435593787498
 20
266.86032790921155
 10
1610.7632339554182
 20
279.8349011700838
  0
LWPOLYLINE
  5
37
330
17
100
AcDbEntity
  8
C
100
AcDbPolyline
 90
11
 70
1
 10
1574.277706174037
 20
116.53904290151496
 10
1578.5896262090614
 20
137.37998973746602
 10
1597.9086555564681
 20
176.28636828432676
 10
1610.8748378905177
 20
176.28636828432676
 10
1619.4462664619466
 20
165.92922542718392
 10
1628.0030861259913
 20
165.92922542718392
 10
1638.7849357116283
 20
158.112384477597
 10
1638.7849357116283
 20
64.63811674413745
 10
1625.7303967596145
 20
75.15427312214862
 10
1623.5900333984246
 20
113.94835904371203
 10
1574.277706174037
 20
116.53904290151496
  0
LWPOLYLINE
  5
38
330
17
100
AcDbEntity
  8
C
100
AcDbPolyline
 90
7
 70
1
 10
1449.807017256374
 20
163.32524277259742
 10
1503.7300784287017
 20
165.93152406259327
 10
1531.6464134206944
 20
132.19928594726872
 10
1529.482315225712
 20
113.89462204804646
 10
1473.6074390795748
 20
139.86211256468073
 10
1469.3183808287902
 20
150.22733667074385
 10
1449.807017256374
 20
163.32524277259742
  0
LWPOLYLINE
  5
39
330
17
100
AcDbEntity
  8
C
100
AcDbPolyline
 90
10
 70
1
 10
1396.4950335327383
 20
290.0149397128982
 10
1390.0135071401999
 20
297.84678410388256
 10
1390.0135071401999
 20
334.1815479418676
 10
1426.5076257689789
 20
362.7149397128982
 10
1439.4316575545627
 20
362.7149397128982
 10
1471.6773717021167
 20
339.33679695592167
 10
1441.642078568771
 20
292.6748236951886
 10
1441.642078568771
 20
282.2088379392693
 10
1417.9545973246554
 20
290.0149397128982
 10
1396.4950335327383
 20
290.0149397128982
  0
LWPOLYLINE
  5
3A
330
17
100
AcDbEntity
  8
C
100
AcDbPolyline
 90
10
 70
1
 10
2968.584935711628
 20
240.87272473839172
 10
2968.584935711628
 20
266.83325552291734
 10
2979.3351353392045
 20
290.2149397128981
 10
2996.595134766248
 20
290.2149397128981
 10
3015.918906276151
 20
261.67659197373683
 10
3028.784935711628
 20
220.21938601497703
 10
3028.784935711628
 20
209.68563366524606
 10
2992.2328610655377
 20
227.872082570041
 10
2983.6477487066827
 20
227.872082570041
 10
2968.584935711628
 20
240.87272473839172
  0
LWPOLYLINE
  5
3B
330
17
100
AcDbEntity
  8
C
100
AcDbPolyline
 90
9
 70
1
 10
2949.3421672801705
 20
119.3099882291403
 10
2953.637890675595
 20
124.50065399861244
 10
2966.6348376745236
 20
124.50065399861244
 10
2968.783019218658
 20
95.94774097449732
 10
2977.383103227564
 20
80.36008870835443
 10
2962.2865998093575
 20
67.33036849621088
 10
2912.8485072155845
 20
75.12224178544669
 10
2921.4583477549877
 20
111.53469240000291
 10
2949.3421672801705
 20
119.3099882291403
  0
LWPOLYLINE
  5
3C
330
17
100
AcDbEntity
  8
C
100
AcDbPolyline
 90
41
 70
1
 10
2675.0664621041665
 20
98.4077968557553
 10
2670.7807478184523
 20
103.58636828432677
 10
2662.2219114832637
 20
103.58636828432677
 10
2625.750104192913
 20
132.1023156510467
 10
2617.1563642830556
 20
147.6784692376629
 10
2617.1563642830556
 20
158.025355532454
 10
2608.5849357116276
 20
168.38249838959683
 10
2608.5849357116276
 20
199.5134007396594
 10
2627.9129478953573
 20
238.43786972078195
 10
2647.3563642830563
 20
235.8274110391002
 10
2647.3563642830563
 20
194.3285770945079
 10
2660.201835728115
 20
158.11148399246798
 10
2666.605220690144
 20
150.37406049668266
 10
2687.981945642874
 20
140.0419767695299
 10
2698.5849357116276
 20
142.60436603614545
 10
2698.5849357116276
 20
152.84678410388264
 10
2694.293120364392
 20
158.0327276484582
 10
2696.4572697504277
 20
171.10779685575528
 10
2705.160552176232
 20
171.10779685575528
 10
2709.4462664619455
 20
165.92922542718392
 10
2735.1605521762312
 20
165.92922542718392
 10
2739.3992214259138
 20
160.8075000838185
 10
2743.6314777692505
 20
165.9214764986846
 10
2773.631477769251
 20
171.10004792725596
 10
2777.923604961309
 20
176.28636828432676
 10
2790.7807478184523
 20
176.28636828432676
 10
2795.066462104167
 20
181.46493971289811
 10
2816.574514697419
 20
181.46493971289811
 10
2838.00308612599
 20
165.92922542718392
 10
2850.874837890517
 20
165.92922542718392
 10
2861.642078568771
 20
152.91880960762805
 10
2861.642078568771
 20
132.11209385069623
 10
2853.04727215489
 20
126.9193983089767
 10
2846.6040730096447
 20
113.94351114146961
 10
2812.2177930907687
 20
113.94351114146961
 10
2795.074935947912
 20
129.47922542718393
 10
2756.601964184613
 20
129.47922542718393
 10
2733.0305356131844
 20
85.46136828432671
 10
2724.337226985039
 20
85.46136828432671
 10
2717.9086555564672
 20
98.4077968557553
 10
2675.0664621041665
 20
98.4077968557553
  0
LWPOLYLINE
  5
3D
330
17
100
AcDbEntity
  8
C
100
AcDbPolyline
 90
4
 70
1
 10
2677.4818848351147
 20
225.44534664344206
 10
2662.1563642830565
 20
212.2179628336299
 10
2662.1563642830565
 20
228.0908234054043
 10
2677.4818848351147
 20
225.44534664344206
  0
LWPOLYLINE
  5
3E
330
17
100
AcDbEntity
  8
C
100
AcDbPolyline
 90
23
 70
1
 10
4011.3872207881805
 20
85.49591354376973
 10
4032.8629597348613
 20
121.82570526190561
 10
4030.744547989081
 20
129.50494784035837
 10
4017.909773604468
 20
134.6745097452722
 10
4007.1563642830565
 20
147.66821267531117
 10
4007.1563642830565
 20
173.61429138022223
 10
4013.6143000745196
 20
191.82208257004106
 10
4155.1775932269065
 20
191.82208257004106
 10
4176.609282215696
 20
145.20815901942464
 10
4200.225889882101
 20
142.61391045000914
 10
4193.772718699445
 20
93.22922542718392
 10
4172.225912060577
 20
93.22922542718392
 10
4152.888327658082
 20
106.21047421589525
 10
4142.182928220151
 20
134.6689943883934
 10
4112.296457739839
 20
139.8279684593997
 10
4108.024107939719
 20
134.6655457842546
 10
4078.0241079397197
 20
129.48697435568323
 10
4071.642078568771
 20
121.775355532454
 10
4071.642078568771
 20
106.2396412467398
 10
4065.1679673102403
 20
98.41675680934891
 10
4039.4360313958737
 20
93.23463082659444
 10
4022.2728631046207
 20
82.86521665062985
 10
4011.3872207881805
 20
85.49591354376973
  0
LWPOLYLINE
  5
3F
330
17
100
AcDbEntity
  8
C
100
AcDbPolyline
 90
10
 70
1
 10
4125.055705247361
 20
10.38508043868136
 10
4110.026864523453
 20
28.54492964673705
 10
4105.712376211089
 20
38.97160973495184
 10
4120.780747818453
 20
57.1792254271839
 10
4155.160552176231
 20
57.1792254271839
 10
4170.2135071402
 20
38.99023817905645
 10
4170.2135071402
 20
18.22006713245683
 10
4165.9144354712325
 20
7.830643932451364
 10
4159.433902561617
 20
0.0
 10
4125.055705247361
 20
10.38508043868136
  0
ENDSEC
  0
SECTION
  2
OBJECTS
  0
DICTIONARY
  5
A
330
0
100
AcDbDictionary
281
1
  3
ACAD_COLOR
350
B
  3
ACAD_GROUP
350
C
  3
ACAD_LAYOUT
350
D
  3
ACAD_MATERIAL
350
E
  3
ACAD_MLEADERSTYLE
350
F
  3
ACAD_MLINESTYLE
350
10
  3
ACAD_PLOTSETTINGS
350
11
  3
ACAD_PLOTSTYLENAME
350
12
  3
ACAD_SCALELIST
350
14
  3
ACAD_TABLESTYLE
350
15
  3
ACAD_VISUALSTYLE
350
16
  3
EZDXF_META
350
2D
  0
DICTIONARY
  5
B
330
A
100
AcDbDictionary
281
1
  0
DICTIONARY
  5
C
330
A
100
AcDbDictionary
281
1
  0
DICTIONARY
  5
D
330
A
100
AcDbDictionary
281
1
  3
Model
350
1A
  3
Layout1
350
1E
  0
DICTIONARY
  5
E
330
A
100
AcDbDictionary
281
1
  3
ByBlock
350
1F
  3
ByLayer
350
20
  3
Global
350
21
  0
DICTIONARY
  5
F
330
A
100
AcDbDictionary
281
1
  3
Standard
350
2C
  0
DICTIONARY
  5
10
330
A
100
AcDbDictionary
281
1
  3
Standard
350
22
  0
DICTIONARY
  5
11
330
A
100
AcDbDictionary
281
1
  0
ACDBDICTIONARYWDFLT
  5
12
330
A
100
AcDbDictionary
281
1
  3
Normal
350
13
100
AcDbDictionaryWithDefault
340
13
  0
ACDBPLACEHOLDER
  5
13
330
12
  0
DICTIONARY
  5
14
330
A
100
AcDbDictionary
281
1
  0
DICTIONARY
  5
15
330
A
100
AcDbDictionary
281
1
  0
DICTIONARY
  5
16
330
A
100
AcDbDictionary
281
1
  0
LAYOUT
  5
1A
330
D
100
AcDbPlotSettings
  1

  4
A3
  6

 40
7.5
 41
20.0
 42
7.5
 43
20.0
 44
420.0
 45
297.0
 46
0.0
 47
0.0
 48
0.0
 49
0.0
140
0.0
141
0.0
142
1.0
143
1.0
 70
1024
 72
1
 73
0
 74
5
  7

 75
16
 76
0
 77
2
 78
300
147
1.0
148
0.0
149
0.0
100
AcDbLayout
  1
Model
 70
1
 71
0
 10
0.0
 20
0.0
 11
420.0
 21
297.0
 12
0.0
 22
0.0
 32
0.0
 14
1e+20
 24
1e+20
 34
1e+20
 15
-1e+20
 25
-1e+20
 35
-1e+20
146
0.0
 13
0.0
 23
0.0
 33
0.0
 16
1.0
 26
0.0
 36
0.0
 17
0.0
 27
1.0
 37
0.0
 76
1
330
17
  0
LAYOUT
  5
1E
330
D
100
AcDbPlotSettings
  1

  4
A3
  6

 40
7.5
 41
20.0
 42
7.5
 43
20.0
 44
420.0
 45
297.0
 46
0.0
 47
0.0
 48
0.0
 49
0.0
140
0.0
141
0.0
142
1.0
143
1.0
 70
0
 72
1
 73
0
 74
5
  7

 75
16
 76
0
 77
2
 78
300
147
1.0
148
0.0
149
0.0
100
AcDbLayout
  1
Layout1
 70
1
 71
1
 10
0.0
 20
0.0
 11
420.0
 21
297.0
 12
0.0
 22
0.0
 32
0.0
 14
1e+20
 24
1e+20
 34
1e+20
 15
-1e+20
 25
-1e+20
 35
-1e+20
146
0.0
 13
0.0
 23
0.0
 33
0.0
 16
1.0
 26
0.0
 36
0.0
 17
0.0
 27
1.0
 37
0.0
 76
1
330
1B
  0
MATERIAL
  5
1F
102
{ACAD_REACTORS
330
E
102
}
330
E
100
AcDbMaterial
  1
ByBlock
  2

 70
0
 40
1.0
 71
1
 41
1.0
 91
-1023410177
 42
1.0
 72
1
  3

 73
1
 74
1
 75
1
 44
0.5
 73
0
 45
1.0
 46
1.0
 77
1
  4

 78
1
 79
1
170
1
 48
1.0
171
1
  6

172
1
173
1
174
1
140
1.0
141
1.0
175
1
  7

176
1
177
1
178
1
143
1.0
179
1
  8

270
1
271
1
272
1
145
1.0
146
1.0
273
1
  9

274
1
275
1
276
1
 42
1.0
 72
1
  3

 73
1
 74
1
 75
1
 94
63
  0
MATERIAL
  5
20
102
{ACAD_REACTORS
330
E
102
}
330
E
100
AcDbMaterial
  1
ByLayer
  2

 70
0
 40
1.0
 71
1
 41
1.0
 91
-1023410177
 42
1.0
 72
1
  3

 73
1
 74
1
 75
1
 44
0.5
 73
0
 45
1.0
 46
1.0
 77
1
  4

 78
1
 79
1
170
1
 48
1.0
171
1
  6

172
1
173
1
174
1
140
1.0
141
1.0
175
1
  7

176
1
177
1
178
1
143
1.0
179
1
  8

270
1
271
1
272
1
145
1.0
146
1.0
273
1
  9

274
1
275
1
276
1
 42
1.0
 72
1
  3

 73
1
 74
1
 75
1
 94
63
  0
MATERIAL
  5
21
102
{ACAD_REACTORS
330
E
102
}
330
E
100
AcDbMaterial
  1
Global
  2

 70
0
 40
1.0
 71
1
 41
1.0
 91
-1023410177
 42
1.0
 72
1
  3

 73
1
 74
1
 75
1
 44
0.5
 73
0
 45
1.0
 46
1.0
 77
1
  4

 78
1
 79
1
170
1
 48
1.0
171
1
  6

172
1
173
1
174
1
140
1.0
141
1.0
175
1
  7

176
1
177
1
178
1
143
1.0
179
1
  8

270
1
271
1
272
1
145
1.0
146
1.0
273
1
  9

274
1
275
1
276
1
 42
1.0
 72
1
  3

 73
1
 74
1
 75
1
 94
63
  0
MLINESTYLE
  5
22
102
{ACAD_REACTORS
330
10
102
}
330
10
100
AcDbMlineStyle
  2
Standard
 70
0
  3

 62
256
 51
90.0
 52
90.0
 71
2
 49
0.5
 62
256
  6
BYLAYER
 49
-0.5
 62
256
  6
BYLAYER
  0
MLEADERSTYLE
  5
2C
102
{ACAD_REACTORS
330
F
102
}
330
F
100
AcDbMLeaderStyle
179
2
170
2
171
1
172
0
 90
2
 40
0.0
 41
0.0
173
1
 91
-1056964608
 92
-2
290
1
 42
2.0
291
1
 43
8.0
  3
Standard
 44
4.0
300

342
29
174
1
175
1
176
0
178
1
 93
-1056964608
 45
4.0
292
0
297
0
 46
4.0
 94
-1056964608
 47
1.0
 49
1.0
140
1.0
294
1
141
0.0
177
0
142
1.0
295
0
296
0
143
3.75
271
0
272
9
273
9
  0
DICTIONARY
  5
2D
330
A
100
AcDbDictionary
280
1
281
1
  3
CREATED_BY_EZDXF
350
2E
  3
WRITTEN_BY_EZDXF
350
42
  0
DICTIONARYVAR
  5
2E
330
2D
100
DictionaryVariables
280
0
  1
1.4.4 @ 2026-07-08T12:04:30.214467+00:00
  0
DICTIONARYVAR
  5
42
330
2D
100
DictionaryVariables
280
0
  1
1.4.4 @ 2026-07-08T12:04:30.220269+00:00
  0
ENDSEC
  0
EOF
