  0
SECTION
  2
HEADER
  9
$ACADVER
  1
AC1027
  9
$ACADMAINTVER
 70
105
  9
$DWGCODEPAGE
  3
ANSI_1252
  9
$LASTSAVEDBY
  1
ezdxf
  9
$REQUIREDVERSIONS
160
0
  9
$INSBASE
 10
0.0
 20
0.0
 30
0.0
  9
$EXTMIN
 10
1e+20
 20
1e+20
 30
1e+20
  9
$EXTMAX
 10
-1e+20
 20
-1e+20
 30
-1e+20
  9
$LIMMIN
 10
0.0
 20
0.0
  9
$LIMMAX
 10
420.0
 20
297.0
  9
$ORTHOMODE
 70
0
  9
$REGENMODE
 70
1
  9
$FILLMODE
 70
1
  9
$QTEXTMODE
 70
0
  9
$MIRRTEXT
 70
1
  9
$LTSCALE
 40
1.0
  9
$ATTMODE
 70
1
  9
$TEXTSIZE
 40
2.5
  9
$TRACEWID
 40
1.0
  9
$TEXTSTYLE
  7
Standard
  9
$CLAYER
  8
0
  9
$CELTYPE
  6
ByLayer
  9
$CECOLOR
 62
256
  9
$CELTSCALE
 40
1.0
  9
$DISPSILH
 70
0
  9
$DIMSCALE
 40
1.0
  9
$DIMASZ
 40
2.5
  9
$DIMEXO
 40
0.625
  9
$DIMDLI
 40
3.75
  9
$DIMRND
 40
0.0
  9
$DIMDLE
 40
0.0
  9
$DIMEXE
 40
1.25
  9
$DIMTP
 40
0.0
  9
$DIMTM
 40
0.0
  9
$DIMTXT
 40
2.5
  9
$DIMCEN
 40
2.5
  9
$DIMTSZ
 40
0.0
  9
$DIMTOL
 70
0
  9
$DIMLIM
 70
0
  9
$DIMTIH
 70
0
  9
$DIMTOH
 70
0
  9
$DIMSE1
 70
0
  9
$DIMSE2
 70
0
  9
$DIMTAD
 70
1
  9
$DIMZIN
 70
8
  9
$DIMBLK
  1

  9
$DIMASO
 70
1
  9
$DIMSHO
 70
1
  9
$DIMPOST
  1

  9
$DIMAPOST
  1

  9
$DIMALT
 70
0
  9
$DIMALTD
 70
3
  9
$DIMALTF
 40
0.03937007874
  9
$DIMLFAC
 40
1.0
  9
$DIMTOFL
 70
1
  9
$DIMTVP
 40
0.0
  9
$DIMTIX
 70
0
  9
$DIMSOXD
 70
0
  9
$DIMSAH
 70
0
  9
$DIMBLK1
  1

  9
$DIMBLK2
  1

  9
$DIMSTYLE
  2
ISO-25
  9
$DIMCLRD
 70
0
  9
$DIMCLRE
 70
0
  9
$DIMCLRT
 70
0
  9
$DIMTFAC
 40
1.0
  9
$DIMGAP
 40
0.625
  9
$DIMJUST
 70
0
  9
$DIMSD1
 70
0
  9
$DIMSD2
 70
0
  9
$DIMTOLJ
 70
0
  9
$DIMTZIN
 70
8
  9
$DIMALTZ
 70
0
  9
$DIMALTTZ
 70
0
  9
$DIMUPT
 70
0
  9
$DIMDEC
 70
2
  9
$DIMTDEC
 70
2
  9
$DIMALTU
 70
2
  9
$DIMALTTD
 70
3
  9
$DIMTXSTY
  7
Standard
  9
$DIMAUNIT
 70
0
  9
$DIMADEC
 70
0
  9
$DIMALTRND
 40
0.0
  9
$DIMAZIN
 70
0
  9
$DIMDSEP
 70
44
  9
$DIMATFIT
 70
3
  9
$DIMFRAC
 70
0
  9
$DIMLDRBLK
  1

  9
$DIMLUNIT
 70
2
  9
$DIMLWD
 70
-2
  9
$DIMLWE
 70
-2
  9
$DIMTMOVE
 70
0
  9
$DIMFXL
 40
1.0
  9
$DIMFXLON
 70
0
  9
$DIMJOGANG
 40
0.785398163397
  9
$DIMTFILL
 70
0
  9
$DIMTFILLCLR
 70
0
  9
$DIMARCSYM
 70
0
  9
$DIMLTYPE
  6

  9
$DIMLTEX1
  6

  9
$DIMLTEX2
  6

  9
$DIMTXTDIRECTION
 70
0
  9
$LUNITS
 70
2
  9
$LUPREC
 70
4
  9
$SKETCHINC
 40
1.0
  9
$FILLETRAD
 40
10.0
  9
$AUNITS
 70
0
  9
$AUPREC
 70
2
  9
$MENU
  1
.
  9
$ELEVATION
 40
0.0
  9
$PELEVATION
 40
0.0
  9
$THICKNESS
 40
0.0
  9
$LIMCHECK
 70
0
  9
$CHAMFERA
 40
0.0
  9
$CHAMFERB
 40
0.0
  9
$CHAMFERC
 40
0.0
  9
$CHAMFERD
 40
0.0
  9
$SKPOLY
 70
0
  9
$TDCREATE
 40
2461230.628125
  9
$TDUCREATE
 40
2458532.153996898
  9
$TDUPDATE
 40
2461230.628125
  9
$TDUUPDATE
 40
2458532.1544311
  9
$TDINDWG
 40
0.0
  9
$TDUSRTIMER
 40
0.0
  9
$USRTIMER
 70
1
  9
$ANGBASE
 50
0.0
  9
$ANGDIR
 70
0
  9
$PDMODE
 70
0
  9
$PDSIZE
 40
0.0
  9
$PLINEWID
 40
0.0
  9
$SPLFRAME
 70
0
  9
$SPLINETYPE
 70
6
  9
$SPLINESEGS
 70
8
  9
$HANDSEED
  5
63
  9
$SURFTAB1
 70
6
  9
$SURFTAB2
 70
6
  9
$SURFTYPE
 70
6
  9
$SURFU
 70
6
  9
$SURFV
 70
6
  9
$UCSBASE
  2

  9
$UCSNAME
  2

  9
$UCSORG
 10
0.0
 20
0.0
 30
0.0
  9
$UCSXDIR
 10
1.0
 20
0.0
 30
0.0
  9
$UCSYDIR
 10
0.0
 20
1.0
 30
0.0
  9
$UCSORTHOREF
  2

  9
$UCSORTHOVIEW
 70
0
  9
$UCSORGTOP
 10
0.0
 20
0.0
 30
0.0
  9
$UCSORGBOTTOM
 10
0.0
 20
0.0
 30
0.0
  9
$UCSORGLEFT
 10
0.0
 20
0.0
 30
0.0
  9
$UCSORGRIGHT
 10
0.0
 20
0.0
 30
0.0
  9
$UCSORGFRONT
 10
0.0
 20
0.0
 30
0.0
  9
$UCSORGBACK
 10
0.0
 20
0.0
 30
0.0
  9
$PUCSBASE
  2

  9
$PUCSNAME
  2

  9
$PUCSORG
 10
0.0
 20
0.0
 30
0.0
  9
$PUCSXDIR
 10
1.0
 20
0.0
 30
0.0
  9
$PUCSYDIR
 10
0.0
 20
1.0
 30
0.0
  9
$PUCSORTHOREF
  2

  9
$PUCSORTHOVIEW
 70
0
  9
$PUCSORGTOP
 10
0.0
 20
0.0
 30
0.0
  9
$PUCSORGBOTTOM
 10
0.0
 20
0.0
 30
0.0
  9
$PUCSORGLEFT
 10
0.0
 20
0.0
 30
0.0
  9
$PUCSORGRIGHT
 10
0.0
 20
0.0
 30
0.0
  9
$PUCSORGFRONT
 10
0.0
 20
0.0
 30
0.0
  9
$PUCSORGBACK
 10
0.0
 20
0.0
 30
0.0
  9
$USERI1
 70
0
  9
$USERI2
 70
0
  9
$USERI3
 70
0
  9
$USERI4
 70
0
  9
$USERI5
 70
0
  9
$USERR1
 40
0.0
  9
$USERR2
 40
0.0
  9
$USERR3
 40
0.0
  9
$USERR4
 40
0.0
  9
$USERR5
 40
0.0
  9
$WORLDVIEW
 70
1
  9
$SHADEDGE
 70
3
  9
$SHADEDIF
 70
70
  9
$TILEMODE
 70
1
  9
$MAXACTVP
 70
64
  9
$PINSBASE
 10
0.0
 20
0.0
 30
0.0
  9
$PLIMCHECK
 70
0
  9
$PEXTMIN
 10
1e+20
 20
1e+20
 30
1e+20
  9
$PEXTMAX
 10
-1e+20
 20
-1e+20
 30
-1e+20
  9
$PLIMMIN
 10
0.0
 20
0.0
  9
$PLIMMAX
 10
420.0
 20
297.0
  9
$UNITMODE
 70
0
  9
$VISRETAIN
 70
1
  9
$PLINEGEN
 70
0
  9
$PSLTSCALE
 70
1
  9
$TREEDEPTH
 70
3020
  9
$CMLSTYLE
  2
Standard
  9
$CMLJUST
 70
0
  9
$CMLSCALE
 40
20.0
  9
$PROXYGRAPHICS
 70
1
  9
$MEASUREMENT
 70
1
  9
$CELWEIGHT
370
-1
  9
$ENDCAPS
280
0
  9
$JOINSTYLE
280
0
  9
$LWDISPLAY
290
0
  9
$INSUNITS
 70
4
  9
$HYPERLINKBASE
  1

  9
$STYLESHEET
  1

  9
$XEDIT
290
1
  9
$CEPSNTYPE
380
0
  9
$PSTYLEMODE
290
1
  9
$FINGERPRINTGUID
  2
{24104F5C-4B0C-4C2C-8DB4-0EDACA926FE8}
  9
$VERSIONGUID
  2
{59676862-C2CF-4884-893D-94C7331E501F}
  9
$EXTNAMES
290
1
  9
$PSVPSCALE
 40
0.0
  9
$OLESTARTUP
290
0
  9
$SORTENTS
280
127
  9
$INDEXCTL
280
0
  9
$HIDETEXT
280
1
  9
$XCLIPFRAME
280
1
  9
$HALOGAP
280
0
  9
$OBSCOLOR
 70
257
  9
$OBSLTYPE
280
0
  9
$INTERSECTIONDISPLAY
280
0
  9
$INTERSECTIONCOLOR
 70
257
  9
$DIMASSOC
280
2
  9
$PROJECTNAME
  1

  9
$CAMERADISPLAY
290
0
  9
$LENSLENGTH
 40
50.0
  9
$CAMERAHEIGHT
 40
0.0
  9
$STEPSPERSEC
 40
24.0
  9
$STEPSIZE
 40
100.0
  9
$3DDWFPREC
 40
2.0
  9
$PSOLWIDTH
 40
0.005
  9
$PSOLHEIGHT
 40
0.08
  9
$LOFTANG1
 40
1.570796326795
  9
$LOFTANG2
 40
1.570796326795
  9
$LOFTMAG1
 40
0.0
  9
$LOFTMAG2
 40
0.0
  9
$LOFTPARAM
 70
7
  9
$LOFTNORMALS
280
1
  9
$LATITUDE
 40
37.795
  9
$LONGITUDE
 40
-122.394
  9
$NORTHDIRECTION
 40
0.0
  9
$TIMEZONE
 70
-8000
  9
$LIGHTGLYPHDISPLAY
280
1
  9
$TILEMODELIGHTSYNCH
280
1
  9
$CMATERIAL
347
20
  9
$SOLIDHIST
280
0
  9
$SHOWHIST
280
1
  9
$DWFFRAME
280
2
  9
$DGNFRAME
280
2
  9
$REALWORLDSCALE
290
1
  9
$INTERFERECOLOR
 62
256
  9
$CSHADOW
280
0
  9
$SHADOWPLANELOCATION
 40
0.0
  0
ENDSEC
  0
SECTION
  2
CLASSES
  0
CLASS
  1
ACDBDICTIONARYWDFLT
  2
AcDbDictionaryWithDefault
  3
ObjectDBX Classes
 90
0
 91
0
280
0
281
0
  0
CLASS
  1
SUN
  2
AcDbSun
  3
SCENEOE
 90
1153
 91
0
280
0
281
0
  0
CLASS
  1
VISUALSTYLE
  2
AcDbVisualStyle
  3
ObjectDBX Classes
 90
4095
 91
0
280
0
281
0
  0
CLASS
  1
MATERIAL
  2
AcDbMaterial
  3
ObjectDBX Classes
 90
1153
 91
0
280
0
281
0
  0
CLASS
  1
SCALE
  2
AcDbScale
  3
ObjectDBX Classes
 90
1153
 91
0
280
0
281
0
  0
CLASS
  1
TABLESTYLE
  2
AcDbTableStyle
  3
ObjectDBX Classes
 90
4095
 91
0
280
0
281
0
  0
CLASS
  1
MLEADERSTYLE
  2
AcDbMLeaderStyle
  3
ACDB_MLEADERSTYLE_CLASS
 90
4095
 91
0
280
0
281
0
  0
CLASS
  1
DICTIONARYVAR
  2
AcDbDictionaryVar
  3
ObjectDBX Classes
 90
0
 91
0
280
0
281
0
  0
CLASS
  1
CELLSTYLEMAP
  2
AcDbCellStyleMap
  3
ObjectDBX Classes
 90
1152
 91
0
280
0
281
0
  0
CLASS
  1
MENTALRAYRENDERSETTINGS
  2
AcDbMentalRayRenderSettings
  3
SCENEOE
 90
1024
 91
0
280
0
281
0
  0
CLASS
  1
ACDBDETAILVIEWSTYLE
  2
AcDbDetailViewStyle
  3
ObjectDBX Classes
 90
1025
 91
0
280
0
281
0
  0
CLASS
  1
ACDBSECTIONVIEWSTYLE
  2
AcDbSectionViewStyle
  3
ObjectDBX Classes
 90
1025
 91
0
280
0
281
0
  0
CLASS
  1
RASTERVARIABLES
  2
AcDbRasterVariables
  3
ISM
 90
0
 91
0
280
0
281
0
  0
CLASS
  1
ACDBPLACEHOLDER
  2
AcDbPlaceHolder
  3
ObjectDBX Classes
 90
0
 91
0
280
0
281
0
  0
CLASS
  1
LAYOUT
  2
AcDbLayout
  3
ObjectDBX Classes
 90
0
 91
0
280
0
281
0
  0
ENDSEC
  0
SECTION
  2
TABLES
  0
TABLE
  2
VPORT
  5
8
330
0
100
AcDbSymbolTable
 70
1
  0
VPORT
  5
23
330
8
100
AcDbSymbolTableRecord
100
AcDbViewportTableRecord
  2
*Active
 70
0
 10
0.0
 20
0.0
 11
1.0
 21
1.0
 12
0.0
 22
0.0
 13
0.0
 23
0.0
 14
0.5
 24
0.5
 15
0.5
 25
0.5
 16
0.0
 26
0.0
 36
1.0
 17
0.0
 27
0.0
 37
0.0
 40
1000.0
 41
1.34
 42
50.0
 43
0.0
 44
0.0
 50
0.0
 51
0.0
 71
0
 72
1000
 73
1
 74
3
 75
0
 76
0
 77
0
 78
0
281
0
 65
0
146
0.0
  0
ENDTAB
  0
TABLE
  2
LTYPE
  5
2
330
0
100
AcDbSymbolTable
 70
3
  0
LTYPE
  5
24
330
2
100
AcDbSymbolTableRecord
100
AcDbLinetypeTableRecord
  2
ByBlock
 70
0
  3

 72
65
 73
0
 40
0.0
  0
LTYPE
  5
25
330
2
100
AcDbSymbolTableRecord
100
AcDbLinetypeTableRecord
  2
ByLayer
 70
0
  3

 72
65
 73
0
 40
0.0
  0
LTYPE
  5
26
330
2
100
AcDbSymbolTableRecord
100
AcDbLinetypeTableRecord
  2
Continuous
 70
0
  3

 72
65
 73
0
 40
0.0
  0
ENDTAB
  0
TABLE
  2
LAYER
  5
1
330
0
100
AcDbSymbolTable
 70
3
  0
LAYER
  5
27
330
1
100
AcDbSymbolTableRecord
100
AcDbLayerTableRecord
  2
0
 70
0
 62
7
  6
Continuous
370
-3
390
13
347
21
  0
LAYER
  5
28
330
1
100
AcDbSymbolTableRecord
100
AcDbLayerTableRecord
  2
Defpoints
 70
0
 62
7
  6
Continuous
290
0
370
-3
390
13
347
21
  0
LAYER
  5
2F
330
1
100
AcDbSymbolTableRecord
100
AcDbLayerTableRecord
  2
Y
 70
0
 62
7
  6
Continuous
370
-3
390
13
347
21
  0
ENDTAB
  0
TABLE
  2
STYLE
  5
5
330
0
100
AcDbSymbolTable
 70
1
  0
STYLE
  5
29
330
5
100
AcDbSymbolTableRecord
100
AcDbTextStyleTableRecord
  2
Standard
 70
0
 40
0.0
 41
1.0
 50
0.0
 71
0
 42
2.5
  3
txt
  4

  0
ENDTAB
  0
TABLE
  2
VIEW
  5
7
330
0
100
AcDbSymbolTable
 70
0
  0
ENDTAB
  0
TABLE
  2
UCS
  5
6
330
0
100
AcDbSymbolTable
 70
0
  0
ENDTAB
  0
TABLE
  2
APPID
  5
3
330
0
100
AcDbSymbolTable
 70
3
  0
APPID
  5
2A
330
3
100
AcDbSymbolTableRecord
100
AcDbRegAppTableRecord
  2
ACAD
 70
0
  0
APPID
  5
60
330
3
100
AcDbSymbolTableRecord
100
AcDbRegAppTableRecord
  2
HATCHBACKGROUNDCOLOR
 70
0
  0
APPID
  5
61
330
3
100
AcDbSymbolTableRecord
100
AcDbRegAppTableRecord
  2
EZDXF
 70
0
  0
ENDTAB
  0
TABLE
  2
DIMSTYLE
  5
4
330
0
100
AcDbSymbolTable
 70
1
100
AcDbDimStyleTable
  0
DIMSTYLE
105
2B
330
4
100
AcDbSymbolTableRecord
100
AcDbDimStyleTableRecord
  2
Standard
 70
0
 40
1.0
 41
2.5
 42
0.625
 43
3.75
 44
1.25
 45
0.0
 46
0.0
 47
0.0
 48
0.0
 49
2.5
140
2.5
141
2.5
142
0.0
143
0.03937007874
144
1.0
145
0.0
146
1.0
147
0.625
148
0.0
 69
0
 70
0
 71
0
 72
0
 73
0
 74
0
 75
0
 76
0
 77
1
 78
8
 79
3
170
0
171
3
172
1
173
0
174
0
175
0
176
0
177
0
178
0
179
2
271
2
272
2
273
2
274
3
275
0
276
0
277
2
278
44
279
0
280
0
281
0
282
0
283
0
284
8
285
0
286
0
288
0
289
3
290
0
371
-2
372
-2
  0
ENDTAB
  0
TABLE
  2
BLOCK_RECORD
  5
9
330
0
100
AcDbSymbolTable
 70
2
  0
BLOCK_RECORD
  5
17
330
9
100
AcDbSymbolTableRecord
100
AcDbBlockTableRecord
  2
*Model_Space
340
1A
 70
0
280
1
281
0
  0
BLOCK_RECORD
  5
1B
330
9
100
AcDbSymbolTableRecord
100
AcDbBlockTableRecord
  2
*Paper_Space
340
1E
 70
0
280
1
281
0
  0
ENDTAB
  0
ENDSEC
  0
SECTION
  2
BLOCKS
  0
BLOCK
  5
18
330
17
100
AcDbEntity
  8
0
100
AcDbBlockBegin
  2
*Model_Space
 70
0
 10
0.0
 20
0.0
 30
0.0
  3
*Model_Space
  1

  0
ENDBLK
  5
19
330
17
100
AcDbEntity
  8
0
100
AcDbBlockEnd
  0
BLOCK
  5
1C
330
1B
100
AcDbEntity
  8
0
100
AcDbBlockBegin
  2
*Paper_Space
 70
0
 10
0.0
 20
0.0
 30
0.0
  3
*Paper_Space
  1

  0
ENDBLK
  5
1D
330
1B
100
AcDbEntity
  8
0
100
AcDbBlockEnd
  0
ENDSEC
  0
SECTION
  2
ENTITIES
  0
LWPOLYLINE
  5
30
330
17
100
AcDbEntity
  8
Y
100
AcDbPolyline
 90
40
 70
1
 10
477.91017887542955
 20
647.3684571924701
 10
471.4201359223567
 20
649.9825022707912
 10
480.02256406590294
 20
670.7717036176949
 10
480.02256406590294
 20
681.2048939956419
 10
542.1800379016089
 20
683.7947887387963
 10
544.3131078343338
 20
696.6820862490093
 10
561.4511354944743
 20
722.5676488606799
 10
561.4511354944743
 20
732.914560760552
 10
570.0378886039994
 20
753.6658807752375
 10
593.6529056177956
 20
777.0125453229679
 10
602.2978573374088
 20
777.0125453229679
 10
613.0751327190791
 20
769.1990206712569
 10
617.3621703747397
 20
722.5774861659484
 10
621.6511354944744
 20
717.3949866462691
 10
621.6511354944744
 20
691.4833255617203
 10
628.0503425601543
 20
673.4411167515393
 10
640.8838948162212
 20
673.4411167515393
 10
645.1696091019355
 20
668.2625453229678
 10
718.0267519590784
 20
668.2625453229678
 10
722.3124662447926
 20
663.0839738943963
 10
730.8899059776662
 20
663.0839738943963
 10
750.2312297785711
 20
634.5197040217637
 10
748.0558559503319
 20
626.6339738943965
 10
735.1578319877142
 20
626.6339738943965
 10
709.4574151468936
 20
605.9308603281796
 10
679.4674309658529
 20
595.5771753132967
 10
670.8838948162212
 20
585.2054024658249
 10
649.3414345252278
 20
585.2054024658249
 10
645.0557202395136
 20
595.5625453229678
 10
636.513948489529
 20
595.5625453229678
 10
621.4605287054861
 20
608.555080255624
 10
610.7562843039904
 20
657.7054024658249
 10
572.3124662447926
 20
657.7054024658249
 10
561.6418365173872
 20
644.8117248785435
 10
557.3512274211093
 20
629.2582669045363
 10
548.7797988496808
 20
624.079695475965
 10
544.4989793745301
 20
608.5617248785435
 10
525.1287634844002
 20
585.1560473446366
 10
497.18500175245526
 20
613.7267524487725
 10
477.91017887542955
 20
647.3684571924701
  0
LWPOLYLINE
  5
31
330
17
100
AcDbEntity
  8
Y
100
AcDbPolyline
 90
16
 70
1
 10
634.3082783516172
 20
437.7446283978269
 10
647.1654212087601
 20
458.4589141121126
 10
647.1654212087601
 20
473.9967877098512
 10
666.5045282988456
 20
502.5577838290052
 10
696.6045934368512
 20
497.3619392516113
 10
700.8838948162213
 20
492.19111675153925
 10
713.7183493963031
 20
492.19111675153925
 10
728.8359562755612
 20
484.36235604620913
 10
715.9368497801886
 20
463.5804622481089
 10
715.9368497801886
 20
453.2233193909659
 10
703.0709178808671
 20
432.49487355317007
 10
694.4791078016104
 20
406.5404472720826
 10
649.3732938159101
 20
409.1358214895138
 10
638.6124026547674
 20
416.9374675813422
 10
634.3082783516172
 20
427.33910131395515
 10
634.3082783516172
 20
437.7446283978269
  0
LWPOLYLINE
  5
32
330
17
100
AcDbEntity
  8
Y
100
AcDbPolyline
 90
27
 70
1
 10
493.0500896226718
 20
199.59327876026506
 10
512.2489527549536
 20
197.01565361750494
 10
533.6667451419686
 20
207.36758660456223
 10
561.4511354944743
 20
209.9501100668144
 10
561.4511354944743
 20
251.2515325710951
 10
557.161086356837
 20
256.4353419457402
 10
559.3200562758886
 20
274.69662917771797
 10
645.1719263100576
 20
269.5097453631535
 10
649.4580418621429
 20
264.3306890710504
 10
685.9657140674807
 20
261.73578099763193
 10
681.6426259177664
 20
246.0645864549177
 10
647.36542120876
 20
199.46901130361223
 10
647.36542120876
 20
194.28442278903162
 10
602.3094752143932
 20
145.02683103725354
 10
563.741037673364
 20
145.02683103725354
 10
559.4553233876497
 20
139.84825960868213
 10
542.3124662447925
 20
139.84825960868213
 10
538.0267519590782
 20
134.66968818011065
 10
499.4553233876496
 20
134.66968818011065
 10
495.17465435876875
 20
129.49721310354613
 10
475.7368497801886
 20
126.88750785919972
 10
475.7368497801886
 20
178.73568646336264
 10
424.30537788496713
 20
214.9877308895083
 10
426.45650065173936
 20
253.97683103725356
 10
478.0624161423875
 20
253.97683103725356
 10
484.5045864792039
 20
220.24491135697932
 10
493.0500896226718
 20
199.59327876026506
  0
LWPOLYLINE
  5
33
330
17
100
AcDbEntity
  8
Y
100
AcDbPolyline
 90
12
 70
1
 10
490.74397754158804
 20
906.3106512387004
 10
488.5896577854085
 20
924.5326058430526
 10
497.16542120876005
 20
934.8949866462691
 10
497.16542120876005
 20
945.294828789072
 10
529.3524500264381
 20
953.0733607533442
 10
533.6469476012988
 20
958.262545322968
 10
559.4702727924919
 20
958.262545322968
 10
578.7939926373315
 20
919.3467206354434
 10
578.7939926373315
 20
903.8110063497293
 10
591.6752049459494
 20
877.8696760059845
 10
576.566753017842
 20
864.8296430918442
 10
490.74397754158804
 20
906.3106512387004
  0
LWPOLYLINE
  5
34
330
17
100
AcDbEntity
  8
Y
100
AcDbPolyline
 90
22
 70
1
 10
462.87970692304583
 20
365.2521295034119
 10
462.87970692304583
 20
385.9502750462663
 10
471.46696481608643
 20
406.7028149544476
 10
490.7972338640825
 20
424.8696881801107
 10
508.014974844857
 20
424.8696881801107
 10
520.872117702
 20
414.51254532296787
 10
538.0053615917267
 20
414.51254532296787
 10
561.6511354944744
 20
401.5252831415345
 10
561.6511354944744
 20
391.14498664626916
 10
565.9666534369109
 20
385.930402465825
 10
559.4553233876497
 20
378.0625453229679
 10
550.8838948162212
 20
378.0625453229679
 10
542.3124662447925
 20
367.70540246582505
 10
533.7410376733638
 20
367.70540246582505
 10
525.1696091019353
 20
357.3482596086822
 10
516.5915675361641
 20
357.3482596086822
 10
495.15252732336546
 20
336.62385406964336
 10
484.35245002643813
 20
339.23387274973413
 10
477.93266188701324
 20
346.99111675153927
 10
465.0605696250284
 20
346.99111675153927
 10
458.5755352577554
 20
360.05125540785275
 10
462.87970692304583
 20
365.2521295034119
  0
LWPOLYLINE
  5
35
330
17
100
AcDbEntity
  8
Y
100
AcDbPolyline
 90
21
 70
1
 10
325.73684978018855
 20
354.79144490345016
 10
325.73684978018855
 20
385.9131936556439
 10
312.8797069230458
 20
422.1631936556439
 10
312.8797069230458
 20
437.7619031546172
 10
327.9425199181004
 20
450.76254532296787
 10
362.31246624479263
 20
450.76254532296787
 10
366.59818053050685
 20
445.5839738943964
 10
379.50161932991887
 20
445.5839738943964
 10
383.79018047982163
 20
383.3998372208083
 10
392.29328431072986
 20
378.26254532296787
 10
409.4553233876497
 20
378.26254532296787
 10
418.02675195907824
 20
367.90540246582503
 10
435.14821873458385
 20
367.90540246582503
 10
458.8407307855059
 20
354.8924697105837
 10
405.16747536986395
 20
279.66045670299224
 10
360.04303596715084
 20
287.4497944570319
 10
355.7442838657818
 20
303.0327708244943
 10
342.87970692304583
 20
323.75903367668025
 10
342.87970692304583
 20
334.1173418418358
 10
332.19659740479824
 20
352.18960211020453
 10
325.73684978018855
 20
354.79144490345016
  0
LWPOLYLINE
  5
36
330
17
100
AcDbEntity
  8
Y
100
AcDbPolyline
 90
11
 70
1
 10
293.77558261989554
 20
124.47690877887922
 10
304.5082783516172
 20
116.69570437338105
 10
304.5082783516172
 20
90.7008148439832
 10
293.72355677045726
 20
82.88189169764227
 10
252.9611056512865
 20
85.47424056267725
 10
212.17676280831924
 20
98.44294607195413
 10
210.0149235888161
 20
111.50405802311907
 10
259.4109709293786
 20
155.62045537619383
 10
280.87728182187846
 20
134.86968818011064
 10
289.47512217800676
 20
134.86968818011064
 10
293.77558261989554
 20
124.47690877887922
  0
LWPOLYLINE
  5
37
330
17
100
AcDbEntity
  8
Y
100
AcDbPolyline
 90
37
 70
1
 10
32.205225741948205
 20
336.62551179612154
 10
21.451135494474276
 20
360.0156580843773
 10
21.451135494474276
 20
375.5497985819208
 10
8.538065874637041
 20
401.55528601075974
 10
45.09632845721259
 20
404.153789968835
 10
66.58376555199999
 20
414.5393845646489
 10
92.33995582410672
 20
378.2303107782763
 10
107.35374586802762
 20
365.27198008560634
 10
109.49610769475318
 20
357.5059184637262
 10
122.25130135586501
 20
347.2309013478304
 10
130.78238961014756
 20
357.5392996550886
 10
156.59003561593212
 20
362.73667280903123
 10
160.8838948162211
 20
357.5482596086822
 10
173.7292605591428
 20
357.5482596086822
 10
186.53701564157936
 20
347.2309013478304
 10
195.07551902987032
 20
357.5482596086822
 10
203.6469476012989
 20
357.5482596086822
 10
212.21837617272746
 20
367.90540246582503
 10
220.78980474415602
 20
367.90540246582503
 10
229.36123331558457
 20
378.26254532296787
 10
237.9326618870132
 20
378.26254532296787
 10
242.24908208492454
 20
383.4782197287774
 10
287.38971765200347
 20
349.7123078065775
 10
250.89505189387296
 20
269.29881634442233
 10
225.07886329215103
 20
274.4979098822691
 10
212.2301532869486
 20
284.8482596086822
 10
190.87728182187843
 20
284.8482596086822
 10
169.44871039330698
 20
264.13397389439643
 10
160.8838948162211
 20
264.13397389439643
 10
156.5912289512569
 20
258.947002640898
 10
126.49767755209749
 20
264.1417228228957
 10
117.92387859786666
 20
274.50172989259136
 10
107.15869967467759
 20
277.1033147990286
 10
111.4540671617699
 20
329.0056719347274
 10
115.73074871866781
 20
334.17332881597906
 10
113.61106305510762
 20
346.97976303332166
 10
32.205225741948205
 20
336.62551179612154
  0
LWPOLYLINE
  5
38
330
17
100
AcDbEntity
  8
Y
100
AcDbPolyline
 90
16
 70
1
 10
107.16542120876002
 20
447.98578828248014
 10
107.16542120876002
 20
458.4079492202741
 10
90.00985126603226
 20
494.6848314950004
 10
109.35032239444712
 20
528.4411167515393
 10
122.29328431072992
 20
528.4411167515393
 10
139.4361414535871
 20
518.0839738943964
 10
156.581587716955
 20
518.0839738943964
 10
175.93684978018857
 20
505.09085815750353
 10
175.93684978018857
 20
463.6288464748377
 10
180.2379807092998
 20
453.2344467294855
 10
173.741037673364
 20
445.38397389439643
 10
160.88389481622116
 20
445.38397389439643
 10
152.30551466554263
 20
435.0184312123265
 10
137.22552616427322
 20
437.6215244655218
 10
126.51284637780694
 20
445.3882173107099
 10
107.16542120876002
 20
447.98578828248014
  0
LWPOLYLINE
  5
39
330
17
100
AcDbEntity
  8
Y
100
AcDbPolyline
 90
26
 70
1
 10
83.66155650868271
 20
574.8482596086822
 10
66.51586757266284
 20
574.8482596086822
 10
53.658724715519995
 20
585.2054024658249
 10
36.51586757266287
 20
585.2054024658249
 10
23.658724715520023
 20
595.5625453229678
 10
10.804413651539807
 20
595.5625453229678
 10
0.0
 20
603.3957452203342
 10
8.593992637331432
 20
624.1645607605519
 10
8.593992637331432
 20
639.7164152176977
 10
17.176395671467144
 20
650.086818883945
 10
25.74563882236744
 20
675.9730742356229
 10
38.62628285360067
 20
696.7252229526099
 10
45.05485428217212
 20
699.3145086668954
 10
57.902148928248714
 20
720.012927818908
 10
75.0839928736153
 20
735.5839738943963
 10
83.64694760129885
 20
735.5839738943963
 10
87.96246732376864
 20
740.798560225714
 10
98.79399263733143
 20
732.945704373381
 10
98.79399263733143
 20
712.2164152176977
 10
103.07970692304572
 20
707.0378437891262
 10
103.07970692304572
 20
650.052266266643
 10
120.22256406590284
 20
593.0879805523571
 10
120.22256406590284
 20
577.5015325710951
 10
109.44837180839976
 20
564.4827169266123
 10
94.36838330713034
 20
567.0858101798075
 10
83.66155650868271
 20
574.8482596086822
  0
LWPOLYLINE
  5
3A
330
17
100
AcDbEntity
  8
Y
100
AcDbPolyline
 90
14
 70
1
 10
1831.4492179027561
 20
613.777216509734
 10
1833.6051188461927
 20
632.0125453229678
 10
1846.5981805305069
 20
632.0125453229678
 10
1855.1866253097312
 20
621.6348412147385
 10
1885.1828188651536
 20
606.1010981235376
 10
1913.0692430887482
 20
577.5890169462084
 10
1915.205808931306
 20
569.8439657669362
 10
1921.6343803598777
 20
567.2546800526505
 10
1923.7772375027344
 20
559.4868229097933
 10
1930.2343182110044
 20
556.8860542911847
 10
1928.0632289008458
 20
543.7690563756431
 10
1840.022564065903
 20
551.5531395470252
 10
1840.022564065903
 20
587.8785666418945
 10
1831.4492179027561
 20
613.777216509734
  0
LWPOLYLINE
  5
3B
330
17
100
AcDbEntity
  8
Y
100
AcDbPolyline
 90
15
 70
1
 10
1910.832890012221
 20
300.60707453613253
 10
1930.2225640659028
 20
287.59085815750353
 10
1930.2225640659028
 20
271.97607484773266
 10
1913.079706923046
 20
240.90464627630405
 10
1913.079706923046
 20
230.54258865037013
 10
1893.7452909366066
 20
201.98852059632355
 10
1786.4739900648858
 20
207.17330013845665
 10
1784.291736673268
 20
215.08396868307184
 10
1792.8939007106962
 20
220.28110945568486
 10
1797.173765447292
 20
235.79561912584379
 10
1825.0805695828142
 20
274.70414412248533
 10
1846.6069638196532
 20
269.5019321819159
 10
1850.8838948162208
 20
264.33397389439637
 10
1863.6599906554807
 20
264.33397389439637
 10
1910.832890012221
 20
300.60707453613253
  0
LWPOLYLINE
  5
3C
330
17
100
AcDbEntity
  8
Y
100
AcDbPolyline
 90
27
 70
1
 10
1792.8797069230457
 20
427.33321770487555
 10
1784.3082783516172
 20
442.8689319905897
 10
1784.3082783516172
 20
453.2106122295262
 10
1758.5702379585043
 20
479.1273890142578
 10
1775.7622244846737
 20
510.28786459293894
 10
1784.3302603477016
 20
515.4643862601852
 10
1795.0584779791948
 20
538.7982596086821
 10
1829.486857321997
 20
538.7982596086821
 10
1840.2107206752862
 20
494.7410543322526
 10
1870.2225640659028
 20
474.0185910387316
 10
1870.2225640659028
 20
458.3943897139523
 10
1865.9368497801886
 20
453.2158182853808
 10
1865.9368497801886
 20
411.8796768994556
 10
1874.559274237215
 20
406.6702954566688
 10
1865.9287887995222
 20
396.2417922194568
 10
1857.3573602280937
 20
359.9917922194568
 10
1848.8094092807282
 20
349.663018158057
 10
1857.3792870285495
 20
328.95248026748993
 10
1825.152742643161
 20
284.8200180952776
 10
1795.0510876622536
 20
300.4083751389617
 10
1784.3082783516172
 20
318.58162755612165
 10
1784.3082783516172
 20
329.0021295034119
 10
1792.8797069230457
 20
339.35927236055477
 10
1792.8797069230457
 20
349.7164152176976
 10
1801.4388081746501
 20
360.05866256338646
 10
1792.8797069230457
 20
385.91428092760884
 10
1792.8797069230457
 20
427.33321770487555
  0
LWPOLYLINE
  5
3D
330
17
100
AcDbEntity
  8
Y
100
AcDbPolyline
 90
21
 70
1
 10
1694.3457167352803
 20
660.3040085761388
 10
1683.6251688333698
 20
678.4396021102045
 10
1677.1890850815626
 20
681.0319136213491
 10
1664.3082783516172
 20
712.1605298853837
 10
1664.3082783516172
 20
722.501532571095
 10
1655.7307487186679
 20
732.8660475442422
 10
1657.8927938617098
 20
745.9284036167882
 10
1722.2934771520881
 20
756.3040692580158
 10
1735.1578319877142
 20
745.9411167515392
 10
1743.7410376733642
 20
745.9411167515392
 10
1752.3212495339392
 20
735.5733607533443
 10
1773.7341537063955
 20
730.3985755783341
 10
1801.7144473066044
 20
712.1934486525572
 10
1784.496953323903
 20
696.590094730734
 10
1782.3512274211096
 20
688.8118383331077
 10
1765.1504271678725
 20
678.4196881801107
 10
1756.5981805305069
 20
678.4196881801107
 10
1748.0323998934782
 20
668.0693699103676
 10
1713.746685607764
 20
662.8907984817962
 10
1709.4483718083998
 20
657.697002640898
 10
1694.3457167352803
 20
660.3040085761388
  0
LWPOLYLINE
  5
3E
330
17
100
AcDbEntity
  8
Y
100
AcDbPolyline
 90
19
 70
1
 10
1666.4605886576444
 20
450.7483941448308
 10
1696.4976775520975
 20
455.93336782303993
 10
1700.7898047441558
 20
461.11968818011076
 10
1722.2183761727274
 20
461.11968818011076
 10
1726.613968670421
 20
466.43102911482373
 10
1728.8000936988522
 20
453.223190401385
 10
1724.5046305759247
 20
448.03283912784775
 10
1720.2279698245952
 20
406.69178519832906
 10
1741.6511354944741
 20
391.15999008766676
 10
1741.6511354944741
 20
370.37341531347437
 10
1726.629704411879
 20
336.66460865788827
 10
1717.9994743139184
 20
331.4505113070373
 10
1702.926248980669
 20
334.05243710861
 10
1687.9107485259374
 20
352.19616682474384
 10
1655.7306530095912
 20
375.5267360740949
 10
1660.01822921398
 20
411.7924848028831
 10
1655.716402130624
 20
416.9905258619383
 10
1664.3112674986223
 20
432.5687193414355
 10
1666.4605886576444
 20
450.7483941448308
  0
LWPOLYLINE
  5
3F
330
17
100
AcDbEntity
  8
Y
100
AcDbPolyline
 90
9
 70
1
 10
1666.5040904584416
 20
616.4768310372535
 10
1675.090127937254
 20
616.4768310372535
 10
1696.5084372412246
 20
632.005105282632
 10
1718.028138457912
 20
637.2056997433316
 10
1728.7939926373315
 20
618.993463089814
 10
1728.7939926373315
 20
598.2224293052583
 10
1713.729820395389
 20
574.8191617150978
 10
1655.6790796863268
 20
603.3966096876146
 10
1666.5040904584416
 20
616.4768310372535
  0
LWPOLYLINE
  5
40
330
17
100
AcDbEntity
  8
Y
100
AcDbPolyline
 90
10
 70
1
 10
1653.7187583029656
 20
145.0161102384432
 10
1597.9226527773023
 20
160.57463966386842
 10
1591.4511354944743
 20
168.3943897139523
 10
1591.4511354944743
 20
194.36403263211216
 10
1619.4144777701142
 20
222.95475758701343
 10
1623.7410376733642
 20
217.72683103725348
 10
1653.7485500740179
 20
217.72683103725348
 10
1668.7939926373315
 20
194.35266134067734
 10
1668.7939926373315
 20
158.02747320560417
 10
1653.7187583029656
 20
145.0161102384432
  0
LWPOLYLINE
  5
41
330
17
100
AcDbEntity
  8
Y
100
AcDbPolyline
 90
16
 70
1
 10
1533.7474505797084
 20
637.1833678230399
 10
1563.7295739409026
 20
632.0078822428338
 10
1589.436141453587
 20
616.4768310372535
 10
1602.1806123904175
 20
616.4768310372535
 10
1604.3187962121322
 20
629.3950249601137
 10
1610.8913755853298
 20
632.0423138743182
 10
1615.2009952743153
 20
621.6273996259358
 10
1645.1866253097312
 20
606.0991269290241
 10
1651.6767559205064
 20
598.2568857743375
 10
1628.0377405809834
 20
564.4996555357009
 10
1598.0196019675323
 20
559.3179530369504
 10
1576.574353037332
 20
543.7701475625552
 10
1550.7976191906403
 20
548.9612953511249
 10
1531.452548444796
 20
561.9475696943999
 10
1529.3005814137618
 20
642.5566680652253
 10
1533.7474505797084
 20
637.1833678230399
  0
LWPOLYLINE
  5
42
330
17
100
AcDbEntity
  8
Y
100
AcDbPolyline
 90
9
 70
1
 10
1600.2152658640496
 20
442.93468438574155
 10
1604.5202638452226
 20
427.3290667039882
 10
1580.8692964883278
 20
403.94686033978513
 10
1529.3405033468666
 20
414.3241867363294
 10
1522.8797069230457
 20
427.33551286763526
 10
1522.8797069230457
 20
437.73800399013
 10
1533.618138928141
 20
461.09409360121236
 10
1576.589461687181
 20
481.86356626808157
 10
1600.2152658640496
 20
442.93468438574155
  0
LWPOLYLINE
  5
43
330
17
100
AcDbEntity
  8
Y
100
AcDbPolyline
 90
23
 70
1
 10
1411.4511354944743
 20
468.82355807484055
 10
1411.4511354944743
 20
479.1248155996694
 10
1402.8797069230457
 20
499.83910131395504
 10
1402.8797069230457
 20
525.6954137464801
 10
1394.3066556129195
 20
530.8749655796813
 10
1396.4557185832239
 20
606.1817138307613
 10
1426.5863815230302
 20
590.5783348083617
 10
1448.0558479124352
 20
585.3898804309221
 10
1454.4984277374822
 20
567.2253845353036
 10
1471.656210052073
 20
541.309984164307
 10
1467.361796813709
 20
515.3645708491915
 10
1450.2401588488267
 20
479.15944056928384
 10
1454.5082783516173
 20
474.00212950341205
 10
1454.5082783516173
 20
463.64498664626916
 10
1467.3654212087602
 20
448.1092723605549
 10
1467.3654212087602
 20
437.75212950341205
 10
1475.976339027406
 20
427.3472704725481
 10
1460.8699705195377
 20
414.309035748495
 10
1432.9431827521232
 20
416.904794867902
 10
1422.2271320920927
 20
424.6739315964242
 10
1402.8797069230457
 20
427.2715025681945
 10
1402.8797069230457
 20
458.4664152176977
 10
1411.4511354944743
 20
468.82355807484055
  0
LWPOLYLINE
  5
44
330
17
100
AcDbEntity
  8
Y
100
AcDbPolyline
 90
15
 70
1
 10
1383.646947601299
 20
202.19111675153928
 10
1387.9326618870132
 20
207.36968818011064
 10
1413.7196473060126
 20
207.36968818011064
 10
1437.3551829078285
 20
194.38804930790099
 10
1445.9418250212073
 20
147.69818281640474
 10
1426.5945905242345
 20
113.9300929767809
 10
1420.022564065903
 20
116.57715918916446
 10
1420.022564065903
 20
121.77892946567158
 10
1402.8958995161952
 20
137.29996921384435
 10
1394.328440950421
 20
158.00466074779794
 10
1385.7645629719539
 20
163.1786703597886
 10
1372.8904312806478
 20
183.92032697355927
 10
1368.5785759939345
 20
194.34064391645006
 10
1375.0755190298703
 20
202.19111675153928
 10
1383.646947601299
 20
202.19111675153928
  0
LWPOLYLINE
  5
45
330
17
100
AcDbEntity
  8
Y
100
AcDbPolyline
 90
19
 70
1
 10
1300.0052170371935
 20
396.3841303439353
 10
1388.0407859644258
 20
398.978674550124
 10
1394.5082783516173
 20
385.9538634925862
 10
1394.5082783516173
 20
370.43070093198327
 10
1405.177024235944
 20
357.5392996550886
 10
1430.912152053537
 20
352.3565308584899
 10
1437.36542120876
 20
334.16189699029184
 10
1437.36542120876
 20
287.4588332854349
 10
1426.6069638196532
 20
284.8588727497342
 10
1418.0169258064984
 20
274.4792434838387
 10
1407.1965973276908
 20
277.09415619955047
 10
1400.774855339314
 20
290.0268310372536
 10
1396.5040904584419
 20
290.0268310372536
 10
1366.5084672076625
 20
326.27154246527857
 10
1319.3550390105308
 20
321.0918098224118
 10
1308.5939926373314
 20
339.2959132704073
 10
1308.5939926373314
 20
365.1801039996666
 10
1304.314028587697
 20
370.35172722630807
 10
1300.0052170371935
 20
396.3841303439353
  0
LWPOLYLINE
  5
46
330
17
100
AcDbEntity
  8
Y
100
AcDbPolyline
 90
12
 70
1
 10
3118.6559649679034
 20
339.2283449781606
 10
3079.877952644164
 20
365.25988102881865
 10
3090.781021455009
 20
367.89478932477306
 10
3099.3612333155847
 20
378.26254532296787
 10
3112.218376172727
 20
378.26254532296787
 10
3120.789804744156
 20
388.6196881801107
 10
3129.3730104298056
 20
388.6196881801107
 10
3142.302654860733
 20
399.0352350828023
 10
3153.0797069230453
 20
375.5951468472727
 10
3153.0797069230453
 20
349.6270896312892
 10
3133.7164635329023
 20
336.62861605920233
 10
3118.6559649679034
 20
339.2283449781606
  0
LWPOLYLINE
  5
47
330
17
100
AcDbEntity
  8
Y
100
AcDbPolyline
 90
11
 70
1
 10
2964.351335857616
 20
629.2281212962833
 10
2947.14110257351
 20
655.2227444858187
 10
2949.3420513815217
 20
657.8822242954991
 10
2966.5164878569253
 20
668.2584463327222
 10
3000.7841568097556
 20
673.4342921641394
 10
3005.078329834324
 20
678.623084568826
 10
3041.7250990350244
 20
676.0182896991685
 10
3013.749049855765
 20
631.8125453229678
 10
2996.598180530507
 20
631.8125453229678
 10
2992.3087746392766
 20
626.6295132043983
 10
2964.351335857616
 20
629.2281212962833
  0
LWPOLYLINE
  5
48
330
17
100
AcDbEntity
  8
Y
100
AcDbPolyline
 90
13
 70
1
 10
2960.0225640659028
 20
339.35927236055477
 10
2964.308278351617
 20
344.5378437891262
 10
2964.308278351617
 20
360.09085815750353
 10
2983.7005807488795
 20
373.1088389334435
 10
3011.643738470631
 20
349.73331276236274
 10
3015.9310995441083
 20
323.83050627677034
 10
3020.252367722625
 20
318.60897389439646
 10
3009.4553233876495
 20
305.5625453229679
 10
2992.312466244792
 20
305.5625453229679
 10
2988.0223752098573
 20
300.3786853224214
 10
2964.357076407443
 20
302.9782825393533
 10
2960.0225640659028
 20
308.2158182853809
 10
2960.0225640659028
 20
339.35927236055477
  0
LWPOLYLINE
  5
49
330
17
100
AcDbEntity
  8
Y
100
AcDbPolyline
 90
15
 70
1
 10
2908.6124026547673
 20
137.29461043848505
 10
2904.2984977255396
 20
147.7198806841175
 10
2917.181002660622
 20
173.66381423393605
 10
2940.8368497801885
 20
202.24796283674524
 10
2945.169609101935
 20
197.0125453229678
 10
2958.038744820712
 20
197.0125453229678
 10
2966.6215035565174
 20
181.4562951143213
 10
2973.053952956199
 20
178.8654474394495
 10
2983.769487431677
 20
155.55915995528457
 10
3011.648079010831
 20
142.60276322779313
 10
3013.7982394610394
 20
98.43488397976795
 10
2964.332891908278
 20
90.63871507199568
 10
2953.61846644942
 20
134.65714633213565
 10
2919.3827293994996
 20
129.486123548554
 10
2908.6124026547673
 20
137.29461043848505
  0
LWPOLYLINE
  5
4A
330
17
100
AcDbEntity
  8
Y
100
AcDbPolyline
 90
16
 70
1
 10
2848.6082164454865
 20
271.9076755854972
 10
2844.314028587697
 20
297.8517272263081
 10
2839.9927604091804
 20
303.0732596086821
 10
2855.064762173064
 20
321.2852617400418
 10
2872.3001023444626
 20
326.49177075015166
 10
2876.5981805305064
 20
321.2982596086822
 10
2898.0121430516947
 20
321.2982596086822
 10
2908.8012503491414
 20
313.47615681803296
 10
2904.5160123452674
 20
282.40818128994715
 10
2932.3327388550897
 20
264.30947782362045
 10
2947.3697560606824
 20
246.1397487001955
 10
2943.067704345734
 20
209.75156127791783
 10
2910.8074768701867
 20
212.3503018245591
 10
2887.168258971337
 20
225.33396317051842
 10
2885.026995389912
 20
269.3190859056238
 10
2848.6082164454865
 20
271.9076755854972
  0
LWPOLYLINE
  5
4B
330
17
100
AcDbEntity
  8
Y
100
AcDbPolyline
 90
26
 70
1
 10
2730.7678913830805
 20
140.021780964049
 10
2752.232985080111
 20
155.58397389439637
 10
2765.1504271678723
 20
155.58397389439637
 10
2782.2932843107296
 20
145.22683103725353
 10
2790.789804744156
 20
145.22683103725353
 10
2801.4644928777275
 20
158.12541253198603
 10
2818.572029306551
 20
199.4686255683092
 10
2784.308278351617
 20
225.3448958207333
 10
2784.308278351617
 20
261.7399715841948
 10
2838.0705190639296
 20
264.3384798852899
 10
2840.2193132318826
 20
240.97034330880552
 10
2844.508278351617
 20
235.7878437891262
 10
2844.508278351617
 20
215.06330151248875
 10
2861.651135494474
 20
183.99187294106017
 10
2861.651135494474
 20
173.62884647483773
 10
2870.2418852616747
 20
152.8678678707689
 10
2853.068381895331
 20
137.3043804450198
 10
2850.9129988074747
 20
129.4911167515393
 10
2842.2183761727274
 20
129.4911167515393
 10
2837.932661887013
 20
134.66968818011065
 10
2795.2039922927643
 20
134.66968818011065
 10
2786.633303830605
 20
93.24469394634181
 10
2728.593992637331
 20
90.64725563676625
 10
2728.593992637331
 20
121.80338702824082
 10
2724.2928617082202
 20
132.19778677359295
 10
2730.7678913830805
 20
140.021780964049
  0
LWPOLYLINE
  5
4C
330
17
100
AcDbEntity
  8
Y
100
AcDbPolyline
 90
11
 70
1
 10
2750.0225640659028
 20
339.2872468568094
 10
2741.4644928777275
 20
349.628249542521
 10
2732.8642902796487
 20
370.4120724878787
 10
2735.07551902987
 20
373.0839738943964
 10
2752.2932843107296
 20
373.0839738943964
 10
2769.4467756019353
 20
362.7204062392928
 10
2801.651135494474
 20
354.9376859319293
 10
2801.651135494474
 20
344.4744846989788
 10
2790.8917196057682
 20
326.2731394872512
 10
2750.0225640659028
 20
328.87227437904096
 10
2750.0225640659028
 20
339.2872468568094
  0
LWPOLYLINE
  5
4D
330
17
100
AcDbEntity
  8
Y
100
AcDbPolyline
 90
11
 70
1
 10
2750.0632664916316
 20
422.08631468919634
 10
2737.1728552943528
 20
442.85419939592276
 10
2732.8658497581964
 20
458.46709446448943
 10
2745.7368497801885
 20
468.83540003776034
 10
2745.7368497801885
 20
474.00212950341205
 10
2773.6567737538785
 20
507.7387043049543
 10
2795.1783923910816
 20
502.5376464676301
 10
2801.651135494474
 20
494.7164152176977
 10
2801.651135494474
 20
437.66187730242757
 10
2773.718584727163
 20
419.4878138224144
 10
2750.0632664916316
 20
422.08631468919634
  0
LWPOLYLINE
  5
4E
330
17
100
AcDbEntity
  8
Y
100
AcDbPolyline
 90
31
 70
1
 10
4240.789804744155
 20
171.11968818011064
 10
4249.446849543904
 20
171.11968818011064
 10
4266.540783127722
 20
155.62831086977636
 10
4296.551135494474
 20
191.89081997960233
 10
4300.883894816221
 20
186.65540246582495
 10
4322.203426767885
 20
186.65540246582495
 10
4341.439485881186
 20
225.3946881801107
 10
4335.0555608585055
 20
238.25120385078625
 10
4305.069106123526
 20
243.42743710861004
 10
4298.589657785408
 20
251.25677051716877
 10
4302.883861672722
 20
287.57857839736647
 10
4305.100488409204
 20
290.25700237061557
 10
4330.903076750284
 20
274.66793858121355
 10
4339.430354008316
 20
264.3641452277584
 10
4365.215133878204
 20
279.9424497324825
 10
4367.3670014671725
 20
230.5391563357253
 10
4363.079706923046
 20
225.35867542823806
 10
4363.079706923046
 20
204.6652418780317
 10
4350.203990050991
 20
163.1768208458569
 10
4343.676941463573
 20
160.54787072036913
 10
4330.840673154076
 20
170.8881979696862
 10
4296.554958868362
 20
139.81676939825766
 10
4283.658724715519
 20
150.205402465825
 10
4266.6101733921405
 20
150.205402465825
 10
4240.8875406452535
 20
103.58313061209184
 10
4230.0726253034645
 20
106.19673515302404
 10
4208.6136909042625
 20
126.94037173891998
 10
4200.002116416337
 20
142.5488504982831
 10
4202.201359964931
 20
145.2062697861669
 10
4232.201359964932
 20
160.74198407188118
 10
4240.789804744155
 20
171.11968818011064
  0
LWPOLYLINE
  5
4F
330
17
100
AcDbEntity
  8
Y
100
AcDbPolyline
 90
9
 70
1
 10
4245.193199703011
 20
243.6196881801107
 10
4251.651135494474
 20
225.41189699029175
 10
4251.651135494474
 20
204.6530561275502
 10
4240.886771867855
 20
186.44334099251913
 10
4215.081486874693
 20
191.6402386647531
 10
4204.299524242638
 20
199.45716157299282
 10
4208.601774488667
 20
225.44992347608388
 10
4232.231419226909
 20
243.6196881801107
 10
4245.193199703011
 20
243.6196881801107
  0
LWPOLYLINE
  5
50
330
17
100
AcDbEntity
  8
Y
100
AcDbPolyline
 90
37
 70
1
 10
4095.06607777581
 20
295.1888729081863
 10
4073.7498209625096
 20
290.0374441783056
 10
4069.4553233876486
 20
284.8482596086822
 10
4047.9518438210757
 20
284.8482596086822
 10
4030.808986678219
 20
295.20540246582505
 10
4013.6469476012985
 20
295.20540246582505
 10
4007.135617552037
 20
303.0732596086821
 10
4011.4511354944734
 20
308.2878437891262
 10
4011.4511354944734
 20
328.98598933198065
 10
4015.7675176983903
 20
339.4172463247792
 10
4043.6434136350617
 20
342.0082751137646
 10
4052.2183761727265
 20
352.3696881801107
 10
4073.7218557393007
 20
352.3696881801107
 10
4090.828638011426
 20
342.03434055736847
 10
4103.65029186358
 20
352.3628950493809
 10
4129.347823190785
 20
357.5380923305543
 10
4146.4974117729535
 20
383.44111675153925
 10
4159.4553233876495
 20
383.44111675153925
 10
4168.026751959077
 20
373.0839738943964
 10
4176.586403416286
 20
373.0839738943964
 10
4189.385508245168
 20
362.7735838933515
 10
4206.491585176366
 20
388.61088759151505
 10
4236.497677552097
 20
393.79051068018276
 10
4240.8064115837515
 20
398.99689763509815
 10
4247.390621110917
 20
396.34492435332305
 10
4232.338505971483
 20
352.1741340929611
 10
4191.651135494473
 20
349.5865600933267
 10
4191.651135494473
 20
339.2872468568094
 10
4187.395224865481
 20
334.1446881801107
 10
4217.395224865481
 20
297.8946881801108
 10
4215.1931633303775
 20
295.2338638251929
 10
4202.30640611866
 20
284.85286496019825
 10
4163.7599378967425
 20
279.67764468966294
 10
4150.895904579207
 20
253.7709109251831
 10
4122.937257587774
 20
256.36963131861756
 10
4105.754538768893
 20
271.94147024822877
 10
4095.06607777581
 20
295.1888729081863
  0
LWPOLYLINE
  5
51
330
17
100
AcDbEntity
  8
Y
100
AcDbPolyline
 90
21
 70
1
 10
4054.3114491183496
 20
75.24882697020364
 10
4056.462261703335
 20
93.44111675153928
 10
4099.470272792491
 20
93.44111675153928
 10
4112.334245089829
 20
67.53450587495662
 10
4133.74982096251
 20
62.35907503905867
 10
4138.026751959078
 20
57.191116751539276
 10
4150.789804744155
 20
57.191116751539276
 10
4159.391038752339
 20
67.58427451142833
 10
4191.655043173944
 20
44.192871305764754
 10
4189.5000430365
 20
15.549327812221444
 10
4112.287003204668
 20
25.91589334519874
 10
4086.529059837775
 20
10.353802561034394
 10
4077.9165648016724
 20
20.76056739632613
 10
4056.5727943554207
 20
31.076723112014328
 10
4026.5676823852
 20
0.0
 10
4009.3464108901912
 20
10.404518194900916
 10
3985.7368497801885
 20
33.74578883774489
 10
3985.7368497801885
 20
39.002129503411936
 10
4000.789804744156
 20
57.191116751539276
 10
4043.6369406147055
 20
57.191116751539276
 10
4054.3114491183496
 20
75.24882697020364
  0
LWPOLYLINE
  5
52
330
17
100
AcDbEntity
  8
Y
100
AcDbPolyline
 90
21
 70
1
 10
4009.3118030402993
 20
253.93537782743925
 10
4017.9518438210753
 20
259.15540246582503
 10
4052.3124662447917
 20
259.15540246582503
 10
4060.8903077225655
 20
248.79051068018276
 10
4090.8903077225646
 20
243.6119392516113
 10
4097.358310499231
 20
235.79643589647316
 10
4101.658790531445
 20
215.0107824074361
 10
4090.883894816221
 20
201.9911167515393
 10
4082.218376172727
 20
201.9911167515393
 10
4077.9326618870123
 20
207.16968818011065
 10
4048.073543303234
 20
207.16968818011065
 10
4045.9345854390563
 20
173.57022506365655
 10
4035.169609101935
 20
160.56254532296782
 10
4026.598180530506
 20
160.56254532296782
 10
4018.004033301355
 20
150.1779507544097
 10
3994.3082783516165
 20
163.19266464725834
 10
3994.3082783516165
 20
189.12481559966938
 10
3989.9999999999995
 20
199.53648828274427
 10
4011.4061205228477
 20
215.05592566180954
 10
4007.1631044073406
 20
220.18290346804798
 10
4009.3118030402993
 20
253.93537782743925
  0
LWPOLYLINE
  5
53
330
17
100
AcDbEntity
  8
Y
100
AcDbPolyline
 90
5
 70
1
 10
4000.8163131397787
 20
414.5145235986518
 10
4033.1640735001174
 20
411.9087317918467
 10
4005.159471090602
 20
372.8638534324277
 10
3955.5893809147146
 20
391.0934336963865
 10
4000.8163131397787
 20
414.5145235986518
  0
LWPOLYLINE
  5
54
330
17
100
AcDbEntity
  8
Y
100
AcDbPolyline
 90
9
 70
1
 10
3970.941836358849
 20
150.40540246582495
 10
3968.7911548747543
 20
106.22682031337548
 10
3945.098237687593
 20
93.21366504012403
 10
3934.308278351617
 20
106.2515325710952
 10
3934.308278351617
 20
116.6212271533494
 10
3921.39520873178
 20
142.62671458218838
 10
3957.9299434125196
 20
145.22354621390764
 10
3962.218376172727
 20
150.40540246582495
 10
3970.941836358849
 20
150.40540246582495
  0
LWPOLYLINE
  5
55
330
17
100
AcDbEntity
  8
Y
100
AcDbPolyline
 90
10
 70
1
 10
3902.181973321525
 20
305.8084394268296
 10
3949.4292791145504
 20
285.0482596086822
 10
3962.3124662447917
 20
285.0482596086822
 10
3968.793992637331
 20
277.2164152176976
 10
3968.793992637331
 20
256.4301039996666
 10
3953.739277617254
 20
238.23899001707395
 10
3895.7368497801876
 20
240.83477768262162
 10
3895.7368497801876
 20
282.39498664626905
 10
3900.026718815579
 20
287.57857839736647
 10
3902.181973321525
 20
305.8084394268296
  0
LWPOLYLINE
  5
56
330
17
100
AcDbEntity
  8
Y
100
AcDbPolyline
 90
26
 70
1
 10
5740.022564065903
 20
359.9375453229678
 10
5740.022564065903
 20
380.73462222707224
 10
5733.615359924775
 20
398.79937834719715
 10
5677.8969109467835
 20
419.51521194157857
 10
5673.620244344807
 20
435.018128373742
 10
5626.602337438649
 20
429.8532825393534
 10
5622.312466244792
 20
424.66968818011077
 10
5583.609183818989
 20
424.66968818011077
 10
5581.446809620691
 20
437.7340322948279
 10
5590.022564065903
 20
453.2775872267745
 10
5590.022564065903
 20
473.98598933198053
 10
5594.340370662255
 20
484.4206886064972
 10
5660.882363778062
 20
487.014395327409
 10
5665.169609101936
 20
481.8339738943964
 10
5673.646947601299
 20
481.8339738943964
 10
5682.218376172727
 20
492.19111675153925
 10
5690.88389481622
 20
492.19111675153925
 10
5695.169609101935
 20
487.0125453229678
 10
5725.145463473924
 20
487.0125453229678
 10
5746.5740349024945
 20
476.6554024658249
 10
5780.864712882158
 20
476.6554024658249
 10
5789.499414471778
 20
471.43860358876276
 10
5791.647511099423
 20
458.46051979674394
 10
5808.793992637331
 20
422.20285571137583
 10
5808.793992637331
 20
359.9375453229678
 10
5740.022564065903
 20
359.9375453229678
  0
LWPOLYLINE
  5
57
330
17
100
AcDbEntity
  8
Y
100
AcDbPolyline
 90
10
 70
1
 10
6791.206150404724
 20
334.2073936160239
 10
6815.071362121728
 20
336.8289509637252
 10
6819.361233315584
 20
342.01254532296787
 10
6853.646947601299
 20
342.01254532296787
 10
6857.932661887014
 20
347.19111675153925
 10
6875.169609101936
 20
347.19111675153925
 10
6881.671583144039
 20
339.3345647839974
 10
6864.491301972552
 20
308.1953051606776
 10
6858.005793876711
 20
300.3586495448695
 10
6791.206150404724
 20
334.2073936160239
  0
LWPOLYLINE
  5
58
330
17
100
AcDbEntity
  8
Y
100
AcDbPolyline
 90
12
 70
1
 10
6624.308278351617
 20
432.45482050698394
 10
6624.308278351617
 20
458.41428092760884
 10
6615.724522460365
 20
484.3443768491009
 10
6622.2183761727265
 20
492.19111675153925
 10
6639.436141453587
 20
492.19111675153925
 10
6656.578998596444
 20
481.8339738943964
 10
6669.432635110588
 20
481.8339738943964
 10
6684.535778618442
 20
474.01270314925813
 10
6671.651135494474
 20
442.87481559966943
 10
6671.651135494474
 20
432.50153257109514
 10
6665.161904659579
 20
424.6603786455966
 10
6624.308278351617
 20
432.45482050698394
  0
LWPOLYLINE
  5
59
330
17
100
AcDbEntity
  8
Y
100
AcDbPolyline
 90
10
 70
1
 10
8085.0477959842165
 20
207.20212422848726
 10
8070.022564065901
 20
220.17033034846133
 10
8070.022564065901
 20
230.60060594695685
 10
8080.788418245321
 20
248.81284260047443
 10
8102.301873783267
 20
243.61375751213754
 10
8125.936849780189
 20
230.6324259986773
 10
8125.936849780189
 20
199.47837001049228
 10
8113.041701363919
 20
173.5089738943964
 10
8108.641938393235
 20
173.5089738943964
 10
8085.0477959842165
 20
207.20212422848726
  0
LWPOLYLINE
  5
5A
330
17
100
AcDbEntity
  8
Y
100
AcDbPolyline
 90
52
 70
1
 10
7864.3082783516165
 20
277.1631936556439
 10
7857.92032353087
 20
295.17367738636335
 10
7845.183440458775
 20
290.04354392677044
 10
7836.598180530506
 20
279.6696881801107
 10
7828.026751959078
 20
279.6696881801107
 10
7819.466080244455
 20
269.3255431916082
 10
7802.171765499806
 20
264.1012189458287
 10
7800.020796461831
 20
308.2857079342077
 10
7810.793809902641
 20
321.30309917518616
 10
7862.222381331213
 20
316.1245277466147
 10
7870.789804744156
 20
326.47683103725353
 10
7896.578998596443
 20
326.47683103725353
 10
7905.047998149406
 20
321.36014380733855
 10
7907.171171444838
 20
334.18764913391317
 10
7915.736849780188
 20
344.5378437891262
 10
7915.736849780188
 20
354.8814271399474
 10
7932.879706923044
 20
391.1314271399475
 10
7932.879706923044
 20
401.502129503412
 10
7943.639532467289
 20
414.50358536937426
 10
7969.477472349507
 20
419.70705937343166
 10
7984.492068937776
 20
370.4627574678597
 10
8007.943597103697
 20
357.58218328581927
 10
8042.226792473164
 20
414.5422839257156
 10
8085.193277134369
 20
393.7751496727999
 10
8095.946726537235
 20
375.583897766286
 10
8089.478913988724
 20
357.3482596086822
 10
8080.883894816221
 20
357.3482596086822
 10
8076.598180530506
 20
352.16968818011077
 10
8055.169609101935
 20
352.16968818011077
 10
8050.88389481622
 20
346.99111675153927
 10
8029.440714480266
 20
346.99111675153927
 10
8018.793992637331
 20
339.2722434154117
 10
8018.793992637331
 20
308.30824832802693
 10
8027.36542120876
 20
303.1296768994555
 10
8027.36542120876
 20
292.6903605620184
 10
8018.788411739432
 20
277.14453089886314
 10
8012.345366181775
 20
248.5982596086822
 10
7977.955350164073
 20
248.5982596086822
 10
7962.823606301166
 20
256.43434125197393
 10
7967.16542120876
 20
261.6807009319834
 10
7967.16542120876
 20
287.57355807484043
 10
7971.451135494474
 20
292.7521295034119
 10
7971.451135494474
 20
303.02540489388963
 10
7958.6061632941955
 20
313.3727436107811
 10
7956.479266628948
 20
321.0827440223019
 10
7915.9283253341355
 20
313.34605127526527
 10
7909.498064678757
 20
253.77683103725357
 10
7887.932661887012
 20
253.77683103725357
 10
7883.679872784436
 20
258.9156178695338
 10
7870.853900953946
 20
248.58358500608347
 10
7864.3082783516165
 20
251.22001633202152
 10
7864.3082783516165
 20
277.1631936556439
  0
LWPOLYLINE
  5
5B
330
17
100
AcDbEntity
  8
Y
100
AcDbPolyline
 90
7
 70
1
 10
9378.835150583214
 20
152.9859130516647
 10
9368.063694184104
 20
124.35179145736062
 10
9355.145245035448
 20
113.94526297650056
 10
9327.16542120876
 20
121.74732923586588
 10
9327.16542120876
 20
132.2022897044155
 10
9337.917531708568
 20
155.58813004149962
 10
9378.835150583214
 20
152.9859130516647
  0
LWPOLYLINE
  5
5C
330
17
100
AcDbEntity
  8
Y
100
AcDbPolyline
 90
16
 70
1
 10
9307.932661887013
 20
233.06254532296788
 10
9303.69399263733
 20
238.18427066633342
 10
9299.455323387649
 20
233.06254532296788
 10
9252.20133512205
 20
233.06254532296788
 10
9241.443307587044
 20
256.46125521160735
 10
9247.905498108095
 20
274.6810423751237
 10
9282.212728238328
 20
279.8628635927108
 10
9286.504090458442
 20
285.0482596086822
 10
9303.627148810941
 20
285.0482596086822
 10
9307.912863096655
 20
295.40540246582503
 10
9320.880903785823
 20
295.40540246582503
 10
9365.929202779409
 20
246.1561708279938
 10
9370.247870524254
 20
225.2826100612434
 10
9342.21484220649
 20
227.8882441035996
 10
9337.932661887013
 20
233.06254532296788
 10
9307.932661887013
 20
233.06254532296788
  0
LWPOLYLINE
  5
5D
330
17
100
AcDbEntity
  8
Y
100
AcDbPolyline
 90
11
 70
1
 10
9207.16542120876
 20
308.23195845681227
 10
9207.16542120876
 20
318.5832177048755
 10
9198.586765710723
 20
334.13203079506746
 10
9200.760700752902
 20
342.01254532296787
 10
9239.455323387649
 20
342.01254532296787
 10
9243.747450579707
 20
336.826224965897
 10
9258.793992637331
 20
334.2289052059502
 10
9258.793992637331
 20
323.7560133153016
 10
9235.1618482631
 20
290.008595023314
 10
9211.476272012236
 20
297.81406901507626
 10
9207.16542120876
 20
308.23195845681227
  0
LWPOLYLINE
  5
5E
330
17
100
AcDbEntity
  8
Y
100
AcDbPolyline
 90
9
 70
1
 10
9166.507782063958
 20
253.9812917272516
 10
9194.477610433414
 20
251.3815320390649
 10
9198.793992637331
 20
240.9502750462663
 10
9198.793992637331
 20
204.64438971395234
 10
9192.304761802436
 20
196.80323578845366
 10
9151.447028048058
 20
204.5984613073808
 10
9153.598742366987
 20
248.79825960868217
 10
9162.218376172728
 20
248.79825960868217
 10
9166.507782063958
 20
253.9812917272516
  0
LWPOLYLINE
  5
5F
330
17
100
AcDbEntity
  8
Y
100
AcDbPolyline
 90
11
 70
1
 10
9059.342051381522
 20
207.34651000978482
 10
9102.256456276518
 20
233.27396296717828
 10
9108.79033776462
 20
230.64226070113685
 10
9110.93952330127
 20
191.68827284936413
 10
9098.024984577298
 20
181.28489443283186
 10
9076.606963819653
 20
176.10887274973413
 10
9072.305514665542
 20
170.9112883551837
 10
9057.211963266383
 20
173.51672282289576
 10
9052.879706923046
 20
178.75153257109523
 10
9052.879706923046
 20
199.5378437891262
 10
9059.342051381522
 20
207.34651000978482
  0
ENDSEC
  0
SECTION
  2
OBJECTS
  0
DICTIONARY
  5
A
330
0
100
AcDbDictionary
281
1
  3
ACAD_COLOR
350
B
  3
ACAD_GROUP
350
C
  3
ACAD_LAYOUT
350
D
  3
ACAD_MATERIAL
350
E
  3
ACAD_MLEADERSTYLE
350
F
  3
ACAD_MLINESTYLE
350
10
  3
ACAD_PLOTSETTINGS
350
11
  3
ACAD_PLOTSTYLENAME
350
12
  3
ACAD_SCALELIST
350
14
  3
ACAD_TABLESTYLE
350
15
  3
ACAD_VISUALSTYLE
350
16
  3
EZDXF_META
350
2D
  0
DICTIONARY
  5
B
330
A
100
AcDbDictionary
281
1
  0
DICTIONARY
  5
C
330
A
100
AcDbDictionary
281
1
  0
DICTIONARY
  5
D
330
A
100
AcDbDictionary
281
1
  3
Model
350
1A
  3
Layout1
350
1E
  0
DICTIONARY
  5
E
330
A
100
AcDbDictionary
281
1
  3
ByBlock
350
1F
  3
ByLayer
350
20
  3
Global
350
21
  0
DICTIONARY
  5
F
330
A
100
AcDbDictionary
281
1
  3
Standard
350
2C
  0
DICTIONARY
  5
10
330
A
100
AcDbDictionary
281
1
  3
Standard
350
22
  0
DICTIONARY
  5
11
330
A
100
AcDbDictionary
281
1
  0
ACDBDICTIONARYWDFLT
  5
12
330
A
100
AcDbDictionary
281
1
  3
Normal
350
13
100
AcDbDictionaryWithDefault
340
13
  0
ACDBPLACEHOLDER
  5
13
330
12
  0
DICTIONARY
  5
14
330
A
100
AcDbDictionary
281
1
  0
DICTIONARY
  5
15
330
A
100
AcDbDictionary
281
1
  0
DICTIONARY
  5
16
330
A
100
AcDbDictionary
281
1
  0
LAYOUT
  5
1A
330
D
100
AcDbPlotSettings
  1

  4
A3
  6

 40
7.5
 41
20.0
 42
7.5
 43
20.0
 44
420.0
 45
297.0
 46
0.0
 47
0.0
 48
0.0
 49
0.0
140
0.0
141
0.0
142
1.0
143
1.0
 70
1024
 72
1
 73
0
 74
5
  7

 75
16
 76
0
 77
2
 78
300
147
1.0
148
0.0
149
0.0
100
AcDbLayout
  1
Model
 70
1
 71
0
 10
0.0
 20
0.0
 11
420.0
 21
297.0
 12
0.0
 22
0.0
 32
0.0
 14
1e+20
 24
1e+20
 34
1e+20
 15
-1e+20
 25
-1e+20
 35
-1e+20
146
0.0
 13
0.0
 23
0.0
 33
0.0
 16
1.0
 26
0.0
 36
0.0
 17
0.0
 27
1.0
 37
0.0
 76
1
330
17
  0
LAYOUT
  5
1E
330
D
100
AcDbPlotSettings
  1

  4
A3
  6

 40
7.5
 41
20.0
 42
7.5
 43
20.0
 44
420.0
 45
297.0
 46
0.0
 47
0.0
 48
0.0
 49
0.0
140
0.0
141
0.0
142
1.0
143
1.0
 70
0
 72
1
 73
0
 74
5
  7

 75
16
 76
0
 77
2
 78
300
147
1.0
148
0.0
149
0.0
100
AcDbLayout
  1
Layout1
 70
1
 71
1
 10
0.0
 20
0.0
 11
420.0
 21
297.0
 12
0.0
 22
0.0
 32
0.0
 14
1e+20
 24
1e+20
 34
1e+20
 15
-1e+20
 25
-1e+20
 35
-1e+20
146
0.0
 13
0.0
 23
0.0
 33
0.0
 16
1.0
 26
0.0
 36
0.0
 17
0.0
 27
1.0
 37
0.0
 76
1
330
1B
  0
MATERIAL
  5
1F
102
{ACAD_REACTORS
330
E
102
}
330
E
100
AcDbMaterial
  1
ByBlock
  2

 70
0
 40
1.0
 71
1
 41
1.0
 91
-1023410177
 42
1.0
 72
1
  3

 73
1
 74
1
 75
1
 44
0.5
 73
0
 45
1.0
 46
1.0
 77
1
  4

 78
1
 79
1
170
1
 48
1.0
171
1
  6

172
1
173
1
174
1
140
1.0
141
1.0
175
1
  7

176
1
177
1
178
1
143
1.0
179
1
  8

270
1
271
1
272
1
145
1.0
146
1.0
273
1
  9

274
1
275
1
276
1
 42
1.0
 72
1
  3

 73
1
 74
1
 75
1
 94
63
  0
MATERIAL
  5
20
102
{ACAD_REACTORS
330
E
102
}
330
E
100
AcDbMaterial
  1
ByLayer
  2

 70
0
 40
1.0
 71
1
 41
1.0
 91
-1023410177
 42
1.0
 72
1
  3

 73
1
 74
1
 75
1
 44
0.5
 73
0
 45
1.0
 46
1.0
 77
1
  4

 78
1
 79
1
170
1
 48
1.0
171
1
  6

172
1
173
1
174
1
140
1.0
141
1.0
175
1
  7

176
1
177
1
178
1
143
1.0
179
1
  8

270
1
271
1
272
1
145
1.0
146
1.0
273
1
  9

274
1
275
1
276
1
 42
1.0
 72
1
  3

 73
1
 74
1
 75
1
 94
63
  0
MATERIAL
  5
21
102
{ACAD_REACTORS
330
E
102
}
330
E
100
AcDbMaterial
  1
Global
  2

 70
0
 40
1.0
 71
1
 41
1.0
 91
-1023410177
 42
1.0
 72
1
  3

 73
1
 74
1
 75
1
 44
0.5
 73
0
 45
1.0
 46
1.0
 77
1
  4

 78
1
 79
1
170
1
 48
1.0
171
1
  6

172
1
173
1
174
1
140
1.0
141
1.0
175
1
  7

176
1
177
1
178
1
143
1.0
179
1
  8

270
1
271
1
272
1
145
1.0
146
1.0
273
1
  9

274
1
275
1
276
1
 42
1.0
 72
1
  3

 73
1
 74
1
 75
1
 94
63
  0
MLINESTYLE
  5
22
102
{ACAD_REACTORS
330
10
102
}
330
10
100
AcDbMlineStyle
  2
Standard
 70
0
  3

 62
256
 51
90.0
 52
90.0
 71
2
 49
0.5
 62
256
  6
BYLAYER
 49
-0.5
 62
256
  6
BYLAYER
  0
MLEADERSTYLE
  5
2C
102
{ACAD_REACTORS
330
F
102
}
330
F
100
AcDbMLeaderStyle
179
2
170
2
171
1
172
0
 90
2
 40
0.0
 41
0.0
173
1
 91
-1056964608
 92
-2
290
1
 42
2.0
291
1
 43
8.0
  3
Standard
 44
4.0
300

342
29
174
1
175
1
176
0
178
1
 93
-1056964608
 45
4.0
292
0
297
0
 46
4.0
 94
-1056964608
 47
1.0
 49
1.0
140
1.0
294
1
141
0.0
177
0
142
1.0
295
0
296
0
143
3.75
271
0
272
9
273
9
  0
DICTIONARY
  5
2D
330
A
100
AcDbDictionary
280
1
281
1
  3
CREATED_BY_EZDXF
350
2E
  3
WRITTEN_BY_EZDXF
350
62
  0
DICTIONARYVAR
  5
2E
330
2D
100
DictionaryVariables
280
0
  1
1.4.4 @ 2026-07-08T12:04:30.256885+00:00
  0
DICTIONARYVAR
  5
62
330
2D
100
DictionaryVariables
280
0
  1
1.4.4 @ 2026-07-08T12:04:30.270978+00:00
  0
ENDSEC
  0
EOF
