  0
SECTION
  2
HEADER
  9
$ACADVER
  1
AC1027
  9
$ACADMAINTVER
 70
105
  9
$DWGCODEPAGE
  3
ANSI_1252
  9
$LASTSAVEDBY
  1
ezdxf
  9
$REQUIREDVERSIONS
160
0
  9
$INSBASE
 10
0.0
 20
0.0
 30
0.0
  9
$EXTMIN
 10
1e+20
 20
1e+20
 30
1e+20
  9
$EXTMAX
 10
-1e+20
 20
-1e+20
 30
-1e+20
  9
$LIMMIN
 10
0.0
 20
0.0
  9
$LIMMAX
 10
420.0
 20
297.0
  9
$ORTHOMODE
 70
0
  9
$REGENMODE
 70
1
  9
$FILLMODE
 70
1
  9
$QTEXTMODE
 70
0
  9
$MIRRTEXT
 70
1
  9
$LTSCALE
 40
1.0
  9
$ATTMODE
 70
1
  9
$TEXTSIZE
 40
2.5
  9
$TRACEWID
 40
1.0
  9
$TEXTSTYLE
  7
Standard
  9
$CLAYER
  8
0
  9
$CELTYPE
  6
ByLayer
  9
$CECOLOR
 62
256
  9
$CELTSCALE
 40
1.0
  9
$DISPSILH
 70
0
  9
$DIMSCALE
 40
1.0
  9
$DIMASZ
 40
2.5
  9
$DIMEXO
 40
0.625
  9
$DIMDLI
 40
3.75
  9
$DIMRND
 40
0.0
  9
$DIMDLE
 40
0.0
  9
$DIMEXE
 40
1.25
  9
$DIMTP
 40
0.0
  9
$DIMTM
 40
0.0
  9
$DIMTXT
 40
2.5
  9
$DIMCEN
 40
2.5
  9
$DIMTSZ
 40
0.0
  9
$DIMTOL
 70
0
  9
$DIMLIM
 70
0
  9
$DIMTIH
 70
0
  9
$DIMTOH
 70
0
  9
$DIMSE1
 70
0
  9
$DIMSE2
 70
0
  9
$DIMTAD
 70
1
  9
$DIMZIN
 70
8
  9
$DIMBLK
  1

  9
$DIMASO
 70
1
  9
$DIMSHO
 70
1
  9
$DIMPOST
  1

  9
$DIMAPOST
  1

  9
$DIMALT
 70
0
  9
$DIMALTD
 70
3
  9
$DIMALTF
 40
0.03937007874
  9
$DIMLFAC
 40
1.0
  9
$DIMTOFL
 70
1
  9
$DIMTVP
 40
0.0
  9
$DIMTIX
 70
0
  9
$DIMSOXD
 70
0
  9
$DIMSAH
 70
0
  9
$DIMBLK1
  1

  9
$DIMBLK2
  1

  9
$DIMSTYLE
  2
ISO-25
  9
$DIMCLRD
 70
0
  9
$DIMCLRE
 70
0
  9
$DIMCLRT
 70
0
  9
$DIMTFAC
 40
1.0
  9
$DIMGAP
 40
0.625
  9
$DIMJUST
 70
0
  9
$DIMSD1
 70
0
  9
$DIMSD2
 70
0
  9
$DIMTOLJ
 70
0
  9
$DIMTZIN
 70
8
  9
$DIMALTZ
 70
0
  9
$DIMALTTZ
 70
0
  9
$DIMUPT
 70
0
  9
$DIMDEC
 70
2
  9
$DIMTDEC
 70
2
  9
$DIMALTU
 70
2
  9
$DIMALTTD
 70
3
  9
$DIMTXSTY
  7
Standard
  9
$DIMAUNIT
 70
0
  9
$DIMADEC
 70
0
  9
$DIMALTRND
 40
0.0
  9
$DIMAZIN
 70
0
  9
$DIMDSEP
 70
44
  9
$DIMATFIT
 70
3
  9
$DIMFRAC
 70
0
  9
$DIMLDRBLK
  1

  9
$DIMLUNIT
 70
2
  9
$DIMLWD
 70
-2
  9
$DIMLWE
 70
-2
  9
$DIMTMOVE
 70
0
  9
$DIMFXL
 40
1.0
  9
$DIMFXLON
 70
0
  9
$DIMJOGANG
 40
0.785398163397
  9
$DIMTFILL
 70
0
  9
$DIMTFILLCLR
 70
0
  9
$DIMARCSYM
 70
0
  9
$DIMLTYPE
  6

  9
$DIMLTEX1
  6

  9
$DIMLTEX2
  6

  9
$DIMTXTDIRECTION
 70
0
  9
$LUNITS
 70
2
  9
$LUPREC
 70
4
  9
$SKETCHINC
 40
1.0
  9
$FILLETRAD
 40
10.0
  9
$AUNITS
 70
0
  9
$AUPREC
 70
2
  9
$MENU
  1
.
  9
$ELEVATION
 40
0.0
  9
$PELEVATION
 40
0.0
  9
$THICKNESS
 40
0.0
  9
$LIMCHECK
 70
0
  9
$CHAMFERA
 40
0.0
  9
$CHAMFERB
 40
0.0
  9
$CHAMFERC
 40
0.0
  9
$CHAMFERD
 40
0.0
  9
$SKPOLY
 70
0
  9
$TDCREATE
 40
2461243.537337963
  9
$TDUCREATE
 40
2458532.153996898
  9
$TDUPDATE
 40
2461243.537337963
  9
$TDUUPDATE
 40
2458532.1544311
  9
$TDINDWG
 40
0.0
  9
$TDUSRTIMER
 40
0.0
  9
$USRTIMER
 70
1
  9
$ANGBASE
 50
0.0
  9
$ANGDIR
 70
0
  9
$PDMODE
 70
0
  9
$PDSIZE
 40
0.0
  9
$PLINEWID
 40
0.0
  9
$SPLFRAME
 70
0
  9
$SPLINETYPE
 70
6
  9
$SPLINESEGS
 70
8
  9
$HANDSEED
  5
96
  9
$SURFTAB1
 70
6
  9
$SURFTAB2
 70
6
  9
$SURFTYPE
 70
6
  9
$SURFU
 70
6
  9
$SURFV
 70
6
  9
$UCSBASE
  2

  9
$UCSNAME
  2

  9
$UCSORG
 10
0.0
 20
0.0
 30
0.0
  9
$UCSXDIR
 10
1.0
 20
0.0
 30
0.0
  9
$UCSYDIR
 10
0.0
 20
1.0
 30
0.0
  9
$UCSORTHOREF
  2

  9
$UCSORTHOVIEW
 70
0
  9
$UCSORGTOP
 10
0.0
 20
0.0
 30
0.0
  9
$UCSORGBOTTOM
 10
0.0
 20
0.0
 30
0.0
  9
$UCSORGLEFT
 10
0.0
 20
0.0
 30
0.0
  9
$UCSORGRIGHT
 10
0.0
 20
0.0
 30
0.0
  9
$UCSORGFRONT
 10
0.0
 20
0.0
 30
0.0
  9
$UCSORGBACK
 10
0.0
 20
0.0
 30
0.0
  9
$PUCSBASE
  2

  9
$PUCSNAME
  2

  9
$PUCSORG
 10
0.0
 20
0.0
 30
0.0
  9
$PUCSXDIR
 10
1.0
 20
0.0
 30
0.0
  9
$PUCSYDIR
 10
0.0
 20
1.0
 30
0.0
  9
$PUCSORTHOREF
  2

  9
$PUCSORTHOVIEW
 70
0
  9
$PUCSORGTOP
 10
0.0
 20
0.0
 30
0.0
  9
$PUCSORGBOTTOM
 10
0.0
 20
0.0
 30
0.0
  9
$PUCSORGLEFT
 10
0.0
 20
0.0
 30
0.0
  9
$PUCSORGRIGHT
 10
0.0
 20
0.0
 30
0.0
  9
$PUCSORGFRONT
 10
0.0
 20
0.0
 30
0.0
  9
$PUCSORGBACK
 10
0.0
 20
0.0
 30
0.0
  9
$USERI1
 70
0
  9
$USERI2
 70
0
  9
$USERI3
 70
0
  9
$USERI4
 70
0
  9
$USERI5
 70
0
  9
$USERR1
 40
0.0
  9
$USERR2
 40
0.0
  9
$USERR3
 40
0.0
  9
$USERR4
 40
0.0
  9
$USERR5
 40
0.0
  9
$WORLDVIEW
 70
1
  9
$SHADEDGE
 70
3
  9
$SHADEDIF
 70
70
  9
$TILEMODE
 70
1
  9
$MAXACTVP
 70
64
  9
$PINSBASE
 10
0.0
 20
0.0
 30
0.0
  9
$PLIMCHECK
 70
0
  9
$PEXTMIN
 10
1e+20
 20
1e+20
 30
1e+20
  9
$PEXTMAX
 10
-1e+20
 20
-1e+20
 30
-1e+20
  9
$PLIMMIN
 10
0.0
 20
0.0
  9
$PLIMMAX
 10
420.0
 20
297.0
  9
$UNITMODE
 70
0
  9
$VISRETAIN
 70
1
  9
$PLINEGEN
 70
0
  9
$PSLTSCALE
 70
1
  9
$TREEDEPTH
 70
3020
  9
$CMLSTYLE
  2
Standard
  9
$CMLJUST
 70
0
  9
$CMLSCALE
 40
20.0
  9
$PROXYGRAPHICS
 70
1
  9
$MEASUREMENT
 70
1
  9
$CELWEIGHT
370
-1
  9
$ENDCAPS
280
0
  9
$JOINSTYLE
280
0
  9
$LWDISPLAY
290
0
  9
$INSUNITS
 70
4
  9
$HYPERLINKBASE
  1

  9
$STYLESHEET
  1

  9
$XEDIT
290
1
  9
$CEPSNTYPE
380
0
  9
$PSTYLEMODE
290
1
  9
$FINGERPRINTGUID
  2
{48C18DAF-26C3-4BF4-8CFE-43CA6AD60248}
  9
$VERSIONGUID
  2
{748F6C20-38D2-4933-804D-AA2D6BE63DC3}
  9
$EXTNAMES
290
1
  9
$PSVPSCALE
 40
0.0
  9
$OLESTARTUP
290
0
  9
$SORTENTS
280
127
  9
$INDEXCTL
280
0
  9
$HIDETEXT
280
1
  9
$XCLIPFRAME
280
1
  9
$HALOGAP
280
0
  9
$OBSCOLOR
 70
257
  9
$OBSLTYPE
280
0
  9
$INTERSECTIONDISPLAY
280
0
  9
$INTERSECTIONCOLOR
 70
257
  9
$DIMASSOC
280
2
  9
$PROJECTNAME
  1

  9
$CAMERADISPLAY
290
0
  9
$LENSLENGTH
 40
50.0
  9
$CAMERAHEIGHT
 40
0.0
  9
$STEPSPERSEC
 40
24.0
  9
$STEPSIZE
 40
100.0
  9
$3DDWFPREC
 40
2.0
  9
$PSOLWIDTH
 40
0.005
  9
$PSOLHEIGHT
 40
0.08
  9
$LOFTANG1
 40
1.570796326795
  9
$LOFTANG2
 40
1.570796326795
  9
$LOFTMAG1
 40
0.0
  9
$LOFTMAG2
 40
0.0
  9
$LOFTPARAM
 70
7
  9
$LOFTNORMALS
280
1
  9
$LATITUDE
 40
37.795
  9
$LONGITUDE
 40
-122.394
  9
$NORTHDIRECTION
 40
0.0
  9
$TIMEZONE
 70
-8000
  9
$LIGHTGLYPHDISPLAY
280
1
  9
$TILEMODELIGHTSYNCH
280
1
  9
$CMATERIAL
347
20
  9
$SOLIDHIST
280
0
  9
$SHOWHIST
280
1
  9
$DWFFRAME
280
2
  9
$DGNFRAME
280
2
  9
$REALWORLDSCALE
290
1
  9
$INTERFERECOLOR
 62
256
  9
$CSHADOW
280
0
  9
$SHADOWPLANELOCATION
 40
0.0
  0
ENDSEC
  0
SECTION
  2
CLASSES
  0
CLASS
  1
ACDBDICTIONARYWDFLT
  2
AcDbDictionaryWithDefault
  3
ObjectDBX Classes
 90
0
 91
0
280
0
281
0
  0
CLASS
  1
SUN
  2
AcDbSun
  3
SCENEOE
 90
1153
 91
0
280
0
281
0
  0
CLASS
  1
VISUALSTYLE
  2
AcDbVisualStyle
  3
ObjectDBX Classes
 90
4095
 91
0
280
0
281
0
  0
CLASS
  1
MATERIAL
  2
AcDbMaterial
  3
ObjectDBX Classes
 90
1153
 91
0
280
0
281
0
  0
CLASS
  1
SCALE
  2
AcDbScale
  3
ObjectDBX Classes
 90
1153
 91
0
280
0
281
0
  0
CLASS
  1
TABLESTYLE
  2
AcDbTableStyle
  3
ObjectDBX Classes
 90
4095
 91
0
280
0
281
0
  0
CLASS
  1
MLEADERSTYLE
  2
AcDbMLeaderStyle
  3
ACDB_MLEADERSTYLE_CLASS
 90
4095
 91
0
280
0
281
0
  0
CLASS
  1
DICTIONARYVAR
  2
AcDbDictionaryVar
  3
ObjectDBX Classes
 90
0
 91
0
280
0
281
0
  0
CLASS
  1
CELLSTYLEMAP
  2
AcDbCellStyleMap
  3
ObjectDBX Classes
 90
1152
 91
0
280
0
281
0
  0
CLASS
  1
MENTALRAYRENDERSETTINGS
  2
AcDbMentalRayRenderSettings
  3
SCENEOE
 90
1024
 91
0
280
0
281
0
  0
CLASS
  1
ACDBDETAILVIEWSTYLE
  2
AcDbDetailViewStyle
  3
ObjectDBX Classes
 90
1025
 91
0
280
0
281
0
  0
CLASS
  1
ACDBSECTIONVIEWSTYLE
  2
AcDbSectionViewStyle
  3
ObjectDBX Classes
 90
1025
 91
0
280
0
281
0
  0
CLASS
  1
RASTERVARIABLES
  2
AcDbRasterVariables
  3
ISM
 90
0
 91
0
280
0
281
0
  0
CLASS
  1
ACDBPLACEHOLDER
  2
AcDbPlaceHolder
  3
ObjectDBX Classes
 90
0
 91
0
280
0
281
0
  0
CLASS
  1
LAYOUT
  2
AcDbLayout
  3
ObjectDBX Classes
 90
0
 91
0
280
0
281
0
  0
ENDSEC
  0
SECTION
  2
TABLES
  0
TABLE
  2
VPORT
  5
8
330
0
100
AcDbSymbolTable
 70
1
  0
VPORT
  5
23
330
8
100
AcDbSymbolTableRecord
100
AcDbViewportTableRecord
  2
*Active
 70
0
 10
0.0
 20
0.0
 11
1.0
 21
1.0
 12
0.0
 22
0.0
 13
0.0
 23
0.0
 14
0.5
 24
0.5
 15
0.5
 25
0.5
 16
0.0
 26
0.0
 36
1.0
 17
0.0
 27
0.0
 37
0.0
 40
1000.0
 41
1.34
 42
50.0
 43
0.0
 44
0.0
 50
0.0
 51
0.0
 71
0
 72
1000
 73
1
 74
3
 75
0
 76
0
 77
0
 78
0
281
0
 65
0
146
0.0
  0
ENDTAB
  0
TABLE
  2
LTYPE
  5
2
330
0
100
AcDbSymbolTable
 70
3
  0
LTYPE
  5
24
330
2
100
AcDbSymbolTableRecord
100
AcDbLinetypeTableRecord
  2
ByBlock
 70
0
  3

 72
65
 73
0
 40
0.0
  0
LTYPE
  5
25
330
2
100
AcDbSymbolTableRecord
100
AcDbLinetypeTableRecord
  2
ByLayer
 70
0
  3

 72
65
 73
0
 40
0.0
  0
LTYPE
  5
26
330
2
100
AcDbSymbolTableRecord
100
AcDbLinetypeTableRecord
  2
Continuous
 70
0
  3

 72
65
 73
0
 40
0.0
  0
ENDTAB
  0
TABLE
  2
LAYER
  5
1
330
0
100
AcDbSymbolTable
 70
3
  0
LAYER
  5
27
330
1
100
AcDbSymbolTableRecord
100
AcDbLayerTableRecord
  2
0
 70
0
 62
7
  6
Continuous
370
-3
390
13
347
21
  0
LAYER
  5
28
330
1
100
AcDbSymbolTableRecord
100
AcDbLayerTableRecord
  2
Defpoints
 70
0
 62
7
  6
Continuous
290
0
370
-3
390
13
347
21
  0
LAYER
  5
2F
330
1
100
AcDbSymbolTableRecord
100
AcDbLayerTableRecord
  2
M
 70
0
 62
7
  6
Continuous
370
-3
390
13
347
21
  0
ENDTAB
  0
TABLE
  2
STYLE
  5
5
330
0
100
AcDbSymbolTable
 70
1
  0
STYLE
  5
29
330
5
100
AcDbSymbolTableRecord
100
AcDbTextStyleTableRecord
  2
Standard
 70
0
 40
0.0
 41
1.0
 50
0.0
 71
0
 42
2.5
  3
txt
  4

  0
ENDTAB
  0
TABLE
  2
VIEW
  5
7
330
0
100
AcDbSymbolTable
 70
0
  0
ENDTAB
  0
TABLE
  2
UCS
  5
6
330
0
100
AcDbSymbolTable
 70
0
  0
ENDTAB
  0
TABLE
  2
APPID
  5
3
330
0
100
AcDbSymbolTable
 70
3
  0
APPID
  5
2A
330
3
100
AcDbSymbolTableRecord
100
AcDbRegAppTableRecord
  2
ACAD
 70
0
  0
APPID
  5
93
330
3
100
AcDbSymbolTableRecord
100
AcDbRegAppTableRecord
  2
HATCHBACKGROUNDCOLOR
 70
0
  0
APPID
  5
94
330
3
100
AcDbSymbolTableRecord
100
AcDbRegAppTableRecord
  2
EZDXF
 70
0
  0
ENDTAB
  0
TABLE
  2
DIMSTYLE
  5
4
330
0
100
AcDbSymbolTable
 70
1
100
AcDbDimStyleTable
  0
DIMSTYLE
105
2B
330
4
100
AcDbSymbolTableRecord
100
AcDbDimStyleTableRecord
  2
Standard
 70
0
 40
1.0
 41
2.5
 42
0.625
 43
3.75
 44
1.25
 45
0.0
 46
0.0
 47
0.0
 48
0.0
 49
2.5
140
2.5
141
2.5
142
0.0
143
0.03937007874
144
1.0
145
0.0
146
1.0
147
0.625
148
0.0
 69
0
 70
0
 71
0
 72
0
 73
0
 74
0
 75
0
 76
0
 77
1
 78
8
 79
3
170
0
171
3
172
1
173
0
174
0
175
0
176
0
177
0
178
0
179
2
271
2
272
2
273
2
274
3
275
0
276
0
277
2
278
44
279
0
280
0
281
0
282
0
283
0
284
8
285
0
286
0
288
0
289
3
290
0
371
-2
372
-2
  0
ENDTAB
  0
TABLE
  2
BLOCK_RECORD
  5
9
330
0
100
AcDbSymbolTable
 70
2
  0
BLOCK_RECORD
  5
17
330
9
100
AcDbSymbolTableRecord
100
AcDbBlockTableRecord
  2
*Model_Space
340
1A
 70
0
280
1
281
0
  0
BLOCK_RECORD
  5
1B
330
9
100
AcDbSymbolTableRecord
100
AcDbBlockTableRecord
  2
*Paper_Space
340
1E
 70
0
280
1
281
0
  0
ENDTAB
  0
ENDSEC
  0
SECTION
  2
BLOCKS
  0
BLOCK
  5
18
330
17
100
AcDbEntity
  8
0
100
AcDbBlockBegin
  2
*Model_Space
 70
0
 10
0.0
 20
0.0
 30
0.0
  3
*Model_Space
  1

  0
ENDBLK
  5
19
330
17
100
AcDbEntity
  8
0
100
AcDbBlockEnd
  0
BLOCK
  5
1C
330
1B
100
AcDbEntity
  8
0
100
AcDbBlockBegin
  2
*Paper_Space
 70
0
 10
0.0
 20
0.0
 30
0.0
  3
*Paper_Space
  1

  0
ENDBLK
  5
1D
330
1B
100
AcDbEntity
  8
0
100
AcDbBlockEnd
  0
ENDSEC
  0
SECTION
  2
ENTITIES
  0
LWPOLYLINE
  5
30
330
17
100
AcDbEntity
  8
M
100
AcDbPolyline
 90
40
 70
1
 10
5.897569341377196
 20
136.91384895899773
 10
0.0
 20
143.83446604326687
 10
4.2260979854320535
 20
153.5544914097614
 10
14.22876620492719
 20
150.81566558775683
 10
20.003137923422678
 20
163.01255278906868
 10
18.33647125675575
 20
165.7506480271639
 10
24.23063560049532
 20
178.2005665899612
 10
32.57242614136424
 20
175.45969255510428
 10
37.56039166881742
 20
183.65420735020555
 10
41.00612347202626
 20
183.65420735020555
 10
42.616590903755245
 20
181.00843942665102
 10
45.893725002150944
 20
186.39230258830085
 10
49.319063404613004
 20
186.39230258830085
 10
59.25238916781028
 20
178.23278499710315
 10
70.90121185312893
 20
200.10404391647685
 10
79.22945367043077
 20
197.36762160507772
 10
84.23224691373066
 20
208.3261210904014
 10
90.90891201737361
 20
205.5839193514052
 10
92.61659090375507
 20
208.3893918076034
 10
94.283257570422
 20
205.6512965695082
 10
95.89372500215076
 20
208.29706449306272
 10
100.97825535325433
 20
208.29706449306272
 10
114.31158868658775
 20
200.082778778777
 10
124.33945680535952
 20
200.082778778777
 10
126.88325757042173
 20
195.9036775218892
 10
126.88325757042173
 20
168.4569736499978
 10
115.99515708783481
 20
156.07325496925327
 10
105.99403216319625
 20
156.07325496925327
 10
100.99403216319614
 20
150.59706449306276
 10
96.00612347202619
 20
150.59706449306276
 10
94.33945680535972
 20
147.85896925496755
 10
85.99403216319624
 20
147.85896925496755
 10
80.99403216319612
 20
142.38277877877704
 10
74.22705833548426
 20
142.38277877877704
 10
70.89372500215086
 20
147.85896925496755
 10
52.65239673794619
 20
147.85896925496755
 10
45.99337396802872
 20
142.3890576939636
 10
30.98786539842102
 20
139.64995692332093
 10
22.638892143488132
 20
134.16348878436503
 10
5.897569341377196
 20
136.91384895899773
  0
LWPOLYLINE
  5
31
330
17
100
AcDbEntity
  8
M
100
AcDbPolyline
 90
129
 70
1
 10
2751.6832575704216
 20
269.7761657499509
 10
2749.2270583354843
 20
273.8113502073485
 10
2740.9182516603573
 20
273.8113502073485
 10
2729.2515849936904
 20
282.0256359216342
 10
2717.5724829776477
 20
282.0256359216342
 10
2712.5724829776473
 20
287.50182639782474
 10
2707.560391668818
 20
287.50182639782474
 10
2705.024602046864
 20
291.66776649103446
 10
2701.680223460181
 20
302.65643899013503
 10
2703.3564748062
 20
310.91796348122733
 10
2711.692812978052
 20
321.87429364994745
 10
2715.026146311385
 20
332.8266746023284
 10
2723.3499242370885
 20
343.766497018967
 10
2723.3499242370885
 20
346.49891561712695
 10
2729.2270583354843
 20
356.15420735020564
 10
2732.560391668818
 20
356.15420735020564
 10
2738.3328554369336
 20
365.63754068353893
 10
2734.2671811999026
 20
372.3168626443757
 10
2724.2931167421157
 20
361.3928872858475
 10
2717.539998268071
 20
366.94009174666996
 10
2713.3383447546225
 20
373.8428082330497
 10
2716.6716780879565
 20
382.05709394733543
 10
2714.2390928080317
 20
386.0534840500689
 10
2705.905759474698
 20
383.31538881197366
 10
2703.3328554369336
 20
387.5423025883008
 10
2706.658851380755
 20
393.00643878172235
 10
2696.6648349464745
 20
403.9522663049825
 10
2701.6702693423817
 20
414.91655117220773
 10
2699.9995221036006
 20
417.6613502073485
 10
2702.596841591757
 20
421.9283750807491
 10
2706.909844258618
 20
417.6769867377008
 10
2705.2336597039102
 20
414.9232549692532
 10
2707.672790138693
 20
410.91611211211034
 10
2725.893725002151
 20
410.91611211211034
 10
2727.560391668818
 20
413.65420735020564
 10
2737.5603916688174
 20
413.65420735020564
 10
2739.9995221036006
 20
417.6613502073485
 10
2735.8937250021513
 20
424.4065883025866
 10
2732.560391668818
 20
424.4065883025866
 10
2730.893725002151
 20
427.1446835406818
 10
2714.2270583354843
 20
427.1446835406818
 10
2711.683257570422
 20
431.32378479756994
 10
2711.683257570422
 20
436.8560584742699
 10
2714.9995221036
 20
442.3042073502056
 10
2706.671678087956
 20
455.9856653759069
 10
2710.001714295165
 20
464.191826029387
 10
2703.349924237089
 20
472.38778163666007
 10
2703.349924237089
 20
480.62266024696254
 10
2700.0165909037555
 20
491.5750411993435
 10
2700.0165909037555
 20
502.5703441885555
 10
2703.345589502281
 20
508.03941331470503
 10
2701.680737173024
 20
518.9798714783933
 10
2705.8781776449737
 20
531.3923025883008
 10
2710.8937250021513
 20
531.3923025883008
 10
2712.560391668818
 20
534.130397826396
 10
2725.893725002151
 20
534.130397826396
 10
2729.283257570422
 20
539.698915617127
 10
2731.006123472026
 20
536.8684930644913
 10
2734.227058335485
 20
536.8684930644913
 10
2738.3328554369336
 20
543.6137311597295
 10
2735.924393358527
 20
547.5704902885398
 10
2729.2577266918606
 20
542.0942998123493
 10
2725.9499242370885
 20
547.5285467023318
 10
2724.283257570422
 20
544.7904514642365
 10
2721.683257570422
 20
549.0618800356651
 10
2721.683257570422
 20
554.5380705118556
 10
2720.0165909037555
 20
557.2761657499509
 10
2720.0165909037555
 20
595.6655822837936
 10
2722.560391668818
 20
599.8446835406818
 10
3084.3394568053595
 20
599.8446835406818
 10
3086.8832575704223
 20
595.6655822837938
 10
3086.8832575704223
 20
527.1571181309031
 10
3083.5669930372437
 20
521.7089692549674
 10
3086.8832575704223
 20
516.260820379032
 10
3086.8832575704223
 20
510.7285467023316
 10
3083.5615037195544
 20
505.2713796616209
 10
3086.894837052888
 20
497.0570939473352
 10
3083.5669930372437
 20
491.58992163591984
 10
3086.900326370577
 20
486.11373115972947
 10
3083.5615037195544
 20
480.62852251876376
 10
3086.894837052888
 20
472.41423680447804
 10
3083.5669930372437
 20
466.9470644930628
 10
3086.8832575704223
 20
461.4989156171272
 10
3086.8832575704223
 20
445.01426098804586
 10
3083.5669930372437
 20
439.5661121121104
 10
3086.900326370577
 20
434.08992163591984
 10
3083.5669930372437
 20
428.61373115972947
 10
3086.900326370577
 20
423.13754068353893
 10
3083.5669930372437
 20
417.6613502073485
 10
3086.8832575704223
 20
412.2132013314129
 10
3086.8832575704223
 20
160.2523562261412
 10
3082.6749950162034
 20
153.3387820299247
 10
3041.0083283495364
 20
150.60068679182947
 10
3039.33945680536
 20
147.85896925496755
 10
3004.3394568053595
 20
147.85896925496755
 10
3002.672790138693
 20
145.12087401687225
 10
2996.0061234720265
 20
145.12087401687225
 10
2994.33945680536
 20
142.38277877877704
 10
2986.0061234720265
 20
142.38277877877704
 10
2984.3274223328126
 20
139.62491262149746
 10
2975.8836770935027
 20
142.3992860572708
 10
2972.560391668818
 20
147.85896925496755
 10
2967.568960372955
 20
147.85896925496755
 10
2960.9022937062887
 20
156.07325496925327
 10
2954.2270583354843
 20
156.07325496925327
 10
2950.893725002151
 20
161.5494454454437
 10
2947.5603916688174
 20
161.5494454454437
 10
2945.893725002151
 20
164.2875406835389
 10
2935.9857300712797
 20
164.2875406835389
 10
2925.9969114547253
 20
156.08243967708324
 10
2916.004253782799
 20
153.34635483834148
 10
2910.994032163196
 20
147.85896925496755
 10
2904.3273654965296
 20
147.85896925496755
 10
2899.31879658792
 20
142.37339378363322
 10
2885.8871482297914
 20
145.13167871432054
 10
2884.227058335484
 20
147.85896925496755
 10
2867.5866744551345
 20
147.85896925496755
 10
2859.253341121802
 20
153.33515973115797
 10
2792.560391668818
 20
153.33515973115797
 10
2785.023535872854
 20
165.71713711024094
 10
2780.0235358728546
 20
184.8838037769076
 10
2775.016590903755
 20
193.1094990832841
 10
2775.016590903755
 20
198.5929324356498
 10
2770.8843595744456
 20
208.09706449306276
 10
2762.5778168584343
 20
208.09706449306276
 10
2755.018490016761
 20
214.99645010252655
 10
2753.3511354812044
 20
253.3456044203325
 10
2751.6832575704216
 20
256.08568955947476
 10
2751.6832575704216
 20
269.7761657499509
  0
LWPOLYLINE
  5
32
330
17
100
AcDbEntity
  8
M
100
AcDbPolyline
 90
5
 70
1
 10
3054.3030068824205
 20
416.45218460455857
 10
3058.323337548893
 20
420.415081975796
 10
3055.9301749250903
 20
424.34670628632887
 10
3051.909844258618
 20
420.38380891509144
 10
3054.3030068824205
 20
416.45218460455857
  0
LWPOLYLINE
  5
33
330
17
100
AcDbEntity
  8
M
100
AcDbPolyline
 90
7
 70
1
 10
3048.3328554369336
 20
403.97087401687224
 10
3045.8937250021513
 20
407.9780168740151
 10
3041.006123472026
 20
407.9780168740151
 10
3038.5669930372437
 20
403.97087401687224
 10
3041.006123472026
 20
399.9637311597294
 10
3045.8937250021513
 20
399.9637311597294
 10
3048.3328554369336
 20
403.97087401687224
  0
LWPOLYLINE
  5
34
330
17
100
AcDbEntity
  8
M
100
AcDbPolyline
 90
7
 70
1
 10
3036.0061234720265
 20
449.24944544544365
 10
3040.893725002151
 20
449.24944544544365
 10
3044.9995221036
 20
455.9946835406818
 10
3042.560391668818
 20
460.00182639782463
 10
3037.672790138693
 20
460.00182639782463
 10
3033.566993037244
 20
453.2565883025865
 10
3036.0061234720265
 20
449.24944544544365
  0
LWPOLYLINE
  5
35
330
17
100
AcDbEntity
  8
M
100
AcDbPolyline
 90
5
 70
1
 10
3039.263508258424
 20
435.29908723870983
 10
3035.2431775919513
 20
431.33618986747234
 10
3037.6363402157535
 20
427.40456555693953
 10
3041.6566708822265
 20
431.36746292817696
 10
3039.263508258424
 20
435.29908723870983
  0
LWPOLYLINE
  5
36
330
17
100
AcDbEntity
  8
M
100
AcDbPolyline
 90
10
 70
1
 10
2997.6421217823167
 20
473.9426863166334
 10
3004.3087884489833
 20
479.4188767928238
 10
3007.672790138693
 20
473.8923025883008
 10
3010.911150191768
 20
473.8923025883008
 10
3018.3216874145915
 20
480.65588814881477
 10
3014.251662816501
 20
487.3423571313924
 10
3005.95461131267
 20
481.89000900030345
 10
3000.9732604235173
 20
484.6178916300774
 10
2995.2396247642755
 20
477.88964570341585
 10
2997.6421217823167
 20
473.9426863166334
  0
LWPOLYLINE
  5
37
330
17
100
AcDbEntity
  8
M
100
AcDbPolyline
 90
6
 70
1
 10
3010.9722044433624
 20
498.5908838496771
 10
3018.3216874145915
 20
505.29874529167193
 10
3015.893725002151
 20
509.28754068353896
 10
3012.672790138693
 20
509.28754068353896
 10
3008.566993037244
 20
502.5423025883008
 10
3010.9722044433624
 20
498.5908838496771
  0
LWPOLYLINE
  5
38
330
17
100
AcDbEntity
  8
M
100
AcDbPolyline
 90
5
 70
1
 10
2989.263508258424
 20
481.84670628632887
 10
2985.243177591951
 20
477.88380891509144
 10
2987.6363402157535
 20
473.95218460455857
 10
2991.6566708822265
 20
477.915081975796
 10
2989.263508258424
 20
481.84670628632887
  0
LWPOLYLINE
  5
39
330
17
100
AcDbEntity
  8
M
100
AcDbPolyline
 90
5
 70
1
 10
2951.895644609203
 20
371.10603969461386
 10
2955.9418457363904
 20
361.79977710208175
 10
2958.339485626383
 20
368.36474346753835
 10
2954.283257570422
 20
375.02854670233165
 10
2951.895644609203
 20
371.10603969461386
  0
LWPOLYLINE
  5
3A
330
17
100
AcDbEntity
  8
M
100
AcDbPolyline
 90
7
 70
1
 10
2951.6698045900894
 20
447.77445755097347
 10
2949.247505187235
 20
451.7539494270908
 10
2944.247505187235
 20
449.0158541889955
 10
2942.6392279143447
 20
451.658023994459
 10
2940.2270295144613
 20
445.0531950423966
 10
2945.938906456892
 20
435.66939720840315
 10
2951.6698045900894
 20
447.77445755097347
  0
LWPOLYLINE
  5
3B
330
17
100
AcDbEntity
  8
M
100
AcDbPolyline
 90
5
 70
1
 10
2949.2832575704224
 20
328.8655822837939
 10
2951.6661887702667
 20
332.7803978263961
 10
2949.2832575704224
 20
336.69521336899834
 10
2946.900326370577
 20
332.7803978263961
 10
2949.2832575704224
 20
328.8655822837939
  0
LWPOLYLINE
  5
3C
330
17
100
AcDbEntity
  8
M
100
AcDbPolyline
 90
5
 70
1
 10
2944.9995221036
 20
420.39944544544375
 10
2942.6165909037554
 20
424.31426098804593
 10
2940.2336597039107
 20
420.39944544544375
 10
2942.6165909037554
 20
416.4846299028415
 10
2944.9995221036
 20
420.39944544544375
  0
LWPOLYLINE
  5
3D
330
17
100
AcDbEntity
  8
M
100
AcDbPolyline
 90
5
 70
1
 10
2933.5669930372437
 20
455.9946835406818
 10
2935.9499242370885
 20
452.07986799807964
 10
2938.3328554369336
 20
455.9946835406818
 10
2935.9499242370885
 20
459.90949908328395
 10
2933.5669930372437
 20
455.9946835406818
  0
LWPOLYLINE
  5
3E
330
17
100
AcDbEntity
  8
M
100
AcDbPolyline
 90
5
 70
1
 10
2923.566993037244
 20
409.4470644930628
 10
2927.6165909037554
 20
402.79415371236536
 10
2929.9995221035997
 20
406.7089692549675
 10
2925.949924237089
 20
413.36188003566497
 10
2923.566993037244
 20
409.4470644930628
  0
LWPOLYLINE
  5
3F
330
17
100
AcDbEntity
  8
M
100
AcDbPolyline
 90
28
 70
1
 10
2872.660698829863
 20
484.6446835406818
 10
2852.672790138693
 20
484.6446835406818
 10
2850.2165909037553
 20
480.6094990832842
 10
2850.2165909037553
 20
461.4513570284273
 10
2846.8948370528883
 20
453.26560646736147
 10
2850.2165909037553
 20
447.8084394266508
 10
2850.2165909037553
 20
420.42748704569846
 10
2852.672790138693
 20
416.3923025883008
 10
2869.33945680536
 20
416.3923025883008
 10
2872.632667274275
 20
410.9820282465116
 10
2877.5724829776477
 20
416.3923025883008
 10
2884.3394568053595
 20
416.3923025883008
 10
2886.0061234720265
 20
413.65420735020564
 10
2915.907195276542
 20
413.65420735020564
 10
2924.991233973593
 20
423.15115689712223
 10
2923.3328554369336
 20
425.8756359216341
 10
2926.683257570422
 20
431.3798679980796
 10
2926.683257570422
 20
436.8103274178459
 10
2921.6927095280653
 20
450.474923248108
 10
2915.0165909037555
 20
461.4428324166173
 10
2915.0165909037555
 20
466.92531788582914
 10
2910.0099024870597
 20
477.8923496557339
 10
2911.674548751355
 20
483.3619016669896
 10
2908.3328554369336
 20
488.85182639782465
 10
2909.9995221036
 20
491.58992163591984
 10
2907.5603916688174
 20
495.59706449306276
 10
2882.6606988298627
 20
495.59706449306276
 10
2872.660698829863
 20
484.6446835406818
  0
LWPOLYLINE
  5
40
330
17
100
AcDbEntity
  8
M
100
AcDbPolyline
 90
7
 70
1
 10
2910.9499242370885
 20
383.2428324166174
 10
2906.900326370577
 20
376.5899216359199
 10
2909.2832575704224
 20
372.67510609331765
 10
2910.9499242370885
 20
375.413201331413
 10
2914.283257570422
 20
369.93701085522247
 10
2916.6661887702667
 20
373.85182639782465
 10
2910.9499242370885
 20
383.2428324166174
  0
LWPOLYLINE
  5
41
330
17
100
AcDbEntity
  8
M
100
AcDbPolyline
 90
7
 70
1
 10
2812.560391668818
 20
435.3589692549675
 10
2804.3394568053595
 20
435.3589692549675
 10
2801.906291430942
 20
431.3616261398525
 10
2807.6627584574817
 20
424.6065883025866
 10
2810.893725002151
 20
424.6065883025866
 10
2814.9995221036006
 20
431.35182639782465
 10
2812.560391668818
 20
435.3589692549675
  0
LWPOLYLINE
  5
42
330
17
100
AcDbEntity
  8
M
100
AcDbPolyline
 90
10
 70
1
 10
2795.2336597039107
 20
409.4470644930628
 10
2791.0061234720265
 20
402.50182639782474
 10
2787.672790138693
 20
402.50182639782474
 10
2785.2336597039102
 20
398.4946835406819
 10
2789.291558032686
 20
391.82813628626445
 10
2798.3593175700817
 20
404.01661826185466
 10
2800.007882084688
 20
409.4333302384184
 10
2794.283257570422
 20
418.8380705118556
 10
2791.9003263705767
 20
414.9232549692532
 10
2795.2336597039107
 20
409.4470644930628
  0
LWPOLYLINE
  5
43
330
17
100
AcDbEntity
  8
M
100
AcDbPolyline
 90
7
 70
1
 10
2771.006123472026
 20
490.3208740168723
 10
2774.2270583354843
 20
490.3208740168723
 10
2776.666188770267
 20
494.3280168740152
 10
2774.2270583354843
 20
498.33515973115794
 10
2771.006123472026
 20
498.33515973115794
 10
2768.5669930372437
 20
494.3280168740152
 10
2771.006123472026
 20
490.3208740168723
  0
LWPOLYLINE
  5
44
330
17
100
AcDbEntity
  8
M
100
AcDbPolyline
 90
5
 70
1
 10
2768.3328554369336
 20
543.6137311597295
 10
2765.9499242370885
 20
547.5285467023318
 10
2763.5669930372437
 20
543.6137311597295
 10
2765.9499242370885
 20
539.698915617127
 10
2768.3328554369336
 20
543.6137311597295
  0
LWPOLYLINE
  5
45
330
17
100
AcDbEntity
  8
M
100
AcDbPolyline
 90
10
 70
1
 10
2761.674548751355
 20
524.4333302384184
 10
2763.341215418022
 20
529.9095207146088
 10
2760.936377830761
 20
533.8603253222511
 10
2755.2396247642755
 20
527.1753599891301
 10
2756.900326370577
 20
524.4470644930627
 10
2755.2336597039107
 20
521.7089692549674
 10
2757.672790138693
 20
517.7018263978246
 10
2760.893725002151
 20
517.7018263978246
 10
2763.3328554369336
 20
521.7089692549674
 10
2761.674548751355
 20
524.4333302384184
  0
LWPOLYLINE
  5
46
330
17
100
AcDbEntity
  8
M
100
AcDbPolyline
 90
10
 70
1
 10
2759.9995221036006
 20
409.4470644930628
 10
2761.666188770267
 20
412.18515973115797
 10
2759.2635082584234
 20
416.13242057204315
 10
2755.243177591951
 20
412.1695232008057
 10
2756.900326370577
 20
409.4470644930628
 10
2753.5669930372437
 20
403.97087401687224
 10
2756.0061234720265
 20
399.9637311597294
 10
2760.893725002151
 20
399.9637311597294
 10
2763.3328554369336
 20
403.97087401687224
 10
2759.9995221036006
 20
409.4470644930628
  0
LWPOLYLINE
  5
47
330
17
100
AcDbEntity
  8
M
100
AcDbPolyline
 90
7
 70
1
 10
2747.672790138693
 20
378.0589692549675
 10
2759.227058335484
 20
378.0589692549675
 10
2761.666188770267
 20
382.0661121121104
 10
2759.227058335484
 20
386.07325496925324
 10
2747.672790138693
 20
386.07325496925324
 10
2745.2336597039102
 20
382.0661121121104
 10
2747.672790138693
 20
378.0589692549675
  0
LWPOLYLINE
  5
48
330
17
100
AcDbEntity
  8
M
100
AcDbPolyline
 90
5
 70
1
 10
2748.5765109252843
 20
494.3123803436629
 10
2750.969673549087
 20
490.38075603313
 10
2754.9900042155596
 20
494.3436534043675
 10
2752.5968415917573
 20
498.2752777149003
 10
2748.5765109252843
 20
494.3123803436629
  0
LWPOLYLINE
  5
49
330
17
100
AcDbEntity
  8
M
100
AcDbPolyline
 90
5
 70
1
 10
2750.949924237089
 20
547.5285467023318
 10
2748.5669930372437
 20
543.6137311597295
 10
2750.949924237089
 20
539.698915617127
 10
2753.3328554369336
 20
543.6137311597295
 10
2750.949924237089
 20
547.5285467023318
  0
LWPOLYLINE
  5
4A
330
17
100
AcDbEntity
  8
M
100
AcDbPolyline
 90
8
 70
1
 10
2744.2270583354843
 20
490.3208740168723
 10
2746.666188770267
 20
494.3280168740152
 10
2740.924393358527
 20
503.7609664790159
 10
2734.3005495128236
 20
498.3199518914738
 10
2727.65760312347
 20
501.0483048728156
 10
2723.5669930372433
 20
494.3280168740152
 10
2726.0061234720265
 20
490.3208740168723
 10
2744.2270583354843
 20
490.3208740168723
  0
LWPOLYLINE
  5
4B
330
17
100
AcDbEntity
  8
M
100
AcDbPolyline
 90
12
 70
1
 10
2724.327422332813
 20
394.50731160272335
 10
2732.660755666146
 20
397.24540684081853
 10
2734.33945680536
 20
394.48754068353895
 10
2742.5603916688174
 20
394.48754068353895
 10
2744.9995221036
 20
398.4946835406819
 10
2742.5603916688174
 20
402.50182639782474
 10
2734.319063404613
 20
402.50182639782474
 10
2730.9243933585276
 20
399.71334743139687
 10
2729.2270583354843
 20
402.50182639782474
 10
2724.33945680536
 20
402.50182639782474
 10
2721.900326370577
 20
398.4946835406819
 10
2724.327422332813
 20
394.50731160272335
  0
LWPOLYLINE
  5
4C
330
17
100
AcDbEntity
  8
M
100
AcDbPolyline
 90
10
 70
1
 10
2730.9499242370885
 20
385.9809276547128
 10
2728.5729580976085
 20
382.07591185413827
 10
2734.2697111640946
 20
375.3909465210172
 10
2735.8937250021513
 20
378.0589692549675
 10
2740.893725002151
 20
378.0589692549675
 10
2743.332855436933
 20
382.0661121121104
 10
2740.893725002151
 20
386.07325496925324
 10
2734.33945680536
 20
386.07325496925324
 10
2732.6165909037554
 20
383.2428324166176
 10
2730.9499242370885
 20
385.9809276547128
  0
LWPOLYLINE
  5
4D
330
17
100
AcDbEntity
  8
M
100
AcDbPolyline
 90
9
 70
1
 10
2712.6030444974276
 20
525.6460396079655
 10
2706.8948537980264
 20
518.9476525627493
 10
2708.558633056156
 20
513.4809492860375
 10
2706.9003263705767
 20
510.7565883025865
 10
2709.283257570422
 20
506.8417727599841
 10
2711.666188770267
 20
510.7565883025865
 10
2709.9995221036
 20
513.4946835406819
 10
2714.9995221036
 20
521.7089692549674
 10
2712.6030444974276
 20
525.6460396079655
  0
LWPOLYLINE
  5
4E
330
17
100
AcDbEntity
  8
M
100
AcDbPolyline
 90
365
 70
1
 10
3377.6727901386935
 20
303.9303978263961
 10
3367.560391668818
 20
303.9303978263961
 10
3364.99000421556
 20
308.15317721389124
 10
3373.3233375488935
 20
316.36746292817696
 10
3370.8937250021513
 20
320.3589692549675
 10
3367.6727901386935
 20
320.3589692549675
 10
3365.97545511565
 20
317.57049028853976
 10
3362.580785069564
 20
320.3589692549675
 10
3351.006123472027
 20
320.3589692549675
 10
3349.3394568053604
 20
317.62087401687234
 10
3344.2270583354843
 20
317.62087401687234
 10
3340.9057594746987
 20
323.07729357387836
 10
3332.5724261413648
 20
320.3391983357832
 10
3330.8937250021513
 20
323.09706449306276
 10
3326.006123472027
 20
323.09706449306276
 10
3322.6727901386935
 20
317.62087401687234
 10
3311.0061234720265
 20
317.62087401687234
 10
3308.5669930372437
 20
313.61373115972947
 10
3311.0061234720265
 20
309.6065883025866
 10
3319.33945680536
 20
309.6065883025866
 10
3321.0061234720265
 20
306.86849306449136
 10
3324.2533411218014
 20
306.86849306449136
 10
3332.586674455135
 20
312.3446835406818
 10
3341.0061234720265
 20
312.3446835406818
 10
3343.5595964625104
 20
308.149692199173
 10
3339.355004162537
 20
295.71611211211035
 10
3327.560391668818
 20
295.71611211211035
 10
3325.8937250021513
 20
298.45420735020565
 10
3320.98573007128
 20
298.45420735020565
 10
3314.319063404613
 20
292.97801687401517
 10
3302.560391668818
 20
292.97801687401517
 10
3300.949924237089
 20
295.6237847975699
 10
3295.2336597039107
 20
286.23277877877706
 10
3298.566993037244
 20
280.7565883025865
 10
3295.969673549087
 20
276.489563429186
 10
3291.656670882227
 20
280.7409517722342
 10
3293.332855436934
 20
283.4946835406819
 10
3290.930174925091
 20
287.441944381567
 10
3286.9098442586183
 20
283.47904701032957
 10
3288.5669930372437
 20
280.7565883025865
 10
3285.9940889994796
 20
276.5296745262593
 10
3277.677321123277
 20
279.2623268284402
 10
3275.2270295144613
 20
272.5531950423964
 10
3278.572958097609
 20
267.05631237008254
 10
3272.662758457482
 20
260.12087401687234
 10
3269.227058335485
 20
260.12087401687234
 10
3266.671678087956
 20
264.31899870924025
 10
3270.0050114212895
 20
272.53328442352586
 10
3267.6165909037554
 20
276.4571181309032
 10
3264.324269790137
 20
271.0483048728156
 10
3257.6576031234704
 20
273.78640011091085
 10
3256.0061234720265
 20
271.0732549692533
 10
3249.2270583354843
 20
271.0732549692533
 10
3246.6728189597166
 20
275.26950537230056
 10
3249.213318812517
 20
282.2256359216342
 10
3255.8937250021513
 20
282.2256359216342
 10
3258.332855436934
 20
286.23277877877706
 10
3255.8937250021513
 20
290.2399216359199
 10
3249.2270583354843
 20
290.2399216359199
 10
3246.666188770267
 20
294.4470644930628
 10
3249.9995221036006
 20
299.9232549692532
 10
3247.5688637489775
 20
303.9164794089911
 10
3236.01356044346
 20
301.2045204699411
 10
3233.566993037244
 20
297.185159731158
 10
3236.900326370577
 20
291.7089692549675
 10
3232.672790138693
 20
284.7637311597294
 10
3227.560391668818
 20
284.7637311597294
 10
3225.949924237089
 20
287.4094990832843
 10
3224.2832575704224
 20
284.671403845189
 10
3222.591060025194
 20
287.45144266949217
 10
3219.2577266918606
 20
284.71334743139687
 10
3214.9995221036006
 20
291.7089692549675
 10
3217.560391668818
 20
295.91611211211034
 10
3225.8937250021513
 20
295.91611211211034
 10
3228.3328554369336
 20
299.9232549692532
 10
3222.560391668818
 20
309.4065883025866
 10
3217.552315278714
 20
309.4065883025866
 10
3212.552315278714
 20
320.3589692549675
 10
3211.0061234720265
 20
320.3589692549675
 10
3208.5669930372437
 20
316.35182639782465
 10
3210.2336597039107
 20
313.61373115972947
 10
3207.672790138693
 20
309.4065883025866
 10
3202.560391668818
 20
309.4065883025866
 10
3200.949924237089
 20
312.05235622614134
 10
3198.566993037244
 20
308.13754068353893
 10
3201.900326370577
 20
302.6613502073485
 10
3200.2386830543114
 20
299.9315076163401
 10
3206.9053497209784
 20
291.7172219020544
 10
3202.6727901386935
 20
284.7637311597294
 10
3199.2270583354843
 20
284.7637311597294
 10
3196.6661887702676
 20
288.97087401687224
 10
3198.332855436934
 20
291.7089692549675
 10
3195.893725002151
 20
295.71611211211035
 10
3192.672790138693
 20
295.71611211211035
 10
3190.949924237089
 20
292.8856895594747
 10
3188.3412154180214
 20
297.17142547651366
 10
3190.005774817457
 20
302.6406920746578
 10
3182.5678684527425
 20
312.1446835406818
 10
3176.0061234720265
 20
312.1446835406818
 10
3174.2832575704224
 20
309.31426098804616
 10
3168.339485626383
 20
319.0790291818243
 10
3170.8799854791837
 20
326.03515973115805
 10
3175.893725002151
 20
326.03515973115805
 10
3178.332855436934
 20
330.0423025883008
 10
3173.344128813511
 20
338.23806775535326
 10
3175.010795480177
 20
346.452353469639
 10
3171.683257570422
 20
351.9190228928081
 10
3171.683257570422
 20
362.93491877803683
 10
3178.3278320865334
 20
371.1219838068164
 10
3174.993557043236
 20
376.59972137794773
 10
3180.903756683363
 20
383.53515973115805
 10
3194.227058335485
 20
383.53515973115805
 10
3195.893725002151
 20
386.27325496925323
 10
3230.8937250021513
 20
386.27325496925323
 10
3234.2832575704224
 20
391.8417727599841
 10
3236.0061234720265
 20
389.01135020734847
 10
3244.2270583354843
 20
389.01135020734847
 10
3245.949924237089
 20
391.8417727599841
 10
3247.6727901386935
 20
389.01135020734847
 10
3269.2391496443147
 20
389.01135020734847
 10
3274.273398398728
 20
394.5250512240875
 10
3277.591060025194
 20
391.79982917377623
 10
3279.2270583354843
 20
394.48754068353895
 10
3287.580785069564
 20
394.48754068353895
 10
3290.9754551156507
 20
397.2760196499667
 10
3292.6165909037554
 20
394.5798679980794
 10
3294.9995221036006
 20
398.4946835406819
 10
3293.332855436934
 20
401.23277877877706
 10
3295.949924237089
 20
405.53224895046037
 10
3297.616590903756
 20
402.79415371236513
 10
3300.893725002151
 20
408.1780168740151
 10
3314.33945680536
 20
408.1780168740151
 10
3316.900326370577
 20
403.97087401687224
 10
3312.672790138693
 20
397.0256359216342
 10
3304.33945680536
 20
397.0256359216342
 10
3301.9003263705777
 20
393.01849306449134
 10
3303.566993037244
 20
390.2803978263961
 10
3300.2336597039107
 20
384.8042073502056
 10
3302.6764143793407
 20
380.7911103834282
 10
3327.5642453626187
 20
378.06530032335485
 10
3331.666188770267
 20
384.8042073502056
 10
3329.257726691861
 20
388.7609664790159
 10
3325.9243933585276
 20
386.0228712409207
 10
3324.2270583354843
 20
388.8113502073485
 10
3319.227058335485
 20
388.8113502073485
 10
3316.6566708822265
 20
393.03412959484365
 10
3324.99000421556
 20
401.24841530912937
 10
3323.341215418022
 20
403.95713976222794
 10
3325.0078820846884
 20
409.4333302384184
 10
3322.555514380178
 20
413.4622200386855
 10
3304.222181046845
 20
416.2003152767807
 10
3301.666188770267
 20
420.39944544544375
 10
3306.666188770267
 20
428.61373115972947
 10
3305.0036026757152
 20
431.3451226007792
 10
3310.0099024870597
 20
442.3113031399152
 10
3308.3412154180214
 20
447.79413208104046
 10
3309.9995221036006
 20
450.51849306449134
 10
3307.560391668818
 20
454.5256359216342
 10
3296.0061234720265
 20
454.5256359216342
 10
3292.678683518614
 20
449.05912742674224
 10
3277.566916811869
 20
446.3006303294792
 10
3272.560391668818
 20
454.5256359216342
 10
3262.6727901386935
 20
454.5256359216342
 10
3259.2832575704224
 20
448.9571181309032
 10
3257.616590903756
 20
451.69521336899857
 10
3254.33945680536
 20
446.3113502073485
 10
3249.235627039622
 20
446.3113502073485
 10
3242.628291667663
 20
454.45253129065543
 10
3240.2336597039107
 20
450.51849306449134
 10
3241.8919663894894
 20
447.79413208104046
 10
3240.225299722823
 20
442.3179416048499
 10
3243.5669930372437
 20
436.8280168740152
 10
3238.566993037244
 20
428.61373115972947
 10
3240.2336597039107
 20
425.8756359216341
 10
3236.900326370577
 20
420.39944544544375
 10
3239.2832575704224
 20
416.4846299028413
 10
3241.6661887702676
 20
420.39944544544375
 10
3239.9995221036006
 20
423.13754068353893
 10
3242.5450861373824
 20
427.3195387390375
 10
3247.6523432869426
 20
430.1163700352251
 10
3250.2336597039107
 20
425.8756359216341
 10
3248.5669930372437
 20
423.13754068353893
 10
3250.949924237089
 20
419.2227251409365
 10
3253.332855436934
 20
423.13754068353893
 10
3251.666188770267
 20
425.8756359216341
 10
3254.2832575704224
 20
430.1751060933174
 10
3256.9003263705777
 20
425.8756359216341
 10
3255.2336597039107
 20
423.13754068353893
 10
3257.6727901386935
 20
419.13039782639606
 10
3266.006123472027
 20
419.13039782639606
 10
3268.558633056156
 20
414.93698922389757
 10
3266.8919663894894
 20
409.46079874770714
 10
3270.2336597039107
 20
403.97087401687224
 10
3267.642121782317
 20
399.71334743139687
 10
3264.3087884489837
 20
402.45144266949217
 10
3260.9987500205425
 20
397.01352239419606
 10
3247.665416687209
 20
399.7516176322913
 10
3246.006123472027
 20
397.0256359216342
 10
3242.560391668818
 20
397.0256359216342
 10
3240.8937250021513
 20
399.7637311597294
 10
3237.6727901386935
 20
399.7637311597294
 10
3232.6165909037554
 20
391.4571181309032
 10
3230.8937250021513
 20
394.287540683539
 10
3215.8937250021513
 20
394.287540683539
 10
3214.2355304156445
 20
397.01171750422924
 10
3202.5688637489775
 20
394.27362226613405
 10
3200.8937250021513
 20
397.0256359216342
 10
3196.0061234720265
 20
397.0256359216342
 10
3194.2832575704224
 20
394.19521336899857
 10
3191.677462146844
 20
398.47616299344855
 10
3193.3454588618356
 20
406.69700394590757
 10
3188.3369360090487
 20
417.668054004394
 10
3190.8937250021513
 20
421.86849306449136
 10
3204.2270583354843
 20
421.86849306449136
 10
3206.666188770267
 20
425.8756359216341
 10
3202.6165909037554
 20
432.5285467023319
 10
3201.006123472027
 20
429.882778778777
 10
3194.227058335485
 20
429.882778778777
 10
3192.591060025194
 20
432.57049028853976
 10
3189.2497147070912
 20
429.8258137772406
 10
3181.66913327423
 20
445.047139987668
 10
3183.3328554369336
 20
447.7803978263961
 10
3180.8937250021513
 20
451.78754068353896
 10
3176.0061234720265
 20
451.78754068353896
 10
3170.9634706434167
 20
443.50318246510835
 10
3164.9935570432353
 20
450.50869332246344
 10
3168.332855436934
 20
455.9946835406818
 10
3166.683257570422
 20
458.70473717852235
 10
3166.683257570422
 20
464.22096790315726
 10
3170.0165909037555
 20
477.9114440936335
 10
3170.0165909037555
 20
486.1417727599842
 10
3174.9995221036006
 20
494.3280168740152
 10
3173.3285178342485
 20
497.07323817366466
 10
3180.901201786076
 20
506.74944544544365
 10
3187.560391668818
 20
506.74944544544365
 10
3194.227058335485
 20
517.7018263978246
 10
3197.5657984029294
 20
517.7018263978246
 10
3207.5657984029294
 20
531.3923025883008
 10
3212.5603916688183
 20
531.3923025883008
 10
3220.893725002151
 20
545.082778778777
 10
3447.6727901386935
 20
545.082778778777
 10
3450.2165909037553
 20
540.9036775218889
 10
3450.2165909037553
 20
502.5703441885555
 10
3451.8832575704223
 20
499.8322489504603
 10
3451.8832575704223
 20
486.08568955947476
 10
3449.3468937767934
 20
481.91880618422675
 10
3437.6871903150413
 20
479.1823451676931
 10
3432.6535715853697
 20
468.15632318841296
 10
3429.3087884489837
 20
470.90382362187313
 10
3426.9003263705777
 20
466.9470644930628
 10
3428.566993037244
 20
464.2089692549675
 10
3425.2336597039107
 20
458.73277877877706
 10
3427.616590903756
 20
454.81796323617465
 10
3429.2832575704224
 20
457.55605847426983
 10
3431.8832575704223
 20
453.28462990284123
 10
3431.8832575704223
 20
442.31703616100594
 10
3436.8871498392846
 20
423.13544913036714
 10
3435.2252997228225
 20
417.67508446199287
 10
3438.549924237089
 20
412.2132013314127
 10
3438.549924237089
 20
406.7370108552222
 10
3440.222386327334
 20
403.98939456410557
 10
3438.555719660667
 20
395.7751088498198
 10
3441.893696181128
 20
390.2912902804917
 10
3439.3531963283276
 20
383.33515973115806
 10
3426.0061234720265
 20
383.33515973115806
 10
3423.566993037244
 20
379.3280168740152
 10
3426.89196638949
 20
373.865560652469
 10
3425.225299722823
 20
368.3893701762785
 10
3428.5615037195553
 20
362.9084636102187
 10
3425.2281703862213
 20
354.69417789593297
 10
3430.228170386222
 20
346.4798921816472
 10
3426.8948370528883
 20
338.26560646736147
 10
3428.566993037244
 20
335.51849306449134
 10
3426.909844258618
 20
332.7960343567484
 10
3435.2431775919513
 20
324.5817486424627
 10
3432.6727901386935
 20
320.3589692549675
 10
3427.560391668818
 20
320.3589692549675
 10
3424.9995221036006
 20
324.5661121121104
 10
3426.666188770267
 20
327.3042073502056
 10
3424.2832575704224
 20
331.219022892808
 10
3421.9003263705777
 20
327.3042073502056
 10
3425.2336597039107
 20
321.8280168740152
 10
3423.570399454995
 20
319.0955178936542
 10
3432.6082904414916
 20
306.94718390531216
 10
3434.227058335485
 20
309.6065883025866
 10
3441.0061234720265
 20
309.6065883025866
 10
3442.672790138693
 20
306.86849306449136
 10
3447.552315278714
 20
306.86849306449136
 10
3452.5849871980754
 20
317.8924410783306
 10
3456.9076838926094
 20
313.6314971937189
 10
3438.541126620802
 20
280.71481013515563
 10
3433.5567630141923
 20
267.06714787896135
 10
3439.3517623757916
 20
252.1065883025866
 10
3442.672790138693
 20
252.1065883025866
 10
3444.33945680536
 20
249.3684930644914
 10
3452.652396737947
 20
249.3684930644914
 10
3459.319063404613
 20
243.89230258830085
 10
3467.6523967379467
 20
243.89230258830085
 10
3474.3190634046136
 20
238.41611211211034
 10
3477.672790138693
 20
238.41611211211034
 10
3480.21471430906
 20
234.24009383222267
 10
3483.5518367213626
 20
184.89835530744904
 10
3479.33945680536
 20
177.97801687401517
 10
3467.6727901386935
 20
177.97801687401517
 10
3466.0061234720265
 20
175.23992163591996
 10
3459.3394568053595
 20
175.23992163591996
 10
3457.662841238374
 20
172.48548177587065
 10
3437.5622613580454
 20
177.98921198119865
 10
3432.5724829776477
 20
183.45420735020556
 10
3427.5724829776477
 20
183.45420735020556
 10
3422.5724829776477
 20
188.9303978263961
 10
3386.0061234720265
 20
188.9303978263961
 10
3384.33945680536
 20
186.1923025883009
 10
3379.235627039622
 20
186.1923025883009
 10
3372.576274273132
 20
194.39757653272582
 10
3357.678683518614
 20
191.67817504579
 10
3356.0061234720265
 20
188.9303978263961
 10
3339.33945680536
 20
188.9303978263961
 10
3337.6727901386935
 20
186.1923025883009
 10
3329.33945680536
 20
186.1923025883009
 10
3327.6727901386935
 20
183.45420735020556
 10
3311.0061234720265
 20
183.45420735020556
 10
3309.3394568053604
 20
180.71611211211035
 10
3301.0061234720265
 20
180.71611211211035
 10
3299.33945680536
 20
177.97801687401517
 10
3294.227058335485
 20
177.97801687401517
 10
3288.351227948786
 20
187.6311667950198
 10
3286.68456128212
 20
223.22640489025792
 10
3285.0078820846884
 20
225.9809492860374
 10
3286.674548751355
 20
231.45713976222794
 10
3285.016590903756
 20
234.18092765471278
 10
3285.016590903756
 20
242.45129656950792
 10
3286.661165419867
 20
245.1530975602616
 10
3279.999872730032
 20
253.36076176737865
 10
3285.0036026757152
 20
264.3213130769697
 10
3283.332855436934
 20
267.0661121121104
 10
3285.8937250021513
 20
271.27325496925323
 10
3292.580785069564
 20
271.27325496925323
 10
3295.959783408783
 20
274.04886074789704
 10
3300.9125702460447
 20
268.6243799261344
 10
3303.3394856263835
 20
275.26950537230056
 10
3299.9995221036006
 20
280.7565883025865
 10
3302.560391668818
 20
284.9637311597294
 10
3322.560391668818
 20
284.9637311597294
 10
3324.2270583354843
 20
287.70182639782473
 10
3340.8937250021513
 20
287.70182639782473
 10
3342.5688637489775
 20
290.4538400533249
 10
3354.235530415644
 20
287.71574481522964
 10
3356.666188770267
 20
291.7089692549675
 10
3353.3394856263835
 20
297.1742672770624
 10
3355.914817372673
 20
304.22577086809355
 10
3361.9062914309425
 20
297.19495947318586
 10
3358.566993037244
 20
291.7089692549675
 10
3361.0061234720265
 20
287.70182639782473
 10
3364.2270583354843
 20
287.70182639782473
 10
3365.8937250021513
 20
290.4399216359199
 10
3377.566348421641
 20
290.4399216359199
 10
3386.662782352516
 20
302.66694646508284
 10
3383.332855436934
 20
308.13754068353893
 10
3386.666188770267
 20
313.61373115972947
 10
3384.2270583354843
 20
317.62087401687234
 10
3379.33945680536
 20
317.62087401687234
 10
3376.900326370577
 20
313.61373115972947
 10
3380.2336597039107
 20
308.13754068353893
 10
3377.6727901386935
 20
303.9303978263961
  0
LWPOLYLINE
  5
4F
330
17
100
AcDbEntity
  8
M
100
AcDbPolyline
 90
5
 70
1
 10
3432.6165909037554
 20
296.0084394266508
 10
3434.9995221036006
 20
299.9232549692532
 10
3432.6165909037554
 20
303.8380705118556
 10
3430.2336597039107
 20
299.9232549692532
 10
3432.6165909037554
 20
296.0084394266508
  0
LWPOLYLINE
  5
50
330
17
100
AcDbEntity
  8
M
100
AcDbPolyline
 90
21
 70
1
 10
3424.2832575704224
 20
306.576165749951
 10
3420.949924237089
 20
301.09997527376044
 10
3418.332855436934
 20
305.39944544544375
 10
3419.9995221036006
 20
308.13754068353893
 10
3417.6165909037554
 20
312.05235622614134
 10
3412.6727901386935
 20
303.9303978263961
 10
3409.33945680536
 20
303.9303978263961
 10
3407.616590903756
 20
301.09997527376044
 10
3405.8937250021513
 20
303.9303978263961
 10
3397.672790138693
 20
303.9303978263961
 10
3395.2336597039107
 20
299.9232549692532
 10
3397.672790138693
 20
295.91611211211034
 10
3405.8937250021513
 20
295.91611211211034
 10
3407.616590903756
 20
298.7465346647461
 10
3409.33945680536
 20
295.91611211211034
 10
3419.227058335485
 20
295.91611211211034
 10
3420.949924237089
 20
298.7465346647461
 10
3422.6727901386935
 20
295.91611211211034
 10
3425.893725002151
 20
295.91611211211034
 10
3428.332855436934
 20
299.9232549692532
 10
3424.2832575704224
 20
306.576165749951
  0
LWPOLYLINE
  5
51
330
17
100
AcDbEntity
  8
M
100
AcDbPolyline
 90
5
 70
1
 10
3414.9995221036
 20
455.9946835406818
 10
3412.6165909037554
 20
459.9094990832842
 10
3410.2336597039107
 20
455.9946835406818
 10
3412.6165909037554
 20
452.0798679980794
 10
3414.9995221036
 20
455.9946835406818
  0
LWPOLYLINE
  5
52
330
17
100
AcDbEntity
  8
M
100
AcDbPolyline
 90
11
 70
1
 10
3386.9003263705777
 20
346.47087401687224
 10
3388.566993037244
 20
343.73277877877706
 10
3386.9003263705777
 20
340.9946835406819
 10
3389.33945680536
 20
336.98754068353895
 10
3404.2270583354843
 20
336.98754068353895
 10
3406.6661887702676
 20
340.9946835406819
 10
3403.332855436934
 20
346.47087401687224
 10
3404.9995221036006
 20
349.2089692549675
 10
3402.560391668818
 20
353.21611211211035
 10
3391.006123472027
 20
353.21611211211035
 10
3386.9003263705777
 20
346.47087401687224
  0
LWPOLYLINE
  5
53
330
17
100
AcDbEntity
  8
M
100
AcDbPolyline
 90
13
 70
1
 10
3404.9944987532
 20
456.0029361877688
 10
3402.560391668818
 20
460.00182639782463
 10
3394.227058335485
 20
460.00182639782463
 10
3392.560391668818
 20
462.7399216359199
 10
3389.33945680536
 20
462.7399216359199
 10
3386.9003263705777
 20
458.73277877877706
 10
3391.900326370577
 20
450.51849306449134
 10
3390.2336597039102
 20
447.7803978263961
 10
3394.33945680536
 20
441.03515973115793
 10
3397.560391668818
 20
441.03515973115793
 10
3399.9995221036006
 20
445.0423025883008
 10
3398.327832086533
 20
447.788650473483
 10
3404.9944987532
 20
456.0029361877688
  0
LWPOLYLINE
  5
54
330
17
100
AcDbEntity
  8
M
100
AcDbPolyline
 90
7
 70
1
 10
3400.8937250021513
 20
383.33515973115806
 10
3397.662758457482
 20
383.33515973115806
 10
3391.906291430942
 20
376.580121893892
 10
3394.324269790137
 20
372.60772887521466
 10
3400.881570537564
 20
375.30090596790797
 10
3403.332855436934
 20
379.3280168740152
 10
3400.8937250021513
 20
383.33515973115806
  0
LWPOLYLINE
  5
55
330
17
100
AcDbEntity
  8
M
100
AcDbPolyline
 90
16
 70
1
 10
3396.0061234720265
 20
273.8113502073485
 10
3387.6727901386935
 20
273.8113502073485
 10
3385.949924237089
 20
270.98092765471284
 10
3384.2270583354843
 20
273.8113502073485
 10
3375.996091790815
 20
273.8113502073485
 10
3370.2396247642755
 20
267.05631237008254
 10
3372.6165909037554
 20
263.15129656950796
 10
3374.2270583354843
 20
265.79706449306275
 10
3384.2270583354843
 20
265.79706449306275
 10
3385.949924237089
 20
268.6274870456985
 10
3387.6727901386935
 20
265.79706449306275
 10
3399.227058335485
 20
265.79706449306275
 10
3403.332855436934
 20
272.5423025883008
 10
3400.8937250021513
 20
276.54944544544367
 10
3397.672790138693
 20
276.54944544544367
 10
3396.0061234720265
 20
273.8113502073485
  0
LWPOLYLINE
  5
56
330
17
100
AcDbEntity
  8
M
100
AcDbPolyline
 90
5
 70
1
 10
3395.930174925091
 20
413.3943253339479
 10
3391.909844258618
 20
409.4314279627105
 10
3394.3030068824205
 20
405.49980365217766
 10
3398.323337548893
 20
409.4627010234151
 10
3395.930174925091
 20
413.3943253339479
  0
LWPOLYLINE
  5
57
330
17
100
AcDbEntity
  8
M
100
AcDbPolyline
 90
5
 70
1
 10
3394.99000421556
 20
480.65317721389124
 10
3392.5968415917573
 20
484.58480152442405
 10
3388.5765109252848
 20
480.6219041531866
 10
3390.9696735490875
 20
476.69027984265375
 10
3394.99000421556
 20
480.65317721389124
  0
LWPOLYLINE
  5
58
330
17
100
AcDbEntity
  8
M
100
AcDbPolyline
 90
27
 70
1
 10
3369.99000421556
 20
445.0266660579485
 10
3365.9696735490875
 20
448.9895634291859
 10
3363.566993037244
 20
445.0423025883008
 10
3366.9003263705777
 20
439.5661121121104
 10
3364.3087884489837
 20
435.308585526635
 10
3360.97545511565
 20
438.0466807647302
 10
3358.566993037244
 20
434.08992163591984
 10
3360.97545511565
 20
430.13316250710955
 10
3364.3087884489837
 20
432.87125774520484
 10
3366.006123472027
 20
430.08277877877697
 10
3379.2444835251013
 20
430.08277877877697
 10
3386.6550207479254
 20
436.84636433929114
 10
3384.2577266918606
 20
440.7847760028254
 10
3380.924393358527
 20
438.0466807647302
 10
3378.341215418022
 20
442.29047309556125
 10
3380.0078820846884
 20
447.7666635717518
 10
3376.666188770267
 20
453.2565883025865
 10
3378.332855436934
 20
455.9946835406818
 10
3375.8937250021513
 20
460.00182639782463
 10
3372.6727901386935
 20
460.00182639782463
 10
3370.2336597039107
 20
455.9946835406818
 10
3371.900326370577
 20
453.2565883025865
 10
3370.2336597039107
 20
450.51849306449134
 10
3375.2431775919513
 20
442.2885708198533
 10
3370.930174925091
 20
438.037182476805
 10
3368.3328554369336
 20
442.3042073502056
 10
3369.99000421556
 20
445.0266660579485
  0
LWPOLYLINE
  5
59
330
17
100
AcDbEntity
  8
M
100
AcDbPolyline
 90
7
 70
1
 10
3370.2336597039107
 20
409.4470644930628
 10
3372.6727901386935
 20
405.4399216359199
 10
3380.8937250021513
 20
405.4399216359199
 10
3383.332855436934
 20
409.4470644930628
 10
3380.8937250021513
 20
413.45420735020565
 10
3372.6727901386935
 20
413.45420735020565
 10
3370.2336597039107
 20
409.4470644930628
  0
LWPOLYLINE
  5
5A
330
17
100
AcDbEntity
  8
M
100
AcDbPolyline
 90
51
 70
1
 10
3279.2270583354843
 20
312.3446835406818
 10
3285.8937250021513
 20
323.29706449306275
 10
3291.0061234720265
 20
323.29706449306275
 10
3293.5669930372437
 20
319.0899216359199
 10
3291.900326370577
 20
316.35182639782465
 10
3295.969673549087
 20
309.6664703188442
 10
3299.99000421556
 20
313.6293676900818
 10
3296.6698045900894
 20
319.08398136049743
 10
3302.553293222898
 20
331.51135020734847
 10
3357.560391668818
 20
331.51135020734847
 10
3359.227058335485
 20
334.24944544544365
 10
3364.33945680536
 20
334.24944544544365
 10
3366.006123472027
 20
331.51135020734847
 10
3369.2270583354843
 20
331.51135020734847
 10
3373.3328554369336
 20
338.2565883025865
 10
3369.9995221036
 20
343.73277877877706
 10
3372.5755786840405
 20
347.96487173235755
 10
3379.2250154993535
 20
345.233853040354
 10
3381.666327381967
 20
351.91839748084385
 10
3374.3055377766964
 20
358.6365784697818
 10
3372.6727901386935
 20
355.95420735020565
 10
3365.9141184028977
 20
355.95420735020565
 10
3362.6421217823167
 20
358.6419188599683
 10
3361.0061234720265
 20
355.95420735020565
 10
3347.580785069564
 20
355.95420735020565
 10
3344.3087884489837
 20
358.6419188599683
 10
3340.97545511565
 20
353.1657283837778
 10
3334.2989037359207
 20
358.65003844569867
 10
3326.9046639732624
 20
349.2018431934132
 10
3330.2336597039107
 20
343.73277877877706
 10
3327.6727901386935
 20
339.5256359216342
 10
3320.914118402897
 20
339.5256359216342
 10
3317.6421217823167
 20
342.21334743139687
 10
3315.949924237089
 20
339.43330860709375
 10
3314.227058335485
 20
342.2637311597294
 10
3309.227058335485
 20
342.2637311597294
 10
3305.893725002151
 20
347.7399216359199
 10
3302.6727901386935
 20
347.7399216359199
 10
3300.2336597039107
 20
343.73277877877706
 10
3301.9003263705777
 20
340.9946835406819
 10
3299.2832575704224
 20
336.69521336899857
 10
3295.949924237089
 20
342.17140384518893
 10
3292.672790138693
 20
336.787540683539
 10
3289.2270583354843
 20
336.787540683539
 10
3285.9396282397547
 20
342.1883186979523
 10
3278.53597430577
 20
332.72809422674953
 10
3273.562912465129
 20
321.83472067106067
 10
3275.2336597039107
 20
319.0899216359199
 10
3273.566993037244
 20
316.35182639782465
 10
3276.0061234720265
 20
312.3446835406818
 10
3279.2270583354843
 20
312.3446835406818
  0
LWPOLYLINE
  5
5B
330
17
100
AcDbEntity
  8
M
100
AcDbPolyline
 90
9
 70
1
 10
3363.566993037244
 20
469.68515973115797
 10
3366.006123472027
 20
465.6780168740151
 10
3369.2213447853774
 20
465.6780168740151
 10
3376.66913327423
 20
480.6327032841717
 10
3372.5849961498343
 20
487.34235713139253
 10
3364.3569786629046
 20
481.93537421140996
 10
3361.900326370577
 20
477.8994454454437
 10
3365.2336597039107
 20
472.4232549692532
 10
3363.566993037244
 20
469.68515973115797
  0
LWPOLYLINE
  5
5C
330
17
100
AcDbEntity
  8
M
100
AcDbPolyline
 90
5
 70
1
 10
3367.6165909037554
 20
369.93701085522224
 10
3369.9995221036
 20
373.85182639782465
 10
3367.6165909037554
 20
377.76664194042706
 10
3365.2336597039107
 20
373.85182639782465
 10
3367.6165909037554
 20
369.93701085522224
  0
LWPOLYLINE
  5
5D
330
17
100
AcDbEntity
  8
M
100
AcDbPolyline
 90
26
 70
1
 10
3360.9243933585276
 20
372.63316250710955
 10
3364.9995221036006
 20
379.3280168740152
 10
3363.332855436934
 20
382.0661121121104
 10
3365.0078820846884
 20
384.8179416048499
 10
3363.341215418022
 20
390.29413208104046
 10
3366.6745487513554
 20
395.7703225572309
 10
3365.0078820846884
 20
401.2465130334214
 10
3368.3328554369336
 20
406.7089692549675
 10
3364.267181199903
 20
413.3882912158043
 10
3359.2671811999026
 20
407.91210073961383
 10
3357.6165909037554
 20
410.6237847975699
 10
3355.2336597039107
 20
406.7089692549675
 10
3360.2336597039107
 20
398.4946835406819
 10
3356.8919663894894
 20
393.004758809847
 10
3358.5586330561564
 20
387.52856833365644
 10
3356.900326370577
 20
384.8042073502056
 10
3358.5603628477943
 20
382.07700456620597
 10
3355.995460396818
 20
375.0540573790091
 10
3352.642121782317
 20
377.808585526635
 10
3346.9003263705777
 20
368.3756359216341
 10
3349.3394568053604
 20
364.36849306449136
 10
3354.227058335485
 20
364.36849306449136
 10
3356.666188770267
 20
368.3756359216341
 10
3354.9995221036006
 20
371.11373115972947
 10
3357.5910600251946
 20
375.37125774520484
 10
3360.9243933585276
 20
372.63316250710955
  0
LWPOLYLINE
  5
5E
330
17
100
AcDbEntity
  8
M
100
AcDbPolyline
 90
5
 70
1
 10
3353.572958097609
 20
450.50869332246344
 10
3357.6017611984375
 20
443.8899453711017
 10
3361.6708705316414
 20
453.24889683747114
 10
3359.2697111640946
 20
457.1936586555845
 10
3353.572958097609
 20
450.50869332246344
  0
LWPOLYLINE
  5
5F
330
17
100
AcDbEntity
  8
M
100
AcDbPolyline
 90
9
 70
1
 10
3347.642121782317
 20
481.85620457425404
 10
3345.2336597039107
 20
477.8994454454437
 10
3347.652343286942
 20
473.92589384474894
 10
3352.627839135444
 20
476.6505701427378
 10
3355.9243933585276
 20
473.9426863166334
 10
3358.3328554369336
 20
477.8994454454437
 10
3355.914171853902
 20
481.8729970461385
 10
3350.938676005401
 20
479.1483207481495
 10
3347.642121782317
 20
481.85620457425404
  0
LWPOLYLINE
  5
60
330
17
100
AcDbEntity
  8
M
100
AcDbPolyline
 90
29
 70
1
 10
3311.900326370577
 20
256.11373115972947
 10
3314.290824198195
 20
252.18648472864402
 10
3324.270890071621
 20
265.8496701505974
 10
3328.5765109252848
 20
261.6055581662722
 10
3325.233659703911
 20
256.11373115972947
 10
3327.6165909037554
 20
252.19891561712703
 10
3329.283257570422
 20
254.93701085522224
 10
3330.949924237089
 20
252.19891561712703
 10
3332.560391668818
 20
254.84468354068179
 10
3337.5603916688183
 20
254.84468354068179
 10
3339.9995221036006
 20
258.85182639782465
 10
3338.332855436934
 20
261.5899216359199
 10
3340.8937250021513
 20
265.79706449306275
 10
3344.33945680536
 20
265.79706449306275
 10
3346.9003263705777
 20
261.5899216359199
 10
3345.2336597039107
 20
258.85182639782465
 10
3347.6727901386935
 20
254.84468354068179
 10
3355.8937250021513
 20
254.84468354068179
 10
3358.3328554369336
 20
258.85182639782465
 10
3354.9995221036006
 20
264.3280168740152
 10
3358.3328554369336
 20
269.8042073502056
 10
3354.227058335485
 20
276.54944544544367
 10
3344.2270583354843
 20
276.54944544544367
 10
3342.616590903756
 20
279.19521336899857
 10
3341.0061234720265
 20
276.54944544544367
 10
3321.0061234720265
 20
276.54944544544367
 10
3313.566993037244
 20
264.3280168740152
 10
3315.2336597039107
 20
261.5899216359199
 10
3311.900326370577
 20
256.11373115972947
  0
LWPOLYLINE
  5
61
330
17
100
AcDbEntity
  8
M
100
AcDbPolyline
 90
19
 70
1
 10
3334.257726691861
 20
473.6419188599683
 10
3332.6165909037554
 20
476.3380705118556
 10
3330.225299722823
 20
472.40952071460885
 10
3331.875246427314
 20
466.9882672569958
 10
3334.3394568053595
 20
462.9399216359199
 10
3339.33945680536
 20
462.9399216359199
 10
3341.9003263705777
 20
458.73277877877706
 10
3340.2336597039107
 20
455.9946835406818
 10
3342.6727901386935
 20
451.98754068353895
 10
3345.893725002151
 20
451.98754068353895
 10
3348.341215418022
 20
456.0084177953262
 10
3346.6745487513554
 20
461.4846082715166
 10
3349.9995221036006
 20
466.9470644930628
 10
3347.6005145332365
 20
470.8882912158043
 10
3342.600514533236
 20
465.41210073961383
 10
3339.9995221036006
 20
469.68515973115797
 10
3343.332855436934
 20
475.1613502073485
 10
3340.924393358527
 20
479.11810933615874
 10
3334.257726691861
 20
473.6419188599683
  0
LWPOLYLINE
  5
62
330
17
100
AcDbEntity
  8
M
100
AcDbPolyline
 90
7
 70
1
 10
3336.0061234720265
 20
432.8208740168723
 10
3344.2270583354843
 20
432.8208740168723
 10
3348.3328554369336
 20
439.5661121121104
 10
3345.903673902471
 20
443.55691034729927
 10
3336.014674705554
 20
440.8492081862385
 10
3333.5669930372437
 20
436.8280168740152
 10
3336.0061234720265
 20
432.8208740168723
  0
LWPOLYLINE
  5
63
330
17
100
AcDbEntity
  8
M
100
AcDbPolyline
 90
11
 70
1
 10
3340.8937250021513
 20
408.1780168740151
 10
3342.616590903756
 20
411.0084394266508
 10
3344.2832575704224
 20
408.27034418855555
 10
3346.666188770267
 20
412.18515973115797
 10
3344.2832575704224
 20
416.09997527376044
 10
3342.616590903756
 20
413.3618800356652
 10
3340.8937250021513
 20
416.1923025883009
 10
3331.006123472027
 20
416.1923025883009
 10
3328.5669930372437
 20
412.18515973115797
 10
3331.006123472027
 20
408.1780168740151
 10
3340.8937250021513
 20
408.1780168740151
  0
LWPOLYLINE
  5
64
330
17
100
AcDbEntity
  8
M
100
AcDbPolyline
 90
6
 70
1
 10
3339.993557043236
 20
368.385435663662
 10
3337.5603916688183
 20
372.38277877877704
 10
3334.3394568053595
 20
372.38277877877704
 10
3331.893696181128
 20
368.3647434675386
 10
3334.318364434838
 20
361.72577086809355
 10
3339.993557043236
 20
368.385435663662
  0
LWPOLYLINE
  5
65
330
17
100
AcDbEntity
  8
M
100
AcDbPolyline
 90
9
 70
1
 10
3327.6165909037554
 20
241.2465346647461
 10
3329.283257570422
 20
243.9846299028413
 10
3330.949924237089
 20
241.2465346647461
 10
3333.332855436934
 20
245.16135020734853
 10
3330.949924237089
 20
249.07616574995095
 10
3329.283257570422
 20
246.33807051185562
 10
3327.6165909037554
 20
249.07616574995095
 10
3325.233659703911
 20
245.16135020734853
 10
3327.6165909037554
 20
241.2465346647461
  0
LWPOLYLINE
  5
66
330
17
100
AcDbEntity
  8
M
100
AcDbPolyline
 90
5
 70
1
 10
3327.6165909037554
 20
361.7227251409365
 10
3329.9995221036
 20
365.63754068353893
 10
3327.6165909037554
 20
369.55235622614134
 10
3325.233659703911
 20
365.63754068353893
 10
3327.6165909037554
 20
361.7227251409365
  0
LWPOLYLINE
  5
67
330
17
100
AcDbEntity
  8
M
100
AcDbPolyline
 90
5
 70
1
 10
3325.233659703911
 20
453.2565883025865
 10
3327.6165909037554
 20
449.3417727599841
 10
3329.9995221036
 20
453.2565883025865
 10
3327.6165909037554
 20
457.17140384518893
 10
3325.233659703911
 20
453.2565883025865
  0
LWPOLYLINE
  5
68
330
17
100
AcDbEntity
  8
M
100
AcDbPolyline
 90
24
 70
1
 10
3280.8937250021513
 20
364.1684930644914
 10
3279.2832575704224
 20
366.81426098804616
 10
3277.672790138693
 20
364.1684930644914
 10
3272.672790138693
 20
364.1684930644914
 10
3270.244827726253
 20
360.17969767262446
 10
3277.5943106974814
 20
353.4718362306294
 10
3279.2270583354843
 20
356.15420735020564
 10
3285.8937250021513
 20
356.15420735020564
 10
3287.560391668818
 20
358.8923025883008
 10
3309.3394568053604
 20
358.8923025883008
 10
3314.33945680536
 20
350.6780168740151
 10
3317.672790138693
 20
350.6780168740151
 10
3319.2832575704224
 20
348.03224895046037
 10
3321.6661887702676
 20
351.9470644930628
 10
3318.332855436934
 20
357.4232549692532
 10
3321.6661887702676
 20
362.89944544544375
 10
3319.227058335485
 20
366.9065883025866
 10
3309.227058335485
 20
366.9065883025866
 10
3305.9057594746982
 20
372.36300785959264
 10
3297.6828380473416
 20
369.6611908191755
 10
3296.0061234720265
 20
366.9065883025866
 10
3287.6727901386935
 20
366.9065883025866
 10
3286.006123472027
 20
364.1684930644914
 10
3280.8937250021513
 20
364.1684930644914
  0
LWPOLYLINE
  5
69
330
17
100
AcDbEntity
  8
M
100
AcDbPolyline
 90
7
 70
1
 10
3311.900326370577
 20
439.5661121121104
 10
3314.33945680536
 20
435.5589692549675
 10
3317.560391668818
 20
435.5589692549675
 10
3319.9995221036006
 20
439.5661121121104
 10
3317.560391668818
 20
443.57325496925324
 10
3314.33945680536
 20
443.57325496925324
 10
3311.900326370577
 20
439.5661121121104
  0
LWPOLYLINE
  5
6A
330
17
100
AcDbEntity
  8
M
100
AcDbPolyline
 90
9
 70
1
 10
3312.642121782317
 20
243.9426863166334
 10
3314.2832575704224
 20
241.2465346647461
 10
3316.666188770267
 20
245.16135020734853
 10
3314.257726691861
 20
249.11810933615885
 10
3310.9243933585276
 20
246.38001409806353
 10
3307.6165909037554
 20
251.81426098804616
 10
3305.2336597039107
 20
247.89944544544375
 10
3309.3087884489837
 20
241.2045910785382
 10
3312.642121782317
 20
243.9426863166334
  0
LWPOLYLINE
  5
6B
330
17
100
AcDbEntity
  8
M
100
AcDbPolyline
 90
12
 70
1
 10
3271.900326370577
 20
472.4232549692532
 10
3274.33945680536
 20
468.41611211211034
 10
3287.6727901386935
 20
468.41611211211034
 10
3289.330984725201
 20
465.69193529142007
 10
3300.8862880307183
 20
468.40389423047014
 10
3303.332855436934
 20
472.4232549692532
 10
3300.893725002151
 20
476.4303978263961
 10
3287.560391668818
 20
476.4303978263961
 10
3285.949924237089
 20
479.0761657499508
 10
3284.33945680536
 20
476.4303978263961
 10
3274.33945680536
 20
476.4303978263961
 10
3271.900326370577
 20
472.4232549692532
  0
LWPOLYLINE
  5
6C
330
17
100
AcDbEntity
  8
M
100
AcDbPolyline
 90
13
 70
1
 10
3280.8937250021513
 20
295.91611211211034
 10
3290.8937250021513
 20
295.91611211211034
 10
3293.321687414592
 20
299.90490750397726
 10
3285.9464775031156
 20
306.63624988349926
 10
3282.652396737947
 20
303.9303978263961
 10
3272.672790138693
 20
303.9303978263961
 10
3268.5669930372437
 20
297.185159731158
 10
3271.900326370577
 20
291.7089692549675
 10
3270.244827726253
 20
288.98922148214825
 10
3277.613943519615
 20
282.26344119455524
 10
3281.6566708822265
 20
286.24841530912937
 10
3278.332855436934
 20
291.7089692549675
 10
3280.8937250021513
 20
295.91611211211034
  0
LWPOLYLINE
  5
6D
330
17
100
AcDbEntity
  8
M
100
AcDbPolyline
 90
5
 70
1
 10
3279.9995221036006
 20
488.85182639782465
 10
3277.6165909037554
 20
492.76664194042706
 10
3275.2336597039107
 20
488.85182639782465
 10
3277.6165909037554
 20
484.93701085522224
 10
3279.9995221036006
 20
488.85182639782465
  0
LWPOLYLINE
  5
6E
330
17
100
AcDbEntity
  8
M
100
AcDbPolyline
 90
12
 70
1
 10
3271.6602237099023
 20
488.8420266557968
 10
3265.9037566833626
 20
495.59706449306276
 10
3257.6727901386935
 20
495.59706449306276
 10
3256.0061234720265
 20
492.8589692549675
 10
3252.5807850695646
 20
492.8589692549675
 10
3249.3087884489837
 20
495.5466807647302
 10
3245.2336597039107
 20
488.85182639782465
 10
3247.6727901386935
 20
484.8446835406818
 10
3254.33945680536
 20
484.8446835406818
 10
3255.9987500205425
 20
482.1187018300247
 10
3269.220481563125
 20
484.8338788432336
 10
3271.6602237099023
 20
488.8420266557968
  0
LWPOLYLINE
  5
6F
330
17
100
AcDbEntity
  8
M
100
AcDbPolyline
 90
5
 70
1
 10
3263.3328554369336
 20
360.1613502073485
 10
3260.949924237089
 20
364.0761657499509
 10
3258.566993037244
 20
360.1613502073485
 10
3260.949924237089
 20
356.2465346647461
 10
3263.3328554369336
 20
360.1613502073485
  0
LWPOLYLINE
  5
70
330
17
100
AcDbEntity
  8
M
100
AcDbPolyline
 90
8
 70
1
 10
3259.2942753506195
 20
314.7723508253414
 10
3253.5633772174215
 20
302.66729048277097
 10
3256.0061234720265
 20
298.65420735020564
 10
3260.893725002151
 20
298.65420735020564
 10
3263.3328554369336
 20
302.6613502073485
 10
3259.9995221036006
 20
308.13754068353893
 10
3261.6661887702676
 20
310.8756359216341
 10
3259.2942753506195
 20
314.7723508253414
  0
LWPOLYLINE
  5
71
330
17
100
AcDbEntity
  8
M
100
AcDbPolyline
 90
13
 70
1
 10
3252.616590903756
 20
334.3417727599841
 10
3255.003602675715
 20
338.263292099632
 10
3250.0036026757152
 20
349.21567305201296
 10
3254.9995221036006
 20
357.4232549692532
 10
3252.594310697482
 20
361.37467370787704
 10
3245.2448277262524
 20
354.666812265882
 10
3248.5669930372437
 20
349.2089692549675
 10
3246.900326370577
 20
346.47087401687224
 10
3248.5669930372437
 20
343.73277877877706
 10
3245.2336597039107
 20
338.2565883025865
 10
3247.642121782317
 20
334.29982917377623
 10
3250.97545511565
 20
337.03792441187153
 10
3252.616590903756
 20
334.3417727599841
  0
LWPOLYLINE
  5
72
330
17
100
AcDbEntity
  8
M
100
AcDbPolyline
 90
5
 70
1
 10
3247.6165909037554
 20
325.7428324166176
 10
3245.2336597039107
 20
321.8280168740152
 10
3247.6165909037554
 20
317.9132013314128
 10
3249.9995221036006
 20
321.8280168740152
 10
3247.6165909037554
 20
325.7428324166176
  0
LWPOLYLINE
  5
73
330
17
100
AcDbEntity
  8
M
100
AcDbPolyline
 90
5
 70
1
 10
3237.616590903756
 20
405.53224895046037
 10
3239.9995221036006
 20
409.4470644930628
 10
3237.616590903756
 20
413.3618800356652
 10
3235.2336597039107
 20
409.4470644930628
 10
3237.616590903756
 20
405.53224895046037
  0
LWPOLYLINE
  5
74
330
17
100
AcDbEntity
  8
M
100
AcDbPolyline
 90
15
 70
1
 10
3215.2336597039107
 20
343.73277877877706
 10
3216.9003263705777
 20
340.9946835406819
 10
3213.566993037244
 20
335.51849306449134
 10
3215.949924237089
 20
331.6036775218889
 10
3218.332855436934
 20
335.51849306449134
 10
3216.666188770267
 20
338.2565883025865
 10
3219.2211649555634
 20
342.4540491784308
 10
3234.221164955564
 20
345.1921444165261
 10
3239.9995221036006
 20
354.685159731158
 10
3237.560391668818
 20
358.6923025883009
 10
3215.8937250021513
 20
358.6923025883009
 10
3214.2832575704224
 20
361.3380705118556
 10
3211.9053497209784
 20
357.4315076163401
 10
3218.572016387645
 20
349.2172219020544
 10
3215.2336597039107
 20
343.73277877877706
  0
LWPOLYLINE
  5
75
330
17
100
AcDbEntity
  8
M
100
AcDbPolyline
 90
5
 70
1
 10
3232.6165909037554
 20
454.43330860709375
 10
3230.2336597039107
 20
450.51849306449134
 10
3232.6165909037554
 20
446.6036775218889
 10
3234.9995221036006
 20
450.51849306449134
 10
3232.6165909037554
 20
454.43330860709375
  0
LWPOLYLINE
  5
76
330
17
100
AcDbEntity
  8
M
100
AcDbPolyline
 90
12
 70
1
 10
3207.5910600251946
 20
375.07049028853976
 10
3205.8937250021513
 20
377.8589692549675
 10
3202.6727901386935
 20
377.8589692549675
 10
3198.566993037244
 20
371.11373115972947
 10
3200.97545511565
 20
367.1569720309191
 10
3207.6165909037554
 20
372.6121907140055
 10
3210.98573007128
 20
369.8446835406818
 10
3232.560391668818
 20
369.8446835406818
 10
3234.9995221036006
 20
373.85182639782465
 10
3232.560391668818
 20
377.8589692549675
 10
3210.98573007128
 20
377.8589692549675
 10
3207.5910600251946
 20
375.07049028853976
  0
LWPOLYLINE
  5
77
330
17
100
AcDbEntity
  8
M
100
AcDbPolyline
 90
7
 70
1
 10
3224.2832575704224
 20
320.65129656950796
 10
3225.949924237089
 20
317.9132013314128
 10
3228.3394856263835
 20
321.8389093281108
 10
3225.914817372673
 20
328.47788192755576
 10
3220.2396247642755
 20
321.81821713198735
 10
3222.6165909037554
 20
317.9132013314128
 10
3224.2832575704224
 20
320.65129656950796
  0
LWPOLYLINE
  5
78
330
17
100
AcDbEntity
  8
M
100
AcDbPolyline
 90
10
 70
1
 10
3225.0078820846884
 20
423.1512749381833
 10
3226.666188770267
 20
425.8756359216341
 10
3224.227058335485
 20
429.882778778777
 10
3221.0061234720265
 20
429.882778778777
 10
3218.566993037244
 20
425.8756359216341
 10
3221.9003263705777
 20
420.39944544544375
 10
3220.2336597039107
 20
417.6613502073485
 10
3222.636340215754
 20
413.7140893664634
 10
3226.6699777404206
 20
417.6901034979206
 10
3225.0078820846884
 20
423.1512749381833
  0
LWPOLYLINE
  5
79
330
17
100
AcDbEntity
  8
M
100
AcDbPolyline
 90
5
 70
1
 10
3217.6301373100832
 20
479.4385655686362
 10
3223.3268903765693
 20
486.1235309017573
 10
3220.9363778307616
 20
490.0508015127274
 10
3215.2396247642755
 20
483.3658361796063
 10
3217.6301373100832
 20
479.4385655686362
  0
LWPOLYLINE
  5
7A
330
17
100
AcDbEntity
  8
M
100
AcDbPolyline
 90
11
 70
1
 10
3209.227058335485
 20
413.45420735020565
 10
3206.006123472027
 20
413.45420735020565
 10
3204.3087884489837
 20
410.6657283837778
 10
3200.97545511565
 20
413.40382362187313
 10
3198.566993037244
 20
409.4470644930628
 10
3200.97545511565
 20
405.49030536425244
 10
3204.3087884489837
 20
408.2284006023477
 10
3206.006123472027
 20
405.4399216359199
 10
3209.227058335485
 20
405.4399216359199
 10
3211.666188770267
 20
409.4470644930628
 10
3209.227058335485
 20
413.45420735020565
  0
LWPOLYLINE
  5
7B
330
17
100
AcDbEntity
  8
M
100
AcDbPolyline
 90
5
 70
1
 10
3206.900326370577
 20
486.11373115972947
 10
3209.2832575704224
 20
482.198915617127
 10
3211.666188770267
 20
486.11373115972947
 10
3209.2832575704224
 20
490.0285467023319
 10
3206.900326370577
 20
486.11373115972947
  0
LWPOLYLINE
  5
7C
330
17
100
AcDbEntity
  8
M
100
AcDbPolyline
 90
19
 70
1
 10
3195.9243933585276
 20
344.95144266949217
 10
3194.2832575704224
 20
347.6475943213795
 10
3191.900326370577
 20
343.73277877877706
 10
3195.2336597039107
 20
338.2565883025865
 10
3191.900326370577
 20
332.7803978263961
 10
3194.2832575704224
 20
328.8655822837937
 10
3195.893725002151
 20
331.51135020734847
 10
3199.33945680536
 20
331.51135020734847
 10
3201.900326370577
 20
327.3042073502056
 10
3196.900326370577
 20
319.0899216359199
 10
3199.3242697901374
 20
315.10772887521466
 10
3205.8815705375646
 20
317.800905967908
 10
3208.332855436934
 20
321.8280168740152
 10
3204.9995221036
 20
327.3042073502056
 10
3208.3233375488935
 20
332.76476129604384
 10
3199.99000421556
 20
340.97904701032957
 10
3201.666188770267
 20
343.73277877877706
 10
3199.2577266918606
 20
347.6895379075874
 10
3195.9243933585276
 20
344.95144266949217
  0
LWPOLYLINE
  5
7D
330
17
100
AcDbEntity
  8
M
100
AcDbPolyline
 90
5
 70
1
 10
3202.636340215754
 20
449.3093274617014
 10
3206.656670882227
 20
453.27222483293883
 10
3204.263508258424
 20
457.2038491434717
 10
3200.2431775919513
 20
453.2409517722342
 10
3202.636340215754
 20
449.3093274617014
  0
LWPOLYLINE
  5
7E
330
17
100
AcDbEntity
  8
M
100
AcDbPolyline
 90
5
 70
1
 10
3188.3328554369336
 20
453.2565883025865
 10
3185.949924237089
 20
457.17140384518893
 10
3183.5669930372437
 20
453.2565883025865
 10
3185.949924237089
 20
449.3417727599841
 10
3188.3328554369336
 20
453.2565883025865
  0
LWPOLYLINE
  5
7F
330
17
100
AcDbEntity
  8
M
100
AcDbPolyline
 90
5
 70
1
 10
3181.909844258618
 20
346.45523748652
 10
3184.303006882421
 20
342.5236131759871
 10
3188.3233375488935
 20
346.48651054722455
 10
3185.930174925091
 20
350.4181348577574
 10
3181.909844258618
 20
346.45523748652
  0
LWPOLYLINE
  5
80
330
17
100
AcDbEntity
  8
M
100
AcDbPolyline
 90
5
 70
1
 10
3184.303006882421
 20
326.0950417474157
 10
3188.3233375488935
 20
330.0579391186531
 10
3185.930174925091
 20
333.989563429186
 10
3181.909844258618
 20
330.0266660579485
 10
3184.303006882421
 20
326.0950417474157
  0
LWPOLYLINE
  5
81
330
17
100
AcDbEntity
  8
M
100
AcDbPolyline
 90
8
 70
1
 10
3440.969673549087
 20
320.29908723870994
 10
3436.637976279828
 20
324.56890311840834
 10
3444.2922631745655
 20
331.5549586175737
 10
3450.2396247642755
 20
324.57591185413827
 10
3447.6727901386935
 20
320.3589692549675
 10
3444.227058335485
 20
320.3589692549675
 10
3442.6165909037554
 20
323.0047371785223
 10
3440.969673549087
 20
320.29908723870994
  0
LWPOLYLINE
  5
82
330
17
100
AcDbEntity
  8
M
100
AcDbPolyline
 90
29
 70
1
 10
3189.1981867836557
 20
49.33240476902223
 10
3184.2391496443147
 20
54.76373115972943
 10
3180.8996817549746
 20
54.76373115972943
 10
3171.683257570422
 20
67.15204158961441
 10
3171.683257570422
 20
108.29106698999225
 10
3179.224913469306
 20
117.92762730523243
 10
3189.218507101957
 20
120.66396841893456
 10
3190.9243933585276
 20
123.46649584044289
 10
3194.3190634046136
 20
120.67801687401514
 10
3272.5807850695646
 20
120.67801687401514
 10
3282.6308468885595
 20
128.93342479676096
 10
3289.3308881012226
 20
120.67801687401514
 10
3292.672790138693
 20
120.67801687401514
 10
3301.0214290034623
 20
106.9623958818946
 10
3306.015188654876
 20
104.22771797754893
 10
3319.322064766385
 20
87.83174562586827
 10
3344.228978395758
 20
93.28754575420706
 10
3350.0165909037555
 20
100.07913186053075
 10
3350.0165909037555
 20
105.54653466474618
 10
3352.6040343770605
 20
109.79733465660458
 10
3365.2210668858806
 20
94.59681453883562
 10
3363.546579906292
 20
80.84210006364157
 10
3361.8832575704223
 20
78.10949908328413
 10
3361.8832575704223
 20
67.17027929458163
 10
3358.549924237089
 20
56.2178983422007
 10
3358.549924237089
 20
47.99769434041168
 10
3354.3485789061274
 20
38.334600079200534
 10
3193.3841176017127
 20
39.704763887491225
 10
3189.1981867836557
 20
49.33240476902223
  0
LWPOLYLINE
  5
83
330
17
100
AcDbEntity
  8
M
100
AcDbPolyline
 90
5
 70
1
 10
3356.900326370577
 20
308.13754068353893
 10
3354.2832575704224
 20
303.8380705118556
 10
3351.666188770267
 20
308.13754068353893
 10
3354.2832575704224
 20
312.43701085522224
 10
3356.900326370577
 20
308.13754068353893
  0
LWPOLYLINE
  5
84
330
17
100
AcDbEntity
  8
M
100
AcDbPolyline
 90
5
 70
1
 10
3351.900326370577
 20
297.185159731158
 10
3349.2832575704224
 20
292.8856895594747
 10
3346.666188770267
 20
297.185159731158
 10
3349.2832575704224
 20
301.48462990284133
 10
3351.900326370577
 20
297.185159731158
  0
LWPOLYLINE
  5
85
330
17
100
AcDbEntity
  8
M
100
AcDbPolyline
 90
10
 70
1
 10
3333.3905138439522
 20
340.8999590148657
 10
3331.666188770267
 20
343.73277877877706
 10
3334.2270583354843
 20
347.9399216359199
 10
3339.227058335485
 20
347.9399216359199
 10
3340.949924237089
 20
350.77034418855555
 10
3342.6727901386935
 20
347.9399216359199
 10
3347.6727901386935
 20
347.9399216359199
 10
3350.2336597039102
 20
343.73277877877706
 10
3347.669400142099
 20
339.52006664151537
 10
3333.3905138439522
 20
340.8999590148657
  0
LWPOLYLINE
  5
86
330
17
100
AcDbEntity
  8
M
100
AcDbPolyline
 90
5
 70
1
 10
3278.5765109252843
 20
401.24841530912937
 10
3275.969673549087
 20
396.96575390537646
 10
3271.656670882227
 20
401.21714224842475
 10
3274.2635082584243
 20
405.49980365217766
 10
3278.5765109252843
 20
401.24841530912937
  0
LWPOLYLINE
  5
87
330
17
100
AcDbEntity
  8
M
100
AcDbPolyline
 90
5
 70
1
 10
3198.332855436934
 20
272.5423025883008
 10
3200.949924237089
 20
276.8417727599841
 10
3203.5669930372437
 20
272.5423025883008
 10
3200.949924237089
 20
268.2428324166176
 10
3198.332855436934
 20
272.5423025883008
  0
LWPOLYLINE
  5
88
330
17
100
AcDbEntity
  8
M
100
AcDbPolyline
 90
7
 70
1
 10
3189.3309847252003
 20
268.32124131375315
 10
3183.386288030718
 20
269.7164252318458
 10
3181.666188770267
 20
272.5423025883008
 10
3184.227058335485
 20
276.74944544544365
 10
3189.33945680536
 20
276.74944544544365
 10
3191.900326370577
 20
272.5423025883008
 10
3189.3309847252003
 20
268.32124131375315
  0
LWPOLYLINE
  5
89
330
17
100
AcDbEntity
  8
M
100
AcDbPolyline
 90
48
 70
1
 10
4654.2832575704215
 20
298.3618800356652
 10
4651.666188770267
 20
302.6613502073485
 10
4654.2832575704215
 20
306.9608203790318
 10
4655.949924237088
 20
304.2227251409365
 10
4658.332855436934
 20
308.13754068353893
 10
4655.949924237088
 20
312.05235622614134
 10
4654.2832575704215
 20
309.31426098804616
 10
4652.566916811868
 20
312.13396366281256
 10
4645.016590903755
 20
310.7557295684744
 10
4645.016590903755
 20
431.44971557536303
 10
4709.338722627103
 20
432.8220801668632
 10
4711.900326370577
 20
428.61373115972947
 10
4707.672790138693
 20
421.6684930644914
 10
4704.319063404613
 20
421.6684930644914
 10
4697.689863404534
 20
416.2230787787119
 10
4687.684186290421
 20
402.5248303486769
 10
4677.683783224028
 20
397.0484191456519
 10
4668.570399454995
 20
384.7986110924713
 10
4670.216590903755
 20
382.0941537123651
 10
4670.216590903755
 20
376.57792298773006
 10
4666.883257570422
 20
362.8874467972539
 10
4666.883257570422
 20
354.65711813090326
 10
4665.2396247642755
 20
351.9568642350907
 10
4670.996091790815
 20
345.20182639782473
 10
4681.006123472026
 20
345.20182639782473
 10
4683.54444628409
 20
341.0317246351485
 10
4685.219625013996
 20
332.7754866091827
 10
4683.5586330561555
 20
327.3179416048499
 10
4686.8919663894885
 20
321.84175112865955
 10
4685.223279320451
 20
316.35892218753423
 10
4690.234003753666
 20
305.3830496195383
 10
4684.269711164095
 20
298.38413484606076
 10
4681.674548751354
 20
302.6476159527042
 10
4683.341215418021
 20
308.12380642889457
 10
4681.666188770267
 20
310.8756359216341
 10
4683.332855436934
 20
313.61373115972947
 10
4680.893725002151
 20
317.62087401687234
 10
4677.672790138692
 20
317.62087401687234
 10
4673.566993037243
 20
310.8756359216341
 10
4678.566993037243
 20
302.6613502073485
 10
4676.006123472026
 20
298.45420735020565
 10
4671.006123472026
 20
298.45420735020565
 10
4669.308788448983
 20
295.66572838377783
 10
4665.914118402897
 20
298.45420735020565
 10
4662.672790138693
 20
298.45420735020565
 10
4660.966000607608
 20
295.650195977709
 10
4655.966000607607
 20
301.12638645389956
 10
4654.2832575704215
 20
298.3618800356652
  0
LWPOLYLINE
  5
8A
330
17
100
AcDbEntity
  8
M
100
AcDbPolyline
 90
7
 70
1
 10
4669.227058335484
 20
326.03515973115805
 10
4671.666188770267
 20
330.0423025883008
 10
4669.227058335484
 20
334.04944544544367
 10
4664.33945680536
 20
334.04944544544367
 10
4661.900326370577
 20
330.0423025883008
 10
4664.33945680536
 20
326.03515973115805
 10
4669.227058335484
 20
326.03515973115805
  0
LWPOLYLINE
  5
8B
330
17
100
AcDbEntity
  8
M
100
AcDbPolyline
 90
13
 70
1
 10
4676.006123472026
 20
65.71611211211037
 10
4671.883257570422
 20
58.94283241661746
 10
4671.883257570422
 20
23.415761653114544
 10
4690.241947833917
 20
4.222585468550921
 10
4687.671678418278
 20
0.0
 10
4645.016590903755
 20
1.374043435341754
 10
4645.016590903755
 20
83.70914738399871
 10
4674.337830558626
 20
85.08545046983951
 10
4676.006123472026
 20
82.34468354068181
 10
4682.682155566398
 20
82.34468354068181
 10
4686.899848474178
 20
72.64398985279075
 10
4680.996091790815
 20
65.71611211211037
 10
4676.006123472026
 20
65.71611211211037
  0
LWPOLYLINE
  5
8C
330
17
100
AcDbEntity
  8
M
100
AcDbPolyline
 90
5
 70
1
 10
4675.930174925091
 20
202.88075603312984
 10
4680.243177591951
 20
198.62936769008178
 10
4677.636340215753
 20
194.346706286329
 10
4673.323337548893
 20
198.59809462937716
 10
4675.930174925091
 20
202.88075603312984
  0
LWPOLYLINE
  5
8D
330
17
100
AcDbEntity
  8
M
100
AcDbPolyline
 90
27
 70
1
 10
4645.016590903755
 20
286.2846706950473
 10
4650.918251660358
 20
290.4399216359199
 10
4657.560391668818
 20
290.4399216359199
 10
4659.267181199902
 20
293.24393300841643
 10
4664.283257570422
 20
287.7501350788
 10
4669.299333940941
 20
293.24393300841643
 10
4673.566993037243
 20
286.23277877877706
 10
4670.220925638563
 20
280.73566805237283
 10
4671.88759230523
 20
269.78328709999187
 10
4668.561503719555
 20
264.31899870924025
 10
4671.894837052888
 20
256.1047129949545
 10
4667.632667274274
 20
249.1025769300901
 10
4662.632667274274
 20
254.5787674062805
 10
4661.006123472026
 20
251.9065883025866
 10
4657.560391668818
 20
251.9065883025866
 10
4654.999522103601
 20
256.11373115972947
 10
4658.332855436934
 20
261.5899216359199
 10
4655.949924237088
 20
265.5047371785223
 10
4654.2832575704215
 20
262.7666419404271
 10
4652.639227914344
 20
265.4675478039827
 10
4650.227029514461
 20
258.86271885192025
 10
4653.566993037243
 20
253.37563592163414
 10
4645.867873066192
 20
240.72708168347978
 10
4645.015028266167
 20
256.1392055696611
 10
4646.666188770267
 20
258.85182639782465
 10
4645.016590903755
 20
261.5618800356652
 10
4645.016590903755
 20
286.2846706950473
  0
LWPOLYLINE
  5
8E
330
17
100
AcDbEntity
  8
M
100
AcDbPolyline
 90
5
 70
1
 10
4662.616590903755
 20
265.5047371785223
 10
4660.23365970391
 20
261.5899216359199
 10
4662.616590903755
 20
257.6751060933174
 10
4664.999522103601
 20
261.5899216359199
 10
4662.616590903755
 20
265.5047371785223
  0
LWPOLYLINE
  5
8F
330
17
100
AcDbEntity
  8
M
100
AcDbPolyline
 90
18
 70
1
 10
4646.718723582422
 20
239.81657135002277
 10
4657.588535833658
 20
235.69559857345556
 10
4667.632667274274
 20
246.6963139607974
 10
4670.23365970391
 20
242.4232549692532
 10
4668.566993037244
 20
239.685159731158
 10
4671.900326370576
 20
234.20896925496749
 10
4669.33945680536
 20
230.00182639782463
 10
4662.672790138693
 20
230.00182639782463
 10
4660.238683054312
 20
226.00293618776868
 10
4666.905349720977
 20
217.78865047348305
 10
4662.672790138693
 20
210.83515973115797
 10
4657.672790138693
 20
210.83515973115797
 10
4650.949924237088
 20
199.79045146423658
 10
4645.016590903755
 20
209.5380705118557
 10
4645.016590903755
 20
220.5572779359428
 10
4649.992184714089
 20
226.00673782345072
 10
4645.0078820846875
 20
234.19523500032312
 10
4646.718723582422
 20
239.81657135002277
  0
LWPOLYLINE
  5
90
330
17
100
AcDbEntity
  8
M
100
AcDbPolyline
 90
5
 70
1
 10
4671.900326370576
 20
195.87563592163414
 10
4669.283257570422
 20
191.57616574995083
 10
4666.666188770267
 20
195.87563592163414
 10
4669.283257570422
 20
200.17510609331757
 10
4671.900326370576
 20
195.87563592163414
  0
LWPOLYLINE
  5
91
330
17
100
AcDbEntity
  8
M
100
AcDbPolyline
 90
6
 70
1
 10
4662.672790138693
 20
200.082778778777
 10
4665.23365970391
 20
195.87563592163414
 10
4662.6464285951915
 20
191.62518481445434
 10
4656.649198941642
 20
195.84772406032147
 10
4659.227058335485
 20
200.082778778777
 10
4662.672790138693
 20
200.082778778777
  0
LWPOLYLINE
  5
92
330
17
100
AcDbEntity
  8
M
100
AcDbPolyline
 90
5
 70
1
 10
4652.616590903755
 20
191.57616574995083
 10
4649.999522103601
 20
195.87563592163414
 10
4652.616590903755
 20
200.17510609331757
 10
4655.23365970391
 20
195.87563592163414
 10
4652.616590903755
 20
191.57616574995083
  0
ENDSEC
  0
SECTION
  2
OBJECTS
  0
DICTIONARY
  5
A
330
0
100
AcDbDictionary
281
1
  3
ACAD_COLOR
350
B
  3
ACAD_GROUP
350
C
  3
ACAD_LAYOUT
350
D
  3
ACAD_MATERIAL
350
E
  3
ACAD_MLEADERSTYLE
350
F
  3
ACAD_MLINESTYLE
350
10
  3
ACAD_PLOTSETTINGS
350
11
  3
ACAD_PLOTSTYLENAME
350
12
  3
ACAD_SCALELIST
350
14
  3
ACAD_TABLESTYLE
350
15
  3
ACAD_VISUALSTYLE
350
16
  3
EZDXF_META
350
2D
  0
DICTIONARY
  5
B
330
A
100
AcDbDictionary
281
1
  0
DICTIONARY
  5
C
330
A
100
AcDbDictionary
281
1
  0
DICTIONARY
  5
D
330
A
100
AcDbDictionary
281
1
  3
Model
350
1A
  3
Layout1
350
1E
  0
DICTIONARY
  5
E
330
A
100
AcDbDictionary
281
1
  3
ByBlock
350
1F
  3
ByLayer
350
20
  3
Global
350
21
  0
DICTIONARY
  5
F
330
A
100
AcDbDictionary
281
1
  3
Standard
350
2C
  0
DICTIONARY
  5
10
330
A
100
AcDbDictionary
281
1
  3
Standard
350
22
  0
DICTIONARY
  5
11
330
A
100
AcDbDictionary
281
1
  0
ACDBDICTIONARYWDFLT
  5
12
330
A
100
AcDbDictionary
281
1
  3
Normal
350
13
100
AcDbDictionaryWithDefault
340
13
  0
ACDBPLACEHOLDER
  5
13
330
12
  0
DICTIONARY
  5
14
330
A
100
AcDbDictionary
281
1
  0
DICTIONARY
  5
15
330
A
100
AcDbDictionary
281
1
  0
DICTIONARY
  5
16
330
A
100
AcDbDictionary
281
1
  0
LAYOUT
  5
1A
330
D
100
AcDbPlotSettings
  1

  4
A3
  6

 40
7.5
 41
20.0
 42
7.5
 43
20.0
 44
420.0
 45
297.0
 46
0.0
 47
0.0
 48
0.0
 49
0.0
140
0.0
141
0.0
142
1.0
143
1.0
 70
1024
 72
1
 73
0
 74
5
  7

 75
16
 76
0
 77
2
 78
300
147
1.0
148
0.0
149
0.0
100
AcDbLayout
  1
Model
 70
1
 71
0
 10
0.0
 20
0.0
 11
420.0
 21
297.0
 12
0.0
 22
0.0
 32
0.0
 14
1e+20
 24
1e+20
 34
1e+20
 15
-1e+20
 25
-1e+20
 35
-1e+20
146
0.0
 13
0.0
 23
0.0
 33
0.0
 16
1.0
 26
0.0
 36
0.0
 17
0.0
 27
1.0
 37
0.0
 76
1
330
17
  0
LAYOUT
  5
1E
330
D
100
AcDbPlotSettings
  1

  4
A3
  6

 40
7.5
 41
20.0
 42
7.5
 43
20.0
 44
420.0
 45
297.0
 46
0.0
 47
0.0
 48
0.0
 49
0.0
140
0.0
141
0.0
142
1.0
143
1.0
 70
0
 72
1
 73
0
 74
5
  7

 75
16
 76
0
 77
2
 78
300
147
1.0
148
0.0
149
0.0
100
AcDbLayout
  1
Layout1
 70
1
 71
1
 10
0.0
 20
0.0
 11
420.0
 21
297.0
 12
0.0
 22
0.0
 32
0.0
 14
1e+20
 24
1e+20
 34
1e+20
 15
-1e+20
 25
-1e+20
 35
-1e+20
146
0.0
 13
0.0
 23
0.0
 33
0.0
 16
1.0
 26
0.0
 36
0.0
 17
0.0
 27
1.0
 37
0.0
 76
1
330
1B
  0
MATERIAL
  5
1F
102
{ACAD_REACTORS
330
E
102
}
330
E
100
AcDbMaterial
  1
ByBlock
  2

 70
0
 40
1.0
 71
1
 41
1.0
 91
-1023410177
 42
1.0
 72
1
  3

 73
1
 74
1
 75
1
 44
0.5
 73
0
 45
1.0
 46
1.0
 77
1
  4

 78
1
 79
1
170
1
 48
1.0
171
1
  6

172
1
173
1
174
1
140
1.0
141
1.0
175
1
  7

176
1
177
1
178
1
143
1.0
179
1
  8

270
1
271
1
272
1
145
1.0
146
1.0
273
1
  9

274
1
275
1
276
1
 42
1.0
 72
1
  3

 73
1
 74
1
 75
1
 94
63
  0
MATERIAL
  5
20
102
{ACAD_REACTORS
330
E
102
}
330
E
100
AcDbMaterial
  1
ByLayer
  2

 70
0
 40
1.0
 71
1
 41
1.0
 91
-1023410177
 42
1.0
 72
1
  3

 73
1
 74
1
 75
1
 44
0.5
 73
0
 45
1.0
 46
1.0
 77
1
  4

 78
1
 79
1
170
1
 48
1.0
171
1
  6

172
1
173
1
174
1
140
1.0
141
1.0
175
1
  7

176
1
177
1
178
1
143
1.0
179
1
  8

270
1
271
1
272
1
145
1.0
146
1.0
273
1
  9

274
1
275
1
276
1
 42
1.0
 72
1
  3

 73
1
 74
1
 75
1
 94
63
  0
MATERIAL
  5
21
102
{ACAD_REACTORS
330
E
102
}
330
E
100
AcDbMaterial
  1
Global
  2

 70
0
 40
1.0
 71
1
 41
1.0
 91
-1023410177
 42
1.0
 72
1
  3

 73
1
 74
1
 75
1
 44
0.5
 73
0
 45
1.0
 46
1.0
 77
1
  4

 78
1
 79
1
170
1
 48
1.0
171
1
  6

172
1
173
1
174
1
140
1.0
141
1.0
175
1
  7

176
1
177
1
178
1
143
1.0
179
1
  8

270
1
271
1
272
1
145
1.0
146
1.0
273
1
  9

274
1
275
1
276
1
 42
1.0
 72
1
  3

 73
1
 74
1
 75
1
 94
63
  0
MLINESTYLE
  5
22
102
{ACAD_REACTORS
330
10
102
}
330
10
100
AcDbMlineStyle
  2
Standard
 70
0
  3

 62
256
 51
90.0
 52
90.0
 71
2
 49
0.5
 62
256
  6
BYLAYER
 49
-0.5
 62
256
  6
BYLAYER
  0
MLEADERSTYLE
  5
2C
102
{ACAD_REACTORS
330
F
102
}
330
F
100
AcDbMLeaderStyle
179
2
170
2
171
1
172
0
 90
2
 40
0.0
 41
0.0
173
1
 91
-1056964608
 92
-2
290
1
 42
2.0
291
1
 43
8.0
  3
Standard
 44
4.0
300

342
29
174
1
175
1
176
0
178
1
 93
-1056964608
 45
4.0
292
0
297
0
 46
4.0
 94
-1056964608
 47
1.0
 49
1.0
140
1.0
294
1
141
0.0
177
0
142
1.0
295
0
296
0
143
3.75
271
0
272
9
273
9
  0
DICTIONARY
  5
2D
330
A
100
AcDbDictionary
280
1
281
1
  3
CREATED_BY_EZDXF
350
2E
  3
WRITTEN_BY_EZDXF
350
95
  0
DICTIONARYVAR
  5
2E
330
2D
100
DictionaryVariables
280
0
  1
1.4.4 @ 2026-07-21T09:53:46.349816+00:00
  0
DICTIONARYVAR
  5
95
330
2D
100
DictionaryVariables
280
0
  1
1.4.4 @ 2026-07-21T09:53:46.361132+00:00
  0
ENDSEC
  0
EOF
