  0
SECTION
  2
HEADER
  9
$ACADVER
  1
AC1027
  9
$ACADMAINTVER
 70
105
  9
$DWGCODEPAGE
  3
ANSI_1252
  9
$LASTSAVEDBY
  1
ezdxf
  9
$REQUIREDVERSIONS
160
0
  9
$INSBASE
 10
0.0
 20
0.0
 30
0.0
  9
$EXTMIN
 10
1e+20
 20
1e+20
 30
1e+20
  9
$EXTMAX
 10
-1e+20
 20
-1e+20
 30
-1e+20
  9
$LIMMIN
 10
0.0
 20
0.0
  9
$LIMMAX
 10
420.0
 20
297.0
  9
$ORTHOMODE
 70
0
  9
$REGENMODE
 70
1
  9
$FILLMODE
 70
1
  9
$QTEXTMODE
 70
0
  9
$MIRRTEXT
 70
1
  9
$LTSCALE
 40
1.0
  9
$ATTMODE
 70
1
  9
$TEXTSIZE
 40
2.5
  9
$TRACEWID
 40
1.0
  9
$TEXTSTYLE
  7
Standard
  9
$CLAYER
  8
0
  9
$CELTYPE
  6
ByLayer
  9
$CECOLOR
 62
256
  9
$CELTSCALE
 40
1.0
  9
$DISPSILH
 70
0
  9
$DIMSCALE
 40
1.0
  9
$DIMASZ
 40
2.5
  9
$DIMEXO
 40
0.625
  9
$DIMDLI
 40
3.75
  9
$DIMRND
 40
0.0
  9
$DIMDLE
 40
0.0
  9
$DIMEXE
 40
1.25
  9
$DIMTP
 40
0.0
  9
$DIMTM
 40
0.0
  9
$DIMTXT
 40
2.5
  9
$DIMCEN
 40
2.5
  9
$DIMTSZ
 40
0.0
  9
$DIMTOL
 70
0
  9
$DIMLIM
 70
0
  9
$DIMTIH
 70
0
  9
$DIMTOH
 70
0
  9
$DIMSE1
 70
0
  9
$DIMSE2
 70
0
  9
$DIMTAD
 70
1
  9
$DIMZIN
 70
8
  9
$DIMBLK
  1

  9
$DIMASO
 70
1
  9
$DIMSHO
 70
1
  9
$DIMPOST
  1

  9
$DIMAPOST
  1

  9
$DIMALT
 70
0
  9
$DIMALTD
 70
3
  9
$DIMALTF
 40
0.03937007874
  9
$DIMLFAC
 40
1.0
  9
$DIMTOFL
 70
1
  9
$DIMTVP
 40
0.0
  9
$DIMTIX
 70
0
  9
$DIMSOXD
 70
0
  9
$DIMSAH
 70
0
  9
$DIMBLK1
  1

  9
$DIMBLK2
  1

  9
$DIMSTYLE
  2
ISO-25
  9
$DIMCLRD
 70
0
  9
$DIMCLRE
 70
0
  9
$DIMCLRT
 70
0
  9
$DIMTFAC
 40
1.0
  9
$DIMGAP
 40
0.625
  9
$DIMJUST
 70
0
  9
$DIMSD1
 70
0
  9
$DIMSD2
 70
0
  9
$DIMTOLJ
 70
0
  9
$DIMTZIN
 70
8
  9
$DIMALTZ
 70
0
  9
$DIMALTTZ
 70
0
  9
$DIMUPT
 70
0
  9
$DIMDEC
 70
2
  9
$DIMTDEC
 70
2
  9
$DIMALTU
 70
2
  9
$DIMALTTD
 70
3
  9
$DIMTXSTY
  7
Standard
  9
$DIMAUNIT
 70
0
  9
$DIMADEC
 70
0
  9
$DIMALTRND
 40
0.0
  9
$DIMAZIN
 70
0
  9
$DIMDSEP
 70
44
  9
$DIMATFIT
 70
3
  9
$DIMFRAC
 70
0
  9
$DIMLDRBLK
  1

  9
$DIMLUNIT
 70
2
  9
$DIMLWD
 70
-2
  9
$DIMLWE
 70
-2
  9
$DIMTMOVE
 70
0
  9
$DIMFXL
 40
1.0
  9
$DIMFXLON
 70
0
  9
$DIMJOGANG
 40
0.785398163397
  9
$DIMTFILL
 70
0
  9
$DIMTFILLCLR
 70
0
  9
$DIMARCSYM
 70
0
  9
$DIMLTYPE
  6

  9
$DIMLTEX1
  6

  9
$DIMLTEX2
  6

  9
$DIMTXTDIRECTION
 70
0
  9
$LUNITS
 70
2
  9
$LUPREC
 70
4
  9
$SKETCHINC
 40
1.0
  9
$FILLETRAD
 40
10.0
  9
$AUNITS
 70
0
  9
$AUPREC
 70
2
  9
$MENU
  1
.
  9
$ELEVATION
 40
0.0
  9
$PELEVATION
 40
0.0
  9
$THICKNESS
 40
0.0
  9
$LIMCHECK
 70
0
  9
$CHAMFERA
 40
0.0
  9
$CHAMFERB
 40
0.0
  9
$CHAMFERC
 40
0.0
  9
$CHAMFERD
 40
0.0
  9
$SKPOLY
 70
0
  9
$TDCREATE
 40
2461229.6530902777
  9
$TDUCREATE
 40
2458532.153996898
  9
$TDUPDATE
 40
2461229.6530902777
  9
$TDUUPDATE
 40
2458532.1544311
  9
$TDINDWG
 40
0.0
  9
$TDUSRTIMER
 40
0.0
  9
$USRTIMER
 70
1
  9
$ANGBASE
 50
0.0
  9
$ANGDIR
 70
0
  9
$PDMODE
 70
0
  9
$PDSIZE
 40
0.0
  9
$PLINEWID
 40
0.0
  9
$SPLFRAME
 70
0
  9
$SPLINETYPE
 70
6
  9
$SPLINESEGS
 70
8
  9
$HANDSEED
  5
76
  9
$SURFTAB1
 70
6
  9
$SURFTAB2
 70
6
  9
$SURFTYPE
 70
6
  9
$SURFU
 70
6
  9
$SURFV
 70
6
  9
$UCSBASE
  2

  9
$UCSNAME
  2

  9
$UCSORG
 10
0.0
 20
0.0
 30
0.0
  9
$UCSXDIR
 10
1.0
 20
0.0
 30
0.0
  9
$UCSYDIR
 10
0.0
 20
1.0
 30
0.0
  9
$UCSORTHOREF
  2

  9
$UCSORTHOVIEW
 70
0
  9
$UCSORGTOP
 10
0.0
 20
0.0
 30
0.0
  9
$UCSORGBOTTOM
 10
0.0
 20
0.0
 30
0.0
  9
$UCSORGLEFT
 10
0.0
 20
0.0
 30
0.0
  9
$UCSORGRIGHT
 10
0.0
 20
0.0
 30
0.0
  9
$UCSORGFRONT
 10
0.0
 20
0.0
 30
0.0
  9
$UCSORGBACK
 10
0.0
 20
0.0
 30
0.0
  9
$PUCSBASE
  2

  9
$PUCSNAME
  2

  9
$PUCSORG
 10
0.0
 20
0.0
 30
0.0
  9
$PUCSXDIR
 10
1.0
 20
0.0
 30
0.0
  9
$PUCSYDIR
 10
0.0
 20
1.0
 30
0.0
  9
$PUCSORTHOREF
  2

  9
$PUCSORTHOVIEW
 70
0
  9
$PUCSORGTOP
 10
0.0
 20
0.0
 30
0.0
  9
$PUCSORGBOTTOM
 10
0.0
 20
0.0
 30
0.0
  9
$PUCSORGLEFT
 10
0.0
 20
0.0
 30
0.0
  9
$PUCSORGRIGHT
 10
0.0
 20
0.0
 30
0.0
  9
$PUCSORGFRONT
 10
0.0
 20
0.0
 30
0.0
  9
$PUCSORGBACK
 10
0.0
 20
0.0
 30
0.0
  9
$USERI1
 70
0
  9
$USERI2
 70
0
  9
$USERI3
 70
0
  9
$USERI4
 70
0
  9
$USERI5
 70
0
  9
$USERR1
 40
0.0
  9
$USERR2
 40
0.0
  9
$USERR3
 40
0.0
  9
$USERR4
 40
0.0
  9
$USERR5
 40
0.0
  9
$WORLDVIEW
 70
1
  9
$SHADEDGE
 70
3
  9
$SHADEDIF
 70
70
  9
$TILEMODE
 70
1
  9
$MAXACTVP
 70
64
  9
$PINSBASE
 10
0.0
 20
0.0
 30
0.0
  9
$PLIMCHECK
 70
0
  9
$PEXTMIN
 10
1e+20
 20
1e+20
 30
1e+20
  9
$PEXTMAX
 10
-1e+20
 20
-1e+20
 30
-1e+20
  9
$PLIMMIN
 10
0.0
 20
0.0
  9
$PLIMMAX
 10
420.0
 20
297.0
  9
$UNITMODE
 70
0
  9
$VISRETAIN
 70
1
  9
$PLINEGEN
 70
0
  9
$PSLTSCALE
 70
1
  9
$TREEDEPTH
 70
3020
  9
$CMLSTYLE
  2
Standard
  9
$CMLJUST
 70
0
  9
$CMLSCALE
 40
20.0
  9
$PROXYGRAPHICS
 70
1
  9
$MEASUREMENT
 70
1
  9
$CELWEIGHT
370
-1
  9
$ENDCAPS
280
0
  9
$JOINSTYLE
280
0
  9
$LWDISPLAY
290
0
  9
$INSUNITS
 70
4
  9
$HYPERLINKBASE
  1

  9
$STYLESHEET
  1

  9
$XEDIT
290
1
  9
$CEPSNTYPE
380
0
  9
$PSTYLEMODE
290
1
  9
$FINGERPRINTGUID
  2
{CD95F38A-A1AB-4699-B49A-A5B96A330F40}
  9
$VERSIONGUID
  2
{0782FE9C-82B6-4957-9E2C-F7453598C67C}
  9
$EXTNAMES
290
1
  9
$PSVPSCALE
 40
0.0
  9
$OLESTARTUP
290
0
  9
$SORTENTS
280
127
  9
$INDEXCTL
280
0
  9
$HIDETEXT
280
1
  9
$XCLIPFRAME
280
1
  9
$HALOGAP
280
0
  9
$OBSCOLOR
 70
257
  9
$OBSLTYPE
280
0
  9
$INTERSECTIONDISPLAY
280
0
  9
$INTERSECTIONCOLOR
 70
257
  9
$DIMASSOC
280
2
  9
$PROJECTNAME
  1

  9
$CAMERADISPLAY
290
0
  9
$LENSLENGTH
 40
50.0
  9
$CAMERAHEIGHT
 40
0.0
  9
$STEPSPERSEC
 40
24.0
  9
$STEPSIZE
 40
100.0
  9
$3DDWFPREC
 40
2.0
  9
$PSOLWIDTH
 40
0.005
  9
$PSOLHEIGHT
 40
0.08
  9
$LOFTANG1
 40
1.570796326795
  9
$LOFTANG2
 40
1.570796326795
  9
$LOFTMAG1
 40
0.0
  9
$LOFTMAG2
 40
0.0
  9
$LOFTPARAM
 70
7
  9
$LOFTNORMALS
280
1
  9
$LATITUDE
 40
37.795
  9
$LONGITUDE
 40
-122.394
  9
$NORTHDIRECTION
 40
0.0
  9
$TIMEZONE
 70
-8000
  9
$LIGHTGLYPHDISPLAY
280
1
  9
$TILEMODELIGHTSYNCH
280
1
  9
$CMATERIAL
347
20
  9
$SOLIDHIST
280
0
  9
$SHOWHIST
280
1
  9
$DWFFRAME
280
2
  9
$DGNFRAME
280
2
  9
$REALWORLDSCALE
290
1
  9
$INTERFERECOLOR
 62
256
  9
$CSHADOW
280
0
  9
$SHADOWPLANELOCATION
 40
0.0
  0
ENDSEC
  0
SECTION
  2
CLASSES
  0
CLASS
  1
ACDBDICTIONARYWDFLT
  2
AcDbDictionaryWithDefault
  3
ObjectDBX Classes
 90
0
 91
0
280
0
281
0
  0
CLASS
  1
SUN
  2
AcDbSun
  3
SCENEOE
 90
1153
 91
0
280
0
281
0
  0
CLASS
  1
VISUALSTYLE
  2
AcDbVisualStyle
  3
ObjectDBX Classes
 90
4095
 91
0
280
0
281
0
  0
CLASS
  1
MATERIAL
  2
AcDbMaterial
  3
ObjectDBX Classes
 90
1153
 91
0
280
0
281
0
  0
CLASS
  1
SCALE
  2
AcDbScale
  3
ObjectDBX Classes
 90
1153
 91
0
280
0
281
0
  0
CLASS
  1
TABLESTYLE
  2
AcDbTableStyle
  3
ObjectDBX Classes
 90
4095
 91
0
280
0
281
0
  0
CLASS
  1
MLEADERSTYLE
  2
AcDbMLeaderStyle
  3
ACDB_MLEADERSTYLE_CLASS
 90
4095
 91
0
280
0
281
0
  0
CLASS
  1
DICTIONARYVAR
  2
AcDbDictionaryVar
  3
ObjectDBX Classes
 90
0
 91
0
280
0
281
0
  0
CLASS
  1
CELLSTYLEMAP
  2
AcDbCellStyleMap
  3
ObjectDBX Classes
 90
1152
 91
0
280
0
281
0
  0
CLASS
  1
MENTALRAYRENDERSETTINGS
  2
AcDbMentalRayRenderSettings
  3
SCENEOE
 90
1024
 91
0
280
0
281
0
  0
CLASS
  1
ACDBDETAILVIEWSTYLE
  2
AcDbDetailViewStyle
  3
ObjectDBX Classes
 90
1025
 91
0
280
0
281
0
  0
CLASS
  1
ACDBSECTIONVIEWSTYLE
  2
AcDbSectionViewStyle
  3
ObjectDBX Classes
 90
1025
 91
0
280
0
281
0
  0
CLASS
  1
RASTERVARIABLES
  2
AcDbRasterVariables
  3
ISM
 90
0
 91
0
280
0
281
0
  0
CLASS
  1
ACDBPLACEHOLDER
  2
AcDbPlaceHolder
  3
ObjectDBX Classes
 90
0
 91
0
280
0
281
0
  0
CLASS
  1
LAYOUT
  2
AcDbLayout
  3
ObjectDBX Classes
 90
0
 91
0
280
0
281
0
  0
ENDSEC
  0
SECTION
  2
TABLES
  0
TABLE
  2
VPORT
  5
8
330
0
100
AcDbSymbolTable
 70
1
  0
VPORT
  5
23
330
8
100
AcDbSymbolTableRecord
100
AcDbViewportTableRecord
  2
*Active
 70
0
 10
0.0
 20
0.0
 11
1.0
 21
1.0
 12
0.0
 22
0.0
 13
0.0
 23
0.0
 14
0.5
 24
0.5
 15
0.5
 25
0.5
 16
0.0
 26
0.0
 36
1.0
 17
0.0
 27
0.0
 37
0.0
 40
1000.0
 41
1.34
 42
50.0
 43
0.0
 44
0.0
 50
0.0
 51
0.0
 71
0
 72
1000
 73
1
 74
3
 75
0
 76
0
 77
0
 78
0
281
0
 65
0
146
0.0
  0
ENDTAB
  0
TABLE
  2
LTYPE
  5
2
330
0
100
AcDbSymbolTable
 70
3
  0
LTYPE
  5
24
330
2
100
AcDbSymbolTableRecord
100
AcDbLinetypeTableRecord
  2
ByBlock
 70
0
  3

 72
65
 73
0
 40
0.0
  0
LTYPE
  5
25
330
2
100
AcDbSymbolTableRecord
100
AcDbLinetypeTableRecord
  2
ByLayer
 70
0
  3

 72
65
 73
0
 40
0.0
  0
LTYPE
  5
26
330
2
100
AcDbSymbolTableRecord
100
AcDbLinetypeTableRecord
  2
Continuous
 70
0
  3

 72
65
 73
0
 40
0.0
  0
ENDTAB
  0
TABLE
  2
LAYER
  5
1
330
0
100
AcDbSymbolTable
 70
5
  0
LAYER
  5
27
330
1
100
AcDbSymbolTableRecord
100
AcDbLayerTableRecord
  2
0
 70
0
 62
7
  6
Continuous
370
-3
390
13
347
21
  0
LAYER
  5
28
330
1
100
AcDbSymbolTableRecord
100
AcDbLayerTableRecord
  2
Defpoints
 70
0
 62
7
  6
Continuous
290
0
370
-3
390
13
347
21
  0
LAYER
  5
2F
330
1
100
AcDbSymbolTableRecord
100
AcDbLayerTableRecord
  2
OUTLINE
 70
0
 62
5
  6
Continuous
370
-3
390
13
347
21
  0
LAYER
  5
30
330
1
100
AcDbSymbolTableRecord
100
AcDbLayerTableRecord
  2
SLOT
 70
0
 62
1
  6
Continuous
370
-3
390
13
347
21
  0
LAYER
  5
31
330
1
100
AcDbSymbolTableRecord
100
AcDbLayerTableRecord
  2
PIECE
 70
0
 62
3
  6
Continuous
370
-3
390
13
347
21
  0
ENDTAB
  0
TABLE
  2
STYLE
  5
5
330
0
100
AcDbSymbolTable
 70
1
  0
STYLE
  5
29
330
5
100
AcDbSymbolTableRecord
100
AcDbTextStyleTableRecord
  2
Standard
 70
0
 40
0.0
 41
1.0
 50
0.0
 71
0
 42
2.5
  3
txt
  4

  0
ENDTAB
  0
TABLE
  2
VIEW
  5
7
330
0
100
AcDbSymbolTable
 70
0
  0
ENDTAB
  0
TABLE
  2
UCS
  5
6
330
0
100
AcDbSymbolTable
 70
0
  0
ENDTAB
  0
TABLE
  2
APPID
  5
3
330
0
100
AcDbSymbolTable
 70
3
  0
APPID
  5
2A
330
3
100
AcDbSymbolTableRecord
100
AcDbRegAppTableRecord
  2
ACAD
 70
0
  0
APPID
  5
73
330
3
100
AcDbSymbolTableRecord
100
AcDbRegAppTableRecord
  2
HATCHBACKGROUNDCOLOR
 70
0
  0
APPID
  5
74
330
3
100
AcDbSymbolTableRecord
100
AcDbRegAppTableRecord
  2
EZDXF
 70
0
  0
ENDTAB
  0
TABLE
  2
DIMSTYLE
  5
4
330
0
100
AcDbSymbolTable
 70
1
100
AcDbDimStyleTable
  0
DIMSTYLE
105
2B
330
4
100
AcDbSymbolTableRecord
100
AcDbDimStyleTableRecord
  2
Standard
 70
0
 40
1.0
 41
2.5
 42
0.625
 43
3.75
 44
1.25
 45
0.0
 46
0.0
 47
0.0
 48
0.0
 49
2.5
140
2.5
141
2.5
142
0.0
143
0.03937007874
144
1.0
145
0.0
146
1.0
147
0.625
148
0.0
 69
0
 70
0
 71
0
 72
0
 73
0
 74
0
 75
0
 76
0
 77
1
 78
8
 79
3
170
0
171
3
172
1
173
0
174
0
175
0
176
0
177
0
178
0
179
2
271
2
272
2
273
2
274
3
275
0
276
0
277
2
278
44
279
0
280
0
281
0
282
0
283
0
284
8
285
0
286
0
288
0
289
3
290
0
371
-2
372
-2
  0
ENDTAB
  0
TABLE
  2
BLOCK_RECORD
  5
9
330
0
100
AcDbSymbolTable
 70
2
  0
BLOCK_RECORD
  5
17
330
9
100
AcDbSymbolTableRecord
100
AcDbBlockTableRecord
  2
*Model_Space
340
1A
 70
0
280
1
281
0
  0
BLOCK_RECORD
  5
1B
330
9
100
AcDbSymbolTableRecord
100
AcDbBlockTableRecord
  2
*Paper_Space
340
1E
 70
0
280
1
281
0
  0
ENDTAB
  0
ENDSEC
  0
SECTION
  2
BLOCKS
  0
BLOCK
  5
18
330
17
100
AcDbEntity
  8
0
100
AcDbBlockBegin
  2
*Model_Space
 70
0
 10
0.0
 20
0.0
 30
0.0
  3
*Model_Space
  1

  0
ENDBLK
  5
19
330
17
100
AcDbEntity
  8
0
100
AcDbBlockEnd
  0
BLOCK
  5
1C
330
1B
100
AcDbEntity
  8
0
100
AcDbBlockBegin
  2
*Paper_Space
 70
0
 10
0.0
 20
0.0
 30
0.0
  3
*Paper_Space
  1

  0
ENDBLK
  5
1D
330
1B
100
AcDbEntity
  8
0
100
AcDbBlockEnd
  0
ENDSEC
  0
SECTION
  2
ENTITIES
  0
LWPOLYLINE
  5
32
330
17
100
AcDbEntity
  8
OUTLINE
100
AcDbPolyline
 90
5
 70
1
 10
0.0
 20
0.0
 10
1200.0
 20
0.0
 10
1200.0
 20
1450.0
 10
0.0
 20
1450.0
 10
0.0
 20
0.0
  0
LWPOLYLINE
  5
33
330
17
100
AcDbEntity
  8
SLOT
100
AcDbPolyline
 90
5
 70
1
 10
348.45
 20
0.0
 10
351.54999999999995
 20
0.0
 10
351.54999999999995
 20
725.0000000000001
 10
348.45
 20
725.0000000000001
 10
348.45
 20
0.0
  0
LWPOLYLINE
  5
34
330
17
100
AcDbEntity
  8
SLOT
100
AcDbPolyline
 90
5
 70
1
 10
648.4499999999999
 20
0.0
 10
651.5500000000001
 20
0.0
 10
651.5500000000001
 20
725.0000000000001
 10
648.4499999999999
 20
725.0000000000001
 10
648.4499999999999
 20
0.0
  0
LWPOLYLINE
  5
35
330
17
100
AcDbEntity
  8
SLOT
100
AcDbPolyline
 90
5
 70
1
 10
948.4499999999999
 20
0.0
 10
951.55
 20
0.0
 10
951.55
 20
725.0000000000001
 10
948.4499999999999
 20
725.0000000000001
 10
948.4499999999999
 20
0.0
  0
LWPOLYLINE
  5
36
330
17
100
AcDbEntity
  8
SLOT
100
AcDbPolyline
 90
5
 70
1
 10
1148.45
 20
0.0
 10
1151.55
 20
0.0
 10
1151.55
 20
725.0000000000001
 10
1148.45
 20
725.0000000000001
 10
1148.45
 20
0.0
  0
LWPOLYLINE
  5
37
330
17
100
AcDbEntity
  8
PIECE
100
AcDbPolyline
 90
4
 70
1
 10
882.7571428571429
 20
605.6151777243178
 10
882.7571428571429
 20
616.5276794185393
 10
887.2726607995794
 20
611.0714285714284
 10
882.7571428571429
 20
605.6151777243178
  0
LWPOLYLINE
  5
38
330
17
100
AcDbEntity
  8
PIECE
100
AcDbPolyline
 90
5
 70
1
 10
848.6167790828852
 20
264.3187874770254
 10
852.9884642982221
 20
248.47142857142853
 10
844.1857142857143
 20
248.47142857142853
 10
844.1857142857143
 20
258.964584180444
 10
848.6167790828852
 20
264.3187874770254
  0
LWPOLYLINE
  5
39
330
17
100
AcDbEntity
  8
PIECE
100
AcDbPolyline
 90
4
 70
1
 10
831.3285714285715
 20
698.8294634386035
 10
831.3285714285715
 20
709.741965132825
 10
835.844089371008
 20
704.2857142857142
 10
831.3285714285715
 20
698.8294634386035
  0
LWPOLYLINE
  5
3A
330
17
100
AcDbEntity
  8
PIECE
100
AcDbPolyline
 90
4
 70
1
 10
831.3285714285715
 20
316.1705365613965
 10
835.844089371008
 20
310.7142857142857
 10
831.3285714285715
 20
305.25803486717496
 10
831.3285714285715
 20
316.1705365613965
  0
LWPOLYLINE
  5
3B
330
17
100
AcDbEntity
  8
PIECE
100
AcDbPolyline
 90
4
 70
1
 10
814.1857142857143
 20
709.7419651328249
 10
818.7012322281508
 20
704.2857142857142
 10
814.1857142857143
 20
698.8294634386035
 10
814.1857142857143
 20
709.7419651328249
  0
LWPOLYLINE
  5
3C
330
17
100
AcDbEntity
  8
PIECE
100
AcDbPolyline
 90
4
 70
1
 10
814.1857142857143
 20
564.7419651328249
 10
818.7012322281508
 20
559.2857142857142
 10
814.1857142857143
 20
553.8294634386035
 10
814.1857142857143
 20
564.7419651328249
  0
LWPOLYLINE
  5
3D
330
17
100
AcDbEntity
  8
PIECE
100
AcDbPolyline
 90
4
 70
1
 10
814.1857142857143
 20
263.82946343860357
 10
814.1857142857143
 20
274.741965132825
 10
818.7012322281508
 20
269.2857142857142
 10
814.1857142857143
 20
263.82946343860357
  0
LWPOLYLINE
  5
3E
330
17
100
AcDbEntity
  8
PIECE
100
AcDbPolyline
 90
5
 70
1
 10
814.3310647971707
 20
367.89021604845396
 10
818.7027500125079
 20
352.0428571428571
 10
809.9000000000001
 20
352.0428571428571
 10
809.9000000000001
 20
362.53601275187265
 10
814.3310647971707
 20
367.89021604845396
  0
LWPOLYLINE
  5
3F
330
17
100
AcDbEntity
  8
PIECE
100
AcDbPolyline
 90
4
 70
1
 10
801.5583750852937
 20
548.9285714285714
 10
797.0428571428572
 20
543.4723205814606
 10
797.0428571428572
 20
554.384822275682
 10
801.5583750852937
 20
548.9285714285714
  0
LWPOLYLINE
  5
40
330
17
100
AcDbEntity
  8
PIECE
100
AcDbPolyline
 90
5
 70
1
 10
797.2056903188038
 20
430.05419807757016
 10
801.5464836951899
 20
403.8285714285714
 10
792.757142857143
 20
403.8285714285714
 10
792.757142857143
 20
424.6788698947298
 10
797.2056903188038
 20
430.05419807757016
  0
LWPOLYLINE
  5
41
330
17
100
AcDbEntity
  8
PIECE
100
AcDbPolyline
 90
5
 70
1
 10
792.757142857143
 20
704.3217270375869
 10
797.1882076543136
 20
709.6759303341682
 10
801.5598928696506
 20
693.8285714285713
 10
792.757142857143
 20
693.8285714285713
 10
792.757142857143
 20
704.3217270375869
  0
LWPOLYLINE
  5
42
330
17
100
AcDbEntity
  8
PIECE
100
AcDbPolyline
 90
5
 70
1
 10
792.757142857143
 20
279.5428571428572
 10
792.757142857143
 20
290.03601275187265
 10
797.1882076543136
 20
295.39021604845396
 10
801.5598928696506
 20
279.5428571428572
 10
792.757142857143
 20
279.5428571428572
  0
LWPOLYLINE
  5
43
330
17
100
AcDbEntity
  8
PIECE
100
AcDbPolyline
 90
4
 70
1
 10
779.9000000000001
 20
295.4562508471107
 10
784.4155179424366
 20
290.00000000000006
 10
779.9000000000001
 20
284.5437491528893
 10
779.9000000000001
 20
295.4562508471107
  0
LWPOLYLINE
  5
44
330
17
100
AcDbEntity
  8
PIECE
100
AcDbPolyline
 90
4
 70
1
 10
784.4155179424366
 20
704.2857142857142
 10
779.9000000000001
 20
698.8294634386035
 10
779.9000000000001
 20
709.7419651328249
 10
784.4155179424366
 20
704.2857142857142
  0
LWPOLYLINE
  5
45
330
17
100
AcDbEntity
  8
PIECE
100
AcDbPolyline
 90
4
 70
1
 10
779.9000000000001
 20
533.1151777243178
 10
779.9000000000001
 20
544.0276794185393
 10
784.4155179424366
 20
538.5714285714284
 10
779.9000000000001
 20
533.1151777243178
  0
LWPOLYLINE
  5
46
330
17
100
AcDbEntity
  8
PIECE
100
AcDbPolyline
 90
5
 70
1
 10
775.6142857142858
 20
486.821727037587
 10
780.0453505114565
 20
492.1759303341683
 10
784.4170357267935
 20
476.3285714285714
 10
775.6142857142858
 20
476.3285714285714
 10
775.6142857142858
 20
486.821727037587
  0
LWPOLYLINE
  5
47
330
17
100
AcDbEntity
  8
PIECE
100
AcDbPolyline
 90
4
 70
1
 10
724.4155179424365
 20
331.4285714285714
 10
719.9000000000001
 20
325.97232058146074
 10
719.9000000000001
 20
336.88482227568215
 10
724.4155179424365
 20
331.4285714285714
  0
LWPOLYLINE
  5
48
330
17
100
AcDbEntity
  8
PIECE
100
AcDbPolyline
 90
4
 70
1
 10
719.9000000000001
 20
698.8294634386035
 10
719.9000000000001
 20
709.741965132825
 10
724.4155179424365
 20
704.2857142857142
 10
719.9000000000001
 20
698.8294634386035
  0
LWPOLYLINE
  5
49
330
17
100
AcDbEntity
  8
PIECE
100
AcDbPolyline
 90
5
 70
1
 10
707.2741785839364
 20
341.68571428571425
 10
698.4714285714286
 20
341.68571428571425
 10
698.4714285714286
 20
352.1788698947297
 10
702.9024933685994
 20
357.53307319131113
 10
707.2741785839364
 20
341.68571428571425
  0
LWPOLYLINE
  5
4A
330
17
100
AcDbEntity
  8
PIECE
100
AcDbPolyline
 90
5
 70
1
 10
698.4714285714286
 20
735.3931556090155
 10
702.9290267948853
 20
740.7794201290257
 10
707.2553762541932
 20
704.1857142857142
 10
698.4714285714286
 20
704.1857142857142
 10
698.4714285714286
 20
735.3931556090155
  0
LWPOLYLINE
  5
4B
330
17
100
AcDbEntity
  8
PIECE
100
AcDbPolyline
 90
4
 70
1
 10
677.0428571428572
 20
802.9562508471106
 10
681.5583750852937
 20
797.5
 10
677.0428571428572
 20
792.0437491528892
 10
677.0428571428572
 20
802.9562508471106
  0
LWPOLYLINE
  5
4C
330
17
100
AcDbEntity
  8
PIECE
100
AcDbPolyline
 90
5
 70
1
 10
664.4170357267935
 20
372.7571428571429
 10
655.6142857142858
 20
372.7571428571429
 10
655.6142857142858
 20
383.2502984661583
 10
660.0453505114565
 20
388.60450176273963
 10
664.4170357267935
 20
372.7571428571429
  0
LWPOLYLINE
  5
4D
330
17
100
AcDbEntity
  8
PIECE
100
AcDbPolyline
 90
5
 70
1
 10
660.0453505114565
 20
854.6759303341682
 10
664.4170357267935
 20
838.8285714285714
 10
655.6142857142858
 20
838.8285714285714
 10
655.6142857142858
 20
849.3217270375869
 10
660.0453505114565
 20
854.6759303341682
  0
LWPOLYLINE
  5
4E
330
17
100
AcDbEntity
  8
PIECE
100
AcDbPolyline
 90
4
 70
1
 10
647.2726607995794
 20
383.2142857142857
 10
642.7571428571429
 20
377.75803486717496
 10
642.7571428571429
 20
388.6705365613964
 10
647.2726607995794
 20
383.2142857142857
  0
LWPOLYLINE
  5
4F
330
17
100
AcDbEntity
  8
PIECE
100
AcDbPolyline
 90
4
 70
1
 10
634.1857142857143
 20
916.3294634386035
 10
634.1857142857143
 20
927.241965132825
 10
638.7012322281507
 20
921.7857142857143
 10
634.1857142857143
 20
916.3294634386035
  0
LWPOLYLINE
  5
50
330
17
100
AcDbEntity
  8
PIECE
100
AcDbPolyline
 90
5
 70
1
 10
608.5474218976404
 20
999.8121234566916
 10
630.1050493727051
 20
942.5047637521438
 10
625.7778715182897
 20
926.8187440298877
 10
595.5997411117063
 20
942.4467044190113
 10
608.5474218976404
 20
999.8121234566916
  0
LWPOLYLINE
  5
51
330
17
100
AcDbEntity
  8
PIECE
100
AcDbPolyline
 90
4
 70
1
 10
617.0428571428572
 20
398.47232058146074
 10
617.0428571428572
 20
409.38482227568227
 10
621.5583750852936
 20
403.9285714285714
 10
617.0428571428572
 20
398.47232058146074
  0
LWPOLYLINE
  5
52
330
17
100
AcDbEntity
  8
PIECE
100
AcDbPolyline
 90
5
 70
1
 10
587.0428571428572
 20
393.4714285714286
 10
587.0428571428572
 20
403.9645841804441
 10
591.4739219400279
 20
409.3187874770254
 10
595.845607155365
 20
393.4714285714286
 10
587.0428571428572
 20
393.4714285714286
  0
LWPOLYLINE
  5
53
330
17
100
AcDbEntity
  8
PIECE
100
AcDbPolyline
 90
5
 70
1
 10
591.4914046045182
 20
937.55419807757
 10
595.8321979809042
 20
911.3285714285714
 10
587.0428571428572
 20
911.3285714285714
 10
587.0428571428572
 20
932.1788698947297
 10
591.4914046045182
 20
937.55419807757
  0
LWPOLYLINE
  5
54
330
17
100
AcDbEntity
  8
PIECE
100
AcDbPolyline
 90
4
 70
1
 10
574.1857142857143
 20
377.75803486717496
 10
574.1857142857143
 20
388.6705365613964
 10
578.7012322281508
 20
383.2142857142857
 10
574.1857142857143
 20
377.75803486717496
  0
LWPOLYLINE
  5
55
330
17
100
AcDbEntity
  8
PIECE
100
AcDbPolyline
 90
5
 70
1
 10
565.7596362257423
 20
875.3902160484539
 10
570.1313214410793
 20
859.5428571428571
 10
561.3285714285715
 20
859.5428571428571
 10
561.3285714285715
 20
870.0360127518726
 10
565.7596362257423
 20
875.3902160484539
  0
LWPOLYLINE
  5
56
330
17
100
AcDbEntity
  8
PIECE
100
AcDbPolyline
 90
6
 70
1
 10
552.9696619684788
 20
787.0428571428572
 10
535.5017234368738
 20
787.0428571428572
 10
544.1914645217943
 20
797.5429609538027
 10
548.5529198875446
 20
823.8934204552106
 10
548.6131100675551
 20
823.8920253048367
 10
552.9696619684788
 20
787.0428571428572
  0
LWPOLYLINE
  5
57
330
17
100
AcDbEntity
  8
PIECE
100
AcDbPolyline
 90
5
 70
1
 10
544.1857142857143
 20
362.40000000000003
 10
544.1857142857143
 20
372.8931556090155
 10
548.616779082885
 20
378.2473589055968
 10
552.9884642982221
 20
362.40000000000003
 10
544.1857142857143
 20
362.40000000000003
  0
LWPOLYLINE
  5
58
330
17
100
AcDbEntity
  8
PIECE
100
AcDbPolyline
 90
5
 70
1
 10
518.4714285714285
 20
714.5428571428572
 10
518.4714285714285
 20
735.3931556090155
 10
522.9199760330896
 20
740.7684837918558
 10
527.2607694094755
 20
714.5428571428572
 10
518.4714285714285
 20
714.5428571428572
  0
LWPOLYLINE
  5
59
330
17
100
AcDbEntity
  8
PIECE
100
AcDbPolyline
 90
5
 70
1
 10
518.4714285714285
 20
341.68571428571425
 10
518.4714285714285
 20
352.1788698947297
 10
522.9024933685994
 20
357.53307319131113
 10
527.2741785839363
 20
341.68571428571425
 10
518.4714285714285
 20
341.68571428571425
  0
LWPOLYLINE
  5
5A
330
17
100
AcDbEntity
  8
PIECE
100
AcDbPolyline
 90
4
 70
1
 10
501.5583750852937
 20
704.2857142857142
 10
497.0428571428572
 20
698.8294634386035
 10
497.0428571428572
 20
709.7419651328249
 10
501.5583750852937
 20
704.2857142857142
  0
LWPOLYLINE
  5
5B
330
17
100
AcDbEntity
  8
PIECE
100
AcDbPolyline
 90
4
 70
1
 10
497.0428571428572
 20
325.97232058146074
 10
497.0428571428572
 20
336.88482227568215
 10
501.5583750852937
 20
331.4285714285714
 10
497.0428571428572
 20
325.97232058146074
  0
LWPOLYLINE
  5
5C
330
17
100
AcDbEntity
  8
PIECE
100
AcDbPolyline
 90
4
 70
1
 10
471.3285714285715
 20
698.8294634386035
 10
471.3285714285715
 20
709.7419651328249
 10
475.84408937100795
 20
704.2857142857142
 10
471.3285714285715
 20
698.8294634386035
  0
LWPOLYLINE
  5
5D
330
17
100
AcDbEntity
  8
PIECE
100
AcDbPolyline
 90
5
 70
1
 10
467.0428571428572
 20
321.10744132330115
 10
471.47392194002794
 20
326.4616446198826
 10
475.84560715536503
 20
310.61428571428576
 10
467.0428571428572
 20
310.61428571428576
 10
467.0428571428572
 20
321.10744132330115
  0
LWPOLYLINE
  5
5E
330
17
100
AcDbEntity
  8
PIECE
100
AcDbPolyline
 90
4
 70
1
 10
445.61428571428576
 20
294.9008920100321
 10
445.61428571428576
 20
305.81339370425354
 10
450.1298036567222
 20
300.3571428571429
 10
445.61428571428576
 20
294.9008920100321
  0
LWPOLYLINE
  5
5F
330
17
100
AcDbEntity
  8
PIECE
100
AcDbPolyline
 90
5
 70
1
 10
441.3285714285715
 20
528.1142857142856
 10
441.3285714285715
 20
538.6074413233011
 10
445.75963622574216
 20
543.9616446198825
 10
450.13132144107925
 20
528.1142857142856
 10
441.3285714285715
 20
528.1142857142856
  0
LWPOLYLINE
  5
60
330
17
100
AcDbEntity
  8
PIECE
100
AcDbPolyline
 90
6
 70
1
 10
441.33432166465144
 20
486.8286752395169
 10
445.69577703040176
 20
513.1791347409251
 10
445.7559672104122
 20
513.1777395905511
 10
450.1125191113359
 20
476.3285714285714
 10
432.64458057973104
 20
476.3285714285714
 10
441.33432166465144
 20
486.8286752395169
  0
LWPOLYLINE
  5
61
330
17
100
AcDbEntity
  8
PIECE
100
AcDbPolyline
 90
5
 70
1
 10
432.6928755684966
 20
704.3273578409556
 10
445.74472391072277
 20
709.5843523121302
 10
450.1642672886463
 20
704.2440707304727
 10
437.1124189464201
 20
698.9870762592982
 10
432.6928755684966
 20
704.3273578409556
  0
LWPOLYLINE
  5
62
330
17
100
AcDbEntity
  8
PIECE
100
AcDbPolyline
 90
4
 70
1
 10
420.0665958923226
 20
564.5989158285284
 10
424.44887263540335
 20
548.7131626348609
 10
406.9197656630802
 20
559.3036647639726
 10
420.0665958923226
 20
564.5989158285284
  0
LWPOLYLINE
  5
63
330
17
100
AcDbEntity
  8
PIECE
100
AcDbPolyline
 90
5
 70
1
 10
424.40584181492056
 20
704.3451363551746
 10
420.0665958923226
 20
688.6153698857571
 10
407.0227296136509
 20
693.8691493591109
 10
411.3619755362489
 20
709.5989158285286
 10
424.40584181492056
 20
704.3451363551746
  0
LWPOLYLINE
  5
64
330
17
100
AcDbEntity
  8
PIECE
100
AcDbPolyline
 90
5
 70
1
 10
424.39596662553186
 20
279.6192326349307
 10
411.4285714285715
 20
263.9502967719369
 10
407.0243997632811
 20
269.2720042008293
 10
420.02681207437166
 20
295.4574178828866
 10
424.39596662553186
 20
279.6192326349307
  0
LWPOLYLINE
  5
65
330
17
100
AcDbEntity
  8
PIECE
100
AcDbPolyline
 90
5
 70
1
 10
415.61428571428576
 20
393.4714285714286
 10
415.61428571428576
 20
414.321727037587
 10
420.0628331759467
 20
419.69705522042733
 10
424.4036265523327
 20
393.4714285714286
 10
415.61428571428576
 20
393.4714285714286
  0
LWPOLYLINE
  5
66
330
17
100
AcDbEntity
  8
PIECE
100
AcDbPolyline
 90
5
 70
1
 10
407.04285714285714
 20
383.2502984661583
 10
411.49140460451815
 20
388.6256266489986
 10
415.83219798090414
 20
362.40000000000003
 10
407.04285714285714
 20
362.40000000000003
 10
407.04285714285714
 20
383.2502984661583
  0
LWPOLYLINE
  5
67
330
17
100
AcDbEntity
  8
PIECE
100
AcDbPolyline
 90
6
 70
1
 10
398.70123222815073
 20
258.9285714285714
 10
385.61428571428576
 20
243.11517772431787
 10
385.61428571428576
 20
316.38879509207953
 10
385.7684536969313
 20
316.39586835459596
 10
390.0967491659797
 20
269.3256551286948
 10
398.70123222815073
 20
258.9285714285714
  0
LWPOLYLINE
  5
68
330
17
100
AcDbEntity
  8
PIECE
100
AcDbPolyline
 90
4
 70
1
 10
394.1857142857143
 20
347.241965132825
 10
398.70123222815073
 20
341.7857142857142
 10
394.1857142857143
 20
336.32946343860357
 10
394.1857142857143
 20
347.241965132825
  0
LWPOLYLINE
  5
69
330
17
100
AcDbEntity
  8
PIECE
100
AcDbPolyline
 90
4
 70
1
 10
385.61428571428576
 20
709.6123702607875
 10
398.7356958600748
 20
704.3273578409556
 10
385.61428571428576
 20
688.4723205814607
 10
385.61428571428576
 20
709.6123702607875
  0
LWPOLYLINE
  5
6A
330
17
100
AcDbEntity
  8
PIECE
100
AcDbPolyline
 90
4
 70
1
 10
385.61428571428576
 20
574.5437491528892
 10
385.61428571428576
 20
585.4562508471107
 10
390.12980365672223
 20
580.0
 10
385.61428571428576
 20
574.5437491528892
  0
LWPOLYLINE
  5
6B
330
17
100
AcDbEntity
  8
PIECE
100
AcDbPolyline
 90
4
 70
1
 10
364.4488726354034
 20
590.1417340634322
 10
346.9197656630802
 20
600.7322361925441
 10
360.0665958923226
 20
606.0274872571
 10
364.4488726354034
 20
590.1417340634322
  0
LWPOLYLINE
  5
6C
330
17
100
AcDbEntity
  8
PIECE
100
AcDbPolyline
 90
10
 70
1
 10
317.12078148615876
 20
698.9769715237807
 10
299.9949726125415
 20
688.630128662637
 10
278.42641359980286
 20
704.2673339468724
 10
282.8100978211103
 20
709.5642857142857
 10
334.3327593217469
 20
709.5642857142857
 10
342.89436174059557
 20
699.2190161248435
 10
364.4272666782597
 20
704.4228014847789
 10
360.0761490272862
 20
688.65
 10
325.66724067825317
 20
688.65
 10
317.12078148615876
 20
698.9769715237807
  0
LWPOLYLINE
  5
6D
330
17
100
AcDbEntity
  8
PIECE
100
AcDbPolyline
 90
4
 70
1
 10
338.7345869211176
 20
610.8560197777178
 10
321.20547994879456
 20
621.4465219068298
 10
334.3523101780369
 20
626.7417729713857
 10
338.7345869211176
 20
610.8560197777178
  0
LWPOLYLINE
  5
6E
330
17
100
AcDbEntity
  8
PIECE
100
AcDbPolyline
 90
4
 70
1
 10
299.9
 20
636.6866062957464
 10
299.9
 20
647.5991079899678
 10
304.41551794243657
 20
642.1428571428571
 10
299.9
 20
636.6866062957464
  0
LWPOLYLINE
  5
6F
330
17
100
AcDbEntity
  8
PIECE
100
AcDbPolyline
 90
4
 70
1
 10
291.3285714285714
 20
647.0437491528892
 10
291.3285714285714
 20
657.9562508471106
 10
295.8440893710079
 20
652.5
 10
291.3285714285714
 20
647.0437491528892
  0
LWPOLYLINE
  5
70
330
17
100
AcDbEntity
  8
PIECE
100
AcDbPolyline
 90
5
 70
1
 10
274.3161524821514
 20
699.2272094549874
 10
278.7356958600748
 20
693.8869278733298
 10
265.6838475178487
 20
688.6299334021554
 10
261.2643041399252
 20
693.9702149838129
 10
274.3161524821514
 20
699.2272094549874
  0
LWPOLYLINE
  5
71
330
17
100
AcDbEntity
  8
PIECE
100
AcDbPolyline
 90
5
 70
1
 10
265.74472391072277
 20
678.5129237407017
 10
270.1642672886463
 20
673.1726421590441
 10
257.1124189464201
 20
667.9156476878698
 10
252.69287556849662
 20
673.2559292695272
 10
265.74472391072277
 20
678.5129237407017
  0
LWPOLYLINE
  5
72
330
17
100
AcDbEntity
  8
PIECE
100
AcDbPolyline
 90
4
 70
1
 10
244.43587369722215
 20
683.4031409286249
 10
218.24450283758154
 20
693.9524430804246
 10
240.07064522061538
 20
699.2270941563245
 10
244.43587369722215
 20
683.4031409286249
  0
ENDSEC
  0
SECTION
  2
OBJECTS
  0
DICTIONARY
  5
A
330
0
100
AcDbDictionary
281
1
  3
ACAD_COLOR
350
B
  3
ACAD_GROUP
350
C
  3
ACAD_LAYOUT
350
D
  3
ACAD_MATERIAL
350
E
  3
ACAD_MLEADERSTYLE
350
F
  3
ACAD_MLINESTYLE
350
10
  3
ACAD_PLOTSETTINGS
350
11
  3
ACAD_PLOTSTYLENAME
350
12
  3
ACAD_SCALELIST
350
14
  3
ACAD_TABLESTYLE
350
15
  3
ACAD_VISUALSTYLE
350
16
  3
EZDXF_META
350
2D
  0
DICTIONARY
  5
B
330
A
100
AcDbDictionary
281
1
  0
DICTIONARY
  5
C
330
A
100
AcDbDictionary
281
1
  0
DICTIONARY
  5
D
330
A
100
AcDbDictionary
281
1
  3
Model
350
1A
  3
Layout1
350
1E
  0
DICTIONARY
  5
E
330
A
100
AcDbDictionary
281
1
  3
ByBlock
350
1F
  3
ByLayer
350
20
  3
Global
350
21
  0
DICTIONARY
  5
F
330
A
100
AcDbDictionary
281
1
  3
Standard
350
2C
  0
DICTIONARY
  5
10
330
A
100
AcDbDictionary
281
1
  3
Standard
350
22
  0
DICTIONARY
  5
11
330
A
100
AcDbDictionary
281
1
  0
ACDBDICTIONARYWDFLT
  5
12
330
A
100
AcDbDictionary
281
1
  3
Normal
350
13
100
AcDbDictionaryWithDefault
340
13
  0
ACDBPLACEHOLDER
  5
13
330
12
  0
DICTIONARY
  5
14
330
A
100
AcDbDictionary
281
1
  0
DICTIONARY
  5
15
330
A
100
AcDbDictionary
281
1
  0
DICTIONARY
  5
16
330
A
100
AcDbDictionary
281
1
  0
LAYOUT
  5
1A
330
D
100
AcDbPlotSettings
  1

  4
A3
  6

 40
7.5
 41
20.0
 42
7.5
 43
20.0
 44
420.0
 45
297.0
 46
0.0
 47
0.0
 48
0.0
 49
0.0
140
0.0
141
0.0
142
1.0
143
1.0
 70
1024
 72
1
 73
0
 74
5
  7

 75
16
 76
0
 77
2
 78
300
147
1.0
148
0.0
149
0.0
100
AcDbLayout
  1
Model
 70
1
 71
0
 10
0.0
 20
0.0
 11
420.0
 21
297.0
 12
0.0
 22
0.0
 32
0.0
 14
1e+20
 24
1e+20
 34
1e+20
 15
-1e+20
 25
-1e+20
 35
-1e+20
146
0.0
 13
0.0
 23
0.0
 33
0.0
 16
1.0
 26
0.0
 36
0.0
 17
0.0
 27
1.0
 37
0.0
 76
1
330
17
  0
LAYOUT
  5
1E
330
D
100
AcDbPlotSettings
  1

  4
A3
  6

 40
7.5
 41
20.0
 42
7.5
 43
20.0
 44
420.0
 45
297.0
 46
0.0
 47
0.0
 48
0.0
 49
0.0
140
0.0
141
0.0
142
1.0
143
1.0
 70
0
 72
1
 73
0
 74
5
  7

 75
16
 76
0
 77
2
 78
300
147
1.0
148
0.0
149
0.0
100
AcDbLayout
  1
Layout1
 70
1
 71
1
 10
0.0
 20
0.0
 11
420.0
 21
297.0
 12
0.0
 22
0.0
 32
0.0
 14
1e+20
 24
1e+20
 34
1e+20
 15
-1e+20
 25
-1e+20
 35
-1e+20
146
0.0
 13
0.0
 23
0.0
 33
0.0
 16
1.0
 26
0.0
 36
0.0
 17
0.0
 27
1.0
 37
0.0
 76
1
330
1B
  0
MATERIAL
  5
1F
102
{ACAD_REACTORS
330
E
102
}
330
E
100
AcDbMaterial
  1
ByBlock
  2

 70
0
 40
1.0
 71
1
 41
1.0
 91
-1023410177
 42
1.0
 72
1
  3

 73
1
 74
1
 75
1
 44
0.5
 73
0
 45
1.0
 46
1.0
 77
1
  4

 78
1
 79
1
170
1
 48
1.0
171
1
  6

172
1
173
1
174
1
140
1.0
141
1.0
175
1
  7

176
1
177
1
178
1
143
1.0
179
1
  8

270
1
271
1
272
1
145
1.0
146
1.0
273
1
  9

274
1
275
1
276
1
 42
1.0
 72
1
  3

 73
1
 74
1
 75
1
 94
63
  0
MATERIAL
  5
20
102
{ACAD_REACTORS
330
E
102
}
330
E
100
AcDbMaterial
  1
ByLayer
  2

 70
0
 40
1.0
 71
1
 41
1.0
 91
-1023410177
 42
1.0
 72
1
  3

 73
1
 74
1
 75
1
 44
0.5
 73
0
 45
1.0
 46
1.0
 77
1
  4

 78
1
 79
1
170
1
 48
1.0
171
1
  6

172
1
173
1
174
1
140
1.0
141
1.0
175
1
  7

176
1
177
1
178
1
143
1.0
179
1
  8

270
1
271
1
272
1
145
1.0
146
1.0
273
1
  9

274
1
275
1
276
1
 42
1.0
 72
1
  3

 73
1
 74
1
 75
1
 94
63
  0
MATERIAL
  5
21
102
{ACAD_REACTORS
330
E
102
}
330
E
100
AcDbMaterial
  1
Global
  2

 70
0
 40
1.0
 71
1
 41
1.0
 91
-1023410177
 42
1.0
 72
1
  3

 73
1
 74
1
 75
1
 44
0.5
 73
0
 45
1.0
 46
1.0
 77
1
  4

 78
1
 79
1
170
1
 48
1.0
171
1
  6

172
1
173
1
174
1
140
1.0
141
1.0
175
1
  7

176
1
177
1
178
1
143
1.0
179
1
  8

270
1
271
1
272
1
145
1.0
146
1.0
273
1
  9

274
1
275
1
276
1
 42
1.0
 72
1
  3

 73
1
 74
1
 75
1
 94
63
  0
MLINESTYLE
  5
22
102
{ACAD_REACTORS
330
10
102
}
330
10
100
AcDbMlineStyle
  2
Standard
 70
0
  3

 62
256
 51
90.0
 52
90.0
 71
2
 49
0.5
 62
256
  6
BYLAYER
 49
-0.5
 62
256
  6
BYLAYER
  0
MLEADERSTYLE
  5
2C
102
{ACAD_REACTORS
330
F
102
}
330
F
100
AcDbMLeaderStyle
179
2
170
2
171
1
172
0
 90
2
 40
0.0
 41
0.0
173
1
 91
-1056964608
 92
-2
290
1
 42
2.0
291
1
 43
8.0
  3
Standard
 44
4.0
300

342
29
174
1
175
1
176
0
178
1
 93
-1056964608
 45
4.0
292
0
297
0
 46
4.0
 94
-1056964608
 47
1.0
 49
1.0
140
1.0
294
1
141
0.0
177
0
142
1.0
295
0
296
0
143
3.75
271
0
272
9
273
9
  0
DICTIONARY
  5
2D
330
A
100
AcDbDictionary
280
1
281
1
  3
CREATED_BY_EZDXF
350
2E
  3
WRITTEN_BY_EZDXF
350
75
  0
DICTIONARYVAR
  5
2E
330
2D
100
DictionaryVariables
280
0
  1
1.4.4 @ 2026-07-07T12:40:27.600312+00:00
  0
DICTIONARYVAR
  5
75
330
2D
100
DictionaryVariables
280
0
  1
1.4.4 @ 2026-07-07T12:40:27.603996+00:00
  0
ENDSEC
  0
EOF
