  0
SECTION
  2
HEADER
  9
$ACADVER
  1
AC1027
  9
$ACADMAINTVER
 70
105
  9
$DWGCODEPAGE
  3
ANSI_1252
  9
$LASTSAVEDBY
  1
ezdxf
  9
$REQUIREDVERSIONS
160
0
  9
$INSBASE
 10
0.0
 20
0.0
 30
0.0
  9
$EXTMIN
 10
1e+20
 20
1e+20
 30
1e+20
  9
$EXTMAX
 10
-1e+20
 20
-1e+20
 30
-1e+20
  9
$LIMMIN
 10
0.0
 20
0.0
  9
$LIMMAX
 10
420.0
 20
297.0
  9
$ORTHOMODE
 70
0
  9
$REGENMODE
 70
1
  9
$FILLMODE
 70
1
  9
$QTEXTMODE
 70
0
  9
$MIRRTEXT
 70
1
  9
$LTSCALE
 40
1.0
  9
$ATTMODE
 70
1
  9
$TEXTSIZE
 40
2.5
  9
$TRACEWID
 40
1.0
  9
$TEXTSTYLE
  7
Standard
  9
$CLAYER
  8
0
  9
$CELTYPE
  6
ByLayer
  9
$CECOLOR
 62
256
  9
$CELTSCALE
 40
1.0
  9
$DISPSILH
 70
0
  9
$DIMSCALE
 40
1.0
  9
$DIMASZ
 40
2.5
  9
$DIMEXO
 40
0.625
  9
$DIMDLI
 40
3.75
  9
$DIMRND
 40
0.0
  9
$DIMDLE
 40
0.0
  9
$DIMEXE
 40
1.25
  9
$DIMTP
 40
0.0
  9
$DIMTM
 40
0.0
  9
$DIMTXT
 40
2.5
  9
$DIMCEN
 40
2.5
  9
$DIMTSZ
 40
0.0
  9
$DIMTOL
 70
0
  9
$DIMLIM
 70
0
  9
$DIMTIH
 70
0
  9
$DIMTOH
 70
0
  9
$DIMSE1
 70
0
  9
$DIMSE2
 70
0
  9
$DIMTAD
 70
1
  9
$DIMZIN
 70
8
  9
$DIMBLK
  1

  9
$DIMASO
 70
1
  9
$DIMSHO
 70
1
  9
$DIMPOST
  1

  9
$DIMAPOST
  1

  9
$DIMALT
 70
0
  9
$DIMALTD
 70
3
  9
$DIMALTF
 40
0.03937007874
  9
$DIMLFAC
 40
1.0
  9
$DIMTOFL
 70
1
  9
$DIMTVP
 40
0.0
  9
$DIMTIX
 70
0
  9
$DIMSOXD
 70
0
  9
$DIMSAH
 70
0
  9
$DIMBLK1
  1

  9
$DIMBLK2
  1

  9
$DIMSTYLE
  2
ISO-25
  9
$DIMCLRD
 70
0
  9
$DIMCLRE
 70
0
  9
$DIMCLRT
 70
0
  9
$DIMTFAC
 40
1.0
  9
$DIMGAP
 40
0.625
  9
$DIMJUST
 70
0
  9
$DIMSD1
 70
0
  9
$DIMSD2
 70
0
  9
$DIMTOLJ
 70
0
  9
$DIMTZIN
 70
8
  9
$DIMALTZ
 70
0
  9
$DIMALTTZ
 70
0
  9
$DIMUPT
 70
0
  9
$DIMDEC
 70
2
  9
$DIMTDEC
 70
2
  9
$DIMALTU
 70
2
  9
$DIMALTTD
 70
3
  9
$DIMTXSTY
  7
Standard
  9
$DIMAUNIT
 70
0
  9
$DIMADEC
 70
0
  9
$DIMALTRND
 40
0.0
  9
$DIMAZIN
 70
0
  9
$DIMDSEP
 70
44
  9
$DIMATFIT
 70
3
  9
$DIMFRAC
 70
0
  9
$DIMLDRBLK
  1

  9
$DIMLUNIT
 70
2
  9
$DIMLWD
 70
-2
  9
$DIMLWE
 70
-2
  9
$DIMTMOVE
 70
0
  9
$DIMFXL
 40
1.0
  9
$DIMFXLON
 70
0
  9
$DIMJOGANG
 40
0.785398163397
  9
$DIMTFILL
 70
0
  9
$DIMTFILLCLR
 70
0
  9
$DIMARCSYM
 70
0
  9
$DIMLTYPE
  6

  9
$DIMLTEX1
  6

  9
$DIMLTEX2
  6

  9
$DIMTXTDIRECTION
 70
0
  9
$LUNITS
 70
2
  9
$LUPREC
 70
4
  9
$SKETCHINC
 40
1.0
  9
$FILLETRAD
 40
10.0
  9
$AUNITS
 70
0
  9
$AUPREC
 70
2
  9
$MENU
  1
.
  9
$ELEVATION
 40
0.0
  9
$PELEVATION
 40
0.0
  9
$THICKNESS
 40
0.0
  9
$LIMCHECK
 70
0
  9
$CHAMFERA
 40
0.0
  9
$CHAMFERB
 40
0.0
  9
$CHAMFERC
 40
0.0
  9
$CHAMFERD
 40
0.0
  9
$SKPOLY
 70
0
  9
$TDCREATE
 40
2461229.6530902777
  9
$TDUCREATE
 40
2458532.153996898
  9
$TDUPDATE
 40
2461229.6530902777
  9
$TDUUPDATE
 40
2458532.1544311
  9
$TDINDWG
 40
0.0
  9
$TDUSRTIMER
 40
0.0
  9
$USRTIMER
 70
1
  9
$ANGBASE
 50
0.0
  9
$ANGDIR
 70
0
  9
$PDMODE
 70
0
  9
$PDSIZE
 40
0.0
  9
$PLINEWID
 40
0.0
  9
$SPLFRAME
 70
0
  9
$SPLINETYPE
 70
6
  9
$SPLINESEGS
 70
8
  9
$HANDSEED
  5
73
  9
$SURFTAB1
 70
6
  9
$SURFTAB2
 70
6
  9
$SURFTYPE
 70
6
  9
$SURFU
 70
6
  9
$SURFV
 70
6
  9
$UCSBASE
  2

  9
$UCSNAME
  2

  9
$UCSORG
 10
0.0
 20
0.0
 30
0.0
  9
$UCSXDIR
 10
1.0
 20
0.0
 30
0.0
  9
$UCSYDIR
 10
0.0
 20
1.0
 30
0.0
  9
$UCSORTHOREF
  2

  9
$UCSORTHOVIEW
 70
0
  9
$UCSORGTOP
 10
0.0
 20
0.0
 30
0.0
  9
$UCSORGBOTTOM
 10
0.0
 20
0.0
 30
0.0
  9
$UCSORGLEFT
 10
0.0
 20
0.0
 30
0.0
  9
$UCSORGRIGHT
 10
0.0
 20
0.0
 30
0.0
  9
$UCSORGFRONT
 10
0.0
 20
0.0
 30
0.0
  9
$UCSORGBACK
 10
0.0
 20
0.0
 30
0.0
  9
$PUCSBASE
  2

  9
$PUCSNAME
  2

  9
$PUCSORG
 10
0.0
 20
0.0
 30
0.0
  9
$PUCSXDIR
 10
1.0
 20
0.0
 30
0.0
  9
$PUCSYDIR
 10
0.0
 20
1.0
 30
0.0
  9
$PUCSORTHOREF
  2

  9
$PUCSORTHOVIEW
 70
0
  9
$PUCSORGTOP
 10
0.0
 20
0.0
 30
0.0
  9
$PUCSORGBOTTOM
 10
0.0
 20
0.0
 30
0.0
  9
$PUCSORGLEFT
 10
0.0
 20
0.0
 30
0.0
  9
$PUCSORGRIGHT
 10
0.0
 20
0.0
 30
0.0
  9
$PUCSORGFRONT
 10
0.0
 20
0.0
 30
0.0
  9
$PUCSORGBACK
 10
0.0
 20
0.0
 30
0.0
  9
$USERI1
 70
0
  9
$USERI2
 70
0
  9
$USERI3
 70
0
  9
$USERI4
 70
0
  9
$USERI5
 70
0
  9
$USERR1
 40
0.0
  9
$USERR2
 40
0.0
  9
$USERR3
 40
0.0
  9
$USERR4
 40
0.0
  9
$USERR5
 40
0.0
  9
$WORLDVIEW
 70
1
  9
$SHADEDGE
 70
3
  9
$SHADEDIF
 70
70
  9
$TILEMODE
 70
1
  9
$MAXACTVP
 70
64
  9
$PINSBASE
 10
0.0
 20
0.0
 30
0.0
  9
$PLIMCHECK
 70
0
  9
$PEXTMIN
 10
1e+20
 20
1e+20
 30
1e+20
  9
$PEXTMAX
 10
-1e+20
 20
-1e+20
 30
-1e+20
  9
$PLIMMIN
 10
0.0
 20
0.0
  9
$PLIMMAX
 10
420.0
 20
297.0
  9
$UNITMODE
 70
0
  9
$VISRETAIN
 70
1
  9
$PLINEGEN
 70
0
  9
$PSLTSCALE
 70
1
  9
$TREEDEPTH
 70
3020
  9
$CMLSTYLE
  2
Standard
  9
$CMLJUST
 70
0
  9
$CMLSCALE
 40
20.0
  9
$PROXYGRAPHICS
 70
1
  9
$MEASUREMENT
 70
1
  9
$CELWEIGHT
370
-1
  9
$ENDCAPS
280
0
  9
$JOINSTYLE
280
0
  9
$LWDISPLAY
290
0
  9
$INSUNITS
 70
4
  9
$HYPERLINKBASE
  1

  9
$STYLESHEET
  1

  9
$XEDIT
290
1
  9
$CEPSNTYPE
380
0
  9
$PSTYLEMODE
290
1
  9
$FINGERPRINTGUID
  2
{60435795-5A4B-4FA1-8271-0EAF16C2FE24}
  9
$VERSIONGUID
  2
{990EDBB1-C98E-47A1-B4C9-51F63846C7B6}
  9
$EXTNAMES
290
1
  9
$PSVPSCALE
 40
0.0
  9
$OLESTARTUP
290
0
  9
$SORTENTS
280
127
  9
$INDEXCTL
280
0
  9
$HIDETEXT
280
1
  9
$XCLIPFRAME
280
1
  9
$HALOGAP
280
0
  9
$OBSCOLOR
 70
257
  9
$OBSLTYPE
280
0
  9
$INTERSECTIONDISPLAY
280
0
  9
$INTERSECTIONCOLOR
 70
257
  9
$DIMASSOC
280
2
  9
$PROJECTNAME
  1

  9
$CAMERADISPLAY
290
0
  9
$LENSLENGTH
 40
50.0
  9
$CAMERAHEIGHT
 40
0.0
  9
$STEPSPERSEC
 40
24.0
  9
$STEPSIZE
 40
100.0
  9
$3DDWFPREC
 40
2.0
  9
$PSOLWIDTH
 40
0.005
  9
$PSOLHEIGHT
 40
0.08
  9
$LOFTANG1
 40
1.570796326795
  9
$LOFTANG2
 40
1.570796326795
  9
$LOFTMAG1
 40
0.0
  9
$LOFTMAG2
 40
0.0
  9
$LOFTPARAM
 70
7
  9
$LOFTNORMALS
280
1
  9
$LATITUDE
 40
37.795
  9
$LONGITUDE
 40
-122.394
  9
$NORTHDIRECTION
 40
0.0
  9
$TIMEZONE
 70
-8000
  9
$LIGHTGLYPHDISPLAY
280
1
  9
$TILEMODELIGHTSYNCH
280
1
  9
$CMATERIAL
347
20
  9
$SOLIDHIST
280
0
  9
$SHOWHIST
280
1
  9
$DWFFRAME
280
2
  9
$DGNFRAME
280
2
  9
$REALWORLDSCALE
290
1
  9
$INTERFERECOLOR
 62
256
  9
$CSHADOW
280
0
  9
$SHADOWPLANELOCATION
 40
0.0
  0
ENDSEC
  0
SECTION
  2
CLASSES
  0
CLASS
  1
ACDBDICTIONARYWDFLT
  2
AcDbDictionaryWithDefault
  3
ObjectDBX Classes
 90
0
 91
0
280
0
281
0
  0
CLASS
  1
SUN
  2
AcDbSun
  3
SCENEOE
 90
1153
 91
0
280
0
281
0
  0
CLASS
  1
VISUALSTYLE
  2
AcDbVisualStyle
  3
ObjectDBX Classes
 90
4095
 91
0
280
0
281
0
  0
CLASS
  1
MATERIAL
  2
AcDbMaterial
  3
ObjectDBX Classes
 90
1153
 91
0
280
0
281
0
  0
CLASS
  1
SCALE
  2
AcDbScale
  3
ObjectDBX Classes
 90
1153
 91
0
280
0
281
0
  0
CLASS
  1
TABLESTYLE
  2
AcDbTableStyle
  3
ObjectDBX Classes
 90
4095
 91
0
280
0
281
0
  0
CLASS
  1
MLEADERSTYLE
  2
AcDbMLeaderStyle
  3
ACDB_MLEADERSTYLE_CLASS
 90
4095
 91
0
280
0
281
0
  0
CLASS
  1
DICTIONARYVAR
  2
AcDbDictionaryVar
  3
ObjectDBX Classes
 90
0
 91
0
280
0
281
0
  0
CLASS
  1
CELLSTYLEMAP
  2
AcDbCellStyleMap
  3
ObjectDBX Classes
 90
1152
 91
0
280
0
281
0
  0
CLASS
  1
MENTALRAYRENDERSETTINGS
  2
AcDbMentalRayRenderSettings
  3
SCENEOE
 90
1024
 91
0
280
0
281
0
  0
CLASS
  1
ACDBDETAILVIEWSTYLE
  2
AcDbDetailViewStyle
  3
ObjectDBX Classes
 90
1025
 91
0
280
0
281
0
  0
CLASS
  1
ACDBSECTIONVIEWSTYLE
  2
AcDbSectionViewStyle
  3
ObjectDBX Classes
 90
1025
 91
0
280
0
281
0
  0
CLASS
  1
RASTERVARIABLES
  2
AcDbRasterVariables
  3
ISM
 90
0
 91
0
280
0
281
0
  0
CLASS
  1
ACDBPLACEHOLDER
  2
AcDbPlaceHolder
  3
ObjectDBX Classes
 90
0
 91
0
280
0
281
0
  0
CLASS
  1
LAYOUT
  2
AcDbLayout
  3
ObjectDBX Classes
 90
0
 91
0
280
0
281
0
  0
ENDSEC
  0
SECTION
  2
TABLES
  0
TABLE
  2
VPORT
  5
8
330
0
100
AcDbSymbolTable
 70
1
  0
VPORT
  5
23
330
8
100
AcDbSymbolTableRecord
100
AcDbViewportTableRecord
  2
*Active
 70
0
 10
0.0
 20
0.0
 11
1.0
 21
1.0
 12
0.0
 22
0.0
 13
0.0
 23
0.0
 14
0.5
 24
0.5
 15
0.5
 25
0.5
 16
0.0
 26
0.0
 36
1.0
 17
0.0
 27
0.0
 37
0.0
 40
1000.0
 41
1.34
 42
50.0
 43
0.0
 44
0.0
 50
0.0
 51
0.0
 71
0
 72
1000
 73
1
 74
3
 75
0
 76
0
 77
0
 78
0
281
0
 65
0
146
0.0
  0
ENDTAB
  0
TABLE
  2
LTYPE
  5
2
330
0
100
AcDbSymbolTable
 70
3
  0
LTYPE
  5
24
330
2
100
AcDbSymbolTableRecord
100
AcDbLinetypeTableRecord
  2
ByBlock
 70
0
  3

 72
65
 73
0
 40
0.0
  0
LTYPE
  5
25
330
2
100
AcDbSymbolTableRecord
100
AcDbLinetypeTableRecord
  2
ByLayer
 70
0
  3

 72
65
 73
0
 40
0.0
  0
LTYPE
  5
26
330
2
100
AcDbSymbolTableRecord
100
AcDbLinetypeTableRecord
  2
Continuous
 70
0
  3

 72
65
 73
0
 40
0.0
  0
ENDTAB
  0
TABLE
  2
LAYER
  5
1
330
0
100
AcDbSymbolTable
 70
5
  0
LAYER
  5
27
330
1
100
AcDbSymbolTableRecord
100
AcDbLayerTableRecord
  2
0
 70
0
 62
7
  6
Continuous
370
-3
390
13
347
21
  0
LAYER
  5
28
330
1
100
AcDbSymbolTableRecord
100
AcDbLayerTableRecord
  2
Defpoints
 70
0
 62
7
  6
Continuous
290
0
370
-3
390
13
347
21
  0
LAYER
  5
2F
330
1
100
AcDbSymbolTableRecord
100
AcDbLayerTableRecord
  2
OUTLINE
 70
0
 62
5
  6
Continuous
370
-3
390
13
347
21
  0
LAYER
  5
30
330
1
100
AcDbSymbolTableRecord
100
AcDbLayerTableRecord
  2
SLOT
 70
0
 62
1
  6
Continuous
370
-3
390
13
347
21
  0
LAYER
  5
31
330
1
100
AcDbSymbolTableRecord
100
AcDbLayerTableRecord
  2
PIECE
 70
0
 62
3
  6
Continuous
370
-3
390
13
347
21
  0
ENDTAB
  0
TABLE
  2
STYLE
  5
5
330
0
100
AcDbSymbolTable
 70
1
  0
STYLE
  5
29
330
5
100
AcDbSymbolTableRecord
100
AcDbTextStyleTableRecord
  2
Standard
 70
0
 40
0.0
 41
1.0
 50
0.0
 71
0
 42
2.5
  3
txt
  4

  0
ENDTAB
  0
TABLE
  2
VIEW
  5
7
330
0
100
AcDbSymbolTable
 70
0
  0
ENDTAB
  0
TABLE
  2
UCS
  5
6
330
0
100
AcDbSymbolTable
 70
0
  0
ENDTAB
  0
TABLE
  2
APPID
  5
3
330
0
100
AcDbSymbolTable
 70
3
  0
APPID
  5
2A
330
3
100
AcDbSymbolTableRecord
100
AcDbRegAppTableRecord
  2
ACAD
 70
0
  0
APPID
  5
70
330
3
100
AcDbSymbolTableRecord
100
AcDbRegAppTableRecord
  2
HATCHBACKGROUNDCOLOR
 70
0
  0
APPID
  5
71
330
3
100
AcDbSymbolTableRecord
100
AcDbRegAppTableRecord
  2
EZDXF
 70
0
  0
ENDTAB
  0
TABLE
  2
DIMSTYLE
  5
4
330
0
100
AcDbSymbolTable
 70
1
100
AcDbDimStyleTable
  0
DIMSTYLE
105
2B
330
4
100
AcDbSymbolTableRecord
100
AcDbDimStyleTableRecord
  2
Standard
 70
0
 40
1.0
 41
2.5
 42
0.625
 43
3.75
 44
1.25
 45
0.0
 46
0.0
 47
0.0
 48
0.0
 49
2.5
140
2.5
141
2.5
142
0.0
143
0.03937007874
144
1.0
145
0.0
146
1.0
147
0.625
148
0.0
 69
0
 70
0
 71
0
 72
0
 73
0
 74
0
 75
0
 76
0
 77
1
 78
8
 79
3
170
0
171
3
172
1
173
0
174
0
175
0
176
0
177
0
178
0
179
2
271
2
272
2
273
2
274
3
275
0
276
0
277
2
278
44
279
0
280
0
281
0
282
0
283
0
284
8
285
0
286
0
288
0
289
3
290
0
371
-2
372
-2
  0
ENDTAB
  0
TABLE
  2
BLOCK_RECORD
  5
9
330
0
100
AcDbSymbolTable
 70
2
  0
BLOCK_RECORD
  5
17
330
9
100
AcDbSymbolTableRecord
100
AcDbBlockTableRecord
  2
*Model_Space
340
1A
 70
0
280
1
281
0
  0
BLOCK_RECORD
  5
1B
330
9
100
AcDbSymbolTableRecord
100
AcDbBlockTableRecord
  2
*Paper_Space
340
1E
 70
0
280
1
281
0
  0
ENDTAB
  0
ENDSEC
  0
SECTION
  2
BLOCKS
  0
BLOCK
  5
18
330
17
100
AcDbEntity
  8
0
100
AcDbBlockBegin
  2
*Model_Space
 70
0
 10
0.0
 20
0.0
 30
0.0
  3
*Model_Space
  1

  0
ENDBLK
  5
19
330
17
100
AcDbEntity
  8
0
100
AcDbBlockEnd
  0
BLOCK
  5
1C
330
1B
100
AcDbEntity
  8
0
100
AcDbBlockBegin
  2
*Paper_Space
 70
0
 10
0.0
 20
0.0
 30
0.0
  3
*Paper_Space
  1

  0
ENDBLK
  5
1D
330
1B
100
AcDbEntity
  8
0
100
AcDbBlockEnd
  0
ENDSEC
  0
SECTION
  2
ENTITIES
  0
LWPOLYLINE
  5
32
330
17
100
AcDbEntity
  8
OUTLINE
100
AcDbPolyline
 90
5
 70
1
 10
0.0
 20
0.0
 10
1200.0
 20
0.0
 10
1200.0
 20
1450.0
 10
0.0
 20
1450.0
 10
0.0
 20
0.0
  0
LWPOLYLINE
  5
33
330
17
100
AcDbEntity
  8
SLOT
100
AcDbPolyline
 90
5
 70
1
 10
348.45
 20
725.0000000000001
 10
351.54999999999995
 20
725.0000000000001
 10
351.54999999999995
 20
1450.0
 10
348.45
 20
1450.0
 10
348.45
 20
725.0000000000001
  0
LWPOLYLINE
  5
34
330
17
100
AcDbEntity
  8
SLOT
100
AcDbPolyline
 90
5
 70
1
 10
648.4499999999999
 20
725.0000000000001
 10
651.5500000000001
 20
725.0000000000001
 10
651.5500000000001
 20
1450.0
 10
648.4499999999999
 20
1450.0
 10
648.4499999999999
 20
725.0000000000001
  0
LWPOLYLINE
  5
35
330
17
100
AcDbEntity
  8
SLOT
100
AcDbPolyline
 90
5
 70
1
 10
948.4499999999999
 20
725.0000000000001
 10
951.55
 20
725.0000000000001
 10
951.55
 20
1450.0
 10
948.4499999999999
 20
1450.0
 10
948.4499999999999
 20
725.0000000000001
  0
LWPOLYLINE
  5
36
330
17
100
AcDbEntity
  8
SLOT
100
AcDbPolyline
 90
5
 70
1
 10
1148.45
 20
725.0000000000001
 10
1151.55
 20
725.0000000000001
 10
1151.55
 20
1450.0
 10
1148.45
 20
1450.0
 10
1148.45
 20
725.0000000000001
  0
LWPOLYLINE
  5
37
330
17
100
AcDbEntity
  8
PIECE
100
AcDbPolyline
 90
9
 70
1
 10
861.3285714285714
 20
776.7181852947679
 10
861.3285714285714
 20
807.8211301052701
 10
852.7510417956221
 20
818.1856450784172
 10
857.0974616817341
 20
844.4452652236763
 10
878.6885418691026
 20
797.4846658161498
 10
870.1298036567222
 20
787.1428571428571
 10
878.7012322281508
 20
776.7857142857142
 10
874.3161524821514
 20
771.4870762592982
 10
861.3285714285714
 20
776.7181852947679
  0
LWPOLYLINE
  5
38
330
17
100
AcDbEntity
  8
PIECE
100
AcDbPolyline
 90
11
 70
1
 10
771.4719248590884
 20
916.7116035471408
 10
780.0470450360326
 20
906.3499999999999
 10
805.7553727338216
 20
906.3499999999999
 10
852.9691283507485
 20
859.6727643332654
 10
848.6219747242482
 20
843.9143324372014
 10
797.1012329475969
 20
895.7928571428571
 10
762.8100978211103
 20
895.7928571428571
 10
754.2336239928485
 20
906.1560963520067
 10
715.2134953323588
 20
911.3949099221651
 10
715.2152839523485
 20
911.482620898758
 10
771.4719248590884
 20
916.7116035471408
  0
LWPOLYLINE
  5
39
330
17
100
AcDbEntity
  8
PIECE
100
AcDbPolyline
 90
4
 70
1
 10
831.3285714285715
 20
626.3294634386034
 10
831.3285714285715
 20
637.2419651328249
 10
835.844089371008
 20
631.7857142857143
 10
831.3285714285715
 20
626.3294634386034
  0
LWPOLYLINE
  5
3A
330
17
100
AcDbEntity
  8
PIECE
100
AcDbPolyline
 90
5
 70
1
 10
809.9000000000001
 20
611.1074413233011
 10
814.3310647971707
 20
616.4616446198825
 10
818.7027500125079
 20
600.6142857142856
 10
809.9000000000001
 20
600.6142857142856
 10
809.9000000000001
 20
611.1074413233011
  0
LWPOLYLINE
  5
3B
330
17
100
AcDbEntity
  8
PIECE
100
AcDbPolyline
 90
5
 70
1
 10
801.5598928696506
 20
579.9
 10
792.757142857143
 20
579.9
 10
792.757142857143
 20
590.3931556090155
 10
797.1882076543136
 20
595.7473589055968
 10
801.5598928696506
 20
579.9
  0
LWPOLYLINE
  5
3C
330
17
100
AcDbEntity
  8
PIECE
100
AcDbPolyline
 90
4
 70
1
 10
784.4155179424366
 20
548.9285714285714
 10
779.9000000000001
 20
543.4723205814606
 10
779.9000000000001
 20
554.384822275682
 10
784.4155179424366
 20
548.9285714285714
  0
LWPOLYLINE
  5
3D
330
17
100
AcDbEntity
  8
PIECE
100
AcDbPolyline
 90
9
 70
1
 10
767.2726607995794
 20
517.8571428571428
 10
754.3229331691671
 20
502.2095553037279
 10
711.3727431033924
 20
512.5891845696234
 10
702.8100978211103
 20
522.9357142857143
 10
668.4825547802898
 20
522.9357142857143
 10
664.1752742046458
 20
559.3681291547027
 10
694.3018399554511
 20
564.5685482426393
 10
754.3497755295426
 20
533.4722958917706
 10
767.2726607995794
 20
517.8571428571428
  0
LWPOLYLINE
  5
3E
330
17
100
AcDbEntity
  8
PIECE
100
AcDbPolyline
 90
5
 70
1
 10
720.0453505114566
 20
461.10450176273963
 10
724.4170357267935
 20
445.2571428571429
 10
715.6142857142858
 20
445.2571428571429
 10
715.6142857142858
 20
455.7502984661584
 10
720.0453505114566
 20
461.10450176273963
  0
LWPOLYLINE
  5
3F
330
17
100
AcDbEntity
  8
PIECE
100
AcDbPolyline
 90
5
 70
1
 10
702.9199760330895
 20
440.411340934713
 10
707.2607694094755
 20
414.18571428571425
 10
698.4714285714286
 20
414.18571428571425
 10
698.4714285714286
 20
435.03601275187265
 10
702.9199760330895
 20
440.411340934713
  0
LWPOLYLINE
  5
40
330
17
100
AcDbEntity
  8
PIECE
100
AcDbPolyline
 90
5
 70
1
 10
681.2494508841539
 20
901.1310198107273
 10
702.8943617405956
 20
906.3618732677005
 10
707.3219776872747
 20
901.01183733213
 10
685.6770668308329
 20
895.7809838751564
 10
681.2494508841539
 20
901.1310198107273
  0
LWPOLYLINE
  5
41
330
17
100
AcDbEntity
  8
PIECE
100
AcDbPolyline
 90
4
 70
1
 10
659.9000000000001
 20
885.8133937042535
 10
664.4155179424366
 20
880.3571428571429
 10
659.9000000000001
 20
874.9008920100321
 10
659.9000000000001
 20
885.8133937042535
  0
LWPOLYLINE
  5
42
330
17
100
AcDbEntity
  8
PIECE
100
AcDbPolyline
 90
5
 70
1
 10
660.0453505114565
 20
367.89021604845396
 10
664.4170357267935
 20
352.0428571428571
 10
655.6142857142858
 20
352.0428571428571
 10
655.6142857142858
 20
362.53601275187265
 10
660.0453505114565
 20
367.89021604845396
  0
LWPOLYLINE
  5
43
330
17
100
AcDbEntity
  8
PIECE
100
AcDbPolyline
 90
5
 70
1
 10
655.878553002932
 20
569.6012135876155
 10
642.8267046607058
 20
564.3442191164411
 10
638.4071612827823
 20
569.6845006980988
 10
651.4590096250085
 20
574.941495169273
 10
655.878553002932
 20
569.6012135876155
  0
LWPOLYLINE
  5
44
330
17
100
AcDbEntity
  8
PIECE
100
AcDbPolyline
 90
5
 70
1
 10
651.4686648853541
 20
543.858399824927
 10
655.9013486567669
 20
538.5022402678029
 10
625.6741922575033
 20
533.2844573179301
 10
621.2415084860902
 20
538.6406168750541
 10
651.4686648853541
 20
543.858399824927
  0
LWPOLYLINE
  5
45
330
17
100
AcDbEntity
  8
PIECE
100
AcDbPolyline
 90
5
 70
1
 10
621.2643041399251
 20
580.0416435552415
 10
634.3161524821514
 20
585.298638026416
 10
638.7356958600749
 20
579.9583564447584
 10
625.6838475178487
 20
574.7013619735839
 10
621.2643041399251
 20
580.0416435552415
  0
LWPOLYLINE
  5
46
330
17
100
AcDbEntity
  8
PIECE
100
AcDbPolyline
 90
4
 70
1
 10
621.5583750852936
 20
807.8571428571428
 10
617.0428571428572
 20
802.400892010032
 10
617.0428571428572
 20
813.3133937042535
 10
621.5583750852936
 20
807.8571428571428
  0
LWPOLYLINE
  5
47
330
17
100
AcDbEntity
  8
PIECE
100
AcDbPolyline
 90
4
 70
1
 10
621.5583750852936
 20
683.5714285714284
 10
617.0428571428572
 20
678.1151777243178
 10
617.0428571428572
 20
689.0276794185394
 10
621.5583750852936
 20
683.5714285714284
  0
LWPOLYLINE
  5
48
330
17
100
AcDbEntity
  8
PIECE
100
AcDbPolyline
 90
4
 70
1
 10
617.0428571428572
 20
760.9723205814607
 10
617.0428571428572
 20
771.8848222756823
 10
621.5583750852936
 20
766.4285714285713
 10
617.0428571428572
 20
760.9723205814607
  0
LWPOLYLINE
  5
49
330
17
100
AcDbEntity
  8
PIECE
100
AcDbPolyline
 90
5
 70
1
 10
617.1882076543137
 20
295.39021604845396
 10
621.5598928696506
 20
279.5428571428572
 10
612.7571428571429
 20
279.5428571428572
 10
612.7571428571429
 20
290.03601275187265
 10
617.1882076543137
 20
295.39021604845396
  0
LWPOLYLINE
  5
4A
330
17
100
AcDbEntity
  8
PIECE
100
AcDbPolyline
 90
5
 70
1
 10
599.9695618035629
 20
585.0585048307269
 10
595.5500184256395
 20
590.3987864123844
 10
608.6018667678658
 20
595.6557808835588
 10
613.0214101457891
 20
590.3154993019012
 10
599.9695618035629
 20
585.0585048307269
  0
LWPOLYLINE
  5
4B
330
17
100
AcDbEntity
  8
PIECE
100
AcDbPolyline
 90
5
 70
1
 10
599.9695618035629
 20
543.6299334021554
 10
595.5500184256395
 20
548.9702149838131
 10
608.6018667678658
 20
554.2272094549874
 10
613.0214101457891
 20
548.8869278733298
 10
599.9695618035629
 20
543.6299334021554
  0
LWPOLYLINE
  5
4C
330
17
100
AcDbEntity
  8
PIECE
100
AcDbPolyline
 90
5
 70
1
 10
591.4914046045182
 20
751.1256266489987
 10
595.8321979809042
 20
724.9
 10
587.0428571428572
 20
724.9
 10
587.0428571428572
 20
745.7502984661584
 10
591.4914046045182
 20
751.1256266489987
  0
LWPOLYLINE
  5
4D
330
17
100
AcDbEntity
  8
PIECE
100
AcDbPolyline
 90
4
 70
1
 10
591.3285714285714
 20
678.1151777243178
 10
591.3285714285714
 20
689.0276794185393
 10
595.844089371008
 20
683.5714285714284
 10
591.3285714285714
 20
678.1151777243178
  0
LWPOLYLINE
  5
4E
330
17
100
AcDbEntity
  8
PIECE
100
AcDbPolyline
 90
5
 70
1
 10
591.4739219400279
 20
316.10450176273974
 10
595.845607155365
 20
300.25714285714287
 10
587.0428571428572
 20
300.25714285714287
 10
587.0428571428572
 20
310.7502984661583
 10
591.4739219400279
 20
316.10450176273974
  0
LWPOLYLINE
  5
4F
330
17
100
AcDbEntity
  8
PIECE
100
AcDbPolyline
 90
5
 70
1
 10
591.4914046045182
 20
854.6970552204273
 10
595.8321979809042
 20
828.4714285714285
 10
587.0428571428572
 20
828.4714285714285
 10
587.0428571428572
 20
849.3217270375869
 10
591.4914046045182
 20
854.6970552204273
  0
LWPOLYLINE
  5
50
330
17
100
AcDbEntity
  8
PIECE
100
AcDbPolyline
 90
5
 70
1
 10
587.3935148405393
 20
600.6560750767364
 10
557.0428571428572
 20
595.416973450351
 10
557.0428571428572
 20
616.3499999999999
 10
565.7467218429346
 20
616.3499999999999
 10
587.3935148405393
 20
600.6560750767364
  0
LWPOLYLINE
  5
51
330
17
100
AcDbEntity
  8
PIECE
100
AcDbPolyline
 90
5
 70
1
 10
569.8357327113538
 20
548.9702149838131
 10
582.88758105358
 20
554.2272094549874
 10
587.3071244315034
 20
548.8869278733298
 10
574.2552760892772
 20
543.6299334021554
 10
569.8357327113538
 20
548.9702149838131
  0
LWPOLYLINE
  5
52
330
17
100
AcDbEntity
  8
PIECE
100
AcDbPolyline
 90
4
 70
1
 10
574.1857142857143
 20
864.5437491528892
 10
574.1857142857143
 20
875.4562508471106
 10
578.7012322281508
 20
869.9999999999999
 10
574.1857142857143
 20
864.5437491528892
  0
LWPOLYLINE
  5
53
330
17
100
AcDbEntity
  8
PIECE
100
AcDbPolyline
 90
4
 70
1
 10
570.1298036567223
 20
880.3571428571429
 10
565.6142857142858
 20
874.9008920100321
 10
565.6142857142858
 20
885.8133937042535
 10
570.1298036567223
 20
880.3571428571429
  0
LWPOLYLINE
  5
54
330
17
100
AcDbEntity
  8
PIECE
100
AcDbPolyline
 90
5
 70
1
 10
565.7447239107229
 20
564.5843523121302
 10
570.1642672886463
 20
559.2440707304727
 10
557.11241894642
 20
553.9870762592982
 10
552.6928755684967
 20
559.3273578409559
 10
565.7447239107229
 20
564.5843523121302
  0
LWPOLYLINE
  5
55
330
17
100
AcDbEntity
  8
PIECE
100
AcDbPolyline
 90
4
 70
1
 10
565.6142857142858
 20
336.32946343860357
 10
565.6142857142858
 20
347.241965132825
 10
570.1298036567223
 20
341.7857142857142
 10
565.6142857142858
 20
336.32946343860357
  0
LWPOLYLINE
  5
56
330
17
100
AcDbEntity
  8
PIECE
100
AcDbPolyline
 90
4
 70
1
 10
552.9869465138652
 20
890.7142857142857
 10
548.4714285714286
 20
885.258034867175
 10
548.4714285714286
 20
896.1705365613964
 10
552.9869465138652
 20
890.7142857142857
  0
LWPOLYLINE
  5
57
330
17
100
AcDbEntity
  8
PIECE
100
AcDbPolyline
 90
4
 70
1
 10
553.020301206832
 20
372.64173406343235
 10
535.491194234509
 20
383.2322361925441
 10
548.6380244637512
 20
388.52748725709995
 10
553.020301206832
 20
372.64173406343235
  0
LWPOLYLINE
  5
58
330
17
100
AcDbEntity
  8
PIECE
100
AcDbPolyline
 90
4
 70
1
 10
544.4499815743605
 20
559.2440707304727
 10
531.3285714285715
 20
553.959058310641
 10
531.3285714285715
 20
575.0991079899678
 10
544.4499815743605
 20
559.2440707304727
  0
LWPOLYLINE
  5
59
330
17
100
AcDbEntity
  8
PIECE
100
AcDbPolyline
 90
5
 70
1
 10
526.9785898542109
 20
621.4702149838131
 10
540.0304381964371
 20
626.7272094549874
 10
544.4499815743605
 20
621.3869278733298
 10
531.3981332321343
 20
616.1299334021554
 10
526.9785898542109
 20
621.4702149838131
  0
LWPOLYLINE
  5
5A
330
17
100
AcDbEntity
  8
PIECE
100
AcDbPolyline
 90
4
 70
1
 10
522.7571428571429
 20
895.6151777243176
 10
522.7571428571429
 20
906.5276794185392
 10
527.2726607995794
 20
901.0714285714287
 10
522.7571428571429
 20
895.6151777243176
  0
LWPOLYLINE
  5
5B
330
17
100
AcDbEntity
  8
PIECE
100
AcDbPolyline
 90
5
 70
1
 10
522.9024933685994
 20
430.03307319131113
 10
527.2741785839363
 20
414.18571428571425
 10
518.4714285714285
 20
414.18571428571425
 10
518.4714285714285
 20
424.6788698947298
 10
522.9024933685994
 20
430.03307319131113
  0
LWPOLYLINE
  5
5C
330
17
100
AcDbEntity
  8
PIECE
100
AcDbPolyline
 90
5
 70
1
 10
505.6476898219632
 20
637.0989158285286
 10
518.6915561006348
 20
631.8451363551746
 10
514.352310178037
 20
616.1153698857571
 10
501.3084438993652
 20
621.369149359111
 10
505.6476898219632
 20
637.0989158285286
  0
LWPOLYLINE
  5
5D
330
17
100
AcDbEntity
  8
PIECE
100
AcDbPolyline
 90
5
 70
1
 10
505.6838475178487
 20
564.3442191164411
 10
501.2643041399252
 20
569.6845006980988
 10
514.3161524821514
 20
574.941495169273
 10
518.7356958600749
 20
569.6012135876155
 10
505.6838475178487
 20
564.3442191164411
  0
LWPOLYLINE
  5
5E
330
17
100
AcDbEntity
  8
PIECE
100
AcDbPolyline
 90
4
 70
1
 10
501.5583750852937
 20
911.4285714285713
 10
497.0428571428572
 20
905.9723205814606
 10
497.0428571428572
 20
916.8848222756822
 10
501.5583750852937
 20
911.4285714285713
  0
LWPOLYLINE
  5
5F
330
17
100
AcDbEntity
  8
PIECE
100
AcDbPolyline
 90
5
 70
1
 10
497.1882076543136
 20
471.46164461988246
 10
501.55989286965064
 20
455.61428571428576
 10
492.75714285714287
 20
455.61428571428576
 10
492.75714285714287
 20
466.10744132330126
 10
497.1882076543136
 20
471.46164461988246
  0
LWPOLYLINE
  5
60
330
17
100
AcDbEntity
  8
PIECE
100
AcDbPolyline
 90
5
 70
1
 10
475.5941581850795
 20
569.5834350733967
 10
479.93340410767746
 20
585.3132015428143
 10
492.9772703863491
 20
580.0594220694604
 10
488.63802446375115
 20
564.3296556000428
 10
475.5941581850795
 20
569.5834350733967
  0
LWPOLYLINE
  5
61
330
17
100
AcDbEntity
  8
PIECE
100
AcDbPolyline
 90
5
 70
1
 10
479.969561803563
 20
636.8442191164411
 10
475.5500184256395
 20
642.1845006980986
 10
488.60186676786566
 20
647.441495169273
 10
493.02141014578916
 20
642.1012135876156
 10
479.969561803563
 20
636.8442191164411
  0
LWPOLYLINE
  5
62
330
17
100
AcDbEntity
  8
PIECE
100
AcDbPolyline
 90
4
 70
1
 10
471.3285714285715
 20
905.9723205814606
 10
471.3285714285715
 20
916.8848222756822
 10
475.84408937100795
 20
911.4285714285713
 10
471.3285714285715
 20
905.9723205814606
  0
LWPOLYLINE
  5
63
330
17
100
AcDbEntity
  8
PIECE
100
AcDbPolyline
 90
5
 70
1
 10
471.47392194002794
 20
512.890216048454
 10
475.84560715536503
 20
497.04285714285714
 10
467.0428571428572
 20
497.04285714285714
 10
467.0428571428572
 20
507.53601275187265
 10
471.47392194002794
 20
512.890216048454
  0
LWPOLYLINE
  5
64
330
17
100
AcDbEntity
  8
PIECE
100
AcDbPolyline
 90
5
 70
1
 10
467.30712443150344
 20
652.4583564447585
 10
454.25527608927723
 20
647.2013619735839
 10
449.8357327113537
 20
652.5416435552414
 10
462.88758105357994
 20
657.7986380264159
 10
467.30712443150344
 20
652.4583564447585
  0
LWPOLYLINE
  5
65
330
17
100
AcDbEntity
  8
PIECE
100
AcDbPolyline
 90
5
 70
1
 10
462.88758105357994
 20
585.298638026416
 10
467.30712443150344
 20
579.9583564447585
 10
454.25527608927723
 20
574.7013619735839
 10
449.8357327113537
 20
580.0416435552414
 10
462.88758105357994
 20
585.298638026416
  0
LWPOLYLINE
  5
66
330
17
100
AcDbEntity
  8
PIECE
100
AcDbPolyline
 90
4
 70
1
 10
445.61428571428576
 20
916.8848222756822
 10
450.12980365672223
 20
911.4285714285713
 10
445.61428571428576
 20
905.9723205814606
 10
445.61428571428576
 20
916.8848222756822
  0
LWPOLYLINE
  5
67
330
17
100
AcDbEntity
  8
PIECE
100
AcDbPolyline
 90
5
 70
1
 10
441.3285714285715
 20
548.9645841804441
 10
445.75963622574216
 20
554.3187874770254
 10
450.13132144107925
 20
538.4714285714285
 10
441.3285714285715
 20
538.4714285714285
 10
441.3285714285715
 20
548.9645841804441
  0
LWPOLYLINE
  5
68
330
17
100
AcDbEntity
  8
PIECE
100
AcDbPolyline
 90
5
 70
1
 10
437.1732953392942
 20
668.1557808835589
 10
441.5928387172177
 20
662.8154993019014
 10
428.54099037499157
 20
657.5585048307267
 10
424.12144699706806
 20
662.8987864123843
 10
437.1732953392942
 20
668.1557808835589
  0
LWPOLYLINE
  5
69
330
17
100
AcDbEntity
  8
PIECE
100
AcDbPolyline
 90
11
 70
1
 10
385.69577703040176
 20
720.3219918837821
 10
385.7559672104122
 20
720.3205967334083
 10
390.09356692107497
 20
683.6317325140525
 10
407.33623748620636
 20
673.2142857142857
 10
390.1
 20
662.8007255663694
 10
390.1
 20
642.1788698947298
 10
432.9869465138651
 20
590.3571428571428
 10
419.98632175181547
 20
574.6480546029994
 10
355.5689871486099
 20
683.6207123067553
 10
381.33908928908653
 20
694.0003367800028
 10
385.69577703040176
 20
720.3219918837821
  0
LWPOLYLINE
  5
6A
330
17
100
AcDbEntity
  8
PIECE
100
AcDbPolyline
 90
4
 70
1
 10
419.90000000000003
 20
906.5276794185392
 10
424.41551794243657
 20
901.0714285714287
 10
419.90000000000003
 20
895.6151777243176
 10
419.90000000000003
 20
906.5276794185392
  0
LWPOLYLINE
  5
6B
330
17
100
AcDbEntity
  8
PIECE
100
AcDbPolyline
 90
4
 70
1
 10
411.3285714285715
 20
885.258034867175
 10
411.3285714285715
 20
896.1705365613964
 10
415.84408937100795
 20
890.7142857142857
 10
411.3285714285715
 20
885.258034867175
  0
LWPOLYLINE
  5
6C
330
17
100
AcDbEntity
  8
PIECE
100
AcDbPolyline
 90
4
 70
1
 10
385.61428571428576
 20
875.4562508471106
 10
390.12980365672223
 20
869.9999999999999
 10
385.61428571428576
 20
864.5437491528892
 10
385.61428571428576
 20
875.4562508471106
  0
LWPOLYLINE
  5
6D
330
17
100
AcDbEntity
  8
PIECE
100
AcDbPolyline
 90
5
 70
1
 10
360.0628331759467
 20
761.4827695061416
 10
364.4036265523327
 20
735.2571428571429
 10
355.6142857142857
 20
735.2571428571429
 10
355.6142857142857
 20
756.1074413233013
 10
360.0628331759467
 20
761.4827695061416
  0
LWPOLYLINE
  5
6E
330
17
100
AcDbEntity
  8
PIECE
100
AcDbPolyline
 90
5
 70
1
 10
364.4036265523327
 20
818.1142857142856
 10
355.6142857142857
 20
818.1142857142856
 10
355.6142857142857
 20
838.964584180444
 10
360.0628331759467
 20
844.3399123632844
 10
364.4036265523327
 20
818.1142857142856
  0
LWPOLYLINE
  5
6F
330
17
100
AcDbEntity
  8
PIECE
100
AcDbPolyline
 90
5
 70
1
 10
347.04285714285714
 20
776.6857142857142
 10
347.04285714285714
 20
807.8931556090155
 10
351.5004553663139
 20
813.2794201290257
 10
355.82680482562165
 20
776.6857142857142
 10
347.04285714285714
 20
776.6857142857142
  0
ENDSEC
  0
SECTION
  2
OBJECTS
  0
DICTIONARY
  5
A
330
0
100
AcDbDictionary
281
1
  3
ACAD_COLOR
350
B
  3
ACAD_GROUP
350
C
  3
ACAD_LAYOUT
350
D
  3
ACAD_MATERIAL
350
E
  3
ACAD_MLEADERSTYLE
350
F
  3
ACAD_MLINESTYLE
350
10
  3
ACAD_PLOTSETTINGS
350
11
  3
ACAD_PLOTSTYLENAME
350
12
  3
ACAD_SCALELIST
350
14
  3
ACAD_TABLESTYLE
350
15
  3
ACAD_VISUALSTYLE
350
16
  3
EZDXF_META
350
2D
  0
DICTIONARY
  5
B
330
A
100
AcDbDictionary
281
1
  0
DICTIONARY
  5
C
330
A
100
AcDbDictionary
281
1
  0
DICTIONARY
  5
D
330
A
100
AcDbDictionary
281
1
  3
Model
350
1A
  3
Layout1
350
1E
  0
DICTIONARY
  5
E
330
A
100
AcDbDictionary
281
1
  3
ByBlock
350
1F
  3
ByLayer
350
20
  3
Global
350
21
  0
DICTIONARY
  5
F
330
A
100
AcDbDictionary
281
1
  3
Standard
350
2C
  0
DICTIONARY
  5
10
330
A
100
AcDbDictionary
281
1
  3
Standard
350
22
  0
DICTIONARY
  5
11
330
A
100
AcDbDictionary
281
1
  0
ACDBDICTIONARYWDFLT
  5
12
330
A
100
AcDbDictionary
281
1
  3
Normal
350
13
100
AcDbDictionaryWithDefault
340
13
  0
ACDBPLACEHOLDER
  5
13
330
12
  0
DICTIONARY
  5
14
330
A
100
AcDbDictionary
281
1
  0
DICTIONARY
  5
15
330
A
100
AcDbDictionary
281
1
  0
DICTIONARY
  5
16
330
A
100
AcDbDictionary
281
1
  0
LAYOUT
  5
1A
330
D
100
AcDbPlotSettings
  1

  4
A3
  6

 40
7.5
 41
20.0
 42
7.5
 43
20.0
 44
420.0
 45
297.0
 46
0.0
 47
0.0
 48
0.0
 49
0.0
140
0.0
141
0.0
142
1.0
143
1.0
 70
1024
 72
1
 73
0
 74
5
  7

 75
16
 76
0
 77
2
 78
300
147
1.0
148
0.0
149
0.0
100
AcDbLayout
  1
Model
 70
1
 71
0
 10
0.0
 20
0.0
 11
420.0
 21
297.0
 12
0.0
 22
0.0
 32
0.0
 14
1e+20
 24
1e+20
 34
1e+20
 15
-1e+20
 25
-1e+20
 35
-1e+20
146
0.0
 13
0.0
 23
0.0
 33
0.0
 16
1.0
 26
0.0
 36
0.0
 17
0.0
 27
1.0
 37
0.0
 76
1
330
17
  0
LAYOUT
  5
1E
330
D
100
AcDbPlotSettings
  1

  4
A3
  6

 40
7.5
 41
20.0
 42
7.5
 43
20.0
 44
420.0
 45
297.0
 46
0.0
 47
0.0
 48
0.0
 49
0.0
140
0.0
141
0.0
142
1.0
143
1.0
 70
0
 72
1
 73
0
 74
5
  7

 75
16
 76
0
 77
2
 78
300
147
1.0
148
0.0
149
0.0
100
AcDbLayout
  1
Layout1
 70
1
 71
1
 10
0.0
 20
0.0
 11
420.0
 21
297.0
 12
0.0
 22
0.0
 32
0.0
 14
1e+20
 24
1e+20
 34
1e+20
 15
-1e+20
 25
-1e+20
 35
-1e+20
146
0.0
 13
0.0
 23
0.0
 33
0.0
 16
1.0
 26
0.0
 36
0.0
 17
0.0
 27
1.0
 37
0.0
 76
1
330
1B
  0
MATERIAL
  5
1F
102
{ACAD_REACTORS
330
E
102
}
330
E
100
AcDbMaterial
  1
ByBlock
  2

 70
0
 40
1.0
 71
1
 41
1.0
 91
-1023410177
 42
1.0
 72
1
  3

 73
1
 74
1
 75
1
 44
0.5
 73
0
 45
1.0
 46
1.0
 77
1
  4

 78
1
 79
1
170
1
 48
1.0
171
1
  6

172
1
173
1
174
1
140
1.0
141
1.0
175
1
  7

176
1
177
1
178
1
143
1.0
179
1
  8

270
1
271
1
272
1
145
1.0
146
1.0
273
1
  9

274
1
275
1
276
1
 42
1.0
 72
1
  3

 73
1
 74
1
 75
1
 94
63
  0
MATERIAL
  5
20
102
{ACAD_REACTORS
330
E
102
}
330
E
100
AcDbMaterial
  1
ByLayer
  2

 70
0
 40
1.0
 71
1
 41
1.0
 91
-1023410177
 42
1.0
 72
1
  3

 73
1
 74
1
 75
1
 44
0.5
 73
0
 45
1.0
 46
1.0
 77
1
  4

 78
1
 79
1
170
1
 48
1.0
171
1
  6

172
1
173
1
174
1
140
1.0
141
1.0
175
1
  7

176
1
177
1
178
1
143
1.0
179
1
  8

270
1
271
1
272
1
145
1.0
146
1.0
273
1
  9

274
1
275
1
276
1
 42
1.0
 72
1
  3

 73
1
 74
1
 75
1
 94
63
  0
MATERIAL
  5
21
102
{ACAD_REACTORS
330
E
102
}
330
E
100
AcDbMaterial
  1
Global
  2

 70
0
 40
1.0
 71
1
 41
1.0
 91
-1023410177
 42
1.0
 72
1
  3

 73
1
 74
1
 75
1
 44
0.5
 73
0
 45
1.0
 46
1.0
 77
1
  4

 78
1
 79
1
170
1
 48
1.0
171
1
  6

172
1
173
1
174
1
140
1.0
141
1.0
175
1
  7

176
1
177
1
178
1
143
1.0
179
1
  8

270
1
271
1
272
1
145
1.0
146
1.0
273
1
  9

274
1
275
1
276
1
 42
1.0
 72
1
  3

 73
1
 74
1
 75
1
 94
63
  0
MLINESTYLE
  5
22
102
{ACAD_REACTORS
330
10
102
}
330
10
100
AcDbMlineStyle
  2
Standard
 70
0
  3

 62
256
 51
90.0
 52
90.0
 71
2
 49
0.5
 62
256
  6
BYLAYER
 49
-0.5
 62
256
  6
BYLAYER
  0
MLEADERSTYLE
  5
2C
102
{ACAD_REACTORS
330
F
102
}
330
F
100
AcDbMLeaderStyle
179
2
170
2
171
1
172
0
 90
2
 40
0.0
 41
0.0
173
1
 91
-1056964608
 92
-2
290
1
 42
2.0
291
1
 43
8.0
  3
Standard
 44
4.0
300

342
29
174
1
175
1
176
0
178
1
 93
-1056964608
 45
4.0
292
0
297
0
 46
4.0
 94
-1056964608
 47
1.0
 49
1.0
140
1.0
294
1
141
0.0
177
0
142
1.0
295
0
296
0
143
3.75
271
0
272
9
273
9
  0
DICTIONARY
  5
2D
330
A
100
AcDbDictionary
280
1
281
1
  3
CREATED_BY_EZDXF
350
2E
  3
WRITTEN_BY_EZDXF
350
72
  0
DICTIONARYVAR
  5
2E
330
2D
100
DictionaryVariables
280
0
  1
1.4.4 @ 2026-07-07T12:40:27.561722+00:00
  0
DICTIONARYVAR
  5
72
330
2D
100
DictionaryVariables
280
0
  1
1.4.4 @ 2026-07-07T12:40:27.569910+00:00
  0
ENDSEC
  0
EOF
