  0
SECTION
  2
HEADER
  9
$ACADVER
  1
AC1027
  9
$ACADMAINTVER
 70
105
  9
$DWGCODEPAGE
  3
ANSI_1252
  9
$LASTSAVEDBY
  1
ezdxf
  9
$REQUIREDVERSIONS
160
0
  9
$INSBASE
 10
0.0
 20
0.0
 30
0.0
  9
$EXTMIN
 10
1e+20
 20
1e+20
 30
1e+20
  9
$EXTMAX
 10
-1e+20
 20
-1e+20
 30
-1e+20
  9
$LIMMIN
 10
0.0
 20
0.0
  9
$LIMMAX
 10
420.0
 20
297.0
  9
$ORTHOMODE
 70
0
  9
$REGENMODE
 70
1
  9
$FILLMODE
 70
1
  9
$QTEXTMODE
 70
0
  9
$MIRRTEXT
 70
1
  9
$LTSCALE
 40
1.0
  9
$ATTMODE
 70
1
  9
$TEXTSIZE
 40
2.5
  9
$TRACEWID
 40
1.0
  9
$TEXTSTYLE
  7
Standard
  9
$CLAYER
  8
0
  9
$CELTYPE
  6
ByLayer
  9
$CECOLOR
 62
256
  9
$CELTSCALE
 40
1.0
  9
$DISPSILH
 70
0
  9
$DIMSCALE
 40
1.0
  9
$DIMASZ
 40
2.5
  9
$DIMEXO
 40
0.625
  9
$DIMDLI
 40
3.75
  9
$DIMRND
 40
0.0
  9
$DIMDLE
 40
0.0
  9
$DIMEXE
 40
1.25
  9
$DIMTP
 40
0.0
  9
$DIMTM
 40
0.0
  9
$DIMTXT
 40
2.5
  9
$DIMCEN
 40
2.5
  9
$DIMTSZ
 40
0.0
  9
$DIMTOL
 70
0
  9
$DIMLIM
 70
0
  9
$DIMTIH
 70
0
  9
$DIMTOH
 70
0
  9
$DIMSE1
 70
0
  9
$DIMSE2
 70
0
  9
$DIMTAD
 70
1
  9
$DIMZIN
 70
8
  9
$DIMBLK
  1

  9
$DIMASO
 70
1
  9
$DIMSHO
 70
1
  9
$DIMPOST
  1

  9
$DIMAPOST
  1

  9
$DIMALT
 70
0
  9
$DIMALTD
 70
3
  9
$DIMALTF
 40
0.03937007874
  9
$DIMLFAC
 40
1.0
  9
$DIMTOFL
 70
1
  9
$DIMTVP
 40
0.0
  9
$DIMTIX
 70
0
  9
$DIMSOXD
 70
0
  9
$DIMSAH
 70
0
  9
$DIMBLK1
  1

  9
$DIMBLK2
  1

  9
$DIMSTYLE
  2
ISO-25
  9
$DIMCLRD
 70
0
  9
$DIMCLRE
 70
0
  9
$DIMCLRT
 70
0
  9
$DIMTFAC
 40
1.0
  9
$DIMGAP
 40
0.625
  9
$DIMJUST
 70
0
  9
$DIMSD1
 70
0
  9
$DIMSD2
 70
0
  9
$DIMTOLJ
 70
0
  9
$DIMTZIN
 70
8
  9
$DIMALTZ
 70
0
  9
$DIMALTTZ
 70
0
  9
$DIMUPT
 70
0
  9
$DIMDEC
 70
2
  9
$DIMTDEC
 70
2
  9
$DIMALTU
 70
2
  9
$DIMALTTD
 70
3
  9
$DIMTXSTY
  7
Standard
  9
$DIMAUNIT
 70
0
  9
$DIMADEC
 70
0
  9
$DIMALTRND
 40
0.0
  9
$DIMAZIN
 70
0
  9
$DIMDSEP
 70
44
  9
$DIMATFIT
 70
3
  9
$DIMFRAC
 70
0
  9
$DIMLDRBLK
  1

  9
$DIMLUNIT
 70
2
  9
$DIMLWD
 70
-2
  9
$DIMLWE
 70
-2
  9
$DIMTMOVE
 70
0
  9
$DIMFXL
 40
1.0
  9
$DIMFXLON
 70
0
  9
$DIMJOGANG
 40
0.785398163397
  9
$DIMTFILL
 70
0
  9
$DIMTFILLCLR
 70
0
  9
$DIMARCSYM
 70
0
  9
$DIMLTYPE
  6

  9
$DIMLTEX1
  6

  9
$DIMLTEX2
  6

  9
$DIMTXTDIRECTION
 70
0
  9
$LUNITS
 70
2
  9
$LUPREC
 70
4
  9
$SKETCHINC
 40
1.0
  9
$FILLETRAD
 40
10.0
  9
$AUNITS
 70
0
  9
$AUPREC
 70
2
  9
$MENU
  1
.
  9
$ELEVATION
 40
0.0
  9
$PELEVATION
 40
0.0
  9
$THICKNESS
 40
0.0
  9
$LIMCHECK
 70
0
  9
$CHAMFERA
 40
0.0
  9
$CHAMFERB
 40
0.0
  9
$CHAMFERC
 40
0.0
  9
$CHAMFERD
 40
0.0
  9
$SKPOLY
 70
0
  9
$TDCREATE
 40
2461256.6142939813
  9
$TDUCREATE
 40
2458532.153996898
  9
$TDUPDATE
 40
2461256.6142939813
  9
$TDUUPDATE
 40
2458532.1544311
  9
$TDINDWG
 40
0.0
  9
$TDUSRTIMER
 40
0.0
  9
$USRTIMER
 70
1
  9
$ANGBASE
 50
0.0
  9
$ANGDIR
 70
0
  9
$PDMODE
 70
0
  9
$PDSIZE
 40
0.0
  9
$PLINEWID
 40
0.0
  9
$SPLFRAME
 70
0
  9
$SPLINETYPE
 70
6
  9
$SPLINESEGS
 70
8
  9
$HANDSEED
  5
4D
  9
$SURFTAB1
 70
6
  9
$SURFTAB2
 70
6
  9
$SURFTYPE
 70
6
  9
$SURFU
 70
6
  9
$SURFV
 70
6
  9
$UCSBASE
  2

  9
$UCSNAME
  2

  9
$UCSORG
 10
0.0
 20
0.0
 30
0.0
  9
$UCSXDIR
 10
1.0
 20
0.0
 30
0.0
  9
$UCSYDIR
 10
0.0
 20
1.0
 30
0.0
  9
$UCSORTHOREF
  2

  9
$UCSORTHOVIEW
 70
0
  9
$UCSORGTOP
 10
0.0
 20
0.0
 30
0.0
  9
$UCSORGBOTTOM
 10
0.0
 20
0.0
 30
0.0
  9
$UCSORGLEFT
 10
0.0
 20
0.0
 30
0.0
  9
$UCSORGRIGHT
 10
0.0
 20
0.0
 30
0.0
  9
$UCSORGFRONT
 10
0.0
 20
0.0
 30
0.0
  9
$UCSORGBACK
 10
0.0
 20
0.0
 30
0.0
  9
$PUCSBASE
  2

  9
$PUCSNAME
  2

  9
$PUCSORG
 10
0.0
 20
0.0
 30
0.0
  9
$PUCSXDIR
 10
1.0
 20
0.0
 30
0.0
  9
$PUCSYDIR
 10
0.0
 20
1.0
 30
0.0
  9
$PUCSORTHOREF
  2

  9
$PUCSORTHOVIEW
 70
0
  9
$PUCSORGTOP
 10
0.0
 20
0.0
 30
0.0
  9
$PUCSORGBOTTOM
 10
0.0
 20
0.0
 30
0.0
  9
$PUCSORGLEFT
 10
0.0
 20
0.0
 30
0.0
  9
$PUCSORGRIGHT
 10
0.0
 20
0.0
 30
0.0
  9
$PUCSORGFRONT
 10
0.0
 20
0.0
 30
0.0
  9
$PUCSORGBACK
 10
0.0
 20
0.0
 30
0.0
  9
$USERI1
 70
0
  9
$USERI2
 70
0
  9
$USERI3
 70
0
  9
$USERI4
 70
0
  9
$USERI5
 70
0
  9
$USERR1
 40
0.0
  9
$USERR2
 40
0.0
  9
$USERR3
 40
0.0
  9
$USERR4
 40
0.0
  9
$USERR5
 40
0.0
  9
$WORLDVIEW
 70
1
  9
$SHADEDGE
 70
3
  9
$SHADEDIF
 70
70
  9
$TILEMODE
 70
1
  9
$MAXACTVP
 70
64
  9
$PINSBASE
 10
0.0
 20
0.0
 30
0.0
  9
$PLIMCHECK
 70
0
  9
$PEXTMIN
 10
1e+20
 20
1e+20
 30
1e+20
  9
$PEXTMAX
 10
-1e+20
 20
-1e+20
 30
-1e+20
  9
$PLIMMIN
 10
0.0
 20
0.0
  9
$PLIMMAX
 10
420.0
 20
297.0
  9
$UNITMODE
 70
0
  9
$VISRETAIN
 70
1
  9
$PLINEGEN
 70
0
  9
$PSLTSCALE
 70
1
  9
$TREEDEPTH
 70
3020
  9
$CMLSTYLE
  2
Standard
  9
$CMLJUST
 70
0
  9
$CMLSCALE
 40
20.0
  9
$PROXYGRAPHICS
 70
1
  9
$MEASUREMENT
 70
1
  9
$CELWEIGHT
370
-1
  9
$ENDCAPS
280
0
  9
$JOINSTYLE
280
0
  9
$LWDISPLAY
290
0
  9
$INSUNITS
 70
4
  9
$HYPERLINKBASE
  1

  9
$STYLESHEET
  1

  9
$XEDIT
290
1
  9
$CEPSNTYPE
380
0
  9
$PSTYLEMODE
290
1
  9
$FINGERPRINTGUID
  2
{3DC4F382-6BBE-4762-89CD-056B33160F4F}
  9
$VERSIONGUID
  2
{3967C3F0-F43C-44C5-8228-6752EE260EC7}
  9
$EXTNAMES
290
1
  9
$PSVPSCALE
 40
0.0
  9
$OLESTARTUP
290
0
  9
$SORTENTS
280
127
  9
$INDEXCTL
280
0
  9
$HIDETEXT
280
1
  9
$XCLIPFRAME
280
1
  9
$HALOGAP
280
0
  9
$OBSCOLOR
 70
257
  9
$OBSLTYPE
280
0
  9
$INTERSECTIONDISPLAY
280
0
  9
$INTERSECTIONCOLOR
 70
257
  9
$DIMASSOC
280
2
  9
$PROJECTNAME
  1

  9
$CAMERADISPLAY
290
0
  9
$LENSLENGTH
 40
50.0
  9
$CAMERAHEIGHT
 40
0.0
  9
$STEPSPERSEC
 40
24.0
  9
$STEPSIZE
 40
100.0
  9
$3DDWFPREC
 40
2.0
  9
$PSOLWIDTH
 40
0.005
  9
$PSOLHEIGHT
 40
0.08
  9
$LOFTANG1
 40
1.570796326795
  9
$LOFTANG2
 40
1.570796326795
  9
$LOFTMAG1
 40
0.0
  9
$LOFTMAG2
 40
0.0
  9
$LOFTPARAM
 70
7
  9
$LOFTNORMALS
280
1
  9
$LATITUDE
 40
37.795
  9
$LONGITUDE
 40
-122.394
  9
$NORTHDIRECTION
 40
0.0
  9
$TIMEZONE
 70
-8000
  9
$LIGHTGLYPHDISPLAY
280
1
  9
$TILEMODELIGHTSYNCH
280
1
  9
$CMATERIAL
347
20
  9
$SOLIDHIST
280
0
  9
$SHOWHIST
280
1
  9
$DWFFRAME
280
2
  9
$DGNFRAME
280
2
  9
$REALWORLDSCALE
290
1
  9
$INTERFERECOLOR
 62
256
  9
$CSHADOW
280
0
  9
$SHADOWPLANELOCATION
 40
0.0
  0
ENDSEC
  0
SECTION
  2
CLASSES
  0
CLASS
  1
ACDBDICTIONARYWDFLT
  2
AcDbDictionaryWithDefault
  3
ObjectDBX Classes
 90
0
 91
0
280
0
281
0
  0
CLASS
  1
SUN
  2
AcDbSun
  3
SCENEOE
 90
1153
 91
0
280
0
281
0
  0
CLASS
  1
VISUALSTYLE
  2
AcDbVisualStyle
  3
ObjectDBX Classes
 90
4095
 91
0
280
0
281
0
  0
CLASS
  1
MATERIAL
  2
AcDbMaterial
  3
ObjectDBX Classes
 90
1153
 91
0
280
0
281
0
  0
CLASS
  1
SCALE
  2
AcDbScale
  3
ObjectDBX Classes
 90
1153
 91
0
280
0
281
0
  0
CLASS
  1
TABLESTYLE
  2
AcDbTableStyle
  3
ObjectDBX Classes
 90
4095
 91
0
280
0
281
0
  0
CLASS
  1
MLEADERSTYLE
  2
AcDbMLeaderStyle
  3
ACDB_MLEADERSTYLE_CLASS
 90
4095
 91
0
280
0
281
0
  0
CLASS
  1
DICTIONARYVAR
  2
AcDbDictionaryVar
  3
ObjectDBX Classes
 90
0
 91
0
280
0
281
0
  0
CLASS
  1
CELLSTYLEMAP
  2
AcDbCellStyleMap
  3
ObjectDBX Classes
 90
1152
 91
0
280
0
281
0
  0
CLASS
  1
MENTALRAYRENDERSETTINGS
  2
AcDbMentalRayRenderSettings
  3
SCENEOE
 90
1024
 91
0
280
0
281
0
  0
CLASS
  1
ACDBDETAILVIEWSTYLE
  2
AcDbDetailViewStyle
  3
ObjectDBX Classes
 90
1025
 91
0
280
0
281
0
  0
CLASS
  1
ACDBSECTIONVIEWSTYLE
  2
AcDbSectionViewStyle
  3
ObjectDBX Classes
 90
1025
 91
0
280
0
281
0
  0
CLASS
  1
RASTERVARIABLES
  2
AcDbRasterVariables
  3
ISM
 90
0
 91
0
280
0
281
0
  0
CLASS
  1
LAYOUT
  2
AcDbLayout
  3
ObjectDBX Classes
 90
0
 91
0
280
0
281
0
  0
CLASS
  1
ACDBPLACEHOLDER
  2
AcDbPlaceHolder
  3
ObjectDBX Classes
 90
0
 91
0
280
0
281
0
  0
ENDSEC
  0
SECTION
  2
TABLES
  0
TABLE
  2
VPORT
  5
8
330
0
100
AcDbSymbolTable
 70
1
  0
VPORT
  5
23
330
8
100
AcDbSymbolTableRecord
100
AcDbViewportTableRecord
  2
*Active
 70
0
 10
0.0
 20
0.0
 11
1.0
 21
1.0
 12
0.0
 22
0.0
 13
0.0
 23
0.0
 14
0.5
 24
0.5
 15
0.5
 25
0.5
 16
0.0
 26
0.0
 36
1.0
 17
0.0
 27
0.0
 37
0.0
 40
1000.0
 41
1.34
 42
50.0
 43
0.0
 44
0.0
 50
0.0
 51
0.0
 71
0
 72
1000
 73
1
 74
3
 75
0
 76
0
 77
0
 78
0
281
0
 65
0
146
0.0
  0
ENDTAB
  0
TABLE
  2
LTYPE
  5
2
330
0
100
AcDbSymbolTable
 70
3
  0
LTYPE
  5
24
330
2
100
AcDbSymbolTableRecord
100
AcDbLinetypeTableRecord
  2
ByBlock
 70
0
  3

 72
65
 73
0
 40
0.0
  0
LTYPE
  5
25
330
2
100
AcDbSymbolTableRecord
100
AcDbLinetypeTableRecord
  2
ByLayer
 70
0
  3

 72
65
 73
0
 40
0.0
  0
LTYPE
  5
26
330
2
100
AcDbSymbolTableRecord
100
AcDbLinetypeTableRecord
  2
Continuous
 70
0
  3

 72
65
 73
0
 40
0.0
  0
ENDTAB
  0
TABLE
  2
LAYER
  5
1
330
0
100
AcDbSymbolTable
 70
7
  0
LAYER
  5
27
330
1
100
AcDbSymbolTableRecord
100
AcDbLayerTableRecord
  2
0
 70
0
 62
7
  6
Continuous
370
-3
390
13
347
21
  0
LAYER
  5
28
330
1
100
AcDbSymbolTableRecord
100
AcDbLayerTableRecord
  2
Defpoints
 70
0
 62
7
  6
Continuous
290
0
370
-3
390
13
347
21
  0
LAYER
  5
2F
330
1
100
AcDbSymbolTableRecord
100
AcDbLayerTableRecord
  2
ENG_L
 70
0
 62
4
  6
Continuous
370
-3
390
13
347
21
  0
LAYER
  5
30
330
1
100
AcDbSymbolTableRecord
100
AcDbLayerTableRecord
  2
ENG_D
 70
0
 62
3
  6
Continuous
370
-3
390
13
347
21
  0
LAYER
  5
31
330
1
100
AcDbSymbolTableRecord
100
AcDbLayerTableRecord
  2
ENG_K
 70
0
 62
2
  6
Continuous
370
-3
390
13
347
21
  0
LAYER
  5
32
330
1
100
AcDbSymbolTableRecord
100
AcDbLayerTableRecord
  2
CUT_OUTLINE
 70
0
 62
5
  6
Continuous
370
-3
390
13
347
21
  0
LAYER
  5
33
330
1
100
AcDbSymbolTableRecord
100
AcDbLayerTableRecord
  2
CUT_SLOT
 70
0
 62
1
  6
Continuous
370
-3
390
13
347
21
  0
ENDTAB
  0
TABLE
  2
STYLE
  5
5
330
0
100
AcDbSymbolTable
 70
1
  0
STYLE
  5
29
330
5
100
AcDbSymbolTableRecord
100
AcDbTextStyleTableRecord
  2
Standard
 70
0
 40
0.0
 41
1.0
 50
0.0
 71
0
 42
2.5
  3
txt
  4

  0
ENDTAB
  0
TABLE
  2
VIEW
  5
7
330
0
100
AcDbSymbolTable
 70
0
  0
ENDTAB
  0
TABLE
  2
UCS
  5
6
330
0
100
AcDbSymbolTable
 70
0
  0
ENDTAB
  0
TABLE
  2
APPID
  5
3
330
0
100
AcDbSymbolTable
 70
3
  0
APPID
  5
2A
330
3
100
AcDbSymbolTableRecord
100
AcDbRegAppTableRecord
  2
ACAD
 70
0
  0
APPID
  5
4A
330
3
100
AcDbSymbolTableRecord
100
AcDbRegAppTableRecord
  2
HATCHBACKGROUNDCOLOR
 70
0
  0
APPID
  5
4B
330
3
100
AcDbSymbolTableRecord
100
AcDbRegAppTableRecord
  2
EZDXF
 70
0
  0
ENDTAB
  0
TABLE
  2
DIMSTYLE
  5
4
330
0
100
AcDbSymbolTable
 70
1
100
AcDbDimStyleTable
  0
DIMSTYLE
105
2B
330
4
100
AcDbSymbolTableRecord
100
AcDbDimStyleTableRecord
  2
Standard
 70
0
 40
1.0
 41
2.5
 42
0.625
 43
3.75
 44
1.25
 45
0.0
 46
0.0
 47
0.0
 48
0.0
 49
2.5
140
2.5
141
2.5
142
0.0
143
0.03937007874
144
1.0
145
0.0
146
1.0
147
0.625
148
0.0
 69
0
 70
0
 71
0
 72
0
 73
0
 74
0
 75
0
 76
0
 77
1
 78
8
 79
3
170
0
171
3
172
1
173
0
174
0
175
0
176
0
177
0
178
0
179
2
271
2
272
2
273
2
274
3
275
0
276
0
277
2
278
44
279
0
280
0
281
0
282
0
283
0
284
8
285
0
286
0
288
0
289
3
290
0
371
-2
372
-2
  0
ENDTAB
  0
TABLE
  2
BLOCK_RECORD
  5
9
330
0
100
AcDbSymbolTable
 70
2
  0
BLOCK_RECORD
  5
17
330
9
100
AcDbSymbolTableRecord
100
AcDbBlockTableRecord
  2
*Model_Space
340
1A
 70
0
280
1
281
0
  0
BLOCK_RECORD
  5
1B
330
9
100
AcDbSymbolTableRecord
100
AcDbBlockTableRecord
  2
*Paper_Space
340
1E
 70
0
280
1
281
0
  0
ENDTAB
  0
ENDSEC
  0
SECTION
  2
BLOCKS
  0
BLOCK
  5
18
330
17
100
AcDbEntity
  8
0
100
AcDbBlockBegin
  2
*Model_Space
 70
0
 10
0.0
 20
0.0
 30
0.0
  3
*Model_Space
  1

  0
ENDBLK
  5
19
330
17
100
AcDbEntity
  8
0
100
AcDbBlockEnd
  0
BLOCK
  5
1C
330
1B
100
AcDbEntity
  8
0
100
AcDbBlockBegin
  2
*Paper_Space
 70
0
 10
0.0
 20
0.0
 30
0.0
  3
*Paper_Space
  1

  0
ENDBLK
  5
1D
330
1B
100
AcDbEntity
  8
0
100
AcDbBlockEnd
  0
ENDSEC
  0
SECTION
  2
ENTITIES
  0
LWPOLYLINE
  5
34
330
17
100
AcDbEntity
  8
ENG_L
100
AcDbPolyline
 90
42
 70
1
 10
157.21340768380907
 20
229.57400162523257
 10
153.2064692570853
 20
232.16672648958325
 10
148.49242404917499
 20
232.16672648958325
 10
147.54961500759293
 20
231.69532196879206
 10
146.13540144521983
 20
232.63813101037422
 10
144.48548562245122
 20
234.28804683314274
 10
144.01408110166017
 20
239.00209204105317
 10
143.54267658086914
 20
239.47349656184414
 10
143.54267658086914
 20
242.3019236865904
 10
143.07127206007812
 20
242.7733282073814
 10
145.19259240363778
 20
244.42324403014993
 10
147.07821048680188
 20
245.3660530717321
 10
148.49242404917499
 20
245.3660530717321
 10
149.43523309075704
 20
246.30886211331426
 10
153.67787377787633
 20
248.66588471726936
 10
154.6206828194584
 20
248.66588471726936
 10
156.0348963818315
 20
247.2516711548962
 10
159.80613254815975
 20
247.2516711548962
 10
160.04183480855528
 20
250.31580054003788
 10
159.57043028776422
 20
250.78720506082885
 10
159.57043028776422
 20
257.8582728726944
 10
160.7489415897418
 20
258.56537965388094
 10
160.98464385013733
 20
257.3868683519034
 10
161.69175063132388
 20
256.67976157071683
 10
163.10596419369696
 20
256.20835704992584
 10
164.9915822768611
 20
254.7941434875527
 10
165.46298679765212
 20
253.37992992517954
 10
168.0557116620028
 20
251.73001410241102
 10
168.52711618279383
 20
250.31580054003788
 10
171.35554330754002
 20
247.01596889450062
 10
169.2342229639804
 20
246.78026663410523
 10
168.76281844318936
 20
247.2516711548962
 10
162.63455967290594
 20
247.2516711548962
 10
161.92745289171938
 20
246.54456437370965
 10
160.98464385013733
 20
241.83051916579922
 10
160.5132393293463
 20
241.35911464500825
 10
160.5132393293463
 20
239.94490108263534
 10
159.57043028776422
 20
238.05928299947098
 10
159.09902576697317
 20
234.75945135393394
 10
158.62762124618214
 20
234.28804683314274
 10
158.15621672539112
 20
229.57400162523257
 10
157.21340768380907
 20
229.57400162523257
  0
LWPOLYLINE
  5
35
330
17
100
AcDbEntity
  8
ENG_D
100
AcDbPolyline
 90
51
 70
1
 10
206.4751801064719
 20
96.87362902255703
 10
206.00377558568084
 20
97.34503354334811
 10
203.64675298172568
 20
97.34503354334811
 10
203.17534846093466
 20
97.81643806413909
 10
200.8183258569795
 20
97.81643806413909
 10
200.34692133618847
 20
98.28784258493017
 10
198.46130325302434
 20
98.28784258493017
 10
197.98989873223329
 20
98.75924710572114
 10
196.10428064906918
 20
98.75924710572114
 10
194.21866256590505
 20
96.87362902255703
 10
192.33304448274095
 20
98.28784258493017
 10
191.3902354411589
 20
98.28784258493017
 10
188.56180831641268
 20
99.70205614730321
 10
187.14759475403957
 20
99.70205614730321
 10
183.84776310850236
 20
101.58767423046733
 10
182.90495406692028
 20
101.58767423046733
 10
182.19784728573373
 20
102.2947810116539
 10
182.19784728573373
 20
103.23759005323596
 10
183.14065632731584
 20
105.12320813640008
 10
183.14065632731584
 20
106.06601717798215
 10
184.0834653688979
 20
107.48023074035528
 10
185.49767893127097
 20
112.66568046905667
 10
183.84776310850236
 20
113.37278725024314
 10
181.25503824415168
 20
113.60848951063862
 10
180.78363372336065
 20
119.73674828092207
 10
180.31222920256963
 20
120.20815280171315
 10
180.31222920256963
 20
122.56517540566824
 10
179.8408246817786
 20
123.03657992645934
 10
181.7264427649427
 20
125.86500705120551
 10
182.43354954612926
 20
126.100709311601
 10
185.26197667087547
 20
123.27228218685482
 10
187.14759475403957
 20
122.80087766606384
 10
188.09040379562165
 20
121.85806862448167
 10
189.0332128372037
 20
121.85806862448167
 10
190.91883092036784
 20
120.44385506210864
 10
193.275853524323
 20
117.61542793736245
 10
200.34692133618847
 20
114.31559629182519
 10
201.28973037777052
 20
113.37278725024314
 10
202.2325394193526
 20
113.84419177103422
 10
203.64675298172568
 20
112.90138272945217
 10
205.53237106488982
 20
112.42997820866107
 10
211.66062983517324
 20
107.24452847995968
 10
213.54624791833734
 20
106.77312395916871
 10
214.01765243912837
 20
105.35891039679557
 10
214.72475922031495
 20
106.06601717798215
 10
214.96046148071045
 20
155.32778960064496
 10
215.19616374110598
 20
98.99494936611663
 10
214.01765243912837
 20
98.75924710572114
 10
211.66062983517324
 20
97.34503354334811
 10
208.59650045003153
 20
96.63792676216154
 10
206.4751801064719
 20
96.87362902255703
  0
LWPOLYLINE
  5
36
330
17
100
AcDbEntity
  8
ENG_D
100
AcDbPolyline
 90
96
 70
1
 10
135.05739520663056
 20
217.78888860545675
 10
134.58599068583953
 20
219.2031021678298
 10
135.05739520663056
 20
219.67450668862088
 10
135.05739520663056
 20
221.0887202509939
 10
134.58599068583953
 20
221.56012477178487
 10
134.58599068583953
 20
222.50293381336706
 10
135.05739520663056
 20
222.97433833415803
 10
135.2930974670261
 20
240.1806033430307
 10
133.40747938386195
 20
241.1234123846129
 10
132.2289680818844
 20
239.94490108263534
 10
131.28615904030232
 20
238.05928299947098
 10
131.75756356109335
 20
237.11647395788904
 10
131.28615904030232
 20
236.64506943709807
 10
131.05045677990682
 20
234.99515361432933
 10
127.27922061357854
 20
234.99515361432933
 10
127.04351835318303
 20
237.58787847868
 10
129.40054095713822
 20
242.3019236865904
 10
129.40054095713822
 20
243.71613724896358
 10
129.87194547792924
 20
244.18754176975455
 10
128.2220296551606
 20
245.3660530717321
 10
127.51492287397406
 20
244.65894629054552
 10
127.9863273947651
 20
244.18754176975455
 10
127.27922061357854
 20
243.48043498856796
 10
126.80781609278752
 20
243.95183950935893
 10
125.86500705120545
 20
243.48043498856796
 10
124.9221980096234
 20
243.95183950935893
 10
123.97938896804133
 20
243.009030467777
 10
123.03657992645928
 20
243.009030467777
 10
122.0937708848772
 20
243.95183950935893
 10
120.20815280171308
 20
243.95183950935893
 10
118.32253471854895
 20
241.59481690540386
 10
117.14402341657137
 20
241.83051916579922
 10
116.90832115617586
 20
243.95183950935893
 10
114.5512985522207
 20
241.59481690540386
 10
113.13708498984761
 20
241.59481690540386
 10
111.25146690668349
 20
240.6520078638217
 10
109.36584882351936
 20
238.2949852598666
 10
108.42303978193729
 20
238.2949852598666
 10
107.95163526114627
 20
237.82358073907562
 10
107.24452847995971
 20
238.53068752026218
 10
110.0729556047059
 20
240.88771012421728
 10
111.25146690668349
 20
242.5376259469858
 10
114.07989403142966
 20
243.95183950935893
 10
115.02270307301174
 20
244.89464855094113
 10
116.90832115617586
 20
245.3660530717321
 10
118.79393923933999
 20
246.78026663410523
 10
121.15096184329515
 20
247.7230756756872
 10
121.62236636408618
 20
248.66588471726936
 10
123.03657992645928
 20
249.13728923806033
 10
124.9221980096234
 20
250.55150280043347
 10
125.39360253041443
 20
250.0800982796425
 10
127.75062513436957
 20
251.02290732122447
 10
129.1648386967427
 20
251.02290732122447
 10
131.99326582148888
 20
253.85133444597074
 10
133.878883904653
 20
254.7941434875527
 10
137.17871555019025
 20
255.26554800834367
 10
139.53573815414538
 20
257.622570612299
 10
141.4213562373095
 20
258.56537965388094
 10
144.72118788284675
 20
259.0367841746721
 10
145.19259240363778
 20
259.5081886954631
 10
146.13540144521983
 20
259.0367841746721
 10
156.0348963818315
 20
259.0367841746721
 10
156.97770542341354
 20
259.5081886954631
 10
157.92051446499562
 20
258.56537965388094
 10
159.57043028776422
 20
257.8582728726944
 10
159.57043028776422
 20
250.78720506082885
 10
160.04183480855528
 20
250.31580054003788
 10
160.04183480855528
 20
247.4873734152918
 10
156.0348963818315
 20
247.2516711548962
 10
154.6206828194584
 20
248.66588471726936
 10
153.67787377787633
 20
248.66588471726936
 10
149.43523309075704
 20
246.30886211331426
 10
148.49242404917499
 20
245.3660530717321
 10
147.07821048680188
 20
245.3660530717321
 10
145.19259240363778
 20
244.42324403014993
 10
143.07127206007812
 20
242.7733282073814
 10
143.54267658086914
 20
242.3019236865904
 10
143.54267658086914
 20
239.47349656184414
 10
144.01408110166017
 20
239.00209204105317
 10
144.48548562245122
 20
234.28804683314274
 10
147.3139127471974
 20
231.93102422918764
 10
147.3139127471974
 20
231.45961970839667
 10
146.37110370561535
 20
230.9882151876057
 10
145.42829466403327
 20
229.57400162523257
 10
144.01408110166017
 20
225.80276545890433
 10
141.657058497705
 20
222.97433833415803
 10
142.12846301849603
 20
222.50293381336706
 10
142.12846301849603
 20
220.61731573020293
 10
142.5998675392871
 20
220.14591120941196
 10
143.07127206007812
 20
216.3746750430836
 10
141.89276075810054
 20
216.1389727826881
 10
141.4213562373095
 20
216.61037730347908
 10
137.65012007098127
 20
217.0817818242702
 10
135.7645019878171
 20
216.1389727826881
 10
134.58599068583953
 20
216.8460795638747
 10
135.05739520663056
 20
217.78888860545675
  0
LWPOLYLINE
  5
37
330
17
100
AcDbEntity
  8
ENG_D
100
AcDbPolyline
 90
25
 70
1
 10
103.47329231363146
 20
20.270394394014346
 10
103.00188779284042
 20
21.68460795638749
 10
104.18039909481801
 20
21.92031021678298
 10
104.88750587600455
 20
22.62741699796955
 10
104.41610135521353
 20
23.098821518760527
 10
105.35891039679558
 20
24.041630560342586
 10
104.41610135521353
 20
25.45584412271573
 10
105.35891039679558
 20
26.870057685088767
 10
104.88750587600455
 20
27.812866726670826
 10
105.83031491758662
 20
29.69848480983506
 10
105.35891039679558
 20
30.16988933062603
 10
108.89444430272832
 20
30.40559159102152
 10
109.36584882351936
 20
29.934187070230543
 10
113.13708498984761
 20
29.934187070230543
 10
114.07989403142966
 20
29.46278254943946
 10
113.84419177103415
 20
25.45584412271573
 10
113.37278725024312
 20
24.984439601924645
 10
113.37278725024312
 20
23.098821518760527
 10
112.9013827294521
 20
22.62741699796955
 10
112.9013827294521
 20
20.270394394014346
 10
112.42997820866105
 20
19.79898987322337
 10
112.42997820866105
 20
16.970562748477192
 10
111.72287142747452
 20
16.263455967290618
 10
101.58767423046733
 20
16.499158227686106
 10
103.47329231363146
 20
20.270394394014346
  0
LWPOLYLINE
  5
38
330
17
100
AcDbEntity
  8
ENG_D
100
AcDbPolyline
 90
29
 70
1
 10
104.41610135521353
 20
160.74894158974183
 10
103.00188779284042
 20
162.163155152115
 10
102.5304832720494
 20
164.99158227686118
 10
101.58767423046733
 20
166.4057958392342
 10
101.58767423046733
 20
167.34860488081637
 10
100.64486518888526
 20
168.76281844318942
 10
100.17346066809424
 20
171.1198410471446
 10
99.70205614730321
 20
171.5912455679356
 10
99.70205614730321
 20
173.4768636510997
 10
98.2878425849301
 20
176.3052907758459
 10
98.75924710572113
 20
176.77669529663697
 10
97.81643806413908
 20
178.6623133798011
 10
97.34503354334804
 20
181.01933598375618
 10
101.82337649086284
 20
182.6692518065248
 10
104.18039909481801
 20
182.6692518065248
 10
107.95163526114627
 20
184.08346536889798
 10
109.60155108391487
 20
182.9049540669203
 10
108.6587420423328
 20
180.5479314629652
 10
107.71593300075075
 20
173.9482681718908
 10
107.24452847995971
 20
173.4768636510997
 10
107.24452847995971
 20
171.5912455679356
 10
106.77312395916867
 20
171.1198410471446
 10
106.77312395916867
 20
169.2342229639805
 10
105.83031491758662
 20
166.87720036002528
 10
105.83031491758662
 20
164.99158227686118
 10
105.35891039679558
 20
164.5201777560701
 10
105.35891039679558
 20
160.27753706895086
 10
103.94469683442249
 20
160.27753706895086
 10
104.41610135521353
 20
160.74894158974183
  0
LWPOLYLINE
  5
39
330
17
100
AcDbEntity
  8
ENG_D
100
AcDbPolyline
 90
4
 70
1
 10
107.24452847995971
 20
238.05928299947098
 10
107.00882621956418
 20
237.82358073907562
 10
107.00882621956418
 20
238.2949852598666
 10
107.24452847995971
 20
238.05928299947098
  0
LWPOLYLINE
  5
3A
330
17
100
AcDbEntity
  8
ENG_K
100
AcDbPolyline
 90
20
 70
1
 10
146.13540144521983
 20
215.19616374110606
 10
145.6639969244288
 20
215.66756826189703
 10
144.24978336205572
 20
215.66756826189703
 10
143.07127206007812
 20
216.3746750430836
 10
142.5998675392871
 20
220.14591120941196
 10
142.12846301849603
 20
220.61731573020293
 10
142.12846301849603
 20
222.50293381336706
 10
141.657058497705
 20
222.97433833415803
 10
144.01408110166017
 20
225.80276545890433
 10
144.48548562245122
 20
227.68838354206844
 10
146.60680596601085
 20
231.2239174480011
 10
147.3139127471974
 20
230.5168106668145
 10
148.72812630957048
 20
225.80276545890433
 10
150.1423398719436
 20
223.445742854949
 10
151.08514891352564
 20
219.67450668862088
 10
151.55655343431667
 20
219.2031021678298
 10
151.55655343431667
 20
217.78888860545675
 10
152.9707669966898
 20
214.48905695991948
 10
152.73506473629428
 20
213.78195017873293
 10
146.13540144521983
 20
215.19616374110606
  0
LWPOLYLINE
  5
3B
330
17
100
AcDbEntity
  8
ENG_K
100
AcDbPolyline
 90
14
 70
1
 10
110.0729556047059
 20
151.79225569471222
 10
107.71593300075075
 20
154.1492782986674
 10
107.71593300075075
 20
155.0920873402495
 10
106.77312395916867
 20
155.56349186104046
 10
106.77312395916867
 20
156.03489638183154
 10
109.83725334431038
 20
156.27059864222704
 10
111.95857368787003
 20
157.92051446499568
 10
112.19427594826554
 20
159.0990257669732
 10
113.60848951063863
 20
159.0990257669732
 10
113.37278725024312
 20
157.44910994420457
 10
111.01576464628798
 20
153.20646925708536
 10
111.01576464628798
 20
152.2636602155033
 10
110.30865786510141
 20
151.08514891352564
 10
110.0729556047059
 20
151.79225569471222
  0
LWPOLYLINE
  5
3C
330
17
100
AcDbEntity
  8
ENG_K
100
AcDbPolyline
 90
5
 70
1
 10
103.94469683442249
 20
159.3347280273687
 10
104.18039909481801
 20
160.04183480855528
 10
105.83031491758662
 20
159.80613254815978
 10
105.12320813640007
 20
158.62762124618223
 10
103.94469683442249
 20
159.3347280273687
  0
LWPOLYLINE
  5
3D
330
17
100
AcDbEntity
  8
CUT_SLOT
100
AcDbPolyline
 90
5
 70
1
 10
214.694840424392
 20
141.42135623730957
 10
218.25894203952976
 20
141.42135623730957
 10
218.25894203952976
 20
282.84271247461913
 10
214.694840424392
 20
282.84271247461913
 10
214.694840424392
 20
141.42135623730957
  0
LWPOLYLINE
  5
3E
330
17
100
AcDbEntity
  8
CUT_SLOT
100
AcDbPolyline
 90
5
 70
1
 10
191.60082965680698
 20
141.42135623730957
 10
195.16493127194474
 20
141.42135623730957
 10
195.16493127194474
 20
282.84271247461913
 10
191.60082965680698
 20
282.84271247461913
 10
191.60082965680698
 20
141.42135623730957
  0
LWPOLYLINE
  5
3F
330
17
100
AcDbEntity
  8
CUT_SLOT
100
AcDbPolyline
 90
5
 70
1
 10
168.5068188892219
 20
141.42135623730957
 10
172.07092050435966
 20
141.42135623730957
 10
172.07092050435966
 20
282.84271247461913
 10
168.5068188892219
 20
282.84271247461913
 10
168.5068188892219
 20
141.42135623730957
  0
LWPOLYLINE
  5
40
330
17
100
AcDbEntity
  8
CUT_SLOT
100
AcDbPolyline
 90
5
 70
1
 10
145.41280812163689
 20
141.42135623730957
 10
148.97690973677467
 20
141.42135623730957
 10
148.97690973677467
 20
282.84271247461913
 10
145.41280812163689
 20
282.84271247461913
 10
145.41280812163689
 20
141.42135623730957
  0
LWPOLYLINE
  5
41
330
17
100
AcDbEntity
  8
CUT_SLOT
100
AcDbPolyline
 90
5
 70
1
 10
122.31879735405187
 20
141.42135623730957
 10
125.88289896918961
 20
141.42135623730957
 10
125.88289896918961
 20
282.84271247461913
 10
122.31879735405187
 20
282.84271247461913
 10
122.31879735405187
 20
141.42135623730957
  0
LWPOLYLINE
  5
42
330
17
100
AcDbEntity
  8
CUT_SLOT
100
AcDbPolyline
 90
5
 70
1
 10
99.22478658646679
 20
141.42135623730957
 10
102.78888820160455
 20
141.42135623730957
 10
102.78888820160455
 20
282.84271247461913
 10
99.22478658646679
 20
282.84271247461913
 10
99.22478658646679
 20
141.42135623730957
  0
LWPOLYLINE
  5
43
330
17
100
AcDbEntity
  8
CUT_SLOT
100
AcDbPolyline
 90
5
 70
1
 10
64.58377043508925
 20
141.42135623730957
 10
68.14787205022702
 20
141.42135623730957
 10
68.14787205022702
 20
282.84271247461913
 10
64.58377043508925
 20
282.84271247461913
 10
64.58377043508925
 20
141.42135623730957
  0
LWPOLYLINE
  5
44
330
17
100
AcDbEntity
  8
CUT_SLOT
100
AcDbPolyline
 90
5
 70
1
 10
87.67778120267428
 20
141.42135623730957
 10
91.24188281781204
 20
141.42135623730957
 10
91.24188281781204
 20
282.84271247461913
 10
87.67778120267428
 20
282.84271247461913
 10
87.67778120267428
 20
141.42135623730957
  0
LWPOLYLINE
  5
45
330
17
100
AcDbEntity
  8
CUT_SLOT
100
AcDbPolyline
 90
5
 70
1
 10
110.77179197025932
 20
141.42135623730957
 10
114.33589358539707
 20
141.42135623730957
 10
114.33589358539707
 20
282.84271247461913
 10
110.77179197025932
 20
282.84271247461913
 10
110.77179197025932
 20
141.42135623730957
  0
LWPOLYLINE
  5
46
330
17
100
AcDbEntity
  8
CUT_SLOT
100
AcDbPolyline
 90
5
 70
1
 10
133.86580273784435
 20
141.42135623730957
 10
137.4299043529821
 20
141.42135623730957
 10
137.4299043529821
 20
282.84271247461913
 10
133.86580273784435
 20
282.84271247461913
 10
133.86580273784435
 20
141.42135623730957
  0
LWPOLYLINE
  5
47
330
17
100
AcDbEntity
  8
CUT_SLOT
100
AcDbPolyline
 90
5
 70
1
 10
156.95981350542937
 20
141.42135623730957
 10
160.52391512056712
 20
141.42135623730957
 10
160.52391512056712
 20
282.84271247461913
 10
156.95981350542937
 20
282.84271247461913
 10
156.95981350542937
 20
141.42135623730957
  0
LWPOLYLINE
  5
48
330
17
100
AcDbEntity
  8
CUT_SLOT
100
AcDbPolyline
 90
5
 70
1
 10
180.05382427301438
 20
141.42135623730957
 10
183.61792588815214
 20
141.42135623730957
 10
183.61792588815214
 20
282.84271247461913
 10
180.05382427301438
 20
282.84271247461913
 10
180.05382427301438
 20
141.42135623730957
  0
LWPOLYLINE
  5
49
330
17
100
AcDbEntity
  8
CUT_OUTLINE
100
AcDbPolyline
 90
5
 70
1
 10
0.0
 20
0.0
 10
282.842712474619
 20
0.0
 10
282.842712474619
 20
282.84271247461913
 10
0.0
 20
282.84271247461913
 10
0.0
 20
0.0
  0
ENDSEC
  0
SECTION
  2
OBJECTS
  0
DICTIONARY
  5
A
330
0
100
AcDbDictionary
281
1
  3
ACAD_COLOR
350
B
  3
ACAD_GROUP
350
C
  3
ACAD_LAYOUT
350
D
  3
ACAD_MATERIAL
350
E
  3
ACAD_MLEADERSTYLE
350
F
  3
ACAD_MLINESTYLE
350
10
  3
ACAD_PLOTSETTINGS
350
11
  3
ACAD_PLOTSTYLENAME
350
12
  3
ACAD_SCALELIST
350
14
  3
ACAD_TABLESTYLE
350
15
  3
ACAD_VISUALSTYLE
350
16
  3
EZDXF_META
350
2D
  0
DICTIONARY
  5
B
330
A
100
AcDbDictionary
281
1
  0
DICTIONARY
  5
C
330
A
100
AcDbDictionary
281
1
  0
DICTIONARY
  5
D
330
A
100
AcDbDictionary
281
1
  3
Model
350
1A
  3
Layout1
350
1E
  0
DICTIONARY
  5
E
330
A
100
AcDbDictionary
281
1
  3
ByBlock
350
1F
  3
ByLayer
350
20
  3
Global
350
21
  0
DICTIONARY
  5
F
330
A
100
AcDbDictionary
281
1
  3
Standard
350
2C
  0
DICTIONARY
  5
10
330
A
100
AcDbDictionary
281
1
  3
Standard
350
22
  0
DICTIONARY
  5
11
330
A
100
AcDbDictionary
281
1
  0
ACDBDICTIONARYWDFLT
  5
12
330
A
100
AcDbDictionary
281
1
  3
Normal
350
13
100
AcDbDictionaryWithDefault
340
13
  0
ACDBPLACEHOLDER
  5
13
330
12
  0
DICTIONARY
  5
14
330
A
100
AcDbDictionary
281
1
  0
DICTIONARY
  5
15
330
A
100
AcDbDictionary
281
1
  0
DICTIONARY
  5
16
330
A
100
AcDbDictionary
281
1
  0
LAYOUT
  5
1A
330
D
100
AcDbPlotSettings
  1

  4
A3
  6

 40
7.5
 41
20.0
 42
7.5
 43
20.0
 44
420.0
 45
297.0
 46
0.0
 47
0.0
 48
0.0
 49
0.0
140
0.0
141
0.0
142
1.0
143
1.0
 70
1024
 72
1
 73
0
 74
5
  7

 75
16
 76
0
 77
2
 78
300
147
1.0
148
0.0
149
0.0
100
AcDbLayout
  1
Model
 70
1
 71
0
 10
0.0
 20
0.0
 11
420.0
 21
297.0
 12
0.0
 22
0.0
 32
0.0
 14
1e+20
 24
1e+20
 34
1e+20
 15
-1e+20
 25
-1e+20
 35
-1e+20
146
0.0
 13
0.0
 23
0.0
 33
0.0
 16
1.0
 26
0.0
 36
0.0
 17
0.0
 27
1.0
 37
0.0
 76
1
330
17
  0
LAYOUT
  5
1E
330
D
100
AcDbPlotSettings
  1

  4
A3
  6

 40
7.5
 41
20.0
 42
7.5
 43
20.0
 44
420.0
 45
297.0
 46
0.0
 47
0.0
 48
0.0
 49
0.0
140
0.0
141
0.0
142
1.0
143
1.0
 70
0
 72
1
 73
0
 74
5
  7

 75
16
 76
0
 77
2
 78
300
147
1.0
148
0.0
149
0.0
100
AcDbLayout
  1
Layout1
 70
1
 71
1
 10
0.0
 20
0.0
 11
420.0
 21
297.0
 12
0.0
 22
0.0
 32
0.0
 14
1e+20
 24
1e+20
 34
1e+20
 15
-1e+20
 25
-1e+20
 35
-1e+20
146
0.0
 13
0.0
 23
0.0
 33
0.0
 16
1.0
 26
0.0
 36
0.0
 17
0.0
 27
1.0
 37
0.0
 76
1
330
1B
  0
MATERIAL
  5
1F
102
{ACAD_REACTORS
330
E
102
}
330
E
100
AcDbMaterial
  1
ByBlock
  2

 70
0
 40
1.0
 71
1
 41
1.0
 91
-1023410177
 42
1.0
 72
1
  3

 73
1
 74
1
 75
1
 44
0.5
 73
0
 45
1.0
 46
1.0
 77
1
  4

 78
1
 79
1
170
1
 48
1.0
171
1
  6

172
1
173
1
174
1
140
1.0
141
1.0
175
1
  7

176
1
177
1
178
1
143
1.0
179
1
  8

270
1
271
1
272
1
145
1.0
146
1.0
273
1
  9

274
1
275
1
276
1
 42
1.0
 72
1
  3

 73
1
 74
1
 75
1
 94
63
  0
MATERIAL
  5
20
102
{ACAD_REACTORS
330
E
102
}
330
E
100
AcDbMaterial
  1
ByLayer
  2

 70
0
 40
1.0
 71
1
 41
1.0
 91
-1023410177
 42
1.0
 72
1
  3

 73
1
 74
1
 75
1
 44
0.5
 73
0
 45
1.0
 46
1.0
 77
1
  4

 78
1
 79
1
170
1
 48
1.0
171
1
  6

172
1
173
1
174
1
140
1.0
141
1.0
175
1
  7

176
1
177
1
178
1
143
1.0
179
1
  8

270
1
271
1
272
1
145
1.0
146
1.0
273
1
  9

274
1
275
1
276
1
 42
1.0
 72
1
  3

 73
1
 74
1
 75
1
 94
63
  0
MATERIAL
  5
21
102
{ACAD_REACTORS
330
E
102
}
330
E
100
AcDbMaterial
  1
Global
  2

 70
0
 40
1.0
 71
1
 41
1.0
 91
-1023410177
 42
1.0
 72
1
  3

 73
1
 74
1
 75
1
 44
0.5
 73
0
 45
1.0
 46
1.0
 77
1
  4

 78
1
 79
1
170
1
 48
1.0
171
1
  6

172
1
173
1
174
1
140
1.0
141
1.0
175
1
  7

176
1
177
1
178
1
143
1.0
179
1
  8

270
1
271
1
272
1
145
1.0
146
1.0
273
1
  9

274
1
275
1
276
1
 42
1.0
 72
1
  3

 73
1
 74
1
 75
1
 94
63
  0
MLINESTYLE
  5
22
102
{ACAD_REACTORS
330
10
102
}
330
10
100
AcDbMlineStyle
  2
Standard
 70
0
  3

 62
256
 51
90.0
 52
90.0
 71
2
 49
0.5
 62
256
  6
BYLAYER
 49
-0.5
 62
256
  6
BYLAYER
  0
MLEADERSTYLE
  5
2C
102
{ACAD_REACTORS
330
F
102
}
330
F
100
AcDbMLeaderStyle
179
2
170
2
171
1
172
0
 90
2
 40
0.0
 41
0.0
173
1
 91
-1056964608
 92
-2
290
1
 42
2.0
291
1
 43
8.0
  3
Standard
 44
4.0
300

342
29
174
1
175
1
176
0
178
1
 93
-1056964608
 45
4.0
292
0
297
0
 46
4.0
 94
-1056964608
 47
1.0
 49
1.0
140
1.0
294
1
141
0.0
177
0
142
1.0
295
0
296
0
143
3.75
271
0
272
9
273
9
  0
DICTIONARY
  5
2D
330
A
100
AcDbDictionary
280
1
281
1
  3
CREATED_BY_EZDXF
350
2E
  3
WRITTEN_BY_EZDXF
350
4C
  0
DICTIONARYVAR
  5
2E
330
2D
100
DictionaryVariables
280
0
  1
1.4.4 @ 2026-08-03T11:44:35.945481+00:00
  0
DICTIONARYVAR
  5
4C
330
2D
100
DictionaryVariables
280
0
  1
1.4.4 @ 2026-08-03T11:44:35.951526+00:00
  0
ENDSEC
  0
EOF
