  0
SECTION
  2
HEADER
  9
$ACADVER
  1
AC1027
  9
$ACADMAINTVER
 70
105
  9
$DWGCODEPAGE
  3
ANSI_1252
  9
$LASTSAVEDBY
  1
ezdxf
  9
$REQUIREDVERSIONS
160
0
  9
$INSBASE
 10
0.0
 20
0.0
 30
0.0
  9
$EXTMIN
 10
1e+20
 20
1e+20
 30
1e+20
  9
$EXTMAX
 10
-1e+20
 20
-1e+20
 30
-1e+20
  9
$LIMMIN
 10
0.0
 20
0.0
  9
$LIMMAX
 10
420.0
 20
297.0
  9
$ORTHOMODE
 70
0
  9
$REGENMODE
 70
1
  9
$FILLMODE
 70
1
  9
$QTEXTMODE
 70
0
  9
$MIRRTEXT
 70
1
  9
$LTSCALE
 40
1.0
  9
$ATTMODE
 70
1
  9
$TEXTSIZE
 40
2.5
  9
$TRACEWID
 40
1.0
  9
$TEXTSTYLE
  7
Standard
  9
$CLAYER
  8
0
  9
$CELTYPE
  6
ByLayer
  9
$CECOLOR
 62
256
  9
$CELTSCALE
 40
1.0
  9
$DISPSILH
 70
0
  9
$DIMSCALE
 40
1.0
  9
$DIMASZ
 40
2.5
  9
$DIMEXO
 40
0.625
  9
$DIMDLI
 40
3.75
  9
$DIMRND
 40
0.0
  9
$DIMDLE
 40
0.0
  9
$DIMEXE
 40
1.25
  9
$DIMTP
 40
0.0
  9
$DIMTM
 40
0.0
  9
$DIMTXT
 40
2.5
  9
$DIMCEN
 40
2.5
  9
$DIMTSZ
 40
0.0
  9
$DIMTOL
 70
0
  9
$DIMLIM
 70
0
  9
$DIMTIH
 70
0
  9
$DIMTOH
 70
0
  9
$DIMSE1
 70
0
  9
$DIMSE2
 70
0
  9
$DIMTAD
 70
1
  9
$DIMZIN
 70
8
  9
$DIMBLK
  1

  9
$DIMASO
 70
1
  9
$DIMSHO
 70
1
  9
$DIMPOST
  1

  9
$DIMAPOST
  1

  9
$DIMALT
 70
0
  9
$DIMALTD
 70
3
  9
$DIMALTF
 40
0.03937007874
  9
$DIMLFAC
 40
1.0
  9
$DIMTOFL
 70
1
  9
$DIMTVP
 40
0.0
  9
$DIMTIX
 70
0
  9
$DIMSOXD
 70
0
  9
$DIMSAH
 70
0
  9
$DIMBLK1
  1

  9
$DIMBLK2
  1

  9
$DIMSTYLE
  2
ISO-25
  9
$DIMCLRD
 70
0
  9
$DIMCLRE
 70
0
  9
$DIMCLRT
 70
0
  9
$DIMTFAC
 40
1.0
  9
$DIMGAP
 40
0.625
  9
$DIMJUST
 70
0
  9
$DIMSD1
 70
0
  9
$DIMSD2
 70
0
  9
$DIMTOLJ
 70
0
  9
$DIMTZIN
 70
8
  9
$DIMALTZ
 70
0
  9
$DIMALTTZ
 70
0
  9
$DIMUPT
 70
0
  9
$DIMDEC
 70
2
  9
$DIMTDEC
 70
2
  9
$DIMALTU
 70
2
  9
$DIMALTTD
 70
3
  9
$DIMTXSTY
  7
Standard
  9
$DIMAUNIT
 70
0
  9
$DIMADEC
 70
0
  9
$DIMALTRND
 40
0.0
  9
$DIMAZIN
 70
0
  9
$DIMDSEP
 70
44
  9
$DIMATFIT
 70
3
  9
$DIMFRAC
 70
0
  9
$DIMLDRBLK
  1

  9
$DIMLUNIT
 70
2
  9
$DIMLWD
 70
-2
  9
$DIMLWE
 70
-2
  9
$DIMTMOVE
 70
0
  9
$DIMFXL
 40
1.0
  9
$DIMFXLON
 70
0
  9
$DIMJOGANG
 40
0.785398163397
  9
$DIMTFILL
 70
0
  9
$DIMTFILLCLR
 70
0
  9
$DIMARCSYM
 70
0
  9
$DIMLTYPE
  6

  9
$DIMLTEX1
  6

  9
$DIMLTEX2
  6

  9
$DIMTXTDIRECTION
 70
0
  9
$LUNITS
 70
2
  9
$LUPREC
 70
4
  9
$SKETCHINC
 40
1.0
  9
$FILLETRAD
 40
10.0
  9
$AUNITS
 70
0
  9
$AUPREC
 70
2
  9
$MENU
  1
.
  9
$ELEVATION
 40
0.0
  9
$PELEVATION
 40
0.0
  9
$THICKNESS
 40
0.0
  9
$LIMCHECK
 70
0
  9
$CHAMFERA
 40
0.0
  9
$CHAMFERB
 40
0.0
  9
$CHAMFERC
 40
0.0
  9
$CHAMFERD
 40
0.0
  9
$SKPOLY
 70
0
  9
$TDCREATE
 40
2461256.6143055554
  9
$TDUCREATE
 40
2458532.153996898
  9
$TDUPDATE
 40
2461256.6143055554
  9
$TDUUPDATE
 40
2458532.1544311
  9
$TDINDWG
 40
0.0
  9
$TDUSRTIMER
 40
0.0
  9
$USRTIMER
 70
1
  9
$ANGBASE
 50
0.0
  9
$ANGDIR
 70
0
  9
$PDMODE
 70
0
  9
$PDSIZE
 40
0.0
  9
$PLINEWID
 40
0.0
  9
$SPLFRAME
 70
0
  9
$SPLINETYPE
 70
6
  9
$SPLINESEGS
 70
8
  9
$HANDSEED
  5
4E
  9
$SURFTAB1
 70
6
  9
$SURFTAB2
 70
6
  9
$SURFTYPE
 70
6
  9
$SURFU
 70
6
  9
$SURFV
 70
6
  9
$UCSBASE
  2

  9
$UCSNAME
  2

  9
$UCSORG
 10
0.0
 20
0.0
 30
0.0
  9
$UCSXDIR
 10
1.0
 20
0.0
 30
0.0
  9
$UCSYDIR
 10
0.0
 20
1.0
 30
0.0
  9
$UCSORTHOREF
  2

  9
$UCSORTHOVIEW
 70
0
  9
$UCSORGTOP
 10
0.0
 20
0.0
 30
0.0
  9
$UCSORGBOTTOM
 10
0.0
 20
0.0
 30
0.0
  9
$UCSORGLEFT
 10
0.0
 20
0.0
 30
0.0
  9
$UCSORGRIGHT
 10
0.0
 20
0.0
 30
0.0
  9
$UCSORGFRONT
 10
0.0
 20
0.0
 30
0.0
  9
$UCSORGBACK
 10
0.0
 20
0.0
 30
0.0
  9
$PUCSBASE
  2

  9
$PUCSNAME
  2

  9
$PUCSORG
 10
0.0
 20
0.0
 30
0.0
  9
$PUCSXDIR
 10
1.0
 20
0.0
 30
0.0
  9
$PUCSYDIR
 10
0.0
 20
1.0
 30
0.0
  9
$PUCSORTHOREF
  2

  9
$PUCSORTHOVIEW
 70
0
  9
$PUCSORGTOP
 10
0.0
 20
0.0
 30
0.0
  9
$PUCSORGBOTTOM
 10
0.0
 20
0.0
 30
0.0
  9
$PUCSORGLEFT
 10
0.0
 20
0.0
 30
0.0
  9
$PUCSORGRIGHT
 10
0.0
 20
0.0
 30
0.0
  9
$PUCSORGFRONT
 10
0.0
 20
0.0
 30
0.0
  9
$PUCSORGBACK
 10
0.0
 20
0.0
 30
0.0
  9
$USERI1
 70
0
  9
$USERI2
 70
0
  9
$USERI3
 70
0
  9
$USERI4
 70
0
  9
$USERI5
 70
0
  9
$USERR1
 40
0.0
  9
$USERR2
 40
0.0
  9
$USERR3
 40
0.0
  9
$USERR4
 40
0.0
  9
$USERR5
 40
0.0
  9
$WORLDVIEW
 70
1
  9
$SHADEDGE
 70
3
  9
$SHADEDIF
 70
70
  9
$TILEMODE
 70
1
  9
$MAXACTVP
 70
64
  9
$PINSBASE
 10
0.0
 20
0.0
 30
0.0
  9
$PLIMCHECK
 70
0
  9
$PEXTMIN
 10
1e+20
 20
1e+20
 30
1e+20
  9
$PEXTMAX
 10
-1e+20
 20
-1e+20
 30
-1e+20
  9
$PLIMMIN
 10
0.0
 20
0.0
  9
$PLIMMAX
 10
420.0
 20
297.0
  9
$UNITMODE
 70
0
  9
$VISRETAIN
 70
1
  9
$PLINEGEN
 70
0
  9
$PSLTSCALE
 70
1
  9
$TREEDEPTH
 70
3020
  9
$CMLSTYLE
  2
Standard
  9
$CMLJUST
 70
0
  9
$CMLSCALE
 40
20.0
  9
$PROXYGRAPHICS
 70
1
  9
$MEASUREMENT
 70
1
  9
$CELWEIGHT
370
-1
  9
$ENDCAPS
280
0
  9
$JOINSTYLE
280
0
  9
$LWDISPLAY
290
0
  9
$INSUNITS
 70
4
  9
$HYPERLINKBASE
  1

  9
$STYLESHEET
  1

  9
$XEDIT
290
1
  9
$CEPSNTYPE
380
0
  9
$PSTYLEMODE
290
1
  9
$FINGERPRINTGUID
  2
{44EC95F9-0679-4260-B264-BB30BDB9C512}
  9
$VERSIONGUID
  2
{71A2A314-A780-4FEE-9191-8949099213AA}
  9
$EXTNAMES
290
1
  9
$PSVPSCALE
 40
0.0
  9
$OLESTARTUP
290
0
  9
$SORTENTS
280
127
  9
$INDEXCTL
280
0
  9
$HIDETEXT
280
1
  9
$XCLIPFRAME
280
1
  9
$HALOGAP
280
0
  9
$OBSCOLOR
 70
257
  9
$OBSLTYPE
280
0
  9
$INTERSECTIONDISPLAY
280
0
  9
$INTERSECTIONCOLOR
 70
257
  9
$DIMASSOC
280
2
  9
$PROJECTNAME
  1

  9
$CAMERADISPLAY
290
0
  9
$LENSLENGTH
 40
50.0
  9
$CAMERAHEIGHT
 40
0.0
  9
$STEPSPERSEC
 40
24.0
  9
$STEPSIZE
 40
100.0
  9
$3DDWFPREC
 40
2.0
  9
$PSOLWIDTH
 40
0.005
  9
$PSOLHEIGHT
 40
0.08
  9
$LOFTANG1
 40
1.570796326795
  9
$LOFTANG2
 40
1.570796326795
  9
$LOFTMAG1
 40
0.0
  9
$LOFTMAG2
 40
0.0
  9
$LOFTPARAM
 70
7
  9
$LOFTNORMALS
280
1
  9
$LATITUDE
 40
37.795
  9
$LONGITUDE
 40
-122.394
  9
$NORTHDIRECTION
 40
0.0
  9
$TIMEZONE
 70
-8000
  9
$LIGHTGLYPHDISPLAY
280
1
  9
$TILEMODELIGHTSYNCH
280
1
  9
$CMATERIAL
347
20
  9
$SOLIDHIST
280
0
  9
$SHOWHIST
280
1
  9
$DWFFRAME
280
2
  9
$DGNFRAME
280
2
  9
$REALWORLDSCALE
290
1
  9
$INTERFERECOLOR
 62
256
  9
$CSHADOW
280
0
  9
$SHADOWPLANELOCATION
 40
0.0
  0
ENDSEC
  0
SECTION
  2
CLASSES
  0
CLASS
  1
ACDBDICTIONARYWDFLT
  2
AcDbDictionaryWithDefault
  3
ObjectDBX Classes
 90
0
 91
0
280
0
281
0
  0
CLASS
  1
SUN
  2
AcDbSun
  3
SCENEOE
 90
1153
 91
0
280
0
281
0
  0
CLASS
  1
VISUALSTYLE
  2
AcDbVisualStyle
  3
ObjectDBX Classes
 90
4095
 91
0
280
0
281
0
  0
CLASS
  1
MATERIAL
  2
AcDbMaterial
  3
ObjectDBX Classes
 90
1153
 91
0
280
0
281
0
  0
CLASS
  1
SCALE
  2
AcDbScale
  3
ObjectDBX Classes
 90
1153
 91
0
280
0
281
0
  0
CLASS
  1
TABLESTYLE
  2
AcDbTableStyle
  3
ObjectDBX Classes
 90
4095
 91
0
280
0
281
0
  0
CLASS
  1
MLEADERSTYLE
  2
AcDbMLeaderStyle
  3
ACDB_MLEADERSTYLE_CLASS
 90
4095
 91
0
280
0
281
0
  0
CLASS
  1
DICTIONARYVAR
  2
AcDbDictionaryVar
  3
ObjectDBX Classes
 90
0
 91
0
280
0
281
0
  0
CLASS
  1
CELLSTYLEMAP
  2
AcDbCellStyleMap
  3
ObjectDBX Classes
 90
1152
 91
0
280
0
281
0
  0
CLASS
  1
MENTALRAYRENDERSETTINGS
  2
AcDbMentalRayRenderSettings
  3
SCENEOE
 90
1024
 91
0
280
0
281
0
  0
CLASS
  1
ACDBDETAILVIEWSTYLE
  2
AcDbDetailViewStyle
  3
ObjectDBX Classes
 90
1025
 91
0
280
0
281
0
  0
CLASS
  1
ACDBSECTIONVIEWSTYLE
  2
AcDbSectionViewStyle
  3
ObjectDBX Classes
 90
1025
 91
0
280
0
281
0
  0
CLASS
  1
RASTERVARIABLES
  2
AcDbRasterVariables
  3
ISM
 90
0
 91
0
280
0
281
0
  0
CLASS
  1
LAYOUT
  2
AcDbLayout
  3
ObjectDBX Classes
 90
0
 91
0
280
0
281
0
  0
CLASS
  1
ACDBPLACEHOLDER
  2
AcDbPlaceHolder
  3
ObjectDBX Classes
 90
0
 91
0
280
0
281
0
  0
ENDSEC
  0
SECTION
  2
TABLES
  0
TABLE
  2
VPORT
  5
8
330
0
100
AcDbSymbolTable
 70
1
  0
VPORT
  5
23
330
8
100
AcDbSymbolTableRecord
100
AcDbViewportTableRecord
  2
*Active
 70
0
 10
0.0
 20
0.0
 11
1.0
 21
1.0
 12
0.0
 22
0.0
 13
0.0
 23
0.0
 14
0.5
 24
0.5
 15
0.5
 25
0.5
 16
0.0
 26
0.0
 36
1.0
 17
0.0
 27
0.0
 37
0.0
 40
1000.0
 41
1.34
 42
50.0
 43
0.0
 44
0.0
 50
0.0
 51
0.0
 71
0
 72
1000
 73
1
 74
3
 75
0
 76
0
 77
0
 78
0
281
0
 65
0
146
0.0
  0
ENDTAB
  0
TABLE
  2
LTYPE
  5
2
330
0
100
AcDbSymbolTable
 70
3
  0
LTYPE
  5
24
330
2
100
AcDbSymbolTableRecord
100
AcDbLinetypeTableRecord
  2
ByBlock
 70
0
  3

 72
65
 73
0
 40
0.0
  0
LTYPE
  5
25
330
2
100
AcDbSymbolTableRecord
100
AcDbLinetypeTableRecord
  2
ByLayer
 70
0
  3

 72
65
 73
0
 40
0.0
  0
LTYPE
  5
26
330
2
100
AcDbSymbolTableRecord
100
AcDbLinetypeTableRecord
  2
Continuous
 70
0
  3

 72
65
 73
0
 40
0.0
  0
ENDTAB
  0
TABLE
  2
LAYER
  5
1
330
0
100
AcDbSymbolTable
 70
7
  0
LAYER
  5
27
330
1
100
AcDbSymbolTableRecord
100
AcDbLayerTableRecord
  2
0
 70
0
 62
7
  6
Continuous
370
-3
390
13
347
21
  0
LAYER
  5
28
330
1
100
AcDbSymbolTableRecord
100
AcDbLayerTableRecord
  2
Defpoints
 70
0
 62
7
  6
Continuous
290
0
370
-3
390
13
347
21
  0
LAYER
  5
2F
330
1
100
AcDbSymbolTableRecord
100
AcDbLayerTableRecord
  2
ENG_L
 70
0
 62
4
  6
Continuous
370
-3
390
13
347
21
  0
LAYER
  5
30
330
1
100
AcDbSymbolTableRecord
100
AcDbLayerTableRecord
  2
ENG_D
 70
0
 62
3
  6
Continuous
370
-3
390
13
347
21
  0
LAYER
  5
31
330
1
100
AcDbSymbolTableRecord
100
AcDbLayerTableRecord
  2
ENG_K
 70
0
 62
2
  6
Continuous
370
-3
390
13
347
21
  0
LAYER
  5
32
330
1
100
AcDbSymbolTableRecord
100
AcDbLayerTableRecord
  2
CUT_OUTLINE
 70
0
 62
5
  6
Continuous
370
-3
390
13
347
21
  0
LAYER
  5
33
330
1
100
AcDbSymbolTableRecord
100
AcDbLayerTableRecord
  2
CUT_SLOT
 70
0
 62
1
  6
Continuous
370
-3
390
13
347
21
  0
ENDTAB
  0
TABLE
  2
STYLE
  5
5
330
0
100
AcDbSymbolTable
 70
1
  0
STYLE
  5
29
330
5
100
AcDbSymbolTableRecord
100
AcDbTextStyleTableRecord
  2
Standard
 70
0
 40
0.0
 41
1.0
 50
0.0
 71
0
 42
2.5
  3
txt
  4

  0
ENDTAB
  0
TABLE
  2
VIEW
  5
7
330
0
100
AcDbSymbolTable
 70
0
  0
ENDTAB
  0
TABLE
  2
UCS
  5
6
330
0
100
AcDbSymbolTable
 70
0
  0
ENDTAB
  0
TABLE
  2
APPID
  5
3
330
0
100
AcDbSymbolTable
 70
3
  0
APPID
  5
2A
330
3
100
AcDbSymbolTableRecord
100
AcDbRegAppTableRecord
  2
ACAD
 70
0
  0
APPID
  5
4B
330
3
100
AcDbSymbolTableRecord
100
AcDbRegAppTableRecord
  2
HATCHBACKGROUNDCOLOR
 70
0
  0
APPID
  5
4C
330
3
100
AcDbSymbolTableRecord
100
AcDbRegAppTableRecord
  2
EZDXF
 70
0
  0
ENDTAB
  0
TABLE
  2
DIMSTYLE
  5
4
330
0
100
AcDbSymbolTable
 70
1
100
AcDbDimStyleTable
  0
DIMSTYLE
105
2B
330
4
100
AcDbSymbolTableRecord
100
AcDbDimStyleTableRecord
  2
Standard
 70
0
 40
1.0
 41
2.5
 42
0.625
 43
3.75
 44
1.25
 45
0.0
 46
0.0
 47
0.0
 48
0.0
 49
2.5
140
2.5
141
2.5
142
0.0
143
0.03937007874
144
1.0
145
0.0
146
1.0
147
0.625
148
0.0
 69
0
 70
0
 71
0
 72
0
 73
0
 74
0
 75
0
 76
0
 77
1
 78
8
 79
3
170
0
171
3
172
1
173
0
174
0
175
0
176
0
177
0
178
0
179
2
271
2
272
2
273
2
274
3
275
0
276
0
277
2
278
44
279
0
280
0
281
0
282
0
283
0
284
8
285
0
286
0
288
0
289
3
290
0
371
-2
372
-2
  0
ENDTAB
  0
TABLE
  2
BLOCK_RECORD
  5
9
330
0
100
AcDbSymbolTable
 70
2
  0
BLOCK_RECORD
  5
17
330
9
100
AcDbSymbolTableRecord
100
AcDbBlockTableRecord
  2
*Model_Space
340
1A
 70
0
280
1
281
0
  0
BLOCK_RECORD
  5
1B
330
9
100
AcDbSymbolTableRecord
100
AcDbBlockTableRecord
  2
*Paper_Space
340
1E
 70
0
280
1
281
0
  0
ENDTAB
  0
ENDSEC
  0
SECTION
  2
BLOCKS
  0
BLOCK
  5
18
330
17
100
AcDbEntity
  8
0
100
AcDbBlockBegin
  2
*Model_Space
 70
0
 10
0.0
 20
0.0
 30
0.0
  3
*Model_Space
  1

  0
ENDBLK
  5
19
330
17
100
AcDbEntity
  8
0
100
AcDbBlockEnd
  0
BLOCK
  5
1C
330
1B
100
AcDbEntity
  8
0
100
AcDbBlockBegin
  2
*Paper_Space
 70
0
 10
0.0
 20
0.0
 30
0.0
  3
*Paper_Space
  1

  0
ENDBLK
  5
1D
330
1B
100
AcDbEntity
  8
0
100
AcDbBlockEnd
  0
ENDSEC
  0
SECTION
  2
ENTITIES
  0
LWPOLYLINE
  5
34
330
17
100
AcDbEntity
  8
ENG_L
100
AcDbPolyline
 90
22
 70
1
 10
188.79751057680818
 20
163.57736871448802
 10
184.79057215008444
 20
168.05571166200284
 10
184.3191676292934
 20
168.05571166200284
 10
181.25503824415168
 20
171.1198410471446
 10
181.25503824415168
 20
172.06265008872657
 10
179.8408246817786
 20
173.4768636510997
 10
182.43354954612926
 20
175.59818399465942
 10
185.7333811916665
 20
177.01239755703247
 10
190.44742639957678
 20
180.31222920256963
 10
190.91883092036784
 20
179.36942016098766
 10
192.80444900353197
 20
178.89801564019658
 10
199.1684100342109
 20
175.36248173426384
 10
198.69700551341987
 20
174.41967269268176
 10
198.69700551341987
 20
171.1198410471446
 10
199.1684100342109
 20
170.64843652635352
 10
199.1684100342109
 20
166.4057958392342
 10
196.5756851698602
 20
165.22728453725665
 10
193.275853524323
 20
164.75588001646568
 10
192.80444900353197
 20
163.81307097488352
 10
191.3902354411589
 20
163.81307097488352
 10
190.91883092036784
 20
163.34166645409255
 10
188.79751057680818
 20
163.57736871448802
  0
LWPOLYLINE
  5
35
330
17
100
AcDbEntity
  8
ENG_L
100
AcDbPolyline
 90
15
 70
1
 10
136.94301328979472
 20
141.89276075810065
 10
136.94301328979472
 20
149.43523309075712
 10
139.7714404145409
 20
151.79225569471222
 10
139.7714404145409
 20
152.2636602155033
 10
142.36416527889156
 20
154.856385079854
 10
144.01408110166017
 20
152.2636602155033
 10
145.89969918482433
 20
150.84944665313017
 10
149.67093535115256
 20
144.24978336205575
 10
146.13540144521983
 20
143.54267658086917
 10
145.6639969244288
 20
143.0712720600782
 10
141.89276075810054
 20
142.59986753928712
 10
141.4213562373095
 20
142.12846301849612
 10
140.0071426749364
 20
142.12846301849612
 10
139.53573815414538
 20
141.65705849770504
 10
136.94301328979472
 20
141.89276075810065
  0
LWPOLYLINE
  5
36
330
17
100
AcDbEntity
  8
ENG_L
100
AcDbPolyline
 90
22
 70
1
 10
99.23065162651217
 20
97.58073580374361
 10
93.8094996374153
 20
100.64486518888526
 10
92.63098833543773
 20
102.2947810116539
 10
93.57379737701979
 20
103.23759005323596
 10
95.93081998097496
 20
107.48023074035528
 10
97.34503354334804
 20
113.60848951063862
 10
98.75924710572113
 20
114.5512985522208
 10
99.23065162651217
 20
116.90832115617589
 10
100.17346066809424
 20
117.85113019775795
 10
100.17346066809424
 20
118.79393923934
 10
101.1162697096763
 20
120.20815280171315
 10
101.1162697096763
 20
121.62236636408619
 10
101.82337649086284
 20
122.80087766606384
 10
104.88750587600455
 20
117.85113019775795
 10
106.30171943837765
 20
116.90832115617589
 10
106.30171943837765
 20
115.96551211459382
 10
110.54436012549692
 20
109.83725334431038
 10
110.54436012549692
 20
101.82337649086293
 10
109.83725334431038
 20
100.64486518888526
 10
105.12320813640007
 20
99.23065162651224
 10
101.35197197007182
 20
97.34503354334811
 10
99.23065162651217
 20
97.58073580374361
  0
LWPOLYLINE
  5
37
330
17
100
AcDbEntity
  8
ENG_D
100
AcDbPolyline
 90
20
 70
1
 10
197.98989873223329
 20
145.42829466403327
 10
196.10428064906918
 20
145.42829466403327
 10
195.63287612827816
 20
145.89969918482439
 10
192.33304448274095
 20
146.37110370561547
 10
189.97602187878576
 20
147.7853172679885
 10
189.0332128372037
 20
149.19953083036154
 10
187.3832970144351
 20
150.37804213233917
 10
187.3832970144351
 20
159.3347280273687
 10
188.56180831641268
 20
161.92745289171938
 10
189.0332128372037
 20
161.92745289171938
 10
190.6831286599723
 20
160.27753706895086
 10
192.33304448274095
 20
157.68481220460018
 10
193.98296030550955
 20
156.50630090262263
 10
194.45436482630058
 20
155.0920873402495
 10
199.63981455500192
 20
148.96382856996604
 10
199.63981455500192
 20
148.021019528384
 10
202.93964620053913
 20
145.1925924036378
 10
202.70394394014363
 20
144.48548562245122
 10
198.46130325302434
 20
144.9568901432423
 10
197.98989873223329
 20
145.42829466403327
  0
LWPOLYLINE
  5
38
330
17
100
AcDbEntity
  8
ENG_D
100
AcDbPolyline
 90
33
 70
1
 10
192.80444900353197
 20
178.89801564019658
 10
190.91883092036784
 20
179.36942016098766
 10
190.21172413918129
 20
180.5479314629652
 10
190.21172413918129
 20
181.96214502533837
 10
189.74031961839026
 20
182.43354954612934
 10
189.74031961839026
 20
186.67619023324855
 10
189.2689150975992
 20
187.14759475403963
 10
189.2689150975992
 20
193.74725804511405
 10
188.79751057680818
 20
194.21866256590513
 10
188.79751057680818
 20
196.10428064906927
 10
188.32610605601715
 20
196.57568516986035
 10
188.32610605601715
 20
198.46130325302448
 10
187.3832970144351
 20
200.81832585697956
 10
187.3832970144351
 20
202.23253941935272
 10
186.91189249364407
 20
202.7039439401437
 10
186.91189249364407
 20
205.06096654409887
 10
186.44048797285305
 20
205.53237106488987
 10
186.67619023324855
 20
206.7108823668675
 10
195.86857838867365
 20
204.5895620233078
 10
195.86857838867365
 20
201.28973037777052
 10
196.33998290946468
 20
200.3469213361886
 10
195.86857838867365
 20
199.8755168153975
 10
196.81138743025573
 20
197.5184942114423
 10
197.28279195104676
 20
191.39023544115895
 10
198.2256009926288
 20
189.03321283720376
 10
197.7541964718378
 20
186.67619023324855
 10
198.2256009926288
 20
186.20478571245758
 10
198.2256009926288
 20
180.5479314629652
 10
198.69700551341987
 20
180.07652694217413
 10
198.69700551341987
 20
176.77669529663697
 10
199.1684100342109
 20
175.83388625505492
 10
198.2256009926288
 20
175.83388625505492
 10
192.80444900353197
 20
178.89801564019658
  0
LWPOLYLINE
  5
39
330
17
100
AcDbEntity
  8
ENG_D
100
AcDbPolyline
 90
21
 70
1
 10
193.0401512639275
 20
232.87383327076984
 10
187.6189992748306
 20
234.52374909353836
 10
187.14759475403957
 20
235.4665581351203
 10
186.20478571245752
 20
235.9379626559115
 10
183.37635858771134
 20
236.40936717670246
 10
177.95520659861447
 20
238.53068752026218
 10
181.01933598375615
 20
241.59481690540386
 10
183.84776310850236
 20
242.5376259469858
 10
184.3191676292934
 20
243.48043498856796
 10
185.7333811916665
 20
243.48043498856796
 10
190.91883092036784
 20
245.83745759252307
 10
191.6259377015544
 20
245.13035081133648
 10
191.15453318076337
 20
244.65894629054552
 10
191.6259377015544
 20
244.18754176975455
 10
192.09734222234542
 20
240.88771012421728
 10
193.0401512639275
 20
240.4163056034263
 10
193.0401512639275
 20
237.58787847868
 10
193.98296030550955
 20
236.64506943709807
 10
193.98296030550955
 20
233.3452377915608
 10
194.45436482630058
 20
232.87383327076984
 10
193.0401512639275
 20
232.87383327076984
  0
LWPOLYLINE
  5
3A
330
17
100
AcDbEntity
  8
ENG_D
100
AcDbPolyline
 90
28
 70
1
 10
147.78531726798843
 20
147.0782104868019
 10
145.89969918482433
 20
150.84944665313017
 10
144.01408110166017
 20
152.2636602155033
 10
142.12846301849603
 20
155.0920873402495
 10
143.3069743204736
 20
157.2134076838091
 10
146.60680596601085
 20
158.15621672539115
 10
151.7922556947122
 20
160.98464385013745
 10
153.2064692570853
 20
160.98464385013745
 10
156.74200316301804
 20
156.50630090262263
 10
156.74200316301804
 20
155.56349186104046
 10
159.57043028776422
 20
151.79225569471222
 10
161.45604837092836
 20
150.37804213233917
 10
162.87026193330146
 20
148.49242404917507
 10
162.87026193330146
 20
147.549615007593
 10
164.28447549567454
 20
146.13540144521986
 10
164.75588001646557
 20
144.72118788284672
 10
164.04877323527901
 20
144.01408110166025
 10
163.10596419369696
 20
144.48548562245122
 10
162.63455967290594
 20
144.01408110166025
 10
161.69175063132388
 20
144.9568901432423
 10
160.7489415897418
 20
144.48548562245122
 10
160.27753706895078
 20
144.9568901432423
 10
156.97770542341354
 20
144.9568901432423
 10
155.09208734024944
 20
144.01408110166025
 10
152.73506473629428
 20
144.01408110166025
 10
151.32085117392117
 20
143.0712720600782
 10
150.61374439273462
 20
143.30697432047367
 10
147.78531726798843
 20
147.0782104868019
  0
LWPOLYLINE
  5
3B
330
17
100
AcDbEntity
  8
ENG_D
100
AcDbPolyline
 90
76
 70
1
 10
109.13014656312383
 20
55.154328932550676
 10
110.0729556047059
 20
65.05382386916236
 10
110.54436012549692
 20
65.05382386916236
 10
110.78006238589244
 20
58.68986283848343
 10
113.84419177103415
 20
58.92556509887903
 10
114.07989403142966
 20
67.17514421272209
 10
116.43691663538483
 20
66.70373969193099
 10
116.90832115617586
 20
66.23233517114002
 10
118.32253471854895
 20
66.23233517114002
 10
118.79393923933999
 20
65.76093065034894
 10
120.67955732250411
 20
65.76093065034894
 10
121.15096184329515
 20
65.28952612955786
 10
123.03657992645928
 20
65.28952612955786
 10
123.50798444725031
 20
64.81812160876687
 10
126.33641157199649
 20
64.3467170879759
 10
126.572113832392
 20
67.88225099390854
 10
127.04351835318303
 20
68.35365551469962
 10
127.04351835318303
 20
73.53910524340101
 10
127.51492287397406
 20
74.010509764192
 10
127.51492287397406
 20
79.19595949289338
 10
127.9863273947651
 20
79.66736401368435
 10
127.9863273947651
 20
81.55298209684847
 10
131.52186130069785
 20
84.14570696119917
 10
134.82169294623506
 20
83.67430244040818
 10
135.5287997274216
 20
82.96719565922162
 10
136.4716087690037
 20
79.66736401368435
 10
137.17871555019025
 20
78.4888527117068
 10
137.88582233137677
 20
78.25315045131131
 10
137.88582233137677
 20
76.83893688893816
 10
139.30003589374988
 20
74.48191428498308
 10
139.30003589374988
 20
73.53910524340101
 10
140.94995171651848
 20
70.00357133746826
 10
144.24978336205572
 20
70.47497585825924
 10
144.72118788284675
 20
70.94638037905032
 10
146.60680596601085
 20
70.94638037905032
 10
148.963828569966
 20
71.88918942063238
 10
149.67093535115256
 20
71.65348716023678
 10
150.1423398719436
 20
70.71067811865484
 10
149.67093535115256
 20
70.23927359786374
 10
150.1423398719436
 20
69.76786907707266
 10
150.1423398719436
 20
66.93944195232649
 10
150.61374439273462
 20
66.4680374315355
 10
150.61374439273462
 20
63.63961030678933
 10
151.08514891352564
 20
63.168205785998246
 10
150.61374439273462
 20
62.22539674441619
 10
151.55655343431667
 20
60.81118318204315
 10
151.55655343431667
 20
59.39696961967
 10
152.02795795510772
 20
58.92556509887903
 10
151.32085117392117
 20
54.91862667215519
 10
146.60680596601085
 20
55.86143571373725
 10
144.72118788284675
 20
57.2756492761104
 10
143.54267658086914
 20
59.39696961967
 10
142.12846301849603
 20
60.81118318204315
 10
142.12846301849603
 20
61.75399222362521
 10
141.18565397691398
 20
63.168205785998246
 10
138.59292911256333
 20
66.23233517114002
 10
138.1215245917723
 20
66.23233517114002
 10
137.65012007098127
 20
65.76093065034894
 10
136.23590650860814
 20
65.76093065034894
 10
131.52186130069785
 20
63.875312567184814
 10
130.5790522591158
 20
63.875312567184814
 10
130.10764773832474
 20
63.40390804639373
 10
128.69343417595167
 20
63.40390804639373
 10
127.9863273947651
 20
62.69680126520727
 10
127.9863273947651
 20
57.0399470157148
 10
127.27922061357854
 20
56.332840234528334
 10
123.50798444725031
 20
55.390031192946275
 10
123.03657992645928
 20
54.91862667215519
 10
119.73674828092206
 20
54.447222151364215
 10
119.26534376013102
 20
53.504413109782156
 10
116.90832115617586
 20
53.03300858899107
 10
116.43691663538483
 20
52.5616040682001
 10
113.13708498984761
 20
52.090199547409014
 10
112.66568046905658
 20
51.61879502661804
 10
111.95857368787003
 20
51.85449728701352
 10
109.13014656312383
 20
55.154328932550676
  0
LWPOLYLINE
  5
3C
330
17
100
AcDbEntity
  8
ENG_D
100
AcDbPolyline
 90
18
 70
1
 10
104.88750587600455
 20
181.01933598375618
 10
102.05907875125835
 20
187.6189992748307
 10
102.05907875125835
 20
188.5618083164128
 10
102.76618553244491
 20
189.26891509759923
 10
104.65180361560904
 20
190.21172413918143
 10
106.06601717798213
 20
190.21172413918143
 10
107.48023074035522
 20
191.15453318076337
 10
108.42303978193729
 20
191.15453318076337
 10
109.83725334431038
 20
192.09734222234553
 10
111.95857368787003
 20
189.50461735799485
 10
112.42997820866105
 20
187.6189992748307
 10
113.37278725024312
 20
186.67619023324855
 10
113.37278725024312
 20
182.9049540669203
 10
112.9013827294521
 20
182.43354954612934
 10
112.9013827294521
 20
175.83388625505492
 10
112.19427594826554
 20
175.12677947386834
 10
111.01576464628798
 20
175.36248173426384
 10
104.88750587600455
 20
181.01933598375618
  0
LWPOLYLINE
  5
3D
330
17
100
AcDbEntity
  8
ENG_K
100
AcDbPolyline
 90
14
 70
1
 10
171.82694782833104
 20
147.0782104868019
 10
172.29835234912207
 20
148.021019528384
 10
172.5340546095176
 20
154.3849805590629
 10
185.26197667087547
 20
153.91357603827194
 10
185.7333811916665
 20
153.44217151748086
 10
187.3832970144351
 20
153.20646925708536
 10
187.14759475403957
 20
149.67093535115262
 10
180.0765269421741
 20
148.72812630957054
 10
179.60512242138307
 20
147.7853172679885
 10
175.3624817342638
 20
147.3139127471974
 10
174.89107721347276
 20
146.84250822640644
 10
174.41967269268173
 20
147.3139127471974
 10
173.47686365109965
 20
146.84250822640644
 10
171.82694782833104
 20
147.0782104868019
  0
LWPOLYLINE
  5
3E
330
17
100
AcDbEntity
  8
CUT_SLOT
100
AcDbPolyline
 90
5
 70
1
 10
64.58377043508928
 20
0.0
 10
68.14787205022704
 20
0.0
 10
68.14787205022704
 20
141.42135623730957
 10
64.58377043508928
 20
141.42135623730957
 10
64.58377043508928
 20
0.0
  0
LWPOLYLINE
  5
3F
330
17
100
AcDbEntity
  8
CUT_SLOT
100
AcDbPolyline
 90
5
 70
1
 10
87.67778120267431
 20
0.0
 10
91.24188281781207
 20
0.0
 10
91.24188281781207
 20
141.42135623730957
 10
87.67778120267431
 20
141.42135623730957
 10
87.67778120267431
 20
0.0
  0
LWPOLYLINE
  5
40
330
17
100
AcDbEntity
  8
CUT_SLOT
100
AcDbPolyline
 90
5
 70
1
 10
110.77179197025933
 20
0.0
 10
114.33589358539709
 20
0.0
 10
114.33589358539709
 20
141.42135623730957
 10
110.77179197025933
 20
141.42135623730957
 10
110.77179197025933
 20
0.0
  0
LWPOLYLINE
  5
41
330
17
100
AcDbEntity
  8
CUT_SLOT
100
AcDbPolyline
 90
5
 70
1
 10
133.86580273784438
 20
0.0
 10
137.42990435298213
 20
0.0
 10
137.42990435298213
 20
141.42135623730957
 10
133.86580273784438
 20
141.42135623730957
 10
133.86580273784438
 20
0.0
  0
LWPOLYLINE
  5
42
330
17
100
AcDbEntity
  8
CUT_SLOT
100
AcDbPolyline
 90
5
 70
1
 10
156.95981350542942
 20
0.0
 10
160.52391512056718
 20
0.0
 10
160.52391512056718
 20
141.42135623730957
 10
156.95981350542942
 20
141.42135623730957
 10
156.95981350542942
 20
0.0
  0
LWPOLYLINE
  5
43
330
17
100
AcDbEntity
  8
CUT_SLOT
100
AcDbPolyline
 90
5
 70
1
 10
180.0538242730144
 20
0.0
 10
183.61792588815217
 20
0.0
 10
183.61792588815217
 20
141.42135623730957
 10
180.0538242730144
 20
141.42135623730957
 10
180.0538242730144
 20
0.0
  0
LWPOLYLINE
  5
44
330
17
100
AcDbEntity
  8
CUT_SLOT
100
AcDbPolyline
 90
5
 70
1
 10
99.22478658646682
 20
141.42135623730957
 10
102.78888820160458
 20
141.42135623730957
 10
102.78888820160458
 20
282.84271247461913
 10
99.22478658646682
 20
282.84271247461913
 10
99.22478658646682
 20
141.42135623730957
  0
LWPOLYLINE
  5
45
330
17
100
AcDbEntity
  8
CUT_SLOT
100
AcDbPolyline
 90
5
 70
1
 10
122.31879735405185
 20
141.42135623730957
 10
125.88289896918961
 20
141.42135623730957
 10
125.88289896918961
 20
282.84271247461913
 10
122.31879735405185
 20
282.84271247461913
 10
122.31879735405185
 20
141.42135623730957
  0
LWPOLYLINE
  5
46
330
17
100
AcDbEntity
  8
CUT_SLOT
100
AcDbPolyline
 90
5
 70
1
 10
145.41280812163689
 20
141.42135623730957
 10
148.97690973677464
 20
141.42135623730957
 10
148.97690973677464
 20
282.84271247461913
 10
145.41280812163689
 20
282.84271247461913
 10
145.41280812163689
 20
141.42135623730957
  0
LWPOLYLINE
  5
47
330
17
100
AcDbEntity
  8
CUT_SLOT
100
AcDbPolyline
 90
5
 70
1
 10
168.50681888922193
 20
141.42135623730957
 10
172.0709205043597
 20
141.42135623730957
 10
172.0709205043597
 20
282.84271247461913
 10
168.50681888922193
 20
282.84271247461913
 10
168.50681888922193
 20
141.42135623730957
  0
LWPOLYLINE
  5
48
330
17
100
AcDbEntity
  8
CUT_SLOT
100
AcDbPolyline
 90
5
 70
1
 10
191.60082965680692
 20
141.42135623730957
 10
195.16493127194468
 20
141.42135623730957
 10
195.16493127194468
 20
282.84271247461913
 10
191.60082965680692
 20
282.84271247461913
 10
191.60082965680692
 20
141.42135623730957
  0
LWPOLYLINE
  5
49
330
17
100
AcDbEntity
  8
CUT_SLOT
100
AcDbPolyline
 90
5
 70
1
 10
214.69484042439197
 20
141.42135623730957
 10
218.25894203952973
 20
141.42135623730957
 10
218.25894203952973
 20
282.84271247461913
 10
214.69484042439197
 20
282.84271247461913
 10
214.69484042439197
 20
141.42135623730957
  0
LWPOLYLINE
  5
4A
330
17
100
AcDbEntity
  8
CUT_OUTLINE
100
AcDbPolyline
 90
5
 70
1
 10
0.0
 20
0.0
 10
282.842712474619
 20
0.0
 10
282.842712474619
 20
282.84271247461913
 10
0.0
 20
282.84271247461913
 10
0.0
 20
0.0
  0
ENDSEC
  0
SECTION
  2
OBJECTS
  0
DICTIONARY
  5
A
330
0
100
AcDbDictionary
281
1
  3
ACAD_COLOR
350
B
  3
ACAD_GROUP
350
C
  3
ACAD_LAYOUT
350
D
  3
ACAD_MATERIAL
350
E
  3
ACAD_MLEADERSTYLE
350
F
  3
ACAD_MLINESTYLE
350
10
  3
ACAD_PLOTSETTINGS
350
11
  3
ACAD_PLOTSTYLENAME
350
12
  3
ACAD_SCALELIST
350
14
  3
ACAD_TABLESTYLE
350
15
  3
ACAD_VISUALSTYLE
350
16
  3
EZDXF_META
350
2D
  0
DICTIONARY
  5
B
330
A
100
AcDbDictionary
281
1
  0
DICTIONARY
  5
C
330
A
100
AcDbDictionary
281
1
  0
DICTIONARY
  5
D
330
A
100
AcDbDictionary
281
1
  3
Model
350
1A
  3
Layout1
350
1E
  0
DICTIONARY
  5
E
330
A
100
AcDbDictionary
281
1
  3
ByBlock
350
1F
  3
ByLayer
350
20
  3
Global
350
21
  0
DICTIONARY
  5
F
330
A
100
AcDbDictionary
281
1
  3
Standard
350
2C
  0
DICTIONARY
  5
10
330
A
100
AcDbDictionary
281
1
  3
Standard
350
22
  0
DICTIONARY
  5
11
330
A
100
AcDbDictionary
281
1
  0
ACDBDICTIONARYWDFLT
  5
12
330
A
100
AcDbDictionary
281
1
  3
Normal
350
13
100
AcDbDictionaryWithDefault
340
13
  0
ACDBPLACEHOLDER
  5
13
330
12
  0
DICTIONARY
  5
14
330
A
100
AcDbDictionary
281
1
  0
DICTIONARY
  5
15
330
A
100
AcDbDictionary
281
1
  0
DICTIONARY
  5
16
330
A
100
AcDbDictionary
281
1
  0
LAYOUT
  5
1A
330
D
100
AcDbPlotSettings
  1

  4
A3
  6

 40
7.5
 41
20.0
 42
7.5
 43
20.0
 44
420.0
 45
297.0
 46
0.0
 47
0.0
 48
0.0
 49
0.0
140
0.0
141
0.0
142
1.0
143
1.0
 70
1024
 72
1
 73
0
 74
5
  7

 75
16
 76
0
 77
2
 78
300
147
1.0
148
0.0
149
0.0
100
AcDbLayout
  1
Model
 70
1
 71
0
 10
0.0
 20
0.0
 11
420.0
 21
297.0
 12
0.0
 22
0.0
 32
0.0
 14
1e+20
 24
1e+20
 34
1e+20
 15
-1e+20
 25
-1e+20
 35
-1e+20
146
0.0
 13
0.0
 23
0.0
 33
0.0
 16
1.0
 26
0.0
 36
0.0
 17
0.0
 27
1.0
 37
0.0
 76
1
330
17
  0
LAYOUT
  5
1E
330
D
100
AcDbPlotSettings
  1

  4
A3
  6

 40
7.5
 41
20.0
 42
7.5
 43
20.0
 44
420.0
 45
297.0
 46
0.0
 47
0.0
 48
0.0
 49
0.0
140
0.0
141
0.0
142
1.0
143
1.0
 70
0
 72
1
 73
0
 74
5
  7

 75
16
 76
0
 77
2
 78
300
147
1.0
148
0.0
149
0.0
100
AcDbLayout
  1
Layout1
 70
1
 71
1
 10
0.0
 20
0.0
 11
420.0
 21
297.0
 12
0.0
 22
0.0
 32
0.0
 14
1e+20
 24
1e+20
 34
1e+20
 15
-1e+20
 25
-1e+20
 35
-1e+20
146
0.0
 13
0.0
 23
0.0
 33
0.0
 16
1.0
 26
0.0
 36
0.0
 17
0.0
 27
1.0
 37
0.0
 76
1
330
1B
  0
MATERIAL
  5
1F
102
{ACAD_REACTORS
330
E
102
}
330
E
100
AcDbMaterial
  1
ByBlock
  2

 70
0
 40
1.0
 71
1
 41
1.0
 91
-1023410177
 42
1.0
 72
1
  3

 73
1
 74
1
 75
1
 44
0.5
 73
0
 45
1.0
 46
1.0
 77
1
  4

 78
1
 79
1
170
1
 48
1.0
171
1
  6

172
1
173
1
174
1
140
1.0
141
1.0
175
1
  7

176
1
177
1
178
1
143
1.0
179
1
  8

270
1
271
1
272
1
145
1.0
146
1.0
273
1
  9

274
1
275
1
276
1
 42
1.0
 72
1
  3

 73
1
 74
1
 75
1
 94
63
  0
MATERIAL
  5
20
102
{ACAD_REACTORS
330
E
102
}
330
E
100
AcDbMaterial
  1
ByLayer
  2

 70
0
 40
1.0
 71
1
 41
1.0
 91
-1023410177
 42
1.0
 72
1
  3

 73
1
 74
1
 75
1
 44
0.5
 73
0
 45
1.0
 46
1.0
 77
1
  4

 78
1
 79
1
170
1
 48
1.0
171
1
  6

172
1
173
1
174
1
140
1.0
141
1.0
175
1
  7

176
1
177
1
178
1
143
1.0
179
1
  8

270
1
271
1
272
1
145
1.0
146
1.0
273
1
  9

274
1
275
1
276
1
 42
1.0
 72
1
  3

 73
1
 74
1
 75
1
 94
63
  0
MATERIAL
  5
21
102
{ACAD_REACTORS
330
E
102
}
330
E
100
AcDbMaterial
  1
Global
  2

 70
0
 40
1.0
 71
1
 41
1.0
 91
-1023410177
 42
1.0
 72
1
  3

 73
1
 74
1
 75
1
 44
0.5
 73
0
 45
1.0
 46
1.0
 77
1
  4

 78
1
 79
1
170
1
 48
1.0
171
1
  6

172
1
173
1
174
1
140
1.0
141
1.0
175
1
  7

176
1
177
1
178
1
143
1.0
179
1
  8

270
1
271
1
272
1
145
1.0
146
1.0
273
1
  9

274
1
275
1
276
1
 42
1.0
 72
1
  3

 73
1
 74
1
 75
1
 94
63
  0
MLINESTYLE
  5
22
102
{ACAD_REACTORS
330
10
102
}
330
10
100
AcDbMlineStyle
  2
Standard
 70
0
  3

 62
256
 51
90.0
 52
90.0
 71
2
 49
0.5
 62
256
  6
BYLAYER
 49
-0.5
 62
256
  6
BYLAYER
  0
MLEADERSTYLE
  5
2C
102
{ACAD_REACTORS
330
F
102
}
330
F
100
AcDbMLeaderStyle
179
2
170
2
171
1
172
0
 90
2
 40
0.0
 41
0.0
173
1
 91
-1056964608
 92
-2
290
1
 42
2.0
291
1
 43
8.0
  3
Standard
 44
4.0
300

342
29
174
1
175
1
176
0
178
1
 93
-1056964608
 45
4.0
292
0
297
0
 46
4.0
 94
-1056964608
 47
1.0
 49
1.0
140
1.0
294
1
141
0.0
177
0
142
1.0
295
0
296
0
143
3.75
271
0
272
9
273
9
  0
DICTIONARY
  5
2D
330
A
100
AcDbDictionary
280
1
281
1
  3
CREATED_BY_EZDXF
350
2E
  3
WRITTEN_BY_EZDXF
350
4D
  0
DICTIONARYVAR
  5
2E
330
2D
100
DictionaryVariables
280
0
  1
1.4.4 @ 2026-08-03T11:44:36.074431+00:00
  0
DICTIONARYVAR
  5
4D
330
2D
100
DictionaryVariables
280
0
  1
1.4.4 @ 2026-08-03T11:44:36.078107+00:00
  0
ENDSEC
  0
EOF
