  0
SECTION
  2
HEADER
  9
$ACADVER
  1
AC1027
  9
$ACADMAINTVER
 70
105
  9
$DWGCODEPAGE
  3
ANSI_1252
  9
$LASTSAVEDBY
  1
ezdxf
  9
$REQUIREDVERSIONS
160
0
  9
$INSBASE
 10
0.0
 20
0.0
 30
0.0
  9
$EXTMIN
 10
1e+20
 20
1e+20
 30
1e+20
  9
$EXTMAX
 10
-1e+20
 20
-1e+20
 30
-1e+20
  9
$LIMMIN
 10
0.0
 20
0.0
  9
$LIMMAX
 10
420.0
 20
297.0
  9
$ORTHOMODE
 70
0
  9
$REGENMODE
 70
1
  9
$FILLMODE
 70
1
  9
$QTEXTMODE
 70
0
  9
$MIRRTEXT
 70
1
  9
$LTSCALE
 40
1.0
  9
$ATTMODE
 70
1
  9
$TEXTSIZE
 40
2.5
  9
$TRACEWID
 40
1.0
  9
$TEXTSTYLE
  7
Standard
  9
$CLAYER
  8
0
  9
$CELTYPE
  6
ByLayer
  9
$CECOLOR
 62
256
  9
$CELTSCALE
 40
1.0
  9
$DISPSILH
 70
0
  9
$DIMSCALE
 40
1.0
  9
$DIMASZ
 40
2.5
  9
$DIMEXO
 40
0.625
  9
$DIMDLI
 40
3.75
  9
$DIMRND
 40
0.0
  9
$DIMDLE
 40
0.0
  9
$DIMEXE
 40
1.25
  9
$DIMTP
 40
0.0
  9
$DIMTM
 40
0.0
  9
$DIMTXT
 40
2.5
  9
$DIMCEN
 40
2.5
  9
$DIMTSZ
 40
0.0
  9
$DIMTOL
 70
0
  9
$DIMLIM
 70
0
  9
$DIMTIH
 70
0
  9
$DIMTOH
 70
0
  9
$DIMSE1
 70
0
  9
$DIMSE2
 70
0
  9
$DIMTAD
 70
1
  9
$DIMZIN
 70
8
  9
$DIMBLK
  1

  9
$DIMASO
 70
1
  9
$DIMSHO
 70
1
  9
$DIMPOST
  1

  9
$DIMAPOST
  1

  9
$DIMALT
 70
0
  9
$DIMALTD
 70
3
  9
$DIMALTF
 40
0.03937007874
  9
$DIMLFAC
 40
1.0
  9
$DIMTOFL
 70
1
  9
$DIMTVP
 40
0.0
  9
$DIMTIX
 70
0
  9
$DIMSOXD
 70
0
  9
$DIMSAH
 70
0
  9
$DIMBLK1
  1

  9
$DIMBLK2
  1

  9
$DIMSTYLE
  2
ISO-25
  9
$DIMCLRD
 70
0
  9
$DIMCLRE
 70
0
  9
$DIMCLRT
 70
0
  9
$DIMTFAC
 40
1.0
  9
$DIMGAP
 40
0.625
  9
$DIMJUST
 70
0
  9
$DIMSD1
 70
0
  9
$DIMSD2
 70
0
  9
$DIMTOLJ
 70
0
  9
$DIMTZIN
 70
8
  9
$DIMALTZ
 70
0
  9
$DIMALTTZ
 70
0
  9
$DIMUPT
 70
0
  9
$DIMDEC
 70
2
  9
$DIMTDEC
 70
2
  9
$DIMALTU
 70
2
  9
$DIMALTTD
 70
3
  9
$DIMTXSTY
  7
Standard
  9
$DIMAUNIT
 70
0
  9
$DIMADEC
 70
0
  9
$DIMALTRND
 40
0.0
  9
$DIMAZIN
 70
0
  9
$DIMDSEP
 70
44
  9
$DIMATFIT
 70
3
  9
$DIMFRAC
 70
0
  9
$DIMLDRBLK
  1

  9
$DIMLUNIT
 70
2
  9
$DIMLWD
 70
-2
  9
$DIMLWE
 70
-2
  9
$DIMTMOVE
 70
0
  9
$DIMFXL
 40
1.0
  9
$DIMFXLON
 70
0
  9
$DIMJOGANG
 40
0.785398163397
  9
$DIMTFILL
 70
0
  9
$DIMTFILLCLR
 70
0
  9
$DIMARCSYM
 70
0
  9
$DIMLTYPE
  6

  9
$DIMLTEX1
  6

  9
$DIMLTEX2
  6

  9
$DIMTXTDIRECTION
 70
0
  9
$LUNITS
 70
2
  9
$LUPREC
 70
4
  9
$SKETCHINC
 40
1.0
  9
$FILLETRAD
 40
10.0
  9
$AUNITS
 70
0
  9
$AUPREC
 70
2
  9
$MENU
  1
.
  9
$ELEVATION
 40
0.0
  9
$PELEVATION
 40
0.0
  9
$THICKNESS
 40
0.0
  9
$LIMCHECK
 70
0
  9
$CHAMFERA
 40
0.0
  9
$CHAMFERB
 40
0.0
  9
$CHAMFERC
 40
0.0
  9
$CHAMFERD
 40
0.0
  9
$SKPOLY
 70
0
  9
$TDCREATE
 40
2461256.6143055554
  9
$TDUCREATE
 40
2458532.153996898
  9
$TDUPDATE
 40
2461256.6143055554
  9
$TDUUPDATE
 40
2458532.1544311
  9
$TDINDWG
 40
0.0
  9
$TDUSRTIMER
 40
0.0
  9
$USRTIMER
 70
1
  9
$ANGBASE
 50
0.0
  9
$ANGDIR
 70
0
  9
$PDMODE
 70
0
  9
$PDSIZE
 40
0.0
  9
$PLINEWID
 40
0.0
  9
$SPLFRAME
 70
0
  9
$SPLINETYPE
 70
6
  9
$SPLINESEGS
 70
8
  9
$HANDSEED
  5
5F
  9
$SURFTAB1
 70
6
  9
$SURFTAB2
 70
6
  9
$SURFTYPE
 70
6
  9
$SURFU
 70
6
  9
$SURFV
 70
6
  9
$UCSBASE
  2

  9
$UCSNAME
  2

  9
$UCSORG
 10
0.0
 20
0.0
 30
0.0
  9
$UCSXDIR
 10
1.0
 20
0.0
 30
0.0
  9
$UCSYDIR
 10
0.0
 20
1.0
 30
0.0
  9
$UCSORTHOREF
  2

  9
$UCSORTHOVIEW
 70
0
  9
$UCSORGTOP
 10
0.0
 20
0.0
 30
0.0
  9
$UCSORGBOTTOM
 10
0.0
 20
0.0
 30
0.0
  9
$UCSORGLEFT
 10
0.0
 20
0.0
 30
0.0
  9
$UCSORGRIGHT
 10
0.0
 20
0.0
 30
0.0
  9
$UCSORGFRONT
 10
0.0
 20
0.0
 30
0.0
  9
$UCSORGBACK
 10
0.0
 20
0.0
 30
0.0
  9
$PUCSBASE
  2

  9
$PUCSNAME
  2

  9
$PUCSORG
 10
0.0
 20
0.0
 30
0.0
  9
$PUCSXDIR
 10
1.0
 20
0.0
 30
0.0
  9
$PUCSYDIR
 10
0.0
 20
1.0
 30
0.0
  9
$PUCSORTHOREF
  2

  9
$PUCSORTHOVIEW
 70
0
  9
$PUCSORGTOP
 10
0.0
 20
0.0
 30
0.0
  9
$PUCSORGBOTTOM
 10
0.0
 20
0.0
 30
0.0
  9
$PUCSORGLEFT
 10
0.0
 20
0.0
 30
0.0
  9
$PUCSORGRIGHT
 10
0.0
 20
0.0
 30
0.0
  9
$PUCSORGFRONT
 10
0.0
 20
0.0
 30
0.0
  9
$PUCSORGBACK
 10
0.0
 20
0.0
 30
0.0
  9
$USERI1
 70
0
  9
$USERI2
 70
0
  9
$USERI3
 70
0
  9
$USERI4
 70
0
  9
$USERI5
 70
0
  9
$USERR1
 40
0.0
  9
$USERR2
 40
0.0
  9
$USERR3
 40
0.0
  9
$USERR4
 40
0.0
  9
$USERR5
 40
0.0
  9
$WORLDVIEW
 70
1
  9
$SHADEDGE
 70
3
  9
$SHADEDIF
 70
70
  9
$TILEMODE
 70
1
  9
$MAXACTVP
 70
64
  9
$PINSBASE
 10
0.0
 20
0.0
 30
0.0
  9
$PLIMCHECK
 70
0
  9
$PEXTMIN
 10
1e+20
 20
1e+20
 30
1e+20
  9
$PEXTMAX
 10
-1e+20
 20
-1e+20
 30
-1e+20
  9
$PLIMMIN
 10
0.0
 20
0.0
  9
$PLIMMAX
 10
420.0
 20
297.0
  9
$UNITMODE
 70
0
  9
$VISRETAIN
 70
1
  9
$PLINEGEN
 70
0
  9
$PSLTSCALE
 70
1
  9
$TREEDEPTH
 70
3020
  9
$CMLSTYLE
  2
Standard
  9
$CMLJUST
 70
0
  9
$CMLSCALE
 40
20.0
  9
$PROXYGRAPHICS
 70
1
  9
$MEASUREMENT
 70
1
  9
$CELWEIGHT
370
-1
  9
$ENDCAPS
280
0
  9
$JOINSTYLE
280
0
  9
$LWDISPLAY
290
0
  9
$INSUNITS
 70
4
  9
$HYPERLINKBASE
  1

  9
$STYLESHEET
  1

  9
$XEDIT
290
1
  9
$CEPSNTYPE
380
0
  9
$PSTYLEMODE
290
1
  9
$FINGERPRINTGUID
  2
{9CE4C03C-C770-411C-B351-4985A73552DA}
  9
$VERSIONGUID
  2
{40606A31-5163-484F-B3BB-22BF4923808F}
  9
$EXTNAMES
290
1
  9
$PSVPSCALE
 40
0.0
  9
$OLESTARTUP
290
0
  9
$SORTENTS
280
127
  9
$INDEXCTL
280
0
  9
$HIDETEXT
280
1
  9
$XCLIPFRAME
280
1
  9
$HALOGAP
280
0
  9
$OBSCOLOR
 70
257
  9
$OBSLTYPE
280
0
  9
$INTERSECTIONDISPLAY
280
0
  9
$INTERSECTIONCOLOR
 70
257
  9
$DIMASSOC
280
2
  9
$PROJECTNAME
  1

  9
$CAMERADISPLAY
290
0
  9
$LENSLENGTH
 40
50.0
  9
$CAMERAHEIGHT
 40
0.0
  9
$STEPSPERSEC
 40
24.0
  9
$STEPSIZE
 40
100.0
  9
$3DDWFPREC
 40
2.0
  9
$PSOLWIDTH
 40
0.005
  9
$PSOLHEIGHT
 40
0.08
  9
$LOFTANG1
 40
1.570796326795
  9
$LOFTANG2
 40
1.570796326795
  9
$LOFTMAG1
 40
0.0
  9
$LOFTMAG2
 40
0.0
  9
$LOFTPARAM
 70
7
  9
$LOFTNORMALS
280
1
  9
$LATITUDE
 40
37.795
  9
$LONGITUDE
 40
-122.394
  9
$NORTHDIRECTION
 40
0.0
  9
$TIMEZONE
 70
-8000
  9
$LIGHTGLYPHDISPLAY
280
1
  9
$TILEMODELIGHTSYNCH
280
1
  9
$CMATERIAL
347
20
  9
$SOLIDHIST
280
0
  9
$SHOWHIST
280
1
  9
$DWFFRAME
280
2
  9
$DGNFRAME
280
2
  9
$REALWORLDSCALE
290
1
  9
$INTERFERECOLOR
 62
256
  9
$CSHADOW
280
0
  9
$SHADOWPLANELOCATION
 40
0.0
  0
ENDSEC
  0
SECTION
  2
CLASSES
  0
CLASS
  1
ACDBDICTIONARYWDFLT
  2
AcDbDictionaryWithDefault
  3
ObjectDBX Classes
 90
0
 91
0
280
0
281
0
  0
CLASS
  1
SUN
  2
AcDbSun
  3
SCENEOE
 90
1153
 91
0
280
0
281
0
  0
CLASS
  1
VISUALSTYLE
  2
AcDbVisualStyle
  3
ObjectDBX Classes
 90
4095
 91
0
280
0
281
0
  0
CLASS
  1
MATERIAL
  2
AcDbMaterial
  3
ObjectDBX Classes
 90
1153
 91
0
280
0
281
0
  0
CLASS
  1
SCALE
  2
AcDbScale
  3
ObjectDBX Classes
 90
1153
 91
0
280
0
281
0
  0
CLASS
  1
TABLESTYLE
  2
AcDbTableStyle
  3
ObjectDBX Classes
 90
4095
 91
0
280
0
281
0
  0
CLASS
  1
MLEADERSTYLE
  2
AcDbMLeaderStyle
  3
ACDB_MLEADERSTYLE_CLASS
 90
4095
 91
0
280
0
281
0
  0
CLASS
  1
DICTIONARYVAR
  2
AcDbDictionaryVar
  3
ObjectDBX Classes
 90
0
 91
0
280
0
281
0
  0
CLASS
  1
CELLSTYLEMAP
  2
AcDbCellStyleMap
  3
ObjectDBX Classes
 90
1152
 91
0
280
0
281
0
  0
CLASS
  1
MENTALRAYRENDERSETTINGS
  2
AcDbMentalRayRenderSettings
  3
SCENEOE
 90
1024
 91
0
280
0
281
0
  0
CLASS
  1
ACDBDETAILVIEWSTYLE
  2
AcDbDetailViewStyle
  3
ObjectDBX Classes
 90
1025
 91
0
280
0
281
0
  0
CLASS
  1
ACDBSECTIONVIEWSTYLE
  2
AcDbSectionViewStyle
  3
ObjectDBX Classes
 90
1025
 91
0
280
0
281
0
  0
CLASS
  1
RASTERVARIABLES
  2
AcDbRasterVariables
  3
ISM
 90
0
 91
0
280
0
281
0
  0
CLASS
  1
LAYOUT
  2
AcDbLayout
  3
ObjectDBX Classes
 90
0
 91
0
280
0
281
0
  0
CLASS
  1
ACDBPLACEHOLDER
  2
AcDbPlaceHolder
  3
ObjectDBX Classes
 90
0
 91
0
280
0
281
0
  0
ENDSEC
  0
SECTION
  2
TABLES
  0
TABLE
  2
VPORT
  5
8
330
0
100
AcDbSymbolTable
 70
1
  0
VPORT
  5
23
330
8
100
AcDbSymbolTableRecord
100
AcDbViewportTableRecord
  2
*Active
 70
0
 10
0.0
 20
0.0
 11
1.0
 21
1.0
 12
0.0
 22
0.0
 13
0.0
 23
0.0
 14
0.5
 24
0.5
 15
0.5
 25
0.5
 16
0.0
 26
0.0
 36
1.0
 17
0.0
 27
0.0
 37
0.0
 40
1000.0
 41
1.34
 42
50.0
 43
0.0
 44
0.0
 50
0.0
 51
0.0
 71
0
 72
1000
 73
1
 74
3
 75
0
 76
0
 77
0
 78
0
281
0
 65
0
146
0.0
  0
ENDTAB
  0
TABLE
  2
LTYPE
  5
2
330
0
100
AcDbSymbolTable
 70
3
  0
LTYPE
  5
24
330
2
100
AcDbSymbolTableRecord
100
AcDbLinetypeTableRecord
  2
ByBlock
 70
0
  3

 72
65
 73
0
 40
0.0
  0
LTYPE
  5
25
330
2
100
AcDbSymbolTableRecord
100
AcDbLinetypeTableRecord
  2
ByLayer
 70
0
  3

 72
65
 73
0
 40
0.0
  0
LTYPE
  5
26
330
2
100
AcDbSymbolTableRecord
100
AcDbLinetypeTableRecord
  2
Continuous
 70
0
  3

 72
65
 73
0
 40
0.0
  0
ENDTAB
  0
TABLE
  2
LAYER
  5
1
330
0
100
AcDbSymbolTable
 70
7
  0
LAYER
  5
27
330
1
100
AcDbSymbolTableRecord
100
AcDbLayerTableRecord
  2
0
 70
0
 62
7
  6
Continuous
370
-3
390
13
347
21
  0
LAYER
  5
28
330
1
100
AcDbSymbolTableRecord
100
AcDbLayerTableRecord
  2
Defpoints
 70
0
 62
7
  6
Continuous
290
0
370
-3
390
13
347
21
  0
LAYER
  5
2F
330
1
100
AcDbSymbolTableRecord
100
AcDbLayerTableRecord
  2
ENG_L
 70
0
 62
4
  6
Continuous
370
-3
390
13
347
21
  0
LAYER
  5
30
330
1
100
AcDbSymbolTableRecord
100
AcDbLayerTableRecord
  2
ENG_D
 70
0
 62
3
  6
Continuous
370
-3
390
13
347
21
  0
LAYER
  5
31
330
1
100
AcDbSymbolTableRecord
100
AcDbLayerTableRecord
  2
ENG_K
 70
0
 62
2
  6
Continuous
370
-3
390
13
347
21
  0
LAYER
  5
32
330
1
100
AcDbSymbolTableRecord
100
AcDbLayerTableRecord
  2
CUT_OUTLINE
 70
0
 62
5
  6
Continuous
370
-3
390
13
347
21
  0
LAYER
  5
33
330
1
100
AcDbSymbolTableRecord
100
AcDbLayerTableRecord
  2
CUT_SLOT
 70
0
 62
1
  6
Continuous
370
-3
390
13
347
21
  0
ENDTAB
  0
TABLE
  2
STYLE
  5
5
330
0
100
AcDbSymbolTable
 70
1
  0
STYLE
  5
29
330
5
100
AcDbSymbolTableRecord
100
AcDbTextStyleTableRecord
  2
Standard
 70
0
 40
0.0
 41
1.0
 50
0.0
 71
0
 42
2.5
  3
txt
  4

  0
ENDTAB
  0
TABLE
  2
VIEW
  5
7
330
0
100
AcDbSymbolTable
 70
0
  0
ENDTAB
  0
TABLE
  2
UCS
  5
6
330
0
100
AcDbSymbolTable
 70
0
  0
ENDTAB
  0
TABLE
  2
APPID
  5
3
330
0
100
AcDbSymbolTable
 70
3
  0
APPID
  5
2A
330
3
100
AcDbSymbolTableRecord
100
AcDbRegAppTableRecord
  2
ACAD
 70
0
  0
APPID
  5
5C
330
3
100
AcDbSymbolTableRecord
100
AcDbRegAppTableRecord
  2
HATCHBACKGROUNDCOLOR
 70
0
  0
APPID
  5
5D
330
3
100
AcDbSymbolTableRecord
100
AcDbRegAppTableRecord
  2
EZDXF
 70
0
  0
ENDTAB
  0
TABLE
  2
DIMSTYLE
  5
4
330
0
100
AcDbSymbolTable
 70
1
100
AcDbDimStyleTable
  0
DIMSTYLE
105
2B
330
4
100
AcDbSymbolTableRecord
100
AcDbDimStyleTableRecord
  2
Standard
 70
0
 40
1.0
 41
2.5
 42
0.625
 43
3.75
 44
1.25
 45
0.0
 46
0.0
 47
0.0
 48
0.0
 49
2.5
140
2.5
141
2.5
142
0.0
143
0.03937007874
144
1.0
145
0.0
146
1.0
147
0.625
148
0.0
 69
0
 70
0
 71
0
 72
0
 73
0
 74
0
 75
0
 76
0
 77
1
 78
8
 79
3
170
0
171
3
172
1
173
0
174
0
175
0
176
0
177
0
178
0
179
2
271
2
272
2
273
2
274
3
275
0
276
0
277
2
278
44
279
0
280
0
281
0
282
0
283
0
284
8
285
0
286
0
288
0
289
3
290
0
371
-2
372
-2
  0
ENDTAB
  0
TABLE
  2
BLOCK_RECORD
  5
9
330
0
100
AcDbSymbolTable
 70
2
  0
BLOCK_RECORD
  5
17
330
9
100
AcDbSymbolTableRecord
100
AcDbBlockTableRecord
  2
*Model_Space
340
1A
 70
0
280
1
281
0
  0
BLOCK_RECORD
  5
1B
330
9
100
AcDbSymbolTableRecord
100
AcDbBlockTableRecord
  2
*Paper_Space
340
1E
 70
0
280
1
281
0
  0
ENDTAB
  0
ENDSEC
  0
SECTION
  2
BLOCKS
  0
BLOCK
  5
18
330
17
100
AcDbEntity
  8
0
100
AcDbBlockBegin
  2
*Model_Space
 70
0
 10
0.0
 20
0.0
 30
0.0
  3
*Model_Space
  1

  0
ENDBLK
  5
19
330
17
100
AcDbEntity
  8
0
100
AcDbBlockEnd
  0
BLOCK
  5
1C
330
1B
100
AcDbEntity
  8
0
100
AcDbBlockBegin
  2
*Paper_Space
 70
0
 10
0.0
 20
0.0
 30
0.0
  3
*Paper_Space
  1

  0
ENDBLK
  5
1D
330
1B
100
AcDbEntity
  8
0
100
AcDbBlockEnd
  0
ENDSEC
  0
SECTION
  2
ENTITIES
  0
LWPOLYLINE
  5
34
330
17
100
AcDbEntity
  8
ENG_L
100
AcDbPolyline
 90
25
 70
1
 10
177.01239755703241
 20
233.3452377915608
 10
176.5409930362414
 20
233.81664231235177
 10
176.06958851545033
 20
238.53068752026218
 10
179.13371790059205
 20
239.70919882223973
 10
181.96214502533823
 20
240.1806033430307
 10
182.43354954612926
 20
240.6520078638217
 10
183.84776310850236
 20
240.6520078638217
 10
184.3191676292934
 20
241.1234123846129
 10
184.55486988968892
 20
240.4163056034263
 10
184.0834653688979
 20
239.94490108263534
 10
185.49767893127097
 20
239.00209204105317
 10
185.49767893127097
 20
238.53068752026218
 10
184.0834653688979
 20
237.58787847868
 10
184.0834653688979
 20
237.11647395788904
 10
185.7333811916665
 20
234.99515361432933
 10
186.91189249364407
 20
234.75945135393394
 10
187.3832970144351
 20
233.3452377915608
 10
185.7333811916665
 20
232.16672648958325
 10
183.37635858771134
 20
231.69532196879206
 10
181.96214502533823
 20
230.75251292721012
 10
180.0765269421741
 20
230.75251292721012
 10
178.19090885901
 20
229.80970388562793
 10
177.48380207782344
 20
230.04540614602354
 10
177.01239755703241
 20
230.9882151876057
 10
177.01239755703241
 20
233.3452377915608
  0
LWPOLYLINE
  5
35
330
17
100
AcDbEntity
  8
ENG_L
100
AcDbPolyline
 90
13
 70
1
 10
181.96214502533823
 20
133.1717771234665
 10
185.49767893127097
 20
130.57905225911583
 10
186.91189249364407
 20
126.80781609278758
 10
186.67619023324855
 20
126.100709311601
 10
182.90495406692028
 20
125.62930479081002
 10
182.43354954612926
 20
125.15790027001894
 10
180.0765269421741
 20
125.15790027001894
 10
179.60512242138307
 20
124.68649574922796
 10
177.71950433821894
 20
124.68649574922796
 10
177.2480998174279
 20
124.21509122843688
 10
176.06958851545033
 20
124.45079348883237
 10
176.06958851545033
 20
125.86500705120551
 10
181.96214502533823
 20
133.1717771234665
  0
LWPOLYLINE
  5
36
330
17
100
AcDbEntity
  8
ENG_L
100
AcDbPolyline
 90
6
 70
1
 10
185.26197667087547
 20
183.6120608481069
 10
186.44048797285305
 20
173.00545913030874
 10
176.7766952966369
 20
166.6414980996298
 10
175.12677947386825
 20
166.87720036002528
 10
183.61206084810686
 20
183.3763585877114
 10
185.26197667087547
 20
183.6120608481069
  0
LWPOLYLINE
  5
37
330
17
100
AcDbEntity
  8
ENG_L
100
AcDbPolyline
 90
21
 70
1
 10
152.9707669966898
 20
251.25860958162005
 10
152.9707669966898
 20
253.14422766478418
 10
152.49936247589878
 20
253.61563218557515
 10
152.49936247589878
 20
256.44405931032145
 10
152.02795795510772
 20
256.9154638311124
 10
152.02795795510772
 20
262.1009135598136
 10
151.55655343431667
 20
262.57231808060476
 10
151.55655343431667
 20
264.92934068455986
 10
151.08514891352564
 20
265.4007452053511
 10
151.08514891352564
 20
266.81495876772397
 10
151.7922556947122
 20
267.5220655489106
 10
152.9707669966898
 20
267.28636328851496
 10
157.44910994420457
 20
259.0367841746721
 10
169.94132974516694
 20
259.2724864350675
 10
169.7056274847714
 20
256.20835704992584
 10
167.8200094016073
 20
255.73695252913487
 10
161.69175063132388
 20
252.4371208835976
 10
159.80613254815975
 20
252.4371208835976
 10
154.6206828194584
 20
249.6086937588513
 10
153.44217151748083
 20
250.31580054003788
 10
152.9707669966898
 20
251.25860958162005
  0
LWPOLYLINE
  5
38
330
17
100
AcDbEntity
  8
ENG_L
100
AcDbPolyline
 90
12
 70
1
 10
128.69343417595167
 20
111.9585736878701
 10
129.1648386967427
 20
112.42997820866107
 10
131.05045677990682
 20
112.42997820866107
 10
131.52186130069785
 20
112.90138272945217
 10
133.40747938386195
 20
112.90138272945217
 10
133.64318164425748
 20
104.65180361560911
 10
133.17177712346646
 20
104.18039909481803
 10
132.70037260267543
 20
101.35197197007184
 10
130.10764773832474
 20
100.1734606680943
 10
126.572113832392
 20
100.40916292848978
 10
127.04351835318303
 20
111.7228714274745
 10
128.69343417595167
 20
111.9585736878701
  0
LWPOLYLINE
  5
39
330
17
100
AcDbEntity
  8
ENG_L
100
AcDbPolyline
 90
42
 70
1
 10
115.25840533340725
 20
228.1597880628594
 10
111.487169167079
 20
233.81664231235177
 10
109.36584882351936
 20
238.2949852598666
 10
107.00882621956418
 20
237.35217621828463
 10
104.65180361560904
 20
237.35217621828463
 10
104.18039909481801
 20
236.88077169749343
 10
102.05907875125835
 20
237.11647395788904
 10
102.05907875125835
 20
245.13035081133648
 10
101.1162697096763
 20
246.07315985291868
 10
100.64486518888526
 20
247.4873734152918
 10
101.82337649086284
 20
247.7230756756872
 10
105.12320813640007
 20
251.02290732122447
 10
107.00882621956418
 20
251.9657163628064
 10
108.42303978193729
 20
251.9657163628064
 10
110.30865786510141
 20
252.90852540438857
 10
110.78006238589244
 20
252.4371208835976
 10
113.13708498984761
 20
253.85133444597074
 10
115.49410759380277
 20
254.32273896676173
 10
115.96551211459379
 20
254.7941434875527
 10
117.37972567696688
 20
254.7941434875527
 10
117.85113019775793
 20
255.26554800834367
 10
119.26534376013102
 20
255.26554800834367
 10
121.15096184329515
 20
256.20835704992584
 10
122.0937708848772
 20
255.73695252913487
 10
124.9221980096234
 20
255.73695252913487
 10
125.39360253041443
 20
256.20835704992584
 10
126.80781609278752
 20
256.20835704992584
 10
128.4577319155561
 20
252.67282314399318
 10
129.87194547792924
 20
251.25860958162005
 10
129.87194547792924
 20
249.37299149845592
 10
129.40054095713822
 20
248.90158697766475
 10
129.40054095713822
 20
243.71613724896358
 10
128.9291364363472
 20
243.24473272817238
 10
128.9291364363472
 20
241.83051916579922
 10
127.04351835318303
 20
240.4163056034263
 10
125.15790027001891
 20
230.9882151876057
 10
124.21509122843685
 20
229.10259710444137
 10
123.74368670764582
 20
225.33136093811314
 10
123.03657992645928
 20
224.62425415692678
 10
116.90832115617586
 20
225.09565867771775
 10
116.20121437498932
 20
225.80276545890433
 10
115.25840533340725
 20
228.1597880628594
  0
LWPOLYLINE
  5
3A
330
17
100
AcDbEntity
  8
ENG_L
100
AcDbPolyline
 90
24
 70
1
 10
83.67430244040811
 20
155.56349186104046
 10
83.20289791961709
 20
157.92051446499568
 10
82.73149339882606
 20
158.39191898578676
 10
82.96719565922157
 20
162.39885741251047
 10
85.32421826317673
 20
162.87026193330155
 10
85.79562278396777
 20
163.34166645409255
 10
87.20983634634086
 20
163.34166645409255
 10
87.6812408671319
 20
163.81307097488352
 10
89.095454429505
 20
163.81307097488352
 10
89.56685895029602
 20
164.2844754956746
 10
91.45247703346014
 20
164.2844754956746
 10
91.92388155425118
 20
164.75588001646568
 10
92.63098833543773
 20
164.0487732352791
 10
93.57379737701979
 20
157.44910994420457
 10
94.04520189781083
 20
156.9777054234136
 10
94.04520189781083
 20
155.0920873402495
 10
94.51660641860185
 20
154.62068281945852
 10
94.51660641860185
 20
152.7350647362944
 10
94.98801093939288
 20
152.2636602155033
 10
94.98801093939288
 20
150.37804213233917
 10
95.45941546018392
 20
149.9066376115481
 10
91.21677477306463
 20
149.9066376115481
 10
87.6812408671319
 20
151.08514891352564
 10
83.67430244040811
 20
155.56349186104046
  0
LWPOLYLINE
  5
3B
330
17
100
AcDbEntity
  8
ENG_D
100
AcDbPolyline
 90
18
 70
1
 10
216.13897278268803
 20
111.7228714274745
 10
216.61037730347905
 20
111.25146690668353
 10
216.13897278268803
 20
110.78006238589244
 10
216.61037730347905
 20
110.30865786510147
 10
213.07484339754632
 20
110.07295560470598
 10
212.6034388767553
 20
109.6015510839149
 10
210.48211853319566
 20
109.83725334431038
 10
207.18228688765845
 20
121.1509618432952
 10
208.83220271042705
 20
121.3866641036907
 10
209.30360723121808
 20
121.85806862448167
 10
213.07484339754632
 20
121.85806862448167
 10
214.01765243912837
 20
122.32947314527276
 10
214.72475922031495
 20
120.67955732250412
 10
214.72475922031495
 20
119.26534376013109
 10
215.667568261897
 20
117.85113019775795
 10
215.667568261897
 20
115.02270307301177
 10
216.61037730347905
 20
114.0798940314297
 10
216.13897278268803
 20
111.7228714274745
  0
LWPOLYLINE
  5
3C
330
17
100
AcDbEntity
  8
ENG_D
100
AcDbPolyline
 90
19
 70
1
 10
198.69700551341987
 20
126.33641157199649
 10
200.11121907579297
 20
124.92219800962346
 10
199.63981455500192
 20
124.45079348883237
 10
199.63981455500192
 20
121.62236636408619
 10
201.05402811737503
 20
120.20815280171315
 10
201.05402811737503
 20
117.85113019775795
 10
198.9327077738154
 20
114.78700081261628
 10
194.9257693470916
 20
115.02270307301177
 10
194.45436482630058
 20
115.49410759380285
 10
193.98296030550955
 20
119.73674828092207
 10
193.0401512639275
 20
122.09377088487727
 10
193.0401512639275
 20
123.97938896804139
 10
192.56874674313644
 20
124.45079348883237
 10
192.56874674313644
 20
126.33641157199649
 10
192.09734222234542
 20
127.27922061357866
 10
196.5756851698602
 20
127.98632739476513
 10
198.46130325302434
 20
128.9291364363472
 10
199.1684100342109
 20
128.2220296551606
 10
198.69700551341987
 20
126.33641157199649
  0
LWPOLYLINE
  5
3D
330
17
100
AcDbEntity
  8
ENG_D
100
AcDbPolyline
 90
33
 70
1
 10
184.0834653688979
 20
206.00377558568096
 10
184.55486988968892
 20
208.36079818963606
 10
185.49767893127097
 20
209.3036072312181
 10
185.49767893127097
 20
210.24641627280016
 10
185.969083452062
 20
210.71782079359124
 10
185.7333811916665
 20
211.8963320955688
 10
182.43354954612926
 20
211.8963320955688
 10
181.7264427649427
 20
212.60343887675538
 10
180.78363372336065
 20
214.96046148071056
 10
178.89801564019652
 20
217.78888860545675
 10
181.96214502533823
 20
224.15284963613558
 10
186.67619023324855
 20
222.26723155297145
 10
187.6189992748306
 20
222.26723155297145
 10
189.0332128372037
 20
221.3244225113895
 10
189.97602187878576
 20
221.3244225113895
 10
190.6831286599723
 20
218.26029312624772
 10
191.15453318076337
 20
217.78888860545675
 10
189.74031961839026
 20
217.31748408466567
 10
189.74031961839026
 20
215.90327052229253
 10
190.6831286599723
 20
214.0176524391284
 10
190.6831286599723
 20
208.83220271042714
 10
191.6259377015544
 20
207.88939366884506
 10
190.21172413918129
 20
206.47518010647192
 10
189.74031961839026
 20
204.5895620233078
 10
190.21172413918129
 20
204.11815750251682
 10
190.21172413918129
 20
201.76113489856164
 10
190.6831286599723
 20
201.28973037777052
 10
191.15453318076337
 20
195.63287612827818
 10
182.90495406692028
 20
197.28279195104682
 10
181.25503824415168
 20
199.40411229460642
 10
182.66925180652476
 20
202.23253941935272
 10
183.14065632731584
 20
204.5895620233078
 10
184.0834653688979
 20
206.00377558568096
  0
LWPOLYLINE
  5
3E
330
17
100
AcDbEntity
  8
ENG_D
100
AcDbPolyline
 90
46
 70
1
 10
168.0557116620028
 20
245.60175533212768
 10
168.52711618279383
 20
246.07315985291868
 10
168.52711618279383
 20
248.43018245687375
 10
168.99852070358486
 20
248.90158697766475
 10
168.99852070358486
 20
250.78720506082885
 10
169.4699252243759
 20
251.25860958162005
 10
169.4699252243759
 20
253.14422766478418
 10
169.94132974516694
 20
253.61563218557515
 10
169.94132974516694
 20
259.2724864350675
 10
157.44910994420457
 20
259.0367841746721
 10
154.38498055906288
 20
264.92934068455986
 10
152.9707669966898
 20
266.81495876772397
 10
153.2064692570853
 20
267.5220655489106
 10
159.80613254815975
 20
267.5220655489106
 10
163.10596419369696
 20
265.6364474657464
 10
166.40579583923417
 20
265.6364474657464
 10
169.2342229639804
 20
264.2222339033733
 10
171.11984104714452
 20
264.2222339033733
 10
173.47686365109965
 20
262.8080203410004
 10
174.41967269268173
 20
262.8080203410004
 10
174.65537495307723
 20
261.6295090390226
 10
177.71950433821894
 20
258.09397513308994
 10
178.19090885901
 20
258.09397513308994
 10
180.0765269421741
 20
256.20835704992584
 10
181.25503824415168
 20
255.97265478953025
 10
180.31222920256963
 20
254.5584412271571
 10
181.25503824415168
 20
254.08703670636612
 10
181.25503824415168
 20
253.61563218557515
 10
184.55486988968892
 20
249.84439601924691
 10
184.55486988968892
 20
248.43018245687375
 10
185.49767893127097
 20
247.4873734152918
 10
185.02627441047994
 20
246.54456437370965
 10
185.49767893127097
 20
245.60175533212768
 10
184.79057215008444
 20
245.3660530717321
 10
182.66925180652476
 20
246.54456437370965
 10
183.14065632731584
 20
247.01596889450062
 10
182.90495406692028
 20
250.0800982796425
 10
180.0765269421741
 20
250.0800982796425
 10
179.60512242138307
 20
248.66588471726936
 10
178.66231337980102
 20
249.6086937588513
 10
177.71950433821894
 20
249.6086937588513
 10
175.5981839946593
 20
245.60175533212768
 10
174.65537495307723
 20
244.65894629054552
 10
172.29835234912207
 20
239.00209204105317
 10
167.58430714121178
 20
241.83051916579922
 10
168.0557116620028
 20
245.60175533212768
  0
LWPOLYLINE
  5
3F
330
17
100
AcDbEntity
  8
ENG_D
100
AcDbPolyline
 90
10
 70
1
 10
182.90495406692028
 20
188.79751057680826
 10
184.55486988968892
 20
188.09040379562168
 10
185.49767893127097
 20
185.7333811916666
 10
185.26197667087547
 20
183.6120608481069
 10
178.4266111194055
 20
183.84776310850248
 10
177.48380207782344
 20
186.20478571245758
 10
177.48380207782344
 20
187.6189992748307
 10
177.01239755703241
 20
188.09040379562168
 10
177.2480998174279
 20
189.26891509759923
 10
182.90495406692028
 20
188.79751057680826
  0
LWPOLYLINE
  5
40
330
17
100
AcDbEntity
  8
ENG_D
100
AcDbPolyline
 90
16
 70
1
 10
173.24116139070415
 20
232.40242874997864
 10
173.24116139070415
 20
235.2308558747249
 10
173.71256591149518
 20
235.7022603955159
 10
173.71256591149518
 20
237.58787847868
 10
175.83388625505484
 20
238.76638978065756
 10
176.06958851545033
 20
237.11647395788904
 10
176.5409930362414
 20
236.64506943709807
 10
176.5409930362414
 20
233.81664231235177
 10
177.01239755703241
 20
233.3452377915608
 10
177.01239755703241
 20
230.9882151876057
 10
177.48380207782344
 20
230.5168106668145
 10
177.48380207782344
 20
229.57400162523257
 10
174.89107721347276
 20
226.98127676088185
 10
172.29835234912207
 20
227.68838354206844
 10
172.76975686991312
 20
231.93102422918764
 10
173.24116139070415
 20
232.40242874997864
  0
LWPOLYLINE
  5
41
330
17
100
AcDbEntity
  8
ENG_D
100
AcDbPolyline
 90
97
 70
1
 10
133.17177712346646
 20
126.33641157199649
 10
130.10764773832474
 20
128.4577319155562
 10
125.86500705120545
 20
130.34334999872033
 10
125.62930479080994
 20
131.0504567799069
 10
129.1648386967427
 20
133.1717771234665
 10
130.5790522591158
 20
134.58599068583953
 10
132.2289680818844
 20
135.29309746702612
 10
131.52186130069785
 20
135.5287997274217
 10
128.69343417595167
 20
134.11458616504856
 10
128.2220296551606
 20
133.1717771234665
 10
127.75062513436957
 20
133.1717771234665
 10
127.9863273947651
 20
134.35028842544406
 10
127.04351835318303
 20
134.82169294623515
 10
128.2220296551606
 20
136.47160876900367
 10
129.1648386967427
 20
136.94301328979475
 10
131.52186130069785
 20
136.47160876900367
 10
132.4646703422799
 20
137.41441781058583
 10
136.23590650860814
 20
137.41441781058583
 10
137.17871555019025
 20
137.8858223313768
 10
137.41441781058575
 20
137.65012007098133
 10
136.94301328979472
 20
137.17871555019025
 10
137.65012007098127
 20
136.94301328979475
 10
140.0071426749364
 20
137.8858223313768
 10
141.4213562373095
 20
137.8858223313768
 10
141.89276075810054
 20
138.35722685216777
 10
143.3069743204736
 20
138.35722685216777
 10
143.77837884126464
 20
138.82863137295885
 10
145.19259240363778
 20
138.82863137295885
 10
145.6639969244288
 20
139.30003589374996
 10
147.07821048680188
 20
139.30003589374996
 10
147.54961500759293
 20
139.77144041454093
 10
148.963828569966
 20
139.77144041454093
 10
149.43523309075704
 20
140.24284493533202
 10
150.1423398719436
 20
138.59292911256338
 10
148.963828569966
 20
138.35722685216777
 10
147.78531726798843
 20
137.17871555019025
 10
148.49242404917499
 20
136.47160876900367
 10
149.67093535115256
 20
136.23590650860817
 10
150.1423398719436
 20
134.82169294623515
 10
147.3139127471974
 20
131.99326582148896
 10
147.3139127471974
 20
131.0504567799069
 10
149.19953083036154
 20
128.6934341759517
 10
148.25672178877946
 20
128.2220296551606
 10
148.25672178877946
 20
127.27922061357866
 10
147.07821048680188
 20
126.100709311601
 10
146.13540144521983
 20
126.57211383239209
 10
144.95689014324225
 20
125.39360253041454
 10
144.95689014324225
 20
123.50798444725031
 10
144.01408110166017
 20
122.56517540566824
 10
144.95689014324225
 20
121.1509618432952
 10
144.95689014324225
 20
119.73674828092207
 10
144.48548562245122
 20
119.26534376013109
 10
144.95689014324225
 20
118.32253471854904
 10
144.48548562245122
 20
117.85113019775795
 10
144.48548562245122
 20
116.90832115617589
 10
143.54267658086914
 20
115.96551211459382
 10
144.01408110166017
 20
115.02270307301177
 10
143.54267658086914
 20
114.0798940314297
 10
144.48548562245122
 20
113.13708498984765
 10
144.48548562245122
 20
111.7228714274745
 10
144.01408110166017
 20
111.25146690668353
 10
144.48548562245122
 20
110.78006238589244
 10
144.48548562245122
 20
108.42303978193735
 10
144.24978336205572
 20
108.18733752154186
 10
143.3069743204736
 20
109.13014656312392
 10
142.5998675392871
 20
108.42303978193735
 10
144.01408110166017
 20
106.53742169877323
 10
143.54267658086914
 20
106.06601717798215
 10
144.01408110166017
 20
105.12320813640008
 10
143.54267658086914
 20
104.18039909481803
 10
144.24978336205572
 20
103.47329231363145
 10
146.13540144521983
 20
105.35891039679557
 10
146.37110370561535
 20
104.65180361560911
 10
145.42829466403327
 20
102.766185532445
 10
145.42829466403327
 20
101.82337649086293
 10
144.01408110166017
 20
99.46635388690773
 10
143.54267658086914
 20
97.10933128295251
 10
142.5998675392871
 20
95.69511772057947
 10
141.657058497705
 20
91.92388155425124
 10
140.71424945612296
 20
90.50966799187809
 10
140.24284493533193
 20
88.152645387923
 10
139.7714404145409
 20
87.68124086713192
 10
139.7714404145409
 20
86.73843182554985
 10
137.65012007098127
 20
85.08851600278122
 10
136.94301328979472
 20
85.32421826317682
 10
136.94301328979472
 20
135.29309746702612
 10
133.64318164425748
 20
135.29309746702612
 10
133.40747938386195
 20
112.90138272945217
 10
131.52186130069785
 20
112.90138272945217
 10
131.05045677990682
 20
112.42997820866107
 10
127.27922061357854
 20
111.9585736878701
 10
124.68649574922789
 20
115.96551211459382
 10
127.9863273947651
 20
119.73674828092207
 10
127.9863273947651
 20
120.20815280171315
 10
130.34334999872027
 20
122.09377088487727
 10
130.34334999872027
 20
123.03657992645934
 10
133.17177712346646
 20
126.33641157199649
  0
LWPOLYLINE
  5
42
330
17
100
AcDbEntity
  8
ENG_D
100
AcDbPolyline
 90
4
 70
1
 10
136.23590650860814
 20
136.94301328979475
 10
136.00020424821264
 20
136.70731102939925
 10
136.4716087690037
 20
136.70731102939925
 10
136.23590650860814
 20
136.94301328979475
  0
LWPOLYLINE
  5
43
330
17
100
AcDbEntity
  8
ENG_D
100
AcDbPolyline
 90
5
 70
1
 10
134.35028842544403
 20
136.0002042482127
 10
135.2930974670261
 20
136.0002042482127
 10
135.5287997274216
 20
136.23590650860817
 10
134.35028842544403
 20
136.47160876900367
 10
134.35028842544403
 20
136.0002042482127
  0
LWPOLYLINE
  5
44
330
17
100
AcDbEntity
  8
ENG_D
100
AcDbPolyline
 90
4
 70
1
 10
133.17177712346646
 20
136.23590650860817
 10
132.93607486307093
 20
136.47160876900367
 10
132.70037260267543
 20
136.23590650860817
 10
133.17177712346646
 20
136.23590650860817
  0
LWPOLYLINE
  5
45
330
17
100
AcDbEntity
  8
ENG_D
100
AcDbPolyline
 90
4
 70
1
 10
128.69343417595167
 20
135.5287997274217
 10
128.4577319155561
 20
135.29309746702612
 10
128.9291364363472
 20
135.29309746702612
 10
128.69343417595167
 20
135.5287997274217
  0
LWPOLYLINE
  5
46
330
17
100
AcDbEntity
  8
ENG_D
100
AcDbPolyline
 90
45
 70
1
 10
113.84419177103415
 20
222.50293381336706
 10
116.43691663538483
 20
225.09565867771775
 10
123.03657992645928
 20
224.62425415692678
 10
123.74368670764582
 20
225.33136093811314
 10
124.21509122843685
 20
229.10259710444137
 10
125.15790027001891
 20
230.9882151876057
 10
126.10070931160097
 20
236.17366491630688
 10
126.572113832392
 20
236.64506943709807
 10
127.04351835318303
 20
240.4163056034263
 10
129.1648386967427
 20
242.06622142619483
 10
131.52186130069785
 20
240.6520078638217
 10
140.0071426749364
 20
248.66588471726936
 10
142.36416527889156
 20
250.0800982796425
 10
145.89969918482433
 20
246.54456437370965
 10
145.42829466403327
 20
246.07315985291868
 10
145.42829466403327
 20
244.18754176975455
 10
144.95689014324225
 20
243.71613724896358
 10
144.48548562245122
 20
239.94490108263534
 10
144.01408110166017
 20
239.47349656184414
 10
144.01408110166017
 20
237.58787847868
 10
143.3069743204736
 20
236.40936717670246
 10
140.71424945612296
 20
234.75945135393394
 10
140.71424945612296
 20
233.3452377915608
 10
140.24284493533193
 20
232.87383327076984
 10
139.7714404145409
 20
230.5168106668145
 10
147.3139127471974
 20
220.14591120941196
 10
144.48548562245122
 20
214.48905695991948
 10
144.24978336205572
 20
214.253354699524
 10
142.8355697996826
 20
215.19616374110606
 10
139.7714404145409
 20
218.26029312624772
 10
141.657058497705
 20
224.38855189653117
 10
142.12846301849603
 20
224.85995641732214
 10
141.4213562373095
 20
225.56706319850872
 10
136.23590650860814
 20
227.92408580246382
 10
127.9863273947651
 20
221.56012477178487
 10
128.4577319155561
 20
220.61731573020293
 10
128.2220296551606
 20
218.49599538664322
 10
120.67955732250411
 20
216.1389727826881
 10
119.26534376013102
 20
215.19616374110606
 10
116.90832115617586
 20
214.72475922031498
 10
114.07989403142966
 20
213.31054565794193
 10
113.37278725024312
 20
213.54624791833743
 10
113.37278725024312
 20
219.67450668862088
 10
113.84419177103415
 20
220.14591120941196
 10
113.84419177103415
 20
222.50293381336706
  0
LWPOLYLINE
  5
47
330
17
100
AcDbEntity
  8
ENG_D
100
AcDbPolyline
 90
62
 70
1
 10
108.42303978193729
 20
172.76975686991312
 10
113.60848951063863
 20
168.05571166200284
 10
114.5512985522207
 20
168.05571166200284
 10
115.25840533340725
 20
168.76281844318942
 10
115.72980985419828
 20
179.13371790059207
 10
112.42997820866105
 20
183.84776310850248
 10
112.42997820866105
 20
185.26197667087553
 10
112.9013827294521
 20
185.7333811916666
 10
112.9013827294521
 20
189.97602187878582
 10
113.37278725024312
 20
190.4474263995769
 10
110.54436012549692
 20
193.27585352432308
 10
108.18733752154178
 20
196.57568516986035
 10
108.6587420423328
 20
197.04708969065132
 10
108.6587420423328
 20
198.46130325302448
 10
109.60155108391487
 20
199.8755168153975
 10
109.60155108391487
 20
200.81832585697956
 10
113.13708498984761
 20
207.65369140844948
 10
124.9221980096234
 20
207.65369140844948
 10
125.15790027001891
 20
203.17534846093477
 10
124.68649574922789
 20
202.7039439401437
 10
124.68649574922789
 20
197.04708969065132
 10
122.80087766606377
 20
192.804449003532
 10
130.34334999872027
 20
185.7333811916666
 10
130.5790522591158
 20
185.02627441048003
 10
133.40747938386195
 20
185.02627441048003
 10
135.7645019878171
 20
185.96908345206208
 10
139.53573815414538
 20
186.44048797285308
 10
141.18565397691398
 20
184.31916762929345
 10
142.5998675392871
 20
181.4907405045473
 10
141.18565397691398
 20
179.13371790059207
 10
141.18565397691398
 20
178.19090885901002
 10
139.7714404145409
 20
175.83388625505492
 10
139.7714404145409
 20
174.89107721347287
 10
138.3572268521678
 20
172.53405460951765
 10
138.3572268521678
 20
171.5912455679356
 10
137.41441781058575
 20
169.70562748477147
 10
129.63624321753372
 20
169.46992522437597
 10
124.68649574922789
 20
164.99158227686118
 10
125.62930479080994
 20
160.27753706895086
 10
126.10070931160097
 20
159.80613254815978
 10
126.10070931160097
 20
157.92051446499568
 10
114.07989403142966
 20
151.55655343431673
 10
113.84419177103415
 20
162.163155152115
 10
111.487169167079
 20
162.63455967290597
 10
110.78006238589244
 20
166.17009357883873
 10
109.83725334431038
 20
166.17009357883873
 10
109.36584882351936
 20
166.6414980996298
 10
104.65180361560904
 20
166.6414980996298
 10
104.41610135521353
 20
164.0487732352791
 10
104.88750587600455
 20
163.57736871448802
 10
104.88750587600455
 20
158.39191898578676
 10
105.35891039679558
 20
157.92051446499568
 10
105.83031491758662
 20
149.9066376115481
 10
103.23759005323595
 20
149.67093535115262
 10
102.76618553244491
 20
149.19953083036154
 10
100.17346066809424
 20
149.43523309075712
 10
99.23065162651217
 20
150.84944665313017
 10
99.23065162651217
 20
164.99158227686118
 10
98.75924710572113
 20
165.46298679765215
 10
99.70205614730321
 20
166.87720036002528
 10
102.29478101165387
 20
167.11290262042078
 10
108.42303978193729
 20
172.76975686991312
  0
LWPOLYLINE
  5
48
330
17
100
AcDbEntity
  8
ENG_D
100
AcDbPolyline
 90
24
 70
1
 10
126.80781609278752
 20
46.90474981870763
 10
126.33641157199649
 20
46.43334529791665
 10
124.45079348883237
 20
46.43334529791665
 10
122.0937708848772
 20
45.49053625633459
 10
120.20815280171308
 20
45.49053625633459
 10
119.73674828092206
 20
45.0191317355435
 10
118.79393923933999
 20
45.0191317355435
 10
116.67261889578035
 20
42.8978113919839
 10
115.25840533340725
 20
40.54078878802869
 10
114.07989403142966
 20
39.36227748605114
 10
114.07989403142966
 20
55.390031192946275
 10
115.02270307301174
 20
54.91862667215519
 10
120.20815280171308
 20
56.80424475531931
 10
124.45079348883237
 20
57.2756492761104
 10
129.1648386967427
 20
59.16126735927452
 10
130.10764773832474
 20
56.80424475531931
 10
142.5998675392871
 20
56.568542494923825
 10
142.12846301849603
 20
54.6829244117597
 10
139.7714404145409
 20
50.44028372464038
 10
139.7714404145409
 20
49.497474683058314
 10
137.17871555019025
 20
45.0191317355435
 10
132.4646703422799
 20
45.49053625633459
 10
130.10764773832474
 20
47.37615433949871
 10
126.80781609278752
 20
46.90474981870763
  0
LWPOLYLINE
  5
49
330
17
100
AcDbEntity
  8
ENG_D
100
AcDbPolyline
 90
11
 70
1
 10
142.5998675392871
 20
151.32085117392126
 10
142.12846301849603
 20
149.43523309075712
 10
137.17871555019025
 20
144.01408110166025
 10
136.23590650860814
 20
143.54267658086917
 10
125.62930479080994
 20
143.77837884126475
 10
130.34334999872027
 20
148.96382856996604
 10
130.34334999872027
 20
149.43523309075712
 10
136.23590650860814
 20
155.32778960064496
 10
138.1215245917723
 20
154.3849805590629
 10
139.53573815414538
 20
154.3849805590629
 10
142.5998675392871
 20
151.32085117392126
  0
LWPOLYLINE
  5
4A
330
17
100
AcDbEntity
  8
ENG_D
100
AcDbPolyline
 90
12
 70
1
 10
131.28615904030232
 20
86.26702730475877
 10
130.8147545195113
 20
88.62404990871397
 10
130.34334999872027
 20
89.09545442950505
 10
130.34334999872027
 20
90.98107251266919
 10
127.04351835318303
 20
99.93775840769881
 10
130.10764773832474
 20
100.1734606680943
 10
131.52186130069785
 20
101.11626970967636
 10
132.4646703422799
 20
101.11626970967636
 10
133.40747938386195
 20
104.41610135521351
 10
133.64318164425748
 20
84.38140922159465
 10
131.75756356109335
 20
85.32421826317682
 10
131.28615904030232
 20
86.26702730475877
  0
LWPOLYLINE
  5
4B
330
17
100
AcDbEntity
  8
ENG_D
100
AcDbPolyline
 90
18
 70
1
 10
107.48023074035522
 20
55.390031192946275
 10
108.89444430272832
 20
56.80424475531931
 10
110.54436012549692
 20
56.568542494923825
 10
110.54436012549692
 20
41.48359782961075
 10
109.60155108391487
 20
41.48359782961075
 10
108.42303978193729
 20
42.66210913158841
 10
104.41610135521353
 20
44.78342947514802
 10
103.23759005323595
 20
49.26177242266283
 10
101.82337649086284
 20
49.26177242266283
 10
101.35197197007182
 20
48.79036790187175
 10
98.05214032453459
 20
48.79036790187175
 10
97.58073580374356
 20
48.31896338108077
 10
95.93081998097496
 20
48.554665641476255
 10
95.45941546018392
 20
49.497474683058314
 10
95.22371319978839
 20
56.332840234528334
 10
100.40916292848975
 20
53.504413109782156
 10
102.76618553244491
 20
53.03300858899107
 10
107.48023074035522
 20
55.390031192946275
  0
LWPOLYLINE
  5
4C
330
17
100
AcDbEntity
  8
ENG_D
100
AcDbPolyline
 90
22
 70
1
 10
78.72455497210228
 20
55.390031192946275
 10
84.8528137423857
 20
52.5616040682001
 10
86.50272956515431
 20
47.14045207910323
 10
86.97413408594534
 20
46.66904755831214
 10
86.97413408594534
 20
43.36921591277498
 10
75.42472332656507
 20
34.648232278140846
 10
74.481914284983
 20
34.648232278140846
 10
72.12489168102786
 20
32.76261419497673
 10
70.47497585825924
 20
32.526911934581236
 10
70.94638037905027
 20
35.35533905932742
 10
71.88918942063232
 20
36.769552621700456
 10
71.88918942063232
 20
38.1837661840736
 10
74.24621202458749
 20
44.31202495435704
 10
74.24621202458749
 20
45.2548339959391
 10
75.18902106616954
 20
46.66904755831214
 10
74.71761654537852
 20
47.14045207910323
 10
76.13183010775163
 20
49.497474683058314
 10
76.13183010775163
 20
50.91168824543146
 10
77.07463914933369
 20
52.3259018078045
 10
76.60323462854265
 20
53.26871084938656
 10
78.25315045131126
 20
55.390031192946275
 10
78.72455497210228
 20
55.390031192946275
  0
LWPOLYLINE
  5
4D
330
17
100
AcDbEntity
  8
ENG_K
100
AcDbPolyline
 90
86
 70
1
 10
138.1215245917723
 20
154.3849805590629
 10
136.23590650860814
 20
155.32778960064496
 10
131.52186130069785
 20
156.27059864222704
 10
131.28615904030232
 20
156.50630090262263
 10
131.75756356109335
 20
156.9777054234136
 10
130.8147545195113
 20
157.92051446499568
 10
131.05045677990682
 20
159.0990257669732
 10
130.34334999872027
 20
158.86332350657773
 10
130.10764773832474
 20
156.74200316301813
 10
129.63624321753372
 20
157.2134076838091
 10
126.80781609278752
 20
157.68481220460018
 10
126.10070931160097
 20
158.39191898578676
 10
125.15790027001891
 20
163.57736871448802
 10
124.68649574922789
 20
164.0487732352791
 10
124.68649574922789
 20
164.99158227686118
 10
129.63624321753372
 20
169.46992522437597
 10
133.40747938386195
 20
169.46992522437597
 10
133.64318164425748
 20
161.6917506313239
 10
136.94301328979472
 20
161.6917506313239
 10
136.94301328979472
 20
169.2342229639805
 10
141.18565397691398
 20
178.19090885901002
 10
141.18565397691398
 20
179.13371790059207
 10
142.5998675392871
 20
181.4907405045473
 10
141.18565397691398
 20
184.31916762929345
 10
139.53573815414538
 20
186.44048797285308
 10
135.7645019878171
 20
185.96908345206208
 10
133.40747938386195
 20
185.02627441048003
 10
130.5790522591158
 20
185.02627441048003
 10
129.1648386967427
 20
186.91189249364416
 10
128.69343417595167
 20
186.91189249364416
 10
122.80087766606377
 20
192.804449003532
 10
124.68649574922789
 20
197.04708969065132
 10
124.68649574922789
 20
202.7039439401437
 10
125.15790027001891
 20
203.17534846093477
 10
124.9221980096234
 20
207.65369140844948
 10
112.9013827294521
 20
207.88939366884506
 10
112.9013827294521
 20
208.83220271042714
 10
113.37278725024312
 20
209.3036072312181
 10
113.60848951063863
 20
213.31054565794193
 10
118.32253471854895
 20
215.19616374110606
 10
119.26534376013102
 20
215.19616374110606
 10
120.67955732250411
 20
216.1389727826881
 10
124.45079348883237
 20
217.0817818242702
 10
125.86500705120545
 20
218.02459086585225
 10
128.2220296551606
 20
218.49599538664322
 10
128.4577319155561
 20
220.61731573020293
 10
127.9863273947651
 20
221.56012477178487
 10
136.23590650860814
 20
227.92408580246382
 10
141.4213562373095
 20
225.56706319850872
 10
142.12846301849603
 20
224.85995641732214
 10
139.7714404145409
 20
218.7316976470388
 10
139.7714404145409
 20
218.26029312624772
 10
142.8355697996826
 20
215.19616374110606
 10
144.01408110166017
 20
214.48905695991948
 10
142.5998675392871
 20
211.18922531438233
 10
141.657058497705
 20
210.24641627280016
 10
141.89276075810054
 20
209.5393094916137
 10
148.02101952838396
 20
209.5393094916137
 10
148.49242404917499
 20
209.0679049708226
 10
156.74200316301804
 20
208.83220271042714
 10
156.74200316301804
 20
203.17534846093477
 10
152.02795795510772
 20
198.46130325302448
 10
152.02795795510772
 20
197.5184942114423
 10
150.1423398719436
 20
195.63287612827818
 10
150.1423398719436
 20
195.16147160748721
 10
158.15621672539112
 20
189.50461735799485
 10
158.62762124618214
 20
185.7333811916666
 10
159.09902576697317
 20
185.26197667087553
 10
159.09902576697317
 20
182.9049540669203
 10
156.97770542341354
 20
182.6692518065248
 10
156.5063009026225
 20
180.31222920256963
 10
152.73506473629428
 20
178.4266111194055
 10
151.08514891352564
 20
176.77669529663697
 10
151.55655343431667
 20
175.83388625505492
 10
151.55655343431667
 20
169.2342229639805
 10
152.02795795510772
 20
168.76281844318942
 10
152.02795795510772
 20
166.4057958392342
 10
154.8563850798539
 20
163.10596419369705
 10
155.32778960064493
 20
160.74894158974183
 10
152.49936247589878
 20
156.9777054234136
 10
151.7922556947122
 20
155.32778960064496
 10
146.13540144521983
 20
152.4993624758988
 10
145.19259240363778
 20
152.4993624758988
 10
142.8355697996826
 20
151.08514891352564
 10
139.53573815414538
 20
154.3849805590629
 10
138.1215245917723
 20
154.3849805590629
  0
LWPOLYLINE
  5
4E
330
17
100
AcDbEntity
  8
ENG_K
100
AcDbPolyline
 90
16
 70
1
 10
140.24284493533193
 20
232.87383327076984
 10
140.71424945612296
 20
233.3452377915608
 10
140.71424945612296
 20
234.75945135393394
 10
142.8355697996826
 20
236.40936717670246
 10
145.6639969244288
 20
236.40936717670246
 10
148.02101952838396
 20
235.4665581351203
 10
149.90663761154806
 20
235.4665581351203
 10
150.61374439273462
 20
234.75945135393394
 10
150.61374439273462
 20
233.81664231235177
 10
150.1423398719436
 20
233.3452377915608
 10
150.1423398719436
 20
230.9882151876057
 10
149.67093535115256
 20
230.5168106668145
 10
149.67093535115256
 20
229.57400162523257
 10
144.24978336205572
 20
224.62425415692678
 10
139.7714404145409
 20
230.5168106668145
 10
140.24284493533193
 20
232.87383327076984
  0
LWPOLYLINE
  5
4F
330
17
100
AcDbEntity
  8
CUT_SLOT
100
AcDbPolyline
 90
5
 70
1
 10
87.67778120267431
 20
0.0
 10
91.24188281781207
 20
0.0
 10
91.24188281781207
 20
141.42135623730957
 10
87.67778120267431
 20
141.42135623730957
 10
87.67778120267431
 20
0.0
  0
LWPOLYLINE
  5
50
330
17
100
AcDbEntity
  8
CUT_SLOT
100
AcDbPolyline
 90
5
 70
1
 10
110.77179197025933
 20
0.0
 10
114.33589358539709
 20
0.0
 10
114.33589358539709
 20
141.42135623730957
 10
110.77179197025933
 20
141.42135623730957
 10
110.77179197025933
 20
0.0
  0
LWPOLYLINE
  5
51
330
17
100
AcDbEntity
  8
CUT_SLOT
100
AcDbPolyline
 90
5
 70
1
 10
133.86580273784438
 20
0.0
 10
137.42990435298213
 20
0.0
 10
137.42990435298213
 20
141.42135623730957
 10
133.86580273784438
 20
141.42135623730957
 10
133.86580273784438
 20
0.0
  0
LWPOLYLINE
  5
52
330
17
100
AcDbEntity
  8
CUT_SLOT
100
AcDbPolyline
 90
5
 70
1
 10
156.95981350542942
 20
0.0
 10
160.52391512056718
 20
0.0
 10
160.52391512056718
 20
141.42135623730957
 10
156.95981350542942
 20
141.42135623730957
 10
156.95981350542942
 20
0.0
  0
LWPOLYLINE
  5
53
330
17
100
AcDbEntity
  8
CUT_SLOT
100
AcDbPolyline
 90
5
 70
1
 10
180.05382427301438
 20
0.0
 10
183.61792588815214
 20
0.0
 10
183.61792588815214
 20
141.42135623730957
 10
180.05382427301438
 20
141.42135623730957
 10
180.05382427301438
 20
0.0
  0
LWPOLYLINE
  5
54
330
17
100
AcDbEntity
  8
CUT_SLOT
100
AcDbPolyline
 90
5
 70
1
 10
203.14783504059943
 20
0.0
 10
206.7119366557372
 20
0.0
 10
206.7119366557372
 20
141.42135623730957
 10
203.14783504059943
 20
141.42135623730957
 10
203.14783504059943
 20
0.0
  0
LWPOLYLINE
  5
55
330
17
100
AcDbEntity
  8
CUT_SLOT
100
AcDbPolyline
 90
5
 70
1
 10
76.13077581888177
 20
141.42135623730957
 10
79.69487743401955
 20
141.42135623730957
 10
79.69487743401955
 20
282.84271247461913
 10
76.13077581888177
 20
282.84271247461913
 10
76.13077581888177
 20
141.42135623730957
  0
LWPOLYLINE
  5
56
330
17
100
AcDbEntity
  8
CUT_SLOT
100
AcDbPolyline
 90
5
 70
1
 10
99.22478658646682
 20
141.42135623730957
 10
102.78888820160458
 20
141.42135623730957
 10
102.78888820160458
 20
282.84271247461913
 10
99.22478658646682
 20
282.84271247461913
 10
99.22478658646682
 20
141.42135623730957
  0
LWPOLYLINE
  5
57
330
17
100
AcDbEntity
  8
CUT_SLOT
100
AcDbPolyline
 90
5
 70
1
 10
122.31879735405182
 20
141.42135623730957
 10
125.88289896918958
 20
141.42135623730957
 10
125.88289896918958
 20
282.84271247461913
 10
122.31879735405182
 20
282.84271247461913
 10
122.31879735405182
 20
141.42135623730957
  0
LWPOLYLINE
  5
58
330
17
100
AcDbEntity
  8
CUT_SLOT
100
AcDbPolyline
 90
5
 70
1
 10
145.41280812163689
 20
141.42135623730957
 10
148.97690973677464
 20
141.42135623730957
 10
148.97690973677464
 20
282.84271247461913
 10
145.41280812163689
 20
282.84271247461913
 10
145.41280812163689
 20
141.42135623730957
  0
LWPOLYLINE
  5
59
330
17
100
AcDbEntity
  8
CUT_SLOT
100
AcDbPolyline
 90
5
 70
1
 10
168.50681888922188
 20
141.42135623730957
 10
172.07092050435963
 20
141.42135623730957
 10
172.07092050435963
 20
282.84271247461913
 10
168.50681888922188
 20
282.84271247461913
 10
168.50681888922188
 20
141.42135623730957
  0
LWPOLYLINE
  5
5A
330
17
100
AcDbEntity
  8
CUT_SLOT
100
AcDbPolyline
 90
5
 70
1
 10
191.60082965680692
 20
141.42135623730957
 10
195.16493127194468
 20
141.42135623730957
 10
195.16493127194468
 20
282.84271247461913
 10
191.60082965680692
 20
282.84271247461913
 10
191.60082965680692
 20
141.42135623730957
  0
LWPOLYLINE
  5
5B
330
17
100
AcDbEntity
  8
CUT_OUTLINE
100
AcDbPolyline
 90
5
 70
1
 10
0.0
 20
0.0
 10
282.842712474619
 20
0.0
 10
282.842712474619
 20
282.84271247461913
 10
0.0
 20
282.84271247461913
 10
0.0
 20
0.0
  0
ENDSEC
  0
SECTION
  2
OBJECTS
  0
DICTIONARY
  5
A
330
0
100
AcDbDictionary
281
1
  3
ACAD_COLOR
350
B
  3
ACAD_GROUP
350
C
  3
ACAD_LAYOUT
350
D
  3
ACAD_MATERIAL
350
E
  3
ACAD_MLEADERSTYLE
350
F
  3
ACAD_MLINESTYLE
350
10
  3
ACAD_PLOTSETTINGS
350
11
  3
ACAD_PLOTSTYLENAME
350
12
  3
ACAD_SCALELIST
350
14
  3
ACAD_TABLESTYLE
350
15
  3
ACAD_VISUALSTYLE
350
16
  3
EZDXF_META
350
2D
  0
DICTIONARY
  5
B
330
A
100
AcDbDictionary
281
1
  0
DICTIONARY
  5
C
330
A
100
AcDbDictionary
281
1
  0
DICTIONARY
  5
D
330
A
100
AcDbDictionary
281
1
  3
Model
350
1A
  3
Layout1
350
1E
  0
DICTIONARY
  5
E
330
A
100
AcDbDictionary
281
1
  3
ByBlock
350
1F
  3
ByLayer
350
20
  3
Global
350
21
  0
DICTIONARY
  5
F
330
A
100
AcDbDictionary
281
1
  3
Standard
350
2C
  0
DICTIONARY
  5
10
330
A
100
AcDbDictionary
281
1
  3
Standard
350
22
  0
DICTIONARY
  5
11
330
A
100
AcDbDictionary
281
1
  0
ACDBDICTIONARYWDFLT
  5
12
330
A
100
AcDbDictionary
281
1
  3
Normal
350
13
100
AcDbDictionaryWithDefault
340
13
  0
ACDBPLACEHOLDER
  5
13
330
12
  0
DICTIONARY
  5
14
330
A
100
AcDbDictionary
281
1
  0
DICTIONARY
  5
15
330
A
100
AcDbDictionary
281
1
  0
DICTIONARY
  5
16
330
A
100
AcDbDictionary
281
1
  0
LAYOUT
  5
1A
330
D
100
AcDbPlotSettings
  1

  4
A3
  6

 40
7.5
 41
20.0
 42
7.5
 43
20.0
 44
420.0
 45
297.0
 46
0.0
 47
0.0
 48
0.0
 49
0.0
140
0.0
141
0.0
142
1.0
143
1.0
 70
1024
 72
1
 73
0
 74
5
  7

 75
16
 76
0
 77
2
 78
300
147
1.0
148
0.0
149
0.0
100
AcDbLayout
  1
Model
 70
1
 71
0
 10
0.0
 20
0.0
 11
420.0
 21
297.0
 12
0.0
 22
0.0
 32
0.0
 14
1e+20
 24
1e+20
 34
1e+20
 15
-1e+20
 25
-1e+20
 35
-1e+20
146
0.0
 13
0.0
 23
0.0
 33
0.0
 16
1.0
 26
0.0
 36
0.0
 17
0.0
 27
1.0
 37
0.0
 76
1
330
17
  0
LAYOUT
  5
1E
330
D
100
AcDbPlotSettings
  1

  4
A3
  6

 40
7.5
 41
20.0
 42
7.5
 43
20.0
 44
420.0
 45
297.0
 46
0.0
 47
0.0
 48
0.0
 49
0.0
140
0.0
141
0.0
142
1.0
143
1.0
 70
0
 72
1
 73
0
 74
5
  7

 75
16
 76
0
 77
2
 78
300
147
1.0
148
0.0
149
0.0
100
AcDbLayout
  1
Layout1
 70
1
 71
1
 10
0.0
 20
0.0
 11
420.0
 21
297.0
 12
0.0
 22
0.0
 32
0.0
 14
1e+20
 24
1e+20
 34
1e+20
 15
-1e+20
 25
-1e+20
 35
-1e+20
146
0.0
 13
0.0
 23
0.0
 33
0.0
 16
1.0
 26
0.0
 36
0.0
 17
0.0
 27
1.0
 37
0.0
 76
1
330
1B
  0
MATERIAL
  5
1F
102
{ACAD_REACTORS
330
E
102
}
330
E
100
AcDbMaterial
  1
ByBlock
  2

 70
0
 40
1.0
 71
1
 41
1.0
 91
-1023410177
 42
1.0
 72
1
  3

 73
1
 74
1
 75
1
 44
0.5
 73
0
 45
1.0
 46
1.0
 77
1
  4

 78
1
 79
1
170
1
 48
1.0
171
1
  6

172
1
173
1
174
1
140
1.0
141
1.0
175
1
  7

176
1
177
1
178
1
143
1.0
179
1
  8

270
1
271
1
272
1
145
1.0
146
1.0
273
1
  9

274
1
275
1
276
1
 42
1.0
 72
1
  3

 73
1
 74
1
 75
1
 94
63
  0
MATERIAL
  5
20
102
{ACAD_REACTORS
330
E
102
}
330
E
100
AcDbMaterial
  1
ByLayer
  2

 70
0
 40
1.0
 71
1
 41
1.0
 91
-1023410177
 42
1.0
 72
1
  3

 73
1
 74
1
 75
1
 44
0.5
 73
0
 45
1.0
 46
1.0
 77
1
  4

 78
1
 79
1
170
1
 48
1.0
171
1
  6

172
1
173
1
174
1
140
1.0
141
1.0
175
1
  7

176
1
177
1
178
1
143
1.0
179
1
  8

270
1
271
1
272
1
145
1.0
146
1.0
273
1
  9

274
1
275
1
276
1
 42
1.0
 72
1
  3

 73
1
 74
1
 75
1
 94
63
  0
MATERIAL
  5
21
102
{ACAD_REACTORS
330
E
102
}
330
E
100
AcDbMaterial
  1
Global
  2

 70
0
 40
1.0
 71
1
 41
1.0
 91
-1023410177
 42
1.0
 72
1
  3

 73
1
 74
1
 75
1
 44
0.5
 73
0
 45
1.0
 46
1.0
 77
1
  4

 78
1
 79
1
170
1
 48
1.0
171
1
  6

172
1
173
1
174
1
140
1.0
141
1.0
175
1
  7

176
1
177
1
178
1
143
1.0
179
1
  8

270
1
271
1
272
1
145
1.0
146
1.0
273
1
  9

274
1
275
1
276
1
 42
1.0
 72
1
  3

 73
1
 74
1
 75
1
 94
63
  0
MLINESTYLE
  5
22
102
{ACAD_REACTORS
330
10
102
}
330
10
100
AcDbMlineStyle
  2
Standard
 70
0
  3

 62
256
 51
90.0
 52
90.0
 71
2
 49
0.5
 62
256
  6
BYLAYER
 49
-0.5
 62
256
  6
BYLAYER
  0
MLEADERSTYLE
  5
2C
102
{ACAD_REACTORS
330
F
102
}
330
F
100
AcDbMLeaderStyle
179
2
170
2
171
1
172
0
 90
2
 40
0.0
 41
0.0
173
1
 91
-1056964608
 92
-2
290
1
 42
2.0
291
1
 43
8.0
  3
Standard
 44
4.0
300

342
29
174
1
175
1
176
0
178
1
 93
-1056964608
 45
4.0
292
0
297
0
 46
4.0
 94
-1056964608
 47
1.0
 49
1.0
140
1.0
294
1
141
0.0
177
0
142
1.0
295
0
296
0
143
3.75
271
0
272
9
273
9
  0
DICTIONARY
  5
2D
330
A
100
AcDbDictionary
280
1
281
1
  3
CREATED_BY_EZDXF
350
2E
  3
WRITTEN_BY_EZDXF
350
5E
  0
DICTIONARYVAR
  5
2E
330
2D
100
DictionaryVariables
280
0
  1
1.4.4 @ 2026-08-03T11:44:36.026932+00:00
  0
DICTIONARYVAR
  5
5E
330
2D
100
DictionaryVariables
280
0
  1
1.4.4 @ 2026-08-03T11:44:36.036710+00:00
  0
ENDSEC
  0
EOF
