  0
SECTION
  2
HEADER
  9
$ACADVER
  1
AC1027
  9
$ACADMAINTVER
 70
105
  9
$DWGCODEPAGE
  3
ANSI_1252
  9
$LASTSAVEDBY
  1
ezdxf
  9
$REQUIREDVERSIONS
160
0
  9
$INSBASE
 10
0.0
 20
0.0
 30
0.0
  9
$EXTMIN
 10
1e+20
 20
1e+20
 30
1e+20
  9
$EXTMAX
 10
-1e+20
 20
-1e+20
 30
-1e+20
  9
$LIMMIN
 10
0.0
 20
0.0
  9
$LIMMAX
 10
420.0
 20
297.0
  9
$ORTHOMODE
 70
0
  9
$REGENMODE
 70
1
  9
$FILLMODE
 70
1
  9
$QTEXTMODE
 70
0
  9
$MIRRTEXT
 70
1
  9
$LTSCALE
 40
1.0
  9
$ATTMODE
 70
1
  9
$TEXTSIZE
 40
2.5
  9
$TRACEWID
 40
1.0
  9
$TEXTSTYLE
  7
Standard
  9
$CLAYER
  8
0
  9
$CELTYPE
  6
ByLayer
  9
$CECOLOR
 62
256
  9
$CELTSCALE
 40
1.0
  9
$DISPSILH
 70
0
  9
$DIMSCALE
 40
1.0
  9
$DIMASZ
 40
2.5
  9
$DIMEXO
 40
0.625
  9
$DIMDLI
 40
3.75
  9
$DIMRND
 40
0.0
  9
$DIMDLE
 40
0.0
  9
$DIMEXE
 40
1.25
  9
$DIMTP
 40
0.0
  9
$DIMTM
 40
0.0
  9
$DIMTXT
 40
2.5
  9
$DIMCEN
 40
2.5
  9
$DIMTSZ
 40
0.0
  9
$DIMTOL
 70
0
  9
$DIMLIM
 70
0
  9
$DIMTIH
 70
0
  9
$DIMTOH
 70
0
  9
$DIMSE1
 70
0
  9
$DIMSE2
 70
0
  9
$DIMTAD
 70
1
  9
$DIMZIN
 70
8
  9
$DIMBLK
  1

  9
$DIMASO
 70
1
  9
$DIMSHO
 70
1
  9
$DIMPOST
  1

  9
$DIMAPOST
  1

  9
$DIMALT
 70
0
  9
$DIMALTD
 70
3
  9
$DIMALTF
 40
0.03937007874
  9
$DIMLFAC
 40
1.0
  9
$DIMTOFL
 70
1
  9
$DIMTVP
 40
0.0
  9
$DIMTIX
 70
0
  9
$DIMSOXD
 70
0
  9
$DIMSAH
 70
0
  9
$DIMBLK1
  1

  9
$DIMBLK2
  1

  9
$DIMSTYLE
  2
ISO-25
  9
$DIMCLRD
 70
0
  9
$DIMCLRE
 70
0
  9
$DIMCLRT
 70
0
  9
$DIMTFAC
 40
1.0
  9
$DIMGAP
 40
0.625
  9
$DIMJUST
 70
0
  9
$DIMSD1
 70
0
  9
$DIMSD2
 70
0
  9
$DIMTOLJ
 70
0
  9
$DIMTZIN
 70
8
  9
$DIMALTZ
 70
0
  9
$DIMALTTZ
 70
0
  9
$DIMUPT
 70
0
  9
$DIMDEC
 70
2
  9
$DIMTDEC
 70
2
  9
$DIMALTU
 70
2
  9
$DIMALTTD
 70
3
  9
$DIMTXSTY
  7
Standard
  9
$DIMAUNIT
 70
0
  9
$DIMADEC
 70
0
  9
$DIMALTRND
 40
0.0
  9
$DIMAZIN
 70
0
  9
$DIMDSEP
 70
44
  9
$DIMATFIT
 70
3
  9
$DIMFRAC
 70
0
  9
$DIMLDRBLK
  1

  9
$DIMLUNIT
 70
2
  9
$DIMLWD
 70
-2
  9
$DIMLWE
 70
-2
  9
$DIMTMOVE
 70
0
  9
$DIMFXL
 40
1.0
  9
$DIMFXLON
 70
0
  9
$DIMJOGANG
 40
0.785398163397
  9
$DIMTFILL
 70
0
  9
$DIMTFILLCLR
 70
0
  9
$DIMARCSYM
 70
0
  9
$DIMLTYPE
  6

  9
$DIMLTEX1
  6

  9
$DIMLTEX2
  6

  9
$DIMTXTDIRECTION
 70
0
  9
$LUNITS
 70
2
  9
$LUPREC
 70
4
  9
$SKETCHINC
 40
1.0
  9
$FILLETRAD
 40
10.0
  9
$AUNITS
 70
0
  9
$AUPREC
 70
2
  9
$MENU
  1
.
  9
$ELEVATION
 40
0.0
  9
$PELEVATION
 40
0.0
  9
$THICKNESS
 40
0.0
  9
$LIMCHECK
 70
0
  9
$CHAMFERA
 40
0.0
  9
$CHAMFERB
 40
0.0
  9
$CHAMFERC
 40
0.0
  9
$CHAMFERD
 40
0.0
  9
$SKPOLY
 70
0
  9
$TDCREATE
 40
2461256.6142939813
  9
$TDUCREATE
 40
2458532.153996898
  9
$TDUPDATE
 40
2461256.6142939813
  9
$TDUUPDATE
 40
2458532.1544311
  9
$TDINDWG
 40
0.0
  9
$TDUSRTIMER
 40
0.0
  9
$USRTIMER
 70
1
  9
$ANGBASE
 50
0.0
  9
$ANGDIR
 70
0
  9
$PDMODE
 70
0
  9
$PDSIZE
 40
0.0
  9
$PLINEWID
 40
0.0
  9
$SPLFRAME
 70
0
  9
$SPLINETYPE
 70
6
  9
$SPLINESEGS
 70
8
  9
$HANDSEED
  5
4F
  9
$SURFTAB1
 70
6
  9
$SURFTAB2
 70
6
  9
$SURFTYPE
 70
6
  9
$SURFU
 70
6
  9
$SURFV
 70
6
  9
$UCSBASE
  2

  9
$UCSNAME
  2

  9
$UCSORG
 10
0.0
 20
0.0
 30
0.0
  9
$UCSXDIR
 10
1.0
 20
0.0
 30
0.0
  9
$UCSYDIR
 10
0.0
 20
1.0
 30
0.0
  9
$UCSORTHOREF
  2

  9
$UCSORTHOVIEW
 70
0
  9
$UCSORGTOP
 10
0.0
 20
0.0
 30
0.0
  9
$UCSORGBOTTOM
 10
0.0
 20
0.0
 30
0.0
  9
$UCSORGLEFT
 10
0.0
 20
0.0
 30
0.0
  9
$UCSORGRIGHT
 10
0.0
 20
0.0
 30
0.0
  9
$UCSORGFRONT
 10
0.0
 20
0.0
 30
0.0
  9
$UCSORGBACK
 10
0.0
 20
0.0
 30
0.0
  9
$PUCSBASE
  2

  9
$PUCSNAME
  2

  9
$PUCSORG
 10
0.0
 20
0.0
 30
0.0
  9
$PUCSXDIR
 10
1.0
 20
0.0
 30
0.0
  9
$PUCSYDIR
 10
0.0
 20
1.0
 30
0.0
  9
$PUCSORTHOREF
  2

  9
$PUCSORTHOVIEW
 70
0
  9
$PUCSORGTOP
 10
0.0
 20
0.0
 30
0.0
  9
$PUCSORGBOTTOM
 10
0.0
 20
0.0
 30
0.0
  9
$PUCSORGLEFT
 10
0.0
 20
0.0
 30
0.0
  9
$PUCSORGRIGHT
 10
0.0
 20
0.0
 30
0.0
  9
$PUCSORGFRONT
 10
0.0
 20
0.0
 30
0.0
  9
$PUCSORGBACK
 10
0.0
 20
0.0
 30
0.0
  9
$USERI1
 70
0
  9
$USERI2
 70
0
  9
$USERI3
 70
0
  9
$USERI4
 70
0
  9
$USERI5
 70
0
  9
$USERR1
 40
0.0
  9
$USERR2
 40
0.0
  9
$USERR3
 40
0.0
  9
$USERR4
 40
0.0
  9
$USERR5
 40
0.0
  9
$WORLDVIEW
 70
1
  9
$SHADEDGE
 70
3
  9
$SHADEDIF
 70
70
  9
$TILEMODE
 70
1
  9
$MAXACTVP
 70
64
  9
$PINSBASE
 10
0.0
 20
0.0
 30
0.0
  9
$PLIMCHECK
 70
0
  9
$PEXTMIN
 10
1e+20
 20
1e+20
 30
1e+20
  9
$PEXTMAX
 10
-1e+20
 20
-1e+20
 30
-1e+20
  9
$PLIMMIN
 10
0.0
 20
0.0
  9
$PLIMMAX
 10
420.0
 20
297.0
  9
$UNITMODE
 70
0
  9
$VISRETAIN
 70
1
  9
$PLINEGEN
 70
0
  9
$PSLTSCALE
 70
1
  9
$TREEDEPTH
 70
3020
  9
$CMLSTYLE
  2
Standard
  9
$CMLJUST
 70
0
  9
$CMLSCALE
 40
20.0
  9
$PROXYGRAPHICS
 70
1
  9
$MEASUREMENT
 70
1
  9
$CELWEIGHT
370
-1
  9
$ENDCAPS
280
0
  9
$JOINSTYLE
280
0
  9
$LWDISPLAY
290
0
  9
$INSUNITS
 70
4
  9
$HYPERLINKBASE
  1

  9
$STYLESHEET
  1

  9
$XEDIT
290
1
  9
$CEPSNTYPE
380
0
  9
$PSTYLEMODE
290
1
  9
$FINGERPRINTGUID
  2
{BDEC021D-80AE-4657-A969-5943BAC5AE36}
  9
$VERSIONGUID
  2
{E140A6E1-F6EE-4750-AFA6-45EBDBB5042A}
  9
$EXTNAMES
290
1
  9
$PSVPSCALE
 40
0.0
  9
$OLESTARTUP
290
0
  9
$SORTENTS
280
127
  9
$INDEXCTL
280
0
  9
$HIDETEXT
280
1
  9
$XCLIPFRAME
280
1
  9
$HALOGAP
280
0
  9
$OBSCOLOR
 70
257
  9
$OBSLTYPE
280
0
  9
$INTERSECTIONDISPLAY
280
0
  9
$INTERSECTIONCOLOR
 70
257
  9
$DIMASSOC
280
2
  9
$PROJECTNAME
  1

  9
$CAMERADISPLAY
290
0
  9
$LENSLENGTH
 40
50.0
  9
$CAMERAHEIGHT
 40
0.0
  9
$STEPSPERSEC
 40
24.0
  9
$STEPSIZE
 40
100.0
  9
$3DDWFPREC
 40
2.0
  9
$PSOLWIDTH
 40
0.005
  9
$PSOLHEIGHT
 40
0.08
  9
$LOFTANG1
 40
1.570796326795
  9
$LOFTANG2
 40
1.570796326795
  9
$LOFTMAG1
 40
0.0
  9
$LOFTMAG2
 40
0.0
  9
$LOFTPARAM
 70
7
  9
$LOFTNORMALS
280
1
  9
$LATITUDE
 40
37.795
  9
$LONGITUDE
 40
-122.394
  9
$NORTHDIRECTION
 40
0.0
  9
$TIMEZONE
 70
-8000
  9
$LIGHTGLYPHDISPLAY
280
1
  9
$TILEMODELIGHTSYNCH
280
1
  9
$CMATERIAL
347
20
  9
$SOLIDHIST
280
0
  9
$SHOWHIST
280
1
  9
$DWFFRAME
280
2
  9
$DGNFRAME
280
2
  9
$REALWORLDSCALE
290
1
  9
$INTERFERECOLOR
 62
256
  9
$CSHADOW
280
0
  9
$SHADOWPLANELOCATION
 40
0.0
  0
ENDSEC
  0
SECTION
  2
CLASSES
  0
CLASS
  1
ACDBDICTIONARYWDFLT
  2
AcDbDictionaryWithDefault
  3
ObjectDBX Classes
 90
0
 91
0
280
0
281
0
  0
CLASS
  1
SUN
  2
AcDbSun
  3
SCENEOE
 90
1153
 91
0
280
0
281
0
  0
CLASS
  1
VISUALSTYLE
  2
AcDbVisualStyle
  3
ObjectDBX Classes
 90
4095
 91
0
280
0
281
0
  0
CLASS
  1
MATERIAL
  2
AcDbMaterial
  3
ObjectDBX Classes
 90
1153
 91
0
280
0
281
0
  0
CLASS
  1
SCALE
  2
AcDbScale
  3
ObjectDBX Classes
 90
1153
 91
0
280
0
281
0
  0
CLASS
  1
TABLESTYLE
  2
AcDbTableStyle
  3
ObjectDBX Classes
 90
4095
 91
0
280
0
281
0
  0
CLASS
  1
MLEADERSTYLE
  2
AcDbMLeaderStyle
  3
ACDB_MLEADERSTYLE_CLASS
 90
4095
 91
0
280
0
281
0
  0
CLASS
  1
DICTIONARYVAR
  2
AcDbDictionaryVar
  3
ObjectDBX Classes
 90
0
 91
0
280
0
281
0
  0
CLASS
  1
CELLSTYLEMAP
  2
AcDbCellStyleMap
  3
ObjectDBX Classes
 90
1152
 91
0
280
0
281
0
  0
CLASS
  1
MENTALRAYRENDERSETTINGS
  2
AcDbMentalRayRenderSettings
  3
SCENEOE
 90
1024
 91
0
280
0
281
0
  0
CLASS
  1
ACDBDETAILVIEWSTYLE
  2
AcDbDetailViewStyle
  3
ObjectDBX Classes
 90
1025
 91
0
280
0
281
0
  0
CLASS
  1
ACDBSECTIONVIEWSTYLE
  2
AcDbSectionViewStyle
  3
ObjectDBX Classes
 90
1025
 91
0
280
0
281
0
  0
CLASS
  1
RASTERVARIABLES
  2
AcDbRasterVariables
  3
ISM
 90
0
 91
0
280
0
281
0
  0
CLASS
  1
LAYOUT
  2
AcDbLayout
  3
ObjectDBX Classes
 90
0
 91
0
280
0
281
0
  0
CLASS
  1
ACDBPLACEHOLDER
  2
AcDbPlaceHolder
  3
ObjectDBX Classes
 90
0
 91
0
280
0
281
0
  0
ENDSEC
  0
SECTION
  2
TABLES
  0
TABLE
  2
VPORT
  5
8
330
0
100
AcDbSymbolTable
 70
1
  0
VPORT
  5
23
330
8
100
AcDbSymbolTableRecord
100
AcDbViewportTableRecord
  2
*Active
 70
0
 10
0.0
 20
0.0
 11
1.0
 21
1.0
 12
0.0
 22
0.0
 13
0.0
 23
0.0
 14
0.5
 24
0.5
 15
0.5
 25
0.5
 16
0.0
 26
0.0
 36
1.0
 17
0.0
 27
0.0
 37
0.0
 40
1000.0
 41
1.34
 42
50.0
 43
0.0
 44
0.0
 50
0.0
 51
0.0
 71
0
 72
1000
 73
1
 74
3
 75
0
 76
0
 77
0
 78
0
281
0
 65
0
146
0.0
  0
ENDTAB
  0
TABLE
  2
LTYPE
  5
2
330
0
100
AcDbSymbolTable
 70
3
  0
LTYPE
  5
24
330
2
100
AcDbSymbolTableRecord
100
AcDbLinetypeTableRecord
  2
ByBlock
 70
0
  3

 72
65
 73
0
 40
0.0
  0
LTYPE
  5
25
330
2
100
AcDbSymbolTableRecord
100
AcDbLinetypeTableRecord
  2
ByLayer
 70
0
  3

 72
65
 73
0
 40
0.0
  0
LTYPE
  5
26
330
2
100
AcDbSymbolTableRecord
100
AcDbLinetypeTableRecord
  2
Continuous
 70
0
  3

 72
65
 73
0
 40
0.0
  0
ENDTAB
  0
TABLE
  2
LAYER
  5
1
330
0
100
AcDbSymbolTable
 70
7
  0
LAYER
  5
27
330
1
100
AcDbSymbolTableRecord
100
AcDbLayerTableRecord
  2
0
 70
0
 62
7
  6
Continuous
370
-3
390
13
347
21
  0
LAYER
  5
28
330
1
100
AcDbSymbolTableRecord
100
AcDbLayerTableRecord
  2
Defpoints
 70
0
 62
7
  6
Continuous
290
0
370
-3
390
13
347
21
  0
LAYER
  5
2F
330
1
100
AcDbSymbolTableRecord
100
AcDbLayerTableRecord
  2
ENG_L
 70
0
 62
4
  6
Continuous
370
-3
390
13
347
21
  0
LAYER
  5
30
330
1
100
AcDbSymbolTableRecord
100
AcDbLayerTableRecord
  2
ENG_D
 70
0
 62
3
  6
Continuous
370
-3
390
13
347
21
  0
LAYER
  5
31
330
1
100
AcDbSymbolTableRecord
100
AcDbLayerTableRecord
  2
ENG_K
 70
0
 62
2
  6
Continuous
370
-3
390
13
347
21
  0
LAYER
  5
32
330
1
100
AcDbSymbolTableRecord
100
AcDbLayerTableRecord
  2
CUT_OUTLINE
 70
0
 62
5
  6
Continuous
370
-3
390
13
347
21
  0
LAYER
  5
33
330
1
100
AcDbSymbolTableRecord
100
AcDbLayerTableRecord
  2
CUT_SLOT
 70
0
 62
1
  6
Continuous
370
-3
390
13
347
21
  0
ENDTAB
  0
TABLE
  2
STYLE
  5
5
330
0
100
AcDbSymbolTable
 70
1
  0
STYLE
  5
29
330
5
100
AcDbSymbolTableRecord
100
AcDbTextStyleTableRecord
  2
Standard
 70
0
 40
0.0
 41
1.0
 50
0.0
 71
0
 42
2.5
  3
txt
  4

  0
ENDTAB
  0
TABLE
  2
VIEW
  5
7
330
0
100
AcDbSymbolTable
 70
0
  0
ENDTAB
  0
TABLE
  2
UCS
  5
6
330
0
100
AcDbSymbolTable
 70
0
  0
ENDTAB
  0
TABLE
  2
APPID
  5
3
330
0
100
AcDbSymbolTable
 70
3
  0
APPID
  5
2A
330
3
100
AcDbSymbolTableRecord
100
AcDbRegAppTableRecord
  2
ACAD
 70
0
  0
APPID
  5
4C
330
3
100
AcDbSymbolTableRecord
100
AcDbRegAppTableRecord
  2
HATCHBACKGROUNDCOLOR
 70
0
  0
APPID
  5
4D
330
3
100
AcDbSymbolTableRecord
100
AcDbRegAppTableRecord
  2
EZDXF
 70
0
  0
ENDTAB
  0
TABLE
  2
DIMSTYLE
  5
4
330
0
100
AcDbSymbolTable
 70
1
100
AcDbDimStyleTable
  0
DIMSTYLE
105
2B
330
4
100
AcDbSymbolTableRecord
100
AcDbDimStyleTableRecord
  2
Standard
 70
0
 40
1.0
 41
2.5
 42
0.625
 43
3.75
 44
1.25
 45
0.0
 46
0.0
 47
0.0
 48
0.0
 49
2.5
140
2.5
141
2.5
142
0.0
143
0.03937007874
144
1.0
145
0.0
146
1.0
147
0.625
148
0.0
 69
0
 70
0
 71
0
 72
0
 73
0
 74
0
 75
0
 76
0
 77
1
 78
8
 79
3
170
0
171
3
172
1
173
0
174
0
175
0
176
0
177
0
178
0
179
2
271
2
272
2
273
2
274
3
275
0
276
0
277
2
278
44
279
0
280
0
281
0
282
0
283
0
284
8
285
0
286
0
288
0
289
3
290
0
371
-2
372
-2
  0
ENDTAB
  0
TABLE
  2
BLOCK_RECORD
  5
9
330
0
100
AcDbSymbolTable
 70
2
  0
BLOCK_RECORD
  5
17
330
9
100
AcDbSymbolTableRecord
100
AcDbBlockTableRecord
  2
*Model_Space
340
1A
 70
0
280
1
281
0
  0
BLOCK_RECORD
  5
1B
330
9
100
AcDbSymbolTableRecord
100
AcDbBlockTableRecord
  2
*Paper_Space
340
1E
 70
0
280
1
281
0
  0
ENDTAB
  0
ENDSEC
  0
SECTION
  2
BLOCKS
  0
BLOCK
  5
18
330
17
100
AcDbEntity
  8
0
100
AcDbBlockBegin
  2
*Model_Space
 70
0
 10
0.0
 20
0.0
 30
0.0
  3
*Model_Space
  1

  0
ENDBLK
  5
19
330
17
100
AcDbEntity
  8
0
100
AcDbBlockEnd
  0
BLOCK
  5
1C
330
1B
100
AcDbEntity
  8
0
100
AcDbBlockBegin
  2
*Paper_Space
 70
0
 10
0.0
 20
0.0
 30
0.0
  3
*Paper_Space
  1

  0
ENDBLK
  5
1D
330
1B
100
AcDbEntity
  8
0
100
AcDbBlockEnd
  0
ENDSEC
  0
SECTION
  2
ENTITIES
  0
LWPOLYLINE
  5
34
330
17
100
AcDbEntity
  8
ENG_L
100
AcDbPolyline
 90
75
 70
1
 10
170.884138786749
 20
192.804449003532
 10
167.34860488081623
 20
197.28279195104682
 10
162.63455967290594
 20
197.28279195104682
 10
162.1631551521149
 20
197.7541964718379
 10
156.74200316301804
 20
197.98989873223337
 10
154.38498055906288
 20
205.53237106488987
 10
153.91357603827186
 20
206.00377558568096
 10
153.91357603827186
 20
206.946584627263
 10
153.44217151748083
 20
207.41798914805398
 10
153.91357603827186
 20
210.24641627280016
 10
155.32778960064493
 20
213.07484339754646
 10
155.32778960064493
 20
214.48905695991948
 10
154.38498055906288
 20
216.8460795638747
 10
154.38498055906288
 20
218.26029312624772
 10
152.9707669966898
 20
220.61731573020293
 10
152.49936247589878
 20
222.97433833415803
 10
152.02795795510772
 20
223.445742854949
 10
152.02795795510772
 20
225.33136093811314
 10
150.61374439273462
 20
228.63119258365037
 10
150.61374439273462
 20
229.57400162523257
 10
149.19953083036154
 20
231.93102422918764
 10
148.72812630957048
 20
234.28804683314274
 10
147.3139127471974
 20
237.11647395788904
 10
148.02101952838396
 20
238.2949852598666
 10
148.963828569966
 20
238.76638978065756
 10
153.67787377787633
 20
238.76638978065756
 10
156.97770542341354
 20
235.9379626559115
 10
157.92051446499562
 20
235.4665581351203
 10
158.62762124618214
 20
235.7022603955159
 10
160.04183480855528
 20
242.7733282073814
 10
160.5132393293463
 20
243.24473272817238
 10
160.5132393293463
 20
244.65894629054552
 10
160.98464385013733
 20
245.13035081133648
 10
160.98464385013733
 20
246.54456437370965
 10
161.45604837092836
 20
247.01596889450062
 10
161.45604837092836
 20
248.43018245687375
 10
161.92745289171938
 20
248.90158697766475
 10
161.92745289171938
 20
250.31580054003788
 10
162.3988574125104
 20
250.78720506082885
 10
162.3988574125104
 20
252.201418623202
 10
163.577368714488
 20
254.32273896676173
 10
170.17703200556244
 20
254.32273896676173
 10
170.64843652635346
 20
253.85133444597074
 10
172.76975686991312
 20
253.61563218557515
 10
173.71256591149518
 20
252.201418623202
 10
174.1839704322862
 20
249.37299149845592
 10
175.5981839946593
 20
247.01596889450062
 10
175.5981839946593
 20
245.60175533212768
 10
176.5409930362414
 20
244.18754176975455
 10
176.5409930362414
 20
241.83051916579922
 10
180.31222920256963
 20
236.17366491630688
 10
180.78363372336065
 20
233.81664231235177
 10
181.7264427649427
 20
232.87383327076984
 10
182.19784728573373
 20
229.57400162523257
 10
182.66925180652476
 20
229.10259710444137
 10
182.43354954612926
 20
228.39549032325502
 10
174.41967269268173
 20
226.0384677192997
 10
173.71256591149518
 20
225.33136093811314
 10
173.71256591149518
 20
224.38855189653117
 10
172.76975686991312
 20
222.97433833415803
 10
170.884138786749
 20
221.0887202509939
 10
170.884138786749
 20
212.1320343559643
 10
170.41273426595797
 20
211.6606298351733
 10
170.884138786749
 20
210.71782079359124
 10
173.00545913030862
 20
208.59650045003164
 10
173.47686365109965
 20
209.0679049708226
 10
181.4907405045472
 20
209.0679049708226
 10
182.66925180652476
 20
206.00377558568096
 10
180.78363372336065
 20
203.64675298172574
 10
180.78363372336065
 20
200.3469213361886
 10
179.8408246817786
 20
197.98989873223337
 10
180.31222920256963
 20
194.6900670866961
 10
179.36942016098754
 20
193.74725804511405
 10
179.8408246817786
 20
192.804449003532
 10
170.884138786749
 20
192.804449003532
  0
LWPOLYLINE
  5
35
330
17
100
AcDbEntity
  8
ENG_L
100
AcDbPolyline
 90
22
 70
1
 10
152.02795795510772
 20
166.4057958392342
 10
152.02795795510772
 20
167.82000940160736
 10
151.55655343431667
 20
168.29141392239833
 10
151.55655343431667
 20
172.06265008872657
 10
151.08514891352564
 20
172.53405460951765
 10
151.08514891352564
 20
176.3052907758459
 10
150.61374439273462
 20
176.77669529663697
 10
150.61374439273462
 20
180.07652694217413
 10
153.67787377787633
 20
184.08346536889798
 10
156.97770542341354
 20
182.6692518065248
 10
157.92051446499562
 20
182.6692518065248
 10
159.3347280273687
 20
181.72644276494276
 10
164.52017775607007
 20
180.31222920256963
 10
166.6414980996297
 20
179.13371790059207
 10
166.6414980996297
 20
175.83388625505492
 10
167.11290262042073
 20
175.36248173426384
 10
167.11290262042073
 20
174.41967269268176
 10
166.40579583923417
 20
173.7125659114952
 10
155.56349186104046
 20
168.05571166200284
 10
154.6206828194584
 20
167.11290262042078
 10
152.73506473629428
 20
166.17009357883873
 10
152.02795795510772
 20
166.4057958392342
  0
LWPOLYLINE
  5
36
330
17
100
AcDbEntity
  8
ENG_L
100
AcDbPolyline
 90
8
 70
1
 10
135.5287997274216
 20
135.29309746702612
 10
133.64318164425748
 20
137.65012007098133
 10
133.878883904653
 20
138.35722685216777
 10
136.23590650860814
 20
138.35722685216777
 10
136.7073110293992
 20
138.82863137295885
 10
140.24284493533193
 20
138.59292911256338
 10
136.23590650860814
 20
135.05739520663062
 10
135.5287997274216
 20
135.29309746702612
  0
LWPOLYLINE
  5
37
330
17
100
AcDbEntity
  8
ENG_D
100
AcDbPolyline
 90
25
 70
1
 10
195.63287612827816
 20
83.2028979196171
 10
193.51155578471852
 20
85.32421826317682
 10
194.45436482630058
 20
87.68124086713192
 10
194.9257693470916
 20
90.50966799187809
 10
195.39717386788263
 20
90.98107251266919
 10
195.39717386788263
 20
93.80949963741536
 10
196.81138743025573
 20
97.58073580374361
 10
198.46130325302434
 20
99.23065162651224
 10
200.34692133618847
 20
99.23065162651224
 10
200.8183258569795
 20
98.75924710572114
 10
203.17534846093466
 20
98.75924710572114
 10
203.64675298172568
 20
98.28784258493017
 10
206.00377558568084
 20
98.28784258493017
 10
206.4751801064719
 20
97.81643806413909
 10
208.83220271042705
 20
97.81643806413909
 10
209.30360723121808
 20
97.34503354334811
 10
211.66062983517324
 20
97.34503354334811
 10
212.36773661635976
 20
96.63792676216154
 10
210.9535230539867
 20
93.80949963741536
 10
210.01071401240463
 20
90.03826347108712
 10
209.06790497082255
 20
88.62404990871397
 10
208.59650045003153
 20
86.26702730475877
 10
207.65369140844948
 20
84.85281374238573
 10
207.18228688765845
 20
82.96719565922162
 10
195.63287612827816
 20
83.2028979196171
  0
LWPOLYLINE
  5
38
330
17
100
AcDbEntity
  8
ENG_D
100
AcDbPolyline
 90
67
 70
1
 10
140.47854719572743
 20
152.4993624758988
 10
135.7645019878171
 20
156.27059864222704
 10
134.82169294623506
 20
156.27059864222704
 10
134.35028842544403
 20
156.74200316301813
 10
131.05045677990682
 20
156.74200316301813
 10
129.63624321753372
 20
158.62762124618223
 10
128.9291364363472
 20
158.86332350657773
 10
130.34334999872027
 20
159.80613254815978
 10
130.5790522591158
 20
160.98464385013745
 10
131.99326582148888
 20
161.45604837092841
 10
133.17177712346646
 20
162.63455967290597
 10
133.64318164425748
 20
165.93439131844323
 10
134.58599068583953
 20
167.82000940160736
 10
136.00020424821264
 20
168.76281844318942
 10
136.00020424821264
 20
172.53405460951765
 10
135.5287997274216
 20
173.00545913030874
 10
135.5287997274216
 20
182.43354954612934
 10
143.54267658086914
 20
193.27585352432308
 10
143.54267658086914
 20
194.6900670866961
 10
134.58599068583953
 20
205.06096654409887
 10
134.58599068583953
 20
221.56012477178487
 10
137.17871555019025
 20
222.73863607376242
 10
143.77837884126464
 20
221.79582703218048
 10
144.24978336205572
 20
221.3244225113895
 10
146.13540144521983
 20
221.3244225113895
 10
146.60680596601085
 20
220.85301799059854
 10
150.3780421323391
 20
220.38161346980735
 10
150.84944665313014
 20
219.91020894901635
 10
152.26366021550325
 20
219.91020894901635
 10
153.91357603827186
 20
219.2031021678298
 10
154.38498055906288
 20
216.8460795638747
 10
154.8563850798539
 20
216.3746750430836
 10
154.8563850798539
 20
214.96046148071056
 10
155.32778960064493
 20
214.48905695991948
 10
155.32778960064493
 20
213.07484339754646
 10
153.44217151748083
 20
208.83220271042714
 10
153.44217151748083
 20
207.41798914805398
 10
156.74200316301804
 20
198.46130325302448
 10
156.27059864222701
 20
197.04708969065132
 10
152.49936247589878
 20
193.27585352432308
 10
153.44217151748083
 20
183.84776310850248
 10
150.61374439273462
 20
180.07652694217413
 10
150.61374439273462
 20
176.77669529663697
 10
151.08514891352564
 20
176.3052907758459
 10
151.08514891352564
 20
172.53405460951765
 10
151.55655343431667
 20
172.06265008872657
 10
151.55655343431667
 20
168.29141392239833
 10
152.02795795510772
 20
167.82000940160736
 10
152.02795795510772
 20
165.93439131844323
 10
146.60680596601085
 20
165.69868905804762
 10
144.72118788284675
 20
164.75588001646568
 10
136.4716087690037
 20
157.44910994420457
 10
137.65012007098127
 20
157.2134076838091
 10
138.1215245917723
 20
157.68481220460018
 10
141.4213562373095
 20
157.68481220460018
 10
141.89276075810054
 20
158.15621672539115
 10
145.19259240363778
 20
158.15621672539115
 10
145.6639969244288
 20
158.62762124618223
 10
148.963828569966
 20
158.62762124618223
 10
149.43523309075704
 20
159.0990257669732
 10
152.26366021550325
 20
159.0990257669732
 10
152.73506473629428
 20
159.5704302877643
 10
153.91357603827186
 20
159.3347280273687
 10
151.7922556947122
 20
155.79919412143605
 10
145.19259240363778
 20
152.4993624758988
 10
143.3069743204736
 20
151.08514891352564
 10
140.47854719572743
 20
152.4993624758988
  0
LWPOLYLINE
  5
39
330
17
100
AcDbEntity
  8
ENG_D
100
AcDbPolyline
 90
31
 70
1
 10
110.54436012549692
 20
13.19932658214884
 10
111.01576464628798
 20
13.670731102939925
 10
111.01576464628798
 20
16.499158227686106
 10
111.487169167079
 20
16.970562748477192
 10
111.487169167079
 20
19.327585352432287
 10
111.95857368787003
 20
19.79898987322337
 10
111.95857368787003
 20
22.156012477178464
 10
112.42997820866105
 20
22.62741699796955
 10
112.42997820866105
 20
25.45584412271573
 10
112.9013827294521
 20
25.927248643506708
 10
112.9013827294521
 20
26.870057685088767
 10
115.02270307301174
 20
28.5199735078574
 10
115.96551211459379
 20
28.5199735078574
 10
116.43691663538483
 20
28.991378028648484
 10
118.79393923933999
 20
28.991378028648484
 10
119.26534376013102
 20
29.46278254943946
 10
122.0937708848772
 20
29.46278254943946
 10
122.56517540566823
 20
29.934187070230543
 10
124.9221980096234
 20
29.934187070230543
 10
125.39360253041443
 20
30.40559159102152
 10
126.33641157199649
 20
29.46278254943946
 10
144.72118788284675
 20
29.46278254943946
 10
145.42829466403327
 20
28.755675768253
 10
144.95689014324225
 20
23.098821518760527
 10
144.48548562245122
 20
22.62741699796955
 10
144.48548562245122
 20
18.85618083164131
 10
144.01408110166017
 20
18.384776310850228
 10
144.01408110166017
 20
15.08494466531307
 10
143.54267658086914
 20
14.613540144521986
 10
143.3069743204736
 20
12.963624321753354
 10
110.54436012549692
 20
13.19932658214884
  0
LWPOLYLINE
  5
3A
330
17
100
AcDbEntity
  8
ENG_D
100
AcDbPolyline
 90
29
 70
1
 10
108.18733752154178
 20
132.46467034227993
 10
106.53742169877316
 20
133.1717771234665
 10
105.12320813640007
 20
133.1717771234665
 10
104.65180361560904
 20
133.6431816442576
 10
96.16652224137047
 20
134.11458616504856
 10
95.93081998097496
 20
134.82169294623515
 10
98.99494936611664
 20
139.30003589374996
 10
102.76618553244491
 20
141.18565397691407
 10
105.12320813640007
 20
143.54267658086917
 10
106.53742169877316
 20
143.54267658086917
 10
109.36584882351936
 20
145.42829466403327
 10
111.72287142747452
 20
145.42829466403327
 10
113.13708498984761
 20
143.54267658086917
 10
129.63624321753372
 20
143.54267658086917
 10
130.8147545195113
 20
141.42135623730957
 10
136.00020424821264
 20
134.82169294623515
 10
135.7645019878171
 20
133.6431816442576
 10
131.99326582148888
 20
133.6431816442576
 10
130.10764773832474
 20
132.70037260267543
 10
125.39360253041443
 20
132.70037260267543
 10
124.9221980096234
 20
132.22896808188443
 10
124.45079348883237
 20
132.70037260267543
 10
123.50798444725031
 20
132.22896808188443
 10
122.56517540566823
 20
132.70037260267543
 10
118.32253471854895
 20
132.70037260267543
 10
117.85113019775793
 20
132.22896808188443
 10
113.60848951063863
 20
132.22896808188443
 10
113.13708498984761
 20
132.70037260267543
 10
108.18733752154178
 20
132.46467034227993
  0
LWPOLYLINE
  5
3B
330
17
100
AcDbEntity
  8
ENG_D
100
AcDbPolyline
 90
26
 70
1
 10
103.00188779284042
 20
49.968879203849404
 10
103.94469683442249
 20
51.38309276622244
 10
103.94469683442249
 20
53.26871084938656
 10
102.29478101165387
 20
55.390031192946275
 10
101.35197197007182
 20
54.91862667215519
 10
99.70205614730321
 20
56.09713797413285
 10
100.17346066809424
 20
56.568542494923825
 10
99.93775840769872
 20
56.80424475531931
 10
98.2878425849301
 20
57.0399470157148
 10
98.75924710572113
 20
58.454160578087944
 10
99.93775840769872
 20
59.63267188006549
 10
101.35197197007182
 20
59.63267188006549
 10
101.82337649086284
 20
60.10407640085658
 10
108.89444430272832
 20
60.10407640085658
 10
109.36584882351936
 20
60.575480921647554
 10
111.72287142747452
 20
60.575480921647554
 10
111.95857368787003
 20
60.33977866125206
 10
110.54436012549692
 20
58.92556509887903
 10
109.60155108391487
 20
57.0399470157148
 10
108.6587420423328
 20
56.568542494923825
 10
108.18733752154178
 20
54.6829244117597
 10
106.30171943837765
 20
51.85449728701352
 10
105.59461265719109
 20
51.14739050582695
 10
104.65180361560904
 20
51.14739050582695
 10
103.23759005323595
 20
49.73317694345391
 10
103.00188779284042
 20
49.968879203849404
  0
LWPOLYLINE
  5
3C
330
17
100
AcDbEntity
  8
ENG_D
100
AcDbPolyline
 90
10
 70
1
 10
93.57379737701979
 20
55.625733453341766
 10
94.04520189781083
 20
57.511351536505884
 10
95.69511772057945
 20
59.16126735927452
 10
96.16652224137047
 20
59.16126735927452
 10
96.87362902255701
 20
58.454160578087944
 10
96.87362902255701
 20
56.568542494923825
 10
96.16652224137047
 20
55.86143571373725
 10
94.75230867899737
 20
55.86143571373725
 10
94.28090415820634
 20
55.390031192946275
 10
93.57379737701979
 20
55.625733453341766
  0
LWPOLYLINE
  5
3D
330
17
100
AcDbEntity
  8
ENG_K
100
AcDbPolyline
 90
16
 70
1
 10
129.40054095713822
 20
231.93102422918764
 10
128.9291364363472
 20
232.87383327076984
 10
128.9291364363472
 20
235.2308558747249
 10
127.9863273947651
 20
235.7022603955159
 10
127.9863273947651
 20
238.53068752026218
 10
127.04351835318303
 20
240.4163056034263
 10
127.27922061357854
 20
241.59481690540386
 10
131.28615904030232
 20
241.35911464500825
 10
130.8147545195113
 20
239.94490108263534
 10
131.75756356109335
 20
238.53068752026218
 10
131.75756356109335
 20
237.58787847868
 10
130.34334999872027
 20
236.17366491630688
 10
130.34334999872027
 20
232.87383327076984
 10
130.8147545195113
 20
232.40242874997864
 10
130.8147545195113
 20
231.45961970839667
 10
129.40054095713822
 20
231.93102422918764
  0
LWPOLYLINE
  5
3E
330
17
100
AcDbEntity
  8
ENG_K
100
AcDbPolyline
 90
78
 70
1
 10
93.57379737701979
 20
58.454160578087944
 10
93.33809511662427
 20
60.10407640085658
 10
92.39528607504222
 20
59.63267188006549
 10
91.21677477306463
 20
60.33977866125206
 10
91.68817929385567
 20
63.168205785998246
 10
89.80256121069154
 20
65.52522838995345
 10
90.27396573148256
 20
66.4680374315355
 10
89.80256121069154
 20
67.41084647311757
 10
90.7453702522736
 20
68.35365551469962
 10
90.27396573148256
 20
69.29646455628169
 10
90.7453702522736
 20
70.23927359786374
 10
90.27396573148256
 20
70.71067811865484
 10
90.7453702522736
 20
71.18208263944581
 10
89.80256121069154
 20
73.06770072260993
 10
90.27396573148256
 20
74.010509764192
 10
89.80256121069154
 20
74.48191428498308
 10
90.27396573148256
 20
74.95331880577405
 10
89.33115668990051
 20
76.3675323681472
 10
88.85975216910947
 20
78.25315045131131
 10
87.20983634634086
 20
78.4888527117068
 10
86.73843182554982
 20
79.43166175328886
 10
85.55992052357226
 20
78.72455497210228
 10
83.67430244040811
 20
75.89612784735611
 10
84.14570696119917
 20
75.42472332656513
 10
83.20289791961709
 20
74.48191428498308
 10
83.20289791961709
 20
72.59629620181896
 10
82.49579113843055
 20
71.88918942063238
 10
78.25315045131126
 20
72.36059394142336
 10
77.78174593052023
 20
72.83199846221444
 10
75.42472332656507
 20
72.83199846221444
 10
74.71761654537852
 20
73.53910524340101
 10
74.71761654537852
 20
76.3675323681472
 10
73.77480750379647
 20
77.31034140972926
 10
74.24621202458749
 20
78.25315045131131
 10
73.77480750379647
 20
78.72455497210228
 10
73.77480750379647
 20
80.61017305526642
 10
73.30340298300543
 20
81.0815775760575
 10
73.77480750379647
 20
81.55298209684847
 10
72.8319984622144
 20
82.49579113843053
 10
73.77480750379647
 20
84.38140922159465
 10
72.8319984622144
 20
84.85281374238573
 10
73.30340298300543
 20
85.7956227839678
 10
72.36059394142337
 20
86.73843182554985
 10
73.06770072260991
 20
87.44553860673643
 10
74.481914284983
 20
87.44553860673643
 10
76.83893688893816
 20
86.50272956515437
 10
78.72455497210228
 20
86.50272956515437
 10
86.50272956515431
 20
94.75230867899742
 10
86.97413408594534
 20
96.16652224137046
 10
88.62404990871396
 20
97.81643806413909
 10
89.56685895029602
 20
97.81643806413909
 10
93.8094996374153
 20
100.1734606680943
 10
96.6379267621615
 20
100.64486518888526
 10
97.10933128295252
 20
100.1734606680943
 10
98.52354484532562
 20
100.1734606680943
 10
103.00188779284042
 20
97.58073580374361
 10
102.5304832720494
 20
97.10933128295251
 10
102.5304832720494
 20
94.75230867899742
 10
102.05907875125835
 20
94.28090415820634
 10
102.05907875125835
 20
91.92388155425124
 10
101.58767423046733
 20
91.45247703346016
 10
101.1162697096763
 20
87.20983634634094
 10
98.2878425849301
 20
84.85281374238573
 10
100.64486518888526
 20
79.66736401368435
 10
100.64486518888526
 20
78.72455497210228
 10
101.58767423046733
 20
77.78174593052023
 10
102.5304832720494
 20
74.48191428498308
 10
103.47329231363146
 20
73.06770072260993
 10
98.52354484532562
 20
67.17514421272209
 10
97.58073580374356
 20
67.17514421272209
 10
96.87362902255701
 20
66.4680374315355
 10
97.34503354334804
 20
65.99663291074442
 10
96.40222450176599
 20
63.63961030678933
 10
96.87362902255701
 20
62.69680126520727
 10
95.93081998097496
 20
60.81118318204315
 10
95.93081998097496
 20
59.868374140461086
 10
94.28090415820634
 20
57.74705379690137
 10
93.57379737701979
 20
58.454160578087944
  0
LWPOLYLINE
  5
3F
330
17
100
AcDbEntity
  8
CUT_SLOT
100
AcDbPolyline
 90
5
 70
1
 10
203.14783504059943
 20
141.42135623730957
 10
206.7119366557372
 20
141.42135623730957
 10
206.7119366557372
 20
282.84271247461913
 10
203.14783504059943
 20
282.84271247461913
 10
203.14783504059943
 20
141.42135623730957
  0
LWPOLYLINE
  5
40
330
17
100
AcDbEntity
  8
CUT_SLOT
100
AcDbPolyline
 90
5
 70
1
 10
180.05382427301438
 20
141.42135623730957
 10
183.61792588815214
 20
141.42135623730957
 10
183.61792588815214
 20
282.84271247461913
 10
180.05382427301438
 20
282.84271247461913
 10
180.05382427301438
 20
141.42135623730957
  0
LWPOLYLINE
  5
41
330
17
100
AcDbEntity
  8
CUT_SLOT
100
AcDbPolyline
 90
5
 70
1
 10
156.95981350542942
 20
141.42135623730957
 10
160.52391512056718
 20
141.42135623730957
 10
160.52391512056718
 20
282.84271247461913
 10
156.95981350542942
 20
282.84271247461913
 10
156.95981350542942
 20
141.42135623730957
  0
LWPOLYLINE
  5
42
330
17
100
AcDbEntity
  8
CUT_SLOT
100
AcDbPolyline
 90
5
 70
1
 10
133.86580273784435
 20
141.42135623730957
 10
137.4299043529821
 20
141.42135623730957
 10
137.4299043529821
 20
282.84271247461913
 10
133.86580273784435
 20
282.84271247461913
 10
133.86580273784435
 20
141.42135623730957
  0
LWPOLYLINE
  5
43
330
17
100
AcDbEntity
  8
CUT_SLOT
100
AcDbPolyline
 90
5
 70
1
 10
110.77179197025934
 20
141.42135623730957
 10
114.3358935853971
 20
141.42135623730957
 10
114.3358935853971
 20
282.84271247461913
 10
110.77179197025934
 20
282.84271247461913
 10
110.77179197025934
 20
141.42135623730957
  0
LWPOLYLINE
  5
44
330
17
100
AcDbEntity
  8
CUT_SLOT
100
AcDbPolyline
 90
5
 70
1
 10
87.67778120267428
 20
141.42135623730957
 10
91.24188281781204
 20
141.42135623730957
 10
91.24188281781204
 20
282.84271247461913
 10
87.67778120267428
 20
282.84271247461913
 10
87.67778120267428
 20
141.42135623730957
  0
LWPOLYLINE
  5
45
330
17
100
AcDbEntity
  8
CUT_SLOT
100
AcDbPolyline
 90
5
 70
1
 10
76.13077581888176
 20
141.42135623730957
 10
79.69487743401953
 20
141.42135623730957
 10
79.69487743401953
 20
282.84271247461913
 10
76.13077581888176
 20
282.84271247461913
 10
76.13077581888176
 20
141.42135623730957
  0
LWPOLYLINE
  5
46
330
17
100
AcDbEntity
  8
CUT_SLOT
100
AcDbPolyline
 90
5
 70
1
 10
99.2247865864668
 20
141.42135623730957
 10
102.78888820160456
 20
141.42135623730957
 10
102.78888820160456
 20
282.84271247461913
 10
99.2247865864668
 20
282.84271247461913
 10
99.2247865864668
 20
141.42135623730957
  0
LWPOLYLINE
  5
47
330
17
100
AcDbEntity
  8
CUT_SLOT
100
AcDbPolyline
 90
5
 70
1
 10
122.31879735405182
 20
141.42135623730957
 10
125.88289896918958
 20
141.42135623730957
 10
125.88289896918958
 20
282.84271247461913
 10
122.31879735405182
 20
282.84271247461913
 10
122.31879735405182
 20
141.42135623730957
  0
LWPOLYLINE
  5
48
330
17
100
AcDbEntity
  8
CUT_SLOT
100
AcDbPolyline
 90
5
 70
1
 10
145.41280812163689
 20
141.42135623730957
 10
148.97690973677464
 20
141.42135623730957
 10
148.97690973677464
 20
282.84271247461913
 10
145.41280812163689
 20
282.84271247461913
 10
145.41280812163689
 20
141.42135623730957
  0
LWPOLYLINE
  5
49
330
17
100
AcDbEntity
  8
CUT_SLOT
100
AcDbPolyline
 90
5
 70
1
 10
168.5068188892219
 20
141.42135623730957
 10
172.07092050435966
 20
141.42135623730957
 10
172.07092050435966
 20
282.84271247461913
 10
168.5068188892219
 20
282.84271247461913
 10
168.5068188892219
 20
141.42135623730957
  0
LWPOLYLINE
  5
4A
330
17
100
AcDbEntity
  8
CUT_SLOT
100
AcDbPolyline
 90
5
 70
1
 10
191.60082965680692
 20
141.42135623730957
 10
195.16493127194468
 20
141.42135623730957
 10
195.16493127194468
 20
282.84271247461913
 10
191.60082965680692
 20
282.84271247461913
 10
191.60082965680692
 20
141.42135623730957
  0
LWPOLYLINE
  5
4B
330
17
100
AcDbEntity
  8
CUT_OUTLINE
100
AcDbPolyline
 90
5
 70
1
 10
0.0
 20
0.0
 10
282.842712474619
 20
0.0
 10
282.842712474619
 20
282.84271247461913
 10
0.0
 20
282.84271247461913
 10
0.0
 20
0.0
  0
ENDSEC
  0
SECTION
  2
OBJECTS
  0
DICTIONARY
  5
A
330
0
100
AcDbDictionary
281
1
  3
ACAD_COLOR
350
B
  3
ACAD_GROUP
350
C
  3
ACAD_LAYOUT
350
D
  3
ACAD_MATERIAL
350
E
  3
ACAD_MLEADERSTYLE
350
F
  3
ACAD_MLINESTYLE
350
10
  3
ACAD_PLOTSETTINGS
350
11
  3
ACAD_PLOTSTYLENAME
350
12
  3
ACAD_SCALELIST
350
14
  3
ACAD_TABLESTYLE
350
15
  3
ACAD_VISUALSTYLE
350
16
  3
EZDXF_META
350
2D
  0
DICTIONARY
  5
B
330
A
100
AcDbDictionary
281
1
  0
DICTIONARY
  5
C
330
A
100
AcDbDictionary
281
1
  0
DICTIONARY
  5
D
330
A
100
AcDbDictionary
281
1
  3
Model
350
1A
  3
Layout1
350
1E
  0
DICTIONARY
  5
E
330
A
100
AcDbDictionary
281
1
  3
ByBlock
350
1F
  3
ByLayer
350
20
  3
Global
350
21
  0
DICTIONARY
  5
F
330
A
100
AcDbDictionary
281
1
  3
Standard
350
2C
  0
DICTIONARY
  5
10
330
A
100
AcDbDictionary
281
1
  3
Standard
350
22
  0
DICTIONARY
  5
11
330
A
100
AcDbDictionary
281
1
  0
ACDBDICTIONARYWDFLT
  5
12
330
A
100
AcDbDictionary
281
1
  3
Normal
350
13
100
AcDbDictionaryWithDefault
340
13
  0
ACDBPLACEHOLDER
  5
13
330
12
  0
DICTIONARY
  5
14
330
A
100
AcDbDictionary
281
1
  0
DICTIONARY
  5
15
330
A
100
AcDbDictionary
281
1
  0
DICTIONARY
  5
16
330
A
100
AcDbDictionary
281
1
  0
LAYOUT
  5
1A
330
D
100
AcDbPlotSettings
  1

  4
A3
  6

 40
7.5
 41
20.0
 42
7.5
 43
20.0
 44
420.0
 45
297.0
 46
0.0
 47
0.0
 48
0.0
 49
0.0
140
0.0
141
0.0
142
1.0
143
1.0
 70
1024
 72
1
 73
0
 74
5
  7

 75
16
 76
0
 77
2
 78
300
147
1.0
148
0.0
149
0.0
100
AcDbLayout
  1
Model
 70
1
 71
0
 10
0.0
 20
0.0
 11
420.0
 21
297.0
 12
0.0
 22
0.0
 32
0.0
 14
1e+20
 24
1e+20
 34
1e+20
 15
-1e+20
 25
-1e+20
 35
-1e+20
146
0.0
 13
0.0
 23
0.0
 33
0.0
 16
1.0
 26
0.0
 36
0.0
 17
0.0
 27
1.0
 37
0.0
 76
1
330
17
  0
LAYOUT
  5
1E
330
D
100
AcDbPlotSettings
  1

  4
A3
  6

 40
7.5
 41
20.0
 42
7.5
 43
20.0
 44
420.0
 45
297.0
 46
0.0
 47
0.0
 48
0.0
 49
0.0
140
0.0
141
0.0
142
1.0
143
1.0
 70
0
 72
1
 73
0
 74
5
  7

 75
16
 76
0
 77
2
 78
300
147
1.0
148
0.0
149
0.0
100
AcDbLayout
  1
Layout1
 70
1
 71
1
 10
0.0
 20
0.0
 11
420.0
 21
297.0
 12
0.0
 22
0.0
 32
0.0
 14
1e+20
 24
1e+20
 34
1e+20
 15
-1e+20
 25
-1e+20
 35
-1e+20
146
0.0
 13
0.0
 23
0.0
 33
0.0
 16
1.0
 26
0.0
 36
0.0
 17
0.0
 27
1.0
 37
0.0
 76
1
330
1B
  0
MATERIAL
  5
1F
102
{ACAD_REACTORS
330
E
102
}
330
E
100
AcDbMaterial
  1
ByBlock
  2

 70
0
 40
1.0
 71
1
 41
1.0
 91
-1023410177
 42
1.0
 72
1
  3

 73
1
 74
1
 75
1
 44
0.5
 73
0
 45
1.0
 46
1.0
 77
1
  4

 78
1
 79
1
170
1
 48
1.0
171
1
  6

172
1
173
1
174
1
140
1.0
141
1.0
175
1
  7

176
1
177
1
178
1
143
1.0
179
1
  8

270
1
271
1
272
1
145
1.0
146
1.0
273
1
  9

274
1
275
1
276
1
 42
1.0
 72
1
  3

 73
1
 74
1
 75
1
 94
63
  0
MATERIAL
  5
20
102
{ACAD_REACTORS
330
E
102
}
330
E
100
AcDbMaterial
  1
ByLayer
  2

 70
0
 40
1.0
 71
1
 41
1.0
 91
-1023410177
 42
1.0
 72
1
  3

 73
1
 74
1
 75
1
 44
0.5
 73
0
 45
1.0
 46
1.0
 77
1
  4

 78
1
 79
1
170
1
 48
1.0
171
1
  6

172
1
173
1
174
1
140
1.0
141
1.0
175
1
  7

176
1
177
1
178
1
143
1.0
179
1
  8

270
1
271
1
272
1
145
1.0
146
1.0
273
1
  9

274
1
275
1
276
1
 42
1.0
 72
1
  3

 73
1
 74
1
 75
1
 94
63
  0
MATERIAL
  5
21
102
{ACAD_REACTORS
330
E
102
}
330
E
100
AcDbMaterial
  1
Global
  2

 70
0
 40
1.0
 71
1
 41
1.0
 91
-1023410177
 42
1.0
 72
1
  3

 73
1
 74
1
 75
1
 44
0.5
 73
0
 45
1.0
 46
1.0
 77
1
  4

 78
1
 79
1
170
1
 48
1.0
171
1
  6

172
1
173
1
174
1
140
1.0
141
1.0
175
1
  7

176
1
177
1
178
1
143
1.0
179
1
  8

270
1
271
1
272
1
145
1.0
146
1.0
273
1
  9

274
1
275
1
276
1
 42
1.0
 72
1
  3

 73
1
 74
1
 75
1
 94
63
  0
MLINESTYLE
  5
22
102
{ACAD_REACTORS
330
10
102
}
330
10
100
AcDbMlineStyle
  2
Standard
 70
0
  3

 62
256
 51
90.0
 52
90.0
 71
2
 49
0.5
 62
256
  6
BYLAYER
 49
-0.5
 62
256
  6
BYLAYER
  0
MLEADERSTYLE
  5
2C
102
{ACAD_REACTORS
330
F
102
}
330
F
100
AcDbMLeaderStyle
179
2
170
2
171
1
172
0
 90
2
 40
0.0
 41
0.0
173
1
 91
-1056964608
 92
-2
290
1
 42
2.0
291
1
 43
8.0
  3
Standard
 44
4.0
300

342
29
174
1
175
1
176
0
178
1
 93
-1056964608
 45
4.0
292
0
297
0
 46
4.0
 94
-1056964608
 47
1.0
 49
1.0
140
1.0
294
1
141
0.0
177
0
142
1.0
295
0
296
0
143
3.75
271
0
272
9
273
9
  0
DICTIONARY
  5
2D
330
A
100
AcDbDictionary
280
1
281
1
  3
CREATED_BY_EZDXF
350
2E
  3
WRITTEN_BY_EZDXF
350
4E
  0
DICTIONARYVAR
  5
2E
330
2D
100
DictionaryVariables
280
0
  1
1.4.4 @ 2026-08-03T11:44:35.923867+00:00
  0
DICTIONARYVAR
  5
4E
330
2D
100
DictionaryVariables
280
0
  1
1.4.4 @ 2026-08-03T11:44:35.929991+00:00
  0
ENDSEC
  0
EOF
