  0
SECTION
  2
HEADER
  9
$ACADVER
  1
AC1027
  9
$ACADMAINTVER
 70
105
  9
$DWGCODEPAGE
  3
ANSI_1252
  9
$LASTSAVEDBY
  1
ezdxf
  9
$REQUIREDVERSIONS
160
0
  9
$INSBASE
 10
0.0
 20
0.0
 30
0.0
  9
$EXTMIN
 10
1e+20
 20
1e+20
 30
1e+20
  9
$EXTMAX
 10
-1e+20
 20
-1e+20
 30
-1e+20
  9
$LIMMIN
 10
0.0
 20
0.0
  9
$LIMMAX
 10
420.0
 20
297.0
  9
$ORTHOMODE
 70
0
  9
$REGENMODE
 70
1
  9
$FILLMODE
 70
1
  9
$QTEXTMODE
 70
0
  9
$MIRRTEXT
 70
1
  9
$LTSCALE
 40
1.0
  9
$ATTMODE
 70
1
  9
$TEXTSIZE
 40
2.5
  9
$TRACEWID
 40
1.0
  9
$TEXTSTYLE
  7
Standard
  9
$CLAYER
  8
0
  9
$CELTYPE
  6
ByLayer
  9
$CECOLOR
 62
256
  9
$CELTSCALE
 40
1.0
  9
$DISPSILH
 70
0
  9
$DIMSCALE
 40
1.0
  9
$DIMASZ
 40
2.5
  9
$DIMEXO
 40
0.625
  9
$DIMDLI
 40
3.75
  9
$DIMRND
 40
0.0
  9
$DIMDLE
 40
0.0
  9
$DIMEXE
 40
1.25
  9
$DIMTP
 40
0.0
  9
$DIMTM
 40
0.0
  9
$DIMTXT
 40
2.5
  9
$DIMCEN
 40
2.5
  9
$DIMTSZ
 40
0.0
  9
$DIMTOL
 70
0
  9
$DIMLIM
 70
0
  9
$DIMTIH
 70
0
  9
$DIMTOH
 70
0
  9
$DIMSE1
 70
0
  9
$DIMSE2
 70
0
  9
$DIMTAD
 70
1
  9
$DIMZIN
 70
8
  9
$DIMBLK
  1

  9
$DIMASO
 70
1
  9
$DIMSHO
 70
1
  9
$DIMPOST
  1

  9
$DIMAPOST
  1

  9
$DIMALT
 70
0
  9
$DIMALTD
 70
3
  9
$DIMALTF
 40
0.03937007874
  9
$DIMLFAC
 40
1.0
  9
$DIMTOFL
 70
1
  9
$DIMTVP
 40
0.0
  9
$DIMTIX
 70
0
  9
$DIMSOXD
 70
0
  9
$DIMSAH
 70
0
  9
$DIMBLK1
  1

  9
$DIMBLK2
  1

  9
$DIMSTYLE
  2
ISO-25
  9
$DIMCLRD
 70
0
  9
$DIMCLRE
 70
0
  9
$DIMCLRT
 70
0
  9
$DIMTFAC
 40
1.0
  9
$DIMGAP
 40
0.625
  9
$DIMJUST
 70
0
  9
$DIMSD1
 70
0
  9
$DIMSD2
 70
0
  9
$DIMTOLJ
 70
0
  9
$DIMTZIN
 70
8
  9
$DIMALTZ
 70
0
  9
$DIMALTTZ
 70
0
  9
$DIMUPT
 70
0
  9
$DIMDEC
 70
2
  9
$DIMTDEC
 70
2
  9
$DIMALTU
 70
2
  9
$DIMALTTD
 70
3
  9
$DIMTXSTY
  7
Standard
  9
$DIMAUNIT
 70
0
  9
$DIMADEC
 70
0
  9
$DIMALTRND
 40
0.0
  9
$DIMAZIN
 70
0
  9
$DIMDSEP
 70
44
  9
$DIMATFIT
 70
3
  9
$DIMFRAC
 70
0
  9
$DIMLDRBLK
  1

  9
$DIMLUNIT
 70
2
  9
$DIMLWD
 70
-2
  9
$DIMLWE
 70
-2
  9
$DIMTMOVE
 70
0
  9
$DIMFXL
 40
1.0
  9
$DIMFXLON
 70
0
  9
$DIMJOGANG
 40
0.785398163397
  9
$DIMTFILL
 70
0
  9
$DIMTFILLCLR
 70
0
  9
$DIMARCSYM
 70
0
  9
$DIMLTYPE
  6

  9
$DIMLTEX1
  6

  9
$DIMLTEX2
  6

  9
$DIMTXTDIRECTION
 70
0
  9
$LUNITS
 70
2
  9
$LUPREC
 70
4
  9
$SKETCHINC
 40
1.0
  9
$FILLETRAD
 40
10.0
  9
$AUNITS
 70
0
  9
$AUPREC
 70
2
  9
$MENU
  1
.
  9
$ELEVATION
 40
0.0
  9
$PELEVATION
 40
0.0
  9
$THICKNESS
 40
0.0
  9
$LIMCHECK
 70
0
  9
$CHAMFERA
 40
0.0
  9
$CHAMFERB
 40
0.0
  9
$CHAMFERC
 40
0.0
  9
$CHAMFERD
 40
0.0
  9
$SKPOLY
 70
0
  9
$TDCREATE
 40
2461256.6143055554
  9
$TDUCREATE
 40
2458532.153996898
  9
$TDUPDATE
 40
2461256.6143055554
  9
$TDUUPDATE
 40
2458532.1544311
  9
$TDINDWG
 40
0.0
  9
$TDUSRTIMER
 40
0.0
  9
$USRTIMER
 70
1
  9
$ANGBASE
 50
0.0
  9
$ANGDIR
 70
0
  9
$PDMODE
 70
0
  9
$PDSIZE
 40
0.0
  9
$PLINEWID
 40
0.0
  9
$SPLFRAME
 70
0
  9
$SPLINETYPE
 70
6
  9
$SPLINESEGS
 70
8
  9
$HANDSEED
  5
7A
  9
$SURFTAB1
 70
6
  9
$SURFTAB2
 70
6
  9
$SURFTYPE
 70
6
  9
$SURFU
 70
6
  9
$SURFV
 70
6
  9
$UCSBASE
  2

  9
$UCSNAME
  2

  9
$UCSORG
 10
0.0
 20
0.0
 30
0.0
  9
$UCSXDIR
 10
1.0
 20
0.0
 30
0.0
  9
$UCSYDIR
 10
0.0
 20
1.0
 30
0.0
  9
$UCSORTHOREF
  2

  9
$UCSORTHOVIEW
 70
0
  9
$UCSORGTOP
 10
0.0
 20
0.0
 30
0.0
  9
$UCSORGBOTTOM
 10
0.0
 20
0.0
 30
0.0
  9
$UCSORGLEFT
 10
0.0
 20
0.0
 30
0.0
  9
$UCSORGRIGHT
 10
0.0
 20
0.0
 30
0.0
  9
$UCSORGFRONT
 10
0.0
 20
0.0
 30
0.0
  9
$UCSORGBACK
 10
0.0
 20
0.0
 30
0.0
  9
$PUCSBASE
  2

  9
$PUCSNAME
  2

  9
$PUCSORG
 10
0.0
 20
0.0
 30
0.0
  9
$PUCSXDIR
 10
1.0
 20
0.0
 30
0.0
  9
$PUCSYDIR
 10
0.0
 20
1.0
 30
0.0
  9
$PUCSORTHOREF
  2

  9
$PUCSORTHOVIEW
 70
0
  9
$PUCSORGTOP
 10
0.0
 20
0.0
 30
0.0
  9
$PUCSORGBOTTOM
 10
0.0
 20
0.0
 30
0.0
  9
$PUCSORGLEFT
 10
0.0
 20
0.0
 30
0.0
  9
$PUCSORGRIGHT
 10
0.0
 20
0.0
 30
0.0
  9
$PUCSORGFRONT
 10
0.0
 20
0.0
 30
0.0
  9
$PUCSORGBACK
 10
0.0
 20
0.0
 30
0.0
  9
$USERI1
 70
0
  9
$USERI2
 70
0
  9
$USERI3
 70
0
  9
$USERI4
 70
0
  9
$USERI5
 70
0
  9
$USERR1
 40
0.0
  9
$USERR2
 40
0.0
  9
$USERR3
 40
0.0
  9
$USERR4
 40
0.0
  9
$USERR5
 40
0.0
  9
$WORLDVIEW
 70
1
  9
$SHADEDGE
 70
3
  9
$SHADEDIF
 70
70
  9
$TILEMODE
 70
1
  9
$MAXACTVP
 70
64
  9
$PINSBASE
 10
0.0
 20
0.0
 30
0.0
  9
$PLIMCHECK
 70
0
  9
$PEXTMIN
 10
1e+20
 20
1e+20
 30
1e+20
  9
$PEXTMAX
 10
-1e+20
 20
-1e+20
 30
-1e+20
  9
$PLIMMIN
 10
0.0
 20
0.0
  9
$PLIMMAX
 10
420.0
 20
297.0
  9
$UNITMODE
 70
0
  9
$VISRETAIN
 70
1
  9
$PLINEGEN
 70
0
  9
$PSLTSCALE
 70
1
  9
$TREEDEPTH
 70
3020
  9
$CMLSTYLE
  2
Standard
  9
$CMLJUST
 70
0
  9
$CMLSCALE
 40
20.0
  9
$PROXYGRAPHICS
 70
1
  9
$MEASUREMENT
 70
1
  9
$CELWEIGHT
370
-1
  9
$ENDCAPS
280
0
  9
$JOINSTYLE
280
0
  9
$LWDISPLAY
290
0
  9
$INSUNITS
 70
4
  9
$HYPERLINKBASE
  1

  9
$STYLESHEET
  1

  9
$XEDIT
290
1
  9
$CEPSNTYPE
380
0
  9
$PSTYLEMODE
290
1
  9
$FINGERPRINTGUID
  2
{46D5B6AD-5635-4366-A8C1-A468B0BD09AE}
  9
$VERSIONGUID
  2
{DBB3CDE8-AE68-4A08-BBD3-F5B45EB3AF30}
  9
$EXTNAMES
290
1
  9
$PSVPSCALE
 40
0.0
  9
$OLESTARTUP
290
0
  9
$SORTENTS
280
127
  9
$INDEXCTL
280
0
  9
$HIDETEXT
280
1
  9
$XCLIPFRAME
280
1
  9
$HALOGAP
280
0
  9
$OBSCOLOR
 70
257
  9
$OBSLTYPE
280
0
  9
$INTERSECTIONDISPLAY
280
0
  9
$INTERSECTIONCOLOR
 70
257
  9
$DIMASSOC
280
2
  9
$PROJECTNAME
  1

  9
$CAMERADISPLAY
290
0
  9
$LENSLENGTH
 40
50.0
  9
$CAMERAHEIGHT
 40
0.0
  9
$STEPSPERSEC
 40
24.0
  9
$STEPSIZE
 40
100.0
  9
$3DDWFPREC
 40
2.0
  9
$PSOLWIDTH
 40
0.005
  9
$PSOLHEIGHT
 40
0.08
  9
$LOFTANG1
 40
1.570796326795
  9
$LOFTANG2
 40
1.570796326795
  9
$LOFTMAG1
 40
0.0
  9
$LOFTMAG2
 40
0.0
  9
$LOFTPARAM
 70
7
  9
$LOFTNORMALS
280
1
  9
$LATITUDE
 40
37.795
  9
$LONGITUDE
 40
-122.394
  9
$NORTHDIRECTION
 40
0.0
  9
$TIMEZONE
 70
-8000
  9
$LIGHTGLYPHDISPLAY
280
1
  9
$TILEMODELIGHTSYNCH
280
1
  9
$CMATERIAL
347
20
  9
$SOLIDHIST
280
0
  9
$SHOWHIST
280
1
  9
$DWFFRAME
280
2
  9
$DGNFRAME
280
2
  9
$REALWORLDSCALE
290
1
  9
$INTERFERECOLOR
 62
256
  9
$CSHADOW
280
0
  9
$SHADOWPLANELOCATION
 40
0.0
  0
ENDSEC
  0
SECTION
  2
CLASSES
  0
CLASS
  1
ACDBDICTIONARYWDFLT
  2
AcDbDictionaryWithDefault
  3
ObjectDBX Classes
 90
0
 91
0
280
0
281
0
  0
CLASS
  1
SUN
  2
AcDbSun
  3
SCENEOE
 90
1153
 91
0
280
0
281
0
  0
CLASS
  1
VISUALSTYLE
  2
AcDbVisualStyle
  3
ObjectDBX Classes
 90
4095
 91
0
280
0
281
0
  0
CLASS
  1
MATERIAL
  2
AcDbMaterial
  3
ObjectDBX Classes
 90
1153
 91
0
280
0
281
0
  0
CLASS
  1
SCALE
  2
AcDbScale
  3
ObjectDBX Classes
 90
1153
 91
0
280
0
281
0
  0
CLASS
  1
TABLESTYLE
  2
AcDbTableStyle
  3
ObjectDBX Classes
 90
4095
 91
0
280
0
281
0
  0
CLASS
  1
MLEADERSTYLE
  2
AcDbMLeaderStyle
  3
ACDB_MLEADERSTYLE_CLASS
 90
4095
 91
0
280
0
281
0
  0
CLASS
  1
DICTIONARYVAR
  2
AcDbDictionaryVar
  3
ObjectDBX Classes
 90
0
 91
0
280
0
281
0
  0
CLASS
  1
CELLSTYLEMAP
  2
AcDbCellStyleMap
  3
ObjectDBX Classes
 90
1152
 91
0
280
0
281
0
  0
CLASS
  1
MENTALRAYRENDERSETTINGS
  2
AcDbMentalRayRenderSettings
  3
SCENEOE
 90
1024
 91
0
280
0
281
0
  0
CLASS
  1
ACDBDETAILVIEWSTYLE
  2
AcDbDetailViewStyle
  3
ObjectDBX Classes
 90
1025
 91
0
280
0
281
0
  0
CLASS
  1
ACDBSECTIONVIEWSTYLE
  2
AcDbSectionViewStyle
  3
ObjectDBX Classes
 90
1025
 91
0
280
0
281
0
  0
CLASS
  1
RASTERVARIABLES
  2
AcDbRasterVariables
  3
ISM
 90
0
 91
0
280
0
281
0
  0
CLASS
  1
LAYOUT
  2
AcDbLayout
  3
ObjectDBX Classes
 90
0
 91
0
280
0
281
0
  0
CLASS
  1
ACDBPLACEHOLDER
  2
AcDbPlaceHolder
  3
ObjectDBX Classes
 90
0
 91
0
280
0
281
0
  0
ENDSEC
  0
SECTION
  2
TABLES
  0
TABLE
  2
VPORT
  5
8
330
0
100
AcDbSymbolTable
 70
1
  0
VPORT
  5
23
330
8
100
AcDbSymbolTableRecord
100
AcDbViewportTableRecord
  2
*Active
 70
0
 10
0.0
 20
0.0
 11
1.0
 21
1.0
 12
0.0
 22
0.0
 13
0.0
 23
0.0
 14
0.5
 24
0.5
 15
0.5
 25
0.5
 16
0.0
 26
0.0
 36
1.0
 17
0.0
 27
0.0
 37
0.0
 40
1000.0
 41
1.34
 42
50.0
 43
0.0
 44
0.0
 50
0.0
 51
0.0
 71
0
 72
1000
 73
1
 74
3
 75
0
 76
0
 77
0
 78
0
281
0
 65
0
146
0.0
  0
ENDTAB
  0
TABLE
  2
LTYPE
  5
2
330
0
100
AcDbSymbolTable
 70
3
  0
LTYPE
  5
24
330
2
100
AcDbSymbolTableRecord
100
AcDbLinetypeTableRecord
  2
ByBlock
 70
0
  3

 72
65
 73
0
 40
0.0
  0
LTYPE
  5
25
330
2
100
AcDbSymbolTableRecord
100
AcDbLinetypeTableRecord
  2
ByLayer
 70
0
  3

 72
65
 73
0
 40
0.0
  0
LTYPE
  5
26
330
2
100
AcDbSymbolTableRecord
100
AcDbLinetypeTableRecord
  2
Continuous
 70
0
  3

 72
65
 73
0
 40
0.0
  0
ENDTAB
  0
TABLE
  2
LAYER
  5
1
330
0
100
AcDbSymbolTable
 70
7
  0
LAYER
  5
27
330
1
100
AcDbSymbolTableRecord
100
AcDbLayerTableRecord
  2
0
 70
0
 62
7
  6
Continuous
370
-3
390
13
347
21
  0
LAYER
  5
28
330
1
100
AcDbSymbolTableRecord
100
AcDbLayerTableRecord
  2
Defpoints
 70
0
 62
7
  6
Continuous
290
0
370
-3
390
13
347
21
  0
LAYER
  5
2F
330
1
100
AcDbSymbolTableRecord
100
AcDbLayerTableRecord
  2
ENG_L
 70
0
 62
4
  6
Continuous
370
-3
390
13
347
21
  0
LAYER
  5
30
330
1
100
AcDbSymbolTableRecord
100
AcDbLayerTableRecord
  2
ENG_D
 70
0
 62
3
  6
Continuous
370
-3
390
13
347
21
  0
LAYER
  5
31
330
1
100
AcDbSymbolTableRecord
100
AcDbLayerTableRecord
  2
ENG_K
 70
0
 62
2
  6
Continuous
370
-3
390
13
347
21
  0
LAYER
  5
32
330
1
100
AcDbSymbolTableRecord
100
AcDbLayerTableRecord
  2
CUT_OUTLINE
 70
0
 62
5
  6
Continuous
370
-3
390
13
347
21
  0
LAYER
  5
33
330
1
100
AcDbSymbolTableRecord
100
AcDbLayerTableRecord
  2
CUT_SLOT
 70
0
 62
1
  6
Continuous
370
-3
390
13
347
21
  0
ENDTAB
  0
TABLE
  2
STYLE
  5
5
330
0
100
AcDbSymbolTable
 70
1
  0
STYLE
  5
29
330
5
100
AcDbSymbolTableRecord
100
AcDbTextStyleTableRecord
  2
Standard
 70
0
 40
0.0
 41
1.0
 50
0.0
 71
0
 42
2.5
  3
txt
  4

  0
ENDTAB
  0
TABLE
  2
VIEW
  5
7
330
0
100
AcDbSymbolTable
 70
0
  0
ENDTAB
  0
TABLE
  2
UCS
  5
6
330
0
100
AcDbSymbolTable
 70
0
  0
ENDTAB
  0
TABLE
  2
APPID
  5
3
330
0
100
AcDbSymbolTable
 70
3
  0
APPID
  5
2A
330
3
100
AcDbSymbolTableRecord
100
AcDbRegAppTableRecord
  2
ACAD
 70
0
  0
APPID
  5
77
330
3
100
AcDbSymbolTableRecord
100
AcDbRegAppTableRecord
  2
HATCHBACKGROUNDCOLOR
 70
0
  0
APPID
  5
78
330
3
100
AcDbSymbolTableRecord
100
AcDbRegAppTableRecord
  2
EZDXF
 70
0
  0
ENDTAB
  0
TABLE
  2
DIMSTYLE
  5
4
330
0
100
AcDbSymbolTable
 70
1
100
AcDbDimStyleTable
  0
DIMSTYLE
105
2B
330
4
100
AcDbSymbolTableRecord
100
AcDbDimStyleTableRecord
  2
Standard
 70
0
 40
1.0
 41
2.5
 42
0.625
 43
3.75
 44
1.25
 45
0.0
 46
0.0
 47
0.0
 48
0.0
 49
2.5
140
2.5
141
2.5
142
0.0
143
0.03937007874
144
1.0
145
0.0
146
1.0
147
0.625
148
0.0
 69
0
 70
0
 71
0
 72
0
 73
0
 74
0
 75
0
 76
0
 77
1
 78
8
 79
3
170
0
171
3
172
1
173
0
174
0
175
0
176
0
177
0
178
0
179
2
271
2
272
2
273
2
274
3
275
0
276
0
277
2
278
44
279
0
280
0
281
0
282
0
283
0
284
8
285
0
286
0
288
0
289
3
290
0
371
-2
372
-2
  0
ENDTAB
  0
TABLE
  2
BLOCK_RECORD
  5
9
330
0
100
AcDbSymbolTable
 70
2
  0
BLOCK_RECORD
  5
17
330
9
100
AcDbSymbolTableRecord
100
AcDbBlockTableRecord
  2
*Model_Space
340
1A
 70
0
280
1
281
0
  0
BLOCK_RECORD
  5
1B
330
9
100
AcDbSymbolTableRecord
100
AcDbBlockTableRecord
  2
*Paper_Space
340
1E
 70
0
280
1
281
0
  0
ENDTAB
  0
ENDSEC
  0
SECTION
  2
BLOCKS
  0
BLOCK
  5
18
330
17
100
AcDbEntity
  8
0
100
AcDbBlockBegin
  2
*Model_Space
 70
0
 10
0.0
 20
0.0
 30
0.0
  3
*Model_Space
  1

  0
ENDBLK
  5
19
330
17
100
AcDbEntity
  8
0
100
AcDbBlockEnd
  0
BLOCK
  5
1C
330
1B
100
AcDbEntity
  8
0
100
AcDbBlockBegin
  2
*Paper_Space
 70
0
 10
0.0
 20
0.0
 30
0.0
  3
*Paper_Space
  1

  0
ENDBLK
  5
1D
330
1B
100
AcDbEntity
  8
0
100
AcDbBlockEnd
  0
ENDSEC
  0
SECTION
  2
ENTITIES
  0
LWPOLYLINE
  5
34
330
17
100
AcDbEntity
  8
ENG_L
100
AcDbPolyline
 90
15
 70
1
 10
195.16147160748713
 20
153.91357603827194
 10
195.63287612827816
 20
154.3849805590629
 10
198.2256009926288
 20
154.1492782986674
 10
197.98989873223329
 20
149.19953083036154
 10
196.10428064906918
 20
149.19953083036154
 10
193.74725804511402
 20
148.25672178877957
 10
189.50461735799473
 20
147.7853172679885
 10
189.0332128372037
 20
147.3139127471974
 10
187.85470153522613
 20
147.549615007593
 10
185.49767893127097
 20
152.2636602155033
 10
185.7333811916665
 20
152.9707669966899
 10
186.67619023324855
 20
153.44217151748086
 10
190.91883092036784
 20
153.44217151748086
 10
191.3902354411589
 20
153.91357603827194
 10
195.16147160748713
 20
153.91357603827194
  0
LWPOLYLINE
  5
35
330
17
100
AcDbEntity
  8
ENG_L
100
AcDbPolyline
 90
7
 70
1
 10
184.0834653688979
 20
179.13371790059207
 10
183.37635858771134
 20
178.4266111194055
 10
183.14065632731584
 20
184.79057215008444
 10
184.3191676292934
 20
185.02627441048003
 10
186.44048797285305
 20
183.3763585877114
 10
186.44048797285305
 20
182.9049540669203
 10
184.0834653688979
 20
179.13371790059207
  0
LWPOLYLINE
  5
36
330
17
100
AcDbEntity
  8
ENG_L
100
AcDbPolyline
 90
5
 70
1
 10
183.37635858771134
 20
219.91020894901635
 10
183.61206084810686
 20
219.2031021678298
 10
183.14065632731584
 20
219.2031021678298
 10
183.14065632731584
 20
219.67450668862088
 10
183.37635858771134
 20
219.91020894901635
  0
LWPOLYLINE
  5
37
330
17
100
AcDbEntity
  8
ENG_L
100
AcDbPolyline
 90
8
 70
1
 10
183.14065632731584
 20
177.71950433821902
 10
178.4266111194055
 20
170.64843652635352
 10
177.95520659861447
 20
170.64843652635352
 10
178.19090885901
 20
186.44048797285308
 10
179.8408246817786
 20
185.7333811916666
 10
179.8408246817786
 20
178.6623133798011
 10
182.90495406692028
 20
178.4266111194055
 10
183.14065632731584
 20
177.71950433821902
  0
LWPOLYLINE
  5
38
330
17
100
AcDbEntity
  8
ENG_L
100
AcDbPolyline
 90
12
 70
1
 10
177.48380207782344
 20
219.2031021678298
 10
176.5409930362414
 20
221.0887202509939
 10
176.5409930362414
 20
222.50293381336706
 10
175.5981839946593
 20
224.38855189653117
 10
175.83388625505484
 20
225.56706319850872
 10
176.30529077584586
 20
225.09565867771775
 10
179.8408246817786
 20
224.85995641732214
 10
179.8408246817786
 20
213.07484339754646
 10
178.89801564019652
 20
213.07484339754646
 10
178.4266111194055
 20
215.90327052229253
 10
177.48380207782344
 20
217.78888860545675
 10
177.48380207782344
 20
219.2031021678298
  0
LWPOLYLINE
  5
39
330
17
100
AcDbEntity
  8
ENG_L
100
AcDbPolyline
 90
25
 70
1
 10
161.22034611053286
 20
251.49431184201543
 10
160.27753706895078
 20
251.49431184201543
 10
159.80613254815975
 20
256.20835704992584
 10
156.74200316301804
 20
255.97265478953025
 10
156.5063009026225
 20
251.9657163628064
 10
153.2064692570853
 20
251.9657163628064
 10
152.49936247589878
 20
252.67282314399318
 10
152.49936247589878
 20
259.2724864350675
 10
152.02795795510772
 20
259.7438909558585
 10
152.26366021550325
 20
266.57925650732864
 10
155.56349186104046
 20
266.57925650732864
 10
156.0348963818315
 20
266.1078519865374
 10
161.92745289171938
 20
264.92934068455986
 10
159.57043028776422
 20
260.21529547664966
 10
159.09902576697317
 20
258.3296773934853
 10
159.80613254815975
 20
257.622570612299
 10
162.1631551521149
 20
257.1511660915078
 10
162.63455967290594
 20
256.67976157071683
 10
164.04877323527901
 20
256.67976157071683
 10
168.52711618279383
 20
255.0298457479483
 10
168.52711618279383
 20
253.61563218557515
 10
168.99852070358486
 20
253.14422766478418
 10
169.4699252243759
 20
250.78720506082885
 10
161.69175063132388
 20
251.02290732122447
 10
161.22034611053286
 20
251.49431184201543
  0
LWPOLYLINE
  5
3A
330
17
100
AcDbEntity
  8
ENG_L
100
AcDbPolyline
 90
19
 70
1
 10
129.1648386967427
 20
251.49431184201543
 10
127.51492287397406
 20
252.67282314399318
 10
127.51492287397406
 20
258.80108191427655
 10
131.52186130069785
 20
263.27942486179137
 10
132.93607486307093
 20
263.7508293825823
 10
134.82169294623506
 20
265.1650429449555
 10
135.7645019878171
 20
265.1650429449555
 10
139.30003589374988
 20
255.50125026873926
 10
139.30003589374988
 20
254.5584412271571
 10
139.7714404145409
 20
254.08703670636612
 10
139.7714404145409
 20
253.14422766478418
 10
141.18565397691398
 20
250.31580054003788
 10
138.59292911256333
 20
249.13728923806033
 10
135.7645019878171
 20
248.66588471726936
 10
135.2930974670261
 20
248.19448019647817
 10
133.878883904653
 20
248.19448019647817
 10
133.40747938386195
 20
247.7230756756872
 10
132.2289680818844
 20
247.95877793608278
 10
129.1648386967427
 20
251.49431184201543
  0
LWPOLYLINE
  5
3B
330
17
100
AcDbEntity
  8
ENG_L
100
AcDbPolyline
 90
39
 70
1
 10
133.17177712346646
 20
134.35028842544406
 10
133.40747938386195
 20
135.5287997274217
 10
133.878883904653
 20
135.05739520663062
 10
134.1145861650485
 20
135.29309746702612
 10
133.40747938386195
 20
136.0002042482127
 10
131.05045677990682
 20
134.11458616504856
 10
130.5790522591158
 20
134.58599068583953
 10
130.34334999872027
 20
134.35028842544406
 10
131.75756356109335
 20
132.936074863071
 10
131.75756356109335
 20
131.99326582148896
 10
131.28615904030232
 20
131.99326582148896
 10
130.5790522591158
 20
133.1717771234665
 10
129.87194547792924
 20
132.46467034227993
 10
129.63624321753372
 20
130.8147545195113
 10
128.9291364363472
 20
131.0504567799069
 10
128.69343417595167
 20
131.75756356109346
 10
127.27922061357854
 20
130.34334999872033
 10
126.33641157199649
 20
130.34334999872033
 10
125.15790027001891
 20
127.75062513436963
 10
125.15790027001891
 20
126.80781609278758
 10
124.68649574922789
 20
126.80781609278758
 10
124.68649574922789
 20
128.2220296551606
 10
125.15790027001891
 20
128.6934341759517
 10
124.68649574922789
 20
129.16483869674278
 10
124.68649574922789
 20
131.52186130069788
 10
125.86500705120545
 20
133.1717771234665
 10
126.33641157199649
 20
132.70037260267543
 10
126.572113832392
 20
132.936074863071
 10
125.62930479080994
 20
133.87888390465307
 10
125.62930479080994
 20
135.7645019878172
 10
129.63624321753372
 20
139.77144041454093
 10
130.10764773832474
 20
139.77144041454093
 10
134.1145861650485
 20
136.70731102939925
 10
134.58599068583953
 20
135.7645019878172
 10
134.58599068583953
 20
132.46467034227993
 10
134.35028842544403
 20
132.22896808188443
 10
133.64318164425748
 20
132.936074863071
 10
133.64318164425748
 20
133.87888390465307
 10
133.17177712346646
 20
134.35028842544406
  0
LWPOLYLINE
  5
3C
330
17
100
AcDbEntity
  8
ENG_L
100
AcDbPolyline
 90
6
 70
1
 10
129.87194547792924
 20
135.7645019878172
 10
129.63624321753372
 20
136.0002042482127
 10
128.2220296551606
 20
135.05739520663062
 10
128.2220296551606
 20
134.58599068583953
 10
129.63624321753372
 20
134.58599068583953
 10
129.87194547792924
 20
135.7645019878172
  0
LWPOLYLINE
  5
3D
330
17
100
AcDbEntity
  8
ENG_L
100
AcDbPolyline
 90
4
 70
1
 10
129.40054095713822
 20
133.87888390465307
 10
129.1648386967427
 20
134.11458616504856
 10
128.9291364363472
 20
133.87888390465307
 10
129.40054095713822
 20
133.87888390465307
  0
LWPOLYLINE
  5
3E
330
17
100
AcDbEntity
  8
ENG_L
100
AcDbPolyline
 90
4
 70
1
 10
126.80781609278752
 20
131.28615904030238
 10
126.572113832392
 20
131.0504567799069
 10
127.04351835318303
 20
131.0504567799069
 10
126.80781609278752
 20
131.28615904030238
  0
LWPOLYLINE
  5
3F
330
17
100
AcDbEntity
  8
ENG_L
100
AcDbPolyline
 90
4
 70
1
 10
132.93607486307093
 20
133.6431816442576
 10
132.93607486307093
 20
134.11458616504856
 10
133.17177712346646
 20
133.87888390465307
 10
132.93607486307093
 20
133.6431816442576
  0
LWPOLYLINE
  5
40
330
17
100
AcDbEntity
  8
ENG_L
100
AcDbPolyline
 90
5
 70
1
 10
133.17177712346646
 20
131.99326582148896
 10
132.70037260267543
 20
131.99326582148896
 10
132.70037260267543
 20
132.46467034227993
 10
132.93607486307093
 20
132.70037260267543
 10
133.17177712346646
 20
131.99326582148896
  0
LWPOLYLINE
  5
41
330
17
100
AcDbEntity
  8
ENG_L
100
AcDbPolyline
 90
5
 70
1
 10
132.70037260267543
 20
133.40747938386198
 10
131.99326582148888
 20
133.1717771234665
 10
131.75756356109335
 20
133.40747938386198
 10
132.4646703422799
 20
133.6431816442576
 10
132.70037260267543
 20
133.40747938386198
  0
LWPOLYLINE
  5
42
330
17
100
AcDbEntity
  8
ENG_L
100
AcDbPolyline
 90
4
 70
1
 10
131.05045677990682
 20
131.75756356109346
 10
131.28615904030232
 20
131.52186130069788
 10
131.05045677990682
 20
131.28615904030238
 10
131.05045677990682
 20
131.75756356109346
  0
LWPOLYLINE
  5
43
330
17
100
AcDbEntity
  8
ENG_L
100
AcDbPolyline
 90
4
 70
1
 10
130.10764773832474
 20
129.87194547792924
 10
130.34334999872027
 20
129.63624321753375
 10
130.10764773832474
 20
129.40054095713828
 10
130.10764773832474
 20
129.87194547792924
  0
LWPOLYLINE
  5
44
330
17
100
AcDbEntity
  8
ENG_L
100
AcDbPolyline
 90
4
 70
1
 10
129.63624321753372
 20
129.87194547792924
 10
129.63624321753372
 20
130.34334999872033
 10
129.87194547792924
 20
130.10764773832472
 10
129.63624321753372
 20
129.87194547792924
  0
LWPOLYLINE
  5
45
330
17
100
AcDbEntity
  8
ENG_L
100
AcDbPolyline
 90
4
 70
1
 10
128.4577319155561
 20
129.16483869674278
 10
128.2220296551606
 20
128.9291364363472
 10
128.2220296551606
 20
129.40054095713828
 10
128.4577319155561
 20
129.16483869674278
  0
LWPOLYLINE
  5
46
330
17
100
AcDbEntity
  8
ENG_L
100
AcDbPolyline
 90
4
 70
1
 10
127.75062513436957
 20
128.4577319155562
 10
127.75062513436957
 20
128.9291364363472
 10
127.9863273947651
 20
128.6934341759517
 10
127.75062513436957
 20
128.4577319155562
  0
LWPOLYLINE
  5
47
330
17
100
AcDbEntity
  8
ENG_L
100
AcDbPolyline
 90
5
 70
1
 10
127.04351835318303
 20
128.2220296551606
 10
126.33641157199649
 20
127.51492287397414
 10
126.10070931160097
 20
127.75062513436963
 10
126.80781609278752
 20
129.40054095713828
 10
127.04351835318303
 20
128.2220296551606
  0
LWPOLYLINE
  5
48
330
17
100
AcDbEntity
  8
ENG_L
100
AcDbPolyline
 90
13
 70
1
 10
113.60848951063863
 20
172.29835234912215
 10
113.37278725024312
 20
160.74894158974183
 10
109.83725334431038
 20
160.51323932934636
 10
109.36584882351936
 20
160.04183480855528
 10
106.06601717798213
 20
160.04183480855528
 10
105.59461265719109
 20
159.5704302877643
 10
103.00188779284042
 20
159.80613254815978
 10
106.30171943837765
 20
166.4057958392342
 10
106.30171943837765
 20
167.34860488081637
 10
107.71593300075075
 20
169.70562748477147
 10
107.71593300075075
 20
170.64843652635352
 10
109.36584882351936
 20
171.82694782833107
 10
113.60848951063863
 20
172.29835234912215
  0
LWPOLYLINE
  5
49
330
17
100
AcDbEntity
  8
ENG_L
100
AcDbPolyline
 90
87
 70
1
 10
77.07463914933369
 20
170.17703200556244
 10
76.13183010775163
 20
172.53405460951765
 10
76.13183010775163
 20
175.83388625505492
 10
75.66042558696059
 20
176.3052907758459
 10
75.66042558696059
 20
177.24809981742794
 10
76.13183010775163
 20
177.71950433821902
 10
75.18902106616954
 20
179.13371790059207
 10
75.66042558696059
 20
181.4907405045473
 10
75.18902106616954
 20
181.96214502533837
 10
75.18902106616954
 20
185.7333811916666
 10
75.66042558696059
 20
186.20478571245758
 10
75.66042558696059
 20
188.09040379562168
 10
76.13183010775163
 20
188.5618083164128
 10
75.66042558696059
 20
189.50461735799485
 10
76.60323462854265
 20
191.86163996194995
 10
76.60323462854265
 20
193.27585352432308
 10
77.07463914933369
 20
193.74725804511405
 10
77.07463914933369
 20
195.63287612827818
 10
76.13183010775163
 20
196.10428064906927
 10
76.13183010775163
 20
196.57568516986035
 10
77.54604367012472
 20
197.98989873223337
 10
77.3103414097292
 20
198.69700551341995
 10
76.13183010775163
 20
199.40411229460642
 10
77.54604367012472
 20
200.81832585697956
 10
75.18902106616954
 20
205.06096654409887
 10
75.18902106616954
 20
206.00377558568096
 10
76.13183010775163
 20
207.41798914805398
 10
76.13183010775163
 20
208.36079818963606
 10
77.07463914933369
 20
208.83220271042714
 10
77.07463914933369
 20
209.7750117520092
 10
76.60323462854265
 20
210.24641627280016
 10
77.54604367012472
 20
211.18922531438233
 10
77.54604367012472
 20
212.60343887675538
 10
79.90306627407988
 20
214.96046148071056
 10
79.90306627407988
 20
215.90327052229253
 10
78.96025723249781
 20
216.8460795638747
 10
78.96025723249781
 20
218.26029312624772
 10
79.43166175328884
 20
218.7316976470388
 10
78.96025723249781
 20
219.67450668862088
 10
80.3744707948709
 20
222.50293381336706
 10
80.3744707948709
 20
223.9171473757402
 10
82.26008887803503
 20
226.2741699796953
 10
82.26008887803503
 20
228.1597880628594
 10
83.20289791961709
 20
229.10259710444137
 10
83.20289791961709
 20
230.04540614602354
 10
85.32421826317673
 20
232.63813101037422
 10
90.27396573148256
 20
226.2741699796953
 10
87.91694312752742
 20
221.56012477178487
 10
89.33115668990051
 20
217.78888860545675
 10
89.80256121069154
 20
214.48905695991948
 10
90.7453702522736
 20
212.60343887675538
 10
90.7453702522736
 20
211.18922531438233
 10
91.21677477306463
 20
210.71782079359124
 10
90.03826347108705
 20
210.48211853319577
 10
89.095454429505
 20
209.0679049708226
 10
87.91694312752742
 20
208.36079818963606
 10
86.97413408594534
 20
206.946584627263
 10
86.50272956515431
 20
205.06096654409887
 10
85.08851600278122
 20
203.64675298172574
 10
81.31727983645297
 20
197.98989873223337
 10
85.79562278396777
 20
195.86857838867377
 10
87.20983634634086
 20
194.45436482630063
 10
89.80256121069154
 20
193.27585352432308
 10
89.80256121069154
 20
192.804449003532
 10
86.97413408594534
 20
190.4474263995769
 10
86.50272956515431
 20
189.50461735799485
 10
87.91694312752742
 20
187.14759475403963
 10
90.7453702522736
 20
184.79057215008444
 10
90.7453702522736
 20
183.84776310850248
 10
86.50272956515431
 20
178.19090885901002
 10
86.97413408594534
 20
171.5912455679356
 10
87.44553860673638
 20
171.1198410471446
 10
87.91694312752742
 20
167.34860488081637
 10
86.50272956515431
 20
166.4057958392342
 10
86.97413408594534
 20
165.93439131844323
 10
87.44553860673638
 20
163.10596419369705
 10
88.85975216910947
 20
160.74894158974183
 10
88.85975216910947
 20
159.80613254815978
 10
90.27396573148256
 20
156.9777054234136
 10
89.56685895029602
 20
156.27059864222704
 10
79.66736401368435
 20
160.98464385013745
 10
78.48885271170677
 20
162.63455967290597
 10
78.48885271170677
 20
164.5201777560701
 10
77.54604367012472
 20
165.46298679765215
 10
77.54604367012472
 20
166.87720036002528
 10
76.60323462854265
 20
167.82000940160736
 10
77.07463914933369
 20
170.17703200556244
  0
LWPOLYLINE
  5
4A
330
17
100
AcDbEntity
  8
ENG_D
100
AcDbPolyline
 90
15
 70
1
 10
197.51849421144226
 20
177.48380207782355
 10
198.69700551341987
 20
176.77669529663697
 10
199.1684100342109
 20
174.89107721347287
 10
200.11121907579297
 20
173.9482681718908
 10
202.4682416797481
 20
169.2342229639805
 10
201.05402811737503
 20
166.4057958392342
 10
201.05402811737503
 20
165.46298679765215
 10
200.582623596584
 20
165.46298679765215
 10
200.11121907579297
 20
167.82000940160736
 10
199.63981455500192
 20
168.29141392239833
 10
199.63981455500192
 20
170.17703200556244
 10
199.1684100342109
 20
170.64843652635352
 10
199.1684100342109
 20
172.53405460951765
 10
197.7541964718378
 20
175.36248173426384
 10
197.51849421144226
 20
177.48380207782355
  0
LWPOLYLINE
  5
4B
330
17
100
AcDbEntity
  8
ENG_D
100
AcDbPolyline
 90
36
 70
1
 10
188.79751057680818
 20
161.22034611053294
 10
186.44048797285305
 20
165.46298679765215
 10
186.67619023324855
 20
166.17009357883873
 10
189.50461735799473
 20
166.17009357883873
 10
190.6831286599723
 20
166.87720036002528
 10
190.6831286599723
 20
167.34860488081637
 10
185.969083452062
 20
173.9482681718908
 10
185.49767893127097
 20
175.36248173426384
 10
184.55486988968892
 20
176.3052907758459
 10
184.79057215008444
 20
176.5409930362414
 10
195.39717386788263
 20
177.24809981742794
 10
194.9257693470916
 20
175.36248173426384
 10
195.39717386788263
 20
174.89107721347287
 10
195.39717386788263
 20
171.5912455679356
 10
195.86857838867365
 20
171.1198410471446
 10
195.86857838867365
 20
170.17703200556244
 10
195.39717386788263
 20
169.70562748477147
 10
196.81138743025573
 20
166.87720036002528
 10
196.33998290946468
 20
166.4057958392342
 10
196.81138743025573
 20
165.93439131844323
 10
196.81138743025573
 20
164.0487732352791
 10
197.28279195104676
 20
163.57736871448802
 10
197.28279195104676
 20
160.74894158974183
 10
198.2256009926288
 20
158.86332350657773
 10
198.2256009926288
 20
156.03489638183154
 10
198.69700551341987
 20
155.56349186104046
 10
198.69700551341987
 20
151.79225569471222
 10
198.2256009926288
 20
151.79225569471222
 10
197.98989873223329
 20
154.3849805590629
 10
195.63287612827816
 20
154.3849805590629
 10
195.16147160748713
 20
153.91357603827194
 10
191.6259377015544
 20
154.1492782986674
 10
190.6831286599723
 20
156.03489638183154
 10
190.6831286599723
 20
156.9777054234136
 10
188.79751057680818
 20
160.27753706895086
 10
188.79751057680818
 20
161.22034611053294
  0
LWPOLYLINE
  5
4C
330
17
100
AcDbEntity
  8
ENG_D
100
AcDbPolyline
 90
37
 70
1
 10
185.49767893127097
 20
216.3746750430836
 10
184.55486988968892
 20
217.31748408466567
 10
185.02627441047994
 20
217.78888860545675
 10
185.02627441047994
 20
220.61731573020293
 10
184.55486988968892
 20
221.0887202509939
 10
184.55486988968892
 20
223.445742854949
 10
184.0834653688979
 20
223.9171473757402
 10
184.55486988968892
 20
224.85995641732214
 10
184.0834653688979
 20
225.33136093811314
 10
184.0834653688979
 20
227.68838354206844
 10
183.61206084810686
 20
228.1597880628594
 10
183.61206084810686
 20
230.5168106668145
 10
184.79057215008444
 20
230.75251292721012
 10
185.969083452062
 20
229.10259710444137
 10
185.969083452062
 20
228.1597880628594
 10
187.3832970144351
 20
226.74557450048627
 10
188.79751057680818
 20
223.9171473757402
 10
189.74031961839026
 20
219.2031021678298
 10
190.21172413918129
 20
218.7316976470388
 10
190.21172413918129
 20
217.31748408466567
 10
190.6831286599723
 20
216.8460795638747
 10
190.6831286599723
 20
215.43186600150156
 10
191.6259377015544
 20
213.54624791833743
 10
191.15453318076337
 20
213.07484339754646
 10
191.6259377015544
 20
212.1320343559643
 10
190.21172413918129
 20
210.71782079359124
 10
190.21172413918129
 20
209.7750117520092
 10
188.56180831641268
 20
209.0679049708226
 10
184.55486988968892
 20
204.5895620233078
 10
184.55486988968892
 20
204.11815750251682
 10
183.37635858771134
 20
202.93964620053927
 10
183.37635858771134
 20
218.9673999074343
 10
184.0834653688979
 20
217.31748408466567
 10
183.61206084810686
 20
216.8460795638747
 10
183.61206084810686
 20
215.43186600150156
 10
184.3191676292934
 20
215.19616374110606
 10
185.49767893127097
 20
216.3746750430836
  0
LWPOLYLINE
  5
4D
330
17
100
AcDbEntity
  8
ENG_D
100
AcDbPolyline
 90
34
 70
1
 10
160.04183480855528
 20
228.63119258365037
 10
160.27753706895078
 20
251.49431184201543
 10
161.22034611053286
 20
251.49431184201543
 10
161.69175063132388
 20
251.02290732122447
 10
165.46298679765212
 20
251.02290732122447
 10
165.93439131844315
 20
250.55150280043347
 10
173.94826817189067
 20
250.0800982796425
 10
176.30529077584586
 20
247.2516711548962
 10
177.01239755703241
 20
247.01596889450062
 10
177.01239755703241
 20
246.07315985291868
 10
178.89801564019652
 20
244.65894629054552
 10
179.36942016098754
 20
243.24473272817238
 10
180.78363372336065
 20
241.83051916579922
 10
181.7264427649427
 20
239.94490108263534
 10
180.0765269421741
 20
238.2949852598666
 10
178.89801564019652
 20
238.53068752026218
 10
179.36942016098754
 20
239.47349656184414
 10
178.66231337980102
 20
240.1806033430307
 10
177.71950433821894
 20
240.6520078638217
 10
177.01239755703241
 20
240.4163056034263
 10
177.95520659861447
 20
239.00209204105317
 10
177.95520659861447
 20
237.11647395788904
 10
178.89801564019652
 20
236.17366491630688
 10
178.89801564019652
 20
234.75945135393394
 10
179.60512242138307
 20
234.05234457274736
 10
180.0765269421741
 20
234.52374909353836
 10
180.78363372336065
 20
233.81664231235177
 10
181.7264427649427
 20
231.93102422918764
 10
179.8408246817786
 20
231.45961970839667
 10
179.8408246817786
 20
225.33136093811314
 10
176.06958851545033
 20
225.33136093811314
 10
165.93439131844315
 20
226.50987224009089
 10
165.46298679765212
 20
226.98127676088185
 10
160.04183480855528
 20
228.63119258365037
  0
LWPOLYLINE
  5
4E
330
17
100
AcDbEntity
  8
ENG_D
100
AcDbPolyline
 90
8
 70
1
 10
174.1839704322862
 20
192.33304448274103
 10
174.1839704322862
 20
191.86163996194995
 10
173.71256591149518
 20
191.86163996194995
 10
177.95520659861447
 20
209.3036072312181
 10
179.60512242138307
 20
209.5393094916137
 10
179.8408246817786
 20
198.93270777381545
 10
177.01239755703241
 20
195.16147160748721
 10
174.1839704322862
 20
192.33304448274103
  0
LWPOLYLINE
  5
4F
330
17
100
AcDbEntity
  8
ENG_D
100
AcDbPolyline
 90
5
 70
1
 10
179.36942016098754
 20
211.18922531438233
 10
179.36942016098754
 20
212.60343887675538
 10
179.60512242138307
 20
212.83914113715085
 10
179.8408246817786
 20
211.18922531438233
 10
179.36942016098754
 20
211.18922531438233
  0
LWPOLYLINE
  5
50
330
17
100
AcDbEntity
  8
ENG_D
100
AcDbPolyline
 90
69
 70
1
 10
94.28090415820634
 20
58.21845831769246
 10
96.16652224137047
 20
59.63267188006549
 10
99.4663538869077
 20
59.63267188006549
 10
99.93775840769872
 20
59.16126735927452
 10
103.70899457402697
 20
59.16126735927452
 10
104.18039909481801
 20
58.68986283848343
 10
107.95163526114627
 20
58.68986283848343
 10
108.42303978193729
 20
58.21845831769246
 10
110.30865786510141
 20
58.21845831769246
 10
110.78006238589244
 20
55.390031192946275
 10
113.60848951063863
 20
55.390031192946275
 10
114.07989403142966
 20
57.74705379690137
 10
115.96551211459379
 20
56.80424475531931
 10
118.32253471854895
 20
56.80424475531931
 10
121.62236636408618
 20
55.390031192946275
 10
122.56517540566823
 20
55.390031192946275
 10
125.39360253041443
 20
53.97581763057313
 10
126.33641157199649
 20
53.97581763057313
 10
129.63624321753372
 20
56.80424475531931
 10
131.05045677990682
 20
56.80424475531931
 10
131.52186130069785
 20
57.2756492761104
 10
139.06433363335435
 20
57.2756492761104
 10
139.53573815414538
 20
57.74705379690137
 10
140.47854719572743
 20
57.2756492761104
 10
142.8355697996826
 20
57.2756492761104
 10
143.3069743204736
 20
57.74705379690137
 10
148.02101952838396
 20
57.74705379690137
 10
148.49242404917499
 20
58.21845831769246
 10
150.3780421323391
 20
58.21845831769246
 10
153.91357603827186
 20
55.625733453341766
 10
156.74200316301804
 20
43.84062043356596
 10
153.2064692570853
 20
39.83368200684223
 10
146.13540144521983
 20
41.24789556921527
 10
144.24978336205572
 20
42.190704610797326
 10
142.36416527889156
 20
42.190704610797326
 10
139.30003589374988
 20
38.1837661840736
 10
138.82863137295882
 20
34.88393453853633
 10
137.88582233137677
 20
32.99831645537221
 10
137.41441781058575
 20
30.641293851417117
 10
131.52186130069785
 20
27.577164466275338
 10
130.10764773832474
 20
26.162950903902306
 10
128.69343417595167
 20
26.162950903902306
 10
128.2220296551606
 20
26.63435542469328
 10
125.86500705120545
 20
23.334523779156125
 10
125.62930479080994
 20
30.16988933062603
 10
122.56517540566823
 20
30.40559159102152
 10
122.32947314527271
 20
17.441967269268165
 10
121.15096184329515
 20
15.792051446499533
 10
114.5512985522207
 20
17.677669529663653
 10
114.07989403142966
 20
18.14907405045474
 10
110.78006238589244
 20
18.620478571245712
 10
108.6587420423328
 20
16.027753706895133
 10
108.6587420423328
 20
15.08494466531307
 10
107.00882621956418
 20
12.963624321753354
 10
96.40222450176599
 20
13.19932658214884
 10
96.40222450176599
 20
19.79898987322337
 10
96.87362902255701
 20
20.270394394014346
 10
97.34503354334804
 20
32.99831645537221
 10
99.23065162651217
 20
37.712361663282515
 10
94.51660641860185
 20
42.8978113919839
 10
94.51660641860185
 20
43.36921591277498
 10
89.80256121069154
 20
49.026070162267345
 10
90.03826347108705
 20
49.73317694345391
 10
97.10933128295252
 20
49.73317694345391
 10
97.58073580374356
 20
50.20458146424489
 10
100.64486518888526
 20
50.44028372464038
 10
94.28090415820634
 20
56.80424475531931
 10
93.57379737701979
 20
57.0399470157148
 10
94.28090415820634
 20
58.21845831769246
  0
LWPOLYLINE
  5
51
330
17
100
AcDbEntity
  8
ENG_D
100
AcDbPolyline
 90
5
 70
1
 10
102.5304832720494
 20
16.499158227686106
 10
102.29478101165387
 20
29.934187070230543
 10
99.23065162651217
 20
29.69848480983506
 10
99.4663538869077
 20
16.263455967290618
 10
102.5304832720494
 20
16.499158227686106
  0
LWPOLYLINE
  5
52
330
17
100
AcDbEntity
  8
ENG_D
100
AcDbPolyline
 90
26
 70
1
 10
143.07127206007812
 20
240.88771012421728
 10
143.07127206007812
 20
246.54456437370965
 10
143.54267658086914
 20
247.01596889450062
 10
143.54267658086914
 20
248.90158697766475
 10
141.18565397691398
 20
250.31580054003788
 10
139.7714404145409
 20
253.14422766478418
 10
136.94301328979472
 20
262.57231808060476
 10
135.5287997274216
 20
265.4007452053511
 10
138.1215245917723
 20
266.57925650732864
 10
140.94995171651848
 20
267.0506610281196
 10
141.4213562373095
 20
267.5220655489106
 10
149.43523309075704
 20
267.5220655489106
 10
152.02795795510772
 20
266.343554246933
 10
152.49936247589878
 20
252.67282314399318
 10
153.2064692570853
 20
251.9657163628064
 10
156.74200316301804
 20
251.73001410241102
 10
156.74200316301804
 20
236.64506943709807
 10
156.5063009026225
 20
236.40936717670246
 10
154.14927829866738
 20
238.76638978065756
 10
153.67787377787633
 20
238.76638978065756
 10
150.84944665313014
 20
237.35217621828463
 10
144.24978336205572
 20
235.4665581351203
 10
143.77837884126464
 20
234.99515361432933
 10
142.5998675392871
 20
235.2308558747249
 10
142.5998675392871
 20
240.4163056034263
 10
143.07127206007812
 20
240.88771012421728
  0
LWPOLYLINE
  5
53
330
17
100
AcDbEntity
  8
ENG_D
100
AcDbPolyline
 90
18
 70
1
 10
152.49936247589878
 20
16.970562748477192
 10
152.9707669966898
 20
16.499158227686106
 10
152.9707669966898
 20
13.19932658214884
 10
144.01408110166017
 20
13.19932658214884
 10
142.12846301849603
 20
18.384776310850228
 10
142.12846301849603
 20
19.79898987322337
 10
141.18565397691398
 20
21.68460795638749
 10
141.18565397691398
 20
22.62741699796955
 10
140.71424945612296
 20
23.098821518760527
 10
140.71424945612296
 20
24.513035081133673
 10
139.30003589374988
 20
27.812866726670826
 10
139.06433363335435
 20
29.934187070230543
 10
149.43523309075704
 20
26.162950903902306
 10
150.3780421323391
 20
26.162950903902306
 10
152.02795795510772
 20
24.984439601924645
 10
152.02795795510772
 20
20.270394394014346
 10
152.49936247589878
 20
19.79898987322337
 10
152.49936247589878
 20
16.970562748477192
  0
LWPOLYLINE
  5
54
330
17
100
AcDbEntity
  8
ENG_D
100
AcDbPolyline
 90
24
 70
1
 10
113.37278725024312
 20
250.78720506082885
 10
112.42997820866105
 20
252.201418623202
 10
112.66568046905658
 20
252.4371208835976
 10
113.60848951063863
 20
252.90852540438857
 10
115.49410759380277
 20
252.90852540438857
 10
115.96551211459379
 20
253.37992992517954
 10
117.37972567696688
 20
252.90852540438857
 10
120.20815280171308
 20
254.7941434875527
 10
121.15096184329515
 20
254.7941434875527
 10
122.56517540566823
 20
255.73695252913487
 10
123.97938896804133
 20
255.73695252913487
 10
127.04351835318303
 20
258.3296773934853
 10
127.27922061357854
 20
259.0367841746721
 10
127.51492287397406
 20
258.80108191427655
 10
127.27922061357854
 20
252.4371208835976
 10
125.39360253041443
 20
251.49431184201543
 10
124.45079348883237
 20
251.49431184201543
 10
123.03657992645928
 20
250.55150280043347
 10
122.0937708848772
 20
250.55150280043347
 10
120.67955732250411
 20
249.6086937588513
 10
119.73674828092206
 20
249.6086937588513
 10
115.02270307301174
 20
247.2516711548962
 10
113.37278725024312
 20
249.84439601924691
 10
113.37278725024312
 20
250.78720506082885
  0
LWPOLYLINE
  5
55
330
17
100
AcDbEntity
  8
ENG_D
100
AcDbPolyline
 90
22
 70
1
 10
124.68649574922789
 20
128.6934341759517
 10
124.45079348883237
 20
128.4577319155562
 10
123.97938896804133
 20
128.9291364363472
 10
123.97938896804133
 20
127.98632739476513
 10
122.32947314527271
 20
127.75062513436963
 10
122.80087766606377
 20
126.80781609278758
 10
122.0937708848772
 20
126.100709311601
 10
120.67955732250411
 20
126.100709311601
 10
120.20815280171308
 20
125.62930479081002
 10
113.37278725024312
 20
126.33641157199649
 10
113.37278725024312
 20
127.27922061357866
 10
114.78700081261621
 20
128.6934341759517
 10
114.78700081261621
 20
129.63624321753375
 10
112.42997820866105
 20
132.936074863071
 10
111.95857368787003
 20
135.29309746702612
 10
111.01576464628798
 20
136.23590650860817
 10
115.02270307301174
 20
142.12846301849612
 10
122.32947314527271
 20
137.17871555019025
 10
122.56517540566823
 20
132.22896808188443
 10
125.15790027001891
 20
131.99326582148896
 10
124.68649574922789
 20
131.52186130069788
 10
124.68649574922789
 20
128.6934341759517
  0
LWPOLYLINE
  5
56
330
17
100
AcDbEntity
  8
ENG_D
100
AcDbPolyline
 90
4
 70
1
 10
120.91525958289962
 20
129.16483869674278
 10
120.67955732250411
 20
129.40054095713828
 10
120.4438550621086
 20
129.16483869674278
 10
120.91525958289962
 20
129.16483869674278
  0
LWPOLYLINE
  5
57
330
17
100
AcDbEntity
  8
ENG_D
100
AcDbPolyline
 90
5
 70
1
 10
117.85113019775793
 20
128.4577319155562
 10
117.6154279373624
 20
128.2220296551606
 10
118.32253471854895
 20
127.51492287397414
 10
118.55823697894446
 20
127.75062513436963
 10
117.85113019775793
 20
128.4577319155562
  0
LWPOLYLINE
  5
58
330
17
100
AcDbEntity
  8
ENG_D
100
AcDbPolyline
 90
5
 70
1
 10
123.2722821868548
 20
125.39360253041454
 10
123.2722821868548
 20
125.86500705120551
 10
123.50798444725031
 20
126.100709311601
 10
123.74368670764582
 20
125.39360253041454
 10
123.2722821868548
 20
125.39360253041454
  0
LWPOLYLINE
  5
59
330
17
100
AcDbEntity
  8
ENG_D
100
AcDbPolyline
 90
4
 70
1
 10
123.50798444725031
 20
126.57211383239209
 10
123.50798444725031
 20
127.04351835318306
 10
123.74368670764582
 20
126.80781609278758
 10
123.50798444725031
 20
126.57211383239209
  0
LWPOLYLINE
  5
5A
330
17
100
AcDbEntity
  8
ENG_D
100
AcDbPolyline
 90
14
 70
1
 10
113.37278725024312
 20
160.27753706895086
 10
112.66568046905658
 20
159.0990257669732
 10
110.54436012549692
 20
158.86332350657773
 10
110.54436012549692
 20
156.03489638183154
 10
109.36584882351936
 20
154.856385079854
 10
104.18039909481801
 20
155.32778960064496
 10
102.5304832720494
 20
156.9777054234136
 10
102.5304832720494
 20
158.86332350657773
 10
103.23759005323595
 20
159.5704302877643
 10
105.59461265719109
 20
159.5704302877643
 10
106.06601717798213
 20
160.04183480855528
 10
109.36584882351936
 20
160.04183480855528
 10
109.83725334431038
 20
160.51323932934636
 10
113.37278725024312
 20
160.27753706895086
  0
LWPOLYLINE
  5
5B
330
17
100
AcDbEntity
  8
ENG_D
100
AcDbPolyline
 90
18
 70
1
 10
91.92388155425118
 20
183.6120608481069
 10
92.86669059583325
 20
183.6120608481069
 10
96.87362902255701
 20
179.60512242138316
 10
96.87362902255701
 20
177.24809981742794
 10
97.34503354334804
 20
176.77669529663697
 10
97.81643806413908
 20
172.06265008872657
 10
97.10933128295252
 20
171.3555433075401
 10
95.22371319978839
 20
170.88413878674902
 10
90.98107251266912
 20
168.52711618279392
 10
90.03826347108705
 20
168.52711618279392
 10
88.62404990871396
 20
167.58430714121187
 10
87.91694312752742
 20
167.82000940160736
 10
87.44553860673638
 20
171.1198410471446
 10
86.97413408594534
 20
171.5912455679356
 10
86.50272956515431
 20
178.19090885901002
 10
89.80256121069154
 20
182.9049540669203
 10
91.45247703346014
 20
184.08346536889798
 10
91.92388155425118
 20
183.6120608481069
  0
LWPOLYLINE
  5
5C
330
17
100
AcDbEntity
  8
ENG_K
100
AcDbPolyline
 90
12
 70
1
 10
197.7541964718378
 20
96.16652224137046
 10
199.87551681539745
 20
98.28784258493017
 10
203.64675298172568
 20
99.23065162651224
 10
210.01071401240463
 20
90.98107251266919
 10
200.34692133618847
 20
85.5599205235723
 10
199.40411229460642
 20
84.61711148199025
 10
196.81138743025573
 20
90.50966799187809
 10
196.81138743025573
 20
91.45247703346016
 10
197.28279195104676
 20
91.92388155425124
 10
197.28279195104676
 20
94.75230867899742
 10
197.7541964718378
 20
95.22371319978839
 10
197.7541964718378
 20
96.16652224137046
  0
LWPOLYLINE
  5
5D
330
17
100
AcDbEntity
  8
ENG_K
100
AcDbPolyline
 90
6
 70
1
 10
206.4751801064719
 20
34.648232278140846
 10
207.65369140844948
 20
33.469720976163295
 10
208.59650045003153
 20
31.584102892999177
 10
206.94658462726292
 20
30.876996111812606
 10
206.23947784607634
 20
31.112698372208094
 10
206.4751801064719
 20
34.648232278140846
  0
LWPOLYLINE
  5
5E
330
17
100
AcDbEntity
  8
ENG_K
100
AcDbPolyline
 90
12
 70
1
 10
202.93964620053913
 20
41.95500235040184
 10
202.93964620053913
 20
30.16988933062603
 10
199.40411229460642
 20
29.46278254943946
 10
196.5756851698602
 20
25.220141862320244
 10
194.9257693470916
 20
25.927248643506708
 10
195.16147160748713
 20
49.26177242266283
 10
197.7541964718378
 20
47.14045207910323
 10
197.7541964718378
 20
46.19764303752116
 10
197.28279195104676
 20
45.72623851673008
 10
197.51849421144226
 20
45.0191317355435
 10
201.28973037777052
 20
44.54772721475253
 10
202.93964620053913
 20
41.95500235040184
  0
LWPOLYLINE
  5
5F
330
17
100
AcDbEntity
  8
ENG_K
100
AcDbPolyline
 90
13
 70
1
 10
183.14065632731584
 20
53.26871084938656
 10
182.66925180652476
 20
53.74011537017764
 10
182.90495406692028
 20
56.80424475531931
 10
191.6259377015544
 20
51.38309276622244
 10
191.6259377015544
 20
26.39865316429779
 10
184.55486988968892
 20
27.812866726670826
 10
184.55486988968892
 20
44.31202495435704
 10
184.0834653688979
 20
44.78342947514802
 10
184.0834653688979
 20
47.611856599894196
 10
183.61206084810686
 20
48.083261120685286
 10
183.61206084810686
 20
50.44028372464038
 10
183.14065632731584
 20
50.91168824543146
 10
183.14065632731584
 20
53.26871084938656
  0
LWPOLYLINE
  5
60
330
17
100
AcDbEntity
  8
ENG_K
100
AcDbPolyline
 90
82
 70
1
 10
168.29141392239833
 20
152.0279579551078
 10
168.0557116620028
 20
164.99158227686118
 10
160.7489415897418
 20
165.22728453725665
 10
160.04183480855528
 20
165.93439131844323
 10
160.27753706895078
 20
228.39549032325502
 10
165.46298679765212
 20
226.98127676088185
 10
165.93439131844315
 20
226.50987224009089
 10
167.8200094016073
 20
226.50987224009089
 10
168.29141392239833
 20
226.0384677192997
 10
172.06265008872657
 20
226.0384677192997
 10
172.5340546095176
 20
225.56706319850872
 10
175.5981839946593
 20
225.33136093811314
 10
176.06958851545033
 20
222.97433833415803
 10
176.5409930362414
 20
222.50293381336706
 10
176.5409930362414
 20
221.0887202509939
 10
177.48380207782344
 20
219.2031021678298
 10
177.48380207782344
 20
217.78888860545675
 10
178.4266111194055
 20
215.90327052229253
 10
178.4266111194055
 20
214.48905695991948
 10
179.36942016098754
 20
212.60343887675538
 10
179.8408246817786
 20
209.7750117520092
 10
178.19090885901
 20
209.5393094916137
 10
177.48380207782344
 20
207.88939366884506
 10
176.06958851545033
 20
200.81832585697956
 10
175.5981839946593
 20
200.3469213361886
 10
175.5981839946593
 20
198.93270777381545
 10
175.12677947386825
 20
198.46130325302448
 10
175.12677947386825
 20
197.04708969065132
 10
174.65537495307723
 20
196.57568516986035
 10
174.65537495307723
 20
195.16147160748721
 10
174.1839704322862
 20
194.6900670866961
 10
174.1839704322862
 20
193.27585352432308
 10
173.71256591149518
 20
192.804449003532
 10
173.94826817189067
 20
191.62593770155445
 10
179.60512242138307
 20
198.69700551341995
 10
180.0765269421741
 20
194.9257693470916
 10
183.14065632731584
 20
195.16147160748721
 10
183.14065632731584
 20
202.7039439401437
 10
188.56180831641268
 20
209.0679049708226
 10
189.74031961839026
 20
209.3036072312181
 10
189.2689150975992
 20
205.06096654409887
 10
188.79751057680818
 20
204.5895620233078
 10
188.79751057680818
 20
202.23253941935272
 10
188.32610605601715
 20
201.76113489856164
 10
188.32610605601715
 20
199.8755168153975
 10
187.85470153522613
 20
199.40411229460642
 10
187.85470153522613
 20
197.04708969065132
 10
187.3832970144351
 20
196.57568516986035
 10
187.3832970144351
 20
194.6900670866961
 10
186.91189249364407
 20
194.21866256590513
 10
186.91189249364407
 20
191.86163996194995
 10
186.44048797285305
 20
191.39023544115895
 10
186.44048797285305
 20
189.03321283720376
 10
185.49767893127097
 20
186.67619023324855
 10
185.49767893127097
 20
184.79057215008444
 10
184.79057215008444
 20
184.55486988968894
 10
183.14065632731584
 20
185.26197667087553
 10
182.90495406692028
 20
190.21172413918143
 10
180.0765269421741
 20
190.21172413918143
 10
179.8408246817786
 20
186.20478571245758
 10
177.95520659861447
 20
186.20478571245758
 10
177.95520659861447
 20
170.17703200556244
 10
176.5409930362414
 20
168.29141392239833
 10
176.5409930362414
 20
167.34860488081637
 10
178.89801564019652
 20
164.99158227686118
 10
179.36942016098754
 20
159.3347280273687
 10
179.8408246817786
 20
158.86332350657773
 10
179.8408246817786
 20
156.03489638183154
 10
180.31222920256963
 20
155.56349186104046
 10
180.31222920256963
 20
152.2636602155033
 10
179.60512242138307
 20
151.08514891352564
 10
177.2480998174279
 20
151.08514891352564
 10
176.06958851545033
 20
149.9066376115481
 10
174.65537495307723
 20
144.72118788284672
 10
173.71256591149518
 20
143.30697432047367
 10
173.71256591149518
 20
140.4785471957275
 10
175.5981839946593
 20
137.65012007098133
 10
172.76975686991312
 20
137.65012007098133
 10
171.82694782833104
 20
138.1215245917723
 10
171.82694782833104
 20
159.3347280273687
 10
168.52711618279383
 20
159.3347280273687
 10
168.29141392239833
 20
152.0279579551078
  0
LWPOLYLINE
  5
61
330
17
100
AcDbEntity
  8
ENG_K
100
AcDbPolyline
 90
18
 70
1
 10
172.76975686991312
 20
110.30865786510147
 10
173.24116139070415
 20
110.78006238589244
 10
173.47686365109965
 20
112.42997820866107
 10
177.71950433821894
 20
112.90138272945217
 10
178.66231337980102
 20
112.42997820866107
 10
179.8408246817786
 20
111.25146690668353
 10
180.0765269421741
 20
108.18733752154186
 10
182.90495406692028
 20
108.18733752154186
 10
183.37635858771134
 20
109.13014656312392
 10
185.02627441047994
 20
108.42303978193735
 10
185.02627441047994
 20
98.52354484532566
 10
183.84776310850236
 20
97.34503354334811
 10
171.35554330754002
 20
100.40916292848978
 10
171.82694782833104
 20
104.65180361560911
 10
172.29835234912207
 20
105.12320813640008
 10
172.29835234912207
 20
107.48023074035528
 10
172.76975686991312
 20
107.95163526114627
 10
172.76975686991312
 20
110.30865786510147
  0
LWPOLYLINE
  5
62
330
17
100
AcDbEntity
  8
ENG_K
100
AcDbPolyline
 90
14
 70
1
 10
169.2342229639804
 20
82.73149339882613
 10
173.47686365109965
 20
82.73149339882613
 10
173.71256591149518
 20
78.72455497210228
 10
172.76975686991312
 20
76.3675323681472
 10
172.76975686991312
 20
74.48191428498308
 10
171.82694782833104
 20
72.12489168102788
 10
171.35554330754002
 20
68.82506003549061
 10
168.76281844318936
 20
67.64654873351306
 10
167.11290262042073
 20
67.88225099390854
 10
164.28447549567454
 20
71.65348716023678
 10
166.17009357883867
 20
75.42472332656513
 10
166.17009357883867
 20
76.3675323681472
 10
168.99852070358486
 20
81.55298209684847
 10
169.2342229639804
 20
82.73149339882613
  0
LWPOLYLINE
  5
63
330
17
100
AcDbEntity
  8
ENG_K
100
AcDbPolyline
 90
8
 70
1
 10
167.11290262042073
 20
144.72118788284672
 10
168.29141392239833
 20
147.3139127471974
 10
168.52711618279383
 20
138.1215245917723
 10
167.11290262042073
 20
138.1215245917723
 10
166.17009357883867
 20
139.53573815414543
 10
166.17009357883867
 20
140.4785471957275
 10
165.2272845372566
 20
142.36416527889162
 10
167.11290262042073
 20
144.72118788284672
  0
LWPOLYLINE
  5
64
330
17
100
AcDbEntity
  8
ENG_K
100
AcDbPolyline
 90
14
 70
1
 10
151.08514891352564
 20
59.39696961967
 10
152.02795795510772
 20
60.33977866125206
 10
152.02795795510772
 20
61.28258770283412
 10
154.14927829866738
 20
63.875312567184814
 10
160.7489415897418
 20
57.74705379690137
 10
162.63455967290594
 20
56.80424475531931
 10
163.81307097488352
 20
55.625733453341766
 10
160.04183480855528
 20
55.625733453341766
 10
159.80613254815975
 20
57.74705379690137
 10
156.97770542341354
 20
57.74705379690137
 10
156.5063009026225
 20
55.86143571373725
 10
153.67787377787633
 20
55.86143571373725
 10
150.61374439273462
 20
57.98275605729697
 10
151.08514891352564
 20
59.39696961967
  0
LWPOLYLINE
  5
65
330
17
100
AcDbEntity
  8
ENG_K
100
AcDbPolyline
 90
19
 70
1
 10
146.37110370561535
 20
160.74894158974183
 10
146.84250822640638
 20
161.22034611053294
 10
146.84250822640638
 20
163.10596419369705
 10
147.78531726798843
 20
165.46298679765215
 10
147.78531726798843
 20
166.87720036002528
 10
148.25672178877946
 20
167.34860488081637
 10
148.72812630957048
 20
170.64843652635352
 10
154.38498055906288
 20
170.64843652635352
 10
156.5063009026225
 20
180.31222920256963
 10
156.74200316301804
 20
165.93439131844323
 10
155.32778960064493
 20
164.5201777560701
 10
153.2064692570853
 20
159.0990257669732
 10
149.43523309075704
 20
157.2134076838091
 10
148.49242404917499
 20
157.2134076838091
 10
146.13540144521983
 20
155.79919412143605
 10
145.42829466403327
 20
156.03489638183154
 10
146.37110370561535
 20
159.80613254815978
 10
148.72812630957048
 20
160.27753706895086
 10
146.37110370561535
 20
160.74894158974183
  0
LWPOLYLINE
  5
66
330
17
100
AcDbEntity
  8
ENG_K
100
AcDbPolyline
 90
23
 70
1
 10
154.8563850798539
 20
215.90327052229253
 10
154.8563850798539
 20
216.8460795638747
 10
152.02795795510772
 20
222.03152929257607
 10
152.02795795510772
 20
223.445742854949
 10
150.1423398719436
 20
224.38855189653117
 10
150.1423398719436
 20
225.33136093811314
 10
149.67093535115256
 20
225.80276545890433
 10
149.67093535115256
 20
228.1597880628594
 10
149.19953083036154
 20
228.63119258365037
 10
149.19953083036154
 20
230.5168106668145
 10
148.72812630957048
 20
230.9882151876057
 10
148.72812630957048
 20
232.87383327076984
 10
148.25672178877946
 20
233.3452377915608
 10
148.25672178877946
 20
235.7022603955159
 10
147.78531726798843
 20
236.17366491630688
 10
148.49242404917499
 20
236.88077169749343
 10
150.84944665313014
 20
237.35217621828463
 10
153.67787377787633
 20
238.76638978065756
 10
154.14927829866738
 20
238.76638978065756
 10
156.74200316301804
 20
236.17366491630688
 10
156.74200316301804
 20
213.07484339754646
 10
156.27059864222701
 20
213.07484339754646
 10
154.8563850798539
 20
215.90327052229253
  0
LWPOLYLINE
  5
67
330
17
100
AcDbEntity
  8
ENG_K
100
AcDbPolyline
 90
22
 70
1
 10
155.799194121436
 20
183.3763585877114
 10
155.799194121436
 20
185.7333811916666
 10
155.32778960064493
 20
186.20478571245758
 10
155.32778960064493
 20
188.09040379562168
 10
154.8563850798539
 20
188.5618083164128
 10
154.8563850798539
 20
190.4474263995769
 10
154.38498055906288
 20
190.91883092036787
 10
154.38498055906288
 20
193.27585352432308
 10
153.91357603827186
 20
193.74725804511405
 10
153.91357603827186
 20
194.6900670866961
 10
152.9707669966898
 20
195.63287612827818
 10
152.49936247589878
 20
197.98989873223337
 10
152.02795795510772
 20
198.46130325302448
 10
152.02795795510772
 20
201.76113489856164
 10
151.08514891352564
 20
203.64675298172574
 10
151.08514891352564
 20
205.53237106488987
 10
153.44217151748083
 20
208.83220271042714
 10
156.5063009026225
 20
211.42492757477783
 10
156.74200316301804
 20
181.96214502533837
 10
156.27059864222701
 20
181.96214502533837
 10
156.27059864222701
 20
182.9049540669203
 10
155.799194121436
 20
183.3763585877114
  0
LWPOLYLINE
  5
68
330
17
100
AcDbEntity
  8
ENG_K
100
AcDbPolyline
 90
5
 70
1
 10
125.86500705120545
 20
12.963624321753354
 10
125.86500705120545
 20
14.3778378841265
 10
126.80781609278752
 20
14.3778378841265
 10
129.40054095713822
 20
13.19932658214884
 10
125.86500705120545
 20
12.963624321753354
  0
LWPOLYLINE
  5
69
330
17
100
AcDbEntity
  8
ENG_K
100
AcDbPolyline
 90
11
 70
1
 10
120.67955732250411
 20
15.792051446499533
 10
122.32947314527271
 20
15.556349186104047
 10
122.0937708848772
 20
12.963624321753354
 10
107.24452847995971
 20
13.19932658214884
 10
108.6587420423328
 20
15.08494466531307
 10
108.6587420423328
 20
16.027753706895133
 10
110.78006238589244
 20
18.620478571245712
 10
114.07989403142966
 20
18.14907405045474
 10
117.37972567696688
 20
16.734860488081594
 10
118.79393923933999
 20
16.734860488081594
 10
120.67955732250411
 20
15.792051446499533
  0
LWPOLYLINE
  5
6A
330
17
100
AcDbEntity
  8
CUT_SLOT
100
AcDbPolyline
 90
5
 70
1
 10
191.60082965680692
 20
0.0
 10
195.16493127194468
 20
0.0
 10
195.16493127194468
 20
141.42135623730957
 10
191.60082965680692
 20
141.42135623730957
 10
191.60082965680692
 20
0.0
  0
LWPOLYLINE
  5
6B
330
17
100
AcDbEntity
  8
CUT_SLOT
100
AcDbPolyline
 90
5
 70
1
 10
168.5068188892219
 20
0.0
 10
172.07092050435966
 20
0.0
 10
172.07092050435966
 20
141.42135623730957
 10
168.5068188892219
 20
141.42135623730957
 10
168.5068188892219
 20
0.0
  0
LWPOLYLINE
  5
6C
330
17
100
AcDbEntity
  8
CUT_SLOT
100
AcDbPolyline
 90
5
 70
1
 10
145.41280812163686
 20
0.0
 10
148.97690973677462
 20
0.0
 10
148.97690973677462
 20
141.42135623730957
 10
145.41280812163686
 20
141.42135623730957
 10
145.41280812163686
 20
0.0
  0
LWPOLYLINE
  5
6D
330
17
100
AcDbEntity
  8
CUT_SLOT
100
AcDbPolyline
 90
5
 70
1
 10
122.31879735405184
 20
0.0
 10
125.88289896918958
 20
0.0
 10
125.88289896918958
 20
141.42135623730957
 10
122.31879735405184
 20
141.42135623730957
 10
122.31879735405184
 20
0.0
  0
LWPOLYLINE
  5
6E
330
17
100
AcDbEntity
  8
CUT_SLOT
100
AcDbPolyline
 90
5
 70
1
 10
99.2247865864668
 20
0.0
 10
102.78888820160456
 20
0.0
 10
102.78888820160456
 20
141.42135623730957
 10
99.2247865864668
 20
141.42135623730957
 10
99.2247865864668
 20
0.0
  0
LWPOLYLINE
  5
6F
330
17
100
AcDbEntity
  8
CUT_SLOT
100
AcDbPolyline
 90
5
 70
1
 10
76.13077581888177
 20
0.0
 10
79.69487743401955
 20
0.0
 10
79.69487743401955
 20
141.42135623730957
 10
76.13077581888177
 20
141.42135623730957
 10
76.13077581888177
 20
0.0
  0
LWPOLYLINE
  5
70
330
17
100
AcDbEntity
  8
CUT_SLOT
100
AcDbPolyline
 90
5
 70
1
 10
203.14783504059943
 20
0.0
 10
206.7119366557372
 20
0.0
 10
206.7119366557372
 20
141.42135623730957
 10
203.14783504059943
 20
141.42135623730957
 10
203.14783504059943
 20
0.0
  0
LWPOLYLINE
  5
71
330
17
100
AcDbEntity
  8
CUT_SLOT
100
AcDbPolyline
 90
5
 70
1
 10
180.0538242730144
 20
0.0
 10
183.61792588815217
 20
0.0
 10
183.61792588815217
 20
141.42135623730957
 10
180.0538242730144
 20
141.42135623730957
 10
180.0538242730144
 20
0.0
  0
LWPOLYLINE
  5
72
330
17
100
AcDbEntity
  8
CUT_SLOT
100
AcDbPolyline
 90
5
 70
1
 10
156.95981350542942
 20
0.0
 10
160.52391512056718
 20
0.0
 10
160.52391512056718
 20
141.42135623730957
 10
156.95981350542942
 20
141.42135623730957
 10
156.95981350542942
 20
0.0
  0
LWPOLYLINE
  5
73
330
17
100
AcDbEntity
  8
CUT_SLOT
100
AcDbPolyline
 90
5
 70
1
 10
133.86580273784438
 20
0.0
 10
137.42990435298213
 20
0.0
 10
137.42990435298213
 20
141.42135623730957
 10
133.86580273784438
 20
141.42135623730957
 10
133.86580273784438
 20
0.0
  0
LWPOLYLINE
  5
74
330
17
100
AcDbEntity
  8
CUT_SLOT
100
AcDbPolyline
 90
5
 70
1
 10
110.77179197025934
 20
0.0
 10
114.3358935853971
 20
0.0
 10
114.3358935853971
 20
141.42135623730957
 10
110.77179197025934
 20
141.42135623730957
 10
110.77179197025934
 20
0.0
  0
LWPOLYLINE
  5
75
330
17
100
AcDbEntity
  8
CUT_SLOT
100
AcDbPolyline
 90
5
 70
1
 10
87.67778120267431
 20
0.0
 10
91.24188281781207
 20
0.0
 10
91.24188281781207
 20
141.42135623730957
 10
87.67778120267431
 20
141.42135623730957
 10
87.67778120267431
 20
0.0
  0
LWPOLYLINE
  5
76
330
17
100
AcDbEntity
  8
CUT_OUTLINE
100
AcDbPolyline
 90
5
 70
1
 10
0.0
 20
0.0
 10
282.842712474619
 20
0.0
 10
282.842712474619
 20
282.84271247461913
 10
0.0
 20
282.84271247461913
 10
0.0
 20
0.0
  0
ENDSEC
  0
SECTION
  2
OBJECTS
  0
DICTIONARY
  5
A
330
0
100
AcDbDictionary
281
1
  3
ACAD_COLOR
350
B
  3
ACAD_GROUP
350
C
  3
ACAD_LAYOUT
350
D
  3
ACAD_MATERIAL
350
E
  3
ACAD_MLEADERSTYLE
350
F
  3
ACAD_MLINESTYLE
350
10
  3
ACAD_PLOTSETTINGS
350
11
  3
ACAD_PLOTSTYLENAME
350
12
  3
ACAD_SCALELIST
350
14
  3
ACAD_TABLESTYLE
350
15
  3
ACAD_VISUALSTYLE
350
16
  3
EZDXF_META
350
2D
  0
DICTIONARY
  5
B
330
A
100
AcDbDictionary
281
1
  0
DICTIONARY
  5
C
330
A
100
AcDbDictionary
281
1
  0
DICTIONARY
  5
D
330
A
100
AcDbDictionary
281
1
  3
Model
350
1A
  3
Layout1
350
1E
  0
DICTIONARY
  5
E
330
A
100
AcDbDictionary
281
1
  3
ByBlock
350
1F
  3
ByLayer
350
20
  3
Global
350
21
  0
DICTIONARY
  5
F
330
A
100
AcDbDictionary
281
1
  3
Standard
350
2C
  0
DICTIONARY
  5
10
330
A
100
AcDbDictionary
281
1
  3
Standard
350
22
  0
DICTIONARY
  5
11
330
A
100
AcDbDictionary
281
1
  0
ACDBDICTIONARYWDFLT
  5
12
330
A
100
AcDbDictionary
281
1
  3
Normal
350
13
100
AcDbDictionaryWithDefault
340
13
  0
ACDBPLACEHOLDER
  5
13
330
12
  0
DICTIONARY
  5
14
330
A
100
AcDbDictionary
281
1
  0
DICTIONARY
  5
15
330
A
100
AcDbDictionary
281
1
  0
DICTIONARY
  5
16
330
A
100
AcDbDictionary
281
1
  0
LAYOUT
  5
1A
330
D
100
AcDbPlotSettings
  1

  4
A3
  6

 40
7.5
 41
20.0
 42
7.5
 43
20.0
 44
420.0
 45
297.0
 46
0.0
 47
0.0
 48
0.0
 49
0.0
140
0.0
141
0.0
142
1.0
143
1.0
 70
1024
 72
1
 73
0
 74
5
  7

 75
16
 76
0
 77
2
 78
300
147
1.0
148
0.0
149
0.0
100
AcDbLayout
  1
Model
 70
1
 71
0
 10
0.0
 20
0.0
 11
420.0
 21
297.0
 12
0.0
 22
0.0
 32
0.0
 14
1e+20
 24
1e+20
 34
1e+20
 15
-1e+20
 25
-1e+20
 35
-1e+20
146
0.0
 13
0.0
 23
0.0
 33
0.0
 16
1.0
 26
0.0
 36
0.0
 17
0.0
 27
1.0
 37
0.0
 76
1
330
17
  0
LAYOUT
  5
1E
330
D
100
AcDbPlotSettings
  1

  4
A3
  6

 40
7.5
 41
20.0
 42
7.5
 43
20.0
 44
420.0
 45
297.0
 46
0.0
 47
0.0
 48
0.0
 49
0.0
140
0.0
141
0.0
142
1.0
143
1.0
 70
0
 72
1
 73
0
 74
5
  7

 75
16
 76
0
 77
2
 78
300
147
1.0
148
0.0
149
0.0
100
AcDbLayout
  1
Layout1
 70
1
 71
1
 10
0.0
 20
0.0
 11
420.0
 21
297.0
 12
0.0
 22
0.0
 32
0.0
 14
1e+20
 24
1e+20
 34
1e+20
 15
-1e+20
 25
-1e+20
 35
-1e+20
146
0.0
 13
0.0
 23
0.0
 33
0.0
 16
1.0
 26
0.0
 36
0.0
 17
0.0
 27
1.0
 37
0.0
 76
1
330
1B
  0
MATERIAL
  5
1F
102
{ACAD_REACTORS
330
E
102
}
330
E
100
AcDbMaterial
  1
ByBlock
  2

 70
0
 40
1.0
 71
1
 41
1.0
 91
-1023410177
 42
1.0
 72
1
  3

 73
1
 74
1
 75
1
 44
0.5
 73
0
 45
1.0
 46
1.0
 77
1
  4

 78
1
 79
1
170
1
 48
1.0
171
1
  6

172
1
173
1
174
1
140
1.0
141
1.0
175
1
  7

176
1
177
1
178
1
143
1.0
179
1
  8

270
1
271
1
272
1
145
1.0
146
1.0
273
1
  9

274
1
275
1
276
1
 42
1.0
 72
1
  3

 73
1
 74
1
 75
1
 94
63
  0
MATERIAL
  5
20
102
{ACAD_REACTORS
330
E
102
}
330
E
100
AcDbMaterial
  1
ByLayer
  2

 70
0
 40
1.0
 71
1
 41
1.0
 91
-1023410177
 42
1.0
 72
1
  3

 73
1
 74
1
 75
1
 44
0.5
 73
0
 45
1.0
 46
1.0
 77
1
  4

 78
1
 79
1
170
1
 48
1.0
171
1
  6

172
1
173
1
174
1
140
1.0
141
1.0
175
1
  7

176
1
177
1
178
1
143
1.0
179
1
  8

270
1
271
1
272
1
145
1.0
146
1.0
273
1
  9

274
1
275
1
276
1
 42
1.0
 72
1
  3

 73
1
 74
1
 75
1
 94
63
  0
MATERIAL
  5
21
102
{ACAD_REACTORS
330
E
102
}
330
E
100
AcDbMaterial
  1
Global
  2

 70
0
 40
1.0
 71
1
 41
1.0
 91
-1023410177
 42
1.0
 72
1
  3

 73
1
 74
1
 75
1
 44
0.5
 73
0
 45
1.0
 46
1.0
 77
1
  4

 78
1
 79
1
170
1
 48
1.0
171
1
  6

172
1
173
1
174
1
140
1.0
141
1.0
175
1
  7

176
1
177
1
178
1
143
1.0
179
1
  8

270
1
271
1
272
1
145
1.0
146
1.0
273
1
  9

274
1
275
1
276
1
 42
1.0
 72
1
  3

 73
1
 74
1
 75
1
 94
63
  0
MLINESTYLE
  5
22
102
{ACAD_REACTORS
330
10
102
}
330
10
100
AcDbMlineStyle
  2
Standard
 70
0
  3

 62
256
 51
90.0
 52
90.0
 71
2
 49
0.5
 62
256
  6
BYLAYER
 49
-0.5
 62
256
  6
BYLAYER
  0
MLEADERSTYLE
  5
2C
102
{ACAD_REACTORS
330
F
102
}
330
F
100
AcDbMLeaderStyle
179
2
170
2
171
1
172
0
 90
2
 40
0.0
 41
0.0
173
1
 91
-1056964608
 92
-2
290
1
 42
2.0
291
1
 43
8.0
  3
Standard
 44
4.0
300

342
29
174
1
175
1
176
0
178
1
 93
-1056964608
 45
4.0
292
0
297
0
 46
4.0
 94
-1056964608
 47
1.0
 49
1.0
140
1.0
294
1
141
0.0
177
0
142
1.0
295
0
296
0
143
3.75
271
0
272
9
273
9
  0
DICTIONARY
  5
2D
330
A
100
AcDbDictionary
280
1
281
1
  3
CREATED_BY_EZDXF
350
2E
  3
WRITTEN_BY_EZDXF
350
79
  0
DICTIONARYVAR
  5
2E
330
2D
100
DictionaryVariables
280
0
  1
1.4.4 @ 2026-08-03T11:44:36.123084+00:00
  0
DICTIONARYVAR
  5
79
330
2D
100
DictionaryVariables
280
0
  1
1.4.4 @ 2026-08-03T11:44:36.132700+00:00
  0
ENDSEC
  0
EOF
