  0
SECTION
  2
HEADER
  9
$ACADVER
  1
AC1027
  9
$ACADMAINTVER
 70
105
  9
$DWGCODEPAGE
  3
ANSI_1252
  9
$LASTSAVEDBY
  1
ezdxf
  9
$REQUIREDVERSIONS
160
0
  9
$INSBASE
 10
0.0
 20
0.0
 30
0.0
  9
$EXTMIN
 10
1e+20
 20
1e+20
 30
1e+20
  9
$EXTMAX
 10
-1e+20
 20
-1e+20
 30
-1e+20
  9
$LIMMIN
 10
0.0
 20
0.0
  9
$LIMMAX
 10
420.0
 20
297.0
  9
$ORTHOMODE
 70
0
  9
$REGENMODE
 70
1
  9
$FILLMODE
 70
1
  9
$QTEXTMODE
 70
0
  9
$MIRRTEXT
 70
1
  9
$LTSCALE
 40
1.0
  9
$ATTMODE
 70
1
  9
$TEXTSIZE
 40
2.5
  9
$TRACEWID
 40
1.0
  9
$TEXTSTYLE
  7
Standard
  9
$CLAYER
  8
0
  9
$CELTYPE
  6
ByLayer
  9
$CECOLOR
 62
256
  9
$CELTSCALE
 40
1.0
  9
$DISPSILH
 70
0
  9
$DIMSCALE
 40
1.0
  9
$DIMASZ
 40
2.5
  9
$DIMEXO
 40
0.625
  9
$DIMDLI
 40
3.75
  9
$DIMRND
 40
0.0
  9
$DIMDLE
 40
0.0
  9
$DIMEXE
 40
1.25
  9
$DIMTP
 40
0.0
  9
$DIMTM
 40
0.0
  9
$DIMTXT
 40
2.5
  9
$DIMCEN
 40
2.5
  9
$DIMTSZ
 40
0.0
  9
$DIMTOL
 70
0
  9
$DIMLIM
 70
0
  9
$DIMTIH
 70
0
  9
$DIMTOH
 70
0
  9
$DIMSE1
 70
0
  9
$DIMSE2
 70
0
  9
$DIMTAD
 70
1
  9
$DIMZIN
 70
8
  9
$DIMBLK
  1

  9
$DIMASO
 70
1
  9
$DIMSHO
 70
1
  9
$DIMPOST
  1

  9
$DIMAPOST
  1

  9
$DIMALT
 70
0
  9
$DIMALTD
 70
3
  9
$DIMALTF
 40
0.03937007874
  9
$DIMLFAC
 40
1.0
  9
$DIMTOFL
 70
1
  9
$DIMTVP
 40
0.0
  9
$DIMTIX
 70
0
  9
$DIMSOXD
 70
0
  9
$DIMSAH
 70
0
  9
$DIMBLK1
  1

  9
$DIMBLK2
  1

  9
$DIMSTYLE
  2
ISO-25
  9
$DIMCLRD
 70
0
  9
$DIMCLRE
 70
0
  9
$DIMCLRT
 70
0
  9
$DIMTFAC
 40
1.0
  9
$DIMGAP
 40
0.625
  9
$DIMJUST
 70
0
  9
$DIMSD1
 70
0
  9
$DIMSD2
 70
0
  9
$DIMTOLJ
 70
0
  9
$DIMTZIN
 70
8
  9
$DIMALTZ
 70
0
  9
$DIMALTTZ
 70
0
  9
$DIMUPT
 70
0
  9
$DIMDEC
 70
2
  9
$DIMTDEC
 70
2
  9
$DIMALTU
 70
2
  9
$DIMALTTD
 70
3
  9
$DIMTXSTY
  7
Standard
  9
$DIMAUNIT
 70
0
  9
$DIMADEC
 70
0
  9
$DIMALTRND
 40
0.0
  9
$DIMAZIN
 70
0
  9
$DIMDSEP
 70
44
  9
$DIMATFIT
 70
3
  9
$DIMFRAC
 70
0
  9
$DIMLDRBLK
  1

  9
$DIMLUNIT
 70
2
  9
$DIMLWD
 70
-2
  9
$DIMLWE
 70
-2
  9
$DIMTMOVE
 70
0
  9
$DIMFXL
 40
1.0
  9
$DIMFXLON
 70
0
  9
$DIMJOGANG
 40
0.785398163397
  9
$DIMTFILL
 70
0
  9
$DIMTFILLCLR
 70
0
  9
$DIMARCSYM
 70
0
  9
$DIMLTYPE
  6

  9
$DIMLTEX1
  6

  9
$DIMLTEX2
  6

  9
$DIMTXTDIRECTION
 70
0
  9
$LUNITS
 70
2
  9
$LUPREC
 70
4
  9
$SKETCHINC
 40
1.0
  9
$FILLETRAD
 40
10.0
  9
$AUNITS
 70
0
  9
$AUPREC
 70
2
  9
$MENU
  1
.
  9
$ELEVATION
 40
0.0
  9
$PELEVATION
 40
0.0
  9
$THICKNESS
 40
0.0
  9
$LIMCHECK
 70
0
  9
$CHAMFERA
 40
0.0
  9
$CHAMFERB
 40
0.0
  9
$CHAMFERC
 40
0.0
  9
$CHAMFERD
 40
0.0
  9
$SKPOLY
 70
0
  9
$TDCREATE
 40
2461256.6142939813
  9
$TDUCREATE
 40
2458532.153996898
  9
$TDUPDATE
 40
2461256.6143055554
  9
$TDUUPDATE
 40
2458532.1544311
  9
$TDINDWG
 40
0.0
  9
$TDUSRTIMER
 40
0.0
  9
$USRTIMER
 70
1
  9
$ANGBASE
 50
0.0
  9
$ANGDIR
 70
0
  9
$PDMODE
 70
0
  9
$PDSIZE
 40
0.0
  9
$PLINEWID
 40
0.0
  9
$SPLFRAME
 70
0
  9
$SPLINETYPE
 70
6
  9
$SPLINESEGS
 70
8
  9
$HANDSEED
  5
6E
  9
$SURFTAB1
 70
6
  9
$SURFTAB2
 70
6
  9
$SURFTYPE
 70
6
  9
$SURFU
 70
6
  9
$SURFV
 70
6
  9
$UCSBASE
  2

  9
$UCSNAME
  2

  9
$UCSORG
 10
0.0
 20
0.0
 30
0.0
  9
$UCSXDIR
 10
1.0
 20
0.0
 30
0.0
  9
$UCSYDIR
 10
0.0
 20
1.0
 30
0.0
  9
$UCSORTHOREF
  2

  9
$UCSORTHOVIEW
 70
0
  9
$UCSORGTOP
 10
0.0
 20
0.0
 30
0.0
  9
$UCSORGBOTTOM
 10
0.0
 20
0.0
 30
0.0
  9
$UCSORGLEFT
 10
0.0
 20
0.0
 30
0.0
  9
$UCSORGRIGHT
 10
0.0
 20
0.0
 30
0.0
  9
$UCSORGFRONT
 10
0.0
 20
0.0
 30
0.0
  9
$UCSORGBACK
 10
0.0
 20
0.0
 30
0.0
  9
$PUCSBASE
  2

  9
$PUCSNAME
  2

  9
$PUCSORG
 10
0.0
 20
0.0
 30
0.0
  9
$PUCSXDIR
 10
1.0
 20
0.0
 30
0.0
  9
$PUCSYDIR
 10
0.0
 20
1.0
 30
0.0
  9
$PUCSORTHOREF
  2

  9
$PUCSORTHOVIEW
 70
0
  9
$PUCSORGTOP
 10
0.0
 20
0.0
 30
0.0
  9
$PUCSORGBOTTOM
 10
0.0
 20
0.0
 30
0.0
  9
$PUCSORGLEFT
 10
0.0
 20
0.0
 30
0.0
  9
$PUCSORGRIGHT
 10
0.0
 20
0.0
 30
0.0
  9
$PUCSORGFRONT
 10
0.0
 20
0.0
 30
0.0
  9
$PUCSORGBACK
 10
0.0
 20
0.0
 30
0.0
  9
$USERI1
 70
0
  9
$USERI2
 70
0
  9
$USERI3
 70
0
  9
$USERI4
 70
0
  9
$USERI5
 70
0
  9
$USERR1
 40
0.0
  9
$USERR2
 40
0.0
  9
$USERR3
 40
0.0
  9
$USERR4
 40
0.0
  9
$USERR5
 40
0.0
  9
$WORLDVIEW
 70
1
  9
$SHADEDGE
 70
3
  9
$SHADEDIF
 70
70
  9
$TILEMODE
 70
1
  9
$MAXACTVP
 70
64
  9
$PINSBASE
 10
0.0
 20
0.0
 30
0.0
  9
$PLIMCHECK
 70
0
  9
$PEXTMIN
 10
1e+20
 20
1e+20
 30
1e+20
  9
$PEXTMAX
 10
-1e+20
 20
-1e+20
 30
-1e+20
  9
$PLIMMIN
 10
0.0
 20
0.0
  9
$PLIMMAX
 10
420.0
 20
297.0
  9
$UNITMODE
 70
0
  9
$VISRETAIN
 70
1
  9
$PLINEGEN
 70
0
  9
$PSLTSCALE
 70
1
  9
$TREEDEPTH
 70
3020
  9
$CMLSTYLE
  2
Standard
  9
$CMLJUST
 70
0
  9
$CMLSCALE
 40
20.0
  9
$PROXYGRAPHICS
 70
1
  9
$MEASUREMENT
 70
1
  9
$CELWEIGHT
370
-1
  9
$ENDCAPS
280
0
  9
$JOINSTYLE
280
0
  9
$LWDISPLAY
290
0
  9
$INSUNITS
 70
4
  9
$HYPERLINKBASE
  1

  9
$STYLESHEET
  1

  9
$XEDIT
290
1
  9
$CEPSNTYPE
380
0
  9
$PSTYLEMODE
290
1
  9
$FINGERPRINTGUID
  2
{192E088D-0EEA-418B-9BAA-03B67256D1F7}
  9
$VERSIONGUID
  2
{8F3C7F02-941B-40D9-9544-B80742E8D5B4}
  9
$EXTNAMES
290
1
  9
$PSVPSCALE
 40
0.0
  9
$OLESTARTUP
290
0
  9
$SORTENTS
280
127
  9
$INDEXCTL
280
0
  9
$HIDETEXT
280
1
  9
$XCLIPFRAME
280
1
  9
$HALOGAP
280
0
  9
$OBSCOLOR
 70
257
  9
$OBSLTYPE
280
0
  9
$INTERSECTIONDISPLAY
280
0
  9
$INTERSECTIONCOLOR
 70
257
  9
$DIMASSOC
280
2
  9
$PROJECTNAME
  1

  9
$CAMERADISPLAY
290
0
  9
$LENSLENGTH
 40
50.0
  9
$CAMERAHEIGHT
 40
0.0
  9
$STEPSPERSEC
 40
24.0
  9
$STEPSIZE
 40
100.0
  9
$3DDWFPREC
 40
2.0
  9
$PSOLWIDTH
 40
0.005
  9
$PSOLHEIGHT
 40
0.08
  9
$LOFTANG1
 40
1.570796326795
  9
$LOFTANG2
 40
1.570796326795
  9
$LOFTMAG1
 40
0.0
  9
$LOFTMAG2
 40
0.0
  9
$LOFTPARAM
 70
7
  9
$LOFTNORMALS
280
1
  9
$LATITUDE
 40
37.795
  9
$LONGITUDE
 40
-122.394
  9
$NORTHDIRECTION
 40
0.0
  9
$TIMEZONE
 70
-8000
  9
$LIGHTGLYPHDISPLAY
280
1
  9
$TILEMODELIGHTSYNCH
280
1
  9
$CMATERIAL
347
20
  9
$SOLIDHIST
280
0
  9
$SHOWHIST
280
1
  9
$DWFFRAME
280
2
  9
$DGNFRAME
280
2
  9
$REALWORLDSCALE
290
1
  9
$INTERFERECOLOR
 62
256
  9
$CSHADOW
280
0
  9
$SHADOWPLANELOCATION
 40
0.0
  0
ENDSEC
  0
SECTION
  2
CLASSES
  0
CLASS
  1
ACDBDICTIONARYWDFLT
  2
AcDbDictionaryWithDefault
  3
ObjectDBX Classes
 90
0
 91
0
280
0
281
0
  0
CLASS
  1
SUN
  2
AcDbSun
  3
SCENEOE
 90
1153
 91
0
280
0
281
0
  0
CLASS
  1
VISUALSTYLE
  2
AcDbVisualStyle
  3
ObjectDBX Classes
 90
4095
 91
0
280
0
281
0
  0
CLASS
  1
MATERIAL
  2
AcDbMaterial
  3
ObjectDBX Classes
 90
1153
 91
0
280
0
281
0
  0
CLASS
  1
SCALE
  2
AcDbScale
  3
ObjectDBX Classes
 90
1153
 91
0
280
0
281
0
  0
CLASS
  1
TABLESTYLE
  2
AcDbTableStyle
  3
ObjectDBX Classes
 90
4095
 91
0
280
0
281
0
  0
CLASS
  1
MLEADERSTYLE
  2
AcDbMLeaderStyle
  3
ACDB_MLEADERSTYLE_CLASS
 90
4095
 91
0
280
0
281
0
  0
CLASS
  1
DICTIONARYVAR
  2
AcDbDictionaryVar
  3
ObjectDBX Classes
 90
0
 91
0
280
0
281
0
  0
CLASS
  1
CELLSTYLEMAP
  2
AcDbCellStyleMap
  3
ObjectDBX Classes
 90
1152
 91
0
280
0
281
0
  0
CLASS
  1
MENTALRAYRENDERSETTINGS
  2
AcDbMentalRayRenderSettings
  3
SCENEOE
 90
1024
 91
0
280
0
281
0
  0
CLASS
  1
ACDBDETAILVIEWSTYLE
  2
AcDbDetailViewStyle
  3
ObjectDBX Classes
 90
1025
 91
0
280
0
281
0
  0
CLASS
  1
ACDBSECTIONVIEWSTYLE
  2
AcDbSectionViewStyle
  3
ObjectDBX Classes
 90
1025
 91
0
280
0
281
0
  0
CLASS
  1
RASTERVARIABLES
  2
AcDbRasterVariables
  3
ISM
 90
0
 91
0
280
0
281
0
  0
CLASS
  1
LAYOUT
  2
AcDbLayout
  3
ObjectDBX Classes
 90
0
 91
0
280
0
281
0
  0
CLASS
  1
ACDBPLACEHOLDER
  2
AcDbPlaceHolder
  3
ObjectDBX Classes
 90
0
 91
0
280
0
281
0
  0
ENDSEC
  0
SECTION
  2
TABLES
  0
TABLE
  2
VPORT
  5
8
330
0
100
AcDbSymbolTable
 70
1
  0
VPORT
  5
23
330
8
100
AcDbSymbolTableRecord
100
AcDbViewportTableRecord
  2
*Active
 70
0
 10
0.0
 20
0.0
 11
1.0
 21
1.0
 12
0.0
 22
0.0
 13
0.0
 23
0.0
 14
0.5
 24
0.5
 15
0.5
 25
0.5
 16
0.0
 26
0.0
 36
1.0
 17
0.0
 27
0.0
 37
0.0
 40
1000.0
 41
1.34
 42
50.0
 43
0.0
 44
0.0
 50
0.0
 51
0.0
 71
0
 72
1000
 73
1
 74
3
 75
0
 76
0
 77
0
 78
0
281
0
 65
0
146
0.0
  0
ENDTAB
  0
TABLE
  2
LTYPE
  5
2
330
0
100
AcDbSymbolTable
 70
3
  0
LTYPE
  5
24
330
2
100
AcDbSymbolTableRecord
100
AcDbLinetypeTableRecord
  2
ByBlock
 70
0
  3

 72
65
 73
0
 40
0.0
  0
LTYPE
  5
25
330
2
100
AcDbSymbolTableRecord
100
AcDbLinetypeTableRecord
  2
ByLayer
 70
0
  3

 72
65
 73
0
 40
0.0
  0
LTYPE
  5
26
330
2
100
AcDbSymbolTableRecord
100
AcDbLinetypeTableRecord
  2
Continuous
 70
0
  3

 72
65
 73
0
 40
0.0
  0
ENDTAB
  0
TABLE
  2
LAYER
  5
1
330
0
100
AcDbSymbolTable
 70
7
  0
LAYER
  5
27
330
1
100
AcDbSymbolTableRecord
100
AcDbLayerTableRecord
  2
0
 70
0
 62
7
  6
Continuous
370
-3
390
13
347
21
  0
LAYER
  5
28
330
1
100
AcDbSymbolTableRecord
100
AcDbLayerTableRecord
  2
Defpoints
 70
0
 62
7
  6
Continuous
290
0
370
-3
390
13
347
21
  0
LAYER
  5
2F
330
1
100
AcDbSymbolTableRecord
100
AcDbLayerTableRecord
  2
ENG_L
 70
0
 62
4
  6
Continuous
370
-3
390
13
347
21
  0
LAYER
  5
30
330
1
100
AcDbSymbolTableRecord
100
AcDbLayerTableRecord
  2
ENG_D
 70
0
 62
3
  6
Continuous
370
-3
390
13
347
21
  0
LAYER
  5
31
330
1
100
AcDbSymbolTableRecord
100
AcDbLayerTableRecord
  2
ENG_K
 70
0
 62
2
  6
Continuous
370
-3
390
13
347
21
  0
LAYER
  5
32
330
1
100
AcDbSymbolTableRecord
100
AcDbLayerTableRecord
  2
CUT_OUTLINE
 70
0
 62
5
  6
Continuous
370
-3
390
13
347
21
  0
LAYER
  5
33
330
1
100
AcDbSymbolTableRecord
100
AcDbLayerTableRecord
  2
CUT_SLOT
 70
0
 62
1
  6
Continuous
370
-3
390
13
347
21
  0
ENDTAB
  0
TABLE
  2
STYLE
  5
5
330
0
100
AcDbSymbolTable
 70
1
  0
STYLE
  5
29
330
5
100
AcDbSymbolTableRecord
100
AcDbTextStyleTableRecord
  2
Standard
 70
0
 40
0.0
 41
1.0
 50
0.0
 71
0
 42
2.5
  3
txt
  4

  0
ENDTAB
  0
TABLE
  2
VIEW
  5
7
330
0
100
AcDbSymbolTable
 70
0
  0
ENDTAB
  0
TABLE
  2
UCS
  5
6
330
0
100
AcDbSymbolTable
 70
0
  0
ENDTAB
  0
TABLE
  2
APPID
  5
3
330
0
100
AcDbSymbolTable
 70
3
  0
APPID
  5
2A
330
3
100
AcDbSymbolTableRecord
100
AcDbRegAppTableRecord
  2
ACAD
 70
0
  0
APPID
  5
6B
330
3
100
AcDbSymbolTableRecord
100
AcDbRegAppTableRecord
  2
HATCHBACKGROUNDCOLOR
 70
0
  0
APPID
  5
6C
330
3
100
AcDbSymbolTableRecord
100
AcDbRegAppTableRecord
  2
EZDXF
 70
0
  0
ENDTAB
  0
TABLE
  2
DIMSTYLE
  5
4
330
0
100
AcDbSymbolTable
 70
1
100
AcDbDimStyleTable
  0
DIMSTYLE
105
2B
330
4
100
AcDbSymbolTableRecord
100
AcDbDimStyleTableRecord
  2
Standard
 70
0
 40
1.0
 41
2.5
 42
0.625
 43
3.75
 44
1.25
 45
0.0
 46
0.0
 47
0.0
 48
0.0
 49
2.5
140
2.5
141
2.5
142
0.0
143
0.03937007874
144
1.0
145
0.0
146
1.0
147
0.625
148
0.0
 69
0
 70
0
 71
0
 72
0
 73
0
 74
0
 75
0
 76
0
 77
1
 78
8
 79
3
170
0
171
3
172
1
173
0
174
0
175
0
176
0
177
0
178
0
179
2
271
2
272
2
273
2
274
3
275
0
276
0
277
2
278
44
279
0
280
0
281
0
282
0
283
0
284
8
285
0
286
0
288
0
289
3
290
0
371
-2
372
-2
  0
ENDTAB
  0
TABLE
  2
BLOCK_RECORD
  5
9
330
0
100
AcDbSymbolTable
 70
2
  0
BLOCK_RECORD
  5
17
330
9
100
AcDbSymbolTableRecord
100
AcDbBlockTableRecord
  2
*Model_Space
340
1A
 70
0
280
1
281
0
  0
BLOCK_RECORD
  5
1B
330
9
100
AcDbSymbolTableRecord
100
AcDbBlockTableRecord
  2
*Paper_Space
340
1E
 70
0
280
1
281
0
  0
ENDTAB
  0
ENDSEC
  0
SECTION
  2
BLOCKS
  0
BLOCK
  5
18
330
17
100
AcDbEntity
  8
0
100
AcDbBlockBegin
  2
*Model_Space
 70
0
 10
0.0
 20
0.0
 30
0.0
  3
*Model_Space
  1

  0
ENDBLK
  5
19
330
17
100
AcDbEntity
  8
0
100
AcDbBlockEnd
  0
BLOCK
  5
1C
330
1B
100
AcDbEntity
  8
0
100
AcDbBlockBegin
  2
*Paper_Space
 70
0
 10
0.0
 20
0.0
 30
0.0
  3
*Paper_Space
  1

  0
ENDBLK
  5
1D
330
1B
100
AcDbEntity
  8
0
100
AcDbBlockEnd
  0
ENDSEC
  0
SECTION
  2
ENTITIES
  0
LWPOLYLINE
  5
34
330
17
100
AcDbEntity
  8
ENG_L
100
AcDbPolyline
 90
7
 70
1
 10
196.33998290946468
 20
110.78006238589244
 10
195.86857838867365
 20
110.30865786510147
 10
195.86857838867365
 20
108.42303978193735
 10
194.9257693470916
 20
108.42303978193735
 10
194.9257693470916
 20
113.13708498984765
 10
196.10428064906918
 20
113.37278725024314
 10
196.33998290946468
 20
110.78006238589244
  0
LWPOLYLINE
  5
35
330
17
100
AcDbEntity
  8
ENG_L
100
AcDbPolyline
 90
22
 70
1
 10
181.25503824415168
 20
104.18039909481803
 10
185.49767893127097
 20
113.13708498984765
 10
176.30529077584586
 20
113.37278725024314
 10
175.5981839946593
 20
114.5512985522208
 10
175.5981839946593
 20
118.79393923934
 10
174.65537495307723
 20
120.67955732250412
 10
174.65537495307723
 20
122.56517540566824
 10
176.30529077584586
 20
123.27228218685482
 10
178.19090885901
 20
123.27228218685482
 10
178.66231337980102
 20
123.7436867076459
 10
180.54793146296512
 20
123.7436867076459
 10
181.4907405045472
 20
124.21509122843688
 10
186.44048797285305
 20
115.49410759380285
 10
186.44048797285305
 20
114.0798940314297
 10
187.14759475403957
 20
113.37278725024314
 10
191.6259377015544
 20
113.13708498984765
 10
191.6259377015544
 20
107.0088262195642
 10
186.67619023324855
 20
105.83031491758665
 10
183.84776310850236
 20
104.41610135521351
 10
182.43354954612926
 20
104.41610135521351
 10
181.96214502533823
 20
103.94469683442253
 10
181.25503824415168
 20
104.18039909481803
  0
LWPOLYLINE
  5
36
330
17
100
AcDbEntity
  8
ENG_L
100
AcDbPolyline
 90
25
 70
1
 10
144.95689014324225
 20
239.94490108263534
 10
141.657058497705
 20
243.71613724896358
 10
142.12846301849603
 20
247.4873734152918
 10
142.5998675392871
 20
247.95877793608278
 10
142.5998675392871
 20
249.84439601924691
 10
143.07127206007812
 20
250.31580054003788
 10
143.07127206007812
 20
252.201418623202
 10
144.01408110166017
 20
254.08703670636612
 10
144.01408110166017
 20
255.0298457479483
 10
145.19259240363778
 20
256.67976157071683
 10
148.963828569966
 20
259.0367841746721
 10
150.3780421323391
 20
259.0367841746721
 10
151.08514891352564
 20
257.3868683519034
 10
151.08514891352564
 20
255.0298457479483
 10
151.55655343431667
 20
254.5584412271571
 10
151.55655343431667
 20
249.84439601924691
 10
152.02795795510772
 20
249.37299149845592
 10
152.02795795510772
 20
246.54456437370965
 10
152.49936247589878
 20
246.07315985291868
 10
152.49936247589878
 20
244.18754176975455
 10
152.9707669966898
 20
243.24473272817238
 10
151.32085117392117
 20
242.06622142619483
 10
149.43523309075704
 20
241.59481690540386
 10
146.13540144521983
 20
239.70919882223973
 10
144.95689014324225
 20
239.94490108263534
  0
LWPOLYLINE
  5
37
330
17
100
AcDbEntity
  8
ENG_L
100
AcDbPolyline
 90
69
 70
1
 10
115.49410759380277
 20
133.6431816442576
 10
116.67261889578035
 20
134.35028842544406
 10
116.67261889578035
 20
135.29309746702612
 10
115.72980985419828
 20
136.70731102939925
 10
115.72980985419828
 20
138.59292911256338
 10
114.31559629182519
 20
140.94995171651848
 10
116.43691663538483
 20
141.18565397691407
 10
119.26534376013102
 20
139.77144041454093
 10
120.67955732250411
 20
139.77144041454093
 10
122.56517540566823
 20
138.82863137295885
 10
123.50798444725031
 20
138.82863137295885
 10
123.97938896804133
 20
139.30003589374996
 10
125.62930479080994
 20
139.53573815414543
 10
125.86500705120545
 20
141.18565397691407
 10
136.7073110293992
 20
141.18565397691407
 10
137.65012007098127
 20
141.65705849770504
 10
137.65012007098127
 20
135.5287997274217
 10
136.7073110293992
 20
135.05739520663062
 10
130.10764773832474
 20
134.58599068583953
 10
129.1648386967427
 20
135.5287997274217
 10
127.51492287397406
 20
134.82169294623515
 10
127.9863273947651
 20
134.35028842544406
 10
127.75062513436957
 20
134.11458616504856
 10
126.33641157199649
 20
135.05739520663062
 10
126.10070931160097
 20
134.82169294623515
 10
127.04351835318303
 20
133.40747938386198
 10
126.572113832392
 20
132.936074863071
 10
126.80781609278752
 20
132.70037260267543
 10
127.27922061357854
 20
133.1717771234665
 10
127.9863273947651
 20
131.99326582148896
 10
126.572113832392
 20
131.0504567799069
 10
126.572113832392
 20
130.10764773832472
 10
125.62930479080994
 20
129.16483869674278
 10
128.2220296551606
 20
127.51492287397414
 10
130.5790522591158
 20
127.04351835318306
 10
133.64318164425748
 20
124.92219800962346
 10
130.8147545195113
 20
121.62236636408619
 10
130.8147545195113
 20
120.67955732250412
 10
128.4577319155561
 20
118.79393923934
 10
128.4577319155561
 20
118.32253471854904
 10
125.15790027001891
 20
114.5512985522208
 10
125.86500705120545
 20
113.37278725024314
 10
126.572113832392
 20
113.13708498984765
 10
127.51492287397406
 20
111.25146690668353
 10
127.04351835318303
 20
99.93775840769881
 10
123.97938896804133
 20
99.70205614730321
 10
123.50798444725031
 20
99.23065162651224
 10
117.85113019775793
 20
99.70205614730321
 10
116.67261889578035
 20
100.88056744928076
 10
115.72980985419828
 20
103.23759005323596
 10
115.72980985419828
 20
104.65180361560911
 10
115.25840533340725
 20
105.12320813640008
 10
115.25840533340725
 20
106.53742169877323
 10
113.84419177103415
 20
107.48023074035528
 10
110.0729556047059
 20
113.13708498984765
 10
109.60155108391487
 20
114.5512985522208
 10
106.77312395916867
 20
118.32253471854904
 10
106.77312395916867
 20
120.67955732250412
 10
107.24452847995971
 20
121.1509618432952
 10
107.24452847995971
 20
122.09377088487727
 10
108.18733752154178
 20
123.03657992645934
 10
107.71593300075075
 20
123.50798444725031
 10
108.18733752154178
 20
124.45079348883237
 10
110.0729556047059
 20
127.27922061357866
 10
111.01576464628798
 20
127.75062513436963
 10
111.487169167079
 20
129.63624321753375
 10
113.37278725024312
 20
132.46467034227993
 10
114.5512985522207
 20
133.6431816442576
 10
115.49410759380277
 20
133.6431816442576
  0
LWPOLYLINE
  5
38
330
17
100
AcDbEntity
  8
ENG_L
100
AcDbPolyline
 90
4
 70
1
 10
129.63624321753372
 20
140.24284493533202
 10
129.40054095713822
 20
140.00714267493652
 10
129.87194547792924
 20
140.00714267493652
 10
129.63624321753372
 20
140.24284493533202
  0
LWPOLYLINE
  5
39
330
17
100
AcDbEntity
  8
ENG_L
100
AcDbPolyline
 90
5
 70
1
 10
129.1648386967427
 20
138.82863137295885
 10
128.4577319155561
 20
138.1215245917723
 10
128.69343417595167
 20
137.8858223313768
 10
129.40054095713822
 20
138.59292911256338
 10
129.1648386967427
 20
138.82863137295885
  0
LWPOLYLINE
  5
3A
330
17
100
AcDbEntity
  8
ENG_L
100
AcDbPolyline
 90
48
 70
1
 10
122.56517540566823
 20
133.6431816442576
 10
120.4438550621086
 20
131.99326582148896
 10
120.20815280171308
 20
131.28615904030238
 10
119.26534376013102
 20
131.28615904030238
 10
119.26534376013102
 20
130.8147545195113
 10
120.4438550621086
 20
130.57905225911583
 10
119.73674828092206
 20
129.87194547792924
 10
118.79393923933999
 20
130.34334999872033
 10
117.85113019775793
 20
129.87194547792924
 10
117.37972567696688
 20
130.34334999872033
 10
116.90832115617586
 20
129.87194547792924
 10
115.96551211459379
 20
129.87194547792924
 10
115.25840533340725
 20
129.16483869674278
 10
116.43691663538483
 20
128.9291364363472
 10
117.14402341657137
 20
128.2220296551606
 10
116.67261889578035
 20
127.75062513436963
 10
117.14402341657137
 20
127.27922061357866
 10
116.90832115617586
 20
127.04351835318306
 10
115.96551211459379
 20
127.04351835318306
 10
115.49410759380277
 20
127.51492287397414
 10
112.42997820866105
 20
126.33641157199649
 10
113.84419177103415
 20
124.45079348883237
 10
113.37278725024312
 20
123.97938896804139
 10
113.60848951063863
 20
123.7436867076459
 10
114.78700081261621
 20
124.45079348883237
 10
115.02270307301174
 20
125.15790027001894
 10
115.25840533340725
 20
124.92219800962346
 10
115.25840533340725
 20
123.97938896804139
 10
115.72980985419828
 20
123.50798444725031
 10
114.78700081261621
 20
122.56517540566824
 10
115.02270307301174
 20
122.32947314527276
 10
117.85113019775793
 20
125.62930479081002
 10
121.62236636408618
 20
127.51492287397414
 10
123.50798444725031
 20
127.51492287397414
 10
125.15790027001891
 20
128.6934341759517
 10
122.80087766606377
 20
129.63624321753375
 10
123.74368670764582
 20
130.10764773832472
 10
123.97938896804133
 20
130.8147545195113
 10
124.45079348883237
 20
130.34334999872033
 10
124.68649574922789
 20
130.57905225911583
 10
124.21509122843685
 20
131.0504567799069
 10
124.68649574922789
 20
131.99326582148896
 10
126.10070931160097
 20
132.936074863071
 10
126.10070931160097
 20
133.87888390465307
 10
125.39360253041443
 20
135.05739520663062
 10
123.97938896804133
 20
133.1717771234665
 10
123.50798444725031
 20
133.6431816442576
 10
122.56517540566823
 20
133.6431816442576
  0
LWPOLYLINE
  5
3B
330
17
100
AcDbEntity
  8
ENG_L
100
AcDbPolyline
 90
5
 70
1
 10
123.97938896804133
 20
135.05739520663062
 10
124.45079348883237
 20
135.05739520663062
 10
124.68649574922789
 20
135.29309746702612
 10
123.97938896804133
 20
135.5287997274217
 10
123.97938896804133
 20
135.05739520663062
  0
LWPOLYLINE
  5
3C
330
17
100
AcDbEntity
  8
ENG_L
100
AcDbPolyline
 90
4
 70
1
 10
123.2722821868548
 20
136.23590650860817
 10
123.03657992645928
 20
136.47160876900367
 10
122.80087766606377
 20
136.23590650860817
 10
123.2722821868548
 20
136.23590650860817
  0
LWPOLYLINE
  5
3D
330
17
100
AcDbEntity
  8
ENG_L
100
AcDbPolyline
 90
7
 70
1
 10
120.4438550621086
 20
135.29309746702612
 10
121.15096184329515
 20
134.58599068583953
 10
121.85806862448169
 20
135.7645019878172
 10
121.62236636408618
 20
136.0002042482127
 10
121.15096184329515
 20
135.5287997274217
 10
120.67955732250411
 20
136.0002042482127
 10
120.4438550621086
 20
135.29309746702612
  0
LWPOLYLINE
  5
3E
330
17
100
AcDbEntity
  8
ENG_L
100
AcDbPolyline
 90
4
 70
1
 10
120.4438550621086
 20
134.35028842544406
 10
120.20815280171308
 20
134.58599068583953
 10
119.97245054131757
 20
134.35028842544406
 10
120.4438550621086
 20
134.35028842544406
  0
LWPOLYLINE
  5
3F
330
17
100
AcDbEntity
  8
ENG_L
100
AcDbPolyline
 90
5
 70
1
 10
115.96551211459379
 20
132.70037260267543
 10
116.67261889578035
 20
133.40747938386198
 10
116.43691663538483
 20
133.6431816442576
 10
115.72980985419828
 20
132.936074863071
 10
115.96551211459379
 20
132.70037260267543
  0
LWPOLYLINE
  5
40
330
17
100
AcDbEntity
  8
ENG_L
100
AcDbPolyline
 90
4
 70
1
 10
115.72980985419828
 20
128.2220296551606
 10
115.49410759380277
 20
128.4577319155562
 10
115.25840533340725
 20
128.2220296551606
 10
115.72980985419828
 20
128.2220296551606
  0
LWPOLYLINE
  5
41
330
17
100
AcDbEntity
  8
ENG_L
100
AcDbPolyline
 90
5
 70
1
 10
115.25840533340725
 20
132.46467034227993
 10
115.02270307301174
 20
132.70037260267543
 10
114.31559629182519
 20
131.99326582148896
 10
114.5512985522207
 20
131.75756356109346
 10
115.25840533340725
 20
132.46467034227993
  0
LWPOLYLINE
  5
42
330
17
100
AcDbEntity
  8
ENG_L
100
AcDbPolyline
 90
7
 70
1
 10
113.84419177103415
 20
121.62236636408619
 10
113.60848951063863
 20
121.85806862448167
 10
113.13708498984761
 20
121.3866641036907
 10
112.66568046905658
 20
121.85806862448167
 10
112.42997820866105
 20
121.62236636408619
 10
113.13708498984761
 20
120.91525958289972
 10
113.84419177103415
 20
121.62236636408619
  0
LWPOLYLINE
  5
43
330
17
100
AcDbEntity
  8
ENG_L
100
AcDbPolyline
 90
5
 70
1
 10
110.30865786510141
 20
119.50104602052659
 10
111.01576464628798
 20
120.20815280171315
 10
110.78006238589244
 20
120.91525958289972
 10
110.0729556047059
 20
120.20815280171315
 10
110.30865786510141
 20
119.50104602052659
  0
LWPOLYLINE
  5
44
330
17
100
AcDbEntity
  8
ENG_L
100
AcDbPolyline
 90
5
 70
1
 10
110.78006238589244
 20
122.80087766606384
 10
110.0729556047059
 20
122.09377088487727
 10
110.78006238589244
 20
121.3866641036907
 10
111.01576464628798
 20
122.56517540566824
 10
110.78006238589244
 20
122.80087766606384
  0
LWPOLYLINE
  5
45
330
17
100
AcDbEntity
  8
ENG_L
100
AcDbPolyline
 90
4
 70
1
 10
110.78006238589244
 20
123.7436867076459
 10
110.54436012549692
 20
123.50798444725031
 10
111.01576464628798
 20
123.50798444725031
 10
110.78006238589244
 20
123.7436867076459
  0
LWPOLYLINE
  5
46
330
17
100
AcDbEntity
  8
ENG_L
100
AcDbPolyline
 90
5
 70
1
 10
109.36584882351936
 20
117.14402341657137
 10
109.60155108391487
 20
117.37972567696697
 10
108.89444430272832
 20
117.61542793736245
 10
108.89444430272832
 20
117.14402341657137
 10
109.36584882351936
 20
117.14402341657137
  0
LWPOLYLINE
  5
47
330
17
100
AcDbEntity
  8
ENG_L
100
AcDbPolyline
 90
4
 70
1
 10
125.62930479080994
 20
133.87888390465307
 10
125.39360253041443
 20
133.6431816442576
 10
125.39360253041443
 20
134.11458616504856
 10
125.62930479080994
 20
133.87888390465307
  0
LWPOLYLINE
  5
48
330
17
100
AcDbEntity
  8
ENG_L
100
AcDbPolyline
 90
5
 70
1
 10
122.80087766606377
 20
130.10764773832472
 10
121.15096184329515
 20
129.87194547792924
 10
120.91525958289962
 20
130.10764773832472
 10
122.0937708848772
 20
130.8147545195113
 10
122.80087766606377
 20
130.10764773832472
  0
LWPOLYLINE
  5
49
330
17
100
AcDbEntity
  8
ENG_L
100
AcDbPolyline
 90
4
 70
1
 10
118.55823697894446
 20
127.75062513436963
 10
118.32253471854895
 20
127.51492287397414
 10
118.32253471854895
 20
127.98632739476513
 10
118.55823697894446
 20
127.75062513436963
  0
LWPOLYLINE
  5
4A
330
17
100
AcDbEntity
  8
ENG_L
100
AcDbPolyline
 90
104
 70
1
 10
85.08851600278122
 20
159.3347280273687
 10
83.67430244040811
 20
161.22034611053294
 10
85.55992052357226
 20
163.10596419369705
 10
89.33115668990051
 20
168.76281844318942
 10
89.80256121069154
 20
170.17703200556244
 10
94.51660641860185
 20
176.77669529663697
 10
89.33115668990051
 20
181.01933598375618
 10
88.38834764831844
 20
189.50461735799485
 10
82.96719565922157
 20
194.9257693470916
 10
82.26008887803503
 20
195.16147160748721
 10
82.26008887803503
 20
196.10428064906927
 10
82.96719565922157
 20
196.81138743025585
 10
86.2670273047588
 20
196.81138743025585
 10
90.50966799187808
 20
200.58262359658409
 10
98.2878425849301
 20
206.00377558568096
 10
97.10933128295252
 20
206.7108823668675
 10
94.75230867899737
 20
206.7108823668675
 10
94.28090415820634
 20
207.1822868876585
 10
90.98107251266912
 20
207.1822868876585
 10
90.50966799187808
 20
207.65369140844948
 10
88.15264538792293
 20
207.65369140844948
 10
87.6812408671319
 20
208.12509592924056
 10
85.32421826317673
 20
208.12509592924056
 10
84.6171114819902
 20
208.83220271042714
 10
84.6171114819902
 20
210.24641627280016
 10
86.03132504436329
 20
213.54624791833743
 10
85.55992052357226
 20
214.0176524391284
 10
86.97413408594534
 20
216.3746750430836
 10
87.44553860673638
 20
218.7316976470388
 10
88.38834764831844
 20
220.14591120941196
 10
87.91694312752742
 20
224.38855189653117
 10
88.85975216910947
 20
224.85995641732214
 10
89.33115668990051
 20
226.74557450048627
 10
90.7453702522736
 20
228.1597880628594
 10
90.7453702522736
 20
229.57400162523257
 10
91.68817929385567
 20
230.9882151876057
 10
92.63098833543773
 20
231.45961970839667
 10
92.63098833543773
 20
231.93102422918764
 10
94.28090415820634
 20
233.5809400519564
 10
96.6379267621615
 20
231.69532196879206
 10
98.99494936611664
 20
231.2239174480011
 10
100.40916292848975
 20
230.28110840641912
 10
105.59461265719109
 20
230.75251292721012
 10
106.06601717798213
 20
231.2239174480011
 10
110.30865786510141
 20
231.2239174480011
 10
110.78006238589244
 20
231.69532196879206
 10
114.31559629182519
 20
225.33136093811314
 10
115.25840533340725
 20
224.38855189653117
 10
115.72980985419828
 20
222.97433833415803
 10
116.67261889578035
 20
222.03152929257607
 10
117.14402341657137
 20
219.67450668862088
 10
117.6154279373624
 20
219.2031021678298
 10
116.43691663538483
 20
217.55318634506128
 10
114.07989403142966
 20
216.1389727826881
 10
106.06601717798213
 20
215.19616374110606
 10
105.59461265719109
 20
214.72475922031498
 10
103.23759005323595
 20
214.72475922031498
 10
102.5304832720494
 20
210.71782079359124
 10
101.58767423046733
 20
209.3036072312181
 10
104.65180361560904
 20
207.1822868876585
 10
109.83725334431038
 20
204.8252642837034
 10
110.78006238589244
 20
203.88245524212124
 10
111.72287142747452
 20
203.88245524212124
 10
113.60848951063863
 20
202.93964620053927
 10
114.31559629182519
 20
202.23253941935272
 10
111.95857368787003
 20
197.04708969065132
 10
111.01576464628798
 20
196.10428064906927
 10
111.01576464628798
 20
195.16147160748721
 10
110.0729556047059
 20
193.74725804511405
 10
110.0729556047059
 20
192.33304448274103
 10
109.60155108391487
 20
191.86163996194995
 10
110.0729556047059
 20
190.91883092036787
 10
111.95857368787003
 20
189.50461735799485
 10
111.95857368787003
 20
189.03321283720376
 10
114.78700081261621
 20
186.20478571245758
 10
114.31559629182519
 20
185.7333811916666
 10
114.31559629182519
 20
181.4907405045473
 10
113.84419177103415
 20
181.01933598375618
 10
113.84419177103415
 20
180.07652694217413
 10
113.13708498984761
 20
179.36942016098766
 10
111.25146690668349
 20
178.89801564019658
 10
107.00882621956418
 20
176.5409930362414
 10
103.70899457402697
 20
176.0695885154504
 10
102.76618553244491
 20
175.12677947386834
 10
100.88056744928079
 20
174.65537495307726
 10
99.23065162651217
 20
173.4768636510997
 10
99.70205614730321
 20
171.1198410471446
 10
100.17346066809424
 20
170.64843652635352
 10
100.17346066809424
 20
169.2342229639805
 10
101.58767423046733
 20
165.93439131844323
 10
101.58767423046733
 20
164.5201777560701
 10
102.05907875125835
 20
164.0487732352791
 10
100.88056744928079
 20
162.39885741251047
 10
99.93775840769872
 20
162.39885741251047
 10
99.4663538869077
 20
161.92745289171938
 10
96.16652224137047
 20
161.92745289171938
 10
93.8094996374153
 20
160.98464385013745
 10
91.92388155425118
 20
160.98464385013745
 10
89.56685895029602
 20
160.04183480855528
 10
88.15264538792293
 20
160.04183480855528
 10
87.6812408671319
 20
159.5704302877643
 10
86.2670273047588
 20
159.5704302877643
 10
85.79562278396777
 20
159.0990257669732
 10
85.08851600278122
 20
159.3347280273687
  0
LWPOLYLINE
  5
4B
330
17
100
AcDbEntity
  8
ENG_L
100
AcDbPolyline
 90
4
 70
1
 10
117.37972567696688
 20
129.40054095713828
 10
117.37972567696688
 20
129.87194547792924
 10
117.6154279373624
 20
129.63624321753375
 10
117.37972567696688
 20
129.40054095713828
  0
LWPOLYLINE
  5
4C
330
17
100
AcDbEntity
  8
ENG_L
100
AcDbPolyline
 90
4
 70
1
 10
115.96551211459379
 20
124.21509122843688
 10
116.20121437498932
 20
123.97938896804139
 10
115.96551211459379
 20
123.7436867076459
 10
115.96551211459379
 20
124.21509122843688
  0
LWPOLYLINE
  5
4D
330
17
100
AcDbEntity
  8
ENG_L
100
AcDbPolyline
 90
4
 70
1
 10
114.5512985522207
 20
125.15790027001894
 10
114.5512985522207
 20
125.62930479081002
 10
114.78700081261621
 20
125.39360253041454
 10
114.5512985522207
 20
125.15790027001894
  0
LWPOLYLINE
  5
4E
330
17
100
AcDbEntity
  8
ENG_D
100
AcDbPolyline
 90
55
 70
1
 10
199.87551681539745
 20
95.93081998097497
 10
198.9327077738154
 20
95.93081998097497
 10
194.9257693470916
 20
100.40916292848978
 10
194.9257693470916
 20
104.18039909481803
 10
195.39717386788263
 20
104.65180361560911
 10
195.39717386788263
 20
107.0088262195642
 10
195.86857838867365
 20
107.48023074035528
 10
196.33998290946468
 20
113.13708498984765
 10
198.46130325302434
 20
116.20121437498932
 10
198.69700551341987
 20
113.60848951063862
 10
199.63981455500192
 20
111.7228714274745
 10
199.63981455500192
 20
108.42303978193735
 10
200.34692133618847
 20
106.77312395916871
 10
201.05402811737503
 20
107.0088262195642
 10
200.582623596584
 20
107.48023074035528
 10
200.582623596584
 20
108.89444430272832
 10
201.05402811737503
 20
109.3658488235194
 10
200.582623596584
 20
109.83725334431038
 10
200.582623596584
 20
111.25146690668353
 10
201.05402811737503
 20
111.7228714274745
 10
200.11121907579297
 20
113.13708498984765
 10
201.05402811737503
 20
113.60848951063862
 10
200.582623596584
 20
114.0798940314297
 10
200.582623596584
 20
115.02270307301177
 10
201.52543263816605
 20
115.96551211459382
 10
201.05402811737503
 20
116.43691663538492
 10
201.52543263816605
 20
116.90832115617589
 10
201.52543263816605
 20
117.85113019775795
 10
201.05402811737503
 20
118.79393923934
 10
201.76113489856158
 20
119.50104602052659
 10
204.1181575025167
 20
119.50104602052659
 10
204.82526428370326
 20
118.79393923934
 10
205.2966688044943
 20
115.96551211459382
 10
207.18228688765845
 20
111.25146690668353
 10
207.41798914805395
 20
108.65874204233283
 10
209.30360723121808
 20
108.65874204233283
 10
209.7750117520091
 20
109.13014656312392
 10
213.31054565794182
 20
108.89444430272832
 10
213.78195017873287
 20
104.18039909481803
 10
214.25335469952392
 20
103.70899457402705
 10
214.25335469952392
 20
100.40916292848978
 10
214.01765243912837
 20
100.1734606680943
 10
213.54624791833734
 20
100.64486518888526
 10
212.8391411371508
 20
99.93775840769881
 10
213.31054565794182
 20
98.05214032453469
 10
212.13203435596427
 20
96.40222450176606
 10
209.30360723121808
 20
95.93081998097497
 10
207.41798914805395
 20
94.51660641860194
 10
206.00377558568084
 20
94.51660641860194
 10
205.53237106488982
 20
94.98801093939291
 10
204.58956202330774
 20
94.51660641860194
 10
203.8824552421212
 20
94.75230867899742
 10
203.64675298172568
 20
95.93081998097497
 10
201.76113489856158
 20
94.98801093939291
 10
199.87551681539745
 20
95.93081998097497
  0
LWPOLYLINE
  5
4F
330
17
100
AcDbEntity
  8
ENG_D
100
AcDbPolyline
 90
15
 70
1
 10
184.0834653688979
 20
120.20815280171315
 10
183.14065632731584
 20
121.1509618432952
 10
181.7264427649427
 20
123.97938896804139
 10
183.37635858771134
 20
124.68649574922796
 10
187.14759475403957
 20
125.15790027001894
 10
187.6189992748306
 20
125.62930479081002
 10
189.50461735799473
 20
125.62930479081002
 10
190.21172413918129
 20
124.92219800962346
 10
190.6831286599723
 20
120.67955732250412
 10
191.6259377015544
 20
118.32253471854904
 10
191.6259377015544
 20
113.60848951063862
 10
186.91189249364407
 20
113.60848951063862
 10
186.44048797285305
 20
114.0798940314297
 10
186.44048797285305
 20
115.49410759380285
 10
184.0834653688979
 20
120.20815280171315
  0
LWPOLYLINE
  5
50
330
17
100
AcDbEntity
  8
ENG_D
100
AcDbPolyline
 90
5
 70
1
 10
172.06265008872657
 20
231.69532196879206
 10
172.29835234912207
 20
229.57400162523257
 10
171.82694782833104
 20
229.57400162523257
 10
171.82694782833104
 20
231.45961970839667
 10
172.06265008872657
 20
231.69532196879206
  0
LWPOLYLINE
  5
51
330
17
100
AcDbEntity
  8
ENG_D
100
AcDbPolyline
 90
23
 70
1
 10
160.7489415897418
 20
219.43880442822538
 10
159.3347280273687
 20
219.43880442822538
 10
158.62762124618214
 20
220.14591120941196
 10
158.62762124618214
 20
221.56012477178487
 10
156.74200316301804
 20
226.2741699796953
 10
156.74200316301804
 20
228.1597880628594
 10
157.6848122046001
 20
229.10259710444137
 10
159.80613254815975
 20
233.1095355311652
 10
163.577368714488
 20
234.52374909353836
 10
166.40579583923417
 20
234.99515361432933
 10
168.52711618279383
 20
233.81664231235177
 10
168.52711618279383
 20
228.1597880628594
 10
171.59124556793554
 20
227.92408580246382
 10
171.82694782833104
 20
226.2741699796953
 10
171.35554330754002
 20
225.80276545890433
 10
171.35554330754002
 20
223.9171473757402
 10
170.884138786749
 20
223.445742854949
 10
170.884138786749
 20
221.56012477178487
 10
165.93439131844315
 20
218.9673999074343
 10
164.9915822768611
 20
218.02459086585225
 10
162.63455967290594
 20
218.9673999074343
 10
161.22034611053286
 20
218.9673999074343
 10
160.7489415897418
 20
219.43880442822538
  0
LWPOLYLINE
  5
52
330
17
100
AcDbEntity
  8
ENG_D
100
AcDbPolyline
 90
24
 70
1
 10
152.26366021550325
 20
78.01744819091572
 10
151.32085117392117
 20
78.4888527117068
 10
150.3780421323391
 20
77.54604367012475
 10
148.72812630957048
 20
77.78174593052023
 10
148.963828569966
 20
83.67430244040818
 10
150.3780421323391
 20
83.67430244040818
 10
152.26366021550325
 20
82.73149339882613
 10
154.14927829866738
 20
82.73149339882613
 10
154.8563850798539
 20
82.02438661763955
 10
154.38498055906288
 20
81.0815775760575
 10
156.27059864222701
 20
79.66736401368435
 10
156.5063009026225
 20
78.9602572324979
 10
157.6848122046001
 20
78.72455497210228
 10
157.21340768380907
 20
77.31034140972926
 10
157.6848122046001
 20
76.83893688893816
 10
157.6848122046001
 20
75.89612784735611
 10
158.62762124618214
 20
74.95331880577405
 10
158.62762124618214
 20
74.010509764192
 10
156.97770542341354
 20
73.30340298300541
 10
155.799194121436
 20
74.95331880577405
 10
156.27059864222701
 20
75.89612784735611
 10
155.56349186104046
 20
76.60323462854268
 10
153.67787377787633
 20
76.1318301077516
 10
152.26366021550325
 20
78.01744819091572
  0
LWPOLYLINE
  5
53
330
17
100
AcDbEntity
  8
ENG_D
100
AcDbPolyline
 90
84
 70
1
 10
70.94638037905027
 20
28.284271247461913
 10
72.36059394142337
 20
30.641293851417117
 10
73.30340298300543
 20
34.412530017745354
 10
74.481914284983
 20
35.11963679893193
 10
82.96719565922157
 20
35.11963679893193
 10
83.20289791961709
 20
33.94112549695427
 10
82.73149339882606
 20
33.469720976163295
 10
82.73149339882606
 20
30.641293851417117
 10
82.26008887803503
 20
29.69848480983506
 10
88.15264538792293
 20
23.805928299947098
 10
87.91694312752742
 20
29.69848480983506
 10
89.095454429505
 20
29.934187070230543
 10
91.92388155425118
 20
28.5199735078574
 10
93.33809511662427
 20
28.5199735078574
 10
98.05214032453459
 20
26.63435542469328
 10
98.99494936611664
 20
26.63435542469328
 10
99.23065162651217
 20
21.213203435596405
 10
102.29478101165387
 20
20.97750117520092
 10
102.5304832720494
 20
43.84062043356596
 10
103.70899457402697
 20
45.0191317355435
 10
105.59461265719109
 20
46.43334529791665
 10
106.53742169877316
 20
46.43334529791665
 10
107.48023074035522
 20
45.49053625633459
 10
115.49410759380277
 20
41.71930009000635
 10
116.67261889578035
 20
42.8978113919839
 10
117.6154279373624
 20
44.78342947514802
 10
119.73674828092206
 20
46.90474981870763
 10
123.03657992645928
 20
47.37615433949871
 10
124.9221980096234
 20
48.31896338108077
 10
126.80781609278752
 20
48.31896338108077
 10
127.27922061357854
 20
48.79036790187175
 10
130.5790522591158
 20
49.26177242266283
 10
132.93607486307093
 20
47.37615433949871
 10
137.65012007098127
 20
46.90474981870763
 10
142.8355697996826
 20
58.21845831769246
 10
144.24978336205572
 20
58.68986283848343
 10
144.72118788284675
 20
59.63267188006549
 10
146.60680596601085
 20
59.63267188006549
 10
147.07821048680188
 20
59.16126735927452
 10
150.3780421323391
 20
58.68986283848343
 10
151.08514891352564
 20
57.98275605729697
 10
150.61374439273462
 20
57.511351536505884
 10
151.08514891352564
 20
57.0399470157148
 10
151.08514891352564
 20
54.6829244117597
 10
150.61374439273462
 20
54.21151989096862
 10
152.02795795510772
 20
51.38309276622244
 10
151.08514891352564
 20
49.968879203849404
 10
152.02795795510772
 20
48.083261120685286
 10
151.55655343431667
 20
47.14045207910323
 10
151.55655343431667
 20
43.84062043356596
 10
152.02795795510772
 20
43.36921591277498
 10
152.02795795510772
 20
42.42640687119281
 10
151.55655343431667
 20
41.95500235040184
 10
152.49936247589878
 20
41.012193308819775
 10
152.02795795510772
 20
39.59797974644663
 10
153.44217151748083
 20
37.712361663282515
 10
152.9707669966898
 20
35.82674358011839
 10
153.91357603827186
 20
34.412530017745354
 10
152.02795795510772
 20
32.99831645537221
 10
152.49936247589878
 20
32.526911934581236
 10
152.02795795510772
 20
31.584102892999177
 10
152.49936247589878
 20
30.641293851417117
 10
152.02795795510772
 20
29.69848480983506
 10
152.49936247589878
 20
29.227080289043972
 10
151.55655343431667
 20
28.284271247461913
 10
151.55655343431667
 20
27.34146220587985
 10
152.02795795510772
 20
26.870057685088767
 10
151.08514891352564
 20
25.45584412271573
 10
151.55655343431667
 20
24.984439601924645
 10
152.02795795510772
 20
22.156012477178464
 10
154.38498055906288
 20
20.270394394014346
 10
151.55655343431667
 20
17.91337179005925
 10
152.02795795510772
 20
16.970562748477192
 10
151.32085117392117
 20
16.263455967290618
 10
148.72812630957048
 20
16.499158227686106
 10
148.49242404917499
 20
47.37615433949871
 10
145.42829466403327
 20
47.14045207910323
 10
145.19259240363778
 20
16.263455967290618
 10
68.11795325430407
 20
16.499158227686106
 10
68.58935777509512
 20
21.213203435596405
 10
70.0035713374682
 20
24.041630560342586
 10
70.0035713374682
 20
25.45584412271573
 10
70.94638037905027
 20
26.870057685088767
 10
70.94638037905027
 20
28.284271247461913
  0
LWPOLYLINE
  5
54
330
17
100
AcDbEntity
  8
ENG_D
100
AcDbPolyline
 90
18
 70
1
 10
137.88582233137677
 20
78.72455497210228
 10
137.41441781058575
 20
81.55298209684847
 10
136.00020424821264
 20
84.38140922159465
 10
136.7073110293992
 20
85.08851600278122
 10
139.06433363335435
 20
86.03132504436329
 10
140.0071426749364
 20
85.5599205235723
 10
143.3069743204736
 20
85.5599205235723
 10
145.42829466403327
 20
84.38140922159465
 10
145.42829466403327
 20
74.48191428498308
 10
148.72812630957048
 20
74.010509764192
 10
144.24978336205572
 20
72.36059394142336
 10
142.8355697996826
 20
72.36059394142336
 10
142.36416527889156
 20
71.88918942063238
 10
140.71424945612296
 20
72.12489168102788
 10
140.24284493533193
 20
74.010509764192
 10
139.30003589374988
 20
75.42472332656513
 10
139.30003589374988
 20
76.3675323681472
 10
137.88582233137677
 20
78.72455497210228
  0
LWPOLYLINE
  5
55
330
17
100
AcDbEntity
  8
ENG_D
100
AcDbPolyline
 90
13
 70
1
 10
129.40054095713822
 20
236.64506943709807
 10
129.87194547792924
 20
237.11647395788904
 10
129.87194547792924
 20
241.83051916579922
 10
130.34334999872027
 20
242.3019236865904
 10
130.5790522591158
 20
243.95183950935893
 10
141.4213562373095
 20
243.95183950935893
 10
142.12846301849603
 20
243.24473272817238
 10
137.88582233137677
 20
239.47349656184414
 10
137.17871555019025
 20
238.2949852598666
 10
134.35028842544403
 20
236.40936717670246
 10
131.99326582148888
 20
234.05234457274736
 10
129.40054095713822
 20
235.7022603955159
 10
129.40054095713822
 20
236.64506943709807
  0
LWPOLYLINE
  5
56
330
17
100
AcDbEntity
  8
ENG_D
100
AcDbPolyline
 90
15
 70
1
 10
102.5304832720494
 20
210.71782079359124
 10
103.23759005323595
 20
214.72475922031498
 10
111.25146690668349
 20
215.66756826189703
 10
111.72287142747452
 20
216.1389727826881
 10
114.07989403142966
 20
216.1389727826881
 10
114.5512985522207
 20
216.61037730347908
 10
115.25840533340725
 20
216.3746750430836
 10
115.25840533340725
 20
214.48905695991948
 10
114.78700081261621
 20
214.0176524391284
 10
114.78700081261621
 20
204.11815750251682
 10
114.31559629182519
 20
203.64675298172574
 10
114.31559629182519
 20
202.7039439401437
 10
104.65180361560904
 20
207.1822868876585
 10
101.58767423046733
 20
209.3036072312181
 10
102.5304832720494
 20
210.71782079359124
  0
LWPOLYLINE
  5
57
330
17
100
AcDbEntity
  8
ENG_D
100
AcDbPolyline
 90
18
 70
1
 10
100.17346066809424
 20
170.64843652635352
 10
99.23065162651217
 20
172.53405460951765
 10
99.23065162651217
 20
173.4768636510997
 10
100.88056744928079
 20
174.65537495307726
 10
102.76618553244491
 20
175.12677947386834
 10
103.70899457402697
 20
176.0695885154504
 10
105.59461265719109
 20
176.0695885154504
 10
106.53742169877316
 20
176.5409930362414
 10
107.24452847995971
 20
175.83388625505492
 10
107.24452847995971
 20
174.89107721347287
 10
108.6587420423328
 20
172.53405460951765
 10
108.6587420423328
 20
171.5912455679356
 10
110.0729556047059
 20
169.2342229639805
 10
107.48023074035522
 20
167.58430714121187
 10
103.70899457402697
 20
163.81307097488352
 10
102.05907875125835
 20
164.0487732352791
 10
100.17346066809424
 20
169.2342229639805
 10
100.17346066809424
 20
170.64843652635352
  0
LWPOLYLINE
  5
58
330
17
100
AcDbEntity
  8
ENG_D
100
AcDbPolyline
 90
17
 70
1
 10
96.40222450176599
 20
151.79225569471222
 10
95.93081998097496
 20
152.2636602155033
 10
95.93081998097496
 20
156.03489638183154
 10
95.45941546018392
 20
156.50630090262263
 10
95.45941546018392
 20
158.39191898578676
 10
94.98801093939288
 20
158.86332350657773
 10
94.98801093939288
 20
160.74894158974183
 10
94.51660641860185
 20
161.22034611053294
 10
96.16652224137047
 20
161.92745289171938
 10
99.4663538869077
 20
161.92745289171938
 10
100.40916292848975
 20
162.39885741251047
 10
101.1162697096763
 20
161.6917506313239
 10
101.1162697096763
 20
148.49242404917507
 10
101.58767423046733
 20
147.549615007593
 10
97.34503354334804
 20
147.549615007593
 10
96.40222450176599
 20
149.9066376115481
 10
96.40222450176599
 20
151.79225569471222
  0
LWPOLYLINE
  5
59
330
17
100
AcDbEntity
  8
ENG_D
100
AcDbPolyline
 90
18
 70
1
 10
87.44553860673638
 20
53.74011537017764
 10
88.15264538792293
 20
54.447222151364215
 10
89.095454429505
 20
54.447222151364215
 10
94.28090415820634
 20
56.80424475531931
 10
95.22371319978839
 20
56.80424475531931
 10
96.6379267621615
 20
57.74705379690137
 10
97.34503354334804
 20
56.568542494923825
 10
97.34503354334804
 20
51.38309276622244
 10
97.81643806413908
 20
50.44028372464038
 10
95.93081998097496
 20
47.14045207910323
 10
95.45941546018392
 20
44.78342947514802
 10
94.75230867899737
 20
44.076322693961444
 10
89.80256121069154
 20
44.31202495435704
 10
89.80256121069154
 20
45.2548339959391
 10
89.33115668990051
 20
45.72623851673008
 10
89.33115668990051
 20
48.554665641476255
 10
87.91694312752742
 20
51.38309276622244
 10
87.44553860673638
 20
53.74011537017764
  0
LWPOLYLINE
  5
5A
330
17
100
AcDbEntity
  8
ENG_K
100
AcDbPolyline
 90
10
 70
1
 10
165.2272845372566
 20
216.8460795638747
 10
165.2272845372566
 20
218.26029312624772
 10
168.29141392239833
 20
220.38161346980735
 10
170.17703200556244
 20
221.3244225113895
 10
171.11984104714452
 20
221.3244225113895
 10
171.35554330754002
 20
220.61731573020293
 10
168.99852070358486
 20
214.96046148071056
 10
168.52711618279383
 20
212.1320343559643
 10
167.8200094016073
 20
210.95352305398674
 10
165.2272845372566
 20
216.8460795638747
  0
LWPOLYLINE
  5
5B
330
17
100
AcDbEntity
  8
ENG_K
100
AcDbPolyline
 90
24
 70
1
 10
149.43523309075704
 20
96.87362902255703
 10
148.72812630957048
 20
97.10933128295251
 10
148.72812630957048
 20
103.23759005323596
 10
145.6639969244288
 20
103.47329231363145
 10
145.42829466403327
 20
103.70899457402705
 10
146.13540144521983
 20
104.8875058760046
 10
147.54961500759293
 20
104.8875058760046
 10
148.963828569966
 20
103.94469683442253
 10
150.84944665313014
 20
103.47329231363145
 10
151.7922556947122
 20
102.5304832720494
 10
153.67787377787633
 20
102.05907875125841
 10
154.38498055906288
 20
101.35197197007184
 10
153.91357603827186
 20
100.88056744928076
 10
154.6206828194584
 20
99.70205614730321
 10
156.27059864222701
 20
99.46635388690773
 10
155.799194121436
 20
98.52354484532566
 10
156.27059864222701
 20
97.58073580374361
 10
155.799194121436
 20
97.10933128295251
 10
155.799194121436
 20
95.22371319978839
 10
154.8563850798539
 20
94.28090415820634
 10
154.8563850798539
 20
93.33809511662427
 10
155.32778960064493
 20
92.8666905958333
 10
152.9707669966898
 20
92.8666905958333
 10
149.43523309075704
 20
96.87362902255703
  0
LWPOLYLINE
  5
5C
330
17
100
AcDbEntity
  8
ENG_K
100
AcDbPolyline
 90
11
 70
1
 10
148.963828569966
 20
95.45941546018399
 10
150.1423398719436
 20
94.75230867899742
 10
151.55655343431667
 20
92.39528607504222
 10
150.61374439273462
 20
90.98107251266919
 10
150.61374439273462
 20
90.03826347108712
 10
149.67093535115256
 20
89.56685895029604
 10
149.67093535115256
 20
89.09545442950505
 10
153.91357603827186
 20
83.4386001800127
 10
153.67787377787633
 20
82.73149339882613
 10
148.72812630957048
 20
83.91000470080368
 10
148.963828569966
 20
95.45941546018399
  0
LWPOLYLINE
  5
5D
330
17
100
AcDbEntity
  8
ENG_K
100
AcDbPolyline
 90
11
 70
1
 10
140.0071426749364
 20
85.5599205235723
 10
139.30003589374988
 20
86.26702730475877
 10
140.71424945612296
 20
89.56685895029604
 10
140.71424945612296
 20
90.50966799187809
 10
142.12846301849603
 20
92.8666905958333
 10
142.5998675392871
 20
95.22371319978839
 10
143.54267658086914
 20
96.63792676216154
 10
145.19259240363778
 20
102.5304832720494
 10
145.42829466403327
 20
84.85281374238573
 10
143.3069743204736
 20
85.5599205235723
 10
140.0071426749364
 20
85.5599205235723
  0
LWPOLYLINE
  5
5E
330
17
100
AcDbEntity
  8
CUT_SLOT
100
AcDbPolyline
 90
5
 70
1
 10
99.22478658646683
 20
0.0
 10
102.78888820160459
 20
0.0
 10
102.78888820160459
 20
141.42135623730957
 10
99.22478658646683
 20
141.42135623730957
 10
99.22478658646683
 20
0.0
  0
LWPOLYLINE
  5
5F
330
17
100
AcDbEntity
  8
CUT_SLOT
100
AcDbPolyline
 90
5
 70
1
 10
122.31879735405185
 20
0.0
 10
125.88289896918961
 20
0.0
 10
125.88289896918961
 20
141.42135623730957
 10
122.31879735405185
 20
141.42135623730957
 10
122.31879735405185
 20
0.0
  0
LWPOLYLINE
  5
60
330
17
100
AcDbEntity
  8
CUT_SLOT
100
AcDbPolyline
 90
5
 70
1
 10
145.41280812163686
 20
0.0
 10
148.97690973677462
 20
0.0
 10
148.97690973677462
 20
141.42135623730957
 10
145.41280812163686
 20
141.42135623730957
 10
145.41280812163686
 20
0.0
  0
LWPOLYLINE
  5
61
330
17
100
AcDbEntity
  8
CUT_SLOT
100
AcDbPolyline
 90
5
 70
1
 10
168.5068188892219
 20
0.0
 10
172.07092050435966
 20
0.0
 10
172.07092050435966
 20
141.42135623730957
 10
168.5068188892219
 20
141.42135623730957
 10
168.5068188892219
 20
0.0
  0
LWPOLYLINE
  5
62
330
17
100
AcDbEntity
  8
CUT_SLOT
100
AcDbPolyline
 90
5
 70
1
 10
191.60082965680692
 20
0.0
 10
195.16493127194468
 20
0.0
 10
195.16493127194468
 20
141.42135623730957
 10
191.60082965680692
 20
141.42135623730957
 10
191.60082965680692
 20
0.0
  0
LWPOLYLINE
  5
63
330
17
100
AcDbEntity
  8
CUT_SLOT
100
AcDbPolyline
 90
5
 70
1
 10
214.69484042439197
 20
0.0
 10
218.25894203952973
 20
0.0
 10
218.25894203952973
 20
141.42135623730957
 10
214.69484042439197
 20
141.42135623730957
 10
214.69484042439197
 20
0.0
  0
LWPOLYLINE
  5
64
330
17
100
AcDbEntity
  8
CUT_SLOT
100
AcDbPolyline
 90
5
 70
1
 10
64.58377043508929
 20
141.42135623730957
 10
68.14787205022705
 20
141.42135623730957
 10
68.14787205022705
 20
282.84271247461913
 10
64.58377043508929
 20
282.84271247461913
 10
64.58377043508929
 20
141.42135623730957
  0
LWPOLYLINE
  5
65
330
17
100
AcDbEntity
  8
CUT_SLOT
100
AcDbPolyline
 90
5
 70
1
 10
87.67778120267431
 20
141.42135623730957
 10
91.24188281781207
 20
141.42135623730957
 10
91.24188281781207
 20
282.84271247461913
 10
87.67778120267431
 20
282.84271247461913
 10
87.67778120267431
 20
141.42135623730957
  0
LWPOLYLINE
  5
66
330
17
100
AcDbEntity
  8
CUT_SLOT
100
AcDbPolyline
 90
5
 70
1
 10
110.77179197025934
 20
141.42135623730957
 10
114.3358935853971
 20
141.42135623730957
 10
114.3358935853971
 20
282.84271247461913
 10
110.77179197025934
 20
282.84271247461913
 10
110.77179197025934
 20
141.42135623730957
  0
LWPOLYLINE
  5
67
330
17
100
AcDbEntity
  8
CUT_SLOT
100
AcDbPolyline
 90
5
 70
1
 10
133.86580273784435
 20
141.42135623730957
 10
137.4299043529821
 20
141.42135623730957
 10
137.4299043529821
 20
282.84271247461913
 10
133.86580273784435
 20
282.84271247461913
 10
133.86580273784435
 20
141.42135623730957
  0
LWPOLYLINE
  5
68
330
17
100
AcDbEntity
  8
CUT_SLOT
100
AcDbPolyline
 90
5
 70
1
 10
156.95981350542937
 20
141.42135623730957
 10
160.52391512056712
 20
141.42135623730957
 10
160.52391512056712
 20
282.84271247461913
 10
156.95981350542937
 20
282.84271247461913
 10
156.95981350542937
 20
141.42135623730957
  0
LWPOLYLINE
  5
69
330
17
100
AcDbEntity
  8
CUT_SLOT
100
AcDbPolyline
 90
5
 70
1
 10
180.05382427301447
 20
141.42135623730957
 10
183.61792588815223
 20
141.42135623730957
 10
183.61792588815223
 20
282.84271247461913
 10
180.05382427301447
 20
282.84271247461913
 10
180.05382427301447
 20
141.42135623730957
  0
LWPOLYLINE
  5
6A
330
17
100
AcDbEntity
  8
CUT_OUTLINE
100
AcDbPolyline
 90
5
 70
1
 10
0.0
 20
0.0
 10
282.842712474619
 20
0.0
 10
282.842712474619
 20
282.84271247461913
 10
0.0
 20
282.84271247461913
 10
0.0
 20
0.0
  0
ENDSEC
  0
SECTION
  2
OBJECTS
  0
DICTIONARY
  5
A
330
0
100
AcDbDictionary
281
1
  3
ACAD_COLOR
350
B
  3
ACAD_GROUP
350
C
  3
ACAD_LAYOUT
350
D
  3
ACAD_MATERIAL
350
E
  3
ACAD_MLEADERSTYLE
350
F
  3
ACAD_MLINESTYLE
350
10
  3
ACAD_PLOTSETTINGS
350
11
  3
ACAD_PLOTSTYLENAME
350
12
  3
ACAD_SCALELIST
350
14
  3
ACAD_TABLESTYLE
350
15
  3
ACAD_VISUALSTYLE
350
16
  3
EZDXF_META
350
2D
  0
DICTIONARY
  5
B
330
A
100
AcDbDictionary
281
1
  0
DICTIONARY
  5
C
330
A
100
AcDbDictionary
281
1
  0
DICTIONARY
  5
D
330
A
100
AcDbDictionary
281
1
  3
Model
350
1A
  3
Layout1
350
1E
  0
DICTIONARY
  5
E
330
A
100
AcDbDictionary
281
1
  3
ByBlock
350
1F
  3
ByLayer
350
20
  3
Global
350
21
  0
DICTIONARY
  5
F
330
A
100
AcDbDictionary
281
1
  3
Standard
350
2C
  0
DICTIONARY
  5
10
330
A
100
AcDbDictionary
281
1
  3
Standard
350
22
  0
DICTIONARY
  5
11
330
A
100
AcDbDictionary
281
1
  0
ACDBDICTIONARYWDFLT
  5
12
330
A
100
AcDbDictionary
281
1
  3
Normal
350
13
100
AcDbDictionaryWithDefault
340
13
  0
ACDBPLACEHOLDER
  5
13
330
12
  0
DICTIONARY
  5
14
330
A
100
AcDbDictionary
281
1
  0
DICTIONARY
  5
15
330
A
100
AcDbDictionary
281
1
  0
DICTIONARY
  5
16
330
A
100
AcDbDictionary
281
1
  0
LAYOUT
  5
1A
330
D
100
AcDbPlotSettings
  1

  4
A3
  6

 40
7.5
 41
20.0
 42
7.5
 43
20.0
 44
420.0
 45
297.0
 46
0.0
 47
0.0
 48
0.0
 49
0.0
140
0.0
141
0.0
142
1.0
143
1.0
 70
1024
 72
1
 73
0
 74
5
  7

 75
16
 76
0
 77
2
 78
300
147
1.0
148
0.0
149
0.0
100
AcDbLayout
  1
Model
 70
1
 71
0
 10
0.0
 20
0.0
 11
420.0
 21
297.0
 12
0.0
 22
0.0
 32
0.0
 14
1e+20
 24
1e+20
 34
1e+20
 15
-1e+20
 25
-1e+20
 35
-1e+20
146
0.0
 13
0.0
 23
0.0
 33
0.0
 16
1.0
 26
0.0
 36
0.0
 17
0.0
 27
1.0
 37
0.0
 76
1
330
17
  0
LAYOUT
  5
1E
330
D
100
AcDbPlotSettings
  1

  4
A3
  6

 40
7.5
 41
20.0
 42
7.5
 43
20.0
 44
420.0
 45
297.0
 46
0.0
 47
0.0
 48
0.0
 49
0.0
140
0.0
141
0.0
142
1.0
143
1.0
 70
0
 72
1
 73
0
 74
5
  7

 75
16
 76
0
 77
2
 78
300
147
1.0
148
0.0
149
0.0
100
AcDbLayout
  1
Layout1
 70
1
 71
1
 10
0.0
 20
0.0
 11
420.0
 21
297.0
 12
0.0
 22
0.0
 32
0.0
 14
1e+20
 24
1e+20
 34
1e+20
 15
-1e+20
 25
-1e+20
 35
-1e+20
146
0.0
 13
0.0
 23
0.0
 33
0.0
 16
1.0
 26
0.0
 36
0.0
 17
0.0
 27
1.0
 37
0.0
 76
1
330
1B
  0
MATERIAL
  5
1F
102
{ACAD_REACTORS
330
E
102
}
330
E
100
AcDbMaterial
  1
ByBlock
  2

 70
0
 40
1.0
 71
1
 41
1.0
 91
-1023410177
 42
1.0
 72
1
  3

 73
1
 74
1
 75
1
 44
0.5
 73
0
 45
1.0
 46
1.0
 77
1
  4

 78
1
 79
1
170
1
 48
1.0
171
1
  6

172
1
173
1
174
1
140
1.0
141
1.0
175
1
  7

176
1
177
1
178
1
143
1.0
179
1
  8

270
1
271
1
272
1
145
1.0
146
1.0
273
1
  9

274
1
275
1
276
1
 42
1.0
 72
1
  3

 73
1
 74
1
 75
1
 94
63
  0
MATERIAL
  5
20
102
{ACAD_REACTORS
330
E
102
}
330
E
100
AcDbMaterial
  1
ByLayer
  2

 70
0
 40
1.0
 71
1
 41
1.0
 91
-1023410177
 42
1.0
 72
1
  3

 73
1
 74
1
 75
1
 44
0.5
 73
0
 45
1.0
 46
1.0
 77
1
  4

 78
1
 79
1
170
1
 48
1.0
171
1
  6

172
1
173
1
174
1
140
1.0
141
1.0
175
1
  7

176
1
177
1
178
1
143
1.0
179
1
  8

270
1
271
1
272
1
145
1.0
146
1.0
273
1
  9

274
1
275
1
276
1
 42
1.0
 72
1
  3

 73
1
 74
1
 75
1
 94
63
  0
MATERIAL
  5
21
102
{ACAD_REACTORS
330
E
102
}
330
E
100
AcDbMaterial
  1
Global
  2

 70
0
 40
1.0
 71
1
 41
1.0
 91
-1023410177
 42
1.0
 72
1
  3

 73
1
 74
1
 75
1
 44
0.5
 73
0
 45
1.0
 46
1.0
 77
1
  4

 78
1
 79
1
170
1
 48
1.0
171
1
  6

172
1
173
1
174
1
140
1.0
141
1.0
175
1
  7

176
1
177
1
178
1
143
1.0
179
1
  8

270
1
271
1
272
1
145
1.0
146
1.0
273
1
  9

274
1
275
1
276
1
 42
1.0
 72
1
  3

 73
1
 74
1
 75
1
 94
63
  0
MLINESTYLE
  5
22
102
{ACAD_REACTORS
330
10
102
}
330
10
100
AcDbMlineStyle
  2
Standard
 70
0
  3

 62
256
 51
90.0
 52
90.0
 71
2
 49
0.5
 62
256
  6
BYLAYER
 49
-0.5
 62
256
  6
BYLAYER
  0
MLEADERSTYLE
  5
2C
102
{ACAD_REACTORS
330
F
102
}
330
F
100
AcDbMLeaderStyle
179
2
170
2
171
1
172
0
 90
2
 40
0.0
 41
0.0
173
1
 91
-1056964608
 92
-2
290
1
 42
2.0
291
1
 43
8.0
  3
Standard
 44
4.0
300

342
29
174
1
175
1
176
0
178
1
 93
-1056964608
 45
4.0
292
0
297
0
 46
4.0
 94
-1056964608
 47
1.0
 49
1.0
140
1.0
294
1
141
0.0
177
0
142
1.0
295
0
296
0
143
3.75
271
0
272
9
273
9
  0
DICTIONARY
  5
2D
330
A
100
AcDbDictionary
280
1
281
1
  3
CREATED_BY_EZDXF
350
2E
  3
WRITTEN_BY_EZDXF
350
6D
  0
DICTIONARYVAR
  5
2E
330
2D
100
DictionaryVariables
280
0
  1
1.4.4 @ 2026-08-03T11:44:35.990938+00:00
  0
DICTIONARYVAR
  5
6D
330
2D
100
DictionaryVariables
280
0
  1
1.4.4 @ 2026-08-03T11:44:36.001849+00:00
  0
ENDSEC
  0
EOF
