  0
SECTION
  2
HEADER
  9
$ACADVER
  1
AC1027
  9
$ACADMAINTVER
 70
105
  9
$DWGCODEPAGE
  3
ANSI_1252
  9
$LASTSAVEDBY
  1
ezdxf
  9
$REQUIREDVERSIONS
160
0
  9
$INSBASE
 10
0.0
 20
0.0
 30
0.0
  9
$EXTMIN
 10
1e+20
 20
1e+20
 30
1e+20
  9
$EXTMAX
 10
-1e+20
 20
-1e+20
 30
-1e+20
  9
$LIMMIN
 10
0.0
 20
0.0
  9
$LIMMAX
 10
420.0
 20
297.0
  9
$ORTHOMODE
 70
0
  9
$REGENMODE
 70
1
  9
$FILLMODE
 70
1
  9
$QTEXTMODE
 70
0
  9
$MIRRTEXT
 70
1
  9
$LTSCALE
 40
1.0
  9
$ATTMODE
 70
1
  9
$TEXTSIZE
 40
2.5
  9
$TRACEWID
 40
1.0
  9
$TEXTSTYLE
  7
Standard
  9
$CLAYER
  8
0
  9
$CELTYPE
  6
ByLayer
  9
$CECOLOR
 62
256
  9
$CELTSCALE
 40
1.0
  9
$DISPSILH
 70
0
  9
$DIMSCALE
 40
1.0
  9
$DIMASZ
 40
2.5
  9
$DIMEXO
 40
0.625
  9
$DIMDLI
 40
3.75
  9
$DIMRND
 40
0.0
  9
$DIMDLE
 40
0.0
  9
$DIMEXE
 40
1.25
  9
$DIMTP
 40
0.0
  9
$DIMTM
 40
0.0
  9
$DIMTXT
 40
2.5
  9
$DIMCEN
 40
2.5
  9
$DIMTSZ
 40
0.0
  9
$DIMTOL
 70
0
  9
$DIMLIM
 70
0
  9
$DIMTIH
 70
0
  9
$DIMTOH
 70
0
  9
$DIMSE1
 70
0
  9
$DIMSE2
 70
0
  9
$DIMTAD
 70
1
  9
$DIMZIN
 70
8
  9
$DIMBLK
  1

  9
$DIMASO
 70
1
  9
$DIMSHO
 70
1
  9
$DIMPOST
  1

  9
$DIMAPOST
  1

  9
$DIMALT
 70
0
  9
$DIMALTD
 70
3
  9
$DIMALTF
 40
0.03937007874
  9
$DIMLFAC
 40
1.0
  9
$DIMTOFL
 70
1
  9
$DIMTVP
 40
0.0
  9
$DIMTIX
 70
0
  9
$DIMSOXD
 70
0
  9
$DIMSAH
 70
0
  9
$DIMBLK1
  1

  9
$DIMBLK2
  1

  9
$DIMSTYLE
  2
ISO-25
  9
$DIMCLRD
 70
0
  9
$DIMCLRE
 70
0
  9
$DIMCLRT
 70
0
  9
$DIMTFAC
 40
1.0
  9
$DIMGAP
 40
0.625
  9
$DIMJUST
 70
0
  9
$DIMSD1
 70
0
  9
$DIMSD2
 70
0
  9
$DIMTOLJ
 70
0
  9
$DIMTZIN
 70
8
  9
$DIMALTZ
 70
0
  9
$DIMALTTZ
 70
0
  9
$DIMUPT
 70
0
  9
$DIMDEC
 70
2
  9
$DIMTDEC
 70
2
  9
$DIMALTU
 70
2
  9
$DIMALTTD
 70
3
  9
$DIMTXSTY
  7
Standard
  9
$DIMAUNIT
 70
0
  9
$DIMADEC
 70
0
  9
$DIMALTRND
 40
0.0
  9
$DIMAZIN
 70
0
  9
$DIMDSEP
 70
44
  9
$DIMATFIT
 70
3
  9
$DIMFRAC
 70
0
  9
$DIMLDRBLK
  1

  9
$DIMLUNIT
 70
2
  9
$DIMLWD
 70
-2
  9
$DIMLWE
 70
-2
  9
$DIMTMOVE
 70
0
  9
$DIMFXL
 40
1.0
  9
$DIMFXLON
 70
0
  9
$DIMJOGANG
 40
0.785398163397
  9
$DIMTFILL
 70
0
  9
$DIMTFILLCLR
 70
0
  9
$DIMARCSYM
 70
0
  9
$DIMLTYPE
  6

  9
$DIMLTEX1
  6

  9
$DIMLTEX2
  6

  9
$DIMTXTDIRECTION
 70
0
  9
$LUNITS
 70
2
  9
$LUPREC
 70
4
  9
$SKETCHINC
 40
1.0
  9
$FILLETRAD
 40
10.0
  9
$AUNITS
 70
0
  9
$AUPREC
 70
2
  9
$MENU
  1
.
  9
$ELEVATION
 40
0.0
  9
$PELEVATION
 40
0.0
  9
$THICKNESS
 40
0.0
  9
$LIMCHECK
 70
0
  9
$CHAMFERA
 40
0.0
  9
$CHAMFERB
 40
0.0
  9
$CHAMFERC
 40
0.0
  9
$CHAMFERD
 40
0.0
  9
$SKPOLY
 70
0
  9
$TDCREATE
 40
2461256.6142939813
  9
$TDUCREATE
 40
2458532.153996898
  9
$TDUPDATE
 40
2461256.6142939813
  9
$TDUUPDATE
 40
2458532.1544311
  9
$TDINDWG
 40
0.0
  9
$TDUSRTIMER
 40
0.0
  9
$USRTIMER
 70
1
  9
$ANGBASE
 50
0.0
  9
$ANGDIR
 70
0
  9
$PDMODE
 70
0
  9
$PDSIZE
 40
0.0
  9
$PLINEWID
 40
0.0
  9
$SPLFRAME
 70
0
  9
$SPLINETYPE
 70
6
  9
$SPLINESEGS
 70
8
  9
$HANDSEED
  5
4C
  9
$SURFTAB1
 70
6
  9
$SURFTAB2
 70
6
  9
$SURFTYPE
 70
6
  9
$SURFU
 70
6
  9
$SURFV
 70
6
  9
$UCSBASE
  2

  9
$UCSNAME
  2

  9
$UCSORG
 10
0.0
 20
0.0
 30
0.0
  9
$UCSXDIR
 10
1.0
 20
0.0
 30
0.0
  9
$UCSYDIR
 10
0.0
 20
1.0
 30
0.0
  9
$UCSORTHOREF
  2

  9
$UCSORTHOVIEW
 70
0
  9
$UCSORGTOP
 10
0.0
 20
0.0
 30
0.0
  9
$UCSORGBOTTOM
 10
0.0
 20
0.0
 30
0.0
  9
$UCSORGLEFT
 10
0.0
 20
0.0
 30
0.0
  9
$UCSORGRIGHT
 10
0.0
 20
0.0
 30
0.0
  9
$UCSORGFRONT
 10
0.0
 20
0.0
 30
0.0
  9
$UCSORGBACK
 10
0.0
 20
0.0
 30
0.0
  9
$PUCSBASE
  2

  9
$PUCSNAME
  2

  9
$PUCSORG
 10
0.0
 20
0.0
 30
0.0
  9
$PUCSXDIR
 10
1.0
 20
0.0
 30
0.0
  9
$PUCSYDIR
 10
0.0
 20
1.0
 30
0.0
  9
$PUCSORTHOREF
  2

  9
$PUCSORTHOVIEW
 70
0
  9
$PUCSORGTOP
 10
0.0
 20
0.0
 30
0.0
  9
$PUCSORGBOTTOM
 10
0.0
 20
0.0
 30
0.0
  9
$PUCSORGLEFT
 10
0.0
 20
0.0
 30
0.0
  9
$PUCSORGRIGHT
 10
0.0
 20
0.0
 30
0.0
  9
$PUCSORGFRONT
 10
0.0
 20
0.0
 30
0.0
  9
$PUCSORGBACK
 10
0.0
 20
0.0
 30
0.0
  9
$USERI1
 70
0
  9
$USERI2
 70
0
  9
$USERI3
 70
0
  9
$USERI4
 70
0
  9
$USERI5
 70
0
  9
$USERR1
 40
0.0
  9
$USERR2
 40
0.0
  9
$USERR3
 40
0.0
  9
$USERR4
 40
0.0
  9
$USERR5
 40
0.0
  9
$WORLDVIEW
 70
1
  9
$SHADEDGE
 70
3
  9
$SHADEDIF
 70
70
  9
$TILEMODE
 70
1
  9
$MAXACTVP
 70
64
  9
$PINSBASE
 10
0.0
 20
0.0
 30
0.0
  9
$PLIMCHECK
 70
0
  9
$PEXTMIN
 10
1e+20
 20
1e+20
 30
1e+20
  9
$PEXTMAX
 10
-1e+20
 20
-1e+20
 30
-1e+20
  9
$PLIMMIN
 10
0.0
 20
0.0
  9
$PLIMMAX
 10
420.0
 20
297.0
  9
$UNITMODE
 70
0
  9
$VISRETAIN
 70
1
  9
$PLINEGEN
 70
0
  9
$PSLTSCALE
 70
1
  9
$TREEDEPTH
 70
3020
  9
$CMLSTYLE
  2
Standard
  9
$CMLJUST
 70
0
  9
$CMLSCALE
 40
20.0
  9
$PROXYGRAPHICS
 70
1
  9
$MEASUREMENT
 70
1
  9
$CELWEIGHT
370
-1
  9
$ENDCAPS
280
0
  9
$JOINSTYLE
280
0
  9
$LWDISPLAY
290
0
  9
$INSUNITS
 70
4
  9
$HYPERLINKBASE
  1

  9
$STYLESHEET
  1

  9
$XEDIT
290
1
  9
$CEPSNTYPE
380
0
  9
$PSTYLEMODE
290
1
  9
$FINGERPRINTGUID
  2
{5F7C8816-2E56-43B9-BC54-DE11F3824A6D}
  9
$VERSIONGUID
  2
{1F5B0EE8-57DF-442F-9D42-0E5469ED1066}
  9
$EXTNAMES
290
1
  9
$PSVPSCALE
 40
0.0
  9
$OLESTARTUP
290
0
  9
$SORTENTS
280
127
  9
$INDEXCTL
280
0
  9
$HIDETEXT
280
1
  9
$XCLIPFRAME
280
1
  9
$HALOGAP
280
0
  9
$OBSCOLOR
 70
257
  9
$OBSLTYPE
280
0
  9
$INTERSECTIONDISPLAY
280
0
  9
$INTERSECTIONCOLOR
 70
257
  9
$DIMASSOC
280
2
  9
$PROJECTNAME
  1

  9
$CAMERADISPLAY
290
0
  9
$LENSLENGTH
 40
50.0
  9
$CAMERAHEIGHT
 40
0.0
  9
$STEPSPERSEC
 40
24.0
  9
$STEPSIZE
 40
100.0
  9
$3DDWFPREC
 40
2.0
  9
$PSOLWIDTH
 40
0.005
  9
$PSOLHEIGHT
 40
0.08
  9
$LOFTANG1
 40
1.570796326795
  9
$LOFTANG2
 40
1.570796326795
  9
$LOFTMAG1
 40
0.0
  9
$LOFTMAG2
 40
0.0
  9
$LOFTPARAM
 70
7
  9
$LOFTNORMALS
280
1
  9
$LATITUDE
 40
37.795
  9
$LONGITUDE
 40
-122.394
  9
$NORTHDIRECTION
 40
0.0
  9
$TIMEZONE
 70
-8000
  9
$LIGHTGLYPHDISPLAY
280
1
  9
$TILEMODELIGHTSYNCH
280
1
  9
$CMATERIAL
347
20
  9
$SOLIDHIST
280
0
  9
$SHOWHIST
280
1
  9
$DWFFRAME
280
2
  9
$DGNFRAME
280
2
  9
$REALWORLDSCALE
290
1
  9
$INTERFERECOLOR
 62
256
  9
$CSHADOW
280
0
  9
$SHADOWPLANELOCATION
 40
0.0
  0
ENDSEC
  0
SECTION
  2
CLASSES
  0
CLASS
  1
ACDBDICTIONARYWDFLT
  2
AcDbDictionaryWithDefault
  3
ObjectDBX Classes
 90
0
 91
0
280
0
281
0
  0
CLASS
  1
SUN
  2
AcDbSun
  3
SCENEOE
 90
1153
 91
0
280
0
281
0
  0
CLASS
  1
VISUALSTYLE
  2
AcDbVisualStyle
  3
ObjectDBX Classes
 90
4095
 91
0
280
0
281
0
  0
CLASS
  1
MATERIAL
  2
AcDbMaterial
  3
ObjectDBX Classes
 90
1153
 91
0
280
0
281
0
  0
CLASS
  1
SCALE
  2
AcDbScale
  3
ObjectDBX Classes
 90
1153
 91
0
280
0
281
0
  0
CLASS
  1
TABLESTYLE
  2
AcDbTableStyle
  3
ObjectDBX Classes
 90
4095
 91
0
280
0
281
0
  0
CLASS
  1
MLEADERSTYLE
  2
AcDbMLeaderStyle
  3
ACDB_MLEADERSTYLE_CLASS
 90
4095
 91
0
280
0
281
0
  0
CLASS
  1
DICTIONARYVAR
  2
AcDbDictionaryVar
  3
ObjectDBX Classes
 90
0
 91
0
280
0
281
0
  0
CLASS
  1
CELLSTYLEMAP
  2
AcDbCellStyleMap
  3
ObjectDBX Classes
 90
1152
 91
0
280
0
281
0
  0
CLASS
  1
MENTALRAYRENDERSETTINGS
  2
AcDbMentalRayRenderSettings
  3
SCENEOE
 90
1024
 91
0
280
0
281
0
  0
CLASS
  1
ACDBDETAILVIEWSTYLE
  2
AcDbDetailViewStyle
  3
ObjectDBX Classes
 90
1025
 91
0
280
0
281
0
  0
CLASS
  1
ACDBSECTIONVIEWSTYLE
  2
AcDbSectionViewStyle
  3
ObjectDBX Classes
 90
1025
 91
0
280
0
281
0
  0
CLASS
  1
RASTERVARIABLES
  2
AcDbRasterVariables
  3
ISM
 90
0
 91
0
280
0
281
0
  0
CLASS
  1
LAYOUT
  2
AcDbLayout
  3
ObjectDBX Classes
 90
0
 91
0
280
0
281
0
  0
CLASS
  1
ACDBPLACEHOLDER
  2
AcDbPlaceHolder
  3
ObjectDBX Classes
 90
0
 91
0
280
0
281
0
  0
ENDSEC
  0
SECTION
  2
TABLES
  0
TABLE
  2
VPORT
  5
8
330
0
100
AcDbSymbolTable
 70
1
  0
VPORT
  5
23
330
8
100
AcDbSymbolTableRecord
100
AcDbViewportTableRecord
  2
*Active
 70
0
 10
0.0
 20
0.0
 11
1.0
 21
1.0
 12
0.0
 22
0.0
 13
0.0
 23
0.0
 14
0.5
 24
0.5
 15
0.5
 25
0.5
 16
0.0
 26
0.0
 36
1.0
 17
0.0
 27
0.0
 37
0.0
 40
1000.0
 41
1.34
 42
50.0
 43
0.0
 44
0.0
 50
0.0
 51
0.0
 71
0
 72
1000
 73
1
 74
3
 75
0
 76
0
 77
0
 78
0
281
0
 65
0
146
0.0
  0
ENDTAB
  0
TABLE
  2
LTYPE
  5
2
330
0
100
AcDbSymbolTable
 70
3
  0
LTYPE
  5
24
330
2
100
AcDbSymbolTableRecord
100
AcDbLinetypeTableRecord
  2
ByBlock
 70
0
  3

 72
65
 73
0
 40
0.0
  0
LTYPE
  5
25
330
2
100
AcDbSymbolTableRecord
100
AcDbLinetypeTableRecord
  2
ByLayer
 70
0
  3

 72
65
 73
0
 40
0.0
  0
LTYPE
  5
26
330
2
100
AcDbSymbolTableRecord
100
AcDbLinetypeTableRecord
  2
Continuous
 70
0
  3

 72
65
 73
0
 40
0.0
  0
ENDTAB
  0
TABLE
  2
LAYER
  5
1
330
0
100
AcDbSymbolTable
 70
7
  0
LAYER
  5
27
330
1
100
AcDbSymbolTableRecord
100
AcDbLayerTableRecord
  2
0
 70
0
 62
7
  6
Continuous
370
-3
390
13
347
21
  0
LAYER
  5
28
330
1
100
AcDbSymbolTableRecord
100
AcDbLayerTableRecord
  2
Defpoints
 70
0
 62
7
  6
Continuous
290
0
370
-3
390
13
347
21
  0
LAYER
  5
2F
330
1
100
AcDbSymbolTableRecord
100
AcDbLayerTableRecord
  2
ENG_L
 70
0
 62
4
  6
Continuous
370
-3
390
13
347
21
  0
LAYER
  5
30
330
1
100
AcDbSymbolTableRecord
100
AcDbLayerTableRecord
  2
ENG_D
 70
0
 62
3
  6
Continuous
370
-3
390
13
347
21
  0
LAYER
  5
31
330
1
100
AcDbSymbolTableRecord
100
AcDbLayerTableRecord
  2
ENG_K
 70
0
 62
2
  6
Continuous
370
-3
390
13
347
21
  0
LAYER
  5
32
330
1
100
AcDbSymbolTableRecord
100
AcDbLayerTableRecord
  2
CUT_OUTLINE
 70
0
 62
5
  6
Continuous
370
-3
390
13
347
21
  0
LAYER
  5
33
330
1
100
AcDbSymbolTableRecord
100
AcDbLayerTableRecord
  2
CUT_SLOT
 70
0
 62
1
  6
Continuous
370
-3
390
13
347
21
  0
ENDTAB
  0
TABLE
  2
STYLE
  5
5
330
0
100
AcDbSymbolTable
 70
1
  0
STYLE
  5
29
330
5
100
AcDbSymbolTableRecord
100
AcDbTextStyleTableRecord
  2
Standard
 70
0
 40
0.0
 41
1.0
 50
0.0
 71
0
 42
2.5
  3
txt
  4

  0
ENDTAB
  0
TABLE
  2
VIEW
  5
7
330
0
100
AcDbSymbolTable
 70
0
  0
ENDTAB
  0
TABLE
  2
UCS
  5
6
330
0
100
AcDbSymbolTable
 70
0
  0
ENDTAB
  0
TABLE
  2
APPID
  5
3
330
0
100
AcDbSymbolTable
 70
3
  0
APPID
  5
2A
330
3
100
AcDbSymbolTableRecord
100
AcDbRegAppTableRecord
  2
ACAD
 70
0
  0
APPID
  5
49
330
3
100
AcDbSymbolTableRecord
100
AcDbRegAppTableRecord
  2
HATCHBACKGROUNDCOLOR
 70
0
  0
APPID
  5
4A
330
3
100
AcDbSymbolTableRecord
100
AcDbRegAppTableRecord
  2
EZDXF
 70
0
  0
ENDTAB
  0
TABLE
  2
DIMSTYLE
  5
4
330
0
100
AcDbSymbolTable
 70
1
100
AcDbDimStyleTable
  0
DIMSTYLE
105
2B
330
4
100
AcDbSymbolTableRecord
100
AcDbDimStyleTableRecord
  2
Standard
 70
0
 40
1.0
 41
2.5
 42
0.625
 43
3.75
 44
1.25
 45
0.0
 46
0.0
 47
0.0
 48
0.0
 49
2.5
140
2.5
141
2.5
142
0.0
143
0.03937007874
144
1.0
145
0.0
146
1.0
147
0.625
148
0.0
 69
0
 70
0
 71
0
 72
0
 73
0
 74
0
 75
0
 76
0
 77
1
 78
8
 79
3
170
0
171
3
172
1
173
0
174
0
175
0
176
0
177
0
178
0
179
2
271
2
272
2
273
2
274
3
275
0
276
0
277
2
278
44
279
0
280
0
281
0
282
0
283
0
284
8
285
0
286
0
288
0
289
3
290
0
371
-2
372
-2
  0
ENDTAB
  0
TABLE
  2
BLOCK_RECORD
  5
9
330
0
100
AcDbSymbolTable
 70
2
  0
BLOCK_RECORD
  5
17
330
9
100
AcDbSymbolTableRecord
100
AcDbBlockTableRecord
  2
*Model_Space
340
1A
 70
0
280
1
281
0
  0
BLOCK_RECORD
  5
1B
330
9
100
AcDbSymbolTableRecord
100
AcDbBlockTableRecord
  2
*Paper_Space
340
1E
 70
0
280
1
281
0
  0
ENDTAB
  0
ENDSEC
  0
SECTION
  2
BLOCKS
  0
BLOCK
  5
18
330
17
100
AcDbEntity
  8
0
100
AcDbBlockBegin
  2
*Model_Space
 70
0
 10
0.0
 20
0.0
 30
0.0
  3
*Model_Space
  1

  0
ENDBLK
  5
19
330
17
100
AcDbEntity
  8
0
100
AcDbBlockEnd
  0
BLOCK
  5
1C
330
1B
100
AcDbEntity
  8
0
100
AcDbBlockBegin
  2
*Paper_Space
 70
0
 10
0.0
 20
0.0
 30
0.0
  3
*Paper_Space
  1

  0
ENDBLK
  5
1D
330
1B
100
AcDbEntity
  8
0
100
AcDbBlockEnd
  0
ENDSEC
  0
SECTION
  2
ENTITIES
  0
LWPOLYLINE
  5
34
330
17
100
AcDbEntity
  8
ENG_L
100
AcDbPolyline
 90
18
 70
1
 10
186.91189249364407
 20
61.28258770283412
 10
186.91189249364407
 20
82.02438661763955
 10
191.3902354411589
 20
84.61711148199025
 10
200.34692133618847
 20
84.61711148199025
 10
201.99683715895708
 20
82.96719565922162
 10
201.99683715895708
 20
77.78174593052023
 10
202.93964620053913
 20
77.31034140972926
 10
202.93964620053913
 20
68.82506003549061
 10
200.34692133618847
 20
67.64654873351306
 10
199.87551681539745
 20
66.70373969193099
 10
197.98989873223329
 20
65.76093065034894
 10
195.63287612827816
 20
65.28952612955786
 10
193.275853524323
 20
63.875312567184814
 10
192.33304448274095
 20
63.875312567184814
 10
189.50461735799473
 20
62.46109900481167
 10
189.0332128372037
 20
61.51828996322961
 10
188.09040379562165
 20
61.04688544243864
 10
186.91189249364407
 20
61.28258770283412
  0
LWPOLYLINE
  5
35
330
17
100
AcDbEntity
  8
ENG_L
100
AcDbPolyline
 90
19
 70
1
 10
188.32610605601715
 20
105.12320813640008
 10
188.32610605601715
 20
107.0088262195642
 10
187.3832970144351
 20
107.48023074035528
 10
187.3832970144351
 20
116.43691663538492
 10
188.79751057680818
 20
117.37972567696697
 10
189.0332128372037
 20
118.08683245815344
 10
189.50461735799473
 20
118.08683245815344
 10
191.86163996194992
 20
117.14402341657137
 10
193.275853524323
 20
117.14402341657137
 10
193.51155578471852
 20
115.49410759380285
 10
193.0401512639275
 20
115.02270307301177
 10
193.0401512639275
 20
114.0798940314297
 10
192.09734222234542
 20
113.60848951063862
 10
191.6259377015544
 20
110.78006238589244
 10
190.21172413918129
 20
107.48023074035528
 10
190.21172413918129
 20
106.06601717798215
 10
189.74031961839026
 20
105.59461265719116
 10
189.74031961839026
 20
104.65180361560911
 10
188.32610605601715
 20
105.12320813640008
  0
LWPOLYLINE
  5
36
330
17
100
AcDbEntity
  8
ENG_L
100
AcDbPolyline
 90
18
 70
1
 10
176.7766952966369
 20
129.87194547792924
 10
175.5981839946593
 20
130.57905225911583
 10
175.12677947386825
 20
131.52186130069788
 10
177.48380207782344
 20
135.7645019878172
 10
177.48380207782344
 20
136.70731102939925
 10
178.4266111194055
 20
137.17871555019025
 10
178.89801564019652
 20
138.59292911256338
 10
180.31222920256963
 20
140.4785471957275
 10
180.78363372336065
 20
142.36416527889162
 10
181.4907405045472
 20
143.0712720600782
 10
186.91189249364407
 20
141.42135623730957
 10
186.91189249364407
 20
138.59292911256338
 10
188.79751057680818
 20
137.17871555019025
 10
188.79751057680818
 20
135.7645019878172
 10
189.74031961839026
 20
133.87888390465307
 10
189.2689150975992
 20
131.99326582148896
 10
187.14759475403957
 20
129.40054095713828
 10
176.7766952966369
 20
129.87194547792924
  0
LWPOLYLINE
  5
37
330
17
100
AcDbEntity
  8
ENG_D
100
AcDbPolyline
 90
63
 70
1
 10
202.70394394014363
 20
26.63435542469328
 10
200.34692133618847
 20
27.105759945484365
 10
198.2256009926288
 20
30.641293851417117
 10
196.81138743025573
 20
31.584102892999177
 10
194.9257693470916
 20
35.35533905932742
 10
193.74725804511402
 20
36.533850361304964
 10
191.6259377015544
 20
36.769552621700456
 10
191.15453318076337
 20
39.12657522565566
 10
189.74031961839026
 20
41.48359782961075
 10
189.74031961839026
 20
42.8978113919839
 10
188.79751057680818
 20
44.31202495435704
 10
188.32610605601715
 20
46.19764303752116
 10
187.3832970144351
 20
46.66904755831214
 10
187.3832970144351
 20
48.083261120685286
 10
185.49767893127097
 20
51.85449728701352
 10
185.49767893127097
 20
53.26871084938656
 10
184.0834653688979
 20
55.625733453341766
 10
183.61206084810686
 20
57.511351536505884
 10
185.969083452062
 20
59.39696961967
 10
187.14759475403957
 20
61.04688544243864
 10
189.0332128372037
 20
61.51828996322961
 10
189.50461735799473
 20
62.46109900481167
 10
192.33304448274095
 20
63.875312567184814
 10
193.275853524323
 20
63.875312567184814
 10
195.63287612827816
 20
65.28952612955786
 10
197.98989873223329
 20
65.76093065034894
 10
199.87551681539745
 20
66.70373969193099
 10
200.34692133618847
 20
67.64654873351306
 10
202.93964620053913
 20
68.82506003549061
 10
202.93964620053913
 20
77.31034140972926
 10
201.99683715895708
 20
77.78174593052023
 10
202.2325394193526
 20
82.73149339882613
 10
215.4318660015015
 20
82.26008887803505
 10
217.0817818242701
 20
85.7956227839678
 10
217.0817818242701
 20
87.20983634634094
 10
218.02459086585216
 20
87.68124086713192
 10
218.02459086585216
 20
88.62404990871397
 10
218.9673999074342
 20
90.03826347108712
 10
219.43880442822524
 20
92.8666905958333
 10
220.85301799059835
 20
95.69511772057947
 10
221.32442251138937
 20
98.05214032453469
 10
224.38855189653108
 20
98.75924710572114
 10
225.8027654589042
 20
99.70205614730321
 10
228.63119258365037
 20
100.1734606680943
 10
228.86689484404587
 20
43.36921591277498
 10
227.92408580246382
 20
42.8978113919839
 10
227.21697902127727
 20
41.71930009000635
 10
226.27416997969522
 20
41.71930009000635
 10
222.50293381336698
 20
38.89087296526017
 10
221.56012477178487
 20
38.89087296526017
 10
220.1459112094118
 20
37.94806392367811
 10
219.20310216782974
 20
36.533850361304964
 10
218.4959953866432
 20
36.29814810090948
 10
218.02459086585216
 20
34.88393453853633
 10
217.0817818242701
 20
34.412530017745354
 10
216.61037730347905
 20
33.469720976163295
 10
216.61037730347905
 20
32.526911934581236
 10
214.25335469952392
 20
28.284271247461913
 10
214.01765243912837
 20
27.105759945484365
 10
211.66062983517324
 20
26.63435542469328
 10
208.36079818963603
 20
24.748737341529157
 10
204.1181575025167
 20
25.69154638311122
 10
202.70394394014363
 20
26.63435542469328
  0
LWPOLYLINE
  5
38
330
17
100
AcDbEntity
  8
ENG_D
100
AcDbPolyline
 90
24
 70
1
 10
189.74031961839026
 20
88.152645387923
 10
189.74031961839026
 20
89.56685895029604
 10
191.6259377015544
 20
91.45247703346016
 10
191.6259377015544
 20
91.92388155425124
 10
192.33304448274095
 20
92.6309883354377
 10
193.275853524323
 20
92.6309883354377
 10
196.81138743025573
 20
96.16652224137046
 10
197.04708969065123
 20
96.87362902255703
 10
197.98989873223329
 20
96.87362902255703
 10
200.8183258569795
 20
99.70205614730321
 10
203.64675298172568
 20
98.75924710572114
 10
204.35385976291224
 20
98.05214032453469
 10
203.8824552421212
 20
97.58073580374361
 10
203.8824552421212
 20
96.16652224137046
 10
202.93964620053913
 20
94.28090415820634
 10
202.93964620053913
 20
92.8666905958333
 10
201.99683715895708
 20
92.39528607504222
 10
201.99683715895708
 20
90.98107251266919
 10
201.05402811737503
 20
89.09545442950505
 10
201.05402811737503
 20
87.68124086713192
 10
200.582623596584
 20
87.20983634634094
 10
200.11121907579297
 20
84.85281374238573
 10
191.15453318076337
 20
84.85281374238573
 10
189.74031961839026
 20
88.152645387923
  0
LWPOLYLINE
  5
39
330
17
100
AcDbEntity
  8
ENG_D
100
AcDbPolyline
 90
85
 70
1
 10
148.963828569966
 20
21.448905695991893
 10
145.42829466403327
 20
21.213203435596405
 10
144.95689014324225
 20
23.570226039551613
 10
144.01408110166017
 20
25.45584412271573
 10
143.07127206007812
 20
25.927248643506708
 10
142.5998675392871
 20
27.812866726670826
 10
140.71424945612296
 20
31.112698372208094
 10
140.24284493533193
 20
33.469720976163295
 10
139.30003589374988
 20
35.35533905932742
 10
138.3572268521678
 20
35.82674358011839
 10
137.88582233137677
 20
36.769552621700456
 10
137.41441781058575
 20
38.655170704864574
 10
142.12846301849603
 20
43.84062043356596
 10
140.71424945612296
 20
50.91168824543146
 10
140.24284493533193
 20
51.38309276622244
 10
139.7714404145409
 20
55.154328932550676
 10
139.30003589374988
 20
55.625733453341766
 10
139.30003589374988
 20
56.568542494923825
 10
138.3572268521678
 20
57.0399470157148
 10
138.3572268521678
 20
58.92556509887903
 10
137.88582233137677
 20
59.39696961967
 10
138.1215245917723
 20
60.10407640085658
 10
139.06433363335435
 20
60.10407640085658
 10
139.53573815414538
 20
60.575480921647554
 10
140.0071426749364
 20
60.10407640085658
 10
140.94995171651848
 20
61.04688544243864
 10
142.36416527889156
 20
60.575480921647554
 10
143.3069743204736
 20
61.51828996322961
 10
144.24978336205572
 20
61.51828996322961
 10
144.48548562245122
 20
60.33977866125206
 10
145.19259240363778
 20
59.63267188006549
 10
146.13540144521983
 20
59.16126735927452
 10
146.60680596601085
 20
60.10407640085658
 10
147.54961500759293
 20
60.10407640085658
 10
149.67093535115256
 20
58.454160578087944
 10
150.3780421323391
 20
56.80424475531931
 10
151.32085117392117
 20
56.332840234528334
 10
152.26366021550325
 20
56.80424475531931
 10
155.09208734024944
 20
54.91862667215519
 10
157.44910994420457
 20
54.91862667215519
 10
159.3347280273687
 20
53.97581763057313
 10
159.80613254815975
 20
54.447222151364215
 10
161.22034611053286
 20
54.447222151364215
 10
162.1631551521149
 20
53.504413109782156
 10
162.87026193330146
 20
53.74011537017764
 10
163.10596419369696
 20
54.91862667215519
 10
164.04877323527901
 20
54.447222151364215
 10
166.40579583923417
 20
56.332840234528334
 10
166.8772003600252
 20
55.390031192946275
 10
169.2342229639804
 20
55.86143571373725
 10
169.7056274847714
 20
55.390031192946275
 10
170.64843652635346
 20
56.332840234528334
 10
171.59124556793554
 20
56.332840234528334
 10
172.06265008872657
 20
56.80424475531931
 10
172.5340546095176
 20
56.332840234528334
 10
173.00545913030862
 20
56.80424475531931
 10
175.12677947386825
 20
56.568542494923825
 10
174.1839704322862
 20
51.85449728701352
 10
173.71256591149518
 20
51.38309276622244
 10
173.71256591149518
 20
50.44028372464038
 10
172.76975686991312
 20
49.968879203849404
 10
171.35554330754002
 20
44.31202495435704
 10
169.2342229639804
 20
41.71930009000635
 10
167.8200094016073
 20
41.24789556921527
 10
163.81307097488352
 20
37.712361663282515
 10
163.577368714488
 20
37.005254882096054
 10
162.87026193330146
 20
36.769552621700456
 10
164.28447549567454
 20
35.82674358011839
 10
167.58430714121178
 20
28.755675768253
 10
168.99852070358486
 20
27.812866726670826
 10
168.99852070358486
 20
26.870057685088767
 10
170.884138786749
 20
24.041630560342586
 10
171.82694782833104
 20
21.68460795638749
 10
169.7056274847714
 20
21.448905695991893
 10
169.2342229639804
 20
20.97750117520092
 10
166.40579583923417
 20
20.97750117520092
 10
165.93439131844315
 20
20.506096654409834
 10
163.10596419369696
 20
20.506096654409834
 10
162.63455967290594
 20
20.034692133618858
 10
160.27753706895078
 20
20.034692133618858
 10
159.80613254815975
 20
19.56328761282777
 10
156.97770542341354
 20
19.56328761282777
 10
156.5063009026225
 20
19.0918830920368
 10
152.73506473629428
 20
19.56328761282777
 10
148.963828569966
 20
21.448905695991893
  0
LWPOLYLINE
  5
3A
330
17
100
AcDbEntity
  8
ENG_K
100
AcDbPolyline
 90
26
 70
1
 10
205.76807332528531
 20
2.82842712474618
 10
205.76807332528531
 20
3.77123616632824
 10
206.23947784607634
 20
4.242640687119326
 10
206.23947784607634
 20
10.370899457402661
 10
206.71088236686742
 20
10.842303978193746
 10
206.71088236686742
 20
16.970562748477192
 10
207.18228688765845
 20
17.441967269268165
 10
207.18228688765845
 20
24.041630560342586
 10
211.66062983517324
 20
26.63435542469328
 10
214.01765243912837
 20
27.105759945484365
 10
214.25335469952392
 20
28.284271247461913
 10
216.61037730347905
 20
32.526911934581236
 10
216.61037730347905
 20
33.469720976163295
 10
217.3174840846656
 20
34.648232278140846
 10
218.02459086585216
 20
34.88393453853633
 10
218.4959953866432
 20
36.29814810090948
 10
219.91020894901627
 20
37.24095714249154
 10
220.1459112094118
 20
37.94806392367811
 10
221.56012477178487
 20
38.89087296526017
 10
222.50293381336698
 20
38.89087296526017
 10
226.27416997969522
 20
41.71930009000635
 10
227.21697902127727
 20
41.71930009000635
 10
228.15978806285932
 20
43.133513652379385
 10
228.63119258365037
 20
43.133513652379385
 10
228.86689484404587
 20
2.82842712474618
 10
205.76807332528531
 20
2.82842712474618
  0
LWPOLYLINE
  5
3B
330
17
100
AcDbEntity
  8
ENG_K
100
AcDbPolyline
 90
60
 70
1
 10
59.161267359274476
 20
111.25146690668353
 10
59.63267188006551
 20
113.13708498984765
 10
58.92556509887896
 20
113.84419177103422
 10
57.51135153650587
 20
113.84419177103422
 10
57.03994701571483
 20
113.37278725024314
 10
56.09713797413277
 20
114.31559629182519
 10
55.154328932550705
 20
113.84419177103422
 10
53.50441310978209
 20
114.5512985522208
 10
53.50441310978209
 20
115.49410759380285
 10
54.211519890968646
 20
116.6726188957804
 10
56.568542494923804
 20
117.14402341657137
 10
57.982756057296896
 20
118.08683245815344
 10
61.753992223625154
 20
119.0296414997356
 10
62.22539674441619
 20
119.50104602052659
 10
63.168205785998246
 20
119.50104602052659
 10
65.05382386916237
 20
120.44385506210864
 10
65.99663291074444
 20
121.85806862448167
 10
66.9394419523265
 20
121.85806862448167
 10
69.76786907707269
 20
123.27228218685482
 10
71.18208263944578
 20
123.27228218685482
 10
73.06770072260991
 20
124.68649574922796
 10
74.95331880577403
 20
125.15790027001894
 10
76.83893688893816
 20
127.51492287397414
 10
77.3103414097292
 20
127.51492287397414
 10
79.19595949289332
 20
129.40054095713828
 10
82.73149339882606
 20
129.63624321753375
 10
82.73149339882606
 20
128.2220296551606
 10
81.788684357244
 20
127.27922061357866
 10
82.73149339882606
 20
125.86500705120551
 10
81.31727983645297
 20
124.45079348883237
 10
81.788684357244
 20
123.97938896804139
 10
80.61017305526643
 20
122.80087766606384
 10
79.66736401368435
 20
122.80087766606384
 10
78.96025723249781
 20
122.09377088487727
 10
78.96025723249781
 20
121.1509618432952
 10
79.43166175328884
 20
120.67955732250412
 10
78.48885271170677
 20
120.20815280171315
 10
79.43166175328884
 20
118.79393923934
 10
78.48885271170677
 20
117.85113019775795
 10
79.43166175328884
 20
116.90832115617589
 10
79.19595949289332
 20
115.72980985419834
 10
75.42472332656507
 20
114.31559629182519
 10
74.01050976419198
 20
114.31559629182519
 10
72.12489168102786
 20
113.37278725024314
 10
71.18208263944578
 20
113.37278725024314
 10
70.71067811865476
 20
112.90138272945217
 10
69.29646455628166
 20
112.90138272945217
 10
67.41084647311753
 20
111.9585736878701
 10
66.46803743153546
 20
111.9585736878701
 10
65.99663291074444
 20
111.01576464628803
 10
65.52522838995341
 20
111.01576464628803
 10
65.2895261295579
 20
111.7228714274745
 10
67.17514421272202
 20
113.13708498984765
 10
67.17514421272202
 20
114.5512985522208
 10
66.46803743153546
 20
114.78700081261628
 10
65.52522838995341
 20
113.37278725024314
 10
64.58241934837135
 20
113.84419177103422
 10
63.63961030678927
 20
113.37278725024314
 10
61.753992223625154
 20
111.01576464628803
 10
59.161267359274476
 20
111.25146690668353
  0
LWPOLYLINE
  5
3C
330
17
100
AcDbEntity
  8
CUT_SLOT
100
AcDbPolyline
 90
5
 70
1
 10
168.5068188892219
 20
141.42135623730957
 10
172.07092050435966
 20
141.42135623730957
 10
172.07092050435966
 20
282.84271247461913
 10
168.5068188892219
 20
282.84271247461913
 10
168.5068188892219
 20
141.42135623730957
  0
LWPOLYLINE
  5
3D
330
17
100
AcDbEntity
  8
CUT_SLOT
100
AcDbPolyline
 90
5
 70
1
 10
145.41280812163689
 20
141.42135623730957
 10
148.97690973677467
 20
141.42135623730957
 10
148.97690973677467
 20
282.84271247461913
 10
145.41280812163689
 20
282.84271247461913
 10
145.41280812163689
 20
141.42135623730957
  0
LWPOLYLINE
  5
3E
330
17
100
AcDbEntity
  8
CUT_SLOT
100
AcDbPolyline
 90
5
 70
1
 10
122.31879735405185
 20
141.42135623730957
 10
125.88289896918961
 20
141.42135623730957
 10
125.88289896918961
 20
282.84271247461913
 10
122.31879735405185
 20
282.84271247461913
 10
122.31879735405185
 20
141.42135623730957
  0
LWPOLYLINE
  5
3F
330
17
100
AcDbEntity
  8
CUT_SLOT
100
AcDbPolyline
 90
5
 70
1
 10
99.22478658646679
 20
141.42135623730957
 10
102.78888820160455
 20
141.42135623730957
 10
102.78888820160455
 20
282.84271247461913
 10
99.22478658646679
 20
282.84271247461913
 10
99.22478658646679
 20
141.42135623730957
  0
LWPOLYLINE
  5
40
330
17
100
AcDbEntity
  8
CUT_SLOT
100
AcDbPolyline
 90
5
 70
1
 10
76.1307758188818
 20
141.42135623730957
 10
79.69487743401957
 20
141.42135623730957
 10
79.69487743401957
 20
282.84271247461913
 10
76.1307758188818
 20
282.84271247461913
 10
76.1307758188818
 20
141.42135623730957
  0
LWPOLYLINE
  5
41
330
17
100
AcDbEntity
  8
CUT_SLOT
100
AcDbPolyline
 90
5
 70
1
 10
53.036765051296726
 20
141.42135623730957
 10
56.600866666434484
 20
141.42135623730957
 10
56.600866666434484
 20
282.84271247461913
 10
53.036765051296726
 20
282.84271247461913
 10
53.036765051296726
 20
141.42135623730957
  0
LWPOLYLINE
  5
42
330
17
100
AcDbEntity
  8
CUT_SLOT
100
AcDbPolyline
 90
5
 70
1
 10
110.77179197025932
 20
141.42135623730957
 10
114.33589358539707
 20
141.42135623730957
 10
114.33589358539707
 20
282.84271247461913
 10
110.77179197025932
 20
282.84271247461913
 10
110.77179197025932
 20
141.42135623730957
  0
LWPOLYLINE
  5
43
330
17
100
AcDbEntity
  8
CUT_SLOT
100
AcDbPolyline
 90
5
 70
1
 10
133.86580273784435
 20
141.42135623730957
 10
137.4299043529821
 20
141.42135623730957
 10
137.4299043529821
 20
282.84271247461913
 10
133.86580273784435
 20
282.84271247461913
 10
133.86580273784435
 20
141.42135623730957
  0
LWPOLYLINE
  5
44
330
17
100
AcDbEntity
  8
CUT_SLOT
100
AcDbPolyline
 90
5
 70
1
 10
156.95981350542937
 20
141.42135623730957
 10
160.52391512056712
 20
141.42135623730957
 10
160.52391512056712
 20
282.84271247461913
 10
156.95981350542937
 20
282.84271247461913
 10
156.95981350542937
 20
141.42135623730957
  0
LWPOLYLINE
  5
45
330
17
100
AcDbEntity
  8
CUT_SLOT
100
AcDbPolyline
 90
5
 70
1
 10
180.05382427301438
 20
141.42135623730957
 10
183.61792588815214
 20
141.42135623730957
 10
183.61792588815214
 20
282.84271247461913
 10
180.05382427301438
 20
282.84271247461913
 10
180.05382427301438
 20
141.42135623730957
  0
LWPOLYLINE
  5
46
330
17
100
AcDbEntity
  8
CUT_SLOT
100
AcDbPolyline
 90
5
 70
1
 10
203.1478350405994
 20
141.42135623730957
 10
206.71193665573716
 20
141.42135623730957
 10
206.71193665573716
 20
282.84271247461913
 10
203.1478350405994
 20
282.84271247461913
 10
203.1478350405994
 20
141.42135623730957
  0
LWPOLYLINE
  5
47
330
17
100
AcDbEntity
  8
CUT_SLOT
100
AcDbPolyline
 90
5
 70
1
 10
226.24184580818442
 20
141.42135623730957
 10
229.80594742332218
 20
141.42135623730957
 10
229.80594742332218
 20
282.84271247461913
 10
226.24184580818442
 20
282.84271247461913
 10
226.24184580818442
 20
141.42135623730957
  0
LWPOLYLINE
  5
48
330
17
100
AcDbEntity
  8
CUT_OUTLINE
100
AcDbPolyline
 90
5
 70
1
 10
0.0
 20
0.0
 10
282.842712474619
 20
0.0
 10
282.842712474619
 20
282.84271247461913
 10
0.0
 20
282.84271247461913
 10
0.0
 20
0.0
  0
ENDSEC
  0
SECTION
  2
OBJECTS
  0
DICTIONARY
  5
A
330
0
100
AcDbDictionary
281
1
  3
ACAD_COLOR
350
B
  3
ACAD_GROUP
350
C
  3
ACAD_LAYOUT
350
D
  3
ACAD_MATERIAL
350
E
  3
ACAD_MLEADERSTYLE
350
F
  3
ACAD_MLINESTYLE
350
10
  3
ACAD_PLOTSETTINGS
350
11
  3
ACAD_PLOTSTYLENAME
350
12
  3
ACAD_SCALELIST
350
14
  3
ACAD_TABLESTYLE
350
15
  3
ACAD_VISUALSTYLE
350
16
  3
EZDXF_META
350
2D
  0
DICTIONARY
  5
B
330
A
100
AcDbDictionary
281
1
  0
DICTIONARY
  5
C
330
A
100
AcDbDictionary
281
1
  0
DICTIONARY
  5
D
330
A
100
AcDbDictionary
281
1
  3
Model
350
1A
  3
Layout1
350
1E
  0
DICTIONARY
  5
E
330
A
100
AcDbDictionary
281
1
  3
ByBlock
350
1F
  3
ByLayer
350
20
  3
Global
350
21
  0
DICTIONARY
  5
F
330
A
100
AcDbDictionary
281
1
  3
Standard
350
2C
  0
DICTIONARY
  5
10
330
A
100
AcDbDictionary
281
1
  3
Standard
350
22
  0
DICTIONARY
  5
11
330
A
100
AcDbDictionary
281
1
  0
ACDBDICTIONARYWDFLT
  5
12
330
A
100
AcDbDictionary
281
1
  3
Normal
350
13
100
AcDbDictionaryWithDefault
340
13
  0
ACDBPLACEHOLDER
  5
13
330
12
  0
DICTIONARY
  5
14
330
A
100
AcDbDictionary
281
1
  0
DICTIONARY
  5
15
330
A
100
AcDbDictionary
281
1
  0
DICTIONARY
  5
16
330
A
100
AcDbDictionary
281
1
  0
LAYOUT
  5
1A
330
D
100
AcDbPlotSettings
  1

  4
A3
  6

 40
7.5
 41
20.0
 42
7.5
 43
20.0
 44
420.0
 45
297.0
 46
0.0
 47
0.0
 48
0.0
 49
0.0
140
0.0
141
0.0
142
1.0
143
1.0
 70
1024
 72
1
 73
0
 74
5
  7

 75
16
 76
0
 77
2
 78
300
147
1.0
148
0.0
149
0.0
100
AcDbLayout
  1
Model
 70
1
 71
0
 10
0.0
 20
0.0
 11
420.0
 21
297.0
 12
0.0
 22
0.0
 32
0.0
 14
1e+20
 24
1e+20
 34
1e+20
 15
-1e+20
 25
-1e+20
 35
-1e+20
146
0.0
 13
0.0
 23
0.0
 33
0.0
 16
1.0
 26
0.0
 36
0.0
 17
0.0
 27
1.0
 37
0.0
 76
1
330
17
  0
LAYOUT
  5
1E
330
D
100
AcDbPlotSettings
  1

  4
A3
  6

 40
7.5
 41
20.0
 42
7.5
 43
20.0
 44
420.0
 45
297.0
 46
0.0
 47
0.0
 48
0.0
 49
0.0
140
0.0
141
0.0
142
1.0
143
1.0
 70
0
 72
1
 73
0
 74
5
  7

 75
16
 76
0
 77
2
 78
300
147
1.0
148
0.0
149
0.0
100
AcDbLayout
  1
Layout1
 70
1
 71
1
 10
0.0
 20
0.0
 11
420.0
 21
297.0
 12
0.0
 22
0.0
 32
0.0
 14
1e+20
 24
1e+20
 34
1e+20
 15
-1e+20
 25
-1e+20
 35
-1e+20
146
0.0
 13
0.0
 23
0.0
 33
0.0
 16
1.0
 26
0.0
 36
0.0
 17
0.0
 27
1.0
 37
0.0
 76
1
330
1B
  0
MATERIAL
  5
1F
102
{ACAD_REACTORS
330
E
102
}
330
E
100
AcDbMaterial
  1
ByBlock
  2

 70
0
 40
1.0
 71
1
 41
1.0
 91
-1023410177
 42
1.0
 72
1
  3

 73
1
 74
1
 75
1
 44
0.5
 73
0
 45
1.0
 46
1.0
 77
1
  4

 78
1
 79
1
170
1
 48
1.0
171
1
  6

172
1
173
1
174
1
140
1.0
141
1.0
175
1
  7

176
1
177
1
178
1
143
1.0
179
1
  8

270
1
271
1
272
1
145
1.0
146
1.0
273
1
  9

274
1
275
1
276
1
 42
1.0
 72
1
  3

 73
1
 74
1
 75
1
 94
63
  0
MATERIAL
  5
20
102
{ACAD_REACTORS
330
E
102
}
330
E
100
AcDbMaterial
  1
ByLayer
  2

 70
0
 40
1.0
 71
1
 41
1.0
 91
-1023410177
 42
1.0
 72
1
  3

 73
1
 74
1
 75
1
 44
0.5
 73
0
 45
1.0
 46
1.0
 77
1
  4

 78
1
 79
1
170
1
 48
1.0
171
1
  6

172
1
173
1
174
1
140
1.0
141
1.0
175
1
  7

176
1
177
1
178
1
143
1.0
179
1
  8

270
1
271
1
272
1
145
1.0
146
1.0
273
1
  9

274
1
275
1
276
1
 42
1.0
 72
1
  3

 73
1
 74
1
 75
1
 94
63
  0
MATERIAL
  5
21
102
{ACAD_REACTORS
330
E
102
}
330
E
100
AcDbMaterial
  1
Global
  2

 70
0
 40
1.0
 71
1
 41
1.0
 91
-1023410177
 42
1.0
 72
1
  3

 73
1
 74
1
 75
1
 44
0.5
 73
0
 45
1.0
 46
1.0
 77
1
  4

 78
1
 79
1
170
1
 48
1.0
171
1
  6

172
1
173
1
174
1
140
1.0
141
1.0
175
1
  7

176
1
177
1
178
1
143
1.0
179
1
  8

270
1
271
1
272
1
145
1.0
146
1.0
273
1
  9

274
1
275
1
276
1
 42
1.0
 72
1
  3

 73
1
 74
1
 75
1
 94
63
  0
MLINESTYLE
  5
22
102
{ACAD_REACTORS
330
10
102
}
330
10
100
AcDbMlineStyle
  2
Standard
 70
0
  3

 62
256
 51
90.0
 52
90.0
 71
2
 49
0.5
 62
256
  6
BYLAYER
 49
-0.5
 62
256
  6
BYLAYER
  0
MLEADERSTYLE
  5
2C
102
{ACAD_REACTORS
330
F
102
}
330
F
100
AcDbMLeaderStyle
179
2
170
2
171
1
172
0
 90
2
 40
0.0
 41
0.0
173
1
 91
-1056964608
 92
-2
290
1
 42
2.0
291
1
 43
8.0
  3
Standard
 44
4.0
300

342
29
174
1
175
1
176
0
178
1
 93
-1056964608
 45
4.0
292
0
297
0
 46
4.0
 94
-1056964608
 47
1.0
 49
1.0
140
1.0
294
1
141
0.0
177
0
142
1.0
295
0
296
0
143
3.75
271
0
272
9
273
9
  0
DICTIONARY
  5
2D
330
A
100
AcDbDictionary
280
1
281
1
  3
CREATED_BY_EZDXF
350
2E
  3
WRITTEN_BY_EZDXF
350
4B
  0
DICTIONARYVAR
  5
2E
330
2D
100
DictionaryVariables
280
0
  1
1.4.4 @ 2026-08-03T11:44:35.845489+00:00
  0
DICTIONARYVAR
  5
4B
330
2D
100
DictionaryVariables
280
0
  1
1.4.4 @ 2026-08-03T11:44:35.851842+00:00
  0
ENDSEC
  0
EOF
