  0
SECTION
  2
HEADER
  9
$ACADVER
  1
AC1027
  9
$ACADMAINTVER
 70
105
  9
$DWGCODEPAGE
  3
ANSI_1252
  9
$LASTSAVEDBY
  1
ezdxf
  9
$REQUIREDVERSIONS
160
0
  9
$INSBASE
 10
0.0
 20
0.0
 30
0.0
  9
$EXTMIN
 10
1e+20
 20
1e+20
 30
1e+20
  9
$EXTMAX
 10
-1e+20
 20
-1e+20
 30
-1e+20
  9
$LIMMIN
 10
0.0
 20
0.0
  9
$LIMMAX
 10
420.0
 20
297.0
  9
$ORTHOMODE
 70
0
  9
$REGENMODE
 70
1
  9
$FILLMODE
 70
1
  9
$QTEXTMODE
 70
0
  9
$MIRRTEXT
 70
1
  9
$LTSCALE
 40
1.0
  9
$ATTMODE
 70
1
  9
$TEXTSIZE
 40
2.5
  9
$TRACEWID
 40
1.0
  9
$TEXTSTYLE
  7
Standard
  9
$CLAYER
  8
0
  9
$CELTYPE
  6
ByLayer
  9
$CECOLOR
 62
256
  9
$CELTSCALE
 40
1.0
  9
$DISPSILH
 70
0
  9
$DIMSCALE
 40
1.0
  9
$DIMASZ
 40
2.5
  9
$DIMEXO
 40
0.625
  9
$DIMDLI
 40
3.75
  9
$DIMRND
 40
0.0
  9
$DIMDLE
 40
0.0
  9
$DIMEXE
 40
1.25
  9
$DIMTP
 40
0.0
  9
$DIMTM
 40
0.0
  9
$DIMTXT
 40
2.5
  9
$DIMCEN
 40
2.5
  9
$DIMTSZ
 40
0.0
  9
$DIMTOL
 70
0
  9
$DIMLIM
 70
0
  9
$DIMTIH
 70
0
  9
$DIMTOH
 70
0
  9
$DIMSE1
 70
0
  9
$DIMSE2
 70
0
  9
$DIMTAD
 70
1
  9
$DIMZIN
 70
8
  9
$DIMBLK
  1

  9
$DIMASO
 70
1
  9
$DIMSHO
 70
1
  9
$DIMPOST
  1

  9
$DIMAPOST
  1

  9
$DIMALT
 70
0
  9
$DIMALTD
 70
3
  9
$DIMALTF
 40
0.03937007874
  9
$DIMLFAC
 40
1.0
  9
$DIMTOFL
 70
1
  9
$DIMTVP
 40
0.0
  9
$DIMTIX
 70
0
  9
$DIMSOXD
 70
0
  9
$DIMSAH
 70
0
  9
$DIMBLK1
  1

  9
$DIMBLK2
  1

  9
$DIMSTYLE
  2
ISO-25
  9
$DIMCLRD
 70
0
  9
$DIMCLRE
 70
0
  9
$DIMCLRT
 70
0
  9
$DIMTFAC
 40
1.0
  9
$DIMGAP
 40
0.625
  9
$DIMJUST
 70
0
  9
$DIMSD1
 70
0
  9
$DIMSD2
 70
0
  9
$DIMTOLJ
 70
0
  9
$DIMTZIN
 70
8
  9
$DIMALTZ
 70
0
  9
$DIMALTTZ
 70
0
  9
$DIMUPT
 70
0
  9
$DIMDEC
 70
2
  9
$DIMTDEC
 70
2
  9
$DIMALTU
 70
2
  9
$DIMALTTD
 70
3
  9
$DIMTXSTY
  7
Standard
  9
$DIMAUNIT
 70
0
  9
$DIMADEC
 70
0
  9
$DIMALTRND
 40
0.0
  9
$DIMAZIN
 70
0
  9
$DIMDSEP
 70
44
  9
$DIMATFIT
 70
3
  9
$DIMFRAC
 70
0
  9
$DIMLDRBLK
  1

  9
$DIMLUNIT
 70
2
  9
$DIMLWD
 70
-2
  9
$DIMLWE
 70
-2
  9
$DIMTMOVE
 70
0
  9
$DIMFXL
 40
1.0
  9
$DIMFXLON
 70
0
  9
$DIMJOGANG
 40
0.785398163397
  9
$DIMTFILL
 70
0
  9
$DIMTFILLCLR
 70
0
  9
$DIMARCSYM
 70
0
  9
$DIMLTYPE
  6

  9
$DIMLTEX1
  6

  9
$DIMLTEX2
  6

  9
$DIMTXTDIRECTION
 70
0
  9
$LUNITS
 70
2
  9
$LUPREC
 70
4
  9
$SKETCHINC
 40
1.0
  9
$FILLETRAD
 40
10.0
  9
$AUNITS
 70
0
  9
$AUPREC
 70
2
  9
$MENU
  1
.
  9
$ELEVATION
 40
0.0
  9
$PELEVATION
 40
0.0
  9
$THICKNESS
 40
0.0
  9
$LIMCHECK
 70
0
  9
$CHAMFERA
 40
0.0
  9
$CHAMFERB
 40
0.0
  9
$CHAMFERC
 40
0.0
  9
$CHAMFERD
 40
0.0
  9
$SKPOLY
 70
0
  9
$TDCREATE
 40
2461256.6143055554
  9
$TDUCREATE
 40
2458532.153996898
  9
$TDUPDATE
 40
2461256.6143055554
  9
$TDUUPDATE
 40
2458532.1544311
  9
$TDINDWG
 40
0.0
  9
$TDUSRTIMER
 40
0.0
  9
$USRTIMER
 70
1
  9
$ANGBASE
 50
0.0
  9
$ANGDIR
 70
0
  9
$PDMODE
 70
0
  9
$PDSIZE
 40
0.0
  9
$PLINEWID
 40
0.0
  9
$SPLFRAME
 70
0
  9
$SPLINETYPE
 70
6
  9
$SPLINESEGS
 70
8
  9
$HANDSEED
  5
57
  9
$SURFTAB1
 70
6
  9
$SURFTAB2
 70
6
  9
$SURFTYPE
 70
6
  9
$SURFU
 70
6
  9
$SURFV
 70
6
  9
$UCSBASE
  2

  9
$UCSNAME
  2

  9
$UCSORG
 10
0.0
 20
0.0
 30
0.0
  9
$UCSXDIR
 10
1.0
 20
0.0
 30
0.0
  9
$UCSYDIR
 10
0.0
 20
1.0
 30
0.0
  9
$UCSORTHOREF
  2

  9
$UCSORTHOVIEW
 70
0
  9
$UCSORGTOP
 10
0.0
 20
0.0
 30
0.0
  9
$UCSORGBOTTOM
 10
0.0
 20
0.0
 30
0.0
  9
$UCSORGLEFT
 10
0.0
 20
0.0
 30
0.0
  9
$UCSORGRIGHT
 10
0.0
 20
0.0
 30
0.0
  9
$UCSORGFRONT
 10
0.0
 20
0.0
 30
0.0
  9
$UCSORGBACK
 10
0.0
 20
0.0
 30
0.0
  9
$PUCSBASE
  2

  9
$PUCSNAME
  2

  9
$PUCSORG
 10
0.0
 20
0.0
 30
0.0
  9
$PUCSXDIR
 10
1.0
 20
0.0
 30
0.0
  9
$PUCSYDIR
 10
0.0
 20
1.0
 30
0.0
  9
$PUCSORTHOREF
  2

  9
$PUCSORTHOVIEW
 70
0
  9
$PUCSORGTOP
 10
0.0
 20
0.0
 30
0.0
  9
$PUCSORGBOTTOM
 10
0.0
 20
0.0
 30
0.0
  9
$PUCSORGLEFT
 10
0.0
 20
0.0
 30
0.0
  9
$PUCSORGRIGHT
 10
0.0
 20
0.0
 30
0.0
  9
$PUCSORGFRONT
 10
0.0
 20
0.0
 30
0.0
  9
$PUCSORGBACK
 10
0.0
 20
0.0
 30
0.0
  9
$USERI1
 70
0
  9
$USERI2
 70
0
  9
$USERI3
 70
0
  9
$USERI4
 70
0
  9
$USERI5
 70
0
  9
$USERR1
 40
0.0
  9
$USERR2
 40
0.0
  9
$USERR3
 40
0.0
  9
$USERR4
 40
0.0
  9
$USERR5
 40
0.0
  9
$WORLDVIEW
 70
1
  9
$SHADEDGE
 70
3
  9
$SHADEDIF
 70
70
  9
$TILEMODE
 70
1
  9
$MAXACTVP
 70
64
  9
$PINSBASE
 10
0.0
 20
0.0
 30
0.0
  9
$PLIMCHECK
 70
0
  9
$PEXTMIN
 10
1e+20
 20
1e+20
 30
1e+20
  9
$PEXTMAX
 10
-1e+20
 20
-1e+20
 30
-1e+20
  9
$PLIMMIN
 10
0.0
 20
0.0
  9
$PLIMMAX
 10
420.0
 20
297.0
  9
$UNITMODE
 70
0
  9
$VISRETAIN
 70
1
  9
$PLINEGEN
 70
0
  9
$PSLTSCALE
 70
1
  9
$TREEDEPTH
 70
3020
  9
$CMLSTYLE
  2
Standard
  9
$CMLJUST
 70
0
  9
$CMLSCALE
 40
20.0
  9
$PROXYGRAPHICS
 70
1
  9
$MEASUREMENT
 70
1
  9
$CELWEIGHT
370
-1
  9
$ENDCAPS
280
0
  9
$JOINSTYLE
280
0
  9
$LWDISPLAY
290
0
  9
$INSUNITS
 70
4
  9
$HYPERLINKBASE
  1

  9
$STYLESHEET
  1

  9
$XEDIT
290
1
  9
$CEPSNTYPE
380
0
  9
$PSTYLEMODE
290
1
  9
$FINGERPRINTGUID
  2
{525ECA85-5937-4BAA-A8BB-CE2C8CF7A368}
  9
$VERSIONGUID
  2
{9E617E1F-0C30-4514-A67B-A6BAB6A410DE}
  9
$EXTNAMES
290
1
  9
$PSVPSCALE
 40
0.0
  9
$OLESTARTUP
290
0
  9
$SORTENTS
280
127
  9
$INDEXCTL
280
0
  9
$HIDETEXT
280
1
  9
$XCLIPFRAME
280
1
  9
$HALOGAP
280
0
  9
$OBSCOLOR
 70
257
  9
$OBSLTYPE
280
0
  9
$INTERSECTIONDISPLAY
280
0
  9
$INTERSECTIONCOLOR
 70
257
  9
$DIMASSOC
280
2
  9
$PROJECTNAME
  1

  9
$CAMERADISPLAY
290
0
  9
$LENSLENGTH
 40
50.0
  9
$CAMERAHEIGHT
 40
0.0
  9
$STEPSPERSEC
 40
24.0
  9
$STEPSIZE
 40
100.0
  9
$3DDWFPREC
 40
2.0
  9
$PSOLWIDTH
 40
0.005
  9
$PSOLHEIGHT
 40
0.08
  9
$LOFTANG1
 40
1.570796326795
  9
$LOFTANG2
 40
1.570796326795
  9
$LOFTMAG1
 40
0.0
  9
$LOFTMAG2
 40
0.0
  9
$LOFTPARAM
 70
7
  9
$LOFTNORMALS
280
1
  9
$LATITUDE
 40
37.795
  9
$LONGITUDE
 40
-122.394
  9
$NORTHDIRECTION
 40
0.0
  9
$TIMEZONE
 70
-8000
  9
$LIGHTGLYPHDISPLAY
280
1
  9
$TILEMODELIGHTSYNCH
280
1
  9
$CMATERIAL
347
20
  9
$SOLIDHIST
280
0
  9
$SHOWHIST
280
1
  9
$DWFFRAME
280
2
  9
$DGNFRAME
280
2
  9
$REALWORLDSCALE
290
1
  9
$INTERFERECOLOR
 62
256
  9
$CSHADOW
280
0
  9
$SHADOWPLANELOCATION
 40
0.0
  0
ENDSEC
  0
SECTION
  2
CLASSES
  0
CLASS
  1
ACDBDICTIONARYWDFLT
  2
AcDbDictionaryWithDefault
  3
ObjectDBX Classes
 90
0
 91
0
280
0
281
0
  0
CLASS
  1
SUN
  2
AcDbSun
  3
SCENEOE
 90
1153
 91
0
280
0
281
0
  0
CLASS
  1
VISUALSTYLE
  2
AcDbVisualStyle
  3
ObjectDBX Classes
 90
4095
 91
0
280
0
281
0
  0
CLASS
  1
MATERIAL
  2
AcDbMaterial
  3
ObjectDBX Classes
 90
1153
 91
0
280
0
281
0
  0
CLASS
  1
SCALE
  2
AcDbScale
  3
ObjectDBX Classes
 90
1153
 91
0
280
0
281
0
  0
CLASS
  1
TABLESTYLE
  2
AcDbTableStyle
  3
ObjectDBX Classes
 90
4095
 91
0
280
0
281
0
  0
CLASS
  1
MLEADERSTYLE
  2
AcDbMLeaderStyle
  3
ACDB_MLEADERSTYLE_CLASS
 90
4095
 91
0
280
0
281
0
  0
CLASS
  1
DICTIONARYVAR
  2
AcDbDictionaryVar
  3
ObjectDBX Classes
 90
0
 91
0
280
0
281
0
  0
CLASS
  1
CELLSTYLEMAP
  2
AcDbCellStyleMap
  3
ObjectDBX Classes
 90
1152
 91
0
280
0
281
0
  0
CLASS
  1
MENTALRAYRENDERSETTINGS
  2
AcDbMentalRayRenderSettings
  3
SCENEOE
 90
1024
 91
0
280
0
281
0
  0
CLASS
  1
ACDBDETAILVIEWSTYLE
  2
AcDbDetailViewStyle
  3
ObjectDBX Classes
 90
1025
 91
0
280
0
281
0
  0
CLASS
  1
ACDBSECTIONVIEWSTYLE
  2
AcDbSectionViewStyle
  3
ObjectDBX Classes
 90
1025
 91
0
280
0
281
0
  0
CLASS
  1
RASTERVARIABLES
  2
AcDbRasterVariables
  3
ISM
 90
0
 91
0
280
0
281
0
  0
CLASS
  1
LAYOUT
  2
AcDbLayout
  3
ObjectDBX Classes
 90
0
 91
0
280
0
281
0
  0
CLASS
  1
ACDBPLACEHOLDER
  2
AcDbPlaceHolder
  3
ObjectDBX Classes
 90
0
 91
0
280
0
281
0
  0
ENDSEC
  0
SECTION
  2
TABLES
  0
TABLE
  2
VPORT
  5
8
330
0
100
AcDbSymbolTable
 70
1
  0
VPORT
  5
23
330
8
100
AcDbSymbolTableRecord
100
AcDbViewportTableRecord
  2
*Active
 70
0
 10
0.0
 20
0.0
 11
1.0
 21
1.0
 12
0.0
 22
0.0
 13
0.0
 23
0.0
 14
0.5
 24
0.5
 15
0.5
 25
0.5
 16
0.0
 26
0.0
 36
1.0
 17
0.0
 27
0.0
 37
0.0
 40
1000.0
 41
1.34
 42
50.0
 43
0.0
 44
0.0
 50
0.0
 51
0.0
 71
0
 72
1000
 73
1
 74
3
 75
0
 76
0
 77
0
 78
0
281
0
 65
0
146
0.0
  0
ENDTAB
  0
TABLE
  2
LTYPE
  5
2
330
0
100
AcDbSymbolTable
 70
3
  0
LTYPE
  5
24
330
2
100
AcDbSymbolTableRecord
100
AcDbLinetypeTableRecord
  2
ByBlock
 70
0
  3

 72
65
 73
0
 40
0.0
  0
LTYPE
  5
25
330
2
100
AcDbSymbolTableRecord
100
AcDbLinetypeTableRecord
  2
ByLayer
 70
0
  3

 72
65
 73
0
 40
0.0
  0
LTYPE
  5
26
330
2
100
AcDbSymbolTableRecord
100
AcDbLinetypeTableRecord
  2
Continuous
 70
0
  3

 72
65
 73
0
 40
0.0
  0
ENDTAB
  0
TABLE
  2
LAYER
  5
1
330
0
100
AcDbSymbolTable
 70
7
  0
LAYER
  5
27
330
1
100
AcDbSymbolTableRecord
100
AcDbLayerTableRecord
  2
0
 70
0
 62
7
  6
Continuous
370
-3
390
13
347
21
  0
LAYER
  5
28
330
1
100
AcDbSymbolTableRecord
100
AcDbLayerTableRecord
  2
Defpoints
 70
0
 62
7
  6
Continuous
290
0
370
-3
390
13
347
21
  0
LAYER
  5
2F
330
1
100
AcDbSymbolTableRecord
100
AcDbLayerTableRecord
  2
ENG_L
 70
0
 62
4
  6
Continuous
370
-3
390
13
347
21
  0
LAYER
  5
30
330
1
100
AcDbSymbolTableRecord
100
AcDbLayerTableRecord
  2
ENG_D
 70
0
 62
3
  6
Continuous
370
-3
390
13
347
21
  0
LAYER
  5
31
330
1
100
AcDbSymbolTableRecord
100
AcDbLayerTableRecord
  2
ENG_K
 70
0
 62
2
  6
Continuous
370
-3
390
13
347
21
  0
LAYER
  5
32
330
1
100
AcDbSymbolTableRecord
100
AcDbLayerTableRecord
  2
CUT_OUTLINE
 70
0
 62
5
  6
Continuous
370
-3
390
13
347
21
  0
LAYER
  5
33
330
1
100
AcDbSymbolTableRecord
100
AcDbLayerTableRecord
  2
CUT_SLOT
 70
0
 62
1
  6
Continuous
370
-3
390
13
347
21
  0
ENDTAB
  0
TABLE
  2
STYLE
  5
5
330
0
100
AcDbSymbolTable
 70
1
  0
STYLE
  5
29
330
5
100
AcDbSymbolTableRecord
100
AcDbTextStyleTableRecord
  2
Standard
 70
0
 40
0.0
 41
1.0
 50
0.0
 71
0
 42
2.5
  3
txt
  4

  0
ENDTAB
  0
TABLE
  2
VIEW
  5
7
330
0
100
AcDbSymbolTable
 70
0
  0
ENDTAB
  0
TABLE
  2
UCS
  5
6
330
0
100
AcDbSymbolTable
 70
0
  0
ENDTAB
  0
TABLE
  2
APPID
  5
3
330
0
100
AcDbSymbolTable
 70
3
  0
APPID
  5
2A
330
3
100
AcDbSymbolTableRecord
100
AcDbRegAppTableRecord
  2
ACAD
 70
0
  0
APPID
  5
54
330
3
100
AcDbSymbolTableRecord
100
AcDbRegAppTableRecord
  2
HATCHBACKGROUNDCOLOR
 70
0
  0
APPID
  5
55
330
3
100
AcDbSymbolTableRecord
100
AcDbRegAppTableRecord
  2
EZDXF
 70
0
  0
ENDTAB
  0
TABLE
  2
DIMSTYLE
  5
4
330
0
100
AcDbSymbolTable
 70
1
100
AcDbDimStyleTable
  0
DIMSTYLE
105
2B
330
4
100
AcDbSymbolTableRecord
100
AcDbDimStyleTableRecord
  2
Standard
 70
0
 40
1.0
 41
2.5
 42
0.625
 43
3.75
 44
1.25
 45
0.0
 46
0.0
 47
0.0
 48
0.0
 49
2.5
140
2.5
141
2.5
142
0.0
143
0.03937007874
144
1.0
145
0.0
146
1.0
147
0.625
148
0.0
 69
0
 70
0
 71
0
 72
0
 73
0
 74
0
 75
0
 76
0
 77
1
 78
8
 79
3
170
0
171
3
172
1
173
0
174
0
175
0
176
0
177
0
178
0
179
2
271
2
272
2
273
2
274
3
275
0
276
0
277
2
278
44
279
0
280
0
281
0
282
0
283
0
284
8
285
0
286
0
288
0
289
3
290
0
371
-2
372
-2
  0
ENDTAB
  0
TABLE
  2
BLOCK_RECORD
  5
9
330
0
100
AcDbSymbolTable
 70
2
  0
BLOCK_RECORD
  5
17
330
9
100
AcDbSymbolTableRecord
100
AcDbBlockTableRecord
  2
*Model_Space
340
1A
 70
0
280
1
281
0
  0
BLOCK_RECORD
  5
1B
330
9
100
AcDbSymbolTableRecord
100
AcDbBlockTableRecord
  2
*Paper_Space
340
1E
 70
0
280
1
281
0
  0
ENDTAB
  0
ENDSEC
  0
SECTION
  2
BLOCKS
  0
BLOCK
  5
18
330
17
100
AcDbEntity
  8
0
100
AcDbBlockBegin
  2
*Model_Space
 70
0
 10
0.0
 20
0.0
 30
0.0
  3
*Model_Space
  1

  0
ENDBLK
  5
19
330
17
100
AcDbEntity
  8
0
100
AcDbBlockEnd
  0
BLOCK
  5
1C
330
1B
100
AcDbEntity
  8
0
100
AcDbBlockBegin
  2
*Paper_Space
 70
0
 10
0.0
 20
0.0
 30
0.0
  3
*Paper_Space
  1

  0
ENDBLK
  5
1D
330
1B
100
AcDbEntity
  8
0
100
AcDbBlockEnd
  0
ENDSEC
  0
SECTION
  2
ENTITIES
  0
LWPOLYLINE
  5
34
330
17
100
AcDbEntity
  8
ENG_L
100
AcDbPolyline
 90
32
 70
1
 10
212.36773661635976
 20
103.23759005323596
 10
212.8391411371508
 20
106.06601717798215
 10
213.78195017873287
 20
107.95163526114627
 10
213.78195017873287
 20
109.83725334431038
 10
214.72475922031495
 20
111.7228714274745
 10
214.72475922031495
 20
113.13708498984765
 10
218.4959953866432
 20
116.43691663538492
 10
218.4959953866432
 20
116.90832115617589
 10
223.2100405945535
 20
121.62236636408619
 10
223.44574285494903
 20
122.32947314527276
 10
224.38855189653108
 20
122.80087766606384
 10
224.6242541569266
 20
121.62236636408619
 10
224.15284963613558
 20
121.1509618432952
 10
225.09565867771764
 20
120.20815280171315
 10
224.6242541569266
 20
119.73674828092207
 10
224.6242541569266
 20
118.79393923934
 10
225.09565867771764
 20
118.32253471854904
 10
225.09565867771764
 20
117.37972567696697
 10
226.50987224009071
 20
116.90832115617589
 10
226.50987224009071
 20
111.25146690668353
 10
225.8027654589042
 20
110.54436012549695
 10
222.50293381336698
 20
109.6015510839149
 10
222.03152929257595
 20
108.65874204233283
 10
220.85301799059835
 20
107.95163526114627
 10
219.91020894901627
 20
106.06601717798215
 10
219.91020894901627
 20
105.12320813640008
 10
218.4959953866432
 20
102.766185532445
 10
218.4959953866432
 20
101.82337649086293
 10
215.90327052229253
 20
102.05907875125841
 10
215.4318660015015
 20
102.5304832720494
 10
213.54624791833734
 20
102.5304832720494
 10
212.36773661635976
 20
103.23759005323596
  0
LWPOLYLINE
  5
35
330
17
100
AcDbEntity
  8
ENG_L
100
AcDbPolyline
 90
23
 70
1
 10
191.3902354411589
 20
98.28784258493017
 10
188.79751057680818
 20
98.99494936611663
 10
189.0332128372037
 20
110.54436012549695
 10
191.3902354411589
 20
111.48716916707902
 10
192.33304448274095
 20
112.42997820866107
 10
193.275853524323
 20
112.42997820866107
 10
195.16147160748713
 20
113.37278725024314
 10
196.10428064906918
 20
114.31559629182519
 10
197.28279195104676
 20
113.60848951063862
 10
198.69700551341987
 20
110.30865786510147
 10
199.63981455500192
 20
109.3658488235194
 10
199.63981455500192
 20
108.42303978193735
 10
200.582623596584
 20
107.95163526114627
 10
201.52543263816605
 20
105.59461265719116
 10
202.4682416797481
 20
104.65180361560911
 10
203.8824552421212
 20
101.82337649086293
 10
203.8824552421212
 20
100.88056744928076
 10
205.2966688044943
 20
98.99494936611663
 10
203.17534846093466
 20
96.87362902255703
 10
195.16147160748713
 20
97.81643806413909
 10
194.69006708669608
 20
102.05907875125841
 10
191.6259377015544
 20
101.82337649086293
 10
191.3902354411589
 20
98.28784258493017
  0
LWPOLYLINE
  5
36
330
17
100
AcDbEntity
  8
ENG_L
100
AcDbPolyline
 90
30
 70
1
 10
103.00188779284042
 20
237.11647395788904
 10
102.05907875125835
 20
239.47349656184414
 10
102.05907875125835
 20
240.88771012421728
 10
101.58767423046733
 20
241.35911464500825
 10
101.58767423046733
 20
243.24473272817238
 10
100.64486518888526
 20
245.60175533212768
 10
100.64486518888526
 20
247.4873734152918
 10
99.70205614730321
 20
249.84439601924691
 10
99.70205614730321
 20
251.25860958162005
 10
101.82337649086284
 20
251.49431184201543
 10
102.29478101165387
 20
251.9657163628064
 10
107.48023074035522
 20
251.9657163628064
 10
108.42303978193729
 20
252.4371208835976
 10
109.13014656312383
 20
251.73001410241102
 10
109.13014656312383
 20
249.84439601924691
 10
109.60155108391487
 20
249.37299149845592
 10
110.54436012549692
 20
244.65894629054552
 10
111.01576464628798
 20
244.18754176975455
 10
111.01576464628798
 20
242.3019236865904
 10
111.95857368787003
 20
239.94490108263534
 10
111.95857368787003
 20
238.53068752026218
 10
112.42997820866105
 20
238.05928299947098
 10
112.42997820866105
 20
236.64506943709807
 10
112.9013827294521
 20
236.17366491630688
 10
110.30865786510141
 20
235.9379626559115
 10
109.83725334431038
 20
235.4665581351203
 10
106.53742169877316
 20
235.4665581351203
 10
106.06601717798213
 20
234.52374909353836
 10
103.00188779284042
 20
234.75945135393394
 10
103.00188779284042
 20
237.11647395788904
  0
LWPOLYLINE
  5
37
330
17
100
AcDbEntity
  8
ENG_L
100
AcDbPolyline
 90
66
 70
1
 10
81.55298209684848
 20
204.35385976291232
 10
80.61017305526643
 20
205.29666880449437
 10
78.25315045131126
 20
206.23947784607643
 10
77.78174593052023
 20
207.1822868876585
 10
77.3103414097292
 20
206.7108823668675
 10
76.13183010775163
 20
207.41798914805398
 10
78.96025723249781
 20
211.18922531438233
 10
78.96025723249781
 20
212.1320343559643
 10
79.90306627407988
 20
213.54624791833743
 10
82.02438661763951
 20
216.1389727826881
 10
82.73149339882606
 20
216.3746750430836
 10
85.08851600278122
 20
220.61731573020293
 10
85.79562278396777
 20
221.3244225113895
 10
86.97413408594534
 20
221.56012477178487
 10
85.55992052357226
 20
225.33136093811314
 10
85.55992052357226
 20
227.21697902127747
 10
84.14570696119917
 20
230.9882151876057
 10
84.14570696119917
 20
232.40242874997864
 10
83.67430244040811
 20
232.87383327076984
 10
84.6171114819902
 20
234.75945135393394
 10
84.6171114819902
 20
235.7022603955159
 10
86.73843182554982
 20
238.2949852598666
 10
87.20983634634086
 20
238.2949852598666
 10
87.44553860673638
 20
232.87383327076984
 10
90.50966799187808
 20
232.63813101037422
 10
90.7453702522736
 20
239.47349656184414
 10
91.45247703346014
 20
240.1806033430307
 10
93.8094996374153
 20
241.1234123846129
 10
100.17346066809424
 20
235.2308558747249
 10
100.64486518888526
 20
234.28804683314274
 10
98.2878425849301
 20
228.63119258365037
 10
97.34503354334804
 20
228.1597880628594
 10
97.34503354334804
 20
226.74557450048627
 10
95.93081998097496
 20
224.38855189653117
 10
95.93081998097496
 20
223.445742854949
 10
94.98801093939288
 20
222.03152929257607
 10
94.98801093939288
 20
221.0887202509939
 10
94.04520189781083
 20
219.2031021678298
 10
95.69511772057945
 20
218.9673999074343
 10
96.16652224137047
 20
218.49599538664322
 10
98.99494936611664
 20
218.49599538664322
 10
99.4663538869077
 20
218.02459086585225
 10
101.82337649086284
 20
218.02459086585225
 10
102.29478101165387
 20
217.55318634506128
 10
104.18039909481801
 20
217.55318634506128
 10
104.65180361560904
 20
217.0817818242702
 10
107.48023074035522
 20
217.0817818242702
 10
107.95163526114627
 20
216.61037730347908
 10
108.89444430272832
 20
216.61037730347908
 10
110.54436012549692
 20
213.07484339754646
 10
110.54436012549692
 20
209.3036072312181
 10
107.95163526114627
 20
209.0679049708226
 10
107.48023074035522
 20
209.5393094916137
 10
102.76618553244491
 20
209.5393094916137
 10
102.29478101165387
 20
210.01071401240466
 10
100.88056744928079
 20
210.01071401240466
 10
96.6379267621615
 20
206.23947784607643
 10
93.33809511662427
 20
209.5393094916137
 10
90.03826347108705
 20
206.23947784607643
 10
88.62404990871396
 20
205.29666880449437
 10
87.6812408671319
 20
205.29666880449437
 10
86.97413408594534
 20
203.17534846093477
 10
85.79562278396777
 20
201.9968371589571
 10
83.91000470080365
 20
202.93964620053927
 10
83.4386001800126
 20
203.88245524212124
 10
81.55298209684848
 20
204.35385976291232
  0
LWPOLYLINE
  5
38
330
17
100
AcDbEntity
  8
ENG_L
100
AcDbPolyline
 90
28
 70
1
 10
96.40222450176599
 20
173.4768636510997
 10
96.40222450176599
 20
176.77669529663697
 10
94.04520189781083
 20
179.13371790059207
 10
93.10239285622876
 20
187.14759475403963
 10
90.7453702522736
 20
189.97602187878582
 10
90.7453702522736
 20
191.86163996194995
 10
93.57379737701979
 20
194.6900670866961
 10
93.57379737701979
 20
195.63287612827818
 10
99.70205614730321
 20
201.28973037777052
 10
99.93775840769872
 20
201.9968371589571
 10
108.89444430272832
 20
201.05402811737505
 10
109.13014656312383
 20
191.86163996194995
 10
110.54436012549692
 20
189.97602187878582
 10
110.54436012549692
 20
179.60512242138316
 10
109.36584882351936
 20
178.89801564019658
 10
105.12320813640007
 20
178.4266111194055
 10
104.41610135521353
 20
177.71950433821902
 10
104.41610135521353
 20
176.77669529663697
 10
102.05907875125835
 20
172.06265008872657
 10
102.05907875125835
 20
170.64843652635352
 10
101.1162697096763
 20
169.2342229639805
 10
101.1162697096763
 20
168.29141392239833
 10
99.70205614730321
 20
165.46298679765215
 10
98.52354484532562
 20
164.75588001646568
 10
98.05214032453459
 20
165.69868905804762
 10
97.34503354334804
 20
165.93439131844323
 10
96.87362902255701
 20
173.00545913030874
 10
96.40222450176599
 20
173.4768636510997
  0
LWPOLYLINE
  5
39
330
17
100
AcDbEntity
  8
ENG_L
100
AcDbPolyline
 90
4
 70
1
 10
102.05907875125835
 20
200.81832585697956
 10
101.82337649086284
 20
201.05402811737505
 10
101.58767423046733
 20
200.81832585697956
 10
102.05907875125835
 20
200.81832585697956
  0
LWPOLYLINE
  5
3A
330
17
100
AcDbEntity
  8
ENG_D
100
AcDbPolyline
 90
47
 70
1
 10
201.52543263816605
 20
105.59461265719116
 10
200.582623596584
 20
107.95163526114627
 10
199.63981455500192
 20
108.42303978193735
 10
199.63981455500192
 20
109.3658488235194
 10
198.69700551341987
 20
110.30865786510147
 10
196.81138743025573
 20
114.0798940314297
 10
196.81138743025573
 20
115.49410759380285
 10
198.2256009926288
 20
118.79393923934
 10
198.2256009926288
 20
120.20815280171315
 10
197.28279195104676
 20
122.56517540566824
 10
197.28279195104676
 20
123.97938896804139
 10
196.81138743025573
 20
124.45079348883237
 10
196.81138743025573
 20
125.86500705120551
 10
196.33998290946468
 20
126.33641157199649
 10
199.87551681539745
 20
130.34334999872033
 10
201.76113489856158
 20
131.75756356109346
 10
203.64675298172568
 20
130.8147545195113
 10
204.58956202330774
 20
130.8147545195113
 10
207.88939366884497
 20
128.9291364363472
 10
208.83220271042705
 20
128.9291364363472
 10
214.96046148071045
 20
125.62930479081002
 10
216.37467504308356
 20
125.62930479081002
 10
217.55318634506114
 20
124.92219800962346
 10
217.78888860545663
 20
124.21509122843688
 10
220.61731573020282
 20
122.80087766606384
 10
221.56012477178487
 20
122.80087766606384
 10
222.50293381336698
 20
121.85806862448167
 10
222.974338334158
 20
122.32947314527276
 10
223.2100405945535
 20
122.09377088487727
 10
223.2100405945535
 20
121.62236636408619
 10
218.4959953866432
 20
116.90832115617589
 10
218.4959953866432
 20
116.43691663538492
 10
214.72475922031495
 20
113.13708498984765
 10
214.72475922031495
 20
111.7228714274745
 10
213.78195017873287
 20
109.83725334431038
 10
213.78195017873287
 20
107.95163526114627
 10
212.8391411371508
 20
106.06601717798215
 10
212.36773661635976
 20
103.23759005323596
 10
209.30360723121808
 20
99.70205614730321
 10
208.36079818963603
 20
99.23065162651224
 10
206.4751801064719
 20
99.23065162651224
 10
206.00377558568084
 20
98.75924710572114
 10
205.2966688044943
 20
98.99494936611663
 10
203.8824552421212
 20
100.88056744928076
 10
203.8824552421212
 20
101.82337649086293
 10
202.4682416797481
 20
104.65180361560911
 10
201.52543263816605
 20
105.59461265719116
  0
LWPOLYLINE
  5
3B
330
17
100
AcDbEntity
  8
ENG_D
100
AcDbPolyline
 90
22
 70
1
 10
166.40579583923417
 20
270.82189719444784
 10
165.93439131844315
 20
271.2933017152388
 10
164.52017775607007
 20
271.2933017152388
 10
160.5132393293463
 20
272.94321753800756
 10
160.7489415897418
 20
273.6503243191939
 10
161.45604837092836
 20
273.8860265795895
 10
161.45604837092836
 20
275.30024014196266
 10
163.577368714488
 20
279.7785830894775
 10
164.52017775607007
 20
279.7785830894775
 10
165.93439131844315
 20
278.3643695271043
 10
166.8772003600252
 20
278.83577404789526
 10
167.8200094016073
 20
278.3643695271043
 10
168.76281844318936
 20
278.83577404789526
 10
169.2342229639804
 20
277.42156048552215
 10
170.64843652635346
 20
276.4787514439402
 10
171.59124556793554
 20
276.4787514439402
 10
173.71256591149518
 20
274.82883562117144
 10
173.71256591149518
 20
273.8860265795895
 10
172.29835234912207
 20
272.47181301721633
 10
171.35554330754002
 20
270.58619493405223
 10
170.64843652635346
 20
269.8790881528657
 10
166.40579583923417
 20
270.82189719444784
  0
LWPOLYLINE
  5
3C
330
17
100
AcDbEntity
  8
ENG_D
100
AcDbPolyline
 90
69
 70
1
 10
113.60848951063863
 20
146.84250822640644
 10
110.54436012549692
 20
146.60680596601094
 10
110.54436012549692
 20
143.30697432047367
 10
109.13014656312383
 20
140.94995171651848
 10
108.42303978193729
 20
140.71424945612299
 10
106.53742169877316
 20
143.0712720600782
 10
103.23759005323595
 20
143.0712720600782
 10
102.76618553244491
 20
142.59986753928712
 10
100.88056744928079
 20
142.59986753928712
 10
100.40916292848975
 20
142.12846301849612
 10
97.58073580374356
 20
142.12846301849612
 10
97.10933128295252
 20
141.65705849770504
 10
96.6379267621615
 20
142.12846301849612
 10
92.39528607504222
 20
142.12846301849612
 10
90.50966799187808
 20
143.0712720600782
 10
89.095454429505
 20
143.0712720600782
 10
88.15264538792293
 20
144.01408110166025
 10
86.73843182554982
 20
144.01408110166025
 10
82.02438661763951
 20
146.84250822640644
 10
81.31727983645297
 20
147.549615007593
 10
80.3744707948709
 20
150.84944665313017
 10
79.43166175328884
 20
152.2636602155033
 10
79.90306627407988
 20
152.7350647362944
 10
79.43166175328884
 20
153.20646925708536
 10
79.43166175328884
 20
155.0920873402495
 10
81.788684357244
 20
158.39191898578676
 10
84.6171114819902
 20
160.74894158974183
 10
86.03132504436329
 20
162.63455967290597
 10
85.55992052357226
 20
163.10596419369705
 10
85.55992052357226
 20
164.5201777560701
 10
84.6171114819902
 20
165.93439131844323
 10
84.6171114819902
 20
166.87720036002528
 10
83.20289791961709
 20
169.2342229639805
 10
83.20289791961709
 20
170.17703200556244
 10
82.49579113843055
 20
171.3555433075401
 10
81.788684357244
 20
171.5912455679356
 10
81.788684357244
 20
173.00545913030874
 10
81.31727983645297
 20
173.4768636510997
 10
82.49579113843055
 20
173.7125659114952
 10
85.79562278396777
 20
175.59818399465942
 10
87.44553860673638
 20
175.83388625505492
 10
87.44553860673638
 20
164.0487732352791
 10
90.50966799187808
 20
163.81307097488352
 10
90.7453702522736
 20
177.24809981742794
 10
91.45247703346014
 20
177.95520659861452
 10
92.39528607504222
 20
177.95520659861452
 10
94.28090415820634
 20
178.89801564019658
 10
96.40222450176599
 20
176.77669529663697
 10
96.87362902255701
 20
169.70562748477147
 10
97.34503354334804
 20
169.2342229639805
 10
97.34503354334804
 20
165.93439131844323
 10
98.2878425849301
 20
165.46298679765215
 10
98.2878425849301
 20
163.57736871448802
 10
100.88056744928079
 20
160.98464385013745
 10
107.48023074035522
 20
160.51323932934636
 10
110.54436012549692
 20
154.62068281945852
 10
110.54436012549692
 20
151.79225569471222
 10
112.42997820866105
 20
151.32085117392126
 10
113.37278725024312
 20
149.43523309075712
 10
114.31559629182519
 20
148.96382856996604
 10
114.5512985522207
 20
147.7853172679885
 10
123.50798444725031
 20
147.7853172679885
 10
128.4577319155561
 20
144.24978336205575
 10
123.97938896804133
 20
139.30003589374996
 10
122.32947314527271
 20
140.00714267493652
 10
121.62236636408618
 20
141.18565397691407
 10
120.67955732250411
 20
141.18565397691407
 10
115.02270307301174
 20
144.9568901432423
 10
113.60848951063863
 20
146.84250822640644
  0
LWPOLYLINE
  5
3D
330
17
100
AcDbEntity
  8
ENG_D
100
AcDbPolyline
 90
5
 70
1
 10
87.6812408671319
 20
145.89969918482439
 10
90.7453702522736
 20
146.13540144521986
 10
90.50966799187808
 20
158.62762124618223
 10
87.44553860673638
 20
158.39191898578676
 10
87.6812408671319
 20
145.89969918482439
  0
LWPOLYLINE
  5
3E
330
17
100
AcDbEntity
  8
ENG_D
100
AcDbPolyline
 90
4
 70
1
 10
114.78700081261621
 20
224.85995641732214
 10
114.07989403142966
 20
224.15284963613558
 10
114.07989403142966
 20
229.80970388562793
 10
114.78700081261621
 20
224.85995641732214
  0
LWPOLYLINE
  5
3F
330
17
100
AcDbEntity
  8
ENG_D
100
AcDbPolyline
 90
25
 70
1
 10
101.82337649086284
 20
218.02459086585225
 10
99.4663538869077
 20
218.02459086585225
 10
98.99494936611664
 20
218.49599538664322
 10
96.16652224137047
 20
218.49599538664322
 10
95.69511772057945
 20
218.9673999074343
 10
94.28090415820634
 20
218.9673999074343
 10
94.04520189781083
 20
219.67450668862088
 10
95.93081998097496
 20
223.445742854949
 10
95.93081998097496
 20
224.38855189653117
 10
97.34503354334804
 20
226.74557450048627
 10
97.34503354334804
 20
228.1597880628594
 10
98.2878425849301
 20
228.63119258365037
 10
99.23065162651217
 20
230.5168106668145
 10
99.23065162651217
 20
231.45961970839667
 10
100.88056744928079
 20
234.05234457274736
 10
101.82337649086284
 20
234.52374909353836
 10
106.06601717798213
 20
234.52374909353836
 10
106.53742169877316
 20
235.4665581351203
 10
112.66568046905658
 20
235.9379626559115
 10
113.37278725024312
 20
231.45961970839667
 10
110.54436012549692
 20
230.9882151876057
 10
110.54436012549692
 20
218.7316976470388
 10
108.89444430272832
 20
216.61037730347908
 10
102.29478101165387
 20
217.55318634506128
 10
101.82337649086284
 20
218.02459086585225
  0
LWPOLYLINE
  5
40
330
17
100
AcDbEntity
  8
ENG_D
100
AcDbPolyline
 90
24
 70
1
 10
96.6379267621615
 20
206.23947784607643
 10
100.88056744928079
 20
210.01071401240466
 10
102.29478101165387
 20
210.01071401240466
 10
102.76618553244491
 20
209.5393094916137
 10
107.48023074035522
 20
209.5393094916137
 10
107.95163526114627
 20
209.0679049708226
 10
110.54436012549692
 20
208.83220271042714
 10
110.54436012549692
 20
202.7039439401437
 10
108.89444430272832
 20
201.05402811737505
 10
106.53742169877316
 20
201.05402811737505
 10
106.06601717798213
 20
201.9968371589571
 10
105.12320813640007
 20
201.52543263816614
 10
102.76618553244491
 20
201.52543263816614
 10
100.88056744928079
 20
202.4682416797482
 10
99.93775840769872
 20
201.9968371589571
 10
98.05214032453459
 20
199.639814555002
 10
97.58073580374356
 20
199.639814555002
 10
93.57379737701979
 20
195.63287612827818
 10
93.57379737701979
 20
194.6900670866961
 10
90.98107251266912
 20
192.09734222234553
 10
90.7453702522736
 20
205.06096654409887
 10
88.85975216910947
 20
205.53237106488987
 10
93.33809511662427
 20
209.5393094916137
 10
96.6379267621615
 20
206.23947784607643
  0
LWPOLYLINE
  5
41
330
17
100
AcDbEntity
  8
ENG_D
100
AcDbPolyline
 90
5
 70
1
 10
102.29478101165387
 20
203.88245524212124
 10
102.05907875125835
 20
203.17534846093477
 10
102.29478101165387
 20
202.93964620053927
 10
102.5304832720494
 20
203.64675298172574
 10
102.29478101165387
 20
203.88245524212124
  0
LWPOLYLINE
  5
42
330
17
100
AcDbEntity
  8
ENG_D
100
AcDbPolyline
 90
10
 70
1
 10
83.67430244040811
 20
196.57568516986035
 10
81.31727983645297
 20
198.46130325302448
 10
84.8528137423857
 20
201.52543263816614
 10
85.32421826317673
 20
201.52543263816614
 10
87.20983634634086
 20
203.88245524212124
 10
87.44553860673638
 20
192.33304448274103
 10
86.50272956515431
 20
192.33304448274103
 10
86.50272956515431
 20
192.804449003532
 10
84.14570696119917
 20
195.16147160748721
 10
83.67430244040811
 20
196.57568516986035
  0
LWPOLYLINE
  5
43
330
17
100
AcDbEntity
  8
ENG_K
100
AcDbPolyline
 90
15
 70
1
 10
218.02459086585216
 20
38.655170704864574
 10
219.67450668862077
 20
38.89087296526017
 10
220.1459112094118
 20
38.41946844446908
 10
222.50293381336698
 20
38.41946844446908
 10
222.974338334158
 20
37.47665940288702
 10
225.8027654589042
 20
37.47665940288702
 10
226.50987224009071
 20
36.769552621700456
 10
226.50987224009071
 20
29.227080289043972
 10
224.8599564173221
 20
28.5199735078574
 10
222.974338334158
 20
28.5199735078574
 10
220.61731573020282
 20
27.577164466275338
 10
219.20310216782974
 20
27.577164466275338
 10
218.73169764703871
 20
27.105759945484365
 10
218.02459086585216
 20
27.34146220587985
 10
218.02459086585216
 20
38.655170704864574
  0
LWPOLYLINE
  5
44
330
17
100
AcDbEntity
  8
ENG_K
100
AcDbPolyline
 90
10
 70
1
 10
219.20310216782974
 20
53.03300858899107
 10
218.02459086585216
 20
54.6829244117597
 10
218.02459086585216
 20
68.35365551469962
 10
218.73169764703871
 20
69.0607622958862
 10
221.08872025099384
 20
69.0607622958862
 10
221.56012477178487
 20
70.00357133746826
 10
226.27416997969522
 20
70.47497585825924
 10
226.50987224009071
 20
49.497474683058314
 10
225.56706319850866
 20
49.497474683058314
 10
219.20310216782974
 20
53.03300858899107
  0
LWPOLYLINE
  5
45
330
17
100
AcDbEntity
  8
ENG_K
100
AcDbPolyline
 90
53
 70
1
 10
200.582623596584
 20
53.74011537017764
 10
200.34692133618847
 20
54.447222151364215
 10
199.87551681539745
 20
54.447222151364215
 10
196.5756851698602
 20
57.74705379690137
 10
191.86163996194992
 20
57.2756492761104
 10
191.3902354411589
 20
56.80424475531931
 10
186.67619023324855
 20
55.86143571373725
 10
186.20478571245752
 20
55.390031192946275
 10
178.19090885901
 20
55.86143571373725
 10
177.71950433821894
 20
56.332840234528334
 10
173.47686365109965
 20
56.332840234528334
 10
169.94132974516694
 20
65.52522838995345
 10
175.3624817342638
 20
67.17514421272209
 10
175.83388625505484
 20
67.64654873351306
 10
177.71950433821894
 20
67.64654873351306
 10
181.01933598375615
 20
69.0607622958862
 10
181.96214502533823
 20
69.0607622958862
 10
182.43354954612926
 20
70.00357133746826
 10
185.7333811916665
 20
70.47497585825924
 10
189.0332128372037
 20
76.1318301077516
 10
197.51849421144226
 20
72.83199846221444
 10
197.7541964718378
 20
73.53910524340101
 10
197.28279195104676
 20
74.010509764192
 10
197.28279195104676
 20
78.25315045131131
 10
196.81138743025573
 20
78.72455497210228
 10
196.33998290946468
 20
86.73843182554985
 10
201.76113489856158
 20
90.2739657314826
 10
202.4682416797481
 20
90.03826347108712
 10
203.41105072133018
 20
86.73843182554985
 10
204.35385976291224
 20
85.32421826317682
 10
204.35385976291224
 20
83.91000470080368
 10
205.0609665440988
 20
83.2028979196171
 10
206.00377558568084
 20
82.73149339882613
 10
210.24641627280013
 20
82.73149339882613
 10
210.71782079359116
 20
82.26008887803505
 10
214.72475922031495
 20
82.02438661763955
 10
214.72475922031495
 20
74.95331880577405
 10
214.25335469952392
 20
74.48191428498308
 10
213.78195017873287
 20
70.71067811865484
 10
213.31054565794182
 20
70.23927359786374
 10
213.31054565794182
 20
68.35365551469962
 10
214.72475922031495
 20
67.88225099390854
 10
214.72475922031495
 20
55.625733453341766
 10
213.07484339754632
 20
54.447222151364215
 10
212.13203435596427
 20
54.447222151364215
 10
211.66062983517324
 20
53.504413109782156
 10
210.71782079359116
 20
53.03300858899107
 10
209.7750117520091
 20
53.03300858899107
 10
208.36079818963603
 20
52.090199547409014
 10
206.94658462726292
 20
52.090199547409014
 10
204.1181575025167
 20
50.67598598503598
 10
203.41105072133018
 20
50.91168824543146
 10
200.582623596584
 20
53.74011537017764
  0
LWPOLYLINE
  5
46
330
17
100
AcDbEntity
  8
ENG_K
100
AcDbPolyline
 90
15
 70
1
 10
212.36773661635976
 20
29.227080289043972
 10
212.36773661635976
 20
30.16988933062603
 10
208.59650045003153
 20
37.24095714249154
 10
208.59650045003153
 20
38.1837661840736
 10
207.65369140844948
 20
38.655170704864574
 10
206.71088236686742
 20
40.54078878802869
 10
206.94658462726292
 20
40.77649104842429
 10
207.88939366884497
 20
40.30508652763321
 10
210.71782079359116
 20
40.30508652763321
 10
211.18922531438218
 20
39.83368200684223
 10
213.54624791833734
 20
39.83368200684223
 10
214.72475922031495
 20
39.12657522565566
 10
214.72475922031495
 20
26.39865316429779
 10
214.25335469952392
 20
26.39865316429779
 10
212.36773661635976
 20
29.227080289043972
  0
LWPOLYLINE
  5
47
330
17
100
AcDbEntity
  8
CUT_SLOT
100
AcDbPolyline
 90
5
 70
1
 10
214.69484042439194
 20
0.0
 10
218.2589420395297
 20
0.0
 10
218.2589420395297
 20
141.42135623730957
 10
214.69484042439194
 20
141.42135623730957
 10
214.69484042439194
 20
0.0
  0
LWPOLYLINE
  5
48
330
17
100
AcDbEntity
  8
CUT_SLOT
100
AcDbPolyline
 90
5
 70
1
 10
191.60082965680692
 20
0.0
 10
195.16493127194468
 20
0.0
 10
195.16493127194468
 20
141.42135623730957
 10
191.60082965680692
 20
141.42135623730957
 10
191.60082965680692
 20
0.0
  0
LWPOLYLINE
  5
49
330
17
100
AcDbEntity
  8
CUT_SLOT
100
AcDbPolyline
 90
5
 70
1
 10
168.50681888922188
 20
0.0
 10
172.07092050435963
 20
0.0
 10
172.07092050435963
 20
141.42135623730957
 10
168.50681888922188
 20
141.42135623730957
 10
168.50681888922188
 20
0.0
  0
LWPOLYLINE
  5
4A
330
17
100
AcDbEntity
  8
CUT_SLOT
100
AcDbPolyline
 90
5
 70
1
 10
145.41280812163686
 20
0.0
 10
148.97690973677462
 20
0.0
 10
148.97690973677462
 20
141.42135623730957
 10
145.41280812163686
 20
141.42135623730957
 10
145.41280812163686
 20
0.0
  0
LWPOLYLINE
  5
4B
330
17
100
AcDbEntity
  8
CUT_SLOT
100
AcDbPolyline
 90
5
 70
1
 10
122.31879735405184
 20
0.0
 10
125.88289896918958
 20
0.0
 10
125.88289896918958
 20
141.42135623730957
 10
122.31879735405184
 20
141.42135623730957
 10
122.31879735405184
 20
0.0
  0
LWPOLYLINE
  5
4C
330
17
100
AcDbEntity
  8
CUT_SLOT
100
AcDbPolyline
 90
5
 70
1
 10
99.2247865864668
 20
0.0
 10
102.78888820160456
 20
0.0
 10
102.78888820160456
 20
141.42135623730957
 10
99.2247865864668
 20
141.42135623730957
 10
99.2247865864668
 20
0.0
  0
LWPOLYLINE
  5
4D
330
17
100
AcDbEntity
  8
CUT_SLOT
100
AcDbPolyline
 90
5
 70
1
 10
180.0538242730144
 20
0.0
 10
183.61792588815217
 20
0.0
 10
183.61792588815217
 20
141.42135623730957
 10
180.0538242730144
 20
141.42135623730957
 10
180.0538242730144
 20
0.0
  0
LWPOLYLINE
  5
4E
330
17
100
AcDbEntity
  8
CUT_SLOT
100
AcDbPolyline
 90
5
 70
1
 10
156.9598135054294
 20
0.0
 10
160.52391512056715
 20
0.0
 10
160.52391512056715
 20
141.42135623730957
 10
156.9598135054294
 20
141.42135623730957
 10
156.9598135054294
 20
0.0
  0
LWPOLYLINE
  5
4F
330
17
100
AcDbEntity
  8
CUT_SLOT
100
AcDbPolyline
 90
5
 70
1
 10
133.86580273784438
 20
0.0
 10
137.42990435298213
 20
0.0
 10
137.42990435298213
 20
141.42135623730957
 10
133.86580273784438
 20
141.42135623730957
 10
133.86580273784438
 20
0.0
  0
LWPOLYLINE
  5
50
330
17
100
AcDbEntity
  8
CUT_SLOT
100
AcDbPolyline
 90
5
 70
1
 10
110.77179197025934
 20
0.0
 10
114.3358935853971
 20
0.0
 10
114.3358935853971
 20
141.42135623730957
 10
110.77179197025934
 20
141.42135623730957
 10
110.77179197025934
 20
0.0
  0
LWPOLYLINE
  5
51
330
17
100
AcDbEntity
  8
CUT_SLOT
100
AcDbPolyline
 90
5
 70
1
 10
87.67778120267434
 20
0.0
 10
91.2418828178121
 20
0.0
 10
91.2418828178121
 20
141.42135623730957
 10
87.67778120267434
 20
141.42135623730957
 10
87.67778120267434
 20
0.0
  0
LWPOLYLINE
  5
52
330
17
100
AcDbEntity
  8
CUT_SLOT
100
AcDbPolyline
 90
5
 70
1
 10
64.58377043508928
 20
0.0
 10
68.14787205022704
 20
0.0
 10
68.14787205022704
 20
141.42135623730957
 10
64.58377043508928
 20
141.42135623730957
 10
64.58377043508928
 20
0.0
  0
LWPOLYLINE
  5
53
330
17
100
AcDbEntity
  8
CUT_OUTLINE
100
AcDbPolyline
 90
5
 70
1
 10
0.0
 20
0.0
 10
282.842712474619
 20
0.0
 10
282.842712474619
 20
282.84271247461913
 10
0.0
 20
282.84271247461913
 10
0.0
 20
0.0
  0
ENDSEC
  0
SECTION
  2
OBJECTS
  0
DICTIONARY
  5
A
330
0
100
AcDbDictionary
281
1
  3
ACAD_COLOR
350
B
  3
ACAD_GROUP
350
C
  3
ACAD_LAYOUT
350
D
  3
ACAD_MATERIAL
350
E
  3
ACAD_MLEADERSTYLE
350
F
  3
ACAD_MLINESTYLE
350
10
  3
ACAD_PLOTSETTINGS
350
11
  3
ACAD_PLOTSTYLENAME
350
12
  3
ACAD_SCALELIST
350
14
  3
ACAD_TABLESTYLE
350
15
  3
ACAD_VISUALSTYLE
350
16
  3
EZDXF_META
350
2D
  0
DICTIONARY
  5
B
330
A
100
AcDbDictionary
281
1
  0
DICTIONARY
  5
C
330
A
100
AcDbDictionary
281
1
  0
DICTIONARY
  5
D
330
A
100
AcDbDictionary
281
1
  3
Model
350
1A
  3
Layout1
350
1E
  0
DICTIONARY
  5
E
330
A
100
AcDbDictionary
281
1
  3
ByBlock
350
1F
  3
ByLayer
350
20
  3
Global
350
21
  0
DICTIONARY
  5
F
330
A
100
AcDbDictionary
281
1
  3
Standard
350
2C
  0
DICTIONARY
  5
10
330
A
100
AcDbDictionary
281
1
  3
Standard
350
22
  0
DICTIONARY
  5
11
330
A
100
AcDbDictionary
281
1
  0
ACDBDICTIONARYWDFLT
  5
12
330
A
100
AcDbDictionary
281
1
  3
Normal
350
13
100
AcDbDictionaryWithDefault
340
13
  0
ACDBPLACEHOLDER
  5
13
330
12
  0
DICTIONARY
  5
14
330
A
100
AcDbDictionary
281
1
  0
DICTIONARY
  5
15
330
A
100
AcDbDictionary
281
1
  0
DICTIONARY
  5
16
330
A
100
AcDbDictionary
281
1
  0
LAYOUT
  5
1A
330
D
100
AcDbPlotSettings
  1

  4
A3
  6

 40
7.5
 41
20.0
 42
7.5
 43
20.0
 44
420.0
 45
297.0
 46
0.0
 47
0.0
 48
0.0
 49
0.0
140
0.0
141
0.0
142
1.0
143
1.0
 70
1024
 72
1
 73
0
 74
5
  7

 75
16
 76
0
 77
2
 78
300
147
1.0
148
0.0
149
0.0
100
AcDbLayout
  1
Model
 70
1
 71
0
 10
0.0
 20
0.0
 11
420.0
 21
297.0
 12
0.0
 22
0.0
 32
0.0
 14
1e+20
 24
1e+20
 34
1e+20
 15
-1e+20
 25
-1e+20
 35
-1e+20
146
0.0
 13
0.0
 23
0.0
 33
0.0
 16
1.0
 26
0.0
 36
0.0
 17
0.0
 27
1.0
 37
0.0
 76
1
330
17
  0
LAYOUT
  5
1E
330
D
100
AcDbPlotSettings
  1

  4
A3
  6

 40
7.5
 41
20.0
 42
7.5
 43
20.0
 44
420.0
 45
297.0
 46
0.0
 47
0.0
 48
0.0
 49
0.0
140
0.0
141
0.0
142
1.0
143
1.0
 70
0
 72
1
 73
0
 74
5
  7

 75
16
 76
0
 77
2
 78
300
147
1.0
148
0.0
149
0.0
100
AcDbLayout
  1
Layout1
 70
1
 71
1
 10
0.0
 20
0.0
 11
420.0
 21
297.0
 12
0.0
 22
0.0
 32
0.0
 14
1e+20
 24
1e+20
 34
1e+20
 15
-1e+20
 25
-1e+20
 35
-1e+20
146
0.0
 13
0.0
 23
0.0
 33
0.0
 16
1.0
 26
0.0
 36
0.0
 17
0.0
 27
1.0
 37
0.0
 76
1
330
1B
  0
MATERIAL
  5
1F
102
{ACAD_REACTORS
330
E
102
}
330
E
100
AcDbMaterial
  1
ByBlock
  2

 70
0
 40
1.0
 71
1
 41
1.0
 91
-1023410177
 42
1.0
 72
1
  3

 73
1
 74
1
 75
1
 44
0.5
 73
0
 45
1.0
 46
1.0
 77
1
  4

 78
1
 79
1
170
1
 48
1.0
171
1
  6

172
1
173
1
174
1
140
1.0
141
1.0
175
1
  7

176
1
177
1
178
1
143
1.0
179
1
  8

270
1
271
1
272
1
145
1.0
146
1.0
273
1
  9

274
1
275
1
276
1
 42
1.0
 72
1
  3

 73
1
 74
1
 75
1
 94
63
  0
MATERIAL
  5
20
102
{ACAD_REACTORS
330
E
102
}
330
E
100
AcDbMaterial
  1
ByLayer
  2

 70
0
 40
1.0
 71
1
 41
1.0
 91
-1023410177
 42
1.0
 72
1
  3

 73
1
 74
1
 75
1
 44
0.5
 73
0
 45
1.0
 46
1.0
 77
1
  4

 78
1
 79
1
170
1
 48
1.0
171
1
  6

172
1
173
1
174
1
140
1.0
141
1.0
175
1
  7

176
1
177
1
178
1
143
1.0
179
1
  8

270
1
271
1
272
1
145
1.0
146
1.0
273
1
  9

274
1
275
1
276
1
 42
1.0
 72
1
  3

 73
1
 74
1
 75
1
 94
63
  0
MATERIAL
  5
21
102
{ACAD_REACTORS
330
E
102
}
330
E
100
AcDbMaterial
  1
Global
  2

 70
0
 40
1.0
 71
1
 41
1.0
 91
-1023410177
 42
1.0
 72
1
  3

 73
1
 74
1
 75
1
 44
0.5
 73
0
 45
1.0
 46
1.0
 77
1
  4

 78
1
 79
1
170
1
 48
1.0
171
1
  6

172
1
173
1
174
1
140
1.0
141
1.0
175
1
  7

176
1
177
1
178
1
143
1.0
179
1
  8

270
1
271
1
272
1
145
1.0
146
1.0
273
1
  9

274
1
275
1
276
1
 42
1.0
 72
1
  3

 73
1
 74
1
 75
1
 94
63
  0
MLINESTYLE
  5
22
102
{ACAD_REACTORS
330
10
102
}
330
10
100
AcDbMlineStyle
  2
Standard
 70
0
  3

 62
256
 51
90.0
 52
90.0
 71
2
 49
0.5
 62
256
  6
BYLAYER
 49
-0.5
 62
256
  6
BYLAYER
  0
MLEADERSTYLE
  5
2C
102
{ACAD_REACTORS
330
F
102
}
330
F
100
AcDbMLeaderStyle
179
2
170
2
171
1
172
0
 90
2
 40
0.0
 41
0.0
173
1
 91
-1056964608
 92
-2
290
1
 42
2.0
291
1
 43
8.0
  3
Standard
 44
4.0
300

342
29
174
1
175
1
176
0
178
1
 93
-1056964608
 45
4.0
292
0
297
0
 46
4.0
 94
-1056964608
 47
1.0
 49
1.0
140
1.0
294
1
141
0.0
177
0
142
1.0
295
0
296
0
143
3.75
271
0
272
9
273
9
  0
DICTIONARY
  5
2D
330
A
100
AcDbDictionary
280
1
281
1
  3
CREATED_BY_EZDXF
350
2E
  3
WRITTEN_BY_EZDXF
350
56
  0
DICTIONARYVAR
  5
2E
330
2D
100
DictionaryVariables
280
0
  1
1.4.4 @ 2026-08-03T11:44:36.178507+00:00
  0
DICTIONARYVAR
  5
56
330
2D
100
DictionaryVariables
280
0
  1
1.4.4 @ 2026-08-03T11:44:36.183787+00:00
  0
ENDSEC
  0
EOF
