  0
SECTION
  2
HEADER
  9
$ACADVER
  1
AC1027
  9
$ACADMAINTVER
 70
105
  9
$DWGCODEPAGE
  3
ANSI_1252
  9
$LASTSAVEDBY
  1
ezdxf
  9
$REQUIREDVERSIONS
160
0
  9
$INSBASE
 10
0.0
 20
0.0
 30
0.0
  9
$EXTMIN
 10
1e+20
 20
1e+20
 30
1e+20
  9
$EXTMAX
 10
-1e+20
 20
-1e+20
 30
-1e+20
  9
$LIMMIN
 10
0.0
 20
0.0
  9
$LIMMAX
 10
420.0
 20
297.0
  9
$ORTHOMODE
 70
0
  9
$REGENMODE
 70
1
  9
$FILLMODE
 70
1
  9
$QTEXTMODE
 70
0
  9
$MIRRTEXT
 70
1
  9
$LTSCALE
 40
1.0
  9
$ATTMODE
 70
1
  9
$TEXTSIZE
 40
2.5
  9
$TRACEWID
 40
1.0
  9
$TEXTSTYLE
  7
Standard
  9
$CLAYER
  8
0
  9
$CELTYPE
  6
ByLayer
  9
$CECOLOR
 62
256
  9
$CELTSCALE
 40
1.0
  9
$DISPSILH
 70
0
  9
$DIMSCALE
 40
1.0
  9
$DIMASZ
 40
2.5
  9
$DIMEXO
 40
0.625
  9
$DIMDLI
 40
3.75
  9
$DIMRND
 40
0.0
  9
$DIMDLE
 40
0.0
  9
$DIMEXE
 40
1.25
  9
$DIMTP
 40
0.0
  9
$DIMTM
 40
0.0
  9
$DIMTXT
 40
2.5
  9
$DIMCEN
 40
2.5
  9
$DIMTSZ
 40
0.0
  9
$DIMTOL
 70
0
  9
$DIMLIM
 70
0
  9
$DIMTIH
 70
0
  9
$DIMTOH
 70
0
  9
$DIMSE1
 70
0
  9
$DIMSE2
 70
0
  9
$DIMTAD
 70
1
  9
$DIMZIN
 70
8
  9
$DIMBLK
  1

  9
$DIMASO
 70
1
  9
$DIMSHO
 70
1
  9
$DIMPOST
  1

  9
$DIMAPOST
  1

  9
$DIMALT
 70
0
  9
$DIMALTD
 70
3
  9
$DIMALTF
 40
0.03937007874
  9
$DIMLFAC
 40
1.0
  9
$DIMTOFL
 70
1
  9
$DIMTVP
 40
0.0
  9
$DIMTIX
 70
0
  9
$DIMSOXD
 70
0
  9
$DIMSAH
 70
0
  9
$DIMBLK1
  1

  9
$DIMBLK2
  1

  9
$DIMSTYLE
  2
ISO-25
  9
$DIMCLRD
 70
0
  9
$DIMCLRE
 70
0
  9
$DIMCLRT
 70
0
  9
$DIMTFAC
 40
1.0
  9
$DIMGAP
 40
0.625
  9
$DIMJUST
 70
0
  9
$DIMSD1
 70
0
  9
$DIMSD2
 70
0
  9
$DIMTOLJ
 70
0
  9
$DIMTZIN
 70
8
  9
$DIMALTZ
 70
0
  9
$DIMALTTZ
 70
0
  9
$DIMUPT
 70
0
  9
$DIMDEC
 70
2
  9
$DIMTDEC
 70
2
  9
$DIMALTU
 70
2
  9
$DIMALTTD
 70
3
  9
$DIMTXSTY
  7
Standard
  9
$DIMAUNIT
 70
0
  9
$DIMADEC
 70
0
  9
$DIMALTRND
 40
0.0
  9
$DIMAZIN
 70
0
  9
$DIMDSEP
 70
44
  9
$DIMATFIT
 70
3
  9
$DIMFRAC
 70
0
  9
$DIMLDRBLK
  1

  9
$DIMLUNIT
 70
2
  9
$DIMLWD
 70
-2
  9
$DIMLWE
 70
-2
  9
$DIMTMOVE
 70
0
  9
$DIMFXL
 40
1.0
  9
$DIMFXLON
 70
0
  9
$DIMJOGANG
 40
0.785398163397
  9
$DIMTFILL
 70
0
  9
$DIMTFILLCLR
 70
0
  9
$DIMARCSYM
 70
0
  9
$DIMLTYPE
  6

  9
$DIMLTEX1
  6

  9
$DIMLTEX2
  6

  9
$DIMTXTDIRECTION
 70
0
  9
$LUNITS
 70
2
  9
$LUPREC
 70
4
  9
$SKETCHINC
 40
1.0
  9
$FILLETRAD
 40
10.0
  9
$AUNITS
 70
0
  9
$AUPREC
 70
2
  9
$MENU
  1
.
  9
$ELEVATION
 40
0.0
  9
$PELEVATION
 40
0.0
  9
$THICKNESS
 40
0.0
  9
$LIMCHECK
 70
0
  9
$CHAMFERA
 40
0.0
  9
$CHAMFERB
 40
0.0
  9
$CHAMFERC
 40
0.0
  9
$CHAMFERD
 40
0.0
  9
$SKPOLY
 70
0
  9
$TDCREATE
 40
2461256.6143055554
  9
$TDUCREATE
 40
2458532.153996898
  9
$TDUPDATE
 40
2461256.6143055554
  9
$TDUUPDATE
 40
2458532.1544311
  9
$TDINDWG
 40
0.0
  9
$TDUSRTIMER
 40
0.0
  9
$USRTIMER
 70
1
  9
$ANGBASE
 50
0.0
  9
$ANGDIR
 70
0
  9
$PDMODE
 70
0
  9
$PDSIZE
 40
0.0
  9
$PLINEWID
 40
0.0
  9
$SPLFRAME
 70
0
  9
$SPLINETYPE
 70
6
  9
$SPLINESEGS
 70
8
  9
$HANDSEED
  5
6F
  9
$SURFTAB1
 70
6
  9
$SURFTAB2
 70
6
  9
$SURFTYPE
 70
6
  9
$SURFU
 70
6
  9
$SURFV
 70
6
  9
$UCSBASE
  2

  9
$UCSNAME
  2

  9
$UCSORG
 10
0.0
 20
0.0
 30
0.0
  9
$UCSXDIR
 10
1.0
 20
0.0
 30
0.0
  9
$UCSYDIR
 10
0.0
 20
1.0
 30
0.0
  9
$UCSORTHOREF
  2

  9
$UCSORTHOVIEW
 70
0
  9
$UCSORGTOP
 10
0.0
 20
0.0
 30
0.0
  9
$UCSORGBOTTOM
 10
0.0
 20
0.0
 30
0.0
  9
$UCSORGLEFT
 10
0.0
 20
0.0
 30
0.0
  9
$UCSORGRIGHT
 10
0.0
 20
0.0
 30
0.0
  9
$UCSORGFRONT
 10
0.0
 20
0.0
 30
0.0
  9
$UCSORGBACK
 10
0.0
 20
0.0
 30
0.0
  9
$PUCSBASE
  2

  9
$PUCSNAME
  2

  9
$PUCSORG
 10
0.0
 20
0.0
 30
0.0
  9
$PUCSXDIR
 10
1.0
 20
0.0
 30
0.0
  9
$PUCSYDIR
 10
0.0
 20
1.0
 30
0.0
  9
$PUCSORTHOREF
  2

  9
$PUCSORTHOVIEW
 70
0
  9
$PUCSORGTOP
 10
0.0
 20
0.0
 30
0.0
  9
$PUCSORGBOTTOM
 10
0.0
 20
0.0
 30
0.0
  9
$PUCSORGLEFT
 10
0.0
 20
0.0
 30
0.0
  9
$PUCSORGRIGHT
 10
0.0
 20
0.0
 30
0.0
  9
$PUCSORGFRONT
 10
0.0
 20
0.0
 30
0.0
  9
$PUCSORGBACK
 10
0.0
 20
0.0
 30
0.0
  9
$USERI1
 70
0
  9
$USERI2
 70
0
  9
$USERI3
 70
0
  9
$USERI4
 70
0
  9
$USERI5
 70
0
  9
$USERR1
 40
0.0
  9
$USERR2
 40
0.0
  9
$USERR3
 40
0.0
  9
$USERR4
 40
0.0
  9
$USERR5
 40
0.0
  9
$WORLDVIEW
 70
1
  9
$SHADEDGE
 70
3
  9
$SHADEDIF
 70
70
  9
$TILEMODE
 70
1
  9
$MAXACTVP
 70
64
  9
$PINSBASE
 10
0.0
 20
0.0
 30
0.0
  9
$PLIMCHECK
 70
0
  9
$PEXTMIN
 10
1e+20
 20
1e+20
 30
1e+20
  9
$PEXTMAX
 10
-1e+20
 20
-1e+20
 30
-1e+20
  9
$PLIMMIN
 10
0.0
 20
0.0
  9
$PLIMMAX
 10
420.0
 20
297.0
  9
$UNITMODE
 70
0
  9
$VISRETAIN
 70
1
  9
$PLINEGEN
 70
0
  9
$PSLTSCALE
 70
1
  9
$TREEDEPTH
 70
3020
  9
$CMLSTYLE
  2
Standard
  9
$CMLJUST
 70
0
  9
$CMLSCALE
 40
20.0
  9
$PROXYGRAPHICS
 70
1
  9
$MEASUREMENT
 70
1
  9
$CELWEIGHT
370
-1
  9
$ENDCAPS
280
0
  9
$JOINSTYLE
280
0
  9
$LWDISPLAY
290
0
  9
$INSUNITS
 70
4
  9
$HYPERLINKBASE
  1

  9
$STYLESHEET
  1

  9
$XEDIT
290
1
  9
$CEPSNTYPE
380
0
  9
$PSTYLEMODE
290
1
  9
$FINGERPRINTGUID
  2
{70DB3381-BFB7-4038-B99A-C67D55A28963}
  9
$VERSIONGUID
  2
{6FDC9151-7251-4659-9FE2-B33538267564}
  9
$EXTNAMES
290
1
  9
$PSVPSCALE
 40
0.0
  9
$OLESTARTUP
290
0
  9
$SORTENTS
280
127
  9
$INDEXCTL
280
0
  9
$HIDETEXT
280
1
  9
$XCLIPFRAME
280
1
  9
$HALOGAP
280
0
  9
$OBSCOLOR
 70
257
  9
$OBSLTYPE
280
0
  9
$INTERSECTIONDISPLAY
280
0
  9
$INTERSECTIONCOLOR
 70
257
  9
$DIMASSOC
280
2
  9
$PROJECTNAME
  1

  9
$CAMERADISPLAY
290
0
  9
$LENSLENGTH
 40
50.0
  9
$CAMERAHEIGHT
 40
0.0
  9
$STEPSPERSEC
 40
24.0
  9
$STEPSIZE
 40
100.0
  9
$3DDWFPREC
 40
2.0
  9
$PSOLWIDTH
 40
0.005
  9
$PSOLHEIGHT
 40
0.08
  9
$LOFTANG1
 40
1.570796326795
  9
$LOFTANG2
 40
1.570796326795
  9
$LOFTMAG1
 40
0.0
  9
$LOFTMAG2
 40
0.0
  9
$LOFTPARAM
 70
7
  9
$LOFTNORMALS
280
1
  9
$LATITUDE
 40
37.795
  9
$LONGITUDE
 40
-122.394
  9
$NORTHDIRECTION
 40
0.0
  9
$TIMEZONE
 70
-8000
  9
$LIGHTGLYPHDISPLAY
280
1
  9
$TILEMODELIGHTSYNCH
280
1
  9
$CMATERIAL
347
20
  9
$SOLIDHIST
280
0
  9
$SHOWHIST
280
1
  9
$DWFFRAME
280
2
  9
$DGNFRAME
280
2
  9
$REALWORLDSCALE
290
1
  9
$INTERFERECOLOR
 62
256
  9
$CSHADOW
280
0
  9
$SHADOWPLANELOCATION
 40
0.0
  0
ENDSEC
  0
SECTION
  2
CLASSES
  0
CLASS
  1
ACDBDICTIONARYWDFLT
  2
AcDbDictionaryWithDefault
  3
ObjectDBX Classes
 90
0
 91
0
280
0
281
0
  0
CLASS
  1
SUN
  2
AcDbSun
  3
SCENEOE
 90
1153
 91
0
280
0
281
0
  0
CLASS
  1
VISUALSTYLE
  2
AcDbVisualStyle
  3
ObjectDBX Classes
 90
4095
 91
0
280
0
281
0
  0
CLASS
  1
MATERIAL
  2
AcDbMaterial
  3
ObjectDBX Classes
 90
1153
 91
0
280
0
281
0
  0
CLASS
  1
SCALE
  2
AcDbScale
  3
ObjectDBX Classes
 90
1153
 91
0
280
0
281
0
  0
CLASS
  1
TABLESTYLE
  2
AcDbTableStyle
  3
ObjectDBX Classes
 90
4095
 91
0
280
0
281
0
  0
CLASS
  1
MLEADERSTYLE
  2
AcDbMLeaderStyle
  3
ACDB_MLEADERSTYLE_CLASS
 90
4095
 91
0
280
0
281
0
  0
CLASS
  1
DICTIONARYVAR
  2
AcDbDictionaryVar
  3
ObjectDBX Classes
 90
0
 91
0
280
0
281
0
  0
CLASS
  1
CELLSTYLEMAP
  2
AcDbCellStyleMap
  3
ObjectDBX Classes
 90
1152
 91
0
280
0
281
0
  0
CLASS
  1
MENTALRAYRENDERSETTINGS
  2
AcDbMentalRayRenderSettings
  3
SCENEOE
 90
1024
 91
0
280
0
281
0
  0
CLASS
  1
ACDBDETAILVIEWSTYLE
  2
AcDbDetailViewStyle
  3
ObjectDBX Classes
 90
1025
 91
0
280
0
281
0
  0
CLASS
  1
ACDBSECTIONVIEWSTYLE
  2
AcDbSectionViewStyle
  3
ObjectDBX Classes
 90
1025
 91
0
280
0
281
0
  0
CLASS
  1
RASTERVARIABLES
  2
AcDbRasterVariables
  3
ISM
 90
0
 91
0
280
0
281
0
  0
CLASS
  1
LAYOUT
  2
AcDbLayout
  3
ObjectDBX Classes
 90
0
 91
0
280
0
281
0
  0
CLASS
  1
ACDBPLACEHOLDER
  2
AcDbPlaceHolder
  3
ObjectDBX Classes
 90
0
 91
0
280
0
281
0
  0
ENDSEC
  0
SECTION
  2
TABLES
  0
TABLE
  2
VPORT
  5
8
330
0
100
AcDbSymbolTable
 70
1
  0
VPORT
  5
23
330
8
100
AcDbSymbolTableRecord
100
AcDbViewportTableRecord
  2
*Active
 70
0
 10
0.0
 20
0.0
 11
1.0
 21
1.0
 12
0.0
 22
0.0
 13
0.0
 23
0.0
 14
0.5
 24
0.5
 15
0.5
 25
0.5
 16
0.0
 26
0.0
 36
1.0
 17
0.0
 27
0.0
 37
0.0
 40
1000.0
 41
1.34
 42
50.0
 43
0.0
 44
0.0
 50
0.0
 51
0.0
 71
0
 72
1000
 73
1
 74
3
 75
0
 76
0
 77
0
 78
0
281
0
 65
0
146
0.0
  0
ENDTAB
  0
TABLE
  2
LTYPE
  5
2
330
0
100
AcDbSymbolTable
 70
3
  0
LTYPE
  5
24
330
2
100
AcDbSymbolTableRecord
100
AcDbLinetypeTableRecord
  2
ByBlock
 70
0
  3

 72
65
 73
0
 40
0.0
  0
LTYPE
  5
25
330
2
100
AcDbSymbolTableRecord
100
AcDbLinetypeTableRecord
  2
ByLayer
 70
0
  3

 72
65
 73
0
 40
0.0
  0
LTYPE
  5
26
330
2
100
AcDbSymbolTableRecord
100
AcDbLinetypeTableRecord
  2
Continuous
 70
0
  3

 72
65
 73
0
 40
0.0
  0
ENDTAB
  0
TABLE
  2
LAYER
  5
1
330
0
100
AcDbSymbolTable
 70
7
  0
LAYER
  5
27
330
1
100
AcDbSymbolTableRecord
100
AcDbLayerTableRecord
  2
0
 70
0
 62
7
  6
Continuous
370
-3
390
13
347
21
  0
LAYER
  5
28
330
1
100
AcDbSymbolTableRecord
100
AcDbLayerTableRecord
  2
Defpoints
 70
0
 62
7
  6
Continuous
290
0
370
-3
390
13
347
21
  0
LAYER
  5
2F
330
1
100
AcDbSymbolTableRecord
100
AcDbLayerTableRecord
  2
ENG_L
 70
0
 62
4
  6
Continuous
370
-3
390
13
347
21
  0
LAYER
  5
30
330
1
100
AcDbSymbolTableRecord
100
AcDbLayerTableRecord
  2
ENG_D
 70
0
 62
3
  6
Continuous
370
-3
390
13
347
21
  0
LAYER
  5
31
330
1
100
AcDbSymbolTableRecord
100
AcDbLayerTableRecord
  2
ENG_K
 70
0
 62
2
  6
Continuous
370
-3
390
13
347
21
  0
LAYER
  5
32
330
1
100
AcDbSymbolTableRecord
100
AcDbLayerTableRecord
  2
CUT_OUTLINE
 70
0
 62
5
  6
Continuous
370
-3
390
13
347
21
  0
LAYER
  5
33
330
1
100
AcDbSymbolTableRecord
100
AcDbLayerTableRecord
  2
CUT_SLOT
 70
0
 62
1
  6
Continuous
370
-3
390
13
347
21
  0
ENDTAB
  0
TABLE
  2
STYLE
  5
5
330
0
100
AcDbSymbolTable
 70
1
  0
STYLE
  5
29
330
5
100
AcDbSymbolTableRecord
100
AcDbTextStyleTableRecord
  2
Standard
 70
0
 40
0.0
 41
1.0
 50
0.0
 71
0
 42
2.5
  3
txt
  4

  0
ENDTAB
  0
TABLE
  2
VIEW
  5
7
330
0
100
AcDbSymbolTable
 70
0
  0
ENDTAB
  0
TABLE
  2
UCS
  5
6
330
0
100
AcDbSymbolTable
 70
0
  0
ENDTAB
  0
TABLE
  2
APPID
  5
3
330
0
100
AcDbSymbolTable
 70
3
  0
APPID
  5
2A
330
3
100
AcDbSymbolTableRecord
100
AcDbRegAppTableRecord
  2
ACAD
 70
0
  0
APPID
  5
6C
330
3
100
AcDbSymbolTableRecord
100
AcDbRegAppTableRecord
  2
HATCHBACKGROUNDCOLOR
 70
0
  0
APPID
  5
6D
330
3
100
AcDbSymbolTableRecord
100
AcDbRegAppTableRecord
  2
EZDXF
 70
0
  0
ENDTAB
  0
TABLE
  2
DIMSTYLE
  5
4
330
0
100
AcDbSymbolTable
 70
1
100
AcDbDimStyleTable
  0
DIMSTYLE
105
2B
330
4
100
AcDbSymbolTableRecord
100
AcDbDimStyleTableRecord
  2
Standard
 70
0
 40
1.0
 41
2.5
 42
0.625
 43
3.75
 44
1.25
 45
0.0
 46
0.0
 47
0.0
 48
0.0
 49
2.5
140
2.5
141
2.5
142
0.0
143
0.03937007874
144
1.0
145
0.0
146
1.0
147
0.625
148
0.0
 69
0
 70
0
 71
0
 72
0
 73
0
 74
0
 75
0
 76
0
 77
1
 78
8
 79
3
170
0
171
3
172
1
173
0
174
0
175
0
176
0
177
0
178
0
179
2
271
2
272
2
273
2
274
3
275
0
276
0
277
2
278
44
279
0
280
0
281
0
282
0
283
0
284
8
285
0
286
0
288
0
289
3
290
0
371
-2
372
-2
  0
ENDTAB
  0
TABLE
  2
BLOCK_RECORD
  5
9
330
0
100
AcDbSymbolTable
 70
2
  0
BLOCK_RECORD
  5
17
330
9
100
AcDbSymbolTableRecord
100
AcDbBlockTableRecord
  2
*Model_Space
340
1A
 70
0
280
1
281
0
  0
BLOCK_RECORD
  5
1B
330
9
100
AcDbSymbolTableRecord
100
AcDbBlockTableRecord
  2
*Paper_Space
340
1E
 70
0
280
1
281
0
  0
ENDTAB
  0
ENDSEC
  0
SECTION
  2
BLOCKS
  0
BLOCK
  5
18
330
17
100
AcDbEntity
  8
0
100
AcDbBlockBegin
  2
*Model_Space
 70
0
 10
0.0
 20
0.0
 30
0.0
  3
*Model_Space
  1

  0
ENDBLK
  5
19
330
17
100
AcDbEntity
  8
0
100
AcDbBlockEnd
  0
BLOCK
  5
1C
330
1B
100
AcDbEntity
  8
0
100
AcDbBlockBegin
  2
*Paper_Space
 70
0
 10
0.0
 20
0.0
 30
0.0
  3
*Paper_Space
  1

  0
ENDBLK
  5
1D
330
1B
100
AcDbEntity
  8
0
100
AcDbBlockEnd
  0
ENDSEC
  0
SECTION
  2
ENTITIES
  0
LWPOLYLINE
  5
34
330
17
100
AcDbEntity
  8
ENG_L
100
AcDbPolyline
 90
64
 70
1
 10
185.969083452062
 20
109.83725334431038
 10
183.14065632731584
 20
111.7228714274745
 10
183.14065632731584
 20
120.20815280171315
 10
184.55486988968892
 20
122.09377088487727
 10
185.49767893127097
 20
124.45079348883237
 10
186.44048797285305
 20
125.39360253041454
 10
186.44048797285305
 20
126.33641157199649
 10
181.7264427649427
 20
130.57905225911583
 10
181.25503824415168
 20
139.53573815414543
 10
183.61206084810686
 20
142.8355697996826
 10
183.61206084810686
 20
144.72118788284672
 10
183.14065632731584
 20
145.1925924036378
 10
183.14065632731584
 20
147.0782104868019
 10
182.66925180652476
 20
147.549615007593
 10
182.19784728573373
 20
151.32085117392126
 10
181.7264427649427
 20
151.79225569471222
 10
182.19784728573373
 20
158.39191898578676
 10
181.7264427649427
 20
158.86332350657773
 10
181.7264427649427
 20
161.6917506313239
 10
181.25503824415168
 20
162.163155152115
 10
181.25503824415168
 20
164.99158227686118
 10
180.78363372336065
 20
165.46298679765215
 10
180.78363372336065
 20
168.76281844318942
 10
182.90495406692028
 20
168.9985207035849
 10
183.37635858771134
 20
169.46992522437597
 10
187.14759475403957
 20
169.46992522437597
 10
188.09040379562165
 20
169.94132974516697
 10
188.79751057680818
 20
168.76281844318942
 10
188.79751057680818
 20
167.34860488081637
 10
190.6831286599723
 20
164.0487732352791
 10
190.6831286599723
 20
163.10596419369705
 10
192.56874674313644
 20
159.80613254815978
 10
192.56874674313644
 20
158.86332350657773
 10
193.51155578471852
 20
156.9777054234136
 10
192.80444900353197
 20
156.27059864222704
 10
188.56180831641268
 20
156.27059864222704
 10
187.3832970144351
 20
155.56349186104046
 10
187.3832970144351
 20
155.0920873402495
 10
189.97602187878576
 20
150.1423398719437
 10
193.275853524323
 20
150.61374439273467
 10
193.74725804511402
 20
151.08514891352564
 10
195.63287612827816
 20
151.08514891352564
 10
196.10428064906918
 20
151.55655343431673
 10
198.46130325302434
 20
151.55655343431673
 10
198.9327077738154
 20
152.0279579551078
 10
201.05402811737503
 20
151.79225569471222
 10
201.05402811737503
 20
140.4785471957275
 10
200.34692133618847
 20
140.24284493533202
 10
199.87551681539745
 20
140.71424945612299
 10
197.51849421144226
 20
140.71424945612299
 10
197.04708969065123
 20
141.18565397691407
 10
191.15453318076337
 20
141.89276075810065
 10
189.2689150975992
 20
132.46467034227993
 10
195.86857838867365
 20
127.75062513436963
 10
193.98296030550955
 20
124.92219800962346
 10
194.9257693470916
 20
122.56517540566824
 10
194.9257693470916
 20
121.1509618432952
 10
195.39717386788263
 20
120.67955732250412
 10
195.39717386788263
 20
119.26534376013109
 10
195.86857838867365
 20
118.79393923934
 10
195.86857838867365
 20
117.37972567696697
 10
194.21866256590505
 20
113.37278725024314
 10
187.6189992748306
 20
109.6015510839149
 10
185.969083452062
 20
109.83725334431038
  0
LWPOLYLINE
  5
35
330
17
100
AcDbEntity
  8
ENG_L
100
AcDbPolyline
 90
5
 70
1
 10
179.36942016098754
 20
114.0798940314297
 10
179.36942016098754
 20
114.5512985522208
 10
179.60512242138307
 20
114.78700081261628
 10
179.8408246817786
 20
114.0798940314297
 10
179.36942016098754
 20
114.0798940314297
  0
LWPOLYLINE
  5
36
330
17
100
AcDbEntity
  8
ENG_L
100
AcDbPolyline
 90
19
 70
1
 10
114.78700081261621
 20
201.76113489856164
 10
113.84419177103415
 20
202.7039439401437
 10
113.84419177103415
 20
203.64675298172574
 10
112.42997820866105
 20
206.00377558568096
 10
112.42997820866105
 20
206.946584627263
 10
110.54436012549692
 20
210.71782079359124
 10
110.54436012549692
 20
212.1320343559643
 10
111.95857368787003
 20
213.54624791833743
 10
111.95857368787003
 20
214.48905695991948
 10
114.07989403142966
 20
217.0817818242702
 10
114.78700081261621
 20
215.43186600150156
 10
115.72980985419828
 20
214.48905695991948
 10
115.72980985419828
 20
213.54624791833743
 10
117.6154279373624
 20
209.7750117520092
 10
118.55823697894446
 20
208.83220271042714
 10
119.97245054131757
 20
205.53237106488987
 10
120.91525958289962
 20
204.5895620233078
 10
122.32947314527271
 20
201.76113489856164
 10
114.78700081261621
 20
201.76113489856164
  0
LWPOLYLINE
  5
37
330
17
100
AcDbEntity
  8
ENG_L
100
AcDbPolyline
 90
40
 70
1
 10
102.05907875125835
 20
228.63119258365037
 10
95.69511772057945
 20
234.99515361432933
 10
91.92388155425118
 20
233.1095355311652
 10
90.98107251266912
 20
233.1095355311652
 10
88.62404990871396
 20
231.69532196879206
 10
85.55992052357226
 20
235.2308558747249
 10
85.55992052357226
 20
235.7022603955159
 10
84.14570696119917
 20
236.64506943709807
 10
82.73149339882606
 20
239.47349656184414
 10
84.38140922159468
 20
241.59481690540386
 10
85.55992052357226
 20
242.3019236865904
 10
86.03132504436329
 20
243.71613724896358
 10
95.69511772057945
 20
252.90852540438857
 10
99.4663538869077
 20
254.7941434875527
 10
100.40916292848975
 20
254.7941434875527
 10
101.35197197007182
 20
255.73695252913487
 10
104.65180361560904
 20
256.67976157071683
 10
106.53742169877316
 20
258.09397513308994
 10
107.95163526114627
 20
258.09397513308994
 10
109.36584882351936
 20
259.0367841746721
 10
110.30865786510141
 20
259.0367841746721
 10
110.78006238589244
 20
259.9795932162541
 10
111.25146690668349
 20
259.9795932162541
 10
112.9013827294521
 20
255.50125026873926
 10
110.54436012549692
 20
255.0298457479483
 10
110.54436012549692
 20
246.07315985291868
 10
108.89444430272832
 20
245.3660530717321
 10
103.70899457402697
 20
245.3660530717321
 10
103.23759005323595
 20
244.89464855094113
 10
101.1162697096763
 20
244.65894629054552
 10
102.5304832720494
 20
237.58787847868
 10
103.00188779284042
 20
237.11647395788904
 10
103.00188779284042
 20
235.2308558747249
 10
103.94469683442249
 20
232.87383327076984
 10
103.94469683442249
 20
231.45961970839667
 10
104.41610135521353
 20
230.9882151876057
 10
104.18039909481801
 20
228.866894844046
 10
103.23759005323595
 20
228.866894844046
 10
102.76618553244491
 20
228.39549032325502
 10
102.05907875125835
 20
228.63119258365037
  0
LWPOLYLINE
  5
38
330
17
100
AcDbEntity
  8
ENG_L
100
AcDbPolyline
 90
19
 70
1
 10
80.3744707948709
 20
153.67787377787633
 10
80.3744707948709
 20
155.56349186104046
 10
78.48885271170677
 20
158.39191898578676
 10
78.48885271170677
 20
159.3347280273687
 10
76.60323462854265
 20
160.74894158974183
 10
77.07463914933369
 20
161.6917506313239
 10
76.60323462854265
 20
162.63455967290597
 10
77.07463914933369
 20
163.10596419369705
 10
76.60323462854265
 20
163.57736871448802
 10
76.83893688893816
 20
163.81307097488352
 10
80.61017305526643
 20
161.92745289171938
 10
81.55298209684848
 20
161.92745289171938
 10
83.91000470080365
 20
160.51323932934636
 10
86.2670273047588
 20
160.04183480855528
 10
87.44553860673638
 20
159.3347280273687
 10
86.97413408594534
 20
157.92051446499568
 10
84.14570696119917
 20
155.56349186104046
 10
81.55298209684848
 20
152.0279579551078
 10
80.3744707948709
 20
153.67787377787633
  0
LWPOLYLINE
  5
39
330
17
100
AcDbEntity
  8
ENG_D
100
AcDbPolyline
 90
18
 70
1
 10
204.82526428370326
 20
172.06265008872657
 10
205.53237106488982
 20
172.29835234912215
 10
206.71088236686742
 20
168.29141392239833
 10
208.59650045003153
 20
165.46298679765215
 10
208.59650045003153
 20
163.57736871448802
 10
209.53930949161358
 20
161.22034611053294
 10
208.1250959292405
 20
159.80613254815978
 10
208.59650045003153
 20
159.3347280273687
 10
209.06790497082255
 20
156.03489638183154
 10
207.88939366884497
 20
155.32778960064496
 10
204.35385976291224
 20
155.0920873402495
 10
203.8824552421212
 20
156.03489638183154
 10
205.76807332528531
 20
157.44910994420457
 10
204.82526428370326
 20
159.3347280273687
 10
204.82526428370326
 20
162.63455967290597
 10
203.8824552421212
 20
164.0487732352791
 10
203.41105072133018
 20
168.76281844318942
 10
204.82526428370326
 20
172.06265008872657
  0
LWPOLYLINE
  5
3A
330
17
100
AcDbEntity
  8
ENG_D
100
AcDbPolyline
 90
22
 70
1
 10
197.51849421144226
 20
140.71424945612299
 10
199.87551681539745
 20
140.71424945612299
 10
201.05402811737503
 20
140.00714267493652
 10
200.582623596584
 20
139.53573815414543
 10
200.582623596584
 20
136.70731102939925
 10
200.11121907579297
 20
136.23590650860817
 10
200.11121907579297
 20
133.87888390465307
 10
199.63981455500192
 20
133.40747938386198
 10
199.63981455500192
 20
131.0504567799069
 10
197.98989873223329
 20
128.9291364363472
 10
196.10428064906918
 20
127.51492287397414
 10
189.2689150975992
 20
132.46467034227993
 10
189.74031961839026
 20
136.23590650860817
 10
190.21172413918129
 20
136.70731102939925
 10
190.21172413918129
 20
138.1215245917723
 10
190.6831286599723
 20
138.59292911256338
 10
191.3902354411589
 20
142.12846301849612
 10
191.86163996194992
 20
141.65705849770504
 10
194.21866256590505
 20
141.65705849770504
 10
194.69006708669608
 20
141.18565397691407
 10
197.04708969065123
 20
141.18565397691407
 10
197.51849421144226
 20
140.71424945612299
  0
LWPOLYLINE
  5
3B
330
17
100
AcDbEntity
  8
ENG_D
100
AcDbPolyline
 90
4
 70
1
 10
199.1684100342109
 20
183.3763585877114
 10
199.87551681539745
 20
184.08346536889798
 10
201.05402811737503
 20
182.9049540669203
 10
199.1684100342109
 20
183.3763585877114
  0
LWPOLYLINE
  5
3C
330
17
100
AcDbEntity
  8
ENG_D
100
AcDbPolyline
 90
27
 70
1
 10
188.09040379562165
 20
98.28784258493017
 10
188.56180831641268
 20
97.81643806413909
 10
191.3902354411589
 20
97.81643806413909
 10
191.86163996194992
 20
97.34503354334811
 10
194.69006708669608
 20
97.34503354334811
 10
195.16147160748713
 20
96.87362902255703
 10
198.46130325302434
 20
96.87362902255703
 10
198.9327077738154
 20
96.40222450176606
 10
200.34692133618847
 20
96.40222450176606
 10
200.582623596584
 20
95.22371319978839
 10
200.11121907579297
 20
94.75230867899742
 10
200.11121907579297
 20
91.92388155425124
 10
199.63981455500192
 20
91.45247703346016
 10
199.63981455500192
 20
90.50966799187809
 10
194.69006708669608
 20
87.44553860673643
 10
186.20478571245752
 20
80.84587531566201
 10
185.02627441047994
 20
80.61017305526642
 10
182.19784728573373
 20
82.96719565922162
 10
182.19784728573373
 20
83.4386001800127
 10
183.14065632731584
 20
85.7956227839678
 10
183.14065632731584
 20
87.68124086713192
 10
184.0834653688979
 20
90.03826347108712
 10
184.0834653688979
 20
91.92388155425124
 10
184.55486988968892
 20
92.39528607504222
 10
185.49767893127097
 20
97.10933128295251
 10
186.67619023324855
 20
98.28784258493017
 10
188.09040379562165
 20
98.28784258493017
  0
LWPOLYLINE
  5
3D
330
17
100
AcDbEntity
  8
ENG_D
100
AcDbPolyline
 90
47
 70
1
 10
188.79751057680818
 20
198.93270777381545
 10
189.2689150975992
 20
199.40411229460642
 10
189.2689150975992
 20
201.28973037777052
 10
189.74031961839026
 20
201.76113489856164
 10
190.21172413918129
 20
206.47518010647192
 10
190.6831286599723
 20
206.946584627263
 10
191.15453318076337
 20
212.1320343559643
 10
191.6259377015544
 20
212.60343887675538
 10
191.6259377015544
 20
214.96046148071056
 10
192.09734222234542
 20
215.43186600150156
 10
192.09734222234542
 20
216.3746750430836
 10
193.275853524323
 20
217.55318634506128
 10
193.51155578471852
 20
214.0176524391284
 10
192.56874674313644
 20
213.07484339754646
 10
193.0401512639275
 20
212.1320343559643
 10
192.56874674313644
 20
211.6606298351733
 10
193.0401512639275
 20
211.18922531438233
 10
193.0401512639275
 20
210.24641627280016
 10
193.98296030550955
 20
209.3036072312181
 10
193.51155578471852
 20
207.41798914805398
 10
194.45436482630058
 20
205.53237106488987
 10
194.45436482630058
 20
202.23253941935272
 10
194.9257693470916
 20
201.28973037777052
 10
194.45436482630058
 20
200.81832585697956
 10
194.9257693470916
 20
200.3469213361886
 10
195.39717386788263
 20
196.57568516986035
 10
195.86857838867365
 20
196.10428064906927
 10
195.39717386788263
 20
195.63287612827818
 10
195.86857838867365
 20
195.16147160748721
 10
195.86857838867365
 20
194.21866256590513
 10
196.81138743025573
 20
193.27585352432308
 10
196.33998290946468
 20
190.4474263995769
 10
197.51849421144226
 20
188.79751057680826
 10
198.2256009926288
 20
188.5618083164128
 10
197.28279195104676
 20
188.09040379562168
 10
198.2256009926288
 20
187.6189992748307
 10
198.2256009926288
 20
187.14759475403963
 10
197.28279195104676
 20
186.67619023324855
 10
198.69700551341987
 20
185.7333811916666
 10
197.98989873223329
 20
184.08346536889798
 10
197.04708969065123
 20
183.6120608481069
 10
190.91883092036784
 20
185.96908345206208
 10
189.97602187878576
 20
185.96908345206208
 10
187.3832970144351
 20
188.09040379562168
 10
188.32610605601715
 20
196.10428064906927
 10
188.79751057680818
 20
196.57568516986035
 10
188.79751057680818
 20
198.93270777381545
  0
LWPOLYLINE
  5
3E
330
17
100
AcDbEntity
  8
ENG_D
100
AcDbPolyline
 90
83
 70
1
 10
108.6587420423328
 20
157.92051446499568
 10
111.95857368787003
 20
160.74894158974183
 10
111.95857368787003
 20
162.163155152115
 10
112.42997820866105
 20
162.63455967290597
 10
112.42997820866105
 20
174.41967269268176
 10
112.9013827294521
 20
174.89107721347287
 10
113.37278725024312
 20
177.71950433821902
 10
112.9013827294521
 20
178.19090885901002
 10
112.42997820866105
 20
182.9049540669203
 10
111.95857368787003
 20
183.3763585877114
 10
111.95857368787003
 20
185.7333811916666
 10
111.487169167079
 20
186.20478571245758
 10
113.60848951063863
 20
186.44048797285308
 10
114.07989403142966
 20
186.91189249364416
 10
117.37972567696688
 20
186.91189249364416
 10
118.55823697894446
 20
188.09040379562168
 10
119.97245054131757
 20
190.91883092036787
 10
119.97245054131757
 20
191.86163996194995
 10
121.38666410369066
 20
194.21866256590513
 10
120.4438550621086
 20
196.10428064906927
 10
120.4438550621086
 20
197.04708969065132
 10
118.79393923933999
 20
199.639814555002
 10
114.5512985522207
 20
196.81138743025585
 10
113.13708498984761
 20
196.33998290946474
 10
110.78006238589244
 20
194.45436482630063
 10
110.54436012549692
 20
194.6900670866961
 10
110.54436012549692
 20
197.04708969065132
 10
114.5512985522207
 20
201.9968371589571
 10
115.02270307301174
 20
201.52543263816614
 10
122.32947314527271
 20
201.28973037777052
 10
122.32947314527271
 20
189.50461735799485
 10
125.39360253041443
 20
189.26891509759923
 10
126.572113832392
 20
186.67619023324855
 10
129.63624321753372
 20
182.6692518065248
 10
131.52186130069785
 20
182.6692518065248
 10
131.99326582148888
 20
183.14065632731592
 10
133.64318164425748
 20
182.9049540669203
 10
133.64318164425748
 20
165.46298679765215
 10
136.7073110293992
 20
165.22728453725665
 10
137.41441781058575
 20
164.5201777560701
 10
141.89276075810054
 20
157.2134076838091
 10
142.8355697996826
 20
157.2134076838091
 10
145.19259240363778
 20
158.62762124618223
 10
145.42829466403327
 20
158.39191898578676
 10
145.42829466403327
 20
154.1492782986674
 10
145.19259240363778
 20
153.91357603827194
 10
144.24978336205572
 20
154.856385079854
 10
143.3069743204736
 20
154.856385079854
 10
143.07127206007812
 20
154.1492782986674
 10
143.77837884126464
 20
153.44217151748086
 10
145.19259240363778
 20
153.44217151748086
 10
145.6639969244288
 20
152.4993624758988
 10
148.49242404917499
 20
152.4993624758988
 10
148.72812630957048
 20
159.80613254815978
 10
151.7922556947122
 20
161.45604837092841
 10
154.14927829866738
 20
161.92745289171938
 10
156.74200316301804
 20
158.86332350657773
 10
156.74200316301804
 20
153.67787377787633
 10
158.15621672539112
 20
153.20646925708536
 10
158.15621672539112
 20
146.60680596601094
 10
157.21340768380907
 20
146.13540144521986
 10
156.5063009026225
 20
144.9568901432423
 10
154.6206828194584
 20
144.01408110166025
 10
153.2064692570853
 20
144.01408110166025
 10
152.73506473629428
 20
144.48548562245122
 10
148.02101952838396
 20
145.42829466403327
 10
147.54961500759293
 20
146.37110370561547
 10
140.94995171651848
 20
148.25672178877957
 10
139.30003589374988
 20
146.13540144521986
 10
139.30003589374988
 20
145.1925924036378
 10
135.05739520663056
 20
139.53573815414543
 10
134.35028842544403
 20
138.82863137295885
 10
130.10764773832474
 20
141.65705849770504
 10
129.1648386967427
 20
141.65705849770504
 10
123.97938896804133
 20
145.42829466403327
 10
115.49410759380277
 20
145.42829466403327
 10
114.78700081261621
 20
147.549615007593
 10
113.84419177103415
 20
148.49242404917507
 10
112.9013827294521
 20
150.84944665313017
 10
111.95857368787003
 20
151.79225569471222
 10
111.01576464628798
 20
154.1492782986674
 10
110.0729556047059
 20
155.0920873402495
 10
108.6587420423328
 20
157.92051446499568
  0
LWPOLYLINE
  5
3F
330
17
100
AcDbEntity
  8
ENG_D
100
AcDbPolyline
 90
5
 70
1
 10
133.878883904653
 20
152.4993624758988
 10
136.94301328979472
 20
152.7350647362944
 10
136.7073110293992
 20
158.62762124618223
 10
133.64318164425748
 20
158.39191898578676
 10
133.878883904653
 20
152.4993624758988
  0
LWPOLYLINE
  5
40
330
17
100
AcDbEntity
  8
ENG_D
100
AcDbPolyline
 90
5
 70
1
 10
125.62930479080994
 20
148.96382856996604
 10
125.39360253041443
 20
185.497678931271
 10
122.32947314527271
 20
185.26197667087553
 10
122.56517540566823
 20
148.72812630957054
 10
125.62930479080994
 20
148.96382856996604
  0
LWPOLYLINE
  5
41
330
17
100
AcDbEntity
  8
ENG_D
100
AcDbPolyline
 90
21
 70
1
 10
144.24978336205572
 20
40.30508652763321
 10
146.13540144521983
 20
39.36227748605114
 10
147.54961500759293
 20
39.36227748605114
 10
148.02101952838396
 20
38.89087296526017
 10
153.91357603827186
 20
37.712361663282515
 10
156.27059864222701
 20
32.99831645537221
 10
157.21340768380907
 20
29.69848480983506
 10
154.38498055906288
 20
25.927248643506708
 10
152.9707669966898
 20
23.098821518760527
 10
151.7922556947122
 20
22.391714737574063
 10
141.89276075810054
 20
26.162950903902306
 10
140.94995171651848
 20
26.162950903902306
 10
139.53573815414538
 20
27.105759945484365
 10
138.59292911256333
 20
27.105759945484365
 10
137.41441781058575
 20
28.284271247461913
 10
138.3572268521678
 20
30.641293851417117
 10
138.3572268521678
 20
32.526911934581236
 10
139.30003589374988
 20
34.88393453853633
 10
139.30003589374988
 20
36.29814810090948
 10
142.36416527889156
 20
40.30508652763321
 10
144.24978336205572
 20
40.30508652763321
  0
LWPOLYLINE
  5
42
330
17
100
AcDbEntity
  8
ENG_D
100
AcDbPolyline
 90
5
 70
1
 10
150.1423398719436
 20
230.04540614602354
 10
148.72812630957048
 20
230.04540614602354
 10
148.72812630957048
 20
236.17366491630688
 10
148.963828569966
 20
236.40936717670246
 10
150.1423398719436
 20
230.04540614602354
  0
LWPOLYLINE
  5
43
330
17
100
AcDbEntity
  8
ENG_D
100
AcDbPolyline
 90
58
 70
1
 10
117.6154279373624
 20
209.7750117520092
 10
115.72980985419828
 20
213.54624791833743
 10
115.72980985419828
 20
214.48905695991948
 10
113.84419177103415
 20
217.31748408466567
 10
115.72980985419828
 20
219.67450668862088
 10
115.72980985419828
 20
220.61731573020293
 10
115.25840533340725
 20
221.0887202509939
 10
114.78700081261621
 20
226.74557450048627
 10
114.31559629182519
 20
227.21697902127747
 10
114.31559629182519
 20
230.04540614602354
 10
113.84419177103415
 20
230.5168106668145
 10
113.84419177103415
 20
253.61563218557515
 10
115.49410759380277
 20
254.7941434875527
 10
116.43691663538483
 20
254.7941434875527
 10
121.15096184329515
 20
257.1511660915078
 10
122.32947314527271
 20
256.9154638311124
 10
122.32947314527271
 20
213.54624791833743
 10
125.39360253041443
 20
213.31054565794193
 10
125.62930479080994
 20
258.80108191427655
 10
126.80781609278752
 20
259.0367841746721
 10
130.10764773832474
 20
256.67976157071683
 10
132.4646703422799
 20
254.32273896676173
 10
135.2930974670261
 20
254.7941434875527
 10
137.17871555019025
 20
255.73695252913487
 10
138.59292911256333
 20
255.73695252913487
 10
140.47854719572743
 20
256.67976157071683
 10
142.8355697996826
 20
256.20835704992584
 10
143.54267658086914
 20
255.50125026873926
 10
143.54267658086914
 20
253.61563218557515
 10
143.07127206007812
 20
253.14422766478418
 10
142.5998675392871
 20
241.83051916579922
 10
143.77837884126464
 20
241.59481690540386
 10
147.54961500759293
 20
243.009030467777
 10
148.25672178877946
 20
242.3019236865904
 10
148.72812630957048
 20
236.64506943709807
 10
145.42829466403327
 20
236.17366491630688
 10
145.19259240363778
 20
230.28110840641912
 10
142.36416527889156
 20
230.75251292721012
 10
137.17871555019025
 20
227.92408580246382
 10
136.23590650860814
 20
227.92408580246382
 10
133.40747938386195
 20
226.50987224009089
 10
132.2289680818844
 20
225.33136093811314
 10
130.34334999872027
 20
220.61731573020293
 10
129.40054095713822
 20
220.14591120941196
 10
129.40054095713822
 20
219.2031021678298
 10
127.9863273947651
 20
216.8460795638747
 10
128.4577319155561
 20
212.1320343559643
 10
127.04351835318303
 20
208.36079818963606
 10
126.10070931160097
 20
203.17534846093477
 10
125.62930479080994
 20
203.17534846093477
 10
125.62930479080994
 20
209.7750117520092
 10
122.56517540566823
 20
210.01071401240466
 10
122.32947314527271
 20
202.23253941935272
 10
121.85806862448169
 20
202.23253941935272
 10
120.91525958289962
 20
204.5895620233078
 10
119.97245054131757
 20
205.53237106488987
 10
118.55823697894446
 20
208.83220271042714
 10
117.6154279373624
 20
209.7750117520092
  0
LWPOLYLINE
  5
44
330
17
100
AcDbEntity
  8
ENG_D
100
AcDbPolyline
 90
5
 70
1
 10
136.7073110293992
 20
238.2949852598666
 10
133.64318164425748
 20
238.05928299947098
 10
133.878883904653
 20
234.52374909353836
 10
136.94301328979472
 20
234.75945135393394
 10
136.7073110293992
 20
238.2949852598666
  0
LWPOLYLINE
  5
45
330
17
100
AcDbEntity
  8
ENG_D
100
AcDbPolyline
 90
8
 70
1
 10
137.17871555019025
 20
183.6120608481069
 10
139.30003589374988
 20
180.5479314629652
 10
141.657058497705
 20
175.83388625505492
 10
141.657058497705
 20
174.89107721347287
 10
138.3572268521678
 20
169.2342229639805
 10
137.88582233137677
 20
167.34860488081637
 10
137.17871555019025
 20
166.6414980996298
 10
137.17871555019025
 20
183.6120608481069
  0
LWPOLYLINE
  5
46
330
17
100
AcDbEntity
  8
ENG_D
100
AcDbPolyline
 90
4
 70
1
 10
110.54436012549692
 20
245.60175533212768
 10
110.30865786510141
 20
245.3660530717321
 10
110.30865786510141
 20
245.83745759252307
 10
110.54436012549692
 20
245.60175533212768
  0
LWPOLYLINE
  5
47
330
17
100
AcDbEntity
  8
ENG_K
100
AcDbPolyline
 90
39
 70
1
 10
204.82526428370326
 20
149.9066376115481
 10
204.82526428370326
 20
152.7350647362944
 10
203.8824552421212
 20
154.62068281945852
 10
205.53237106488982
 20
155.32778960064496
 10
207.88939366884497
 20
155.32778960064496
 10
208.83220271042705
 20
155.79919412143605
 10
209.53930949161358
 20
155.0920873402495
 10
210.01071401240463
 20
152.7350647362944
 10
211.4249275747777
 20
149.9066376115481
 10
211.89633209556874
 20
145.6639969244289
 10
212.8391411371508
 20
143.77837884126475
 10
212.8391411371508
 20
141.89276075810065
 10
213.78195017873287
 20
140.00714267493652
 10
213.78195017873287
 20
138.1215245917723
 10
214.72475922031495
 20
136.23590650860817
 10
214.72475922031495
 20
135.29309746702612
 10
206.4751801064719
 20
132.22896808188443
 10
206.23947784607634
 20
142.8355697996826
 10
203.17534846093466
 20
143.0712720600782
 10
202.93964620053913
 20
131.0504567799069
 10
201.28973037777052
 20
130.34334999872033
 10
199.1684100342109
 20
130.57905225911583
 10
199.63981455500192
 20
131.0504567799069
 10
199.63981455500192
 20
133.40747938386198
 10
200.11121907579297
 20
133.87888390465307
 10
200.11121907579297
 20
136.23590650860817
 10
200.582623596584
 20
136.70731102939925
 10
200.582623596584
 20
139.53573815414543
 10
201.05402811737503
 20
140.00714267493652
 10
201.05402811737503
 20
154.1492782986674
 10
201.99683715895708
 20
154.1492782986674
 10
201.99683715895708
 20
151.79225569471222
 10
202.93964620053913
 20
149.43523309075712
 10
202.93964620053913
 20
148.021019528384
 10
204.1181575025167
 20
147.3139127471974
 10
204.82526428370326
 20
148.021019528384
 10
204.35385976291224
 20
148.49242404917507
 10
204.35385976291224
 20
149.43523309075712
 10
204.82526428370326
 20
149.9066376115481
  0
LWPOLYLINE
  5
48
330
17
100
AcDbEntity
  8
ENG_K
100
AcDbPolyline
 90
44
 70
1
 10
194.21866256590505
 20
59.16126735927452
 10
197.51849421144226
 20
55.86143571373725
 10
198.2256009926288
 20
55.625733453341766
 10
198.2256009926288
 20
55.154328932550676
 10
201.52543263816605
 20
51.85449728701352
 10
200.582623596584
 20
45.72623851673008
 10
200.34692133618847
 20
45.49053625633459
 10
197.98989873223329
 20
47.37615433949871
 10
196.10428064906918
 20
47.84755886028969
 10
186.67619023324855
 20
53.97581763057313
 10
184.79057215008444
 20
54.91862667215519
 10
184.55486988968892
 20
54.6829244117597
 10
184.55486988968892
 20
51.85449728701352
 10
185.02627441047994
 20
51.38309276622244
 10
185.02627441047994
 20
49.026070162267345
 10
185.49767893127097
 20
48.554665641476255
 10
185.49767893127097
 20
46.19764303752116
 10
185.969083452062
 20
45.72623851673008
 10
185.969083452062
 20
42.8978113919839
 10
186.44048797285305
 20
42.42640687119281
 10
186.44048797285305
 20
24.984439601924645
 10
184.3191676292934
 20
23.805928299947098
 10
180.54793146296512
 20
25.220141862320244
 10
179.60512242138307
 20
25.220141862320244
 10
178.19090885901
 20
26.162950903902306
 10
177.2480998174279
 20
26.162950903902306
 10
175.83388625505484
 20
27.105759945484365
 10
174.41967269268173
 20
27.105759945484365
 10
171.82694782833104
 20
28.284271247461913
 10
171.82694782833104
 20
37.24095714249154
 10
172.76975686991312
 20
39.12657522565566
 10
171.82694782833104
 20
40.069384267237716
 10
171.82694782833104
 20
47.14045207910323
 10
168.52711618279383
 20
47.611856599894196
 10
168.99852070358486
 20
48.554665641476255
 10
168.99852070358486
 20
53.26871084938656
 10
171.59124556793554
 20
57.74705379690137
 10
176.30529077584586
 20
57.74705379690137
 10
176.7766952966369
 20
57.2756492761104
 10
184.3191676292934
 20
56.80424475531931
 10
186.20478571245752
 20
57.74705379690137
 10
189.50461735799473
 20
58.21845831769246
 10
189.97602187878576
 20
58.68986283848343
 10
194.21866256590505
 20
59.16126735927452
  0
LWPOLYLINE
  5
49
330
17
100
AcDbEntity
  8
ENG_K
100
AcDbPolyline
 90
5
 70
1
 10
183.14065632731584
 20
44.78342947514802
 10
182.90495406692028
 20
50.20458146424489
 10
179.8408246817786
 20
49.968879203849404
 10
180.0765269421741
 20
44.54772721475253
 10
183.14065632731584
 20
44.78342947514802
  0
LWPOLYLINE
  5
4A
330
17
100
AcDbEntity
  8
ENG_K
100
AcDbPolyline
 90
5
 70
1
 10
199.87551681539745
 20
183.14065632731592
 10
201.05402811737503
 20
181.4907405045473
 10
199.63981455500192
 20
181.4907405045473
 10
199.63981455500192
 20
182.9049540669203
 10
199.87551681539745
 20
183.14065632731592
  0
LWPOLYLINE
  5
4B
330
17
100
AcDbEntity
  8
ENG_K
100
AcDbPolyline
 90
11
 70
1
 10
189.97602187878576
 20
185.96908345206208
 10
193.74725804511402
 20
185.02627441048003
 10
197.28279195104676
 20
183.3763585877114
 10
197.28279195104676
 20
181.4907405045473
 10
196.10428064906918
 20
180.7836337233607
 10
190.44742639957678
 20
180.7836337233607
 10
189.97602187878576
 20
180.31222920256963
 10
185.969083452062
 20
180.5479314629652
 10
185.02627441047994
 20
181.96214502533837
 10
188.56180831641268
 20
186.91189249364416
 10
189.97602187878576
 20
185.96908345206208
  0
LWPOLYLINE
  5
4C
330
17
100
AcDbEntity
  8
ENG_K
100
AcDbPolyline
 90
5
 70
1
 10
194.9257693470916
 20
73.53910524340101
 10
194.9257693470916
 20
74.010509764192
 10
195.16147160748713
 20
74.24621202458748
 10
195.39717386788263
 20
73.53910524340101
 10
194.9257693470916
 20
73.53910524340101
  0
LWPOLYLINE
  5
4D
330
17
100
AcDbEntity
  8
ENG_K
100
AcDbPolyline
 90
171
 70
1
 10
160.04183480855528
 20
70.71067811865484
 10
159.80613254815975
 20
141.18565397691407
 10
156.74200316301804
 20
140.94995171651848
 10
156.5063009026225
 20
72.83199846221444
 10
151.08514891352564
 20
75.89612784735611
 10
151.08514891352564
 20
78.25315045131131
 10
151.55655343431667
 20
78.72455497210228
 10
151.55655343431667
 20
84.38140922159465
 10
152.02795795510772
 20
84.85281374238573
 10
151.7922556947122
 20
86.03132504436329
 10
140.24284493533193
 20
86.26702730475877
 10
140.24284493533193
 20
98.05214032453469
 10
138.3572268521678
 20
99.46635388690773
 10
138.3572268521678
 20
102.766185532445
 10
138.82863137295882
 20
103.23759005323596
 10
138.82863137295882
 20
105.12320813640008
 10
139.53573815414538
 20
106.30171943837775
 10
143.3069743204736
 20
106.30171943837775
 10
143.77837884126464
 20
106.77312395916871
 10
154.6206828194584
 20
106.77312395916871
 10
156.27059864222701
 20
107.48023074035528
 10
156.27059864222701
 20
110.78006238589244
 10
155.799194121436
 20
111.25146690668353
 10
155.799194121436
 20
112.66568046905667
 10
153.67787377787633
 20
114.78700081261628
 10
145.6639969244288
 20
114.31559629182519
 10
145.19259240363778
 20
113.84419177103422
 10
140.47854719572743
 20
113.84419177103422
 10
139.30003589374988
 20
115.02270307301177
 10
138.82863137295882
 20
118.32253471854904
 10
138.3572268521678
 20
118.79393923934
 10
138.3572268521678
 20
120.67955732250412
 10
137.41441781058575
 20
123.03657992645934
 10
137.41441781058575
 20
125.39360253041454
 10
136.4716087690037
 20
127.75062513436963
 10
136.4716087690037
 20
129.63624321753375
 10
135.5287997274216
 20
131.99326582148896
 10
136.4716087690037
 20
133.87888390465307
 10
136.00020424821264
 20
134.35028842544406
 10
137.41441781058575
 20
136.23590650860817
 10
137.17871555019025
 20
136.47160876900367
 10
135.05739520663056
 20
134.82169294623515
 10
135.5287997274216
 20
133.87888390465307
 10
134.82169294623506
 20
133.6431816442576
 10
134.58599068583953
 20
135.29309746702612
 10
135.05739520663056
 20
135.7645019878172
 10
134.58599068583953
 20
136.70731102939925
 10
135.5287997274216
 20
137.17871555019025
 10
135.5287997274216
 20
137.65012007098133
 10
135.2930974670261
 20
137.8858223313768
 10
134.82169294623506
 20
137.41441781058583
 10
134.1145861650485
 20
138.59292911256338
 10
139.30003589374988
 20
145.1925924036378
 10
139.30003589374988
 20
146.13540144521986
 10
140.94995171651848
 20
148.25672178877957
 10
147.54961500759293
 20
146.37110370561547
 10
148.02101952838396
 20
145.42829466403327
 10
152.73506473629428
 20
144.48548562245122
 10
153.2064692570853
 20
144.01408110166025
 10
154.6206828194584
 20
144.01408110166025
 10
156.5063009026225
 20
144.9568901432423
 10
157.44910994420457
 20
146.37110370561547
 10
158.15621672539112
 20
146.60680596601094
 10
158.15621672539112
 20
153.20646925708536
 10
160.04183480855528
 20
153.67787377787633
 10
160.27753706895078
 20
169.46992522437597
 10
161.22034611053286
 20
169.46992522437597
 10
161.69175063132388
 20
168.9985207035849
 10
168.99852070358486
 20
168.76281844318942
 10
168.99852070358486
 20
155.0920873402495
 10
170.884138786749
 20
153.20646925708536
 10
170.884138786749
 20
152.7350647362944
 10
168.99852070358486
 20
149.9066376115481
 10
168.0557116620028
 20
147.549615007593
 10
167.11290262042073
 20
146.60680596601094
 10
167.11290262042073
 20
145.6639969244289
 10
166.17009357883867
 20
144.24978336205575
 10
167.58430714121178
 20
140.4785471957275
 10
168.52711618279383
 20
139.53573815414543
 10
168.76281844318936
 20
135.05739520663062
 10
171.82694782833104
 20
135.29309746702612
 10
172.06265008872657
 20
139.77144041454093
 10
173.47686365109965
 20
139.77144041454093
 10
173.94826817189067
 20
139.30003589374996
 10
177.48380207782344
 20
139.53573815414543
 10
175.5981839946593
 20
142.8355697996826
 10
174.65537495307723
 20
143.30697432047367
 10
174.65537495307723
 20
144.24978336205575
 10
175.5981839946593
 20
144.72118788284672
 10
175.5981839946593
 20
146.13540144521986
 10
176.5409930362414
 20
147.549615007593
 10
177.95520659861447
 20
152.7350647362944
 10
179.13371790059205
 20
153.91357603827194
 10
181.7264427649427
 20
153.67787377787633
 10
181.7264427649427
 20
151.79225569471222
 10
182.66925180652476
 20
149.43523309075712
 10
183.14065632731584
 20
145.1925924036378
 10
183.61206084810686
 20
144.72118788284672
 10
183.61206084810686
 20
142.8355697996826
 10
181.25503824415168
 20
139.53573815414543
 10
181.7264427649427
 20
130.57905225911583
 10
186.44048797285305
 20
126.33641157199649
 10
186.44048797285305
 20
125.39360253041454
 10
185.49767893127097
 20
124.45079348883237
 10
183.37635858771134
 20
120.44385506210864
 10
183.14065632731584
 20
126.80781609278758
 10
179.8408246817786
 20
126.80781609278758
 10
179.8408246817786
 20
115.02270307301177
 10
179.13371790059205
 20
113.84419177103422
 10
174.1839704322862
 20
113.13708498984765
 10
172.29835234912207
 20
101.35197197007184
 10
173.24116139070415
 20
100.88056744928076
 10
173.47686365109965
 20
100.1734606680943
 10
175.3624817342638
 20
100.1734606680943
 10
177.71950433821894
 20
99.23065162651224
 10
179.13371790059205
 20
99.23065162651224
 10
179.60512242138307
 20
98.75924710572114
 10
181.01933598375615
 20
98.75924710572114
 10
181.4907405045472
 20
98.28784258493017
 10
182.90495406692028
 20
98.28784258493017
 10
183.37635858771134
 20
97.81643806413909
 10
184.79057215008444
 20
97.81643806413909
 10
185.49767893127097
 20
97.10933128295251
 10
184.55486988968892
 20
92.39528607504222
 10
184.0834653688979
 20
91.92388155425124
 10
183.61206084810686
 20
88.152645387923
 10
179.8408246817786
 20
87.68124086713192
 10
180.0765269421741
 20
86.97413408594534
 10
183.14065632731584
 20
86.73843182554985
 10
182.19784728573373
 20
82.96719565922162
 10
183.84776310850236
 20
81.31727983645298
 10
185.26197667087547
 20
80.37447079487092
 10
186.20478571245752
 20
80.84587531566201
 10
193.74725804511402
 20
86.50272956515437
 10
193.98296030550955
 20
83.91000470080368
 10
194.45436482630058
 20
83.4386001800127
 10
191.6259377015544
 20
82.96719565922162
 10
191.3902354411589
 20
74.71761654537856
 10
189.0332128372037
 20
76.1318301077516
 10
187.14759475403957
 20
76.60323462854268
 10
184.0834653688979
 20
71.18208263944581
 10
183.37635858771134
 20
70.94638037905032
 10
183.14065632731584
 20
75.89612784735611
 10
180.0765269421741
 20
76.1318301077516
 10
179.8408246817786
 20
70.23927359786374
 10
179.13371790059205
 20
69.53216681667718
 10
176.7766952966369
 20
69.0607622958862
 10
176.30529077584586
 20
68.58935777509512
 10
174.41967269268173
 20
68.58935777509512
 10
172.5340546095176
 20
67.64654873351306
 10
173.24116139070415
 20
73.06770072260993
 10
173.71256591149518
 20
73.53910524340101
 10
173.71256591149518
 20
75.42472332656513
 10
174.65537495307723
 20
77.78174593052023
 10
174.65537495307723
 20
80.13876853447543
 10
175.5981839946593
 20
80.61017305526642
 10
175.5981839946593
 20
82.49579113843053
 10
172.06265008872657
 20
82.73149339882613
 10
171.59124556793554
 20
85.08851600278122
 10
168.52711618279383
 20
84.85281374238573
 10
168.52711618279383
 20
82.96719565922162
 10
169.94132974516694
 20
82.49579113843053
 10
169.94132974516694
 20
81.55298209684847
 10
168.52711618279383
 20
79.19595949289338
 10
168.52711618279383
 20
77.78174593052023
 10
165.69868905804762
 20
72.12489168102788
 10
165.69868905804762
 20
71.18208263944581
 10
164.9915822768611
 20
70.47497585825924
 10
161.69175063132388
 20
70.47497585825924
 10
161.22034611053286
 20
70.00357133746826
 10
160.04183480855528
 20
70.71067811865484
  0
LWPOLYLINE
  5
4E
330
17
100
AcDbEntity
  8
ENG_K
100
AcDbPolyline
 90
5
 70
1
 10
145.6639969244288
 20
105.35891039679557
 10
145.6639969244288
 20
103.00188779284048
 10
148.49242404917499
 20
103.00188779284048
 10
148.72812630957048
 20
105.12320813640008
 10
145.6639969244288
 20
105.35891039679557
  0
LWPOLYLINE
  5
4F
330
17
100
AcDbEntity
  8
ENG_K
100
AcDbPolyline
 90
5
 70
1
 10
148.49242404917499
 20
139.77144041454093
 10
145.42829466403327
 20
139.53573815414543
 10
145.6639969244288
 20
126.100709311601
 10
148.72812630957048
 20
126.33641157199649
 10
148.49242404917499
 20
139.77144041454093
  0
LWPOLYLINE
  5
50
330
17
100
AcDbEntity
  8
ENG_K
100
AcDbPolyline
 90
5
 70
1
 10
143.07127206007812
 20
136.70731102939925
 10
144.24978336205572
 20
136.47160876900367
 10
144.95689014324225
 20
137.17871555019025
 10
144.24978336205572
 20
137.8858223313768
 10
143.07127206007812
 20
136.70731102939925
  0
LWPOLYLINE
  5
51
330
17
100
AcDbEntity
  8
ENG_K
100
AcDbPolyline
 90
4
 70
1
 10
144.01408110166017
 20
140.94995171651848
 10
144.48548562245122
 20
140.94995171651848
 10
144.24978336205572
 20
141.18565397691407
 10
144.01408110166017
 20
140.94995171651848
  0
LWPOLYLINE
  5
52
330
17
100
AcDbEntity
  8
ENG_K
100
AcDbPolyline
 90
6
 70
1
 10
140.47854719572743
 20
137.8858223313768
 10
139.7714404145409
 20
137.17871555019025
 10
140.94995171651848
 20
137.41441781058583
 10
141.4213562373095
 20
136.94301328979475
 10
142.12846301849603
 20
137.17871555019025
 10
140.47854719572743
 20
137.8858223313768
  0
LWPOLYLINE
  5
53
330
17
100
AcDbEntity
  8
ENG_K
100
AcDbPolyline
 90
4
 70
1
 10
140.71424945612296
 20
136.23590650860817
 10
140.47854719572743
 20
136.47160876900367
 10
140.24284493533193
 20
136.23590650860817
 10
140.71424945612296
 20
136.23590650860817
  0
LWPOLYLINE
  5
54
330
17
100
AcDbEntity
  8
ENG_K
100
AcDbPolyline
 90
4
 70
1
 10
139.53573815414538
 20
136.0002042482127
 10
139.30003589374988
 20
135.7645019878172
 10
139.7714404145409
 20
135.7645019878172
 10
139.53573815414538
 20
136.0002042482127
  0
LWPOLYLINE
  5
55
330
17
100
AcDbEntity
  8
ENG_K
100
AcDbPolyline
 90
5
 70
1
 10
138.1215245917723
 20
138.35722685216777
 10
138.1215245917723
 20
137.8858223313768
 10
138.59292911256333
 20
137.8858223313768
 10
138.82863137295882
 20
138.1215245917723
 10
138.1215245917723
 20
138.35722685216777
  0
LWPOLYLINE
  5
56
330
17
100
AcDbEntity
  8
ENG_K
100
AcDbPolyline
 90
4
 70
1
 10
138.82863137295882
 20
137.17871555019025
 10
138.59292911256333
 20
137.41441781058583
 10
138.3572268521678
 20
137.17871555019025
 10
138.82863137295882
 20
137.17871555019025
  0
LWPOLYLINE
  5
57
330
17
100
AcDbEntity
  8
ENG_K
100
AcDbPolyline
 90
4
 70
1
 10
138.82863137295882
 20
139.06433363335435
 10
138.59292911256333
 20
139.30003589374996
 10
138.3572268521678
 20
139.06433363335435
 10
138.82863137295882
 20
139.06433363335435
  0
LWPOLYLINE
  5
58
330
17
100
AcDbEntity
  8
ENG_K
100
AcDbPolyline
 90
4
 70
1
 10
137.88582233137677
 20
135.7645019878172
 10
138.3572268521678
 20
135.7645019878172
 10
138.1215245917723
 20
136.0002042482127
 10
137.88582233137677
 20
135.7645019878172
  0
LWPOLYLINE
  5
59
330
17
100
AcDbEntity
  8
ENG_K
100
AcDbPolyline
 90
4
 70
1
 10
137.17871555019025
 20
134.58599068583953
 10
136.94301328979472
 20
134.35028842544406
 10
137.41441781058575
 20
134.35028842544406
 10
137.17871555019025
 20
134.58599068583953
  0
LWPOLYLINE
  5
5A
330
17
100
AcDbEntity
  8
ENG_K
100
AcDbPolyline
 90
5
 70
1
 10
137.17871555019025
 20
137.8858223313768
 10
136.4716087690037
 20
137.17871555019025
 10
136.7073110293992
 20
136.94301328979475
 10
137.41441781058575
 20
137.65012007098133
 10
137.17871555019025
 20
137.8858223313768
  0
LWPOLYLINE
  5
5B
330
17
100
AcDbEntity
  8
ENG_K
100
AcDbPolyline
 90
75
 70
1
 10
145.19259240363778
 20
175.12677947386834
 10
142.8355697996826
 20
175.12677947386834
 10
141.18565397691398
 20
176.3052907758459
 10
139.30003589374988
 20
180.5479314629652
 10
136.94301328979472
 20
183.84776310850248
 10
136.7073110293992
 20
221.3244225113895
 10
133.64318164425748
 20
221.0887202509939
 10
133.64318164425748
 20
183.3763585877114
 10
131.99326582148888
 20
183.14065632731592
 10
131.52186130069785
 20
182.6692518065248
 10
129.63624321753372
 20
182.6692518065248
 10
128.4577319155561
 20
183.84776310850248
 10
125.62930479080994
 20
188.5618083164128
 10
125.62930479080994
 20
202.7039439401437
 10
126.572113832392
 20
205.06096654409887
 10
126.572113832392
 20
206.47518010647192
 10
127.04351835318303
 20
206.946584627263
 10
127.04351835318303
 20
208.36079818963606
 10
127.9863273947651
 20
210.24641627280016
 10
127.9863273947651
 20
211.6606298351733
 10
128.4577319155561
 20
212.1320343559643
 10
127.9863273947651
 20
216.8460795638747
 10
129.40054095713822
 20
219.2031021678298
 10
129.40054095713822
 20
220.14591120941196
 10
130.34334999872027
 20
220.61731573020293
 10
131.28615904030232
 20
222.50293381336706
 10
131.28615904030232
 20
223.445742854949
 10
132.2289680818844
 20
225.33136093811314
 10
133.40747938386195
 20
226.50987224009089
 10
136.23590650860814
 20
227.92408580246382
 10
137.17871555019025
 20
227.92408580246382
 10
142.36416527889156
 20
230.75251292721012
 10
143.77837884126464
 20
230.75251292721012
 10
145.42829466403327
 20
230.04540614602354
 10
145.6639969244288
 20
226.0384677192997
 10
148.72812630957048
 20
226.2741699796953
 10
148.963828569966
 20
229.80970388562793
 10
150.84944665313014
 20
229.80970388562793
 10
151.7922556947122
 20
229.33829936483696
 10
152.26366021550325
 20
228.39549032325502
 10
152.9707669966898
 20
228.1597880628594
 10
155.799194121436
 20
222.50293381336706
 10
155.799194121436
 20
221.56012477178487
 10
157.6848122046001
 20
218.26029312624772
 10
157.6848122046001
 20
217.31748408466567
 10
154.8563850798539
 20
214.48905695991948
 10
154.38498055906288
 20
213.07484339754646
 10
151.08514891352564
 20
210.24641627280016
 10
151.08514891352564
 20
208.36079818963606
 10
152.02795795510772
 20
206.47518010647192
 10
152.02795795510772
 20
205.06096654409887
 10
152.9707669966898
 20
204.5895620233078
 10
152.9707669966898
 20
203.17534846093477
 10
153.91357603827186
 20
201.28973037777052
 10
153.91357603827186
 20
200.3469213361886
 10
154.8563850798539
 20
199.40411229460642
 10
154.8563850798539
 20
198.46130325302448
 10
155.32778960064493
 20
197.98989873223337
 10
155.32778960064493
 20
195.63287612827818
 10
155.799194121436
 20
195.16147160748721
 10
155.799194121436
 20
193.27585352432308
 10
156.27059864222701
 20
192.804449003532
 10
156.27059864222701
 20
189.97602187878582
 10
156.74200316301804
 20
189.50461735799485
 10
156.74200316301804
 20
186.20478571245758
 10
157.6848122046001
 20
185.26197667087553
 10
156.27059864222701
 20
178.19090885901002
 10
155.799194121436
 20
177.71950433821902
 10
155.799194121436
 20
175.83388625505492
 10
155.32778960064493
 20
175.36248173426384
 10
155.32778960064493
 20
174.41967269268176
 10
148.72812630957048
 20
174.89107721347287
 10
148.49242404917499
 20
209.5393094916137
 10
145.42829466403327
 20
209.3036072312181
 10
145.19259240363778
 20
175.12677947386834
  0
LWPOLYLINE
  5
5C
330
17
100
AcDbEntity
  8
ENG_K
100
AcDbPolyline
 90
5
 70
1
 10
148.72812630957048
 20
217.31748408466567
 10
148.49242404917499
 20
222.26723155297145
 10
145.42829466403327
 20
222.03152929257607
 10
145.6639969244288
 20
217.0817818242702
 10
148.72812630957048
 20
217.31748408466567
  0
LWPOLYLINE
  5
5D
330
17
100
AcDbEntity
  8
ENG_K
100
AcDbPolyline
 90
7
 70
1
 10
156.5063009026225
 20
167.58430714121187
 10
156.74200316301804
 20
159.3347280273687
 10
156.27059864222701
 20
159.3347280273687
 10
156.27059864222701
 20
159.80613254815978
 10
154.38498055906288
 20
161.6917506313239
 10
154.38498055906288
 20
162.63455967290597
 10
156.5063009026225
 20
167.58430714121187
  0
LWPOLYLINE
  5
5E
330
17
100
AcDbEntity
  8
ENG_K
100
AcDbPolyline
 90
4
 70
1
 10
135.7645019878171
 20
135.05739520663062
 10
136.00020424821264
 20
134.82169294623515
 10
135.7645019878171
 20
134.58599068583953
 10
135.7645019878171
 20
135.05739520663062
  0
LWPOLYLINE
  5
5F
330
17
100
AcDbEntity
  8
CUT_SLOT
100
AcDbPolyline
 90
5
 70
1
 10
203.14783504059943
 20
0.0
 10
206.7119366557372
 20
0.0
 10
206.7119366557372
 20
141.42135623730957
 10
203.14783504059943
 20
141.42135623730957
 10
203.14783504059943
 20
0.0
  0
LWPOLYLINE
  5
60
330
17
100
AcDbEntity
  8
CUT_SLOT
100
AcDbPolyline
 90
5
 70
1
 10
180.0538242730144
 20
0.0
 10
183.61792588815217
 20
0.0
 10
183.61792588815217
 20
141.42135623730957
 10
180.0538242730144
 20
141.42135623730957
 10
180.0538242730144
 20
0.0
  0
LWPOLYLINE
  5
61
330
17
100
AcDbEntity
  8
CUT_SLOT
100
AcDbPolyline
 90
5
 70
1
 10
156.9598135054294
 20
0.0
 10
160.52391512056715
 20
0.0
 10
160.52391512056715
 20
141.42135623730957
 10
156.9598135054294
 20
141.42135623730957
 10
156.9598135054294
 20
0.0
  0
LWPOLYLINE
  5
62
330
17
100
AcDbEntity
  8
CUT_SLOT
100
AcDbPolyline
 90
5
 70
1
 10
133.86580273784438
 20
0.0
 10
137.42990435298213
 20
0.0
 10
137.42990435298213
 20
141.42135623730957
 10
133.86580273784438
 20
141.42135623730957
 10
133.86580273784438
 20
0.0
  0
LWPOLYLINE
  5
63
330
17
100
AcDbEntity
  8
CUT_SLOT
100
AcDbPolyline
 90
5
 70
1
 10
110.77179197025934
 20
0.0
 10
114.3358935853971
 20
0.0
 10
114.3358935853971
 20
141.42135623730957
 10
110.77179197025934
 20
141.42135623730957
 10
110.77179197025934
 20
0.0
  0
LWPOLYLINE
  5
64
330
17
100
AcDbEntity
  8
CUT_SLOT
100
AcDbPolyline
 90
5
 70
1
 10
87.67778120267428
 20
0.0
 10
91.24188281781204
 20
0.0
 10
91.24188281781204
 20
141.42135623730957
 10
87.67778120267428
 20
141.42135623730957
 10
87.67778120267428
 20
0.0
  0
LWPOLYLINE
  5
65
330
17
100
AcDbEntity
  8
CUT_SLOT
100
AcDbPolyline
 90
5
 70
1
 10
191.60082965680695
 20
0.0
 10
195.1649312719447
 20
0.0
 10
195.1649312719447
 20
141.42135623730957
 10
191.60082965680695
 20
141.42135623730957
 10
191.60082965680695
 20
0.0
  0
LWPOLYLINE
  5
66
330
17
100
AcDbEntity
  8
CUT_SLOT
100
AcDbPolyline
 90
5
 70
1
 10
168.5068188892219
 20
0.0
 10
172.07092050435966
 20
0.0
 10
172.07092050435966
 20
141.42135623730957
 10
168.5068188892219
 20
141.42135623730957
 10
168.5068188892219
 20
0.0
  0
LWPOLYLINE
  5
67
330
17
100
AcDbEntity
  8
CUT_SLOT
100
AcDbPolyline
 90
5
 70
1
 10
145.41280812163689
 20
0.0
 10
148.97690973677464
 20
0.0
 10
148.97690973677464
 20
141.42135623730957
 10
145.41280812163689
 20
141.42135623730957
 10
145.41280812163689
 20
0.0
  0
LWPOLYLINE
  5
68
330
17
100
AcDbEntity
  8
CUT_SLOT
100
AcDbPolyline
 90
5
 70
1
 10
122.31879735405185
 20
0.0
 10
125.88289896918961
 20
0.0
 10
125.88289896918961
 20
141.42135623730957
 10
122.31879735405185
 20
141.42135623730957
 10
122.31879735405185
 20
0.0
  0
LWPOLYLINE
  5
69
330
17
100
AcDbEntity
  8
CUT_SLOT
100
AcDbPolyline
 90
5
 70
1
 10
99.22478658646682
 20
0.0
 10
102.78888820160458
 20
0.0
 10
102.78888820160458
 20
141.42135623730957
 10
99.22478658646682
 20
141.42135623730957
 10
99.22478658646682
 20
0.0
  0
LWPOLYLINE
  5
6A
330
17
100
AcDbEntity
  8
CUT_SLOT
100
AcDbPolyline
 90
5
 70
1
 10
76.13077581888177
 20
0.0
 10
79.69487743401955
 20
0.0
 10
79.69487743401955
 20
141.42135623730957
 10
76.13077581888177
 20
141.42135623730957
 10
76.13077581888177
 20
0.0
  0
LWPOLYLINE
  5
6B
330
17
100
AcDbEntity
  8
CUT_OUTLINE
100
AcDbPolyline
 90
5
 70
1
 10
0.0
 20
0.0
 10
282.842712474619
 20
0.0
 10
282.842712474619
 20
282.84271247461913
 10
0.0
 20
282.84271247461913
 10
0.0
 20
0.0
  0
ENDSEC
  0
SECTION
  2
OBJECTS
  0
DICTIONARY
  5
A
330
0
100
AcDbDictionary
281
1
  3
ACAD_COLOR
350
B
  3
ACAD_GROUP
350
C
  3
ACAD_LAYOUT
350
D
  3
ACAD_MATERIAL
350
E
  3
ACAD_MLEADERSTYLE
350
F
  3
ACAD_MLINESTYLE
350
10
  3
ACAD_PLOTSETTINGS
350
11
  3
ACAD_PLOTSTYLENAME
350
12
  3
ACAD_SCALELIST
350
14
  3
ACAD_TABLESTYLE
350
15
  3
ACAD_VISUALSTYLE
350
16
  3
EZDXF_META
350
2D
  0
DICTIONARY
  5
B
330
A
100
AcDbDictionary
281
1
  0
DICTIONARY
  5
C
330
A
100
AcDbDictionary
281
1
  0
DICTIONARY
  5
D
330
A
100
AcDbDictionary
281
1
  3
Model
350
1A
  3
Layout1
350
1E
  0
DICTIONARY
  5
E
330
A
100
AcDbDictionary
281
1
  3
ByBlock
350
1F
  3
ByLayer
350
20
  3
Global
350
21
  0
DICTIONARY
  5
F
330
A
100
AcDbDictionary
281
1
  3
Standard
350
2C
  0
DICTIONARY
  5
10
330
A
100
AcDbDictionary
281
1
  3
Standard
350
22
  0
DICTIONARY
  5
11
330
A
100
AcDbDictionary
281
1
  0
ACDBDICTIONARYWDFLT
  5
12
330
A
100
AcDbDictionary
281
1
  3
Normal
350
13
100
AcDbDictionaryWithDefault
340
13
  0
ACDBPLACEHOLDER
  5
13
330
12
  0
DICTIONARY
  5
14
330
A
100
AcDbDictionary
281
1
  0
DICTIONARY
  5
15
330
A
100
AcDbDictionary
281
1
  0
DICTIONARY
  5
16
330
A
100
AcDbDictionary
281
1
  0
LAYOUT
  5
1A
330
D
100
AcDbPlotSettings
  1

  4
A3
  6

 40
7.5
 41
20.0
 42
7.5
 43
20.0
 44
420.0
 45
297.0
 46
0.0
 47
0.0
 48
0.0
 49
0.0
140
0.0
141
0.0
142
1.0
143
1.0
 70
1024
 72
1
 73
0
 74
5
  7

 75
16
 76
0
 77
2
 78
300
147
1.0
148
0.0
149
0.0
100
AcDbLayout
  1
Model
 70
1
 71
0
 10
0.0
 20
0.0
 11
420.0
 21
297.0
 12
0.0
 22
0.0
 32
0.0
 14
1e+20
 24
1e+20
 34
1e+20
 15
-1e+20
 25
-1e+20
 35
-1e+20
146
0.0
 13
0.0
 23
0.0
 33
0.0
 16
1.0
 26
0.0
 36
0.0
 17
0.0
 27
1.0
 37
0.0
 76
1
330
17
  0
LAYOUT
  5
1E
330
D
100
AcDbPlotSettings
  1

  4
A3
  6

 40
7.5
 41
20.0
 42
7.5
 43
20.0
 44
420.0
 45
297.0
 46
0.0
 47
0.0
 48
0.0
 49
0.0
140
0.0
141
0.0
142
1.0
143
1.0
 70
0
 72
1
 73
0
 74
5
  7

 75
16
 76
0
 77
2
 78
300
147
1.0
148
0.0
149
0.0
100
AcDbLayout
  1
Layout1
 70
1
 71
1
 10
0.0
 20
0.0
 11
420.0
 21
297.0
 12
0.0
 22
0.0
 32
0.0
 14
1e+20
 24
1e+20
 34
1e+20
 15
-1e+20
 25
-1e+20
 35
-1e+20
146
0.0
 13
0.0
 23
0.0
 33
0.0
 16
1.0
 26
0.0
 36
0.0
 17
0.0
 27
1.0
 37
0.0
 76
1
330
1B
  0
MATERIAL
  5
1F
102
{ACAD_REACTORS
330
E
102
}
330
E
100
AcDbMaterial
  1
ByBlock
  2

 70
0
 40
1.0
 71
1
 41
1.0
 91
-1023410177
 42
1.0
 72
1
  3

 73
1
 74
1
 75
1
 44
0.5
 73
0
 45
1.0
 46
1.0
 77
1
  4

 78
1
 79
1
170
1
 48
1.0
171
1
  6

172
1
173
1
174
1
140
1.0
141
1.0
175
1
  7

176
1
177
1
178
1
143
1.0
179
1
  8

270
1
271
1
272
1
145
1.0
146
1.0
273
1
  9

274
1
275
1
276
1
 42
1.0
 72
1
  3

 73
1
 74
1
 75
1
 94
63
  0
MATERIAL
  5
20
102
{ACAD_REACTORS
330
E
102
}
330
E
100
AcDbMaterial
  1
ByLayer
  2

 70
0
 40
1.0
 71
1
 41
1.0
 91
-1023410177
 42
1.0
 72
1
  3

 73
1
 74
1
 75
1
 44
0.5
 73
0
 45
1.0
 46
1.0
 77
1
  4

 78
1
 79
1
170
1
 48
1.0
171
1
  6

172
1
173
1
174
1
140
1.0
141
1.0
175
1
  7

176
1
177
1
178
1
143
1.0
179
1
  8

270
1
271
1
272
1
145
1.0
146
1.0
273
1
  9

274
1
275
1
276
1
 42
1.0
 72
1
  3

 73
1
 74
1
 75
1
 94
63
  0
MATERIAL
  5
21
102
{ACAD_REACTORS
330
E
102
}
330
E
100
AcDbMaterial
  1
Global
  2

 70
0
 40
1.0
 71
1
 41
1.0
 91
-1023410177
 42
1.0
 72
1
  3

 73
1
 74
1
 75
1
 44
0.5
 73
0
 45
1.0
 46
1.0
 77
1
  4

 78
1
 79
1
170
1
 48
1.0
171
1
  6

172
1
173
1
174
1
140
1.0
141
1.0
175
1
  7

176
1
177
1
178
1
143
1.0
179
1
  8

270
1
271
1
272
1
145
1.0
146
1.0
273
1
  9

274
1
275
1
276
1
 42
1.0
 72
1
  3

 73
1
 74
1
 75
1
 94
63
  0
MLINESTYLE
  5
22
102
{ACAD_REACTORS
330
10
102
}
330
10
100
AcDbMlineStyle
  2
Standard
 70
0
  3

 62
256
 51
90.0
 52
90.0
 71
2
 49
0.5
 62
256
  6
BYLAYER
 49
-0.5
 62
256
  6
BYLAYER
  0
MLEADERSTYLE
  5
2C
102
{ACAD_REACTORS
330
F
102
}
330
F
100
AcDbMLeaderStyle
179
2
170
2
171
1
172
0
 90
2
 40
0.0
 41
0.0
173
1
 91
-1056964608
 92
-2
290
1
 42
2.0
291
1
 43
8.0
  3
Standard
 44
4.0
300

342
29
174
1
175
1
176
0
178
1
 93
-1056964608
 45
4.0
292
0
297
0
 46
4.0
 94
-1056964608
 47
1.0
 49
1.0
140
1.0
294
1
141
0.0
177
0
142
1.0
295
0
296
0
143
3.75
271
0
272
9
273
9
  0
DICTIONARY
  5
2D
330
A
100
AcDbDictionary
280
1
281
1
  3
CREATED_BY_EZDXF
350
2E
  3
WRITTEN_BY_EZDXF
350
6E
  0
DICTIONARYVAR
  5
2E
330
2D
100
DictionaryVariables
280
0
  1
1.4.4 @ 2026-08-03T11:44:36.151717+00:00
  0
DICTIONARYVAR
  5
6E
330
2D
100
DictionaryVariables
280
0
  1
1.4.4 @ 2026-08-03T11:44:36.159291+00:00
  0
ENDSEC
  0
EOF
