<?xml version="1.0" encoding="utf-8" ?>
<svg baseProfile="full" height="1450.0mm" version="1.1" viewBox="0 0 1200.0 1450.0" width="1200.0mm" xmlns="http://www.w3.org/2000/svg" xmlns:ev="http://www.w3.org/2001/xml-events" xmlns:xlink="http://www.w3.org/1999/xlink"><defs /><g fill="none" id="outline" stroke="blue" stroke-width="0.3"><polygon points="0.0,1450.0 1200.0,1450.0 1200.0,0.0 0.0,0.0 0.0,1450.0" /></g><g fill="none" id="slot" stroke="red" stroke-width="0.3"><polygon points="348.45,725.0 351.54999999999995,725.0 351.54999999999995,0.0 348.45,0.0 348.45,725.0" /><polygon points="648.4499999999999,725.0 651.5500000000001,725.0 651.5500000000001,0.0 648.4499999999999,0.0 648.4499999999999,725.0" /><polygon points="948.4499999999999,725.0 951.55,725.0 951.55,0.0 948.4499999999999,0.0 948.4499999999999,725.0" /><polygon points="1148.45,725.0 1151.55,725.0 1151.55,0.0 1148.45,0.0 1148.45,725.0" /></g><g fill="#66bb66" fill-opacity="0.25" id="piece" stroke="green" stroke-width="0.3"><polygon points="649.1536505514064,844.1952987465644 662.0532113208828,802.6300473782512 670.6142857142858,792.2854158195561 670.6142857142858,781.9385295247648 687.715032932418,750.9434251919004 681.4590096250085,748.4236380264161 677.1899021788897,753.582142857143 660.02786310197,753.582142857143 642.8910574221421,763.9356296220388 604.3378045785801,769.1117607908506 600.0,774.3532746566348 584.9000000000001,756.1074413233015 584.9000000000001,745.6915658810473 608.51052253123,696.4135434768516 685.7496895388601,701.5985801509747 696.5071924200731,709.3977697398541 722.2428571428571,761.2265389732389 722.2428571428571,797.5306709583119 702.9228267577935,826.0634936103272 696.5118162939748,828.6457061582541 694.3715204980637,836.4042784184315 677.1663868390729,846.7990466707384 649.1536505514064,844.1952987465644" /><polygon points="659.9529549639675,1141.975 655.6672406782532,1136.7964285714286 642.8199558521975,1136.7964285714286 627.7571428571429,1123.795786403078 627.7571428571429,1077.1068443909846 651.3676950356974,1048.5774271752314 664.2248378928402,1043.3988557466598 677.2202564756409,1027.696058292442 679.3833784880302,1051.2200101771766 687.9571428571429,1066.7599580961933 687.9571428571429,1082.2956723819077 696.5285714285715,1097.8313866676222 696.5285714285715,1108.1841821765736 713.6765031290273,1134.0847040158037 711.5133802469139,1147.1535714285715 698.618473607461,1147.1535714285715 694.3127751948743,1152.3562903437805 672.8342434491217,1141.975 659.9529549639675,1141.975" /><polygon points="610.606770729261,968.4889873714991 612.7645824093369,939.8080737904918 705.1,942.4027706026326 705.1,952.8931556090157 698.6376555415239,960.7018218296743 681.454737770724,971.0831679828659 610.606770729261,968.4889873714991" /><polygon points="524.9,927.0621128750565 524.9,911.3925586766989 531.3821733196324,903.5599325821431 688.2355561607436,906.1562499921843 664.3113689543952,919.2964285714287 651.4756164646041,919.2964285714287 642.9033281898119,929.6546102368026 524.9,927.0621128750565" /><polygon points="561.3360721835336,1343.7358317322703 632.250372127882,1346.3324411999295 630.092499245038,1375.0141682677297 559.1781993006896,1372.4175588000705 561.3360721835336,1343.7358317322703" /><polygon points="507.77657142792634,1180.6540727104357 518.5026047674668,1162.5091996443798 524.9273525294942,1159.9214540180076 550.6142857142858,1108.1908246875246 550.6142857142858,1097.8211301052702 559.1857142857143,1087.4639872481273 559.1857142857143,1071.8967567233394 565.8015618846164,1069.2320403293375 567.95533581587,1092.6543318317208 576.5285714285715,1113.372984562416 576.5285714285715,1139.2497015338417 580.8142857142857,1144.428272962413 580.8142857142857,1154.785415819556 597.9571428571428,1175.4997015338417 597.9571428571428,1185.8568443909844 606.5285714285715,1196.2139872481275 606.5285714285715,1206.5711301052702 615.1,1216.928272962413 615.1,1232.5510161932705 604.3181504143631,1240.3678571428572 574.2386692496818,1240.3678571428572 569.9529549639676,1235.1892857142857 505.6672406782533,1235.1892857142857 501.38152639253894,1230.0107142857141 480.03526792181145,1230.0107142857141 467.0147815017163,1240.4994394574578 469.1902447960586,1222.0986457594788 507.77657142792634,1180.6540727104357" /><polygon points="422.04285714285714,1320.571727037587 422.04285714285714,1310.1425586766989 432.81009782111033,1297.132142857143 441.3815263925389,1297.132142857143 449.9421981071617,1286.7879978686406 467.08505525001885,1281.609426440069 479.9529549639675,1266.0607142857143 497.197914361291,1266.0607142857143 525.1034741837494,1310.155076441073 522.9457311541621,1328.4059862330002 426.3804876951443,1325.8130306216008 422.04285714285714,1320.571727037587" /></g></svg>