  0
SECTION
  2
HEADER
  9
$ACADVER
  1
AC1027
  9
$ACADMAINTVER
 70
105
  9
$DWGCODEPAGE
  3
ANSI_1252
  9
$LASTSAVEDBY
  1
ezdxf
  9
$REQUIREDVERSIONS
160
0
  9
$INSBASE
 10
0.0
 20
0.0
 30
0.0
  9
$EXTMIN
 10
1e+20
 20
1e+20
 30
1e+20
  9
$EXTMAX
 10
-1e+20
 20
-1e+20
 30
-1e+20
  9
$LIMMIN
 10
0.0
 20
0.0
  9
$LIMMAX
 10
420.0
 20
297.0
  9
$ORTHOMODE
 70
0
  9
$REGENMODE
 70
1
  9
$FILLMODE
 70
1
  9
$QTEXTMODE
 70
0
  9
$MIRRTEXT
 70
1
  9
$LTSCALE
 40
1.0
  9
$ATTMODE
 70
1
  9
$TEXTSIZE
 40
2.5
  9
$TRACEWID
 40
1.0
  9
$TEXTSTYLE
  7
Standard
  9
$CLAYER
  8
0
  9
$CELTYPE
  6
ByLayer
  9
$CECOLOR
 62
256
  9
$CELTSCALE
 40
1.0
  9
$DISPSILH
 70
0
  9
$DIMSCALE
 40
1.0
  9
$DIMASZ
 40
2.5
  9
$DIMEXO
 40
0.625
  9
$DIMDLI
 40
3.75
  9
$DIMRND
 40
0.0
  9
$DIMDLE
 40
0.0
  9
$DIMEXE
 40
1.25
  9
$DIMTP
 40
0.0
  9
$DIMTM
 40
0.0
  9
$DIMTXT
 40
2.5
  9
$DIMCEN
 40
2.5
  9
$DIMTSZ
 40
0.0
  9
$DIMTOL
 70
0
  9
$DIMLIM
 70
0
  9
$DIMTIH
 70
0
  9
$DIMTOH
 70
0
  9
$DIMSE1
 70
0
  9
$DIMSE2
 70
0
  9
$DIMTAD
 70
1
  9
$DIMZIN
 70
8
  9
$DIMBLK
  1

  9
$DIMASO
 70
1
  9
$DIMSHO
 70
1
  9
$DIMPOST
  1

  9
$DIMAPOST
  1

  9
$DIMALT
 70
0
  9
$DIMALTD
 70
3
  9
$DIMALTF
 40
0.03937007874
  9
$DIMLFAC
 40
1.0
  9
$DIMTOFL
 70
1
  9
$DIMTVP
 40
0.0
  9
$DIMTIX
 70
0
  9
$DIMSOXD
 70
0
  9
$DIMSAH
 70
0
  9
$DIMBLK1
  1

  9
$DIMBLK2
  1

  9
$DIMSTYLE
  2
ISO-25
  9
$DIMCLRD
 70
0
  9
$DIMCLRE
 70
0
  9
$DIMCLRT
 70
0
  9
$DIMTFAC
 40
1.0
  9
$DIMGAP
 40
0.625
  9
$DIMJUST
 70
0
  9
$DIMSD1
 70
0
  9
$DIMSD2
 70
0
  9
$DIMTOLJ
 70
0
  9
$DIMTZIN
 70
8
  9
$DIMALTZ
 70
0
  9
$DIMALTTZ
 70
0
  9
$DIMUPT
 70
0
  9
$DIMDEC
 70
2
  9
$DIMTDEC
 70
2
  9
$DIMALTU
 70
2
  9
$DIMALTTD
 70
3
  9
$DIMTXSTY
  7
Standard
  9
$DIMAUNIT
 70
0
  9
$DIMADEC
 70
0
  9
$DIMALTRND
 40
0.0
  9
$DIMAZIN
 70
0
  9
$DIMDSEP
 70
44
  9
$DIMATFIT
 70
3
  9
$DIMFRAC
 70
0
  9
$DIMLDRBLK
  1

  9
$DIMLUNIT
 70
2
  9
$DIMLWD
 70
-2
  9
$DIMLWE
 70
-2
  9
$DIMTMOVE
 70
0
  9
$DIMFXL
 40
1.0
  9
$DIMFXLON
 70
0
  9
$DIMJOGANG
 40
0.785398163397
  9
$DIMTFILL
 70
0
  9
$DIMTFILLCLR
 70
0
  9
$DIMARCSYM
 70
0
  9
$DIMLTYPE
  6

  9
$DIMLTEX1
  6

  9
$DIMLTEX2
  6

  9
$DIMTXTDIRECTION
 70
0
  9
$LUNITS
 70
2
  9
$LUPREC
 70
4
  9
$SKETCHINC
 40
1.0
  9
$FILLETRAD
 40
10.0
  9
$AUNITS
 70
0
  9
$AUPREC
 70
2
  9
$MENU
  1
.
  9
$ELEVATION
 40
0.0
  9
$PELEVATION
 40
0.0
  9
$THICKNESS
 40
0.0
  9
$LIMCHECK
 70
0
  9
$CHAMFERA
 40
0.0
  9
$CHAMFERB
 40
0.0
  9
$CHAMFERC
 40
0.0
  9
$CHAMFERD
 40
0.0
  9
$SKPOLY
 70
0
  9
$TDCREATE
 40
2461232.705034722
  9
$TDUCREATE
 40
2458532.153996898
  9
$TDUPDATE
 40
2461232.705034722
  9
$TDUUPDATE
 40
2458532.1544311
  9
$TDINDWG
 40
0.0
  9
$TDUSRTIMER
 40
0.0
  9
$USRTIMER
 70
1
  9
$ANGBASE
 50
0.0
  9
$ANGDIR
 70
0
  9
$PDMODE
 70
0
  9
$PDSIZE
 40
0.0
  9
$PLINEWID
 40
0.0
  9
$SPLFRAME
 70
0
  9
$SPLINETYPE
 70
6
  9
$SPLINESEGS
 70
8
  9
$HANDSEED
  5
44
  9
$SURFTAB1
 70
6
  9
$SURFTAB2
 70
6
  9
$SURFTYPE
 70
6
  9
$SURFU
 70
6
  9
$SURFV
 70
6
  9
$UCSBASE
  2

  9
$UCSNAME
  2

  9
$UCSORG
 10
0.0
 20
0.0
 30
0.0
  9
$UCSXDIR
 10
1.0
 20
0.0
 30
0.0
  9
$UCSYDIR
 10
0.0
 20
1.0
 30
0.0
  9
$UCSORTHOREF
  2

  9
$UCSORTHOVIEW
 70
0
  9
$UCSORGTOP
 10
0.0
 20
0.0
 30
0.0
  9
$UCSORGBOTTOM
 10
0.0
 20
0.0
 30
0.0
  9
$UCSORGLEFT
 10
0.0
 20
0.0
 30
0.0
  9
$UCSORGRIGHT
 10
0.0
 20
0.0
 30
0.0
  9
$UCSORGFRONT
 10
0.0
 20
0.0
 30
0.0
  9
$UCSORGBACK
 10
0.0
 20
0.0
 30
0.0
  9
$PUCSBASE
  2

  9
$PUCSNAME
  2

  9
$PUCSORG
 10
0.0
 20
0.0
 30
0.0
  9
$PUCSXDIR
 10
1.0
 20
0.0
 30
0.0
  9
$PUCSYDIR
 10
0.0
 20
1.0
 30
0.0
  9
$PUCSORTHOREF
  2

  9
$PUCSORTHOVIEW
 70
0
  9
$PUCSORGTOP
 10
0.0
 20
0.0
 30
0.0
  9
$PUCSORGBOTTOM
 10
0.0
 20
0.0
 30
0.0
  9
$PUCSORGLEFT
 10
0.0
 20
0.0
 30
0.0
  9
$PUCSORGRIGHT
 10
0.0
 20
0.0
 30
0.0
  9
$PUCSORGFRONT
 10
0.0
 20
0.0
 30
0.0
  9
$PUCSORGBACK
 10
0.0
 20
0.0
 30
0.0
  9
$USERI1
 70
0
  9
$USERI2
 70
0
  9
$USERI3
 70
0
  9
$USERI4
 70
0
  9
$USERI5
 70
0
  9
$USERR1
 40
0.0
  9
$USERR2
 40
0.0
  9
$USERR3
 40
0.0
  9
$USERR4
 40
0.0
  9
$USERR5
 40
0.0
  9
$WORLDVIEW
 70
1
  9
$SHADEDGE
 70
3
  9
$SHADEDIF
 70
70
  9
$TILEMODE
 70
1
  9
$MAXACTVP
 70
64
  9
$PINSBASE
 10
0.0
 20
0.0
 30
0.0
  9
$PLIMCHECK
 70
0
  9
$PEXTMIN
 10
1e+20
 20
1e+20
 30
1e+20
  9
$PEXTMAX
 10
-1e+20
 20
-1e+20
 30
-1e+20
  9
$PLIMMIN
 10
0.0
 20
0.0
  9
$PLIMMAX
 10
420.0
 20
297.0
  9
$UNITMODE
 70
0
  9
$VISRETAIN
 70
1
  9
$PLINEGEN
 70
0
  9
$PSLTSCALE
 70
1
  9
$TREEDEPTH
 70
3020
  9
$CMLSTYLE
  2
Standard
  9
$CMLJUST
 70
0
  9
$CMLSCALE
 40
20.0
  9
$PROXYGRAPHICS
 70
1
  9
$MEASUREMENT
 70
1
  9
$CELWEIGHT
370
-1
  9
$ENDCAPS
280
0
  9
$JOINSTYLE
280
0
  9
$LWDISPLAY
290
0
  9
$INSUNITS
 70
4
  9
$HYPERLINKBASE
  1

  9
$STYLESHEET
  1

  9
$XEDIT
290
1
  9
$CEPSNTYPE
380
0
  9
$PSTYLEMODE
290
1
  9
$FINGERPRINTGUID
  2
{FC7C22AC-8FA2-4829-B1A4-A5F9E61F0FE6}
  9
$VERSIONGUID
  2
{25A846DD-CB1C-4264-AA0D-F8D29AA7A174}
  9
$EXTNAMES
290
1
  9
$PSVPSCALE
 40
0.0
  9
$OLESTARTUP
290
0
  9
$SORTENTS
280
127
  9
$INDEXCTL
280
0
  9
$HIDETEXT
280
1
  9
$XCLIPFRAME
280
1
  9
$HALOGAP
280
0
  9
$OBSCOLOR
 70
257
  9
$OBSLTYPE
280
0
  9
$INTERSECTIONDISPLAY
280
0
  9
$INTERSECTIONCOLOR
 70
257
  9
$DIMASSOC
280
2
  9
$PROJECTNAME
  1

  9
$CAMERADISPLAY
290
0
  9
$LENSLENGTH
 40
50.0
  9
$CAMERAHEIGHT
 40
0.0
  9
$STEPSPERSEC
 40
24.0
  9
$STEPSIZE
 40
100.0
  9
$3DDWFPREC
 40
2.0
  9
$PSOLWIDTH
 40
0.005
  9
$PSOLHEIGHT
 40
0.08
  9
$LOFTANG1
 40
1.570796326795
  9
$LOFTANG2
 40
1.570796326795
  9
$LOFTMAG1
 40
0.0
  9
$LOFTMAG2
 40
0.0
  9
$LOFTPARAM
 70
7
  9
$LOFTNORMALS
280
1
  9
$LATITUDE
 40
37.795
  9
$LONGITUDE
 40
-122.394
  9
$NORTHDIRECTION
 40
0.0
  9
$TIMEZONE
 70
-8000
  9
$LIGHTGLYPHDISPLAY
280
1
  9
$TILEMODELIGHTSYNCH
280
1
  9
$CMATERIAL
347
20
  9
$SOLIDHIST
280
0
  9
$SHOWHIST
280
1
  9
$DWFFRAME
280
2
  9
$DGNFRAME
280
2
  9
$REALWORLDSCALE
290
1
  9
$INTERFERECOLOR
 62
256
  9
$CSHADOW
280
0
  9
$SHADOWPLANELOCATION
 40
0.0
  0
ENDSEC
  0
SECTION
  2
CLASSES
  0
CLASS
  1
ACDBDICTIONARYWDFLT
  2
AcDbDictionaryWithDefault
  3
ObjectDBX Classes
 90
0
 91
0
280
0
281
0
  0
CLASS
  1
SUN
  2
AcDbSun
  3
SCENEOE
 90
1153
 91
0
280
0
281
0
  0
CLASS
  1
VISUALSTYLE
  2
AcDbVisualStyle
  3
ObjectDBX Classes
 90
4095
 91
0
280
0
281
0
  0
CLASS
  1
MATERIAL
  2
AcDbMaterial
  3
ObjectDBX Classes
 90
1153
 91
0
280
0
281
0
  0
CLASS
  1
SCALE
  2
AcDbScale
  3
ObjectDBX Classes
 90
1153
 91
0
280
0
281
0
  0
CLASS
  1
TABLESTYLE
  2
AcDbTableStyle
  3
ObjectDBX Classes
 90
4095
 91
0
280
0
281
0
  0
CLASS
  1
MLEADERSTYLE
  2
AcDbMLeaderStyle
  3
ACDB_MLEADERSTYLE_CLASS
 90
4095
 91
0
280
0
281
0
  0
CLASS
  1
DICTIONARYVAR
  2
AcDbDictionaryVar
  3
ObjectDBX Classes
 90
0
 91
0
280
0
281
0
  0
CLASS
  1
CELLSTYLEMAP
  2
AcDbCellStyleMap
  3
ObjectDBX Classes
 90
1152
 91
0
280
0
281
0
  0
CLASS
  1
MENTALRAYRENDERSETTINGS
  2
AcDbMentalRayRenderSettings
  3
SCENEOE
 90
1024
 91
0
280
0
281
0
  0
CLASS
  1
ACDBDETAILVIEWSTYLE
  2
AcDbDetailViewStyle
  3
ObjectDBX Classes
 90
1025
 91
0
280
0
281
0
  0
CLASS
  1
ACDBSECTIONVIEWSTYLE
  2
AcDbSectionViewStyle
  3
ObjectDBX Classes
 90
1025
 91
0
280
0
281
0
  0
CLASS
  1
RASTERVARIABLES
  2
AcDbRasterVariables
  3
ISM
 90
0
 91
0
280
0
281
0
  0
CLASS
  1
ACDBPLACEHOLDER
  2
AcDbPlaceHolder
  3
ObjectDBX Classes
 90
0
 91
0
280
0
281
0
  0
CLASS
  1
LAYOUT
  2
AcDbLayout
  3
ObjectDBX Classes
 90
0
 91
0
280
0
281
0
  0
ENDSEC
  0
SECTION
  2
TABLES
  0
TABLE
  2
VPORT
  5
8
330
0
100
AcDbSymbolTable
 70
1
  0
VPORT
  5
23
330
8
100
AcDbSymbolTableRecord
100
AcDbViewportTableRecord
  2
*Active
 70
0
 10
0.0
 20
0.0
 11
1.0
 21
1.0
 12
0.0
 22
0.0
 13
0.0
 23
0.0
 14
0.5
 24
0.5
 15
0.5
 25
0.5
 16
0.0
 26
0.0
 36
1.0
 17
0.0
 27
0.0
 37
0.0
 40
1000.0
 41
1.34
 42
50.0
 43
0.0
 44
0.0
 50
0.0
 51
0.0
 71
0
 72
1000
 73
1
 74
3
 75
0
 76
0
 77
0
 78
0
281
0
 65
0
146
0.0
  0
ENDTAB
  0
TABLE
  2
LTYPE
  5
2
330
0
100
AcDbSymbolTable
 70
3
  0
LTYPE
  5
24
330
2
100
AcDbSymbolTableRecord
100
AcDbLinetypeTableRecord
  2
ByBlock
 70
0
  3

 72
65
 73
0
 40
0.0
  0
LTYPE
  5
25
330
2
100
AcDbSymbolTableRecord
100
AcDbLinetypeTableRecord
  2
ByLayer
 70
0
  3

 72
65
 73
0
 40
0.0
  0
LTYPE
  5
26
330
2
100
AcDbSymbolTableRecord
100
AcDbLinetypeTableRecord
  2
Continuous
 70
0
  3

 72
65
 73
0
 40
0.0
  0
ENDTAB
  0
TABLE
  2
LAYER
  5
1
330
0
100
AcDbSymbolTable
 70
5
  0
LAYER
  5
27
330
1
100
AcDbSymbolTableRecord
100
AcDbLayerTableRecord
  2
0
 70
0
 62
7
  6
Continuous
370
-3
390
13
347
21
  0
LAYER
  5
28
330
1
100
AcDbSymbolTableRecord
100
AcDbLayerTableRecord
  2
Defpoints
 70
0
 62
7
  6
Continuous
290
0
370
-3
390
13
347
21
  0
LAYER
  5
2F
330
1
100
AcDbSymbolTableRecord
100
AcDbLayerTableRecord
  2
OUTLINE
 70
0
 62
5
  6
Continuous
370
-3
390
13
347
21
  0
LAYER
  5
30
330
1
100
AcDbSymbolTableRecord
100
AcDbLayerTableRecord
  2
SLOT
 70
0
 62
1
  6
Continuous
370
-3
390
13
347
21
  0
LAYER
  5
31
330
1
100
AcDbSymbolTableRecord
100
AcDbLayerTableRecord
  2
PIECE
 70
0
 62
3
  6
Continuous
370
-3
390
13
347
21
  0
ENDTAB
  0
TABLE
  2
STYLE
  5
5
330
0
100
AcDbSymbolTable
 70
1
  0
STYLE
  5
29
330
5
100
AcDbSymbolTableRecord
100
AcDbTextStyleTableRecord
  2
Standard
 70
0
 40
0.0
 41
1.0
 50
0.0
 71
0
 42
2.5
  3
txt
  4

  0
ENDTAB
  0
TABLE
  2
VIEW
  5
7
330
0
100
AcDbSymbolTable
 70
0
  0
ENDTAB
  0
TABLE
  2
UCS
  5
6
330
0
100
AcDbSymbolTable
 70
0
  0
ENDTAB
  0
TABLE
  2
APPID
  5
3
330
0
100
AcDbSymbolTable
 70
3
  0
APPID
  5
2A
330
3
100
AcDbSymbolTableRecord
100
AcDbRegAppTableRecord
  2
ACAD
 70
0
  0
APPID
  5
41
330
3
100
AcDbSymbolTableRecord
100
AcDbRegAppTableRecord
  2
HATCHBACKGROUNDCOLOR
 70
0
  0
APPID
  5
42
330
3
100
AcDbSymbolTableRecord
100
AcDbRegAppTableRecord
  2
EZDXF
 70
0
  0
ENDTAB
  0
TABLE
  2
DIMSTYLE
  5
4
330
0
100
AcDbSymbolTable
 70
1
100
AcDbDimStyleTable
  0
DIMSTYLE
105
2B
330
4
100
AcDbSymbolTableRecord
100
AcDbDimStyleTableRecord
  2
Standard
 70
0
 40
1.0
 41
2.5
 42
0.625
 43
3.75
 44
1.25
 45
0.0
 46
0.0
 47
0.0
 48
0.0
 49
2.5
140
2.5
141
2.5
142
0.0
143
0.03937007874
144
1.0
145
0.0
146
1.0
147
0.625
148
0.0
 69
0
 70
0
 71
0
 72
0
 73
0
 74
0
 75
0
 76
0
 77
1
 78
8
 79
3
170
0
171
3
172
1
173
0
174
0
175
0
176
0
177
0
178
0
179
2
271
2
272
2
273
2
274
3
275
0
276
0
277
2
278
44
279
0
280
0
281
0
282
0
283
0
284
8
285
0
286
0
288
0
289
3
290
0
371
-2
372
-2
  0
ENDTAB
  0
TABLE
  2
BLOCK_RECORD
  5
9
330
0
100
AcDbSymbolTable
 70
2
  0
BLOCK_RECORD
  5
17
330
9
100
AcDbSymbolTableRecord
100
AcDbBlockTableRecord
  2
*Model_Space
340
1A
 70
0
280
1
281
0
  0
BLOCK_RECORD
  5
1B
330
9
100
AcDbSymbolTableRecord
100
AcDbBlockTableRecord
  2
*Paper_Space
340
1E
 70
0
280
1
281
0
  0
ENDTAB
  0
ENDSEC
  0
SECTION
  2
BLOCKS
  0
BLOCK
  5
18
330
17
100
AcDbEntity
  8
0
100
AcDbBlockBegin
  2
*Model_Space
 70
0
 10
0.0
 20
0.0
 30
0.0
  3
*Model_Space
  1

  0
ENDBLK
  5
19
330
17
100
AcDbEntity
  8
0
100
AcDbBlockEnd
  0
BLOCK
  5
1C
330
1B
100
AcDbEntity
  8
0
100
AcDbBlockBegin
  2
*Paper_Space
 70
0
 10
0.0
 20
0.0
 30
0.0
  3
*Paper_Space
  1

  0
ENDBLK
  5
1D
330
1B
100
AcDbEntity
  8
0
100
AcDbBlockEnd
  0
ENDSEC
  0
SECTION
  2
ENTITIES
  0
LWPOLYLINE
  5
32
330
17
100
AcDbEntity
  8
OUTLINE
100
AcDbPolyline
 90
5
 70
1
 10
0.0
 20
0.0
 10
600.0
 20
0.0
 10
600.0
 20
1450.0
 10
0.0
 20
1450.0
 10
0.0
 20
0.0
  0
LWPOLYLINE
  5
33
330
17
100
AcDbEntity
  8
PIECE
100
AcDbPolyline
 90
24
 70
1
 10
299.0335525797975
 20
165.70645091597405
 10
292.6
 20
150.1586988481301
 10
292.6
 20
139.80155599098725
 10
284.03679456530574
 20
119.10714285714286
 10
289.3525581121038
 20
106.26071428571426
 10
295.7811295406752
 20
106.26071428571426
 10
299.03679456530574
 20
98.39285714285714
 10
292.60822313673435
 20
82.85714285714285
 10
294.75108027959146
 20
77.67857142857143
 10
291.4954152549609
 20
69.81071428571431
 10
282.92398668353235
 20
69.81071428571431
 10
280.7761021123848
 20
64.61999323877433
 10
250.64295910109448
 20
69.82154768715182
 10
247.40074451176386
 20
77.65689961136759
 10
243.11353561796653
 20
191.62520270481272
 10
246.36172760218196
 20
199.475
 10
257.2097009692467
 20
199.475
 10
259.3525581121038
 20
194.29642857142858
 10
272.2097009692466
 20
194.29642857142858
 10
274.3525581121038
 20
189.11785714285708
 10
282.9041878931754
 20
189.11785714285708
 10
291.47561646460395
 20
178.76071428571424
 10
295.79249408799996
 20
178.76071428571424
 10
299.0335525797975
 20
165.70645091597405
  0
LWPOLYLINE
  5
34
330
17
100
AcDbEntity
  8
PIECE
100
AcDbPolyline
 90
21
 70
1
 10
218.62705648981395
 20
634.4749999999999
 10
222.92021094236694
 20
634.4749999999999
 10
239.02403976374444
 20
600.7464251907815
 10
241.17845350992798
 20
590.3334254175611
 10
231.48906604584886
 20
577.3245255815289
 10
214.35999659221437
 20
572.1501191840769
 10
212.17173801510594
 20
566.8618276227314
 10
207.8100978211103
 20
572.1321428571429
 10
197.20970096924663
 20
572.1321428571429
 10
195.0
 20
566.7920321814636
 10
192.85714285714286
 20
571.970603610035
 10
190.7431665865345
 20
566.8618276227314
 10
186.45745230082022
 20
572.0403990513029
 10
184.35255811210376
 20
566.9535714285714
 10
173.5045847450391
 20
566.9535714285714
 10
171.3766848079171
 20
572.0959962766163
 10
166.01954195077425
 20
569.5067105623306
 10
163.82034829183715
 20
574.8214285714284
 10
175.62442519142377
 20
603.3479477454296
 10
205.71132825360945
 20
655.2836732694406
 10
218.62705648981395
 20
634.4749999999999
  0
LWPOLYLINE
  5
35
330
17
100
AcDbEntity
  8
PIECE
100
AcDbPolyline
 90
28
 70
1
 10
175.6474418878962
 20
220.18928571428572
 10
190.6364557833042
 20
256.4127359615217
 10
201.48045804922577
 20
261.65400372338365
 10
207.93698025833893
 20
246.05074171802696
 10
216.50161877677323
 20
240.87627261313958
 10
230.46875236376064
 20
217.50818372721832
 10
228.32250885102005
 20
212.32142857142853
 10
234.74285714285713
 20
196.8055868661556
 10
234.74285714285713
 20
170.91272972329844
 10
236.88571428571427
 20
165.73415829472697
 10
236.88571428571427
 20
113.94844400901266
 10
239.0285714285714
 20
108.76987258044124
 10
239.0285714285714
 20
82.8372702767016
 10
235.7811295406752
 20
74.98928571428573
 10
225.0668438263895
 20
74.98928571428573
 10
222.92143989040963
 20
69.8045595356678
 10
164.93075704109734
 20
74.99508361785931
 10
162.7902990307534
 20
80.16785714285716
 10
122.07601331646767
 20
80.16785714285716
 10
118.82034829183713
 20
88.03571428571428
 10
120.97142857142858
 20
93.23415829472698
 10
120.97142857142858
 20
103.59130115186981
 10
139.21887045932482
 20
147.6892857142857
 10
141.36172760218196
 20
147.6892857142857
 10
156.36172760218196
 20
183.93928571428572
 10
158.5045847450391
 20
183.93928571428572
 10
173.50458474503907
 20
220.18928571428572
 10
175.6474418878962
 20
220.18928571428572
  0
LWPOLYLINE
  5
36
330
17
100
AcDbEntity
  8
PIECE
100
AcDbPolyline
 90
27
 70
1
 10
159.54285714285714
 20
523.0555868661555
 10
159.54285714285714
 20
538.5858975119604
 10
164.97193980734355
 20
556.9542938601394
 10
173.6377166257446
 20
541.2475733767874
 10
195.0729473760498
 20
536.0673926121304
 10
198.32556928666543
 20
528.2068896614759
 10
190.72881843344905
 20
515.093450688662
 10
186.45745230082022
 20
520.2546847655885
 10
181.17965170816285
 20
507.49999999999994
 10
186.45745230082022
 20
494.74531523441135
 10
190.7431665865345
 20
499.9238866629828
 10
195.07164615130813
 20
489.4633943814466
 10
222.928789008451
 20
484.2848229528751
 10
225.0668438263895
 20
479.11785714285713
 10
231.4954152549609
 20
479.11785714285713
 10
234.75108027959143
 20
471.24999999999994
 10
231.4954152549609
 20
463.38214285714287
 10
218.63827239781804
 20
463.38214285714287
 10
212.14285714285717
 20
447.6848893243207
 10
209.97111912775125
 20
452.93325619416004
 10
205.75911506595997
 20
447.84375128616216
 10
159.5853200658083
 20
450.4387901524498
 10
153.11428571428573
 20
460.8643454965695
 10
153.11428571428573
 20
476.43679137272443
 10
157.4
 20
502.3296485155816
 10
157.4
 20
517.8770154375841
 10
159.54285714285714
 20
523.0555868661555
  0
LWPOLYLINE
  5
37
330
17
100
AcDbEntity
  8
PIECE
100
AcDbPolyline
 90
8
 70
1
 10
177.85714285714286
 20
339.45796781853653
 10
186.51521404531786
 20
318.53429578044677
 10
199.37235690246072
 20
302.9985814947326
 10
204.75108027959146
 20
290.00000000000006
 10
201.48045804922577
 20
282.0959962766162
 10
195.99557486223833
 20
284.74702315032687
 10
174.53376244542736
 20
331.4264651568907
 10
177.85714285714286
 20
339.45796781853653
  0
LWPOLYLINE
  5
38
330
17
100
AcDbEntity
  8
PIECE
100
AcDbPolyline
 90
25
 70
1
 10
115.64744188789624
 20
613.5607142857142
 10
113.5045847450391
 20
618.7392857142858
 10
102.79029903075339
 20
618.7392857142858
 10
100.64744188789624
 20
623.9178571428571
 10
94.2188704593248
 20
623.9178571428571
 10
90.97278816274441
 20
631.7625560262597
 10
82.39889732786764
 20
756.0839731319727
 10
98.56038543880842
 20
805.5560839604636
 10
104.03679456530574
 20
792.3214285714286
 10
95.46536599387716
 20
771.6071428571428
 10
100.79412311548172
 20
758.7293131465984
 10
117.92163330419395
 20
748.3814424075848
 10
145.75893634941784
 20
717.3321428571428
 10
150.05562791838537
 20
717.3321428571428
 10
156.4841993469568
 20
706.9749999999999
 10
160.78112954067518
 20
706.9749999999999
 10
165.08111349402012
 20
696.5833721127497
 10
180.07190985011064
 20
686.2325841525919
 10
196.1793455266615
 20
662.8768024215932
 10
192.94870694700631
 20
649.8645081424265
 10
184.3696015744842
 20
639.498089150629
 10
162.90778274519192
 20
598.0052394139972
 10
128.4971462649285
 20
608.4001191840769
 10
126.36172760218197
 20
613.5607142857142
 10
115.64744188789624
 20
613.5607142857142
  0
LWPOLYLINE
  5
39
330
17
100
AcDbEntity
  8
PIECE
100
AcDbPolyline
 90
14
 70
1
 10
124.37398484048789
 20
132.0061623427525
 10
117.83742489352356
 20
121.47503798375442
 10
67.3988643441813
 20
248.55517014796592
 10
69.54334145151762
 20
284.8325745470719
 10
78.11428571428571
 20
336.61536280129576
 10
78.11428571428571
 20
352.1530935726891
 10
82.4
 20
372.8673792869749
 10
82.4
 20
383.23415829472697
 10
87.85714285714286
 20
396.42225353282225
 10
90.0668438263895
 20
391.0821428571428
 10
137.19848506124248
 20
391.0821428571428
 10
150.08927564239775
 20
370.31364692083713
 10
189.75193613054037
 20
274.46221740782585
 10
124.37398484048789
 20
132.0061623427525
  0
LWPOLYLINE
  5
3A
330
17
100
AcDbEntity
  8
PIECE
100
AcDbPolyline
 90
26
 70
1
 10
82.40474480529873
 20
585.2099106218179
 10
89.93315617361053
 20
603.4035714285714
 10
100.7811295406752
 20
603.4035714285714
 10
102.92398668353235
 20
598.2249999999999
 10
113.63827239781806
 20
598.2249999999999
 10
115.7811295406752
 20
593.0464285714286
 10
126.49541525496092
 20
593.0464285714286
 10
128.63827239781804
 20
587.867857142857
 10
139.35255811210376
 20
587.867857142857
 10
141.4954152549609
 20
582.6892857142857
 10
152.20970096924663
 20
582.6892857142857
 10
155.45714285714286
 20
574.8413011518697
 10
155.45714285714286
 20
559.2754778558822
 10
151.17058642524938
 20
538.557121768397
 10
144.74201499667797
 20
460.8785503398256
 10
140.45714285714286
 20
440.1683349987393
 10
140.45714285714286
 20
424.62298456241587
 10
135.06526083347083
 20
411.5926030052085
 10
88.87103435152261
 20
414.1887901524498
 10
82.40097806160327
 20
424.6127697306532
 10
80.25782557644312
 20
486.7641918002974
 10
78.11428571428571
 20
491.94441313384453
 10
78.11428571428571
 20
528.1944131338444
 10
75.97142857142858
 20
533.3729845624159
 10
75.97142857142858
 20
559.2979424576187
 10
82.40474480529873
 20
585.2099106218179
  0
LWPOLYLINE
  5
3B
330
17
100
AcDbEntity
  8
PIECE
100
AcDbPolyline
 90
5
 70
1
 10
144.5296644540694
 20
398.7379902492042
 10
147.83505662501275
 20
406.72602132898396
 10
153.32747840307348
 20
398.7620097507959
 10
150.0220862321301
 20
390.77397867101604
 10
144.5296644540694
 20
398.7379902492042
  0
LWPOLYLINE
  5
3C
330
17
100
AcDbEntity
  8
PIECE
100
AcDbPolyline
 90
9
 70
1
 10
6.349474353492404
 20
209.80253083947645
 10
62.19510636368249
 20
240.9472102297748
 10
112.60000000000001
 20
108.76842000262305
 10
112.60000000000001
 20
93.19441313384446
 10
109.35114261018049
 20
85.34300777511397
 10
6.360358920085391
 20
90.5283076484
 10
3.1142857142857148
 20
98.3729845624159
 10
3.1142857142857148
 20
201.98415829472697
 10
6.349474353492404
 20
209.80253083947645
  0
LWPOLYLINE
  5
3D
330
17
100
AcDbEntity
  8
PIECE
100
AcDbPolyline
 90
21
 70
1
 10
3.1142857142857148
 20
849.3055868661554
 10
6.374045623430374
 20
857.1833399799218
 10
19.36205041291177
 20
851.9520602730472
 10
21.495415254960903
 20
846.7964285714285
 10
36.4690034702613
 20
846.7964285714285
 10
47.19495171912645
 20
836.4280119308588
 10
64.35999659221439
 20
831.2427379587803
 10
66.49541525496092
 20
826.0821428571428
 10
75.04704503603259
 20
826.0821428571428
 10
83.61847360746117
 20
815.7249999999999
 10
87.92398668353233
 20
815.7249999999999
 10
91.1777612220585
 20
807.8617115318951
 10
77.21610112561416
 20
763.7392857142856
 10
68.63827239781806
 20
763.7392857142856
 10
66.49541525496092
 20
758.5607142857143
 10
40.78112954067519
 20
758.5607142857143
 10
38.63827239781805
 20
753.3821428571428
 10
12.923986683532334
 20
753.3821428571428
 10
10.748340576818874
 20
748.1243314325852
 10
3.1142857142857148
 20
756.0310311116375
 10
3.1142857142857148
 20
849.3055868661554
  0
LWPOLYLINE
  5
3E
330
17
100
AcDbEntity
  8
PIECE
100
AcDbPolyline
 90
28
 70
1
 10
28.820348291837135
 20
590.3571428571428
 10
35.24891972040856
 20
605.8928571428571
 10
29.971119127751216
 20
618.6475419084458
 10
25.71428571428572
 20
613.5038682005081
 10
12.810097821110272
 20
629.0964285714285
 10
6.361727602181955
 20
629.0964285714285
 10
3.1142857142857148
 20
636.9444131338445
 10
3.1142857142857148
 20
719.8413011518697
 10
6.361727602181954
 20
727.6892857142857
 10
10.647441887896239
 20
727.6892857142857
 10
12.790299030753385
 20
732.867857142857
 10
38.504584745039104
 20
732.867857142857
 10
40.64744188789624
 20
738.0464285714286
 10
66.36172760218196
 20
738.0464285714286
 10
68.5045847450391
 20
743.2249999999999
 10
72.92398668353233
 20
743.2249999999999
 10
76.17142857142858
 20
735.3770154375841
 10
76.17142857142858
 20
709.4841582947269
 10
78.31346711659323
 20
704.3075651439123
 10
80.45632425945037
 20
652.521850858198
 10
82.60000000000001
 20
647.3413011518697
 10
82.60000000000001
 20
626.6173792869748
 10
84.74606978644415
 20
616.2447086524949
 10
70.78254456555095
 20
572.11638856339
 10
44.927985768119676
 20
577.3232094323171
 10
42.79029903075338
 20
582.4892857142858
 10
32.07601331646767
 20
582.4892857142858
 10
28.820348291837135
 20
590.3571428571428
  0
LWPOLYLINE
  5
3F
330
17
100
AcDbEntity
  8
PIECE
100
AcDbPolyline
 90
18
 70
1
 10
55.78112954067521
 20
256.23928571428576
 10
47.183289184546965
 20
256.23928571428576
 10
36.46900347026125
 20
245.88214285714287
 10
30.066843826389498
 20
245.88214285714287
 10
27.93142516364298
 20
240.72154775550544
 10
10.788568020785837
 20
235.54297632693397
 10
8.59351480355871
 20
230.2382643853018
 10
3.1142857142857148
 20
238.18314656474763
 10
3.1142857142857148
 20
403.94844400901263
 10
6.364375056536634
 20
411.802826586119
 10
62.21218922465473
 20
406.6118438589542
 10
64.35255811210378
 20
401.4392857142857
 10
72.92398668353233
 20
401.4392857142857
 10
76.1739166533765
 20
393.5852882871623
 10
63.31185803498816
 20
289.974260527923
 10
61.17142857142858
 20
284.8015559909872
 10
61.17142857142858
 20
269.2658417052729
 10
55.78112954067521
 20
256.23928571428576
  0
LWPOLYLINE
  5
40
330
17
100
AcDbEntity
  8
PIECE
100
AcDbPolyline
 90
22
 70
1
 10
9.538704175922902
 20
538.5812648151119
 10
12.790299030753385
 20
546.4392857142857
 10
19.218870459324815
 20
546.4392857142857
 10
21.428571428571427
 20
551.779396389965
 10
23.638272397818046
 20
546.4392857142857
 10
27.79029903075339
 20
546.4392857142857
 10
34.22932294893907
 20
562.0002601832344
 10
64.37075168386428
 20
551.594290739034
 10
69.74285714285715
 20
528.2256319924151
 10
69.74285714285715
 20
491.98415829472697
 10
71.88571428571429
 20
486.80558686615547
 10
71.88571428571429
 20
450.55558686615547
 10
74.02857142857142
 20
445.37701543758413
 10
74.02857142857142
 20
429.80155599098737
 10
70.77725970868802
 20
421.94421933460245
 10
32.072474443231044
 20
427.1406951341313
 10
29.933156173610527
 20
432.3107142857143
 10
6.361727602181955
 20
432.3107142857143
 10
3.1142857142857148
 20
440.1586988481302
 10
3.1142857142857148
 20
507.5198725804412
 10
11.681561318780044
 20
528.224121957969
 10
9.538704175922902
 20
538.5812648151119
  0
ENDSEC
  0
SECTION
  2
OBJECTS
  0
DICTIONARY
  5
A
330
0
100
AcDbDictionary
281
1
  3
ACAD_COLOR
350
B
  3
ACAD_GROUP
350
C
  3
ACAD_LAYOUT
350
D
  3
ACAD_MATERIAL
350
E
  3
ACAD_MLEADERSTYLE
350
F
  3
ACAD_MLINESTYLE
350
10
  3
ACAD_PLOTSETTINGS
350
11
  3
ACAD_PLOTSTYLENAME
350
12
  3
ACAD_SCALELIST
350
14
  3
ACAD_TABLESTYLE
350
15
  3
ACAD_VISUALSTYLE
350
16
  3
EZDXF_META
350
2D
  0
DICTIONARY
  5
B
330
A
100
AcDbDictionary
281
1
  0
DICTIONARY
  5
C
330
A
100
AcDbDictionary
281
1
  0
DICTIONARY
  5
D
330
A
100
AcDbDictionary
281
1
  3
Model
350
1A
  3
Layout1
350
1E
  0
DICTIONARY
  5
E
330
A
100
AcDbDictionary
281
1
  3
ByBlock
350
1F
  3
ByLayer
350
20
  3
Global
350
21
  0
DICTIONARY
  5
F
330
A
100
AcDbDictionary
281
1
  3
Standard
350
2C
  0
DICTIONARY
  5
10
330
A
100
AcDbDictionary
281
1
  3
Standard
350
22
  0
DICTIONARY
  5
11
330
A
100
AcDbDictionary
281
1
  0
ACDBDICTIONARYWDFLT
  5
12
330
A
100
AcDbDictionary
281
1
  3
Normal
350
13
100
AcDbDictionaryWithDefault
340
13
  0
ACDBPLACEHOLDER
  5
13
330
12
  0
DICTIONARY
  5
14
330
A
100
AcDbDictionary
281
1
  0
DICTIONARY
  5
15
330
A
100
AcDbDictionary
281
1
  0
DICTIONARY
  5
16
330
A
100
AcDbDictionary
281
1
  0
LAYOUT
  5
1A
330
D
100
AcDbPlotSettings
  1

  4
A3
  6

 40
7.5
 41
20.0
 42
7.5
 43
20.0
 44
420.0
 45
297.0
 46
0.0
 47
0.0
 48
0.0
 49
0.0
140
0.0
141
0.0
142
1.0
143
1.0
 70
1024
 72
1
 73
0
 74
5
  7

 75
16
 76
0
 77
2
 78
300
147
1.0
148
0.0
149
0.0
100
AcDbLayout
  1
Model
 70
1
 71
0
 10
0.0
 20
0.0
 11
420.0
 21
297.0
 12
0.0
 22
0.0
 32
0.0
 14
1e+20
 24
1e+20
 34
1e+20
 15
-1e+20
 25
-1e+20
 35
-1e+20
146
0.0
 13
0.0
 23
0.0
 33
0.0
 16
1.0
 26
0.0
 36
0.0
 17
0.0
 27
1.0
 37
0.0
 76
1
330
17
  0
LAYOUT
  5
1E
330
D
100
AcDbPlotSettings
  1

  4
A3
  6

 40
7.5
 41
20.0
 42
7.5
 43
20.0
 44
420.0
 45
297.0
 46
0.0
 47
0.0
 48
0.0
 49
0.0
140
0.0
141
0.0
142
1.0
143
1.0
 70
0
 72
1
 73
0
 74
5
  7

 75
16
 76
0
 77
2
 78
300
147
1.0
148
0.0
149
0.0
100
AcDbLayout
  1
Layout1
 70
1
 71
1
 10
0.0
 20
0.0
 11
420.0
 21
297.0
 12
0.0
 22
0.0
 32
0.0
 14
1e+20
 24
1e+20
 34
1e+20
 15
-1e+20
 25
-1e+20
 35
-1e+20
146
0.0
 13
0.0
 23
0.0
 33
0.0
 16
1.0
 26
0.0
 36
0.0
 17
0.0
 27
1.0
 37
0.0
 76
1
330
1B
  0
MATERIAL
  5
1F
102
{ACAD_REACTORS
330
E
102
}
330
E
100
AcDbMaterial
  1
ByBlock
  2

 70
0
 40
1.0
 71
1
 41
1.0
 91
-1023410177
 42
1.0
 72
1
  3

 73
1
 74
1
 75
1
 44
0.5
 73
0
 45
1.0
 46
1.0
 77
1
  4

 78
1
 79
1
170
1
 48
1.0
171
1
  6

172
1
173
1
174
1
140
1.0
141
1.0
175
1
  7

176
1
177
1
178
1
143
1.0
179
1
  8

270
1
271
1
272
1
145
1.0
146
1.0
273
1
  9

274
1
275
1
276
1
 42
1.0
 72
1
  3

 73
1
 74
1
 75
1
 94
63
  0
MATERIAL
  5
20
102
{ACAD_REACTORS
330
E
102
}
330
E
100
AcDbMaterial
  1
ByLayer
  2

 70
0
 40
1.0
 71
1
 41
1.0
 91
-1023410177
 42
1.0
 72
1
  3

 73
1
 74
1
 75
1
 44
0.5
 73
0
 45
1.0
 46
1.0
 77
1
  4

 78
1
 79
1
170
1
 48
1.0
171
1
  6

172
1
173
1
174
1
140
1.0
141
1.0
175
1
  7

176
1
177
1
178
1
143
1.0
179
1
  8

270
1
271
1
272
1
145
1.0
146
1.0
273
1
  9

274
1
275
1
276
1
 42
1.0
 72
1
  3

 73
1
 74
1
 75
1
 94
63
  0
MATERIAL
  5
21
102
{ACAD_REACTORS
330
E
102
}
330
E
100
AcDbMaterial
  1
Global
  2

 70
0
 40
1.0
 71
1
 41
1.0
 91
-1023410177
 42
1.0
 72
1
  3

 73
1
 74
1
 75
1
 44
0.5
 73
0
 45
1.0
 46
1.0
 77
1
  4

 78
1
 79
1
170
1
 48
1.0
171
1
  6

172
1
173
1
174
1
140
1.0
141
1.0
175
1
  7

176
1
177
1
178
1
143
1.0
179
1
  8

270
1
271
1
272
1
145
1.0
146
1.0
273
1
  9

274
1
275
1
276
1
 42
1.0
 72
1
  3

 73
1
 74
1
 75
1
 94
63
  0
MLINESTYLE
  5
22
102
{ACAD_REACTORS
330
10
102
}
330
10
100
AcDbMlineStyle
  2
Standard
 70
0
  3

 62
256
 51
90.0
 52
90.0
 71
2
 49
0.5
 62
256
  6
BYLAYER
 49
-0.5
 62
256
  6
BYLAYER
  0
MLEADERSTYLE
  5
2C
102
{ACAD_REACTORS
330
F
102
}
330
F
100
AcDbMLeaderStyle
179
2
170
2
171
1
172
0
 90
2
 40
0.0
 41
0.0
173
1
 91
-1056964608
 92
-2
290
1
 42
2.0
291
1
 43
8.0
  3
Standard
 44
4.0
300

342
29
174
1
175
1
176
0
178
1
 93
-1056964608
 45
4.0
292
0
297
0
 46
4.0
 94
-1056964608
 47
1.0
 49
1.0
140
1.0
294
1
141
0.0
177
0
142
1.0
295
0
296
0
143
3.75
271
0
272
9
273
9
  0
DICTIONARY
  5
2D
330
A
100
AcDbDictionary
280
1
281
1
  3
CREATED_BY_EZDXF
350
2E
  3
WRITTEN_BY_EZDXF
350
43
  0
DICTIONARYVAR
  5
2E
330
2D
100
DictionaryVariables
280
0
  1
1.4.4 @ 2026-07-10T13:55:15.885253+00:00
  0
DICTIONARYVAR
  5
43
330
2D
100
DictionaryVariables
280
0
  1
1.4.4 @ 2026-07-10T13:55:15.888245+00:00
  0
ENDSEC
  0
EOF
