  0
SECTION
  2
HEADER
  9
$ACADVER
  1
AC1027
  9
$ACADMAINTVER
 70
105
  9
$DWGCODEPAGE
  3
ANSI_1252
  9
$LASTSAVEDBY
  1
ezdxf
  9
$REQUIREDVERSIONS
160
0
  9
$INSBASE
 10
0.0
 20
0.0
 30
0.0
  9
$EXTMIN
 10
1e+20
 20
1e+20
 30
1e+20
  9
$EXTMAX
 10
-1e+20
 20
-1e+20
 30
-1e+20
  9
$LIMMIN
 10
0.0
 20
0.0
  9
$LIMMAX
 10
420.0
 20
297.0
  9
$ORTHOMODE
 70
0
  9
$REGENMODE
 70
1
  9
$FILLMODE
 70
1
  9
$QTEXTMODE
 70
0
  9
$MIRRTEXT
 70
1
  9
$LTSCALE
 40
1.0
  9
$ATTMODE
 70
1
  9
$TEXTSIZE
 40
2.5
  9
$TRACEWID
 40
1.0
  9
$TEXTSTYLE
  7
Standard
  9
$CLAYER
  8
0
  9
$CELTYPE
  6
ByLayer
  9
$CECOLOR
 62
256
  9
$CELTSCALE
 40
1.0
  9
$DISPSILH
 70
0
  9
$DIMSCALE
 40
1.0
  9
$DIMASZ
 40
2.5
  9
$DIMEXO
 40
0.625
  9
$DIMDLI
 40
3.75
  9
$DIMRND
 40
0.0
  9
$DIMDLE
 40
0.0
  9
$DIMEXE
 40
1.25
  9
$DIMTP
 40
0.0
  9
$DIMTM
 40
0.0
  9
$DIMTXT
 40
2.5
  9
$DIMCEN
 40
2.5
  9
$DIMTSZ
 40
0.0
  9
$DIMTOL
 70
0
  9
$DIMLIM
 70
0
  9
$DIMTIH
 70
0
  9
$DIMTOH
 70
0
  9
$DIMSE1
 70
0
  9
$DIMSE2
 70
0
  9
$DIMTAD
 70
1
  9
$DIMZIN
 70
8
  9
$DIMBLK
  1

  9
$DIMASO
 70
1
  9
$DIMSHO
 70
1
  9
$DIMPOST
  1

  9
$DIMAPOST
  1

  9
$DIMALT
 70
0
  9
$DIMALTD
 70
3
  9
$DIMALTF
 40
0.03937007874
  9
$DIMLFAC
 40
1.0
  9
$DIMTOFL
 70
1
  9
$DIMTVP
 40
0.0
  9
$DIMTIX
 70
0
  9
$DIMSOXD
 70
0
  9
$DIMSAH
 70
0
  9
$DIMBLK1
  1

  9
$DIMBLK2
  1

  9
$DIMSTYLE
  2
ISO-25
  9
$DIMCLRD
 70
0
  9
$DIMCLRE
 70
0
  9
$DIMCLRT
 70
0
  9
$DIMTFAC
 40
1.0
  9
$DIMGAP
 40
0.625
  9
$DIMJUST
 70
0
  9
$DIMSD1
 70
0
  9
$DIMSD2
 70
0
  9
$DIMTOLJ
 70
0
  9
$DIMTZIN
 70
8
  9
$DIMALTZ
 70
0
  9
$DIMALTTZ
 70
0
  9
$DIMUPT
 70
0
  9
$DIMDEC
 70
2
  9
$DIMTDEC
 70
2
  9
$DIMALTU
 70
2
  9
$DIMALTTD
 70
3
  9
$DIMTXSTY
  7
Standard
  9
$DIMAUNIT
 70
0
  9
$DIMADEC
 70
0
  9
$DIMALTRND
 40
0.0
  9
$DIMAZIN
 70
0
  9
$DIMDSEP
 70
44
  9
$DIMATFIT
 70
3
  9
$DIMFRAC
 70
0
  9
$DIMLDRBLK
  1

  9
$DIMLUNIT
 70
2
  9
$DIMLWD
 70
-2
  9
$DIMLWE
 70
-2
  9
$DIMTMOVE
 70
0
  9
$DIMFXL
 40
1.0
  9
$DIMFXLON
 70
0
  9
$DIMJOGANG
 40
0.785398163397
  9
$DIMTFILL
 70
0
  9
$DIMTFILLCLR
 70
0
  9
$DIMARCSYM
 70
0
  9
$DIMLTYPE
  6

  9
$DIMLTEX1
  6

  9
$DIMLTEX2
  6

  9
$DIMTXTDIRECTION
 70
0
  9
$LUNITS
 70
2
  9
$LUPREC
 70
4
  9
$SKETCHINC
 40
1.0
  9
$FILLETRAD
 40
10.0
  9
$AUNITS
 70
0
  9
$AUPREC
 70
2
  9
$MENU
  1
.
  9
$ELEVATION
 40
0.0
  9
$PELEVATION
 40
0.0
  9
$THICKNESS
 40
0.0
  9
$LIMCHECK
 70
0
  9
$CHAMFERA
 40
0.0
  9
$CHAMFERB
 40
0.0
  9
$CHAMFERC
 40
0.0
  9
$CHAMFERD
 40
0.0
  9
$SKPOLY
 70
0
  9
$TDCREATE
 40
2461243.982349537
  9
$TDUCREATE
 40
2458532.153996898
  9
$TDUPDATE
 40
2461243.982349537
  9
$TDUUPDATE
 40
2458532.1544311
  9
$TDINDWG
 40
0.0
  9
$TDUSRTIMER
 40
0.0
  9
$USRTIMER
 70
1
  9
$ANGBASE
 50
0.0
  9
$ANGDIR
 70
0
  9
$PDMODE
 70
0
  9
$PDSIZE
 40
0.0
  9
$PLINEWID
 40
0.0
  9
$SPLFRAME
 70
0
  9
$SPLINETYPE
 70
6
  9
$SPLINESEGS
 70
8
  9
$HANDSEED
  5
3C
  9
$SURFTAB1
 70
6
  9
$SURFTAB2
 70
6
  9
$SURFTYPE
 70
6
  9
$SURFU
 70
6
  9
$SURFV
 70
6
  9
$UCSBASE
  2

  9
$UCSNAME
  2

  9
$UCSORG
 10
0.0
 20
0.0
 30
0.0
  9
$UCSXDIR
 10
1.0
 20
0.0
 30
0.0
  9
$UCSYDIR
 10
0.0
 20
1.0
 30
0.0
  9
$UCSORTHOREF
  2

  9
$UCSORTHOVIEW
 70
0
  9
$UCSORGTOP
 10
0.0
 20
0.0
 30
0.0
  9
$UCSORGBOTTOM
 10
0.0
 20
0.0
 30
0.0
  9
$UCSORGLEFT
 10
0.0
 20
0.0
 30
0.0
  9
$UCSORGRIGHT
 10
0.0
 20
0.0
 30
0.0
  9
$UCSORGFRONT
 10
0.0
 20
0.0
 30
0.0
  9
$UCSORGBACK
 10
0.0
 20
0.0
 30
0.0
  9
$PUCSBASE
  2

  9
$PUCSNAME
  2

  9
$PUCSORG
 10
0.0
 20
0.0
 30
0.0
  9
$PUCSXDIR
 10
1.0
 20
0.0
 30
0.0
  9
$PUCSYDIR
 10
0.0
 20
1.0
 30
0.0
  9
$PUCSORTHOREF
  2

  9
$PUCSORTHOVIEW
 70
0
  9
$PUCSORGTOP
 10
0.0
 20
0.0
 30
0.0
  9
$PUCSORGBOTTOM
 10
0.0
 20
0.0
 30
0.0
  9
$PUCSORGLEFT
 10
0.0
 20
0.0
 30
0.0
  9
$PUCSORGRIGHT
 10
0.0
 20
0.0
 30
0.0
  9
$PUCSORGFRONT
 10
0.0
 20
0.0
 30
0.0
  9
$PUCSORGBACK
 10
0.0
 20
0.0
 30
0.0
  9
$USERI1
 70
0
  9
$USERI2
 70
0
  9
$USERI3
 70
0
  9
$USERI4
 70
0
  9
$USERI5
 70
0
  9
$USERR1
 40
0.0
  9
$USERR2
 40
0.0
  9
$USERR3
 40
0.0
  9
$USERR4
 40
0.0
  9
$USERR5
 40
0.0
  9
$WORLDVIEW
 70
1
  9
$SHADEDGE
 70
3
  9
$SHADEDIF
 70
70
  9
$TILEMODE
 70
1
  9
$MAXACTVP
 70
64
  9
$PINSBASE
 10
0.0
 20
0.0
 30
0.0
  9
$PLIMCHECK
 70
0
  9
$PEXTMIN
 10
1e+20
 20
1e+20
 30
1e+20
  9
$PEXTMAX
 10
-1e+20
 20
-1e+20
 30
-1e+20
  9
$PLIMMIN
 10
0.0
 20
0.0
  9
$PLIMMAX
 10
420.0
 20
297.0
  9
$UNITMODE
 70
0
  9
$VISRETAIN
 70
1
  9
$PLINEGEN
 70
0
  9
$PSLTSCALE
 70
1
  9
$TREEDEPTH
 70
3020
  9
$CMLSTYLE
  2
Standard
  9
$CMLJUST
 70
0
  9
$CMLSCALE
 40
20.0
  9
$PROXYGRAPHICS
 70
1
  9
$MEASUREMENT
 70
1
  9
$CELWEIGHT
370
-1
  9
$ENDCAPS
280
0
  9
$JOINSTYLE
280
0
  9
$LWDISPLAY
290
0
  9
$INSUNITS
 70
4
  9
$HYPERLINKBASE
  1

  9
$STYLESHEET
  1

  9
$XEDIT
290
1
  9
$CEPSNTYPE
380
0
  9
$PSTYLEMODE
290
1
  9
$FINGERPRINTGUID
  2
{0B2CEE95-D02E-4E8B-8E29-DF56DDAEAD9C}
  9
$VERSIONGUID
  2
{82602FCA-1F44-44EC-84A2-BB051C1B1796}
  9
$EXTNAMES
290
1
  9
$PSVPSCALE
 40
0.0
  9
$OLESTARTUP
290
0
  9
$SORTENTS
280
127
  9
$INDEXCTL
280
0
  9
$HIDETEXT
280
1
  9
$XCLIPFRAME
280
1
  9
$HALOGAP
280
0
  9
$OBSCOLOR
 70
257
  9
$OBSLTYPE
280
0
  9
$INTERSECTIONDISPLAY
280
0
  9
$INTERSECTIONCOLOR
 70
257
  9
$DIMASSOC
280
2
  9
$PROJECTNAME
  1

  9
$CAMERADISPLAY
290
0
  9
$LENSLENGTH
 40
50.0
  9
$CAMERAHEIGHT
 40
0.0
  9
$STEPSPERSEC
 40
24.0
  9
$STEPSIZE
 40
100.0
  9
$3DDWFPREC
 40
2.0
  9
$PSOLWIDTH
 40
0.005
  9
$PSOLHEIGHT
 40
0.08
  9
$LOFTANG1
 40
1.570796326795
  9
$LOFTANG2
 40
1.570796326795
  9
$LOFTMAG1
 40
0.0
  9
$LOFTMAG2
 40
0.0
  9
$LOFTPARAM
 70
7
  9
$LOFTNORMALS
280
1
  9
$LATITUDE
 40
37.795
  9
$LONGITUDE
 40
-122.394
  9
$NORTHDIRECTION
 40
0.0
  9
$TIMEZONE
 70
-8000
  9
$LIGHTGLYPHDISPLAY
280
1
  9
$TILEMODELIGHTSYNCH
280
1
  9
$CMATERIAL
347
20
  9
$SOLIDHIST
280
0
  9
$SHOWHIST
280
1
  9
$DWFFRAME
280
2
  9
$DGNFRAME
280
2
  9
$REALWORLDSCALE
290
1
  9
$INTERFERECOLOR
 62
256
  9
$CSHADOW
280
0
  9
$SHADOWPLANELOCATION
 40
0.0
  0
ENDSEC
  0
SECTION
  2
CLASSES
  0
CLASS
  1
ACDBDICTIONARYWDFLT
  2
AcDbDictionaryWithDefault
  3
ObjectDBX Classes
 90
0
 91
0
280
0
281
0
  0
CLASS
  1
SUN
  2
AcDbSun
  3
SCENEOE
 90
1153
 91
0
280
0
281
0
  0
CLASS
  1
VISUALSTYLE
  2
AcDbVisualStyle
  3
ObjectDBX Classes
 90
4095
 91
0
280
0
281
0
  0
CLASS
  1
MATERIAL
  2
AcDbMaterial
  3
ObjectDBX Classes
 90
1153
 91
0
280
0
281
0
  0
CLASS
  1
SCALE
  2
AcDbScale
  3
ObjectDBX Classes
 90
1153
 91
0
280
0
281
0
  0
CLASS
  1
TABLESTYLE
  2
AcDbTableStyle
  3
ObjectDBX Classes
 90
4095
 91
0
280
0
281
0
  0
CLASS
  1
MLEADERSTYLE
  2
AcDbMLeaderStyle
  3
ACDB_MLEADERSTYLE_CLASS
 90
4095
 91
0
280
0
281
0
  0
CLASS
  1
DICTIONARYVAR
  2
AcDbDictionaryVar
  3
ObjectDBX Classes
 90
0
 91
0
280
0
281
0
  0
CLASS
  1
CELLSTYLEMAP
  2
AcDbCellStyleMap
  3
ObjectDBX Classes
 90
1152
 91
0
280
0
281
0
  0
CLASS
  1
MENTALRAYRENDERSETTINGS
  2
AcDbMentalRayRenderSettings
  3
SCENEOE
 90
1024
 91
0
280
0
281
0
  0
CLASS
  1
ACDBDETAILVIEWSTYLE
  2
AcDbDetailViewStyle
  3
ObjectDBX Classes
 90
1025
 91
0
280
0
281
0
  0
CLASS
  1
ACDBSECTIONVIEWSTYLE
  2
AcDbSectionViewStyle
  3
ObjectDBX Classes
 90
1025
 91
0
280
0
281
0
  0
CLASS
  1
RASTERVARIABLES
  2
AcDbRasterVariables
  3
ISM
 90
0
 91
0
280
0
281
0
  0
CLASS
  1
LAYOUT
  2
AcDbLayout
  3
ObjectDBX Classes
 90
0
 91
0
280
0
281
0
  0
CLASS
  1
ACDBPLACEHOLDER
  2
AcDbPlaceHolder
  3
ObjectDBX Classes
 90
0
 91
0
280
0
281
0
  0
ENDSEC
  0
SECTION
  2
TABLES
  0
TABLE
  2
VPORT
  5
8
330
0
100
AcDbSymbolTable
 70
1
  0
VPORT
  5
23
330
8
100
AcDbSymbolTableRecord
100
AcDbViewportTableRecord
  2
*Active
 70
0
 10
0.0
 20
0.0
 11
1.0
 21
1.0
 12
0.0
 22
0.0
 13
0.0
 23
0.0
 14
0.5
 24
0.5
 15
0.5
 25
0.5
 16
0.0
 26
0.0
 36
1.0
 17
0.0
 27
0.0
 37
0.0
 40
1000.0
 41
1.34
 42
50.0
 43
0.0
 44
0.0
 50
0.0
 51
0.0
 71
0
 72
1000
 73
1
 74
3
 75
0
 76
0
 77
0
 78
0
281
0
 65
0
146
0.0
  0
ENDTAB
  0
TABLE
  2
LTYPE
  5
2
330
0
100
AcDbSymbolTable
 70
3
  0
LTYPE
  5
24
330
2
100
AcDbSymbolTableRecord
100
AcDbLinetypeTableRecord
  2
ByBlock
 70
0
  3

 72
65
 73
0
 40
0.0
  0
LTYPE
  5
25
330
2
100
AcDbSymbolTableRecord
100
AcDbLinetypeTableRecord
  2
ByLayer
 70
0
  3

 72
65
 73
0
 40
0.0
  0
LTYPE
  5
26
330
2
100
AcDbSymbolTableRecord
100
AcDbLinetypeTableRecord
  2
Continuous
 70
0
  3

 72
65
 73
0
 40
0.0
  0
ENDTAB
  0
TABLE
  2
LAYER
  5
1
330
0
100
AcDbSymbolTable
 70
3
  0
LAYER
  5
27
330
1
100
AcDbSymbolTableRecord
100
AcDbLayerTableRecord
  2
0
 70
0
 62
7
  6
Continuous
370
-3
390
13
347
21
  0
LAYER
  5
28
330
1
100
AcDbSymbolTableRecord
100
AcDbLayerTableRecord
  2
Defpoints
 70
0
 62
7
  6
Continuous
290
0
370
-3
390
13
347
21
  0
LAYER
  5
2F
330
1
100
AcDbSymbolTableRecord
100
AcDbLayerTableRecord
  2
GRAY_L
 70
0
 62
7
  6
Continuous
370
-3
390
13
347
21
  0
ENDTAB
  0
TABLE
  2
STYLE
  5
5
330
0
100
AcDbSymbolTable
 70
1
  0
STYLE
  5
29
330
5
100
AcDbSymbolTableRecord
100
AcDbTextStyleTableRecord
  2
Standard
 70
0
 40
0.0
 41
1.0
 50
0.0
 71
0
 42
2.5
  3
txt
  4

  0
ENDTAB
  0
TABLE
  2
VIEW
  5
7
330
0
100
AcDbSymbolTable
 70
0
  0
ENDTAB
  0
TABLE
  2
UCS
  5
6
330
0
100
AcDbSymbolTable
 70
0
  0
ENDTAB
  0
TABLE
  2
APPID
  5
3
330
0
100
AcDbSymbolTable
 70
3
  0
APPID
  5
2A
330
3
100
AcDbSymbolTableRecord
100
AcDbRegAppTableRecord
  2
ACAD
 70
0
  0
APPID
  5
39
330
3
100
AcDbSymbolTableRecord
100
AcDbRegAppTableRecord
  2
HATCHBACKGROUNDCOLOR
 70
0
  0
APPID
  5
3A
330
3
100
AcDbSymbolTableRecord
100
AcDbRegAppTableRecord
  2
EZDXF
 70
0
  0
ENDTAB
  0
TABLE
  2
DIMSTYLE
  5
4
330
0
100
AcDbSymbolTable
 70
1
100
AcDbDimStyleTable
  0
DIMSTYLE
105
2B
330
4
100
AcDbSymbolTableRecord
100
AcDbDimStyleTableRecord
  2
Standard
 70
0
 40
1.0
 41
2.5
 42
0.625
 43
3.75
 44
1.25
 45
0.0
 46
0.0
 47
0.0
 48
0.0
 49
2.5
140
2.5
141
2.5
142
0.0
143
0.03937007874
144
1.0
145
0.0
146
1.0
147
0.625
148
0.0
 69
0
 70
0
 71
0
 72
0
 73
0
 74
0
 75
0
 76
0
 77
1
 78
8
 79
3
170
0
171
3
172
1
173
0
174
0
175
0
176
0
177
0
178
0
179
2
271
2
272
2
273
2
274
3
275
0
276
0
277
2
278
44
279
0
280
0
281
0
282
0
283
0
284
8
285
0
286
0
288
0
289
3
290
0
371
-2
372
-2
  0
ENDTAB
  0
TABLE
  2
BLOCK_RECORD
  5
9
330
0
100
AcDbSymbolTable
 70
2
  0
BLOCK_RECORD
  5
17
330
9
100
AcDbSymbolTableRecord
100
AcDbBlockTableRecord
  2
*Model_Space
340
1A
 70
0
280
1
281
0
  0
BLOCK_RECORD
  5
1B
330
9
100
AcDbSymbolTableRecord
100
AcDbBlockTableRecord
  2
*Paper_Space
340
1E
 70
0
280
1
281
0
  0
ENDTAB
  0
ENDSEC
  0
SECTION
  2
BLOCKS
  0
BLOCK
  5
18
330
17
100
AcDbEntity
  8
0
100
AcDbBlockBegin
  2
*Model_Space
 70
0
 10
0.0
 20
0.0
 30
0.0
  3
*Model_Space
  1

  0
ENDBLK
  5
19
330
17
100
AcDbEntity
  8
0
100
AcDbBlockEnd
  0
BLOCK
  5
1C
330
1B
100
AcDbEntity
  8
0
100
AcDbBlockBegin
  2
*Paper_Space
 70
0
 10
0.0
 20
0.0
 30
0.0
  3
*Paper_Space
  1

  0
ENDBLK
  5
1D
330
1B
100
AcDbEntity
  8
0
100
AcDbBlockEnd
  0
ENDSEC
  0
SECTION
  2
ENTITIES
  0
LWPOLYLINE
  5
30
330
17
100
AcDbEntity
  8
GRAY_L
100
AcDbPolyline
 90
13
 70
1
 10
263.62145391887486
 20
148.7083425815353
 10
266.63762044452614
 20
152.40224113333068
 10
269.65092326968306
 20
148.71184975496854
 10
270.81738987994356
 20
134.4261354692543
 10
271.9867201906984
 20
132.99405686724975
 10
271.9867201906984
 20
127.27977115296396
 10
273.1822881461455
 20
125.81555931265586
 10
270.16941407214955
 20
122.12569302575626
 10
258.412194264282
 20
126.44541246286967
 10
255.43245123420544
 20
130.09470316678573
 10
260.1330937655736
 20
137.29079814838673
 10
263.62145391887486
 20
145.83518613812984
 10
263.62145391887486
 20
148.7083425815353
  0
LWPOLYLINE
  5
31
330
17
100
AcDbEntity
  8
GRAY_L
100
AcDbPolyline
 90
35
 70
1
 10
168.589876790393
 20
333.59364418101177
 10
163.3053254364712
 20
340.06563318663353
 10
163.3053254364712
 20
355.85119972439236
 10
166.2547798180329
 20
359.4633959264192
 10
170.95917318231741
 20
362.3441307412273
 10
173.28465324366954
 20
362.3441307412273
 10
176.78405307445107
 20
365.20127359837016
 10
181.457372674662
 20
365.20127359837016
 10
190.78910555674605
 20
370.9155593126557
 10
195.45497199778805
 20
370.9155593126557
 10
204.83712748208245
 20
376.6607213024552
 10
207.83105662637047
 20
372.9940568672495
 10
207.83105662637047
 20
370.06563318663376
 10
205.49812340584944
 20
367.20849032949064
 10
205.49812340584944
 20
364.4226282958211
 10
209.53567462327877
 20
359.4778401125355
 10
216.52370681427158
 20
358.05146650381295
 10
220.0145944141218
 20
355.20127359837016
 10
223.50153398198208
 20
355.20127359837016
 10
235.16620008458716
 20
349.4869878840844
 10
238.68987048074226
 20
349.4869878840844
 10
241.65858832392522
 20
345.85119972439236
 10
241.65858832392522
 20
340.06563318663353
 10
237.5279980898463
 20
335.006900137924
 10
225.76870852936332
 20
333.56674017632395
 10
224.64482247514783
 20
334.94316320626683
 10
223.53039876672014
 20
333.57832870935266
 10
211.86573266411506
 20
332.1497572807811
 10
210.6946718344901
 20
330.71555931265596
 10
201.26804158746936
 20
330.71555931265596
 10
200.10157497720888
 20
332.1441307412273
 10
183.86593979849835
 20
332.1441307412273
 10
182.69663729494917
 20
330.71208619470207
 10
172.70906011938254
 20
331.4316028891747
 10
168.589876790393
 20
333.59364418101177
  0
LWPOLYLINE
  5
32
330
17
100
AcDbEntity
  8
GRAY_L
100
AcDbPolyline
 90
12
 70
1
 10
195.43570853616683
 20
100.71555931265597
 10
192.4403948386459
 20
104.3839194099342
 10
203.597970727443
 20
119.4869878840844
 10
207.1882614250623
 20
119.4869878840844
 10
218.32925611871505
 20
108.71511366251829
 10
218.32925611871505
 20
94.35134747234797
 10
214.19198378240372
 20
89.28443085434623
 10
200.68277245615246
 20
90.00376687430133
 10
198.2702223990999
 20
92.95841645551317
 10
201.76962222988143
 20
97.2441307412274
 10
198.93510836694838
 20
100.71555931265597
 10
195.43570853616683
 20
100.71555931265597
  0
LWPOLYLINE
  5
33
330
17
100
AcDbEntity
  8
GRAY_L
100
AcDbPolyline
 90
131
 70
1
 10
57.15686390276492
 20
157.2084903294907
 10
55.99039729250443
 20
158.63706175806226
 10
55.99039729250443
 20
164.4167549276906
 10
60.65626373354643
 20
171.5596120705477
 10
60.65626373354643
 20
187.20849032949093
 10
53.105963189933185
 20
196.45534192288906
 10
42.64523770760157
 20
203.57270216979873
 10
32.2252804646323
 20
203.57270216979873
 10
31.058813854371785
 20
202.1441307412274
 10
28.725880633850785
 20
202.1441307412274
 10
24.060014192808733
 20
196.42984502694162
 10
21.707817510666498
 20
196.42984502694162
 10
12.414611551824912
 20
190.73915127032149
 10
8.394367617010124
 20
185.81555931265592
 10
12.400432590646826
 20
180.9093323259613
 10
22.874809562731524
 20
179.48400261248833
 10
38.03253785637434
 20
172.34413074122733
 10
41.549569631697565
 20
172.34413074122733
 10
46.894715713125926
 20
167.25264235283655
 10
42.192797969378304
 20
161.49420461520515
 10
42.192797969378304
 20
157.27977115296378
 10
43.35926457963882
 20
155.85119972439244
 10
43.35926457963882
 20
144.34160373789783
 10
39.18712375369191
 20
140.69187513046012
 10
29.816713340795886
 20
146.42984502694156
 10
22.81046052006394
 20
146.42984502694156
 10
19.3110606892824
 20
149.28698788408445
 10
16.985580627930318
 20
149.28698788408445
 10
12.281187263645798
 20
152.1677226988928
 10
8.165266271823569
 20
157.2084903294907
 10
8.165266271823569
 20
161.49420461520515
 10
5.832333051302541
 20
164.35134747234804
 10
5.832333051302541
 20
167.20849032949093
 10
4.665866441042055
 20
168.63706175806226
 10
4.665866441042055
 20
175.77991890091937
 10
3.4993998307815133
 20
177.2084903294907
 10
3.4993998307815133
 20
180.13691401010666
 10
5.803231706116019
 20
182.95841645551303
 10
0.0
 20
190.06563318663362
 10
0.0
 20
204.4226282958209
 10
2.3329332205210274
 20
207.2797711529638
 10
2.3329332205210274
 20
215.85119972439247
 10
3.4993998307815133
 20
217.27977115296383
 10
3.4993998307815133
 20
222.9940568672496
 10
4.665866441042055
 20
224.42262829582094
 10
4.665866441042055
 20
234.35134747234787
 10
3.4993998307815133
 20
235.77991890091943
 10
3.4993998307815133
 20
245.77991890091943
 10
2.3329332205210274
 20
247.20849032949076
 10
2.3329332205210274
 20
251.54576183402057
 10
4.6766030066332505
 20
258.7214916513066
 10
9.331732882084054
 20
264.42262829582097
 10
9.331732882084054
 20
267.2695848398202
 10
11.661662559728974
 20
271.5497814679785
 10
10.493968553549394
 20
281.56030380876626
 10
11.664666102605082
 20
282.99405686724964
 10
11.664666102605082
 20
285.8511997243923
 10
13.997599323126108
 20
288.7083425815354
 10
13.997599323126108
 20
291.5654854386781
 10
18.663465764168162
 20
297.2797711529639
 10
18.663465764168162
 20
300.1369140101068
 10
25.662265425731217
 20
308.70834258153525
 10
25.662265425731217
 20
310.1392500320653
 10
40.28555042733761
 20
326.6156535608792
 10
48.448732427129215
 20
329.4720671015795
 10
55.45971530490584
 20
338.05841645551305
 10
58.967607365867146
 20
338.05841645551305
 10
63.62147851404637
 20
342.3331127666168
 10
68.35209822528348
 20
343.78151002451176
 10
70.73794206485029
 20
342.32053878356186
 10
83.00605380891612
 20
327.2957847392263
 10
84.18559593875658
 20
324.4066147095584
 10
84.18559593875658
 20
317.2797711529639
 10
85.35206254901712
 20
315.8511997243926
 10
85.35206254901712
 20
310.1369140101068
 10
86.5185291592776
 20
308.70834258153525
 10
86.5185291592776
 20
302.9227760437766
 10
82.38334470583413
 20
297.858416455513
 10
75.36305486530249
 20
297.858416455513
 10
62.53192215243691
 20
290.7155593126559
 10
56.721079280103005
 20
290.7155593126559
 10
52.72009880690942
 20
285.8155593126558
 10
61.386945721145004
 20
275.2012735983701
 10
64.88017350534103
 20
275.2012735983701
 10
83.49912430036238
 20
256.6741404745457
 10
93.95377626884166
 20
268.0553051085145
 10
113.87510728957918
 20
269.49046100203844
 10
116.84474098295739
 20
265.8535512007919
 10
118.01175258391177
 20
244.414968022283
 10
120.3660149746158
 20
240.09007099076553
 10
116.2108764033889
 20
235.0012735983701
 10
103.37974369052333
 20
235.0012735983701
 10
102.16582839779448
 20
233.51459177769541
 10
100.95191310506569
 20
235.0012735983701
 10
90.5486109776577
 20
235.0012735983701
 10
87.68499576953815
 20
231.49420461520498
 10
87.68499576953815
 20
227.27977115296383
 10
90.01792899005912
 20
224.42262829582094
 10
90.01792899005912
 20
221.4942046152052
 10
88.88056372498521
 20
220.10127359837017
 10
91.18439560031966
 20
217.27977115296383
 10
91.18439560031966
 20
208.70834258153536
 10
95.23374088032105
 20
203.74911021213327
 10
97.52814717759955
 20
202.34413074122736
 10
102.21327708026278
 20
202.34413074122736
 10
103.37974369052333
 20
200.9155593126558
 10
108.04561013156533
 20
200.9155593126558
 10
109.21207674182587
 20
199.48698788408447
 10
113.87794318286787
 20
199.48698788408447
 10
115.04440979312841
 20
198.05841645551314
 10
119.71027623417041
 20
198.05841645551314
 10
126.1783939081349
 20
190.1369140101067
 10
126.1783939081349
 20
188.6370617580623
 10
125.00836370244778
 20
187.20412599487167
 10
123.84189709218724
 20
175.77555456630012
 10
122.6789940773534
 20
174.35134747234804
 10
122.6789940773534
 20
168.64363182371667
 10
118.55131520171209
 20
162.14413074122734
 10
116.2108764033889
 20
162.14413074122734
 10
115.04440979312841
 20
160.71555931265578
 10
105.61777954610768
 20
160.71555931265578
 10
104.4513129358472
 20
162.14413074122734
 10
96.382764200644
 20
162.14413074122734
 10
77.71929843647591
 20
137.85841645551312
 10
74.21807843401062
 20
137.85841645551312
 10
73.04877593046139
 20
136.42637190898787
 10
63.03900756624042
 20
137.1474872825421
 10
60.65982732897307
 20
140.06126885201454
 10
59.49336071871259
 20
151.48984028058587
 10
57.15686390276492
 20
154.351347472348
 10
57.15686390276492
 20
157.2084903294907
  0
LWPOLYLINE
  5
34
330
17
100
AcDbEntity
  8
GRAY_L
100
AcDbPolyline
 90
6
 70
1
 10
77.71747826479213
 20
222.1441307412274
 10
74.88991435937814
 20
218.68121378140793
 10
80.00296280284486
 20
213.81080867318414
 10
85.11601124631152
 20
218.68121378140793
 10
82.28844734089752
 20
222.1441307412274
 10
77.71747826479213
 20
222.1441307412274
  0
LWPOLYLINE
  5
35
330
17
100
AcDbEntity
  8
GRAY_L
100
AcDbPolyline
 90
22
 70
1
 10
45.00896449502959
 20
259.5450982761879
 10
47.80517690289743
 20
262.96961906311776
 10
45.4722436823764
 20
267.255333348832
 10
48.5083643258111
 20
270.97366970475923
 10
53.17423076685316
 20
265.2593839904737
 10
57.15686390276492
 20
270.13691401010675
 10
57.15686390276492
 20
271.4901575671339
 10
48.46518755083417
 20
280.7155593126559
 10
44.961515812561274
 20
280.7155593126559
 10
43.842497884769074
 20
282.0860203491239
 10
42.73232497294255
 20
280.72639180197257
 10
36.80616909091669
 20
279.274839412928
 10
35.67723161294553
 20
280.65744892055255
 10
31.694598477033736
 20
275.7799189009195
 10
31.694598477033736
 20
272.99405686724964
 10
34.027531697554736
 20
270.13691401010675
 10
34.027531697554736
 20
267.27977115296386
 10
35.223099653001796
 20
265.81555931265575
 10
34.06358300026033
 20
264.3954994956935
 10
39.181724096961716
 20
259.5202434097014
 10
42.69024513198316
 20
262.38483342487183
 10
45.00896449502959
 20
259.5450982761879
  0
LWPOLYLINE
  5
36
330
17
100
AcDbEntity
  8
GRAY_L
100
AcDbPolyline
 90
14
 70
1
 10
41.47676033857942
 20
130.912730804272
 10
46.147245884443024
 20
133.77270216979863
 10
47.38934639801892
 20
133.77270216979863
 10
51.553632196648906
 20
128.67270216979875
 10
47.40860985964018
 20
123.59629412746432
 10
40.40981019807713
 20
119.31057984174987
 10
35.72468029541384
 20
113.57270216979887
 10
33.39174707489281
 20
113.57270216979887
 10
29.834036377132776
 20
109.21557457674436
 10
22.162865594949675
 20
121.50118865092485
 10
22.162865594949675
 20
124.42262829582107
 10
25.112319976511365
 20
128.03482449784764
 10
27.479161015453307
 20
129.48415937570047
 10
41.47676033857942
 20
130.912730804272
  0
LWPOLYLINE
  5
37
330
17
100
AcDbEntity
  8
GRAY_L
100
AcDbPolyline
 90
11
 70
1
 10
1408.7352873692028
 20
4.294422180956103
 10
1406.2678239522281
 20
7.198085211910676
 10
1401.3960934850934
 20
28.696676979595438
 10
1414.2471738385152
 20
45.259855132649406
 10
1417.3716925284925
 20
41.582982216438744
 10
1419.8135493800894
 20
35.83592277224334
 10
1419.8135493800894
 20
32.99516678005543
 10
1423.455446908443
 20
28.709452494341093
 10
1423.455446908443
 20
17.21043167598968
 10
1413.0797607638233
 20
3.564066192225601
 10
1408.7352873692028
 20
4.294422180956103
  0
LWPOLYLINE
  5
38
330
17
100
AcDbEntity
  8
GRAY_L
100
AcDbPolyline
 90
43
 70
1
 10
1345.6164633055787
 20
0.0
 10
1343.1337012846657
 20
2.921666130970779
 10
1343.1337012846657
 20
5.831486602873359
 10
1349.2035304985882
 20
24.40291517430193
 10
1349.2035304985882
 20
27.212308863953538
 10
1343.1401707808843
 20
35.77460162236701
 10
1338.2681373592648
 20
58.70785888504637
 10
1349.1649150093474
 20
68.6813938030818
 10
1346.775598813019
 20
71.49309470239918
 10
1346.775598813019
 20
81.56370162591509
 10
1357.6885860501327
 20
95.83280323748922
 10
1354.0715717774046
 20
105.7644782628525
 10
1351.631462184157
 20
108.63595184525632
 10
1351.631462184157
 20
113.00017711841292
 10
1366.8649523572517
 20
128.05841645551308
 10
1368.0737491236487
 20
128.05841645551308
 10
1376.5715100231405
 20
138.05841645551308
 10
1377.8880093506118
 20
138.05841645551308
 10
1380.9825631464223
 20
132.96016132057076
 10
1378.5387107254162
 20
128.64634421643416
 10
1378.5387107254162
 20
122.93439429845854
 10
1374.891224923071
 20
115.78057686841913
 10
1372.4632932375018
 20
105.78057686841935
 10
1368.8521818620086
 20
98.69810063692641
 10
1377.3329263571848
 20
91.5695467613119
 10
1376.1058319261979
 20
84.34944228025788
 10
1371.8325605286796
 20
77.88396725982982
 10
1364.512896547465
 20
73.57714804722238
 10
1356.0260616552957
 20
72.15041340625572
 10
1350.6656080419443
 20
67.24413074122737
 10
1356.0191974086242
 20
62.34413074122747
 10
1360.8634430184447
 20
62.34413074122747
 10
1365.7573362389733
 20
59.46461148997295
 10
1370.0483529058392
 20
54.41502640795115
 10
1366.4064553774858
 20
35.84359783652269
 10
1371.8081505282005
 20
29.48698788408455
 10
1374.2360822137694
 20
29.48698788408455
 10
1379.768854544254
 20
22.976128852012167
 10
1378.5387107254162
 20
20.08091013878277
 10
1378.5387107254162
 20
14.369345193223747
 10
1374.8846352893843
 20
4.335906834281089
 10
1371.8092191911694
 20
0.71681689448444
 10
1345.6164633055787
 20
0.0
  0
ENDSEC
  0
SECTION
  2
OBJECTS
  0
DICTIONARY
  5
A
330
0
100
AcDbDictionary
281
1
  3
ACAD_COLOR
350
B
  3
ACAD_GROUP
350
C
  3
ACAD_LAYOUT
350
D
  3
ACAD_MATERIAL
350
E
  3
ACAD_MLEADERSTYLE
350
F
  3
ACAD_MLINESTYLE
350
10
  3
ACAD_PLOTSETTINGS
350
11
  3
ACAD_PLOTSTYLENAME
350
12
  3
ACAD_SCALELIST
350
14
  3
ACAD_TABLESTYLE
350
15
  3
ACAD_VISUALSTYLE
350
16
  3
EZDXF_META
350
2D
  0
DICTIONARY
  5
B
330
A
100
AcDbDictionary
281
1
  0
DICTIONARY
  5
C
330
A
100
AcDbDictionary
281
1
  0
DICTIONARY
  5
D
330
A
100
AcDbDictionary
281
1
  3
Model
350
1A
  3
Layout1
350
1E
  0
DICTIONARY
  5
E
330
A
100
AcDbDictionary
281
1
  3
ByBlock
350
1F
  3
ByLayer
350
20
  3
Global
350
21
  0
DICTIONARY
  5
F
330
A
100
AcDbDictionary
281
1
  3
Standard
350
2C
  0
DICTIONARY
  5
10
330
A
100
AcDbDictionary
281
1
  3
Standard
350
22
  0
DICTIONARY
  5
11
330
A
100
AcDbDictionary
281
1
  0
ACDBDICTIONARYWDFLT
  5
12
330
A
100
AcDbDictionary
281
1
  3
Normal
350
13
100
AcDbDictionaryWithDefault
340
13
  0
ACDBPLACEHOLDER
  5
13
330
12
  0
DICTIONARY
  5
14
330
A
100
AcDbDictionary
281
1
  0
DICTIONARY
  5
15
330
A
100
AcDbDictionary
281
1
  0
DICTIONARY
  5
16
330
A
100
AcDbDictionary
281
1
  0
LAYOUT
  5
1A
330
D
100
AcDbPlotSettings
  1

  4
A3
  6

 40
7.5
 41
20.0
 42
7.5
 43
20.0
 44
420.0
 45
297.0
 46
0.0
 47
0.0
 48
0.0
 49
0.0
140
0.0
141
0.0
142
1.0
143
1.0
 70
1024
 72
1
 73
0
 74
5
  7

 75
16
 76
0
 77
2
 78
300
147
1.0
148
0.0
149
0.0
100
AcDbLayout
  1
Model
 70
1
 71
0
 10
0.0
 20
0.0
 11
420.0
 21
297.0
 12
0.0
 22
0.0
 32
0.0
 14
1e+20
 24
1e+20
 34
1e+20
 15
-1e+20
 25
-1e+20
 35
-1e+20
146
0.0
 13
0.0
 23
0.0
 33
0.0
 16
1.0
 26
0.0
 36
0.0
 17
0.0
 27
1.0
 37
0.0
 76
1
330
17
  0
LAYOUT
  5
1E
330
D
100
AcDbPlotSettings
  1

  4
A3
  6

 40
7.5
 41
20.0
 42
7.5
 43
20.0
 44
420.0
 45
297.0
 46
0.0
 47
0.0
 48
0.0
 49
0.0
140
0.0
141
0.0
142
1.0
143
1.0
 70
0
 72
1
 73
0
 74
5
  7

 75
16
 76
0
 77
2
 78
300
147
1.0
148
0.0
149
0.0
100
AcDbLayout
  1
Layout1
 70
1
 71
1
 10
0.0
 20
0.0
 11
420.0
 21
297.0
 12
0.0
 22
0.0
 32
0.0
 14
1e+20
 24
1e+20
 34
1e+20
 15
-1e+20
 25
-1e+20
 35
-1e+20
146
0.0
 13
0.0
 23
0.0
 33
0.0
 16
1.0
 26
0.0
 36
0.0
 17
0.0
 27
1.0
 37
0.0
 76
1
330
1B
  0
MATERIAL
  5
1F
102
{ACAD_REACTORS
330
E
102
}
330
E
100
AcDbMaterial
  1
ByBlock
  2

 70
0
 40
1.0
 71
1
 41
1.0
 91
-1023410177
 42
1.0
 72
1
  3

 73
1
 74
1
 75
1
 44
0.5
 73
0
 45
1.0
 46
1.0
 77
1
  4

 78
1
 79
1
170
1
 48
1.0
171
1
  6

172
1
173
1
174
1
140
1.0
141
1.0
175
1
  7

176
1
177
1
178
1
143
1.0
179
1
  8

270
1
271
1
272
1
145
1.0
146
1.0
273
1
  9

274
1
275
1
276
1
 42
1.0
 72
1
  3

 73
1
 74
1
 75
1
 94
63
  0
MATERIAL
  5
20
102
{ACAD_REACTORS
330
E
102
}
330
E
100
AcDbMaterial
  1
ByLayer
  2

 70
0
 40
1.0
 71
1
 41
1.0
 91
-1023410177
 42
1.0
 72
1
  3

 73
1
 74
1
 75
1
 44
0.5
 73
0
 45
1.0
 46
1.0
 77
1
  4

 78
1
 79
1
170
1
 48
1.0
171
1
  6

172
1
173
1
174
1
140
1.0
141
1.0
175
1
  7

176
1
177
1
178
1
143
1.0
179
1
  8

270
1
271
1
272
1
145
1.0
146
1.0
273
1
  9

274
1
275
1
276
1
 42
1.0
 72
1
  3

 73
1
 74
1
 75
1
 94
63
  0
MATERIAL
  5
21
102
{ACAD_REACTORS
330
E
102
}
330
E
100
AcDbMaterial
  1
Global
  2

 70
0
 40
1.0
 71
1
 41
1.0
 91
-1023410177
 42
1.0
 72
1
  3

 73
1
 74
1
 75
1
 44
0.5
 73
0
 45
1.0
 46
1.0
 77
1
  4

 78
1
 79
1
170
1
 48
1.0
171
1
  6

172
1
173
1
174
1
140
1.0
141
1.0
175
1
  7

176
1
177
1
178
1
143
1.0
179
1
  8

270
1
271
1
272
1
145
1.0
146
1.0
273
1
  9

274
1
275
1
276
1
 42
1.0
 72
1
  3

 73
1
 74
1
 75
1
 94
63
  0
MLINESTYLE
  5
22
102
{ACAD_REACTORS
330
10
102
}
330
10
100
AcDbMlineStyle
  2
Standard
 70
0
  3

 62
256
 51
90.0
 52
90.0
 71
2
 49
0.5
 62
256
  6
BYLAYER
 49
-0.5
 62
256
  6
BYLAYER
  0
MLEADERSTYLE
  5
2C
102
{ACAD_REACTORS
330
F
102
}
330
F
100
AcDbMLeaderStyle
179
2
170
2
171
1
172
0
 90
2
 40
0.0
 41
0.0
173
1
 91
-1056964608
 92
-2
290
1
 42
2.0
291
1
 43
8.0
  3
Standard
 44
4.0
300

342
29
174
1
175
1
176
0
178
1
 93
-1056964608
 45
4.0
292
0
297
0
 46
4.0
 94
-1056964608
 47
1.0
 49
1.0
140
1.0
294
1
141
0.0
177
0
142
1.0
295
0
296
0
143
3.75
271
0
272
9
273
9
  0
DICTIONARY
  5
2D
330
A
100
AcDbDictionary
280
1
281
1
  3
CREATED_BY_EZDXF
350
2E
  3
WRITTEN_BY_EZDXF
350
3B
  0
DICTIONARYVAR
  5
2E
330
2D
100
DictionaryVariables
280
0
  1
1.4.4 @ 2026-07-21T20:34:35.002398+00:00
  0
DICTIONARYVAR
  5
3B
330
2D
100
DictionaryVariables
280
0
  1
1.4.4 @ 2026-07-21T20:34:35.006405+00:00
  0
ENDSEC
  0
EOF
