  0
SECTION
  2
HEADER
  9
$ACADVER
  1
AC1027
  9
$ACADMAINTVER
 70
105
  9
$DWGCODEPAGE
  3
ANSI_1252
  9
$LASTSAVEDBY
  1
ezdxf
  9
$REQUIREDVERSIONS
160
0
  9
$INSBASE
 10
0.0
 20
0.0
 30
0.0
  9
$EXTMIN
 10
1e+20
 20
1e+20
 30
1e+20
  9
$EXTMAX
 10
-1e+20
 20
-1e+20
 30
-1e+20
  9
$LIMMIN
 10
0.0
 20
0.0
  9
$LIMMAX
 10
420.0
 20
297.0
  9
$ORTHOMODE
 70
0
  9
$REGENMODE
 70
1
  9
$FILLMODE
 70
1
  9
$QTEXTMODE
 70
0
  9
$MIRRTEXT
 70
1
  9
$LTSCALE
 40
1.0
  9
$ATTMODE
 70
1
  9
$TEXTSIZE
 40
2.5
  9
$TRACEWID
 40
1.0
  9
$TEXTSTYLE
  7
Standard
  9
$CLAYER
  8
0
  9
$CELTYPE
  6
ByLayer
  9
$CECOLOR
 62
256
  9
$CELTSCALE
 40
1.0
  9
$DISPSILH
 70
0
  9
$DIMSCALE
 40
1.0
  9
$DIMASZ
 40
2.5
  9
$DIMEXO
 40
0.625
  9
$DIMDLI
 40
3.75
  9
$DIMRND
 40
0.0
  9
$DIMDLE
 40
0.0
  9
$DIMEXE
 40
1.25
  9
$DIMTP
 40
0.0
  9
$DIMTM
 40
0.0
  9
$DIMTXT
 40
2.5
  9
$DIMCEN
 40
2.5
  9
$DIMTSZ
 40
0.0
  9
$DIMTOL
 70
0
  9
$DIMLIM
 70
0
  9
$DIMTIH
 70
0
  9
$DIMTOH
 70
0
  9
$DIMSE1
 70
0
  9
$DIMSE2
 70
0
  9
$DIMTAD
 70
1
  9
$DIMZIN
 70
8
  9
$DIMBLK
  1

  9
$DIMASO
 70
1
  9
$DIMSHO
 70
1
  9
$DIMPOST
  1

  9
$DIMAPOST
  1

  9
$DIMALT
 70
0
  9
$DIMALTD
 70
3
  9
$DIMALTF
 40
0.03937007874
  9
$DIMLFAC
 40
1.0
  9
$DIMTOFL
 70
1
  9
$DIMTVP
 40
0.0
  9
$DIMTIX
 70
0
  9
$DIMSOXD
 70
0
  9
$DIMSAH
 70
0
  9
$DIMBLK1
  1

  9
$DIMBLK2
  1

  9
$DIMSTYLE
  2
ISO-25
  9
$DIMCLRD
 70
0
  9
$DIMCLRE
 70
0
  9
$DIMCLRT
 70
0
  9
$DIMTFAC
 40
1.0
  9
$DIMGAP
 40
0.625
  9
$DIMJUST
 70
0
  9
$DIMSD1
 70
0
  9
$DIMSD2
 70
0
  9
$DIMTOLJ
 70
0
  9
$DIMTZIN
 70
8
  9
$DIMALTZ
 70
0
  9
$DIMALTTZ
 70
0
  9
$DIMUPT
 70
0
  9
$DIMDEC
 70
2
  9
$DIMTDEC
 70
2
  9
$DIMALTU
 70
2
  9
$DIMALTTD
 70
3
  9
$DIMTXSTY
  7
Standard
  9
$DIMAUNIT
 70
0
  9
$DIMADEC
 70
0
  9
$DIMALTRND
 40
0.0
  9
$DIMAZIN
 70
0
  9
$DIMDSEP
 70
44
  9
$DIMATFIT
 70
3
  9
$DIMFRAC
 70
0
  9
$DIMLDRBLK
  1

  9
$DIMLUNIT
 70
2
  9
$DIMLWD
 70
-2
  9
$DIMLWE
 70
-2
  9
$DIMTMOVE
 70
0
  9
$DIMFXL
 40
1.0
  9
$DIMFXLON
 70
0
  9
$DIMJOGANG
 40
0.785398163397
  9
$DIMTFILL
 70
0
  9
$DIMTFILLCLR
 70
0
  9
$DIMARCSYM
 70
0
  9
$DIMLTYPE
  6

  9
$DIMLTEX1
  6

  9
$DIMLTEX2
  6

  9
$DIMTXTDIRECTION
 70
0
  9
$LUNITS
 70
2
  9
$LUPREC
 70
4
  9
$SKETCHINC
 40
1.0
  9
$FILLETRAD
 40
10.0
  9
$AUNITS
 70
0
  9
$AUPREC
 70
2
  9
$MENU
  1
.
  9
$ELEVATION
 40
0.0
  9
$PELEVATION
 40
0.0
  9
$THICKNESS
 40
0.0
  9
$LIMCHECK
 70
0
  9
$CHAMFERA
 40
0.0
  9
$CHAMFERB
 40
0.0
  9
$CHAMFERC
 40
0.0
  9
$CHAMFERD
 40
0.0
  9
$SKPOLY
 70
0
  9
$TDCREATE
 40
2461243.982349537
  9
$TDUCREATE
 40
2458532.153996898
  9
$TDUPDATE
 40
2461243.982349537
  9
$TDUUPDATE
 40
2458532.1544311
  9
$TDINDWG
 40
0.0
  9
$TDUSRTIMER
 40
0.0
  9
$USRTIMER
 70
1
  9
$ANGBASE
 50
0.0
  9
$ANGDIR
 70
0
  9
$PDMODE
 70
0
  9
$PDSIZE
 40
0.0
  9
$PLINEWID
 40
0.0
  9
$SPLFRAME
 70
0
  9
$SPLINETYPE
 70
6
  9
$SPLINESEGS
 70
8
  9
$HANDSEED
  5
40
  9
$SURFTAB1
 70
6
  9
$SURFTAB2
 70
6
  9
$SURFTYPE
 70
6
  9
$SURFU
 70
6
  9
$SURFV
 70
6
  9
$UCSBASE
  2

  9
$UCSNAME
  2

  9
$UCSORG
 10
0.0
 20
0.0
 30
0.0
  9
$UCSXDIR
 10
1.0
 20
0.0
 30
0.0
  9
$UCSYDIR
 10
0.0
 20
1.0
 30
0.0
  9
$UCSORTHOREF
  2

  9
$UCSORTHOVIEW
 70
0
  9
$UCSORGTOP
 10
0.0
 20
0.0
 30
0.0
  9
$UCSORGBOTTOM
 10
0.0
 20
0.0
 30
0.0
  9
$UCSORGLEFT
 10
0.0
 20
0.0
 30
0.0
  9
$UCSORGRIGHT
 10
0.0
 20
0.0
 30
0.0
  9
$UCSORGFRONT
 10
0.0
 20
0.0
 30
0.0
  9
$UCSORGBACK
 10
0.0
 20
0.0
 30
0.0
  9
$PUCSBASE
  2

  9
$PUCSNAME
  2

  9
$PUCSORG
 10
0.0
 20
0.0
 30
0.0
  9
$PUCSXDIR
 10
1.0
 20
0.0
 30
0.0
  9
$PUCSYDIR
 10
0.0
 20
1.0
 30
0.0
  9
$PUCSORTHOREF
  2

  9
$PUCSORTHOVIEW
 70
0
  9
$PUCSORGTOP
 10
0.0
 20
0.0
 30
0.0
  9
$PUCSORGBOTTOM
 10
0.0
 20
0.0
 30
0.0
  9
$PUCSORGLEFT
 10
0.0
 20
0.0
 30
0.0
  9
$PUCSORGRIGHT
 10
0.0
 20
0.0
 30
0.0
  9
$PUCSORGFRONT
 10
0.0
 20
0.0
 30
0.0
  9
$PUCSORGBACK
 10
0.0
 20
0.0
 30
0.0
  9
$USERI1
 70
0
  9
$USERI2
 70
0
  9
$USERI3
 70
0
  9
$USERI4
 70
0
  9
$USERI5
 70
0
  9
$USERR1
 40
0.0
  9
$USERR2
 40
0.0
  9
$USERR3
 40
0.0
  9
$USERR4
 40
0.0
  9
$USERR5
 40
0.0
  9
$WORLDVIEW
 70
1
  9
$SHADEDGE
 70
3
  9
$SHADEDIF
 70
70
  9
$TILEMODE
 70
1
  9
$MAXACTVP
 70
64
  9
$PINSBASE
 10
0.0
 20
0.0
 30
0.0
  9
$PLIMCHECK
 70
0
  9
$PEXTMIN
 10
1e+20
 20
1e+20
 30
1e+20
  9
$PEXTMAX
 10
-1e+20
 20
-1e+20
 30
-1e+20
  9
$PLIMMIN
 10
0.0
 20
0.0
  9
$PLIMMAX
 10
420.0
 20
297.0
  9
$UNITMODE
 70
0
  9
$VISRETAIN
 70
1
  9
$PLINEGEN
 70
0
  9
$PSLTSCALE
 70
1
  9
$TREEDEPTH
 70
3020
  9
$CMLSTYLE
  2
Standard
  9
$CMLJUST
 70
0
  9
$CMLSCALE
 40
20.0
  9
$PROXYGRAPHICS
 70
1
  9
$MEASUREMENT
 70
1
  9
$CELWEIGHT
370
-1
  9
$ENDCAPS
280
0
  9
$JOINSTYLE
280
0
  9
$LWDISPLAY
290
0
  9
$INSUNITS
 70
4
  9
$HYPERLINKBASE
  1

  9
$STYLESHEET
  1

  9
$XEDIT
290
1
  9
$CEPSNTYPE
380
0
  9
$PSTYLEMODE
290
1
  9
$FINGERPRINTGUID
  2
{6C59C427-299F-4BE4-A06B-DC6E812E3966}
  9
$VERSIONGUID
  2
{8F520B5E-9807-4AD3-9C30-948E350C1394}
  9
$EXTNAMES
290
1
  9
$PSVPSCALE
 40
0.0
  9
$OLESTARTUP
290
0
  9
$SORTENTS
280
127
  9
$INDEXCTL
280
0
  9
$HIDETEXT
280
1
  9
$XCLIPFRAME
280
1
  9
$HALOGAP
280
0
  9
$OBSCOLOR
 70
257
  9
$OBSLTYPE
280
0
  9
$INTERSECTIONDISPLAY
280
0
  9
$INTERSECTIONCOLOR
 70
257
  9
$DIMASSOC
280
2
  9
$PROJECTNAME
  1

  9
$CAMERADISPLAY
290
0
  9
$LENSLENGTH
 40
50.0
  9
$CAMERAHEIGHT
 40
0.0
  9
$STEPSPERSEC
 40
24.0
  9
$STEPSIZE
 40
100.0
  9
$3DDWFPREC
 40
2.0
  9
$PSOLWIDTH
 40
0.005
  9
$PSOLHEIGHT
 40
0.08
  9
$LOFTANG1
 40
1.570796326795
  9
$LOFTANG2
 40
1.570796326795
  9
$LOFTMAG1
 40
0.0
  9
$LOFTMAG2
 40
0.0
  9
$LOFTPARAM
 70
7
  9
$LOFTNORMALS
280
1
  9
$LATITUDE
 40
37.795
  9
$LONGITUDE
 40
-122.394
  9
$NORTHDIRECTION
 40
0.0
  9
$TIMEZONE
 70
-8000
  9
$LIGHTGLYPHDISPLAY
280
1
  9
$TILEMODELIGHTSYNCH
280
1
  9
$CMATERIAL
347
20
  9
$SOLIDHIST
280
0
  9
$SHOWHIST
280
1
  9
$DWFFRAME
280
2
  9
$DGNFRAME
280
2
  9
$REALWORLDSCALE
290
1
  9
$INTERFERECOLOR
 62
256
  9
$CSHADOW
280
0
  9
$SHADOWPLANELOCATION
 40
0.0
  0
ENDSEC
  0
SECTION
  2
CLASSES
  0
CLASS
  1
ACDBDICTIONARYWDFLT
  2
AcDbDictionaryWithDefault
  3
ObjectDBX Classes
 90
0
 91
0
280
0
281
0
  0
CLASS
  1
SUN
  2
AcDbSun
  3
SCENEOE
 90
1153
 91
0
280
0
281
0
  0
CLASS
  1
VISUALSTYLE
  2
AcDbVisualStyle
  3
ObjectDBX Classes
 90
4095
 91
0
280
0
281
0
  0
CLASS
  1
MATERIAL
  2
AcDbMaterial
  3
ObjectDBX Classes
 90
1153
 91
0
280
0
281
0
  0
CLASS
  1
SCALE
  2
AcDbScale
  3
ObjectDBX Classes
 90
1153
 91
0
280
0
281
0
  0
CLASS
  1
TABLESTYLE
  2
AcDbTableStyle
  3
ObjectDBX Classes
 90
4095
 91
0
280
0
281
0
  0
CLASS
  1
MLEADERSTYLE
  2
AcDbMLeaderStyle
  3
ACDB_MLEADERSTYLE_CLASS
 90
4095
 91
0
280
0
281
0
  0
CLASS
  1
DICTIONARYVAR
  2
AcDbDictionaryVar
  3
ObjectDBX Classes
 90
0
 91
0
280
0
281
0
  0
CLASS
  1
CELLSTYLEMAP
  2
AcDbCellStyleMap
  3
ObjectDBX Classes
 90
1152
 91
0
280
0
281
0
  0
CLASS
  1
MENTALRAYRENDERSETTINGS
  2
AcDbMentalRayRenderSettings
  3
SCENEOE
 90
1024
 91
0
280
0
281
0
  0
CLASS
  1
ACDBDETAILVIEWSTYLE
  2
AcDbDetailViewStyle
  3
ObjectDBX Classes
 90
1025
 91
0
280
0
281
0
  0
CLASS
  1
ACDBSECTIONVIEWSTYLE
  2
AcDbSectionViewStyle
  3
ObjectDBX Classes
 90
1025
 91
0
280
0
281
0
  0
CLASS
  1
RASTERVARIABLES
  2
AcDbRasterVariables
  3
ISM
 90
0
 91
0
280
0
281
0
  0
CLASS
  1
LAYOUT
  2
AcDbLayout
  3
ObjectDBX Classes
 90
0
 91
0
280
0
281
0
  0
CLASS
  1
ACDBPLACEHOLDER
  2
AcDbPlaceHolder
  3
ObjectDBX Classes
 90
0
 91
0
280
0
281
0
  0
ENDSEC
  0
SECTION
  2
TABLES
  0
TABLE
  2
VPORT
  5
8
330
0
100
AcDbSymbolTable
 70
1
  0
VPORT
  5
23
330
8
100
AcDbSymbolTableRecord
100
AcDbViewportTableRecord
  2
*Active
 70
0
 10
0.0
 20
0.0
 11
1.0
 21
1.0
 12
0.0
 22
0.0
 13
0.0
 23
0.0
 14
0.5
 24
0.5
 15
0.5
 25
0.5
 16
0.0
 26
0.0
 36
1.0
 17
0.0
 27
0.0
 37
0.0
 40
1000.0
 41
1.34
 42
50.0
 43
0.0
 44
0.0
 50
0.0
 51
0.0
 71
0
 72
1000
 73
1
 74
3
 75
0
 76
0
 77
0
 78
0
281
0
 65
0
146
0.0
  0
ENDTAB
  0
TABLE
  2
LTYPE
  5
2
330
0
100
AcDbSymbolTable
 70
3
  0
LTYPE
  5
24
330
2
100
AcDbSymbolTableRecord
100
AcDbLinetypeTableRecord
  2
ByBlock
 70
0
  3

 72
65
 73
0
 40
0.0
  0
LTYPE
  5
25
330
2
100
AcDbSymbolTableRecord
100
AcDbLinetypeTableRecord
  2
ByLayer
 70
0
  3

 72
65
 73
0
 40
0.0
  0
LTYPE
  5
26
330
2
100
AcDbSymbolTableRecord
100
AcDbLinetypeTableRecord
  2
Continuous
 70
0
  3

 72
65
 73
0
 40
0.0
  0
ENDTAB
  0
TABLE
  2
LAYER
  5
1
330
0
100
AcDbSymbolTable
 70
3
  0
LAYER
  5
27
330
1
100
AcDbSymbolTableRecord
100
AcDbLayerTableRecord
  2
0
 70
0
 62
7
  6
Continuous
370
-3
390
13
347
21
  0
LAYER
  5
28
330
1
100
AcDbSymbolTableRecord
100
AcDbLayerTableRecord
  2
Defpoints
 70
0
 62
7
  6
Continuous
290
0
370
-3
390
13
347
21
  0
LAYER
  5
2F
330
1
100
AcDbSymbolTableRecord
100
AcDbLayerTableRecord
  2
GRAY_M
 70
0
 62
7
  6
Continuous
370
-3
390
13
347
21
  0
ENDTAB
  0
TABLE
  2
STYLE
  5
5
330
0
100
AcDbSymbolTable
 70
1
  0
STYLE
  5
29
330
5
100
AcDbSymbolTableRecord
100
AcDbTextStyleTableRecord
  2
Standard
 70
0
 40
0.0
 41
1.0
 50
0.0
 71
0
 42
2.5
  3
txt
  4

  0
ENDTAB
  0
TABLE
  2
VIEW
  5
7
330
0
100
AcDbSymbolTable
 70
0
  0
ENDTAB
  0
TABLE
  2
UCS
  5
6
330
0
100
AcDbSymbolTable
 70
0
  0
ENDTAB
  0
TABLE
  2
APPID
  5
3
330
0
100
AcDbSymbolTable
 70
3
  0
APPID
  5
2A
330
3
100
AcDbSymbolTableRecord
100
AcDbRegAppTableRecord
  2
ACAD
 70
0
  0
APPID
  5
3D
330
3
100
AcDbSymbolTableRecord
100
AcDbRegAppTableRecord
  2
HATCHBACKGROUNDCOLOR
 70
0
  0
APPID
  5
3E
330
3
100
AcDbSymbolTableRecord
100
AcDbRegAppTableRecord
  2
EZDXF
 70
0
  0
ENDTAB
  0
TABLE
  2
DIMSTYLE
  5
4
330
0
100
AcDbSymbolTable
 70
1
100
AcDbDimStyleTable
  0
DIMSTYLE
105
2B
330
4
100
AcDbSymbolTableRecord
100
AcDbDimStyleTableRecord
  2
Standard
 70
0
 40
1.0
 41
2.5
 42
0.625
 43
3.75
 44
1.25
 45
0.0
 46
0.0
 47
0.0
 48
0.0
 49
2.5
140
2.5
141
2.5
142
0.0
143
0.03937007874
144
1.0
145
0.0
146
1.0
147
0.625
148
0.0
 69
0
 70
0
 71
0
 72
0
 73
0
 74
0
 75
0
 76
0
 77
1
 78
8
 79
3
170
0
171
3
172
1
173
0
174
0
175
0
176
0
177
0
178
0
179
2
271
2
272
2
273
2
274
3
275
0
276
0
277
2
278
44
279
0
280
0
281
0
282
0
283
0
284
8
285
0
286
0
288
0
289
3
290
0
371
-2
372
-2
  0
ENDTAB
  0
TABLE
  2
BLOCK_RECORD
  5
9
330
0
100
AcDbSymbolTable
 70
2
  0
BLOCK_RECORD
  5
17
330
9
100
AcDbSymbolTableRecord
100
AcDbBlockTableRecord
  2
*Model_Space
340
1A
 70
0
280
1
281
0
  0
BLOCK_RECORD
  5
1B
330
9
100
AcDbSymbolTableRecord
100
AcDbBlockTableRecord
  2
*Paper_Space
340
1E
 70
0
280
1
281
0
  0
ENDTAB
  0
ENDSEC
  0
SECTION
  2
BLOCKS
  0
BLOCK
  5
18
330
17
100
AcDbEntity
  8
0
100
AcDbBlockBegin
  2
*Model_Space
 70
0
 10
0.0
 20
0.0
 30
0.0
  3
*Model_Space
  1

  0
ENDBLK
  5
19
330
17
100
AcDbEntity
  8
0
100
AcDbBlockEnd
  0
BLOCK
  5
1C
330
1B
100
AcDbEntity
  8
0
100
AcDbBlockBegin
  2
*Paper_Space
 70
0
 10
0.0
 20
0.0
 30
0.0
  3
*Paper_Space
  1

  0
ENDBLK
  5
1D
330
1B
100
AcDbEntity
  8
0
100
AcDbBlockEnd
  0
ENDSEC
  0
SECTION
  2
ENTITIES
  0
LWPOLYLINE
  5
30
330
17
100
AcDbEntity
  8
GRAY_M
100
AcDbPolyline
 90
23
 70
1
 10
145.81832997490264
 20
443.70802607487394
 10
146.9847965851631
 20
445.1365975034453
 10
146.9847965851631
 20
450.85088321773105
 10
149.31772980568414
 20
453.70802607487394
 10
149.31772980568414
 20
459.4223117891597
 10
152.28644764886712
 20
463.05809994885175
 10
159.28524731043015
 20
463.05809994885175
 10
160.45171392069062
 20
464.4866713774231
 10
176.8771438292744
 20
464.4866713774231
 10
179.84586167245732
 20
460.85088321773105
 10
179.84586167245732
 20
457.99374036058816
 10
181.04142962790442
 20
456.5295285202803
 10
176.85193252816927
 20
451.3986522447667
 10
174.51899930764824
 20
452.82722367333804
 10
169.87834416771136
 20
447.1438142345659
 10
167.53691871701054
 20
447.1438142345659
 10
162.87105227596848
 20
442.8580999488517
 10
160.54661128562725
 20
442.8580999488517
 10
155.88074484458525
 20
437.1438142345659
 10
153.53931939388448
 20
437.1438142345659
 10
148.8240785901242
 20
432.81274836960637
 10
145.81832997490264
 20
436.49388810854373
 10
145.81832997490264
 20
443.70802607487394
  0
LWPOLYLINE
  5
31
330
17
100
AcDbEntity
  8
GRAY_M
100
AcDbPolyline
 90
95
 70
1
 10
26.838735728330786
 20
3.636745251401008
 10
26.838735728330786
 20
9.35103096568679
 10
25.67583271349691
 20
10.77523805963887
 10
24.509366103236395
 20
22.20380948821021
 10
21.6333422837246
 20
25.726075295311123
 10
15.801009232422059
 20
27.154646723882458
 10
14.643387638127114
 20
28.572385663137467
 10
8.83532515219812
 20
28.572385663137467
 10
2.9625411586063075
 20
31.44934462471227
 10
0.0
 20
35.07756820001606
 10
1.1845548631844172
 20
39.429740525144254
 10
8.183354524747472
 20
49.42974052514415
 10
9.350830534931548
 20
53.71916344652317
 10
14.007603015465191
 20
59.42231178915958
 10
14.007603015465191
 20
62.27945464630247
 10
18.680420274436198
 20
68.0022530259411
 10
19.84583118738914
 20
73.71136709108572
 10
29.80113051318253
 20
88.77238566313738
 10
56.65544906912684
 20
88.77238566313738
 10
61.28639973016459
 20
91.60814784582216
 10
68.81431805480209
 20
99.4092125409255
 10
66.49860047718803
 20
105.0813302662349
 10
66.49860047718803
 20
107.93264585025875
 10
61.83677993897607
 20
116.49664189708486
 10
60.67031332871553
 20
123.63949903994198
 10
56.0054150079925
 20
132.20914912622374
 10
54.82646432726573
 20
137.98459179510547
 10
57.802652217765925
 20
141.62952852028033
 10
63.634985269068466
 20
141.62952852028033
 10
64.80145187932895
 20
143.05809994885178
 10
67.15031788801801
 20
143.05809994885178
 10
75.30271191604587
 20
148.76337730059498
 10
79.9546902074138
 20
150.1876965256216
 10
82.29845103323657
 20
153.05809994885166
 10
84.64319455620978
 20
153.05809994885166
 10
88.13019087891944
 20
155.9051157567276
 10
97.46856107396069
 20
158.76429079283938
 10
102.10911994604382
 20
161.60593656261457
 10
104.99199861578484
 20
165.13659750344533
 10
104.99199861578484
 20
167.928332905246
 10
100.33084745323606
 20
175.0639715472967
 10
99.1652850784372
 20
182.20129160519238
 10
96.82673234396127
 20
185.0653166799724
 10
96.82673234396127
 20
187.9224595371153
 10
95.62568472277505
 20
189.3933823229782
 10
102.13435140884886
 20
195.91524280599458
 10
105.62778323844674
 20
195.91524280599458
 10
107.96071645896777
 20
198.7723856631375
 10
112.62658290000982
 20
198.7723856631375
 10
114.95951612053085
 20
201.6295285202804
 10
117.30425964350417
 20
201.6295285202804
 10
120.80365947428572
 20
204.48667137742305
 10
124.29974123279469
 20
204.48667137742305
 10
129.0120719773172
 20
208.81506428065023
 10
144.85186336464207
 20
190.85303705639066
 10
144.85186336464207
 20
189.4223117891597
 10
149.51772980568413
 20
183.7080260748739
 10
149.51772980568413
 20
182.2081738228295
 10
141.88314552145914
 20
172.8580999488517
 10
139.54172007075832
 20
172.8580999488517
 10
134.90982255043542
 20
168.60358696103904
 10
126.21877704661588
 20
157.95966523884087
 10
150.70499043492742
 20
129.39941692527867
 10
146.01263716368211
 20
120.77933073022551
 10
143.67833396178193
 20
110.77345837448426
 10
136.05510437487206
 20
100.00095709170887
 10
104.55621399312287
 20
100.00095709170887
 10
100.5208505389088
 20
95.05884826160349
 10
97.02145070812729
 20
72.2017054044607
 10
92.89154789051778
 20
67.14381423456605
 10
87.05921483921524
 20
67.14381423456605
 10
85.89274822895476
 20
65.7152428059946
 10
73.04980521363696
 20
65.7152428059946
 10
69.5536967741574
 20
62.860787259705894
 10
50.90165839347538
 20
61.433090525778944
 10
49.73228331087898
 20
60.00095709170894
 10
40.41054374258341
 20
60.00095709170894
 10
37.55825722178546
 20
55.11048445287203
 10
38.700538130441444
 20
53.711533248307134
 10
39.86700474070193
 20
39.4258189625929
 10
42.7082723482109
 20
35.94611908150813
 10
45.041205568731925
 20
37.374690510079574
 10
46.23288348009746
 20
35.915242805994566
 10
53.23168314166049
 20
35.915242805994566
 10
54.40384098582213
 20
34.47970132438183
 10
63.721850928109944
 20
33.053230706019846
 10
69.59069759689201
 20
28.740685488210403
 10
72.5522555296007
 20
23.662858301974342
 10
70.19800030796958
 20
20.779602394258134
 10
70.19800030796958
 20
15.085040284629759
 10
67.86506708744855
 20
7.942183141772641
 10
67.86506708744855
 20
3.636745251401008
 10
64.89556775340066
 20
0.0
 10
29.223446184194923
 20
0.7161908242989679
 10
26.838735728330786
 20
3.636745251401008
  0
LWPOLYLINE
  5
32
330
17
100
AcDbEntity
  8
GRAY_M
100
AcDbPolyline
 90
26
 70
1
 10
104.99761812973973
 20
473.62986303376374
 10
103.8255320055243
 20
475.06531667997245
 10
103.8255320055243
 20
479.35103096568645
 10
100.33175168869768
 20
483.62986303376374
 10
99.15371145872336
 20
490.843591225577
 10
102.12838340766523
 20
494.4866713774231
 10
104.55621399312287
 20
494.4866713774231
 10
105.67523192091505
 20
493.1162103409551
 10
106.79424984870728
 20
494.4866713774231
 10
109.13070395444684
 20
494.4866713774231
 10
119.6175705173922
 20
505.9029055291856
 10
124.37106237251567
 20
507.3583056646124
 10
140.18599692360007
 20
489.4244656278192
 10
140.18599692360007
 20
470.779602394258
 10
137.20479617061082
 20
467.12852641737715
 10
132.51247131105626
 20
468.5651987509377
 10
126.69480902269898
 20
465.71524280599465
 10
123.21967975729098
 20
465.71524280599465
 10
122.05321314703049
 20
464.2866713774231
 10
117.38734670598843
 20
464.2866713774231
 10
116.22088009572795
 20
462.85809994885176
 10
113.79304951027031
 20
462.85809994885176
 10
112.65179420111492
 20
464.25579510190937
 10
110.33060605199225
 20
462.83441576665587
 10
106.16556651008285
 20
466.4779322732603
 10
104.99761812973973
 20
473.62986303376374
  0
LWPOLYLINE
  5
33
330
17
100
AcDbEntity
  8
GRAY_M
100
AcDbPolyline
 90
15
 70
1
 10
1325.9363706247393
 20
107.85995858302289
 10
1323.456270300148
 20
110.77849248145233
 10
1323.456270300148
 20
115.06420676716655
 10
1322.2423044573634
 20
116.492778195738
 10
1322.2423044573634
 20
129.42342170196542
 10
1325.3309671262257
 20
133.05809994885175
 10
1350.9117980595847
 20
133.05809994885175
 10
1358.8612797408987
 20
125.14250361808665
 10
1358.8612797408987
 20
120.78608536263158
 10
1355.2000254659051
 20
115.0414281236286
 10
1352.1497344683783
 20
111.45190491439183
 10
1347.2558412478497
 20
108.57238566313742
 10
1344.846924486976
 20
108.57238566313742
 10
1343.6313493096714
 20
107.14192040095627
 10
1325.9363706247393
 20
107.85995858302289
  0
LWPOLYLINE
  5
34
330
17
100
AcDbEntity
  8
GRAY_M
100
AcDbPolyline
 90
37
 70
1
 10
1827.0679967456801
 20
336.4339337608223
 10
1825.3324694900025
 20
338.5723856631374
 10
1817.240984156141
 20
338.5723856631374
 10
1811.403432314065
 20
341.4495110555994
 10
1802.6717684472576
 20
352.20834134493407
 10
1802.6717684472576
 20
356.49991262888204
 10
1798.0399383927831
 20
363.6338727545353
 10
1796.881639848564
 20
369.34272167576376
 10
1792.237153652061
 20
375.06548420207696
 10
1792.237153652061
 20
377.9300587338149
 10
1788.738146017788
 20
383.6785208661898
 10
1805.0028792870526
 20
405.1508036015875
 10
1807.3223247675876
 20
410.86667188765426
 10
1811.4250942213098
 20
415.9219512642073
 10
1821.9546287658814
 20
414.4803846609574
 10
1824.2734320537024
 20
411.6232418038147
 10
1834.708046848899
 20
410.19467037524316
 10
1835.862346312226
 20
408.77238566313747
 10
1840.4999528878689
 20
408.77238566313747
 10
1842.8187561756904
 20
405.9152428059946
 10
1846.2969611074222
 20
405.9152428059946
 10
1849.2699257108948
 20
402.25206679362566
 10
1845.7696292719534
 20
396.50148730524336
 10
1845.7696292719534
 20
393.63691277350546
 10
1843.4439463632718
 20
390.77129310433514
 10
1842.2845447193615
 20
385.05700739004953
 10
1839.9726210523997
 20
382.20834134493407
 10
1839.9726210523997
 20
379.35705548602493
 10
1835.335014476757
 20
372.2141983431678
 10
1835.335014476757
 20
369.422144267055
 10
1844.6390167566303
 20
357.9580999488517
 10
1843.4461609558289
 20
356.4883075569053
 10
1842.2867593119183
 20
347.91687898547684
 10
1839.9726210523997
 20
345.06548420207696
 10
1839.9726210523997
 20
342.20834134493407
 10
1834.6992047036892
 20
335.7106345611839
 10
1827.0679967456801
 20
336.4339337608223
  0
LWPOLYLINE
  5
35
330
17
100
AcDbEntity
  8
GRAY_M
100
AcDbPolyline
 90
44
 70
1
 10
2947.3937425274407
 20
441.45471122218726
 10
2942.95792903734
 20
447.16899693647304
 10
2936.304208802188
 20
451.4547112221875
 10
2931.87054719571
 20
457.16622484565505
 10
2927.9555737655705
 20
459.32765251938156
 10
2927.9555737655705
 20
480.88693234050015
 10
2938.5300649814153
 20
484.47172926346093
 10
2939.644765011536
 20
485.90770362803937
 10
2948.5346534474356
 20
487.3392156439359
 10
2952.9776064091598
 20
490.20095709170886
 10
2955.175964644664
 20
490.20095709170886
 10
2957.8948707294026
 20
493.7034952920133
 10
2956.7907472347774
 20
509.3493398227721
 10
2954.570454706177
 20
512.2095560843504
 10
2954.570454706177
 20
520.7809846557791
 10
2952.3259544772736
 20
523.6723856631374
 10
2955.175964644664
 20
527.343814234566
 10
2959.7097116303166
 20
527.343814234566
 10
2960.818665002842
 20
525.9152428059947
 10
2974.1261054731453
 20
525.9152428059947
 10
2976.9495221566826
 20
522.2780723847816
 10
2976.9495221566826
 20
513.7066438133529
 10
2979.1674289017333
 20
510.8495009562101
 10
2979.1674289017333
 20
495.13521524192447
 10
2985.215639198398
 20
487.34381423456597
 10
2987.4335459434483
 20
487.34381423456597
 10
2988.544794438323
 20
485.9122861927637
 10
3011.832815261354
 20
484.4837147641919
 10
3014.6539368225417
 20
480.84950095621
 10
3014.6539368225417
 20
476.5637866704958
 10
3015.762890195067
 20
475.13521524192447
 10
3015.762890195067
 20
462.2780723847816
 10
3017.9807969401177
 20
459.4209295276387
 10
3017.9807969401177
 20
455.0666989414934
 10
3015.1573802565804
 20
451.42952852028037
 10
3003.9894615453222
 20
451.42952852028037
 10
3001.8238114576084
 20
452.82444101896624
 10
2999.5830662934504
 20
449.9378773459272
 10
2998.425146173149
 20
451.42952852028037
 10
2982.9977324533475
 20
451.42952852028037
 10
2981.888779080822
 20
450.00095709170887
 10
2966.3574345346046
 20
450.00095709170887
 10
2954.1314900503935
 20
437.1148742900447
 10
2947.3937425274407
 20
441.45471122218726
  0
LWPOLYLINE
  5
36
330
17
100
AcDbEntity
  8
GRAY_M
100
AcDbPolyline
 90
18
 70
1
 10
4513.696626652645
 20
502.2037434744754
 10
4512.500326843908
 20
507.9130679517637
 10
4508.9010446690945
 20
512.2074491911578
 10
4508.9010446690945
 20
515.0645920483007
 10
4505.278547685191
 20
519.386671377423
 10
4509.553049195014
 20
524.4866713774231
 10
4513.164170328316
 20
524.4866713774231
 10
4520.339348574627
 20
528.767101384536
 10
4527.5191394868125
 20
530.1948286321065
 10
4533.541518242323
 20
534.5060866699182
 10
4535.941180235208
 20
533.0745424143378
 10
4543.097654290664
 20
537.343814234566
 10
4547.971257501506
 20
537.343814234566
 10
4551.031173057643
 20
532.2326224334627
 10
4524.666456329515
 20
502.20614231117935
 10
4524.666456329515
 20
500.77887776258643
 10
4519.170455063422
 20
494.2214800420187
 10
4513.696626652645
 20
502.2037434744754
  0
LWPOLYLINE
  5
37
330
17
100
AcDbEntity
  8
GRAY_M
100
AcDbPolyline
 90
81
 70
1
 10
6311.996870831239
 20
435.7152428059946
 10
6307.136493353784
 20
438.5723856631375
 10
6298.630832768239
 20
438.5723856631375
 10
6296.162626224536
 20
440.0233056233688
 10
6293.090123313022
 20
443.6356093129089
 10
6293.090123313022
 20
447.92132359862336
 10
6291.875028943658
 20
449.3498950271947
 10
6291.875028943658
 20
460.778466455766
 10
6289.444840204931
 20
463.6356093129089
 10
6289.444840204931
 20
466.4927521700518
 10
6286.460880172115
 20
470.00095709170887
 10
6276.740125217208
 20
470.00095709170887
 10
6274.30993647848
 20
472.85809994885176
 10
6258.519644568456
 20
472.85809994885176
 10
6251.792879176691
 20
479.32875214965867
 10
6250.561820385297
 20
482.2234333540444
 10
6250.561820385297
 20
497.9213235986232
 10
6248.131631646571
 20
500.7784664557661
 10
6248.131631646571
 20
507.9213235986232
 10
6245.147671613755
 20
511.42952852028026
 10
6239.072199766937
 20
511.42952852028026
 10
6237.857105397574
 20
512.8580999488518
 10
6223.275972965212
 20
512.8580999488518
 10
6222.0608785958475
 20
514.2866713774231
 10
6219.649698759609
 20
514.2866713774231
 10
6214.753743111934
 20
517.1647286420139
 10
6203.173139980119
 20
529.3467245865083
 10
6203.173139980119
 20
530.852019156223
 10
6206.27677495762
 20
534.5009244308768
 10
6211.137152435074
 20
533.0723530023055
 10
6212.340123640939
 20
534.4866713774231
 10
6218.434604390246
 20
534.4866713774231
 10
6223.304211948431
 20
537.3492400804708
 10
6230.599848172427
 20
535.9196751943142
 10
6236.665894921587
 20
538.7723856631374
 10
6244.025025463205
 20
538.7723856631374
 10
6245.240119832568
 20
537.343814234566
 10
6250.031932984586
 20
537.343814234566
 10
6256.067598342442
 20
540.1822370929216
 10
6258.513709676755
 20
543.0580999488516
 10
6262.1589927848445
 20
543.0580999488516
 10
6263.398566926317
 20
544.5154519428618
 10
6265.828755665043
 20
543.0868805142902
 10
6267.013056138486
 20
544.4792479401141
 10
6275.610658632165
 20
545.9232615065098
 10
6281.139179619387
 20
539.4234477276515
 10
6281.139179619387
 20
536.558708816604
 10
6284.784462727477
 20
530.8444231023183
 10
6284.784462727477
 20
525.1273363607861
 10
6289.627153396261
 20
516.5870990328111
 10
6295.012764867068
 20
510.2553022056967
 10
6296.181635127024
 20
511.6295285202802
 10
6303.472201343206
 20
511.6295285202802
 10
6304.733519821975
 20
513.1124450628398
 10
6305.994838300745
 20
511.6295285202802
 10
6310.762767559387
 20
511.6295285202802
 10
6311.97786192875
 20
513.0580999488518
 10
6319.28743704742
 20
513.0580999488518
 10
6321.766585330363
 20
514.5154519428618
 10
6323.006159471835
 20
513.0580999488518
 10
6325.343899991749
 20
513.0580999488518
 10
6326.558994361113
 20
514.4866713774231
 10
6332.634466207931
 20
514.4866713774231
 10
6333.849560577294
 20
515.9152428059945
 10
6338.793953745528
 20
515.9152428059945
 10
6343.654331222982
 20
511.6295285202802
 10
6347.318077158295
 20
511.6295285202802
 10
6350.422514295255
 20
506.519740811222
 10
6349.181894297894
 20
505.0611592173736
 10
6347.966799928531
 20
487.9183020745165
 10
6345.539181195654
 20
485.0641807414803
 10
6345.539181195654
 20
477.9317206797743
 10
6343.130479667402
 20
473.6838997656435
 10
6349.751900050763
 20
465.8991776776097
 10
6353.397183158854
 20
464.47060624903816
 10
6356.516402091168
 20
460.80337911136627
 10
6343.687275220992
 20
450.02977492393916
 10
6337.600956357128
 20
442.8741650772366
 10
6333.955673249037
 20
441.44559364866507
 10
6329.081631318653
 20
435.7152428059946
 10
6311.996870831239
 20
435.7152428059946
  0
LWPOLYLINE
  5
38
330
17
100
AcDbEntity
  8
GRAY_M
100
AcDbPolyline
 90
39
 70
1
 10
6726.196419320013
 20
146.5142049805026
 10
6734.632423934757
 20
160.8424947924989
 10
6734.632423934757
 20
163.71325451868458
 10
6740.199612044163
 20
169.38667137742314
 10
6738.837892738797
 20
170.77437395044748
 10
6738.837892738797
 20
173.71325451868447
 10
6740.246142151623
 20
175.14837505045466
 10
6741.647546047135
 20
183.71724141220335
 10
6755.659767954957
 20
199.424792851412
 10
6755.659767954957
 20
202.28468309011316
 10
6757.820526333091
 20
204.48667137742305
 10
6762.109947184904
 20
204.48667137742305
 10
6764.318877464599
 20
202.23559200982876
 10
6757.309762791198
 20
196.52130629554298
 10
6758.70351745363
 20
195.10095709170895
 10
6746.047007412197
 20
182.20294537901893
 10
6746.047007412197
 20
179.3568676167493
 10
6743.2582248140025
 20
175.09387365183628
 10
6744.6661442647555
 20
172.22430510459986
 10
6741.8940658312085
 20
169.39933202850443
 10
6746.636991868389
 20
165.9468842718217
 10
6760.624172202451
 20
180.2009570917088
 10
6763.42781807181
 20
180.2009570917088
 10
6769.014370528964
 20
185.89410779360193
 10
6776.118551058777
 20
190.23794997676114
 10
6781.08499693044
 20
182.28461726556665
 10
6783.888351573525
 20
172.2856560068643
 10
6786.699872517917
 20
167.98790370952577
 10
6786.699872517917
 20
165.06008823616182
 10
6784.554932447835
 20
162.874220089543
 10
6774.742171905075
 20
158.58850580382878
 10
6771.922707727664
 20
155.7152428059946
 10
6767.709102351044
 20
155.7152428059946
 10
6762.101810612325
 20
151.42952852028034
 10
6759.288333804069
 20
151.42952852028034
 10
6753.708032359243
 20
148.58613831397182
 10
6745.274833435216
 20
142.8567285403217
 10
6729.081348821415
 20
143.5742275003321
 10
6726.196419320013
 20
146.5142049805026
  0
LWPOLYLINE
  5
39
330
17
100
AcDbEntity
  8
GRAY_M
100
AcDbPolyline
 90
5
 70
1
 10
6760.666148226337
 20
195.95801978368976
 10
6762.908986257671
 20
193.6723856631374
 10
6760.666148226337
 20
191.38675154258522
 10
6758.423310195003
 20
193.6723856631374
 10
6760.666148226337
 20
195.95801978368976
  0
LWPOLYLINE
  5
3A
330
17
100
AcDbEntity
  8
GRAY_M
100
AcDbPolyline
 90
13
 70
1
 10
7405.4006189803185
 20
271.4349411322808
 10
7403.445114188542
 20
273.62813484607017
 10
7402.1713652002945
 20
282.1995634174986
 10
7400.85816110862
 20
283.67238566313745
 10
7404.131696008414
 20
287.343814234566
 10
7407.952942973155
 20
287.343814234566
 10
7409.2266919614
 20
288.77238566313736
 10
7418.142934879127
 20
288.77238566313736
 10
7419.449988415935
 20
290.2383097624112
 10
7424.037739627056
 20
286.5630339976765
 10
7418.912255453582
 20
272.19183465741384
 10
7416.953713618291
 20
269.9952347516431
 10
7405.4006189803185
 20
271.4349411322808
  0
LWPOLYLINE
  5
3B
330
17
100
AcDbEntity
  8
GRAY_M
100
AcDbPolyline
 90
23
 70
1
 10
8139.555352912516
 20
265.00430753644935
 10
8130.654057989935
 20
271.4578225842587
 10
8126.974447771266
 20
276.49690387757585
 10
8126.974447771266
 20
277.99072459155616
 10
8130.654872956924
 20
283.03092195007383
 10
8134.867218770611
 20
285.91524280599447
 10
8139.020027278067
 20
285.91524280599447
 10
8141.106354416164
 20
288.77238566313736
 10
8144.235845123316
 20
288.77238566313736
 10
8145.279008692364
 20
290.2009570917089
 10
8152.581153675714
 20
290.2009570917089
 10
8153.624317244763
 20
291.62952852028025
 10
8161.028065302656
 20
291.62952852028025
 10
8163.685172688007
 20
287.99072459155616
 10
8163.685172688007
 20
283.695433206138
 10
8165.787760880969
 20
279.37631560900064
 10
8162.085757092155
 20
274.3065672032147
 10
8158.956266385005
 20
272.87799577464335
 10
8156.855411026456
 20
270.0009570917089
 10
8153.725920319307
 20
270.0009570917089
 10
8151.656397577931
 20
267.16682719413063
 10
8146.393593326953
 20
264.2839459240495
 10
8139.555352912516
 20
265.00430753644935
  0
LWPOLYLINE
  5
3C
330
17
100
AcDbEntity
  8
GRAY_M
100
AcDbPolyline
 90
35
 70
1
 10
8078.990475762311
 20
357.9314024882
 10
8077.944580451289
 20
373.6868393461011
 10
8078.999833143954
 20
376.5770933606963
 10
8081.629226583605
 20
380.1779441321441
 10
8086.941624334562
 20
383.0879919403275
 10
8087.986166904991
 20
381.65753202367335
 10
8096.276945952904
 20
385.9152428059945
 10
8101.466138792274
 20
385.9152428059945
 10
8103.552465930374
 20
388.7723856631374
 10
8106.681956637523
 20
388.7723856631374
 10
8107.75237264184
 20
390.2382782286201
 10
8109.862248881944
 20
388.79358201612644
 10
8118.231106536347
 20
394.52399251433434
 10
8119.301522540665
 20
393.05809994885163
 10
8121.286246604219
 20
393.05809994885163
 10
8122.32941017327
 20
394.48667137742297
 10
8124.518700065046
 20
394.48667137742297
 10
8147.017414282377
 20
362.2424936802059
 10
8144.286646660587
 20
358.50281495838124
 10
8143.228515242747
 20
359.95188426644586
 10
8140.099024535596
 20
357.0947414093032
 10
8139.020027278067
 20
358.5723856631374
 10
8132.761045863766
 20
358.5723856631374
 10
8131.717882294717
 20
360.00095709170876
 10
8127.545228018517
 20
360.00095709170876
 10
8126.502064449468
 20
361.4295285202803
 10
8122.32941017327
 20
361.4295285202803
 10
8121.286246604219
 20
362.85809994885165
 10
8117.125611181363
 20
362.85809994885165
 10
8113.989131545932
 20
365.72162351403534
 10
8105.71265975496
 20
367.1384112883546
 10
8103.673914773662
 20
365.7424208047725
 10
8090.112788376015
 20
347.170992233344
 10
8085.831312251672
 20
344.2393357583594
 10
8078.990475762311
 20
357.9314024882
  0
ENDSEC
  0
SECTION
  2
OBJECTS
  0
DICTIONARY
  5
A
330
0
100
AcDbDictionary
281
1
  3
ACAD_COLOR
350
B
  3
ACAD_GROUP
350
C
  3
ACAD_LAYOUT
350
D
  3
ACAD_MATERIAL
350
E
  3
ACAD_MLEADERSTYLE
350
F
  3
ACAD_MLINESTYLE
350
10
  3
ACAD_PLOTSETTINGS
350
11
  3
ACAD_PLOTSTYLENAME
350
12
  3
ACAD_SCALELIST
350
14
  3
ACAD_TABLESTYLE
350
15
  3
ACAD_VISUALSTYLE
350
16
  3
EZDXF_META
350
2D
  0
DICTIONARY
  5
B
330
A
100
AcDbDictionary
281
1
  0
DICTIONARY
  5
C
330
A
100
AcDbDictionary
281
1
  0
DICTIONARY
  5
D
330
A
100
AcDbDictionary
281
1
  3
Model
350
1A
  3
Layout1
350
1E
  0
DICTIONARY
  5
E
330
A
100
AcDbDictionary
281
1
  3
ByBlock
350
1F
  3
ByLayer
350
20
  3
Global
350
21
  0
DICTIONARY
  5
F
330
A
100
AcDbDictionary
281
1
  3
Standard
350
2C
  0
DICTIONARY
  5
10
330
A
100
AcDbDictionary
281
1
  3
Standard
350
22
  0
DICTIONARY
  5
11
330
A
100
AcDbDictionary
281
1
  0
ACDBDICTIONARYWDFLT
  5
12
330
A
100
AcDbDictionary
281
1
  3
Normal
350
13
100
AcDbDictionaryWithDefault
340
13
  0
ACDBPLACEHOLDER
  5
13
330
12
  0
DICTIONARY
  5
14
330
A
100
AcDbDictionary
281
1
  0
DICTIONARY
  5
15
330
A
100
AcDbDictionary
281
1
  0
DICTIONARY
  5
16
330
A
100
AcDbDictionary
281
1
  0
LAYOUT
  5
1A
330
D
100
AcDbPlotSettings
  1

  4
A3
  6

 40
7.5
 41
20.0
 42
7.5
 43
20.0
 44
420.0
 45
297.0
 46
0.0
 47
0.0
 48
0.0
 49
0.0
140
0.0
141
0.0
142
1.0
143
1.0
 70
1024
 72
1
 73
0
 74
5
  7

 75
16
 76
0
 77
2
 78
300
147
1.0
148
0.0
149
0.0
100
AcDbLayout
  1
Model
 70
1
 71
0
 10
0.0
 20
0.0
 11
420.0
 21
297.0
 12
0.0
 22
0.0
 32
0.0
 14
1e+20
 24
1e+20
 34
1e+20
 15
-1e+20
 25
-1e+20
 35
-1e+20
146
0.0
 13
0.0
 23
0.0
 33
0.0
 16
1.0
 26
0.0
 36
0.0
 17
0.0
 27
1.0
 37
0.0
 76
1
330
17
  0
LAYOUT
  5
1E
330
D
100
AcDbPlotSettings
  1

  4
A3
  6

 40
7.5
 41
20.0
 42
7.5
 43
20.0
 44
420.0
 45
297.0
 46
0.0
 47
0.0
 48
0.0
 49
0.0
140
0.0
141
0.0
142
1.0
143
1.0
 70
0
 72
1
 73
0
 74
5
  7

 75
16
 76
0
 77
2
 78
300
147
1.0
148
0.0
149
0.0
100
AcDbLayout
  1
Layout1
 70
1
 71
1
 10
0.0
 20
0.0
 11
420.0
 21
297.0
 12
0.0
 22
0.0
 32
0.0
 14
1e+20
 24
1e+20
 34
1e+20
 15
-1e+20
 25
-1e+20
 35
-1e+20
146
0.0
 13
0.0
 23
0.0
 33
0.0
 16
1.0
 26
0.0
 36
0.0
 17
0.0
 27
1.0
 37
0.0
 76
1
330
1B
  0
MATERIAL
  5
1F
102
{ACAD_REACTORS
330
E
102
}
330
E
100
AcDbMaterial
  1
ByBlock
  2

 70
0
 40
1.0
 71
1
 41
1.0
 91
-1023410177
 42
1.0
 72
1
  3

 73
1
 74
1
 75
1
 44
0.5
 73
0
 45
1.0
 46
1.0
 77
1
  4

 78
1
 79
1
170
1
 48
1.0
171
1
  6

172
1
173
1
174
1
140
1.0
141
1.0
175
1
  7

176
1
177
1
178
1
143
1.0
179
1
  8

270
1
271
1
272
1
145
1.0
146
1.0
273
1
  9

274
1
275
1
276
1
 42
1.0
 72
1
  3

 73
1
 74
1
 75
1
 94
63
  0
MATERIAL
  5
20
102
{ACAD_REACTORS
330
E
102
}
330
E
100
AcDbMaterial
  1
ByLayer
  2

 70
0
 40
1.0
 71
1
 41
1.0
 91
-1023410177
 42
1.0
 72
1
  3

 73
1
 74
1
 75
1
 44
0.5
 73
0
 45
1.0
 46
1.0
 77
1
  4

 78
1
 79
1
170
1
 48
1.0
171
1
  6

172
1
173
1
174
1
140
1.0
141
1.0
175
1
  7

176
1
177
1
178
1
143
1.0
179
1
  8

270
1
271
1
272
1
145
1.0
146
1.0
273
1
  9

274
1
275
1
276
1
 42
1.0
 72
1
  3

 73
1
 74
1
 75
1
 94
63
  0
MATERIAL
  5
21
102
{ACAD_REACTORS
330
E
102
}
330
E
100
AcDbMaterial
  1
Global
  2

 70
0
 40
1.0
 71
1
 41
1.0
 91
-1023410177
 42
1.0
 72
1
  3

 73
1
 74
1
 75
1
 44
0.5
 73
0
 45
1.0
 46
1.0
 77
1
  4

 78
1
 79
1
170
1
 48
1.0
171
1
  6

172
1
173
1
174
1
140
1.0
141
1.0
175
1
  7

176
1
177
1
178
1
143
1.0
179
1
  8

270
1
271
1
272
1
145
1.0
146
1.0
273
1
  9

274
1
275
1
276
1
 42
1.0
 72
1
  3

 73
1
 74
1
 75
1
 94
63
  0
MLINESTYLE
  5
22
102
{ACAD_REACTORS
330
10
102
}
330
10
100
AcDbMlineStyle
  2
Standard
 70
0
  3

 62
256
 51
90.0
 52
90.0
 71
2
 49
0.5
 62
256
  6
BYLAYER
 49
-0.5
 62
256
  6
BYLAYER
  0
MLEADERSTYLE
  5
2C
102
{ACAD_REACTORS
330
F
102
}
330
F
100
AcDbMLeaderStyle
179
2
170
2
171
1
172
0
 90
2
 40
0.0
 41
0.0
173
1
 91
-1056964608
 92
-2
290
1
 42
2.0
291
1
 43
8.0
  3
Standard
 44
4.0
300

342
29
174
1
175
1
176
0
178
1
 93
-1056964608
 45
4.0
292
0
297
0
 46
4.0
 94
-1056964608
 47
1.0
 49
1.0
140
1.0
294
1
141
0.0
177
0
142
1.0
295
0
296
0
143
3.75
271
0
272
9
273
9
  0
DICTIONARY
  5
2D
330
A
100
AcDbDictionary
280
1
281
1
  3
CREATED_BY_EZDXF
350
2E
  3
WRITTEN_BY_EZDXF
350
3F
  0
DICTIONARYVAR
  5
2E
330
2D
100
DictionaryVariables
280
0
  1
1.4.4 @ 2026-07-21T20:34:35.018523+00:00
  0
DICTIONARYVAR
  5
3F
330
2D
100
DictionaryVariables
280
0
  1
1.4.4 @ 2026-07-21T20:34:35.022247+00:00
  0
ENDSEC
  0
EOF
