  0
SECTION
  2
HEADER
  9
$ACADVER
  1
AC1027
  9
$ACADMAINTVER
 70
105
  9
$DWGCODEPAGE
  3
ANSI_1252
  9
$LASTSAVEDBY
  1
ezdxf
  9
$REQUIREDVERSIONS
160
0
  9
$INSBASE
 10
0.0
 20
0.0
 30
0.0
  9
$EXTMIN
 10
1e+20
 20
1e+20
 30
1e+20
  9
$EXTMAX
 10
-1e+20
 20
-1e+20
 30
-1e+20
  9
$LIMMIN
 10
0.0
 20
0.0
  9
$LIMMAX
 10
420.0
 20
297.0
  9
$ORTHOMODE
 70
0
  9
$REGENMODE
 70
1
  9
$FILLMODE
 70
1
  9
$QTEXTMODE
 70
0
  9
$MIRRTEXT
 70
1
  9
$LTSCALE
 40
1.0
  9
$ATTMODE
 70
1
  9
$TEXTSIZE
 40
2.5
  9
$TRACEWID
 40
1.0
  9
$TEXTSTYLE
  7
Standard
  9
$CLAYER
  8
0
  9
$CELTYPE
  6
ByLayer
  9
$CECOLOR
 62
256
  9
$CELTSCALE
 40
1.0
  9
$DISPSILH
 70
0
  9
$DIMSCALE
 40
1.0
  9
$DIMASZ
 40
2.5
  9
$DIMEXO
 40
0.625
  9
$DIMDLI
 40
3.75
  9
$DIMRND
 40
0.0
  9
$DIMDLE
 40
0.0
  9
$DIMEXE
 40
1.25
  9
$DIMTP
 40
0.0
  9
$DIMTM
 40
0.0
  9
$DIMTXT
 40
2.5
  9
$DIMCEN
 40
2.5
  9
$DIMTSZ
 40
0.0
  9
$DIMTOL
 70
0
  9
$DIMLIM
 70
0
  9
$DIMTIH
 70
0
  9
$DIMTOH
 70
0
  9
$DIMSE1
 70
0
  9
$DIMSE2
 70
0
  9
$DIMTAD
 70
1
  9
$DIMZIN
 70
8
  9
$DIMBLK
  1

  9
$DIMASO
 70
1
  9
$DIMSHO
 70
1
  9
$DIMPOST
  1

  9
$DIMAPOST
  1

  9
$DIMALT
 70
0
  9
$DIMALTD
 70
3
  9
$DIMALTF
 40
0.03937007874
  9
$DIMLFAC
 40
1.0
  9
$DIMTOFL
 70
1
  9
$DIMTVP
 40
0.0
  9
$DIMTIX
 70
0
  9
$DIMSOXD
 70
0
  9
$DIMSAH
 70
0
  9
$DIMBLK1
  1

  9
$DIMBLK2
  1

  9
$DIMSTYLE
  2
ISO-25
  9
$DIMCLRD
 70
0
  9
$DIMCLRE
 70
0
  9
$DIMCLRT
 70
0
  9
$DIMTFAC
 40
1.0
  9
$DIMGAP
 40
0.625
  9
$DIMJUST
 70
0
  9
$DIMSD1
 70
0
  9
$DIMSD2
 70
0
  9
$DIMTOLJ
 70
0
  9
$DIMTZIN
 70
8
  9
$DIMALTZ
 70
0
  9
$DIMALTTZ
 70
0
  9
$DIMUPT
 70
0
  9
$DIMDEC
 70
2
  9
$DIMTDEC
 70
2
  9
$DIMALTU
 70
2
  9
$DIMALTTD
 70
3
  9
$DIMTXSTY
  7
Standard
  9
$DIMAUNIT
 70
0
  9
$DIMADEC
 70
0
  9
$DIMALTRND
 40
0.0
  9
$DIMAZIN
 70
0
  9
$DIMDSEP
 70
44
  9
$DIMATFIT
 70
3
  9
$DIMFRAC
 70
0
  9
$DIMLDRBLK
  1

  9
$DIMLUNIT
 70
2
  9
$DIMLWD
 70
-2
  9
$DIMLWE
 70
-2
  9
$DIMTMOVE
 70
0
  9
$DIMFXL
 40
1.0
  9
$DIMFXLON
 70
0
  9
$DIMJOGANG
 40
0.785398163397
  9
$DIMTFILL
 70
0
  9
$DIMTFILLCLR
 70
0
  9
$DIMARCSYM
 70
0
  9
$DIMLTYPE
  6

  9
$DIMLTEX1
  6

  9
$DIMLTEX2
  6

  9
$DIMTXTDIRECTION
 70
0
  9
$LUNITS
 70
2
  9
$LUPREC
 70
4
  9
$SKETCHINC
 40
1.0
  9
$FILLETRAD
 40
10.0
  9
$AUNITS
 70
0
  9
$AUPREC
 70
2
  9
$MENU
  1
.
  9
$ELEVATION
 40
0.0
  9
$PELEVATION
 40
0.0
  9
$THICKNESS
 40
0.0
  9
$LIMCHECK
 70
0
  9
$CHAMFERA
 40
0.0
  9
$CHAMFERB
 40
0.0
  9
$CHAMFERC
 40
0.0
  9
$CHAMFERD
 40
0.0
  9
$SKPOLY
 70
0
  9
$TDCREATE
 40
2461243.982337963
  9
$TDUCREATE
 40
2458532.153996898
  9
$TDUPDATE
 40
2461243.982337963
  9
$TDUUPDATE
 40
2458532.1544311
  9
$TDINDWG
 40
0.0
  9
$TDUSRTIMER
 40
0.0
  9
$USRTIMER
 70
1
  9
$ANGBASE
 50
0.0
  9
$ANGDIR
 70
0
  9
$PDMODE
 70
0
  9
$PDSIZE
 40
0.0
  9
$PLINEWID
 40
0.0
  9
$SPLFRAME
 70
0
  9
$SPLINETYPE
 70
6
  9
$SPLINESEGS
 70
8
  9
$HANDSEED
  5
48
  9
$SURFTAB1
 70
6
  9
$SURFTAB2
 70
6
  9
$SURFTYPE
 70
6
  9
$SURFU
 70
6
  9
$SURFV
 70
6
  9
$UCSBASE
  2

  9
$UCSNAME
  2

  9
$UCSORG
 10
0.0
 20
0.0
 30
0.0
  9
$UCSXDIR
 10
1.0
 20
0.0
 30
0.0
  9
$UCSYDIR
 10
0.0
 20
1.0
 30
0.0
  9
$UCSORTHOREF
  2

  9
$UCSORTHOVIEW
 70
0
  9
$UCSORGTOP
 10
0.0
 20
0.0
 30
0.0
  9
$UCSORGBOTTOM
 10
0.0
 20
0.0
 30
0.0
  9
$UCSORGLEFT
 10
0.0
 20
0.0
 30
0.0
  9
$UCSORGRIGHT
 10
0.0
 20
0.0
 30
0.0
  9
$UCSORGFRONT
 10
0.0
 20
0.0
 30
0.0
  9
$UCSORGBACK
 10
0.0
 20
0.0
 30
0.0
  9
$PUCSBASE
  2

  9
$PUCSNAME
  2

  9
$PUCSORG
 10
0.0
 20
0.0
 30
0.0
  9
$PUCSXDIR
 10
1.0
 20
0.0
 30
0.0
  9
$PUCSYDIR
 10
0.0
 20
1.0
 30
0.0
  9
$PUCSORTHOREF
  2

  9
$PUCSORTHOVIEW
 70
0
  9
$PUCSORGTOP
 10
0.0
 20
0.0
 30
0.0
  9
$PUCSORGBOTTOM
 10
0.0
 20
0.0
 30
0.0
  9
$PUCSORGLEFT
 10
0.0
 20
0.0
 30
0.0
  9
$PUCSORGRIGHT
 10
0.0
 20
0.0
 30
0.0
  9
$PUCSORGFRONT
 10
0.0
 20
0.0
 30
0.0
  9
$PUCSORGBACK
 10
0.0
 20
0.0
 30
0.0
  9
$USERI1
 70
0
  9
$USERI2
 70
0
  9
$USERI3
 70
0
  9
$USERI4
 70
0
  9
$USERI5
 70
0
  9
$USERR1
 40
0.0
  9
$USERR2
 40
0.0
  9
$USERR3
 40
0.0
  9
$USERR4
 40
0.0
  9
$USERR5
 40
0.0
  9
$WORLDVIEW
 70
1
  9
$SHADEDGE
 70
3
  9
$SHADEDIF
 70
70
  9
$TILEMODE
 70
1
  9
$MAXACTVP
 70
64
  9
$PINSBASE
 10
0.0
 20
0.0
 30
0.0
  9
$PLIMCHECK
 70
0
  9
$PEXTMIN
 10
1e+20
 20
1e+20
 30
1e+20
  9
$PEXTMAX
 10
-1e+20
 20
-1e+20
 30
-1e+20
  9
$PLIMMIN
 10
0.0
 20
0.0
  9
$PLIMMAX
 10
420.0
 20
297.0
  9
$UNITMODE
 70
0
  9
$VISRETAIN
 70
1
  9
$PLINEGEN
 70
0
  9
$PSLTSCALE
 70
1
  9
$TREEDEPTH
 70
3020
  9
$CMLSTYLE
  2
Standard
  9
$CMLJUST
 70
0
  9
$CMLSCALE
 40
20.0
  9
$PROXYGRAPHICS
 70
1
  9
$MEASUREMENT
 70
1
  9
$CELWEIGHT
370
-1
  9
$ENDCAPS
280
0
  9
$JOINSTYLE
280
0
  9
$LWDISPLAY
290
0
  9
$INSUNITS
 70
4
  9
$HYPERLINKBASE
  1

  9
$STYLESHEET
  1

  9
$XEDIT
290
1
  9
$CEPSNTYPE
380
0
  9
$PSTYLEMODE
290
1
  9
$FINGERPRINTGUID
  2
{F29602B2-4932-40FE-89FF-8E25E93258C8}
  9
$VERSIONGUID
  2
{60134CFE-C4CF-4ACE-9A03-D36306545866}
  9
$EXTNAMES
290
1
  9
$PSVPSCALE
 40
0.0
  9
$OLESTARTUP
290
0
  9
$SORTENTS
280
127
  9
$INDEXCTL
280
0
  9
$HIDETEXT
280
1
  9
$XCLIPFRAME
280
1
  9
$HALOGAP
280
0
  9
$OBSCOLOR
 70
257
  9
$OBSLTYPE
280
0
  9
$INTERSECTIONDISPLAY
280
0
  9
$INTERSECTIONCOLOR
 70
257
  9
$DIMASSOC
280
2
  9
$PROJECTNAME
  1

  9
$CAMERADISPLAY
290
0
  9
$LENSLENGTH
 40
50.0
  9
$CAMERAHEIGHT
 40
0.0
  9
$STEPSPERSEC
 40
24.0
  9
$STEPSIZE
 40
100.0
  9
$3DDWFPREC
 40
2.0
  9
$PSOLWIDTH
 40
0.005
  9
$PSOLHEIGHT
 40
0.08
  9
$LOFTANG1
 40
1.570796326795
  9
$LOFTANG2
 40
1.570796326795
  9
$LOFTMAG1
 40
0.0
  9
$LOFTMAG2
 40
0.0
  9
$LOFTPARAM
 70
7
  9
$LOFTNORMALS
280
1
  9
$LATITUDE
 40
37.795
  9
$LONGITUDE
 40
-122.394
  9
$NORTHDIRECTION
 40
0.0
  9
$TIMEZONE
 70
-8000
  9
$LIGHTGLYPHDISPLAY
280
1
  9
$TILEMODELIGHTSYNCH
280
1
  9
$CMATERIAL
347
20
  9
$SOLIDHIST
280
0
  9
$SHOWHIST
280
1
  9
$DWFFRAME
280
2
  9
$DGNFRAME
280
2
  9
$REALWORLDSCALE
290
1
  9
$INTERFERECOLOR
 62
256
  9
$CSHADOW
280
0
  9
$SHADOWPLANELOCATION
 40
0.0
  0
ENDSEC
  0
SECTION
  2
CLASSES
  0
CLASS
  1
ACDBDICTIONARYWDFLT
  2
AcDbDictionaryWithDefault
  3
ObjectDBX Classes
 90
0
 91
0
280
0
281
0
  0
CLASS
  1
SUN
  2
AcDbSun
  3
SCENEOE
 90
1153
 91
0
280
0
281
0
  0
CLASS
  1
VISUALSTYLE
  2
AcDbVisualStyle
  3
ObjectDBX Classes
 90
4095
 91
0
280
0
281
0
  0
CLASS
  1
MATERIAL
  2
AcDbMaterial
  3
ObjectDBX Classes
 90
1153
 91
0
280
0
281
0
  0
CLASS
  1
SCALE
  2
AcDbScale
  3
ObjectDBX Classes
 90
1153
 91
0
280
0
281
0
  0
CLASS
  1
TABLESTYLE
  2
AcDbTableStyle
  3
ObjectDBX Classes
 90
4095
 91
0
280
0
281
0
  0
CLASS
  1
MLEADERSTYLE
  2
AcDbMLeaderStyle
  3
ACDB_MLEADERSTYLE_CLASS
 90
4095
 91
0
280
0
281
0
  0
CLASS
  1
DICTIONARYVAR
  2
AcDbDictionaryVar
  3
ObjectDBX Classes
 90
0
 91
0
280
0
281
0
  0
CLASS
  1
CELLSTYLEMAP
  2
AcDbCellStyleMap
  3
ObjectDBX Classes
 90
1152
 91
0
280
0
281
0
  0
CLASS
  1
MENTALRAYRENDERSETTINGS
  2
AcDbMentalRayRenderSettings
  3
SCENEOE
 90
1024
 91
0
280
0
281
0
  0
CLASS
  1
ACDBDETAILVIEWSTYLE
  2
AcDbDetailViewStyle
  3
ObjectDBX Classes
 90
1025
 91
0
280
0
281
0
  0
CLASS
  1
ACDBSECTIONVIEWSTYLE
  2
AcDbSectionViewStyle
  3
ObjectDBX Classes
 90
1025
 91
0
280
0
281
0
  0
CLASS
  1
RASTERVARIABLES
  2
AcDbRasterVariables
  3
ISM
 90
0
 91
0
280
0
281
0
  0
CLASS
  1
LAYOUT
  2
AcDbLayout
  3
ObjectDBX Classes
 90
0
 91
0
280
0
281
0
  0
CLASS
  1
ACDBPLACEHOLDER
  2
AcDbPlaceHolder
  3
ObjectDBX Classes
 90
0
 91
0
280
0
281
0
  0
ENDSEC
  0
SECTION
  2
TABLES
  0
TABLE
  2
VPORT
  5
8
330
0
100
AcDbSymbolTable
 70
1
  0
VPORT
  5
23
330
8
100
AcDbSymbolTableRecord
100
AcDbViewportTableRecord
  2
*Active
 70
0
 10
0.0
 20
0.0
 11
1.0
 21
1.0
 12
0.0
 22
0.0
 13
0.0
 23
0.0
 14
0.5
 24
0.5
 15
0.5
 25
0.5
 16
0.0
 26
0.0
 36
1.0
 17
0.0
 27
0.0
 37
0.0
 40
1000.0
 41
1.34
 42
50.0
 43
0.0
 44
0.0
 50
0.0
 51
0.0
 71
0
 72
1000
 73
1
 74
3
 75
0
 76
0
 77
0
 78
0
281
0
 65
0
146
0.0
  0
ENDTAB
  0
TABLE
  2
LTYPE
  5
2
330
0
100
AcDbSymbolTable
 70
3
  0
LTYPE
  5
24
330
2
100
AcDbSymbolTableRecord
100
AcDbLinetypeTableRecord
  2
ByBlock
 70
0
  3

 72
65
 73
0
 40
0.0
  0
LTYPE
  5
25
330
2
100
AcDbSymbolTableRecord
100
AcDbLinetypeTableRecord
  2
ByLayer
 70
0
  3

 72
65
 73
0
 40
0.0
  0
LTYPE
  5
26
330
2
100
AcDbSymbolTableRecord
100
AcDbLinetypeTableRecord
  2
Continuous
 70
0
  3

 72
65
 73
0
 40
0.0
  0
ENDTAB
  0
TABLE
  2
LAYER
  5
1
330
0
100
AcDbSymbolTable
 70
3
  0
LAYER
  5
27
330
1
100
AcDbSymbolTableRecord
100
AcDbLayerTableRecord
  2
0
 70
0
 62
7
  6
Continuous
370
-3
390
13
347
21
  0
LAYER
  5
28
330
1
100
AcDbSymbolTableRecord
100
AcDbLayerTableRecord
  2
Defpoints
 70
0
 62
7
  6
Continuous
290
0
370
-3
390
13
347
21
  0
LAYER
  5
2F
330
1
100
AcDbSymbolTableRecord
100
AcDbLayerTableRecord
  2
GRAY_D
 70
0
 62
7
  6
Continuous
370
-3
390
13
347
21
  0
ENDTAB
  0
TABLE
  2
STYLE
  5
5
330
0
100
AcDbSymbolTable
 70
1
  0
STYLE
  5
29
330
5
100
AcDbSymbolTableRecord
100
AcDbTextStyleTableRecord
  2
Standard
 70
0
 40
0.0
 41
1.0
 50
0.0
 71
0
 42
2.5
  3
txt
  4

  0
ENDTAB
  0
TABLE
  2
VIEW
  5
7
330
0
100
AcDbSymbolTable
 70
0
  0
ENDTAB
  0
TABLE
  2
UCS
  5
6
330
0
100
AcDbSymbolTable
 70
0
  0
ENDTAB
  0
TABLE
  2
APPID
  5
3
330
0
100
AcDbSymbolTable
 70
3
  0
APPID
  5
2A
330
3
100
AcDbSymbolTableRecord
100
AcDbRegAppTableRecord
  2
ACAD
 70
0
  0
APPID
  5
45
330
3
100
AcDbSymbolTableRecord
100
AcDbRegAppTableRecord
  2
HATCHBACKGROUNDCOLOR
 70
0
  0
APPID
  5
46
330
3
100
AcDbSymbolTableRecord
100
AcDbRegAppTableRecord
  2
EZDXF
 70
0
  0
ENDTAB
  0
TABLE
  2
DIMSTYLE
  5
4
330
0
100
AcDbSymbolTable
 70
1
100
AcDbDimStyleTable
  0
DIMSTYLE
105
2B
330
4
100
AcDbSymbolTableRecord
100
AcDbDimStyleTableRecord
  2
Standard
 70
0
 40
1.0
 41
2.5
 42
0.625
 43
3.75
 44
1.25
 45
0.0
 46
0.0
 47
0.0
 48
0.0
 49
2.5
140
2.5
141
2.5
142
0.0
143
0.03937007874
144
1.0
145
0.0
146
1.0
147
0.625
148
0.0
 69
0
 70
0
 71
0
 72
0
 73
0
 74
0
 75
0
 76
0
 77
1
 78
8
 79
3
170
0
171
3
172
1
173
0
174
0
175
0
176
0
177
0
178
0
179
2
271
2
272
2
273
2
274
3
275
0
276
0
277
2
278
44
279
0
280
0
281
0
282
0
283
0
284
8
285
0
286
0
288
0
289
3
290
0
371
-2
372
-2
  0
ENDTAB
  0
TABLE
  2
BLOCK_RECORD
  5
9
330
0
100
AcDbSymbolTable
 70
2
  0
BLOCK_RECORD
  5
17
330
9
100
AcDbSymbolTableRecord
100
AcDbBlockTableRecord
  2
*Model_Space
340
1A
 70
0
280
1
281
0
  0
BLOCK_RECORD
  5
1B
330
9
100
AcDbSymbolTableRecord
100
AcDbBlockTableRecord
  2
*Paper_Space
340
1E
 70
0
280
1
281
0
  0
ENDTAB
  0
ENDSEC
  0
SECTION
  2
BLOCKS
  0
BLOCK
  5
18
330
17
100
AcDbEntity
  8
0
100
AcDbBlockBegin
  2
*Model_Space
 70
0
 10
0.0
 20
0.0
 30
0.0
  3
*Model_Space
  1

  0
ENDBLK
  5
19
330
17
100
AcDbEntity
  8
0
100
AcDbBlockEnd
  0
BLOCK
  5
1C
330
1B
100
AcDbEntity
  8
0
100
AcDbBlockBegin
  2
*Paper_Space
 70
0
 10
0.0
 20
0.0
 30
0.0
  3
*Paper_Space
  1

  0
ENDBLK
  5
1D
330
1B
100
AcDbEntity
  8
0
100
AcDbBlockEnd
  0
ENDSEC
  0
SECTION
  2
ENTITIES
  0
LWPOLYLINE
  5
30
330
17
100
AcDbEntity
  8
GRAY_D
100
AcDbPolyline
 90
20
 70
1
 10
219.93013807092652
 20
460.0156595402345
 10
218.77555781991373
 20
461.4296737469688
 10
215.2669286563994
 20
461.4296737469688
 10
208.8151681958371
 20
472.2044052506471
 10
206.4651034023076
 20
480.8387769243758
 10
209.4387404373865
 20
484.48058961741714
 10
219.93693992973115
 20
485.90916104598847
 10
221.10849104043476
 20
487.34395946125454
 10
226.94082409173728
 20
487.34395946125454
 10
228.1547393844661
 20
488.8306412819292
 10
229.36865467719494
 20
487.34395946125454
 10
233.9396237533003
 20
487.34395946125454
 10
235.10609036356087
 20
488.7725308898259
 10
238.700387559279
 20
488.7725308898259
 10
241.6674090558238
 20
485.13882024552845
 10
242.8338756660843
 20
460.85310595981423
 10
244.00203862298295
 20
459.42245701584807
 10
244.00203862298295
 20
456.4940333352323
 10
241.01940929482345
 20
452.8412077826207
 10
219.93013807092652
 20
460.0156595402345
  0
LWPOLYLINE
  5
31
330
17
100
AcDbEntity
  8
GRAY_D
100
AcDbPolyline
 90
12
 70
1
 10
220.44360507258628
 20
246.52967374696888
 10
221.63917302803335
 20
247.99388558727676
 10
221.63917302803335
 20
260.8510284444196
 10
225.7743574814768
 20
265.915388032683
 10
237.4390235840819
 20
265.915388032683
 10
238.65293887681068
 20
267.4020698533579
 10
241.66910540246198
 20
263.7081713015625
 10
241.66910540246198
 20
255.06883074137488
 10
232.88998266045266
 20
242.88346885638924
 10
230.50628609881687
 20
241.42381250086942
 10
223.43395486190656
 20
242.86739294708948
 10
220.44360507258628
 20
246.52967374696888
  0
LWPOLYLINE
  5
32
330
17
100
AcDbEntity
  8
GRAY_D
100
AcDbPolyline
 90
81
 70
1
 10
94.49431250963794
 20
23.70817130156244
 10
94.49431250963794
 20
29.402733411190816
 10
96.82724573015896
 20
36.54559055404793
 10
96.82724573015896
 20
40.85102844441957
 10
99.16017895067993
 20
43.708171301562345
 10
99.16017895067993
 20
46.48966664764443
 10
90.99491267885642
 20
55.06109521907299
 10
90.99491267885642
 20
60.85102844441958
 10
93.33256007322063
 20
63.713944749342666
 10
95.66464104867626
 20
80.85053942601428
 10
99.78845799553973
 20
87.3439594612545
 10
112.62709628620752
 20
87.3439594612545
 10
113.793562896468
 20
88.77253088982596
 10
120.79236255803103
 20
88.77253088982596
 10
123.66095964802868
 20
92.28570118274881
 10
127.1603594788102
 20
116.57141546846306
 10
131.29056205037563
 20
121.62967374696876
 10
162.78516052740935
 20
121.62967374696876
 10
166.28456035819087
 20
125.9153880326831
 10
168.70058064119632
 20
125.9153880326831
 10
172.19998047197785
 20
123.05824517554021
 10
175.69938030275935
 20
123.05824517554021
 10
179.19878013354094
 20
120.20110231839732
 10
185.03111318484346
 20
120.20110231839732
 10
188.530513015625
 20
117.34395946125453
 10
192.0299128464065
 20
117.34395946125453
 10
195.54171618525993
 20
114.4766895548447
 10
204.88368346702603
 20
111.61641318088155
 10
209.01298771819017
 20
106.55925507519493
 10
207.83612335077063
 20
97.91142171685885
 10
195.0104409920416
 20
85.05974026233143
 10
195.0104409920416
 20
63.708171301562366
 10
197.89331966178267
 20
60.1775103607316
 10
202.52065917958183
 20
57.34395946125448
 10
204.86104555927207
 20
57.34395946125448
 10
208.37284889812554
 20
54.47668955484475
 10
213.04894973884961
 20
53.04498460945295
 10
217.18834897725566
 20
47.97546317487323
 10
213.67077257746323
 20
39.35951292244677
 10
212.5029695627413
 20
32.20847230818169
 10
209.00250286401896
 20
26.49244446995247
 10
206.6712186275432
 20
15.07195108312709
 10
204.3290983545457
 20
9.335162606112778
 10
201.37345603094272
 20
5.715388032683122
 10
188.44742595314054
 20
5.715388032683122
 10
184.31224149969708
 20
10.77974762094669
 10
184.31224149969708
 20
13.642763846220207
 10
179.65490543173243
 20
20.77256205628597
 10
176.15710350187118
 20
32.19591495434171
 10
172.647575397092
 20
36.49403333523238
 10
172.647575397092
 20
39.35117619237527
 10
170.31464217657097
 20
42.20831904951805
 10
170.31464217657097
 20
45.06546190666094
 10
166.2706487610575
 20
50.01813984867531
 10
162.771248930276
 20
51.44671127724676
 10
159.81644268422636
 20
55.06546190666095
 10
159.81644268422636
 20
57.92260476380384
 10
158.6499760739659
 20
59.35117619237529
 10
158.6499760739659
 20
80.77974762094664
 10
155.7827984738669
 20
84.2911794648693
 10
140.61873254048032
 20
85.71975089344075
 10
139.48103962330424
 20
87.11308318574096
 10
137.1985290049934
 20
85.71538803268308
 10
132.4570286606361
 20
85.71538803268308
 10
131.29056205037563
 20
87.14395946125452
 10
126.71959297427018
 20
87.14395946125452
 10
123.85760683886501
 20
83.63888560312304
 10
125.02084141706996
 20
57.99584873126706
 10
129.06470941100477
 20
53.0433243930355
 10
137.22997568282833
 20
50.1861815358926
 10
141.35297692005824
 20
45.1367427301338
 10
141.35297692005824
 20
39.36718977863774
 10
139.01778776745095
 20
33.64737838518561
 10
137.8503531017554
 20
23.639079344076606
 10
134.3509532709739
 20
17.924793629790827
 10
133.1836514515661
 20
7.917633466440699
 10
130.23825626667315
 20
4.310408561777446
 10
127.86507954073132
 20
2.8571940266121088
 10
108.54303834669568
 20
3.5742758465152624
 10
93.29874455419082
 20
22.24395946125457
 10
94.49431250963794
 20
23.70817130156244
  0
LWPOLYLINE
  5
33
330
17
100
AcDbEntity
  8
GRAY_D
100
AcDbPolyline
 90
58
 70
1
 10
49.636614168253296
 20
247.1529402406998
 10
44.980525121277786
 20
251.42967374696877
 10
40.310438357547355
 20
251.42967374696877
 10
31.472165262953627
 20
260.8106742275209
 10
36.806766619274455
 20
267.34395946125454
 10
39.13969983979548
 20
267.34395946125454
 10
43.786302819216246
 20
273.0346532178747
 10
50.7851024807793
 20
277.3203675035891
 10
54.805346415594094
 20
282.24395946125446
 10
50.82454502799
 20
287.1192461390948
 10
45.0426596906611
 20
284.2868166041117
 10
40.40106381499262
 20
284.2868166041117
 10
39.238448021616605
 20
282.86296127022246
 10
25.146141930454558
 20
281.42472422829945
 10
22.173382673486426
 20
285.0654619066608
 10
22.173382673486426
 20
287.9226047638037
 10
18.680933660633865
 20
292.1998063841651
 10
17.514467050373376
 20
297.91409209845085
 10
15.13599043167338
 20
300.8270119464018
 10
19.346723837870282
 20
304.5105007863076
 10
26.384201030245276
 20
300.20110231839726
 10
33.390453850977195
 20
300.20110231839726
 10
36.88985368175876
 20
297.3439594612546
 10
39.21533374311087
 20
297.3439594612546
 10
43.83077758194262
 20
294.5176928796254
 10
46.6691814889571
 20
297.9938855872768
 10
46.6691814889571
 20
309.3511761923751
 10
45.50271487869659
 20
310.7797476209464
 10
45.50271487869659
 20
313.7081713015626
 10
48.47143272187954
 20
317.3439594612546
 10
54.32302923480331
 20
317.3439594612546
 10
56.70638505753461
 20
318.8034071653396
 10
59.695600027979495
 20
315.142516177914
 10
60.86206663823998
 20
306.5710876064853
 10
63.19565483593561
 20
303.71314259892523
 10
64.3621214461961
 20
293.71314259892546
 10
67.22979585098429
 20
290.2011023183975
 10
76.46663136813173
 20
290.2011023183975
 10
77.63309797839227
 20
291.6296737469688
 10
81.13249780917378
 20
291.6296737469688
 10
100.96647159738761
 20
315.9203375513524
 10
115.05877768854958
 20
314.48210050942913
 10
118.02364471484807
 20
310.85102844441946
 10
118.02364471484807
 20
306.56531415870523
 10
119.18831004422229
 20
305.13894875848166
 10
120.35841225755026
 20
282.21056554353316
 10
117.38786009218613
 20
278.57253088982594
 10
115.04311656921276
 20
278.57253088982594
 10
111.54371673843124
 20
275.71538803268305
 10
108.03686374848084
 20
275.71538803268305
 10
103.41306610902865
 20
272.88400600206387
 10
97.01832695062382
 20
263.6284364299284
 10
93.51771762537972
 20
252.19591495434156
 10
88.23188606957453
 20
245.72235808572418
 10
78.90015318749047
 20
244.29378665715285
 10
77.72590746046102
 20
242.85568814580193
 10
64.25149865974663
 20
243.57317100722707
 10
49.636614168253296
 20
247.1529402406998
  0
LWPOLYLINE
  5
34
330
17
100
AcDbEntity
  8
GRAY_D
100
AcDbPolyline
 90
17
 70
1
 10
58.33384759156218
 20
115.13674273013386
 10
58.33384759156218
 20
139.41658364771746
 10
62.99971403260421
 20
146.5594407905746
 10
62.99971403260421
 20
149.41687951356454
 10
72.97008295532962
 20
164.5006963432919
 10
78.90986751801395
 20
163.0458057457418
 10
83.0250389471908
 20
156.56599906397594
 10
84.19049350333843
 20
149.42933923348545
 10
87.68726443709154
 20
145.14684455744563
 10
91.18666426787311
 20
130.8611302717314
 10
93.51710933378624
 20
128.00703465704822
 10
95.87451699376207
 20
120.78924291120308
 10
88.24184715405627
 20
112.87962584999833
 10
83.53968454118746
 20
110.00025703560024
 10
59.5517166323761
 20
110.71679507433984
 10
57.13827963611512
 20
113.67253088982598
 10
58.33384759156218
 20
115.13674273013386
  0
LWPOLYLINE
  5
35
330
17
100
AcDbEntity
  8
GRAY_D
100
AcDbPolyline
 90
26
 70
1
 10
2.3565258186377394
 20
10.867042030682006
 10
5.8519440903477
 20
15.147880101782917
 10
7.018410700608185
 20
19.433594387497255
 10
11.683064388484016
 20
25.146394843218456
 10
14.015232524031862
 20
35.143115345261045
 10
22.18159885331092
 20
46.57322647686068
 10
23.34894324425532
 20
50.86216581606884
 10
26.308567126929887
 20
54.486816604111695
 10
28.717134250766108
 20
54.486816604111695
 10
35.71593391232916
 20
50.20110231839736
 10
41.548266963631676
 20
50.20110231839736
 10
46.2141334046737
 20
47.343959461254585
 10
48.56633008681616
 20
47.343959461254585
 10
51.53148433457247
 20
43.71253563618171
 10
52.69795094483298
 20
32.283964207610374
 10
53.86798115052013
 20
30.85102844441956
 10
53.86798115052013
 20
23.692157715299977
 10
55.04813608947565
 20
20.80148667122639
 10
45.07026826405658
 20
7.143959461254568
 10
43.90046364577413
 20
7.143959461254568
 10
39.234597204732104
 20
1.4296737469687848
 10
34.56873076369005
 20
1.4296737469687848
 10
33.40136408110636
 20
0.0
 10
2.3832872039702133
 20
0.716751559652562
 10
0.0
 20
5.09496861583314
 10
2.3565258186377394
 20
10.867042030682006
  0
LWPOLYLINE
  5
36
330
17
100
AcDbEntity
  8
GRAY_D
100
AcDbPolyline
 90
33
 70
1
 10
670.1439960627794
 20
164.29314774512605
 10
664.7559676479816
 20
168.57253088982594
 10
662.5826650195985
 20
168.57253088982594
 10
659.8091211516805
 20
172.2439594612545
 10
663.080029072386
 20
176.57376470915352
 10
664.1592290209921
 20
180.85947899486777
 10
667.4014945431379
 20
185.15136938530142
 10
672.7974942861691
 20
198.0085122424442
 10
677.1016474828327
 20
203.70605725149395
 10
677.1016474828327
 20
205.13806268119205
 10
686.3288193954166
 20
215.91538803268318
 10
692.8878615295358
 20
215.91538803268318
 10
696.1344329599943
 20
213.05032786018586
 10
702.6204060559406
 20
211.61937958173826
 10
703.6918293807356
 20
210.2011023183974
 10
710.1670290723731
 20
210.2011023183974
 10
713.9809372717849
 20
205.15251026470915
 10
717.2476638304379
 20
197.94539318896233
 10
714.4916054906093
 20
194.29711076934208
 10
708.0164057989717
 20
192.86853934077052
 10
706.9294292265544
 20
191.42967374696883
 10
702.6126294321293
 20
191.42967374696883
 10
701.533429483523
 20
190.0011023183974
 10
690.7414299974607
 20
190.0011023183974
 10
689.6622300488544
 20
188.57253088982594
 10
687.503830151642
 20
188.57253088982594
 10
682.6976472258639
 20
182.21043309958662
 10
682.6976472258639
 20
176.49614738530096
 10
681.6184472772577
 20
175.0675759567295
 10
681.6184472772577
 20
169.36856007684875
 10
680.5277118854979
 20
166.4808775508959
 10
677.783636197613
 20
162.84845695023463
 10
670.1439960627794
 20
164.29314774512605
  0
LWPOLYLINE
  5
37
330
17
100
AcDbEntity
  8
GRAY_D
100
AcDbPolyline
 90
20
 70
1
 10
2574.0433024827853
 20
193.5781387735882
 10
2572.749144347397
 20
196.54770184259985
 10
2574.013930684485
 20
197.99878525122838
 10
2575.2529200978115
 20
215.0566258849369
 10
2570.9625974184005
 20
218.57253088982586
 10
2568.4474566249496
 20
218.57253088982586
 10
2566.5199860592493
 20
222.25816072902305
 10
2569.0305913010943
 20
225.13856630048522
 10
2569.0305913010943
 20
227.98281509830386
 10
2572.7829429481135
 20
235.15790738947206
 10
2577.1825345624834
 20
240.20553813084456
 10
2592.215330298665
 20
238.76828348432056
 10
2595.3790469219202
 20
235.13856630048525
 10
2595.3790469219202
 20
215.13856630048522
 10
2599.1229486741922
 20
210.84320545023672
 10
2596.6182386907226
 20
199.34863757308196
 10
2593.4668386676826
 20
194.28681660411164
 10
2583.4954763219107
 20
194.28681660411164
 10
2582.246747713374
 20
192.85415615183342
 10
2574.0433024827853
 20
193.5781387735882
  0
LWPOLYLINE
  5
38
330
17
100
AcDbEntity
  8
GRAY_D
100
AcDbPolyline
 90
72
 70
1
 10
4562.079020077482
 20
279.43184860119953
 10
4563.275739636171
 20
285.14317632939145
 10
4572.8239087511665
 20
297.95931878983816
 10
4565.675934007424
 20
307.9091222061037
 10
4562.0853829888565
 20
316.47705002300074
 10
4558.489233379835
 20
320.7676937305448
 10
4557.29189402134
 20
325.053408016259
 10
4550.097341442534
 20
333.6373839647033
 10
4551.294680801028
 20
376.49452682184625
 10
4550.098362393212
 20
377.921880132132
 10
4550.098362393212
 20
385.1374673618053
 10
4551.295701751706
 20
386.56603879037687
 10
4551.295701751706
 20
392.2803245046624
 10
4553.690380468694
 20
395.13746736180553
 10
4553.690380468694
 20
405.06473727498917
 10
4550.098362393212
 20
409.3504515607036
 10
4550.098362393212
 20
449.3504515607036
 10
4547.703683676224
 20
452.2075944178463
 10
4547.703683676224
 20
473.7088959332341
 10
4551.953715294499
 20
478.7797003775398
 10
4561.5324301624505
 20
477.35112894896827
 10
4562.72376050407
 20
478.7725308898259
 10
4570.001126961689
 20
478.7725308898259
 10
4573.047810204595
 20
475.1374673618054
 10
4573.047810204595
 20
462.20759441784634
 10
4570.653131487608
 20
459.35045156070345
 10
4570.653131487608
 20
445.13746736180536
 10
4573.546479883843
 20
441.68535094849125
 10
4574.692629574973
 20
443.0528468801986
 10
4586.759095282392
 20
444.4925229445635
 10
4589.810561223511
 20
440.85175307609114
 10
4589.810561223511
 20
437.99461021894825
 10
4592.205239940498
 20
435.13746736180536
 10
4592.205239940498
 20
427.9783515383884
 10
4593.418356234372
 20
425.0835610770745
 10
4592.205239940498
 20
423.63616584641784
 10
4592.205239940498
 20
407.92188013213206
 10
4589.158556697592
 20
404.2868166041116
 10
4585.5765571501415
 20
404.2868166041116
 10
4582.648879163138
 20
399.3965104996082
 10
4585.017475157477
 20
396.5704875017539
 10
4586.21481451597
 20
385.14191607318236
 10
4588.609493232959
 20
382.2847732160397
 10
4589.806832591452
 20
370.85620178746814
 10
4592.205239940498
 20
367.9946102189484
 10
4592.205239940498
 20
357.9946102189482
 10
4595.098588336733
 20
354.5424938056341
 10
4598.7006683170985
 20
358.84021316721237
 10
4602.994003128731
 20
352.2541797715706
 10
4599.400327394334
 20
343.67879562288886
 10
4604.18418157503
 20
335.11721612683965
 10
4602.975318558308
 20
329.34793391124373
 10
4598.7006683170985
 20
322.7905628981538
 10
4595.098588336733
 20
327.08828225973184
 10
4592.205239940498
 20
323.6361658464177
 10
4592.205239940498
 20
305.07067971768566
 10
4587.415882506523
 20
297.92782257482855
 10
4587.415882506523
 20
296.5621600485953
 10
4595.104221838563
 20
285.97778668681497
 10
4598.643941258888
 20
290.2011023183975
 10
4602.329289641025
 20
290.2011023183975
 10
4605.396895512234
 20
286.54107555101535
 10
4602.981294166944
 20
282.21791640625815
 10
4602.981294166944
 20
272.2075944178464
 10
4601.781449763715
 20
270.77603416633855
 10
4600.5837191081155
 20
253.62757464323883
 10
4593.939680714602
 20
247.1417282487649
 10
4567.513938387626
 20
248.57487022458514
 10
4554.8649803268545
 20
262.22930603336494
 10
4557.28836464297
 20
266.5663942238066
 10
4559.685310638634
 20
276.5758622107237
 10
4562.079020077482
 20
279.43184860119953
  0
LWPOLYLINE
  5
39
330
17
100
AcDbEntity
  8
GRAY_D
100
AcDbPolyline
 90
5
 70
1
 10
4595.11221000364
 20
348.5006013835463
 10
4592.22759403109
 20
343.6822247853224
 10
4595.084966669827
 20
340.27303182467693
 10
4597.969582642377
 20
345.0914084229009
 10
4595.11221000364
 20
348.5006013835463
  0
LWPOLYLINE
  5
3A
330
17
100
AcDbEntity
  8
GRAY_D
100
AcDbPolyline
 90
17
 70
1
 10
4530.98790019227
 20
545.0086992954135
 10
4528.553518039652
 20
547.9132131784521
 10
4527.356178681158
 20
553.6274988927379
 10
4524.954235864839
 20
556.4933087035606
 10
4524.954235864839
 20
559.4304423508892
 10
4530.429156355155
 20
564.5110779669202
 10
4532.815018958
 20
563.0877658863718
 10
4533.987615900216
 20
564.4868166041115
 10
4546.054339791811
 20
564.4868166041115
 10
4547.251679150304
 20
563.0582451755402
 10
4556.822979663957
 20
563.0582451755402
 10
4562.309467825954
 20
557.9668749516115
 10
4559.244175793063
 20
554.309608874662
 10
4554.4254701480995
 20
551.4349580255699
 10
4547.236791305616
 20
550.0054633810906
 10
4535.246075408955
 20
544.2829106172251
 10
4530.98790019227
 20
545.0086992954135
  0
LWPOLYLINE
  5
3B
330
17
100
AcDbEntity
  8
GRAY_D
100
AcDbPolyline
 90
21
 70
1
 10
4466.941938298221
 20
342.85189004485807
 10
4456.165884071776
 20
341.42331861628674
 10
4453.098097419824
 20
345.0835610770748
 10
4455.508553072192
 20
350.8354943955312
 10
4455.508553072192
 20
353.703524640057
 10
4460.967196959118
 20
361.66364509316315
 10
4463.418820997909
 20
360.2011023183973
 10
4471.807555235485
 20
360.2011023183973
 10
4475.4026135645045
 20
357.3415411998491
 10
4495.765572469821
 20
355.91239498068063
 10
4507.173694922601
 20
343.7338838923365
 10
4510.8034778596775
 20
337.9595207495469
 10
4507.754978666024
 20
332.8673985002837
 10
4499.364472122257
 20
331.43727072398497
 10
4498.160765452053
 20
330.0011023183973
 10
4490.952703530388
 20
330.0011023183973
 10
4484.970306756126
 20
327.14601163906366
 10
4477.110671954629
 20
326.4246654927889
 10
4472.271304091106
 20
333.6421082891141
 10
4472.271304091106
 20
336.4933087035607
 10
4466.941938298221
 20
342.85189004485807
  0
LWPOLYLINE
  5
3C
330
17
100
AcDbEntity
  8
GRAY_D
100
AcDbPolyline
 90
24
 70
1
 10
4448.312461491038
 20
445.09244149338855
 10
4451.908109047851
 20
453.67253088982596
 10
4450.732822648922
 20
456.47705002300086
 10
4436.335346400909
 20
473.6549896485034
 10
4437.563185418181
 20
476.5849121078578
 10
4448.979839429817
 20
488.7725308898259
 10
4463.413898285027
 20
488.7725308898259
 10
4469.40303988026
 20
485.91422125390784
 10
4496.965429418711
 20
484.4844263936381
 10
4500.0101093364665
 20
480.8517530760912
 10
4500.0101093364665
 20
457.92188013213206
 10
4496.96342609356
 20
454.2868166041116
 10
4490.97672930109
 20
454.2868166041116
 10
4489.779389942596
 20
452.8582451755403
 10
4487.384711225608
 20
452.8582451755403
 10
4483.2473583175515
 20
447.92188013213206
 10
4483.2473583175515
 20
445.06473727498917
 10
4479.648076142738
 20
440.7703560355951
 10
4478.452429999511
 20
435.064151168012
 10
4472.471304091106
 20
425.07345660681773
 10
4472.471304091106
 20
422.2075944178465
 10
4468.18795935471
 20
417.0970433733754
 10
4461.516537795306
 20
423.60962095109045
 10
4448.312461491038
 20
445.09244149338855
  0
LWPOLYLINE
  5
3D
330
17
100
AcDbEntity
  8
GRAY_D
100
AcDbPolyline
 90
47
 70
1
 10
4415.451019409317
 20
188.57253088982594
 10
4411.224299300093
 20
193.61552186959352
 10
4408.8175745116905
 20
197.92279479696728
 10
4407.622242831765
 20
203.627498892738
 10
4404.66859787116
 20
207.15155643827066
 10
4396.3050524062555
 20
208.57708880813507
 10
4391.523335297258
 20
211.42967374696875
 10
4386.733977863282
 20
211.42967374696875
 10
4381.944620429307
 20
214.28681660411164
 10
4378.333499296005
 20
214.28681660411164
 10
4374.062448213214
 20
219.38269982515578
 10
4382.479441372006
 20
230.85983832354407
 10
4383.677687039722
 20
235.14879662053568
 10
4386.714874805463
 20
238.77253088982587
 10
4387.912214163956
 20
238.77253088982587
 10
4393.8798078986065
 20
245.89259576213274
 10
4398.707371448221
 20
248.77253088982587
 10
4402.369638936959
 20
248.77253088982587
 10
4421.527068672862
 20
228.77253088982584
 10
4423.832394918775
 20
228.77253088982584
 10
4425.029734277268
 20
230.2011023183974
 10
4434.608449145219
 20
230.2011023183974
 10
4435.805788503714
 20
231.62967374696873
 10
4446.581842730159
 20
231.62967374696873
 10
4447.779182088653
 20
233.0582451755401
 10
4454.963218239617
 20
233.0582451755401
 10
4456.16055759811
 20
234.48681660411162
 10
4461.03150100904
 20
234.48681660411162
 10
4464.658752073627
 20
231.60164892052305
 10
4472.471304091106
 20
222.2803245046625
 10
4472.471304091106
 20
219.35045156070365
 10
4471.2739647326125
 20
217.9218801321321
 10
4471.2739647326125
 20
209.35045156070365
 10
4468.8792860156245
 20
206.49330870356076
 10
4468.8792860156245
 20
200.77902298927498
 10
4465.832602772717
 20
197.14395946125452
 10
4463.429468679059
 20
197.14395946125452
 10
4458.640111245082
 20
192.85824517554028
 10
4456.245432528095
 20
192.85824517554028
 10
4451.45607509412
 20
188.57253088982594
 10
4449.061396377131
 20
188.57253088982594
 10
4444.26805856336
 20
184.28325479633457
 10
4428.618245198819
 20
185.71957249372673
 10
4427.424412994256
 20
187.1439594612545
 10
4421.437716201787
 20
187.1439594612545
 10
4420.240376843292
 20
188.57253088982594
 10
4415.451019409317
 20
188.57253088982594
  0
LWPOLYLINE
  5
3E
330
17
100
AcDbEntity
  8
GRAY_D
100
AcDbPolyline
 90
22
 70
1
 10
4422.612869957883
 20
283.03361397975914
 10
4427.405309936436
 20
285.89259576213277
 10
4431.57906839449
 20
290.872397052915
 10
4433.9617010400625
 20
295.1365526969703
 10
4435.161048077126
 20
300.8604200297711
 10
4440.57604287987
 20
307.3211671907041
 10
4445.403606429485
 20
310.20110231839726
 10
4447.859027476134
 20
310.20110231839726
 10
4457.473702128551
 20
303.03142992872733
 10
4461.725728773084
 20
297.95824517554024
 10
4459.293307048341
 20
295.05607032130945
 10
4458.095967689847
 20
289.34178460702367
 10
4455.70128897286
 20
286.48464174988095
 10
4454.503949614365
 20
280.77035603559517
 10
4452.109270897378
 20
277.9132131784523
 10
4450.911931538883
 20
272.1989274641665
 10
4445.475469616027
 20
265.712567418942
 10
4421.435416991339
 20
267.146702698859
 10
4420.240376843293
 20
268.5725308898259
 10
4417.845698126305
 20
268.5725308898259
 10
4414.772222395177
 20
272.23956111375514
 10
4422.612869957883
 20
283.03361397975914
  0
LWPOLYLINE
  5
3F
330
17
100
AcDbEntity
  8
GRAY_D
100
AcDbPolyline
 90
26
 70
1
 10
4322.0585494467905
 20
107.14395946125454
 10
4320.8612100882965
 20
108.572530889826
 10
4310.0851558618515
 20
108.572530889826
 10
4307.020099116556
 20
112.22951624006805
 10
4315.435369762905
 20
129.44170084462016
 10
4321.406544920872
 20
136.5660387903771
 10
4321.406544920872
 20
139.41828153781177
 10
4327.399557903357
 20
147.99875328838252
 10
4328.597845171166
 20
153.71756288691407
 10
4334.078608185057
 20
160.25677951992
 10
4335.322612696879
 20
158.7725308898259
 10
4338.908682987917
 20
158.7725308898259
 10
4345.55333209075
 20
152.28608832678637
 10
4345.55333209075
 20
146.5660387903771
 10
4346.750671449244
 20
145.13746736180565
 10
4346.750671449244
 20
130.85175307609143
 10
4349.145350166232
 20
127.99461021894854
 10
4349.145350166232
 20
117.99461021894852
 10
4351.54002888322
 20
115.13746736180575
 10
4351.54002888322
 20
109.35045156070333
 10
4348.489374542826
 20
105.71065003057089
 10
4334.02815157361
 20
107.14848313176239
 10
4332.8346036732355
 20
108.572530889826
 10
4330.533255262904
 20
108.572530889826
 10
4329.335915904409
 20
107.14395946125454
 10
4322.0585494467905
 20
107.14395946125454
  0
LWPOLYLINE
  5
40
330
17
100
AcDbEntity
  8
GRAY_D
100
AcDbPolyline
 90
21
 70
1
 10
4957.653080889382
 20
313.57528553835647
 10
4947.644708980689
 20
318.57253088982594
 10
4944.965905801166
 20
318.57253088982594
 10
4940.960350258151
 20
321.42967374696883
 10
4936.957469126866
 20
321.42967374696883
 10
4930.272165099421
 20
325.7214084639761
 10
4916.89391019335
 20
328.58420128026154
 10
4914.833264152813
 20
332.2588227232759
 10
4919.585983603967
 20
337.34395946125437
 10
4923.591539146982
 20
337.34395946125437
 10
4928.9192222038455
 20
343.04427422193083
 10
4932.931796624537
 20
344.47534891578056
 10
4938.286828070243
 20
348.772530889826
 10
4949.039638068427
 20
348.772530889826
 10
4961.056304697473
 20
338.77253088982593
 10
4963.743985828414
 20
338.77253088982593
 10
4967.128471611766
 20
333.70284343148506
 10
4967.128471611766
 20
317.93603232553136
 10
4965.77717017368
 20
315.04440253020414
 10
4963.728989006143
 20
312.85296636231675
 10
4957.653080889382
 20
313.57528553835647
  0
LWPOLYLINE
  5
41
330
17
100
AcDbEntity
  8
GRAY_D
100
AcDbPolyline
 90
23
 70
1
 10
6848.4163940689305
 20
502.15815055533585
 10
6839.316613656876
 20
512.8582451755403
 10
6837.91904327312
 20
512.8582451755403
 10
6832.914535396313
 20
517.9582451755402
 10
6835.105584814397
 20
520.1911024928436
 10
6846.320168291838
 20
523.0482453499862
 10
6847.731803815881
 20
524.4868166041115
 10
6870.22695530706
 20
524.4868166041115
 10
6875.83424704578
 20
521.6296737469688
 10
6884.24518465386
 20
521.6296737469688
 10
6887.004840832354
 20
520.2235168523476
 10
6888.41571793434
 20
521.661315212796
 10
6893.48555243992
 20
517.9709058266216
 10
6891.272266838734
 20
515.715388032683
 10
6887.0529718469825
 20
515.715388032683
 10
6880.043857173582
 20
511.4296737469688
 10
6875.8383883695415
 20
511.4296737469688
 10
6868.805565355875
 20
507.1294630266394
 10
6866.001919486515
 20
508.55803445521076
 10
6859.016513153381
 20
504.28681660411144
 10
6854.813650599053
 20
504.28681660411144
 10
6850.592422734465
 20
501.4189672385203
 10
6848.4163940689305
 20
502.15815055533585
  0
LWPOLYLINE
  5
42
330
17
100
AcDbEntity
  8
GRAY_D
100
AcDbPolyline
 90
33
 70
1
 10
6787.440690160576
 20
225.72835835230754
 10
6783.890836311826
 20
229.3459477485644
 10
6783.890836311826
 20
232.22074914005876
 10
6781.10451833938
 20
237.89971778564146
 10
6777.627929617816
 20
241.44264406659332
 10
6773.409833988396
 20
242.875504748709
 10
6771.25910040193
 20
246.52845843266147
 10
6776.881721638427
 20
256.5557969384684
 10
6776.881721638427
 20
259.4100269253075
 10
6781.10451833938
 20
268.016772565439
 10
6783.235221356536
 20
270.1881319987729
 10
6791.6558713765535
 20
273.04857410145564
 10
6800.081043974761
 20
278.7725308898259
 10
6805.749847885252
 20
278.7725308898259
 10
6809.955316689293
 20
275.915388032683
 10
6812.752214985179
 20
275.915388032683
 10
6818.395441746847
 20
273.03993482200053
 10
6820.518939857461
 20
270.87591777362684
 10
6826.145524352227
 20
260.84151122418285
 10
6826.145524352227
 20
257.99911403108734
 10
6828.931842324674
 20
255.15962970829608
 10
6833.175598812866
 20
246.51016461700272
 10
6831.001852873291
 20
244.29494094971525
 10
6823.982404164031
 20
242.86426327676656
 10
6819.768077232053
 20
240.00110231839744
 10
6816.964431362692
 20
240.00110231839744
 10
6812.7589625586525
 20
237.14395946125455
 10
6809.94856911582
 20
237.14395946125455
 10
6804.377212400046
 20
234.30512695765125
 10
6798.764680613917
 20
228.58550120945043
 10
6794.559211809877
 20
227.1569297808791
 10
6791.728214196542
 20
224.27191327507634
 10
6787.440690160576
 20
225.72835835230754
  0
LWPOLYLINE
  5
43
330
17
100
AcDbEntity
  8
GRAY_D
100
AcDbPolyline
 90
118
 70
1
 10
8108.9158434321025
 20
406.5187272303958
 10
8109.990823293366
 20
407.9908698182446
 10
8109.990823293366
 20
410.7827633899785
 10
8108.92383673721
 20
412.24395946125435
 10
8109.970689613848
 20
413.6775832512849
 10
8104.775005448117
 20
422.2159250852191
 10
8104.775005448117
 20
440.8409779189033
 10
8107.904496155265
 20
446.5552636331891
 10
8107.904496155265
 20
449.41944124681623
 10
8109.990823293366
 20
452.2765841039589
 10
8109.990823293366
 20
455.0684776756928
 10
8108.926143913289
 20
456.52651416018506
 10
8117.860433547079
 20
470.2011023183972
 10
8118.906912093017
 20
470.2011023183972
 10
8123.062761972491
 20
475.89237507311833
 10
8128.2826312430425
 20
478.75173723722384
 10
8134.559833249265
 20
485.915388032683
 10
8138.735614947615
 20
485.915388032683
 10
8142.888231221379
 20
490.1805213769617
 10
8150.280028380034
 20
494.5188535728011
 10
8151.324758242545
 20
493.08813716701616
 10
8156.486007173895
 20
495.915388032683
 10
8161.676618424057
 20
495.915388032683
 10
8162.719781993108
 20
497.3439594612543
 10
8171.073685588159
 20
497.3439594612543
 10
8175.299487311152
 20
501.68426124856904
 10
8176.355259030032
 20
500.2384234553088
 10
8180.473408435697
 20
503.0582451755401
 10
8183.684656448646
 20
503.0582451755401
 10
8184.727820017697
 20
501.62967374696876
 10
8199.250352678591
 20
501.62967374696876
 10
8203.477511825326
 20
504.5241377410228
 10
8204.49712629237
 20
503.12781588029634
 10
8206.532651893196
 20
505.915388032683
 10
8212.80165795517
 20
505.915388032683
 10
8220.10380293852
 20
513.0582451755404
 10
8223.324872072539
 20
513.0582451755404
 10
8228.06830659599
 20
506.5622983896732
 10
8228.06830659599
 20
503.70515553253045
 10
8233.27321489226
 20
496.577238587385
 10
8236.40270559941
 20
488.00581001595634
 10
8240.578737440794
 20
482.2868988591567
 10
8241.621901009845
 20
478.0011845734424
 10
8244.147149092452
 20
474.5429567672754
 10
8276.44686258361
 20
508.78800374542885
 10
8280.710254202442
 20
507.32836701247106
 10
8283.351346008782
 20
503.71149578851873
 10
8285.44822392531
 20
489.35353712492713
 10
8280.63842625556
 20
484.2304482905224
 10
8279.604903263953
 20
485.645817327927
 10
8276.540742314524
 20
481.4495695727603
 10
8273.406548804875
 20
480.0188513765782
 10
8267.744082597463
 20
473.67424043344045
 10
8272.346038937229
 20
468.7725308898258
 10
8282.785195508375
 20
468.7725308898258
 10
8286.481587287493
 20
463.710467910321
 10
8287.525574532847
 20
455.13227138532295
 10
8290.658120738977
 20
449.412406490332
 10
8290.658120738977
 20
445.0684776756928
 10
8288.001013353623
 20
441.4296737469687
 10
8281.640428864781
 20
441.4296737469687
 10
8280.59726529573
 20
442.85824517554005
 10
8278.612541232176
 20
442.85824517554005
 10
8277.569377663125
 20
441.4296737469687
 10
8269.122466036184
 20
441.4296737469687
 10
8268.079302467135
 20
442.85824517554005
 10
8260.87876055833
 20
442.85824517554005
 10
8259.83559698928
 20
441.4296737469687
 10
8256.604503207585
 20
441.4296737469687
 10
8255.561339638536
 20
442.85824517554005
 10
8251.388685362337
 20
442.85824517554005
 10
8246.657029913693
 20
449.3380609823123
 10
8240.398048499394
 20
465.0523466965979
 10
8237.838267050676
 20
468.55786658774656
 10
8232.722682833642
 20
467.1567483605137
 10
8231.619379087664
 20
465.64581732792675
 10
8230.525413981342
 20
467.14395946125455
 10
8227.477680579994
 20
467.14395946125455
 10
8223.305026303795
 20
464.28681660411166
 10
8221.136941859895
 20
464.28681660411166
 10
8220.144579828117
 20
465.645817327927
 10
8219.152217796338
 20
464.28681660411166
 10
8214.97956352014
 20
464.28681660411166
 10
8213.93639995109
 20
462.8582451755401
 10
8206.634254967743
 20
462.8582451755401
 10
8205.591091398692
 20
461.4296737469688
 10
8203.504764260593
 20
461.4296737469688
 10
8200.946053800695
 20
457.9256205328357
 10
8200.946053800695
 20
453.6399062471215
 10
8197.245782846294
 20
448.5725308898258
 10
8195.057852633649
 20
448.5725308898258
 10
8194.014689064601
 20
450.0011023183974
 10
8179.410399097904
 20
450.0011023183974
 10
8178.367235528853
 20
451.4296737469687
 10
8172.108254114555
 20
451.4296737469687
 10
8171.065090545506
 20
452.8582451755403
 10
8162.719781993108
 20
452.8582451755403
 10
8161.676618424057
 20
454.2868166041116
 10
8152.389749377154
 20
454.2868166041116
 10
8151.3465858081045
 20
452.8582451755403
 10
8149.256502523061
 20
452.8582451755403
 10
8140.461930985092
 20
442.2313457088649
 10
8143.011102625783
 20
437.3439594612545
 10
8144.041437275982
 20
437.3439594612545
 10
8155.072904136436
 20
423.6755770999869
 10
8148.217095100956
 20
414.2868166041116
 10
8146.029164888309
 20
414.2868166041116
 10
8145.013253754527
 20
415.67806689577156
 10
8136.691494304135
 20
409.97990596540836
 10
8134.62871626804
 20
411.39235261005734
 10
8133.6128051342575
 20
410.0011023183974
 10
8130.483314427108
 20
410.0011023183974
 10
8128.396987289008
 20
407.1439594612545
 10
8123.154544437883
 20
407.1439594612545
 10
8114.754706381
 20
402.8302416721472
 10
8113.7418957850405
 20
404.2172458993556
 10
8112.711376075399
 20
402.80598973833713
 10
8108.9158434321025
 20
406.5187272303958
  0
LWPOLYLINE
  5
44
330
17
100
AcDbEntity
  8
GRAY_D
100
AcDbPolyline
 90
20
 70
1
 10
8125.6886127441885
 20
227.85668747934085
 10
8124.122729938266
 20
230.00110231839744
 10
8122.041027751553
 20
230.00110231839744
 10
8114.717573623906
 20
238.59754406180377
 10
8108.455430633775
 20
242.88542317431828
 10
8105.796246206451
 20
246.52707153023078
 10
8116.820489206734
 20
263.06217311011704
 10
8136.7449181948505
 20
261.62608253719543
 10
8137.785459410457
 20
260.2011023183972
 10
8147.173931531905
 20
260.2011023183972
 10
8148.217095100956
 20
258.7725308898259
 10
8151.3369610867785
 20
258.7725308898259
 10
8166.521656022054
 20
243.7141972099357
 10
8166.521656022054
 20
236.49704910426416
 10
8162.821385067652
 20
231.42967374696877
 10
8159.691894360502
 20
231.42967374696877
 10
8158.648730791451
 20
230.00110231839744
 10
8150.303422239053
 20
230.00110231839744
 10
8149.26137867606
 20
228.57406469401553
 10
8125.6886127441885
 20
227.85668747934085
  0
ENDSEC
  0
SECTION
  2
OBJECTS
  0
DICTIONARY
  5
A
330
0
100
AcDbDictionary
281
1
  3
ACAD_COLOR
350
B
  3
ACAD_GROUP
350
C
  3
ACAD_LAYOUT
350
D
  3
ACAD_MATERIAL
350
E
  3
ACAD_MLEADERSTYLE
350
F
  3
ACAD_MLINESTYLE
350
10
  3
ACAD_PLOTSETTINGS
350
11
  3
ACAD_PLOTSTYLENAME
350
12
  3
ACAD_SCALELIST
350
14
  3
ACAD_TABLESTYLE
350
15
  3
ACAD_VISUALSTYLE
350
16
  3
EZDXF_META
350
2D
  0
DICTIONARY
  5
B
330
A
100
AcDbDictionary
281
1
  0
DICTIONARY
  5
C
330
A
100
AcDbDictionary
281
1
  0
DICTIONARY
  5
D
330
A
100
AcDbDictionary
281
1
  3
Model
350
1A
  3
Layout1
350
1E
  0
DICTIONARY
  5
E
330
A
100
AcDbDictionary
281
1
  3
ByBlock
350
1F
  3
ByLayer
350
20
  3
Global
350
21
  0
DICTIONARY
  5
F
330
A
100
AcDbDictionary
281
1
  3
Standard
350
2C
  0
DICTIONARY
  5
10
330
A
100
AcDbDictionary
281
1
  3
Standard
350
22
  0
DICTIONARY
  5
11
330
A
100
AcDbDictionary
281
1
  0
ACDBDICTIONARYWDFLT
  5
12
330
A
100
AcDbDictionary
281
1
  3
Normal
350
13
100
AcDbDictionaryWithDefault
340
13
  0
ACDBPLACEHOLDER
  5
13
330
12
  0
DICTIONARY
  5
14
330
A
100
AcDbDictionary
281
1
  0
DICTIONARY
  5
15
330
A
100
AcDbDictionary
281
1
  0
DICTIONARY
  5
16
330
A
100
AcDbDictionary
281
1
  0
LAYOUT
  5
1A
330
D
100
AcDbPlotSettings
  1

  4
A3
  6

 40
7.5
 41
20.0
 42
7.5
 43
20.0
 44
420.0
 45
297.0
 46
0.0
 47
0.0
 48
0.0
 49
0.0
140
0.0
141
0.0
142
1.0
143
1.0
 70
1024
 72
1
 73
0
 74
5
  7

 75
16
 76
0
 77
2
 78
300
147
1.0
148
0.0
149
0.0
100
AcDbLayout
  1
Model
 70
1
 71
0
 10
0.0
 20
0.0
 11
420.0
 21
297.0
 12
0.0
 22
0.0
 32
0.0
 14
1e+20
 24
1e+20
 34
1e+20
 15
-1e+20
 25
-1e+20
 35
-1e+20
146
0.0
 13
0.0
 23
0.0
 33
0.0
 16
1.0
 26
0.0
 36
0.0
 17
0.0
 27
1.0
 37
0.0
 76
1
330
17
  0
LAYOUT
  5
1E
330
D
100
AcDbPlotSettings
  1

  4
A3
  6

 40
7.5
 41
20.0
 42
7.5
 43
20.0
 44
420.0
 45
297.0
 46
0.0
 47
0.0
 48
0.0
 49
0.0
140
0.0
141
0.0
142
1.0
143
1.0
 70
0
 72
1
 73
0
 74
5
  7

 75
16
 76
0
 77
2
 78
300
147
1.0
148
0.0
149
0.0
100
AcDbLayout
  1
Layout1
 70
1
 71
1
 10
0.0
 20
0.0
 11
420.0
 21
297.0
 12
0.0
 22
0.0
 32
0.0
 14
1e+20
 24
1e+20
 34
1e+20
 15
-1e+20
 25
-1e+20
 35
-1e+20
146
0.0
 13
0.0
 23
0.0
 33
0.0
 16
1.0
 26
0.0
 36
0.0
 17
0.0
 27
1.0
 37
0.0
 76
1
330
1B
  0
MATERIAL
  5
1F
102
{ACAD_REACTORS
330
E
102
}
330
E
100
AcDbMaterial
  1
ByBlock
  2

 70
0
 40
1.0
 71
1
 41
1.0
 91
-1023410177
 42
1.0
 72
1
  3

 73
1
 74
1
 75
1
 44
0.5
 73
0
 45
1.0
 46
1.0
 77
1
  4

 78
1
 79
1
170
1
 48
1.0
171
1
  6

172
1
173
1
174
1
140
1.0
141
1.0
175
1
  7

176
1
177
1
178
1
143
1.0
179
1
  8

270
1
271
1
272
1
145
1.0
146
1.0
273
1
  9

274
1
275
1
276
1
 42
1.0
 72
1
  3

 73
1
 74
1
 75
1
 94
63
  0
MATERIAL
  5
20
102
{ACAD_REACTORS
330
E
102
}
330
E
100
AcDbMaterial
  1
ByLayer
  2

 70
0
 40
1.0
 71
1
 41
1.0
 91
-1023410177
 42
1.0
 72
1
  3

 73
1
 74
1
 75
1
 44
0.5
 73
0
 45
1.0
 46
1.0
 77
1
  4

 78
1
 79
1
170
1
 48
1.0
171
1
  6

172
1
173
1
174
1
140
1.0
141
1.0
175
1
  7

176
1
177
1
178
1
143
1.0
179
1
  8

270
1
271
1
272
1
145
1.0
146
1.0
273
1
  9

274
1
275
1
276
1
 42
1.0
 72
1
  3

 73
1
 74
1
 75
1
 94
63
  0
MATERIAL
  5
21
102
{ACAD_REACTORS
330
E
102
}
330
E
100
AcDbMaterial
  1
Global
  2

 70
0
 40
1.0
 71
1
 41
1.0
 91
-1023410177
 42
1.0
 72
1
  3

 73
1
 74
1
 75
1
 44
0.5
 73
0
 45
1.0
 46
1.0
 77
1
  4

 78
1
 79
1
170
1
 48
1.0
171
1
  6

172
1
173
1
174
1
140
1.0
141
1.0
175
1
  7

176
1
177
1
178
1
143
1.0
179
1
  8

270
1
271
1
272
1
145
1.0
146
1.0
273
1
  9

274
1
275
1
276
1
 42
1.0
 72
1
  3

 73
1
 74
1
 75
1
 94
63
  0
MLINESTYLE
  5
22
102
{ACAD_REACTORS
330
10
102
}
330
10
100
AcDbMlineStyle
  2
Standard
 70
0
  3

 62
256
 51
90.0
 52
90.0
 71
2
 49
0.5
 62
256
  6
BYLAYER
 49
-0.5
 62
256
  6
BYLAYER
  0
MLEADERSTYLE
  5
2C
102
{ACAD_REACTORS
330
F
102
}
330
F
100
AcDbMLeaderStyle
179
2
170
2
171
1
172
0
 90
2
 40
0.0
 41
0.0
173
1
 91
-1056964608
 92
-2
290
1
 42
2.0
291
1
 43
8.0
  3
Standard
 44
4.0
300

342
29
174
1
175
1
176
0
178
1
 93
-1056964608
 45
4.0
292
0
297
0
 46
4.0
 94
-1056964608
 47
1.0
 49
1.0
140
1.0
294
1
141
0.0
177
0
142
1.0
295
0
296
0
143
3.75
271
0
272
9
273
9
  0
DICTIONARY
  5
2D
330
A
100
AcDbDictionary
280
1
281
1
  3
CREATED_BY_EZDXF
350
2E
  3
WRITTEN_BY_EZDXF
350
47
  0
DICTIONARYVAR
  5
2E
330
2D
100
DictionaryVariables
280
0
  1
1.4.4 @ 2026-07-21T20:34:34.983934+00:00
  0
DICTIONARYVAR
  5
47
330
2D
100
DictionaryVariables
280
0
  1
1.4.4 @ 2026-07-21T20:34:34.991403+00:00
  0
ENDSEC
  0
EOF
