  0
SECTION
  2
HEADER
  9
$ACADVER
  1
AC1027
  9
$ACADMAINTVER
 70
105
  9
$DWGCODEPAGE
  3
ANSI_1252
  9
$LASTSAVEDBY
  1
ezdxf
  9
$REQUIREDVERSIONS
160
0
  9
$INSBASE
 10
0.0
 20
0.0
 30
0.0
  9
$EXTMIN
 10
1e+20
 20
1e+20
 30
1e+20
  9
$EXTMAX
 10
-1e+20
 20
-1e+20
 30
-1e+20
  9
$LIMMIN
 10
0.0
 20
0.0
  9
$LIMMAX
 10
420.0
 20
297.0
  9
$ORTHOMODE
 70
0
  9
$REGENMODE
 70
1
  9
$FILLMODE
 70
1
  9
$QTEXTMODE
 70
0
  9
$MIRRTEXT
 70
1
  9
$LTSCALE
 40
1.0
  9
$ATTMODE
 70
1
  9
$TEXTSIZE
 40
2.5
  9
$TRACEWID
 40
1.0
  9
$TEXTSTYLE
  7
Standard
  9
$CLAYER
  8
0
  9
$CELTYPE
  6
ByLayer
  9
$CECOLOR
 62
256
  9
$CELTSCALE
 40
1.0
  9
$DISPSILH
 70
0
  9
$DIMSCALE
 40
1.0
  9
$DIMASZ
 40
2.5
  9
$DIMEXO
 40
0.625
  9
$DIMDLI
 40
3.75
  9
$DIMRND
 40
0.0
  9
$DIMDLE
 40
0.0
  9
$DIMEXE
 40
1.25
  9
$DIMTP
 40
0.0
  9
$DIMTM
 40
0.0
  9
$DIMTXT
 40
2.5
  9
$DIMCEN
 40
2.5
  9
$DIMTSZ
 40
0.0
  9
$DIMTOL
 70
0
  9
$DIMLIM
 70
0
  9
$DIMTIH
 70
0
  9
$DIMTOH
 70
0
  9
$DIMSE1
 70
0
  9
$DIMSE2
 70
0
  9
$DIMTAD
 70
1
  9
$DIMZIN
 70
8
  9
$DIMBLK
  1

  9
$DIMASO
 70
1
  9
$DIMSHO
 70
1
  9
$DIMPOST
  1

  9
$DIMAPOST
  1

  9
$DIMALT
 70
0
  9
$DIMALTD
 70
3
  9
$DIMALTF
 40
0.03937007874
  9
$DIMLFAC
 40
1.0
  9
$DIMTOFL
 70
1
  9
$DIMTVP
 40
0.0
  9
$DIMTIX
 70
0
  9
$DIMSOXD
 70
0
  9
$DIMSAH
 70
0
  9
$DIMBLK1
  1

  9
$DIMBLK2
  1

  9
$DIMSTYLE
  2
ISO-25
  9
$DIMCLRD
 70
0
  9
$DIMCLRE
 70
0
  9
$DIMCLRT
 70
0
  9
$DIMTFAC
 40
1.0
  9
$DIMGAP
 40
0.625
  9
$DIMJUST
 70
0
  9
$DIMSD1
 70
0
  9
$DIMSD2
 70
0
  9
$DIMTOLJ
 70
0
  9
$DIMTZIN
 70
8
  9
$DIMALTZ
 70
0
  9
$DIMALTTZ
 70
0
  9
$DIMUPT
 70
0
  9
$DIMDEC
 70
2
  9
$DIMTDEC
 70
2
  9
$DIMALTU
 70
2
  9
$DIMALTTD
 70
3
  9
$DIMTXSTY
  7
Standard
  9
$DIMAUNIT
 70
0
  9
$DIMADEC
 70
0
  9
$DIMALTRND
 40
0.0
  9
$DIMAZIN
 70
0
  9
$DIMDSEP
 70
44
  9
$DIMATFIT
 70
3
  9
$DIMFRAC
 70
0
  9
$DIMLDRBLK
  1

  9
$DIMLUNIT
 70
2
  9
$DIMLWD
 70
-2
  9
$DIMLWE
 70
-2
  9
$DIMTMOVE
 70
0
  9
$DIMFXL
 40
1.0
  9
$DIMFXLON
 70
0
  9
$DIMJOGANG
 40
0.785398163397
  9
$DIMTFILL
 70
0
  9
$DIMTFILLCLR
 70
0
  9
$DIMARCSYM
 70
0
  9
$DIMLTYPE
  6

  9
$DIMLTEX1
  6

  9
$DIMLTEX2
  6

  9
$DIMTXTDIRECTION
 70
0
  9
$LUNITS
 70
2
  9
$LUPREC
 70
4
  9
$SKETCHINC
 40
1.0
  9
$FILLETRAD
 40
10.0
  9
$AUNITS
 70
0
  9
$AUPREC
 70
2
  9
$MENU
  1
.
  9
$ELEVATION
 40
0.0
  9
$PELEVATION
 40
0.0
  9
$THICKNESS
 40
0.0
  9
$LIMCHECK
 70
0
  9
$CHAMFERA
 40
0.0
  9
$CHAMFERB
 40
0.0
  9
$CHAMFERC
 40
0.0
  9
$CHAMFERD
 40
0.0
  9
$SKPOLY
 70
0
  9
$TDCREATE
 40
2461245.8663078705
  9
$TDUCREATE
 40
2458532.153996898
  9
$TDUPDATE
 40
2461245.8663078705
  9
$TDUUPDATE
 40
2458532.1544311
  9
$TDINDWG
 40
0.0
  9
$TDUSRTIMER
 40
0.0
  9
$USRTIMER
 70
1
  9
$ANGBASE
 50
0.0
  9
$ANGDIR
 70
0
  9
$PDMODE
 70
0
  9
$PDSIZE
 40
0.0
  9
$PLINEWID
 40
0.0
  9
$SPLFRAME
 70
0
  9
$SPLINETYPE
 70
6
  9
$SPLINESEGS
 70
8
  9
$HANDSEED
  5
42
  9
$SURFTAB1
 70
6
  9
$SURFTAB2
 70
6
  9
$SURFTYPE
 70
6
  9
$SURFU
 70
6
  9
$SURFV
 70
6
  9
$UCSBASE
  2

  9
$UCSNAME
  2

  9
$UCSORG
 10
0.0
 20
0.0
 30
0.0
  9
$UCSXDIR
 10
1.0
 20
0.0
 30
0.0
  9
$UCSYDIR
 10
0.0
 20
1.0
 30
0.0
  9
$UCSORTHOREF
  2

  9
$UCSORTHOVIEW
 70
0
  9
$UCSORGTOP
 10
0.0
 20
0.0
 30
0.0
  9
$UCSORGBOTTOM
 10
0.0
 20
0.0
 30
0.0
  9
$UCSORGLEFT
 10
0.0
 20
0.0
 30
0.0
  9
$UCSORGRIGHT
 10
0.0
 20
0.0
 30
0.0
  9
$UCSORGFRONT
 10
0.0
 20
0.0
 30
0.0
  9
$UCSORGBACK
 10
0.0
 20
0.0
 30
0.0
  9
$PUCSBASE
  2

  9
$PUCSNAME
  2

  9
$PUCSORG
 10
0.0
 20
0.0
 30
0.0
  9
$PUCSXDIR
 10
1.0
 20
0.0
 30
0.0
  9
$PUCSYDIR
 10
0.0
 20
1.0
 30
0.0
  9
$PUCSORTHOREF
  2

  9
$PUCSORTHOVIEW
 70
0
  9
$PUCSORGTOP
 10
0.0
 20
0.0
 30
0.0
  9
$PUCSORGBOTTOM
 10
0.0
 20
0.0
 30
0.0
  9
$PUCSORGLEFT
 10
0.0
 20
0.0
 30
0.0
  9
$PUCSORGRIGHT
 10
0.0
 20
0.0
 30
0.0
  9
$PUCSORGFRONT
 10
0.0
 20
0.0
 30
0.0
  9
$PUCSORGBACK
 10
0.0
 20
0.0
 30
0.0
  9
$USERI1
 70
0
  9
$USERI2
 70
0
  9
$USERI3
 70
0
  9
$USERI4
 70
0
  9
$USERI5
 70
0
  9
$USERR1
 40
0.0
  9
$USERR2
 40
0.0
  9
$USERR3
 40
0.0
  9
$USERR4
 40
0.0
  9
$USERR5
 40
0.0
  9
$WORLDVIEW
 70
1
  9
$SHADEDGE
 70
3
  9
$SHADEDIF
 70
70
  9
$TILEMODE
 70
1
  9
$MAXACTVP
 70
64
  9
$PINSBASE
 10
0.0
 20
0.0
 30
0.0
  9
$PLIMCHECK
 70
0
  9
$PEXTMIN
 10
1e+20
 20
1e+20
 30
1e+20
  9
$PEXTMAX
 10
-1e+20
 20
-1e+20
 30
-1e+20
  9
$PLIMMIN
 10
0.0
 20
0.0
  9
$PLIMMAX
 10
420.0
 20
297.0
  9
$UNITMODE
 70
0
  9
$VISRETAIN
 70
1
  9
$PLINEGEN
 70
0
  9
$PSLTSCALE
 70
1
  9
$TREEDEPTH
 70
3020
  9
$CMLSTYLE
  2
Standard
  9
$CMLJUST
 70
0
  9
$CMLSCALE
 40
20.0
  9
$PROXYGRAPHICS
 70
1
  9
$MEASUREMENT
 70
1
  9
$CELWEIGHT
370
-1
  9
$ENDCAPS
280
0
  9
$JOINSTYLE
280
0
  9
$LWDISPLAY
290
0
  9
$INSUNITS
 70
4
  9
$HYPERLINKBASE
  1

  9
$STYLESHEET
  1

  9
$XEDIT
290
1
  9
$CEPSNTYPE
380
0
  9
$PSTYLEMODE
290
1
  9
$FINGERPRINTGUID
  2
{8D71C4D5-04E2-4F60-AB63-2DE481E3D781}
  9
$VERSIONGUID
  2
{7AEA7297-4915-4D37-A440-0C96BB7B7895}
  9
$EXTNAMES
290
1
  9
$PSVPSCALE
 40
0.0
  9
$OLESTARTUP
290
0
  9
$SORTENTS
280
127
  9
$INDEXCTL
280
0
  9
$HIDETEXT
280
1
  9
$XCLIPFRAME
280
1
  9
$HALOGAP
280
0
  9
$OBSCOLOR
 70
257
  9
$OBSLTYPE
280
0
  9
$INTERSECTIONDISPLAY
280
0
  9
$INTERSECTIONCOLOR
 70
257
  9
$DIMASSOC
280
2
  9
$PROJECTNAME
  1

  9
$CAMERADISPLAY
290
0
  9
$LENSLENGTH
 40
50.0
  9
$CAMERAHEIGHT
 40
0.0
  9
$STEPSPERSEC
 40
24.0
  9
$STEPSIZE
 40
100.0
  9
$3DDWFPREC
 40
2.0
  9
$PSOLWIDTH
 40
0.005
  9
$PSOLHEIGHT
 40
0.08
  9
$LOFTANG1
 40
1.570796326795
  9
$LOFTANG2
 40
1.570796326795
  9
$LOFTMAG1
 40
0.0
  9
$LOFTMAG2
 40
0.0
  9
$LOFTPARAM
 70
7
  9
$LOFTNORMALS
280
1
  9
$LATITUDE
 40
37.795
  9
$LONGITUDE
 40
-122.394
  9
$NORTHDIRECTION
 40
0.0
  9
$TIMEZONE
 70
-8000
  9
$LIGHTGLYPHDISPLAY
280
1
  9
$TILEMODELIGHTSYNCH
280
1
  9
$CMATERIAL
347
20
  9
$SOLIDHIST
280
0
  9
$SHOWHIST
280
1
  9
$DWFFRAME
280
2
  9
$DGNFRAME
280
2
  9
$REALWORLDSCALE
290
1
  9
$INTERFERECOLOR
 62
256
  9
$CSHADOW
280
0
  9
$SHADOWPLANELOCATION
 40
0.0
  0
ENDSEC
  0
SECTION
  2
CLASSES
  0
CLASS
  1
ACDBDICTIONARYWDFLT
  2
AcDbDictionaryWithDefault
  3
ObjectDBX Classes
 90
0
 91
0
280
0
281
0
  0
CLASS
  1
SUN
  2
AcDbSun
  3
SCENEOE
 90
1153
 91
0
280
0
281
0
  0
CLASS
  1
VISUALSTYLE
  2
AcDbVisualStyle
  3
ObjectDBX Classes
 90
4095
 91
0
280
0
281
0
  0
CLASS
  1
MATERIAL
  2
AcDbMaterial
  3
ObjectDBX Classes
 90
1153
 91
0
280
0
281
0
  0
CLASS
  1
SCALE
  2
AcDbScale
  3
ObjectDBX Classes
 90
1153
 91
0
280
0
281
0
  0
CLASS
  1
TABLESTYLE
  2
AcDbTableStyle
  3
ObjectDBX Classes
 90
4095
 91
0
280
0
281
0
  0
CLASS
  1
MLEADERSTYLE
  2
AcDbMLeaderStyle
  3
ACDB_MLEADERSTYLE_CLASS
 90
4095
 91
0
280
0
281
0
  0
CLASS
  1
DICTIONARYVAR
  2
AcDbDictionaryVar
  3
ObjectDBX Classes
 90
0
 91
0
280
0
281
0
  0
CLASS
  1
CELLSTYLEMAP
  2
AcDbCellStyleMap
  3
ObjectDBX Classes
 90
1152
 91
0
280
0
281
0
  0
CLASS
  1
MENTALRAYRENDERSETTINGS
  2
AcDbMentalRayRenderSettings
  3
SCENEOE
 90
1024
 91
0
280
0
281
0
  0
CLASS
  1
ACDBDETAILVIEWSTYLE
  2
AcDbDetailViewStyle
  3
ObjectDBX Classes
 90
1025
 91
0
280
0
281
0
  0
CLASS
  1
ACDBSECTIONVIEWSTYLE
  2
AcDbSectionViewStyle
  3
ObjectDBX Classes
 90
1025
 91
0
280
0
281
0
  0
CLASS
  1
RASTERVARIABLES
  2
AcDbRasterVariables
  3
ISM
 90
0
 91
0
280
0
281
0
  0
CLASS
  1
LAYOUT
  2
AcDbLayout
  3
ObjectDBX Classes
 90
0
 91
0
280
0
281
0
  0
CLASS
  1
ACDBPLACEHOLDER
  2
AcDbPlaceHolder
  3
ObjectDBX Classes
 90
0
 91
0
280
0
281
0
  0
ENDSEC
  0
SECTION
  2
TABLES
  0
TABLE
  2
VPORT
  5
8
330
0
100
AcDbSymbolTable
 70
1
  0
VPORT
  5
23
330
8
100
AcDbSymbolTableRecord
100
AcDbViewportTableRecord
  2
*Active
 70
0
 10
0.0
 20
0.0
 11
1.0
 21
1.0
 12
0.0
 22
0.0
 13
0.0
 23
0.0
 14
0.5
 24
0.5
 15
0.5
 25
0.5
 16
0.0
 26
0.0
 36
1.0
 17
0.0
 27
0.0
 37
0.0
 40
1000.0
 41
1.34
 42
50.0
 43
0.0
 44
0.0
 50
0.0
 51
0.0
 71
0
 72
1000
 73
1
 74
3
 75
0
 76
0
 77
0
 78
0
281
0
 65
0
146
0.0
  0
ENDTAB
  0
TABLE
  2
LTYPE
  5
2
330
0
100
AcDbSymbolTable
 70
3
  0
LTYPE
  5
24
330
2
100
AcDbSymbolTableRecord
100
AcDbLinetypeTableRecord
  2
ByBlock
 70
0
  3

 72
65
 73
0
 40
0.0
  0
LTYPE
  5
25
330
2
100
AcDbSymbolTableRecord
100
AcDbLinetypeTableRecord
  2
ByLayer
 70
0
  3

 72
65
 73
0
 40
0.0
  0
LTYPE
  5
26
330
2
100
AcDbSymbolTableRecord
100
AcDbLinetypeTableRecord
  2
Continuous
 70
0
  3

 72
65
 73
0
 40
0.0
  0
ENDTAB
  0
TABLE
  2
LAYER
  5
1
330
0
100
AcDbSymbolTable
 70
3
  0
LAYER
  5
27
330
1
100
AcDbSymbolTableRecord
100
AcDbLayerTableRecord
  2
0
 70
0
 62
7
  6
Continuous
370
-3
390
13
347
21
  0
LAYER
  5
28
330
1
100
AcDbSymbolTableRecord
100
AcDbLayerTableRecord
  2
Defpoints
 70
0
 62
7
  6
Continuous
290
0
370
-3
390
13
347
21
  0
LAYER
  5
2F
330
1
100
AcDbSymbolTableRecord
100
AcDbLayerTableRecord
  2
GRY2
 70
0
 62
7
  6
Continuous
370
-3
390
13
347
21
  0
ENDTAB
  0
TABLE
  2
STYLE
  5
5
330
0
100
AcDbSymbolTable
 70
1
  0
STYLE
  5
29
330
5
100
AcDbSymbolTableRecord
100
AcDbTextStyleTableRecord
  2
Standard
 70
0
 40
0.0
 41
1.0
 50
0.0
 71
0
 42
2.5
  3
txt
  4

  0
ENDTAB
  0
TABLE
  2
VIEW
  5
7
330
0
100
AcDbSymbolTable
 70
0
  0
ENDTAB
  0
TABLE
  2
UCS
  5
6
330
0
100
AcDbSymbolTable
 70
0
  0
ENDTAB
  0
TABLE
  2
APPID
  5
3
330
0
100
AcDbSymbolTable
 70
3
  0
APPID
  5
2A
330
3
100
AcDbSymbolTableRecord
100
AcDbRegAppTableRecord
  2
ACAD
 70
0
  0
APPID
  5
3F
330
3
100
AcDbSymbolTableRecord
100
AcDbRegAppTableRecord
  2
HATCHBACKGROUNDCOLOR
 70
0
  0
APPID
  5
40
330
3
100
AcDbSymbolTableRecord
100
AcDbRegAppTableRecord
  2
EZDXF
 70
0
  0
ENDTAB
  0
TABLE
  2
DIMSTYLE
  5
4
330
0
100
AcDbSymbolTable
 70
1
100
AcDbDimStyleTable
  0
DIMSTYLE
105
2B
330
4
100
AcDbSymbolTableRecord
100
AcDbDimStyleTableRecord
  2
Standard
 70
0
 40
1.0
 41
2.5
 42
0.625
 43
3.75
 44
1.25
 45
0.0
 46
0.0
 47
0.0
 48
0.0
 49
2.5
140
2.5
141
2.5
142
0.0
143
0.03937007874
144
1.0
145
0.0
146
1.0
147
0.625
148
0.0
 69
0
 70
0
 71
0
 72
0
 73
0
 74
0
 75
0
 76
0
 77
1
 78
8
 79
3
170
0
171
3
172
1
173
0
174
0
175
0
176
0
177
0
178
0
179
2
271
2
272
2
273
2
274
3
275
0
276
0
277
2
278
44
279
0
280
0
281
0
282
0
283
0
284
8
285
0
286
0
288
0
289
3
290
0
371
-2
372
-2
  0
ENDTAB
  0
TABLE
  2
BLOCK_RECORD
  5
9
330
0
100
AcDbSymbolTable
 70
2
  0
BLOCK_RECORD
  5
17
330
9
100
AcDbSymbolTableRecord
100
AcDbBlockTableRecord
  2
*Model_Space
340
1A
 70
0
280
1
281
0
  0
BLOCK_RECORD
  5
1B
330
9
100
AcDbSymbolTableRecord
100
AcDbBlockTableRecord
  2
*Paper_Space
340
1E
 70
0
280
1
281
0
  0
ENDTAB
  0
ENDSEC
  0
SECTION
  2
BLOCKS
  0
BLOCK
  5
18
330
17
100
AcDbEntity
  8
0
100
AcDbBlockBegin
  2
*Model_Space
 70
0
 10
0.0
 20
0.0
 30
0.0
  3
*Model_Space
  1

  0
ENDBLK
  5
19
330
17
100
AcDbEntity
  8
0
100
AcDbBlockEnd
  0
BLOCK
  5
1C
330
1B
100
AcDbEntity
  8
0
100
AcDbBlockBegin
  2
*Paper_Space
 70
0
 10
0.0
 20
0.0
 30
0.0
  3
*Paper_Space
  1

  0
ENDBLK
  5
1D
330
1B
100
AcDbEntity
  8
0
100
AcDbBlockEnd
  0
ENDSEC
  0
SECTION
  2
ENTITIES
  0
LWPOLYLINE
  5
30
330
17
100
AcDbEntity
  8
GRY2
100
AcDbPolyline
 90
21
 70
1
 10
147.6708728736027
 20
5.0766638222270455
 10
147.6708728736027
 20
9.362378107941272
 10
144.98662444269272
 20
13.64809239365561
 10
144.98662444269272
 20
16.502274195530518
 10
140.96025179632775
 20
22.216559909816304
 10
140.96025179632775
 20
25.151585204909786
 10
147.6708728736027
 20
30.86587091919546
 10
147.6708728736027
 20
40.859286524172475
 10
149.74079871831213
 20
43.062537823092775
 10
152.48870972956774
 20
43.062537823092775
 10
159.19933080684268
 20
40.20539496594988
 10
163.26590915822737
 20
40.20539496594988
 10
166.68830675786705
 20
33.6482887986056
 10
157.2657423817876
 20
26.484375430881336
 10
157.2657423817876
 20
19.419840395387133
 10
162.63423924360754
 20
10.848411823958571
 10
162.63423924360754
 20
6.494360550584499
 10
159.24049633154925
 20
2.8820241481453124
 10
153.82524817329667
 20
0.0
 10
150.39286083878412
 20
0.730693988143627
 10
147.6708728736027
 20
5.0766638222270455
  0
LWPOLYLINE
  5
31
330
17
100
AcDbEntity
  8
GRY2
100
AcDbPolyline
 90
30
 70
1
 10
107.4071464099533
 20
90.78007483629868
 10
104.72289797904332
 20
93.63721769344157
 10
104.72289797904332
 20
102.20864626487003
 10
103.38077376358834
 20
103.63721769344158
 10
103.38077376358834
 20
110.78007483629871
 10
102.03864954813335
 20
112.20864626487025
 10
102.03864954813335
 20
115.13412610967266
 10
104.72289797904332
 20
119.41984039538711
 10
104.72289797904332
 20
145.1450008098868
 10
106.8155617600326
 20
147.3724546123757
 10
112.22953449441242
 20
144.4911092516642
 10
114.92252751034671
 20
144.4911092516642
 10
119.68626434904795
 20
140.86927164387563
 10
119.68626434904795
 20
132.27698325253002
 10
122.39173526448587
 20
127.9573848061425
 10
117.00201591813797
 20
120.78629086272453
 10
117.00201591813797
 20
113.71642938131521
 10
118.34414013359296
 20
112.28785795274388
 10
118.34414013359296
 20
109.4307150956012
 10
121.03604839315163
 20
106.5654190345825
 10
119.67914950524361
 20
99.34393029157252
 10
118.34414013359296
 20
97.9229319791558
 10
118.34414013359296
 20
92.28785795274408
 10
123.71263699541291
 20
86.5735722384583
 10
123.71263699541291
 20
83.63721769344178
 10
120.30877051226562
 20
80.01410565321387
 10
113.59814943499069
 20
78.58553422464232
 10
112.21577564507524
 20
77.11412071675794
 10
107.4071464099533
 20
80.7700897165956
 10
107.4071464099533
 20
90.78007483629868
  0
LWPOLYLINE
  5
32
330
17
100
AcDbEntity
  8
GRY2
100
AcDbPolyline
 90
18
 70
1
 10
108.14391248068733
 20
7.138710261023418
 10
101.50861251919952
 20
5.726173353361785
 10
97.4365298253439
 20
2.836594319253094
 10
91.30165582449345
 20
7.915503252656664
 10
91.30165582449345
 20
15.145000809886788
 10
93.36468984911006
 20
17.34091638148594
 10
101.41743514183999
 20
18.769487810057385
 10
103.38077376358834
 20
20.85928652417246
 10
103.38077376358834
 20
27.992981224383207
 10
106.7827610999621
 20
33.06253782309276
 10
114.93209007342853
 20
33.06253782309276
 10
118.35866958536312
 20
29.415249791098997
 10
114.33229693899816
 20
17.98667836252754
 10
116.98577361383644
 20
15.162289293018327
 10
121.04778057877242
 20
6.515001618831895
 10
116.25147635260369
 20
1.4097638909528198
 10
110.8008893220116
 20
4.310595576716758
 10
108.14391248068733
 20
7.138710261023418
  0
LWPOLYLINE
  5
33
330
17
100
AcDbEntity
  8
GRY2
100
AcDbPolyline
 90
11
 70
1
 10
12.11632711264954
 20
83.72234136666424
 10
19.5605700946323
 20
90.20539496594992
 10
24.92324668099899
 20
90.20539496594992
 10
27.674267581072385
 20
93.1336111563682
 10
31.11385974245384
 20
86.54356125190444
 10
29.75252062528555
 20
82.19648932296796
 10
26.351891853399813
 20
78.57682353737839
 10
20.983394991579864
 20
78.57682353737839
 10
19.612516215402497
 20
77.11764544556654
 10
12.11632711264954
 20
82.19520629102728
 10
12.11632711264954
 20
83.72234136666424
  0
LWPOLYLINE
  5
34
330
17
100
AcDbEntity
  8
GRY2
100
AcDbPolyline
 90
5
 70
1
 10
0.0
 20
93.6768235373785
 10
2.150395496737234
 20
95.96572759811484
 10
4.300790993474468
 20
93.6768235373785
 10
2.150395496737234
 20
91.38791947664215
 10
0.0
 20
93.6768235373785
  0
LWPOLYLINE
  5
35
330
17
100
AcDbEntity
  8
GRY2
100
AcDbPolyline
 90
16
 70
1
 10
748.3661854203356
 20
335.06789711552466
 10
748.3661854203356
 20
343.71432138780386
 10
750.2907161916586
 20
345.91968068023573
 10
764.0123477174827
 20
345.91968068023573
 10
769.0461381185892
 20
350.2459234465186
 10
770.3343850964106
 20
348.7696948063642
 10
779.0609938532127
 20
347.3411233777929
 10
780.9793036598865
 20
345.14289281637525
 10
780.9793036598865
 20
336.50535182451347
 10
777.8181610525659
 20
331.4339663945213
 10
773.9772256744074
 20
331.4339663945213
 10
772.7305672805784
 20
332.86253782309285
 10
765.3415305564457
 20
332.86253782309285
 10
764.090651204828
 20
331.4291295123987
 10
750.286689977121
 20
332.86715154492896
 10
748.3661854203356
 20
335.06789711552466
  0
LWPOLYLINE
  5
36
330
17
100
AcDbEntity
  8
GRY2
100
AcDbPolyline
 90
14
 70
1
 10
733.3735617874004
 20
322.24825210880715
 10
735.3203437210891
 20
324.4791094646741
 10
740.3759708097668
 20
325.92744616383493
 10
742.8347908407436
 20
324.5186400058525
 10
744.0574242225142
 20
325.9196806802357
 10
746.6416546490125
 20
325.9196806802357
 10
749.8195573391629
 20
322.27805679320943
 10
748.559894254339
 20
315.0606879393466
 10
747.3195270265065
 20
313.6393256869531
 10
747.3195270265065
 20
309.3536114012388
 10
744.1028810419343
 20
305.6675907783194
 10
740.8981882818706
 20
309.3399139560552
 10
738.4048714942129
 20
316.48277109891234
 10
733.3735617874004
 20
322.24825210880715
  0
LWPOLYLINE
  5
37
330
17
100
AcDbEntity
  8
GRY2
100
AcDbPolyline
 90
13
 70
1
 10
715.3971491606545
 20
332.86253782309285
 10
708.4166231818334
 20
337.9528919565366
 10
715.4369431102192
 20
344.5349426514844
 10
716.7218531971191
 20
343.0625378230926
 10
721.6968566016384
 20
343.0625378230926
 10
725.4368317831251
 20
340.20539496594995
 10
729.1884371354081
 20
340.20539496594995
 10
731.112967906731
 20
338.0000356735181
 10
731.112967906731
 20
332.21075425838154
 10
729.1789755726421
 20
329.99455276707346
 10
722.8556954618617
 20
331.4437480471647
 10
721.6175731335941
 20
332.86253782309285
 10
715.3971491606545
 20
332.86253782309285
  0
LWPOLYLINE
  5
38
330
17
100
AcDbEntity
  8
GRY2
100
AcDbPolyline
 90
10
 70
1
 10
701.7379274591142
 20
351.66149714870966
 10
704.9253701877509
 20
348.008941135869
 10
706.17202858158
 20
342.29465542158346
 10
708.7058397247994
 20
339.39110925166403
 10
704.2552692588304
 20
334.2911092516642
 10
699.2686356835147
 20
334.2911092516642
 10
696.7424664598481
 20
331.396320114134
 10
688.4823325553377
 20
337.9493287351821
 10
699.1588834420083
 20
350.1838074246827
 10
701.7379274591142
 20
351.66149714870966
  0
LWPOLYLINE
  5
39
330
17
100
AcDbEntity
  8
GRY2
100
AcDbPolyline
 90
71
 70
1
 10
563.865293855176
 20
165.06268235038235
 10
562.6186354613471
 20
175.06268235038235
 10
561.3674263460027
 20
176.49646854409585
 10
561.3674263460027
 20
196.57146424494664
 10
563.2919571173259
 20
198.77682353737848
 10
565.7969040757799
 20
198.77682353737848
 10
569.5368792572666
 20
201.63396639452137
 10
573.2768544387532
 20
201.63396639452137
 10
577.0168296202401
 20
204.49110925166426
 10
579.4985162371014
 20
204.49110925166426
 10
581.3139606472648
 20
206.57146424494667
 10
581.3139606472648
 20
209.4225623927749
 10
586.2865457950899
 20
216.54529655905253
 10
583.7945773527462
 20
222.25649208022514
 10
590.0165303529385
 20
232.2383011002288
 10
587.5560557465949
 20
235.05780942804967
 10
585.0627389589371
 20
245.05780942804967
 10
582.5211137993691
 20
247.97030983960633
 10
588.7939110102383
 20
253.72081144744308
 10
588.7939110102383
 20
258.000035673518
 10
592.0239936234489
 20
261.7014536048453
 10
595.2399030615592
 20
256.54220636593936
 10
593.9975220424432
 20
253.69486657166328
 10
595.750532176297
 20
251.6860562964377
 10
598.243848963955
 20
254.54319915358036
 10
599.4905073577836
 20
253.11462772500903
 10
601.2277720415389
 20
255.10539496594998
 10
598.741128862345
 20
257.9548903982455
 10
603.2205657843608
 20
264.5545629664728
 10
606.970457720757
 20
260.25748486786614
 10
608.1956843072238
 20
261.66149714870954
 10
613.1823178825396
 20
258.8043542915669
 10
616.1821846035866
 20
262.24196310920644
 10
608.7022342406134
 20
269.38482025206355
 10
610.6890010948817
 20
271.66149714870977
 10
613.2303679066559
 20
270.20539496594984
 10
618.2242099138408
 20
270.20539496594984
 10
621.9738339916629
 20
267.34088086330235
 10
628.2176433008298
 20
265.9098990275922
 10
630.7024240229262
 20
263.0625378230927
 10
633.1841106397875
 20
263.0625378230927
 10
636.9240858212742
 20
260.20539496594984
 10
640.6857377313886
 20
260.20539496594984
 10
643.8655351283064
 20
255.10408186741674
 10
640.1069051572226
 20
249.36129361166303
 10
640.1069051572226
 20
233.63932568695301
 10
638.1823743858994
 20
231.4339663945214
 10
614.4958649031506
 20
231.4339663945214
 10
612.680420492987
 20
229.35361140123877
 10
612.680420492987
 20
226.49646854409588
 10
608.9404453115004
 20
222.21075425838166
 10
608.9404453115004
 20
217.92503997266743
 10
605.2004701300137
 20
213.6393256869532
 10
605.2004701300137
 20
209.41808170619825
 10
607.6937869176716
 20
205.13236742048403
 10
607.6937869176716
 20
202.2034253534396
 10
602.0297289630585
 20
197.15521185846708
 10
594.5565292037285
 20
195.7279297057627
 10
592.7275950257284
 20
193.63211651077518
 10
591.492011805403
 20
186.552715710537
 10
593.9805445855537
 20
182.2752245633411
 10
593.9805445855537
 20
179.3585928711562
 10
587.7530484254561
 20
170.79513414351243
 10
589.0006245352366
 20
163.6470188529763
 10
587.7419706211691
 20
162.2047015116762
 10
586.4939669260012
 20
153.62402328983015
 10
582.0679109380302
 20
150.0012316064373
 10
569.5208328749491
 20
151.4390270219016
 10
567.6060003103876
 20
153.63327294024776
 10
566.3593419165587
 20
162.2047015116762
 10
563.865293855176
 20
165.06268235038235
  0
LWPOLYLINE
  5
3A
330
17
100
AcDbEntity
  8
GRY2
100
AcDbPolyline
 90
11
 70
1
 10
601.241651616957
 20
215.1212998561599
 10
598.219807708805
 20
221.3543271251247
 10
596.4738613732117
 20
219.35361140123877
 10
596.4738613732117
 20
216.57146424494667
 10
597.7532426740288
 20
215.10539496594993
 10
596.4738613732117
 20
213.6393256869532
 10
596.4738613732117
 20
210.8571785306609
 10
598.2606116282245
 20
208.80970475842352
 10
601.2358364455131
 20
210.85532745118095
 10
599.9968590978089
 20
213.69486657166348
 10
601.241651616957
 20
215.1212998561599
  0
LWPOLYLINE
  5
3B
330
17
100
AcDbEntity
  8
GRY2
100
AcDbPolyline
 90
11
 70
1
 10
584.509174824475
 20
121.66149714870966
 10
594.5304919992227
 20
115.91968068023573
 10
598.2893057833751
 20
115.91968068023573
 10
600.1993231113898
 20
113.73095264023291
 10
601.4604949485272
 20
110.84054727823178
 10
601.4604949485272
 20
100.78218282981022
 10
598.2533078872017
 20
97.1070013810883
 10
587.5548086107201
 20
106.48201240435317
 10
586.3056289588104
 20
113.63931535399973
 10
582.5354439627364
 20
119.39975846333539
 10
584.509174824475
 20
121.66149714870966
  0
LWPOLYLINE
  5
3C
330
17
100
AcDbEntity
  8
GRY2
100
AcDbPolyline
 90
57
 70
1
 10
1632.8597096921571
 20
305.01383828383246
 10
1630.5781461208462
 20
307.9280486940289
 10
1630.5781461208462
 20
326.4994772654576
 10
1627.8267188224243
 20
330.01383828383257
 10
1619.9976219139505
 20
331.4424097124039
 10
1618.8857898538477
 20
332.86253782309285
 10
1612.17513536087
 20
332.86253782309285
 10
1609.3277402264177
 20
336.4994772654576
 10
1609.3277402264177
 20
347.9970269521565
 10
1611.5646250574105
 20
350.8541698092994
 10
1611.5646250574105
 20
356.56845552358516
 10
1614.4061947489663
 20
360.1979542062245
 10
1623.362967641163
 20
361.62799987383244
 10
1631.2496307588697
 20
368.8233774048791
 10
1632.3703131266443
 20
367.39194491544134
 10
1635.6743290905313
 20
370.2053949659497
 10
1639.0296563370205
 20
370.2053949659497
 10
1642.384983583509
 20
373.06253782309284
 10
1644.707387218837
 20
373.06253782309284
 10
1645.805036184144
 20
371.66052558829864
 10
1651.3452646361516
 20
374.49110925166417
 10
1659.1497168117116
 20
374.49110925166417
 10
1660.268159227208
 20
375.9196806802355
 10
1665.860371304689
 20
375.9196806802355
 10
1666.9788137201851
 20
377.34825210880683
 10
1669.307669786441
 20
377.34825210880683
 10
1676.0183242794183
 20
370.2053949659497
 10
1680.497544514716
 20
370.2053949659497
 10
1682.7410397011017
 20
367.33980879092445
 10
1690.5617066851287
 20
365.91277556648447
 10
1699.0382913937065
 20
357.97295544125905
 10
1695.037295916167
 20
352.86253782309285
 10
1692.8004110851746
 20
352.86253782309285
 10
1686.7141934320828
 20
345.0886940142309
 10
1692.2924789731385
 20
330.83855608320624
 10
1692.2924789731385
 20
327.9280486940289
 10
1688.3356763954766
 20
322.8740780714664
 10
1682.7434643179952
 20
321.44550664289505
 10
1681.5672760259245
 20
319.94317718418307
 10
1680.4488336104282
 20
321.3717486127544
 10
1679.3791020992198
 20
320.0053949659499
 10
1676.011871848491
 20
320.0053949659499
 10
1672.6565446020018
 20
317.148252108807
 10
1669.3012173555132
 20
317.148252108807
 10
1665.8945788264232
 20
314.24741644502984
 10
1664.790639793481
 20
315.6574628984686
 10
1663.7209082822728
 20
314.2911092516641
 10
1660.3536780315437
 20
314.2911092516641
 10
1656.9983507850548
 20
311.43396639452124
 10
1653.6430235385662
 20
311.43396639452124
 10
1650.2363850094762
 20
308.53313073074406
 10
1649.0837350722456
 20
310.0053949659499
 10
1646.932369045589
 20
310.0053949659499
 10
1643.5770417991
 20
307.148252108807
 10
1640.2217145526115
 20
307.148252108807
 10
1636.8582949522447
 20
304.2842184152771
 10
1632.8597096921571
 20
305.01383828383246
  0
LWPOLYLINE
  5
3D
330
17
100
AcDbEntity
  8
GRY2
100
AcDbPolyline
 90
19
 70
1
 10
2865.892175953771
 20
263.6438593372409
 10
2867.1970175925744
 20
273.71423241675217
 10
2876.2699284744926
 20
286.5754127493193
 10
2877.568276869817
 20
292.30127571527265
 10
2884.746830966117
 20
298.77682353737856
 10
2888.6281344633026
 20
298.77682353737856
 10
2893.8110274048095
 20
304.4911092516641
 10
2896.402473875563
 20
304.4911092516641
 10
2897.7425024237523
 20
305.9685285377792
 10
2899.800644613171
 20
303.69936869911464
 10
2897.1928891216853
 20
296.5115586673804
 10
2895.8961534018526
 20
283.64436917610226
 10
2893.2880393328473
 20
279.3310901443108
 10
2891.292666812594
 20
277.1311356370799
 10
2887.405497106463
 20
278.5597070656515
 10
2875.7595127351597
 20
265.7196806802357
 10
2874.4637894997823
 20
265.7196806802357
 10
2869.236591245464
 20
259.9565471084063
 10
2865.892175953771
 20
263.6438593372409
  0
LWPOLYLINE
  5
3E
330
17
100
AcDbEntity
  8
GRY2
100
AcDbPolyline
 90
10
 70
1
 10
6116.543088394036
 20
370.00539496594973
 10
6113.786995850593
 20
373.6432200065064
 10
6113.786995850593
 20
375.1389984968217
 10
6123.063555836003
 20
387.38332689770704
 10
6127.4853115209635
 20
384.46514231202633
 10
6130.221730966357
 20
380.8532842111075
 10
6130.221730966357
 20
376.5675699253933
 10
6131.322648239725
 20
375.1144458515422
 10
6128.557845312373
 20
370.00539496594973
 10
6116.543088394036
 20
370.00539496594973
  0
ENDSEC
  0
SECTION
  2
OBJECTS
  0
DICTIONARY
  5
A
330
0
100
AcDbDictionary
281
1
  3
ACAD_COLOR
350
B
  3
ACAD_GROUP
350
C
  3
ACAD_LAYOUT
350
D
  3
ACAD_MATERIAL
350
E
  3
ACAD_MLEADERSTYLE
350
F
  3
ACAD_MLINESTYLE
350
10
  3
ACAD_PLOTSETTINGS
350
11
  3
ACAD_PLOTSTYLENAME
350
12
  3
ACAD_SCALELIST
350
14
  3
ACAD_TABLESTYLE
350
15
  3
ACAD_VISUALSTYLE
350
16
  3
EZDXF_META
350
2D
  0
DICTIONARY
  5
B
330
A
100
AcDbDictionary
281
1
  0
DICTIONARY
  5
C
330
A
100
AcDbDictionary
281
1
  0
DICTIONARY
  5
D
330
A
100
AcDbDictionary
281
1
  3
Model
350
1A
  3
Layout1
350
1E
  0
DICTIONARY
  5
E
330
A
100
AcDbDictionary
281
1
  3
ByBlock
350
1F
  3
ByLayer
350
20
  3
Global
350
21
  0
DICTIONARY
  5
F
330
A
100
AcDbDictionary
281
1
  3
Standard
350
2C
  0
DICTIONARY
  5
10
330
A
100
AcDbDictionary
281
1
  3
Standard
350
22
  0
DICTIONARY
  5
11
330
A
100
AcDbDictionary
281
1
  0
ACDBDICTIONARYWDFLT
  5
12
330
A
100
AcDbDictionary
281
1
  3
Normal
350
13
100
AcDbDictionaryWithDefault
340
13
  0
ACDBPLACEHOLDER
  5
13
330
12
  0
DICTIONARY
  5
14
330
A
100
AcDbDictionary
281
1
  0
DICTIONARY
  5
15
330
A
100
AcDbDictionary
281
1
  0
DICTIONARY
  5
16
330
A
100
AcDbDictionary
281
1
  0
LAYOUT
  5
1A
330
D
100
AcDbPlotSettings
  1

  4
A3
  6

 40
7.5
 41
20.0
 42
7.5
 43
20.0
 44
420.0
 45
297.0
 46
0.0
 47
0.0
 48
0.0
 49
0.0
140
0.0
141
0.0
142
1.0
143
1.0
 70
1024
 72
1
 73
0
 74
5
  7

 75
16
 76
0
 77
2
 78
300
147
1.0
148
0.0
149
0.0
100
AcDbLayout
  1
Model
 70
1
 71
0
 10
0.0
 20
0.0
 11
420.0
 21
297.0
 12
0.0
 22
0.0
 32
0.0
 14
1e+20
 24
1e+20
 34
1e+20
 15
-1e+20
 25
-1e+20
 35
-1e+20
146
0.0
 13
0.0
 23
0.0
 33
0.0
 16
1.0
 26
0.0
 36
0.0
 17
0.0
 27
1.0
 37
0.0
 76
1
330
17
  0
LAYOUT
  5
1E
330
D
100
AcDbPlotSettings
  1

  4
A3
  6

 40
7.5
 41
20.0
 42
7.5
 43
20.0
 44
420.0
 45
297.0
 46
0.0
 47
0.0
 48
0.0
 49
0.0
140
0.0
141
0.0
142
1.0
143
1.0
 70
0
 72
1
 73
0
 74
5
  7

 75
16
 76
0
 77
2
 78
300
147
1.0
148
0.0
149
0.0
100
AcDbLayout
  1
Layout1
 70
1
 71
1
 10
0.0
 20
0.0
 11
420.0
 21
297.0
 12
0.0
 22
0.0
 32
0.0
 14
1e+20
 24
1e+20
 34
1e+20
 15
-1e+20
 25
-1e+20
 35
-1e+20
146
0.0
 13
0.0
 23
0.0
 33
0.0
 16
1.0
 26
0.0
 36
0.0
 17
0.0
 27
1.0
 37
0.0
 76
1
330
1B
  0
MATERIAL
  5
1F
102
{ACAD_REACTORS
330
E
102
}
330
E
100
AcDbMaterial
  1
ByBlock
  2

 70
0
 40
1.0
 71
1
 41
1.0
 91
-1023410177
 42
1.0
 72
1
  3

 73
1
 74
1
 75
1
 44
0.5
 73
0
 45
1.0
 46
1.0
 77
1
  4

 78
1
 79
1
170
1
 48
1.0
171
1
  6

172
1
173
1
174
1
140
1.0
141
1.0
175
1
  7

176
1
177
1
178
1
143
1.0
179
1
  8

270
1
271
1
272
1
145
1.0
146
1.0
273
1
  9

274
1
275
1
276
1
 42
1.0
 72
1
  3

 73
1
 74
1
 75
1
 94
63
  0
MATERIAL
  5
20
102
{ACAD_REACTORS
330
E
102
}
330
E
100
AcDbMaterial
  1
ByLayer
  2

 70
0
 40
1.0
 71
1
 41
1.0
 91
-1023410177
 42
1.0
 72
1
  3

 73
1
 74
1
 75
1
 44
0.5
 73
0
 45
1.0
 46
1.0
 77
1
  4

 78
1
 79
1
170
1
 48
1.0
171
1
  6

172
1
173
1
174
1
140
1.0
141
1.0
175
1
  7

176
1
177
1
178
1
143
1.0
179
1
  8

270
1
271
1
272
1
145
1.0
146
1.0
273
1
  9

274
1
275
1
276
1
 42
1.0
 72
1
  3

 73
1
 74
1
 75
1
 94
63
  0
MATERIAL
  5
21
102
{ACAD_REACTORS
330
E
102
}
330
E
100
AcDbMaterial
  1
Global
  2

 70
0
 40
1.0
 71
1
 41
1.0
 91
-1023410177
 42
1.0
 72
1
  3

 73
1
 74
1
 75
1
 44
0.5
 73
0
 45
1.0
 46
1.0
 77
1
  4

 78
1
 79
1
170
1
 48
1.0
171
1
  6

172
1
173
1
174
1
140
1.0
141
1.0
175
1
  7

176
1
177
1
178
1
143
1.0
179
1
  8

270
1
271
1
272
1
145
1.0
146
1.0
273
1
  9

274
1
275
1
276
1
 42
1.0
 72
1
  3

 73
1
 74
1
 75
1
 94
63
  0
MLINESTYLE
  5
22
102
{ACAD_REACTORS
330
10
102
}
330
10
100
AcDbMlineStyle
  2
Standard
 70
0
  3

 62
256
 51
90.0
 52
90.0
 71
2
 49
0.5
 62
256
  6
BYLAYER
 49
-0.5
 62
256
  6
BYLAYER
  0
MLEADERSTYLE
  5
2C
102
{ACAD_REACTORS
330
F
102
}
330
F
100
AcDbMLeaderStyle
179
2
170
2
171
1
172
0
 90
2
 40
0.0
 41
0.0
173
1
 91
-1056964608
 92
-2
290
1
 42
2.0
291
1
 43
8.0
  3
Standard
 44
4.0
300

342
29
174
1
175
1
176
0
178
1
 93
-1056964608
 45
4.0
292
0
297
0
 46
4.0
 94
-1056964608
 47
1.0
 49
1.0
140
1.0
294
1
141
0.0
177
0
142
1.0
295
0
296
0
143
3.75
271
0
272
9
273
9
  0
DICTIONARY
  5
2D
330
A
100
AcDbDictionary
280
1
281
1
  3
CREATED_BY_EZDXF
350
2E
  3
WRITTEN_BY_EZDXF
350
41
  0
DICTIONARYVAR
  5
2E
330
2D
100
DictionaryVariables
280
0
  1
1.4.4 @ 2026-07-23T17:47:29.286532+00:00
  0
DICTIONARYVAR
  5
41
330
2D
100
DictionaryVariables
280
0
  1
1.4.4 @ 2026-07-23T17:47:29.289628+00:00
  0
ENDSEC
  0
EOF
