  0
SECTION
  2
HEADER
  9
$ACADVER
  1
AC1027
  9
$ACADMAINTVER
 70
105
  9
$DWGCODEPAGE
  3
ANSI_1252
  9
$LASTSAVEDBY
  1
ezdxf
  9
$REQUIREDVERSIONS
160
0
  9
$INSBASE
 10
0.0
 20
0.0
 30
0.0
  9
$EXTMIN
 10
1e+20
 20
1e+20
 30
1e+20
  9
$EXTMAX
 10
-1e+20
 20
-1e+20
 30
-1e+20
  9
$LIMMIN
 10
0.0
 20
0.0
  9
$LIMMAX
 10
420.0
 20
297.0
  9
$ORTHOMODE
 70
0
  9
$REGENMODE
 70
1
  9
$FILLMODE
 70
1
  9
$QTEXTMODE
 70
0
  9
$MIRRTEXT
 70
1
  9
$LTSCALE
 40
1.0
  9
$ATTMODE
 70
1
  9
$TEXTSIZE
 40
2.5
  9
$TRACEWID
 40
1.0
  9
$TEXTSTYLE
  7
Standard
  9
$CLAYER
  8
0
  9
$CELTYPE
  6
ByLayer
  9
$CECOLOR
 62
256
  9
$CELTSCALE
 40
1.0
  9
$DISPSILH
 70
0
  9
$DIMSCALE
 40
1.0
  9
$DIMASZ
 40
2.5
  9
$DIMEXO
 40
0.625
  9
$DIMDLI
 40
3.75
  9
$DIMRND
 40
0.0
  9
$DIMDLE
 40
0.0
  9
$DIMEXE
 40
1.25
  9
$DIMTP
 40
0.0
  9
$DIMTM
 40
0.0
  9
$DIMTXT
 40
2.5
  9
$DIMCEN
 40
2.5
  9
$DIMTSZ
 40
0.0
  9
$DIMTOL
 70
0
  9
$DIMLIM
 70
0
  9
$DIMTIH
 70
0
  9
$DIMTOH
 70
0
  9
$DIMSE1
 70
0
  9
$DIMSE2
 70
0
  9
$DIMTAD
 70
1
  9
$DIMZIN
 70
8
  9
$DIMBLK
  1

  9
$DIMASO
 70
1
  9
$DIMSHO
 70
1
  9
$DIMPOST
  1

  9
$DIMAPOST
  1

  9
$DIMALT
 70
0
  9
$DIMALTD
 70
3
  9
$DIMALTF
 40
0.03937007874
  9
$DIMLFAC
 40
1.0
  9
$DIMTOFL
 70
1
  9
$DIMTVP
 40
0.0
  9
$DIMTIX
 70
0
  9
$DIMSOXD
 70
0
  9
$DIMSAH
 70
0
  9
$DIMBLK1
  1

  9
$DIMBLK2
  1

  9
$DIMSTYLE
  2
ISO-25
  9
$DIMCLRD
 70
0
  9
$DIMCLRE
 70
0
  9
$DIMCLRT
 70
0
  9
$DIMTFAC
 40
1.0
  9
$DIMGAP
 40
0.625
  9
$DIMJUST
 70
0
  9
$DIMSD1
 70
0
  9
$DIMSD2
 70
0
  9
$DIMTOLJ
 70
0
  9
$DIMTZIN
 70
8
  9
$DIMALTZ
 70
0
  9
$DIMALTTZ
 70
0
  9
$DIMUPT
 70
0
  9
$DIMDEC
 70
2
  9
$DIMTDEC
 70
2
  9
$DIMALTU
 70
2
  9
$DIMALTTD
 70
3
  9
$DIMTXSTY
  7
Standard
  9
$DIMAUNIT
 70
0
  9
$DIMADEC
 70
0
  9
$DIMALTRND
 40
0.0
  9
$DIMAZIN
 70
0
  9
$DIMDSEP
 70
44
  9
$DIMATFIT
 70
3
  9
$DIMFRAC
 70
0
  9
$DIMLDRBLK
  1

  9
$DIMLUNIT
 70
2
  9
$DIMLWD
 70
-2
  9
$DIMLWE
 70
-2
  9
$DIMTMOVE
 70
0
  9
$DIMFXL
 40
1.0
  9
$DIMFXLON
 70
0
  9
$DIMJOGANG
 40
0.785398163397
  9
$DIMTFILL
 70
0
  9
$DIMTFILLCLR
 70
0
  9
$DIMARCSYM
 70
0
  9
$DIMLTYPE
  6

  9
$DIMLTEX1
  6

  9
$DIMLTEX2
  6

  9
$DIMTXTDIRECTION
 70
0
  9
$LUNITS
 70
2
  9
$LUPREC
 70
4
  9
$SKETCHINC
 40
1.0
  9
$FILLETRAD
 40
10.0
  9
$AUNITS
 70
0
  9
$AUPREC
 70
2
  9
$MENU
  1
.
  9
$ELEVATION
 40
0.0
  9
$PELEVATION
 40
0.0
  9
$THICKNESS
 40
0.0
  9
$LIMCHECK
 70
0
  9
$CHAMFERA
 40
0.0
  9
$CHAMFERB
 40
0.0
  9
$CHAMFERC
 40
0.0
  9
$CHAMFERD
 40
0.0
  9
$SKPOLY
 70
0
  9
$TDCREATE
 40
2461245.8663078705
  9
$TDUCREATE
 40
2458532.153996898
  9
$TDUPDATE
 40
2461245.8663078705
  9
$TDUUPDATE
 40
2458532.1544311
  9
$TDINDWG
 40
0.0
  9
$TDUSRTIMER
 40
0.0
  9
$USRTIMER
 70
1
  9
$ANGBASE
 50
0.0
  9
$ANGDIR
 70
0
  9
$PDMODE
 70
0
  9
$PDSIZE
 40
0.0
  9
$PLINEWID
 40
0.0
  9
$SPLFRAME
 70
0
  9
$SPLINETYPE
 70
6
  9
$SPLINESEGS
 70
8
  9
$HANDSEED
  5
44
  9
$SURFTAB1
 70
6
  9
$SURFTAB2
 70
6
  9
$SURFTYPE
 70
6
  9
$SURFU
 70
6
  9
$SURFV
 70
6
  9
$UCSBASE
  2

  9
$UCSNAME
  2

  9
$UCSORG
 10
0.0
 20
0.0
 30
0.0
  9
$UCSXDIR
 10
1.0
 20
0.0
 30
0.0
  9
$UCSYDIR
 10
0.0
 20
1.0
 30
0.0
  9
$UCSORTHOREF
  2

  9
$UCSORTHOVIEW
 70
0
  9
$UCSORGTOP
 10
0.0
 20
0.0
 30
0.0
  9
$UCSORGBOTTOM
 10
0.0
 20
0.0
 30
0.0
  9
$UCSORGLEFT
 10
0.0
 20
0.0
 30
0.0
  9
$UCSORGRIGHT
 10
0.0
 20
0.0
 30
0.0
  9
$UCSORGFRONT
 10
0.0
 20
0.0
 30
0.0
  9
$UCSORGBACK
 10
0.0
 20
0.0
 30
0.0
  9
$PUCSBASE
  2

  9
$PUCSNAME
  2

  9
$PUCSORG
 10
0.0
 20
0.0
 30
0.0
  9
$PUCSXDIR
 10
1.0
 20
0.0
 30
0.0
  9
$PUCSYDIR
 10
0.0
 20
1.0
 30
0.0
  9
$PUCSORTHOREF
  2

  9
$PUCSORTHOVIEW
 70
0
  9
$PUCSORGTOP
 10
0.0
 20
0.0
 30
0.0
  9
$PUCSORGBOTTOM
 10
0.0
 20
0.0
 30
0.0
  9
$PUCSORGLEFT
 10
0.0
 20
0.0
 30
0.0
  9
$PUCSORGRIGHT
 10
0.0
 20
0.0
 30
0.0
  9
$PUCSORGFRONT
 10
0.0
 20
0.0
 30
0.0
  9
$PUCSORGBACK
 10
0.0
 20
0.0
 30
0.0
  9
$USERI1
 70
0
  9
$USERI2
 70
0
  9
$USERI3
 70
0
  9
$USERI4
 70
0
  9
$USERI5
 70
0
  9
$USERR1
 40
0.0
  9
$USERR2
 40
0.0
  9
$USERR3
 40
0.0
  9
$USERR4
 40
0.0
  9
$USERR5
 40
0.0
  9
$WORLDVIEW
 70
1
  9
$SHADEDGE
 70
3
  9
$SHADEDIF
 70
70
  9
$TILEMODE
 70
1
  9
$MAXACTVP
 70
64
  9
$PINSBASE
 10
0.0
 20
0.0
 30
0.0
  9
$PLIMCHECK
 70
0
  9
$PEXTMIN
 10
1e+20
 20
1e+20
 30
1e+20
  9
$PEXTMAX
 10
-1e+20
 20
-1e+20
 30
-1e+20
  9
$PLIMMIN
 10
0.0
 20
0.0
  9
$PLIMMAX
 10
420.0
 20
297.0
  9
$UNITMODE
 70
0
  9
$VISRETAIN
 70
1
  9
$PLINEGEN
 70
0
  9
$PSLTSCALE
 70
1
  9
$TREEDEPTH
 70
3020
  9
$CMLSTYLE
  2
Standard
  9
$CMLJUST
 70
0
  9
$CMLSCALE
 40
20.0
  9
$PROXYGRAPHICS
 70
1
  9
$MEASUREMENT
 70
1
  9
$CELWEIGHT
370
-1
  9
$ENDCAPS
280
0
  9
$JOINSTYLE
280
0
  9
$LWDISPLAY
290
0
  9
$INSUNITS
 70
4
  9
$HYPERLINKBASE
  1

  9
$STYLESHEET
  1

  9
$XEDIT
290
1
  9
$CEPSNTYPE
380
0
  9
$PSTYLEMODE
290
1
  9
$FINGERPRINTGUID
  2
{150DEB42-DF6F-4284-B976-BAB7FF9EB85E}
  9
$VERSIONGUID
  2
{CB96D505-3A04-4A5E-A277-4D5BCD8ED787}
  9
$EXTNAMES
290
1
  9
$PSVPSCALE
 40
0.0
  9
$OLESTARTUP
290
0
  9
$SORTENTS
280
127
  9
$INDEXCTL
280
0
  9
$HIDETEXT
280
1
  9
$XCLIPFRAME
280
1
  9
$HALOGAP
280
0
  9
$OBSCOLOR
 70
257
  9
$OBSLTYPE
280
0
  9
$INTERSECTIONDISPLAY
280
0
  9
$INTERSECTIONCOLOR
 70
257
  9
$DIMASSOC
280
2
  9
$PROJECTNAME
  1

  9
$CAMERADISPLAY
290
0
  9
$LENSLENGTH
 40
50.0
  9
$CAMERAHEIGHT
 40
0.0
  9
$STEPSPERSEC
 40
24.0
  9
$STEPSIZE
 40
100.0
  9
$3DDWFPREC
 40
2.0
  9
$PSOLWIDTH
 40
0.005
  9
$PSOLHEIGHT
 40
0.08
  9
$LOFTANG1
 40
1.570796326795
  9
$LOFTANG2
 40
1.570796326795
  9
$LOFTMAG1
 40
0.0
  9
$LOFTMAG2
 40
0.0
  9
$LOFTPARAM
 70
7
  9
$LOFTNORMALS
280
1
  9
$LATITUDE
 40
37.795
  9
$LONGITUDE
 40
-122.394
  9
$NORTHDIRECTION
 40
0.0
  9
$TIMEZONE
 70
-8000
  9
$LIGHTGLYPHDISPLAY
280
1
  9
$TILEMODELIGHTSYNCH
280
1
  9
$CMATERIAL
347
20
  9
$SOLIDHIST
280
0
  9
$SHOWHIST
280
1
  9
$DWFFRAME
280
2
  9
$DGNFRAME
280
2
  9
$REALWORLDSCALE
290
1
  9
$INTERFERECOLOR
 62
256
  9
$CSHADOW
280
0
  9
$SHADOWPLANELOCATION
 40
0.0
  0
ENDSEC
  0
SECTION
  2
CLASSES
  0
CLASS
  1
ACDBDICTIONARYWDFLT
  2
AcDbDictionaryWithDefault
  3
ObjectDBX Classes
 90
0
 91
0
280
0
281
0
  0
CLASS
  1
SUN
  2
AcDbSun
  3
SCENEOE
 90
1153
 91
0
280
0
281
0
  0
CLASS
  1
VISUALSTYLE
  2
AcDbVisualStyle
  3
ObjectDBX Classes
 90
4095
 91
0
280
0
281
0
  0
CLASS
  1
MATERIAL
  2
AcDbMaterial
  3
ObjectDBX Classes
 90
1153
 91
0
280
0
281
0
  0
CLASS
  1
SCALE
  2
AcDbScale
  3
ObjectDBX Classes
 90
1153
 91
0
280
0
281
0
  0
CLASS
  1
TABLESTYLE
  2
AcDbTableStyle
  3
ObjectDBX Classes
 90
4095
 91
0
280
0
281
0
  0
CLASS
  1
MLEADERSTYLE
  2
AcDbMLeaderStyle
  3
ACDB_MLEADERSTYLE_CLASS
 90
4095
 91
0
280
0
281
0
  0
CLASS
  1
DICTIONARYVAR
  2
AcDbDictionaryVar
  3
ObjectDBX Classes
 90
0
 91
0
280
0
281
0
  0
CLASS
  1
CELLSTYLEMAP
  2
AcDbCellStyleMap
  3
ObjectDBX Classes
 90
1152
 91
0
280
0
281
0
  0
CLASS
  1
MENTALRAYRENDERSETTINGS
  2
AcDbMentalRayRenderSettings
  3
SCENEOE
 90
1024
 91
0
280
0
281
0
  0
CLASS
  1
ACDBDETAILVIEWSTYLE
  2
AcDbDetailViewStyle
  3
ObjectDBX Classes
 90
1025
 91
0
280
0
281
0
  0
CLASS
  1
ACDBSECTIONVIEWSTYLE
  2
AcDbSectionViewStyle
  3
ObjectDBX Classes
 90
1025
 91
0
280
0
281
0
  0
CLASS
  1
RASTERVARIABLES
  2
AcDbRasterVariables
  3
ISM
 90
0
 91
0
280
0
281
0
  0
CLASS
  1
LAYOUT
  2
AcDbLayout
  3
ObjectDBX Classes
 90
0
 91
0
280
0
281
0
  0
CLASS
  1
ACDBPLACEHOLDER
  2
AcDbPlaceHolder
  3
ObjectDBX Classes
 90
0
 91
0
280
0
281
0
  0
ENDSEC
  0
SECTION
  2
TABLES
  0
TABLE
  2
VPORT
  5
8
330
0
100
AcDbSymbolTable
 70
1
  0
VPORT
  5
23
330
8
100
AcDbSymbolTableRecord
100
AcDbViewportTableRecord
  2
*Active
 70
0
 10
0.0
 20
0.0
 11
1.0
 21
1.0
 12
0.0
 22
0.0
 13
0.0
 23
0.0
 14
0.5
 24
0.5
 15
0.5
 25
0.5
 16
0.0
 26
0.0
 36
1.0
 17
0.0
 27
0.0
 37
0.0
 40
1000.0
 41
1.34
 42
50.0
 43
0.0
 44
0.0
 50
0.0
 51
0.0
 71
0
 72
1000
 73
1
 74
3
 75
0
 76
0
 77
0
 78
0
281
0
 65
0
146
0.0
  0
ENDTAB
  0
TABLE
  2
LTYPE
  5
2
330
0
100
AcDbSymbolTable
 70
3
  0
LTYPE
  5
24
330
2
100
AcDbSymbolTableRecord
100
AcDbLinetypeTableRecord
  2
ByBlock
 70
0
  3

 72
65
 73
0
 40
0.0
  0
LTYPE
  5
25
330
2
100
AcDbSymbolTableRecord
100
AcDbLinetypeTableRecord
  2
ByLayer
 70
0
  3

 72
65
 73
0
 40
0.0
  0
LTYPE
  5
26
330
2
100
AcDbSymbolTableRecord
100
AcDbLinetypeTableRecord
  2
Continuous
 70
0
  3

 72
65
 73
0
 40
0.0
  0
ENDTAB
  0
TABLE
  2
LAYER
  5
1
330
0
100
AcDbSymbolTable
 70
3
  0
LAYER
  5
27
330
1
100
AcDbSymbolTableRecord
100
AcDbLayerTableRecord
  2
0
 70
0
 62
7
  6
Continuous
370
-3
390
13
347
21
  0
LAYER
  5
28
330
1
100
AcDbSymbolTableRecord
100
AcDbLayerTableRecord
  2
Defpoints
 70
0
 62
7
  6
Continuous
290
0
370
-3
390
13
347
21
  0
LAYER
  5
2F
330
1
100
AcDbSymbolTableRecord
100
AcDbLayerTableRecord
  2
GRY3
 70
0
 62
7
  6
Continuous
370
-3
390
13
347
21
  0
ENDTAB
  0
TABLE
  2
STYLE
  5
5
330
0
100
AcDbSymbolTable
 70
1
  0
STYLE
  5
29
330
5
100
AcDbSymbolTableRecord
100
AcDbTextStyleTableRecord
  2
Standard
 70
0
 40
0.0
 41
1.0
 50
0.0
 71
0
 42
2.5
  3
txt
  4

  0
ENDTAB
  0
TABLE
  2
VIEW
  5
7
330
0
100
AcDbSymbolTable
 70
0
  0
ENDTAB
  0
TABLE
  2
UCS
  5
6
330
0
100
AcDbSymbolTable
 70
0
  0
ENDTAB
  0
TABLE
  2
APPID
  5
3
330
0
100
AcDbSymbolTable
 70
3
  0
APPID
  5
2A
330
3
100
AcDbSymbolTableRecord
100
AcDbRegAppTableRecord
  2
ACAD
 70
0
  0
APPID
  5
41
330
3
100
AcDbSymbolTableRecord
100
AcDbRegAppTableRecord
  2
HATCHBACKGROUNDCOLOR
 70
0
  0
APPID
  5
42
330
3
100
AcDbSymbolTableRecord
100
AcDbRegAppTableRecord
  2
EZDXF
 70
0
  0
ENDTAB
  0
TABLE
  2
DIMSTYLE
  5
4
330
0
100
AcDbSymbolTable
 70
1
100
AcDbDimStyleTable
  0
DIMSTYLE
105
2B
330
4
100
AcDbSymbolTableRecord
100
AcDbDimStyleTableRecord
  2
Standard
 70
0
 40
1.0
 41
2.5
 42
0.625
 43
3.75
 44
1.25
 45
0.0
 46
0.0
 47
0.0
 48
0.0
 49
2.5
140
2.5
141
2.5
142
0.0
143
0.03937007874
144
1.0
145
0.0
146
1.0
147
0.625
148
0.0
 69
0
 70
0
 71
0
 72
0
 73
0
 74
0
 75
0
 76
0
 77
1
 78
8
 79
3
170
0
171
3
172
1
173
0
174
0
175
0
176
0
177
0
178
0
179
2
271
2
272
2
273
2
274
3
275
0
276
0
277
2
278
44
279
0
280
0
281
0
282
0
283
0
284
8
285
0
286
0
288
0
289
3
290
0
371
-2
372
-2
  0
ENDTAB
  0
TABLE
  2
BLOCK_RECORD
  5
9
330
0
100
AcDbSymbolTable
 70
2
  0
BLOCK_RECORD
  5
17
330
9
100
AcDbSymbolTableRecord
100
AcDbBlockTableRecord
  2
*Model_Space
340
1A
 70
0
280
1
281
0
  0
BLOCK_RECORD
  5
1B
330
9
100
AcDbSymbolTableRecord
100
AcDbBlockTableRecord
  2
*Paper_Space
340
1E
 70
0
280
1
281
0
  0
ENDTAB
  0
ENDSEC
  0
SECTION
  2
BLOCKS
  0
BLOCK
  5
18
330
17
100
AcDbEntity
  8
0
100
AcDbBlockBegin
  2
*Model_Space
 70
0
 10
0.0
 20
0.0
 30
0.0
  3
*Model_Space
  1

  0
ENDBLK
  5
19
330
17
100
AcDbEntity
  8
0
100
AcDbBlockEnd
  0
BLOCK
  5
1C
330
1B
100
AcDbEntity
  8
0
100
AcDbBlockBegin
  2
*Paper_Space
 70
0
 10
0.0
 20
0.0
 30
0.0
  3
*Paper_Space
  1

  0
ENDBLK
  5
1D
330
1B
100
AcDbEntity
  8
0
100
AcDbBlockEnd
  0
ENDSEC
  0
SECTION
  2
ENTITIES
  0
LWPOLYLINE
  5
30
330
17
100
AcDbEntity
  8
GRY3
100
AcDbPolyline
 90
9
 70
1
 10
227.5855992507625
 20
63.05668144885557
 10
233.04597096323377
 20
64.50970102185605
 10
235.12716442074222
 20
62.294456354864856
 10
235.12716442074222
 20
50.78667323841968
 10
233.01397809755997
 20
48.537375021620036
 10
230.27640822385996
 20
51.451273795110055
 10
224.89480646590198
 20
52.88333247172883
 10
222.82930814942503
 20
56.547563455596084
 10
227.5855992507625
 20
63.05668144885557
  0
LWPOLYLINE
  5
31
330
17
100
AcDbEntity
  8
GRY3
100
AcDbPolyline
 90
23
 70
1
 10
195.98552678125225
 20
17.96587854044107
 10
201.3483783511021
 20
26.528293747769325
 10
197.3476863880028
 20
30.78667323841988
 10
197.3476863880028
 20
33.66110457869409
 10
194.67968026139437
 20
39.34081332671702
 10
191.9791895261831
 20
42.215244666991225
 10
191.9791895261831
 20
48.00874206915062
 10
194.05403070456774
 20
50.21722530202277
 10
206.13314864366262
 20
48.78865387345122
 10
210.15460595635216
 20
53.06913622521381
 10
216.95174799057315
 20
53.06913622521381
 10
219.0216738352826
 20
50.86588492629352
 10
219.0216738352826
 20
33.64381609556255
 10
216.35681741864187
 20
30.807314306667166
 10
219.02318106020923
 20
25.131102116078495
 10
217.67579778135814
 20
5.052732866264509
 10
211.56734520332643
 20
1.4405647966423407
 10
207.55687848238824
 20
1.4405647966423407
 10
206.20348665413422
 20
0.0
 10
200.74967548385047
 20
1.4512737951103416
 10
198.68345061317405
 20
3.650585737523415
 10
200.02687775084559
 20
12.230335375351675
 10
195.98552678125225
 20
17.96587854044107
  0
LWPOLYLINE
  5
32
330
17
100
AcDbEntity
  8
GRY3
100
AcDbPolyline
 90
19
 70
1
 10
202.10186066362246
 20
78.78342193949939
 10
204.05830746527775
 20
80.86588492629355
 10
204.05830746527775
 20
85.15159921200754
 10
208.79140321607937
 20
90.1895571598832
 10
215.58244804746795
 20
94.52663379014781
 10
217.6795496198276
 20
92.29445635486488
 10
217.6795496198276
 20
88.00874206915066
 10
219.0216738352826
 20
86.5801706405791
 10
219.0216738352826
 20
77.9295303812768
 10
216.9599315675903
 20
75.73498976962046
 10
210.24931049031537
 20
74.30641834104912
 10
208.2846801116427
 20
72.21524466699103
 10
208.2846801116427
 20
67.92953038127703
 10
206.2330614150394
 20
65.74576540740918
 10
203.50659028998132
 20
64.29472283428828
 10
197.38421643524129
 20
65.01880288781648
 10
191.95069700184476
 20
75.13992165392591
 10
196.74292636488434
 20
78.78342193949939
 10
202.10186066362246
 20
78.78342193949939
  0
LWPOLYLINE
  5
33
330
17
100
AcDbEntity
  8
GRY3
100
AcDbPolyline
 90
17
 70
1
 10
193.32131374163808
 20
97.91434720212666
 10
193.32131374163808
 20
106.5009589527055
 10
190.02274272452757
 20
110.01199336807078
 10
181.96999743179765
 20
110.01199336807078
 10
179.86286241353343
 20
112.25485051092798
 10
181.96999743179765
 20
114.4977076537852
 10
199.4176122327125
 20
114.4977076537852
 10
201.336849860813
 20
116.54056479664243
 10
199.99472564535802
 20
117.96913622521376
 10
202.13817597029404
 20
120.25064777049788
 10
209.6494182959643
 20
113.70924568133911
 10
204.2776994795472
 20
102.27381528661739
 10
205.6493145688503
 20
100.813853455207
 10
200.83669484203148
 20
97.1548505109281
 10
198.16200897420333
 20
97.1548505109281
 10
196.79270903109813
 20
95.69735294599391
 10
193.32131374163808
 20
97.91434720212666
  0
LWPOLYLINE
  5
34
330
17
100
AcDbEntity
  8
GRY3
100
AcDbPolyline
 90
15
 70
1
 10
193.32131374163808
 20
146.50095895270533
 10
193.32131374163808
 20
150.78667323841998
 10
191.9791895261831
 20
152.2152446669913
 10
191.9791895261831
 20
156.51824743583686
 10
189.2949410952729
 20
162.23253315012266
 10
189.2949410952729
 20
165.15159921200762
 10
194.06730467956268
 20
170.23135426356205
 10
200.82339902851288
 20
167.35485051092792
 10
206.21475426693303
 20
167.35485051092792
 10
208.29429891570817
 20
165.14136085366005
 10
206.9337811205938
 20
159.34876184447023
 10
198.8783893151791
 20
150.77451629651796
 10
197.53626509972412
 20
146.48880201080328
 10
195.43450006482033
 20
144.25166073590566
 10
193.32131374163808
 20
146.50095895270533
  0
LWPOLYLINE
  5
35
330
17
100
AcDbEntity
  8
GRY3
100
AcDbPolyline
 90
12
 70
1
 10
185.32063701791103
 20
236.4455366086724
 10
182.58432001799795
 20
239.3581018098485
 10
182.58432001799795
 20
245.07238752413406
 10
181.2421958025432
 20
246.50095895270562
 10
181.2421958025432
 20
252.2944563548648
 10
183.32916189099623
 20
254.51584547222828
 10
194.14523279587925
 20
250.19856721115463
 10
201.61804395347693
 20
243.6906341158349
 10
195.47776054329336
 20
237.154850510928
 10
192.79351211238338
 20
237.154850510928
 10
191.4464725632532
 20
235.7210471484048
 10
185.32063701791103
 20
236.4455366086724
  0
LWPOLYLINE
  5
36
330
17
100
AcDbEntity
  8
GRY3
100
AcDbPolyline
 90
9
 70
1
 10
184.64288953365337
 20
204.30979545239092
 10
182.58432001799795
 20
206.5009589527056
 10
182.58432001799795
 20
216.58017064057898
 10
184.65424586270763
 20
218.78342193949928
 10
192.79351211238338
 20
218.78342193949928
 10
194.8593980911486
 20
216.58447071727593
 10
196.20977211450352
 20
203.6482972029925
 10
194.1227185202139
 20
201.42681494347704
 10
184.64288953365337
 20
204.30979545239092
  0
LWPOLYLINE
  5
37
330
17
100
AcDbEntity
  8
GRY3
100
AcDbPolyline
 90
14
 70
1
 10
143.66271776980366
 20
75.15159921200754
 10
147.65188124261374
 20
79.39770765378506
 10
146.34696620071352
 20
80.78667323841992
 10
146.34696620071352
 20
83.72302778343621
 10
148.4168920454232
 20
85.9262790823565
 10
151.10114047633317
 20
85.9262790823565
 10
152.44326469178816
 20
87.35485051092806
 10
161.9246551569189
 20
87.35485051092806
 10
164.00001669868635
 20
85.14581339768279
 10
162.64923248913908
 20
75.08128886267573
 10
159.25595272790895
 20
68.5799707071728
 10
146.4014578560251
 20
69.30010030672595
 10
143.66271776980366
 20
72.21524466699125
 10
143.66271776980366
 20
75.15159921200754
  0
LWPOLYLINE
  5
38
330
17
100
AcDbEntity
  8
GRY3
100
AcDbPolyline
 90
5
 70
1
 10
112.22279870661156
 20
80.25804028595007
 10
114.37319420334879
 20
77.96913622521373
 10
112.22279870661156
 20
75.68023216447739
 10
110.07240320987432
 20
77.96913622521373
 10
112.22279870661156
 20
80.25804028595007
  0
LWPOLYLINE
  5
39
330
17
100
AcDbEntity
  8
GRY3
100
AcDbPolyline
 90
11
 70
1
 10
49.671214760248496
 20
66.54652417068863
 10
58.49943572725969
 20
74.49770765378516
 10
61.26115860973369
 20
74.49770765378516
 10
71.43781570974362
 20
65.10985029292283
 10
63.943767153252004
 20
58.58342193949939
 10
61.2653389977953
 20
58.58342193949939
 10
59.91686228674931
 20
57.14808884639888
 10
55.133308905932154
 20
57.87546964513468
 10
53.74039533431984
 20
59.35810180984835
 10
53.74039533431984
 20
62.21524466699124
 10
49.671214760248496
 20
66.54652417068863
  0
LWPOLYLINE
  5
3A
330
17
100
AcDbEntity
  8
GRY3
100
AcDbPolyline
 90
10
 70
1
 10
0.0
 20
79.37831670583195
 10
4.82086860453923
 20
84.50970102185606
 10
10.18936546635918
 20
83.08112959328452
 10
11.520222069015041
 20
84.49770765378517
 10
18.317364103235924
 20
84.49770765378517
 10
20.387289947945362
 20
82.29445635486465
 10
20.387289947945362
 20
73.64381609556281
 10
18.309926695167288
 20
71.4326483396206
 10
10.18430145321303
 20
72.87414880163267
 10
0.0
 20
79.37831670583195
  0
LWPOLYLINE
  5
3B
330
17
100
AcDbEntity
  8
GRY3
100
AcDbPolyline
 90
13
 70
1
 10
900.5488474403988
 20
305.7334849922082
 10
895.5454801489971
 20
307.1668502979179
 10
893.6314211222968
 20
309.3602098033597
 10
893.6314211222968
 20
312.29234836135333
 10
895.5559518936197
 20
314.49770765378514
 10
904.2825606504222
 20
314.49770765378514
 10
905.529219044251
 20
315.9262790823565
 10
909.3601078645781
 20
315.9262790823565
 10
911.2846386359013
 20
313.7209197899249
 10
911.2846386359013
 20
303.7209197899249
 10
912.5640199367184
 20
302.25485051092795
 10
910.582741246349
 20
299.98446261388233
 10
900.5488474403988
 20
305.7334849922082
  0
LWPOLYLINE
  5
3C
330
17
100
AcDbEntity
  8
GRY3
100
AcDbPolyline
 90
27
 70
1
 10
870.6165630523927
 20
284.30483638479933
 10
866.2112276240579
 20
289.3530006271816
 10
864.964569230229
 20
296.49585777003875
 10
862.4582477515763
 20
299.36790296938295
 10
863.7049061454052
 20
306.5107601122401
 10
861.2183028827458
 20
309.3602098033597
 10
861.2183028827458
 20
313.64592408907413
 10
859.3871049785209
 20
315.7443313343828
 10
853.1931967445298
 20
318.5834219394994
 10
849.4393405661796
 20
318.5834219394994
 10
845.0117437629702
 20
322.2074748027428
 10
845.0117437629702
 20
332.29234836135333
 10
846.9362745342935
 20
334.49770765378497
 10
855.6628832910956
 20
334.49770765378497
 10
856.9460960566848
 20
335.9681674868662
 10
862.6649612765749
 20
330.87110583772386
 10
862.6649612765749
 20
319.43520550421067
 10
864.4804056867383
 20
317.35485051092803
 10
874.4536728373695
 20
317.35485051092803
 10
877.6575849095096
 20
313.6834219394995
 10
876.3782036086925
 20
312.21735266050257
 10
876.3782036086925
 20
309.3602098033597
 10
873.9304108772182
 20
306.5552338961195
 10
881.3648371840079
 20
300.87572614843515
 10
881.3648371840079
 20
285.0744955176454
 10
879.4336079313169
 20
282.8614602979955
 10
870.6165630523927
 20
284.30483638479933
  0
LWPOLYLINE
  5
3D
330
17
100
AcDbEntity
  8
GRY3
100
AcDbPolyline
 90
44
 70
1
 10
737.7947685572053
 20
140.8099973401602
 10
739.0520714535119
 20
148.0138432518172
 10
740.2597157743558
 20
149.39770765378512
 10
739.0457802875152
 20
150.7887812319313
 10
739.0457802875152
 20
162.21735266050263
 10
735.3058051060286
 20
166.50306694621685
 10
735.3058051060286
 20
180.8637769327819
 10
737.2180153477419
 20
183.05501787757962
 10
749.7674224823876
 20
187.3692048032385
 10
757.2624045605179
 20
180.2119933680708
 10
762.1751339247256
 20
180.2119933680708
 10
765.9151091062122
 20
183.0691362252137
 10
769.655084287699
 20
183.0691362252137
 10
773.442629550012
 20
185.96262010336662
 10
774.7210013310586
 20
184.49770765378503
 10
777.1234044798758
 20
184.49770765378503
 10
778.415519693125
 20
185.9783689842729
 10
784.6488116622694
 20
178.83551184141578
 10
785.8500132366781
 20
180.2119933680708
 10
805.8874611767808
 20
180.2119933680708
 10
809.0540996204172
 20
176.58327741221004
 10
810.310076421372
 20
166.50853033496648
 10
808.3772168445997
 20
164.29362689350558
 10
792.0798837090643
 20
165.73019984568327
 10
790.8366468119937
 20
167.15485051092793
 10
787.1875852693476
 20
167.15485051092793
 10
785.4048637661722
 20
165.11199336807093
 10
786.6187992530129
 20
163.72091978992475
 10
786.6187992530129
 20
159.4185742517813
 10
789.1121160406707
 20
153.70428853749553
 10
789.1121160406707
 20
150.7887812319313
 10
787.193061152358
 20
148.58969686617863
 10
777.2197940017271
 20
147.1611254376073
 10
775.3988737085529
 20
145.07449551764552
 10
775.3988737085529
 20
135.0744955176455
 10
773.464881374464
 20
132.8582940263372
 10
760.9982974361751
 20
135.7154368834801
 10
756.6831421941442
 20
130.77061196662189
 10
753.5588619899802
 20
124.32629376212856
 10
751.0020999782085
 20
122.86137074161441
 10
745.946472889531
 20
124.3097074407753
 10
742.7935269175754
 20
127.9227329124375
 10
741.5442636918599
 20
133.64895834790968
 10
737.7947685572053
 20
140.8099973401602
  0
LWPOLYLINE
  5
3E
330
17
100
AcDbEntity
  8
GRY3
100
AcDbPolyline
 90
25
 70
1
 10
756.4989978011196
 20
200.77890337417136
 10
756.4989978011196
 20
203.72091978992478
 10
757.7456561949485
 20
205.14949121849634
 10
757.7456561949485
 20
212.21735266050268
 10
754.0056810134619
 20
216.5030669462169
 10
754.0056810134619
 20
233.71545783980574
 10
759.6641698308537
 20
241.6405647966422
 10
762.2355787901041
 20
241.6405647966422
 10
767.2598895707512
 20
238.76183439823228
 10
770.9998647522378
 20
234.47612011251806
 10
780.9354546975374
 20
228.78342193949953
 10
783.4359799170645
 20
228.78342193949953
 10
787.1759550985511
 20
225.92627908235664
 10
790.9275604508341
 20
225.92627908235664
 10
796.635271473465
 20
219.38569592835444
 10
792.1644696004348
 20
215.72627908235665
 10
788.4276873944416
 20
215.72627908235665
 10
782.194395425297
 20
210.01199336807085
 10
777.229380046878
 20
210.01199336807085
 10
775.41919379875
 20
206.55477743884586
 10
776.6402501071415
 20
205.15554396520176
 10
777.8977670444642
 20
196.5094572272632
 10
775.9598139206531
 20
194.28871698575722
 10
760.918607371511
 20
197.16138817803008
 10
756.4989978011196
 20
200.77890337417136
  0
LWPOLYLINE
  5
3F
330
17
100
AcDbEntity
  8
GRY3
100
AcDbPolyline
 90
37
 70
1
 10
712.2871214429425
 20
100.01199336807099
 10
708.5688229900835
 20
100.01199336807099
 10
704.828847808597
 20
102.86913622521365
 10
702.3367688463476
 20
102.86913622521365
 10
695.4262468222878
 20
107.9084419245484
 10
694.1746571613598
 20
112.21110873066253
 10
689.1794445343597
 20
119.36625451267435
 10
689.1794445343597
 20
122.23398391293183
 10
686.697841964951
 20
127.92142250120264
 10
682.9209774868579
 20
133.69207115117044
 10
684.8773818179063
 20
135.93395500957485
 10
693.6944266968305
 20
134.49057892277105
 10
696.8593948973331
 20
130.86377693278206
 10
696.8593948973331
 20
126.57806264706761
 10
699.3449402364173
 20
123.72982525227583
 10
700.5915986302463
 20
118.01553953799004
 10
702.4069686847491
 20
115.93526975038459
 10
709.796652611276
 20
117.34660148540077
 10
711.0505096069451
 20
118.78342193949942
 10
716.0371431822605
 20
118.78342193949942
 10
717.3292583955098
 20
120.26408326998728
 10
719.299245986253
 20
118.00663407563916
 10
719.299245986253
 20
113.72091978992471
 10
720.5459043800819
 20
112.29234836135338
 10
720.5459043800819
 20
105.14949121849627
 10
722.3657650017667
 20
103.06407559783337
 10
734.8323489400557
 20
101.63550416926203
 10
736.7524634998574
 20
99.43520550421047
 10
736.7524634998574
 20
89.36020980335991
 10
734.8279327285343
 20
87.15485051092809
 10
728.5037271205495
 20
87.15485051092809
 10
727.3025255461407
 20
88.53133203758313
 10
726.098244534386
 20
87.15132172049888
 10
716.6574979047962
 20
87.87254473642547
 10
715.3592708047664
 20
89.36020980335991
 10
715.3592708047664
 20
95.08337879806294
 10
712.2871214429425
 20
100.01199336807099
  0
LWPOLYLINE
  5
40
330
17
100
AcDbEntity
  8
GRY3
100
AcDbPolyline
 90
38
 70
1
 10
676.7128605960711
 20
195.1494912184961
 10
676.7128605960711
 20
200.8637769327819
 10
677.9595189899
 20
202.29234836135345
 10
677.9595189899
 20
210.78878123193113
 10
676.7128605960711
 20
212.21735266050268
 10
676.7128605960711
 20
216.5780626470677
 10
682.3638624626313
 20
223.05366161574545
 10
686.0983996889265
 20
224.48015588951264
 10
691.0972866546259
 20
231.6405647966422
 10
693.5972920933407
 20
231.6405647966422
 10
694.8894073065896
 20
233.12122612713006
 10
700.5930789128232
 20
226.58527182324573
 10
701.8527419976471
 20
219.3679029693829
 10
699.8760408819054
 20
217.10276060901168
 10
698.5839256686561
 20
218.58342193949932
 10
696.1815225198388
 20
218.58342193949932
 10
694.9420627278502
 20
217.16309953645506
 10
687.4621123648767
 20
215.73452810788373
 10
684.4255338660325
 20
212.25485051092807
 10
685.6721922598614
 20
210.8262790823565
 10
684.3928109590443
 20
209.3602098033598
 10
684.3928109590443
 20
205.14949121849634
 10
687.4094569436164
 20
201.69265469855867
 10
689.1794445343597
 20
203.72091978992478
 10
689.1794445343597
 20
208.02173700684156
 10
692.4069125778963
 20
210.24079011222165
 10
700.5993700788198
 20
202.29717808944713
 10
700.5993700788198
 20
200.78878123193113
 10
696.8516234487596
 20
196.494161483866
 10
695.6049650549307
 20
190.77987576958023
 10
693.6882057321811
 20
188.58342193949952
 10
691.183258773727
 20
188.58342193949952
 10
687.4432835922404
 20
185.72627908235663
 10
683.7033084107537
 20
185.72627908235663
 10
679.941006592606
 20
182.85207985789432
 10
675.466202202242
 20
185.04969563694607
 10
675.466202202242
 20
193.72091978992478
 10
676.7128605960711
 20
195.1494912184961
  0
ENDSEC
  0
SECTION
  2
OBJECTS
  0
DICTIONARY
  5
A
330
0
100
AcDbDictionary
281
1
  3
ACAD_COLOR
350
B
  3
ACAD_GROUP
350
C
  3
ACAD_LAYOUT
350
D
  3
ACAD_MATERIAL
350
E
  3
ACAD_MLEADERSTYLE
350
F
  3
ACAD_MLINESTYLE
350
10
  3
ACAD_PLOTSETTINGS
350
11
  3
ACAD_PLOTSTYLENAME
350
12
  3
ACAD_SCALELIST
350
14
  3
ACAD_TABLESTYLE
350
15
  3
ACAD_VISUALSTYLE
350
16
  3
EZDXF_META
350
2D
  0
DICTIONARY
  5
B
330
A
100
AcDbDictionary
281
1
  0
DICTIONARY
  5
C
330
A
100
AcDbDictionary
281
1
  0
DICTIONARY
  5
D
330
A
100
AcDbDictionary
281
1
  3
Model
350
1A
  3
Layout1
350
1E
  0
DICTIONARY
  5
E
330
A
100
AcDbDictionary
281
1
  3
ByBlock
350
1F
  3
ByLayer
350
20
  3
Global
350
21
  0
DICTIONARY
  5
F
330
A
100
AcDbDictionary
281
1
  3
Standard
350
2C
  0
DICTIONARY
  5
10
330
A
100
AcDbDictionary
281
1
  3
Standard
350
22
  0
DICTIONARY
  5
11
330
A
100
AcDbDictionary
281
1
  0
ACDBDICTIONARYWDFLT
  5
12
330
A
100
AcDbDictionary
281
1
  3
Normal
350
13
100
AcDbDictionaryWithDefault
340
13
  0
ACDBPLACEHOLDER
  5
13
330
12
  0
DICTIONARY
  5
14
330
A
100
AcDbDictionary
281
1
  0
DICTIONARY
  5
15
330
A
100
AcDbDictionary
281
1
  0
DICTIONARY
  5
16
330
A
100
AcDbDictionary
281
1
  0
LAYOUT
  5
1A
330
D
100
AcDbPlotSettings
  1

  4
A3
  6

 40
7.5
 41
20.0
 42
7.5
 43
20.0
 44
420.0
 45
297.0
 46
0.0
 47
0.0
 48
0.0
 49
0.0
140
0.0
141
0.0
142
1.0
143
1.0
 70
1024
 72
1
 73
0
 74
5
  7

 75
16
 76
0
 77
2
 78
300
147
1.0
148
0.0
149
0.0
100
AcDbLayout
  1
Model
 70
1
 71
0
 10
0.0
 20
0.0
 11
420.0
 21
297.0
 12
0.0
 22
0.0
 32
0.0
 14
1e+20
 24
1e+20
 34
1e+20
 15
-1e+20
 25
-1e+20
 35
-1e+20
146
0.0
 13
0.0
 23
0.0
 33
0.0
 16
1.0
 26
0.0
 36
0.0
 17
0.0
 27
1.0
 37
0.0
 76
1
330
17
  0
LAYOUT
  5
1E
330
D
100
AcDbPlotSettings
  1

  4
A3
  6

 40
7.5
 41
20.0
 42
7.5
 43
20.0
 44
420.0
 45
297.0
 46
0.0
 47
0.0
 48
0.0
 49
0.0
140
0.0
141
0.0
142
1.0
143
1.0
 70
0
 72
1
 73
0
 74
5
  7

 75
16
 76
0
 77
2
 78
300
147
1.0
148
0.0
149
0.0
100
AcDbLayout
  1
Layout1
 70
1
 71
1
 10
0.0
 20
0.0
 11
420.0
 21
297.0
 12
0.0
 22
0.0
 32
0.0
 14
1e+20
 24
1e+20
 34
1e+20
 15
-1e+20
 25
-1e+20
 35
-1e+20
146
0.0
 13
0.0
 23
0.0
 33
0.0
 16
1.0
 26
0.0
 36
0.0
 17
0.0
 27
1.0
 37
0.0
 76
1
330
1B
  0
MATERIAL
  5
1F
102
{ACAD_REACTORS
330
E
102
}
330
E
100
AcDbMaterial
  1
ByBlock
  2

 70
0
 40
1.0
 71
1
 41
1.0
 91
-1023410177
 42
1.0
 72
1
  3

 73
1
 74
1
 75
1
 44
0.5
 73
0
 45
1.0
 46
1.0
 77
1
  4

 78
1
 79
1
170
1
 48
1.0
171
1
  6

172
1
173
1
174
1
140
1.0
141
1.0
175
1
  7

176
1
177
1
178
1
143
1.0
179
1
  8

270
1
271
1
272
1
145
1.0
146
1.0
273
1
  9

274
1
275
1
276
1
 42
1.0
 72
1
  3

 73
1
 74
1
 75
1
 94
63
  0
MATERIAL
  5
20
102
{ACAD_REACTORS
330
E
102
}
330
E
100
AcDbMaterial
  1
ByLayer
  2

 70
0
 40
1.0
 71
1
 41
1.0
 91
-1023410177
 42
1.0
 72
1
  3

 73
1
 74
1
 75
1
 44
0.5
 73
0
 45
1.0
 46
1.0
 77
1
  4

 78
1
 79
1
170
1
 48
1.0
171
1
  6

172
1
173
1
174
1
140
1.0
141
1.0
175
1
  7

176
1
177
1
178
1
143
1.0
179
1
  8

270
1
271
1
272
1
145
1.0
146
1.0
273
1
  9

274
1
275
1
276
1
 42
1.0
 72
1
  3

 73
1
 74
1
 75
1
 94
63
  0
MATERIAL
  5
21
102
{ACAD_REACTORS
330
E
102
}
330
E
100
AcDbMaterial
  1
Global
  2

 70
0
 40
1.0
 71
1
 41
1.0
 91
-1023410177
 42
1.0
 72
1
  3

 73
1
 74
1
 75
1
 44
0.5
 73
0
 45
1.0
 46
1.0
 77
1
  4

 78
1
 79
1
170
1
 48
1.0
171
1
  6

172
1
173
1
174
1
140
1.0
141
1.0
175
1
  7

176
1
177
1
178
1
143
1.0
179
1
  8

270
1
271
1
272
1
145
1.0
146
1.0
273
1
  9

274
1
275
1
276
1
 42
1.0
 72
1
  3

 73
1
 74
1
 75
1
 94
63
  0
MLINESTYLE
  5
22
102
{ACAD_REACTORS
330
10
102
}
330
10
100
AcDbMlineStyle
  2
Standard
 70
0
  3

 62
256
 51
90.0
 52
90.0
 71
2
 49
0.5
 62
256
  6
BYLAYER
 49
-0.5
 62
256
  6
BYLAYER
  0
MLEADERSTYLE
  5
2C
102
{ACAD_REACTORS
330
F
102
}
330
F
100
AcDbMLeaderStyle
179
2
170
2
171
1
172
0
 90
2
 40
0.0
 41
0.0
173
1
 91
-1056964608
 92
-2
290
1
 42
2.0
291
1
 43
8.0
  3
Standard
 44
4.0
300

342
29
174
1
175
1
176
0
178
1
 93
-1056964608
 45
4.0
292
0
297
0
 46
4.0
 94
-1056964608
 47
1.0
 49
1.0
140
1.0
294
1
141
0.0
177
0
142
1.0
295
0
296
0
143
3.75
271
0
272
9
273
9
  0
DICTIONARY
  5
2D
330
A
100
AcDbDictionary
280
1
281
1
  3
CREATED_BY_EZDXF
350
2E
  3
WRITTEN_BY_EZDXF
350
43
  0
DICTIONARYVAR
  5
2E
330
2D
100
DictionaryVariables
280
0
  1
1.4.4 @ 2026-07-23T17:47:29.297407+00:00
  0
DICTIONARYVAR
  5
43
330
2D
100
DictionaryVariables
280
0
  1
1.4.4 @ 2026-07-23T17:47:29.304690+00:00
  0
ENDSEC
  0
EOF
