  0
SECTION
  2
HEADER
  9
$ACADVER
  1
AC1027
  9
$ACADMAINTVER
 70
105
  9
$DWGCODEPAGE
  3
ANSI_1252
  9
$LASTSAVEDBY
  1
ezdxf
  9
$REQUIREDVERSIONS
160
0
  9
$INSBASE
 10
0.0
 20
0.0
 30
0.0
  9
$EXTMIN
 10
1e+20
 20
1e+20
 30
1e+20
  9
$EXTMAX
 10
-1e+20
 20
-1e+20
 30
-1e+20
  9
$LIMMIN
 10
0.0
 20
0.0
  9
$LIMMAX
 10
420.0
 20
297.0
  9
$ORTHOMODE
 70
0
  9
$REGENMODE
 70
1
  9
$FILLMODE
 70
1
  9
$QTEXTMODE
 70
0
  9
$MIRRTEXT
 70
1
  9
$LTSCALE
 40
1.0
  9
$ATTMODE
 70
1
  9
$TEXTSIZE
 40
2.5
  9
$TRACEWID
 40
1.0
  9
$TEXTSTYLE
  7
Standard
  9
$CLAYER
  8
0
  9
$CELTYPE
  6
ByLayer
  9
$CECOLOR
 62
256
  9
$CELTSCALE
 40
1.0
  9
$DISPSILH
 70
0
  9
$DIMSCALE
 40
1.0
  9
$DIMASZ
 40
2.5
  9
$DIMEXO
 40
0.625
  9
$DIMDLI
 40
3.75
  9
$DIMRND
 40
0.0
  9
$DIMDLE
 40
0.0
  9
$DIMEXE
 40
1.25
  9
$DIMTP
 40
0.0
  9
$DIMTM
 40
0.0
  9
$DIMTXT
 40
2.5
  9
$DIMCEN
 40
2.5
  9
$DIMTSZ
 40
0.0
  9
$DIMTOL
 70
0
  9
$DIMLIM
 70
0
  9
$DIMTIH
 70
0
  9
$DIMTOH
 70
0
  9
$DIMSE1
 70
0
  9
$DIMSE2
 70
0
  9
$DIMTAD
 70
1
  9
$DIMZIN
 70
8
  9
$DIMBLK
  1

  9
$DIMASO
 70
1
  9
$DIMSHO
 70
1
  9
$DIMPOST
  1

  9
$DIMAPOST
  1

  9
$DIMALT
 70
0
  9
$DIMALTD
 70
3
  9
$DIMALTF
 40
0.03937007874
  9
$DIMLFAC
 40
1.0
  9
$DIMTOFL
 70
1
  9
$DIMTVP
 40
0.0
  9
$DIMTIX
 70
0
  9
$DIMSOXD
 70
0
  9
$DIMSAH
 70
0
  9
$DIMBLK1
  1

  9
$DIMBLK2
  1

  9
$DIMSTYLE
  2
ISO-25
  9
$DIMCLRD
 70
0
  9
$DIMCLRE
 70
0
  9
$DIMCLRT
 70
0
  9
$DIMTFAC
 40
1.0
  9
$DIMGAP
 40
0.625
  9
$DIMJUST
 70
0
  9
$DIMSD1
 70
0
  9
$DIMSD2
 70
0
  9
$DIMTOLJ
 70
0
  9
$DIMTZIN
 70
8
  9
$DIMALTZ
 70
0
  9
$DIMALTTZ
 70
0
  9
$DIMUPT
 70
0
  9
$DIMDEC
 70
2
  9
$DIMTDEC
 70
2
  9
$DIMALTU
 70
2
  9
$DIMALTTD
 70
3
  9
$DIMTXSTY
  7
Standard
  9
$DIMAUNIT
 70
0
  9
$DIMADEC
 70
0
  9
$DIMALTRND
 40
0.0
  9
$DIMAZIN
 70
0
  9
$DIMDSEP
 70
44
  9
$DIMATFIT
 70
3
  9
$DIMFRAC
 70
0
  9
$DIMLDRBLK
  1

  9
$DIMLUNIT
 70
2
  9
$DIMLWD
 70
-2
  9
$DIMLWE
 70
-2
  9
$DIMTMOVE
 70
0
  9
$DIMFXL
 40
1.0
  9
$DIMFXLON
 70
0
  9
$DIMJOGANG
 40
0.785398163397
  9
$DIMTFILL
 70
0
  9
$DIMTFILLCLR
 70
0
  9
$DIMARCSYM
 70
0
  9
$DIMLTYPE
  6

  9
$DIMLTEX1
  6

  9
$DIMLTEX2
  6

  9
$DIMTXTDIRECTION
 70
0
  9
$LUNITS
 70
2
  9
$LUPREC
 70
4
  9
$SKETCHINC
 40
1.0
  9
$FILLETRAD
 40
10.0
  9
$AUNITS
 70
0
  9
$AUPREC
 70
2
  9
$MENU
  1
.
  9
$ELEVATION
 40
0.0
  9
$PELEVATION
 40
0.0
  9
$THICKNESS
 40
0.0
  9
$LIMCHECK
 70
0
  9
$CHAMFERA
 40
0.0
  9
$CHAMFERB
 40
0.0
  9
$CHAMFERC
 40
0.0
  9
$CHAMFERD
 40
0.0
  9
$SKPOLY
 70
0
  9
$TDCREATE
 40
2461245.8663078705
  9
$TDUCREATE
 40
2458532.153996898
  9
$TDUPDATE
 40
2461245.8663078705
  9
$TDUUPDATE
 40
2458532.1544311
  9
$TDINDWG
 40
0.0
  9
$TDUSRTIMER
 40
0.0
  9
$USRTIMER
 70
1
  9
$ANGBASE
 50
0.0
  9
$ANGDIR
 70
0
  9
$PDMODE
 70
0
  9
$PDSIZE
 40
0.0
  9
$PLINEWID
 40
0.0
  9
$SPLFRAME
 70
0
  9
$SPLINETYPE
 70
6
  9
$SPLINESEGS
 70
8
  9
$HANDSEED
  5
5A
  9
$SURFTAB1
 70
6
  9
$SURFTAB2
 70
6
  9
$SURFTYPE
 70
6
  9
$SURFU
 70
6
  9
$SURFV
 70
6
  9
$UCSBASE
  2

  9
$UCSNAME
  2

  9
$UCSORG
 10
0.0
 20
0.0
 30
0.0
  9
$UCSXDIR
 10
1.0
 20
0.0
 30
0.0
  9
$UCSYDIR
 10
0.0
 20
1.0
 30
0.0
  9
$UCSORTHOREF
  2

  9
$UCSORTHOVIEW
 70
0
  9
$UCSORGTOP
 10
0.0
 20
0.0
 30
0.0
  9
$UCSORGBOTTOM
 10
0.0
 20
0.0
 30
0.0
  9
$UCSORGLEFT
 10
0.0
 20
0.0
 30
0.0
  9
$UCSORGRIGHT
 10
0.0
 20
0.0
 30
0.0
  9
$UCSORGFRONT
 10
0.0
 20
0.0
 30
0.0
  9
$UCSORGBACK
 10
0.0
 20
0.0
 30
0.0
  9
$PUCSBASE
  2

  9
$PUCSNAME
  2

  9
$PUCSORG
 10
0.0
 20
0.0
 30
0.0
  9
$PUCSXDIR
 10
1.0
 20
0.0
 30
0.0
  9
$PUCSYDIR
 10
0.0
 20
1.0
 30
0.0
  9
$PUCSORTHOREF
  2

  9
$PUCSORTHOVIEW
 70
0
  9
$PUCSORGTOP
 10
0.0
 20
0.0
 30
0.0
  9
$PUCSORGBOTTOM
 10
0.0
 20
0.0
 30
0.0
  9
$PUCSORGLEFT
 10
0.0
 20
0.0
 30
0.0
  9
$PUCSORGRIGHT
 10
0.0
 20
0.0
 30
0.0
  9
$PUCSORGFRONT
 10
0.0
 20
0.0
 30
0.0
  9
$PUCSORGBACK
 10
0.0
 20
0.0
 30
0.0
  9
$USERI1
 70
0
  9
$USERI2
 70
0
  9
$USERI3
 70
0
  9
$USERI4
 70
0
  9
$USERI5
 70
0
  9
$USERR1
 40
0.0
  9
$USERR2
 40
0.0
  9
$USERR3
 40
0.0
  9
$USERR4
 40
0.0
  9
$USERR5
 40
0.0
  9
$WORLDVIEW
 70
1
  9
$SHADEDGE
 70
3
  9
$SHADEDIF
 70
70
  9
$TILEMODE
 70
1
  9
$MAXACTVP
 70
64
  9
$PINSBASE
 10
0.0
 20
0.0
 30
0.0
  9
$PLIMCHECK
 70
0
  9
$PEXTMIN
 10
1e+20
 20
1e+20
 30
1e+20
  9
$PEXTMAX
 10
-1e+20
 20
-1e+20
 30
-1e+20
  9
$PLIMMIN
 10
0.0
 20
0.0
  9
$PLIMMAX
 10
420.0
 20
297.0
  9
$UNITMODE
 70
0
  9
$VISRETAIN
 70
1
  9
$PLINEGEN
 70
0
  9
$PSLTSCALE
 70
1
  9
$TREEDEPTH
 70
3020
  9
$CMLSTYLE
  2
Standard
  9
$CMLJUST
 70
0
  9
$CMLSCALE
 40
20.0
  9
$PROXYGRAPHICS
 70
1
  9
$MEASUREMENT
 70
1
  9
$CELWEIGHT
370
-1
  9
$ENDCAPS
280
0
  9
$JOINSTYLE
280
0
  9
$LWDISPLAY
290
0
  9
$INSUNITS
 70
4
  9
$HYPERLINKBASE
  1

  9
$STYLESHEET
  1

  9
$XEDIT
290
1
  9
$CEPSNTYPE
380
0
  9
$PSTYLEMODE
290
1
  9
$FINGERPRINTGUID
  2
{C7F5FE4B-24FD-423E-B2CE-6D9FBF4655E6}
  9
$VERSIONGUID
  2
{3E065EEA-96B8-4BD8-9117-4A0B8583ACD0}
  9
$EXTNAMES
290
1
  9
$PSVPSCALE
 40
0.0
  9
$OLESTARTUP
290
0
  9
$SORTENTS
280
127
  9
$INDEXCTL
280
0
  9
$HIDETEXT
280
1
  9
$XCLIPFRAME
280
1
  9
$HALOGAP
280
0
  9
$OBSCOLOR
 70
257
  9
$OBSLTYPE
280
0
  9
$INTERSECTIONDISPLAY
280
0
  9
$INTERSECTIONCOLOR
 70
257
  9
$DIMASSOC
280
2
  9
$PROJECTNAME
  1

  9
$CAMERADISPLAY
290
0
  9
$LENSLENGTH
 40
50.0
  9
$CAMERAHEIGHT
 40
0.0
  9
$STEPSPERSEC
 40
24.0
  9
$STEPSIZE
 40
100.0
  9
$3DDWFPREC
 40
2.0
  9
$PSOLWIDTH
 40
0.005
  9
$PSOLHEIGHT
 40
0.08
  9
$LOFTANG1
 40
1.570796326795
  9
$LOFTANG2
 40
1.570796326795
  9
$LOFTMAG1
 40
0.0
  9
$LOFTMAG2
 40
0.0
  9
$LOFTPARAM
 70
7
  9
$LOFTNORMALS
280
1
  9
$LATITUDE
 40
37.795
  9
$LONGITUDE
 40
-122.394
  9
$NORTHDIRECTION
 40
0.0
  9
$TIMEZONE
 70
-8000
  9
$LIGHTGLYPHDISPLAY
280
1
  9
$TILEMODELIGHTSYNCH
280
1
  9
$CMATERIAL
347
20
  9
$SOLIDHIST
280
0
  9
$SHOWHIST
280
1
  9
$DWFFRAME
280
2
  9
$DGNFRAME
280
2
  9
$REALWORLDSCALE
290
1
  9
$INTERFERECOLOR
 62
256
  9
$CSHADOW
280
0
  9
$SHADOWPLANELOCATION
 40
0.0
  0
ENDSEC
  0
SECTION
  2
CLASSES
  0
CLASS
  1
ACDBDICTIONARYWDFLT
  2
AcDbDictionaryWithDefault
  3
ObjectDBX Classes
 90
0
 91
0
280
0
281
0
  0
CLASS
  1
SUN
  2
AcDbSun
  3
SCENEOE
 90
1153
 91
0
280
0
281
0
  0
CLASS
  1
VISUALSTYLE
  2
AcDbVisualStyle
  3
ObjectDBX Classes
 90
4095
 91
0
280
0
281
0
  0
CLASS
  1
MATERIAL
  2
AcDbMaterial
  3
ObjectDBX Classes
 90
1153
 91
0
280
0
281
0
  0
CLASS
  1
SCALE
  2
AcDbScale
  3
ObjectDBX Classes
 90
1153
 91
0
280
0
281
0
  0
CLASS
  1
TABLESTYLE
  2
AcDbTableStyle
  3
ObjectDBX Classes
 90
4095
 91
0
280
0
281
0
  0
CLASS
  1
MLEADERSTYLE
  2
AcDbMLeaderStyle
  3
ACDB_MLEADERSTYLE_CLASS
 90
4095
 91
0
280
0
281
0
  0
CLASS
  1
DICTIONARYVAR
  2
AcDbDictionaryVar
  3
ObjectDBX Classes
 90
0
 91
0
280
0
281
0
  0
CLASS
  1
CELLSTYLEMAP
  2
AcDbCellStyleMap
  3
ObjectDBX Classes
 90
1152
 91
0
280
0
281
0
  0
CLASS
  1
MENTALRAYRENDERSETTINGS
  2
AcDbMentalRayRenderSettings
  3
SCENEOE
 90
1024
 91
0
280
0
281
0
  0
CLASS
  1
ACDBDETAILVIEWSTYLE
  2
AcDbDetailViewStyle
  3
ObjectDBX Classes
 90
1025
 91
0
280
0
281
0
  0
CLASS
  1
ACDBSECTIONVIEWSTYLE
  2
AcDbSectionViewStyle
  3
ObjectDBX Classes
 90
1025
 91
0
280
0
281
0
  0
CLASS
  1
RASTERVARIABLES
  2
AcDbRasterVariables
  3
ISM
 90
0
 91
0
280
0
281
0
  0
CLASS
  1
LAYOUT
  2
AcDbLayout
  3
ObjectDBX Classes
 90
0
 91
0
280
0
281
0
  0
CLASS
  1
ACDBPLACEHOLDER
  2
AcDbPlaceHolder
  3
ObjectDBX Classes
 90
0
 91
0
280
0
281
0
  0
ENDSEC
  0
SECTION
  2
TABLES
  0
TABLE
  2
VPORT
  5
8
330
0
100
AcDbSymbolTable
 70
1
  0
VPORT
  5
23
330
8
100
AcDbSymbolTableRecord
100
AcDbViewportTableRecord
  2
*Active
 70
0
 10
0.0
 20
0.0
 11
1.0
 21
1.0
 12
0.0
 22
0.0
 13
0.0
 23
0.0
 14
0.5
 24
0.5
 15
0.5
 25
0.5
 16
0.0
 26
0.0
 36
1.0
 17
0.0
 27
0.0
 37
0.0
 40
1000.0
 41
1.34
 42
50.0
 43
0.0
 44
0.0
 50
0.0
 51
0.0
 71
0
 72
1000
 73
1
 74
3
 75
0
 76
0
 77
0
 78
0
281
0
 65
0
146
0.0
  0
ENDTAB
  0
TABLE
  2
LTYPE
  5
2
330
0
100
AcDbSymbolTable
 70
3
  0
LTYPE
  5
24
330
2
100
AcDbSymbolTableRecord
100
AcDbLinetypeTableRecord
  2
ByBlock
 70
0
  3

 72
65
 73
0
 40
0.0
  0
LTYPE
  5
25
330
2
100
AcDbSymbolTableRecord
100
AcDbLinetypeTableRecord
  2
ByLayer
 70
0
  3

 72
65
 73
0
 40
0.0
  0
LTYPE
  5
26
330
2
100
AcDbSymbolTableRecord
100
AcDbLinetypeTableRecord
  2
Continuous
 70
0
  3

 72
65
 73
0
 40
0.0
  0
ENDTAB
  0
TABLE
  2
LAYER
  5
1
330
0
100
AcDbSymbolTable
 70
3
  0
LAYER
  5
27
330
1
100
AcDbSymbolTableRecord
100
AcDbLayerTableRecord
  2
0
 70
0
 62
7
  6
Continuous
370
-3
390
13
347
21
  0
LAYER
  5
28
330
1
100
AcDbSymbolTableRecord
100
AcDbLayerTableRecord
  2
Defpoints
 70
0
 62
7
  6
Continuous
290
0
370
-3
390
13
347
21
  0
LAYER
  5
2F
330
1
100
AcDbSymbolTableRecord
100
AcDbLayerTableRecord
  2
GRY6
 70
0
 62
7
  6
Continuous
370
-3
390
13
347
21
  0
ENDTAB
  0
TABLE
  2
STYLE
  5
5
330
0
100
AcDbSymbolTable
 70
1
  0
STYLE
  5
29
330
5
100
AcDbSymbolTableRecord
100
AcDbTextStyleTableRecord
  2
Standard
 70
0
 40
0.0
 41
1.0
 50
0.0
 71
0
 42
2.5
  3
txt
  4

  0
ENDTAB
  0
TABLE
  2
VIEW
  5
7
330
0
100
AcDbSymbolTable
 70
0
  0
ENDTAB
  0
TABLE
  2
UCS
  5
6
330
0
100
AcDbSymbolTable
 70
0
  0
ENDTAB
  0
TABLE
  2
APPID
  5
3
330
0
100
AcDbSymbolTable
 70
3
  0
APPID
  5
2A
330
3
100
AcDbSymbolTableRecord
100
AcDbRegAppTableRecord
  2
ACAD
 70
0
  0
APPID
  5
57
330
3
100
AcDbSymbolTableRecord
100
AcDbRegAppTableRecord
  2
HATCHBACKGROUNDCOLOR
 70
0
  0
APPID
  5
58
330
3
100
AcDbSymbolTableRecord
100
AcDbRegAppTableRecord
  2
EZDXF
 70
0
  0
ENDTAB
  0
TABLE
  2
DIMSTYLE
  5
4
330
0
100
AcDbSymbolTable
 70
1
100
AcDbDimStyleTable
  0
DIMSTYLE
105
2B
330
4
100
AcDbSymbolTableRecord
100
AcDbDimStyleTableRecord
  2
Standard
 70
0
 40
1.0
 41
2.5
 42
0.625
 43
3.75
 44
1.25
 45
0.0
 46
0.0
 47
0.0
 48
0.0
 49
2.5
140
2.5
141
2.5
142
0.0
143
0.03937007874
144
1.0
145
0.0
146
1.0
147
0.625
148
0.0
 69
0
 70
0
 71
0
 72
0
 73
0
 74
0
 75
0
 76
0
 77
1
 78
8
 79
3
170
0
171
3
172
1
173
0
174
0
175
0
176
0
177
0
178
0
179
2
271
2
272
2
273
2
274
3
275
0
276
0
277
2
278
44
279
0
280
0
281
0
282
0
283
0
284
8
285
0
286
0
288
0
289
3
290
0
371
-2
372
-2
  0
ENDTAB
  0
TABLE
  2
BLOCK_RECORD
  5
9
330
0
100
AcDbSymbolTable
 70
2
  0
BLOCK_RECORD
  5
17
330
9
100
AcDbSymbolTableRecord
100
AcDbBlockTableRecord
  2
*Model_Space
340
1A
 70
0
280
1
281
0
  0
BLOCK_RECORD
  5
1B
330
9
100
AcDbSymbolTableRecord
100
AcDbBlockTableRecord
  2
*Paper_Space
340
1E
 70
0
280
1
281
0
  0
ENDTAB
  0
ENDSEC
  0
SECTION
  2
BLOCKS
  0
BLOCK
  5
18
330
17
100
AcDbEntity
  8
0
100
AcDbBlockBegin
  2
*Model_Space
 70
0
 10
0.0
 20
0.0
 30
0.0
  3
*Model_Space
  1

  0
ENDBLK
  5
19
330
17
100
AcDbEntity
  8
0
100
AcDbBlockEnd
  0
BLOCK
  5
1C
330
1B
100
AcDbEntity
  8
0
100
AcDbBlockBegin
  2
*Paper_Space
 70
0
 10
0.0
 20
0.0
 30
0.0
  3
*Paper_Space
  1

  0
ENDBLK
  5
1D
330
1B
100
AcDbEntity
  8
0
100
AcDbBlockEnd
  0
ENDSEC
  0
SECTION
  2
ENTITIES
  0
LWPOLYLINE
  5
30
330
17
100
AcDbEntity
  8
GRY6
100
AcDbPolyline
 90
24
 70
1
 10
164.79624715262995
 20
183.67260660366068
 10
162.00068082744028
 20
186.5083122243518
 10
162.00068082744028
 20
189.4474639469248
 10
163.40903088666434
 20
190.87603537549614
 10
163.40903088666434
 20
202.22259793863762
 10
162.00068082744028
 20
203.65116936720895
 10
162.00068082744028
 20
209.3568873067848
 10
156.3672805905439
 20
213.64260159249903
 10
156.3672805905439
 20
222.31557218133037
 10
165.64581755556173
 20
228.8314060539136
 10
172.71519422529713
 20
218.79217379992411
 10
182.57879034411602
 20
218.79217379992411
 10
184.75955600653555
 20
215.10537791971694
 10
180.50923159735348
 20
210.79402651006606
 10
180.50923159735348
 20
206.50831222435184
 10
176.2841814196812
 20
202.22259793863762
 10
176.2841814196812
 20
192.2869096479931
 10
177.71366527216378
 20
189.3868923179465
 10
176.2841814196812
 20
187.93688365292337
 10
176.2841814196812
 20
177.93688365292314
 10
174.11066979025728
 20
175.7321643126384
 10
163.46444407590758
 20
176.45210340155225
 10
161.97954703418176
 20
177.95832088937513
 10
164.79624715262995
 20
183.67260660366068
  0
LWPOLYLINE
  5
31
330
17
100
AcDbEntity
  8
GRY6
100
AcDbPolyline
 90
9
 70
1
 10
119.76762570428154
 20
223.75087538871364
 10
123.32921468625361
 20
227.36360237135256
 10
126.22959382975004
 20
227.36360237135256
 10
128.3772884626184
 20
225.18507071317774
 10
135.47188455883338
 20
215.11002431438175
 10
131.86098255555515
 20
211.44727626430048
 10
116.969824388204
 20
212.16656047231953
 10
115.51364019149236
 20
215.12074522849557
 10
119.76762570428154
 20
223.75087538871364
  0
LWPOLYLINE
  5
32
330
17
100
AcDbEntity
  8
GRY6
100
AcDbPolyline
 90
13
 70
1
 10
81.72472745166704
 20
240.7940265100661
 10
80.27595337577314
 20
242.2636023713527
 10
84.54790334344597
 20
246.59688984355
 10
85.95829008201989
 20
255.18071394935248
 10
93.76623126753927
 20
260.2207452284955
 10
96.67164996425068
 20
260.2207452284955
 10
100.2332782215802
 20
253.71776494903986
 10
100.2332782215802
 20
245.0797407957803
 10
97.41657810313204
 20
242.22259793863765
 10
97.41657810313204
 20
227.9368836529232
 10
95.21194606518787
 20
225.7005970711232
 10
81.72472745166704
 20
236.50128452280828
 10
81.72472745166704
 20
240.7940265100661
  0
LWPOLYLINE
  5
33
330
17
100
AcDbEntity
  8
GRY6
100
AcDbPolyline
 90
25
 70
1
 10
62.011433518531
 20
45.085337436737035
 10
59.191126504081566
 20
49.376539749245055
 10
59.191126504081566
 20
53.7331782326389
 10
61.361812080393676
 20
55.93503094278118
 10
68.40356237651413
 20
55.93503094278118
 10
70.45792697787428
 20
58.01889251835313
 10
70.45792697787428
 20
66.5903210897817
 10
74.0369626134105
 20
70.22074522849542
 10
76.8674638211902
 20
70.22074522849542
 10
83.95288782713348
 20
74.53303998557371
 10
93.19152792545977
 20
65.16174966121025
 10
93.19152792545977
 20
63.65116936720927
 10
91.02084234914761
 20
61.44931665706687
 10
86.8058406126276
 20
61.44931665706687
 10
83.37033246632208
 20
56.57054646239202
 10
88.93839326932229
 20
52.334540369508574
 10
93.2227758907951
 20
46.54000885416831
 10
91.02084234914761
 20
44.30645951420975
 10
82.57074199380307
 20
44.30645951420975
 10
79.09570682596753
 20
40.78152910252941
 10
77.68937409344592
 20
36.50195369245268
 10
72.71179531899094
 20
30.010320758814935
 10
65.57891270654531
 20
31.45738034982415
 10
63.42108705157467
 20
33.64618849332501
 10
62.011433518531
 20
45.085337436737035
  0
LWPOLYLINE
  5
34
330
17
100
AcDbEntity
  8
GRY6
100
AcDbPolyline
 90
10
 70
1
 10
67.64122685942611
 20
135.09743795185503
 10
64.80339294771942
 20
140.85459813904455
 10
66.99521231728997
 20
143.07788808563825
 10
81.16239193457908
 20
143.07788808563825
 10
83.33307751089112
 20
140.87603537549631
 10
83.33307751089112
 20
132.21256723786624
 10
78.34032869803976
 20
128.595113173517
 10
70.50733107690768
 20
127.87279814135144
 10
67.64122685942611
 20
132.2336826063879
 10
67.64122685942611
 20
135.09743795185503
  0
LWPOLYLINE
  5
35
330
17
100
AcDbEntity
  8
GRY6
100
AcDbPolyline
 90
21
 70
1
 10
2.8571241351178776
 20
59.44746394692457
 10
2.8571241351178776
 20
62.289193520468466
 10
9.898874431238353
 20
75.14633637761136
 10
9.898874431238353
 20
78.01889251835314
 10
12.715574549686526
 20
80.87603537549603
 10
12.715574549686526
 20
85.1440525051359
 10
18.366421440146887
 20
96.60801824585641
 10
20.53423238346222
 20
98.80695504845139
 10
24.836145621449756
 20
97.35239472808921
 10
32.63247537882377
 20
90.88199117804763
 10
32.63247537882377
 20
88.00780785060303
 10
35.4541810175317
 20
83.71447747912086
 10
34.033213944089454
 20
75.0662598768349
 10
21.38250412813969
 20
65.08554226484553
 10
22.78807671896435
 20
60.80828002265537
 10
17.786639269494835
 20
55.73503094278121
 10
12.15323903259849
 20
55.73503094278121
 10
10.741622189800875
 20
54.3031458255101
 10
1.503772558784866
 20
55.02395263376903
 10
0.0
 20
56.54931665706686
 10
2.8571241351178776
 20
59.44746394692457
  0
LWPOLYLINE
  5
36
330
17
100
AcDbEntity
  8
GRY6
100
AcDbPolyline
 90
9
 70
1
 10
2101.00368409664
 20
125.09503556248202
 10
2101.00368409664
 20
127.95217841962491
 10
2100.2029767641366
 20
129.4064595142097
 10
2102.2244152527837
 20
133.07788808563825
 10
2110.999315041377
 20
133.07788808563825
 10
2115.3736967928958
 20
123.68840030454531
 10
2113.349618185352
 20
120.01217662903451
 10
2103.0066217809444
 20
121.45720899380463
 10
2101.00368409664
 20
125.09503556248202
  0
LWPOLYLINE
  5
37
330
17
100
AcDbEntity
  8
GRY6
100
AcDbPolyline
 90
8
 70
1
 10
2100.255017176057
 20
170.74051277848002
 10
2098.644028273317
 20
173.66646413391052
 10
2098.644028273317
 20
178.00359775165165
 10
2102.2371980226326
 20
184.52967616250749
 10
2110.218502397883
 20
181.63047452118764
 10
2112.229566663545
 20
177.9778880856382
 10
2107.845279077584
 20
170.01494545895946
 10
2100.255017176057
 20
170.74051277848002
  0
LWPOLYLINE
  5
38
330
17
100
AcDbEntity
  8
GRY6
100
AcDbPolyline
 90
8
 70
1
 10
2097.845574686348
 20
155.12483858369498
 10
2099.8647594294603
 20
158.79217379992406
 10
2109.4215762337903
 20
158.79217379992406
 10
2111.4288593310416
 20
155.14645489450896
 10
2111.4288593310416
 20
153.6664641339105
 10
2107.05720265649
 20
145.72646234332032
 10
2101.8221776187806
 20
146.45785393566845
 10
2097.845574686348
 20
155.12483858369498
  0
LWPOLYLINE
  5
39
330
17
100
AcDbEntity
  8
GRY6
100
AcDbPolyline
 90
21
 70
1
 10
2065.594691355394
 20
103.6921737999239
 10
2066.3953986878973
 20
105.1464548945089
 10
2066.3953986878973
 20
108.0010462373242
 10
2072.6792289936525
 20
120.84064711246612
 10
2071.1051339186884
 20
125.12906177224359
 10
2073.1219934317955
 20
128.79217379992403
 10
2077.8617716232534
 20
128.79217379992403
 10
2081.0079793876844
 20
131.64931665706692
 10
2084.1337206073044
 20
131.64931665706692
 10
2084.965387092991
 20
133.1598271745018
 10
2087.832301097808
 20
129.44052740419764
 10
2087.832301097808
 20
123.66646413391047
 10
2085.8250180005566
 20
120.02074522849537
 10
2083.465362177233
 20
120.02074522849537
 10
2081.9026325180025
 20
117.1824445072318
 10
2077.9698728124636
 20
115.75387307866025
 10
2076.0459236270517
 20
112.25950901615312
 10
2079.978683332591
 20
103.68808044472443
 10
2077.957268004592
 20
100.01669393871926
 10
2067.220710137555
 20
100.73892449353394
 10
2065.594691355394
 20
103.6921737999239
  0
LWPOLYLINE
  5
3A
330
17
100
AcDbEntity
  8
GRY6
100
AcDbPolyline
 90
17
 70
1
 10
2064.026166448718
 20
142.2719189151007
 10
2067.600537648049
 20
148.7638545440193
 10
2072.325712711144
 20
151.62454720242113
 10
2075.4901041073654
 20
155.93503094278117
 10
2078.746050530586
 20
155.93503094278117
 10
2080.7533336278375
 20
152.28931203736607
 10
2080.7533336278375
 20
149.43216918022318
 10
2082.340592901449
 20
146.54931665706684
 10
2079.5326024716937
 20
141.44931665706696
 10
2075.5998427661552
 20
141.44931665706696
 10
2074.8132908250473
 20
140.0207452284954
 10
2071.667083060616
 20
140.0207452284954
 10
2070.8805311195083
 20
138.59217379992407
 10
2067.7343233550773
 20
138.59217379992407
 10
2066.9260191342064
 20
137.1240948909793
 10
2065.6270556972
 20
137.91050705945062
 10
2064.026166448718
 20
142.2719189151007
  0
LWPOLYLINE
  5
3B
330
17
100
AcDbEntity
  8
GRY6
100
AcDbPolyline
 90
11
 70
1
 10
3543.187628688062
 20
100.73812593976572
 10
3536.0395377455334
 20
109.35710953125178
 10
3534.59250515514
 20
113.71909591797524
 10
3536.797828543252
 20
115.93503094278113
 10
3541.0630194641267
 20
115.93503094278113
 10
3545.3282103850015
 20
120.22074522849535
 10
3553.941716272494
 20
120.22074522849535
 10
3556.1327497100597
 20
118.01916891501874
 10
3556.1327497100597
 20
102.22232154197219
 10
3553.9389095445804
 20
100.01792499509033
 10
3543.187628688062
 20
100.73812593976572
  0
LWPOLYLINE
  5
3C
330
17
100
AcDbEntity
  8
GRY6
100
AcDbPolyline
 90
32
 70
1
 10
3356.228348224578
 20
132.88766624612313
 10
3353.9998681272536
 20
135.12686940624218
 10
3363.351527988342
 20
143.07788808563825
 10
3366.1901917082614
 20
143.07788808563825
 10
3371.120313048753
 20
148.0317323217406
 10
3372.542043355711
 20
152.31744660745483
 10
3386.7468431820275
 20
166.59059748644722
 10
3386.7468431820275
 20
168.01916891501878
 10
3390.3596069265514
 20
171.64931665706695
 10
3393.203067540468
 20
171.64931665706695
 10
3398.9315507911724
 20
177.40536438352672
 10
3400.394843121002
 20
175.93503094278117
 10
3404.648870665831
 20
175.93503094278117
 10
3408.9140615867054
 20
173.07788808563828
 10
3411.768685576668
 20
173.07788808563828
 10
3414.6121461905846
 20
170.2207452284954
 10
3425.9859886462505
 20
170.2207452284954
 10
3427.4077189532086
 20
168.79217379992406
 10
3431.6778715782207
 20
168.79217379992406
 10
3439.5863418467916
 20
159.4008267028366
 10
3435.9381007949582
 20
155.73503094278118
 10
3430.2278326651262
 20
155.73503094278118
 10
3418.891345252659
 20
151.46339220303173
 10
3416.8031796281502
 20
149.36517868482935
 10
3416.8031796281502
 20
142.22232154197224
 10
3414.570584167713
 20
139.97898321632118
 10
3413.1072918378836
 20
141.44931665706696
 10
3387.5814166581617
 20
141.44931665706696
 10
3376.2075742024954
 20
135.73503094278118
 10
3371.939291458285
 20
135.73503094278118
 10
3361.975027119006
 20
131.44408351500059
 10
3356.228348224578
 20
132.88766624612313
  0
LWPOLYLINE
  5
3D
330
17
100
AcDbEntity
  8
GRY6
100
AcDbPolyline
 90
11
 70
1
 10
3322.1120525646984
 20
95.73955222207253
 10
3318.4822963841148
 20
99.38677416485908
 10
3319.9443560288305
 20
102.32496381318535
 10
3334.9477143306704
 20
115.9647488479234
 10
3340.6740696818106
 20
111.6493166570669
 10
3343.5256308426715
 20
111.6493166570669
 10
3345.722679575341
 20
109.44169610392174
 10
3344.2892599852976
 20
99.35947739459361
 10
3342.1187123933437
 20
97.17848550109332
 10
3334.9676161630755
 20
94.30428307113104
 10
3322.1120525646984
 20
95.73955222207253
  0
LWPOLYLINE
  5
3E
330
17
100
AcDbEntity
  8
GRY6
100
AcDbPolyline
 90
41
 70
1
 10
4737.535808165697
 20
292.8778880856384
 10
4730.542171494747
 20
292.8778880856384
 10
4722.105749391863
 20
297.1819457182343
 10
4719.965622735276
 20
299.365626989434
 10
4719.965622735276
 20
302.3044348961281
 10
4724.165856307061
 20
306.5901491818424
 10
4724.165856307061
 20
310.8695593863058
 10
4729.715800576245
 20
317.9481762753595
 10
4723.539445480519
 20
321.4493166570669
 10
4719.323571156998
 20
321.4493166570669
 10
4716.523415442474
 20
324.3064595142098
 10
4712.323181870691
 20
324.3064595142098
 10
4710.12505963479
 20
326.54931665706675
 10
4712.327463797655
 20
328.79654287017865
 10
4726.328242370269
 20
327.3679714416073
 10
4727.7240383005665
 20
328.792173799924
 10
4734.790475406512
 20
328.792173799924
 10
4740.390786835557
 20
325.9350309427811
 10
4744.5878940355515
 20
325.9350309427811
 10
4754.388439036382
 20
321.6493166570669
 10
4757.209698602353
 20
321.6493166570669
 10
4762.16795845312
 20
316.5901491818424
 10
4762.16795845312
 20
309.365626989434
 10
4759.9835321623505
 20
307.13674452362795
 10
4752.931681296682
 20
311.45396414666226
 10
4744.518258522911
 20
312.8847387911773
 10
4741.7668295228295
 20
315.692163276091
 10
4739.7962598218155
 20
313.6814896851361
 10
4743.225965351845
 20
308.78218281838986
 10
4750.217287618534
 20
307.35546169908565
 10
4754.40954288783
 20
303.07788808563816
 10
4757.209698602353
 20
303.07788808563816
 10
4759.367802738598
 20
300.87586346755677
 10
4759.367802738598
 20
295.0799127037198
 10
4756.567647024074
 20
292.2227698465769
 10
4756.567647024074
 20
289.365626989434
 10
4754.398629678093
 20
287.15246706231045
 10
4748.715386409284
 20
288.60219339598035
 10
4747.325128302226
 20
290.0207452284953
 10
4741.736041737481
 20
290.0207452284953
 10
4737.535808165697
 20
292.8778880856384
  0
LWPOLYLINE
  5
3F
330
17
100
AcDbEntity
  8
GRY6
100
AcDbPolyline
 90
21
 70
1
 10
4711.519177954009
 20
362.26968319445183
 10
4720.733438827549
 20
370.2250390210422
 10
4733.412920295113
 20
368.78753603110215
 10
4734.80845288617
 20
367.36360237135244
 10
4738.997461593654
 20
367.36360237135244
 10
4743.197695165439
 20
364.50645951420955
 10
4748.816283968895
 20
364.50645951420955
 10
4759.400231893903
 20
350.8272875526435
 10
4757.167685952705
 20
348.54930613323387
 10
4755.747611385675
 20
349.9982812329958
 10
4752.99148755091
 20
348.592173799924
 10
4750.12528401675
 20
348.592173799924
 10
4748.7672188091365
 20
349.9778775618052
 10
4747.409153601523
 20
348.592173799924
 10
4743.124894730443
 20
348.592173799924
 10
4741.74683281306
 20
349.9982812329958
 10
4738.97608480817
 20
348.58471290355266
 10
4724.912289714915
 20
352.8897168881462
 10
4722.108799346536
 20
355.7502622640836
 10
4715.108410060228
 20
358.60740512122646
 10
4711.519177954009
 20
362.26968319445183
  0
LWPOLYLINE
  5
40
330
17
100
AcDbEntity
  8
GRY6
100
AcDbPolyline
 90
28
 70
1
 10
4722.725760350143
 20
413.692173799924
 10
4717.923493299736
 20
418.59217379992384
 10
4712.341159350349
 20
418.59217379992384
 10
4703.940692206779
 20
422.8778880856383
 10
4699.722481155337
 20
422.8778880856383
 10
4696.922325440814
 20
425.73503094278095
 10
4691.3046122557735
 20
425.73503094278095
 10
4687.740628632612
 20
432.28075928865104
 10
4689.9219361545065
 20
434.5064595142096
 10
4692.783725880849
 20
434.5064595142096
 10
4699.79014693632
 20
431.6468548473764
 10
4711.001543598118
 20
430.21690928556745
 10
4715.203586506763
 20
427.35853565546876
 10
4723.6040536503315
 20
425.9299642268972
 10
4727.796838735562
 20
423.0778880856383
 10
4733.408375028908
 20
423.0778880856383
 10
4734.8164311886585
 20
421.6411759848
 10
4741.813503083104
 20
420.2132815373272
 10
4753.744081479321
 20
409.472061598082
 10
4756.567647024074
 20
405.1505179321211
 10
4756.567647024074
 20
399.36562698943413
 10
4753.009465030568
 20
395.7350309427812
 10
4748.809231458784
 20
395.7350309427812
 10
4747.3871376616435
 20
394.2839955187103
 10
4744.566985237352
 20
395.7227687828768
 10
4741.764899531867
 20
394.2932127197969
 10
4717.102098791435
 20
407.9540627476999
 10
4722.725760350143
 20
413.692173799924
  0
LWPOLYLINE
  5
41
330
17
100
AcDbEntity
  8
GRY6
100
AcDbPolyline
 90
15
 70
1
 10
4694.76422130457
 20
385.07991270371986
 10
4691.964065590047
 20
387.9370555608626
 10
4691.964065590047
 20
392.3196332425492
 10
4695.567116022237
 20
394.5254598155932
 10
4699.795281590334
 20
391.6493166570667
 10
4704.006740026418
 20
391.6493166570667
 10
4706.8068957409405
 20
388.79217379992406
 10
4712.407207169986
 20
388.79217379992406
 10
4717.365467020753
 20
383.73300632469955
 10
4717.365467020753
 20
379.4472920389853
 10
4720.190634437791
 20
376.56462845568603
 10
4718.015499397118
 20
372.8656249130451
 10
4696.914347138326
 20
377.1717430436195
 10
4694.76422130457
 20
379.3656269894341
 10
4694.76422130457
 20
385.07991270371986
  0
LWPOLYLINE
  5
42
330
17
100
AcDbEntity
  8
GRY6
100
AcDbPolyline
 90
21
 70
1
 10
4649.338364939565
 20
227.3727547713058
 10
4654.930902932708
 20
225.9461662518234
 10
4656.320067580232
 20
227.36360237135256
 10
4666.196498180824
 20
227.36360237135256
 10
4671.813097138946
 20
223.0654238330818
 10
4678.820266120696
 20
220.205513907193
 10
4682.388532291732
 20
216.56462845568615
 10
4680.220608397551
 20
212.87788808563835
 10
4677.40526073845
 20
212.87788808563835
 10
4676.005182881188
 20
211.4493166570668
 10
4670.3388236325045
 20
211.4493166570668
 10
4667.58269979774
 20
212.8554240901388
 10
4666.204637880358
 20
211.4493166570668
 10
4656.4040928795275
 20
211.4493166570668
 10
4655.004015022266
 20
210.02074522849546
 10
4652.119834008448
 20
210.02074522849546
 10
4650.724522468153
 20
211.44445333878625
 10
4644.424172110476
 20
210.73016762450058
 10
4642.961340585896
 20
212.22276984657685
 10
4642.961340585896
 20
222.31190577748893
 10
4649.338364939565
 20
227.3727547713058
  0
LWPOLYLINE
  5
43
330
17
100
AcDbEntity
  8
GRY6
100
AcDbPolyline
 90
39
 70
1
 10
4552.70448639268
 20
362.8879076816946
 10
4550.5037822742215
 20
365.1333992520844
 10
4555.547209936889
 20
368.80916251848663
 10
4558.380665391567
 20
367.36360237135244
 10
4566.799110014794
 20
367.36360237135244
 10
4568.1991878720555
 20
365.9350309427811
 10
4573.715474001806
 20
365.9350309427811
 10
4575.157564508715
 20
367.4064700380426
 10
4576.599655015625
 20
365.9350309427811
 10
4580.733840767772
 20
365.9350309427811
 10
4583.5780283620525
 20
367.386066366852
 10
4584.971001985195
 20
365.96474375364596
 10
4589.15105084827
 20
368.8081562800043
 10
4591.96313106266
 20
367.37350126125136
 10
4598.983291014146
 20
370.2387133289029
 10
4600.400978589069
 20
368.792173799924
 10
4607.401367875376
 20
368.792173799924
 10
4608.801445732638
 20
367.36360237135244
 10
4615.801835018945
 20
367.36360237135244
 10
4617.201912876207
 20
365.9350309427811
 10
4624.202302162514
 20
365.9350309427811
 10
4625.602380019775
 20
364.50645951420955
 10
4629.80261359156
 20
364.50645951420955
 10
4631.997032576353
 20
362.26738098887523
 10
4619.998392473022
 20
348.5842186542965
 10
4611.594393593542
 20
350.01339068482594
 10
4610.2015235899
 20
348.592173799924
 10
4607.335320055739
 20
348.592173799924
 10
4604.559199511205
 20
350.008483068591
 10
4598.9388913723915
 20
347.14113837585313
 10
4597.5588102248985
 20
348.54930613323387
 10
4596.200745017285
 20
347.1636023713527
 10
4590.516408288943
 20
347.1636023713527
 10
4589.14545060568
 20
348.56246098905916
 10
4584.973121169195
 20
345.7242994812848
 10
4572.306472544477
 20
350.0324437813025
 10
4562.495600319808
 20
358.6129044077313
 10
4558.314901804442
 20
361.4567588498474
 10
4552.70448639268
 20
362.8879076816946
  0
LWPOLYLINE
  5
44
330
17
100
AcDbEntity
  8
GRY6
100
AcDbPolyline
 90
23
 70
1
 10
4570.915318287283
 20
388.59217379992407
 10
4569.510695163817
 20
390.02538299731725
 10
4556.909994448464
 20
391.4539544258886
 10
4554.756435578424
 20
393.65134127514835
 10
4554.756435578424
 20
402.2227698465768
 10
4553.316339621507
 20
403.6921737999239
 10
4555.514461857407
 20
405.93503094278094
 10
4562.514851143714
 20
405.93503094278094
 10
4563.9149290009755
 20
407.3636023713525
 10
4569.515240430022
 20
407.3636023713525
 10
4570.915318287283
 20
408.79217379992406
 10
4576.5156297163285
 20
408.79217379992406
 10
4577.91570757359
 20
410.2207452284954
 10
4585.000122159193
 20
410.2207452284954
 10
4589.210175481182
 20
405.92501134672455
 10
4594.801266773497
 20
404.49879186305225
 10
4604.000088396465
 20
398.00077061096226
 10
4599.75892701079
 20
392.23080389269694
 10
4599.75892701079
 20
389.36562698943413
 10
4596.197186828281
 20
385.7314003395815
 10
4579.312351899738
 20
387.1671057796966
 10
4577.91570757359
 20
388.59217379992407
 10
4570.915318287283
 20
388.59217379992407
  0
LWPOLYLINE
  5
45
330
17
100
AcDbEntity
  8
GRY6
100
AcDbPolyline
 90
13
 70
1
 10
4491.136008680909
 20
115.93564083890695
 10
4534.58415250029
 20
114.50556421937952
 10
4547.956046292117
 20
106.60638848891901
 10
4547.956046292117
 20
103.6513412751483
 10
4541.597708584088
 20
97.16360237135268
 10
4535.997397155043
 20
97.16360237135268
 10
4534.597319297781
 20
95.73503094278112
 10
4516.396307153381
 20
95.73503094278112
 10
4514.99749389087
 20
94.30774984525681
 10
4491.81220047752
 20
93.59086660169235
 10
4477.727141726529
 20
107.9625762870191
 10
4479.8838225154095
 20
111.63019679298402
 10
4491.136008680909
 20
115.93564083890695
  0
LWPOLYLINE
  5
46
330
17
100
AcDbEntity
  8
GRY6
100
AcDbPolyline
 90
11
 70
1
 10
4758.627753939272
 20
308.7738304530423
 10
4762.207976552777
 20
305.1207452284954
 10
4760.005087999909
 20
302.87302476735766
 10
4753.620933393699
 20
303.596811568746
 10
4750.1173057142605
 20
307.1717430436196
 10
4743.107849408335
 20
308.6021647814581
 10
4739.537165652057
 20
313.7028579147116
 10
4741.7668295228295
 20
315.97789860947125
 10
4744.615711951792
 20
313.07103738009914
 10
4752.999283973062
 20
311.64533911186345
 10
4758.627753939272
 20
308.7738304530423
  0
LWPOLYLINE
  5
47
330
17
100
AcDbEntity
  8
GRY6
100
AcDbPolyline
 90
23
 70
1
 10
5778.6251575714095
 20
255.76563670305475
 10
5776.220673407787
 20
259.4064595142096
 10
5778.64537032817
 20
263.07788808563816
 10
5780.532294001621
 20
263.07788808563816
 10
5781.504883265696
 20
264.5505636940295
 10
5783.4500617938465
 20
263.07788808563816
 10
5789.023450532148
 20
263.07788808563816
 10
5792.264236102139
 20
267.9850221012403
 10
5789.433850591964
 20
273.6993078155261
 10
5793.7407597157735
 20
280.2207452284955
 10
5795.634361219819
 20
280.2207452284955
 10
5800.351670403445
 20
285.93503094278105
 10
5802.339511285112
 20
285.93503094278105
 10
5808.955578706073
 20
275.91711127801386
 10
5812.7294260529725
 20
274.48853984944253
 10
5815.142288409472
 20
270.83503094278115
 10
5808.522246134059
 20
260.8110926312781
 10
5809.465707970784
 20
253.66823548842098
 10
5807.056820468738
 20
250.02074522849549
 10
5790.074507407685
 20
250.02074522849549
 10
5787.190324378103
 20
245.6535717929147
 10
5782.39900491831
 20
252.90849384591206
 10
5778.6251575714095
 20
255.76563670305475
  0
LWPOLYLINE
  5
48
330
17
100
AcDbEntity
  8
GRY6
100
AcDbPolyline
 90
13
 70
1
 10
5789.4489789699155
 20
333.66213269082624
 10
5789.4489789699155
 20
338.007929194736
 10
5791.882963469673
 20
341.6934208368867
 10
5793.828141997824
 20
340.22074522849533
 10
5798.565663938211
 20
340.22074522849533
 10
5799.5091257749355
 20
338.792173799924
 10
5804.226434958561
 20
338.792173799924
 10
5806.651131878945
 20
335.1207452284954
 10
5805.687830194244
 20
333.66213269082624
 10
5805.687830194244
 20
330.8049898336836
 10
5802.323732775305
 20
325.71113943236907
 10
5791.841100294931
 20
330.0400294476744
 10
5789.4489789699155
 20
333.66213269082624
  0
LWPOLYLINE
  5
49
330
17
100
AcDbEntity
  8
GRY6
100
AcDbPolyline
 90
14
 70
1
 10
5763.968753587532
 20
363.6723621769011
 10
5765.868055646254
 20
372.3000200737028
 10
5772.075842700834
 20
383.1458387657971
 10
5775.497051419038
 20
379.44560504313915
 10
5775.497051419038
 20
376.5793577661645
 10
5777.809503530258
 20
373.0778880856382
 10
5782.526812713883
 20
373.0778880856382
 10
5784.936720821728
 20
369.42885244440805
 10
5783.983399776645
 20
363.6548522495935
 10
5781.5833508771575
 20
360.02074522849534
 10
5779.696427203708
 20
360.02074522849534
 10
5774.946880643713
 20
352.8290748819438
 10
5766.358703469523
 20
360.0535468902317
 10
5763.968753587532
 20
363.6723621769011
  0
LWPOLYLINE
  5
4A
330
17
100
AcDbEntity
  8
GRY6
100
AcDbPolyline
 90
70
 70
1
 10
5671.516249379271
 20
340.77593546585484
 10
5671.516249379271
 20
363.7187680918323
 10
5677.690766311722
 20
374.5064595142098
 10
5678.641558532873
 20
374.5064595142098
 10
5688.065935494736
 20
387.34964576950335
 10
5692.780596232074
 20
388.7774151529788
 10
5697.507652369807
 20
395.93503094278117
 10
5701.304782048181
 20
395.93503094278117
 10
5709.795938578707
 20
401.64931665706695
 10
5716.3835669349055
 20
401.64931665706695
 10
5721.100876118531
 20
407.3636023713525
 10
5722.981121961387
 20
407.3636023713525
 10
5723.924583798112
 20
408.79217379992406
 10
5725.919102510374
 20
408.79217379992406
 10
5726.862564347099
 20
407.3636023713525
 10
5734.302664002088
 20
407.3636023713525
 10
5735.246125838813
 20
408.79217379992406
 10
5738.102386369958
 20
408.79217379992406
 10
5747.53700473721
 20
414.50645951420984
 10
5749.407580876102
 20
414.50645951420984
 10
5759.785661080078
 20
425.93503094278094
 10
5762.626731860605
 20
425.93503094278094
 10
5766.400579207505
 20
428.79217379992406
 10
5769.318346999731
 20
428.79217379992406
 10
5773.610127745588
 20
422.29364348045004
 10
5773.610127745588
 20
403.7222149090216
 10
5774.553589582314
 20
402.29364348045004
 10
5774.553589582314
 20
395.0907041193976
 10
5772.148732509907
 20
391.44931665706673
 10
5766.380366450743
 20
391.44931665706673
 10
5765.436904614018
 20
392.8778880856383
 10
5750.449110265227
 20
392.8778880856383
 10
5748.508389072372
 20
389.9392860786288
 10
5745.678003562197
 20
394.22500036434326
 10
5743.419348970384
 20
390.80498983368363
 10
5743.419348970384
 20
386.5793577661645
 10
5745.678003562197
 20
383.1593472355048
 10
5747.572051137367
 20
386.02727696505946
 10
5752.8539673376345
 20
376.5753622076502
 10
5752.8539673376345
 20
373.66213269082624
 10
5750.9670436641845
 20
370.8049898336836
 10
5750.9670436641845
 20
366.51927554796913
 10
5750.02358182746
 20
365.0907041193978
 10
5750.02358182746
 20
359.38117010221316
 10
5745.737633970554
 20
351.4493166570669
 10
5738.072323862132
 20
351.4493166570669
 10
5731.877396095827
 20
362.27266848489893
 10
5737.562327521483
 20
369.4460116380527
 10
5738.498687849206
 20
377.9529224147076
 10
5729.565142061701
 20
391.47992241734045
 10
5727.718643901774
 20
392.8778880856383
 10
5720.246231181144
 20
392.8778880856383
 10
5717.415845670967
 20
390.0207452284954
 10
5715.541022306396
 20
390.0207452284954
 10
5712.307178790439
 20
385.12412273510034
 10
5720.776264888979
 20
373.72525674270895
 10
5720.776264888979
 20
369.376418405112
 10
5718.3757272119765
 20
365.7415712866756
 10
5707.047142407951
 20
364.31211119025073
 10
5702.835284686287
 20
359.3518237352715
 10
5700.467601911171
 20
354.3326853176869
 10
5697.630243109385
 20
352.90059428193763
 10
5695.326160578501
 20
349.41179765597565
 10
5700.963566317751
 20
342.2984232221717
 10
5700.963566317751
 20
340.80498983368335
 10
5696.671785571894
 20
334.3064595142098
 10
5691.846881349456
 20
334.3064595142098
 10
5690.906308307627
 20
335.7306567861471
 10
5681.972372695493
 20
335.0186783510181
 10
5671.516249379271
 20
340.77593546585484
  0
LWPOLYLINE
  5
4B
330
17
100
AcDbEntity
  8
GRY6
100
AcDbPolyline
 90
21
 70
1
 10
6484.618097759083
 20
91.45856643366746
 10
6482.503490381773
 20
93.65597285461413
 10
6483.877693592925
 20
107.9360845778321
 10
6475.599078489079
 20
115.10506000282695
 10
6488.013788168678
 20
132.30614931258455
 10
6489.390271019871
 20
138.02766960612112
 10
6491.532213990238
 20
140.25348196584875
 10
6501.239432634787
 20
133.0482590389075
 10
6504.706340378723
 20
128.00453906197927
 10
6503.332517034252
 20
113.728374745234
 10
6505.341302700882
 20
111.6409335637072
 10
6512.215014484636
 20
110.21236213513563
 10
6513.581689625921
 20
108.792173799924
 10
6517.696423256377
 20
108.792173799924
 10
6522.609571764248
 20
105.14536913129002
 10
6519.825479664653
 20
100.80571114905545
 10
6519.825479664653
 20
97.93758699480048
 10
6517.701577387624
 20
95.73052172533858
 10
6503.9598424451
 20
97.15850201717235
 10
6497.080941702942
 20
88.5806028825722
 10
6484.618097759083
 20
91.45856643366746
  0
LWPOLYLINE
  5
4C
330
17
100
AcDbEntity
  8
GRY6
100
AcDbPolyline
 90
8
 70
1
 10
7809.706181857748
 20
330.0297252231519
 10
7807.1953035552615
 20
333.6609674094708
 10
7807.1953035552615
 20
343.7301981449796
 10
7811.7373179863125
 20
348.83917095943673
 10
7822.222071500545
 20
338.00839079653787
 10
7821.217755142654
 20
333.6510518642959
 10
7817.712894069973
 20
328.5823078428494
 10
7809.706181857748
 20
330.0297252231519
  0
LWPOLYLINE
  5
4D
330
17
100
AcDbEntity
  8
GRY6
100
AcDbPolyline
 90
12
 70
1
 10
7759.34908076315
 20
220.02750698349226
 10
7748.496053707613
 20
225.73503094278124
 10
7743.529275104014
 20
225.73503094278124
 10
7740.990609306987
 20
229.40645951420979
 10
7743.5197101022595
 20
233.0640551420633
 10
7758.417892746699
 20
237.3732173395622
 10
7764.358035800968
 20
233.07788808563834
 10
7766.353715475439
 20
233.07788808563834
 10
7769.858610836576
 20
228.0090944760913
 10
7769.858610836576
 20
226.51811026661383
 10
7764.3669995370965
 20
218.57612016626305
 10
7759.34908076315
 20
220.02750698349226
  0
LWPOLYLINE
  5
4E
330
17
100
AcDbEntity
  8
GRY6
100
AcDbPolyline
 90
20
 70
1
 10
7730.68615068514
 20
331.4625253361505
 10
7726.729846080636
 20
332.8929311992674
 10
7721.237346758892
 20
339.3919738588265
 10
7723.763410922842
 20
344.50645951420955
 10
7724.760928744671
 20
344.50645951420955
 10
7731.672387906158
 20
354.5018392390491
 10
7747.582019598804
 20
355.93987502800803
 10
7748.573176819219
 20
354.5064595142098
 10
7756.479337932909
 20
354.5064595142098
 10
7763.954687230243
 20
342.25412898152865
 10
7758.445238618831
 20
335.7350309427811
 10
7755.487830741083
 20
335.7350309427811
 10
7754.500023037959
 20
334.3064595142098
 10
7747.5853691160955
 20
334.3064595142098
 10
7746.597561412973
 20
332.87788808563823
 10
7744.615257984161
 20
332.87788808563823
 10
7739.6216777035315
 20
327.1004995573814
 10
7738.642668188191
 20
328.5163470117909
 10
7736.682369397274
 20
325.6813551046469
 10
7730.68615068514
 20
331.4625253361505
  0
LWPOLYLINE
  5
4F
330
17
100
AcDbEntity
  8
GRY6
100
AcDbPolyline
 90
13
 70
1
 10
7730.232186381822
 20
173.59282322288848
 10
7720.801980568021
 20
175.74619182551567
 10
7718.26568302922
 20
179.41419541248015
 10
7722.792842964643
 20
184.50645951420964
 10
7725.772691067388
 20
184.50645951420964
 10
7732.687344989251
 20
188.79217379992386
 10
7737.6224931535
 20
188.79217379992386
 10
7741.595809063499
 20
191.66528643498725
 10
7744.636739100526
 20
190.1993513974125
 10
7747.13903366474
 20
186.58052304751993
 10
7747.13903366474
 20
179.3752531237567
 10
7742.644202846941
 20
172.8748109200098
 10
7730.232186381822
 20
173.59282322288848
  0
LWPOLYLINE
  5
50
330
17
100
AcDbEntity
  8
GRY6
100
AcDbPolyline
 90
11
 70
1
 10
7726.19507189915
 20
266.5112923120112
 10
7726.19507189915
 20
276.58052304752
 10
7728.764591156959
 20
280.2965720166284
 10
7729.804830459877
 20
278.79217379992394
 10
7735.731676678616
 20
278.79217379992394
 10
7738.238801990708
 20
275.1663592032381
 10
7740.235444386912
 20
269.39125485596225
 10
7736.729049383494
 20
264.3202924577848
 10
7731.790010867878
 20
262.8917210292132
 10
7730.75005472465
 20
261.38773231918
 10
7726.19507189915
 20
266.5112923120112
  0
LWPOLYLINE
  5
51
330
17
100
AcDbEntity
  8
GRY6
100
AcDbPolyline
 90
14
 70
1
 10
7689.193254780915
 20
125.74457104614956
 10
7685.694956071095
 20
130.80382455232797
 10
7685.694956071095
 20
132.29480876180565
 10
7688.212043729109
 20
135.93503094278114
 10
7693.151082244725
 20
135.93503094278114
 10
7695.117132649218
 20
138.778340856349
 10
7700.066590075615
 20
140.2099258589613
 10
7703.096907491081
 20
143.13156392377246
 10
7705.651110133562
 20
139.43766590466277
 10
7705.651110133562
 20
136.58052304751988
 10
7708.6145332429305
 20
132.29480876180565
 10
7708.6145332429305
 20
129.37525312375664
 10
7704.114537829726
 20
122.86734186159465
 10
7689.193254780915
 20
125.74457104614956
  0
LWPOLYLINE
  5
52
330
17
100
AcDbEntity
  8
GRY6
100
AcDbPolyline
 90
28
 70
1
 10
8510.955901265948
 20
330.02074522849534
 10
8500.256509120743
 20
330.02074522849534
 10
8498.921950045893
 20
331.4493166570669
 10
8491.001451570522
 20
331.4493166570669
 10
8488.33233342082
 20
328.592173799924
 10
8481.57268207283
 20
328.592173799924
 10
8478.893470995634
 20
331.46012057584363
 10
8473.555234696232
 20
332.88869200441496
 10
8470.172357923464
 20
336.50987385767417
 10
8470.172357923464
 20
347.9384452862457
 10
8468.227091324321
 20
350.02074522849534
 10
8452.212382426109
 20
350.02074522849534
 10
8446.113447454041
 20
356.5493166570668
 10
8448.826461438126
 20
359.4534475689275
 10
8450.161020512976
 20
366.5963047117846
 10
8452.212382426109
 20
368.792173799924
 10
8456.302915624397
 20
368.792173799924
 10
8457.637474699248
 20
367.36360237135244
 10
8468.227091324321
 20
367.36360237135244
 10
8474.915070293186
 20
374.52271270963024
 10
8479.00348069451
 20
373.06390722656425
 10
8491.001451570522
 20
360.22074522849533
 10
8492.336010645373
 20
360.22074522849533
 10
8503.012483244182
 20
348.792173799924
 10
8504.34952716289
 20
348.792173799924
 10
8519.772478962537
 20
330.84715857354377
 10
8517.692482537173
 20
327.13629066618387
 10
8510.955901265948
 20
330.02074522849534
  0
LWPOLYLINE
  5
53
330
17
100
AcDbEntity
  8
GRY6
100
AcDbPolyline
 90
12
 70
1
 10
8484.821978601472
 20
423.66382202025
 10
8486.88139971914
 20
427.33798205250093
 10
8492.2308047641
 20
430.2011026707986
 10
8496.296259883058
 20
434.5529467641247
 10
8497.674246944778
 20
433.07788808563805
 10
8505.665661282232
 20
433.07788808563805
 10
8511.743689243845
 20
429.4633371777998
 10
8511.743689243845
 20
427.9384452862456
 10
8504.34704231903
 20
420.0207452284954
 10
8503.012483244182
 20
420.0207452284954
 10
8497.643318416343
 20
414.2733522408943
 10
8484.821978601472
 20
423.66382202025
  0
LWPOLYLINE
  5
54
330
17
100
AcDbEntity
  8
GRY6
100
AcDbPolyline
 90
16
 70
1
 10
8455.548857854346
 20
57.88335475374928
 10
8448.844767332519
 20
63.624440243043146
 10
8444.815735501295
 20
69.3749135565167
 10
8444.815735501295
 20
73.7316165993166
 10
8446.874146126705
 20
75.93503094278108
 10
8454.88150057581
 20
75.93503094278108
 10
8456.216059650662
 20
77.36360237135264
 10
8462.888855024916
 20
77.36360237135264
 10
8464.223414099768
 20
78.79217379992399
 10
8470.983065447757
 20
78.79217379992399
 10
8475.71059422287
 20
73.7316165993166
 10
8475.71059422287
 20
65.08130242910282
 10
8473.652183597458
 20
62.877888085638325
 10
8469.633237406173
 20
62.877888085638325
 10
8460.284171708743
 20
57.15922751147051
 10
8455.548857854346
 20
57.88335475374928
  0
LWPOLYLINE
  5
55
330
17
100
AcDbEntity
  8
GRY6
100
AcDbPolyline
 90
34
 70
1
 10
8448.874390644343
 20
92.16530876119788
 10
8446.150294576148
 20
95.08130242910285
 10
8446.150294576148
 20
99.44590231360229
 10
8448.819412725848
 20
102.30304517074518
 10
8448.819412725848
 20
105.07132393603192
 10
8444.214606231546
 20
108.59217379992403
 10
8440.219700659989
 20
108.59217379992403
 10
8434.881464360586
 20
111.44931665706692
 10
8432.193996303344
 20
111.44931665706692
 10
8430.135585677934
 20
113.65273100053153
 10
8430.135585677934
 20
120.87447374217386
 10
8431.470144752786
 20
122.3030451707452
 10
8431.470144752786
 20
125.16018802788808
 10
8433.528555378196
 20
127.36360237135247
 10
8436.284529501632
 20
127.36360237135247
 10
8437.619088576483
 20
125.93503094278114
 10
8444.291883950738
 20
125.93503094278114
 10
8445.626443025589
 20
124.5064595142098
 10
8448.21516658526
 20
124.5064595142098
 10
8454.887961959515
 20
130.22074522849536
 10
8457.550618725512
 20
130.22074522849536
 10
8458.885177800363
 20
131.64931665706692
 10
8466.89253224947
 20
131.64931665706692
 10
8468.270519311189
 20
133.12437533555334
 10
8470.372357923465
 20
130.87447374217365
 10
8470.372357923465
 20
125.16018802788808
 10
8473.041476073167
 20
122.3030451707452
 10
8473.041476073167
 20
117.93844528624575
 10
8466.368680698912
 20
110.79558814338864
 10
8466.368680698912
 20
106.57152006980009
 10
8469.037798848614
 20
100.85723435551452
 10
8469.037798848614
 20
93.6527310005314
 10
8466.977766454876
 20
91.44758064407222
 10
8448.874390644343
 20
92.16530876119788
  0
LWPOLYLINE
  5
56
330
17
100
AcDbEntity
  8
GRY6
100
AcDbPolyline
 90
25
 70
1
 10
8340.675760453973
 20
2.237475705231473
 10
8346.058363962322
 20
9.439698641875328
 10
8346.058363962322
 20
13.71923017801957
 10
8352.737205898185
 20
25.158157620427946
 10
8354.07322417335
 20
30.878691306539086
 10
8360.12180255643
 20
38.792173799923944
 10
8373.4733970099
 20
38.792173799923944
 10
8376.142515159603
 20
41.649316657066834
 10
8382.902166507592
 20
41.649316657066834
 10
8386.28644186268
 20
38.02663769904846
 10
8387.62100093753
 20
32.312351984762785
 10
8391.65633864862
 20
27.992746905203592
 10
8389.604480534941
 20
24.332079833061293
 10
8384.218375674905
 20
21.44931665706684
 10
8381.56760743274
 20
21.44931665706684
 10
8378.89848928304
 20
18.592173799924062
 10
8376.21796569503
 20
18.592173799924062
 10
8372.214288470477
 20
15.735030942781169
 10
8369.55126822406
 20
15.735030942781169
 10
8361.552609332088
 20
8.599930559384571
 10
8354.884636802208
 20
7.1723916482653305
 10
8350.872748711168
 20
2.8778880856383804
 10
8348.19222512316
 20
2.8778880856383804
 10
8344.159477879011
 20
0.0
 10
8340.675760453973
 20
2.237475705231473
  0
ENDSEC
  0
SECTION
  2
OBJECTS
  0
DICTIONARY
  5
A
330
0
100
AcDbDictionary
281
1
  3
ACAD_COLOR
350
B
  3
ACAD_GROUP
350
C
  3
ACAD_LAYOUT
350
D
  3
ACAD_MATERIAL
350
E
  3
ACAD_MLEADERSTYLE
350
F
  3
ACAD_MLINESTYLE
350
10
  3
ACAD_PLOTSETTINGS
350
11
  3
ACAD_PLOTSTYLENAME
350
12
  3
ACAD_SCALELIST
350
14
  3
ACAD_TABLESTYLE
350
15
  3
ACAD_VISUALSTYLE
350
16
  3
EZDXF_META
350
2D
  0
DICTIONARY
  5
B
330
A
100
AcDbDictionary
281
1
  0
DICTIONARY
  5
C
330
A
100
AcDbDictionary
281
1
  0
DICTIONARY
  5
D
330
A
100
AcDbDictionary
281
1
  3
Model
350
1A
  3
Layout1
350
1E
  0
DICTIONARY
  5
E
330
A
100
AcDbDictionary
281
1
  3
ByBlock
350
1F
  3
ByLayer
350
20
  3
Global
350
21
  0
DICTIONARY
  5
F
330
A
100
AcDbDictionary
281
1
  3
Standard
350
2C
  0
DICTIONARY
  5
10
330
A
100
AcDbDictionary
281
1
  3
Standard
350
22
  0
DICTIONARY
  5
11
330
A
100
AcDbDictionary
281
1
  0
ACDBDICTIONARYWDFLT
  5
12
330
A
100
AcDbDictionary
281
1
  3
Normal
350
13
100
AcDbDictionaryWithDefault
340
13
  0
ACDBPLACEHOLDER
  5
13
330
12
  0
DICTIONARY
  5
14
330
A
100
AcDbDictionary
281
1
  0
DICTIONARY
  5
15
330
A
100
AcDbDictionary
281
1
  0
DICTIONARY
  5
16
330
A
100
AcDbDictionary
281
1
  0
LAYOUT
  5
1A
330
D
100
AcDbPlotSettings
  1

  4
A3
  6

 40
7.5
 41
20.0
 42
7.5
 43
20.0
 44
420.0
 45
297.0
 46
0.0
 47
0.0
 48
0.0
 49
0.0
140
0.0
141
0.0
142
1.0
143
1.0
 70
1024
 72
1
 73
0
 74
5
  7

 75
16
 76
0
 77
2
 78
300
147
1.0
148
0.0
149
0.0
100
AcDbLayout
  1
Model
 70
1
 71
0
 10
0.0
 20
0.0
 11
420.0
 21
297.0
 12
0.0
 22
0.0
 32
0.0
 14
1e+20
 24
1e+20
 34
1e+20
 15
-1e+20
 25
-1e+20
 35
-1e+20
146
0.0
 13
0.0
 23
0.0
 33
0.0
 16
1.0
 26
0.0
 36
0.0
 17
0.0
 27
1.0
 37
0.0
 76
1
330
17
  0
LAYOUT
  5
1E
330
D
100
AcDbPlotSettings
  1

  4
A3
  6

 40
7.5
 41
20.0
 42
7.5
 43
20.0
 44
420.0
 45
297.0
 46
0.0
 47
0.0
 48
0.0
 49
0.0
140
0.0
141
0.0
142
1.0
143
1.0
 70
0
 72
1
 73
0
 74
5
  7

 75
16
 76
0
 77
2
 78
300
147
1.0
148
0.0
149
0.0
100
AcDbLayout
  1
Layout1
 70
1
 71
1
 10
0.0
 20
0.0
 11
420.0
 21
297.0
 12
0.0
 22
0.0
 32
0.0
 14
1e+20
 24
1e+20
 34
1e+20
 15
-1e+20
 25
-1e+20
 35
-1e+20
146
0.0
 13
0.0
 23
0.0
 33
0.0
 16
1.0
 26
0.0
 36
0.0
 17
0.0
 27
1.0
 37
0.0
 76
1
330
1B
  0
MATERIAL
  5
1F
102
{ACAD_REACTORS
330
E
102
}
330
E
100
AcDbMaterial
  1
ByBlock
  2

 70
0
 40
1.0
 71
1
 41
1.0
 91
-1023410177
 42
1.0
 72
1
  3

 73
1
 74
1
 75
1
 44
0.5
 73
0
 45
1.0
 46
1.0
 77
1
  4

 78
1
 79
1
170
1
 48
1.0
171
1
  6

172
1
173
1
174
1
140
1.0
141
1.0
175
1
  7

176
1
177
1
178
1
143
1.0
179
1
  8

270
1
271
1
272
1
145
1.0
146
1.0
273
1
  9

274
1
275
1
276
1
 42
1.0
 72
1
  3

 73
1
 74
1
 75
1
 94
63
  0
MATERIAL
  5
20
102
{ACAD_REACTORS
330
E
102
}
330
E
100
AcDbMaterial
  1
ByLayer
  2

 70
0
 40
1.0
 71
1
 41
1.0
 91
-1023410177
 42
1.0
 72
1
  3

 73
1
 74
1
 75
1
 44
0.5
 73
0
 45
1.0
 46
1.0
 77
1
  4

 78
1
 79
1
170
1
 48
1.0
171
1
  6

172
1
173
1
174
1
140
1.0
141
1.0
175
1
  7

176
1
177
1
178
1
143
1.0
179
1
  8

270
1
271
1
272
1
145
1.0
146
1.0
273
1
  9

274
1
275
1
276
1
 42
1.0
 72
1
  3

 73
1
 74
1
 75
1
 94
63
  0
MATERIAL
  5
21
102
{ACAD_REACTORS
330
E
102
}
330
E
100
AcDbMaterial
  1
Global
  2

 70
0
 40
1.0
 71
1
 41
1.0
 91
-1023410177
 42
1.0
 72
1
  3

 73
1
 74
1
 75
1
 44
0.5
 73
0
 45
1.0
 46
1.0
 77
1
  4

 78
1
 79
1
170
1
 48
1.0
171
1
  6

172
1
173
1
174
1
140
1.0
141
1.0
175
1
  7

176
1
177
1
178
1
143
1.0
179
1
  8

270
1
271
1
272
1
145
1.0
146
1.0
273
1
  9

274
1
275
1
276
1
 42
1.0
 72
1
  3

 73
1
 74
1
 75
1
 94
63
  0
MLINESTYLE
  5
22
102
{ACAD_REACTORS
330
10
102
}
330
10
100
AcDbMlineStyle
  2
Standard
 70
0
  3

 62
256
 51
90.0
 52
90.0
 71
2
 49
0.5
 62
256
  6
BYLAYER
 49
-0.5
 62
256
  6
BYLAYER
  0
MLEADERSTYLE
  5
2C
102
{ACAD_REACTORS
330
F
102
}
330
F
100
AcDbMLeaderStyle
179
2
170
2
171
1
172
0
 90
2
 40
0.0
 41
0.0
173
1
 91
-1056964608
 92
-2
290
1
 42
2.0
291
1
 43
8.0
  3
Standard
 44
4.0
300

342
29
174
1
175
1
176
0
178
1
 93
-1056964608
 45
4.0
292
0
297
0
 46
4.0
 94
-1056964608
 47
1.0
 49
1.0
140
1.0
294
1
141
0.0
177
0
142
1.0
295
0
296
0
143
3.75
271
0
272
9
273
9
  0
DICTIONARY
  5
2D
330
A
100
AcDbDictionary
280
1
281
1
  3
CREATED_BY_EZDXF
350
2E
  3
WRITTEN_BY_EZDXF
350
59
  0
DICTIONARYVAR
  5
2E
330
2D
100
DictionaryVariables
280
0
  1
1.4.4 @ 2026-07-23T17:47:29.382025+00:00
  0
DICTIONARYVAR
  5
59
330
2D
100
DictionaryVariables
280
0
  1
1.4.4 @ 2026-07-23T17:47:29.386663+00:00
  0
ENDSEC
  0
EOF
