  0
SECTION
  2
HEADER
  9
$ACADVER
  1
AC1027
  9
$ACADMAINTVER
 70
105
  9
$DWGCODEPAGE
  3
ANSI_1252
  9
$LASTSAVEDBY
  1
ezdxf
  9
$REQUIREDVERSIONS
160
0
  9
$INSBASE
 10
0.0
 20
0.0
 30
0.0
  9
$EXTMIN
 10
1e+20
 20
1e+20
 30
1e+20
  9
$EXTMAX
 10
-1e+20
 20
-1e+20
 30
-1e+20
  9
$LIMMIN
 10
0.0
 20
0.0
  9
$LIMMAX
 10
420.0
 20
297.0
  9
$ORTHOMODE
 70
0
  9
$REGENMODE
 70
1
  9
$FILLMODE
 70
1
  9
$QTEXTMODE
 70
0
  9
$MIRRTEXT
 70
1
  9
$LTSCALE
 40
1.0
  9
$ATTMODE
 70
1
  9
$TEXTSIZE
 40
2.5
  9
$TRACEWID
 40
1.0
  9
$TEXTSTYLE
  7
Standard
  9
$CLAYER
  8
0
  9
$CELTYPE
  6
ByLayer
  9
$CECOLOR
 62
256
  9
$CELTSCALE
 40
1.0
  9
$DISPSILH
 70
0
  9
$DIMSCALE
 40
1.0
  9
$DIMASZ
 40
2.5
  9
$DIMEXO
 40
0.625
  9
$DIMDLI
 40
3.75
  9
$DIMRND
 40
0.0
  9
$DIMDLE
 40
0.0
  9
$DIMEXE
 40
1.25
  9
$DIMTP
 40
0.0
  9
$DIMTM
 40
0.0
  9
$DIMTXT
 40
2.5
  9
$DIMCEN
 40
2.5
  9
$DIMTSZ
 40
0.0
  9
$DIMTOL
 70
0
  9
$DIMLIM
 70
0
  9
$DIMTIH
 70
0
  9
$DIMTOH
 70
0
  9
$DIMSE1
 70
0
  9
$DIMSE2
 70
0
  9
$DIMTAD
 70
1
  9
$DIMZIN
 70
8
  9
$DIMBLK
  1

  9
$DIMASO
 70
1
  9
$DIMSHO
 70
1
  9
$DIMPOST
  1

  9
$DIMAPOST
  1

  9
$DIMALT
 70
0
  9
$DIMALTD
 70
3
  9
$DIMALTF
 40
0.03937007874
  9
$DIMLFAC
 40
1.0
  9
$DIMTOFL
 70
1
  9
$DIMTVP
 40
0.0
  9
$DIMTIX
 70
0
  9
$DIMSOXD
 70
0
  9
$DIMSAH
 70
0
  9
$DIMBLK1
  1

  9
$DIMBLK2
  1

  9
$DIMSTYLE
  2
ISO-25
  9
$DIMCLRD
 70
0
  9
$DIMCLRE
 70
0
  9
$DIMCLRT
 70
0
  9
$DIMTFAC
 40
1.0
  9
$DIMGAP
 40
0.625
  9
$DIMJUST
 70
0
  9
$DIMSD1
 70
0
  9
$DIMSD2
 70
0
  9
$DIMTOLJ
 70
0
  9
$DIMTZIN
 70
8
  9
$DIMALTZ
 70
0
  9
$DIMALTTZ
 70
0
  9
$DIMUPT
 70
0
  9
$DIMDEC
 70
2
  9
$DIMTDEC
 70
2
  9
$DIMALTU
 70
2
  9
$DIMALTTD
 70
3
  9
$DIMTXSTY
  7
Standard
  9
$DIMAUNIT
 70
0
  9
$DIMADEC
 70
0
  9
$DIMALTRND
 40
0.0
  9
$DIMAZIN
 70
0
  9
$DIMDSEP
 70
44
  9
$DIMATFIT
 70
3
  9
$DIMFRAC
 70
0
  9
$DIMLDRBLK
  1

  9
$DIMLUNIT
 70
2
  9
$DIMLWD
 70
-2
  9
$DIMLWE
 70
-2
  9
$DIMTMOVE
 70
0
  9
$DIMFXL
 40
1.0
  9
$DIMFXLON
 70
0
  9
$DIMJOGANG
 40
0.785398163397
  9
$DIMTFILL
 70
0
  9
$DIMTFILLCLR
 70
0
  9
$DIMARCSYM
 70
0
  9
$DIMLTYPE
  6

  9
$DIMLTEX1
  6

  9
$DIMLTEX2
  6

  9
$DIMTXTDIRECTION
 70
0
  9
$LUNITS
 70
2
  9
$LUPREC
 70
4
  9
$SKETCHINC
 40
1.0
  9
$FILLETRAD
 40
10.0
  9
$AUNITS
 70
0
  9
$AUPREC
 70
2
  9
$MENU
  1
.
  9
$ELEVATION
 40
0.0
  9
$PELEVATION
 40
0.0
  9
$THICKNESS
 40
0.0
  9
$LIMCHECK
 70
0
  9
$CHAMFERA
 40
0.0
  9
$CHAMFERB
 40
0.0
  9
$CHAMFERC
 40
0.0
  9
$CHAMFERD
 40
0.0
  9
$SKPOLY
 70
0
  9
$TDCREATE
 40
2461245.8663078705
  9
$TDUCREATE
 40
2458532.153996898
  9
$TDUPDATE
 40
2461245.8663078705
  9
$TDUUPDATE
 40
2458532.1544311
  9
$TDINDWG
 40
0.0
  9
$TDUSRTIMER
 40
0.0
  9
$USRTIMER
 70
1
  9
$ANGBASE
 50
0.0
  9
$ANGDIR
 70
0
  9
$PDMODE
 70
0
  9
$PDSIZE
 40
0.0
  9
$PLINEWID
 40
0.0
  9
$SPLFRAME
 70
0
  9
$SPLINETYPE
 70
6
  9
$SPLINESEGS
 70
8
  9
$HANDSEED
  5
91
  9
$SURFTAB1
 70
6
  9
$SURFTAB2
 70
6
  9
$SURFTYPE
 70
6
  9
$SURFU
 70
6
  9
$SURFV
 70
6
  9
$UCSBASE
  2

  9
$UCSNAME
  2

  9
$UCSORG
 10
0.0
 20
0.0
 30
0.0
  9
$UCSXDIR
 10
1.0
 20
0.0
 30
0.0
  9
$UCSYDIR
 10
0.0
 20
1.0
 30
0.0
  9
$UCSORTHOREF
  2

  9
$UCSORTHOVIEW
 70
0
  9
$UCSORGTOP
 10
0.0
 20
0.0
 30
0.0
  9
$UCSORGBOTTOM
 10
0.0
 20
0.0
 30
0.0
  9
$UCSORGLEFT
 10
0.0
 20
0.0
 30
0.0
  9
$UCSORGRIGHT
 10
0.0
 20
0.0
 30
0.0
  9
$UCSORGFRONT
 10
0.0
 20
0.0
 30
0.0
  9
$UCSORGBACK
 10
0.0
 20
0.0
 30
0.0
  9
$PUCSBASE
  2

  9
$PUCSNAME
  2

  9
$PUCSORG
 10
0.0
 20
0.0
 30
0.0
  9
$PUCSXDIR
 10
1.0
 20
0.0
 30
0.0
  9
$PUCSYDIR
 10
0.0
 20
1.0
 30
0.0
  9
$PUCSORTHOREF
  2

  9
$PUCSORTHOVIEW
 70
0
  9
$PUCSORGTOP
 10
0.0
 20
0.0
 30
0.0
  9
$PUCSORGBOTTOM
 10
0.0
 20
0.0
 30
0.0
  9
$PUCSORGLEFT
 10
0.0
 20
0.0
 30
0.0
  9
$PUCSORGRIGHT
 10
0.0
 20
0.0
 30
0.0
  9
$PUCSORGFRONT
 10
0.0
 20
0.0
 30
0.0
  9
$PUCSORGBACK
 10
0.0
 20
0.0
 30
0.0
  9
$USERI1
 70
0
  9
$USERI2
 70
0
  9
$USERI3
 70
0
  9
$USERI4
 70
0
  9
$USERI5
 70
0
  9
$USERR1
 40
0.0
  9
$USERR2
 40
0.0
  9
$USERR3
 40
0.0
  9
$USERR4
 40
0.0
  9
$USERR5
 40
0.0
  9
$WORLDVIEW
 70
1
  9
$SHADEDGE
 70
3
  9
$SHADEDIF
 70
70
  9
$TILEMODE
 70
1
  9
$MAXACTVP
 70
64
  9
$PINSBASE
 10
0.0
 20
0.0
 30
0.0
  9
$PLIMCHECK
 70
0
  9
$PEXTMIN
 10
1e+20
 20
1e+20
 30
1e+20
  9
$PEXTMAX
 10
-1e+20
 20
-1e+20
 30
-1e+20
  9
$PLIMMIN
 10
0.0
 20
0.0
  9
$PLIMMAX
 10
420.0
 20
297.0
  9
$UNITMODE
 70
0
  9
$VISRETAIN
 70
1
  9
$PLINEGEN
 70
0
  9
$PSLTSCALE
 70
1
  9
$TREEDEPTH
 70
3020
  9
$CMLSTYLE
  2
Standard
  9
$CMLJUST
 70
0
  9
$CMLSCALE
 40
20.0
  9
$PROXYGRAPHICS
 70
1
  9
$MEASUREMENT
 70
1
  9
$CELWEIGHT
370
-1
  9
$ENDCAPS
280
0
  9
$JOINSTYLE
280
0
  9
$LWDISPLAY
290
0
  9
$INSUNITS
 70
4
  9
$HYPERLINKBASE
  1

  9
$STYLESHEET
  1

  9
$XEDIT
290
1
  9
$CEPSNTYPE
380
0
  9
$PSTYLEMODE
290
1
  9
$FINGERPRINTGUID
  2
{BE3BED27-6DEF-4488-907C-A972062F584A}
  9
$VERSIONGUID
  2
{280D4031-C283-4985-BE27-D7292B447313}
  9
$EXTNAMES
290
1
  9
$PSVPSCALE
 40
0.0
  9
$OLESTARTUP
290
0
  9
$SORTENTS
280
127
  9
$INDEXCTL
280
0
  9
$HIDETEXT
280
1
  9
$XCLIPFRAME
280
1
  9
$HALOGAP
280
0
  9
$OBSCOLOR
 70
257
  9
$OBSLTYPE
280
0
  9
$INTERSECTIONDISPLAY
280
0
  9
$INTERSECTIONCOLOR
 70
257
  9
$DIMASSOC
280
2
  9
$PROJECTNAME
  1

  9
$CAMERADISPLAY
290
0
  9
$LENSLENGTH
 40
50.0
  9
$CAMERAHEIGHT
 40
0.0
  9
$STEPSPERSEC
 40
24.0
  9
$STEPSIZE
 40
100.0
  9
$3DDWFPREC
 40
2.0
  9
$PSOLWIDTH
 40
0.005
  9
$PSOLHEIGHT
 40
0.08
  9
$LOFTANG1
 40
1.570796326795
  9
$LOFTANG2
 40
1.570796326795
  9
$LOFTMAG1
 40
0.0
  9
$LOFTMAG2
 40
0.0
  9
$LOFTPARAM
 70
7
  9
$LOFTNORMALS
280
1
  9
$LATITUDE
 40
37.795
  9
$LONGITUDE
 40
-122.394
  9
$NORTHDIRECTION
 40
0.0
  9
$TIMEZONE
 70
-8000
  9
$LIGHTGLYPHDISPLAY
280
1
  9
$TILEMODELIGHTSYNCH
280
1
  9
$CMATERIAL
347
20
  9
$SOLIDHIST
280
0
  9
$SHOWHIST
280
1
  9
$DWFFRAME
280
2
  9
$DGNFRAME
280
2
  9
$REALWORLDSCALE
290
1
  9
$INTERFERECOLOR
 62
256
  9
$CSHADOW
280
0
  9
$SHADOWPLANELOCATION
 40
0.0
  0
ENDSEC
  0
SECTION
  2
CLASSES
  0
CLASS
  1
ACDBDICTIONARYWDFLT
  2
AcDbDictionaryWithDefault
  3
ObjectDBX Classes
 90
0
 91
0
280
0
281
0
  0
CLASS
  1
SUN
  2
AcDbSun
  3
SCENEOE
 90
1153
 91
0
280
0
281
0
  0
CLASS
  1
VISUALSTYLE
  2
AcDbVisualStyle
  3
ObjectDBX Classes
 90
4095
 91
0
280
0
281
0
  0
CLASS
  1
MATERIAL
  2
AcDbMaterial
  3
ObjectDBX Classes
 90
1153
 91
0
280
0
281
0
  0
CLASS
  1
SCALE
  2
AcDbScale
  3
ObjectDBX Classes
 90
1153
 91
0
280
0
281
0
  0
CLASS
  1
TABLESTYLE
  2
AcDbTableStyle
  3
ObjectDBX Classes
 90
4095
 91
0
280
0
281
0
  0
CLASS
  1
MLEADERSTYLE
  2
AcDbMLeaderStyle
  3
ACDB_MLEADERSTYLE_CLASS
 90
4095
 91
0
280
0
281
0
  0
CLASS
  1
DICTIONARYVAR
  2
AcDbDictionaryVar
  3
ObjectDBX Classes
 90
0
 91
0
280
0
281
0
  0
CLASS
  1
CELLSTYLEMAP
  2
AcDbCellStyleMap
  3
ObjectDBX Classes
 90
1152
 91
0
280
0
281
0
  0
CLASS
  1
MENTALRAYRENDERSETTINGS
  2
AcDbMentalRayRenderSettings
  3
SCENEOE
 90
1024
 91
0
280
0
281
0
  0
CLASS
  1
ACDBDETAILVIEWSTYLE
  2
AcDbDetailViewStyle
  3
ObjectDBX Classes
 90
1025
 91
0
280
0
281
0
  0
CLASS
  1
ACDBSECTIONVIEWSTYLE
  2
AcDbSectionViewStyle
  3
ObjectDBX Classes
 90
1025
 91
0
280
0
281
0
  0
CLASS
  1
RASTERVARIABLES
  2
AcDbRasterVariables
  3
ISM
 90
0
 91
0
280
0
281
0
  0
CLASS
  1
LAYOUT
  2
AcDbLayout
  3
ObjectDBX Classes
 90
0
 91
0
280
0
281
0
  0
CLASS
  1
ACDBPLACEHOLDER
  2
AcDbPlaceHolder
  3
ObjectDBX Classes
 90
0
 91
0
280
0
281
0
  0
ENDSEC
  0
SECTION
  2
TABLES
  0
TABLE
  2
VPORT
  5
8
330
0
100
AcDbSymbolTable
 70
1
  0
VPORT
  5
23
330
8
100
AcDbSymbolTableRecord
100
AcDbViewportTableRecord
  2
*Active
 70
0
 10
0.0
 20
0.0
 11
1.0
 21
1.0
 12
0.0
 22
0.0
 13
0.0
 23
0.0
 14
0.5
 24
0.5
 15
0.5
 25
0.5
 16
0.0
 26
0.0
 36
1.0
 17
0.0
 27
0.0
 37
0.0
 40
1000.0
 41
1.34
 42
50.0
 43
0.0
 44
0.0
 50
0.0
 51
0.0
 71
0
 72
1000
 73
1
 74
3
 75
0
 76
0
 77
0
 78
0
281
0
 65
0
146
0.0
  0
ENDTAB
  0
TABLE
  2
LTYPE
  5
2
330
0
100
AcDbSymbolTable
 70
3
  0
LTYPE
  5
24
330
2
100
AcDbSymbolTableRecord
100
AcDbLinetypeTableRecord
  2
ByBlock
 70
0
  3

 72
65
 73
0
 40
0.0
  0
LTYPE
  5
25
330
2
100
AcDbSymbolTableRecord
100
AcDbLinetypeTableRecord
  2
ByLayer
 70
0
  3

 72
65
 73
0
 40
0.0
  0
LTYPE
  5
26
330
2
100
AcDbSymbolTableRecord
100
AcDbLinetypeTableRecord
  2
Continuous
 70
0
  3

 72
65
 73
0
 40
0.0
  0
ENDTAB
  0
TABLE
  2
LAYER
  5
1
330
0
100
AcDbSymbolTable
 70
3
  0
LAYER
  5
27
330
1
100
AcDbSymbolTableRecord
100
AcDbLayerTableRecord
  2
0
 70
0
 62
7
  6
Continuous
370
-3
390
13
347
21
  0
LAYER
  5
28
330
1
100
AcDbSymbolTableRecord
100
AcDbLayerTableRecord
  2
Defpoints
 70
0
 62
7
  6
Continuous
290
0
370
-3
390
13
347
21
  0
LAYER
  5
2F
330
1
100
AcDbSymbolTableRecord
100
AcDbLayerTableRecord
  2
K
 70
0
 62
7
  6
Continuous
370
-3
390
13
347
21
  0
ENDTAB
  0
TABLE
  2
STYLE
  5
5
330
0
100
AcDbSymbolTable
 70
1
  0
STYLE
  5
29
330
5
100
AcDbSymbolTableRecord
100
AcDbTextStyleTableRecord
  2
Standard
 70
0
 40
0.0
 41
1.0
 50
0.0
 71
0
 42
2.5
  3
txt
  4

  0
ENDTAB
  0
TABLE
  2
VIEW
  5
7
330
0
100
AcDbSymbolTable
 70
0
  0
ENDTAB
  0
TABLE
  2
UCS
  5
6
330
0
100
AcDbSymbolTable
 70
0
  0
ENDTAB
  0
TABLE
  2
APPID
  5
3
330
0
100
AcDbSymbolTable
 70
3
  0
APPID
  5
2A
330
3
100
AcDbSymbolTableRecord
100
AcDbRegAppTableRecord
  2
ACAD
 70
0
  0
APPID
  5
8E
330
3
100
AcDbSymbolTableRecord
100
AcDbRegAppTableRecord
  2
HATCHBACKGROUNDCOLOR
 70
0
  0
APPID
  5
8F
330
3
100
AcDbSymbolTableRecord
100
AcDbRegAppTableRecord
  2
EZDXF
 70
0
  0
ENDTAB
  0
TABLE
  2
DIMSTYLE
  5
4
330
0
100
AcDbSymbolTable
 70
1
100
AcDbDimStyleTable
  0
DIMSTYLE
105
2B
330
4
100
AcDbSymbolTableRecord
100
AcDbDimStyleTableRecord
  2
Standard
 70
0
 40
1.0
 41
2.5
 42
0.625
 43
3.75
 44
1.25
 45
0.0
 46
0.0
 47
0.0
 48
0.0
 49
2.5
140
2.5
141
2.5
142
0.0
143
0.03937007874
144
1.0
145
0.0
146
1.0
147
0.625
148
0.0
 69
0
 70
0
 71
0
 72
0
 73
0
 74
0
 75
0
 76
0
 77
1
 78
8
 79
3
170
0
171
3
172
1
173
0
174
0
175
0
176
0
177
0
178
0
179
2
271
2
272
2
273
2
274
3
275
0
276
0
277
2
278
44
279
0
280
0
281
0
282
0
283
0
284
8
285
0
286
0
288
0
289
3
290
0
371
-2
372
-2
  0
ENDTAB
  0
TABLE
  2
BLOCK_RECORD
  5
9
330
0
100
AcDbSymbolTable
 70
2
  0
BLOCK_RECORD
  5
17
330
9
100
AcDbSymbolTableRecord
100
AcDbBlockTableRecord
  2
*Model_Space
340
1A
 70
0
280
1
281
0
  0
BLOCK_RECORD
  5
1B
330
9
100
AcDbSymbolTableRecord
100
AcDbBlockTableRecord
  2
*Paper_Space
340
1E
 70
0
280
1
281
0
  0
ENDTAB
  0
ENDSEC
  0
SECTION
  2
BLOCKS
  0
BLOCK
  5
18
330
17
100
AcDbEntity
  8
0
100
AcDbBlockBegin
  2
*Model_Space
 70
0
 10
0.0
 20
0.0
 30
0.0
  3
*Model_Space
  1

  0
ENDBLK
  5
19
330
17
100
AcDbEntity
  8
0
100
AcDbBlockEnd
  0
BLOCK
  5
1C
330
1B
100
AcDbEntity
  8
0
100
AcDbBlockBegin
  2
*Paper_Space
 70
0
 10
0.0
 20
0.0
 30
0.0
  3
*Paper_Space
  1

  0
ENDBLK
  5
1D
330
1B
100
AcDbEntity
  8
0
100
AcDbBlockEnd
  0
ENDSEC
  0
SECTION
  2
ENTITIES
  0
LWPOLYLINE
  5
30
330
17
100
AcDbEntity
  8
K
100
AcDbPolyline
 90
228
 70
1
 10
0.0
 20
63.672815934137425
 10
4.265474194341978
 20
67.99953465256647
 10
4.265474194341978
 20
70.85667750970937
 10
7.866426100292534
 20
74.50933259699288
 10
13.499826337188908
 20
71.6521897398501
 10
17.702960244446814
 20
75.91567307699454
 10
20.519660362895014
 20
75.91567307699454
 10
27.548715187626055
 20
83.04565246436724
 10
31.773765365298328
 20
84.47422389293868
 10
37.39548657896594
 20
90.17666289426485
 10
59.961586852709
 20
107.34424450556601
 10
64.17851219884189
 20
107.34424450556601
 10
67.6586735129899
 20
110.87437466578376
 10
70.46416576991734
 20
116.56592280763279
 10
73.28534903297381
 20
126.58183910833843
 10
77.49967727399473
 20
130.8566775097094
 10
77.49967727399473
 20
133.7001771652524
 10
81.72472745166701
 20
140.84303430810962
 10
81.72472745166701
 20
145.14239179542366
 10
83.88271755658977
 20
147.33136675008151
 10
88.18957021013213
 20
148.78759718266477
 10
91.78317786623566
 20
145.14239179542366
 10
91.78317786623566
 20
142.27416427053063
 10
94.57802245520853
 20
138.0217039880668
 10
99.47094270449216
 20
133.0585302198517
 10
100.79561373866827
 20
133.0585302198517
 10
105.68412511204036
 20
138.0172318086409
 10
109.90917528971264
 20
146.58866038006946
 10
114.06384904301272
 20
150.8029877627588
 10
109.25513408573819
 20
154.28710164842317
 10
103.61231385711642
 20
154.28710164842317
 10
100.01922646687103
 20
157.93177929972592
 10
101.45394878805561
 20
162.29774634581773
 10
106.42901397556462
 20
167.34424450556594
 10
124.73756474547778
 20
167.34424450556594
 10
126.791929346838
 20
169.42810608113788
 10
126.791929346838
 20
176.48895435856537
 10
121.90816915564027
 20
181.44283654676474
 10
113.45806880029572
 20
184.2999794039075
 10
108.48337857692478
 20
189.34609721570828
 10
108.48337857692478
 20
192.2852489382808
 10
109.85130461947915
 20
193.67281593413742
 10
108.48337857692478
 20
195.06038292999406
 10
108.48337857692478
 20
200.85667750970936
 10
109.89172863614886
 20
202.2852489382808
 10
109.89172863614886
 20
209.42471736666602
 10
121.13930970756829
 20
222.25992794565087
 10
118.36254351291578
 20
227.893199053956
 10
112.70842875459705
 20
232.19467229814106
 10
112.70842875459705
 20
235.12469463934937
 10
116.95092558583333
 20
243.731517522927
 10
119.74183734127888
 20
246.56250174263883
 10
118.33165564282453
 20
253.71464857684302
 10
135.20720002804208
 20
266.55303367457526
 10
132.42532958373434
 20
270.7857533120298
 10
132.42532958373434
 20
275.07146759774406
 10
129.61564014881137
 20
279.3465148669948
 10
128.18980069410432
 20
285.1317626280424
 10
133.83698703232375
 20
290.8600323872269
 10
135.24601439384773
 20
308.0111338557702
 10
140.87542993907888
 20
312.29381671299103
 10
140.87542993907888
 20
315.0751581684791
 10
135.24066036201802
 20
325.07758892096774
 10
136.6524835463693
 20
352.2873829298051
 10
138.05356588234255
 20
353.7085822837146
 10
136.6444435101378
 20
365.1434209283141
 10
144.4443579294706
 20
371.61679949482954
 10
151.56236515226797
 20
374.50488308747146
 10
153.74288102791868
 20
372.2930589326038
 10
157.96793120559096
 20
350.8644875040324
 10
159.38398070899208
 20
349.4281060811381
 10
159.38398070899208
 20
337.9995346525667
 10
160.83275478488594
 20
336.52995879128014
 10
159.40088350006963
 20
335.07752841469664
 10
162.20068082744024
 20
327.9775349835962
 10
162.20068082744024
 20
323.7027356991021
 10
165.01738094588845
 20
319.4170214133879
 10
165.01738094588845
 20
315.1423917954238
 10
167.83408106433663
 20
312.28524893828114
 10
167.83408106433663
 20
300.838980353635
 10
170.63333452922078
 20
295.1600889514984
 10
177.73295549557503
 20
287.95853021985164
 10
172.69901487329062
 20
282.85231128016386
 10
162.7678277354632
 20
284.291422864671
 10
158.54916763220757
 20
287.14424450556595
 10
151.5798948957837
 20
287.14424450556595
 10
148.11718023519936
 20
283.63181150142236
 10
148.11718023519936
 20
276.48895435856525
 10
146.7088301759752
 20
275.0603829299937
 10
146.7088301759752
 20
272.2852489382811
 10
148.76319477733549
 20
270.20138736270883
 10
157.14754632143683
 20
270.20138736270883
 10
162.82477909916201
 20
273.08076116842153
 10
164.2550454288005
 20
271.62995879128016
 10
168.46449308890203
 20
271.62995879128016
 10
174.87583136045706
 20
268.0169623815759
 10
174.87583136045706
 20
260.8566775097095
 10
176.94812617562235
 20
258.7546282747678
 10
179.73290393231193
 20
257.3422472008752
 10
196.66717542747523
 20
255.91079577400777
 10
200.20713853997975
 20
249.4473726856371
 10
204.4441473823064
 20
245.14952803039068
 10
207.26455931134893
 20
229.4145342358177
 10
212.90128295950757
 20
215.1203921264535
 10
212.90128295950757
 20
207.9995346525665
 10
215.71798307795572
 20
205.14239179542372
 10
215.71798307795572
 20
202.22093722892552
 10
211.47772746337486
 20
193.6186611383247
 10
205.10317343277526
 20
185.71567307699453
 10
197.97176782513063
 20
185.71567307699453
 10
196.5634177659065
 20
187.144244505566
 10
193.74671764745835
 20
187.144244505566
 10
191.56555335918847
 20
189.35672638308964
 10
192.97390341841256
 20
195.07101209737542
 10
190.93001752901014
 20
197.144244505566
 10
186.7228975651428
 20
197.144244505566
 10
181.08949732824638
 20
200.00138736270878
 10
178.33854602104134
 20
200.00138736270878
 10
174.87583136045706
 20
196.4889543585654
 10
174.87583136045706
 20
192.26519096510876
 10
180.528023591183
 20
179.36515902871054
 10
178.33854602104134
 20
177.14424450556598
 10
158.63905257011083
 20
177.14424450556598
 10
155.18624888715257
 20
170.83996100464148
 10
170.65875114699926
 20
157.99887594722117
 10
169.24935529023008
 20
149.4210824959108
 10
172.70514578414495
 20
145.9156730769945
 10
186.70496735133787
 20
145.9156730769945
 10
188.75933195269803
 20
147.99953465256655
 10
188.75933195269803
 20
153.6318115014226
 10
187.35428928283923
 20
155.05702805247645
 10
185.9392113149944
 20
172.28177930653177
 10
188.16604144556158
 20
174.5405827055694
 10
192.43063464948355
 20
168.7728159341374
 10
196.57154259744595
 20
168.7728159341374
 10
202.24811665920436
 20
173.0913755122504
 10
205.11208042812788
 20
170.18629038376898
 10
212.07279816088717
 20
167.36202594461415
 10
214.86218267595538
 20
170.19146099552862
 10
220.57818350867305
 20
171.64097907198783
 10
222.7532576007454
 20
169.43467483490593
 10
224.1637152523755
 20
160.85041914166365
 10
228.3931336109726
 20
153.70017716525254
 10
228.3931336109726
 20
117.91752578713688
 10
223.40574791621228
 20
112.8585302198517
 10
220.50536877271605
 20
112.8585302198517
 10
217.68866865426787
 20
115.71567307699459
 10
212.14753547862082
 20
115.71567307699459
 10
207.9145980589703
 20
109.99072004462585
 10
200.86350016546587
 20
111.4211878356054
 10
199.4219573968787
 20
109.95894711016952
 10
198.01360733765463
 20
111.38751853874096
 10
196.02905035625915
 20
109.37446689478014
 10
198.8457504747073
 20
105.0887526090658
 10
194.633156206264
 20
100.81567307699457
 10
198.81778236726663
 20
96.57096322399505
 10
198.81778236726663
 20
93.63181150142263
 10
197.44985632471227
 20
92.244244505566
 10
198.81778236726663
 20
90.85667750970939
 10
198.81778236726663
 20
87.91752578713685
 10
196.02221604207702
 20
85.08182016644584
 10
197.43056610130108
 20
82.22467730930293
 10
195.23874673173046
 20
80.0013873627089
 10
183.88826723288966
 20
80.0013873627089
 10
182.4799171736656
 20
81.42995879128023
 10
178.34859446219357
 20
81.42995879128023
 10
171.31541069232208
 20
71.44212412786388
 10
159.96493393538427
 20
68.56376183976931
 10
153.5616984265136
 20
73.61556417709947
 10
152.13640592850084
 20
79.39859269811944
 10
157.79307730333178
 20
90.87437466578375
 10
164.81738094588846
 20
97.9995346525665
 10
164.81738094588846
 20
99.34913380525789
 10
152.11362746690395
 20
113.66708546067916
 10
156.3672805905439
 20
119.42005601861317
 10
156.3672805905439
 20
127.99953465256652
 10
159.17806420832355
 20
130.85067605875133
 10
157.7706481432781
 20
140.84404422618567
 10
163.3811201659867
 20
147.95782959150216
 10
157.1236398211557
 20
155.71567307699453
 10
155.72126604840784
 20
155.71567307699453
 10
148.68564666314168
 20
162.85231128016386
 10
138.9016273076634
 20
161.43452553087712
 10
134.01006810013024
 20
157.89038754205055
 10
128.40465399587995
 20
147.94006647745206
 10
129.80215369195534
 20
139.43467483490602
 10
131.25740354117997
 20
137.95853021985172
 10
124.83102963039008
 20
131.4398851584605
 10
119.19762939349374
 20
130.01131372988905
 10
114.96279335595719
 20
125.7156730769946
 10
110.66218898477628
 20
125.7156730769946
 10
105.01817237385322
 20
130.0094639672311
 10
99.46007841540114
 20
131.41893851057273
 10
91.78317786623566
 20
123.63181150142255
 10
91.78317786623566
 20
106.57096322399507
 10
93.19152792545974
 20
105.14239179542362
 10
93.19152792545974
 20
102.2032400728512
 10
91.02084234914759
 20
100.00138736270891
 10
88.12046320565145
 20
100.00138736270891
 10
86.75395265895133
 20
101.38751853874106
 10
81.92472745166704
 20
96.48895435856542
 10
81.92472745166704
 20
86.56163480320845
 10
85.39749055340351
 20
81.62995879128022
 10
99.40519389324906
 20
81.62995879128022
 10
105.0578936361454
 20
84.49688995448967
 10
112.12376831476575
 20
81.62995879128022
 10
116.37114341518127
 20
81.62995879128022
 10
119.18784353362946
 20
78.77281593413743
 10
133.2713441258704
 20
78.77281593413743
 10
135.48245371885224
 20
76.52995879128032
 10
134.0336796429584
 20
75.06038292999406
 10
134.0336796429584
 20
65.06038292999405
 10
131.86299406664628
 20
62.85853021985177
 10
126.16384501850683
 20
62.85853021985177
 10
120.53044478161043
 20
65.71567307699455
 10
117.77949347440538
 20
65.71567307699455
 10
115.72512887304524
 20
63.63181150142261
 10
115.72512887304524
 20
60.848627447184555
 10
119.98142701605283
 20
55.09207955981032
 10
117.77949347440538
 20
52.858530219851765
 10
85.38744211225125
 20
52.858530219851765
 10
83.97909205302714
 20
51.42995879128031
 10
19.194989328718908
 20
51.42995879128031
 10
17.78441392065211
 20
49.999130061866296
 10
4.321458456918309
 20
50.717880548562746
 10
2.8571241351178776
 20
52.20324007285115
 10
2.8571241351178776
 20
60.774668644279714
 10
0.0
 20
63.672815934137425
  0
LWPOLYLINE
  5
31
330
17
100
AcDbEntity
  8
K
100
AcDbPolyline
 90
34
 70
1
 10
78.2532389315548
 20
448.5817157704798
 10
74.68297715554654
 20
452.203240072851
 10
74.68297715554654
 20
455.1423917954239
 10
79.65243263650173
 20
460.1831997033393
 10
82.54882572338876
 20
461.6521897398499
 10
83.93725254050317
 20
460.24382761524816
 10
87.33699389530489
 20
463.6923831304004
 10
83.13307751089108
 20
472.22093722892555
 10
83.13307751089108
 20
475.1423917954239
 10
85.30376308720317
 20
477.3442445055659
 10
99.37867564324284
 20
477.3442445055659
 10
103.6188292400597
 20
483.07895725589276
 10
114.89553699330654
 20
478.78947439637733
 10
118.3495284356704
 20
482.29305893260386
 10
119.75967256582685
 20
489.4450152282531
 10
124.79030250664144
 20
493.0899157445369
 10
126.99192934683798
 20
490.8566775097095
 10
126.99192934683798
 20
485.1246946393492
 10
131.23811331776878
 20
476.510391595017
 10
129.05206590456706
 20
474.2929564796857
 10
119.19361548999838
 20
472.86438505111437
 10
117.11603227870552
 20
470.75697148820507
 10
115.73661755459815
 20
467.9585302198516
 10
119.9579311237721
 20
459.394682167351
 10
118.52950848424202
 20
455.047885522457
 10
113.55444329673323
 20
450.0013873627088
 10
107.92104305983682
 20
450.0013873627088
 10
105.10434294138868
 20
447.1442445055659
 10
102.28764282294048
 20
447.1442445055659
 10
100.8792927637164
 20
445.71567307699456
 10
95.16221350177179
 20
445.71567307699456
 10
93.7757797129621
 20
447.1220135569961
 10
90.99213050368249
 20
445.7102048587621
 10
78.2532389315548
 20
448.5817157704798
  0
LWPOLYLINE
  5
32
330
17
100
AcDbEntity
  8
K
100
AcDbPolyline
 90
16
 70
1
 10
87.35812768856341
 20
407.99953465256675
 10
87.35812768856341
 20
417.9995346525666
 10
88.76647774778748
 20
419.42810608113814
 10
88.76647774778748
 20
429.42810608113814
 10
92.32758316951859
 20
433.0403425604822
 10
100.84667855218952
 20
437.36104968199965
 10
105.86667845847656
 20
433.7238510676237
 10
105.86667845847656
 20
423.63181150142225
 10
100.28430366818239
 20
417.9692838672165
 10
105.9104666191489
 20
413.6890754817394
 10
98.06756030235644
 20
404.2871016484232
 10
93.83754246759592
 20
404.2871016484232
 10
92.42306149751742
 20
402.85231128016375
 10
87.3917013625319
 20
403.5813971946266
 10
85.92864383608078
 20
406.54952598754346
 10
87.35812768856341
 20
407.99953465256675
  0
LWPOLYLINE
  5
33
330
17
100
AcDbEntity
  8
K
100
AcDbPolyline
 90
7
 70
1
 10
63.616176681753814
 20
282.2707736589868
 10
63.616176681753814
 20
279.34609721570814
 10
61.44865311002659
 20
277.1474519108393
 10
52.22496663484799
 20
276.42775021898325
 10
45.06430831316388
 20
280.7858337030381
 10
55.779093970721256
 20
296.0019166468776
 10
63.616176681753814
 20
282.2707736589868
  0
LWPOLYLINE
  5
34
330
17
100
AcDbEntity
  8
K
100
AcDbPolyline
 90
9
 70
1
 10
44.46161136970447
 20
411.4299587912803
 10
40.84215171749858
 20
415.10138736270886
 10
48.686661547376744
 20
423.0585302198516
 10
52.995390750097265
 20
423.0585302198516
 10
57.98277644485747
 20
417.9995346525666
 10
57.98277644485747
 20
407.9175257871367
 10
55.783099844666815
 20
405.68626579424784
 10
47.289512953504335
 20
411.4299587912803
 10
44.46161136970447
 20
411.4299587912803
  0
LWPOLYLINE
  5
35
330
17
100
AcDbEntity
  8
K
100
AcDbPolyline
 90
12
 70
1
 10
23.982375023479246
 20
387.99953465256675
 10
25.39072508270332
 20
389.4281060811381
 10
25.39072508270332
 20
398.0044832251804
 10
34.65069126619921
 20
405.9523408213811
 10
45.307625911840645
 20
395.14239179542386
 10
45.307625911840645
 20
392.2032400728509
 10
43.89927585261652
 20
390.77466864427936
 10
43.89927585261652
 20
386.4982827793523
 10
40.32649220722204
 20
381.42456744559104
 10
26.14897385523082
 20
382.8626756427006
 10
23.982375023479246
 20
385.0603829299938
 10
23.982375023479246
 20
387.99953465256675
  0
LWPOLYLINE
  5
36
330
17
100
AcDbEntity
  8
K
100
AcDbPolyline
 90
9
 70
1
 10
976.2834344637238
 20
190.73307532109519
 10
970.8811996157541
 20
199.3583705047002
 10
970.8811996157541
 20
206.56956463521703
 10
972.9358865427299
 20
208.75659546644442
 10
979.7300781860142
 20
211.64931968677138
 10
983.160317554849
 20
207.99813606378848
 10
983.160317554849
 20
196.49731619825394
 10
978.3996648362418
 20
189.98222920922737
 10
976.2834344637238
 20
190.73307532109519
  0
LWPOLYLINE
  5
37
330
17
100
AcDbEntity
  8
K
100
AcDbPolyline
 90
105
 70
1
 10
928.6733691668517
 20
232.82879537766544
 10
923.360743297469
 20
230.0013873627088
 10
920.6082810577193
 20
230.0013873627088
 10
918.5383552130098
 20
232.2046386616291
 10
918.5383552130098
 20
247.9981360637885
 10
920.6082810577193
 20
250.2013873627088
 10
923.360743297469
 20
250.2013873627088
 10
928.7658544555014
 20
247.32475818051347
 10
931.4046200106549
 20
244.51602778478565
 10
934.6438457984694
 20
246.58474781436735
 10
934.6438457984694
 20
260.8552789209314
 10
937.3280942293794
 20
263.7124217780743
 10
937.3280942293794
 20
266.49035294734335
 10
931.9595973675595
 20
272.20463866162913
 10
931.9595973675595
 20
277.980847580657
 10
934.6438457984694
 20
283.69513329494276
 10
934.6438457984694
 20
286.49035294734335
 10
931.9595973675595
 20
289.34749580448624
 10
931.9595973675595
 20
292.20463866162936
 10
930.6174731521045
 20
293.6332100902007
 10
930.6174731521045
 20
299.41583279214603
 10
935.9679749908515
 20
307.95853021985164
 10
933.3017215830145
 20
312.21551336184325
 10
933.3017215830145
 20
320.76608211335457
 10
928.6615776793695
 20
324.2939528301495
 10
921.9422216961572
 20
325.7243837642584
 10
920.6515415361923
 20
327.0981975876867
 10
918.7383552130099
 20
325.06178151877185
 10
918.7383552130099
 20
299.35445905539683
 10
913.9834486826851
 20
292.8472358864657
 10
907.1788553261523
 20
294.295812335687
 10
903.7555968287357
 20
297.9395654441622
 10
909.119420007524
 20
309.3581874359105
 10
898.3593931401111
 20
317.94800355153507
 10
901.8084810770328
 20
321.6192497928124
 10
907.1682271322613
 20
323.0454926082552
 10
910.458188940361
 20
327.9481115614261
 10
907.8013614893699
 20
330.77606723305763
 10
907.8013614893699
 20
335.06178151877185
 10
904.5027904722597
 20
338.57281593413734
 10
897.7921693949847
 20
338.57281593413734
 10
895.7028515360058
 20
340.79670830130516
 10
898.4227342854866
 20
346.5868531183486
 10
904.5255284085395
 20
353.0827327234202
 10
909.9193431730349
 20
350.21211554252363
 10
916.5666694936209
 20
353.04230975215876
 10
919.8804794284648
 20
356.56956463521703
 10
919.8804794284648
 20
362.2665618663713
 10
921.2388459482212
 20
365.158281689777
 10
928.7042868289222
 20
373.1045771377307
 10
930.8174731521045
 20
370.8552789209313
 10
930.8174731521045
 20
367.98367549456947
 10
936.1813934418828
 20
357.9922003613235
 10
937.5228820190159
 20
350.85272611974835
 10
940.2123426602894
 20
346.55868993500314
 10
940.2123426602894
 20
342.26656186637126
 10
942.8965910911994
 20
336.5522761520855
 10
942.8965910911994
 20
329.4267074923597
 10
944.2327356236299
 20
328.00450090261813
 10
945.57646579407
 20
319.42281595679077
 10
950.9493363839293
 20
310.84440422071737
 10
950.9493363839293
 20
307.99813606378837
 10
954.9594667259928
 20
303.72971026120564
 10
957.6599574612043
 20
297.98084758065704
 10
957.6599574612043
 20
295.061781518772
 10
955.5900316164948
 20
292.85853021985173
 10
947.5546336521844
 20
292.85853021985173
 10
944.2602338498841
 20
286.5466600667067
 10
946.2003959791142
 20
284.48153066013015
 10
956.931892688004
 20
283.05369061675054
 10
964.3553013470569
 20
276.58878124416265
 10
969.7369713339962
 20
262.2680129188263
 10
971.0766693886285
 20
250.86010094333565
 10
972.4233238312091
 20
249.42670749235984
 10
972.4233238312091
 20
242.26241394190308
 10
975.1075722621191
 20
235.11955679904594
 10
975.1075722621191
 20
230.85527892093117
 10
976.4496964775741
 20
229.42670749235984
 10
976.4496964775741
 20
223.71242177807403
 10
977.8290298665838
 20
222.244244505566
 10
975.7218948483194
 20
220.0013873627088
 10
972.9511254604636
 20
220.0013873627088
 10
971.6090012450086
 20
221.42995879128037
 10
967.5826285986436
 20
221.42995879128037
 10
964.9416406462067
 20
224.2410547305439
 10
961.6863301075692
 20
220.77606723305755
 10
961.6863301075692
 20
210.76948283803475
 10
954.9870173581133
 20
205.06482648820946
 10
956.3090584701554
 20
199.43604745773814
 10
959.0020816766593
 20
196.56956463521703
 10
959.0020816766593
 20
193.63321009020063
 10
956.9170370948044
 20
191.4138662450965
 10
952.8062392244561
 20
192.87239204536323
 10
950.1713291044006
 20
195.67701867456765
 10
942.8752495177678
 20
189.32299783735462
 10
940.8378089886719
 20
185.70854187050855
 10
934.6769475214542
 20
186.43717377159862
 10
930.592583755931
 20
195.13205508307374
 10
940.0123426602894
 20
202.293835469206
 10
940.0123426602894
 20
207.9919200373629
 10
945.3868713886443
 20
215.14280265961804
 10
946.7132792617924
 20
222.20201658479567
 10
942.0852964607967
 20
225.72064129568835
 10
932.6734730152949
 20
227.151790717539
 10
928.6733691668517
 20
232.82879537766544
  0
LWPOLYLINE
  5
38
330
17
100
AcDbEntity
  8
K
100
AcDbPolyline
 90
7
 70
1
 10
952.8983457775158
 20
245.9235895340165
 10
960.8739928774212
 20
247.3384836051823
 10
965.4638198658164
 20
250.82809870414414
 10
962.2215691448927
 20
254.27918519140113
 10
954.2459220449874
 20
252.86429112023535
 10
949.6560950565921
 20
249.3746760212735
 10
952.8983457775158
 20
245.9235895340165
  0
LWPOLYLINE
  5
39
330
17
100
AcDbEntity
  8
K
100
AcDbPolyline
 90
49
 70
1
 10
835.326653854801
 20
95.14099320664559
 10
838.7234649972319
 20
98.75659546644444
 10
845.472183368841
 20
101.62995879128023
 10
848.2200943800963
 20
101.62995879128023
 10
850.9112346310993
 20
98.7654802068163
 10
858.9533943742961
 20
97.33878667367912
 10
862.9720756779047
 20
94.4871016484231
 10
867.0098333964661
 20
94.4871016484231
 10
869.1169684147303
 20
92.244244505566
 10
867.7316553426961
 20
90.7697023942281
 10
866.4048007737716
 20
82.2957928773257
 10
872.3672640255392
 20
78.76995403365727
 10
885.8037894588693
 20
77.33975583647911
 10
887.8694982575454
 20
75.14099320664569
 10
887.8694982575454
 20
65.14099320664567
 10
889.7826845807276
 20
63.104577137730985
 10
891.6958709039103
 20
65.14099320664567
 10
891.6958709039103
 20
75.14099320664569
 10
893.7905680580363
 20
77.37061135333856
 10
908.5458374076737
 20
68.80388381214797
 10
913.8703427470734
 20
75.88820964387044
 10
917.9408131653706
 20
78.77664459569955
 10
930.0080658995794
 20
77.34947643951773
 10
936.7137716431791
 20
84.4871016484231
 10
939.484541031035
 20
84.4871016484231
 10
941.5382245714429
 20
82.30113883263445
 10
942.8965910911994
 20
79.40941900922837
 10
942.8965910911994
 20
73.70450813312823
 10
946.9516709865428
 20
67.94948068002671
 10
944.8530378928549
 20
65.71567307699455
 10
935.3716474277242
 20
65.71567307699455
 10
934.0295232122692
 20
67.144244505566
 10
931.4177433884264
 20
67.144244505566
 10
924.7186441276317
 20
62.86588858697129
 10
919.368568527117
 20
61.44221910549164
 10
913.9908569411256
 20
54.287101648423096
 10
860.2992123191912
 20
54.287101648423096
 10
858.9558441950188
 20
52.8572061900543
 10
835.3821657221184
 20
53.57412266246242
 10
833.984529639346
 20
55.06178151877206
 10
833.984529639346
 20
62.204638661629176
 10
832.642405423891
 20
63.63321009020062
 10
832.642405423891
 20
66.48376855232053
 10
825.931784346616
 20
72.19805426660619
 10
825.931784346616
 20
73.71633394887655
 10
836.6687780702559
 20
83.71633394887657
 10
836.6687780702559
 20
90.77606723305776
 10
835.326653854801
 20
92.2046386616292
 10
835.326653854801
 20
95.14099320664559
  0
LWPOLYLINE
  5
3A
330
17
100
AcDbEntity
  8
K
100
AcDbPolyline
 90
13
 70
1
 10
917.9354176990057
 20
378.5728159341374
 10
911.2229741126162
 20
378.5728159341374
 10
906.4219429975692
 20
382.22300813354127
 10
914.5342868651258
 20
393.7361627129127
 10
922.0067457536039
 20
401.68992820371375
 10
925.4421623166395
 20
396.57055620598726
 10
928.1244499456009
 20
385.150333172024
 10
929.4753489366495
 20
383.7124217780742
 10
929.4753489366495
 20
377.99813606378865
 10
930.8546823256595
 20
376.52995879128014
 10
928.7385828659155
 20
374.2775598006395
 10
921.9526406728537
 20
375.7221657501205
 10
917.9354176990057
 20
378.5728159341374
  0
LWPOLYLINE
  5
3B
330
17
100
AcDbEntity
  8
K
100
AcDbPolyline
 90
36
 70
1
 10
819.1964084549805
 20
146.50899280804663
 10
824.5717760542846
 20
156.52179105988685
 10
819.9825874510412
 20
162.80222459000294
 10
818.6501011616137
 20
161.38391187340108
 10
816.5531571427327
 20
163.61592160706905
 10
812.498099753649
 20
172.24841487491292
 10
814.5653044893315
 20
175.91567307699452
 10
825.3975302784836
 20
175.91567307699452
 10
832.0769316076351
 20
170.2279718708567
 10
836.1109220871016
 20
173.09052039690908
 10
838.2037874419063
 20
170.86285203708618
 10
840.8880358728163
 20
156.57713775137194
 10
843.5836090894865
 20
153.7079406706443
 10
842.2414848740315
 20
140.85079781350152
 10
844.1937217337313
 20
138.77281593413738
 10
856.2728396728262
 20
138.77281593413738
 10
861.0270139484456
 20
133.71242177807417
 10
861.0270139484456
 20
127.93621285904655
 10
859.7042817472599
 20
125.12035213839823
 10
861.0270139484456
 20
123.71242177807417
 10
861.0270139484456
 20
120.77606723305779
 10
859.6848897329907
 20
119.34749580448634
 10
859.6848897329907
 20
116.49035294734344
 10
857.0006413020807
 20
113.63321009020066
 10
857.0006413020807
 20
110.78303048396832
 10
852.2481536159378
 20
104.27911757125385
 10
847.4565611500532
 20
105.00772078262976
 10
842.0372749320759
 20
110.77606723305777
 10
842.0372749320759
 20
113.64408479041465
 10
839.3530265011659
 20
117.92979907612889
 10
839.3530265011659
 20
122.28385034950273
 10
840.6951507166209
 20
123.71242177807417
 10
840.6951507166209
 20
133.63321009020058
 10
837.3965796995105
 20
137.14424450556606
 10
829.3480147948422
 20
137.14424450556606
 10
819.1964084549805
 20
146.50899280804663
  0
LWPOLYLINE
  5
3C
330
17
100
AcDbEntity
  8
K
100
AcDbPolyline
 90
8
 70
1
 10
847.4597863912129
 20
196.43580178529717
 10
835.326653854801
 20
207.91547874050863
 10
835.326653854801
 20
209.42670749235992
 10
841.4569122791187
 20
215.95182039464876
 10
858.3767661620733
 20
202.2644680159461
 10
854.9565392211045
 20
197.16773121381738
 10
852.2209348079947
 20
195.71182785575226
 10
847.4597863912129
 20
196.43580178529717
  0
LWPOLYLINE
  5
3D
330
17
100
AcDbEntity
  8
K
100
AcDbPolyline
 90
17
 70
1
 10
829.958156992981
 20
385.1330795616995
 10
833.9743432537172
 20
390.8329086116394
 10
832.635338730641
 20
395.10866099513896
 10
834.0044587902077
 20
398.02327318506667
 10
838.7392552438859
 20
401.62310760955387
 10
845.5166093673367
 20
403.06588531233
 10
850.2900202248057
 20
399.43669261206304
 10
850.2900202248057
 20
396.50122764755736
 10
847.6057717938958
 20
392.21551336184314
 10
847.6057717938958
 20
386.56956463521686
 10
851.6693536138155
 20
382.2442445055659
 10
847.6057717938958
 20
377.918924375915
 10
847.6057717938958
 20
375.06178151877214
 10
842.8426330767967
 20
369.9918455149253
 10
839.3979910231702
 20
370.7251483139956
 10
829.958156992981
 20
382.20841770841184
 10
829.958156992981
 20
385.1330795616995
  0
LWPOLYLINE
  5
3E
330
17
100
AcDbEntity
  8
K
100
AcDbPolyline
 90
17
 70
1
 10
836.6801993585348
 20
303.6210531482985
 10
833.984529639346
 20
306.49035294734364
 10
833.984529639346
 20
309.4267074923597
 10
836.0544554840556
 20
311.6299587912802
 10
840.0991352785268
 20
311.6299587912802
 10
845.5047478223718
 20
314.50685481369743
 10
851.6321444402607
 20
309.43413621885895
 10
851.6321444402607
 20
306.49035294734364
 10
843.6166083210857
 20
297.95853021985164
 10
847.6057717938958
 20
293.7124217780741
 10
847.6057717938958
 20
283.6332100902007
 10
845.533542980933
 20
281.4275074871387
 10
832.6968970792026
 20
282.1466371585065
 10
831.300281208436
 20
283.6332100902007
 10
831.300281208436
 20
290.85016207083294
 10
837.9997669150788
 20
299.4073675125556
 10
836.6801993585348
 20
303.6210531482985
  0
LWPOLYLINE
  5
3F
330
17
100
AcDbEntity
  8
K
100
AcDbPolyline
 90
32
 70
1
 10
791.0365547447866
 20
319.4267074923599
 10
791.0365547447866
 20
322.2838503495026
 10
793.7208031756966
 20
325.1409932066455
 10
793.7208031756966
 20
329.3647842876176
 10
791.0171627305173
 20
335.1203521383982
 10
793.7208031756966
 20
337.99813606378837
 10
793.7208031756966
 20
349.4267074923597
 10
796.4050516066065
 20
352.2838503495026
 10
796.4050516066065
 20
355.1409932066455
 10
797.7471758220615
 20
356.5695646352168
 10
797.7471758220615
 20
367.9981360637884
 10
801.159225882226
 20
371.6299587912803
 10
806.6028586287956
 20
371.6299587912803
 10
810.6096272096046
 20
368.7867271194135
 10
817.3173409825663
 20
371.6426321501828
 10
834.2399563554667
 20
360.8350640249477
 10
832.8424054238911
 20
359.3474958044863
 10
832.8424054238911
 20
353.6504985733321
 10
831.5196732227054
 20
350.834637852684
 10
834.2217388129008
 20
347.9585302198517
 10
831.4931663646315
 20
345.05420840261723
 10
827.4667937182666
 20
323.6256369740459
 10
825.4039827173616
 20
321.4299587912802
 10
815.9908060610704
 20
321.4299587912802
 10
813.343171926373
 20
320.0208736877613
 10
810.0262937611565
 20
316.49035294734364
 10
810.0262937611565
 20
313.6423725328471
 10
806.621316307527
 20
308.56836013605107
 10
797.8068868260247
 20
309.2900657823591
 10
791.0552449593738
 20
315.039281871646
 10
789.6750385150623
 20
317.97749499554106
 10
791.0365547447866
 20
319.4267074923599
  0
LWPOLYLINE
  5
40
330
17
100
AcDbEntity
  8
K
100
AcDbPolyline
 90
31
 70
1
 10
774.3167415731265
 20
100.00138736270891
 10
770.874995560074
 20
103.66481878137202
 10
775.6439297503194
 20
110.19123919699148
 10
782.361303288839
 20
111.62124810401619
 10
784.3259336675117
 20
113.71242177807429
 10
784.3259336675117
 20
116.56040219257069
 10
787.7200611229475
 20
121.61824619292683
 10
799.9002506317613
 20
124.49929608657185
 10
805.9999211147915
 20
116.56395136880072
 10
805.9999211147915
 20
113.69513329494264
 10
808.6679272413998
 20
108.01542454692003
 10
811.3760778052599
 20
105.1328400027699
 10
810.0177139964534
 20
97.90355487207636
 10
804.6577968993365
 20
93.62468988163086
 10
804.6577968993365
 20
92.26656186637116
 10
808.6679272413998
 20
83.7297102612058
 10
812.7105421920663
 20
79.42670749235991
 10
812.7105421920663
 20
75.07201910648165
 10
803.9015774465842
 20
61.368113192043936
 10
802.5025263759412
 20
62.857278176639
 10
777.6732283900241
 20
62.14299246235322
 10
776.235979201227
 20
63.672815934137425
 10
777.6153125902367
 20
65.14099320664567
 10
777.6153125902367
 20
67.99813606378846
 10
780.2708537721684
 20
70.82472261681949
 10
776.2681313067145
 20
76.505443655704
 10
777.6212922732612
 20
85.14735804547536
 10
778.9574368056917
 20
86.56956463521715
 10
778.9574368056917
 20
97.91892437591487
 10
777.0009900040363
 20
100.00138736270891
 10
774.3167415731265
 20
100.00138736270891
  0
LWPOLYLINE
  5
41
330
17
100
AcDbEntity
  8
K
100
AcDbPolyline
 90
13
 70
1
 10
777.0191793127065
 20
291.64931968677143
 10
783.7752736616569
 20
288.7728159341375
 10
789.1696120461594
 20
288.7728159341375
 10
802.0076263589204
 20
273.66948296281936
 10
799.9105144438098
 20
271.4372945186011
 10
791.8406461590599
 20
270.0056854405971
 10
783.7696878899307
 20
265.71027811104466
 10
780.3301649433187
 20
266.4424911436184
 10
777.6182506835054
 20
272.2156724687036
 10
776.2783438365559
 20
282.19915113275005
 10
774.9310641593268
 20
283.6332100902007
 10
774.9310641593268
 20
289.42670749235987
 10
777.0191793127065
 20
291.64931968677143
  0
LWPOLYLINE
  5
42
330
17
100
AcDbEntity
  8
K
100
AcDbPolyline
 90
32
 70
1
 10
721.2460955411276
 20
95.06178151877198
 10
721.2460955411276
 20
100.87271496926797
 10
733.3252134802224
 20
108.01557211212508
 10
733.3252134802224
 20
117.99813606378851
 10
736.7242405362043
 20
121.61609696576869
 10
740.8224087793734
 20
123.0701417291007
 10
744.8651447178665
 20
120.2013873627088
 10
750.2525473029375
 20
120.2013873627088
 10
754.9949325222283
 20
113.71129995969554
 10
756.3473138426248
 20
103.63487555110962
 10
745.6459814355986
 20
93.66808905344715
 10
748.2885798502273
 20
90.85527892093137
 10
748.2885798502273
 20
79.4366926120631
 10
752.9197125197105
 20
75.91567307699454
 10
756.9556477291576
 20
75.91567307699454
 10
759.0093312695655
 20
73.72971026120578
 10
763.051946220232
 20
65.12370472351414
 10
763.051946220232
 20
62.204638661629176
 10
759.0255735738672
 20
57.91892437591495
 10
759.0255735738672
 20
53.63321009020061
 10
756.9543279408407
 20
51.428553994422145
 10
734.7128704474411
 20
52.1459493343136
 10
731.3587039547763
 20
57.144244505565986
 10
730.0266424631121
 20
57.144244505565986
 10
723.9303439720376
 20
63.63321009020062
 10
723.9303439720376
 20
67.97669965618857
 10
726.6145924029476
 20
75.11955679904581
 10
726.6145924029476
 20
79.43123210569492
 10
735.9671015929734
 20
87.96401315348878
 10
732.7049407286522
 20
91.43629221120109
 10
723.3100712204674
 20
92.86486363977254
 10
721.2460955411276
 20
95.06178151877198
  0
LWPOLYLINE
  5
43
330
17
100
AcDbEntity
  8
K
100
AcDbPolyline
 90
5
 70
1
 10
715.8289233677074
 20
179.34501031553663
 10
719.3329092179451
 20
184.5665625532329
 10
722.8156407365016
 20
179.37668298999765
 10
720.6987962808158
 20
177.12349101767532
 10
715.8289233677074
 20
179.34501031553663
  0
LWPOLYLINE
  5
44
330
17
100
AcDbEntity
  8
K
100
AcDbPolyline
 90
218
 70
1
 10
1537.184825281795
 20
220.83003497744912
 10
1542.9293074881182
 20
224.487101648423
 10
1546.6529559120208
 20
224.487101648423
 10
1548.4458960370719
 20
226.54166851972178
 10
1540.988449959211
 20
239.36012919388904
 10
1540.988449959211
 20
242.2817423559914
 10
1543.4817667468687
 20
245.13888521313433
 10
1543.4817667468687
 20
247.93766362185522
 10
1539.7248141084926
 20
256.54800182556517
 10
1542.9067597658848
 20
260.19425863169465
 10
1551.6510332159098
 20
261.6257218223167
 10
1556.6450616653176
 20
264.48710164842305
 10
1562.950428670637
 20
264.48710164842305
 10
1567.9370622459523
 20
258.77281593413727
 10
1577.8247950146792
 20
258.77281593413727
 10
1585.3082319542766
 20
265.9190025267281
 10
1602.75588647171
 20
264.49088643754493
 10
1604.5720248124494
 20
266.5720366201102
 10
1605.8186832062781
 20
278.00060804868156
 10
1607.061344832142
 20
279.4245994988486
 10
1607.061344832142
 20
283.635318083712
 10
1605.2459004219784
 20
285.7156730769944
 10
1594.116888516359
 20
285.7156730769944
 10
1592.87023012253
 20
284.28710164842306
 10
1590.2859996960317
 20
284.28710164842306
 10
1588.3614689247088
 20
286.4924609408549
 10
1588.3614689247088
 20
295.06388951228337
 10
1583.3386237530735
 20
300.8196708376695
 10
1594.5585492975333
 20
312.24824226624105
 10
1591.5326580898607
 20
315.7156730769947
 10
1589.0393413022027
 20
315.7156730769947
 10
1586.5652483424733
 20
318.55078695533933
 10
1580.3800159431491
 20
315.7156730769947
 10
1576.6539217585262
 20
315.7156730769947
 10
1572.3981148747544
 20
312.23223278013535
 10
1574.8362733680826
 20
309.438296944032
 10
1577.356853810408
 20
302.217334848187
 10
1568.6149346234465
 20
293.6308681030345
 10
1568.6149346234465
 20
286.4924609408549
 10
1566.6904038521234
 20
284.28710164842306
 10
1561.6953810831017
 20
284.28710164842306
 10
1556.7166343122128
 20
280.0081656009511
 10
1549.2336771138573
 20
278.57901990665476
 10
1545.485580986236
 20
275.7156730769946
 10
1534.18303693464
 20
275.7156730769946
 10
1523.5055974950737
 20
289.3906402010745
 10
1526.7064216107588
 20
293.0585302198517
 10
1534.1863719737319
 20
293.0585302198517
 10
1535.4330303675608
 20
294.48710164842305
 10
1537.9263471552185
 20
294.48710164842305
 10
1541.0011535844183
 20
298.01058541501556
 10
1544.7205803244535
 20
307.95564269359534
 10
1542.223180561762
 20
313.6792859375871
 10
1544.7284251406977
 20
317.98550267438577
 10
1544.7284251406977
 20
320.85317092741997
 10
1547.8996143058496
 20
324.4871016484231
 10
1550.3929310935073
 20
324.4871016484231
 10
1551.6395894873363
 20
325.91567307699444
 10
1562.8595150317963
 20
325.91567307699444
 10
1564.6812506079564
 20
328.00323724645506
 10
1568.421225789443
 20
349.43180867502645
 10
1572.1324055198206
 20
353.684525662579
 10
1569.639088732163
 20
357.9702399482932
 10
1570.9082514111044
 20
359.4245994988484
 10
1570.9082514111044
 20
365.1388852131342
 10
1572.110264056757
 20
366.51629616296697
 10
1560.377126367784
 20
375.7156730769945
 10
1557.884511627277
 20
375.7156730769945
 10
1554.1445364457904
 20
378.5728159341374
 10
1547.978897773894
 20
378.5728159341374
 10
1544.1913525115806
 20
375.67933205598445
 10
1540.4275097471107
 20
379.9923966946807
 10
1533.0378258205837
 20
378.5810649596645
 10
1529.968524414751
 20
375.0638895122834
 10
1529.968524414751
 20
363.63531808371187
 10
1528.7218660209223
 20
362.20674665514053
 10
1528.7218660209223
 20
359.34960379799764
 10
1526.2285492332646
 20
356.49246094085476
 10
1526.2285492332646
 20
343.63531808371204
 10
1523.7488084390961
 20
340.79373223601937
 10
1526.2322725611866
 20
333.67910102216325
 10
1524.9741193908621
 20
327.9121269070754
 10
1519.3173848866259
 20
321.4299587912802
 10
1515.5774097051394
 20
321.4299587912802
 10
1514.3307513113102
 20
320.0013873627089
 10
1504.3338539195872
 20
320.0013873627089
 10
1498.0525023806224
 20
317.122215526768
 10
1494.8666401090577
 20
320.772960461427
 10
1493.619981715229
 20
330.77296046142703
 10
1492.3687725998846
 20
332.2067466551405
 10
1492.3687725998846
 20
337.9910466003596
 10
1498.614772455789
 20
346.57994984555563
 10
1501.1098947999953
 20
352.2983736084203
 10
1509.8172224278785
 20
362.2762789672417
 10
1508.5798824411756
 20
372.20153188999814
 10
1505.5132289156677
 20
375.7156730769945
 10
1485.657608253246
 20
375.7156730769945
 10
1484.3567263650295
 20
374.2249658338145
 10
1479.337745170209
 20
381.4141577276707
 10
1474.35866875094
 20
379.9877512741362
 10
1473.1318240633343
 20
381.3936177702703
 10
1469.4394189626742
 20
378.5728159341374
 10
1465.6994437811875
 20
378.5728159341374
 10
1461.9594685997008
 20
375.7156730769945
 10
1456.8984874717448
 20
375.7156730769945
 10
1448.7357288158735
 20
383.6304883556182
 10
1448.7357288158735
 20
385.13888521313424
 10
1450.6602595871966
 20
387.3442445055658
 10
1454.4911484075237
 20
387.3442445055658
 10
1455.6923499819325
 20
385.9677629789108
 10
1459.3868683439987
 20
390.20138736270894
 10
1461.8801851316566
 20
390.20138736270894
 10
1464.4189587387345
 20
393.1106201217679
 10
1465.7165498349943
 20
391.6236838646011
 10
1475.5992699590815
 20
390.2080823979398
 10
1477.408871873938
 20
392.28174235599135
 10
1477.408871873938
 20
395.0638895122834
 10
1476.1685046461055
 20
396.4852517646768
 10
1474.9088415612819
 20
403.7026206185396
 10
1476.840085857603
 20
405.9156730769945
 10
1506.8658628764983
 20
405.9156730769945
 10
1508.7995954473574
 20
402.2225000381706
 10
1502.5208272900536
 20
396.4665246463236
 10
1500.0712272479705
 20
392.2559542340075
 10
1501.8187105536012
 20
390.25347726462525
 10
1503.06536894743
 20
391.6820486931966
 10
1504.3574841606792
 20
390.20138736270894
 10
1508.025384305991
 20
390.20138736270894
 10
1513.0120178813067
 20
393.0585302198516
 10
1517.988202047663
 20
393.0585302198516
 10
1522.9748356229784
 20
397.34424450556605
 10
1540.510577581717
 20
397.34424450556605
 10
1541.7572359755459
 20
395.9156730769945
 10
1544.152950473306
 20
395.9156730769945
 10
1549.1395840486216
 20
403.0585302198516
 10
1550.3929310935073
 20
403.0585302198516
 10
1555.9156277781694
 20
409.3871016484231
 10
1554.7016922913288
 20
410.77817522656903
 10
1554.7016922913288
 20
416.4924609408548
 10
1553.4347138073028
 20
417.94431757764795
 10
1555.3645027406615
 20
421.6299587912803
 10
1585.3902797595567
 20
421.6299587912803
 10
1587.3148105308799
 20
419.42459949884847
 10
1587.3148105308799
 20
412.2067466551406
 10
1585.3902797595567
 20
410.0013873627087
 10
1577.8914907939177
 20
410.0013873627087
 10
1575.4358512115916
 20
408.5944034754044
 10
1571.1166777047556
 20
403.64497394647145
 10
1572.3633360985846
 20
397.9306882321859
 10
1567.3682762296178
 20
392.20674665514053
 10
1567.3682762296178
 20
389.42779323496137
 10
1579.1536858822562
 20
377.34424450556605
 10
1582.8060493330584
 20
377.34424450556605
 10
1593.3085972582994
 20
389.37932963190957
 10
1587.1148105308798
 20
395.0573994526442
 10
1587.1148105308798
 20
396.5674566417056
 10
1590.8547857123665
 20
400.85317092742
 10
1590.8547857123665
 20
403.7103137845627
 10
1594.0234879995446
 20
407.34139474107747
 10
1616.554179778264
 20
408.77574929242854
 10
1617.8033979991078
 20
407.3442445055658
 10
1626.4579317197351
 20
407.3442445055658
 10
1628.9727795274296
 20
408.785152352921
 10
1635.23298527162
 20
405.9156730769945
 10
1640.2288531962554
 20
405.9156730769945
 10
1643.4144382531797
 20
403.7254167157652
 10
1643.4144382531797
 20
372.19479743948733
 10
1635.9344878902061
 20
366.4805117252018
 10
1635.9344878902061
 20
362.2817423559913
 10
1637.181146284035
 20
360.85317092741997
 10
1637.181146284035
 20
357.9960280702771
 10
1639.6691810764526
 20
355.1449379598396
 10
1640.9181473322988
 20
346.5576416298258
 10
1643.4144382531797
 20
340.8365396749907
 10
1643.4144382531797
 20
313.5769700606653
 10
1626.5316735135696
 20
312.86044019164694
 10
1624.7472852527346
 20
310.8156730769945
 10
1626.5300067559099
 20
308.7728159341373
 10
1637.7599788582013
 20
308.7728159341373
 10
1640.921121465522
 20
303.7014305041453
 10
1640.921121465522
 20
295.05547398676845
 10
1635.9760820124015
 20
290.80550736949675
 10
1637.181146284035
 20
289.4245994988486
 10
1637.181146284035
 20
285.13888521313436
 10
1639.6625098471845
 20
282.29543980117467
 10
1642.1813558528404
 20
275.07944652173353
 10
1639.6914405285822
 20
272.2262014712812
 10
1643.4144382531797
 20
263.69368253213355
 10
1643.4144382531797
 20
259.34960379799776
 10
1642.1677798593507
 20
257.9210323694262
 10
1642.1677798593507
 20
246.49246094085487
 10
1637.2089184113424
 20
240.80999987699337
 10
1643.4144382531797
 20
232.27676088607396
 10
1643.4144382531797
 20
216.44188392381858
 10
1637.6887722089034
 20
215.7128663480795
 10
1631.443985045944
 20
218.57527823658873
 10
1619.0454047806502
 20
219.99605698476245
 10
1614.0634228176211
 20
214.28710164842312
 10
1611.490822561919
 20
214.28710164842312
 10
1604.0584422797724
 20
219.96504634169878
 10
1602.2747112568265
 20
217.92103236942629
 10
1602.2747112568265
 20
213.63531808371195
 10
1599.7813944691686
 20
210.77817522656918
 10
1599.7813944691686
 20
205.06388951228348
 10
1597.8114068784253
 20
202.80644031793548
 10
1596.5192916651763
 20
204.28710164842312
 10
1594.0259748775184
 20
204.28710164842312
 10
1590.2627393544392
 20
208.59947043675209
 10
1586.5576546853413
 20
211.42995879128023
 10
1584.0527077268873
 20
211.42995879128023
 10
1581.5976426323007
 20
214.24326824860296
 10
1574.828968151772
 20
207.89715311098655
 10
1572.9436690978096
 20
204.29648167319792
 10
1564.192464789242
 20
202.8638838807203
 10
1556.6579364498696
 20
197.10790348455598
 10
1547.238630288532
 20
207.9016796510369
 10
1543.5012927406137
 20
215.03949926319933
 10
1537.184825281795
 20
220.83003497744912
  0
LWPOLYLINE
  5
45
330
17
100
AcDbEntity
  8
K
100
AcDbPolyline
 90
9
 70
1
 10
1563.41987475448
 20
299.414943636089
 10
1562.1913618090875
 20
305.046056383912
 10
1557.882630700709
 20
308.57281593413734
 10
1554.2238199138346
 20
308.57281593413734
 10
1551.1617171098421
 20
305.06388951228337
 10
1551.1617171098421
 20
299.43447735660834
 10
1555.45044340948
 20
295.9240920354779
 10
1561.6043205724059
 20
297.3344628529225
 10
1563.41987475448
 20
299.414943636089
  0
LWPOLYLINE
  5
46
330
17
100
AcDbEntity
  8
K
100
AcDbPolyline
 90
30
 70
1
 10
1617.731322962933
 20
472.8585302198517
 10
1610.2325339972938
 20
472.8585302198517
 10
1608.985875603465
 20
474.287101648423
 10
1600.259266846663
 20
474.287101648423
 10
1598.3144159851427
 20
476.5157461490767
 10
1600.226410185863
 20
480.1674017807293
 10
1607.7612641202322
 20
485.92363091421777
 10
1626.4373985510415
 20
481.64335779752685
 10
1629.4910000528707
 20
486.54221624494943
 10
1627.0198323579125
 20
493.6216206385283
 10
1625.198277218548
 20
495.7089780417635
 10
1615.2250100679169
 20
494.28040661319216
 10
1610.8013200136286
 20
499.34960379799776
 10
1610.8013200136286
 20
510.8531709274199
 10
1612.0479784074575
 20
512.2817423559912
 10
1612.0479784074575
 20
515.0638895122836
 10
1610.8076111796252
 20
516.4852517646768
 10
1609.547948094801
 20
523.7026206185396
 10
1611.503217403181
 20
525.9432038311829
 10
1626.5458918041816
 20
517.3243492335852
 10
1636.4993168685626
 20
507.34424450556594
 10
1638.9868414499704
 20
507.34424450556594
 10
1643.4172305684126
 20
503.71790609138714
 10
1642.1690001991194
 20
482.26231427881015
 10
1643.431415710069
 20
479.3690586141383
 10
1642.1677798593507
 20
477.9210323694262
 10
1642.1677798593507
 20
472.2067466551406
 10
1638.9930295743598
 20
468.56873517385776
 10
1622.7139166548975
 20
470.00370205531374
 10
1617.731322962933
 20
472.8585302198517
  0
LWPOLYLINE
  5
47
330
17
100
AcDbEntity
  8
K
100
AcDbPolyline
 90
10
 70
1
 10
1489.8299317560436
 20
520.8010039775174
 10
1491.7999865835498
 20
523.0585302198515
 10
1494.2933033712077
 20
523.0585302198515
 10
1495.5399617650364
 20
524.487101648423
 10
1501.773253734181
 20
524.487101648423
 10
1503.0486062831606
 20
525.9485542980397
 10
1506.320579093864
 20
523.698901837235
 10
1501.868456227635
 20
517.1394717878429
 10
1493.677765937659
 20
517.861462559731
 10
1489.8299317560436
 20
520.8010039775174
  0
LWPOLYLINE
  5
48
330
17
100
AcDbEntity
  8
K
100
AcDbPolyline
 90
20
 70
1
 10
1400.1085775768684
 20
333.6438825557618
 10
1402.6163223801318
 20
346.57542552872775
 10
1404.557924027586
 20
348.8003466883257
 10
1407.0992908393605
 20
347.344244505566
 10
1413.3514214111706
 20
347.344244505566
 10
1414.5663664177819
 20
345.95201409800444
 10
1422.0463167807552
 20
351.6662998122903
 10
1423.3246885618018
 20
350.2013873627089
 10
1437.0379308939193
 20
350.2013873627089
 10
1438.947948221934
 20
348.0126593227061
 10
1440.2260975159609
 20
345.0833443284239
 10
1438.9624616652425
 20
343.63531808371204
 10
1438.9624616652425
 20
340.77817522656915
 10
1433.297955712433
 20
334.2871016484231
 10
1429.5579805309462
 20
334.2871016484231
 10
1428.287297125059
 20
332.8309994656632
 10
1425.786249554786
 20
334.2640003254321
 10
1419.5710311142757
 20
328.56628327293714
 10
1402.034361263221
 20
331.4370875222944
 10
1400.1085775768684
 20
333.6438825557618
  0
LWPOLYLINE
  5
49
330
17
100
AcDbEntity
  8
K
100
AcDbPolyline
 90
17
 70
1
 10
2042.1524487362226
 20
70.81567307699454
 10
2044.1650286114862
 20
74.47101223167263
 10
2048.884340258133
 20
75.89958366024408
 10
2049.6797508126238
 20
77.34424450556598
 10
2052.8379483747103
 20
77.34424450556598
 10
2055.1976041980333
 20
80.20138736270887
 10
2056.758718282594
 20
80.20138736270887
 10
2059.904926047025
 20
85.91567307699455
 10
2061.5962234402773
 20
85.91567307699455
 10
2063.1662974155292
 20
83.0640332747582
 10
2078.897336237685
 20
84.49260470332965
 10
2081.7083565744033
 20
79.38710164842311
 10
2080.121097300792
 20
76.50424912526688
 10
2080.121097300792
 20
72.21853483955255
 10
2078.1144892390057
 20
68.57404196426687
 10
2043.781294668646
 20
67.85728897164522
 10
2042.1524487362226
 20
70.81567307699454
  0
LWPOLYLINE
  5
4A
330
17
100
AcDbEntity
  8
K
100
AcDbPolyline
 90
14
 70
1
 10
2052.3776239706235
 20
272.24424450556603
 10
2053.178331303127
 20
273.69852560015084
 10
2053.178331303127
 20
277.98423988586507
 10
2055.972166341486
 20
283.0585302198517
 10
2064.721964659897
 20
283.0585302198517
 10
2067.868172424328
 20
280.20138736270883
 10
2075.75969190678
 20
280.20138736270883
 10
2079.3462383271017
 20
272.2397721390807
 10
2077.327262262433
 20
268.5728159341375
 10
2068.556997399211
 20
268.5728159341375
 10
2067.829542213621
 20
269.8940531460573
 10
2067.100268011507
 20
268.56951215354906
 10
2054.004025646554
 20
269.29029977008867
 10
2052.3776239706235
 20
272.24424450556603
  0
LWPOLYLINE
  5
4B
330
17
100
AcDbEntity
  8
K
100
AcDbPolyline
 90
28
 70
1
 10
1946.2000687684974
 20
262.2316091626905
 10
1947.0005344044566
 20
265.1392933913351
 10
1953.7331967673229
 20
277.3674611538638
 10
1957.772023313945
 20
275.9003610405938
 10
1960.0553110116882
 20
273.13568702672774
 10
1960.7946931113902
 20
274.4785864428084
 10
1970.2333164046834
 20
275.90715787138
 10
1971.8111086429528
 20
278.77281593413727
 10
1973.384212525168
 20
278.77281593413727
 10
1975.2955337420601
 20
282.24424450556586
 10
1974.5089818009524
 20
283.6728159341374
 10
1976.5304202895998
 20
287.34424450556594
 10
1980.5869070327374
 20
287.34424450556594
 10
1984.1702519553069
 20
279.3897361447123
 10
1982.1736144806453
 20
274.3127987669985
 10
1979.0207552371378
 20
272.8812071586814
 10
1975.514480626089
 20
266.51295165223013
 10
1976.3010325671967
 20
262.2272373665157
 10
1974.2827666771577
 20
258.56157101305234
 10
1966.2996795874947
 20
260.01149561841663
 10
1965.5186931140902
 20
261.4299587912804
 10
1960.7993814674437
 20
261.4299587912804
 10
1960.0598603801031
 20
262.7731106430361
 10
1956.9763604206944
 20
258.5728159341373
 10
1955.4117113907255
 20
258.5728159341373
 10
1954.6210888947264
 20
257.1368513785358
 10
1948.6040360493605
 20
257.8654143913389
 10
1946.2000687684974
 20
262.2316091626905
  0
LWPOLYLINE
  5
4C
330
17
100
AcDbEntity
  8
K
100
AcDbPolyline
 90
19
 70
1
 10
2761.572028147992
 20
48.5105981523708
 10
2760.5022966367837
 20
47.14424450556598
 10
2758.167989997215
 20
47.14424450556598
 10
2755.9311051662226
 20
50.00138736270887
 10
2753.7061233394707
 20
50.00138736270887
 10
2750.379088624153
 20
52.83443844059854
 10
2748.150719162037
 20
51.41130529499671
 10
2743.6087356974936
 20
54.31201243762251
 10
2740.7473286079958
 20
57.96684916138417
 10
2745.8642319870028
 20
63.05021163058544
 10
2752.568140962704
 20
64.47734706610109
 10
2753.7323119178704
 20
65.96432694229415
 10
2758.256870356709
 20
61.6299587912803
 10
2761.6164534798695
 20
61.6299587912803
 10
2770.060346264214
 20
52.282724367374136
 10
2770.060346264214
 20
50.781183947930856
 10
2766.0842950610268
 20
45.702627315321486
 10
2763.191945894662
 20
46.44149903965411
 10
2761.572028147992
 20
48.5105981523708
  0
LWPOLYLINE
  5
4D
330
17
100
AcDbEntity
  8
K
100
AcDbPolyline
 90
24
 70
1
 10
2733.5770558666995
 20
480.0013873627088
 10
2731.3253720253056
 20
480.0013873627088
 10
2727.359534475357
 20
485.0668982336449
 10
2727.359534475357
 20
487.99301934891537
 10
2730.2069296098093
 20
491.6299587912801
 10
2739.232387844085
 20
491.6299587912801
 10
2741.4173267348738
 20
490.23456228748677
 10
2744.1361707078004
 20
493.70730506320115
 10
2744.1361707078004
 20
500.8572871845461
 10
2749.241750741984
 20
505.92940053258263
 10
2753.7286521010046
 20
504.496635869086
 10
2755.988331439388
 20
505.9397648562479
 10
2759.407660229769
 20
503.02812312595603
 10
2762.2247786772004
 20
499.42985568800646
 10
2763.3432210926967
 20
493.7155699737207
 10
2765.60632909184
 20
490.8249326172026
 10
2762.7491228010663
 20
485.7156730769946
 10
2757.138427941213
 20
485.7156730769946
 10
2752.664658279228
 20
481.42995879128017
 10
2748.1799271680547
 20
481.42995879128017
 10
2745.9820481336037
 20
480.02629815190824
 10
2743.7218309939494
 20
477.13935325126675
 10
2736.368895574161
 20
477.86179981632915
 10
2733.5770558666995
 20
480.0013873627088
  0
LWPOLYLINE
  5
4E
330
17
100
AcDbEntity
  8
K
100
AcDbPolyline
 90
57
 70
1
 10
2671.4374137005457
 20
432.2097553765022
 10
2671.4374137005457
 20
437.9169161122999
 10
2666.4631939635356
 20
442.8585302198517
 10
2649.6790756940813
 20
442.8585302198517
 10
2648.5606332785856
 20
444.28710164842323
 10
2645.302727840673
 20
444.28710164842323
 10
2644.1842854251768
 20
442.8585302198517
 10
2634.0208818771343
 20
442.8585302198517
 10
2632.902439461638
 20
444.28710164842323
 10
2618.3693437493043
 20
444.28710164842323
 10
2612.755719656568
 20
450.0232667855907
 10
2608.306868275552
 20
452.8644957504543
 10
2601.596213782575
 20
454.2930671790256
 10
2597.0927792674884
 20
457.1691552947653
 10
2594.2378851579338
 20
460.81567307699447
 10
2597.0927792674884
 20
464.4621908592236
 10
2603.842439557007
 20
468.7728159341372
 10
2608.311505331122
 20
468.7728159341372
 10
2613.903717408604
 20
473.05853021985166
 10
2618.382190958458
 20
473.05853021985166
 10
2620.5800699929086
 20
474.4621908592236
 10
2626.699717080697
 20
482.2787336346298
 10
2626.699717080697
 20
486.56444792034404
 10
2628.936601911689
 20
489.4215907774869
 10
2628.936601911689
 20
495.1358764917727
 10
2631.176798182652
 20
497.99724900657395
 10
2632.295240598148
 20
509.4258204351455
 10
2634.5103322518376
 20
512.2551271605383
 10
2632.2734474208455
 20
516.5408414462528
 10
2634.528813989171
 20
519.4215907774867
 10
2634.528813989171
 20
522.2787336346298
 10
2637.424920027911
 20
525.9778908587615
 10
2640.3210260666515
 20
522.2787336346298
 10
2640.3210260666515
 20
519.4116287045872
 10
2642.5423120908163
 20
515.1558006375717
 10
2647.5396126716655
 20
508.77281593413727
 10
2653.1318247491463
 20
508.77281593413727
 10
2654.254212970679
 20
507.3392045806778
 10
2667.6755219566335
 20
505.91063315210647
 10
2668.79584400899
 20
504.47966088869754
 10
2677.74338333296
 20
503.051089460126
 10
2688.929619002056
 20
488.7630613518151
 10
2695.5436771613445
 20
487.35505345584073
 10
2696.6935293554616
 20
488.82374417146144
 10
2707.460675572916
 20
477.96632512032267
 10
2698.5070335458286
 20
466.52995879128025
 10
2704.0637665822665
 20
459.4324185495392
 10
2705.1830414918554
 20
455.14351426335895
 10
2713.0436981829957
 20
443.66887325170615
 10
2710.172387939454
 20
440.0013873627088
 10
2701.1469297051785
 20
440.0013873627088
 10
2698.96199081439
 20
441.39678386650195
 10
2696.243146841463
 20
437.92404109078774
 10
2696.243146841463
 20
429.3526125193593
 10
2693.3926519372762
 20
425.71171378287596
 10
2675.4002695356216
 20
427.1480530098003
 10
2671.4374137005457
 20
432.2097553765022
  0
LWPOLYLINE
  5
4F
330
17
100
AcDbEntity
  8
K
100
AcDbPolyline
 90
38
 70
1
 10
2640.7133812684215
 20
161.4531480580662
 10
2638.4946515391193
 20
164.2871016484232
 10
2622.9143766324773
 20
164.2871016484232
 10
2620.6255458612814
 20
162.8253552950737
 10
2616.6337353412314
 20
167.92404109078808
 10
2616.6337353412314
 20
170.78118394793086
 10
2614.3995107121746
 20
173.63492896498167
 10
2613.2810682966783
 20
187.92064325069603
 10
2610.5140882534424
 20
191.45486958047974
 10
2608.3162092189923
 20
192.85853021985167
 10
2599.349166996751
 20
192.85853021985167
 10
2598.230724581255
 20
194.28710164842312
 10
2589.2831852572854
 20
194.28710164842312
 10
2586.4357901228327
 20
197.924041090788
 10
2586.4357901228327
 20
200.84440434196605
 10
2590.909559784818
 20
207.98726148482316
 10
2590.909559784818
 20
210.8541529388026
 10
2599.353452569162
 20
220.20138736270877
 10
2602.797526192844
 20
220.20138736270877
 10
2627.403259333761
 20
193.05853021985163
 10
2630.6740960797283
 20
193.05853021985163
 10
2635.147865741713
 20
197.34424450556597
 10
2638.5206488714584
 20
197.34424450556597
 10
2647.4681881954284
 20
201.62995879128033
 10
2651.915960525074
 20
201.62995879128033
 10
2653.060375910672
 20
203.0917051446296
 10
2659.8619821403945
 20
198.74790514493802
 10
2662.0957938950583
 20
195.89468748678607
 10
2667.68800597254
 20
193.03754462964318
 10
2671.664415573919
 20
187.95853021985175
 10
2667.68800597254
 20
182.87951581006013
 10
2662.0881212992203
 20
180.0184529116008
 10
2654.275136842007
 20
172.89029592368078
 10
2650.4140096794904
 20
167.95853021985175
 10
2654.8877793414754
 20
162.24424450556597
 10
2652.0185886141307
 20
158.5794658460511
 10
2646.911431489329
 20
157.8546544030588
 10
2640.7133812684215
 20
161.4531480580662
  0
LWPOLYLINE
  5
50
330
17
100
AcDbEntity
  8
K
100
AcDbPolyline
 90
13
 70
1
 10
3490.7031046616444
 20
267.15325864749906
 10
3488.510896205806
 20
270.8245202903904
 10
3494.9787082973153
 20
278.76766195647997
 10
3507.862859047834
 20
280.20612274171043
 10
3510.0586051876894
 20
277.999811049232
 10
3510.0586051876894
 20
275.13154414782025
 10
3512.902065801606
 20
270.84582986210603
 10
3512.902065801606
 20
267.9172493904712
 10
3510.669470341168
 20
265.6739110648204
 10
3509.206178011339
 20
267.14424450556595
 10
3500.7589202153317
 20
267.14424450556595
 10
3499.3300645435
 20
265.7085134260914
 10
3490.7031046616444
 20
267.15325864749906
  0
LWPOLYLINE
  5
51
330
17
100
AcDbEntity
  8
K
100
AcDbPolyline
 90
14
 70
1
 10
3381.968398786971
 20
266.4326919649617
 10
3377.659982019557
 20
269.31879071668794
 10
3376.215956333613
 20
272.22073889485733
 10
3376.215956333613
 20
275.1426681920891
 10
3381.2504503850955
 20
280.20138736270883
 10
3386.937371612929
 20
280.20138736270883
 10
3389.7729288876444
 20
283.05058885114244
 10
3396.8815804224355
 20
284.47916027971377
 10
3398.311214068595
 20
285.9156730769944
 10
3401.237798728254
 20
285.9156730769944
 10
3403.4431221163663
 20
283.69973805218854
 10
3401.9955148127874
 20
279.3360192296473
 10
3389.863531604854
 20
265.71149897963795
 10
3381.968398786971
 20
266.4326919649617
  0
LWPOLYLINE
  5
52
330
17
100
AcDbEntity
  8
K
100
AcDbPolyline
 90
22
 70
1
 10
3234.823392144441
 20
145.7156730769945
 10
3223.438386312729
 20
145.7156730769945
 10
3222.0100067074454
 20
147.1509257991712
 10
3213.486270172341
 20
148.57838434728976
 10
3207.030049805581
 20
153.62405169374793
 10
3207.030049805581
 20
155.1426681920891
 10
3209.2113519081713
 20
157.33446634508107
 10
3220.585194363837
 20
160.19160920222396
 10
3223.428654977754
 20
163.04875205936676
 10
3234.80249743342
 20
165.90589491650965
 10
3236.275521098225
 20
167.38600651774016
 10
3239.1605437350127
 20
164.48710164842316
 10
3242.0040043489294
 20
164.48710164842316
 10
3243.384172633016
 20
163.10029223202582
 10
3244.8257914295364
 20
164.548847850149
 10
3247.0641992482424
 20
160.80021676350253
 10
3245.6167680934536
 20
159.3458208190428
 10
3245.6167680934536
 20
156.48867796190004
 10
3242.766730392529
 20
153.6249263699384
 10
3241.345000085571
 20
145.05349779850985
 10
3239.131759467134
 20
142.82960744702876
 10
3234.823392144441
 20
145.7156730769945
  0
LWPOLYLINE
  5
53
330
17
100
AcDbEntity
  8
K
100
AcDbPolyline
 90
22
 70
1
 10
4011.4178886474374
 20
146.49917024179072
 10
4011.4178886474374
 20
150.77707804116235
 10
4006.2259636449467
 20
156.50132185754074
 10
4008.836233560886
 20
168.01290680395198
 10
4014.7201919081335
 20
173.05853021985163
 10
4017.3043378938205
 20
173.05853021985163
 10
4018.600061129197
 20
174.48710164842308
 10
4025.0665896660475
 20
174.48710164842308
 10
4030.2341548227137
 20
183.03318124691305
 10
4035.502864800349
 20
185.937631955976
 10
4042.743554117626
 20
179.40603390572096
 10
4040.123799825726
 20
175.07350436263724
 10
4040.123799825726
 20
172.20564946973371
 10
4032.338663062453
 20
163.62231651414393
 10
4031.0429398270758
 20
159.3366022284296
 10
4027.1665674719584
 20
155.06279232687658
 10
4027.1665674719584
 20
152.2056494697337
 10
4021.9836745304515
 20
146.49136375544802
 10
4021.9836745304515
 20
145.06279232687658
 10
4017.3774237723574
 20
139.98427089098163
 10
4015.3404314646195
 20
140.7328847234227
 10
4011.4178886474374
 20
146.49917024179072
  0
LWPOLYLINE
  5
54
330
17
100
AcDbEntity
  8
K
100
AcDbPolyline
 90
15
 70
1
 10
3991.982040116786
 20
16.49136375544802
 10
3991.982040116786
 20
19.42569668425542
 10
3993.9813196570394
 20
21.629958791280266
 10
3996.5842737552225
 20
21.629958791280266
 10
4000.471443461352
 20
24.48710164842316
 10
4004.3656734696997
 20
24.48710164842316
 10
4012.140012881961
 20
28.772815934137384
 10
4016.097225284068
 20
28.772815934137384
 10
4017.3929485194453
 20
27.34424450556594
 10
4030.3501808732126
 20
27.34424450556594
 10
4034.940906884219
 20
22.282839541398314
 10
4034.940906884219
 20
17.919935184019465
 10
4031.6451501156357
 20
14.286270349916585
 10
3993.3327102626536
 20
15.002211807617293
 10
3991.982040116786
 20
16.49136375544802
  0
LWPOLYLINE
  5
55
330
17
100
AcDbEntity
  8
K
100
AcDbPolyline
 90
86
 70
1
 10
3929.763206420688
 20
47.94652639838104
 10
3932.3787712894555
 20
52.27212750563759
 10
3932.3787712894555
 20
57.99712525568401
 10
3933.6527117206047
 20
59.40168052794714
 10
3931.7714811244623
 20
62.85853021985177
 10
3927.9880452784487
 20
62.85853021985177
 10
3926.6480167302598
 20
61.381110933736885
 10
3925.3079881820704
 20
62.85853021985177
 10
3921.439386405588
 20
62.85853021985177
 10
3916.25649346408
 20
65.71567307699455
 10
3912.350755828303
 20
65.71567307699455
 10
3909.033970248447
 20
69.37252276889905
 10
3911.0213245262207
 20
73.02437971664277
 10
3915.5500920355407
 20
76.59087540790522
 10
3920.7299696386235
 20
90.86827845437872
 10
3923.3087086418177
 20
93.7114109699697
 10
3923.3087086418177
 20
97.91993518401942
 10
3920.6822562317757
 20
100.81567307699457
 10
3923.3087086418177
 20
103.71141096996972
 10
3923.3087086418177
 20
107.99712525568394
 10
3924.559252784391
 20
109.3758854596154
 10
3914.956042496513
 20
117.1402796922667
 10
3901.989497336423
 20
115.71068150052011
 10
3899.9824621575153
 20
117.92349441800332
 10
3901.2790917934767
 20
133.64877278671128
 10
3898.68996716966
 20
137.9306472197801
 10
3898.68996716966
 20
142.2056494697337
 10
3896.0985206989067
 20
145.06279232687658
 10
3896.0985206989067
 20
147.91993518401947
 10
3894.8076565056244
 20
149.34314938157289
 10
3893.51030482539
 20
159.35571722641316
 10
3889.6009910620205
 20
166.5392651158494
 10
3896.797073245031
 20
175.91567307699452
 10
3898.0978002391594
 20
175.91567307699452
 10
3904.5578484863954
 20
183.03805855348244
 10
3917.5653056072006
 20
190.20860280776796
 10
3922.8096789055817
 20
188.76308542213349
 10
3929.277263038282
 20
183.05853021985163
 10
3931.875214984579
 20
183.05853021985163
 10
3935.1884215945647
 20
179.4056264432179
 10
3933.8744945248322
 20
176.5083431040001
 10
3933.8744945248322
 20
170.8542681128268
 10
3935.762384690709
 20
168.7728159341374
 10
3949.926729654229
 20
168.7728159341374
 10
3951.2224528896063
 20
170.20138736270886
 10
3953.9025099859837
 20
170.20138736270886
 10
3955.1982332213606
 20
168.7728159341374
 10
3964.2682958689984
 20
168.7728159341374
 10
3965.5640191043744
 20
167.34424450556594
 10
3969.4612495358897
 20
167.34424450556594
 10
3972.7397843883177
 20
162.2836964457418
 10
3974.0352506808954
 20
156.57054387819912
 10
3977.9290845276414
 20
150.8464616264842
 10
3977.9290845276414
 20
142.2828395413982
 10
3979.816974693519
 20
140.20138736270883
 10
3995.3656535180403
 20
140.20138736270883
 10
3998.7130038739524
 20
136.51083914275296
 10
3992.182040116786
 20
132.19049604642296
 10
3992.182040116786
 20
123.69658690756391
 10
3998.6571459025945
 20
110.84641059980494
 10
3999.9507416970496
 20
102.28905541025846
 10
4002.5478259998
 20
99.42569668425539
 10
4002.5478259998
 20
96.5685538271125
 10
4006.4256178668015
 20
92.29317887365318
 10
4009.017064337555
 20
82.29317887365318
 10
4011.6178886474377
 20
79.42569668425537
 10
4011.6178886474377
 20
72.28283954139825
 10
4012.9136118828137
 20
70.8542681128268
 10
4012.9136118828137
 20
67.98641321992326
 10
4018.096504824321
 20
59.41498464849471
 10
4018.096504824321
 20
56.56855382711257
 10
4020.6879512950745
 20
53.71141096996968
 10
4020.6879512950745
 20
50.77344236846015
 10
4009.5698056326405
 20
39.95749885539934
 10
4008.228925685604
 20
41.43585683276885
 10
3997.8631398025886
 20
42.864428261340294
 10
3996.6036073270698
 20
44.25309835596969
 10
3988.833023614271
 20
38.54157315143824
 10
3975.8443052609077
 20
51.42995879128031
 10
3973.3268508892056
 20
51.42995879128031
 10
3969.4490682947708
 20
48.579715637818154
 10
3962.9809253556336
 20
47.153453617274856
 10
3957.8126949469734
 20
41.455333759186644
 10
3953.8783677152505
 20
38.56352923363371
 10
3933.072068936749
 20
44.29841210787755
 10
3929.763206420688
 20
47.94652639838104
  0
LWPOLYLINE
  5
56
330
17
100
AcDbEntity
  8
K
100
AcDbPolyline
 90
11
 70
1
 10
3851.446414205016
 20
537.1501425470545
 10
3850.1560405302193
 20
538.5728159341376
 10
3844.973147588712
 20
538.5728159341376
 10
3842.9388621091703
 20
540.8156730769945
 10
3847.564594059466
 20
545.9156730769946
 10
3850.1560405302193
 20
545.9156730769946
 10
3854.024642306703
 20
550.1809156963396
 10
3859.3073811187724
 20
553.0930999983116
 10
3866.5203224267816
 20
540.8029170485117
 10
3861.900475418505
 20
535.7094053631425
 10
3851.446414205016
 20
537.1501425470545
  0
LWPOLYLINE
  5
57
330
17
100
AcDbEntity
  8
K
100
AcDbPolyline
 90
12
 70
1
 10
3822.242296282431
 20
12.205649469733793
 10
3822.242296282431
 20
15.073504362637212
 10
3819.6267314136644
 20
19.399105469893875
 10
3821.6501293519304
 20
21.629958791280266
 10
3851.5504351166055
 20
21.629958791280266
 10
3854.8353771668503
 20
16.55952096851543
 10
3854.8353771668503
 20
12.205649469733793
 10
3852.8360976265976
 20
10.001387362708837
 10
3848.9489279204668
 20
10.001387362708837
 10
3847.6519302416846
 20
8.571410824322001
 10
3824.888180656166
 20
9.28848728847409
 10
3822.242296282431
 20
12.205649469733793
  0
LWPOLYLINE
  5
58
330
17
100
AcDbEntity
  8
K
100
AcDbPolyline
 90
21
 70
1
 10
3829.418389038235
 20
461.43666186069896
 10
3828.1287455288143
 20
462.8585302198517
 10
3822.9458525873074
 20
462.8585302198517
 10
3821.6531278179637
 20
464.2837957550131
 10
3802.2005307788104
 20
462.85399327956065
 10
3795.0321083395193
 20
476.50529984488276
 10
3795.0321083395193
 20
480.8542681128266
 10
3797.0313878797724
 20
483.05853021985166
 10
3799.71144497615
 20
483.05853021985166
 10
3800.9628628987143
 20
481.6788066488237
 10
3802.2142808212793
 20
483.05853021985166
 10
3804.8757699880102
 20
483.05853021985166
 10
3815.241555871024
 20
477.3442445055659
 10
3820.3627218166816
 20
477.3442445055659
 10
3825.5456147581885
 20
481.6299587912801
 10
3834.6073617056977
 20
481.6299587912801
 10
3835.9521493603124
 20
483.1126251265171
 10
3845.7653145192126
 20
470.850761441392
 10
3845.7653145192126
 20
466.48549093905353
 10
3838.570398441071
 20
459.9951834878552
 10
3829.418389038235
 20
461.43666186069896
  0
LWPOLYLINE
  5
59
330
17
100
AcDbEntity
  8
K
100
AcDbPolyline
 90
12
 70
1
 10
4858.87535702444
 20
265.69641248041273
 10
4853.851948308731
 20
267.89311628556544
 10
4853.851948308731
 20
273.6430432305118
 10
4851.016104710557
 20
277.9833787903222
 10
4856.019490706349
 20
281.62995879128016
 10
4860.294311316055
 20
281.62995879128016
 10
4867.294700602362
 20
274.48710164842305
 10
4870.104907562984
 20
274.48710164842305
 10
4873.6825853952705
 20
269.3764175336354
 10
4871.494934174147
 20
267.14424450556595
 10
4860.294311316055
 20
267.14424450556595
 10
4858.87535702444
 20
265.69641248041273
  0
LWPOLYLINE
  5
5A
330
17
100
AcDbEntity
  8
K
100
AcDbPolyline
 90
53
 70
1
 10
4787.459184805992
 20
94.25539123592553
 10
4786.04817223155
 20
92.81566255316132
 10
4783.199289802587
 20
95.72252378253343
 10
4774.798822659018
 20
97.15109521110487
 10
4770.592567123075
 20
101.44295401649472
 10
4766.396460040654
 20
102.87012195530664
 10
4757.2181047780705
 20
110.79447780096996
 10
4759.38407031952
 20
114.47788782436686
 10
4767.80892381525
 20
115.91060636111095
 10
4772.016605873588
 20
118.77281593413736
 10
4776.296294675879
 20
118.77281593413736
 10
4781.896606104925
 20
111.62995879128023
 10
4784.606081724641
 20
111.62995879128023
 10
4786.006159581902
 20
113.05853021985169
 10
4793.024526347867
 20
113.05853021985169
 10
4798.624837776913
 20
115.91567307699458
 10
4802.828197720488
 20
115.91567307699458
 10
4812.672787734811
 20
120.22064795929055
 10
4815.491819883689
 20
117.34424450556602
 10
4818.280750733912
 20
117.34424450556602
 10
4822.437304044699
 20
114.51681445928818
 10
4823.85027437761
 20
115.95854074368495
 10
4826.692442741781
 20
113.05853021985169
 10
4829.492598456303
 20
113.05853021985169
 10
4834.490876406727
 20
107.9585302198517
 10
4830.905412342516
 20
104.30009687363761
 10
4826.705178770731
 20
102.87152544506617
 10
4812.049612590888
 20
87.91769769507596
 10
4812.049612590888
 20
85.13116006633436
 10
4814.872122636117
 20
80.81123187102924
 10
4809.899009048722
 20
74.28710164842312
 10
4805.691274882858
 20
74.28710164842312
 10
4802.8911191683355
 20
71.42995879128034
 10
4798.677052709322
 20
71.42995879128034
 10
4791.685703584379
 20
67.14977899045205
 10
4784.687748593489
 20
65.72170432923753
 10
4780.478648587852
 20
62.85853021985177
 10
4776.276799624457
 20
62.85853021985177
 10
4765.072550377681
 20
55.7133604577188
 10
4755.901311130228
 20
56.43319791783152
 10
4754.446420443167
 20
57.91769769507604
 10
4754.446420443167
 20
63.71364845891314
 10
4756.604524579411
 20
65.91567307699452
 10
4772.005381009288
 20
65.91567307699452
 10
4774.047510444828
 20
67.99936274462736
 10
4774.047510444828
 20
79.41028602514488
 10
4775.4648844490075
 20
82.30272517839576
 10
4777.605692438334
 20
84.4871016484231
 10
4780.417073017155
 20
84.4871016484231
 10
4784.606365957153
 20
87.33680231278551
 10
4790.196573403482
 20
88.76279633808093
 10
4792.1961028568085
 20
90.80301905340559
 10
4787.459184805992
 20
94.25539123592553
  0
LWPOLYLINE
  5
5B
330
17
100
AcDbEntity
  8
K
100
AcDbPolyline
 90
10
 70
1
 10
4762.815898422323
 20
149.4047587016274
 10
4773.409598400504
 20
158.77281593413738
 10
4776.280201618994
 20
158.77281593413738
 10
4791.100864464383
 20
147.9711842434407
 10
4773.447471516197
 20
129.95851969601847
 10
4771.247354730304
 20
132.2034119807902
 10
4771.247354730304
 20
135.06055483793313
 10
4768.447199015782
 20
137.91769769507601
 10
4768.447199015782
 20
140.78590037336915
 10
4762.815898422323
 20
149.4047587016274
  0
LWPOLYLINE
  5
5C
330
17
100
AcDbEntity
  8
K
100
AcDbPolyline
 90
24
 70
1
 10
4741.805701628157
 20
450.8156730769944
 10
4743.245797585076
 20
452.2850770303416
 10
4743.245797585076
 20
455.1422198874845
 10
4746.0059351999425
 20
457.9585302198516
 10
4743.245797585076
 20
460.77484055221885
 10
4743.245797585076
 20
466.4891262665046
 10
4741.816172642935
 20
467.947846105064
 10
4745.393850475221
 20
473.05853021985166
 10
4748.288082735138
 20
473.05853021985166
 10
4749.677247382663
 20
471.6410941003225
 10
4755.277558811709
 20
473.06966552889384
 10
4756.688549878708
 20
471.62995879128033
 10
4762.273220556017
 20
471.62995879128033
 10
4768.6471990157825
 20
468.0167932540432
 10
4768.6471990157825
 20
450.85650560177004
 10
4775.687606401745
 20
443.6728159341373
 10
4773.467468225966
 20
441.40749479578056
 10
4767.823124917161
 20
444.28710164842323
 10
4762.204836008457
 20
444.28710164842323
 10
4760.804758151196
 20
445.71567307699456
 10
4753.804368864889
 20
445.71567307699456
 10
4751.004213150366
 20
448.57281593413745
 10
4744.003823864058
 20
448.57281593413745
 10
4741.805701628157
 20
450.8156730769944
  0
LWPOLYLINE
  5
5D
330
17
100
AcDbEntity
  8
K
100
AcDbPolyline
 90
132
 70
1
 10
4653.02115442954
 20
180.00138736270887
 10
4644.598295998494
 20
180.00138736270887
 10
4642.410644777372
 20
182.23356039077808
 10
4649.411034063679
 20
192.2335603907781
 10
4647.3984517130175
 20
194.28710164842312
 10
4644.664343818133
 20
194.28710164842312
 10
4627.863409530994
 20
185.71567307699453
 10
4623.669928574569
 20
185.71567307699453
 10
4619.469695002785
 20
182.85853021985164
 10
4616.662786672903
 20
182.85853021985164
 10
4602.662008100289
 20
175.71567307699453
 10
4594.206718001382
 20
175.71567307699453
 10
4590.006484429598
 20
178.57281593413742
 10
4584.3949481362515
 20
178.57281593413742
 10
4582.994870278991
 20
180.00138736270887
 10
4580.278739863763
 20
180.00138736270887
 10
4578.878662006502
 20
178.57281593413742
 10
4571.7942474208985
 20
178.57281593413742
 10
4570.394169563637
 20
180.00138736270887
 10
4557.811446327942
 20
180.00138736270887
 10
4552.175179939581
 20
182.8768735667333
 10
4548.634975425733
 20
186.48912626650448
 10
4548.634975425733
 20
196.4891262665045
 10
4546.63485863984
 20
198.52994826744708
 10
4544.634741853948
 20
196.4891262665045
 10
4544.634741853948
 20
187.91769769507604
 10
4542.478239765316
 20
185.71730772854923
 10
4505.988437142004
 20
184.28529150197036
 10
4495.385285041116
 20
196.54675830133883
 10
4500.390974704155
 20
200.195017266686
 10
4507.382687684382
 20
201.62181811901326
 10
4512.202024395681
 20
206.53923517172822
 10
4503.791556179476
 20
217.98141274517567
 10
4512.981153883611
 20
224.47291824741754
 10
4518.609266324622
 20
227.34424450556588
 10
4521.400882820859
 20
227.34424450556588
 10
4526.181309977131
 20
230.82832710058344
 10
4524.186505819775
 20
232.8637283534588
 10
4512.983084690381
 20
234.29265668454212
 10
4499.595574926638
 20
249.39051227988574
 10
4501.780534807622
 20
251.61993919522374
 10
4507.390950219384
 20
253.05108802707122
 10
4511.602124422956
 20
255.91567307699458
 10
4535.401661393474
 20
255.91567307699458
 10
4540.258831033476
 20
259.45568731642874
 10
4542.37975131384
 20
263.0624940130367
 10
4563.4630031621955
 20
261.6283389501247
 10
4566.238033174155
 20
260.212586044687
 10
4581.638889604032
 20
267.3554431875441
 10
4584.460995955889
 20
265.9156730769946
 10
4597.0796741509
 20
265.9156730769946
 10
4598.479752008162
 20
264.48710164842305
 10
4609.680374866253
 20
264.48710164842305
 10
4611.080452723515
 20
263.0585302198517
 10
4625.063253816472
 20
263.0585302198517
 10
4633.499675919356
 20
258.7544725872556
 10
4641.227906308317
 20
250.86896174239413
 10
4642.6540970637425
 20
246.50331445858055
 10
4638.422662143547
 20
242.1857638327366
 10
4635.619978254254
 20
236.4663188650219
 10
4628.639413289636
 20
230.7682153705507
 10
4628.639413289636
 20
229.34626912364752
 10
4623.079119960246
 20
223.67281593413736
 10
4625.08123129613
 20
221.62995879128033
 10
4630.59751742588
 20
221.62995879128033
 10
4631.997595283142
 20
223.05853021985166
 10
4667.083567013973
 20
223.05853021985166
 10
4668.483644871235
 20
221.62995879128033
 10
4682.400398144554
 20
221.62995879128033
 10
4683.800476001816
 20
223.05853021985166
 10
4690.8008652881235
 20
223.05853021985166
 10
4695.043111509555
 20
227.38711217225605
 10
4697.243228295448
 20
225.14221988748452
 10
4697.243228295448
 20
220.85650560177007
 10
4699.24334508134
 20
218.8156836008278
 10
4701.243461867231
 20
220.85650560177007
 10
4701.243461867231
 20
227.99936274462718
 10
4705.443695439017
 20
232.28507703034163
 10
4705.443695439017
 20
240.77484055221888
 10
4701.243461867231
 20
245.06055483793332
 10
4701.243461867231
 20
258.01456109104817
 10
4704.853728585505
 20
260.22480555273995
 10
4714.018941158064
 20
252.31179676758487
 10
4717.496421121485
 20
247.3442445055659
 10
4723.086681304432
 20
247.3442445055659
 10
4724.486759161693
 20
245.91567307699458
 10
4735.687382019785
 20
245.91567307699458
 10
4737.885504255685
 20
243.67281593413736
 10
4729.445019012461
 20
235.06055483793332
 10
4729.445019012461
 20
233.71364845891296
 10
4732.887226305263
 20
230.2013873627088
 10
4737.087459877046
 20
230.2013873627088
 10
4741.287693448831
 20
225.91567307699455
 10
4745.487927020616
 20
225.91567307699455
 10
4747.671042859375
 20
223.68812773275658
 10
4745.503118965193
 20
220.0013873627088
 10
4741.283240959688
 20
220.0013873627088
 10
4731.482695958857
 20
211.42995879128023
 10
4727.2869148762165
 20
211.42995879128023
 10
4723.844707583415
 20
207.91769769507596
 10
4723.844707583415
 20
203.63198340936174
 10
4721.044551868892
 20
200.77484055221885
 10
4721.044551868892
 20
195.12457173943054
 10
4722.465543076952
 20
192.2247509479561
 10
4721.044551868892
 20
190.77484055221882
 10
4721.044551868892
 20
187.99936274462746
 10
4723.086681304432
 20
185.91567307699452
 10
4728.664601446001
 20
185.91567307699452
 10
4735.664990732308
 20
183.05853021985163
 10
4745.469949540958
 20
183.05853021985163
 10
4751.070260970003
 20
180.20138736270886
 10
4756.688549878708
 20
180.20138736270886
 10
4758.846654014952
 20
177.99936274462746
 10
4758.846654014952
 20
170.77484055221882
 10
4756.688549878708
 20
168.57281593413742
 10
4748.288082735138
 20
168.57281593413742
 10
4746.888004877877
 20
167.14424450556598
 10
4723.086681304432
 20
167.14424450556598
 10
4721.683322657695
 20
165.712325518797
 10
4712.484301767006
 20
166.434343520379
 10
4708.263858642447
 20
173.6115687396602
 10
4702.001488146214
 20
180.00138736270887
 10
4697.885279873726
 20
180.00138736270887
 10
4696.485202016465
 20
178.57281593413742
 10
4676.884112014804
 20
178.57281593413742
 10
4675.484034157543
 20
177.14424450556598
 10
4668.399619571939
 20
177.14424450556598
 10
4666.999541714678
 20
178.57281593413742
 10
4664.283411299451
 20
178.57281593413742
 10
4662.88333344219
 20
177.14424450556598
 10
4660.021543715848
 20
177.14424450556598
 10
4653.02115442954
 20
180.00138736270887
  0
LWPOLYLINE
  5
5E
330
17
100
AcDbEntity
  8
K
100
AcDbPolyline
 90
12
 70
1
 10
4734.820318738992
 20
62.259556304185224
 10
4738.44552508466
 20
65.9585407436849
 10
4739.8876155915705
 20
64.48710164842308
 10
4742.603746006796
 20
64.48710164842308
 10
4744.003823864058
 20
65.91567307699452
 10
4748.288082735138
 20
65.91567307699452
 10
4750.446186871382
 20
63.71364845891314
 10
4750.446186871382
 20
56.4891262665046
 10
4748.253573952653
 20
54.25189056324098
 10
4741.225393600795
 20
59.988861600066336
 10
4737.000533497502
 20
58.55191426603723
 10
4734.820318738992
 20
62.259556304185224
  0
LWPOLYLINE
  5
5F
330
17
100
AcDbEntity
  8
K
100
AcDbPolyline
 90
5
 70
1
 10
4736.205390199112
 20
467.9585302198518
 10
4738.44552508466
 20
470.2442550293989
 10
4740.685659970209
 20
467.9585302198518
 10
4738.44552508466
 20
465.6728054103044
 10
4736.205390199112
 20
467.9585302198518
  0
LWPOLYLINE
  5
60
330
17
100
AcDbEntity
  8
K
100
AcDbPolyline
 90
132
 70
1
 10
4683.787739972865
 20
338.759820708923
 10
4687.987973544649
 20
340.1883921374943
 10
4692.802976624007
 20
345.1013873627088
 10
4690.798788265555
 20
347.14636379849117
 10
4662.782425825944
 20
348.57569055721916
 10
4660.6161923041345
 20
352.25955630418514
 10
4664.841437578434
 20
356.57079131605576
 10
4664.841437578434
 20
359.4238389363923
 10
4673.983601869746
 20
370.18717006182146
 10
4678.249982087714
 20
371.63823909849435
 10
4681.022336227172
 20
370.22385135820844
 10
4683.042449722832
 20
372.28507703034154
 10
4683.042449722832
 20
375.07161465908325
 10
4680.21461521958
 20
379.3996920818382
 10
4683.842488651464
 20
383.10139788654175
 10
4685.248275145654
 20
381.66700164217895
 10
4694.197094943225
 20
389.3931824715223
 10
4690.8008652881235
 20
392.8585302198516
 10
4686.600631716338
 20
392.8585302198516
 10
4685.192575556588
 20
394.29524232069014
 10
4678.192186270281
 20
395.72381374926147
 10
4667.008227062901
 20
407.1353823981806
 10
4660.080819297219
 20
405.72170432923747
 10
4655.8280390305845
 20
402.8288174089868
 10
4654.427961173324
 20
404.2573888375583
 10
4650.271407862537
 20
401.4299587912803
 10
4644.671096433491
 20
401.4299587912803
 10
4640.427182600709
 20
398.54310312327254
 10
4638.997984569449
 20
400.0013873627087
 10
4632.008820147442
 20
400.0013873627087
 10
4627.8085865756575
 20
402.8585302198516
 10
4623.597128139573
 20
402.8585302198516
 10
4622.1970502823115
 20
404.2871016484232
 10
4612.396505281481
 20
404.2871016484232
 10
4610.996427424219
 20
405.7156730769945
 10
4606.8841858608885
 20
405.7156730769945
 10
4597.0731349804455
 20
394.2748505750838
 10
4591.3855176723555
 20
395.7256926730509
 10
4587.18528410057
 20
400.0114069587651
 10
4581.584972671525
 20
401.4399783873367
 10
4575.974930053013
 20
407.16419333460453
 10
4569.573709610617
 20
410.7928013138625
 10
4571.7942474208985
 20
413.0585302198516
 10
4580.194714564468
 20
413.0585302198516
 10
4581.636805071377
 20
414.5299693151131
 10
4583.0788955782855
 20
413.0585302198516
 10
4587.195103850774
 20
413.0585302198516
 10
4588.595181708036
 20
414.48710164842294
 10
4591.395337422559
 20
414.48710164842294
 10
4593.4374668580995
 20
416.57079131605576
 10
4593.4374668580995
 20
419.4279341731987
 10
4597.637700429884
 20
423.7136484589129
 10
4597.637700429884
 20
435.0546037767688
 10
4589.990588486017
 20
441.4386650239156
 10
4584.385128386048
 20
442.86854981590807
 10
4582.1968259003515
 20
445.10138736270864
 10
4584.416964076131
 20
447.36670850106543
 10
4587.229824267362
 20
445.9316555570748
 10
4591.400923137166
 20
448.76897999120945
 10
4602.601545995258
 20
450.1975514197808
 10
4606.830914269022
 20
453.0745126999319
 10
4609.618365506837
 20
451.6524227867799
 10
4610.996427424219
 20
453.05853021985166
 10
4615.2806862953
 20
453.05853021985166
 10
4618.086635798668
 20
450.195475662038
 10
4627.887180799498
 20
448.7669042334667
 10
4630.681542725176
 20
445.91567307699455
 10
4634.872338035587
 20
445.91567307699455
 10
4639.8924558801455
 20
442.25689852915497
 10
4635.639802575943
 20
437.91769769507596
 10
4635.639802575943
 20
430.7748405522188
 10
4631.439569004158
 20
426.48912626650457
 10
4631.439569004158
 20
423.72111934027356
 10
4637.674778031107
 20
418.7728159341374
 10
4640.482087726005
 20
418.7728159341374
 10
4641.882165583268
 20
417.34424450556605
 10
4648.871330005274
 20
417.34424450556605
 10
4653.071563577059
 20
414.48710164842294
 10
4658.660708582927
 20
414.48710164842294
 10
4665.661097869235
 20
411.6299587912803
 10
4675.484034157543
 20
411.6299587912803
 10
4676.884112014804
 20
410.2013873627087
 10
4695.085124159203
 20
410.2013873627087
 10
4697.243228295448
 20
407.9993627446273
 10
4697.243228295448
 20
390.7924887002726
 10
4695.864063788984
 20
387.9780237774616
 10
4697.243228295448
 20
386.57079131605576
 10
4697.243228295448
 20
346.48912626650474
 10
4695.883168537842
 20
345.1013873627088
 10
4697.243228295448
 20
343.71364845891304
 10
4697.243228295448
 20
315.1422198874844
 10
4699.24334508134
 20
313.1013978865417
 10
4701.243461867231
 20
315.1422198874844
 10
4701.243461867231
 20
339.4279341731988
 10
4703.401566003477
 20
341.6299587912802
 10
4709.085902731817
 20
341.6299587912802
 10
4710.485980589078
 20
340.20138736270866
 10
4718.886447732648
 20
340.20138736270866
 10
4721.093690783385
 20
337.94922378348946
 10
4714.679060180488
 20
332.85853021985156
 10
4711.88605844634
 20
332.85853021985156
 10
4708.443851153539
 20
329.3462691236474
 10
4708.443851153539
 20
325.0605548379332
 10
4705.673242523895
 20
322.2335603907781
 10
4709.095953977916
 20
317.344244505566
 10
4713.286136303603
 20
317.344244505566
 10
4715.492312238968
 20
315.09316975902925
 10
4708.443851153539
 20
309.3396439419792
 10
4708.443851153539
 20
302.2674288822876
 10
4709.864842361599
 20
299.3676080908133
 10
4708.443851153539
 20
297.917697695076
 10
4708.443851153539
 20
295.0605548379331
 10
4705.643695439016
 20
292.20341198079046
 10
4705.643695439016
 20
289.3462691236476
 10
4703.443578653124
 20
287.1013768388758
 10
4701.243461867231
 20
289.3462691236476
 10
4701.243461867231
 20
306.4891262665047
 10
4699.24334508134
 20
308.5299482674472
 10
4697.243228295448
 20
306.4891262665047
 10
4697.243228295448
 20
289.3462691236476
 10
4695.085124159203
 20
287.14424450556595
 10
4671.199775286463
 20
287.14424450556595
 10
4669.001653050562
 20
289.3871016484232
 10
4670.441749007479
 20
290.8565056017701
 10
4670.441749007479
 20
313.71364845891304
 10
4673.241904722002
 20
316.57079131605593
 10
4673.241904722002
 20
319.34626912364763
 10
4670.441749007479
 20
322.2034119807903
 10
4670.441749007479
 20
329.4279341731986
 10
4673.9901112507805
 20
333.04851062379515
 10
4679.5904226798275
 20
334.4770820523667
 10
4683.787739972865
 20
338.759820708923
  0
LWPOLYLINE
  5
61
330
17
100
AcDbEntity
  8
K
100
AcDbPolyline
 90
14
 70
1
 10
4721.09433743418
 20
363.662849686719
 10
4709.078287514041
 20
354.2871016484231
 10
4706.285747017295
 20
354.2871016484231
 10
4703.443578653124
 20
351.3870911245901
 10
4701.243461867231
 20
353.63198340936185
 10
4701.243461867231
 20
385.1574182339054
 10
4704.851062959405
 20
387.3660307703718
 10
4711.244006868063
 20
382.2925479117022
 10
4711.244006868063
 20
375.06055483793324
 10
4708.443851153539
 20
372.20341198079035
 10
4708.443851153539
 20
369.42793417319865
 10
4711.88605844634
 20
365.91567307699444
 10
4718.886447732648
 20
365.91567307699444
 10
4721.09433743418
 20
363.662849686719
  0
LWPOLYLINE
  5
62
330
17
100
AcDbEntity
  8
K
100
AcDbPolyline
 90
6
 70
1
 10
4708.473398238418
 20
397.94784610506395
 10
4704.8593470055075
 20
394.26024380069845
 10
4701.243461867231
 20
396.4739279200836
 10
4701.243461867231
 20
400.87170394819117
 10
4704.871647308682
 20
403.092918446656
 10
4708.473398238418
 20
397.94784610506395
  0
LWPOLYLINE
  5
63
330
17
100
AcDbEntity
  8
K
100
AcDbPolyline
 90
7
 70
1
 10
4703.443578653124
 20
264.2442339817329
 10
4701.243461867231
 20
266.4891262665047
 10
4701.243461867231
 20
269.42793417319876
 10
4703.443578653124
 20
271.6728264579703
 10
4705.643695439016
 20
269.42793417319876
 10
4705.643695439016
 20
266.4891262665047
 10
4703.443578653124
 20
264.2442339817329
  0
LWPOLYLINE
  5
64
330
17
100
AcDbEntity
  8
K
100
AcDbPolyline
 90
14
 70
1
 10
4657.795756788743
 20
517.9531494948743
 10
4659.9991524283705
 20
520.2013873627088
 10
4664.199386000156
 20
520.2013873627088
 10
4665.599463857417
 20
521.6299587912802
 10
4672.672653578719
 20
521.6299587912802
 10
4676.878526300196
 20
518.7689799912096
 10
4688.089829327129
 20
517.3390463719588
 10
4690.884890587418
 20
514.487101648423
 10
4695.085124159203
 20
514.487101648423
 10
4697.243228295448
 20
512.2850770303414
 10
4697.243228295448
 20
500.7748405522189
 10
4695.081565970198
 20
498.56918533093784
 10
4678.2008723202225
 20
500.0045386410977
 10
4657.795756788743
 20
517.9531494948743
  0
LWPOLYLINE
  5
65
330
17
100
AcDbEntity
  8
K
100
AcDbPolyline
 90
14
 70
1
 10
4695.078966338425
 20
244.28081850725349
 10
4685.1947600702315
 20
245.72158477766536
 10
4683.042449722832
 20
247.917697695076
 10
4683.042449722832
 20
256.4891262665047
 10
4681.000320287293
 20
258.5728159341373
 10
4676.8037159388805
 20
258.5728159341373
 10
4664.8087814595365
 20
269.3719763034547
 10
4668.389568325841
 20
274.48710164842305
 10
4671.283800585758
 20
274.48710164842305
 10
4672.686466928805
 20
273.05588905470665
 10
4695.087712644989
 20
271.6273176261351
 10
4697.243228295448
 20
269.42793417319876
 10
4697.243228295448
 20
246.48912626650466
 10
4695.078966338425
 20
244.28081850725349
  0
LWPOLYLINE
  5
66
330
17
100
AcDbEntity
  8
K
100
AcDbPolyline
 90
17
 70
1
 10
4656.668649223595
 20
137.971120653267
 10
4651.018980550842
 20
129.32414948134695
 10
4643.278168653656
 20
121.4258010767123
 10
4613.792671007136
 20
124.29109339745992
 10
4612.407418491218
 20
125.70453776795232
 10
4606.819239039749
 20
124.27906105951536
 10
4602.607185144951
 20
127.14424450556605
 10
4595.595570994344
 20
127.14424450556605
 10
4593.4374668580995
 20
129.34626912364743
 10
4593.4374668580995
 20
133.7136484589131
 10
4595.593905461179
 20
135.9139736478665
 10
4630.595851892716
 20
137.34254507643806
 10
4631.997595283141
 20
138.77281593413738
 10
4650.198607427541
 20
138.77281593413738
 10
4651.598685284802
 20
140.20138736270883
 10
4654.482866298621
 20
140.20138736270883
 10
4656.668649223595
 20
137.971120653267
  0
LWPOLYLINE
  5
67
330
17
100
AcDbEntity
  8
K
100
AcDbPolyline
 90
35
 70
1
 10
4586.388365863685
 20
320.7930024897866
 10
4594.190521961025
 20
330.2013873627089
 10
4596.995648851605
 20
330.2013873627089
 10
4599.813414283791
 20
333.0764983202591
 10
4606.857827864254
 20
330.2013873627089
 10
4611.069227859216
 20
330.2013873627089
 10
4615.2775578052415
 20
327.3387370742676
 10
4630.688834990867
 20
324.4796609747761
 10
4632.081620582438
 20
323.0585302198518
 10
4637.681932011483
 20
323.0585302198518
 10
4639.880054247384
 20
320.8156730769945
 10
4637.090410868776
 20
317.969256496721
 10
4642.690722297822
 20
313.6835422110068
 10
4641.24011400499
 20
312.20341198079046
 10
4641.24011400499
 20
309.3462691236474
 10
4638.467637079196
 20
306.51736835786517
 10
4641.24011400499
 20
302.27401720919147
 10
4641.24011400499
 20
297.917697695076
 10
4639.0820098687445
 20
295.7156730769946
 10
4619.480919867084
 20
295.7156730769946
 10
4617.4788085312
 20
293.6728159341374
 10
4623.079119960246
 20
287.95853021985164
 10
4619.438907217436
 20
284.2442339817329
 10
4618.001583027493
 20
285.7108097587139
 10
4611.70526869776
 20
284.9969816185217
 10
4600.459585696853
 20
295.03721165160744
 10
4596.221614708392
 20
302.24424450556586
 10
4598.368666375219
 20
305.89548986427707
 10
4605.381188470189
 20
308.7575846128349
 10
4607.398227331058
 20
310.8156730769945
 10
4605.396115995174
 20
312.85853021985156
 10
4601.20710728769
 20
312.85853021985156
 10
4597.006873715905
 20
315.7156730769947
 10
4594.207887997045
 20
315.7156730769947
 10
4586.388365863685
 20
320.7930024897866
  0
LWPOLYLINE
  5
68
330
17
100
AcDbEntity
  8
K
100
AcDbPolyline
 90
30
 70
1
 10
4555.077338433057
 20
500.20138736270883
 10
4562.077727719365
 20
500.20138736270883
 10
4563.4778055766255
 20
498.7728159341375
 10
4570.478194862933
 20
498.7728159341375
 10
4571.878272720195
 20
497.34424450556594
 10
4577.47858414924
 20
497.34424450556594
 10
4581.6886374712285
 20
493.04851062379527
 10
4587.283238934961
 20
491.6213957380261
 10
4594.283628221269
 20
485.90711002374053
 10
4599.8896496156285
 20
484.4770820523666
 10
4604.099614376879
 20
480.18143853367013
 10
4610.438401145237
 20
476.5882218254717
 10
4610.438401145237
 20
467.9176976950762
 10
4608.280297008992
 20
465.71567307699456
 10
4589.9952595652985
 20
465.71567307699456
 10
4588.637194357684
 20
467.10137683887575
 10
4587.279129150071
 20
465.71567307699456
 10
4573.19432527816
 20
465.71567307699456
 10
4571.836260070547
 20
467.10137683887575
 10
4570.4781948629325
 20
465.71567307699456
 10
4564.793858134592
 20
465.71567307699456
 10
4563.393780277331
 20
467.1442445055659
 10
4560.677649862103
 20
467.1442445055659
 10
4559.270364151222
 20
465.70831853332515
 10
4550.786365497185
 20
467.151095211105
 10
4548.634975425733
 20
469.3462691236475
 10
4548.634975425733
 20
499.42793417319876
 10
4550.793079561977
 20
501.62995879128016
 10
4553.677260575795
 20
501.62995879128016
 10
4555.077338433057
 20
500.20138736270883
  0
LWPOLYLINE
  5
69
330
17
100
AcDbEntity
  8
K
100
AcDbPolyline
 90
9
 70
1
 10
4536.03427471038
 20
477.99936274462715
 10
4542.434625068056
 20
484.52996931511314
 10
4544.634741853948
 20
482.2850770303416
 10
4544.634741853948
 20
469.3462691236475
 10
4542.448781435742
 20
467.1158213087331
 10
4534.634196853119
 20
472.18994469804255
 10
4534.634196853119
 20
473.7136484589129
 10
4536.03427471038
 20
475.1422198874845
 10
4536.03427471038
 20
477.99936274462715
  0
LWPOLYLINE
  5
6A
330
17
100
AcDbEntity
  8
K
100
AcDbPolyline
 90
5
 70
1
 10
4544.659753556462
 20
490.80036127837525
 10
4542.414626940283
 20
488.50954314939366
 10
4540.209496579649
 20
492.259556304185
 10
4542.454623195828
 20
494.5503744331666
 10
4544.659753556462
 20
490.80036127837525
  0
LWPOLYLINE
  5
6B
330
17
100
AcDbEntity
  8
K
100
AcDbPolyline
 90
18
 70
1
 10
5377.8777879779645
 20
5.0040414928518295
 10
5375.454412308136
 20
7.922423801928313
 10
5375.454412308136
 20
13.708922352060782
 10
5376.640674036713
 20
15.137493780632227
 10
5376.640674036713
 20
17.99463663777512
 10
5379.659384515937
 20
21.629958791280266
 10
5387.963216615973
 20
21.629958791280266
 10
5389.149478344549
 20
23.058530219851715
 10
5404.659349924971
 20
23.058530219851715
 10
5411.728664418832
 20
15.964100394462942
 10
5412.9216567582935
 20
17.4007772505097
 10
5416.017293242951
 20
13.672815934137382
 10
5412.979339609107
 20
10.014319956320183
 10
5408.234292694801
 20
8.585748527748738
 10
5405.851030229052
 20
5.71567307699461
 10
5391.615889486135
 20
5.71567307699461
 10
5390.427363722
 20
4.284375153558284
 10
5377.8777879779645
 20
5.0040414928518295
  0
LWPOLYLINE
  5
6C
330
17
100
AcDbEntity
  8
K
100
AcDbPolyline
 90
28
 70
1
 10
4991.165603782176
 20
44.99303534530152
 10
4988.733088792214
 20
47.922423801928346
 10
4988.733088792214
 20
50.85177949491793
 10
4991.105612249367
 20
53.70892235206082
 10
4991.105612249367
 20
56.56985611256105
 10
5000.614392968758
 20
66.58954705673492
 10
5002.968229535132
 20
70.84150543815116
 10
5002.968229535132
 20
75.13749378063228
 10
5005.982791392089
 20
78.76781990071835
 10
5019.03167040643
 20
80.1963913292898
 10
5021.404529881389
 20
83.05393884033552
 10
5035.639670624307
 20
84.48251026890696
 10
5036.829744957344
 20
85.91567307699455
 10
5041.668679556083
 20
85.91567307699455
 10
5044.685534781214
 20
82.28258513785048
 10
5045.875542088298
 20
59.353271678760365
 10
5042.85494128466
 20
55.71567307699454
 10
5040.388530143074
 20
55.71567307699454
 10
5039.202268414498
 20
57.144244505565986
 10
5032.084698043039
 20
57.144244505565986
 10
5030.898436314462
 20
58.57281593413744
 10
5023.780865943003
 20
58.57281593413744
 10
5022.594604214427
 20
60.00138736270888
 10
5016.742587008294
 20
60.00138736270888
 10
5004.8799697225295
 20
51.42995879128031
 10
5001.329170939998
 20
51.42995879128031
 10
4995.4047742188
 20
45.722332095723736
 10
4991.165603782176
 20
44.99303534530152
  0
LWPOLYLINE
  5
6D
330
17
100
AcDbEntity
  8
K
100
AcDbPolyline
 90
61
 70
1
 10
5735.611173349653
 20
382.2442445055659
 10
5734.687551360904
 20
383.6427748250396
 10
5734.687551360904
 20
389.35304520876423
 10
5728.060524611806
 20
397.9540572642345
 10
5732.800627687454
 20
405.1314284718065
 10
5732.800627687454
 20
407.93283011077506
 10
5728.064134315369
 20
416.5391166689659
 10
5734.687551360904
 20
425.13544380236766
 10
5734.687551360904
 20
426.4999176821825
 10
5730.893864166027
 20
432.244244505566
 10
5735.63101319763
 20
439.41714275752076
 10
5735.63101319763
 20
447.92848911075413
 10
5733.303565385644
 20
451.45266498757974
 10
5730.576369705726
 20
452.8291537430681
 10
5729.652308778322
 20
451.42995879128034
 10
5727.765385104872
 20
451.42995879128034
 10
5725.878461431421
 20
448.57281593413745
 10
5721.161152247795
 20
448.57281593413745
 10
5720.21769041107
 20
447.1442445055659
 10
5718.223171698808
 20
447.1442445055659
 10
5715.814284196761
 20
450.7917347654914
 10
5716.7656507426545
 20
457.99443768710603
 10
5720.110095372259
 20
463.05853021985166
 10
5723.048075921246
 20
463.05853021985166
 10
5723.99153775797
 20
461.6299587912801
 10
5731.43163741296
 20
461.6299587912801
 10
5733.318561086411
 20
464.487101648423
 10
5736.148946596586
 20
464.487101648423
 10
5737.092408433311
 20
465.91567307699455
 10
5744.6401031271125
 20
465.91567307699455
 10
5745.5835649638375
 20
467.3442445055659
 10
5747.5780836761
 20
467.3442445055659
 10
5748.521545512825
 20
465.91567307699455
 10
5755.1257783699
 20
465.91567307699455
 10
5756.069240206626
 20
464.487101648423
 10
5763.596722143666
 20
464.487101648423
 10
5765.524071330639
 20
463.02792445957795
 10
5767.903907473365
 20
459.4244231987535
 10
5768.848410843749
 20
453.7038292050256
 10
5771.6825629931855
 20
447.98193899557714
 10
5771.6825629931855
 20
445.1314284718063
 10
5773.566698111767
 20
442.2785079898109
 10
5774.515817049203
 20
432.21854689238216
 10
5772.111363181154
 20
428.5777699541903
 10
5757.015973793553
 20
427.1491985256187
 10
5752.27351792699
 20
419.96826476814056
 10
5744.725823233188
 20
424.253979053855
 10
5741.863515136343
 20
419.9199282128422
 10
5740.934618077029
 20
421.32644594081535
 10
5738.675830025197
 20
416.5381482823264
 10
5740.920053299618
 20
413.1399893697182
 10
5743.750438809793
 20
417.42570365543264
 10
5746.209093401606
 20
413.7028570432349
 10
5746.209093401606
 20
409.4198556240806
 10
5755.664026771014
 20
396.535028246516
 10
5743.753685140595
 20
377.0578698252024
 10
5740.927841073483
 20
381.3367075468078
 10
5736.243827974221
 20
372.82577850969477
 10
5734.710479343071
 20
373.5997006615096
 10
5732.7871337261295
 20
377.9681390370898
 10
5735.611173349653
 20
382.2442445055659
  0
LWPOLYLINE
  5
6E
330
17
100
AcDbEntity
  8
K
100
AcDbPolyline
 90
49
 70
1
 10
5720.133443948785
 20
88.80816989126083
 10
5722.4225474834775
 20
92.27428561466367
 10
5722.4225474834775
 20
95.07134625361114
 10
5720.535623810027
 20
97.92848911075403
 10
5720.535623810027
 20
113.7063185467918
 10
5728.062940487536
 20
123.67931955290268
 10
5719.140827645131
 20
138.61108048365833
 10
5716.348348334237
 20
141.42995879128028
 10
5714.5569193907195
 20
141.42995879128028
 10
5713.578792603553
 20
139.94889837391779
 10
5704.0863993189
 20
148.5728159341374
 10
5702.184320474481
 20
148.5728159341374
 10
5698.816161717372
 20
153.6728159341374
 10
5701.240858637755
 20
157.34424450556594
 10
5706.9833496759475
 20
157.34424450556594
 10
5711.700658859573
 20
154.48710164842316
 10
5715.474506206475
 20
154.48710164842316
 10
5720.1918153901
 20
151.62995879128027
 10
5723.048075921246
 20
151.62995879128027
 10
5723.99153775797
 20
150.20138736270883
 10
5732.456819267527
 20
150.20138736270883
 10
5737.174128451154
 20
147.34424450556594
 10
5740.98344828904
 20
147.34424450556594
 10
5743.394199345001
 20
142.23380768211658
 10
5731.1350408477065
 20
125.0991206562505
 10
5733.439934370828
 20
121.60909604173109
 10
5742.87455273808
 20
117.32338175601686
 10
5745.265631564881
 20
113.70285704323513
 10
5745.265631564881
 20
105.13142847180646
 10
5747.5780836761
 20
101.62995879128023
 10
5755.105565613139
 20
101.62995879128023
 10
5757.032914800113
 20
100.17078160243531
 10
5761.291871453675
 20
93.72195288041452
 10
5766.036223290226
 20
83.66462644309125
 10
5763.616934900427
 20
80.0013873627089
 10
5760.67895435144
 20
80.0013873627089
 10
5759.735492514716
 20
81.42995879128023
 10
5753.242766207457
 20
81.42995879128023
 10
5746.63853335038
 20
70.00138736270888
 10
5736.148946596586
 20
70.00138736270888
 10
5735.205484759861
 20
71.42995879128034
 10
5730.595770615047
 20
71.42995879128034
 10
5728.705611264191
 20
68.5679165348041
 10
5712.559316125613
 20
70.00605793219216
 10
5710.157543606049
 20
73.64277482503978
 10
5710.157543606049
 20
77.93749059930066
 10
5708.255328252369
 20
82.2579364289241
 10
5715.421517450197
 20
91.66205260591376
 10
5720.133443948785
 20
88.80816989126083
  0
LWPOLYLINE
  5
6F
330
17
100
AcDbEntity
  8
K
100
AcDbPolyline
 90
20
 70
1
 10
5739.985536889757
 20
529.9334732029398
 10
5738.143465308848
 20
527.144244505566
 10
5729.652308778322
 20
527.144244505566
 10
5728.703792953316
 20
525.7080204269607
 10
5718.225475993843
 20
527.1503897220143
 10
5713.93139095295
 20
532.2075159514679
 10
5713.93139095295
 20
537.9351214441263
 10
5711.085877064823
 20
543.6799499497395
 10
5713.513923696791
 20
547.3564505888203
 10
5720.224874675394
 20
545.9047948047116
 10
5721.161152247795
 20
544.487101648423
 10
5724.914786837934
 20
544.487101648423
 10
5732.474998238183
 20
538.7633396583019
 10
5737.202439869359
 20
537.3316997590175
 10
5740.908677914099
 20
533.1227649838361
 10
5741.838845044287
 20
534.5312058282428
 10
5743.824449085961
 20
533.027924459578
 10
5747.172395086308
 20
527.9585302198516
 10
5744.702846073384
 20
524.2191874886543
 10
5739.985536889757
 20
529.9334732029398
  0
LWPOLYLINE
  5
70
330
17
100
AcDbEntity
  8
K
100
AcDbPolyline
 90
194
 70
1
 10
5588.650966668505
 20
156.55999990037793
 10
5590.537890341955
 20
153.70285704323504
 10
5590.537890341955
 20
150.84571418609227
 10
5595.626930443944
 20
143.13998936971828
 10
5598.403518434713
 20
147.34424450556594
 10
5601.230808621638
 20
147.34424450556594
 10
5609.702894904881
 20
161.5978745748302
 10
5611.632196905627
 20
163.0585302198516
 10
5619.159678842666
 20
163.0585302198516
 10
5621.449749218682
 20
166.52610991544347
 10
5613.902054524881
 20
176.52610991544339
 10
5616.317458768606
 20
180.1834676979417
 10
5620.091306115508
 20
181.61203912651314
 10
5622.395752942633
 20
185.10138736270886
 10
5619.144683141901
 20
190.02409355900818
 10
5616.314297631726
 20
191.45266498757962
 10
5613.924436260084
 20
195.0713462536112
 10
5613.924436260084
 20
202.21420339646835
 10
5610.673824120887
 20
207.1362166106374
 10
5590.861125549658
 20
204.27907375349452
 10
5588.43747270718
 20
207.94892140261345
 10
5590.337890341954
 20
212.2652841261171
 10
5590.337890341954
 20
215.13142847180654
 10
5592.7427474143615
 20
218.77281593413744
 10
5609.725060475415
 20
218.77281593413744
 10
5611.608501074283
 20
221.6246847879889
 10
5625.76042862516
 20
223.05325621656024
 10
5629.019825647687
 20
227.98857132894923
 10
5629.019825647687
 20
232.21420339646838
 10
5624.816130467612
 20
238.57935627803195
 10
5613.494588426911
 20
240.00792770660328
 10
5611.096839304777
 20
243.63855244989242
 10
5610.14772036734
 20
253.6985135473212
 10
5612.980974423358
 20
257.98857132894926
 10
5612.980974423358
 20
276.5666873453784
 10
5617.267023117714
 20
281.61434920268493
 10
5624.808615299134
 20
284.4691819836559
 10
5625.7639116997425
 20
285.9156730769944
 10
5628.594297209917
 20
285.9156730769944
 10
5630.890016230929
 20
289.3918058401689
 10
5626.172707047303
 20
297.96323441159734
 10
5631.850211157862
 20
306.559999900378
 10
5631.850211157862
 20
312.27428561466377
 10
5634.245321276161
 20
315.9009144300494
 10
5638.9690077969735
 20
317.3314171464251
 10
5643.1764695923175
 20
322.2865275371215
 10
5644.119089314818
 20
329.4230091156777
 10
5648.460793300553
 20
335.997132226861
 10
5650.414751931515
 20
333.0384863504229
 10
5663.529172161953
 20
327.3648868729574
 10
5667.284842575391
 20
331.6299587912802
 10
5670.106618025825
 20
331.6299587912802
 10
5671.050079862551
 20
333.05853021985155
 10
5678.597774556351
 20
333.05853021985155
 10
5681.830634073233
 20
337.9536627611258
 10
5675.759588744915
 20
345.73206559140544
 10
5671.987116865753
 20
347.16011634340185
 10
5667.2829103462445
 20
352.85853021985156
 10
5665.393915468196
 20
352.85853021985156
 10
5658.820178905456
 20
361.39037859866016
 10
5655.065026157628
 20
358.5473892393408
 10
5649.370670374633
 20
362.8585302198516
 10
5647.463533944421
 20
362.8585302198516
 10
5645.57661027097
 20
365.7156730769945
 10
5643.68968659752
 20
365.7156730769945
 10
5642.7462247607955
 20
367.14424450556606
 10
5640.00322153267
 20
367.14424450556606
 10
5636.229374185769
 20
364.2871016484232
 10
5632.47573959563
 20
364.2871016484232
 10
5631.491639456498
 20
362.79699649854456
 10
5628.076363810961
 20
366.4908132623507
 10
5628.076363810961
 20
375.1314284718065
 10
5630.906749321137
 20
379.4171427575207
 10
5630.906749321137
 20
389.3607615212905
 10
5625.245978300786
 20
399.3607615212905
 10
5625.245978300786
 20
402.2142033964683
 10
5623.359054627335
 20
405.0713462536112
 10
5623.359054627335
 20
409.4171427575207
 10
5628.061235433009
 20
416.53709280688224
 10
5625.245978300786
 20
422.2208357298406
 10
5625.245978300786
 20
425.13142847180654
 10
5627.650835373193
 20
428.7728159341374
 10
5633.419201432355
 20
428.7728159341374
 10
5634.362663269081
 20
427.3442445055658
 10
5642.853819799608
 20
427.3442445055658
 10
5643.797281636333
 20
425.9156730769945
 10
5652.268225410097
 20
425.9156730769945
 10
5654.201520547425
 20
424.4519942673831
 10
5656.594650230108
 20
419.3789121573769
 10
5654.187196404194
 20
415.7335927417617
 10
5650.413349057293
 20
414.30502131319014
 10
5647.140792372544
 20
409.34978009809265
 10
5646.197330535819
 20
403.6354943838069
 10
5644.315215035289
 20
400.78563196789696
 10
5644.315215035289
 20
399.4171427575207
 10
5647.571128983233
 20
394.48710164842316
 10
5652.288438166859
 20
394.48710164842316
 10
5653.231900003583
 20
393.0585302198516
 10
5663.502385168748
 20
393.0585302198516
 10
5666.758299116693
 20
397.9885713289494
 10
5666.758299116693
 20
402.2742856146636
 10
5669.2073220362945
 20
405.98254813750555
 10
5682.415787750447
 20
390.26826242322
 10
5684.688882187391
 20
393.7101374844679
 10
5685.632344024116
 20
399.42442319875346
 10
5688.032392923603
 20
403.0585302198516
 10
5694.744220819491
 20
403.0585302198516
 10
5696.6311444929415
 20
400.2013873627087
 10
5699.467362892069
 20
400.2013873627087
 10
5703.769754453017
 20
392.2391021309607
 10
5700.404991839842
 20
387.14424450556584
 10
5694.65683853744
 20
387.14424450556584
 10
5692.82816971869
 20
388.52871175431756
 10
5691.913835309316
 20
387.14424450556584
 10
5690.026911635865
 20
387.14424450556584
 10
5687.73684125985
 20
383.676664809974
 10
5702.82607801963
 20
363.68481647491456
 10
5700.414589309859
 20
358.5728159341374
 10
5696.6311444929415
 20
358.5728159341374
 10
5694.318692381723
 20
355.0713462536111
 10
5694.318692381723
 20
346.56401523093916
 10
5700.922925238799
 20
337.9925866595105
 10
5700.922925238799
 20
335.13142847180643
 10
5701.866387075524
 20
333.7028570432351
 10
5701.866387075524
 20
326.4999176821827
 10
5699.407732483711
 20
322.7770710699852
 10
5698.41047312758
 20
324.2871016484231
 10
5695.6042818896385
 20
324.2871016484231
 10
5689.000049032562
 20
328.57281593413734
 10
5687.101031395758
 20
328.57281593413734
 10
5684.3330827085865
 20
331.36693171520557
 10
5677.354041017244
 20
319.39039976260165
 10
5680.604127832498
 20
314.4691819836559
 10
5684.3855426858945
 20
313.0377459125665
 10
5686.788184608855
 20
307.9444992555508
 10
5681.473876290516
 20
301.3607361806022
 10
5680.538495749207
 20
302.7770710699852
 10
5673.033164037749
 20
291.4126448392881
 10
5668.315854854123
 20
292.84121626785964
 10
5666.450112671844
 20
290.0161460096541
 10
5661.719817685873
 20
288.58364201158446
 10
5656.990592179514
 20
284.28710164842306
 10
5653.231900003583
 20
284.28710164842306
 10
5649.9759860556405
 20
279.3570605393255
 10
5649.9759860556405
 20
276.55999990037793
 10
5653.241646957692
 20
271.61520014433495
 10
5657.958956141318
 20
270.1866287157636
 10
5661.317367944318
 20
265.1013873627089
 10
5659.410604422892
 20
262.2142033964682
 10
5659.410604422892
 20
257.92848911075396
 10
5657.005747350485
 20
254.28710164842306
 10
5647.571128983233
 20
254.28710164842306
 10
5644.315215035289
 20
249.3570605393255
 10
5644.315215035289
 20
246.5599999003779
 10
5647.145600545464
 20
242.27428561466368
 10
5647.145600545464
 20
239.42115808808197
 10
5653.772627294563
 20
230.8201460326117
 10
5646.20213870874
 20
219.35706053932546
 10
5646.20213870874
 20
216.5490494124527
 10
5649.044692120941
 20
209.3754849381767
 10
5642.438445281316
 20
199.37243540525827
 10
5644.305997097766
 20
193.71681466363188
 10
5647.571128983233
 20
188.7728159341374
 10
5662.65984054024
 20
188.7728159341374
 10
5667.377149723866
 20
183.05853021985163
 10
5672.101136738087
 20
183.05853021985163
 10
5673.051782839136
 20
181.61908051899744
 10
5679.65067653494
 20
180.191664012339
 10
5684.88120468018
 20
173.71169408920395
 10
5685.825625100797
 20
162.2715109090487
 10
5688.673049739324
 20
156.52282477567826
 10
5685.309602452239
 20
151.42995879128028
 10
5683.422678778789
 20
151.42995879128028
 10
5680.166764830845
 20
146.49991768218263
 10
5680.166764830845
 20
139.41714275752082
 10
5682.051726123612
 20
136.56297129876205
 10
5682.999152001911
 20
122.2172342721718
 10
5680.594495273387
 20
118.57615016662282
 10
5657.840992029217
 20
117.14061229918093
 10
5648.385013275889
 20
132.89047583937463
 10
5646.554111854634
 20
134.27663336961194
 10
5641.920104916991
 20
132.87328886679694
 10
5639.071911271098
 20
128.5606098508829
 10
5619.25921269987
 20
132.84632413659725
 10
5615.493426534577
 20
127.14424450556605
 10
5606.06226408051
 20
127.14424450556605
 10
5598.473593029807
 20
114.21730035202448
 10
5594.694843992736
 20
118.50858117015318
 10
5590.960183102317
 20
112.85363082051836
 10
5582.789407877992
 20
113.58139715935988
 10
5583.263310546942
 20
168.83460566813412
 10
5586.261105296863
 20
167.32153830926666
 10
5588.650966668505
 20
163.70285704323507
 10
5588.650966668505
 20
156.55999990037793
  0
LWPOLYLINE
  5
71
330
17
100
AcDbEntity
  8
K
100
AcDbPolyline
 90
20
 70
1
 10
5637.193048779256
 20
85.71567307699456
 10
5636.195789423125
 20
84.20564249855656
 10
5633.737134831313
 20
87.92848911075401
 10
5633.737134831313
 20
96.55999990037789
 10
5636.132244949611
 20
100.18662871576367
 10
5650.383838488399
 20
104.50252545871952
 10
5656.056833000919
 20
97.344244505566
 10
5660.753719676415
 20
97.344244505566
 10
5665.471028860041
 20
94.4871016484231
 10
5673.988060411538
 20
94.4871016484231
 10
5676.417721619143
 20
90.80815625054473
 10
5672.108462295625
 20
85.73315933107195
 10
5665.504901475232
 20
82.87630721243767
 10
5660.764157530082
 20
77.13363393274386
 10
5657.371685724842
 20
77.86746455290539
 10
5654.077829914531
 20
81.42995879128023
 10
5650.300597285192
 20
81.42995879128023
 10
5645.614328275203
 20
87.10664416734882
 10
5643.777068879571
 20
85.71567307699456
 10
5637.193048779256
 20
85.71567307699456
  0
LWPOLYLINE
  5
72
330
17
100
AcDbEntity
  8
K
100
AcDbPolyline
 90
17
 70
1
 10
5639.392854816225
 20
442.2218515753676
 10
5640.346175861308
 20
447.9958517701822
 10
5644.633148434246
 20
454.487101648423
 10
5646.532172416575
 20
454.487101648423
 10
5649.36255792675
 20
457.3442445055659
 10
5652.180843128047
 20
457.3442445055659
 10
5653.124304964772
 20
458.77281593413744
 10
5657.005747350485
 20
458.77281593413744
 10
5661.297528096342
 20
452.27428561466365
 10
5661.297528096342
 20
447.92848911075413
 10
5657.949209187209
 20
442.8585302198517
 10
5655.106723368154
 20
442.8585302198517
 10
5652.276337857979
 20
440.0013873627088
 10
5649.458052656683
 20
440.0013873627088
 10
5648.510913820292
 20
438.5672482932842
 10
5641.327548931125
 20
439.2923756517145
 10
5639.392854816225
 20
442.2218515753676
  0
LWPOLYLINE
  5
73
330
17
100
AcDbEntity
  8
K
100
AcDbPolyline
 90
10
 70
1
 10
5617.380350208028
 20
50.20138736270885
 10
5620.728669117159
 20
45.131428471806515
 10
5620.728669117159
 20
37.928489110754086
 10
5618.321626540599
 20
34.283792400852334
 10
5606.42082854976
 20
35.0045906069959
 10
5601.659432382657
 20
42.21420339646831
 10
5601.659432382657
 20
45.071346253611196
 10
5600.696130697955
 20
46.5299587912803
 10
5603.120827618339
 20
50.20138736270885
 10
5617.380350208028
 20
50.20138736270885
  0
LWPOLYLINE
  5
74
330
17
100
AcDbEntity
  8
K
100
AcDbPolyline
 90
8
 70
1
 10
5592.815677502733
 20
194.53959063721416
 10
5597.142123199032
 20
187.9885713289494
 10
5597.142123199032
 20
179.35706053932543
 10
5594.7350806224695
 20
175.71236382942368
 10
5582.786472309608
 20
176.436057773683
 10
5583.264767157734
 20
188.74787747191456
 10
5588.0286770789735
 20
190.19056128526168
 10
5592.815677502733
 20
194.53959063721416
  0
LWPOLYLINE
  5
75
330
17
100
AcDbEntity
  8
K
100
AcDbPolyline
 90
13
 70
1
 10
6303.083480897666
 20
66.43421559940943
 10
6301.6577301741145
 20
69.39736973215005
 10
6305.797871469211
 20
75.13370525749762
 10
6305.797871469211
 20
79.42740273926097
 10
6307.959985004337
 20
81.67417545739342
 10
6309.383139340217
 20
80.19529644220769
 10
6319.006335837473
 20
78.76672501363625
 10
6321.120037393469
 20
76.57025988211818
 10
6321.120037393469
 20
69.34680055758524
 10
6319.000474424989
 20
67.144244505566
 10
6314.876247354737
 20
67.144244505566
 10
6313.49862935592
 20
65.71268483699765
 10
6303.083480897666
 20
66.43421559940943
  0
LWPOLYLINE
  5
76
330
17
100
AcDbEntity
  8
K
100
AcDbPolyline
 90
17
 70
1
 10
6283.731105297242
 20
22.21088144128103
 10
6285.176736117948
 20
23.71311702497525
 10
6285.176736117948
 20
26.57025988211814
 10
6287.926220831449
 20
29.427402739261034
 10
6287.926220831449
 20
33.69562256700309
 10
6290.675705544952
 20
39.40990828128888
 10
6290.675705544952
 20
42.284545596403824
 10
6296.96204615033
 20
48.81703260025061
 10
6298.379339073727
 20
47.34424450556596
 10
6301.128823787229
 20
47.34424450556596
 10
6304.661911644078
 20
43.67281593413741
 10
6303.240985219064
 20
42.19625206534461
 10
6300.492750500024
 20
27.917032474310098
 10
6295.6373650199375
 20
21.429958791280292
 10
6290.130884933223
 20
21.429958791280292
 10
6288.736999090136
 20
19.98149429875584
 10
6283.731105297242
 20
22.21088144128103
  0
LWPOLYLINE
  5
77
330
17
100
AcDbEntity
  8
K
100
AcDbPolyline
 90
51
 70
1
 10
7012.023075686535
 20
427.9249266889796
 10
7009.858444337766
 20
430.78206954612233
 10
7009.858444337766
 20
433.6392124032654
 10
7007.202958509289
 20
437.1442445055659
 10
6998.643826399248
 20
437.1442445055659
 10
6995.988340570771
 20
433.6392124032654
 10
6995.988340570771
 20
425.06778383183695
 10
6993.229439702336
 20
421.42625202352446
 10
6973.648464655715
 20
422.86210449743845
 10
6970.8950800599305
 20
426.4963552604083
 10
6970.8950800599305
 20
433.7064194650092
 10
6973.651172603374
 20
437.3442445055659
 10
6980.224786836665
 20
437.3442445055659
 10
6982.336271394111
 20
435.95074786589447
 10
6984.945692339989
 20
439.3949779520191
 10
6981.718236803774
 20
445.07496069660345
 10
6981.718236803774
 20
447.9249266889799
 10
6977.39508980289
 20
453.63114016545927
 10
6976.312774128506
 20
459.34542587974505
 10
6974.119919405464
 20
462.2398213675748
 10
6980.63592112939
 20
472.2738651592692
 10
6980.63592112939
 20
473.63921240326545
 10
6974.116568343359
 20
482.24424450556603
 10
6979.043077877246
 20
488.7468489944994
 10
6983.417785879855
 20
491.63398396296634
 10
6994.319355427617
 20
490.19506266199033
 10
6997.070656245154
 20
486.56356232215217
 10
6997.070656245154
 20
480.78206954612256
 10
6993.8237092220015
 20
476.49635526040834
 10
6993.8237092220015
 20
469.420705179295
 10
6995.988340570771
 20
466.5635623221521
 10
6995.988340570771
 20
460.84927660786633
 10
6999.726142073633
 20
455.91567307699455
 10
7003.9679750392415
 20
455.91567307699455
 10
7007.214922062395
 20
458.77281593413744
 10
7011.532221206825
 20
458.77281593413744
 10
7012.664233523727
 20
460.26698301587777
 10
7017.628538361803
 20
453.7144917028154
 10
7018.710854036187
 20
448.00020598852984
 10
7026.784033933241
 20
437.3442445055659
 10
7036.532813170557
 20
437.3442445055659
 10
7043.61023024368
 20
425.12826289199313
 10
7043.61023024368
 20
422.21064097469406
 10
7040.843692103761
 20
418.5590285696622
 10
7035.405055527254
 20
419.9947429379308
 10
7030.00606204423
 20
417.14424450556606
 10
7021.372455561319
 20
417.14424450556606
 10
7020.285500316735
 20
415.7095492098225
 10
7014.233638548522
 20
416.43572928130754
 10
7012.023075686535
 20
419.35349811755117
 10
7012.023075686535
 20
427.9249266889796
  0
LWPOLYLINE
  5
78
330
17
100
AcDbEntity
  8
K
100
AcDbPolyline
 90
12
 70
1
 10
7009.832985598042
 20
473.67281593413736
 10
7014.769988303434
 20
480.18927058283714
 10
7020.1815666753555
 20
481.61784201140847
 10
7022.355377950668
 20
484.487101648423
 10
7026.784033933241
 20
484.487101648423
 10
7029.535987594827
 20
480.8547396058683
 10
7030.627689445378
 20
472.20897695569397
 10
7025.694214059775
 20
467.1442445055659
 10
7021.372455561319
 20
467.1442445055659
 10
7020.267333674285
 20
465.68557067290163
 10
7012.597007449061
 20
470.02452483222976
 10
7009.832985598042
 20
473.67281593413736
  0
LWPOLYLINE
  5
79
330
17
100
AcDbEntity
  8
K
100
AcDbPolyline
 90
33
 70
1
 10
6996.47919505048
 20
175.71567307699453
 10
6995.396879376095
 20
174.2871016484231
 10
6985.556645021602
 20
174.2871016484231
 10
6982.800552478158
 20
177.92492668897975
 10
6982.800552478158
 20
180.7764844049683
 10
6976.904126414771
 20
187.144244505566
 10
6974.7334882777595
 20
187.144244505566
 10
6972.561091479127
 20
190.0116371447893
 10
6966.067197432821
 20
191.44020857336074
 10
6963.293411599517
 20
195.1013873627089
 10
6965.485598914845
 20
197.9949019249331
 10
6966.56791458923
 20
215.1377590677903
 10
6969.348483301498
 20
218.80789072303742
 10
6973.730892790359
 20
215.91567307699455
 10
6975.915197237177
 20
215.91567307699455
 10
6978.079828585946
 20
213.05853021985166
 10
6980.15173942199
 20
213.05853021985166
 10
6985.563317793911
 20
218.77281593413744
 10
6992.149932352942
 20
218.77281593413744
 10
6993.232248027327
 20
217.344244505566
 10
6999.726142073633
 20
217.344244505566
 10
7000.815182911242
 20
215.90679639132625
 10
7008.391392631932
 20
214.4782249627548
 10
7017.634654058456
 20
202.277848036438
 10
7017.634654058456
 20
197.92492668897964
 10
7016.581491852518
 20
196.53483554213335
 10
7024.128548104763
 20
187.99639006932657
 10
7024.128548104763
 20
182.21064097469397
 10
7020.315853150144
 20
177.17818398738794
 10
7015.948320959917
 20
172.85458516497764
 10
7000.705603457811
 20
174.29166990260225
 10
6999.626748788598
 20
175.71567307699453
 10
6996.47919505048
 20
175.71567307699453
  0
LWPOLYLINE
  5
7A
330
17
100
AcDbEntity
  8
K
100
AcDbPolyline
 90
9
 70
1
 10
7009.858444337766
 20
505.0582311561976
 10
7009.858444337766
 20
513.7064194650093
 10
7013.746549198111
 20
518.8384115873063
 10
7016.540748518598
 20
515.1502886029909
 10
7019.812394611884
 20
506.513658377853
 10
7017.043192863781
 20
502.8585302198515
 10
7014.878561515013
 20
502.8585302198515
 10
7013.758994102126
 20
501.3807894310379
 10
7009.858444337766
 20
505.0582311561976
  0
LWPOLYLINE
  5
7B
330
17
100
AcDbEntity
  8
K
100
AcDbPolyline
 90
10
 70
1
 10
6921.105545452575
 20
45.14170235801029
 10
6924.997572810841
 20
48.81110915126064
 10
6933.21403145648
 20
40.85805184564406
 10
6933.21403145648
 20
37.992133750723745
 10
6935.378662805249
 20
35.134990893580856
 10
6935.378662805249
 20
30.782069546122614
 10
6932.625806361032
 20
27.148515901614378
 10
6924.40918991238
 20
26.42549680617645
 10
6922.193159990957
 20
29.350481730196833
 10
6921.105545452575
 20
45.14170235801029
  0
LWPOLYLINE
  5
7C
330
17
100
AcDbEntity
  8
K
100
AcDbPolyline
 90
29
 70
1
 10
6864.828143970269
 20
415.1349908935807
 10
6864.828143970269
 20
416.4963552604083
 10
6862.167357796992
 20
420.0083834002969
 10
6857.251934249579
 20
420.72926916253186
 10
6857.251934249579
 20
447.9921337507239
 10
6858.929337799825
 20
450.20617429617613
 10
6874.180984850224
 20
448.7682476799583
 10
6875.259839519437
 20
447.3442445055659
 10
6878.494822989483
 20
447.3442445055659
 10
6881.741770012636
 20
444.4871016484232
 10
6884.9098583915975
 20
444.4871016484232
 10
6889.239121089135
 20
448.77281593413744
 10
6893.647242430863
 20
448.77281593413744
 10
6896.904799233904
 20
445.9063370278976
 10
6902.322140983841
 20
444.47624415833485
 10
6908.806163995512
 20
437.3442445055659
 10
6912.064542404287
 20
437.3442445055659
 10
6916.979296340715
 20
429.41558136223654
 10
6916.979296340715
 20
423.6367298550891
 10
6904.479631889145
 20
408.5728159341374
 10
6901.136022419625
 20
408.5728159341374
 10
6900.0537067452415
 20
410.0013873627087
 10
6880.6628468036215
 20
410.0013873627087
 10
6876.339467874894
 20
405.7214976604856
 10
6866.606614469161
 20
404.2940976860113
 10
6865.513299397313
 20
402.8510079192885
 10
6860.5438842854155
 20
403.5798119717254
 10
6858.3087911842385
 20
406.5299587912802
 10
6864.828143970269
 20
415.1349908935807
  0
LWPOLYLINE
  5
7D
330
17
100
AcDbEntity
  8
K
100
AcDbPolyline
 90
23
 70
1
 10
6885.39214178357
 20
312.2106409746942
 10
6882.736655955093
 20
315.7156730769947
 10
6879.5891022169735
 20
315.7156730769947
 10
6878.50678654259
 20
314.2871016484231
 10
6863.354367101209
 20
314.2871016484231
 10
6862.272051426826
 20
312.85853021985156
 10
6857.797449423836
 20
312.85853021985156
 10
6857.248984739536
 20
325.1653432263871
 10
6858.985011436135
 20
325.92914938654735
 10
6861.116915863067
 20
324.5221764373231
 10
6862.167357796992
 20
325.9086770394061
 10
6871.908198866451
 20
327.3372484679779
 10
6872.995814885634
 20
328.7728159341373
 10
6879.57420730265
 20
328.7728159341373
 10
6885.02302296038
 20
324.4576114781289
 10
6889.329943286433
 20
318.7728159341373
 10
6901.23541570466
 20
318.7728159341373
 10
6905.084305753729
 20
313.6925842735
 10
6902.901093232013
 20
306.4884129193427
 10
6897.9967875158845
 20
298.5766052321114
 10
6887.609734786759
 20
297.8550214773078
 10
6885.39214178357
 20
300.7820695461226
 10
6885.39214178357
 20
312.2106409746942
  0
LWPOLYLINE
  5
7E
330
17
100
AcDbEntity
  8
K
100
AcDbPolyline
 90
46
 70
1
 10
7830.641604849134
 20
165.71567307699453
 10
7827.669569419474
 20
165.71567307699453
 10
7824.147614831529
 20
170.80913780819307
 10
7827.662237143567
 20
177.34424450556597
 10
7849.506202087777
 20
177.34424450556597
 10
7850.4271753552275
 20
176.01232930364995
 10
7852.797162362656
 20
180.81080779280524
 10
7845.89644352705
 20
192.21634724747926
 10
7845.89644352705
 20
195.13259375316173
 10
7849.408160856064
 20
200.21125331978328
 10
7857.414873068289
 20
198.763835939481
 10
7858.396471415886
 20
197.34424450556597
 10
7863.335509931501
 20
197.34424450556597
 10
7865.863662233552
 20
193.688020592385
 10
7864.875854530427
 20
190.8308777352421
 10
7867.286740743995
 20
187.34424450556597
 10
7873.2135869627355
 20
187.34424450556597
 10
7874.201394665859
 20
185.91567307699452
 10
7878.067826546988
 20
185.91567307699452
 10
7880.00539587808
 20
187.31673331297117
 10
7889.945163661258
 20
200.2541718398294
 10
7893.507781434704
 20
196.57397755998772
 10
7894.4963644912405
 20
185.13643557790306
 10
7895.486828683215
 20
183.70402232459026
 10
7895.486828683215
 20
175.07018097225603
 10
7892.984534119001
 20
171.45135262236312
 10
7890.021111009632
 20
170.02278119379167
 10
7888.021514914746
 20
167.13095736937333
 10
7881.990883084111
 20
168.58454465872097
 10
7880.023377685009
 20
171.4299587912803
 10
7877.0599545756395
 20
171.4299587912803
 10
7876.089036847378
 20
172.83410387103893
 10
7866.217462154984
 20
168.5512106978112
 10
7860.326905906796
 20
175.65033225755988
 10
7857.95013596453
 20
172.21303811511314
 10
7857.95013596453
 20
166.56116518173314
 10
7859.923619107687
 20
163.70710601194838
 10
7860.915737793012
 20
149.35904613021413
 10
7858.394864893332
 20
145.71334971768746
 10
7841.991211069989
 20
146.43222939627486
 10
7838.960211466174
 20
150.8156730769946
 10
7840.957405011433
 20
153.70402232459023
 10
7840.957405011433
 20
156.49875240082744
 10
7837.547646450707
 20
161.4299587912803
 10
7834.592835661627
 20
161.4299587912803
 10
7830.641604849134
 20
165.71567307699453
  0
LWPOLYLINE
  5
7F
330
17
100
AcDbEntity
  8
K
100
AcDbPolyline
 90
16
 70
1
 10
7868.274548447119
 20
80.20138736270887
 10
7870.791636105133
 20
76.56116518173317
 10
7870.791636105133
 20
72.21303811511315
 10
7868.274548447119
 20
68.57281593413744
 10
7852.469625197145
 20
68.57281593413744
 10
7851.476902736487
 20
67.13713676367239
 10
7845.931687042543
 20
67.86618339901773
 10
7842.913968776467
 20
73.68516494203547
 10
7849.406346043058
 20
81.62995879128022
 10
7855.433048306517
 20
81.62995879128022
 10
7856.4208560096395
 20
80.20138736270887
 10
7858.291608216297
 20
80.20138736270887
 10
7859.27941591942
 20
81.62995879128022
 10
7863.335509931501
 20
81.62995879128022
 10
7864.323317634626
 20
80.20138736270887
 10
7868.274548447119
 20
80.20138736270887
  0
LWPOLYLINE
  5
80
330
17
100
AcDbEntity
  8
K
100
AcDbPolyline
 90
8
 70
1
 10
7866.859627126325
 20
259.3836939502884
 10
7864.316909425027
 20
255.70640549878888
 10
7847.411087186436
 20
258.58278989320485
 10
7844.8929178722055
 20
263.6812909603038
 10
7849.401338888186
 20
270.20138736270883
 10
7857.323864781399
 20
270.20138736270883
 10
7859.36088725463
 20
271.6743623635195
 10
7866.859627126325
 20
259.3836939502884
  0
LWPOLYLINE
  5
81
330
17
100
AcDbEntity
  8
K
100
AcDbPolyline
 90
34
 70
1
 10
7779.266991966432
 20
125.91567307699458
 10
7781.242607372679
 20
125.91567307699458
 10
7783.218222778925
 20
128.77281593413736
 10
7785.205913923596
 20
128.77281593413736
 10
7788.158115203569
 20
131.6191394217463
 10
7793.086734808404
 20
133.04469727627676
 10
7795.1243468162
 20
135.99149986512737
 10
7800.058735312521
 20
128.855367598668
 10
7808.359750808364
 20
142.27267764631023
 10
7808.359750808364
 20
145.070180972256
 10
7801.423518747489
 20
155.10138736270883
 10
7804.94295732914
 20
160.19121343559974
 10
7811.857611251003
 20
161.61978486417118
 10
7812.852453872624
 20
163.0585302198516
 10
7817.890890401981
 20
163.0585302198516
 10
7823.833817288554
 20
155.89629313885234
 10
7826.801418009741
 20
154.46570781734036
 10
7832.29251569597
 20
146.5244605065119
 10
7826.344522115101
 20
139.35611719764617
 10
7827.330649377811
 20
130.7992701838704
 10
7825.352481761461
 20
126.50801937355294
 10
7825.352481761461
 20
120.78934642303862
 10
7820.87615752626
 20
112.87707342144193
 10
7812.958941350485
 20
110.01459604179232
 10
7809.98715670401
 20
107.14939152584091
 10
7804.461003153612
 20
106.42285104938665
 10
7799.0371368489
 20
114.26686806889785
 10
7791.237183970028
 20
111.44678735082681
 10
7789.19750059746
 20
108.49698914600448
 10
7788.157261294543
 20
110.00138736270881
 10
7779.266991966432
 20
110.00138736270881
 10
7776.749904308419
 20
113.64160954368462
 10
7776.749904308419
 20
122.27545089601877
 10
7779.266991966432
 20
125.91567307699458
  0
LWPOLYLINE
  5
82
330
17
100
AcDbEntity
  8
K
100
AcDbPolyline
 90
56
 70
1
 10
7780.701135120911
 20
306.5611651817334
 10
7780.701135120911
 20
307.9273238293986
 10
7778.267547896782
 20
311.44678735082675
 10
7770.3819420751925
 20
314.29783597549346
 10
7766.4054275576045
 20
317.17326153006496
 10
7763.886826028802
 20
320.8156730769945
 10
7764.896211870939
 20
322.2754508960189
 10
7764.896211870939
 20
326.49875240082724
 10
7763.883639308385
 20
327.96313886759197
 10
7770.798293230248
 20
336.53456743902046
 10
7768.401107232075
 20
340.00138736270867
 10
7763.46206871646
 20
340.00138736270867
 10
7760.944981058446
 20
343.6416095436844
 10
7760.944981058446
 20
347.98973661030476
 10
7787.600071091053
 20
386.53843381744656
 10
7785.184128066467
 20
391.4299587912803
 10
7784.206030482049
 20
391.4299587912803
 10
7778.725519714666
 20
399.35589525797
 10
7778.725519714666
 20
403.6508765164098
 10
7776.73520491358
 20
407.96847828703267
 10
7779.2896411014135
 20
411.66271406036094
 10
7784.22867961703
 20
408.80557120321805
 10
7789.178732469155
 20
415.9643573233361
 10
7794.117770984772
 20
411.6786430376219
 10
7798.035338325775
 20
417.34424450556605
 10
7802.091432337857
 20
417.34424450556605
 10
7803.079240040981
 20
415.9156730769945
 10
7806.042663150351
 20
415.9156730769945
 10
7811.518969032884
 20
407.99581773149583
 10
7812.50768034529
 20
400.846426571949
 10
7815.472322646281
 20
395.1297899246363
 10
7816.460130349405
 20
383.70121849606477
 10
7819.445235061958
 20
377.94512475411733
 10
7813.9092260714
 20
371.3945989395949
 10
7811.917077769296
 20
372.8351253380345
 10
7807.998214288373
 20
370.00138736270895
 10
7806.042663150351
 20
370.00138736270895
 10
7803.623441276755
 20
366.50269906835143
 10
7804.611248979879
 20
355.0741276397799
 10
7803.620712292748
 20
353.6416095436844
 10
7803.620712292748
 20
342.21303811511285
 10
7801.645096886501
 20
339.3558952579702
 10
7801.645096886501
 20
326.5557741467168
 10
7805.596327698994
 20
319.41291700385966
 10
7805.596327698994
 20
316.56116518173314
 10
7806.605713541131
 20
315.1013873627085
 10
7801.641263865494
 20
307.92178049917527
 10
7799.665648459249
 20
292.2074947848897
 10
7796.164586119118
 20
287.14424450556595
 10
7794.188970712871
 20
287.14424450556595
 10
7792.215804923123
 20
284.2906442935454
 10
7781.730369988961
 20
283.5685453554372
 10
7778.709044822219
 20
289.3944819839035
 10
7781.667364685022
 20
293.6728159341374
 10
7776.728326169406
 20
300.8156730769945
 10
7780.701135120911
 20
306.5611651817334
  0
LWPOLYLINE
  5
83
330
17
100
AcDbEntity
  8
K
100
AcDbPolyline
 90
18
 70
1
 10
7804.0670477441045
 20
87.344244505566
 10
7807.030470853474
 20
87.344244505566
 10
7809.569136650502
 20
83.67281593413745
 10
7807.038580860618
 20
80.01311608729245
 10
7801.111734641879
 20
78.584544658721
 10
7800.115816931611
 20
77.14424450556601
 10
7793.201163009748
 20
77.14424450556601
 10
7792.210543711461
 20
75.71160693688716
 10
7782.72161718868
 20
76.43386605650915
 10
7780.695632980957
 20
79.36385247465383
 10
7781.694158016786
 20
85.14013598565772
 10
7786.190833483133
 20
91.64324592747286
 10
7792.221465313768
 20
90.18965863812534
 10
7793.187172189746
 20
88.79304951366274
 10
7797.138403002239
 20
90.22162094223418
 10
7798.140201525364
 20
88.77281593413744
 10
7803.079240040981
 20
88.77281593413744
 10
7804.0670477441045
 20
87.344244505566
  0
LWPOLYLINE
  5
84
330
17
100
AcDbEntity
  8
K
100
AcDbPolyline
 90
35
 70
1
 10
7761.928399305131
 20
262.2193861644698
 10
7762.916207008254
 20
269.36224330732716
 10
7757.587654097514
 20
277.06841771743285
 10
7753.636423285021
 20
271.3541320031473
 10
7752.596183982103
 20
272.85853021985173
 10
7746.669337763363
 20
272.85853021985173
 10
7744.15225010535
 20
276.49875240082724
 10
7744.15225010535
 20
280.78446668654146
 10
7743.142864263213
 20
282.24424450556586
 10
7745.681530060239
 20
285.9156730769944
 10
7752.596183982103
 20
285.9156730769944
 10
7753.636423285021
 20
287.42007129369887
 10
7757.640085697309
 20
281.62995879128016
 10
7758.523030200843
 20
281.62995879128016
 10
7761.538884910007
 20
285.9914998651275
 10
7766.084019574063
 20
279.41830803887626
 10
7766.084019574063
 20
276.5611651817334
 10
7768.505970431665
 20
273.0585302198517
 10
7776.388367788426
 20
273.0585302198517
 10
7782.315214007166
 20
268.7728159341375
 10
7785.193838185172
 20
268.7728159341375
 10
7786.181645888296
 20
270.20138736270883
 10
7797.152393822241
 20
270.20138736270883
 10
7799.691059619268
 20
266.52995879128025
 10
7797.152393822241
 20
262.85853021985173
 10
7795.176778415995
 20
262.85853021985173
 10
7793.201163009748
 20
260.00138736270884
 10
7790.229127580089
 20
260.00138736270884
 10
7786.285801988937
 20
255.7242474989011
 10
7782.732150638439
 20
254.9900611110073
 10
7779.266991966432
 20
260.00138736270884
 10
7773.445008947282
 20
260.00138736270884
 10
7772.464236162657
 20
258.5829898612463
 10
7765.4455158337805
 20
257.13291825386455
 10
7761.928399305131
 20
262.2193861644698
  0
LWPOLYLINE
  5
85
330
17
100
AcDbEntity
  8
K
100
AcDbPolyline
 90
31
 70
1
 10
7728.347326855377
 20
485.0701809722556
 10
7728.347326855377
 20
487.9273238293985
 10
7726.37171144913
 20
490.7844666865414
 10
7726.37171144913
 20
495.13522471417394
 10
7736.79425721698
 20
508.77281593413727
 10
7739.85954704109
 20
508.77281593413727
 10
7749.723633252321
 20
494.5073352279482
 10
7753.674864064814
 20
495.93590665651953
 10
7757.587654097514
 20
490.2772141508419
 10
7760.944981058446
 20
495.132593753162
 10
7760.944981058446
 20
503.65087651640994
 10
7758.95466625736
 20
507.9684782870325
 10
7761.486453310213
 20
511.62995879128016
 10
7763.566931916048
 20
511.62995879128016
 10
7764.554739619171
 20
510.20138736270883
 10
7769.493778134788
 20
510.20138736270883
 10
7770.481585837912
 20
508.77281593413727
 10
7782.340196847878
 20
508.77281593413727
 10
7787.828434398706
 20
499.39259387674997
 10
7783.851742648421
 20
490.76593274109035
 10
7777.380178002717
 20
481.4067302143493
 10
7770.37341621094
 20
484.3019321479961
 10
7767.441160275081
 20
487.12902561162133
 10
7763.578568282575
 20
485.73250163654114
 10
7761.55006613296
 20
482.798873760817
 10
7757.598835320466
 20
487.0845880465312
 10
7753.688854884816
 20
481.42995879128017
 10
7744.798585556706
 20
481.42995879128017
 10
7743.80663665223
 20
479.9953983408433
 10
7730.860507315003
 20
481.4356093971258
 10
7728.347326855377
 20
485.0701809722556
  0
LWPOLYLINE
  5
86
330
17
100
AcDbEntity
  8
K
100
AcDbPolyline
 90
35
 70
1
 10
7715.505826714774
 20
172.21303811511314
 10
7713.530211308527
 20
175.07018097225603
 10
7713.530211308527
 20
177.994192931761
 10
7719.985984108255
 20
185.89419349016023
 10
7727.891155339553
 20
190.18137726715733
 10
7731.902880741472
 20
194.5327071897237
 10
7735.483883980382
 20
190.83352067183057
 10
7732.515032560315
 20
185.10876769818907
 10
7734.920508525473
 20
181.6299587912803
 10
7740.821763517057
 20
181.6299587912803
 10
7745.760802032673
 20
178.7728159341374
 10
7748.64495316961
 20
178.7728159341374
 10
7749.632760872733
 20
180.20138736270886
 10
7760.608427379166
 20
180.20138736270886
 10
7766.084019574063
 20
170.84277811736413
 10
7766.084019574063
 20
165.07428232233923
 10
7760.604865118612
 20
155.70958463882013
 10
7746.69021397654
 20
157.14697205435314
 10
7741.755890474902
 20
160.00138736270887
 10
7738.766876138377
 20
160.00138736270887
 10
7737.779068435254
 20
161.4299587912803
 10
7731.957085416103
 20
161.4299587912803
 10
7729.556712697513
 20
157.95853021985172
 10
7731.957085416103
 20
154.48710164842316
 10
7733.927693667479
 20
154.48710164842316
 10
7740.426064697488
 20
146.53497316460695
 10
7737.882935418374
 20
142.8570894876332
 10
7711.601182234981
 20
143.5742362040694
 10
7709.578980496034
 20
146.49875240082744
 10
7709.578980496034
 20
150.84687946744745
 10
7713.083875857171
 20
155.9156730769945
 10
7715.059491263418
 20
155.9156730769945
 10
7718.452774931698
 20
160.8230534124747
 10
7715.505826714774
 20
166.50557105346365
 10
7715.505826714774
 20
172.21303811511314
  0
LWPOLYLINE
  5
87
330
17
100
AcDbEntity
  8
K
100
AcDbPolyline
 90
104
 70
1
 10
7539.65958066638
 20
65.10876769818907
 10
7536.712632449456
 20
70.79128533917789
 10
7536.712632449456
 20
73.6416095436846
 10
7534.715438904196
 20
76.52995879128032
 10
7538.241912404346
 20
81.62995879128022
 10
7548.1254546214295
 20
81.62995879128022
 10
7554.052300840169
 20
88.77281593413744
 10
7556.037545002849
 20
88.77281593413744
 10
7560.976583518464
 20
93.05853021985166
 10
7562.9371049824285
 20
93.05853021985166
 10
7564.912720388676
 20
95.91567307699455
 10
7566.9004115333455
 20
95.91567307699455
 10
7569.863834642716
 20
98.77281593413744
 10
7573.802989716784
 20
98.77281593413744
 10
7574.800546061031
 20
100.21548588626838
 10
7591.593277014127
 20
95.92977160055405
 10
7594.005479230607
 20
99.41830803887596
 10
7594.005479230607
 20
107.92732382939884
 10
7592.02986382436
 20
110.78446668654173
 10
7592.02986382436
 20
113.70402232459031
 10
7594.546951482375
 20
117.34424450556602
 10
7597.615237791333
 20
117.34424450556602
 10
7601.514037004033
 20
111.70578557941313
 10
7605.412836216731
 20
117.34424450556602
 10
7622.202447771834
 20
117.34424450556602
 10
7631.092717099944
 20
131.62995879128025
 10
7641.961721232293
 20
131.62995879128025
 10
7645.919774012664
 20
137.35411046264056
 10
7653.926486224889
 20
135.90669308233805
 10
7654.908084572485
 20
134.48710164842313
 10
7656.778836779143
 20
134.48710164842313
 10
7657.819076082061
 20
135.99149986512737
 10
7658.865524740506
 20
134.47812165376672
 10
7666.663735778253
 20
133.06839617692623
 10
7670.608144622869
 20
138.77281593413738
 10
7674.664238634951
 20
138.77281593413738
 10
7685.52799561577
 20
123.06160738548033
 10
7710.108999931264
 20
124.48357323327342
 10
7715.097520027335
 20
134.5837578750786
 10
7717.139969869254
 20
131.62995879128025
 10
7722.07900838487
 20
131.62995879128025
 10
7724.054623791117
 20
128.77281593413736
 10
7726.030239197363
 20
128.77281593413736
 10
7729.5351345584995
 20
123.70402232459021
 10
7729.5351345584995
 20
120.78446668654175
 10
7726.571711449131
 20
116.49875240082741
 10
7726.571711449131
 20
113.64571089376784
 10
7721.101842100179
 20
104.29688285145444
 10
7713.18390710686
 20
102.86551421703084
 10
7710.213240208967
 20
100.00138736270891
 10
7700.242375716568
 20
100.00138736270891
 10
7699.249011971085
 20
101.43799396183739
 10
7690.358742642975
 20
102.86656539040884
 10
7689.387591514307
 20
104.27104801476217
 10
7684.448552998691
 20
102.84247658619073
 10
7679.508162592101
 20
109.98728883914933
 10
7662.819090252923
 20
105.72802952396654
 10
7660.388595339869
 20
102.21303811511318
 10
7660.388595339869
 20
93.7040223245903
 10
7662.758114597677
 20
90.27721415084177
 10
7663.693490701005
 20
91.62995879128022
 10
7668.632529216622
 20
91.62995879128022
 10
7669.620336919746
 20
93.05853021985166
 10
7674.655626314662
 20
93.05853021985166
 10
7678.606857127155
 20
88.77281593413744
 10
7681.58860267552
 20
88.77281593413744
 10
7684.111698166549
 20
83.66434090797115
 10
7681.578892556814
 20
80.0013873627089
 10
7679.596589128002
 20
80.0013873627089
 10
7674.670378374666
 20
74.30194289708092
 10
7670.717543891815
 20
72.87279165989725
 10
7666.753164689676
 20
68.57281593413744
 10
7663.789741580306
 20
68.57281593413744
 10
7659.838510767812
 20
64.2871016484231
 10
7657.781738424549
 20
64.2871016484231
 10
7652.894187297163
 20
68.52813917476897
 10
7644.038671956108
 20
57.144244505565986
 10
7627.249468885033
 20
57.144244505565986
 10
7624.849096166443
 20
53.67281593413742
 10
7625.815325730553
 20
52.27545089601882
 10
7625.815325730553
 20
49.418308038876035
 10
7628.800326978936
 20
45.101387362708856
 10
7626.261661181909
 20
41.429958791280306
 10
7608.48112252569
 20
41.429958791280306
 10
7607.493314822567
 20
40.00138736270886
 10
7605.412836216731
 20
40.00138736270886
 10
7601.514037004033
 20
45.63984628886164
 10
7597.615237791333
 20
40.00138736270886
 10
7582.798122244484
 20
40.00138736270886
 10
7581.810314541361
 20
38.57281593413742
 10
7556.127314260155
 20
38.57281593413742
 10
7555.139506557031
 20
37.14424450556597
 10
7530.444313978949
 20
37.14424450556597
 10
7529.451591518289
 20
35.70856533510103
 10
7523.914112098143
 20
36.436594858634486
 10
7521.895516902606
 20
39.35589525797034
 10
7521.895516902606
 20
43.704022324590255
 10
7523.871132308853
 20
46.561165181733145
 10
7523.871132308853
 20
55.13259375316171
 10
7526.388219966867
 20
58.77281593413741
 10
7528.363835373113
 20
58.77281593413741
 10
7529.3516430762365
 20
60.20138736270886
 10
7536.266296998099
 20
60.20138736270886
 10
7539.65958066638
 20
65.10876769818907
  0
LWPOLYLINE
  5
88
330
17
100
AcDbEntity
  8
K
100
AcDbPolyline
 90
37
 70
1
 10
7686.3982747790415
 20
410.0227811937917
 10
7683.88128081999
 20
413.6628678669564
 10
7685.856896226236
 20
417.9485821526706
 10
7683.490895140315
 20
421.3703023322456
 10
7679.545365203645
 20
417.0907715184967
 10
7672.011580297055
 20
426.53344258513295
 10
7676.542520467828
 20
431.6299587912803
 10
7680.5910848536905
 20
431.6299587912803
 10
7683.496068983068
 20
427.4287591908327
 10
7689.8228264335685
 20
437.9861997121802
 10
7689.8228264335685
 20
442.27545089601904
 10
7692.339914091582
 20
445.91567307699455
 10
7696.316736131231
 20
445.91567307699455
 10
7701.312397484299
 20
448.80557120321805
 10
7702.322854322403
 20
447.3442445055659
 10
7705.208474937232
 20
447.3442445055659
 10
7713.167520194612
 20
451.6606455941018
 10
7714.176546759883
 20
450.2013873627088
 10
7716.047298966541
 20
450.2013873627088
 10
7717.0875382694585
 20
451.7057855794132
 10
7719.657057527267
 20
447.9897366103048
 10
7719.657057527267
 20
442.2130381151129
 10
7715.1119228632115
 20
435.6398462888614
 10
7714.10879854476
 20
437.0905686674317
 10
7705.289583859156
 20
428.5876464337105
 10
7698.3846576270425
 20
425.7345230690254
 10
7694.983443088197
 20
420.81567307699464
 10
7698.385197784992
 20
415.8960419063896
 10
7708.263274816225
 20
411.6103276206754
 10
7710.766788199157
 20
407.9897366103048
 10
7710.766788199157
 20
403.64160954368424
 10
7708.249700541143
 20
400.0013873627087
 10
7706.274085134897
 20
400.0013873627087
 10
7705.280856958985
 20
398.5649768248344
 10
7695.298310756628
 20
400.008656626479
 10
7689.361697888412
 20
408.59420976522034
 10
7686.3982747790415
 20
410.0227811937917
  0
LWPOLYLINE
  5
89
330
17
100
AcDbEntity
  8
K
100
AcDbPolyline
 90
13
 70
1
 10
7690.805131996736
 20
480.7924239032252
 10
7691.803657032566
 20
486.5687074142292
 10
7694.315529497828
 20
490.2013873627088
 10
7700.242375716568
 20
490.2013873627088
 10
7701.282615019486
 20
491.70578557941326
 10
7702.322854322403
 20
490.2013873627088
 10
7705.286277431774
 20
490.2013873627088
 10
7707.8249432288
 20
486.5299587912805
 10
7706.815557386663
 20
485.07018097225586
 10
7706.815557386663
 20
482.21303811511297
 10
7702.316812836333
 20
475.7069358558136
 10
7693.3221657523445
 20
477.15227967612304
 10
7690.805131996736
 20
480.7924239032252
  0
LWPOLYLINE
  5
8A
330
17
100
AcDbEntity
  8
K
100
AcDbPolyline
 90
13
 70
1
 10
7623.19337487295
 20
358.7728159341373
 10
7625.181066017621
 20
358.7728159341373
 10
7628.1321482728135
 20
361.6180605296885
 10
7637.101462674245
 20
364.5006067866946
 10
7640.078893287212
 20
361.6299587912802
 10
7642.061577277011
 20
361.6299587912802
 10
7648.534902902389
 20
353.70847864604684
 10
7648.534902902389
 20
352.21303811511285
 10
7645.028039404211
 20
347.1413981779504
 10
7631.62698740886
 20
347.8592002034685
 10
7623.176513449801
 20
350.0158665056058
 10
7620.660569263216
 20
355.10986238887523
 10
7623.19337487295
 20
358.7728159341373
  0
LWPOLYLINE
  5
8B
330
17
100
AcDbEntity
  8
K
100
AcDbPolyline
 90
10
 70
1
 10
8413.52640303163
 20
473.58110854701954
 10
8397.46101309056
 20
489.34512456816515
 10
8397.46101309056
 20
490.85511587638706
 10
8402.170191958132
 20
495.89603051929754
 10
8404.892963711272
 20
497.35331855036304
 10
8408.964371140586
 20
495.90057997995086
 10
8419.013958288175
 20
483.70871792578583
 10
8419.013958288175
 20
475.0619445633163
 10
8416.946545578136
 20
472.84889398782184
 10
8413.52640303163
 20
473.58110854701954
  0
LWPOLYLINE
  5
8C
330
17
100
AcDbEntity
  8
K
100
AcDbPolyline
 90
11
 70
1
 10
8388.18037428113
 20
435.00423763910777
 10
8382.76049354868
 20
439.3554988008749
 10
8386.784540491752
 20
449.40637632515114
 10
8386.784540491752
 20
453.72743818127606
 10
8390.237075360867
 20
455.94488636912035
 10
8392.93348431545
 20
453.05853021985166
 10
8398.281783723525
 20
453.05853021985166
 10
8401.657943168031
 20
447.9989423632674
 10
8403.007364232655
 20
442.2210209078222
 10
8396.93999500497
 20
434.2829539566705
 10
8388.18037428113
 20
435.00423763910777
  0
LWPOLYLINE
  5
8D
330
17
100
AcDbEntity
  8
K
100
AcDbPolyline
 90
125
 70
1
 10
8206.619065386869
 20
0.7171286888157935
 10
8206.619065386869
 20
3.712258733530094
 10
8209.288183536572
 20
6.569401590672874
 10
8209.288183536572
 20
16.569401590672882
 10
8210.622742611422
 20
17.997973019244327
 10
8210.622742611422
 20
20.87255074058514
 10
8216.700770573036
 20
24.48710164842316
 10
8223.357625835639
 20
24.48710164842316
 10
8226.642558337313
 20
28.00343959487106
 10
8227.977117412163
 20
38.00343959487107
 10
8230.641128734187
 20
40.855115876387124
 10
8230.641128734187
 20
45.140830162101466
 10
8231.92726177045
 20
46.517564203756855
 10
8222.600860305387
 20
53.6485607764654
 10
8225.308052359924
 20
57.9954090655127
 10
8226.64450022191
 20
65.14837541742668
 10
8228.695862135042
 20
67.34424450556598
 10
8236.721566491688
 20
67.34424450556598
 10
8242.059802791091
 20
70.20138736270887
 10
8246.045130108107
 20
70.20138736270887
 10
8247.99039670725
 20
72.2836873049586
 10
8247.99039670725
 20
77.91908742045905
 10
8246.039159084832
 20
80.00777901176237
 10
8236.683278728193
 20
81.43848625737648
 10
8234.621839817377
 20
85.1162461822742
 10
8235.97936503359
 20
86.56940159067294
 10
8235.97936503359
 20
89.42654444781573
 10
8239.991736603317
 20
93.72156554754763
 10
8242.658539577607
 20
105.14022390892907
 10
8247.99039670725
 20
113.70140965952757
 10
8247.99039670725
 20
116.56940159067287
 10
8250.659514856952
 20
119.42654444781576
 10
8250.659514856952
 20
122.28368730495853
 10
8252.706534395826
 20
124.474908122433
 10
8262.055645983119
 20
127.33425244453156
 10
8267.395315373702
 20
131.62111726368175
 10
8272.736393036932
 20
133.05044907282627
 10
8276.786969448192
 20
135.9410605811109
 10
8287.495064429408
 20
127.34424450556602
 10
8291.506994626774
 20
127.34424450556602
 10
8292.849764568111
 20
125.90688380008186
 10
8306.098234819785
 20
123.07053336337547
 10
8309.380114150395
 20
127.98883093814084
 10
8309.380114150395
 20
132.28368730495853
 10
8312.049232300098
 20
135.14083016210142
 10
8312.049232300098
 20
140.8378764897278
 10
8313.356880682664
 20
143.6374065414957
 10
8302.730382665222
 20
150.74682929933746
 10
8296.034523401886
 20
163.6484116604877
 10
8296.034523401886
 20
166.5694015906729
 10
8301.359995734752
 20
172.27002418711547
 10
8300.025436659902
 20
176.5557384728297
 10
8304.765729401548
 20
181.6299587912803
 10
8307.43484755125
 20
181.6299587912803
 10
8310.103965700953
 20
184.48710164842308
 10
8312.782662105195
 20
184.48710164842308
 10
8317.393059397044
 20
188.0122262541073
 10
8318.717329550725
 20
199.35268792965033
 10
8317.387468599502
 20
200.77623027760194
 10
8317.387468599502
 20
203.63337313474483
 10
8314.725399162075
 20
206.4829707365623
 10
8313.374716398852
 20
213.7121254475297
 10
8319.47238025922
 20
218.78884493844518
 10
8326.182611026503
 20
215.91567307699455
 10
8330.209207797452
 20
215.91567307699455
 10
8331.543766872304
 20
214.4871016484231
 10
8335.460588123122
 20
214.4871016484231
 10
8342.137816675966
 20
221.63470426294174
 10
8355.579597491213
 20
220.19583622153073
 10
8358.985947332842
 20
215.0910043623504
 10
8357.617192132753
 20
213.6258278794194
 10
8354.962705927846
 20
199.41842701823498
 10
8356.282633057903
 20
198.00551827456957
 10
8357.617192132753
 20
190.86266113171246
 10
8360.330206116838
 20
187.95853021985175
 10
8355.578891017267
 20
182.87251107892544
 10
8351.575213792714
 20
181.4439396503541
 10
8347.558475770516
 20
177.14424450556598
 10
8344.889357620814
 20
177.14424450556598
 10
8342.944091021669
 20
175.06194456331625
 10
8342.944091021669
 20
167.99797301924434
 10
8344.889357620814
 20
165.9156730769945
 10
8350.227593920217
 20
165.9156730769945
 10
8352.322851667734
 20
163.67281593413742
 10
8350.951445470775
 20
162.20480170617336
 10
8350.951445470775
 20
159.34765884903047
 10
8347.558475770516
 20
155.71567307699453
 10
8344.871007713275
 20
155.71567307699453
 10
8336.900353079245
 20
151.4496013489769
 10
8333.602177497713
 20
147.9190874204591
 10
8333.602177497713
 20
142.28368730495856
 10
8336.308142769522
 20
139.38710164842317
 10
8333.602177497713
 20
136.49051599188766
 10
8333.602177497713
 20
133.64422220874727
 10
8330.912789125781
 20
129.32596070102565
 10
8326.966229245565
 20
125.10138736270882
 10
8337.636031979036
 20
113.67995565483757
 10
8332.267618422862
 20
106.49671966361463
 10
8332.267618422862
 20
99.3302239848326
 10
8326.19498092264
 20
95.71887873798212
 10
8314.199186643893
 20
94.29211961892814
 10
8311.530633233704
 20
91.43558128409524
 10
8300.854160634897
 20
90.0070098555239
 10
8298.898534723909
 20
87.91362084483222
 10
8297.563975649058
 20
77.91362084483222
 10
8295.510671851327
 20
75.71567307699456
 10
8292.841553701624
 20
75.71567307699456
 10
8289.561728027631
 20
72.20480170617338
 10
8289.561728027631
 20
69.3476588490305
 10
8286.892609877928
 20
66.4905159918877
 10
8286.892609877928
 20
57.936326807118576
 10
8285.541945917139
 20
55.04470517665694
 10
8283.499640177668
 20
52.858530219851765
 10
8274.14814839917
 20
52.858530219851765
 10
8269.551294799516
 20
49.34376116480232
 10
8270.873135073007
 20
40.854021219554724
 10
8274.88157820427
 20
35.132933320401904
 10
8274.88157820427
 20
30.76625178453107
 10
8270.144471174617
 20
27.14424450556596
 10
8263.465313943252
 20
27.14424450556596
 10
8257.532310231207
 20
23.615938270546867
 10
8257.532310231207
 20
12.204801706173441
 10
8256.195326806886
 20
10.773635146035133
 10
8255.524351021068
 20
0.0
 10
8206.619065386869
 20
0.7171286888157935
  0
ENDSEC
  0
SECTION
  2
OBJECTS
  0
DICTIONARY
  5
A
330
0
100
AcDbDictionary
281
1
  3
ACAD_COLOR
350
B
  3
ACAD_GROUP
350
C
  3
ACAD_LAYOUT
350
D
  3
ACAD_MATERIAL
350
E
  3
ACAD_MLEADERSTYLE
350
F
  3
ACAD_MLINESTYLE
350
10
  3
ACAD_PLOTSETTINGS
350
11
  3
ACAD_PLOTSTYLENAME
350
12
  3
ACAD_SCALELIST
350
14
  3
ACAD_TABLESTYLE
350
15
  3
ACAD_VISUALSTYLE
350
16
  3
EZDXF_META
350
2D
  0
DICTIONARY
  5
B
330
A
100
AcDbDictionary
281
1
  0
DICTIONARY
  5
C
330
A
100
AcDbDictionary
281
1
  0
DICTIONARY
  5
D
330
A
100
AcDbDictionary
281
1
  3
Model
350
1A
  3
Layout1
350
1E
  0
DICTIONARY
  5
E
330
A
100
AcDbDictionary
281
1
  3
ByBlock
350
1F
  3
ByLayer
350
20
  3
Global
350
21
  0
DICTIONARY
  5
F
330
A
100
AcDbDictionary
281
1
  3
Standard
350
2C
  0
DICTIONARY
  5
10
330
A
100
AcDbDictionary
281
1
  3
Standard
350
22
  0
DICTIONARY
  5
11
330
A
100
AcDbDictionary
281
1
  0
ACDBDICTIONARYWDFLT
  5
12
330
A
100
AcDbDictionary
281
1
  3
Normal
350
13
100
AcDbDictionaryWithDefault
340
13
  0
ACDBPLACEHOLDER
  5
13
330
12
  0
DICTIONARY
  5
14
330
A
100
AcDbDictionary
281
1
  0
DICTIONARY
  5
15
330
A
100
AcDbDictionary
281
1
  0
DICTIONARY
  5
16
330
A
100
AcDbDictionary
281
1
  0
LAYOUT
  5
1A
330
D
100
AcDbPlotSettings
  1

  4
A3
  6

 40
7.5
 41
20.0
 42
7.5
 43
20.0
 44
420.0
 45
297.0
 46
0.0
 47
0.0
 48
0.0
 49
0.0
140
0.0
141
0.0
142
1.0
143
1.0
 70
1024
 72
1
 73
0
 74
5
  7

 75
16
 76
0
 77
2
 78
300
147
1.0
148
0.0
149
0.0
100
AcDbLayout
  1
Model
 70
1
 71
0
 10
0.0
 20
0.0
 11
420.0
 21
297.0
 12
0.0
 22
0.0
 32
0.0
 14
1e+20
 24
1e+20
 34
1e+20
 15
-1e+20
 25
-1e+20
 35
-1e+20
146
0.0
 13
0.0
 23
0.0
 33
0.0
 16
1.0
 26
0.0
 36
0.0
 17
0.0
 27
1.0
 37
0.0
 76
1
330
17
  0
LAYOUT
  5
1E
330
D
100
AcDbPlotSettings
  1

  4
A3
  6

 40
7.5
 41
20.0
 42
7.5
 43
20.0
 44
420.0
 45
297.0
 46
0.0
 47
0.0
 48
0.0
 49
0.0
140
0.0
141
0.0
142
1.0
143
1.0
 70
0
 72
1
 73
0
 74
5
  7

 75
16
 76
0
 77
2
 78
300
147
1.0
148
0.0
149
0.0
100
AcDbLayout
  1
Layout1
 70
1
 71
1
 10
0.0
 20
0.0
 11
420.0
 21
297.0
 12
0.0
 22
0.0
 32
0.0
 14
1e+20
 24
1e+20
 34
1e+20
 15
-1e+20
 25
-1e+20
 35
-1e+20
146
0.0
 13
0.0
 23
0.0
 33
0.0
 16
1.0
 26
0.0
 36
0.0
 17
0.0
 27
1.0
 37
0.0
 76
1
330
1B
  0
MATERIAL
  5
1F
102
{ACAD_REACTORS
330
E
102
}
330
E
100
AcDbMaterial
  1
ByBlock
  2

 70
0
 40
1.0
 71
1
 41
1.0
 91
-1023410177
 42
1.0
 72
1
  3

 73
1
 74
1
 75
1
 44
0.5
 73
0
 45
1.0
 46
1.0
 77
1
  4

 78
1
 79
1
170
1
 48
1.0
171
1
  6

172
1
173
1
174
1
140
1.0
141
1.0
175
1
  7

176
1
177
1
178
1
143
1.0
179
1
  8

270
1
271
1
272
1
145
1.0
146
1.0
273
1
  9

274
1
275
1
276
1
 42
1.0
 72
1
  3

 73
1
 74
1
 75
1
 94
63
  0
MATERIAL
  5
20
102
{ACAD_REACTORS
330
E
102
}
330
E
100
AcDbMaterial
  1
ByLayer
  2

 70
0
 40
1.0
 71
1
 41
1.0
 91
-1023410177
 42
1.0
 72
1
  3

 73
1
 74
1
 75
1
 44
0.5
 73
0
 45
1.0
 46
1.0
 77
1
  4

 78
1
 79
1
170
1
 48
1.0
171
1
  6

172
1
173
1
174
1
140
1.0
141
1.0
175
1
  7

176
1
177
1
178
1
143
1.0
179
1
  8

270
1
271
1
272
1
145
1.0
146
1.0
273
1
  9

274
1
275
1
276
1
 42
1.0
 72
1
  3

 73
1
 74
1
 75
1
 94
63
  0
MATERIAL
  5
21
102
{ACAD_REACTORS
330
E
102
}
330
E
100
AcDbMaterial
  1
Global
  2

 70
0
 40
1.0
 71
1
 41
1.0
 91
-1023410177
 42
1.0
 72
1
  3

 73
1
 74
1
 75
1
 44
0.5
 73
0
 45
1.0
 46
1.0
 77
1
  4

 78
1
 79
1
170
1
 48
1.0
171
1
  6

172
1
173
1
174
1
140
1.0
141
1.0
175
1
  7

176
1
177
1
178
1
143
1.0
179
1
  8

270
1
271
1
272
1
145
1.0
146
1.0
273
1
  9

274
1
275
1
276
1
 42
1.0
 72
1
  3

 73
1
 74
1
 75
1
 94
63
  0
MLINESTYLE
  5
22
102
{ACAD_REACTORS
330
10
102
}
330
10
100
AcDbMlineStyle
  2
Standard
 70
0
  3

 62
256
 51
90.0
 52
90.0
 71
2
 49
0.5
 62
256
  6
BYLAYER
 49
-0.5
 62
256
  6
BYLAYER
  0
MLEADERSTYLE
  5
2C
102
{ACAD_REACTORS
330
F
102
}
330
F
100
AcDbMLeaderStyle
179
2
170
2
171
1
172
0
 90
2
 40
0.0
 41
0.0
173
1
 91
-1056964608
 92
-2
290
1
 42
2.0
291
1
 43
8.0
  3
Standard
 44
4.0
300

342
29
174
1
175
1
176
0
178
1
 93
-1056964608
 45
4.0
292
0
297
0
 46
4.0
 94
-1056964608
 47
1.0
 49
1.0
140
1.0
294
1
141
0.0
177
0
142
1.0
295
0
296
0
143
3.75
271
0
272
9
273
9
  0
DICTIONARY
  5
2D
330
A
100
AcDbDictionary
280
1
281
1
  3
CREATED_BY_EZDXF
350
2E
  3
WRITTEN_BY_EZDXF
350
90
  0
DICTIONARYVAR
  5
2E
330
2D
100
DictionaryVariables
280
0
  1
1.4.4 @ 2026-07-23T17:47:29.409039+00:00
  0
DICTIONARYVAR
  5
90
330
2D
100
DictionaryVariables
280
0
  1
1.4.4 @ 2026-07-23T17:47:29.423860+00:00
  0
ENDSEC
  0
EOF
