  0
SECTION
  2
HEADER
  9
$ACADVER
  1
AC1027
  9
$ACADMAINTVER
 70
105
  9
$DWGCODEPAGE
  3
ANSI_1252
  9
$LASTSAVEDBY
  1
ezdxf
  9
$REQUIREDVERSIONS
160
0
  9
$INSBASE
 10
0.0
 20
0.0
 30
0.0
  9
$EXTMIN
 10
1e+20
 20
1e+20
 30
1e+20
  9
$EXTMAX
 10
-1e+20
 20
-1e+20
 30
-1e+20
  9
$LIMMIN
 10
0.0
 20
0.0
  9
$LIMMAX
 10
420.0
 20
297.0
  9
$ORTHOMODE
 70
0
  9
$REGENMODE
 70
1
  9
$FILLMODE
 70
1
  9
$QTEXTMODE
 70
0
  9
$MIRRTEXT
 70
1
  9
$LTSCALE
 40
1.0
  9
$ATTMODE
 70
1
  9
$TEXTSIZE
 40
2.5
  9
$TRACEWID
 40
1.0
  9
$TEXTSTYLE
  7
Standard
  9
$CLAYER
  8
0
  9
$CELTYPE
  6
ByLayer
  9
$CECOLOR
 62
256
  9
$CELTSCALE
 40
1.0
  9
$DISPSILH
 70
0
  9
$DIMSCALE
 40
1.0
  9
$DIMASZ
 40
2.5
  9
$DIMEXO
 40
0.625
  9
$DIMDLI
 40
3.75
  9
$DIMRND
 40
0.0
  9
$DIMDLE
 40
0.0
  9
$DIMEXE
 40
1.25
  9
$DIMTP
 40
0.0
  9
$DIMTM
 40
0.0
  9
$DIMTXT
 40
2.5
  9
$DIMCEN
 40
2.5
  9
$DIMTSZ
 40
0.0
  9
$DIMTOL
 70
0
  9
$DIMLIM
 70
0
  9
$DIMTIH
 70
0
  9
$DIMTOH
 70
0
  9
$DIMSE1
 70
0
  9
$DIMSE2
 70
0
  9
$DIMTAD
 70
1
  9
$DIMZIN
 70
8
  9
$DIMBLK
  1

  9
$DIMASO
 70
1
  9
$DIMSHO
 70
1
  9
$DIMPOST
  1

  9
$DIMAPOST
  1

  9
$DIMALT
 70
0
  9
$DIMALTD
 70
3
  9
$DIMALTF
 40
0.03937007874
  9
$DIMLFAC
 40
1.0
  9
$DIMTOFL
 70
1
  9
$DIMTVP
 40
0.0
  9
$DIMTIX
 70
0
  9
$DIMSOXD
 70
0
  9
$DIMSAH
 70
0
  9
$DIMBLK1
  1

  9
$DIMBLK2
  1

  9
$DIMSTYLE
  2
ISO-25
  9
$DIMCLRD
 70
0
  9
$DIMCLRE
 70
0
  9
$DIMCLRT
 70
0
  9
$DIMTFAC
 40
1.0
  9
$DIMGAP
 40
0.625
  9
$DIMJUST
 70
0
  9
$DIMSD1
 70
0
  9
$DIMSD2
 70
0
  9
$DIMTOLJ
 70
0
  9
$DIMTZIN
 70
8
  9
$DIMALTZ
 70
0
  9
$DIMALTTZ
 70
0
  9
$DIMUPT
 70
0
  9
$DIMDEC
 70
2
  9
$DIMTDEC
 70
2
  9
$DIMALTU
 70
2
  9
$DIMALTTD
 70
3
  9
$DIMTXSTY
  7
Standard
  9
$DIMAUNIT
 70
0
  9
$DIMADEC
 70
0
  9
$DIMALTRND
 40
0.0
  9
$DIMAZIN
 70
0
  9
$DIMDSEP
 70
44
  9
$DIMATFIT
 70
3
  9
$DIMFRAC
 70
0
  9
$DIMLDRBLK
  1

  9
$DIMLUNIT
 70
2
  9
$DIMLWD
 70
-2
  9
$DIMLWE
 70
-2
  9
$DIMTMOVE
 70
0
  9
$DIMFXL
 40
1.0
  9
$DIMFXLON
 70
0
  9
$DIMJOGANG
 40
0.785398163397
  9
$DIMTFILL
 70
0
  9
$DIMTFILLCLR
 70
0
  9
$DIMARCSYM
 70
0
  9
$DIMLTYPE
  6

  9
$DIMLTEX1
  6

  9
$DIMLTEX2
  6

  9
$DIMTXTDIRECTION
 70
0
  9
$LUNITS
 70
2
  9
$LUPREC
 70
4
  9
$SKETCHINC
 40
1.0
  9
$FILLETRAD
 40
10.0
  9
$AUNITS
 70
0
  9
$AUPREC
 70
2
  9
$MENU
  1
.
  9
$ELEVATION
 40
0.0
  9
$PELEVATION
 40
0.0
  9
$THICKNESS
 40
0.0
  9
$LIMCHECK
 70
0
  9
$CHAMFERA
 40
0.0
  9
$CHAMFERB
 40
0.0
  9
$CHAMFERC
 40
0.0
  9
$CHAMFERD
 40
0.0
  9
$SKPOLY
 70
0
  9
$TDCREATE
 40
2461245.8556481483
  9
$TDUCREATE
 40
2458532.153996898
  9
$TDUPDATE
 40
2461245.8556481483
  9
$TDUUPDATE
 40
2458532.1544311
  9
$TDINDWG
 40
0.0
  9
$TDUSRTIMER
 40
0.0
  9
$USRTIMER
 70
1
  9
$ANGBASE
 50
0.0
  9
$ANGDIR
 70
0
  9
$PDMODE
 70
0
  9
$PDSIZE
 40
0.0
  9
$PLINEWID
 40
0.0
  9
$SPLFRAME
 70
0
  9
$SPLINETYPE
 70
6
  9
$SPLINESEGS
 70
8
  9
$HANDSEED
  5
68
  9
$SURFTAB1
 70
6
  9
$SURFTAB2
 70
6
  9
$SURFTYPE
 70
6
  9
$SURFU
 70
6
  9
$SURFV
 70
6
  9
$UCSBASE
  2

  9
$UCSNAME
  2

  9
$UCSORG
 10
0.0
 20
0.0
 30
0.0
  9
$UCSXDIR
 10
1.0
 20
0.0
 30
0.0
  9
$UCSYDIR
 10
0.0
 20
1.0
 30
0.0
  9
$UCSORTHOREF
  2

  9
$UCSORTHOVIEW
 70
0
  9
$UCSORGTOP
 10
0.0
 20
0.0
 30
0.0
  9
$UCSORGBOTTOM
 10
0.0
 20
0.0
 30
0.0
  9
$UCSORGLEFT
 10
0.0
 20
0.0
 30
0.0
  9
$UCSORGRIGHT
 10
0.0
 20
0.0
 30
0.0
  9
$UCSORGFRONT
 10
0.0
 20
0.0
 30
0.0
  9
$UCSORGBACK
 10
0.0
 20
0.0
 30
0.0
  9
$PUCSBASE
  2

  9
$PUCSNAME
  2

  9
$PUCSORG
 10
0.0
 20
0.0
 30
0.0
  9
$PUCSXDIR
 10
1.0
 20
0.0
 30
0.0
  9
$PUCSYDIR
 10
0.0
 20
1.0
 30
0.0
  9
$PUCSORTHOREF
  2

  9
$PUCSORTHOVIEW
 70
0
  9
$PUCSORGTOP
 10
0.0
 20
0.0
 30
0.0
  9
$PUCSORGBOTTOM
 10
0.0
 20
0.0
 30
0.0
  9
$PUCSORGLEFT
 10
0.0
 20
0.0
 30
0.0
  9
$PUCSORGRIGHT
 10
0.0
 20
0.0
 30
0.0
  9
$PUCSORGFRONT
 10
0.0
 20
0.0
 30
0.0
  9
$PUCSORGBACK
 10
0.0
 20
0.0
 30
0.0
  9
$USERI1
 70
0
  9
$USERI2
 70
0
  9
$USERI3
 70
0
  9
$USERI4
 70
0
  9
$USERI5
 70
0
  9
$USERR1
 40
0.0
  9
$USERR2
 40
0.0
  9
$USERR3
 40
0.0
  9
$USERR4
 40
0.0
  9
$USERR5
 40
0.0
  9
$WORLDVIEW
 70
1
  9
$SHADEDGE
 70
3
  9
$SHADEDIF
 70
70
  9
$TILEMODE
 70
1
  9
$MAXACTVP
 70
64
  9
$PINSBASE
 10
0.0
 20
0.0
 30
0.0
  9
$PLIMCHECK
 70
0
  9
$PEXTMIN
 10
1e+20
 20
1e+20
 30
1e+20
  9
$PEXTMAX
 10
-1e+20
 20
-1e+20
 30
-1e+20
  9
$PLIMMIN
 10
0.0
 20
0.0
  9
$PLIMMAX
 10
420.0
 20
297.0
  9
$UNITMODE
 70
0
  9
$VISRETAIN
 70
1
  9
$PLINEGEN
 70
0
  9
$PSLTSCALE
 70
1
  9
$TREEDEPTH
 70
3020
  9
$CMLSTYLE
  2
Standard
  9
$CMLJUST
 70
0
  9
$CMLSCALE
 40
20.0
  9
$PROXYGRAPHICS
 70
1
  9
$MEASUREMENT
 70
1
  9
$CELWEIGHT
370
-1
  9
$ENDCAPS
280
0
  9
$JOINSTYLE
280
0
  9
$LWDISPLAY
290
0
  9
$INSUNITS
 70
4
  9
$HYPERLINKBASE
  1

  9
$STYLESHEET
  1

  9
$XEDIT
290
1
  9
$CEPSNTYPE
380
0
  9
$PSTYLEMODE
290
1
  9
$FINGERPRINTGUID
  2
{795CBC02-93EB-49C4-A966-3D7A5D097915}
  9
$VERSIONGUID
  2
{BBBE20E3-280B-48D8-8CE6-18850E0511C0}
  9
$EXTNAMES
290
1
  9
$PSVPSCALE
 40
0.0
  9
$OLESTARTUP
290
0
  9
$SORTENTS
280
127
  9
$INDEXCTL
280
0
  9
$HIDETEXT
280
1
  9
$XCLIPFRAME
280
1
  9
$HALOGAP
280
0
  9
$OBSCOLOR
 70
257
  9
$OBSLTYPE
280
0
  9
$INTERSECTIONDISPLAY
280
0
  9
$INTERSECTIONCOLOR
 70
257
  9
$DIMASSOC
280
2
  9
$PROJECTNAME
  1

  9
$CAMERADISPLAY
290
0
  9
$LENSLENGTH
 40
50.0
  9
$CAMERAHEIGHT
 40
0.0
  9
$STEPSPERSEC
 40
24.0
  9
$STEPSIZE
 40
100.0
  9
$3DDWFPREC
 40
2.0
  9
$PSOLWIDTH
 40
0.005
  9
$PSOLHEIGHT
 40
0.08
  9
$LOFTANG1
 40
1.570796326795
  9
$LOFTANG2
 40
1.570796326795
  9
$LOFTMAG1
 40
0.0
  9
$LOFTMAG2
 40
0.0
  9
$LOFTPARAM
 70
7
  9
$LOFTNORMALS
280
1
  9
$LATITUDE
 40
37.795
  9
$LONGITUDE
 40
-122.394
  9
$NORTHDIRECTION
 40
0.0
  9
$TIMEZONE
 70
-8000
  9
$LIGHTGLYPHDISPLAY
280
1
  9
$TILEMODELIGHTSYNCH
280
1
  9
$CMATERIAL
347
20
  9
$SOLIDHIST
280
0
  9
$SHOWHIST
280
1
  9
$DWFFRAME
280
2
  9
$DGNFRAME
280
2
  9
$REALWORLDSCALE
290
1
  9
$INTERFERECOLOR
 62
256
  9
$CSHADOW
280
0
  9
$SHADOWPLANELOCATION
 40
0.0
  0
ENDSEC
  0
SECTION
  2
CLASSES
  0
CLASS
  1
ACDBDICTIONARYWDFLT
  2
AcDbDictionaryWithDefault
  3
ObjectDBX Classes
 90
0
 91
0
280
0
281
0
  0
CLASS
  1
SUN
  2
AcDbSun
  3
SCENEOE
 90
1153
 91
0
280
0
281
0
  0
CLASS
  1
VISUALSTYLE
  2
AcDbVisualStyle
  3
ObjectDBX Classes
 90
4095
 91
0
280
0
281
0
  0
CLASS
  1
MATERIAL
  2
AcDbMaterial
  3
ObjectDBX Classes
 90
1153
 91
0
280
0
281
0
  0
CLASS
  1
SCALE
  2
AcDbScale
  3
ObjectDBX Classes
 90
1153
 91
0
280
0
281
0
  0
CLASS
  1
TABLESTYLE
  2
AcDbTableStyle
  3
ObjectDBX Classes
 90
4095
 91
0
280
0
281
0
  0
CLASS
  1
MLEADERSTYLE
  2
AcDbMLeaderStyle
  3
ACDB_MLEADERSTYLE_CLASS
 90
4095
 91
0
280
0
281
0
  0
CLASS
  1
DICTIONARYVAR
  2
AcDbDictionaryVar
  3
ObjectDBX Classes
 90
0
 91
0
280
0
281
0
  0
CLASS
  1
CELLSTYLEMAP
  2
AcDbCellStyleMap
  3
ObjectDBX Classes
 90
1152
 91
0
280
0
281
0
  0
CLASS
  1
MENTALRAYRENDERSETTINGS
  2
AcDbMentalRayRenderSettings
  3
SCENEOE
 90
1024
 91
0
280
0
281
0
  0
CLASS
  1
ACDBDETAILVIEWSTYLE
  2
AcDbDetailViewStyle
  3
ObjectDBX Classes
 90
1025
 91
0
280
0
281
0
  0
CLASS
  1
ACDBSECTIONVIEWSTYLE
  2
AcDbSectionViewStyle
  3
ObjectDBX Classes
 90
1025
 91
0
280
0
281
0
  0
CLASS
  1
RASTERVARIABLES
  2
AcDbRasterVariables
  3
ISM
 90
0
 91
0
280
0
281
0
  0
CLASS
  1
ACDBPLACEHOLDER
  2
AcDbPlaceHolder
  3
ObjectDBX Classes
 90
0
 91
0
280
0
281
0
  0
CLASS
  1
LAYOUT
  2
AcDbLayout
  3
ObjectDBX Classes
 90
0
 91
0
280
0
281
0
  0
ENDSEC
  0
SECTION
  2
TABLES
  0
TABLE
  2
VPORT
  5
8
330
0
100
AcDbSymbolTable
 70
1
  0
VPORT
  5
23
330
8
100
AcDbSymbolTableRecord
100
AcDbViewportTableRecord
  2
*Active
 70
0
 10
0.0
 20
0.0
 11
1.0
 21
1.0
 12
0.0
 22
0.0
 13
0.0
 23
0.0
 14
0.5
 24
0.5
 15
0.5
 25
0.5
 16
0.0
 26
0.0
 36
1.0
 17
0.0
 27
0.0
 37
0.0
 40
1000.0
 41
1.34
 42
50.0
 43
0.0
 44
0.0
 50
0.0
 51
0.0
 71
0
 72
1000
 73
1
 74
3
 75
0
 76
0
 77
0
 78
0
281
0
 65
0
146
0.0
  0
ENDTAB
  0
TABLE
  2
LTYPE
  5
2
330
0
100
AcDbSymbolTable
 70
3
  0
LTYPE
  5
24
330
2
100
AcDbSymbolTableRecord
100
AcDbLinetypeTableRecord
  2
ByBlock
 70
0
  3

 72
65
 73
0
 40
0.0
  0
LTYPE
  5
25
330
2
100
AcDbSymbolTableRecord
100
AcDbLinetypeTableRecord
  2
ByLayer
 70
0
  3

 72
65
 73
0
 40
0.0
  0
LTYPE
  5
26
330
2
100
AcDbSymbolTableRecord
100
AcDbLinetypeTableRecord
  2
Continuous
 70
0
  3

 72
65
 73
0
 40
0.0
  0
ENDTAB
  0
TABLE
  2
LAYER
  5
1
330
0
100
AcDbSymbolTable
 70
3
  0
LAYER
  5
27
330
1
100
AcDbSymbolTableRecord
100
AcDbLayerTableRecord
  2
0
 70
0
 62
7
  6
Continuous
370
-3
390
13
347
21
  0
LAYER
  5
28
330
1
100
AcDbSymbolTableRecord
100
AcDbLayerTableRecord
  2
Defpoints
 70
0
 62
7
  6
Continuous
290
0
370
-3
390
13
347
21
  0
LAYER
  5
2F
330
1
100
AcDbSymbolTableRecord
100
AcDbLayerTableRecord
  2
K
 70
0
 62
7
  6
Continuous
370
-3
390
13
347
21
  0
ENDTAB
  0
TABLE
  2
STYLE
  5
5
330
0
100
AcDbSymbolTable
 70
1
  0
STYLE
  5
29
330
5
100
AcDbSymbolTableRecord
100
AcDbTextStyleTableRecord
  2
Standard
 70
0
 40
0.0
 41
1.0
 50
0.0
 71
0
 42
2.5
  3
txt
  4

  0
ENDTAB
  0
TABLE
  2
VIEW
  5
7
330
0
100
AcDbSymbolTable
 70
0
  0
ENDTAB
  0
TABLE
  2
UCS
  5
6
330
0
100
AcDbSymbolTable
 70
0
  0
ENDTAB
  0
TABLE
  2
APPID
  5
3
330
0
100
AcDbSymbolTable
 70
3
  0
APPID
  5
2A
330
3
100
AcDbSymbolTableRecord
100
AcDbRegAppTableRecord
  2
ACAD
 70
0
  0
APPID
  5
65
330
3
100
AcDbSymbolTableRecord
100
AcDbRegAppTableRecord
  2
HATCHBACKGROUNDCOLOR
 70
0
  0
APPID
  5
66
330
3
100
AcDbSymbolTableRecord
100
AcDbRegAppTableRecord
  2
EZDXF
 70
0
  0
ENDTAB
  0
TABLE
  2
DIMSTYLE
  5
4
330
0
100
AcDbSymbolTable
 70
1
100
AcDbDimStyleTable
  0
DIMSTYLE
105
2B
330
4
100
AcDbSymbolTableRecord
100
AcDbDimStyleTableRecord
  2
Standard
 70
0
 40
1.0
 41
2.5
 42
0.625
 43
3.75
 44
1.25
 45
0.0
 46
0.0
 47
0.0
 48
0.0
 49
2.5
140
2.5
141
2.5
142
0.0
143
0.03937007874
144
1.0
145
0.0
146
1.0
147
0.625
148
0.0
 69
0
 70
0
 71
0
 72
0
 73
0
 74
0
 75
0
 76
0
 77
1
 78
8
 79
3
170
0
171
3
172
1
173
0
174
0
175
0
176
0
177
0
178
0
179
2
271
2
272
2
273
2
274
3
275
0
276
0
277
2
278
44
279
0
280
0
281
0
282
0
283
0
284
8
285
0
286
0
288
0
289
3
290
0
371
-2
372
-2
  0
ENDTAB
  0
TABLE
  2
BLOCK_RECORD
  5
9
330
0
100
AcDbSymbolTable
 70
2
  0
BLOCK_RECORD
  5
17
330
9
100
AcDbSymbolTableRecord
100
AcDbBlockTableRecord
  2
*Model_Space
340
1A
 70
0
280
1
281
0
  0
BLOCK_RECORD
  5
1B
330
9
100
AcDbSymbolTableRecord
100
AcDbBlockTableRecord
  2
*Paper_Space
340
1E
 70
0
280
1
281
0
  0
ENDTAB
  0
ENDSEC
  0
SECTION
  2
BLOCKS
  0
BLOCK
  5
18
330
17
100
AcDbEntity
  8
0
100
AcDbBlockBegin
  2
*Model_Space
 70
0
 10
0.0
 20
0.0
 30
0.0
  3
*Model_Space
  1

  0
ENDBLK
  5
19
330
17
100
AcDbEntity
  8
0
100
AcDbBlockEnd
  0
BLOCK
  5
1C
330
1B
100
AcDbEntity
  8
0
100
AcDbBlockBegin
  2
*Paper_Space
 70
0
 10
0.0
 20
0.0
 30
0.0
  3
*Paper_Space
  1

  0
ENDBLK
  5
1D
330
1B
100
AcDbEntity
  8
0
100
AcDbBlockEnd
  0
ENDSEC
  0
SECTION
  2
ENTITIES
  0
LWPOLYLINE
  5
30
330
17
100
AcDbEntity
  8
K
100
AcDbPolyline
 90
336
 70
1
 10
187.3980040604601
 20
20.000912563289397
 10
186.03665372052353
 20
21.38678332266808
 10
184.64623356345425
 20
19.97131914536987
 10
180.39274233842255
 20
22.858055420432287
 10
177.58991038598992
 20
22.858055420432287
 10
167.7668418875472
 20
28.57234113471796
 10
164.9632351627034
 20
28.57234113471796
 10
159.32307987625845
 20
31.443213554745995
 10
150.92353684309435
 20
37.14376970614652
 10
148.11516123585878
 20
37.14376970614652
 10
138.292092737416
 20
44.28662684900364
 10
135.48182457357296
 20
44.28662684900364
 10
127.72255371008012
 20
50.74946923258694
 10
125.63780921672915
 20
54.28662684900365
 10
122.85027651395555
 20
54.28662684900365
 10
111.62391251573528
 20
64.28662684900365
 10
108.81345607291811
 20
64.28662684900365
 10
98.96598578468921
 20
74.31146815983236
 10
87.7396217864689
 20
82.88289673126093
 10
65.97496119590477
 20
105.03957882506343
 10
63.87648719782213
 20
108.60003110535187
 10
60.37037681746513
 20
110.74158822525571
 10
57.535115490879
 20
115.07108260937127
 10
57.535115490879
 20
117.92098523993744
 10
47.72790565159746
 20
129.3311060368132
 10
42.11621968235038
 20
140.75663151316863
 10
36.49793455558298
 20
146.47611227181156
 10
35.09463905580545
 20
150.76182655752578
 10
32.2864574699939
 20
153.62058865030437
 10
29.47986647043882
 20
163.62058865030437
 10
23.856023496218125
 20
169.3457273634389
 10
23.856023496218125
 20
173.6425111807999
 10
21.04943249666308
 20
177.9282254665141
 10
21.04943249666308
 20
180.785368323657
 10
15.436250497552928
 20
189.35679689508555
 10
15.436250497552928
 20
193.65339984686457
 10
9.823068498442778
 20
207.93911413257905
 10
9.823068498442778
 20
215.0776803565664
 10
7.016477498887702
 20
220.79196607085194
 10
7.016477498887702
 20
225.06805338770542
 10
2.806590999555103
 20
230.78233910199097
 10
2.806590999555103
 20
245.0600130777245
 10
1.4032954997775793
 20
246.48858450629584
 10
1.4032954997775793
 20
256.48858450629587
 10
0.0
 20
257.9171559348672
 10
0.0
 20
313.71324062028293
 10
1.4032954997775793
 20
315.14181204885426
 10
1.4032954997775793
 20
326.5703834774258
 10
2.806590999555103
 20
327.99895490599715
 10
2.806590999555103
 20
339.42752633456854
 10
4.209886499332627
 20
340.8560977631401
 10
4.209886499332627
 20
345.1418120488543
 10
7.024131981654774
 20
348.00674726005457
 10
8.427427481432325
 20
355.1496044029117
 10
9.827422374863476
 20
356.57481577515557
 10
11.229558309500842
 20
369.42133457296
 10
14.038596213291676
 20
373.71078532488576
 10
15.44390498032
 20
380.86389011719746
 10
18.242841497108003
 20
383.71324062028276
 10
18.242841497108003
 20
387.98420254273316
 10
23.856023496218125
 20
397.98420254273293
 10
23.856023496218125
 20
402.2846691917115
 10
29.481457056695387
 20
408.01142714048177
 10
32.28804805625046
 20
416.5828557119102
 10
35.09181777028172
 20
419.4371264669963
 10
36.49511327005925
 20
425.15141218128184
 10
42.116219682350604
 20
430.8737650419818
 10
44.90545599288118
 20
436.5527161985838
 10
44.90545599288118
 20
439.4244926363207
 10
57.54651007331935
 20
453.7230956106946
 10
58.952507800390045
 20
458.01706259451504
 10
65.97972211160247
 20
463.74009247042534
 10
71.59097285339125
 20
472.30857197763567
 10
89.16974808953975
 20
488.7723411347178
 10
90.56202440444713
 20
488.7723411347178
 10
94.76056735306082
 20
494.4712296904739
 10
98.97766733407826
 20
495.9022489222904
 10
110.21675157269553
 20
507.3437697061465
 10
113.02334257225061
 20
507.3437697061465
 10
118.61550234355589
 20
513.036654543702
 10
143.91600466666085
 20
528.7765611612654
 10
153.80858766772934
 20
527.3378802203416
 10
155.9726810080407
 20
525.1348075850908
 10
154.56938550826317
 20
516.5633790136624
 10
156.60939338503633
 20
514.4866268490036
 10
166.4324618834791
 20
514.4866268490036
 10
168.59545997330432
 20
512.2846691917114
 10
168.59545997330432
 20
507.9989549059971
 10
170.64234838281166
 20
505.91519827757514
 10
173.44893938236677
 20
505.91519827757514
 10
174.8522348821443
 20
504.4866268490036
 10
183.1881175611274
 20
504.4866268490036
 10
184.59141306090493
 20
505.91519827757514
 10
188.7912493720762
 20
505.91519827757514
 10
195.80772687096385
 20
515.915198277575
 10
201.4421748350856
 20
515.915198277575
 10
205.65206133441822
 20
518.7723411347181
 10
215.4818731546945
 20
518.7723411347181
 10
218.33241830158178
 20
520.2232854844082
 10
223.925632214517
 20
514.5293275181964
 10
227.34330123980416
 20
518.0085550384248
 10
228.7465967395817
 20
523.7228407527106
 10
230.9001645535636
 20
525.9151982775752
 10
235.1014608815334
 20
525.9151982775752
 10
239.32475538291615
 20
531.6476833315779
 10
243.62643461164052
 20
530.1879632080047
 10
246.42030537079862
 20
527.3437697061465
 10
249.23548654171657
 20
527.3437697061465
 10
253.44537304104918
 20
521.6294839918608
 10
254.7700085806099
 20
521.6294839918608
 10
261.79844200135216
 20
525.9225010395521
 10
267.3967416808064
 20
524.4977172053709
 10
268.7891430475571
 20
525.9151982775752
 10
271.5957340471121
 20
525.9151982775752
 10
275.04591795639703
 20
529.4275263345687
 10
275.04591795639703
 20
533.7132406202827
 10
277.21195445442606
 20
535.9182914130897
 10
296.8764642698381
 20
534.4883840026096
 10
299.71625227015153
 20
535.9338529010314
 10
306.7187620816225
 20
530.230942603638
 10
315.1031366230849
 20
537.3437697061463
 10
317.988375859453
 20
537.3437697061463
 10
320.794966859008
 20
534.4866268490036
 10
327.8180977117633
 20
534.4866268490036
 10
333.4476880125744
 20
527.3228898994655
 10
336.21325825787716
 20
525.9151982775752
 10
341.76575111885796
 20
525.9151982775752
 10
350.18552411752324
 20
533.0580554204323
 10
355.87735435344644
 20
533.0580554204323
 10
358.68394535300155
 20
530.2009125632892
 10
364.30378070597925
 20
530.2009125632892
 10
369.9169627050895
 20
523.0580554204321
 10
375.43960103064984
 20
523.0580554204321
 10
378.288137190046
 20
525.957898946768
 10
379.7333778496645
 20
524.4866268490036
 10
383.94326434899716
 20
524.4866268490036
 10
390.940898841934
 20
517.3629521092356
 10
400.72000032649146
 20
521.6294839918608
 10
406.33006112443934
 20
521.6294839918608
 10
409.18060627132667
 20
523.0804283415509
 10
412.7688769345956
 20
519.4275263345685
 10
412.7688769345956
 20
513.7132406202829
 10
414.8085698582431
 20
511.6368090816339
 10
423.2283428569082
 20
513.0653805102055
 10
426.0421293423232
 20
510.20091256328914
 10
434.39597111999007
 20
510.20091256328914
 10
437.2338280876298
 20
511.64539855465205
 10
441.4671640630259
 20
508.7723411347178
 10
444.2849708394312
 20
508.7723411347178
 10
446.4881447740819
 20
506.5294839918606
 10
443.68155377452683
 20
503.67234113471795
 10
447.10952093766997
 20
500.1826299882604
 10
452.64283059208043
 20
497.36614262726533
 10
456.8307400177469
 20
501.6294839918607
 10
462.52781233653917
 20
501.6294839918607
 10
464.6990993861282
 20
499.41908807541836
 10
463.2958038863506
 20
492.27623093256125
 10
469.54428983542687
 20
485.91519827757514
 10
476.47687701463246
 20
485.91519827757514
 10
477.90924233154266
 20
487.373363124066
 10
482.1627335565744
 20
484.4866268490036
 10
484.9805403329797
 20
484.4866268490036
 10
489.1904268323123
 20
480.20091256328936
 10
491.9906414451769
 20
480.20091256328936
 10
499.0071189440646
 20
474.4866268490035
 10
501.74741178747826
 20
474.4866268490035
 10
506.00090301251
 20
477.373363124066
 10
509.59626641924547
 20
473.7132406202829
 10
509.59626641924547
 20
469.42752633456865
 10
511.643154828753
 20
467.3437697061464
 10
518.5937011066422
 20
467.3437697061464
 10
521.45448948246
 20
468.799927919983
 10
525.6898962216734
 20
463.05100233068
 10
535.5077370851898
 20
461.623191158427
 10
548.9253618633489
 20
446.5260691785633
 10
547.4852449132391
 20
445.06001307772425
 10
547.4852449132391
 20
435.07768035656636
 10
546.091155482929
 20
432.2392812747906
 10
548.9123183546925
 20
425.0593382859713
 10
541.8783598199468
 20
420.7629464594089
 10
543.271663705047
 20
407.9973478403116
 10
548.8972763833815
 20
400.83867247422546
 10
547.4758146373957
 20
395.0504129452965
 10
543.3155342587319
 20
390.81519827757495
 10
546.0742949306945
 20
388.00674726005457
 10
547.4953574386609
 20
380.77345499403935
 10
541.8628791038556
 20
376.473007784724
 10
540.4747458884777
 20
369.4073275667862
 10
546.0778687887828
 20
360.8512594178266
 10
547.4796920611567
 20
350.86175063228484
 10
548.9378673438374
 20
349.37731093514543
 10
542.4653397694098
 20
344.2524478496018
 10
540.2764218971183
 20
346.48079215223856
 10
538.8731263973408
 20
353.62364929509573
 10
537.4621764147963
 20
355.06001307772436
 10
537.4621764147963
 20
359.3593501985464
 10
533.25662979768
 20
366.49484392229635
 10
531.8554320077884
 20
375.05345953276725
 10
529.0597581051555
 20
377.8994886560254
 10
524.8325169167985
 20
386.50625178513764
 10
524.8325169167985
 20
389.34572736343864
 10
522.0403057092584
 20
392.18823142210704
 10
519.2337147097033
 20
399.33108856496415
 10
512.2151089801679
 20
406.47611227181125
 10
510.80952496172216
 20
410.7688157748004
 10
498.19479069386375
 20
427.8914141697363
 10
479.9481670866621
 20
445.03782537367755
 10
477.8649796608907
 20
448.57234113471776
 10
476.47687701463246
 20
448.57234113471776
 10
466.65380851618966
 20
458.572341134718
 10
465.2505130164122
 20
458.572341134718
 10
455.4274445179693
 20
468.5723411347178
 10
454.0241490181919
 20
468.5723411347178
 10
448.4011604675656
 20
474.2966100345201
 10
442.79368719399935
 20
475.723728575548
 10
435.7740666977004
 20
481.4405739766865
 10
431.5587007813543
 20
482.87100477571653
 10
427.36153452241865
 20
487.1437697061465
 10
421.74835252330854
 20
487.1437697061465
 10
418.9254613524523
 20
490.01750633060715
 10
406.29580185445457
 20
495.7317920448927
 10
402.09643024417494
 20
500.0068020490942
 10
392.2839548275655
 20
501.4338329229957
 10
388.0716251764576
 20
504.2926338850886
 10
381.04481592694054
 20
505.7233088825461
 10
379.6494875299824
 20
507.1437697061465
 10
372.65096912977845
 20
507.1437697061465
 10
367.0377871306684
 20
510.00091256328915
 10
361.42460513155817
 20
510.00091256328915
 10
355.81142313244806
 20
512.8580554204323
 10
351.5835775344317
 20
512.8580554204323
 10
348.77698653487664
 20
515.7151982775749
 10
337.6345128563385
 20
515.7151982775749
 10
335.5876244468311
 20
513.631441649153
 10
335.5876244468311
 20
296.5527161985837
 10
336.97248400387184
 20
293.7331093572788
 10
352.4271704441615
 20
279.4303332461838
 10
352.4271704441615
 20
277.99895490599715
 10
362.89383185233413
 20
267.3437697061465
 10
364.29562760121644
 20
267.3437697061465
 10
392.3615375967671
 20
240.20091256328934
 10
393.7729862013075
 20
240.20091256328934
 10
399.3861682004176
 20
233.05805542043223
 10
400.781817246529
 20
233.05805542043223
 10
442.8806822398551
 20
191.62948399186075
 10
444.28083369094696
 20
191.62948399186075
 10
454.8487626876047
 20
182.30564409544215
 10
456.29203642790804
 20
179.36710459420146
 10
454.8677419279216
 20
177.91715593486745
 10
454.8677419279216
 20
173.64683059244788
 10
451.31885234260596
 20
167.14376970614651
 10
448.4994403367124
 20
167.14376970614651
 10
440.0796673380472
 20
157.14376970614651
 10
438.67178884032086
 20
157.14376970614651
 10
433.0586068412108
 20
151.42948399186085
 10
431.5714210217514
 20
151.42948399186085
 10
426.00018418248214
 20
157.10106903695376
 10
421.18864993326076
 20
152.20287022058176
 10
421.18864993326076
 20
145.06001307772465
 10
418.98579474498587
 20
142.81748042245079
 10
345.9492033346385
 20
212.88004989024478
 10
337.60544303920574
 20
218.5427477167985
 10
335.5876244468311
 20
216.4885845062958
 10
335.5876244468311
 20
92.20287022058183
 10
332.77160317143273
 20
89.33612723101115
 10
331.37037673407843
 20
83.63026683687269
 10
327.8137355339862
 20
78.5612828621417
 10
320.78629654094044
 20
79.99208607687247
 10
319.39167135923043
 20
78.572341134718
 10
315.1817848598978
 20
78.572341134718
 10
311.731600950613
 20
75.06001307772459
 10
311.731600950613
 20
66.48858450629614
 10
309.5686028607876
 20
64.28662684900365
 10
306.67812154155064
 20
64.28662684900365
 10
305.27482604177317
 20
65.7151982775751
 10
298.35082903393027
 20
65.7151982775751
 10
294.15083913320944
 20
60.014345702656954
 10
284.2378808701772
 20
57.131057461424774
 10
282.06239545528473
 20
59.345727363438904
 10
282.06239545528473
 20
217.91715593486737
 10
280.0374841194435
 20
219.97853964217052
 10
277.31076546458814
 20
218.59062370974704
 10
263.28425315791554
 20
204.3114681598326
 10
252.0677657735219
 20
195.7475804707376
 10
249.96480140704648
 20
192.17950944349394
 10
238.76023496218113
 20
182.1989258398965
 10
238.76023496218113
 20
180.77429879201034
 10
232.38735037302317
 20
174.28662684900365
 10
230.98405487324564
 20
174.28662684900365
 10
221.16098637480286
 20
164.28662684900362
 10
219.75626391982743
 20
164.28662684900362
 10
190.28705842449924
 20
135.71519827757504
 10
188.88831334362334
 20
135.71519827757504
 10
176.2586538456255
 20
121.42948399186082
 10
174.849805868637
 20
121.42948399186082
 10
157.34619361034737
 20
105.03611029180027
 10
154.56250497552898
 20
100.78536832365714
 10
154.56250497552898
 20
99.42752633456841
 10
160.82908643588502
 20
93.04807223491562
 10
166.44226843499516
 20
91.61950080634418
 10
170.65215493432777
 20
87.33378652062996
 10
176.26533693343794
 20
85.90521509205851
 10
179.0621213814768
 20
83.05805542043221
 10
181.86233599434138
 20
83.05805542043221
 10
188.87881349322905
 20
77.34376970614653
 10
191.67680605550203
 20
77.34376970614653
 10
201.49987455394478
 20
71.62948399186075
 10
204.31022460062232
 20
71.62948399186075
 10
208.52011109995487
 20
68.77234113471798
 10
212.74121337613767
 20
68.77234113471798
 10
215.54780437569278
 20
65.91519827757509
 10
218.3543953752478
 20
65.91519827757509
 10
219.75769087502533
 20
64.48662684900364
 10
225.35965709728535
 20
64.48662684900364
 10
229.56954359661796
 20
61.629483991860745
 10
233.77943009595054
 20
61.629483991860745
 10
237.99433494267703
 20
58.76893531002092
 10
250.61207541638657
 20
57.34171207120531
 10
261.833049470881
 20
53.0580554204323
 10
270.2763288670166
 20
53.0580554204323
 10
272.46262518014214
 20
50.83237989605593
 10
268.9072725369013
 20
44.317475964714916
 10
264.6519310910563
 20
41.42948399186086
 10
261.85655586835145
 20
41.42948399186086
 10
256.2433738692413
 20
35.71519827757508
 10
253.42864893975752
 20
35.71519827757508
 10
247.8240976611376
 20
31.436073623571925
 10
240.82111420463121
 20
30.010249613973137
 10
235.2005947264459
 20
22.858055420432287
 10
230.9728390963955
 20
22.858055420432287
 10
226.76295259706285
 20
20.000912563289397
 10
216.96629272898966
 20
20.000912563289397
 10
212.75132427073234
 20
12.84943292987084
 10
202.84551261877507
 20
14.290037716963578
 10
191.6258496584766
 20
20.000912563289397
 10
187.3980040604601
 20
20.000912563289397
  0
LWPOLYLINE
  5
31
330
17
100
AcDbEntity
  8
K
100
AcDbPolyline
 90
92
 70
1
 10
113.03455834910083
 20
138.77234113471792
 10
117.2061538540382
 20
141.60349686818265
 10
122.83975771682582
 20
148.77234113471792
 10
124.24970657047102
 20
148.77234113471792
 10
135.47607056869128
 20
160.2009125632894
 10
136.87936606846884
 20
160.2009125632894
 10
148.10573006668912
 20
171.62948399186084
 10
149.50902556646668
 20
171.62948399186084
 10
162.13868506446448
 20
184.48662684900364
 10
163.53848605033357
 20
184.48662684900364
 10
174.76485004855385
 20
197.34376970614653
 10
176.17164006223985
 20
197.34376970614653
 10
188.80129956023757
 20
210.2009125632893
 10
190.2045950600151
 20
210.2009125632893
 10
202.8342545580129
 20
223.05805542043223
 10
204.23755005779046
 20
223.05805542043223
 10
216.86720955578826
 20
235.91519827757512
 10
218.27050505556576
 20
235.91519827757512
 10
230.9001645535636
 20
248.77234113471803
 10
232.30063644633537
 20
248.77234113471803
 10
246.3335914441107
 20
264.4866268490036
 10
247.73971055089405
 20
264.4866268490036
 10
261.7726655486694
 20
278.7723411347178
 10
263.17820472567064
 20
278.7723411347178
 10
282.06239545528473
 20
296.572646395189
 10
282.06239545528473
 20
515.0600130777243
 10
280.01834046041114
 20
517.1408852565122
 10
259.0291958341616
 20
515.7164054123184
 10
243.58968445060913
 20
510.00091256328915
 10
235.1759822738946
 20
510.00091256328915
 10
223.93342197959254
 20
504.2783828384461
 10
219.7430784153034
 20
505.7003226206209
 10
218.35439537524792
 20
504.2866268490036
 10
214.13068834508715
 20
504.2866268490036
 10
207.1232347864242
 20
500.0064244500646
 10
200.10918923032995
 20
498.57834817080305
 10
191.68056510262448
 20
492.85805542043227
 10
187.47551799345163
 20
492.85805542043227
 10
180.4695147072266
 20
487.1523000041196
 10
174.8547438145252
 20
485.7233241974275
 10
163.61773695399518
 20
477.1437697061465
 10
160.81927988436894
 20
477.1437697061465
 10
155.22405698394255
 20
471.4477665668897
 10
149.60819682065912
 20
468.5892605083328
 10
136.95983980398958
 20
457.14376970614643
 10
135.55996088837327
 20
457.14376970614643
 10
124.333596890153
 20
445.7151982775751
 10
122.93241475477117
 20
445.7151982775751
 10
104.02310462182335
 20
425.03937811440994
 10
101.2372759839826
 20
420.7853683236571
 10
101.2372759839826
 20
417.91715593486714
 10
92.81750298531738
 20
409.34572736343864
 10
92.81750298531738
 20
406.49965403794283
 10
89.9891646322396
 20
402.1807311572878
 10
84.39772998665218
 20
396.48858450629575
 10
84.39772998665218
 20
393.6394819591338
 10
80.18784348731955
 20
387.9251962448482
 10
80.18784348731955
 20
385.0776803565663
 10
77.36389779873998
 20
379.32806008459676
 10
73.16193571258859
 20
375.0504129452967
 10
68.95451262879185
 20
357.9175869471323
 10
66.1548884895442
 20
353.64251118080017
 10
66.1548884895442
 20
346.49662481627684
 10
61.94500199021158
 20
340.78233910199106
 10
61.94500199021158
 20
335.07108260937144
 10
59.13841099065653
 20
330.7853683236572
 10
59.13841099065653
 20
315.06001307772436
 10
57.73511549087898
 20
313.63144164915303
 10
57.73511549087898
 20
303.63144164915303
 10
56.331819991101426
 20
302.2028702205815
 10
56.331819991101426
 20
267.9989549059971
 10
57.73511549087898
 20
266.57038347742576
 10
57.73511549087898
 20
257.9989549059971
 10
59.13841099065653
 20
256.57038347742576
 10
59.13841099065653
 20
242.26271099399943
 10
61.94500199021158
 20
235.11985385114232
 10
61.94500199021158
 20
229.41948602458774
 10
66.1548884895442
 20
223.70520031030193
 10
66.1548884895442
 20
216.55271619858385
 10
71.76436217078258
 20
205.13169499298468
 10
73.1649283963296
 20
196.57693702238277
 10
77.3638977987402
 20
192.30233647055294
 10
80.18784348731955
 20
186.55271619858382
 10
80.18784348731955
 20
182.28466919171126
 10
82.9800546948598
 20
179.44216513304266
 10
85.78664569441489
 20
172.29930799018555
 10
91.399827693525
 20
166.58502227589977
 10
94.20641869308008
 20
159.44216513304266
 10
101.2372759839826
 20
152.28466919171123
 10
101.2372759839826
 20
149.42342843800972
 10
110.30489386478715
 20
138.77234113471792
 10
113.03455834910083
 20
138.77234113471792
  0
LWPOLYLINE
  5
32
330
17
100
AcDbEntity
  8
K
100
AcDbPolyline
 90
67
 70
1
 10
309.48099738923423
 20
14.486626849003702
 10
319.39167135923043
 20
14.486626849003702
 10
322.1982623587855
 20
11.629483991860813
 10
329.1308495379912
 20
11.629483991860813
 10
331.93744053754637
 20
14.486626849003702
 10
340.35721353621153
 20
14.486626849003702
 10
342.4117564284859
 20
16.578175831483023
 10
343.8150519282634
 20
23.72103297434014
 10
345.9703955353217
 20
25.915198277575048
 10
351.6495087554299
 20
25.915198277575048
 10
354.41214560765286
 20
24.508999770122443
 10
355.79346403376445
 20
25.915198277575048
 10
360.01456630994716
 20
25.915198277575048
 10
368.4234169819933
 20
31.622071286675492
 10
374.0189438612221
 20
33.0461494349944
 10
378.237601858842
 20
38.77234113471795
 10
386.6659650288702
 20
38.77234113471795
 10
388.71285343837746
 20
40.85609776313981
 10
388.71285343837746
 20
45.14181204885415
 10
392.27406015132306
 20
48.767162634071106
 10
403.58403665887363
 20
50.2063738781624
 10
404.9926968456601
 20
48.772341134717955
 10
410.58791974608636
 20
48.772341134717955
 10
416.1507306564816
 20
45.94083745983413
 10
423.146220201738
 20
54.48662684900363
 10
425.97205955346925
 20
54.48662684900363
 10
433.0323306703906
 20
58.799090587625
 10
434.46190234098833
 20
57.34376970614652
 10
441.3944895201941
 20
57.34376970614652
 10
444.20108051974915
 20
60.20091256328941
 10
451.3014483383188
 20
60.20091256328941
 10
456.8926532637629
 20
54.50899977012247
 10
468.0750631146511
 20
60.20091256328941
 10
472.33966505813174
 20
60.20091256328941
 10
476.54955155746427
 20
57.34376970614652
 10
479.36735833386945
 20
57.34376970614652
 10
481.5796833545156
 20
55.091596649431196
 10
475.1640411966216
 20
50.01177469626528
 10
470.96030557560096
 20
48.585290490002265
 10
466.74750538738783
 20
44.296610034520235
 10
461.1343233882778
 20
42.8680386059489
 10
458.3306460776032
 20
40.0138619185737
 10
454.12075957827057
 20
38.58529049000226
 10
448.4948573387637
 20
32.858055420432294
 10
445.673291515236
 20
32.858055420432294
 10
435.8502230167933
 20
27.143769706146514
 10
433.05047291128204
 20
27.143769706146514
 10
427.437290912172
 20
22.858055420432287
 10
421.8142837443067
 20
22.858055420432287
 10
410.5971926211484
 20
17.148489654431277
 10
403.59736844870173
 20
15.723308882546029
 10
402.186105846105
 20
14.286626849003724
 10
396.56170807014473
 20
14.286626849003724
 10
392.36067269985216
 20
11.43549102794561
 10
385.35452695159375
 20
10.009023168260246
 10
383.94326434899705
 20
8.572341134717941
 10
374.12019585055424
 20
8.572341134717941
 10
371.3136048509992
 20
5.715198277575162
 10
368.5070138514441
 20
5.715198277575162
 10
367.108256790894
 20
4.2912470338555275
 10
354.4785972928962
 20
2.862675605284082
 10
353.07076335389127
 20
1.4294839918608249
 10
334.8279218567833
 20
1.4294839918608249
 10
333.42372993983565
 20
0.0
 10
300.3624034817796
 20
0.7161025884554473
 10
298.8659313511696
 20
2.23952893007906
 10
309.48099738923423
 20
14.486626849003702
  0
LWPOLYLINE
  5
33
330
17
100
AcDbEntity
  8
K
100
AcDbPolyline
 90
5
 70
1
 10
1007.0891819361967
 20
337.95805542043223
 10
1005.0376890662586
 20
335.6652277437011
 10
1002.9861961963206
 20
337.95805542043223
 10
1005.0376890662586
 20
340.2508830971631
 10
1007.0891819361967
 20
337.95805542043223
  0
LWPOLYLINE
  5
34
330
17
100
AcDbEntity
  8
K
100
AcDbPolyline
 90
307
 70
1
 10
640.6959034559831
 20
140.0009125632894
 10
636.8495210283531
 20
145.73273333608327
 10
633.0219409928387
 20
147.15868376937203
 10
625.9321054801433
 20
155.0825578052931
 10
627.2280729827071
 20
157.9794044885694
 10
627.2280729827071
 20
182.27421294115376
 10
631.0487861250216
 20
187.9677817341816
 10
629.7667208718544
 20
190.83355303557136
 10
631.7499848091021
 20
193.05012542157297
 10
639.5080261021269
 20
194.49523985949668
 10
642.072142799209
 20
191.62948399186075
 10
647.0804380562225
 20
191.62948399186075
 10
650.9094334241917
 20
198.7618725420096
 10
658.5922925510802
 20
200.1929825644302
 10
661.1557981278801
 20
203.0580554204322
 10
670.1032340418727
 20
203.0580554204322
 10
675.2160545641543
 20
208.77234113471798
 10
676.5836813246098
 20
208.77234113471798
 10
684.2147001388241
 20
200.24361973613213
 10
691.8291348682604
 20
207.33544172348695
 10
698.2153292513566
 20
208.76293322931815
 10
702.0717599912332
 20
213.0730291908278
 10
711.019195905226
 20
210.21588633368492
 10
712.8678167309234
 20
212.2819763772097
 10
712.8678167309234
 20
215.14497531263777
 10
719.995080088133
 20
221.66237018231527
 10
725.1256492302638
 20
217.36177848924655
 10
734.0826848131837
 20
221.65209090102246
 10
735.3811173308479
 20
220.20091256328934
 10
737.8481059621037
 20
220.20091256328934
 10
739.1263110926741
 20
221.6294839918609
 10
742.9523139016146
 20
221.6294839918609
 10
746.7705625755461
 20
227.3193802714719
 10
751.9270276785735
 20
230.20091256328934
 10
768.6144507256781
 20
230.20091256328934
 10
771.1261501718765
 20
227.39374024002035
 10
772.3596444875044
 20
228.772341134718
 10
777.4821555070422
 20
228.772341134718
 10
781.8908937817248
 20
232.29189556114926
 10
781.8908937817248
 20
236.56769066292392
 10
783.8634906626379
 20
238.7723411347178
 10
790.3439379453748
 20
238.7723411347178
 10
792.9003482065156
 20
235.91519827757512
 10
808.1493881434753
 20
235.91519827757512
 10
811.2896117848438
 20
239.42483352006684
 10
811.2896117848438
 20
242.28934275300617
 10
817.1041468020813
 20
247.34376970614647
 10
821.0143367963805
 20
247.34376970614647
 10
827.4053624492325
 20
241.6294839918609
 10
829.8885658604283
 20
241.6294839918609
 10
834.2744022563901
 20
245.13075554378185
 10
831.7231315019767
 20
250.8335530355714
 10
833.7134907548832
 20
253.05805542043225
 10
840.1939380376202
 20
253.05805542043225
 10
844.0285534293314
 20
248.77234113471803
 10
847.7737471911577
 20
248.77234113471803
 10
852.8865677134391
 20
254.48662684900358
 10
855.5208473112262
 20
254.48662684900358
 10
859.3087411009496
 20
251.6642959032931
 10
860.5557984968616
 20
253.05805542043225
 10
868.2250292802839
 20
253.05805542043225
 10
870.080026499331
 20
255.13127196747232
 10
868.7984555862105
 20
262.29293775328875
 10
874.6658884603726
 20
265.93608754661926
 10
878.5031664944429
 20
263.07696077484087
 10
883.5821561273241
 20
265.9151982775749
 10
886.2093227381545
 20
265.9151982775749
 10
888.7741506623602
 20
263.0486475150324
 10
895.1651763152121
 20
261.62007608646087
 10
896.390252967775
 20
260.25088309716324
 10
898.1933566079196
 20
262.2661013758709
 10
895.6369463467788
 20
269.40895851872824
 10
897.623747283403
 20
271.6294839918607
 10
902.8073241553741
 20
271.6294839918607
 10
905.3165635167219
 20
270.22727257315495
 10
907.1407925219124
 20
272.26610137587113
 10
904.5843822607716
 20
279.40895851872824
 10
909.7114068387642
 20
285.13911923435245
 10
909.7114068387642
 20
286.49904075685373
 10
905.876791447053
 20
292.2133264711395
 10
905.876791447053
 20
295.13911923435245
 10
908.4332017081938
 20
297.99626209149534
 10
908.4332017081938
 20
312.2055630350833
 10
905.876791447053
 20
315.0627058922262
 10
905.876791447053
 20
323.63413446365485
 10
904.5985863164826
 20
325.0627058922262
 10
904.5985863164826
 20
327.99626209149534
 10
908.4332017081938
 20
332.28197637720956
 10
908.4332017081938
 20
336.5019244779563
 10
905.876791447053
 20
340.78763876367077
 10
905.876791447053
 20
345.12226163142645
 10
908.4332017081938
 20
350.83654734571223
 10
908.4332017081938
 20
356.56769066292384
 10
910.9807979472732
 20
359.41498262854196
 10
909.701009230187
 20
365.13634785267254
 10
916.0475657749145
 20
370.8108732525603
 10
907.1549965776235
 20
377.9099295654296
 10
907.1549965776235
 20
383.6341344636547
 10
905.876791447053
 20
385.06270589222623
 10
905.876791447053
 20
392.2819763772096
 10
908.4332017081938
 20
395.1391192343525
 10
908.4332017081938
 20
399.34842017794045
 10
907.1549965776235
 20
400.776991606512
 10
907.1549965776235
 20
407.9198487493692
 10
905.8532538980409
 20
409.3747266519274
 10
908.4332017081938
 20
413.6999006486222
 10
908.4332017081938
 20
416.5081349237236
 10
905.8590290750595
 20
422.2621244641429
 10
909.7043855470133
 20
426.5598433960438
 10
908.4293382055765
 20
433.685054203325
 10
909.6936444667707
 20
436.5111292338644
 10
907.8432586745674
 20
438.5791918721333
 10
898.9048710554456
 20
440.0063186258667
 10
889.9786638788644
 20
447.1322285851829
 10
881.0204782710885
 20
444.2716530786079
 10
877.7562785745043
 20
447.9198487493692
 10
877.7562785745043
 20
450.77699160651184
 10
875.8942600637063
 20
452.8580554204322
 10
872.14906630188
 20
452.8580554204322
 10
867.0362457795985
 20
447.14376970614643
 10
865.6686190191432
 20
447.14376970614643
 10
864.3904138885728
 20
448.57234113471776
 10
855.4343653918094
 20
448.57234113471776
 10
851.6081452471062
 20
454.2741163792052
 10
845.226628759621
 20
452.8476705127409
 10
840.1045164077352
 20
458.572341134718
 10
837.5481061465945
 20
458.572341134718
 10
836.269901016024
 20
460.0009125632893
 10
831.2465021236275
 20
460.0009125632893
 10
828.6900918624866
 20
457.14376970614643
 10
823.5124521397611
 20
457.14376970614643
 10
813.286811095198
 20
461.4294839918607
 10
810.7952200345011
 20
461.4294839918607
 10
809.5170149039308
 20
460.0009125632893
 10
803.0365676211939
 20
460.0009125632893
 10
798.50756047914
 20
465.06270589222606
 10
798.50756047914
 20
469.3484201779405
 10
794.6387599133463
 20
473.6723411347179
 10
797.9006425124347
 20
477.31794712781283
 10
805.592859842058
 20
483.0493599434056
 10
810.6954641215837
 20
484.4750768550925
 10
813.2622086657569
 20
487.3437697061465
 10
817.1111095156311
 20
487.3437697061465
 10
823.5021351684832
 20
491.6294839918607
 10
827.3411303822268
 20
491.6294839918607
 10
832.4539509045084
 20
494.4866268490036
 10
838.8449765573604
 20
494.4866268490036
 10
843.9577970796419
 20
497.3437697061465
 10
849.1413739516129
 20
497.3437697061465
 10
852.3866658685602
 20
493.7167061002794
 10
853.6648709991305
 20
485.1452775288507
 10
855.5167163282401
 20
483.0755836557563
 10
859.3513317199512
 20
484.50415508432786
 10
863.1970593273896
 20
480.2060213570729
 10
875.9965467691397
 20
481.63654151556125
 10
881.0869500773409
 20
471.68038661824505
 10
884.8532482709378
 20
474.4866268490035
 10
890.0252728496702
 20
474.4866268490035
 10
895.1380933719518
 20
471.62948399186064
 10
904.1041945661399
 20
471.62948399186064
 10
905.3707159405528
 20
470.2139707804922
 10
910.4835364628344
 20
471.64254220906355
 10
911.7734253495623
 20
470.2009125632893
 10
915.6080407412735
 20
470.2009125632893
 10
917.5806376221866
 20
467.9962620914952
 10
917.5806376221866
 20
465.14497531263754
 10
924.5372984898537
 20
458.78358475125845
 10
929.5685412646303
 20
460.18936256937826
 10
932.1352858088037
 20
463.0580554204322
 10
937.3188626807747
 20
463.0580554204322
 10
942.4316832030563
 20
460.2009125632893
 10
948.8227088559082
 20
460.2009125632893
 10
951.4213743142001
 20
458.7487281144309
 10
956.5341948364816
 20
451.6058709715738
 10
959.052026618411
 20
450.1988579422924
 10
976.8948845041951
 20
448.7744388559354
 10
982.0616740412156
 20
451.66174064087517
 10
985.9366702661796
 20
445.88728002115107
 10
989.1456786779296
 20
443.73537296581355
 10
990.4277667568226
 20
439.43663948098987
 10
995.5320976357116
 20
433.73184212009863
 10
998.1075608481214
 20
429.41418636290797
 10
998.1075608481214
 20
426.5615855634317
 10
1003.2379428967297
 20
419.3941941203354
 10
1001.262888124873
 20
415.7151982775751
 10
994.7860024869484
 20
415.7151982775751
 10
992.2767631256006
 20
417.11740969628084
 10
990.4471440867604
 20
415.072556783751
 10
991.7253492173307
 20
409.3582710694652
 10
987.9082444022038
 20
405.0921272805421
 10
991.742859793915
 20
399.37784156625634
 10
990.438330064699
 20
397.9198487493689
 10
990.438330064699
 20
393.6341344636547
 10
986.6449417613375
 20
389.3944971644045
 10
993.0359674141895
 20
383.68021145011875
 10
989.1601249341286
 20
379.34842017794045
 10
989.1601249341286
 20
376.557043505765
 10
991.734851990989
 20
372.24062188239174
 10
987.9082444022038
 20
366.53826927460796
 10
991.7235564870203
 20
362.2741291103295
 10
990.4433456454484
 20
355.1200636670118
 10
993.0130571215594
 20
350.81205045382035
 10
989.1601249341286
 20
345.07046932828223
 10
989.1601249341286
 20
342.2971141208664
 10
995.5511505869807
 20
338.01139983515213
 10
995.5511505869807
 20
335.13911923435245
 10
996.8635408916333
 20
333.672341134718
 10
993.0125026978334
 20
329.36827209100716
 10
994.2729454564103
 20
326.550833059998
 10
994.2729454564103
 20
316.50813492372356
 10
993.0086425752364
 20
313.6820674484675
 10
996.8432579669477
 20
307.9677817341817
 10
991.7037075505508
 20
296.4794615812334
 10
986.6037146729878
 20
289.3545252774326
 10
986.6037146729878
 20
286.49127732079774
 10
984.039204332561
 20
283.62508150215416
 10
982.7625915488268
 20
277.91791446120186
 10
978.9259756909088
 20
272.20064768250717
 10
977.6466940961983
 20
267.9113241030784
 10
968.6992581822055
 20
256.482752674507
 10
967.4221295157752
 20
252.20064768250717
 10
955.9059526853234
 20
235.03941558405828
 10
949.5357658864465
 20
227.91984874936898
 10
949.5357658864465
 20
225.0638158364493
 10
917.5806376221866
 20
187.92095869359204
 10
917.5806376221866
 20
186.4828221079421
 10
912.4468149414511
 20
182.17950320455657
 10
910.524796246766
 20
178.5992993093466
 10
907.8729737778627
 20
177.117409696281
 10
904.572261717837
 20
180.80641299482792
 10
908.4332017081938
 20
186.55992722686798
 10
908.4332017081938
 20
190.85340494863812
 10
909.6878692897523
 20
192.25566990322264
 10
907.1549965776235
 20
196.50192447795666
 10
907.1549965776235
 20
202.21621019224222
 10
904.5985863164826
 20
206.50192447795646
 10
904.5985863164826
 20
209.4248335200668
 10
907.1549965776235
 20
212.2819763772097
 10
907.1549965776235
 20
215.12847207719378
 10
909.7114068387642
 20
219.414186362908
 10
909.7114068387642
 20
225.06270589222632
 10
907.8493883279662
 20
227.14376970614646
 10
905.3823996967103
 20
227.14376970614646
 10
904.1041945661399
 20
225.71519827757513
 10
900.2762670125238
 20
225.71519827757513
 10
895.1634464902422
 20
218.57234113471802
 10
891.3221432604361
 20
218.57234113471802
 10
888.7657329992952
 20
215.71519827757513
 10
886.1199011082695
 20
215.71519827757513
 10
884.841695977699
 20
217.14376970614646
 10
878.5214266745365
 20
217.14376970614646
 10
870.889526451505
 20
212.87891645858315
 10
867.0362457795985
 20
208.57234113471802
 10
852.9759893433242
 20
208.57234113471802
 10
847.8631688210426
 20
202.85805542043224
 10
845.2173369300168
 20
202.85805542043224
 10
843.9838426143889
 20
204.23665631512966
 10
841.4617898579095
 20
201.41791273236186
 10
829.9579436827759
 20
204.27505558950455
 10
827.4118867319162
 20
201.42948399186088
 10
823.5772713402051
 20
201.42948399186088
 10
817.186245687353
 20
194.28662684900365
 10
812.0650824334076
 20
194.28662684900365
 10
806.952261911126
 20
190.00091256328932
 10
803.0365676211939
 20
190.00091256328932
 10
800.4801573600531
 20
192.8580554204322
 10
798.0016164355585
 20
192.8580554204322
 10
794.1568013474505
 20
189.99331284683075
 10
787.7833125094186
 20
191.41796431107073
 10
780.1229164350492
 20
181.42948399186088
 10
773.7272712479596
 20
181.42948399186088
 10
768.6358789129223
 20
175.7391472473696
 10
762.2091396146632
 20
171.42948399186088
 10
750.6301572678078
 20
171.42948399186088
 10
749.3519521372374
 20
172.8580554204322
 10
745.6067583754109
 20
172.8580554204322
 10
743.7447398646129
 20
170.77699160651215
 10
743.7447398646129
 20
165.06270589222638
 10
741.7721429836997
 20
162.85805542043218
 10
736.5699008315333
 20
162.85805542043218
 10
734.0134905703927
 20
165.71519827757507
 10
723.7878495258294
 20
165.71519827757507
 10
721.243123020846
 20
168.5592829175151
 10
716.2098257567966
 20
167.15293105525197
 10
711.8047205238422
 20
163.63627693437277
 10
713.0572534230473
 20
159.43663948098973
 10
715.6584121661466
 20
156.52948399186073
 10
712.3617412244233
 20
152.8449972032293
 10
707.2489207021417
 20
154.27356863180074
 10
705.9823993277287
 20
152.85805542043218
 10
698.2424121946169
 20
152.85805542043218
 10
693.1295916723353
 20
155.71519827757507
 10
689.3657326303136
 20
155.71519827757507
 10
687.5272516685277
 20
153.66044093764185
 10
690.0836619296684
 20
149.37472665192752
 10
685.5245367749158
 20
144.2792722685967
 10
676.5574652823483
 20
145.71097876589667
 10
671.4935615297395
 20
142.88117154442816
 10
665.0853000403847
 20
134.2866268490037
 10
662.5234248883353
 20
134.2866268490037
 10
660.6614063775373
 20
132.20556303508346
 10
660.6614063775373
 20
129.34842017794057
 10
657.3658935511113
 20
125.66522774370125
 10
653.4679020642624
 20
130.02177360144017
 10
648.3550815419809
 20
132.87891645858306
 10
641.9827211693243
 20
140.0009125632894
 10
640.6959034559831
 20
140.0009125632894
  0
LWPOLYLINE
  5
35
330
17
100
AcDbEntity
  8
K
100
AcDbPolyline
 90
45
 70
1
 10
755.754530083328
 20
44.28662684900364
 10
744.2506839081943
 20
52.858055420432315
 10
740.4045162232446
 20
52.858055420432315
 10
735.2696239215853
 20
58.59700940794155
 10
725.0467420494628
 20
65.73793920223548
 10
714.8303568559054
 20
75.72888759269291
 10
710.9924539576326
 20
77.15868376937208
 10
705.1644007734188
 20
83.672341134718
 10
707.1711828284144
 20
85.9151982775751
 10
712.3734249805807
 20
85.9151982775751
 10
713.6516301111511
 20
84.48662684900366
 10
722.5990660251438
 20
84.48662684900366
 10
723.8772711557142
 20
83.05805542043221
 10
734.0250428636313
 20
83.05805542043221
 10
737.8596582553425
 20
85.9151982775751
 10
744.3170009516019
 20
85.9151982775751
 10
748.1048947413254
 20
83.0928673318645
 10
749.3519521372374
 20
84.48662684900366
 10
758.3180533314254
 20
84.48662684900366
 10
763.4780447535001
 20
87.3701297160121
 10
764.7798353339667
 20
85.9151982775751
 10
771.1708609868189
 20
85.9151982775751
 10
772.4490661173892
 20
84.48662684900366
 10
778.7506701403564
 20
84.48662684900366
 10
780.0288752709268
 20
85.9151982775751
 10
785.1416957932084
 20
85.9151982775751
 10
786.4199009237788
 20
87.34376970614655
 10
789.0657328148043
 20
87.34376970614655
 10
791.6221430759451
 20
84.48662684900366
 10
800.4801573600531
 20
84.48662684900366
 10
803.0365676211939
 20
87.34376970614655
 10
810.795220034501
 20
87.34376970614655
 10
812.7678169154142
 20
85.13911923435235
 10
812.7678169154142
 20
83.63413446365497
 10
808.2638379683519
 20
78.60031361223241
 10
798.0381969237886
 20
70.02888504080384
 10
790.3439379453747
 20
61.429483991860764
 10
789.0657328148043
 20
61.429483991860764
 10
781.4151673115772
 20
52.87891645858311
 10
776.2989144426045
 20
50.019855539816696
 10
767.315410788105
 20
41.41387493980042
 10
765.3079760924062
 20
42.16173712623961
 10
762.1523096739094
 20
47.09938968766936
 10
758.3772573878762
 20
44.28662684900364
 10
755.754530083328
 20
44.28662684900364
  0
LWPOLYLINE
  5
36
330
17
100
AcDbEntity
  8
K
100
AcDbPolyline
 90
5
 70
1
 10
786.4480769881744
 20
467.37526036410327
 10
789.7911075134812
 20
465.13348033408676
 10
787.7857505393613
 20
461.398039638383
 10
783.1057230964286
 20
463.63971654588056
 10
786.4480769881744
 20
467.37526036410327
  0
LWPOLYLINE
  5
37
330
17
100
AcDbEntity
  8
K
100
AcDbPolyline
 90
216
 70
1
 10
642.0138689039827
 20
294.2518149375712
 10
634.3446381205601
 20
288.53752922328545
 10
633.0799960702739
 20
289.9509420294155
 10
630.523585809133
 20
287.0937991722726
 10
627.9224647330498
 20
290.00091256328943
 10
624.0803197575973
 20
290.00091256328943
 10
619.5232774703887
 20
296.5492180505691
 10
628.5062781132775
 20
303.72046698972065
 10
628.5062781132775
 20
307.99626209149534
 10
629.730516308563
 20
309.3645179885516
 10
618.2806370687144
 20
316.4738665027893
 10
618.2806370687144
 20
323.7105478057811
 10
620.2532339496274
 20
325.915198277575
 10
627.9224647330498
 20
325.915198277575
 10
629.784483243848
 20
327.99626209149534
 10
629.784483243848
 20
333.63413446365485
 10
624.6453381229206
 20
339.3778415662563
 10
628.5007231449857
 20
345.1230778687755
 10
627.2366047051345
 20
352.1872158631827
 10
619.5588421992848
 20
357.9078584991682
 10
619.5588421992848
 20
369.4248335200667
 10
622.1152524604255
 20
372.2819763772096
 10
622.1152524604255
 20
382.28850161071847
 10
628.5237128158182
 20
388.01837588262765
 10
629.7828808859467
 20
390.83296563153925
 10
628.5033922484466
 20
407.9930367374849
 10
629.784483243848
 20
409.4248335200667
 10
629.784483243848
 20
420.77699160651184
 10
627.931756562654
 20
422.8476705127409
 10
621.5214852939523
 20
421.41479715543005
 10
618.2609239372376
 20
427.9742299342759
 10
620.2448162865625
 20
430.1915046578895
 10
626.6358419394145
 20
431.62007608646104
 10
628.5213613454619
 20
433.727405408707
 10
629.784483243848
 20
436.55083305999784
 10
629.784483243848
 20
442.2123985315245
 10
625.3386252282314
 20
448.6009362286718
 10
618.2806370687144
 20
453.62075090382103
 10
618.2806370687144
 20
457.9962620914952
 10
620.2625257792316
 20
460.21129747098064
 10
626.6343058162338
 20
458.7870279711486
 10
629.7647701123713
 20
465.0847380494456
 10
627.9224647330498
 20
467.1437697061465
 10
621.5314390801979
 20
467.1437697061465
 10
619.5588421992848
 20
469.3484201779405
 10
619.5588421992848
 20
472.20556303508323
 10
616.4186185579163
 20
475.7151982775749
 10
611.4002265040862
 20
475.7151982775749
 10
604.42038063244
 20
466.49589921056565
 10
604.42038063244
 20
463.710547805781
 10
606.282399143238
 20
461.62948399186064
 10
608.8388094043788
 20
461.62948399186064
 10
610.8114062852919
 20
459.4248335200668
 10
610.8114062852919
 20
450.8534049486381
 10
612.0896114158622
 20
449.4248335200668
 10
612.0896114158622
 20
443.63413446365473
 10
606.9945532655743
 20
437.9397006624357
 10
609.5370646573388
 20
432.2564827747539
 10
608.2620173159021
 20
425.13127196747223
 10
609.5332011547215
 20
423.710547805781
 10
609.5332011547215
 20
420.78475504256784
 10
605.724910361656
 20
415.1096978460367
 10
610.8114062852919
 20
409.4248335200667
 10
610.8114062852919
 20
406.4990407568536
 10
606.9984534348173
 20
400.81703623305987
 10
612.1014118682207
 20
393.68795690455795
 10
609.5338783595855
 20
386.5140203340267
 10
610.8125971863556
 20
353.643672562419
 10
606.9767908935808
 20
347.9276121854251
 10
606.9767908935808
 20
345.13911923435245
 10
609.5420151767829
 20
342.27212548568485
 10
608.2619567414603
 20
336.54955447147586
 10
612.115936014508
 20
330.80641299482784
 10
609.520763719271
 20
327.90594819107486
 10
606.9844866630929
 20
320.8193451671526
 10
608.2727583961447
 20
317.9397006624358
 10
606.9767908935808
 20
316.4912773207975
 10
606.9767908935808
 20
310.85340494863823
 10
610.8114062852919
 20
306.567690662924
 10
610.8114062852919
 20
300.85340494863823
 10
612.115936014508
 20
299.395412131751
 10
608.2549960241512
 20
293.64189789971084
 10
608.2549960241512
 20
287.91984874936907
 10
606.290816806303
 20
285.7246061829748
 10
599.8112436901054
 20
284.27624194131226
 10
597.8258840682121
 20
286.49515654542637
 10
599.1040891987824
 20
300.7808708311406
 10
597.829354979588
 20
302.2055630350833
 10
597.829354979588
 20
306.55083305999796
 10
599.0897977381649
 20
309.36827209100716
 10
595.2729447184473
 20
313.63413446365485
 10
595.2729447184473
 20
317.99626209149534
 10
597.8313444918572
 20
320.8556285044013
 10
599.105530212833
 20
345.0649745838883
 10
595.2729447184473
 20
349.34842017794045
 10
595.2729447184473
 20
352.2713292200508
 10
600.3857652407287
 20
360.84275779147947
 10
600.3857652407287
 20
363.6341344636547
 10
596.5511498490177
 20
367.9198487493691
 10
596.5511498490177
 20
370.85340494863806
 10
597.829354979588
 20
372.2819763772096
 10
597.829354979588
 20
387.9367063522952
 10
596.537247599621
 20
390.82492459132425
 10
600.3857652407287
 20
396.55992722686784
 10
600.3857652407287
 20
400.8534049486383
 10
601.6376457726535
 20
402.2525549888938
 10
597.8110381838685
 20
407.9549075966775
 10
600.3622276917166
 20
412.2318695090703
 10
597.829354979588
 20
415.0627058922263
 10
597.829354979588
 20
417.91984874936895
 10
596.5441285572667
 20
419.35626744482056
 10
597.822333687837
 20
426.49912458767767
 10
593.9557676282393
 20
430.8205481740159
 10
602.9421755018695
 20
439.4293109461622
 10
602.9421755018695
 20
440.7911166950873
 10
597.8090887920666
 20
450.83075467461975
 10
599.1075601101584
 20
452.2819763772097
 10
599.1075601101584
 20
455.0627058922263
 10
597.8115926075944
 20
456.5111292338644
 10
599.0950570700595
 20
459.38002815597434
 10
596.5475788066725
 20
463.6507683231148
 10
597.8227538663148
 20
473.6270626529089
 10
593.9947395878769
 20
476.47928707059674
 10
593.9947395878769
 20
495.18621288422815
 10
598.5176170765318
 20
495.9083475401596
 10
600.3739543076257
 20
497.9830617364254
 10
599.0943812581868
 20
502.2733625390425
 10
608.7536078469511
 20
511.6294839918607
 10
621.6208607100829
 20
511.6294839918607
 10
623.5934575909959
 20
509.42483352006684
 10
623.5934575909959
 20
477.9962620914953
 10
625.4107652868514
 20
475.9651688114488
 10
627.2280729827071
 20
477.9962620914953
 10
627.2280729827071
 20
509.34842017794057
 10
625.9156826780543
 20
510.81519827757506
 10
627.9224647330498
 20
513.0580554204323
 10
638.237527407498
 20
513.0580554204323
 10
639.5157325380683
 20
511.6294839918607
 10
648.463168452061
 20
511.6294839918607
 10
649.7413735826314
 20
510.20091256328914
 10
658.6888094966242
 20
510.20091256328914
 10
659.9670146271947
 20
508.7723411347178
 10
665.0798351494763
 20
508.7723411347178
 10
666.3628559633682
 20
507.33838751244554
 10
677.8557287966082
 20
505.91117877618296
 10
681.6849495536526
 20
503.058055420432
 10
685.5195649453639
 20
503.058055420432
 10
689.3541803370749
 20
500.20091256328936
 10
693.1887957287861
 20
500.20091256328936
 10
700.8580265122085
 20
494.4866268490036
 10
703.4194647839042
 20
494.4866268490036
 10
709.8195392266149
 20
488.76425051305074
 10
716.2131283661193
 20
487.3351060741384
 10
727.1661173796863
 20
476.5337970022507
 10
722.5990660251439
 20
471.4294839918607
 10
716.1419942706113
 20
471.4294839918607
 10
709.7644467918299
 20
474.2806013578127
 10
704.626456323431
 20
472.84499720322935
 10
699.5019520449919
 20
478.57234113471804
 10
690.6439377608841
 20
478.57234113471804
 10
689.3288893648909
 20
477.10259224952443
 10
682.8918096302606
 20
482.85805542043204
 10
677.8503341619414
 20
482.85805542043204
 10
674.0157187702303
 20
480.0009125632894
 10
670.1032340418727
 20
480.0009125632894
 10
667.5442345815567
 20
482.86094920944646
 10
645.8147473618599
 20
484.289520638018
 10
644.5673074948606
 20
485.6837076196183
 10
641.4678811109031
 20
483.6052844286054
 10
638.9414701287897
 20
477.9580554204321
 10
641.4883294189814
 20
472.26511877428345
 10
641.4883294189814
 20
469.4248335200668
 10
643.3690132099749
 20
467.32290866799553
 10
648.4445031718657
 20
464.4866268490035
 10
658.6888094966242
 20
464.4866268490035
 10
660.6566580421045
 20
462.2872833003087
 10
661.9445965500537
 20
452.2111345105251
 10
660.6614063775373
 20
450.77699160651184
 10
660.6614063775373
 20
447.99626209149545
 10
661.9608678645197
 20
446.54393373790515
 10
658.1315818534786
 20
439.4110037978827
 10
663.1950276744769
 20
435.1666768172224
 10
665.7777979421639
 20
430.83677108917806
 10
664.4912734338156
 20
420.77168468341284
 10
660.6877309761829
 20
416.52069870911345
 10
664.5223463678941
 20
410.80641299482767
 10
663.2178166386782
 20
409.3484201779405
 10
663.2178166386782
 20
405.06270589222623
 10
659.3863527562734
 20
400.7805138550498
 10
660.6583511538886
 20
385.1425338703198
 10
661.9466327998587
 20
383.7027005389009
 10
660.6684276692882
 20
376.55984339604373
 10
661.9396115081078
 20
375.1391192343525
 10
661.9396115081078
 20
372.21621019224216
 10
659.3832012469669
 20
367.93049590652794
 10
659.3832012469669
 20
365.1391192343525
 10
663.23907299509
 20
360.8296480236195
 10
659.4044576033789
 20
353.6867908807624
 10
661.9315114288216
 20
350.8624579101389
 10
663.2226477850318
 20
345.0903624467181
 10
659.4009636189604
 20
336.5478387498571
 10
661.9315114288216
 20
333.7196007672818
 10
663.2266306607395
 20
327.9296996408938
 10
660.6614063775373
 20
325.0627058922262
 10
660.6614063775373
 20
319.3692710153819
 10
658.1049961163965
 20
312.2264138725246
 10
658.1049961163965
 20
309.42483352006667
 10
664.4960217692485
 20
302.28197637720956
 10
664.4960217692485
 20
300.78763876367077
 10
661.947993120725
 20
296.5159758989968
 10
663.2309954906497
 20
292.21417687325066
 10
653.5717689018853
 20
282.8580554204323
 10
645.8173365610354
 20
282.8580554204323
 10
643.8447396801222
 20
285.0627058922262
 10
643.8447396801222
 20
292.2055630350835
 10
642.0138689039827
 20
294.2518149375712
  0
LWPOLYLINE
  5
38
330
17
100
AcDbEntity
  8
K
100
AcDbPolyline
 90
12
 70
1
 10
601.6427140148874
 20
177.94360567438792
 10
603.6277407701903
 20
181.64117664031255
 10
611.3332832586786
 20
180.2058413177019
 10
616.4372838381117
 20
183.0580554204322
 10
621.6208607100828
 20
183.0580554204322
 10
623.5934575909959
 20
180.85340494863812
 10
623.5934575909959
 20
162.2055630350835
 10
621.5885911620408
 20
159.9648468698862
 10
613.1928986889943
 20
166.4610124051429
 10
610.0015788452188
 20
171.45445167001495
 10
604.8961071025875
 20
174.30748788715445
 10
601.6427140148874
 20
177.94360567438792
  0
LWPOLYLINE
  5
39
330
17
100
AcDbEntity
  8
K
100
AcDbPolyline
 90
12
 70
1
 10
1679.4798573059209
 20
414.28662684900354
 10
1677.2145274074846
 20
414.28662684900354
 10
1672.062551860178
 20
422.2496002068772
 10
1673.8315193948804
 20
424.48662684900376
 10
1677.305461690386
 20
424.48662684900376
 10
1680.6944644370103
 20
421.62948399186064
 10
1686.3546848607743
 20
421.62948399186064
 10
1691.479591561807
 20
415.1485550863161
 10
1693.756317000298
 20
407.950718830423
 10
1692.0097410061906
 20
404.269534792588
 10
1686.2488725244646
 20
405.7265673296577
 10
1679.4798573059209
 20
414.28662684900354
  0
LWPOLYLINE
  5
3A
330
17
100
AcDbEntity
  8
K
100
AcDbPolyline
 90
26
 70
1
 10
1552.9958188018768
 20
451.4050500110085
 10
1550.775126823963
 20
450.0009125632893
 10
1546.1790826053646
 20
450.0009125632893
 10
1543.9197474409482
 20
452.8580554204322
 10
1541.757234338137
 20
452.8580554204322
 10
1540.6275667559291
 20
451.4294839918609
 10
1536.0120743654918
 20
451.4294839918609
 10
1534.265984022982
 20
453.637580262215
 10
1534.265984022982
 20
459.43105467121484
 10
1538.2813430866765
 20
463.0580554204322
 10
1547.4055722491778
 20
463.0580554204322
 10
1548.5352398313858
 20
461.62948399186064
 10
1550.7945749958021
 20
461.62948399186064
 10
1553.0539101602183
 20
458.772341134718
 10
1555.3132453246346
 20
458.772341134718
 10
1557.5725804890508
 20
455.9151982775751
 10
1563.2209184000913
 20
455.9151982775751
 10
1564.3505859822992
 20
454.4866268490035
 10
1566.6024472060371
 20
454.4866268490035
 10
1571.7697770908717
 20
449.40417804703526
 10
1568.8792112465185
 20
444.28662684900354
 10
1566.5130990851103
 20
444.28662684900354
 10
1565.409222799491
 20
445.6825827453665
 10
1563.1896380022674
 20
444.2791453649615
 10
1560.3005362517433
 20
445.00985381053204
 10
1552.9958188018768
 20
451.4050500110085
  0
LWPOLYLINE
  5
3B
330
17
100
AcDbEntity
  8
K
100
AcDbPolyline
 90
9
 70
1
 10
1560.8647611740698
 20
218.57234113471802
 10
1556.831847905587
 20
223.6723411347179
 10
1558.6007467721734
 20
225.90928093952155
 10
1569.9939503547687
 20
227.35005921574492
 10
1571.7450142358493
 20
225.13567343579234
 10
1571.7450142358493
 20
219.3518659765008
 10
1568.848609478656
 20
215.68908840646816
 10
1563.1486544864263
 20
218.57234113471802
 10
1560.8647611740698
 20
218.57234113471802
  0
LWPOLYLINE
  5
3C
330
17
100
AcDbEntity
  8
K
100
AcDbPolyline
 90
157
 70
1
 10
1278.9611104439505
 20
512.2785305786492
 10
1280.7411766060127
 20
514.5295924840625
 10
1284.1669722960946
 20
511.64143085725414
 10
1288.6720285782826
 20
513.0656982236461
 10
1294.3354756866222
 20
510.20091256328914
 10
1301.1380393278112
 20
510.20091256328914
 10
1302.2677069100193
 20
508.7723411347178
 10
1311.2327836540192
 20
508.7723411347178
 10
1316.8811215650599
 20
511.6294839918607
 10
1321.4666095323219
 20
511.6294839918607
 10
1328.265617870476
 20
504.46449344694247
 10
1337.3068501303094
 20
498.74774708327794
 10
1341.8201701695673
 20
493.0402273158432
 10
1345.206886950619
 20
491.61261949378
 10
1357.6404621280226
 20
477.3185913347779
 10
1367.7201858065298
 20
470.2370561794618
 10
1368.8122819239875
 20
471.618114939778
 10
1374.460619835028
 20
473.0466863683496
 10
1378.966865788073
 20
478.7452602851583
 10
1386.9120145018912
 20
484.4866268490036
 10
1389.1607349536732
 20
484.4866268490036
 10
1395.9885817849417
 20
491.68200822744
 10
1397.1597838154998
 20
490.20091256328936
 10
1407.2299699937678
 20
490.20091256328936
 10
1408.8728823978824
 20
492.2785305786492
 10
1408.8728823978824
 20
498.0024832426433
 10
1412.9389264227316
 20
501.6752667946349
 10
1414.0563865178187
 20
500.26213288732225
 10
1415.1785183497154
 20
501.68117464738083
 10
1421.4992258021716
 20
495.1413393933204
 10
1421.4992258021716
 20
492.2785305786492
 10
1425.4209215425412
 20
487.3191756547064
 10
1427.6413603632798
 20
485.91519827757514
 10
1436.6981491927836
 20
485.91519827757514
 10
1437.779405744189
 20
484.5478471730365
 10
1439.9903298778027
 20
487.3437697061465
 10
1443.4524776242843
 20
487.3437697061465
 10
1456.998443538599
 20
480.20620545628435
 10
1463.8017661922943
 20
481.64011287522965
 10
1464.8914277171837
 20
480.2621328873222
 10
1467.1023518507973
 20
483.058055420432
 10
1475.106846987859
 20
483.058055420432
 10
1477.3661821522753
 20
480.20091256328936
 10
1479.6255173166915
 20
480.20091256328936
 10
1484.1379358699226
 20
474.49453281013996
 10
1493.1661781085174
 20
475.9216660123544
 10
1502.210338063806
 20
467.3437697061464
 10
1513.4960966110957
 20
467.3437697061464
 10
1515.7119089401335
 20
465.9427176470299
 10
1521.3330450790627
 20
471.62948399186064
 10
1527.0715557694318
 20
471.62948399186064
 10
1528.8176461119415
 20
469.42138772150656
 10
1528.8176461119415
 20
465.06615169078634
 10
1527.0781308918552
 20
462.8663702841862
 10
1519.1626270528077
 20
461.4363841783735
 10
1514.636681468095
 20
457.14376970614643
 10
1508.9968744541022
 20
457.14376970614643
 10
1507.3365559275246
 20
455.04414000378745
 10
1503.9649593033632
 20
449.35920320550025
 10
1503.9649593033632
 20
445.1256574877198
 10
1508.5024517277254
 20
436.5185254381312
 10
1504.4782041252697
 20
431.4294839918609
 10
1502.2188689608536
 20
431.4294839918609
 10
1499.4604733640954
 20
427.94123204917554
 10
1501.6932017845265
 20
422.29423981991675
 10
1505.0946268855714
 20
417.99281629293495
 10
1505.0946268855714
 20
412.2785305786494
 10
1508.4836296321955
 20
407.9928162929352
 10
1508.4836296321955
 20
392.2090088336436
 10
1507.3539620499873
 20
390.78043740507206
 10
1507.3539620499873
 20
387.9928162929351
 10
1508.4836296321955
 20
386.56424486436356
 10
1508.4836296321955
 20
383.6293615745534
 10
1503.9649593033632
 20
379.3436472888392
 10
1503.9649593033632
 20
378.00103498059667
 10
1508.4836296321955
 20
373.71532069488245
 10
1508.4836296321955
 20
370.78043740507206
 10
1505.0860064470467
 20
366.4838217600799
 10
1503.976204833385
 20
362.2734746589609
 10
1509.6132972144037
 20
356.57056577314506
 10
1509.6132972144037
 20
355.06615169078646
 10
1505.0946268855714
 20
349.3518659765007
 10
1505.0946268855714
 20
343.6913927659535
 10
1506.238478857344
 20
340.7983749063184
 10
1505.1221146471282
 20
339.38662684900356
 10
1508.4836296321955
 20
335.1356734357922
 10
1508.4836296321955
 20
329.3518659765007
 10
1505.0946268855714
 20
325.06615169078646
 10
1505.0946268855714
 20
322.27274482070123
 10
1509.635697363239
 20
315.0944787961454
 10
1508.4809222911551
 20
313.63415657358405
 10
1507.351254708947
 20
299.34844228786983
 10
1503.9649593033632
 20
295.06615169078646
 10
1503.9649593033632
 20
286.56424486436373
 10
1505.0946268855714
 20
285.13567343579217
 10
1505.0946268855714
 20
282.2785305786493
 10
1507.867206871894
 20
278.7723411347178
 10
1515.7748799473509
 20
278.7723411347178
 10
1517.50854793544
 20
276.57995410563086
 10
1518.652534283372
 20
273.68659638328705
 10
1517.5244576751334
 20
262.27412045036044
 10
1518.6506378720685
 20
260.8499591500779
 10
1518.6506378720685
 20
257.9232945479293
 10
1516.904547529559
 20
255.71519827757515
 10
1505.607871707478
 20
255.71519827757515
 10
1504.4588620991233
 20
254.26216702882408
 10
1495.4215214414585
 20
258.5478813145383
 10
1488.6628579743565
 20
250.00091256328938
 10
1485.1770331661269
 20
250.00091256328938
 10
1480.6583628372944
 20
255.71519827757515
 10
1470.5881766590267
 20
255.71519827757515
 10
1468.9594486444767
 20
253.65551776346118
 10
1471.2187838088928
 20
247.9412320491754
 10
1469.4650841992418
 20
245.7235131413291
 10
1461.4611853556398
 20
244.27755791581075
 10
1459.1946787753404
 20
247.1437697061465
 10
1456.947226123648
 20
247.1437697061465
 10
1453.5582233770238
 20
250.00091256328938
 10
1447.9717701791062
 20
250.00091256328938
 10
1440.1044430662266
 20
245.73706454171364
 10
1438.4717272968503
 20
243.67234113471793
 10
1439.610435352197
 20
242.23233717339943
 10
1435.5585480538066
 20
238.57234113471782
 10
1412.890190417532
 20
238.57234113471782
 10
1409.5011876709075
 20
241.42948399186093
 10
1399.4191189799162
 20
241.42948399186093
 10
1397.7762065758016
 20
239.35186597650082
 10
1397.7762065758016
 20
235.06615169078637
 10
1394.9080461005271
 20
231.4390916847573
 10
1388.1300406072787
 20
230.01052025618597
 10
1386.992775575627
 20
228.57234113471802
 10
1381.2476156029813
 20
228.57234113471802
 10
1380.1179480207732
 20
230.00091256328938
 10
1356.4143769662421
 20
230.00091256328938
 10
1354.2066243950032
 20
231.39686845965213
 10
1353.1103455588275
 20
230.01052025618597
 10
1346.3323400655788
 20
228.5819488276146
 10
1340.6764047050947
 20
221.4294839918609
 10
1336.1577343762624
 20
221.4294839918609
 10
1335.0280667940542
 20
220.00091256328935
 10
1330.4320225754557
 20
220.00091256328935
 10
1328.2242700042168
 20
221.39686845965235
 10
1327.1203937185974
 20
220.00091256328935
 10
1322.601723389765
 20
220.00091256328935
 10
1321.472055807557
 20
218.57234113471802
 10
1316.9339373068856
 20
218.57234113471802
 10
1314.6404531288333
 20
217.12217737847283
 10
1308.9636577064293
 20
221.4294839918609
 10
1306.7744947261278
 20
221.4294839918609
 10
1303.3854919795035
 20
218.57234113471802
 10
1300.008371745603
 20
218.57234113471802
 10
1297.2357917592803
 20
215.06615169078657
 10
1297.2357917592803
 20
210.78043740507212
 10
1295.4819616390573
 20
208.56255345427232
 10
1280.7001510175955
 20
211.43839909090102
 10
1278.9611104439505
 20
213.637580262215
 10
1278.9611104439505
 20
512.2785305786492
  0
LWPOLYLINE
  5
3D
330
17
100
AcDbEntity
  8
K
100
AcDbPolyline
 90
135
 70
1
 10
1290.9710310879382
 20
65.7151982775751
 10
1279.5894157169757
 20
65.7151982775751
 10
1272.788713246382
 20
71.44861897390375
 10
1270.6112233116035
 20
72.82543988822354
 10
1269.4787658359385
 20
71.39334037568823
 10
1249.1447493561927
 20
85.67905466140257
 10
1247.9952519332276
 20
84.2254065249708
 10
1245.6691945260563
 20
87.16692596435038
 10
1230.989030473323
 20
95.73513593886219
 10
1225.8667340801696
 20
100.77329099126476
 10
1225.8667340801696
 20
120.84995915007812
 10
1235.5153200176162
 20
133.05150800696376
 10
1245.7530644191725
 20
134.4900186091017
 10
1251.356490481525
 20
131.6555938629679
 10
1252.4655112312576
 20
133.05805542043225
 10
1255.867684834492
 20
133.05805542043225
 10
1261.996019306134
 20
137.98978334091362
 10
1259.7425771568483
 20
143.68916450597467
 10
1261.5078254274931
 20
145.9214877871735
 10
1272.9010290100891
 20
144.48070951095005
 10
1275.7721076973262
 20
140.84995915007804
 10
1275.7721076973262
 20
77.9928162929352
 10
1277.3666090706383
 20
75.97641860160797
 10
1278.9611104439505
 20
77.9928162929352
 10
1278.9611104439505
 20
140.84995915007804
 10
1281.8368683686683
 20
144.4866268490037
 10
1290.9710310879382
 20
144.4866268490037
 10
1292.1006986701461
 20
143.05805542043214
 10
1296.5419951092124
 20
143.05805542043214
 10
1298.7523646880948
 20
144.45566604355153
 10
1300.4078085907643
 20
147.944774843053
 10
1295.906124177072
 20
153.63758026221495
 10
1295.906124177072
 20
155.14281984959976
 10
1301.0414964282656
 20
160.193835969616
 10
1309.0385409873845
 20
161.63855292505357
 10
1312.4089238533033
 20
157.37638523835517
 10
1314.616676424542
 20
158.77234113471795
 10
1329.36784637029
 20
158.77234113471795
 10
1332.756849116914
 20
155.91519827757506
 10
1339.4499150612814
 20
155.91519827757506
 10
1341.092827465396
 20
157.99281629293526
 10
1341.092827465396
 20
165.1356734357924
 10
1342.8389178079058
 20
167.3437697061465
 10
1350.831530432244
 20
167.3437697061465
 10
1354.2165619770708
 20
164.48997482234506
 10
1369.9475625657485
 20
165.91092746981707
 10
1371.0806073631086
 20
167.3437697061465
 10
1374.4696101097327
 20
167.3437697061465
 10
1376.7289452741488
 20
170.2009125632894
 10
1380.127881577542
 20
170.2009125632894
 10
1388.0355546529988
 20
177.3437697061465
 10
1394.8230747613172
 20
177.3437697061465
 10
1399.2990596542948
 20
180.17392267925658
 10
1404.9651831636081
 20
188.77234113471798
 10
1411.8454623842051
 20
188.77234113471798
 10
1412.9751299664133
 20
187.34376970614653
 10
1415.1570912410632
 20
187.34376970614653
 10
1419.6757615698957
 20
190.2009125632893
 10
1424.2599232757707
 20
190.2009125632893
 10
1427.648926022395
 20
187.34376970614653
 10
1433.2123243845542
 20
187.34376970614653
 10
1434.3419919667624
 20
188.77234113471798
 10
1438.8606622955947
 20
188.77234113471798
 10
1442.249665042219
 20
193.0580554204322
 10
1447.9127703180263
 20
193.0580554204322
 10
1453.5521775050474
 20
197.33699345937893
 10
1460.3301829982959
 20
198.76556488795038
 10
1465.9956447030286
 20
203.06427196701526
 10
1481.7952018353858
 20
200.20998149648216
 10
1484.0957766147214
 20
203.11927574446509
 10
1485.273855227732
 20
201.62948399186087
 10
1489.7011497701944
 20
201.62948399186087
 10
1496.479155263443
 20
208.77234113471798
 10
1503.3485365430618
 20
208.77234113471798
 10
1505.0946268855714
 20
206.56424486436364
 10
1505.0946268855714
 20
203.70710200722075
 10
1508.5111173937526
 20
199.38662684900365
 10
1507.3539620499873
 20
197.92329454792923
 10
1507.3539620499873
 20
195.06615169078646
 10
1505.0946268855714
 20
192.20900883364357
 10
1505.0946268855714
 20
186.56424486436373
 10
1508.5111173937526
 20
182.24376970614654
 10
1507.3539620499873
 20
180.7804374050721
 10
1507.3539620499873
 20
177.9232945479292
 10
1505.1221146471282
 20
175.1009125632894
 10
1509.6407849759607
 20
169.38662684900362
 10
1504.0000876420077
 20
162.25343193802487
 10
1508.4836296321955
 20
158.0010349805966
 10
1508.4836296321955
 20
155.0579330031251
 10
1503.9649593033632
 20
150.77221871741077
 10
1503.9649593033632
 20
147.99281629293526
 10
1505.0946268855714
 20
146.56424486436381
 10
1505.0946268855714
 20
136.5724635520251
 10
1509.6417469166001
 20
132.25976626329117
 10
1505.0946268855714
 20
125.07193744873457
 10
1505.0946268855714
 20
122.27853057864945
 10
1506.2517822293364
 20
120.81519827757515
 10
1503.369529954908
 20
117.17031785962494
 10
1493.1959773352473
 20
110.02286294633112
 10
1480.7457671686739
 20
98.57234113471792
 10
1478.4764015626447
 20
98.57234113471792
 10
1473.9879938702722
 20
95.73433325961811
 10
1446.8759718972779
 20
72.87719040247521
 10
1444.5347915032241
 20
71.3968684596521
 10
1443.3717351749835
 20
72.8676631133287
 10
1436.6897442192997
 20
74.27599796563467
 10
1435.5684816105754
 20
72.85805542043222
 10
1425.4014733707027
 20
72.85805542043222
 10
1423.1421382062863
 20
70.00091256328945
 10
1409.4893051581842
 20
70.00091256328945
 10
1408.359637575976
 20
71.42948399186078
 10
1403.9377893087485
 20
71.42948399186078
 10
1402.811279096497
 20
70.00490535601944
 10
1385.8662653633755
 20
68.57633392744799
 10
1384.6850293804082
 20
67.08254938211367
 10
1383.5069507673977
 20
68.572341134718
 10
1378.9882804385652
 20
68.572341134718
 10
1377.858612856357
 20
70.00091256328945
 10
1373.3593906993633
 20
70.00091256328945
 10
1371.151638128125
 20
71.3968684596521
 10
1370.0477618425052
 20
70.00091256328945
 10
1365.5172090009494
 20
70.00091256328945
 10
1362.128206254325
 20
67.14376970614654
 10
1355.3620832738
 20
67.14376970614654
 10
1354.232415691592
 20
65.7151982775751
 10
1348.5118138668863
 20
65.7151982775751
 10
1342.8634759558458
 20
68.572341134718
 10
1339.5467371228867
 20
68.572341134718
 10
1338.4236446631016
 20
67.15208456990041
 10
1330.515971587645
 20
65.72351314132897
 10
1329.3797288830135
 20
64.28662684900365
 10
1297.6522145195818
 20
64.28662684900365
 10
1295.3928793551654
 20
67.14376970614654
 10
1292.1006986701461
 20
67.14376970614654
 10
1290.9710310879382
 20
65.7151982775751
  0
LWPOLYLINE
  5
3E
330
17
100
AcDbEntity
  8
K
100
AcDbPolyline
 90
7
 70
1
 10
1372.923519767223
 20
22.27853057864948
 10
1372.923519767223
 20
20.78043740507207
 10
1371.1672859309158
 20
18.5595137280955
 10
1365.4232791773632
 20
20.012281615372164
 10
1363.6520766057035
 20
22.25213467297604
 10
1368.879004457392
 20
27.393202456504785
 10
1372.923519767223
 20
22.27853057864948
  0
LWPOLYLINE
  5
3F
330
17
100
AcDbEntity
  8
K
100
AcDbPolyline
 90
39
 70
1
 10
1233.2365383148333
 20
208.60020786005217
 10
1229.2524994746548
 20
215.07788543065965
 10
1230.3892436423776
 20
225.14052850926203
 10
1233.2611623337198
 20
228.772341134718
 10
1236.650165080344
 20
228.772341134718
 10
1238.2930774844588
 20
230.8499591500779
 10
1238.2930774844588
 20
232.2090088336437
 10
1232.6172518118613
 20
239.3866268490037
 10
1234.9040747378344
 20
242.27853057864922
 10
1234.9040747378344
 20
249.42138772150656
 10
1239.3913027866147
 20
255.09591170088953
 10
1231.4836297111578
 20
263.6673402723182
 10
1232.650057886502
 20
265.14239894534876
 10
1233.7687901104966
 20
272.21611211810705
 10
1230.3854044090021
 20
276.49472311935796
 10
1230.3854044090021
 20
282.2090088336435
 10
1228.7335017301825
 20
284.29799590108627
 10
1225.8667340801696
 20
285.02305563045496
 10
1225.8667340801696
 20
516.5689376447089
 10
1233.2661565404267
 20
524.4866268490036
 10
1241.1933935571167
 20
524.4866268490036
 10
1246.8417314681571
 20
527.3437697061465
 10
1249.1560632609312
 20
527.3437697061465
 10
1261.58240666522
 20
518.7723411347181
 10
1263.7621870533387
 20
518.7723411347181
 10
1264.8918546355465
 20
520.2009125632894
 10
1274.0260173548165
 20
520.2009125632894
 10
1275.7721076973262
 20
517.992816292935
 10
1275.7721076973262
 20
209.3518659765008
 10
1274.0260173548165
 20
207.14376970614646
 10
1269.4878988541454
 20
207.14376970614646
 10
1262.7487897045744
 20
202.8826494718723
 10
1260.4700063683194
 20
200.00091256328935
 10
1257.0691211089713
 20
200.00091256328935
 10
1253.6688156431019
 20
197.13424080163634
 10
1250.7690631987932
 20
197.86764300899586
 10
1241.1768030867247
 20
207.14376970614646
 10
1235.539945669975
 20
207.14376970614646
 10
1233.2365383148333
 20
208.60020786005217
  0
LWPOLYLINE
  5
40
330
17
100
AcDbEntity
  8
K
100
AcDbPolyline
 90
26
 70
1
 10
2410.8878222094486
 20
559.3635507147956
 10
2410.8878222094486
 20
562.2030889910985
 10
2408.8636860082947
 20
564.2792050748626
 10
2400.5187516251735
 20
562.8526663138775
 10
2392.154045320287
 20
568.5723411347179
 10
2386.5563936510307
 20
568.5723411347179
 10
2384.3997612876074
 20
572.259032387606
 10
2386.571583290272
 20
574.4866268490036
 10
2390.749995808415
 20
574.4866268490036
 10
2392.142799981129
 20
575.915198277575
 10
2396.4055442926265
 20
575.915198277575
 10
2397.798348465341
 20
574.4866268490036
 10
2400.4996250174145
 20
574.4866268490036
 10
2401.892429190129
 20
575.915198277575
 10
2414.511998537912
 20
575.915198277575
 10
2415.9048027106264
 20
574.4866268490036
 10
2431.220825594315
 20
574.4866268490036
 10
2440.336709836448
 20
566.5751049365049
 10
2440.336709836448
 20
562.191005309333
 10
2436.134707669364
 20
559.3177321642681
 10
2432.635849165897
 20
552.8580554204323
 10
2428.3737274812493
 20
552.8580554204323
 10
2422.846719312929
 20
555.6925263781678
 10
2420.07843065514
 20
552.8531479787997
 10
2413.7075870896724
 20
553.5791976490993
 10
2410.8878222094486
 20
559.3635507147956
  0
LWPOLYLINE
  5
41
330
17
100
AcDbEntity
  8
K
100
AcDbPolyline
 90
25
 70
1
 10
2401.892429190129
 20
421.42948399186065
 10
2399.7453888277346
 20
423.6316604196699
 10
2399.7453888277346
 20
442.20308899109864
 10
2396.959780482306
 20
445.0602318482413
 10
2396.959780482306
 20
453.6379540750146
 10
2391.388563791449
 20
460.78081121787176
 10
2391.388563791449
 20
465.14159327833715
 10
2393.546560714692
 20
467.35500763182955
 10
2399.1908894888693
 20
465.90768880226665
 10
2411.691544519905
 20
457.3599072999732
 10
2422.8025107903923
 20
463.0580554204322
 10
2425.654431919626
 20
463.0580554204322
 10
2427.809652121799
 20
460.8474890942955
 10
2426.4189668680356
 20
453.7154986157261
 10
2436.161644487275
 20
446.5777344063031
 10
2434.768169855486
 20
425.1388478304456
 10
2436.158297318305
 20
423.71302184976577
 10
2436.158297318305
 20
416.55912705342524
 10
2438.9439056637334
 20
412.273412767711
 10
2438.9439056637334
 20
410.774517562527
 10
2432.581588116588
 20
404.2488154965731
 10
2422.796469974806
 20
412.8514443163289
 10
2414.4299844082707
 20
411.42122145226165
 10
2406.066254512207
 20
421.42948399186065
 10
2401.892429190129
 20
421.42948399186065
  0
LWPOLYLINE
  5
42
330
17
100
AcDbEntity
  8
K
100
AcDbPolyline
 90
20
 70
1
 10
2396.959780482306
 20
120.77451756252722
 10
2396.959780482306
 20
135.06023184824144
 10
2394.1345099481105
 20
137.95805542043226
 10
2399.7453888277346
 20
143.71302184976585
 10
2399.7453888277346
 20
147.91737470538436
 10
2398.3129224662534
 20
149.38662684900362
 10
2400.4950642602807
 20
151.62480611433736
 10
2413.0303018147083
 20
153.05337754290872
 10
2414.449771005826
 20
154.5092987484109
 10
2420.0651962192196
 20
151.62948399186084
 10
2422.8688235741974
 20
151.62948399186084
 10
2425.015863936591
 20
149.42730756405155
 10
2425.015863936591
 20
139.42730756405152
 10
2430.628558067303
 20
133.67047926792387
 10
2403.3909601849796
 20
107.16608875523647
 10
2399.1360554263792
 20
104.25664152232895
 10
2396.959780482306
 20
106.48880327681287
 10
2396.959780482306
 20
110.84785926657126
 10
2401.107547811021
 20
116.5202354356889
 10
2396.959780482306
 20
120.77451756252722
  0
LWPOLYLINE
  5
43
330
17
100
AcDbEntity
  8
K
100
AcDbPolyline
 90
172
 70
1
 10
2069.6507998944603
 20
199.34594613395572
 10
2069.6507998944603
 20
205.06023184824153
 10
2067.6266636933065
 20
207.1363479320054
 10
2059.269838657021
 20
205.70777650343408
 10
2057.8697985297117
 20
207.14376970614646
 10
2043.9417568025692
 20
207.14376970614646
 10
2041.7640712507482
 20
209.37737829283188
 10
2045.9731289583187
 20
215.1335735522857
 10
2045.9731289583187
 20
217.91737470538442
 10
2043.9417568025692
 20
220.00091256328935
 10
2037.0620677323527
 20
220.00091256328935
 10
2035.6692635596394
 20
218.57234113471802
 10
2021.6568900391421
 20
218.57234113471802
 10
2020.257349844189
 20
220.00782156679466
 10
2011.9843566689024
 20
221.42206221771988
 10
2010.5987884507829
 20
220.00091256328935
 10
2004.9612589761202
 20
220.00091256328935
 10
1993.8684555803154
 20
225.68974603480507
 10
1985.5224234791128
 20
215.70266114914105
 10
1979.8608982286544
 20
217.15438949929023
 10
1962.404878595464
 20
236.49102353911934
 10
1962.404878595464
 20
237.91197765926353
 10
1954.0480535591787
 20
245.05483480212087
 10
1954.0480535591787
 20
246.4888032768129
 10
1945.6912285228934
 20
255.06023184824133
 10
1945.6912285228934
 20
257.91737470538425
 10
1941.5299798183075
 20
262.1854844102587
 10
1938.7420386441327
 20
267.9045555962711
 10
1915.0599604147944
 20
297.9101397095163
 10
1913.6688411615353
 20
302.1906694305083
 10
1910.8804414382046
 20
305.0506753482274
 10
1909.4876372654903
 20
310.7649610625132
 10
1903.9192119525355
 20
316.47638371622253
 10
1902.5264077798213
 20
320.762098001937
 10
1899.7380080564906
 20
323.62210391965607
 10
1898.3452038837763
 20
329.3363896339416
 10
1894.1574741324664
 20
333.6316604196701
 10
1894.1574741324664
 20
337.9173747053843
 10
1889.9790616143237
 20
342.2030889910985
 10
1889.9790616143237
 20
346.488803276813
 10
1884.4078449234667
 20
352.2030889910985
 10
1884.4078449234667
 20
356.48880327681275
 10
1880.2294324053241
 20
360.7745175625272
 10
1880.2294324053241
 20
366.49682300286446
 10
1876.0510198871814
 20
372.21110871715024
 10
1876.0510198871814
 20
376.4888032768128
 10
1873.2654115417529
 20
379.3459461339557
 10
1873.2654115417529
 20
382.2030889910986
 10
1871.8726073690386
 20
383.6316604196699
 10
1871.8726073690386
 20
390.774517562527
 10
1869.091819470958
 20
393.62671618307957
 10
1867.6990152982437
 20
405.0552876116511
 10
1864.9085865054674
 20
407.91737470538436
 10
1864.9085865054674
 20
419.3459461339557
 10
1863.5157823327531
 20
420.774517562527
 10
1863.5157823327531
 20
475.1415932783374
 10
1864.9085865054674
 20
476.5701647069087
 10
1864.9085865054674
 20
486.5701647069087
 10
1867.6996790407793
 20
489.4329325881073
 10
1869.0924832134936
 20
499.43293258810706
 10
1871.8801687037533
 20
502.29220593122716
 10
1873.2712967001567
 20
509.4264669712234
 10
1880.2294324053241
 20
519.4180161659785
 10
1880.2294324053241
 20
522.2844504211945
 10
1889.998921619543
 20
532.3048204319851
 10
1894.1773341376856
 20
539.4476775748423
 10
1911.6028697164022
 20
557.3207014664907
 10
1924.1575450687085
 20
565.9054213453536
 10
1928.3332504384173
 20
567.3330672178943
 10
1939.4895965257408
 20
575.915198277575
 10
1942.2670521944303
 20
575.915198277575
 10
1943.6598563671446
 20
577.3437697061463
 10
1993.9253565930983
 20
577.3437697061463
 10
1994.6291330852428
 20
573.7345222308929
 10
1998.0291426707295
 20
571.6421290664344
 10
2007.7768201555264
 20
575.9269854187729
 10
2014.1536407663043
 20
572.293331213925
 10
2011.3437074072956
 20
560.764961062513
 10
2008.6070784838012
 20
557.9580554204322
 10
2010.5987884507829
 20
555.915198277575
 10
2014.6928691755709
 20
555.915198277575
 10
2016.0776696513922
 20
557.3355604740605
 10
2023.1253065042472
 20
558.7812845527462
 10
2025.2851030686259
 20
556.5660243432756
 10
2023.890532186364
 20
542.2621892705001
 10
2026.681459208687
 20
536.5369930348387
 10
2025.2909210014973
 20
532.2582512159001
 10
2028.0940999428951
 20
527.9455042160292
 10
2025.311711557033
 20
525.0916640071175
 10
2029.459478885747
 20
519.4192878379997
 10
2029.459478885747
 20
516.5701647069087
 10
2033.6378914038899
 20
512.2844504211943
 10
2033.6378914038899
 20
507.91737470538425
 10
2031.4687467802282
 20
505.692526378168
 10
2028.6775806233495
 20
507.1239480748526
 10
2019.738065346896
 20
499.36549380775165
 10
2021.7727523218114
 20
495.88726413819484
 10
2025.2810663676044
 20
493.7282195403421
 10
2025.2810663676044
 20
486.50640785765285
 10
2023.908982382883
 20
483.6917695666805
 10
2025.2810663676044
 20
482.2844504211945
 10
2025.2810663676044
 20
477.99873613548004
 10
2029.4901240751751
 20
473.68158969088967
 10
2025.3063706365344
 20
467.95999987592586
 10
2030.8848111904333
 20
460.8078810179721
 10
2029.459478885747
 20
459.34594613395575
 10
2029.459478885747
 20
452.20308899109864
 10
2023.88826219489
 20
446.48880327681286
 10
2023.88826219489
 20
442.2844504211945
 10
2025.2810663676044
 20
440.85587899262293
 10
2025.2810663676044
 20
422.2030889910986
 10
2023.88826219489
 20
420.774517562527
 10
2023.88826219489
 20
415.1501515712708
 10
2029.459478885747
 20
410.86443728555633
 10
2029.459478885747
 20
405.0646292344255
 10
2021.1026538494616
 20
395.0646292344255
 10
2021.1026538494616
 20
390.86249968268794
 10
2028.0666747130329
 20
385.1482139684024
 10
2028.0666747130329
 20
370.77451756252697
 10
2025.2810663676044
 20
367.9173747053843
 10
2025.2810663676044
 20
353.6316604196701
 10
2021.1026538494616
 20
349.34594613395564
 10
2021.1026538494616
 20
345.1352996229926
 10
2026.6911088428978
 20
337.9703412517081
 10
2025.2810663676044
 20
335.0778364290814
 10
2025.2810663676044
 20
329.4273075640515
 10
2028.0666747130329
 20
326.5701647069088
 10
2028.0666747130329
 20
316.48880327681275
 10
2025.2810663676044
 20
313.6316604196701
 10
2025.2810663676044
 20
309.42730756405143
 10
2028.7052426960681
 20
305.915198277575
 10
2031.4908510414966
 20
305.915198277575
 10
2037.7991401084755
 20
299.4449121448914
 10
2040.6064715853356
 20
293.68606446631884
 10
2039.2172879345267
 20
286.56177480858116
 10
2044.034092292817
 20
281.62127475977485
 10
2050.926501082212
 20
280.20739354611135
 10
2055.086534331263
 20
283.05196890371343
 10
2062.1176330711723
 20
284.4943004199556
 10
2069.8265131575768
 20
278.0250641135964
 10
2072.65109374306
 20
273.679390255237
 10
2071.264324255167
 20
270.83462670953764
 10
2073.28482588596
 20
268.76223853201833
 10
2078.856042576817
 20
267.33366710344677
 10
2081.6416509222454
 20
264.4765242463039
 10
2087.1296427175603
 20
263.0692933461154
 10
2092.6840897612965
 20
268.7663787682044
 10
2102.517682190457
 20
270.20725296796843
 10
2104.676706617096
 20
267.9927847247599
 10
2103.2839024443815
 20
257.9927847247598
 10
2105.3046876217227
 20
255.92010571920775
 10
2117.8399251761507
 20
257.3486771477791
 10
2119.242074679627
 20
255.91052040005158
 10
2131.777312234055
 20
254.48194897148002
 10
2133.9242846027505
 20
252.27984228345002
 10
2132.530772208431
 20
239.41616174747503
 10
2138.145774888124
 20
232.21716658657442
 10
2131.134183493887
 20
227.90217701480796
 10
2131.134183493887
 20
222.20308899109864
 10
2128.3485751484586
 20
219.34594613395575
 10
2128.3485751484586
 20
215.13055562485394
 10
2133.9197918393156
 20
206.55912705342527
 10
2133.9197918393156
 20
202.2030889910986
 10
2130.3799473042072
 20
198.572341134718
 10
2117.8447097497788
 20
198.572341134718
 10
2113.6662972316362
 20
194.28662684900365
 10
2106.691031028908
 20
194.28662684900365
 10
2102.502075333054
 20
191.4222747072918
 10
2089.895462004039
 20
194.29568616593872
 10
2087.118686156711
 20
197.14376970614654
 10
2071.797840256854
 20
197.14376970614654
 10
2069.6507998944603
 20
199.34594613395572
  0
LWPOLYLINE
  5
44
330
17
100
AcDbEntity
  8
K
100
AcDbPolyline
 90
19
 70
1
 10
2091.297098674854
 20
544.2866268490036
 10
2087.757254139746
 20
547.9173747053843
 10
2087.757254139746
 20
552.2141266445819
 10
2084.965750758041
 20
556.5089105617919
 10
2086.372011301746
 20
563.7207773597985
 10
2091.326333256533
 20
568.8023264613926
 10
2095.543897359339
 20
565.9184122718403
 10
2109.4835864517318
 20
567.3481783474084
 10
2112.2734930589218
 20
564.4866268490036
 10
2126.194369929942
 20
564.4866268490036
 10
2132.575702267326
 20
559.3959117271908
 10
2126.209538482957
 20
552.8662646525182
 10
2119.2455176193857
 20
551.4376932239467
 10
2117.2061417667446
 20
549.3459461339559
 10
2117.2061417667446
 20
542.2030889910985
 10
2115.0572516323336
 20
539.9990152890676
 10
2098.965000097868
 20
540.7166457703871
 10
2094.092161245916
 20
544.2866268490036
 10
2091.297098674854
 20
544.2866268490036
  0
LWPOLYLINE
  5
45
330
17
100
AcDbEntity
  8
K
100
AcDbPolyline
 90
21
 70
1
 10
3044.00085185884
 20
145.71519827757507
 10
3042.6343480205915
 20
145.71519827757507
 10
3029.5392010856694
 20
157.93505422948706
 10
3030.9308769719933
 20
160.83793025178662
 10
3030.9308769719933
 20
166.5696794996402
 10
3034.4456486765052
 20
170.23538449789132
 10
3039.9366612112617
 20
165.94027649665077
 10
3048.7602869380803
 20
172.31126212833902
 10
3052.2019801583892
 20
178.77234113471795
 10
3057.7836759267384
 20
178.77234113471795
 10
3059.895644236594
 20
176.5696794996402
 10
3059.895644236594
 20
170.77500276979563
 10
3057.1877333716275
 20
167.9508072808592
 10
3062.662141968948
 20
160.81394013672002
 10
3055.819183644875
 20
152.24976517223843
 10
3059.895644236594
 20
147.99825092821172
 10
3059.895644236594
 20
142.28396521392594
 10
3062.6351458808417
 20
139.42682235678305
 10
3062.6351458808417
 20
136.48928848408138
 10
3057.7410180034076
 20
131.3849942281118
 10
3044.00085185884
 20
145.71519827757507
  0
LWPOLYLINE
  5
46
330
17
100
AcDbEntity
  8
K
100
AcDbPolyline
 90
39
 70
1
 10
3048.7376376596035
 20
442.1901185560162
 10
3048.7376376596035
 20
445.0607170555099
 10
3046.7274678909753
 20
447.1572086594255
 10
3042.7015307277666
 20
448.5568157294828
 10
3041.346666061252
 20
447.14376970614643
 10
3038.539998958239
 20
447.14376970614643
 10
3033.060995669744
 20
450.0009125632893
 10
3026.187424122595
 20
450.0009125632893
 10
3020.7084208341
 20
457.14376970614643
 10
3013.940340048395
 20
457.14376970614643
 10
3009.8310875820234
 20
454.28662684900354
 10
3004.2833529243308
 20
454.28662684900354
 10
2996.1085066859027
 20
461.39153939985886
 10
2993.405387286917
 20
458.572341134718
 10
2987.8236915185694
 20
458.572341134718
 10
2984.3593490197823
 20
465.07593955474346
 10
2984.3593490197823
 20
487.9982509282117
 10
2986.471317329638
 20
490.20091256328936
 10
2989.2779844326515
 20
490.20091256328936
 10
2994.7638272554073
 20
487.3402030854621
 10
3004.3501570869953
 20
485.9119186036556
 10
3019.410497932845
 20
478.772341134718
 10
3024.9096561957663
 20
478.772341134718
 10
3026.2794070178893
 20
477.3437697061465
 10
3029.018908662137
 20
477.3437697061465
 10
3031.7584103063855
 20
474.4866268490035
 10
3035.8563532023763
 20
474.4866268490035
 10
3044.0838709787477
 20
468.7660745492488
 10
3050.94300670083
 20
467.3353376357907
 10
3053.687309072478
 20
464.47318789572444
 10
3057.79656153885
 20
463.0446164671531
 10
3061.2920218849295
 20
459.39905210649766
 10
3058.52589341447
 20
455.0716824453551
 10
3058.52589341447
 20
449.34643134122433
 10
3057.156142592346
 20
447.917859912653
 10
3057.156142592346
 20
445.1301426812235
 10
3059.9222710628055
 20
440.80277302008096
 10
3056.385605083827
 20
437.1142335511762
 10
3048.7376376596035
 20
442.1901185560162
  0
LWPOLYLINE
  5
47
330
17
100
AcDbEntity
  8
K
100
AcDbPolyline
 90
13
 70
1
 10
3048.801238064162
 20
106.42295691535264
 10
3046.740353503087
 20
108.57234113471792
 10
3038.521848570344
 20
108.57234113471792
 10
3036.3713397796096
 20
110.81519827757513
 10
3039.891599392468
 20
114.48662684900368
 10
3042.649251424611
 20
114.48662684900368
 10
3048.0919539373162
 20
117.324839894136
 10
3050.849605969459
 20
120.20091256328935
 10
3053.684482547358
 20
120.20091256328935
 10
3057.156142592346
 20
115.13187374408973
 10
3057.156142592346
 20
110.77500276979568
 10
3053.680298330957
 20
107.14989685871868
 10
3048.801238064162
 20
106.42295691535264
  0
LWPOLYLINE
  5
48
330
17
100
AcDbEntity
  8
K
100
AcDbPolyline
 90
71
 70
1
 10
2825.5327024092026
 20
447.86097766988144
 10
2821.383503571724
 20
450.7458950407124
 10
2819.3465370434865
 20
454.28662684900354
 10
2811.143212097787
 20
454.28662684900354
 10
2809.0233019637376
 20
456.4975713505344
 10
2810.391283030704
 20
463.6311997285236
 10
2804.8732646942094
 20
467.94743185475807
 10
2808.393765291715
 20
471.6191117593318
 10
2813.886387272455
 20
473.05123406634067
 10
2823.4860888826565
 20
478.772341134718
 10
2826.2217807115285
 20
478.772341134718
 10
2830.3310331779007
 20
481.6294839918607
 10
2834.428976073892
 20
481.6294839918607
 10
2835.798726896016
 20
483.058055420432
 10
2839.907979362387
 20
483.058055420432
 10
2841.277730184511
 20
484.4866268490036
 10
2845.3982922212626
 20
484.4866268490036
 10
2849.5018083587115
 20
487.33978126510016
 10
2860.466386546201
 20
488.76920942020587
 10
2865.9513953706346
 20
491.6294839918607
 10
2875.5396511255017
 20
491.6294839918607
 10
2881.018654413997
 20
494.4866268490036
 10
2889.2190089588457
 20
494.4866268490036
 10
2890.5887597809688
 20
495.9151982775749
 10
2909.765271290703
 20
495.9151982775749
 10
2911.139372888485
 20
497.34830731524823
 10
2924.8556320793514
 20
495.9177802682506
 10
2927.634959338718
 20
497.36711961130896
 10
2929.0287891864705
 20
495.91343514211303
 10
2963.2725597395665
 20
494.4848637135417
 10
2964.6447819461405
 20
493.0537147729457
 10
2978.3422901673794
 20
491.6251433443741
 10
2980.4500965534107
 20
489.426822356783
 10
2980.4500965534107
 20
467.9178599126528
 10
2978.327032171317
 20
465.70362571159296
 10
2972.8410247732963
 20
467.1340233611434
 10
2966.003951968747
 20
461.4294839918607
 10
2960.4555558733477
 20
461.4294839918607
 10
2955.6182307314803
 20
465.0330927529616
 10
2953.5821176116233
 20
468.5723411347178
 10
2948.1182943101708
 20
468.5723411347178
 10
2945.378792665923
 20
471.4294839918607
 10
2942.7246068683353
 20
471.4294839918607
 10
2937.218840832239
 20
465.68728626908796
 10
2930.349671660031
 20
469.985775596756
 10
2927.6391974370786
 20
468.5723411347178
 10
2920.723277867694
 20
468.5723411347178
 10
2919.35352704557
 20
470.0009125632894
 10
2912.605268768654
 20
470.0009125632894
 10
2908.4960163022815
 20
462.8580554204322
 10
2904.3715838488674
 20
462.8580554204322
 10
2902.979444540489
 20
461.40613408669816
 10
2900.2270835742365
 20
462.8414112823733
 10
2896.1417693457447
 20
460.0009125632893
 10
2891.958510603093
 20
460.0009125632893
 10
2887.8341679275927
 20
464.3023650703393
 10
2881.067911149057
 20
467.1250919360053
 10
2876.976567406391
 20
462.8580554204322
 10
2874.237065762143
 20
462.8580554204322
 10
2872.221536953642
 20
460.75597464575367
 10
2868.775439106841
 20
454.28662684900354
 10
2865.93324498274
 20
454.28662684900354
 10
2861.866650439699
 20
458.52785137096896
 10
2860.5395575409043
 20
457.14376970614643
 10
2850.951301786038
 20
457.14376970614643
 10
2849.581550963914
 20
455.7151982775751
 10
2844.107988990262
 20
455.7151982775751
 10
2837.2179816244147
 20
447.0921399754213
 10
2835.821115382271
 20
448.54899122955527
 10
2833.121892621757
 20
447.1414240820357
 10
2825.5327024092026
 20
447.86097766988144
  0
LWPOLYLINE
  5
49
330
17
100
AcDbEntity
  8
K
100
AcDbPolyline
 90
57
 70
1
 10
3612.7904536309757
 20
305.04771146006317
 10
3612.7904536309757
 20
313.6342716644209
 10
3611.518397321681
 20
315.06284309299224
 10
3611.518397321681
 20
320.777128807278
 10
3610.2463410123855
 20
322.2057002358494
 10
3610.2463410123855
 20
327.9199859501352
 10
3608.9742847030902
 20
329.3485573787065
 10
3608.9742847030902
 20
333.63427166442096
 10
3606.430172084501
 20
336.4914145215636
 10
3606.430172084501
 20
345.0628430929923
 10
3605.117225985775
 20
346.53733543282715
 10
3611.5017041828514
 20
352.27336021225494
 10
3608.9742847030902
 20
359.36934965552416
 10
3608.9742847030902
 20
366.49750815018024
 10
3603.8802451483607
 20
373.64852743950473
 10
3605.1660108233846
 20
380.8683654834479
 10
3610.235559520871
 20
385.1383488788729
 10
3607.6965660821234
 20
396.54392411141924
 10
3611.518397321681
 20
403.6973796015031
 10
3611.518397321681
 20
406.5020384465621
 10
3606.430172084501
 20
415.07346701799077
 10
3606.430172084501
 20
417.9961248907291
 10
3608.4382565484434
 20
420.2512861366463
 10
3609.710312857738
 20
418.82271470807495
 10
3610.9375145517656
 20
420.2009125632893
 10
3613.564006029203
 20
420.2009125632893
 10
3619.35073517745
 20
415.146341467163
 10
3619.35073517745
 20
409.3485573787066
 10
3618.112577425073
 20
407.9580554204323
 10
3620.616283581236
 20
405.1462906784966
 10
3621.88833989053
 20
398.00343353563926
 10
3623.200802662253
 20
396.52948399186073
 10
3620.6227914867445
 20
393.6342716644208
 10
3620.6227914867445
 20
390.87067422883945
 10
3632.081605953939
 20
383.7213860017903
 10
3630.8062028764043
 20
376.5597360686654
 10
3632.0712982703994
 20
375.13898203358644
 10
3632.0712982703994
 20
367.9199859501352
 10
3630.799241961104
 20
366.4914145215636
 10
3630.799241961104
 20
363.63427166442074
 10
3628.248621437005
 20
360.7698201623679
 10
3626.988578251841
 20
353.6944191760343
 10
3630.799241961104
 20
347.98837691027427
 10
3630.799241961104
 20
340.85326774787217
 10
3632.0712982703994
 20
339.4246963193006
 10
3632.0712982703994
 20
336.5003768762791
 10
3628.8620425099057
 20
331.45460062086676
 10
3626.273200218362
 20
330.00091256328943
 10
3619.9316179473644
 20
330.00091256328943
 10
3618.0786788681553
 20
327.9199859501352
 10
3618.0786788681553
 20
323.71041060501506
 10
3623.166904105335
 20
317.9961248907293
 10
3623.166904105335
 20
316.50444552507537
 10
3619.35073517745
 20
309.36158838221826
 10
3619.35073517745
 20
306.4914145215638
 10
3616.087173277715
 20
302.82630060225955
 10
3612.7904536309757
 20
305.04771146006317
  0
LWPOLYLINE
  5
4A
330
17
100
AcDbEntity
  8
K
100
AcDbPolyline
 90
106
 70
1
 10
4097.670841511214
 20
182.19046089444512
 10
4097.670841511214
 20
183.70420395275977
 10
4104.763477288016
 20
193.70420395275966
 10
4104.763477288016
 20
197.98991823847402
 10
4111.861216919416
 20
207.99711422986533
 10
4113.043967935386
 20
215.143869096603
 10
4115.402430953217
 20
217.9940644163485
 10
4115.402430953217
 20
220.85120727349116
 10
4118.948748841618
 20
225.1369215592056
 10
4118.948748841618
 20
230.85120727349118
 10
4121.317114545679
 20
233.71336995915803
 10
4122.499220508479
 20
243.71336995915806
 10
4124.859278655618
 20
246.56549298777696
 10
4124.859278655618
 20
250.85120727349118
 10
4126.041384618418
 20
252.27977870206274
 10
4126.041384618418
 20
267.9940644163483
 10
4128.405596544019
 20
270.85120727349124
 10
4128.405596544019
 20
286.49347499594467
 10
4126.041384618418
 20
289.35061785308733
 10
4126.041384618418
 20
292.28356551102763
 10
4135.516824233393
 20
302.30322524665775
 10
4137.847293968138
 20
306.52777353121394
 10
4134.931661184644
 20
311.460720111715
 10
4131.9519144324195
 20
313.62132899546924
 10
4131.9519144324195
 20
317.99406441634835
 10
4133.778024279864
 20
320.2009125632892
 10
4142.052766019466
 20
320.2009125632892
 10
4143.281921079021
 20
321.68634268091176
 10
4144.450348192881
 20
320.2743020993084
 10
4147.319291948822
 20
325.12825571467573
 10
4147.319291948822
 20
327.92204642451605
 10
4146.137185986022
 20
329.3506178530874
 10
4146.137185986022
 20
336.4934749959445
 10
4142.590868097622
 20
340.77918928165894
 10
4142.590868097622
 20
343.700849501545
 10
4146.137185986022
 20
349.4151352158308
 10
4146.137185986022
 20
353.7083501306342
 10
4147.319291948822
 20
355.1369215592055
 10
4147.319291948822
 20
360.79532818297366
 10
4146.121773151265
 20
363.68972376712816
 10
4147.319291948822
 20
365.1369215592055
 10
4147.319291948822
 20
367.9220464245161
 10
4145.586975564162
 20
370.0155454595007
 10
4137.31223382456
 20
372.8726883166436
 10
4135.4982323208205
 20
375.0649035673732
 10
4135.4982323208205
 20
377.983808557006
 10
4137.845009422021
 20
382.23791794504234
 10
4131.926659666685
 20
390.8206869665991
 10
4133.1340203952195
 20
392.27977870206263
 10
4133.1340203952195
 20
397.9148092869493
 10
4127.874923738239
 20
402.8580554204322
 10
4123.233168808173
 20
402.8580554204322
 10
4122.013145192376
 20
401.38366062457067
 10
4116.557715625625
 20
406.5114483172598
 10
4119.58274587001
 20
411.6294839918608
 10
4121.956964651863
 20
411.6294839918608
 10
4124.836398747857
 20
415.10927126088706
 10
4121.300951188996
 20
420.8060412953194
 10
4122.495066730018
 20
423.69221122931935
 10
4122.495066730018
 20
430.8512072734911
 10
4124.368225674219
 20
433.1149141094832
 10
4143.956001142947
 20
409.4431475636049
 10
4151.048636919748
 20
396.586004706462
 10
4155.779424167032
 20
390.8688628352606
 10
4161.6915265097905
 20
378.0082992649971
 10
4168.790034837031
 20
368.00001947928075
 10
4171.153352050067
 20
358.0038038801436
 10
4173.519874222657
 20
355.1438690966029
 10
4174.701980185457
 20
348.0010119537458
 10
4178.254046981627
 20
343.70835013063396
 10
4178.254046981627
 20
339.42263584491974
 10
4180.614105128766
 20
336.5705128163008
 10
4181.796211091566
 20
326.570512816301
 10
4184.160423017166
 20
323.7133699591581
 10
4185.342528979967
 20
313.7133699591581
 10
4186.528788721228
 20
312.2797787020626
 10
4186.528788721228
 20
299.4226358449199
 10
4188.893000646829
 20
296.565492987777
 10
4188.893000646829
 20
257.922046424516
 10
4186.528788721228
 20
255.0649035673731
 10
4186.528788721228
 20
242.22389961154488
 10
4184.164576795627
 20
236.50961389725933
 10
4184.164576795627
 20
232.20776071023042
 10
4181.800364870028
 20
229.35061785308753
 10
4181.800364870028
 20
226.49347499594464
 10
4180.618258907227
 20
225.0649035673733
 10
4180.618258907227
 20
217.92204642451617
 10
4178.254046981627
 20
215.06490356737328
 10
4178.254046981627
 20
212.2077607102304
 10
4174.701980185457
 20
207.91509888711857
 10
4173.520904720836
 20
200.7784685136944
 10
4169.342813694971
 20
194.28662684900365
 10
4163.424771543379
 20
194.28662684900365
 10
4161.060559617778
 20
191.42948399186076
 10
4144.511076138576
 20
191.42948399186076
 10
4143.328970175777
 20
190.00091256328932
 10
4137.418440361775
 20
190.00091256328932
 10
4136.2363343989755
 20
188.572341134718
 10
4126.760303930577
 20
188.572341134718
 10
4122.031880079377
 20
185.7151982775751
 10
4116.046434837863
 20
185.7151982775751
 10
4114.864328875062
 20
187.14376970614654
 10
4110.135905023862
 20
187.14376970614654
 10
4109.014527006756
 20
188.49895159869868
 10
4103.12251304723
 20
178.5302784933398
 10
4097.670841511214
 20
182.19046089444512
  0
LWPOLYLINE
  5
4B
330
17
100
AcDbEntity
  8
K
100
AcDbPolyline
 90
38
 70
1
 10
4095.346526081057
 20
450.7203544169487
 10
4092.3943087256057
 20
455.7151982775751
 10
4079.4011499910566
 20
455.7151982775751
 10
4076.392934180811
 20
459.3506178530875
 10
4076.392934180811
 20
462.2005235726638
 10
4071.168402815169
 20
467.11128033507987
 10
4067.662411099997
 20
464.2866268490036
 10
4062.868259963053
 20
464.2866268490036
 10
4052.191971032654
 20
471.45455041042794
 10
4049.8410852395377
 20
474.295588677357
 10
4042.748449462737
 20
475.7241601059283
 10
4040.3916532186504
 20
478.57234113471804
 10
4038.0274412930507
 20
478.57234113471804
 10
4036.870307139421
 20
479.9707342085362
 10
4034.556038832163
 20
478.57234113471804
 10
4029.752699553449
 20
478.57234113471804
 10
4028.570593590649
 20
480.0009125632894
 10
4023.8495990118226
 20
480.0009125632894
 10
4018.460479472134
 20
485.06637267269446
 10
4019.658957051641
 20
490.85979858118714
 10
4022.6600637766483
 20
494.4866268490036
 10
4025.099191129761
 20
494.4866268490036
 10
4029.8276149809612
 20
491.6294839918607
 10
4033.393115635359
 20
491.6294839918607
 10
4035.7573275609598
 20
488.7723411347178
 10
4039.30364544936
 20
488.7723411347178
 10
4040.438702315406
 20
487.4006283951975
 10
4041.568110810564
 20
488.7655150958343
 10
4051.1224306130052
 20
490.2088108661298
 10
4060.585087774624
 20
477.3437697061465
 10
4062.866275924624
 20
477.3437697061465
 10
4068.7768057386247
 20
481.6294839918607
 10
4072.3934981889593
 20
481.6294839918607
 10
4090.1466630892287
 20
465.8960774358296
 10
4097.246020392566
 20
461.6063016780183
 10
4104.993273802166
 20
452.24376970614657
 10
4103.133675500348
 20
449.99645086485975
 10
4095.346526081057
 20
450.7203544169487
  0
LWPOLYLINE
  5
4C
330
17
100
AcDbEntity
  8
K
100
AcDbPolyline
 90
14
 70
1
 10
4012.011437224265
 20
158.58403078919403
 10
4010.1950002640006
 20
160.77918928165892
 10
4010.1950002640006
 20
163.6299274856018
 10
4004.2772468151134
 20
169.35119699236233
 10
4005.472325320569
 20
176.5724405251742
 10
4007.292686260246
 20
178.77234113471795
 10
4010.9213248855885
 20
178.77234113471795
 10
4018.0139606623893
 20
173.05805542043217
 10
4020.3899500445573
 20
173.05805542043217
 10
4023.9570097469555
 20
168.74727471615103
 10
4029.308695668804
 20
165.1542213749908
 10
4029.308695668804
 20
163.6363321388018
 10
4022.7432086813624
 20
155.70196126167767
 10
4012.011437224265
 20
158.58403078919403
  0
LWPOLYLINE
  5
4D
330
17
100
AcDbEntity
  8
K
100
AcDbPolyline
 90
22
 70
1
 10
4933.3463903651245
 20
382.85805542043215
 10
4929.739410924869
 20
386.5141096916609
 10
4933.975048844523
 20
393.66955298524783
 10
4931.174114278004
 20
397.9281170919915
 10
4931.174114278004
 20
400.84817232043935
 10
4935.371013219949
 20
406.5201722331162
 10
4929.764718413083
 20
412.20274359619526
 10
4929.764718413083
 20
413.71336724466914
 10
4931.9369945002045
 20
415.9151982775751
 10
4941.802765554646
 20
415.9151982775751
 10
4943.858677062285
 20
417.99908153038336
 10
4943.858677062285
 20
423.71336724466914
 10
4946.030953149406
 20
425.9151982775751
 10
4948.927633212355
 20
425.9151982775751
 10
4956.743239846566
 20
419.43360934662843
 10
4956.743239846566
 20
410.85622438752625
 10
4958.152635711486
 20
409.42765295895487
 10
4958.152635711486
 20
377.9263601801468
 10
4954.577568939886
 20
372.8531698003765
 10
4946.727168265661
 20
373.57655247835277
 10
4938.979006621473
 20
382.85805542043215
 10
4933.3463903651245
 20
382.85805542043215
  0
LWPOLYLINE
  5
4E
330
17
100
AcDbEntity
  8
K
100
AcDbPolyline
 90
36
 70
1
 10
4871.332972308637
 20
512.8580554204323
 10
4867.104784713876
 20
517.1437697061465
 10
4862.884720062905
 20
517.1437697061465
 10
4857.247136603225
 20
521.4294839918607
 10
4848.793836968754
 20
521.4294839918607
 10
4844.565649373993
 20
524.2866268490036
 10
4840.3262632803935
 20
524.2866268490036
 10
4836.090129759103
 20
528.5803951697098
 10
4829.0431504345015
 20
530.0089665982812
 10
4827.635931291267
 20
531.4353316897374
 10
4817.770160236825
 20
532.8639031183089
 10
4816.36653357675
 20
534.2866268490036
 10
4810.72895011707
 20
534.2866268490036
 10
4809.341457980336
 20
535.6929965377761
 10
4806.531336663752
 20
534.2688192985736
 10
4794.412378897612
 20
543.6623459075067
 10
4796.634991467868
 20
545.9151982775752
 10
4803.747681977028
 20
545.9151982775752
 10
4809.385265436709
 20
543.0580554204321
 10
4817.848366363348
 20
543.0580554204321
 10
4822.07655395811
 20
540.2009125632894
 10
4829.134731781549
 20
540.2009125632894
 10
4831.953523511389
 20
537.3437697061463
 10
4837.579908472231
 20
537.3437697061463
 10
4841.816918298683
 20
534.4806653405096
 10
4848.874219816961
 20
533.0500013854403
 10
4851.685065620272
 20
530.2009125632892
 10
4855.8976555366335
 20
530.2009125632892
 10
4868.593465929334
 20
523.0517217326651
 10
4874.23947475119
 20
521.6210153056915
 10
4881.289590475724
 20
515.9041863335776
 10
4885.535904544294
 20
514.4694905403691
 10
4887.708149953692
 20
510.79982397737524
 10
4885.468748668098
 20
508.52995447276504
 10
4881.198743363078
 20
512.8580554204323
 10
4871.332972308637
 20
512.8580554204323
  0
LWPOLYLINE
  5
4F
330
17
100
AcDbEntity
  8
K
100
AcDbPolyline
 90
39
 70
1
 10
4759.999340932342
 20
165.70643874691882
 10
4756.387865307847
 20
169.36705037531297
 10
4757.818422892821
 20
172.26709250497697
 10
4757.818422892821
 20
177.99908153038345
 10
4759.187343336938
 20
179.38662684900365
 10
4756.409027027901
 20
182.20274359619526
 10
4756.409027027901
 20
190.83421616889373
 10
4759.210893604321
 20
197.93418473941526
 10
4756.409027027901
 20
200.77417216762373
 10
4756.409027027901
 20
203.71336724466914
 10
4759.993727846509
 20
207.34683978201753
 10
4779.74806012205
 20
205.9166183363943
 10
4786.785540880821
 20
208.7699100740341
 10
4798.122675250793
 20
210.20633282135526
 10
4800.946814483145
 20
207.34376970614642
 10
4808.008988199822
 20
207.34376970614642
 10
4812.237175794582
 20
200.2009125632893
 10
4817.793853677628
 20
200.2009125632893
 10
4820.656452863842
 20
201.6516857316597
 10
4822.850632679149
 20
199.42765295895492
 10
4822.850632679149
 20
192.2847958160978
 10
4825.66942440899
 20
189.42765295895492
 10
4825.66942440899
 20
186.48845788190948
 10
4824.26002854407
 20
185.05988645333815
 10
4824.26002854407
 20
182.19417521918092
 10
4818.622445084389
 20
177.90846093346659
 10
4818.622445084389
 20
175.14193867324067
 10
4821.441236814229
 20
172.28479581609778
 10
4821.441236814229
 20
169.34970361728196
 10
4812.2262309428415
 20
158.57234113471796
 10
4803.765606212986
 20
158.57234113471796
 10
4802.356210348065
 20
157.14376970614651
 10
4792.4068038731075
 20
157.14376970614651
 10
4790.997408008187
 20
158.57234113471796
 10
4786.852855833944
 20
158.57234113471796
 10
4785.438716858207
 20
157.13896206283974
 10
4779.020280330771
 20
157.86182458440456
 10
4767.054452377789
 20
167.13665872800598
 10
4759.999340932342
 20
165.70643874691882
  0
LWPOLYLINE
  5
50
330
17
100
AcDbEntity
  8
K
100
AcDbPolyline
 90
47
 70
1
 10
4786.759172346633
 20
444.28662684900354
 10
4779.712193022032
 20
454.28662684900354
 10
4775.494053494065
 20
454.28662684900354
 10
4774.126475339403
 20
455.6728116156223
 10
4772.758897184742
 20
454.28662684900354
 10
4768.458272668303
 20
454.28662684900354
 10
4764.230085073543
 20
457.14376970614643
 10
4759.990698979943
 20
457.14376970614643
 10
4756.409027027901
 20
460.7741721676237
 10
4756.409027027901
 20
463.63131502476665
 10
4753.558946645247
 20
466.5201722331163
 10
4757.818422892821
 20
472.2767437490105
 10
4757.818422892821
 20
476.58793744576445
 10
4764.278222801608
 20
480.2255423600683
 10
4765.690014131955
 20
478.7945428745168
 10
4768.434183036639
 20
480.1852952493395
 10
4775.523246086689
 20
485.93370600075957
 10
4778.334748952091
 20
484.5088285888024
 10
4779.722241088826
 20
485.91519827757514
 10
4784.034064104104
 20
485.91519827757514
 10
4786.2063401912255
 20
483.7133672446692
 10
4786.2063401912255
 20
475.1419386732407
 10
4788.262251698864
 20
473.0580554204322
 10
4792.4068038731075
 20
473.0580554204322
 10
4793.858017448286
 20
474.52901351095636
 10
4796.072111245667
 20
472.2847958160976
 10
4796.072111245667
 20
449.4276529589549
 10
4798.086205043046
 20
447.3861563680992
 10
4800.100298840427
 20
449.4276529589549
 10
4800.100298840427
 20
469.4276529589549
 10
4803.681970792469
 20
473.0580554204322
 10
4806.579161993797
 20
473.0580554204322
 10
4815.035537183318
 20
465.9151982775751
 10
4822.087752456948
 20
465.9151982775751
 10
4825.66942440899
 20
462.2847958160978
 10
4825.66942440899
 20
459.33703236203803
 10
4820.070941855466
 20
455.0810427470626
 10
4824.26002854407
 20
449.41960089186784
 10
4824.26002854407
 20
446.4977887515753
 10
4820.688404658822
 20
441.42948399186065
 10
4816.36653357675
 20
441.42948399186065
 10
4814.95713771183
 20
442.8580554204322
 10
4809.4031896726665
 20
442.8580554204322
 10
4807.989925868632
 20
441.4255634274227
 10
4800.168095497922
 20
442.1463134674577
 10
4796.648788530074
 20
444.28662684900354
 10
4786.759172346633
 20
444.28662684900354
  0
LWPOLYLINE
  5
51
330
17
100
AcDbEntity
  8
K
100
AcDbPolyline
 90
110
 70
1
 10
4445.699682265209
 20
254.28230771120664
 10
4442.1137491507025
 20
257.91702931048087
 10
4442.1137491507025
 20
260.8562243875263
 10
4444.89206545974
 20
263.67234113471795
 10
4441.4725810104965
 20
267.1383494480806
 10
4430.280774565982
 20
265.72033984919096
 10
4426.047514414379
 20
261.4294839918607
 10
4423.145087264021
 20
261.4294839918607
 10
4421.735691399101
 20
262.85805542043227
 10
4418.92502261305
 20
262.85805542043227
 10
4413.28743915337
 20
267.1437697061465
 10
4409.051128614819
 20
267.1437697061465
 10
4406.838377106895
 20
269.38662684900373
 10
4408.288248392618
 20
270.8562243875263
 10
4408.288248392618
 20
273.6138876808143
 10
4401.984652192219
 20
277.1635320723025
 10
4396.375207782938
 20
282.84929588977616
 10
4389.411167852984
 20
281.4375380268528
 10
4387.979262382249
 20
279.9861507375736
 10
4385.737724552503
 20
280.7434957767587
 10
4386.443156329886
 20
547.449515520968
 10
4392.984893878496
 20
542.2922722955911
 10
4392.984893878496
 20
539.4276529589548
 10
4396.450201251056
 20
535.915198277575
 10
4406.315972305497
 20
535.915198277575
 10
4408.488248392618
 20
533.713367244669
 10
4408.488248392618
 20
529.3549316087183
 10
4404.916624507369
 20
524.2866268490036
 10
4402.004149290218
 20
524.2866268490036
 10
4400.594753425298
 20
525.7151982775752
 10
4393.631409521216
 20
525.7151982775752
 10
4390.166102148655
 20
522.2027435961953
 10
4390.166102148655
 20
516.5705101018121
 10
4392.222013656295
 20
514.4866268490036
 10
4395.040805386136
 20
514.4866268490036
 10
4397.859597115976
 20
511.6294839918607
 10
4400.671248921815
 20
511.6294839918607
 10
4407.058527414565
 20
506.59401008442353
 10
4408.488248392618
 20
503.69566393354836
 10
4408.488248392618
 20
495.07530474910476
 10
4404.917058516228
 20
488.5597047599819
 10
4397.850955163576
 20
489.9921530326332
 10
4396.450201251056
 20
488.5723411347178
 10
4392.222013656295
 20
488.5723411347178
 10
4390.194106904743
 20
486.51684365726624
 10
4392.984893878496
 20
482.2737080345871
 10
4392.984893878496
 20
479.427652958955
 10
4395.035457883621
 20
477.34918996421237
 10
4406.3106248029835
 20
478.77776139278393
 10
4408.488248392618
 20
476.57051010181203
 10
4408.488248392618
 20
460.7741721676237
 10
4407.078852527698
 20
459.3456007390524
 10
4407.078852527698
 20
450.85622438752625
 10
4408.488248392618
 20
449.4276529589549
 10
4408.488248392618
 20
436.4977887515753
 10
4404.925188164359
 20
431.44163622985457
 10
4399.278774566014
 20
430.01082723196004
 10
4395.803685608336
 20
426.4884578819095
 10
4395.803685608336
 20
415.05988645333815
 10
4392.984893878496
 20
412.20274359619526
 10
4392.984893878496
 20
395.15196992328686
 10
4397.850179442367
 20
391.6294839918608
 10
4402.087784710736
 20
391.6294839918608
 10
4404.2600607978575
 20
389.42765295895487
 10
4404.2600607978575
 20
382.2670925049769
 10
4405.687072900708
 20
379.3742378158176
 10
4400.070298264929
 20
372.25774559642423
 10
4408.488248392618
 20
365.14734499921644
 10
4408.488248392618
 20
357.917029310481
 10
4406.315972305497
 20
355.71519827757504
 10
4392.222013656295
 20
355.71519827757504
 10
4390.166102148655
 20
353.63131502476676
 10
4390.166102148655
 20
343.71336724466903
 10
4393.641191106334
 20
340.1909978946185
 10
4404.916358025695
 20
337.3338550374758
 10
4408.5287238134215
 20
333.672341134718
 10
4407.078852527698
 20
332.20274359619515
 10
4407.078852527698
 20
327.9170293104809
 10
4403.505126502186
 20
324.29468088399574
 10
4396.458147177585
 20
322.86610945542435
 10
4392.984893878496
 20
319.3456007390525
 10
4392.984893878496
 20
316.56342979541165
 10
4397.873189012457
 20
310.19296888380165
 10
4406.322658388979
 20
308.76556408359266
 10
4409.11286030715
 20
305.9374000173738
 10
4414.706636310459
 20
308.77234113471786
 10
4417.51562674813
 20
308.77234113471786
 10
4423.142599302027
 20
313.0499889659264
 10
4428.855448011187
 20
314.49763271258234
 10
4431.03858223134
 20
312.2847958160977
 10
4431.03858223134
 20
303.71336724466926
 10
4434.5038896039005
 20
300.2009125632894
 10
4440.141473063581
 20
300.2009125632894
 10
4441.53334924819
 20
298.79009917939084
 10
4448.557365516102
 20
301.6379318441278
 10
4458.484714839084
 20
297.32546781288295
 10
4464.115174126051
 20
290.1916370460098
 10
4471.156128018355
 20
288.7642870997258
 10
4473.320458178946
 20
286.5705101018121
 10
4473.320458178946
 20
277.9990815303834
 10
4476.179725329589
 20
275.1009125632893
 10
4474.729854043866
 20
273.63131502476665
 10
4474.729854043866
 20
267.91702931048087
 10
4473.367522505694
 20
266.5361625432978
 10
4481.776833368466
 20
259.4330592849308
 10
4481.776833368466
 20
255.05988645333798
 10
4479.601292260918
 20
252.85474597770374
 10
4461.195615188989
 20
254.2898302761456
 10
4459.79364091441
 20
255.7108791397782
 10
4445.699682265209
 20
254.28230771120664
  0
LWPOLYLINE
  5
52
330
17
100
AcDbEntity
  8
K
100
AcDbPolyline
 90
70
 70
1
 10
5976.085021403137
 20
100.7178552620761
 10
5970.409716359335
 20
105.09576733428428
 10
5980.1548864193655
 20
113.68707346743456
 10
5975.978105491078
 20
119.41499415235468
 10
5982.9672844159895
 20
123.72813828174156
 10
5982.9672844159895
 20
126.4888840471865
 10
5977.4114999459425
 20
132.20316976147217
 10
5977.4114999459425
 20
137.91745547575795
 10
5974.633607710919
 20
140.77459833290072
 10
5974.633607710919
 20
143.71294107939227
 10
5982.927810621121
 20
152.2437697061465
 10
5980.941617673079
 20
154.28662684900362
 10
5978.153670861732
 20
154.28662684900362
 10
5974.604473117899
 20
159.39726101844263
 10
5978.163725438056
 20
163.05805542043217
 10
5982.403802763844
 20
163.05805542043217
 10
5986.57064111638
 20
160.2009125632894
 10
5989.2698604944335
 20
160.2009125632894
 10
5996.214591081993
 20
168.77234113471795
 10
5997.693466216508
 20
168.77234113471795
 10
6006.039933696366
 20
160.18775687986908
 10
6010.206772048901
 20
158.75918545129764
 10
6018.527657979185
 20
150.2009125632894
 10
6023.9989473159485
 20
150.2009125632894
 10
6028.819599919997
 20
155.15909379896564
 10
6031.5974921550205
 20
160.8733795132513
 10
6037.155964746999
 20
166.59043003902886
 10
6041.322803099534
 20
173.73328718188608
 10
6048.999977431162
 20
181.62948399186087
 10
6051.862364799471
 20
181.62948399186087
 10
6053.20906335034
 20
180.24436541280699
 10
6056.58142864412
 20
183.71294107939218
 10
6056.58142864412
 20
187.99865536510652
 10
6058.7226002537445
 20
190.2009125632893
 10
6062.955892715418
 20
190.2009125632893
 10
6068.476700433444
 20
187.36175700888313
 10
6074.009167068812
 20
191.62948399186075
 10
6082.334684251447
 20
191.62948399186075
 10
6083.723630368959
 20
193.0580554204322
 10
6103.186917038273
 20
193.0580554204322
 10
6106.009112012722
 20
194.50941017621548
 10
6108.180574829852
 20
192.27599759120162
 10
6106.777401940325
 20
185.05997720692625
 10
6102.616650522012
 20
179.3540389441931
 10
6102.616650522012
 20
176.5064653381885
 10
6099.823372252853
 20
170.76052965780775
 10
6091.505081581917
 20
160.77899213802982
 10
6091.505081581917
 20
157.92848124882687
 10
6080.374661967521
 20
140.75654140681948
 10
6067.146468158172
 20
124.28662684900371
 10
6064.286544246229
 20
124.28662684900371
 10
6058.6924619986885
 20
128.60188391719873
 10
6054.547166145992
 20
134.2866268490037
 10
6047.6873669245
 20
134.2866268490037
 10
6042.131582454452
 20
130.00091256328938
 10
6036.570081995669
 20
130.00091256328938
 10
6029.62535140811
 20
125.71519827757504
 10
6025.472388566745
 20
125.71519827757504
 10
6022.067999789223
 20
122.21368552772871
 10
6023.458940299926
 20
116.49119464811764
 10
6017.131541272348
 20
111.4294839918608
 10
6014.276324493364
 20
111.4294839918608
 10
6010.109486140829
 20
115.71519827757504
 10
6006.027142921579
 20
115.71519827757504
 10
6002.603254336078
 20
112.19362940878352
 10
6001.214308218567
 20
106.47934369449786
 10
5999.076217962394
 20
104.28025575785082
 10
5989.362757776826
 20
105.70748089523241
 10
5985.198558203306
 20
99.99681392877224
 10
5976.085021403137
 20
100.7178552620761
  0
LWPOLYLINE
  5
53
330
17
100
AcDbEntity
  8
K
100
AcDbPolyline
 90
7
 70
1
 10
6019.114764370443
 20
460.73181007896216
 10
6013.524099001251
 20
469.3570526773985
 10
6013.524099001251
 20
472.28436965082057
 10
6015.702574777782
 20
474.5249952682935
 10
6026.26910686791
 20
465.10607476516986
 10
6021.290821818281
 20
459.98576398024073
 10
6019.114764370443
 20
460.73181007896216
  0
LWPOLYLINE
  5
54
330
17
100
AcDbEntity
  8
K
100
AcDbPolyline
 90
106
 70
1
 10
5758.706480610324
 20
12.861920900893109
 10
5757.321292753667
 20
14.286626849003724
 10
5753.238949534416
 20
14.286626849003724
 10
5751.807755850262
 20
12.814602570914602
 10
5750.376562166108
 20
14.286626849003724
 10
5744.820777696059
 20
14.286626849003724
 10
5743.431831578548
 20
15.71519827757517
 10
5733.709208755965
 20
15.71519827757517
 10
5732.320262638453
 20
17.143769706146507
 10
5729.626865536715
 20
17.143769706146507
 10
5728.19567185256
 20
15.671745428057493
 10
5726.764478168406
 20
17.143769706146507
 10
5721.22112475485
 20
17.143769706146507
 10
5713.5117376186845
 20
22.189706097620608
 10
5713.5117376186845
 20
26.57008393653515
 10
5715.65290922831
 20
28.772341134717937
 10
5726.782519192554
 20
28.772341134717937
 10
5732.338303662601
 20
31.62948399186083
 10
5735.102030014839
 20
31.62948399186083
 10
5746.207537487827
 20
41.62402889623928
 10
5755.926523276106
 20
43.05206592546351
 10
5758.710238871178
 20
45.915198277575065
 10
5762.877077223714
 20
45.915198277575065
 10
5767.04391557625
 20
50.2009125632894
 10
5769.821807811273
 20
50.2009125632894
 10
5772.599700046297
 20
53.0580554204323
 10
5775.362404007196
 20
53.0580554204323
 10
5779.522798208016
 20
60.18986590123498
 10
5786.481144011801
 20
61.62123805888409
 10
5792.044945691464
 20
67.34376970614653
 10
5796.2342647791065
 20
67.34376970614653
 10
5803.134600380489
 20
70.1826479501344
 10
5807.314757228878
 20
75.91519827757509
 10
5811.574686469916
 20
75.91519827757509
 10
5813.715858079541
 20
73.71294107939231
 10
5813.715858079541
 20
67.99865536510652
 10
5815.699277255808
 20
65.95865112709276
 10
5817.682696432076
 20
67.99865536510652
 10
5817.682696432076
 20
72.28436965082085
 10
5821.849534784612
 20
76.57008393653508
 10
5821.849534784612
 20
85.14151250796354
 10
5823.990706394236
 20
87.34376970614655
 10
5830.935436981797
 20
87.34376970614655
 10
5832.324383099309
 20
88.77234113471788
 10
5837.946621678493
 20
88.77234113471788
 10
5840.658894149182
 20
87.37751562303131
 10
5847.6217857747115
 20
100.26828095935714
 10
5849.8284571348495
 20
97.99865536510654
 10
5849.8284571348495
 20
66.57008393653507
 10
5851.8505450114235
 20
64.49030781699128
 10
5868.451037409413
 20
65.91314853779551
 10
5874.010807648813
 20
68.77234113471798
 10
5879.548551094712
 20
68.77234113471798
 10
5880.932376411287
 20
70.19564567077374
 10
5892.063091851718
 20
71.62667869081662
 10
5907.347499618819
 20
78.77234113471798
 10
5914.286079543681
 20
78.77234113471798
 10
5921.23081013124
 20
83.05805542043221
 10
5925.383772972604
 20
83.05805542043221
 10
5926.772719090116
 20
84.48662684900366
 10
5929.635106458425
 20
84.48662684900366
 10
5931.7762780680505
 20
82.28436965082086
 10
5931.7762780680505
 20
75.14151250796364
 10
5933.759697244319
 20
73.10150826994987
 10
5935.743116420586
 20
75.14151250796364
 10
5935.743116420586
 20
83.64932248104573
 10
5934.3335523152
 20
86.5488777370862
 10
5936.495341912699
 20
88.77234113471788
 10
5939.273234147723
 20
88.77234113471788
 10
5942.0511263827475
 20
91.62948399186077
 10
5947.698911241949
 20
91.62948399186077
 10
5952.627209838618
 20
85.11232907838806
 10
5949.843767680081
 20
79.38662684900366
 10
5952.631087818602
 20
73.65294738949257
 10
5949.0902176755735
 20
70.01105959065235
 10
5943.5344332055265
 20
68.5824881620809
 10
5936.575042737868
 20
61.42455290669524
 10
5923.990257848578
 20
62.86275477635483
 10
5922.6106750456975
 20
64.28169576383824
 10
5910.194429819773
 20
62.86275477635483
 10
5906.775247952836
 20
59.34602690432933
 10
5906.775247952836
 20
55.0603126186151
 10
5904.634076343212
 20
52.858055420432315
 10
5896.30039963814
 20
52.858055420432315
 10
5890.762656192241
 20
47.16232542354659
 10
5887.948681908921
 20
45.715198277575084
 10
5882.404543681904
 20
45.715198277575084
 10
5875.468371113459
 20
40.00795430029458
 10
5868.445719870421
 20
38.563354140196516
 10
5867.048036037106
 20
40.00091256328942
 10
5861.586801276667
 20
40.00091256328942
 10
5858.162133839921
 20
35.06959464739901
 10
5858.162133839921
 20
32.203169761472196
 10
5854.632016112783
 20
28.57234113471796
 10
5844.909393290201
 20
28.57234113471796
 10
5842.12864655665
 20
25.712262342921566
 10
5821.294454793972
 20
27.14083377149301
 10
5810.208252672469
 20
15.73835285270997
 10
5806.007645839835
 20
12.85805542043228
 10
5800.46311752982
 20
12.85805542043228
 10
5799.074171412309
 20
11.429483991860835
 10
5792.044945691464
 20
11.429483991860835
 10
5790.655999573952
 20
12.85805542043228
 10
5775.462087414607
 20
12.85805542043228
 10
5774.069231920033
 20
11.42546308399195
 10
5758.706480610324
 20
12.861920900893109
  0
LWPOLYLINE
  5
55
330
17
100
AcDbEntity
  8
K
100
AcDbPolyline
 90
44
 70
1
 10
6784.200091005182
 20
89.29520887885434
 10
6780.826306736069
 20
92.85290703913363
 10
6768.625891243308
 20
91.42340788753955
 10
6763.800194893639
 20
97.96609649147004
 10
6766.539827895618
 20
100.85507412415696
 10
6766.539827895618
 20
103.63246528813607
 10
6765.14729145949
 20
105.10091256328936
 10
6768.628926888194
 20
108.77234113471789
 10
6771.424338686512
 20
108.77234113471789
 10
6775.473492699392
 20
104.50245704218997
 10
6779.453742313682
 20
105.90153155325143
 10
6782.796491375944
 20
109.42650269558551
 10
6782.796491375944
 20
113.71221698129975
 10
6784.88559036852
 20
115.91519827757502
 10
6790.304478195296
 20
115.91519827757502
 10
6794.377546456206
 20
120.21030024695433
 10
6801.151156239675
 20
118.78172881838289
 10
6803.117320726354
 20
120.85507412415697
 10
6803.117320726354
 20
123.71221698129975
 10
6807.915863632316
 20
128.77234113471792
 10
6810.711275430635
 20
128.77234113471792
 10
6814.760429443515
 20
124.50245704218999
 10
6818.740679057804
 20
125.90153155325135
 10
6822.045613640634
 20
129.3866268490036
 10
6820.728706163374
 20
130.77532243099333
 10
6820.728706163374
 20
133.71221698129975
 10
6822.807797178665
 20
135.90464473901687
 10
6828.226685005441
 20
137.33321616758832
 10
6832.3008588528055
 20
141.6294839918608
 10
6837.719746679582
 20
141.6294839918608
 10
6840.4291905929695
 20
144.4866268490037
 10
6845.9340463046765
 20
144.4866268490037
 10
6848.023145297252
 20
142.28364555272833
 10
6848.023145297252
 20
126.49366347160363
 10
6839.18789818151
 20
115.7434175817611
 10
6828.347317957502
 20
107.16977091908365
 10
6820.207289355554
 20
98.58600785904159
 10
6816.138628426109
 20
97.15585639816304
 10
6807.987227868841
 20
89.99272728926155
 10
6794.44570955948
 20
92.84866773676725
 10
6791.745168036921
 20
90.00091256328935
 10
6789.035724123532
 20
90.00091256328935
 10
6787.67209977601
 20
88.56295345105292
 10
6784.200091005182
 20
89.29520887885434
  0
LWPOLYLINE
  5
56
330
17
100
AcDbEntity
  8
K
100
AcDbPolyline
 90
20
 70
1
 10
6801.829299229413
 20
439.2893606503243
 10
6798.44681513513
 20
441.42948399186065
 10
6794.454611950308
 20
441.42948399186065
 10
6793.056906051149
 20
439.95558545259297
 10
6791.659200151989
 20
441.42948399186065
 10
6787.595034281908
 20
441.42948399186065
 10
6784.160122367102
 20
445.0516420272448
 10
6782.786711004849
 20
450.84476059920166
 10
6784.151213332639
 20
452.2836455527284
 10
6784.151213332639
 20
456.5693598384426
 10
6786.23030434793
 20
458.7617875961596
 10
6791.725017776189
 20
460.21034878855295
 10
6797.155836833747
 20
455.9151982775751
 10
6799.873499777084
 20
455.9151982775751
 10
6806.647109560553
 20
448.77234113471775
 10
6809.356553473942
 20
448.77234113471775
 10
6814.178685549238
 20
443.68734190404325
 10
6812.095486603056
 20
440.0260758660925
 10
6809.333774553962
 20
438.5699457326058
 10
6801.829299229413
 20
439.2893606503243
  0
LWPOLYLINE
  5
57
330
17
100
AcDbEntity
  8
K
100
AcDbPolyline
 90
95
 70
1
 10
7273.807366677387
 20
267.1437697061465
 10
7267.130121486546
 20
267.1437697061465
 10
7262.6034848025265
 20
264.2681548309096
 10
7258.128600984215
 20
267.11089291022614
 10
7257.030087657858
 20
265.7151982775749
 10
7254.6680835319985
 20
265.7151982775749
 10
7250.170524495147
 20
275.71519827757515
 10
7243.440307244514
 20
275.71519827757515
 10
7241.702274257089
 20
277.92342211402143
 10
7241.702274257089
 20
282.20913639973566
 10
7240.577884497876
 20
283.6377078283072
 10
7240.577884497876
 20
292.27840301255736
 10
7242.829642005546
 20
295.13932949571944
 10
7243.954031764759
 20
307.9964723528623
 10
7246.177622483068
 20
310.8216120724177
 10
7241.692990953613
 20
317.9439382255127
 10
7243.951053775515
 20
325.1162821677656
 10
7243.951053775515
 20
329.3519935425928
 10
7241.692921292392
 20
332.2210196261961
 10
7242.817311051605
 20
336.5067339119103
 10
7241.702274257089
 20
337.9234221140215
 10
7241.702274257089
 20
345.1282259034671
 10
7245.048939538366
 20
350.7976127717969
 10
7240.569171007282
 20
355.0663745230154
 10
7241.708803898861
 20
360.85812769269523
 10
7243.951053775515
 20
363.7069744411285
 10
7243.951053775515
 20
366.49485068544993
 10
7240.550625563337
 20
370.8151982775749
 10
7243.951053775515
 20
375.1355458697001
 10
7243.951053775515
 20
379.3519935425929
 10
7242.799405081762
 20
380.8151982775752
 10
7244.564697003727
 20
383.05805542043214
 10
7250.2904039366085
 20
383.05805542043214
 10
7254.78796297346
 20
375.91519827757503
 10
7263.776426213134
 20
375.91519827757503
 10
7267.149595490772
 20
371.6294839918608
 10
7269.398375009198
 20
371.6294839918608
 10
7270.474213117017
 20
370.2625989148622
 10
7272.722992635442
 20
373.1197417720049
 10
7273.847382394655
 20
371.69117034343355
 10
7276.539695017691
 20
375.11183551628636
 10
7274.309577274262
 20
379.36198427187986
 10
7274.309577274262
 20
385.06627925687866
 10
7272.060797755837
 20
387.92342211402155
 10
7272.060797755837
 20
392.27840301255725
 10
7274.309577274262
 20
395.13554586970014
 10
7274.309577274262
 20
402.20913639973577
 10
7271.5390340313625
 20
405.7291959573741
 10
7267.041474994511
 20
407.1577673859454
 10
7265.307473411806
 20
409.3608691999315
 10
7266.445378601544
 20
415.14384197840945
 10
7268.176881947196
 20
417.3437697061464
 10
7274.995724873028
 20
417.3437697061464
 10
7280.617673669091
 20
414.4866268490035
 10
7282.793948816963
 20
414.4866268490035
 10
7283.918338576177
 20
415.9151982775751
 10
7293.010559952668
 20
415.9151982775751
 10
7294.748592940093
 20
413.7069744411286
 10
7294.748592940093
 20
405.13554586970014
 10
7295.872982699306
 20
403.7069744411286
 10
7295.872982699306
 20
400.78056497116444
 10
7293.626709112082
 20
397.9266059759221
 10
7294.746148270627
 20
382.2815090395584
 10
7297.508118989519
 20
378.7723411347179
 10
7300.881288267158
 20
378.7723411347179
 10
7303.779946007449
 20
375.08950820684817
 10
7295.89748437045
 20
367.93600281859983
 10
7298.140423992728
 20
363.6614181817208
 10
7295.872982699306
 20
360.7805649711644
 10
7295.872982699306
 20
353.6533723174804
 10
7293.627215576501
 20
347.94674128393035
 10
7294.744810490292
 20
340.8470494311786
 10
7297.016034233515
 20
336.5185610388637
 10
7292.499813421668
 20
330.7805649711644
 10
7292.499813421668
 20
327.99268872684297
 10
7293.624203180881
 20
326.56411729827164
 10
7293.624203180881
 20
316.5641172982714
 10
7295.872982699306
 20
313.7069744411287
 10
7295.872982699306
 20
300.7805649711643
 10
7293.624203180881
 20
297.92342211402143
 10
7293.624203180881
 20
295.1233373588507
 10
7296.997372458519
 20
287.98048021599357
 10
7296.997372458519
 20
286.4948506854501
 10
7292.511057973854
 20
280.79485151713214
 10
7294.75983749228
 20
273.65199437427503
 10
7293.010559952668
 20
271.4294839918607
 10
7290.664677131454
 20
271.4294839918607
 10
7289.531276103199
 20
272.8695045121576
 10
7284.005265507862
 20
274.2736974596296
 10
7282.380305588751
 20
272.2091363997359
 10
7282.380305588751
 20
269.4055956662413
 10
7284.643148032254
 20
263.65557520285665
 10
7282.878241775278
 20
261.41320805911096
 10
7278.292667891092
 20
262.8697358736165
 10
7273.807366677387
 20
267.1437697061465
  0
LWPOLYLINE
  5
58
330
17
100
AcDbEntity
  8
K
100
AcDbPolyline
 90
25
 70
1
 10
7278.296389780112
 20
208.57234113471802
 10
7276.05316779497
 20
211.42242297658888
 10
7266.007117967681
 20
210.00422161835797
 10
7260.37865800326
 20
207.14376970614646
 10
7253.545001130309
 20
207.14376970614646
 10
7251.799728669199
 20
210.83947271984127
 10
7255.818534967238
 20
214.48662684900356
 10
7259.181763873494
 20
214.48662684900356
 10
7261.43054339192
 20
217.34376970614645
 10
7270.5227647684105
 20
217.34376970614645
 10
7271.6471545276245
 20
215.91519827757512
 10
7274.923220502475
 20
215.91519827757512
 10
7277.1720000209
 20
218.772341134718
 10
7281.669559057751
 20
218.772341134718
 10
7283.918338576177
 20
221.6294839918609
 10
7286.264221397391
 20
221.6294839918609
 10
7288.527125412741
 20
218.7543955312623
 10
7291.908055611487
 20
217.32253727382388
 10
7294.768537375199
 20
212.23447641187843
 10
7292.50679921042
 20
209.36086919993159
 10
7293.631188969633
 20
203.6465834856458
 10
7291.881644555467
 20
201.42373403098367
 10
7285.584885694956
 20
202.1510271108744
 10
7282.777084689194
 20
208.57234113471802
 10
7278.296389780112
 20
208.57234113471802
  0
LWPOLYLINE
  5
59
330
17
100
AcDbEntity
  8
K
100
AcDbPolyline
 90
12
 70
1
 10
7265.928102428771
 20
165.91519827757506
 10
7269.398375009198
 20
165.91519827757506
 10
7270.5227647684105
 20
164.4866268490036
 10
7279.440253543552
 20
164.4866268490036
 10
7281.7407859276855
 20
165.9480750734954
 10
7283.531954282504
 20
163.67234113471795
 10
7279.53735684634
 20
158.59708345010304
 10
7272.791018291064
 20
154.3113691643887
 10
7269.359163858627
 20
149.95109360244518
 10
7264.190069441346
 20
155.05914283036037
 10
7264.190069441346
 20
163.7069744411288
 10
7265.928102428771
 20
165.91519827757506
  0
LWPOLYLINE
  5
5A
330
17
100
AcDbEntity
  8
K
100
AcDbPolyline
 90
11
 70
1
 10
7241.682329821983
 20
422.2344764118784
 10
7244.554748350428
 20
427.3437697061464
 10
7248.015495579927
 20
427.3437697061464
 10
7252.5031672916875
 20
424.49290792281056
 10
7259.270435275626
 20
425.9259112641236
 10
7264.40691027205
 20
419.3998633671747
 10
7262.671947018329
 20
415.72599062334683
 10
7254.787899801198
 20
414.29500175600566
 10
7253.631041947364
 20
412.82517862451186
 10
7244.5452229995
 20
418.59708345010296
 10
7241.682329821983
 20
422.2344764118784
  0
LWPOLYLINE
  5
5B
330
17
100
AcDbEntity
  8
K
100
AcDbPolyline
 90
9
 70
1
 10
7249.075438834277
 20
174.4866268490036
 10
7251.408138861792
 20
174.4866268490036
 10
7256.546600061395
 20
167.9580554204323
 10
7254.786499135676
 20
165.72179359637872
 10
7244.66699130276
 20
164.29322216780727
 10
7243.5065401888005
 20
162.8188336899019
 10
7240.550091941275
 20
165.07258820617676
 10
7242.84771786746
 20
169.45139376465755
 10
7249.075438834277
 20
174.4866268490036
  0
LWPOLYLINE
  5
5C
330
17
100
AcDbEntity
  8
K
100
AcDbPolyline
 90
43
 70
1
 10
6921.843397863332
 20
198.59957907948134
 10
6913.380464566937
 20
209.35199354259294
 10
6913.380464566937
 20
220.84983158398575
 10
6916.262293710536
 20
224.51128326729975
 10
6925.30044305386
 20
220.20506677967623
 10
6933.172565861808
 20
221.63389131487676
 10
6938.803186868386
 20
218.772341134718
 10
6949.97458008996
 20
218.772341134718
 10
6951.098969849173
 20
220.20091256328934
 10
6956.832835895148
 20
220.20091256328934
 10
6958.567753498699
 20
216.52713648600886
 10
6956.325937192021
 20
212.25469265914353
 10
6957.942411707239
 20
210.2009125632893
 10
6968.061919540154
 20
210.2009125632893
 10
6969.186309299367
 20
208.77234113471798
 10
6971.337985515005
 20
208.77234113471798
 10
6972.462375274217
 20
210.2009125632893
 10
6975.932647854644
 20
210.2009125632893
 10
6977.6706808420695
 20
207.99268872684286
 10
6977.6706808420695
 20
203.7069744411286
 10
6979.305817132283
 20
201.62948399186087
 10
6991.674104483624
 20
201.62948399186087
 10
6993.92288400205
 20
198.77234113471798
 10
6998.410502667519
 20
198.77234113471798
 10
7002.407255544752
 20
195.14520096462485
 10
7002.407255544752
 20
192.20913639973568
 10
7000.669222557328
 20
190.00091256328932
 10
6993.837672940752
 20
190.00091256328932
 10
6990.47153799599
 20
192.85209719768216
 10
6981.560405263054
 20
191.43686401072767
 10
6979.919460360496
 20
189.3519935425928
 10
6979.919460360496
 20
186.5641172982716
 10
6981.080085113362
 20
185.08950820684834
 10
6977.0470972424755
 20
181.42948399186088
 10
6963.539761571068
 20
181.42948399186088
 10
6957.917812775004
 20
178.572341134718
 10
6954.472139126811
 20
178.572341134718
 10
6953.347749367599
 20
180.00091256328932
 10
6948.947293633536
 20
180.00091256328932
 10
6947.818378236335
 20
178.56659117384078
 10
6941.540212623697
 20
179.2917366821297
 10
6929.716146229762
 20
192.88382677233574
 10
6921.843397863332
 20
198.59957907948134
  0
LWPOLYLINE
  5
5D
330
17
100
AcDbEntity
  8
K
100
AcDbPolyline
 90
25
 70
1
 10
6916.753633844575
 20
506.4799728610534
 10
6916.753633844575
 20
515.0545633289836
 10
6913.376335403799
 20
517.9152036711307
 10
6913.951023031272
 20
524.4866268490036
 10
6919.642003105141
 20
524.4866268490036
 10
6928.688871570743
 20
528.796997553014
 10
6929.832667726918
 20
527.3437697061465
 10
6934.252597465207
 20
527.3437697061465
 10
6938.750156502058
 20
530.2009125632892
 10
6943.325344837471
 20
530.2009125632892
 10
6944.40118294529
 20
528.8340274862906
 10
6945.477021053109
 20
530.2009125632892
 10
6947.822903874323
 20
530.2009125632892
 10
6949.593984446955
 20
527.9507007634852
 10
6943.947299884029
 20
522.2112730131659
 10
6945.070363613649
 20
516.5037263427887
 10
6943.276793186078
 20
514.2249404974308
 10
6942.1038517754705
 20
515.7151982775749
 10
6929.832667726918
 20
515.7151982775749
 10
6928.197531436704
 20
513.6377078283072
 10
6928.197531436704
 20
509.351993542593
 10
6926.468509718321
 20
507.1552187978716
 10
6920.846560922257
 20
505.7266473693005
 10
6919.682289535499
 20
504.24740511847335
 10
6916.753633844575
 20
506.4799728610534
  0
LWPOLYLINE
  5
5E
330
17
100
AcDbEntity
  8
K
100
AcDbPolyline
 90
57
 70
1
 10
7852.297836391905
 20
520.0177579723464
 10
7850.594844438877
 20
522.858055420432
 10
7840.3283738037835
 20
522.858055420432
 10
7837.758735561682
 20
525.7151982775752
 10
7836.029737255684
 20
525.7151982775752
 10
7830.026955474199
 20
537.1570345923122
 10
7824.034434153028
 20
538.5848194628385
 10
7822.32882377576
 20
541.4294839918607
 10
7820.713812696565
 20
541.4294839918607
 10
7816.431082293063
 20
537.1437697061463
 10
7813.020095538101
 20
537.1437697061463
 10
7812.1635494574
 20
535.7151982775749
 10
7803.502242341003
 20
535.7151982775749
 10
7799.586991962219
 20
539.3429558967824
 10
7799.586991962219
 20
545.0732307056401
 10
7797.509629362402
 20
548.5379139535664
 10
7792.3703528782
 20
545.6807710964238
 10
7791.49316487054
 20
547.1437697061465
 10
7788.932082557164
 20
547.1437697061465
 10
7785.488174223575
 20
551.4516544412802
 10
7782.999124610233
 20
552.8354232160668
 10
7775.2663582508485
 20
545.6704658407181
 10
7772.1775173798005
 20
549.3502193424407
 10
7772.1775173798005
 20
550.8428801352243
 10
7776.93188149863
 20
558.7723411347179
 10
7778.644973660031
 20
558.7723411347179
 10
7779.51366604349
 20
560.2211705055939
 10
7783.796396446993
 20
558.7925990770224
 10
7784.640796224934
 20
560.2009125632894
 10
7793.319535681989
 20
560.2009125632894
 10
7794.176081762689
 20
558.7723411347179
 10
7797.602266085491
 20
558.7723411347179
 10
7798.458812166192
 20
557.3437697061463
 10
7802.7415425696945
 20
557.3437697061463
 10
7803.60470668879
 20
555.9041605286703
 10
7810.438679442209
 20
554.4794242478177
 10
7813.856226661268
 20
551.6294839918608
 10
7818.1330278103405
 20
551.6294839918608
 10
7822.404694073503
 20
548.7797223673816
 10
7828.410952082198
 20
550.2107801565286
 10
7834.417128406288
 20
544.4866268490036
 10
7840.429570120519
 20
544.4866268490036
 10
7842.14266228192
 20
541.6294839918608
 10
7852.409132917013
 20
541.6294839918608
 10
7854.978771159115
 20
538.7723411347179
 10
7856.602749337094
 20
538.7723411347179
 10
7859.211423194923
 20
541.6728871171799
 10
7865.252787311508
 20
535.915198277575
 10
7867.839044702937
 20
535.915198277575
 10
7869.552136864338
 20
533.0580554204323
 10
7872.101360148906
 20
533.0580554204323
 10
7875.568374386775
 20
530.1668639280723
 10
7877.742830734215
 20
526.5402450214898
 10
7876.418165404318
 20
522.858055420432
 10
7860.97147848949
 20
522.858055420432
 10
7856.674328023811
 20
518.5579110257328
 10
7852.297836391905
 20
520.0177579723464
  0
LWPOLYLINE
  5
5F
330
17
100
AcDbEntity
  8
K
100
AcDbPolyline
 90
13
 70
1
 10
8653.581918851341
 20
449.2904318347233
 10
8652.368122303324
 20
450.77960680729154
 10
8652.368122303324
 20
457.9936468907155
 10
8653.514569714882
 20
459.4001929840037
 10
8650.021370257726
 20
466.5430501268608
 10
8654.167220128145
 20
471.62948399186064
 10
8655.426623754713
 20
471.62948399186064
 10
8656.591023573767
 20
470.2009125632893
 10
8660.084223030923
 20
470.2009125632893
 10
8664.21212049385
 20
465.13650403357263
 10
8664.21212049385
 20
450.77960680729154
 10
8662.409798627428
 20
448.5683856431071
 10
8653.581918851341
 20
449.2904318347233
  0
LWPOLYLINE
  5
60
330
17
100
AcDbEntity
  8
K
100
AcDbPolyline
 90
24
 70
1
 10
8655.861321760482
 20
343.6367496644344
 10
8655.861321760482
 20
346.5650754621443
 10
8657.025721579535
 20
347.99364689071564
 10
8657.025721579535
 20
362.20817823586304
 10
8655.861321760482
 20
363.6367496644344
 10
8655.861321760482
 20
366.57336128163064
 10
8660.481907672762
 20
370.825017527322
 10
8659.35452121764
 20
372.20817823586304
 10
8659.35452121764
 20
376.49389252157727
 10
8657.660419585303
 20
378.57234113471793
 10
8654.157228724802
 20
378.57234113471793
 10
8651.20372248427
 20
383.64535161136536
 10
8651.20372248427
 20
386.56507546214414
 10
8655.843369352988
 20
392.2573358411465
 10
8652.368122303324
 20
399.3634840918645
 10
8652.368122303324
 20
402.2793611764299
 10
8653.532522122376
 20
403.70793260500125
 10
8653.532522122376
 20
407.9936468907157
 10
8656.496019766251
 20
411.6294839918608
 10
8658.91982321187
 20
411.6294839918608
 10
8664.21212049385
 20
405.1365040335728
 10
8664.21212049385
 20
345.07188571491355
 10
8660.04688019977
 20
338.50159840354996
 10
8655.861321760482
 20
343.6367496644344
  0
LWPOLYLINE
  5
61
330
17
100
AcDbEntity
  8
K
100
AcDbPolyline
 90
17
 70
1
 10
8622.752459984056
 20
527.1408491725871
 10
8608.759673384151
 20
525.7102341026579
 10
8606.426827546982
 20
528.5723411347178
 10
8604.098027908878
 20
528.5723411347178
 10
8602.307997299304
 20
530.7684824800383
 10
8601.12241716288
 20
535.1321534840961
 10
8606.434273102052
 20
540.2009125632894
 10
8619.330229364077
 20
540.2009125632894
 10
8620.49462918313
 20
538.7723411347179
 10
8623.892824832774
 20
538.7723411347179
 10
8625.057224651828
 20
540.2009125632894
 10
8629.806087078616
 20
540.2009125632894
 10
8639.792075001104
 20
529.390725608375
 10
8636.805079769914
 20
525.7260599370696
 10
8630.98308067465
 20
524.2974885084981
 10
8629.784584477744
 20
522.8270851331822
 10
8622.752459984056
 20
527.1408491725871
  0
LWPOLYLINE
  5
62
330
17
100
AcDbEntity
  8
K
100
AcDbPolyline
 90
19
 70
1
 10
8559.262167407598
 20
540.7231330431879
 10
8557.511198266828
 20
542.8713509026246
 10
8552.853598990616
 20
544.2999223311962
 10
8548.73653840763
 20
549.3510353787203
 10
8548.73653840763
 20
553.7079326050011
 10
8551.716825960702
 20
557.364368802931
 10
8555.226648266816
 20
555.9289993293661
 10
8561.029899096171
 20
560.2009125632894
 10
8563.419764015458
 20
560.2009125632894
 10
8568.07736329167
 20
557.3437697061463
 10
8570.425436963862
 20
557.3437697061463
 10
8574.54426721154
 20
552.2904855036832
 10
8575.727705583764
 20
547.9346975216639
 10
8573.929473300963
 20
545.7284937597677
 10
8569.27187402475
 20
544.2999223311962
 10
8566.932237506704
 20
541.4294839918607
 10
8564.603437868598
 20
541.4294839918607
 10
8563.432013174419
 20
539.9922939292683
 10
8559.262167407598
 20
540.7231330431879
  0
LWPOLYLINE
  5
63
330
17
100
AcDbEntity
  8
K
100
AcDbPolyline
 90
25
 70
1
 10
8532.478585917088
 20
556.4403456513554
 10
8530.744885507618
 20
558.5673769598005
 10
8516.772087678986
 20
557.138805531229
 10
8514.423050608104
 20
560.0207771609112
 10
8508.692041709226
 20
562.8332666291714
 10
8507.547846735013
 20
561.4294839918608
 10
8502.890247458803
 20
561.4294839918608
 10
8501.725847639751
 20
560.0009125632894
 10
8495.808844736972
 20
560.0009125632894
 10
8492.845347093098
 20
563.6367496644345
 10
8492.845347093098
 20
566.4938925215772
 10
8490.516547454992
 20
569.3510353787201
 10
8490.516547454992
 20
572.2793611764298
 10
8493.500249943707
 20
575.9399870688358
 10
8499.372761151075
 20
573.0580554204323
 10
8504.054647277857
 20
573.0580554204323
 10
8508.676780453156
 20
567.3872821299841
 10
8516.796150340717
 20
574.5025969713911
 10
8520.3647738536
 20
573.0431802812317
 10
8526.15638199905
 20
567.3587232507915
 10
8534.314704571612
 20
570.2185034793268
 10
8537.292540217102
 20
566.565075462144
 10
8537.292540217102
 20
557.9224639501488
 10
8535.48351050439
 20
555.7030131062637
 10
8532.478585917088
 20
556.4403456513554
  0
LWPOLYLINE
  5
64
330
17
100
AcDbEntity
  8
K
100
AcDbPolyline
 90
8
 70
1
 10
8470.184572187936
 20
571.4386567491827
 10
8465.961070771526
 20
576.6203592480073
 10
8481.944555764388
 20
577.3466450330283
 10
8483.748100948169
 20
573.6587749997177
 10
8481.931050715853
 20
571.4294839918608
 10
8478.437851258695
 20
571.4294839918608
 10
8477.265219845624
 20
569.9908134376841
 10
8470.184572187936
 20
571.4386567491827
  0
ENDSEC
  0
SECTION
  2
OBJECTS
  0
DICTIONARY
  5
A
330
0
100
AcDbDictionary
281
1
  3
ACAD_COLOR
350
B
  3
ACAD_GROUP
350
C
  3
ACAD_LAYOUT
350
D
  3
ACAD_MATERIAL
350
E
  3
ACAD_MLEADERSTYLE
350
F
  3
ACAD_MLINESTYLE
350
10
  3
ACAD_PLOTSETTINGS
350
11
  3
ACAD_PLOTSTYLENAME
350
12
  3
ACAD_SCALELIST
350
14
  3
ACAD_TABLESTYLE
350
15
  3
ACAD_VISUALSTYLE
350
16
  3
EZDXF_META
350
2D
  0
DICTIONARY
  5
B
330
A
100
AcDbDictionary
281
1
  0
DICTIONARY
  5
C
330
A
100
AcDbDictionary
281
1
  0
DICTIONARY
  5
D
330
A
100
AcDbDictionary
281
1
  3
Model
350
1A
  3
Layout1
350
1E
  0
DICTIONARY
  5
E
330
A
100
AcDbDictionary
281
1
  3
ByBlock
350
1F
  3
ByLayer
350
20
  3
Global
350
21
  0
DICTIONARY
  5
F
330
A
100
AcDbDictionary
281
1
  3
Standard
350
2C
  0
DICTIONARY
  5
10
330
A
100
AcDbDictionary
281
1
  3
Standard
350
22
  0
DICTIONARY
  5
11
330
A
100
AcDbDictionary
281
1
  0
ACDBDICTIONARYWDFLT
  5
12
330
A
100
AcDbDictionary
281
1
  3
Normal
350
13
100
AcDbDictionaryWithDefault
340
13
  0
ACDBPLACEHOLDER
  5
13
330
12
  0
DICTIONARY
  5
14
330
A
100
AcDbDictionary
281
1
  0
DICTIONARY
  5
15
330
A
100
AcDbDictionary
281
1
  0
DICTIONARY
  5
16
330
A
100
AcDbDictionary
281
1
  0
LAYOUT
  5
1A
330
D
100
AcDbPlotSettings
  1

  4
A3
  6

 40
7.5
 41
20.0
 42
7.5
 43
20.0
 44
420.0
 45
297.0
 46
0.0
 47
0.0
 48
0.0
 49
0.0
140
0.0
141
0.0
142
1.0
143
1.0
 70
1024
 72
1
 73
0
 74
5
  7

 75
16
 76
0
 77
2
 78
300
147
1.0
148
0.0
149
0.0
100
AcDbLayout
  1
Model
 70
1
 71
0
 10
0.0
 20
0.0
 11
420.0
 21
297.0
 12
0.0
 22
0.0
 32
0.0
 14
1e+20
 24
1e+20
 34
1e+20
 15
-1e+20
 25
-1e+20
 35
-1e+20
146
0.0
 13
0.0
 23
0.0
 33
0.0
 16
1.0
 26
0.0
 36
0.0
 17
0.0
 27
1.0
 37
0.0
 76
1
330
17
  0
LAYOUT
  5
1E
330
D
100
AcDbPlotSettings
  1

  4
A3
  6

 40
7.5
 41
20.0
 42
7.5
 43
20.0
 44
420.0
 45
297.0
 46
0.0
 47
0.0
 48
0.0
 49
0.0
140
0.0
141
0.0
142
1.0
143
1.0
 70
0
 72
1
 73
0
 74
5
  7

 75
16
 76
0
 77
2
 78
300
147
1.0
148
0.0
149
0.0
100
AcDbLayout
  1
Layout1
 70
1
 71
1
 10
0.0
 20
0.0
 11
420.0
 21
297.0
 12
0.0
 22
0.0
 32
0.0
 14
1e+20
 24
1e+20
 34
1e+20
 15
-1e+20
 25
-1e+20
 35
-1e+20
146
0.0
 13
0.0
 23
0.0
 33
0.0
 16
1.0
 26
0.0
 36
0.0
 17
0.0
 27
1.0
 37
0.0
 76
1
330
1B
  0
MATERIAL
  5
1F
102
{ACAD_REACTORS
330
E
102
}
330
E
100
AcDbMaterial
  1
ByBlock
  2

 70
0
 40
1.0
 71
1
 41
1.0
 91
-1023410177
 42
1.0
 72
1
  3

 73
1
 74
1
 75
1
 44
0.5
 73
0
 45
1.0
 46
1.0
 77
1
  4

 78
1
 79
1
170
1
 48
1.0
171
1
  6

172
1
173
1
174
1
140
1.0
141
1.0
175
1
  7

176
1
177
1
178
1
143
1.0
179
1
  8

270
1
271
1
272
1
145
1.0
146
1.0
273
1
  9

274
1
275
1
276
1
 42
1.0
 72
1
  3

 73
1
 74
1
 75
1
 94
63
  0
MATERIAL
  5
20
102
{ACAD_REACTORS
330
E
102
}
330
E
100
AcDbMaterial
  1
ByLayer
  2

 70
0
 40
1.0
 71
1
 41
1.0
 91
-1023410177
 42
1.0
 72
1
  3

 73
1
 74
1
 75
1
 44
0.5
 73
0
 45
1.0
 46
1.0
 77
1
  4

 78
1
 79
1
170
1
 48
1.0
171
1
  6

172
1
173
1
174
1
140
1.0
141
1.0
175
1
  7

176
1
177
1
178
1
143
1.0
179
1
  8

270
1
271
1
272
1
145
1.0
146
1.0
273
1
  9

274
1
275
1
276
1
 42
1.0
 72
1
  3

 73
1
 74
1
 75
1
 94
63
  0
MATERIAL
  5
21
102
{ACAD_REACTORS
330
E
102
}
330
E
100
AcDbMaterial
  1
Global
  2

 70
0
 40
1.0
 71
1
 41
1.0
 91
-1023410177
 42
1.0
 72
1
  3

 73
1
 74
1
 75
1
 44
0.5
 73
0
 45
1.0
 46
1.0
 77
1
  4

 78
1
 79
1
170
1
 48
1.0
171
1
  6

172
1
173
1
174
1
140
1.0
141
1.0
175
1
  7

176
1
177
1
178
1
143
1.0
179
1
  8

270
1
271
1
272
1
145
1.0
146
1.0
273
1
  9

274
1
275
1
276
1
 42
1.0
 72
1
  3

 73
1
 74
1
 75
1
 94
63
  0
MLINESTYLE
  5
22
102
{ACAD_REACTORS
330
10
102
}
330
10
100
AcDbMlineStyle
  2
Standard
 70
0
  3

 62
256
 51
90.0
 52
90.0
 71
2
 49
0.5
 62
256
  6
BYLAYER
 49
-0.5
 62
256
  6
BYLAYER
  0
MLEADERSTYLE
  5
2C
102
{ACAD_REACTORS
330
F
102
}
330
F
100
AcDbMLeaderStyle
179
2
170
2
171
1
172
0
 90
2
 40
0.0
 41
0.0
173
1
 91
-1056964608
 92
-2
290
1
 42
2.0
291
1
 43
8.0
  3
Standard
 44
4.0
300

342
29
174
1
175
1
176
0
178
1
 93
-1056964608
 45
4.0
292
0
297
0
 46
4.0
 94
-1056964608
 47
1.0
 49
1.0
140
1.0
294
1
141
0.0
177
0
142
1.0
295
0
296
0
143
3.75
271
0
272
9
273
9
  0
DICTIONARY
  5
2D
330
A
100
AcDbDictionary
280
1
281
1
  3
CREATED_BY_EZDXF
350
2E
  3
WRITTEN_BY_EZDXF
350
67
  0
DICTIONARYVAR
  5
2E
330
2D
100
DictionaryVariables
280
0
  1
1.4.4 @ 2026-07-23T17:32:08.058960+00:00
  0
DICTIONARYVAR
  5
67
330
2D
100
DictionaryVariables
280
0
  1
1.4.4 @ 2026-07-23T17:32:08.072200+00:00
  0
ENDSEC
  0
EOF
