0
SECTION
2
ENTITIES
0
LWPOLYLINE
8
SHEET
90
4
70
1
10
0.000
20
0.000
10
600.000
20
0.000
10
600.000
20
600.000
10
0.000
20
600.000
0
LWPOLYLINE
8
SHARD
90
242
70
1
10
274.286
20
77.857
10
271.429
20
77.857
10
270.000
20
79.286
10
230.000
20
79.286
10
228.571
20
80.714
10
225.714
20
80.714
10
220.714
20
85.714
10
217.857
20
97.143
10
210.714
20
104.286
10
210.714
20
107.143
10
209.286
20
108.571
10
210.714
20
110.000
10
210.714
20
112.857
10
215.714
20
117.857
10
232.857
20
120.714
10
237.857
20
125.714
10
237.857
20
128.571
10
239.286
20
130.000
10
237.857
20
131.429
10
237.857
20
134.286
10
232.857
20
139.286
10
225.714
20
140.714
10
220.714
20
145.714
10
219.286
20
152.857
10
214.286
20
157.857
10
211.429
20
157.857
10
210.000
20
159.286
10
170.000
20
159.286
10
168.571
20
160.714
10
165.714
20
160.714
10
160.714
20
165.714
10
157.857
20
177.143
10
150.714
20
184.286
10
150.714
20
187.143
10
149.286
20
188.571
10
150.714
20
190.000
10
150.714
20
192.857
10
155.714
20
197.857
10
158.571
20
197.857
10
160.000
20
199.286
10
268.571
20
199.286
10
270.000
20
200.714
10
272.857
20
200.714
10
277.857
20
205.714
10
277.857
20
208.571
10
279.286
20
210.000
10
277.857
20
211.429
10
277.857
20
214.286
10
272.857
20
219.286
10
265.714
20
220.714
10
260.714
20
225.714
10
259.286
20
232.857
10
252.857
20
239.286
10
245.714
20
240.714
10
240.714
20
245.714
10
239.286
20
252.857
10
232.857
20
259.286
10
225.714
20
260.714
10
220.714
20
265.714
10
220.714
20
268.571
10
219.286
20
270.000
10
219.286
20
288.571
10
220.714
20
290.000
10
220.714
20
292.857
10
225.714
20
297.857
10
228.571
20
297.857
10
230.000
20
299.286
10
328.571
20
299.286
10
330.000
20
300.714
10
332.857
20
300.714
10
337.857
20
305.714
10
337.857
20
308.571
10
339.286
20
310.000
10
339.286
20
370.000
10
337.857
20
371.429
10
337.857
20
374.286
10
332.857
20
379.286
10
325.714
20
380.714
10
320.714
20
385.714
10
320.714
20
388.571
10
319.286
20
390.000
10
319.286
20
488.571
10
320.714
20
490.000
10
320.714
20
492.857
10
325.714
20
497.857
10
332.857
20
499.286
10
337.857
20
504.286
10
339.286
20
510.000
10
337.857
20
511.429
10
337.857
20
514.286
10
332.857
20
519.286
10
325.714
20
520.714
10
320.714
20
525.714
10
320.714
20
528.571
10
319.286
20
530.000
10
319.286
20
548.571
10
320.714
20
550.000
10
320.714
20
552.857
10
325.714
20
557.857
10
328.571
20
557.857
10
330.000
20
559.286
10
468.571
20
559.286
10
470.000
20
557.857
10
472.857
20
557.857
10
477.857
20
552.857
10
479.286
20
545.714
10
484.286
20
540.714
10
487.143
20
540.714
10
488.571
20
539.286
10
508.571
20
539.286
10
510.000
20
537.857
10
512.857
20
537.857
10
517.857
20
532.857
10
517.857
20
530.000
10
519.286
20
528.571
10
519.286
20
510.000
10
517.857
20
508.571
10
517.857
20
505.714
10
512.857
20
500.714
10
505.714
20
499.286
10
500.714
20
494.286
10
500.714
20
491.429
10
499.286
20
490.000
10
500.714
20
484.286
10
505.714
20
479.286
10
512.857
20
477.857
10
517.857
20
472.857
10
517.857
20
470.000
10
519.286
20
468.571
10
519.286
20
450.000
10
517.857
20
448.571
10
517.857
20
445.714
10
512.857
20
440.714
10
510.000
20
440.714
10
508.571
20
439.286
10
490.000
20
439.286
10
488.571
20
440.714
10
485.714
20
440.714
10
480.714
20
445.714
10
479.286
20
452.857
10
474.286
20
457.857
10
471.429
20
457.857
10
470.000
20
459.286
10
390.000
20
459.286
10
388.571
20
460.714
10
385.714
20
460.714
10
380.714
20
465.714
10
379.286
20
472.857
10
374.286
20
477.857
10
371.429
20
477.857
10
370.000
20
479.286
10
368.571
20
477.857
10
365.714
20
477.857
10
360.714
20
472.857
10
360.714
20
470.000
10
359.286
20
468.571
10
359.286
20
388.571
10
360.714
20
387.143
10
360.714
20
384.286
10
365.714
20
379.286
10
372.857
20
377.857
10
377.857
20
372.857
10
377.857
20
370.000
10
379.286
20
368.571
10
379.286
20
348.571
10
380.714
20
347.143
10
380.714
20
344.286
10
385.714
20
339.286
10
392.857
20
337.857
10
397.857
20
332.857
10
397.857
20
330.000
10
399.286
20
328.571
10
399.286
20
270.000
10
397.857
20
268.571
10
397.857
20
265.714
10
392.857
20
260.714
10
385.714
20
259.286
10
380.714
20
254.286
10
380.714
20
251.429
10
379.286
20
250.000
10
379.286
20
230.000
10
377.857
20
228.571
10
377.857
20
225.714
10
372.857
20
220.714
10
365.714
20
219.286
10
360.714
20
214.286
10
360.714
20
211.429
10
359.286
20
210.000
10
360.714
20
208.571
10
360.714
20
205.714
10
365.714
20
200.714
10
368.571
20
200.714
10
370.000
20
199.286
10
438.571
20
199.286
10
440.000
20
197.857
10
442.857
20
197.857
10
447.857
20
192.857
10
447.857
20
190.000
10
449.286
20
188.571
10
447.857
20
187.143
10
447.857
20
184.286
10
440.714
20
177.143
10
437.857
20
165.714
10
432.857
20
160.714
10
430.000
20
160.714
10
428.571
20
159.286
10
388.571
20
159.286
10
387.143
20
157.857
10
384.286
20
157.857
10
379.286
20
152.857
10
377.857
20
145.714
10
372.857
20
140.714
10
365.714
20
139.286
10
360.714
20
134.286
10
360.714
20
131.429
10
359.286
20
130.000
10
360.714
20
128.571
10
360.714
20
125.714
10
365.714
20
120.714
10
382.857
20
117.857
10
387.857
20
112.857
10
387.857
20
110.000
10
389.286
20
108.571
10
387.857
20
107.143
10
387.857
20
104.286
10
380.714
20
97.143
10
377.857
20
85.714
10
372.857
20
80.714
10
370.000
20
80.714
10
368.571
20
79.286
10
328.571
20
79.286
10
327.143
20
77.857
10
324.286
20
77.857
10
319.286
20
72.857
10
317.857
20
65.714
10
312.857
20
60.714
10
310.000
20
60.714
10
308.571
20
59.286
10
285.714
20
60.714
10
280.714
20
65.714
10
279.286
20
72.857
10
274.286
20
77.857
0
LWPOLYLINE
8
SHARD
90
44
70
1
10
485.714
20
220.714
10
480.714
20
225.714
10
479.286
20
232.857
10
472.857
20
239.286
10
465.714
20
240.714
10
460.714
20
245.714
10
459.286
20
252.857
10
452.857
20
259.286
10
445.714
20
260.714
10
440.714
20
265.714
10
437.857
20
277.143
10
430.714
20
284.286
10
430.714
20
287.143
10
429.286
20
288.571
10
430.714
20
290.000
10
430.714
20
292.857
10
435.714
20
297.857
10
438.571
20
297.857
10
440.000
20
299.286
10
448.571
20
299.286
10
450.000
20
297.857
10
452.857
20
297.857
10
457.857
20
292.857
10
459.286
20
285.714
10
465.714
20
279.286
10
472.857
20
277.857
10
477.857
20
272.857
10
479.286
20
265.714
10
484.286
20
260.714
10
487.143
20
260.714
10
488.571
20
259.286
10
508.571
20
259.286
10
510.000
20
257.857
10
512.857
20
257.857
10
517.857
20
252.857
10
517.857
20
250.000
10
519.286
20
248.571
10
519.286
20
220.000
10
517.857
20
218.571
10
517.857
20
215.714
10
512.857
20
210.714
10
504.286
20
210.714
10
497.143
20
217.857
10
485.714
20
220.714
0
LWPOLYLINE
8
SHARD
90
82
70
1
10
130.714
20
465.714
10
130.714
20
468.571
10
129.286
20
470.000
10
130.714
20
471.429
10
130.714
20
474.286
10
137.857
20
481.429
10
140.714
20
492.857
10
145.714
20
497.857
10
152.857
20
499.286
10
157.857
20
504.286
10
157.857
20
507.143
10
159.286
20
508.571
10
157.857
20
510.000
10
157.857
20
512.857
10
152.857
20
517.857
10
150.000
20
517.857
10
148.571
20
519.286
10
128.571
20
519.286
10
127.143
20
517.857
10
124.286
20
517.857
10
119.286
20
512.857
10
117.857
20
505.714
10
112.857
20
500.714
10
110.000
20
500.714
10
108.571
20
499.286
10
90.000
20
499.286
10
88.571
20
500.714
10
85.714
20
500.714
10
80.714
20
505.714
10
80.714
20
508.571
10
79.286
20
510.000
10
79.286
20
528.571
10
80.714
20
530.000
10
80.714
20
532.857
10
85.714
20
537.857
10
88.571
20
537.857
10
90.000
20
539.286
10
110.000
20
539.286
10
111.429
20
540.714
10
114.286
20
540.714
10
119.286
20
545.714
10
120.714
20
552.857
10
125.714
20
557.857
10
128.571
20
557.857
10
130.000
20
559.286
10
248.571
20
559.286
10
250.000
20
557.857
10
252.857
20
557.857
10
257.857
20
552.857
10
257.857
20
550.000
10
259.286
20
548.571
10
259.286
20
530.000
10
257.857
20
528.571
10
257.857
20
525.714
10
252.857
20
520.714
10
250.000
20
520.714
10
248.571
20
519.286
10
228.571
20
519.286
10
227.143
20
517.857
10
224.286
20
517.857
10
219.286
20
512.857
10
217.857
20
505.714
10
212.857
20
500.714
10
210.000
20
500.714
10
208.571
20
499.286
10
190.000
20
499.286
10
188.571
20
497.857
10
185.714
20
497.857
10
180.714
20
492.857
10
179.286
20
485.714
10
180.714
20
484.286
10
180.714
20
481.429
10
187.857
20
474.286
10
187.857
20
471.429
10
189.286
20
470.000
10
187.857
20
468.571
10
187.857
20
465.714
10
182.857
20
460.714
10
180.000
20
460.714
10
178.571
20
459.286
10
135.714
20
460.714
10
130.714
20
465.714
0
LWPOLYLINE
8
SHARD
90
36
70
1
10
79.286
20
220.000
10
79.286
20
228.571
10
80.714
20
230.000
10
80.714
20
232.857
10
85.714
20
237.857
10
92.857
20
239.286
10
99.286
20
245.714
10
100.714
20
252.857
10
105.714
20
257.857
10
112.857
20
259.286
10
119.286
20
265.714
10
120.714
20
272.857
10
125.714
20
277.857
10
128.571
20
277.857
10
130.000
20
279.286
10
138.571
20
279.286
10
140.000
20
277.857
10
142.857
20
277.857
10
147.857
20
272.857
10
147.857
20
270.000
10
149.286
20
268.571
10
147.857
20
267.143
10
147.857
20
264.286
10
140.714
20
257.143
10
137.857
20
245.714
10
132.857
20
240.714
10
125.714
20
239.286
10
119.286
20
232.857
10
117.857
20
225.714
10
112.857
20
220.714
10
101.429
20
217.857
10
94.286
20
210.714
10
85.714
20
210.714
10
80.714
20
215.714
10
80.714
20
218.571
10
79.286
20
220.000
0
ENDSEC
0
EOF