0
SECTION
2
ENTITIES
0
LWPOLYLINE
8
SHEET
90
4
70
1
10
0.000
20
0.000
10
600.000
20
0.000
10
600.000
20
600.000
10
0.000
20
600.000
0
LWPOLYLINE
8
SHARD
90
24
70
1
10
285.714
20
220.714
10
280.714
20
225.714
10
280.714
20
228.571
10
279.286
20
230.000
10
279.286
20
248.571
10
280.714
20
250.000
10
280.714
20
252.857
10
285.714
20
257.857
10
297.143
20
260.714
10
304.286
20
267.857
10
307.143
20
267.857
10
308.571
20
269.286
10
310.000
20
267.857
10
312.857
20
267.857
10
317.857
20
262.857
10
317.857
20
260.000
10
319.286
20
258.571
10
319.286
20
230.000
10
317.857
20
228.571
10
317.857
20
225.714
10
312.857
20
220.714
10
310.000
20
220.714
10
308.571
20
219.286
10
285.714
20
220.714
0
ENDSEC
0
EOF