0
SECTION
2
ENTITIES
0
LWPOLYLINE
8
SHEET
90
4
70
1
10
0.000
20
0.000
10
600.000
20
0.000
10
600.000
20
600.000
10
0.000
20
600.000
0
LWPOLYLINE
8
SHARD
90
18
70
1
10
344.286
20
250.714
10
330.714
20
264.286
10
329.286
20
270.000
10
330.714
20
271.429
10
330.714
20
274.286
10
344.286
20
287.857
10
347.143
20
287.857
10
348.571
20
289.286
10
350.000
20
287.857
10
352.857
20
287.857
10
357.857
20
282.857
10
357.857
20
280.000
10
359.286
20
278.571
10
359.286
20
260.000
10
357.857
20
258.571
10
357.857
20
255.714
10
352.857
20
250.714
10
344.286
20
250.714
0
LWPOLYLINE
8
SHARD
90
21
70
1
10
230.714
20
184.286
10
230.714
20
187.143
10
229.286
20
188.571
10
230.714
20
190.000
10
230.714
20
192.857
10
235.714
20
197.857
10
238.571
20
197.857
10
240.000
20
199.286
10
258.571
20
199.286
10
260.000
20
197.857
10
262.857
20
197.857
10
267.857
20
192.857
10
267.857
20
190.000
10
269.286
20
188.571
10
267.857
20
187.143
10
267.857
20
184.286
10
254.286
20
170.714
10
251.429
20
170.714
10
250.000
20
169.286
10
244.286
20
170.714
10
230.714
20
184.286
0
LWPOLYLINE
8
SHARD
90
20
70
1
10
240.714
20
255.714
10
240.714
20
258.571
10
239.286
20
260.000
10
239.286
20
268.571
10
240.714
20
270.000
10
240.714
20
272.857
10
245.714
20
277.857
10
248.571
20
277.857
10
250.000
20
279.286
10
258.571
20
279.286
10
260.000
20
277.857
10
262.857
20
277.857
10
267.857
20
272.857
10
267.857
20
270.000
10
269.286
20
268.571
10
267.857
20
267.143
10
267.857
20
264.286
10
254.286
20
250.714
10
245.714
20
250.714
10
240.714
20
255.714
0
LWPOLYLINE
8
SHARD
90
25
70
1
10
130.714
20
225.714
10
130.714
20
228.571
10
129.286
20
230.000
10
130.714
20
231.429
10
130.714
20
234.286
10
137.857
20
241.429
10
140.714
20
252.857
10
145.714
20
257.857
10
148.571
20
257.857
10
150.000
20
259.286
10
158.571
20
259.286
10
160.000
20
257.857
10
162.857
20
257.857
10
167.857
20
252.857
10
167.857
20
250.000
10
169.286
20
248.571
10
167.857
20
247.143
10
167.857
20
244.286
10
160.714
20
237.143
10
157.857
20
225.714
10
152.857
20
220.714
10
150.000
20
220.714
10
148.571
20
219.286
10
135.714
20
220.714
10
130.714
20
225.714
0
ENDSEC
0
EOF