0
SECTION
2
ENTITIES
0
LWPOLYLINE
8
SHEET
90
4
70
1
10
0.000
20
0.000
10
600.000
20
0.000
10
600.000
20
600.000
10
0.000
20
600.000
0
LWPOLYLINE
8
SHARD
90
20
70
1
10
364.286
20
190.714
10
350.714
20
204.286
10
350.714
20
207.143
10
349.286
20
208.571
10
350.714
20
210.000
10
350.714
20
212.857
10
355.714
20
217.857
10
358.571
20
217.857
10
360.000
20
219.286
10
368.571
20
219.286
10
370.000
20
217.857
10
372.857
20
217.857
10
377.857
20
212.857
10
377.857
20
210.000
10
379.286
20
208.571
10
379.286
20
200.000
10
377.857
20
198.571
10
377.857
20
195.714
10
372.857
20
190.714
10
364.286
20
190.714
0
LWPOLYLINE
8
SHARD
90
18
70
1
10
225.714
20
130.714
10
220.714
20
135.714
10
220.714
20
138.571
10
219.286
20
140.000
10
219.286
20
158.571
10
220.714
20
160.000
10
220.714
20
162.857
10
225.714
20
167.857
10
228.571
20
167.857
10
230.000
20
169.286
10
231.429
20
167.857
10
234.286
20
167.857
10
247.857
20
154.286
10
249.286
20
148.571
10
247.857
20
147.143
10
247.857
20
144.286
10
234.286
20
130.714
10
225.714
20
130.714
0
LWPOLYLINE
8
SHARD
90
21
70
1
10
225.714
20
420.714
10
220.714
20
425.714
10
220.714
20
428.571
10
219.286
20
430.000
10
219.286
20
438.571
10
220.714
20
440.000
10
220.714
20
442.857
10
225.714
20
447.857
10
228.571
20
447.857
10
230.000
20
449.286
10
231.429
20
447.857
10
234.286
20
447.857
10
247.857
20
434.286
10
247.857
20
431.429
10
249.286
20
430.000
10
247.857
20
428.571
10
247.857
20
425.714
10
242.857
20
420.714
10
240.000
20
420.714
10
238.571
20
419.286
10
225.714
20
420.714
0
ENDSEC
0
EOF