0
SECTION
2
ENTITIES
0
LWPOLYLINE
8
SHEET
90
4
70
1
10
0.000
20
0.000
10
600.000
20
0.000
10
600.000
20
600.000
10
0.000
20
600.000
0
LWPOLYLINE
8
LIGHT
90
5
70
1
10
518.571
20
376.429
10
513.571
20
377.143
10
514.286
20
382.143
10
519.286
20
381.429
10
518.571
20
376.429
0
LWPOLYLINE
8
LIGHT
90
9
70
1
10
497.143
20
393.571
10
507.143
20
393.571
10
508.571
20
387.857
10
513.571
20
387.143
10
512.857
20
382.143
10
502.143
20
382.857
10
501.429
20
387.857
10
496.429
20
388.571
10
497.143
20
393.571
0
LWPOLYLINE
8
LIGHT
90
9
70
1
10
485.000
20
394.286
10
485.714
20
399.286
10
496.429
20
398.571
10
496.429
20
394.286
10
490.714
20
392.857
10
490.000
20
387.857
10
479.286
20
388.571
10
479.286
20
392.857
10
485.000
20
394.286
0
LWPOLYLINE
8
LIGHT
90
7
70
1
10
479.286
20
400.000
10
473.571
20
398.571
10
472.857
20
393.571
10
462.143
20
394.286
10
462.857
20
405.000
10
479.286
20
404.286
10
479.286
20
400.000
0
LWPOLYLINE
8
LIGHT
90
5
70
1
10
474.286
20
182.143
10
479.286
20
181.429
10
478.571
20
176.429
10
473.571
20
177.143
10
474.286
20
182.143
0
LWPOLYLINE
8
LIGHT
90
5
70
1
10
473.571
20
187.143
10
472.857
20
182.143
10
456.429
20
182.857
10
457.143
20
187.857
10
473.571
20
187.143
0
LWPOLYLINE
8
LIGHT
90
5
70
1
10
450.000
20
182.143
10
445.000
20
182.857
10
445.714
20
187.857
10
450.714
20
187.143
10
450.000
20
182.143
0
LWPOLYLINE
8
LIGHT
90
5
70
1
10
427.857
20
394.286
10
428.571
20
410.714
10
450.714
20
410.000
10
450.000
20
393.571
10
427.857
20
394.286
0
LWPOLYLINE
8
LIGHT
90
5
70
1
10
445.000
20
404.286
10
434.286
20
405.000
10
434.286
20
399.286
10
444.286
20
399.286
10
445.000
20
404.286
0
LWPOLYLINE
8
LIGHT
90
9
70
1
10
433.571
20
268.571
10
427.857
20
268.571
10
427.857
20
290.000
10
433.571
20
291.429
10
434.286
20
296.429
10
438.571
20
296.429
10
439.286
20
285.714
10
433.571
20
284.286
10
433.571
20
268.571
0
LWPOLYLINE
8
LIGHT
90
13
70
1
10
433.571
20
307.143
10
433.571
20
302.857
10
427.857
20
301.429
10
427.143
20
296.429
10
422.143
20
297.143
10
422.143
20
307.143
10
416.429
20
308.571
10
417.143
20
347.857
10
422.143
20
347.143
10
422.143
20
314.286
10
427.857
20
312.857
10
428.571
20
307.857
10
433.571
20
307.143
0
LWPOLYLINE
8
LIGHT
90
9
70
1
10
433.571
20
244.286
10
433.571
20
228.571
10
427.857
20
228.571
10
427.857
20
238.571
10
422.143
20
240.000
10
422.857
20
250.714
10
427.143
20
250.714
10
428.571
20
245.000
10
433.571
20
244.286
0
LWPOLYLINE
8
LIGHT
90
5
70
1
10
422.143
20
222.857
10
422.857
20
227.857
10
427.857
20
227.143
10
427.143
20
222.143
10
422.143
20
222.857
0
LWPOLYLINE
8
LIGHT
90
5
70
1
10
427.143
20
410.714
10
422.143
20
411.429
10
422.857
20
416.429
10
427.857
20
415.714
10
427.143
20
410.714
0
LWPOLYLINE
8
LIGHT
90
5
70
1
10
417.143
20
199.286
10
422.143
20
198.571
10
421.429
20
193.571
10
416.429
20
194.286
10
417.143
20
199.286
0
LWPOLYLINE
8
LIGHT
90
5
70
1
10
405.714
20
439.286
10
422.143
20
438.571
10
421.429
20
433.571
10
405.000
20
434.286
10
405.714
20
439.286
0
LWPOLYLINE
8
LIGHT
90
5
70
1
10
410.714
20
422.857
10
411.429
20
427.857
10
416.429
20
427.143
10
415.714
20
422.143
10
410.714
20
422.857
0
LWPOLYLINE
8
LIGHT
90
33
70
1
10
410.714
20
370.000
10
410.714
20
354.286
10
416.429
20
352.857
10
416.429
20
348.571
10
410.714
20
347.143
10
410.714
20
308.571
10
416.429
20
307.143
10
416.429
20
291.429
10
410.714
20
290.000
10
410.000
20
273.571
10
393.571
20
274.286
10
394.286
20
290.714
10
399.286
20
290.000
10
400.000
20
279.286
10
405.000
20
280.000
10
405.000
20
335.714
10
399.286
20
337.143
10
399.286
20
347.143
10
405.000
20
348.571
10
405.000
20
358.571
10
399.286
20
360.000
10
399.286
20
370.000
10
405.000
20
371.429
10
405.000
20
392.857
10
399.286
20
394.286
10
399.286
20
398.571
10
405.000
20
400.000
10
405.000
20
410.000
10
410.000
20
410.714
10
410.714
20
377.143
10
416.429
20
375.714
10
415.714
20
370.714
10
410.714
20
370.000
0
LWPOLYLINE
8
LIGHT
90
7
70
1
10
399.286
20
188.571
10
400.000
20
199.286
10
410.000
20
199.286
10
411.429
20
193.571
10
416.429
20
192.857
10
415.714
20
187.857
10
399.286
20
188.571
0
LWPOLYLINE
8
LIGHT
90
5
70
1
10
393.571
20
222.857
10
394.286
20
227.857
10
410.714
20
227.143
10
410.000
20
222.143
10
393.571
20
222.857
0
LWPOLYLINE
8
LIGHT
90
5
70
1
10
405.000
20
421.429
10
404.286
20
416.429
10
399.286
20
417.143
10
400.000
20
422.143
10
405.000
20
421.429
0
LWPOLYLINE
8
LIGHT
90
5
70
1
10
404.286
20
250.714
10
399.286
20
251.429
10
400.000
20
256.429
10
405.000
20
255.714
10
404.286
20
250.714
0
LWPOLYLINE
8
LIGHT
90
5
70
1
10
393.571
20
261.429
10
392.857
20
256.429
10
387.857
20
257.143
10
388.571
20
262.143
10
393.571
20
261.429
0
LWPOLYLINE
8
LIGHT
90
5
70
1
10
392.857
20
227.857
10
387.857
20
228.571
10
388.571
20
233.571
10
393.571
20
232.857
10
392.857
20
227.857
0
LWPOLYLINE
8
LIGHT
90
5
70
1
10
382.857
20
239.286
10
387.857
20
238.571
10
387.143
20
233.571
10
382.143
20
234.286
10
382.857
20
239.286
0
LWPOLYLINE
8
LIGHT
90
13
70
1
10
365.000
20
268.571
10
365.000
20
278.571
10
370.714
20
280.000
10
371.429
20
285.000
10
387.857
20
284.286
10
387.143
20
273.571
10
382.143
20
274.286
10
381.429
20
279.286
10
377.143
20
279.286
10
375.714
20
273.571
10
370.714
20
272.857
10
370.000
20
267.857
10
365.000
20
268.571
0
LWPOLYLINE
8
LIGHT
90
5
70
1
10
377.143
20
267.857
10
382.143
20
267.143
10
381.429
20
262.143
10
376.429
20
262.857
10
377.143
20
267.857
0
LWPOLYLINE
8
LIGHT
90
7
70
1
10
365.714
20
199.286
10
376.429
20
198.571
10
376.429
20
194.286
10
370.714
20
192.857
10
370.000
20
187.857
10
365.000
20
188.571
10
365.714
20
199.286
0
LWPOLYLINE
8
LIGHT
90
5
70
1
10
370.714
20
245.714
10
371.429
20
250.714
10
376.429
20
250.000
10
375.714
20
245.000
10
370.714
20
245.714
0
LWPOLYLINE
8
LIGHT
90
7
70
1
10
365.000
20
285.714
10
359.286
20
284.286
10
358.571
20
279.286
10
353.571
20
280.000
10
354.286
20
290.714
10
365.000
20
290.000
10
365.000
20
285.714
0
LWPOLYLINE
8
LIGHT
90
5
70
1
10
353.571
20
182.857
10
354.286
20
187.857
10
359.286
20
187.143
10
358.571
20
182.143
10
353.571
20
182.857
0
LWPOLYLINE
8
LIGHT
90
5
70
1
10
359.286
20
198.571
10
358.571
20
193.571
10
353.571
20
194.286
10
354.286
20
199.286
10
359.286
20
198.571
0
LWPOLYLINE
8
LIGHT
90
5
70
1
10
352.857
20
439.286
10
347.857
20
440.000
10
348.571
20
445.000
10
353.571
20
444.286
10
352.857
20
439.286
0
LWPOLYLINE
8
LIGHT
90
13
70
1
10
347.857
20
187.143
10
347.143
20
176.429
10
342.143
20
177.143
10
341.429
20
182.143
10
336.429
20
181.429
10
335.714
20
176.429
10
330.714
20
177.143
10
330.714
20
187.143
10
325.000
20
188.571
10
325.714
20
193.571
10
335.714
20
193.571
10
337.143
20
187.857
10
347.857
20
187.143
0
LWPOLYLINE
8
LIGHT
90
5
70
1
10
347.143
20
193.571
10
336.429
20
194.286
10
337.143
20
199.286
10
347.857
20
198.571
10
347.143
20
193.571
0
LWPOLYLINE
8
LIGHT
90
9
70
1
10
336.429
20
135.714
10
335.714
20
130.714
10
313.571
20
131.429
10
313.571
20
135.714
10
319.286
20
137.143
10
320.000
20
142.143
10
325.000
20
141.429
10
325.714
20
136.429
10
336.429
20
135.714
0
LWPOLYLINE
8
LIGHT
90
5
70
1
10
331.429
20
450.714
10
336.429
20
450.000
10
335.714
20
445.000
10
330.714
20
445.714
10
331.429
20
450.714
0
LWPOLYLINE
8
LIGHT
90
15
70
1
10
301.429
20
405.000
10
285.714
20
405.000
10
285.000
20
415.714
10
301.429
20
416.429
10
302.857
20
410.714
10
312.857
20
410.714
10
314.286
20
405.000
10
319.286
20
404.286
10
320.000
20
399.286
10
330.714
20
398.571
10
330.000
20
393.571
10
313.571
20
394.286
10
312.857
20
399.286
10
302.857
20
399.286
10
301.429
20
405.000
0
LWPOLYLINE
8
LIGHT
90
5
70
1
10
325.000
20
450.000
10
324.286
20
445.000
10
313.571
20
445.714
10
314.286
20
450.714
10
325.000
20
450.000
0
LWPOLYLINE
8
LIGHT
90
5
70
1
10
308.571
20
187.857
10
325.000
20
187.143
10
324.286
20
182.143
10
307.857
20
182.857
10
308.571
20
187.857
0
LWPOLYLINE
8
LIGHT
90
5
70
1
10
302.857
20
427.857
10
319.286
20
427.143
10
318.571
20
422.143
10
302.143
20
422.857
10
302.857
20
427.857
0
LWPOLYLINE
8
LIGHT
90
7
70
1
10
307.857
20
181.429
10
308.571
20
176.429
10
319.286
20
175.714
10
318.571
20
170.714
10
302.143
20
171.429
10
302.857
20
182.143
10
307.857
20
181.429
0
LWPOLYLINE
8
LIGHT
90
5
70
1
10
307.857
20
440.000
10
308.571
20
445.000
10
313.571
20
444.286
10
312.857
20
439.286
10
307.857
20
440.000
0
LWPOLYLINE
8
LIGHT
90
5
70
1
10
302.143
20
438.571
10
301.429
20
433.571
10
296.429
20
434.286
10
297.143
20
439.286
10
302.143
20
438.571
0
LWPOLYLINE
8
LIGHT
90
5
70
1
10
295.714
20
427.857
10
290.714
20
428.571
10
291.429
20
433.571
10
296.429
20
432.857
10
295.714
20
427.857
0
LWPOLYLINE
8
LIGHT
90
5
70
1
10
291.429
20
176.429
10
296.429
20
175.714
10
295.714
20
170.714
10
290.714
20
171.429
10
291.429
20
176.429
0
LWPOLYLINE
8
LIGHT
90
5
70
1
10
290.000
20
176.429
10
285.000
20
177.143
10
285.714
20
182.143
10
290.714
20
181.429
10
290.000
20
176.429
0
LWPOLYLINE
8
LIGHT
90
5
70
1
10
285.000
20
175.714
10
284.286
20
170.714
10
279.286
20
171.429
10
280.000
20
176.429
10
285.000
20
175.714
0
LWPOLYLINE
8
LIGHT
90
5
70
1
10
273.571
20
175.714
10
272.857
20
170.714
10
267.857
20
171.429
10
268.571
20
176.429
10
273.571
20
175.714
0
LWPOLYLINE
8
LIGHT
90
5
70
1
10
272.857
20
456.429
10
273.571
20
445.714
10
267.857
20
445.714
10
267.857
20
455.714
10
272.857
20
456.429
0
LWPOLYLINE
8
LIGHT
90
5
70
1
10
239.286
20
411.429
10
240.000
20
416.429
10
245.000
20
415.714
10
244.286
20
410.714
10
239.286
20
411.429
0
LWPOLYLINE
8
LIGHT
90
5
70
1
10
228.571
20
416.429
10
233.571
20
415.714
10
232.857
20
410.714
10
227.857
20
411.429
10
228.571
20
416.429
0
LWPOLYLINE
8
LIGHT
90
5
70
1
10
217.143
20
410.714
10
227.857
20
410.000
10
227.143
20
405.000
10
216.429
20
405.714
10
217.143
20
410.714
0
LWPOLYLINE
8
MEDIUM
90
5
70
1
10
496.429
20
392.857
10
495.714
20
387.857
10
490.714
20
388.571
10
491.429
20
393.571
10
496.429
20
392.857
0
LWPOLYLINE
8
MEDIUM
90
5
70
1
10
485.000
20
398.571
10
484.286
20
393.571
10
473.571
20
394.286
10
474.286
20
399.286
10
485.000
20
398.571
0
LWPOLYLINE
8
MEDIUM
90
5
70
1
10
434.286
20
405.000
10
445.000
20
404.286
10
444.286
20
399.286
10
433.571
20
400.000
10
434.286
20
405.000
0
LWPOLYLINE
8
MEDIUM
90
5
70
1
10
432.857
20
302.143
10
433.571
20
291.429
10
427.857
20
291.429
10
427.857
20
301.429
10
432.857
20
302.143
0
LWPOLYLINE
8
MEDIUM
90
5
70
1
10
427.143
20
405.000
10
422.143
20
405.714
10
422.857
20
410.714
10
427.857
20
410.000
10
427.143
20
405.000
0
LWPOLYLINE
8
MEDIUM
90
5
70
1
10
427.143
20
239.286
10
427.857
20
228.571
10
422.143
20
228.571
10
422.143
20
238.571
10
427.143
20
239.286
0
LWPOLYLINE
8
MEDIUM
90
5
70
1
10
422.143
20
227.143
10
421.429
20
222.143
10
410.714
20
222.857
10
411.429
20
227.857
10
422.143
20
227.143
0
LWPOLYLINE
8
MEDIUM
90
5
70
1
10
417.143
20
422.143
10
422.143
20
421.429
10
421.429
20
416.429
10
416.429
20
417.143
10
417.143
20
422.143
0
LWPOLYLINE
8
MEDIUM
90
5
70
1
10
416.429
20
240.000
10
417.143
20
245.000
10
422.143
20
244.286
10
421.429
20
239.286
10
416.429
20
240.000
0
LWPOLYLINE
8
MEDIUM
90
5
70
1
10
416.429
20
370.000
10
415.714
20
365.000
10
410.714
20
365.714
10
411.429
20
370.714
10
416.429
20
370.000
0
LWPOLYLINE
8
MEDIUM
90
5
70
1
10
416.429
20
198.571
10
415.714
20
193.571
10
410.714
20
194.286
10
411.429
20
199.286
10
416.429
20
198.571
0
LWPOLYLINE
8
MEDIUM
90
5
70
1
10
415.714
20
347.857
10
416.429
20
308.571
10
410.714
20
308.571
10
410.714
20
347.143
10
415.714
20
347.857
0
LWPOLYLINE
8
MEDIUM
90
5
70
1
10
410.714
20
405.714
10
411.429
20
410.714
10
416.429
20
410.000
10
415.714
20
405.000
10
410.714
20
405.714
0
LWPOLYLINE
8
MEDIUM
90
5
70
1
10
410.714
20
415.714
10
410.000
20
410.714
10
405.000
20
411.429
10
405.714
20
416.429
10
410.714
20
415.714
0
LWPOLYLINE
8
MEDIUM
90
5
70
1
10
405.714
20
433.571
10
410.714
20
432.857
10
410.000
20
427.857
10
405.000
20
428.571
10
405.714
20
433.571
0
LWPOLYLINE
8
MEDIUM
90
5
70
1
10
405.000
20
250.000
10
410.000
20
250.714
10
410.714
20
240.000
10
405.000
20
240.000
10
405.000
20
250.000
0
LWPOLYLINE
8
MEDIUM
90
5
70
1
10
405.000
20
280.000
10
399.286
20
280.000
10
399.286
20
290.000
10
404.286
20
290.714
10
405.000
20
280.000
0
LWPOLYLINE
8
MEDIUM
90
21
70
1
10
387.857
20
234.286
10
387.143
20
239.286
10
376.429
20
240.000
10
375.714
20
250.714
10
365.714
20
250.714
10
364.286
20
256.429
10
359.286
20
257.143
10
359.286
20
261.429
10
365.000
20
262.857
10
365.714
20
267.857
10
375.714
20
267.857
10
377.143
20
262.143
10
387.143
20
262.143
10
388.571
20
250.714
10
393.571
20
251.429
10
394.286
20
256.429
10
399.286
20
255.714
10
399.286
20
228.571
10
393.571
20
228.571
10
393.571
20
232.857
10
387.857
20
234.286
0
LWPOLYLINE
8
MEDIUM
90
5
70
1
10
387.857
20
274.286
10
387.857
20
284.286
10
392.857
20
285.000
10
393.571
20
274.286
10
387.857
20
274.286
0
LWPOLYLINE
8
MEDIUM
90
5
70
1
10
377.143
20
279.286
10
382.143
20
278.571
10
381.429
20
273.571
10
376.429
20
274.286
10
377.143
20
279.286
0
LWPOLYLINE
8
MEDIUM
90
15
70
1
10
354.286
20
279.286
10
359.286
20
280.000
10
360.000
20
285.000
10
370.000
20
285.000
10
370.714
20
280.000
10
365.000
20
278.571
10
364.286
20
273.571
10
359.286
20
272.857
10
359.286
20
262.857
10
353.571
20
262.857
10
352.857
20
267.857
10
347.857
20
268.571
10
347.857
20
272.857
10
353.571
20
274.286
10
354.286
20
279.286
0
LWPOLYLINE
8
MEDIUM
90
7
70
1
10
364.286
20
187.857
10
353.571
20
188.571
10
353.571
20
192.857
10
359.286
20
194.286
10
360.000
20
199.286
10
365.000
20
198.571
10
364.286
20
187.857
0
LWPOLYLINE
8
MEDIUM
90
5
70
1
10
352.857
20
193.571
10
347.857
20
194.286
10
348.571
20
199.286
10
353.571
20
198.571
10
352.857
20
193.571
0
LWPOLYLINE
8
MEDIUM
90
5
70
1
10
347.857
20
434.286
10
348.571
20
439.286
10
353.571
20
438.571
10
352.857
20
433.571
10
347.857
20
434.286
0
LWPOLYLINE
8
MEDIUM
90
9
70
1
10
336.429
20
280.000
10
336.429
20
290.000
10
352.857
20
290.714
10
353.571
20
285.714
10
347.857
20
284.286
10
347.857
20
274.286
10
342.143
20
274.286
10
341.429
20
279.286
10
336.429
20
280.000
0
LWPOLYLINE
8
MEDIUM
90
5
70
1
10
347.857
20
432.857
10
347.143
20
427.857
10
342.143
20
428.571
10
342.857
20
433.571
10
347.857
20
432.857
0
LWPOLYLINE
8
MEDIUM
90
5
70
1
10
347.143
20
439.286
10
342.143
20
440.000
10
342.857
20
445.000
10
347.857
20
444.286
10
347.143
20
439.286
0
LWPOLYLINE
8
MEDIUM
90
5
70
1
10
347.143
20
187.857
10
342.143
20
188.571
10
342.857
20
193.571
10
347.857
20
192.857
10
347.143
20
187.857
0
LWPOLYLINE
8
MEDIUM
90
5
70
1
10
341.429
20
176.429
10
336.429
20
177.143
10
337.143
20
182.143
10
342.143
20
181.429
10
341.429
20
176.429
0
LWPOLYLINE
8
MEDIUM
90
5
70
1
10
337.143
20
450.714
10
342.143
20
450.000
10
341.429
20
445.000
10
336.429
20
445.714
10
337.143
20
450.714
0
LWPOLYLINE
8
MEDIUM
90
5
70
1
10
336.429
20
428.571
10
330.714
20
428.571
10
330.714
20
444.286
10
335.714
20
445.000
10
336.429
20
428.571
0
LWPOLYLINE
8
MEDIUM
90
5
70
1
10
330.714
20
450.000
10
330.000
20
445.000
10
325.000
20
445.714
10
325.714
20
450.714
10
330.714
20
450.000
0
LWPOLYLINE
8
MEDIUM
90
7
70
1
10
313.571
20
440.000
10
313.571
20
444.286
10
324.286
20
445.000
10
325.000
20
428.571
10
319.286
20
428.571
10
319.286
20
438.571
10
313.571
20
440.000
0
LWPOLYLINE
8
MEDIUM
90
5
70
1
10
307.857
20
177.143
10
308.571
20
182.143
10
325.000
20
181.429
10
324.286
20
176.429
10
307.857
20
177.143
0
LWPOLYLINE
8
MEDIUM
90
5
70
1
10
319.286
20
141.429
10
318.571
20
136.429
10
313.571
20
137.143
10
314.286
20
142.143
10
319.286
20
141.429
0
LWPOLYLINE
8
MEDIUM
90
5
70
1
10
302.143
20
428.571
10
302.857
20
439.286
10
313.571
20
438.571
10
312.857
20
427.857
10
302.143
20
428.571
0
LWPOLYLINE
8
MEDIUM
90
5
70
1
10
297.143
20
182.143
10
302.143
20
181.429
10
301.429
20
176.429
10
296.429
20
177.143
10
297.143
20
182.143
0
LWPOLYLINE
8
MEDIUM
90
5
70
1
10
290.714
20
175.714
10
290.000
20
170.714
10
285.000
20
171.429
10
285.714
20
176.429
10
290.714
20
175.714
0
LWPOLYLINE
8
MEDIUM
90
5
70
1
10
279.286
20
175.714
10
278.571
20
170.714
10
273.571
20
171.429
10
274.286
20
176.429
10
279.286
20
175.714
0
LWPOLYLINE
8
MEDIUM
90
5
70
1
10
239.286
20
415.714
10
238.571
20
410.714
10
233.571
20
411.429
10
234.286
20
416.429
10
239.286
20
415.714
0
LWPOLYLINE
8
BLACK
90
17
70
1
10
404.286
20
422.143
10
399.286
20
422.857
10
400.000
20
433.571
10
404.286
20
433.571
10
405.714
20
427.857
10
410.714
20
427.143
10
411.429
20
422.143
10
416.429
20
421.429
10
417.143
20
416.429
10
422.143
20
415.714
10
422.143
20
405.714
10
416.429
20
405.714
10
416.429
20
410.000
10
410.714
20
411.429
10
410.000
20
416.429
10
405.000
20
417.143
10
404.286
20
422.143
0
LWPOLYLINE
8
BLACK
90
11
70
1
10
415.714
20
245.000
10
417.143
20
239.286
10
422.143
20
238.571
10
421.429
20
227.857
10
399.286
20
228.571
10
400.000
20
250.714
10
405.000
20
250.000
10
405.714
20
239.286
10
410.714
20
240.000
10
411.429
20
245.000
10
415.714
20
245.000
0
LWPOLYLINE
8
BLACK
90
5
70
1
10
393.571
20
255.714
10
392.857
20
250.714
10
387.857
20
251.429
10
388.571
20
256.429
10
393.571
20
255.714
0
LWPOLYLINE
8
BLACK
90
5
70
1
10
359.286
20
272.857
10
364.286
20
273.571
10
365.000
20
262.857
10
359.286
20
262.857
10
359.286
20
272.857
0
LWPOLYLINE
8
BLACK
90
5
70
1
10
347.857
20
284.286
10
352.857
20
285.000
10
353.571
20
274.286
10
347.857
20
274.286
10
347.857
20
284.286
0
LWPOLYLINE
8
BLACK
90
5
70
1
10
348.571
20
433.571
10
353.571
20
432.857
10
352.857
20
427.857
10
347.857
20
428.571
10
348.571
20
433.571
0
LWPOLYLINE
8
BLACK
90
5
70
1
10
353.571
20
182.857
10
347.857
20
182.857
10
347.857
20
192.857
10
352.857
20
193.571
10
353.571
20
182.857
0
LWPOLYLINE
8
BLACK
90
9
70
1
10
341.429
20
445.000
10
342.857
20
439.286
10
347.857
20
438.571
10
347.857
20
434.286
10
342.143
20
432.857
10
341.429
20
427.857
10
336.429
20
428.571
10
336.429
20
444.286
10
341.429
20
445.000
0
LWPOLYLINE
8
BLACK
90
5
70
1
10
341.429
20
187.857
10
336.429
20
188.571
10
337.143
20
193.571
10
342.143
20
192.857
10
341.429
20
187.857
0
LWPOLYLINE
8
BLACK
90
5
70
1
10
330.714
20
177.143
10
325.000
20
177.143
10
325.000
20
187.143
10
330.000
20
187.857
10
330.714
20
177.143
0
LWPOLYLINE
8
BLACK
90
5
70
1
10
330.714
20
428.571
10
325.000
20
428.571
10
325.000
20
444.286
10
330.000
20
445.000
10
330.714
20
428.571
0
LWPOLYLINE
8
BLACK
90
5
70
1
10
313.571
20
428.571
10
313.571
20
438.571
10
318.571
20
439.286
10
319.286
20
428.571
10
313.571
20
428.571
0
LWPOLYLINE
8
BLACK
90
5
70
1
10
297.143
20
433.571
10
302.143
20
432.857
10
301.429
20
427.857
10
296.429
20
428.571
10
297.143
20
433.571
0
LWPOLYLINE
8
BLACK
90
5
70
1
10
301.429
20
170.714
10
296.429
20
171.429
10
297.143
20
176.429
10
302.143
20
175.714
10
301.429
20
170.714
0
ENDSEC
0
EOF