0
SECTION
2
ENTITIES
0
LWPOLYLINE
8
SHEET
90
4
70
1
10
0.000
20
0.000
10
600.000
20
0.000
10
600.000
20
600.000
10
0.000
20
600.000
0
LWPOLYLINE
8
SHARD
90
19
70
1
10
330.714
20
188.571
10
329.286
20
190.000
10
330.714
20
191.429
10
330.714
20
194.286
10
344.286
20
207.857
10
350.000
20
209.286
10
351.429
20
207.857
10
354.286
20
207.857
10
367.857
20
194.286
10
367.857
20
191.429
10
369.286
20
190.000
10
367.857
20
188.571
10
367.857
20
185.714
10
362.857
20
180.714
10
360.000
20
180.714
10
358.571
20
179.286
10
335.714
20
180.714
10
330.714
20
185.714
10
330.714
20
188.571
0
LWPOLYLINE
8
SHARD
90
21
70
1
10
340.714
20
425.714
10
340.714
20
428.571
10
339.286
20
430.000
10
339.286
20
438.571
10
340.714
20
440.000
10
340.714
20
442.857
10
345.714
20
447.857
10
348.571
20
447.857
10
350.000
20
449.286
10
351.429
20
447.857
10
354.286
20
447.857
10
367.857
20
434.286
10
367.857
20
431.429
10
369.286
20
430.000
10
367.857
20
428.571
10
367.857
20
425.714
10
362.857
20
420.714
10
360.000
20
420.714
10
358.571
20
419.286
10
345.714
20
420.714
10
340.714
20
425.714
0
LWPOLYLINE
8
SHARD
90
24
70
1
10
245.714
20
420.714
10
240.714
20
425.714
10
237.857
20
437.143
10
230.714
20
444.286
10
230.714
20
447.143
10
229.286
20
448.571
10
230.714
20
450.000
10
230.714
20
452.857
10
235.714
20
457.857
10
238.571
20
457.857
10
240.000
20
459.286
10
268.571
20
459.286
10
270.000
20
457.857
10
272.857
20
457.857
10
277.857
20
452.857
10
277.857
20
450.000
10
279.286
20
448.571
10
279.286
20
420.000
10
277.857
20
418.571
10
277.857
20
415.714
10
272.857
20
410.714
10
264.286
20
410.714
10
257.143
20
417.857
10
245.714
20
420.714
0
LWPOLYLINE
8
SHARD
90
19
70
1
10
150.714
20
408.571
10
149.286
20
410.000
10
150.714
20
411.429
10
150.714
20
414.286
10
164.286
20
427.857
10
170.000
20
429.286
10
171.429
20
427.857
10
174.286
20
427.857
10
187.857
20
414.286
10
187.857
20
411.429
10
189.286
20
410.000
10
187.857
20
408.571
10
187.857
20
405.714
10
182.857
20
400.714
10
180.000
20
400.714
10
178.571
20
399.286
10
155.714
20
400.714
10
150.714
20
405.714
10
150.714
20
408.571
0
ENDSEC
0
EOF