  0
SECTION
  2
HEADER
  9
$ACADVER
  1
AC1027
  9
$ACADMAINTVER
 70
105
  9
$DWGCODEPAGE
  3
ANSI_1252
  9
$LASTSAVEDBY
  1
ezdxf
  9
$REQUIREDVERSIONS
160
0
  9
$INSBASE
 10
0.0
 20
0.0
 30
0.0
  9
$EXTMIN
 10
1e+20
 20
1e+20
 30
1e+20
  9
$EXTMAX
 10
-1e+20
 20
-1e+20
 30
-1e+20
  9
$LIMMIN
 10
0.0
 20
0.0
  9
$LIMMAX
 10
420.0
 20
297.0
  9
$ORTHOMODE
 70
0
  9
$REGENMODE
 70
1
  9
$FILLMODE
 70
1
  9
$QTEXTMODE
 70
0
  9
$MIRRTEXT
 70
1
  9
$LTSCALE
 40
1.0
  9
$ATTMODE
 70
1
  9
$TEXTSIZE
 40
2.5
  9
$TRACEWID
 40
1.0
  9
$TEXTSTYLE
  7
Standard
  9
$CLAYER
  8
0
  9
$CELTYPE
  6
ByLayer
  9
$CECOLOR
 62
256
  9
$CELTSCALE
 40
1.0
  9
$DISPSILH
 70
0
  9
$DIMSCALE
 40
1.0
  9
$DIMASZ
 40
2.5
  9
$DIMEXO
 40
0.625
  9
$DIMDLI
 40
3.75
  9
$DIMRND
 40
0.0
  9
$DIMDLE
 40
0.0
  9
$DIMEXE
 40
1.25
  9
$DIMTP
 40
0.0
  9
$DIMTM
 40
0.0
  9
$DIMTXT
 40
2.5
  9
$DIMCEN
 40
2.5
  9
$DIMTSZ
 40
0.0
  9
$DIMTOL
 70
0
  9
$DIMLIM
 70
0
  9
$DIMTIH
 70
0
  9
$DIMTOH
 70
0
  9
$DIMSE1
 70
0
  9
$DIMSE2
 70
0
  9
$DIMTAD
 70
1
  9
$DIMZIN
 70
8
  9
$DIMBLK
  1

  9
$DIMASO
 70
1
  9
$DIMSHO
 70
1
  9
$DIMPOST
  1

  9
$DIMAPOST
  1

  9
$DIMALT
 70
0
  9
$DIMALTD
 70
3
  9
$DIMALTF
 40
0.03937007874
  9
$DIMLFAC
 40
1.0
  9
$DIMTOFL
 70
1
  9
$DIMTVP
 40
0.0
  9
$DIMTIX
 70
0
  9
$DIMSOXD
 70
0
  9
$DIMSAH
 70
0
  9
$DIMBLK1
  1

  9
$DIMBLK2
  1

  9
$DIMSTYLE
  2
ISO-25
  9
$DIMCLRD
 70
0
  9
$DIMCLRE
 70
0
  9
$DIMCLRT
 70
0
  9
$DIMTFAC
 40
1.0
  9
$DIMGAP
 40
0.625
  9
$DIMJUST
 70
0
  9
$DIMSD1
 70
0
  9
$DIMSD2
 70
0
  9
$DIMTOLJ
 70
0
  9
$DIMTZIN
 70
8
  9
$DIMALTZ
 70
0
  9
$DIMALTTZ
 70
0
  9
$DIMUPT
 70
0
  9
$DIMDEC
 70
2
  9
$DIMTDEC
 70
2
  9
$DIMALTU
 70
2
  9
$DIMALTTD
 70
3
  9
$DIMTXSTY
  7
Standard
  9
$DIMAUNIT
 70
0
  9
$DIMADEC
 70
0
  9
$DIMALTRND
 40
0.0
  9
$DIMAZIN
 70
0
  9
$DIMDSEP
 70
44
  9
$DIMATFIT
 70
3
  9
$DIMFRAC
 70
0
  9
$DIMLDRBLK
  1

  9
$DIMLUNIT
 70
2
  9
$DIMLWD
 70
-2
  9
$DIMLWE
 70
-2
  9
$DIMTMOVE
 70
0
  9
$DIMFXL
 40
1.0
  9
$DIMFXLON
 70
0
  9
$DIMJOGANG
 40
0.785398163397
  9
$DIMTFILL
 70
0
  9
$DIMTFILLCLR
 70
0
  9
$DIMARCSYM
 70
0
  9
$DIMLTYPE
  6

  9
$DIMLTEX1
  6

  9
$DIMLTEX2
  6

  9
$DIMTXTDIRECTION
 70
0
  9
$LUNITS
 70
2
  9
$LUPREC
 70
4
  9
$SKETCHINC
 40
1.0
  9
$FILLETRAD
 40
10.0
  9
$AUNITS
 70
0
  9
$AUPREC
 70
2
  9
$MENU
  1
.
  9
$ELEVATION
 40
0.0
  9
$PELEVATION
 40
0.0
  9
$THICKNESS
 40
0.0
  9
$LIMCHECK
 70
0
  9
$CHAMFERA
 40
0.0
  9
$CHAMFERB
 40
0.0
  9
$CHAMFERC
 40
0.0
  9
$CHAMFERD
 40
0.0
  9
$SKPOLY
 70
0
  9
$TDCREATE
 40
2461254.646689815
  9
$TDUCREATE
 40
2458532.153996898
  9
$TDUPDATE
 40
2461254.646689815
  9
$TDUUPDATE
 40
2458532.1544311
  9
$TDINDWG
 40
0.0
  9
$TDUSRTIMER
 40
0.0
  9
$USRTIMER
 70
1
  9
$ANGBASE
 50
0.0
  9
$ANGDIR
 70
0
  9
$PDMODE
 70
0
  9
$PDSIZE
 40
0.0
  9
$PLINEWID
 40
0.0
  9
$SPLFRAME
 70
0
  9
$SPLINETYPE
 70
6
  9
$SPLINESEGS
 70
8
  9
$HANDSEED
  5
6A
  9
$SURFTAB1
 70
6
  9
$SURFTAB2
 70
6
  9
$SURFTYPE
 70
6
  9
$SURFU
 70
6
  9
$SURFV
 70
6
  9
$UCSBASE
  2

  9
$UCSNAME
  2

  9
$UCSORG
 10
0.0
 20
0.0
 30
0.0
  9
$UCSXDIR
 10
1.0
 20
0.0
 30
0.0
  9
$UCSYDIR
 10
0.0
 20
1.0
 30
0.0
  9
$UCSORTHOREF
  2

  9
$UCSORTHOVIEW
 70
0
  9
$UCSORGTOP
 10
0.0
 20
0.0
 30
0.0
  9
$UCSORGBOTTOM
 10
0.0
 20
0.0
 30
0.0
  9
$UCSORGLEFT
 10
0.0
 20
0.0
 30
0.0
  9
$UCSORGRIGHT
 10
0.0
 20
0.0
 30
0.0
  9
$UCSORGFRONT
 10
0.0
 20
0.0
 30
0.0
  9
$UCSORGBACK
 10
0.0
 20
0.0
 30
0.0
  9
$PUCSBASE
  2

  9
$PUCSNAME
  2

  9
$PUCSORG
 10
0.0
 20
0.0
 30
0.0
  9
$PUCSXDIR
 10
1.0
 20
0.0
 30
0.0
  9
$PUCSYDIR
 10
0.0
 20
1.0
 30
0.0
  9
$PUCSORTHOREF
  2

  9
$PUCSORTHOVIEW
 70
0
  9
$PUCSORGTOP
 10
0.0
 20
0.0
 30
0.0
  9
$PUCSORGBOTTOM
 10
0.0
 20
0.0
 30
0.0
  9
$PUCSORGLEFT
 10
0.0
 20
0.0
 30
0.0
  9
$PUCSORGRIGHT
 10
0.0
 20
0.0
 30
0.0
  9
$PUCSORGFRONT
 10
0.0
 20
0.0
 30
0.0
  9
$PUCSORGBACK
 10
0.0
 20
0.0
 30
0.0
  9
$USERI1
 70
0
  9
$USERI2
 70
0
  9
$USERI3
 70
0
  9
$USERI4
 70
0
  9
$USERI5
 70
0
  9
$USERR1
 40
0.0
  9
$USERR2
 40
0.0
  9
$USERR3
 40
0.0
  9
$USERR4
 40
0.0
  9
$USERR5
 40
0.0
  9
$WORLDVIEW
 70
1
  9
$SHADEDGE
 70
3
  9
$SHADEDIF
 70
70
  9
$TILEMODE
 70
1
  9
$MAXACTVP
 70
64
  9
$PINSBASE
 10
0.0
 20
0.0
 30
0.0
  9
$PLIMCHECK
 70
0
  9
$PEXTMIN
 10
1e+20
 20
1e+20
 30
1e+20
  9
$PEXTMAX
 10
-1e+20
 20
-1e+20
 30
-1e+20
  9
$PLIMMIN
 10
0.0
 20
0.0
  9
$PLIMMAX
 10
420.0
 20
297.0
  9
$UNITMODE
 70
0
  9
$VISRETAIN
 70
1
  9
$PLINEGEN
 70
0
  9
$PSLTSCALE
 70
1
  9
$TREEDEPTH
 70
3020
  9
$CMLSTYLE
  2
Standard
  9
$CMLJUST
 70
0
  9
$CMLSCALE
 40
20.0
  9
$PROXYGRAPHICS
 70
1
  9
$MEASUREMENT
 70
1
  9
$CELWEIGHT
370
-1
  9
$ENDCAPS
280
0
  9
$JOINSTYLE
280
0
  9
$LWDISPLAY
290
0
  9
$INSUNITS
 70
4
  9
$HYPERLINKBASE
  1

  9
$STYLESHEET
  1

  9
$XEDIT
290
1
  9
$CEPSNTYPE
380
0
  9
$PSTYLEMODE
290
1
  9
$FINGERPRINTGUID
  2
{69DCE9F8-B5AD-4489-A8B0-16F6528A8FDB}
  9
$VERSIONGUID
  2
{26D72B03-2B5E-49A6-9CC4-2418BB6DC01D}
  9
$EXTNAMES
290
1
  9
$PSVPSCALE
 40
0.0
  9
$OLESTARTUP
290
0
  9
$SORTENTS
280
127
  9
$INDEXCTL
280
0
  9
$HIDETEXT
280
1
  9
$XCLIPFRAME
280
1
  9
$HALOGAP
280
0
  9
$OBSCOLOR
 70
257
  9
$OBSLTYPE
280
0
  9
$INTERSECTIONDISPLAY
280
0
  9
$INTERSECTIONCOLOR
 70
257
  9
$DIMASSOC
280
2
  9
$PROJECTNAME
  1

  9
$CAMERADISPLAY
290
0
  9
$LENSLENGTH
 40
50.0
  9
$CAMERAHEIGHT
 40
0.0
  9
$STEPSPERSEC
 40
24.0
  9
$STEPSIZE
 40
100.0
  9
$3DDWFPREC
 40
2.0
  9
$PSOLWIDTH
 40
0.005
  9
$PSOLHEIGHT
 40
0.08
  9
$LOFTANG1
 40
1.570796326795
  9
$LOFTANG2
 40
1.570796326795
  9
$LOFTMAG1
 40
0.0
  9
$LOFTMAG2
 40
0.0
  9
$LOFTPARAM
 70
7
  9
$LOFTNORMALS
280
1
  9
$LATITUDE
 40
37.795
  9
$LONGITUDE
 40
-122.394
  9
$NORTHDIRECTION
 40
0.0
  9
$TIMEZONE
 70
-8000
  9
$LIGHTGLYPHDISPLAY
280
1
  9
$TILEMODELIGHTSYNCH
280
1
  9
$CMATERIAL
347
20
  9
$SOLIDHIST
280
0
  9
$SHOWHIST
280
1
  9
$DWFFRAME
280
2
  9
$DGNFRAME
280
2
  9
$REALWORLDSCALE
290
1
  9
$INTERFERECOLOR
 62
256
  9
$CSHADOW
280
0
  9
$SHADOWPLANELOCATION
 40
0.0
  0
ENDSEC
  0
SECTION
  2
CLASSES
  0
CLASS
  1
ACDBDICTIONARYWDFLT
  2
AcDbDictionaryWithDefault
  3
ObjectDBX Classes
 90
0
 91
0
280
0
281
0
  0
CLASS
  1
SUN
  2
AcDbSun
  3
SCENEOE
 90
1153
 91
0
280
0
281
0
  0
CLASS
  1
VISUALSTYLE
  2
AcDbVisualStyle
  3
ObjectDBX Classes
 90
4095
 91
0
280
0
281
0
  0
CLASS
  1
MATERIAL
  2
AcDbMaterial
  3
ObjectDBX Classes
 90
1153
 91
0
280
0
281
0
  0
CLASS
  1
SCALE
  2
AcDbScale
  3
ObjectDBX Classes
 90
1153
 91
0
280
0
281
0
  0
CLASS
  1
TABLESTYLE
  2
AcDbTableStyle
  3
ObjectDBX Classes
 90
4095
 91
0
280
0
281
0
  0
CLASS
  1
MLEADERSTYLE
  2
AcDbMLeaderStyle
  3
ACDB_MLEADERSTYLE_CLASS
 90
4095
 91
0
280
0
281
0
  0
CLASS
  1
DICTIONARYVAR
  2
AcDbDictionaryVar
  3
ObjectDBX Classes
 90
0
 91
0
280
0
281
0
  0
CLASS
  1
CELLSTYLEMAP
  2
AcDbCellStyleMap
  3
ObjectDBX Classes
 90
1152
 91
0
280
0
281
0
  0
CLASS
  1
MENTALRAYRENDERSETTINGS
  2
AcDbMentalRayRenderSettings
  3
SCENEOE
 90
1024
 91
0
280
0
281
0
  0
CLASS
  1
ACDBDETAILVIEWSTYLE
  2
AcDbDetailViewStyle
  3
ObjectDBX Classes
 90
1025
 91
0
280
0
281
0
  0
CLASS
  1
ACDBSECTIONVIEWSTYLE
  2
AcDbSectionViewStyle
  3
ObjectDBX Classes
 90
1025
 91
0
280
0
281
0
  0
CLASS
  1
RASTERVARIABLES
  2
AcDbRasterVariables
  3
ISM
 90
0
 91
0
280
0
281
0
  0
CLASS
  1
ACDBPLACEHOLDER
  2
AcDbPlaceHolder
  3
ObjectDBX Classes
 90
0
 91
0
280
0
281
0
  0
CLASS
  1
LAYOUT
  2
AcDbLayout
  3
ObjectDBX Classes
 90
0
 91
0
280
0
281
0
  0
ENDSEC
  0
SECTION
  2
TABLES
  0
TABLE
  2
VPORT
  5
8
330
0
100
AcDbSymbolTable
 70
1
  0
VPORT
  5
23
330
8
100
AcDbSymbolTableRecord
100
AcDbViewportTableRecord
  2
*Active
 70
0
 10
0.0
 20
0.0
 11
1.0
 21
1.0
 12
0.0
 22
0.0
 13
0.0
 23
0.0
 14
0.5
 24
0.5
 15
0.5
 25
0.5
 16
0.0
 26
0.0
 36
1.0
 17
0.0
 27
0.0
 37
0.0
 40
1000.0
 41
1.34
 42
50.0
 43
0.0
 44
0.0
 50
0.0
 51
0.0
 71
0
 72
1000
 73
1
 74
3
 75
0
 76
0
 77
0
 78
0
281
0
 65
0
146
0.0
  0
ENDTAB
  0
TABLE
  2
LTYPE
  5
2
330
0
100
AcDbSymbolTable
 70
3
  0
LTYPE
  5
24
330
2
100
AcDbSymbolTableRecord
100
AcDbLinetypeTableRecord
  2
ByBlock
 70
0
  3

 72
65
 73
0
 40
0.0
  0
LTYPE
  5
25
330
2
100
AcDbSymbolTableRecord
100
AcDbLinetypeTableRecord
  2
ByLayer
 70
0
  3

 72
65
 73
0
 40
0.0
  0
LTYPE
  5
26
330
2
100
AcDbSymbolTableRecord
100
AcDbLinetypeTableRecord
  2
Continuous
 70
0
  3

 72
65
 73
0
 40
0.0
  0
ENDTAB
  0
TABLE
  2
LAYER
  5
1
330
0
100
AcDbSymbolTable
 70
3
  0
LAYER
  5
27
330
1
100
AcDbSymbolTableRecord
100
AcDbLayerTableRecord
  2
0
 70
0
 62
7
  6
Continuous
370
-3
390
13
347
21
  0
LAYER
  5
28
330
1
100
AcDbSymbolTableRecord
100
AcDbLayerTableRecord
  2
Defpoints
 70
0
 62
7
  6
Continuous
290
0
370
-3
390
13
347
21
  0
LAYER
  5
2F
330
1
100
AcDbSymbolTableRecord
100
AcDbLayerTableRecord
  2
INK
 70
0
 62
7
  6
Continuous
370
-3
390
13
347
21
  0
ENDTAB
  0
TABLE
  2
STYLE
  5
5
330
0
100
AcDbSymbolTable
 70
1
  0
STYLE
  5
29
330
5
100
AcDbSymbolTableRecord
100
AcDbTextStyleTableRecord
  2
Standard
 70
0
 40
0.0
 41
1.0
 50
0.0
 71
0
 42
2.5
  3
txt
  4

  0
ENDTAB
  0
TABLE
  2
VIEW
  5
7
330
0
100
AcDbSymbolTable
 70
0
  0
ENDTAB
  0
TABLE
  2
UCS
  5
6
330
0
100
AcDbSymbolTable
 70
0
  0
ENDTAB
  0
TABLE
  2
APPID
  5
3
330
0
100
AcDbSymbolTable
 70
3
  0
APPID
  5
2A
330
3
100
AcDbSymbolTableRecord
100
AcDbRegAppTableRecord
  2
ACAD
 70
0
  0
APPID
  5
67
330
3
100
AcDbSymbolTableRecord
100
AcDbRegAppTableRecord
  2
HATCHBACKGROUNDCOLOR
 70
0
  0
APPID
  5
68
330
3
100
AcDbSymbolTableRecord
100
AcDbRegAppTableRecord
  2
EZDXF
 70
0
  0
ENDTAB
  0
TABLE
  2
DIMSTYLE
  5
4
330
0
100
AcDbSymbolTable
 70
1
100
AcDbDimStyleTable
  0
DIMSTYLE
105
2B
330
4
100
AcDbSymbolTableRecord
100
AcDbDimStyleTableRecord
  2
Standard
 70
0
 40
1.0
 41
2.5
 42
0.625
 43
3.75
 44
1.25
 45
0.0
 46
0.0
 47
0.0
 48
0.0
 49
2.5
140
2.5
141
2.5
142
0.0
143
0.03937007874
144
1.0
145
0.0
146
1.0
147
0.625
148
0.0
 69
0
 70
0
 71
0
 72
0
 73
0
 74
0
 75
0
 76
0
 77
1
 78
8
 79
3
170
0
171
3
172
1
173
0
174
0
175
0
176
0
177
0
178
0
179
2
271
2
272
2
273
2
274
3
275
0
276
0
277
2
278
44
279
0
280
0
281
0
282
0
283
0
284
8
285
0
286
0
288
0
289
3
290
0
371
-2
372
-2
  0
ENDTAB
  0
TABLE
  2
BLOCK_RECORD
  5
9
330
0
100
AcDbSymbolTable
 70
2
  0
BLOCK_RECORD
  5
17
330
9
100
AcDbSymbolTableRecord
100
AcDbBlockTableRecord
  2
*Model_Space
340
1A
 70
0
280
1
281
0
  0
BLOCK_RECORD
  5
1B
330
9
100
AcDbSymbolTableRecord
100
AcDbBlockTableRecord
  2
*Paper_Space
340
1E
 70
0
280
1
281
0
  0
ENDTAB
  0
ENDSEC
  0
SECTION
  2
BLOCKS
  0
BLOCK
  5
18
330
17
100
AcDbEntity
  8
0
100
AcDbBlockBegin
  2
*Model_Space
 70
0
 10
0.0
 20
0.0
 30
0.0
  3
*Model_Space
  1

  0
ENDBLK
  5
19
330
17
100
AcDbEntity
  8
0
100
AcDbBlockEnd
  0
BLOCK
  5
1C
330
1B
100
AcDbEntity
  8
0
100
AcDbBlockBegin
  2
*Paper_Space
 70
0
 10
0.0
 20
0.0
 30
0.0
  3
*Paper_Space
  1

  0
ENDBLK
  5
1D
330
1B
100
AcDbEntity
  8
0
100
AcDbBlockEnd
  0
ENDSEC
  0
SECTION
  2
ENTITIES
  0
LWPOLYLINE
  5
30
330
17
100
AcDbEntity
  8
INK
100
AcDbPolyline
 90
30
 70
1
 10
238.89626994358244
 20
335.7841157464534
 10
237.13971542092176
 20
351.498401460739
 10
230.11380012796835
 20
362.9264803704368
 10
229.2285920606426
 20
370.12570440253234
 10
230.11324385239502
 20
371.5646443928695
 10
230.99152111372538
 20
380.13607296429797
 10
234.97649340610332
 20
386.61787297346285
 10
240.327609291145
 20
388.06852559401926
 10
244.73163743951642
 20
385.20315764683687
 10
247.38061298464027
 20
385.20315764683687
 10
250.0242664261752
 20
382.33644881436567
 10
256.18288860752034
 20
380.9053954044681
 10
257.9320361177185
 20
378.06030050397976
 10
260.56022924106503
 20
378.06030050397976
 10
264.9651221017416
 20
372.3284394038535
 10
268.48348094684883
 20
370.89773319555206
 10
272.46525455754573
 20
364.4211360368539
 10
273.3484907639801
 20
354.3646738543242
 10
272.46770329590004
 20
352.9320194216714
 10
272.46770329590004
 20
348.64630513595716
 10
268.4813760026966
 20
342.16230113546777
 10
264.08447573152387
 20
340.73193594710773
 10
259.7048493975876
 20
335.0329528820073
 10
256.1551044837016
 20
332.146014789694
 10
253.54064981106677
 20
332.146014789694
 10
251.78409528840612
 20
329.28887193255105
 10
249.14926350441507
 20
329.28887193255105
 10
248.26109738307127
 20
327.84421567120734
 10
242.88098875807634
 20
329.3027280344967
 10
238.89626994358244
 20
335.7841157464534
  0
LWPOLYLINE
  5
31
330
17
100
AcDbEntity
  8
INK
100
AcDbPolyline
 90
26
 70
1
 10
85.67787762943551
 20
155.0031576468369
 10
83.04304584544452
 20
155.0031576468369
 10
79.04670580322697
 20
161.50344799310002
 10
79.04670580322697
 20
165.78916227881425
 10
78.15104149983459
 20
167.24601478969404
 10
79.05011117915127
 20
168.70840635180872
 10
79.92838844048161
 20
175.85126349466583
 10
82.56796585727938
 20
180.14469684101942
 10
84.32452037994004
 20
185.8589825553051
 10
92.70409572007826
 20
199.48887193255115
 10
95.33892750406925
 20
199.48887193255115
 10
96.27311239916844
 20
201.00838053069037
 10
97.21731004328188
 20
199.47258558677737
 10
101.60420774793482
 20
198.0454743550828
 10
106.86293328157944
 20
190.9174433611227
 10
108.61632541138641
 20
190.9174433611227
 10
112.16373957741
 20
186.58987955011054
 10
116.13094540317664
 20
180.1369777803802
 10
117.01615347050243
 20
172.93775374828425
 10
116.13094540317664
 20
171.49790894186512
 10
115.25266814184631
 20
164.355051799008
 10
108.62490169156206
 20
153.57458621826547
 10
105.99006990757104
 20
153.57458621826547
 10
105.10907561866695
 20
152.1415953789528
 10
86.55355285772009
 20
153.57881858340693
 10
85.67787762943551
 20
155.0031576468369
  0
LWPOLYLINE
  5
32
330
17
100
AcDbEntity
  8
INK
100
AcDbPolyline
 90
22
 70
1
 10
0.8800295448274098
 20
231.50344799309997
 10
0.8800295448274098
 20
235.78916227881442
 10
0.0
 20
237.22058390315982
 10
0.8817516521225366
 20
251.5628112700612
 10
4.876369587045043
 20
258.0603005039799
 10
7.51120137103603
 20
258.0603005039799
 10
8.389478632366359
 20
259.4888719325512
 10
56.80654327307237
 20
259.4888719325512
 10
57.684820534402704
 20
258.0603005039799
 10
60.3196523183937
 20
258.0603005039799
 10
64.31599236061133
 20
251.56001015771645
 10
64.31599236061133
 20
247.27429587200223
 10
65.21165666400366
 20
245.81744336112266
 10
64.31599236061133
 20
244.36059085024286
 10
64.31599236061133
 20
240.07487656452864
 10
58.56309779573303
 20
230.71744336112278
 10
56.799904612427966
 20
230.71744336112278
 10
52.40851830577631
 20
225.003157646837
 10
49.78032518242973
 20
225.003157646837
 10
48.9009198080694
 20
223.57275127375087
 10
4.875261801269376
 20
225.00495952783496
 10
0.8800295448274098
 20
231.50344799309997
  0
LWPOLYLINE
  5
33
330
17
100
AcDbEntity
  8
INK
100
AcDbPolyline
 90
20
 70
1
 10
31.62313906731333
 20
22.926480370436543
 10
30.744861805983
 20
30.06933751329366
 10
29.845792126666325
 20
31.531729075408354
 10
30.741456430058697
 20
32.98858158628815
 10
30.741456430058697
 20
37.27429587200237
 10
36.49435099493693
 20
46.63172907540836
 10
38.259481797773134
 20
46.63172907540836
 10
41.77259084309447
 20
50.91744336112258
 10
44.39884634690992
 20
50.91744336112258
 10
45.333031242009184
 20
52.43695195926201
 10
46.26721613710845
 20
50.91744336112258
 10
48.90204792109945
 20
50.91744336112258
 10
52.89838796331701
 20
44.4171530148596
 10
52.89838796331701
 20
40.131438729145266
 10
53.794052266709386
 20
38.674586218265475
 10
52.89838796331701
 20
37.21773370738568
 10
52.89838796331701
 20
32.932019421671455
 10
42.75410709178712
 20
16.431729075408352
 10
35.61607373360659
 20
16.431729075408352
 10
31.62313906731333
 20
22.926480370436543
  0
LWPOLYLINE
  5
34
330
17
100
AcDbEntity
  8
INK
100
AcDbPolyline
 90
20
 70
1
 10
912.9707144511656
 20
316.44465225002017
 10
909.0715212815428
 20
321.48486543754797
 10
906.846686012349
 20
328.6745862182654
 10
909.0715212815428
 20
335.86430699898307
 10
920.1205585937915
 20
350.1466216082054
 10
922.3291772042824
 20
360.13886322562263
 10
925.1137539168
 20
365.17806070074045
 10
930.7405494017969
 20
368.0874060522812
 10
931.866685442916
 20
366.63172907540843
 10
937.3677727927716
 20
366.63172907540843
 10
942.9310534034445
 20
363.7552242109372
 10
950.1417787892925
 20
355.8683948552985
 10
952.3632006077709
 20
348.6897048946522
 10
952.3632006077709
 20
335.80129799075144
 10
949.0372448060813
 20
325.7697624956768
 10
947.3564354564589
 20
323.5970982851202
 10
939.5796316458016
 20
319.2888719325513
 10
935.1554466215117
 20
319.2888719325513
 10
922.9848024724303
 20
313.5680948409951
 10
912.9707144511656
 20
316.44465225002017
  0
LWPOLYLINE
  5
35
330
17
100
AcDbEntity
  8
INK
100
AcDbPolyline
 90
23
 70
1
 10
830.6831673356093
 20
182.85645068362444
 10
825.6583187666939
 20
185.0215403077794
 10
822.3428185590514
 20
189.30725459349352
 10
819.0273183514088
 20
190.73582602206505
 10
812.9220152599055
 20
198.62772258040516
 10
810.698918658517
 20
205.81182472669047
 10
811.8105393394449
 20
211.5594806870993
 10
816.2419955815694
 20
223.01594525290568
 10
821.2593638462773
 20
228.06030050397962
 10
823.4622064287056
 20
228.06030050397962
 10
824.5673731645863
 20
229.48887193255118
 10
834.5138737875144
 20
229.48887193255118
 10
835.6190405233954
 20
230.91744336112274
 10
841.2430131006831
 20
230.91744336112274
 10
842.348179836564
 20
229.48887193255118
 10
844.5485494024705
 20
229.48887193255118
 10
848.4651124757137
 20
225.87268190246013
 10
850.6908006632292
 20
218.68020485269767
 10
848.4725003521867
 20
207.21044072947436
 10
841.8387082912766
 20
195.77705788189715
 10
839.6244490050819
 20
188.62151417747754
 10
834.6118169456918
 20
183.58192060641255
 10
830.6831673356093
 20
182.85645068362444
  0
LWPOLYLINE
  5
36
330
17
100
AcDbEntity
  8
INK
100
AcDbPolyline
 90
15
 70
1
 10
1630.4742146385333
 20
468.5714376910277
 10
1620.6376048240886
 20
472.15558179809733
 10
1613.6955316216242
 20
476.4556775718438
 10
1610.7903364972497
 20
480.0547802928572
 10
1608.4684311760739
 20
487.24601478969396
 10
1610.7903364972497
 20
494.43724928653074
 10
1612.5396722977098
 20
496.60441499136755
 10
1618.329300665945
 20
500.9079057357124
 10
1622.9963888785794
 20
502.353361993054
 10
1628.817554128618
 20
499.4687403695211
 10
1638.644686013927
 20
487.29439214367363
 10
1640.9665913351023
 20
480.10315764683685
 10
1638.6419794480112
 20
472.90354057298265
 10
1634.5643933663819
 20
469.29531202936727
 10
1630.4742146385333
 20
468.5714376910277
  0
LWPOLYLINE
  5
37
330
17
100
AcDbEntity
  8
INK
100
AcDbPolyline
 90
24
 70
1
 10
1587.186854455117
 20
375.01025388140397
 10
1586.0394399123397
 20
376.4317290754082
 10
1576.8142989351168
 20
376.4317290754082
 10
1575.661156312964
 20
377.8603005039798
 10
1573.3647725704193
 20
377.8603005039798
 10
1569.2799086656632
 20
381.47496914441126
 10
1566.956549959453
 20
388.67070495855137
 10
1570.4247074411376
 20
402.99246820778103
 10
1577.3524997494883
 20
418.7270509054257
 10
1582.563761851515
 20
425.18302608380696
 10
1588.3701004481945
 20
428.0603005039798
 10
1598.819595758278
 20
428.0603005039798
 10
1599.9727383804309
 20
426.63172907540826
 10
1602.2691221229757
 20
426.63172907540826
 10
1606.3539860277317
 20
423.01706043497677
 10
1608.6735145454486
 20
415.83318719911324
 10
1608.6735145454486
 20
398.7099101658496
 10
1609.8266571676013
 20
397.28133873727825
 10
1609.8266571676013
 20
388.63926227068134
 10
1608.6735145454486
 20
387.2106908421098
 10
1608.6735145454486
 20
384.36008260268716
 10
1604.6080035353968
 20
377.88450449374335
 10
1596.4830570074878
 20
373.57067811846247
 10
1587.186854455117
 20
375.01025388140397
  0
LWPOLYLINE
  5
38
330
17
100
AcDbEntity
  8
INK
100
AcDbPolyline
 90
25
 70
1
 10
1488.635431436677
 20
82.85675542472536
 10
1483.3957673736982
 20
85.02047574630178
 10
1480.48589276435
 20
88.625375650079
 10
1473.5503912975062
 20
108.67349266413306
 10
1478.1683982421782
 20
122.97604434197052
 10
1478.1683982421782
 20
127.26543380190192
 10
1480.4746834864839
 20
132.9797195161876
 10
1480.4746834864839
 20
135.84162512245146
 10
1484.5367770878368
 20
143.74956769651558
 10
1490.3488466150516
 20
146.62968202337956
 10
1506.564705363384
 20
148.0646124754571
 10
1507.721328608204
 20
146.63172907540834
 10
1510.0177123507492
 20
146.63172907540834
 10
1514.0997334491965
 20
143.01957601519044
 10
1515.2651563254472
 20
140.13200635775002
 10
1516.429420144601
 20
134.36261063718447
 10
1515.268962151069
 20
132.92497655639568
 10
1515.268962151069
 20
130.08120612270758
 10
1506.0438211738463
 20
110.08120612270767
 10
1506.0438211738463
 20
107.22659577748628
 10
1503.7246974683212
 20
101.48050019244815
 10
1500.2668987852162
 20
97.19680422150756
 10
1496.804604424651
 20
87.1885181863099
 10
1492.7278508415834
 20
83.58102631508157
 10
1488.635431436677
 20
82.85675542472536
  0
LWPOLYLINE
  5
39
330
17
100
AcDbEntity
  8
INK
100
AcDbPolyline
 90
25
 70
1
 10
1399.2084987465828
 20
67.88086323986676
 10
1396.3004798399757
 20
72.92450459132071
 10
1393.9958035291756
 20
84.34510310693999
 10
1392.8358442028687
 20
85.78211941353852
 10
1392.8358442028687
 20
91.4964051278242
 10
1391.6743235669246
 20
92.93535566380196
 10
1393.996717187941
 20
103.00520121629975
 10
1395.7546570627558
 20
105.18302608380692
 10
1401.555246478595
 20
108.05745155352786
 10
1413.0634218300734
 20
109.48314254666957
 10
1414.2211892115672
 20
110.91744336112264
 10
1419.9869023223314
 20
110.91744336112264
 10
1421.156952111529
 20
112.3669602437204
 10
1428.1684668466978
 20
109.47155383308638
 10
1429.925871404264
 20
107.29439214367365
 10
1432.2426933560648
 20
100.11890148482772
 10
1432.2426933560648
 20
97.21069084210998
 10
1431.0895507339121
 20
95.78211941353854
 10
1431.0895507339121
 20
78.65884238027476
 10
1428.772728782111
 20
71.48335172142883
 10
1427.017595251872
 20
69.30900349558122
 10
1421.1915960294516
 20
66.42198644421559
 10
1414.2743115095916
 20
69.27848046861263
 10
1406.2023131545218
 20
64.9927661828983
 10
1399.2084987465828
 20
67.88086323986676
  0
LWPOLYLINE
  5
3A
330
17
100
AcDbEntity
  8
INK
100
AcDbPolyline
 90
16
 70
1
 10
1853.3669600457538
 20
407.8800028774707
 10
1851.7649753532144
 20
410.0580688153084
 10
1849.6544969216072
 20
417.23160987008947
 10
1849.6544969216072
 20
422.9274852372207
 10
1848.603771357696
 20
424.3560566657922
 10
1848.603771357696
 20
430.1175625664415
 10
1850.7142497893033
 20
437.2911036212226
 10
1852.3139577891782
 20
439.4660741569838
 10
1857.634938650942
 20
442.3598464195699
 10
1862.955919512706
 20
439.4660741569838
 10
1865.6043400547146
 20
435.865269106547
 10
1870.8716476752902
 20
421.54235657696137
 10
1869.814737122854
 20
414.3574537363677
 10
1867.166634839935
 20
409.3169324549377
 10
1859.7421312414435
 20
404.9907652765785
 10
1853.3669600457538
 20
407.8800028774707
  0
LWPOLYLINE
  5
3B
330
17
100
AcDbEntity
  8
INK
100
AcDbPolyline
 90
21
 70
1
 10
3399.9149328644517
 20
452.16893102835434
 10
3396.8447535113487
 20
456.459584989519
 10
3388.690565520511
 20
462.15742784804917
 10
3381.518589096334
 20
465.0211478474939
 10
3379.9576668011464
 20
467.20257657156725
 10
3376.879134924535
 20
478.6754481071054
 10
3378.9359503692303
 20
485.86157823192
 10
3380.492343357292
 20
488.0366771337505
 10
3385.6456772502415
 20
490.91744336112254
 10
3390.834214031804
 20
490.91744336112254
 10
3391.856428953849
 20
489.4888719325512
 10
3404.123008018386
 20
489.4888719325512
 10
3405.145222940431
 20
488.0603005039799
 10
3412.275371825109
 20
488.0603005039799
 10
3417.4287057180577
 20
485.17953427660746
 10
3418.98509870612
 20
483.00443537477713
 10
3421.042160840793
 20
475.8174433611226
 10
3414.8944800410313
 20
454.3385915240037
 10
3410.256420682592
 20
449.2971866530533
 10
3406.611458627468
 20
448.5694827317681
 10
3399.9149328644517
 20
452.16893102835434
  0
LWPOLYLINE
  5
3C
330
17
100
AcDbEntity
  8
INK
100
AcDbPolyline
 90
25
 70
1
 10
3381.5194064973725
 20
333.59383246135275
 10
3371.783300242158
 20
345.7680306898803
 10
3370.7496141814445
 20
348.6572359648219
 10
3370.7496141814445
 20
351.499636418382
 10
3369.717969941423
 20
352.94138555935217
 10
3371.7796290583155
 20
360.1444385727923
 10
3379.4646431573938
 20
372.3164422396632
 10
3381.551394304177
 20
373.77458621826554
 10
3383.575891836517
 20
373.77458621826554
 10
3384.6495156290484
 20
375.27500285469785
 10
3385.7231394215805
 20
373.77458621826554
 10
3394.923073719983
 20
373.77458621826554
 10
3395.9452886420277
 20
372.346014789694
 10
3406.1420822928403
 20
372.346014789694
 10
3411.3023535849916
 20
369.4613704853831
 10
3413.882640907324
 20
364.4129461928265
 10
3413.882640907324
 20
361.56382173243463
 10
3414.9048558293684
 20
360.1352503038631
 10
3414.9048558293684
 20
337.2319854533241
 10
3412.8518091738515
 20
330.0590227760396
 10
3411.2954161857892
 20
327.8839238742091
 10
3406.1343051970684
 20
324.998810170948
 10
3388.6891259997005
 20
327.8670552210681
 10
3384.590186389151
 20
332.1633347182586
 10
3381.5194064973725
 20
333.59383246135275
  0
LWPOLYLINE
  5
3D
330
17
100
AcDbEntity
  8
INK
100
AcDbPolyline
 90
33
 70
1
 10
3329.8638378738938
 20
151.50213626090613
 10
3328.8425448193834
 20
160.06583483196846
 10
3327.816587455565
 20
161.49963641838207
 10
3327.816587455565
 20
167.23102604581598
 10
3324.7511254649
 20
177.22716914174185
 10
3323.7302432526944
 20
190.06754953492623
 10
3322.705512845341
 20
191.49963641838207
 10
3322.705512845341
 20
224.40290126892083
 10
3324.7585595008586
 20
231.57586394620554
 10
3326.3149524889204
 20
233.7509628480361
 10
3331.4682863818693
 20
236.63172907540832
 10
3335.6346082413875
 20
236.63172907540832
 10
3336.656823163433
 20
235.20315764683696
 10
3340.7456828516115
 20
235.20315764683696
 10
3341.7678977736564
 20
233.77458621826543
 10
3345.856757461835
 20
233.77458621826543
 10
3346.87897238388
 20
232.34601478969407
 10
3350.967832072059
 20
232.34601478969407
 10
3351.9900469941035
 20
230.91744336112274
 10
3356.0789066822826
 20
230.91744336112274
 10
3357.108042284623
 20
229.47920010530254
 10
3364.2513998665436
 20
228.05305375730467
 10
3369.9155495510577
 20
223.0157305145355
 10
3371.976125082851
 20
215.81646334564007
 10
3368.8982188245286
 20
205.77974082625207
 10
3363.787575500063
 20
195.7805846522407
 10
3361.7426537224487
 20
188.6360087852601
 10
3354.5855577528887
 20
175.7760062640612
 10
3345.3815649334156
 20
150.05037677633203
 10
3340.745805983549
 20
145.01147236733902
 10
3337.103982616112
 20
144.28439507406898
 10
3332.4431594431217
 20
146.45560149878634
 10
3329.8638378738938
 20
151.50213626090613
  0
LWPOLYLINE
  5
3E
330
17
100
AcDbEntity
  8
INK
100
AcDbPolyline
 90
21
 70
1
 10
3328.832090487685
 20
381.5544416950556
 10
3329.861017299654
 20
382.99239316100596
 10
3329.861017299654
 20
388.70667887529174
 10
3330.883232221699
 20
390.1352503038633
 10
3330.883232221699
 20
395.84953601814885
 10
3331.905447143744
 20
397.2781074467204
 10
3331.905447143744
 20
402.975289247858
 10
3334.9837969085415
 20
413.0134579943414
 10
3338.5953343290444
 20
416.6186120439883
 10
3342.74821115755
 20
418.0695498692042
 10
3353.0291656292384
 20
412.3223914194647
 10
3354.5855586173006
 20
410.1472925176341
 10
3356.6426207519735
 20
402.9603005039797
 10
3352.542551200183
 20
388.6354210424101
 10
3348.455644968092
 20
381.49597640544397
 10
3346.410166322211
 20
371.49084636004324
 10
3344.8514462528806
 20
369.3124953027804
 10
3339.6792457219713
 20
366.42118243228583
 10
3332.4522728381853
 20
369.3068621332083
 10
3330.889521951859
 20
371.49084636004324
 10
3328.832090487685
 20
381.5544416950556
  0
LWPOLYLINE
  5
3F
330
17
100
AcDbEntity
  8
INK
100
AcDbPolyline
 90
30
 70
1
 10
3238.8988193989294
 20
231.47877113718042
 10
3235.8245064637895
 20
237.2073454671826
 10
3232.7585313845857
 20
247.20516168985807
 10
3227.646967972777
 20
255.77740999650712
 10
3225.5910797719343
 20
262.9603005039798
 10
3227.650751951703
 20
270.1564115291337
 10
3234.3247423371636
 20
276.6136150872376
 10
3242.563177446641
 20
280.93114879262384
 10
3247.682223407388
 20
278.0695498692041
 10
3251.7070659552405
 20
279.4757549011313
 10
3255.254041834967
 20
283.0164615221409
 10
3257.815061898047
 20
289.45882508012113
 10
3268.115478534134
 20
295.21686307833806
 10
3276.3712177401726
 20
290.8902607793231
 10
3282.0118656671125
 20
278.70752085699223
 10
3284.0647011174556
 20
270.10085113810464
 10
3282.006275966992
 20
262.9090970011099
 10
3277.9150613071424
 20
258.6209143656599
 10
3276.905841353327
 20
255.80009310767915
 10
3276.905841353327
 20
252.92820784695346
 10
3275.8836264312827
 20
251.4996364183819
 10
3275.8836264312827
 20
238.66055688189581
 10
3273.8305797757653
 20
231.48759420461084
 10
3272.274186787703
 20
229.31249530278052
 10
3267.065522772369
 20
226.40079897244303
 10
3266.0725846718574
 20
227.78845529611868
 10
3265.1004486204233
 20
226.42987036665474
 10
3245.0933328555466
 20
227.14680510075436
 10
3240.4511730110576
 20
229.30931736625504
 10
3238.8988193989294
 20
231.47877113718042
  0
LWPOLYLINE
  5
40
330
17
100
AcDbEntity
  8
INK
100
AcDbPolyline
 90
29
 70
1
 10
3174.007203078149
 20
373.5950316519694
 10
3168.3596764280114
 20
381.48759420461096
 10
3166.3138241569504
 20
388.6354210424101
 10
3162.222381692393
 20
395.78279005510564
 10
3161.193033861635
 20
401.5369494568963
 10
3163.248601817788
 20
408.7187210890628
 10
3164.807268779746
 20
410.8969979274186
 10
3171.039616226536
 20
413.80028610534424
 10
3172.0802207142274
 20
412.34601478969404
 10
3176.1690804024065
 20
412.34601478969404
 10
3177.1912953244514
 20
410.9174433611225
 10
3182.302369934675
 20
410.9174433611225
 10
3183.32458485672
 20
409.48887193255115
 10
3189.4578743889883
 20
409.48887193255115
 10
3190.4800893110328
 20
408.06030050397976
 10
3195.591163921257
 20
408.06030050397976
 10
3196.6133788433012
 20
406.63172907540826
 10
3202.7229159064036
 20
406.63172907540826
 10
3209.9199871817577
 20
402.32111877853447
 10
3211.4754695310353
 20
400.1472925176341
 10
3213.5285161865527
 20
392.9743298403494
 10
3213.5285161865527
 20
384.3748425961815
 10
3211.4754695310353
 20
377.20187991889674
 10
3209.9190765429735
 20
375.02678101706624
 10
3204.765742650024
 20
372.146014789694
 10
3190.4800893110328
 20
372.146014789694
 10
3189.4553865418875
 20
370.7139665313388
 10
3178.6479218405357
 20
371.43319070280126
 10
3174.007203078149
 20
373.5950316519694
  0
LWPOLYLINE
  5
41
330
17
100
AcDbEntity
  8
INK
100
AcDbPolyline
 90
44
 70
1
 10
3882.2094336813957
 20
353.5761610849002
 10
3881.2865909071343
 20
355.0031576468369
 10
3878.5150071720245
 20
355.0031576468369
 10
3874.314735228543
 20
361.498059909406
 10
3873.390873983507
 20
371.498059909406
 10
3872.464328027754
 20
372.93078272006386
 10
3872.464328027754
 20
388.658820503998
 10
3871.5307051266154
 20
391.54615235992975
 10
3872.464328027754
 20
392.9898182878955
 10
3872.464328027754
 20
397.27553257360995
 10
3876.6672846819515
 20
403.7745862182653
 10
3879.438868417061
 20
403.7745862182653
 10
3880.4171486105643
 20
405.28730594872786
 10
3881.3954288040677
 20
403.7745862182653
 10
3885.0908737842137
 20
403.7745862182653
 10
3886.01473502925
 20
402.346014789694
 10
3889.7101800093965
 20
402.346014789694
 10
3890.639233820489
 20
400.90941406933325
 10
3899.8535754520626
 20
399.484595650043
 10
3904.4659679668016
 20
396.6317290754082
 10
3908.1874049101257
 20
396.6317290754082
 10
3909.1112661551624
 20
395.20315764683687
 10
3912.806711135308
 20
395.20315764683687
 10
3913.7305723803447
 20
393.77458621826554
 10
3921.1214623406368
 20
393.77458621826554
 10
3922.023146812816
 20
392.38030684843375
 10
3929.310861811158
 20
396.6061936423666
 10
3932.098959384141
 20
400.91744336112265
 10
3934.8705431192507
 20
400.91744336112265
 10
3935.8488233127537
 20
402.430163091585
 10
3936.827103506257
 20
400.91744336112265
 10
3939.598687241367
 20
400.91744336112265
 10
3943.7985210766788
 20
394.42321854748405
 10
3944.7287286230026
 20
385.79291006474193
 10
3943.8016438955638
 20
384.3593541486354
 10
3943.8016438955638
 20
378.64506843434964
 10
3942.8746598316425
 20
377.21166817476126
 10
3941.950798586606
 20
368.6402396033326
 10
3940.106198915418
 20
365.78792557720675
 10
3940.106198915418
 20
361.50221129149253
 10
3934.979381016184
 20
353.57458621826555
 10
3932.2077972810744
 20
353.57458621826555
 10
3931.282901269063
 20
352.14441472416104
 10
3882.2094336813957
 20
353.5761610849002
  0
LWPOLYLINE
  5
42
330
17
100
AcDbEntity
  8
INK
100
AcDbPolyline
 90
25
 70
1
 10
3906.2273246503105
 20
193.5800290158214
 10
3902.032519585992
 20
200.06647781482468
 10
3900.184797095919
 20
211.49504924339624
 10
3899.2563041338126
 20
212.93078272006395
 10
3899.2563041338126
 20
217.21649700577817
 10
3898.3296841129086
 20
218.64933434376366
 10
3899.2589888445286
 20
228.70825538426786
 10
3904.3831220330467
 20
236.63172907540832
 10
3907.1547057681555
 20
236.63172907540832
 10
3908.132985961659
 20
238.1444488058708
 10
3909.1112661551624
 20
236.63172907540832
 10
3911.88564150306
 20
236.63172907540832
 10
3921.1292064241543
 20
220.90901952686636
 10
3930.365267357058
 20
219.48084264076172
 10
3934.563031445199
 20
212.98981828789553
 10
3934.563031445199
 20
208.7041040021813
 10
3935.490768379447
 20
207.2695395753066
 10
3934.559300361207
 20
200.06787046841822
 10
3930.360074791002
 20
193.5745862182654
 10
3927.588491055892
 20
193.5745862182654
 10
3926.664629810856
 20
192.14601478969405
 10
3921.9364856887396
 20
192.14601478969405
 10
3921.0670433921696
 20
193.49043791637445
 10
3920.1938786157493
 20
192.14025869981933
 10
3906.2273246503105
 20
193.5800290158214
  0
LWPOLYLINE
  5
43
330
17
100
AcDbEntity
  8
INK
100
AcDbPolyline
 90
32
 70
1
 10
3841.5507301362222
 20
266.4469249787751
 10
3836.4426329742623
 20
274.34560207898716
 10
3833.669369184607
 20
282.92222640450683
 10
3827.198137908397
 20
295.7877244010729
 10
3826.274996859922
 20
302.9250133255612
 10
3825.3435288416817
 20
304.36534714693875
 10
3826.274996859922
 20
311.56701625382686
 10
3830.4684860748457
 20
318.05143034809566
 10
3838.7832372801745
 20
319.4800017766672
 10
3839.7128348804918
 20
320.9174433611226
 10
3864.6570884964776
 20
320.9174433611226
 10
3865.580949741514
 20
322.3460147896939
 10
3871.2329551086664
 20
322.3460147896939
 10
3872.1568163537027
 20
320.9174433611226
 10
3874.9284000888124
 20
320.9174433611226
 10
3879.125257755669
 20
314.42782061218264
 10
3880.0501625839406
 20
310.1372652319827
 10
3883.750662968192
 20
302.9846365921831
 10
3883.750662968192
 20
298.70410400218117
 10
3884.6936134488483
 20
297.246014789694
 10
3883.750662968192
 20
295.7879255772069
 10
3883.750662968192
 20
291.4985312010756
 10
3876.784625015746
 20
282.1631267086253
 10
3869.384764335913
 20
279.3025159839595
 10
3864.7507520320223
 20
275.0031576468368
 10
3861.977774309774
 20
275.0031576468368
 10
3855.510745594518
 20
269.2888719325512
 10
3852.7436257971262
 20
269.2888719325512
 10
3849.9720420620165
 20
266.4317290754083
 10
3847.2125627377177
 20
266.4317290754083
 10
3846.277113332754
 20
264.98523881511795
 10
3841.5507301362222
 20
266.4469249787751
  0
LWPOLYLINE
  5
44
330
17
100
AcDbEntity
  8
INK
100
AcDbPolyline
 90
37
 70
1
 10
3831.391677509509
 20
116.44163496254289
 10
3830.4813329564995
 20
117.84930546021988
 10
3823.0904429962075
 20
116.42073403164844
 10
3822.159471224799
 20
117.86030050397977
 10
3819.3878874896895
 20
117.86030050397977
 10
3815.184930835492
 20
124.35935414863563
 10
3815.184930835492
 20
128.64506843434987
 10
3814.241980354836
 20
130.10315764683688
 10
3815.184930835492
 20
131.56124685932392
 10
3815.184930835492
 20
135.84696114503825
 10
3819.807968144666
 20
142.99558768239828
 10
3820.731829389703
 20
150.1384448252554
 10
3827.2040205238973
 20
160.14642750040076
 10
3829.9756042590066
 20
168.71785607182932
 10
3836.9412511453825
 20
179.48887193255115
 10
3839.712834880492
 20
179.48887193255115
 10
3840.691115073995
 20
181.00159166301333
 10
3841.6693952674987
 20
179.48887193255115
 10
3844.440979002608
 20
179.48887193255115
 10
3849.567796901842
 20
171.56124685932394
 10
3849.567796901842
 20
167.2666533421163
 10
3851.415519391915
 20
162.9809390564021
 10
3851.415519391915
 20
158.70410400218105
 10
3852.3393806369513
 20
157.27553257360972
 10
3852.3393806369513
 20
152.98981828789536
 10
3856.958686862134
 20
145.84696114503814
 10
3856.958686862134
 20
142.98981828789536
 10
3859.7265395132517
 20
138.70987339668395
 10
3860.658007531492
 20
131.50820428979603
 10
3859.730270597244
 20
130.0736398629213
 10
3859.730270597244
 20
125.78792557720708
 10
3855.5325065091024
 20
119.29690122434067
 10
3846.2938940587374
 20
117.86832979576923
 10
3845.364840247644
 20
116.43172907540833
 10
3839.8216727774256
 20
116.43172907540833
 10
3838.890701006017
 20
114.99216260307699
 10
3831.391677509509
 20
116.44163496254289
  0
LWPOLYLINE
  5
45
330
17
100
AcDbEntity
  8
INK
100
AcDbPolyline
 90
16
 70
1
 10
4561.238948753515
 20
231.4310992740145
 10
4556.130422539108
 20
233.59250736015457
 10
4554.41496125047
 20
235.76993294931992
 10
4552.156248287506
 20
242.93736283641576
 10
4551.0259446952505
 20
250.1108035360249
 10
4553.289476643344
 20
257.2935252014967
 10
4555.002663255576
 20
259.46806355639774
 10
4560.671070428564
 20
262.3460147896941
 10
4587.730564887375
 20
262.3460147896941
 10
4593.398972060363
 20
259.46806355639774
 10
4595.112158672597
 20
257.2935252014967
 10
4597.378100113256
 20
250.10315764683688
 10
4595.113618181782
 20
242.91742145965256
 10
4590.0269959481
 20
235.02623943562284
 10
4584.355564598104
 20
232.1467527738219
 10
4561.238948753515
 20
231.4310992740145
  0
LWPOLYLINE
  5
46
330
17
100
AcDbEntity
  8
INK
100
AcDbPolyline
 90
16
 70
1
 10
4515.598737608176
 20
119.31512396688416
 10
4512.775431502198
 20
125.76561643992979
 10
4509.395576965407
 20
130.05564723503394
 10
4507.129298367161
 20
137.2470846703756
 10
4510.521710904582
 20
147.29434939509912
 10
4513.359732791892
 20
150.89663498496895
 10
4519.032162161824
 20
153.77662835925844
 10
4535.986027655649
 20
152.341998470648
 10
4537.108348049092
 20
150.91744336112268
 10
4539.349378293391
 20
150.91744336112268
 10
4543.337225795717
 20
147.30190555681654
 10
4545.606250227565
 20
140.10175494270882
 10
4537.711593717124
 20
117.19742548769496
 10
4535.999257096908
 20
115.02396602299059
 10
4530.307791968576
 20
112.13430785527801
 10
4515.598737608176
 20
119.31512396688416
  0
LWPOLYLINE
  5
47
330
17
100
AcDbEntity
  8
INK
100
AcDbPolyline
 90
19
 70
1
 10
4467.214863899702
 20
39.30968030870496
 10
4464.37841689408
 20
42.90996690989945
 10
4460.993251194358
 20
51.50351135996445
 10
4459.861083136836
 20
57.25173014172391
 10
4462.12522346609
 20
64.43638234435412
 10
4466.086304287448
 20
69.46416046928339
 10
4475.090181144461
 20
75.17844618356906
 10
4478.466634965841
 20
79.46416046928329
 10
4482.996471392531
 20
82.33900871433985
 10
4488.67577721784
 20
83.78075105089111
 10
4494.356326633223
 20
80.89663498496891
 10
4498.320482459709
 20
75.86495377292557
 10
4500.585629055687
 20
68.6771084482346
 10
4498.321384993762
 20
60.0551308031485
 10
4486.473261670459
 20
46.4486356124576
 10
4483.099205885553
 20
45.0210787887263
 10
4478.599542133451
 20
39.30968030870496
 10
4472.907203016576
 20
36.419578401450046
 10
4467.214863899702
 20
39.30968030870496
  0
LWPOLYLINE
  5
48
330
17
100
AcDbEntity
  8
INK
100
AcDbPolyline
 90
54
 70
1
 10
5284.587781129055
 20
246.43172907540833
 10
5279.672809274427
 20
251.49115349365104
 10
5279.672809274427
 20
254.34829635079416
 10
5278.285025253296
 20
255.7768677793655
 10
5278.285025253296
 20
270.1437332285941
 10
5279.672809274427
 20
271.57230465716543
 10
5279.672809274427
 20
274.34829635079393
 10
5278.285025253296
 20
275.7768677793655
 10
5278.285025253296
 20
278.6280669976222
 10
5270.705222783413
 20
285.0119921945451
 10
5259.597798378948
 20
287.870460966996
 10
5253.304912872944
 20
294.34829635079393
 10
5253.304912872944
 20
297.2054392079369
 10
5251.877711751006
 20
298.67458621826535
 10
5253.304912872944
 20
300.1437332285941
 10
5253.304912872944
 20
303.000876085737
 10
5256.080480915205
 20
305.85801894287965
 10
5256.080480915205
 20
308.71516180002277
 10
5258.8635658049425
 20
311.5800424271453
 10
5260.251349826073
 20
318.7228995700024
 10
5263.019401020858
 20
321.5723046571655
 10
5263.019401020858
 20
324.4214378019925
 10
5267.18275308425
 20
330.1357235162783
 10
5267.18275308425
 20
333.0008760857368
 10
5269.967584355431
 20
335.86755442100105
 10
5271.355368376562
 20
341.5818401352866
 10
5276.261077002271
 20
346.63172907540843
 10
5279.036645044533
 20
346.63172907540843
 10
5280.466701284991
 20
348.1038151170863
 10
5281.896757525451
 20
346.63172907540843
 10
5284.664163988461
 20
346.63172907540843
 10
5290.247946389986
 20
342.3208104378244
 10
5296.526217527994
 20
335.85801894287994
 10
5296.526217527994
 20
333.0008760857368
 10
5297.922129351077
 20
331.56393797656625
 10
5295.13318869484
 20
317.20939549438884
 10
5288.19951340121
 20
305.7894623997268
 10
5288.19951340121
 20
302.9372991733277
 10
5282.668964555424
 20
291.551112353029
 10
5284.036161337818
 20
290.1437332285941
 10
5284.036161337818
 20
287.2865903714512
 10
5288.846826272821
 20
282.33453848590193
 10
5298.561314420736
 20
279.47739562875927
 10
5304.852921654779
 20
273.000876085737
 10
5304.852921654779
 20
270.1437332285941
 10
5306.280122776716
 20
268.6745862182656
 10
5304.852921654779
 20
267.2054392079368
 10
5304.852921654779
 20
264.34829635079393
 10
5302.077353612517
 20
261.49115349365127
 10
5302.077353612517
 20
258.6340106365084
 10
5299.301785570256
 20
255.7768677793655
 10
5299.301785570256
 20
252.9197249222226
 10
5292.999029694496
 20
246.43172907540833
 10
5284.587781129055
 20
246.43172907540833
  0
LWPOLYLINE
  5
49
330
17
100
AcDbEntity
  8
INK
100
AcDbPolyline
 90
20
 70
1
 10
5072.249164493827
 20
417.86818707723097
 10
5067.341854041436
 20
422.91972492222254
 10
5067.341854041436
 20
425.77686777936543
 10
5065.914652919498
 20
427.2460147896939
 10
5067.341854041436
 20
428.71516180002266
 10
5067.341854041436
 20
431.57230465716555
 10
5072.256825896065
 20
436.63172907540826
 10
5075.032393938327
 20
436.63172907540826
 10
5076.420177959457
 20
438.0603005039796
 10
5101.4848347784655
 20
438.0603005039796
 10
5102.872618799596
 20
436.63172907540826
 10
5105.648186841857
 20
436.63172907540826
 10
5110.563158696486
 20
431.57230465716555
 10
5110.563158696486
 20
428.71516180002266
 10
5111.9576899318745
 20
427.27964485445136
 10
5110.556837956124
 20
418.6275041276049
 10
5105.648186841857
 20
413.5745862182656
 10
5102.872618799596
 20
413.5745862182656
 10
5101.476517421802
 20
412.1374529833106
 10
5072.249164493827
 20
417.86818707723097
  0
LWPOLYLINE
  5
4A
330
17
100
AcDbEntity
  8
INK
100
AcDbPolyline
 90
25
 70
1
 10
5813.936090275338
 20
477.87202707147316
 10
5809.870162082782
 20
484.36012718103717
 10
5809.870162082782
 20
488.64584146675116
 10
5808.956898902186
 20
490.10315764683685
 10
5809.870162082782
 20
491.5604738269226
 10
5809.870162082782
 20
495.839772011132
 10
5812.555910798933
 20
501.5540577254178
 10
5812.555910798933
 20
504.41761668406525
 10
5816.629187734659
 20
510.91744336112254
 10
5819.314936450812
 20
510.91744336112254
 10
5820.265532161363
 20
512.4343319635998
 10
5821.216127871914
 20
510.91744336112254
 10
5823.9018765880655
 20
510.91744336112254
 10
5825.705520553059
 20
508.0393249948643
 10
5841.820012849968
 20
500.89646785200694
 10
5845.880144964803
 20
494.41761668406525
 10
5845.880144964803
 20
490.13190239835103
 10
5846.793408145399
 20
488.6745862182653
 10
5845.880144964803
 20
487.21727003817983
 10
5845.880144964803
 20
482.9315557524656
 10
5841.806868029076
 20
476.4317290754083
 10
5839.121119312926
 20
476.4317290754083
 10
5838.224170844086
 20
475.000446676078
 10
5823.385272703673
 20
475.7179857433167
 10
5813.936090275338
 20
477.87202707147316
  0
LWPOLYLINE
  5
4B
330
17
100
AcDbEntity
  8
INK
100
AcDbPolyline
 90
73
 70
1
 10
5745.001873227446
 20
0.7291699286161579
 10
5728.402451026182
 20
27.217270038179752
 10
5728.402451026182
 20
31.50298432389398
 10
5727.507201454132
 20
32.93155575246543
 10
5727.507201454132
 20
52.947957943707436
 10
5725.716702310031
 20
60.090815086564554
 10
5725.716702310031
 20
70.13190239835131
 10
5726.611951882081
 20
71.56047382692276
 10
5726.611951882081
 20
75.846188112637
 10
5731.57053445025
 20
83.75871843295147
 10
5736.056968368623
 20
85.1905406894603
 10
5738.75457717675
 20
88.06030050397973
 10
5741.4382729475865
 20
88.06030050397973
 10
5747.681005222993
 20
95.17578558632844
 10
5751.296310266835
 20
98.06030050397973
 10
5753.066468119071
 20
98.06030050397973
 10
5758.41762425951
 20
106.59926998323522
 10
5761.998622547712
 20
109.456412840378
 10
5774.53211655642
 20
129.45641284037802
 10
5776.36329828425
 20
130.91744336112265
 10
5779.028705708537
 20
130.91744336112265
 10
5779.9239552805875
 20
132.34601478969398
 10
5795.143198005447
 20
132.34601478969398
 10
5796.038447577497
 20
133.77458621826554
 10
5804.206386002954
 20
133.77458621826554
 10
5805.110090697558
 20
132.33252274581864
 10
5810.47108859758
 20
130.90674371024747
 10
5813.146779512971
 20
128.06030050397976
 10
5814.94938086756
 20
128.06030050397976
 10
5816.751925243501
 20
125.1839367786074
 10
5820.332923531703
 20
123.75536535003606
 10
5824.39415523559
 20
117.27475954120847
 10
5824.39415523559
 20
112.98904525549413
 10
5825.307418416185
 20
111.53172907540832
 10
5824.39415523559
 20
110.07441289532261
 10
5824.39415523559
 20
105.78869860960826
 10
5820.320878299864
 20
99.2888719325512
 10
5817.635129583712
 20
99.2888719325512
 10
5816.7157255789525
 20
97.8217566905909
 10
5812.179091636927
 20
100.71744336112265
 10
5806.892134719105
 20
100.71744336112265
 10
5805.996885147055
 20
99.2888719325512
 10
5803.315275551865
 20
99.2888719325512
 10
5797.533546050304
 20
88.64343444589406
 10
5796.645072754909
 20
81.55464264707236
 10
5797.536668074074
 20
80.13190239835133
 10
5797.536668074074
 20
75.84835863428985
 10
5808.27966293868
 20
60.134072920004165
 10
5808.27966293868
 20
55.84618811263709
 10
5809.192926119275
 20
54.38887193255126
 10
5808.27966293868
 20
52.93155575246544
 10
5808.27966293868
 20
48.64584146675111
 10
5802.415886858853
 20
39.28887193255126
 10
5799.730138142701
 20
39.28887193255126
 10
5798.812257380989
 20
37.824187366419906
 10
5791.55026977044
 20
42.16973594539364
 10
5787.081562422011
 20
47.87439559777673
 10
5782.6069521874615
 20
49.30244438654719
 10
5779.031320923057
 20
53.581735454849124
 10
5770.181150028166
 20
54.993978663126384
 10
5769.291652692982
 20
53.574586218265495
 10
5766.602606288959
 20
53.574586218265495
 10
5758.14568690385
 20
41.500192056008856
 10
5758.14568690385
 20
37.21727003817965
 10
5757.254091584685
 20
35.79452978945874
 10
5758.142161478907
 20
28.708956575761334
 10
5760.831435620002
 20
24.417616684065614
 10
5760.831435620002
 20
20.131902398351276
 10
5761.729724821775
 20
18.698480559000252
 10
5760.828485658196
 20
10.069705569808352
 10
5755.871809426029
 20
2.160217236033102
 10
5748.20053965352
 20
0.0
 10
5745.001873227446
 20
0.7291699286161579
  0
LWPOLYLINE
  5
4C
330
17
100
AcDbEntity
  8
INK
100
AcDbPolyline
 90
86
 70
1
 10
5646.557920807576
 20
473.57458621826544
 10
5640.265022040703
 20
473.57458621826544
 10
5639.369772468652
 20
475.003157646837
 10
5636.684023752501
 20
475.003157646837
 10
5632.610746816775
 20
481.5029843238938
 10
5632.610746816775
 20
485.7886986096083
 10
5631.697483636179
 20
487.24601478969396
 10
5632.610746816775
 20
488.7033309697797
 10
5632.610746816775
 20
492.98904525549415
 10
5636.684023752501
 20
499.488871932551
 10
5639.369772468652
 20
499.488871932551
 10
5640.266720937491
 20
500.9201543318815
 10
5669.809956815159
 20
499.49158290330996
 10
5670.7035074904215
 20
500.91744336112254
 10
5673.386826819624
 20
500.91744336112254
 10
5683.642043949545
 20
518.7049416173542
 10
5684.534018100779
 20
530.0916996991945
 10
5683.630771822221
 20
532.9743636329102
 10
5684.535221995706
 20
534.4176166840655
 10
5684.535221995706
 20
538.7033309697799
 10
5688.608498931432
 20
545.2031576468368
 10
5691.294247647584
 20
545.2031576468368
 10
5692.189497219634
 20
546.6317290754081
 10
5697.5871464144575
 20
546.6317290754081
 10
5702.063394274711
 20
549.4888719325512
 10
5711.884987804746
 20
549.4888719325512
 10
5712.835583515298
 20
551.0057605350285
 10
5713.730833087348
 20
549.5771891064571
 10
5714.570736520898
 20
550.9174433611225
 10
5725.3398831480245
 20
550.9174433611225
 10
5729.816131008278
 20
553.7745862182654
 10
5738.742474966263
 20
553.7745862182654
 10
5739.637724538313
 20
555.2031576468368
 10
5763.024905688629
 20
555.2031576468368
 10
5764.81540483273
 20
552.3460147896939
 10
5767.501153548881
 20
552.3460147896939
 10
5768.341056982432
 20
551.0057605350285
 10
5769.180960415981
 20
552.3460147896939
 10
5771.866709132133
 20
552.3460147896939
 10
5773.657208276234
 20
555.2031576468368
 10
5800.625387714751
 20
555.2031576468368
 10
5801.520637286802
 20
553.7745862182654
 10
5804.206386002954
 20
553.7745862182654
 10
5808.27966293868
 20
547.2747595412081
 10
5808.27966293868
 20
542.9890452554937
 10
5809.192926119275
 20
541.5317290754083
 10
5808.27966293868
 20
540.0744128953228
 10
5808.27966293868
 20
535.7886986096083
 10
5804.206386002954
 20
529.2888719325513
 10
5801.520637286802
 20
529.2888719325513
 10
5800.601233282043
 20
527.821756690591
 10
5796.064599340017
 20
530.7174433611226
 10
5778.159607899006
 20
530.7174433611226
 10
5773.743746120525
 20
533.5360424048768
 10
5772.872650981185
 20
532.1460147896939
 10
5770.1869022650335
 20
532.1460147896939
 10
5766.199983090498
 20
525.7839912840942
 10
5765.309289979664
 20
517.2561878458858
 10
5766.212133653739
 20
514.3748088036207
 10
5765.307683480254
 20
512.9315557524657
 10
5765.307683480254
 20
508.64584146675116
 10
5761.2402252447155
 20
502.15529983053585
 10
5753.158853956239
 20
500.72245094970435
 10
5748.6747607733
 20
497.86030050397966
 10
5745.093762485098
 20
497.86030050397966
 10
5740.617514624845
 20
495.003157646837
 10
5737.930206422973
 20
495.003157646837
 10
5730.768209846568
 20
490.71744336112255
 10
5725.398271899986
 20
490.71744336112255
 10
5720.9220240397335
 20
487.8603005039799
 10
5718.2624270861015
 20
487.8603005039799
 10
5717.367177514051
 20
486.4317290754083
 10
5714.681428797899
 20
486.4317290754083
 10
5712.890929653799
 20
483.57458621826544
 10
5710.193078727159
 20
483.57458621826544
 10
5707.507330011007
 20
480.71744336112255
 10
5704.821581294856
 20
480.71744336112255
 10
5702.144557191942
 20
477.8695818884384
 10
5695.888536528008
 20
476.4434556429018
 10
5694.985938212787
 20
475.003157646837
 10
5691.378788162066
 20
475.003157646837
 10
5686.902540301813
 20
472.1460147896939
 10
5680.635793297459
 20
472.1460147896939
 10
5676.156919078718
 20
469.28719555500663
 10
5651.031585611124
 20
470.7190920995854
 10
5646.557920807576
 20
473.57458621826544
  0
LWPOLYLINE
  5
4D
330
17
100
AcDbEntity
  8
INK
100
AcDbPolyline
 90
49
 70
1
 10
5646.939118087154
 20
147.21028376991597
 10
5646.042907976617
 20
152.93070050232683
 10
5635.308557958391
 20
175.76945030509407
 10
5629.029748528572
 20
185.78869860960822
 10
5629.029748528572
 20
188.65225756825578
 10
5623.670313521734
 20
200.05516459080886
 10
5618.286753663965
 20
208.64584146675114
 10
5618.286753663965
 20
212.93155575246536
 10
5617.37349048337
 20
214.3888719325513
 10
5618.286753663965
 20
215.846188112637
 10
5618.286753663965
 20
220.13190239835123
 10
5622.360030599692
 20
226.6317290754083
 10
5625.045779315844
 20
226.6317290754083
 10
5625.9410288878935
 20
228.06030050397962
 10
5637.579273324551
 20
228.06030050397962
 10
5638.474522896602
 20
229.48887193255118
 10
5649.328210038209
 20
229.48887193255118
 10
5650.223459610261
 20
228.06030050397962
 10
5652.909208326412
 20
228.06030050397962
 10
5658.770448730328
 20
218.70737720925604
 10
5659.665698302379
 20
208.70737720925604
 10
5661.455783160585
 20
205.85089543815104
 10
5662.351032732636
 20
197.27946686672237
 10
5666.3379519071705
 20
190.9174433611227
 10
5669.023700623322
 20
190.9174433611227
 10
5669.918950195372
 20
189.48887193255115
 10
5696.776437356888
 20
189.48887193255115
 10
5697.671686928939
 20
188.06030050397982
 10
5700.357435645091
 20
188.06030050397982
 10
5705.3224367279245
 20
180.1375280043328
 10
5707.112935872025
 20
165.85181371861844
 10
5708.011710869019
 20
164.41761668406562
 10
5708.011710869019
 20
160.1319023983513
 10
5708.906960441071
 20
158.70333096977984
 10
5708.906960441071
 20
154.41761668406562
 10
5709.820223621665
 20
152.9603005039798
 10
5708.906960441071
 20
151.50298432389397
 10
5708.906960441071
 20
147.21727003817975
 10
5703.938433933293
 20
139.28887193255125
 10
5701.252685217141
 20
139.28887193255125
 10
5700.357435645091
 20
137.8603005039798
 10
5688.719191208434
 20
137.8603005039798
 10
5687.823941636383
 20
136.43172907540836
 10
5677.080946771776
 20
136.43172907540836
 10
5676.185697199726
 20
135.0031576468369
 10
5664.5474527630695
 20
135.0031576468369
 10
5663.646450954151
 20
133.565407234555
 10
5654.5837465633485
 20
135.01156492761424
 10
5646.939118087154
 20
147.21028376991597
  0
LWPOLYLINE
  5
4E
330
17
100
AcDbEntity
  8
INK
100
AcDbPolyline
 90
22
 70
1
 10
6561.0310129398995
 20
187.2017656054762
 10
6559.8584409641335
 20
192.92951659285862
 10
6552.838175213478
 20
208.6468770931318
 10
6551.663313199051
 20
217.25528306169494
 10
6554.0159228411
 20
224.43776443526397
 10
6555.796333605336
 20
226.61199120418752
 10
6561.680139122885
 20
229.4860981723923
 10
6585.053294686948
 20
232.34041367769166
 10
6586.227696669991
 20
233.77458621826543
 10
6592.147254812274
 20
233.77458621826543
 10
6598.036738707666
 20
230.89770548990197
 10
6599.817149471902
 20
228.72347872097842
 10
6602.17279492079
 20
221.5317290754084
 10
6599.820109602372
 20
214.34901666304017
 10
6595.142952550318
 20
205.78144315474333
 10
6592.801124773355
 20
195.77205284939248
 10
6588.682855299397
 20
190.74284727965195
 10
6578.117072186738
 20
183.5745862182655
 10
6575.794083415739
 20
183.5745862182655
 10
6574.614368400729
 20
182.13392543545038
 10
6562.822556848597
 20
185.01394310842278
 10
6561.0310129398995
 20
187.2017656054762
  0
LWPOLYLINE
  5
4F
330
17
100
AcDbEntity
  8
INK
100
AcDbPolyline
 90
25
 70
1
 10
6512.529326715432
 20
235.003157646837
 10
6506.7030258290915
 20
235.003157646837
 10
6498.474459891549
 20
239.30973245304955
 10
6496.694968431999
 20
241.48283657269553
 10
6494.341263775656
 20
248.6686610082105
 10
6495.519406250317
 20
254.42362263272435
 10
6497.853996919474
 20
258.70010446713354
 10
6497.853996919474
 20
261.5599850330781
 10
6501.372934134925
 20
267.28972459332147
 10
6506.052880149705
 20
280.1487480503817
 10
6511.338785665549
 20
288.03833376443987
 10
6517.283176135745
 20
290.9420351225438
 10
6518.480586867451
 20
289.47976443840327
 10
6525.477095202296
 20
288.0557488857203
 10
6537.206338110253
 20
282.3262769184731
 10
6538.986748874489
 20
280.1520501495498
 10
6541.337166575327
 20
272.97626073908555
 10
6541.337166575327
 20
254.42459152822127
 10
6542.50698197143
 20
252.9960200996497
 10
6542.50698197143
 20
242.94434026887402
 10
6540.156564270593
 20
235.76855085840975
 10
6538.376153506358
 20
233.5943240894862
 10
6532.479358416582
 20
230.713872006723
 10
6513.693460090772
 20
233.5815250673765
 10
6512.529326715432
 20
235.003157646837
  0
LWPOLYLINE
  5
50
330
17
100
AcDbEntity
  8
INK
100
AcDbPolyline
 90
16
 70
1
 10
6425.336229269649
 20
47.19712228698114
 10
6422.985811568812
 20
54.37291169744562
 10
6422.985811568812
 20
84.40483216765682
 10
6425.336229269649
 20
91.5806215781212
 10
6427.116640033885
 20
93.75484834704461
 10
6433.0283952851805
 20
96.64260813301905
 10
6448.299859987717
 20
89.46975445057626
 10
6451.250594166681
 20
85.86633586383552
 10
6453.6010118675185
 20
78.69054645337114
 10
6453.6010118675185
 20
52.92458090830987
 10
6452.431196471415
 20
51.496009479738426
 10
6452.431196471415
 20
48.64418340063115
 10
6447.135115498069
 20
40.7394101006624
 10
6441.217039524741
 20
37.84856278380666
 10
6427.116099979005
 20
45.023555029784056
 10
6425.336229269649
 20
47.19712228698114
  0
LWPOLYLINE
  5
51
330
17
100
AcDbEntity
  8
INK
100
AcDbPolyline
 90
22
 70
1
 10
7119.200487251945
 20
367.87948837038374
 10
7114.188463554134
 20
370.7417185921387
 10
7112.664888322527
 20
372.91689938534313
 10
7110.651482332671
 20
380.1031576468368
 10
7112.664888322527
 20
387.28941590833045
 10
7114.188463554134
 20
389.46459670153513
 10
7119.2902219705375
 20
392.3780719769814
 10
7120.313299035512
 20
390.91744336112265
 10
7126.297020657599
 20
390.91744336112265
 10
7130.299512867817
 20
388.06030050397976
 10
7134.302005078034
 20
388.06030050397976
 10
7138.304497288251
 20
385.20315764683687
 10
7141.299420805833
 20
385.20315764683687
 10
7149.347544959578
 20
380.89434717984096
 10
7150.871946040227
 20
378.71798733690196
 10
7152.884718596277
 20
371.5339899303713
 10
7150.871785121448
 20
362.91250382004426
 10
7146.321969127626
 20
357.8603005039798
 10
7144.328252296816
 20
357.8603005039798
 10
7143.315351094928
 20
356.4141997837456
 10
7125.212135831218
 20
362.15767376228246
 10
7119.200487251945
 20
367.87948837038374
  0
LWPOLYLINE
  5
52
330
17
100
AcDbEntity
  8
INK
100
AcDbPolyline
 90
24
 70
1
 10
6979.114417917179
 20
87.8776241798015
 10
6976.1047527533965
 20
89.30990568066943
 10
6973.578284017476
 20
92.9168993853432
 10
6971.566794221498
 20
100.09631835850874
 10
6972.571694605758
 20
107.26970884681775
 10
6974.580777889736
 20
113.00637255806323
 10
6979.580724304583
 20
120.1447055940692
 10
6980.581347357137
 20
124.43041987978343
 10
6983.106843669519
 20
128.03602527296366
 10
6988.18076440832
 20
130.93360320894465
 10
6995.211536639419
 20
126.63172907540832
 10
6999.210947343119
 20
126.63172907540832
 10
7007.259071496865
 20
122.32291860841227
 10
7008.783472577514
 20
120.14655876547353
 10
7010.795445236637
 20
112.96541635486868
 10
7008.788869576044
 20
101.50640928653642
 10
7006.780355652699
 20
95.77137130703916
 10
7002.781032290406
 20
90.06160969960474
 10
7001.779253645386
 20
85.7709459585212
 10
6996.230023892012
 20
79.28887193255119
 10
6994.234794413667
 20
79.28887193255119
 10
6993.218247357104
 20
77.83756609155745
 10
6986.12084379163
 20
80.73266170931682
 10
6979.114417917179
 20
87.8776241798015
  0
LWPOLYLINE
  5
53
330
17
100
AcDbEntity
  8
INK
100
AcDbPolyline
 90
30
 70
1
 10
6930.5514927576405
 20
85.77404224248608
 10
6928.550246652531
 20
92.9168993853432
 10
6925.550248314575
 20
97.1999427356106
 10
6921.546729754437
 20
108.63144476660635
 10
6914.540678767379
 20
120.06277303944258
 10
6912.538527108018
 20
127.20886229085815
 10
6906.534788792691
 20
138.63743371942948
 10
6904.52313350648
 20
145.81744336112257
 10
6906.536539496336
 20
153.00370162261623
 10
6908.060114727944
 20
155.1788824158208
 10
6913.105738113298
 20
158.0603005039798
 10
6923.19055768231
 20
158.0603005039798
 10
6924.191180734864
 20
156.63172907540834
 10
6931.195542102745
 20
156.63172907540834
 10
6932.196165155298
 20
155.2031576468369
 10
6934.189881986111
 20
155.2031576468369
 10
6938.748168038393
 20
150.14154901471034
 10
6938.748168038393
 20
148.70612452850918
 10
6942.740480289222
 20
143.00637255806325
 10
6946.74297249944
 20
131.5778011294918
 10
6950.747335529362
 20
125.86084447975921
 10
6952.761159670125
 20
118.67309375205582
 10
6948.754398563936
 20
105.80223798743526
 10
6948.754398563936
 20
90.07161933659324
 10
6947.753775511382
 20
88.6430479080218
 10
6947.753775511382
 20
85.79382340914343
 10
6945.228101700249
 20
80.74562108223127
 10
6940.147347348736
 20
77.84414065615775
 10
6933.074783670733
 20
82.17158545796866
 10
6930.5514927576405
 20
85.77404224248608
  0
LWPOLYLINE
  5
54
330
17
100
AcDbEntity
  8
INK
100
AcDbPolyline
 90
23
 70
1
 10
6901.0961775778505
 20
403.57746281922704
 10
6890.083940535145
 20
405.0067329637097
 10
6869.037944905738
 20
417.8840131879489
 10
6861.511535900156
 20
427.19662209295194
 10
6860.502482080306
 20
430.0778378579646
 10
6859.496529472269
 20
435.8225592120115
 10
6861.508502131393
 20
443.0037016226163
 10
6863.032077363
 20
445.1788824158209
 10
6868.077700748353
 20
448.0603005039798
 10
6881.06029555801
 20
448.0603005039798
 10
6882.062616999676
 20
449.4912966919571
 10
6913.160948650931
 20
448.05908619329495
 10
6918.211279281282
 20
445.1749799257283
 10
6920.732579239868
 20
440.1355198570247
 10
6923.733024611311
 20
424.42868742677086
 10
6924.745080683169
 20
422.9837932833875
 10
6923.734300100279
 20
417.2115006799502
 10
6919.2092464447305
 20
409.31553294773005
 10
6914.195648217505
 20
406.4524035551111
 10
6910.173847803697
 20
402.14601478969405
 10
6908.181211893995
 20
402.14601478969405
 10
6907.161931760824
 20
400.6908069846744
 10
6901.0961775778505
 20
403.57746281922704
  0
LWPOLYLINE
  5
55
330
17
100
AcDbEntity
  8
INK
100
AcDbPolyline
 90
21
 70
1
 10
7753.054991626502
 20
357.8603005039798
 10
7748.135621716642
 20
367.221338944129
 10
7748.135621716642
 20
371.5032028340941
 10
7747.248387915495
 20
372.93177426266544
 10
7747.248387915495
 20
382.98882674529386
 10
7748.135621716642
 20
384.4173981738654
 10
7748.135621716642
 20
388.70311245957964
 10
7752.172563576029
 20
395.20315764683687
 10
7754.834264979471
 20
395.20315764683687
 10
7755.721498780619
 20
396.6317290754082
 10
7762.9305896813585
 20
396.6317290754082
 10
7763.817823482506
 20
395.20315764683687
 10
7766.47952488595
 20
395.20315764683687
 10
7770.5164667453355
 20
388.70311245957964
 10
7770.5164667453355
 20
384.4173981738654
 10
7771.421417158343
 20
382.9603005039797
 10
7770.5164667453355
 20
381.5032028340941
 10
7770.5164667453355
 20
377.2279883298439
 10
7767.844983792822
 20
370.0588817333266
 10
7760.268888277916
 20
357.8603005039798
 10
7753.054991626502
 20
357.8603005039798
  0
LWPOLYLINE
  5
56
330
17
100
AcDbEntity
  8
INK
100
AcDbPolyline
 90
37
 70
1
 10
7546.322204601851
 20
312.1606517110922
 10
7535.199509441192
 20
332.93521509429456
 10
7535.199509441192
 20
337.21748854837983
 10
7534.294559028184
 20
338.6745862182654
 10
7535.199509441192
 20
340.1316838881512
 10
7535.199509441192
 20
344.4173981738654
 10
7539.236451300577
 20
350.91744336112265
 10
7541.8981527040205
 20
350.91744336112265
 10
7542.785386505168
 20
352.346014789694
 10
7554.345619909695
 20
352.346014789694
 10
7558.781788915434
 20
355.20315764683687
 10
7561.41729632927
 20
355.20315764683687
 10
7562.309770987009
 20
356.64016759294225
 10
7572.180155455848
 20
355.19537580167173
 10
7573.062556235749
 20
353.77458621826554
 10
7576.61149144034
 20
353.77458621826554
 10
7577.498725241488
 20
352.346014789694
 10
7580.160426644931
 20
352.346014789694
 10
7581.057636930641
 20
350.9013798153191
 10
7585.493805936379
 20
349.47280838674754
 10
7593.069706515793
 20
337.2745410310083
 10
7593.069706515793
 20
332.98882674529386
 10
7593.974656928801
 20
331.5317290754083
 10
7593.069706515793
 20
330.0746314055227
 10
7593.069706515793
 20
325.7889171198083
 10
7589.032764656408
 20
319.2888719325513
 10
7586.371063252965
 20
319.2888719325513
 10
7585.483829451818
 20
317.8603005039797
 10
7578.3859590426355
 20
317.8603005039797
 10
7577.498725241488
 20
316.4317290754084
 10
7560.641283019681
 20
316.4317290754084
 10
7559.7540492185335
 20
315.0031576468368
 10
7557.092347815091
 20
315.0031576468368
 10
7555.317880212795
 20
312.14601478969416
 10
7552.656178809352
 20
312.14601478969416
 10
7551.759117173983
 20
310.7016191633125
 10
7546.322204601851
 20
312.1606517110922
  0
LWPOLYLINE
  5
57
330
17
100
AcDbEntity
  8
INK
100
AcDbPolyline
 90
39
 70
1
 10
7544.559854107463
 20
159.28887193255125
 10
7542.785386505168
 20
162.14601478969405
 10
7540.123685101725
 20
162.14601478969405
 10
7536.090211786207
 20
168.6404751326168
 10
7535.195916266483
 20
175.84018408488834
 10
7536.08674324234
 20
177.27454103100825
 10
7536.08674324234
 20
181.5602553167226
 10
7540.123685101725
 20
188.06030050397982
 10
7542.785386505168
 20
188.06030050397982
 10
7545.438602778209
 20
192.332352534216
 10
7550.762005585096
 20
193.76092396278733
 10
7554.721147544654
 20
200.13570034953722
 10
7555.608381345802
 20
210.13570034953722
 10
7556.493120668737
 20
211.56025531672262
 10
7556.493120668737
 20
225.84596960243687
 10
7557.380354469885
 20
227.2745410310082
 10
7557.380354469885
 20
231.56025531672242
 10
7564.078997732714
 20
242.3460147896941
 10
7566.740699136157
 20
242.3460147896941
 10
7567.683543183084
 20
243.8641265492958
 10
7568.626387230011
 20
242.3460147896941
 10
7571.288088633453
 20
242.3460147896941
 10
7575.325030492839
 20
235.84596960243687
 10
7575.325030492839
 20
232.98882674529398
 10
7580.648433299725
 20
224.4173981738653
 10
7580.648433299725
 20
221.56025531672265
 10
7583.306666159301
 20
217.28012587534252
 10
7584.200961679025
 20
210.08041692307123
 10
7583.310134703169
 20
208.64605997695128
 10
7583.310134703169
 20
204.36034569123706
 10
7580.640137796419
 20
200.06127447638679
 10
7577.978436392976
 20
191.48984590495832
 10
7573.958275167299
 20
185.0168199023149
 10
7563.311469553526
 20
182.159677045172
 10
7559.3548220721805
 20
175.7889171198084
 10
7559.3548220721805
 20
172.9404168596268
 10
7557.56961926407
 20
168.62877478302886
 10
7551.768945008204
 20
159.28887193255125
 10
7544.559854107463
 20
159.28887193255125
  0
LWPOLYLINE
  5
58
330
17
100
AcDbEntity
  8
INK
100
AcDbPolyline
 90
62
 70
1
 10
8361.152314603893
 20
306.4317290754084
 10
8356.720654510582
 20
311.49414248993713
 10
8356.720654510582
 20
314.35128534708
 10
8355.437173010894
 20
315.81744336112274
 10
8356.720654510582
 20
317.2836013751652
 10
8356.720654510582
 20
320.14074423230807
 10
8361.152314603893
 20
325.2031576468368
 10
8363.653470662097
 20
325.2031576468368
 10
8364.928018289182
 20
326.6591102399876
 10
8369.97826960156
 20
323.7745862182655
 10
8373.658094894916
 20
323.7745862182655
 10
8374.908672924019
 20
325.2031576468368
 10
8377.409828982223
 20
325.2031576468368
 10
8381.738539588017
 20
330.1479688861899
 10
8382.98911761712
 20
337.290826029047
 10
8388.665031244145
 20
343.7745862182655
 10
8391.166187302348
 20
343.7745862182655
 10
8399.240307500062
 20
352.9978870894508
 10
8399.240307500062
 20
355.8550299465937
 10
8403.671967593371
 20
360.91744336112265
 10
8406.173123651577
 20
360.91744336112265
 10
8407.447671278664
 20
362.3733959542732
 10
8412.49792259104
 20
359.4888719325513
 10
8414.927169855293
 20
359.4888719325513
 10
8416.177747884396
 20
360.91744336112265
 10
8418.6789039426
 20
360.91744336112265
 10
8423.009102165744
 20
365.86395394877025
 10
8424.259680194848
 20
371.578239663056
 10
8428.67307359587
 20
376.61978650701644
 10
8433.67538571228
 20
378.048357935588
 10
8448.677044211438
 20
395.185186037762
 10
8454.980279549925
 20
398.06533320253743
 10
8461.29780420315
 20
396.6219950007024
 10
8473.212397983818
 20
383.01161015305405
 10
8475.725567275307
 20
375.83444535118883
 10
8475.725567275307
 20
370.0861556567707
 10
8473.212397983818
 20
362.9089908549055
 10
8460.038704920074
 20
347.8603005039798
 10
8457.537548861872
 20
347.8603005039798
 10
8452.535236745462
 20
342.146014789694
 10
8450.034080687257
 20
342.146014789694
 10
8445.031768570849
 20
336.43172907540844
 10
8442.530612512643
 20
336.43172907540844
 10
8440.03797770841
 20
333.58432029297137
 10
8433.785087562897
 20
332.1557488643998
 10
8432.505429899005
 20
330.6939589285085
 10
8423.75138369529
 20
334.9796732142227
 10
8422.521364047005
 20
333.5745862182655
 10
8420.023739478887
 20
333.5745862182655
 10
8410.025048136054
 20
320.72506783679745
 10
8401.246868994987
 20
319.2925581579604
 10
8392.471601194778
 20
314.9964544252255
 10
8387.403998635493
 20
316.44367164380014
 10
8384.913297156838
 20
319.2888719325513
 10
8382.412141098632
 20
319.2888719325513
 10
8381.206926078079
 20
320.66562388531383
 10
8380.001711057525
 20
319.2888719325513
 10
8377.500554999318
 20
319.2888719325513
 10
8373.178168888913
 20
314.35128534708
 10
8373.178168888913
 20
311.49414248993713
 10
8368.746508795602
 20
306.4317290754084
 10
8361.152314603893
 20
306.4317290754084
  0
LWPOLYLINE
  5
59
330
17
100
AcDbEntity
  8
INK
100
AcDbPolyline
 90
18
 70
1
 10
8356.14512222589
 20
226.43730393928152
 10
8351.718342394171
 20
231.49414248993705
 10
8351.718342394171
 20
234.35128534708016
 10
8350.434860894484
 20
235.81744336112266
 10
8351.718342394171
 20
237.28360137516512
 10
8351.718342394171
 20
240.140744232308
 10
8356.131185264338
 20
245.18166218895686
 10
8363.698833670645
 20
249.50403394151556
 10
8371.266482076953
 20
245.18166218895686
 10
8375.679324947117
 20
240.140744232308
 10
8375.679324947117
 20
237.28360137516512
 10
8376.962806446805
 20
235.81744336112266
 10
8375.679324947117
 20
234.35128534708016
 10
8375.679324947117
 20
231.49414248993705
 10
8371.247664853809
 20
226.43172907540833
 10
8368.746508795602
 20
226.43172907540833
 10
8367.490762374064
 20
224.99725364277379
 10
8356.14512222589
 20
226.43730393928152
  0
LWPOLYLINE
  5
5A
330
17
100
AcDbEntity
  8
INK
100
AcDbPolyline
 90
26
 70
1
 10
8281.11532074134
 20
492.1460147896939
 10
8276.68366064803
 20
497.20842820422286
 10
8276.68366064803
 20
500.06557106136574
 10
8275.424608498335
 20
501.5038227228197
 10
8277.94205078987
 20
513.0068110916275
 10
8284.867054828646
 20
520.9174433611225
 10
8287.368210886852
 20
520.9174433611225
 10
8288.618788915954
 20
522.3460147896941
 10
8292.389340226408
 20
522.3460147896941
 10
8297.391652342816
 20
525.2031576468368
 10
8303.716451282278
 20
525.2031576468368
 10
8304.967029311381
 20
523.7745862182654
 10
8307.468185369586
 20
523.7745862182654
 10
8311.899845462896
 20
518.7121728037367
 10
8311.899845462896
 20
515.8550299465936
 10
8313.183326962584
 20
514.3888719325511
 10
8311.899845462896
 20
512.9227139185086
 10
8311.899845462896
 20
510.06557106136574
 10
8307.468185369586
 20
505.00315764683677
 10
8304.967029311381
 20
505.00315764683677
 10
8302.465873253179
 20
502.1460147896941
 10
8299.964717194973
 20
502.1460147896941
 10
8297.463561136768
 20
499.288871932551
 10
8294.962405078562
 20
499.288871932551
 10
8288.70951493305
 20
492.1460147896939
 10
8281.11532074134
 20
492.1460147896939
  0
LWPOLYLINE
  5
5B
330
17
100
AcDbEntity
  8
INK
100
AcDbPolyline
 90
22
 70
1
 10
8267.352752899787
 20
152.1531081054961
 10
8262.927302327904
 20
157.20842820422288
 10
8262.927302327904
 20
160.06557106136566
 10
8261.676724298803
 20
161.4941424899371
 10
8261.676724298803
 20
174.4264585180225
 10
8262.927302327904
 20
175.85502994659385
 10
8262.927302327904
 20
178.71217280373673
 10
8267.358962421215
 20
183.77458621826548
 10
8269.860118479419
 20
183.77458621826548
 10
8271.15605951707
 20
185.25497712264593
 10
8272.45200055472
 20
183.77458621826548
 10
8274.953156612924
 20
183.77458621826548
 10
8279.384816706235
 20
178.71217280373673
 10
8279.384816706235
 20
175.84448907287918
 10
8284.381445299181
 20
167.28279918113952
 10
8285.646180972339
 20
161.5038227228197
 10
8284.387128822644
 20
160.06557106136566
 10
8284.387128822644
 20
157.20842820422288
 10
8279.955468729335
 20
152.14601478969402
 10
8277.45431267113
 20
152.14601478969402
 10
8276.19705103096
 20
150.70980847902206
 10
8267.352752899787
 20
152.1531081054961
  0
LWPOLYLINE
  5
5C
330
17
100
AcDbEntity
  8
INK
100
AcDbPolyline
 90
38
 70
1
 10
8228.584833997615
 20
207.86739381978214
 10
8224.159383425731
 20
212.92271391850858
 10
8224.159383425731
 20
215.7859091978238
 10
8219.157071309322
 20
222.92876634068094
 10
8219.157071309322
 20
225.7798567756515
 10
8216.655915251116
 20
228.63699963279439
 10
8216.655915251116
 20
231.49414248993705
 10
8212.911993276548
 20
235.77093277347495
 10
8211.661415247445
 20
241.48521848776073
 10
8209.152447076502
 20
244.35128534707994
 10
8209.152447076502
 20
247.20842820422286
 10
8207.868965576814
 20
248.67458621826555
 10
8209.152447076502
 20
250.14074423230804
 10
8209.152447076502
 20
252.99788708945093
 10
8216.085263228017
 20
260.91744336112254
 10
8218.586419286223
 20
260.91744336112254
 10
8221.077120764876
 20
263.76264364987367
 10
8231.081744997697
 20
266.61978650701656
 10
8232.354650062038
 20
268.07386275326814
 10
8237.446270319402
 20
266.61978650701656
 10
8241.849020774058
 20
261.5903974083091
 10
8244.36863189137
 20
257.2730605014504
 10
8244.36863189137
 20
254.42040609585015
 10
8249.370944007778
 20
247.27754895299282
 10
8249.370944007778
 20
244.42645851802226
 10
8251.872100065983
 20
241.56931566087957
 10
8251.872100065983
 20
238.71217280373668
 10
8255.62383415329
 20
234.42645851802246
 10
8255.62383415329
 20
231.56931566087934
 10
8256.907315652978
 20
230.10315764683688
 10
8255.62383415329
 20
228.63699963279439
 10
8255.62383415329
 20
215.77985677565147
 10
8254.373256124189
 20
214.35128534708014
 10
8254.373256124189
 20
211.49414248993725
 10
8249.941596030878
 20
206.4317290754083
 10
8247.440439972672
 20
206.4317290754083
 10
8246.183178332505
 20
204.99552276473642
 10
8228.584833997615
 20
207.86739381978214
  0
LWPOLYLINE
  5
5D
330
17
100
AcDbEntity
  8
INK
100
AcDbPolyline
 90
27
 70
1
 10
8154.806939802001
 20
429.28887193255116
 10
8152.305783743797
 20
432.14601478969405
 10
8149.804627685592
 20
432.14601478969405
 10
8147.294950373414
 20
435.01289172154276
 10
8141.042060227902
 20
436.44146315011415
 10
8138.549425423671
 20
439.28887193255116
 10
8136.059890051009
 20
439.28887193255116
 10
8132.273293907073
 20
442.1725640796401
 10
8126.620621651135
 20
448.62977497891256
 10
8125.370043622032
 20
455.7726321217697
 10
8124.113141097542
 20
457.2084282042228
 10
8124.113141097542
 20
464.409798639613
 10
8126.614297155746
 20
470.1240843538985
 10
8126.614297155746
 20
472.9978870894509
 10
8138.530608200525
 20
486.6102336175282
 10
8146.085225839864
 20
490.92516265921637
 10
8151.156386311341
 20
489.47692936415945
 10
8155.571267329712
 20
484.43368317190425
 10
8156.821845358815
 20
477.2908260290469
 10
8165.582216057919
 20
467.2836013751651
 10
8165.582216057919
 20
464.42645851802246
 10
8166.830878396931
 20
463.0000754376114
 10
8168.085325221664
 20
438.63923072170394
 10
8166.832794087021
 20
437.208428204223
 10
8166.832794087021
 20
434.3512853470799
 10
8162.4011339937115
 20
429.28887193255116
 10
8154.806939802001
 20
429.28887193255116
  0
LWPOLYLINE
  5
5E
330
17
100
AcDbEntity
  8
INK
100
AcDbPolyline
 90
31
 70
1
 10
9070.308731421967
 20
137.8661339122952
 10
9065.692081691248
 20
142.92151022590204
 10
9065.692081691248
 20
145.77865308304482
 10
9064.372750189421
 20
147.22336247473822
 10
9066.996675749513
 20
154.4065645253997
 10
9066.996675749513
 20
170.14194792491466
 10
9068.30126980778
 20
171.5705193534861
 10
9068.30126980778
 20
174.427662210629
 10
9072.913026135293
 20
179.47768009418408
 10
9083.353760276621
 20
182.33591296614725
 10
9092.487929386407
 20
190.90922877903392
 10
9099.069583017394
 20
192.3506522272569
 10
9112.126111053658
 20
186.63172907540837
 10
9122.586025538132
 20
186.63172907540837
 10
9123.890619596397
 20
185.20315764683693
 10
9126.499807712928
 20
185.20315764683693
 10
9132.419590493357
 20
178.72080975487194
 10
9133.738255240238
 20
171.50091338433737
 10
9132.426378662793
 20
170.06436736875918
 10
9132.426378662793
 20
167.2072245116163
 10
9127.810456426934
 20
162.15264482771008
 10
9118.655232226442
 20
160.72046514675597
 10
9108.250112847358
 20
156.44774056961975
 10
9102.412338067124
 20
150.05519401106494
 10
9101.10774400886
 20
144.34090829677925
 10
9096.494144372818
 20
139.28887193255125
 10
9093.884956256288
 20
139.28887193255125
 10
9092.580362198023
 20
137.8603005039798
 10
9082.143609731897
 20
137.8603005039798
 10
9080.833358507132
 20
136.42553430058302
 10
9070.308731421967
 20
137.8661339122952
  0
LWPOLYLINE
  5
5F
330
17
100
AcDbEntity
  8
INK
100
AcDbPolyline
 90
22
 70
1
 10
9057.260508172512
 20
283.582919218351
 10
9051.341547050326
 20
290.0643673687593
 10
9051.341547050326
 20
292.9215102259022
 10
9050.01852410774
 20
294.37026186105464
 10
9056.565607999935
 20
308.70878644591414
 10
9060.482484806944
 20
323.0057964628701
 10
9067.69986854979
 20
332.3460147896939
 10
9070.314058582846
 20
332.3460147896939
 10
9071.62624590213
 20
333.7829010773381
 10
9087.368996324467
 20
330.9097667974972
 10
9091.98396285656
 20
325.8562336392001
 10
9091.98396285656
 20
322.99909078205746
 10
9093.297700120052
 20
321.56050725687146
 10
9091.977834843337
 20
315.77933168908845
 10
9086.765586623496
 20
307.21796866779937
 10
9086.765586623496
 20
304.3500816544735
 10
9084.146481037571
 20
301.48207885715925
 10
9080.232698862774
 20
287.19636457144503
 10
9075.62063944057
 20
282.14601478969394
 10
9073.011451324039
 20
282.14601478969394
 10
9071.698555665756
 20
280.7083528486225
 10
9057.260508172512
 20
283.582919218351
  0
LWPOLYLINE
  5
60
330
17
100
AcDbEntity
  8
INK
100
AcDbPolyline
 90
37
 70
1
 10
8978.985464144751
 20
2.1536913533196644
 10
8974.370497612657
 20
7.2072245116163725
 10
8974.370497612657
 20
10.064367368759154
 10
8973.06590355439
 20
11.492938797330599
 10
8973.06590355439
 20
22.9419180665138
 10
8966.534603742692
 20
40.10666581617017
 10
8969.152121379593
 20
45.83919370278877
 10
8969.152121379593
 20
48.713376496343216
 10
8973.763877707108
 20
53.76339437989841
 10
8984.200630173234
 20
56.620537237041304
 10
8991.33022037011
 20
64.4276622106289
 10
8991.33022037011
 20
67.28480506777179
 10
8996.548596603172
 20
72.99909078205758
 10
8996.548596603172
 20
75.85623363920035
 10
9001.155132149206
 20
80.90053460321967
 10
9007.763164808957
 20
83.7949358453458
 10
9009.086342469025
 20
82.34601478969405
 10
9011.695530585555
 20
82.34601478969405
 10
9016.317507477157
 20
77.2848050677718
 10
9016.317507477157
 20
74.42766221062891
 10
9017.62210153542
 20
72.99909078205758
 10
9017.62210153542
 20
65.85623363920034
 10
9018.926695593686
 20
64.4276622106289
 10
9018.926695593686
 20
47.207224511616296
 10
9017.62210153542
 20
45.778653083044965
 10
9017.62210153542
 20
42.92151022590207
 10
9013.008444705194
 20
37.86941123224441
 10
9006.485474413867
 20
36.440839803672965
 10
9000.650246489007
 20
30.05108213166674
 10
8996.756110782748
 20
18.679880035107455
 10
8998.063122039714
 20
15.817443361122674
 10
8995.444002544906
 20
10.08140730517082
 10
8995.444002544906
 20
7.2072245116163725
 10
8990.822025653306
 20
2.1460147896941173
 10
8988.212837536776
 20
2.1460147896941173
 10
8986.90065021749
 20
0.7091285020500715
 10
8978.985464144751
 20
2.1536913533196644
  0
LWPOLYLINE
  5
61
330
17
100
AcDbEntity
  8
INK
100
AcDbPolyline
 90
45
 70
1
 10
8911.153583474446
 20
467.8603005039799
 10
8906.539106904986
 20
472.9132971378187
 10
8903.929918788455
 20
485.77043999496163
 10
8898.10764289179
 20
492.1460147896939
 10
8895.49845477526
 20
492.1460147896939
 10
8892.889266658727
 20
495.003157646837
 10
8890.280078542195
 20
495.003157646837
 10
8883.048913534065
 20
502.9215102259021
 10
8883.048913534065
 20
505.778653083045
 10
8881.708895579392
 20
507.246014789694
 10
8883.048913534065
 20
508.71337649634296
 10
8883.048913534065
 20
511.5705193534861
 10
8887.670890425665
 20
516.6317290754083
 10
8890.280078542195
 20
516.6317290754083
 10
8891.628774912793
 20
518.1085939197974
 10
8892.977471283388
 20
516.6317290754083
 10
8895.568141023514
 20
516.6317290754083
 10
8900.823554009386
 20
513.7543080150431
 10
8906.023411866045
 20
508.0603005039799
 10
8908.614081606169
 20
508.0603005039799
 10
8921.613564689987
 20
500.9428795705937
 10
8922.894929998834
 20
502.3460147896941
 10
8925.504118115367
 20
502.3460147896941
 10
8931.331738183462
 20
508.7274416198293
 10
8933.940926299992
 20
515.8702987626864
 10
8938.550058698022
 20
520.9174433611225
 10
8941.159246814554
 20
520.9174433611225
 10
8942.463840872819
 20
522.3460147896941
 10
8959.511768254932
 20
522.3460147896941
 10
8960.823372672705
 20
520.9097667974971
 10
8968.650937022298
 20
519.4811953689256
 10
8973.24783642319
 20
514.4474462861932
 10
8977.174077009526
 20
507.28185189075737
 10
8978.48887542487
 20
501.52286981172665
 10
8971.946956934324
 20
485.7629365775249
 10
8967.339332604526
 20
480.71744336112255
 10
8964.730144487996
 20
480.71744336112255
 10
8963.425550429729
 20
479.2888719325512
 10
8941.159246814554
 20
479.2888719325512
 10
8939.854652756288
 20
480.71744336112255
 10
8932.115293031355
 20
480.71744336112255
 10
8930.81069897309
 20
479.2888719325512
 10
8928.205506183622
 20
479.2888719325512
 10
8919.073347775762
 20
467.8603005039799
 10
8911.153583474446
 20
467.8603005039799
  0
LWPOLYLINE
  5
62
330
17
100
AcDbEntity
  8
INK
100
AcDbPolyline
 90
34
 70
1
 10
8890.273277182041
 20
385.0139955621981
 10
8881.7443194758
 20
392.9166293586157
 10
8881.7443194758
 20
395.77865308304496
 10
8880.439725417535
 20
397.2072245116165
 10
8880.439725417535
 20
408.63579594018785
 10
8879.135131359268
 20
410.0643673687592
 10
8879.135131359268
 20
434.4276622106287
 10
8880.439725417535
 20
435.85623363920024
 10
8880.439725417535
 20
438.71337649634313
 10
8885.061702309134
 20
443.77458621826537
 10
8887.670890425665
 20
443.77458621826537
 10
8888.97548448393
 20
445.2031576468369
 10
8908.614081606169
 20
445.2031576468369
 10
8913.832457839233
 20
442.34601478969404
 10
8916.460164332168
 20
442.34601478969404
 10
8921.082141223767
 20
437.2848050677718
 10
8921.082141223767
 20
434.4276622106287
 10
8922.394017801213
 20
432.99111619505084
 10
8921.075353054332
 20
425.77121982451604
 10
8916.468484393541
 20
420.72655408938743
 10
8909.945514102214
 20
419.2979826608159
 10
8905.42701252458
 20
414.3500816544734
 10
8905.42701252458
 20
411.49293879733074
 10
8904.157842362723
 20
410.1031576468368
 10
8905.42701252458
 20
408.7133764963431
 10
8905.42701252458
 20
405.8562336392002
 10
8913.246199618614
 20
397.2939784254661
 10
8914.568314137668
 20
391.5029508939452
 10
8913.254576874173
 20
390.0643673687594
 10
8913.254576874173
 20
387.2072245116163
 10
8908.632599982575
 20
382.146014789694
 10
8906.023411866045
 20
382.146014789694
 10
8904.706235876452
 20
380.7036657515317
 10
8890.273277182041
 20
385.0139955621981
  0
LWPOLYLINE
  5
63
330
17
100
AcDbEntity
  8
INK
100
AcDbPolyline
 90
25
 70
1
 10
8847.213535117247
 20
213.59094544192004
 10
8844.6192865029
 20
216.4317290754083
 10
8842.010098386369
 20
216.4317290754083
 10
8836.083527436505
 20
222.92151022590213
 10
8836.083527436505
 20
225.77865308304501
 10
8834.760504493917
 20
227.22740471819748
 10
8837.38812149477
 20
232.98205084564594
 10
8837.38812149477
 20
235.85623363920027
 10
8843.314692444634
 20
242.3460147896941
 10
8845.923880561166
 20
242.3460147896941
 10
8847.25170336885
 20
243.80002242773656
 10
8852.51653710075
 20
240.91744336112254
 10
8855.144243593686
 20
240.91744336112254
 10
8857.763652274303
 20
238.04910866561292
 10
8868.200404740426
 20
235.19196580847
 10
8872.81216106794
 20
230.1419479249145
 10
8872.81216106794
 20
227.2848050677716
 10
8874.116755126206
 20
225.85623363920027
 10
8874.116755126206
 20
217.20722451161635
 10
8872.81216106794
 20
215.77865308304501
 10
8872.81216106794
 20
212.92151022590213
 10
8868.190184176343
 20
207.86030050397986
 10
8865.58099605981
 20
207.86030050397986
 10
8864.258540495666
 20
206.41217016602263
 10
8847.213535117247
 20
213.59094544192004
  0
LWPOLYLINE
  5
64
330
17
100
AcDbEntity
  8
INK
100
AcDbPolyline
 90
29
 70
1
 10
9534.242497497553
 20
515.0249481770406
 10
9532.757104323699
 20
517.2035310484415
 10
9530.797471492433
 20
524.3888719325512
 10
9532.757104323699
 20
531.5742128166607
 10
9534.237241427782
 20
533.7450867637352
 10
9544.002718082971
 20
540.9064567452785
 10
9551.788052038057
 20
543.7610873409398
 10
9554.712612664216
 20
546.6206658905428
 10
9559.585387783449
 20
548.0500173373923
 10
9564.455503757048
 20
552.3357316231065
 10
9569.312568085856
 20
553.7604745582822
 10
9570.310333988838
 20
555.2238687250017
 10
9574.301426326707
 20
553.7604640254066
 10
9577.744052571174
 20
550.1538929068035
 10
9579.706824229801
 20
542.9570429561983
 10
9577.754237129877
 20
537.2294377864872
 10
9577.754237129877
 20
530.0723106934853
 10
9576.780213935157
 20
528.6437392649137
 10
9576.780213935157
 20
525.7943872228063
 10
9574.321827064856
 20
520.7464851119978
 10
9569.408832894018
 20
517.8641869740297
 10
9559.69272013474
 20
516.4391530364471
 10
9558.713635162847
 20
515.003157646837
 10
9553.843519189248
 20
515.003157646837
 10
9552.869495994528
 20
513.5745862182655
 10
9548.97340321565
 20
513.5745862182655
 10
9547.996544808057
 20
512.1418564656133
 10
9538.666557886672
 20
512.8620680374186
 10
9534.242497497553
 20
515.0249481770406
  0
LWPOLYLINE
  5
65
330
17
100
AcDbEntity
  8
INK
100
AcDbPolyline
 90
18
 70
1
 10
9523.016739635374
 20
182.9192911535713
 10
9520.082960721691
 20
192.9593631956159
 10
9522.042849181782
 20
200.14564138808933
 10
9523.525978121792
 20
202.320903373711
 10
9528.438897523225
 20
205.20315764683693
 10
9557.713929911426
 20
205.20315764683693
 10
9562.62684931286
 20
202.320903373711
 10
9564.10997825287
 20
200.14564138808933
 10
9566.069611084136
 20
192.9603005039797
 10
9564.10997825287
 20
185.77495961987
 10
9561.650561884297
 20
182.16780531989764
 10
9552.88435313182
 20
177.8820910341834
 10
9548.99351642271
 20
172.17551424422462
 10
9541.161104450832
 20
166.43172907540838
 10
9539.233171268454
 20
166.43172907540838
 10
9538.240151477376
 20
164.97529589267813
 10
9532.29224172276
 20
167.88317118121577
 10
9523.016739635374
 20
182.9192911535713
  0
LWPOLYLINE
  5
66
330
17
100
AcDbEntity
  8
INK
100
AcDbPolyline
 90
39
 70
1
 10
9418.796390541489
 20
485.7749596198702
 10
9416.838575594595
 20
492.95363490892987
 10
9417.817514509105
 20
500.1325407664452
 10
9420.270413555587
 20
505.1691745135221
 10
9428.108939617452
 20
510.91744336112254
 10
9430.053359413949
 20
510.91744336112254
 10
9436.871521776986
 20
516.6317290754083
 10
9438.818197021434
 20
516.6317290754083
 10
9443.688312995033
 20
520.9174433611225
 10
9445.63635938447
 20
520.9174433611225
 10
9450.491078216819
 20
525.189608123873
 10
9461.202811437573
 20
529.4743136382441
 10
9464.128455555281
 20
532.3349516048286
 10
9469.005665109995
 20
533.7656038231313
 10
9476.810099353439
 20
539.488871932551
 10
9479.712055730537
 20
539.488871932551
 10
9480.708941383346
 20
540.9509750619992
 10
9485.67901693
 20
538.0351890879966
 10
9487.162145870012
 20
535.859927102375
 10
9489.121778701277
 20
528.6745862182654
 10
9487.160485907862
 20
521.4831587889029
 10
9482.751518262745
 20
516.4536554202194
 10
9477.886831372241
 20
513.5996976342485
 10
9474.96249755424
 20
509.3106624627548
 10
9469.118358385922
 20
506.4535196056119
 10
9464.248242412323
 20
499.3106624627546
 10
9461.328496904467
 20
497.8832272525071
 10
9452.56441648145
 20
483.6009813654372
 10
9447.635464785524
 20
480.7093214527045
 10
9442.79367258713
 20
482.1295845501759
 10
9441.830851796478
 20
480.71744336112255
 10
9437.934759017598
 20
480.71744336112255
 10
9436.960735822879
 20
479.2888719325512
 10
9434.90698877343
 20
479.2888719325512
 10
9433.932965578711
 20
480.71744336112255
 10
9432.090619849281
 20
480.71744336112255
 10
9431.105394250493
 20
479.27244169303293
 10
9421.261042488457
 20
482.1601264496773
 10
9418.796390541489
 20
485.7749596198702
  0
ENDSEC
  0
SECTION
  2
OBJECTS
  0
DICTIONARY
  5
A
330
0
100
AcDbDictionary
281
1
  3
ACAD_COLOR
350
B
  3
ACAD_GROUP
350
C
  3
ACAD_LAYOUT
350
D
  3
ACAD_MATERIAL
350
E
  3
ACAD_MLEADERSTYLE
350
F
  3
ACAD_MLINESTYLE
350
10
  3
ACAD_PLOTSETTINGS
350
11
  3
ACAD_PLOTSTYLENAME
350
12
  3
ACAD_SCALELIST
350
14
  3
ACAD_TABLESTYLE
350
15
  3
ACAD_VISUALSTYLE
350
16
  3
EZDXF_META
350
2D
  0
DICTIONARY
  5
B
330
A
100
AcDbDictionary
281
1
  0
DICTIONARY
  5
C
330
A
100
AcDbDictionary
281
1
  0
DICTIONARY
  5
D
330
A
100
AcDbDictionary
281
1
  3
Model
350
1A
  3
Layout1
350
1E
  0
DICTIONARY
  5
E
330
A
100
AcDbDictionary
281
1
  3
ByBlock
350
1F
  3
ByLayer
350
20
  3
Global
350
21
  0
DICTIONARY
  5
F
330
A
100
AcDbDictionary
281
1
  3
Standard
350
2C
  0
DICTIONARY
  5
10
330
A
100
AcDbDictionary
281
1
  3
Standard
350
22
  0
DICTIONARY
  5
11
330
A
100
AcDbDictionary
281
1
  0
ACDBDICTIONARYWDFLT
  5
12
330
A
100
AcDbDictionary
281
1
  3
Normal
350
13
100
AcDbDictionaryWithDefault
340
13
  0
ACDBPLACEHOLDER
  5
13
330
12
  0
DICTIONARY
  5
14
330
A
100
AcDbDictionary
281
1
  0
DICTIONARY
  5
15
330
A
100
AcDbDictionary
281
1
  0
DICTIONARY
  5
16
330
A
100
AcDbDictionary
281
1
  0
LAYOUT
  5
1A
330
D
100
AcDbPlotSettings
  1

  4
A3
  6

 40
7.5
 41
20.0
 42
7.5
 43
20.0
 44
420.0
 45
297.0
 46
0.0
 47
0.0
 48
0.0
 49
0.0
140
0.0
141
0.0
142
1.0
143
1.0
 70
1024
 72
1
 73
0
 74
5
  7

 75
16
 76
0
 77
2
 78
300
147
1.0
148
0.0
149
0.0
100
AcDbLayout
  1
Model
 70
1
 71
0
 10
0.0
 20
0.0
 11
420.0
 21
297.0
 12
0.0
 22
0.0
 32
0.0
 14
1e+20
 24
1e+20
 34
1e+20
 15
-1e+20
 25
-1e+20
 35
-1e+20
146
0.0
 13
0.0
 23
0.0
 33
0.0
 16
1.0
 26
0.0
 36
0.0
 17
0.0
 27
1.0
 37
0.0
 76
1
330
17
  0
LAYOUT
  5
1E
330
D
100
AcDbPlotSettings
  1

  4
A3
  6

 40
7.5
 41
20.0
 42
7.5
 43
20.0
 44
420.0
 45
297.0
 46
0.0
 47
0.0
 48
0.0
 49
0.0
140
0.0
141
0.0
142
1.0
143
1.0
 70
0
 72
1
 73
0
 74
5
  7

 75
16
 76
0
 77
2
 78
300
147
1.0
148
0.0
149
0.0
100
AcDbLayout
  1
Layout1
 70
1
 71
1
 10
0.0
 20
0.0
 11
420.0
 21
297.0
 12
0.0
 22
0.0
 32
0.0
 14
1e+20
 24
1e+20
 34
1e+20
 15
-1e+20
 25
-1e+20
 35
-1e+20
146
0.0
 13
0.0
 23
0.0
 33
0.0
 16
1.0
 26
0.0
 36
0.0
 17
0.0
 27
1.0
 37
0.0
 76
1
330
1B
  0
MATERIAL
  5
1F
102
{ACAD_REACTORS
330
E
102
}
330
E
100
AcDbMaterial
  1
ByBlock
  2

 70
0
 40
1.0
 71
1
 41
1.0
 91
-1023410177
 42
1.0
 72
1
  3

 73
1
 74
1
 75
1
 44
0.5
 73
0
 45
1.0
 46
1.0
 77
1
  4

 78
1
 79
1
170
1
 48
1.0
171
1
  6

172
1
173
1
174
1
140
1.0
141
1.0
175
1
  7

176
1
177
1
178
1
143
1.0
179
1
  8

270
1
271
1
272
1
145
1.0
146
1.0
273
1
  9

274
1
275
1
276
1
 42
1.0
 72
1
  3

 73
1
 74
1
 75
1
 94
63
  0
MATERIAL
  5
20
102
{ACAD_REACTORS
330
E
102
}
330
E
100
AcDbMaterial
  1
ByLayer
  2

 70
0
 40
1.0
 71
1
 41
1.0
 91
-1023410177
 42
1.0
 72
1
  3

 73
1
 74
1
 75
1
 44
0.5
 73
0
 45
1.0
 46
1.0
 77
1
  4

 78
1
 79
1
170
1
 48
1.0
171
1
  6

172
1
173
1
174
1
140
1.0
141
1.0
175
1
  7

176
1
177
1
178
1
143
1.0
179
1
  8

270
1
271
1
272
1
145
1.0
146
1.0
273
1
  9

274
1
275
1
276
1
 42
1.0
 72
1
  3

 73
1
 74
1
 75
1
 94
63
  0
MATERIAL
  5
21
102
{ACAD_REACTORS
330
E
102
}
330
E
100
AcDbMaterial
  1
Global
  2

 70
0
 40
1.0
 71
1
 41
1.0
 91
-1023410177
 42
1.0
 72
1
  3

 73
1
 74
1
 75
1
 44
0.5
 73
0
 45
1.0
 46
1.0
 77
1
  4

 78
1
 79
1
170
1
 48
1.0
171
1
  6

172
1
173
1
174
1
140
1.0
141
1.0
175
1
  7

176
1
177
1
178
1
143
1.0
179
1
  8

270
1
271
1
272
1
145
1.0
146
1.0
273
1
  9

274
1
275
1
276
1
 42
1.0
 72
1
  3

 73
1
 74
1
 75
1
 94
63
  0
MLINESTYLE
  5
22
102
{ACAD_REACTORS
330
10
102
}
330
10
100
AcDbMlineStyle
  2
Standard
 70
0
  3

 62
256
 51
90.0
 52
90.0
 71
2
 49
0.5
 62
256
  6
BYLAYER
 49
-0.5
 62
256
  6
BYLAYER
  0
MLEADERSTYLE
  5
2C
102
{ACAD_REACTORS
330
F
102
}
330
F
100
AcDbMLeaderStyle
179
2
170
2
171
1
172
0
 90
2
 40
0.0
 41
0.0
173
1
 91
-1056964608
 92
-2
290
1
 42
2.0
291
1
 43
8.0
  3
Standard
 44
4.0
300

342
29
174
1
175
1
176
0
178
1
 93
-1056964608
 45
4.0
292
0
297
0
 46
4.0
 94
-1056964608
 47
1.0
 49
1.0
140
1.0
294
1
141
0.0
177
0
142
1.0
295
0
296
0
143
3.75
271
0
272
9
273
9
  0
DICTIONARY
  5
2D
330
A
100
AcDbDictionary
280
1
281
1
  3
CREATED_BY_EZDXF
350
2E
  3
WRITTEN_BY_EZDXF
350
69
  0
DICTIONARYVAR
  5
2E
330
2D
100
DictionaryVariables
280
0
  1
1.4.4 @ 2026-08-01T12:31:14.832851+00:00
  0
DICTIONARYVAR
  5
69
330
2D
100
DictionaryVariables
280
0
  1
1.4.4 @ 2026-08-01T12:31:14.851645+00:00
  0
ENDSEC
  0
EOF
